<?xml version="1.0" standalone="no"?>
<!DOCTYPE svg PUBLIC "-//W3C//DTD SVG 1.1//EN" "http://www.w3.org/Graphics/SVG/1.1/DTD/svg11.dtd">
<svg width="286mm" height="936mm" viewBox="-143 -1791 286 936" xmlns="http://www.w3.org/2000/svg" version="1.1">
<title>OpenSCAD Model</title>
<path d="
M 138.437,-1611.09 L 139.045,-1611.24 L 139.629,-1611.48 L 140.179,-1611.78 L 140.687,-1612.15 L 141.145,-1612.58
 L 141.545,-1613.06 L 141.882,-1613.59 L 142.149,-1614.16 L 142.343,-1614.76 L 142.461,-1615.37 L 142.5,-1616
 L 142.5,-1786 L 142.461,-1786.63 L 142.343,-1787.24 L 142.149,-1787.84 L 141.882,-1788.41 L 141.545,-1788.94
 L 141.145,-1789.42 L 140.687,-1789.85 L 140.179,-1790.22 L 139.629,-1790.52 L 139.045,-1790.76 L 138.437,-1790.91
 L 137.814,-1790.99 L -137.814,-1790.99 L -138.437,-1790.91 L -139.045,-1790.76 L -139.629,-1790.52 L -140.179,-1790.22
 L -140.687,-1789.85 L -141.145,-1789.42 L -141.545,-1788.94 L -141.882,-1788.41 L -142.149,-1787.84 L -142.343,-1787.24
 L -142.461,-1786.63 L -142.5,-1786 L -142.5,-1616 L -142.461,-1615.37 L -142.343,-1614.76 L -142.149,-1614.16
 L -141.882,-1613.59 L -141.545,-1613.06 L -141.145,-1612.58 L -140.687,-1612.15 L -140.179,-1611.78 L -139.629,-1611.48
 L -139.045,-1611.24 L -138.437,-1611.09 L -137.814,-1611.01 L 137.814,-1611.01 z
M -137.548,-1611.51 L -138.14,-1611.58 L -138.718,-1611.73 L -139.272,-1611.95 L -139.795,-1612.24 L -140.278,-1612.59
 L -140.713,-1613 L -141.093,-1613.46 L -141.412,-1613.96 L -141.666,-1614.5 L -141.851,-1615.07 L -141.963,-1615.65
 L -142,-1616.25 L -142,-1785.75 L -141.963,-1786.35 L -141.851,-1786.93 L -141.666,-1787.5 L -141.412,-1788.04
 L -141.093,-1788.54 L -140.713,-1789 L -140.278,-1789.41 L -139.795,-1789.76 L -139.272,-1790.05 L -138.718,-1790.27
 L -138.14,-1790.42 L -137.548,-1790.49 L 137.548,-1790.49 L 138.14,-1790.42 L 138.718,-1790.27 L 139.272,-1790.05
 L 139.795,-1789.76 L 140.278,-1789.41 L 140.713,-1789 L 141.093,-1788.54 L 141.412,-1788.04 L 141.666,-1787.5
 L 141.851,-1786.93 L 141.963,-1786.35 L 142,-1785.75 L 142,-1616.25 L 141.963,-1615.65 L 141.851,-1615.07
 L 141.666,-1614.5 L 141.412,-1613.96 L 141.093,-1613.46 L 140.713,-1613 L 140.278,-1612.59 L 139.795,-1612.24
 L 139.272,-1611.95 L 138.718,-1611.73 L 138.14,-1611.58 L 137.548,-1611.51 z
M 138.437,-1422.09 L 139.045,-1422.24 L 139.629,-1422.48 L 140.179,-1422.78 L 140.687,-1423.15 L 141.145,-1423.58
 L 141.545,-1424.06 L 141.882,-1424.59 L 142.149,-1425.16 L 142.343,-1425.76 L 142.461,-1426.37 L 142.5,-1427
 L 142.5,-1597 L 142.461,-1597.63 L 142.343,-1598.24 L 142.149,-1598.84 L 141.882,-1599.41 L 141.545,-1599.94
 L 141.145,-1600.42 L 140.687,-1600.85 L 140.179,-1601.22 L 139.629,-1601.52 L 139.045,-1601.76 L 138.437,-1601.91
 L 137.814,-1601.99 L -137.814,-1601.99 L -138.437,-1601.91 L -139.045,-1601.76 L -139.629,-1601.52 L -140.179,-1601.22
 L -140.687,-1600.85 L -141.145,-1600.42 L -141.545,-1599.94 L -141.882,-1599.41 L -142.149,-1598.84 L -142.343,-1598.24
 L -142.461,-1597.63 L -142.5,-1597 L -142.5,-1427 L -142.461,-1426.37 L -142.343,-1425.76 L -142.149,-1425.16
 L -141.882,-1424.59 L -141.545,-1424.06 L -141.145,-1423.58 L -140.687,-1423.15 L -140.179,-1422.78 L -139.629,-1422.48
 L -139.045,-1422.24 L -138.437,-1422.09 L -137.814,-1422.01 L 137.814,-1422.01 z
M -137.548,-1422.51 L -138.14,-1422.58 L -138.718,-1422.73 L -139.272,-1422.95 L -139.795,-1423.24 L -140.278,-1423.59
 L -140.713,-1424 L -141.093,-1424.46 L -141.412,-1424.96 L -141.666,-1425.5 L -141.851,-1426.07 L -141.963,-1426.65
 L -142,-1427.25 L -142,-1596.75 L -141.963,-1597.35 L -141.851,-1597.93 L -141.666,-1598.5 L -141.412,-1599.04
 L -141.093,-1599.54 L -140.713,-1600 L -140.278,-1600.41 L -139.795,-1600.76 L -139.272,-1601.05 L -138.718,-1601.27
 L -138.14,-1601.42 L -137.548,-1601.49 L 137.548,-1601.49 L 138.14,-1601.42 L 138.718,-1601.27 L 139.272,-1601.05
 L 139.795,-1600.76 L 140.278,-1600.41 L 140.713,-1600 L 141.093,-1599.54 L 141.412,-1599.04 L 141.666,-1598.5
 L 141.851,-1597.93 L 141.963,-1597.35 L 142,-1596.75 L 142,-1427.25 L 141.963,-1426.65 L 141.851,-1426.07
 L 141.666,-1425.5 L 141.412,-1424.96 L 141.093,-1424.46 L 140.713,-1424 L 140.278,-1423.59 L 139.795,-1423.24
 L 139.272,-1422.95 L 138.718,-1422.73 L 138.14,-1422.58 L 137.548,-1422.51 z
M 138.437,-1233.09 L 139.045,-1233.24 L 139.629,-1233.48 L 140.179,-1233.78 L 140.687,-1234.15 L 141.145,-1234.58
 L 141.545,-1235.06 L 141.882,-1235.59 L 142.149,-1236.16 L 142.343,-1236.76 L 142.461,-1237.37 L 142.5,-1238
 L 142.5,-1408 L 142.461,-1408.63 L 142.343,-1409.24 L 142.149,-1409.84 L 141.882,-1410.41 L 141.545,-1410.94
 L 141.145,-1411.42 L 140.687,-1411.85 L 140.179,-1412.22 L 139.629,-1412.52 L 139.045,-1412.76 L 138.437,-1412.91
 L 137.814,-1412.99 L -137.814,-1412.99 L -138.437,-1412.91 L -139.045,-1412.76 L -139.629,-1412.52 L -140.179,-1412.22
 L -140.687,-1411.85 L -141.145,-1411.42 L -141.545,-1410.94 L -141.882,-1410.41 L -142.149,-1409.84 L -142.343,-1409.24
 L -142.461,-1408.63 L -142.5,-1408 L -142.5,-1238 L -142.461,-1237.37 L -142.343,-1236.76 L -142.149,-1236.16
 L -141.882,-1235.59 L -141.545,-1235.06 L -141.145,-1234.58 L -140.687,-1234.15 L -140.179,-1233.78 L -139.629,-1233.48
 L -139.045,-1233.24 L -138.437,-1233.09 L -137.814,-1233.01 L 137.814,-1233.01 z
M -137.548,-1233.51 L -138.14,-1233.58 L -138.718,-1233.73 L -139.272,-1233.95 L -139.795,-1234.24 L -140.278,-1234.59
 L -140.713,-1235 L -141.093,-1235.46 L -141.412,-1235.96 L -141.666,-1236.5 L -141.851,-1237.07 L -141.963,-1237.65
 L -142,-1238.25 L -142,-1407.75 L -141.963,-1408.35 L -141.851,-1408.93 L -141.666,-1409.5 L -141.412,-1410.04
 L -141.093,-1410.54 L -140.713,-1411 L -140.278,-1411.41 L -139.795,-1411.76 L -139.272,-1412.05 L -138.718,-1412.27
 L -138.14,-1412.42 L -137.548,-1412.49 L 137.548,-1412.49 L 138.14,-1412.42 L 138.718,-1412.27 L 139.272,-1412.05
 L 139.795,-1411.76 L 140.278,-1411.41 L 140.713,-1411 L 141.093,-1410.54 L 141.412,-1410.04 L 141.666,-1409.5
 L 141.851,-1408.93 L 141.963,-1408.35 L 142,-1407.75 L 142,-1238.25 L 141.963,-1237.65 L 141.851,-1237.07
 L 141.666,-1236.5 L 141.412,-1235.96 L 141.093,-1235.46 L 140.713,-1235 L 140.278,-1234.59 L 139.795,-1234.24
 L 139.272,-1233.95 L 138.718,-1233.73 L 138.14,-1233.58 L 137.548,-1233.51 z
M 138.437,-1044.09 L 139.045,-1044.24 L 139.629,-1044.48 L 140.179,-1044.78 L 140.687,-1045.15 L 141.145,-1045.58
 L 141.545,-1046.06 L 141.882,-1046.59 L 142.149,-1047.16 L 142.343,-1047.76 L 142.461,-1048.37 L 142.5,-1049
 L 142.5,-1219 L 142.461,-1219.63 L 142.343,-1220.24 L 142.149,-1220.84 L 141.882,-1221.41 L 141.545,-1221.94
 L 141.145,-1222.42 L 140.687,-1222.85 L 140.179,-1223.22 L 139.629,-1223.52 L 139.045,-1223.76 L 138.437,-1223.91
 L 137.814,-1223.99 L -137.814,-1223.99 L -138.437,-1223.91 L -139.045,-1223.76 L -139.629,-1223.52 L -140.179,-1223.22
 L -140.687,-1222.85 L -141.145,-1222.42 L -141.545,-1221.94 L -141.882,-1221.41 L -142.149,-1220.84 L -142.343,-1220.24
 L -142.461,-1219.63 L -142.5,-1219 L -142.5,-1049 L -142.461,-1048.37 L -142.343,-1047.76 L -142.149,-1047.16
 L -141.882,-1046.59 L -141.545,-1046.06 L -141.145,-1045.58 L -140.687,-1045.15 L -140.179,-1044.78 L -139.629,-1044.48
 L -139.045,-1044.24 L -138.437,-1044.09 L -137.814,-1044.01 L 137.814,-1044.01 z
M -137.537,-1044.68 L -138.108,-1044.75 L -138.665,-1044.9 L -139.199,-1045.11 L -139.703,-1045.38 L -140.168,-1045.72
 L -140.588,-1046.12 L -140.954,-1046.56 L -141.262,-1047.04 L -141.507,-1047.56 L -141.685,-1048.11 L -141.792,-1048.68
 L -141.828,-1049.25 L -141.828,-1218.75 L -141.792,-1219.32 L -141.685,-1219.89 L -141.507,-1220.44 L -141.262,-1220.96
 L -140.954,-1221.44 L -140.588,-1221.88 L -140.168,-1222.28 L -139.703,-1222.62 L -139.199,-1222.89 L -138.665,-1223.1
 L -138.108,-1223.25 L -137.537,-1223.32 L 137.537,-1223.32 L 138.108,-1223.25 L 138.665,-1223.1 L 139.199,-1222.89
 L 139.703,-1222.62 L 140.168,-1222.28 L 140.588,-1221.88 L 140.954,-1221.44 L 141.262,-1220.96 L 141.507,-1220.44
 L 141.685,-1219.89 L 141.792,-1219.32 L 141.828,-1218.75 L 141.828,-1049.25 L 141.792,-1048.68 L 141.685,-1048.11
 L 141.507,-1047.56 L 141.262,-1047.04 L 140.954,-1046.56 L 140.588,-1046.12 L 140.168,-1045.72 L 139.703,-1045.38
 L 139.199,-1045.11 L 138.665,-1044.9 L 138.108,-1044.75 L 137.537,-1044.68 z
M 138.437,-855.089 L 139.045,-855.245 L 139.629,-855.476 L 140.179,-855.778 L 140.687,-856.147 L 141.145,-856.577
 L 141.545,-857.061 L 141.882,-857.591 L 142.149,-858.159 L 142.343,-858.757 L 142.461,-859.373 L 142.5,-860
 L 142.5,-1030 L 142.461,-1030.63 L 142.343,-1031.24 L 142.149,-1031.84 L 141.882,-1032.41 L 141.545,-1032.94
 L 141.145,-1033.42 L 140.687,-1033.85 L 140.179,-1034.22 L 139.629,-1034.52 L 139.045,-1034.76 L 138.437,-1034.91
 L 137.814,-1034.99 L -137.814,-1034.99 L -138.437,-1034.91 L -139.045,-1034.76 L -139.629,-1034.52 L -140.179,-1034.22
 L -140.687,-1033.85 L -141.145,-1033.42 L -141.545,-1032.94 L -141.882,-1032.41 L -142.149,-1031.84 L -142.343,-1031.24
 L -142.461,-1030.63 L -142.5,-1030 L -142.5,-860 L -142.461,-859.373 L -142.343,-858.757 L -142.149,-858.159
 L -141.882,-857.591 L -141.545,-857.061 L -141.145,-856.577 L -140.687,-856.147 L -140.179,-855.778 L -139.629,-855.476
 L -139.045,-855.245 L -138.437,-855.089 L -137.814,-855.01 L 137.814,-855.01 z
M -137.382,-858.145 L -137.645,-858.178 L -137.902,-858.244 L -138.148,-858.341 L -138.38,-858.469 L -138.595,-858.624
 L -138.788,-858.806 L -138.957,-859.01 L -139.099,-859.234 L -139.211,-859.473 L -139.293,-859.725 L -139.343,-859.986
 L -139.36,-860.25 L -139.36,-1029.75 L -139.343,-1030.01 L -139.293,-1030.27 L -139.211,-1030.53 L -139.099,-1030.77
 L -138.957,-1030.99 L -138.788,-1031.19 L -138.595,-1031.38 L -138.38,-1031.53 L -138.148,-1031.66 L -137.902,-1031.76
 L -137.645,-1031.82 L -137.382,-1031.86 L 137.382,-1031.86 L 137.645,-1031.82 L 137.902,-1031.76 L 138.148,-1031.66
 L 138.38,-1031.53 L 138.595,-1031.38 L 138.788,-1031.19 L 138.957,-1030.99 L 139.099,-1030.77 L 139.211,-1030.53
 L 139.293,-1030.27 L 139.343,-1030.01 L 139.36,-1029.75 L 139.36,-860.25 L 139.343,-859.986 L 139.293,-859.725
 L 139.211,-859.473 L 139.099,-859.234 L 138.957,-859.01 L 138.788,-858.806 L 138.595,-858.624 L 138.38,-858.469
 L 138.148,-858.341 L 137.902,-858.244 L 137.645,-858.178 L 137.382,-858.145 z
" stroke="black" fill="lightgray" stroke-width="0.5"/>
</svg>
