<?xml version="1.0" standalone="no"?>
<!DOCTYPE svg PUBLIC "-//W3C//DTD SVG 1.1//EN" "http://www.w3.org/Graphics/SVG/1.1/DTD/svg11.dtd">
<svg width="272mm" height="189mm" viewBox="-137 -243 272 189" xmlns="http://www.w3.org/2000/svg" version="1.1">
<title>OpenSCAD Model</title>
<path d="
M 130.937,-153.089 L 131.545,-153.245 L 132.129,-153.476 L 132.679,-153.778 L 133.187,-154.147 L 133.645,-154.577
 L 134.045,-155.061 L 134.382,-155.591 L 134.649,-156.159 L 134.843,-156.757 L 134.961,-157.373 L 135,-158
 L 135,-238 L 134.961,-238.627 L 134.843,-239.243 L 134.649,-239.841 L 134.382,-240.409 L 134.045,-240.939
 L 133.645,-241.423 L 133.187,-241.853 L 132.679,-242.222 L 132.129,-242.524 L 131.545,-242.755 L 130.937,-242.911
 L 130.314,-242.99 L -130.314,-242.99 L -130.937,-242.911 L -131.545,-242.755 L -132.129,-242.524 L -132.679,-242.222
 L -133.187,-241.853 L -133.5,-241.559 L -133.5,-242.615 L -136.5,-242.615 L -136.5,-153.385 L -133.5,-153.385
 L -133.5,-154.441 L -133.187,-154.147 L -132.679,-153.778 L -132.129,-153.476 L -131.545,-153.245 L -130.937,-153.089
 L -130.314,-153.01 L 130.314,-153.01 z
M 127.349,-233.105 L 127.05,-233.143 L 126.758,-233.217 L 126.478,-233.328 L 126.214,-233.474 L 125.97,-233.651
 L 125.75,-233.857 L 125.558,-234.089 L 125.397,-234.344 L 125.269,-234.617 L 125.175,-234.903 L 125.119,-235.199
 L 125.1,-235.5 L 125.119,-235.801 L 125.175,-236.097 L 125.269,-236.383 L 125.397,-236.656 L 125.558,-236.911
 L 125.75,-237.143 L 125.97,-237.349 L 126.214,-237.526 L 126.478,-237.672 L 126.758,-237.783 L 127.05,-237.857
 L 127.349,-237.895 L 127.651,-237.895 L 127.95,-237.857 L 128.242,-237.783 L 128.522,-237.672 L 128.786,-237.526
 L 129.03,-237.349 L 129.25,-237.143 L 129.442,-236.911 L 129.603,-236.656 L 129.731,-236.383 L 129.825,-236.097
 L 129.881,-235.801 L 129.9,-235.5 L 129.881,-235.199 L 129.825,-234.903 L 129.731,-234.617 L 129.603,-234.344
 L 129.442,-234.089 L 129.25,-233.857 L 129.03,-233.651 L 128.786,-233.474 L 128.522,-233.328 L 128.242,-233.217
 L 127.95,-233.143 L 127.651,-233.105 z
M -127.651,-233.105 L -127.95,-233.143 L -128.242,-233.217 L -128.522,-233.328 L -128.786,-233.474 L -129.03,-233.651
 L -129.25,-233.857 L -129.442,-234.089 L -129.603,-234.344 L -129.731,-234.617 L -129.825,-234.903 L -129.881,-235.199
 L -129.9,-235.5 L -129.881,-235.801 L -129.825,-236.097 L -129.731,-236.383 L -129.603,-236.656 L -129.442,-236.911
 L -129.25,-237.143 L -129.03,-237.349 L -128.786,-237.526 L -128.522,-237.672 L -128.242,-237.783 L -127.95,-237.857
 L -127.651,-237.895 L -127.349,-237.895 L -127.05,-237.857 L -126.758,-237.783 L -126.478,-237.672 L -126.214,-237.526
 L -125.97,-237.349 L -125.75,-237.143 L -125.558,-236.911 L -125.397,-236.656 L -125.269,-236.383 L -125.175,-236.097
 L -125.119,-235.801 L -125.1,-235.5 L -125.119,-235.199 L -125.175,-234.903 L -125.269,-234.617 L -125.397,-234.344
 L -125.558,-234.089 L -125.75,-233.857 L -125.97,-233.651 L -126.214,-233.474 L -126.478,-233.328 L -126.758,-233.217
 L -127.05,-233.143 L -127.349,-233.105 z
M 127.349,-158.105 L 127.05,-158.143 L 126.758,-158.217 L 126.478,-158.328 L 126.214,-158.474 L 125.97,-158.651
 L 125.75,-158.857 L 125.558,-159.089 L 125.397,-159.344 L 125.269,-159.617 L 125.175,-159.903 L 125.119,-160.199
 L 125.1,-160.5 L 125.119,-160.801 L 125.175,-161.097 L 125.269,-161.383 L 125.397,-161.656 L 125.558,-161.911
 L 125.75,-162.143 L 125.97,-162.349 L 126.214,-162.526 L 126.478,-162.672 L 126.758,-162.783 L 127.05,-162.857
 L 127.349,-162.895 L 127.651,-162.895 L 127.95,-162.857 L 128.242,-162.783 L 128.522,-162.672 L 128.786,-162.526
 L 129.03,-162.349 L 129.25,-162.143 L 129.442,-161.911 L 129.603,-161.656 L 129.731,-161.383 L 129.825,-161.097
 L 129.881,-160.801 L 129.9,-160.5 L 129.881,-160.199 L 129.825,-159.903 L 129.731,-159.617 L 129.603,-159.344
 L 129.442,-159.089 L 129.25,-158.857 L 129.03,-158.651 L 128.786,-158.474 L 128.522,-158.328 L 128.242,-158.217
 L 127.95,-158.143 L 127.651,-158.105 z
M -127.651,-158.105 L -127.95,-158.143 L -128.242,-158.217 L -128.522,-158.328 L -128.786,-158.474 L -129.03,-158.651
 L -129.25,-158.857 L -129.442,-159.089 L -129.603,-159.344 L -129.731,-159.617 L -129.825,-159.903 L -129.881,-160.199
 L -129.9,-160.5 L -129.881,-160.801 L -129.825,-161.097 L -129.731,-161.383 L -129.603,-161.656 L -129.442,-161.911
 L -129.25,-162.143 L -129.03,-162.349 L -128.786,-162.526 L -128.522,-162.672 L -128.242,-162.783 L -127.95,-162.857
 L -127.651,-162.895 L -127.349,-162.895 L -127.05,-162.857 L -126.758,-162.783 L -126.478,-162.672 L -126.214,-162.526
 L -125.97,-162.349 L -125.75,-162.143 L -125.558,-161.911 L -125.397,-161.656 L -125.269,-161.383 L -125.175,-161.097
 L -125.119,-160.801 L -125.1,-160.5 L -125.119,-160.199 L -125.175,-159.903 L -125.269,-159.617 L -125.397,-159.344
 L -125.558,-159.089 L -125.75,-158.857 L -125.97,-158.651 L -126.214,-158.474 L -126.478,-158.328 L -126.758,-158.217
 L -127.05,-158.143 L -127.349,-158.105 z
M 130.937,-54.0886 L 131.545,-54.2447 L 132.129,-54.4759 L 132.679,-54.7784 L 133.187,-55.1474 L 133.645,-55.5773
 L 134.045,-56.0611 L 134.382,-56.5912 L 134.649,-57.1594 L 134.843,-57.7566 L 134.961,-58.3733 L 135,-59
 L 135,-139 L 134.961,-139.627 L 134.843,-140.243 L 134.649,-140.841 L 134.382,-141.409 L 134.045,-141.939
 L 133.645,-142.423 L 133.187,-142.853 L 132.679,-143.222 L 132.129,-143.524 L 131.545,-143.755 L 130.937,-143.911
 L 130.314,-143.99 L -130.314,-143.99 L -130.937,-143.911 L -131.545,-143.755 L -132.129,-143.524 L -132.679,-143.222
 L -133.187,-142.853 L -133.645,-142.423 L -134.045,-141.939 L -134.382,-141.409 L -134.649,-140.841 L -134.843,-140.243
 L -134.9,-139.944 L -136.5,-139.944 L -136.5,-58.0558 L -134.9,-58.0558 L -134.843,-57.7566 L -134.649,-57.1594
 L -134.382,-56.5912 L -134.045,-56.0611 L -133.645,-55.5773 L -133.187,-55.1474 L -132.679,-54.7784 L -132.129,-54.4759
 L -131.545,-54.2447 L -130.937,-54.0886 L -130.314,-54.0099 L 130.314,-54.0099 z
M -127.613,-134.704 L -127.837,-134.732 L -128.056,-134.788 L -128.266,-134.871 L -128.464,-134.98 L -128.647,-135.113
 L -128.812,-135.268 L -128.956,-135.442 L -129.077,-135.633 L -129.174,-135.837 L -129.243,-136.052 L -129.286,-136.274
 L -129.3,-136.5 L -129.286,-136.726 L -129.243,-136.948 L -129.174,-137.163 L -129.077,-137.367 L -128.956,-137.558
 L -128.812,-137.732 L -128.647,-137.887 L -128.464,-138.02 L -128.266,-138.129 L -128.056,-138.212 L -127.837,-138.268
 L -127.613,-138.296 L -127.387,-138.296 L -127.163,-138.268 L -126.944,-138.212 L -126.734,-138.129 L -126.536,-138.02
 L -126.353,-137.887 L -126.188,-137.732 L -126.044,-137.558 L -125.923,-137.367 L -125.826,-137.163 L -125.757,-136.948
 L -125.714,-136.726 L -125.7,-136.5 L -125.714,-136.274 L -125.757,-136.052 L -125.826,-135.837 L -125.923,-135.633
 L -126.044,-135.442 L -126.188,-135.268 L -126.353,-135.113 L -126.536,-134.98 L -126.734,-134.871 L -126.944,-134.788
 L -127.163,-134.732 L -127.387,-134.704 z
M 127.387,-134.704 L 127.163,-134.732 L 126.944,-134.788 L 126.734,-134.871 L 126.536,-134.98 L 126.353,-135.113
 L 126.188,-135.268 L 126.044,-135.442 L 125.923,-135.633 L 125.826,-135.837 L 125.757,-136.052 L 125.714,-136.274
 L 125.7,-136.5 L 125.714,-136.726 L 125.757,-136.948 L 125.826,-137.163 L 125.923,-137.367 L 126.044,-137.558
 L 126.188,-137.732 L 126.353,-137.887 L 126.536,-138.02 L 126.734,-138.129 L 126.944,-138.212 L 127.163,-138.268
 L 127.387,-138.296 L 127.613,-138.296 L 127.837,-138.268 L 128.056,-138.212 L 128.266,-138.129 L 128.464,-138.02
 L 128.647,-137.887 L 128.812,-137.732 L 128.956,-137.558 L 129.077,-137.367 L 129.174,-137.163 L 129.243,-136.948
 L 129.286,-136.726 L 129.3,-136.5 L 129.286,-136.274 L 129.243,-136.052 L 129.174,-135.837 L 129.077,-135.633
 L 128.956,-135.442 L 128.812,-135.268 L 128.647,-135.113 L 128.464,-134.98 L 128.266,-134.871 L 128.056,-134.788
 L 127.837,-134.732 L 127.613,-134.704 z
M 127.387,-59.7036 L 127.163,-59.7319 L 126.944,-59.7881 L 126.734,-59.8713 L 126.536,-59.9802 L 126.353,-60.1131
 L 126.188,-60.2678 L 126.044,-60.442 L 125.923,-60.6328 L 125.826,-60.8374 L 125.757,-61.0524 L 125.714,-61.2744
 L 125.7,-61.5 L 125.714,-61.7256 L 125.757,-61.9476 L 125.826,-62.1626 L 125.923,-62.3672 L 126.044,-62.558
 L 126.188,-62.7322 L 126.353,-62.8869 L 126.536,-63.0198 L 126.734,-63.1287 L 126.944,-63.2119 L 127.163,-63.2681
 L 127.387,-63.2964 L 127.613,-63.2964 L 127.837,-63.2681 L 128.056,-63.2119 L 128.266,-63.1287 L 128.464,-63.0198
 L 128.647,-62.8869 L 128.812,-62.7322 L 128.956,-62.558 L 129.077,-62.3672 L 129.174,-62.1626 L 129.243,-61.9476
 L 129.286,-61.7256 L 129.3,-61.5 L 129.286,-61.2744 L 129.243,-61.0524 L 129.174,-60.8374 L 129.077,-60.6328
 L 128.956,-60.442 L 128.812,-60.2678 L 128.647,-60.1131 L 128.464,-59.9802 L 128.266,-59.8713 L 128.056,-59.7881
 L 127.837,-59.7319 L 127.613,-59.7036 z
M -127.613,-59.7036 L -127.837,-59.7319 L -128.056,-59.7881 L -128.266,-59.8713 L -128.464,-59.9802 L -128.647,-60.1131
 L -128.812,-60.2678 L -128.956,-60.442 L -129.077,-60.6328 L -129.174,-60.8374 L -129.243,-61.0524 L -129.286,-61.2744
 L -129.3,-61.5 L -129.286,-61.7256 L -129.243,-61.9476 L -129.174,-62.1626 L -129.077,-62.3672 L -128.956,-62.558
 L -128.812,-62.7322 L -128.647,-62.8869 L -128.464,-63.0198 L -128.266,-63.1287 L -128.056,-63.2119 L -127.837,-63.2681
 L -127.613,-63.2964 L -127.387,-63.2964 L -127.163,-63.2681 L -126.944,-63.2119 L -126.734,-63.1287 L -126.536,-63.0198
 L -126.353,-62.8869 L -126.188,-62.7322 L -126.044,-62.558 L -125.923,-62.3672 L -125.826,-62.1626 L -125.757,-61.9476
 L -125.714,-61.7256 L -125.7,-61.5 L -125.714,-61.2744 L -125.757,-61.0524 L -125.826,-60.8374 L -125.923,-60.6328
 L -126.044,-60.442 L -126.188,-60.2678 L -126.353,-60.1131 L -126.536,-59.9802 L -126.734,-59.8713 L -126.944,-59.7881
 L -127.163,-59.7319 L -127.387,-59.7036 z
" stroke="black" fill="lightgray" stroke-width="0.5"/>
</svg>
