  0
SECTION
  2
BLOCKS
  0
ENDSEC
  0
SECTION
  2
ENTITIES
  0
LINE
  8
0
 10
130.937
 20
153.089
 11
131.545
 21
153.245
  0
LINE
  8
0
 10
131.545
 20
153.245
 11
132.129
 21
153.476
  0
LINE
  8
0
 10
132.129
 20
153.476
 11
132.679
 21
153.778
  0
LINE
  8
0
 10
132.679
 20
153.778
 11
133.187
 21
154.147
  0
LINE
  8
0
 10
133.187
 20
154.147
 11
133.645
 21
154.577
  0
LINE
  8
0
 10
133.645
 20
154.577
 11
134.045
 21
155.061
  0
LINE
  8
0
 10
134.045
 20
155.061
 11
134.382
 21
155.591
  0
LINE
  8
0
 10
134.382
 20
155.591
 11
134.649
 21
156.159
  0
LINE
  8
0
 10
134.649
 20
156.159
 11
134.843
 21
156.757
  0
LINE
  8
0
 10
134.843
 20
156.757
 11
134.961
 21
157.373
  0
LINE
  8
0
 10
134.961
 20
157.373
 11
135
 21
158
  0
LINE
  8
0
 10
135
 20
158
 11
135
 21
238
  0
LINE
  8
0
 10
135
 20
238
 11
134.961
 21
238.627
  0
LINE
  8
0
 10
134.961
 20
238.627
 11
134.843
 21
239.243
  0
LINE
  8
0
 10
134.843
 20
239.243
 11
134.649
 21
239.841
  0
LINE
  8
0
 10
134.649
 20
239.841
 11
134.382
 21
240.409
  0
LINE
  8
0
 10
134.382
 20
240.409
 11
134.045
 21
240.939
  0
LINE
  8
0
 10
134.045
 20
240.939
 11
133.645
 21
241.423
  0
LINE
  8
0
 10
133.645
 20
241.423
 11
133.187
 21
241.853
  0
LINE
  8
0
 10
133.187
 20
241.853
 11
132.679
 21
242.222
  0
LINE
  8
0
 10
132.679
 20
242.222
 11
132.129
 21
242.524
  0
LINE
  8
0
 10
132.129
 20
242.524
 11
131.545
 21
242.755
  0
LINE
  8
0
 10
131.545
 20
242.755
 11
130.937
 21
242.911
  0
LINE
  8
0
 10
130.937
 20
242.911
 11
130.314
 21
242.99
  0
LINE
  8
0
 10
130.314
 20
242.99
 11
-130.314
 21
242.99
  0
LINE
  8
0
 10
-130.314
 20
242.99
 11
-130.937
 21
242.911
  0
LINE
  8
0
 10
-130.937
 20
242.911
 11
-131.545
 21
242.755
  0
LINE
  8
0
 10
-131.545
 20
242.755
 11
-132.129
 21
242.524
  0
LINE
  8
0
 10
-132.129
 20
242.524
 11
-132.679
 21
242.222
  0
LINE
  8
0
 10
-132.679
 20
242.222
 11
-133.187
 21
241.853
  0
LINE
  8
0
 10
-133.187
 20
241.853
 11
-133.5
 21
241.559
  0
LINE
  8
0
 10
-133.5
 20
241.559
 11
-133.5
 21
242.615
  0
LINE
  8
0
 10
-133.5
 20
242.615
 11
-136.5
 21
242.615
  0
LINE
  8
0
 10
-136.5
 20
242.615
 11
-136.5
 21
153.385
  0
LINE
  8
0
 10
-136.5
 20
153.385
 11
-133.5
 21
153.385
  0
LINE
  8
0
 10
-133.5
 20
153.385
 11
-133.5
 21
154.441
  0
LINE
  8
0
 10
-133.5
 20
154.441
 11
-133.187
 21
154.147
  0
LINE
  8
0
 10
-133.187
 20
154.147
 11
-132.679
 21
153.778
  0
LINE
  8
0
 10
-132.679
 20
153.778
 11
-132.129
 21
153.476
  0
LINE
  8
0
 10
-132.129
 20
153.476
 11
-131.545
 21
153.245
  0
LINE
  8
0
 10
-131.545
 20
153.245
 11
-130.937
 21
153.089
  0
LINE
  8
0
 10
-130.937
 20
153.089
 11
-130.314
 21
153.01
  0
LINE
  8
0
 10
-130.314
 20
153.01
 11
130.314
 21
153.01
  0
LINE
  8
0
 10
130.314
 20
153.01
 11
130.937
 21
153.089
  0
LINE
  8
0
 10
127.349
 20
233.105
 11
127.05
 21
233.143
  0
LINE
  8
0
 10
127.05
 20
233.143
 11
126.758
 21
233.217
  0
LINE
  8
0
 10
126.758
 20
233.217
 11
126.478
 21
233.328
  0
LINE
  8
0
 10
126.478
 20
233.328
 11
126.214
 21
233.474
  0
LINE
  8
0
 10
126.214
 20
233.474
 11
125.97
 21
233.651
  0
LINE
  8
0
 10
125.97
 20
233.651
 11
125.75
 21
233.857
  0
LINE
  8
0
 10
125.75
 20
233.857
 11
125.558
 21
234.089
  0
LINE
  8
0
 10
125.558
 20
234.089
 11
125.397
 21
234.344
  0
LINE
  8
0
 10
125.397
 20
234.344
 11
125.269
 21
234.617
  0
LINE
  8
0
 10
125.269
 20
234.617
 11
125.175
 21
234.903
  0
LINE
  8
0
 10
125.175
 20
234.903
 11
125.119
 21
235.199
  0
LINE
  8
0
 10
125.119
 20
235.199
 11
125.1
 21
235.5
  0
LINE
  8
0
 10
125.1
 20
235.5
 11
125.119
 21
235.801
  0
LINE
  8
0
 10
125.119
 20
235.801
 11
125.175
 21
236.097
  0
LINE
  8
0
 10
125.175
 20
236.097
 11
125.269
 21
236.383
  0
LINE
  8
0
 10
125.269
 20
236.383
 11
125.397
 21
236.656
  0
LINE
  8
0
 10
125.397
 20
236.656
 11
125.558
 21
236.911
  0
LINE
  8
0
 10
125.558
 20
236.911
 11
125.75
 21
237.143
  0
LINE
  8
0
 10
125.75
 20
237.143
 11
125.97
 21
237.349
  0
LINE
  8
0
 10
125.97
 20
237.349
 11
126.214
 21
237.526
  0
LINE
  8
0
 10
126.214
 20
237.526
 11
126.478
 21
237.672
  0
LINE
  8
0
 10
126.478
 20
237.672
 11
126.758
 21
237.783
  0
LINE
  8
0
 10
126.758
 20
237.783
 11
127.05
 21
237.857
  0
LINE
  8
0
 10
127.05
 20
237.857
 11
127.349
 21
237.895
  0
LINE
  8
0
 10
127.349
 20
237.895
 11
127.651
 21
237.895
  0
LINE
  8
0
 10
127.651
 20
237.895
 11
127.95
 21
237.857
  0
LINE
  8
0
 10
127.95
 20
237.857
 11
128.242
 21
237.783
  0
LINE
  8
0
 10
128.242
 20
237.783
 11
128.522
 21
237.672
  0
LINE
  8
0
 10
128.522
 20
237.672
 11
128.786
 21
237.526
  0
LINE
  8
0
 10
128.786
 20
237.526
 11
129.03
 21
237.349
  0
LINE
  8
0
 10
129.03
 20
237.349
 11
129.25
 21
237.143
  0
LINE
  8
0
 10
129.25
 20
237.143
 11
129.442
 21
236.911
  0
LINE
  8
0
 10
129.442
 20
236.911
 11
129.603
 21
236.656
  0
LINE
  8
0
 10
129.603
 20
236.656
 11
129.731
 21
236.383
  0
LINE
  8
0
 10
129.731
 20
236.383
 11
129.825
 21
236.097
  0
LINE
  8
0
 10
129.825
 20
236.097
 11
129.881
 21
235.801
  0
LINE
  8
0
 10
129.881
 20
235.801
 11
129.9
 21
235.5
  0
LINE
  8
0
 10
129.9
 20
235.5
 11
129.881
 21
235.199
  0
LINE
  8
0
 10
129.881
 20
235.199
 11
129.825
 21
234.903
  0
LINE
  8
0
 10
129.825
 20
234.903
 11
129.731
 21
234.617
  0
LINE
  8
0
 10
129.731
 20
234.617
 11
129.603
 21
234.344
  0
LINE
  8
0
 10
129.603
 20
234.344
 11
129.442
 21
234.089
  0
LINE
  8
0
 10
129.442
 20
234.089
 11
129.25
 21
233.857
  0
LINE
  8
0
 10
129.25
 20
233.857
 11
129.03
 21
233.651
  0
LINE
  8
0
 10
129.03
 20
233.651
 11
128.786
 21
233.474
  0
LINE
  8
0
 10
128.786
 20
233.474
 11
128.522
 21
233.328
  0
LINE
  8
0
 10
128.522
 20
233.328
 11
128.242
 21
233.217
  0
LINE
  8
0
 10
128.242
 20
233.217
 11
127.95
 21
233.143
  0
LINE
  8
0
 10
127.95
 20
233.143
 11
127.651
 21
233.105
  0
LINE
  8
0
 10
127.651
 20
233.105
 11
127.349
 21
233.105
  0
LINE
  8
0
 10
-127.651
 20
233.105
 11
-127.95
 21
233.143
  0
LINE
  8
0
 10
-127.95
 20
233.143
 11
-128.242
 21
233.217
  0
LINE
  8
0
 10
-128.242
 20
233.217
 11
-128.522
 21
233.328
  0
LINE
  8
0
 10
-128.522
 20
233.328
 11
-128.786
 21
233.474
  0
LINE
  8
0
 10
-128.786
 20
233.474
 11
-129.03
 21
233.651
  0
LINE
  8
0
 10
-129.03
 20
233.651
 11
-129.25
 21
233.857
  0
LINE
  8
0
 10
-129.25
 20
233.857
 11
-129.442
 21
234.089
  0
LINE
  8
0
 10
-129.442
 20
234.089
 11
-129.603
 21
234.344
  0
LINE
  8
0
 10
-129.603
 20
234.344
 11
-129.731
 21
234.617
  0
LINE
  8
0
 10
-129.731
 20
234.617
 11
-129.825
 21
234.903
  0
LINE
  8
0
 10
-129.825
 20
234.903
 11
-129.881
 21
235.199
  0
LINE
  8
0
 10
-129.881
 20
235.199
 11
-129.9
 21
235.5
  0
LINE
  8
0
 10
-129.9
 20
235.5
 11
-129.881
 21
235.801
  0
LINE
  8
0
 10
-129.881
 20
235.801
 11
-129.825
 21
236.097
  0
LINE
  8
0
 10
-129.825
 20
236.097
 11
-129.731
 21
236.383
  0
LINE
  8
0
 10
-129.731
 20
236.383
 11
-129.603
 21
236.656
  0
LINE
  8
0
 10
-129.603
 20
236.656
 11
-129.442
 21
236.911
  0
LINE
  8
0
 10
-129.442
 20
236.911
 11
-129.25
 21
237.143
  0
LINE
  8
0
 10
-129.25
 20
237.143
 11
-129.03
 21
237.349
  0
LINE
  8
0
 10
-129.03
 20
237.349
 11
-128.786
 21
237.526
  0
LINE
  8
0
 10
-128.786
 20
237.526
 11
-128.522
 21
237.672
  0
LINE
  8
0
 10
-128.522
 20
237.672
 11
-128.242
 21
237.783
  0
LINE
  8
0
 10
-128.242
 20
237.783
 11
-127.95
 21
237.857
  0
LINE
  8
0
 10
-127.95
 20
237.857
 11
-127.651
 21
237.895
  0
LINE
  8
0
 10
-127.651
 20
237.895
 11
-127.349
 21
237.895
  0
LINE
  8
0
 10
-127.349
 20
237.895
 11
-127.05
 21
237.857
  0
LINE
  8
0
 10
-127.05
 20
237.857
 11
-126.758
 21
237.783
  0
LINE
  8
0
 10
-126.758
 20
237.783
 11
-126.478
 21
237.672
  0
LINE
  8
0
 10
-126.478
 20
237.672
 11
-126.214
 21
237.526
  0
LINE
  8
0
 10
-126.214
 20
237.526
 11
-125.97
 21
237.349
  0
LINE
  8
0
 10
-125.97
 20
237.349
 11
-125.75
 21
237.143
  0
LINE
  8
0
 10
-125.75
 20
237.143
 11
-125.558
 21
236.911
  0
LINE
  8
0
 10
-125.558
 20
236.911
 11
-125.397
 21
236.656
  0
LINE
  8
0
 10
-125.397
 20
236.656
 11
-125.269
 21
236.383
  0
LINE
  8
0
 10
-125.269
 20
236.383
 11
-125.175
 21
236.097
  0
LINE
  8
0
 10
-125.175
 20
236.097
 11
-125.119
 21
235.801
  0
LINE
  8
0
 10
-125.119
 20
235.801
 11
-125.1
 21
235.5
  0
LINE
  8
0
 10
-125.1
 20
235.5
 11
-125.119
 21
235.199
  0
LINE
  8
0
 10
-125.119
 20
235.199
 11
-125.175
 21
234.903
  0
LINE
  8
0
 10
-125.175
 20
234.903
 11
-125.269
 21
234.617
  0
LINE
  8
0
 10
-125.269
 20
234.617
 11
-125.397
 21
234.344
  0
LINE
  8
0
 10
-125.397
 20
234.344
 11
-125.558
 21
234.089
  0
LINE
  8
0
 10
-125.558
 20
234.089
 11
-125.75
 21
233.857
  0
LINE
  8
0
 10
-125.75
 20
233.857
 11
-125.97
 21
233.651
  0
LINE
  8
0
 10
-125.97
 20
233.651
 11
-126.214
 21
233.474
  0
LINE
  8
0
 10
-126.214
 20
233.474
 11
-126.478
 21
233.328
  0
LINE
  8
0
 10
-126.478
 20
233.328
 11
-126.758
 21
233.217
  0
LINE
  8
0
 10
-126.758
 20
233.217
 11
-127.05
 21
233.143
  0
LINE
  8
0
 10
-127.05
 20
233.143
 11
-127.349
 21
233.105
  0
LINE
  8
0
 10
-127.349
 20
233.105
 11
-127.651
 21
233.105
  0
LINE
  8
0
 10
127.349
 20
158.105
 11
127.05
 21
158.143
  0
LINE
  8
0
 10
127.05
 20
158.143
 11
126.758
 21
158.217
  0
LINE
  8
0
 10
126.758
 20
158.217
 11
126.478
 21
158.328
  0
LINE
  8
0
 10
126.478
 20
158.328
 11
126.214
 21
158.474
  0
LINE
  8
0
 10
126.214
 20
158.474
 11
125.97
 21
158.651
  0
LINE
  8
0
 10
125.97
 20
158.651
 11
125.75
 21
158.857
  0
LINE
  8
0
 10
125.75
 20
158.857
 11
125.558
 21
159.089
  0
LINE
  8
0
 10
125.558
 20
159.089
 11
125.397
 21
159.344
  0
LINE
  8
0
 10
125.397
 20
159.344
 11
125.269
 21
159.617
  0
LINE
  8
0
 10
125.269
 20
159.617
 11
125.175
 21
159.903
  0
LINE
  8
0
 10
125.175
 20
159.903
 11
125.119
 21
160.199
  0
LINE
  8
0
 10
125.119
 20
160.199
 11
125.1
 21
160.5
  0
LINE
  8
0
 10
125.1
 20
160.5
 11
125.119
 21
160.801
  0
LINE
  8
0
 10
125.119
 20
160.801
 11
125.175
 21
161.097
  0
LINE
  8
0
 10
125.175
 20
161.097
 11
125.269
 21
161.383
  0
LINE
  8
0
 10
125.269
 20
161.383
 11
125.397
 21
161.656
  0
LINE
  8
0
 10
125.397
 20
161.656
 11
125.558
 21
161.911
  0
LINE
  8
0
 10
125.558
 20
161.911
 11
125.75
 21
162.143
  0
LINE
  8
0
 10
125.75
 20
162.143
 11
125.97
 21
162.349
  0
LINE
  8
0
 10
125.97
 20
162.349
 11
126.214
 21
162.526
  0
LINE
  8
0
 10
126.214
 20
162.526
 11
126.478
 21
162.672
  0
LINE
  8
0
 10
126.478
 20
162.672
 11
126.758
 21
162.783
  0
LINE
  8
0
 10
126.758
 20
162.783
 11
127.05
 21
162.857
  0
LINE
  8
0
 10
127.05
 20
162.857
 11
127.349
 21
162.895
  0
LINE
  8
0
 10
127.349
 20
162.895
 11
127.651
 21
162.895
  0
LINE
  8
0
 10
127.651
 20
162.895
 11
127.95
 21
162.857
  0
LINE
  8
0
 10
127.95
 20
162.857
 11
128.242
 21
162.783
  0
LINE
  8
0
 10
128.242
 20
162.783
 11
128.522
 21
162.672
  0
LINE
  8
0
 10
128.522
 20
162.672
 11
128.786
 21
162.526
  0
LINE
  8
0
 10
128.786
 20
162.526
 11
129.03
 21
162.349
  0
LINE
  8
0
 10
129.03
 20
162.349
 11
129.25
 21
162.143
  0
LINE
  8
0
 10
129.25
 20
162.143
 11
129.442
 21
161.911
  0
LINE
  8
0
 10
129.442
 20
161.911
 11
129.603
 21
161.656
  0
LINE
  8
0
 10
129.603
 20
161.656
 11
129.731
 21
161.383
  0
LINE
  8
0
 10
129.731
 20
161.383
 11
129.825
 21
161.097
  0
LINE
  8
0
 10
129.825
 20
161.097
 11
129.881
 21
160.801
  0
LINE
  8
0
 10
129.881
 20
160.801
 11
129.9
 21
160.5
  0
LINE
  8
0
 10
129.9
 20
160.5
 11
129.881
 21
160.199
  0
LINE
  8
0
 10
129.881
 20
160.199
 11
129.825
 21
159.903
  0
LINE
  8
0
 10
129.825
 20
159.903
 11
129.731
 21
159.617
  0
LINE
  8
0
 10
129.731
 20
159.617
 11
129.603
 21
159.344
  0
LINE
  8
0
 10
129.603
 20
159.344
 11
129.442
 21
159.089
  0
LINE
  8
0
 10
129.442
 20
159.089
 11
129.25
 21
158.857
  0
LINE
  8
0
 10
129.25
 20
158.857
 11
129.03
 21
158.651
  0
LINE
  8
0
 10
129.03
 20
158.651
 11
128.786
 21
158.474
  0
LINE
  8
0
 10
128.786
 20
158.474
 11
128.522
 21
158.328
  0
LINE
  8
0
 10
128.522
 20
158.328
 11
128.242
 21
158.217
  0
LINE
  8
0
 10
128.242
 20
158.217
 11
127.95
 21
158.143
  0
LINE
  8
0
 10
127.95
 20
158.143
 11
127.651
 21
158.105
  0
LINE
  8
0
 10
127.651
 20
158.105
 11
127.349
 21
158.105
  0
LINE
  8
0
 10
-127.651
 20
158.105
 11
-127.95
 21
158.143
  0
LINE
  8
0
 10
-127.95
 20
158.143
 11
-128.242
 21
158.217
  0
LINE
  8
0
 10
-128.242
 20
158.217
 11
-128.522
 21
158.328
  0
LINE
  8
0
 10
-128.522
 20
158.328
 11
-128.786
 21
158.474
  0
LINE
  8
0
 10
-128.786
 20
158.474
 11
-129.03
 21
158.651
  0
LINE
  8
0
 10
-129.03
 20
158.651
 11
-129.25
 21
158.857
  0
LINE
  8
0
 10
-129.25
 20
158.857
 11
-129.442
 21
159.089
  0
LINE
  8
0
 10
-129.442
 20
159.089
 11
-129.603
 21
159.344
  0
LINE
  8
0
 10
-129.603
 20
159.344
 11
-129.731
 21
159.617
  0
LINE
  8
0
 10
-129.731
 20
159.617
 11
-129.825
 21
159.903
  0
LINE
  8
0
 10
-129.825
 20
159.903
 11
-129.881
 21
160.199
  0
LINE
  8
0
 10
-129.881
 20
160.199
 11
-129.9
 21
160.5
  0
LINE
  8
0
 10
-129.9
 20
160.5
 11
-129.881
 21
160.801
  0
LINE
  8
0
 10
-129.881
 20
160.801
 11
-129.825
 21
161.097
  0
LINE
  8
0
 10
-129.825
 20
161.097
 11
-129.731
 21
161.383
  0
LINE
  8
0
 10
-129.731
 20
161.383
 11
-129.603
 21
161.656
  0
LINE
  8
0
 10
-129.603
 20
161.656
 11
-129.442
 21
161.911
  0
LINE
  8
0
 10
-129.442
 20
161.911
 11
-129.25
 21
162.143
  0
LINE
  8
0
 10
-129.25
 20
162.143
 11
-129.03
 21
162.349
  0
LINE
  8
0
 10
-129.03
 20
162.349
 11
-128.786
 21
162.526
  0
LINE
  8
0
 10
-128.786
 20
162.526
 11
-128.522
 21
162.672
  0
LINE
  8
0
 10
-128.522
 20
162.672
 11
-128.242
 21
162.783
  0
LINE
  8
0
 10
-128.242
 20
162.783
 11
-127.95
 21
162.857
  0
LINE
  8
0
 10
-127.95
 20
162.857
 11
-127.651
 21
162.895
  0
LINE
  8
0
 10
-127.651
 20
162.895
 11
-127.349
 21
162.895
  0
LINE
  8
0
 10
-127.349
 20
162.895
 11
-127.05
 21
162.857
  0
LINE
  8
0
 10
-127.05
 20
162.857
 11
-126.758
 21
162.783
  0
LINE
  8
0
 10
-126.758
 20
162.783
 11
-126.478
 21
162.672
  0
LINE
  8
0
 10
-126.478
 20
162.672
 11
-126.214
 21
162.526
  0
LINE
  8
0
 10
-126.214
 20
162.526
 11
-125.97
 21
162.349
  0
LINE
  8
0
 10
-125.97
 20
162.349
 11
-125.75
 21
162.143
  0
LINE
  8
0
 10
-125.75
 20
162.143
 11
-125.558
 21
161.911
  0
LINE
  8
0
 10
-125.558
 20
161.911
 11
-125.397
 21
161.656
  0
LINE
  8
0
 10
-125.397
 20
161.656
 11
-125.269
 21
161.383
  0
LINE
  8
0
 10
-125.269
 20
161.383
 11
-125.175
 21
161.097
  0
LINE
  8
0
 10
-125.175
 20
161.097
 11
-125.119
 21
160.801
  0
LINE
  8
0
 10
-125.119
 20
160.801
 11
-125.1
 21
160.5
  0
LINE
  8
0
 10
-125.1
 20
160.5
 11
-125.119
 21
160.199
  0
LINE
  8
0
 10
-125.119
 20
160.199
 11
-125.175
 21
159.903
  0
LINE
  8
0
 10
-125.175
 20
159.903
 11
-125.269
 21
159.617
  0
LINE
  8
0
 10
-125.269
 20
159.617
 11
-125.397
 21
159.344
  0
LINE
  8
0
 10
-125.397
 20
159.344
 11
-125.558
 21
159.089
  0
LINE
  8
0
 10
-125.558
 20
159.089
 11
-125.75
 21
158.857
  0
LINE
  8
0
 10
-125.75
 20
158.857
 11
-125.97
 21
158.651
  0
LINE
  8
0
 10
-125.97
 20
158.651
 11
-126.214
 21
158.474
  0
LINE
  8
0
 10
-126.214
 20
158.474
 11
-126.478
 21
158.328
  0
LINE
  8
0
 10
-126.478
 20
158.328
 11
-126.758
 21
158.217
  0
LINE
  8
0
 10
-126.758
 20
158.217
 11
-127.05
 21
158.143
  0
LINE
  8
0
 10
-127.05
 20
158.143
 11
-127.349
 21
158.105
  0
LINE
  8
0
 10
-127.349
 20
158.105
 11
-127.651
 21
158.105
  0
LINE
  8
0
 10
130.937
 20
54.0886
 11
131.545
 21
54.2447
  0
LINE
  8
0
 10
131.545
 20
54.2447
 11
132.129
 21
54.4759
  0
LINE
  8
0
 10
132.129
 20
54.4759
 11
132.679
 21
54.7784
  0
LINE
  8
0
 10
132.679
 20
54.7784
 11
133.187
 21
55.1474
  0
LINE
  8
0
 10
133.187
 20
55.1474
 11
133.645
 21
55.5773
  0
LINE
  8
0
 10
133.645
 20
55.5773
 11
134.045
 21
56.0611
  0
LINE
  8
0
 10
134.045
 20
56.0611
 11
134.382
 21
56.5912
  0
LINE
  8
0
 10
134.382
 20
56.5912
 11
134.649
 21
57.1594
  0
LINE
  8
0
 10
134.649
 20
57.1594
 11
134.843
 21
57.7566
  0
LINE
  8
0
 10
134.843
 20
57.7566
 11
134.961
 21
58.3733
  0
LINE
  8
0
 10
134.961
 20
58.3733
 11
135
 21
59
  0
LINE
  8
0
 10
135
 20
59
 11
135
 21
139
  0
LINE
  8
0
 10
135
 20
139
 11
134.961
 21
139.627
  0
LINE
  8
0
 10
134.961
 20
139.627
 11
134.843
 21
140.243
  0
LINE
  8
0
 10
134.843
 20
140.243
 11
134.649
 21
140.841
  0
LINE
  8
0
 10
134.649
 20
140.841
 11
134.382
 21
141.409
  0
LINE
  8
0
 10
134.382
 20
141.409
 11
134.045
 21
141.939
  0
LINE
  8
0
 10
134.045
 20
141.939
 11
133.645
 21
142.423
  0
LINE
  8
0
 10
133.645
 20
142.423
 11
133.187
 21
142.853
  0
LINE
  8
0
 10
133.187
 20
142.853
 11
132.679
 21
143.222
  0
LINE
  8
0
 10
132.679
 20
143.222
 11
132.129
 21
143.524
  0
LINE
  8
0
 10
132.129
 20
143.524
 11
131.545
 21
143.755
  0
LINE
  8
0
 10
131.545
 20
143.755
 11
130.937
 21
143.911
  0
LINE
  8
0
 10
130.937
 20
143.911
 11
130.314
 21
143.99
  0
LINE
  8
0
 10
130.314
 20
143.99
 11
-130.314
 21
143.99
  0
LINE
  8
0
 10
-130.314
 20
143.99
 11
-130.937
 21
143.911
  0
LINE
  8
0
 10
-130.937
 20
143.911
 11
-131.545
 21
143.755
  0
LINE
  8
0
 10
-131.545
 20
143.755
 11
-132.129
 21
143.524
  0
LINE
  8
0
 10
-132.129
 20
143.524
 11
-132.679
 21
143.222
  0
LINE
  8
0
 10
-132.679
 20
143.222
 11
-133.187
 21
142.853
  0
LINE
  8
0
 10
-133.187
 20
142.853
 11
-133.645
 21
142.423
  0
LINE
  8
0
 10
-133.645
 20
142.423
 11
-134.045
 21
141.939
  0
LINE
  8
0
 10
-134.045
 20
141.939
 11
-134.382
 21
141.409
  0
LINE
  8
0
 10
-134.382
 20
141.409
 11
-134.649
 21
140.841
  0
LINE
  8
0
 10
-134.649
 20
140.841
 11
-134.843
 21
140.243
  0
LINE
  8
0
 10
-134.843
 20
140.243
 11
-134.9
 21
139.944
  0
LINE
  8
0
 10
-134.9
 20
139.944
 11
-136.5
 21
139.944
  0
LINE
  8
0
 10
-136.5
 20
139.944
 11
-136.5
 21
58.0558
  0
LINE
  8
0
 10
-136.5
 20
58.0558
 11
-134.9
 21
58.0558
  0
LINE
  8
0
 10
-134.9
 20
58.0558
 11
-134.843
 21
57.7566
  0
LINE
  8
0
 10
-134.843
 20
57.7566
 11
-134.649
 21
57.1594
  0
LINE
  8
0
 10
-134.649
 20
57.1594
 11
-134.382
 21
56.5912
  0
LINE
  8
0
 10
-134.382
 20
56.5912
 11
-134.045
 21
56.0611
  0
LINE
  8
0
 10
-134.045
 20
56.0611
 11
-133.645
 21
55.5773
  0
LINE
  8
0
 10
-133.645
 20
55.5773
 11
-133.187
 21
55.1474
  0
LINE
  8
0
 10
-133.187
 20
55.1474
 11
-132.679
 21
54.7784
  0
LINE
  8
0
 10
-132.679
 20
54.7784
 11
-132.129
 21
54.4759
  0
LINE
  8
0
 10
-132.129
 20
54.4759
 11
-131.545
 21
54.2447
  0
LINE
  8
0
 10
-131.545
 20
54.2447
 11
-130.937
 21
54.0886
  0
LINE
  8
0
 10
-130.937
 20
54.0886
 11
-130.314
 21
54.0099
  0
LINE
  8
0
 10
-130.314
 20
54.0099
 11
130.314
 21
54.0099
  0
LINE
  8
0
 10
130.314
 20
54.0099
 11
130.937
 21
54.0886
  0
LINE
  8
0
 10
-127.613
 20
134.704
 11
-127.837
 21
134.732
  0
LINE
  8
0
 10
-127.837
 20
134.732
 11
-128.056
 21
134.788
  0
LINE
  8
0
 10
-128.056
 20
134.788
 11
-128.266
 21
134.871
  0
LINE
  8
0
 10
-128.266
 20
134.871
 11
-128.464
 21
134.98
  0
LINE
  8
0
 10
-128.464
 20
134.98
 11
-128.647
 21
135.113
  0
LINE
  8
0
 10
-128.647
 20
135.113
 11
-128.812
 21
135.268
  0
LINE
  8
0
 10
-128.812
 20
135.268
 11
-128.956
 21
135.442
  0
LINE
  8
0
 10
-128.956
 20
135.442
 11
-129.077
 21
135.633
  0
LINE
  8
0
 10
-129.077
 20
135.633
 11
-129.174
 21
135.837
  0
LINE
  8
0
 10
-129.174
 20
135.837
 11
-129.243
 21
136.052
  0
LINE
  8
0
 10
-129.243
 20
136.052
 11
-129.286
 21
136.274
  0
LINE
  8
0
 10
-129.286
 20
136.274
 11
-129.3
 21
136.5
  0
LINE
  8
0
 10
-129.3
 20
136.5
 11
-129.286
 21
136.726
  0
LINE
  8
0
 10
-129.286
 20
136.726
 11
-129.243
 21
136.948
  0
LINE
  8
0
 10
-129.243
 20
136.948
 11
-129.174
 21
137.163
  0
LINE
  8
0
 10
-129.174
 20
137.163
 11
-129.077
 21
137.367
  0
LINE
  8
0
 10
-129.077
 20
137.367
 11
-128.956
 21
137.558
  0
LINE
  8
0
 10
-128.956
 20
137.558
 11
-128.812
 21
137.732
  0
LINE
  8
0
 10
-128.812
 20
137.732
 11
-128.647
 21
137.887
  0
LINE
  8
0
 10
-128.647
 20
137.887
 11
-128.464
 21
138.02
  0
LINE
  8
0
 10
-128.464
 20
138.02
 11
-128.266
 21
138.129
  0
LINE
  8
0
 10
-128.266
 20
138.129
 11
-128.056
 21
138.212
  0
LINE
  8
0
 10
-128.056
 20
138.212
 11
-127.837
 21
138.268
  0
LINE
  8
0
 10
-127.837
 20
138.268
 11
-127.613
 21
138.296
  0
LINE
  8
0
 10
-127.613
 20
138.296
 11
-127.387
 21
138.296
  0
LINE
  8
0
 10
-127.387
 20
138.296
 11
-127.163
 21
138.268
  0
LINE
  8
0
 10
-127.163
 20
138.268
 11
-126.944
 21
138.212
  0
LINE
  8
0
 10
-126.944
 20
138.212
 11
-126.734
 21
138.129
  0
LINE
  8
0
 10
-126.734
 20
138.129
 11
-126.536
 21
138.02
  0
LINE
  8
0
 10
-126.536
 20
138.02
 11
-126.353
 21
137.887
  0
LINE
  8
0
 10
-126.353
 20
137.887
 11
-126.188
 21
137.732
  0
LINE
  8
0
 10
-126.188
 20
137.732
 11
-126.044
 21
137.558
  0
LINE
  8
0
 10
-126.044
 20
137.558
 11
-125.923
 21
137.367
  0
LINE
  8
0
 10
-125.923
 20
137.367
 11
-125.826
 21
137.163
  0
LINE
  8
0
 10
-125.826
 20
137.163
 11
-125.757
 21
136.948
  0
LINE
  8
0
 10
-125.757
 20
136.948
 11
-125.714
 21
136.726
  0
LINE
  8
0
 10
-125.714
 20
136.726
 11
-125.7
 21
136.5
  0
LINE
  8
0
 10
-125.7
 20
136.5
 11
-125.714
 21
136.274
  0
LINE
  8
0
 10
-125.714
 20
136.274
 11
-125.757
 21
136.052
  0
LINE
  8
0
 10
-125.757
 20
136.052
 11
-125.826
 21
135.837
  0
LINE
  8
0
 10
-125.826
 20
135.837
 11
-125.923
 21
135.633
  0
LINE
  8
0
 10
-125.923
 20
135.633
 11
-126.044
 21
135.442
  0
LINE
  8
0
 10
-126.044
 20
135.442
 11
-126.188
 21
135.268
  0
LINE
  8
0
 10
-126.188
 20
135.268
 11
-126.353
 21
135.113
  0
LINE
  8
0
 10
-126.353
 20
135.113
 11
-126.536
 21
134.98
  0
LINE
  8
0
 10
-126.536
 20
134.98
 11
-126.734
 21
134.871
  0
LINE
  8
0
 10
-126.734
 20
134.871
 11
-126.944
 21
134.788
  0
LINE
  8
0
 10
-126.944
 20
134.788
 11
-127.163
 21
134.732
  0
LINE
  8
0
 10
-127.163
 20
134.732
 11
-127.387
 21
134.704
  0
LINE
  8
0
 10
-127.387
 20
134.704
 11
-127.613
 21
134.704
  0
LINE
  8
0
 10
127.387
 20
134.704
 11
127.163
 21
134.732
  0
LINE
  8
0
 10
127.163
 20
134.732
 11
126.944
 21
134.788
  0
LINE
  8
0
 10
126.944
 20
134.788
 11
126.734
 21
134.871
  0
LINE
  8
0
 10
126.734
 20
134.871
 11
126.536
 21
134.98
  0
LINE
  8
0
 10
126.536
 20
134.98
 11
126.353
 21
135.113
  0
LINE
  8
0
 10
126.353
 20
135.113
 11
126.188
 21
135.268
  0
LINE
  8
0
 10
126.188
 20
135.268
 11
126.044
 21
135.442
  0
LINE
  8
0
 10
126.044
 20
135.442
 11
125.923
 21
135.633
  0
LINE
  8
0
 10
125.923
 20
135.633
 11
125.826
 21
135.837
  0
LINE
  8
0
 10
125.826
 20
135.837
 11
125.757
 21
136.052
  0
LINE
  8
0
 10
125.757
 20
136.052
 11
125.714
 21
136.274
  0
LINE
  8
0
 10
125.714
 20
136.274
 11
125.7
 21
136.5
  0
LINE
  8
0
 10
125.7
 20
136.5
 11
125.714
 21
136.726
  0
LINE
  8
0
 10
125.714
 20
136.726
 11
125.757
 21
136.948
  0
LINE
  8
0
 10
125.757
 20
136.948
 11
125.826
 21
137.163
  0
LINE
  8
0
 10
125.826
 20
137.163
 11
125.923
 21
137.367
  0
LINE
  8
0
 10
125.923
 20
137.367
 11
126.044
 21
137.558
  0
LINE
  8
0
 10
126.044
 20
137.558
 11
126.188
 21
137.732
  0
LINE
  8
0
 10
126.188
 20
137.732
 11
126.353
 21
137.887
  0
LINE
  8
0
 10
126.353
 20
137.887
 11
126.536
 21
138.02
  0
LINE
  8
0
 10
126.536
 20
138.02
 11
126.734
 21
138.129
  0
LINE
  8
0
 10
126.734
 20
138.129
 11
126.944
 21
138.212
  0
LINE
  8
0
 10
126.944
 20
138.212
 11
127.163
 21
138.268
  0
LINE
  8
0
 10
127.163
 20
138.268
 11
127.387
 21
138.296
  0
LINE
  8
0
 10
127.387
 20
138.296
 11
127.613
 21
138.296
  0
LINE
  8
0
 10
127.613
 20
138.296
 11
127.837
 21
138.268
  0
LINE
  8
0
 10
127.837
 20
138.268
 11
128.056
 21
138.212
  0
LINE
  8
0
 10
128.056
 20
138.212
 11
128.266
 21
138.129
  0
LINE
  8
0
 10
128.266
 20
138.129
 11
128.464
 21
138.02
  0
LINE
  8
0
 10
128.464
 20
138.02
 11
128.647
 21
137.887
  0
LINE
  8
0
 10
128.647
 20
137.887
 11
128.812
 21
137.732
  0
LINE
  8
0
 10
128.812
 20
137.732
 11
128.956
 21
137.558
  0
LINE
  8
0
 10
128.956
 20
137.558
 11
129.077
 21
137.367
  0
LINE
  8
0
 10
129.077
 20
137.367
 11
129.174
 21
137.163
  0
LINE
  8
0
 10
129.174
 20
137.163
 11
129.243
 21
136.948
  0
LINE
  8
0
 10
129.243
 20
136.948
 11
129.286
 21
136.726
  0
LINE
  8
0
 10
129.286
 20
136.726
 11
129.3
 21
136.5
  0
LINE
  8
0
 10
129.3
 20
136.5
 11
129.286
 21
136.274
  0
LINE
  8
0
 10
129.286
 20
136.274
 11
129.243
 21
136.052
  0
LINE
  8
0
 10
129.243
 20
136.052
 11
129.174
 21
135.837
  0
LINE
  8
0
 10
129.174
 20
135.837
 11
129.077
 21
135.633
  0
LINE
  8
0
 10
129.077
 20
135.633
 11
128.956
 21
135.442
  0
LINE
  8
0
 10
128.956
 20
135.442
 11
128.812
 21
135.268
  0
LINE
  8
0
 10
128.812
 20
135.268
 11
128.647
 21
135.113
  0
LINE
  8
0
 10
128.647
 20
135.113
 11
128.464
 21
134.98
  0
LINE
  8
0
 10
128.464
 20
134.98
 11
128.266
 21
134.871
  0
LINE
  8
0
 10
128.266
 20
134.871
 11
128.056
 21
134.788
  0
LINE
  8
0
 10
128.056
 20
134.788
 11
127.837
 21
134.732
  0
LINE
  8
0
 10
127.837
 20
134.732
 11
127.613
 21
134.704
  0
LINE
  8
0
 10
127.613
 20
134.704
 11
127.387
 21
134.704
  0
LINE
  8
0
 10
127.387
 20
59.7036
 11
127.163
 21
59.7319
  0
LINE
  8
0
 10
127.163
 20
59.7319
 11
126.944
 21
59.7881
  0
LINE
  8
0
 10
126.944
 20
59.7881
 11
126.734
 21
59.8713
  0
LINE
  8
0
 10
126.734
 20
59.8713
 11
126.536
 21
59.9802
  0
LINE
  8
0
 10
126.536
 20
59.9802
 11
126.353
 21
60.1131
  0
LINE
  8
0
 10
126.353
 20
60.1131
 11
126.188
 21
60.2678
  0
LINE
  8
0
 10
126.188
 20
60.2678
 11
126.044
 21
60.442
  0
LINE
  8
0
 10
126.044
 20
60.442
 11
125.923
 21
60.6328
  0
LINE
  8
0
 10
125.923
 20
60.6328
 11
125.826
 21
60.8374
  0
LINE
  8
0
 10
125.826
 20
60.8374
 11
125.757
 21
61.0524
  0
LINE
  8
0
 10
125.757
 20
61.0524
 11
125.714
 21
61.2744
  0
LINE
  8
0
 10
125.714
 20
61.2744
 11
125.7
 21
61.5
  0
LINE
  8
0
 10
125.7
 20
61.5
 11
125.714
 21
61.7256
  0
LINE
  8
0
 10
125.714
 20
61.7256
 11
125.757
 21
61.9476
  0
LINE
  8
0
 10
125.757
 20
61.9476
 11
125.826
 21
62.1626
  0
LINE
  8
0
 10
125.826
 20
62.1626
 11
125.923
 21
62.3672
  0
LINE
  8
0
 10
125.923
 20
62.3672
 11
126.044
 21
62.558
  0
LINE
  8
0
 10
126.044
 20
62.558
 11
126.188
 21
62.7322
  0
LINE
  8
0
 10
126.188
 20
62.7322
 11
126.353
 21
62.8869
  0
LINE
  8
0
 10
126.353
 20
62.8869
 11
126.536
 21
63.0198
  0
LINE
  8
0
 10
126.536
 20
63.0198
 11
126.734
 21
63.1287
  0
LINE
  8
0
 10
126.734
 20
63.1287
 11
126.944
 21
63.2119
  0
LINE
  8
0
 10
126.944
 20
63.2119
 11
127.163
 21
63.2681
  0
LINE
  8
0
 10
127.163
 20
63.2681
 11
127.387
 21
63.2964
  0
LINE
  8
0
 10
127.387
 20
63.2964
 11
127.613
 21
63.2964
  0
LINE
  8
0
 10
127.613
 20
63.2964
 11
127.837
 21
63.2681
  0
LINE
  8
0
 10
127.837
 20
63.2681
 11
128.056
 21
63.2119
  0
LINE
  8
0
 10
128.056
 20
63.2119
 11
128.266
 21
63.1287
  0
LINE
  8
0
 10
128.266
 20
63.1287
 11
128.464
 21
63.0198
  0
LINE
  8
0
 10
128.464
 20
63.0198
 11
128.647
 21
62.8869
  0
LINE
  8
0
 10
128.647
 20
62.8869
 11
128.812
 21
62.7322
  0
LINE
  8
0
 10
128.812
 20
62.7322
 11
128.956
 21
62.558
  0
LINE
  8
0
 10
128.956
 20
62.558
 11
129.077
 21
62.3672
  0
LINE
  8
0
 10
129.077
 20
62.3672
 11
129.174
 21
62.1626
  0
LINE
  8
0
 10
129.174
 20
62.1626
 11
129.243
 21
61.9476
  0
LINE
  8
0
 10
129.243
 20
61.9476
 11
129.286
 21
61.7256
  0
LINE
  8
0
 10
129.286
 20
61.7256
 11
129.3
 21
61.5
  0
LINE
  8
0
 10
129.3
 20
61.5
 11
129.286
 21
61.2744
  0
LINE
  8
0
 10
129.286
 20
61.2744
 11
129.243
 21
61.0524
  0
LINE
  8
0
 10
129.243
 20
61.0524
 11
129.174
 21
60.8374
  0
LINE
  8
0
 10
129.174
 20
60.8374
 11
129.077
 21
60.6328
  0
LINE
  8
0
 10
129.077
 20
60.6328
 11
128.956
 21
60.442
  0
LINE
  8
0
 10
128.956
 20
60.442
 11
128.812
 21
60.2678
  0
LINE
  8
0
 10
128.812
 20
60.2678
 11
128.647
 21
60.1131
  0
LINE
  8
0
 10
128.647
 20
60.1131
 11
128.464
 21
59.9802
  0
LINE
  8
0
 10
128.464
 20
59.9802
 11
128.266
 21
59.8713
  0
LINE
  8
0
 10
128.266
 20
59.8713
 11
128.056
 21
59.7881
  0
LINE
  8
0
 10
128.056
 20
59.7881
 11
127.837
 21
59.7319
  0
LINE
  8
0
 10
127.837
 20
59.7319
 11
127.613
 21
59.7036
  0
LINE
  8
0
 10
127.613
 20
59.7036
 11
127.387
 21
59.7036
  0
LINE
  8
0
 10
-127.613
 20
59.7036
 11
-127.837
 21
59.7319
  0
LINE
  8
0
 10
-127.837
 20
59.7319
 11
-128.056
 21
59.7881
  0
LINE
  8
0
 10
-128.056
 20
59.7881
 11
-128.266
 21
59.8713
  0
LINE
  8
0
 10
-128.266
 20
59.8713
 11
-128.464
 21
59.9802
  0
LINE
  8
0
 10
-128.464
 20
59.9802
 11
-128.647
 21
60.1131
  0
LINE
  8
0
 10
-128.647
 20
60.1131
 11
-128.812
 21
60.2678
  0
LINE
  8
0
 10
-128.812
 20
60.2678
 11
-128.956
 21
60.442
  0
LINE
  8
0
 10
-128.956
 20
60.442
 11
-129.077
 21
60.6328
  0
LINE
  8
0
 10
-129.077
 20
60.6328
 11
-129.174
 21
60.8374
  0
LINE
  8
0
 10
-129.174
 20
60.8374
 11
-129.243
 21
61.0524
  0
LINE
  8
0
 10
-129.243
 20
61.0524
 11
-129.286
 21
61.2744
  0
LINE
  8
0
 10
-129.286
 20
61.2744
 11
-129.3
 21
61.5
  0
LINE
  8
0
 10
-129.3
 20
61.5
 11
-129.286
 21
61.7256
  0
LINE
  8
0
 10
-129.286
 20
61.7256
 11
-129.243
 21
61.9476
  0
LINE
  8
0
 10
-129.243
 20
61.9476
 11
-129.174
 21
62.1626
  0
LINE
  8
0
 10
-129.174
 20
62.1626
 11
-129.077
 21
62.3672
  0
LINE
  8
0
 10
-129.077
 20
62.3672
 11
-128.956
 21
62.558
  0
LINE
  8
0
 10
-128.956
 20
62.558
 11
-128.812
 21
62.7322
  0
LINE
  8
0
 10
-128.812
 20
62.7322
 11
-128.647
 21
62.8869
  0
LINE
  8
0
 10
-128.647
 20
62.8869
 11
-128.464
 21
63.0198
  0
LINE
  8
0
 10
-128.464
 20
63.0198
 11
-128.266
 21
63.1287
  0
LINE
  8
0
 10
-128.266
 20
63.1287
 11
-128.056
 21
63.2119
  0
LINE
  8
0
 10
-128.056
 20
63.2119
 11
-127.837
 21
63.2681
  0
LINE
  8
0
 10
-127.837
 20
63.2681
 11
-127.613
 21
63.2964
  0
LINE
  8
0
 10
-127.613
 20
63.2964
 11
-127.387
 21
63.2964
  0
LINE
  8
0
 10
-127.387
 20
63.2964
 11
-127.163
 21
63.2681
  0
LINE
  8
0
 10
-127.163
 20
63.2681
 11
-126.944
 21
63.2119
  0
LINE
  8
0
 10
-126.944
 20
63.2119
 11
-126.734
 21
63.1287
  0
LINE
  8
0
 10
-126.734
 20
63.1287
 11
-126.536
 21
63.0198
  0
LINE
  8
0
 10
-126.536
 20
63.0198
 11
-126.353
 21
62.8869
  0
LINE
  8
0
 10
-126.353
 20
62.8869
 11
-126.188
 21
62.7322
  0
LINE
  8
0
 10
-126.188
 20
62.7322
 11
-126.044
 21
62.558
  0
LINE
  8
0
 10
-126.044
 20
62.558
 11
-125.923
 21
62.3672
  0
LINE
  8
0
 10
-125.923
 20
62.3672
 11
-125.826
 21
62.1626
  0
LINE
  8
0
 10
-125.826
 20
62.1626
 11
-125.757
 21
61.9476
  0
LINE
  8
0
 10
-125.757
 20
61.9476
 11
-125.714
 21
61.7256
  0
LINE
  8
0
 10
-125.714
 20
61.7256
 11
-125.7
 21
61.5
  0
LINE
  8
0
 10
-125.7
 20
61.5
 11
-125.714
 21
61.2744
  0
LINE
  8
0
 10
-125.714
 20
61.2744
 11
-125.757
 21
61.0524
  0
LINE
  8
0
 10
-125.757
 20
61.0524
 11
-125.826
 21
60.8374
  0
LINE
  8
0
 10
-125.826
 20
60.8374
 11
-125.923
 21
60.6328
  0
LINE
  8
0
 10
-125.923
 20
60.6328
 11
-126.044
 21
60.442
  0
LINE
  8
0
 10
-126.044
 20
60.442
 11
-126.188
 21
60.2678
  0
LINE
  8
0
 10
-126.188
 20
60.2678
 11
-126.353
 21
60.1131
  0
LINE
  8
0
 10
-126.353
 20
60.1131
 11
-126.536
 21
59.9802
  0
LINE
  8
0
 10
-126.536
 20
59.9802
 11
-126.734
 21
59.8713
  0
LINE
  8
0
 10
-126.734
 20
59.8713
 11
-126.944
 21
59.7881
  0
LINE
  8
0
 10
-126.944
 20
59.7881
 11
-127.163
 21
59.7319
  0
LINE
  8
0
 10
-127.163
 20
59.7319
 11
-127.387
 21
59.7036
  0
LINE
  8
0
 10
-127.387
 20
59.7036
 11
-127.613
 21
59.7036
  0
ENDSEC
  0
SECTION
  2
OBJECTS
  0
DICTIONARY
  0
ENDSEC
  0
EOF
