  0
SECTION
  2
BLOCKS
  0
ENDSEC
  0
SECTION
  2
ENTITIES
  0
LINE
  8
0
 10
138.437
 20
477.089
 11
139.045
 21
477.245
  0
LINE
  8
0
 10
139.045
 20
477.245
 11
139.629
 21
477.476
  0
LINE
  8
0
 10
139.629
 20
477.476
 11
140.179
 21
477.778
  0
LINE
  8
0
 10
140.179
 20
477.778
 11
140.687
 21
478.147
  0
LINE
  8
0
 10
140.687
 20
478.147
 11
141.145
 21
478.577
  0
LINE
  8
0
 10
141.145
 20
478.577
 11
141.545
 21
479.061
  0
LINE
  8
0
 10
141.545
 20
479.061
 11
141.882
 21
479.591
  0
LINE
  8
0
 10
141.882
 20
479.591
 11
142.149
 21
480.159
  0
LINE
  8
0
 10
142.149
 20
480.159
 11
142.343
 21
480.757
  0
LINE
  8
0
 10
142.343
 20
480.757
 11
142.461
 21
481.373
  0
LINE
  8
0
 10
142.461
 20
481.373
 11
142.5
 21
482
  0
LINE
  8
0
 10
142.5
 20
482
 11
142.5
 21
652
  0
LINE
  8
0
 10
142.5
 20
652
 11
142.461
 21
652.627
  0
LINE
  8
0
 10
142.461
 20
652.627
 11
142.343
 21
653.243
  0
LINE
  8
0
 10
142.343
 20
653.243
 11
142.149
 21
653.841
  0
LINE
  8
0
 10
142.149
 20
653.841
 11
141.882
 21
654.409
  0
LINE
  8
0
 10
141.882
 20
654.409
 11
141.545
 21
654.939
  0
LINE
  8
0
 10
141.545
 20
654.939
 11
141.145
 21
655.423
  0
LINE
  8
0
 10
141.145
 20
655.423
 11
140.687
 21
655.853
  0
LINE
  8
0
 10
140.687
 20
655.853
 11
140.179
 21
656.222
  0
LINE
  8
0
 10
140.179
 20
656.222
 11
139.629
 21
656.524
  0
LINE
  8
0
 10
139.629
 20
656.524
 11
139.045
 21
656.755
  0
LINE
  8
0
 10
139.045
 20
656.755
 11
138.437
 21
656.911
  0
LINE
  8
0
 10
138.437
 20
656.911
 11
137.814
 21
656.99
  0
LINE
  8
0
 10
137.814
 20
656.99
 11
-137.814
 21
656.99
  0
LINE
  8
0
 10
-137.814
 20
656.99
 11
-138.437
 21
656.911
  0
LINE
  8
0
 10
-138.437
 20
656.911
 11
-139.045
 21
656.755
  0
LINE
  8
0
 10
-139.045
 20
656.755
 11
-139.629
 21
656.524
  0
LINE
  8
0
 10
-139.629
 20
656.524
 11
-140.179
 21
656.222
  0
LINE
  8
0
 10
-140.179
 20
656.222
 11
-140.687
 21
655.853
  0
LINE
  8
0
 10
-140.687
 20
655.853
 11
-141.145
 21
655.423
  0
LINE
  8
0
 10
-141.145
 20
655.423
 11
-141.545
 21
654.939
  0
LINE
  8
0
 10
-141.545
 20
654.939
 11
-141.882
 21
654.409
  0
LINE
  8
0
 10
-141.882
 20
654.409
 11
-142.149
 21
653.841
  0
LINE
  8
0
 10
-142.149
 20
653.841
 11
-142.343
 21
653.243
  0
LINE
  8
0
 10
-142.343
 20
653.243
 11
-142.461
 21
652.627
  0
LINE
  8
0
 10
-142.461
 20
652.627
 11
-142.5
 21
652
  0
LINE
  8
0
 10
-142.5
 20
652
 11
-142.5
 21
482
  0
LINE
  8
0
 10
-142.5
 20
482
 11
-142.461
 21
481.373
  0
LINE
  8
0
 10
-142.461
 20
481.373
 11
-142.343
 21
480.757
  0
LINE
  8
0
 10
-142.343
 20
480.757
 11
-142.149
 21
480.159
  0
LINE
  8
0
 10
-142.149
 20
480.159
 11
-141.882
 21
479.591
  0
LINE
  8
0
 10
-141.882
 20
479.591
 11
-141.545
 21
479.061
  0
LINE
  8
0
 10
-141.545
 20
479.061
 11
-141.145
 21
478.577
  0
LINE
  8
0
 10
-141.145
 20
478.577
 11
-140.687
 21
478.147
  0
LINE
  8
0
 10
-140.687
 20
478.147
 11
-140.179
 21
477.778
  0
LINE
  8
0
 10
-140.179
 20
477.778
 11
-139.629
 21
477.476
  0
LINE
  8
0
 10
-139.629
 20
477.476
 11
-139.045
 21
477.245
  0
LINE
  8
0
 10
-139.045
 20
477.245
 11
-138.437
 21
477.089
  0
LINE
  8
0
 10
-138.437
 20
477.089
 11
-137.814
 21
477.01
  0
LINE
  8
0
 10
-137.814
 20
477.01
 11
137.814
 21
477.01
  0
LINE
  8
0
 10
137.814
 20
477.01
 11
138.437
 21
477.089
  0
LINE
  8
0
 10
-137.537
 20
477.681
 11
-138.108
 21
477.753
  0
LINE
  8
0
 10
-138.108
 20
477.753
 11
-138.665
 21
477.896
  0
LINE
  8
0
 10
-138.665
 20
477.896
 11
-139.199
 21
478.107
  0
LINE
  8
0
 10
-139.199
 20
478.107
 11
-139.703
 21
478.384
  0
LINE
  8
0
 10
-139.703
 20
478.384
 11
-140.168
 21
478.722
  0
LINE
  8
0
 10
-140.168
 20
478.722
 11
-140.588
 21
479.116
  0
LINE
  8
0
 10
-140.588
 20
479.116
 11
-140.954
 21
479.559
  0
LINE
  8
0
 10
-140.954
 20
479.559
 11
-141.262
 21
480.044
  0
LINE
  8
0
 10
-141.262
 20
480.044
 11
-141.507
 21
480.565
  0
LINE
  8
0
 10
-141.507
 20
480.565
 11
-141.685
 21
481.111
  0
LINE
  8
0
 10
-141.685
 20
481.111
 11
-141.792
 21
481.676
  0
LINE
  8
0
 10
-141.792
 20
481.676
 11
-141.828
 21
482.25
  0
LINE
  8
0
 10
-141.828
 20
482.25
 11
-141.828
 21
651.75
  0
LINE
  8
0
 10
-141.828
 20
651.75
 11
-141.792
 21
652.324
  0
LINE
  8
0
 10
-141.792
 20
652.324
 11
-141.685
 21
652.889
  0
LINE
  8
0
 10
-141.685
 20
652.889
 11
-141.507
 21
653.435
  0
LINE
  8
0
 10
-141.507
 20
653.435
 11
-141.262
 21
653.956
  0
LINE
  8
0
 10
-141.262
 20
653.956
 11
-140.954
 21
654.441
  0
LINE
  8
0
 10
-140.954
 20
654.441
 11
-140.588
 21
654.884
  0
LINE
  8
0
 10
-140.588
 20
654.884
 11
-140.168
 21
655.278
  0
LINE
  8
0
 10
-140.168
 20
655.278
 11
-139.703
 21
655.616
  0
LINE
  8
0
 10
-139.703
 20
655.616
 11
-139.199
 21
655.893
  0
LINE
  8
0
 10
-139.199
 20
655.893
 11
-138.665
 21
656.104
  0
LINE
  8
0
 10
-138.665
 20
656.104
 11
-138.108
 21
656.247
  0
LINE
  8
0
 10
-138.108
 20
656.247
 11
-137.537
 21
656.319
  0
LINE
  8
0
 10
-137.537
 20
656.319
 11
137.537
 21
656.319
  0
LINE
  8
0
 10
137.537
 20
656.319
 11
138.108
 21
656.247
  0
LINE
  8
0
 10
138.108
 20
656.247
 11
138.665
 21
656.104
  0
LINE
  8
0
 10
138.665
 20
656.104
 11
139.199
 21
655.893
  0
LINE
  8
0
 10
139.199
 20
655.893
 11
139.703
 21
655.616
  0
LINE
  8
0
 10
139.703
 20
655.616
 11
140.168
 21
655.278
  0
LINE
  8
0
 10
140.168
 20
655.278
 11
140.588
 21
654.884
  0
LINE
  8
0
 10
140.588
 20
654.884
 11
140.954
 21
654.441
  0
LINE
  8
0
 10
140.954
 20
654.441
 11
141.262
 21
653.956
  0
LINE
  8
0
 10
141.262
 20
653.956
 11
141.507
 21
653.435
  0
LINE
  8
0
 10
141.507
 20
653.435
 11
141.685
 21
652.889
  0
LINE
  8
0
 10
141.685
 20
652.889
 11
141.792
 21
652.324
  0
LINE
  8
0
 10
141.792
 20
652.324
 11
141.828
 21
651.75
  0
LINE
  8
0
 10
141.828
 20
651.75
 11
141.828
 21
482.25
  0
LINE
  8
0
 10
141.828
 20
482.25
 11
141.792
 21
481.676
  0
LINE
  8
0
 10
141.792
 20
481.676
 11
141.685
 21
481.111
  0
LINE
  8
0
 10
141.685
 20
481.111
 11
141.507
 21
480.565
  0
LINE
  8
0
 10
141.507
 20
480.565
 11
141.262
 21
480.044
  0
LINE
  8
0
 10
141.262
 20
480.044
 11
140.954
 21
479.559
  0
LINE
  8
0
 10
140.954
 20
479.559
 11
140.588
 21
479.116
  0
LINE
  8
0
 10
140.588
 20
479.116
 11
140.168
 21
478.722
  0
LINE
  8
0
 10
140.168
 20
478.722
 11
139.703
 21
478.384
  0
LINE
  8
0
 10
139.703
 20
478.384
 11
139.199
 21
478.107
  0
LINE
  8
0
 10
139.199
 20
478.107
 11
138.665
 21
477.896
  0
LINE
  8
0
 10
138.665
 20
477.896
 11
138.108
 21
477.753
  0
LINE
  8
0
 10
138.108
 20
477.753
 11
137.537
 21
477.681
  0
LINE
  8
0
 10
137.537
 20
477.681
 11
-137.537
 21
477.681
  0
LINE
  8
0
 10
138.437
 20
288.089
 11
139.045
 21
288.245
  0
LINE
  8
0
 10
139.045
 20
288.245
 11
139.629
 21
288.476
  0
LINE
  8
0
 10
139.629
 20
288.476
 11
140.179
 21
288.778
  0
LINE
  8
0
 10
140.179
 20
288.778
 11
140.687
 21
289.147
  0
LINE
  8
0
 10
140.687
 20
289.147
 11
141.145
 21
289.577
  0
LINE
  8
0
 10
141.145
 20
289.577
 11
141.545
 21
290.061
  0
LINE
  8
0
 10
141.545
 20
290.061
 11
141.882
 21
290.591
  0
LINE
  8
0
 10
141.882
 20
290.591
 11
142.149
 21
291.159
  0
LINE
  8
0
 10
142.149
 20
291.159
 11
142.343
 21
291.757
  0
LINE
  8
0
 10
142.343
 20
291.757
 11
142.461
 21
292.373
  0
LINE
  8
0
 10
142.461
 20
292.373
 11
142.5
 21
293
  0
LINE
  8
0
 10
142.5
 20
293
 11
142.5
 21
463
  0
LINE
  8
0
 10
142.5
 20
463
 11
142.461
 21
463.627
  0
LINE
  8
0
 10
142.461
 20
463.627
 11
142.343
 21
464.243
  0
LINE
  8
0
 10
142.343
 20
464.243
 11
142.149
 21
464.841
  0
LINE
  8
0
 10
142.149
 20
464.841
 11
141.882
 21
465.409
  0
LINE
  8
0
 10
141.882
 20
465.409
 11
141.545
 21
465.939
  0
LINE
  8
0
 10
141.545
 20
465.939
 11
141.145
 21
466.423
  0
LINE
  8
0
 10
141.145
 20
466.423
 11
140.687
 21
466.853
  0
LINE
  8
0
 10
140.687
 20
466.853
 11
140.179
 21
467.222
  0
LINE
  8
0
 10
140.179
 20
467.222
 11
139.629
 21
467.524
  0
LINE
  8
0
 10
139.629
 20
467.524
 11
139.045
 21
467.755
  0
LINE
  8
0
 10
139.045
 20
467.755
 11
138.437
 21
467.911
  0
LINE
  8
0
 10
138.437
 20
467.911
 11
137.814
 21
467.99
  0
LINE
  8
0
 10
137.814
 20
467.99
 11
-137.814
 21
467.99
  0
LINE
  8
0
 10
-137.814
 20
467.99
 11
-138.437
 21
467.911
  0
LINE
  8
0
 10
-138.437
 20
467.911
 11
-139.045
 21
467.755
  0
LINE
  8
0
 10
-139.045
 20
467.755
 11
-139.629
 21
467.524
  0
LINE
  8
0
 10
-139.629
 20
467.524
 11
-140.179
 21
467.222
  0
LINE
  8
0
 10
-140.179
 20
467.222
 11
-140.687
 21
466.853
  0
LINE
  8
0
 10
-140.687
 20
466.853
 11
-141.145
 21
466.423
  0
LINE
  8
0
 10
-141.145
 20
466.423
 11
-141.545
 21
465.939
  0
LINE
  8
0
 10
-141.545
 20
465.939
 11
-141.882
 21
465.409
  0
LINE
  8
0
 10
-141.882
 20
465.409
 11
-142.149
 21
464.841
  0
LINE
  8
0
 10
-142.149
 20
464.841
 11
-142.343
 21
464.243
  0
LINE
  8
0
 10
-142.343
 20
464.243
 11
-142.461
 21
463.627
  0
LINE
  8
0
 10
-142.461
 20
463.627
 11
-142.5
 21
463
  0
LINE
  8
0
 10
-142.5
 20
463
 11
-142.5
 21
293
  0
LINE
  8
0
 10
-142.5
 20
293
 11
-142.461
 21
292.373
  0
LINE
  8
0
 10
-142.461
 20
292.373
 11
-142.343
 21
291.757
  0
LINE
  8
0
 10
-142.343
 20
291.757
 11
-142.149
 21
291.159
  0
LINE
  8
0
 10
-142.149
 20
291.159
 11
-141.882
 21
290.591
  0
LINE
  8
0
 10
-141.882
 20
290.591
 11
-141.545
 21
290.061
  0
LINE
  8
0
 10
-141.545
 20
290.061
 11
-141.145
 21
289.577
  0
LINE
  8
0
 10
-141.145
 20
289.577
 11
-140.687
 21
289.147
  0
LINE
  8
0
 10
-140.687
 20
289.147
 11
-140.179
 21
288.778
  0
LINE
  8
0
 10
-140.179
 20
288.778
 11
-139.629
 21
288.476
  0
LINE
  8
0
 10
-139.629
 20
288.476
 11
-139.045
 21
288.245
  0
LINE
  8
0
 10
-139.045
 20
288.245
 11
-138.437
 21
288.089
  0
LINE
  8
0
 10
-138.437
 20
288.089
 11
-137.814
 21
288.01
  0
LINE
  8
0
 10
-137.814
 20
288.01
 11
137.814
 21
288.01
  0
LINE
  8
0
 10
137.814
 20
288.01
 11
138.437
 21
288.089
  0
LINE
  8
0
 10
-137.382
 20
291.145
 11
-137.645
 21
291.178
  0
LINE
  8
0
 10
-137.645
 20
291.178
 11
-137.902
 21
291.244
  0
LINE
  8
0
 10
-137.902
 20
291.244
 11
-138.148
 21
291.341
  0
LINE
  8
0
 10
-138.148
 20
291.341
 11
-138.38
 21
291.469
  0
LINE
  8
0
 10
-138.38
 20
291.469
 11
-138.595
 21
291.624
  0
LINE
  8
0
 10
-138.595
 20
291.624
 11
-138.788
 21
291.806
  0
LINE
  8
0
 10
-138.788
 20
291.806
 11
-138.957
 21
292.01
  0
LINE
  8
0
 10
-138.957
 20
292.01
 11
-139.099
 21
292.234
  0
LINE
  8
0
 10
-139.099
 20
292.234
 11
-139.211
 21
292.473
  0
LINE
  8
0
 10
-139.211
 20
292.473
 11
-139.293
 21
292.725
  0
LINE
  8
0
 10
-139.293
 20
292.725
 11
-139.343
 21
292.986
  0
LINE
  8
0
 10
-139.343
 20
292.986
 11
-139.36
 21
293.25
  0
LINE
  8
0
 10
-139.36
 20
293.25
 11
-139.36
 21
462.75
  0
LINE
  8
0
 10
-139.36
 20
462.75
 11
-139.343
 21
463.014
  0
LINE
  8
0
 10
-139.343
 20
463.014
 11
-139.293
 21
463.275
  0
LINE
  8
0
 10
-139.293
 20
463.275
 11
-139.211
 21
463.527
  0
LINE
  8
0
 10
-139.211
 20
463.527
 11
-139.099
 21
463.766
  0
LINE
  8
0
 10
-139.099
 20
463.766
 11
-138.957
 21
463.99
  0
LINE
  8
0
 10
-138.957
 20
463.99
 11
-138.788
 21
464.194
  0
LINE
  8
0
 10
-138.788
 20
464.194
 11
-138.595
 21
464.376
  0
LINE
  8
0
 10
-138.595
 20
464.376
 11
-138.38
 21
464.531
  0
LINE
  8
0
 10
-138.38
 20
464.531
 11
-138.148
 21
464.659
  0
LINE
  8
0
 10
-138.148
 20
464.659
 11
-137.902
 21
464.756
  0
LINE
  8
0
 10
-137.902
 20
464.756
 11
-137.645
 21
464.822
  0
LINE
  8
0
 10
-137.645
 20
464.822
 11
-137.382
 21
464.855
  0
LINE
  8
0
 10
-137.382
 20
464.855
 11
137.382
 21
464.855
  0
LINE
  8
0
 10
137.382
 20
464.855
 11
137.645
 21
464.822
  0
LINE
  8
0
 10
137.645
 20
464.822
 11
137.902
 21
464.756
  0
LINE
  8
0
 10
137.902
 20
464.756
 11
138.148
 21
464.659
  0
LINE
  8
0
 10
138.148
 20
464.659
 11
138.38
 21
464.531
  0
LINE
  8
0
 10
138.38
 20
464.531
 11
138.595
 21
464.376
  0
LINE
  8
0
 10
138.595
 20
464.376
 11
138.788
 21
464.194
  0
LINE
  8
0
 10
138.788
 20
464.194
 11
138.957
 21
463.99
  0
LINE
  8
0
 10
138.957
 20
463.99
 11
139.099
 21
463.766
  0
LINE
  8
0
 10
139.099
 20
463.766
 11
139.211
 21
463.527
  0
LINE
  8
0
 10
139.211
 20
463.527
 11
139.293
 21
463.275
  0
LINE
  8
0
 10
139.293
 20
463.275
 11
139.343
 21
463.014
  0
LINE
  8
0
 10
139.343
 20
463.014
 11
139.36
 21
462.75
  0
LINE
  8
0
 10
139.36
 20
462.75
 11
139.36
 21
293.25
  0
LINE
  8
0
 10
139.36
 20
293.25
 11
139.343
 21
292.986
  0
LINE
  8
0
 10
139.343
 20
292.986
 11
139.293
 21
292.725
  0
LINE
  8
0
 10
139.293
 20
292.725
 11
139.211
 21
292.473
  0
LINE
  8
0
 10
139.211
 20
292.473
 11
139.099
 21
292.234
  0
LINE
  8
0
 10
139.099
 20
292.234
 11
138.957
 21
292.01
  0
LINE
  8
0
 10
138.957
 20
292.01
 11
138.788
 21
291.806
  0
LINE
  8
0
 10
138.788
 20
291.806
 11
138.595
 21
291.624
  0
LINE
  8
0
 10
138.595
 20
291.624
 11
138.38
 21
291.469
  0
LINE
  8
0
 10
138.38
 20
291.469
 11
138.148
 21
291.341
  0
LINE
  8
0
 10
138.148
 20
291.341
 11
137.902
 21
291.244
  0
LINE
  8
0
 10
137.902
 20
291.244
 11
137.645
 21
291.178
  0
LINE
  8
0
 10
137.645
 20
291.178
 11
137.382
 21
291.145
  0
LINE
  8
0
 10
137.382
 20
291.145
 11
-137.382
 21
291.145
  0
ENDSEC
  0
SECTION
  2
OBJECTS
  0
DICTIONARY
  0
ENDSEC
  0
EOF
