  0
SECTION
  2
BLOCKS
  0
ENDSEC
  0
SECTION
  2
ENTITIES
  0
LINE
  8
0
 10
-118.5
 20
721.441
 11
-118.187
 21
721.147
  0
LINE
  8
0
 10
-118.187
 20
721.147
 11
-117.679
 21
720.778
  0
LINE
  8
0
 10
-117.679
 20
720.778
 11
-117.129
 21
720.476
  0
LINE
  8
0
 10
-117.129
 20
720.476
 11
-116.545
 21
720.245
  0
LINE
  8
0
 10
-116.545
 20
720.245
 11
-115.937
 21
720.089
  0
LINE
  8
0
 10
-115.937
 20
720.089
 11
-115.314
 21
720.01
  0
LINE
  8
0
 10
-115.314
 20
720.01
 11
115.314
 21
720.01
  0
LINE
  8
0
 10
115.314
 20
720.01
 11
115.937
 21
720.089
  0
LINE
  8
0
 10
115.937
 20
720.089
 11
116.545
 21
720.245
  0
LINE
  8
0
 10
116.545
 20
720.245
 11
117.129
 21
720.476
  0
LINE
  8
0
 10
117.129
 20
720.476
 11
117.679
 21
720.778
  0
LINE
  8
0
 10
117.679
 20
720.778
 11
118.187
 21
721.147
  0
LINE
  8
0
 10
118.187
 20
721.147
 11
118.645
 21
721.577
  0
LINE
  8
0
 10
118.645
 20
721.577
 11
119.045
 21
722.061
  0
LINE
  8
0
 10
119.045
 20
722.061
 11
119.382
 21
722.591
  0
LINE
  8
0
 10
119.382
 20
722.591
 11
119.649
 21
723.159
  0
LINE
  8
0
 10
119.649
 20
723.159
 11
119.843
 21
723.757
  0
LINE
  8
0
 10
119.843
 20
723.757
 11
119.961
 21
724.373
  0
LINE
  8
0
 10
119.961
 20
724.373
 11
120
 21
725
  0
LINE
  8
0
 10
120
 20
725
 11
120
 21
865
  0
LINE
  8
0
 10
120
 20
865
 11
119.961
 21
865.627
  0
LINE
  8
0
 10
119.961
 20
865.627
 11
119.843
 21
866.243
  0
LINE
  8
0
 10
119.843
 20
866.243
 11
119.649
 21
866.841
  0
LINE
  8
0
 10
119.649
 20
866.841
 11
119.382
 21
867.409
  0
LINE
  8
0
 10
119.382
 20
867.409
 11
119.045
 21
867.939
  0
LINE
  8
0
 10
119.045
 20
867.939
 11
118.645
 21
868.423
  0
LINE
  8
0
 10
118.645
 20
868.423
 11
118.187
 21
868.853
  0
LINE
  8
0
 10
118.187
 20
868.853
 11
117.679
 21
869.222
  0
LINE
  8
0
 10
117.679
 20
869.222
 11
117.129
 21
869.524
  0
LINE
  8
0
 10
117.129
 20
869.524
 11
116.545
 21
869.755
  0
LINE
  8
0
 10
116.545
 20
869.755
 11
115.937
 21
869.911
  0
LINE
  8
0
 10
115.937
 20
869.911
 11
115.314
 21
869.99
  0
LINE
  8
0
 10
115.314
 20
869.99
 11
-115.314
 21
869.99
  0
LINE
  8
0
 10
-115.314
 20
869.99
 11
-115.937
 21
869.911
  0
LINE
  8
0
 10
-115.937
 20
869.911
 11
-116.545
 21
869.755
  0
LINE
  8
0
 10
-116.545
 20
869.755
 11
-117.129
 21
869.524
  0
LINE
  8
0
 10
-117.129
 20
869.524
 11
-117.679
 21
869.222
  0
LINE
  8
0
 10
-117.679
 20
869.222
 11
-118.187
 21
868.853
  0
LINE
  8
0
 10
-118.187
 20
868.853
 11
-118.5
 21
868.559
  0
LINE
  8
0
 10
-118.5
 20
868.559
 11
-118.5
 21
869.99
  0
LINE
  8
0
 10
-118.5
 20
869.99
 11
-121.5
 21
869.99
  0
LINE
  8
0
 10
-121.5
 20
869.99
 11
-121.5
 21
720.01
  0
LINE
  8
0
 10
-121.5
 20
720.01
 11
-118.5
 21
720.01
  0
LINE
  8
0
 10
-118.5
 20
720.01
 11
-118.5
 21
721.441
  0
LINE
  8
0
 10
-114.751
 20
721.508
 11
-115.25
 21
721.571
  0
LINE
  8
0
 10
-115.25
 20
721.571
 11
-115.736
 21
721.696
  0
LINE
  8
0
 10
-115.736
 20
721.696
 11
-116.203
 21
721.881
  0
LINE
  8
0
 10
-116.203
 20
721.881
 11
-116.643
 21
722.123
  0
LINE
  8
0
 10
-116.643
 20
722.123
 11
-117.05
 21
722.418
  0
LINE
  8
0
 10
-117.05
 20
722.418
 11
-117.416
 21
722.762
  0
LINE
  8
0
 10
-117.416
 20
722.762
 11
-117.736
 21
723.149
  0
LINE
  8
0
 10
-117.736
 20
723.149
 11
-118.005
 21
723.573
  0
LINE
  8
0
 10
-118.005
 20
723.573
 11
-118.219
 21
724.028
  0
LINE
  8
0
 10
-118.219
 20
724.028
 11
-118.374
 21
724.505
  0
LINE
  8
0
 10
-118.374
 20
724.505
 11
-118.468
 21
724.999
  0
LINE
  8
0
 10
-118.468
 20
724.999
 11
-118.5
 21
725.5
  0
LINE
  8
0
 10
-118.5
 20
725.5
 11
-118.5
 21
864.5
  0
LINE
  8
0
 10
-118.5
 20
864.5
 11
-118.468
 21
865.001
  0
LINE
  8
0
 10
-118.468
 20
865.001
 11
-118.374
 21
865.495
  0
LINE
  8
0
 10
-118.374
 20
865.495
 11
-118.219
 21
865.972
  0
LINE
  8
0
 10
-118.219
 20
865.972
 11
-118.005
 21
866.427
  0
LINE
  8
0
 10
-118.005
 20
866.427
 11
-117.736
 21
866.851
  0
LINE
  8
0
 10
-117.736
 20
866.851
 11
-117.416
 21
867.238
  0
LINE
  8
0
 10
-117.416
 20
867.238
 11
-117.05
 21
867.582
  0
LINE
  8
0
 10
-117.05
 20
867.582
 11
-116.643
 21
867.877
  0
LINE
  8
0
 10
-116.643
 20
867.877
 11
-116.203
 21
868.119
  0
LINE
  8
0
 10
-116.203
 20
868.119
 11
-115.736
 21
868.304
  0
LINE
  8
0
 10
-115.736
 20
868.304
 11
-115.25
 21
868.429
  0
LINE
  8
0
 10
-115.25
 20
868.429
 11
-114.751
 21
868.492
  0
LINE
  8
0
 10
-114.751
 20
868.492
 11
114.751
 21
868.492
  0
LINE
  8
0
 10
114.751
 20
868.492
 11
115.25
 21
868.429
  0
LINE
  8
0
 10
115.25
 20
868.429
 11
115.736
 21
868.304
  0
LINE
  8
0
 10
115.736
 20
868.304
 11
116.203
 21
868.119
  0
LINE
  8
0
 10
116.203
 20
868.119
 11
116.643
 21
867.877
  0
LINE
  8
0
 10
116.643
 20
867.877
 11
117.05
 21
867.582
  0
LINE
  8
0
 10
117.05
 20
867.582
 11
117.416
 21
867.238
  0
LINE
  8
0
 10
117.416
 20
867.238
 11
117.736
 21
866.851
  0
LINE
  8
0
 10
117.736
 20
866.851
 11
118.005
 21
866.427
  0
LINE
  8
0
 10
118.005
 20
866.427
 11
118.219
 21
865.972
  0
LINE
  8
0
 10
118.219
 20
865.972
 11
118.374
 21
865.495
  0
LINE
  8
0
 10
118.374
 20
865.495
 11
118.468
 21
865.001
  0
LINE
  8
0
 10
118.468
 20
865.001
 11
118.5
 21
864.5
  0
LINE
  8
0
 10
118.5
 20
864.5
 11
118.5
 21
725.5
  0
LINE
  8
0
 10
118.5
 20
725.5
 11
118.468
 21
724.999
  0
LINE
  8
0
 10
118.468
 20
724.999
 11
118.374
 21
724.505
  0
LINE
  8
0
 10
118.374
 20
724.505
 11
118.219
 21
724.028
  0
LINE
  8
0
 10
118.219
 20
724.028
 11
118.005
 21
723.573
  0
LINE
  8
0
 10
118.005
 20
723.573
 11
117.736
 21
723.149
  0
LINE
  8
0
 10
117.736
 20
723.149
 11
117.416
 21
722.762
  0
LINE
  8
0
 10
117.416
 20
722.762
 11
117.05
 21
722.418
  0
LINE
  8
0
 10
117.05
 20
722.418
 11
116.643
 21
722.123
  0
LINE
  8
0
 10
116.643
 20
722.123
 11
116.203
 21
721.881
  0
LINE
  8
0
 10
116.203
 20
721.881
 11
115.736
 21
721.696
  0
LINE
  8
0
 10
115.736
 20
721.696
 11
115.25
 21
721.571
  0
LINE
  8
0
 10
115.25
 20
721.571
 11
114.751
 21
721.508
  0
LINE
  8
0
 10
114.751
 20
721.508
 11
-114.751
 21
721.508
  0
LINE
  8
0
 10
115.937
 20
561.089
 11
116.545
 21
561.245
  0
LINE
  8
0
 10
116.545
 20
561.245
 11
117.129
 21
561.476
  0
LINE
  8
0
 10
117.129
 20
561.476
 11
117.679
 21
561.778
  0
LINE
  8
0
 10
117.679
 20
561.778
 11
118.187
 21
562.147
  0
LINE
  8
0
 10
118.187
 20
562.147
 11
118.645
 21
562.577
  0
LINE
  8
0
 10
118.645
 20
562.577
 11
119.045
 21
563.061
  0
LINE
  8
0
 10
119.045
 20
563.061
 11
119.382
 21
563.591
  0
LINE
  8
0
 10
119.382
 20
563.591
 11
119.649
 21
564.159
  0
LINE
  8
0
 10
119.649
 20
564.159
 11
119.843
 21
564.757
  0
LINE
  8
0
 10
119.843
 20
564.757
 11
119.961
 21
565.373
  0
LINE
  8
0
 10
119.961
 20
565.373
 11
120
 21
566
  0
LINE
  8
0
 10
120
 20
566
 11
120
 21
706
  0
LINE
  8
0
 10
120
 20
706
 11
119.961
 21
706.627
  0
LINE
  8
0
 10
119.961
 20
706.627
 11
119.843
 21
707.243
  0
LINE
  8
0
 10
119.843
 20
707.243
 11
119.649
 21
707.841
  0
LINE
  8
0
 10
119.649
 20
707.841
 11
119.382
 21
708.409
  0
LINE
  8
0
 10
119.382
 20
708.409
 11
119.045
 21
708.939
  0
LINE
  8
0
 10
119.045
 20
708.939
 11
118.645
 21
709.423
  0
LINE
  8
0
 10
118.645
 20
709.423
 11
118.187
 21
709.853
  0
LINE
  8
0
 10
118.187
 20
709.853
 11
117.679
 21
710.222
  0
LINE
  8
0
 10
117.679
 20
710.222
 11
117.129
 21
710.524
  0
LINE
  8
0
 10
117.129
 20
710.524
 11
116.545
 21
710.755
  0
LINE
  8
0
 10
116.545
 20
710.755
 11
115.937
 21
710.911
  0
LINE
  8
0
 10
115.937
 20
710.911
 11
115.314
 21
710.99
  0
LINE
  8
0
 10
115.314
 20
710.99
 11
-115.314
 21
710.99
  0
LINE
  8
0
 10
-115.314
 20
710.99
 11
-115.937
 21
710.911
  0
LINE
  8
0
 10
-115.937
 20
710.911
 11
-116.545
 21
710.755
  0
LINE
  8
0
 10
-116.545
 20
710.755
 11
-117.129
 21
710.524
  0
LINE
  8
0
 10
-117.129
 20
710.524
 11
-117.679
 21
710.222
  0
LINE
  8
0
 10
-117.679
 20
710.222
 11
-118.187
 21
709.853
  0
LINE
  8
0
 10
-118.187
 20
709.853
 11
-118.5
 21
709.559
  0
LINE
  8
0
 10
-118.5
 20
709.559
 11
-118.5
 21
710.979
  0
LINE
  8
0
 10
-118.5
 20
710.979
 11
-121.5
 21
710.979
  0
LINE
  8
0
 10
-121.5
 20
710.979
 11
-121.5
 21
561.021
  0
LINE
  8
0
 10
-121.5
 20
561.021
 11
-118.5
 21
561.021
  0
LINE
  8
0
 10
-118.5
 20
561.021
 11
-118.5
 21
562.441
  0
LINE
  8
0
 10
-118.5
 20
562.441
 11
-118.187
 21
562.147
  0
LINE
  8
0
 10
-118.187
 20
562.147
 11
-117.679
 21
561.778
  0
LINE
  8
0
 10
-117.679
 20
561.778
 11
-117.129
 21
561.476
  0
LINE
  8
0
 10
-117.129
 20
561.476
 11
-116.545
 21
561.245
  0
LINE
  8
0
 10
-116.545
 20
561.245
 11
-115.937
 21
561.089
  0
LINE
  8
0
 10
-115.937
 20
561.089
 11
-115.314
 21
561.01
  0
LINE
  8
0
 10
-115.314
 20
561.01
 11
115.314
 21
561.01
  0
LINE
  8
0
 10
115.314
 20
561.01
 11
115.937
 21
561.089
  0
LINE
  8
0
 10
-114.695
 20
563.393
 11
-115.083
 21
563.442
  0
LINE
  8
0
 10
-115.083
 20
563.442
 11
-115.462
 21
563.539
  0
LINE
  8
0
 10
-115.462
 20
563.539
 11
-115.825
 21
563.683
  0
LINE
  8
0
 10
-115.825
 20
563.683
 11
-116.168
 21
563.872
  0
LINE
  8
0
 10
-116.168
 20
563.872
 11
-116.484
 21
564.101
  0
LINE
  8
0
 10
-116.484
 20
564.101
 11
-116.769
 21
564.369
  0
LINE
  8
0
 10
-116.769
 20
564.369
 11
-117.018
 21
564.67
  0
LINE
  8
0
 10
-117.018
 20
564.67
 11
-117.228
 21
565
  0
LINE
  8
0
 10
-117.228
 20
565
 11
-117.394
 21
565.354
  0
LINE
  8
0
 10
-117.394
 20
565.354
 11
-117.515
 21
565.726
  0
LINE
  8
0
 10
-117.515
 20
565.726
 11
-117.588
 21
566.11
  0
LINE
  8
0
 10
-117.588
 20
566.11
 11
-117.613
 21
566.5
  0
LINE
  8
0
 10
-117.613
 20
566.5
 11
-117.613
 21
705.5
  0
LINE
  8
0
 10
-117.613
 20
705.5
 11
-117.588
 21
705.89
  0
LINE
  8
0
 10
-117.588
 20
705.89
 11
-117.515
 21
706.274
  0
LINE
  8
0
 10
-117.515
 20
706.274
 11
-117.394
 21
706.646
  0
LINE
  8
0
 10
-117.394
 20
706.646
 11
-117.228
 21
707
  0
LINE
  8
0
 10
-117.228
 20
707
 11
-117.018
 21
707.33
  0
LINE
  8
0
 10
-117.018
 20
707.33
 11
-116.769
 21
707.631
  0
LINE
  8
0
 10
-116.769
 20
707.631
 11
-116.484
 21
707.899
  0
LINE
  8
0
 10
-116.484
 20
707.899
 11
-116.168
 21
708.128
  0
LINE
  8
0
 10
-116.168
 20
708.128
 11
-115.825
 21
708.317
  0
LINE
  8
0
 10
-115.825
 20
708.317
 11
-115.462
 21
708.461
  0
LINE
  8
0
 10
-115.462
 20
708.461
 11
-115.083
 21
708.558
  0
LINE
  8
0
 10
-115.083
 20
708.558
 11
-114.695
 21
708.607
  0
LINE
  8
0
 10
-114.695
 20
708.607
 11
114.695
 21
708.607
  0
LINE
  8
0
 10
114.695
 20
708.607
 11
115.083
 21
708.558
  0
LINE
  8
0
 10
115.083
 20
708.558
 11
115.462
 21
708.461
  0
LINE
  8
0
 10
115.462
 20
708.461
 11
115.825
 21
708.317
  0
LINE
  8
0
 10
115.825
 20
708.317
 11
116.168
 21
708.128
  0
LINE
  8
0
 10
116.168
 20
708.128
 11
116.484
 21
707.899
  0
LINE
  8
0
 10
116.484
 20
707.899
 11
116.769
 21
707.631
  0
LINE
  8
0
 10
116.769
 20
707.631
 11
117.018
 21
707.33
  0
LINE
  8
0
 10
117.018
 20
707.33
 11
117.228
 21
707
  0
LINE
  8
0
 10
117.228
 20
707
 11
117.394
 21
706.646
  0
LINE
  8
0
 10
117.394
 20
706.646
 11
117.515
 21
706.274
  0
LINE
  8
0
 10
117.515
 20
706.274
 11
117.588
 21
705.89
  0
LINE
  8
0
 10
117.588
 20
705.89
 11
117.613
 21
705.5
  0
LINE
  8
0
 10
117.613
 20
705.5
 11
117.613
 21
566.5
  0
LINE
  8
0
 10
117.613
 20
566.5
 11
117.588
 21
566.11
  0
LINE
  8
0
 10
117.588
 20
566.11
 11
117.515
 21
565.726
  0
LINE
  8
0
 10
117.515
 20
565.726
 11
117.394
 21
565.354
  0
LINE
  8
0
 10
117.394
 20
565.354
 11
117.228
 21
565
  0
LINE
  8
0
 10
117.228
 20
565
 11
117.018
 21
564.67
  0
LINE
  8
0
 10
117.018
 20
564.67
 11
116.769
 21
564.369
  0
LINE
  8
0
 10
116.769
 20
564.369
 11
116.484
 21
564.101
  0
LINE
  8
0
 10
116.484
 20
564.101
 11
116.168
 21
563.872
  0
LINE
  8
0
 10
116.168
 20
563.872
 11
115.825
 21
563.683
  0
LINE
  8
0
 10
115.825
 20
563.683
 11
115.462
 21
563.539
  0
LINE
  8
0
 10
115.462
 20
563.539
 11
115.083
 21
563.442
  0
LINE
  8
0
 10
115.083
 20
563.442
 11
114.695
 21
563.393
  0
LINE
  8
0
 10
114.695
 20
563.393
 11
-114.695
 21
563.393
  0
LINE
  8
0
 10
115.937
 20
402.089
 11
116.545
 21
402.245
  0
LINE
  8
0
 10
116.545
 20
402.245
 11
117.129
 21
402.476
  0
LINE
  8
0
 10
117.129
 20
402.476
 11
117.679
 21
402.778
  0
LINE
  8
0
 10
117.679
 20
402.778
 11
118.187
 21
403.147
  0
LINE
  8
0
 10
118.187
 20
403.147
 11
118.645
 21
403.577
  0
LINE
  8
0
 10
118.645
 20
403.577
 11
119.045
 21
404.061
  0
LINE
  8
0
 10
119.045
 20
404.061
 11
119.382
 21
404.591
  0
LINE
  8
0
 10
119.382
 20
404.591
 11
119.649
 21
405.159
  0
LINE
  8
0
 10
119.649
 20
405.159
 11
119.843
 21
405.757
  0
LINE
  8
0
 10
119.843
 20
405.757
 11
119.961
 21
406.373
  0
LINE
  8
0
 10
119.961
 20
406.373
 11
120
 21
407
  0
LINE
  8
0
 10
120
 20
407
 11
120
 21
547
  0
LINE
  8
0
 10
120
 20
547
 11
119.961
 21
547.627
  0
LINE
  8
0
 10
119.961
 20
547.627
 11
119.843
 21
548.243
  0
LINE
  8
0
 10
119.843
 20
548.243
 11
119.649
 21
548.841
  0
LINE
  8
0
 10
119.649
 20
548.841
 11
119.382
 21
549.409
  0
LINE
  8
0
 10
119.382
 20
549.409
 11
119.045
 21
549.939
  0
LINE
  8
0
 10
119.045
 20
549.939
 11
118.645
 21
550.423
  0
LINE
  8
0
 10
118.645
 20
550.423
 11
118.187
 21
550.853
  0
LINE
  8
0
 10
118.187
 20
550.853
 11
117.679
 21
551.222
  0
LINE
  8
0
 10
117.679
 20
551.222
 11
117.129
 21
551.524
  0
LINE
  8
0
 10
117.129
 20
551.524
 11
116.545
 21
551.755
  0
LINE
  8
0
 10
116.545
 20
551.755
 11
115.937
 21
551.911
  0
LINE
  8
0
 10
115.937
 20
551.911
 11
115.314
 21
551.99
  0
LINE
  8
0
 10
115.314
 20
551.99
 11
-115.314
 21
551.99
  0
LINE
  8
0
 10
-115.314
 20
551.99
 11
-115.937
 21
551.911
  0
LINE
  8
0
 10
-115.937
 20
551.911
 11
-116.545
 21
551.755
  0
LINE
  8
0
 10
-116.545
 20
551.755
 11
-117.129
 21
551.524
  0
LINE
  8
0
 10
-117.129
 20
551.524
 11
-117.679
 21
551.222
  0
LINE
  8
0
 10
-117.679
 20
551.222
 11
-118.187
 21
550.853
  0
LINE
  8
0
 10
-118.187
 20
550.853
 11
-118.5
 21
550.559
  0
LINE
  8
0
 10
-118.5
 20
550.559
 11
-118.5
 21
550.653
  0
LINE
  8
0
 10
-118.5
 20
550.653
 11
-121.5
 21
550.653
  0
LINE
  8
0
 10
-121.5
 20
550.653
 11
-121.5
 21
403.347
  0
LINE
  8
0
 10
-121.5
 20
403.347
 11
-118.5
 21
403.347
  0
LINE
  8
0
 10
-118.5
 20
403.347
 11
-118.5
 21
403.441
  0
LINE
  8
0
 10
-118.5
 20
403.441
 11
-118.187
 21
403.147
  0
LINE
  8
0
 10
-118.187
 20
403.147
 11
-117.679
 21
402.778
  0
LINE
  8
0
 10
-117.679
 20
402.778
 11
-117.129
 21
402.476
  0
LINE
  8
0
 10
-117.129
 20
402.476
 11
-116.545
 21
402.245
  0
LINE
  8
0
 10
-116.545
 20
402.245
 11
-115.937
 21
402.089
  0
LINE
  8
0
 10
-115.937
 20
402.089
 11
-115.314
 21
402.01
  0
LINE
  8
0
 10
-115.314
 20
402.01
 11
115.314
 21
402.01
  0
LINE
  8
0
 10
115.314
 20
402.01
 11
115.937
 21
402.089
  0
LINE
  8
0
 10
112.366
 20
542.369
 11
112.1
 21
542.403
  0
LINE
  8
0
 10
112.1
 20
542.403
 11
111.84
 21
542.469
  0
LINE
  8
0
 10
111.84
 20
542.469
 11
111.591
 21
542.568
  0
LINE
  8
0
 10
111.591
 20
542.568
 11
111.356
 21
542.697
  0
LINE
  8
0
 10
111.356
 20
542.697
 11
111.139
 21
542.855
  0
LINE
  8
0
 10
111.139
 20
542.855
 11
110.943
 21
543.038
  0
LINE
  8
0
 10
110.943
 20
543.038
 11
110.773
 21
543.245
  0
LINE
  8
0
 10
110.773
 20
543.245
 11
110.629
 21
543.471
  0
LINE
  8
0
 10
110.629
 20
543.471
 11
110.515
 21
543.714
  0
LINE
  8
0
 10
110.515
 20
543.714
 11
110.432
 21
543.969
  0
LINE
  8
0
 10
110.432
 20
543.969
 11
110.382
 21
544.232
  0
LINE
  8
0
 10
110.382
 20
544.232
 11
110.365
 21
544.5
  0
LINE
  8
0
 10
110.365
 20
544.5
 11
110.382
 21
544.768
  0
LINE
  8
0
 10
110.382
 20
544.768
 11
110.432
 21
545.031
  0
LINE
  8
0
 10
110.432
 20
545.031
 11
110.515
 21
545.286
  0
LINE
  8
0
 10
110.515
 20
545.286
 11
110.629
 21
545.529
  0
LINE
  8
0
 10
110.629
 20
545.529
 11
110.773
 21
545.755
  0
LINE
  8
0
 10
110.773
 20
545.755
 11
110.943
 21
545.962
  0
LINE
  8
0
 10
110.943
 20
545.962
 11
111.139
 21
546.145
  0
LINE
  8
0
 10
111.139
 20
546.145
 11
111.356
 21
546.303
  0
LINE
  8
0
 10
111.356
 20
546.303
 11
111.591
 21
546.432
  0
LINE
  8
0
 10
111.591
 20
546.432
 11
111.84
 21
546.531
  0
LINE
  8
0
 10
111.84
 20
546.531
 11
112.1
 21
546.597
  0
LINE
  8
0
 10
112.1
 20
546.597
 11
112.366
 21
546.631
  0
LINE
  8
0
 10
112.366
 20
546.631
 11
112.634
 21
546.631
  0
LINE
  8
0
 10
112.634
 20
546.631
 11
112.9
 21
546.597
  0
LINE
  8
0
 10
112.9
 20
546.597
 11
113.16
 21
546.531
  0
LINE
  8
0
 10
113.16
 20
546.531
 11
113.409
 21
546.432
  0
LINE
  8
0
 10
113.409
 20
546.432
 11
113.644
 21
546.303
  0
LINE
  8
0
 10
113.644
 20
546.303
 11
113.861
 21
546.145
  0
LINE
  8
0
 10
113.861
 20
546.145
 11
114.057
 21
545.962
  0
LINE
  8
0
 10
114.057
 20
545.962
 11
114.227
 21
545.755
  0
LINE
  8
0
 10
114.227
 20
545.755
 11
114.371
 21
545.529
  0
LINE
  8
0
 10
114.371
 20
545.529
 11
114.485
 21
545.286
  0
LINE
  8
0
 10
114.485
 20
545.286
 11
114.568
 21
545.031
  0
LINE
  8
0
 10
114.568
 20
545.031
 11
114.618
 21
544.768
  0
LINE
  8
0
 10
114.618
 20
544.768
 11
114.635
 21
544.5
  0
LINE
  8
0
 10
114.635
 20
544.5
 11
114.618
 21
544.232
  0
LINE
  8
0
 10
114.618
 20
544.232
 11
114.568
 21
543.969
  0
LINE
  8
0
 10
114.568
 20
543.969
 11
114.485
 21
543.714
  0
LINE
  8
0
 10
114.485
 20
543.714
 11
114.371
 21
543.471
  0
LINE
  8
0
 10
114.371
 20
543.471
 11
114.227
 21
543.245
  0
LINE
  8
0
 10
114.227
 20
543.245
 11
114.057
 21
543.038
  0
LINE
  8
0
 10
114.057
 20
543.038
 11
113.861
 21
542.855
  0
LINE
  8
0
 10
113.861
 20
542.855
 11
113.644
 21
542.697
  0
LINE
  8
0
 10
113.644
 20
542.697
 11
113.409
 21
542.568
  0
LINE
  8
0
 10
113.409
 20
542.568
 11
113.16
 21
542.469
  0
LINE
  8
0
 10
113.16
 20
542.469
 11
112.9
 21
542.403
  0
LINE
  8
0
 10
112.9
 20
542.403
 11
112.634
 21
542.369
  0
LINE
  8
0
 10
112.634
 20
542.369
 11
112.366
 21
542.369
  0
LINE
  8
0
 10
-112.634
 20
542.369
 11
-112.9
 21
542.403
  0
LINE
  8
0
 10
-112.9
 20
542.403
 11
-113.16
 21
542.469
  0
LINE
  8
0
 10
-113.16
 20
542.469
 11
-113.409
 21
542.568
  0
LINE
  8
0
 10
-113.409
 20
542.568
 11
-113.644
 21
542.697
  0
LINE
  8
0
 10
-113.644
 20
542.697
 11
-113.861
 21
542.855
  0
LINE
  8
0
 10
-113.861
 20
542.855
 11
-114.057
 21
543.038
  0
LINE
  8
0
 10
-114.057
 20
543.038
 11
-114.227
 21
543.245
  0
LINE
  8
0
 10
-114.227
 20
543.245
 11
-114.371
 21
543.471
  0
LINE
  8
0
 10
-114.371
 20
543.471
 11
-114.485
 21
543.714
  0
LINE
  8
0
 10
-114.485
 20
543.714
 11
-114.568
 21
543.969
  0
LINE
  8
0
 10
-114.568
 20
543.969
 11
-114.618
 21
544.232
  0
LINE
  8
0
 10
-114.618
 20
544.232
 11
-114.635
 21
544.5
  0
LINE
  8
0
 10
-114.635
 20
544.5
 11
-114.618
 21
544.768
  0
LINE
  8
0
 10
-114.618
 20
544.768
 11
-114.568
 21
545.031
  0
LINE
  8
0
 10
-114.568
 20
545.031
 11
-114.485
 21
545.286
  0
LINE
  8
0
 10
-114.485
 20
545.286
 11
-114.371
 21
545.529
  0
LINE
  8
0
 10
-114.371
 20
545.529
 11
-114.227
 21
545.755
  0
LINE
  8
0
 10
-114.227
 20
545.755
 11
-114.057
 21
545.962
  0
LINE
  8
0
 10
-114.057
 20
545.962
 11
-113.861
 21
546.145
  0
LINE
  8
0
 10
-113.861
 20
546.145
 11
-113.644
 21
546.303
  0
LINE
  8
0
 10
-113.644
 20
546.303
 11
-113.409
 21
546.432
  0
LINE
  8
0
 10
-113.409
 20
546.432
 11
-113.16
 21
546.531
  0
LINE
  8
0
 10
-113.16
 20
546.531
 11
-112.9
 21
546.597
  0
LINE
  8
0
 10
-112.9
 20
546.597
 11
-112.634
 21
546.631
  0
LINE
  8
0
 10
-112.634
 20
546.631
 11
-112.366
 21
546.631
  0
LINE
  8
0
 10
-112.366
 20
546.631
 11
-112.1
 21
546.597
  0
LINE
  8
0
 10
-112.1
 20
546.597
 11
-111.84
 21
546.531
  0
LINE
  8
0
 10
-111.84
 20
546.531
 11
-111.591
 21
546.432
  0
LINE
  8
0
 10
-111.591
 20
546.432
 11
-111.356
 21
546.303
  0
LINE
  8
0
 10
-111.356
 20
546.303
 11
-111.139
 21
546.145
  0
LINE
  8
0
 10
-111.139
 20
546.145
 11
-110.943
 21
545.962
  0
LINE
  8
0
 10
-110.943
 20
545.962
 11
-110.773
 21
545.755
  0
LINE
  8
0
 10
-110.773
 20
545.755
 11
-110.629
 21
545.529
  0
LINE
  8
0
 10
-110.629
 20
545.529
 11
-110.515
 21
545.286
  0
LINE
  8
0
 10
-110.515
 20
545.286
 11
-110.432
 21
545.031
  0
LINE
  8
0
 10
-110.432
 20
545.031
 11
-110.382
 21
544.768
  0
LINE
  8
0
 10
-110.382
 20
544.768
 11
-110.365
 21
544.5
  0
LINE
  8
0
 10
-110.365
 20
544.5
 11
-110.382
 21
544.232
  0
LINE
  8
0
 10
-110.382
 20
544.232
 11
-110.432
 21
543.969
  0
LINE
  8
0
 10
-110.432
 20
543.969
 11
-110.515
 21
543.714
  0
LINE
  8
0
 10
-110.515
 20
543.714
 11
-110.629
 21
543.471
  0
LINE
  8
0
 10
-110.629
 20
543.471
 11
-110.773
 21
543.245
  0
LINE
  8
0
 10
-110.773
 20
543.245
 11
-110.943
 21
543.038
  0
LINE
  8
0
 10
-110.943
 20
543.038
 11
-111.139
 21
542.855
  0
LINE
  8
0
 10
-111.139
 20
542.855
 11
-111.356
 21
542.697
  0
LINE
  8
0
 10
-111.356
 20
542.697
 11
-111.591
 21
542.568
  0
LINE
  8
0
 10
-111.591
 20
542.568
 11
-111.84
 21
542.469
  0
LINE
  8
0
 10
-111.84
 20
542.469
 11
-112.1
 21
542.403
  0
LINE
  8
0
 10
-112.1
 20
542.403
 11
-112.366
 21
542.369
  0
LINE
  8
0
 10
-112.366
 20
542.369
 11
-112.634
 21
542.369
  0
LINE
  8
0
 10
112.366
 20
407.369
 11
112.1
 21
407.403
  0
LINE
  8
0
 10
112.1
 20
407.403
 11
111.84
 21
407.469
  0
LINE
  8
0
 10
111.84
 20
407.469
 11
111.591
 21
407.568
  0
LINE
  8
0
 10
111.591
 20
407.568
 11
111.356
 21
407.697
  0
LINE
  8
0
 10
111.356
 20
407.697
 11
111.139
 21
407.855
  0
LINE
  8
0
 10
111.139
 20
407.855
 11
110.943
 21
408.038
  0
LINE
  8
0
 10
110.943
 20
408.038
 11
110.773
 21
408.245
  0
LINE
  8
0
 10
110.773
 20
408.245
 11
110.629
 21
408.471
  0
LINE
  8
0
 10
110.629
 20
408.471
 11
110.515
 21
408.714
  0
LINE
  8
0
 10
110.515
 20
408.714
 11
110.432
 21
408.969
  0
LINE
  8
0
 10
110.432
 20
408.969
 11
110.382
 21
409.232
  0
LINE
  8
0
 10
110.382
 20
409.232
 11
110.365
 21
409.5
  0
LINE
  8
0
 10
110.365
 20
409.5
 11
110.382
 21
409.768
  0
LINE
  8
0
 10
110.382
 20
409.768
 11
110.432
 21
410.031
  0
LINE
  8
0
 10
110.432
 20
410.031
 11
110.515
 21
410.286
  0
LINE
  8
0
 10
110.515
 20
410.286
 11
110.629
 21
410.529
  0
LINE
  8
0
 10
110.629
 20
410.529
 11
110.773
 21
410.755
  0
LINE
  8
0
 10
110.773
 20
410.755
 11
110.943
 21
410.962
  0
LINE
  8
0
 10
110.943
 20
410.962
 11
111.139
 21
411.145
  0
LINE
  8
0
 10
111.139
 20
411.145
 11
111.356
 21
411.303
  0
LINE
  8
0
 10
111.356
 20
411.303
 11
111.591
 21
411.432
  0
LINE
  8
0
 10
111.591
 20
411.432
 11
111.84
 21
411.531
  0
LINE
  8
0
 10
111.84
 20
411.531
 11
112.1
 21
411.597
  0
LINE
  8
0
 10
112.1
 20
411.597
 11
112.366
 21
411.631
  0
LINE
  8
0
 10
112.366
 20
411.631
 11
112.634
 21
411.631
  0
LINE
  8
0
 10
112.634
 20
411.631
 11
112.9
 21
411.597
  0
LINE
  8
0
 10
112.9
 20
411.597
 11
113.16
 21
411.531
  0
LINE
  8
0
 10
113.16
 20
411.531
 11
113.409
 21
411.432
  0
LINE
  8
0
 10
113.409
 20
411.432
 11
113.644
 21
411.303
  0
LINE
  8
0
 10
113.644
 20
411.303
 11
113.861
 21
411.145
  0
LINE
  8
0
 10
113.861
 20
411.145
 11
114.057
 21
410.962
  0
LINE
  8
0
 10
114.057
 20
410.962
 11
114.227
 21
410.755
  0
LINE
  8
0
 10
114.227
 20
410.755
 11
114.371
 21
410.529
  0
LINE
  8
0
 10
114.371
 20
410.529
 11
114.485
 21
410.286
  0
LINE
  8
0
 10
114.485
 20
410.286
 11
114.568
 21
410.031
  0
LINE
  8
0
 10
114.568
 20
410.031
 11
114.618
 21
409.768
  0
LINE
  8
0
 10
114.618
 20
409.768
 11
114.635
 21
409.5
  0
LINE
  8
0
 10
114.635
 20
409.5
 11
114.618
 21
409.232
  0
LINE
  8
0
 10
114.618
 20
409.232
 11
114.568
 21
408.969
  0
LINE
  8
0
 10
114.568
 20
408.969
 11
114.485
 21
408.714
  0
LINE
  8
0
 10
114.485
 20
408.714
 11
114.371
 21
408.471
  0
LINE
  8
0
 10
114.371
 20
408.471
 11
114.227
 21
408.245
  0
LINE
  8
0
 10
114.227
 20
408.245
 11
114.057
 21
408.038
  0
LINE
  8
0
 10
114.057
 20
408.038
 11
113.861
 21
407.855
  0
LINE
  8
0
 10
113.861
 20
407.855
 11
113.644
 21
407.697
  0
LINE
  8
0
 10
113.644
 20
407.697
 11
113.409
 21
407.568
  0
LINE
  8
0
 10
113.409
 20
407.568
 11
113.16
 21
407.469
  0
LINE
  8
0
 10
113.16
 20
407.469
 11
112.9
 21
407.403
  0
LINE
  8
0
 10
112.9
 20
407.403
 11
112.634
 21
407.369
  0
LINE
  8
0
 10
112.634
 20
407.369
 11
112.366
 21
407.369
  0
LINE
  8
0
 10
-112.634
 20
407.369
 11
-112.9
 21
407.403
  0
LINE
  8
0
 10
-112.9
 20
407.403
 11
-113.16
 21
407.469
  0
LINE
  8
0
 10
-113.16
 20
407.469
 11
-113.409
 21
407.568
  0
LINE
  8
0
 10
-113.409
 20
407.568
 11
-113.644
 21
407.697
  0
LINE
  8
0
 10
-113.644
 20
407.697
 11
-113.861
 21
407.855
  0
LINE
  8
0
 10
-113.861
 20
407.855
 11
-114.057
 21
408.038
  0
LINE
  8
0
 10
-114.057
 20
408.038
 11
-114.227
 21
408.245
  0
LINE
  8
0
 10
-114.227
 20
408.245
 11
-114.371
 21
408.471
  0
LINE
  8
0
 10
-114.371
 20
408.471
 11
-114.485
 21
408.714
  0
LINE
  8
0
 10
-114.485
 20
408.714
 11
-114.568
 21
408.969
  0
LINE
  8
0
 10
-114.568
 20
408.969
 11
-114.618
 21
409.232
  0
LINE
  8
0
 10
-114.618
 20
409.232
 11
-114.635
 21
409.5
  0
LINE
  8
0
 10
-114.635
 20
409.5
 11
-114.618
 21
409.768
  0
LINE
  8
0
 10
-114.618
 20
409.768
 11
-114.568
 21
410.031
  0
LINE
  8
0
 10
-114.568
 20
410.031
 11
-114.485
 21
410.286
  0
LINE
  8
0
 10
-114.485
 20
410.286
 11
-114.371
 21
410.529
  0
LINE
  8
0
 10
-114.371
 20
410.529
 11
-114.227
 21
410.755
  0
LINE
  8
0
 10
-114.227
 20
410.755
 11
-114.057
 21
410.962
  0
LINE
  8
0
 10
-114.057
 20
410.962
 11
-113.861
 21
411.145
  0
LINE
  8
0
 10
-113.861
 20
411.145
 11
-113.644
 21
411.303
  0
LINE
  8
0
 10
-113.644
 20
411.303
 11
-113.409
 21
411.432
  0
LINE
  8
0
 10
-113.409
 20
411.432
 11
-113.16
 21
411.531
  0
LINE
  8
0
 10
-113.16
 20
411.531
 11
-112.9
 21
411.597
  0
LINE
  8
0
 10
-112.9
 20
411.597
 11
-112.634
 21
411.631
  0
LINE
  8
0
 10
-112.634
 20
411.631
 11
-112.366
 21
411.631
  0
LINE
  8
0
 10
-112.366
 20
411.631
 11
-112.1
 21
411.597
  0
LINE
  8
0
 10
-112.1
 20
411.597
 11
-111.84
 21
411.531
  0
LINE
  8
0
 10
-111.84
 20
411.531
 11
-111.591
 21
411.432
  0
LINE
  8
0
 10
-111.591
 20
411.432
 11
-111.356
 21
411.303
  0
LINE
  8
0
 10
-111.356
 20
411.303
 11
-111.139
 21
411.145
  0
LINE
  8
0
 10
-111.139
 20
411.145
 11
-110.943
 21
410.962
  0
LINE
  8
0
 10
-110.943
 20
410.962
 11
-110.773
 21
410.755
  0
LINE
  8
0
 10
-110.773
 20
410.755
 11
-110.629
 21
410.529
  0
LINE
  8
0
 10
-110.629
 20
410.529
 11
-110.515
 21
410.286
  0
LINE
  8
0
 10
-110.515
 20
410.286
 11
-110.432
 21
410.031
  0
LINE
  8
0
 10
-110.432
 20
410.031
 11
-110.382
 21
409.768
  0
LINE
  8
0
 10
-110.382
 20
409.768
 11
-110.365
 21
409.5
  0
LINE
  8
0
 10
-110.365
 20
409.5
 11
-110.382
 21
409.232
  0
LINE
  8
0
 10
-110.382
 20
409.232
 11
-110.432
 21
408.969
  0
LINE
  8
0
 10
-110.432
 20
408.969
 11
-110.515
 21
408.714
  0
LINE
  8
0
 10
-110.515
 20
408.714
 11
-110.629
 21
408.471
  0
LINE
  8
0
 10
-110.629
 20
408.471
 11
-110.773
 21
408.245
  0
LINE
  8
0
 10
-110.773
 20
408.245
 11
-110.943
 21
408.038
  0
LINE
  8
0
 10
-110.943
 20
408.038
 11
-111.139
 21
407.855
  0
LINE
  8
0
 10
-111.139
 20
407.855
 11
-111.356
 21
407.697
  0
LINE
  8
0
 10
-111.356
 20
407.697
 11
-111.591
 21
407.568
  0
LINE
  8
0
 10
-111.591
 20
407.568
 11
-111.84
 21
407.469
  0
LINE
  8
0
 10
-111.84
 20
407.469
 11
-112.1
 21
407.403
  0
LINE
  8
0
 10
-112.1
 20
407.403
 11
-112.366
 21
407.369
  0
LINE
  8
0
 10
-112.366
 20
407.369
 11
-112.634
 21
407.369
  0
ENDSEC
  0
SECTION
  2
OBJECTS
  0
DICTIONARY
  0
ENDSEC
  0
EOF
