<?xml version="1.0" standalone="no"?>
<!DOCTYPE svg PUBLIC "-//W3C//DTD SVG 1.1//EN" "http://www.w3.org/Graphics/SVG/1.1/DTD/svg11.dtd">
<svg width="287mm" height="118mm" viewBox="-144 -232 287 118" xmlns="http://www.w3.org/2000/svg" version="1.1">
<title>OpenSCAD Model</title>
<path d="
M -141,-210.691 L -140.687,-210.397 L -140.179,-210.028 L -139.629,-209.726 L -139.045,-209.495 L -138.437,-209.339
 L -137.814,-209.26 L 137.814,-209.26 L 138.437,-209.339 L 139.045,-209.495 L 139.629,-209.726 L 140.179,-210.028
 L 140.687,-210.397 L 141.145,-210.827 L 141.545,-211.311 L 141.882,-211.841 L 142.149,-212.409 L 142.343,-213.007
 L 142.461,-213.623 L 142.5,-214.25 L 142.5,-226.75 L 142.461,-227.377 L 142.343,-227.993 L 142.149,-228.591
 L 141.882,-229.159 L 141.545,-229.689 L 141.145,-230.173 L 140.687,-230.603 L 140.179,-230.972 L 139.629,-231.274
 L 139.045,-231.505 L 138.437,-231.661 L 137.814,-231.74 L -137.814,-231.74 L -138.437,-231.661 L -139.045,-231.505
 L -139.629,-231.274 L -140.179,-230.972 L -140.687,-230.603 L -141,-230.309 L -141,-231.74 L -144,-231.74
 L -144,-209.26 L -141,-209.26 z
M -137.251,-210.758 L -137.75,-210.821 L -138.236,-210.946 L -138.703,-211.131 L -139.143,-211.373 L -139.55,-211.668
 L -139.916,-212.012 L -140.236,-212.399 L -140.505,-212.823 L -140.719,-213.278 L -140.874,-213.755 L -140.968,-214.249
 L -141,-214.75 L -141,-226.25 L -140.968,-226.751 L -140.874,-227.245 L -140.719,-227.722 L -140.505,-228.177
 L -140.236,-228.601 L -139.916,-228.988 L -139.55,-229.332 L -139.143,-229.627 L -138.703,-229.869 L -138.236,-230.054
 L -137.75,-230.179 L -137.251,-230.242 L 137.251,-230.242 L 137.75,-230.179 L 138.236,-230.054 L 138.703,-229.869
 L 139.143,-229.627 L 139.55,-229.332 L 139.916,-228.988 L 140.236,-228.601 L 140.505,-228.177 L 140.719,-227.722
 L 140.874,-227.245 L 140.968,-226.751 L 141,-226.25 L 141,-214.75 L 140.968,-214.249 L 140.874,-213.755
 L 140.719,-213.278 L 140.505,-212.823 L 140.236,-212.399 L 139.916,-212.012 L 139.55,-211.668 L 139.143,-211.373
 L 138.703,-211.131 L 138.236,-210.946 L 137.75,-210.821 L 137.251,-210.758 z
M -141,-179.191 L -140.687,-178.897 L -140.179,-178.528 L -139.629,-178.226 L -139.045,-177.995 L -138.437,-177.839
 L -137.814,-177.76 L 137.814,-177.76 L 138.437,-177.839 L 139.045,-177.995 L 139.629,-178.226 L 140.179,-178.528
 L 140.687,-178.897 L 141.145,-179.327 L 141.545,-179.811 L 141.882,-180.341 L 142.149,-180.909 L 142.343,-181.507
 L 142.461,-182.123 L 142.5,-182.75 L 142.5,-195.25 L 142.461,-195.877 L 142.343,-196.493 L 142.149,-197.091
 L 141.882,-197.659 L 141.545,-198.189 L 141.145,-198.673 L 140.687,-199.103 L 140.179,-199.472 L 139.629,-199.774
 L 139.045,-200.005 L 138.437,-200.161 L 137.814,-200.24 L -137.814,-200.24 L -138.437,-200.161 L -139.045,-200.005
 L -139.629,-199.774 L -140.179,-199.472 L -140.687,-199.103 L -141,-198.809 L -141,-200.24 L -144,-200.24
 L -144,-177.76 L -141,-177.76 z
M -137.251,-179.258 L -137.75,-179.321 L -138.236,-179.446 L -138.703,-179.631 L -139.143,-179.873 L -139.55,-180.168
 L -139.916,-180.512 L -140.236,-180.899 L -140.505,-181.323 L -140.719,-181.778 L -140.874,-182.255 L -140.968,-182.749
 L -141,-183.25 L -141,-194.75 L -140.968,-195.251 L -140.874,-195.745 L -140.719,-196.222 L -140.505,-196.677
 L -140.236,-197.101 L -139.916,-197.488 L -139.55,-197.832 L -139.143,-198.127 L -138.703,-198.369 L -138.236,-198.554
 L -137.75,-198.679 L -137.251,-198.742 L 137.251,-198.742 L 137.75,-198.679 L 138.236,-198.554 L 138.703,-198.369
 L 139.143,-198.127 L 139.55,-197.832 L 139.916,-197.488 L 140.236,-197.101 L 140.505,-196.677 L 140.719,-196.222
 L 140.874,-195.745 L 140.968,-195.251 L 141,-194.75 L 141,-183.25 L 140.968,-182.749 L 140.874,-182.255
 L 140.719,-181.778 L 140.505,-181.323 L 140.236,-180.899 L 139.916,-180.512 L 139.55,-180.168 L 139.143,-179.873
 L 138.703,-179.631 L 138.236,-179.446 L 137.75,-179.321 L 137.251,-179.258 z
M 138.437,-146.339 L 139.045,-146.495 L 139.629,-146.726 L 140.179,-147.028 L 140.687,-147.397 L 141.145,-147.827
 L 141.545,-148.311 L 141.882,-148.841 L 142.149,-149.409 L 142.343,-150.007 L 142.461,-150.623 L 142.5,-151.25
 L 142.5,-163.75 L 142.461,-164.377 L 142.343,-164.993 L 142.149,-165.591 L 141.882,-166.159 L 141.545,-166.689
 L 141.145,-167.173 L 140.687,-167.603 L 140.179,-167.972 L 139.629,-168.274 L 139.045,-168.505 L 138.437,-168.661
 L 137.814,-168.74 L -137.814,-168.74 L -138.437,-168.661 L -139.045,-168.505 L -139.629,-168.274 L -140.179,-167.972
 L -140.687,-167.603 L -141,-167.309 L -141,-168.729 L -144,-168.729 L -144,-146.271 L -141,-146.271
 L -141,-147.691 L -140.687,-147.397 L -140.179,-147.028 L -139.629,-146.726 L -139.045,-146.495 L -138.437,-146.339
 L -137.814,-146.26 L 137.814,-146.26 z
M -137.195,-148.643 L -137.583,-148.692 L -137.962,-148.789 L -138.325,-148.933 L -138.668,-149.122 L -138.984,-149.351
 L -139.269,-149.619 L -139.518,-149.92 L -139.728,-150.25 L -139.894,-150.604 L -140.015,-150.976 L -140.088,-151.36
 L -140.113,-151.75 L -140.113,-163.25 L -140.088,-163.64 L -140.015,-164.024 L -139.894,-164.396 L -139.728,-164.75
 L -139.518,-165.08 L -139.269,-165.381 L -138.984,-165.649 L -138.668,-165.878 L -138.325,-166.067 L -137.962,-166.211
 L -137.583,-166.308 L -137.195,-166.357 L 137.195,-166.357 L 137.583,-166.308 L 137.962,-166.211 L 138.325,-166.067
 L 138.668,-165.878 L 138.984,-165.649 L 139.269,-165.381 L 139.518,-165.08 L 139.728,-164.75 L 139.894,-164.396
 L 140.015,-164.024 L 140.088,-163.64 L 140.113,-163.25 L 140.113,-151.75 L 140.088,-151.36 L 140.015,-150.976
 L 139.894,-150.604 L 139.728,-150.25 L 139.518,-149.92 L 139.269,-149.619 L 138.984,-149.351 L 138.668,-149.122
 L 138.325,-148.933 L 137.962,-148.789 L 137.583,-148.692 L 137.195,-148.643 z
M 138.437,-114.839 L 139.045,-114.995 L 139.629,-115.226 L 140.179,-115.528 L 140.687,-115.897 L 141.145,-116.327
 L 141.545,-116.811 L 141.882,-117.341 L 142.149,-117.909 L 142.343,-118.507 L 142.461,-119.123 L 142.5,-119.75
 L 142.5,-132.25 L 142.461,-132.877 L 142.343,-133.493 L 142.149,-134.091 L 141.882,-134.659 L 141.545,-135.189
 L 141.145,-135.673 L 140.687,-136.103 L 140.179,-136.472 L 139.629,-136.774 L 139.045,-137.005 L 138.437,-137.161
 L 137.814,-137.24 L -137.814,-137.24 L -138.437,-137.161 L -139.045,-137.005 L -139.629,-136.774 L -140.179,-136.472
 L -140.687,-136.103 L -141,-135.809 L -141,-135.903 L -144,-135.903 L -144,-116.097 L -141,-116.097
 L -141,-116.191 L -140.687,-115.897 L -140.179,-115.528 L -139.629,-115.226 L -139.045,-114.995 L -138.437,-114.839
 L -137.814,-114.76 L 137.814,-114.76 z
M -135.134,-127.619 L -135.4,-127.653 L -135.66,-127.719 L -135.909,-127.818 L -136.144,-127.947 L -136.361,-128.105
 L -136.557,-128.288 L -136.727,-128.495 L -136.871,-128.721 L -136.985,-128.964 L -137.068,-129.219 L -137.118,-129.482
 L -137.135,-129.75 L -137.118,-130.018 L -137.068,-130.281 L -136.985,-130.536 L -136.871,-130.779 L -136.727,-131.005
 L -136.557,-131.212 L -136.361,-131.395 L -136.144,-131.553 L -135.909,-131.682 L -135.66,-131.781 L -135.4,-131.847
 L -135.134,-131.881 L -134.866,-131.881 L -134.6,-131.847 L -134.34,-131.781 L -134.091,-131.682 L -133.856,-131.553
 L -133.639,-131.395 L -133.443,-131.212 L -133.273,-131.005 L -133.129,-130.779 L -133.015,-130.536 L -132.932,-130.281
 L -132.882,-130.018 L -132.865,-129.75 L -132.882,-129.482 L -132.932,-129.219 L -133.015,-128.964 L -133.129,-128.721
 L -133.273,-128.495 L -133.443,-128.288 L -133.639,-128.105 L -133.856,-127.947 L -134.091,-127.818 L -134.34,-127.719
 L -134.6,-127.653 L -134.866,-127.619 z
M 134.866,-127.619 L 134.6,-127.653 L 134.34,-127.719 L 134.091,-127.818 L 133.856,-127.947 L 133.639,-128.105
 L 133.443,-128.288 L 133.273,-128.495 L 133.129,-128.721 L 133.015,-128.964 L 132.932,-129.219 L 132.882,-129.482
 L 132.865,-129.75 L 132.882,-130.018 L 132.932,-130.281 L 133.015,-130.536 L 133.129,-130.779 L 133.273,-131.005
 L 133.443,-131.212 L 133.639,-131.395 L 133.856,-131.553 L 134.091,-131.682 L 134.34,-131.781 L 134.6,-131.847
 L 134.866,-131.881 L 135.134,-131.881 L 135.4,-131.847 L 135.66,-131.781 L 135.909,-131.682 L 136.144,-131.553
 L 136.361,-131.395 L 136.557,-131.212 L 136.727,-131.005 L 136.871,-130.779 L 136.985,-130.536 L 137.068,-130.281
 L 137.118,-130.018 L 137.135,-129.75 L 137.118,-129.482 L 137.068,-129.219 L 136.985,-128.964 L 136.871,-128.721
 L 136.727,-128.495 L 136.557,-128.288 L 136.361,-128.105 L 136.144,-127.947 L 135.909,-127.818 L 135.66,-127.719
 L 135.4,-127.653 L 135.134,-127.619 z
M -135.134,-120.119 L -135.4,-120.153 L -135.66,-120.219 L -135.909,-120.318 L -136.144,-120.447 L -136.361,-120.605
 L -136.557,-120.788 L -136.727,-120.995 L -136.871,-121.221 L -136.985,-121.464 L -137.068,-121.719 L -137.118,-121.982
 L -137.135,-122.25 L -137.118,-122.518 L -137.068,-122.781 L -136.985,-123.036 L -136.871,-123.279 L -136.727,-123.505
 L -136.557,-123.712 L -136.361,-123.895 L -136.144,-124.053 L -135.909,-124.182 L -135.66,-124.281 L -135.4,-124.347
 L -135.134,-124.381 L -134.866,-124.381 L -134.6,-124.347 L -134.34,-124.281 L -134.091,-124.182 L -133.856,-124.053
 L -133.639,-123.895 L -133.443,-123.712 L -133.273,-123.505 L -133.129,-123.279 L -133.015,-123.036 L -132.932,-122.781
 L -132.882,-122.518 L -132.865,-122.25 L -132.882,-121.982 L -132.932,-121.719 L -133.015,-121.464 L -133.129,-121.221
 L -133.273,-120.995 L -133.443,-120.788 L -133.639,-120.605 L -133.856,-120.447 L -134.091,-120.318 L -134.34,-120.219
 L -134.6,-120.153 L -134.866,-120.119 z
M 134.866,-120.119 L 134.6,-120.153 L 134.34,-120.219 L 134.091,-120.318 L 133.856,-120.447 L 133.639,-120.605
 L 133.443,-120.788 L 133.273,-120.995 L 133.129,-121.221 L 133.015,-121.464 L 132.932,-121.719 L 132.882,-121.982
 L 132.865,-122.25 L 132.882,-122.518 L 132.932,-122.781 L 133.015,-123.036 L 133.129,-123.279 L 133.273,-123.505
 L 133.443,-123.712 L 133.639,-123.895 L 133.856,-124.053 L 134.091,-124.182 L 134.34,-124.281 L 134.6,-124.347
 L 134.866,-124.381 L 135.134,-124.381 L 135.4,-124.347 L 135.66,-124.281 L 135.909,-124.182 L 136.144,-124.053
 L 136.361,-123.895 L 136.557,-123.712 L 136.727,-123.505 L 136.871,-123.279 L 136.985,-123.036 L 137.068,-122.781
 L 137.118,-122.518 L 137.135,-122.25 L 137.118,-121.982 L 137.068,-121.719 L 136.985,-121.464 L 136.871,-121.221
 L 136.727,-120.995 L 136.557,-120.788 L 136.361,-120.605 L 136.144,-120.447 L 135.909,-120.318 L 135.66,-120.219
 L 135.4,-120.153 L 135.134,-120.119 z
" stroke="black" fill="lightgray" stroke-width="0.5"/>
</svg>
