<?xml version="1.0" standalone="no"?>
<!DOCTYPE svg PUBLIC "-//W3C//DTD SVG 1.1//EN" "http://www.w3.org/Graphics/SVG/1.1/DTD/svg11.dtd">
<svg width="300mm" height="232mm" viewBox="-150 -464 300 232" xmlns="http://www.w3.org/2000/svg" version="1.1">
<title>OpenSCAD Model</title>
<path d="
M 145.937,-448.589 L 146.545,-448.745 L 147.129,-448.976 L 147.679,-449.278 L 148.187,-449.647 L 148.645,-450.077
 L 149.045,-450.561 L 149.382,-451.091 L 149.649,-451.659 L 149.843,-452.257 L 149.961,-452.873 L 150,-453.5
 L 150,-458.5 L 149.961,-459.127 L 149.843,-459.743 L 149.649,-460.341 L 149.382,-460.909 L 149.045,-461.439
 L 148.645,-461.923 L 148.187,-462.353 L 147.679,-462.722 L 147.129,-463.024 L 146.545,-463.255 L 145.937,-463.411
 L 145.314,-463.49 L -145.314,-463.49 L -145.937,-463.411 L -146.545,-463.255 L -147.129,-463.024 L -147.679,-462.722
 L -148.187,-462.353 L -148.645,-461.923 L -149.045,-461.439 L -149.382,-460.909 L -149.649,-460.341 L -149.843,-459.743
 L -149.961,-459.127 L -150,-458.5 L -150,-453.5 L -149.961,-452.873 L -149.843,-452.257 L -149.649,-451.659
 L -149.382,-451.091 L -149.045,-450.561 L -148.645,-450.077 L -148.187,-449.647 L -147.679,-449.278 L -147.129,-448.976
 L -146.545,-448.745 L -145.937,-448.589 L -145.314,-448.51 L 145.314,-448.51 z
M -145.048,-449.009 L -145.64,-449.084 L -146.218,-449.232 L -146.772,-449.452 L -147.295,-449.739 L -147.778,-450.09
 L -148.213,-450.498 L -148.593,-450.958 L -148.912,-451.462 L -149.166,-452.001 L -149.351,-452.569 L -149.463,-453.155
 L -149.5,-453.75 L -149.5,-458.25 L -149.463,-458.845 L -149.351,-459.431 L -149.166,-459.999 L -148.912,-460.538
 L -148.593,-461.042 L -148.213,-461.502 L -147.778,-461.91 L -147.295,-462.261 L -146.772,-462.548 L -146.218,-462.768
 L -145.64,-462.916 L -145.048,-462.991 L 145.048,-462.991 L 145.64,-462.916 L 146.218,-462.768 L 146.772,-462.548
 L 147.295,-462.261 L 147.778,-461.91 L 148.213,-461.502 L 148.593,-461.042 L 148.912,-460.538 L 149.166,-459.999
 L 149.351,-459.431 L 149.463,-458.845 L 149.5,-458.25 L 149.5,-453.75 L 149.463,-453.155 L 149.351,-452.569
 L 149.166,-452.001 L 148.912,-451.462 L 148.593,-450.958 L 148.213,-450.498 L 147.778,-450.09 L 147.295,-449.739
 L 146.772,-449.452 L 146.218,-449.232 L 145.64,-449.084 L 145.048,-449.009 z
M 145.937,-424.589 L 146.545,-424.745 L 147.129,-424.976 L 147.679,-425.278 L 148.187,-425.647 L 148.645,-426.077
 L 149.045,-426.561 L 149.382,-427.091 L 149.649,-427.659 L 149.843,-428.257 L 149.961,-428.873 L 150,-429.5
 L 150,-434.5 L 149.961,-435.127 L 149.843,-435.743 L 149.649,-436.341 L 149.382,-436.909 L 149.045,-437.439
 L 148.645,-437.923 L 148.187,-438.353 L 147.679,-438.722 L 147.129,-439.024 L 146.545,-439.255 L 145.937,-439.411
 L 145.314,-439.49 L -145.314,-439.49 L -145.937,-439.411 L -146.545,-439.255 L -147.129,-439.024 L -147.679,-438.722
 L -148.187,-438.353 L -148.645,-437.923 L -149.045,-437.439 L -149.382,-436.909 L -149.649,-436.341 L -149.843,-435.743
 L -149.961,-435.127 L -150,-434.5 L -150,-429.5 L -149.961,-428.873 L -149.843,-428.257 L -149.649,-427.659
 L -149.382,-427.091 L -149.045,-426.561 L -148.645,-426.077 L -148.187,-425.647 L -147.679,-425.278 L -147.129,-424.976
 L -146.545,-424.745 L -145.937,-424.589 L -145.314,-424.51 L 145.314,-424.51 z
M -145.048,-425.009 L -145.64,-425.084 L -146.218,-425.232 L -146.772,-425.452 L -147.295,-425.739 L -147.778,-426.09
 L -148.213,-426.498 L -148.593,-426.958 L -148.912,-427.462 L -149.166,-428.001 L -149.351,-428.569 L -149.463,-429.155
 L -149.5,-429.75 L -149.5,-434.25 L -149.463,-434.845 L -149.351,-435.431 L -149.166,-435.999 L -148.912,-436.538
 L -148.593,-437.042 L -148.213,-437.502 L -147.778,-437.91 L -147.295,-438.261 L -146.772,-438.548 L -146.218,-438.768
 L -145.64,-438.916 L -145.048,-438.991 L 145.048,-438.991 L 145.64,-438.916 L 146.218,-438.768 L 146.772,-438.548
 L 147.295,-438.261 L 147.778,-437.91 L 148.213,-437.502 L 148.593,-437.042 L 148.912,-436.538 L 149.166,-435.999
 L 149.351,-435.431 L 149.463,-434.845 L 149.5,-434.25 L 149.5,-429.75 L 149.463,-429.155 L 149.351,-428.569
 L 149.166,-428.001 L 148.912,-427.462 L 148.593,-426.958 L 148.213,-426.498 L 147.778,-426.09 L 147.295,-425.739
 L 146.772,-425.452 L 146.218,-425.232 L 145.64,-425.084 L 145.048,-425.009 z
M 145.937,-400.589 L 146.545,-400.745 L 147.129,-400.976 L 147.679,-401.278 L 148.187,-401.647 L 148.645,-402.077
 L 149.045,-402.561 L 149.382,-403.091 L 149.649,-403.659 L 149.843,-404.257 L 149.961,-404.873 L 150,-405.5
 L 150,-410.5 L 149.961,-411.127 L 149.843,-411.743 L 149.649,-412.341 L 149.382,-412.909 L 149.045,-413.439
 L 148.645,-413.923 L 148.187,-414.353 L 147.679,-414.722 L 147.129,-415.024 L 146.545,-415.255 L 145.937,-415.411
 L 145.314,-415.49 L -145.314,-415.49 L -145.937,-415.411 L -146.545,-415.255 L -147.129,-415.024 L -147.679,-414.722
 L -148.187,-414.353 L -148.645,-413.923 L -149.045,-413.439 L -149.382,-412.909 L -149.649,-412.341 L -149.843,-411.743
 L -149.961,-411.127 L -150,-410.5 L -150,-405.5 L -149.961,-404.873 L -149.843,-404.257 L -149.649,-403.659
 L -149.382,-403.091 L -149.045,-402.561 L -148.645,-402.077 L -148.187,-401.647 L -147.679,-401.278 L -147.129,-400.976
 L -146.545,-400.745 L -145.937,-400.589 L -145.314,-400.51 L 145.314,-400.51 z
M -145.048,-401.009 L -145.64,-401.084 L -146.218,-401.232 L -146.772,-401.452 L -147.295,-401.739 L -147.778,-402.09
 L -148.213,-402.498 L -148.593,-402.958 L -148.912,-403.462 L -149.166,-404.001 L -149.351,-404.569 L -149.463,-405.155
 L -149.5,-405.75 L -149.5,-410.25 L -149.463,-410.845 L -149.351,-411.431 L -149.166,-411.999 L -148.912,-412.538
 L -148.593,-413.042 L -148.213,-413.502 L -147.778,-413.91 L -147.295,-414.261 L -146.772,-414.548 L -146.218,-414.768
 L -145.64,-414.916 L -145.048,-414.991 L 145.048,-414.991 L 145.64,-414.916 L 146.218,-414.768 L 146.772,-414.548
 L 147.295,-414.261 L 147.778,-413.91 L 148.213,-413.502 L 148.593,-413.042 L 148.912,-412.538 L 149.166,-411.999
 L 149.351,-411.431 L 149.463,-410.845 L 149.5,-410.25 L 149.5,-405.75 L 149.463,-405.155 L 149.351,-404.569
 L 149.166,-404.001 L 148.912,-403.462 L 148.593,-402.958 L 148.213,-402.498 L 147.778,-402.09 L 147.295,-401.739
 L 146.772,-401.452 L 146.218,-401.232 L 145.64,-401.084 L 145.048,-401.009 z
M 145.937,-376.589 L 146.545,-376.745 L 147.129,-376.976 L 147.679,-377.278 L 148.187,-377.647 L 148.645,-378.077
 L 149.045,-378.561 L 149.382,-379.091 L 149.649,-379.659 L 149.843,-380.257 L 149.961,-380.873 L 150,-381.5
 L 150,-386.5 L 149.961,-387.127 L 149.843,-387.743 L 149.649,-388.341 L 149.382,-388.909 L 149.045,-389.439
 L 148.645,-389.923 L 148.187,-390.353 L 147.679,-390.722 L 147.129,-391.024 L 146.545,-391.255 L 145.937,-391.411
 L 145.314,-391.49 L -145.314,-391.49 L -145.937,-391.411 L -146.545,-391.255 L -147.129,-391.024 L -147.679,-390.722
 L -148.187,-390.353 L -148.645,-389.923 L -149.045,-389.439 L -149.382,-388.909 L -149.649,-388.341 L -149.843,-387.743
 L -149.961,-387.127 L -150,-386.5 L -150,-381.5 L -149.961,-380.873 L -149.843,-380.257 L -149.649,-379.659
 L -149.382,-379.091 L -149.045,-378.561 L -148.645,-378.077 L -148.187,-377.647 L -147.679,-377.278 L -147.129,-376.976
 L -146.545,-376.745 L -145.937,-376.589 L -145.314,-376.51 L 145.314,-376.51 z
M -145.048,-377.009 L -145.64,-377.084 L -146.218,-377.232 L -146.772,-377.452 L -147.295,-377.739 L -147.778,-378.09
 L -148.213,-378.498 L -148.593,-378.958 L -148.912,-379.462 L -149.166,-380.001 L -149.351,-380.569 L -149.463,-381.155
 L -149.5,-381.75 L -149.5,-386.25 L -149.463,-386.845 L -149.351,-387.431 L -149.166,-387.999 L -148.912,-388.538
 L -148.593,-389.042 L -148.213,-389.502 L -147.778,-389.91 L -147.295,-390.261 L -146.772,-390.548 L -146.218,-390.768
 L -145.64,-390.916 L -145.048,-390.991 L 145.048,-390.991 L 145.64,-390.916 L 146.218,-390.768 L 146.772,-390.548
 L 147.295,-390.261 L 147.778,-389.91 L 148.213,-389.502 L 148.593,-389.042 L 148.912,-388.538 L 149.166,-387.999
 L 149.351,-387.431 L 149.463,-386.845 L 149.5,-386.25 L 149.5,-381.75 L 149.463,-381.155 L 149.351,-380.569
 L 149.166,-380.001 L 148.912,-379.462 L 148.593,-378.958 L 148.213,-378.498 L 147.778,-378.09 L 147.295,-377.739
 L 146.772,-377.452 L 146.218,-377.232 L 145.64,-377.084 L 145.048,-377.009 z
M 145.937,-352.589 L 146.545,-352.745 L 147.129,-352.976 L 147.679,-353.278 L 148.187,-353.647 L 148.645,-354.077
 L 149.045,-354.561 L 149.382,-355.091 L 149.649,-355.659 L 149.843,-356.257 L 149.961,-356.873 L 150,-357.5
 L 150,-362.5 L 149.961,-363.127 L 149.843,-363.743 L 149.649,-364.341 L 149.382,-364.909 L 149.045,-365.439
 L 148.645,-365.923 L 148.187,-366.353 L 147.679,-366.722 L 147.129,-367.024 L 146.545,-367.255 L 145.937,-367.411
 L 145.314,-367.49 L -145.314,-367.49 L -145.937,-367.411 L -146.545,-367.255 L -147.129,-367.024 L -147.679,-366.722
 L -148.187,-366.353 L -148.645,-365.923 L -149.045,-365.439 L -149.382,-364.909 L -149.649,-364.341 L -149.843,-363.743
 L -149.961,-363.127 L -150,-362.5 L -150,-357.5 L -149.961,-356.873 L -149.843,-356.257 L -149.649,-355.659
 L -149.382,-355.091 L -149.045,-354.561 L -148.645,-354.077 L -148.187,-353.647 L -147.679,-353.278 L -147.129,-352.976
 L -146.545,-352.745 L -145.937,-352.589 L -145.314,-352.51 L 145.314,-352.51 z
M -145.048,-353.009 L -145.64,-353.084 L -146.218,-353.232 L -146.772,-353.452 L -147.295,-353.739 L -147.778,-354.09
 L -148.213,-354.498 L -148.593,-354.958 L -148.912,-355.462 L -149.166,-356.001 L -149.351,-356.569 L -149.463,-357.155
 L -149.5,-357.75 L -149.5,-362.25 L -149.463,-362.845 L -149.351,-363.431 L -149.166,-363.999 L -148.912,-364.538
 L -148.593,-365.042 L -148.213,-365.502 L -147.778,-365.91 L -147.295,-366.261 L -146.772,-366.548 L -146.218,-366.768
 L -145.64,-366.916 L -145.048,-366.991 L 145.048,-366.991 L 145.64,-366.916 L 146.218,-366.768 L 146.772,-366.548
 L 147.295,-366.261 L 147.778,-365.91 L 148.213,-365.502 L 148.593,-365.042 L 148.912,-364.538 L 149.166,-363.999
 L 149.351,-363.431 L 149.463,-362.845 L 149.5,-362.25 L 149.5,-357.75 L 149.463,-357.155 L 149.351,-356.569
 L 149.166,-356.001 L 148.912,-355.462 L 148.593,-354.958 L 148.213,-354.498 L 147.778,-354.09 L 147.295,-353.739
 L 146.772,-353.452 L 146.218,-353.232 L 145.64,-353.084 L 145.048,-353.009 z
M 145.937,-328.589 L 146.545,-328.745 L 147.129,-328.976 L 147.679,-329.278 L 148.187,-329.647 L 148.645,-330.077
 L 149.045,-330.561 L 149.382,-331.091 L 149.649,-331.659 L 149.843,-332.257 L 149.961,-332.873 L 150,-333.5
 L 150,-338.5 L 149.961,-339.127 L 149.843,-339.743 L 149.649,-340.341 L 149.382,-340.909 L 149.045,-341.439
 L 148.645,-341.923 L 148.187,-342.353 L 147.679,-342.722 L 147.129,-343.024 L 146.545,-343.255 L 145.937,-343.411
 L 145.314,-343.49 L -145.314,-343.49 L -145.937,-343.411 L -146.545,-343.255 L -147.129,-343.024 L -147.679,-342.722
 L -148.187,-342.353 L -148.645,-341.923 L -149.045,-341.439 L -149.382,-340.909 L -149.649,-340.341 L -149.843,-339.743
 L -149.961,-339.127 L -150,-338.5 L -150,-333.5 L -149.961,-332.873 L -149.843,-332.257 L -149.649,-331.659
 L -149.382,-331.091 L -149.045,-330.561 L -148.645,-330.077 L -148.187,-329.647 L -147.679,-329.278 L -147.129,-328.976
 L -146.545,-328.745 L -145.937,-328.589 L -145.314,-328.51 L 145.314,-328.51 z
M -145.048,-329.009 L -145.64,-329.084 L -146.218,-329.232 L -146.772,-329.452 L -147.295,-329.739 L -147.778,-330.09
 L -148.213,-330.498 L -148.593,-330.958 L -148.912,-331.462 L -149.166,-332.001 L -149.351,-332.569 L -149.463,-333.155
 L -149.5,-333.75 L -149.5,-338.25 L -149.463,-338.845 L -149.351,-339.431 L -149.166,-339.999 L -148.912,-340.538
 L -148.593,-341.042 L -148.213,-341.502 L -147.778,-341.91 L -147.295,-342.261 L -146.772,-342.548 L -146.218,-342.768
 L -145.64,-342.916 L -145.048,-342.991 L 145.048,-342.991 L 145.64,-342.916 L 146.218,-342.768 L 146.772,-342.548
 L 147.295,-342.261 L 147.778,-341.91 L 148.213,-341.502 L 148.593,-341.042 L 148.912,-340.538 L 149.166,-339.999
 L 149.351,-339.431 L 149.463,-338.845 L 149.5,-338.25 L 149.5,-333.75 L 149.463,-333.155 L 149.351,-332.569
 L 149.166,-332.001 L 148.912,-331.462 L 148.593,-330.958 L 148.213,-330.498 L 147.778,-330.09 L 147.295,-329.739
 L 146.772,-329.452 L 146.218,-329.232 L 145.64,-329.084 L 145.048,-329.009 z
M 145.937,-304.589 L 146.545,-304.745 L 147.129,-304.976 L 147.679,-305.278 L 148.187,-305.647 L 148.645,-306.077
 L 149.045,-306.561 L 149.382,-307.091 L 149.649,-307.659 L 149.843,-308.257 L 149.961,-308.873 L 150,-309.5
 L 150,-314.5 L 149.961,-315.127 L 149.843,-315.743 L 149.649,-316.341 L 149.382,-316.909 L 149.045,-317.439
 L 148.645,-317.923 L 148.187,-318.353 L 147.679,-318.722 L 147.129,-319.024 L 146.545,-319.255 L 145.937,-319.411
 L 145.314,-319.49 L -145.314,-319.49 L -145.937,-319.411 L -146.545,-319.255 L -147.129,-319.024 L -147.679,-318.722
 L -148.187,-318.353 L -148.645,-317.923 L -149.045,-317.439 L -149.382,-316.909 L -149.649,-316.341 L -149.843,-315.743
 L -149.961,-315.127 L -150,-314.5 L -150,-309.5 L -149.961,-308.873 L -149.843,-308.257 L -149.649,-307.659
 L -149.382,-307.091 L -149.045,-306.561 L -148.645,-306.077 L -148.187,-305.647 L -147.679,-305.278 L -147.129,-304.976
 L -146.545,-304.745 L -145.937,-304.589 L -145.314,-304.51 L 145.314,-304.51 z
M -145.048,-305.009 L -145.64,-305.084 L -146.218,-305.232 L -146.772,-305.452 L -147.295,-305.739 L -147.778,-306.09
 L -148.213,-306.498 L -148.593,-306.958 L -148.912,-307.462 L -149.166,-308.001 L -149.351,-308.569 L -149.463,-309.155
 L -149.5,-309.75 L -149.5,-314.25 L -149.463,-314.845 L -149.351,-315.431 L -149.166,-315.999 L -148.912,-316.538
 L -148.593,-317.042 L -148.213,-317.502 L -147.778,-317.91 L -147.295,-318.261 L -146.772,-318.548 L -146.218,-318.768
 L -145.64,-318.916 L -145.048,-318.991 L 145.048,-318.991 L 145.64,-318.916 L 146.218,-318.768 L 146.772,-318.548
 L 147.295,-318.261 L 147.778,-317.91 L 148.213,-317.502 L 148.593,-317.042 L 148.912,-316.538 L 149.166,-315.999
 L 149.351,-315.431 L 149.463,-314.845 L 149.5,-314.25 L 149.5,-309.75 L 149.463,-309.155 L 149.351,-308.569
 L 149.166,-308.001 L 148.912,-307.462 L 148.593,-306.958 L 148.213,-306.498 L 147.778,-306.09 L 147.295,-305.739
 L 146.772,-305.452 L 146.218,-305.232 L 145.64,-305.084 L 145.048,-305.009 z
M 145.937,-280.589 L 146.545,-280.745 L 147.129,-280.976 L 147.679,-281.278 L 148.187,-281.647 L 148.645,-282.077
 L 149.045,-282.561 L 149.382,-283.091 L 149.649,-283.659 L 149.843,-284.257 L 149.961,-284.873 L 150,-285.5
 L 150,-290.5 L 149.961,-291.127 L 149.843,-291.743 L 149.649,-292.341 L 149.382,-292.909 L 149.045,-293.439
 L 148.645,-293.923 L 148.187,-294.353 L 147.679,-294.722 L 147.129,-295.024 L 146.545,-295.255 L 145.937,-295.411
 L 145.314,-295.49 L -145.314,-295.49 L -145.937,-295.411 L -146.545,-295.255 L -147.129,-295.024 L -147.679,-294.722
 L -148.187,-294.353 L -148.645,-293.923 L -149.045,-293.439 L -149.382,-292.909 L -149.649,-292.341 L -149.843,-291.743
 L -149.961,-291.127 L -150,-290.5 L -150,-285.5 L -149.961,-284.873 L -149.843,-284.257 L -149.649,-283.659
 L -149.382,-283.091 L -149.045,-282.561 L -148.645,-282.077 L -148.187,-281.647 L -147.679,-281.278 L -147.129,-280.976
 L -146.545,-280.745 L -145.937,-280.589 L -145.314,-280.51 L 145.314,-280.51 z
M -145.048,-281.009 L -145.64,-281.084 L -146.218,-281.232 L -146.772,-281.452 L -147.295,-281.739 L -147.778,-282.09
 L -148.213,-282.498 L -148.593,-282.958 L -148.912,-283.462 L -149.166,-284.001 L -149.351,-284.569 L -149.463,-285.155
 L -149.5,-285.75 L -149.5,-290.25 L -149.463,-290.845 L -149.351,-291.431 L -149.166,-291.999 L -148.912,-292.538
 L -148.593,-293.042 L -148.213,-293.502 L -147.778,-293.91 L -147.295,-294.261 L -146.772,-294.548 L -146.218,-294.768
 L -145.64,-294.916 L -145.048,-294.991 L 145.048,-294.991 L 145.64,-294.916 L 146.218,-294.768 L 146.772,-294.548
 L 147.295,-294.261 L 147.778,-293.91 L 148.213,-293.502 L 148.593,-293.042 L 148.912,-292.538 L 149.166,-291.999
 L 149.351,-291.431 L 149.463,-290.845 L 149.5,-290.25 L 149.5,-285.75 L 149.463,-285.155 L 149.351,-284.569
 L 149.166,-284.001 L 148.912,-283.462 L 148.593,-282.958 L 148.213,-282.498 L 147.778,-282.09 L 147.295,-281.739
 L 146.772,-281.452 L 146.218,-281.232 L 145.64,-281.084 L 145.048,-281.009 z
M 145.937,-256.589 L 146.545,-256.745 L 147.129,-256.976 L 147.679,-257.278 L 148.187,-257.647 L 148.645,-258.077
 L 149.045,-258.561 L 149.382,-259.091 L 149.649,-259.659 L 149.843,-260.257 L 149.961,-260.873 L 150,-261.5
 L 150,-266.5 L 149.961,-267.127 L 149.843,-267.743 L 149.649,-268.341 L 149.382,-268.909 L 149.045,-269.439
 L 148.645,-269.923 L 148.187,-270.353 L 147.679,-270.722 L 147.129,-271.024 L 146.545,-271.255 L 145.937,-271.411
 L 145.314,-271.49 L -145.314,-271.49 L -145.937,-271.411 L -146.545,-271.255 L -147.129,-271.024 L -147.679,-270.722
 L -148.187,-270.353 L -148.645,-269.923 L -149.045,-269.439 L -149.382,-268.909 L -149.649,-268.341 L -149.843,-267.743
 L -149.961,-267.127 L -150,-266.5 L -150,-261.5 L -149.961,-260.873 L -149.843,-260.257 L -149.649,-259.659
 L -149.382,-259.091 L -149.045,-258.561 L -148.645,-258.077 L -148.187,-257.647 L -147.679,-257.278 L -147.129,-256.976
 L -146.545,-256.745 L -145.937,-256.589 L -145.314,-256.51 L 145.314,-256.51 z
M -145.037,-257.181 L -145.608,-257.253 L -146.165,-257.396 L -146.699,-257.607 L -147.203,-257.884 L -147.668,-258.222
 L -148.088,-258.616 L -148.454,-259.059 L -148.762,-259.544 L -149.007,-260.065 L -149.185,-260.611 L -149.292,-261.176
 L -149.328,-261.75 L -149.328,-266.25 L -149.292,-266.824 L -149.185,-267.389 L -149.007,-267.935 L -148.762,-268.456
 L -148.454,-268.941 L -148.088,-269.384 L -147.668,-269.778 L -147.203,-270.116 L -146.699,-270.393 L -146.165,-270.604
 L -145.608,-270.747 L -145.037,-270.819 L 145.037,-270.819 L 145.608,-270.747 L 146.165,-270.604 L 146.699,-270.393
 L 147.203,-270.116 L 147.668,-269.778 L 148.088,-269.384 L 148.454,-268.941 L 148.762,-268.456 L 149.007,-267.935
 L 149.185,-267.389 L 149.292,-266.824 L 149.328,-266.25 L 149.328,-261.75 L 149.292,-261.176 L 149.185,-260.611
 L 149.007,-260.065 L 148.762,-259.544 L 148.454,-259.059 L 148.088,-258.616 L 147.668,-258.222 L 147.203,-257.884
 L 146.699,-257.607 L 146.165,-257.396 L 145.608,-257.253 L 145.037,-257.181 z
M 145.937,-232.589 L 146.545,-232.745 L 147.129,-232.976 L 147.679,-233.278 L 148.187,-233.647 L 148.645,-234.077
 L 149.045,-234.561 L 149.382,-235.091 L 149.649,-235.659 L 149.843,-236.257 L 149.961,-236.873 L 150,-237.5
 L 150,-242.5 L 149.961,-243.127 L 149.843,-243.743 L 149.649,-244.341 L 149.382,-244.909 L 149.045,-245.439
 L 148.645,-245.923 L 148.187,-246.353 L 147.679,-246.722 L 147.129,-247.024 L 146.545,-247.255 L 145.937,-247.411
 L 145.314,-247.49 L -145.314,-247.49 L -145.937,-247.411 L -146.545,-247.255 L -147.129,-247.024 L -147.679,-246.722
 L -148.187,-246.353 L -148.645,-245.923 L -149.045,-245.439 L -149.382,-244.909 L -149.649,-244.341 L -149.843,-243.743
 L -149.961,-243.127 L -150,-242.5 L -150,-237.5 L -149.961,-236.873 L -149.843,-236.257 L -149.649,-235.659
 L -149.382,-235.091 L -149.045,-234.561 L -148.645,-234.077 L -148.187,-233.647 L -147.679,-233.278 L -147.129,-232.976
 L -146.545,-232.745 L -145.937,-232.589 L -145.314,-232.51 L 145.314,-232.51 z
M -144.882,-235.645 L -145.145,-235.678 L -145.402,-235.744 L -145.648,-235.841 L -145.88,-235.969 L -146.095,-236.125
 L -146.288,-236.306 L -146.457,-236.51 L -146.599,-236.734 L -146.711,-236.973 L -146.793,-237.225 L -146.843,-237.486
 L -146.86,-237.75 L -146.86,-242.25 L -146.843,-242.514 L -146.793,-242.775 L -146.711,-243.027 L -146.599,-243.266
 L -146.457,-243.49 L -146.288,-243.694 L -146.095,-243.875 L -145.88,-244.031 L -145.648,-244.159 L -145.402,-244.256
 L -145.145,-244.322 L -144.882,-244.355 L 144.882,-244.355 L 145.145,-244.322 L 145.402,-244.256 L 145.648,-244.159
 L 145.88,-244.031 L 146.095,-243.875 L 146.288,-243.694 L 146.457,-243.49 L 146.599,-243.266 L 146.711,-243.027
 L 146.793,-242.775 L 146.843,-242.514 L 146.86,-242.25 L 146.86,-237.75 L 146.843,-237.486 L 146.793,-237.225
 L 146.711,-236.973 L 146.599,-236.734 L 146.457,-236.51 L 146.288,-236.306 L 146.095,-236.125 L 145.88,-235.969
 L 145.648,-235.841 L 145.402,-235.744 L 145.145,-235.678 L 144.882,-235.645 z
" stroke="black" fill="lightgray" stroke-width="0.5"/>
</svg>
