  0
SECTION
  2
BLOCKS
  0
ENDSEC
  0
SECTION
  2
ENTITIES
  0
LINE
  8
0
 10
145.937
 20
1759.59
 11
146.545
 21
1759.74
  0
LINE
  8
0
 10
146.545
 20
1759.74
 11
147.129
 21
1759.98
  0
LINE
  8
0
 10
147.129
 20
1759.98
 11
147.679
 21
1760.28
  0
LINE
  8
0
 10
147.679
 20
1760.28
 11
148.187
 21
1760.65
  0
LINE
  8
0
 10
148.187
 20
1760.65
 11
148.645
 21
1761.08
  0
LINE
  8
0
 10
148.645
 20
1761.08
 11
149.045
 21
1761.56
  0
LINE
  8
0
 10
149.045
 20
1761.56
 11
149.382
 21
1762.09
  0
LINE
  8
0
 10
149.382
 20
1762.09
 11
149.649
 21
1762.66
  0
LINE
  8
0
 10
149.649
 20
1762.66
 11
149.843
 21
1763.26
  0
LINE
  8
0
 10
149.843
 20
1763.26
 11
149.961
 21
1763.87
  0
LINE
  8
0
 10
149.961
 20
1763.87
 11
150
 21
1764.5
  0
LINE
  8
0
 10
150
 20
1764.5
 11
150
 21
1979.5
  0
LINE
  8
0
 10
150
 20
1979.5
 11
149.961
 21
1980.13
  0
LINE
  8
0
 10
149.961
 20
1980.13
 11
149.843
 21
1980.74
  0
LINE
  8
0
 10
149.843
 20
1980.74
 11
149.649
 21
1981.34
  0
LINE
  8
0
 10
149.649
 20
1981.34
 11
149.382
 21
1981.91
  0
LINE
  8
0
 10
149.382
 20
1981.91
 11
149.045
 21
1982.44
  0
LINE
  8
0
 10
149.045
 20
1982.44
 11
148.645
 21
1982.92
  0
LINE
  8
0
 10
148.645
 20
1982.92
 11
148.187
 21
1983.35
  0
LINE
  8
0
 10
148.187
 20
1983.35
 11
147.679
 21
1983.72
  0
LINE
  8
0
 10
147.679
 20
1983.72
 11
147.129
 21
1984.02
  0
LINE
  8
0
 10
147.129
 20
1984.02
 11
146.545
 21
1984.26
  0
LINE
  8
0
 10
146.545
 20
1984.26
 11
145.937
 21
1984.41
  0
LINE
  8
0
 10
145.937
 20
1984.41
 11
145.314
 21
1984.49
  0
LINE
  8
0
 10
145.314
 20
1984.49
 11
-145.314
 21
1984.49
  0
LINE
  8
0
 10
-145.314
 20
1984.49
 11
-145.937
 21
1984.41
  0
LINE
  8
0
 10
-145.937
 20
1984.41
 11
-146.545
 21
1984.26
  0
LINE
  8
0
 10
-146.545
 20
1984.26
 11
-147.129
 21
1984.02
  0
LINE
  8
0
 10
-147.129
 20
1984.02
 11
-147.679
 21
1983.72
  0
LINE
  8
0
 10
-147.679
 20
1983.72
 11
-148.187
 21
1983.35
  0
LINE
  8
0
 10
-148.187
 20
1983.35
 11
-148.645
 21
1982.92
  0
LINE
  8
0
 10
-148.645
 20
1982.92
 11
-149.045
 21
1982.44
  0
LINE
  8
0
 10
-149.045
 20
1982.44
 11
-149.382
 21
1981.91
  0
LINE
  8
0
 10
-149.382
 20
1981.91
 11
-149.649
 21
1981.34
  0
LINE
  8
0
 10
-149.649
 20
1981.34
 11
-149.843
 21
1980.74
  0
LINE
  8
0
 10
-149.843
 20
1980.74
 11
-149.961
 21
1980.13
  0
LINE
  8
0
 10
-149.961
 20
1980.13
 11
-150
 21
1979.5
  0
LINE
  8
0
 10
-150
 20
1979.5
 11
-150
 21
1764.5
  0
LINE
  8
0
 10
-150
 20
1764.5
 11
-149.961
 21
1763.87
  0
LINE
  8
0
 10
-149.961
 20
1763.87
 11
-149.843
 21
1763.26
  0
LINE
  8
0
 10
-149.843
 20
1763.26
 11
-149.649
 21
1762.66
  0
LINE
  8
0
 10
-149.649
 20
1762.66
 11
-149.382
 21
1762.09
  0
LINE
  8
0
 10
-149.382
 20
1762.09
 11
-149.045
 21
1761.56
  0
LINE
  8
0
 10
-149.045
 20
1761.56
 11
-148.645
 21
1761.08
  0
LINE
  8
0
 10
-148.645
 20
1761.08
 11
-148.187
 21
1760.65
  0
LINE
  8
0
 10
-148.187
 20
1760.65
 11
-147.679
 21
1760.28
  0
LINE
  8
0
 10
-147.679
 20
1760.28
 11
-147.129
 21
1759.98
  0
LINE
  8
0
 10
-147.129
 20
1759.98
 11
-146.545
 21
1759.74
  0
LINE
  8
0
 10
-146.545
 20
1759.74
 11
-145.937
 21
1759.59
  0
LINE
  8
0
 10
-145.937
 20
1759.59
 11
-145.314
 21
1759.51
  0
LINE
  8
0
 10
-145.314
 20
1759.51
 11
145.314
 21
1759.51
  0
LINE
  8
0
 10
145.314
 20
1759.51
 11
145.937
 21
1759.59
  0
LINE
  8
0
 10
-145.048
 20
1760.01
 11
-145.64
 21
1760.08
  0
LINE
  8
0
 10
-145.64
 20
1760.08
 11
-146.218
 21
1760.23
  0
LINE
  8
0
 10
-146.218
 20
1760.23
 11
-146.772
 21
1760.45
  0
LINE
  8
0
 10
-146.772
 20
1760.45
 11
-147.295
 21
1760.74
  0
LINE
  8
0
 10
-147.295
 20
1760.74
 11
-147.778
 21
1761.09
  0
LINE
  8
0
 10
-147.778
 20
1761.09
 11
-148.213
 21
1761.5
  0
LINE
  8
0
 10
-148.213
 20
1761.5
 11
-148.593
 21
1761.96
  0
LINE
  8
0
 10
-148.593
 20
1761.96
 11
-148.912
 21
1762.46
  0
LINE
  8
0
 10
-148.912
 20
1762.46
 11
-149.166
 21
1763
  0
LINE
  8
0
 10
-149.166
 20
1763
 11
-149.351
 21
1763.57
  0
LINE
  8
0
 10
-149.351
 20
1763.57
 11
-149.463
 21
1764.15
  0
LINE
  8
0
 10
-149.463
 20
1764.15
 11
-149.5
 21
1764.75
  0
LINE
  8
0
 10
-149.5
 20
1764.75
 11
-149.5
 21
1979.25
  0
LINE
  8
0
 10
-149.5
 20
1979.25
 11
-149.463
 21
1979.85
  0
LINE
  8
0
 10
-149.463
 20
1979.85
 11
-149.351
 21
1980.43
  0
LINE
  8
0
 10
-149.351
 20
1980.43
 11
-149.166
 21
1981
  0
LINE
  8
0
 10
-149.166
 20
1981
 11
-148.912
 21
1981.54
  0
LINE
  8
0
 10
-148.912
 20
1981.54
 11
-148.593
 21
1982.04
  0
LINE
  8
0
 10
-148.593
 20
1982.04
 11
-148.213
 21
1982.5
  0
LINE
  8
0
 10
-148.213
 20
1982.5
 11
-147.778
 21
1982.91
  0
LINE
  8
0
 10
-147.778
 20
1982.91
 11
-147.295
 21
1983.26
  0
LINE
  8
0
 10
-147.295
 20
1983.26
 11
-146.772
 21
1983.55
  0
LINE
  8
0
 10
-146.772
 20
1983.55
 11
-146.218
 21
1983.77
  0
LINE
  8
0
 10
-146.218
 20
1983.77
 11
-145.64
 21
1983.92
  0
LINE
  8
0
 10
-145.64
 20
1983.92
 11
-145.048
 21
1983.99
  0
LINE
  8
0
 10
-145.048
 20
1983.99
 11
145.048
 21
1983.99
  0
LINE
  8
0
 10
145.048
 20
1983.99
 11
145.64
 21
1983.92
  0
LINE
  8
0
 10
145.64
 20
1983.92
 11
146.218
 21
1983.77
  0
LINE
  8
0
 10
146.218
 20
1983.77
 11
146.772
 21
1983.55
  0
LINE
  8
0
 10
146.772
 20
1983.55
 11
147.295
 21
1983.26
  0
LINE
  8
0
 10
147.295
 20
1983.26
 11
147.778
 21
1982.91
  0
LINE
  8
0
 10
147.778
 20
1982.91
 11
148.213
 21
1982.5
  0
LINE
  8
0
 10
148.213
 20
1982.5
 11
148.593
 21
1982.04
  0
LINE
  8
0
 10
148.593
 20
1982.04
 11
148.912
 21
1981.54
  0
LINE
  8
0
 10
148.912
 20
1981.54
 11
149.166
 21
1981
  0
LINE
  8
0
 10
149.166
 20
1981
 11
149.351
 21
1980.43
  0
LINE
  8
0
 10
149.351
 20
1980.43
 11
149.463
 21
1979.85
  0
LINE
  8
0
 10
149.463
 20
1979.85
 11
149.5
 21
1979.25
  0
LINE
  8
0
 10
149.5
 20
1979.25
 11
149.5
 21
1764.75
  0
LINE
  8
0
 10
149.5
 20
1764.75
 11
149.463
 21
1764.15
  0
LINE
  8
0
 10
149.463
 20
1764.15
 11
149.351
 21
1763.57
  0
LINE
  8
0
 10
149.351
 20
1763.57
 11
149.166
 21
1763
  0
LINE
  8
0
 10
149.166
 20
1763
 11
148.912
 21
1762.46
  0
LINE
  8
0
 10
148.912
 20
1762.46
 11
148.593
 21
1761.96
  0
LINE
  8
0
 10
148.593
 20
1761.96
 11
148.213
 21
1761.5
  0
LINE
  8
0
 10
148.213
 20
1761.5
 11
147.778
 21
1761.09
  0
LINE
  8
0
 10
147.778
 20
1761.09
 11
147.295
 21
1760.74
  0
LINE
  8
0
 10
147.295
 20
1760.74
 11
146.772
 21
1760.45
  0
LINE
  8
0
 10
146.772
 20
1760.45
 11
146.218
 21
1760.23
  0
LINE
  8
0
 10
146.218
 20
1760.23
 11
145.64
 21
1760.08
  0
LINE
  8
0
 10
145.64
 20
1760.08
 11
145.048
 21
1760.01
  0
LINE
  8
0
 10
145.048
 20
1760.01
 11
-145.048
 21
1760.01
  0
LINE
  8
0
 10
145.937
 20
1525.59
 11
146.545
 21
1525.74
  0
LINE
  8
0
 10
146.545
 20
1525.74
 11
147.129
 21
1525.98
  0
LINE
  8
0
 10
147.129
 20
1525.98
 11
147.679
 21
1526.28
  0
LINE
  8
0
 10
147.679
 20
1526.28
 11
148.187
 21
1526.65
  0
LINE
  8
0
 10
148.187
 20
1526.65
 11
148.645
 21
1527.08
  0
LINE
  8
0
 10
148.645
 20
1527.08
 11
149.045
 21
1527.56
  0
LINE
  8
0
 10
149.045
 20
1527.56
 11
149.382
 21
1528.09
  0
LINE
  8
0
 10
149.382
 20
1528.09
 11
149.649
 21
1528.66
  0
LINE
  8
0
 10
149.649
 20
1528.66
 11
149.843
 21
1529.26
  0
LINE
  8
0
 10
149.843
 20
1529.26
 11
149.961
 21
1529.87
  0
LINE
  8
0
 10
149.961
 20
1529.87
 11
150
 21
1530.5
  0
LINE
  8
0
 10
150
 20
1530.5
 11
150
 21
1745.5
  0
LINE
  8
0
 10
150
 20
1745.5
 11
149.961
 21
1746.13
  0
LINE
  8
0
 10
149.961
 20
1746.13
 11
149.843
 21
1746.74
  0
LINE
  8
0
 10
149.843
 20
1746.74
 11
149.649
 21
1747.34
  0
LINE
  8
0
 10
149.649
 20
1747.34
 11
149.382
 21
1747.91
  0
LINE
  8
0
 10
149.382
 20
1747.91
 11
149.045
 21
1748.44
  0
LINE
  8
0
 10
149.045
 20
1748.44
 11
148.645
 21
1748.92
  0
LINE
  8
0
 10
148.645
 20
1748.92
 11
148.187
 21
1749.35
  0
LINE
  8
0
 10
148.187
 20
1749.35
 11
147.679
 21
1749.72
  0
LINE
  8
0
 10
147.679
 20
1749.72
 11
147.129
 21
1750.02
  0
LINE
  8
0
 10
147.129
 20
1750.02
 11
146.545
 21
1750.26
  0
LINE
  8
0
 10
146.545
 20
1750.26
 11
145.937
 21
1750.41
  0
LINE
  8
0
 10
145.937
 20
1750.41
 11
145.314
 21
1750.49
  0
LINE
  8
0
 10
145.314
 20
1750.49
 11
-145.314
 21
1750.49
  0
LINE
  8
0
 10
-145.314
 20
1750.49
 11
-145.937
 21
1750.41
  0
LINE
  8
0
 10
-145.937
 20
1750.41
 11
-146.545
 21
1750.26
  0
LINE
  8
0
 10
-146.545
 20
1750.26
 11
-147.129
 21
1750.02
  0
LINE
  8
0
 10
-147.129
 20
1750.02
 11
-147.679
 21
1749.72
  0
LINE
  8
0
 10
-147.679
 20
1749.72
 11
-148.187
 21
1749.35
  0
LINE
  8
0
 10
-148.187
 20
1749.35
 11
-148.645
 21
1748.92
  0
LINE
  8
0
 10
-148.645
 20
1748.92
 11
-149.045
 21
1748.44
  0
LINE
  8
0
 10
-149.045
 20
1748.44
 11
-149.382
 21
1747.91
  0
LINE
  8
0
 10
-149.382
 20
1747.91
 11
-149.649
 21
1747.34
  0
LINE
  8
0
 10
-149.649
 20
1747.34
 11
-149.843
 21
1746.74
  0
LINE
  8
0
 10
-149.843
 20
1746.74
 11
-149.961
 21
1746.13
  0
LINE
  8
0
 10
-149.961
 20
1746.13
 11
-150
 21
1745.5
  0
LINE
  8
0
 10
-150
 20
1745.5
 11
-150
 21
1530.5
  0
LINE
  8
0
 10
-150
 20
1530.5
 11
-149.961
 21
1529.87
  0
LINE
  8
0
 10
-149.961
 20
1529.87
 11
-149.843
 21
1529.26
  0
LINE
  8
0
 10
-149.843
 20
1529.26
 11
-149.649
 21
1528.66
  0
LINE
  8
0
 10
-149.649
 20
1528.66
 11
-149.382
 21
1528.09
  0
LINE
  8
0
 10
-149.382
 20
1528.09
 11
-149.045
 21
1527.56
  0
LINE
  8
0
 10
-149.045
 20
1527.56
 11
-148.645
 21
1527.08
  0
LINE
  8
0
 10
-148.645
 20
1527.08
 11
-148.187
 21
1526.65
  0
LINE
  8
0
 10
-148.187
 20
1526.65
 11
-147.679
 21
1526.28
  0
LINE
  8
0
 10
-147.679
 20
1526.28
 11
-147.129
 21
1525.98
  0
LINE
  8
0
 10
-147.129
 20
1525.98
 11
-146.545
 21
1525.74
  0
LINE
  8
0
 10
-146.545
 20
1525.74
 11
-145.937
 21
1525.59
  0
LINE
  8
0
 10
-145.937
 20
1525.59
 11
-145.314
 21
1525.51
  0
LINE
  8
0
 10
-145.314
 20
1525.51
 11
145.314
 21
1525.51
  0
LINE
  8
0
 10
145.314
 20
1525.51
 11
145.937
 21
1525.59
  0
LINE
  8
0
 10
-145.048
 20
1526.01
 11
-145.64
 21
1526.08
  0
LINE
  8
0
 10
-145.64
 20
1526.08
 11
-146.218
 21
1526.23
  0
LINE
  8
0
 10
-146.218
 20
1526.23
 11
-146.772
 21
1526.45
  0
LINE
  8
0
 10
-146.772
 20
1526.45
 11
-147.295
 21
1526.74
  0
LINE
  8
0
 10
-147.295
 20
1526.74
 11
-147.778
 21
1527.09
  0
LINE
  8
0
 10
-147.778
 20
1527.09
 11
-148.213
 21
1527.5
  0
LINE
  8
0
 10
-148.213
 20
1527.5
 11
-148.593
 21
1527.96
  0
LINE
  8
0
 10
-148.593
 20
1527.96
 11
-148.912
 21
1528.46
  0
LINE
  8
0
 10
-148.912
 20
1528.46
 11
-149.166
 21
1529
  0
LINE
  8
0
 10
-149.166
 20
1529
 11
-149.351
 21
1529.57
  0
LINE
  8
0
 10
-149.351
 20
1529.57
 11
-149.463
 21
1530.15
  0
LINE
  8
0
 10
-149.463
 20
1530.15
 11
-149.5
 21
1530.75
  0
LINE
  8
0
 10
-149.5
 20
1530.75
 11
-149.5
 21
1745.25
  0
LINE
  8
0
 10
-149.5
 20
1745.25
 11
-149.463
 21
1745.85
  0
LINE
  8
0
 10
-149.463
 20
1745.85
 11
-149.351
 21
1746.43
  0
LINE
  8
0
 10
-149.351
 20
1746.43
 11
-149.166
 21
1747
  0
LINE
  8
0
 10
-149.166
 20
1747
 11
-148.912
 21
1747.54
  0
LINE
  8
0
 10
-148.912
 20
1747.54
 11
-148.593
 21
1748.04
  0
LINE
  8
0
 10
-148.593
 20
1748.04
 11
-148.213
 21
1748.5
  0
LINE
  8
0
 10
-148.213
 20
1748.5
 11
-147.778
 21
1748.91
  0
LINE
  8
0
 10
-147.778
 20
1748.91
 11
-147.295
 21
1749.26
  0
LINE
  8
0
 10
-147.295
 20
1749.26
 11
-146.772
 21
1749.55
  0
LINE
  8
0
 10
-146.772
 20
1749.55
 11
-146.218
 21
1749.77
  0
LINE
  8
0
 10
-146.218
 20
1749.77
 11
-145.64
 21
1749.92
  0
LINE
  8
0
 10
-145.64
 20
1749.92
 11
-145.048
 21
1749.99
  0
LINE
  8
0
 10
-145.048
 20
1749.99
 11
145.048
 21
1749.99
  0
LINE
  8
0
 10
145.048
 20
1749.99
 11
145.64
 21
1749.92
  0
LINE
  8
0
 10
145.64
 20
1749.92
 11
146.218
 21
1749.77
  0
LINE
  8
0
 10
146.218
 20
1749.77
 11
146.772
 21
1749.55
  0
LINE
  8
0
 10
146.772
 20
1749.55
 11
147.295
 21
1749.26
  0
LINE
  8
0
 10
147.295
 20
1749.26
 11
147.778
 21
1748.91
  0
LINE
  8
0
 10
147.778
 20
1748.91
 11
148.213
 21
1748.5
  0
LINE
  8
0
 10
148.213
 20
1748.5
 11
148.593
 21
1748.04
  0
LINE
  8
0
 10
148.593
 20
1748.04
 11
148.912
 21
1747.54
  0
LINE
  8
0
 10
148.912
 20
1747.54
 11
149.166
 21
1747
  0
LINE
  8
0
 10
149.166
 20
1747
 11
149.351
 21
1746.43
  0
LINE
  8
0
 10
149.351
 20
1746.43
 11
149.463
 21
1745.85
  0
LINE
  8
0
 10
149.463
 20
1745.85
 11
149.5
 21
1745.25
  0
LINE
  8
0
 10
149.5
 20
1745.25
 11
149.5
 21
1530.75
  0
LINE
  8
0
 10
149.5
 20
1530.75
 11
149.463
 21
1530.15
  0
LINE
  8
0
 10
149.463
 20
1530.15
 11
149.351
 21
1529.57
  0
LINE
  8
0
 10
149.351
 20
1529.57
 11
149.166
 21
1529
  0
LINE
  8
0
 10
149.166
 20
1529
 11
148.912
 21
1528.46
  0
LINE
  8
0
 10
148.912
 20
1528.46
 11
148.593
 21
1527.96
  0
LINE
  8
0
 10
148.593
 20
1527.96
 11
148.213
 21
1527.5
  0
LINE
  8
0
 10
148.213
 20
1527.5
 11
147.778
 21
1527.09
  0
LINE
  8
0
 10
147.778
 20
1527.09
 11
147.295
 21
1526.74
  0
LINE
  8
0
 10
147.295
 20
1526.74
 11
146.772
 21
1526.45
  0
LINE
  8
0
 10
146.772
 20
1526.45
 11
146.218
 21
1526.23
  0
LINE
  8
0
 10
146.218
 20
1526.23
 11
145.64
 21
1526.08
  0
LINE
  8
0
 10
145.64
 20
1526.08
 11
145.048
 21
1526.01
  0
LINE
  8
0
 10
145.048
 20
1526.01
 11
-145.048
 21
1526.01
  0
LINE
  8
0
 10
145.937
 20
1291.59
 11
146.545
 21
1291.74
  0
LINE
  8
0
 10
146.545
 20
1291.74
 11
147.129
 21
1291.98
  0
LINE
  8
0
 10
147.129
 20
1291.98
 11
147.679
 21
1292.28
  0
LINE
  8
0
 10
147.679
 20
1292.28
 11
148.187
 21
1292.65
  0
LINE
  8
0
 10
148.187
 20
1292.65
 11
148.645
 21
1293.08
  0
LINE
  8
0
 10
148.645
 20
1293.08
 11
149.045
 21
1293.56
  0
LINE
  8
0
 10
149.045
 20
1293.56
 11
149.382
 21
1294.09
  0
LINE
  8
0
 10
149.382
 20
1294.09
 11
149.649
 21
1294.66
  0
LINE
  8
0
 10
149.649
 20
1294.66
 11
149.843
 21
1295.26
  0
LINE
  8
0
 10
149.843
 20
1295.26
 11
149.961
 21
1295.87
  0
LINE
  8
0
 10
149.961
 20
1295.87
 11
150
 21
1296.5
  0
LINE
  8
0
 10
150
 20
1296.5
 11
150
 21
1511.5
  0
LINE
  8
0
 10
150
 20
1511.5
 11
149.961
 21
1512.13
  0
LINE
  8
0
 10
149.961
 20
1512.13
 11
149.843
 21
1512.74
  0
LINE
  8
0
 10
149.843
 20
1512.74
 11
149.649
 21
1513.34
  0
LINE
  8
0
 10
149.649
 20
1513.34
 11
149.382
 21
1513.91
  0
LINE
  8
0
 10
149.382
 20
1513.91
 11
149.045
 21
1514.44
  0
LINE
  8
0
 10
149.045
 20
1514.44
 11
148.645
 21
1514.92
  0
LINE
  8
0
 10
148.645
 20
1514.92
 11
148.187
 21
1515.35
  0
LINE
  8
0
 10
148.187
 20
1515.35
 11
147.679
 21
1515.72
  0
LINE
  8
0
 10
147.679
 20
1515.72
 11
147.129
 21
1516.02
  0
LINE
  8
0
 10
147.129
 20
1516.02
 11
146.545
 21
1516.26
  0
LINE
  8
0
 10
146.545
 20
1516.26
 11
145.937
 21
1516.41
  0
LINE
  8
0
 10
145.937
 20
1516.41
 11
145.314
 21
1516.49
  0
LINE
  8
0
 10
145.314
 20
1516.49
 11
-145.314
 21
1516.49
  0
LINE
  8
0
 10
-145.314
 20
1516.49
 11
-145.937
 21
1516.41
  0
LINE
  8
0
 10
-145.937
 20
1516.41
 11
-146.545
 21
1516.26
  0
LINE
  8
0
 10
-146.545
 20
1516.26
 11
-147.129
 21
1516.02
  0
LINE
  8
0
 10
-147.129
 20
1516.02
 11
-147.679
 21
1515.72
  0
LINE
  8
0
 10
-147.679
 20
1515.72
 11
-148.187
 21
1515.35
  0
LINE
  8
0
 10
-148.187
 20
1515.35
 11
-148.645
 21
1514.92
  0
LINE
  8
0
 10
-148.645
 20
1514.92
 11
-149.045
 21
1514.44
  0
LINE
  8
0
 10
-149.045
 20
1514.44
 11
-149.382
 21
1513.91
  0
LINE
  8
0
 10
-149.382
 20
1513.91
 11
-149.649
 21
1513.34
  0
LINE
  8
0
 10
-149.649
 20
1513.34
 11
-149.843
 21
1512.74
  0
LINE
  8
0
 10
-149.843
 20
1512.74
 11
-149.961
 21
1512.13
  0
LINE
  8
0
 10
-149.961
 20
1512.13
 11
-150
 21
1511.5
  0
LINE
  8
0
 10
-150
 20
1511.5
 11
-150
 21
1296.5
  0
LINE
  8
0
 10
-150
 20
1296.5
 11
-149.961
 21
1295.87
  0
LINE
  8
0
 10
-149.961
 20
1295.87
 11
-149.843
 21
1295.26
  0
LINE
  8
0
 10
-149.843
 20
1295.26
 11
-149.649
 21
1294.66
  0
LINE
  8
0
 10
-149.649
 20
1294.66
 11
-149.382
 21
1294.09
  0
LINE
  8
0
 10
-149.382
 20
1294.09
 11
-149.045
 21
1293.56
  0
LINE
  8
0
 10
-149.045
 20
1293.56
 11
-148.645
 21
1293.08
  0
LINE
  8
0
 10
-148.645
 20
1293.08
 11
-148.187
 21
1292.65
  0
LINE
  8
0
 10
-148.187
 20
1292.65
 11
-147.679
 21
1292.28
  0
LINE
  8
0
 10
-147.679
 20
1292.28
 11
-147.129
 21
1291.98
  0
LINE
  8
0
 10
-147.129
 20
1291.98
 11
-146.545
 21
1291.74
  0
LINE
  8
0
 10
-146.545
 20
1291.74
 11
-145.937
 21
1291.59
  0
LINE
  8
0
 10
-145.937
 20
1291.59
 11
-145.314
 21
1291.51
  0
LINE
  8
0
 10
-145.314
 20
1291.51
 11
145.314
 21
1291.51
  0
LINE
  8
0
 10
145.314
 20
1291.51
 11
145.937
 21
1291.59
  0
LINE
  8
0
 10
-145.048
 20
1292.01
 11
-145.64
 21
1292.08
  0
LINE
  8
0
 10
-145.64
 20
1292.08
 11
-146.218
 21
1292.23
  0
LINE
  8
0
 10
-146.218
 20
1292.23
 11
-146.772
 21
1292.45
  0
LINE
  8
0
 10
-146.772
 20
1292.45
 11
-147.295
 21
1292.74
  0
LINE
  8
0
 10
-147.295
 20
1292.74
 11
-147.778
 21
1293.09
  0
LINE
  8
0
 10
-147.778
 20
1293.09
 11
-148.213
 21
1293.5
  0
LINE
  8
0
 10
-148.213
 20
1293.5
 11
-148.593
 21
1293.96
  0
LINE
  8
0
 10
-148.593
 20
1293.96
 11
-148.912
 21
1294.46
  0
LINE
  8
0
 10
-148.912
 20
1294.46
 11
-149.166
 21
1295
  0
LINE
  8
0
 10
-149.166
 20
1295
 11
-149.351
 21
1295.57
  0
LINE
  8
0
 10
-149.351
 20
1295.57
 11
-149.463
 21
1296.15
  0
LINE
  8
0
 10
-149.463
 20
1296.15
 11
-149.5
 21
1296.75
  0
LINE
  8
0
 10
-149.5
 20
1296.75
 11
-149.5
 21
1511.25
  0
LINE
  8
0
 10
-149.5
 20
1511.25
 11
-149.463
 21
1511.85
  0
LINE
  8
0
 10
-149.463
 20
1511.85
 11
-149.351
 21
1512.43
  0
LINE
  8
0
 10
-149.351
 20
1512.43
 11
-149.166
 21
1513
  0
LINE
  8
0
 10
-149.166
 20
1513
 11
-148.912
 21
1513.54
  0
LINE
  8
0
 10
-148.912
 20
1513.54
 11
-148.593
 21
1514.04
  0
LINE
  8
0
 10
-148.593
 20
1514.04
 11
-148.213
 21
1514.5
  0
LINE
  8
0
 10
-148.213
 20
1514.5
 11
-147.778
 21
1514.91
  0
LINE
  8
0
 10
-147.778
 20
1514.91
 11
-147.295
 21
1515.26
  0
LINE
  8
0
 10
-147.295
 20
1515.26
 11
-146.772
 21
1515.55
  0
LINE
  8
0
 10
-146.772
 20
1515.55
 11
-146.218
 21
1515.77
  0
LINE
  8
0
 10
-146.218
 20
1515.77
 11
-145.64
 21
1515.92
  0
LINE
  8
0
 10
-145.64
 20
1515.92
 11
-145.048
 21
1515.99
  0
LINE
  8
0
 10
-145.048
 20
1515.99
 11
145.048
 21
1515.99
  0
LINE
  8
0
 10
145.048
 20
1515.99
 11
145.64
 21
1515.92
  0
LINE
  8
0
 10
145.64
 20
1515.92
 11
146.218
 21
1515.77
  0
LINE
  8
0
 10
146.218
 20
1515.77
 11
146.772
 21
1515.55
  0
LINE
  8
0
 10
146.772
 20
1515.55
 11
147.295
 21
1515.26
  0
LINE
  8
0
 10
147.295
 20
1515.26
 11
147.778
 21
1514.91
  0
LINE
  8
0
 10
147.778
 20
1514.91
 11
148.213
 21
1514.5
  0
LINE
  8
0
 10
148.213
 20
1514.5
 11
148.593
 21
1514.04
  0
LINE
  8
0
 10
148.593
 20
1514.04
 11
148.912
 21
1513.54
  0
LINE
  8
0
 10
148.912
 20
1513.54
 11
149.166
 21
1513
  0
LINE
  8
0
 10
149.166
 20
1513
 11
149.351
 21
1512.43
  0
LINE
  8
0
 10
149.351
 20
1512.43
 11
149.463
 21
1511.85
  0
LINE
  8
0
 10
149.463
 20
1511.85
 11
149.5
 21
1511.25
  0
LINE
  8
0
 10
149.5
 20
1511.25
 11
149.5
 21
1296.75
  0
LINE
  8
0
 10
149.5
 20
1296.75
 11
149.463
 21
1296.15
  0
LINE
  8
0
 10
149.463
 20
1296.15
 11
149.351
 21
1295.57
  0
LINE
  8
0
 10
149.351
 20
1295.57
 11
149.166
 21
1295
  0
LINE
  8
0
 10
149.166
 20
1295
 11
148.912
 21
1294.46
  0
LINE
  8
0
 10
148.912
 20
1294.46
 11
148.593
 21
1293.96
  0
LINE
  8
0
 10
148.593
 20
1293.96
 11
148.213
 21
1293.5
  0
LINE
  8
0
 10
148.213
 20
1293.5
 11
147.778
 21
1293.09
  0
LINE
  8
0
 10
147.778
 20
1293.09
 11
147.295
 21
1292.74
  0
LINE
  8
0
 10
147.295
 20
1292.74
 11
146.772
 21
1292.45
  0
LINE
  8
0
 10
146.772
 20
1292.45
 11
146.218
 21
1292.23
  0
LINE
  8
0
 10
146.218
 20
1292.23
 11
145.64
 21
1292.08
  0
LINE
  8
0
 10
145.64
 20
1292.08
 11
145.048
 21
1292.01
  0
LINE
  8
0
 10
145.048
 20
1292.01
 11
-145.048
 21
1292.01
  0
LINE
  8
0
 10
145.937
 20
1057.59
 11
146.545
 21
1057.74
  0
LINE
  8
0
 10
146.545
 20
1057.74
 11
147.129
 21
1057.98
  0
LINE
  8
0
 10
147.129
 20
1057.98
 11
147.679
 21
1058.28
  0
LINE
  8
0
 10
147.679
 20
1058.28
 11
148.187
 21
1058.65
  0
LINE
  8
0
 10
148.187
 20
1058.65
 11
148.645
 21
1059.08
  0
LINE
  8
0
 10
148.645
 20
1059.08
 11
149.045
 21
1059.56
  0
LINE
  8
0
 10
149.045
 20
1059.56
 11
149.382
 21
1060.09
  0
LINE
  8
0
 10
149.382
 20
1060.09
 11
149.649
 21
1060.66
  0
LINE
  8
0
 10
149.649
 20
1060.66
 11
149.843
 21
1061.26
  0
LINE
  8
0
 10
149.843
 20
1061.26
 11
149.961
 21
1061.87
  0
LINE
  8
0
 10
149.961
 20
1061.87
 11
150
 21
1062.5
  0
LINE
  8
0
 10
150
 20
1062.5
 11
150
 21
1277.5
  0
LINE
  8
0
 10
150
 20
1277.5
 11
149.961
 21
1278.13
  0
LINE
  8
0
 10
149.961
 20
1278.13
 11
149.843
 21
1278.74
  0
LINE
  8
0
 10
149.843
 20
1278.74
 11
149.649
 21
1279.34
  0
LINE
  8
0
 10
149.649
 20
1279.34
 11
149.382
 21
1279.91
  0
LINE
  8
0
 10
149.382
 20
1279.91
 11
149.045
 21
1280.44
  0
LINE
  8
0
 10
149.045
 20
1280.44
 11
148.645
 21
1280.92
  0
LINE
  8
0
 10
148.645
 20
1280.92
 11
148.187
 21
1281.35
  0
LINE
  8
0
 10
148.187
 20
1281.35
 11
147.679
 21
1281.72
  0
LINE
  8
0
 10
147.679
 20
1281.72
 11
147.129
 21
1282.02
  0
LINE
  8
0
 10
147.129
 20
1282.02
 11
146.545
 21
1282.26
  0
LINE
  8
0
 10
146.545
 20
1282.26
 11
145.937
 21
1282.41
  0
LINE
  8
0
 10
145.937
 20
1282.41
 11
145.314
 21
1282.49
  0
LINE
  8
0
 10
145.314
 20
1282.49
 11
-145.314
 21
1282.49
  0
LINE
  8
0
 10
-145.314
 20
1282.49
 11
-145.937
 21
1282.41
  0
LINE
  8
0
 10
-145.937
 20
1282.41
 11
-146.545
 21
1282.26
  0
LINE
  8
0
 10
-146.545
 20
1282.26
 11
-147.129
 21
1282.02
  0
LINE
  8
0
 10
-147.129
 20
1282.02
 11
-147.679
 21
1281.72
  0
LINE
  8
0
 10
-147.679
 20
1281.72
 11
-148.187
 21
1281.35
  0
LINE
  8
0
 10
-148.187
 20
1281.35
 11
-148.645
 21
1280.92
  0
LINE
  8
0
 10
-148.645
 20
1280.92
 11
-149.045
 21
1280.44
  0
LINE
  8
0
 10
-149.045
 20
1280.44
 11
-149.382
 21
1279.91
  0
LINE
  8
0
 10
-149.382
 20
1279.91
 11
-149.649
 21
1279.34
  0
LINE
  8
0
 10
-149.649
 20
1279.34
 11
-149.843
 21
1278.74
  0
LINE
  8
0
 10
-149.843
 20
1278.74
 11
-149.961
 21
1278.13
  0
LINE
  8
0
 10
-149.961
 20
1278.13
 11
-150
 21
1277.5
  0
LINE
  8
0
 10
-150
 20
1277.5
 11
-150
 21
1062.5
  0
LINE
  8
0
 10
-150
 20
1062.5
 11
-149.961
 21
1061.87
  0
LINE
  8
0
 10
-149.961
 20
1061.87
 11
-149.843
 21
1061.26
  0
LINE
  8
0
 10
-149.843
 20
1061.26
 11
-149.649
 21
1060.66
  0
LINE
  8
0
 10
-149.649
 20
1060.66
 11
-149.382
 21
1060.09
  0
LINE
  8
0
 10
-149.382
 20
1060.09
 11
-149.045
 21
1059.56
  0
LINE
  8
0
 10
-149.045
 20
1059.56
 11
-148.645
 21
1059.08
  0
LINE
  8
0
 10
-148.645
 20
1059.08
 11
-148.187
 21
1058.65
  0
LINE
  8
0
 10
-148.187
 20
1058.65
 11
-147.679
 21
1058.28
  0
LINE
  8
0
 10
-147.679
 20
1058.28
 11
-147.129
 21
1057.98
  0
LINE
  8
0
 10
-147.129
 20
1057.98
 11
-146.545
 21
1057.74
  0
LINE
  8
0
 10
-146.545
 20
1057.74
 11
-145.937
 21
1057.59
  0
LINE
  8
0
 10
-145.937
 20
1057.59
 11
-145.314
 21
1057.51
  0
LINE
  8
0
 10
-145.314
 20
1057.51
 11
145.314
 21
1057.51
  0
LINE
  8
0
 10
145.314
 20
1057.51
 11
145.937
 21
1057.59
  0
LINE
  8
0
 10
-144.993
 20
1058.89
 11
-145.475
 21
1058.95
  0
LINE
  8
0
 10
-145.475
 20
1058.95
 11
-145.946
 21
1059.07
  0
LINE
  8
0
 10
-145.946
 20
1059.07
 11
-146.398
 21
1059.25
  0
LINE
  8
0
 10
-146.398
 20
1059.25
 11
-146.823
 21
1059.48
  0
LINE
  8
0
 10
-146.823
 20
1059.48
 11
-147.216
 21
1059.77
  0
LINE
  8
0
 10
-147.216
 20
1059.77
 11
-147.571
 21
1060.1
  0
LINE
  8
0
 10
-147.571
 20
1060.1
 11
-147.88
 21
1060.48
  0
LINE
  8
0
 10
-147.88
 20
1060.48
 11
-148.141
 21
1060.89
  0
LINE
  8
0
 10
-148.141
 20
1060.89
 11
-148.348
 21
1061.33
  0
LINE
  8
0
 10
-148.348
 20
1061.33
 11
-148.498
 21
1061.79
  0
LINE
  8
0
 10
-148.498
 20
1061.79
 11
-148.589
 21
1062.27
  0
LINE
  8
0
 10
-148.589
 20
1062.27
 11
-148.619
 21
1062.75
  0
LINE
  8
0
 10
-148.619
 20
1062.75
 11
-148.619
 21
1277.25
  0
LINE
  8
0
 10
-148.619
 20
1277.25
 11
-148.589
 21
1277.73
  0
LINE
  8
0
 10
-148.589
 20
1277.73
 11
-148.498
 21
1278.21
  0
LINE
  8
0
 10
-148.498
 20
1278.21
 11
-148.348
 21
1278.67
  0
LINE
  8
0
 10
-148.348
 20
1278.67
 11
-148.141
 21
1279.11
  0
LINE
  8
0
 10
-148.141
 20
1279.11
 11
-147.88
 21
1279.52
  0
LINE
  8
0
 10
-147.88
 20
1279.52
 11
-147.571
 21
1279.9
  0
LINE
  8
0
 10
-147.571
 20
1279.9
 11
-147.216
 21
1280.23
  0
LINE
  8
0
 10
-147.216
 20
1280.23
 11
-146.823
 21
1280.52
  0
LINE
  8
0
 10
-146.823
 20
1280.52
 11
-146.398
 21
1280.75
  0
LINE
  8
0
 10
-146.398
 20
1280.75
 11
-145.946
 21
1280.93
  0
LINE
  8
0
 10
-145.946
 20
1280.93
 11
-145.475
 21
1281.05
  0
LINE
  8
0
 10
-145.475
 20
1281.05
 11
-144.993
 21
1281.11
  0
LINE
  8
0
 10
-144.993
 20
1281.11
 11
144.993
 21
1281.11
  0
LINE
  8
0
 10
144.993
 20
1281.11
 11
145.475
 21
1281.05
  0
LINE
  8
0
 10
145.475
 20
1281.05
 11
145.946
 21
1280.93
  0
LINE
  8
0
 10
145.946
 20
1280.93
 11
146.398
 21
1280.75
  0
LINE
  8
0
 10
146.398
 20
1280.75
 11
146.823
 21
1280.52
  0
LINE
  8
0
 10
146.823
 20
1280.52
 11
147.216
 21
1280.23
  0
LINE
  8
0
 10
147.216
 20
1280.23
 11
147.571
 21
1279.9
  0
LINE
  8
0
 10
147.571
 20
1279.9
 11
147.88
 21
1279.52
  0
LINE
  8
0
 10
147.88
 20
1279.52
 11
148.141
 21
1279.11
  0
LINE
  8
0
 10
148.141
 20
1279.11
 11
148.348
 21
1278.67
  0
LINE
  8
0
 10
148.348
 20
1278.67
 11
148.498
 21
1278.21
  0
LINE
  8
0
 10
148.498
 20
1278.21
 11
148.589
 21
1277.73
  0
LINE
  8
0
 10
148.589
 20
1277.73
 11
148.619
 21
1277.25
  0
LINE
  8
0
 10
148.619
 20
1277.25
 11
148.619
 21
1062.75
  0
LINE
  8
0
 10
148.619
 20
1062.75
 11
148.589
 21
1062.27
  0
LINE
  8
0
 10
148.589
 20
1062.27
 11
148.498
 21
1061.79
  0
LINE
  8
0
 10
148.498
 20
1061.79
 11
148.348
 21
1061.33
  0
LINE
  8
0
 10
148.348
 20
1061.33
 11
148.141
 21
1060.89
  0
LINE
  8
0
 10
148.141
 20
1060.89
 11
147.88
 21
1060.48
  0
LINE
  8
0
 10
147.88
 20
1060.48
 11
147.571
 21
1060.1
  0
LINE
  8
0
 10
147.571
 20
1060.1
 11
147.216
 21
1059.77
  0
LINE
  8
0
 10
147.216
 20
1059.77
 11
146.823
 21
1059.48
  0
LINE
  8
0
 10
146.823
 20
1059.48
 11
146.398
 21
1059.25
  0
LINE
  8
0
 10
146.398
 20
1059.25
 11
145.946
 21
1059.07
  0
LINE
  8
0
 10
145.946
 20
1059.07
 11
145.475
 21
1058.95
  0
LINE
  8
0
 10
145.475
 20
1058.95
 11
144.993
 21
1058.89
  0
LINE
  8
0
 10
144.993
 20
1058.89
 11
-144.993
 21
1058.89
  0
LINE
  8
0
 10
145.937
 20
823.589
 11
146.545
 21
823.745
  0
LINE
  8
0
 10
146.545
 20
823.745
 11
147.129
 21
823.976
  0
LINE
  8
0
 10
147.129
 20
823.976
 11
147.679
 21
824.278
  0
LINE
  8
0
 10
147.679
 20
824.278
 11
148.187
 21
824.647
  0
LINE
  8
0
 10
148.187
 20
824.647
 11
148.645
 21
825.077
  0
LINE
  8
0
 10
148.645
 20
825.077
 11
149.045
 21
825.561
  0
LINE
  8
0
 10
149.045
 20
825.561
 11
149.382
 21
826.091
  0
LINE
  8
0
 10
149.382
 20
826.091
 11
149.649
 21
826.659
  0
LINE
  8
0
 10
149.649
 20
826.659
 11
149.843
 21
827.257
  0
LINE
  8
0
 10
149.843
 20
827.257
 11
149.961
 21
827.873
  0
LINE
  8
0
 10
149.961
 20
827.873
 11
150
 21
828.5
  0
LINE
  8
0
 10
150
 20
828.5
 11
150
 21
1043.5
  0
LINE
  8
0
 10
150
 20
1043.5
 11
149.961
 21
1044.13
  0
LINE
  8
0
 10
149.961
 20
1044.13
 11
149.843
 21
1044.74
  0
LINE
  8
0
 10
149.843
 20
1044.74
 11
149.649
 21
1045.34
  0
LINE
  8
0
 10
149.649
 20
1045.34
 11
149.382
 21
1045.91
  0
LINE
  8
0
 10
149.382
 20
1045.91
 11
149.045
 21
1046.44
  0
LINE
  8
0
 10
149.045
 20
1046.44
 11
148.645
 21
1046.92
  0
LINE
  8
0
 10
148.645
 20
1046.92
 11
148.187
 21
1047.35
  0
LINE
  8
0
 10
148.187
 20
1047.35
 11
147.679
 21
1047.72
  0
LINE
  8
0
 10
147.679
 20
1047.72
 11
147.129
 21
1048.02
  0
LINE
  8
0
 10
147.129
 20
1048.02
 11
146.545
 21
1048.26
  0
LINE
  8
0
 10
146.545
 20
1048.26
 11
145.937
 21
1048.41
  0
LINE
  8
0
 10
145.937
 20
1048.41
 11
145.314
 21
1048.49
  0
LINE
  8
0
 10
145.314
 20
1048.49
 11
-145.314
 21
1048.49
  0
LINE
  8
0
 10
-145.314
 20
1048.49
 11
-145.937
 21
1048.41
  0
LINE
  8
0
 10
-145.937
 20
1048.41
 11
-146.545
 21
1048.26
  0
LINE
  8
0
 10
-146.545
 20
1048.26
 11
-147.129
 21
1048.02
  0
LINE
  8
0
 10
-147.129
 20
1048.02
 11
-147.679
 21
1047.72
  0
LINE
  8
0
 10
-147.679
 20
1047.72
 11
-148.187
 21
1047.35
  0
LINE
  8
0
 10
-148.187
 20
1047.35
 11
-148.645
 21
1046.92
  0
LINE
  8
0
 10
-148.645
 20
1046.92
 11
-149.045
 21
1046.44
  0
LINE
  8
0
 10
-149.045
 20
1046.44
 11
-149.382
 21
1045.91
  0
LINE
  8
0
 10
-149.382
 20
1045.91
 11
-149.649
 21
1045.34
  0
LINE
  8
0
 10
-149.649
 20
1045.34
 11
-149.843
 21
1044.74
  0
LINE
  8
0
 10
-149.843
 20
1044.74
 11
-149.961
 21
1044.13
  0
LINE
  8
0
 10
-149.961
 20
1044.13
 11
-150
 21
1043.5
  0
LINE
  8
0
 10
-150
 20
1043.5
 11
-150
 21
828.5
  0
LINE
  8
0
 10
-150
 20
828.5
 11
-149.961
 21
827.873
  0
LINE
  8
0
 10
-149.961
 20
827.873
 11
-149.843
 21
827.257
  0
LINE
  8
0
 10
-149.843
 20
827.257
 11
-149.649
 21
826.659
  0
LINE
  8
0
 10
-149.649
 20
826.659
 11
-149.382
 21
826.091
  0
LINE
  8
0
 10
-149.382
 20
826.091
 11
-149.045
 21
825.561
  0
LINE
  8
0
 10
-149.045
 20
825.561
 11
-148.645
 21
825.077
  0
LINE
  8
0
 10
-148.645
 20
825.077
 11
-148.187
 21
824.647
  0
LINE
  8
0
 10
-148.187
 20
824.647
 11
-147.679
 21
824.278
  0
LINE
  8
0
 10
-147.679
 20
824.278
 11
-147.129
 21
823.976
  0
LINE
  8
0
 10
-147.129
 20
823.976
 11
-146.545
 21
823.745
  0
LINE
  8
0
 10
-146.545
 20
823.745
 11
-145.937
 21
823.589
  0
LINE
  8
0
 10
-145.937
 20
823.589
 11
-145.314
 21
823.51
  0
LINE
  8
0
 10
-145.314
 20
823.51
 11
145.314
 21
823.51
  0
LINE
  8
0
 10
145.314
 20
823.51
 11
145.937
 21
823.589
  0
LINE
  8
0
 10
142.387
 20
1039.2
 11
142.163
 21
1039.23
  0
LINE
  8
0
 10
142.163
 20
1039.23
 11
141.944
 21
1039.29
  0
LINE
  8
0
 10
141.944
 20
1039.29
 11
141.734
 21
1039.37
  0
LINE
  8
0
 10
141.734
 20
1039.37
 11
141.536
 21
1039.48
  0
LINE
  8
0
 10
141.536
 20
1039.48
 11
141.353
 21
1039.61
  0
LINE
  8
0
 10
141.353
 20
1039.61
 11
141.188
 21
1039.77
  0
LINE
  8
0
 10
141.188
 20
1039.77
 11
141.044
 21
1039.94
  0
LINE
  8
0
 10
141.044
 20
1039.94
 11
140.923
 21
1040.13
  0
LINE
  8
0
 10
140.923
 20
1040.13
 11
140.826
 21
1040.34
  0
LINE
  8
0
 10
140.826
 20
1040.34
 11
140.757
 21
1040.55
  0
LINE
  8
0
 10
140.757
 20
1040.55
 11
140.714
 21
1040.77
  0
LINE
  8
0
 10
140.714
 20
1040.77
 11
140.7
 21
1041
  0
LINE
  8
0
 10
140.7
 20
1041
 11
140.714
 21
1041.23
  0
LINE
  8
0
 10
140.714
 20
1041.23
 11
140.757
 21
1041.45
  0
LINE
  8
0
 10
140.757
 20
1041.45
 11
140.826
 21
1041.66
  0
LINE
  8
0
 10
140.826
 20
1041.66
 11
140.923
 21
1041.87
  0
LINE
  8
0
 10
140.923
 20
1041.87
 11
141.044
 21
1042.06
  0
LINE
  8
0
 10
141.044
 20
1042.06
 11
141.188
 21
1042.23
  0
LINE
  8
0
 10
141.188
 20
1042.23
 11
141.353
 21
1042.39
  0
LINE
  8
0
 10
141.353
 20
1042.39
 11
141.536
 21
1042.52
  0
LINE
  8
0
 10
141.536
 20
1042.52
 11
141.734
 21
1042.63
  0
LINE
  8
0
 10
141.734
 20
1042.63
 11
141.944
 21
1042.71
  0
LINE
  8
0
 10
141.944
 20
1042.71
 11
142.163
 21
1042.77
  0
LINE
  8
0
 10
142.163
 20
1042.77
 11
142.387
 21
1042.8
  0
LINE
  8
0
 10
142.387
 20
1042.8
 11
142.613
 21
1042.8
  0
LINE
  8
0
 10
142.613
 20
1042.8
 11
142.837
 21
1042.77
  0
LINE
  8
0
 10
142.837
 20
1042.77
 11
143.056
 21
1042.71
  0
LINE
  8
0
 10
143.056
 20
1042.71
 11
143.266
 21
1042.63
  0
LINE
  8
0
 10
143.266
 20
1042.63
 11
143.464
 21
1042.52
  0
LINE
  8
0
 10
143.464
 20
1042.52
 11
143.647
 21
1042.39
  0
LINE
  8
0
 10
143.647
 20
1042.39
 11
143.812
 21
1042.23
  0
LINE
  8
0
 10
143.812
 20
1042.23
 11
143.956
 21
1042.06
  0
LINE
  8
0
 10
143.956
 20
1042.06
 11
144.077
 21
1041.87
  0
LINE
  8
0
 10
144.077
 20
1041.87
 11
144.174
 21
1041.66
  0
LINE
  8
0
 10
144.174
 20
1041.66
 11
144.243
 21
1041.45
  0
LINE
  8
0
 10
144.243
 20
1041.45
 11
144.286
 21
1041.23
  0
LINE
  8
0
 10
144.286
 20
1041.23
 11
144.3
 21
1041
  0
LINE
  8
0
 10
144.3
 20
1041
 11
144.286
 21
1040.77
  0
LINE
  8
0
 10
144.286
 20
1040.77
 11
144.243
 21
1040.55
  0
LINE
  8
0
 10
144.243
 20
1040.55
 11
144.174
 21
1040.34
  0
LINE
  8
0
 10
144.174
 20
1040.34
 11
144.077
 21
1040.13
  0
LINE
  8
0
 10
144.077
 20
1040.13
 11
143.956
 21
1039.94
  0
LINE
  8
0
 10
143.956
 20
1039.94
 11
143.812
 21
1039.77
  0
LINE
  8
0
 10
143.812
 20
1039.77
 11
143.647
 21
1039.61
  0
LINE
  8
0
 10
143.647
 20
1039.61
 11
143.464
 21
1039.48
  0
LINE
  8
0
 10
143.464
 20
1039.48
 11
143.266
 21
1039.37
  0
LINE
  8
0
 10
143.266
 20
1039.37
 11
143.056
 21
1039.29
  0
LINE
  8
0
 10
143.056
 20
1039.29
 11
142.837
 21
1039.23
  0
LINE
  8
0
 10
142.837
 20
1039.23
 11
142.613
 21
1039.2
  0
LINE
  8
0
 10
142.613
 20
1039.2
 11
142.387
 21
1039.2
  0
LINE
  8
0
 10
-142.613
 20
1039.2
 11
-142.837
 21
1039.23
  0
LINE
  8
0
 10
-142.837
 20
1039.23
 11
-143.056
 21
1039.29
  0
LINE
  8
0
 10
-143.056
 20
1039.29
 11
-143.266
 21
1039.37
  0
LINE
  8
0
 10
-143.266
 20
1039.37
 11
-143.464
 21
1039.48
  0
LINE
  8
0
 10
-143.464
 20
1039.48
 11
-143.647
 21
1039.61
  0
LINE
  8
0
 10
-143.647
 20
1039.61
 11
-143.812
 21
1039.77
  0
LINE
  8
0
 10
-143.812
 20
1039.77
 11
-143.956
 21
1039.94
  0
LINE
  8
0
 10
-143.956
 20
1039.94
 11
-144.077
 21
1040.13
  0
LINE
  8
0
 10
-144.077
 20
1040.13
 11
-144.174
 21
1040.34
  0
LINE
  8
0
 10
-144.174
 20
1040.34
 11
-144.243
 21
1040.55
  0
LINE
  8
0
 10
-144.243
 20
1040.55
 11
-144.286
 21
1040.77
  0
LINE
  8
0
 10
-144.286
 20
1040.77
 11
-144.3
 21
1041
  0
LINE
  8
0
 10
-144.3
 20
1041
 11
-144.286
 21
1041.23
  0
LINE
  8
0
 10
-144.286
 20
1041.23
 11
-144.243
 21
1041.45
  0
LINE
  8
0
 10
-144.243
 20
1041.45
 11
-144.174
 21
1041.66
  0
LINE
  8
0
 10
-144.174
 20
1041.66
 11
-144.077
 21
1041.87
  0
LINE
  8
0
 10
-144.077
 20
1041.87
 11
-143.956
 21
1042.06
  0
LINE
  8
0
 10
-143.956
 20
1042.06
 11
-143.812
 21
1042.23
  0
LINE
  8
0
 10
-143.812
 20
1042.23
 11
-143.647
 21
1042.39
  0
LINE
  8
0
 10
-143.647
 20
1042.39
 11
-143.464
 21
1042.52
  0
LINE
  8
0
 10
-143.464
 20
1042.52
 11
-143.266
 21
1042.63
  0
LINE
  8
0
 10
-143.266
 20
1042.63
 11
-143.056
 21
1042.71
  0
LINE
  8
0
 10
-143.056
 20
1042.71
 11
-142.837
 21
1042.77
  0
LINE
  8
0
 10
-142.837
 20
1042.77
 11
-142.613
 21
1042.8
  0
LINE
  8
0
 10
-142.613
 20
1042.8
 11
-142.387
 21
1042.8
  0
LINE
  8
0
 10
-142.387
 20
1042.8
 11
-142.163
 21
1042.77
  0
LINE
  8
0
 10
-142.163
 20
1042.77
 11
-141.944
 21
1042.71
  0
LINE
  8
0
 10
-141.944
 20
1042.71
 11
-141.734
 21
1042.63
  0
LINE
  8
0
 10
-141.734
 20
1042.63
 11
-141.536
 21
1042.52
  0
LINE
  8
0
 10
-141.536
 20
1042.52
 11
-141.353
 21
1042.39
  0
LINE
  8
0
 10
-141.353
 20
1042.39
 11
-141.188
 21
1042.23
  0
LINE
  8
0
 10
-141.188
 20
1042.23
 11
-141.044
 21
1042.06
  0
LINE
  8
0
 10
-141.044
 20
1042.06
 11
-140.923
 21
1041.87
  0
LINE
  8
0
 10
-140.923
 20
1041.87
 11
-140.826
 21
1041.66
  0
LINE
  8
0
 10
-140.826
 20
1041.66
 11
-140.757
 21
1041.45
  0
LINE
  8
0
 10
-140.757
 20
1041.45
 11
-140.714
 21
1041.23
  0
LINE
  8
0
 10
-140.714
 20
1041.23
 11
-140.7
 21
1041
  0
LINE
  8
0
 10
-140.7
 20
1041
 11
-140.714
 21
1040.77
  0
LINE
  8
0
 10
-140.714
 20
1040.77
 11
-140.757
 21
1040.55
  0
LINE
  8
0
 10
-140.757
 20
1040.55
 11
-140.826
 21
1040.34
  0
LINE
  8
0
 10
-140.826
 20
1040.34
 11
-140.923
 21
1040.13
  0
LINE
  8
0
 10
-140.923
 20
1040.13
 11
-141.044
 21
1039.94
  0
LINE
  8
0
 10
-141.044
 20
1039.94
 11
-141.188
 21
1039.77
  0
LINE
  8
0
 10
-141.188
 20
1039.77
 11
-141.353
 21
1039.61
  0
LINE
  8
0
 10
-141.353
 20
1039.61
 11
-141.536
 21
1039.48
  0
LINE
  8
0
 10
-141.536
 20
1039.48
 11
-141.734
 21
1039.37
  0
LINE
  8
0
 10
-141.734
 20
1039.37
 11
-141.944
 21
1039.29
  0
LINE
  8
0
 10
-141.944
 20
1039.29
 11
-142.163
 21
1039.23
  0
LINE
  8
0
 10
-142.163
 20
1039.23
 11
-142.387
 21
1039.2
  0
LINE
  8
0
 10
-142.387
 20
1039.2
 11
-142.613
 21
1039.2
  0
LINE
  8
0
 10
-142.613
 20
829.204
 11
-142.837
 21
829.232
  0
LINE
  8
0
 10
-142.837
 20
829.232
 11
-143.056
 21
829.288
  0
LINE
  8
0
 10
-143.056
 20
829.288
 11
-143.266
 21
829.371
  0
LINE
  8
0
 10
-143.266
 20
829.371
 11
-143.464
 21
829.48
  0
LINE
  8
0
 10
-143.464
 20
829.48
 11
-143.647
 21
829.613
  0
LINE
  8
0
 10
-143.647
 20
829.613
 11
-143.812
 21
829.768
  0
LINE
  8
0
 10
-143.812
 20
829.768
 11
-143.956
 21
829.942
  0
LINE
  8
0
 10
-143.956
 20
829.942
 11
-144.077
 21
830.133
  0
LINE
  8
0
 10
-144.077
 20
830.133
 11
-144.174
 21
830.337
  0
LINE
  8
0
 10
-144.174
 20
830.337
 11
-144.243
 21
830.552
  0
LINE
  8
0
 10
-144.243
 20
830.552
 11
-144.286
 21
830.774
  0
LINE
  8
0
 10
-144.286
 20
830.774
 11
-144.3
 21
831
  0
LINE
  8
0
 10
-144.3
 20
831
 11
-144.286
 21
831.226
  0
LINE
  8
0
 10
-144.286
 20
831.226
 11
-144.243
 21
831.448
  0
LINE
  8
0
 10
-144.243
 20
831.448
 11
-144.174
 21
831.663
  0
LINE
  8
0
 10
-144.174
 20
831.663
 11
-144.077
 21
831.867
  0
LINE
  8
0
 10
-144.077
 20
831.867
 11
-143.956
 21
832.058
  0
LINE
  8
0
 10
-143.956
 20
832.058
 11
-143.812
 21
832.232
  0
LINE
  8
0
 10
-143.812
 20
832.232
 11
-143.647
 21
832.387
  0
LINE
  8
0
 10
-143.647
 20
832.387
 11
-143.464
 21
832.52
  0
LINE
  8
0
 10
-143.464
 20
832.52
 11
-143.266
 21
832.629
  0
LINE
  8
0
 10
-143.266
 20
832.629
 11
-143.056
 21
832.712
  0
LINE
  8
0
 10
-143.056
 20
832.712
 11
-142.837
 21
832.768
  0
LINE
  8
0
 10
-142.837
 20
832.768
 11
-142.613
 21
832.796
  0
LINE
  8
0
 10
-142.613
 20
832.796
 11
-142.387
 21
832.796
  0
LINE
  8
0
 10
-142.387
 20
832.796
 11
-142.163
 21
832.768
  0
LINE
  8
0
 10
-142.163
 20
832.768
 11
-141.944
 21
832.712
  0
LINE
  8
0
 10
-141.944
 20
832.712
 11
-141.734
 21
832.629
  0
LINE
  8
0
 10
-141.734
 20
832.629
 11
-141.536
 21
832.52
  0
LINE
  8
0
 10
-141.536
 20
832.52
 11
-141.353
 21
832.387
  0
LINE
  8
0
 10
-141.353
 20
832.387
 11
-141.188
 21
832.232
  0
LINE
  8
0
 10
-141.188
 20
832.232
 11
-141.044
 21
832.058
  0
LINE
  8
0
 10
-141.044
 20
832.058
 11
-140.923
 21
831.867
  0
LINE
  8
0
 10
-140.923
 20
831.867
 11
-140.826
 21
831.663
  0
LINE
  8
0
 10
-140.826
 20
831.663
 11
-140.757
 21
831.448
  0
LINE
  8
0
 10
-140.757
 20
831.448
 11
-140.714
 21
831.226
  0
LINE
  8
0
 10
-140.714
 20
831.226
 11
-140.7
 21
831
  0
LINE
  8
0
 10
-140.7
 20
831
 11
-140.714
 21
830.774
  0
LINE
  8
0
 10
-140.714
 20
830.774
 11
-140.757
 21
830.552
  0
LINE
  8
0
 10
-140.757
 20
830.552
 11
-140.826
 21
830.337
  0
LINE
  8
0
 10
-140.826
 20
830.337
 11
-140.923
 21
830.133
  0
LINE
  8
0
 10
-140.923
 20
830.133
 11
-141.044
 21
829.942
  0
LINE
  8
0
 10
-141.044
 20
829.942
 11
-141.188
 21
829.768
  0
LINE
  8
0
 10
-141.188
 20
829.768
 11
-141.353
 21
829.613
  0
LINE
  8
0
 10
-141.353
 20
829.613
 11
-141.536
 21
829.48
  0
LINE
  8
0
 10
-141.536
 20
829.48
 11
-141.734
 21
829.371
  0
LINE
  8
0
 10
-141.734
 20
829.371
 11
-141.944
 21
829.288
  0
LINE
  8
0
 10
-141.944
 20
829.288
 11
-142.163
 21
829.232
  0
LINE
  8
0
 10
-142.163
 20
829.232
 11
-142.387
 21
829.204
  0
LINE
  8
0
 10
-142.387
 20
829.204
 11
-142.613
 21
829.204
  0
LINE
  8
0
 10
142.387
 20
829.204
 11
142.163
 21
829.232
  0
LINE
  8
0
 10
142.163
 20
829.232
 11
141.944
 21
829.288
  0
LINE
  8
0
 10
141.944
 20
829.288
 11
141.734
 21
829.371
  0
LINE
  8
0
 10
141.734
 20
829.371
 11
141.536
 21
829.48
  0
LINE
  8
0
 10
141.536
 20
829.48
 11
141.353
 21
829.613
  0
LINE
  8
0
 10
141.353
 20
829.613
 11
141.188
 21
829.768
  0
LINE
  8
0
 10
141.188
 20
829.768
 11
141.044
 21
829.942
  0
LINE
  8
0
 10
141.044
 20
829.942
 11
140.923
 21
830.133
  0
LINE
  8
0
 10
140.923
 20
830.133
 11
140.826
 21
830.337
  0
LINE
  8
0
 10
140.826
 20
830.337
 11
140.757
 21
830.552
  0
LINE
  8
0
 10
140.757
 20
830.552
 11
140.714
 21
830.774
  0
LINE
  8
0
 10
140.714
 20
830.774
 11
140.7
 21
831
  0
LINE
  8
0
 10
140.7
 20
831
 11
140.714
 21
831.226
  0
LINE
  8
0
 10
140.714
 20
831.226
 11
140.757
 21
831.448
  0
LINE
  8
0
 10
140.757
 20
831.448
 11
140.826
 21
831.663
  0
LINE
  8
0
 10
140.826
 20
831.663
 11
140.923
 21
831.867
  0
LINE
  8
0
 10
140.923
 20
831.867
 11
141.044
 21
832.058
  0
LINE
  8
0
 10
141.044
 20
832.058
 11
141.188
 21
832.232
  0
LINE
  8
0
 10
141.188
 20
832.232
 11
141.353
 21
832.387
  0
LINE
  8
0
 10
141.353
 20
832.387
 11
141.536
 21
832.52
  0
LINE
  8
0
 10
141.536
 20
832.52
 11
141.734
 21
832.629
  0
LINE
  8
0
 10
141.734
 20
832.629
 11
141.944
 21
832.712
  0
LINE
  8
0
 10
141.944
 20
832.712
 11
142.163
 21
832.768
  0
LINE
  8
0
 10
142.163
 20
832.768
 11
142.387
 21
832.796
  0
LINE
  8
0
 10
142.387
 20
832.796
 11
142.613
 21
832.796
  0
LINE
  8
0
 10
142.613
 20
832.796
 11
142.837
 21
832.768
  0
LINE
  8
0
 10
142.837
 20
832.768
 11
143.056
 21
832.712
  0
LINE
  8
0
 10
143.056
 20
832.712
 11
143.266
 21
832.629
  0
LINE
  8
0
 10
143.266
 20
832.629
 11
143.464
 21
832.52
  0
LINE
  8
0
 10
143.464
 20
832.52
 11
143.647
 21
832.387
  0
LINE
  8
0
 10
143.647
 20
832.387
 11
143.812
 21
832.232
  0
LINE
  8
0
 10
143.812
 20
832.232
 11
143.956
 21
832.058
  0
LINE
  8
0
 10
143.956
 20
832.058
 11
144.077
 21
831.867
  0
LINE
  8
0
 10
144.077
 20
831.867
 11
144.174
 21
831.663
  0
LINE
  8
0
 10
144.174
 20
831.663
 11
144.243
 21
831.448
  0
LINE
  8
0
 10
144.243
 20
831.448
 11
144.286
 21
831.226
  0
LINE
  8
0
 10
144.286
 20
831.226
 11
144.3
 21
831
  0
LINE
  8
0
 10
144.3
 20
831
 11
144.286
 21
830.774
  0
LINE
  8
0
 10
144.286
 20
830.774
 11
144.243
 21
830.552
  0
LINE
  8
0
 10
144.243
 20
830.552
 11
144.174
 21
830.337
  0
LINE
  8
0
 10
144.174
 20
830.337
 11
144.077
 21
830.133
  0
LINE
  8
0
 10
144.077
 20
830.133
 11
143.956
 21
829.942
  0
LINE
  8
0
 10
143.956
 20
829.942
 11
143.812
 21
829.768
  0
LINE
  8
0
 10
143.812
 20
829.768
 11
143.647
 21
829.613
  0
LINE
  8
0
 10
143.647
 20
829.613
 11
143.464
 21
829.48
  0
LINE
  8
0
 10
143.464
 20
829.48
 11
143.266
 21
829.371
  0
LINE
  8
0
 10
143.266
 20
829.371
 11
143.056
 21
829.288
  0
LINE
  8
0
 10
143.056
 20
829.288
 11
142.837
 21
829.232
  0
LINE
  8
0
 10
142.837
 20
829.232
 11
142.613
 21
829.204
  0
LINE
  8
0
 10
142.613
 20
829.204
 11
142.387
 21
829.204
  0
ENDSEC
  0
SECTION
  2
OBJECTS
  0
DICTIONARY
  0
ENDSEC
  0
EOF
