  0
SECTION
  2
BLOCKS
  0
ENDSEC
  0
SECTION
  2
ENTITIES
  0
LINE
  8
0
 10
115.937
 20
364.589
 11
116.545
 21
364.745
  0
LINE
  8
0
 10
116.545
 20
364.745
 11
117.129
 21
364.976
  0
LINE
  8
0
 10
117.129
 20
364.976
 11
117.679
 21
365.278
  0
LINE
  8
0
 10
117.679
 20
365.278
 11
118.187
 21
365.647
  0
LINE
  8
0
 10
118.187
 20
365.647
 11
118.645
 21
366.077
  0
LINE
  8
0
 10
118.645
 20
366.077
 11
119.045
 21
366.561
  0
LINE
  8
0
 10
119.045
 20
366.561
 11
119.382
 21
367.091
  0
LINE
  8
0
 10
119.382
 20
367.091
 11
119.649
 21
367.659
  0
LINE
  8
0
 10
119.649
 20
367.659
 11
119.843
 21
368.257
  0
LINE
  8
0
 10
119.843
 20
368.257
 11
119.961
 21
368.873
  0
LINE
  8
0
 10
119.961
 20
368.873
 11
120
 21
369.5
  0
LINE
  8
0
 10
120
 20
369.5
 11
120
 21
494.5
  0
LINE
  8
0
 10
120
 20
494.5
 11
119.961
 21
495.127
  0
LINE
  8
0
 10
119.961
 20
495.127
 11
119.843
 21
495.743
  0
LINE
  8
0
 10
119.843
 20
495.743
 11
119.649
 21
496.341
  0
LINE
  8
0
 10
119.649
 20
496.341
 11
119.382
 21
496.909
  0
LINE
  8
0
 10
119.382
 20
496.909
 11
119.045
 21
497.439
  0
LINE
  8
0
 10
119.045
 20
497.439
 11
118.645
 21
497.923
  0
LINE
  8
0
 10
118.645
 20
497.923
 11
118.187
 21
498.353
  0
LINE
  8
0
 10
118.187
 20
498.353
 11
117.679
 21
498.722
  0
LINE
  8
0
 10
117.679
 20
498.722
 11
117.129
 21
499.024
  0
LINE
  8
0
 10
117.129
 20
499.024
 11
116.545
 21
499.255
  0
LINE
  8
0
 10
116.545
 20
499.255
 11
115.937
 21
499.411
  0
LINE
  8
0
 10
115.937
 20
499.411
 11
115.314
 21
499.49
  0
LINE
  8
0
 10
115.314
 20
499.49
 11
-115.314
 21
499.49
  0
LINE
  8
0
 10
-115.314
 20
499.49
 11
-115.937
 21
499.411
  0
LINE
  8
0
 10
-115.937
 20
499.411
 11
-116.545
 21
499.255
  0
LINE
  8
0
 10
-116.545
 20
499.255
 11
-117.129
 21
499.024
  0
LINE
  8
0
 10
-117.129
 20
499.024
 11
-117.679
 21
498.722
  0
LINE
  8
0
 10
-117.679
 20
498.722
 11
-118.187
 21
498.353
  0
LINE
  8
0
 10
-118.187
 20
498.353
 11
-118.645
 21
497.923
  0
LINE
  8
0
 10
-118.645
 20
497.923
 11
-119.045
 21
497.439
  0
LINE
  8
0
 10
-119.045
 20
497.439
 11
-119.382
 21
496.909
  0
LINE
  8
0
 10
-119.382
 20
496.909
 11
-119.649
 21
496.341
  0
LINE
  8
0
 10
-119.649
 20
496.341
 11
-119.843
 21
495.743
  0
LINE
  8
0
 10
-119.843
 20
495.743
 11
-119.961
 21
495.127
  0
LINE
  8
0
 10
-119.961
 20
495.127
 11
-120
 21
494.5
  0
LINE
  8
0
 10
-120
 20
494.5
 11
-120
 21
369.5
  0
LINE
  8
0
 10
-120
 20
369.5
 11
-119.961
 21
368.873
  0
LINE
  8
0
 10
-119.961
 20
368.873
 11
-119.843
 21
368.257
  0
LINE
  8
0
 10
-119.843
 20
368.257
 11
-119.649
 21
367.659
  0
LINE
  8
0
 10
-119.649
 20
367.659
 11
-119.382
 21
367.091
  0
LINE
  8
0
 10
-119.382
 20
367.091
 11
-119.045
 21
366.561
  0
LINE
  8
0
 10
-119.045
 20
366.561
 11
-118.645
 21
366.077
  0
LINE
  8
0
 10
-118.645
 20
366.077
 11
-118.187
 21
365.647
  0
LINE
  8
0
 10
-118.187
 20
365.647
 11
-117.679
 21
365.278
  0
LINE
  8
0
 10
-117.679
 20
365.278
 11
-117.129
 21
364.976
  0
LINE
  8
0
 10
-117.129
 20
364.976
 11
-116.545
 21
364.745
  0
LINE
  8
0
 10
-116.545
 20
364.745
 11
-115.937
 21
364.589
  0
LINE
  8
0
 10
-115.937
 20
364.589
 11
-115.314
 21
364.51
  0
LINE
  8
0
 10
-115.314
 20
364.51
 11
115.314
 21
364.51
  0
LINE
  8
0
 10
115.314
 20
364.51
 11
115.937
 21
364.589
  0
LINE
  8
0
 10
-115.037
 20
365.181
 11
-115.608
 21
365.253
  0
LINE
  8
0
 10
-115.608
 20
365.253
 11
-116.165
 21
365.396
  0
LINE
  8
0
 10
-116.165
 20
365.396
 11
-116.699
 21
365.607
  0
LINE
  8
0
 10
-116.699
 20
365.607
 11
-117.203
 21
365.884
  0
LINE
  8
0
 10
-117.203
 20
365.884
 11
-117.668
 21
366.222
  0
LINE
  8
0
 10
-117.668
 20
366.222
 11
-118.088
 21
366.616
  0
LINE
  8
0
 10
-118.088
 20
366.616
 11
-118.454
 21
367.059
  0
LINE
  8
0
 10
-118.454
 20
367.059
 11
-118.762
 21
367.544
  0
LINE
  8
0
 10
-118.762
 20
367.544
 11
-119.007
 21
368.065
  0
LINE
  8
0
 10
-119.007
 20
368.065
 11
-119.185
 21
368.611
  0
LINE
  8
0
 10
-119.185
 20
368.611
 11
-119.292
 21
369.176
  0
LINE
  8
0
 10
-119.292
 20
369.176
 11
-119.328
 21
369.75
  0
LINE
  8
0
 10
-119.328
 20
369.75
 11
-119.328
 21
494.25
  0
LINE
  8
0
 10
-119.328
 20
494.25
 11
-119.292
 21
494.824
  0
LINE
  8
0
 10
-119.292
 20
494.824
 11
-119.185
 21
495.389
  0
LINE
  8
0
 10
-119.185
 20
495.389
 11
-119.007
 21
495.935
  0
LINE
  8
0
 10
-119.007
 20
495.935
 11
-118.762
 21
496.456
  0
LINE
  8
0
 10
-118.762
 20
496.456
 11
-118.454
 21
496.941
  0
LINE
  8
0
 10
-118.454
 20
496.941
 11
-118.088
 21
497.384
  0
LINE
  8
0
 10
-118.088
 20
497.384
 11
-117.668
 21
497.778
  0
LINE
  8
0
 10
-117.668
 20
497.778
 11
-117.203
 21
498.116
  0
LINE
  8
0
 10
-117.203
 20
498.116
 11
-116.699
 21
498.393
  0
LINE
  8
0
 10
-116.699
 20
498.393
 11
-116.165
 21
498.604
  0
LINE
  8
0
 10
-116.165
 20
498.604
 11
-115.608
 21
498.747
  0
LINE
  8
0
 10
-115.608
 20
498.747
 11
-115.037
 21
498.819
  0
LINE
  8
0
 10
-115.037
 20
498.819
 11
115.037
 21
498.819
  0
LINE
  8
0
 10
115.037
 20
498.819
 11
115.608
 21
498.747
  0
LINE
  8
0
 10
115.608
 20
498.747
 11
116.165
 21
498.604
  0
LINE
  8
0
 10
116.165
 20
498.604
 11
116.699
 21
498.393
  0
LINE
  8
0
 10
116.699
 20
498.393
 11
117.203
 21
498.116
  0
LINE
  8
0
 10
117.203
 20
498.116
 11
117.668
 21
497.778
  0
LINE
  8
0
 10
117.668
 20
497.778
 11
118.088
 21
497.384
  0
LINE
  8
0
 10
118.088
 20
497.384
 11
118.454
 21
496.941
  0
LINE
  8
0
 10
118.454
 20
496.941
 11
118.762
 21
496.456
  0
LINE
  8
0
 10
118.762
 20
496.456
 11
119.007
 21
495.935
  0
LINE
  8
0
 10
119.007
 20
495.935
 11
119.185
 21
495.389
  0
LINE
  8
0
 10
119.185
 20
495.389
 11
119.292
 21
494.824
  0
LINE
  8
0
 10
119.292
 20
494.824
 11
119.328
 21
494.25
  0
LINE
  8
0
 10
119.328
 20
494.25
 11
119.328
 21
369.75
  0
LINE
  8
0
 10
119.328
 20
369.75
 11
119.292
 21
369.176
  0
LINE
  8
0
 10
119.292
 20
369.176
 11
119.185
 21
368.611
  0
LINE
  8
0
 10
119.185
 20
368.611
 11
119.007
 21
368.065
  0
LINE
  8
0
 10
119.007
 20
368.065
 11
118.762
 21
367.544
  0
LINE
  8
0
 10
118.762
 20
367.544
 11
118.454
 21
367.059
  0
LINE
  8
0
 10
118.454
 20
367.059
 11
118.088
 21
366.616
  0
LINE
  8
0
 10
118.088
 20
366.616
 11
117.668
 21
366.222
  0
LINE
  8
0
 10
117.668
 20
366.222
 11
117.203
 21
365.884
  0
LINE
  8
0
 10
117.203
 20
365.884
 11
116.699
 21
365.607
  0
LINE
  8
0
 10
116.699
 20
365.607
 11
116.165
 21
365.396
  0
LINE
  8
0
 10
116.165
 20
365.396
 11
115.608
 21
365.253
  0
LINE
  8
0
 10
115.608
 20
365.253
 11
115.037
 21
365.181
  0
LINE
  8
0
 10
115.037
 20
365.181
 11
-115.037
 21
365.181
  0
LINE
  8
0
 10
115.937
 20
220.589
 11
116.545
 21
220.745
  0
LINE
  8
0
 10
116.545
 20
220.745
 11
117.129
 21
220.976
  0
LINE
  8
0
 10
117.129
 20
220.976
 11
117.679
 21
221.278
  0
LINE
  8
0
 10
117.679
 20
221.278
 11
118.187
 21
221.647
  0
LINE
  8
0
 10
118.187
 20
221.647
 11
118.645
 21
222.077
  0
LINE
  8
0
 10
118.645
 20
222.077
 11
119.045
 21
222.561
  0
LINE
  8
0
 10
119.045
 20
222.561
 11
119.382
 21
223.091
  0
LINE
  8
0
 10
119.382
 20
223.091
 11
119.649
 21
223.659
  0
LINE
  8
0
 10
119.649
 20
223.659
 11
119.843
 21
224.257
  0
LINE
  8
0
 10
119.843
 20
224.257
 11
119.961
 21
224.873
  0
LINE
  8
0
 10
119.961
 20
224.873
 11
120
 21
225.5
  0
LINE
  8
0
 10
120
 20
225.5
 11
120
 21
350.5
  0
LINE
  8
0
 10
120
 20
350.5
 11
119.961
 21
351.127
  0
LINE
  8
0
 10
119.961
 20
351.127
 11
119.843
 21
351.743
  0
LINE
  8
0
 10
119.843
 20
351.743
 11
119.649
 21
352.341
  0
LINE
  8
0
 10
119.649
 20
352.341
 11
119.382
 21
352.909
  0
LINE
  8
0
 10
119.382
 20
352.909
 11
119.045
 21
353.439
  0
LINE
  8
0
 10
119.045
 20
353.439
 11
118.645
 21
353.923
  0
LINE
  8
0
 10
118.645
 20
353.923
 11
118.187
 21
354.353
  0
LINE
  8
0
 10
118.187
 20
354.353
 11
117.679
 21
354.722
  0
LINE
  8
0
 10
117.679
 20
354.722
 11
117.129
 21
355.024
  0
LINE
  8
0
 10
117.129
 20
355.024
 11
116.545
 21
355.255
  0
LINE
  8
0
 10
116.545
 20
355.255
 11
115.937
 21
355.411
  0
LINE
  8
0
 10
115.937
 20
355.411
 11
115.314
 21
355.49
  0
LINE
  8
0
 10
115.314
 20
355.49
 11
-115.314
 21
355.49
  0
LINE
  8
0
 10
-115.314
 20
355.49
 11
-115.937
 21
355.411
  0
LINE
  8
0
 10
-115.937
 20
355.411
 11
-116.545
 21
355.255
  0
LINE
  8
0
 10
-116.545
 20
355.255
 11
-117.129
 21
355.024
  0
LINE
  8
0
 10
-117.129
 20
355.024
 11
-117.679
 21
354.722
  0
LINE
  8
0
 10
-117.679
 20
354.722
 11
-118.187
 21
354.353
  0
LINE
  8
0
 10
-118.187
 20
354.353
 11
-118.645
 21
353.923
  0
LINE
  8
0
 10
-118.645
 20
353.923
 11
-119.045
 21
353.439
  0
LINE
  8
0
 10
-119.045
 20
353.439
 11
-119.382
 21
352.909
  0
LINE
  8
0
 10
-119.382
 20
352.909
 11
-119.649
 21
352.341
  0
LINE
  8
0
 10
-119.649
 20
352.341
 11
-119.843
 21
351.743
  0
LINE
  8
0
 10
-119.843
 20
351.743
 11
-119.961
 21
351.127
  0
LINE
  8
0
 10
-119.961
 20
351.127
 11
-120
 21
350.5
  0
LINE
  8
0
 10
-120
 20
350.5
 11
-120
 21
225.5
  0
LINE
  8
0
 10
-120
 20
225.5
 11
-119.961
 21
224.873
  0
LINE
  8
0
 10
-119.961
 20
224.873
 11
-119.843
 21
224.257
  0
LINE
  8
0
 10
-119.843
 20
224.257
 11
-119.649
 21
223.659
  0
LINE
  8
0
 10
-119.649
 20
223.659
 11
-119.382
 21
223.091
  0
LINE
  8
0
 10
-119.382
 20
223.091
 11
-119.045
 21
222.561
  0
LINE
  8
0
 10
-119.045
 20
222.561
 11
-118.645
 21
222.077
  0
LINE
  8
0
 10
-118.645
 20
222.077
 11
-118.187
 21
221.647
  0
LINE
  8
0
 10
-118.187
 20
221.647
 11
-117.679
 21
221.278
  0
LINE
  8
0
 10
-117.679
 20
221.278
 11
-117.129
 21
220.976
  0
LINE
  8
0
 10
-117.129
 20
220.976
 11
-116.545
 21
220.745
  0
LINE
  8
0
 10
-116.545
 20
220.745
 11
-115.937
 21
220.589
  0
LINE
  8
0
 10
-115.937
 20
220.589
 11
-115.314
 21
220.51
  0
LINE
  8
0
 10
-115.314
 20
220.51
 11
115.314
 21
220.51
  0
LINE
  8
0
 10
115.314
 20
220.51
 11
115.937
 21
220.589
  0
LINE
  8
0
 10
-114.882
 20
223.645
 11
-115.145
 21
223.678
  0
LINE
  8
0
 10
-115.145
 20
223.678
 11
-115.402
 21
223.744
  0
LINE
  8
0
 10
-115.402
 20
223.744
 11
-115.648
 21
223.841
  0
LINE
  8
0
 10
-115.648
 20
223.841
 11
-115.88
 21
223.969
  0
LINE
  8
0
 10
-115.88
 20
223.969
 11
-116.095
 21
224.125
  0
LINE
  8
0
 10
-116.095
 20
224.125
 11
-116.288
 21
224.306
  0
LINE
  8
0
 10
-116.288
 20
224.306
 11
-116.457
 21
224.51
  0
LINE
  8
0
 10
-116.457
 20
224.51
 11
-116.599
 21
224.734
  0
LINE
  8
0
 10
-116.599
 20
224.734
 11
-116.711
 21
224.973
  0
LINE
  8
0
 10
-116.711
 20
224.973
 11
-116.793
 21
225.225
  0
LINE
  8
0
 10
-116.793
 20
225.225
 11
-116.843
 21
225.486
  0
LINE
  8
0
 10
-116.843
 20
225.486
 11
-116.86
 21
225.75
  0
LINE
  8
0
 10
-116.86
 20
225.75
 11
-116.86
 21
350.25
  0
LINE
  8
0
 10
-116.86
 20
350.25
 11
-116.843
 21
350.514
  0
LINE
  8
0
 10
-116.843
 20
350.514
 11
-116.793
 21
350.775
  0
LINE
  8
0
 10
-116.793
 20
350.775
 11
-116.711
 21
351.027
  0
LINE
  8
0
 10
-116.711
 20
351.027
 11
-116.599
 21
351.266
  0
LINE
  8
0
 10
-116.599
 20
351.266
 11
-116.457
 21
351.49
  0
LINE
  8
0
 10
-116.457
 20
351.49
 11
-116.288
 21
351.694
  0
LINE
  8
0
 10
-116.288
 20
351.694
 11
-116.095
 21
351.875
  0
LINE
  8
0
 10
-116.095
 20
351.875
 11
-115.88
 21
352.031
  0
LINE
  8
0
 10
-115.88
 20
352.031
 11
-115.648
 21
352.159
  0
LINE
  8
0
 10
-115.648
 20
352.159
 11
-115.402
 21
352.256
  0
LINE
  8
0
 10
-115.402
 20
352.256
 11
-115.145
 21
352.322
  0
LINE
  8
0
 10
-115.145
 20
352.322
 11
-114.882
 21
352.355
  0
LINE
  8
0
 10
-114.882
 20
352.355
 11
114.882
 21
352.355
  0
LINE
  8
0
 10
114.882
 20
352.355
 11
115.145
 21
352.322
  0
LINE
  8
0
 10
115.145
 20
352.322
 11
115.402
 21
352.256
  0
LINE
  8
0
 10
115.402
 20
352.256
 11
115.648
 21
352.159
  0
LINE
  8
0
 10
115.648
 20
352.159
 11
115.88
 21
352.031
  0
LINE
  8
0
 10
115.88
 20
352.031
 11
116.095
 21
351.875
  0
LINE
  8
0
 10
116.095
 20
351.875
 11
116.288
 21
351.694
  0
LINE
  8
0
 10
116.288
 20
351.694
 11
116.457
 21
351.49
  0
LINE
  8
0
 10
116.457
 20
351.49
 11
116.599
 21
351.266
  0
LINE
  8
0
 10
116.599
 20
351.266
 11
116.711
 21
351.027
  0
LINE
  8
0
 10
116.711
 20
351.027
 11
116.793
 21
350.775
  0
LINE
  8
0
 10
116.793
 20
350.775
 11
116.843
 21
350.514
  0
LINE
  8
0
 10
116.843
 20
350.514
 11
116.86
 21
350.25
  0
LINE
  8
0
 10
116.86
 20
350.25
 11
116.86
 21
225.75
  0
LINE
  8
0
 10
116.86
 20
225.75
 11
116.843
 21
225.486
  0
LINE
  8
0
 10
116.843
 20
225.486
 11
116.793
 21
225.225
  0
LINE
  8
0
 10
116.793
 20
225.225
 11
116.711
 21
224.973
  0
LINE
  8
0
 10
116.711
 20
224.973
 11
116.599
 21
224.734
  0
LINE
  8
0
 10
116.599
 20
224.734
 11
116.457
 21
224.51
  0
LINE
  8
0
 10
116.457
 20
224.51
 11
116.288
 21
224.306
  0
LINE
  8
0
 10
116.288
 20
224.306
 11
116.095
 21
224.125
  0
LINE
  8
0
 10
116.095
 20
224.125
 11
115.88
 21
223.969
  0
LINE
  8
0
 10
115.88
 20
223.969
 11
115.648
 21
223.841
  0
LINE
  8
0
 10
115.648
 20
223.841
 11
115.402
 21
223.744
  0
LINE
  8
0
 10
115.402
 20
223.744
 11
115.145
 21
223.678
  0
LINE
  8
0
 10
115.145
 20
223.678
 11
114.882
 21
223.645
  0
LINE
  8
0
 10
114.882
 20
223.645
 11
-114.882
 21
223.645
  0
ENDSEC
  0
SECTION
  2
OBJECTS
  0
DICTIONARY
  0
ENDSEC
  0
EOF
