<?xml version="1.0" standalone="no"?>
<!DOCTYPE svg PUBLIC "-//W3C//DTD SVG 1.1//EN" "http://www.w3.org/Graphics/SVG/1.1/DTD/svg11.dtd">
<svg width="302mm" height="1536mm" viewBox="-152 -2622 302 1536" xmlns="http://www.w3.org/2000/svg" version="1.1">
<title>OpenSCAD Model</title>
<path d="
M -148.5,-2323.44 L -148.187,-2323.15 L -147.679,-2322.78 L -147.129,-2322.48 L -146.545,-2322.24 L -145.937,-2322.09
 L -145.314,-2322.01 L 145.314,-2322.01 L 145.937,-2322.09 L 146.545,-2322.24 L 147.129,-2322.48 L 147.679,-2322.78
 L 148.187,-2323.15 L 148.645,-2323.58 L 149.045,-2324.06 L 149.382,-2324.59 L 149.649,-2325.16 L 149.843,-2325.76
 L 149.961,-2326.37 L 150,-2327 L 150,-2617 L 149.961,-2617.63 L 149.843,-2618.24 L 149.649,-2618.84
 L 149.382,-2619.41 L 149.045,-2619.94 L 148.645,-2620.42 L 148.187,-2620.85 L 147.679,-2621.22 L 147.129,-2621.52
 L 146.545,-2621.76 L 145.937,-2621.91 L 145.314,-2621.99 L -145.314,-2621.99 L -145.937,-2621.91 L -146.545,-2621.76
 L -147.129,-2621.52 L -147.679,-2621.22 L -148.187,-2620.85 L -148.5,-2620.56 L -148.5,-2621.99 L -151.5,-2621.99
 L -151.5,-2322.01 L -148.5,-2322.01 z
M -144.751,-2323.51 L -145.25,-2323.57 L -145.736,-2323.7 L -146.203,-2323.88 L -146.643,-2324.12 L -147.05,-2324.42
 L -147.416,-2324.76 L -147.736,-2325.15 L -148.005,-2325.57 L -148.219,-2326.03 L -148.374,-2326.51 L -148.468,-2327
 L -148.5,-2327.5 L -148.5,-2616.5 L -148.468,-2617 L -148.374,-2617.49 L -148.219,-2617.97 L -148.005,-2618.43
 L -147.736,-2618.85 L -147.416,-2619.24 L -147.05,-2619.58 L -146.643,-2619.88 L -146.203,-2620.12 L -145.736,-2620.3
 L -145.25,-2620.43 L -144.751,-2620.49 L 144.751,-2620.49 L 145.25,-2620.43 L 145.736,-2620.3 L 146.203,-2620.12
 L 146.643,-2619.88 L 147.05,-2619.58 L 147.416,-2619.24 L 147.736,-2618.85 L 148.005,-2618.43 L 148.219,-2617.97
 L 148.374,-2617.49 L 148.468,-2617 L 148.5,-2616.5 L 148.5,-2327.5 L 148.468,-2327 L 148.374,-2326.51
 L 148.219,-2326.03 L 148.005,-2325.57 L 147.736,-2325.15 L 147.416,-2324.76 L 147.05,-2324.42 L 146.643,-2324.12
 L 146.203,-2323.88 L 145.736,-2323.7 L 145.25,-2323.57 L 144.751,-2323.51 z
M -148.5,-2014.44 L -148.187,-2014.15 L -147.679,-2013.78 L -147.129,-2013.48 L -146.545,-2013.24 L -145.937,-2013.09
 L -145.314,-2013.01 L 145.314,-2013.01 L 145.937,-2013.09 L 146.545,-2013.24 L 147.129,-2013.48 L 147.679,-2013.78
 L 148.187,-2014.15 L 148.645,-2014.58 L 149.045,-2015.06 L 149.382,-2015.59 L 149.649,-2016.16 L 149.843,-2016.76
 L 149.961,-2017.37 L 150,-2018 L 150,-2308 L 149.961,-2308.63 L 149.843,-2309.24 L 149.649,-2309.84
 L 149.382,-2310.41 L 149.045,-2310.94 L 148.645,-2311.42 L 148.187,-2311.85 L 147.679,-2312.22 L 147.129,-2312.52
 L 146.545,-2312.76 L 145.937,-2312.91 L 145.314,-2312.99 L -145.314,-2312.99 L -145.937,-2312.91 L -146.545,-2312.76
 L -147.129,-2312.52 L -147.679,-2312.22 L -148.187,-2311.85 L -148.5,-2311.56 L -148.5,-2312.99 L -151.5,-2312.99
 L -151.5,-2013.01 L -148.5,-2013.01 z
M -144.751,-2014.51 L -145.25,-2014.57 L -145.736,-2014.7 L -146.203,-2014.88 L -146.643,-2015.12 L -147.05,-2015.42
 L -147.416,-2015.76 L -147.736,-2016.15 L -148.005,-2016.57 L -148.219,-2017.03 L -148.374,-2017.51 L -148.468,-2018
 L -148.5,-2018.5 L -148.5,-2307.5 L -148.468,-2308 L -148.374,-2308.49 L -148.219,-2308.97 L -148.005,-2309.43
 L -147.736,-2309.85 L -147.416,-2310.24 L -147.05,-2310.58 L -146.643,-2310.88 L -146.203,-2311.12 L -145.736,-2311.3
 L -145.25,-2311.43 L -144.751,-2311.49 L 144.751,-2311.49 L 145.25,-2311.43 L 145.736,-2311.3 L 146.203,-2311.12
 L 146.643,-2310.88 L 147.05,-2310.58 L 147.416,-2310.24 L 147.736,-2309.85 L 148.005,-2309.43 L 148.219,-2308.97
 L 148.374,-2308.49 L 148.468,-2308 L 148.5,-2307.5 L 148.5,-2018.5 L 148.468,-2018 L 148.374,-2017.51
 L 148.219,-2017.03 L 148.005,-2016.57 L 147.736,-2016.15 L 147.416,-2015.76 L 147.05,-2015.42 L 146.643,-2015.12
 L 146.203,-2014.88 L 145.736,-2014.7 L 145.25,-2014.57 L 144.751,-2014.51 z
M -148.5,-1705.44 L -148.187,-1705.15 L -147.679,-1704.78 L -147.129,-1704.48 L -146.545,-1704.24 L -145.937,-1704.09
 L -145.314,-1704.01 L 145.314,-1704.01 L 145.937,-1704.09 L 146.545,-1704.24 L 147.129,-1704.48 L 147.679,-1704.78
 L 148.187,-1705.15 L 148.645,-1705.58 L 149.045,-1706.06 L 149.382,-1706.59 L 149.649,-1707.16 L 149.843,-1707.76
 L 149.961,-1708.37 L 150,-1709 L 150,-1999 L 149.961,-1999.63 L 149.843,-2000.24 L 149.649,-2000.84
 L 149.382,-2001.41 L 149.045,-2001.94 L 148.645,-2002.42 L 148.187,-2002.85 L 147.679,-2003.22 L 147.129,-2003.52
 L 146.545,-2003.76 L 145.937,-2003.91 L 145.314,-2003.99 L -145.314,-2003.99 L -145.937,-2003.91 L -146.545,-2003.76
 L -147.129,-2003.52 L -147.679,-2003.22 L -148.187,-2002.85 L -148.5,-2002.56 L -148.5,-2003.99 L -151.5,-2003.99
 L -151.5,-1704.01 L -148.5,-1704.01 z
M -144.743,-1705.64 L -145.226,-1705.7 L -145.697,-1705.82 L -146.149,-1706 L -146.575,-1706.23 L -146.969,-1706.52
 L -147.323,-1706.85 L -147.633,-1707.22 L -147.894,-1707.63 L -148.101,-1708.07 L -148.251,-1708.54 L -148.342,-1709.01
 L -148.373,-1709.5 L -148.373,-1998.5 L -148.342,-1998.99 L -148.251,-1999.46 L -148.101,-1999.93 L -147.894,-2000.37
 L -147.633,-2000.78 L -147.323,-2001.15 L -146.969,-2001.48 L -146.575,-2001.77 L -146.149,-2002 L -145.697,-2002.18
 L -145.226,-2002.3 L -144.743,-2002.36 L 144.743,-2002.36 L 145.226,-2002.3 L 145.697,-2002.18 L 146.149,-2002
 L 146.575,-2001.77 L 146.969,-2001.48 L 147.323,-2001.15 L 147.633,-2000.78 L 147.894,-2000.37 L 148.101,-1999.93
 L 148.251,-1999.46 L 148.342,-1998.99 L 148.373,-1998.5 L 148.373,-1709.5 L 148.342,-1709.01 L 148.251,-1708.54
 L 148.101,-1708.07 L 147.894,-1707.63 L 147.633,-1707.22 L 147.323,-1706.85 L 146.969,-1706.52 L 146.575,-1706.23
 L 146.149,-1706 L 145.697,-1705.82 L 145.226,-1705.7 L 144.743,-1705.64 z
M 145.937,-1395.09 L 146.545,-1395.24 L 147.129,-1395.48 L 147.679,-1395.78 L 148.187,-1396.15 L 148.645,-1396.58
 L 149.045,-1397.06 L 149.382,-1397.59 L 149.649,-1398.16 L 149.843,-1398.76 L 149.961,-1399.37 L 150,-1400
 L 150,-1690 L 149.961,-1690.63 L 149.843,-1691.24 L 149.649,-1691.84 L 149.382,-1692.41 L 149.045,-1692.94
 L 148.645,-1693.42 L 148.187,-1693.85 L 147.679,-1694.22 L 147.129,-1694.52 L 146.545,-1694.76 L 145.937,-1694.91
 L 145.314,-1694.99 L -145.314,-1694.99 L -145.937,-1694.91 L -146.545,-1694.76 L -147.129,-1694.52 L -147.679,-1694.22
 L -148.187,-1693.85 L -148.5,-1693.56 L -148.5,-1694.61 L -151.5,-1694.61 L -151.5,-1395.39 L -148.5,-1395.39
 L -148.5,-1396.44 L -148.187,-1396.15 L -147.679,-1395.78 L -147.129,-1395.48 L -146.545,-1395.24 L -145.937,-1395.09
 L -145.314,-1395.01 L 145.314,-1395.01 z
M 142.349,-1685.1 L 142.05,-1685.14 L 141.758,-1685.22 L 141.478,-1685.33 L 141.214,-1685.47 L 140.97,-1685.65
 L 140.75,-1685.86 L 140.558,-1686.09 L 140.397,-1686.34 L 140.269,-1686.62 L 140.175,-1686.9 L 140.119,-1687.2
 L 140.1,-1687.5 L 140.119,-1687.8 L 140.175,-1688.1 L 140.269,-1688.38 L 140.397,-1688.66 L 140.558,-1688.91
 L 140.75,-1689.14 L 140.97,-1689.35 L 141.214,-1689.53 L 141.478,-1689.67 L 141.758,-1689.78 L 142.05,-1689.86
 L 142.349,-1689.9 L 142.651,-1689.9 L 142.95,-1689.86 L 143.242,-1689.78 L 143.522,-1689.67 L 143.786,-1689.53
 L 144.03,-1689.35 L 144.25,-1689.14 L 144.442,-1688.91 L 144.603,-1688.66 L 144.731,-1688.38 L 144.825,-1688.1
 L 144.881,-1687.8 L 144.9,-1687.5 L 144.881,-1687.2 L 144.825,-1686.9 L 144.731,-1686.62 L 144.603,-1686.34
 L 144.442,-1686.09 L 144.25,-1685.86 L 144.03,-1685.65 L 143.786,-1685.47 L 143.522,-1685.33 L 143.242,-1685.22
 L 142.95,-1685.14 L 142.651,-1685.1 z
M -142.651,-1685.1 L -142.95,-1685.14 L -143.242,-1685.22 L -143.522,-1685.33 L -143.786,-1685.47 L -144.03,-1685.65
 L -144.25,-1685.86 L -144.442,-1686.09 L -144.603,-1686.34 L -144.731,-1686.62 L -144.825,-1686.9 L -144.881,-1687.2
 L -144.9,-1687.5 L -144.881,-1687.8 L -144.825,-1688.1 L -144.731,-1688.38 L -144.603,-1688.66 L -144.442,-1688.91
 L -144.25,-1689.14 L -144.03,-1689.35 L -143.786,-1689.53 L -143.522,-1689.67 L -143.242,-1689.78 L -142.95,-1689.86
 L -142.651,-1689.9 L -142.349,-1689.9 L -142.05,-1689.86 L -141.758,-1689.78 L -141.478,-1689.67 L -141.214,-1689.53
 L -140.97,-1689.35 L -140.75,-1689.14 L -140.558,-1688.91 L -140.397,-1688.66 L -140.269,-1688.38 L -140.175,-1688.1
 L -140.119,-1687.8 L -140.1,-1687.5 L -140.119,-1687.2 L -140.175,-1686.9 L -140.269,-1686.62 L -140.397,-1686.34
 L -140.558,-1686.09 L -140.75,-1685.86 L -140.97,-1685.65 L -141.214,-1685.47 L -141.478,-1685.33 L -141.758,-1685.22
 L -142.05,-1685.14 L -142.349,-1685.1 z
M -142.651,-1400.1 L -142.95,-1400.14 L -143.242,-1400.22 L -143.522,-1400.33 L -143.786,-1400.47 L -144.03,-1400.65
 L -144.25,-1400.86 L -144.442,-1401.09 L -144.603,-1401.34 L -144.731,-1401.62 L -144.825,-1401.9 L -144.881,-1402.2
 L -144.9,-1402.5 L -144.881,-1402.8 L -144.825,-1403.1 L -144.731,-1403.38 L -144.603,-1403.66 L -144.442,-1403.91
 L -144.25,-1404.14 L -144.03,-1404.35 L -143.786,-1404.53 L -143.522,-1404.67 L -143.242,-1404.78 L -142.95,-1404.86
 L -142.651,-1404.9 L -142.349,-1404.9 L -142.05,-1404.86 L -141.758,-1404.78 L -141.478,-1404.67 L -141.214,-1404.53
 L -140.97,-1404.35 L -140.75,-1404.14 L -140.558,-1403.91 L -140.397,-1403.66 L -140.269,-1403.38 L -140.175,-1403.1
 L -140.119,-1402.8 L -140.1,-1402.5 L -140.119,-1402.2 L -140.175,-1401.9 L -140.269,-1401.62 L -140.397,-1401.34
 L -140.558,-1401.09 L -140.75,-1400.86 L -140.97,-1400.65 L -141.214,-1400.47 L -141.478,-1400.33 L -141.758,-1400.22
 L -142.05,-1400.14 L -142.349,-1400.1 z
M 142.349,-1400.1 L 142.05,-1400.14 L 141.758,-1400.22 L 141.478,-1400.33 L 141.214,-1400.47 L 140.97,-1400.65
 L 140.75,-1400.86 L 140.558,-1401.09 L 140.397,-1401.34 L 140.269,-1401.62 L 140.175,-1401.9 L 140.119,-1402.2
 L 140.1,-1402.5 L 140.119,-1402.8 L 140.175,-1403.1 L 140.269,-1403.38 L 140.397,-1403.66 L 140.558,-1403.91
 L 140.75,-1404.14 L 140.97,-1404.35 L 141.214,-1404.53 L 141.478,-1404.67 L 141.758,-1404.78 L 142.05,-1404.86
 L 142.349,-1404.9 L 142.651,-1404.9 L 142.95,-1404.86 L 143.242,-1404.78 L 143.522,-1404.67 L 143.786,-1404.53
 L 144.03,-1404.35 L 144.25,-1404.14 L 144.442,-1403.91 L 144.603,-1403.66 L 144.731,-1403.38 L 144.825,-1403.1
 L 144.881,-1402.8 L 144.9,-1402.5 L 144.881,-1402.2 L 144.825,-1401.9 L 144.731,-1401.62 L 144.603,-1401.34
 L 144.442,-1401.09 L 144.25,-1400.86 L 144.03,-1400.65 L 143.786,-1400.47 L 143.522,-1400.33 L 143.242,-1400.22
 L 142.95,-1400.14 L 142.651,-1400.1 z
M 145.937,-1086.09 L 146.545,-1086.24 L 147.129,-1086.48 L 147.679,-1086.78 L 148.187,-1087.15 L 148.645,-1087.58
 L 149.045,-1088.06 L 149.382,-1088.59 L 149.649,-1089.16 L 149.843,-1089.76 L 149.961,-1090.37 L 150,-1091
 L 150,-1381 L 149.961,-1381.63 L 149.843,-1382.24 L 149.649,-1382.84 L 149.382,-1383.41 L 149.045,-1383.94
 L 148.645,-1384.42 L 148.187,-1384.85 L 147.679,-1385.22 L 147.129,-1385.52 L 146.545,-1385.76 L 145.937,-1385.91
 L 145.314,-1385.99 L -145.314,-1385.99 L -145.937,-1385.91 L -146.545,-1385.76 L -147.129,-1385.52 L -147.679,-1385.22
 L -148.187,-1384.85 L -148.645,-1384.42 L -149.045,-1383.94 L -149.382,-1383.41 L -149.649,-1382.84 L -149.843,-1382.24
 L -149.9,-1381.94 L -151.5,-1381.94 L -151.5,-1090.06 L -149.9,-1090.06 L -149.843,-1089.76 L -149.649,-1089.16
 L -149.382,-1088.59 L -149.045,-1088.06 L -148.645,-1087.58 L -148.187,-1087.15 L -147.679,-1086.78 L -147.129,-1086.48
 L -146.545,-1086.24 L -145.937,-1086.09 L -145.314,-1086.01 L 145.314,-1086.01 z
M 142.387,-1376.7 L 142.163,-1376.73 L 141.944,-1376.79 L 141.734,-1376.87 L 141.536,-1376.98 L 141.353,-1377.11
 L 141.188,-1377.27 L 141.044,-1377.44 L 140.923,-1377.63 L 140.826,-1377.84 L 140.757,-1378.05 L 140.714,-1378.27
 L 140.7,-1378.5 L 140.714,-1378.73 L 140.757,-1378.95 L 140.826,-1379.16 L 140.923,-1379.37 L 141.044,-1379.56
 L 141.188,-1379.73 L 141.353,-1379.89 L 141.536,-1380.02 L 141.734,-1380.13 L 141.944,-1380.21 L 142.163,-1380.27
 L 142.387,-1380.3 L 142.613,-1380.3 L 142.837,-1380.27 L 143.056,-1380.21 L 143.266,-1380.13 L 143.464,-1380.02
 L 143.647,-1379.89 L 143.812,-1379.73 L 143.956,-1379.56 L 144.077,-1379.37 L 144.174,-1379.16 L 144.243,-1378.95
 L 144.286,-1378.73 L 144.3,-1378.5 L 144.286,-1378.27 L 144.243,-1378.05 L 144.174,-1377.84 L 144.077,-1377.63
 L 143.956,-1377.44 L 143.812,-1377.27 L 143.647,-1377.11 L 143.464,-1376.98 L 143.266,-1376.87 L 143.056,-1376.79
 L 142.837,-1376.73 L 142.613,-1376.7 z
M -142.613,-1376.7 L -142.837,-1376.73 L -143.056,-1376.79 L -143.266,-1376.87 L -143.464,-1376.98 L -143.647,-1377.11
 L -143.812,-1377.27 L -143.956,-1377.44 L -144.077,-1377.63 L -144.174,-1377.84 L -144.243,-1378.05 L -144.286,-1378.27
 L -144.3,-1378.5 L -144.286,-1378.73 L -144.243,-1378.95 L -144.174,-1379.16 L -144.077,-1379.37 L -143.956,-1379.56
 L -143.812,-1379.73 L -143.647,-1379.89 L -143.464,-1380.02 L -143.266,-1380.13 L -143.056,-1380.21 L -142.837,-1380.27
 L -142.613,-1380.3 L -142.387,-1380.3 L -142.163,-1380.27 L -141.944,-1380.21 L -141.734,-1380.13 L -141.536,-1380.02
 L -141.353,-1379.89 L -141.188,-1379.73 L -141.044,-1379.56 L -140.923,-1379.37 L -140.826,-1379.16 L -140.757,-1378.95
 L -140.714,-1378.73 L -140.7,-1378.5 L -140.714,-1378.27 L -140.757,-1378.05 L -140.826,-1377.84 L -140.923,-1377.63
 L -141.044,-1377.44 L -141.188,-1377.27 L -141.353,-1377.11 L -141.536,-1376.98 L -141.734,-1376.87 L -141.944,-1376.79
 L -142.163,-1376.73 L -142.387,-1376.7 z
M -142.613,-1091.7 L -142.837,-1091.73 L -143.056,-1091.79 L -143.266,-1091.87 L -143.464,-1091.98 L -143.647,-1092.11
 L -143.812,-1092.27 L -143.956,-1092.44 L -144.077,-1092.63 L -144.174,-1092.84 L -144.243,-1093.05 L -144.286,-1093.27
 L -144.3,-1093.5 L -144.286,-1093.73 L -144.243,-1093.95 L -144.174,-1094.16 L -144.077,-1094.37 L -143.956,-1094.56
 L -143.812,-1094.73 L -143.647,-1094.89 L -143.464,-1095.02 L -143.266,-1095.13 L -143.056,-1095.21 L -142.837,-1095.27
 L -142.613,-1095.3 L -142.387,-1095.3 L -142.163,-1095.27 L -141.944,-1095.21 L -141.734,-1095.13 L -141.536,-1095.02
 L -141.353,-1094.89 L -141.188,-1094.73 L -141.044,-1094.56 L -140.923,-1094.37 L -140.826,-1094.16 L -140.757,-1093.95
 L -140.714,-1093.73 L -140.7,-1093.5 L -140.714,-1093.27 L -140.757,-1093.05 L -140.826,-1092.84 L -140.923,-1092.63
 L -141.044,-1092.44 L -141.188,-1092.27 L -141.353,-1092.11 L -141.536,-1091.98 L -141.734,-1091.87 L -141.944,-1091.79
 L -142.163,-1091.73 L -142.387,-1091.7 z
M 142.387,-1091.7 L 142.163,-1091.73 L 141.944,-1091.79 L 141.734,-1091.87 L 141.536,-1091.98 L 141.353,-1092.11
 L 141.188,-1092.27 L 141.044,-1092.44 L 140.923,-1092.63 L 140.826,-1092.84 L 140.757,-1093.05 L 140.714,-1093.27
 L 140.7,-1093.5 L 140.714,-1093.73 L 140.757,-1093.95 L 140.826,-1094.16 L 140.923,-1094.37 L 141.044,-1094.56
 L 141.188,-1094.73 L 141.353,-1094.89 L 141.536,-1095.02 L 141.734,-1095.13 L 141.944,-1095.21 L 142.163,-1095.27
 L 142.387,-1095.3 L 142.613,-1095.3 L 142.837,-1095.27 L 143.056,-1095.21 L 143.266,-1095.13 L 143.464,-1095.02
 L 143.647,-1094.89 L 143.812,-1094.73 L 143.956,-1094.56 L 144.077,-1094.37 L 144.174,-1094.16 L 144.243,-1093.95
 L 144.286,-1093.73 L 144.3,-1093.5 L 144.286,-1093.27 L 144.243,-1093.05 L 144.174,-1092.84 L 144.077,-1092.63
 L 143.956,-1092.44 L 143.812,-1092.27 L 143.647,-1092.11 L 143.464,-1091.98 L 143.266,-1091.87 L 143.056,-1091.79
 L 142.837,-1091.73 L 142.613,-1091.7 z
" stroke="black" fill="lightgray" stroke-width="0.5"/>
</svg>
