<?xml version="1.0" standalone="no"?>
<!DOCTYPE svg PUBLIC "-//W3C//DTD SVG 1.1//EN" "http://www.w3.org/Graphics/SVG/1.1/DTD/svg11.dtd">
<svg width="242mm" height="1012mm" viewBox="-122 -1934 242 1012" xmlns="http://www.w3.org/2000/svg" version="1.1">
<title>OpenSCAD Model</title>
<path d="
M -118.5,-1739.94 L -118.187,-1739.65 L -117.679,-1739.28 L -117.129,-1738.98 L -116.545,-1738.74 L -115.937,-1738.59
 L -115.314,-1738.51 L 115.314,-1738.51 L 115.937,-1738.59 L 116.545,-1738.74 L 117.129,-1738.98 L 117.679,-1739.28
 L 118.187,-1739.65 L 118.645,-1740.08 L 119.045,-1740.56 L 119.382,-1741.09 L 119.649,-1741.66 L 119.843,-1742.26
 L 119.961,-1742.87 L 120,-1743.5 L 120,-1928.5 L 119.961,-1929.13 L 119.843,-1929.74 L 119.649,-1930.34
 L 119.382,-1930.91 L 119.045,-1931.44 L 118.645,-1931.92 L 118.187,-1932.35 L 117.679,-1932.72 L 117.129,-1933.02
 L 116.545,-1933.26 L 115.937,-1933.41 L 115.314,-1933.49 L -115.314,-1933.49 L -115.937,-1933.41 L -116.545,-1933.26
 L -117.129,-1933.02 L -117.679,-1932.72 L -118.187,-1932.35 L -118.5,-1932.06 L -118.5,-1933.49 L -121.5,-1933.49
 L -121.5,-1738.51 L -118.5,-1738.51 z
M -114.751,-1740.01 L -115.25,-1740.07 L -115.736,-1740.2 L -116.203,-1740.38 L -116.643,-1740.62 L -117.05,-1740.92
 L -117.416,-1741.26 L -117.736,-1741.65 L -118.005,-1742.07 L -118.219,-1742.53 L -118.374,-1743.01 L -118.468,-1743.5
 L -118.5,-1744 L -118.5,-1928 L -118.468,-1928.5 L -118.374,-1928.99 L -118.219,-1929.47 L -118.005,-1929.93
 L -117.736,-1930.35 L -117.416,-1930.74 L -117.05,-1931.08 L -116.643,-1931.38 L -116.203,-1931.62 L -115.736,-1931.8
 L -115.25,-1931.93 L -114.751,-1931.99 L 114.751,-1931.99 L 115.25,-1931.93 L 115.736,-1931.8 L 116.203,-1931.62
 L 116.643,-1931.38 L 117.05,-1931.08 L 117.416,-1930.74 L 117.736,-1930.35 L 118.005,-1929.93 L 118.219,-1929.47
 L 118.374,-1928.99 L 118.468,-1928.5 L 118.5,-1928 L 118.5,-1744 L 118.468,-1743.5 L 118.374,-1743.01
 L 118.219,-1742.53 L 118.005,-1742.07 L 117.736,-1741.65 L 117.416,-1741.26 L 117.05,-1740.92 L 116.643,-1740.62
 L 116.203,-1740.38 L 115.736,-1740.2 L 115.25,-1740.07 L 114.751,-1740.01 z
M -118.5,-1535.94 L -118.187,-1535.65 L -117.679,-1535.28 L -117.129,-1534.98 L -116.545,-1534.74 L -115.937,-1534.59
 L -115.314,-1534.51 L 115.314,-1534.51 L 115.937,-1534.59 L 116.545,-1534.74 L 117.129,-1534.98 L 117.679,-1535.28
 L 118.187,-1535.65 L 118.645,-1536.08 L 119.045,-1536.56 L 119.382,-1537.09 L 119.649,-1537.66 L 119.843,-1538.26
 L 119.961,-1538.87 L 120,-1539.5 L 120,-1724.5 L 119.961,-1725.13 L 119.843,-1725.74 L 119.649,-1726.34
 L 119.382,-1726.91 L 119.045,-1727.44 L 118.645,-1727.92 L 118.187,-1728.35 L 117.679,-1728.72 L 117.129,-1729.02
 L 116.545,-1729.26 L 115.937,-1729.41 L 115.314,-1729.49 L -115.314,-1729.49 L -115.937,-1729.41 L -116.545,-1729.26
 L -117.129,-1729.02 L -117.679,-1728.72 L -118.187,-1728.35 L -118.5,-1728.06 L -118.5,-1729.49 L -121.5,-1729.49
 L -121.5,-1534.51 L -118.5,-1534.51 z
M -114.751,-1536.01 L -115.25,-1536.07 L -115.736,-1536.2 L -116.203,-1536.38 L -116.643,-1536.62 L -117.05,-1536.92
 L -117.416,-1537.26 L -117.736,-1537.65 L -118.005,-1538.07 L -118.219,-1538.53 L -118.374,-1539.01 L -118.468,-1539.5
 L -118.5,-1540 L -118.5,-1724 L -118.468,-1724.5 L -118.374,-1724.99 L -118.219,-1725.47 L -118.005,-1725.93
 L -117.736,-1726.35 L -117.416,-1726.74 L -117.05,-1727.08 L -116.643,-1727.38 L -116.203,-1727.62 L -115.736,-1727.8
 L -115.25,-1727.93 L -114.751,-1727.99 L 114.751,-1727.99 L 115.25,-1727.93 L 115.736,-1727.8 L 116.203,-1727.62
 L 116.643,-1727.38 L 117.05,-1727.08 L 117.416,-1726.74 L 117.736,-1726.35 L 118.005,-1725.93 L 118.219,-1725.47
 L 118.374,-1724.99 L 118.468,-1724.5 L 118.5,-1724 L 118.5,-1540 L 118.468,-1539.5 L 118.374,-1539.01
 L 118.219,-1538.53 L 118.005,-1538.07 L 117.736,-1537.65 L 117.416,-1537.26 L 117.05,-1536.92 L 116.643,-1536.62
 L 116.203,-1536.38 L 115.736,-1536.2 L 115.25,-1536.07 L 114.751,-1536.01 z
M -118.5,-1331.94 L -118.187,-1331.65 L -117.679,-1331.28 L -117.129,-1330.98 L -116.545,-1330.74 L -115.937,-1330.59
 L -115.314,-1330.51 L 115.314,-1330.51 L 115.937,-1330.59 L 116.545,-1330.74 L 117.129,-1330.98 L 117.679,-1331.28
 L 118.187,-1331.65 L 118.645,-1332.08 L 119.045,-1332.56 L 119.382,-1333.09 L 119.649,-1333.66 L 119.843,-1334.26
 L 119.961,-1334.87 L 120,-1335.5 L 120,-1520.5 L 119.961,-1521.13 L 119.843,-1521.74 L 119.649,-1522.34
 L 119.382,-1522.91 L 119.045,-1523.44 L 118.645,-1523.92 L 118.187,-1524.35 L 117.679,-1524.72 L 117.129,-1525.02
 L 116.545,-1525.26 L 115.937,-1525.41 L 115.314,-1525.49 L -115.314,-1525.49 L -115.937,-1525.41 L -116.545,-1525.26
 L -117.129,-1525.02 L -117.679,-1524.72 L -118.187,-1524.35 L -118.5,-1524.06 L -118.5,-1525.49 L -121.5,-1525.49
 L -121.5,-1330.51 L -118.5,-1330.51 z
M -114.751,-1332.01 L -115.25,-1332.07 L -115.736,-1332.2 L -116.203,-1332.38 L -116.643,-1332.62 L -117.05,-1332.92
 L -117.416,-1333.26 L -117.736,-1333.65 L -118.005,-1334.07 L -118.219,-1334.53 L -118.374,-1335.01 L -118.468,-1335.5
 L -118.5,-1336 L -118.5,-1520 L -118.468,-1520.5 L -118.374,-1520.99 L -118.219,-1521.47 L -118.005,-1521.93
 L -117.736,-1522.35 L -117.416,-1522.74 L -117.05,-1523.08 L -116.643,-1523.38 L -116.203,-1523.62 L -115.736,-1523.8
 L -115.25,-1523.93 L -114.751,-1523.99 L 114.751,-1523.99 L 115.25,-1523.93 L 115.736,-1523.8 L 116.203,-1523.62
 L 116.643,-1523.38 L 117.05,-1523.08 L 117.416,-1522.74 L 117.736,-1522.35 L 118.005,-1521.93 L 118.219,-1521.47
 L 118.374,-1520.99 L 118.468,-1520.5 L 118.5,-1520 L 118.5,-1336 L 118.468,-1335.5 L 118.374,-1335.01
 L 118.219,-1334.53 L 118.005,-1334.07 L 117.736,-1333.65 L 117.416,-1333.26 L 117.05,-1332.92 L 116.643,-1332.62
 L 116.203,-1332.38 L 115.736,-1332.2 L 115.25,-1332.07 L 114.751,-1332.01 z
M 115.937,-1126.59 L 116.545,-1126.74 L 117.129,-1126.98 L 117.679,-1127.28 L 118.187,-1127.65 L 118.645,-1128.08
 L 119.045,-1128.56 L 119.382,-1129.09 L 119.649,-1129.66 L 119.843,-1130.26 L 119.961,-1130.87 L 120,-1131.5
 L 120,-1316.5 L 119.961,-1317.13 L 119.843,-1317.74 L 119.649,-1318.34 L 119.382,-1318.91 L 119.045,-1319.44
 L 118.645,-1319.92 L 118.187,-1320.35 L 117.679,-1320.72 L 117.129,-1321.02 L 116.545,-1321.26 L 115.937,-1321.41
 L 115.314,-1321.49 L -115.314,-1321.49 L -115.937,-1321.41 L -116.545,-1321.26 L -117.129,-1321.02 L -117.679,-1320.72
 L -118.187,-1320.35 L -118.5,-1320.06 L -118.5,-1321.48 L -121.5,-1321.48 L -121.5,-1126.52 L -118.5,-1126.52
 L -118.5,-1127.94 L -118.187,-1127.65 L -117.679,-1127.28 L -117.129,-1126.98 L -116.545,-1126.74 L -115.937,-1126.59
 L -115.314,-1126.51 L 115.314,-1126.51 z
M -114.695,-1128.89 L -115.083,-1128.94 L -115.462,-1129.04 L -115.825,-1129.18 L -116.168,-1129.37 L -116.484,-1129.6
 L -116.769,-1129.87 L -117.018,-1130.17 L -117.228,-1130.5 L -117.394,-1130.85 L -117.515,-1131.23 L -117.588,-1131.61
 L -117.613,-1132 L -117.613,-1316 L -117.588,-1316.39 L -117.515,-1316.77 L -117.394,-1317.15 L -117.228,-1317.5
 L -117.018,-1317.83 L -116.769,-1318.13 L -116.484,-1318.4 L -116.168,-1318.63 L -115.825,-1318.82 L -115.462,-1318.96
 L -115.083,-1319.06 L -114.695,-1319.11 L 114.695,-1319.11 L 115.083,-1319.06 L 115.462,-1318.96 L 115.825,-1318.82
 L 116.168,-1318.63 L 116.484,-1318.4 L 116.769,-1318.13 L 117.018,-1317.83 L 117.228,-1317.5 L 117.394,-1317.15
 L 117.515,-1316.77 L 117.588,-1316.39 L 117.613,-1316 L 117.613,-1132 L 117.588,-1131.61 L 117.515,-1131.23
 L 117.394,-1130.85 L 117.228,-1130.5 L 117.018,-1130.17 L 116.769,-1129.87 L 116.484,-1129.6 L 116.168,-1129.37
 L 115.825,-1129.18 L 115.462,-1129.04 L 115.083,-1128.94 L 114.695,-1128.89 z
M 115.937,-922.589 L 116.545,-922.745 L 117.129,-922.976 L 117.679,-923.278 L 118.187,-923.647 L 118.645,-924.077
 L 119.045,-924.561 L 119.382,-925.091 L 119.649,-925.659 L 119.843,-926.257 L 119.961,-926.873 L 120,-927.5
 L 120,-1112.5 L 119.961,-1113.13 L 119.843,-1113.74 L 119.649,-1114.34 L 119.382,-1114.91 L 119.045,-1115.44
 L 118.645,-1115.92 L 118.187,-1116.35 L 117.679,-1116.72 L 117.129,-1117.02 L 116.545,-1117.26 L 115.937,-1117.41
 L 115.314,-1117.49 L -115.314,-1117.49 L -115.937,-1117.41 L -116.545,-1117.26 L -117.129,-1117.02 L -117.679,-1116.72
 L -118.187,-1116.35 L -118.5,-1116.06 L -118.5,-1116.15 L -121.5,-1116.15 L -121.5,-923.847 L -118.5,-923.847
 L -118.5,-923.941 L -118.187,-923.647 L -117.679,-923.278 L -117.129,-922.976 L -116.545,-922.745 L -115.937,-922.589
 L -115.314,-922.51 L 115.314,-922.51 z
M -112.634,-1107.87 L -112.9,-1107.9 L -113.16,-1107.97 L -113.409,-1108.07 L -113.644,-1108.2 L -113.861,-1108.35
 L -114.057,-1108.54 L -114.227,-1108.74 L -114.371,-1108.97 L -114.485,-1109.21 L -114.568,-1109.47 L -114.618,-1109.73
 L -114.635,-1110 L -114.618,-1110.27 L -114.568,-1110.53 L -114.485,-1110.79 L -114.371,-1111.03 L -114.227,-1111.26
 L -114.057,-1111.46 L -113.861,-1111.65 L -113.644,-1111.8 L -113.409,-1111.93 L -113.16,-1112.03 L -112.9,-1112.1
 L -112.634,-1112.13 L -112.366,-1112.13 L -112.1,-1112.1 L -111.84,-1112.03 L -111.591,-1111.93 L -111.356,-1111.8
 L -111.139,-1111.65 L -110.943,-1111.46 L -110.773,-1111.26 L -110.629,-1111.03 L -110.515,-1110.79 L -110.432,-1110.53
 L -110.382,-1110.27 L -110.365,-1110 L -110.382,-1109.73 L -110.432,-1109.47 L -110.515,-1109.21 L -110.629,-1108.97
 L -110.773,-1108.74 L -110.943,-1108.54 L -111.139,-1108.35 L -111.356,-1108.2 L -111.591,-1108.07 L -111.84,-1107.97
 L -112.1,-1107.9 L -112.366,-1107.87 z
M 112.366,-1107.87 L 112.1,-1107.9 L 111.84,-1107.97 L 111.591,-1108.07 L 111.356,-1108.2 L 111.139,-1108.35
 L 110.943,-1108.54 L 110.773,-1108.74 L 110.629,-1108.97 L 110.515,-1109.21 L 110.432,-1109.47 L 110.382,-1109.73
 L 110.365,-1110 L 110.382,-1110.27 L 110.432,-1110.53 L 110.515,-1110.79 L 110.629,-1111.03 L 110.773,-1111.26
 L 110.943,-1111.46 L 111.139,-1111.65 L 111.356,-1111.8 L 111.591,-1111.93 L 111.84,-1112.03 L 112.1,-1112.1
 L 112.366,-1112.13 L 112.634,-1112.13 L 112.9,-1112.1 L 113.16,-1112.03 L 113.409,-1111.93 L 113.644,-1111.8
 L 113.861,-1111.65 L 114.057,-1111.46 L 114.227,-1111.26 L 114.371,-1111.03 L 114.485,-1110.79 L 114.568,-1110.53
 L 114.618,-1110.27 L 114.635,-1110 L 114.618,-1109.73 L 114.568,-1109.47 L 114.485,-1109.21 L 114.371,-1108.97
 L 114.227,-1108.74 L 114.057,-1108.54 L 113.861,-1108.35 L 113.644,-1108.2 L 113.409,-1108.07 L 113.16,-1107.97
 L 112.9,-1107.9 L 112.634,-1107.87 z
M -112.634,-927.869 L -112.9,-927.903 L -113.16,-927.969 L -113.409,-928.068 L -113.644,-928.197 L -113.861,-928.355
 L -114.057,-928.538 L -114.227,-928.745 L -114.371,-928.971 L -114.485,-929.214 L -114.568,-929.469 L -114.618,-929.732
 L -114.635,-930 L -114.618,-930.268 L -114.568,-930.531 L -114.485,-930.786 L -114.371,-931.029 L -114.227,-931.255
 L -114.057,-931.462 L -113.861,-931.645 L -113.644,-931.803 L -113.409,-931.932 L -113.16,-932.031 L -112.9,-932.097
 L -112.634,-932.131 L -112.366,-932.131 L -112.1,-932.097 L -111.84,-932.031 L -111.591,-931.932 L -111.356,-931.803
 L -111.139,-931.645 L -110.943,-931.462 L -110.773,-931.255 L -110.629,-931.029 L -110.515,-930.786 L -110.432,-930.531
 L -110.382,-930.268 L -110.365,-930 L -110.382,-929.732 L -110.432,-929.469 L -110.515,-929.214 L -110.629,-928.971
 L -110.773,-928.745 L -110.943,-928.538 L -111.139,-928.355 L -111.356,-928.197 L -111.591,-928.068 L -111.84,-927.969
 L -112.1,-927.903 L -112.366,-927.869 z
M 112.366,-927.869 L 112.1,-927.903 L 111.84,-927.969 L 111.591,-928.068 L 111.356,-928.197 L 111.139,-928.355
 L 110.943,-928.538 L 110.773,-928.745 L 110.629,-928.971 L 110.515,-929.214 L 110.432,-929.469 L 110.382,-929.732
 L 110.365,-930 L 110.382,-930.268 L 110.432,-930.531 L 110.515,-930.786 L 110.629,-931.029 L 110.773,-931.255
 L 110.943,-931.462 L 111.139,-931.645 L 111.356,-931.803 L 111.591,-931.932 L 111.84,-932.031 L 112.1,-932.097
 L 112.366,-932.131 L 112.634,-932.131 L 112.9,-932.097 L 113.16,-932.031 L 113.409,-931.932 L 113.644,-931.803
 L 113.861,-931.645 L 114.057,-931.462 L 114.227,-931.255 L 114.371,-931.029 L 114.485,-930.786 L 114.568,-930.531
 L 114.618,-930.268 L 114.635,-930 L 114.618,-929.732 L 114.568,-929.469 L 114.485,-929.214 L 114.371,-928.971
 L 114.227,-928.745 L 114.057,-928.538 L 113.861,-928.355 L 113.644,-928.197 L 113.409,-928.068 L 113.16,-927.969
 L 112.9,-927.903 L 112.634,-927.869 z
" stroke="black" fill="lightgray" stroke-width="0.5"/>
</svg>
