<?xml version="1.0" standalone="no"?>
<!DOCTYPE svg PUBLIC "-//W3C//DTD SVG 1.1//EN" "http://www.w3.org/Graphics/SVG/1.1/DTD/svg11.dtd">
<svg width="256mm" height="118mm" viewBox="-128 -232 256 118" xmlns="http://www.w3.org/2000/svg" version="1.1">
<title>OpenSCAD Model</title>
<path d="
M 123.437,-209.339 L 124.045,-209.495 L 124.629,-209.726 L 125.179,-210.028 L 125.687,-210.397 L 126.145,-210.827
 L 126.545,-211.311 L 126.882,-211.841 L 127.149,-212.409 L 127.343,-213.007 L 127.461,-213.623 L 127.5,-214.25
 L 127.5,-226.75 L 127.461,-227.377 L 127.343,-227.993 L 127.149,-228.591 L 126.882,-229.159 L 126.545,-229.689
 L 126.145,-230.173 L 125.687,-230.603 L 125.179,-230.972 L 124.629,-231.274 L 124.045,-231.505 L 123.437,-231.661
 L 122.814,-231.74 L -122.814,-231.74 L -123.437,-231.661 L -124.045,-231.505 L -124.629,-231.274 L -125.179,-230.972
 L -125.687,-230.603 L -126.145,-230.173 L -126.545,-229.689 L -126.882,-229.159 L -127.149,-228.591 L -127.343,-227.993
 L -127.461,-227.377 L -127.5,-226.75 L -127.5,-214.25 L -127.461,-213.623 L -127.343,-213.007 L -127.149,-212.409
 L -126.882,-211.841 L -126.545,-211.311 L -126.145,-210.827 L -125.687,-210.397 L -125.179,-210.028 L -124.629,-209.726
 L -124.045,-209.495 L -123.437,-209.339 L -122.814,-209.26 L 122.814,-209.26 z
M -122.548,-209.759 L -123.14,-209.834 L -123.718,-209.982 L -124.272,-210.202 L -124.795,-210.489 L -125.278,-210.84
 L -125.713,-211.248 L -126.093,-211.708 L -126.412,-212.212 L -126.666,-212.751 L -126.851,-213.319 L -126.963,-213.905
 L -127,-214.5 L -127,-226.5 L -126.963,-227.095 L -126.851,-227.681 L -126.666,-228.249 L -126.412,-228.788
 L -126.093,-229.292 L -125.713,-229.752 L -125.278,-230.16 L -124.795,-230.511 L -124.272,-230.798 L -123.718,-231.018
 L -123.14,-231.166 L -122.548,-231.241 L 122.548,-231.241 L 123.14,-231.166 L 123.718,-231.018 L 124.272,-230.798
 L 124.795,-230.511 L 125.278,-230.16 L 125.713,-229.752 L 126.093,-229.292 L 126.412,-228.788 L 126.666,-228.249
 L 126.851,-227.681 L 126.963,-227.095 L 127,-226.5 L 127,-214.5 L 126.963,-213.905 L 126.851,-213.319
 L 126.666,-212.751 L 126.412,-212.212 L 126.093,-211.708 L 125.713,-211.248 L 125.278,-210.84 L 124.795,-210.489
 L 124.272,-210.202 L 123.718,-209.982 L 123.14,-209.834 L 122.548,-209.759 z
M 123.437,-177.839 L 124.045,-177.995 L 124.629,-178.226 L 125.179,-178.528 L 125.687,-178.897 L 126.145,-179.327
 L 126.545,-179.811 L 126.882,-180.341 L 127.149,-180.909 L 127.343,-181.507 L 127.461,-182.123 L 127.5,-182.75
 L 127.5,-195.25 L 127.461,-195.877 L 127.343,-196.493 L 127.149,-197.091 L 126.882,-197.659 L 126.545,-198.189
 L 126.145,-198.673 L 125.687,-199.103 L 125.179,-199.472 L 124.629,-199.774 L 124.045,-200.005 L 123.437,-200.161
 L 122.814,-200.24 L -122.814,-200.24 L -123.437,-200.161 L -124.045,-200.005 L -124.629,-199.774 L -125.179,-199.472
 L -125.687,-199.103 L -126.145,-198.673 L -126.545,-198.189 L -126.882,-197.659 L -127.149,-197.091 L -127.343,-196.493
 L -127.461,-195.877 L -127.5,-195.25 L -127.5,-182.75 L -127.461,-182.123 L -127.343,-181.507 L -127.149,-180.909
 L -126.882,-180.341 L -126.545,-179.811 L -126.145,-179.327 L -125.687,-178.897 L -125.179,-178.528 L -124.629,-178.226
 L -124.045,-177.995 L -123.437,-177.839 L -122.814,-177.76 L 122.814,-177.76 z
M -122.548,-178.259 L -123.14,-178.334 L -123.718,-178.482 L -124.272,-178.702 L -124.795,-178.989 L -125.278,-179.34
 L -125.713,-179.748 L -126.093,-180.208 L -126.412,-180.712 L -126.666,-181.251 L -126.851,-181.819 L -126.963,-182.405
 L -127,-183 L -127,-195 L -126.963,-195.595 L -126.851,-196.181 L -126.666,-196.749 L -126.412,-197.288
 L -126.093,-197.792 L -125.713,-198.252 L -125.278,-198.66 L -124.795,-199.011 L -124.272,-199.298 L -123.718,-199.518
 L -123.14,-199.666 L -122.548,-199.741 L 122.548,-199.741 L 123.14,-199.666 L 123.718,-199.518 L 124.272,-199.298
 L 124.795,-199.011 L 125.278,-198.66 L 125.713,-198.252 L 126.093,-197.792 L 126.412,-197.288 L 126.666,-196.749
 L 126.851,-196.181 L 126.963,-195.595 L 127,-195 L 127,-183 L 126.963,-182.405 L 126.851,-181.819
 L 126.666,-181.251 L 126.412,-180.712 L 126.093,-180.208 L 125.713,-179.748 L 125.278,-179.34 L 124.795,-178.989
 L 124.272,-178.702 L 123.718,-178.482 L 123.14,-178.334 L 122.548,-178.259 z
M 123.437,-146.339 L 124.045,-146.495 L 124.629,-146.726 L 125.179,-147.028 L 125.687,-147.397 L 126.145,-147.827
 L 126.545,-148.311 L 126.882,-148.841 L 127.149,-149.409 L 127.343,-150.007 L 127.461,-150.623 L 127.5,-151.25
 L 127.5,-163.75 L 127.461,-164.377 L 127.343,-164.993 L 127.149,-165.591 L 126.882,-166.159 L 126.545,-166.689
 L 126.145,-167.173 L 125.687,-167.603 L 125.179,-167.972 L 124.629,-168.274 L 124.045,-168.505 L 123.437,-168.661
 L 122.814,-168.74 L -122.814,-168.74 L -123.437,-168.661 L -124.045,-168.505 L -124.629,-168.274 L -125.179,-167.972
 L -125.687,-167.603 L -126.145,-167.173 L -126.545,-166.689 L -126.882,-166.159 L -127.149,-165.591 L -127.343,-164.993
 L -127.461,-164.377 L -127.5,-163.75 L -127.5,-151.25 L -127.461,-150.623 L -127.343,-150.007 L -127.149,-149.409
 L -126.882,-148.841 L -126.545,-148.311 L -126.145,-147.827 L -125.687,-147.397 L -125.179,-147.028 L -124.629,-146.726
 L -124.045,-146.495 L -123.437,-146.339 L -122.814,-146.26 L 122.814,-146.26 z
M -122.537,-146.931 L -123.108,-147.003 L -123.665,-147.146 L -124.199,-147.357 L -124.703,-147.634 L -125.168,-147.972
 L -125.588,-148.366 L -125.954,-148.809 L -126.262,-149.294 L -126.507,-149.815 L -126.685,-150.361 L -126.792,-150.926
 L -126.828,-151.5 L -126.828,-163.5 L -126.792,-164.074 L -126.685,-164.639 L -126.507,-165.185 L -126.262,-165.706
 L -125.954,-166.191 L -125.588,-166.634 L -125.168,-167.028 L -124.703,-167.366 L -124.199,-167.643 L -123.665,-167.854
 L -123.108,-167.997 L -122.537,-168.069 L 122.537,-168.069 L 123.108,-167.997 L 123.665,-167.854 L 124.199,-167.643
 L 124.703,-167.366 L 125.168,-167.028 L 125.588,-166.634 L 125.954,-166.191 L 126.262,-165.706 L 126.507,-165.185
 L 126.685,-164.639 L 126.792,-164.074 L 126.828,-163.5 L 126.828,-151.5 L 126.792,-150.926 L 126.685,-150.361
 L 126.507,-149.815 L 126.262,-149.294 L 125.954,-148.809 L 125.588,-148.366 L 125.168,-147.972 L 124.703,-147.634
 L 124.199,-147.357 L 123.665,-147.146 L 123.108,-147.003 L 122.537,-146.931 z
M 123.437,-114.839 L 124.045,-114.995 L 124.629,-115.226 L 125.179,-115.528 L 125.687,-115.897 L 126.145,-116.327
 L 126.545,-116.811 L 126.882,-117.341 L 127.149,-117.909 L 127.343,-118.507 L 127.461,-119.123 L 127.5,-119.75
 L 127.5,-132.25 L 127.461,-132.877 L 127.343,-133.493 L 127.149,-134.091 L 126.882,-134.659 L 126.545,-135.189
 L 126.145,-135.673 L 125.687,-136.103 L 125.179,-136.472 L 124.629,-136.774 L 124.045,-137.005 L 123.437,-137.161
 L 122.814,-137.24 L -122.814,-137.24 L -123.437,-137.161 L -124.045,-137.005 L -124.629,-136.774 L -125.179,-136.472
 L -125.687,-136.103 L -126.145,-135.673 L -126.545,-135.189 L -126.882,-134.659 L -127.149,-134.091 L -127.343,-133.493
 L -127.461,-132.877 L -127.5,-132.25 L -127.5,-119.75 L -127.461,-119.123 L -127.343,-118.507 L -127.149,-117.909
 L -126.882,-117.341 L -126.545,-116.811 L -126.145,-116.327 L -125.687,-115.897 L -125.179,-115.528 L -124.629,-115.226
 L -124.045,-114.995 L -123.437,-114.839 L -122.814,-114.76 L 122.814,-114.76 z
M -122.382,-117.895 L -122.645,-117.928 L -122.902,-117.994 L -123.148,-118.091 L -123.38,-118.219 L -123.595,-118.375
 L -123.788,-118.556 L -123.957,-118.76 L -124.099,-118.984 L -124.211,-119.223 L -124.293,-119.475 L -124.343,-119.736
 L -124.36,-120 L -124.36,-132 L -124.343,-132.264 L -124.293,-132.525 L -124.211,-132.777 L -124.099,-133.016
 L -123.957,-133.24 L -123.788,-133.444 L -123.595,-133.625 L -123.38,-133.781 L -123.148,-133.909 L -122.902,-134.006
 L -122.645,-134.072 L -122.382,-134.105 L 122.382,-134.105 L 122.645,-134.072 L 122.902,-134.006 L 123.148,-133.909
 L 123.38,-133.781 L 123.595,-133.625 L 123.788,-133.444 L 123.957,-133.24 L 124.099,-133.016 L 124.211,-132.777
 L 124.293,-132.525 L 124.343,-132.264 L 124.36,-132 L 124.36,-120 L 124.343,-119.736 L 124.293,-119.475
 L 124.211,-119.223 L 124.099,-118.984 L 123.957,-118.76 L 123.788,-118.556 L 123.595,-118.375 L 123.38,-118.219
 L 123.148,-118.091 L 122.902,-117.994 L 122.645,-117.928 L 122.382,-117.895 z
" stroke="black" fill="lightgray" stroke-width="0.5"/>
</svg>
