<?xml version="1.0" standalone="no"?>
<!DOCTYPE svg PUBLIC "-//W3C//DTD SVG 1.1//EN" "http://www.w3.org/Graphics/SVG/1.1/DTD/svg11.dtd">
<svg width="242mm" height="186mm" viewBox="-122 -366 242 186" xmlns="http://www.w3.org/2000/svg" version="1.1">
<title>OpenSCAD Model</title>
<path d="
M -118.5,-337.441 L -118.187,-337.147 L -117.679,-336.778 L -117.129,-336.476 L -116.545,-336.245 L -115.937,-336.089
 L -115.314,-336.01 L 115.314,-336.01 L 115.937,-336.089 L 116.545,-336.245 L 117.129,-336.476 L 117.679,-336.778
 L 118.187,-337.147 L 118.645,-337.577 L 119.045,-338.061 L 119.382,-338.591 L 119.649,-339.159 L 119.843,-339.757
 L 119.961,-340.373 L 120,-341 L 120,-361 L 119.961,-361.627 L 119.843,-362.243 L 119.649,-362.841
 L 119.382,-363.409 L 119.045,-363.939 L 118.645,-364.423 L 118.187,-364.853 L 117.679,-365.222 L 117.129,-365.524
 L 116.545,-365.755 L 115.937,-365.911 L 115.314,-365.99 L -115.314,-365.99 L -115.937,-365.911 L -116.545,-365.755
 L -117.129,-365.524 L -117.679,-365.222 L -118.187,-364.853 L -118.5,-364.559 L -118.5,-365.99 L -121.5,-365.99
 L -121.5,-336.01 L -118.5,-336.01 z
M -114.751,-337.508 L -115.25,-337.571 L -115.736,-337.696 L -116.203,-337.881 L -116.643,-338.123 L -117.05,-338.418
 L -117.416,-338.762 L -117.736,-339.149 L -118.005,-339.573 L -118.219,-340.028 L -118.374,-340.505 L -118.468,-340.999
 L -118.5,-341.5 L -118.5,-360.5 L -118.468,-361.001 L -118.374,-361.495 L -118.219,-361.972 L -118.005,-362.427
 L -117.736,-362.851 L -117.416,-363.238 L -117.05,-363.582 L -116.643,-363.877 L -116.203,-364.119 L -115.736,-364.304
 L -115.25,-364.429 L -114.751,-364.492 L 114.751,-364.492 L 115.25,-364.429 L 115.736,-364.304 L 116.203,-364.119
 L 116.643,-363.877 L 117.05,-363.582 L 117.416,-363.238 L 117.736,-362.851 L 118.005,-362.427 L 118.219,-361.972
 L 118.374,-361.495 L 118.468,-361.001 L 118.5,-360.5 L 118.5,-341.5 L 118.468,-340.999 L 118.374,-340.505
 L 118.219,-340.028 L 118.005,-339.573 L 117.736,-339.149 L 117.416,-338.762 L 117.05,-338.418 L 116.643,-338.123
 L 116.203,-337.881 L 115.736,-337.696 L 115.25,-337.571 L 114.751,-337.508 z
M -118.5,-298.441 L -118.187,-298.147 L -117.679,-297.778 L -117.129,-297.476 L -116.545,-297.245 L -115.937,-297.089
 L -115.314,-297.01 L 115.314,-297.01 L 115.937,-297.089 L 116.545,-297.245 L 117.129,-297.476 L 117.679,-297.778
 L 118.187,-298.147 L 118.645,-298.577 L 119.045,-299.061 L 119.382,-299.591 L 119.649,-300.159 L 119.843,-300.757
 L 119.961,-301.373 L 120,-302 L 120,-322 L 119.961,-322.627 L 119.843,-323.243 L 119.649,-323.841
 L 119.382,-324.409 L 119.045,-324.939 L 118.645,-325.423 L 118.187,-325.853 L 117.679,-326.222 L 117.129,-326.524
 L 116.545,-326.755 L 115.937,-326.911 L 115.314,-326.99 L -115.314,-326.99 L -115.937,-326.911 L -116.545,-326.755
 L -117.129,-326.524 L -117.679,-326.222 L -118.187,-325.853 L -118.5,-325.559 L -118.5,-326.99 L -121.5,-326.99
 L -121.5,-297.01 L -118.5,-297.01 z
M -114.751,-298.508 L -115.25,-298.571 L -115.736,-298.696 L -116.203,-298.881 L -116.643,-299.123 L -117.05,-299.418
 L -117.416,-299.762 L -117.736,-300.149 L -118.005,-300.573 L -118.219,-301.028 L -118.374,-301.505 L -118.468,-301.999
 L -118.5,-302.5 L -118.5,-321.5 L -118.468,-322.001 L -118.374,-322.495 L -118.219,-322.972 L -118.005,-323.427
 L -117.736,-323.851 L -117.416,-324.238 L -117.05,-324.582 L -116.643,-324.877 L -116.203,-325.119 L -115.736,-325.304
 L -115.25,-325.429 L -114.751,-325.492 L 114.751,-325.492 L 115.25,-325.429 L 115.736,-325.304 L 116.203,-325.119
 L 116.643,-324.877 L 117.05,-324.582 L 117.416,-324.238 L 117.736,-323.851 L 118.005,-323.427 L 118.219,-322.972
 L 118.374,-322.495 L 118.468,-322.001 L 118.5,-321.5 L 118.5,-302.5 L 118.468,-301.999 L 118.374,-301.505
 L 118.219,-301.028 L 118.005,-300.573 L 117.736,-300.149 L 117.416,-299.762 L 117.05,-299.418 L 116.643,-299.123
 L 116.203,-298.881 L 115.736,-298.696 L 115.25,-298.571 L 114.751,-298.508 z
M -118.5,-259.441 L -118.187,-259.147 L -117.679,-258.778 L -117.129,-258.476 L -116.545,-258.245 L -115.937,-258.089
 L -115.314,-258.01 L 115.314,-258.01 L 115.937,-258.089 L 116.545,-258.245 L 117.129,-258.476 L 117.679,-258.778
 L 118.187,-259.147 L 118.645,-259.577 L 119.045,-260.061 L 119.382,-260.591 L 119.649,-261.159 L 119.843,-261.757
 L 119.961,-262.373 L 120,-263 L 120,-283 L 119.961,-283.627 L 119.843,-284.243 L 119.649,-284.841
 L 119.382,-285.409 L 119.045,-285.939 L 118.645,-286.423 L 118.187,-286.853 L 117.679,-287.222 L 117.129,-287.524
 L 116.545,-287.755 L 115.937,-287.911 L 115.314,-287.99 L -115.314,-287.99 L -115.937,-287.911 L -116.545,-287.755
 L -117.129,-287.524 L -117.679,-287.222 L -118.187,-286.853 L -118.5,-286.559 L -118.5,-287.99 L -121.5,-287.99
 L -121.5,-258.01 L -118.5,-258.01 z
M -114.751,-259.508 L -115.25,-259.571 L -115.736,-259.696 L -116.203,-259.881 L -116.643,-260.123 L -117.05,-260.418
 L -117.416,-260.762 L -117.736,-261.149 L -118.005,-261.573 L -118.219,-262.028 L -118.374,-262.505 L -118.468,-262.999
 L -118.5,-263.5 L -118.5,-282.5 L -118.468,-283.001 L -118.374,-283.495 L -118.219,-283.972 L -118.005,-284.427
 L -117.736,-284.851 L -117.416,-285.238 L -117.05,-285.582 L -116.643,-285.877 L -116.203,-286.119 L -115.736,-286.304
 L -115.25,-286.429 L -114.751,-286.492 L 114.751,-286.492 L 115.25,-286.429 L 115.736,-286.304 L 116.203,-286.119
 L 116.643,-285.877 L 117.05,-285.582 L 117.416,-285.238 L 117.736,-284.851 L 118.005,-284.427 L 118.219,-283.972
 L 118.374,-283.495 L 118.468,-283.001 L 118.5,-282.5 L 118.5,-263.5 L 118.468,-262.999 L 118.374,-262.505
 L 118.219,-262.028 L 118.005,-261.573 L 117.736,-261.149 L 117.416,-260.762 L 117.05,-260.418 L 116.643,-260.123
 L 116.203,-259.881 L 115.736,-259.696 L 115.25,-259.571 L 114.751,-259.508 z
M 115.937,-219.089 L 116.545,-219.245 L 117.129,-219.476 L 117.679,-219.778 L 118.187,-220.147 L 118.645,-220.577
 L 119.045,-221.061 L 119.382,-221.591 L 119.649,-222.159 L 119.843,-222.757 L 119.961,-223.373 L 120,-224
 L 120,-244 L 119.961,-244.627 L 119.843,-245.243 L 119.649,-245.841 L 119.382,-246.409 L 119.045,-246.939
 L 118.645,-247.423 L 118.187,-247.853 L 117.679,-248.222 L 117.129,-248.524 L 116.545,-248.755 L 115.937,-248.911
 L 115.314,-248.99 L -115.314,-248.99 L -115.937,-248.911 L -116.545,-248.755 L -117.129,-248.524 L -117.679,-248.222
 L -118.187,-247.853 L -118.5,-247.559 L -118.5,-248.979 L -121.5,-248.979 L -121.5,-219.021 L -118.5,-219.021
 L -118.5,-220.441 L -118.187,-220.147 L -117.679,-219.778 L -117.129,-219.476 L -116.545,-219.245 L -115.937,-219.089
 L -115.314,-219.01 L 115.314,-219.01 z
M -114.695,-221.393 L -115.083,-221.442 L -115.462,-221.539 L -115.825,-221.683 L -116.168,-221.872 L -116.484,-222.101
 L -116.769,-222.369 L -117.018,-222.67 L -117.228,-223 L -117.394,-223.354 L -117.515,-223.726 L -117.588,-224.11
 L -117.613,-224.5 L -117.613,-243.5 L -117.588,-243.89 L -117.515,-244.274 L -117.394,-244.646 L -117.228,-245
 L -117.018,-245.33 L -116.769,-245.631 L -116.484,-245.899 L -116.168,-246.128 L -115.825,-246.317 L -115.462,-246.461
 L -115.083,-246.558 L -114.695,-246.607 L 114.695,-246.607 L 115.083,-246.558 L 115.462,-246.461 L 115.825,-246.317
 L 116.168,-246.128 L 116.484,-245.899 L 116.769,-245.631 L 117.018,-245.33 L 117.228,-245 L 117.394,-244.646
 L 117.515,-244.274 L 117.588,-243.89 L 117.613,-243.5 L 117.613,-224.5 L 117.588,-224.11 L 117.515,-223.726
 L 117.394,-223.354 L 117.228,-223 L 117.018,-222.67 L 116.769,-222.369 L 116.484,-222.101 L 116.168,-221.872
 L 115.825,-221.683 L 115.462,-221.539 L 115.083,-221.442 L 114.695,-221.393 z
M 115.937,-180.089 L 116.545,-180.245 L 117.129,-180.476 L 117.679,-180.778 L 118.187,-181.147 L 118.645,-181.577
 L 119.045,-182.061 L 119.382,-182.591 L 119.649,-183.159 L 119.843,-183.757 L 119.961,-184.373 L 120,-185
 L 120,-205 L 119.961,-205.627 L 119.843,-206.243 L 119.649,-206.841 L 119.382,-207.409 L 119.045,-207.939
 L 118.645,-208.423 L 118.187,-208.853 L 117.679,-209.222 L 117.129,-209.524 L 116.545,-209.755 L 115.937,-209.911
 L 115.314,-209.99 L -115.314,-209.99 L -115.937,-209.911 L -116.545,-209.755 L -117.129,-209.524 L -117.679,-209.222
 L -118.187,-208.853 L -118.5,-208.559 L -118.5,-208.653 L -121.5,-208.653 L -121.5,-181.347 L -118.5,-181.347
 L -118.5,-181.441 L -118.187,-181.147 L -117.679,-180.778 L -117.129,-180.476 L -116.545,-180.245 L -115.937,-180.089
 L -115.314,-180.01 L 115.314,-180.01 z
M -112.634,-200.369 L -112.9,-200.403 L -113.16,-200.469 L -113.409,-200.568 L -113.644,-200.697 L -113.861,-200.855
 L -114.057,-201.038 L -114.227,-201.245 L -114.371,-201.471 L -114.485,-201.714 L -114.568,-201.969 L -114.618,-202.232
 L -114.635,-202.5 L -114.618,-202.768 L -114.568,-203.031 L -114.485,-203.286 L -114.371,-203.529 L -114.227,-203.755
 L -114.057,-203.962 L -113.861,-204.145 L -113.644,-204.303 L -113.409,-204.432 L -113.16,-204.531 L -112.9,-204.597
 L -112.634,-204.631 L -112.366,-204.631 L -112.1,-204.597 L -111.84,-204.531 L -111.591,-204.432 L -111.356,-204.303
 L -111.139,-204.145 L -110.943,-203.962 L -110.773,-203.755 L -110.629,-203.529 L -110.515,-203.286 L -110.432,-203.031
 L -110.382,-202.768 L -110.365,-202.5 L -110.382,-202.232 L -110.432,-201.969 L -110.515,-201.714 L -110.629,-201.471
 L -110.773,-201.245 L -110.943,-201.038 L -111.139,-200.855 L -111.356,-200.697 L -111.591,-200.568 L -111.84,-200.469
 L -112.1,-200.403 L -112.366,-200.369 z
M 112.366,-200.369 L 112.1,-200.403 L 111.84,-200.469 L 111.591,-200.568 L 111.356,-200.697 L 111.139,-200.855
 L 110.943,-201.038 L 110.773,-201.245 L 110.629,-201.471 L 110.515,-201.714 L 110.432,-201.969 L 110.382,-202.232
 L 110.365,-202.5 L 110.382,-202.768 L 110.432,-203.031 L 110.515,-203.286 L 110.629,-203.529 L 110.773,-203.755
 L 110.943,-203.962 L 111.139,-204.145 L 111.356,-204.303 L 111.591,-204.432 L 111.84,-204.531 L 112.1,-204.597
 L 112.366,-204.631 L 112.634,-204.631 L 112.9,-204.597 L 113.16,-204.531 L 113.409,-204.432 L 113.644,-204.303
 L 113.861,-204.145 L 114.057,-203.962 L 114.227,-203.755 L 114.371,-203.529 L 114.485,-203.286 L 114.568,-203.031
 L 114.618,-202.768 L 114.635,-202.5 L 114.618,-202.232 L 114.568,-201.969 L 114.485,-201.714 L 114.371,-201.471
 L 114.227,-201.245 L 114.057,-201.038 L 113.861,-200.855 L 113.644,-200.697 L 113.409,-200.568 L 113.16,-200.469
 L 112.9,-200.403 L 112.634,-200.369 z
M -112.634,-185.369 L -112.9,-185.403 L -113.16,-185.469 L -113.409,-185.568 L -113.644,-185.697 L -113.861,-185.855
 L -114.057,-186.038 L -114.227,-186.245 L -114.371,-186.471 L -114.485,-186.714 L -114.568,-186.969 L -114.618,-187.232
 L -114.635,-187.5 L -114.618,-187.768 L -114.568,-188.031 L -114.485,-188.286 L -114.371,-188.529 L -114.227,-188.755
 L -114.057,-188.962 L -113.861,-189.145 L -113.644,-189.303 L -113.409,-189.432 L -113.16,-189.531 L -112.9,-189.597
 L -112.634,-189.631 L -112.366,-189.631 L -112.1,-189.597 L -111.84,-189.531 L -111.591,-189.432 L -111.356,-189.303
 L -111.139,-189.145 L -110.943,-188.962 L -110.773,-188.755 L -110.629,-188.529 L -110.515,-188.286 L -110.432,-188.031
 L -110.382,-187.768 L -110.365,-187.5 L -110.382,-187.232 L -110.432,-186.969 L -110.515,-186.714 L -110.629,-186.471
 L -110.773,-186.245 L -110.943,-186.038 L -111.139,-185.855 L -111.356,-185.697 L -111.591,-185.568 L -111.84,-185.469
 L -112.1,-185.403 L -112.366,-185.369 z
M 112.366,-185.369 L 112.1,-185.403 L 111.84,-185.469 L 111.591,-185.568 L 111.356,-185.697 L 111.139,-185.855
 L 110.943,-186.038 L 110.773,-186.245 L 110.629,-186.471 L 110.515,-186.714 L 110.432,-186.969 L 110.382,-187.232
 L 110.365,-187.5 L 110.382,-187.768 L 110.432,-188.031 L 110.515,-188.286 L 110.629,-188.529 L 110.773,-188.755
 L 110.943,-188.962 L 111.139,-189.145 L 111.356,-189.303 L 111.591,-189.432 L 111.84,-189.531 L 112.1,-189.597
 L 112.366,-189.631 L 112.634,-189.631 L 112.9,-189.597 L 113.16,-189.531 L 113.409,-189.432 L 113.644,-189.303
 L 113.861,-189.145 L 114.057,-188.962 L 114.227,-188.755 L 114.371,-188.529 L 114.485,-188.286 L 114.568,-188.031
 L 114.618,-187.768 L 114.635,-187.5 L 114.618,-187.232 L 114.568,-186.969 L 114.485,-186.714 L 114.371,-186.471
 L 114.227,-186.245 L 114.057,-186.038 L 113.861,-185.855 L 113.644,-185.697 L 113.409,-185.568 L 113.16,-185.469
 L 112.9,-185.403 L 112.634,-185.369 z
" stroke="black" fill="lightgray" stroke-width="0.5"/>
</svg>
