<?xml version="1.0" standalone="no"?>
<!DOCTYPE svg PUBLIC "-//W3C//DTD SVG 1.1//EN" "http://www.w3.org/Graphics/SVG/1.1/DTD/svg11.dtd">
<svg width="256mm" height="208mm" viewBox="-128 -347 256 208" xmlns="http://www.w3.org/2000/svg" version="1.1">
<title>OpenSCAD Model</title>
<path d="
M 123.437,-301.589 L 124.045,-301.745 L 124.629,-301.976 L 125.179,-302.278 L 125.687,-302.647 L 126.145,-303.077
 L 126.545,-303.561 L 126.882,-304.091 L 127.149,-304.659 L 127.343,-305.257 L 127.461,-305.873 L 127.5,-306.5
 L 127.5,-341.5 L 127.461,-342.127 L 127.343,-342.743 L 127.149,-343.341 L 126.882,-343.909 L 126.545,-344.439
 L 126.145,-344.923 L 125.687,-345.353 L 125.179,-345.722 L 124.629,-346.024 L 124.045,-346.255 L 123.437,-346.411
 L 122.814,-346.49 L -122.814,-346.49 L -123.437,-346.411 L -124.045,-346.255 L -124.629,-346.024 L -125.179,-345.722
 L -125.687,-345.353 L -126.145,-344.923 L -126.545,-344.439 L -126.882,-343.909 L -127.149,-343.341 L -127.343,-342.743
 L -127.461,-342.127 L -127.5,-341.5 L -127.5,-306.5 L -127.461,-305.873 L -127.343,-305.257 L -127.149,-304.659
 L -126.882,-304.091 L -126.545,-303.561 L -126.145,-303.077 L -125.687,-302.647 L -125.179,-302.278 L -124.629,-301.976
 L -124.045,-301.745 L -123.437,-301.589 L -122.814,-301.51 L 122.814,-301.51 z
M -122.548,-302.009 L -123.14,-302.084 L -123.718,-302.232 L -124.272,-302.452 L -124.795,-302.739 L -125.278,-303.09
 L -125.713,-303.498 L -126.093,-303.958 L -126.412,-304.462 L -126.666,-305.001 L -126.851,-305.569 L -126.963,-306.155
 L -127,-306.75 L -127,-341.25 L -126.963,-341.845 L -126.851,-342.431 L -126.666,-342.999 L -126.412,-343.538
 L -126.093,-344.042 L -125.713,-344.502 L -125.278,-344.91 L -124.795,-345.261 L -124.272,-345.548 L -123.718,-345.768
 L -123.14,-345.916 L -122.548,-345.991 L 122.548,-345.991 L 123.14,-345.916 L 123.718,-345.768 L 124.272,-345.548
 L 124.795,-345.261 L 125.278,-344.91 L 125.713,-344.502 L 126.093,-344.042 L 126.412,-343.538 L 126.666,-342.999
 L 126.851,-342.431 L 126.963,-341.845 L 127,-341.25 L 127,-306.75 L 126.963,-306.155 L 126.851,-305.569
 L 126.666,-305.001 L 126.412,-304.462 L 126.093,-303.958 L 125.713,-303.498 L 125.278,-303.09 L 124.795,-302.739
 L 124.272,-302.452 L 123.718,-302.232 L 123.14,-302.084 L 122.548,-302.009 z
M 123.437,-247.589 L 124.045,-247.745 L 124.629,-247.976 L 125.179,-248.278 L 125.687,-248.647 L 126.145,-249.077
 L 126.545,-249.561 L 126.882,-250.091 L 127.149,-250.659 L 127.343,-251.257 L 127.461,-251.873 L 127.5,-252.5
 L 127.5,-287.5 L 127.461,-288.127 L 127.343,-288.743 L 127.149,-289.341 L 126.882,-289.909 L 126.545,-290.439
 L 126.145,-290.923 L 125.687,-291.353 L 125.179,-291.722 L 124.629,-292.024 L 124.045,-292.255 L 123.437,-292.411
 L 122.814,-292.49 L -122.814,-292.49 L -123.437,-292.411 L -124.045,-292.255 L -124.629,-292.024 L -125.179,-291.722
 L -125.687,-291.353 L -126.145,-290.923 L -126.545,-290.439 L -126.882,-289.909 L -127.149,-289.341 L -127.343,-288.743
 L -127.461,-288.127 L -127.5,-287.5 L -127.5,-252.5 L -127.461,-251.873 L -127.343,-251.257 L -127.149,-250.659
 L -126.882,-250.091 L -126.545,-249.561 L -126.145,-249.077 L -125.687,-248.647 L -125.179,-248.278 L -124.629,-247.976
 L -124.045,-247.745 L -123.437,-247.589 L -122.814,-247.51 L 122.814,-247.51 z
M -122.548,-248.009 L -123.14,-248.084 L -123.718,-248.232 L -124.272,-248.452 L -124.795,-248.739 L -125.278,-249.09
 L -125.713,-249.498 L -126.093,-249.958 L -126.412,-250.462 L -126.666,-251.001 L -126.851,-251.569 L -126.963,-252.155
 L -127,-252.75 L -127,-287.25 L -126.963,-287.845 L -126.851,-288.431 L -126.666,-288.999 L -126.412,-289.538
 L -126.093,-290.042 L -125.713,-290.502 L -125.278,-290.91 L -124.795,-291.261 L -124.272,-291.548 L -123.718,-291.768
 L -123.14,-291.916 L -122.548,-291.991 L 122.548,-291.991 L 123.14,-291.916 L 123.718,-291.768 L 124.272,-291.548
 L 124.795,-291.261 L 125.278,-290.91 L 125.713,-290.502 L 126.093,-290.042 L 126.412,-289.538 L 126.666,-288.999
 L 126.851,-288.431 L 126.963,-287.845 L 127,-287.25 L 127,-252.75 L 126.963,-252.155 L 126.851,-251.569
 L 126.666,-251.001 L 126.412,-250.462 L 126.093,-249.958 L 125.713,-249.498 L 125.278,-249.09 L 124.795,-248.739
 L 124.272,-248.452 L 123.718,-248.232 L 123.14,-248.084 L 122.548,-248.009 z
M 123.437,-193.589 L 124.045,-193.745 L 124.629,-193.976 L 125.179,-194.278 L 125.687,-194.647 L 126.145,-195.077
 L 126.545,-195.561 L 126.882,-196.091 L 127.149,-196.659 L 127.343,-197.257 L 127.461,-197.873 L 127.5,-198.5
 L 127.5,-233.5 L 127.461,-234.127 L 127.343,-234.743 L 127.149,-235.341 L 126.882,-235.909 L 126.545,-236.439
 L 126.145,-236.923 L 125.687,-237.353 L 125.179,-237.722 L 124.629,-238.024 L 124.045,-238.255 L 123.437,-238.411
 L 122.814,-238.49 L -122.814,-238.49 L -123.437,-238.411 L -124.045,-238.255 L -124.629,-238.024 L -125.179,-237.722
 L -125.687,-237.353 L -126.145,-236.923 L -126.545,-236.439 L -126.882,-235.909 L -127.149,-235.341 L -127.343,-234.743
 L -127.461,-234.127 L -127.5,-233.5 L -127.5,-198.5 L -127.461,-197.873 L -127.343,-197.257 L -127.149,-196.659
 L -126.882,-196.091 L -126.545,-195.561 L -126.145,-195.077 L -125.687,-194.647 L -125.179,-194.278 L -124.629,-193.976
 L -124.045,-193.745 L -123.437,-193.589 L -122.814,-193.51 L 122.814,-193.51 z
M -122.493,-194.888 L -122.975,-194.949 L -123.446,-195.07 L -123.898,-195.249 L -124.323,-195.483 L -124.716,-195.769
 L -125.071,-196.101 L -125.38,-196.476 L -125.641,-196.886 L -125.848,-197.326 L -125.998,-197.788 L -126.089,-198.265
 L -126.119,-198.75 L -126.119,-233.25 L -126.089,-233.735 L -125.998,-234.212 L -125.848,-234.674 L -125.641,-235.114
 L -125.38,-235.524 L -125.071,-235.899 L -124.716,-236.231 L -124.323,-236.517 L -123.898,-236.751 L -123.446,-236.93
 L -122.975,-237.051 L -122.493,-237.112 L 122.493,-237.112 L 122.975,-237.051 L 123.446,-236.93 L 123.898,-236.751
 L 124.323,-236.517 L 124.716,-236.231 L 125.071,-235.899 L 125.38,-235.524 L 125.641,-235.114 L 125.848,-234.674
 L 125.998,-234.212 L 126.089,-233.735 L 126.119,-233.25 L 126.119,-198.75 L 126.089,-198.265 L 125.998,-197.788
 L 125.848,-197.326 L 125.641,-196.886 L 125.38,-196.476 L 125.071,-196.101 L 124.716,-195.769 L 124.323,-195.483
 L 123.898,-195.249 L 123.446,-195.07 L 122.975,-194.949 L 122.493,-194.888 z
M 123.437,-139.589 L 124.045,-139.745 L 124.629,-139.976 L 125.179,-140.278 L 125.687,-140.647 L 126.145,-141.077
 L 126.545,-141.561 L 126.882,-142.091 L 127.149,-142.659 L 127.343,-143.257 L 127.461,-143.873 L 127.5,-144.5
 L 127.5,-179.5 L 127.461,-180.127 L 127.343,-180.743 L 127.149,-181.341 L 126.882,-181.909 L 126.545,-182.439
 L 126.145,-182.923 L 125.687,-183.353 L 125.179,-183.722 L 124.629,-184.024 L 124.045,-184.255 L 123.437,-184.411
 L 122.814,-184.49 L -122.814,-184.49 L -123.437,-184.411 L -124.045,-184.255 L -124.629,-184.024 L -125.179,-183.722
 L -125.687,-183.353 L -126.145,-182.923 L -126.545,-182.439 L -126.882,-181.909 L -127.149,-181.341 L -127.343,-180.743
 L -127.461,-180.127 L -127.5,-179.5 L -127.5,-144.5 L -127.461,-143.873 L -127.343,-143.257 L -127.149,-142.659
 L -126.882,-142.091 L -126.545,-141.561 L -126.145,-141.077 L -125.687,-140.647 L -125.179,-140.278 L -124.629,-139.976
 L -124.045,-139.745 L -123.437,-139.589 L -122.814,-139.51 L 122.814,-139.51 z
M -120.113,-175.204 L -120.337,-175.232 L -120.556,-175.288 L -120.766,-175.371 L -120.964,-175.48 L -121.147,-175.613
 L -121.312,-175.768 L -121.456,-175.942 L -121.577,-176.133 L -121.674,-176.337 L -121.743,-176.552 L -121.786,-176.774
 L -121.8,-177 L -121.786,-177.226 L -121.743,-177.448 L -121.674,-177.663 L -121.577,-177.867 L -121.456,-178.058
 L -121.312,-178.232 L -121.147,-178.387 L -120.964,-178.52 L -120.766,-178.629 L -120.556,-178.712 L -120.337,-178.768
 L -120.113,-178.796 L -119.887,-178.796 L -119.663,-178.768 L -119.444,-178.712 L -119.234,-178.629 L -119.036,-178.52
 L -118.853,-178.387 L -118.688,-178.232 L -118.544,-178.058 L -118.423,-177.867 L -118.326,-177.663 L -118.257,-177.448
 L -118.214,-177.226 L -118.2,-177 L -118.214,-176.774 L -118.257,-176.552 L -118.326,-176.337 L -118.423,-176.133
 L -118.544,-175.942 L -118.688,-175.768 L -118.853,-175.613 L -119.036,-175.48 L -119.234,-175.371 L -119.444,-175.288
 L -119.663,-175.232 L -119.887,-175.204 z
M 119.887,-175.204 L 119.663,-175.232 L 119.444,-175.288 L 119.234,-175.371 L 119.036,-175.48 L 118.853,-175.613
 L 118.688,-175.768 L 118.544,-175.942 L 118.423,-176.133 L 118.326,-176.337 L 118.257,-176.552 L 118.214,-176.774
 L 118.2,-177 L 118.214,-177.226 L 118.257,-177.448 L 118.326,-177.663 L 118.423,-177.867 L 118.544,-178.058
 L 118.688,-178.232 L 118.853,-178.387 L 119.036,-178.52 L 119.234,-178.629 L 119.444,-178.712 L 119.663,-178.768
 L 119.887,-178.796 L 120.113,-178.796 L 120.337,-178.768 L 120.556,-178.712 L 120.766,-178.629 L 120.964,-178.52
 L 121.147,-178.387 L 121.312,-178.232 L 121.456,-178.058 L 121.577,-177.867 L 121.674,-177.663 L 121.743,-177.448
 L 121.786,-177.226 L 121.8,-177 L 121.786,-176.774 L 121.743,-176.552 L 121.674,-176.337 L 121.577,-176.133
 L 121.456,-175.942 L 121.312,-175.768 L 121.147,-175.613 L 120.964,-175.48 L 120.766,-175.371 L 120.556,-175.288
 L 120.337,-175.232 L 120.113,-175.204 z
M 119.887,-145.204 L 119.663,-145.232 L 119.444,-145.288 L 119.234,-145.371 L 119.036,-145.48 L 118.853,-145.613
 L 118.688,-145.768 L 118.544,-145.942 L 118.423,-146.133 L 118.326,-146.337 L 118.257,-146.552 L 118.214,-146.774
 L 118.2,-147 L 118.214,-147.226 L 118.257,-147.448 L 118.326,-147.663 L 118.423,-147.867 L 118.544,-148.058
 L 118.688,-148.232 L 118.853,-148.387 L 119.036,-148.52 L 119.234,-148.629 L 119.444,-148.712 L 119.663,-148.768
 L 119.887,-148.796 L 120.113,-148.796 L 120.337,-148.768 L 120.556,-148.712 L 120.766,-148.629 L 120.964,-148.52
 L 121.147,-148.387 L 121.312,-148.232 L 121.456,-148.058 L 121.577,-147.867 L 121.674,-147.663 L 121.743,-147.448
 L 121.786,-147.226 L 121.8,-147 L 121.786,-146.774 L 121.743,-146.552 L 121.674,-146.337 L 121.577,-146.133
 L 121.456,-145.942 L 121.312,-145.768 L 121.147,-145.613 L 120.964,-145.48 L 120.766,-145.371 L 120.556,-145.288
 L 120.337,-145.232 L 120.113,-145.204 z
M -120.113,-145.204 L -120.337,-145.232 L -120.556,-145.288 L -120.766,-145.371 L -120.964,-145.48 L -121.147,-145.613
 L -121.312,-145.768 L -121.456,-145.942 L -121.577,-146.133 L -121.674,-146.337 L -121.743,-146.552 L -121.786,-146.774
 L -121.8,-147 L -121.786,-147.226 L -121.743,-147.448 L -121.674,-147.663 L -121.577,-147.867 L -121.456,-148.058
 L -121.312,-148.232 L -121.147,-148.387 L -120.964,-148.52 L -120.766,-148.629 L -120.556,-148.712 L -120.337,-148.768
 L -120.113,-148.796 L -119.887,-148.796 L -119.663,-148.768 L -119.444,-148.712 L -119.234,-148.629 L -119.036,-148.52
 L -118.853,-148.387 L -118.688,-148.232 L -118.544,-148.058 L -118.423,-147.867 L -118.326,-147.663 L -118.257,-147.448
 L -118.214,-147.226 L -118.2,-147 L -118.214,-146.774 L -118.257,-146.552 L -118.326,-146.337 L -118.423,-146.133
 L -118.544,-145.942 L -118.688,-145.768 L -118.853,-145.613 L -119.036,-145.48 L -119.234,-145.371 L -119.444,-145.288
 L -119.663,-145.232 L -119.887,-145.204 z
" stroke="black" fill="lightgray" stroke-width="0.5"/>
</svg>
