  0
SECTION
  2
BLOCKS
  0
ENDSEC
  0
SECTION
  2
ENTITIES
  0
LINE
  8
0
 10
-133.5
 20
797.941
 11
-133.187
 21
797.647
  0
LINE
  8
0
 10
-133.187
 20
797.647
 11
-132.679
 21
797.278
  0
LINE
  8
0
 10
-132.679
 20
797.278
 11
-132.129
 21
796.976
  0
LINE
  8
0
 10
-132.129
 20
796.976
 11
-131.545
 21
796.745
  0
LINE
  8
0
 10
-131.545
 20
796.745
 11
-130.937
 21
796.589
  0
LINE
  8
0
 10
-130.937
 20
796.589
 11
-130.314
 21
796.51
  0
LINE
  8
0
 10
-130.314
 20
796.51
 11
130.314
 21
796.51
  0
LINE
  8
0
 10
130.314
 20
796.51
 11
130.937
 21
796.589
  0
LINE
  8
0
 10
130.937
 20
796.589
 11
131.545
 21
796.745
  0
LINE
  8
0
 10
131.545
 20
796.745
 11
132.129
 21
796.976
  0
LINE
  8
0
 10
132.129
 20
796.976
 11
132.679
 21
797.278
  0
LINE
  8
0
 10
132.679
 20
797.278
 11
133.187
 21
797.647
  0
LINE
  8
0
 10
133.187
 20
797.647
 11
133.645
 21
798.077
  0
LINE
  8
0
 10
133.645
 20
798.077
 11
134.045
 21
798.561
  0
LINE
  8
0
 10
134.045
 20
798.561
 11
134.382
 21
799.091
  0
LINE
  8
0
 10
134.382
 20
799.091
 11
134.649
 21
799.659
  0
LINE
  8
0
 10
134.649
 20
799.659
 11
134.843
 21
800.257
  0
LINE
  8
0
 10
134.843
 20
800.257
 11
134.961
 21
800.873
  0
LINE
  8
0
 10
134.961
 20
800.873
 11
135
 21
801.5
  0
LINE
  8
0
 10
135
 20
801.5
 11
135
 21
926.5
  0
LINE
  8
0
 10
135
 20
926.5
 11
134.961
 21
927.127
  0
LINE
  8
0
 10
134.961
 20
927.127
 11
134.843
 21
927.743
  0
LINE
  8
0
 10
134.843
 20
927.743
 11
134.649
 21
928.341
  0
LINE
  8
0
 10
134.649
 20
928.341
 11
134.382
 21
928.909
  0
LINE
  8
0
 10
134.382
 20
928.909
 11
134.045
 21
929.439
  0
LINE
  8
0
 10
134.045
 20
929.439
 11
133.645
 21
929.923
  0
LINE
  8
0
 10
133.645
 20
929.923
 11
133.187
 21
930.353
  0
LINE
  8
0
 10
133.187
 20
930.353
 11
132.679
 21
930.722
  0
LINE
  8
0
 10
132.679
 20
930.722
 11
132.129
 21
931.024
  0
LINE
  8
0
 10
132.129
 20
931.024
 11
131.545
 21
931.255
  0
LINE
  8
0
 10
131.545
 20
931.255
 11
130.937
 21
931.411
  0
LINE
  8
0
 10
130.937
 20
931.411
 11
130.314
 21
931.49
  0
LINE
  8
0
 10
130.314
 20
931.49
 11
-130.314
 21
931.49
  0
LINE
  8
0
 10
-130.314
 20
931.49
 11
-130.937
 21
931.411
  0
LINE
  8
0
 10
-130.937
 20
931.411
 11
-131.545
 21
931.255
  0
LINE
  8
0
 10
-131.545
 20
931.255
 11
-132.129
 21
931.024
  0
LINE
  8
0
 10
-132.129
 20
931.024
 11
-132.679
 21
930.722
  0
LINE
  8
0
 10
-132.679
 20
930.722
 11
-133.187
 21
930.353
  0
LINE
  8
0
 10
-133.187
 20
930.353
 11
-133.5
 21
930.059
  0
LINE
  8
0
 10
-133.5
 20
930.059
 11
-133.5
 21
931.49
  0
LINE
  8
0
 10
-133.5
 20
931.49
 11
-136.5
 21
931.49
  0
LINE
  8
0
 10
-136.5
 20
931.49
 11
-136.5
 21
796.51
  0
LINE
  8
0
 10
-136.5
 20
796.51
 11
-133.5
 21
796.51
  0
LINE
  8
0
 10
-133.5
 20
796.51
 11
-133.5
 21
797.941
  0
LINE
  8
0
 10
-129.751
 20
798.008
 11
-130.25
 21
798.071
  0
LINE
  8
0
 10
-130.25
 20
798.071
 11
-130.736
 21
798.196
  0
LINE
  8
0
 10
-130.736
 20
798.196
 11
-131.203
 21
798.381
  0
LINE
  8
0
 10
-131.203
 20
798.381
 11
-131.643
 21
798.623
  0
LINE
  8
0
 10
-131.643
 20
798.623
 11
-132.05
 21
798.918
  0
LINE
  8
0
 10
-132.05
 20
798.918
 11
-132.416
 21
799.262
  0
LINE
  8
0
 10
-132.416
 20
799.262
 11
-132.736
 21
799.649
  0
LINE
  8
0
 10
-132.736
 20
799.649
 11
-133.005
 21
800.073
  0
LINE
  8
0
 10
-133.005
 20
800.073
 11
-133.219
 21
800.528
  0
LINE
  8
0
 10
-133.219
 20
800.528
 11
-133.374
 21
801.005
  0
LINE
  8
0
 10
-133.374
 20
801.005
 11
-133.468
 21
801.499
  0
LINE
  8
0
 10
-133.468
 20
801.499
 11
-133.5
 21
802
  0
LINE
  8
0
 10
-133.5
 20
802
 11
-133.5
 21
926
  0
LINE
  8
0
 10
-133.5
 20
926
 11
-133.468
 21
926.501
  0
LINE
  8
0
 10
-133.468
 20
926.501
 11
-133.374
 21
926.995
  0
LINE
  8
0
 10
-133.374
 20
926.995
 11
-133.219
 21
927.472
  0
LINE
  8
0
 10
-133.219
 20
927.472
 11
-133.005
 21
927.927
  0
LINE
  8
0
 10
-133.005
 20
927.927
 11
-132.736
 21
928.351
  0
LINE
  8
0
 10
-132.736
 20
928.351
 11
-132.416
 21
928.738
  0
LINE
  8
0
 10
-132.416
 20
928.738
 11
-132.05
 21
929.082
  0
LINE
  8
0
 10
-132.05
 20
929.082
 11
-131.643
 21
929.377
  0
LINE
  8
0
 10
-131.643
 20
929.377
 11
-131.203
 21
929.619
  0
LINE
  8
0
 10
-131.203
 20
929.619
 11
-130.736
 21
929.804
  0
LINE
  8
0
 10
-130.736
 20
929.804
 11
-130.25
 21
929.929
  0
LINE
  8
0
 10
-130.25
 20
929.929
 11
-129.751
 21
929.992
  0
LINE
  8
0
 10
-129.751
 20
929.992
 11
129.751
 21
929.992
  0
LINE
  8
0
 10
129.751
 20
929.992
 11
130.25
 21
929.929
  0
LINE
  8
0
 10
130.25
 20
929.929
 11
130.736
 21
929.804
  0
LINE
  8
0
 10
130.736
 20
929.804
 11
131.203
 21
929.619
  0
LINE
  8
0
 10
131.203
 20
929.619
 11
131.643
 21
929.377
  0
LINE
  8
0
 10
131.643
 20
929.377
 11
132.05
 21
929.082
  0
LINE
  8
0
 10
132.05
 20
929.082
 11
132.416
 21
928.738
  0
LINE
  8
0
 10
132.416
 20
928.738
 11
132.736
 21
928.351
  0
LINE
  8
0
 10
132.736
 20
928.351
 11
133.005
 21
927.927
  0
LINE
  8
0
 10
133.005
 20
927.927
 11
133.219
 21
927.472
  0
LINE
  8
0
 10
133.219
 20
927.472
 11
133.374
 21
926.995
  0
LINE
  8
0
 10
133.374
 20
926.995
 11
133.468
 21
926.501
  0
LINE
  8
0
 10
133.468
 20
926.501
 11
133.5
 21
926
  0
LINE
  8
0
 10
133.5
 20
926
 11
133.5
 21
802
  0
LINE
  8
0
 10
133.5
 20
802
 11
133.468
 21
801.499
  0
LINE
  8
0
 10
133.468
 20
801.499
 11
133.374
 21
801.005
  0
LINE
  8
0
 10
133.374
 20
801.005
 11
133.219
 21
800.528
  0
LINE
  8
0
 10
133.219
 20
800.528
 11
133.005
 21
800.073
  0
LINE
  8
0
 10
133.005
 20
800.073
 11
132.736
 21
799.649
  0
LINE
  8
0
 10
132.736
 20
799.649
 11
132.416
 21
799.262
  0
LINE
  8
0
 10
132.416
 20
799.262
 11
132.05
 21
798.918
  0
LINE
  8
0
 10
132.05
 20
798.918
 11
131.643
 21
798.623
  0
LINE
  8
0
 10
131.643
 20
798.623
 11
131.203
 21
798.381
  0
LINE
  8
0
 10
131.203
 20
798.381
 11
130.736
 21
798.196
  0
LINE
  8
0
 10
130.736
 20
798.196
 11
130.25
 21
798.071
  0
LINE
  8
0
 10
130.25
 20
798.071
 11
129.751
 21
798.008
  0
LINE
  8
0
 10
129.751
 20
798.008
 11
-129.751
 21
798.008
  0
LINE
  8
0
 10
-133.5
 20
653.941
 11
-133.187
 21
653.647
  0
LINE
  8
0
 10
-133.187
 20
653.647
 11
-132.679
 21
653.278
  0
LINE
  8
0
 10
-132.679
 20
653.278
 11
-132.129
 21
652.976
  0
LINE
  8
0
 10
-132.129
 20
652.976
 11
-131.545
 21
652.745
  0
LINE
  8
0
 10
-131.545
 20
652.745
 11
-130.937
 21
652.589
  0
LINE
  8
0
 10
-130.937
 20
652.589
 11
-130.314
 21
652.51
  0
LINE
  8
0
 10
-130.314
 20
652.51
 11
130.314
 21
652.51
  0
LINE
  8
0
 10
130.314
 20
652.51
 11
130.937
 21
652.589
  0
LINE
  8
0
 10
130.937
 20
652.589
 11
131.545
 21
652.745
  0
LINE
  8
0
 10
131.545
 20
652.745
 11
132.129
 21
652.976
  0
LINE
  8
0
 10
132.129
 20
652.976
 11
132.679
 21
653.278
  0
LINE
  8
0
 10
132.679
 20
653.278
 11
133.187
 21
653.647
  0
LINE
  8
0
 10
133.187
 20
653.647
 11
133.645
 21
654.077
  0
LINE
  8
0
 10
133.645
 20
654.077
 11
134.045
 21
654.561
  0
LINE
  8
0
 10
134.045
 20
654.561
 11
134.382
 21
655.091
  0
LINE
  8
0
 10
134.382
 20
655.091
 11
134.649
 21
655.659
  0
LINE
  8
0
 10
134.649
 20
655.659
 11
134.843
 21
656.257
  0
LINE
  8
0
 10
134.843
 20
656.257
 11
134.961
 21
656.873
  0
LINE
  8
0
 10
134.961
 20
656.873
 11
135
 21
657.5
  0
LINE
  8
0
 10
135
 20
657.5
 11
135
 21
782.5
  0
LINE
  8
0
 10
135
 20
782.5
 11
134.961
 21
783.127
  0
LINE
  8
0
 10
134.961
 20
783.127
 11
134.843
 21
783.743
  0
LINE
  8
0
 10
134.843
 20
783.743
 11
134.649
 21
784.341
  0
LINE
  8
0
 10
134.649
 20
784.341
 11
134.382
 21
784.909
  0
LINE
  8
0
 10
134.382
 20
784.909
 11
134.045
 21
785.439
  0
LINE
  8
0
 10
134.045
 20
785.439
 11
133.645
 21
785.923
  0
LINE
  8
0
 10
133.645
 20
785.923
 11
133.187
 21
786.353
  0
LINE
  8
0
 10
133.187
 20
786.353
 11
132.679
 21
786.722
  0
LINE
  8
0
 10
132.679
 20
786.722
 11
132.129
 21
787.024
  0
LINE
  8
0
 10
132.129
 20
787.024
 11
131.545
 21
787.255
  0
LINE
  8
0
 10
131.545
 20
787.255
 11
130.937
 21
787.411
  0
LINE
  8
0
 10
130.937
 20
787.411
 11
130.314
 21
787.49
  0
LINE
  8
0
 10
130.314
 20
787.49
 11
-130.314
 21
787.49
  0
LINE
  8
0
 10
-130.314
 20
787.49
 11
-130.937
 21
787.411
  0
LINE
  8
0
 10
-130.937
 20
787.411
 11
-131.545
 21
787.255
  0
LINE
  8
0
 10
-131.545
 20
787.255
 11
-132.129
 21
787.024
  0
LINE
  8
0
 10
-132.129
 20
787.024
 11
-132.679
 21
786.722
  0
LINE
  8
0
 10
-132.679
 20
786.722
 11
-133.187
 21
786.353
  0
LINE
  8
0
 10
-133.187
 20
786.353
 11
-133.5
 21
786.059
  0
LINE
  8
0
 10
-133.5
 20
786.059
 11
-133.5
 21
787.49
  0
LINE
  8
0
 10
-133.5
 20
787.49
 11
-136.5
 21
787.49
  0
LINE
  8
0
 10
-136.5
 20
787.49
 11
-136.5
 21
652.51
  0
LINE
  8
0
 10
-136.5
 20
652.51
 11
-133.5
 21
652.51
  0
LINE
  8
0
 10
-133.5
 20
652.51
 11
-133.5
 21
653.941
  0
LINE
  8
0
 10
-129.743
 20
654.135
 11
-130.226
 21
654.196
  0
LINE
  8
0
 10
-130.226
 20
654.196
 11
-130.697
 21
654.317
  0
LINE
  8
0
 10
-130.697
 20
654.317
 11
-131.149
 21
654.496
  0
LINE
  8
0
 10
-131.149
 20
654.496
 11
-131.575
 21
654.73
  0
LINE
  8
0
 10
-131.575
 20
654.73
 11
-131.969
 21
655.016
  0
LINE
  8
0
 10
-131.969
 20
655.016
 11
-132.323
 21
655.349
  0
LINE
  8
0
 10
-132.323
 20
655.349
 11
-132.633
 21
655.724
  0
LINE
  8
0
 10
-132.633
 20
655.724
 11
-132.894
 21
656.134
  0
LINE
  8
0
 10
-132.894
 20
656.134
 11
-133.101
 21
656.574
  0
LINE
  8
0
 10
-133.101
 20
656.574
 11
-133.251
 21
657.037
  0
LINE
  8
0
 10
-133.251
 20
657.037
 11
-133.342
 21
657.515
  0
LINE
  8
0
 10
-133.342
 20
657.515
 11
-133.373
 21
658
  0
LINE
  8
0
 10
-133.373
 20
658
 11
-133.373
 21
782
  0
LINE
  8
0
 10
-133.373
 20
782
 11
-133.342
 21
782.485
  0
LINE
  8
0
 10
-133.342
 20
782.485
 11
-133.251
 21
782.963
  0
LINE
  8
0
 10
-133.251
 20
782.963
 11
-133.101
 21
783.426
  0
LINE
  8
0
 10
-133.101
 20
783.426
 11
-132.894
 21
783.866
  0
LINE
  8
0
 10
-132.894
 20
783.866
 11
-132.633
 21
784.276
  0
LINE
  8
0
 10
-132.633
 20
784.276
 11
-132.323
 21
784.651
  0
LINE
  8
0
 10
-132.323
 20
784.651
 11
-131.969
 21
784.984
  0
LINE
  8
0
 10
-131.969
 20
784.984
 11
-131.575
 21
785.27
  0
LINE
  8
0
 10
-131.575
 20
785.27
 11
-131.149
 21
785.504
  0
LINE
  8
0
 10
-131.149
 20
785.504
 11
-130.697
 21
785.683
  0
LINE
  8
0
 10
-130.697
 20
785.683
 11
-130.226
 21
785.804
  0
LINE
  8
0
 10
-130.226
 20
785.804
 11
-129.743
 21
785.865
  0
LINE
  8
0
 10
-129.743
 20
785.865
 11
129.743
 21
785.865
  0
LINE
  8
0
 10
129.743
 20
785.865
 11
130.226
 21
785.804
  0
LINE
  8
0
 10
130.226
 20
785.804
 11
130.697
 21
785.683
  0
LINE
  8
0
 10
130.697
 20
785.683
 11
131.149
 21
785.504
  0
LINE
  8
0
 10
131.149
 20
785.504
 11
131.575
 21
785.27
  0
LINE
  8
0
 10
131.575
 20
785.27
 11
131.969
 21
784.984
  0
LINE
  8
0
 10
131.969
 20
784.984
 11
132.323
 21
784.651
  0
LINE
  8
0
 10
132.323
 20
784.651
 11
132.633
 21
784.276
  0
LINE
  8
0
 10
132.633
 20
784.276
 11
132.894
 21
783.866
  0
LINE
  8
0
 10
132.894
 20
783.866
 11
133.101
 21
783.426
  0
LINE
  8
0
 10
133.101
 20
783.426
 11
133.251
 21
782.963
  0
LINE
  8
0
 10
133.251
 20
782.963
 11
133.342
 21
782.485
  0
LINE
  8
0
 10
133.342
 20
782.485
 11
133.373
 21
782
  0
LINE
  8
0
 10
133.373
 20
782
 11
133.373
 21
658
  0
LINE
  8
0
 10
133.373
 20
658
 11
133.342
 21
657.515
  0
LINE
  8
0
 10
133.342
 20
657.515
 11
133.251
 21
657.037
  0
LINE
  8
0
 10
133.251
 20
657.037
 11
133.101
 21
656.574
  0
LINE
  8
0
 10
133.101
 20
656.574
 11
132.894
 21
656.134
  0
LINE
  8
0
 10
132.894
 20
656.134
 11
132.633
 21
655.724
  0
LINE
  8
0
 10
132.633
 20
655.724
 11
132.323
 21
655.349
  0
LINE
  8
0
 10
132.323
 20
655.349
 11
131.969
 21
655.016
  0
LINE
  8
0
 10
131.969
 20
655.016
 11
131.575
 21
654.73
  0
LINE
  8
0
 10
131.575
 20
654.73
 11
131.149
 21
654.496
  0
LINE
  8
0
 10
131.149
 20
654.496
 11
130.697
 21
654.317
  0
LINE
  8
0
 10
130.697
 20
654.317
 11
130.226
 21
654.196
  0
LINE
  8
0
 10
130.226
 20
654.196
 11
129.743
 21
654.135
  0
LINE
  8
0
 10
129.743
 20
654.135
 11
-129.743
 21
654.135
  0
LINE
  8
0
 10
130.937
 20
508.589
 11
131.545
 21
508.745
  0
LINE
  8
0
 10
131.545
 20
508.745
 11
132.129
 21
508.976
  0
LINE
  8
0
 10
132.129
 20
508.976
 11
132.679
 21
509.278
  0
LINE
  8
0
 10
132.679
 20
509.278
 11
133.187
 21
509.647
  0
LINE
  8
0
 10
133.187
 20
509.647
 11
133.645
 21
510.077
  0
LINE
  8
0
 10
133.645
 20
510.077
 11
134.045
 21
510.561
  0
LINE
  8
0
 10
134.045
 20
510.561
 11
134.382
 21
511.091
  0
LINE
  8
0
 10
134.382
 20
511.091
 11
134.649
 21
511.659
  0
LINE
  8
0
 10
134.649
 20
511.659
 11
134.843
 21
512.257
  0
LINE
  8
0
 10
134.843
 20
512.257
 11
134.961
 21
512.873
  0
LINE
  8
0
 10
134.961
 20
512.873
 11
135
 21
513.5
  0
LINE
  8
0
 10
135
 20
513.5
 11
135
 21
638.5
  0
LINE
  8
0
 10
135
 20
638.5
 11
134.961
 21
639.127
  0
LINE
  8
0
 10
134.961
 20
639.127
 11
134.843
 21
639.743
  0
LINE
  8
0
 10
134.843
 20
639.743
 11
134.649
 21
640.341
  0
LINE
  8
0
 10
134.649
 20
640.341
 11
134.382
 21
640.909
  0
LINE
  8
0
 10
134.382
 20
640.909
 11
134.045
 21
641.439
  0
LINE
  8
0
 10
134.045
 20
641.439
 11
133.645
 21
641.923
  0
LINE
  8
0
 10
133.645
 20
641.923
 11
133.187
 21
642.353
  0
LINE
  8
0
 10
133.187
 20
642.353
 11
132.679
 21
642.722
  0
LINE
  8
0
 10
132.679
 20
642.722
 11
132.129
 21
643.024
  0
LINE
  8
0
 10
132.129
 20
643.024
 11
131.545
 21
643.255
  0
LINE
  8
0
 10
131.545
 20
643.255
 11
130.937
 21
643.411
  0
LINE
  8
0
 10
130.937
 20
643.411
 11
130.314
 21
643.49
  0
LINE
  8
0
 10
130.314
 20
643.49
 11
-130.314
 21
643.49
  0
LINE
  8
0
 10
-130.314
 20
643.49
 11
-130.937
 21
643.411
  0
LINE
  8
0
 10
-130.937
 20
643.411
 11
-131.545
 21
643.255
  0
LINE
  8
0
 10
-131.545
 20
643.255
 11
-132.129
 21
643.024
  0
LINE
  8
0
 10
-132.129
 20
643.024
 11
-132.679
 21
642.722
  0
LINE
  8
0
 10
-132.679
 20
642.722
 11
-133.187
 21
642.353
  0
LINE
  8
0
 10
-133.187
 20
642.353
 11
-133.5
 21
642.059
  0
LINE
  8
0
 10
-133.5
 20
642.059
 11
-133.5
 21
643.115
  0
LINE
  8
0
 10
-133.5
 20
643.115
 11
-136.5
 21
643.115
  0
LINE
  8
0
 10
-136.5
 20
643.115
 11
-136.5
 21
508.885
  0
LINE
  8
0
 10
-136.5
 20
508.885
 11
-133.5
 21
508.885
  0
LINE
  8
0
 10
-133.5
 20
508.885
 11
-133.5
 21
509.941
  0
LINE
  8
0
 10
-133.5
 20
509.941
 11
-133.187
 21
509.647
  0
LINE
  8
0
 10
-133.187
 20
509.647
 11
-132.679
 21
509.278
  0
LINE
  8
0
 10
-132.679
 20
509.278
 11
-132.129
 21
508.976
  0
LINE
  8
0
 10
-132.129
 20
508.976
 11
-131.545
 21
508.745
  0
LINE
  8
0
 10
-131.545
 20
508.745
 11
-130.937
 21
508.589
  0
LINE
  8
0
 10
-130.937
 20
508.589
 11
-130.314
 21
508.51
  0
LINE
  8
0
 10
-130.314
 20
508.51
 11
130.314
 21
508.51
  0
LINE
  8
0
 10
130.314
 20
508.51
 11
130.937
 21
508.589
  0
LINE
  8
0
 10
127.349
 20
633.605
 11
127.05
 21
633.643
  0
LINE
  8
0
 10
127.05
 20
633.643
 11
126.758
 21
633.717
  0
LINE
  8
0
 10
126.758
 20
633.717
 11
126.478
 21
633.828
  0
LINE
  8
0
 10
126.478
 20
633.828
 11
126.214
 21
633.974
  0
LINE
  8
0
 10
126.214
 20
633.974
 11
125.97
 21
634.151
  0
LINE
  8
0
 10
125.97
 20
634.151
 11
125.75
 21
634.357
  0
LINE
  8
0
 10
125.75
 20
634.357
 11
125.558
 21
634.589
  0
LINE
  8
0
 10
125.558
 20
634.589
 11
125.397
 21
634.844
  0
LINE
  8
0
 10
125.397
 20
634.844
 11
125.269
 21
635.117
  0
LINE
  8
0
 10
125.269
 20
635.117
 11
125.175
 21
635.403
  0
LINE
  8
0
 10
125.175
 20
635.403
 11
125.119
 21
635.699
  0
LINE
  8
0
 10
125.119
 20
635.699
 11
125.1
 21
636
  0
LINE
  8
0
 10
125.1
 20
636
 11
125.119
 21
636.301
  0
LINE
  8
0
 10
125.119
 20
636.301
 11
125.175
 21
636.597
  0
LINE
  8
0
 10
125.175
 20
636.597
 11
125.269
 21
636.883
  0
LINE
  8
0
 10
125.269
 20
636.883
 11
125.397
 21
637.156
  0
LINE
  8
0
 10
125.397
 20
637.156
 11
125.558
 21
637.411
  0
LINE
  8
0
 10
125.558
 20
637.411
 11
125.75
 21
637.643
  0
LINE
  8
0
 10
125.75
 20
637.643
 11
125.97
 21
637.849
  0
LINE
  8
0
 10
125.97
 20
637.849
 11
126.214
 21
638.026
  0
LINE
  8
0
 10
126.214
 20
638.026
 11
126.478
 21
638.172
  0
LINE
  8
0
 10
126.478
 20
638.172
 11
126.758
 21
638.283
  0
LINE
  8
0
 10
126.758
 20
638.283
 11
127.05
 21
638.357
  0
LINE
  8
0
 10
127.05
 20
638.357
 11
127.349
 21
638.395
  0
LINE
  8
0
 10
127.349
 20
638.395
 11
127.651
 21
638.395
  0
LINE
  8
0
 10
127.651
 20
638.395
 11
127.95
 21
638.357
  0
LINE
  8
0
 10
127.95
 20
638.357
 11
128.242
 21
638.283
  0
LINE
  8
0
 10
128.242
 20
638.283
 11
128.522
 21
638.172
  0
LINE
  8
0
 10
128.522
 20
638.172
 11
128.786
 21
638.026
  0
LINE
  8
0
 10
128.786
 20
638.026
 11
129.03
 21
637.849
  0
LINE
  8
0
 10
129.03
 20
637.849
 11
129.25
 21
637.643
  0
LINE
  8
0
 10
129.25
 20
637.643
 11
129.442
 21
637.411
  0
LINE
  8
0
 10
129.442
 20
637.411
 11
129.603
 21
637.156
  0
LINE
  8
0
 10
129.603
 20
637.156
 11
129.731
 21
636.883
  0
LINE
  8
0
 10
129.731
 20
636.883
 11
129.825
 21
636.597
  0
LINE
  8
0
 10
129.825
 20
636.597
 11
129.881
 21
636.301
  0
LINE
  8
0
 10
129.881
 20
636.301
 11
129.9
 21
636
  0
LINE
  8
0
 10
129.9
 20
636
 11
129.881
 21
635.699
  0
LINE
  8
0
 10
129.881
 20
635.699
 11
129.825
 21
635.403
  0
LINE
  8
0
 10
129.825
 20
635.403
 11
129.731
 21
635.117
  0
LINE
  8
0
 10
129.731
 20
635.117
 11
129.603
 21
634.844
  0
LINE
  8
0
 10
129.603
 20
634.844
 11
129.442
 21
634.589
  0
LINE
  8
0
 10
129.442
 20
634.589
 11
129.25
 21
634.357
  0
LINE
  8
0
 10
129.25
 20
634.357
 11
129.03
 21
634.151
  0
LINE
  8
0
 10
129.03
 20
634.151
 11
128.786
 21
633.974
  0
LINE
  8
0
 10
128.786
 20
633.974
 11
128.522
 21
633.828
  0
LINE
  8
0
 10
128.522
 20
633.828
 11
128.242
 21
633.717
  0
LINE
  8
0
 10
128.242
 20
633.717
 11
127.95
 21
633.643
  0
LINE
  8
0
 10
127.95
 20
633.643
 11
127.651
 21
633.605
  0
LINE
  8
0
 10
127.651
 20
633.605
 11
127.349
 21
633.605
  0
LINE
  8
0
 10
-127.651
 20
633.605
 11
-127.95
 21
633.643
  0
LINE
  8
0
 10
-127.95
 20
633.643
 11
-128.242
 21
633.717
  0
LINE
  8
0
 10
-128.242
 20
633.717
 11
-128.522
 21
633.828
  0
LINE
  8
0
 10
-128.522
 20
633.828
 11
-128.786
 21
633.974
  0
LINE
  8
0
 10
-128.786
 20
633.974
 11
-129.03
 21
634.151
  0
LINE
  8
0
 10
-129.03
 20
634.151
 11
-129.25
 21
634.357
  0
LINE
  8
0
 10
-129.25
 20
634.357
 11
-129.442
 21
634.589
  0
LINE
  8
0
 10
-129.442
 20
634.589
 11
-129.603
 21
634.844
  0
LINE
  8
0
 10
-129.603
 20
634.844
 11
-129.731
 21
635.117
  0
LINE
  8
0
 10
-129.731
 20
635.117
 11
-129.825
 21
635.403
  0
LINE
  8
0
 10
-129.825
 20
635.403
 11
-129.881
 21
635.699
  0
LINE
  8
0
 10
-129.881
 20
635.699
 11
-129.9
 21
636
  0
LINE
  8
0
 10
-129.9
 20
636
 11
-129.881
 21
636.301
  0
LINE
  8
0
 10
-129.881
 20
636.301
 11
-129.825
 21
636.597
  0
LINE
  8
0
 10
-129.825
 20
636.597
 11
-129.731
 21
636.883
  0
LINE
  8
0
 10
-129.731
 20
636.883
 11
-129.603
 21
637.156
  0
LINE
  8
0
 10
-129.603
 20
637.156
 11
-129.442
 21
637.411
  0
LINE
  8
0
 10
-129.442
 20
637.411
 11
-129.25
 21
637.643
  0
LINE
  8
0
 10
-129.25
 20
637.643
 11
-129.03
 21
637.849
  0
LINE
  8
0
 10
-129.03
 20
637.849
 11
-128.786
 21
638.026
  0
LINE
  8
0
 10
-128.786
 20
638.026
 11
-128.522
 21
638.172
  0
LINE
  8
0
 10
-128.522
 20
638.172
 11
-128.242
 21
638.283
  0
LINE
  8
0
 10
-128.242
 20
638.283
 11
-127.95
 21
638.357
  0
LINE
  8
0
 10
-127.95
 20
638.357
 11
-127.651
 21
638.395
  0
LINE
  8
0
 10
-127.651
 20
638.395
 11
-127.349
 21
638.395
  0
LINE
  8
0
 10
-127.349
 20
638.395
 11
-127.05
 21
638.357
  0
LINE
  8
0
 10
-127.05
 20
638.357
 11
-126.758
 21
638.283
  0
LINE
  8
0
 10
-126.758
 20
638.283
 11
-126.478
 21
638.172
  0
LINE
  8
0
 10
-126.478
 20
638.172
 11
-126.214
 21
638.026
  0
LINE
  8
0
 10
-126.214
 20
638.026
 11
-125.97
 21
637.849
  0
LINE
  8
0
 10
-125.97
 20
637.849
 11
-125.75
 21
637.643
  0
LINE
  8
0
 10
-125.75
 20
637.643
 11
-125.558
 21
637.411
  0
LINE
  8
0
 10
-125.558
 20
637.411
 11
-125.397
 21
637.156
  0
LINE
  8
0
 10
-125.397
 20
637.156
 11
-125.269
 21
636.883
  0
LINE
  8
0
 10
-125.269
 20
636.883
 11
-125.175
 21
636.597
  0
LINE
  8
0
 10
-125.175
 20
636.597
 11
-125.119
 21
636.301
  0
LINE
  8
0
 10
-125.119
 20
636.301
 11
-125.1
 21
636
  0
LINE
  8
0
 10
-125.1
 20
636
 11
-125.119
 21
635.699
  0
LINE
  8
0
 10
-125.119
 20
635.699
 11
-125.175
 21
635.403
  0
LINE
  8
0
 10
-125.175
 20
635.403
 11
-125.269
 21
635.117
  0
LINE
  8
0
 10
-125.269
 20
635.117
 11
-125.397
 21
634.844
  0
LINE
  8
0
 10
-125.397
 20
634.844
 11
-125.558
 21
634.589
  0
LINE
  8
0
 10
-125.558
 20
634.589
 11
-125.75
 21
634.357
  0
LINE
  8
0
 10
-125.75
 20
634.357
 11
-125.97
 21
634.151
  0
LINE
  8
0
 10
-125.97
 20
634.151
 11
-126.214
 21
633.974
  0
LINE
  8
0
 10
-126.214
 20
633.974
 11
-126.478
 21
633.828
  0
LINE
  8
0
 10
-126.478
 20
633.828
 11
-126.758
 21
633.717
  0
LINE
  8
0
 10
-126.758
 20
633.717
 11
-127.05
 21
633.643
  0
LINE
  8
0
 10
-127.05
 20
633.643
 11
-127.349
 21
633.605
  0
LINE
  8
0
 10
-127.349
 20
633.605
 11
-127.651
 21
633.605
  0
LINE
  8
0
 10
127.349
 20
513.605
 11
127.05
 21
513.643
  0
LINE
  8
0
 10
127.05
 20
513.643
 11
126.758
 21
513.717
  0
LINE
  8
0
 10
126.758
 20
513.717
 11
126.478
 21
513.828
  0
LINE
  8
0
 10
126.478
 20
513.828
 11
126.214
 21
513.974
  0
LINE
  8
0
 10
126.214
 20
513.974
 11
125.97
 21
514.151
  0
LINE
  8
0
 10
125.97
 20
514.151
 11
125.75
 21
514.357
  0
LINE
  8
0
 10
125.75
 20
514.357
 11
125.558
 21
514.589
  0
LINE
  8
0
 10
125.558
 20
514.589
 11
125.397
 21
514.844
  0
LINE
  8
0
 10
125.397
 20
514.844
 11
125.269
 21
515.117
  0
LINE
  8
0
 10
125.269
 20
515.117
 11
125.175
 21
515.403
  0
LINE
  8
0
 10
125.175
 20
515.403
 11
125.119
 21
515.699
  0
LINE
  8
0
 10
125.119
 20
515.699
 11
125.1
 21
516
  0
LINE
  8
0
 10
125.1
 20
516
 11
125.119
 21
516.301
  0
LINE
  8
0
 10
125.119
 20
516.301
 11
125.175
 21
516.597
  0
LINE
  8
0
 10
125.175
 20
516.597
 11
125.269
 21
516.883
  0
LINE
  8
0
 10
125.269
 20
516.883
 11
125.397
 21
517.156
  0
LINE
  8
0
 10
125.397
 20
517.156
 11
125.558
 21
517.411
  0
LINE
  8
0
 10
125.558
 20
517.411
 11
125.75
 21
517.643
  0
LINE
  8
0
 10
125.75
 20
517.643
 11
125.97
 21
517.849
  0
LINE
  8
0
 10
125.97
 20
517.849
 11
126.214
 21
518.026
  0
LINE
  8
0
 10
126.214
 20
518.026
 11
126.478
 21
518.172
  0
LINE
  8
0
 10
126.478
 20
518.172
 11
126.758
 21
518.283
  0
LINE
  8
0
 10
126.758
 20
518.283
 11
127.05
 21
518.357
  0
LINE
  8
0
 10
127.05
 20
518.357
 11
127.349
 21
518.395
  0
LINE
  8
0
 10
127.349
 20
518.395
 11
127.651
 21
518.395
  0
LINE
  8
0
 10
127.651
 20
518.395
 11
127.95
 21
518.357
  0
LINE
  8
0
 10
127.95
 20
518.357
 11
128.242
 21
518.283
  0
LINE
  8
0
 10
128.242
 20
518.283
 11
128.522
 21
518.172
  0
LINE
  8
0
 10
128.522
 20
518.172
 11
128.786
 21
518.026
  0
LINE
  8
0
 10
128.786
 20
518.026
 11
129.03
 21
517.849
  0
LINE
  8
0
 10
129.03
 20
517.849
 11
129.25
 21
517.643
  0
LINE
  8
0
 10
129.25
 20
517.643
 11
129.442
 21
517.411
  0
LINE
  8
0
 10
129.442
 20
517.411
 11
129.603
 21
517.156
  0
LINE
  8
0
 10
129.603
 20
517.156
 11
129.731
 21
516.883
  0
LINE
  8
0
 10
129.731
 20
516.883
 11
129.825
 21
516.597
  0
LINE
  8
0
 10
129.825
 20
516.597
 11
129.881
 21
516.301
  0
LINE
  8
0
 10
129.881
 20
516.301
 11
129.9
 21
516
  0
LINE
  8
0
 10
129.9
 20
516
 11
129.881
 21
515.699
  0
LINE
  8
0
 10
129.881
 20
515.699
 11
129.825
 21
515.403
  0
LINE
  8
0
 10
129.825
 20
515.403
 11
129.731
 21
515.117
  0
LINE
  8
0
 10
129.731
 20
515.117
 11
129.603
 21
514.844
  0
LINE
  8
0
 10
129.603
 20
514.844
 11
129.442
 21
514.589
  0
LINE
  8
0
 10
129.442
 20
514.589
 11
129.25
 21
514.357
  0
LINE
  8
0
 10
129.25
 20
514.357
 11
129.03
 21
514.151
  0
LINE
  8
0
 10
129.03
 20
514.151
 11
128.786
 21
513.974
  0
LINE
  8
0
 10
128.786
 20
513.974
 11
128.522
 21
513.828
  0
LINE
  8
0
 10
128.522
 20
513.828
 11
128.242
 21
513.717
  0
LINE
  8
0
 10
128.242
 20
513.717
 11
127.95
 21
513.643
  0
LINE
  8
0
 10
127.95
 20
513.643
 11
127.651
 21
513.605
  0
LINE
  8
0
 10
127.651
 20
513.605
 11
127.349
 21
513.605
  0
LINE
  8
0
 10
-127.651
 20
513.605
 11
-127.95
 21
513.643
  0
LINE
  8
0
 10
-127.95
 20
513.643
 11
-128.242
 21
513.717
  0
LINE
  8
0
 10
-128.242
 20
513.717
 11
-128.522
 21
513.828
  0
LINE
  8
0
 10
-128.522
 20
513.828
 11
-128.786
 21
513.974
  0
LINE
  8
0
 10
-128.786
 20
513.974
 11
-129.03
 21
514.151
  0
LINE
  8
0
 10
-129.03
 20
514.151
 11
-129.25
 21
514.357
  0
LINE
  8
0
 10
-129.25
 20
514.357
 11
-129.442
 21
514.589
  0
LINE
  8
0
 10
-129.442
 20
514.589
 11
-129.603
 21
514.844
  0
LINE
  8
0
 10
-129.603
 20
514.844
 11
-129.731
 21
515.117
  0
LINE
  8
0
 10
-129.731
 20
515.117
 11
-129.825
 21
515.403
  0
LINE
  8
0
 10
-129.825
 20
515.403
 11
-129.881
 21
515.699
  0
LINE
  8
0
 10
-129.881
 20
515.699
 11
-129.9
 21
516
  0
LINE
  8
0
 10
-129.9
 20
516
 11
-129.881
 21
516.301
  0
LINE
  8
0
 10
-129.881
 20
516.301
 11
-129.825
 21
516.597
  0
LINE
  8
0
 10
-129.825
 20
516.597
 11
-129.731
 21
516.883
  0
LINE
  8
0
 10
-129.731
 20
516.883
 11
-129.603
 21
517.156
  0
LINE
  8
0
 10
-129.603
 20
517.156
 11
-129.442
 21
517.411
  0
LINE
  8
0
 10
-129.442
 20
517.411
 11
-129.25
 21
517.643
  0
LINE
  8
0
 10
-129.25
 20
517.643
 11
-129.03
 21
517.849
  0
LINE
  8
0
 10
-129.03
 20
517.849
 11
-128.786
 21
518.026
  0
LINE
  8
0
 10
-128.786
 20
518.026
 11
-128.522
 21
518.172
  0
LINE
  8
0
 10
-128.522
 20
518.172
 11
-128.242
 21
518.283
  0
LINE
  8
0
 10
-128.242
 20
518.283
 11
-127.95
 21
518.357
  0
LINE
  8
0
 10
-127.95
 20
518.357
 11
-127.651
 21
518.395
  0
LINE
  8
0
 10
-127.651
 20
518.395
 11
-127.349
 21
518.395
  0
LINE
  8
0
 10
-127.349
 20
518.395
 11
-127.05
 21
518.357
  0
LINE
  8
0
 10
-127.05
 20
518.357
 11
-126.758
 21
518.283
  0
LINE
  8
0
 10
-126.758
 20
518.283
 11
-126.478
 21
518.172
  0
LINE
  8
0
 10
-126.478
 20
518.172
 11
-126.214
 21
518.026
  0
LINE
  8
0
 10
-126.214
 20
518.026
 11
-125.97
 21
517.849
  0
LINE
  8
0
 10
-125.97
 20
517.849
 11
-125.75
 21
517.643
  0
LINE
  8
0
 10
-125.75
 20
517.643
 11
-125.558
 21
517.411
  0
LINE
  8
0
 10
-125.558
 20
517.411
 11
-125.397
 21
517.156
  0
LINE
  8
0
 10
-125.397
 20
517.156
 11
-125.269
 21
516.883
  0
LINE
  8
0
 10
-125.269
 20
516.883
 11
-125.175
 21
516.597
  0
LINE
  8
0
 10
-125.175
 20
516.597
 11
-125.119
 21
516.301
  0
LINE
  8
0
 10
-125.119
 20
516.301
 11
-125.1
 21
516
  0
LINE
  8
0
 10
-125.1
 20
516
 11
-125.119
 21
515.699
  0
LINE
  8
0
 10
-125.119
 20
515.699
 11
-125.175
 21
515.403
  0
LINE
  8
0
 10
-125.175
 20
515.403
 11
-125.269
 21
515.117
  0
LINE
  8
0
 10
-125.269
 20
515.117
 11
-125.397
 21
514.844
  0
LINE
  8
0
 10
-125.397
 20
514.844
 11
-125.558
 21
514.589
  0
LINE
  8
0
 10
-125.558
 20
514.589
 11
-125.75
 21
514.357
  0
LINE
  8
0
 10
-125.75
 20
514.357
 11
-125.97
 21
514.151
  0
LINE
  8
0
 10
-125.97
 20
514.151
 11
-126.214
 21
513.974
  0
LINE
  8
0
 10
-126.214
 20
513.974
 11
-126.478
 21
513.828
  0
LINE
  8
0
 10
-126.478
 20
513.828
 11
-126.758
 21
513.717
  0
LINE
  8
0
 10
-126.758
 20
513.717
 11
-127.05
 21
513.643
  0
LINE
  8
0
 10
-127.05
 20
513.643
 11
-127.349
 21
513.605
  0
LINE
  8
0
 10
-127.349
 20
513.605
 11
-127.651
 21
513.605
  0
LINE
  8
0
 10
130.937
 20
364.589
 11
131.545
 21
364.745
  0
LINE
  8
0
 10
131.545
 20
364.745
 11
132.129
 21
364.976
  0
LINE
  8
0
 10
132.129
 20
364.976
 11
132.679
 21
365.278
  0
LINE
  8
0
 10
132.679
 20
365.278
 11
133.187
 21
365.647
  0
LINE
  8
0
 10
133.187
 20
365.647
 11
133.645
 21
366.077
  0
LINE
  8
0
 10
133.645
 20
366.077
 11
134.045
 21
366.561
  0
LINE
  8
0
 10
134.045
 20
366.561
 11
134.382
 21
367.091
  0
LINE
  8
0
 10
134.382
 20
367.091
 11
134.649
 21
367.659
  0
LINE
  8
0
 10
134.649
 20
367.659
 11
134.843
 21
368.257
  0
LINE
  8
0
 10
134.843
 20
368.257
 11
134.961
 21
368.873
  0
LINE
  8
0
 10
134.961
 20
368.873
 11
135
 21
369.5
  0
LINE
  8
0
 10
135
 20
369.5
 11
135
 21
494.5
  0
LINE
  8
0
 10
135
 20
494.5
 11
134.961
 21
495.127
  0
LINE
  8
0
 10
134.961
 20
495.127
 11
134.843
 21
495.743
  0
LINE
  8
0
 10
134.843
 20
495.743
 11
134.649
 21
496.341
  0
LINE
  8
0
 10
134.649
 20
496.341
 11
134.382
 21
496.909
  0
LINE
  8
0
 10
134.382
 20
496.909
 11
134.045
 21
497.439
  0
LINE
  8
0
 10
134.045
 20
497.439
 11
133.645
 21
497.923
  0
LINE
  8
0
 10
133.645
 20
497.923
 11
133.187
 21
498.353
  0
LINE
  8
0
 10
133.187
 20
498.353
 11
132.679
 21
498.722
  0
LINE
  8
0
 10
132.679
 20
498.722
 11
132.129
 21
499.024
  0
LINE
  8
0
 10
132.129
 20
499.024
 11
131.545
 21
499.255
  0
LINE
  8
0
 10
131.545
 20
499.255
 11
130.937
 21
499.411
  0
LINE
  8
0
 10
130.937
 20
499.411
 11
130.314
 21
499.49
  0
LINE
  8
0
 10
130.314
 20
499.49
 11
-130.314
 21
499.49
  0
LINE
  8
0
 10
-130.314
 20
499.49
 11
-130.937
 21
499.411
  0
LINE
  8
0
 10
-130.937
 20
499.411
 11
-131.545
 21
499.255
  0
LINE
  8
0
 10
-131.545
 20
499.255
 11
-132.129
 21
499.024
  0
LINE
  8
0
 10
-132.129
 20
499.024
 11
-132.679
 21
498.722
  0
LINE
  8
0
 10
-132.679
 20
498.722
 11
-133.187
 21
498.353
  0
LINE
  8
0
 10
-133.187
 20
498.353
 11
-133.645
 21
497.923
  0
LINE
  8
0
 10
-133.645
 20
497.923
 11
-134.045
 21
497.439
  0
LINE
  8
0
 10
-134.045
 20
497.439
 11
-134.382
 21
496.909
  0
LINE
  8
0
 10
-134.382
 20
496.909
 11
-134.649
 21
496.341
  0
LINE
  8
0
 10
-134.649
 20
496.341
 11
-134.843
 21
495.743
  0
LINE
  8
0
 10
-134.843
 20
495.743
 11
-134.9
 21
495.444
  0
LINE
  8
0
 10
-134.9
 20
495.444
 11
-136.5
 21
495.444
  0
LINE
  8
0
 10
-136.5
 20
495.444
 11
-136.5
 21
368.556
  0
LINE
  8
0
 10
-136.5
 20
368.556
 11
-134.9
 21
368.556
  0
LINE
  8
0
 10
-134.9
 20
368.556
 11
-134.843
 21
368.257
  0
LINE
  8
0
 10
-134.843
 20
368.257
 11
-134.649
 21
367.659
  0
LINE
  8
0
 10
-134.649
 20
367.659
 11
-134.382
 21
367.091
  0
LINE
  8
0
 10
-134.382
 20
367.091
 11
-134.045
 21
366.561
  0
LINE
  8
0
 10
-134.045
 20
366.561
 11
-133.645
 21
366.077
  0
LINE
  8
0
 10
-133.645
 20
366.077
 11
-133.187
 21
365.647
  0
LINE
  8
0
 10
-133.187
 20
365.647
 11
-132.679
 21
365.278
  0
LINE
  8
0
 10
-132.679
 20
365.278
 11
-132.129
 21
364.976
  0
LINE
  8
0
 10
-132.129
 20
364.976
 11
-131.545
 21
364.745
  0
LINE
  8
0
 10
-131.545
 20
364.745
 11
-130.937
 21
364.589
  0
LINE
  8
0
 10
-130.937
 20
364.589
 11
-130.314
 21
364.51
  0
LINE
  8
0
 10
-130.314
 20
364.51
 11
130.314
 21
364.51
  0
LINE
  8
0
 10
130.314
 20
364.51
 11
130.937
 21
364.589
  0
LINE
  8
0
 10
-127.613
 20
490.204
 11
-127.837
 21
490.232
  0
LINE
  8
0
 10
-127.837
 20
490.232
 11
-128.056
 21
490.288
  0
LINE
  8
0
 10
-128.056
 20
490.288
 11
-128.266
 21
490.371
  0
LINE
  8
0
 10
-128.266
 20
490.371
 11
-128.464
 21
490.48
  0
LINE
  8
0
 10
-128.464
 20
490.48
 11
-128.647
 21
490.613
  0
LINE
  8
0
 10
-128.647
 20
490.613
 11
-128.812
 21
490.768
  0
LINE
  8
0
 10
-128.812
 20
490.768
 11
-128.956
 21
490.942
  0
LINE
  8
0
 10
-128.956
 20
490.942
 11
-129.077
 21
491.133
  0
LINE
  8
0
 10
-129.077
 20
491.133
 11
-129.174
 21
491.337
  0
LINE
  8
0
 10
-129.174
 20
491.337
 11
-129.243
 21
491.552
  0
LINE
  8
0
 10
-129.243
 20
491.552
 11
-129.286
 21
491.774
  0
LINE
  8
0
 10
-129.286
 20
491.774
 11
-129.3
 21
492
  0
LINE
  8
0
 10
-129.3
 20
492
 11
-129.286
 21
492.226
  0
LINE
  8
0
 10
-129.286
 20
492.226
 11
-129.243
 21
492.448
  0
LINE
  8
0
 10
-129.243
 20
492.448
 11
-129.174
 21
492.663
  0
LINE
  8
0
 10
-129.174
 20
492.663
 11
-129.077
 21
492.867
  0
LINE
  8
0
 10
-129.077
 20
492.867
 11
-128.956
 21
493.058
  0
LINE
  8
0
 10
-128.956
 20
493.058
 11
-128.812
 21
493.232
  0
LINE
  8
0
 10
-128.812
 20
493.232
 11
-128.647
 21
493.387
  0
LINE
  8
0
 10
-128.647
 20
493.387
 11
-128.464
 21
493.52
  0
LINE
  8
0
 10
-128.464
 20
493.52
 11
-128.266
 21
493.629
  0
LINE
  8
0
 10
-128.266
 20
493.629
 11
-128.056
 21
493.712
  0
LINE
  8
0
 10
-128.056
 20
493.712
 11
-127.837
 21
493.768
  0
LINE
  8
0
 10
-127.837
 20
493.768
 11
-127.613
 21
493.796
  0
LINE
  8
0
 10
-127.613
 20
493.796
 11
-127.387
 21
493.796
  0
LINE
  8
0
 10
-127.387
 20
493.796
 11
-127.163
 21
493.768
  0
LINE
  8
0
 10
-127.163
 20
493.768
 11
-126.944
 21
493.712
  0
LINE
  8
0
 10
-126.944
 20
493.712
 11
-126.734
 21
493.629
  0
LINE
  8
0
 10
-126.734
 20
493.629
 11
-126.536
 21
493.52
  0
LINE
  8
0
 10
-126.536
 20
493.52
 11
-126.353
 21
493.387
  0
LINE
  8
0
 10
-126.353
 20
493.387
 11
-126.188
 21
493.232
  0
LINE
  8
0
 10
-126.188
 20
493.232
 11
-126.044
 21
493.058
  0
LINE
  8
0
 10
-126.044
 20
493.058
 11
-125.923
 21
492.867
  0
LINE
  8
0
 10
-125.923
 20
492.867
 11
-125.826
 21
492.663
  0
LINE
  8
0
 10
-125.826
 20
492.663
 11
-125.757
 21
492.448
  0
LINE
  8
0
 10
-125.757
 20
492.448
 11
-125.714
 21
492.226
  0
LINE
  8
0
 10
-125.714
 20
492.226
 11
-125.7
 21
492
  0
LINE
  8
0
 10
-125.7
 20
492
 11
-125.714
 21
491.774
  0
LINE
  8
0
 10
-125.714
 20
491.774
 11
-125.757
 21
491.552
  0
LINE
  8
0
 10
-125.757
 20
491.552
 11
-125.826
 21
491.337
  0
LINE
  8
0
 10
-125.826
 20
491.337
 11
-125.923
 21
491.133
  0
LINE
  8
0
 10
-125.923
 20
491.133
 11
-126.044
 21
490.942
  0
LINE
  8
0
 10
-126.044
 20
490.942
 11
-126.188
 21
490.768
  0
LINE
  8
0
 10
-126.188
 20
490.768
 11
-126.353
 21
490.613
  0
LINE
  8
0
 10
-126.353
 20
490.613
 11
-126.536
 21
490.48
  0
LINE
  8
0
 10
-126.536
 20
490.48
 11
-126.734
 21
490.371
  0
LINE
  8
0
 10
-126.734
 20
490.371
 11
-126.944
 21
490.288
  0
LINE
  8
0
 10
-126.944
 20
490.288
 11
-127.163
 21
490.232
  0
LINE
  8
0
 10
-127.163
 20
490.232
 11
-127.387
 21
490.204
  0
LINE
  8
0
 10
-127.387
 20
490.204
 11
-127.613
 21
490.204
  0
LINE
  8
0
 10
127.387
 20
490.204
 11
127.163
 21
490.232
  0
LINE
  8
0
 10
127.163
 20
490.232
 11
126.944
 21
490.288
  0
LINE
  8
0
 10
126.944
 20
490.288
 11
126.734
 21
490.371
  0
LINE
  8
0
 10
126.734
 20
490.371
 11
126.536
 21
490.48
  0
LINE
  8
0
 10
126.536
 20
490.48
 11
126.353
 21
490.613
  0
LINE
  8
0
 10
126.353
 20
490.613
 11
126.188
 21
490.768
  0
LINE
  8
0
 10
126.188
 20
490.768
 11
126.044
 21
490.942
  0
LINE
  8
0
 10
126.044
 20
490.942
 11
125.923
 21
491.133
  0
LINE
  8
0
 10
125.923
 20
491.133
 11
125.826
 21
491.337
  0
LINE
  8
0
 10
125.826
 20
491.337
 11
125.757
 21
491.552
  0
LINE
  8
0
 10
125.757
 20
491.552
 11
125.714
 21
491.774
  0
LINE
  8
0
 10
125.714
 20
491.774
 11
125.7
 21
492
  0
LINE
  8
0
 10
125.7
 20
492
 11
125.714
 21
492.226
  0
LINE
  8
0
 10
125.714
 20
492.226
 11
125.757
 21
492.448
  0
LINE
  8
0
 10
125.757
 20
492.448
 11
125.826
 21
492.663
  0
LINE
  8
0
 10
125.826
 20
492.663
 11
125.923
 21
492.867
  0
LINE
  8
0
 10
125.923
 20
492.867
 11
126.044
 21
493.058
  0
LINE
  8
0
 10
126.044
 20
493.058
 11
126.188
 21
493.232
  0
LINE
  8
0
 10
126.188
 20
493.232
 11
126.353
 21
493.387
  0
LINE
  8
0
 10
126.353
 20
493.387
 11
126.536
 21
493.52
  0
LINE
  8
0
 10
126.536
 20
493.52
 11
126.734
 21
493.629
  0
LINE
  8
0
 10
126.734
 20
493.629
 11
126.944
 21
493.712
  0
LINE
  8
0
 10
126.944
 20
493.712
 11
127.163
 21
493.768
  0
LINE
  8
0
 10
127.163
 20
493.768
 11
127.387
 21
493.796
  0
LINE
  8
0
 10
127.387
 20
493.796
 11
127.613
 21
493.796
  0
LINE
  8
0
 10
127.613
 20
493.796
 11
127.837
 21
493.768
  0
LINE
  8
0
 10
127.837
 20
493.768
 11
128.056
 21
493.712
  0
LINE
  8
0
 10
128.056
 20
493.712
 11
128.266
 21
493.629
  0
LINE
  8
0
 10
128.266
 20
493.629
 11
128.464
 21
493.52
  0
LINE
  8
0
 10
128.464
 20
493.52
 11
128.647
 21
493.387
  0
LINE
  8
0
 10
128.647
 20
493.387
 11
128.812
 21
493.232
  0
LINE
  8
0
 10
128.812
 20
493.232
 11
128.956
 21
493.058
  0
LINE
  8
0
 10
128.956
 20
493.058
 11
129.077
 21
492.867
  0
LINE
  8
0
 10
129.077
 20
492.867
 11
129.174
 21
492.663
  0
LINE
  8
0
 10
129.174
 20
492.663
 11
129.243
 21
492.448
  0
LINE
  8
0
 10
129.243
 20
492.448
 11
129.286
 21
492.226
  0
LINE
  8
0
 10
129.286
 20
492.226
 11
129.3
 21
492
  0
LINE
  8
0
 10
129.3
 20
492
 11
129.286
 21
491.774
  0
LINE
  8
0
 10
129.286
 20
491.774
 11
129.243
 21
491.552
  0
LINE
  8
0
 10
129.243
 20
491.552
 11
129.174
 21
491.337
  0
LINE
  8
0
 10
129.174
 20
491.337
 11
129.077
 21
491.133
  0
LINE
  8
0
 10
129.077
 20
491.133
 11
128.956
 21
490.942
  0
LINE
  8
0
 10
128.956
 20
490.942
 11
128.812
 21
490.768
  0
LINE
  8
0
 10
128.812
 20
490.768
 11
128.647
 21
490.613
  0
LINE
  8
0
 10
128.647
 20
490.613
 11
128.464
 21
490.48
  0
LINE
  8
0
 10
128.464
 20
490.48
 11
128.266
 21
490.371
  0
LINE
  8
0
 10
128.266
 20
490.371
 11
128.056
 21
490.288
  0
LINE
  8
0
 10
128.056
 20
490.288
 11
127.837
 21
490.232
  0
LINE
  8
0
 10
127.837
 20
490.232
 11
127.613
 21
490.204
  0
LINE
  8
0
 10
127.613
 20
490.204
 11
127.387
 21
490.204
  0
LINE
  8
0
 10
-127.613
 20
370.204
 11
-127.837
 21
370.232
  0
LINE
  8
0
 10
-127.837
 20
370.232
 11
-128.056
 21
370.288
  0
LINE
  8
0
 10
-128.056
 20
370.288
 11
-128.266
 21
370.371
  0
LINE
  8
0
 10
-128.266
 20
370.371
 11
-128.464
 21
370.48
  0
LINE
  8
0
 10
-128.464
 20
370.48
 11
-128.647
 21
370.613
  0
LINE
  8
0
 10
-128.647
 20
370.613
 11
-128.812
 21
370.768
  0
LINE
  8
0
 10
-128.812
 20
370.768
 11
-128.956
 21
370.942
  0
LINE
  8
0
 10
-128.956
 20
370.942
 11
-129.077
 21
371.133
  0
LINE
  8
0
 10
-129.077
 20
371.133
 11
-129.174
 21
371.337
  0
LINE
  8
0
 10
-129.174
 20
371.337
 11
-129.243
 21
371.552
  0
LINE
  8
0
 10
-129.243
 20
371.552
 11
-129.286
 21
371.774
  0
LINE
  8
0
 10
-129.286
 20
371.774
 11
-129.3
 21
372
  0
LINE
  8
0
 10
-129.3
 20
372
 11
-129.286
 21
372.226
  0
LINE
  8
0
 10
-129.286
 20
372.226
 11
-129.243
 21
372.448
  0
LINE
  8
0
 10
-129.243
 20
372.448
 11
-129.174
 21
372.663
  0
LINE
  8
0
 10
-129.174
 20
372.663
 11
-129.077
 21
372.867
  0
LINE
  8
0
 10
-129.077
 20
372.867
 11
-128.956
 21
373.058
  0
LINE
  8
0
 10
-128.956
 20
373.058
 11
-128.812
 21
373.232
  0
LINE
  8
0
 10
-128.812
 20
373.232
 11
-128.647
 21
373.387
  0
LINE
  8
0
 10
-128.647
 20
373.387
 11
-128.464
 21
373.52
  0
LINE
  8
0
 10
-128.464
 20
373.52
 11
-128.266
 21
373.629
  0
LINE
  8
0
 10
-128.266
 20
373.629
 11
-128.056
 21
373.712
  0
LINE
  8
0
 10
-128.056
 20
373.712
 11
-127.837
 21
373.768
  0
LINE
  8
0
 10
-127.837
 20
373.768
 11
-127.613
 21
373.796
  0
LINE
  8
0
 10
-127.613
 20
373.796
 11
-127.387
 21
373.796
  0
LINE
  8
0
 10
-127.387
 20
373.796
 11
-127.163
 21
373.768
  0
LINE
  8
0
 10
-127.163
 20
373.768
 11
-126.944
 21
373.712
  0
LINE
  8
0
 10
-126.944
 20
373.712
 11
-126.734
 21
373.629
  0
LINE
  8
0
 10
-126.734
 20
373.629
 11
-126.536
 21
373.52
  0
LINE
  8
0
 10
-126.536
 20
373.52
 11
-126.353
 21
373.387
  0
LINE
  8
0
 10
-126.353
 20
373.387
 11
-126.188
 21
373.232
  0
LINE
  8
0
 10
-126.188
 20
373.232
 11
-126.044
 21
373.058
  0
LINE
  8
0
 10
-126.044
 20
373.058
 11
-125.923
 21
372.867
  0
LINE
  8
0
 10
-125.923
 20
372.867
 11
-125.826
 21
372.663
  0
LINE
  8
0
 10
-125.826
 20
372.663
 11
-125.757
 21
372.448
  0
LINE
  8
0
 10
-125.757
 20
372.448
 11
-125.714
 21
372.226
  0
LINE
  8
0
 10
-125.714
 20
372.226
 11
-125.7
 21
372
  0
LINE
  8
0
 10
-125.7
 20
372
 11
-125.714
 21
371.774
  0
LINE
  8
0
 10
-125.714
 20
371.774
 11
-125.757
 21
371.552
  0
LINE
  8
0
 10
-125.757
 20
371.552
 11
-125.826
 21
371.337
  0
LINE
  8
0
 10
-125.826
 20
371.337
 11
-125.923
 21
371.133
  0
LINE
  8
0
 10
-125.923
 20
371.133
 11
-126.044
 21
370.942
  0
LINE
  8
0
 10
-126.044
 20
370.942
 11
-126.188
 21
370.768
  0
LINE
  8
0
 10
-126.188
 20
370.768
 11
-126.353
 21
370.613
  0
LINE
  8
0
 10
-126.353
 20
370.613
 11
-126.536
 21
370.48
  0
LINE
  8
0
 10
-126.536
 20
370.48
 11
-126.734
 21
370.371
  0
LINE
  8
0
 10
-126.734
 20
370.371
 11
-126.944
 21
370.288
  0
LINE
  8
0
 10
-126.944
 20
370.288
 11
-127.163
 21
370.232
  0
LINE
  8
0
 10
-127.163
 20
370.232
 11
-127.387
 21
370.204
  0
LINE
  8
0
 10
-127.387
 20
370.204
 11
-127.613
 21
370.204
  0
LINE
  8
0
 10
127.387
 20
370.204
 11
127.163
 21
370.232
  0
LINE
  8
0
 10
127.163
 20
370.232
 11
126.944
 21
370.288
  0
LINE
  8
0
 10
126.944
 20
370.288
 11
126.734
 21
370.371
  0
LINE
  8
0
 10
126.734
 20
370.371
 11
126.536
 21
370.48
  0
LINE
  8
0
 10
126.536
 20
370.48
 11
126.353
 21
370.613
  0
LINE
  8
0
 10
126.353
 20
370.613
 11
126.188
 21
370.768
  0
LINE
  8
0
 10
126.188
 20
370.768
 11
126.044
 21
370.942
  0
LINE
  8
0
 10
126.044
 20
370.942
 11
125.923
 21
371.133
  0
LINE
  8
0
 10
125.923
 20
371.133
 11
125.826
 21
371.337
  0
LINE
  8
0
 10
125.826
 20
371.337
 11
125.757
 21
371.552
  0
LINE
  8
0
 10
125.757
 20
371.552
 11
125.714
 21
371.774
  0
LINE
  8
0
 10
125.714
 20
371.774
 11
125.7
 21
372
  0
LINE
  8
0
 10
125.7
 20
372
 11
125.714
 21
372.226
  0
LINE
  8
0
 10
125.714
 20
372.226
 11
125.757
 21
372.448
  0
LINE
  8
0
 10
125.757
 20
372.448
 11
125.826
 21
372.663
  0
LINE
  8
0
 10
125.826
 20
372.663
 11
125.923
 21
372.867
  0
LINE
  8
0
 10
125.923
 20
372.867
 11
126.044
 21
373.058
  0
LINE
  8
0
 10
126.044
 20
373.058
 11
126.188
 21
373.232
  0
LINE
  8
0
 10
126.188
 20
373.232
 11
126.353
 21
373.387
  0
LINE
  8
0
 10
126.353
 20
373.387
 11
126.536
 21
373.52
  0
LINE
  8
0
 10
126.536
 20
373.52
 11
126.734
 21
373.629
  0
LINE
  8
0
 10
126.734
 20
373.629
 11
126.944
 21
373.712
  0
LINE
  8
0
 10
126.944
 20
373.712
 11
127.163
 21
373.768
  0
LINE
  8
0
 10
127.163
 20
373.768
 11
127.387
 21
373.796
  0
LINE
  8
0
 10
127.387
 20
373.796
 11
127.613
 21
373.796
  0
LINE
  8
0
 10
127.613
 20
373.796
 11
127.837
 21
373.768
  0
LINE
  8
0
 10
127.837
 20
373.768
 11
128.056
 21
373.712
  0
LINE
  8
0
 10
128.056
 20
373.712
 11
128.266
 21
373.629
  0
LINE
  8
0
 10
128.266
 20
373.629
 11
128.464
 21
373.52
  0
LINE
  8
0
 10
128.464
 20
373.52
 11
128.647
 21
373.387
  0
LINE
  8
0
 10
128.647
 20
373.387
 11
128.812
 21
373.232
  0
LINE
  8
0
 10
128.812
 20
373.232
 11
128.956
 21
373.058
  0
LINE
  8
0
 10
128.956
 20
373.058
 11
129.077
 21
372.867
  0
LINE
  8
0
 10
129.077
 20
372.867
 11
129.174
 21
372.663
  0
LINE
  8
0
 10
129.174
 20
372.663
 11
129.243
 21
372.448
  0
LINE
  8
0
 10
129.243
 20
372.448
 11
129.286
 21
372.226
  0
LINE
  8
0
 10
129.286
 20
372.226
 11
129.3
 21
372
  0
LINE
  8
0
 10
129.3
 20
372
 11
129.286
 21
371.774
  0
LINE
  8
0
 10
129.286
 20
371.774
 11
129.243
 21
371.552
  0
LINE
  8
0
 10
129.243
 20
371.552
 11
129.174
 21
371.337
  0
LINE
  8
0
 10
129.174
 20
371.337
 11
129.077
 21
371.133
  0
LINE
  8
0
 10
129.077
 20
371.133
 11
128.956
 21
370.942
  0
LINE
  8
0
 10
128.956
 20
370.942
 11
128.812
 21
370.768
  0
LINE
  8
0
 10
128.812
 20
370.768
 11
128.647
 21
370.613
  0
LINE
  8
0
 10
128.647
 20
370.613
 11
128.464
 21
370.48
  0
LINE
  8
0
 10
128.464
 20
370.48
 11
128.266
 21
370.371
  0
LINE
  8
0
 10
128.266
 20
370.371
 11
128.056
 21
370.288
  0
LINE
  8
0
 10
128.056
 20
370.288
 11
127.837
 21
370.232
  0
LINE
  8
0
 10
127.837
 20
370.232
 11
127.613
 21
370.204
  0
LINE
  8
0
 10
127.613
 20
370.204
 11
127.387
 21
370.204
  0
ENDSEC
  0
SECTION
  2
OBJECTS
  0
DICTIONARY
  0
ENDSEC
  0
EOF
