<?xml version="1.0" standalone="no"?>
<!DOCTYPE svg PUBLIC "-//W3C//DTD SVG 1.1//EN" "http://www.w3.org/Graphics/SVG/1.1/DTD/svg11.dtd">
<svg width="242mm" height="558mm" viewBox="-122 -1035 242 558" xmlns="http://www.w3.org/2000/svg" version="1.1">
<title>OpenSCAD Model</title>
<path d="
M -118.5,-856.441 L -118.187,-856.147 L -117.679,-855.778 L -117.129,-855.476 L -116.545,-855.245 L -115.937,-855.089
 L -115.314,-855.01 L 115.314,-855.01 L 115.937,-855.089 L 116.545,-855.245 L 117.129,-855.476 L 117.679,-855.778
 L 118.187,-856.147 L 118.645,-856.577 L 119.045,-857.061 L 119.382,-857.591 L 119.649,-858.159 L 119.843,-858.757
 L 119.961,-859.373 L 120,-860 L 120,-1030 L 119.961,-1030.63 L 119.843,-1031.24 L 119.649,-1031.84
 L 119.382,-1032.41 L 119.045,-1032.94 L 118.645,-1033.42 L 118.187,-1033.85 L 117.679,-1034.22 L 117.129,-1034.52
 L 116.545,-1034.76 L 115.937,-1034.91 L 115.314,-1034.99 L -115.314,-1034.99 L -115.937,-1034.91 L -116.545,-1034.76
 L -117.129,-1034.52 L -117.679,-1034.22 L -118.187,-1033.85 L -118.5,-1033.56 L -118.5,-1034.99 L -121.5,-1034.99
 L -121.5,-855.01 L -118.5,-855.01 z
M -114.751,-856.508 L -115.25,-856.571 L -115.736,-856.696 L -116.203,-856.881 L -116.643,-857.123 L -117.05,-857.418
 L -117.416,-857.762 L -117.736,-858.149 L -118.005,-858.573 L -118.219,-859.028 L -118.374,-859.505 L -118.468,-859.999
 L -118.5,-860.5 L -118.5,-1029.5 L -118.468,-1030 L -118.374,-1030.49 L -118.219,-1030.97 L -118.005,-1031.43
 L -117.736,-1031.85 L -117.416,-1032.24 L -117.05,-1032.58 L -116.643,-1032.88 L -116.203,-1033.12 L -115.736,-1033.3
 L -115.25,-1033.43 L -114.751,-1033.49 L 114.751,-1033.49 L 115.25,-1033.43 L 115.736,-1033.3 L 116.203,-1033.12
 L 116.643,-1032.88 L 117.05,-1032.58 L 117.416,-1032.24 L 117.736,-1031.85 L 118.005,-1031.43 L 118.219,-1030.97
 L 118.374,-1030.49 L 118.468,-1030 L 118.5,-1029.5 L 118.5,-860.5 L 118.468,-859.999 L 118.374,-859.505
 L 118.219,-859.028 L 118.005,-858.573 L 117.736,-858.149 L 117.416,-857.762 L 117.05,-857.418 L 116.643,-857.123
 L 116.203,-856.881 L 115.736,-856.696 L 115.25,-856.571 L 114.751,-856.508 z
M 115.937,-666.089 L 116.545,-666.245 L 117.129,-666.476 L 117.679,-666.778 L 118.187,-667.147 L 118.645,-667.577
 L 119.045,-668.061 L 119.382,-668.591 L 119.649,-669.159 L 119.843,-669.757 L 119.961,-670.373 L 120,-671
 L 120,-841 L 119.961,-841.627 L 119.843,-842.243 L 119.649,-842.841 L 119.382,-843.409 L 119.045,-843.939
 L 118.645,-844.423 L 118.187,-844.853 L 117.679,-845.222 L 117.129,-845.524 L 116.545,-845.755 L 115.937,-845.911
 L 115.314,-845.99 L -115.314,-845.99 L -115.937,-845.911 L -116.545,-845.755 L -117.129,-845.524 L -117.679,-845.222
 L -118.187,-844.853 L -118.5,-844.559 L -118.5,-845.979 L -121.5,-845.979 L -121.5,-666.021 L -118.5,-666.021
 L -118.5,-667.441 L -118.187,-667.147 L -117.679,-666.778 L -117.129,-666.476 L -116.545,-666.245 L -115.937,-666.089
 L -115.314,-666.01 L 115.314,-666.01 z
M -114.695,-668.393 L -115.083,-668.442 L -115.462,-668.539 L -115.825,-668.683 L -116.168,-668.872 L -116.484,-669.101
 L -116.769,-669.369 L -117.018,-669.67 L -117.228,-670 L -117.394,-670.354 L -117.515,-670.726 L -117.588,-671.11
 L -117.613,-671.5 L -117.613,-840.5 L -117.588,-840.89 L -117.515,-841.274 L -117.394,-841.646 L -117.228,-842
 L -117.018,-842.33 L -116.769,-842.631 L -116.484,-842.899 L -116.168,-843.128 L -115.825,-843.317 L -115.462,-843.461
 L -115.083,-843.558 L -114.695,-843.607 L 114.695,-843.607 L 115.083,-843.558 L 115.462,-843.461 L 115.825,-843.317
 L 116.168,-843.128 L 116.484,-842.899 L 116.769,-842.631 L 117.018,-842.33 L 117.228,-842 L 117.394,-841.646
 L 117.515,-841.274 L 117.588,-840.89 L 117.613,-840.5 L 117.613,-671.5 L 117.588,-671.11 L 117.515,-670.726
 L 117.394,-670.354 L 117.228,-670 L 117.018,-669.67 L 116.769,-669.369 L 116.484,-669.101 L 116.168,-668.872
 L 115.825,-668.683 L 115.462,-668.539 L 115.083,-668.442 L 114.695,-668.393 z
M 115.937,-477.089 L 116.545,-477.245 L 117.129,-477.476 L 117.679,-477.778 L 118.187,-478.147 L 118.645,-478.577
 L 119.045,-479.061 L 119.382,-479.591 L 119.649,-480.159 L 119.843,-480.757 L 119.961,-481.373 L 120,-482
 L 120,-652 L 119.961,-652.627 L 119.843,-653.243 L 119.649,-653.841 L 119.382,-654.409 L 119.045,-654.939
 L 118.645,-655.423 L 118.187,-655.853 L 117.679,-656.222 L 117.129,-656.524 L 116.545,-656.755 L 115.937,-656.911
 L 115.314,-656.99 L -115.314,-656.99 L -115.937,-656.911 L -116.545,-656.755 L -117.129,-656.524 L -117.679,-656.222
 L -118.187,-655.853 L -118.5,-655.559 L -118.5,-655.653 L -121.5,-655.653 L -121.5,-478.347 L -118.5,-478.347
 L -118.5,-478.441 L -118.187,-478.147 L -117.679,-477.778 L -117.129,-477.476 L -116.545,-477.245 L -115.937,-477.089
 L -115.314,-477.01 L 115.314,-477.01 z
M 112.366,-647.369 L 112.1,-647.403 L 111.84,-647.469 L 111.591,-647.568 L 111.356,-647.697 L 111.139,-647.855
 L 110.943,-648.038 L 110.773,-648.245 L 110.629,-648.471 L 110.515,-648.714 L 110.432,-648.969 L 110.382,-649.232
 L 110.365,-649.5 L 110.382,-649.768 L 110.432,-650.031 L 110.515,-650.286 L 110.629,-650.529 L 110.773,-650.755
 L 110.943,-650.962 L 111.139,-651.145 L 111.356,-651.303 L 111.591,-651.432 L 111.84,-651.531 L 112.1,-651.597
 L 112.366,-651.631 L 112.634,-651.631 L 112.9,-651.597 L 113.16,-651.531 L 113.409,-651.432 L 113.644,-651.303
 L 113.861,-651.145 L 114.057,-650.962 L 114.227,-650.755 L 114.371,-650.529 L 114.485,-650.286 L 114.568,-650.031
 L 114.618,-649.768 L 114.635,-649.5 L 114.618,-649.232 L 114.568,-648.969 L 114.485,-648.714 L 114.371,-648.471
 L 114.227,-648.245 L 114.057,-648.038 L 113.861,-647.855 L 113.644,-647.697 L 113.409,-647.568 L 113.16,-647.469
 L 112.9,-647.403 L 112.634,-647.369 z
M -112.634,-647.369 L -112.9,-647.403 L -113.16,-647.469 L -113.409,-647.568 L -113.644,-647.697 L -113.861,-647.855
 L -114.057,-648.038 L -114.227,-648.245 L -114.371,-648.471 L -114.485,-648.714 L -114.568,-648.969 L -114.618,-649.232
 L -114.635,-649.5 L -114.618,-649.768 L -114.568,-650.031 L -114.485,-650.286 L -114.371,-650.529 L -114.227,-650.755
 L -114.057,-650.962 L -113.861,-651.145 L -113.644,-651.303 L -113.409,-651.432 L -113.16,-651.531 L -112.9,-651.597
 L -112.634,-651.631 L -112.366,-651.631 L -112.1,-651.597 L -111.84,-651.531 L -111.591,-651.432 L -111.356,-651.303
 L -111.139,-651.145 L -110.943,-650.962 L -110.773,-650.755 L -110.629,-650.529 L -110.515,-650.286 L -110.432,-650.031
 L -110.382,-649.768 L -110.365,-649.5 L -110.382,-649.232 L -110.432,-648.969 L -110.515,-648.714 L -110.629,-648.471
 L -110.773,-648.245 L -110.943,-648.038 L -111.139,-647.855 L -111.356,-647.697 L -111.591,-647.568 L -111.84,-647.469
 L -112.1,-647.403 L -112.366,-647.369 z
M 112.366,-482.369 L 112.1,-482.403 L 111.84,-482.469 L 111.591,-482.568 L 111.356,-482.697 L 111.139,-482.855
 L 110.943,-483.038 L 110.773,-483.245 L 110.629,-483.471 L 110.515,-483.714 L 110.432,-483.969 L 110.382,-484.232
 L 110.365,-484.5 L 110.382,-484.768 L 110.432,-485.031 L 110.515,-485.286 L 110.629,-485.529 L 110.773,-485.755
 L 110.943,-485.962 L 111.139,-486.145 L 111.356,-486.303 L 111.591,-486.432 L 111.84,-486.531 L 112.1,-486.597
 L 112.366,-486.631 L 112.634,-486.631 L 112.9,-486.597 L 113.16,-486.531 L 113.409,-486.432 L 113.644,-486.303
 L 113.861,-486.145 L 114.057,-485.962 L 114.227,-485.755 L 114.371,-485.529 L 114.485,-485.286 L 114.568,-485.031
 L 114.618,-484.768 L 114.635,-484.5 L 114.618,-484.232 L 114.568,-483.969 L 114.485,-483.714 L 114.371,-483.471
 L 114.227,-483.245 L 114.057,-483.038 L 113.861,-482.855 L 113.644,-482.697 L 113.409,-482.568 L 113.16,-482.469
 L 112.9,-482.403 L 112.634,-482.369 z
M -112.634,-482.369 L -112.9,-482.403 L -113.16,-482.469 L -113.409,-482.568 L -113.644,-482.697 L -113.861,-482.855
 L -114.057,-483.038 L -114.227,-483.245 L -114.371,-483.471 L -114.485,-483.714 L -114.568,-483.969 L -114.618,-484.232
 L -114.635,-484.5 L -114.618,-484.768 L -114.568,-485.031 L -114.485,-485.286 L -114.371,-485.529 L -114.227,-485.755
 L -114.057,-485.962 L -113.861,-486.145 L -113.644,-486.303 L -113.409,-486.432 L -113.16,-486.531 L -112.9,-486.597
 L -112.634,-486.631 L -112.366,-486.631 L -112.1,-486.597 L -111.84,-486.531 L -111.591,-486.432 L -111.356,-486.303
 L -111.139,-486.145 L -110.943,-485.962 L -110.773,-485.755 L -110.629,-485.529 L -110.515,-485.286 L -110.432,-485.031
 L -110.382,-484.768 L -110.365,-484.5 L -110.382,-484.232 L -110.432,-483.969 L -110.515,-483.714 L -110.629,-483.471
 L -110.773,-483.245 L -110.943,-483.038 L -111.139,-482.855 L -111.356,-482.697 L -111.591,-482.568 L -111.84,-482.469
 L -112.1,-482.403 L -112.366,-482.369 z
" stroke="black" fill="lightgray" stroke-width="0.5"/>
</svg>
