<?xml version="1.0" standalone="no"?>
<!DOCTYPE svg PUBLIC "-//W3C//DTD SVG 1.1//EN" "http://www.w3.org/Graphics/SVG/1.1/DTD/svg11.dtd">
<svg width="286mm" height="208mm" viewBox="-143 -401 286 208" xmlns="http://www.w3.org/2000/svg" version="1.1">
<title>OpenSCAD Model</title>
<path d="
M 138.437,-355.589 L 139.045,-355.745 L 139.629,-355.976 L 140.179,-356.278 L 140.687,-356.647 L 141.145,-357.077
 L 141.545,-357.561 L 141.882,-358.091 L 142.149,-358.659 L 142.343,-359.257 L 142.461,-359.873 L 142.5,-360.5
 L 142.5,-395.5 L 142.461,-396.127 L 142.343,-396.743 L 142.149,-397.341 L 141.882,-397.909 L 141.545,-398.439
 L 141.145,-398.923 L 140.687,-399.353 L 140.179,-399.722 L 139.629,-400.024 L 139.045,-400.255 L 138.437,-400.411
 L 137.814,-400.49 L -137.814,-400.49 L -138.437,-400.411 L -139.045,-400.255 L -139.629,-400.024 L -140.179,-399.722
 L -140.687,-399.353 L -141.145,-398.923 L -141.545,-398.439 L -141.882,-397.909 L -142.149,-397.341 L -142.343,-396.743
 L -142.461,-396.127 L -142.5,-395.5 L -142.5,-360.5 L -142.461,-359.873 L -142.343,-359.257 L -142.149,-358.659
 L -141.882,-358.091 L -141.545,-357.561 L -141.145,-357.077 L -140.687,-356.647 L -140.179,-356.278 L -139.629,-355.976
 L -139.045,-355.745 L -138.437,-355.589 L -137.814,-355.51 L 137.814,-355.51 z
M -137.548,-356.009 L -138.14,-356.084 L -138.718,-356.232 L -139.272,-356.452 L -139.795,-356.739 L -140.278,-357.09
 L -140.713,-357.498 L -141.093,-357.958 L -141.412,-358.462 L -141.666,-359.001 L -141.851,-359.569 L -141.963,-360.155
 L -142,-360.75 L -142,-395.25 L -141.963,-395.845 L -141.851,-396.431 L -141.666,-396.999 L -141.412,-397.538
 L -141.093,-398.042 L -140.713,-398.502 L -140.278,-398.91 L -139.795,-399.261 L -139.272,-399.548 L -138.718,-399.768
 L -138.14,-399.916 L -137.548,-399.991 L 137.548,-399.991 L 138.14,-399.916 L 138.718,-399.768 L 139.272,-399.548
 L 139.795,-399.261 L 140.278,-398.91 L 140.713,-398.502 L 141.093,-398.042 L 141.412,-397.538 L 141.666,-396.999
 L 141.851,-396.431 L 141.963,-395.845 L 142,-395.25 L 142,-360.75 L 141.963,-360.155 L 141.851,-359.569
 L 141.666,-359.001 L 141.412,-358.462 L 141.093,-357.958 L 140.713,-357.498 L 140.278,-357.09 L 139.795,-356.739
 L 139.272,-356.452 L 138.718,-356.232 L 138.14,-356.084 L 137.548,-356.009 z
M 138.437,-301.589 L 139.045,-301.745 L 139.629,-301.976 L 140.179,-302.278 L 140.687,-302.647 L 141.145,-303.077
 L 141.545,-303.561 L 141.882,-304.091 L 142.149,-304.659 L 142.343,-305.257 L 142.461,-305.873 L 142.5,-306.5
 L 142.5,-341.5 L 142.461,-342.127 L 142.343,-342.743 L 142.149,-343.341 L 141.882,-343.909 L 141.545,-344.439
 L 141.145,-344.923 L 140.687,-345.353 L 140.179,-345.722 L 139.629,-346.024 L 139.045,-346.255 L 138.437,-346.411
 L 137.814,-346.49 L -137.814,-346.49 L -138.437,-346.411 L -139.045,-346.255 L -139.629,-346.024 L -140.179,-345.722
 L -140.687,-345.353 L -141.145,-344.923 L -141.545,-344.439 L -141.882,-343.909 L -142.149,-343.341 L -142.343,-342.743
 L -142.461,-342.127 L -142.5,-341.5 L -142.5,-306.5 L -142.461,-305.873 L -142.343,-305.257 L -142.149,-304.659
 L -141.882,-304.091 L -141.545,-303.561 L -141.145,-303.077 L -140.687,-302.647 L -140.179,-302.278 L -139.629,-301.976
 L -139.045,-301.745 L -138.437,-301.589 L -137.814,-301.51 L 137.814,-301.51 z
M -137.548,-302.009 L -138.14,-302.084 L -138.718,-302.232 L -139.272,-302.452 L -139.795,-302.739 L -140.278,-303.09
 L -140.713,-303.498 L -141.093,-303.958 L -141.412,-304.462 L -141.666,-305.001 L -141.851,-305.569 L -141.963,-306.155
 L -142,-306.75 L -142,-341.25 L -141.963,-341.845 L -141.851,-342.431 L -141.666,-342.999 L -141.412,-343.538
 L -141.093,-344.042 L -140.713,-344.502 L -140.278,-344.91 L -139.795,-345.261 L -139.272,-345.548 L -138.718,-345.768
 L -138.14,-345.916 L -137.548,-345.991 L 137.548,-345.991 L 138.14,-345.916 L 138.718,-345.768 L 139.272,-345.548
 L 139.795,-345.261 L 140.278,-344.91 L 140.713,-344.502 L 141.093,-344.042 L 141.412,-343.538 L 141.666,-342.999
 L 141.851,-342.431 L 141.963,-341.845 L 142,-341.25 L 142,-306.75 L 141.963,-306.155 L 141.851,-305.569
 L 141.666,-305.001 L 141.412,-304.462 L 141.093,-303.958 L 140.713,-303.498 L 140.278,-303.09 L 139.795,-302.739
 L 139.272,-302.452 L 138.718,-302.232 L 138.14,-302.084 L 137.548,-302.009 z
M 138.437,-247.589 L 139.045,-247.745 L 139.629,-247.976 L 140.179,-248.278 L 140.687,-248.647 L 141.145,-249.077
 L 141.545,-249.561 L 141.882,-250.091 L 142.149,-250.659 L 142.343,-251.257 L 142.461,-251.873 L 142.5,-252.5
 L 142.5,-287.5 L 142.461,-288.127 L 142.343,-288.743 L 142.149,-289.341 L 141.882,-289.909 L 141.545,-290.439
 L 141.145,-290.923 L 140.687,-291.353 L 140.179,-291.722 L 139.629,-292.024 L 139.045,-292.255 L 138.437,-292.411
 L 137.814,-292.49 L -137.814,-292.49 L -138.437,-292.411 L -139.045,-292.255 L -139.629,-292.024 L -140.179,-291.722
 L -140.687,-291.353 L -141.145,-290.923 L -141.545,-290.439 L -141.882,-289.909 L -142.149,-289.341 L -142.343,-288.743
 L -142.461,-288.127 L -142.5,-287.5 L -142.5,-252.5 L -142.461,-251.873 L -142.343,-251.257 L -142.149,-250.659
 L -141.882,-250.091 L -141.545,-249.561 L -141.145,-249.077 L -140.687,-248.647 L -140.179,-248.278 L -139.629,-247.976
 L -139.045,-247.745 L -138.437,-247.589 L -137.814,-247.51 L 137.814,-247.51 z
M -137.537,-248.181 L -138.108,-248.253 L -138.665,-248.396 L -139.199,-248.607 L -139.703,-248.884 L -140.168,-249.222
 L -140.588,-249.616 L -140.954,-250.059 L -141.262,-250.544 L -141.507,-251.065 L -141.685,-251.611 L -141.792,-252.176
 L -141.828,-252.75 L -141.828,-287.25 L -141.792,-287.824 L -141.685,-288.389 L -141.507,-288.935 L -141.262,-289.456
 L -140.954,-289.941 L -140.588,-290.384 L -140.168,-290.778 L -139.703,-291.116 L -139.199,-291.393 L -138.665,-291.604
 L -138.108,-291.747 L -137.537,-291.819 L 137.537,-291.819 L 138.108,-291.747 L 138.665,-291.604 L 139.199,-291.393
 L 139.703,-291.116 L 140.168,-290.778 L 140.588,-290.384 L 140.954,-289.941 L 141.262,-289.456 L 141.507,-288.935
 L 141.685,-288.389 L 141.792,-287.824 L 141.828,-287.25 L 141.828,-252.75 L 141.792,-252.176 L 141.685,-251.611
 L 141.507,-251.065 L 141.262,-250.544 L 140.954,-250.059 L 140.588,-249.616 L 140.168,-249.222 L 139.703,-248.884
 L 139.199,-248.607 L 138.665,-248.396 L 138.108,-248.253 L 137.537,-248.181 z
M 138.437,-193.589 L 139.045,-193.745 L 139.629,-193.976 L 140.179,-194.278 L 140.687,-194.647 L 141.145,-195.077
 L 141.545,-195.561 L 141.882,-196.091 L 142.149,-196.659 L 142.343,-197.257 L 142.461,-197.873 L 142.5,-198.5
 L 142.5,-233.5 L 142.461,-234.127 L 142.343,-234.743 L 142.149,-235.341 L 141.882,-235.909 L 141.545,-236.439
 L 141.145,-236.923 L 140.687,-237.353 L 140.179,-237.722 L 139.629,-238.024 L 139.045,-238.255 L 138.437,-238.411
 L 137.814,-238.49 L -137.814,-238.49 L -138.437,-238.411 L -139.045,-238.255 L -139.629,-238.024 L -140.179,-237.722
 L -140.687,-237.353 L -141.145,-236.923 L -141.545,-236.439 L -141.882,-235.909 L -142.149,-235.341 L -142.343,-234.743
 L -142.461,-234.127 L -142.5,-233.5 L -142.5,-198.5 L -142.461,-197.873 L -142.343,-197.257 L -142.149,-196.659
 L -141.882,-196.091 L -141.545,-195.561 L -141.145,-195.077 L -140.687,-194.647 L -140.179,-194.278 L -139.629,-193.976
 L -139.045,-193.745 L -138.437,-193.589 L -137.814,-193.51 L 137.814,-193.51 z
M -137.382,-196.645 L -137.645,-196.678 L -137.902,-196.744 L -138.148,-196.841 L -138.38,-196.969 L -138.595,-197.125
 L -138.788,-197.306 L -138.957,-197.51 L -139.099,-197.734 L -139.211,-197.973 L -139.293,-198.225 L -139.343,-198.486
 L -139.36,-198.75 L -139.36,-233.25 L -139.343,-233.514 L -139.293,-233.775 L -139.211,-234.027 L -139.099,-234.266
 L -138.957,-234.49 L -138.788,-234.694 L -138.595,-234.875 L -138.38,-235.031 L -138.148,-235.159 L -137.902,-235.256
 L -137.645,-235.322 L -137.382,-235.355 L 137.382,-235.355 L 137.645,-235.322 L 137.902,-235.256 L 138.148,-235.159
 L 138.38,-235.031 L 138.595,-234.875 L 138.788,-234.694 L 138.957,-234.49 L 139.099,-234.266 L 139.211,-234.027
 L 139.293,-233.775 L 139.343,-233.514 L 139.36,-233.25 L 139.36,-198.75 L 139.343,-198.486 L 139.293,-198.225
 L 139.211,-197.973 L 139.099,-197.734 L 138.957,-197.51 L 138.788,-197.306 L 138.595,-197.125 L 138.38,-196.969
 L 138.148,-196.841 L 137.902,-196.744 L 137.645,-196.678 L 137.382,-196.645 z
" stroke="black" fill="lightgray" stroke-width="0.5"/>
</svg>
