<?xml version="1.0" standalone="no"?>
<!DOCTYPE svg PUBLIC "-//W3C//DTD SVG 1.1//EN" "http://www.w3.org/Graphics/SVG/1.1/DTD/svg11.dtd">
<svg width="272mm" height="244mm" viewBox="-137 -374 272 244" xmlns="http://www.w3.org/2000/svg" version="1.1">
<title>OpenSCAD Model</title>
<path d="
M -133.5,-299.941 L -133.187,-299.647 L -132.679,-299.278 L -132.129,-298.976 L -131.545,-298.745 L -130.937,-298.589
 L -130.314,-298.51 L 130.314,-298.51 L 130.937,-298.589 L 131.545,-298.745 L 132.129,-298.976 L 132.679,-299.278
 L 133.187,-299.647 L 133.645,-300.077 L 134.045,-300.561 L 134.382,-301.091 L 134.649,-301.659 L 134.843,-302.257
 L 134.961,-302.873 L 135,-303.5 L 135,-368.5 L 134.961,-369.127 L 134.843,-369.743 L 134.649,-370.341
 L 134.382,-370.909 L 134.045,-371.439 L 133.645,-371.923 L 133.187,-372.353 L 132.679,-372.722 L 132.129,-373.024
 L 131.545,-373.255 L 130.937,-373.411 L 130.314,-373.49 L -130.314,-373.49 L -130.937,-373.411 L -131.545,-373.255
 L -132.129,-373.024 L -132.679,-372.722 L -133.187,-372.353 L -133.5,-372.059 L -133.5,-373.49 L -136.5,-373.49
 L -136.5,-298.51 L -133.5,-298.51 z
M -129.743,-300.135 L -130.226,-300.196 L -130.697,-300.317 L -131.149,-300.496 L -131.575,-300.73 L -131.969,-301.016
 L -132.323,-301.349 L -132.633,-301.724 L -132.894,-302.134 L -133.101,-302.574 L -133.251,-303.037 L -133.342,-303.515
 L -133.373,-304 L -133.373,-368 L -133.342,-368.485 L -133.251,-368.963 L -133.101,-369.426 L -132.894,-369.866
 L -132.633,-370.276 L -132.323,-370.651 L -131.969,-370.984 L -131.575,-371.27 L -131.149,-371.504 L -130.697,-371.683
 L -130.226,-371.804 L -129.743,-371.865 L 129.743,-371.865 L 130.226,-371.804 L 130.697,-371.683 L 131.149,-371.504
 L 131.575,-371.27 L 131.969,-370.984 L 132.323,-370.651 L 132.633,-370.276 L 132.894,-369.866 L 133.101,-369.426
 L 133.251,-368.963 L 133.342,-368.485 L 133.373,-368 L 133.373,-304 L 133.342,-303.515 L 133.251,-303.037
 L 133.101,-302.574 L 132.894,-302.134 L 132.633,-301.724 L 132.323,-301.349 L 131.969,-301.016 L 131.575,-300.73
 L 131.149,-300.496 L 130.697,-300.317 L 130.226,-300.196 L 129.743,-300.135 z
M 130.937,-214.589 L 131.545,-214.745 L 132.129,-214.976 L 132.679,-215.278 L 133.187,-215.647 L 133.645,-216.077
 L 134.045,-216.561 L 134.382,-217.091 L 134.649,-217.659 L 134.843,-218.257 L 134.961,-218.873 L 135,-219.5
 L 135,-284.5 L 134.961,-285.127 L 134.843,-285.743 L 134.649,-286.341 L 134.382,-286.909 L 134.045,-287.439
 L 133.645,-287.923 L 133.187,-288.353 L 132.679,-288.722 L 132.129,-289.024 L 131.545,-289.255 L 130.937,-289.411
 L 130.314,-289.49 L -130.314,-289.49 L -130.937,-289.411 L -131.545,-289.255 L -132.129,-289.024 L -132.679,-288.722
 L -133.187,-288.353 L -133.5,-288.059 L -133.5,-289.115 L -136.5,-289.115 L -136.5,-214.885 L -133.5,-214.885
 L -133.5,-215.941 L -133.187,-215.647 L -132.679,-215.278 L -132.129,-214.976 L -131.545,-214.745 L -130.937,-214.589
 L -130.314,-214.51 L 130.314,-214.51 z
M -127.651,-279.605 L -127.95,-279.643 L -128.242,-279.717 L -128.522,-279.828 L -128.786,-279.974 L -129.03,-280.151
 L -129.25,-280.357 L -129.442,-280.589 L -129.603,-280.844 L -129.731,-281.117 L -129.825,-281.403 L -129.881,-281.699
 L -129.9,-282 L -129.881,-282.301 L -129.825,-282.597 L -129.731,-282.883 L -129.603,-283.156 L -129.442,-283.411
 L -129.25,-283.643 L -129.03,-283.849 L -128.786,-284.026 L -128.522,-284.172 L -128.242,-284.283 L -127.95,-284.357
 L -127.651,-284.395 L -127.349,-284.395 L -127.05,-284.357 L -126.758,-284.283 L -126.478,-284.172 L -126.214,-284.026
 L -125.97,-283.849 L -125.75,-283.643 L -125.558,-283.411 L -125.397,-283.156 L -125.269,-282.883 L -125.175,-282.597
 L -125.119,-282.301 L -125.1,-282 L -125.119,-281.699 L -125.175,-281.403 L -125.269,-281.117 L -125.397,-280.844
 L -125.558,-280.589 L -125.75,-280.357 L -125.97,-280.151 L -126.214,-279.974 L -126.478,-279.828 L -126.758,-279.717
 L -127.05,-279.643 L -127.349,-279.605 z
M 127.349,-279.605 L 127.05,-279.643 L 126.758,-279.717 L 126.478,-279.828 L 126.214,-279.974 L 125.97,-280.151
 L 125.75,-280.357 L 125.558,-280.589 L 125.397,-280.844 L 125.269,-281.117 L 125.175,-281.403 L 125.119,-281.699
 L 125.1,-282 L 125.119,-282.301 L 125.175,-282.597 L 125.269,-282.883 L 125.397,-283.156 L 125.558,-283.411
 L 125.75,-283.643 L 125.97,-283.849 L 126.214,-284.026 L 126.478,-284.172 L 126.758,-284.283 L 127.05,-284.357
 L 127.349,-284.395 L 127.651,-284.395 L 127.95,-284.357 L 128.242,-284.283 L 128.522,-284.172 L 128.786,-284.026
 L 129.03,-283.849 L 129.25,-283.643 L 129.442,-283.411 L 129.603,-283.156 L 129.731,-282.883 L 129.825,-282.597
 L 129.881,-282.301 L 129.9,-282 L 129.881,-281.699 L 129.825,-281.403 L 129.731,-281.117 L 129.603,-280.844
 L 129.442,-280.589 L 129.25,-280.357 L 129.03,-280.151 L 128.786,-279.974 L 128.522,-279.828 L 128.242,-279.717
 L 127.95,-279.643 L 127.651,-279.605 z
M 127.349,-219.605 L 127.05,-219.643 L 126.758,-219.717 L 126.478,-219.828 L 126.214,-219.974 L 125.97,-220.151
 L 125.75,-220.357 L 125.558,-220.589 L 125.397,-220.844 L 125.269,-221.117 L 125.175,-221.403 L 125.119,-221.699
 L 125.1,-222 L 125.119,-222.301 L 125.175,-222.597 L 125.269,-222.883 L 125.397,-223.156 L 125.558,-223.411
 L 125.75,-223.643 L 125.97,-223.849 L 126.214,-224.026 L 126.478,-224.172 L 126.758,-224.283 L 127.05,-224.357
 L 127.349,-224.395 L 127.651,-224.395 L 127.95,-224.357 L 128.242,-224.283 L 128.522,-224.172 L 128.786,-224.026
 L 129.03,-223.849 L 129.25,-223.643 L 129.442,-223.411 L 129.603,-223.156 L 129.731,-222.883 L 129.825,-222.597
 L 129.881,-222.301 L 129.9,-222 L 129.881,-221.699 L 129.825,-221.403 L 129.731,-221.117 L 129.603,-220.844
 L 129.442,-220.589 L 129.25,-220.357 L 129.03,-220.151 L 128.786,-219.974 L 128.522,-219.828 L 128.242,-219.717
 L 127.95,-219.643 L 127.651,-219.605 z
M -127.651,-219.605 L -127.95,-219.643 L -128.242,-219.717 L -128.522,-219.828 L -128.786,-219.974 L -129.03,-220.151
 L -129.25,-220.357 L -129.442,-220.589 L -129.603,-220.844 L -129.731,-221.117 L -129.825,-221.403 L -129.881,-221.699
 L -129.9,-222 L -129.881,-222.301 L -129.825,-222.597 L -129.731,-222.883 L -129.603,-223.156 L -129.442,-223.411
 L -129.25,-223.643 L -129.03,-223.849 L -128.786,-224.026 L -128.522,-224.172 L -128.242,-224.283 L -127.95,-224.357
 L -127.651,-224.395 L -127.349,-224.395 L -127.05,-224.357 L -126.758,-224.283 L -126.478,-224.172 L -126.214,-224.026
 L -125.97,-223.849 L -125.75,-223.643 L -125.558,-223.411 L -125.397,-223.156 L -125.269,-222.883 L -125.175,-222.597
 L -125.119,-222.301 L -125.1,-222 L -125.119,-221.699 L -125.175,-221.403 L -125.269,-221.117 L -125.397,-220.844
 L -125.558,-220.589 L -125.75,-220.357 L -125.97,-220.151 L -126.214,-219.974 L -126.478,-219.828 L -126.758,-219.717
 L -127.05,-219.643 L -127.349,-219.605 z
M 130.937,-130.589 L 131.545,-130.745 L 132.129,-130.976 L 132.679,-131.278 L 133.187,-131.647 L 133.645,-132.077
 L 134.045,-132.561 L 134.382,-133.091 L 134.649,-133.659 L 134.843,-134.257 L 134.961,-134.873 L 135,-135.5
 L 135,-200.5 L 134.961,-201.127 L 134.843,-201.743 L 134.649,-202.341 L 134.382,-202.909 L 134.045,-203.439
 L 133.645,-203.923 L 133.187,-204.353 L 132.679,-204.722 L 132.129,-205.024 L 131.545,-205.255 L 130.937,-205.411
 L 130.314,-205.49 L -130.314,-205.49 L -130.937,-205.411 L -131.545,-205.255 L -132.129,-205.024 L -132.679,-204.722
 L -133.187,-204.353 L -133.645,-203.923 L -134.045,-203.439 L -134.382,-202.909 L -134.649,-202.341 L -134.843,-201.743
 L -134.9,-201.444 L -136.5,-201.444 L -136.5,-134.556 L -134.9,-134.556 L -134.843,-134.257 L -134.649,-133.659
 L -134.382,-133.091 L -134.045,-132.561 L -133.645,-132.077 L -133.187,-131.647 L -132.679,-131.278 L -132.129,-130.976
 L -131.545,-130.745 L -130.937,-130.589 L -130.314,-130.51 L 130.314,-130.51 z
M 127.387,-196.204 L 127.163,-196.232 L 126.944,-196.288 L 126.734,-196.371 L 126.536,-196.48 L 126.353,-196.613
 L 126.188,-196.768 L 126.044,-196.942 L 125.923,-197.133 L 125.826,-197.337 L 125.757,-197.552 L 125.714,-197.774
 L 125.7,-198 L 125.714,-198.226 L 125.757,-198.448 L 125.826,-198.663 L 125.923,-198.867 L 126.044,-199.058
 L 126.188,-199.232 L 126.353,-199.387 L 126.536,-199.52 L 126.734,-199.629 L 126.944,-199.712 L 127.163,-199.768
 L 127.387,-199.796 L 127.613,-199.796 L 127.837,-199.768 L 128.056,-199.712 L 128.266,-199.629 L 128.464,-199.52
 L 128.647,-199.387 L 128.812,-199.232 L 128.956,-199.058 L 129.077,-198.867 L 129.174,-198.663 L 129.243,-198.448
 L 129.286,-198.226 L 129.3,-198 L 129.286,-197.774 L 129.243,-197.552 L 129.174,-197.337 L 129.077,-197.133
 L 128.956,-196.942 L 128.812,-196.768 L 128.647,-196.613 L 128.464,-196.48 L 128.266,-196.371 L 128.056,-196.288
 L 127.837,-196.232 L 127.613,-196.204 z
M -127.613,-196.204 L -127.837,-196.232 L -128.056,-196.288 L -128.266,-196.371 L -128.464,-196.48 L -128.647,-196.613
 L -128.812,-196.768 L -128.956,-196.942 L -129.077,-197.133 L -129.174,-197.337 L -129.243,-197.552 L -129.286,-197.774
 L -129.3,-198 L -129.286,-198.226 L -129.243,-198.448 L -129.174,-198.663 L -129.077,-198.867 L -128.956,-199.058
 L -128.812,-199.232 L -128.647,-199.387 L -128.464,-199.52 L -128.266,-199.629 L -128.056,-199.712 L -127.837,-199.768
 L -127.613,-199.796 L -127.387,-199.796 L -127.163,-199.768 L -126.944,-199.712 L -126.734,-199.629 L -126.536,-199.52
 L -126.353,-199.387 L -126.188,-199.232 L -126.044,-199.058 L -125.923,-198.867 L -125.826,-198.663 L -125.757,-198.448
 L -125.714,-198.226 L -125.7,-198 L -125.714,-197.774 L -125.757,-197.552 L -125.826,-197.337 L -125.923,-197.133
 L -126.044,-196.942 L -126.188,-196.768 L -126.353,-196.613 L -126.536,-196.48 L -126.734,-196.371 L -126.944,-196.288
 L -127.163,-196.232 L -127.387,-196.204 z
M 127.387,-136.204 L 127.163,-136.232 L 126.944,-136.288 L 126.734,-136.371 L 126.536,-136.48 L 126.353,-136.613
 L 126.188,-136.768 L 126.044,-136.942 L 125.923,-137.133 L 125.826,-137.337 L 125.757,-137.552 L 125.714,-137.774
 L 125.7,-138 L 125.714,-138.226 L 125.757,-138.448 L 125.826,-138.663 L 125.923,-138.867 L 126.044,-139.058
 L 126.188,-139.232 L 126.353,-139.387 L 126.536,-139.52 L 126.734,-139.629 L 126.944,-139.712 L 127.163,-139.768
 L 127.387,-139.796 L 127.613,-139.796 L 127.837,-139.768 L 128.056,-139.712 L 128.266,-139.629 L 128.464,-139.52
 L 128.647,-139.387 L 128.812,-139.232 L 128.956,-139.058 L 129.077,-138.867 L 129.174,-138.663 L 129.243,-138.448
 L 129.286,-138.226 L 129.3,-138 L 129.286,-137.774 L 129.243,-137.552 L 129.174,-137.337 L 129.077,-137.133
 L 128.956,-136.942 L 128.812,-136.768 L 128.647,-136.613 L 128.464,-136.48 L 128.266,-136.371 L 128.056,-136.288
 L 127.837,-136.232 L 127.613,-136.204 z
M -127.613,-136.204 L -127.837,-136.232 L -128.056,-136.288 L -128.266,-136.371 L -128.464,-136.48 L -128.647,-136.613
 L -128.812,-136.768 L -128.956,-136.942 L -129.077,-137.133 L -129.174,-137.337 L -129.243,-137.552 L -129.286,-137.774
 L -129.3,-138 L -129.286,-138.226 L -129.243,-138.448 L -129.174,-138.663 L -129.077,-138.867 L -128.956,-139.058
 L -128.812,-139.232 L -128.647,-139.387 L -128.464,-139.52 L -128.266,-139.629 L -128.056,-139.712 L -127.837,-139.768
 L -127.613,-139.796 L -127.387,-139.796 L -127.163,-139.768 L -126.944,-139.712 L -126.734,-139.629 L -126.536,-139.52
 L -126.353,-139.387 L -126.188,-139.232 L -126.044,-139.058 L -125.923,-138.867 L -125.826,-138.663 L -125.757,-138.448
 L -125.714,-138.226 L -125.7,-138 L -125.714,-137.774 L -125.757,-137.552 L -125.826,-137.337 L -125.923,-137.133
 L -126.044,-136.942 L -126.188,-136.768 L -126.353,-136.613 L -126.536,-136.48 L -126.734,-136.371 L -126.944,-136.288
 L -127.163,-136.232 L -127.387,-136.204 z
" stroke="black" fill="lightgray" stroke-width="0.5"/>
</svg>
