<?xml version="1.0" standalone="no"?>
<!DOCTYPE svg PUBLIC "-//W3C//DTD SVG 1.1//EN" "http://www.w3.org/Graphics/SVG/1.1/DTD/svg11.dtd">
<svg width="256mm" height="100mm" viewBox="-128 -185 256 100" xmlns="http://www.w3.org/2000/svg" version="1.1">
<title>OpenSCAD Model</title>
<path d="
M 123.437,-139.589 L 124.045,-139.745 L 124.629,-139.976 L 125.179,-140.278 L 125.687,-140.647 L 126.145,-141.077
 L 126.545,-141.561 L 126.882,-142.091 L 127.149,-142.659 L 127.343,-143.257 L 127.461,-143.873 L 127.5,-144.5
 L 127.5,-179.5 L 127.461,-180.127 L 127.343,-180.743 L 127.149,-181.341 L 126.882,-181.909 L 126.545,-182.439
 L 126.145,-182.923 L 125.687,-183.353 L 125.179,-183.722 L 124.629,-184.024 L 124.045,-184.255 L 123.437,-184.411
 L 122.814,-184.49 L -122.814,-184.49 L -123.437,-184.411 L -124.045,-184.255 L -124.629,-184.024 L -125.179,-183.722
 L -125.687,-183.353 L -126.145,-182.923 L -126.545,-182.439 L -126.882,-181.909 L -127.149,-181.341 L -127.343,-180.743
 L -127.461,-180.127 L -127.5,-179.5 L -127.5,-144.5 L -127.461,-143.873 L -127.343,-143.257 L -127.149,-142.659
 L -126.882,-142.091 L -126.545,-141.561 L -126.145,-141.077 L -125.687,-140.647 L -125.179,-140.278 L -124.629,-139.976
 L -124.045,-139.745 L -123.437,-139.589 L -122.814,-139.51 L 122.814,-139.51 z
M -122.537,-140.181 L -123.108,-140.253 L -123.665,-140.396 L -124.199,-140.607 L -124.703,-140.884 L -125.168,-141.222
 L -125.588,-141.616 L -125.954,-142.059 L -126.262,-142.544 L -126.507,-143.065 L -126.685,-143.611 L -126.792,-144.176
 L -126.828,-144.75 L -126.828,-179.25 L -126.792,-179.824 L -126.685,-180.389 L -126.507,-180.935 L -126.262,-181.456
 L -125.954,-181.941 L -125.588,-182.384 L -125.168,-182.778 L -124.703,-183.116 L -124.199,-183.393 L -123.665,-183.604
 L -123.108,-183.747 L -122.537,-183.819 L 122.537,-183.819 L 123.108,-183.747 L 123.665,-183.604 L 124.199,-183.393
 L 124.703,-183.116 L 125.168,-182.778 L 125.588,-182.384 L 125.954,-181.941 L 126.262,-181.456 L 126.507,-180.935
 L 126.685,-180.389 L 126.792,-179.824 L 126.828,-179.25 L 126.828,-144.75 L 126.792,-144.176 L 126.685,-143.611
 L 126.507,-143.065 L 126.262,-142.544 L 125.954,-142.059 L 125.588,-141.616 L 125.168,-141.222 L 124.703,-140.884
 L 124.199,-140.607 L 123.665,-140.396 L 123.108,-140.253 L 122.537,-140.181 z
M 123.437,-85.5886 L 124.045,-85.7447 L 124.629,-85.9759 L 125.179,-86.2784 L 125.687,-86.6474 L 126.145,-87.0773
 L 126.545,-87.5611 L 126.882,-88.0912 L 127.149,-88.6594 L 127.343,-89.2566 L 127.461,-89.8733 L 127.5,-90.5
 L 127.5,-125.5 L 127.461,-126.127 L 127.343,-126.743 L 127.149,-127.341 L 126.882,-127.909 L 126.545,-128.439
 L 126.145,-128.923 L 125.687,-129.353 L 125.179,-129.722 L 124.629,-130.024 L 124.045,-130.255 L 123.437,-130.411
 L 122.814,-130.49 L -122.814,-130.49 L -123.437,-130.411 L -124.045,-130.255 L -124.629,-130.024 L -125.179,-129.722
 L -125.687,-129.353 L -126.145,-128.923 L -126.545,-128.439 L -126.882,-127.909 L -127.149,-127.341 L -127.343,-126.743
 L -127.461,-126.127 L -127.5,-125.5 L -127.5,-90.5 L -127.461,-89.8733 L -127.343,-89.2566 L -127.149,-88.6594
 L -126.882,-88.0912 L -126.545,-87.5611 L -126.145,-87.0773 L -125.687,-86.6474 L -125.179,-86.2784 L -124.629,-85.9759
 L -124.045,-85.7447 L -123.437,-85.5886 L -122.814,-85.5099 L 122.814,-85.5099 z
M -122.382,-88.6445 L -122.645,-88.6777 L -122.902,-88.7436 L -123.148,-88.8412 L -123.38,-88.9688 L -123.595,-89.1245
 L -123.788,-89.3059 L -123.957,-89.51 L -124.099,-89.7337 L -124.211,-89.9734 L -124.293,-90.2254 L -124.343,-90.4856
 L -124.36,-90.75 L -124.36,-125.25 L -124.343,-125.514 L -124.293,-125.775 L -124.211,-126.027 L -124.099,-126.266
 L -123.957,-126.49 L -123.788,-126.694 L -123.595,-126.875 L -123.38,-127.031 L -123.148,-127.159 L -122.902,-127.256
 L -122.645,-127.322 L -122.382,-127.355 L 122.382,-127.355 L 122.645,-127.322 L 122.902,-127.256 L 123.148,-127.159
 L 123.38,-127.031 L 123.595,-126.875 L 123.788,-126.694 L 123.957,-126.49 L 124.099,-126.266 L 124.211,-126.027
 L 124.293,-125.775 L 124.343,-125.514 L 124.36,-125.25 L 124.36,-90.75 L 124.343,-90.4856 L 124.293,-90.2254
 L 124.211,-89.9734 L 124.099,-89.7337 L 123.957,-89.51 L 123.788,-89.3059 L 123.595,-89.1245 L 123.38,-88.9688
 L 123.148,-88.8412 L 122.902,-88.7436 L 122.645,-88.6777 L 122.382,-88.6445 z
" stroke="black" fill="lightgray" stroke-width="0.5"/>
</svg>
