<?xml version="1.0" standalone="no"?>
<!DOCTYPE svg PUBLIC "-//W3C//DTD SVG 1.1//EN" "http://www.w3.org/Graphics/SVG/1.1/DTD/svg11.dtd">
<svg width="257mm" height="489mm" viewBox="-129 -618 257 489" xmlns="http://www.w3.org/2000/svg" version="1.1">
<title>OpenSCAD Model</title>
<path d="
M 123.437,-378.089 L 124.045,-378.245 L 124.629,-378.476 L 125.179,-378.778 L 125.687,-379.147 L 126.145,-379.577
 L 126.545,-380.061 L 126.882,-380.591 L 127.149,-381.159 L 127.343,-381.757 L 127.461,-382.373 L 127.5,-383
 L 127.5,-613 L 127.461,-613.627 L 127.343,-614.243 L 127.149,-614.841 L 126.882,-615.409 L 126.545,-615.939
 L 126.145,-616.423 L 125.687,-616.853 L 125.179,-617.222 L 124.629,-617.524 L 124.045,-617.755 L 123.437,-617.911
 L 122.814,-617.99 L -122.814,-617.99 L -123.437,-617.911 L -124.045,-617.755 L -124.629,-617.524 L -125.179,-617.222
 L -125.687,-616.853 L -126,-616.559 L -126,-617.615 L -129,-617.615 L -129,-378.385 L -126,-378.385
 L -126,-379.441 L -125.687,-379.147 L -125.179,-378.778 L -124.629,-378.476 L -124.045,-378.245 L -123.437,-378.089
 L -122.814,-378.01 L 122.814,-378.01 z
M 119.849,-608.105 L 119.55,-608.143 L 119.258,-608.217 L 118.978,-608.328 L 118.714,-608.474 L 118.47,-608.651
 L 118.25,-608.857 L 118.058,-609.089 L 117.897,-609.344 L 117.769,-609.617 L 117.675,-609.903 L 117.619,-610.199
 L 117.6,-610.5 L 117.619,-610.801 L 117.675,-611.097 L 117.769,-611.383 L 117.897,-611.656 L 118.058,-611.911
 L 118.25,-612.143 L 118.47,-612.349 L 118.714,-612.526 L 118.978,-612.672 L 119.258,-612.783 L 119.55,-612.857
 L 119.849,-612.895 L 120.151,-612.895 L 120.45,-612.857 L 120.742,-612.783 L 121.022,-612.672 L 121.286,-612.526
 L 121.53,-612.349 L 121.75,-612.143 L 121.942,-611.911 L 122.103,-611.656 L 122.231,-611.383 L 122.325,-611.097
 L 122.381,-610.801 L 122.4,-610.5 L 122.381,-610.199 L 122.325,-609.903 L 122.231,-609.617 L 122.103,-609.344
 L 121.942,-609.089 L 121.75,-608.857 L 121.53,-608.651 L 121.286,-608.474 L 121.022,-608.328 L 120.742,-608.217
 L 120.45,-608.143 L 120.151,-608.105 z
M -120.151,-608.105 L -120.45,-608.143 L -120.742,-608.217 L -121.022,-608.328 L -121.286,-608.474 L -121.53,-608.651
 L -121.75,-608.857 L -121.942,-609.089 L -122.103,-609.344 L -122.231,-609.617 L -122.325,-609.903 L -122.381,-610.199
 L -122.4,-610.5 L -122.381,-610.801 L -122.325,-611.097 L -122.231,-611.383 L -122.103,-611.656 L -121.942,-611.911
 L -121.75,-612.143 L -121.53,-612.349 L -121.286,-612.526 L -121.022,-612.672 L -120.742,-612.783 L -120.45,-612.857
 L -120.151,-612.895 L -119.849,-612.895 L -119.55,-612.857 L -119.258,-612.783 L -118.978,-612.672 L -118.714,-612.526
 L -118.47,-612.349 L -118.25,-612.143 L -118.058,-611.911 L -117.897,-611.656 L -117.769,-611.383 L -117.675,-611.097
 L -117.619,-610.801 L -117.6,-610.5 L -117.619,-610.199 L -117.675,-609.903 L -117.769,-609.617 L -117.897,-609.344
 L -118.058,-609.089 L -118.25,-608.857 L -118.47,-608.651 L -118.714,-608.474 L -118.978,-608.328 L -119.258,-608.217
 L -119.55,-608.143 L -119.849,-608.105 z
M 119.849,-383.105 L 119.55,-383.143 L 119.258,-383.217 L 118.978,-383.328 L 118.714,-383.474 L 118.47,-383.651
 L 118.25,-383.857 L 118.058,-384.089 L 117.897,-384.344 L 117.769,-384.617 L 117.675,-384.903 L 117.619,-385.199
 L 117.6,-385.5 L 117.619,-385.801 L 117.675,-386.097 L 117.769,-386.383 L 117.897,-386.656 L 118.058,-386.911
 L 118.25,-387.143 L 118.47,-387.349 L 118.714,-387.526 L 118.978,-387.672 L 119.258,-387.783 L 119.55,-387.857
 L 119.849,-387.895 L 120.151,-387.895 L 120.45,-387.857 L 120.742,-387.783 L 121.022,-387.672 L 121.286,-387.526
 L 121.53,-387.349 L 121.75,-387.143 L 121.942,-386.911 L 122.103,-386.656 L 122.231,-386.383 L 122.325,-386.097
 L 122.381,-385.801 L 122.4,-385.5 L 122.381,-385.199 L 122.325,-384.903 L 122.231,-384.617 L 122.103,-384.344
 L 121.942,-384.089 L 121.75,-383.857 L 121.53,-383.651 L 121.286,-383.474 L 121.022,-383.328 L 120.742,-383.217
 L 120.45,-383.143 L 120.151,-383.105 z
M -120.151,-383.105 L -120.45,-383.143 L -120.742,-383.217 L -121.022,-383.328 L -121.286,-383.474 L -121.53,-383.651
 L -121.75,-383.857 L -121.942,-384.089 L -122.103,-384.344 L -122.231,-384.617 L -122.325,-384.903 L -122.381,-385.199
 L -122.4,-385.5 L -122.381,-385.801 L -122.325,-386.097 L -122.231,-386.383 L -122.103,-386.656 L -121.942,-386.911
 L -121.75,-387.143 L -121.53,-387.349 L -121.286,-387.526 L -121.022,-387.672 L -120.742,-387.783 L -120.45,-387.857
 L -120.151,-387.895 L -119.849,-387.895 L -119.55,-387.857 L -119.258,-387.783 L -118.978,-387.672 L -118.714,-387.526
 L -118.47,-387.349 L -118.25,-387.143 L -118.058,-386.911 L -117.897,-386.656 L -117.769,-386.383 L -117.675,-386.097
 L -117.619,-385.801 L -117.6,-385.5 L -117.619,-385.199 L -117.675,-384.903 L -117.769,-384.617 L -117.897,-384.344
 L -118.058,-384.089 L -118.25,-383.857 L -118.47,-383.651 L -118.714,-383.474 L -118.978,-383.328 L -119.258,-383.217
 L -119.55,-383.143 L -119.849,-383.105 z
M 123.437,-129.089 L 124.045,-129.245 L 124.629,-129.476 L 125.179,-129.778 L 125.687,-130.147 L 126.145,-130.577
 L 126.545,-131.061 L 126.882,-131.591 L 127.149,-132.159 L 127.343,-132.757 L 127.461,-133.373 L 127.5,-134
 L 127.5,-364 L 127.461,-364.627 L 127.343,-365.243 L 127.149,-365.841 L 126.882,-366.409 L 126.545,-366.939
 L 126.145,-367.423 L 125.687,-367.853 L 125.179,-368.222 L 124.629,-368.524 L 124.045,-368.755 L 123.437,-368.911
 L 122.814,-368.99 L -122.814,-368.99 L -123.437,-368.911 L -124.045,-368.755 L -124.629,-368.524 L -125.179,-368.222
 L -125.687,-367.853 L -126.145,-367.423 L -126.545,-366.939 L -126.882,-366.409 L -127.149,-365.841 L -127.343,-365.243
 L -127.4,-364.944 L -129,-364.944 L -129,-133.056 L -127.4,-133.056 L -127.343,-132.757 L -127.149,-132.159
 L -126.882,-131.591 L -126.545,-131.061 L -126.145,-130.577 L -125.687,-130.147 L -125.179,-129.778 L -124.629,-129.476
 L -124.045,-129.245 L -123.437,-129.089 L -122.814,-129.01 L 122.814,-129.01 z
M -120.113,-359.704 L -120.337,-359.732 L -120.556,-359.788 L -120.766,-359.871 L -120.964,-359.98 L -121.147,-360.113
 L -121.312,-360.268 L -121.456,-360.442 L -121.577,-360.633 L -121.674,-360.837 L -121.743,-361.052 L -121.786,-361.274
 L -121.8,-361.5 L -121.786,-361.726 L -121.743,-361.948 L -121.674,-362.163 L -121.577,-362.367 L -121.456,-362.558
 L -121.312,-362.732 L -121.147,-362.887 L -120.964,-363.02 L -120.766,-363.129 L -120.556,-363.212 L -120.337,-363.268
 L -120.113,-363.296 L -119.887,-363.296 L -119.663,-363.268 L -119.444,-363.212 L -119.234,-363.129 L -119.036,-363.02
 L -118.853,-362.887 L -118.688,-362.732 L -118.544,-362.558 L -118.423,-362.367 L -118.326,-362.163 L -118.257,-361.948
 L -118.214,-361.726 L -118.2,-361.5 L -118.214,-361.274 L -118.257,-361.052 L -118.326,-360.837 L -118.423,-360.633
 L -118.544,-360.442 L -118.688,-360.268 L -118.853,-360.113 L -119.036,-359.98 L -119.234,-359.871 L -119.444,-359.788
 L -119.663,-359.732 L -119.887,-359.704 z
M 119.887,-359.704 L 119.663,-359.732 L 119.444,-359.788 L 119.234,-359.871 L 119.036,-359.98 L 118.853,-360.113
 L 118.688,-360.268 L 118.544,-360.442 L 118.423,-360.633 L 118.326,-360.837 L 118.257,-361.052 L 118.214,-361.274
 L 118.2,-361.5 L 118.214,-361.726 L 118.257,-361.948 L 118.326,-362.163 L 118.423,-362.367 L 118.544,-362.558
 L 118.688,-362.732 L 118.853,-362.887 L 119.036,-363.02 L 119.234,-363.129 L 119.444,-363.212 L 119.663,-363.268
 L 119.887,-363.296 L 120.113,-363.296 L 120.337,-363.268 L 120.556,-363.212 L 120.766,-363.129 L 120.964,-363.02
 L 121.147,-362.887 L 121.312,-362.732 L 121.456,-362.558 L 121.577,-362.367 L 121.674,-362.163 L 121.743,-361.948
 L 121.786,-361.726 L 121.8,-361.5 L 121.786,-361.274 L 121.743,-361.052 L 121.674,-360.837 L 121.577,-360.633
 L 121.456,-360.442 L 121.312,-360.268 L 121.147,-360.113 L 120.964,-359.98 L 120.766,-359.871 L 120.556,-359.788
 L 120.337,-359.732 L 120.113,-359.704 z
M 119.887,-134.704 L 119.663,-134.732 L 119.444,-134.788 L 119.234,-134.871 L 119.036,-134.98 L 118.853,-135.113
 L 118.688,-135.268 L 118.544,-135.442 L 118.423,-135.633 L 118.326,-135.837 L 118.257,-136.052 L 118.214,-136.274
 L 118.2,-136.5 L 118.214,-136.726 L 118.257,-136.948 L 118.326,-137.163 L 118.423,-137.367 L 118.544,-137.558
 L 118.688,-137.732 L 118.853,-137.887 L 119.036,-138.02 L 119.234,-138.129 L 119.444,-138.212 L 119.663,-138.268
 L 119.887,-138.296 L 120.113,-138.296 L 120.337,-138.268 L 120.556,-138.212 L 120.766,-138.129 L 120.964,-138.02
 L 121.147,-137.887 L 121.312,-137.732 L 121.456,-137.558 L 121.577,-137.367 L 121.674,-137.163 L 121.743,-136.948
 L 121.786,-136.726 L 121.8,-136.5 L 121.786,-136.274 L 121.743,-136.052 L 121.674,-135.837 L 121.577,-135.633
 L 121.456,-135.442 L 121.312,-135.268 L 121.147,-135.113 L 120.964,-134.98 L 120.766,-134.871 L 120.556,-134.788
 L 120.337,-134.732 L 120.113,-134.704 z
M -120.113,-134.704 L -120.337,-134.732 L -120.556,-134.788 L -120.766,-134.871 L -120.964,-134.98 L -121.147,-135.113
 L -121.312,-135.268 L -121.456,-135.442 L -121.577,-135.633 L -121.674,-135.837 L -121.743,-136.052 L -121.786,-136.274
 L -121.8,-136.5 L -121.786,-136.726 L -121.743,-136.948 L -121.674,-137.163 L -121.577,-137.367 L -121.456,-137.558
 L -121.312,-137.732 L -121.147,-137.887 L -120.964,-138.02 L -120.766,-138.129 L -120.556,-138.212 L -120.337,-138.268
 L -120.113,-138.296 L -119.887,-138.296 L -119.663,-138.268 L -119.444,-138.212 L -119.234,-138.129 L -119.036,-138.02
 L -118.853,-137.887 L -118.688,-137.732 L -118.544,-137.558 L -118.423,-137.367 L -118.326,-137.163 L -118.257,-136.948
 L -118.214,-136.726 L -118.2,-136.5 L -118.214,-136.274 L -118.257,-136.052 L -118.326,-135.837 L -118.423,-135.633
 L -118.544,-135.442 L -118.688,-135.268 L -118.853,-135.113 L -119.036,-134.98 L -119.234,-134.871 L -119.444,-134.788
 L -119.663,-134.732 L -119.887,-134.704 z
" stroke="black" fill="lightgray" stroke-width="0.5"/>
</svg>
