<?xml version="1.0" standalone="no"?>
<!DOCTYPE svg PUBLIC "-//W3C//DTD SVG 1.1//EN" "http://www.w3.org/Graphics/SVG/1.1/DTD/svg11.dtd">
<svg width="302mm" height="328mm" viewBox="-152 -626 302 328" xmlns="http://www.w3.org/2000/svg" version="1.1">
<title>OpenSCAD Model</title>
<path d="
M -148.5,-551.941 L -148.187,-551.647 L -147.679,-551.278 L -147.129,-550.976 L -146.545,-550.745 L -145.937,-550.589
 L -145.314,-550.51 L 145.314,-550.51 L 145.937,-550.589 L 146.545,-550.745 L 147.129,-550.976 L 147.679,-551.278
 L 148.187,-551.647 L 148.645,-552.077 L 149.045,-552.561 L 149.382,-553.091 L 149.649,-553.659 L 149.843,-554.257
 L 149.961,-554.873 L 150,-555.5 L 150,-620.5 L 149.961,-621.127 L 149.843,-621.743 L 149.649,-622.341
 L 149.382,-622.909 L 149.045,-623.439 L 148.645,-623.923 L 148.187,-624.353 L 147.679,-624.722 L 147.129,-625.024
 L 146.545,-625.255 L 145.937,-625.411 L 145.314,-625.49 L -145.314,-625.49 L -145.937,-625.411 L -146.545,-625.255
 L -147.129,-625.024 L -147.679,-624.722 L -148.187,-624.353 L -148.5,-624.059 L -148.5,-625.49 L -151.5,-625.49
 L -151.5,-550.51 L -148.5,-550.51 z
M -144.751,-552.008 L -145.25,-552.071 L -145.736,-552.196 L -146.203,-552.381 L -146.643,-552.623 L -147.05,-552.918
 L -147.416,-553.262 L -147.736,-553.649 L -148.005,-554.073 L -148.219,-554.528 L -148.374,-555.005 L -148.468,-555.499
 L -148.5,-556 L -148.5,-620 L -148.468,-620.501 L -148.374,-620.995 L -148.219,-621.472 L -148.005,-621.927
 L -147.736,-622.351 L -147.416,-622.738 L -147.05,-623.082 L -146.643,-623.377 L -146.203,-623.619 L -145.736,-623.804
 L -145.25,-623.929 L -144.751,-623.992 L 144.751,-623.992 L 145.25,-623.929 L 145.736,-623.804 L 146.203,-623.619
 L 146.643,-623.377 L 147.05,-623.082 L 147.416,-622.738 L 147.736,-622.351 L 148.005,-621.927 L 148.219,-621.472
 L 148.374,-620.995 L 148.468,-620.501 L 148.5,-620 L 148.5,-556 L 148.468,-555.499 L 148.374,-555.005
 L 148.219,-554.528 L 148.005,-554.073 L 147.736,-553.649 L 147.416,-553.262 L 147.05,-552.918 L 146.643,-552.623
 L 146.203,-552.381 L 145.736,-552.196 L 145.25,-552.071 L 144.751,-552.008 z
M -148.5,-467.941 L -148.187,-467.647 L -147.679,-467.278 L -147.129,-466.976 L -146.545,-466.745 L -145.937,-466.589
 L -145.314,-466.51 L 145.314,-466.51 L 145.937,-466.589 L 146.545,-466.745 L 147.129,-466.976 L 147.679,-467.278
 L 148.187,-467.647 L 148.645,-468.077 L 149.045,-468.561 L 149.382,-469.091 L 149.649,-469.659 L 149.843,-470.257
 L 149.961,-470.873 L 150,-471.5 L 150,-536.5 L 149.961,-537.127 L 149.843,-537.743 L 149.649,-538.341
 L 149.382,-538.909 L 149.045,-539.439 L 148.645,-539.923 L 148.187,-540.353 L 147.679,-540.722 L 147.129,-541.024
 L 146.545,-541.255 L 145.937,-541.411 L 145.314,-541.49 L -145.314,-541.49 L -145.937,-541.411 L -146.545,-541.255
 L -147.129,-541.024 L -147.679,-540.722 L -148.187,-540.353 L -148.5,-540.059 L -148.5,-541.49 L -151.5,-541.49
 L -151.5,-466.51 L -148.5,-466.51 z
M -144.751,-468.008 L -145.25,-468.071 L -145.736,-468.196 L -146.203,-468.381 L -146.643,-468.623 L -147.05,-468.918
 L -147.416,-469.262 L -147.736,-469.649 L -148.005,-470.073 L -148.219,-470.528 L -148.374,-471.005 L -148.468,-471.499
 L -148.5,-472 L -148.5,-536 L -148.468,-536.501 L -148.374,-536.995 L -148.219,-537.472 L -148.005,-537.927
 L -147.736,-538.351 L -147.416,-538.738 L -147.05,-539.082 L -146.643,-539.377 L -146.203,-539.619 L -145.736,-539.804
 L -145.25,-539.929 L -144.751,-539.992 L 144.751,-539.992 L 145.25,-539.929 L 145.736,-539.804 L 146.203,-539.619
 L 146.643,-539.377 L 147.05,-539.082 L 147.416,-538.738 L 147.736,-538.351 L 148.005,-537.927 L 148.219,-537.472
 L 148.374,-536.995 L 148.468,-536.501 L 148.5,-536 L 148.5,-472 L 148.468,-471.499 L 148.374,-471.005
 L 148.219,-470.528 L 148.005,-470.073 L 147.736,-469.649 L 147.416,-469.262 L 147.05,-468.918 L 146.643,-468.623
 L 146.203,-468.381 L 145.736,-468.196 L 145.25,-468.071 L 144.751,-468.008 z
M 145.937,-382.589 L 146.545,-382.745 L 147.129,-382.976 L 147.679,-383.278 L 148.187,-383.647 L 148.645,-384.077
 L 149.045,-384.561 L 149.382,-385.091 L 149.649,-385.659 L 149.843,-386.257 L 149.961,-386.873 L 150,-387.5
 L 150,-452.5 L 149.961,-453.127 L 149.843,-453.743 L 149.649,-454.341 L 149.382,-454.909 L 149.045,-455.439
 L 148.645,-455.923 L 148.187,-456.353 L 147.679,-456.722 L 147.129,-457.024 L 146.545,-457.255 L 145.937,-457.411
 L 145.314,-457.49 L -145.314,-457.49 L -145.937,-457.411 L -146.545,-457.255 L -147.129,-457.024 L -147.679,-456.722
 L -148.187,-456.353 L -148.5,-456.059 L -148.5,-457.479 L -151.5,-457.479 L -151.5,-382.521 L -148.5,-382.521
 L -148.5,-383.941 L -148.187,-383.647 L -147.679,-383.278 L -147.129,-382.976 L -146.545,-382.745 L -145.937,-382.589
 L -145.314,-382.51 L 145.314,-382.51 z
M -144.695,-384.893 L -145.083,-384.942 L -145.462,-385.039 L -145.825,-385.183 L -146.168,-385.372 L -146.484,-385.601
 L -146.769,-385.869 L -147.018,-386.17 L -147.228,-386.5 L -147.394,-386.854 L -147.515,-387.226 L -147.588,-387.61
 L -147.613,-388 L -147.613,-452 L -147.588,-452.39 L -147.515,-452.774 L -147.394,-453.146 L -147.228,-453.5
 L -147.018,-453.83 L -146.769,-454.131 L -146.484,-454.399 L -146.168,-454.628 L -145.825,-454.817 L -145.462,-454.961
 L -145.083,-455.058 L -144.695,-455.107 L 144.695,-455.107 L 145.083,-455.058 L 145.462,-454.961 L 145.825,-454.817
 L 146.168,-454.628 L 146.484,-454.399 L 146.769,-454.131 L 147.018,-453.83 L 147.228,-453.5 L 147.394,-453.146
 L 147.515,-452.774 L 147.588,-452.39 L 147.613,-452 L 147.613,-388 L 147.588,-387.61 L 147.515,-387.226
 L 147.394,-386.854 L 147.228,-386.5 L 147.018,-386.17 L 146.769,-385.869 L 146.484,-385.601 L 146.168,-385.372
 L 145.825,-385.183 L 145.462,-385.039 L 145.083,-384.942 L 144.695,-384.893 z
M 145.937,-298.589 L 146.545,-298.745 L 147.129,-298.976 L 147.679,-299.278 L 148.187,-299.647 L 148.645,-300.077
 L 149.045,-300.561 L 149.382,-301.091 L 149.649,-301.659 L 149.843,-302.257 L 149.961,-302.873 L 150,-303.5
 L 150,-368.5 L 149.961,-369.127 L 149.843,-369.743 L 149.649,-370.341 L 149.382,-370.909 L 149.045,-371.439
 L 148.645,-371.923 L 148.187,-372.353 L 147.679,-372.722 L 147.129,-373.024 L 146.545,-373.255 L 145.937,-373.411
 L 145.314,-373.49 L -145.314,-373.49 L -145.937,-373.411 L -146.545,-373.255 L -147.129,-373.024 L -147.679,-372.722
 L -148.187,-372.353 L -148.5,-372.059 L -148.5,-372.153 L -151.5,-372.153 L -151.5,-299.847 L -148.5,-299.847
 L -148.5,-299.941 L -148.187,-299.647 L -147.679,-299.278 L -147.129,-298.976 L -146.545,-298.745 L -145.937,-298.589
 L -145.314,-298.51 L 145.314,-298.51 z
M -142.634,-363.869 L -142.9,-363.903 L -143.16,-363.969 L -143.409,-364.068 L -143.644,-364.197 L -143.861,-364.355
 L -144.057,-364.538 L -144.227,-364.745 L -144.371,-364.971 L -144.485,-365.214 L -144.568,-365.469 L -144.618,-365.732
 L -144.635,-366 L -144.618,-366.268 L -144.568,-366.531 L -144.485,-366.786 L -144.371,-367.029 L -144.227,-367.255
 L -144.057,-367.462 L -143.861,-367.645 L -143.644,-367.803 L -143.409,-367.932 L -143.16,-368.031 L -142.9,-368.097
 L -142.634,-368.131 L -142.366,-368.131 L -142.1,-368.097 L -141.84,-368.031 L -141.591,-367.932 L -141.356,-367.803
 L -141.139,-367.645 L -140.943,-367.462 L -140.773,-367.255 L -140.629,-367.029 L -140.515,-366.786 L -140.432,-366.531
 L -140.382,-366.268 L -140.365,-366 L -140.382,-365.732 L -140.432,-365.469 L -140.515,-365.214 L -140.629,-364.971
 L -140.773,-364.745 L -140.943,-364.538 L -141.139,-364.355 L -141.356,-364.197 L -141.591,-364.068 L -141.84,-363.969
 L -142.1,-363.903 L -142.366,-363.869 z
M 142.366,-363.869 L 142.1,-363.903 L 141.84,-363.969 L 141.591,-364.068 L 141.356,-364.197 L 141.139,-364.355
 L 140.943,-364.538 L 140.773,-364.745 L 140.629,-364.971 L 140.515,-365.214 L 140.432,-365.469 L 140.382,-365.732
 L 140.365,-366 L 140.382,-366.268 L 140.432,-366.531 L 140.515,-366.786 L 140.629,-367.029 L 140.773,-367.255
 L 140.943,-367.462 L 141.139,-367.645 L 141.356,-367.803 L 141.591,-367.932 L 141.84,-368.031 L 142.1,-368.097
 L 142.366,-368.131 L 142.634,-368.131 L 142.9,-368.097 L 143.16,-368.031 L 143.409,-367.932 L 143.644,-367.803
 L 143.861,-367.645 L 144.057,-367.462 L 144.227,-367.255 L 144.371,-367.029 L 144.485,-366.786 L 144.568,-366.531
 L 144.618,-366.268 L 144.635,-366 L 144.618,-365.732 L 144.568,-365.469 L 144.485,-365.214 L 144.371,-364.971
 L 144.227,-364.745 L 144.057,-364.538 L 143.861,-364.355 L 143.644,-364.197 L 143.409,-364.068 L 143.16,-363.969
 L 142.9,-363.903 L 142.634,-363.869 z
M -142.634,-303.869 L -142.9,-303.903 L -143.16,-303.969 L -143.409,-304.068 L -143.644,-304.197 L -143.861,-304.355
 L -144.057,-304.538 L -144.227,-304.745 L -144.371,-304.971 L -144.485,-305.214 L -144.568,-305.469 L -144.618,-305.732
 L -144.635,-306 L -144.618,-306.268 L -144.568,-306.531 L -144.485,-306.786 L -144.371,-307.029 L -144.227,-307.255
 L -144.057,-307.462 L -143.861,-307.645 L -143.644,-307.803 L -143.409,-307.932 L -143.16,-308.031 L -142.9,-308.097
 L -142.634,-308.131 L -142.366,-308.131 L -142.1,-308.097 L -141.84,-308.031 L -141.591,-307.932 L -141.356,-307.803
 L -141.139,-307.645 L -140.943,-307.462 L -140.773,-307.255 L -140.629,-307.029 L -140.515,-306.786 L -140.432,-306.531
 L -140.382,-306.268 L -140.365,-306 L -140.382,-305.732 L -140.432,-305.469 L -140.515,-305.214 L -140.629,-304.971
 L -140.773,-304.745 L -140.943,-304.538 L -141.139,-304.355 L -141.356,-304.197 L -141.591,-304.068 L -141.84,-303.969
 L -142.1,-303.903 L -142.366,-303.869 z
M 142.366,-303.869 L 142.1,-303.903 L 141.84,-303.969 L 141.591,-304.068 L 141.356,-304.197 L 141.139,-304.355
 L 140.943,-304.538 L 140.773,-304.745 L 140.629,-304.971 L 140.515,-305.214 L 140.432,-305.469 L 140.382,-305.732
 L 140.365,-306 L 140.382,-306.268 L 140.432,-306.531 L 140.515,-306.786 L 140.629,-307.029 L 140.773,-307.255
 L 140.943,-307.462 L 141.139,-307.645 L 141.356,-307.803 L 141.591,-307.932 L 141.84,-308.031 L 142.1,-308.097
 L 142.366,-308.131 L 142.634,-308.131 L 142.9,-308.097 L 143.16,-308.031 L 143.409,-307.932 L 143.644,-307.803
 L 143.861,-307.645 L 144.057,-307.462 L 144.227,-307.255 L 144.371,-307.029 L 144.485,-306.786 L 144.568,-306.531
 L 144.618,-306.268 L 144.635,-306 L 144.618,-305.732 L 144.568,-305.469 L 144.485,-305.214 L 144.371,-304.971
 L 144.227,-304.745 L 144.057,-304.538 L 143.861,-304.355 L 143.644,-304.197 L 143.409,-304.068 L 143.16,-303.969
 L 142.9,-303.903 L 142.634,-303.869 z
" stroke="black" fill="lightgray" stroke-width="0.5"/>
</svg>
