<?xml version="1.0" standalone="no"?>
<!DOCTYPE svg PUBLIC "-//W3C//DTD SVG 1.1//EN" "http://www.w3.org/Graphics/SVG/1.1/DTD/svg11.dtd">
<svg width="302mm" height="249mm" viewBox="-152 -318 302 249" xmlns="http://www.w3.org/2000/svg" version="1.1">
<title>OpenSCAD Model</title>
<path d="
M 145.937,-198.089 L 146.545,-198.245 L 147.129,-198.476 L 147.679,-198.778 L 148.187,-199.147 L 148.645,-199.577
 L 149.045,-200.061 L 149.382,-200.591 L 149.649,-201.159 L 149.843,-201.757 L 149.961,-202.373 L 150,-203
 L 150,-313 L 149.961,-313.627 L 149.843,-314.243 L 149.649,-314.841 L 149.382,-315.409 L 149.045,-315.939
 L 148.645,-316.423 L 148.187,-316.853 L 147.679,-317.222 L 147.129,-317.524 L 146.545,-317.755 L 145.937,-317.911
 L 145.314,-317.99 L -145.314,-317.99 L -145.937,-317.911 L -146.545,-317.755 L -147.129,-317.524 L -147.679,-317.222
 L -148.187,-316.853 L -148.5,-316.559 L -148.5,-317.615 L -151.5,-317.615 L -151.5,-198.385 L -148.5,-198.385
 L -148.5,-199.441 L -148.187,-199.147 L -147.679,-198.778 L -147.129,-198.476 L -146.545,-198.245 L -145.937,-198.089
 L -145.314,-198.01 L 145.314,-198.01 z
M -142.651,-308.105 L -142.95,-308.143 L -143.242,-308.217 L -143.522,-308.328 L -143.786,-308.474 L -144.03,-308.651
 L -144.25,-308.857 L -144.442,-309.089 L -144.603,-309.344 L -144.731,-309.617 L -144.825,-309.903 L -144.881,-310.199
 L -144.9,-310.5 L -144.881,-310.801 L -144.825,-311.097 L -144.731,-311.383 L -144.603,-311.656 L -144.442,-311.911
 L -144.25,-312.143 L -144.03,-312.349 L -143.786,-312.526 L -143.522,-312.672 L -143.242,-312.783 L -142.95,-312.857
 L -142.651,-312.895 L -142.349,-312.895 L -142.05,-312.857 L -141.758,-312.783 L -141.478,-312.672 L -141.214,-312.526
 L -140.97,-312.349 L -140.75,-312.143 L -140.558,-311.911 L -140.397,-311.656 L -140.269,-311.383 L -140.175,-311.097
 L -140.119,-310.801 L -140.1,-310.5 L -140.119,-310.199 L -140.175,-309.903 L -140.269,-309.617 L -140.397,-309.344
 L -140.558,-309.089 L -140.75,-308.857 L -140.97,-308.651 L -141.214,-308.474 L -141.478,-308.328 L -141.758,-308.217
 L -142.05,-308.143 L -142.349,-308.105 z
M 142.349,-308.105 L 142.05,-308.143 L 141.758,-308.217 L 141.478,-308.328 L 141.214,-308.474 L 140.97,-308.651
 L 140.75,-308.857 L 140.558,-309.089 L 140.397,-309.344 L 140.269,-309.617 L 140.175,-309.903 L 140.119,-310.199
 L 140.1,-310.5 L 140.119,-310.801 L 140.175,-311.097 L 140.269,-311.383 L 140.397,-311.656 L 140.558,-311.911
 L 140.75,-312.143 L 140.97,-312.349 L 141.214,-312.526 L 141.478,-312.672 L 141.758,-312.783 L 142.05,-312.857
 L 142.349,-312.895 L 142.651,-312.895 L 142.95,-312.857 L 143.242,-312.783 L 143.522,-312.672 L 143.786,-312.526
 L 144.03,-312.349 L 144.25,-312.143 L 144.442,-311.911 L 144.603,-311.656 L 144.731,-311.383 L 144.825,-311.097
 L 144.881,-310.801 L 144.9,-310.5 L 144.881,-310.199 L 144.825,-309.903 L 144.731,-309.617 L 144.603,-309.344
 L 144.442,-309.089 L 144.25,-308.857 L 144.03,-308.651 L 143.786,-308.474 L 143.522,-308.328 L 143.242,-308.217
 L 142.95,-308.143 L 142.651,-308.105 z
M 142.349,-203.105 L 142.05,-203.143 L 141.758,-203.217 L 141.478,-203.328 L 141.214,-203.474 L 140.97,-203.651
 L 140.75,-203.857 L 140.558,-204.089 L 140.397,-204.344 L 140.269,-204.617 L 140.175,-204.903 L 140.119,-205.199
 L 140.1,-205.5 L 140.119,-205.801 L 140.175,-206.097 L 140.269,-206.383 L 140.397,-206.656 L 140.558,-206.911
 L 140.75,-207.143 L 140.97,-207.349 L 141.214,-207.526 L 141.478,-207.672 L 141.758,-207.783 L 142.05,-207.857
 L 142.349,-207.895 L 142.651,-207.895 L 142.95,-207.857 L 143.242,-207.783 L 143.522,-207.672 L 143.786,-207.526
 L 144.03,-207.349 L 144.25,-207.143 L 144.442,-206.911 L 144.603,-206.656 L 144.731,-206.383 L 144.825,-206.097
 L 144.881,-205.801 L 144.9,-205.5 L 144.881,-205.199 L 144.825,-204.903 L 144.731,-204.617 L 144.603,-204.344
 L 144.442,-204.089 L 144.25,-203.857 L 144.03,-203.651 L 143.786,-203.474 L 143.522,-203.328 L 143.242,-203.217
 L 142.95,-203.143 L 142.651,-203.105 z
M -142.651,-203.105 L -142.95,-203.143 L -143.242,-203.217 L -143.522,-203.328 L -143.786,-203.474 L -144.03,-203.651
 L -144.25,-203.857 L -144.442,-204.089 L -144.603,-204.344 L -144.731,-204.617 L -144.825,-204.903 L -144.881,-205.199
 L -144.9,-205.5 L -144.881,-205.801 L -144.825,-206.097 L -144.731,-206.383 L -144.603,-206.656 L -144.442,-206.911
 L -144.25,-207.143 L -144.03,-207.349 L -143.786,-207.526 L -143.522,-207.672 L -143.242,-207.783 L -142.95,-207.857
 L -142.651,-207.895 L -142.349,-207.895 L -142.05,-207.857 L -141.758,-207.783 L -141.478,-207.672 L -141.214,-207.526
 L -140.97,-207.349 L -140.75,-207.143 L -140.558,-206.911 L -140.397,-206.656 L -140.269,-206.383 L -140.175,-206.097
 L -140.119,-205.801 L -140.1,-205.5 L -140.119,-205.199 L -140.175,-204.903 L -140.269,-204.617 L -140.397,-204.344
 L -140.558,-204.089 L -140.75,-203.857 L -140.97,-203.651 L -141.214,-203.474 L -141.478,-203.328 L -141.758,-203.217
 L -142.05,-203.143 L -142.349,-203.105 z
M 145.937,-69.0886 L 146.545,-69.2447 L 147.129,-69.4759 L 147.679,-69.7784 L 148.187,-70.1474 L 148.645,-70.5773
 L 149.045,-71.0611 L 149.382,-71.5912 L 149.649,-72.1594 L 149.843,-72.7566 L 149.961,-73.3733 L 150,-74
 L 150,-184 L 149.961,-184.627 L 149.843,-185.243 L 149.649,-185.841 L 149.382,-186.409 L 149.045,-186.939
 L 148.645,-187.423 L 148.187,-187.853 L 147.679,-188.222 L 147.129,-188.524 L 146.545,-188.755 L 145.937,-188.911
 L 145.314,-188.99 L -145.314,-188.99 L -145.937,-188.911 L -146.545,-188.755 L -147.129,-188.524 L -147.679,-188.222
 L -148.187,-187.853 L -148.645,-187.423 L -149.045,-186.939 L -149.382,-186.409 L -149.649,-185.841 L -149.843,-185.243
 L -149.9,-184.944 L -151.5,-184.944 L -151.5,-73.0558 L -149.9,-73.0558 L -149.843,-72.7566 L -149.649,-72.1594
 L -149.382,-71.5912 L -149.045,-71.0611 L -148.645,-70.5773 L -148.187,-70.1474 L -147.679,-69.7784 L -147.129,-69.4759
 L -146.545,-69.2447 L -145.937,-69.0886 L -145.314,-69.0099 L 145.314,-69.0099 z
M -142.613,-179.704 L -142.837,-179.732 L -143.056,-179.788 L -143.266,-179.871 L -143.464,-179.98 L -143.647,-180.113
 L -143.812,-180.268 L -143.956,-180.442 L -144.077,-180.633 L -144.174,-180.837 L -144.243,-181.052 L -144.286,-181.274
 L -144.3,-181.5 L -144.286,-181.726 L -144.243,-181.948 L -144.174,-182.163 L -144.077,-182.367 L -143.956,-182.558
 L -143.812,-182.732 L -143.647,-182.887 L -143.464,-183.02 L -143.266,-183.129 L -143.056,-183.212 L -142.837,-183.268
 L -142.613,-183.296 L -142.387,-183.296 L -142.163,-183.268 L -141.944,-183.212 L -141.734,-183.129 L -141.536,-183.02
 L -141.353,-182.887 L -141.188,-182.732 L -141.044,-182.558 L -140.923,-182.367 L -140.826,-182.163 L -140.757,-181.948
 L -140.714,-181.726 L -140.7,-181.5 L -140.714,-181.274 L -140.757,-181.052 L -140.826,-180.837 L -140.923,-180.633
 L -141.044,-180.442 L -141.188,-180.268 L -141.353,-180.113 L -141.536,-179.98 L -141.734,-179.871 L -141.944,-179.788
 L -142.163,-179.732 L -142.387,-179.704 z
M 142.387,-179.704 L 142.163,-179.732 L 141.944,-179.788 L 141.734,-179.871 L 141.536,-179.98 L 141.353,-180.113
 L 141.188,-180.268 L 141.044,-180.442 L 140.923,-180.633 L 140.826,-180.837 L 140.757,-181.052 L 140.714,-181.274
 L 140.7,-181.5 L 140.714,-181.726 L 140.757,-181.948 L 140.826,-182.163 L 140.923,-182.367 L 141.044,-182.558
 L 141.188,-182.732 L 141.353,-182.887 L 141.536,-183.02 L 141.734,-183.129 L 141.944,-183.212 L 142.163,-183.268
 L 142.387,-183.296 L 142.613,-183.296 L 142.837,-183.268 L 143.056,-183.212 L 143.266,-183.129 L 143.464,-183.02
 L 143.647,-182.887 L 143.812,-182.732 L 143.956,-182.558 L 144.077,-182.367 L 144.174,-182.163 L 144.243,-181.948
 L 144.286,-181.726 L 144.3,-181.5 L 144.286,-181.274 L 144.243,-181.052 L 144.174,-180.837 L 144.077,-180.633
 L 143.956,-180.442 L 143.812,-180.268 L 143.647,-180.113 L 143.464,-179.98 L 143.266,-179.871 L 143.056,-179.788
 L 142.837,-179.732 L 142.613,-179.704 z
M 142.387,-74.7036 L 142.163,-74.7319 L 141.944,-74.7881 L 141.734,-74.8713 L 141.536,-74.9802 L 141.353,-75.1131
 L 141.188,-75.2678 L 141.044,-75.442 L 140.923,-75.6328 L 140.826,-75.8374 L 140.757,-76.0524 L 140.714,-76.2744
 L 140.7,-76.5 L 140.714,-76.7256 L 140.757,-76.9476 L 140.826,-77.1626 L 140.923,-77.3672 L 141.044,-77.558
 L 141.188,-77.7322 L 141.353,-77.8869 L 141.536,-78.0198 L 141.734,-78.1287 L 141.944,-78.2119 L 142.163,-78.2681
 L 142.387,-78.2964 L 142.613,-78.2964 L 142.837,-78.2681 L 143.056,-78.2119 L 143.266,-78.1287 L 143.464,-78.0198
 L 143.647,-77.8869 L 143.812,-77.7322 L 143.956,-77.558 L 144.077,-77.3672 L 144.174,-77.1626 L 144.243,-76.9476
 L 144.286,-76.7256 L 144.3,-76.5 L 144.286,-76.2744 L 144.243,-76.0524 L 144.174,-75.8374 L 144.077,-75.6328
 L 143.956,-75.442 L 143.812,-75.2678 L 143.647,-75.1131 L 143.464,-74.9802 L 143.266,-74.8713 L 143.056,-74.7881
 L 142.837,-74.7319 L 142.613,-74.7036 z
M -142.613,-74.7036 L -142.837,-74.7319 L -143.056,-74.7881 L -143.266,-74.8713 L -143.464,-74.9802 L -143.647,-75.1131
 L -143.812,-75.2678 L -143.956,-75.442 L -144.077,-75.6328 L -144.174,-75.8374 L -144.243,-76.0524 L -144.286,-76.2744
 L -144.3,-76.5 L -144.286,-76.7256 L -144.243,-76.9476 L -144.174,-77.1626 L -144.077,-77.3672 L -143.956,-77.558
 L -143.812,-77.7322 L -143.647,-77.8869 L -143.464,-78.0198 L -143.266,-78.1287 L -143.056,-78.2119 L -142.837,-78.2681
 L -142.613,-78.2964 L -142.387,-78.2964 L -142.163,-78.2681 L -141.944,-78.2119 L -141.734,-78.1287 L -141.536,-78.0198
 L -141.353,-77.8869 L -141.188,-77.7322 L -141.044,-77.558 L -140.923,-77.3672 L -140.826,-77.1626 L -140.757,-76.9476
 L -140.714,-76.7256 L -140.7,-76.5 L -140.714,-76.2744 L -140.757,-76.0524 L -140.826,-75.8374 L -140.923,-75.6328
 L -141.044,-75.442 L -141.188,-75.2678 L -141.353,-75.1131 L -141.536,-74.9802 L -141.734,-74.8713 L -141.944,-74.7881
 L -142.163,-74.7319 L -142.387,-74.7036 z
" stroke="black" fill="lightgray" stroke-width="0.5"/>
</svg>
