  0
SECTION
  2
BLOCKS
  0
ENDSEC
  0
SECTION
  2
ENTITIES
  0
LINE
  8
0
 10
-133.5
 20
649.441
 11
-133.187
 21
649.147
  0
LINE
  8
0
 10
-133.187
 20
649.147
 11
-132.679
 21
648.778
  0
LINE
  8
0
 10
-132.679
 20
648.778
 11
-132.129
 21
648.476
  0
LINE
  8
0
 10
-132.129
 20
648.476
 11
-131.545
 21
648.245
  0
LINE
  8
0
 10
-131.545
 20
648.245
 11
-130.937
 21
648.089
  0
LINE
  8
0
 10
-130.937
 20
648.089
 11
-130.314
 21
648.01
  0
LINE
  8
0
 10
-130.314
 20
648.01
 11
130.314
 21
648.01
  0
LINE
  8
0
 10
130.314
 20
648.01
 11
130.937
 21
648.089
  0
LINE
  8
0
 10
130.937
 20
648.089
 11
131.545
 21
648.245
  0
LINE
  8
0
 10
131.545
 20
648.245
 11
132.129
 21
648.476
  0
LINE
  8
0
 10
132.129
 20
648.476
 11
132.679
 21
648.778
  0
LINE
  8
0
 10
132.679
 20
648.778
 11
133.187
 21
649.147
  0
LINE
  8
0
 10
133.187
 20
649.147
 11
133.645
 21
649.577
  0
LINE
  8
0
 10
133.645
 20
649.577
 11
134.045
 21
650.061
  0
LINE
  8
0
 10
134.045
 20
650.061
 11
134.382
 21
650.591
  0
LINE
  8
0
 10
134.382
 20
650.591
 11
134.649
 21
651.159
  0
LINE
  8
0
 10
134.649
 20
651.159
 11
134.843
 21
651.757
  0
LINE
  8
0
 10
134.843
 20
651.757
 11
134.961
 21
652.373
  0
LINE
  8
0
 10
134.961
 20
652.373
 11
135
 21
653
  0
LINE
  8
0
 10
135
 20
653
 11
135
 21
733
  0
LINE
  8
0
 10
135
 20
733
 11
134.961
 21
733.627
  0
LINE
  8
0
 10
134.961
 20
733.627
 11
134.843
 21
734.243
  0
LINE
  8
0
 10
134.843
 20
734.243
 11
134.649
 21
734.841
  0
LINE
  8
0
 10
134.649
 20
734.841
 11
134.382
 21
735.409
  0
LINE
  8
0
 10
134.382
 20
735.409
 11
134.045
 21
735.939
  0
LINE
  8
0
 10
134.045
 20
735.939
 11
133.645
 21
736.423
  0
LINE
  8
0
 10
133.645
 20
736.423
 11
133.187
 21
736.853
  0
LINE
  8
0
 10
133.187
 20
736.853
 11
132.679
 21
737.222
  0
LINE
  8
0
 10
132.679
 20
737.222
 11
132.129
 21
737.524
  0
LINE
  8
0
 10
132.129
 20
737.524
 11
131.545
 21
737.755
  0
LINE
  8
0
 10
131.545
 20
737.755
 11
130.937
 21
737.911
  0
LINE
  8
0
 10
130.937
 20
737.911
 11
130.314
 21
737.99
  0
LINE
  8
0
 10
130.314
 20
737.99
 11
-130.314
 21
737.99
  0
LINE
  8
0
 10
-130.314
 20
737.99
 11
-130.937
 21
737.911
  0
LINE
  8
0
 10
-130.937
 20
737.911
 11
-131.545
 21
737.755
  0
LINE
  8
0
 10
-131.545
 20
737.755
 11
-132.129
 21
737.524
  0
LINE
  8
0
 10
-132.129
 20
737.524
 11
-132.679
 21
737.222
  0
LINE
  8
0
 10
-132.679
 20
737.222
 11
-133.187
 21
736.853
  0
LINE
  8
0
 10
-133.187
 20
736.853
 11
-133.5
 21
736.559
  0
LINE
  8
0
 10
-133.5
 20
736.559
 11
-133.5
 21
737.99
  0
LINE
  8
0
 10
-133.5
 20
737.99
 11
-136.5
 21
737.99
  0
LINE
  8
0
 10
-136.5
 20
737.99
 11
-136.5
 21
648.01
  0
LINE
  8
0
 10
-136.5
 20
648.01
 11
-133.5
 21
648.01
  0
LINE
  8
0
 10
-133.5
 20
648.01
 11
-133.5
 21
649.441
  0
LINE
  8
0
 10
-129.751
 20
649.508
 11
-130.25
 21
649.571
  0
LINE
  8
0
 10
-130.25
 20
649.571
 11
-130.736
 21
649.696
  0
LINE
  8
0
 10
-130.736
 20
649.696
 11
-131.203
 21
649.881
  0
LINE
  8
0
 10
-131.203
 20
649.881
 11
-131.643
 21
650.123
  0
LINE
  8
0
 10
-131.643
 20
650.123
 11
-132.05
 21
650.418
  0
LINE
  8
0
 10
-132.05
 20
650.418
 11
-132.416
 21
650.762
  0
LINE
  8
0
 10
-132.416
 20
650.762
 11
-132.736
 21
651.149
  0
LINE
  8
0
 10
-132.736
 20
651.149
 11
-133.005
 21
651.573
  0
LINE
  8
0
 10
-133.005
 20
651.573
 11
-133.219
 21
652.028
  0
LINE
  8
0
 10
-133.219
 20
652.028
 11
-133.374
 21
652.505
  0
LINE
  8
0
 10
-133.374
 20
652.505
 11
-133.468
 21
652.999
  0
LINE
  8
0
 10
-133.468
 20
652.999
 11
-133.5
 21
653.5
  0
LINE
  8
0
 10
-133.5
 20
653.5
 11
-133.5
 21
732.5
  0
LINE
  8
0
 10
-133.5
 20
732.5
 11
-133.468
 21
733.001
  0
LINE
  8
0
 10
-133.468
 20
733.001
 11
-133.374
 21
733.495
  0
LINE
  8
0
 10
-133.374
 20
733.495
 11
-133.219
 21
733.972
  0
LINE
  8
0
 10
-133.219
 20
733.972
 11
-133.005
 21
734.427
  0
LINE
  8
0
 10
-133.005
 20
734.427
 11
-132.736
 21
734.851
  0
LINE
  8
0
 10
-132.736
 20
734.851
 11
-132.416
 21
735.238
  0
LINE
  8
0
 10
-132.416
 20
735.238
 11
-132.05
 21
735.582
  0
LINE
  8
0
 10
-132.05
 20
735.582
 11
-131.643
 21
735.877
  0
LINE
  8
0
 10
-131.643
 20
735.877
 11
-131.203
 21
736.119
  0
LINE
  8
0
 10
-131.203
 20
736.119
 11
-130.736
 21
736.304
  0
LINE
  8
0
 10
-130.736
 20
736.304
 11
-130.25
 21
736.429
  0
LINE
  8
0
 10
-130.25
 20
736.429
 11
-129.751
 21
736.492
  0
LINE
  8
0
 10
-129.751
 20
736.492
 11
129.751
 21
736.492
  0
LINE
  8
0
 10
129.751
 20
736.492
 11
130.25
 21
736.429
  0
LINE
  8
0
 10
130.25
 20
736.429
 11
130.736
 21
736.304
  0
LINE
  8
0
 10
130.736
 20
736.304
 11
131.203
 21
736.119
  0
LINE
  8
0
 10
131.203
 20
736.119
 11
131.643
 21
735.877
  0
LINE
  8
0
 10
131.643
 20
735.877
 11
132.05
 21
735.582
  0
LINE
  8
0
 10
132.05
 20
735.582
 11
132.416
 21
735.238
  0
LINE
  8
0
 10
132.416
 20
735.238
 11
132.736
 21
734.851
  0
LINE
  8
0
 10
132.736
 20
734.851
 11
133.005
 21
734.427
  0
LINE
  8
0
 10
133.005
 20
734.427
 11
133.219
 21
733.972
  0
LINE
  8
0
 10
133.219
 20
733.972
 11
133.374
 21
733.495
  0
LINE
  8
0
 10
133.374
 20
733.495
 11
133.468
 21
733.001
  0
LINE
  8
0
 10
133.468
 20
733.001
 11
133.5
 21
732.5
  0
LINE
  8
0
 10
133.5
 20
732.5
 11
133.5
 21
653.5
  0
LINE
  8
0
 10
133.5
 20
653.5
 11
133.468
 21
652.999
  0
LINE
  8
0
 10
133.468
 20
652.999
 11
133.374
 21
652.505
  0
LINE
  8
0
 10
133.374
 20
652.505
 11
133.219
 21
652.028
  0
LINE
  8
0
 10
133.219
 20
652.028
 11
133.005
 21
651.573
  0
LINE
  8
0
 10
133.005
 20
651.573
 11
132.736
 21
651.149
  0
LINE
  8
0
 10
132.736
 20
651.149
 11
132.416
 21
650.762
  0
LINE
  8
0
 10
132.416
 20
650.762
 11
132.05
 21
650.418
  0
LINE
  8
0
 10
132.05
 20
650.418
 11
131.643
 21
650.123
  0
LINE
  8
0
 10
131.643
 20
650.123
 11
131.203
 21
649.881
  0
LINE
  8
0
 10
131.203
 20
649.881
 11
130.736
 21
649.696
  0
LINE
  8
0
 10
130.736
 20
649.696
 11
130.25
 21
649.571
  0
LINE
  8
0
 10
130.25
 20
649.571
 11
129.751
 21
649.508
  0
LINE
  8
0
 10
129.751
 20
649.508
 11
-129.751
 21
649.508
  0
LINE
  8
0
 10
-133.5
 20
550.441
 11
-133.187
 21
550.147
  0
LINE
  8
0
 10
-133.187
 20
550.147
 11
-132.679
 21
549.778
  0
LINE
  8
0
 10
-132.679
 20
549.778
 11
-132.129
 21
549.476
  0
LINE
  8
0
 10
-132.129
 20
549.476
 11
-131.545
 21
549.245
  0
LINE
  8
0
 10
-131.545
 20
549.245
 11
-130.937
 21
549.089
  0
LINE
  8
0
 10
-130.937
 20
549.089
 11
-130.314
 21
549.01
  0
LINE
  8
0
 10
-130.314
 20
549.01
 11
130.314
 21
549.01
  0
LINE
  8
0
 10
130.314
 20
549.01
 11
130.937
 21
549.089
  0
LINE
  8
0
 10
130.937
 20
549.089
 11
131.545
 21
549.245
  0
LINE
  8
0
 10
131.545
 20
549.245
 11
132.129
 21
549.476
  0
LINE
  8
0
 10
132.129
 20
549.476
 11
132.679
 21
549.778
  0
LINE
  8
0
 10
132.679
 20
549.778
 11
133.187
 21
550.147
  0
LINE
  8
0
 10
133.187
 20
550.147
 11
133.645
 21
550.577
  0
LINE
  8
0
 10
133.645
 20
550.577
 11
134.045
 21
551.061
  0
LINE
  8
0
 10
134.045
 20
551.061
 11
134.382
 21
551.591
  0
LINE
  8
0
 10
134.382
 20
551.591
 11
134.649
 21
552.159
  0
LINE
  8
0
 10
134.649
 20
552.159
 11
134.843
 21
552.757
  0
LINE
  8
0
 10
134.843
 20
552.757
 11
134.961
 21
553.373
  0
LINE
  8
0
 10
134.961
 20
553.373
 11
135
 21
554
  0
LINE
  8
0
 10
135
 20
554
 11
135
 21
634
  0
LINE
  8
0
 10
135
 20
634
 11
134.961
 21
634.627
  0
LINE
  8
0
 10
134.961
 20
634.627
 11
134.843
 21
635.243
  0
LINE
  8
0
 10
134.843
 20
635.243
 11
134.649
 21
635.841
  0
LINE
  8
0
 10
134.649
 20
635.841
 11
134.382
 21
636.409
  0
LINE
  8
0
 10
134.382
 20
636.409
 11
134.045
 21
636.939
  0
LINE
  8
0
 10
134.045
 20
636.939
 11
133.645
 21
637.423
  0
LINE
  8
0
 10
133.645
 20
637.423
 11
133.187
 21
637.853
  0
LINE
  8
0
 10
133.187
 20
637.853
 11
132.679
 21
638.222
  0
LINE
  8
0
 10
132.679
 20
638.222
 11
132.129
 21
638.524
  0
LINE
  8
0
 10
132.129
 20
638.524
 11
131.545
 21
638.755
  0
LINE
  8
0
 10
131.545
 20
638.755
 11
130.937
 21
638.911
  0
LINE
  8
0
 10
130.937
 20
638.911
 11
130.314
 21
638.99
  0
LINE
  8
0
 10
130.314
 20
638.99
 11
-130.314
 21
638.99
  0
LINE
  8
0
 10
-130.314
 20
638.99
 11
-130.937
 21
638.911
  0
LINE
  8
0
 10
-130.937
 20
638.911
 11
-131.545
 21
638.755
  0
LINE
  8
0
 10
-131.545
 20
638.755
 11
-132.129
 21
638.524
  0
LINE
  8
0
 10
-132.129
 20
638.524
 11
-132.679
 21
638.222
  0
LINE
  8
0
 10
-132.679
 20
638.222
 11
-133.187
 21
637.853
  0
LINE
  8
0
 10
-133.187
 20
637.853
 11
-133.5
 21
637.559
  0
LINE
  8
0
 10
-133.5
 20
637.559
 11
-133.5
 21
638.99
  0
LINE
  8
0
 10
-133.5
 20
638.99
 11
-136.5
 21
638.99
  0
LINE
  8
0
 10
-136.5
 20
638.99
 11
-136.5
 21
549.01
  0
LINE
  8
0
 10
-136.5
 20
549.01
 11
-133.5
 21
549.01
  0
LINE
  8
0
 10
-133.5
 20
549.01
 11
-133.5
 21
550.441
  0
LINE
  8
0
 10
-129.751
 20
550.508
 11
-130.25
 21
550.571
  0
LINE
  8
0
 10
-130.25
 20
550.571
 11
-130.736
 21
550.696
  0
LINE
  8
0
 10
-130.736
 20
550.696
 11
-131.203
 21
550.881
  0
LINE
  8
0
 10
-131.203
 20
550.881
 11
-131.643
 21
551.123
  0
LINE
  8
0
 10
-131.643
 20
551.123
 11
-132.05
 21
551.418
  0
LINE
  8
0
 10
-132.05
 20
551.418
 11
-132.416
 21
551.762
  0
LINE
  8
0
 10
-132.416
 20
551.762
 11
-132.736
 21
552.149
  0
LINE
  8
0
 10
-132.736
 20
552.149
 11
-133.005
 21
552.573
  0
LINE
  8
0
 10
-133.005
 20
552.573
 11
-133.219
 21
553.028
  0
LINE
  8
0
 10
-133.219
 20
553.028
 11
-133.374
 21
553.505
  0
LINE
  8
0
 10
-133.374
 20
553.505
 11
-133.468
 21
553.999
  0
LINE
  8
0
 10
-133.468
 20
553.999
 11
-133.5
 21
554.5
  0
LINE
  8
0
 10
-133.5
 20
554.5
 11
-133.5
 21
633.5
  0
LINE
  8
0
 10
-133.5
 20
633.5
 11
-133.468
 21
634.001
  0
LINE
  8
0
 10
-133.468
 20
634.001
 11
-133.374
 21
634.495
  0
LINE
  8
0
 10
-133.374
 20
634.495
 11
-133.219
 21
634.972
  0
LINE
  8
0
 10
-133.219
 20
634.972
 11
-133.005
 21
635.427
  0
LINE
  8
0
 10
-133.005
 20
635.427
 11
-132.736
 21
635.851
  0
LINE
  8
0
 10
-132.736
 20
635.851
 11
-132.416
 21
636.238
  0
LINE
  8
0
 10
-132.416
 20
636.238
 11
-132.05
 21
636.582
  0
LINE
  8
0
 10
-132.05
 20
636.582
 11
-131.643
 21
636.877
  0
LINE
  8
0
 10
-131.643
 20
636.877
 11
-131.203
 21
637.119
  0
LINE
  8
0
 10
-131.203
 20
637.119
 11
-130.736
 21
637.304
  0
LINE
  8
0
 10
-130.736
 20
637.304
 11
-130.25
 21
637.429
  0
LINE
  8
0
 10
-130.25
 20
637.429
 11
-129.751
 21
637.492
  0
LINE
  8
0
 10
-129.751
 20
637.492
 11
129.751
 21
637.492
  0
LINE
  8
0
 10
129.751
 20
637.492
 11
130.25
 21
637.429
  0
LINE
  8
0
 10
130.25
 20
637.429
 11
130.736
 21
637.304
  0
LINE
  8
0
 10
130.736
 20
637.304
 11
131.203
 21
637.119
  0
LINE
  8
0
 10
131.203
 20
637.119
 11
131.643
 21
636.877
  0
LINE
  8
0
 10
131.643
 20
636.877
 11
132.05
 21
636.582
  0
LINE
  8
0
 10
132.05
 20
636.582
 11
132.416
 21
636.238
  0
LINE
  8
0
 10
132.416
 20
636.238
 11
132.736
 21
635.851
  0
LINE
  8
0
 10
132.736
 20
635.851
 11
133.005
 21
635.427
  0
LINE
  8
0
 10
133.005
 20
635.427
 11
133.219
 21
634.972
  0
LINE
  8
0
 10
133.219
 20
634.972
 11
133.374
 21
634.495
  0
LINE
  8
0
 10
133.374
 20
634.495
 11
133.468
 21
634.001
  0
LINE
  8
0
 10
133.468
 20
634.001
 11
133.5
 21
633.5
  0
LINE
  8
0
 10
133.5
 20
633.5
 11
133.5
 21
554.5
  0
LINE
  8
0
 10
133.5
 20
554.5
 11
133.468
 21
553.999
  0
LINE
  8
0
 10
133.468
 20
553.999
 11
133.374
 21
553.505
  0
LINE
  8
0
 10
133.374
 20
553.505
 11
133.219
 21
553.028
  0
LINE
  8
0
 10
133.219
 20
553.028
 11
133.005
 21
552.573
  0
LINE
  8
0
 10
133.005
 20
552.573
 11
132.736
 21
552.149
  0
LINE
  8
0
 10
132.736
 20
552.149
 11
132.416
 21
551.762
  0
LINE
  8
0
 10
132.416
 20
551.762
 11
132.05
 21
551.418
  0
LINE
  8
0
 10
132.05
 20
551.418
 11
131.643
 21
551.123
  0
LINE
  8
0
 10
131.643
 20
551.123
 11
131.203
 21
550.881
  0
LINE
  8
0
 10
131.203
 20
550.881
 11
130.736
 21
550.696
  0
LINE
  8
0
 10
130.736
 20
550.696
 11
130.25
 21
550.571
  0
LINE
  8
0
 10
130.25
 20
550.571
 11
129.751
 21
550.508
  0
LINE
  8
0
 10
129.751
 20
550.508
 11
-129.751
 21
550.508
  0
LINE
  8
0
 10
130.937
 20
450.089
 11
131.545
 21
450.245
  0
LINE
  8
0
 10
131.545
 20
450.245
 11
132.129
 21
450.476
  0
LINE
  8
0
 10
132.129
 20
450.476
 11
132.679
 21
450.778
  0
LINE
  8
0
 10
132.679
 20
450.778
 11
133.187
 21
451.147
  0
LINE
  8
0
 10
133.187
 20
451.147
 11
133.645
 21
451.577
  0
LINE
  8
0
 10
133.645
 20
451.577
 11
134.045
 21
452.061
  0
LINE
  8
0
 10
134.045
 20
452.061
 11
134.382
 21
452.591
  0
LINE
  8
0
 10
134.382
 20
452.591
 11
134.649
 21
453.159
  0
LINE
  8
0
 10
134.649
 20
453.159
 11
134.843
 21
453.757
  0
LINE
  8
0
 10
134.843
 20
453.757
 11
134.961
 21
454.373
  0
LINE
  8
0
 10
134.961
 20
454.373
 11
135
 21
455
  0
LINE
  8
0
 10
135
 20
455
 11
135
 21
535
  0
LINE
  8
0
 10
135
 20
535
 11
134.961
 21
535.627
  0
LINE
  8
0
 10
134.961
 20
535.627
 11
134.843
 21
536.243
  0
LINE
  8
0
 10
134.843
 20
536.243
 11
134.649
 21
536.841
  0
LINE
  8
0
 10
134.649
 20
536.841
 11
134.382
 21
537.409
  0
LINE
  8
0
 10
134.382
 20
537.409
 11
134.045
 21
537.939
  0
LINE
  8
0
 10
134.045
 20
537.939
 11
133.645
 21
538.423
  0
LINE
  8
0
 10
133.645
 20
538.423
 11
133.187
 21
538.853
  0
LINE
  8
0
 10
133.187
 20
538.853
 11
132.679
 21
539.222
  0
LINE
  8
0
 10
132.679
 20
539.222
 11
132.129
 21
539.524
  0
LINE
  8
0
 10
132.129
 20
539.524
 11
131.545
 21
539.755
  0
LINE
  8
0
 10
131.545
 20
539.755
 11
130.937
 21
539.911
  0
LINE
  8
0
 10
130.937
 20
539.911
 11
130.314
 21
539.99
  0
LINE
  8
0
 10
130.314
 20
539.99
 11
-130.314
 21
539.99
  0
LINE
  8
0
 10
-130.314
 20
539.99
 11
-130.937
 21
539.911
  0
LINE
  8
0
 10
-130.937
 20
539.911
 11
-131.545
 21
539.755
  0
LINE
  8
0
 10
-131.545
 20
539.755
 11
-132.129
 21
539.524
  0
LINE
  8
0
 10
-132.129
 20
539.524
 11
-132.679
 21
539.222
  0
LINE
  8
0
 10
-132.679
 20
539.222
 11
-133.187
 21
538.853
  0
LINE
  8
0
 10
-133.187
 20
538.853
 11
-133.5
 21
538.559
  0
LINE
  8
0
 10
-133.5
 20
538.559
 11
-133.5
 21
539.979
  0
LINE
  8
0
 10
-133.5
 20
539.979
 11
-136.5
 21
539.979
  0
LINE
  8
0
 10
-136.5
 20
539.979
 11
-136.5
 21
450.021
  0
LINE
  8
0
 10
-136.5
 20
450.021
 11
-133.5
 21
450.021
  0
LINE
  8
0
 10
-133.5
 20
450.021
 11
-133.5
 21
451.441
  0
LINE
  8
0
 10
-133.5
 20
451.441
 11
-133.187
 21
451.147
  0
LINE
  8
0
 10
-133.187
 20
451.147
 11
-132.679
 21
450.778
  0
LINE
  8
0
 10
-132.679
 20
450.778
 11
-132.129
 21
450.476
  0
LINE
  8
0
 10
-132.129
 20
450.476
 11
-131.545
 21
450.245
  0
LINE
  8
0
 10
-131.545
 20
450.245
 11
-130.937
 21
450.089
  0
LINE
  8
0
 10
-130.937
 20
450.089
 11
-130.314
 21
450.01
  0
LINE
  8
0
 10
-130.314
 20
450.01
 11
130.314
 21
450.01
  0
LINE
  8
0
 10
130.314
 20
450.01
 11
130.937
 21
450.089
  0
LINE
  8
0
 10
-129.695
 20
452.393
 11
-130.083
 21
452.442
  0
LINE
  8
0
 10
-130.083
 20
452.442
 11
-130.462
 21
452.539
  0
LINE
  8
0
 10
-130.462
 20
452.539
 11
-130.825
 21
452.683
  0
LINE
  8
0
 10
-130.825
 20
452.683
 11
-131.168
 21
452.872
  0
LINE
  8
0
 10
-131.168
 20
452.872
 11
-131.484
 21
453.101
  0
LINE
  8
0
 10
-131.484
 20
453.101
 11
-131.769
 21
453.369
  0
LINE
  8
0
 10
-131.769
 20
453.369
 11
-132.018
 21
453.67
  0
LINE
  8
0
 10
-132.018
 20
453.67
 11
-132.228
 21
454
  0
LINE
  8
0
 10
-132.228
 20
454
 11
-132.394
 21
454.354
  0
LINE
  8
0
 10
-132.394
 20
454.354
 11
-132.515
 21
454.726
  0
LINE
  8
0
 10
-132.515
 20
454.726
 11
-132.588
 21
455.11
  0
LINE
  8
0
 10
-132.588
 20
455.11
 11
-132.613
 21
455.5
  0
LINE
  8
0
 10
-132.613
 20
455.5
 11
-132.613
 21
534.5
  0
LINE
  8
0
 10
-132.613
 20
534.5
 11
-132.588
 21
534.89
  0
LINE
  8
0
 10
-132.588
 20
534.89
 11
-132.515
 21
535.274
  0
LINE
  8
0
 10
-132.515
 20
535.274
 11
-132.394
 21
535.646
  0
LINE
  8
0
 10
-132.394
 20
535.646
 11
-132.228
 21
536
  0
LINE
  8
0
 10
-132.228
 20
536
 11
-132.018
 21
536.33
  0
LINE
  8
0
 10
-132.018
 20
536.33
 11
-131.769
 21
536.631
  0
LINE
  8
0
 10
-131.769
 20
536.631
 11
-131.484
 21
536.899
  0
LINE
  8
0
 10
-131.484
 20
536.899
 11
-131.168
 21
537.128
  0
LINE
  8
0
 10
-131.168
 20
537.128
 11
-130.825
 21
537.317
  0
LINE
  8
0
 10
-130.825
 20
537.317
 11
-130.462
 21
537.461
  0
LINE
  8
0
 10
-130.462
 20
537.461
 11
-130.083
 21
537.558
  0
LINE
  8
0
 10
-130.083
 20
537.558
 11
-129.695
 21
537.607
  0
LINE
  8
0
 10
-129.695
 20
537.607
 11
129.695
 21
537.607
  0
LINE
  8
0
 10
129.695
 20
537.607
 11
130.083
 21
537.558
  0
LINE
  8
0
 10
130.083
 20
537.558
 11
130.462
 21
537.461
  0
LINE
  8
0
 10
130.462
 20
537.461
 11
130.825
 21
537.317
  0
LINE
  8
0
 10
130.825
 20
537.317
 11
131.168
 21
537.128
  0
LINE
  8
0
 10
131.168
 20
537.128
 11
131.484
 21
536.899
  0
LINE
  8
0
 10
131.484
 20
536.899
 11
131.769
 21
536.631
  0
LINE
  8
0
 10
131.769
 20
536.631
 11
132.018
 21
536.33
  0
LINE
  8
0
 10
132.018
 20
536.33
 11
132.228
 21
536
  0
LINE
  8
0
 10
132.228
 20
536
 11
132.394
 21
535.646
  0
LINE
  8
0
 10
132.394
 20
535.646
 11
132.515
 21
535.274
  0
LINE
  8
0
 10
132.515
 20
535.274
 11
132.588
 21
534.89
  0
LINE
  8
0
 10
132.588
 20
534.89
 11
132.613
 21
534.5
  0
LINE
  8
0
 10
132.613
 20
534.5
 11
132.613
 21
455.5
  0
LINE
  8
0
 10
132.613
 20
455.5
 11
132.588
 21
455.11
  0
LINE
  8
0
 10
132.588
 20
455.11
 11
132.515
 21
454.726
  0
LINE
  8
0
 10
132.515
 20
454.726
 11
132.394
 21
454.354
  0
LINE
  8
0
 10
132.394
 20
454.354
 11
132.228
 21
454
  0
LINE
  8
0
 10
132.228
 20
454
 11
132.018
 21
453.67
  0
LINE
  8
0
 10
132.018
 20
453.67
 11
131.769
 21
453.369
  0
LINE
  8
0
 10
131.769
 20
453.369
 11
131.484
 21
453.101
  0
LINE
  8
0
 10
131.484
 20
453.101
 11
131.168
 21
452.872
  0
LINE
  8
0
 10
131.168
 20
452.872
 11
130.825
 21
452.683
  0
LINE
  8
0
 10
130.825
 20
452.683
 11
130.462
 21
452.539
  0
LINE
  8
0
 10
130.462
 20
452.539
 11
130.083
 21
452.442
  0
LINE
  8
0
 10
130.083
 20
452.442
 11
129.695
 21
452.393
  0
LINE
  8
0
 10
129.695
 20
452.393
 11
-129.695
 21
452.393
  0
LINE
  8
0
 10
130.937
 20
351.089
 11
131.545
 21
351.245
  0
LINE
  8
0
 10
131.545
 20
351.245
 11
132.129
 21
351.476
  0
LINE
  8
0
 10
132.129
 20
351.476
 11
132.679
 21
351.778
  0
LINE
  8
0
 10
132.679
 20
351.778
 11
133.187
 21
352.147
  0
LINE
  8
0
 10
133.187
 20
352.147
 11
133.645
 21
352.577
  0
LINE
  8
0
 10
133.645
 20
352.577
 11
134.045
 21
353.061
  0
LINE
  8
0
 10
134.045
 20
353.061
 11
134.382
 21
353.591
  0
LINE
  8
0
 10
134.382
 20
353.591
 11
134.649
 21
354.159
  0
LINE
  8
0
 10
134.649
 20
354.159
 11
134.843
 21
354.757
  0
LINE
  8
0
 10
134.843
 20
354.757
 11
134.961
 21
355.373
  0
LINE
  8
0
 10
134.961
 20
355.373
 11
135
 21
356
  0
LINE
  8
0
 10
135
 20
356
 11
135
 21
436
  0
LINE
  8
0
 10
135
 20
436
 11
134.961
 21
436.627
  0
LINE
  8
0
 10
134.961
 20
436.627
 11
134.843
 21
437.243
  0
LINE
  8
0
 10
134.843
 20
437.243
 11
134.649
 21
437.841
  0
LINE
  8
0
 10
134.649
 20
437.841
 11
134.382
 21
438.409
  0
LINE
  8
0
 10
134.382
 20
438.409
 11
134.045
 21
438.939
  0
LINE
  8
0
 10
134.045
 20
438.939
 11
133.645
 21
439.423
  0
LINE
  8
0
 10
133.645
 20
439.423
 11
133.187
 21
439.853
  0
LINE
  8
0
 10
133.187
 20
439.853
 11
132.679
 21
440.222
  0
LINE
  8
0
 10
132.679
 20
440.222
 11
132.129
 21
440.524
  0
LINE
  8
0
 10
132.129
 20
440.524
 11
131.545
 21
440.755
  0
LINE
  8
0
 10
131.545
 20
440.755
 11
130.937
 21
440.911
  0
LINE
  8
0
 10
130.937
 20
440.911
 11
130.314
 21
440.99
  0
LINE
  8
0
 10
130.314
 20
440.99
 11
-130.314
 21
440.99
  0
LINE
  8
0
 10
-130.314
 20
440.99
 11
-130.937
 21
440.911
  0
LINE
  8
0
 10
-130.937
 20
440.911
 11
-131.545
 21
440.755
  0
LINE
  8
0
 10
-131.545
 20
440.755
 11
-132.129
 21
440.524
  0
LINE
  8
0
 10
-132.129
 20
440.524
 11
-132.679
 21
440.222
  0
LINE
  8
0
 10
-132.679
 20
440.222
 11
-133.187
 21
439.853
  0
LINE
  8
0
 10
-133.187
 20
439.853
 11
-133.5
 21
439.559
  0
LINE
  8
0
 10
-133.5
 20
439.559
 11
-133.5
 21
439.653
  0
LINE
  8
0
 10
-133.5
 20
439.653
 11
-136.5
 21
439.653
  0
LINE
  8
0
 10
-136.5
 20
439.653
 11
-136.5
 21
352.347
  0
LINE
  8
0
 10
-136.5
 20
352.347
 11
-133.5
 21
352.347
  0
LINE
  8
0
 10
-133.5
 20
352.347
 11
-133.5
 21
352.441
  0
LINE
  8
0
 10
-133.5
 20
352.441
 11
-133.187
 21
352.147
  0
LINE
  8
0
 10
-133.187
 20
352.147
 11
-132.679
 21
351.778
  0
LINE
  8
0
 10
-132.679
 20
351.778
 11
-132.129
 21
351.476
  0
LINE
  8
0
 10
-132.129
 20
351.476
 11
-131.545
 21
351.245
  0
LINE
  8
0
 10
-131.545
 20
351.245
 11
-130.937
 21
351.089
  0
LINE
  8
0
 10
-130.937
 20
351.089
 11
-130.314
 21
351.01
  0
LINE
  8
0
 10
-130.314
 20
351.01
 11
130.314
 21
351.01
  0
LINE
  8
0
 10
130.314
 20
351.01
 11
130.937
 21
351.089
  0
LINE
  8
0
 10
-127.634
 20
431.369
 11
-127.9
 21
431.403
  0
LINE
  8
0
 10
-127.9
 20
431.403
 11
-128.16
 21
431.469
  0
LINE
  8
0
 10
-128.16
 20
431.469
 11
-128.409
 21
431.568
  0
LINE
  8
0
 10
-128.409
 20
431.568
 11
-128.644
 21
431.697
  0
LINE
  8
0
 10
-128.644
 20
431.697
 11
-128.861
 21
431.855
  0
LINE
  8
0
 10
-128.861
 20
431.855
 11
-129.057
 21
432.038
  0
LINE
  8
0
 10
-129.057
 20
432.038
 11
-129.227
 21
432.245
  0
LINE
  8
0
 10
-129.227
 20
432.245
 11
-129.371
 21
432.471
  0
LINE
  8
0
 10
-129.371
 20
432.471
 11
-129.485
 21
432.714
  0
LINE
  8
0
 10
-129.485
 20
432.714
 11
-129.568
 21
432.969
  0
LINE
  8
0
 10
-129.568
 20
432.969
 11
-129.618
 21
433.232
  0
LINE
  8
0
 10
-129.618
 20
433.232
 11
-129.635
 21
433.5
  0
LINE
  8
0
 10
-129.635
 20
433.5
 11
-129.618
 21
433.768
  0
LINE
  8
0
 10
-129.618
 20
433.768
 11
-129.568
 21
434.031
  0
LINE
  8
0
 10
-129.568
 20
434.031
 11
-129.485
 21
434.286
  0
LINE
  8
0
 10
-129.485
 20
434.286
 11
-129.371
 21
434.529
  0
LINE
  8
0
 10
-129.371
 20
434.529
 11
-129.227
 21
434.755
  0
LINE
  8
0
 10
-129.227
 20
434.755
 11
-129.057
 21
434.962
  0
LINE
  8
0
 10
-129.057
 20
434.962
 11
-128.861
 21
435.145
  0
LINE
  8
0
 10
-128.861
 20
435.145
 11
-128.644
 21
435.303
  0
LINE
  8
0
 10
-128.644
 20
435.303
 11
-128.409
 21
435.432
  0
LINE
  8
0
 10
-128.409
 20
435.432
 11
-128.16
 21
435.531
  0
LINE
  8
0
 10
-128.16
 20
435.531
 11
-127.9
 21
435.597
  0
LINE
  8
0
 10
-127.9
 20
435.597
 11
-127.634
 21
435.631
  0
LINE
  8
0
 10
-127.634
 20
435.631
 11
-127.366
 21
435.631
  0
LINE
  8
0
 10
-127.366
 20
435.631
 11
-127.1
 21
435.597
  0
LINE
  8
0
 10
-127.1
 20
435.597
 11
-126.84
 21
435.531
  0
LINE
  8
0
 10
-126.84
 20
435.531
 11
-126.591
 21
435.432
  0
LINE
  8
0
 10
-126.591
 20
435.432
 11
-126.356
 21
435.303
  0
LINE
  8
0
 10
-126.356
 20
435.303
 11
-126.139
 21
435.145
  0
LINE
  8
0
 10
-126.139
 20
435.145
 11
-125.943
 21
434.962
  0
LINE
  8
0
 10
-125.943
 20
434.962
 11
-125.773
 21
434.755
  0
LINE
  8
0
 10
-125.773
 20
434.755
 11
-125.629
 21
434.529
  0
LINE
  8
0
 10
-125.629
 20
434.529
 11
-125.515
 21
434.286
  0
LINE
  8
0
 10
-125.515
 20
434.286
 11
-125.432
 21
434.031
  0
LINE
  8
0
 10
-125.432
 20
434.031
 11
-125.382
 21
433.768
  0
LINE
  8
0
 10
-125.382
 20
433.768
 11
-125.365
 21
433.5
  0
LINE
  8
0
 10
-125.365
 20
433.5
 11
-125.382
 21
433.232
  0
LINE
  8
0
 10
-125.382
 20
433.232
 11
-125.432
 21
432.969
  0
LINE
  8
0
 10
-125.432
 20
432.969
 11
-125.515
 21
432.714
  0
LINE
  8
0
 10
-125.515
 20
432.714
 11
-125.629
 21
432.471
  0
LINE
  8
0
 10
-125.629
 20
432.471
 11
-125.773
 21
432.245
  0
LINE
  8
0
 10
-125.773
 20
432.245
 11
-125.943
 21
432.038
  0
LINE
  8
0
 10
-125.943
 20
432.038
 11
-126.139
 21
431.855
  0
LINE
  8
0
 10
-126.139
 20
431.855
 11
-126.356
 21
431.697
  0
LINE
  8
0
 10
-126.356
 20
431.697
 11
-126.591
 21
431.568
  0
LINE
  8
0
 10
-126.591
 20
431.568
 11
-126.84
 21
431.469
  0
LINE
  8
0
 10
-126.84
 20
431.469
 11
-127.1
 21
431.403
  0
LINE
  8
0
 10
-127.1
 20
431.403
 11
-127.366
 21
431.369
  0
LINE
  8
0
 10
-127.366
 20
431.369
 11
-127.634
 21
431.369
  0
LINE
  8
0
 10
127.366
 20
431.369
 11
127.1
 21
431.403
  0
LINE
  8
0
 10
127.1
 20
431.403
 11
126.84
 21
431.469
  0
LINE
  8
0
 10
126.84
 20
431.469
 11
126.591
 21
431.568
  0
LINE
  8
0
 10
126.591
 20
431.568
 11
126.356
 21
431.697
  0
LINE
  8
0
 10
126.356
 20
431.697
 11
126.139
 21
431.855
  0
LINE
  8
0
 10
126.139
 20
431.855
 11
125.943
 21
432.038
  0
LINE
  8
0
 10
125.943
 20
432.038
 11
125.773
 21
432.245
  0
LINE
  8
0
 10
125.773
 20
432.245
 11
125.629
 21
432.471
  0
LINE
  8
0
 10
125.629
 20
432.471
 11
125.515
 21
432.714
  0
LINE
  8
0
 10
125.515
 20
432.714
 11
125.432
 21
432.969
  0
LINE
  8
0
 10
125.432
 20
432.969
 11
125.382
 21
433.232
  0
LINE
  8
0
 10
125.382
 20
433.232
 11
125.365
 21
433.5
  0
LINE
  8
0
 10
125.365
 20
433.5
 11
125.382
 21
433.768
  0
LINE
  8
0
 10
125.382
 20
433.768
 11
125.432
 21
434.031
  0
LINE
  8
0
 10
125.432
 20
434.031
 11
125.515
 21
434.286
  0
LINE
  8
0
 10
125.515
 20
434.286
 11
125.629
 21
434.529
  0
LINE
  8
0
 10
125.629
 20
434.529
 11
125.773
 21
434.755
  0
LINE
  8
0
 10
125.773
 20
434.755
 11
125.943
 21
434.962
  0
LINE
  8
0
 10
125.943
 20
434.962
 11
126.139
 21
435.145
  0
LINE
  8
0
 10
126.139
 20
435.145
 11
126.356
 21
435.303
  0
LINE
  8
0
 10
126.356
 20
435.303
 11
126.591
 21
435.432
  0
LINE
  8
0
 10
126.591
 20
435.432
 11
126.84
 21
435.531
  0
LINE
  8
0
 10
126.84
 20
435.531
 11
127.1
 21
435.597
  0
LINE
  8
0
 10
127.1
 20
435.597
 11
127.366
 21
435.631
  0
LINE
  8
0
 10
127.366
 20
435.631
 11
127.634
 21
435.631
  0
LINE
  8
0
 10
127.634
 20
435.631
 11
127.9
 21
435.597
  0
LINE
  8
0
 10
127.9
 20
435.597
 11
128.16
 21
435.531
  0
LINE
  8
0
 10
128.16
 20
435.531
 11
128.409
 21
435.432
  0
LINE
  8
0
 10
128.409
 20
435.432
 11
128.644
 21
435.303
  0
LINE
  8
0
 10
128.644
 20
435.303
 11
128.861
 21
435.145
  0
LINE
  8
0
 10
128.861
 20
435.145
 11
129.057
 21
434.962
  0
LINE
  8
0
 10
129.057
 20
434.962
 11
129.227
 21
434.755
  0
LINE
  8
0
 10
129.227
 20
434.755
 11
129.371
 21
434.529
  0
LINE
  8
0
 10
129.371
 20
434.529
 11
129.485
 21
434.286
  0
LINE
  8
0
 10
129.485
 20
434.286
 11
129.568
 21
434.031
  0
LINE
  8
0
 10
129.568
 20
434.031
 11
129.618
 21
433.768
  0
LINE
  8
0
 10
129.618
 20
433.768
 11
129.635
 21
433.5
  0
LINE
  8
0
 10
129.635
 20
433.5
 11
129.618
 21
433.232
  0
LINE
  8
0
 10
129.618
 20
433.232
 11
129.568
 21
432.969
  0
LINE
  8
0
 10
129.568
 20
432.969
 11
129.485
 21
432.714
  0
LINE
  8
0
 10
129.485
 20
432.714
 11
129.371
 21
432.471
  0
LINE
  8
0
 10
129.371
 20
432.471
 11
129.227
 21
432.245
  0
LINE
  8
0
 10
129.227
 20
432.245
 11
129.057
 21
432.038
  0
LINE
  8
0
 10
129.057
 20
432.038
 11
128.861
 21
431.855
  0
LINE
  8
0
 10
128.861
 20
431.855
 11
128.644
 21
431.697
  0
LINE
  8
0
 10
128.644
 20
431.697
 11
128.409
 21
431.568
  0
LINE
  8
0
 10
128.409
 20
431.568
 11
128.16
 21
431.469
  0
LINE
  8
0
 10
128.16
 20
431.469
 11
127.9
 21
431.403
  0
LINE
  8
0
 10
127.9
 20
431.403
 11
127.634
 21
431.369
  0
LINE
  8
0
 10
127.634
 20
431.369
 11
127.366
 21
431.369
  0
LINE
  8
0
 10
-127.634
 20
356.369
 11
-127.9
 21
356.403
  0
LINE
  8
0
 10
-127.9
 20
356.403
 11
-128.16
 21
356.469
  0
LINE
  8
0
 10
-128.16
 20
356.469
 11
-128.409
 21
356.568
  0
LINE
  8
0
 10
-128.409
 20
356.568
 11
-128.644
 21
356.697
  0
LINE
  8
0
 10
-128.644
 20
356.697
 11
-128.861
 21
356.855
  0
LINE
  8
0
 10
-128.861
 20
356.855
 11
-129.057
 21
357.038
  0
LINE
  8
0
 10
-129.057
 20
357.038
 11
-129.227
 21
357.245
  0
LINE
  8
0
 10
-129.227
 20
357.245
 11
-129.371
 21
357.471
  0
LINE
  8
0
 10
-129.371
 20
357.471
 11
-129.485
 21
357.714
  0
LINE
  8
0
 10
-129.485
 20
357.714
 11
-129.568
 21
357.969
  0
LINE
  8
0
 10
-129.568
 20
357.969
 11
-129.618
 21
358.232
  0
LINE
  8
0
 10
-129.618
 20
358.232
 11
-129.635
 21
358.5
  0
LINE
  8
0
 10
-129.635
 20
358.5
 11
-129.618
 21
358.768
  0
LINE
  8
0
 10
-129.618
 20
358.768
 11
-129.568
 21
359.031
  0
LINE
  8
0
 10
-129.568
 20
359.031
 11
-129.485
 21
359.286
  0
LINE
  8
0
 10
-129.485
 20
359.286
 11
-129.371
 21
359.529
  0
LINE
  8
0
 10
-129.371
 20
359.529
 11
-129.227
 21
359.755
  0
LINE
  8
0
 10
-129.227
 20
359.755
 11
-129.057
 21
359.962
  0
LINE
  8
0
 10
-129.057
 20
359.962
 11
-128.861
 21
360.145
  0
LINE
  8
0
 10
-128.861
 20
360.145
 11
-128.644
 21
360.303
  0
LINE
  8
0
 10
-128.644
 20
360.303
 11
-128.409
 21
360.432
  0
LINE
  8
0
 10
-128.409
 20
360.432
 11
-128.16
 21
360.531
  0
LINE
  8
0
 10
-128.16
 20
360.531
 11
-127.9
 21
360.597
  0
LINE
  8
0
 10
-127.9
 20
360.597
 11
-127.634
 21
360.631
  0
LINE
  8
0
 10
-127.634
 20
360.631
 11
-127.366
 21
360.631
  0
LINE
  8
0
 10
-127.366
 20
360.631
 11
-127.1
 21
360.597
  0
LINE
  8
0
 10
-127.1
 20
360.597
 11
-126.84
 21
360.531
  0
LINE
  8
0
 10
-126.84
 20
360.531
 11
-126.591
 21
360.432
  0
LINE
  8
0
 10
-126.591
 20
360.432
 11
-126.356
 21
360.303
  0
LINE
  8
0
 10
-126.356
 20
360.303
 11
-126.139
 21
360.145
  0
LINE
  8
0
 10
-126.139
 20
360.145
 11
-125.943
 21
359.962
  0
LINE
  8
0
 10
-125.943
 20
359.962
 11
-125.773
 21
359.755
  0
LINE
  8
0
 10
-125.773
 20
359.755
 11
-125.629
 21
359.529
  0
LINE
  8
0
 10
-125.629
 20
359.529
 11
-125.515
 21
359.286
  0
LINE
  8
0
 10
-125.515
 20
359.286
 11
-125.432
 21
359.031
  0
LINE
  8
0
 10
-125.432
 20
359.031
 11
-125.382
 21
358.768
  0
LINE
  8
0
 10
-125.382
 20
358.768
 11
-125.365
 21
358.5
  0
LINE
  8
0
 10
-125.365
 20
358.5
 11
-125.382
 21
358.232
  0
LINE
  8
0
 10
-125.382
 20
358.232
 11
-125.432
 21
357.969
  0
LINE
  8
0
 10
-125.432
 20
357.969
 11
-125.515
 21
357.714
  0
LINE
  8
0
 10
-125.515
 20
357.714
 11
-125.629
 21
357.471
  0
LINE
  8
0
 10
-125.629
 20
357.471
 11
-125.773
 21
357.245
  0
LINE
  8
0
 10
-125.773
 20
357.245
 11
-125.943
 21
357.038
  0
LINE
  8
0
 10
-125.943
 20
357.038
 11
-126.139
 21
356.855
  0
LINE
  8
0
 10
-126.139
 20
356.855
 11
-126.356
 21
356.697
  0
LINE
  8
0
 10
-126.356
 20
356.697
 11
-126.591
 21
356.568
  0
LINE
  8
0
 10
-126.591
 20
356.568
 11
-126.84
 21
356.469
  0
LINE
  8
0
 10
-126.84
 20
356.469
 11
-127.1
 21
356.403
  0
LINE
  8
0
 10
-127.1
 20
356.403
 11
-127.366
 21
356.369
  0
LINE
  8
0
 10
-127.366
 20
356.369
 11
-127.634
 21
356.369
  0
LINE
  8
0
 10
127.366
 20
356.369
 11
127.1
 21
356.403
  0
LINE
  8
0
 10
127.1
 20
356.403
 11
126.84
 21
356.469
  0
LINE
  8
0
 10
126.84
 20
356.469
 11
126.591
 21
356.568
  0
LINE
  8
0
 10
126.591
 20
356.568
 11
126.356
 21
356.697
  0
LINE
  8
0
 10
126.356
 20
356.697
 11
126.139
 21
356.855
  0
LINE
  8
0
 10
126.139
 20
356.855
 11
125.943
 21
357.038
  0
LINE
  8
0
 10
125.943
 20
357.038
 11
125.773
 21
357.245
  0
LINE
  8
0
 10
125.773
 20
357.245
 11
125.629
 21
357.471
  0
LINE
  8
0
 10
125.629
 20
357.471
 11
125.515
 21
357.714
  0
LINE
  8
0
 10
125.515
 20
357.714
 11
125.432
 21
357.969
  0
LINE
  8
0
 10
125.432
 20
357.969
 11
125.382
 21
358.232
  0
LINE
  8
0
 10
125.382
 20
358.232
 11
125.365
 21
358.5
  0
LINE
  8
0
 10
125.365
 20
358.5
 11
125.382
 21
358.768
  0
LINE
  8
0
 10
125.382
 20
358.768
 11
125.432
 21
359.031
  0
LINE
  8
0
 10
125.432
 20
359.031
 11
125.515
 21
359.286
  0
LINE
  8
0
 10
125.515
 20
359.286
 11
125.629
 21
359.529
  0
LINE
  8
0
 10
125.629
 20
359.529
 11
125.773
 21
359.755
  0
LINE
  8
0
 10
125.773
 20
359.755
 11
125.943
 21
359.962
  0
LINE
  8
0
 10
125.943
 20
359.962
 11
126.139
 21
360.145
  0
LINE
  8
0
 10
126.139
 20
360.145
 11
126.356
 21
360.303
  0
LINE
  8
0
 10
126.356
 20
360.303
 11
126.591
 21
360.432
  0
LINE
  8
0
 10
126.591
 20
360.432
 11
126.84
 21
360.531
  0
LINE
  8
0
 10
126.84
 20
360.531
 11
127.1
 21
360.597
  0
LINE
  8
0
 10
127.1
 20
360.597
 11
127.366
 21
360.631
  0
LINE
  8
0
 10
127.366
 20
360.631
 11
127.634
 21
360.631
  0
LINE
  8
0
 10
127.634
 20
360.631
 11
127.9
 21
360.597
  0
LINE
  8
0
 10
127.9
 20
360.597
 11
128.16
 21
360.531
  0
LINE
  8
0
 10
128.16
 20
360.531
 11
128.409
 21
360.432
  0
LINE
  8
0
 10
128.409
 20
360.432
 11
128.644
 21
360.303
  0
LINE
  8
0
 10
128.644
 20
360.303
 11
128.861
 21
360.145
  0
LINE
  8
0
 10
128.861
 20
360.145
 11
129.057
 21
359.962
  0
LINE
  8
0
 10
129.057
 20
359.962
 11
129.227
 21
359.755
  0
LINE
  8
0
 10
129.227
 20
359.755
 11
129.371
 21
359.529
  0
LINE
  8
0
 10
129.371
 20
359.529
 11
129.485
 21
359.286
  0
LINE
  8
0
 10
129.485
 20
359.286
 11
129.568
 21
359.031
  0
LINE
  8
0
 10
129.568
 20
359.031
 11
129.618
 21
358.768
  0
LINE
  8
0
 10
129.618
 20
358.768
 11
129.635
 21
358.5
  0
LINE
  8
0
 10
129.635
 20
358.5
 11
129.618
 21
358.232
  0
LINE
  8
0
 10
129.618
 20
358.232
 11
129.568
 21
357.969
  0
LINE
  8
0
 10
129.568
 20
357.969
 11
129.485
 21
357.714
  0
LINE
  8
0
 10
129.485
 20
357.714
 11
129.371
 21
357.471
  0
LINE
  8
0
 10
129.371
 20
357.471
 11
129.227
 21
357.245
  0
LINE
  8
0
 10
129.227
 20
357.245
 11
129.057
 21
357.038
  0
LINE
  8
0
 10
129.057
 20
357.038
 11
128.861
 21
356.855
  0
LINE
  8
0
 10
128.861
 20
356.855
 11
128.644
 21
356.697
  0
LINE
  8
0
 10
128.644
 20
356.697
 11
128.409
 21
356.568
  0
LINE
  8
0
 10
128.409
 20
356.568
 11
128.16
 21
356.469
  0
LINE
  8
0
 10
128.16
 20
356.469
 11
127.9
 21
356.403
  0
LINE
  8
0
 10
127.9
 20
356.403
 11
127.634
 21
356.369
  0
LINE
  8
0
 10
127.634
 20
356.369
 11
127.366
 21
356.369
  0
ENDSEC
  0
SECTION
  2
OBJECTS
  0
DICTIONARY
  0
ENDSEC
  0
EOF
