<?xml version="1.0" standalone="no"?>
<!DOCTYPE svg PUBLIC "-//W3C//DTD SVG 1.1//EN" "http://www.w3.org/Graphics/SVG/1.1/DTD/svg11.dtd">
<svg width="240mm" height="309mm" viewBox="-120 -393 240 309" xmlns="http://www.w3.org/2000/svg" version="1.1">
<title>OpenSCAD Model</title>
<path d="
M 115.937,-243.089 L 116.545,-243.245 L 117.129,-243.476 L 117.679,-243.778 L 118.187,-244.147 L 118.645,-244.577
 L 119.045,-245.061 L 119.382,-245.591 L 119.649,-246.159 L 119.843,-246.757 L 119.961,-247.373 L 120,-248
 L 120,-388 L 119.961,-388.627 L 119.843,-389.243 L 119.649,-389.841 L 119.382,-390.409 L 119.045,-390.939
 L 118.645,-391.423 L 118.187,-391.853 L 117.679,-392.222 L 117.129,-392.524 L 116.545,-392.755 L 115.937,-392.911
 L 115.314,-392.99 L -115.314,-392.99 L -115.937,-392.911 L -116.545,-392.755 L -117.129,-392.524 L -117.679,-392.222
 L -118.187,-391.853 L -118.645,-391.423 L -119.045,-390.939 L -119.382,-390.409 L -119.649,-389.841 L -119.843,-389.243
 L -119.961,-388.627 L -120,-388 L -120,-248 L -119.961,-247.373 L -119.843,-246.757 L -119.649,-246.159
 L -119.382,-245.591 L -119.045,-245.061 L -118.645,-244.577 L -118.187,-244.147 L -117.679,-243.778 L -117.129,-243.476
 L -116.545,-243.245 L -115.937,-243.089 L -115.314,-243.01 L 115.314,-243.01 z
M -114.993,-244.388 L -115.475,-244.449 L -115.946,-244.57 L -116.398,-244.749 L -116.823,-244.983 L -117.216,-245.269
 L -117.571,-245.601 L -117.88,-245.976 L -118.141,-246.386 L -118.348,-246.826 L -118.498,-247.288 L -118.589,-247.765
 L -118.619,-248.25 L -118.619,-387.75 L -118.589,-388.235 L -118.498,-388.712 L -118.348,-389.174 L -118.141,-389.614
 L -117.88,-390.024 L -117.571,-390.399 L -117.216,-390.731 L -116.823,-391.017 L -116.398,-391.251 L -115.946,-391.43
 L -115.475,-391.551 L -114.993,-391.612 L 114.993,-391.612 L 115.475,-391.551 L 115.946,-391.43 L 116.398,-391.251
 L 116.823,-391.017 L 117.216,-390.731 L 117.571,-390.399 L 117.88,-390.024 L 118.141,-389.614 L 118.348,-389.174
 L 118.498,-388.712 L 118.589,-388.235 L 118.619,-387.75 L 118.619,-248.25 L 118.589,-247.765 L 118.498,-247.288
 L 118.348,-246.826 L 118.141,-246.386 L 117.88,-245.976 L 117.571,-245.601 L 117.216,-245.269 L 116.823,-244.983
 L 116.398,-244.749 L 115.946,-244.57 L 115.475,-244.449 L 114.993,-244.388 z
M 115.937,-84.0886 L 116.545,-84.2447 L 117.129,-84.4759 L 117.679,-84.7784 L 118.187,-85.1474 L 118.645,-85.5773
 L 119.045,-86.0611 L 119.382,-86.5912 L 119.649,-87.1594 L 119.843,-87.7566 L 119.961,-88.3733 L 120,-89
 L 120,-229 L 119.961,-229.627 L 119.843,-230.243 L 119.649,-230.841 L 119.382,-231.409 L 119.045,-231.939
 L 118.645,-232.423 L 118.187,-232.853 L 117.679,-233.222 L 117.129,-233.524 L 116.545,-233.755 L 115.937,-233.911
 L 115.314,-233.99 L -115.314,-233.99 L -115.937,-233.911 L -116.545,-233.755 L -117.129,-233.524 L -117.679,-233.222
 L -118.187,-232.853 L -118.645,-232.423 L -119.045,-231.939 L -119.382,-231.409 L -119.649,-230.841 L -119.843,-230.243
 L -119.961,-229.627 L -120,-229 L -120,-89 L -119.961,-88.3733 L -119.843,-87.7566 L -119.649,-87.1594
 L -119.382,-86.5912 L -119.045,-86.0611 L -118.645,-85.5773 L -118.187,-85.1474 L -117.679,-84.7784 L -117.129,-84.4759
 L -116.545,-84.2447 L -115.937,-84.0886 L -115.314,-84.0099 L 115.314,-84.0099 z
M -112.613,-224.704 L -112.837,-224.732 L -113.056,-224.788 L -113.266,-224.871 L -113.464,-224.98 L -113.647,-225.113
 L -113.812,-225.268 L -113.956,-225.442 L -114.077,-225.633 L -114.174,-225.837 L -114.243,-226.052 L -114.286,-226.274
 L -114.3,-226.5 L -114.286,-226.726 L -114.243,-226.948 L -114.174,-227.163 L -114.077,-227.367 L -113.956,-227.558
 L -113.812,-227.732 L -113.647,-227.887 L -113.464,-228.02 L -113.266,-228.129 L -113.056,-228.212 L -112.837,-228.268
 L -112.613,-228.296 L -112.387,-228.296 L -112.163,-228.268 L -111.944,-228.212 L -111.734,-228.129 L -111.536,-228.02
 L -111.353,-227.887 L -111.188,-227.732 L -111.044,-227.558 L -110.923,-227.367 L -110.826,-227.163 L -110.757,-226.948
 L -110.714,-226.726 L -110.7,-226.5 L -110.714,-226.274 L -110.757,-226.052 L -110.826,-225.837 L -110.923,-225.633
 L -111.044,-225.442 L -111.188,-225.268 L -111.353,-225.113 L -111.536,-224.98 L -111.734,-224.871 L -111.944,-224.788
 L -112.163,-224.732 L -112.387,-224.704 z
M 112.387,-224.704 L 112.163,-224.732 L 111.944,-224.788 L 111.734,-224.871 L 111.536,-224.98 L 111.353,-225.113
 L 111.188,-225.268 L 111.044,-225.442 L 110.923,-225.633 L 110.826,-225.837 L 110.757,-226.052 L 110.714,-226.274
 L 110.7,-226.5 L 110.714,-226.726 L 110.757,-226.948 L 110.826,-227.163 L 110.923,-227.367 L 111.044,-227.558
 L 111.188,-227.732 L 111.353,-227.887 L 111.536,-228.02 L 111.734,-228.129 L 111.944,-228.212 L 112.163,-228.268
 L 112.387,-228.296 L 112.613,-228.296 L 112.837,-228.268 L 113.056,-228.212 L 113.266,-228.129 L 113.464,-228.02
 L 113.647,-227.887 L 113.812,-227.732 L 113.956,-227.558 L 114.077,-227.367 L 114.174,-227.163 L 114.243,-226.948
 L 114.286,-226.726 L 114.3,-226.5 L 114.286,-226.274 L 114.243,-226.052 L 114.174,-225.837 L 114.077,-225.633
 L 113.956,-225.442 L 113.812,-225.268 L 113.647,-225.113 L 113.464,-224.98 L 113.266,-224.871 L 113.056,-224.788
 L 112.837,-224.732 L 112.613,-224.704 z
M -112.613,-89.7036 L -112.837,-89.7319 L -113.056,-89.7881 L -113.266,-89.8713 L -113.464,-89.9802 L -113.647,-90.1131
 L -113.812,-90.2678 L -113.956,-90.442 L -114.077,-90.6328 L -114.174,-90.8374 L -114.243,-91.0524 L -114.286,-91.2744
 L -114.3,-91.5 L -114.286,-91.7256 L -114.243,-91.9476 L -114.174,-92.1626 L -114.077,-92.3672 L -113.956,-92.558
 L -113.812,-92.7322 L -113.647,-92.8869 L -113.464,-93.0198 L -113.266,-93.1287 L -113.056,-93.2119 L -112.837,-93.2681
 L -112.613,-93.2964 L -112.387,-93.2964 L -112.163,-93.2681 L -111.944,-93.2119 L -111.734,-93.1287 L -111.536,-93.0198
 L -111.353,-92.8869 L -111.188,-92.7322 L -111.044,-92.558 L -110.923,-92.3672 L -110.826,-92.1626 L -110.757,-91.9476
 L -110.714,-91.7256 L -110.7,-91.5 L -110.714,-91.2744 L -110.757,-91.0524 L -110.826,-90.8374 L -110.923,-90.6328
 L -111.044,-90.442 L -111.188,-90.2678 L -111.353,-90.1131 L -111.536,-89.9802 L -111.734,-89.8713 L -111.944,-89.7881
 L -112.163,-89.7319 L -112.387,-89.7036 z
M 112.387,-89.7036 L 112.163,-89.7319 L 111.944,-89.7881 L 111.734,-89.8713 L 111.536,-89.9802 L 111.353,-90.1131
 L 111.188,-90.2678 L 111.044,-90.442 L 110.923,-90.6328 L 110.826,-90.8374 L 110.757,-91.0524 L 110.714,-91.2744
 L 110.7,-91.5 L 110.714,-91.7256 L 110.757,-91.9476 L 110.826,-92.1626 L 110.923,-92.3672 L 111.044,-92.558
 L 111.188,-92.7322 L 111.353,-92.8869 L 111.536,-93.0198 L 111.734,-93.1287 L 111.944,-93.2119 L 112.163,-93.2681
 L 112.387,-93.2964 L 112.613,-93.2964 L 112.837,-93.2681 L 113.056,-93.2119 L 113.266,-93.1287 L 113.464,-93.0198
 L 113.647,-92.8869 L 113.812,-92.7322 L 113.956,-92.558 L 114.077,-92.3672 L 114.174,-92.1626 L 114.243,-91.9476
 L 114.286,-91.7256 L 114.3,-91.5 L 114.286,-91.2744 L 114.243,-91.0524 L 114.174,-90.8374 L 114.077,-90.6328
 L 113.956,-90.442 L 113.812,-90.2678 L 113.647,-90.1131 L 113.464,-89.9802 L 113.266,-89.8713 L 113.056,-89.7881
 L 112.837,-89.7319 L 112.613,-89.7036 z
" stroke="black" fill="lightgray" stroke-width="0.5"/>
</svg>
