<?xml version="1.0" standalone="no"?>
<!DOCTYPE svg PUBLIC "-//W3C//DTD SVG 1.1//EN" "http://www.w3.org/Graphics/SVG/1.1/DTD/svg11.dtd">
<svg width="240mm" height="381mm" viewBox="-120 -756 240 381" xmlns="http://www.w3.org/2000/svg" version="1.1">
<title>OpenSCAD Model</title>
<path d="
M 115.937,-726.089 L 116.545,-726.245 L 117.129,-726.476 L 117.679,-726.778 L 118.187,-727.147 L 118.645,-727.577
 L 119.045,-728.061 L 119.382,-728.591 L 119.649,-729.159 L 119.843,-729.757 L 119.961,-730.373 L 120,-731
 L 120,-751 L 119.961,-751.627 L 119.843,-752.243 L 119.649,-752.841 L 119.382,-753.409 L 119.045,-753.939
 L 118.645,-754.423 L 118.187,-754.853 L 117.679,-755.222 L 117.129,-755.524 L 116.545,-755.755 L 115.937,-755.911
 L 115.314,-755.99 L -115.314,-755.99 L -115.937,-755.911 L -116.545,-755.755 L -117.129,-755.524 L -117.679,-755.222
 L -118.187,-754.853 L -118.645,-754.423 L -119.045,-753.939 L -119.382,-753.409 L -119.649,-752.841 L -119.843,-752.243
 L -119.961,-751.627 L -120,-751 L -120,-731 L -119.961,-730.373 L -119.843,-729.757 L -119.649,-729.159
 L -119.382,-728.591 L -119.045,-728.061 L -118.645,-727.577 L -118.187,-727.147 L -117.679,-726.778 L -117.129,-726.476
 L -116.545,-726.245 L -115.937,-726.089 L -115.314,-726.01 L 115.314,-726.01 z
M -115.048,-726.509 L -115.64,-726.584 L -116.218,-726.732 L -116.772,-726.952 L -117.295,-727.239 L -117.778,-727.59
 L -118.213,-727.998 L -118.593,-728.458 L -118.912,-728.962 L -119.166,-729.501 L -119.351,-730.069 L -119.463,-730.655
 L -119.5,-731.25 L -119.5,-750.75 L -119.463,-751.345 L -119.351,-751.931 L -119.166,-752.499 L -118.912,-753.038
 L -118.593,-753.542 L -118.213,-754.002 L -117.778,-754.41 L -117.295,-754.761 L -116.772,-755.048 L -116.218,-755.268
 L -115.64,-755.416 L -115.048,-755.491 L 115.048,-755.491 L 115.64,-755.416 L 116.218,-755.268 L 116.772,-755.048
 L 117.295,-754.761 L 117.778,-754.41 L 118.213,-754.002 L 118.593,-753.542 L 118.912,-753.038 L 119.166,-752.499
 L 119.351,-751.931 L 119.463,-751.345 L 119.5,-750.75 L 119.5,-731.25 L 119.463,-730.655 L 119.351,-730.069
 L 119.166,-729.501 L 118.912,-728.962 L 118.593,-728.458 L 118.213,-727.998 L 117.778,-727.59 L 117.295,-727.239
 L 116.772,-726.952 L 116.218,-726.732 L 115.64,-726.584 L 115.048,-726.509 z
M 115.937,-687.089 L 116.545,-687.245 L 117.129,-687.476 L 117.679,-687.778 L 118.187,-688.147 L 118.645,-688.577
 L 119.045,-689.061 L 119.382,-689.591 L 119.649,-690.159 L 119.843,-690.757 L 119.961,-691.373 L 120,-692
 L 120,-712 L 119.961,-712.627 L 119.843,-713.243 L 119.649,-713.841 L 119.382,-714.409 L 119.045,-714.939
 L 118.645,-715.423 L 118.187,-715.853 L 117.679,-716.222 L 117.129,-716.524 L 116.545,-716.755 L 115.937,-716.911
 L 115.314,-716.99 L -115.314,-716.99 L -115.937,-716.911 L -116.545,-716.755 L -117.129,-716.524 L -117.679,-716.222
 L -118.187,-715.853 L -118.645,-715.423 L -119.045,-714.939 L -119.382,-714.409 L -119.649,-713.841 L -119.843,-713.243
 L -119.961,-712.627 L -120,-712 L -120,-692 L -119.961,-691.373 L -119.843,-690.757 L -119.649,-690.159
 L -119.382,-689.591 L -119.045,-689.061 L -118.645,-688.577 L -118.187,-688.147 L -117.679,-687.778 L -117.129,-687.476
 L -116.545,-687.245 L -115.937,-687.089 L -115.314,-687.01 L 115.314,-687.01 z
M -115.048,-687.509 L -115.64,-687.584 L -116.218,-687.732 L -116.772,-687.952 L -117.295,-688.239 L -117.778,-688.59
 L -118.213,-688.998 L -118.593,-689.458 L -118.912,-689.962 L -119.166,-690.501 L -119.351,-691.069 L -119.463,-691.655
 L -119.5,-692.25 L -119.5,-711.75 L -119.463,-712.345 L -119.351,-712.931 L -119.166,-713.499 L -118.912,-714.038
 L -118.593,-714.542 L -118.213,-715.002 L -117.778,-715.41 L -117.295,-715.761 L -116.772,-716.048 L -116.218,-716.268
 L -115.64,-716.416 L -115.048,-716.491 L 115.048,-716.491 L 115.64,-716.416 L 116.218,-716.268 L 116.772,-716.048
 L 117.295,-715.761 L 117.778,-715.41 L 118.213,-715.002 L 118.593,-714.542 L 118.912,-714.038 L 119.166,-713.499
 L 119.351,-712.931 L 119.463,-712.345 L 119.5,-711.75 L 119.5,-692.25 L 119.463,-691.655 L 119.351,-691.069
 L 119.166,-690.501 L 118.912,-689.962 L 118.593,-689.458 L 118.213,-688.998 L 117.778,-688.59 L 117.295,-688.239
 L 116.772,-687.952 L 116.218,-687.732 L 115.64,-687.584 L 115.048,-687.509 z
M 115.937,-648.089 L 116.545,-648.245 L 117.129,-648.476 L 117.679,-648.778 L 118.187,-649.147 L 118.645,-649.577
 L 119.045,-650.061 L 119.382,-650.591 L 119.649,-651.159 L 119.843,-651.757 L 119.961,-652.373 L 120,-653
 L 120,-673 L 119.961,-673.627 L 119.843,-674.243 L 119.649,-674.841 L 119.382,-675.409 L 119.045,-675.939
 L 118.645,-676.423 L 118.187,-676.853 L 117.679,-677.222 L 117.129,-677.524 L 116.545,-677.755 L 115.937,-677.911
 L 115.314,-677.99 L -115.314,-677.99 L -115.937,-677.911 L -116.545,-677.755 L -117.129,-677.524 L -117.679,-677.222
 L -118.187,-676.853 L -118.645,-676.423 L -119.045,-675.939 L -119.382,-675.409 L -119.649,-674.841 L -119.843,-674.243
 L -119.961,-673.627 L -120,-673 L -120,-653 L -119.961,-652.373 L -119.843,-651.757 L -119.649,-651.159
 L -119.382,-650.591 L -119.045,-650.061 L -118.645,-649.577 L -118.187,-649.147 L -117.679,-648.778 L -117.129,-648.476
 L -116.545,-648.245 L -115.937,-648.089 L -115.314,-648.01 L 115.314,-648.01 z
M -115.048,-648.509 L -115.64,-648.584 L -116.218,-648.732 L -116.772,-648.952 L -117.295,-649.239 L -117.778,-649.59
 L -118.213,-649.998 L -118.593,-650.458 L -118.912,-650.962 L -119.166,-651.501 L -119.351,-652.069 L -119.463,-652.655
 L -119.5,-653.25 L -119.5,-672.75 L -119.463,-673.345 L -119.351,-673.931 L -119.166,-674.499 L -118.912,-675.038
 L -118.593,-675.542 L -118.213,-676.002 L -117.778,-676.41 L -117.295,-676.761 L -116.772,-677.048 L -116.218,-677.268
 L -115.64,-677.416 L -115.048,-677.491 L 115.048,-677.491 L 115.64,-677.416 L 116.218,-677.268 L 116.772,-677.048
 L 117.295,-676.761 L 117.778,-676.41 L 118.213,-676.002 L 118.593,-675.542 L 118.912,-675.038 L 119.166,-674.499
 L 119.351,-673.931 L 119.463,-673.345 L 119.5,-672.75 L 119.5,-653.25 L 119.463,-652.655 L 119.351,-652.069
 L 119.166,-651.501 L 118.912,-650.962 L 118.593,-650.458 L 118.213,-649.998 L 117.778,-649.59 L 117.295,-649.239
 L 116.772,-648.952 L 116.218,-648.732 L 115.64,-648.584 L 115.048,-648.509 z
M 115.937,-609.089 L 116.545,-609.245 L 117.129,-609.476 L 117.679,-609.778 L 118.187,-610.147 L 118.645,-610.577
 L 119.045,-611.061 L 119.382,-611.591 L 119.649,-612.159 L 119.843,-612.757 L 119.961,-613.373 L 120,-614
 L 120,-634 L 119.961,-634.627 L 119.843,-635.243 L 119.649,-635.841 L 119.382,-636.409 L 119.045,-636.939
 L 118.645,-637.423 L 118.187,-637.853 L 117.679,-638.222 L 117.129,-638.524 L 116.545,-638.755 L 115.937,-638.911
 L 115.314,-638.99 L -115.314,-638.99 L -115.937,-638.911 L -116.545,-638.755 L -117.129,-638.524 L -117.679,-638.222
 L -118.187,-637.853 L -118.645,-637.423 L -119.045,-636.939 L -119.382,-636.409 L -119.649,-635.841 L -119.843,-635.243
 L -119.961,-634.627 L -120,-634 L -120,-614 L -119.961,-613.373 L -119.843,-612.757 L -119.649,-612.159
 L -119.382,-611.591 L -119.045,-611.061 L -118.645,-610.577 L -118.187,-610.147 L -117.679,-609.778 L -117.129,-609.476
 L -116.545,-609.245 L -115.937,-609.089 L -115.314,-609.01 L 115.314,-609.01 z
M -115.048,-609.509 L -115.64,-609.584 L -116.218,-609.732 L -116.772,-609.952 L -117.295,-610.239 L -117.778,-610.59
 L -118.213,-610.998 L -118.593,-611.458 L -118.912,-611.962 L -119.166,-612.501 L -119.351,-613.069 L -119.463,-613.655
 L -119.5,-614.25 L -119.5,-633.75 L -119.463,-634.345 L -119.351,-634.931 L -119.166,-635.499 L -118.912,-636.038
 L -118.593,-636.542 L -118.213,-637.002 L -117.778,-637.41 L -117.295,-637.761 L -116.772,-638.048 L -116.218,-638.268
 L -115.64,-638.416 L -115.048,-638.491 L 115.048,-638.491 L 115.64,-638.416 L 116.218,-638.268 L 116.772,-638.048
 L 117.295,-637.761 L 117.778,-637.41 L 118.213,-637.002 L 118.593,-636.542 L 118.912,-636.038 L 119.166,-635.499
 L 119.351,-634.931 L 119.463,-634.345 L 119.5,-633.75 L 119.5,-614.25 L 119.463,-613.655 L 119.351,-613.069
 L 119.166,-612.501 L 118.912,-611.962 L 118.593,-611.458 L 118.213,-610.998 L 117.778,-610.59 L 117.295,-610.239
 L 116.772,-609.952 L 116.218,-609.732 L 115.64,-609.584 L 115.048,-609.509 z
M 115.937,-570.089 L 116.545,-570.245 L 117.129,-570.476 L 117.679,-570.778 L 118.187,-571.147 L 118.645,-571.577
 L 119.045,-572.061 L 119.382,-572.591 L 119.649,-573.159 L 119.843,-573.757 L 119.961,-574.373 L 120,-575
 L 120,-595 L 119.961,-595.627 L 119.843,-596.243 L 119.649,-596.841 L 119.382,-597.409 L 119.045,-597.939
 L 118.645,-598.423 L 118.187,-598.853 L 117.679,-599.222 L 117.129,-599.524 L 116.545,-599.755 L 115.937,-599.911
 L 115.314,-599.99 L -115.314,-599.99 L -115.937,-599.911 L -116.545,-599.755 L -117.129,-599.524 L -117.679,-599.222
 L -118.187,-598.853 L -118.645,-598.423 L -119.045,-597.939 L -119.382,-597.409 L -119.649,-596.841 L -119.843,-596.243
 L -119.961,-595.627 L -120,-595 L -120,-575 L -119.961,-574.373 L -119.843,-573.757 L -119.649,-573.159
 L -119.382,-572.591 L -119.045,-572.061 L -118.645,-571.577 L -118.187,-571.147 L -117.679,-570.778 L -117.129,-570.476
 L -116.545,-570.245 L -115.937,-570.089 L -115.314,-570.01 L 115.314,-570.01 z
M -115.048,-570.509 L -115.64,-570.584 L -116.218,-570.732 L -116.772,-570.952 L -117.295,-571.239 L -117.778,-571.59
 L -118.213,-571.998 L -118.593,-572.458 L -118.912,-572.962 L -119.166,-573.501 L -119.351,-574.069 L -119.463,-574.655
 L -119.5,-575.25 L -119.5,-594.75 L -119.463,-595.345 L -119.351,-595.931 L -119.166,-596.499 L -118.912,-597.038
 L -118.593,-597.542 L -118.213,-598.002 L -117.778,-598.41 L -117.295,-598.761 L -116.772,-599.048 L -116.218,-599.268
 L -115.64,-599.416 L -115.048,-599.491 L 115.048,-599.491 L 115.64,-599.416 L 116.218,-599.268 L 116.772,-599.048
 L 117.295,-598.761 L 117.778,-598.41 L 118.213,-598.002 L 118.593,-597.542 L 118.912,-597.038 L 119.166,-596.499
 L 119.351,-595.931 L 119.463,-595.345 L 119.5,-594.75 L 119.5,-575.25 L 119.463,-574.655 L 119.351,-574.069
 L 119.166,-573.501 L 118.912,-572.962 L 118.593,-572.458 L 118.213,-571.998 L 117.778,-571.59 L 117.295,-571.239
 L 116.772,-570.952 L 116.218,-570.732 L 115.64,-570.584 L 115.048,-570.509 z
M 115.937,-531.089 L 116.545,-531.245 L 117.129,-531.476 L 117.679,-531.778 L 118.187,-532.147 L 118.645,-532.577
 L 119.045,-533.061 L 119.382,-533.591 L 119.649,-534.159 L 119.843,-534.757 L 119.961,-535.373 L 120,-536
 L 120,-556 L 119.961,-556.627 L 119.843,-557.243 L 119.649,-557.841 L 119.382,-558.409 L 119.045,-558.939
 L 118.645,-559.423 L 118.187,-559.853 L 117.679,-560.222 L 117.129,-560.524 L 116.545,-560.755 L 115.937,-560.911
 L 115.314,-560.99 L -115.314,-560.99 L -115.937,-560.911 L -116.545,-560.755 L -117.129,-560.524 L -117.679,-560.222
 L -118.187,-559.853 L -118.645,-559.423 L -119.045,-558.939 L -119.382,-558.409 L -119.649,-557.841 L -119.843,-557.243
 L -119.961,-556.627 L -120,-556 L -120,-536 L -119.961,-535.373 L -119.843,-534.757 L -119.649,-534.159
 L -119.382,-533.591 L -119.045,-533.061 L -118.645,-532.577 L -118.187,-532.147 L -117.679,-531.778 L -117.129,-531.476
 L -116.545,-531.245 L -115.937,-531.089 L -115.314,-531.01 L 115.314,-531.01 z
M -115.048,-531.509 L -115.64,-531.584 L -116.218,-531.732 L -116.772,-531.952 L -117.295,-532.239 L -117.778,-532.59
 L -118.213,-532.998 L -118.593,-533.458 L -118.912,-533.962 L -119.166,-534.501 L -119.351,-535.069 L -119.463,-535.655
 L -119.5,-536.25 L -119.5,-555.75 L -119.463,-556.345 L -119.351,-556.931 L -119.166,-557.499 L -118.912,-558.038
 L -118.593,-558.542 L -118.213,-559.002 L -117.778,-559.41 L -117.295,-559.761 L -116.772,-560.048 L -116.218,-560.268
 L -115.64,-560.416 L -115.048,-560.491 L 115.048,-560.491 L 115.64,-560.416 L 116.218,-560.268 L 116.772,-560.048
 L 117.295,-559.761 L 117.778,-559.41 L 118.213,-559.002 L 118.593,-558.542 L 118.912,-558.038 L 119.166,-557.499
 L 119.351,-556.931 L 119.463,-556.345 L 119.5,-555.75 L 119.5,-536.25 L 119.463,-535.655 L 119.351,-535.069
 L 119.166,-534.501 L 118.912,-533.962 L 118.593,-533.458 L 118.213,-532.998 L 117.778,-532.59 L 117.295,-532.239
 L 116.772,-531.952 L 116.218,-531.732 L 115.64,-531.584 L 115.048,-531.509 z
M 115.937,-492.089 L 116.545,-492.245 L 117.129,-492.476 L 117.679,-492.778 L 118.187,-493.147 L 118.645,-493.577
 L 119.045,-494.061 L 119.382,-494.591 L 119.649,-495.159 L 119.843,-495.757 L 119.961,-496.373 L 120,-497
 L 120,-517 L 119.961,-517.627 L 119.843,-518.243 L 119.649,-518.841 L 119.382,-519.409 L 119.045,-519.939
 L 118.645,-520.423 L 118.187,-520.853 L 117.679,-521.222 L 117.129,-521.524 L 116.545,-521.755 L 115.937,-521.911
 L 115.314,-521.99 L -115.314,-521.99 L -115.937,-521.911 L -116.545,-521.755 L -117.129,-521.524 L -117.679,-521.222
 L -118.187,-520.853 L -118.645,-520.423 L -119.045,-519.939 L -119.382,-519.409 L -119.649,-518.841 L -119.843,-518.243
 L -119.961,-517.627 L -120,-517 L -120,-497 L -119.961,-496.373 L -119.843,-495.757 L -119.649,-495.159
 L -119.382,-494.591 L -119.045,-494.061 L -118.645,-493.577 L -118.187,-493.147 L -117.679,-492.778 L -117.129,-492.476
 L -116.545,-492.245 L -115.937,-492.089 L -115.314,-492.01 L 115.314,-492.01 z
M -115.048,-492.509 L -115.64,-492.584 L -116.218,-492.732 L -116.772,-492.952 L -117.295,-493.239 L -117.778,-493.59
 L -118.213,-493.998 L -118.593,-494.458 L -118.912,-494.962 L -119.166,-495.501 L -119.351,-496.069 L -119.463,-496.655
 L -119.5,-497.25 L -119.5,-516.75 L -119.463,-517.345 L -119.351,-517.931 L -119.166,-518.499 L -118.912,-519.038
 L -118.593,-519.542 L -118.213,-520.002 L -117.778,-520.41 L -117.295,-520.761 L -116.772,-521.048 L -116.218,-521.268
 L -115.64,-521.416 L -115.048,-521.491 L 115.048,-521.491 L 115.64,-521.416 L 116.218,-521.268 L 116.772,-521.048
 L 117.295,-520.761 L 117.778,-520.41 L 118.213,-520.002 L 118.593,-519.542 L 118.912,-519.038 L 119.166,-518.499
 L 119.351,-517.931 L 119.463,-517.345 L 119.5,-516.75 L 119.5,-497.25 L 119.463,-496.655 L 119.351,-496.069
 L 119.166,-495.501 L 118.912,-494.962 L 118.593,-494.458 L 118.213,-493.998 L 117.778,-493.59 L 117.295,-493.239
 L 116.772,-492.952 L 116.218,-492.732 L 115.64,-492.584 L 115.048,-492.509 z
M 115.937,-453.089 L 116.545,-453.245 L 117.129,-453.476 L 117.679,-453.778 L 118.187,-454.147 L 118.645,-454.577
 L 119.045,-455.061 L 119.382,-455.591 L 119.649,-456.159 L 119.843,-456.757 L 119.961,-457.373 L 120,-458
 L 120,-478 L 119.961,-478.627 L 119.843,-479.243 L 119.649,-479.841 L 119.382,-480.409 L 119.045,-480.939
 L 118.645,-481.423 L 118.187,-481.853 L 117.679,-482.222 L 117.129,-482.524 L 116.545,-482.755 L 115.937,-482.911
 L 115.314,-482.99 L -115.314,-482.99 L -115.937,-482.911 L -116.545,-482.755 L -117.129,-482.524 L -117.679,-482.222
 L -118.187,-481.853 L -118.645,-481.423 L -119.045,-480.939 L -119.382,-480.409 L -119.649,-479.841 L -119.843,-479.243
 L -119.961,-478.627 L -120,-478 L -120,-458 L -119.961,-457.373 L -119.843,-456.757 L -119.649,-456.159
 L -119.382,-455.591 L -119.045,-455.061 L -118.645,-454.577 L -118.187,-454.147 L -117.679,-453.778 L -117.129,-453.476
 L -116.545,-453.245 L -115.937,-453.089 L -115.314,-453.01 L 115.314,-453.01 z
M -115.048,-453.509 L -115.64,-453.584 L -116.218,-453.732 L -116.772,-453.952 L -117.295,-454.239 L -117.778,-454.59
 L -118.213,-454.998 L -118.593,-455.458 L -118.912,-455.962 L -119.166,-456.501 L -119.351,-457.069 L -119.463,-457.655
 L -119.5,-458.25 L -119.5,-477.75 L -119.463,-478.345 L -119.351,-478.931 L -119.166,-479.499 L -118.912,-480.038
 L -118.593,-480.542 L -118.213,-481.002 L -117.778,-481.41 L -117.295,-481.761 L -116.772,-482.048 L -116.218,-482.268
 L -115.64,-482.416 L -115.048,-482.491 L 115.048,-482.491 L 115.64,-482.416 L 116.218,-482.268 L 116.772,-482.048
 L 117.295,-481.761 L 117.778,-481.41 L 118.213,-481.002 L 118.593,-480.542 L 118.912,-480.038 L 119.166,-479.499
 L 119.351,-478.931 L 119.463,-478.345 L 119.5,-477.75 L 119.5,-458.25 L 119.463,-457.655 L 119.351,-457.069
 L 119.166,-456.501 L 118.912,-455.962 L 118.593,-455.458 L 118.213,-454.998 L 117.778,-454.59 L 117.295,-454.239
 L 116.772,-453.952 L 116.218,-453.732 L 115.64,-453.584 L 115.048,-453.509 z
M 115.937,-414.089 L 116.545,-414.245 L 117.129,-414.476 L 117.679,-414.778 L 118.187,-415.147 L 118.645,-415.577
 L 119.045,-416.061 L 119.382,-416.591 L 119.649,-417.159 L 119.843,-417.757 L 119.961,-418.373 L 120,-419
 L 120,-439 L 119.961,-439.627 L 119.843,-440.243 L 119.649,-440.841 L 119.382,-441.409 L 119.045,-441.939
 L 118.645,-442.423 L 118.187,-442.853 L 117.679,-443.222 L 117.129,-443.524 L 116.545,-443.755 L 115.937,-443.911
 L 115.314,-443.99 L -115.314,-443.99 L -115.937,-443.911 L -116.545,-443.755 L -117.129,-443.524 L -117.679,-443.222
 L -118.187,-442.853 L -118.645,-442.423 L -119.045,-441.939 L -119.382,-441.409 L -119.649,-440.841 L -119.843,-440.243
 L -119.961,-439.627 L -120,-439 L -120,-419 L -119.961,-418.373 L -119.843,-417.757 L -119.649,-417.159
 L -119.382,-416.591 L -119.045,-416.061 L -118.645,-415.577 L -118.187,-415.147 L -117.679,-414.778 L -117.129,-414.476
 L -116.545,-414.245 L -115.937,-414.089 L -115.314,-414.01 L 115.314,-414.01 z
M -115.037,-414.681 L -115.608,-414.753 L -116.165,-414.896 L -116.699,-415.107 L -117.203,-415.384 L -117.668,-415.722
 L -118.088,-416.116 L -118.454,-416.559 L -118.762,-417.044 L -119.007,-417.565 L -119.185,-418.111 L -119.292,-418.676
 L -119.328,-419.25 L -119.328,-438.75 L -119.292,-439.324 L -119.185,-439.889 L -119.007,-440.435 L -118.762,-440.956
 L -118.454,-441.441 L -118.088,-441.884 L -117.668,-442.278 L -117.203,-442.616 L -116.699,-442.893 L -116.165,-443.104
 L -115.608,-443.247 L -115.037,-443.319 L 115.037,-443.319 L 115.608,-443.247 L 116.165,-443.104 L 116.699,-442.893
 L 117.203,-442.616 L 117.668,-442.278 L 118.088,-441.884 L 118.454,-441.441 L 118.762,-440.956 L 119.007,-440.435
 L 119.185,-439.889 L 119.292,-439.324 L 119.328,-438.75 L 119.328,-419.25 L 119.292,-418.676 L 119.185,-418.111
 L 119.007,-417.565 L 118.762,-417.044 L 118.454,-416.559 L 118.088,-416.116 L 117.668,-415.722 L 117.203,-415.384
 L 116.699,-415.107 L 116.165,-414.896 L 115.608,-414.753 L 115.037,-414.681 z
M 115.937,-375.089 L 116.545,-375.245 L 117.129,-375.476 L 117.679,-375.778 L 118.187,-376.147 L 118.645,-376.577
 L 119.045,-377.061 L 119.382,-377.591 L 119.649,-378.159 L 119.843,-378.757 L 119.961,-379.373 L 120,-380
 L 120,-400 L 119.961,-400.627 L 119.843,-401.243 L 119.649,-401.841 L 119.382,-402.409 L 119.045,-402.939
 L 118.645,-403.423 L 118.187,-403.853 L 117.679,-404.222 L 117.129,-404.524 L 116.545,-404.755 L 115.937,-404.911
 L 115.314,-404.99 L -115.314,-404.99 L -115.937,-404.911 L -116.545,-404.755 L -117.129,-404.524 L -117.679,-404.222
 L -118.187,-403.853 L -118.645,-403.423 L -119.045,-402.939 L -119.382,-402.409 L -119.649,-401.841 L -119.843,-401.243
 L -119.961,-400.627 L -120,-400 L -120,-380 L -119.961,-379.373 L -119.843,-378.757 L -119.649,-378.159
 L -119.382,-377.591 L -119.045,-377.061 L -118.645,-376.577 L -118.187,-376.147 L -117.679,-375.778 L -117.129,-375.476
 L -116.545,-375.245 L -115.937,-375.089 L -115.314,-375.01 L 115.314,-375.01 z
M -114.882,-378.145 L -115.145,-378.178 L -115.402,-378.244 L -115.648,-378.341 L -115.88,-378.469 L -116.095,-378.625
 L -116.288,-378.806 L -116.457,-379.01 L -116.599,-379.234 L -116.711,-379.473 L -116.793,-379.725 L -116.843,-379.986
 L -116.86,-380.25 L -116.86,-399.75 L -116.843,-400.014 L -116.793,-400.275 L -116.711,-400.527 L -116.599,-400.766
 L -116.457,-400.99 L -116.288,-401.194 L -116.095,-401.375 L -115.88,-401.531 L -115.648,-401.659 L -115.402,-401.756
 L -115.145,-401.822 L -114.882,-401.855 L 114.882,-401.855 L 115.145,-401.822 L 115.402,-401.756 L 115.648,-401.659
 L 115.88,-401.531 L 116.095,-401.375 L 116.288,-401.194 L 116.457,-400.99 L 116.599,-400.766 L 116.711,-400.527
 L 116.793,-400.275 L 116.843,-400.014 L 116.86,-399.75 L 116.86,-380.25 L 116.843,-379.986 L 116.793,-379.725
 L 116.711,-379.473 L 116.599,-379.234 L 116.457,-379.01 L 116.288,-378.806 L 116.095,-378.625 L 115.88,-378.469
 L 115.648,-378.341 L 115.402,-378.244 L 115.145,-378.178 L 114.882,-378.145 z
" stroke="black" fill="lightgray" stroke-width="0.5"/>
</svg>
