<?xml version="1.0" standalone="no"?>
<!DOCTYPE svg PUBLIC "-//W3C//DTD SVG 1.1//EN" "http://www.w3.org/Graphics/SVG/1.1/DTD/svg11.dtd">
<svg width="270mm" height="262mm" viewBox="-135 -509 270 262" xmlns="http://www.w3.org/2000/svg" version="1.1">
<title>OpenSCAD Model</title>
<path d="
M 130.937,-463.589 L 131.545,-463.745 L 132.129,-463.976 L 132.679,-464.278 L 133.187,-464.647 L 133.645,-465.077
 L 134.045,-465.561 L 134.382,-466.091 L 134.649,-466.659 L 134.843,-467.257 L 134.961,-467.873 L 135,-468.5
 L 135,-503.5 L 134.961,-504.127 L 134.843,-504.743 L 134.649,-505.341 L 134.382,-505.909 L 134.045,-506.439
 L 133.645,-506.923 L 133.187,-507.353 L 132.679,-507.722 L 132.129,-508.024 L 131.545,-508.255 L 130.937,-508.411
 L 130.314,-508.49 L -130.314,-508.49 L -130.937,-508.411 L -131.545,-508.255 L -132.129,-508.024 L -132.679,-507.722
 L -133.187,-507.353 L -133.645,-506.923 L -134.045,-506.439 L -134.382,-505.909 L -134.649,-505.341 L -134.843,-504.743
 L -134.961,-504.127 L -135,-503.5 L -135,-468.5 L -134.961,-467.873 L -134.843,-467.257 L -134.649,-466.659
 L -134.382,-466.091 L -134.045,-465.561 L -133.645,-465.077 L -133.187,-464.647 L -132.679,-464.278 L -132.129,-463.976
 L -131.545,-463.745 L -130.937,-463.589 L -130.314,-463.51 L 130.314,-463.51 z
M -130.048,-464.009 L -130.64,-464.084 L -131.218,-464.232 L -131.772,-464.452 L -132.295,-464.739 L -132.778,-465.09
 L -133.213,-465.498 L -133.593,-465.958 L -133.912,-466.462 L -134.166,-467.001 L -134.351,-467.569 L -134.463,-468.155
 L -134.5,-468.75 L -134.5,-503.25 L -134.463,-503.845 L -134.351,-504.431 L -134.166,-504.999 L -133.912,-505.538
 L -133.593,-506.042 L -133.213,-506.502 L -132.778,-506.91 L -132.295,-507.261 L -131.772,-507.548 L -131.218,-507.768
 L -130.64,-507.916 L -130.048,-507.991 L 130.048,-507.991 L 130.64,-507.916 L 131.218,-507.768 L 131.772,-507.548
 L 132.295,-507.261 L 132.778,-506.91 L 133.213,-506.502 L 133.593,-506.042 L 133.912,-505.538 L 134.166,-504.999
 L 134.351,-504.431 L 134.463,-503.845 L 134.5,-503.25 L 134.5,-468.75 L 134.463,-468.155 L 134.351,-467.569
 L 134.166,-467.001 L 133.912,-466.462 L 133.593,-465.958 L 133.213,-465.498 L 132.778,-465.09 L 132.295,-464.739
 L 131.772,-464.452 L 131.218,-464.232 L 130.64,-464.084 L 130.048,-464.009 z
M 130.937,-409.589 L 131.545,-409.745 L 132.129,-409.976 L 132.679,-410.278 L 133.187,-410.647 L 133.645,-411.077
 L 134.045,-411.561 L 134.382,-412.091 L 134.649,-412.659 L 134.843,-413.257 L 134.961,-413.873 L 135,-414.5
 L 135,-449.5 L 134.961,-450.127 L 134.843,-450.743 L 134.649,-451.341 L 134.382,-451.909 L 134.045,-452.439
 L 133.645,-452.923 L 133.187,-453.353 L 132.679,-453.722 L 132.129,-454.024 L 131.545,-454.255 L 130.937,-454.411
 L 130.314,-454.49 L -130.314,-454.49 L -130.937,-454.411 L -131.545,-454.255 L -132.129,-454.024 L -132.679,-453.722
 L -133.187,-453.353 L -133.645,-452.923 L -134.045,-452.439 L -134.382,-451.909 L -134.649,-451.341 L -134.843,-450.743
 L -134.961,-450.127 L -135,-449.5 L -135,-414.5 L -134.961,-413.873 L -134.843,-413.257 L -134.649,-412.659
 L -134.382,-412.091 L -134.045,-411.561 L -133.645,-411.077 L -133.187,-410.647 L -132.679,-410.278 L -132.129,-409.976
 L -131.545,-409.745 L -130.937,-409.589 L -130.314,-409.51 L 130.314,-409.51 z
M -130.048,-410.009 L -130.64,-410.084 L -131.218,-410.232 L -131.772,-410.452 L -132.295,-410.739 L -132.778,-411.09
 L -133.213,-411.498 L -133.593,-411.958 L -133.912,-412.462 L -134.166,-413.001 L -134.351,-413.569 L -134.463,-414.155
 L -134.5,-414.75 L -134.5,-449.25 L -134.463,-449.845 L -134.351,-450.431 L -134.166,-450.999 L -133.912,-451.538
 L -133.593,-452.042 L -133.213,-452.502 L -132.778,-452.91 L -132.295,-453.261 L -131.772,-453.548 L -131.218,-453.768
 L -130.64,-453.916 L -130.048,-453.991 L 130.048,-453.991 L 130.64,-453.916 L 131.218,-453.768 L 131.772,-453.548
 L 132.295,-453.261 L 132.778,-452.91 L 133.213,-452.502 L 133.593,-452.042 L 133.912,-451.538 L 134.166,-450.999
 L 134.351,-450.431 L 134.463,-449.845 L 134.5,-449.25 L 134.5,-414.75 L 134.463,-414.155 L 134.351,-413.569
 L 134.166,-413.001 L 133.912,-412.462 L 133.593,-411.958 L 133.213,-411.498 L 132.778,-411.09 L 132.295,-410.739
 L 131.772,-410.452 L 131.218,-410.232 L 130.64,-410.084 L 130.048,-410.009 z
M 130.937,-355.589 L 131.545,-355.745 L 132.129,-355.976 L 132.679,-356.278 L 133.187,-356.647 L 133.645,-357.077
 L 134.045,-357.561 L 134.382,-358.091 L 134.649,-358.659 L 134.843,-359.257 L 134.961,-359.873 L 135,-360.5
 L 135,-395.5 L 134.961,-396.127 L 134.843,-396.743 L 134.649,-397.341 L 134.382,-397.909 L 134.045,-398.439
 L 133.645,-398.923 L 133.187,-399.353 L 132.679,-399.722 L 132.129,-400.024 L 131.545,-400.255 L 130.937,-400.411
 L 130.314,-400.49 L -130.314,-400.49 L -130.937,-400.411 L -131.545,-400.255 L -132.129,-400.024 L -132.679,-399.722
 L -133.187,-399.353 L -133.645,-398.923 L -134.045,-398.439 L -134.382,-397.909 L -134.649,-397.341 L -134.843,-396.743
 L -134.961,-396.127 L -135,-395.5 L -135,-360.5 L -134.961,-359.873 L -134.843,-359.257 L -134.649,-358.659
 L -134.382,-358.091 L -134.045,-357.561 L -133.645,-357.077 L -133.187,-356.647 L -132.679,-356.278 L -132.129,-355.976
 L -131.545,-355.745 L -130.937,-355.589 L -130.314,-355.51 L 130.314,-355.51 z
M -130.048,-356.009 L -130.64,-356.084 L -131.218,-356.232 L -131.772,-356.452 L -132.295,-356.739 L -132.778,-357.09
 L -133.213,-357.498 L -133.593,-357.958 L -133.912,-358.462 L -134.166,-359.001 L -134.351,-359.569 L -134.463,-360.155
 L -134.5,-360.75 L -134.5,-395.25 L -134.463,-395.845 L -134.351,-396.431 L -134.166,-396.999 L -133.912,-397.538
 L -133.593,-398.042 L -133.213,-398.502 L -132.778,-398.91 L -132.295,-399.261 L -131.772,-399.548 L -131.218,-399.768
 L -130.64,-399.916 L -130.048,-399.991 L 130.048,-399.991 L 130.64,-399.916 L 131.218,-399.768 L 131.772,-399.548
 L 132.295,-399.261 L 132.778,-398.91 L 133.213,-398.502 L 133.593,-398.042 L 133.912,-397.538 L 134.166,-396.999
 L 134.351,-396.431 L 134.463,-395.845 L 134.5,-395.25 L 134.5,-360.75 L 134.463,-360.155 L 134.351,-359.569
 L 134.166,-359.001 L 133.912,-358.462 L 133.593,-357.958 L 133.213,-357.498 L 132.778,-357.09 L 132.295,-356.739
 L 131.772,-356.452 L 131.218,-356.232 L 130.64,-356.084 L 130.048,-356.009 z
M 130.937,-301.589 L 131.545,-301.745 L 132.129,-301.976 L 132.679,-302.278 L 133.187,-302.647 L 133.645,-303.077
 L 134.045,-303.561 L 134.382,-304.091 L 134.649,-304.659 L 134.843,-305.257 L 134.961,-305.873 L 135,-306.5
 L 135,-341.5 L 134.961,-342.127 L 134.843,-342.743 L 134.649,-343.341 L 134.382,-343.909 L 134.045,-344.439
 L 133.645,-344.923 L 133.187,-345.353 L 132.679,-345.722 L 132.129,-346.024 L 131.545,-346.255 L 130.937,-346.411
 L 130.314,-346.49 L -130.314,-346.49 L -130.937,-346.411 L -131.545,-346.255 L -132.129,-346.024 L -132.679,-345.722
 L -133.187,-345.353 L -133.645,-344.923 L -134.045,-344.439 L -134.382,-343.909 L -134.649,-343.341 L -134.843,-342.743
 L -134.961,-342.127 L -135,-341.5 L -135,-306.5 L -134.961,-305.873 L -134.843,-305.257 L -134.649,-304.659
 L -134.382,-304.091 L -134.045,-303.561 L -133.645,-303.077 L -133.187,-302.647 L -132.679,-302.278 L -132.129,-301.976
 L -131.545,-301.745 L -130.937,-301.589 L -130.314,-301.51 L 130.314,-301.51 z
M -130.037,-302.181 L -130.608,-302.253 L -131.165,-302.396 L -131.699,-302.607 L -132.203,-302.884 L -132.668,-303.222
 L -133.088,-303.616 L -133.454,-304.059 L -133.762,-304.544 L -134.007,-305.065 L -134.185,-305.611 L -134.292,-306.176
 L -134.328,-306.75 L -134.328,-341.25 L -134.292,-341.824 L -134.185,-342.389 L -134.007,-342.935 L -133.762,-343.456
 L -133.454,-343.941 L -133.088,-344.384 L -132.668,-344.778 L -132.203,-345.116 L -131.699,-345.393 L -131.165,-345.604
 L -130.608,-345.747 L -130.037,-345.819 L 130.037,-345.819 L 130.608,-345.747 L 131.165,-345.604 L 131.699,-345.393
 L 132.203,-345.116 L 132.668,-344.778 L 133.088,-344.384 L 133.454,-343.941 L 133.762,-343.456 L 134.007,-342.935
 L 134.185,-342.389 L 134.292,-341.824 L 134.328,-341.25 L 134.328,-306.75 L 134.292,-306.176 L 134.185,-305.611
 L 134.007,-305.065 L 133.762,-304.544 L 133.454,-304.059 L 133.088,-303.616 L 132.668,-303.222 L 132.203,-302.884
 L 131.699,-302.607 L 131.165,-302.396 L 130.608,-302.253 L 130.037,-302.181 z
M 130.937,-247.589 L 131.545,-247.745 L 132.129,-247.976 L 132.679,-248.278 L 133.187,-248.647 L 133.645,-249.077
 L 134.045,-249.561 L 134.382,-250.091 L 134.649,-250.659 L 134.843,-251.257 L 134.961,-251.873 L 135,-252.5
 L 135,-287.5 L 134.961,-288.127 L 134.843,-288.743 L 134.649,-289.341 L 134.382,-289.909 L 134.045,-290.439
 L 133.645,-290.923 L 133.187,-291.353 L 132.679,-291.722 L 132.129,-292.024 L 131.545,-292.255 L 130.937,-292.411
 L 130.314,-292.49 L -130.314,-292.49 L -130.937,-292.411 L -131.545,-292.255 L -132.129,-292.024 L -132.679,-291.722
 L -133.187,-291.353 L -133.645,-290.923 L -134.045,-290.439 L -134.382,-289.909 L -134.649,-289.341 L -134.843,-288.743
 L -134.961,-288.127 L -135,-287.5 L -135,-252.5 L -134.961,-251.873 L -134.843,-251.257 L -134.649,-250.659
 L -134.382,-250.091 L -134.045,-249.561 L -133.645,-249.077 L -133.187,-248.647 L -132.679,-248.278 L -132.129,-247.976
 L -131.545,-247.745 L -130.937,-247.589 L -130.314,-247.51 L 130.314,-247.51 z
M -129.882,-250.645 L -130.145,-250.678 L -130.402,-250.744 L -130.648,-250.841 L -130.88,-250.969 L -131.095,-251.125
 L -131.288,-251.306 L -131.457,-251.51 L -131.599,-251.734 L -131.711,-251.973 L -131.793,-252.225 L -131.843,-252.486
 L -131.86,-252.75 L -131.86,-287.25 L -131.843,-287.514 L -131.793,-287.775 L -131.711,-288.027 L -131.599,-288.266
 L -131.457,-288.49 L -131.288,-288.694 L -131.095,-288.875 L -130.88,-289.031 L -130.648,-289.159 L -130.402,-289.256
 L -130.145,-289.322 L -129.882,-289.355 L 129.882,-289.355 L 130.145,-289.322 L 130.402,-289.256 L 130.648,-289.159
 L 130.88,-289.031 L 131.095,-288.875 L 131.288,-288.694 L 131.457,-288.49 L 131.599,-288.266 L 131.711,-288.027
 L 131.793,-287.775 L 131.843,-287.514 L 131.86,-287.25 L 131.86,-252.75 L 131.843,-252.486 L 131.793,-252.225
 L 131.711,-251.973 L 131.599,-251.734 L 131.457,-251.51 L 131.288,-251.306 L 131.095,-251.125 L 130.88,-250.969
 L 130.648,-250.841 L 130.402,-250.744 L 130.145,-250.678 L 129.882,-250.645 z
" stroke="black" fill="lightgray" stroke-width="0.5"/>
</svg>
