  0
SECTION
  2
BLOCKS
  0
ENDSEC
  0
SECTION
  2
ENTITIES
  0
LINE
  8
0
 10
145.937
 20
252.089
 11
146.545
 21
252.245
  0
LINE
  8
0
 10
146.545
 20
252.245
 11
147.129
 21
252.476
  0
LINE
  8
0
 10
147.129
 20
252.476
 11
147.679
 21
252.778
  0
LINE
  8
0
 10
147.679
 20
252.778
 11
148.187
 21
253.147
  0
LINE
  8
0
 10
148.187
 20
253.147
 11
148.645
 21
253.577
  0
LINE
  8
0
 10
148.645
 20
253.577
 11
149.045
 21
254.061
  0
LINE
  8
0
 10
149.045
 20
254.061
 11
149.382
 21
254.591
  0
LINE
  8
0
 10
149.382
 20
254.591
 11
149.649
 21
255.159
  0
LINE
  8
0
 10
149.649
 20
255.159
 11
149.843
 21
255.757
  0
LINE
  8
0
 10
149.843
 20
255.757
 11
149.961
 21
256.373
  0
LINE
  8
0
 10
149.961
 20
256.373
 11
150
 21
257
  0
LINE
  8
0
 10
150
 20
257
 11
150
 21
337
  0
LINE
  8
0
 10
150
 20
337
 11
149.961
 21
337.627
  0
LINE
  8
0
 10
149.961
 20
337.627
 11
149.843
 21
338.243
  0
LINE
  8
0
 10
149.843
 20
338.243
 11
149.649
 21
338.841
  0
LINE
  8
0
 10
149.649
 20
338.841
 11
149.382
 21
339.409
  0
LINE
  8
0
 10
149.382
 20
339.409
 11
149.045
 21
339.939
  0
LINE
  8
0
 10
149.045
 20
339.939
 11
148.645
 21
340.423
  0
LINE
  8
0
 10
148.645
 20
340.423
 11
148.187
 21
340.853
  0
LINE
  8
0
 10
148.187
 20
340.853
 11
147.679
 21
341.222
  0
LINE
  8
0
 10
147.679
 20
341.222
 11
147.129
 21
341.524
  0
LINE
  8
0
 10
147.129
 20
341.524
 11
146.545
 21
341.755
  0
LINE
  8
0
 10
146.545
 20
341.755
 11
145.937
 21
341.911
  0
LINE
  8
0
 10
145.937
 20
341.911
 11
145.314
 21
341.99
  0
LINE
  8
0
 10
145.314
 20
341.99
 11
-145.314
 21
341.99
  0
LINE
  8
0
 10
-145.314
 20
341.99
 11
-145.937
 21
341.911
  0
LINE
  8
0
 10
-145.937
 20
341.911
 11
-146.545
 21
341.755
  0
LINE
  8
0
 10
-146.545
 20
341.755
 11
-147.129
 21
341.524
  0
LINE
  8
0
 10
-147.129
 20
341.524
 11
-147.679
 21
341.222
  0
LINE
  8
0
 10
-147.679
 20
341.222
 11
-148.187
 21
340.853
  0
LINE
  8
0
 10
-148.187
 20
340.853
 11
-148.5
 21
340.559
  0
LINE
  8
0
 10
-148.5
 20
340.559
 11
-148.5
 21
341.979
  0
LINE
  8
0
 10
-148.5
 20
341.979
 11
-151.5
 21
341.979
  0
LINE
  8
0
 10
-151.5
 20
341.979
 11
-151.5
 21
252.021
  0
LINE
  8
0
 10
-151.5
 20
252.021
 11
-148.5
 21
252.021
  0
LINE
  8
0
 10
-148.5
 20
252.021
 11
-148.5
 21
253.441
  0
LINE
  8
0
 10
-148.5
 20
253.441
 11
-148.187
 21
253.147
  0
LINE
  8
0
 10
-148.187
 20
253.147
 11
-147.679
 21
252.778
  0
LINE
  8
0
 10
-147.679
 20
252.778
 11
-147.129
 21
252.476
  0
LINE
  8
0
 10
-147.129
 20
252.476
 11
-146.545
 21
252.245
  0
LINE
  8
0
 10
-146.545
 20
252.245
 11
-145.937
 21
252.089
  0
LINE
  8
0
 10
-145.937
 20
252.089
 11
-145.314
 21
252.01
  0
LINE
  8
0
 10
-145.314
 20
252.01
 11
145.314
 21
252.01
  0
LINE
  8
0
 10
145.314
 20
252.01
 11
145.937
 21
252.089
  0
LINE
  8
0
 10
-144.695
 20
254.393
 11
-145.083
 21
254.442
  0
LINE
  8
0
 10
-145.083
 20
254.442
 11
-145.462
 21
254.539
  0
LINE
  8
0
 10
-145.462
 20
254.539
 11
-145.825
 21
254.683
  0
LINE
  8
0
 10
-145.825
 20
254.683
 11
-146.168
 21
254.872
  0
LINE
  8
0
 10
-146.168
 20
254.872
 11
-146.484
 21
255.101
  0
LINE
  8
0
 10
-146.484
 20
255.101
 11
-146.769
 21
255.369
  0
LINE
  8
0
 10
-146.769
 20
255.369
 11
-147.018
 21
255.67
  0
LINE
  8
0
 10
-147.018
 20
255.67
 11
-147.228
 21
256
  0
LINE
  8
0
 10
-147.228
 20
256
 11
-147.394
 21
256.354
  0
LINE
  8
0
 10
-147.394
 20
256.354
 11
-147.515
 21
256.726
  0
LINE
  8
0
 10
-147.515
 20
256.726
 11
-147.588
 21
257.11
  0
LINE
  8
0
 10
-147.588
 20
257.11
 11
-147.613
 21
257.5
  0
LINE
  8
0
 10
-147.613
 20
257.5
 11
-147.613
 21
336.5
  0
LINE
  8
0
 10
-147.613
 20
336.5
 11
-147.588
 21
336.89
  0
LINE
  8
0
 10
-147.588
 20
336.89
 11
-147.515
 21
337.274
  0
LINE
  8
0
 10
-147.515
 20
337.274
 11
-147.394
 21
337.646
  0
LINE
  8
0
 10
-147.394
 20
337.646
 11
-147.228
 21
338
  0
LINE
  8
0
 10
-147.228
 20
338
 11
-147.018
 21
338.33
  0
LINE
  8
0
 10
-147.018
 20
338.33
 11
-146.769
 21
338.631
  0
LINE
  8
0
 10
-146.769
 20
338.631
 11
-146.484
 21
338.899
  0
LINE
  8
0
 10
-146.484
 20
338.899
 11
-146.168
 21
339.128
  0
LINE
  8
0
 10
-146.168
 20
339.128
 11
-145.825
 21
339.317
  0
LINE
  8
0
 10
-145.825
 20
339.317
 11
-145.462
 21
339.461
  0
LINE
  8
0
 10
-145.462
 20
339.461
 11
-145.083
 21
339.558
  0
LINE
  8
0
 10
-145.083
 20
339.558
 11
-144.695
 21
339.607
  0
LINE
  8
0
 10
-144.695
 20
339.607
 11
144.695
 21
339.607
  0
LINE
  8
0
 10
144.695
 20
339.607
 11
145.083
 21
339.558
  0
LINE
  8
0
 10
145.083
 20
339.558
 11
145.462
 21
339.461
  0
LINE
  8
0
 10
145.462
 20
339.461
 11
145.825
 21
339.317
  0
LINE
  8
0
 10
145.825
 20
339.317
 11
146.168
 21
339.128
  0
LINE
  8
0
 10
146.168
 20
339.128
 11
146.484
 21
338.899
  0
LINE
  8
0
 10
146.484
 20
338.899
 11
146.769
 21
338.631
  0
LINE
  8
0
 10
146.769
 20
338.631
 11
147.018
 21
338.33
  0
LINE
  8
0
 10
147.018
 20
338.33
 11
147.228
 21
338
  0
LINE
  8
0
 10
147.228
 20
338
 11
147.394
 21
337.646
  0
LINE
  8
0
 10
147.394
 20
337.646
 11
147.515
 21
337.274
  0
LINE
  8
0
 10
147.515
 20
337.274
 11
147.588
 21
336.89
  0
LINE
  8
0
 10
147.588
 20
336.89
 11
147.613
 21
336.5
  0
LINE
  8
0
 10
147.613
 20
336.5
 11
147.613
 21
257.5
  0
LINE
  8
0
 10
147.613
 20
257.5
 11
147.588
 21
257.11
  0
LINE
  8
0
 10
147.588
 20
257.11
 11
147.515
 21
256.726
  0
LINE
  8
0
 10
147.515
 20
256.726
 11
147.394
 21
256.354
  0
LINE
  8
0
 10
147.394
 20
256.354
 11
147.228
 21
256
  0
LINE
  8
0
 10
147.228
 20
256
 11
147.018
 21
255.67
  0
LINE
  8
0
 10
147.018
 20
255.67
 11
146.769
 21
255.369
  0
LINE
  8
0
 10
146.769
 20
255.369
 11
146.484
 21
255.101
  0
LINE
  8
0
 10
146.484
 20
255.101
 11
146.168
 21
254.872
  0
LINE
  8
0
 10
146.168
 20
254.872
 11
145.825
 21
254.683
  0
LINE
  8
0
 10
145.825
 20
254.683
 11
145.462
 21
254.539
  0
LINE
  8
0
 10
145.462
 20
254.539
 11
145.083
 21
254.442
  0
LINE
  8
0
 10
145.083
 20
254.442
 11
144.695
 21
254.393
  0
LINE
  8
0
 10
144.695
 20
254.393
 11
-144.695
 21
254.393
  0
LINE
  8
0
 10
145.937
 20
153.089
 11
146.545
 21
153.245
  0
LINE
  8
0
 10
146.545
 20
153.245
 11
147.129
 21
153.476
  0
LINE
  8
0
 10
147.129
 20
153.476
 11
147.679
 21
153.778
  0
LINE
  8
0
 10
147.679
 20
153.778
 11
148.187
 21
154.147
  0
LINE
  8
0
 10
148.187
 20
154.147
 11
148.645
 21
154.577
  0
LINE
  8
0
 10
148.645
 20
154.577
 11
149.045
 21
155.061
  0
LINE
  8
0
 10
149.045
 20
155.061
 11
149.382
 21
155.591
  0
LINE
  8
0
 10
149.382
 20
155.591
 11
149.649
 21
156.159
  0
LINE
  8
0
 10
149.649
 20
156.159
 11
149.843
 21
156.757
  0
LINE
  8
0
 10
149.843
 20
156.757
 11
149.961
 21
157.373
  0
LINE
  8
0
 10
149.961
 20
157.373
 11
150
 21
158
  0
LINE
  8
0
 10
150
 20
158
 11
150
 21
238
  0
LINE
  8
0
 10
150
 20
238
 11
149.961
 21
238.627
  0
LINE
  8
0
 10
149.961
 20
238.627
 11
149.843
 21
239.243
  0
LINE
  8
0
 10
149.843
 20
239.243
 11
149.649
 21
239.841
  0
LINE
  8
0
 10
149.649
 20
239.841
 11
149.382
 21
240.409
  0
LINE
  8
0
 10
149.382
 20
240.409
 11
149.045
 21
240.939
  0
LINE
  8
0
 10
149.045
 20
240.939
 11
148.645
 21
241.423
  0
LINE
  8
0
 10
148.645
 20
241.423
 11
148.187
 21
241.853
  0
LINE
  8
0
 10
148.187
 20
241.853
 11
147.679
 21
242.222
  0
LINE
  8
0
 10
147.679
 20
242.222
 11
147.129
 21
242.524
  0
LINE
  8
0
 10
147.129
 20
242.524
 11
146.545
 21
242.755
  0
LINE
  8
0
 10
146.545
 20
242.755
 11
145.937
 21
242.911
  0
LINE
  8
0
 10
145.937
 20
242.911
 11
145.314
 21
242.99
  0
LINE
  8
0
 10
145.314
 20
242.99
 11
-145.314
 21
242.99
  0
LINE
  8
0
 10
-145.314
 20
242.99
 11
-145.937
 21
242.911
  0
LINE
  8
0
 10
-145.937
 20
242.911
 11
-146.545
 21
242.755
  0
LINE
  8
0
 10
-146.545
 20
242.755
 11
-147.129
 21
242.524
  0
LINE
  8
0
 10
-147.129
 20
242.524
 11
-147.679
 21
242.222
  0
LINE
  8
0
 10
-147.679
 20
242.222
 11
-148.187
 21
241.853
  0
LINE
  8
0
 10
-148.187
 20
241.853
 11
-148.5
 21
241.559
  0
LINE
  8
0
 10
-148.5
 20
241.559
 11
-148.5
 21
241.653
  0
LINE
  8
0
 10
-148.5
 20
241.653
 11
-151.5
 21
241.653
  0
LINE
  8
0
 10
-151.5
 20
241.653
 11
-151.5
 21
154.347
  0
LINE
  8
0
 10
-151.5
 20
154.347
 11
-148.5
 21
154.347
  0
LINE
  8
0
 10
-148.5
 20
154.347
 11
-148.5
 21
154.441
  0
LINE
  8
0
 10
-148.5
 20
154.441
 11
-148.187
 21
154.147
  0
LINE
  8
0
 10
-148.187
 20
154.147
 11
-147.679
 21
153.778
  0
LINE
  8
0
 10
-147.679
 20
153.778
 11
-147.129
 21
153.476
  0
LINE
  8
0
 10
-147.129
 20
153.476
 11
-146.545
 21
153.245
  0
LINE
  8
0
 10
-146.545
 20
153.245
 11
-145.937
 21
153.089
  0
LINE
  8
0
 10
-145.937
 20
153.089
 11
-145.314
 21
153.01
  0
LINE
  8
0
 10
-145.314
 20
153.01
 11
145.314
 21
153.01
  0
LINE
  8
0
 10
145.314
 20
153.01
 11
145.937
 21
153.089
  0
LINE
  8
0
 10
142.366
 20
233.369
 11
142.1
 21
233.403
  0
LINE
  8
0
 10
142.1
 20
233.403
 11
141.84
 21
233.469
  0
LINE
  8
0
 10
141.84
 20
233.469
 11
141.591
 21
233.568
  0
LINE
  8
0
 10
141.591
 20
233.568
 11
141.356
 21
233.697
  0
LINE
  8
0
 10
141.356
 20
233.697
 11
141.139
 21
233.855
  0
LINE
  8
0
 10
141.139
 20
233.855
 11
140.943
 21
234.038
  0
LINE
  8
0
 10
140.943
 20
234.038
 11
140.773
 21
234.245
  0
LINE
  8
0
 10
140.773
 20
234.245
 11
140.629
 21
234.471
  0
LINE
  8
0
 10
140.629
 20
234.471
 11
140.515
 21
234.714
  0
LINE
  8
0
 10
140.515
 20
234.714
 11
140.432
 21
234.969
  0
LINE
  8
0
 10
140.432
 20
234.969
 11
140.382
 21
235.232
  0
LINE
  8
0
 10
140.382
 20
235.232
 11
140.365
 21
235.5
  0
LINE
  8
0
 10
140.365
 20
235.5
 11
140.382
 21
235.768
  0
LINE
  8
0
 10
140.382
 20
235.768
 11
140.432
 21
236.031
  0
LINE
  8
0
 10
140.432
 20
236.031
 11
140.515
 21
236.286
  0
LINE
  8
0
 10
140.515
 20
236.286
 11
140.629
 21
236.529
  0
LINE
  8
0
 10
140.629
 20
236.529
 11
140.773
 21
236.755
  0
LINE
  8
0
 10
140.773
 20
236.755
 11
140.943
 21
236.962
  0
LINE
  8
0
 10
140.943
 20
236.962
 11
141.139
 21
237.145
  0
LINE
  8
0
 10
141.139
 20
237.145
 11
141.356
 21
237.303
  0
LINE
  8
0
 10
141.356
 20
237.303
 11
141.591
 21
237.432
  0
LINE
  8
0
 10
141.591
 20
237.432
 11
141.84
 21
237.531
  0
LINE
  8
0
 10
141.84
 20
237.531
 11
142.1
 21
237.597
  0
LINE
  8
0
 10
142.1
 20
237.597
 11
142.366
 21
237.631
  0
LINE
  8
0
 10
142.366
 20
237.631
 11
142.634
 21
237.631
  0
LINE
  8
0
 10
142.634
 20
237.631
 11
142.9
 21
237.597
  0
LINE
  8
0
 10
142.9
 20
237.597
 11
143.16
 21
237.531
  0
LINE
  8
0
 10
143.16
 20
237.531
 11
143.409
 21
237.432
  0
LINE
  8
0
 10
143.409
 20
237.432
 11
143.644
 21
237.303
  0
LINE
  8
0
 10
143.644
 20
237.303
 11
143.861
 21
237.145
  0
LINE
  8
0
 10
143.861
 20
237.145
 11
144.057
 21
236.962
  0
LINE
  8
0
 10
144.057
 20
236.962
 11
144.227
 21
236.755
  0
LINE
  8
0
 10
144.227
 20
236.755
 11
144.371
 21
236.529
  0
LINE
  8
0
 10
144.371
 20
236.529
 11
144.485
 21
236.286
  0
LINE
  8
0
 10
144.485
 20
236.286
 11
144.568
 21
236.031
  0
LINE
  8
0
 10
144.568
 20
236.031
 11
144.618
 21
235.768
  0
LINE
  8
0
 10
144.618
 20
235.768
 11
144.635
 21
235.5
  0
LINE
  8
0
 10
144.635
 20
235.5
 11
144.618
 21
235.232
  0
LINE
  8
0
 10
144.618
 20
235.232
 11
144.568
 21
234.969
  0
LINE
  8
0
 10
144.568
 20
234.969
 11
144.485
 21
234.714
  0
LINE
  8
0
 10
144.485
 20
234.714
 11
144.371
 21
234.471
  0
LINE
  8
0
 10
144.371
 20
234.471
 11
144.227
 21
234.245
  0
LINE
  8
0
 10
144.227
 20
234.245
 11
144.057
 21
234.038
  0
LINE
  8
0
 10
144.057
 20
234.038
 11
143.861
 21
233.855
  0
LINE
  8
0
 10
143.861
 20
233.855
 11
143.644
 21
233.697
  0
LINE
  8
0
 10
143.644
 20
233.697
 11
143.409
 21
233.568
  0
LINE
  8
0
 10
143.409
 20
233.568
 11
143.16
 21
233.469
  0
LINE
  8
0
 10
143.16
 20
233.469
 11
142.9
 21
233.403
  0
LINE
  8
0
 10
142.9
 20
233.403
 11
142.634
 21
233.369
  0
LINE
  8
0
 10
142.634
 20
233.369
 11
142.366
 21
233.369
  0
LINE
  8
0
 10
-142.634
 20
233.369
 11
-142.9
 21
233.403
  0
LINE
  8
0
 10
-142.9
 20
233.403
 11
-143.16
 21
233.469
  0
LINE
  8
0
 10
-143.16
 20
233.469
 11
-143.409
 21
233.568
  0
LINE
  8
0
 10
-143.409
 20
233.568
 11
-143.644
 21
233.697
  0
LINE
  8
0
 10
-143.644
 20
233.697
 11
-143.861
 21
233.855
  0
LINE
  8
0
 10
-143.861
 20
233.855
 11
-144.057
 21
234.038
  0
LINE
  8
0
 10
-144.057
 20
234.038
 11
-144.227
 21
234.245
  0
LINE
  8
0
 10
-144.227
 20
234.245
 11
-144.371
 21
234.471
  0
LINE
  8
0
 10
-144.371
 20
234.471
 11
-144.485
 21
234.714
  0
LINE
  8
0
 10
-144.485
 20
234.714
 11
-144.568
 21
234.969
  0
LINE
  8
0
 10
-144.568
 20
234.969
 11
-144.618
 21
235.232
  0
LINE
  8
0
 10
-144.618
 20
235.232
 11
-144.635
 21
235.5
  0
LINE
  8
0
 10
-144.635
 20
235.5
 11
-144.618
 21
235.768
  0
LINE
  8
0
 10
-144.618
 20
235.768
 11
-144.568
 21
236.031
  0
LINE
  8
0
 10
-144.568
 20
236.031
 11
-144.485
 21
236.286
  0
LINE
  8
0
 10
-144.485
 20
236.286
 11
-144.371
 21
236.529
  0
LINE
  8
0
 10
-144.371
 20
236.529
 11
-144.227
 21
236.755
  0
LINE
  8
0
 10
-144.227
 20
236.755
 11
-144.057
 21
236.962
  0
LINE
  8
0
 10
-144.057
 20
236.962
 11
-143.861
 21
237.145
  0
LINE
  8
0
 10
-143.861
 20
237.145
 11
-143.644
 21
237.303
  0
LINE
  8
0
 10
-143.644
 20
237.303
 11
-143.409
 21
237.432
  0
LINE
  8
0
 10
-143.409
 20
237.432
 11
-143.16
 21
237.531
  0
LINE
  8
0
 10
-143.16
 20
237.531
 11
-142.9
 21
237.597
  0
LINE
  8
0
 10
-142.9
 20
237.597
 11
-142.634
 21
237.631
  0
LINE
  8
0
 10
-142.634
 20
237.631
 11
-142.366
 21
237.631
  0
LINE
  8
0
 10
-142.366
 20
237.631
 11
-142.1
 21
237.597
  0
LINE
  8
0
 10
-142.1
 20
237.597
 11
-141.84
 21
237.531
  0
LINE
  8
0
 10
-141.84
 20
237.531
 11
-141.591
 21
237.432
  0
LINE
  8
0
 10
-141.591
 20
237.432
 11
-141.356
 21
237.303
  0
LINE
  8
0
 10
-141.356
 20
237.303
 11
-141.139
 21
237.145
  0
LINE
  8
0
 10
-141.139
 20
237.145
 11
-140.943
 21
236.962
  0
LINE
  8
0
 10
-140.943
 20
236.962
 11
-140.773
 21
236.755
  0
LINE
  8
0
 10
-140.773
 20
236.755
 11
-140.629
 21
236.529
  0
LINE
  8
0
 10
-140.629
 20
236.529
 11
-140.515
 21
236.286
  0
LINE
  8
0
 10
-140.515
 20
236.286
 11
-140.432
 21
236.031
  0
LINE
  8
0
 10
-140.432
 20
236.031
 11
-140.382
 21
235.768
  0
LINE
  8
0
 10
-140.382
 20
235.768
 11
-140.365
 21
235.5
  0
LINE
  8
0
 10
-140.365
 20
235.5
 11
-140.382
 21
235.232
  0
LINE
  8
0
 10
-140.382
 20
235.232
 11
-140.432
 21
234.969
  0
LINE
  8
0
 10
-140.432
 20
234.969
 11
-140.515
 21
234.714
  0
LINE
  8
0
 10
-140.515
 20
234.714
 11
-140.629
 21
234.471
  0
LINE
  8
0
 10
-140.629
 20
234.471
 11
-140.773
 21
234.245
  0
LINE
  8
0
 10
-140.773
 20
234.245
 11
-140.943
 21
234.038
  0
LINE
  8
0
 10
-140.943
 20
234.038
 11
-141.139
 21
233.855
  0
LINE
  8
0
 10
-141.139
 20
233.855
 11
-141.356
 21
233.697
  0
LINE
  8
0
 10
-141.356
 20
233.697
 11
-141.591
 21
233.568
  0
LINE
  8
0
 10
-141.591
 20
233.568
 11
-141.84
 21
233.469
  0
LINE
  8
0
 10
-141.84
 20
233.469
 11
-142.1
 21
233.403
  0
LINE
  8
0
 10
-142.1
 20
233.403
 11
-142.366
 21
233.369
  0
LINE
  8
0
 10
-142.366
 20
233.369
 11
-142.634
 21
233.369
  0
LINE
  8
0
 10
142.366
 20
158.369
 11
142.1
 21
158.403
  0
LINE
  8
0
 10
142.1
 20
158.403
 11
141.84
 21
158.469
  0
LINE
  8
0
 10
141.84
 20
158.469
 11
141.591
 21
158.568
  0
LINE
  8
0
 10
141.591
 20
158.568
 11
141.356
 21
158.697
  0
LINE
  8
0
 10
141.356
 20
158.697
 11
141.139
 21
158.855
  0
LINE
  8
0
 10
141.139
 20
158.855
 11
140.943
 21
159.038
  0
LINE
  8
0
 10
140.943
 20
159.038
 11
140.773
 21
159.245
  0
LINE
  8
0
 10
140.773
 20
159.245
 11
140.629
 21
159.471
  0
LINE
  8
0
 10
140.629
 20
159.471
 11
140.515
 21
159.714
  0
LINE
  8
0
 10
140.515
 20
159.714
 11
140.432
 21
159.969
  0
LINE
  8
0
 10
140.432
 20
159.969
 11
140.382
 21
160.232
  0
LINE
  8
0
 10
140.382
 20
160.232
 11
140.365
 21
160.5
  0
LINE
  8
0
 10
140.365
 20
160.5
 11
140.382
 21
160.768
  0
LINE
  8
0
 10
140.382
 20
160.768
 11
140.432
 21
161.031
  0
LINE
  8
0
 10
140.432
 20
161.031
 11
140.515
 21
161.286
  0
LINE
  8
0
 10
140.515
 20
161.286
 11
140.629
 21
161.529
  0
LINE
  8
0
 10
140.629
 20
161.529
 11
140.773
 21
161.755
  0
LINE
  8
0
 10
140.773
 20
161.755
 11
140.943
 21
161.962
  0
LINE
  8
0
 10
140.943
 20
161.962
 11
141.139
 21
162.145
  0
LINE
  8
0
 10
141.139
 20
162.145
 11
141.356
 21
162.303
  0
LINE
  8
0
 10
141.356
 20
162.303
 11
141.591
 21
162.432
  0
LINE
  8
0
 10
141.591
 20
162.432
 11
141.84
 21
162.531
  0
LINE
  8
0
 10
141.84
 20
162.531
 11
142.1
 21
162.597
  0
LINE
  8
0
 10
142.1
 20
162.597
 11
142.366
 21
162.631
  0
LINE
  8
0
 10
142.366
 20
162.631
 11
142.634
 21
162.631
  0
LINE
  8
0
 10
142.634
 20
162.631
 11
142.9
 21
162.597
  0
LINE
  8
0
 10
142.9
 20
162.597
 11
143.16
 21
162.531
  0
LINE
  8
0
 10
143.16
 20
162.531
 11
143.409
 21
162.432
  0
LINE
  8
0
 10
143.409
 20
162.432
 11
143.644
 21
162.303
  0
LINE
  8
0
 10
143.644
 20
162.303
 11
143.861
 21
162.145
  0
LINE
  8
0
 10
143.861
 20
162.145
 11
144.057
 21
161.962
  0
LINE
  8
0
 10
144.057
 20
161.962
 11
144.227
 21
161.755
  0
LINE
  8
0
 10
144.227
 20
161.755
 11
144.371
 21
161.529
  0
LINE
  8
0
 10
144.371
 20
161.529
 11
144.485
 21
161.286
  0
LINE
  8
0
 10
144.485
 20
161.286
 11
144.568
 21
161.031
  0
LINE
  8
0
 10
144.568
 20
161.031
 11
144.618
 21
160.768
  0
LINE
  8
0
 10
144.618
 20
160.768
 11
144.635
 21
160.5
  0
LINE
  8
0
 10
144.635
 20
160.5
 11
144.618
 21
160.232
  0
LINE
  8
0
 10
144.618
 20
160.232
 11
144.568
 21
159.969
  0
LINE
  8
0
 10
144.568
 20
159.969
 11
144.485
 21
159.714
  0
LINE
  8
0
 10
144.485
 20
159.714
 11
144.371
 21
159.471
  0
LINE
  8
0
 10
144.371
 20
159.471
 11
144.227
 21
159.245
  0
LINE
  8
0
 10
144.227
 20
159.245
 11
144.057
 21
159.038
  0
LINE
  8
0
 10
144.057
 20
159.038
 11
143.861
 21
158.855
  0
LINE
  8
0
 10
143.861
 20
158.855
 11
143.644
 21
158.697
  0
LINE
  8
0
 10
143.644
 20
158.697
 11
143.409
 21
158.568
  0
LINE
  8
0
 10
143.409
 20
158.568
 11
143.16
 21
158.469
  0
LINE
  8
0
 10
143.16
 20
158.469
 11
142.9
 21
158.403
  0
LINE
  8
0
 10
142.9
 20
158.403
 11
142.634
 21
158.369
  0
LINE
  8
0
 10
142.634
 20
158.369
 11
142.366
 21
158.369
  0
LINE
  8
0
 10
-142.634
 20
158.369
 11
-142.9
 21
158.403
  0
LINE
  8
0
 10
-142.9
 20
158.403
 11
-143.16
 21
158.469
  0
LINE
  8
0
 10
-143.16
 20
158.469
 11
-143.409
 21
158.568
  0
LINE
  8
0
 10
-143.409
 20
158.568
 11
-143.644
 21
158.697
  0
LINE
  8
0
 10
-143.644
 20
158.697
 11
-143.861
 21
158.855
  0
LINE
  8
0
 10
-143.861
 20
158.855
 11
-144.057
 21
159.038
  0
LINE
  8
0
 10
-144.057
 20
159.038
 11
-144.227
 21
159.245
  0
LINE
  8
0
 10
-144.227
 20
159.245
 11
-144.371
 21
159.471
  0
LINE
  8
0
 10
-144.371
 20
159.471
 11
-144.485
 21
159.714
  0
LINE
  8
0
 10
-144.485
 20
159.714
 11
-144.568
 21
159.969
  0
LINE
  8
0
 10
-144.568
 20
159.969
 11
-144.618
 21
160.232
  0
LINE
  8
0
 10
-144.618
 20
160.232
 11
-144.635
 21
160.5
  0
LINE
  8
0
 10
-144.635
 20
160.5
 11
-144.618
 21
160.768
  0
LINE
  8
0
 10
-144.618
 20
160.768
 11
-144.568
 21
161.031
  0
LINE
  8
0
 10
-144.568
 20
161.031
 11
-144.485
 21
161.286
  0
LINE
  8
0
 10
-144.485
 20
161.286
 11
-144.371
 21
161.529
  0
LINE
  8
0
 10
-144.371
 20
161.529
 11
-144.227
 21
161.755
  0
LINE
  8
0
 10
-144.227
 20
161.755
 11
-144.057
 21
161.962
  0
LINE
  8
0
 10
-144.057
 20
161.962
 11
-143.861
 21
162.145
  0
LINE
  8
0
 10
-143.861
 20
162.145
 11
-143.644
 21
162.303
  0
LINE
  8
0
 10
-143.644
 20
162.303
 11
-143.409
 21
162.432
  0
LINE
  8
0
 10
-143.409
 20
162.432
 11
-143.16
 21
162.531
  0
LINE
  8
0
 10
-143.16
 20
162.531
 11
-142.9
 21
162.597
  0
LINE
  8
0
 10
-142.9
 20
162.597
 11
-142.634
 21
162.631
  0
LINE
  8
0
 10
-142.634
 20
162.631
 11
-142.366
 21
162.631
  0
LINE
  8
0
 10
-142.366
 20
162.631
 11
-142.1
 21
162.597
  0
LINE
  8
0
 10
-142.1
 20
162.597
 11
-141.84
 21
162.531
  0
LINE
  8
0
 10
-141.84
 20
162.531
 11
-141.591
 21
162.432
  0
LINE
  8
0
 10
-141.591
 20
162.432
 11
-141.356
 21
162.303
  0
LINE
  8
0
 10
-141.356
 20
162.303
 11
-141.139
 21
162.145
  0
LINE
  8
0
 10
-141.139
 20
162.145
 11
-140.943
 21
161.962
  0
LINE
  8
0
 10
-140.943
 20
161.962
 11
-140.773
 21
161.755
  0
LINE
  8
0
 10
-140.773
 20
161.755
 11
-140.629
 21
161.529
  0
LINE
  8
0
 10
-140.629
 20
161.529
 11
-140.515
 21
161.286
  0
LINE
  8
0
 10
-140.515
 20
161.286
 11
-140.432
 21
161.031
  0
LINE
  8
0
 10
-140.432
 20
161.031
 11
-140.382
 21
160.768
  0
LINE
  8
0
 10
-140.382
 20
160.768
 11
-140.365
 21
160.5
  0
LINE
  8
0
 10
-140.365
 20
160.5
 11
-140.382
 21
160.232
  0
LINE
  8
0
 10
-140.382
 20
160.232
 11
-140.432
 21
159.969
  0
LINE
  8
0
 10
-140.432
 20
159.969
 11
-140.515
 21
159.714
  0
LINE
  8
0
 10
-140.515
 20
159.714
 11
-140.629
 21
159.471
  0
LINE
  8
0
 10
-140.629
 20
159.471
 11
-140.773
 21
159.245
  0
LINE
  8
0
 10
-140.773
 20
159.245
 11
-140.943
 21
159.038
  0
LINE
  8
0
 10
-140.943
 20
159.038
 11
-141.139
 21
158.855
  0
LINE
  8
0
 10
-141.139
 20
158.855
 11
-141.356
 21
158.697
  0
LINE
  8
0
 10
-141.356
 20
158.697
 11
-141.591
 21
158.568
  0
LINE
  8
0
 10
-141.591
 20
158.568
 11
-141.84
 21
158.469
  0
LINE
  8
0
 10
-141.84
 20
158.469
 11
-142.1
 21
158.403
  0
LINE
  8
0
 10
-142.1
 20
158.403
 11
-142.366
 21
158.369
  0
LINE
  8
0
 10
-142.366
 20
158.369
 11
-142.634
 21
158.369
  0
ENDSEC
  0
SECTION
  2
OBJECTS
  0
DICTIONARY
  0
ENDSEC
  0
EOF
