<?xml version="1.0" standalone="no"?>
<!DOCTYPE svg PUBLIC "-//W3C//DTD SVG 1.1//EN" "http://www.w3.org/Graphics/SVG/1.1/DTD/svg11.dtd">
<svg width="242mm" height="568mm" viewBox="-122 -932 242 568" xmlns="http://www.w3.org/2000/svg" version="1.1">
<title>OpenSCAD Model</title>
<path d="
M -118.5,-797.941 L -118.187,-797.647 L -117.679,-797.278 L -117.129,-796.976 L -116.545,-796.745 L -115.937,-796.589
 L -115.314,-796.51 L 115.314,-796.51 L 115.937,-796.589 L 116.545,-796.745 L 117.129,-796.976 L 117.679,-797.278
 L 118.187,-797.647 L 118.645,-798.077 L 119.045,-798.561 L 119.382,-799.091 L 119.649,-799.659 L 119.843,-800.257
 L 119.961,-800.873 L 120,-801.5 L 120,-926.5 L 119.961,-927.127 L 119.843,-927.743 L 119.649,-928.341
 L 119.382,-928.909 L 119.045,-929.439 L 118.645,-929.923 L 118.187,-930.353 L 117.679,-930.722 L 117.129,-931.024
 L 116.545,-931.255 L 115.937,-931.411 L 115.314,-931.49 L -115.314,-931.49 L -115.937,-931.411 L -116.545,-931.255
 L -117.129,-931.024 L -117.679,-930.722 L -118.187,-930.353 L -118.5,-930.059 L -118.5,-931.49 L -121.5,-931.49
 L -121.5,-796.51 L -118.5,-796.51 z
M -114.751,-798.008 L -115.25,-798.071 L -115.736,-798.196 L -116.203,-798.381 L -116.643,-798.623 L -117.05,-798.918
 L -117.416,-799.262 L -117.736,-799.649 L -118.005,-800.073 L -118.219,-800.528 L -118.374,-801.005 L -118.468,-801.499
 L -118.5,-802 L -118.5,-926 L -118.468,-926.501 L -118.374,-926.995 L -118.219,-927.472 L -118.005,-927.927
 L -117.736,-928.351 L -117.416,-928.738 L -117.05,-929.082 L -116.643,-929.377 L -116.203,-929.619 L -115.736,-929.804
 L -115.25,-929.929 L -114.751,-929.992 L 114.751,-929.992 L 115.25,-929.929 L 115.736,-929.804 L 116.203,-929.619
 L 116.643,-929.377 L 117.05,-929.082 L 117.416,-928.738 L 117.736,-928.351 L 118.005,-927.927 L 118.219,-927.472
 L 118.374,-926.995 L 118.468,-926.501 L 118.5,-926 L 118.5,-802 L 118.468,-801.499 L 118.374,-801.005
 L 118.219,-800.528 L 118.005,-800.073 L 117.736,-799.649 L 117.416,-799.262 L 117.05,-798.918 L 116.643,-798.623
 L 116.203,-798.381 L 115.736,-798.196 L 115.25,-798.071 L 114.751,-798.008 z
M -118.5,-653.941 L -118.187,-653.647 L -117.679,-653.278 L -117.129,-652.976 L -116.545,-652.745 L -115.937,-652.589
 L -115.314,-652.51 L 115.314,-652.51 L 115.937,-652.589 L 116.545,-652.745 L 117.129,-652.976 L 117.679,-653.278
 L 118.187,-653.647 L 118.645,-654.077 L 119.045,-654.561 L 119.382,-655.091 L 119.649,-655.659 L 119.843,-656.257
 L 119.961,-656.873 L 120,-657.5 L 120,-782.5 L 119.961,-783.127 L 119.843,-783.743 L 119.649,-784.341
 L 119.382,-784.909 L 119.045,-785.439 L 118.645,-785.923 L 118.187,-786.353 L 117.679,-786.722 L 117.129,-787.024
 L 116.545,-787.255 L 115.937,-787.411 L 115.314,-787.49 L -115.314,-787.49 L -115.937,-787.411 L -116.545,-787.255
 L -117.129,-787.024 L -117.679,-786.722 L -118.187,-786.353 L -118.5,-786.059 L -118.5,-787.49 L -121.5,-787.49
 L -121.5,-652.51 L -118.5,-652.51 z
M -114.743,-654.135 L -115.226,-654.196 L -115.697,-654.317 L -116.149,-654.496 L -116.575,-654.73 L -116.969,-655.016
 L -117.323,-655.349 L -117.633,-655.724 L -117.894,-656.134 L -118.101,-656.574 L -118.251,-657.037 L -118.342,-657.515
 L -118.373,-658 L -118.373,-782 L -118.342,-782.485 L -118.251,-782.963 L -118.101,-783.426 L -117.894,-783.866
 L -117.633,-784.276 L -117.323,-784.651 L -116.969,-784.984 L -116.575,-785.27 L -116.149,-785.504 L -115.697,-785.683
 L -115.226,-785.804 L -114.743,-785.865 L 114.743,-785.865 L 115.226,-785.804 L 115.697,-785.683 L 116.149,-785.504
 L 116.575,-785.27 L 116.969,-784.984 L 117.323,-784.651 L 117.633,-784.276 L 117.894,-783.866 L 118.101,-783.426
 L 118.251,-782.963 L 118.342,-782.485 L 118.373,-782 L 118.373,-658 L 118.342,-657.515 L 118.251,-657.037
 L 118.101,-656.574 L 117.894,-656.134 L 117.633,-655.724 L 117.323,-655.349 L 116.969,-655.016 L 116.575,-654.73
 L 116.149,-654.496 L 115.697,-654.317 L 115.226,-654.196 L 114.743,-654.135 z
M 115.937,-508.589 L 116.545,-508.745 L 117.129,-508.976 L 117.679,-509.278 L 118.187,-509.647 L 118.645,-510.077
 L 119.045,-510.561 L 119.382,-511.091 L 119.649,-511.659 L 119.843,-512.257 L 119.961,-512.873 L 120,-513.5
 L 120,-638.5 L 119.961,-639.127 L 119.843,-639.743 L 119.649,-640.341 L 119.382,-640.909 L 119.045,-641.439
 L 118.645,-641.923 L 118.187,-642.353 L 117.679,-642.722 L 117.129,-643.024 L 116.545,-643.255 L 115.937,-643.411
 L 115.314,-643.49 L -115.314,-643.49 L -115.937,-643.411 L -116.545,-643.255 L -117.129,-643.024 L -117.679,-642.722
 L -118.187,-642.353 L -118.5,-642.059 L -118.5,-643.115 L -121.5,-643.115 L -121.5,-508.885 L -118.5,-508.885
 L -118.5,-509.941 L -118.187,-509.647 L -117.679,-509.278 L -117.129,-508.976 L -116.545,-508.745 L -115.937,-508.589
 L -115.314,-508.51 L 115.314,-508.51 z
M 112.349,-633.605 L 112.05,-633.643 L 111.758,-633.717 L 111.478,-633.828 L 111.214,-633.974 L 110.97,-634.151
 L 110.75,-634.357 L 110.558,-634.589 L 110.397,-634.844 L 110.269,-635.117 L 110.175,-635.403 L 110.119,-635.699
 L 110.1,-636 L 110.119,-636.301 L 110.175,-636.597 L 110.269,-636.883 L 110.397,-637.156 L 110.558,-637.411
 L 110.75,-637.643 L 110.97,-637.849 L 111.214,-638.026 L 111.478,-638.172 L 111.758,-638.283 L 112.05,-638.357
 L 112.349,-638.395 L 112.651,-638.395 L 112.95,-638.357 L 113.242,-638.283 L 113.522,-638.172 L 113.786,-638.026
 L 114.03,-637.849 L 114.25,-637.643 L 114.442,-637.411 L 114.603,-637.156 L 114.731,-636.883 L 114.825,-636.597
 L 114.881,-636.301 L 114.9,-636 L 114.881,-635.699 L 114.825,-635.403 L 114.731,-635.117 L 114.603,-634.844
 L 114.442,-634.589 L 114.25,-634.357 L 114.03,-634.151 L 113.786,-633.974 L 113.522,-633.828 L 113.242,-633.717
 L 112.95,-633.643 L 112.651,-633.605 z
M -112.651,-633.605 L -112.95,-633.643 L -113.242,-633.717 L -113.522,-633.828 L -113.786,-633.974 L -114.03,-634.151
 L -114.25,-634.357 L -114.442,-634.589 L -114.603,-634.844 L -114.731,-635.117 L -114.825,-635.403 L -114.881,-635.699
 L -114.9,-636 L -114.881,-636.301 L -114.825,-636.597 L -114.731,-636.883 L -114.603,-637.156 L -114.442,-637.411
 L -114.25,-637.643 L -114.03,-637.849 L -113.786,-638.026 L -113.522,-638.172 L -113.242,-638.283 L -112.95,-638.357
 L -112.651,-638.395 L -112.349,-638.395 L -112.05,-638.357 L -111.758,-638.283 L -111.478,-638.172 L -111.214,-638.026
 L -110.97,-637.849 L -110.75,-637.643 L -110.558,-637.411 L -110.397,-637.156 L -110.269,-636.883 L -110.175,-636.597
 L -110.119,-636.301 L -110.1,-636 L -110.119,-635.699 L -110.175,-635.403 L -110.269,-635.117 L -110.397,-634.844
 L -110.558,-634.589 L -110.75,-634.357 L -110.97,-634.151 L -111.214,-633.974 L -111.478,-633.828 L -111.758,-633.717
 L -112.05,-633.643 L -112.349,-633.605 z
M -112.651,-513.605 L -112.95,-513.643 L -113.242,-513.717 L -113.522,-513.828 L -113.786,-513.974 L -114.03,-514.151
 L -114.25,-514.357 L -114.442,-514.589 L -114.603,-514.844 L -114.731,-515.117 L -114.825,-515.403 L -114.881,-515.699
 L -114.9,-516 L -114.881,-516.301 L -114.825,-516.597 L -114.731,-516.883 L -114.603,-517.156 L -114.442,-517.411
 L -114.25,-517.643 L -114.03,-517.849 L -113.786,-518.026 L -113.522,-518.172 L -113.242,-518.283 L -112.95,-518.357
 L -112.651,-518.395 L -112.349,-518.395 L -112.05,-518.357 L -111.758,-518.283 L -111.478,-518.172 L -111.214,-518.026
 L -110.97,-517.849 L -110.75,-517.643 L -110.558,-517.411 L -110.397,-517.156 L -110.269,-516.883 L -110.175,-516.597
 L -110.119,-516.301 L -110.1,-516 L -110.119,-515.699 L -110.175,-515.403 L -110.269,-515.117 L -110.397,-514.844
 L -110.558,-514.589 L -110.75,-514.357 L -110.97,-514.151 L -111.214,-513.974 L -111.478,-513.828 L -111.758,-513.717
 L -112.05,-513.643 L -112.349,-513.605 z
M 112.349,-513.605 L 112.05,-513.643 L 111.758,-513.717 L 111.478,-513.828 L 111.214,-513.974 L 110.97,-514.151
 L 110.75,-514.357 L 110.558,-514.589 L 110.397,-514.844 L 110.269,-515.117 L 110.175,-515.403 L 110.119,-515.699
 L 110.1,-516 L 110.119,-516.301 L 110.175,-516.597 L 110.269,-516.883 L 110.397,-517.156 L 110.558,-517.411
 L 110.75,-517.643 L 110.97,-517.849 L 111.214,-518.026 L 111.478,-518.172 L 111.758,-518.283 L 112.05,-518.357
 L 112.349,-518.395 L 112.651,-518.395 L 112.95,-518.357 L 113.242,-518.283 L 113.522,-518.172 L 113.786,-518.026
 L 114.03,-517.849 L 114.25,-517.643 L 114.442,-517.411 L 114.603,-517.156 L 114.731,-516.883 L 114.825,-516.597
 L 114.881,-516.301 L 114.9,-516 L 114.881,-515.699 L 114.825,-515.403 L 114.731,-515.117 L 114.603,-514.844
 L 114.442,-514.589 L 114.25,-514.357 L 114.03,-514.151 L 113.786,-513.974 L 113.522,-513.828 L 113.242,-513.717
 L 112.95,-513.643 L 112.651,-513.605 z
M 115.937,-364.589 L 116.545,-364.745 L 117.129,-364.976 L 117.679,-365.278 L 118.187,-365.647 L 118.645,-366.077
 L 119.045,-366.561 L 119.382,-367.091 L 119.649,-367.659 L 119.843,-368.257 L 119.961,-368.873 L 120,-369.5
 L 120,-494.5 L 119.961,-495.127 L 119.843,-495.743 L 119.649,-496.341 L 119.382,-496.909 L 119.045,-497.439
 L 118.645,-497.923 L 118.187,-498.353 L 117.679,-498.722 L 117.129,-499.024 L 116.545,-499.255 L 115.937,-499.411
 L 115.314,-499.49 L -115.314,-499.49 L -115.937,-499.411 L -116.545,-499.255 L -117.129,-499.024 L -117.679,-498.722
 L -118.187,-498.353 L -118.645,-497.923 L -119.045,-497.439 L -119.382,-496.909 L -119.649,-496.341 L -119.843,-495.743
 L -119.9,-495.444 L -121.5,-495.444 L -121.5,-368.556 L -119.9,-368.556 L -119.843,-368.257 L -119.649,-367.659
 L -119.382,-367.091 L -119.045,-366.561 L -118.645,-366.077 L -118.187,-365.647 L -117.679,-365.278 L -117.129,-364.976
 L -116.545,-364.745 L -115.937,-364.589 L -115.314,-364.51 L 115.314,-364.51 z
M -112.613,-490.204 L -112.837,-490.232 L -113.056,-490.288 L -113.266,-490.371 L -113.464,-490.48 L -113.647,-490.613
 L -113.812,-490.768 L -113.956,-490.942 L -114.077,-491.133 L -114.174,-491.337 L -114.243,-491.552 L -114.286,-491.774
 L -114.3,-492 L -114.286,-492.226 L -114.243,-492.448 L -114.174,-492.663 L -114.077,-492.867 L -113.956,-493.058
 L -113.812,-493.232 L -113.647,-493.387 L -113.464,-493.52 L -113.266,-493.629 L -113.056,-493.712 L -112.837,-493.768
 L -112.613,-493.796 L -112.387,-493.796 L -112.163,-493.768 L -111.944,-493.712 L -111.734,-493.629 L -111.536,-493.52
 L -111.353,-493.387 L -111.188,-493.232 L -111.044,-493.058 L -110.923,-492.867 L -110.826,-492.663 L -110.757,-492.448
 L -110.714,-492.226 L -110.7,-492 L -110.714,-491.774 L -110.757,-491.552 L -110.826,-491.337 L -110.923,-491.133
 L -111.044,-490.942 L -111.188,-490.768 L -111.353,-490.613 L -111.536,-490.48 L -111.734,-490.371 L -111.944,-490.288
 L -112.163,-490.232 L -112.387,-490.204 z
M 112.387,-490.204 L 112.163,-490.232 L 111.944,-490.288 L 111.734,-490.371 L 111.536,-490.48 L 111.353,-490.613
 L 111.188,-490.768 L 111.044,-490.942 L 110.923,-491.133 L 110.826,-491.337 L 110.757,-491.552 L 110.714,-491.774
 L 110.7,-492 L 110.714,-492.226 L 110.757,-492.448 L 110.826,-492.663 L 110.923,-492.867 L 111.044,-493.058
 L 111.188,-493.232 L 111.353,-493.387 L 111.536,-493.52 L 111.734,-493.629 L 111.944,-493.712 L 112.163,-493.768
 L 112.387,-493.796 L 112.613,-493.796 L 112.837,-493.768 L 113.056,-493.712 L 113.266,-493.629 L 113.464,-493.52
 L 113.647,-493.387 L 113.812,-493.232 L 113.956,-493.058 L 114.077,-492.867 L 114.174,-492.663 L 114.243,-492.448
 L 114.286,-492.226 L 114.3,-492 L 114.286,-491.774 L 114.243,-491.552 L 114.174,-491.337 L 114.077,-491.133
 L 113.956,-490.942 L 113.812,-490.768 L 113.647,-490.613 L 113.464,-490.48 L 113.266,-490.371 L 113.056,-490.288
 L 112.837,-490.232 L 112.613,-490.204 z
M -112.613,-370.204 L -112.837,-370.232 L -113.056,-370.288 L -113.266,-370.371 L -113.464,-370.48 L -113.647,-370.613
 L -113.812,-370.768 L -113.956,-370.942 L -114.077,-371.133 L -114.174,-371.337 L -114.243,-371.552 L -114.286,-371.774
 L -114.3,-372 L -114.286,-372.226 L -114.243,-372.448 L -114.174,-372.663 L -114.077,-372.867 L -113.956,-373.058
 L -113.812,-373.232 L -113.647,-373.387 L -113.464,-373.52 L -113.266,-373.629 L -113.056,-373.712 L -112.837,-373.768
 L -112.613,-373.796 L -112.387,-373.796 L -112.163,-373.768 L -111.944,-373.712 L -111.734,-373.629 L -111.536,-373.52
 L -111.353,-373.387 L -111.188,-373.232 L -111.044,-373.058 L -110.923,-372.867 L -110.826,-372.663 L -110.757,-372.448
 L -110.714,-372.226 L -110.7,-372 L -110.714,-371.774 L -110.757,-371.552 L -110.826,-371.337 L -110.923,-371.133
 L -111.044,-370.942 L -111.188,-370.768 L -111.353,-370.613 L -111.536,-370.48 L -111.734,-370.371 L -111.944,-370.288
 L -112.163,-370.232 L -112.387,-370.204 z
M 112.387,-370.204 L 112.163,-370.232 L 111.944,-370.288 L 111.734,-370.371 L 111.536,-370.48 L 111.353,-370.613
 L 111.188,-370.768 L 111.044,-370.942 L 110.923,-371.133 L 110.826,-371.337 L 110.757,-371.552 L 110.714,-371.774
 L 110.7,-372 L 110.714,-372.226 L 110.757,-372.448 L 110.826,-372.663 L 110.923,-372.867 L 111.044,-373.058
 L 111.188,-373.232 L 111.353,-373.387 L 111.536,-373.52 L 111.734,-373.629 L 111.944,-373.712 L 112.163,-373.768
 L 112.387,-373.796 L 112.613,-373.796 L 112.837,-373.768 L 113.056,-373.712 L 113.266,-373.629 L 113.464,-373.52
 L 113.647,-373.387 L 113.812,-373.232 L 113.956,-373.058 L 114.077,-372.867 L 114.174,-372.663 L 114.243,-372.448
 L 114.286,-372.226 L 114.3,-372 L 114.286,-371.774 L 114.243,-371.552 L 114.174,-371.337 L 114.077,-371.133
 L 113.956,-370.942 L 113.812,-370.768 L 113.647,-370.613 L 113.464,-370.48 L 113.266,-370.371 L 113.056,-370.288
 L 112.837,-370.232 L 112.613,-370.204 z
" stroke="black" fill="lightgray" stroke-width="0.5"/>
</svg>
