<?xml version="1.0" standalone="no"?>
<!DOCTYPE svg PUBLIC "-//W3C//DTD SVG 1.1//EN" "http://www.w3.org/Graphics/SVG/1.1/DTD/svg11.dtd">
<svg width="84mm" height="203mm" viewBox="-22 -174 84 203" xmlns="http://www.w3.org/2000/svg" version="1.1">
<title>OpenSCAD Model</title>
<path d="
M 22,-149 L 21.9606,-149.627 L 21.8429,-150.243 L 21.6489,-150.841 L 21.3815,-151.409 L 21.0451,-151.939
 L 20.6448,-152.423 L 20.1871,-152.853 L 19.6791,-153.222 L 19.1289,-153.524 L 18.5451,-153.755 L 17.9369,-153.911
 L 17.3139,-153.99 L 8.91696,-153.99 L 9.70819,-154.947 L 10.5157,-156.219 L 11.1573,-157.583 L 11.623,-159.016
 L 11.9054,-160.496 L 12,-162 L 11.9054,-163.504 L 11.623,-164.984 L 11.1573,-166.417 L 10.5157,-167.781
 L 9.70819,-169.053 L 8.74762,-170.215 L 7.64908,-171.246 L 6.42992,-172.132 L 5.10934,-172.858 L 3.70819,-173.413
 L 2.24857,-173.787 L 0.753479,-173.976 L -0.753479,-173.976 L -2.24857,-173.787 L -3.70819,-173.413 L -5.10934,-172.858
 L -6.42992,-172.132 L -7.64908,-171.246 L -8.74762,-170.215 L -9.70819,-169.053 L -10.5157,-167.781 L -11.1573,-166.417
 L -11.623,-164.984 L -11.9054,-163.504 L -12,-162 L -11.9054,-160.496 L -11.623,-159.016 L -11.1573,-157.583
 L -10.5157,-156.219 L -9.70819,-154.947 L -8.91696,-153.99 L -17.3139,-153.99 L -17.9369,-153.911 L -18.5451,-153.755
 L -19.1289,-153.524 L -19.6791,-153.222 L -20.1871,-152.853 L -20.6448,-152.423 L -21.0451,-151.939 L -21.3815,-151.409
 L -21.6489,-150.841 L -21.8429,-150.243 L -21.9606,-149.627 L -22,-149 L -22,-133.5 L 22,-133.5
 z
M -0.470917,-154.515 L -1.40535,-154.633 L -2.31763,-154.867 L -3.19334,-155.214 L -4.01869,-155.668 L -4.78067,-156.221
 L -5.46725,-156.866 L -6.06763,-157.592 L -6.5723,-158.387 L -6.97331,-159.239 L -7.26436,-160.135 L -7.44086,-161.06
 L -7.5,-162 L -7.44086,-162.94 L -7.26436,-163.865 L -6.97331,-164.761 L -6.5723,-165.613 L -6.06763,-166.408
 L -5.46725,-167.134 L -4.78067,-167.779 L -4.01869,-168.332 L -3.19334,-168.786 L -2.31763,-169.133 L -1.40535,-169.367
 L -0.470917,-169.485 L 0.470917,-169.485 L 1.40535,-169.367 L 2.31763,-169.133 L 3.19334,-168.786 L 4.01869,-168.332
 L 4.78067,-167.779 L 5.46725,-167.134 L 6.06763,-166.408 L 6.5723,-165.613 L 6.97331,-164.761 L 7.26436,-163.865
 L 7.44086,-162.94 L 7.5,-162 L 7.44086,-161.06 L 7.26436,-160.135 L 6.97331,-159.239 L 6.5723,-158.387
 L 6.06763,-157.592 L 5.46725,-156.866 L 4.78067,-156.221 L 4.01869,-155.668 L 3.19334,-155.214 L 2.31763,-154.867
 L 1.40535,-154.633 L 0.470917,-154.515 z
M 0.749512,-158.071 L 1.23605,-158.196 L 1.70311,-158.381 L 2.1433,-158.623 L 2.54968,-158.918 L 2.91586,-159.262
 L 3.23605,-159.649 L 3.50522,-160.073 L 3.7191,-160.528 L 3.87433,-161.005 L 3.96844,-161.499 L 4,-162
 L 3.96844,-162.501 L 3.87433,-162.995 L 3.7191,-163.472 L 3.50522,-163.927 L 3.23605,-164.351 L 2.91586,-164.738
 L 2.54968,-165.082 L 2.1433,-165.377 L 1.70311,-165.619 L 1.23605,-165.804 L 0.749512,-165.929 L 0.25116,-165.992
 L -0.25116,-165.992 L -0.749512,-165.929 L -1.23605,-165.804 L -1.70311,-165.619 L -2.1433,-165.377 L -2.54968,-165.082
 L -2.91586,-164.738 L -3.23605,-164.351 L -3.50522,-163.927 L -3.7191,-163.472 L -3.87433,-162.995 L -3.96844,-162.501
 L -4,-162 L -3.96844,-161.499 L -3.87433,-161.005 L -3.7191,-160.528 L -3.50522,-160.073 L -3.23605,-159.649
 L -2.91586,-159.262 L -2.54968,-158.918 L -2.1433,-158.623 L -1.70311,-158.381 L -1.23605,-158.196 L -0.749512,-158.071
 L -0.25116,-158.008 L 0.25116,-158.008 z
M -0.18837,-159.006 L -0.562134,-159.053 L -0.927048,-159.147 L -1.27733,-159.286 L -1.60747,-159.467 L -1.91226,-159.688
 L -2.1869,-159.946 L -2.42705,-160.237 L -2.62891,-160.555 L -2.78932,-160.896 L -2.90575,-161.254 L -2.97633,-161.624
 L -3,-162 L -2.97633,-162.376 L -2.90575,-162.746 L -2.78932,-163.104 L -2.62891,-163.445 L -2.42705,-163.763
 L -2.1869,-164.054 L -1.91226,-164.312 L -1.60747,-164.533 L -1.27733,-164.714 L -0.927048,-164.853 L -0.562134,-164.947
 L -0.18837,-164.994 L 0.18837,-164.994 L 0.562134,-164.947 L 0.927048,-164.853 L 1.27733,-164.714 L 1.60747,-164.533
 L 1.91226,-164.312 L 2.1869,-164.054 L 2.42705,-163.763 L 2.62891,-163.445 L 2.78932,-163.104 L 2.90575,-162.746
 L 2.97633,-162.376 L 3,-162 L 2.97633,-161.624 L 2.90575,-161.254 L 2.78932,-160.896 L 2.62891,-160.555
 L 2.42705,-160.237 L 2.1869,-159.946 L 1.91226,-159.688 L 1.60747,-159.467 L 1.27733,-159.286 L 0.927048,-159.147
 L 0.562134,-159.053 L 0.18837,-159.006 z
M 14.8116,-144.006 L 14.4379,-144.053 L 14.0729,-144.147 L 13.7227,-144.286 L 13.3925,-144.467 L 13.0877,-144.688
 L 12.8131,-144.946 L 12.5729,-145.237 L 12.3711,-145.555 L 12.2107,-145.896 L 12.0942,-146.254 L 12.0237,-146.624
 L 12,-147 L 12.0237,-147.376 L 12.0942,-147.746 L 12.2107,-148.104 L 12.3711,-148.445 L 12.5729,-148.763
 L 12.8131,-149.054 L 13.0877,-149.312 L 13.3925,-149.533 L 13.7227,-149.714 L 14.0729,-149.853 L 14.4379,-149.947
 L 14.8116,-149.994 L 15.1884,-149.994 L 15.5621,-149.947 L 15.927,-149.853 L 16.2773,-149.714 L 16.6075,-149.533
 L 16.9123,-149.312 L 17.1869,-149.054 L 17.427,-148.763 L 17.6289,-148.445 L 17.7893,-148.104 L 17.9057,-147.746
 L 17.9763,-147.376 L 18,-147 L 17.9763,-146.624 L 17.9057,-146.254 L 17.7893,-145.896 L 17.6289,-145.555
 L 17.427,-145.237 L 17.1869,-144.946 L 16.9123,-144.688 L 16.6075,-144.467 L 16.2773,-144.286 L 15.927,-144.147
 L 15.5621,-144.053 L 15.1884,-144.006 z
M -15.1884,-144.006 L -15.5621,-144.053 L -15.927,-144.147 L -16.2773,-144.286 L -16.6075,-144.467 L -16.9123,-144.688
 L -17.1869,-144.946 L -17.427,-145.237 L -17.6289,-145.555 L -17.7893,-145.896 L -17.9057,-146.254 L -17.9763,-146.624
 L -18,-147 L -17.9763,-147.376 L -17.9057,-147.746 L -17.7893,-148.104 L -17.6289,-148.445 L -17.427,-148.763
 L -17.1869,-149.054 L -16.9123,-149.312 L -16.6075,-149.533 L -16.2773,-149.714 L -15.927,-149.853 L -15.5621,-149.947
 L -15.1884,-149.994 L -14.8116,-149.994 L -14.4379,-149.947 L -14.0729,-149.853 L -13.7227,-149.714 L -13.3925,-149.533
 L -13.0877,-149.312 L -12.8131,-149.054 L -12.5729,-148.763 L -12.3711,-148.445 L -12.2107,-148.104 L -12.0942,-147.746
 L -12.0237,-147.376 L -12,-147 L -12.0237,-146.624 L -12.0942,-146.254 L -12.2107,-145.896 L -12.3711,-145.555
 L -12.5729,-145.237 L -12.8131,-144.946 L -13.0877,-144.688 L -13.3925,-144.467 L -13.7227,-144.286 L -14.0729,-144.147
 L -14.4379,-144.053 L -14.8116,-144.006 z
M -0.18837,-144.006 L -0.562134,-144.053 L -0.927048,-144.147 L -1.27733,-144.286 L -1.60747,-144.467 L -1.91226,-144.688
 L -2.1869,-144.946 L -2.42705,-145.237 L -2.62891,-145.555 L -2.78932,-145.896 L -2.90575,-146.254 L -2.97633,-146.624
 L -3,-147 L -2.97633,-147.376 L -2.90575,-147.746 L -2.78932,-148.104 L -2.62891,-148.445 L -2.42705,-148.763
 L -2.1869,-149.054 L -1.91226,-149.312 L -1.60747,-149.533 L -1.27733,-149.714 L -0.927048,-149.853 L -0.562134,-149.947
 L -0.18837,-149.994 L 0.18837,-149.994 L 0.562134,-149.947 L 0.927048,-149.853 L 1.27733,-149.714 L 1.60747,-149.533
 L 1.91226,-149.312 L 2.1869,-149.054 L 2.42705,-148.763 L 2.62891,-148.445 L 2.78932,-148.104 L 2.90575,-147.746
 L 2.97633,-147.376 L 3,-147 L 2.97633,-146.624 L 2.90575,-146.254 L 2.78932,-145.896 L 2.62891,-145.555
 L 2.42705,-145.237 L 2.1869,-144.946 L 1.91226,-144.688 L 1.60747,-144.467 L 1.27733,-144.286 L 0.927048,-144.147
 L 0.562134,-144.053 L 0.18837,-144.006 z
M 7.37447,-144.605 L 7.34929,-144.605 L 7.22467,-144.62 L 7.09975,-144.634 L 7.07524,-144.639 L 7.05028,-144.643
 L 6.92862,-144.674 L 6.80632,-144.702 L 6.78273,-144.711 L 6.75835,-144.717 L 6.64157,-144.764 L 6.52382,-144.807
 L 6.50151,-144.819 L 6.47812,-144.828 L 6.36806,-144.889 L 6.25673,-144.947 L 6.23607,-144.962 L 6.214,-144.974
 L 6.11238,-145.047 L 6.00923,-145.119 L 5.99054,-145.136 L 5.97017,-145.151 L 5.87862,-145.237 L 5.78526,-145.321
 L 5.76881,-145.34 L 5.75047,-145.357 L 5.67041,-145.454 L 5.58832,-145.549 L 5.57439,-145.57 L 5.55835,-145.589
 L 5.49106,-145.695 L 5.42152,-145.8 L 5.41034,-145.823 L 5.39685,-145.844 L 5.34338,-145.957 L 5.28752,-146.07
 L 5.27925,-146.094 L 5.26852,-146.117 L 5.22971,-146.236 L 5.1884,-146.355 L 5.18317,-146.379 L 5.1754,-146.403
 L 5.15186,-146.527 L 5.12573,-146.649 L 5.12363,-146.674 L 5.11891,-146.699 L 5.11102,-146.825 L 5.10052,-146.95
 L 5.10158,-146.975 L 5.09999,-147 L 5.10788,-147.125 L 5.11314,-147.251 L 5.11734,-147.276 L 5.11891,-147.301
 L 5.14246,-147.424 L 5.16341,-147.548 L 5.17067,-147.572 L 5.1754,-147.597 L 5.21422,-147.716 L 5.25052,-147.837
 L 5.26076,-147.86 L 5.26852,-147.883 L 5.32201,-147.997 L 5.37311,-148.112 L 5.38614,-148.133 L 5.39685,-148.156
 L 5.46416,-148.262 L 5.52924,-148.37 L 5.54486,-148.389 L 5.55835,-148.411 L 5.63841,-148.507 L 5.71645,-148.606
 L 5.73442,-148.624 L 5.75047,-148.643 L 5.84204,-148.729 L 5.93178,-148.817 L 5.95183,-148.832 L 5.97017,-148.849
 L 6.07181,-148.923 L 6.17186,-148.999 L 6.19365,-149.012 L 6.214,-149.026 L 6.32407,-149.087 L 6.43286,-149.15
 L 6.45607,-149.159 L 6.47812,-149.172 L 6.59491,-149.218 L 6.71071,-149.267 L 6.73495,-149.273 L 6.75835,-149.283
 L 6.88002,-149.314 L 7.00101,-149.348 L 7.02591,-149.351 L 7.05028,-149.357 L 7.17488,-149.373 L 7.29916,-149.392
 L 7.32433,-149.392 L 7.34929,-149.395 L 7.47491,-149.395 L 7.60049,-149.398 L 7.62552,-149.395 L 7.6507,-149.395
 L 7.77531,-149.38 L 7.90024,-149.366 L 7.92474,-149.361 L 7.94971,-149.357 L 8.07137,-149.326 L 8.19366,-149.298
 L 8.21725,-149.289 L 8.24164,-149.283 L 8.35841,-149.236 L 8.47617,-149.193 L 8.49847,-149.181 L 8.52187,-149.172
 L 8.63193,-149.111 L 8.74326,-149.053 L 8.76392,-149.039 L 8.78598,-149.026 L 8.8876,-148.953 L 8.99075,-148.881
 L 9.00945,-148.864 L 9.02982,-148.849 L 9.12137,-148.763 L 9.21472,-148.679 L 9.23117,-148.66 L 9.24951,-148.643
 L 9.32957,-148.546 L 9.41167,-148.451 L 9.4256,-148.43 L 9.44164,-148.411 L 9.50893,-148.305 L 9.57846,-148.2
 L 9.58965,-148.177 L 9.60313,-148.156 L 9.6566,-148.043 L 9.71246,-147.93 L 9.72073,-147.906 L 9.73146,-147.883
 L 9.77028,-147.764 L 9.81158,-147.645 L 9.81682,-147.621 L 9.82458,-147.597 L 9.84813,-147.473 L 9.87425,-147.351
 L 9.87636,-147.326 L 9.88107,-147.301 L 9.88896,-147.175 L 9.89946,-147.05 L 9.89841,-147.025 L 9.89999,-147
 L 9.89211,-146.875 L 9.88684,-146.749 L 9.88264,-146.724 L 9.88107,-146.699 L 9.85753,-146.576 L 9.83658,-146.452
 L 9.82932,-146.428 L 9.82458,-146.403 L 9.78577,-146.284 L 9.74947,-146.163 L 9.73923,-146.14 L 9.73146,-146.117
 L 9.67798,-146.003 L 9.62688,-145.888 L 9.61385,-145.867 L 9.60313,-145.844 L 9.53583,-145.738 L 9.47075,-145.63
 L 9.45512,-145.611 L 9.44164,-145.589 L 9.36157,-145.493 L 9.28354,-145.394 L 9.26556,-145.376 L 9.24951,-145.357
 L 9.15794,-145.271 L 9.06821,-145.183 L 9.04816,-145.168 L 9.02982,-145.151 L 8.92818,-145.077 L 8.82812,-145.001
 L 8.80634,-144.988 L 8.78598,-144.974 L 8.67592,-144.913 L 8.56712,-144.85 L 8.54391,-144.841 L 8.52187,-144.828
 L 8.40508,-144.782 L 8.28928,-144.734 L 8.26503,-144.727 L 8.24164,-144.717 L 8.11996,-144.686 L 7.99898,-144.652
 L 7.97408,-144.649 L 7.94971,-144.643 L 7.8251,-144.627 L 7.70082,-144.608 L 7.67566,-144.608 L 7.6507,-144.605
 L 7.52507,-144.605 L 7.39949,-144.602 z
M -7.62552,-144.605 L -7.6507,-144.605 L -7.77531,-144.62 L -7.90024,-144.634 L -7.92474,-144.639 L -7.94971,-144.643
 L -8.07137,-144.674 L -8.19366,-144.702 L -8.21725,-144.711 L -8.24164,-144.717 L -8.35841,-144.764 L -8.47617,-144.807
 L -8.49847,-144.819 L -8.52187,-144.828 L -8.63193,-144.889 L -8.74326,-144.947 L -8.76392,-144.962 L -8.78598,-144.974
 L -8.8876,-145.047 L -8.99075,-145.119 L -9.00945,-145.136 L -9.02982,-145.151 L -9.12137,-145.237 L -9.21472,-145.321
 L -9.23117,-145.34 L -9.24951,-145.357 L -9.32957,-145.454 L -9.41167,-145.549 L -9.4256,-145.57 L -9.44164,-145.589
 L -9.50893,-145.695 L -9.57846,-145.8 L -9.58965,-145.823 L -9.60313,-145.844 L -9.6566,-145.957 L -9.71246,-146.07
 L -9.72073,-146.094 L -9.73146,-146.117 L -9.77028,-146.236 L -9.81158,-146.355 L -9.81682,-146.379 L -9.82458,-146.403
 L -9.84813,-146.527 L -9.87425,-146.649 L -9.87636,-146.674 L -9.88107,-146.699 L -9.88896,-146.825 L -9.89946,-146.95
 L -9.89841,-146.975 L -9.89999,-147 L -9.89211,-147.125 L -9.88684,-147.251 L -9.88264,-147.276 L -9.88107,-147.301
 L -9.85753,-147.424 L -9.83658,-147.548 L -9.82932,-147.572 L -9.82458,-147.597 L -9.78577,-147.716 L -9.74947,-147.837
 L -9.73923,-147.86 L -9.73146,-147.883 L -9.67798,-147.997 L -9.62688,-148.112 L -9.61385,-148.133 L -9.60313,-148.156
 L -9.53583,-148.262 L -9.47075,-148.37 L -9.45512,-148.389 L -9.44164,-148.411 L -9.36157,-148.507 L -9.28354,-148.606
 L -9.26556,-148.624 L -9.24951,-148.643 L -9.15794,-148.729 L -9.06821,-148.817 L -9.04816,-148.832 L -9.02982,-148.849
 L -8.92818,-148.923 L -8.82812,-148.999 L -8.80634,-149.012 L -8.78598,-149.026 L -8.67592,-149.087 L -8.56712,-149.15
 L -8.54391,-149.159 L -8.52187,-149.172 L -8.40508,-149.218 L -8.28928,-149.267 L -8.26503,-149.273 L -8.24164,-149.283
 L -8.11996,-149.314 L -7.99898,-149.348 L -7.97408,-149.351 L -7.94971,-149.357 L -7.8251,-149.373 L -7.70082,-149.392
 L -7.67566,-149.392 L -7.6507,-149.395 L -7.52507,-149.395 L -7.39949,-149.398 L -7.37447,-149.395 L -7.34929,-149.395
 L -7.22467,-149.38 L -7.09975,-149.366 L -7.07524,-149.361 L -7.05028,-149.357 L -6.92862,-149.326 L -6.80632,-149.298
 L -6.78273,-149.289 L -6.75835,-149.283 L -6.64157,-149.236 L -6.52382,-149.193 L -6.50151,-149.181 L -6.47812,-149.172
 L -6.36806,-149.111 L -6.25673,-149.053 L -6.23607,-149.039 L -6.214,-149.026 L -6.11238,-148.953 L -6.00923,-148.881
 L -5.99054,-148.864 L -5.97017,-148.849 L -5.87862,-148.763 L -5.78526,-148.679 L -5.76881,-148.66 L -5.75047,-148.643
 L -5.67041,-148.546 L -5.58832,-148.451 L -5.57439,-148.43 L -5.55835,-148.411 L -5.49106,-148.305 L -5.42152,-148.2
 L -5.41034,-148.177 L -5.39685,-148.156 L -5.34338,-148.043 L -5.28752,-147.93 L -5.27925,-147.906 L -5.26852,-147.883
 L -5.22971,-147.764 L -5.1884,-147.645 L -5.18317,-147.621 L -5.1754,-147.597 L -5.15186,-147.473 L -5.12573,-147.351
 L -5.12363,-147.326 L -5.11891,-147.301 L -5.11102,-147.175 L -5.10052,-147.05 L -5.10158,-147.025 L -5.09999,-147
 L -5.10788,-146.875 L -5.11314,-146.749 L -5.11734,-146.724 L -5.11891,-146.699 L -5.14246,-146.576 L -5.16341,-146.452
 L -5.17067,-146.428 L -5.1754,-146.403 L -5.21422,-146.284 L -5.25052,-146.163 L -5.26076,-146.14 L -5.26852,-146.117
 L -5.32201,-146.003 L -5.37311,-145.888 L -5.38614,-145.867 L -5.39685,-145.844 L -5.46416,-145.738 L -5.52924,-145.63
 L -5.54486,-145.611 L -5.55835,-145.589 L -5.63841,-145.493 L -5.71645,-145.394 L -5.73442,-145.376 L -5.75047,-145.357
 L -5.84204,-145.271 L -5.93178,-145.183 L -5.95183,-145.168 L -5.97017,-145.151 L -6.07181,-145.077 L -6.17186,-145.001
 L -6.19365,-144.988 L -6.214,-144.974 L -6.32407,-144.913 L -6.43286,-144.85 L -6.45607,-144.841 L -6.47812,-144.828
 L -6.59491,-144.782 L -6.71071,-144.734 L -6.73495,-144.727 L -6.75835,-144.717 L -6.88002,-144.686 L -7.00101,-144.652
 L -7.02591,-144.649 L -7.05028,-144.643 L -7.17488,-144.627 L -7.29916,-144.608 L -7.32433,-144.608 L -7.34929,-144.605
 L -7.47491,-144.605 L -7.60049,-144.602 z
M -5.34662,-137.1 L -5.34662,-142.5 L 5.34662,-142.5 L 5.34662,-137.1 z
M 9.65337,-137.1 L 9.65337,-142.5 L 20.3466,-142.5 L 20.3466,-137.1 z
M -20.3466,-137.1 L -20.3466,-142.5 L -9.65337,-142.5 L -9.65337,-137.1 z
M -17.5307,-83.1 L -20.3466,-83.1 L -20.3466,-88.5 L -17.5307,-88.5 L -17.5307,-91.4 L -17.6289,-91.5547
 L -17.7893,-91.8956 L -17.9057,-92.2539 L -17.9763,-92.624 L -18,-93 L -17.9763,-93.376 L -17.9057,-93.7461
 L -17.7893,-94.1044 L -17.6289,-94.4453 L -17.427,-94.7634 L -17.1869,-95.0536 L -16.9123,-95.3116 L -16.6075,-95.533
 L -16.2773,-95.7145 L -15.927,-95.8532 L -15.5621,-95.9469 L -15.1884,-95.9941 L -14.8116,-95.9941 L -14.4379,-95.9469
 L -14.0729,-95.8532 L -13.7227,-95.7145 L -13.3925,-95.533 L -13.0877,-95.3116 L -12.8131,-95.0536 L -12.5729,-94.7634
 L -12.3711,-94.4453 L -12.2107,-94.1044 L -12.0942,-93.7461 L -12.0237,-93.376 L -12,-93 L -12.0237,-92.624
 L -12.0942,-92.2539 L -12.2107,-91.8956 L -12.3711,-91.5547 L -12.4693,-91.4 L -12.4693,-88.5 L -9.65337,-88.5
 L -9.65337,-83.1 L -12.4693,-83.1 L -12.4693,-79.5 L -2.53072,-79.5 L -2.53072,-83.1 L -5.34662,-83.1
 L -5.34662,-88.5 L -2.53072,-88.5 L -2.53072,-91.4 L -2.62891,-91.5547 L -2.78932,-91.8956 L -2.90575,-92.2539
 L -2.97633,-92.624 L -3,-93 L -2.97633,-93.376 L -2.90575,-93.7461 L -2.78932,-94.1044 L -2.62891,-94.4453
 L -2.42705,-94.7634 L -2.1869,-95.0536 L -1.91226,-95.3116 L -1.60747,-95.533 L -1.27733,-95.7145 L -0.927048,-95.8532
 L -0.562134,-95.9469 L -0.18837,-95.9941 L 0.18837,-95.9941 L 0.562134,-95.9469 L 0.927048,-95.8532 L 1.27733,-95.7145
 L 1.60747,-95.533 L 1.91226,-95.3116 L 2.1869,-95.0536 L 2.42705,-94.7634 L 2.62891,-94.4453 L 2.78932,-94.1044
 L 2.90575,-93.7461 L 2.97633,-93.376 L 3,-93 L 2.97633,-92.624 L 2.90575,-92.2539 L 2.78932,-91.8956
 L 2.62891,-91.5547 L 2.53072,-91.4 L 2.53072,-88.5 L 5.34662,-88.5 L 5.34662,-83.1 L 2.53072,-83.1
 L 2.53072,-79.5 L 12.4693,-79.5 L 12.4693,-83.1 L 9.65337,-83.1 L 9.65337,-88.5 L 12.4693,-88.5
 L 12.4693,-91.4 L 12.3711,-91.5547 L 12.2107,-91.8956 L 12.0942,-92.2539 L 12.0237,-92.624 L 12,-93
 L 12.0237,-93.376 L 12.0942,-93.7461 L 12.2107,-94.1044 L 12.3711,-94.4453 L 12.5729,-94.7634 L 12.8131,-95.0536
 L 13.0877,-95.3116 L 13.3925,-95.533 L 13.7227,-95.7145 L 14.0729,-95.8532 L 14.4379,-95.9469 L 14.8116,-95.9941
 L 15.1884,-95.9941 L 15.5621,-95.9469 L 15.927,-95.8532 L 16.2773,-95.7145 L 16.6075,-95.533 L 16.9123,-95.3116
 L 17.1869,-95.0536 L 17.427,-94.7634 L 17.6289,-94.4453 L 17.7893,-94.1044 L 17.9057,-93.7461 L 17.9763,-93.376
 L 18,-93 L 17.9763,-92.624 L 17.9057,-92.2539 L 17.7893,-91.8956 L 17.6289,-91.5547 L 17.5307,-91.4
 L 17.5307,-88.5 L 20.3466,-88.5 L 20.3466,-83.1 L 17.5307,-83.1 L 17.5307,-79.5 L 22,-79.5
 L 22,-95 L 21.9606,-95.6267 L 21.8429,-96.2435 L 21.6489,-96.8406 L 21.3815,-97.4088 L 21.0451,-97.9389
 L 20.6448,-98.4227 L 20.1871,-98.8526 L 19.6791,-99.2216 L 19.1289,-99.5241 L 18.5451,-99.7553 L 17.9369,-99.9114
 L 17.3139,-99.9901 L 8.91696,-99.9901 L 9.70819,-100.947 L 10.5157,-102.219 L 11.1573,-103.583 L 11.623,-105.016
 L 11.9054,-106.496 L 12,-108 L 11.9054,-109.504 L 11.623,-110.984 L 11.1573,-112.417 L 10.5157,-113.781
 L 9.70819,-115.053 L 8.74762,-116.215 L 7.64908,-117.246 L 6.42992,-118.132 L 5.10934,-118.858 L 3.70819,-119.413
 L 2.24857,-119.787 L 0.753479,-119.976 L -0.753479,-119.976 L -2.24857,-119.787 L -3.70819,-119.413 L -5.10934,-118.858
 L -6.42992,-118.132 L -7.64908,-117.246 L -8.74762,-116.215 L -9.70819,-115.053 L -10.5157,-113.781 L -11.1573,-112.417
 L -11.623,-110.984 L -11.9054,-109.504 L -12,-108 L -11.9054,-106.496 L -11.623,-105.016 L -11.1573,-103.583
 L -10.5157,-102.219 L -9.70819,-100.947 L -8.91696,-99.9901 L -17.3139,-99.9901 L -17.9369,-99.9114 L -18.5451,-99.7553
 L -19.1289,-99.5241 L -19.6791,-99.2216 L -20.1871,-98.8526 L -20.6448,-98.4227 L -21.0451,-97.9389 L -21.3815,-97.4088
 L -21.6489,-96.8406 L -21.8429,-96.2435 L -21.9606,-95.6267 L -22,-95 L -22,-79.5 L -17.5307,-79.5
 z
M -0.533707,-99.5168 L -1.59273,-99.6506 L -2.62663,-99.916 L -3.61911,-100.309 L -4.55452,-100.823 L -5.41809,-101.451
 L -6.19623,-102.181 L -6.87663,-103.004 L -7.44859,-103.905 L -7.90309,-104.871 L -8.23296,-105.886 L -8.43297,-106.935
 L -8.5,-108 L -8.43297,-109.065 L -8.23296,-110.114 L -7.90309,-111.129 L -7.44859,-112.095 L -6.87663,-112.996
 L -6.19623,-113.819 L -5.41809,-114.549 L -4.55452,-115.177 L -3.61911,-115.691 L -2.62663,-116.084 L -1.59273,-116.349
 L -0.533707,-116.483 L 0.533707,-116.483 L 1.59273,-116.349 L 2.62663,-116.084 L 3.61911,-115.691 L 4.55452,-115.177
 L 5.41809,-114.549 L 6.19623,-113.819 L 6.87663,-112.996 L 7.44859,-112.095 L 7.90309,-111.129 L 8.23296,-110.114
 L 8.43297,-109.065 L 8.5,-108 L 8.43297,-106.935 L 8.23296,-105.886 L 7.90309,-104.871 L 7.44859,-103.905
 L 6.87663,-103.004 L 6.19623,-102.181 L 5.41809,-101.451 L 4.55452,-100.823 L 3.61911,-100.309 L 2.62663,-99.916
 L 1.59273,-99.6506 L 0.533707,-99.5168 z
M -9.17329,-90.1018 L -10.8466,-93 L -9.17329,-95.8982 L -5.82671,-95.8982 L -4.1534,-93 L -5.82671,-90.1018
 z
M 7.42154,-91.503 L 7.40581,-91.503 L 7.32791,-91.5128 L 7.24983,-91.521 L 7.23453,-91.5246 L 7.21892,-91.5266
 L 7.14287,-91.5461 L 7.06645,-91.564 L 7.0517,-91.5695 L 7.03647,-91.5734 L 6.96349,-91.6023 L 6.88989,-91.6297
 L 6.87595,-91.637 L 6.86133,-91.6428 L 6.79254,-91.6806 L 6.72295,-91.717 L 6.71004,-91.7259 L 6.69626,-91.7335
 L 6.63275,-91.7796 L 6.56827,-91.8245 L 6.55658,-91.835 L 6.54385,-91.8442 L 6.48663,-91.898 L 6.42828,-91.9505
 L 6.418,-91.9624 L 6.40654,-91.9732 L 6.35651,-92.0337 L 6.30519,-92.0931 L 6.29649,-92.1062 L 6.28647,-92.1183
 L 6.2444,-92.1846 L 6.20096,-92.25 L 6.19395,-92.2641 L 6.18553,-92.2774 L 6.15211,-92.3484 L 6.1172,-92.4187
 L 6.11203,-92.4336 L 6.10533,-92.4478 L 6.08107,-92.5225 L 6.05525,-92.5966 L 6.05197,-92.612 L 6.04712,-92.627
 L 6.03241,-92.7041 L 6.01608,-92.7809 L 6.01477,-92.7966 L 6.01183,-92.812 L 6.0069,-92.8904 L 6.00032,-92.9686
 L 6.00098,-92.9843 L 6,-93 L 6.00491,-93.0783 L 6.00821,-93.1568 L 6.01083,-93.1723 L 6.01183,-93.188
 L 6.02654,-93.2651 L 6.03963,-93.3425 L 6.04417,-93.3576 L 6.04712,-93.373 L 6.07137,-93.4477 L 6.09407,-93.5229
 L 6.10046,-93.5372 L 6.10533,-93.5522 L 6.13875,-93.6232 L 6.17068,-93.6949 L 6.17883,-93.7084 L 6.18553,-93.7226
 L 6.2276,-93.7889 L 6.26826,-93.8561 L 6.27805,-93.8684 L 6.28647,-93.8817 L 6.33652,-93.9422 L 6.38527,-94.0037
 L 6.39651,-94.0147 L 6.40654,-94.0268 L 6.46378,-94.0806 L 6.51987,-94.1355 L 6.53239,-94.145 L 6.54385,-94.1558
 L 6.60738,-94.2019 L 6.66991,-94.2494 L 6.68353,-94.2572 L 6.69626,-94.2665 L 6.76505,-94.3043 L 6.83304,-94.3436
 L 6.84753,-94.3497 L 6.86133,-94.3573 L 6.93431,-94.3861 L 7.0067,-94.4166 L 7.02184,-94.4208 L 7.03647,-94.4266
 L 7.1125,-94.4461 L 7.18813,-94.4672 L 7.20369,-94.4695 L 7.21892,-94.4734 L 7.29681,-94.4833 L 7.37448,-94.4948
 L 7.3902,-94.4951 L 7.40581,-94.4971 L 7.48433,-94.4971 L 7.56281,-94.4987 L 7.57845,-94.4971 L 7.59418,-94.4971
 L 7.67207,-94.4872 L 7.75015,-94.479 L 7.76546,-94.4754 L 7.78107,-94.4734 L 7.85712,-94.4539 L 7.93353,-94.436
 L 7.94829,-94.4305 L 7.96352,-94.4266 L 8.0365,-94.3977 L 8.11009,-94.3703 L 8.12404,-94.363 L 8.13866,-94.3573
 L 8.20744,-94.3194 L 8.27704,-94.2831 L 8.28995,-94.2741 L 8.30373,-94.2665 L 8.36723,-94.2204 L 8.43172,-94.1756
 L 8.44341,-94.165 L 8.45613,-94.1558 L 8.51335,-94.102 L 8.5717,-94.0495 L 8.58199,-94.0376 L 8.59344,-94.0268
 L 8.64348,-93.9664 L 8.69479,-93.9069 L 8.70349,-93.8938 L 8.71352,-93.8817 L 8.75558,-93.8154 L 8.79903,-93.75
 L 8.80603,-93.7359 L 8.81445,-93.7226 L 8.84787,-93.6516 L 8.88278,-93.5813 L 8.88795,-93.5664 L 8.89465,-93.5522
 L 8.91891,-93.4775 L 8.94473,-93.4034 L 8.94801,-93.388 L 8.95287,-93.373 L 8.96758,-93.2959 L 8.9839,-93.2191
 L 8.98521,-93.2035 L 8.98816,-93.188 L 8.99309,-93.1096 L 8.99966,-93.0314 L 8.99901,-93.0157 L 9,-93
 L 8.99506,-92.9216 L 8.99178,-92.8432 L 8.98915,-92.8277 L 8.98816,-92.812 L 8.97345,-92.7349 L 8.96036,-92.6575
 L 8.95581,-92.6424 L 8.95287,-92.627 L 8.92862,-92.5523 L 8.90591,-92.4771 L 8.89952,-92.4628 L 8.89465,-92.4478
 L 8.86124,-92.3768 L 8.8293,-92.3051 L 8.82115,-92.2916 L 8.81445,-92.2774 L 8.77238,-92.2111 L 8.73172,-92.1439
 L 8.72194,-92.1316 L 8.71352,-92.1183 L 8.66347,-92.0578 L 8.61472,-91.9963 L 8.60347,-91.9853 L 8.59344,-91.9732
 L 8.53621,-91.9194 L 8.48012,-91.8645 L 8.46759,-91.855 L 8.45613,-91.8442 L 8.39261,-91.7981 L 8.33008,-91.7506
 L 8.31645,-91.7428 L 8.30373,-91.7335 L 8.23494,-91.6957 L 8.16695,-91.6564 L 8.15244,-91.6503 L 8.13866,-91.6428
 L 8.06567,-91.6139 L 7.99329,-91.5834 L 7.97813,-91.5792 L 7.96352,-91.5734 L 7.88748,-91.5539 L 7.81186,-91.5328
 L 7.7963,-91.5305 L 7.78107,-91.5266 L 7.70317,-91.5167 L 7.6255,-91.5053 L 7.60979,-91.5049 L 7.59418,-91.503
 L 7.51566,-91.503 L 7.43718,-91.5013 z
M -17.5942,-29.1 L -20.3466,-29.1 L -20.3466,-34.5 L -17.5942,-34.5 L -17.5942,-37.5 L -17.6289,-37.5547
 L -17.7893,-37.8956 L -17.9057,-38.2539 L -17.9763,-38.624 L -18,-39 L -17.9763,-39.376 L -17.9057,-39.7461
 L -17.7893,-40.1044 L -17.6289,-40.4453 L -17.427,-40.7634 L -17.1869,-41.0536 L -16.9123,-41.3116 L -16.6075,-41.533
 L -16.2773,-41.7145 L -15.927,-41.8532 L -15.5621,-41.9469 L -15.1884,-41.9941 L -14.8116,-41.9941 L -14.4379,-41.9469
 L -14.0729,-41.8532 L -13.7227,-41.7145 L -13.3925,-41.533 L -13.0877,-41.3116 L -12.8131,-41.0536 L -12.5729,-40.7634
 L -12.3711,-40.4453 L -12.2107,-40.1044 L -12.0942,-39.7461 L -12.0237,-39.376 L -12,-39 L -12.0237,-38.624
 L -12.0942,-38.2539 L -12.2107,-37.8956 L -12.3711,-37.5547 L -12.4058,-37.5 L -12.4058,-34.5 L -9.65337,-34.5
 L -9.65337,-29.1 L -12.4058,-29.1 L -12.4058,-25.5 L -2.59418,-25.5 L -2.59418,-29.1 L -5.34662,-29.1
 L -5.34662,-34.5 L -2.59418,-34.5 L -2.59418,-37.5 L -2.62891,-37.5547 L -2.78932,-37.8956 L -2.90575,-38.2539
 L -2.97633,-38.624 L -3,-39 L -2.97633,-39.376 L -2.90575,-39.7461 L -2.78932,-40.1044 L -2.62891,-40.4453
 L -2.42705,-40.7634 L -2.1869,-41.0536 L -1.91226,-41.3116 L -1.60747,-41.533 L -1.27733,-41.7145 L -0.927048,-41.8532
 L -0.562134,-41.9469 L -0.18837,-41.9941 L 0.18837,-41.9941 L 0.562134,-41.9469 L 0.927048,-41.8532 L 1.27733,-41.7145
 L 1.60747,-41.533 L 1.91226,-41.3116 L 2.1869,-41.0536 L 2.42705,-40.7634 L 2.62891,-40.4453 L 2.78932,-40.1044
 L 2.90575,-39.7461 L 2.97633,-39.376 L 3,-39 L 2.97633,-38.624 L 2.90575,-38.2539 L 2.78932,-37.8956
 L 2.62891,-37.5547 L 2.59418,-37.5 L 2.59418,-34.5 L 5.34662,-34.5 L 5.34662,-29.1 L 2.59418,-29.1
 L 2.59418,-25.5 L 12.4058,-25.5 L 12.4058,-29.1 L 9.65337,-29.1 L 9.65337,-34.5 L 12.4058,-34.5
 L 12.4058,-37.5 L 12.3711,-37.5547 L 12.2107,-37.8956 L 12.0942,-38.2539 L 12.0237,-38.624 L 12,-39
 L 12.0237,-39.376 L 12.0942,-39.7461 L 12.2107,-40.1044 L 12.3711,-40.4453 L 12.5729,-40.7634 L 12.8131,-41.0536
 L 13.0877,-41.3116 L 13.3925,-41.533 L 13.7227,-41.7145 L 14.0729,-41.8532 L 14.4379,-41.9469 L 14.8116,-41.9941
 L 15.1884,-41.9941 L 15.5621,-41.9469 L 15.927,-41.8532 L 16.2773,-41.7145 L 16.6075,-41.533 L 16.9123,-41.3116
 L 17.1869,-41.0536 L 17.427,-40.7634 L 17.6289,-40.4453 L 17.7893,-40.1044 L 17.9057,-39.7461 L 17.9763,-39.376
 L 18,-39 L 17.9763,-38.624 L 17.9057,-38.2539 L 17.7893,-37.8956 L 17.6289,-37.5547 L 17.5942,-37.5
 L 17.5942,-34.5 L 20.3466,-34.5 L 20.3466,-29.1 L 17.5942,-29.1 L 17.5942,-25.5 L 22,-25.5
 L 22,-41 L 21.9606,-41.6267 L 21.8429,-42.2435 L 21.6489,-42.8406 L 21.3815,-43.4088 L 21.0451,-43.9389
 L 20.6448,-44.4227 L 20.1871,-44.8526 L 19.6791,-45.2216 L 19.1289,-45.5241 L 18.5451,-45.7553 L 17.9369,-45.9114
 L 17.3139,-45.9901 L 8.91696,-45.9901 L 9.70819,-46.9466 L 10.5157,-48.219 L 11.1573,-49.5825 L 11.623,-51.0157
 L 11.9054,-52.496 L 12,-54 L 11.9054,-55.504 L 11.623,-56.9843 L 11.1573,-58.4175 L 10.5157,-59.781
 L 9.70819,-61.0534 L 8.74762,-62.2146 L 7.64908,-63.2462 L 6.42992,-64.1319 L 5.10934,-64.8579 L 3.70819,-65.4127
 L 2.24857,-65.7874 L 0.753479,-65.9763 L -0.753479,-65.9763 L -2.24857,-65.7874 L -3.70819,-65.4127 L -5.10934,-64.8579
 L -6.42992,-64.1319 L -7.64908,-63.2462 L -8.74762,-62.2146 L -9.70819,-61.0534 L -10.5157,-59.781 L -11.1573,-58.4175
 L -11.623,-56.9843 L -11.9054,-55.504 L -12,-54 L -11.9054,-52.496 L -11.623,-51.0157 L -11.1573,-49.5825
 L -10.5157,-48.219 L -9.70819,-46.9466 L -8.91696,-45.9901 L -17.3139,-45.9901 L -17.9369,-45.9114 L -18.5451,-45.7553
 L -19.1289,-45.5241 L -19.6791,-45.2216 L -20.1871,-44.8526 L -20.6448,-44.4227 L -21.0451,-43.9389 L -21.3815,-43.4088
 L -21.6489,-42.8406 L -21.8429,-42.2435 L -21.9606,-41.6267 L -22,-41 L -22,-25.5 L -17.5942,-25.5
 z
M -0.533707,-45.5168 L -1.59273,-45.6506 L -2.62663,-45.916 L -3.61911,-46.309 L -4.55452,-46.8232 L -5.41809,-47.4506
 L -6.19623,-48.1814 L -6.87663,-49.0038 L -7.44859,-49.9051 L -7.90309,-50.871 L -8.23296,-51.8861 L -8.43297,-52.9347
 L -8.5,-54 L -8.43297,-55.0653 L -8.23296,-56.1139 L -7.90309,-57.129 L -7.44859,-58.0949 L -6.87663,-58.9962
 L -6.19623,-59.8186 L -5.41809,-60.5494 L -4.55452,-61.1768 L -3.61911,-61.691 L -2.62663,-62.084 L -1.59273,-62.3494
 L -0.533707,-62.4832 L 0.533707,-62.4832 L 1.59273,-62.3494 L 2.62663,-62.084 L 3.61911,-61.691 L 4.55452,-61.1768
 L 5.41809,-60.5494 L 6.19623,-59.8186 L 6.87663,-58.9962 L 7.44859,-58.0949 L 7.90309,-57.129 L 8.23296,-56.1139
 L 8.43297,-55.0653 L 8.5,-54 L 8.43297,-52.9347 L 8.23296,-51.8861 L 7.90309,-50.871 L 7.44859,-49.9051
 L 6.87663,-49.0038 L 6.19623,-48.1814 L 5.41809,-47.4506 L 4.55452,-46.8232 L 3.61911,-46.309 L 2.62663,-45.916
 L 1.59273,-45.6506 L 0.533707,-45.5168 z
M -9.17329,-36.1018 L -10.8466,-39 L -9.17329,-41.8982 L -5.82671,-41.8982 L -4.1534,-39 L -5.82671,-36.1018
 z
M 7.42154,-37.503 L 7.40581,-37.503 L 7.32791,-37.5128 L 7.24983,-37.521 L 7.23453,-37.5246 L 7.21892,-37.5266
 L 7.14287,-37.5461 L 7.06645,-37.564 L 7.0517,-37.5695 L 7.03647,-37.5734 L 6.96349,-37.6023 L 6.88989,-37.6297
 L 6.87595,-37.637 L 6.86133,-37.6428 L 6.79254,-37.6806 L 6.72295,-37.717 L 6.71004,-37.7259 L 6.69626,-37.7335
 L 6.63275,-37.7796 L 6.56827,-37.8245 L 6.55658,-37.835 L 6.54385,-37.8442 L 6.48663,-37.898 L 6.42828,-37.9505
 L 6.418,-37.9624 L 6.40654,-37.9732 L 6.35651,-38.0337 L 6.30519,-38.0931 L 6.29649,-38.1062 L 6.28647,-38.1183
 L 6.2444,-38.1846 L 6.20096,-38.25 L 6.19395,-38.2641 L 6.18553,-38.2774 L 6.15211,-38.3484 L 6.1172,-38.4187
 L 6.11203,-38.4336 L 6.10533,-38.4478 L 6.08107,-38.5225 L 6.05525,-38.5966 L 6.05197,-38.612 L 6.04712,-38.627
 L 6.03241,-38.7041 L 6.01608,-38.7809 L 6.01477,-38.7966 L 6.01183,-38.812 L 6.0069,-38.8904 L 6.00032,-38.9686
 L 6.00098,-38.9843 L 6,-39 L 6.00491,-39.0783 L 6.00821,-39.1568 L 6.01083,-39.1723 L 6.01183,-39.188
 L 6.02654,-39.2651 L 6.03963,-39.3425 L 6.04417,-39.3576 L 6.04712,-39.373 L 6.07137,-39.4477 L 6.09407,-39.5229
 L 6.10046,-39.5372 L 6.10533,-39.5522 L 6.13875,-39.6232 L 6.17068,-39.6949 L 6.17883,-39.7084 L 6.18553,-39.7226
 L 6.2276,-39.7889 L 6.26826,-39.8561 L 6.27805,-39.8684 L 6.28647,-39.8817 L 6.33652,-39.9422 L 6.38527,-40.0037
 L 6.39651,-40.0147 L 6.40654,-40.0268 L 6.46378,-40.0806 L 6.51987,-40.1355 L 6.53239,-40.145 L 6.54385,-40.1558
 L 6.60738,-40.2019 L 6.66991,-40.2494 L 6.68353,-40.2572 L 6.69626,-40.2665 L 6.76505,-40.3043 L 6.83304,-40.3436
 L 6.84753,-40.3497 L 6.86133,-40.3573 L 6.93431,-40.3861 L 7.0067,-40.4166 L 7.02184,-40.4208 L 7.03647,-40.4266
 L 7.1125,-40.4461 L 7.18813,-40.4672 L 7.20369,-40.4695 L 7.21892,-40.4734 L 7.29681,-40.4833 L 7.37448,-40.4948
 L 7.3902,-40.4951 L 7.40581,-40.4971 L 7.48433,-40.4971 L 7.56281,-40.4987 L 7.57845,-40.4971 L 7.59418,-40.4971
 L 7.67207,-40.4872 L 7.75015,-40.479 L 7.76546,-40.4754 L 7.78107,-40.4734 L 7.85712,-40.4539 L 7.93353,-40.436
 L 7.94829,-40.4305 L 7.96352,-40.4266 L 8.0365,-40.3977 L 8.11009,-40.3703 L 8.12404,-40.363 L 8.13866,-40.3573
 L 8.20744,-40.3194 L 8.27704,-40.2831 L 8.28995,-40.2741 L 8.30373,-40.2665 L 8.36723,-40.2204 L 8.43172,-40.1756
 L 8.44341,-40.165 L 8.45613,-40.1558 L 8.51335,-40.102 L 8.5717,-40.0495 L 8.58199,-40.0376 L 8.59344,-40.0268
 L 8.64348,-39.9664 L 8.69479,-39.9069 L 8.70349,-39.8938 L 8.71352,-39.8817 L 8.75558,-39.8154 L 8.79903,-39.75
 L 8.80603,-39.7359 L 8.81445,-39.7226 L 8.84787,-39.6516 L 8.88278,-39.5813 L 8.88795,-39.5664 L 8.89465,-39.5522
 L 8.91891,-39.4775 L 8.94473,-39.4034 L 8.94801,-39.388 L 8.95287,-39.373 L 8.96758,-39.2959 L 8.9839,-39.2191
 L 8.98521,-39.2035 L 8.98816,-39.188 L 8.99309,-39.1096 L 8.99966,-39.0314 L 8.99901,-39.0157 L 9,-39
 L 8.99506,-38.9216 L 8.99178,-38.8432 L 8.98915,-38.8277 L 8.98816,-38.812 L 8.97345,-38.7349 L 8.96036,-38.6575
 L 8.95581,-38.6424 L 8.95287,-38.627 L 8.92862,-38.5523 L 8.90591,-38.4771 L 8.89952,-38.4628 L 8.89465,-38.4478
 L 8.86124,-38.3768 L 8.8293,-38.3051 L 8.82115,-38.2916 L 8.81445,-38.2774 L 8.77238,-38.2111 L 8.73172,-38.1439
 L 8.72194,-38.1316 L 8.71352,-38.1183 L 8.66347,-38.0578 L 8.61472,-37.9963 L 8.60347,-37.9853 L 8.59344,-37.9732
 L 8.53621,-37.9194 L 8.48012,-37.8645 L 8.46759,-37.855 L 8.45613,-37.8442 L 8.39261,-37.7981 L 8.33008,-37.7506
 L 8.31645,-37.7428 L 8.30373,-37.7335 L 8.23494,-37.6957 L 8.16695,-37.6564 L 8.15244,-37.6503 L 8.13866,-37.6428
 L 8.06567,-37.6139 L 7.99329,-37.5834 L 7.97813,-37.5792 L 7.96352,-37.5734 L 7.88748,-37.5539 L 7.81186,-37.5328
 L 7.7963,-37.5305 L 7.78107,-37.5266 L 7.70317,-37.5167 L 7.6255,-37.5053 L 7.60979,-37.5049 L 7.59418,-37.503
 L 7.51566,-37.503 L 7.43718,-37.5013 z
M 52.2486,-42.2126 L 53.7082,-42.5873 L 55.1093,-43.1421 L 56.4299,-43.8681 L 57.6491,-44.7538 L 58.7476,-45.7854
 L 59.7082,-46.9466 L 60.5157,-48.219 L 61.1573,-49.5825 L 61.623,-51.0157 L 61.9054,-52.496 L 62,-54
 L 61.9054,-55.504 L 61.623,-56.9843 L 61.1573,-58.4175 L 60.5157,-59.781 L 59.7082,-61.0534 L 58.7476,-62.2146
 L 57.6491,-63.2462 L 56.4299,-64.1319 L 55.1093,-64.8579 L 53.7082,-65.4127 L 52.2486,-65.7874 L 50.7535,-65.9763
 L 49.2465,-65.9763 L 47.7514,-65.7874 L 46.2918,-65.4127 L 44.8906,-64.8579 L 43.5701,-64.1319 L 42.3509,-63.2462
 L 41.2524,-62.2146 L 40.2918,-61.0534 L 39.4843,-59.781 L 38.8427,-58.4175 L 38.377,-56.9843 L 38.0946,-55.504
 L 38,-54 L 38.0946,-52.496 L 38.377,-51.0157 L 38.8427,-49.5825 L 39.4843,-48.219 L 40.2918,-46.9466
 L 41.2524,-45.7854 L 42.3509,-44.7538 L 43.5701,-43.8681 L 44.8906,-43.1421 L 46.2918,-42.5873 L 47.7514,-42.2126
 L 49.2465,-42.0237 L 50.7535,-42.0237 z
M 49.5291,-46.5148 L 48.5946,-46.6329 L 47.6824,-46.8671 L 46.8067,-47.2138 L 45.9813,-47.6675 L 45.2193,-48.2212
 L 44.5327,-48.8659 L 43.9324,-49.5916 L 43.4277,-50.3869 L 43.0267,-51.2391 L 42.7356,-52.1348 L 42.5591,-53.06
 L 42.5,-54 L 42.5591,-54.94 L 42.7356,-55.8652 L 43.0267,-56.7609 L 43.4277,-57.6131 L 43.9324,-58.4084
 L 44.5327,-59.1341 L 45.2193,-59.7788 L 45.9813,-60.3325 L 46.8067,-60.7862 L 47.6824,-61.1329 L 48.5946,-61.3671
 L 49.5291,-61.4852 L 50.4709,-61.4852 L 51.4053,-61.3671 L 52.3176,-61.1329 L 53.1933,-60.7862 L 54.0187,-60.3325
 L 54.7807,-59.7788 L 55.4673,-59.1341 L 56.0676,-58.4084 L 56.5723,-57.6131 L 56.9733,-56.7609 L 57.2644,-55.8652
 L 57.4409,-54.94 L 57.5,-54 L 57.4409,-53.06 L 57.2644,-52.1348 L 56.9733,-51.2391 L 56.5723,-50.3869
 L 56.0676,-49.5916 L 55.4673,-48.8659 L 54.7807,-48.2212 L 54.0187,-47.6675 L 53.1933,-47.2138 L 52.3176,-46.8671
 L 51.4053,-46.6329 L 50.4709,-46.5148 z
M 50.7495,-50.0709 L 51.2361,-50.1958 L 51.7031,-50.3807 L 52.1433,-50.6227 L 52.5497,-50.918 L 52.9159,-51.2618
 L 53.2361,-51.6489 L 53.5052,-52.073 L 53.7191,-52.5275 L 53.8743,-53.0052 L 53.9685,-53.4987 L 54,-54
 L 53.9685,-54.5013 L 53.8743,-54.9948 L 53.7191,-55.4725 L 53.5052,-55.927 L 53.2361,-56.3511 L 52.9159,-56.7382
 L 52.5497,-57.082 L 52.1433,-57.3773 L 51.7031,-57.6193 L 51.2361,-57.8042 L 50.7495,-57.9291 L 50.2512,-57.9921
 L 49.7488,-57.9921 L 49.2505,-57.9291 L 48.7639,-57.8042 L 48.2969,-57.6193 L 47.8567,-57.3773 L 47.4503,-57.082
 L 47.0841,-56.7382 L 46.7639,-56.3511 L 46.4948,-55.927 L 46.2809,-55.4725 L 46.1257,-54.9948 L 46.0315,-54.5013
 L 46,-54 L 46.0315,-53.4987 L 46.1257,-53.0052 L 46.2809,-52.5275 L 46.4948,-52.073 L 46.7639,-51.6489
 L 47.0841,-51.2618 L 47.4503,-50.918 L 47.8567,-50.6227 L 48.2969,-50.3807 L 48.7639,-50.1958 L 49.2505,-50.0709
 L 49.7488,-50.0079 L 50.2512,-50.0079 z
M 49.8116,-51.0059 L 49.4379,-51.0531 L 49.0729,-51.1468 L 48.7227,-51.2855 L 48.3925,-51.467 L 48.0877,-51.6885
 L 47.8131,-51.9464 L 47.5729,-52.2366 L 47.3711,-52.5547 L 47.2107,-52.8956 L 47.0942,-53.2539 L 47.0237,-53.624
 L 47,-54 L 47.0237,-54.376 L 47.0942,-54.7461 L 47.2107,-55.1044 L 47.3711,-55.4453 L 47.5729,-55.7634
 L 47.8131,-56.0536 L 48.0877,-56.3115 L 48.3925,-56.533 L 48.7227,-56.7145 L 49.0729,-56.8532 L 49.4379,-56.9469
 L 49.8116,-56.9941 L 50.1884,-56.9941 L 50.5621,-56.9469 L 50.927,-56.8532 L 51.2773,-56.7145 L 51.6075,-56.533
 L 51.9123,-56.3115 L 52.1869,-56.0536 L 52.427,-55.7634 L 52.6289,-55.4453 L 52.7893,-55.1044 L 52.9057,-54.7461
 L 52.9763,-54.376 L 53,-54 L 52.9763,-53.624 L 52.9057,-53.2539 L 52.7893,-52.8956 L 52.6289,-52.5547
 L 52.427,-52.2366 L 52.1869,-51.9464 L 51.9123,-51.6885 L 51.6075,-51.467 L 51.2773,-51.2855 L 50.927,-51.1468
 L 50.5621,-51.0531 L 50.1884,-51.0059 z
M 52.2486,11.7874 L 53.7082,11.4127 L 55.1093,10.8579 L 56.4299,10.1319 L 57.6491,9.24615 L 58.7476,8.21455
 L 59.7082,7.05342 L 60.5157,5.78104 L 61.1573,4.41748 L 61.623,2.98427 L 61.9054,1.504 L 62,-0
 L 61.9054,-1.504 L 61.623,-2.98427 L 61.1573,-4.41748 L 60.5157,-5.78104 L 59.7082,-7.05342 L 58.7476,-8.21455
 L 57.6491,-9.24615 L 56.4299,-10.1319 L 55.1093,-10.8579 L 53.7082,-11.4127 L 52.2486,-11.7874 L 50.7535,-11.9763
 L 49.2465,-11.9763 L 47.7514,-11.7874 L 46.2918,-11.4127 L 44.8906,-10.8579 L 43.5701,-10.1319 L 42.3509,-9.24615
 L 41.2524,-8.21455 L 40.2918,-7.05342 L 39.4843,-5.78104 L 38.8427,-4.41748 L 38.377,-2.98427 L 38.0946,-1.504
 L 38,-0 L 38.0946,1.504 L 38.377,2.98427 L 38.8427,4.41748 L 39.4843,5.78104 L 40.2918,7.05342
 L 41.2524,8.21455 L 42.3509,9.24615 L 43.5701,10.1319 L 44.8906,10.8579 L 46.2918,11.4127 L 47.7514,11.7874
 L 49.2465,11.9763 L 50.7535,11.9763 z
M 49.4663,8.48322 L 48.4073,8.34944 L 47.3734,8.08397 L 46.3809,7.69102 L 45.4455,7.17677 L 44.5819,6.54936
 L 43.8038,5.81865 L 43.1234,4.99617 L 42.5514,4.09489 L 42.0969,3.12904 L 41.767,2.11386 L 41.567,1.06532
 L 41.5,-0 L 41.567,-1.06532 L 41.767,-2.11386 L 42.0969,-3.12904 L 42.5514,-4.09489 L 43.1234,-4.99617
 L 43.8038,-5.81865 L 44.5819,-6.54936 L 45.4455,-7.17677 L 46.3809,-7.69102 L 47.3734,-8.08397 L 48.4073,-8.34944
 L 49.4663,-8.48322 L 50.5337,-8.48322 L 51.5927,-8.34944 L 52.6266,-8.08397 L 53.6191,-7.69102 L 54.5545,-7.17677
 L 55.4181,-6.54936 L 56.1962,-5.81865 L 56.8766,-4.99617 L 57.4486,-4.09489 L 57.9031,-3.12904 L 58.233,-2.11386
 L 58.433,-1.06532 L 58.5,-0 L 58.433,1.06532 L 58.233,2.11386 L 57.9031,3.12904 L 57.4486,4.09489
 L 56.8766,4.99617 L 56.1962,5.81865 L 55.4181,6.54936 L 54.5545,7.17677 L 53.6191,7.69102 L 52.6266,8.08397
 L 51.5927,8.34944 L 50.5337,8.48322 z
M 22,13 L 21.9606,12.3733 L 21.8429,11.7565 L 21.6489,11.1594 L 21.3815,10.5912 L 21.0451,10.0611
 L 20.6448,9.57726 L 20.1871,9.14743 L 19.6791,8.77835 L 19.1289,8.47586 L 18.5451,8.24471 L 17.9369,8.08856
 L 17.3139,8.00986 L 8.91696,8.00986 L 9.70819,7.05342 L 10.5157,5.78104 L 11.1573,4.41748 L 11.623,2.98427
 L 11.9054,1.504 L 12,-0 L 11.9054,-1.504 L 11.623,-2.98427 L 11.1573,-4.41748 L 10.5157,-5.78104
 L 9.70819,-7.05342 L 8.74762,-8.21455 L 7.64908,-9.24615 L 6.42992,-10.1319 L 5.10934,-10.8579 L 3.70819,-11.4127
 L 2.24857,-11.7874 L 0.753479,-11.9763 L -0.753479,-11.9763 L -2.24857,-11.7874 L -3.70819,-11.4127 L -5.10934,-10.8579
 L -6.42992,-10.1319 L -7.64908,-9.24615 L -8.74762,-8.21455 L -9.70819,-7.05342 L -10.5157,-5.78104 L -11.1573,-4.41748
 L -11.623,-2.98427 L -11.9054,-1.504 L -12,-0 L -11.9054,1.504 L -11.623,2.98427 L -11.1573,4.41748
 L -10.5157,5.78104 L -9.70819,7.05342 L -8.91696,8.00986 L -17.3139,8.00986 L -17.9369,8.08856 L -18.5451,8.24471
 L -19.1289,8.47586 L -19.6791,8.77835 L -20.1871,9.14743 L -20.6448,9.57726 L -21.0451,10.0611 L -21.3815,10.5912
 L -21.6489,11.1594 L -21.8429,11.7565 L -21.9606,12.3733 L -22,13 L -22,28.5 L 22,28.5
 z
M -0.470917,7.4852 L -1.40535,7.36714 L -2.31763,7.13292 L -3.19334,6.78619 L -4.01869,6.33246 L -4.78067,5.77884
 L -5.46725,5.13409 L -6.06763,4.40839 L -6.5723,3.61314 L -6.97331,2.76093 L -7.26436,1.86517 L -7.44086,0.939987
 L -7.5,-0 L -7.44086,-0.939987 L -7.26436,-1.86517 L -6.97331,-2.76093 L -6.5723,-3.61314 L -6.06763,-4.40839
 L -5.46725,-5.13409 L -4.78067,-5.77884 L -4.01869,-6.33246 L -3.19334,-6.78619 L -2.31763,-7.13292 L -1.40535,-7.36714
 L -0.470917,-7.4852 L 0.470917,-7.4852 L 1.40535,-7.36714 L 2.31763,-7.13292 L 3.19334,-6.78619 L 4.01869,-6.33246
 L 4.78067,-5.77884 L 5.46725,-5.13409 L 6.06763,-4.40839 L 6.5723,-3.61314 L 6.97331,-2.76093 L 7.26436,-1.86517
 L 7.44086,-0.939987 L 7.5,-0 L 7.44086,0.939987 L 7.26436,1.86517 L 6.97331,2.76093 L 6.5723,3.61314
 L 6.06763,4.40839 L 5.46725,5.13409 L 4.78067,5.77884 L 4.01869,6.33246 L 3.19334,6.78619 L 2.31763,7.13292
 L 1.40535,7.36714 L 0.470917,7.4852 z
M 0.749512,3.92914 L 1.23605,3.80421 L 1.70311,3.61929 L 2.1433,3.3773 L 2.54968,3.08205 L 2.91586,2.73817
 L 3.23605,2.35114 L 3.50522,1.927 L 3.7191,1.47249 L 3.87433,0.994751 L 3.96844,0.501328 L 4,-0
 L 3.96844,-0.501328 L 3.87433,-0.994751 L 3.7191,-1.47249 L 3.50522,-1.927 L 3.23605,-2.35114 L 2.91586,-2.73817
 L 2.54968,-3.08205 L 2.1433,-3.3773 L 1.70311,-3.61929 L 1.23605,-3.80421 L 0.749512,-3.92914 L 0.25116,-3.9921
 L -0.25116,-3.9921 L -0.749512,-3.92914 L -1.23605,-3.80421 L -1.70311,-3.61929 L -2.1433,-3.3773 L -2.54968,-3.08205
 L -2.91586,-2.73817 L -3.23605,-2.35114 L -3.50522,-1.927 L -3.7191,-1.47249 L -3.87433,-0.994751 L -3.96844,-0.501328
 L -4,-0 L -3.96844,0.501328 L -3.87433,0.994751 L -3.7191,1.47249 L -3.50522,1.927 L -3.23605,2.35114
 L -2.91586,2.73817 L -2.54968,3.08205 L -2.1433,3.3773 L -1.70311,3.61929 L -1.23605,3.80421 L -0.749512,3.92914
 L -0.25116,3.9921 L 0.25116,3.9921 z
M -0.18837,2.99408 L -0.562134,2.94685 L -0.927048,2.85316 L -1.27733,2.71448 L -1.60747,2.53297 L -1.91226,2.31154
 L -2.1869,2.05363 L -2.42705,1.76335 L -2.62891,1.44525 L -2.78932,1.10437 L -2.90575,0.746063 L -2.97633,0.375992
 L -3,-0 L -2.97633,-0.375992 L -2.90575,-0.746063 L -2.78932,-1.10437 L -2.62891,-1.44525 L -2.42705,-1.76335
 L -2.1869,-2.05363 L -1.91226,-2.31154 L -1.60747,-2.53297 L -1.27733,-2.71448 L -0.927048,-2.85316 L -0.562134,-2.94685
 L -0.18837,-2.99408 L 0.18837,-2.99408 L 0.562134,-2.94685 L 0.927048,-2.85316 L 1.27733,-2.71448 L 1.60747,-2.53297
 L 1.91226,-2.31154 L 2.1869,-2.05363 L 2.42705,-1.76335 L 2.62891,-1.44525 L 2.78932,-1.10437 L 2.90575,-0.746063
 L 2.97633,-0.375992 L 3,-0 L 2.97633,0.375992 L 2.90575,0.746063 L 2.78932,1.10437 L 2.62891,1.44525
 L 2.42705,1.76335 L 2.1869,2.05363 L 1.91226,2.31154 L 1.60747,2.53297 L 1.27733,2.71448 L 0.927048,2.85316
 L 0.562134,2.94685 L 0.18837,2.99408 z
M -15.1884,17.9941 L -15.5621,17.9469 L -15.927,17.8532 L -16.2773,17.7145 L -16.6075,17.533 L -16.9123,17.3115
 L -17.1869,17.0536 L -17.427,16.7634 L -17.6289,16.4453 L -17.7893,16.1044 L -17.9057,15.7461 L -17.9763,15.376
 L -18,15 L -17.9763,14.624 L -17.9057,14.2539 L -17.7893,13.8956 L -17.6289,13.5547 L -17.427,13.2366
 L -17.1869,12.9464 L -16.9123,12.6884 L -16.6075,12.467 L -16.2773,12.2855 L -15.927,12.1468 L -15.5621,12.0531
 L -15.1884,12.0059 L -14.8116,12.0059 L -14.4379,12.0531 L -14.0729,12.1468 L -13.7227,12.2855 L -13.3925,12.467
 L -13.0877,12.6884 L -12.8131,12.9464 L -12.5729,13.2366 L -12.3711,13.5547 L -12.2107,13.8956 L -12.0942,14.2539
 L -12.0237,14.624 L -12,15 L -12.0237,15.376 L -12.0942,15.7461 L -12.2107,16.1044 L -12.3711,16.4453
 L -12.5729,16.7634 L -12.8131,17.0536 L -13.0877,17.3115 L -13.3925,17.533 L -13.7227,17.7145 L -14.0729,17.8532
 L -14.4379,17.9469 L -14.8116,17.9941 z
M -0.18837,17.9941 L -0.562134,17.9469 L -0.927048,17.8532 L -1.27733,17.7145 L -1.60747,17.533 L -1.91226,17.3115
 L -2.1869,17.0536 L -2.42705,16.7634 L -2.62891,16.4453 L -2.78932,16.1044 L -2.90575,15.7461 L -2.97633,15.376
 L -3,15 L -2.97633,14.624 L -2.90575,14.2539 L -2.78932,13.8956 L -2.62891,13.5547 L -2.42705,13.2366
 L -2.1869,12.9464 L -1.91226,12.6884 L -1.60747,12.467 L -1.27733,12.2855 L -0.927048,12.1468 L -0.562134,12.0531
 L -0.18837,12.0059 L 0.18837,12.0059 L 0.562134,12.0531 L 0.927048,12.1468 L 1.27733,12.2855 L 1.60747,12.467
 L 1.91226,12.6884 L 2.1869,12.9464 L 2.42705,13.2366 L 2.62891,13.5547 L 2.78932,13.8956 L 2.90575,14.2539
 L 2.97633,14.624 L 3,15 L 2.97633,15.376 L 2.90575,15.7461 L 2.78932,16.1044 L 2.62891,16.4453
 L 2.42705,16.7634 L 2.1869,17.0536 L 1.91226,17.3115 L 1.60747,17.533 L 1.27733,17.7145 L 0.927048,17.8532
 L 0.562134,17.9469 L 0.18837,17.9941 z
M 14.8116,17.9941 L 14.4379,17.9469 L 14.0729,17.8532 L 13.7227,17.7145 L 13.3925,17.533 L 13.0877,17.3115
 L 12.8131,17.0536 L 12.5729,16.7634 L 12.3711,16.4453 L 12.2107,16.1044 L 12.0942,15.7461 L 12.0237,15.376
 L 12,15 L 12.0237,14.624 L 12.0942,14.2539 L 12.2107,13.8956 L 12.3711,13.5547 L 12.5729,13.2366
 L 12.8131,12.9464 L 13.0877,12.6884 L 13.3925,12.467 L 13.7227,12.2855 L 14.0729,12.1468 L 14.4379,12.0531
 L 14.8116,12.0059 L 15.1884,12.0059 L 15.5621,12.0531 L 15.927,12.1468 L 16.2773,12.2855 L 16.6075,12.467
 L 16.9123,12.6884 L 17.1869,12.9464 L 17.427,13.2366 L 17.6289,13.5547 L 17.7893,13.8956 L 17.9057,14.2539
 L 17.9763,14.624 L 18,15 L 17.9763,15.376 L 17.9057,15.7461 L 17.7893,16.1044 L 17.6289,16.4453
 L 17.427,16.7634 L 17.1869,17.0536 L 16.9123,17.3115 L 16.6075,17.533 L 16.2773,17.7145 L 15.927,17.8532
 L 15.5621,17.9469 L 15.1884,17.9941 z
M 7.37447,17.3953 L 7.34929,17.3953 L 7.22467,17.3795 L 7.09975,17.3664 L 7.07524,17.3606 L 7.05028,17.3575
 L 6.92862,17.3262 L 6.80632,17.2976 L 6.78273,17.2888 L 6.75835,17.2825 L 6.64157,17.2363 L 6.52382,17.1925
 L 6.50151,17.1808 L 6.47812,17.1716 L 6.36806,17.1111 L 6.25673,17.0529 L 6.23607,17.0385 L 6.214,17.0264
 L 6.11238,16.9525 L 6.00923,16.8809 L 5.99054,16.864 L 5.97017,16.8492 L 5.87862,16.7632 L 5.78526,16.6792
 L 5.76881,16.6601 L 5.75047,16.6429 L 5.67041,16.5461 L 5.58832,16.451 L 5.57439,16.4301 L 5.55835,16.4107
 L 5.49106,16.3046 L 5.42152,16.2 L 5.41034,16.1774 L 5.39685,16.1562 L 5.34338,16.0426 L 5.28752,15.93
 L 5.27925,15.9063 L 5.26852,15.8835 L 5.22971,15.764 L 5.1884,15.6454 L 5.18317,15.6208 L 5.1754,15.5968
 L 5.15186,15.4734 L 5.12573,15.3506 L 5.12363,15.3255 L 5.11891,15.3008 L 5.11102,15.1754 L 5.10052,15.0502
 L 5.10158,15.0251 L 5.09999,15 L 5.10788,14.8746 L 5.11314,14.7491 L 5.11734,14.7243 L 5.11891,14.6992
 L 5.14246,14.5758 L 5.16341,14.452 L 5.17067,14.4279 L 5.1754,14.4031 L 5.21422,14.2837 L 5.25052,14.1634
 L 5.26076,14.1404 L 5.26852,14.1165 L 5.32201,14.0029 L 5.37311,13.8881 L 5.38614,13.8665 L 5.39685,13.8438
 L 5.46416,13.7377 L 5.52924,13.6303 L 5.54486,13.6105 L 5.55835,13.5893 L 5.63841,13.4925 L 5.71645,13.3941
 L 5.73442,13.3765 L 5.75047,13.3571 L 5.84204,13.2711 L 5.93178,13.1832 L 5.95183,13.168 L 5.97017,13.1508
 L 6.07181,13.0769 L 6.17186,13.001 L 6.19365,12.9884 L 6.214,12.9736 L 6.32407,12.9131 L 6.43286,12.8503
 L 6.45607,12.8405 L 6.47812,12.8284 L 6.59491,12.7822 L 6.71071,12.7335 L 6.73495,12.7267 L 6.75835,12.7175
 L 6.88002,12.6862 L 7.00101,12.6524 L 7.02591,12.6488 L 7.05028,12.6425 L 7.17488,12.6268 L 7.29916,12.6084
 L 7.32433,12.6079 L 7.34929,12.6047 L 7.47491,12.6047 L 7.60049,12.6021 L 7.62552,12.6047 L 7.6507,12.6047
 L 7.77531,12.6205 L 7.90024,12.6336 L 7.92474,12.6393 L 7.94971,12.6425 L 8.07137,12.6737 L 8.19366,12.7024
 L 8.21725,12.7112 L 8.24164,12.7175 L 8.35841,12.7637 L 8.47617,12.8075 L 8.49847,12.8191 L 8.52187,12.8284
 L 8.63193,12.8889 L 8.74326,12.9471 L 8.76392,12.9615 L 8.78598,12.9736 L 8.8876,13.0474 L 8.99075,13.1191
 L 9.00945,13.136 L 9.02982,13.1508 L 9.12137,13.2367 L 9.21472,13.3208 L 9.23117,13.3399 L 9.24951,13.3571
 L 9.32957,13.4539 L 9.41167,13.549 L 9.4256,13.5699 L 9.44164,13.5893 L 9.50893,13.6953 L 9.57846,13.8
 L 9.58965,13.8225 L 9.60313,13.8438 L 9.6566,13.9574 L 9.71246,14.07 L 9.72073,14.0937 L 9.73146,14.1165
 L 9.77028,14.236 L 9.81158,14.3546 L 9.81682,14.3792 L 9.82458,14.4031 L 9.84813,14.5265 L 9.87425,14.6494
 L 9.87636,14.6745 L 9.88107,14.6992 L 9.88896,14.8246 L 9.89946,14.9497 L 9.89841,14.9749 L 9.89999,15
 L 9.89211,15.1254 L 9.88684,15.2509 L 9.88264,15.2757 L 9.88107,15.3008 L 9.85753,15.4242 L 9.83658,15.548
 L 9.82932,15.5721 L 9.82458,15.5968 L 9.78577,15.7163 L 9.74947,15.8366 L 9.73923,15.8596 L 9.73146,15.8835
 L 9.67798,15.9971 L 9.62688,16.1119 L 9.61385,16.1334 L 9.60313,16.1562 L 9.53583,16.2623 L 9.47075,16.3697
 L 9.45512,16.3894 L 9.44164,16.4107 L 9.36157,16.5075 L 9.28354,16.6059 L 9.26556,16.6235 L 9.24951,16.6429
 L 9.15794,16.7289 L 9.06821,16.8168 L 9.04816,16.832 L 9.02982,16.8492 L 8.92818,16.9231 L 8.82812,16.999
 L 8.80634,17.0116 L 8.78598,17.0264 L 8.67592,17.0869 L 8.56712,17.1497 L 8.54391,17.1595 L 8.52187,17.1716
 L 8.40508,17.2178 L 8.28928,17.2665 L 8.26503,17.2733 L 8.24164,17.2825 L 8.11996,17.3138 L 7.99898,17.3475
 L 7.97408,17.3512 L 7.94971,17.3575 L 7.8251,17.3732 L 7.70082,17.3916 L 7.67566,17.3921 L 7.6507,17.3953
 L 7.52507,17.3953 L 7.39949,17.3979 z
M -7.62552,17.3953 L -7.6507,17.3953 L -7.77531,17.3795 L -7.90024,17.3664 L -7.92474,17.3606 L -7.94971,17.3575
 L -8.07137,17.3262 L -8.19366,17.2976 L -8.21725,17.2888 L -8.24164,17.2825 L -8.35841,17.2363 L -8.47617,17.1925
 L -8.49847,17.1808 L -8.52187,17.1716 L -8.63193,17.1111 L -8.74326,17.0529 L -8.76392,17.0385 L -8.78598,17.0264
 L -8.8876,16.9525 L -8.99075,16.8809 L -9.00945,16.864 L -9.02982,16.8492 L -9.12137,16.7632 L -9.21472,16.6792
 L -9.23117,16.6601 L -9.24951,16.6429 L -9.32957,16.5461 L -9.41167,16.451 L -9.4256,16.4301 L -9.44164,16.4107
 L -9.50893,16.3046 L -9.57846,16.2 L -9.58965,16.1774 L -9.60313,16.1562 L -9.6566,16.0426 L -9.71246,15.93
 L -9.72073,15.9063 L -9.73146,15.8835 L -9.77028,15.764 L -9.81158,15.6454 L -9.81682,15.6208 L -9.82458,15.5968
 L -9.84813,15.4734 L -9.87425,15.3506 L -9.87636,15.3255 L -9.88107,15.3008 L -9.88896,15.1754 L -9.89946,15.0502
 L -9.89841,15.0251 L -9.89999,15 L -9.89211,14.8746 L -9.88684,14.7491 L -9.88264,14.7243 L -9.88107,14.6992
 L -9.85753,14.5758 L -9.83658,14.452 L -9.82932,14.4279 L -9.82458,14.4031 L -9.78577,14.2837 L -9.74947,14.1634
 L -9.73923,14.1404 L -9.73146,14.1165 L -9.67798,14.0029 L -9.62688,13.8881 L -9.61385,13.8665 L -9.60313,13.8438
 L -9.53583,13.7377 L -9.47075,13.6303 L -9.45512,13.6105 L -9.44164,13.5893 L -9.36157,13.4925 L -9.28354,13.3941
 L -9.26556,13.3765 L -9.24951,13.3571 L -9.15794,13.2711 L -9.06821,13.1832 L -9.04816,13.168 L -9.02982,13.1508
 L -8.92818,13.0769 L -8.82812,13.001 L -8.80634,12.9884 L -8.78598,12.9736 L -8.67592,12.9131 L -8.56712,12.8503
 L -8.54391,12.8405 L -8.52187,12.8284 L -8.40508,12.7822 L -8.28928,12.7335 L -8.26503,12.7267 L -8.24164,12.7175
 L -8.11996,12.6862 L -7.99898,12.6524 L -7.97408,12.6488 L -7.94971,12.6425 L -7.8251,12.6268 L -7.70082,12.6084
 L -7.67566,12.6079 L -7.6507,12.6047 L -7.52507,12.6047 L -7.39949,12.6021 L -7.37447,12.6047 L -7.34929,12.6047
 L -7.22467,12.6205 L -7.09975,12.6336 L -7.07524,12.6393 L -7.05028,12.6425 L -6.92862,12.6737 L -6.80632,12.7024
 L -6.78273,12.7112 L -6.75835,12.7175 L -6.64157,12.7637 L -6.52382,12.8075 L -6.50151,12.8191 L -6.47812,12.8284
 L -6.36806,12.8889 L -6.25673,12.9471 L -6.23607,12.9615 L -6.214,12.9736 L -6.11238,13.0474 L -6.00923,13.1191
 L -5.99054,13.136 L -5.97017,13.1508 L -5.87862,13.2367 L -5.78526,13.3208 L -5.76881,13.3399 L -5.75047,13.3571
 L -5.67041,13.4539 L -5.58832,13.549 L -5.57439,13.5699 L -5.55835,13.5893 L -5.49106,13.6953 L -5.42152,13.8
 L -5.41034,13.8225 L -5.39685,13.8438 L -5.34338,13.9574 L -5.28752,14.07 L -5.27925,14.0937 L -5.26852,14.1165
 L -5.22971,14.236 L -5.1884,14.3546 L -5.18317,14.3792 L -5.1754,14.4031 L -5.15186,14.5265 L -5.12573,14.6494
 L -5.12363,14.6745 L -5.11891,14.6992 L -5.11102,14.8246 L -5.10052,14.9497 L -5.10158,14.9749 L -5.09999,15
 L -5.10788,15.1254 L -5.11314,15.2509 L -5.11734,15.2757 L -5.11891,15.3008 L -5.14246,15.4242 L -5.16341,15.548
 L -5.17067,15.5721 L -5.1754,15.5968 L -5.21422,15.7163 L -5.25052,15.8366 L -5.26076,15.8596 L -5.26852,15.8835
 L -5.32201,15.9971 L -5.37311,16.1119 L -5.38614,16.1334 L -5.39685,16.1562 L -5.46416,16.2623 L -5.52924,16.3697
 L -5.54486,16.3894 L -5.55835,16.4107 L -5.63841,16.5075 L -5.71645,16.6059 L -5.73442,16.6235 L -5.75047,16.6429
 L -5.84204,16.7289 L -5.93178,16.8168 L -5.95183,16.832 L -5.97017,16.8492 L -6.07181,16.9231 L -6.17186,16.999
 L -6.19365,17.0116 L -6.214,17.0264 L -6.32407,17.0869 L -6.43286,17.1497 L -6.45607,17.1595 L -6.47812,17.1716
 L -6.59491,17.2178 L -6.71071,17.2665 L -6.73495,17.2733 L -6.75835,17.2825 L -6.88002,17.3138 L -7.00101,17.3475
 L -7.02591,17.3512 L -7.05028,17.3575 L -7.17488,17.3732 L -7.29916,17.3916 L -7.32433,17.3921 L -7.34929,17.3953
 L -7.47491,17.3953 L -7.60049,17.3979 z
M 9.65337,24.9 L 9.65337,19.5 L 20.3466,19.5 L 20.3466,24.9 z
M -20.3466,24.9 L -20.3466,19.5 L -9.65337,19.5 L -9.65337,24.9 z
M -5.34662,24.9 L -5.34662,19.5 L 5.34662,19.5 L 5.34662,24.9 z
" stroke="black" fill="lightgray" stroke-width="0.5"/>
</svg>
