<?xml version="1.0" standalone="no"?>
<!DOCTYPE svg PUBLIC "-//W3C//DTD SVG 1.1//EN" "http://www.w3.org/Graphics/SVG/1.1/DTD/svg11.dtd">
<svg width="287mm" height="340mm" viewBox="-144 -605 287 340" xmlns="http://www.w3.org/2000/svg" version="1.1">
<title>OpenSCAD Model</title>
<path d="
M 138.437,-439.589 L 139.045,-439.745 L 139.629,-439.976 L 140.179,-440.278 L 140.687,-440.647 L 141.145,-441.077
 L 141.545,-441.561 L 141.882,-442.091 L 142.149,-442.659 L 142.343,-443.257 L 142.461,-443.873 L 142.5,-444.5
 L 142.5,-599.5 L 142.461,-600.127 L 142.343,-600.743 L 142.149,-601.341 L 141.882,-601.909 L 141.545,-602.439
 L 141.145,-602.923 L 140.687,-603.353 L 140.179,-603.722 L 139.629,-604.024 L 139.045,-604.255 L 138.437,-604.411
 L 137.814,-604.49 L -137.814,-604.49 L -138.437,-604.411 L -139.045,-604.255 L -139.629,-604.024 L -140.179,-603.722
 L -140.687,-603.353 L -141,-603.059 L -141,-604.479 L -144,-604.479 L -144,-439.521 L -141,-439.521
 L -141,-440.941 L -140.687,-440.647 L -140.179,-440.278 L -139.629,-439.976 L -139.045,-439.745 L -138.437,-439.589
 L -137.814,-439.51 L 137.814,-439.51 z
M -137.195,-441.893 L -137.583,-441.942 L -137.962,-442.039 L -138.325,-442.183 L -138.668,-442.372 L -138.984,-442.601
 L -139.269,-442.869 L -139.518,-443.17 L -139.728,-443.5 L -139.894,-443.854 L -140.015,-444.226 L -140.088,-444.61
 L -140.113,-445 L -140.113,-599 L -140.088,-599.39 L -140.015,-599.774 L -139.894,-600.146 L -139.728,-600.5
 L -139.518,-600.83 L -139.269,-601.131 L -138.984,-601.399 L -138.668,-601.628 L -138.325,-601.817 L -137.962,-601.961
 L -137.583,-602.058 L -137.195,-602.107 L 137.195,-602.107 L 137.583,-602.058 L 137.962,-601.961 L 138.325,-601.817
 L 138.668,-601.628 L 138.984,-601.399 L 139.269,-601.131 L 139.518,-600.83 L 139.728,-600.5 L 139.894,-600.146
 L 140.015,-599.774 L 140.088,-599.39 L 140.113,-599 L 140.113,-445 L 140.088,-444.61 L 140.015,-444.226
 L 139.894,-443.854 L 139.728,-443.5 L 139.518,-443.17 L 139.269,-442.869 L 138.984,-442.601 L 138.668,-442.372
 L 138.325,-442.183 L 137.962,-442.039 L 137.583,-441.942 L 137.195,-441.893 z
M 138.437,-265.589 L 139.045,-265.745 L 139.629,-265.976 L 140.179,-266.278 L 140.687,-266.647 L 141.145,-267.077
 L 141.545,-267.561 L 141.882,-268.091 L 142.149,-268.659 L 142.343,-269.257 L 142.461,-269.873 L 142.5,-270.5
 L 142.5,-425.5 L 142.461,-426.127 L 142.343,-426.743 L 142.149,-427.341 L 141.882,-427.909 L 141.545,-428.439
 L 141.145,-428.923 L 140.687,-429.353 L 140.179,-429.722 L 139.629,-430.024 L 139.045,-430.255 L 138.437,-430.411
 L 137.814,-430.49 L -137.814,-430.49 L -138.437,-430.411 L -139.045,-430.255 L -139.629,-430.024 L -140.179,-429.722
 L -140.687,-429.353 L -141,-429.059 L -141,-429.153 L -144,-429.153 L -144,-266.847 L -141,-266.847
 L -141,-266.941 L -140.687,-266.647 L -140.179,-266.278 L -139.629,-265.976 L -139.045,-265.745 L -138.437,-265.589
 L -137.814,-265.51 L 137.814,-265.51 z
M 134.866,-420.869 L 134.6,-420.903 L 134.34,-420.969 L 134.091,-421.068 L 133.856,-421.197 L 133.639,-421.355
 L 133.443,-421.538 L 133.273,-421.745 L 133.129,-421.971 L 133.015,-422.214 L 132.932,-422.469 L 132.882,-422.732
 L 132.865,-423 L 132.882,-423.268 L 132.932,-423.531 L 133.015,-423.786 L 133.129,-424.029 L 133.273,-424.255
 L 133.443,-424.462 L 133.639,-424.645 L 133.856,-424.803 L 134.091,-424.932 L 134.34,-425.031 L 134.6,-425.097
 L 134.866,-425.131 L 135.134,-425.131 L 135.4,-425.097 L 135.66,-425.031 L 135.909,-424.932 L 136.144,-424.803
 L 136.361,-424.645 L 136.557,-424.462 L 136.727,-424.255 L 136.871,-424.029 L 136.985,-423.786 L 137.068,-423.531
 L 137.118,-423.268 L 137.135,-423 L 137.118,-422.732 L 137.068,-422.469 L 136.985,-422.214 L 136.871,-421.971
 L 136.727,-421.745 L 136.557,-421.538 L 136.361,-421.355 L 136.144,-421.197 L 135.909,-421.068 L 135.66,-420.969
 L 135.4,-420.903 L 135.134,-420.869 z
M -135.134,-420.869 L -135.4,-420.903 L -135.66,-420.969 L -135.909,-421.068 L -136.144,-421.197 L -136.361,-421.355
 L -136.557,-421.538 L -136.727,-421.745 L -136.871,-421.971 L -136.985,-422.214 L -137.068,-422.469 L -137.118,-422.732
 L -137.135,-423 L -137.118,-423.268 L -137.068,-423.531 L -136.985,-423.786 L -136.871,-424.029 L -136.727,-424.255
 L -136.557,-424.462 L -136.361,-424.645 L -136.144,-424.803 L -135.909,-424.932 L -135.66,-425.031 L -135.4,-425.097
 L -135.134,-425.131 L -134.866,-425.131 L -134.6,-425.097 L -134.34,-425.031 L -134.091,-424.932 L -133.856,-424.803
 L -133.639,-424.645 L -133.443,-424.462 L -133.273,-424.255 L -133.129,-424.029 L -133.015,-423.786 L -132.932,-423.531
 L -132.882,-423.268 L -132.865,-423 L -132.882,-422.732 L -132.932,-422.469 L -133.015,-422.214 L -133.129,-421.971
 L -133.273,-421.745 L -133.443,-421.538 L -133.639,-421.355 L -133.856,-421.197 L -134.091,-421.068 L -134.34,-420.969
 L -134.6,-420.903 L -134.866,-420.869 z
M 134.866,-270.869 L 134.6,-270.903 L 134.34,-270.969 L 134.091,-271.068 L 133.856,-271.197 L 133.639,-271.355
 L 133.443,-271.538 L 133.273,-271.745 L 133.129,-271.971 L 133.015,-272.214 L 132.932,-272.469 L 132.882,-272.732
 L 132.865,-273 L 132.882,-273.268 L 132.932,-273.531 L 133.015,-273.786 L 133.129,-274.029 L 133.273,-274.255
 L 133.443,-274.462 L 133.639,-274.645 L 133.856,-274.803 L 134.091,-274.932 L 134.34,-275.031 L 134.6,-275.097
 L 134.866,-275.131 L 135.134,-275.131 L 135.4,-275.097 L 135.66,-275.031 L 135.909,-274.932 L 136.144,-274.803
 L 136.361,-274.645 L 136.557,-274.462 L 136.727,-274.255 L 136.871,-274.029 L 136.985,-273.786 L 137.068,-273.531
 L 137.118,-273.268 L 137.135,-273 L 137.118,-272.732 L 137.068,-272.469 L 136.985,-272.214 L 136.871,-271.971
 L 136.727,-271.745 L 136.557,-271.538 L 136.361,-271.355 L 136.144,-271.197 L 135.909,-271.068 L 135.66,-270.969
 L 135.4,-270.903 L 135.134,-270.869 z
M -135.134,-270.869 L -135.4,-270.903 L -135.66,-270.969 L -135.909,-271.068 L -136.144,-271.197 L -136.361,-271.355
 L -136.557,-271.538 L -136.727,-271.745 L -136.871,-271.971 L -136.985,-272.214 L -137.068,-272.469 L -137.118,-272.732
 L -137.135,-273 L -137.118,-273.268 L -137.068,-273.531 L -136.985,-273.786 L -136.871,-274.029 L -136.727,-274.255
 L -136.557,-274.462 L -136.361,-274.645 L -136.144,-274.803 L -135.909,-274.932 L -135.66,-275.031 L -135.4,-275.097
 L -135.134,-275.131 L -134.866,-275.131 L -134.6,-275.097 L -134.34,-275.031 L -134.091,-274.932 L -133.856,-274.803
 L -133.639,-274.645 L -133.443,-274.462 L -133.273,-274.255 L -133.129,-274.029 L -133.015,-273.786 L -132.932,-273.531
 L -132.882,-273.268 L -132.865,-273 L -132.882,-272.732 L -132.932,-272.469 L -133.015,-272.214 L -133.129,-271.971
 L -133.273,-271.745 L -133.443,-271.538 L -133.639,-271.355 L -133.856,-271.197 L -134.091,-271.068 L -134.34,-270.969
 L -134.6,-270.903 L -134.866,-270.869 z
" stroke="black" fill="lightgray" stroke-width="0.5"/>
</svg>
