<?xml version="1.0" standalone="no"?>
<!DOCTYPE svg PUBLIC "-//W3C//DTD SVG 1.1//EN" "http://www.w3.org/Graphics/SVG/1.1/DTD/svg11.dtd">
<svg width="302mm" height="381mm" viewBox="-152 -756 302 381" xmlns="http://www.w3.org/2000/svg" version="1.1">
<title>OpenSCAD Model</title>
<path d="
M 145.937,-726.089 L 146.545,-726.245 L 147.129,-726.476 L 147.679,-726.778 L 148.187,-727.147 L 148.645,-727.577
 L 149.045,-728.061 L 149.382,-728.591 L 149.649,-729.159 L 149.843,-729.757 L 149.961,-730.373 L 150,-731
 L 150,-751 L 149.961,-751.627 L 149.843,-752.243 L 149.649,-752.841 L 149.382,-753.409 L 149.045,-753.939
 L 148.645,-754.423 L 148.187,-754.853 L 147.679,-755.222 L 147.129,-755.524 L 146.545,-755.755 L 145.937,-755.911
 L 145.314,-755.99 L -145.314,-755.99 L -145.937,-755.911 L -146.545,-755.755 L -147.129,-755.524 L -147.679,-755.222
 L -148.187,-754.853 L -148.5,-754.559 L -151.5,-754.559 L -151.5,-727.441 L -148.5,-727.441 L -148.187,-727.147
 L -147.679,-726.778 L -147.129,-726.476 L -146.545,-726.245 L -145.937,-726.089 L -145.314,-726.01 L 145.314,-726.01
 z
M -144.751,-727.508 L -145.25,-727.571 L -145.736,-727.696 L -146.203,-727.881 L -146.643,-728.123 L -147.05,-728.418
 L -147.416,-728.762 L -147.736,-729.149 L -148.005,-729.573 L -148.219,-730.028 L -148.374,-730.505 L -148.468,-730.999
 L -148.5,-731.5 L -148.5,-750.5 L -148.468,-751.001 L -148.374,-751.495 L -148.219,-751.972 L -148.005,-752.427
 L -147.736,-752.851 L -147.416,-753.238 L -147.05,-753.582 L -146.643,-753.877 L -146.203,-754.119 L -145.736,-754.304
 L -145.25,-754.429 L -144.751,-754.492 L 144.751,-754.492 L 145.25,-754.429 L 145.736,-754.304 L 146.203,-754.119
 L 146.643,-753.877 L 147.05,-753.582 L 147.416,-753.238 L 147.736,-752.851 L 148.005,-752.427 L 148.219,-751.972
 L 148.374,-751.495 L 148.468,-751.001 L 148.5,-750.5 L 148.5,-731.5 L 148.468,-730.999 L 148.374,-730.505
 L 148.219,-730.028 L 148.005,-729.573 L 147.736,-729.149 L 147.416,-728.762 L 147.05,-728.418 L 146.643,-728.123
 L 146.203,-727.881 L 145.736,-727.696 L 145.25,-727.571 L 144.751,-727.508 z
M 145.937,-687.089 L 146.545,-687.245 L 147.129,-687.476 L 147.679,-687.778 L 148.187,-688.147 L 148.645,-688.577
 L 149.045,-689.061 L 149.382,-689.591 L 149.649,-690.159 L 149.843,-690.757 L 149.961,-691.373 L 150,-692
 L 150,-712 L 149.961,-712.627 L 149.843,-713.243 L 149.649,-713.841 L 149.382,-714.409 L 149.045,-714.939
 L 148.645,-715.423 L 148.187,-715.853 L 147.679,-716.222 L 147.129,-716.524 L 146.545,-716.755 L 145.937,-716.911
 L 145.314,-716.99 L -145.314,-716.99 L -145.937,-716.911 L -146.545,-716.755 L -147.129,-716.524 L -147.679,-716.222
 L -148.187,-715.853 L -148.5,-715.559 L -148.5,-716.967 L -151.5,-716.967 L -151.5,-687.033 L -148.5,-687.033
 L -148.5,-688.441 L -148.187,-688.147 L -147.679,-687.778 L -147.129,-687.476 L -146.545,-687.245 L -145.937,-687.089
 L -145.314,-687.01 L 145.314,-687.01 z
M -144.751,-688.508 L -145.25,-688.571 L -145.736,-688.696 L -146.203,-688.881 L -146.643,-689.123 L -147.05,-689.418
 L -147.416,-689.762 L -147.736,-690.149 L -148.005,-690.573 L -148.219,-691.028 L -148.374,-691.505 L -148.468,-691.999
 L -148.5,-692.5 L -148.5,-711.5 L -148.468,-712.001 L -148.374,-712.495 L -148.219,-712.972 L -148.005,-713.427
 L -147.736,-713.851 L -147.416,-714.238 L -147.05,-714.582 L -146.643,-714.877 L -146.203,-715.119 L -145.736,-715.304
 L -145.25,-715.429 L -144.751,-715.492 L 144.751,-715.492 L 145.25,-715.429 L 145.736,-715.304 L 146.203,-715.119
 L 146.643,-714.877 L 147.05,-714.582 L 147.416,-714.238 L 147.736,-713.851 L 148.005,-713.427 L 148.219,-712.972
 L 148.374,-712.495 L 148.468,-712.001 L 148.5,-711.5 L 148.5,-692.5 L 148.468,-691.999 L 148.374,-691.505
 L 148.219,-691.028 L 148.005,-690.573 L 147.736,-690.149 L 147.416,-689.762 L 147.05,-689.418 L 146.643,-689.123
 L 146.203,-688.881 L 145.736,-688.696 L 145.25,-688.571 L 144.751,-688.508 z
M -148.5,-649.441 L -148.187,-649.147 L -147.679,-648.778 L -147.129,-648.476 L -146.545,-648.245 L -145.937,-648.089
 L -145.314,-648.01 L 145.314,-648.01 L 145.937,-648.089 L 146.545,-648.245 L 147.129,-648.476 L 147.679,-648.778
 L 148.187,-649.147 L 148.645,-649.577 L 149.045,-650.061 L 149.382,-650.591 L 149.649,-651.159 L 149.843,-651.757
 L 149.961,-652.373 L 150,-653 L 150,-673 L 149.961,-673.627 L 149.843,-674.243 L 149.649,-674.841
 L 149.382,-675.409 L 149.045,-675.939 L 148.645,-676.423 L 148.187,-676.853 L 147.679,-677.222 L 147.129,-677.524
 L 146.545,-677.755 L 145.937,-677.911 L 145.314,-677.99 L -145.314,-677.99 L -145.937,-677.911 L -146.545,-677.755
 L -147.129,-677.524 L -147.679,-677.222 L -148.187,-676.853 L -148.5,-676.559 L -148.5,-677.99 L -151.5,-677.99
 L -151.5,-673.494 L -148.374,-673.494 L -148.374,-673.495 L -148.219,-673.972 L -148.005,-674.427 L -147.736,-674.851
 L -147.416,-675.238 L -147.05,-675.582 L -146.643,-675.877 L -146.203,-676.119 L -145.736,-676.304 L -145.25,-676.429
 L -144.751,-676.492 L 144.751,-676.492 L 145.25,-676.429 L 145.736,-676.304 L 146.203,-676.119 L 146.643,-675.877
 L 147.05,-675.582 L 147.416,-675.238 L 147.736,-674.851 L 148.005,-674.427 L 148.219,-673.972 L 148.374,-673.495
 L 148.468,-673.001 L 148.5,-672.5 L 148.5,-653.5 L 148.468,-652.999 L 148.374,-652.505 L 148.219,-652.028
 L 148.005,-651.573 L 147.736,-651.149 L 147.416,-650.762 L 147.05,-650.418 L 146.643,-650.123 L 146.203,-649.881
 L 145.736,-649.696 L 145.25,-649.571 L 144.751,-649.508 L -144.751,-649.508 L -145.25,-649.571 L -145.736,-649.696
 L -146.203,-649.881 L -146.643,-650.123 L -147.05,-650.418 L -147.416,-650.762 L -147.736,-651.149 L -148.005,-651.573
 L -148.219,-652.028 L -148.374,-652.505 L -148.374,-652.506 L -151.5,-652.506 L -151.5,-648.01 L -148.5,-648.01
 z
M -148.5,-667.506 L -151.5,-667.506 L -151.5,-658.494 L -148.5,-658.494 z
M -148.5,-610.441 L -148.187,-610.147 L -147.679,-609.778 L -147.129,-609.476 L -146.545,-609.245 L -145.937,-609.089
 L -145.314,-609.01 L 145.314,-609.01 L 145.937,-609.089 L 146.545,-609.245 L 147.129,-609.476 L 147.679,-609.778
 L 148.187,-610.147 L 148.645,-610.577 L 149.045,-611.061 L 149.382,-611.591 L 149.649,-612.159 L 149.843,-612.757
 L 149.961,-613.373 L 150,-614 L 150,-634 L 149.961,-634.627 L 149.843,-635.243 L 149.649,-635.841
 L 149.382,-636.409 L 149.045,-636.939 L 148.645,-637.423 L 148.187,-637.853 L 147.679,-638.222 L 147.129,-638.524
 L 146.545,-638.755 L 145.937,-638.911 L 145.314,-638.99 L -145.314,-638.99 L -145.937,-638.911 L -146.545,-638.755
 L -147.129,-638.524 L -147.679,-638.222 L -148.187,-637.853 L -148.5,-637.559 L -148.5,-638.99 L -151.5,-638.99
 L -151.5,-609.01 L -148.5,-609.01 z
M -144.751,-610.508 L -145.25,-610.571 L -145.736,-610.696 L -146.203,-610.881 L -146.643,-611.123 L -147.05,-611.418
 L -147.416,-611.762 L -147.736,-612.149 L -148.005,-612.573 L -148.219,-613.028 L -148.374,-613.505 L -148.468,-613.999
 L -148.5,-614.5 L -148.5,-633.5 L -148.468,-634.001 L -148.374,-634.495 L -148.219,-634.972 L -148.005,-635.427
 L -147.736,-635.851 L -147.416,-636.238 L -147.05,-636.582 L -146.643,-636.877 L -146.203,-637.119 L -145.736,-637.304
 L -145.25,-637.429 L -144.751,-637.492 L 144.751,-637.492 L 145.25,-637.429 L 145.736,-637.304 L 146.203,-637.119
 L 146.643,-636.877 L 147.05,-636.582 L 147.416,-636.238 L 147.736,-635.851 L 148.005,-635.427 L 148.219,-634.972
 L 148.374,-634.495 L 148.468,-634.001 L 148.5,-633.5 L 148.5,-614.5 L 148.468,-613.999 L 148.374,-613.505
 L 148.219,-613.028 L 148.005,-612.573 L 147.736,-612.149 L 147.416,-611.762 L 147.05,-611.418 L 146.643,-611.123
 L 146.203,-610.881 L 145.736,-610.696 L 145.25,-610.571 L 144.751,-610.508 z
M -148.5,-571.441 L -148.187,-571.147 L -147.679,-570.778 L -147.129,-570.476 L -146.545,-570.245 L -145.937,-570.089
 L -145.314,-570.01 L 145.314,-570.01 L 145.937,-570.089 L 146.545,-570.245 L 147.129,-570.476 L 147.679,-570.778
 L 148.187,-571.147 L 148.645,-571.577 L 149.045,-572.061 L 149.382,-572.591 L 149.649,-573.159 L 149.843,-573.757
 L 149.961,-574.373 L 150,-575 L 150,-595 L 149.961,-595.627 L 149.843,-596.243 L 149.649,-596.841
 L 149.382,-597.409 L 149.045,-597.939 L 148.645,-598.423 L 148.187,-598.853 L 147.679,-599.222 L 147.129,-599.524
 L 146.545,-599.755 L 145.937,-599.911 L 145.314,-599.99 L -145.314,-599.99 L -145.937,-599.911 L -146.545,-599.755
 L -147.129,-599.524 L -147.679,-599.222 L -148.187,-598.853 L -148.5,-598.559 L -148.5,-599.99 L -151.5,-599.99
 L -151.5,-570.01 L -148.5,-570.01 z
M -144.751,-571.508 L -145.25,-571.571 L -145.736,-571.696 L -146.203,-571.881 L -146.643,-572.123 L -147.05,-572.418
 L -147.416,-572.762 L -147.736,-573.149 L -148.005,-573.573 L -148.219,-574.028 L -148.374,-574.505 L -148.468,-574.999
 L -148.5,-575.5 L -148.5,-594.5 L -148.468,-595.001 L -148.374,-595.495 L -148.219,-595.972 L -148.005,-596.427
 L -147.736,-596.851 L -147.416,-597.238 L -147.05,-597.582 L -146.643,-597.877 L -146.203,-598.119 L -145.736,-598.304
 L -145.25,-598.429 L -144.751,-598.492 L 144.751,-598.492 L 145.25,-598.429 L 145.736,-598.304 L 146.203,-598.119
 L 146.643,-597.877 L 147.05,-597.582 L 147.416,-597.238 L 147.736,-596.851 L 148.005,-596.427 L 148.219,-595.972
 L 148.374,-595.495 L 148.468,-595.001 L 148.5,-594.5 L 148.5,-575.5 L 148.468,-574.999 L 148.374,-574.505
 L 148.219,-574.028 L 148.005,-573.573 L 147.736,-573.149 L 147.416,-572.762 L 147.05,-572.418 L 146.643,-572.123
 L 146.203,-571.881 L 145.736,-571.696 L 145.25,-571.571 L 144.751,-571.508 z
M -148.5,-532.441 L -148.187,-532.147 L -147.679,-531.778 L -147.129,-531.476 L -146.545,-531.245 L -145.937,-531.089
 L -145.314,-531.01 L 145.314,-531.01 L 145.937,-531.089 L 146.545,-531.245 L 147.129,-531.476 L 147.679,-531.778
 L 148.187,-532.147 L 148.645,-532.577 L 149.045,-533.061 L 149.382,-533.591 L 149.649,-534.159 L 149.843,-534.757
 L 149.961,-535.373 L 150,-536 L 150,-556 L 149.961,-556.627 L 149.843,-557.243 L 149.649,-557.841
 L 149.382,-558.409 L 149.045,-558.939 L 148.645,-559.423 L 148.187,-559.853 L 147.679,-560.222 L 147.129,-560.524
 L 146.545,-560.755 L 145.937,-560.911 L 145.314,-560.99 L -145.314,-560.99 L -145.937,-560.911 L -146.545,-560.755
 L -147.129,-560.524 L -147.679,-560.222 L -148.187,-559.853 L -148.5,-559.559 L -148.5,-560.99 L -151.5,-560.99
 L -151.5,-531.01 L -148.5,-531.01 z
M -144.751,-532.508 L -145.25,-532.571 L -145.736,-532.696 L -146.203,-532.881 L -146.643,-533.123 L -147.05,-533.418
 L -147.416,-533.762 L -147.736,-534.149 L -148.005,-534.573 L -148.219,-535.028 L -148.374,-535.505 L -148.468,-535.999
 L -148.5,-536.5 L -148.5,-555.5 L -148.468,-556.001 L -148.374,-556.495 L -148.219,-556.972 L -148.005,-557.427
 L -147.736,-557.851 L -147.416,-558.238 L -147.05,-558.582 L -146.643,-558.877 L -146.203,-559.119 L -145.736,-559.304
 L -145.25,-559.429 L -144.751,-559.492 L 144.751,-559.492 L 145.25,-559.429 L 145.736,-559.304 L 146.203,-559.119
 L 146.643,-558.877 L 147.05,-558.582 L 147.416,-558.238 L 147.736,-557.851 L 148.005,-557.427 L 148.219,-556.972
 L 148.374,-556.495 L 148.468,-556.001 L 148.5,-555.5 L 148.5,-536.5 L 148.468,-535.999 L 148.374,-535.505
 L 148.219,-535.028 L 148.005,-534.573 L 147.736,-534.149 L 147.416,-533.762 L 147.05,-533.418 L 146.643,-533.123
 L 146.203,-532.881 L 145.736,-532.696 L 145.25,-532.571 L 144.751,-532.508 z
M -148.5,-493.441 L -148.187,-493.147 L -147.679,-492.778 L -147.129,-492.476 L -146.545,-492.245 L -145.937,-492.089
 L -145.314,-492.01 L 145.314,-492.01 L 145.937,-492.089 L 146.545,-492.245 L 147.129,-492.476 L 147.679,-492.778
 L 148.187,-493.147 L 148.645,-493.577 L 149.045,-494.061 L 149.382,-494.591 L 149.649,-495.159 L 149.843,-495.757
 L 149.961,-496.373 L 150,-497 L 150,-517 L 149.961,-517.627 L 149.843,-518.243 L 149.649,-518.841
 L 149.382,-519.409 L 149.045,-519.939 L 148.645,-520.423 L 148.187,-520.853 L 147.679,-521.222 L 147.129,-521.524
 L 146.545,-521.755 L 145.937,-521.911 L 145.314,-521.99 L -145.314,-521.99 L -145.937,-521.911 L -146.545,-521.755
 L -147.129,-521.524 L -147.679,-521.222 L -148.187,-520.853 L -148.5,-520.559 L -148.5,-521.99 L -151.5,-521.99
 L -151.5,-492.01 L -148.5,-492.01 z
M -144.751,-493.508 L -145.25,-493.571 L -145.736,-493.696 L -146.203,-493.881 L -146.643,-494.123 L -147.05,-494.418
 L -147.416,-494.762 L -147.736,-495.149 L -148.005,-495.573 L -148.219,-496.028 L -148.374,-496.505 L -148.468,-496.999
 L -148.5,-497.5 L -148.5,-516.5 L -148.468,-517.001 L -148.374,-517.495 L -148.219,-517.972 L -148.005,-518.427
 L -147.736,-518.851 L -147.416,-519.238 L -147.05,-519.582 L -146.643,-519.877 L -146.203,-520.119 L -145.736,-520.304
 L -145.25,-520.429 L -144.751,-520.492 L 144.751,-520.492 L 145.25,-520.429 L 145.736,-520.304 L 146.203,-520.119
 L 146.643,-519.877 L 147.05,-519.582 L 147.416,-519.238 L 147.736,-518.851 L 148.005,-518.427 L 148.219,-517.972
 L 148.374,-517.495 L 148.468,-517.001 L 148.5,-516.5 L 148.5,-497.5 L 148.468,-496.999 L 148.374,-496.505
 L 148.219,-496.028 L 148.005,-495.573 L 147.736,-495.149 L 147.416,-494.762 L 147.05,-494.418 L 146.643,-494.123
 L 146.203,-493.881 L 145.736,-493.696 L 145.25,-493.571 L 144.751,-493.508 z
M -148.5,-454.441 L -148.187,-454.147 L -147.679,-453.778 L -147.129,-453.476 L -146.545,-453.245 L -145.937,-453.089
 L -145.314,-453.01 L 145.314,-453.01 L 145.937,-453.089 L 146.545,-453.245 L 147.129,-453.476 L 147.679,-453.778
 L 148.187,-454.147 L 148.645,-454.577 L 149.045,-455.061 L 149.382,-455.591 L 149.649,-456.159 L 149.843,-456.757
 L 149.961,-457.373 L 150,-458 L 150,-478 L 149.961,-478.627 L 149.843,-479.243 L 149.649,-479.841
 L 149.382,-480.409 L 149.045,-480.939 L 148.645,-481.423 L 148.187,-481.853 L 147.679,-482.222 L 147.129,-482.524
 L 146.545,-482.755 L 145.937,-482.911 L 145.314,-482.99 L -145.314,-482.99 L -145.937,-482.911 L -146.545,-482.755
 L -147.129,-482.524 L -147.679,-482.222 L -148.187,-481.853 L -148.5,-481.559 L -148.5,-482.99 L -151.5,-482.99
 L -151.5,-453.01 L -148.5,-453.01 z
M -144.751,-454.508 L -145.25,-454.571 L -145.736,-454.696 L -146.203,-454.881 L -146.643,-455.123 L -147.05,-455.418
 L -147.416,-455.762 L -147.736,-456.149 L -148.005,-456.573 L -148.219,-457.028 L -148.374,-457.505 L -148.468,-457.999
 L -148.5,-458.5 L -148.5,-477.5 L -148.468,-478.001 L -148.374,-478.495 L -148.219,-478.972 L -148.005,-479.427
 L -147.736,-479.851 L -147.416,-480.238 L -147.05,-480.582 L -146.643,-480.877 L -146.203,-481.119 L -145.736,-481.304
 L -145.25,-481.429 L -144.751,-481.492 L 144.751,-481.492 L 145.25,-481.429 L 145.736,-481.304 L 146.203,-481.119
 L 146.643,-480.877 L 147.05,-480.582 L 147.416,-480.238 L 147.736,-479.851 L 148.005,-479.427 L 148.219,-478.972
 L 148.374,-478.495 L 148.468,-478.001 L 148.5,-477.5 L 148.5,-458.5 L 148.468,-457.999 L 148.374,-457.505
 L 148.219,-457.028 L 148.005,-456.573 L 147.736,-456.149 L 147.416,-455.762 L 147.05,-455.418 L 146.643,-455.123
 L 146.203,-454.881 L 145.736,-454.696 L 145.25,-454.571 L 144.751,-454.508 z
M 145.937,-414.089 L 146.545,-414.245 L 147.129,-414.476 L 147.679,-414.778 L 148.187,-415.147 L 148.645,-415.577
 L 149.045,-416.061 L 149.382,-416.591 L 149.649,-417.159 L 149.843,-417.757 L 149.961,-418.373 L 150,-419
 L 150,-439 L 149.961,-439.627 L 149.843,-440.243 L 149.649,-440.841 L 149.382,-441.409 L 149.045,-441.939
 L 148.645,-442.423 L 148.187,-442.853 L 147.679,-443.222 L 147.129,-443.524 L 146.545,-443.755 L 145.937,-443.911
 L 145.314,-443.99 L -145.314,-443.99 L -145.937,-443.911 L -146.545,-443.755 L -147.129,-443.524 L -147.679,-443.222
 L -148.187,-442.853 L -148.5,-442.559 L -148.5,-443.979 L -151.5,-443.979 L -151.5,-414.021 L -148.5,-414.021
 L -148.5,-415.441 L -148.187,-415.147 L -147.679,-414.778 L -147.129,-414.476 L -146.545,-414.245 L -145.937,-414.089
 L -145.314,-414.01 L 145.314,-414.01 z
M -144.695,-416.393 L -145.083,-416.442 L -145.462,-416.539 L -145.825,-416.683 L -146.168,-416.872 L -146.484,-417.101
 L -146.769,-417.369 L -147.018,-417.67 L -147.228,-418 L -147.394,-418.354 L -147.515,-418.726 L -147.588,-419.11
 L -147.613,-419.5 L -147.613,-438.5 L -147.588,-438.89 L -147.515,-439.274 L -147.394,-439.646 L -147.228,-440
 L -147.018,-440.33 L -146.769,-440.631 L -146.484,-440.899 L -146.168,-441.128 L -145.825,-441.317 L -145.462,-441.461
 L -145.083,-441.558 L -144.695,-441.607 L 144.695,-441.607 L 145.083,-441.558 L 145.462,-441.461 L 145.825,-441.317
 L 146.168,-441.128 L 146.484,-440.899 L 146.769,-440.631 L 147.018,-440.33 L 147.228,-440 L 147.394,-439.646
 L 147.515,-439.274 L 147.588,-438.89 L 147.613,-438.5 L 147.613,-419.5 L 147.588,-419.11 L 147.515,-418.726
 L 147.394,-418.354 L 147.228,-418 L 147.018,-417.67 L 146.769,-417.369 L 146.484,-417.101 L 146.168,-416.872
 L 145.825,-416.683 L 145.462,-416.539 L 145.083,-416.442 L 144.695,-416.393 z
M 145.937,-375.089 L 146.545,-375.245 L 147.129,-375.476 L 147.679,-375.778 L 148.187,-376.147 L 148.645,-376.577
 L 149.045,-377.061 L 149.382,-377.591 L 149.649,-378.159 L 149.843,-378.757 L 149.961,-379.373 L 150,-380
 L 150,-400 L 149.961,-400.627 L 149.843,-401.243 L 149.649,-401.841 L 149.382,-402.409 L 149.045,-402.939
 L 148.645,-403.423 L 148.187,-403.853 L 147.679,-404.222 L 147.129,-404.524 L 146.545,-404.755 L 145.937,-404.911
 L 145.314,-404.99 L -145.314,-404.99 L -145.937,-404.911 L -146.545,-404.755 L -147.129,-404.524 L -147.679,-404.222
 L -148.187,-403.853 L -148.5,-403.559 L -148.5,-403.653 L -151.5,-403.653 L -151.5,-376.347 L -148.5,-376.347
 L -148.5,-376.441 L -148.187,-376.147 L -147.679,-375.778 L -147.129,-375.476 L -146.545,-375.245 L -145.937,-375.089
 L -145.314,-375.01 L 145.314,-375.01 z
M -142.634,-395.369 L -142.9,-395.403 L -143.16,-395.469 L -143.409,-395.568 L -143.644,-395.697 L -143.861,-395.855
 L -144.057,-396.038 L -144.227,-396.245 L -144.371,-396.471 L -144.485,-396.714 L -144.568,-396.969 L -144.618,-397.232
 L -144.635,-397.5 L -144.618,-397.768 L -144.568,-398.031 L -144.485,-398.286 L -144.371,-398.529 L -144.227,-398.755
 L -144.057,-398.962 L -143.861,-399.145 L -143.644,-399.303 L -143.409,-399.432 L -143.16,-399.531 L -142.9,-399.597
 L -142.634,-399.631 L -142.366,-399.631 L -142.1,-399.597 L -141.84,-399.531 L -141.591,-399.432 L -141.356,-399.303
 L -141.139,-399.145 L -140.943,-398.962 L -140.773,-398.755 L -140.629,-398.529 L -140.515,-398.286 L -140.432,-398.031
 L -140.382,-397.768 L -140.365,-397.5 L -140.382,-397.232 L -140.432,-396.969 L -140.515,-396.714 L -140.629,-396.471
 L -140.773,-396.245 L -140.943,-396.038 L -141.139,-395.855 L -141.356,-395.697 L -141.591,-395.568 L -141.84,-395.469
 L -142.1,-395.403 L -142.366,-395.369 z
M 142.366,-395.369 L 142.1,-395.403 L 141.84,-395.469 L 141.591,-395.568 L 141.356,-395.697 L 141.139,-395.855
 L 140.943,-396.038 L 140.773,-396.245 L 140.629,-396.471 L 140.515,-396.714 L 140.432,-396.969 L 140.382,-397.232
 L 140.365,-397.5 L 140.382,-397.768 L 140.432,-398.031 L 140.515,-398.286 L 140.629,-398.529 L 140.773,-398.755
 L 140.943,-398.962 L 141.139,-399.145 L 141.356,-399.303 L 141.591,-399.432 L 141.84,-399.531 L 142.1,-399.597
 L 142.366,-399.631 L 142.634,-399.631 L 142.9,-399.597 L 143.16,-399.531 L 143.409,-399.432 L 143.644,-399.303
 L 143.861,-399.145 L 144.057,-398.962 L 144.227,-398.755 L 144.371,-398.529 L 144.485,-398.286 L 144.568,-398.031
 L 144.618,-397.768 L 144.635,-397.5 L 144.618,-397.232 L 144.568,-396.969 L 144.485,-396.714 L 144.371,-396.471
 L 144.227,-396.245 L 144.057,-396.038 L 143.861,-395.855 L 143.644,-395.697 L 143.409,-395.568 L 143.16,-395.469
 L 142.9,-395.403 L 142.634,-395.369 z
M -142.634,-380.369 L -142.9,-380.403 L -143.16,-380.469 L -143.409,-380.568 L -143.644,-380.697 L -143.861,-380.855
 L -144.057,-381.038 L -144.227,-381.245 L -144.371,-381.471 L -144.485,-381.714 L -144.568,-381.969 L -144.618,-382.232
 L -144.635,-382.5 L -144.618,-382.768 L -144.568,-383.031 L -144.485,-383.286 L -144.371,-383.529 L -144.227,-383.755
 L -144.057,-383.962 L -143.861,-384.145 L -143.644,-384.303 L -143.409,-384.432 L -143.16,-384.531 L -142.9,-384.597
 L -142.634,-384.631 L -142.366,-384.631 L -142.1,-384.597 L -141.84,-384.531 L -141.591,-384.432 L -141.356,-384.303
 L -141.139,-384.145 L -140.943,-383.962 L -140.773,-383.755 L -140.629,-383.529 L -140.515,-383.286 L -140.432,-383.031
 L -140.382,-382.768 L -140.365,-382.5 L -140.382,-382.232 L -140.432,-381.969 L -140.515,-381.714 L -140.629,-381.471
 L -140.773,-381.245 L -140.943,-381.038 L -141.139,-380.855 L -141.356,-380.697 L -141.591,-380.568 L -141.84,-380.469
 L -142.1,-380.403 L -142.366,-380.369 z
M 142.366,-380.369 L 142.1,-380.403 L 141.84,-380.469 L 141.591,-380.568 L 141.356,-380.697 L 141.139,-380.855
 L 140.943,-381.038 L 140.773,-381.245 L 140.629,-381.471 L 140.515,-381.714 L 140.432,-381.969 L 140.382,-382.232
 L 140.365,-382.5 L 140.382,-382.768 L 140.432,-383.031 L 140.515,-383.286 L 140.629,-383.529 L 140.773,-383.755
 L 140.943,-383.962 L 141.139,-384.145 L 141.356,-384.303 L 141.591,-384.432 L 141.84,-384.531 L 142.1,-384.597
 L 142.366,-384.631 L 142.634,-384.631 L 142.9,-384.597 L 143.16,-384.531 L 143.409,-384.432 L 143.644,-384.303
 L 143.861,-384.145 L 144.057,-383.962 L 144.227,-383.755 L 144.371,-383.529 L 144.485,-383.286 L 144.568,-383.031
 L 144.618,-382.768 L 144.635,-382.5 L 144.618,-382.232 L 144.568,-381.969 L 144.485,-381.714 L 144.371,-381.471
 L 144.227,-381.245 L 144.057,-381.038 L 143.861,-380.855 L 143.644,-380.697 L 143.409,-380.568 L 143.16,-380.469
 L 142.9,-380.403 L 142.634,-380.369 z
" stroke="black" fill="lightgray" stroke-width="0.5"/>
</svg>
