  0
SECTION
  2
BLOCKS
  0
ENDSEC
  0
SECTION
  2
ENTITIES
  0
LINE
  8
0
 10
-118.5
 20
179.191
 11
-118.187
 21
178.897
  0
LINE
  8
0
 10
-118.187
 20
178.897
 11
-117.679
 21
178.528
  0
LINE
  8
0
 10
-117.679
 20
178.528
 11
-117.129
 21
178.226
  0
LINE
  8
0
 10
-117.129
 20
178.226
 11
-116.545
 21
177.995
  0
LINE
  8
0
 10
-116.545
 20
177.995
 11
-115.937
 21
177.839
  0
LINE
  8
0
 10
-115.937
 20
177.839
 11
-115.314
 21
177.76
  0
LINE
  8
0
 10
-115.314
 20
177.76
 11
115.314
 21
177.76
  0
LINE
  8
0
 10
115.314
 20
177.76
 11
115.937
 21
177.839
  0
LINE
  8
0
 10
115.937
 20
177.839
 11
116.545
 21
177.995
  0
LINE
  8
0
 10
116.545
 20
177.995
 11
117.129
 21
178.226
  0
LINE
  8
0
 10
117.129
 20
178.226
 11
117.679
 21
178.528
  0
LINE
  8
0
 10
117.679
 20
178.528
 11
118.187
 21
178.897
  0
LINE
  8
0
 10
118.187
 20
178.897
 11
118.645
 21
179.327
  0
LINE
  8
0
 10
118.645
 20
179.327
 11
119.045
 21
179.811
  0
LINE
  8
0
 10
119.045
 20
179.811
 11
119.382
 21
180.341
  0
LINE
  8
0
 10
119.382
 20
180.341
 11
119.649
 21
180.909
  0
LINE
  8
0
 10
119.649
 20
180.909
 11
119.843
 21
181.507
  0
LINE
  8
0
 10
119.843
 20
181.507
 11
119.961
 21
182.123
  0
LINE
  8
0
 10
119.961
 20
182.123
 11
120
 21
182.75
  0
LINE
  8
0
 10
120
 20
182.75
 11
120
 21
195.25
  0
LINE
  8
0
 10
120
 20
195.25
 11
119.961
 21
195.877
  0
LINE
  8
0
 10
119.961
 20
195.877
 11
119.843
 21
196.493
  0
LINE
  8
0
 10
119.843
 20
196.493
 11
119.649
 21
197.091
  0
LINE
  8
0
 10
119.649
 20
197.091
 11
119.382
 21
197.659
  0
LINE
  8
0
 10
119.382
 20
197.659
 11
119.045
 21
198.189
  0
LINE
  8
0
 10
119.045
 20
198.189
 11
118.645
 21
198.673
  0
LINE
  8
0
 10
118.645
 20
198.673
 11
118.187
 21
199.103
  0
LINE
  8
0
 10
118.187
 20
199.103
 11
117.679
 21
199.472
  0
LINE
  8
0
 10
117.679
 20
199.472
 11
117.129
 21
199.774
  0
LINE
  8
0
 10
117.129
 20
199.774
 11
116.545
 21
200.005
  0
LINE
  8
0
 10
116.545
 20
200.005
 11
115.937
 21
200.161
  0
LINE
  8
0
 10
115.937
 20
200.161
 11
115.314
 21
200.24
  0
LINE
  8
0
 10
115.314
 20
200.24
 11
-115.314
 21
200.24
  0
LINE
  8
0
 10
-115.314
 20
200.24
 11
-115.937
 21
200.161
  0
LINE
  8
0
 10
-115.937
 20
200.161
 11
-116.545
 21
200.005
  0
LINE
  8
0
 10
-116.545
 20
200.005
 11
-117.129
 21
199.774
  0
LINE
  8
0
 10
-117.129
 20
199.774
 11
-117.679
 21
199.472
  0
LINE
  8
0
 10
-117.679
 20
199.472
 11
-118.187
 21
199.103
  0
LINE
  8
0
 10
-118.187
 20
199.103
 11
-118.5
 21
198.809
  0
LINE
  8
0
 10
-118.5
 20
198.809
 11
-118.5
 21
200.24
  0
LINE
  8
0
 10
-118.5
 20
200.24
 11
-121.5
 21
200.24
  0
LINE
  8
0
 10
-121.5
 20
200.24
 11
-121.5
 21
177.76
  0
LINE
  8
0
 10
-121.5
 20
177.76
 11
-118.5
 21
177.76
  0
LINE
  8
0
 10
-118.5
 20
177.76
 11
-118.5
 21
179.191
  0
LINE
  8
0
 10
-114.751
 20
179.258
 11
-115.25
 21
179.321
  0
LINE
  8
0
 10
-115.25
 20
179.321
 11
-115.736
 21
179.446
  0
LINE
  8
0
 10
-115.736
 20
179.446
 11
-116.203
 21
179.631
  0
LINE
  8
0
 10
-116.203
 20
179.631
 11
-116.643
 21
179.873
  0
LINE
  8
0
 10
-116.643
 20
179.873
 11
-117.05
 21
180.168
  0
LINE
  8
0
 10
-117.05
 20
180.168
 11
-117.416
 21
180.512
  0
LINE
  8
0
 10
-117.416
 20
180.512
 11
-117.736
 21
180.899
  0
LINE
  8
0
 10
-117.736
 20
180.899
 11
-118.005
 21
181.323
  0
LINE
  8
0
 10
-118.005
 20
181.323
 11
-118.219
 21
181.778
  0
LINE
  8
0
 10
-118.219
 20
181.778
 11
-118.374
 21
182.255
  0
LINE
  8
0
 10
-118.374
 20
182.255
 11
-118.468
 21
182.749
  0
LINE
  8
0
 10
-118.468
 20
182.749
 11
-118.5
 21
183.25
  0
LINE
  8
0
 10
-118.5
 20
183.25
 11
-118.5
 21
194.75
  0
LINE
  8
0
 10
-118.5
 20
194.75
 11
-118.468
 21
195.251
  0
LINE
  8
0
 10
-118.468
 20
195.251
 11
-118.374
 21
195.745
  0
LINE
  8
0
 10
-118.374
 20
195.745
 11
-118.219
 21
196.222
  0
LINE
  8
0
 10
-118.219
 20
196.222
 11
-118.005
 21
196.677
  0
LINE
  8
0
 10
-118.005
 20
196.677
 11
-117.736
 21
197.101
  0
LINE
  8
0
 10
-117.736
 20
197.101
 11
-117.416
 21
197.488
  0
LINE
  8
0
 10
-117.416
 20
197.488
 11
-117.05
 21
197.832
  0
LINE
  8
0
 10
-117.05
 20
197.832
 11
-116.643
 21
198.127
  0
LINE
  8
0
 10
-116.643
 20
198.127
 11
-116.203
 21
198.369
  0
LINE
  8
0
 10
-116.203
 20
198.369
 11
-115.736
 21
198.554
  0
LINE
  8
0
 10
-115.736
 20
198.554
 11
-115.25
 21
198.679
  0
LINE
  8
0
 10
-115.25
 20
198.679
 11
-114.751
 21
198.742
  0
LINE
  8
0
 10
-114.751
 20
198.742
 11
114.751
 21
198.742
  0
LINE
  8
0
 10
114.751
 20
198.742
 11
115.25
 21
198.679
  0
LINE
  8
0
 10
115.25
 20
198.679
 11
115.736
 21
198.554
  0
LINE
  8
0
 10
115.736
 20
198.554
 11
116.203
 21
198.369
  0
LINE
  8
0
 10
116.203
 20
198.369
 11
116.643
 21
198.127
  0
LINE
  8
0
 10
116.643
 20
198.127
 11
117.05
 21
197.832
  0
LINE
  8
0
 10
117.05
 20
197.832
 11
117.416
 21
197.488
  0
LINE
  8
0
 10
117.416
 20
197.488
 11
117.736
 21
197.101
  0
LINE
  8
0
 10
117.736
 20
197.101
 11
118.005
 21
196.677
  0
LINE
  8
0
 10
118.005
 20
196.677
 11
118.219
 21
196.222
  0
LINE
  8
0
 10
118.219
 20
196.222
 11
118.374
 21
195.745
  0
LINE
  8
0
 10
118.374
 20
195.745
 11
118.468
 21
195.251
  0
LINE
  8
0
 10
118.468
 20
195.251
 11
118.5
 21
194.75
  0
LINE
  8
0
 10
118.5
 20
194.75
 11
118.5
 21
183.25
  0
LINE
  8
0
 10
118.5
 20
183.25
 11
118.468
 21
182.749
  0
LINE
  8
0
 10
118.468
 20
182.749
 11
118.374
 21
182.255
  0
LINE
  8
0
 10
118.374
 20
182.255
 11
118.219
 21
181.778
  0
LINE
  8
0
 10
118.219
 20
181.778
 11
118.005
 21
181.323
  0
LINE
  8
0
 10
118.005
 20
181.323
 11
117.736
 21
180.899
  0
LINE
  8
0
 10
117.736
 20
180.899
 11
117.416
 21
180.512
  0
LINE
  8
0
 10
117.416
 20
180.512
 11
117.05
 21
180.168
  0
LINE
  8
0
 10
117.05
 20
180.168
 11
116.643
 21
179.873
  0
LINE
  8
0
 10
116.643
 20
179.873
 11
116.203
 21
179.631
  0
LINE
  8
0
 10
116.203
 20
179.631
 11
115.736
 21
179.446
  0
LINE
  8
0
 10
115.736
 20
179.446
 11
115.25
 21
179.321
  0
LINE
  8
0
 10
115.25
 20
179.321
 11
114.751
 21
179.258
  0
LINE
  8
0
 10
114.751
 20
179.258
 11
-114.751
 21
179.258
  0
LINE
  8
0
 10
-118.5
 20
147.691
 11
-118.187
 21
147.397
  0
LINE
  8
0
 10
-118.187
 20
147.397
 11
-117.679
 21
147.028
  0
LINE
  8
0
 10
-117.679
 20
147.028
 11
-117.129
 21
146.726
  0
LINE
  8
0
 10
-117.129
 20
146.726
 11
-116.545
 21
146.495
  0
LINE
  8
0
 10
-116.545
 20
146.495
 11
-115.937
 21
146.339
  0
LINE
  8
0
 10
-115.937
 20
146.339
 11
-115.314
 21
146.26
  0
LINE
  8
0
 10
-115.314
 20
146.26
 11
115.314
 21
146.26
  0
LINE
  8
0
 10
115.314
 20
146.26
 11
115.937
 21
146.339
  0
LINE
  8
0
 10
115.937
 20
146.339
 11
116.545
 21
146.495
  0
LINE
  8
0
 10
116.545
 20
146.495
 11
117.129
 21
146.726
  0
LINE
  8
0
 10
117.129
 20
146.726
 11
117.679
 21
147.028
  0
LINE
  8
0
 10
117.679
 20
147.028
 11
118.187
 21
147.397
  0
LINE
  8
0
 10
118.187
 20
147.397
 11
118.645
 21
147.827
  0
LINE
  8
0
 10
118.645
 20
147.827
 11
119.045
 21
148.311
  0
LINE
  8
0
 10
119.045
 20
148.311
 11
119.382
 21
148.841
  0
LINE
  8
0
 10
119.382
 20
148.841
 11
119.649
 21
149.409
  0
LINE
  8
0
 10
119.649
 20
149.409
 11
119.843
 21
150.007
  0
LINE
  8
0
 10
119.843
 20
150.007
 11
119.961
 21
150.623
  0
LINE
  8
0
 10
119.961
 20
150.623
 11
120
 21
151.25
  0
LINE
  8
0
 10
120
 20
151.25
 11
120
 21
163.75
  0
LINE
  8
0
 10
120
 20
163.75
 11
119.961
 21
164.377
  0
LINE
  8
0
 10
119.961
 20
164.377
 11
119.843
 21
164.993
  0
LINE
  8
0
 10
119.843
 20
164.993
 11
119.649
 21
165.591
  0
LINE
  8
0
 10
119.649
 20
165.591
 11
119.382
 21
166.159
  0
LINE
  8
0
 10
119.382
 20
166.159
 11
119.045
 21
166.689
  0
LINE
  8
0
 10
119.045
 20
166.689
 11
118.645
 21
167.173
  0
LINE
  8
0
 10
118.645
 20
167.173
 11
118.187
 21
167.603
  0
LINE
  8
0
 10
118.187
 20
167.603
 11
117.679
 21
167.972
  0
LINE
  8
0
 10
117.679
 20
167.972
 11
117.129
 21
168.274
  0
LINE
  8
0
 10
117.129
 20
168.274
 11
116.545
 21
168.505
  0
LINE
  8
0
 10
116.545
 20
168.505
 11
115.937
 21
168.661
  0
LINE
  8
0
 10
115.937
 20
168.661
 11
115.314
 21
168.74
  0
LINE
  8
0
 10
115.314
 20
168.74
 11
-115.314
 21
168.74
  0
LINE
  8
0
 10
-115.314
 20
168.74
 11
-115.937
 21
168.661
  0
LINE
  8
0
 10
-115.937
 20
168.661
 11
-116.545
 21
168.505
  0
LINE
  8
0
 10
-116.545
 20
168.505
 11
-117.129
 21
168.274
  0
LINE
  8
0
 10
-117.129
 20
168.274
 11
-117.679
 21
167.972
  0
LINE
  8
0
 10
-117.679
 20
167.972
 11
-118.187
 21
167.603
  0
LINE
  8
0
 10
-118.187
 20
167.603
 11
-118.5
 21
167.309
  0
LINE
  8
0
 10
-118.5
 20
167.309
 11
-118.5
 21
168.74
  0
LINE
  8
0
 10
-118.5
 20
168.74
 11
-121.5
 21
168.74
  0
LINE
  8
0
 10
-121.5
 20
168.74
 11
-121.5
 21
146.26
  0
LINE
  8
0
 10
-121.5
 20
146.26
 11
-118.5
 21
146.26
  0
LINE
  8
0
 10
-118.5
 20
146.26
 11
-118.5
 21
147.691
  0
LINE
  8
0
 10
-114.743
 20
147.885
 11
-115.226
 21
147.946
  0
LINE
  8
0
 10
-115.226
 20
147.946
 11
-115.697
 21
148.067
  0
LINE
  8
0
 10
-115.697
 20
148.067
 11
-116.149
 21
148.246
  0
LINE
  8
0
 10
-116.149
 20
148.246
 11
-116.575
 21
148.48
  0
LINE
  8
0
 10
-116.575
 20
148.48
 11
-116.969
 21
148.766
  0
LINE
  8
0
 10
-116.969
 20
148.766
 11
-117.323
 21
149.099
  0
LINE
  8
0
 10
-117.323
 20
149.099
 11
-117.633
 21
149.474
  0
LINE
  8
0
 10
-117.633
 20
149.474
 11
-117.894
 21
149.884
  0
LINE
  8
0
 10
-117.894
 20
149.884
 11
-118.101
 21
150.324
  0
LINE
  8
0
 10
-118.101
 20
150.324
 11
-118.251
 21
150.787
  0
LINE
  8
0
 10
-118.251
 20
150.787
 11
-118.342
 21
151.265
  0
LINE
  8
0
 10
-118.342
 20
151.265
 11
-118.373
 21
151.75
  0
LINE
  8
0
 10
-118.373
 20
151.75
 11
-118.373
 21
163.25
  0
LINE
  8
0
 10
-118.373
 20
163.25
 11
-118.342
 21
163.735
  0
LINE
  8
0
 10
-118.342
 20
163.735
 11
-118.251
 21
164.213
  0
LINE
  8
0
 10
-118.251
 20
164.213
 11
-118.101
 21
164.676
  0
LINE
  8
0
 10
-118.101
 20
164.676
 11
-117.894
 21
165.116
  0
LINE
  8
0
 10
-117.894
 20
165.116
 11
-117.633
 21
165.526
  0
LINE
  8
0
 10
-117.633
 20
165.526
 11
-117.323
 21
165.901
  0
LINE
  8
0
 10
-117.323
 20
165.901
 11
-116.969
 21
166.234
  0
LINE
  8
0
 10
-116.969
 20
166.234
 11
-116.575
 21
166.52
  0
LINE
  8
0
 10
-116.575
 20
166.52
 11
-116.149
 21
166.754
  0
LINE
  8
0
 10
-116.149
 20
166.754
 11
-115.697
 21
166.933
  0
LINE
  8
0
 10
-115.697
 20
166.933
 11
-115.226
 21
167.054
  0
LINE
  8
0
 10
-115.226
 20
167.054
 11
-114.743
 21
167.115
  0
LINE
  8
0
 10
-114.743
 20
167.115
 11
114.743
 21
167.115
  0
LINE
  8
0
 10
114.743
 20
167.115
 11
115.226
 21
167.054
  0
LINE
  8
0
 10
115.226
 20
167.054
 11
115.697
 21
166.933
  0
LINE
  8
0
 10
115.697
 20
166.933
 11
116.149
 21
166.754
  0
LINE
  8
0
 10
116.149
 20
166.754
 11
116.575
 21
166.52
  0
LINE
  8
0
 10
116.575
 20
166.52
 11
116.969
 21
166.234
  0
LINE
  8
0
 10
116.969
 20
166.234
 11
117.323
 21
165.901
  0
LINE
  8
0
 10
117.323
 20
165.901
 11
117.633
 21
165.526
  0
LINE
  8
0
 10
117.633
 20
165.526
 11
117.894
 21
165.116
  0
LINE
  8
0
 10
117.894
 20
165.116
 11
118.101
 21
164.676
  0
LINE
  8
0
 10
118.101
 20
164.676
 11
118.251
 21
164.213
  0
LINE
  8
0
 10
118.251
 20
164.213
 11
118.342
 21
163.735
  0
LINE
  8
0
 10
118.342
 20
163.735
 11
118.373
 21
163.25
  0
LINE
  8
0
 10
118.373
 20
163.25
 11
118.373
 21
151.75
  0
LINE
  8
0
 10
118.373
 20
151.75
 11
118.342
 21
151.265
  0
LINE
  8
0
 10
118.342
 20
151.265
 11
118.251
 21
150.787
  0
LINE
  8
0
 10
118.251
 20
150.787
 11
118.101
 21
150.324
  0
LINE
  8
0
 10
118.101
 20
150.324
 11
117.894
 21
149.884
  0
LINE
  8
0
 10
117.894
 20
149.884
 11
117.633
 21
149.474
  0
LINE
  8
0
 10
117.633
 20
149.474
 11
117.323
 21
149.099
  0
LINE
  8
0
 10
117.323
 20
149.099
 11
116.969
 21
148.766
  0
LINE
  8
0
 10
116.969
 20
148.766
 11
116.575
 21
148.48
  0
LINE
  8
0
 10
116.575
 20
148.48
 11
116.149
 21
148.246
  0
LINE
  8
0
 10
116.149
 20
148.246
 11
115.697
 21
148.067
  0
LINE
  8
0
 10
115.697
 20
148.067
 11
115.226
 21
147.946
  0
LINE
  8
0
 10
115.226
 20
147.946
 11
114.743
 21
147.885
  0
LINE
  8
0
 10
114.743
 20
147.885
 11
-114.743
 21
147.885
  0
LINE
  8
0
 10
115.937
 20
114.839
 11
116.545
 21
114.995
  0
LINE
  8
0
 10
116.545
 20
114.995
 11
117.129
 21
115.226
  0
LINE
  8
0
 10
117.129
 20
115.226
 11
117.679
 21
115.528
  0
LINE
  8
0
 10
117.679
 20
115.528
 11
118.187
 21
115.897
  0
LINE
  8
0
 10
118.187
 20
115.897
 11
118.645
 21
116.327
  0
LINE
  8
0
 10
118.645
 20
116.327
 11
119.045
 21
116.811
  0
LINE
  8
0
 10
119.045
 20
116.811
 11
119.382
 21
117.341
  0
LINE
  8
0
 10
119.382
 20
117.341
 11
119.649
 21
117.909
  0
LINE
  8
0
 10
119.649
 20
117.909
 11
119.843
 21
118.507
  0
LINE
  8
0
 10
119.843
 20
118.507
 11
119.961
 21
119.123
  0
LINE
  8
0
 10
119.961
 20
119.123
 11
120
 21
119.75
  0
LINE
  8
0
 10
120
 20
119.75
 11
120
 21
132.25
  0
LINE
  8
0
 10
120
 20
132.25
 11
119.961
 21
132.877
  0
LINE
  8
0
 10
119.961
 20
132.877
 11
119.843
 21
133.493
  0
LINE
  8
0
 10
119.843
 20
133.493
 11
119.649
 21
134.091
  0
LINE
  8
0
 10
119.649
 20
134.091
 11
119.382
 21
134.659
  0
LINE
  8
0
 10
119.382
 20
134.659
 11
119.045
 21
135.189
  0
LINE
  8
0
 10
119.045
 20
135.189
 11
118.645
 21
135.673
  0
LINE
  8
0
 10
118.645
 20
135.673
 11
118.187
 21
136.103
  0
LINE
  8
0
 10
118.187
 20
136.103
 11
117.679
 21
136.472
  0
LINE
  8
0
 10
117.679
 20
136.472
 11
117.129
 21
136.774
  0
LINE
  8
0
 10
117.129
 20
136.774
 11
116.545
 21
137.005
  0
LINE
  8
0
 10
116.545
 20
137.005
 11
115.937
 21
137.161
  0
LINE
  8
0
 10
115.937
 20
137.161
 11
115.314
 21
137.24
  0
LINE
  8
0
 10
115.314
 20
137.24
 11
-115.314
 21
137.24
  0
LINE
  8
0
 10
-115.314
 20
137.24
 11
-115.937
 21
137.161
  0
LINE
  8
0
 10
-115.937
 20
137.161
 11
-116.545
 21
137.005
  0
LINE
  8
0
 10
-116.545
 20
137.005
 11
-117.129
 21
136.774
  0
LINE
  8
0
 10
-117.129
 20
136.774
 11
-117.679
 21
136.472
  0
LINE
  8
0
 10
-117.679
 20
136.472
 11
-118.187
 21
136.103
  0
LINE
  8
0
 10
-118.187
 20
136.103
 11
-118.5
 21
135.809
  0
LINE
  8
0
 10
-118.5
 20
135.809
 11
-118.5
 21
136.865
  0
LINE
  8
0
 10
-118.5
 20
136.865
 11
-121.5
 21
136.865
  0
LINE
  8
0
 10
-121.5
 20
136.865
 11
-121.5
 21
115.135
  0
LINE
  8
0
 10
-121.5
 20
115.135
 11
-118.5
 21
115.135
  0
LINE
  8
0
 10
-118.5
 20
115.135
 11
-118.5
 21
116.191
  0
LINE
  8
0
 10
-118.5
 20
116.191
 11
-118.187
 21
115.897
  0
LINE
  8
0
 10
-118.187
 20
115.897
 11
-117.679
 21
115.528
  0
LINE
  8
0
 10
-117.679
 20
115.528
 11
-117.129
 21
115.226
  0
LINE
  8
0
 10
-117.129
 20
115.226
 11
-116.545
 21
114.995
  0
LINE
  8
0
 10
-116.545
 20
114.995
 11
-115.937
 21
114.839
  0
LINE
  8
0
 10
-115.937
 20
114.839
 11
-115.314
 21
114.76
  0
LINE
  8
0
 10
-115.314
 20
114.76
 11
115.314
 21
114.76
  0
LINE
  8
0
 10
115.314
 20
114.76
 11
115.937
 21
114.839
  0
LINE
  8
0
 10
-112.651
 20
127.355
 11
-112.95
 21
127.393
  0
LINE
  8
0
 10
-112.95
 20
127.393
 11
-113.242
 21
127.467
  0
LINE
  8
0
 10
-113.242
 20
127.467
 11
-113.522
 21
127.578
  0
LINE
  8
0
 10
-113.522
 20
127.578
 11
-113.786
 21
127.724
  0
LINE
  8
0
 10
-113.786
 20
127.724
 11
-114.03
 21
127.901
  0
LINE
  8
0
 10
-114.03
 20
127.901
 11
-114.25
 21
128.107
  0
LINE
  8
0
 10
-114.25
 20
128.107
 11
-114.442
 21
128.339
  0
LINE
  8
0
 10
-114.442
 20
128.339
 11
-114.603
 21
128.594
  0
LINE
  8
0
 10
-114.603
 20
128.594
 11
-114.731
 21
128.867
  0
LINE
  8
0
 10
-114.731
 20
128.867
 11
-114.825
 21
129.153
  0
LINE
  8
0
 10
-114.825
 20
129.153
 11
-114.881
 21
129.449
  0
LINE
  8
0
 10
-114.881
 20
129.449
 11
-114.9
 21
129.75
  0
LINE
  8
0
 10
-114.9
 20
129.75
 11
-114.881
 21
130.051
  0
LINE
  8
0
 10
-114.881
 20
130.051
 11
-114.825
 21
130.347
  0
LINE
  8
0
 10
-114.825
 20
130.347
 11
-114.731
 21
130.633
  0
LINE
  8
0
 10
-114.731
 20
130.633
 11
-114.603
 21
130.906
  0
LINE
  8
0
 10
-114.603
 20
130.906
 11
-114.442
 21
131.161
  0
LINE
  8
0
 10
-114.442
 20
131.161
 11
-114.25
 21
131.393
  0
LINE
  8
0
 10
-114.25
 20
131.393
 11
-114.03
 21
131.599
  0
LINE
  8
0
 10
-114.03
 20
131.599
 11
-113.786
 21
131.776
  0
LINE
  8
0
 10
-113.786
 20
131.776
 11
-113.522
 21
131.922
  0
LINE
  8
0
 10
-113.522
 20
131.922
 11
-113.242
 21
132.033
  0
LINE
  8
0
 10
-113.242
 20
132.033
 11
-112.95
 21
132.107
  0
LINE
  8
0
 10
-112.95
 20
132.107
 11
-112.651
 21
132.145
  0
LINE
  8
0
 10
-112.651
 20
132.145
 11
-112.349
 21
132.145
  0
LINE
  8
0
 10
-112.349
 20
132.145
 11
-112.05
 21
132.107
  0
LINE
  8
0
 10
-112.05
 20
132.107
 11
-111.758
 21
132.033
  0
LINE
  8
0
 10
-111.758
 20
132.033
 11
-111.478
 21
131.922
  0
LINE
  8
0
 10
-111.478
 20
131.922
 11
-111.214
 21
131.776
  0
LINE
  8
0
 10
-111.214
 20
131.776
 11
-110.97
 21
131.599
  0
LINE
  8
0
 10
-110.97
 20
131.599
 11
-110.75
 21
131.393
  0
LINE
  8
0
 10
-110.75
 20
131.393
 11
-110.558
 21
131.161
  0
LINE
  8
0
 10
-110.558
 20
131.161
 11
-110.397
 21
130.906
  0
LINE
  8
0
 10
-110.397
 20
130.906
 11
-110.269
 21
130.633
  0
LINE
  8
0
 10
-110.269
 20
130.633
 11
-110.175
 21
130.347
  0
LINE
  8
0
 10
-110.175
 20
130.347
 11
-110.119
 21
130.051
  0
LINE
  8
0
 10
-110.119
 20
130.051
 11
-110.1
 21
129.75
  0
LINE
  8
0
 10
-110.1
 20
129.75
 11
-110.119
 21
129.449
  0
LINE
  8
0
 10
-110.119
 20
129.449
 11
-110.175
 21
129.153
  0
LINE
  8
0
 10
-110.175
 20
129.153
 11
-110.269
 21
128.867
  0
LINE
  8
0
 10
-110.269
 20
128.867
 11
-110.397
 21
128.594
  0
LINE
  8
0
 10
-110.397
 20
128.594
 11
-110.558
 21
128.339
  0
LINE
  8
0
 10
-110.558
 20
128.339
 11
-110.75
 21
128.107
  0
LINE
  8
0
 10
-110.75
 20
128.107
 11
-110.97
 21
127.901
  0
LINE
  8
0
 10
-110.97
 20
127.901
 11
-111.214
 21
127.724
  0
LINE
  8
0
 10
-111.214
 20
127.724
 11
-111.478
 21
127.578
  0
LINE
  8
0
 10
-111.478
 20
127.578
 11
-111.758
 21
127.467
  0
LINE
  8
0
 10
-111.758
 20
127.467
 11
-112.05
 21
127.393
  0
LINE
  8
0
 10
-112.05
 20
127.393
 11
-112.349
 21
127.355
  0
LINE
  8
0
 10
-112.349
 20
127.355
 11
-112.651
 21
127.355
  0
LINE
  8
0
 10
112.349
 20
127.355
 11
112.05
 21
127.393
  0
LINE
  8
0
 10
112.05
 20
127.393
 11
111.758
 21
127.467
  0
LINE
  8
0
 10
111.758
 20
127.467
 11
111.478
 21
127.578
  0
LINE
  8
0
 10
111.478
 20
127.578
 11
111.214
 21
127.724
  0
LINE
  8
0
 10
111.214
 20
127.724
 11
110.97
 21
127.901
  0
LINE
  8
0
 10
110.97
 20
127.901
 11
110.75
 21
128.107
  0
LINE
  8
0
 10
110.75
 20
128.107
 11
110.558
 21
128.339
  0
LINE
  8
0
 10
110.558
 20
128.339
 11
110.397
 21
128.594
  0
LINE
  8
0
 10
110.397
 20
128.594
 11
110.269
 21
128.867
  0
LINE
  8
0
 10
110.269
 20
128.867
 11
110.175
 21
129.153
  0
LINE
  8
0
 10
110.175
 20
129.153
 11
110.119
 21
129.449
  0
LINE
  8
0
 10
110.119
 20
129.449
 11
110.1
 21
129.75
  0
LINE
  8
0
 10
110.1
 20
129.75
 11
110.119
 21
130.051
  0
LINE
  8
0
 10
110.119
 20
130.051
 11
110.175
 21
130.347
  0
LINE
  8
0
 10
110.175
 20
130.347
 11
110.269
 21
130.633
  0
LINE
  8
0
 10
110.269
 20
130.633
 11
110.397
 21
130.906
  0
LINE
  8
0
 10
110.397
 20
130.906
 11
110.558
 21
131.161
  0
LINE
  8
0
 10
110.558
 20
131.161
 11
110.75
 21
131.393
  0
LINE
  8
0
 10
110.75
 20
131.393
 11
110.97
 21
131.599
  0
LINE
  8
0
 10
110.97
 20
131.599
 11
111.214
 21
131.776
  0
LINE
  8
0
 10
111.214
 20
131.776
 11
111.478
 21
131.922
  0
LINE
  8
0
 10
111.478
 20
131.922
 11
111.758
 21
132.033
  0
LINE
  8
0
 10
111.758
 20
132.033
 11
112.05
 21
132.107
  0
LINE
  8
0
 10
112.05
 20
132.107
 11
112.349
 21
132.145
  0
LINE
  8
0
 10
112.349
 20
132.145
 11
112.651
 21
132.145
  0
LINE
  8
0
 10
112.651
 20
132.145
 11
112.95
 21
132.107
  0
LINE
  8
0
 10
112.95
 20
132.107
 11
113.242
 21
132.033
  0
LINE
  8
0
 10
113.242
 20
132.033
 11
113.522
 21
131.922
  0
LINE
  8
0
 10
113.522
 20
131.922
 11
113.786
 21
131.776
  0
LINE
  8
0
 10
113.786
 20
131.776
 11
114.03
 21
131.599
  0
LINE
  8
0
 10
114.03
 20
131.599
 11
114.25
 21
131.393
  0
LINE
  8
0
 10
114.25
 20
131.393
 11
114.442
 21
131.161
  0
LINE
  8
0
 10
114.442
 20
131.161
 11
114.603
 21
130.906
  0
LINE
  8
0
 10
114.603
 20
130.906
 11
114.731
 21
130.633
  0
LINE
  8
0
 10
114.731
 20
130.633
 11
114.825
 21
130.347
  0
LINE
  8
0
 10
114.825
 20
130.347
 11
114.881
 21
130.051
  0
LINE
  8
0
 10
114.881
 20
130.051
 11
114.9
 21
129.75
  0
LINE
  8
0
 10
114.9
 20
129.75
 11
114.881
 21
129.449
  0
LINE
  8
0
 10
114.881
 20
129.449
 11
114.825
 21
129.153
  0
LINE
  8
0
 10
114.825
 20
129.153
 11
114.731
 21
128.867
  0
LINE
  8
0
 10
114.731
 20
128.867
 11
114.603
 21
128.594
  0
LINE
  8
0
 10
114.603
 20
128.594
 11
114.442
 21
128.339
  0
LINE
  8
0
 10
114.442
 20
128.339
 11
114.25
 21
128.107
  0
LINE
  8
0
 10
114.25
 20
128.107
 11
114.03
 21
127.901
  0
LINE
  8
0
 10
114.03
 20
127.901
 11
113.786
 21
127.724
  0
LINE
  8
0
 10
113.786
 20
127.724
 11
113.522
 21
127.578
  0
LINE
  8
0
 10
113.522
 20
127.578
 11
113.242
 21
127.467
  0
LINE
  8
0
 10
113.242
 20
127.467
 11
112.95
 21
127.393
  0
LINE
  8
0
 10
112.95
 20
127.393
 11
112.651
 21
127.355
  0
LINE
  8
0
 10
112.651
 20
127.355
 11
112.349
 21
127.355
  0
LINE
  8
0
 10
112.349
 20
119.855
 11
112.05
 21
119.893
  0
LINE
  8
0
 10
112.05
 20
119.893
 11
111.758
 21
119.967
  0
LINE
  8
0
 10
111.758
 20
119.967
 11
111.478
 21
120.078
  0
LINE
  8
0
 10
111.478
 20
120.078
 11
111.214
 21
120.224
  0
LINE
  8
0
 10
111.214
 20
120.224
 11
110.97
 21
120.401
  0
LINE
  8
0
 10
110.97
 20
120.401
 11
110.75
 21
120.607
  0
LINE
  8
0
 10
110.75
 20
120.607
 11
110.558
 21
120.839
  0
LINE
  8
0
 10
110.558
 20
120.839
 11
110.397
 21
121.094
  0
LINE
  8
0
 10
110.397
 20
121.094
 11
110.269
 21
121.367
  0
LINE
  8
0
 10
110.269
 20
121.367
 11
110.175
 21
121.653
  0
LINE
  8
0
 10
110.175
 20
121.653
 11
110.119
 21
121.949
  0
LINE
  8
0
 10
110.119
 20
121.949
 11
110.1
 21
122.25
  0
LINE
  8
0
 10
110.1
 20
122.25
 11
110.119
 21
122.551
  0
LINE
  8
0
 10
110.119
 20
122.551
 11
110.175
 21
122.847
  0
LINE
  8
0
 10
110.175
 20
122.847
 11
110.269
 21
123.133
  0
LINE
  8
0
 10
110.269
 20
123.133
 11
110.397
 21
123.406
  0
LINE
  8
0
 10
110.397
 20
123.406
 11
110.558
 21
123.661
  0
LINE
  8
0
 10
110.558
 20
123.661
 11
110.75
 21
123.893
  0
LINE
  8
0
 10
110.75
 20
123.893
 11
110.97
 21
124.099
  0
LINE
  8
0
 10
110.97
 20
124.099
 11
111.214
 21
124.276
  0
LINE
  8
0
 10
111.214
 20
124.276
 11
111.478
 21
124.422
  0
LINE
  8
0
 10
111.478
 20
124.422
 11
111.758
 21
124.533
  0
LINE
  8
0
 10
111.758
 20
124.533
 11
112.05
 21
124.607
  0
LINE
  8
0
 10
112.05
 20
124.607
 11
112.349
 21
124.645
  0
LINE
  8
0
 10
112.349
 20
124.645
 11
112.651
 21
124.645
  0
LINE
  8
0
 10
112.651
 20
124.645
 11
112.95
 21
124.607
  0
LINE
  8
0
 10
112.95
 20
124.607
 11
113.242
 21
124.533
  0
LINE
  8
0
 10
113.242
 20
124.533
 11
113.522
 21
124.422
  0
LINE
  8
0
 10
113.522
 20
124.422
 11
113.786
 21
124.276
  0
LINE
  8
0
 10
113.786
 20
124.276
 11
114.03
 21
124.099
  0
LINE
  8
0
 10
114.03
 20
124.099
 11
114.25
 21
123.893
  0
LINE
  8
0
 10
114.25
 20
123.893
 11
114.442
 21
123.661
  0
LINE
  8
0
 10
114.442
 20
123.661
 11
114.603
 21
123.406
  0
LINE
  8
0
 10
114.603
 20
123.406
 11
114.731
 21
123.133
  0
LINE
  8
0
 10
114.731
 20
123.133
 11
114.825
 21
122.847
  0
LINE
  8
0
 10
114.825
 20
122.847
 11
114.881
 21
122.551
  0
LINE
  8
0
 10
114.881
 20
122.551
 11
114.9
 21
122.25
  0
LINE
  8
0
 10
114.9
 20
122.25
 11
114.881
 21
121.949
  0
LINE
  8
0
 10
114.881
 20
121.949
 11
114.825
 21
121.653
  0
LINE
  8
0
 10
114.825
 20
121.653
 11
114.731
 21
121.367
  0
LINE
  8
0
 10
114.731
 20
121.367
 11
114.603
 21
121.094
  0
LINE
  8
0
 10
114.603
 20
121.094
 11
114.442
 21
120.839
  0
LINE
  8
0
 10
114.442
 20
120.839
 11
114.25
 21
120.607
  0
LINE
  8
0
 10
114.25
 20
120.607
 11
114.03
 21
120.401
  0
LINE
  8
0
 10
114.03
 20
120.401
 11
113.786
 21
120.224
  0
LINE
  8
0
 10
113.786
 20
120.224
 11
113.522
 21
120.078
  0
LINE
  8
0
 10
113.522
 20
120.078
 11
113.242
 21
119.967
  0
LINE
  8
0
 10
113.242
 20
119.967
 11
112.95
 21
119.893
  0
LINE
  8
0
 10
112.95
 20
119.893
 11
112.651
 21
119.855
  0
LINE
  8
0
 10
112.651
 20
119.855
 11
112.349
 21
119.855
  0
LINE
  8
0
 10
-112.651
 20
119.855
 11
-112.95
 21
119.893
  0
LINE
  8
0
 10
-112.95
 20
119.893
 11
-113.242
 21
119.967
  0
LINE
  8
0
 10
-113.242
 20
119.967
 11
-113.522
 21
120.078
  0
LINE
  8
0
 10
-113.522
 20
120.078
 11
-113.786
 21
120.224
  0
LINE
  8
0
 10
-113.786
 20
120.224
 11
-114.03
 21
120.401
  0
LINE
  8
0
 10
-114.03
 20
120.401
 11
-114.25
 21
120.607
  0
LINE
  8
0
 10
-114.25
 20
120.607
 11
-114.442
 21
120.839
  0
LINE
  8
0
 10
-114.442
 20
120.839
 11
-114.603
 21
121.094
  0
LINE
  8
0
 10
-114.603
 20
121.094
 11
-114.731
 21
121.367
  0
LINE
  8
0
 10
-114.731
 20
121.367
 11
-114.825
 21
121.653
  0
LINE
  8
0
 10
-114.825
 20
121.653
 11
-114.881
 21
121.949
  0
LINE
  8
0
 10
-114.881
 20
121.949
 11
-114.9
 21
122.25
  0
LINE
  8
0
 10
-114.9
 20
122.25
 11
-114.881
 21
122.551
  0
LINE
  8
0
 10
-114.881
 20
122.551
 11
-114.825
 21
122.847
  0
LINE
  8
0
 10
-114.825
 20
122.847
 11
-114.731
 21
123.133
  0
LINE
  8
0
 10
-114.731
 20
123.133
 11
-114.603
 21
123.406
  0
LINE
  8
0
 10
-114.603
 20
123.406
 11
-114.442
 21
123.661
  0
LINE
  8
0
 10
-114.442
 20
123.661
 11
-114.25
 21
123.893
  0
LINE
  8
0
 10
-114.25
 20
123.893
 11
-114.03
 21
124.099
  0
LINE
  8
0
 10
-114.03
 20
124.099
 11
-113.786
 21
124.276
  0
LINE
  8
0
 10
-113.786
 20
124.276
 11
-113.522
 21
124.422
  0
LINE
  8
0
 10
-113.522
 20
124.422
 11
-113.242
 21
124.533
  0
LINE
  8
0
 10
-113.242
 20
124.533
 11
-112.95
 21
124.607
  0
LINE
  8
0
 10
-112.95
 20
124.607
 11
-112.651
 21
124.645
  0
LINE
  8
0
 10
-112.651
 20
124.645
 11
-112.349
 21
124.645
  0
LINE
  8
0
 10
-112.349
 20
124.645
 11
-112.05
 21
124.607
  0
LINE
  8
0
 10
-112.05
 20
124.607
 11
-111.758
 21
124.533
  0
LINE
  8
0
 10
-111.758
 20
124.533
 11
-111.478
 21
124.422
  0
LINE
  8
0
 10
-111.478
 20
124.422
 11
-111.214
 21
124.276
  0
LINE
  8
0
 10
-111.214
 20
124.276
 11
-110.97
 21
124.099
  0
LINE
  8
0
 10
-110.97
 20
124.099
 11
-110.75
 21
123.893
  0
LINE
  8
0
 10
-110.75
 20
123.893
 11
-110.558
 21
123.661
  0
LINE
  8
0
 10
-110.558
 20
123.661
 11
-110.397
 21
123.406
  0
LINE
  8
0
 10
-110.397
 20
123.406
 11
-110.269
 21
123.133
  0
LINE
  8
0
 10
-110.269
 20
123.133
 11
-110.175
 21
122.847
  0
LINE
  8
0
 10
-110.175
 20
122.847
 11
-110.119
 21
122.551
  0
LINE
  8
0
 10
-110.119
 20
122.551
 11
-110.1
 21
122.25
  0
LINE
  8
0
 10
-110.1
 20
122.25
 11
-110.119
 21
121.949
  0
LINE
  8
0
 10
-110.119
 20
121.949
 11
-110.175
 21
121.653
  0
LINE
  8
0
 10
-110.175
 20
121.653
 11
-110.269
 21
121.367
  0
LINE
  8
0
 10
-110.269
 20
121.367
 11
-110.397
 21
121.094
  0
LINE
  8
0
 10
-110.397
 20
121.094
 11
-110.558
 21
120.839
  0
LINE
  8
0
 10
-110.558
 20
120.839
 11
-110.75
 21
120.607
  0
LINE
  8
0
 10
-110.75
 20
120.607
 11
-110.97
 21
120.401
  0
LINE
  8
0
 10
-110.97
 20
120.401
 11
-111.214
 21
120.224
  0
LINE
  8
0
 10
-111.214
 20
120.224
 11
-111.478
 21
120.078
  0
LINE
  8
0
 10
-111.478
 20
120.078
 11
-111.758
 21
119.967
  0
LINE
  8
0
 10
-111.758
 20
119.967
 11
-112.05
 21
119.893
  0
LINE
  8
0
 10
-112.05
 20
119.893
 11
-112.349
 21
119.855
  0
LINE
  8
0
 10
-112.349
 20
119.855
 11
-112.651
 21
119.855
  0
LINE
  8
0
 10
115.937
 20
83.3386
 11
116.545
 21
83.4947
  0
LINE
  8
0
 10
116.545
 20
83.4947
 11
117.129
 21
83.7259
  0
LINE
  8
0
 10
117.129
 20
83.7259
 11
117.679
 21
84.0284
  0
LINE
  8
0
 10
117.679
 20
84.0284
 11
118.187
 21
84.3974
  0
LINE
  8
0
 10
118.187
 20
84.3974
 11
118.645
 21
84.8273
  0
LINE
  8
0
 10
118.645
 20
84.8273
 11
119.045
 21
85.3111
  0
LINE
  8
0
 10
119.045
 20
85.3111
 11
119.382
 21
85.8412
  0
LINE
  8
0
 10
119.382
 20
85.8412
 11
119.649
 21
86.4094
  0
LINE
  8
0
 10
119.649
 20
86.4094
 11
119.843
 21
87.0066
  0
LINE
  8
0
 10
119.843
 20
87.0066
 11
119.961
 21
87.6233
  0
LINE
  8
0
 10
119.961
 20
87.6233
 11
120
 21
88.25
  0
LINE
  8
0
 10
120
 20
88.25
 11
120
 21
100.75
  0
LINE
  8
0
 10
120
 20
100.75
 11
119.961
 21
101.377
  0
LINE
  8
0
 10
119.961
 20
101.377
 11
119.843
 21
101.993
  0
LINE
  8
0
 10
119.843
 20
101.993
 11
119.649
 21
102.591
  0
LINE
  8
0
 10
119.649
 20
102.591
 11
119.382
 21
103.159
  0
LINE
  8
0
 10
119.382
 20
103.159
 11
119.045
 21
103.689
  0
LINE
  8
0
 10
119.045
 20
103.689
 11
118.645
 21
104.173
  0
LINE
  8
0
 10
118.645
 20
104.173
 11
118.187
 21
104.603
  0
LINE
  8
0
 10
118.187
 20
104.603
 11
117.679
 21
104.972
  0
LINE
  8
0
 10
117.679
 20
104.972
 11
117.129
 21
105.274
  0
LINE
  8
0
 10
117.129
 20
105.274
 11
116.545
 21
105.505
  0
LINE
  8
0
 10
116.545
 20
105.505
 11
115.937
 21
105.661
  0
LINE
  8
0
 10
115.937
 20
105.661
 11
115.314
 21
105.74
  0
LINE
  8
0
 10
115.314
 20
105.74
 11
-115.314
 21
105.74
  0
LINE
  8
0
 10
-115.314
 20
105.74
 11
-115.937
 21
105.661
  0
LINE
  8
0
 10
-115.937
 20
105.661
 11
-116.545
 21
105.505
  0
LINE
  8
0
 10
-116.545
 20
105.505
 11
-117.129
 21
105.274
  0
LINE
  8
0
 10
-117.129
 20
105.274
 11
-117.679
 21
104.972
  0
LINE
  8
0
 10
-117.679
 20
104.972
 11
-118.187
 21
104.603
  0
LINE
  8
0
 10
-118.187
 20
104.603
 11
-118.645
 21
104.173
  0
LINE
  8
0
 10
-118.645
 20
104.173
 11
-119.045
 21
103.689
  0
LINE
  8
0
 10
-119.045
 20
103.689
 11
-119.382
 21
103.159
  0
LINE
  8
0
 10
-119.382
 20
103.159
 11
-119.649
 21
102.591
  0
LINE
  8
0
 10
-119.649
 20
102.591
 11
-119.843
 21
101.993
  0
LINE
  8
0
 10
-119.843
 20
101.993
 11
-119.9
 21
101.694
  0
LINE
  8
0
 10
-119.9
 20
101.694
 11
-121.5
 21
101.694
  0
LINE
  8
0
 10
-121.5
 20
101.694
 11
-121.5
 21
87.3058
  0
LINE
  8
0
 10
-121.5
 20
87.3058
 11
-119.9
 21
87.3058
  0
LINE
  8
0
 10
-119.9
 20
87.3058
 11
-119.843
 21
87.0066
  0
LINE
  8
0
 10
-119.843
 20
87.0066
 11
-119.649
 21
86.4094
  0
LINE
  8
0
 10
-119.649
 20
86.4094
 11
-119.382
 21
85.8412
  0
LINE
  8
0
 10
-119.382
 20
85.8412
 11
-119.045
 21
85.3111
  0
LINE
  8
0
 10
-119.045
 20
85.3111
 11
-118.645
 21
84.8273
  0
LINE
  8
0
 10
-118.645
 20
84.8273
 11
-118.187
 21
84.3974
  0
LINE
  8
0
 10
-118.187
 20
84.3974
 11
-117.679
 21
84.0284
  0
LINE
  8
0
 10
-117.679
 20
84.0284
 11
-117.129
 21
83.7259
  0
LINE
  8
0
 10
-117.129
 20
83.7259
 11
-116.545
 21
83.4947
  0
LINE
  8
0
 10
-116.545
 20
83.4947
 11
-115.937
 21
83.3386
  0
LINE
  8
0
 10
-115.937
 20
83.3386
 11
-115.314
 21
83.2599
  0
LINE
  8
0
 10
-115.314
 20
83.2599
 11
115.314
 21
83.2599
  0
LINE
  8
0
 10
115.314
 20
83.2599
 11
115.937
 21
83.3386
  0
LINE
  8
0
 10
112.387
 20
96.4536
 11
112.163
 21
96.4819
  0
LINE
  8
0
 10
112.163
 20
96.4819
 11
111.944
 21
96.5381
  0
LINE
  8
0
 10
111.944
 20
96.5381
 11
111.734
 21
96.6213
  0
LINE
  8
0
 10
111.734
 20
96.6213
 11
111.536
 21
96.7302
  0
LINE
  8
0
 10
111.536
 20
96.7302
 11
111.353
 21
96.8631
  0
LINE
  8
0
 10
111.353
 20
96.8631
 11
111.188
 21
97.0178
  0
LINE
  8
0
 10
111.188
 20
97.0178
 11
111.044
 21
97.192
  0
LINE
  8
0
 10
111.044
 20
97.192
 11
110.923
 21
97.3828
  0
LINE
  8
0
 10
110.923
 20
97.3828
 11
110.826
 21
97.5874
  0
LINE
  8
0
 10
110.826
 20
97.5874
 11
110.757
 21
97.8024
  0
LINE
  8
0
 10
110.757
 20
97.8024
 11
110.714
 21
98.0244
  0
LINE
  8
0
 10
110.714
 20
98.0244
 11
110.7
 21
98.25
  0
LINE
  8
0
 10
110.7
 20
98.25
 11
110.714
 21
98.4756
  0
LINE
  8
0
 10
110.714
 20
98.4756
 11
110.757
 21
98.6976
  0
LINE
  8
0
 10
110.757
 20
98.6976
 11
110.826
 21
98.9126
  0
LINE
  8
0
 10
110.826
 20
98.9126
 11
110.923
 21
99.1171
  0
LINE
  8
0
 10
110.923
 20
99.1171
 11
111.044
 21
99.308
  0
LINE
  8
0
 10
111.044
 20
99.308
 11
111.188
 21
99.4822
  0
LINE
  8
0
 10
111.188
 20
99.4822
 11
111.353
 21
99.6369
  0
LINE
  8
0
 10
111.353
 20
99.6369
 11
111.536
 21
99.7698
  0
LINE
  8
0
 10
111.536
 20
99.7698
 11
111.734
 21
99.8787
  0
LINE
  8
0
 10
111.734
 20
99.8787
 11
111.944
 21
99.9619
  0
LINE
  8
0
 10
111.944
 20
99.9619
 11
112.163
 21
100.018
  0
LINE
  8
0
 10
112.163
 20
100.018
 11
112.387
 21
100.046
  0
LINE
  8
0
 10
112.387
 20
100.046
 11
112.613
 21
100.046
  0
LINE
  8
0
 10
112.613
 20
100.046
 11
112.837
 21
100.018
  0
LINE
  8
0
 10
112.837
 20
100.018
 11
113.056
 21
99.9619
  0
LINE
  8
0
 10
113.056
 20
99.9619
 11
113.266
 21
99.8787
  0
LINE
  8
0
 10
113.266
 20
99.8787
 11
113.464
 21
99.7698
  0
LINE
  8
0
 10
113.464
 20
99.7698
 11
113.647
 21
99.6369
  0
LINE
  8
0
 10
113.647
 20
99.6369
 11
113.812
 21
99.4822
  0
LINE
  8
0
 10
113.812
 20
99.4822
 11
113.956
 21
99.308
  0
LINE
  8
0
 10
113.956
 20
99.308
 11
114.077
 21
99.1171
  0
LINE
  8
0
 10
114.077
 20
99.1171
 11
114.174
 21
98.9126
  0
LINE
  8
0
 10
114.174
 20
98.9126
 11
114.243
 21
98.6976
  0
LINE
  8
0
 10
114.243
 20
98.6976
 11
114.286
 21
98.4756
  0
LINE
  8
0
 10
114.286
 20
98.4756
 11
114.3
 21
98.25
  0
LINE
  8
0
 10
114.3
 20
98.25
 11
114.286
 21
98.0244
  0
LINE
  8
0
 10
114.286
 20
98.0244
 11
114.243
 21
97.8024
  0
LINE
  8
0
 10
114.243
 20
97.8024
 11
114.174
 21
97.5874
  0
LINE
  8
0
 10
114.174
 20
97.5874
 11
114.077
 21
97.3828
  0
LINE
  8
0
 10
114.077
 20
97.3828
 11
113.956
 21
97.192
  0
LINE
  8
0
 10
113.956
 20
97.192
 11
113.812
 21
97.0178
  0
LINE
  8
0
 10
113.812
 20
97.0178
 11
113.647
 21
96.8631
  0
LINE
  8
0
 10
113.647
 20
96.8631
 11
113.464
 21
96.7302
  0
LINE
  8
0
 10
113.464
 20
96.7302
 11
113.266
 21
96.6213
  0
LINE
  8
0
 10
113.266
 20
96.6213
 11
113.056
 21
96.5381
  0
LINE
  8
0
 10
113.056
 20
96.5381
 11
112.837
 21
96.4819
  0
LINE
  8
0
 10
112.837
 20
96.4819
 11
112.613
 21
96.4536
  0
LINE
  8
0
 10
112.613
 20
96.4536
 11
112.387
 21
96.4536
  0
LINE
  8
0
 10
-112.613
 20
96.4536
 11
-112.837
 21
96.4819
  0
LINE
  8
0
 10
-112.837
 20
96.4819
 11
-113.056
 21
96.5381
  0
LINE
  8
0
 10
-113.056
 20
96.5381
 11
-113.266
 21
96.6213
  0
LINE
  8
0
 10
-113.266
 20
96.6213
 11
-113.464
 21
96.7302
  0
LINE
  8
0
 10
-113.464
 20
96.7302
 11
-113.647
 21
96.8631
  0
LINE
  8
0
 10
-113.647
 20
96.8631
 11
-113.812
 21
97.0178
  0
LINE
  8
0
 10
-113.812
 20
97.0178
 11
-113.956
 21
97.192
  0
LINE
  8
0
 10
-113.956
 20
97.192
 11
-114.077
 21
97.3828
  0
LINE
  8
0
 10
-114.077
 20
97.3828
 11
-114.174
 21
97.5874
  0
LINE
  8
0
 10
-114.174
 20
97.5874
 11
-114.243
 21
97.8024
  0
LINE
  8
0
 10
-114.243
 20
97.8024
 11
-114.286
 21
98.0244
  0
LINE
  8
0
 10
-114.286
 20
98.0244
 11
-114.3
 21
98.25
  0
LINE
  8
0
 10
-114.3
 20
98.25
 11
-114.286
 21
98.4756
  0
LINE
  8
0
 10
-114.286
 20
98.4756
 11
-114.243
 21
98.6976
  0
LINE
  8
0
 10
-114.243
 20
98.6976
 11
-114.174
 21
98.9126
  0
LINE
  8
0
 10
-114.174
 20
98.9126
 11
-114.077
 21
99.1171
  0
LINE
  8
0
 10
-114.077
 20
99.1171
 11
-113.956
 21
99.308
  0
LINE
  8
0
 10
-113.956
 20
99.308
 11
-113.812
 21
99.4822
  0
LINE
  8
0
 10
-113.812
 20
99.4822
 11
-113.647
 21
99.6369
  0
LINE
  8
0
 10
-113.647
 20
99.6369
 11
-113.464
 21
99.7698
  0
LINE
  8
0
 10
-113.464
 20
99.7698
 11
-113.266
 21
99.8787
  0
LINE
  8
0
 10
-113.266
 20
99.8787
 11
-113.056
 21
99.9619
  0
LINE
  8
0
 10
-113.056
 20
99.9619
 11
-112.837
 21
100.018
  0
LINE
  8
0
 10
-112.837
 20
100.018
 11
-112.613
 21
100.046
  0
LINE
  8
0
 10
-112.613
 20
100.046
 11
-112.387
 21
100.046
  0
LINE
  8
0
 10
-112.387
 20
100.046
 11
-112.163
 21
100.018
  0
LINE
  8
0
 10
-112.163
 20
100.018
 11
-111.944
 21
99.9619
  0
LINE
  8
0
 10
-111.944
 20
99.9619
 11
-111.734
 21
99.8787
  0
LINE
  8
0
 10
-111.734
 20
99.8787
 11
-111.536
 21
99.7698
  0
LINE
  8
0
 10
-111.536
 20
99.7698
 11
-111.353
 21
99.6369
  0
LINE
  8
0
 10
-111.353
 20
99.6369
 11
-111.188
 21
99.4822
  0
LINE
  8
0
 10
-111.188
 20
99.4822
 11
-111.044
 21
99.308
  0
LINE
  8
0
 10
-111.044
 20
99.308
 11
-110.923
 21
99.1171
  0
LINE
  8
0
 10
-110.923
 20
99.1171
 11
-110.826
 21
98.9126
  0
LINE
  8
0
 10
-110.826
 20
98.9126
 11
-110.757
 21
98.6976
  0
LINE
  8
0
 10
-110.757
 20
98.6976
 11
-110.714
 21
98.4756
  0
LINE
  8
0
 10
-110.714
 20
98.4756
 11
-110.7
 21
98.25
  0
LINE
  8
0
 10
-110.7
 20
98.25
 11
-110.714
 21
98.0244
  0
LINE
  8
0
 10
-110.714
 20
98.0244
 11
-110.757
 21
97.8024
  0
LINE
  8
0
 10
-110.757
 20
97.8024
 11
-110.826
 21
97.5874
  0
LINE
  8
0
 10
-110.826
 20
97.5874
 11
-110.923
 21
97.3828
  0
LINE
  8
0
 10
-110.923
 20
97.3828
 11
-111.044
 21
97.192
  0
LINE
  8
0
 10
-111.044
 20
97.192
 11
-111.188
 21
97.0178
  0
LINE
  8
0
 10
-111.188
 20
97.0178
 11
-111.353
 21
96.8631
  0
LINE
  8
0
 10
-111.353
 20
96.8631
 11
-111.536
 21
96.7302
  0
LINE
  8
0
 10
-111.536
 20
96.7302
 11
-111.734
 21
96.6213
  0
LINE
  8
0
 10
-111.734
 20
96.6213
 11
-111.944
 21
96.5381
  0
LINE
  8
0
 10
-111.944
 20
96.5381
 11
-112.163
 21
96.4819
  0
LINE
  8
0
 10
-112.163
 20
96.4819
 11
-112.387
 21
96.4536
  0
LINE
  8
0
 10
-112.387
 20
96.4536
 11
-112.613
 21
96.4536
  0
LINE
  8
0
 10
112.387
 20
88.9536
 11
112.163
 21
88.9819
  0
LINE
  8
0
 10
112.163
 20
88.9819
 11
111.944
 21
89.0381
  0
LINE
  8
0
 10
111.944
 20
89.0381
 11
111.734
 21
89.1213
  0
LINE
  8
0
 10
111.734
 20
89.1213
 11
111.536
 21
89.2302
  0
LINE
  8
0
 10
111.536
 20
89.2302
 11
111.353
 21
89.3631
  0
LINE
  8
0
 10
111.353
 20
89.3631
 11
111.188
 21
89.5178
  0
LINE
  8
0
 10
111.188
 20
89.5178
 11
111.044
 21
89.692
  0
LINE
  8
0
 10
111.044
 20
89.692
 11
110.923
 21
89.8829
  0
LINE
  8
0
 10
110.923
 20
89.8829
 11
110.826
 21
90.0874
  0
LINE
  8
0
 10
110.826
 20
90.0874
 11
110.757
 21
90.3024
  0
LINE
  8
0
 10
110.757
 20
90.3024
 11
110.714
 21
90.5244
  0
LINE
  8
0
 10
110.714
 20
90.5244
 11
110.7
 21
90.75
  0
LINE
  8
0
 10
110.7
 20
90.75
 11
110.714
 21
90.9756
  0
LINE
  8
0
 10
110.714
 20
90.9756
 11
110.757
 21
91.1976
  0
LINE
  8
0
 10
110.757
 20
91.1976
 11
110.826
 21
91.4126
  0
LINE
  8
0
 10
110.826
 20
91.4126
 11
110.923
 21
91.6172
  0
LINE
  8
0
 10
110.923
 20
91.6172
 11
111.044
 21
91.808
  0
LINE
  8
0
 10
111.044
 20
91.808
 11
111.188
 21
91.9822
  0
LINE
  8
0
 10
111.188
 20
91.9822
 11
111.353
 21
92.1369
  0
LINE
  8
0
 10
111.353
 20
92.1369
 11
111.536
 21
92.2698
  0
LINE
  8
0
 10
111.536
 20
92.2698
 11
111.734
 21
92.3787
  0
LINE
  8
0
 10
111.734
 20
92.3787
 11
111.944
 21
92.4619
  0
LINE
  8
0
 10
111.944
 20
92.4619
 11
112.163
 21
92.5181
  0
LINE
  8
0
 10
112.163
 20
92.5181
 11
112.387
 21
92.5464
  0
LINE
  8
0
 10
112.387
 20
92.5464
 11
112.613
 21
92.5464
  0
LINE
  8
0
 10
112.613
 20
92.5464
 11
112.837
 21
92.5181
  0
LINE
  8
0
 10
112.837
 20
92.5181
 11
113.056
 21
92.4619
  0
LINE
  8
0
 10
113.056
 20
92.4619
 11
113.266
 21
92.3787
  0
LINE
  8
0
 10
113.266
 20
92.3787
 11
113.464
 21
92.2698
  0
LINE
  8
0
 10
113.464
 20
92.2698
 11
113.647
 21
92.1369
  0
LINE
  8
0
 10
113.647
 20
92.1369
 11
113.812
 21
91.9822
  0
LINE
  8
0
 10
113.812
 20
91.9822
 11
113.956
 21
91.808
  0
LINE
  8
0
 10
113.956
 20
91.808
 11
114.077
 21
91.6172
  0
LINE
  8
0
 10
114.077
 20
91.6172
 11
114.174
 21
91.4126
  0
LINE
  8
0
 10
114.174
 20
91.4126
 11
114.243
 21
91.1976
  0
LINE
  8
0
 10
114.243
 20
91.1976
 11
114.286
 21
90.9756
  0
LINE
  8
0
 10
114.286
 20
90.9756
 11
114.3
 21
90.75
  0
LINE
  8
0
 10
114.3
 20
90.75
 11
114.286
 21
90.5244
  0
LINE
  8
0
 10
114.286
 20
90.5244
 11
114.243
 21
90.3024
  0
LINE
  8
0
 10
114.243
 20
90.3024
 11
114.174
 21
90.0874
  0
LINE
  8
0
 10
114.174
 20
90.0874
 11
114.077
 21
89.8829
  0
LINE
  8
0
 10
114.077
 20
89.8829
 11
113.956
 21
89.692
  0
LINE
  8
0
 10
113.956
 20
89.692
 11
113.812
 21
89.5178
  0
LINE
  8
0
 10
113.812
 20
89.5178
 11
113.647
 21
89.3631
  0
LINE
  8
0
 10
113.647
 20
89.3631
 11
113.464
 21
89.2302
  0
LINE
  8
0
 10
113.464
 20
89.2302
 11
113.266
 21
89.1213
  0
LINE
  8
0
 10
113.266
 20
89.1213
 11
113.056
 21
89.0381
  0
LINE
  8
0
 10
113.056
 20
89.0381
 11
112.837
 21
88.9819
  0
LINE
  8
0
 10
112.837
 20
88.9819
 11
112.613
 21
88.9536
  0
LINE
  8
0
 10
112.613
 20
88.9536
 11
112.387
 21
88.9536
  0
LINE
  8
0
 10
-112.613
 20
88.9536
 11
-112.837
 21
88.9819
  0
LINE
  8
0
 10
-112.837
 20
88.9819
 11
-113.056
 21
89.0381
  0
LINE
  8
0
 10
-113.056
 20
89.0381
 11
-113.266
 21
89.1213
  0
LINE
  8
0
 10
-113.266
 20
89.1213
 11
-113.464
 21
89.2302
  0
LINE
  8
0
 10
-113.464
 20
89.2302
 11
-113.647
 21
89.3631
  0
LINE
  8
0
 10
-113.647
 20
89.3631
 11
-113.812
 21
89.5178
  0
LINE
  8
0
 10
-113.812
 20
89.5178
 11
-113.956
 21
89.692
  0
LINE
  8
0
 10
-113.956
 20
89.692
 11
-114.077
 21
89.8829
  0
LINE
  8
0
 10
-114.077
 20
89.8829
 11
-114.174
 21
90.0874
  0
LINE
  8
0
 10
-114.174
 20
90.0874
 11
-114.243
 21
90.3024
  0
LINE
  8
0
 10
-114.243
 20
90.3024
 11
-114.286
 21
90.5244
  0
LINE
  8
0
 10
-114.286
 20
90.5244
 11
-114.3
 21
90.75
  0
LINE
  8
0
 10
-114.3
 20
90.75
 11
-114.286
 21
90.9756
  0
LINE
  8
0
 10
-114.286
 20
90.9756
 11
-114.243
 21
91.1976
  0
LINE
  8
0
 10
-114.243
 20
91.1976
 11
-114.174
 21
91.4126
  0
LINE
  8
0
 10
-114.174
 20
91.4126
 11
-114.077
 21
91.6172
  0
LINE
  8
0
 10
-114.077
 20
91.6172
 11
-113.956
 21
91.808
  0
LINE
  8
0
 10
-113.956
 20
91.808
 11
-113.812
 21
91.9822
  0
LINE
  8
0
 10
-113.812
 20
91.9822
 11
-113.647
 21
92.1369
  0
LINE
  8
0
 10
-113.647
 20
92.1369
 11
-113.464
 21
92.2698
  0
LINE
  8
0
 10
-113.464
 20
92.2698
 11
-113.266
 21
92.3787
  0
LINE
  8
0
 10
-113.266
 20
92.3787
 11
-113.056
 21
92.4619
  0
LINE
  8
0
 10
-113.056
 20
92.4619
 11
-112.837
 21
92.5181
  0
LINE
  8
0
 10
-112.837
 20
92.5181
 11
-112.613
 21
92.5464
  0
LINE
  8
0
 10
-112.613
 20
92.5464
 11
-112.387
 21
92.5464
  0
LINE
  8
0
 10
-112.387
 20
92.5464
 11
-112.163
 21
92.5181
  0
LINE
  8
0
 10
-112.163
 20
92.5181
 11
-111.944
 21
92.4619
  0
LINE
  8
0
 10
-111.944
 20
92.4619
 11
-111.734
 21
92.3787
  0
LINE
  8
0
 10
-111.734
 20
92.3787
 11
-111.536
 21
92.2698
  0
LINE
  8
0
 10
-111.536
 20
92.2698
 11
-111.353
 21
92.1369
  0
LINE
  8
0
 10
-111.353
 20
92.1369
 11
-111.188
 21
91.9822
  0
LINE
  8
0
 10
-111.188
 20
91.9822
 11
-111.044
 21
91.808
  0
LINE
  8
0
 10
-111.044
 20
91.808
 11
-110.923
 21
91.6172
  0
LINE
  8
0
 10
-110.923
 20
91.6172
 11
-110.826
 21
91.4126
  0
LINE
  8
0
 10
-110.826
 20
91.4126
 11
-110.757
 21
91.1976
  0
LINE
  8
0
 10
-110.757
 20
91.1976
 11
-110.714
 21
90.9756
  0
LINE
  8
0
 10
-110.714
 20
90.9756
 11
-110.7
 21
90.75
  0
LINE
  8
0
 10
-110.7
 20
90.75
 11
-110.714
 21
90.5244
  0
LINE
  8
0
 10
-110.714
 20
90.5244
 11
-110.757
 21
90.3024
  0
LINE
  8
0
 10
-110.757
 20
90.3024
 11
-110.826
 21
90.0874
  0
LINE
  8
0
 10
-110.826
 20
90.0874
 11
-110.923
 21
89.8829
  0
LINE
  8
0
 10
-110.923
 20
89.8829
 11
-111.044
 21
89.692
  0
LINE
  8
0
 10
-111.044
 20
89.692
 11
-111.188
 21
89.5178
  0
LINE
  8
0
 10
-111.188
 20
89.5178
 11
-111.353
 21
89.3631
  0
LINE
  8
0
 10
-111.353
 20
89.3631
 11
-111.536
 21
89.2302
  0
LINE
  8
0
 10
-111.536
 20
89.2302
 11
-111.734
 21
89.1213
  0
LINE
  8
0
 10
-111.734
 20
89.1213
 11
-111.944
 21
89.0381
  0
LINE
  8
0
 10
-111.944
 20
89.0381
 11
-112.163
 21
88.9819
  0
LINE
  8
0
 10
-112.163
 20
88.9819
 11
-112.387
 21
88.9536
  0
LINE
  8
0
 10
-112.387
 20
88.9536
 11
-112.613
 21
88.9536
  0
ENDSEC
  0
SECTION
  2
OBJECTS
  0
DICTIONARY
  0
ENDSEC
  0
EOF
