<?xml version="1.0" standalone="no"?>
<!DOCTYPE svg PUBLIC "-//W3C//DTD SVG 1.1//EN" "http://www.w3.org/Graphics/SVG/1.1/DTD/svg11.dtd">
<svg width="256mm" height="2181mm" viewBox="-128 -4266 256 2181" xmlns="http://www.w3.org/2000/svg" version="1.1">
<title>OpenSCAD Model</title>
<path d="
M 123.437,-4056.09 L 124.045,-4056.24 L 124.629,-4056.48 L 125.179,-4056.78 L 125.687,-4057.15 L 126.145,-4057.58
 L 126.545,-4058.06 L 126.882,-4058.59 L 127.149,-4059.16 L 127.343,-4059.76 L 127.461,-4060.37 L 127.5,-4061
 L 127.5,-4261 L 127.461,-4261.63 L 127.343,-4262.24 L 127.149,-4262.84 L 126.882,-4263.41 L 126.545,-4263.94
 L 126.145,-4264.42 L 125.687,-4264.85 L 125.179,-4265.22 L 124.629,-4265.52 L 124.045,-4265.76 L 123.437,-4265.91
 L 122.814,-4265.99 L -122.814,-4265.99 L -123.437,-4265.91 L -124.045,-4265.76 L -124.629,-4265.52 L -125.179,-4265.22
 L -125.687,-4264.85 L -126.145,-4264.42 L -126.545,-4263.94 L -126.882,-4263.41 L -127.149,-4262.84 L -127.343,-4262.24
 L -127.461,-4261.63 L -127.5,-4261 L -127.5,-4061 L -127.461,-4060.37 L -127.343,-4059.76 L -127.149,-4059.16
 L -126.882,-4058.59 L -126.545,-4058.06 L -126.145,-4057.58 L -125.687,-4057.15 L -125.179,-4056.78 L -124.629,-4056.48
 L -124.045,-4056.24 L -123.437,-4056.09 L -122.814,-4056.01 L 122.814,-4056.01 z
M -122.548,-4056.51 L -123.14,-4056.58 L -123.718,-4056.73 L -124.272,-4056.95 L -124.795,-4057.24 L -125.278,-4057.59
 L -125.713,-4058 L -126.093,-4058.46 L -126.412,-4058.96 L -126.666,-4059.5 L -126.851,-4060.07 L -126.963,-4060.65
 L -127,-4061.25 L -127,-4260.75 L -126.963,-4261.35 L -126.851,-4261.93 L -126.666,-4262.5 L -126.412,-4263.04
 L -126.093,-4263.54 L -125.713,-4264 L -125.278,-4264.41 L -124.795,-4264.76 L -124.272,-4265.05 L -123.718,-4265.27
 L -123.14,-4265.42 L -122.548,-4265.49 L 122.548,-4265.49 L 123.14,-4265.42 L 123.718,-4265.27 L 124.272,-4265.05
 L 124.795,-4264.76 L 125.278,-4264.41 L 125.713,-4264 L 126.093,-4263.54 L 126.412,-4263.04 L 126.666,-4262.5
 L 126.851,-4261.93 L 126.963,-4261.35 L 127,-4260.75 L 127,-4061.25 L 126.963,-4060.65 L 126.851,-4060.07
 L 126.666,-4059.5 L 126.412,-4058.96 L 126.093,-4058.46 L 125.713,-4058 L 125.278,-4057.59 L 124.795,-4057.24
 L 124.272,-4056.95 L 123.718,-4056.73 L 123.14,-4056.58 L 122.548,-4056.51 z
M 123.437,-3837.09 L 124.045,-3837.24 L 124.629,-3837.48 L 125.179,-3837.78 L 125.687,-3838.15 L 126.145,-3838.58
 L 126.545,-3839.06 L 126.882,-3839.59 L 127.149,-3840.16 L 127.343,-3840.76 L 127.461,-3841.37 L 127.5,-3842
 L 127.5,-4042 L 127.461,-4042.63 L 127.343,-4043.24 L 127.149,-4043.84 L 126.882,-4044.41 L 126.545,-4044.94
 L 126.145,-4045.42 L 125.687,-4045.85 L 125.179,-4046.22 L 124.629,-4046.52 L 124.045,-4046.76 L 123.437,-4046.91
 L 122.814,-4046.99 L -122.814,-4046.99 L -123.437,-4046.91 L -124.045,-4046.76 L -124.629,-4046.52 L -125.179,-4046.22
 L -125.687,-4045.85 L -126.145,-4045.42 L -126.545,-4044.94 L -126.882,-4044.41 L -127.149,-4043.84 L -127.343,-4043.24
 L -127.461,-4042.63 L -127.5,-4042 L -127.5,-3842 L -127.461,-3841.37 L -127.343,-3840.76 L -127.149,-3840.16
 L -126.882,-3839.59 L -126.545,-3839.06 L -126.145,-3838.58 L -125.687,-3838.15 L -125.179,-3837.78 L -124.629,-3837.48
 L -124.045,-3837.24 L -123.437,-3837.09 L -122.814,-3837.01 L 122.814,-3837.01 z
M -122.548,-3837.51 L -123.14,-3837.58 L -123.718,-3837.73 L -124.272,-3837.95 L -124.795,-3838.24 L -125.278,-3838.59
 L -125.713,-3839 L -126.093,-3839.46 L -126.412,-3839.96 L -126.666,-3840.5 L -126.851,-3841.07 L -126.963,-3841.65
 L -127,-3842.25 L -127,-4041.75 L -126.963,-4042.35 L -126.851,-4042.93 L -126.666,-4043.5 L -126.412,-4044.04
 L -126.093,-4044.54 L -125.713,-4045 L -125.278,-4045.41 L -124.795,-4045.76 L -124.272,-4046.05 L -123.718,-4046.27
 L -123.14,-4046.42 L -122.548,-4046.49 L 122.548,-4046.49 L 123.14,-4046.42 L 123.718,-4046.27 L 124.272,-4046.05
 L 124.795,-4045.76 L 125.278,-4045.41 L 125.713,-4045 L 126.093,-4044.54 L 126.412,-4044.04 L 126.666,-4043.5
 L 126.851,-4042.93 L 126.963,-4042.35 L 127,-4041.75 L 127,-3842.25 L 126.963,-3841.65 L 126.851,-3841.07
 L 126.666,-3840.5 L 126.412,-3839.96 L 126.093,-3839.46 L 125.713,-3839 L 125.278,-3838.59 L 124.795,-3838.24
 L 124.272,-3837.95 L 123.718,-3837.73 L 123.14,-3837.58 L 122.548,-3837.51 z
M 123.437,-3618.09 L 124.045,-3618.24 L 124.629,-3618.48 L 125.179,-3618.78 L 125.687,-3619.15 L 126.145,-3619.58
 L 126.545,-3620.06 L 126.882,-3620.59 L 127.149,-3621.16 L 127.343,-3621.76 L 127.461,-3622.37 L 127.5,-3623
 L 127.5,-3823 L 127.461,-3823.63 L 127.343,-3824.24 L 127.149,-3824.84 L 126.882,-3825.41 L 126.545,-3825.94
 L 126.145,-3826.42 L 125.687,-3826.85 L 125.179,-3827.22 L 124.629,-3827.52 L 124.045,-3827.76 L 123.437,-3827.91
 L 122.814,-3827.99 L -122.814,-3827.99 L -123.437,-3827.91 L -124.045,-3827.76 L -124.629,-3827.52 L -125.179,-3827.22
 L -125.687,-3826.85 L -126.145,-3826.42 L -126.545,-3825.94 L -126.882,-3825.41 L -127.149,-3824.84 L -127.343,-3824.24
 L -127.461,-3823.63 L -127.5,-3823 L -127.5,-3623 L -127.461,-3622.37 L -127.343,-3621.76 L -127.149,-3621.16
 L -126.882,-3620.59 L -126.545,-3620.06 L -126.145,-3619.58 L -125.687,-3619.15 L -125.179,-3618.78 L -124.629,-3618.48
 L -124.045,-3618.24 L -123.437,-3618.09 L -122.814,-3618.01 L 122.814,-3618.01 z
M -122.548,-3618.51 L -123.14,-3618.58 L -123.718,-3618.73 L -124.272,-3618.95 L -124.795,-3619.24 L -125.278,-3619.59
 L -125.713,-3620 L -126.093,-3620.46 L -126.412,-3620.96 L -126.666,-3621.5 L -126.851,-3622.07 L -126.963,-3622.65
 L -127,-3623.25 L -127,-3822.75 L -126.963,-3823.35 L -126.851,-3823.93 L -126.666,-3824.5 L -126.412,-3825.04
 L -126.093,-3825.54 L -125.713,-3826 L -125.278,-3826.41 L -124.795,-3826.76 L -124.272,-3827.05 L -123.718,-3827.27
 L -123.14,-3827.42 L -122.548,-3827.49 L 122.548,-3827.49 L 123.14,-3827.42 L 123.718,-3827.27 L 124.272,-3827.05
 L 124.795,-3826.76 L 125.278,-3826.41 L 125.713,-3826 L 126.093,-3825.54 L 126.412,-3825.04 L 126.666,-3824.5
 L 126.851,-3823.93 L 126.963,-3823.35 L 127,-3822.75 L 127,-3623.25 L 126.963,-3622.65 L 126.851,-3622.07
 L 126.666,-3621.5 L 126.412,-3620.96 L 126.093,-3620.46 L 125.713,-3620 L 125.278,-3619.59 L 124.795,-3619.24
 L 124.272,-3618.95 L 123.718,-3618.73 L 123.14,-3618.58 L 122.548,-3618.51 z
M 123.437,-3399.09 L 124.045,-3399.24 L 124.629,-3399.48 L 125.179,-3399.78 L 125.687,-3400.15 L 126.145,-3400.58
 L 126.545,-3401.06 L 126.882,-3401.59 L 127.149,-3402.16 L 127.343,-3402.76 L 127.461,-3403.37 L 127.5,-3404
 L 127.5,-3604 L 127.461,-3604.63 L 127.343,-3605.24 L 127.149,-3605.84 L 126.882,-3606.41 L 126.545,-3606.94
 L 126.145,-3607.42 L 125.687,-3607.85 L 125.179,-3608.22 L 124.629,-3608.52 L 124.045,-3608.76 L 123.437,-3608.91
 L 122.814,-3608.99 L -122.814,-3608.99 L -123.437,-3608.91 L -124.045,-3608.76 L -124.629,-3608.52 L -125.179,-3608.22
 L -125.687,-3607.85 L -126.145,-3607.42 L -126.545,-3606.94 L -126.882,-3606.41 L -127.149,-3605.84 L -127.343,-3605.24
 L -127.461,-3604.63 L -127.5,-3604 L -127.5,-3404 L -127.461,-3403.37 L -127.343,-3402.76 L -127.149,-3402.16
 L -126.882,-3401.59 L -126.545,-3401.06 L -126.145,-3400.58 L -125.687,-3400.15 L -125.179,-3399.78 L -124.629,-3399.48
 L -124.045,-3399.24 L -123.437,-3399.09 L -122.814,-3399.01 L 122.814,-3399.01 z
M -122.548,-3399.51 L -123.14,-3399.58 L -123.718,-3399.73 L -124.272,-3399.95 L -124.795,-3400.24 L -125.278,-3400.59
 L -125.713,-3401 L -126.093,-3401.46 L -126.412,-3401.96 L -126.666,-3402.5 L -126.851,-3403.07 L -126.963,-3403.65
 L -127,-3404.25 L -127,-3603.75 L -126.963,-3604.35 L -126.851,-3604.93 L -126.666,-3605.5 L -126.412,-3606.04
 L -126.093,-3606.54 L -125.713,-3607 L -125.278,-3607.41 L -124.795,-3607.76 L -124.272,-3608.05 L -123.718,-3608.27
 L -123.14,-3608.42 L -122.548,-3608.49 L 122.548,-3608.49 L 123.14,-3608.42 L 123.718,-3608.27 L 124.272,-3608.05
 L 124.795,-3607.76 L 125.278,-3607.41 L 125.713,-3607 L 126.093,-3606.54 L 126.412,-3606.04 L 126.666,-3605.5
 L 126.851,-3604.93 L 126.963,-3604.35 L 127,-3603.75 L 127,-3404.25 L 126.963,-3403.65 L 126.851,-3403.07
 L 126.666,-3402.5 L 126.412,-3401.96 L 126.093,-3401.46 L 125.713,-3401 L 125.278,-3400.59 L 124.795,-3400.24
 L 124.272,-3399.95 L 123.718,-3399.73 L 123.14,-3399.58 L 122.548,-3399.51 z
M 123.437,-3180.09 L 124.045,-3180.24 L 124.629,-3180.48 L 125.179,-3180.78 L 125.687,-3181.15 L 126.145,-3181.58
 L 126.545,-3182.06 L 126.882,-3182.59 L 127.149,-3183.16 L 127.343,-3183.76 L 127.461,-3184.37 L 127.5,-3185
 L 127.5,-3385 L 127.461,-3385.63 L 127.343,-3386.24 L 127.149,-3386.84 L 126.882,-3387.41 L 126.545,-3387.94
 L 126.145,-3388.42 L 125.687,-3388.85 L 125.179,-3389.22 L 124.629,-3389.52 L 124.045,-3389.76 L 123.437,-3389.91
 L 122.814,-3389.99 L -122.814,-3389.99 L -123.437,-3389.91 L -124.045,-3389.76 L -124.629,-3389.52 L -125.179,-3389.22
 L -125.687,-3388.85 L -126.145,-3388.42 L -126.545,-3387.94 L -126.882,-3387.41 L -127.149,-3386.84 L -127.343,-3386.24
 L -127.461,-3385.63 L -127.5,-3385 L -127.5,-3185 L -127.461,-3184.37 L -127.343,-3183.76 L -127.149,-3183.16
 L -126.882,-3182.59 L -126.545,-3182.06 L -126.145,-3181.58 L -125.687,-3181.15 L -125.179,-3180.78 L -124.629,-3180.48
 L -124.045,-3180.24 L -123.437,-3180.09 L -122.814,-3180.01 L 122.814,-3180.01 z
M -122.548,-3180.51 L -123.14,-3180.58 L -123.718,-3180.73 L -124.272,-3180.95 L -124.795,-3181.24 L -125.278,-3181.59
 L -125.713,-3182 L -126.093,-3182.46 L -126.412,-3182.96 L -126.666,-3183.5 L -126.851,-3184.07 L -126.963,-3184.65
 L -127,-3185.25 L -127,-3384.75 L -126.963,-3385.35 L -126.851,-3385.93 L -126.666,-3386.5 L -126.412,-3387.04
 L -126.093,-3387.54 L -125.713,-3388 L -125.278,-3388.41 L -124.795,-3388.76 L -124.272,-3389.05 L -123.718,-3389.27
 L -123.14,-3389.42 L -122.548,-3389.49 L 122.548,-3389.49 L 123.14,-3389.42 L 123.718,-3389.27 L 124.272,-3389.05
 L 124.795,-3388.76 L 125.278,-3388.41 L 125.713,-3388 L 126.093,-3387.54 L 126.412,-3387.04 L 126.666,-3386.5
 L 126.851,-3385.93 L 126.963,-3385.35 L 127,-3384.75 L 127,-3185.25 L 126.963,-3184.65 L 126.851,-3184.07
 L 126.666,-3183.5 L 126.412,-3182.96 L 126.093,-3182.46 L 125.713,-3182 L 125.278,-3181.59 L 124.795,-3181.24
 L 124.272,-3180.95 L 123.718,-3180.73 L 123.14,-3180.58 L 122.548,-3180.51 z
M 123.437,-2961.09 L 124.045,-2961.24 L 124.629,-2961.48 L 125.179,-2961.78 L 125.687,-2962.15 L 126.145,-2962.58
 L 126.545,-2963.06 L 126.882,-2963.59 L 127.149,-2964.16 L 127.343,-2964.76 L 127.461,-2965.37 L 127.5,-2966
 L 127.5,-3166 L 127.461,-3166.63 L 127.343,-3167.24 L 127.149,-3167.84 L 126.882,-3168.41 L 126.545,-3168.94
 L 126.145,-3169.42 L 125.687,-3169.85 L 125.179,-3170.22 L 124.629,-3170.52 L 124.045,-3170.76 L 123.437,-3170.91
 L 122.814,-3170.99 L -122.814,-3170.99 L -123.437,-3170.91 L -124.045,-3170.76 L -124.629,-3170.52 L -125.179,-3170.22
 L -125.687,-3169.85 L -126.145,-3169.42 L -126.545,-3168.94 L -126.882,-3168.41 L -127.149,-3167.84 L -127.343,-3167.24
 L -127.461,-3166.63 L -127.5,-3166 L -127.5,-2966 L -127.461,-2965.37 L -127.343,-2964.76 L -127.149,-2964.16
 L -126.882,-2963.59 L -126.545,-2963.06 L -126.145,-2962.58 L -125.687,-2962.15 L -125.179,-2961.78 L -124.629,-2961.48
 L -124.045,-2961.24 L -123.437,-2961.09 L -122.814,-2961.01 L 122.814,-2961.01 z
M -122.548,-2961.51 L -123.14,-2961.58 L -123.718,-2961.73 L -124.272,-2961.95 L -124.795,-2962.24 L -125.278,-2962.59
 L -125.713,-2963 L -126.093,-2963.46 L -126.412,-2963.96 L -126.666,-2964.5 L -126.851,-2965.07 L -126.963,-2965.65
 L -127,-2966.25 L -127,-3165.75 L -126.963,-3166.35 L -126.851,-3166.93 L -126.666,-3167.5 L -126.412,-3168.04
 L -126.093,-3168.54 L -125.713,-3169 L -125.278,-3169.41 L -124.795,-3169.76 L -124.272,-3170.05 L -123.718,-3170.27
 L -123.14,-3170.42 L -122.548,-3170.49 L 122.548,-3170.49 L 123.14,-3170.42 L 123.718,-3170.27 L 124.272,-3170.05
 L 124.795,-3169.76 L 125.278,-3169.41 L 125.713,-3169 L 126.093,-3168.54 L 126.412,-3168.04 L 126.666,-3167.5
 L 126.851,-3166.93 L 126.963,-3166.35 L 127,-3165.75 L 127,-2966.25 L 126.963,-2965.65 L 126.851,-2965.07
 L 126.666,-2964.5 L 126.412,-2963.96 L 126.093,-2963.46 L 125.713,-2963 L 125.278,-2962.59 L 124.795,-2962.24
 L 124.272,-2961.95 L 123.718,-2961.73 L 123.14,-2961.58 L 122.548,-2961.51 z
M 123.437,-2742.09 L 124.045,-2742.24 L 124.629,-2742.48 L 125.179,-2742.78 L 125.687,-2743.15 L 126.145,-2743.58
 L 126.545,-2744.06 L 126.882,-2744.59 L 127.149,-2745.16 L 127.343,-2745.76 L 127.461,-2746.37 L 127.5,-2747
 L 127.5,-2947 L 127.461,-2947.63 L 127.343,-2948.24 L 127.149,-2948.84 L 126.882,-2949.41 L 126.545,-2949.94
 L 126.145,-2950.42 L 125.687,-2950.85 L 125.179,-2951.22 L 124.629,-2951.52 L 124.045,-2951.76 L 123.437,-2951.91
 L 122.814,-2951.99 L -122.814,-2951.99 L -123.437,-2951.91 L -124.045,-2951.76 L -124.629,-2951.52 L -125.179,-2951.22
 L -125.687,-2950.85 L -126.145,-2950.42 L -126.545,-2949.94 L -126.882,-2949.41 L -127.149,-2948.84 L -127.343,-2948.24
 L -127.461,-2947.63 L -127.5,-2947 L -127.5,-2747 L -127.461,-2746.37 L -127.343,-2745.76 L -127.149,-2745.16
 L -126.882,-2744.59 L -126.545,-2744.06 L -126.145,-2743.58 L -125.687,-2743.15 L -125.179,-2742.78 L -124.629,-2742.48
 L -124.045,-2742.24 L -123.437,-2742.09 L -122.814,-2742.01 L 122.814,-2742.01 z
M -122.548,-2742.51 L -123.14,-2742.58 L -123.718,-2742.73 L -124.272,-2742.95 L -124.795,-2743.24 L -125.278,-2743.59
 L -125.713,-2744 L -126.093,-2744.46 L -126.412,-2744.96 L -126.666,-2745.5 L -126.851,-2746.07 L -126.963,-2746.65
 L -127,-2747.25 L -127,-2946.75 L -126.963,-2947.35 L -126.851,-2947.93 L -126.666,-2948.5 L -126.412,-2949.04
 L -126.093,-2949.54 L -125.713,-2950 L -125.278,-2950.41 L -124.795,-2950.76 L -124.272,-2951.05 L -123.718,-2951.27
 L -123.14,-2951.42 L -122.548,-2951.49 L 122.548,-2951.49 L 123.14,-2951.42 L 123.718,-2951.27 L 124.272,-2951.05
 L 124.795,-2950.76 L 125.278,-2950.41 L 125.713,-2950 L 126.093,-2949.54 L 126.412,-2949.04 L 126.666,-2948.5
 L 126.851,-2947.93 L 126.963,-2947.35 L 127,-2946.75 L 127,-2747.25 L 126.963,-2746.65 L 126.851,-2746.07
 L 126.666,-2745.5 L 126.412,-2744.96 L 126.093,-2744.46 L 125.713,-2744 L 125.278,-2743.59 L 124.795,-2743.24
 L 124.272,-2742.95 L 123.718,-2742.73 L 123.14,-2742.58 L 122.548,-2742.51 z
M 123.437,-2523.09 L 124.045,-2523.24 L 124.629,-2523.48 L 125.179,-2523.78 L 125.687,-2524.15 L 126.145,-2524.58
 L 126.545,-2525.06 L 126.882,-2525.59 L 127.149,-2526.16 L 127.343,-2526.76 L 127.461,-2527.37 L 127.5,-2528
 L 127.5,-2728 L 127.461,-2728.63 L 127.343,-2729.24 L 127.149,-2729.84 L 126.882,-2730.41 L 126.545,-2730.94
 L 126.145,-2731.42 L 125.687,-2731.85 L 125.179,-2732.22 L 124.629,-2732.52 L 124.045,-2732.76 L 123.437,-2732.91
 L 122.814,-2732.99 L -122.814,-2732.99 L -123.437,-2732.91 L -124.045,-2732.76 L -124.629,-2732.52 L -125.179,-2732.22
 L -125.687,-2731.85 L -126.145,-2731.42 L -126.545,-2730.94 L -126.882,-2730.41 L -127.149,-2729.84 L -127.343,-2729.24
 L -127.461,-2728.63 L -127.5,-2728 L -127.5,-2528 L -127.461,-2527.37 L -127.343,-2526.76 L -127.149,-2526.16
 L -126.882,-2525.59 L -126.545,-2525.06 L -126.145,-2524.58 L -125.687,-2524.15 L -125.179,-2523.78 L -124.629,-2523.48
 L -124.045,-2523.24 L -123.437,-2523.09 L -122.814,-2523.01 L 122.814,-2523.01 z
M -122.548,-2523.51 L -123.14,-2523.58 L -123.718,-2523.73 L -124.272,-2523.95 L -124.795,-2524.24 L -125.278,-2524.59
 L -125.713,-2525 L -126.093,-2525.46 L -126.412,-2525.96 L -126.666,-2526.5 L -126.851,-2527.07 L -126.963,-2527.65
 L -127,-2528.25 L -127,-2727.75 L -126.963,-2728.35 L -126.851,-2728.93 L -126.666,-2729.5 L -126.412,-2730.04
 L -126.093,-2730.54 L -125.713,-2731 L -125.278,-2731.41 L -124.795,-2731.76 L -124.272,-2732.05 L -123.718,-2732.27
 L -123.14,-2732.42 L -122.548,-2732.49 L 122.548,-2732.49 L 123.14,-2732.42 L 123.718,-2732.27 L 124.272,-2732.05
 L 124.795,-2731.76 L 125.278,-2731.41 L 125.713,-2731 L 126.093,-2730.54 L 126.412,-2730.04 L 126.666,-2729.5
 L 126.851,-2728.93 L 126.963,-2728.35 L 127,-2727.75 L 127,-2528.25 L 126.963,-2527.65 L 126.851,-2527.07
 L 126.666,-2526.5 L 126.412,-2525.96 L 126.093,-2525.46 L 125.713,-2525 L 125.278,-2524.59 L 124.795,-2524.24
 L 124.272,-2523.95 L 123.718,-2523.73 L 123.14,-2523.58 L 122.548,-2523.51 z
M 123.437,-2304.09 L 124.045,-2304.24 L 124.629,-2304.48 L 125.179,-2304.78 L 125.687,-2305.15 L 126.145,-2305.58
 L 126.545,-2306.06 L 126.882,-2306.59 L 127.149,-2307.16 L 127.343,-2307.76 L 127.461,-2308.37 L 127.5,-2309
 L 127.5,-2509 L 127.461,-2509.63 L 127.343,-2510.24 L 127.149,-2510.84 L 126.882,-2511.41 L 126.545,-2511.94
 L 126.145,-2512.42 L 125.687,-2512.85 L 125.179,-2513.22 L 124.629,-2513.52 L 124.045,-2513.76 L 123.437,-2513.91
 L 122.814,-2513.99 L -122.814,-2513.99 L -123.437,-2513.91 L -124.045,-2513.76 L -124.629,-2513.52 L -125.179,-2513.22
 L -125.687,-2512.85 L -126.145,-2512.42 L -126.545,-2511.94 L -126.882,-2511.41 L -127.149,-2510.84 L -127.343,-2510.24
 L -127.461,-2509.63 L -127.5,-2509 L -127.5,-2309 L -127.461,-2308.37 L -127.343,-2307.76 L -127.149,-2307.16
 L -126.882,-2306.59 L -126.545,-2306.06 L -126.145,-2305.58 L -125.687,-2305.15 L -125.179,-2304.78 L -124.629,-2304.48
 L -124.045,-2304.24 L -123.437,-2304.09 L -122.814,-2304.01 L 122.814,-2304.01 z
M -122.537,-2304.68 L -123.108,-2304.75 L -123.665,-2304.9 L -124.199,-2305.11 L -124.703,-2305.38 L -125.168,-2305.72
 L -125.588,-2306.12 L -125.954,-2306.56 L -126.262,-2307.04 L -126.507,-2307.56 L -126.685,-2308.11 L -126.792,-2308.68
 L -126.828,-2309.25 L -126.828,-2508.75 L -126.792,-2509.32 L -126.685,-2509.89 L -126.507,-2510.44 L -126.262,-2510.96
 L -125.954,-2511.44 L -125.588,-2511.88 L -125.168,-2512.28 L -124.703,-2512.62 L -124.199,-2512.89 L -123.665,-2513.1
 L -123.108,-2513.25 L -122.537,-2513.32 L 122.537,-2513.32 L 123.108,-2513.25 L 123.665,-2513.1 L 124.199,-2512.89
 L 124.703,-2512.62 L 125.168,-2512.28 L 125.588,-2511.88 L 125.954,-2511.44 L 126.262,-2510.96 L 126.507,-2510.44
 L 126.685,-2509.89 L 126.792,-2509.32 L 126.828,-2508.75 L 126.828,-2309.25 L 126.792,-2308.68 L 126.685,-2308.11
 L 126.507,-2307.56 L 126.262,-2307.04 L 125.954,-2306.56 L 125.588,-2306.12 L 125.168,-2305.72 L 124.703,-2305.38
 L 124.199,-2305.11 L 123.665,-2304.9 L 123.108,-2304.75 L 122.537,-2304.68 z
M 123.437,-2085.09 L 124.045,-2085.24 L 124.629,-2085.48 L 125.179,-2085.78 L 125.687,-2086.15 L 126.145,-2086.58
 L 126.545,-2087.06 L 126.882,-2087.59 L 127.149,-2088.16 L 127.343,-2088.76 L 127.461,-2089.37 L 127.5,-2090
 L 127.5,-2290 L 127.461,-2290.63 L 127.343,-2291.24 L 127.149,-2291.84 L 126.882,-2292.41 L 126.545,-2292.94
 L 126.145,-2293.42 L 125.687,-2293.85 L 125.179,-2294.22 L 124.629,-2294.52 L 124.045,-2294.76 L 123.437,-2294.91
 L 122.814,-2294.99 L -122.814,-2294.99 L -123.437,-2294.91 L -124.045,-2294.76 L -124.629,-2294.52 L -125.179,-2294.22
 L -125.687,-2293.85 L -126.145,-2293.42 L -126.545,-2292.94 L -126.882,-2292.41 L -127.149,-2291.84 L -127.343,-2291.24
 L -127.461,-2290.63 L -127.5,-2290 L -127.5,-2090 L -127.461,-2089.37 L -127.343,-2088.76 L -127.149,-2088.16
 L -126.882,-2087.59 L -126.545,-2087.06 L -126.145,-2086.58 L -125.687,-2086.15 L -125.179,-2085.78 L -124.629,-2085.48
 L -124.045,-2085.24 L -123.437,-2085.09 L -122.814,-2085.01 L 122.814,-2085.01 z
M -122.382,-2088.14 L -122.645,-2088.18 L -122.902,-2088.24 L -123.148,-2088.34 L -123.38,-2088.47 L -123.595,-2088.62
 L -123.788,-2088.81 L -123.957,-2089.01 L -124.099,-2089.23 L -124.211,-2089.47 L -124.293,-2089.73 L -124.343,-2089.99
 L -124.36,-2090.25 L -124.36,-2289.75 L -124.343,-2290.01 L -124.293,-2290.27 L -124.211,-2290.53 L -124.099,-2290.77
 L -123.957,-2290.99 L -123.788,-2291.19 L -123.595,-2291.38 L -123.38,-2291.53 L -123.148,-2291.66 L -122.902,-2291.76
 L -122.645,-2291.82 L -122.382,-2291.86 L 122.382,-2291.86 L 122.645,-2291.82 L 122.902,-2291.76 L 123.148,-2291.66
 L 123.38,-2291.53 L 123.595,-2291.38 L 123.788,-2291.19 L 123.957,-2290.99 L 124.099,-2290.77 L 124.211,-2290.53
 L 124.293,-2290.27 L 124.343,-2290.01 L 124.36,-2289.75 L 124.36,-2090.25 L 124.343,-2089.99 L 124.293,-2089.73
 L 124.211,-2089.47 L 124.099,-2089.23 L 123.957,-2089.01 L 123.788,-2088.81 L 123.595,-2088.62 L 123.38,-2088.47
 L 123.148,-2088.34 L 122.902,-2088.24 L 122.645,-2088.18 L 122.382,-2088.14 z
" stroke="black" fill="lightgray" stroke-width="0.5"/>
</svg>
