<?xml version="1.0" standalone="no"?>
<!DOCTYPE svg PUBLIC "-//W3C//DTD SVG 1.1//EN" "http://www.w3.org/Graphics/SVG/1.1/DTD/svg11.dtd">
<svg width="300mm" height="220mm" viewBox="-150 -395 300 220" xmlns="http://www.w3.org/2000/svg" version="1.1">
<title>OpenSCAD Model</title>
<path d="
M 145.937,-289.589 L 146.545,-289.745 L 147.129,-289.976 L 147.679,-290.278 L 148.187,-290.647 L 148.645,-291.077
 L 149.045,-291.561 L 149.382,-292.091 L 149.649,-292.659 L 149.843,-293.257 L 149.961,-293.873 L 150,-294.5
 L 150,-389.5 L 149.961,-390.127 L 149.843,-390.743 L 149.649,-391.341 L 149.382,-391.909 L 149.045,-392.439
 L 148.645,-392.923 L 148.187,-393.353 L 147.679,-393.722 L 147.129,-394.024 L 146.545,-394.255 L 145.937,-394.411
 L 145.314,-394.49 L -145.314,-394.49 L -145.937,-394.411 L -146.545,-394.255 L -147.129,-394.024 L -147.679,-393.722
 L -148.187,-393.353 L -148.645,-392.923 L -149.045,-392.439 L -149.382,-391.909 L -149.649,-391.341 L -149.843,-390.743
 L -149.961,-390.127 L -150,-389.5 L -150,-294.5 L -149.961,-293.873 L -149.843,-293.257 L -149.649,-292.659
 L -149.382,-292.091 L -149.045,-291.561 L -148.645,-291.077 L -148.187,-290.647 L -147.679,-290.278 L -147.129,-289.976
 L -146.545,-289.745 L -145.937,-289.589 L -145.314,-289.51 L 145.314,-289.51 z
M -145.037,-290.181 L -145.608,-290.253 L -146.165,-290.396 L -146.699,-290.607 L -147.203,-290.884 L -147.668,-291.222
 L -148.088,-291.616 L -148.454,-292.059 L -148.762,-292.544 L -149.007,-293.065 L -149.185,-293.611 L -149.292,-294.176
 L -149.328,-294.75 L -149.328,-389.25 L -149.292,-389.824 L -149.185,-390.389 L -149.007,-390.935 L -148.762,-391.456
 L -148.454,-391.941 L -148.088,-392.384 L -147.668,-392.778 L -147.203,-393.116 L -146.699,-393.393 L -146.165,-393.604
 L -145.608,-393.747 L -145.037,-393.819 L 145.037,-393.819 L 145.608,-393.747 L 146.165,-393.604 L 146.699,-393.393
 L 147.203,-393.116 L 147.668,-392.778 L 148.088,-392.384 L 148.454,-391.941 L 148.762,-391.456 L 149.007,-390.935
 L 149.185,-390.389 L 149.292,-389.824 L 149.328,-389.25 L 149.328,-294.75 L 149.292,-294.176 L 149.185,-293.611
 L 149.007,-293.065 L 148.762,-292.544 L 148.454,-292.059 L 148.088,-291.616 L 147.668,-291.222 L 147.203,-290.884
 L 146.699,-290.607 L 146.165,-290.396 L 145.608,-290.253 L 145.037,-290.181 z
M 145.937,-175.589 L 146.545,-175.745 L 147.129,-175.976 L 147.679,-176.278 L 148.187,-176.647 L 148.645,-177.077
 L 149.045,-177.561 L 149.382,-178.091 L 149.649,-178.659 L 149.843,-179.257 L 149.961,-179.873 L 150,-180.5
 L 150,-275.5 L 149.961,-276.127 L 149.843,-276.743 L 149.649,-277.341 L 149.382,-277.909 L 149.045,-278.439
 L 148.645,-278.923 L 148.187,-279.353 L 147.679,-279.722 L 147.129,-280.024 L 146.545,-280.255 L 145.937,-280.411
 L 145.314,-280.49 L -145.314,-280.49 L -145.937,-280.411 L -146.545,-280.255 L -147.129,-280.024 L -147.679,-279.722
 L -148.187,-279.353 L -148.645,-278.923 L -149.045,-278.439 L -149.382,-277.909 L -149.649,-277.341 L -149.843,-276.743
 L -149.961,-276.127 L -150,-275.5 L -150,-180.5 L -149.961,-179.873 L -149.843,-179.257 L -149.649,-178.659
 L -149.382,-178.091 L -149.045,-177.561 L -148.645,-177.077 L -148.187,-176.647 L -147.679,-176.278 L -147.129,-175.976
 L -146.545,-175.745 L -145.937,-175.589 L -145.314,-175.51 L 145.314,-175.51 z
M -144.882,-178.645 L -145.145,-178.678 L -145.402,-178.744 L -145.648,-178.841 L -145.88,-178.969 L -146.095,-179.125
 L -146.288,-179.306 L -146.457,-179.51 L -146.599,-179.734 L -146.711,-179.973 L -146.793,-180.225 L -146.843,-180.486
 L -146.86,-180.75 L -146.86,-275.25 L -146.843,-275.514 L -146.793,-275.775 L -146.711,-276.027 L -146.599,-276.266
 L -146.457,-276.49 L -146.288,-276.694 L -146.095,-276.875 L -145.88,-277.031 L -145.648,-277.159 L -145.402,-277.256
 L -145.145,-277.322 L -144.882,-277.355 L 144.882,-277.355 L 145.145,-277.322 L 145.402,-277.256 L 145.648,-277.159
 L 145.88,-277.031 L 146.095,-276.875 L 146.288,-276.694 L 146.457,-276.49 L 146.599,-276.266 L 146.711,-276.027
 L 146.793,-275.775 L 146.843,-275.514 L 146.86,-275.25 L 146.86,-180.75 L 146.843,-180.486 L 146.793,-180.225
 L 146.711,-179.973 L 146.599,-179.734 L 146.457,-179.51 L 146.288,-179.306 L 146.095,-179.125 L 145.88,-178.969
 L 145.648,-178.841 L 145.402,-178.744 L 145.145,-178.678 L 144.882,-178.645 z
" stroke="black" fill="lightgray" stroke-width="0.5"/>
</svg>
