  0
SECTION
  2
BLOCKS
  0
ENDSEC
  0
SECTION
  2
ENTITIES
  0
LINE
  8
0
 10
-118.5
 20
550.441
 11
-118.187
 21
550.147
  0
LINE
  8
0
 10
-118.187
 20
550.147
 11
-117.679
 21
549.778
  0
LINE
  8
0
 10
-117.679
 20
549.778
 11
-117.129
 21
549.476
  0
LINE
  8
0
 10
-117.129
 20
549.476
 11
-116.545
 21
549.245
  0
LINE
  8
0
 10
-116.545
 20
549.245
 11
-115.937
 21
549.089
  0
LINE
  8
0
 10
-115.937
 20
549.089
 11
-115.314
 21
549.01
  0
LINE
  8
0
 10
-115.314
 20
549.01
 11
115.314
 21
549.01
  0
LINE
  8
0
 10
115.314
 20
549.01
 11
115.937
 21
549.089
  0
LINE
  8
0
 10
115.937
 20
549.089
 11
116.545
 21
549.245
  0
LINE
  8
0
 10
116.545
 20
549.245
 11
117.129
 21
549.476
  0
LINE
  8
0
 10
117.129
 20
549.476
 11
117.679
 21
549.778
  0
LINE
  8
0
 10
117.679
 20
549.778
 11
118.187
 21
550.147
  0
LINE
  8
0
 10
118.187
 20
550.147
 11
118.645
 21
550.577
  0
LINE
  8
0
 10
118.645
 20
550.577
 11
119.045
 21
551.061
  0
LINE
  8
0
 10
119.045
 20
551.061
 11
119.382
 21
551.591
  0
LINE
  8
0
 10
119.382
 20
551.591
 11
119.649
 21
552.159
  0
LINE
  8
0
 10
119.649
 20
552.159
 11
119.843
 21
552.757
  0
LINE
  8
0
 10
119.843
 20
552.757
 11
119.961
 21
553.373
  0
LINE
  8
0
 10
119.961
 20
553.373
 11
120
 21
554
  0
LINE
  8
0
 10
120
 20
554
 11
120
 21
634
  0
LINE
  8
0
 10
120
 20
634
 11
119.961
 21
634.627
  0
LINE
  8
0
 10
119.961
 20
634.627
 11
119.843
 21
635.243
  0
LINE
  8
0
 10
119.843
 20
635.243
 11
119.649
 21
635.841
  0
LINE
  8
0
 10
119.649
 20
635.841
 11
119.382
 21
636.409
  0
LINE
  8
0
 10
119.382
 20
636.409
 11
119.045
 21
636.939
  0
LINE
  8
0
 10
119.045
 20
636.939
 11
118.645
 21
637.423
  0
LINE
  8
0
 10
118.645
 20
637.423
 11
118.187
 21
637.853
  0
LINE
  8
0
 10
118.187
 20
637.853
 11
117.679
 21
638.222
  0
LINE
  8
0
 10
117.679
 20
638.222
 11
117.129
 21
638.524
  0
LINE
  8
0
 10
117.129
 20
638.524
 11
116.545
 21
638.755
  0
LINE
  8
0
 10
116.545
 20
638.755
 11
115.937
 21
638.911
  0
LINE
  8
0
 10
115.937
 20
638.911
 11
115.314
 21
638.99
  0
LINE
  8
0
 10
115.314
 20
638.99
 11
-115.314
 21
638.99
  0
LINE
  8
0
 10
-115.314
 20
638.99
 11
-115.937
 21
638.911
  0
LINE
  8
0
 10
-115.937
 20
638.911
 11
-116.545
 21
638.755
  0
LINE
  8
0
 10
-116.545
 20
638.755
 11
-117.129
 21
638.524
  0
LINE
  8
0
 10
-117.129
 20
638.524
 11
-117.679
 21
638.222
  0
LINE
  8
0
 10
-117.679
 20
638.222
 11
-118.187
 21
637.853
  0
LINE
  8
0
 10
-118.187
 20
637.853
 11
-118.5
 21
637.559
  0
LINE
  8
0
 10
-118.5
 20
637.559
 11
-118.5
 21
638.99
  0
LINE
  8
0
 10
-118.5
 20
638.99
 11
-121.5
 21
638.99
  0
LINE
  8
0
 10
-121.5
 20
638.99
 11
-121.5
 21
549.01
  0
LINE
  8
0
 10
-121.5
 20
549.01
 11
-118.5
 21
549.01
  0
LINE
  8
0
 10
-118.5
 20
549.01
 11
-118.5
 21
550.441
  0
LINE
  8
0
 10
-114.751
 20
550.508
 11
-115.25
 21
550.571
  0
LINE
  8
0
 10
-115.25
 20
550.571
 11
-115.736
 21
550.696
  0
LINE
  8
0
 10
-115.736
 20
550.696
 11
-116.203
 21
550.881
  0
LINE
  8
0
 10
-116.203
 20
550.881
 11
-116.643
 21
551.123
  0
LINE
  8
0
 10
-116.643
 20
551.123
 11
-117.05
 21
551.418
  0
LINE
  8
0
 10
-117.05
 20
551.418
 11
-117.416
 21
551.762
  0
LINE
  8
0
 10
-117.416
 20
551.762
 11
-117.736
 21
552.149
  0
LINE
  8
0
 10
-117.736
 20
552.149
 11
-118.005
 21
552.573
  0
LINE
  8
0
 10
-118.005
 20
552.573
 11
-118.219
 21
553.028
  0
LINE
  8
0
 10
-118.219
 20
553.028
 11
-118.374
 21
553.505
  0
LINE
  8
0
 10
-118.374
 20
553.505
 11
-118.468
 21
553.999
  0
LINE
  8
0
 10
-118.468
 20
553.999
 11
-118.5
 21
554.5
  0
LINE
  8
0
 10
-118.5
 20
554.5
 11
-118.5
 21
633.5
  0
LINE
  8
0
 10
-118.5
 20
633.5
 11
-118.468
 21
634.001
  0
LINE
  8
0
 10
-118.468
 20
634.001
 11
-118.374
 21
634.495
  0
LINE
  8
0
 10
-118.374
 20
634.495
 11
-118.219
 21
634.972
  0
LINE
  8
0
 10
-118.219
 20
634.972
 11
-118.005
 21
635.427
  0
LINE
  8
0
 10
-118.005
 20
635.427
 11
-117.736
 21
635.851
  0
LINE
  8
0
 10
-117.736
 20
635.851
 11
-117.416
 21
636.238
  0
LINE
  8
0
 10
-117.416
 20
636.238
 11
-117.05
 21
636.582
  0
LINE
  8
0
 10
-117.05
 20
636.582
 11
-116.643
 21
636.877
  0
LINE
  8
0
 10
-116.643
 20
636.877
 11
-116.203
 21
637.119
  0
LINE
  8
0
 10
-116.203
 20
637.119
 11
-115.736
 21
637.304
  0
LINE
  8
0
 10
-115.736
 20
637.304
 11
-115.25
 21
637.429
  0
LINE
  8
0
 10
-115.25
 20
637.429
 11
-114.751
 21
637.492
  0
LINE
  8
0
 10
-114.751
 20
637.492
 11
114.751
 21
637.492
  0
LINE
  8
0
 10
114.751
 20
637.492
 11
115.25
 21
637.429
  0
LINE
  8
0
 10
115.25
 20
637.429
 11
115.736
 21
637.304
  0
LINE
  8
0
 10
115.736
 20
637.304
 11
116.203
 21
637.119
  0
LINE
  8
0
 10
116.203
 20
637.119
 11
116.643
 21
636.877
  0
LINE
  8
0
 10
116.643
 20
636.877
 11
117.05
 21
636.582
  0
LINE
  8
0
 10
117.05
 20
636.582
 11
117.416
 21
636.238
  0
LINE
  8
0
 10
117.416
 20
636.238
 11
117.736
 21
635.851
  0
LINE
  8
0
 10
117.736
 20
635.851
 11
118.005
 21
635.427
  0
LINE
  8
0
 10
118.005
 20
635.427
 11
118.219
 21
634.972
  0
LINE
  8
0
 10
118.219
 20
634.972
 11
118.374
 21
634.495
  0
LINE
  8
0
 10
118.374
 20
634.495
 11
118.468
 21
634.001
  0
LINE
  8
0
 10
118.468
 20
634.001
 11
118.5
 21
633.5
  0
LINE
  8
0
 10
118.5
 20
633.5
 11
118.5
 21
554.5
  0
LINE
  8
0
 10
118.5
 20
554.5
 11
118.468
 21
553.999
  0
LINE
  8
0
 10
118.468
 20
553.999
 11
118.374
 21
553.505
  0
LINE
  8
0
 10
118.374
 20
553.505
 11
118.219
 21
553.028
  0
LINE
  8
0
 10
118.219
 20
553.028
 11
118.005
 21
552.573
  0
LINE
  8
0
 10
118.005
 20
552.573
 11
117.736
 21
552.149
  0
LINE
  8
0
 10
117.736
 20
552.149
 11
117.416
 21
551.762
  0
LINE
  8
0
 10
117.416
 20
551.762
 11
117.05
 21
551.418
  0
LINE
  8
0
 10
117.05
 20
551.418
 11
116.643
 21
551.123
  0
LINE
  8
0
 10
116.643
 20
551.123
 11
116.203
 21
550.881
  0
LINE
  8
0
 10
116.203
 20
550.881
 11
115.736
 21
550.696
  0
LINE
  8
0
 10
115.736
 20
550.696
 11
115.25
 21
550.571
  0
LINE
  8
0
 10
115.25
 20
550.571
 11
114.751
 21
550.508
  0
LINE
  8
0
 10
114.751
 20
550.508
 11
-114.751
 21
550.508
  0
LINE
  8
0
 10
-118.5
 20
451.441
 11
-118.187
 21
451.147
  0
LINE
  8
0
 10
-118.187
 20
451.147
 11
-117.679
 21
450.778
  0
LINE
  8
0
 10
-117.679
 20
450.778
 11
-117.129
 21
450.476
  0
LINE
  8
0
 10
-117.129
 20
450.476
 11
-116.545
 21
450.245
  0
LINE
  8
0
 10
-116.545
 20
450.245
 11
-115.937
 21
450.089
  0
LINE
  8
0
 10
-115.937
 20
450.089
 11
-115.314
 21
450.01
  0
LINE
  8
0
 10
-115.314
 20
450.01
 11
115.314
 21
450.01
  0
LINE
  8
0
 10
115.314
 20
450.01
 11
115.937
 21
450.089
  0
LINE
  8
0
 10
115.937
 20
450.089
 11
116.545
 21
450.245
  0
LINE
  8
0
 10
116.545
 20
450.245
 11
117.129
 21
450.476
  0
LINE
  8
0
 10
117.129
 20
450.476
 11
117.679
 21
450.778
  0
LINE
  8
0
 10
117.679
 20
450.778
 11
118.187
 21
451.147
  0
LINE
  8
0
 10
118.187
 20
451.147
 11
118.645
 21
451.577
  0
LINE
  8
0
 10
118.645
 20
451.577
 11
119.045
 21
452.061
  0
LINE
  8
0
 10
119.045
 20
452.061
 11
119.382
 21
452.591
  0
LINE
  8
0
 10
119.382
 20
452.591
 11
119.649
 21
453.159
  0
LINE
  8
0
 10
119.649
 20
453.159
 11
119.843
 21
453.757
  0
LINE
  8
0
 10
119.843
 20
453.757
 11
119.961
 21
454.373
  0
LINE
  8
0
 10
119.961
 20
454.373
 11
120
 21
455
  0
LINE
  8
0
 10
120
 20
455
 11
120
 21
535
  0
LINE
  8
0
 10
120
 20
535
 11
119.961
 21
535.627
  0
LINE
  8
0
 10
119.961
 20
535.627
 11
119.843
 21
536.243
  0
LINE
  8
0
 10
119.843
 20
536.243
 11
119.649
 21
536.841
  0
LINE
  8
0
 10
119.649
 20
536.841
 11
119.382
 21
537.409
  0
LINE
  8
0
 10
119.382
 20
537.409
 11
119.045
 21
537.939
  0
LINE
  8
0
 10
119.045
 20
537.939
 11
118.645
 21
538.423
  0
LINE
  8
0
 10
118.645
 20
538.423
 11
118.187
 21
538.853
  0
LINE
  8
0
 10
118.187
 20
538.853
 11
117.679
 21
539.222
  0
LINE
  8
0
 10
117.679
 20
539.222
 11
117.129
 21
539.524
  0
LINE
  8
0
 10
117.129
 20
539.524
 11
116.545
 21
539.755
  0
LINE
  8
0
 10
116.545
 20
539.755
 11
115.937
 21
539.911
  0
LINE
  8
0
 10
115.937
 20
539.911
 11
115.314
 21
539.99
  0
LINE
  8
0
 10
115.314
 20
539.99
 11
-115.314
 21
539.99
  0
LINE
  8
0
 10
-115.314
 20
539.99
 11
-115.937
 21
539.911
  0
LINE
  8
0
 10
-115.937
 20
539.911
 11
-116.545
 21
539.755
  0
LINE
  8
0
 10
-116.545
 20
539.755
 11
-117.129
 21
539.524
  0
LINE
  8
0
 10
-117.129
 20
539.524
 11
-117.679
 21
539.222
  0
LINE
  8
0
 10
-117.679
 20
539.222
 11
-118.187
 21
538.853
  0
LINE
  8
0
 10
-118.187
 20
538.853
 11
-118.5
 21
538.559
  0
LINE
  8
0
 10
-118.5
 20
538.559
 11
-118.5
 21
539.99
  0
LINE
  8
0
 10
-118.5
 20
539.99
 11
-121.5
 21
539.99
  0
LINE
  8
0
 10
-121.5
 20
539.99
 11
-121.5
 21
450.01
  0
LINE
  8
0
 10
-121.5
 20
450.01
 11
-118.5
 21
450.01
  0
LINE
  8
0
 10
-118.5
 20
450.01
 11
-118.5
 21
451.441
  0
LINE
  8
0
 10
-114.743
 20
451.635
 11
-115.226
 21
451.696
  0
LINE
  8
0
 10
-115.226
 20
451.696
 11
-115.697
 21
451.817
  0
LINE
  8
0
 10
-115.697
 20
451.817
 11
-116.149
 21
451.996
  0
LINE
  8
0
 10
-116.149
 20
451.996
 11
-116.575
 21
452.23
  0
LINE
  8
0
 10
-116.575
 20
452.23
 11
-116.969
 21
452.516
  0
LINE
  8
0
 10
-116.969
 20
452.516
 11
-117.323
 21
452.849
  0
LINE
  8
0
 10
-117.323
 20
452.849
 11
-117.633
 21
453.224
  0
LINE
  8
0
 10
-117.633
 20
453.224
 11
-117.894
 21
453.634
  0
LINE
  8
0
 10
-117.894
 20
453.634
 11
-118.101
 21
454.074
  0
LINE
  8
0
 10
-118.101
 20
454.074
 11
-118.251
 21
454.537
  0
LINE
  8
0
 10
-118.251
 20
454.537
 11
-118.342
 21
455.015
  0
LINE
  8
0
 10
-118.342
 20
455.015
 11
-118.373
 21
455.5
  0
LINE
  8
0
 10
-118.373
 20
455.5
 11
-118.373
 21
534.5
  0
LINE
  8
0
 10
-118.373
 20
534.5
 11
-118.342
 21
534.985
  0
LINE
  8
0
 10
-118.342
 20
534.985
 11
-118.251
 21
535.463
  0
LINE
  8
0
 10
-118.251
 20
535.463
 11
-118.101
 21
535.926
  0
LINE
  8
0
 10
-118.101
 20
535.926
 11
-117.894
 21
536.366
  0
LINE
  8
0
 10
-117.894
 20
536.366
 11
-117.633
 21
536.776
  0
LINE
  8
0
 10
-117.633
 20
536.776
 11
-117.323
 21
537.151
  0
LINE
  8
0
 10
-117.323
 20
537.151
 11
-116.969
 21
537.484
  0
LINE
  8
0
 10
-116.969
 20
537.484
 11
-116.575
 21
537.77
  0
LINE
  8
0
 10
-116.575
 20
537.77
 11
-116.149
 21
538.004
  0
LINE
  8
0
 10
-116.149
 20
538.004
 11
-115.697
 21
538.183
  0
LINE
  8
0
 10
-115.697
 20
538.183
 11
-115.226
 21
538.304
  0
LINE
  8
0
 10
-115.226
 20
538.304
 11
-114.743
 21
538.365
  0
LINE
  8
0
 10
-114.743
 20
538.365
 11
114.743
 21
538.365
  0
LINE
  8
0
 10
114.743
 20
538.365
 11
115.226
 21
538.304
  0
LINE
  8
0
 10
115.226
 20
538.304
 11
115.697
 21
538.183
  0
LINE
  8
0
 10
115.697
 20
538.183
 11
116.149
 21
538.004
  0
LINE
  8
0
 10
116.149
 20
538.004
 11
116.575
 21
537.77
  0
LINE
  8
0
 10
116.575
 20
537.77
 11
116.969
 21
537.484
  0
LINE
  8
0
 10
116.969
 20
537.484
 11
117.323
 21
537.151
  0
LINE
  8
0
 10
117.323
 20
537.151
 11
117.633
 21
536.776
  0
LINE
  8
0
 10
117.633
 20
536.776
 11
117.894
 21
536.366
  0
LINE
  8
0
 10
117.894
 20
536.366
 11
118.101
 21
535.926
  0
LINE
  8
0
 10
118.101
 20
535.926
 11
118.251
 21
535.463
  0
LINE
  8
0
 10
118.251
 20
535.463
 11
118.342
 21
534.985
  0
LINE
  8
0
 10
118.342
 20
534.985
 11
118.373
 21
534.5
  0
LINE
  8
0
 10
118.373
 20
534.5
 11
118.373
 21
455.5
  0
LINE
  8
0
 10
118.373
 20
455.5
 11
118.342
 21
455.015
  0
LINE
  8
0
 10
118.342
 20
455.015
 11
118.251
 21
454.537
  0
LINE
  8
0
 10
118.251
 20
454.537
 11
118.101
 21
454.074
  0
LINE
  8
0
 10
118.101
 20
454.074
 11
117.894
 21
453.634
  0
LINE
  8
0
 10
117.894
 20
453.634
 11
117.633
 21
453.224
  0
LINE
  8
0
 10
117.633
 20
453.224
 11
117.323
 21
452.849
  0
LINE
  8
0
 10
117.323
 20
452.849
 11
116.969
 21
452.516
  0
LINE
  8
0
 10
116.969
 20
452.516
 11
116.575
 21
452.23
  0
LINE
  8
0
 10
116.575
 20
452.23
 11
116.149
 21
451.996
  0
LINE
  8
0
 10
116.149
 20
451.996
 11
115.697
 21
451.817
  0
LINE
  8
0
 10
115.697
 20
451.817
 11
115.226
 21
451.696
  0
LINE
  8
0
 10
115.226
 20
451.696
 11
114.743
 21
451.635
  0
LINE
  8
0
 10
114.743
 20
451.635
 11
-114.743
 21
451.635
  0
LINE
  8
0
 10
115.937
 20
351.089
 11
116.545
 21
351.245
  0
LINE
  8
0
 10
116.545
 20
351.245
 11
117.129
 21
351.476
  0
LINE
  8
0
 10
117.129
 20
351.476
 11
117.679
 21
351.778
  0
LINE
  8
0
 10
117.679
 20
351.778
 11
118.187
 21
352.147
  0
LINE
  8
0
 10
118.187
 20
352.147
 11
118.645
 21
352.577
  0
LINE
  8
0
 10
118.645
 20
352.577
 11
119.045
 21
353.061
  0
LINE
  8
0
 10
119.045
 20
353.061
 11
119.382
 21
353.591
  0
LINE
  8
0
 10
119.382
 20
353.591
 11
119.649
 21
354.159
  0
LINE
  8
0
 10
119.649
 20
354.159
 11
119.843
 21
354.757
  0
LINE
  8
0
 10
119.843
 20
354.757
 11
119.961
 21
355.373
  0
LINE
  8
0
 10
119.961
 20
355.373
 11
120
 21
356
  0
LINE
  8
0
 10
120
 20
356
 11
120
 21
436
  0
LINE
  8
0
 10
120
 20
436
 11
119.961
 21
436.627
  0
LINE
  8
0
 10
119.961
 20
436.627
 11
119.843
 21
437.243
  0
LINE
  8
0
 10
119.843
 20
437.243
 11
119.649
 21
437.841
  0
LINE
  8
0
 10
119.649
 20
437.841
 11
119.382
 21
438.409
  0
LINE
  8
0
 10
119.382
 20
438.409
 11
119.045
 21
438.939
  0
LINE
  8
0
 10
119.045
 20
438.939
 11
118.645
 21
439.423
  0
LINE
  8
0
 10
118.645
 20
439.423
 11
118.187
 21
439.853
  0
LINE
  8
0
 10
118.187
 20
439.853
 11
117.679
 21
440.222
  0
LINE
  8
0
 10
117.679
 20
440.222
 11
117.129
 21
440.524
  0
LINE
  8
0
 10
117.129
 20
440.524
 11
116.545
 21
440.755
  0
LINE
  8
0
 10
116.545
 20
440.755
 11
115.937
 21
440.911
  0
LINE
  8
0
 10
115.937
 20
440.911
 11
115.314
 21
440.99
  0
LINE
  8
0
 10
115.314
 20
440.99
 11
-115.314
 21
440.99
  0
LINE
  8
0
 10
-115.314
 20
440.99
 11
-115.937
 21
440.911
  0
LINE
  8
0
 10
-115.937
 20
440.911
 11
-116.545
 21
440.755
  0
LINE
  8
0
 10
-116.545
 20
440.755
 11
-117.129
 21
440.524
  0
LINE
  8
0
 10
-117.129
 20
440.524
 11
-117.679
 21
440.222
  0
LINE
  8
0
 10
-117.679
 20
440.222
 11
-118.187
 21
439.853
  0
LINE
  8
0
 10
-118.187
 20
439.853
 11
-118.5
 21
439.559
  0
LINE
  8
0
 10
-118.5
 20
439.559
 11
-118.5
 21
440.615
  0
LINE
  8
0
 10
-118.5
 20
440.615
 11
-121.5
 21
440.615
  0
LINE
  8
0
 10
-121.5
 20
440.615
 11
-121.5
 21
351.385
  0
LINE
  8
0
 10
-121.5
 20
351.385
 11
-118.5
 21
351.385
  0
LINE
  8
0
 10
-118.5
 20
351.385
 11
-118.5
 21
352.441
  0
LINE
  8
0
 10
-118.5
 20
352.441
 11
-118.187
 21
352.147
  0
LINE
  8
0
 10
-118.187
 20
352.147
 11
-117.679
 21
351.778
  0
LINE
  8
0
 10
-117.679
 20
351.778
 11
-117.129
 21
351.476
  0
LINE
  8
0
 10
-117.129
 20
351.476
 11
-116.545
 21
351.245
  0
LINE
  8
0
 10
-116.545
 20
351.245
 11
-115.937
 21
351.089
  0
LINE
  8
0
 10
-115.937
 20
351.089
 11
-115.314
 21
351.01
  0
LINE
  8
0
 10
-115.314
 20
351.01
 11
115.314
 21
351.01
  0
LINE
  8
0
 10
115.314
 20
351.01
 11
115.937
 21
351.089
  0
LINE
  8
0
 10
-112.651
 20
431.105
 11
-112.95
 21
431.143
  0
LINE
  8
0
 10
-112.95
 20
431.143
 11
-113.242
 21
431.217
  0
LINE
  8
0
 10
-113.242
 20
431.217
 11
-113.522
 21
431.328
  0
LINE
  8
0
 10
-113.522
 20
431.328
 11
-113.786
 21
431.474
  0
LINE
  8
0
 10
-113.786
 20
431.474
 11
-114.03
 21
431.651
  0
LINE
  8
0
 10
-114.03
 20
431.651
 11
-114.25
 21
431.857
  0
LINE
  8
0
 10
-114.25
 20
431.857
 11
-114.442
 21
432.089
  0
LINE
  8
0
 10
-114.442
 20
432.089
 11
-114.603
 21
432.344
  0
LINE
  8
0
 10
-114.603
 20
432.344
 11
-114.731
 21
432.617
  0
LINE
  8
0
 10
-114.731
 20
432.617
 11
-114.825
 21
432.903
  0
LINE
  8
0
 10
-114.825
 20
432.903
 11
-114.881
 21
433.199
  0
LINE
  8
0
 10
-114.881
 20
433.199
 11
-114.9
 21
433.5
  0
LINE
  8
0
 10
-114.9
 20
433.5
 11
-114.881
 21
433.801
  0
LINE
  8
0
 10
-114.881
 20
433.801
 11
-114.825
 21
434.097
  0
LINE
  8
0
 10
-114.825
 20
434.097
 11
-114.731
 21
434.383
  0
LINE
  8
0
 10
-114.731
 20
434.383
 11
-114.603
 21
434.656
  0
LINE
  8
0
 10
-114.603
 20
434.656
 11
-114.442
 21
434.911
  0
LINE
  8
0
 10
-114.442
 20
434.911
 11
-114.25
 21
435.143
  0
LINE
  8
0
 10
-114.25
 20
435.143
 11
-114.03
 21
435.349
  0
LINE
  8
0
 10
-114.03
 20
435.349
 11
-113.786
 21
435.526
  0
LINE
  8
0
 10
-113.786
 20
435.526
 11
-113.522
 21
435.672
  0
LINE
  8
0
 10
-113.522
 20
435.672
 11
-113.242
 21
435.783
  0
LINE
  8
0
 10
-113.242
 20
435.783
 11
-112.95
 21
435.857
  0
LINE
  8
0
 10
-112.95
 20
435.857
 11
-112.651
 21
435.895
  0
LINE
  8
0
 10
-112.651
 20
435.895
 11
-112.349
 21
435.895
  0
LINE
  8
0
 10
-112.349
 20
435.895
 11
-112.05
 21
435.857
  0
LINE
  8
0
 10
-112.05
 20
435.857
 11
-111.758
 21
435.783
  0
LINE
  8
0
 10
-111.758
 20
435.783
 11
-111.478
 21
435.672
  0
LINE
  8
0
 10
-111.478
 20
435.672
 11
-111.214
 21
435.526
  0
LINE
  8
0
 10
-111.214
 20
435.526
 11
-110.97
 21
435.349
  0
LINE
  8
0
 10
-110.97
 20
435.349
 11
-110.75
 21
435.143
  0
LINE
  8
0
 10
-110.75
 20
435.143
 11
-110.558
 21
434.911
  0
LINE
  8
0
 10
-110.558
 20
434.911
 11
-110.397
 21
434.656
  0
LINE
  8
0
 10
-110.397
 20
434.656
 11
-110.269
 21
434.383
  0
LINE
  8
0
 10
-110.269
 20
434.383
 11
-110.175
 21
434.097
  0
LINE
  8
0
 10
-110.175
 20
434.097
 11
-110.119
 21
433.801
  0
LINE
  8
0
 10
-110.119
 20
433.801
 11
-110.1
 21
433.5
  0
LINE
  8
0
 10
-110.1
 20
433.5
 11
-110.119
 21
433.199
  0
LINE
  8
0
 10
-110.119
 20
433.199
 11
-110.175
 21
432.903
  0
LINE
  8
0
 10
-110.175
 20
432.903
 11
-110.269
 21
432.617
  0
LINE
  8
0
 10
-110.269
 20
432.617
 11
-110.397
 21
432.344
  0
LINE
  8
0
 10
-110.397
 20
432.344
 11
-110.558
 21
432.089
  0
LINE
  8
0
 10
-110.558
 20
432.089
 11
-110.75
 21
431.857
  0
LINE
  8
0
 10
-110.75
 20
431.857
 11
-110.97
 21
431.651
  0
LINE
  8
0
 10
-110.97
 20
431.651
 11
-111.214
 21
431.474
  0
LINE
  8
0
 10
-111.214
 20
431.474
 11
-111.478
 21
431.328
  0
LINE
  8
0
 10
-111.478
 20
431.328
 11
-111.758
 21
431.217
  0
LINE
  8
0
 10
-111.758
 20
431.217
 11
-112.05
 21
431.143
  0
LINE
  8
0
 10
-112.05
 20
431.143
 11
-112.349
 21
431.105
  0
LINE
  8
0
 10
-112.349
 20
431.105
 11
-112.651
 21
431.105
  0
LINE
  8
0
 10
112.349
 20
431.105
 11
112.05
 21
431.143
  0
LINE
  8
0
 10
112.05
 20
431.143
 11
111.758
 21
431.217
  0
LINE
  8
0
 10
111.758
 20
431.217
 11
111.478
 21
431.328
  0
LINE
  8
0
 10
111.478
 20
431.328
 11
111.214
 21
431.474
  0
LINE
  8
0
 10
111.214
 20
431.474
 11
110.97
 21
431.651
  0
LINE
  8
0
 10
110.97
 20
431.651
 11
110.75
 21
431.857
  0
LINE
  8
0
 10
110.75
 20
431.857
 11
110.558
 21
432.089
  0
LINE
  8
0
 10
110.558
 20
432.089
 11
110.397
 21
432.344
  0
LINE
  8
0
 10
110.397
 20
432.344
 11
110.269
 21
432.617
  0
LINE
  8
0
 10
110.269
 20
432.617
 11
110.175
 21
432.903
  0
LINE
  8
0
 10
110.175
 20
432.903
 11
110.119
 21
433.199
  0
LINE
  8
0
 10
110.119
 20
433.199
 11
110.1
 21
433.5
  0
LINE
  8
0
 10
110.1
 20
433.5
 11
110.119
 21
433.801
  0
LINE
  8
0
 10
110.119
 20
433.801
 11
110.175
 21
434.097
  0
LINE
  8
0
 10
110.175
 20
434.097
 11
110.269
 21
434.383
  0
LINE
  8
0
 10
110.269
 20
434.383
 11
110.397
 21
434.656
  0
LINE
  8
0
 10
110.397
 20
434.656
 11
110.558
 21
434.911
  0
LINE
  8
0
 10
110.558
 20
434.911
 11
110.75
 21
435.143
  0
LINE
  8
0
 10
110.75
 20
435.143
 11
110.97
 21
435.349
  0
LINE
  8
0
 10
110.97
 20
435.349
 11
111.214
 21
435.526
  0
LINE
  8
0
 10
111.214
 20
435.526
 11
111.478
 21
435.672
  0
LINE
  8
0
 10
111.478
 20
435.672
 11
111.758
 21
435.783
  0
LINE
  8
0
 10
111.758
 20
435.783
 11
112.05
 21
435.857
  0
LINE
  8
0
 10
112.05
 20
435.857
 11
112.349
 21
435.895
  0
LINE
  8
0
 10
112.349
 20
435.895
 11
112.651
 21
435.895
  0
LINE
  8
0
 10
112.651
 20
435.895
 11
112.95
 21
435.857
  0
LINE
  8
0
 10
112.95
 20
435.857
 11
113.242
 21
435.783
  0
LINE
  8
0
 10
113.242
 20
435.783
 11
113.522
 21
435.672
  0
LINE
  8
0
 10
113.522
 20
435.672
 11
113.786
 21
435.526
  0
LINE
  8
0
 10
113.786
 20
435.526
 11
114.03
 21
435.349
  0
LINE
  8
0
 10
114.03
 20
435.349
 11
114.25
 21
435.143
  0
LINE
  8
0
 10
114.25
 20
435.143
 11
114.442
 21
434.911
  0
LINE
  8
0
 10
114.442
 20
434.911
 11
114.603
 21
434.656
  0
LINE
  8
0
 10
114.603
 20
434.656
 11
114.731
 21
434.383
  0
LINE
  8
0
 10
114.731
 20
434.383
 11
114.825
 21
434.097
  0
LINE
  8
0
 10
114.825
 20
434.097
 11
114.881
 21
433.801
  0
LINE
  8
0
 10
114.881
 20
433.801
 11
114.9
 21
433.5
  0
LINE
  8
0
 10
114.9
 20
433.5
 11
114.881
 21
433.199
  0
LINE
  8
0
 10
114.881
 20
433.199
 11
114.825
 21
432.903
  0
LINE
  8
0
 10
114.825
 20
432.903
 11
114.731
 21
432.617
  0
LINE
  8
0
 10
114.731
 20
432.617
 11
114.603
 21
432.344
  0
LINE
  8
0
 10
114.603
 20
432.344
 11
114.442
 21
432.089
  0
LINE
  8
0
 10
114.442
 20
432.089
 11
114.25
 21
431.857
  0
LINE
  8
0
 10
114.25
 20
431.857
 11
114.03
 21
431.651
  0
LINE
  8
0
 10
114.03
 20
431.651
 11
113.786
 21
431.474
  0
LINE
  8
0
 10
113.786
 20
431.474
 11
113.522
 21
431.328
  0
LINE
  8
0
 10
113.522
 20
431.328
 11
113.242
 21
431.217
  0
LINE
  8
0
 10
113.242
 20
431.217
 11
112.95
 21
431.143
  0
LINE
  8
0
 10
112.95
 20
431.143
 11
112.651
 21
431.105
  0
LINE
  8
0
 10
112.651
 20
431.105
 11
112.349
 21
431.105
  0
LINE
  8
0
 10
112.349
 20
356.105
 11
112.05
 21
356.143
  0
LINE
  8
0
 10
112.05
 20
356.143
 11
111.758
 21
356.217
  0
LINE
  8
0
 10
111.758
 20
356.217
 11
111.478
 21
356.328
  0
LINE
  8
0
 10
111.478
 20
356.328
 11
111.214
 21
356.474
  0
LINE
  8
0
 10
111.214
 20
356.474
 11
110.97
 21
356.651
  0
LINE
  8
0
 10
110.97
 20
356.651
 11
110.75
 21
356.857
  0
LINE
  8
0
 10
110.75
 20
356.857
 11
110.558
 21
357.089
  0
LINE
  8
0
 10
110.558
 20
357.089
 11
110.397
 21
357.344
  0
LINE
  8
0
 10
110.397
 20
357.344
 11
110.269
 21
357.617
  0
LINE
  8
0
 10
110.269
 20
357.617
 11
110.175
 21
357.903
  0
LINE
  8
0
 10
110.175
 20
357.903
 11
110.119
 21
358.199
  0
LINE
  8
0
 10
110.119
 20
358.199
 11
110.1
 21
358.5
  0
LINE
  8
0
 10
110.1
 20
358.5
 11
110.119
 21
358.801
  0
LINE
  8
0
 10
110.119
 20
358.801
 11
110.175
 21
359.097
  0
LINE
  8
0
 10
110.175
 20
359.097
 11
110.269
 21
359.383
  0
LINE
  8
0
 10
110.269
 20
359.383
 11
110.397
 21
359.656
  0
LINE
  8
0
 10
110.397
 20
359.656
 11
110.558
 21
359.911
  0
LINE
  8
0
 10
110.558
 20
359.911
 11
110.75
 21
360.143
  0
LINE
  8
0
 10
110.75
 20
360.143
 11
110.97
 21
360.349
  0
LINE
  8
0
 10
110.97
 20
360.349
 11
111.214
 21
360.526
  0
LINE
  8
0
 10
111.214
 20
360.526
 11
111.478
 21
360.672
  0
LINE
  8
0
 10
111.478
 20
360.672
 11
111.758
 21
360.783
  0
LINE
  8
0
 10
111.758
 20
360.783
 11
112.05
 21
360.857
  0
LINE
  8
0
 10
112.05
 20
360.857
 11
112.349
 21
360.895
  0
LINE
  8
0
 10
112.349
 20
360.895
 11
112.651
 21
360.895
  0
LINE
  8
0
 10
112.651
 20
360.895
 11
112.95
 21
360.857
  0
LINE
  8
0
 10
112.95
 20
360.857
 11
113.242
 21
360.783
  0
LINE
  8
0
 10
113.242
 20
360.783
 11
113.522
 21
360.672
  0
LINE
  8
0
 10
113.522
 20
360.672
 11
113.786
 21
360.526
  0
LINE
  8
0
 10
113.786
 20
360.526
 11
114.03
 21
360.349
  0
LINE
  8
0
 10
114.03
 20
360.349
 11
114.25
 21
360.143
  0
LINE
  8
0
 10
114.25
 20
360.143
 11
114.442
 21
359.911
  0
LINE
  8
0
 10
114.442
 20
359.911
 11
114.603
 21
359.656
  0
LINE
  8
0
 10
114.603
 20
359.656
 11
114.731
 21
359.383
  0
LINE
  8
0
 10
114.731
 20
359.383
 11
114.825
 21
359.097
  0
LINE
  8
0
 10
114.825
 20
359.097
 11
114.881
 21
358.801
  0
LINE
  8
0
 10
114.881
 20
358.801
 11
114.9
 21
358.5
  0
LINE
  8
0
 10
114.9
 20
358.5
 11
114.881
 21
358.199
  0
LINE
  8
0
 10
114.881
 20
358.199
 11
114.825
 21
357.903
  0
LINE
  8
0
 10
114.825
 20
357.903
 11
114.731
 21
357.617
  0
LINE
  8
0
 10
114.731
 20
357.617
 11
114.603
 21
357.344
  0
LINE
  8
0
 10
114.603
 20
357.344
 11
114.442
 21
357.089
  0
LINE
  8
0
 10
114.442
 20
357.089
 11
114.25
 21
356.857
  0
LINE
  8
0
 10
114.25
 20
356.857
 11
114.03
 21
356.651
  0
LINE
  8
0
 10
114.03
 20
356.651
 11
113.786
 21
356.474
  0
LINE
  8
0
 10
113.786
 20
356.474
 11
113.522
 21
356.328
  0
LINE
  8
0
 10
113.522
 20
356.328
 11
113.242
 21
356.217
  0
LINE
  8
0
 10
113.242
 20
356.217
 11
112.95
 21
356.143
  0
LINE
  8
0
 10
112.95
 20
356.143
 11
112.651
 21
356.105
  0
LINE
  8
0
 10
112.651
 20
356.105
 11
112.349
 21
356.105
  0
LINE
  8
0
 10
-112.651
 20
356.105
 11
-112.95
 21
356.143
  0
LINE
  8
0
 10
-112.95
 20
356.143
 11
-113.242
 21
356.217
  0
LINE
  8
0
 10
-113.242
 20
356.217
 11
-113.522
 21
356.328
  0
LINE
  8
0
 10
-113.522
 20
356.328
 11
-113.786
 21
356.474
  0
LINE
  8
0
 10
-113.786
 20
356.474
 11
-114.03
 21
356.651
  0
LINE
  8
0
 10
-114.03
 20
356.651
 11
-114.25
 21
356.857
  0
LINE
  8
0
 10
-114.25
 20
356.857
 11
-114.442
 21
357.089
  0
LINE
  8
0
 10
-114.442
 20
357.089
 11
-114.603
 21
357.344
  0
LINE
  8
0
 10
-114.603
 20
357.344
 11
-114.731
 21
357.617
  0
LINE
  8
0
 10
-114.731
 20
357.617
 11
-114.825
 21
357.903
  0
LINE
  8
0
 10
-114.825
 20
357.903
 11
-114.881
 21
358.199
  0
LINE
  8
0
 10
-114.881
 20
358.199
 11
-114.9
 21
358.5
  0
LINE
  8
0
 10
-114.9
 20
358.5
 11
-114.881
 21
358.801
  0
LINE
  8
0
 10
-114.881
 20
358.801
 11
-114.825
 21
359.097
  0
LINE
  8
0
 10
-114.825
 20
359.097
 11
-114.731
 21
359.383
  0
LINE
  8
0
 10
-114.731
 20
359.383
 11
-114.603
 21
359.656
  0
LINE
  8
0
 10
-114.603
 20
359.656
 11
-114.442
 21
359.911
  0
LINE
  8
0
 10
-114.442
 20
359.911
 11
-114.25
 21
360.143
  0
LINE
  8
0
 10
-114.25
 20
360.143
 11
-114.03
 21
360.349
  0
LINE
  8
0
 10
-114.03
 20
360.349
 11
-113.786
 21
360.526
  0
LINE
  8
0
 10
-113.786
 20
360.526
 11
-113.522
 21
360.672
  0
LINE
  8
0
 10
-113.522
 20
360.672
 11
-113.242
 21
360.783
  0
LINE
  8
0
 10
-113.242
 20
360.783
 11
-112.95
 21
360.857
  0
LINE
  8
0
 10
-112.95
 20
360.857
 11
-112.651
 21
360.895
  0
LINE
  8
0
 10
-112.651
 20
360.895
 11
-112.349
 21
360.895
  0
LINE
  8
0
 10
-112.349
 20
360.895
 11
-112.05
 21
360.857
  0
LINE
  8
0
 10
-112.05
 20
360.857
 11
-111.758
 21
360.783
  0
LINE
  8
0
 10
-111.758
 20
360.783
 11
-111.478
 21
360.672
  0
LINE
  8
0
 10
-111.478
 20
360.672
 11
-111.214
 21
360.526
  0
LINE
  8
0
 10
-111.214
 20
360.526
 11
-110.97
 21
360.349
  0
LINE
  8
0
 10
-110.97
 20
360.349
 11
-110.75
 21
360.143
  0
LINE
  8
0
 10
-110.75
 20
360.143
 11
-110.558
 21
359.911
  0
LINE
  8
0
 10
-110.558
 20
359.911
 11
-110.397
 21
359.656
  0
LINE
  8
0
 10
-110.397
 20
359.656
 11
-110.269
 21
359.383
  0
LINE
  8
0
 10
-110.269
 20
359.383
 11
-110.175
 21
359.097
  0
LINE
  8
0
 10
-110.175
 20
359.097
 11
-110.119
 21
358.801
  0
LINE
  8
0
 10
-110.119
 20
358.801
 11
-110.1
 21
358.5
  0
LINE
  8
0
 10
-110.1
 20
358.5
 11
-110.119
 21
358.199
  0
LINE
  8
0
 10
-110.119
 20
358.199
 11
-110.175
 21
357.903
  0
LINE
  8
0
 10
-110.175
 20
357.903
 11
-110.269
 21
357.617
  0
LINE
  8
0
 10
-110.269
 20
357.617
 11
-110.397
 21
357.344
  0
LINE
  8
0
 10
-110.397
 20
357.344
 11
-110.558
 21
357.089
  0
LINE
  8
0
 10
-110.558
 20
357.089
 11
-110.75
 21
356.857
  0
LINE
  8
0
 10
-110.75
 20
356.857
 11
-110.97
 21
356.651
  0
LINE
  8
0
 10
-110.97
 20
356.651
 11
-111.214
 21
356.474
  0
LINE
  8
0
 10
-111.214
 20
356.474
 11
-111.478
 21
356.328
  0
LINE
  8
0
 10
-111.478
 20
356.328
 11
-111.758
 21
356.217
  0
LINE
  8
0
 10
-111.758
 20
356.217
 11
-112.05
 21
356.143
  0
LINE
  8
0
 10
-112.05
 20
356.143
 11
-112.349
 21
356.105
  0
LINE
  8
0
 10
-112.349
 20
356.105
 11
-112.651
 21
356.105
  0
LINE
  8
0
 10
115.937
 20
252.089
 11
116.545
 21
252.245
  0
LINE
  8
0
 10
116.545
 20
252.245
 11
117.129
 21
252.476
  0
LINE
  8
0
 10
117.129
 20
252.476
 11
117.679
 21
252.778
  0
LINE
  8
0
 10
117.679
 20
252.778
 11
118.187
 21
253.147
  0
LINE
  8
0
 10
118.187
 20
253.147
 11
118.645
 21
253.577
  0
LINE
  8
0
 10
118.645
 20
253.577
 11
119.045
 21
254.061
  0
LINE
  8
0
 10
119.045
 20
254.061
 11
119.382
 21
254.591
  0
LINE
  8
0
 10
119.382
 20
254.591
 11
119.649
 21
255.159
  0
LINE
  8
0
 10
119.649
 20
255.159
 11
119.843
 21
255.757
  0
LINE
  8
0
 10
119.843
 20
255.757
 11
119.961
 21
256.373
  0
LINE
  8
0
 10
119.961
 20
256.373
 11
120
 21
257
  0
LINE
  8
0
 10
120
 20
257
 11
120
 21
337
  0
LINE
  8
0
 10
120
 20
337
 11
119.961
 21
337.627
  0
LINE
  8
0
 10
119.961
 20
337.627
 11
119.843
 21
338.243
  0
LINE
  8
0
 10
119.843
 20
338.243
 11
119.649
 21
338.841
  0
LINE
  8
0
 10
119.649
 20
338.841
 11
119.382
 21
339.409
  0
LINE
  8
0
 10
119.382
 20
339.409
 11
119.045
 21
339.939
  0
LINE
  8
0
 10
119.045
 20
339.939
 11
118.645
 21
340.423
  0
LINE
  8
0
 10
118.645
 20
340.423
 11
118.187
 21
340.853
  0
LINE
  8
0
 10
118.187
 20
340.853
 11
117.679
 21
341.222
  0
LINE
  8
0
 10
117.679
 20
341.222
 11
117.129
 21
341.524
  0
LINE
  8
0
 10
117.129
 20
341.524
 11
116.545
 21
341.755
  0
LINE
  8
0
 10
116.545
 20
341.755
 11
115.937
 21
341.911
  0
LINE
  8
0
 10
115.937
 20
341.911
 11
115.314
 21
341.99
  0
LINE
  8
0
 10
115.314
 20
341.99
 11
-115.314
 21
341.99
  0
LINE
  8
0
 10
-115.314
 20
341.99
 11
-115.937
 21
341.911
  0
LINE
  8
0
 10
-115.937
 20
341.911
 11
-116.545
 21
341.755
  0
LINE
  8
0
 10
-116.545
 20
341.755
 11
-117.129
 21
341.524
  0
LINE
  8
0
 10
-117.129
 20
341.524
 11
-117.679
 21
341.222
  0
LINE
  8
0
 10
-117.679
 20
341.222
 11
-118.187
 21
340.853
  0
LINE
  8
0
 10
-118.187
 20
340.853
 11
-118.645
 21
340.423
  0
LINE
  8
0
 10
-118.645
 20
340.423
 11
-119.045
 21
339.939
  0
LINE
  8
0
 10
-119.045
 20
339.939
 11
-119.382
 21
339.409
  0
LINE
  8
0
 10
-119.382
 20
339.409
 11
-119.649
 21
338.841
  0
LINE
  8
0
 10
-119.649
 20
338.841
 11
-119.843
 21
338.243
  0
LINE
  8
0
 10
-119.843
 20
338.243
 11
-119.9
 21
337.944
  0
LINE
  8
0
 10
-119.9
 20
337.944
 11
-121.5
 21
337.944
  0
LINE
  8
0
 10
-121.5
 20
337.944
 11
-121.5
 21
256.056
  0
LINE
  8
0
 10
-121.5
 20
256.056
 11
-119.9
 21
256.056
  0
LINE
  8
0
 10
-119.9
 20
256.056
 11
-119.843
 21
255.757
  0
LINE
  8
0
 10
-119.843
 20
255.757
 11
-119.649
 21
255.159
  0
LINE
  8
0
 10
-119.649
 20
255.159
 11
-119.382
 21
254.591
  0
LINE
  8
0
 10
-119.382
 20
254.591
 11
-119.045
 21
254.061
  0
LINE
  8
0
 10
-119.045
 20
254.061
 11
-118.645
 21
253.577
  0
LINE
  8
0
 10
-118.645
 20
253.577
 11
-118.187
 21
253.147
  0
LINE
  8
0
 10
-118.187
 20
253.147
 11
-117.679
 21
252.778
  0
LINE
  8
0
 10
-117.679
 20
252.778
 11
-117.129
 21
252.476
  0
LINE
  8
0
 10
-117.129
 20
252.476
 11
-116.545
 21
252.245
  0
LINE
  8
0
 10
-116.545
 20
252.245
 11
-115.937
 21
252.089
  0
LINE
  8
0
 10
-115.937
 20
252.089
 11
-115.314
 21
252.01
  0
LINE
  8
0
 10
-115.314
 20
252.01
 11
115.314
 21
252.01
  0
LINE
  8
0
 10
115.314
 20
252.01
 11
115.937
 21
252.089
  0
LINE
  8
0
 10
112.387
 20
332.704
 11
112.163
 21
332.732
  0
LINE
  8
0
 10
112.163
 20
332.732
 11
111.944
 21
332.788
  0
LINE
  8
0
 10
111.944
 20
332.788
 11
111.734
 21
332.871
  0
LINE
  8
0
 10
111.734
 20
332.871
 11
111.536
 21
332.98
  0
LINE
  8
0
 10
111.536
 20
332.98
 11
111.353
 21
333.113
  0
LINE
  8
0
 10
111.353
 20
333.113
 11
111.188
 21
333.268
  0
LINE
  8
0
 10
111.188
 20
333.268
 11
111.044
 21
333.442
  0
LINE
  8
0
 10
111.044
 20
333.442
 11
110.923
 21
333.633
  0
LINE
  8
0
 10
110.923
 20
333.633
 11
110.826
 21
333.837
  0
LINE
  8
0
 10
110.826
 20
333.837
 11
110.757
 21
334.052
  0
LINE
  8
0
 10
110.757
 20
334.052
 11
110.714
 21
334.274
  0
LINE
  8
0
 10
110.714
 20
334.274
 11
110.7
 21
334.5
  0
LINE
  8
0
 10
110.7
 20
334.5
 11
110.714
 21
334.726
  0
LINE
  8
0
 10
110.714
 20
334.726
 11
110.757
 21
334.948
  0
LINE
  8
0
 10
110.757
 20
334.948
 11
110.826
 21
335.163
  0
LINE
  8
0
 10
110.826
 20
335.163
 11
110.923
 21
335.367
  0
LINE
  8
0
 10
110.923
 20
335.367
 11
111.044
 21
335.558
  0
LINE
  8
0
 10
111.044
 20
335.558
 11
111.188
 21
335.732
  0
LINE
  8
0
 10
111.188
 20
335.732
 11
111.353
 21
335.887
  0
LINE
  8
0
 10
111.353
 20
335.887
 11
111.536
 21
336.02
  0
LINE
  8
0
 10
111.536
 20
336.02
 11
111.734
 21
336.129
  0
LINE
  8
0
 10
111.734
 20
336.129
 11
111.944
 21
336.212
  0
LINE
  8
0
 10
111.944
 20
336.212
 11
112.163
 21
336.268
  0
LINE
  8
0
 10
112.163
 20
336.268
 11
112.387
 21
336.296
  0
LINE
  8
0
 10
112.387
 20
336.296
 11
112.613
 21
336.296
  0
LINE
  8
0
 10
112.613
 20
336.296
 11
112.837
 21
336.268
  0
LINE
  8
0
 10
112.837
 20
336.268
 11
113.056
 21
336.212
  0
LINE
  8
0
 10
113.056
 20
336.212
 11
113.266
 21
336.129
  0
LINE
  8
0
 10
113.266
 20
336.129
 11
113.464
 21
336.02
  0
LINE
  8
0
 10
113.464
 20
336.02
 11
113.647
 21
335.887
  0
LINE
  8
0
 10
113.647
 20
335.887
 11
113.812
 21
335.732
  0
LINE
  8
0
 10
113.812
 20
335.732
 11
113.956
 21
335.558
  0
LINE
  8
0
 10
113.956
 20
335.558
 11
114.077
 21
335.367
  0
LINE
  8
0
 10
114.077
 20
335.367
 11
114.174
 21
335.163
  0
LINE
  8
0
 10
114.174
 20
335.163
 11
114.243
 21
334.948
  0
LINE
  8
0
 10
114.243
 20
334.948
 11
114.286
 21
334.726
  0
LINE
  8
0
 10
114.286
 20
334.726
 11
114.3
 21
334.5
  0
LINE
  8
0
 10
114.3
 20
334.5
 11
114.286
 21
334.274
  0
LINE
  8
0
 10
114.286
 20
334.274
 11
114.243
 21
334.052
  0
LINE
  8
0
 10
114.243
 20
334.052
 11
114.174
 21
333.837
  0
LINE
  8
0
 10
114.174
 20
333.837
 11
114.077
 21
333.633
  0
LINE
  8
0
 10
114.077
 20
333.633
 11
113.956
 21
333.442
  0
LINE
  8
0
 10
113.956
 20
333.442
 11
113.812
 21
333.268
  0
LINE
  8
0
 10
113.812
 20
333.268
 11
113.647
 21
333.113
  0
LINE
  8
0
 10
113.647
 20
333.113
 11
113.464
 21
332.98
  0
LINE
  8
0
 10
113.464
 20
332.98
 11
113.266
 21
332.871
  0
LINE
  8
0
 10
113.266
 20
332.871
 11
113.056
 21
332.788
  0
LINE
  8
0
 10
113.056
 20
332.788
 11
112.837
 21
332.732
  0
LINE
  8
0
 10
112.837
 20
332.732
 11
112.613
 21
332.704
  0
LINE
  8
0
 10
112.613
 20
332.704
 11
112.387
 21
332.704
  0
LINE
  8
0
 10
-112.613
 20
332.704
 11
-112.837
 21
332.732
  0
LINE
  8
0
 10
-112.837
 20
332.732
 11
-113.056
 21
332.788
  0
LINE
  8
0
 10
-113.056
 20
332.788
 11
-113.266
 21
332.871
  0
LINE
  8
0
 10
-113.266
 20
332.871
 11
-113.464
 21
332.98
  0
LINE
  8
0
 10
-113.464
 20
332.98
 11
-113.647
 21
333.113
  0
LINE
  8
0
 10
-113.647
 20
333.113
 11
-113.812
 21
333.268
  0
LINE
  8
0
 10
-113.812
 20
333.268
 11
-113.956
 21
333.442
  0
LINE
  8
0
 10
-113.956
 20
333.442
 11
-114.077
 21
333.633
  0
LINE
  8
0
 10
-114.077
 20
333.633
 11
-114.174
 21
333.837
  0
LINE
  8
0
 10
-114.174
 20
333.837
 11
-114.243
 21
334.052
  0
LINE
  8
0
 10
-114.243
 20
334.052
 11
-114.286
 21
334.274
  0
LINE
  8
0
 10
-114.286
 20
334.274
 11
-114.3
 21
334.5
  0
LINE
  8
0
 10
-114.3
 20
334.5
 11
-114.286
 21
334.726
  0
LINE
  8
0
 10
-114.286
 20
334.726
 11
-114.243
 21
334.948
  0
LINE
  8
0
 10
-114.243
 20
334.948
 11
-114.174
 21
335.163
  0
LINE
  8
0
 10
-114.174
 20
335.163
 11
-114.077
 21
335.367
  0
LINE
  8
0
 10
-114.077
 20
335.367
 11
-113.956
 21
335.558
  0
LINE
  8
0
 10
-113.956
 20
335.558
 11
-113.812
 21
335.732
  0
LINE
  8
0
 10
-113.812
 20
335.732
 11
-113.647
 21
335.887
  0
LINE
  8
0
 10
-113.647
 20
335.887
 11
-113.464
 21
336.02
  0
LINE
  8
0
 10
-113.464
 20
336.02
 11
-113.266
 21
336.129
  0
LINE
  8
0
 10
-113.266
 20
336.129
 11
-113.056
 21
336.212
  0
LINE
  8
0
 10
-113.056
 20
336.212
 11
-112.837
 21
336.268
  0
LINE
  8
0
 10
-112.837
 20
336.268
 11
-112.613
 21
336.296
  0
LINE
  8
0
 10
-112.613
 20
336.296
 11
-112.387
 21
336.296
  0
LINE
  8
0
 10
-112.387
 20
336.296
 11
-112.163
 21
336.268
  0
LINE
  8
0
 10
-112.163
 20
336.268
 11
-111.944
 21
336.212
  0
LINE
  8
0
 10
-111.944
 20
336.212
 11
-111.734
 21
336.129
  0
LINE
  8
0
 10
-111.734
 20
336.129
 11
-111.536
 21
336.02
  0
LINE
  8
0
 10
-111.536
 20
336.02
 11
-111.353
 21
335.887
  0
LINE
  8
0
 10
-111.353
 20
335.887
 11
-111.188
 21
335.732
  0
LINE
  8
0
 10
-111.188
 20
335.732
 11
-111.044
 21
335.558
  0
LINE
  8
0
 10
-111.044
 20
335.558
 11
-110.923
 21
335.367
  0
LINE
  8
0
 10
-110.923
 20
335.367
 11
-110.826
 21
335.163
  0
LINE
  8
0
 10
-110.826
 20
335.163
 11
-110.757
 21
334.948
  0
LINE
  8
0
 10
-110.757
 20
334.948
 11
-110.714
 21
334.726
  0
LINE
  8
0
 10
-110.714
 20
334.726
 11
-110.7
 21
334.5
  0
LINE
  8
0
 10
-110.7
 20
334.5
 11
-110.714
 21
334.274
  0
LINE
  8
0
 10
-110.714
 20
334.274
 11
-110.757
 21
334.052
  0
LINE
  8
0
 10
-110.757
 20
334.052
 11
-110.826
 21
333.837
  0
LINE
  8
0
 10
-110.826
 20
333.837
 11
-110.923
 21
333.633
  0
LINE
  8
0
 10
-110.923
 20
333.633
 11
-111.044
 21
333.442
  0
LINE
  8
0
 10
-111.044
 20
333.442
 11
-111.188
 21
333.268
  0
LINE
  8
0
 10
-111.188
 20
333.268
 11
-111.353
 21
333.113
  0
LINE
  8
0
 10
-111.353
 20
333.113
 11
-111.536
 21
332.98
  0
LINE
  8
0
 10
-111.536
 20
332.98
 11
-111.734
 21
332.871
  0
LINE
  8
0
 10
-111.734
 20
332.871
 11
-111.944
 21
332.788
  0
LINE
  8
0
 10
-111.944
 20
332.788
 11
-112.163
 21
332.732
  0
LINE
  8
0
 10
-112.163
 20
332.732
 11
-112.387
 21
332.704
  0
LINE
  8
0
 10
-112.387
 20
332.704
 11
-112.613
 21
332.704
  0
LINE
  8
0
 10
-112.613
 20
257.704
 11
-112.837
 21
257.732
  0
LINE
  8
0
 10
-112.837
 20
257.732
 11
-113.056
 21
257.788
  0
LINE
  8
0
 10
-113.056
 20
257.788
 11
-113.266
 21
257.871
  0
LINE
  8
0
 10
-113.266
 20
257.871
 11
-113.464
 21
257.98
  0
LINE
  8
0
 10
-113.464
 20
257.98
 11
-113.647
 21
258.113
  0
LINE
  8
0
 10
-113.647
 20
258.113
 11
-113.812
 21
258.268
  0
LINE
  8
0
 10
-113.812
 20
258.268
 11
-113.956
 21
258.442
  0
LINE
  8
0
 10
-113.956
 20
258.442
 11
-114.077
 21
258.633
  0
LINE
  8
0
 10
-114.077
 20
258.633
 11
-114.174
 21
258.837
  0
LINE
  8
0
 10
-114.174
 20
258.837
 11
-114.243
 21
259.052
  0
LINE
  8
0
 10
-114.243
 20
259.052
 11
-114.286
 21
259.274
  0
LINE
  8
0
 10
-114.286
 20
259.274
 11
-114.3
 21
259.5
  0
LINE
  8
0
 10
-114.3
 20
259.5
 11
-114.286
 21
259.726
  0
LINE
  8
0
 10
-114.286
 20
259.726
 11
-114.243
 21
259.948
  0
LINE
  8
0
 10
-114.243
 20
259.948
 11
-114.174
 21
260.163
  0
LINE
  8
0
 10
-114.174
 20
260.163
 11
-114.077
 21
260.367
  0
LINE
  8
0
 10
-114.077
 20
260.367
 11
-113.956
 21
260.558
  0
LINE
  8
0
 10
-113.956
 20
260.558
 11
-113.812
 21
260.732
  0
LINE
  8
0
 10
-113.812
 20
260.732
 11
-113.647
 21
260.887
  0
LINE
  8
0
 10
-113.647
 20
260.887
 11
-113.464
 21
261.02
  0
LINE
  8
0
 10
-113.464
 20
261.02
 11
-113.266
 21
261.129
  0
LINE
  8
0
 10
-113.266
 20
261.129
 11
-113.056
 21
261.212
  0
LINE
  8
0
 10
-113.056
 20
261.212
 11
-112.837
 21
261.268
  0
LINE
  8
0
 10
-112.837
 20
261.268
 11
-112.613
 21
261.296
  0
LINE
  8
0
 10
-112.613
 20
261.296
 11
-112.387
 21
261.296
  0
LINE
  8
0
 10
-112.387
 20
261.296
 11
-112.163
 21
261.268
  0
LINE
  8
0
 10
-112.163
 20
261.268
 11
-111.944
 21
261.212
  0
LINE
  8
0
 10
-111.944
 20
261.212
 11
-111.734
 21
261.129
  0
LINE
  8
0
 10
-111.734
 20
261.129
 11
-111.536
 21
261.02
  0
LINE
  8
0
 10
-111.536
 20
261.02
 11
-111.353
 21
260.887
  0
LINE
  8
0
 10
-111.353
 20
260.887
 11
-111.188
 21
260.732
  0
LINE
  8
0
 10
-111.188
 20
260.732
 11
-111.044
 21
260.558
  0
LINE
  8
0
 10
-111.044
 20
260.558
 11
-110.923
 21
260.367
  0
LINE
  8
0
 10
-110.923
 20
260.367
 11
-110.826
 21
260.163
  0
LINE
  8
0
 10
-110.826
 20
260.163
 11
-110.757
 21
259.948
  0
LINE
  8
0
 10
-110.757
 20
259.948
 11
-110.714
 21
259.726
  0
LINE
  8
0
 10
-110.714
 20
259.726
 11
-110.7
 21
259.5
  0
LINE
  8
0
 10
-110.7
 20
259.5
 11
-110.714
 21
259.274
  0
LINE
  8
0
 10
-110.714
 20
259.274
 11
-110.757
 21
259.052
  0
LINE
  8
0
 10
-110.757
 20
259.052
 11
-110.826
 21
258.837
  0
LINE
  8
0
 10
-110.826
 20
258.837
 11
-110.923
 21
258.633
  0
LINE
  8
0
 10
-110.923
 20
258.633
 11
-111.044
 21
258.442
  0
LINE
  8
0
 10
-111.044
 20
258.442
 11
-111.188
 21
258.268
  0
LINE
  8
0
 10
-111.188
 20
258.268
 11
-111.353
 21
258.113
  0
LINE
  8
0
 10
-111.353
 20
258.113
 11
-111.536
 21
257.98
  0
LINE
  8
0
 10
-111.536
 20
257.98
 11
-111.734
 21
257.871
  0
LINE
  8
0
 10
-111.734
 20
257.871
 11
-111.944
 21
257.788
  0
LINE
  8
0
 10
-111.944
 20
257.788
 11
-112.163
 21
257.732
  0
LINE
  8
0
 10
-112.163
 20
257.732
 11
-112.387
 21
257.704
  0
LINE
  8
0
 10
-112.387
 20
257.704
 11
-112.613
 21
257.704
  0
LINE
  8
0
 10
112.387
 20
257.704
 11
112.163
 21
257.732
  0
LINE
  8
0
 10
112.163
 20
257.732
 11
111.944
 21
257.788
  0
LINE
  8
0
 10
111.944
 20
257.788
 11
111.734
 21
257.871
  0
LINE
  8
0
 10
111.734
 20
257.871
 11
111.536
 21
257.98
  0
LINE
  8
0
 10
111.536
 20
257.98
 11
111.353
 21
258.113
  0
LINE
  8
0
 10
111.353
 20
258.113
 11
111.188
 21
258.268
  0
LINE
  8
0
 10
111.188
 20
258.268
 11
111.044
 21
258.442
  0
LINE
  8
0
 10
111.044
 20
258.442
 11
110.923
 21
258.633
  0
LINE
  8
0
 10
110.923
 20
258.633
 11
110.826
 21
258.837
  0
LINE
  8
0
 10
110.826
 20
258.837
 11
110.757
 21
259.052
  0
LINE
  8
0
 10
110.757
 20
259.052
 11
110.714
 21
259.274
  0
LINE
  8
0
 10
110.714
 20
259.274
 11
110.7
 21
259.5
  0
LINE
  8
0
 10
110.7
 20
259.5
 11
110.714
 21
259.726
  0
LINE
  8
0
 10
110.714
 20
259.726
 11
110.757
 21
259.948
  0
LINE
  8
0
 10
110.757
 20
259.948
 11
110.826
 21
260.163
  0
LINE
  8
0
 10
110.826
 20
260.163
 11
110.923
 21
260.367
  0
LINE
  8
0
 10
110.923
 20
260.367
 11
111.044
 21
260.558
  0
LINE
  8
0
 10
111.044
 20
260.558
 11
111.188
 21
260.732
  0
LINE
  8
0
 10
111.188
 20
260.732
 11
111.353
 21
260.887
  0
LINE
  8
0
 10
111.353
 20
260.887
 11
111.536
 21
261.02
  0
LINE
  8
0
 10
111.536
 20
261.02
 11
111.734
 21
261.129
  0
LINE
  8
0
 10
111.734
 20
261.129
 11
111.944
 21
261.212
  0
LINE
  8
0
 10
111.944
 20
261.212
 11
112.163
 21
261.268
  0
LINE
  8
0
 10
112.163
 20
261.268
 11
112.387
 21
261.296
  0
LINE
  8
0
 10
112.387
 20
261.296
 11
112.613
 21
261.296
  0
LINE
  8
0
 10
112.613
 20
261.296
 11
112.837
 21
261.268
  0
LINE
  8
0
 10
112.837
 20
261.268
 11
113.056
 21
261.212
  0
LINE
  8
0
 10
113.056
 20
261.212
 11
113.266
 21
261.129
  0
LINE
  8
0
 10
113.266
 20
261.129
 11
113.464
 21
261.02
  0
LINE
  8
0
 10
113.464
 20
261.02
 11
113.647
 21
260.887
  0
LINE
  8
0
 10
113.647
 20
260.887
 11
113.812
 21
260.732
  0
LINE
  8
0
 10
113.812
 20
260.732
 11
113.956
 21
260.558
  0
LINE
  8
0
 10
113.956
 20
260.558
 11
114.077
 21
260.367
  0
LINE
  8
0
 10
114.077
 20
260.367
 11
114.174
 21
260.163
  0
LINE
  8
0
 10
114.174
 20
260.163
 11
114.243
 21
259.948
  0
LINE
  8
0
 10
114.243
 20
259.948
 11
114.286
 21
259.726
  0
LINE
  8
0
 10
114.286
 20
259.726
 11
114.3
 21
259.5
  0
LINE
  8
0
 10
114.3
 20
259.5
 11
114.286
 21
259.274
  0
LINE
  8
0
 10
114.286
 20
259.274
 11
114.243
 21
259.052
  0
LINE
  8
0
 10
114.243
 20
259.052
 11
114.174
 21
258.837
  0
LINE
  8
0
 10
114.174
 20
258.837
 11
114.077
 21
258.633
  0
LINE
  8
0
 10
114.077
 20
258.633
 11
113.956
 21
258.442
  0
LINE
  8
0
 10
113.956
 20
258.442
 11
113.812
 21
258.268
  0
LINE
  8
0
 10
113.812
 20
258.268
 11
113.647
 21
258.113
  0
LINE
  8
0
 10
113.647
 20
258.113
 11
113.464
 21
257.98
  0
LINE
  8
0
 10
113.464
 20
257.98
 11
113.266
 21
257.871
  0
LINE
  8
0
 10
113.266
 20
257.871
 11
113.056
 21
257.788
  0
LINE
  8
0
 10
113.056
 20
257.788
 11
112.837
 21
257.732
  0
LINE
  8
0
 10
112.837
 20
257.732
 11
112.613
 21
257.704
  0
LINE
  8
0
 10
112.613
 20
257.704
 11
112.387
 21
257.704
  0
ENDSEC
  0
SECTION
  2
OBJECTS
  0
DICTIONARY
  0
ENDSEC
  0
EOF
