<?xml version="1.0" standalone="no"?>
<!DOCTYPE svg PUBLIC "-//W3C//DTD SVG 1.1//EN" "http://www.w3.org/Graphics/SVG/1.1/DTD/svg11.dtd">
<svg width="240mm" height="1236mm" viewBox="-120 -2112 240 1236" xmlns="http://www.w3.org/2000/svg" version="1.1">
<title>OpenSCAD Model</title>
<path d="
M 115.937,-1872.09 L 116.545,-1872.24 L 117.129,-1872.48 L 117.679,-1872.78 L 118.187,-1873.15 L 118.645,-1873.58
 L 119.045,-1874.06 L 119.382,-1874.59 L 119.649,-1875.16 L 119.843,-1875.76 L 119.961,-1876.37 L 120,-1877
 L 120,-2107 L 119.961,-2107.63 L 119.843,-2108.24 L 119.649,-2108.84 L 119.382,-2109.41 L 119.045,-2109.94
 L 118.645,-2110.42 L 118.187,-2110.85 L 117.679,-2111.22 L 117.129,-2111.52 L 116.545,-2111.76 L 115.937,-2111.91
 L 115.314,-2111.99 L -115.314,-2111.99 L -115.937,-2111.91 L -116.545,-2111.76 L -117.129,-2111.52 L -117.679,-2111.22
 L -118.187,-2110.85 L -118.645,-2110.42 L -119.045,-2109.94 L -119.382,-2109.41 L -119.649,-2108.84 L -119.843,-2108.24
 L -119.961,-2107.63 L -120,-2107 L -120,-1877 L -119.961,-1876.37 L -119.843,-1875.76 L -119.649,-1875.16
 L -119.382,-1874.59 L -119.045,-1874.06 L -118.645,-1873.58 L -118.187,-1873.15 L -117.679,-1872.78 L -117.129,-1872.48
 L -116.545,-1872.24 L -115.937,-1872.09 L -115.314,-1872.01 L 115.314,-1872.01 z
M -115.048,-1872.51 L -115.64,-1872.58 L -116.218,-1872.73 L -116.772,-1872.95 L -117.295,-1873.24 L -117.778,-1873.59
 L -118.213,-1874 L -118.593,-1874.46 L -118.912,-1874.96 L -119.166,-1875.5 L -119.351,-1876.07 L -119.463,-1876.65
 L -119.5,-1877.25 L -119.5,-2106.75 L -119.463,-2107.35 L -119.351,-2107.93 L -119.166,-2108.5 L -118.912,-2109.04
 L -118.593,-2109.54 L -118.213,-2110 L -117.778,-2110.41 L -117.295,-2110.76 L -116.772,-2111.05 L -116.218,-2111.27
 L -115.64,-2111.42 L -115.048,-2111.49 L 115.048,-2111.49 L 115.64,-2111.42 L 116.218,-2111.27 L 116.772,-2111.05
 L 117.295,-2110.76 L 117.778,-2110.41 L 118.213,-2110 L 118.593,-2109.54 L 118.912,-2109.04 L 119.166,-2108.5
 L 119.351,-2107.93 L 119.463,-2107.35 L 119.5,-2106.75 L 119.5,-1877.25 L 119.463,-1876.65 L 119.351,-1876.07
 L 119.166,-1875.5 L 118.912,-1874.96 L 118.593,-1874.46 L 118.213,-1874 L 117.778,-1873.59 L 117.295,-1873.24
 L 116.772,-1872.95 L 116.218,-1872.73 L 115.64,-1872.58 L 115.048,-1872.51 z
M 115.937,-1623.09 L 116.545,-1623.24 L 117.129,-1623.48 L 117.679,-1623.78 L 118.187,-1624.15 L 118.645,-1624.58
 L 119.045,-1625.06 L 119.382,-1625.59 L 119.649,-1626.16 L 119.843,-1626.76 L 119.961,-1627.37 L 120,-1628
 L 120,-1858 L 119.961,-1858.63 L 119.843,-1859.24 L 119.649,-1859.84 L 119.382,-1860.41 L 119.045,-1860.94
 L 118.645,-1861.42 L 118.187,-1861.85 L 117.679,-1862.22 L 117.129,-1862.52 L 116.545,-1862.76 L 115.937,-1862.91
 L 115.314,-1862.99 L -115.314,-1862.99 L -115.937,-1862.91 L -116.545,-1862.76 L -117.129,-1862.52 L -117.679,-1862.22
 L -118.187,-1861.85 L -118.645,-1861.42 L -119.045,-1860.94 L -119.382,-1860.41 L -119.649,-1859.84 L -119.843,-1859.24
 L -119.961,-1858.63 L -120,-1858 L -120,-1628 L -119.961,-1627.37 L -119.843,-1626.76 L -119.649,-1626.16
 L -119.382,-1625.59 L -119.045,-1625.06 L -118.645,-1624.58 L -118.187,-1624.15 L -117.679,-1623.78 L -117.129,-1623.48
 L -116.545,-1623.24 L -115.937,-1623.09 L -115.314,-1623.01 L 115.314,-1623.01 z
M -115.048,-1623.51 L -115.64,-1623.58 L -116.218,-1623.73 L -116.772,-1623.95 L -117.295,-1624.24 L -117.778,-1624.59
 L -118.213,-1625 L -118.593,-1625.46 L -118.912,-1625.96 L -119.166,-1626.5 L -119.351,-1627.07 L -119.463,-1627.65
 L -119.5,-1628.25 L -119.5,-1857.75 L -119.463,-1858.35 L -119.351,-1858.93 L -119.166,-1859.5 L -118.912,-1860.04
 L -118.593,-1860.54 L -118.213,-1861 L -117.778,-1861.41 L -117.295,-1861.76 L -116.772,-1862.05 L -116.218,-1862.27
 L -115.64,-1862.42 L -115.048,-1862.49 L 115.048,-1862.49 L 115.64,-1862.42 L 116.218,-1862.27 L 116.772,-1862.05
 L 117.295,-1861.76 L 117.778,-1861.41 L 118.213,-1861 L 118.593,-1860.54 L 118.912,-1860.04 L 119.166,-1859.5
 L 119.351,-1858.93 L 119.463,-1858.35 L 119.5,-1857.75 L 119.5,-1628.25 L 119.463,-1627.65 L 119.351,-1627.07
 L 119.166,-1626.5 L 118.912,-1625.96 L 118.593,-1625.46 L 118.213,-1625 L 117.778,-1624.59 L 117.295,-1624.24
 L 116.772,-1623.95 L 116.218,-1623.73 L 115.64,-1623.58 L 115.048,-1623.51 z
M 115.937,-1374.09 L 116.545,-1374.24 L 117.129,-1374.48 L 117.679,-1374.78 L 118.187,-1375.15 L 118.645,-1375.58
 L 119.045,-1376.06 L 119.382,-1376.59 L 119.649,-1377.16 L 119.843,-1377.76 L 119.961,-1378.37 L 120,-1379
 L 120,-1609 L 119.961,-1609.63 L 119.843,-1610.24 L 119.649,-1610.84 L 119.382,-1611.41 L 119.045,-1611.94
 L 118.645,-1612.42 L 118.187,-1612.85 L 117.679,-1613.22 L 117.129,-1613.52 L 116.545,-1613.76 L 115.937,-1613.91
 L 115.314,-1613.99 L -115.314,-1613.99 L -115.937,-1613.91 L -116.545,-1613.76 L -117.129,-1613.52 L -117.679,-1613.22
 L -118.187,-1612.85 L -118.645,-1612.42 L -119.045,-1611.94 L -119.382,-1611.41 L -119.649,-1610.84 L -119.843,-1610.24
 L -119.961,-1609.63 L -120,-1609 L -120,-1379 L -119.961,-1378.37 L -119.843,-1377.76 L -119.649,-1377.16
 L -119.382,-1376.59 L -119.045,-1376.06 L -118.645,-1375.58 L -118.187,-1375.15 L -117.679,-1374.78 L -117.129,-1374.48
 L -116.545,-1374.24 L -115.937,-1374.09 L -115.314,-1374.01 L 115.314,-1374.01 z
M -115.048,-1374.51 L -115.64,-1374.58 L -116.218,-1374.73 L -116.772,-1374.95 L -117.295,-1375.24 L -117.778,-1375.59
 L -118.213,-1376 L -118.593,-1376.46 L -118.912,-1376.96 L -119.166,-1377.5 L -119.351,-1378.07 L -119.463,-1378.65
 L -119.5,-1379.25 L -119.5,-1608.75 L -119.463,-1609.35 L -119.351,-1609.93 L -119.166,-1610.5 L -118.912,-1611.04
 L -118.593,-1611.54 L -118.213,-1612 L -117.778,-1612.41 L -117.295,-1612.76 L -116.772,-1613.05 L -116.218,-1613.27
 L -115.64,-1613.42 L -115.048,-1613.49 L 115.048,-1613.49 L 115.64,-1613.42 L 116.218,-1613.27 L 116.772,-1613.05
 L 117.295,-1612.76 L 117.778,-1612.41 L 118.213,-1612 L 118.593,-1611.54 L 118.912,-1611.04 L 119.166,-1610.5
 L 119.351,-1609.93 L 119.463,-1609.35 L 119.5,-1608.75 L 119.5,-1379.25 L 119.463,-1378.65 L 119.351,-1378.07
 L 119.166,-1377.5 L 118.912,-1376.96 L 118.593,-1376.46 L 118.213,-1376 L 117.778,-1375.59 L 117.295,-1375.24
 L 116.772,-1374.95 L 116.218,-1374.73 L 115.64,-1374.58 L 115.048,-1374.51 z
M 115.937,-1125.09 L 116.545,-1125.24 L 117.129,-1125.48 L 117.679,-1125.78 L 118.187,-1126.15 L 118.645,-1126.58
 L 119.045,-1127.06 L 119.382,-1127.59 L 119.649,-1128.16 L 119.843,-1128.76 L 119.961,-1129.37 L 120,-1130
 L 120,-1360 L 119.961,-1360.63 L 119.843,-1361.24 L 119.649,-1361.84 L 119.382,-1362.41 L 119.045,-1362.94
 L 118.645,-1363.42 L 118.187,-1363.85 L 117.679,-1364.22 L 117.129,-1364.52 L 116.545,-1364.76 L 115.937,-1364.91
 L 115.314,-1364.99 L -115.314,-1364.99 L -115.937,-1364.91 L -116.545,-1364.76 L -117.129,-1364.52 L -117.679,-1364.22
 L -118.187,-1363.85 L -118.645,-1363.42 L -119.045,-1362.94 L -119.382,-1362.41 L -119.649,-1361.84 L -119.843,-1361.24
 L -119.961,-1360.63 L -120,-1360 L -120,-1130 L -119.961,-1129.37 L -119.843,-1128.76 L -119.649,-1128.16
 L -119.382,-1127.59 L -119.045,-1127.06 L -118.645,-1126.58 L -118.187,-1126.15 L -117.679,-1125.78 L -117.129,-1125.48
 L -116.545,-1125.24 L -115.937,-1125.09 L -115.314,-1125.01 L 115.314,-1125.01 z
M -114.993,-1126.39 L -115.475,-1126.45 L -115.946,-1126.57 L -116.398,-1126.75 L -116.823,-1126.98 L -117.216,-1127.27
 L -117.571,-1127.6 L -117.88,-1127.98 L -118.141,-1128.39 L -118.348,-1128.83 L -118.498,-1129.29 L -118.589,-1129.77
 L -118.619,-1130.25 L -118.619,-1359.75 L -118.589,-1360.23 L -118.498,-1360.71 L -118.348,-1361.17 L -118.141,-1361.61
 L -117.88,-1362.02 L -117.571,-1362.4 L -117.216,-1362.73 L -116.823,-1363.02 L -116.398,-1363.25 L -115.946,-1363.43
 L -115.475,-1363.55 L -114.993,-1363.61 L 114.993,-1363.61 L 115.475,-1363.55 L 115.946,-1363.43 L 116.398,-1363.25
 L 116.823,-1363.02 L 117.216,-1362.73 L 117.571,-1362.4 L 117.88,-1362.02 L 118.141,-1361.61 L 118.348,-1361.17
 L 118.498,-1360.71 L 118.589,-1360.23 L 118.619,-1359.75 L 118.619,-1130.25 L 118.589,-1129.77 L 118.498,-1129.29
 L 118.348,-1128.83 L 118.141,-1128.39 L 117.88,-1127.98 L 117.571,-1127.6 L 117.216,-1127.27 L 116.823,-1126.98
 L 116.398,-1126.75 L 115.946,-1126.57 L 115.475,-1126.45 L 114.993,-1126.39 z
M 115.937,-876.089 L 116.545,-876.245 L 117.129,-876.476 L 117.679,-876.778 L 118.187,-877.147 L 118.645,-877.577
 L 119.045,-878.061 L 119.382,-878.591 L 119.649,-879.159 L 119.843,-879.757 L 119.961,-880.373 L 120,-881
 L 120,-1111 L 119.961,-1111.63 L 119.843,-1112.24 L 119.649,-1112.84 L 119.382,-1113.41 L 119.045,-1113.94
 L 118.645,-1114.42 L 118.187,-1114.85 L 117.679,-1115.22 L 117.129,-1115.52 L 116.545,-1115.76 L 115.937,-1115.91
 L 115.314,-1115.99 L -115.314,-1115.99 L -115.937,-1115.91 L -116.545,-1115.76 L -117.129,-1115.52 L -117.679,-1115.22
 L -118.187,-1114.85 L -118.645,-1114.42 L -119.045,-1113.94 L -119.382,-1113.41 L -119.649,-1112.84 L -119.843,-1112.24
 L -119.961,-1111.63 L -120,-1111 L -120,-881 L -119.961,-880.373 L -119.843,-879.757 L -119.649,-879.159
 L -119.382,-878.591 L -119.045,-878.061 L -118.645,-877.577 L -118.187,-877.147 L -117.679,-876.778 L -117.129,-876.476
 L -116.545,-876.245 L -115.937,-876.089 L -115.314,-876.01 L 115.314,-876.01 z
M 112.387,-1106.7 L 112.163,-1106.73 L 111.944,-1106.79 L 111.734,-1106.87 L 111.536,-1106.98 L 111.353,-1107.11
 L 111.188,-1107.27 L 111.044,-1107.44 L 110.923,-1107.63 L 110.826,-1107.84 L 110.757,-1108.05 L 110.714,-1108.27
 L 110.7,-1108.5 L 110.714,-1108.73 L 110.757,-1108.95 L 110.826,-1109.16 L 110.923,-1109.37 L 111.044,-1109.56
 L 111.188,-1109.73 L 111.353,-1109.89 L 111.536,-1110.02 L 111.734,-1110.13 L 111.944,-1110.21 L 112.163,-1110.27
 L 112.387,-1110.3 L 112.613,-1110.3 L 112.837,-1110.27 L 113.056,-1110.21 L 113.266,-1110.13 L 113.464,-1110.02
 L 113.647,-1109.89 L 113.812,-1109.73 L 113.956,-1109.56 L 114.077,-1109.37 L 114.174,-1109.16 L 114.243,-1108.95
 L 114.286,-1108.73 L 114.3,-1108.5 L 114.286,-1108.27 L 114.243,-1108.05 L 114.174,-1107.84 L 114.077,-1107.63
 L 113.956,-1107.44 L 113.812,-1107.27 L 113.647,-1107.11 L 113.464,-1106.98 L 113.266,-1106.87 L 113.056,-1106.79
 L 112.837,-1106.73 L 112.613,-1106.7 z
M -112.613,-1106.7 L -112.837,-1106.73 L -113.056,-1106.79 L -113.266,-1106.87 L -113.464,-1106.98 L -113.647,-1107.11
 L -113.812,-1107.27 L -113.956,-1107.44 L -114.077,-1107.63 L -114.174,-1107.84 L -114.243,-1108.05 L -114.286,-1108.27
 L -114.3,-1108.5 L -114.286,-1108.73 L -114.243,-1108.95 L -114.174,-1109.16 L -114.077,-1109.37 L -113.956,-1109.56
 L -113.812,-1109.73 L -113.647,-1109.89 L -113.464,-1110.02 L -113.266,-1110.13 L -113.056,-1110.21 L -112.837,-1110.27
 L -112.613,-1110.3 L -112.387,-1110.3 L -112.163,-1110.27 L -111.944,-1110.21 L -111.734,-1110.13 L -111.536,-1110.02
 L -111.353,-1109.89 L -111.188,-1109.73 L -111.044,-1109.56 L -110.923,-1109.37 L -110.826,-1109.16 L -110.757,-1108.95
 L -110.714,-1108.73 L -110.7,-1108.5 L -110.714,-1108.27 L -110.757,-1108.05 L -110.826,-1107.84 L -110.923,-1107.63
 L -111.044,-1107.44 L -111.188,-1107.27 L -111.353,-1107.11 L -111.536,-1106.98 L -111.734,-1106.87 L -111.944,-1106.79
 L -112.163,-1106.73 L -112.387,-1106.7 z
M -112.613,-881.704 L -112.837,-881.732 L -113.056,-881.788 L -113.266,-881.871 L -113.464,-881.98 L -113.647,-882.113
 L -113.812,-882.268 L -113.956,-882.442 L -114.077,-882.633 L -114.174,-882.837 L -114.243,-883.052 L -114.286,-883.274
 L -114.3,-883.5 L -114.286,-883.726 L -114.243,-883.948 L -114.174,-884.163 L -114.077,-884.367 L -113.956,-884.558
 L -113.812,-884.732 L -113.647,-884.887 L -113.464,-885.02 L -113.266,-885.129 L -113.056,-885.212 L -112.837,-885.268
 L -112.613,-885.296 L -112.387,-885.296 L -112.163,-885.268 L -111.944,-885.212 L -111.734,-885.129 L -111.536,-885.02
 L -111.353,-884.887 L -111.188,-884.732 L -111.044,-884.558 L -110.923,-884.367 L -110.826,-884.163 L -110.757,-883.948
 L -110.714,-883.726 L -110.7,-883.5 L -110.714,-883.274 L -110.757,-883.052 L -110.826,-882.837 L -110.923,-882.633
 L -111.044,-882.442 L -111.188,-882.268 L -111.353,-882.113 L -111.536,-881.98 L -111.734,-881.871 L -111.944,-881.788
 L -112.163,-881.732 L -112.387,-881.704 z
M 112.387,-881.704 L 112.163,-881.732 L 111.944,-881.788 L 111.734,-881.871 L 111.536,-881.98 L 111.353,-882.113
 L 111.188,-882.268 L 111.044,-882.442 L 110.923,-882.633 L 110.826,-882.837 L 110.757,-883.052 L 110.714,-883.274
 L 110.7,-883.5 L 110.714,-883.726 L 110.757,-883.948 L 110.826,-884.163 L 110.923,-884.367 L 111.044,-884.558
 L 111.188,-884.732 L 111.353,-884.887 L 111.536,-885.02 L 111.734,-885.129 L 111.944,-885.212 L 112.163,-885.268
 L 112.387,-885.296 L 112.613,-885.296 L 112.837,-885.268 L 113.056,-885.212 L 113.266,-885.129 L 113.464,-885.02
 L 113.647,-884.887 L 113.812,-884.732 L 113.956,-884.558 L 114.077,-884.367 L 114.174,-884.163 L 114.243,-883.948
 L 114.286,-883.726 L 114.3,-883.5 L 114.286,-883.274 L 114.243,-883.052 L 114.174,-882.837 L 114.077,-882.633
 L 113.956,-882.442 L 113.812,-882.268 L 113.647,-882.113 L 113.464,-881.98 L 113.266,-881.871 L 113.056,-881.788
 L 112.837,-881.732 L 112.613,-881.704 z
" stroke="black" fill="lightgray" stroke-width="0.5"/>
</svg>
