  0
SECTION
  2
BLOCKS
  0
ENDSEC
  0
SECTION
  2
ENTITIES
  0
LINE
  8
0
 10
-141
 20
982.441
 11
-140.687
 21
982.147
  0
LINE
  8
0
 10
-140.687
 20
982.147
 11
-140.179
 21
981.778
  0
LINE
  8
0
 10
-140.179
 20
981.778
 11
-139.629
 21
981.476
  0
LINE
  8
0
 10
-139.629
 20
981.476
 11
-139.045
 21
981.245
  0
LINE
  8
0
 10
-139.045
 20
981.245
 11
-138.437
 21
981.089
  0
LINE
  8
0
 10
-138.437
 20
981.089
 11
-137.814
 21
981.01
  0
LINE
  8
0
 10
-137.814
 20
981.01
 11
137.814
 21
981.01
  0
LINE
  8
0
 10
137.814
 20
981.01
 11
138.437
 21
981.089
  0
LINE
  8
0
 10
138.437
 20
981.089
 11
139.045
 21
981.245
  0
LINE
  8
0
 10
139.045
 20
981.245
 11
139.629
 21
981.476
  0
LINE
  8
0
 10
139.629
 20
981.476
 11
140.179
 21
981.778
  0
LINE
  8
0
 10
140.179
 20
981.778
 11
140.687
 21
982.147
  0
LINE
  8
0
 10
140.687
 20
982.147
 11
141.145
 21
982.577
  0
LINE
  8
0
 10
141.145
 20
982.577
 11
141.545
 21
983.061
  0
LINE
  8
0
 10
141.545
 20
983.061
 11
141.882
 21
983.591
  0
LINE
  8
0
 10
141.882
 20
983.591
 11
142.149
 21
984.159
  0
LINE
  8
0
 10
142.149
 20
984.159
 11
142.343
 21
984.757
  0
LINE
  8
0
 10
142.343
 20
984.757
 11
142.461
 21
985.373
  0
LINE
  8
0
 10
142.461
 20
985.373
 11
142.5
 21
986
  0
LINE
  8
0
 10
142.5
 20
986
 11
142.5
 21
1246
  0
LINE
  8
0
 10
142.5
 20
1246
 11
142.461
 21
1246.63
  0
LINE
  8
0
 10
142.461
 20
1246.63
 11
142.343
 21
1247.24
  0
LINE
  8
0
 10
142.343
 20
1247.24
 11
142.149
 21
1247.84
  0
LINE
  8
0
 10
142.149
 20
1247.84
 11
141.882
 21
1248.41
  0
LINE
  8
0
 10
141.882
 20
1248.41
 11
141.545
 21
1248.94
  0
LINE
  8
0
 10
141.545
 20
1248.94
 11
141.145
 21
1249.42
  0
LINE
  8
0
 10
141.145
 20
1249.42
 11
140.687
 21
1249.85
  0
LINE
  8
0
 10
140.687
 20
1249.85
 11
140.179
 21
1250.22
  0
LINE
  8
0
 10
140.179
 20
1250.22
 11
139.629
 21
1250.52
  0
LINE
  8
0
 10
139.629
 20
1250.52
 11
139.045
 21
1250.76
  0
LINE
  8
0
 10
139.045
 20
1250.76
 11
138.437
 21
1250.91
  0
LINE
  8
0
 10
138.437
 20
1250.91
 11
137.814
 21
1250.99
  0
LINE
  8
0
 10
137.814
 20
1250.99
 11
-137.814
 21
1250.99
  0
LINE
  8
0
 10
-137.814
 20
1250.99
 11
-138.437
 21
1250.91
  0
LINE
  8
0
 10
-138.437
 20
1250.91
 11
-139.045
 21
1250.76
  0
LINE
  8
0
 10
-139.045
 20
1250.76
 11
-139.629
 21
1250.52
  0
LINE
  8
0
 10
-139.629
 20
1250.52
 11
-140.179
 21
1250.22
  0
LINE
  8
0
 10
-140.179
 20
1250.22
 11
-140.687
 21
1249.85
  0
LINE
  8
0
 10
-140.687
 20
1249.85
 11
-141
 21
1249.56
  0
LINE
  8
0
 10
-141
 20
1249.56
 11
-141
 21
1250.99
  0
LINE
  8
0
 10
-141
 20
1250.99
 11
-144
 21
1250.99
  0
LINE
  8
0
 10
-144
 20
1250.99
 11
-144
 21
981.01
  0
LINE
  8
0
 10
-144
 20
981.01
 11
-141
 21
981.01
  0
LINE
  8
0
 10
-141
 20
981.01
 11
-141
 21
982.441
  0
LINE
  8
0
 10
-137.243
 20
982.635
 11
-137.726
 21
982.696
  0
LINE
  8
0
 10
-137.726
 20
982.696
 11
-138.197
 21
982.817
  0
LINE
  8
0
 10
-138.197
 20
982.817
 11
-138.649
 21
982.996
  0
LINE
  8
0
 10
-138.649
 20
982.996
 11
-139.075
 21
983.23
  0
LINE
  8
0
 10
-139.075
 20
983.23
 11
-139.469
 21
983.516
  0
LINE
  8
0
 10
-139.469
 20
983.516
 11
-139.823
 21
983.849
  0
LINE
  8
0
 10
-139.823
 20
983.849
 11
-140.133
 21
984.224
  0
LINE
  8
0
 10
-140.133
 20
984.224
 11
-140.394
 21
984.634
  0
LINE
  8
0
 10
-140.394
 20
984.634
 11
-140.601
 21
985.074
  0
LINE
  8
0
 10
-140.601
 20
985.074
 11
-140.751
 21
985.537
  0
LINE
  8
0
 10
-140.751
 20
985.537
 11
-140.842
 21
986.015
  0
LINE
  8
0
 10
-140.842
 20
986.015
 11
-140.873
 21
986.5
  0
LINE
  8
0
 10
-140.873
 20
986.5
 11
-140.873
 21
1245.5
  0
LINE
  8
0
 10
-140.873
 20
1245.5
 11
-140.842
 21
1245.99
  0
LINE
  8
0
 10
-140.842
 20
1245.99
 11
-140.751
 21
1246.46
  0
LINE
  8
0
 10
-140.751
 20
1246.46
 11
-140.601
 21
1246.93
  0
LINE
  8
0
 10
-140.601
 20
1246.93
 11
-140.394
 21
1247.37
  0
LINE
  8
0
 10
-140.394
 20
1247.37
 11
-140.133
 21
1247.78
  0
LINE
  8
0
 10
-140.133
 20
1247.78
 11
-139.823
 21
1248.15
  0
LINE
  8
0
 10
-139.823
 20
1248.15
 11
-139.469
 21
1248.48
  0
LINE
  8
0
 10
-139.469
 20
1248.48
 11
-139.075
 21
1248.77
  0
LINE
  8
0
 10
-139.075
 20
1248.77
 11
-138.649
 21
1249
  0
LINE
  8
0
 10
-138.649
 20
1249
 11
-138.197
 21
1249.18
  0
LINE
  8
0
 10
-138.197
 20
1249.18
 11
-137.726
 21
1249.3
  0
LINE
  8
0
 10
-137.726
 20
1249.3
 11
-137.243
 21
1249.36
  0
LINE
  8
0
 10
-137.243
 20
1249.36
 11
137.243
 21
1249.36
  0
LINE
  8
0
 10
137.243
 20
1249.36
 11
137.726
 21
1249.3
  0
LINE
  8
0
 10
137.726
 20
1249.3
 11
138.197
 21
1249.18
  0
LINE
  8
0
 10
138.197
 20
1249.18
 11
138.649
 21
1249
  0
LINE
  8
0
 10
138.649
 20
1249
 11
139.075
 21
1248.77
  0
LINE
  8
0
 10
139.075
 20
1248.77
 11
139.469
 21
1248.48
  0
LINE
  8
0
 10
139.469
 20
1248.48
 11
139.823
 21
1248.15
  0
LINE
  8
0
 10
139.823
 20
1248.15
 11
140.133
 21
1247.78
  0
LINE
  8
0
 10
140.133
 20
1247.78
 11
140.394
 21
1247.37
  0
LINE
  8
0
 10
140.394
 20
1247.37
 11
140.601
 21
1246.93
  0
LINE
  8
0
 10
140.601
 20
1246.93
 11
140.751
 21
1246.46
  0
LINE
  8
0
 10
140.751
 20
1246.46
 11
140.842
 21
1245.99
  0
LINE
  8
0
 10
140.842
 20
1245.99
 11
140.873
 21
1245.5
  0
LINE
  8
0
 10
140.873
 20
1245.5
 11
140.873
 21
986.5
  0
LINE
  8
0
 10
140.873
 20
986.5
 11
140.842
 21
986.015
  0
LINE
  8
0
 10
140.842
 20
986.015
 11
140.751
 21
985.537
  0
LINE
  8
0
 10
140.751
 20
985.537
 11
140.601
 21
985.074
  0
LINE
  8
0
 10
140.601
 20
985.074
 11
140.394
 21
984.634
  0
LINE
  8
0
 10
140.394
 20
984.634
 11
140.133
 21
984.224
  0
LINE
  8
0
 10
140.133
 20
984.224
 11
139.823
 21
983.849
  0
LINE
  8
0
 10
139.823
 20
983.849
 11
139.469
 21
983.516
  0
LINE
  8
0
 10
139.469
 20
983.516
 11
139.075
 21
983.23
  0
LINE
  8
0
 10
139.075
 20
983.23
 11
138.649
 21
982.996
  0
LINE
  8
0
 10
138.649
 20
982.996
 11
138.197
 21
982.817
  0
LINE
  8
0
 10
138.197
 20
982.817
 11
137.726
 21
982.696
  0
LINE
  8
0
 10
137.726
 20
982.696
 11
137.243
 21
982.635
  0
LINE
  8
0
 10
137.243
 20
982.635
 11
-137.243
 21
982.635
  0
LINE
  8
0
 10
138.437
 20
702.089
 11
139.045
 21
702.245
  0
LINE
  8
0
 10
139.045
 20
702.245
 11
139.629
 21
702.476
  0
LINE
  8
0
 10
139.629
 20
702.476
 11
140.179
 21
702.778
  0
LINE
  8
0
 10
140.179
 20
702.778
 11
140.687
 21
703.147
  0
LINE
  8
0
 10
140.687
 20
703.147
 11
141.145
 21
703.577
  0
LINE
  8
0
 10
141.145
 20
703.577
 11
141.545
 21
704.061
  0
LINE
  8
0
 10
141.545
 20
704.061
 11
141.882
 21
704.591
  0
LINE
  8
0
 10
141.882
 20
704.591
 11
142.149
 21
705.159
  0
LINE
  8
0
 10
142.149
 20
705.159
 11
142.343
 21
705.757
  0
LINE
  8
0
 10
142.343
 20
705.757
 11
142.461
 21
706.373
  0
LINE
  8
0
 10
142.461
 20
706.373
 11
142.5
 21
707
  0
LINE
  8
0
 10
142.5
 20
707
 11
142.5
 21
967
  0
LINE
  8
0
 10
142.5
 20
967
 11
142.461
 21
967.627
  0
LINE
  8
0
 10
142.461
 20
967.627
 11
142.343
 21
968.243
  0
LINE
  8
0
 10
142.343
 20
968.243
 11
142.149
 21
968.841
  0
LINE
  8
0
 10
142.149
 20
968.841
 11
141.882
 21
969.409
  0
LINE
  8
0
 10
141.882
 20
969.409
 11
141.545
 21
969.939
  0
LINE
  8
0
 10
141.545
 20
969.939
 11
141.145
 21
970.423
  0
LINE
  8
0
 10
141.145
 20
970.423
 11
140.687
 21
970.853
  0
LINE
  8
0
 10
140.687
 20
970.853
 11
140.179
 21
971.222
  0
LINE
  8
0
 10
140.179
 20
971.222
 11
139.629
 21
971.524
  0
LINE
  8
0
 10
139.629
 20
971.524
 11
139.045
 21
971.755
  0
LINE
  8
0
 10
139.045
 20
971.755
 11
138.437
 21
971.911
  0
LINE
  8
0
 10
138.437
 20
971.911
 11
137.814
 21
971.99
  0
LINE
  8
0
 10
137.814
 20
971.99
 11
-137.814
 21
971.99
  0
LINE
  8
0
 10
-137.814
 20
971.99
 11
-138.437
 21
971.911
  0
LINE
  8
0
 10
-138.437
 20
971.911
 11
-139.045
 21
971.755
  0
LINE
  8
0
 10
-139.045
 20
971.755
 11
-139.629
 21
971.524
  0
LINE
  8
0
 10
-139.629
 20
971.524
 11
-140.179
 21
971.222
  0
LINE
  8
0
 10
-140.179
 20
971.222
 11
-140.687
 21
970.853
  0
LINE
  8
0
 10
-140.687
 20
970.853
 11
-141
 21
970.559
  0
LINE
  8
0
 10
-141
 20
970.559
 11
-141
 21
971.615
  0
LINE
  8
0
 10
-141
 20
971.615
 11
-144
 21
971.615
  0
LINE
  8
0
 10
-144
 20
971.615
 11
-144
 21
702.385
  0
LINE
  8
0
 10
-144
 20
702.385
 11
-141
 21
702.385
  0
LINE
  8
0
 10
-141
 20
702.385
 11
-141
 21
703.441
  0
LINE
  8
0
 10
-141
 20
703.441
 11
-140.687
 21
703.147
  0
LINE
  8
0
 10
-140.687
 20
703.147
 11
-140.179
 21
702.778
  0
LINE
  8
0
 10
-140.179
 20
702.778
 11
-139.629
 21
702.476
  0
LINE
  8
0
 10
-139.629
 20
702.476
 11
-139.045
 21
702.245
  0
LINE
  8
0
 10
-139.045
 20
702.245
 11
-138.437
 21
702.089
  0
LINE
  8
0
 10
-138.437
 20
702.089
 11
-137.814
 21
702.01
  0
LINE
  8
0
 10
-137.814
 20
702.01
 11
137.814
 21
702.01
  0
LINE
  8
0
 10
137.814
 20
702.01
 11
138.437
 21
702.089
  0
LINE
  8
0
 10
-135.151
 20
962.105
 11
-135.45
 21
962.143
  0
LINE
  8
0
 10
-135.45
 20
962.143
 11
-135.742
 21
962.217
  0
LINE
  8
0
 10
-135.742
 20
962.217
 11
-136.022
 21
962.328
  0
LINE
  8
0
 10
-136.022
 20
962.328
 11
-136.286
 21
962.474
  0
LINE
  8
0
 10
-136.286
 20
962.474
 11
-136.53
 21
962.651
  0
LINE
  8
0
 10
-136.53
 20
962.651
 11
-136.75
 21
962.857
  0
LINE
  8
0
 10
-136.75
 20
962.857
 11
-136.942
 21
963.089
  0
LINE
  8
0
 10
-136.942
 20
963.089
 11
-137.103
 21
963.344
  0
LINE
  8
0
 10
-137.103
 20
963.344
 11
-137.231
 21
963.617
  0
LINE
  8
0
 10
-137.231
 20
963.617
 11
-137.325
 21
963.903
  0
LINE
  8
0
 10
-137.325
 20
963.903
 11
-137.381
 21
964.199
  0
LINE
  8
0
 10
-137.381
 20
964.199
 11
-137.4
 21
964.5
  0
LINE
  8
0
 10
-137.4
 20
964.5
 11
-137.381
 21
964.801
  0
LINE
  8
0
 10
-137.381
 20
964.801
 11
-137.325
 21
965.097
  0
LINE
  8
0
 10
-137.325
 20
965.097
 11
-137.231
 21
965.383
  0
LINE
  8
0
 10
-137.231
 20
965.383
 11
-137.103
 21
965.656
  0
LINE
  8
0
 10
-137.103
 20
965.656
 11
-136.942
 21
965.911
  0
LINE
  8
0
 10
-136.942
 20
965.911
 11
-136.75
 21
966.143
  0
LINE
  8
0
 10
-136.75
 20
966.143
 11
-136.53
 21
966.349
  0
LINE
  8
0
 10
-136.53
 20
966.349
 11
-136.286
 21
966.526
  0
LINE
  8
0
 10
-136.286
 20
966.526
 11
-136.022
 21
966.672
  0
LINE
  8
0
 10
-136.022
 20
966.672
 11
-135.742
 21
966.783
  0
LINE
  8
0
 10
-135.742
 20
966.783
 11
-135.45
 21
966.857
  0
LINE
  8
0
 10
-135.45
 20
966.857
 11
-135.151
 21
966.895
  0
LINE
  8
0
 10
-135.151
 20
966.895
 11
-134.849
 21
966.895
  0
LINE
  8
0
 10
-134.849
 20
966.895
 11
-134.55
 21
966.857
  0
LINE
  8
0
 10
-134.55
 20
966.857
 11
-134.258
 21
966.783
  0
LINE
  8
0
 10
-134.258
 20
966.783
 11
-133.978
 21
966.672
  0
LINE
  8
0
 10
-133.978
 20
966.672
 11
-133.714
 21
966.526
  0
LINE
  8
0
 10
-133.714
 20
966.526
 11
-133.47
 21
966.349
  0
LINE
  8
0
 10
-133.47
 20
966.349
 11
-133.25
 21
966.143
  0
LINE
  8
0
 10
-133.25
 20
966.143
 11
-133.058
 21
965.911
  0
LINE
  8
0
 10
-133.058
 20
965.911
 11
-132.897
 21
965.656
  0
LINE
  8
0
 10
-132.897
 20
965.656
 11
-132.769
 21
965.383
  0
LINE
  8
0
 10
-132.769
 20
965.383
 11
-132.675
 21
965.097
  0
LINE
  8
0
 10
-132.675
 20
965.097
 11
-132.619
 21
964.801
  0
LINE
  8
0
 10
-132.619
 20
964.801
 11
-132.6
 21
964.5
  0
LINE
  8
0
 10
-132.6
 20
964.5
 11
-132.619
 21
964.199
  0
LINE
  8
0
 10
-132.619
 20
964.199
 11
-132.675
 21
963.903
  0
LINE
  8
0
 10
-132.675
 20
963.903
 11
-132.769
 21
963.617
  0
LINE
  8
0
 10
-132.769
 20
963.617
 11
-132.897
 21
963.344
  0
LINE
  8
0
 10
-132.897
 20
963.344
 11
-133.058
 21
963.089
  0
LINE
  8
0
 10
-133.058
 20
963.089
 11
-133.25
 21
962.857
  0
LINE
  8
0
 10
-133.25
 20
962.857
 11
-133.47
 21
962.651
  0
LINE
  8
0
 10
-133.47
 20
962.651
 11
-133.714
 21
962.474
  0
LINE
  8
0
 10
-133.714
 20
962.474
 11
-133.978
 21
962.328
  0
LINE
  8
0
 10
-133.978
 20
962.328
 11
-134.258
 21
962.217
  0
LINE
  8
0
 10
-134.258
 20
962.217
 11
-134.55
 21
962.143
  0
LINE
  8
0
 10
-134.55
 20
962.143
 11
-134.849
 21
962.105
  0
LINE
  8
0
 10
-134.849
 20
962.105
 11
-135.151
 21
962.105
  0
LINE
  8
0
 10
134.849
 20
962.105
 11
134.55
 21
962.143
  0
LINE
  8
0
 10
134.55
 20
962.143
 11
134.258
 21
962.217
  0
LINE
  8
0
 10
134.258
 20
962.217
 11
133.978
 21
962.328
  0
LINE
  8
0
 10
133.978
 20
962.328
 11
133.714
 21
962.474
  0
LINE
  8
0
 10
133.714
 20
962.474
 11
133.47
 21
962.651
  0
LINE
  8
0
 10
133.47
 20
962.651
 11
133.25
 21
962.857
  0
LINE
  8
0
 10
133.25
 20
962.857
 11
133.058
 21
963.089
  0
LINE
  8
0
 10
133.058
 20
963.089
 11
132.897
 21
963.344
  0
LINE
  8
0
 10
132.897
 20
963.344
 11
132.769
 21
963.617
  0
LINE
  8
0
 10
132.769
 20
963.617
 11
132.675
 21
963.903
  0
LINE
  8
0
 10
132.675
 20
963.903
 11
132.619
 21
964.199
  0
LINE
  8
0
 10
132.619
 20
964.199
 11
132.6
 21
964.5
  0
LINE
  8
0
 10
132.6
 20
964.5
 11
132.619
 21
964.801
  0
LINE
  8
0
 10
132.619
 20
964.801
 11
132.675
 21
965.097
  0
LINE
  8
0
 10
132.675
 20
965.097
 11
132.769
 21
965.383
  0
LINE
  8
0
 10
132.769
 20
965.383
 11
132.897
 21
965.656
  0
LINE
  8
0
 10
132.897
 20
965.656
 11
133.058
 21
965.911
  0
LINE
  8
0
 10
133.058
 20
965.911
 11
133.25
 21
966.143
  0
LINE
  8
0
 10
133.25
 20
966.143
 11
133.47
 21
966.349
  0
LINE
  8
0
 10
133.47
 20
966.349
 11
133.714
 21
966.526
  0
LINE
  8
0
 10
133.714
 20
966.526
 11
133.978
 21
966.672
  0
LINE
  8
0
 10
133.978
 20
966.672
 11
134.258
 21
966.783
  0
LINE
  8
0
 10
134.258
 20
966.783
 11
134.55
 21
966.857
  0
LINE
  8
0
 10
134.55
 20
966.857
 11
134.849
 21
966.895
  0
LINE
  8
0
 10
134.849
 20
966.895
 11
135.151
 21
966.895
  0
LINE
  8
0
 10
135.151
 20
966.895
 11
135.45
 21
966.857
  0
LINE
  8
0
 10
135.45
 20
966.857
 11
135.742
 21
966.783
  0
LINE
  8
0
 10
135.742
 20
966.783
 11
136.022
 21
966.672
  0
LINE
  8
0
 10
136.022
 20
966.672
 11
136.286
 21
966.526
  0
LINE
  8
0
 10
136.286
 20
966.526
 11
136.53
 21
966.349
  0
LINE
  8
0
 10
136.53
 20
966.349
 11
136.75
 21
966.143
  0
LINE
  8
0
 10
136.75
 20
966.143
 11
136.942
 21
965.911
  0
LINE
  8
0
 10
136.942
 20
965.911
 11
137.103
 21
965.656
  0
LINE
  8
0
 10
137.103
 20
965.656
 11
137.231
 21
965.383
  0
LINE
  8
0
 10
137.231
 20
965.383
 11
137.325
 21
965.097
  0
LINE
  8
0
 10
137.325
 20
965.097
 11
137.381
 21
964.801
  0
LINE
  8
0
 10
137.381
 20
964.801
 11
137.4
 21
964.5
  0
LINE
  8
0
 10
137.4
 20
964.5
 11
137.381
 21
964.199
  0
LINE
  8
0
 10
137.381
 20
964.199
 11
137.325
 21
963.903
  0
LINE
  8
0
 10
137.325
 20
963.903
 11
137.231
 21
963.617
  0
LINE
  8
0
 10
137.231
 20
963.617
 11
137.103
 21
963.344
  0
LINE
  8
0
 10
137.103
 20
963.344
 11
136.942
 21
963.089
  0
LINE
  8
0
 10
136.942
 20
963.089
 11
136.75
 21
962.857
  0
LINE
  8
0
 10
136.75
 20
962.857
 11
136.53
 21
962.651
  0
LINE
  8
0
 10
136.53
 20
962.651
 11
136.286
 21
962.474
  0
LINE
  8
0
 10
136.286
 20
962.474
 11
136.022
 21
962.328
  0
LINE
  8
0
 10
136.022
 20
962.328
 11
135.742
 21
962.217
  0
LINE
  8
0
 10
135.742
 20
962.217
 11
135.45
 21
962.143
  0
LINE
  8
0
 10
135.45
 20
962.143
 11
135.151
 21
962.105
  0
LINE
  8
0
 10
135.151
 20
962.105
 11
134.849
 21
962.105
  0
LINE
  8
0
 10
134.849
 20
707.105
 11
134.55
 21
707.143
  0
LINE
  8
0
 10
134.55
 20
707.143
 11
134.258
 21
707.217
  0
LINE
  8
0
 10
134.258
 20
707.217
 11
133.978
 21
707.328
  0
LINE
  8
0
 10
133.978
 20
707.328
 11
133.714
 21
707.474
  0
LINE
  8
0
 10
133.714
 20
707.474
 11
133.47
 21
707.651
  0
LINE
  8
0
 10
133.47
 20
707.651
 11
133.25
 21
707.857
  0
LINE
  8
0
 10
133.25
 20
707.857
 11
133.058
 21
708.089
  0
LINE
  8
0
 10
133.058
 20
708.089
 11
132.897
 21
708.344
  0
LINE
  8
0
 10
132.897
 20
708.344
 11
132.769
 21
708.617
  0
LINE
  8
0
 10
132.769
 20
708.617
 11
132.675
 21
708.903
  0
LINE
  8
0
 10
132.675
 20
708.903
 11
132.619
 21
709.199
  0
LINE
  8
0
 10
132.619
 20
709.199
 11
132.6
 21
709.5
  0
LINE
  8
0
 10
132.6
 20
709.5
 11
132.619
 21
709.801
  0
LINE
  8
0
 10
132.619
 20
709.801
 11
132.675
 21
710.097
  0
LINE
  8
0
 10
132.675
 20
710.097
 11
132.769
 21
710.383
  0
LINE
  8
0
 10
132.769
 20
710.383
 11
132.897
 21
710.656
  0
LINE
  8
0
 10
132.897
 20
710.656
 11
133.058
 21
710.911
  0
LINE
  8
0
 10
133.058
 20
710.911
 11
133.25
 21
711.143
  0
LINE
  8
0
 10
133.25
 20
711.143
 11
133.47
 21
711.349
  0
LINE
  8
0
 10
133.47
 20
711.349
 11
133.714
 21
711.526
  0
LINE
  8
0
 10
133.714
 20
711.526
 11
133.978
 21
711.672
  0
LINE
  8
0
 10
133.978
 20
711.672
 11
134.258
 21
711.783
  0
LINE
  8
0
 10
134.258
 20
711.783
 11
134.55
 21
711.857
  0
LINE
  8
0
 10
134.55
 20
711.857
 11
134.849
 21
711.895
  0
LINE
  8
0
 10
134.849
 20
711.895
 11
135.151
 21
711.895
  0
LINE
  8
0
 10
135.151
 20
711.895
 11
135.45
 21
711.857
  0
LINE
  8
0
 10
135.45
 20
711.857
 11
135.742
 21
711.783
  0
LINE
  8
0
 10
135.742
 20
711.783
 11
136.022
 21
711.672
  0
LINE
  8
0
 10
136.022
 20
711.672
 11
136.286
 21
711.526
  0
LINE
  8
0
 10
136.286
 20
711.526
 11
136.53
 21
711.349
  0
LINE
  8
0
 10
136.53
 20
711.349
 11
136.75
 21
711.143
  0
LINE
  8
0
 10
136.75
 20
711.143
 11
136.942
 21
710.911
  0
LINE
  8
0
 10
136.942
 20
710.911
 11
137.103
 21
710.656
  0
LINE
  8
0
 10
137.103
 20
710.656
 11
137.231
 21
710.383
  0
LINE
  8
0
 10
137.231
 20
710.383
 11
137.325
 21
710.097
  0
LINE
  8
0
 10
137.325
 20
710.097
 11
137.381
 21
709.801
  0
LINE
  8
0
 10
137.381
 20
709.801
 11
137.4
 21
709.5
  0
LINE
  8
0
 10
137.4
 20
709.5
 11
137.381
 21
709.199
  0
LINE
  8
0
 10
137.381
 20
709.199
 11
137.325
 21
708.903
  0
LINE
  8
0
 10
137.325
 20
708.903
 11
137.231
 21
708.617
  0
LINE
  8
0
 10
137.231
 20
708.617
 11
137.103
 21
708.344
  0
LINE
  8
0
 10
137.103
 20
708.344
 11
136.942
 21
708.089
  0
LINE
  8
0
 10
136.942
 20
708.089
 11
136.75
 21
707.857
  0
LINE
  8
0
 10
136.75
 20
707.857
 11
136.53
 21
707.651
  0
LINE
  8
0
 10
136.53
 20
707.651
 11
136.286
 21
707.474
  0
LINE
  8
0
 10
136.286
 20
707.474
 11
136.022
 21
707.328
  0
LINE
  8
0
 10
136.022
 20
707.328
 11
135.742
 21
707.217
  0
LINE
  8
0
 10
135.742
 20
707.217
 11
135.45
 21
707.143
  0
LINE
  8
0
 10
135.45
 20
707.143
 11
135.151
 21
707.105
  0
LINE
  8
0
 10
135.151
 20
707.105
 11
134.849
 21
707.105
  0
LINE
  8
0
 10
-135.151
 20
707.105
 11
-135.45
 21
707.143
  0
LINE
  8
0
 10
-135.45
 20
707.143
 11
-135.742
 21
707.217
  0
LINE
  8
0
 10
-135.742
 20
707.217
 11
-136.022
 21
707.328
  0
LINE
  8
0
 10
-136.022
 20
707.328
 11
-136.286
 21
707.474
  0
LINE
  8
0
 10
-136.286
 20
707.474
 11
-136.53
 21
707.651
  0
LINE
  8
0
 10
-136.53
 20
707.651
 11
-136.75
 21
707.857
  0
LINE
  8
0
 10
-136.75
 20
707.857
 11
-136.942
 21
708.089
  0
LINE
  8
0
 10
-136.942
 20
708.089
 11
-137.103
 21
708.344
  0
LINE
  8
0
 10
-137.103
 20
708.344
 11
-137.231
 21
708.617
  0
LINE
  8
0
 10
-137.231
 20
708.617
 11
-137.325
 21
708.903
  0
LINE
  8
0
 10
-137.325
 20
708.903
 11
-137.381
 21
709.199
  0
LINE
  8
0
 10
-137.381
 20
709.199
 11
-137.4
 21
709.5
  0
LINE
  8
0
 10
-137.4
 20
709.5
 11
-137.381
 21
709.801
  0
LINE
  8
0
 10
-137.381
 20
709.801
 11
-137.325
 21
710.097
  0
LINE
  8
0
 10
-137.325
 20
710.097
 11
-137.231
 21
710.383
  0
LINE
  8
0
 10
-137.231
 20
710.383
 11
-137.103
 21
710.656
  0
LINE
  8
0
 10
-137.103
 20
710.656
 11
-136.942
 21
710.911
  0
LINE
  8
0
 10
-136.942
 20
710.911
 11
-136.75
 21
711.143
  0
LINE
  8
0
 10
-136.75
 20
711.143
 11
-136.53
 21
711.349
  0
LINE
  8
0
 10
-136.53
 20
711.349
 11
-136.286
 21
711.526
  0
LINE
  8
0
 10
-136.286
 20
711.526
 11
-136.022
 21
711.672
  0
LINE
  8
0
 10
-136.022
 20
711.672
 11
-135.742
 21
711.783
  0
LINE
  8
0
 10
-135.742
 20
711.783
 11
-135.45
 21
711.857
  0
LINE
  8
0
 10
-135.45
 20
711.857
 11
-135.151
 21
711.895
  0
LINE
  8
0
 10
-135.151
 20
711.895
 11
-134.849
 21
711.895
  0
LINE
  8
0
 10
-134.849
 20
711.895
 11
-134.55
 21
711.857
  0
LINE
  8
0
 10
-134.55
 20
711.857
 11
-134.258
 21
711.783
  0
LINE
  8
0
 10
-134.258
 20
711.783
 11
-133.978
 21
711.672
  0
LINE
  8
0
 10
-133.978
 20
711.672
 11
-133.714
 21
711.526
  0
LINE
  8
0
 10
-133.714
 20
711.526
 11
-133.47
 21
711.349
  0
LINE
  8
0
 10
-133.47
 20
711.349
 11
-133.25
 21
711.143
  0
LINE
  8
0
 10
-133.25
 20
711.143
 11
-133.058
 21
710.911
  0
LINE
  8
0
 10
-133.058
 20
710.911
 11
-132.897
 21
710.656
  0
LINE
  8
0
 10
-132.897
 20
710.656
 11
-132.769
 21
710.383
  0
LINE
  8
0
 10
-132.769
 20
710.383
 11
-132.675
 21
710.097
  0
LINE
  8
0
 10
-132.675
 20
710.097
 11
-132.619
 21
709.801
  0
LINE
  8
0
 10
-132.619
 20
709.801
 11
-132.6
 21
709.5
  0
LINE
  8
0
 10
-132.6
 20
709.5
 11
-132.619
 21
709.199
  0
LINE
  8
0
 10
-132.619
 20
709.199
 11
-132.675
 21
708.903
  0
LINE
  8
0
 10
-132.675
 20
708.903
 11
-132.769
 21
708.617
  0
LINE
  8
0
 10
-132.769
 20
708.617
 11
-132.897
 21
708.344
  0
LINE
  8
0
 10
-132.897
 20
708.344
 11
-133.058
 21
708.089
  0
LINE
  8
0
 10
-133.058
 20
708.089
 11
-133.25
 21
707.857
  0
LINE
  8
0
 10
-133.25
 20
707.857
 11
-133.47
 21
707.651
  0
LINE
  8
0
 10
-133.47
 20
707.651
 11
-133.714
 21
707.474
  0
LINE
  8
0
 10
-133.714
 20
707.474
 11
-133.978
 21
707.328
  0
LINE
  8
0
 10
-133.978
 20
707.328
 11
-134.258
 21
707.217
  0
LINE
  8
0
 10
-134.258
 20
707.217
 11
-134.55
 21
707.143
  0
LINE
  8
0
 10
-134.55
 20
707.143
 11
-134.849
 21
707.105
  0
LINE
  8
0
 10
-134.849
 20
707.105
 11
-135.151
 21
707.105
  0
LINE
  8
0
 10
138.437
 20
423.089
 11
139.045
 21
423.245
  0
LINE
  8
0
 10
139.045
 20
423.245
 11
139.629
 21
423.476
  0
LINE
  8
0
 10
139.629
 20
423.476
 11
140.179
 21
423.778
  0
LINE
  8
0
 10
140.179
 20
423.778
 11
140.687
 21
424.147
  0
LINE
  8
0
 10
140.687
 20
424.147
 11
141.145
 21
424.577
  0
LINE
  8
0
 10
141.145
 20
424.577
 11
141.545
 21
425.061
  0
LINE
  8
0
 10
141.545
 20
425.061
 11
141.882
 21
425.591
  0
LINE
  8
0
 10
141.882
 20
425.591
 11
142.149
 21
426.159
  0
LINE
  8
0
 10
142.149
 20
426.159
 11
142.343
 21
426.757
  0
LINE
  8
0
 10
142.343
 20
426.757
 11
142.461
 21
427.373
  0
LINE
  8
0
 10
142.461
 20
427.373
 11
142.5
 21
428
  0
LINE
  8
0
 10
142.5
 20
428
 11
142.5
 21
688
  0
LINE
  8
0
 10
142.5
 20
688
 11
142.461
 21
688.627
  0
LINE
  8
0
 10
142.461
 20
688.627
 11
142.343
 21
689.243
  0
LINE
  8
0
 10
142.343
 20
689.243
 11
142.149
 21
689.841
  0
LINE
  8
0
 10
142.149
 20
689.841
 11
141.882
 21
690.409
  0
LINE
  8
0
 10
141.882
 20
690.409
 11
141.545
 21
690.939
  0
LINE
  8
0
 10
141.545
 20
690.939
 11
141.145
 21
691.423
  0
LINE
  8
0
 10
141.145
 20
691.423
 11
140.687
 21
691.853
  0
LINE
  8
0
 10
140.687
 20
691.853
 11
140.179
 21
692.222
  0
LINE
  8
0
 10
140.179
 20
692.222
 11
139.629
 21
692.524
  0
LINE
  8
0
 10
139.629
 20
692.524
 11
139.045
 21
692.755
  0
LINE
  8
0
 10
139.045
 20
692.755
 11
138.437
 21
692.911
  0
LINE
  8
0
 10
138.437
 20
692.911
 11
137.814
 21
692.99
  0
LINE
  8
0
 10
137.814
 20
692.99
 11
-137.814
 21
692.99
  0
LINE
  8
0
 10
-137.814
 20
692.99
 11
-138.437
 21
692.911
  0
LINE
  8
0
 10
-138.437
 20
692.911
 11
-139.045
 21
692.755
  0
LINE
  8
0
 10
-139.045
 20
692.755
 11
-139.629
 21
692.524
  0
LINE
  8
0
 10
-139.629
 20
692.524
 11
-140.179
 21
692.222
  0
LINE
  8
0
 10
-140.179
 20
692.222
 11
-140.687
 21
691.853
  0
LINE
  8
0
 10
-140.687
 20
691.853
 11
-141.145
 21
691.423
  0
LINE
  8
0
 10
-141.145
 20
691.423
 11
-141.545
 21
690.939
  0
LINE
  8
0
 10
-141.545
 20
690.939
 11
-141.882
 21
690.409
  0
LINE
  8
0
 10
-141.882
 20
690.409
 11
-142.149
 21
689.841
  0
LINE
  8
0
 10
-142.149
 20
689.841
 11
-142.343
 21
689.243
  0
LINE
  8
0
 10
-142.343
 20
689.243
 11
-142.4
 21
688.944
  0
LINE
  8
0
 10
-142.4
 20
688.944
 11
-144
 21
688.944
  0
LINE
  8
0
 10
-144
 20
688.944
 11
-144
 21
427.056
  0
LINE
  8
0
 10
-144
 20
427.056
 11
-142.4
 21
427.056
  0
LINE
  8
0
 10
-142.4
 20
427.056
 11
-142.343
 21
426.757
  0
LINE
  8
0
 10
-142.343
 20
426.757
 11
-142.149
 21
426.159
  0
LINE
  8
0
 10
-142.149
 20
426.159
 11
-141.882
 21
425.591
  0
LINE
  8
0
 10
-141.882
 20
425.591
 11
-141.545
 21
425.061
  0
LINE
  8
0
 10
-141.545
 20
425.061
 11
-141.145
 21
424.577
  0
LINE
  8
0
 10
-141.145
 20
424.577
 11
-140.687
 21
424.147
  0
LINE
  8
0
 10
-140.687
 20
424.147
 11
-140.179
 21
423.778
  0
LINE
  8
0
 10
-140.179
 20
423.778
 11
-139.629
 21
423.476
  0
LINE
  8
0
 10
-139.629
 20
423.476
 11
-139.045
 21
423.245
  0
LINE
  8
0
 10
-139.045
 20
423.245
 11
-138.437
 21
423.089
  0
LINE
  8
0
 10
-138.437
 20
423.089
 11
-137.814
 21
423.01
  0
LINE
  8
0
 10
-137.814
 20
423.01
 11
137.814
 21
423.01
  0
LINE
  8
0
 10
137.814
 20
423.01
 11
138.437
 21
423.089
  0
LINE
  8
0
 10
-135.113
 20
683.704
 11
-135.337
 21
683.732
  0
LINE
  8
0
 10
-135.337
 20
683.732
 11
-135.556
 21
683.788
  0
LINE
  8
0
 10
-135.556
 20
683.788
 11
-135.766
 21
683.871
  0
LINE
  8
0
 10
-135.766
 20
683.871
 11
-135.964
 21
683.98
  0
LINE
  8
0
 10
-135.964
 20
683.98
 11
-136.147
 21
684.113
  0
LINE
  8
0
 10
-136.147
 20
684.113
 11
-136.312
 21
684.268
  0
LINE
  8
0
 10
-136.312
 20
684.268
 11
-136.456
 21
684.442
  0
LINE
  8
0
 10
-136.456
 20
684.442
 11
-136.577
 21
684.633
  0
LINE
  8
0
 10
-136.577
 20
684.633
 11
-136.674
 21
684.837
  0
LINE
  8
0
 10
-136.674
 20
684.837
 11
-136.743
 21
685.052
  0
LINE
  8
0
 10
-136.743
 20
685.052
 11
-136.786
 21
685.274
  0
LINE
  8
0
 10
-136.786
 20
685.274
 11
-136.8
 21
685.5
  0
LINE
  8
0
 10
-136.8
 20
685.5
 11
-136.786
 21
685.726
  0
LINE
  8
0
 10
-136.786
 20
685.726
 11
-136.743
 21
685.948
  0
LINE
  8
0
 10
-136.743
 20
685.948
 11
-136.674
 21
686.163
  0
LINE
  8
0
 10
-136.674
 20
686.163
 11
-136.577
 21
686.367
  0
LINE
  8
0
 10
-136.577
 20
686.367
 11
-136.456
 21
686.558
  0
LINE
  8
0
 10
-136.456
 20
686.558
 11
-136.312
 21
686.732
  0
LINE
  8
0
 10
-136.312
 20
686.732
 11
-136.147
 21
686.887
  0
LINE
  8
0
 10
-136.147
 20
686.887
 11
-135.964
 21
687.02
  0
LINE
  8
0
 10
-135.964
 20
687.02
 11
-135.766
 21
687.129
  0
LINE
  8
0
 10
-135.766
 20
687.129
 11
-135.556
 21
687.212
  0
LINE
  8
0
 10
-135.556
 20
687.212
 11
-135.337
 21
687.268
  0
LINE
  8
0
 10
-135.337
 20
687.268
 11
-135.113
 21
687.296
  0
LINE
  8
0
 10
-135.113
 20
687.296
 11
-134.887
 21
687.296
  0
LINE
  8
0
 10
-134.887
 20
687.296
 11
-134.663
 21
687.268
  0
LINE
  8
0
 10
-134.663
 20
687.268
 11
-134.444
 21
687.212
  0
LINE
  8
0
 10
-134.444
 20
687.212
 11
-134.234
 21
687.129
  0
LINE
  8
0
 10
-134.234
 20
687.129
 11
-134.036
 21
687.02
  0
LINE
  8
0
 10
-134.036
 20
687.02
 11
-133.853
 21
686.887
  0
LINE
  8
0
 10
-133.853
 20
686.887
 11
-133.688
 21
686.732
  0
LINE
  8
0
 10
-133.688
 20
686.732
 11
-133.544
 21
686.558
  0
LINE
  8
0
 10
-133.544
 20
686.558
 11
-133.423
 21
686.367
  0
LINE
  8
0
 10
-133.423
 20
686.367
 11
-133.326
 21
686.163
  0
LINE
  8
0
 10
-133.326
 20
686.163
 11
-133.257
 21
685.948
  0
LINE
  8
0
 10
-133.257
 20
685.948
 11
-133.214
 21
685.726
  0
LINE
  8
0
 10
-133.214
 20
685.726
 11
-133.2
 21
685.5
  0
LINE
  8
0
 10
-133.2
 20
685.5
 11
-133.214
 21
685.274
  0
LINE
  8
0
 10
-133.214
 20
685.274
 11
-133.257
 21
685.052
  0
LINE
  8
0
 10
-133.257
 20
685.052
 11
-133.326
 21
684.837
  0
LINE
  8
0
 10
-133.326
 20
684.837
 11
-133.423
 21
684.633
  0
LINE
  8
0
 10
-133.423
 20
684.633
 11
-133.544
 21
684.442
  0
LINE
  8
0
 10
-133.544
 20
684.442
 11
-133.688
 21
684.268
  0
LINE
  8
0
 10
-133.688
 20
684.268
 11
-133.853
 21
684.113
  0
LINE
  8
0
 10
-133.853
 20
684.113
 11
-134.036
 21
683.98
  0
LINE
  8
0
 10
-134.036
 20
683.98
 11
-134.234
 21
683.871
  0
LINE
  8
0
 10
-134.234
 20
683.871
 11
-134.444
 21
683.788
  0
LINE
  8
0
 10
-134.444
 20
683.788
 11
-134.663
 21
683.732
  0
LINE
  8
0
 10
-134.663
 20
683.732
 11
-134.887
 21
683.704
  0
LINE
  8
0
 10
-134.887
 20
683.704
 11
-135.113
 21
683.704
  0
LINE
  8
0
 10
134.887
 20
683.704
 11
134.663
 21
683.732
  0
LINE
  8
0
 10
134.663
 20
683.732
 11
134.444
 21
683.788
  0
LINE
  8
0
 10
134.444
 20
683.788
 11
134.234
 21
683.871
  0
LINE
  8
0
 10
134.234
 20
683.871
 11
134.036
 21
683.98
  0
LINE
  8
0
 10
134.036
 20
683.98
 11
133.853
 21
684.113
  0
LINE
  8
0
 10
133.853
 20
684.113
 11
133.688
 21
684.268
  0
LINE
  8
0
 10
133.688
 20
684.268
 11
133.544
 21
684.442
  0
LINE
  8
0
 10
133.544
 20
684.442
 11
133.423
 21
684.633
  0
LINE
  8
0
 10
133.423
 20
684.633
 11
133.326
 21
684.837
  0
LINE
  8
0
 10
133.326
 20
684.837
 11
133.257
 21
685.052
  0
LINE
  8
0
 10
133.257
 20
685.052
 11
133.214
 21
685.274
  0
LINE
  8
0
 10
133.214
 20
685.274
 11
133.2
 21
685.5
  0
LINE
  8
0
 10
133.2
 20
685.5
 11
133.214
 21
685.726
  0
LINE
  8
0
 10
133.214
 20
685.726
 11
133.257
 21
685.948
  0
LINE
  8
0
 10
133.257
 20
685.948
 11
133.326
 21
686.163
  0
LINE
  8
0
 10
133.326
 20
686.163
 11
133.423
 21
686.367
  0
LINE
  8
0
 10
133.423
 20
686.367
 11
133.544
 21
686.558
  0
LINE
  8
0
 10
133.544
 20
686.558
 11
133.688
 21
686.732
  0
LINE
  8
0
 10
133.688
 20
686.732
 11
133.853
 21
686.887
  0
LINE
  8
0
 10
133.853
 20
686.887
 11
134.036
 21
687.02
  0
LINE
  8
0
 10
134.036
 20
687.02
 11
134.234
 21
687.129
  0
LINE
  8
0
 10
134.234
 20
687.129
 11
134.444
 21
687.212
  0
LINE
  8
0
 10
134.444
 20
687.212
 11
134.663
 21
687.268
  0
LINE
  8
0
 10
134.663
 20
687.268
 11
134.887
 21
687.296
  0
LINE
  8
0
 10
134.887
 20
687.296
 11
135.113
 21
687.296
  0
LINE
  8
0
 10
135.113
 20
687.296
 11
135.337
 21
687.268
  0
LINE
  8
0
 10
135.337
 20
687.268
 11
135.556
 21
687.212
  0
LINE
  8
0
 10
135.556
 20
687.212
 11
135.766
 21
687.129
  0
LINE
  8
0
 10
135.766
 20
687.129
 11
135.964
 21
687.02
  0
LINE
  8
0
 10
135.964
 20
687.02
 11
136.147
 21
686.887
  0
LINE
  8
0
 10
136.147
 20
686.887
 11
136.312
 21
686.732
  0
LINE
  8
0
 10
136.312
 20
686.732
 11
136.456
 21
686.558
  0
LINE
  8
0
 10
136.456
 20
686.558
 11
136.577
 21
686.367
  0
LINE
  8
0
 10
136.577
 20
686.367
 11
136.674
 21
686.163
  0
LINE
  8
0
 10
136.674
 20
686.163
 11
136.743
 21
685.948
  0
LINE
  8
0
 10
136.743
 20
685.948
 11
136.786
 21
685.726
  0
LINE
  8
0
 10
136.786
 20
685.726
 11
136.8
 21
685.5
  0
LINE
  8
0
 10
136.8
 20
685.5
 11
136.786
 21
685.274
  0
LINE
  8
0
 10
136.786
 20
685.274
 11
136.743
 21
685.052
  0
LINE
  8
0
 10
136.743
 20
685.052
 11
136.674
 21
684.837
  0
LINE
  8
0
 10
136.674
 20
684.837
 11
136.577
 21
684.633
  0
LINE
  8
0
 10
136.577
 20
684.633
 11
136.456
 21
684.442
  0
LINE
  8
0
 10
136.456
 20
684.442
 11
136.312
 21
684.268
  0
LINE
  8
0
 10
136.312
 20
684.268
 11
136.147
 21
684.113
  0
LINE
  8
0
 10
136.147
 20
684.113
 11
135.964
 21
683.98
  0
LINE
  8
0
 10
135.964
 20
683.98
 11
135.766
 21
683.871
  0
LINE
  8
0
 10
135.766
 20
683.871
 11
135.556
 21
683.788
  0
LINE
  8
0
 10
135.556
 20
683.788
 11
135.337
 21
683.732
  0
LINE
  8
0
 10
135.337
 20
683.732
 11
135.113
 21
683.704
  0
LINE
  8
0
 10
135.113
 20
683.704
 11
134.887
 21
683.704
  0
LINE
  8
0
 10
134.887
 20
428.704
 11
134.663
 21
428.732
  0
LINE
  8
0
 10
134.663
 20
428.732
 11
134.444
 21
428.788
  0
LINE
  8
0
 10
134.444
 20
428.788
 11
134.234
 21
428.871
  0
LINE
  8
0
 10
134.234
 20
428.871
 11
134.036
 21
428.98
  0
LINE
  8
0
 10
134.036
 20
428.98
 11
133.853
 21
429.113
  0
LINE
  8
0
 10
133.853
 20
429.113
 11
133.688
 21
429.268
  0
LINE
  8
0
 10
133.688
 20
429.268
 11
133.544
 21
429.442
  0
LINE
  8
0
 10
133.544
 20
429.442
 11
133.423
 21
429.633
  0
LINE
  8
0
 10
133.423
 20
429.633
 11
133.326
 21
429.837
  0
LINE
  8
0
 10
133.326
 20
429.837
 11
133.257
 21
430.052
  0
LINE
  8
0
 10
133.257
 20
430.052
 11
133.214
 21
430.274
  0
LINE
  8
0
 10
133.214
 20
430.274
 11
133.2
 21
430.5
  0
LINE
  8
0
 10
133.2
 20
430.5
 11
133.214
 21
430.726
  0
LINE
  8
0
 10
133.214
 20
430.726
 11
133.257
 21
430.948
  0
LINE
  8
0
 10
133.257
 20
430.948
 11
133.326
 21
431.163
  0
LINE
  8
0
 10
133.326
 20
431.163
 11
133.423
 21
431.367
  0
LINE
  8
0
 10
133.423
 20
431.367
 11
133.544
 21
431.558
  0
LINE
  8
0
 10
133.544
 20
431.558
 11
133.688
 21
431.732
  0
LINE
  8
0
 10
133.688
 20
431.732
 11
133.853
 21
431.887
  0
LINE
  8
0
 10
133.853
 20
431.887
 11
134.036
 21
432.02
  0
LINE
  8
0
 10
134.036
 20
432.02
 11
134.234
 21
432.129
  0
LINE
  8
0
 10
134.234
 20
432.129
 11
134.444
 21
432.212
  0
LINE
  8
0
 10
134.444
 20
432.212
 11
134.663
 21
432.268
  0
LINE
  8
0
 10
134.663
 20
432.268
 11
134.887
 21
432.296
  0
LINE
  8
0
 10
134.887
 20
432.296
 11
135.113
 21
432.296
  0
LINE
  8
0
 10
135.113
 20
432.296
 11
135.337
 21
432.268
  0
LINE
  8
0
 10
135.337
 20
432.268
 11
135.556
 21
432.212
  0
LINE
  8
0
 10
135.556
 20
432.212
 11
135.766
 21
432.129
  0
LINE
  8
0
 10
135.766
 20
432.129
 11
135.964
 21
432.02
  0
LINE
  8
0
 10
135.964
 20
432.02
 11
136.147
 21
431.887
  0
LINE
  8
0
 10
136.147
 20
431.887
 11
136.312
 21
431.732
  0
LINE
  8
0
 10
136.312
 20
431.732
 11
136.456
 21
431.558
  0
LINE
  8
0
 10
136.456
 20
431.558
 11
136.577
 21
431.367
  0
LINE
  8
0
 10
136.577
 20
431.367
 11
136.674
 21
431.163
  0
LINE
  8
0
 10
136.674
 20
431.163
 11
136.743
 21
430.948
  0
LINE
  8
0
 10
136.743
 20
430.948
 11
136.786
 21
430.726
  0
LINE
  8
0
 10
136.786
 20
430.726
 11
136.8
 21
430.5
  0
LINE
  8
0
 10
136.8
 20
430.5
 11
136.786
 21
430.274
  0
LINE
  8
0
 10
136.786
 20
430.274
 11
136.743
 21
430.052
  0
LINE
  8
0
 10
136.743
 20
430.052
 11
136.674
 21
429.837
  0
LINE
  8
0
 10
136.674
 20
429.837
 11
136.577
 21
429.633
  0
LINE
  8
0
 10
136.577
 20
429.633
 11
136.456
 21
429.442
  0
LINE
  8
0
 10
136.456
 20
429.442
 11
136.312
 21
429.268
  0
LINE
  8
0
 10
136.312
 20
429.268
 11
136.147
 21
429.113
  0
LINE
  8
0
 10
136.147
 20
429.113
 11
135.964
 21
428.98
  0
LINE
  8
0
 10
135.964
 20
428.98
 11
135.766
 21
428.871
  0
LINE
  8
0
 10
135.766
 20
428.871
 11
135.556
 21
428.788
  0
LINE
  8
0
 10
135.556
 20
428.788
 11
135.337
 21
428.732
  0
LINE
  8
0
 10
135.337
 20
428.732
 11
135.113
 21
428.704
  0
LINE
  8
0
 10
135.113
 20
428.704
 11
134.887
 21
428.704
  0
LINE
  8
0
 10
-135.113
 20
428.704
 11
-135.337
 21
428.732
  0
LINE
  8
0
 10
-135.337
 20
428.732
 11
-135.556
 21
428.788
  0
LINE
  8
0
 10
-135.556
 20
428.788
 11
-135.766
 21
428.871
  0
LINE
  8
0
 10
-135.766
 20
428.871
 11
-135.964
 21
428.98
  0
LINE
  8
0
 10
-135.964
 20
428.98
 11
-136.147
 21
429.113
  0
LINE
  8
0
 10
-136.147
 20
429.113
 11
-136.312
 21
429.268
  0
LINE
  8
0
 10
-136.312
 20
429.268
 11
-136.456
 21
429.442
  0
LINE
  8
0
 10
-136.456
 20
429.442
 11
-136.577
 21
429.633
  0
LINE
  8
0
 10
-136.577
 20
429.633
 11
-136.674
 21
429.837
  0
LINE
  8
0
 10
-136.674
 20
429.837
 11
-136.743
 21
430.052
  0
LINE
  8
0
 10
-136.743
 20
430.052
 11
-136.786
 21
430.274
  0
LINE
  8
0
 10
-136.786
 20
430.274
 11
-136.8
 21
430.5
  0
LINE
  8
0
 10
-136.8
 20
430.5
 11
-136.786
 21
430.726
  0
LINE
  8
0
 10
-136.786
 20
430.726
 11
-136.743
 21
430.948
  0
LINE
  8
0
 10
-136.743
 20
430.948
 11
-136.674
 21
431.163
  0
LINE
  8
0
 10
-136.674
 20
431.163
 11
-136.577
 21
431.367
  0
LINE
  8
0
 10
-136.577
 20
431.367
 11
-136.456
 21
431.558
  0
LINE
  8
0
 10
-136.456
 20
431.558
 11
-136.312
 21
431.732
  0
LINE
  8
0
 10
-136.312
 20
431.732
 11
-136.147
 21
431.887
  0
LINE
  8
0
 10
-136.147
 20
431.887
 11
-135.964
 21
432.02
  0
LINE
  8
0
 10
-135.964
 20
432.02
 11
-135.766
 21
432.129
  0
LINE
  8
0
 10
-135.766
 20
432.129
 11
-135.556
 21
432.212
  0
LINE
  8
0
 10
-135.556
 20
432.212
 11
-135.337
 21
432.268
  0
LINE
  8
0
 10
-135.337
 20
432.268
 11
-135.113
 21
432.296
  0
LINE
  8
0
 10
-135.113
 20
432.296
 11
-134.887
 21
432.296
  0
LINE
  8
0
 10
-134.887
 20
432.296
 11
-134.663
 21
432.268
  0
LINE
  8
0
 10
-134.663
 20
432.268
 11
-134.444
 21
432.212
  0
LINE
  8
0
 10
-134.444
 20
432.212
 11
-134.234
 21
432.129
  0
LINE
  8
0
 10
-134.234
 20
432.129
 11
-134.036
 21
432.02
  0
LINE
  8
0
 10
-134.036
 20
432.02
 11
-133.853
 21
431.887
  0
LINE
  8
0
 10
-133.853
 20
431.887
 11
-133.688
 21
431.732
  0
LINE
  8
0
 10
-133.688
 20
431.732
 11
-133.544
 21
431.558
  0
LINE
  8
0
 10
-133.544
 20
431.558
 11
-133.423
 21
431.367
  0
LINE
  8
0
 10
-133.423
 20
431.367
 11
-133.326
 21
431.163
  0
LINE
  8
0
 10
-133.326
 20
431.163
 11
-133.257
 21
430.948
  0
LINE
  8
0
 10
-133.257
 20
430.948
 11
-133.214
 21
430.726
  0
LINE
  8
0
 10
-133.214
 20
430.726
 11
-133.2
 21
430.5
  0
LINE
  8
0
 10
-133.2
 20
430.5
 11
-133.214
 21
430.274
  0
LINE
  8
0
 10
-133.214
 20
430.274
 11
-133.257
 21
430.052
  0
LINE
  8
0
 10
-133.257
 20
430.052
 11
-133.326
 21
429.837
  0
LINE
  8
0
 10
-133.326
 20
429.837
 11
-133.423
 21
429.633
  0
LINE
  8
0
 10
-133.423
 20
429.633
 11
-133.544
 21
429.442
  0
LINE
  8
0
 10
-133.544
 20
429.442
 11
-133.688
 21
429.268
  0
LINE
  8
0
 10
-133.688
 20
429.268
 11
-133.853
 21
429.113
  0
LINE
  8
0
 10
-133.853
 20
429.113
 11
-134.036
 21
428.98
  0
LINE
  8
0
 10
-134.036
 20
428.98
 11
-134.234
 21
428.871
  0
LINE
  8
0
 10
-134.234
 20
428.871
 11
-134.444
 21
428.788
  0
LINE
  8
0
 10
-134.444
 20
428.788
 11
-134.663
 21
428.732
  0
LINE
  8
0
 10
-134.663
 20
428.732
 11
-134.887
 21
428.704
  0
LINE
  8
0
 10
-134.887
 20
428.704
 11
-135.113
 21
428.704
  0
ENDSEC
  0
SECTION
  2
OBJECTS
  0
DICTIONARY
  0
ENDSEC
  0
EOF
