  0
SECTION
  2
BLOCKS
  0
ENDSEC
  0
SECTION
  2
ENTITIES
  0
LINE
  8
0
 10
138.437
 20
423.089
 11
139.045
 21
423.245
  0
LINE
  8
0
 10
139.045
 20
423.245
 11
139.629
 21
423.476
  0
LINE
  8
0
 10
139.629
 20
423.476
 11
140.179
 21
423.778
  0
LINE
  8
0
 10
140.179
 20
423.778
 11
140.687
 21
424.147
  0
LINE
  8
0
 10
140.687
 20
424.147
 11
141.145
 21
424.577
  0
LINE
  8
0
 10
141.145
 20
424.577
 11
141.545
 21
425.061
  0
LINE
  8
0
 10
141.545
 20
425.061
 11
141.882
 21
425.591
  0
LINE
  8
0
 10
141.882
 20
425.591
 11
142.149
 21
426.159
  0
LINE
  8
0
 10
142.149
 20
426.159
 11
142.343
 21
426.757
  0
LINE
  8
0
 10
142.343
 20
426.757
 11
142.461
 21
427.373
  0
LINE
  8
0
 10
142.461
 20
427.373
 11
142.5
 21
428
  0
LINE
  8
0
 10
142.5
 20
428
 11
142.5
 21
688
  0
LINE
  8
0
 10
142.5
 20
688
 11
142.461
 21
688.627
  0
LINE
  8
0
 10
142.461
 20
688.627
 11
142.343
 21
689.243
  0
LINE
  8
0
 10
142.343
 20
689.243
 11
142.149
 21
689.841
  0
LINE
  8
0
 10
142.149
 20
689.841
 11
141.882
 21
690.409
  0
LINE
  8
0
 10
141.882
 20
690.409
 11
141.545
 21
690.939
  0
LINE
  8
0
 10
141.545
 20
690.939
 11
141.145
 21
691.423
  0
LINE
  8
0
 10
141.145
 20
691.423
 11
140.687
 21
691.853
  0
LINE
  8
0
 10
140.687
 20
691.853
 11
140.179
 21
692.222
  0
LINE
  8
0
 10
140.179
 20
692.222
 11
139.629
 21
692.524
  0
LINE
  8
0
 10
139.629
 20
692.524
 11
139.045
 21
692.755
  0
LINE
  8
0
 10
139.045
 20
692.755
 11
138.437
 21
692.911
  0
LINE
  8
0
 10
138.437
 20
692.911
 11
137.814
 21
692.99
  0
LINE
  8
0
 10
137.814
 20
692.99
 11
-137.814
 21
692.99
  0
LINE
  8
0
 10
-137.814
 20
692.99
 11
-138.437
 21
692.911
  0
LINE
  8
0
 10
-138.437
 20
692.911
 11
-139.045
 21
692.755
  0
LINE
  8
0
 10
-139.045
 20
692.755
 11
-139.629
 21
692.524
  0
LINE
  8
0
 10
-139.629
 20
692.524
 11
-140.179
 21
692.222
  0
LINE
  8
0
 10
-140.179
 20
692.222
 11
-140.687
 21
691.853
  0
LINE
  8
0
 10
-140.687
 20
691.853
 11
-141.145
 21
691.423
  0
LINE
  8
0
 10
-141.145
 20
691.423
 11
-141.545
 21
690.939
  0
LINE
  8
0
 10
-141.545
 20
690.939
 11
-141.882
 21
690.409
  0
LINE
  8
0
 10
-141.882
 20
690.409
 11
-142.149
 21
689.841
  0
LINE
  8
0
 10
-142.149
 20
689.841
 11
-142.343
 21
689.243
  0
LINE
  8
0
 10
-142.343
 20
689.243
 11
-142.461
 21
688.627
  0
LINE
  8
0
 10
-142.461
 20
688.627
 11
-142.5
 21
688
  0
LINE
  8
0
 10
-142.5
 20
688
 11
-142.5
 21
428
  0
LINE
  8
0
 10
-142.5
 20
428
 11
-142.461
 21
427.373
  0
LINE
  8
0
 10
-142.461
 20
427.373
 11
-142.343
 21
426.757
  0
LINE
  8
0
 10
-142.343
 20
426.757
 11
-142.149
 21
426.159
  0
LINE
  8
0
 10
-142.149
 20
426.159
 11
-141.882
 21
425.591
  0
LINE
  8
0
 10
-141.882
 20
425.591
 11
-141.545
 21
425.061
  0
LINE
  8
0
 10
-141.545
 20
425.061
 11
-141.145
 21
424.577
  0
LINE
  8
0
 10
-141.145
 20
424.577
 11
-140.687
 21
424.147
  0
LINE
  8
0
 10
-140.687
 20
424.147
 11
-140.179
 21
423.778
  0
LINE
  8
0
 10
-140.179
 20
423.778
 11
-139.629
 21
423.476
  0
LINE
  8
0
 10
-139.629
 20
423.476
 11
-139.045
 21
423.245
  0
LINE
  8
0
 10
-139.045
 20
423.245
 11
-138.437
 21
423.089
  0
LINE
  8
0
 10
-138.437
 20
423.089
 11
-137.814
 21
423.01
  0
LINE
  8
0
 10
-137.814
 20
423.01
 11
137.814
 21
423.01
  0
LINE
  8
0
 10
137.814
 20
423.01
 11
138.437
 21
423.089
  0
LINE
  8
0
 10
-137.493
 20
424.388
 11
-137.975
 21
424.449
  0
LINE
  8
0
 10
-137.975
 20
424.449
 11
-138.446
 21
424.57
  0
LINE
  8
0
 10
-138.446
 20
424.57
 11
-138.898
 21
424.749
  0
LINE
  8
0
 10
-138.898
 20
424.749
 11
-139.323
 21
424.983
  0
LINE
  8
0
 10
-139.323
 20
424.983
 11
-139.716
 21
425.269
  0
LINE
  8
0
 10
-139.716
 20
425.269
 11
-140.071
 21
425.601
  0
LINE
  8
0
 10
-140.071
 20
425.601
 11
-140.38
 21
425.976
  0
LINE
  8
0
 10
-140.38
 20
425.976
 11
-140.641
 21
426.386
  0
LINE
  8
0
 10
-140.641
 20
426.386
 11
-140.848
 21
426.826
  0
LINE
  8
0
 10
-140.848
 20
426.826
 11
-140.998
 21
427.288
  0
LINE
  8
0
 10
-140.998
 20
427.288
 11
-141.089
 21
427.765
  0
LINE
  8
0
 10
-141.089
 20
427.765
 11
-141.119
 21
428.25
  0
LINE
  8
0
 10
-141.119
 20
428.25
 11
-141.119
 21
687.75
  0
LINE
  8
0
 10
-141.119
 20
687.75
 11
-141.089
 21
688.235
  0
LINE
  8
0
 10
-141.089
 20
688.235
 11
-140.998
 21
688.712
  0
LINE
  8
0
 10
-140.998
 20
688.712
 11
-140.848
 21
689.174
  0
LINE
  8
0
 10
-140.848
 20
689.174
 11
-140.641
 21
689.614
  0
LINE
  8
0
 10
-140.641
 20
689.614
 11
-140.38
 21
690.024
  0
LINE
  8
0
 10
-140.38
 20
690.024
 11
-140.071
 21
690.399
  0
LINE
  8
0
 10
-140.071
 20
690.399
 11
-139.716
 21
690.731
  0
LINE
  8
0
 10
-139.716
 20
690.731
 11
-139.323
 21
691.017
  0
LINE
  8
0
 10
-139.323
 20
691.017
 11
-138.898
 21
691.251
  0
LINE
  8
0
 10
-138.898
 20
691.251
 11
-138.446
 21
691.43
  0
LINE
  8
0
 10
-138.446
 20
691.43
 11
-137.975
 21
691.551
  0
LINE
  8
0
 10
-137.975
 20
691.551
 11
-137.493
 21
691.612
  0
LINE
  8
0
 10
-137.493
 20
691.612
 11
137.493
 21
691.612
  0
LINE
  8
0
 10
137.493
 20
691.612
 11
137.975
 21
691.551
  0
LINE
  8
0
 10
137.975
 20
691.551
 11
138.446
 21
691.43
  0
LINE
  8
0
 10
138.446
 20
691.43
 11
138.898
 21
691.251
  0
LINE
  8
0
 10
138.898
 20
691.251
 11
139.323
 21
691.017
  0
LINE
  8
0
 10
139.323
 20
691.017
 11
139.716
 21
690.731
  0
LINE
  8
0
 10
139.716
 20
690.731
 11
140.071
 21
690.399
  0
LINE
  8
0
 10
140.071
 20
690.399
 11
140.38
 21
690.024
  0
LINE
  8
0
 10
140.38
 20
690.024
 11
140.641
 21
689.614
  0
LINE
  8
0
 10
140.641
 20
689.614
 11
140.848
 21
689.174
  0
LINE
  8
0
 10
140.848
 20
689.174
 11
140.998
 21
688.712
  0
LINE
  8
0
 10
140.998
 20
688.712
 11
141.089
 21
688.235
  0
LINE
  8
0
 10
141.089
 20
688.235
 11
141.119
 21
687.75
  0
LINE
  8
0
 10
141.119
 20
687.75
 11
141.119
 21
428.25
  0
LINE
  8
0
 10
141.119
 20
428.25
 11
141.089
 21
427.765
  0
LINE
  8
0
 10
141.089
 20
427.765
 11
140.998
 21
427.288
  0
LINE
  8
0
 10
140.998
 20
427.288
 11
140.848
 21
426.826
  0
LINE
  8
0
 10
140.848
 20
426.826
 11
140.641
 21
426.386
  0
LINE
  8
0
 10
140.641
 20
426.386
 11
140.38
 21
425.976
  0
LINE
  8
0
 10
140.38
 20
425.976
 11
140.071
 21
425.601
  0
LINE
  8
0
 10
140.071
 20
425.601
 11
139.716
 21
425.269
  0
LINE
  8
0
 10
139.716
 20
425.269
 11
139.323
 21
424.983
  0
LINE
  8
0
 10
139.323
 20
424.983
 11
138.898
 21
424.749
  0
LINE
  8
0
 10
138.898
 20
424.749
 11
138.446
 21
424.57
  0
LINE
  8
0
 10
138.446
 20
424.57
 11
137.975
 21
424.449
  0
LINE
  8
0
 10
137.975
 20
424.449
 11
137.493
 21
424.388
  0
LINE
  8
0
 10
137.493
 20
424.388
 11
-137.493
 21
424.388
  0
LINE
  8
0
 10
138.437
 20
144.089
 11
139.045
 21
144.245
  0
LINE
  8
0
 10
139.045
 20
144.245
 11
139.629
 21
144.476
  0
LINE
  8
0
 10
139.629
 20
144.476
 11
140.179
 21
144.778
  0
LINE
  8
0
 10
140.179
 20
144.778
 11
140.687
 21
145.147
  0
LINE
  8
0
 10
140.687
 20
145.147
 11
141.145
 21
145.577
  0
LINE
  8
0
 10
141.145
 20
145.577
 11
141.545
 21
146.061
  0
LINE
  8
0
 10
141.545
 20
146.061
 11
141.882
 21
146.591
  0
LINE
  8
0
 10
141.882
 20
146.591
 11
142.149
 21
147.159
  0
LINE
  8
0
 10
142.149
 20
147.159
 11
142.343
 21
147.757
  0
LINE
  8
0
 10
142.343
 20
147.757
 11
142.461
 21
148.373
  0
LINE
  8
0
 10
142.461
 20
148.373
 11
142.5
 21
149
  0
LINE
  8
0
 10
142.5
 20
149
 11
142.5
 21
409
  0
LINE
  8
0
 10
142.5
 20
409
 11
142.461
 21
409.627
  0
LINE
  8
0
 10
142.461
 20
409.627
 11
142.343
 21
410.243
  0
LINE
  8
0
 10
142.343
 20
410.243
 11
142.149
 21
410.841
  0
LINE
  8
0
 10
142.149
 20
410.841
 11
141.882
 21
411.409
  0
LINE
  8
0
 10
141.882
 20
411.409
 11
141.545
 21
411.939
  0
LINE
  8
0
 10
141.545
 20
411.939
 11
141.145
 21
412.423
  0
LINE
  8
0
 10
141.145
 20
412.423
 11
140.687
 21
412.853
  0
LINE
  8
0
 10
140.687
 20
412.853
 11
140.179
 21
413.222
  0
LINE
  8
0
 10
140.179
 20
413.222
 11
139.629
 21
413.524
  0
LINE
  8
0
 10
139.629
 20
413.524
 11
139.045
 21
413.755
  0
LINE
  8
0
 10
139.045
 20
413.755
 11
138.437
 21
413.911
  0
LINE
  8
0
 10
138.437
 20
413.911
 11
137.814
 21
413.99
  0
LINE
  8
0
 10
137.814
 20
413.99
 11
-137.814
 21
413.99
  0
LINE
  8
0
 10
-137.814
 20
413.99
 11
-138.437
 21
413.911
  0
LINE
  8
0
 10
-138.437
 20
413.911
 11
-139.045
 21
413.755
  0
LINE
  8
0
 10
-139.045
 20
413.755
 11
-139.629
 21
413.524
  0
LINE
  8
0
 10
-139.629
 20
413.524
 11
-140.179
 21
413.222
  0
LINE
  8
0
 10
-140.179
 20
413.222
 11
-140.687
 21
412.853
  0
LINE
  8
0
 10
-140.687
 20
412.853
 11
-141.145
 21
412.423
  0
LINE
  8
0
 10
-141.145
 20
412.423
 11
-141.545
 21
411.939
  0
LINE
  8
0
 10
-141.545
 20
411.939
 11
-141.882
 21
411.409
  0
LINE
  8
0
 10
-141.882
 20
411.409
 11
-142.149
 21
410.841
  0
LINE
  8
0
 10
-142.149
 20
410.841
 11
-142.343
 21
410.243
  0
LINE
  8
0
 10
-142.343
 20
410.243
 11
-142.461
 21
409.627
  0
LINE
  8
0
 10
-142.461
 20
409.627
 11
-142.5
 21
409
  0
LINE
  8
0
 10
-142.5
 20
409
 11
-142.5
 21
149
  0
LINE
  8
0
 10
-142.5
 20
149
 11
-142.461
 21
148.373
  0
LINE
  8
0
 10
-142.461
 20
148.373
 11
-142.343
 21
147.757
  0
LINE
  8
0
 10
-142.343
 20
147.757
 11
-142.149
 21
147.159
  0
LINE
  8
0
 10
-142.149
 20
147.159
 11
-141.882
 21
146.591
  0
LINE
  8
0
 10
-141.882
 20
146.591
 11
-141.545
 21
146.061
  0
LINE
  8
0
 10
-141.545
 20
146.061
 11
-141.145
 21
145.577
  0
LINE
  8
0
 10
-141.145
 20
145.577
 11
-140.687
 21
145.147
  0
LINE
  8
0
 10
-140.687
 20
145.147
 11
-140.179
 21
144.778
  0
LINE
  8
0
 10
-140.179
 20
144.778
 11
-139.629
 21
144.476
  0
LINE
  8
0
 10
-139.629
 20
144.476
 11
-139.045
 21
144.245
  0
LINE
  8
0
 10
-139.045
 20
144.245
 11
-138.437
 21
144.089
  0
LINE
  8
0
 10
-138.437
 20
144.089
 11
-137.814
 21
144.01
  0
LINE
  8
0
 10
-137.814
 20
144.01
 11
137.814
 21
144.01
  0
LINE
  8
0
 10
137.814
 20
144.01
 11
138.437
 21
144.089
  0
LINE
  8
0
 10
134.887
 20
404.704
 11
134.663
 21
404.732
  0
LINE
  8
0
 10
134.663
 20
404.732
 11
134.444
 21
404.788
  0
LINE
  8
0
 10
134.444
 20
404.788
 11
134.234
 21
404.871
  0
LINE
  8
0
 10
134.234
 20
404.871
 11
134.036
 21
404.98
  0
LINE
  8
0
 10
134.036
 20
404.98
 11
133.853
 21
405.113
  0
LINE
  8
0
 10
133.853
 20
405.113
 11
133.688
 21
405.268
  0
LINE
  8
0
 10
133.688
 20
405.268
 11
133.544
 21
405.442
  0
LINE
  8
0
 10
133.544
 20
405.442
 11
133.423
 21
405.633
  0
LINE
  8
0
 10
133.423
 20
405.633
 11
133.326
 21
405.837
  0
LINE
  8
0
 10
133.326
 20
405.837
 11
133.257
 21
406.052
  0
LINE
  8
0
 10
133.257
 20
406.052
 11
133.214
 21
406.274
  0
LINE
  8
0
 10
133.214
 20
406.274
 11
133.2
 21
406.5
  0
LINE
  8
0
 10
133.2
 20
406.5
 11
133.214
 21
406.726
  0
LINE
  8
0
 10
133.214
 20
406.726
 11
133.257
 21
406.948
  0
LINE
  8
0
 10
133.257
 20
406.948
 11
133.326
 21
407.163
  0
LINE
  8
0
 10
133.326
 20
407.163
 11
133.423
 21
407.367
  0
LINE
  8
0
 10
133.423
 20
407.367
 11
133.544
 21
407.558
  0
LINE
  8
0
 10
133.544
 20
407.558
 11
133.688
 21
407.732
  0
LINE
  8
0
 10
133.688
 20
407.732
 11
133.853
 21
407.887
  0
LINE
  8
0
 10
133.853
 20
407.887
 11
134.036
 21
408.02
  0
LINE
  8
0
 10
134.036
 20
408.02
 11
134.234
 21
408.129
  0
LINE
  8
0
 10
134.234
 20
408.129
 11
134.444
 21
408.212
  0
LINE
  8
0
 10
134.444
 20
408.212
 11
134.663
 21
408.268
  0
LINE
  8
0
 10
134.663
 20
408.268
 11
134.887
 21
408.296
  0
LINE
  8
0
 10
134.887
 20
408.296
 11
135.113
 21
408.296
  0
LINE
  8
0
 10
135.113
 20
408.296
 11
135.337
 21
408.268
  0
LINE
  8
0
 10
135.337
 20
408.268
 11
135.556
 21
408.212
  0
LINE
  8
0
 10
135.556
 20
408.212
 11
135.766
 21
408.129
  0
LINE
  8
0
 10
135.766
 20
408.129
 11
135.964
 21
408.02
  0
LINE
  8
0
 10
135.964
 20
408.02
 11
136.147
 21
407.887
  0
LINE
  8
0
 10
136.147
 20
407.887
 11
136.312
 21
407.732
  0
LINE
  8
0
 10
136.312
 20
407.732
 11
136.456
 21
407.558
  0
LINE
  8
0
 10
136.456
 20
407.558
 11
136.577
 21
407.367
  0
LINE
  8
0
 10
136.577
 20
407.367
 11
136.674
 21
407.163
  0
LINE
  8
0
 10
136.674
 20
407.163
 11
136.743
 21
406.948
  0
LINE
  8
0
 10
136.743
 20
406.948
 11
136.786
 21
406.726
  0
LINE
  8
0
 10
136.786
 20
406.726
 11
136.8
 21
406.5
  0
LINE
  8
0
 10
136.8
 20
406.5
 11
136.786
 21
406.274
  0
LINE
  8
0
 10
136.786
 20
406.274
 11
136.743
 21
406.052
  0
LINE
  8
0
 10
136.743
 20
406.052
 11
136.674
 21
405.837
  0
LINE
  8
0
 10
136.674
 20
405.837
 11
136.577
 21
405.633
  0
LINE
  8
0
 10
136.577
 20
405.633
 11
136.456
 21
405.442
  0
LINE
  8
0
 10
136.456
 20
405.442
 11
136.312
 21
405.268
  0
LINE
  8
0
 10
136.312
 20
405.268
 11
136.147
 21
405.113
  0
LINE
  8
0
 10
136.147
 20
405.113
 11
135.964
 21
404.98
  0
LINE
  8
0
 10
135.964
 20
404.98
 11
135.766
 21
404.871
  0
LINE
  8
0
 10
135.766
 20
404.871
 11
135.556
 21
404.788
  0
LINE
  8
0
 10
135.556
 20
404.788
 11
135.337
 21
404.732
  0
LINE
  8
0
 10
135.337
 20
404.732
 11
135.113
 21
404.704
  0
LINE
  8
0
 10
135.113
 20
404.704
 11
134.887
 21
404.704
  0
LINE
  8
0
 10
-135.113
 20
404.704
 11
-135.337
 21
404.732
  0
LINE
  8
0
 10
-135.337
 20
404.732
 11
-135.556
 21
404.788
  0
LINE
  8
0
 10
-135.556
 20
404.788
 11
-135.766
 21
404.871
  0
LINE
  8
0
 10
-135.766
 20
404.871
 11
-135.964
 21
404.98
  0
LINE
  8
0
 10
-135.964
 20
404.98
 11
-136.147
 21
405.113
  0
LINE
  8
0
 10
-136.147
 20
405.113
 11
-136.312
 21
405.268
  0
LINE
  8
0
 10
-136.312
 20
405.268
 11
-136.456
 21
405.442
  0
LINE
  8
0
 10
-136.456
 20
405.442
 11
-136.577
 21
405.633
  0
LINE
  8
0
 10
-136.577
 20
405.633
 11
-136.674
 21
405.837
  0
LINE
  8
0
 10
-136.674
 20
405.837
 11
-136.743
 21
406.052
  0
LINE
  8
0
 10
-136.743
 20
406.052
 11
-136.786
 21
406.274
  0
LINE
  8
0
 10
-136.786
 20
406.274
 11
-136.8
 21
406.5
  0
LINE
  8
0
 10
-136.8
 20
406.5
 11
-136.786
 21
406.726
  0
LINE
  8
0
 10
-136.786
 20
406.726
 11
-136.743
 21
406.948
  0
LINE
  8
0
 10
-136.743
 20
406.948
 11
-136.674
 21
407.163
  0
LINE
  8
0
 10
-136.674
 20
407.163
 11
-136.577
 21
407.367
  0
LINE
  8
0
 10
-136.577
 20
407.367
 11
-136.456
 21
407.558
  0
LINE
  8
0
 10
-136.456
 20
407.558
 11
-136.312
 21
407.732
  0
LINE
  8
0
 10
-136.312
 20
407.732
 11
-136.147
 21
407.887
  0
LINE
  8
0
 10
-136.147
 20
407.887
 11
-135.964
 21
408.02
  0
LINE
  8
0
 10
-135.964
 20
408.02
 11
-135.766
 21
408.129
  0
LINE
  8
0
 10
-135.766
 20
408.129
 11
-135.556
 21
408.212
  0
LINE
  8
0
 10
-135.556
 20
408.212
 11
-135.337
 21
408.268
  0
LINE
  8
0
 10
-135.337
 20
408.268
 11
-135.113
 21
408.296
  0
LINE
  8
0
 10
-135.113
 20
408.296
 11
-134.887
 21
408.296
  0
LINE
  8
0
 10
-134.887
 20
408.296
 11
-134.663
 21
408.268
  0
LINE
  8
0
 10
-134.663
 20
408.268
 11
-134.444
 21
408.212
  0
LINE
  8
0
 10
-134.444
 20
408.212
 11
-134.234
 21
408.129
  0
LINE
  8
0
 10
-134.234
 20
408.129
 11
-134.036
 21
408.02
  0
LINE
  8
0
 10
-134.036
 20
408.02
 11
-133.853
 21
407.887
  0
LINE
  8
0
 10
-133.853
 20
407.887
 11
-133.688
 21
407.732
  0
LINE
  8
0
 10
-133.688
 20
407.732
 11
-133.544
 21
407.558
  0
LINE
  8
0
 10
-133.544
 20
407.558
 11
-133.423
 21
407.367
  0
LINE
  8
0
 10
-133.423
 20
407.367
 11
-133.326
 21
407.163
  0
LINE
  8
0
 10
-133.326
 20
407.163
 11
-133.257
 21
406.948
  0
LINE
  8
0
 10
-133.257
 20
406.948
 11
-133.214
 21
406.726
  0
LINE
  8
0
 10
-133.214
 20
406.726
 11
-133.2
 21
406.5
  0
LINE
  8
0
 10
-133.2
 20
406.5
 11
-133.214
 21
406.274
  0
LINE
  8
0
 10
-133.214
 20
406.274
 11
-133.257
 21
406.052
  0
LINE
  8
0
 10
-133.257
 20
406.052
 11
-133.326
 21
405.837
  0
LINE
  8
0
 10
-133.326
 20
405.837
 11
-133.423
 21
405.633
  0
LINE
  8
0
 10
-133.423
 20
405.633
 11
-133.544
 21
405.442
  0
LINE
  8
0
 10
-133.544
 20
405.442
 11
-133.688
 21
405.268
  0
LINE
  8
0
 10
-133.688
 20
405.268
 11
-133.853
 21
405.113
  0
LINE
  8
0
 10
-133.853
 20
405.113
 11
-134.036
 21
404.98
  0
LINE
  8
0
 10
-134.036
 20
404.98
 11
-134.234
 21
404.871
  0
LINE
  8
0
 10
-134.234
 20
404.871
 11
-134.444
 21
404.788
  0
LINE
  8
0
 10
-134.444
 20
404.788
 11
-134.663
 21
404.732
  0
LINE
  8
0
 10
-134.663
 20
404.732
 11
-134.887
 21
404.704
  0
LINE
  8
0
 10
-134.887
 20
404.704
 11
-135.113
 21
404.704
  0
LINE
  8
0
 10
-135.113
 20
149.704
 11
-135.337
 21
149.732
  0
LINE
  8
0
 10
-135.337
 20
149.732
 11
-135.556
 21
149.788
  0
LINE
  8
0
 10
-135.556
 20
149.788
 11
-135.766
 21
149.871
  0
LINE
  8
0
 10
-135.766
 20
149.871
 11
-135.964
 21
149.98
  0
LINE
  8
0
 10
-135.964
 20
149.98
 11
-136.147
 21
150.113
  0
LINE
  8
0
 10
-136.147
 20
150.113
 11
-136.312
 21
150.268
  0
LINE
  8
0
 10
-136.312
 20
150.268
 11
-136.456
 21
150.442
  0
LINE
  8
0
 10
-136.456
 20
150.442
 11
-136.577
 21
150.633
  0
LINE
  8
0
 10
-136.577
 20
150.633
 11
-136.674
 21
150.837
  0
LINE
  8
0
 10
-136.674
 20
150.837
 11
-136.743
 21
151.052
  0
LINE
  8
0
 10
-136.743
 20
151.052
 11
-136.786
 21
151.274
  0
LINE
  8
0
 10
-136.786
 20
151.274
 11
-136.8
 21
151.5
  0
LINE
  8
0
 10
-136.8
 20
151.5
 11
-136.786
 21
151.726
  0
LINE
  8
0
 10
-136.786
 20
151.726
 11
-136.743
 21
151.948
  0
LINE
  8
0
 10
-136.743
 20
151.948
 11
-136.674
 21
152.163
  0
LINE
  8
0
 10
-136.674
 20
152.163
 11
-136.577
 21
152.367
  0
LINE
  8
0
 10
-136.577
 20
152.367
 11
-136.456
 21
152.558
  0
LINE
  8
0
 10
-136.456
 20
152.558
 11
-136.312
 21
152.732
  0
LINE
  8
0
 10
-136.312
 20
152.732
 11
-136.147
 21
152.887
  0
LINE
  8
0
 10
-136.147
 20
152.887
 11
-135.964
 21
153.02
  0
LINE
  8
0
 10
-135.964
 20
153.02
 11
-135.766
 21
153.129
  0
LINE
  8
0
 10
-135.766
 20
153.129
 11
-135.556
 21
153.212
  0
LINE
  8
0
 10
-135.556
 20
153.212
 11
-135.337
 21
153.268
  0
LINE
  8
0
 10
-135.337
 20
153.268
 11
-135.113
 21
153.296
  0
LINE
  8
0
 10
-135.113
 20
153.296
 11
-134.887
 21
153.296
  0
LINE
  8
0
 10
-134.887
 20
153.296
 11
-134.663
 21
153.268
  0
LINE
  8
0
 10
-134.663
 20
153.268
 11
-134.444
 21
153.212
  0
LINE
  8
0
 10
-134.444
 20
153.212
 11
-134.234
 21
153.129
  0
LINE
  8
0
 10
-134.234
 20
153.129
 11
-134.036
 21
153.02
  0
LINE
  8
0
 10
-134.036
 20
153.02
 11
-133.853
 21
152.887
  0
LINE
  8
0
 10
-133.853
 20
152.887
 11
-133.688
 21
152.732
  0
LINE
  8
0
 10
-133.688
 20
152.732
 11
-133.544
 21
152.558
  0
LINE
  8
0
 10
-133.544
 20
152.558
 11
-133.423
 21
152.367
  0
LINE
  8
0
 10
-133.423
 20
152.367
 11
-133.326
 21
152.163
  0
LINE
  8
0
 10
-133.326
 20
152.163
 11
-133.257
 21
151.948
  0
LINE
  8
0
 10
-133.257
 20
151.948
 11
-133.214
 21
151.726
  0
LINE
  8
0
 10
-133.214
 20
151.726
 11
-133.2
 21
151.5
  0
LINE
  8
0
 10
-133.2
 20
151.5
 11
-133.214
 21
151.274
  0
LINE
  8
0
 10
-133.214
 20
151.274
 11
-133.257
 21
151.052
  0
LINE
  8
0
 10
-133.257
 20
151.052
 11
-133.326
 21
150.837
  0
LINE
  8
0
 10
-133.326
 20
150.837
 11
-133.423
 21
150.633
  0
LINE
  8
0
 10
-133.423
 20
150.633
 11
-133.544
 21
150.442
  0
LINE
  8
0
 10
-133.544
 20
150.442
 11
-133.688
 21
150.268
  0
LINE
  8
0
 10
-133.688
 20
150.268
 11
-133.853
 21
150.113
  0
LINE
  8
0
 10
-133.853
 20
150.113
 11
-134.036
 21
149.98
  0
LINE
  8
0
 10
-134.036
 20
149.98
 11
-134.234
 21
149.871
  0
LINE
  8
0
 10
-134.234
 20
149.871
 11
-134.444
 21
149.788
  0
LINE
  8
0
 10
-134.444
 20
149.788
 11
-134.663
 21
149.732
  0
LINE
  8
0
 10
-134.663
 20
149.732
 11
-134.887
 21
149.704
  0
LINE
  8
0
 10
-134.887
 20
149.704
 11
-135.113
 21
149.704
  0
LINE
  8
0
 10
134.887
 20
149.704
 11
134.663
 21
149.732
  0
LINE
  8
0
 10
134.663
 20
149.732
 11
134.444
 21
149.788
  0
LINE
  8
0
 10
134.444
 20
149.788
 11
134.234
 21
149.871
  0
LINE
  8
0
 10
134.234
 20
149.871
 11
134.036
 21
149.98
  0
LINE
  8
0
 10
134.036
 20
149.98
 11
133.853
 21
150.113
  0
LINE
  8
0
 10
133.853
 20
150.113
 11
133.688
 21
150.268
  0
LINE
  8
0
 10
133.688
 20
150.268
 11
133.544
 21
150.442
  0
LINE
  8
0
 10
133.544
 20
150.442
 11
133.423
 21
150.633
  0
LINE
  8
0
 10
133.423
 20
150.633
 11
133.326
 21
150.837
  0
LINE
  8
0
 10
133.326
 20
150.837
 11
133.257
 21
151.052
  0
LINE
  8
0
 10
133.257
 20
151.052
 11
133.214
 21
151.274
  0
LINE
  8
0
 10
133.214
 20
151.274
 11
133.2
 21
151.5
  0
LINE
  8
0
 10
133.2
 20
151.5
 11
133.214
 21
151.726
  0
LINE
  8
0
 10
133.214
 20
151.726
 11
133.257
 21
151.948
  0
LINE
  8
0
 10
133.257
 20
151.948
 11
133.326
 21
152.163
  0
LINE
  8
0
 10
133.326
 20
152.163
 11
133.423
 21
152.367
  0
LINE
  8
0
 10
133.423
 20
152.367
 11
133.544
 21
152.558
  0
LINE
  8
0
 10
133.544
 20
152.558
 11
133.688
 21
152.732
  0
LINE
  8
0
 10
133.688
 20
152.732
 11
133.853
 21
152.887
  0
LINE
  8
0
 10
133.853
 20
152.887
 11
134.036
 21
153.02
  0
LINE
  8
0
 10
134.036
 20
153.02
 11
134.234
 21
153.129
  0
LINE
  8
0
 10
134.234
 20
153.129
 11
134.444
 21
153.212
  0
LINE
  8
0
 10
134.444
 20
153.212
 11
134.663
 21
153.268
  0
LINE
  8
0
 10
134.663
 20
153.268
 11
134.887
 21
153.296
  0
LINE
  8
0
 10
134.887
 20
153.296
 11
135.113
 21
153.296
  0
LINE
  8
0
 10
135.113
 20
153.296
 11
135.337
 21
153.268
  0
LINE
  8
0
 10
135.337
 20
153.268
 11
135.556
 21
153.212
  0
LINE
  8
0
 10
135.556
 20
153.212
 11
135.766
 21
153.129
  0
LINE
  8
0
 10
135.766
 20
153.129
 11
135.964
 21
153.02
  0
LINE
  8
0
 10
135.964
 20
153.02
 11
136.147
 21
152.887
  0
LINE
  8
0
 10
136.147
 20
152.887
 11
136.312
 21
152.732
  0
LINE
  8
0
 10
136.312
 20
152.732
 11
136.456
 21
152.558
  0
LINE
  8
0
 10
136.456
 20
152.558
 11
136.577
 21
152.367
  0
LINE
  8
0
 10
136.577
 20
152.367
 11
136.674
 21
152.163
  0
LINE
  8
0
 10
136.674
 20
152.163
 11
136.743
 21
151.948
  0
LINE
  8
0
 10
136.743
 20
151.948
 11
136.786
 21
151.726
  0
LINE
  8
0
 10
136.786
 20
151.726
 11
136.8
 21
151.5
  0
LINE
  8
0
 10
136.8
 20
151.5
 11
136.786
 21
151.274
  0
LINE
  8
0
 10
136.786
 20
151.274
 11
136.743
 21
151.052
  0
LINE
  8
0
 10
136.743
 20
151.052
 11
136.674
 21
150.837
  0
LINE
  8
0
 10
136.674
 20
150.837
 11
136.577
 21
150.633
  0
LINE
  8
0
 10
136.577
 20
150.633
 11
136.456
 21
150.442
  0
LINE
  8
0
 10
136.456
 20
150.442
 11
136.312
 21
150.268
  0
LINE
  8
0
 10
136.312
 20
150.268
 11
136.147
 21
150.113
  0
LINE
  8
0
 10
136.147
 20
150.113
 11
135.964
 21
149.98
  0
LINE
  8
0
 10
135.964
 20
149.98
 11
135.766
 21
149.871
  0
LINE
  8
0
 10
135.766
 20
149.871
 11
135.556
 21
149.788
  0
LINE
  8
0
 10
135.556
 20
149.788
 11
135.337
 21
149.732
  0
LINE
  8
0
 10
135.337
 20
149.732
 11
135.113
 21
149.704
  0
LINE
  8
0
 10
135.113
 20
149.704
 11
134.887
 21
149.704
  0
ENDSEC
  0
SECTION
  2
OBJECTS
  0
DICTIONARY
  0
ENDSEC
  0
EOF
