<?xml version="1.0" standalone="no"?>
<!DOCTYPE svg PUBLIC "-//W3C//DTD SVG 1.1//EN" "http://www.w3.org/Graphics/SVG/1.1/DTD/svg11.dtd">
<svg width="240mm" height="712mm" viewBox="-120 -1364 240 712" xmlns="http://www.w3.org/2000/svg" version="1.1">
<title>OpenSCAD Model</title>
<path d="
M 115.937,-1228.59 L 116.545,-1228.74 L 117.129,-1228.98 L 117.679,-1229.28 L 118.187,-1229.65 L 118.645,-1230.08
 L 119.045,-1230.56 L 119.382,-1231.09 L 119.649,-1231.66 L 119.843,-1232.26 L 119.961,-1232.87 L 120,-1233.5
 L 120,-1358.5 L 119.961,-1359.13 L 119.843,-1359.74 L 119.649,-1360.34 L 119.382,-1360.91 L 119.045,-1361.44
 L 118.645,-1361.92 L 118.187,-1362.35 L 117.679,-1362.72 L 117.129,-1363.02 L 116.545,-1363.26 L 115.937,-1363.41
 L 115.314,-1363.49 L -115.314,-1363.49 L -115.937,-1363.41 L -116.545,-1363.26 L -117.129,-1363.02 L -117.679,-1362.72
 L -118.187,-1362.35 L -118.645,-1361.92 L -119.045,-1361.44 L -119.382,-1360.91 L -119.649,-1360.34 L -119.843,-1359.74
 L -119.961,-1359.13 L -120,-1358.5 L -120,-1233.5 L -119.961,-1232.87 L -119.843,-1232.26 L -119.649,-1231.66
 L -119.382,-1231.09 L -119.045,-1230.56 L -118.645,-1230.08 L -118.187,-1229.65 L -117.679,-1229.28 L -117.129,-1228.98
 L -116.545,-1228.74 L -115.937,-1228.59 L -115.314,-1228.51 L 115.314,-1228.51 z
M -115.048,-1229.01 L -115.64,-1229.08 L -116.218,-1229.23 L -116.772,-1229.45 L -117.295,-1229.74 L -117.778,-1230.09
 L -118.213,-1230.5 L -118.593,-1230.96 L -118.912,-1231.46 L -119.166,-1232 L -119.351,-1232.57 L -119.463,-1233.15
 L -119.5,-1233.75 L -119.5,-1358.25 L -119.463,-1358.85 L -119.351,-1359.43 L -119.166,-1360 L -118.912,-1360.54
 L -118.593,-1361.04 L -118.213,-1361.5 L -117.778,-1361.91 L -117.295,-1362.26 L -116.772,-1362.55 L -116.218,-1362.77
 L -115.64,-1362.92 L -115.048,-1362.99 L 115.048,-1362.99 L 115.64,-1362.92 L 116.218,-1362.77 L 116.772,-1362.55
 L 117.295,-1362.26 L 117.778,-1361.91 L 118.213,-1361.5 L 118.593,-1361.04 L 118.912,-1360.54 L 119.166,-1360
 L 119.351,-1359.43 L 119.463,-1358.85 L 119.5,-1358.25 L 119.5,-1233.75 L 119.463,-1233.15 L 119.351,-1232.57
 L 119.166,-1232 L 118.912,-1231.46 L 118.593,-1230.96 L 118.213,-1230.5 L 117.778,-1230.09 L 117.295,-1229.74
 L 116.772,-1229.45 L 116.218,-1229.23 L 115.64,-1229.08 L 115.048,-1229.01 z
M 115.937,-1084.59 L 116.545,-1084.74 L 117.129,-1084.98 L 117.679,-1085.28 L 118.187,-1085.65 L 118.645,-1086.08
 L 119.045,-1086.56 L 119.382,-1087.09 L 119.649,-1087.66 L 119.843,-1088.26 L 119.961,-1088.87 L 120,-1089.5
 L 120,-1214.5 L 119.961,-1215.13 L 119.843,-1215.74 L 119.649,-1216.34 L 119.382,-1216.91 L 119.045,-1217.44
 L 118.645,-1217.92 L 118.187,-1218.35 L 117.679,-1218.72 L 117.129,-1219.02 L 116.545,-1219.26 L 115.937,-1219.41
 L 115.314,-1219.49 L -115.314,-1219.49 L -115.937,-1219.41 L -116.545,-1219.26 L -117.129,-1219.02 L -117.679,-1218.72
 L -118.187,-1218.35 L -118.645,-1217.92 L -119.045,-1217.44 L -119.382,-1216.91 L -119.649,-1216.34 L -119.843,-1215.74
 L -119.961,-1215.13 L -120,-1214.5 L -120,-1089.5 L -119.961,-1088.87 L -119.843,-1088.26 L -119.649,-1087.66
 L -119.382,-1087.09 L -119.045,-1086.56 L -118.645,-1086.08 L -118.187,-1085.65 L -117.679,-1085.28 L -117.129,-1084.98
 L -116.545,-1084.74 L -115.937,-1084.59 L -115.314,-1084.51 L 115.314,-1084.51 z
M -115.048,-1085.01 L -115.64,-1085.08 L -116.218,-1085.23 L -116.772,-1085.45 L -117.295,-1085.74 L -117.778,-1086.09
 L -118.213,-1086.5 L -118.593,-1086.96 L -118.912,-1087.46 L -119.166,-1088 L -119.351,-1088.57 L -119.463,-1089.15
 L -119.5,-1089.75 L -119.5,-1214.25 L -119.463,-1214.85 L -119.351,-1215.43 L -119.166,-1216 L -118.912,-1216.54
 L -118.593,-1217.04 L -118.213,-1217.5 L -117.778,-1217.91 L -117.295,-1218.26 L -116.772,-1218.55 L -116.218,-1218.77
 L -115.64,-1218.92 L -115.048,-1218.99 L 115.048,-1218.99 L 115.64,-1218.92 L 116.218,-1218.77 L 116.772,-1218.55
 L 117.295,-1218.26 L 117.778,-1217.91 L 118.213,-1217.5 L 118.593,-1217.04 L 118.912,-1216.54 L 119.166,-1216
 L 119.351,-1215.43 L 119.463,-1214.85 L 119.5,-1214.25 L 119.5,-1089.75 L 119.463,-1089.15 L 119.351,-1088.57
 L 119.166,-1088 L 118.912,-1087.46 L 118.593,-1086.96 L 118.213,-1086.5 L 117.778,-1086.09 L 117.295,-1085.74
 L 116.772,-1085.45 L 116.218,-1085.23 L 115.64,-1085.08 L 115.048,-1085.01 z
M 115.937,-940.589 L 116.545,-940.745 L 117.129,-940.976 L 117.679,-941.278 L 118.187,-941.647 L 118.645,-942.077
 L 119.045,-942.561 L 119.382,-943.091 L 119.649,-943.659 L 119.843,-944.257 L 119.961,-944.873 L 120,-945.5
 L 120,-1070.5 L 119.961,-1071.13 L 119.843,-1071.74 L 119.649,-1072.34 L 119.382,-1072.91 L 119.045,-1073.44
 L 118.645,-1073.92 L 118.187,-1074.35 L 117.679,-1074.72 L 117.129,-1075.02 L 116.545,-1075.26 L 115.937,-1075.41
 L 115.314,-1075.49 L -115.314,-1075.49 L -115.937,-1075.41 L -116.545,-1075.26 L -117.129,-1075.02 L -117.679,-1074.72
 L -118.187,-1074.35 L -118.645,-1073.92 L -119.045,-1073.44 L -119.382,-1072.91 L -119.649,-1072.34 L -119.843,-1071.74
 L -119.961,-1071.13 L -120,-1070.5 L -120,-945.5 L -119.961,-944.873 L -119.843,-944.257 L -119.649,-943.659
 L -119.382,-943.091 L -119.045,-942.561 L -118.645,-942.077 L -118.187,-941.647 L -117.679,-941.278 L -117.129,-940.976
 L -116.545,-940.745 L -115.937,-940.589 L -115.314,-940.51 L 115.314,-940.51 z
M -115.048,-941.009 L -115.64,-941.084 L -116.218,-941.232 L -116.772,-941.452 L -117.295,-941.739 L -117.778,-942.09
 L -118.213,-942.498 L -118.593,-942.958 L -118.912,-943.462 L -119.166,-944.001 L -119.351,-944.569 L -119.463,-945.155
 L -119.5,-945.75 L -119.5,-1070.25 L -119.463,-1070.85 L -119.351,-1071.43 L -119.166,-1072 L -118.912,-1072.54
 L -118.593,-1073.04 L -118.213,-1073.5 L -117.778,-1073.91 L -117.295,-1074.26 L -116.772,-1074.55 L -116.218,-1074.77
 L -115.64,-1074.92 L -115.048,-1074.99 L 115.048,-1074.99 L 115.64,-1074.92 L 116.218,-1074.77 L 116.772,-1074.55
 L 117.295,-1074.26 L 117.778,-1073.91 L 118.213,-1073.5 L 118.593,-1073.04 L 118.912,-1072.54 L 119.166,-1072
 L 119.351,-1071.43 L 119.463,-1070.85 L 119.5,-1070.25 L 119.5,-945.75 L 119.463,-945.155 L 119.351,-944.569
 L 119.166,-944.001 L 118.912,-943.462 L 118.593,-942.958 L 118.213,-942.498 L 117.778,-942.09 L 117.295,-941.739
 L 116.772,-941.452 L 116.218,-941.232 L 115.64,-941.084 L 115.048,-941.009 z
M 115.937,-796.589 L 116.545,-796.745 L 117.129,-796.976 L 117.679,-797.278 L 118.187,-797.647 L 118.645,-798.077
 L 119.045,-798.561 L 119.382,-799.091 L 119.649,-799.659 L 119.843,-800.257 L 119.961,-800.873 L 120,-801.5
 L 120,-926.5 L 119.961,-927.127 L 119.843,-927.743 L 119.649,-928.341 L 119.382,-928.909 L 119.045,-929.439
 L 118.645,-929.923 L 118.187,-930.353 L 117.679,-930.722 L 117.129,-931.024 L 116.545,-931.255 L 115.937,-931.411
 L 115.314,-931.49 L -115.314,-931.49 L -115.937,-931.411 L -116.545,-931.255 L -117.129,-931.024 L -117.679,-930.722
 L -118.187,-930.353 L -118.645,-929.923 L -119.045,-929.439 L -119.382,-928.909 L -119.649,-928.341 L -119.843,-927.743
 L -119.961,-927.127 L -120,-926.5 L -120,-801.5 L -119.961,-800.873 L -119.843,-800.257 L -119.649,-799.659
 L -119.382,-799.091 L -119.045,-798.561 L -118.645,-798.077 L -118.187,-797.647 L -117.679,-797.278 L -117.129,-796.976
 L -116.545,-796.745 L -115.937,-796.589 L -115.314,-796.51 L 115.314,-796.51 z
M -115.037,-797.181 L -115.608,-797.253 L -116.165,-797.396 L -116.699,-797.607 L -117.203,-797.884 L -117.668,-798.222
 L -118.088,-798.616 L -118.454,-799.059 L -118.762,-799.544 L -119.007,-800.065 L -119.185,-800.611 L -119.292,-801.176
 L -119.328,-801.75 L -119.328,-926.25 L -119.292,-926.824 L -119.185,-927.389 L -119.007,-927.935 L -118.762,-928.456
 L -118.454,-928.941 L -118.088,-929.384 L -117.668,-929.778 L -117.203,-930.116 L -116.699,-930.393 L -116.165,-930.604
 L -115.608,-930.747 L -115.037,-930.819 L 115.037,-930.819 L 115.608,-930.747 L 116.165,-930.604 L 116.699,-930.393
 L 117.203,-930.116 L 117.668,-929.778 L 118.088,-929.384 L 118.454,-928.941 L 118.762,-928.456 L 119.007,-927.935
 L 119.185,-927.389 L 119.292,-926.824 L 119.328,-926.25 L 119.328,-801.75 L 119.292,-801.176 L 119.185,-800.611
 L 119.007,-800.065 L 118.762,-799.544 L 118.454,-799.059 L 118.088,-798.616 L 117.668,-798.222 L 117.203,-797.884
 L 116.699,-797.607 L 116.165,-797.396 L 115.608,-797.253 L 115.037,-797.181 z
M 115.937,-652.589 L 116.545,-652.745 L 117.129,-652.976 L 117.679,-653.278 L 118.187,-653.647 L 118.645,-654.077
 L 119.045,-654.561 L 119.382,-655.091 L 119.649,-655.659 L 119.843,-656.257 L 119.961,-656.873 L 120,-657.5
 L 120,-782.5 L 119.961,-783.127 L 119.843,-783.743 L 119.649,-784.341 L 119.382,-784.909 L 119.045,-785.439
 L 118.645,-785.923 L 118.187,-786.353 L 117.679,-786.722 L 117.129,-787.024 L 116.545,-787.255 L 115.937,-787.411
 L 115.314,-787.49 L -115.314,-787.49 L -115.937,-787.411 L -116.545,-787.255 L -117.129,-787.024 L -117.679,-786.722
 L -118.187,-786.353 L -118.645,-785.923 L -119.045,-785.439 L -119.382,-784.909 L -119.649,-784.341 L -119.843,-783.743
 L -119.961,-783.127 L -120,-782.5 L -120,-657.5 L -119.961,-656.873 L -119.843,-656.257 L -119.649,-655.659
 L -119.382,-655.091 L -119.045,-654.561 L -118.645,-654.077 L -118.187,-653.647 L -117.679,-653.278 L -117.129,-652.976
 L -116.545,-652.745 L -115.937,-652.589 L -115.314,-652.51 L 115.314,-652.51 z
M -114.882,-655.645 L -115.145,-655.678 L -115.402,-655.744 L -115.648,-655.841 L -115.88,-655.969 L -116.095,-656.125
 L -116.288,-656.306 L -116.457,-656.51 L -116.599,-656.734 L -116.711,-656.973 L -116.793,-657.225 L -116.843,-657.486
 L -116.86,-657.75 L -116.86,-782.25 L -116.843,-782.514 L -116.793,-782.775 L -116.711,-783.027 L -116.599,-783.266
 L -116.457,-783.49 L -116.288,-783.694 L -116.095,-783.875 L -115.88,-784.031 L -115.648,-784.159 L -115.402,-784.256
 L -115.145,-784.322 L -114.882,-784.355 L 114.882,-784.355 L 115.145,-784.322 L 115.402,-784.256 L 115.648,-784.159
 L 115.88,-784.031 L 116.095,-783.875 L 116.288,-783.694 L 116.457,-783.49 L 116.599,-783.266 L 116.711,-783.027
 L 116.793,-782.775 L 116.843,-782.514 L 116.86,-782.25 L 116.86,-657.75 L 116.843,-657.486 L 116.793,-657.225
 L 116.711,-656.973 L 116.599,-656.734 L 116.457,-656.51 L 116.288,-656.306 L 116.095,-656.125 L 115.88,-655.969
 L 115.648,-655.841 L 115.402,-655.744 L 115.145,-655.678 L 114.882,-655.645 z
" stroke="black" fill="lightgray" stroke-width="0.5"/>
</svg>
