<?xml version="1.0" standalone="no"?>
<!DOCTYPE svg PUBLIC "-//W3C//DTD SVG 1.1//EN" "http://www.w3.org/Graphics/SVG/1.1/DTD/svg11.dtd">
<svg width="242mm" height="55mm" viewBox="-122 -106 242 55" xmlns="http://www.w3.org/2000/svg" version="1.1">
<title>OpenSCAD Model</title>
<path d="
M 115.937,-83.3386 L 116.545,-83.4947 L 117.129,-83.7259 L 117.679,-84.0284 L 118.187,-84.3974 L 118.645,-84.8273
 L 119.045,-85.3111 L 119.382,-85.8412 L 119.649,-86.4094 L 119.843,-87.0066 L 119.961,-87.6233 L 120,-88.25
 L 120,-100.75 L 119.961,-101.377 L 119.843,-101.993 L 119.649,-102.591 L 119.382,-103.159 L 119.045,-103.689
 L 118.645,-104.173 L 118.187,-104.603 L 117.679,-104.972 L 117.129,-105.274 L 116.545,-105.505 L 115.937,-105.661
 L 115.314,-105.74 L -115.314,-105.74 L -115.937,-105.661 L -116.545,-105.505 L -117.129,-105.274 L -117.679,-104.972
 L -118.187,-104.603 L -118.5,-104.309 L -118.5,-105.729 L -121.5,-105.729 L -121.5,-83.2707 L -118.5,-83.2707
 L -118.5,-84.6913 L -118.187,-84.3974 L -117.679,-84.0284 L -117.129,-83.7259 L -116.545,-83.4947 L -115.937,-83.3386
 L -115.314,-83.2599 L 115.314,-83.2599 z
M -114.695,-85.6432 L -115.083,-85.6922 L -115.462,-85.7894 L -115.825,-85.9333 L -116.168,-86.1217 L -116.484,-86.3515
 L -116.769,-86.6191 L -117.018,-86.9203 L -117.228,-87.2504 L -117.394,-87.6041 L -117.515,-87.9759 L -117.588,-88.3598
 L -117.613,-88.75 L -117.613,-100.25 L -117.588,-100.64 L -117.515,-101.024 L -117.394,-101.396 L -117.228,-101.75
 L -117.018,-102.08 L -116.769,-102.381 L -116.484,-102.649 L -116.168,-102.878 L -115.825,-103.067 L -115.462,-103.211
 L -115.083,-103.308 L -114.695,-103.357 L 114.695,-103.357 L 115.083,-103.308 L 115.462,-103.211 L 115.825,-103.067
 L 116.168,-102.878 L 116.484,-102.649 L 116.769,-102.381 L 117.018,-102.08 L 117.228,-101.75 L 117.394,-101.396
 L 117.515,-101.024 L 117.588,-100.64 L 117.613,-100.25 L 117.613,-88.75 L 117.588,-88.3598 L 117.515,-87.9759
 L 117.394,-87.6041 L 117.228,-87.2504 L 117.018,-86.9203 L 116.769,-86.6191 L 116.484,-86.3515 L 116.168,-86.1217
 L 115.825,-85.9333 L 115.462,-85.7894 L 115.083,-85.6922 L 114.695,-85.6432 z
M 115.937,-51.8386 L 116.545,-51.9947 L 117.129,-52.2259 L 117.679,-52.5284 L 118.187,-52.8974 L 118.645,-53.3273
 L 119.045,-53.8111 L 119.382,-54.3412 L 119.649,-54.9094 L 119.843,-55.5066 L 119.961,-56.1233 L 120,-56.75
 L 120,-69.25 L 119.961,-69.8767 L 119.843,-70.4934 L 119.649,-71.0906 L 119.382,-71.6588 L 119.045,-72.1889
 L 118.645,-72.6727 L 118.187,-73.1026 L 117.679,-73.4716 L 117.129,-73.7741 L 116.545,-74.0053 L 115.937,-74.1614
 L 115.314,-74.2401 L -115.314,-74.2401 L -115.937,-74.1614 L -116.545,-74.0053 L -117.129,-73.7741 L -117.679,-73.4716
 L -118.187,-73.1026 L -118.5,-72.8087 L -118.5,-72.9026 L -121.5,-72.9026 L -121.5,-53.0974 L -118.5,-53.0974
 L -118.5,-53.1913 L -118.187,-52.8974 L -117.679,-52.5284 L -117.129,-52.2259 L -116.545,-51.9947 L -115.937,-51.8386
 L -115.314,-51.7599 L 115.314,-51.7599 z
M 112.366,-64.6189 L 112.1,-64.6525 L 111.84,-64.7192 L 111.591,-64.8179 L 111.356,-64.9471 L 111.139,-65.1047
 L 110.943,-65.2883 L 110.773,-65.4949 L 110.629,-65.7213 L 110.515,-65.9639 L 110.432,-66.219 L 110.382,-66.4824
 L 110.365,-66.75 L 110.382,-67.0176 L 110.432,-67.281 L 110.515,-67.536 L 110.629,-67.7787 L 110.773,-68.0051
 L 110.943,-68.2117 L 111.139,-68.3953 L 111.356,-68.5529 L 111.591,-68.6821 L 111.84,-68.7808 L 112.1,-68.8475
 L 112.366,-68.8811 L 112.634,-68.8811 L 112.9,-68.8475 L 113.16,-68.7808 L 113.409,-68.6821 L 113.644,-68.5529
 L 113.861,-68.3953 L 114.057,-68.2117 L 114.227,-68.0051 L 114.371,-67.7787 L 114.485,-67.536 L 114.568,-67.281
 L 114.618,-67.0176 L 114.635,-66.75 L 114.618,-66.4824 L 114.568,-66.219 L 114.485,-65.9639 L 114.371,-65.7213
 L 114.227,-65.4949 L 114.057,-65.2883 L 113.861,-65.1047 L 113.644,-64.9471 L 113.409,-64.8179 L 113.16,-64.7192
 L 112.9,-64.6525 L 112.634,-64.6189 z
M -112.634,-64.6189 L -112.9,-64.6525 L -113.16,-64.7192 L -113.409,-64.8179 L -113.644,-64.9471 L -113.861,-65.1047
 L -114.057,-65.2883 L -114.227,-65.4949 L -114.371,-65.7213 L -114.485,-65.9639 L -114.568,-66.219 L -114.618,-66.4824
 L -114.635,-66.75 L -114.618,-67.0176 L -114.568,-67.281 L -114.485,-67.536 L -114.371,-67.7787 L -114.227,-68.0051
 L -114.057,-68.2117 L -113.861,-68.3953 L -113.644,-68.5529 L -113.409,-68.6821 L -113.16,-68.7808 L -112.9,-68.8475
 L -112.634,-68.8811 L -112.366,-68.8811 L -112.1,-68.8475 L -111.84,-68.7808 L -111.591,-68.6821 L -111.356,-68.5529
 L -111.139,-68.3953 L -110.943,-68.2117 L -110.773,-68.0051 L -110.629,-67.7787 L -110.515,-67.536 L -110.432,-67.281
 L -110.382,-67.0176 L -110.365,-66.75 L -110.382,-66.4824 L -110.432,-66.219 L -110.515,-65.9639 L -110.629,-65.7213
 L -110.773,-65.4949 L -110.943,-65.2883 L -111.139,-65.1047 L -111.356,-64.9471 L -111.591,-64.8179 L -111.84,-64.7192
 L -112.1,-64.6525 L -112.366,-64.6189 z
M 112.366,-57.1189 L 112.1,-57.1525 L 111.84,-57.2192 L 111.591,-57.3179 L 111.356,-57.4471 L 111.139,-57.6047
 L 110.943,-57.7883 L 110.773,-57.9949 L 110.629,-58.2213 L 110.515,-58.464 L 110.432,-58.719 L 110.382,-58.9824
 L 110.365,-59.25 L 110.382,-59.5176 L 110.432,-59.781 L 110.515,-60.0361 L 110.629,-60.2787 L 110.773,-60.5051
 L 110.943,-60.7117 L 111.139,-60.8953 L 111.356,-61.0529 L 111.591,-61.1821 L 111.84,-61.2808 L 112.1,-61.3475
 L 112.366,-61.3811 L 112.634,-61.3811 L 112.9,-61.3475 L 113.16,-61.2808 L 113.409,-61.1821 L 113.644,-61.0529
 L 113.861,-60.8953 L 114.057,-60.7117 L 114.227,-60.5051 L 114.371,-60.2787 L 114.485,-60.0361 L 114.568,-59.781
 L 114.618,-59.5176 L 114.635,-59.25 L 114.618,-58.9824 L 114.568,-58.719 L 114.485,-58.464 L 114.371,-58.2213
 L 114.227,-57.9949 L 114.057,-57.7883 L 113.861,-57.6047 L 113.644,-57.4471 L 113.409,-57.3179 L 113.16,-57.2192
 L 112.9,-57.1525 L 112.634,-57.1189 z
M -112.634,-57.1189 L -112.9,-57.1525 L -113.16,-57.2192 L -113.409,-57.3179 L -113.644,-57.4471 L -113.861,-57.6047
 L -114.057,-57.7883 L -114.227,-57.9949 L -114.371,-58.2213 L -114.485,-58.464 L -114.568,-58.719 L -114.618,-58.9824
 L -114.635,-59.25 L -114.618,-59.5176 L -114.568,-59.781 L -114.485,-60.0361 L -114.371,-60.2787 L -114.227,-60.5051
 L -114.057,-60.7117 L -113.861,-60.8953 L -113.644,-61.0529 L -113.409,-61.1821 L -113.16,-61.2808 L -112.9,-61.3475
 L -112.634,-61.3811 L -112.366,-61.3811 L -112.1,-61.3475 L -111.84,-61.2808 L -111.591,-61.1821 L -111.356,-61.0529
 L -111.139,-60.8953 L -110.943,-60.7117 L -110.773,-60.5051 L -110.629,-60.2787 L -110.515,-60.0361 L -110.432,-59.781
 L -110.382,-59.5176 L -110.365,-59.25 L -110.382,-58.9824 L -110.432,-58.719 L -110.515,-58.464 L -110.629,-58.2213
 L -110.773,-57.9949 L -110.943,-57.7883 L -111.139,-57.6047 L -111.356,-57.4471 L -111.591,-57.3179 L -111.84,-57.2192
 L -112.1,-57.1525 L -112.366,-57.1189 z
" stroke="black" fill="lightgray" stroke-width="0.5"/>
</svg>
