<?xml version="1.0" standalone="no"?>
<!DOCTYPE svg PUBLIC "-//W3C//DTD SVG 1.1//EN" "http://www.w3.org/Graphics/SVG/1.1/DTD/svg11.dtd">
<svg width="240mm" height="244mm" viewBox="-120 -458 240 244" xmlns="http://www.w3.org/2000/svg" version="1.1">
<title>OpenSCAD Model</title>
<path d="
M 115.937,-382.589 L 116.545,-382.745 L 117.129,-382.976 L 117.679,-383.278 L 118.187,-383.647 L 118.645,-384.077
 L 119.045,-384.561 L 119.382,-385.091 L 119.649,-385.659 L 119.843,-386.257 L 119.961,-386.873 L 120,-387.5
 L 120,-452.5 L 119.961,-453.127 L 119.843,-453.743 L 119.649,-454.341 L 119.382,-454.909 L 119.045,-455.439
 L 118.645,-455.923 L 118.187,-456.353 L 117.679,-456.722 L 117.129,-457.024 L 116.545,-457.255 L 115.937,-457.411
 L 115.314,-457.49 L -115.314,-457.49 L -115.937,-457.411 L -116.545,-457.255 L -117.129,-457.024 L -117.679,-456.722
 L -118.187,-456.353 L -118.645,-455.923 L -119.045,-455.439 L -119.382,-454.909 L -119.649,-454.341 L -119.843,-453.743
 L -119.961,-453.127 L -120,-452.5 L -120,-387.5 L -119.961,-386.873 L -119.843,-386.257 L -119.649,-385.659
 L -119.382,-385.091 L -119.045,-384.561 L -118.645,-384.077 L -118.187,-383.647 L -117.679,-383.278 L -117.129,-382.976
 L -116.545,-382.745 L -115.937,-382.589 L -115.314,-382.51 L 115.314,-382.51 z
M -115.048,-383.009 L -115.64,-383.084 L -116.218,-383.232 L -116.772,-383.452 L -117.295,-383.739 L -117.778,-384.09
 L -118.213,-384.498 L -118.593,-384.958 L -118.912,-385.462 L -119.166,-386.001 L -119.351,-386.569 L -119.463,-387.155
 L -119.5,-387.75 L -119.5,-452.25 L -119.463,-452.845 L -119.351,-453.431 L -119.166,-453.999 L -118.912,-454.538
 L -118.593,-455.042 L -118.213,-455.502 L -117.778,-455.91 L -117.295,-456.261 L -116.772,-456.548 L -116.218,-456.768
 L -115.64,-456.916 L -115.048,-456.991 L 115.048,-456.991 L 115.64,-456.916 L 116.218,-456.768 L 116.772,-456.548
 L 117.295,-456.261 L 117.778,-455.91 L 118.213,-455.502 L 118.593,-455.042 L 118.912,-454.538 L 119.166,-453.999
 L 119.351,-453.431 L 119.463,-452.845 L 119.5,-452.25 L 119.5,-387.75 L 119.463,-387.155 L 119.351,-386.569
 L 119.166,-386.001 L 118.912,-385.462 L 118.593,-384.958 L 118.213,-384.498 L 117.778,-384.09 L 117.295,-383.739
 L 116.772,-383.452 L 116.218,-383.232 L 115.64,-383.084 L 115.048,-383.009 z
M 115.937,-298.589 L 116.545,-298.745 L 117.129,-298.976 L 117.679,-299.278 L 118.187,-299.647 L 118.645,-300.077
 L 119.045,-300.561 L 119.382,-301.091 L 119.649,-301.659 L 119.843,-302.257 L 119.961,-302.873 L 120,-303.5
 L 120,-368.5 L 119.961,-369.127 L 119.843,-369.743 L 119.649,-370.341 L 119.382,-370.909 L 119.045,-371.439
 L 118.645,-371.923 L 118.187,-372.353 L 117.679,-372.722 L 117.129,-373.024 L 116.545,-373.255 L 115.937,-373.411
 L 115.314,-373.49 L -115.314,-373.49 L -115.937,-373.411 L -116.545,-373.255 L -117.129,-373.024 L -117.679,-372.722
 L -118.187,-372.353 L -118.645,-371.923 L -119.045,-371.439 L -119.382,-370.909 L -119.649,-370.341 L -119.843,-369.743
 L -119.961,-369.127 L -120,-368.5 L -120,-303.5 L -119.961,-302.873 L -119.843,-302.257 L -119.649,-301.659
 L -119.382,-301.091 L -119.045,-300.561 L -118.645,-300.077 L -118.187,-299.647 L -117.679,-299.278 L -117.129,-298.976
 L -116.545,-298.745 L -115.937,-298.589 L -115.314,-298.51 L 115.314,-298.51 z
M -115.037,-299.181 L -115.608,-299.253 L -116.165,-299.396 L -116.699,-299.607 L -117.203,-299.884 L -117.668,-300.222
 L -118.088,-300.616 L -118.454,-301.059 L -118.762,-301.544 L -119.007,-302.065 L -119.185,-302.611 L -119.292,-303.176
 L -119.328,-303.75 L -119.328,-368.25 L -119.292,-368.824 L -119.185,-369.389 L -119.007,-369.935 L -118.762,-370.456
 L -118.454,-370.941 L -118.088,-371.384 L -117.668,-371.778 L -117.203,-372.116 L -116.699,-372.393 L -116.165,-372.604
 L -115.608,-372.747 L -115.037,-372.819 L 115.037,-372.819 L 115.608,-372.747 L 116.165,-372.604 L 116.699,-372.393
 L 117.203,-372.116 L 117.668,-371.778 L 118.088,-371.384 L 118.454,-370.941 L 118.762,-370.456 L 119.007,-369.935
 L 119.185,-369.389 L 119.292,-368.824 L 119.328,-368.25 L 119.328,-303.75 L 119.292,-303.176 L 119.185,-302.611
 L 119.007,-302.065 L 118.762,-301.544 L 118.454,-301.059 L 118.088,-300.616 L 117.668,-300.222 L 117.203,-299.884
 L 116.699,-299.607 L 116.165,-299.396 L 115.608,-299.253 L 115.037,-299.181 z
M 115.937,-214.589 L 116.545,-214.745 L 117.129,-214.976 L 117.679,-215.278 L 118.187,-215.647 L 118.645,-216.077
 L 119.045,-216.561 L 119.382,-217.091 L 119.649,-217.659 L 119.843,-218.257 L 119.961,-218.873 L 120,-219.5
 L 120,-284.5 L 119.961,-285.127 L 119.843,-285.743 L 119.649,-286.341 L 119.382,-286.909 L 119.045,-287.439
 L 118.645,-287.923 L 118.187,-288.353 L 117.679,-288.722 L 117.129,-289.024 L 116.545,-289.255 L 115.937,-289.411
 L 115.314,-289.49 L -115.314,-289.49 L -115.937,-289.411 L -116.545,-289.255 L -117.129,-289.024 L -117.679,-288.722
 L -118.187,-288.353 L -118.645,-287.923 L -119.045,-287.439 L -119.382,-286.909 L -119.649,-286.341 L -119.843,-285.743
 L -119.961,-285.127 L -120,-284.5 L -120,-219.5 L -119.961,-218.873 L -119.843,-218.257 L -119.649,-217.659
 L -119.382,-217.091 L -119.045,-216.561 L -118.645,-216.077 L -118.187,-215.647 L -117.679,-215.278 L -117.129,-214.976
 L -116.545,-214.745 L -115.937,-214.589 L -115.314,-214.51 L 115.314,-214.51 z
M -114.882,-217.645 L -115.145,-217.678 L -115.402,-217.744 L -115.648,-217.841 L -115.88,-217.969 L -116.095,-218.125
 L -116.288,-218.306 L -116.457,-218.51 L -116.599,-218.734 L -116.711,-218.973 L -116.793,-219.225 L -116.843,-219.486
 L -116.86,-219.75 L -116.86,-284.25 L -116.843,-284.514 L -116.793,-284.775 L -116.711,-285.027 L -116.599,-285.266
 L -116.457,-285.49 L -116.288,-285.694 L -116.095,-285.875 L -115.88,-286.031 L -115.648,-286.159 L -115.402,-286.256
 L -115.145,-286.322 L -114.882,-286.355 L 114.882,-286.355 L 115.145,-286.322 L 115.402,-286.256 L 115.648,-286.159
 L 115.88,-286.031 L 116.095,-285.875 L 116.288,-285.694 L 116.457,-285.49 L 116.599,-285.266 L 116.711,-285.027
 L 116.793,-284.775 L 116.843,-284.514 L 116.86,-284.25 L 116.86,-219.75 L 116.843,-219.486 L 116.793,-219.225
 L 116.711,-218.973 L 116.599,-218.734 L 116.457,-218.51 L 116.288,-218.306 L 116.095,-218.125 L 115.88,-217.969
 L 115.648,-217.841 L 115.402,-217.744 L 115.145,-217.678 L 114.882,-217.645 z
" stroke="black" fill="lightgray" stroke-width="0.5"/>
</svg>
