  0
SECTION
  2
BLOCKS
  0
ENDSEC
  0
SECTION
  2
ENTITIES
  0
LINE
  8
0
 10
123.437
 20
130.589
 11
124.045
 21
130.745
  0
LINE
  8
0
 10
124.045
 20
130.745
 11
124.629
 21
130.976
  0
LINE
  8
0
 10
124.629
 20
130.976
 11
125.179
 21
131.278
  0
LINE
  8
0
 10
125.179
 20
131.278
 11
125.687
 21
131.647
  0
LINE
  8
0
 10
125.687
 20
131.647
 11
126.145
 21
132.077
  0
LINE
  8
0
 10
126.145
 20
132.077
 11
126.545
 21
132.561
  0
LINE
  8
0
 10
126.545
 20
132.561
 11
126.882
 21
133.091
  0
LINE
  8
0
 10
126.882
 20
133.091
 11
127.149
 21
133.659
  0
LINE
  8
0
 10
127.149
 20
133.659
 11
127.343
 21
134.257
  0
LINE
  8
0
 10
127.343
 20
134.257
 11
127.461
 21
134.873
  0
LINE
  8
0
 10
127.461
 20
134.873
 11
127.5
 21
135.5
  0
LINE
  8
0
 10
127.5
 20
135.5
 11
127.5
 21
200.5
  0
LINE
  8
0
 10
127.5
 20
200.5
 11
127.461
 21
201.127
  0
LINE
  8
0
 10
127.461
 20
201.127
 11
127.343
 21
201.743
  0
LINE
  8
0
 10
127.343
 20
201.743
 11
127.149
 21
202.341
  0
LINE
  8
0
 10
127.149
 20
202.341
 11
126.882
 21
202.909
  0
LINE
  8
0
 10
126.882
 20
202.909
 11
126.545
 21
203.439
  0
LINE
  8
0
 10
126.545
 20
203.439
 11
126.145
 21
203.923
  0
LINE
  8
0
 10
126.145
 20
203.923
 11
125.687
 21
204.353
  0
LINE
  8
0
 10
125.687
 20
204.353
 11
125.179
 21
204.722
  0
LINE
  8
0
 10
125.179
 20
204.722
 11
124.629
 21
205.024
  0
LINE
  8
0
 10
124.629
 20
205.024
 11
124.045
 21
205.255
  0
LINE
  8
0
 10
124.045
 20
205.255
 11
123.437
 21
205.411
  0
LINE
  8
0
 10
123.437
 20
205.411
 11
122.814
 21
205.49
  0
LINE
  8
0
 10
122.814
 20
205.49
 11
-122.814
 21
205.49
  0
LINE
  8
0
 10
-122.814
 20
205.49
 11
-123.437
 21
205.411
  0
LINE
  8
0
 10
-123.437
 20
205.411
 11
-124.045
 21
205.255
  0
LINE
  8
0
 10
-124.045
 20
205.255
 11
-124.629
 21
205.024
  0
LINE
  8
0
 10
-124.629
 20
205.024
 11
-125.179
 21
204.722
  0
LINE
  8
0
 10
-125.179
 20
204.722
 11
-125.687
 21
204.353
  0
LINE
  8
0
 10
-125.687
 20
204.353
 11
-126.145
 21
203.923
  0
LINE
  8
0
 10
-126.145
 20
203.923
 11
-126.545
 21
203.439
  0
LINE
  8
0
 10
-126.545
 20
203.439
 11
-126.882
 21
202.909
  0
LINE
  8
0
 10
-126.882
 20
202.909
 11
-127.149
 21
202.341
  0
LINE
  8
0
 10
-127.149
 20
202.341
 11
-127.343
 21
201.743
  0
LINE
  8
0
 10
-127.343
 20
201.743
 11
-127.461
 21
201.127
  0
LINE
  8
0
 10
-127.461
 20
201.127
 11
-127.5
 21
200.5
  0
LINE
  8
0
 10
-127.5
 20
200.5
 11
-127.5
 21
135.5
  0
LINE
  8
0
 10
-127.5
 20
135.5
 11
-127.461
 21
134.873
  0
LINE
  8
0
 10
-127.461
 20
134.873
 11
-127.343
 21
134.257
  0
LINE
  8
0
 10
-127.343
 20
134.257
 11
-127.149
 21
133.659
  0
LINE
  8
0
 10
-127.149
 20
133.659
 11
-126.882
 21
133.091
  0
LINE
  8
0
 10
-126.882
 20
133.091
 11
-126.545
 21
132.561
  0
LINE
  8
0
 10
-126.545
 20
132.561
 11
-126.145
 21
132.077
  0
LINE
  8
0
 10
-126.145
 20
132.077
 11
-125.687
 21
131.647
  0
LINE
  8
0
 10
-125.687
 20
131.647
 11
-125.179
 21
131.278
  0
LINE
  8
0
 10
-125.179
 20
131.278
 11
-124.629
 21
130.976
  0
LINE
  8
0
 10
-124.629
 20
130.976
 11
-124.045
 21
130.745
  0
LINE
  8
0
 10
-124.045
 20
130.745
 11
-123.437
 21
130.589
  0
LINE
  8
0
 10
-123.437
 20
130.589
 11
-122.814
 21
130.51
  0
LINE
  8
0
 10
-122.814
 20
130.51
 11
122.814
 21
130.51
  0
LINE
  8
0
 10
122.814
 20
130.51
 11
123.437
 21
130.589
  0
LINE
  8
0
 10
-122.493
 20
131.888
 11
-122.975
 21
131.949
  0
LINE
  8
0
 10
-122.975
 20
131.949
 11
-123.446
 21
132.07
  0
LINE
  8
0
 10
-123.446
 20
132.07
 11
-123.898
 21
132.249
  0
LINE
  8
0
 10
-123.898
 20
132.249
 11
-124.323
 21
132.483
  0
LINE
  8
0
 10
-124.323
 20
132.483
 11
-124.716
 21
132.769
  0
LINE
  8
0
 10
-124.716
 20
132.769
 11
-125.071
 21
133.101
  0
LINE
  8
0
 10
-125.071
 20
133.101
 11
-125.38
 21
133.476
  0
LINE
  8
0
 10
-125.38
 20
133.476
 11
-125.641
 21
133.886
  0
LINE
  8
0
 10
-125.641
 20
133.886
 11
-125.848
 21
134.326
  0
LINE
  8
0
 10
-125.848
 20
134.326
 11
-125.998
 21
134.788
  0
LINE
  8
0
 10
-125.998
 20
134.788
 11
-126.089
 21
135.265
  0
LINE
  8
0
 10
-126.089
 20
135.265
 11
-126.119
 21
135.75
  0
LINE
  8
0
 10
-126.119
 20
135.75
 11
-126.119
 21
200.25
  0
LINE
  8
0
 10
-126.119
 20
200.25
 11
-126.089
 21
200.735
  0
LINE
  8
0
 10
-126.089
 20
200.735
 11
-125.998
 21
201.212
  0
LINE
  8
0
 10
-125.998
 20
201.212
 11
-125.848
 21
201.674
  0
LINE
  8
0
 10
-125.848
 20
201.674
 11
-125.641
 21
202.114
  0
LINE
  8
0
 10
-125.641
 20
202.114
 11
-125.38
 21
202.524
  0
LINE
  8
0
 10
-125.38
 20
202.524
 11
-125.071
 21
202.899
  0
LINE
  8
0
 10
-125.071
 20
202.899
 11
-124.716
 21
203.231
  0
LINE
  8
0
 10
-124.716
 20
203.231
 11
-124.323
 21
203.517
  0
LINE
  8
0
 10
-124.323
 20
203.517
 11
-123.898
 21
203.751
  0
LINE
  8
0
 10
-123.898
 20
203.751
 11
-123.446
 21
203.93
  0
LINE
  8
0
 10
-123.446
 20
203.93
 11
-122.975
 21
204.051
  0
LINE
  8
0
 10
-122.975
 20
204.051
 11
-122.493
 21
204.112
  0
LINE
  8
0
 10
-122.493
 20
204.112
 11
122.493
 21
204.112
  0
LINE
  8
0
 10
122.493
 20
204.112
 11
122.975
 21
204.051
  0
LINE
  8
0
 10
122.975
 20
204.051
 11
123.446
 21
203.93
  0
LINE
  8
0
 10
123.446
 20
203.93
 11
123.898
 21
203.751
  0
LINE
  8
0
 10
123.898
 20
203.751
 11
124.323
 21
203.517
  0
LINE
  8
0
 10
124.323
 20
203.517
 11
124.716
 21
203.231
  0
LINE
  8
0
 10
124.716
 20
203.231
 11
125.071
 21
202.899
  0
LINE
  8
0
 10
125.071
 20
202.899
 11
125.38
 21
202.524
  0
LINE
  8
0
 10
125.38
 20
202.524
 11
125.641
 21
202.114
  0
LINE
  8
0
 10
125.641
 20
202.114
 11
125.848
 21
201.674
  0
LINE
  8
0
 10
125.848
 20
201.674
 11
125.998
 21
201.212
  0
LINE
  8
0
 10
125.998
 20
201.212
 11
126.089
 21
200.735
  0
LINE
  8
0
 10
126.089
 20
200.735
 11
126.119
 21
200.25
  0
LINE
  8
0
 10
126.119
 20
200.25
 11
126.119
 21
135.75
  0
LINE
  8
0
 10
126.119
 20
135.75
 11
126.089
 21
135.265
  0
LINE
  8
0
 10
126.089
 20
135.265
 11
125.998
 21
134.788
  0
LINE
  8
0
 10
125.998
 20
134.788
 11
125.848
 21
134.326
  0
LINE
  8
0
 10
125.848
 20
134.326
 11
125.641
 21
133.886
  0
LINE
  8
0
 10
125.641
 20
133.886
 11
125.38
 21
133.476
  0
LINE
  8
0
 10
125.38
 20
133.476
 11
125.071
 21
133.101
  0
LINE
  8
0
 10
125.071
 20
133.101
 11
124.716
 21
132.769
  0
LINE
  8
0
 10
124.716
 20
132.769
 11
124.323
 21
132.483
  0
LINE
  8
0
 10
124.323
 20
132.483
 11
123.898
 21
132.249
  0
LINE
  8
0
 10
123.898
 20
132.249
 11
123.446
 21
132.07
  0
LINE
  8
0
 10
123.446
 20
132.07
 11
122.975
 21
131.949
  0
LINE
  8
0
 10
122.975
 20
131.949
 11
122.493
 21
131.888
  0
LINE
  8
0
 10
122.493
 20
131.888
 11
-122.493
 21
131.888
  0
LINE
  8
0
 10
123.437
 20
46.5886
 11
124.045
 21
46.7447
  0
LINE
  8
0
 10
124.045
 20
46.7447
 11
124.629
 21
46.9759
  0
LINE
  8
0
 10
124.629
 20
46.9759
 11
125.179
 21
47.2784
  0
LINE
  8
0
 10
125.179
 20
47.2784
 11
125.687
 21
47.6474
  0
LINE
  8
0
 10
125.687
 20
47.6474
 11
126.145
 21
48.0773
  0
LINE
  8
0
 10
126.145
 20
48.0773
 11
126.545
 21
48.5611
  0
LINE
  8
0
 10
126.545
 20
48.5611
 11
126.882
 21
49.0912
  0
LINE
  8
0
 10
126.882
 20
49.0912
 11
127.149
 21
49.6594
  0
LINE
  8
0
 10
127.149
 20
49.6594
 11
127.343
 21
50.2566
  0
LINE
  8
0
 10
127.343
 20
50.2566
 11
127.461
 21
50.8733
  0
LINE
  8
0
 10
127.461
 20
50.8733
 11
127.5
 21
51.5
  0
LINE
  8
0
 10
127.5
 20
51.5
 11
127.5
 21
116.5
  0
LINE
  8
0
 10
127.5
 20
116.5
 11
127.461
 21
117.127
  0
LINE
  8
0
 10
127.461
 20
117.127
 11
127.343
 21
117.743
  0
LINE
  8
0
 10
127.343
 20
117.743
 11
127.149
 21
118.341
  0
LINE
  8
0
 10
127.149
 20
118.341
 11
126.882
 21
118.909
  0
LINE
  8
0
 10
126.882
 20
118.909
 11
126.545
 21
119.439
  0
LINE
  8
0
 10
126.545
 20
119.439
 11
126.145
 21
119.923
  0
LINE
  8
0
 10
126.145
 20
119.923
 11
125.687
 21
120.353
  0
LINE
  8
0
 10
125.687
 20
120.353
 11
125.179
 21
120.722
  0
LINE
  8
0
 10
125.179
 20
120.722
 11
124.629
 21
121.024
  0
LINE
  8
0
 10
124.629
 20
121.024
 11
124.045
 21
121.255
  0
LINE
  8
0
 10
124.045
 20
121.255
 11
123.437
 21
121.411
  0
LINE
  8
0
 10
123.437
 20
121.411
 11
122.814
 21
121.49
  0
LINE
  8
0
 10
122.814
 20
121.49
 11
-122.814
 21
121.49
  0
LINE
  8
0
 10
-122.814
 20
121.49
 11
-123.437
 21
121.411
  0
LINE
  8
0
 10
-123.437
 20
121.411
 11
-124.045
 21
121.255
  0
LINE
  8
0
 10
-124.045
 20
121.255
 11
-124.629
 21
121.024
  0
LINE
  8
0
 10
-124.629
 20
121.024
 11
-125.179
 21
120.722
  0
LINE
  8
0
 10
-125.179
 20
120.722
 11
-125.687
 21
120.353
  0
LINE
  8
0
 10
-125.687
 20
120.353
 11
-126.145
 21
119.923
  0
LINE
  8
0
 10
-126.145
 20
119.923
 11
-126.545
 21
119.439
  0
LINE
  8
0
 10
-126.545
 20
119.439
 11
-126.882
 21
118.909
  0
LINE
  8
0
 10
-126.882
 20
118.909
 11
-127.149
 21
118.341
  0
LINE
  8
0
 10
-127.149
 20
118.341
 11
-127.343
 21
117.743
  0
LINE
  8
0
 10
-127.343
 20
117.743
 11
-127.461
 21
117.127
  0
LINE
  8
0
 10
-127.461
 20
117.127
 11
-127.5
 21
116.5
  0
LINE
  8
0
 10
-127.5
 20
116.5
 11
-127.5
 21
51.5
  0
LINE
  8
0
 10
-127.5
 20
51.5
 11
-127.461
 21
50.8733
  0
LINE
  8
0
 10
-127.461
 20
50.8733
 11
-127.343
 21
50.2566
  0
LINE
  8
0
 10
-127.343
 20
50.2566
 11
-127.149
 21
49.6594
  0
LINE
  8
0
 10
-127.149
 20
49.6594
 11
-126.882
 21
49.0912
  0
LINE
  8
0
 10
-126.882
 20
49.0912
 11
-126.545
 21
48.5611
  0
LINE
  8
0
 10
-126.545
 20
48.5611
 11
-126.145
 21
48.0773
  0
LINE
  8
0
 10
-126.145
 20
48.0773
 11
-125.687
 21
47.6474
  0
LINE
  8
0
 10
-125.687
 20
47.6474
 11
-125.179
 21
47.2784
  0
LINE
  8
0
 10
-125.179
 20
47.2784
 11
-124.629
 21
46.9759
  0
LINE
  8
0
 10
-124.629
 20
46.9759
 11
-124.045
 21
46.7447
  0
LINE
  8
0
 10
-124.045
 20
46.7447
 11
-123.437
 21
46.5886
  0
LINE
  8
0
 10
-123.437
 20
46.5886
 11
-122.814
 21
46.5099
  0
LINE
  8
0
 10
-122.814
 20
46.5099
 11
122.814
 21
46.5099
  0
LINE
  8
0
 10
122.814
 20
46.5099
 11
123.437
 21
46.5886
  0
LINE
  8
0
 10
-120.113
 20
112.204
 11
-120.337
 21
112.232
  0
LINE
  8
0
 10
-120.337
 20
112.232
 11
-120.556
 21
112.288
  0
LINE
  8
0
 10
-120.556
 20
112.288
 11
-120.766
 21
112.371
  0
LINE
  8
0
 10
-120.766
 20
112.371
 11
-120.964
 21
112.48
  0
LINE
  8
0
 10
-120.964
 20
112.48
 11
-121.147
 21
112.613
  0
LINE
  8
0
 10
-121.147
 20
112.613
 11
-121.312
 21
112.768
  0
LINE
  8
0
 10
-121.312
 20
112.768
 11
-121.456
 21
112.942
  0
LINE
  8
0
 10
-121.456
 20
112.942
 11
-121.577
 21
113.133
  0
LINE
  8
0
 10
-121.577
 20
113.133
 11
-121.674
 21
113.337
  0
LINE
  8
0
 10
-121.674
 20
113.337
 11
-121.743
 21
113.552
  0
LINE
  8
0
 10
-121.743
 20
113.552
 11
-121.786
 21
113.774
  0
LINE
  8
0
 10
-121.786
 20
113.774
 11
-121.8
 21
114
  0
LINE
  8
0
 10
-121.8
 20
114
 11
-121.786
 21
114.226
  0
LINE
  8
0
 10
-121.786
 20
114.226
 11
-121.743
 21
114.448
  0
LINE
  8
0
 10
-121.743
 20
114.448
 11
-121.674
 21
114.663
  0
LINE
  8
0
 10
-121.674
 20
114.663
 11
-121.577
 21
114.867
  0
LINE
  8
0
 10
-121.577
 20
114.867
 11
-121.456
 21
115.058
  0
LINE
  8
0
 10
-121.456
 20
115.058
 11
-121.312
 21
115.232
  0
LINE
  8
0
 10
-121.312
 20
115.232
 11
-121.147
 21
115.387
  0
LINE
  8
0
 10
-121.147
 20
115.387
 11
-120.964
 21
115.52
  0
LINE
  8
0
 10
-120.964
 20
115.52
 11
-120.766
 21
115.629
  0
LINE
  8
0
 10
-120.766
 20
115.629
 11
-120.556
 21
115.712
  0
LINE
  8
0
 10
-120.556
 20
115.712
 11
-120.337
 21
115.768
  0
LINE
  8
0
 10
-120.337
 20
115.768
 11
-120.113
 21
115.796
  0
LINE
  8
0
 10
-120.113
 20
115.796
 11
-119.887
 21
115.796
  0
LINE
  8
0
 10
-119.887
 20
115.796
 11
-119.663
 21
115.768
  0
LINE
  8
0
 10
-119.663
 20
115.768
 11
-119.444
 21
115.712
  0
LINE
  8
0
 10
-119.444
 20
115.712
 11
-119.234
 21
115.629
  0
LINE
  8
0
 10
-119.234
 20
115.629
 11
-119.036
 21
115.52
  0
LINE
  8
0
 10
-119.036
 20
115.52
 11
-118.853
 21
115.387
  0
LINE
  8
0
 10
-118.853
 20
115.387
 11
-118.688
 21
115.232
  0
LINE
  8
0
 10
-118.688
 20
115.232
 11
-118.544
 21
115.058
  0
LINE
  8
0
 10
-118.544
 20
115.058
 11
-118.423
 21
114.867
  0
LINE
  8
0
 10
-118.423
 20
114.867
 11
-118.326
 21
114.663
  0
LINE
  8
0
 10
-118.326
 20
114.663
 11
-118.257
 21
114.448
  0
LINE
  8
0
 10
-118.257
 20
114.448
 11
-118.214
 21
114.226
  0
LINE
  8
0
 10
-118.214
 20
114.226
 11
-118.2
 21
114
  0
LINE
  8
0
 10
-118.2
 20
114
 11
-118.214
 21
113.774
  0
LINE
  8
0
 10
-118.214
 20
113.774
 11
-118.257
 21
113.552
  0
LINE
  8
0
 10
-118.257
 20
113.552
 11
-118.326
 21
113.337
  0
LINE
  8
0
 10
-118.326
 20
113.337
 11
-118.423
 21
113.133
  0
LINE
  8
0
 10
-118.423
 20
113.133
 11
-118.544
 21
112.942
  0
LINE
  8
0
 10
-118.544
 20
112.942
 11
-118.688
 21
112.768
  0
LINE
  8
0
 10
-118.688
 20
112.768
 11
-118.853
 21
112.613
  0
LINE
  8
0
 10
-118.853
 20
112.613
 11
-119.036
 21
112.48
  0
LINE
  8
0
 10
-119.036
 20
112.48
 11
-119.234
 21
112.371
  0
LINE
  8
0
 10
-119.234
 20
112.371
 11
-119.444
 21
112.288
  0
LINE
  8
0
 10
-119.444
 20
112.288
 11
-119.663
 21
112.232
  0
LINE
  8
0
 10
-119.663
 20
112.232
 11
-119.887
 21
112.204
  0
LINE
  8
0
 10
-119.887
 20
112.204
 11
-120.113
 21
112.204
  0
LINE
  8
0
 10
119.887
 20
112.204
 11
119.663
 21
112.232
  0
LINE
  8
0
 10
119.663
 20
112.232
 11
119.444
 21
112.288
  0
LINE
  8
0
 10
119.444
 20
112.288
 11
119.234
 21
112.371
  0
LINE
  8
0
 10
119.234
 20
112.371
 11
119.036
 21
112.48
  0
LINE
  8
0
 10
119.036
 20
112.48
 11
118.853
 21
112.613
  0
LINE
  8
0
 10
118.853
 20
112.613
 11
118.688
 21
112.768
  0
LINE
  8
0
 10
118.688
 20
112.768
 11
118.544
 21
112.942
  0
LINE
  8
0
 10
118.544
 20
112.942
 11
118.423
 21
113.133
  0
LINE
  8
0
 10
118.423
 20
113.133
 11
118.326
 21
113.337
  0
LINE
  8
0
 10
118.326
 20
113.337
 11
118.257
 21
113.552
  0
LINE
  8
0
 10
118.257
 20
113.552
 11
118.214
 21
113.774
  0
LINE
  8
0
 10
118.214
 20
113.774
 11
118.2
 21
114
  0
LINE
  8
0
 10
118.2
 20
114
 11
118.214
 21
114.226
  0
LINE
  8
0
 10
118.214
 20
114.226
 11
118.257
 21
114.448
  0
LINE
  8
0
 10
118.257
 20
114.448
 11
118.326
 21
114.663
  0
LINE
  8
0
 10
118.326
 20
114.663
 11
118.423
 21
114.867
  0
LINE
  8
0
 10
118.423
 20
114.867
 11
118.544
 21
115.058
  0
LINE
  8
0
 10
118.544
 20
115.058
 11
118.688
 21
115.232
  0
LINE
  8
0
 10
118.688
 20
115.232
 11
118.853
 21
115.387
  0
LINE
  8
0
 10
118.853
 20
115.387
 11
119.036
 21
115.52
  0
LINE
  8
0
 10
119.036
 20
115.52
 11
119.234
 21
115.629
  0
LINE
  8
0
 10
119.234
 20
115.629
 11
119.444
 21
115.712
  0
LINE
  8
0
 10
119.444
 20
115.712
 11
119.663
 21
115.768
  0
LINE
  8
0
 10
119.663
 20
115.768
 11
119.887
 21
115.796
  0
LINE
  8
0
 10
119.887
 20
115.796
 11
120.113
 21
115.796
  0
LINE
  8
0
 10
120.113
 20
115.796
 11
120.337
 21
115.768
  0
LINE
  8
0
 10
120.337
 20
115.768
 11
120.556
 21
115.712
  0
LINE
  8
0
 10
120.556
 20
115.712
 11
120.766
 21
115.629
  0
LINE
  8
0
 10
120.766
 20
115.629
 11
120.964
 21
115.52
  0
LINE
  8
0
 10
120.964
 20
115.52
 11
121.147
 21
115.387
  0
LINE
  8
0
 10
121.147
 20
115.387
 11
121.312
 21
115.232
  0
LINE
  8
0
 10
121.312
 20
115.232
 11
121.456
 21
115.058
  0
LINE
  8
0
 10
121.456
 20
115.058
 11
121.577
 21
114.867
  0
LINE
  8
0
 10
121.577
 20
114.867
 11
121.674
 21
114.663
  0
LINE
  8
0
 10
121.674
 20
114.663
 11
121.743
 21
114.448
  0
LINE
  8
0
 10
121.743
 20
114.448
 11
121.786
 21
114.226
  0
LINE
  8
0
 10
121.786
 20
114.226
 11
121.8
 21
114
  0
LINE
  8
0
 10
121.8
 20
114
 11
121.786
 21
113.774
  0
LINE
  8
0
 10
121.786
 20
113.774
 11
121.743
 21
113.552
  0
LINE
  8
0
 10
121.743
 20
113.552
 11
121.674
 21
113.337
  0
LINE
  8
0
 10
121.674
 20
113.337
 11
121.577
 21
113.133
  0
LINE
  8
0
 10
121.577
 20
113.133
 11
121.456
 21
112.942
  0
LINE
  8
0
 10
121.456
 20
112.942
 11
121.312
 21
112.768
  0
LINE
  8
0
 10
121.312
 20
112.768
 11
121.147
 21
112.613
  0
LINE
  8
0
 10
121.147
 20
112.613
 11
120.964
 21
112.48
  0
LINE
  8
0
 10
120.964
 20
112.48
 11
120.766
 21
112.371
  0
LINE
  8
0
 10
120.766
 20
112.371
 11
120.556
 21
112.288
  0
LINE
  8
0
 10
120.556
 20
112.288
 11
120.337
 21
112.232
  0
LINE
  8
0
 10
120.337
 20
112.232
 11
120.113
 21
112.204
  0
LINE
  8
0
 10
120.113
 20
112.204
 11
119.887
 21
112.204
  0
LINE
  8
0
 10
119.887
 20
52.2036
 11
119.663
 21
52.2319
  0
LINE
  8
0
 10
119.663
 20
52.2319
 11
119.444
 21
52.2881
  0
LINE
  8
0
 10
119.444
 20
52.2881
 11
119.234
 21
52.3713
  0
LINE
  8
0
 10
119.234
 20
52.3713
 11
119.036
 21
52.4802
  0
LINE
  8
0
 10
119.036
 20
52.4802
 11
118.853
 21
52.6131
  0
LINE
  8
0
 10
118.853
 20
52.6131
 11
118.688
 21
52.7678
  0
LINE
  8
0
 10
118.688
 20
52.7678
 11
118.544
 21
52.942
  0
LINE
  8
0
 10
118.544
 20
52.942
 11
118.423
 21
53.1328
  0
LINE
  8
0
 10
118.423
 20
53.1328
 11
118.326
 21
53.3374
  0
LINE
  8
0
 10
118.326
 20
53.3374
 11
118.257
 21
53.5524
  0
LINE
  8
0
 10
118.257
 20
53.5524
 11
118.214
 21
53.7744
  0
LINE
  8
0
 10
118.214
 20
53.7744
 11
118.2
 21
54
  0
LINE
  8
0
 10
118.2
 20
54
 11
118.214
 21
54.2256
  0
LINE
  8
0
 10
118.214
 20
54.2256
 11
118.257
 21
54.4476
  0
LINE
  8
0
 10
118.257
 20
54.4476
 11
118.326
 21
54.6626
  0
LINE
  8
0
 10
118.326
 20
54.6626
 11
118.423
 21
54.8672
  0
LINE
  8
0
 10
118.423
 20
54.8672
 11
118.544
 21
55.058
  0
LINE
  8
0
 10
118.544
 20
55.058
 11
118.688
 21
55.2322
  0
LINE
  8
0
 10
118.688
 20
55.2322
 11
118.853
 21
55.3869
  0
LINE
  8
0
 10
118.853
 20
55.3869
 11
119.036
 21
55.5198
  0
LINE
  8
0
 10
119.036
 20
55.5198
 11
119.234
 21
55.6287
  0
LINE
  8
0
 10
119.234
 20
55.6287
 11
119.444
 21
55.7119
  0
LINE
  8
0
 10
119.444
 20
55.7119
 11
119.663
 21
55.7681
  0
LINE
  8
0
 10
119.663
 20
55.7681
 11
119.887
 21
55.7964
  0
LINE
  8
0
 10
119.887
 20
55.7964
 11
120.113
 21
55.7964
  0
LINE
  8
0
 10
120.113
 20
55.7964
 11
120.337
 21
55.7681
  0
LINE
  8
0
 10
120.337
 20
55.7681
 11
120.556
 21
55.7119
  0
LINE
  8
0
 10
120.556
 20
55.7119
 11
120.766
 21
55.6287
  0
LINE
  8
0
 10
120.766
 20
55.6287
 11
120.964
 21
55.5198
  0
LINE
  8
0
 10
120.964
 20
55.5198
 11
121.147
 21
55.3869
  0
LINE
  8
0
 10
121.147
 20
55.3869
 11
121.312
 21
55.2322
  0
LINE
  8
0
 10
121.312
 20
55.2322
 11
121.456
 21
55.058
  0
LINE
  8
0
 10
121.456
 20
55.058
 11
121.577
 21
54.8672
  0
LINE
  8
0
 10
121.577
 20
54.8672
 11
121.674
 21
54.6626
  0
LINE
  8
0
 10
121.674
 20
54.6626
 11
121.743
 21
54.4476
  0
LINE
  8
0
 10
121.743
 20
54.4476
 11
121.786
 21
54.2256
  0
LINE
  8
0
 10
121.786
 20
54.2256
 11
121.8
 21
54
  0
LINE
  8
0
 10
121.8
 20
54
 11
121.786
 21
53.7744
  0
LINE
  8
0
 10
121.786
 20
53.7744
 11
121.743
 21
53.5524
  0
LINE
  8
0
 10
121.743
 20
53.5524
 11
121.674
 21
53.3374
  0
LINE
  8
0
 10
121.674
 20
53.3374
 11
121.577
 21
53.1328
  0
LINE
  8
0
 10
121.577
 20
53.1328
 11
121.456
 21
52.942
  0
LINE
  8
0
 10
121.456
 20
52.942
 11
121.312
 21
52.7678
  0
LINE
  8
0
 10
121.312
 20
52.7678
 11
121.147
 21
52.6131
  0
LINE
  8
0
 10
121.147
 20
52.6131
 11
120.964
 21
52.4802
  0
LINE
  8
0
 10
120.964
 20
52.4802
 11
120.766
 21
52.3713
  0
LINE
  8
0
 10
120.766
 20
52.3713
 11
120.556
 21
52.2881
  0
LINE
  8
0
 10
120.556
 20
52.2881
 11
120.337
 21
52.2319
  0
LINE
  8
0
 10
120.337
 20
52.2319
 11
120.113
 21
52.2036
  0
LINE
  8
0
 10
120.113
 20
52.2036
 11
119.887
 21
52.2036
  0
LINE
  8
0
 10
-120.113
 20
52.2036
 11
-120.337
 21
52.2319
  0
LINE
  8
0
 10
-120.337
 20
52.2319
 11
-120.556
 21
52.2881
  0
LINE
  8
0
 10
-120.556
 20
52.2881
 11
-120.766
 21
52.3713
  0
LINE
  8
0
 10
-120.766
 20
52.3713
 11
-120.964
 21
52.4802
  0
LINE
  8
0
 10
-120.964
 20
52.4802
 11
-121.147
 21
52.6131
  0
LINE
  8
0
 10
-121.147
 20
52.6131
 11
-121.312
 21
52.7678
  0
LINE
  8
0
 10
-121.312
 20
52.7678
 11
-121.456
 21
52.942
  0
LINE
  8
0
 10
-121.456
 20
52.942
 11
-121.577
 21
53.1328
  0
LINE
  8
0
 10
-121.577
 20
53.1328
 11
-121.674
 21
53.3374
  0
LINE
  8
0
 10
-121.674
 20
53.3374
 11
-121.743
 21
53.5524
  0
LINE
  8
0
 10
-121.743
 20
53.5524
 11
-121.786
 21
53.7744
  0
LINE
  8
0
 10
-121.786
 20
53.7744
 11
-121.8
 21
54
  0
LINE
  8
0
 10
-121.8
 20
54
 11
-121.786
 21
54.2256
  0
LINE
  8
0
 10
-121.786
 20
54.2256
 11
-121.743
 21
54.4476
  0
LINE
  8
0
 10
-121.743
 20
54.4476
 11
-121.674
 21
54.6626
  0
LINE
  8
0
 10
-121.674
 20
54.6626
 11
-121.577
 21
54.8672
  0
LINE
  8
0
 10
-121.577
 20
54.8672
 11
-121.456
 21
55.058
  0
LINE
  8
0
 10
-121.456
 20
55.058
 11
-121.312
 21
55.2322
  0
LINE
  8
0
 10
-121.312
 20
55.2322
 11
-121.147
 21
55.3869
  0
LINE
  8
0
 10
-121.147
 20
55.3869
 11
-120.964
 21
55.5198
  0
LINE
  8
0
 10
-120.964
 20
55.5198
 11
-120.766
 21
55.6287
  0
LINE
  8
0
 10
-120.766
 20
55.6287
 11
-120.556
 21
55.7119
  0
LINE
  8
0
 10
-120.556
 20
55.7119
 11
-120.337
 21
55.7681
  0
LINE
  8
0
 10
-120.337
 20
55.7681
 11
-120.113
 21
55.7964
  0
LINE
  8
0
 10
-120.113
 20
55.7964
 11
-119.887
 21
55.7964
  0
LINE
  8
0
 10
-119.887
 20
55.7964
 11
-119.663
 21
55.7681
  0
LINE
  8
0
 10
-119.663
 20
55.7681
 11
-119.444
 21
55.7119
  0
LINE
  8
0
 10
-119.444
 20
55.7119
 11
-119.234
 21
55.6287
  0
LINE
  8
0
 10
-119.234
 20
55.6287
 11
-119.036
 21
55.5198
  0
LINE
  8
0
 10
-119.036
 20
55.5198
 11
-118.853
 21
55.3869
  0
LINE
  8
0
 10
-118.853
 20
55.3869
 11
-118.688
 21
55.2322
  0
LINE
  8
0
 10
-118.688
 20
55.2322
 11
-118.544
 21
55.058
  0
LINE
  8
0
 10
-118.544
 20
55.058
 11
-118.423
 21
54.8672
  0
LINE
  8
0
 10
-118.423
 20
54.8672
 11
-118.326
 21
54.6626
  0
LINE
  8
0
 10
-118.326
 20
54.6626
 11
-118.257
 21
54.4476
  0
LINE
  8
0
 10
-118.257
 20
54.4476
 11
-118.214
 21
54.2256
  0
LINE
  8
0
 10
-118.214
 20
54.2256
 11
-118.2
 21
54
  0
LINE
  8
0
 10
-118.2
 20
54
 11
-118.214
 21
53.7744
  0
LINE
  8
0
 10
-118.214
 20
53.7744
 11
-118.257
 21
53.5524
  0
LINE
  8
0
 10
-118.257
 20
53.5524
 11
-118.326
 21
53.3374
  0
LINE
  8
0
 10
-118.326
 20
53.3374
 11
-118.423
 21
53.1328
  0
LINE
  8
0
 10
-118.423
 20
53.1328
 11
-118.544
 21
52.942
  0
LINE
  8
0
 10
-118.544
 20
52.942
 11
-118.688
 21
52.7678
  0
LINE
  8
0
 10
-118.688
 20
52.7678
 11
-118.853
 21
52.6131
  0
LINE
  8
0
 10
-118.853
 20
52.6131
 11
-119.036
 21
52.4802
  0
LINE
  8
0
 10
-119.036
 20
52.4802
 11
-119.234
 21
52.3713
  0
LINE
  8
0
 10
-119.234
 20
52.3713
 11
-119.444
 21
52.2881
  0
LINE
  8
0
 10
-119.444
 20
52.2881
 11
-119.663
 21
52.2319
  0
LINE
  8
0
 10
-119.663
 20
52.2319
 11
-119.887
 21
52.2036
  0
LINE
  8
0
 10
-119.887
 20
52.2036
 11
-120.113
 21
52.2036
  0
ENDSEC
  0
SECTION
  2
OBJECTS
  0
DICTIONARY
  0
ENDSEC
  0
EOF
