<?xml version="1.0" standalone="no"?>
<!DOCTYPE svg PUBLIC "-//W3C//DTD SVG 1.1//EN" "http://www.w3.org/Graphics/SVG/1.1/DTD/svg11.dtd">
<svg width="256mm" height="160mm" viewBox="-128 -206 256 160" xmlns="http://www.w3.org/2000/svg" version="1.1">
<title>OpenSCAD Model</title>
<path d="
M 123.437,-130.589 L 124.045,-130.745 L 124.629,-130.976 L 125.179,-131.278 L 125.687,-131.647 L 126.145,-132.077
 L 126.545,-132.561 L 126.882,-133.091 L 127.149,-133.659 L 127.343,-134.257 L 127.461,-134.873 L 127.5,-135.5
 L 127.5,-200.5 L 127.461,-201.127 L 127.343,-201.743 L 127.149,-202.341 L 126.882,-202.909 L 126.545,-203.439
 L 126.145,-203.923 L 125.687,-204.353 L 125.179,-204.722 L 124.629,-205.024 L 124.045,-205.255 L 123.437,-205.411
 L 122.814,-205.49 L -122.814,-205.49 L -123.437,-205.411 L -124.045,-205.255 L -124.629,-205.024 L -125.179,-204.722
 L -125.687,-204.353 L -126.145,-203.923 L -126.545,-203.439 L -126.882,-202.909 L -127.149,-202.341 L -127.343,-201.743
 L -127.461,-201.127 L -127.5,-200.5 L -127.5,-135.5 L -127.461,-134.873 L -127.343,-134.257 L -127.149,-133.659
 L -126.882,-133.091 L -126.545,-132.561 L -126.145,-132.077 L -125.687,-131.647 L -125.179,-131.278 L -124.629,-130.976
 L -124.045,-130.745 L -123.437,-130.589 L -122.814,-130.51 L 122.814,-130.51 z
M -122.493,-131.888 L -122.975,-131.949 L -123.446,-132.07 L -123.898,-132.249 L -124.323,-132.483 L -124.716,-132.769
 L -125.071,-133.101 L -125.38,-133.476 L -125.641,-133.886 L -125.848,-134.326 L -125.998,-134.788 L -126.089,-135.265
 L -126.119,-135.75 L -126.119,-200.25 L -126.089,-200.735 L -125.998,-201.212 L -125.848,-201.674 L -125.641,-202.114
 L -125.38,-202.524 L -125.071,-202.899 L -124.716,-203.231 L -124.323,-203.517 L -123.898,-203.751 L -123.446,-203.93
 L -122.975,-204.051 L -122.493,-204.112 L 122.493,-204.112 L 122.975,-204.051 L 123.446,-203.93 L 123.898,-203.751
 L 124.323,-203.517 L 124.716,-203.231 L 125.071,-202.899 L 125.38,-202.524 L 125.641,-202.114 L 125.848,-201.674
 L 125.998,-201.212 L 126.089,-200.735 L 126.119,-200.25 L 126.119,-135.75 L 126.089,-135.265 L 125.998,-134.788
 L 125.848,-134.326 L 125.641,-133.886 L 125.38,-133.476 L 125.071,-133.101 L 124.716,-132.769 L 124.323,-132.483
 L 123.898,-132.249 L 123.446,-132.07 L 122.975,-131.949 L 122.493,-131.888 z
M 123.437,-46.5886 L 124.045,-46.7447 L 124.629,-46.9759 L 125.179,-47.2784 L 125.687,-47.6474 L 126.145,-48.0773
 L 126.545,-48.5611 L 126.882,-49.0912 L 127.149,-49.6594 L 127.343,-50.2566 L 127.461,-50.8733 L 127.5,-51.5
 L 127.5,-116.5 L 127.461,-117.127 L 127.343,-117.743 L 127.149,-118.341 L 126.882,-118.909 L 126.545,-119.439
 L 126.145,-119.923 L 125.687,-120.353 L 125.179,-120.722 L 124.629,-121.024 L 124.045,-121.255 L 123.437,-121.411
 L 122.814,-121.49 L -122.814,-121.49 L -123.437,-121.411 L -124.045,-121.255 L -124.629,-121.024 L -125.179,-120.722
 L -125.687,-120.353 L -126.145,-119.923 L -126.545,-119.439 L -126.882,-118.909 L -127.149,-118.341 L -127.343,-117.743
 L -127.461,-117.127 L -127.5,-116.5 L -127.5,-51.5 L -127.461,-50.8733 L -127.343,-50.2566 L -127.149,-49.6594
 L -126.882,-49.0912 L -126.545,-48.5611 L -126.145,-48.0773 L -125.687,-47.6474 L -125.179,-47.2784 L -124.629,-46.9759
 L -124.045,-46.7447 L -123.437,-46.5886 L -122.814,-46.5099 L 122.814,-46.5099 z
M -120.113,-112.204 L -120.337,-112.232 L -120.556,-112.288 L -120.766,-112.371 L -120.964,-112.48 L -121.147,-112.613
 L -121.312,-112.768 L -121.456,-112.942 L -121.577,-113.133 L -121.674,-113.337 L -121.743,-113.552 L -121.786,-113.774
 L -121.8,-114 L -121.786,-114.226 L -121.743,-114.448 L -121.674,-114.663 L -121.577,-114.867 L -121.456,-115.058
 L -121.312,-115.232 L -121.147,-115.387 L -120.964,-115.52 L -120.766,-115.629 L -120.556,-115.712 L -120.337,-115.768
 L -120.113,-115.796 L -119.887,-115.796 L -119.663,-115.768 L -119.444,-115.712 L -119.234,-115.629 L -119.036,-115.52
 L -118.853,-115.387 L -118.688,-115.232 L -118.544,-115.058 L -118.423,-114.867 L -118.326,-114.663 L -118.257,-114.448
 L -118.214,-114.226 L -118.2,-114 L -118.214,-113.774 L -118.257,-113.552 L -118.326,-113.337 L -118.423,-113.133
 L -118.544,-112.942 L -118.688,-112.768 L -118.853,-112.613 L -119.036,-112.48 L -119.234,-112.371 L -119.444,-112.288
 L -119.663,-112.232 L -119.887,-112.204 z
M 119.887,-112.204 L 119.663,-112.232 L 119.444,-112.288 L 119.234,-112.371 L 119.036,-112.48 L 118.853,-112.613
 L 118.688,-112.768 L 118.544,-112.942 L 118.423,-113.133 L 118.326,-113.337 L 118.257,-113.552 L 118.214,-113.774
 L 118.2,-114 L 118.214,-114.226 L 118.257,-114.448 L 118.326,-114.663 L 118.423,-114.867 L 118.544,-115.058
 L 118.688,-115.232 L 118.853,-115.387 L 119.036,-115.52 L 119.234,-115.629 L 119.444,-115.712 L 119.663,-115.768
 L 119.887,-115.796 L 120.113,-115.796 L 120.337,-115.768 L 120.556,-115.712 L 120.766,-115.629 L 120.964,-115.52
 L 121.147,-115.387 L 121.312,-115.232 L 121.456,-115.058 L 121.577,-114.867 L 121.674,-114.663 L 121.743,-114.448
 L 121.786,-114.226 L 121.8,-114 L 121.786,-113.774 L 121.743,-113.552 L 121.674,-113.337 L 121.577,-113.133
 L 121.456,-112.942 L 121.312,-112.768 L 121.147,-112.613 L 120.964,-112.48 L 120.766,-112.371 L 120.556,-112.288
 L 120.337,-112.232 L 120.113,-112.204 z
M 119.887,-52.2036 L 119.663,-52.2319 L 119.444,-52.2881 L 119.234,-52.3713 L 119.036,-52.4802 L 118.853,-52.6131
 L 118.688,-52.7678 L 118.544,-52.942 L 118.423,-53.1328 L 118.326,-53.3374 L 118.257,-53.5524 L 118.214,-53.7744
 L 118.2,-54 L 118.214,-54.2256 L 118.257,-54.4476 L 118.326,-54.6626 L 118.423,-54.8672 L 118.544,-55.058
 L 118.688,-55.2322 L 118.853,-55.3869 L 119.036,-55.5198 L 119.234,-55.6287 L 119.444,-55.7119 L 119.663,-55.7681
 L 119.887,-55.7964 L 120.113,-55.7964 L 120.337,-55.7681 L 120.556,-55.7119 L 120.766,-55.6287 L 120.964,-55.5198
 L 121.147,-55.3869 L 121.312,-55.2322 L 121.456,-55.058 L 121.577,-54.8672 L 121.674,-54.6626 L 121.743,-54.4476
 L 121.786,-54.2256 L 121.8,-54 L 121.786,-53.7744 L 121.743,-53.5524 L 121.674,-53.3374 L 121.577,-53.1328
 L 121.456,-52.942 L 121.312,-52.7678 L 121.147,-52.6131 L 120.964,-52.4802 L 120.766,-52.3713 L 120.556,-52.2881
 L 120.337,-52.2319 L 120.113,-52.2036 z
M -120.113,-52.2036 L -120.337,-52.2319 L -120.556,-52.2881 L -120.766,-52.3713 L -120.964,-52.4802 L -121.147,-52.6131
 L -121.312,-52.7678 L -121.456,-52.942 L -121.577,-53.1328 L -121.674,-53.3374 L -121.743,-53.5524 L -121.786,-53.7744
 L -121.8,-54 L -121.786,-54.2256 L -121.743,-54.4476 L -121.674,-54.6626 L -121.577,-54.8672 L -121.456,-55.058
 L -121.312,-55.2322 L -121.147,-55.3869 L -120.964,-55.5198 L -120.766,-55.6287 L -120.556,-55.7119 L -120.337,-55.7681
 L -120.113,-55.7964 L -119.887,-55.7964 L -119.663,-55.7681 L -119.444,-55.7119 L -119.234,-55.6287 L -119.036,-55.5198
 L -118.853,-55.3869 L -118.688,-55.2322 L -118.544,-55.058 L -118.423,-54.8672 L -118.326,-54.6626 L -118.257,-54.4476
 L -118.214,-54.2256 L -118.2,-54 L -118.214,-53.7744 L -118.257,-53.5524 L -118.326,-53.3374 L -118.423,-53.1328
 L -118.544,-52.942 L -118.688,-52.7678 L -118.853,-52.6131 L -119.036,-52.4802 L -119.234,-52.3713 L -119.444,-52.2881
 L -119.663,-52.2319 L -119.887,-52.2036 z
" stroke="black" fill="lightgray" stroke-width="0.5"/>
</svg>
