<?xml version="1.0" standalone="no"?>
<!DOCTYPE svg PUBLIC "-//W3C//DTD SVG 1.1//EN" "http://www.w3.org/Graphics/SVG/1.1/DTD/svg11.dtd">
<svg width="257mm" height="40mm" viewBox="-129 -56 257 40" xmlns="http://www.w3.org/2000/svg" version="1.1">
<title>OpenSCAD Model</title>
<path d="
M 123.437,-40.5886 L 124.045,-40.7447 L 124.629,-40.9759 L 125.179,-41.2784 L 125.687,-41.6474 L 126.145,-42.0773
 L 126.545,-42.5611 L 126.882,-43.0912 L 127.149,-43.6594 L 127.343,-44.2566 L 127.461,-44.8733 L 127.5,-45.5
 L 127.5,-50.5 L 127.461,-51.1267 L 127.343,-51.7434 L 127.149,-52.3406 L 126.882,-52.9088 L 126.545,-53.4389
 L 126.145,-53.9227 L 125.687,-54.3526 L 125.179,-54.7216 L 124.629,-55.0241 L 124.045,-55.2553 L 123.437,-55.4114
 L 122.814,-55.4901 L -122.814,-55.4901 L -123.437,-55.4114 L -124.045,-55.2553 L -124.629,-55.0241 L -125.179,-54.7216
 L -125.687,-54.3526 L -126,-54.0587 L -126,-55.1148 L -129,-55.1148 L -129,-40.8852 L -126,-40.8852
 L -126,-41.9413 L -125.687,-41.6474 L -125.179,-41.2784 L -124.629,-40.9759 L -124.045,-40.7447 L -123.437,-40.5886
 L -122.814,-40.5099 L 122.814,-40.5099 z
M 119.849,-45.6047 L 119.55,-45.6425 L 119.258,-45.7175 L 118.978,-45.8284 L 118.714,-45.9736 L 118.47,-46.1508
 L 118.25,-46.3571 L 118.058,-46.5893 L 117.897,-46.8438 L 117.769,-47.1165 L 117.675,-47.4032 L 117.619,-47.6992
 L 117.6,-48 L 117.619,-48.3008 L 117.675,-48.5968 L 117.769,-48.8835 L 117.897,-49.1562 L 118.058,-49.4107
 L 118.25,-49.6429 L 118.47,-49.8492 L 118.714,-50.0264 L 118.978,-50.1716 L 119.258,-50.2825 L 119.55,-50.3575
 L 119.849,-50.3953 L 120.151,-50.3953 L 120.45,-50.3575 L 120.742,-50.2825 L 121.022,-50.1716 L 121.286,-50.0264
 L 121.53,-49.8492 L 121.75,-49.6429 L 121.942,-49.4107 L 122.103,-49.1562 L 122.231,-48.8835 L 122.325,-48.5968
 L 122.381,-48.3008 L 122.4,-48 L 122.381,-47.6992 L 122.325,-47.4032 L 122.231,-47.1165 L 122.103,-46.8438
 L 121.942,-46.5893 L 121.75,-46.3571 L 121.53,-46.1508 L 121.286,-45.9736 L 121.022,-45.8284 L 120.742,-45.7175
 L 120.45,-45.6425 L 120.151,-45.6047 z
M -120.151,-45.6047 L -120.45,-45.6425 L -120.742,-45.7175 L -121.022,-45.8284 L -121.286,-45.9736 L -121.53,-46.1508
 L -121.75,-46.3571 L -121.942,-46.5893 L -122.103,-46.8438 L -122.231,-47.1165 L -122.325,-47.4032 L -122.381,-47.6992
 L -122.4,-48 L -122.381,-48.3008 L -122.325,-48.5968 L -122.231,-48.8835 L -122.103,-49.1562 L -121.942,-49.4107
 L -121.75,-49.6429 L -121.53,-49.8492 L -121.286,-50.0264 L -121.022,-50.1716 L -120.742,-50.2825 L -120.45,-50.3575
 L -120.151,-50.3953 L -119.849,-50.3953 L -119.55,-50.3575 L -119.258,-50.2825 L -118.978,-50.1716 L -118.714,-50.0264
 L -118.47,-49.8492 L -118.25,-49.6429 L -118.058,-49.4107 L -117.897,-49.1562 L -117.769,-48.8835 L -117.675,-48.5968
 L -117.619,-48.3008 L -117.6,-48 L -117.619,-47.6992 L -117.675,-47.4032 L -117.769,-47.1165 L -117.897,-46.8438
 L -118.058,-46.5893 L -118.25,-46.3571 L -118.47,-46.1508 L -118.714,-45.9736 L -118.978,-45.8284 L -119.258,-45.7175
 L -119.55,-45.6425 L -119.849,-45.6047 z
M 123.437,-16.5886 L 124.045,-16.7447 L 124.629,-16.9759 L 125.179,-17.2784 L 125.687,-17.6474 L 126.145,-18.0773
 L 126.545,-18.5611 L 126.882,-19.0912 L 127.149,-19.6594 L 127.343,-20.2566 L 127.461,-20.8733 L 127.5,-21.5
 L 127.5,-26.5 L 127.461,-27.1267 L 127.343,-27.7434 L 127.149,-28.3406 L 126.882,-28.9088 L 126.545,-29.4389
 L 126.145,-29.9227 L 125.687,-30.3526 L 125.179,-30.7216 L 124.629,-31.0241 L 124.045,-31.2553 L 123.437,-31.4114
 L 122.814,-31.4901 L -122.814,-31.4901 L -123.437,-31.4114 L -124.045,-31.2553 L -124.629,-31.0241 L -125.179,-30.7216
 L -125.687,-30.3526 L -126.145,-29.9227 L -126.545,-29.4389 L -126.882,-28.9088 L -127.149,-28.3406 L -127.343,-27.7434
 L -127.4,-27.4442 L -129,-27.4442 L -129,-20.5558 L -127.4,-20.5558 L -127.343,-20.2566 L -127.149,-19.6594
 L -126.882,-19.0912 L -126.545,-18.5611 L -126.145,-18.0773 L -125.687,-17.6474 L -125.179,-17.2784 L -124.629,-16.9759
 L -124.045,-16.7447 L -123.437,-16.5886 L -122.814,-16.5099 L 122.814,-16.5099 z
M -120.113,-22.2036 L -120.337,-22.2319 L -120.556,-22.2881 L -120.766,-22.3713 L -120.964,-22.4802 L -121.147,-22.6131
 L -121.312,-22.7678 L -121.456,-22.942 L -121.577,-23.1329 L -121.674,-23.3374 L -121.743,-23.5524 L -121.786,-23.7744
 L -121.8,-24 L -121.786,-24.2256 L -121.743,-24.4476 L -121.674,-24.6626 L -121.577,-24.8671 L -121.456,-25.058
 L -121.312,-25.2322 L -121.147,-25.3869 L -120.964,-25.5198 L -120.766,-25.6287 L -120.556,-25.7119 L -120.337,-25.7681
 L -120.113,-25.7964 L -119.887,-25.7964 L -119.663,-25.7681 L -119.444,-25.7119 L -119.234,-25.6287 L -119.036,-25.5198
 L -118.853,-25.3869 L -118.688,-25.2322 L -118.544,-25.058 L -118.423,-24.8671 L -118.326,-24.6626 L -118.257,-24.4476
 L -118.214,-24.2256 L -118.2,-24 L -118.214,-23.7744 L -118.257,-23.5524 L -118.326,-23.3374 L -118.423,-23.1329
 L -118.544,-22.942 L -118.688,-22.7678 L -118.853,-22.6131 L -119.036,-22.4802 L -119.234,-22.3713 L -119.444,-22.2881
 L -119.663,-22.2319 L -119.887,-22.2036 z
M 119.887,-22.2036 L 119.663,-22.2319 L 119.444,-22.2881 L 119.234,-22.3713 L 119.036,-22.4802 L 118.853,-22.6131
 L 118.688,-22.7678 L 118.544,-22.942 L 118.423,-23.1329 L 118.326,-23.3374 L 118.257,-23.5524 L 118.214,-23.7744
 L 118.2,-24 L 118.214,-24.2256 L 118.257,-24.4476 L 118.326,-24.6626 L 118.423,-24.8671 L 118.544,-25.058
 L 118.688,-25.2322 L 118.853,-25.3869 L 119.036,-25.5198 L 119.234,-25.6287 L 119.444,-25.7119 L 119.663,-25.7681
 L 119.887,-25.7964 L 120.113,-25.7964 L 120.337,-25.7681 L 120.556,-25.7119 L 120.766,-25.6287 L 120.964,-25.5198
 L 121.147,-25.3869 L 121.312,-25.2322 L 121.456,-25.058 L 121.577,-24.8671 L 121.674,-24.6626 L 121.743,-24.4476
 L 121.786,-24.2256 L 121.8,-24 L 121.786,-23.7744 L 121.743,-23.5524 L 121.674,-23.3374 L 121.577,-23.1329
 L 121.456,-22.942 L 121.312,-22.7678 L 121.147,-22.6131 L 120.964,-22.4802 L 120.766,-22.3713 L 120.556,-22.2881
 L 120.337,-22.2319 L 120.113,-22.2036 z
" stroke="black" fill="lightgray" stroke-width="0.5"/>
</svg>
