<?xml version="1.0" standalone="no"?>
<!DOCTYPE svg PUBLIC "-//W3C//DTD SVG 1.1//EN" "http://www.w3.org/Graphics/SVG/1.1/DTD/svg11.dtd">
<svg width="302mm" height="186mm" viewBox="-152 -327 302 186" xmlns="http://www.w3.org/2000/svg" version="1.1">
<title>OpenSCAD Model</title>
<path d="
M -148.5,-298.441 L -148.187,-298.147 L -147.679,-297.778 L -147.129,-297.476 L -146.545,-297.245 L -145.937,-297.089
 L -145.314,-297.01 L 145.314,-297.01 L 145.937,-297.089 L 146.545,-297.245 L 147.129,-297.476 L 147.679,-297.778
 L 148.187,-298.147 L 148.645,-298.577 L 149.045,-299.061 L 149.382,-299.591 L 149.649,-300.159 L 149.843,-300.757
 L 149.961,-301.373 L 150,-302 L 150,-322 L 149.961,-322.627 L 149.843,-323.243 L 149.649,-323.841
 L 149.382,-324.409 L 149.045,-324.939 L 148.645,-325.423 L 148.187,-325.853 L 147.679,-326.222 L 147.129,-326.524
 L 146.545,-326.755 L 145.937,-326.911 L 145.314,-326.99 L -145.314,-326.99 L -145.937,-326.911 L -146.545,-326.755
 L -147.129,-326.524 L -147.679,-326.222 L -148.187,-325.853 L -148.5,-325.559 L -148.5,-326.99 L -151.5,-326.99
 L -151.5,-297.01 L -148.5,-297.01 z
M -144.751,-298.508 L -145.25,-298.571 L -145.736,-298.696 L -146.203,-298.881 L -146.643,-299.123 L -147.05,-299.418
 L -147.416,-299.762 L -147.736,-300.149 L -148.005,-300.573 L -148.219,-301.028 L -148.374,-301.505 L -148.468,-301.999
 L -148.5,-302.5 L -148.5,-321.5 L -148.468,-322.001 L -148.374,-322.495 L -148.219,-322.972 L -148.005,-323.427
 L -147.736,-323.851 L -147.416,-324.238 L -147.05,-324.582 L -146.643,-324.877 L -146.203,-325.119 L -145.736,-325.304
 L -145.25,-325.429 L -144.751,-325.492 L 144.751,-325.492 L 145.25,-325.429 L 145.736,-325.304 L 146.203,-325.119
 L 146.643,-324.877 L 147.05,-324.582 L 147.416,-324.238 L 147.736,-323.851 L 148.005,-323.427 L 148.219,-322.972
 L 148.374,-322.495 L 148.468,-322.001 L 148.5,-321.5 L 148.5,-302.5 L 148.468,-301.999 L 148.374,-301.505
 L 148.219,-301.028 L 148.005,-300.573 L 147.736,-300.149 L 147.416,-299.762 L 147.05,-299.418 L 146.643,-299.123
 L 146.203,-298.881 L 145.736,-298.696 L 145.25,-298.571 L 144.751,-298.508 z
M -148.5,-259.441 L -148.187,-259.147 L -147.679,-258.778 L -147.129,-258.476 L -146.545,-258.245 L -145.937,-258.089
 L -145.314,-258.01 L 145.314,-258.01 L 145.937,-258.089 L 146.545,-258.245 L 147.129,-258.476 L 147.679,-258.778
 L 148.187,-259.147 L 148.645,-259.577 L 149.045,-260.061 L 149.382,-260.591 L 149.649,-261.159 L 149.843,-261.757
 L 149.961,-262.373 L 150,-263 L 150,-283 L 149.961,-283.627 L 149.843,-284.243 L 149.649,-284.841
 L 149.382,-285.409 L 149.045,-285.939 L 148.645,-286.423 L 148.187,-286.853 L 147.679,-287.222 L 147.129,-287.524
 L 146.545,-287.755 L 145.937,-287.911 L 145.314,-287.99 L -145.314,-287.99 L -145.937,-287.911 L -146.545,-287.755
 L -147.129,-287.524 L -147.679,-287.222 L -148.187,-286.853 L -148.5,-286.559 L -148.5,-287.99 L -151.5,-287.99
 L -151.5,-258.01 L -148.5,-258.01 z
M -144.751,-259.508 L -145.25,-259.571 L -145.736,-259.696 L -146.203,-259.881 L -146.643,-260.123 L -147.05,-260.418
 L -147.416,-260.762 L -147.736,-261.149 L -148.005,-261.573 L -148.219,-262.028 L -148.374,-262.505 L -148.468,-262.999
 L -148.5,-263.5 L -148.5,-282.5 L -148.468,-283.001 L -148.374,-283.495 L -148.219,-283.972 L -148.005,-284.427
 L -147.736,-284.851 L -147.416,-285.238 L -147.05,-285.582 L -146.643,-285.877 L -146.203,-286.119 L -145.736,-286.304
 L -145.25,-286.429 L -144.751,-286.492 L 144.751,-286.492 L 145.25,-286.429 L 145.736,-286.304 L 146.203,-286.119
 L 146.643,-285.877 L 147.05,-285.582 L 147.416,-285.238 L 147.736,-284.851 L 148.005,-284.427 L 148.219,-283.972
 L 148.374,-283.495 L 148.468,-283.001 L 148.5,-282.5 L 148.5,-263.5 L 148.468,-262.999 L 148.374,-262.505
 L 148.219,-262.028 L 148.005,-261.573 L 147.736,-261.149 L 147.416,-260.762 L 147.05,-260.418 L 146.643,-260.123
 L 146.203,-259.881 L 145.736,-259.696 L 145.25,-259.571 L 144.751,-259.508 z
M -148.5,-220.441 L -148.187,-220.147 L -147.679,-219.778 L -147.129,-219.476 L -146.545,-219.245 L -145.937,-219.089
 L -145.314,-219.01 L 145.314,-219.01 L 145.937,-219.089 L 146.545,-219.245 L 147.129,-219.476 L 147.679,-219.778
 L 148.187,-220.147 L 148.645,-220.577 L 149.045,-221.061 L 149.382,-221.591 L 149.649,-222.159 L 149.843,-222.757
 L 149.961,-223.373 L 150,-224 L 150,-244 L 149.961,-244.627 L 149.843,-245.243 L 149.649,-245.841
 L 149.382,-246.409 L 149.045,-246.939 L 148.645,-247.423 L 148.187,-247.853 L 147.679,-248.222 L 147.129,-248.524
 L 146.545,-248.755 L 145.937,-248.911 L 145.314,-248.99 L -145.314,-248.99 L -145.937,-248.911 L -146.545,-248.755
 L -147.129,-248.524 L -147.679,-248.222 L -148.187,-247.853 L -148.5,-247.559 L -148.5,-248.99 L -151.5,-248.99
 L -151.5,-219.01 L -148.5,-219.01 z
M -144.743,-220.635 L -145.226,-220.696 L -145.697,-220.817 L -146.149,-220.996 L -146.575,-221.23 L -146.969,-221.516
 L -147.323,-221.849 L -147.633,-222.224 L -147.894,-222.634 L -148.101,-223.074 L -148.251,-223.537 L -148.342,-224.015
 L -148.373,-224.5 L -148.373,-243.5 L -148.342,-243.985 L -148.251,-244.463 L -148.101,-244.926 L -147.894,-245.366
 L -147.633,-245.776 L -147.323,-246.151 L -146.969,-246.484 L -146.575,-246.77 L -146.149,-247.004 L -145.697,-247.183
 L -145.226,-247.304 L -144.743,-247.365 L 144.743,-247.365 L 145.226,-247.304 L 145.697,-247.183 L 146.149,-247.004
 L 146.575,-246.77 L 146.969,-246.484 L 147.323,-246.151 L 147.633,-245.776 L 147.894,-245.366 L 148.101,-244.926
 L 148.251,-244.463 L 148.342,-243.985 L 148.373,-243.5 L 148.373,-224.5 L 148.342,-224.015 L 148.251,-223.537
 L 148.101,-223.074 L 147.894,-222.634 L 147.633,-222.224 L 147.323,-221.849 L 146.969,-221.516 L 146.575,-221.23
 L 146.149,-220.996 L 145.697,-220.817 L 145.226,-220.696 L 144.743,-220.635 z
M 145.937,-180.089 L 146.545,-180.245 L 147.129,-180.476 L 147.679,-180.778 L 148.187,-181.147 L 148.645,-181.577
 L 149.045,-182.061 L 149.382,-182.591 L 149.649,-183.159 L 149.843,-183.757 L 149.961,-184.373 L 150,-185
 L 150,-205 L 149.961,-205.627 L 149.843,-206.243 L 149.649,-206.841 L 149.382,-207.409 L 149.045,-207.939
 L 148.645,-208.423 L 148.187,-208.853 L 147.679,-209.222 L 147.129,-209.524 L 146.545,-209.755 L 145.937,-209.911
 L 145.314,-209.99 L -145.314,-209.99 L -145.937,-209.911 L -146.545,-209.755 L -147.129,-209.524 L -147.679,-209.222
 L -148.187,-208.853 L -148.5,-208.559 L -148.5,-209.615 L -151.5,-209.615 L -151.5,-180.385 L -148.5,-180.385
 L -148.5,-181.441 L -148.187,-181.147 L -147.679,-180.778 L -147.129,-180.476 L -146.545,-180.245 L -145.937,-180.089
 L -145.314,-180.01 L 145.314,-180.01 z
M -142.651,-200.105 L -142.95,-200.143 L -143.242,-200.217 L -143.522,-200.328 L -143.786,-200.474 L -144.03,-200.651
 L -144.25,-200.857 L -144.442,-201.089 L -144.603,-201.344 L -144.731,-201.617 L -144.825,-201.903 L -144.881,-202.199
 L -144.9,-202.5 L -144.881,-202.801 L -144.825,-203.097 L -144.731,-203.383 L -144.603,-203.656 L -144.442,-203.911
 L -144.25,-204.143 L -144.03,-204.349 L -143.786,-204.526 L -143.522,-204.672 L -143.242,-204.783 L -142.95,-204.857
 L -142.651,-204.895 L -142.349,-204.895 L -142.05,-204.857 L -141.758,-204.783 L -141.478,-204.672 L -141.214,-204.526
 L -140.97,-204.349 L -140.75,-204.143 L -140.558,-203.911 L -140.397,-203.656 L -140.269,-203.383 L -140.175,-203.097
 L -140.119,-202.801 L -140.1,-202.5 L -140.119,-202.199 L -140.175,-201.903 L -140.269,-201.617 L -140.397,-201.344
 L -140.558,-201.089 L -140.75,-200.857 L -140.97,-200.651 L -141.214,-200.474 L -141.478,-200.328 L -141.758,-200.217
 L -142.05,-200.143 L -142.349,-200.105 z
M 142.349,-200.105 L 142.05,-200.143 L 141.758,-200.217 L 141.478,-200.328 L 141.214,-200.474 L 140.97,-200.651
 L 140.75,-200.857 L 140.558,-201.089 L 140.397,-201.344 L 140.269,-201.617 L 140.175,-201.903 L 140.119,-202.199
 L 140.1,-202.5 L 140.119,-202.801 L 140.175,-203.097 L 140.269,-203.383 L 140.397,-203.656 L 140.558,-203.911
 L 140.75,-204.143 L 140.97,-204.349 L 141.214,-204.526 L 141.478,-204.672 L 141.758,-204.783 L 142.05,-204.857
 L 142.349,-204.895 L 142.651,-204.895 L 142.95,-204.857 L 143.242,-204.783 L 143.522,-204.672 L 143.786,-204.526
 L 144.03,-204.349 L 144.25,-204.143 L 144.442,-203.911 L 144.603,-203.656 L 144.731,-203.383 L 144.825,-203.097
 L 144.881,-202.801 L 144.9,-202.5 L 144.881,-202.199 L 144.825,-201.903 L 144.731,-201.617 L 144.603,-201.344
 L 144.442,-201.089 L 144.25,-200.857 L 144.03,-200.651 L 143.786,-200.474 L 143.522,-200.328 L 143.242,-200.217
 L 142.95,-200.143 L 142.651,-200.105 z
M -142.651,-185.105 L -142.95,-185.143 L -143.242,-185.217 L -143.522,-185.328 L -143.786,-185.474 L -144.03,-185.651
 L -144.25,-185.857 L -144.442,-186.089 L -144.603,-186.344 L -144.731,-186.617 L -144.825,-186.903 L -144.881,-187.199
 L -144.9,-187.5 L -144.881,-187.801 L -144.825,-188.097 L -144.731,-188.383 L -144.603,-188.656 L -144.442,-188.911
 L -144.25,-189.143 L -144.03,-189.349 L -143.786,-189.526 L -143.522,-189.672 L -143.242,-189.783 L -142.95,-189.857
 L -142.651,-189.895 L -142.349,-189.895 L -142.05,-189.857 L -141.758,-189.783 L -141.478,-189.672 L -141.214,-189.526
 L -140.97,-189.349 L -140.75,-189.143 L -140.558,-188.911 L -140.397,-188.656 L -140.269,-188.383 L -140.175,-188.097
 L -140.119,-187.801 L -140.1,-187.5 L -140.119,-187.199 L -140.175,-186.903 L -140.269,-186.617 L -140.397,-186.344
 L -140.558,-186.089 L -140.75,-185.857 L -140.97,-185.651 L -141.214,-185.474 L -141.478,-185.328 L -141.758,-185.217
 L -142.05,-185.143 L -142.349,-185.105 z
M 142.349,-185.105 L 142.05,-185.143 L 141.758,-185.217 L 141.478,-185.328 L 141.214,-185.474 L 140.97,-185.651
 L 140.75,-185.857 L 140.558,-186.089 L 140.397,-186.344 L 140.269,-186.617 L 140.175,-186.903 L 140.119,-187.199
 L 140.1,-187.5 L 140.119,-187.801 L 140.175,-188.097 L 140.269,-188.383 L 140.397,-188.656 L 140.558,-188.911
 L 140.75,-189.143 L 140.97,-189.349 L 141.214,-189.526 L 141.478,-189.672 L 141.758,-189.783 L 142.05,-189.857
 L 142.349,-189.895 L 142.651,-189.895 L 142.95,-189.857 L 143.242,-189.783 L 143.522,-189.672 L 143.786,-189.526
 L 144.03,-189.349 L 144.25,-189.143 L 144.442,-188.911 L 144.603,-188.656 L 144.731,-188.383 L 144.825,-188.097
 L 144.881,-187.801 L 144.9,-187.5 L 144.881,-187.199 L 144.825,-186.903 L 144.731,-186.617 L 144.603,-186.344
 L 144.442,-186.089 L 144.25,-185.857 L 144.03,-185.651 L 143.786,-185.474 L 143.522,-185.328 L 143.242,-185.217
 L 142.95,-185.143 L 142.651,-185.105 z
M 145.937,-141.089 L 146.545,-141.245 L 147.129,-141.476 L 147.679,-141.778 L 148.187,-142.147 L 148.645,-142.577
 L 149.045,-143.061 L 149.382,-143.591 L 149.649,-144.159 L 149.843,-144.757 L 149.961,-145.373 L 150,-146
 L 150,-166 L 149.961,-166.627 L 149.843,-167.243 L 149.649,-167.841 L 149.382,-168.409 L 149.045,-168.939
 L 148.645,-169.423 L 148.187,-169.853 L 147.679,-170.222 L 147.129,-170.524 L 146.545,-170.755 L 145.937,-170.911
 L 145.314,-170.99 L -145.314,-170.99 L -145.937,-170.911 L -146.545,-170.755 L -147.129,-170.524 L -147.679,-170.222
 L -148.187,-169.853 L -148.645,-169.423 L -149.045,-168.939 L -149.382,-168.409 L -149.649,-167.841 L -149.843,-167.243
 L -149.9,-166.944 L -151.5,-166.944 L -151.5,-145.056 L -149.9,-145.056 L -149.843,-144.757 L -149.649,-144.159
 L -149.382,-143.591 L -149.045,-143.061 L -148.645,-142.577 L -148.187,-142.147 L -147.679,-141.778 L -147.129,-141.476
 L -146.545,-141.245 L -145.937,-141.089 L -145.314,-141.01 L 145.314,-141.01 z
M -142.613,-161.704 L -142.837,-161.732 L -143.056,-161.788 L -143.266,-161.871 L -143.464,-161.98 L -143.647,-162.113
 L -143.812,-162.268 L -143.956,-162.442 L -144.077,-162.633 L -144.174,-162.837 L -144.243,-163.052 L -144.286,-163.274
 L -144.3,-163.5 L -144.286,-163.726 L -144.243,-163.948 L -144.174,-164.163 L -144.077,-164.367 L -143.956,-164.558
 L -143.812,-164.732 L -143.647,-164.887 L -143.464,-165.02 L -143.266,-165.129 L -143.056,-165.212 L -142.837,-165.268
 L -142.613,-165.296 L -142.387,-165.296 L -142.163,-165.268 L -141.944,-165.212 L -141.734,-165.129 L -141.536,-165.02
 L -141.353,-164.887 L -141.188,-164.732 L -141.044,-164.558 L -140.923,-164.367 L -140.826,-164.163 L -140.757,-163.948
 L -140.714,-163.726 L -140.7,-163.5 L -140.714,-163.274 L -140.757,-163.052 L -140.826,-162.837 L -140.923,-162.633
 L -141.044,-162.442 L -141.188,-162.268 L -141.353,-162.113 L -141.536,-161.98 L -141.734,-161.871 L -141.944,-161.788
 L -142.163,-161.732 L -142.387,-161.704 z
M 142.387,-161.704 L 142.163,-161.732 L 141.944,-161.788 L 141.734,-161.871 L 141.536,-161.98 L 141.353,-162.113
 L 141.188,-162.268 L 141.044,-162.442 L 140.923,-162.633 L 140.826,-162.837 L 140.757,-163.052 L 140.714,-163.274
 L 140.7,-163.5 L 140.714,-163.726 L 140.757,-163.948 L 140.826,-164.163 L 140.923,-164.367 L 141.044,-164.558
 L 141.188,-164.732 L 141.353,-164.887 L 141.536,-165.02 L 141.734,-165.129 L 141.944,-165.212 L 142.163,-165.268
 L 142.387,-165.296 L 142.613,-165.296 L 142.837,-165.268 L 143.056,-165.212 L 143.266,-165.129 L 143.464,-165.02
 L 143.647,-164.887 L 143.812,-164.732 L 143.956,-164.558 L 144.077,-164.367 L 144.174,-164.163 L 144.243,-163.948
 L 144.286,-163.726 L 144.3,-163.5 L 144.286,-163.274 L 144.243,-163.052 L 144.174,-162.837 L 144.077,-162.633
 L 143.956,-162.442 L 143.812,-162.268 L 143.647,-162.113 L 143.464,-161.98 L 143.266,-161.871 L 143.056,-161.788
 L 142.837,-161.732 L 142.613,-161.704 z
M 142.387,-146.704 L 142.163,-146.732 L 141.944,-146.788 L 141.734,-146.871 L 141.536,-146.98 L 141.353,-147.113
 L 141.188,-147.268 L 141.044,-147.442 L 140.923,-147.633 L 140.826,-147.837 L 140.757,-148.052 L 140.714,-148.274
 L 140.7,-148.5 L 140.714,-148.726 L 140.757,-148.948 L 140.826,-149.163 L 140.923,-149.367 L 141.044,-149.558
 L 141.188,-149.732 L 141.353,-149.887 L 141.536,-150.02 L 141.734,-150.129 L 141.944,-150.212 L 142.163,-150.268
 L 142.387,-150.296 L 142.613,-150.296 L 142.837,-150.268 L 143.056,-150.212 L 143.266,-150.129 L 143.464,-150.02
 L 143.647,-149.887 L 143.812,-149.732 L 143.956,-149.558 L 144.077,-149.367 L 144.174,-149.163 L 144.243,-148.948
 L 144.286,-148.726 L 144.3,-148.5 L 144.286,-148.274 L 144.243,-148.052 L 144.174,-147.837 L 144.077,-147.633
 L 143.956,-147.442 L 143.812,-147.268 L 143.647,-147.113 L 143.464,-146.98 L 143.266,-146.871 L 143.056,-146.788
 L 142.837,-146.732 L 142.613,-146.704 z
M -142.613,-146.704 L -142.837,-146.732 L -143.056,-146.788 L -143.266,-146.871 L -143.464,-146.98 L -143.647,-147.113
 L -143.812,-147.268 L -143.956,-147.442 L -144.077,-147.633 L -144.174,-147.837 L -144.243,-148.052 L -144.286,-148.274
 L -144.3,-148.5 L -144.286,-148.726 L -144.243,-148.948 L -144.174,-149.163 L -144.077,-149.367 L -143.956,-149.558
 L -143.812,-149.732 L -143.647,-149.887 L -143.464,-150.02 L -143.266,-150.129 L -143.056,-150.212 L -142.837,-150.268
 L -142.613,-150.296 L -142.387,-150.296 L -142.163,-150.268 L -141.944,-150.212 L -141.734,-150.129 L -141.536,-150.02
 L -141.353,-149.887 L -141.188,-149.732 L -141.044,-149.558 L -140.923,-149.367 L -140.826,-149.163 L -140.757,-148.948
 L -140.714,-148.726 L -140.7,-148.5 L -140.714,-148.274 L -140.757,-148.052 L -140.826,-147.837 L -140.923,-147.633
 L -141.044,-147.442 L -141.188,-147.268 L -141.353,-147.113 L -141.536,-146.98 L -141.734,-146.871 L -141.944,-146.788
 L -142.163,-146.732 L -142.387,-146.704 z
" stroke="black" fill="lightgray" stroke-width="0.5"/>
</svg>
