<?xml version="1.0" standalone="no"?>
<!DOCTYPE svg PUBLIC "-//W3C//DTD SVG 1.1//EN" "http://www.w3.org/Graphics/SVG/1.1/DTD/svg11.dtd">
<svg width="287mm" height="1162mm" viewBox="-144 -2219 287 1162" xmlns="http://www.w3.org/2000/svg" version="1.1">
<title>OpenSCAD Model</title>
<path d="
M -141,-1994.94 L -140.687,-1994.65 L -140.179,-1994.28 L -139.629,-1993.98 L -139.045,-1993.74 L -138.437,-1993.59
 L -137.814,-1993.51 L 137.814,-1993.51 L 138.437,-1993.59 L 139.045,-1993.74 L 139.629,-1993.98 L 140.179,-1994.28
 L 140.687,-1994.65 L 141.145,-1995.08 L 141.545,-1995.56 L 141.882,-1996.09 L 142.149,-1996.66 L 142.343,-1997.26
 L 142.461,-1997.87 L 142.5,-1998.5 L 142.5,-2213.5 L 142.461,-2214.13 L 142.343,-2214.74 L 142.149,-2215.34
 L 141.882,-2215.91 L 141.545,-2216.44 L 141.145,-2216.92 L 140.687,-2217.35 L 140.179,-2217.72 L 139.629,-2218.02
 L 139.045,-2218.26 L 138.437,-2218.41 L 137.814,-2218.49 L -137.814,-2218.49 L -138.437,-2218.41 L -139.045,-2218.26
 L -139.629,-2218.02 L -140.179,-2217.72 L -140.687,-2217.35 L -141,-2217.06 L -141,-2218.49 L -144,-2218.49
 L -144,-1993.51 L -141,-1993.51 z
M -137.251,-1995.01 L -137.75,-1995.07 L -138.236,-1995.2 L -138.703,-1995.38 L -139.143,-1995.62 L -139.55,-1995.92
 L -139.916,-1996.26 L -140.236,-1996.65 L -140.505,-1997.07 L -140.719,-1997.53 L -140.874,-1998.01 L -140.968,-1998.5
 L -141,-1999 L -141,-2213 L -140.968,-2213.5 L -140.874,-2213.99 L -140.719,-2214.47 L -140.505,-2214.93
 L -140.236,-2215.35 L -139.916,-2215.74 L -139.55,-2216.08 L -139.143,-2216.38 L -138.703,-2216.62 L -138.236,-2216.8
 L -137.75,-2216.93 L -137.251,-2216.99 L 137.251,-2216.99 L 137.75,-2216.93 L 138.236,-2216.8 L 138.703,-2216.62
 L 139.143,-2216.38 L 139.55,-2216.08 L 139.916,-2215.74 L 140.236,-2215.35 L 140.505,-2214.93 L 140.719,-2214.47
 L 140.874,-2213.99 L 140.968,-2213.5 L 141,-2213 L 141,-1999 L 140.968,-1998.5 L 140.874,-1998.01
 L 140.719,-1997.53 L 140.505,-1997.07 L 140.236,-1996.65 L 139.916,-1996.26 L 139.55,-1995.92 L 139.143,-1995.62
 L 138.703,-1995.38 L 138.236,-1995.2 L 137.75,-1995.07 L 137.251,-1995.01 z
M -141,-1760.94 L -140.687,-1760.65 L -140.179,-1760.28 L -139.629,-1759.98 L -139.045,-1759.74 L -138.437,-1759.59
 L -137.814,-1759.51 L 137.814,-1759.51 L 138.437,-1759.59 L 139.045,-1759.74 L 139.629,-1759.98 L 140.179,-1760.28
 L 140.687,-1760.65 L 141.145,-1761.08 L 141.545,-1761.56 L 141.882,-1762.09 L 142.149,-1762.66 L 142.343,-1763.26
 L 142.461,-1763.87 L 142.5,-1764.5 L 142.5,-1979.5 L 142.461,-1980.13 L 142.343,-1980.74 L 142.149,-1981.34
 L 141.882,-1981.91 L 141.545,-1982.44 L 141.145,-1982.92 L 140.687,-1983.35 L 140.179,-1983.72 L 139.629,-1984.02
 L 139.045,-1984.26 L 138.437,-1984.41 L 137.814,-1984.49 L -137.814,-1984.49 L -138.437,-1984.41 L -139.045,-1984.26
 L -139.629,-1984.02 L -140.179,-1983.72 L -140.687,-1983.35 L -141,-1983.06 L -141,-1984.49 L -144,-1984.49
 L -144,-1759.51 L -141,-1759.51 z
M -137.251,-1761.01 L -137.75,-1761.07 L -138.236,-1761.2 L -138.703,-1761.38 L -139.143,-1761.62 L -139.55,-1761.92
 L -139.916,-1762.26 L -140.236,-1762.65 L -140.505,-1763.07 L -140.719,-1763.53 L -140.874,-1764.01 L -140.968,-1764.5
 L -141,-1765 L -141,-1979 L -140.968,-1979.5 L -140.874,-1979.99 L -140.719,-1980.47 L -140.505,-1980.93
 L -140.236,-1981.35 L -139.916,-1981.74 L -139.55,-1982.08 L -139.143,-1982.38 L -138.703,-1982.62 L -138.236,-1982.8
 L -137.75,-1982.93 L -137.251,-1982.99 L 137.251,-1982.99 L 137.75,-1982.93 L 138.236,-1982.8 L 138.703,-1982.62
 L 139.143,-1982.38 L 139.55,-1982.08 L 139.916,-1981.74 L 140.236,-1981.35 L 140.505,-1980.93 L 140.719,-1980.47
 L 140.874,-1979.99 L 140.968,-1979.5 L 141,-1979 L 141,-1765 L 140.968,-1764.5 L 140.874,-1764.01
 L 140.719,-1763.53 L 140.505,-1763.07 L 140.236,-1762.65 L 139.916,-1762.26 L 139.55,-1761.92 L 139.143,-1761.62
 L 138.703,-1761.38 L 138.236,-1761.2 L 137.75,-1761.07 L 137.251,-1761.01 z
M -141,-1526.94 L -140.687,-1526.65 L -140.179,-1526.28 L -139.629,-1525.98 L -139.045,-1525.74 L -138.437,-1525.59
 L -137.814,-1525.51 L 137.814,-1525.51 L 138.437,-1525.59 L 139.045,-1525.74 L 139.629,-1525.98 L 140.179,-1526.28
 L 140.687,-1526.65 L 141.145,-1527.08 L 141.545,-1527.56 L 141.882,-1528.09 L 142.149,-1528.66 L 142.343,-1529.26
 L 142.461,-1529.87 L 142.5,-1530.5 L 142.5,-1745.5 L 142.461,-1746.13 L 142.343,-1746.74 L 142.149,-1747.34
 L 141.882,-1747.91 L 141.545,-1748.44 L 141.145,-1748.92 L 140.687,-1749.35 L 140.179,-1749.72 L 139.629,-1750.02
 L 139.045,-1750.26 L 138.437,-1750.41 L 137.814,-1750.49 L -137.814,-1750.49 L -138.437,-1750.41 L -139.045,-1750.26
 L -139.629,-1750.02 L -140.179,-1749.72 L -140.687,-1749.35 L -141,-1749.06 L -141,-1750.49 L -144,-1750.49
 L -144,-1525.51 L -141,-1525.51 z
M -137.251,-1527.01 L -137.75,-1527.07 L -138.236,-1527.2 L -138.703,-1527.38 L -139.143,-1527.62 L -139.55,-1527.92
 L -139.916,-1528.26 L -140.236,-1528.65 L -140.505,-1529.07 L -140.719,-1529.53 L -140.874,-1530.01 L -140.968,-1530.5
 L -141,-1531 L -141,-1745 L -140.968,-1745.5 L -140.874,-1745.99 L -140.719,-1746.47 L -140.505,-1746.93
 L -140.236,-1747.35 L -139.916,-1747.74 L -139.55,-1748.08 L -139.143,-1748.38 L -138.703,-1748.62 L -138.236,-1748.8
 L -137.75,-1748.93 L -137.251,-1748.99 L 137.251,-1748.99 L 137.75,-1748.93 L 138.236,-1748.8 L 138.703,-1748.62
 L 139.143,-1748.38 L 139.55,-1748.08 L 139.916,-1747.74 L 140.236,-1747.35 L 140.505,-1746.93 L 140.719,-1746.47
 L 140.874,-1745.99 L 140.968,-1745.5 L 141,-1745 L 141,-1531 L 140.968,-1530.5 L 140.874,-1530.01
 L 140.719,-1529.53 L 140.505,-1529.07 L 140.236,-1528.65 L 139.916,-1528.26 L 139.55,-1527.92 L 139.143,-1527.62
 L 138.703,-1527.38 L 138.236,-1527.2 L 137.75,-1527.07 L 137.251,-1527.01 z
M 138.437,-1291.59 L 139.045,-1291.74 L 139.629,-1291.98 L 140.179,-1292.28 L 140.687,-1292.65 L 141.145,-1293.08
 L 141.545,-1293.56 L 141.882,-1294.09 L 142.149,-1294.66 L 142.343,-1295.26 L 142.461,-1295.87 L 142.5,-1296.5
 L 142.5,-1511.5 L 142.461,-1512.13 L 142.343,-1512.74 L 142.149,-1513.34 L 141.882,-1513.91 L 141.545,-1514.44
 L 141.145,-1514.92 L 140.687,-1515.35 L 140.179,-1515.72 L 139.629,-1516.02 L 139.045,-1516.26 L 138.437,-1516.41
 L 137.814,-1516.49 L -137.814,-1516.49 L -138.437,-1516.41 L -139.045,-1516.26 L -139.629,-1516.02 L -140.179,-1515.72
 L -140.687,-1515.35 L -141,-1515.06 L -141,-1516.48 L -144,-1516.48 L -144,-1291.52 L -141,-1291.52
 L -141,-1292.94 L -140.687,-1292.65 L -140.179,-1292.28 L -139.629,-1291.98 L -139.045,-1291.74 L -138.437,-1291.59
 L -137.814,-1291.51 L 137.814,-1291.51 z
M -137.195,-1293.89 L -137.583,-1293.94 L -137.962,-1294.04 L -138.325,-1294.18 L -138.668,-1294.37 L -138.984,-1294.6
 L -139.269,-1294.87 L -139.518,-1295.17 L -139.728,-1295.5 L -139.894,-1295.85 L -140.015,-1296.23 L -140.088,-1296.61
 L -140.113,-1297 L -140.113,-1511 L -140.088,-1511.39 L -140.015,-1511.77 L -139.894,-1512.15 L -139.728,-1512.5
 L -139.518,-1512.83 L -139.269,-1513.13 L -138.984,-1513.4 L -138.668,-1513.63 L -138.325,-1513.82 L -137.962,-1513.96
 L -137.583,-1514.06 L -137.195,-1514.11 L 137.195,-1514.11 L 137.583,-1514.06 L 137.962,-1513.96 L 138.325,-1513.82
 L 138.668,-1513.63 L 138.984,-1513.4 L 139.269,-1513.13 L 139.518,-1512.83 L 139.728,-1512.5 L 139.894,-1512.15
 L 140.015,-1511.77 L 140.088,-1511.39 L 140.113,-1511 L 140.113,-1297 L 140.088,-1296.61 L 140.015,-1296.23
 L 139.894,-1295.85 L 139.728,-1295.5 L 139.518,-1295.17 L 139.269,-1294.87 L 138.984,-1294.6 L 138.668,-1294.37
 L 138.325,-1294.18 L 137.962,-1294.04 L 137.583,-1293.94 L 137.195,-1293.89 z
M 138.437,-1057.59 L 139.045,-1057.74 L 139.629,-1057.98 L 140.179,-1058.28 L 140.687,-1058.65 L 141.145,-1059.08
 L 141.545,-1059.56 L 141.882,-1060.09 L 142.149,-1060.66 L 142.343,-1061.26 L 142.461,-1061.87 L 142.5,-1062.5
 L 142.5,-1277.5 L 142.461,-1278.13 L 142.343,-1278.74 L 142.149,-1279.34 L 141.882,-1279.91 L 141.545,-1280.44
 L 141.145,-1280.92 L 140.687,-1281.35 L 140.179,-1281.72 L 139.629,-1282.02 L 139.045,-1282.26 L 138.437,-1282.41
 L 137.814,-1282.49 L -137.814,-1282.49 L -138.437,-1282.41 L -139.045,-1282.26 L -139.629,-1282.02 L -140.179,-1281.72
 L -140.687,-1281.35 L -141,-1281.06 L -141,-1281.15 L -144,-1281.15 L -144,-1058.85 L -141,-1058.85
 L -141,-1058.94 L -140.687,-1058.65 L -140.179,-1058.28 L -139.629,-1057.98 L -139.045,-1057.74 L -138.437,-1057.59
 L -137.814,-1057.51 L 137.814,-1057.51 z
M -135.134,-1272.87 L -135.4,-1272.9 L -135.66,-1272.97 L -135.909,-1273.07 L -136.144,-1273.2 L -136.361,-1273.35
 L -136.557,-1273.54 L -136.727,-1273.74 L -136.871,-1273.97 L -136.985,-1274.21 L -137.068,-1274.47 L -137.118,-1274.73
 L -137.135,-1275 L -137.118,-1275.27 L -137.068,-1275.53 L -136.985,-1275.79 L -136.871,-1276.03 L -136.727,-1276.26
 L -136.557,-1276.46 L -136.361,-1276.65 L -136.144,-1276.8 L -135.909,-1276.93 L -135.66,-1277.03 L -135.4,-1277.1
 L -135.134,-1277.13 L -134.866,-1277.13 L -134.6,-1277.1 L -134.34,-1277.03 L -134.091,-1276.93 L -133.856,-1276.8
 L -133.639,-1276.65 L -133.443,-1276.46 L -133.273,-1276.26 L -133.129,-1276.03 L -133.015,-1275.79 L -132.932,-1275.53
 L -132.882,-1275.27 L -132.865,-1275 L -132.882,-1274.73 L -132.932,-1274.47 L -133.015,-1274.21 L -133.129,-1273.97
 L -133.273,-1273.74 L -133.443,-1273.54 L -133.639,-1273.35 L -133.856,-1273.2 L -134.091,-1273.07 L -134.34,-1272.97
 L -134.6,-1272.9 L -134.866,-1272.87 z
M 134.866,-1272.87 L 134.6,-1272.9 L 134.34,-1272.97 L 134.091,-1273.07 L 133.856,-1273.2 L 133.639,-1273.35
 L 133.443,-1273.54 L 133.273,-1273.74 L 133.129,-1273.97 L 133.015,-1274.21 L 132.932,-1274.47 L 132.882,-1274.73
 L 132.865,-1275 L 132.882,-1275.27 L 132.932,-1275.53 L 133.015,-1275.79 L 133.129,-1276.03 L 133.273,-1276.26
 L 133.443,-1276.46 L 133.639,-1276.65 L 133.856,-1276.8 L 134.091,-1276.93 L 134.34,-1277.03 L 134.6,-1277.1
 L 134.866,-1277.13 L 135.134,-1277.13 L 135.4,-1277.1 L 135.66,-1277.03 L 135.909,-1276.93 L 136.144,-1276.8
 L 136.361,-1276.65 L 136.557,-1276.46 L 136.727,-1276.26 L 136.871,-1276.03 L 136.985,-1275.79 L 137.068,-1275.53
 L 137.118,-1275.27 L 137.135,-1275 L 137.118,-1274.73 L 137.068,-1274.47 L 136.985,-1274.21 L 136.871,-1273.97
 L 136.727,-1273.74 L 136.557,-1273.54 L 136.361,-1273.35 L 136.144,-1273.2 L 135.909,-1273.07 L 135.66,-1272.97
 L 135.4,-1272.9 L 135.134,-1272.87 z
M -135.134,-1062.87 L -135.4,-1062.9 L -135.66,-1062.97 L -135.909,-1063.07 L -136.144,-1063.2 L -136.361,-1063.35
 L -136.557,-1063.54 L -136.727,-1063.74 L -136.871,-1063.97 L -136.985,-1064.21 L -137.068,-1064.47 L -137.118,-1064.73
 L -137.135,-1065 L -137.118,-1065.27 L -137.068,-1065.53 L -136.985,-1065.79 L -136.871,-1066.03 L -136.727,-1066.26
 L -136.557,-1066.46 L -136.361,-1066.65 L -136.144,-1066.8 L -135.909,-1066.93 L -135.66,-1067.03 L -135.4,-1067.1
 L -135.134,-1067.13 L -134.866,-1067.13 L -134.6,-1067.1 L -134.34,-1067.03 L -134.091,-1066.93 L -133.856,-1066.8
 L -133.639,-1066.65 L -133.443,-1066.46 L -133.273,-1066.26 L -133.129,-1066.03 L -133.015,-1065.79 L -132.932,-1065.53
 L -132.882,-1065.27 L -132.865,-1065 L -132.882,-1064.73 L -132.932,-1064.47 L -133.015,-1064.21 L -133.129,-1063.97
 L -133.273,-1063.74 L -133.443,-1063.54 L -133.639,-1063.35 L -133.856,-1063.2 L -134.091,-1063.07 L -134.34,-1062.97
 L -134.6,-1062.9 L -134.866,-1062.87 z
M 134.866,-1062.87 L 134.6,-1062.9 L 134.34,-1062.97 L 134.091,-1063.07 L 133.856,-1063.2 L 133.639,-1063.35
 L 133.443,-1063.54 L 133.273,-1063.74 L 133.129,-1063.97 L 133.015,-1064.21 L 132.932,-1064.47 L 132.882,-1064.73
 L 132.865,-1065 L 132.882,-1065.27 L 132.932,-1065.53 L 133.015,-1065.79 L 133.129,-1066.03 L 133.273,-1066.26
 L 133.443,-1066.46 L 133.639,-1066.65 L 133.856,-1066.8 L 134.091,-1066.93 L 134.34,-1067.03 L 134.6,-1067.1
 L 134.866,-1067.13 L 135.134,-1067.13 L 135.4,-1067.1 L 135.66,-1067.03 L 135.909,-1066.93 L 136.144,-1066.8
 L 136.361,-1066.65 L 136.557,-1066.46 L 136.727,-1066.26 L 136.871,-1066.03 L 136.985,-1065.79 L 137.068,-1065.53
 L 137.118,-1065.27 L 137.135,-1065 L 137.118,-1064.73 L 137.068,-1064.47 L 136.985,-1064.21 L 136.871,-1063.97
 L 136.727,-1063.74 L 136.557,-1063.54 L 136.361,-1063.35 L 136.144,-1063.2 L 135.909,-1063.07 L 135.66,-1062.97
 L 135.4,-1062.9 L 135.134,-1062.87 z
" stroke="black" fill="lightgray" stroke-width="0.5"/>
</svg>
