<?xml version="1.0" standalone="no"?>
<!DOCTYPE svg PUBLIC "-//W3C//DTD SVG 1.1//EN" "http://www.w3.org/Graphics/SVG/1.1/DTD/svg11.dtd">
<svg width="270mm" height="88mm" viewBox="-135 -176 270 88" xmlns="http://www.w3.org/2000/svg" version="1.1">
<title>OpenSCAD Model</title>
<path d="
M 130.937,-160.589 L 131.545,-160.745 L 132.129,-160.976 L 132.679,-161.278 L 133.187,-161.647 L 133.645,-162.077
 L 134.045,-162.561 L 134.382,-163.091 L 134.649,-163.659 L 134.843,-164.257 L 134.961,-164.873 L 135,-165.5
 L 135,-170.5 L 134.961,-171.127 L 134.843,-171.743 L 134.649,-172.341 L 134.382,-172.909 L 134.045,-173.439
 L 133.645,-173.923 L 133.187,-174.353 L 132.679,-174.722 L 132.129,-175.024 L 131.545,-175.255 L 130.937,-175.411
 L 130.314,-175.49 L -130.314,-175.49 L -130.937,-175.411 L -131.545,-175.255 L -132.129,-175.024 L -132.679,-174.722
 L -133.187,-174.353 L -133.645,-173.923 L -134.045,-173.439 L -134.382,-172.909 L -134.649,-172.341 L -134.843,-171.743
 L -134.961,-171.127 L -135,-170.5 L -135,-165.5 L -134.961,-164.873 L -134.843,-164.257 L -134.649,-163.659
 L -134.382,-163.091 L -134.045,-162.561 L -133.645,-162.077 L -133.187,-161.647 L -132.679,-161.278 L -132.129,-160.976
 L -131.545,-160.745 L -130.937,-160.589 L -130.314,-160.51 L 130.314,-160.51 z
M -130.048,-161.009 L -130.64,-161.084 L -131.218,-161.232 L -131.772,-161.452 L -132.295,-161.739 L -132.778,-162.09
 L -133.213,-162.498 L -133.593,-162.958 L -133.912,-163.462 L -134.166,-164.001 L -134.351,-164.569 L -134.463,-165.155
 L -134.5,-165.75 L -134.5,-170.25 L -134.463,-170.845 L -134.351,-171.431 L -134.166,-171.999 L -133.912,-172.538
 L -133.593,-173.042 L -133.213,-173.502 L -132.778,-173.91 L -132.295,-174.261 L -131.772,-174.548 L -131.218,-174.768
 L -130.64,-174.916 L -130.048,-174.991 L 130.048,-174.991 L 130.64,-174.916 L 131.218,-174.768 L 131.772,-174.548
 L 132.295,-174.261 L 132.778,-173.91 L 133.213,-173.502 L 133.593,-173.042 L 133.912,-172.538 L 134.166,-171.999
 L 134.351,-171.431 L 134.463,-170.845 L 134.5,-170.25 L 134.5,-165.75 L 134.463,-165.155 L 134.351,-164.569
 L 134.166,-164.001 L 133.912,-163.462 L 133.593,-162.958 L 133.213,-162.498 L 132.778,-162.09 L 132.295,-161.739
 L 131.772,-161.452 L 131.218,-161.232 L 130.64,-161.084 L 130.048,-161.009 z
M 130.937,-136.589 L 131.545,-136.745 L 132.129,-136.976 L 132.679,-137.278 L 133.187,-137.647 L 133.645,-138.077
 L 134.045,-138.561 L 134.382,-139.091 L 134.649,-139.659 L 134.843,-140.257 L 134.961,-140.873 L 135,-141.5
 L 135,-146.5 L 134.961,-147.127 L 134.843,-147.743 L 134.649,-148.341 L 134.382,-148.909 L 134.045,-149.439
 L 133.645,-149.923 L 133.187,-150.353 L 132.679,-150.722 L 132.129,-151.024 L 131.545,-151.255 L 130.937,-151.411
 L 130.314,-151.49 L -130.314,-151.49 L -130.937,-151.411 L -131.545,-151.255 L -132.129,-151.024 L -132.679,-150.722
 L -133.187,-150.353 L -133.645,-149.923 L -134.045,-149.439 L -134.382,-148.909 L -134.649,-148.341 L -134.843,-147.743
 L -134.961,-147.127 L -135,-146.5 L -135,-141.5 L -134.961,-140.873 L -134.843,-140.257 L -134.649,-139.659
 L -134.382,-139.091 L -134.045,-138.561 L -133.645,-138.077 L -133.187,-137.647 L -132.679,-137.278 L -132.129,-136.976
 L -131.545,-136.745 L -130.937,-136.589 L -130.314,-136.51 L 130.314,-136.51 z
M -130.048,-137.009 L -130.64,-137.084 L -131.218,-137.232 L -131.772,-137.452 L -132.295,-137.739 L -132.778,-138.09
 L -133.213,-138.498 L -133.593,-138.958 L -133.912,-139.462 L -134.166,-140.001 L -134.351,-140.569 L -134.463,-141.155
 L -134.5,-141.75 L -134.5,-146.25 L -134.463,-146.845 L -134.351,-147.431 L -134.166,-147.999 L -133.912,-148.538
 L -133.593,-149.042 L -133.213,-149.502 L -132.778,-149.91 L -132.295,-150.261 L -131.772,-150.548 L -131.218,-150.768
 L -130.64,-150.916 L -130.048,-150.991 L 130.048,-150.991 L 130.64,-150.916 L 131.218,-150.768 L 131.772,-150.548
 L 132.295,-150.261 L 132.778,-149.91 L 133.213,-149.502 L 133.593,-149.042 L 133.912,-148.538 L 134.166,-147.999
 L 134.351,-147.431 L 134.463,-146.845 L 134.5,-146.25 L 134.5,-141.75 L 134.463,-141.155 L 134.351,-140.569
 L 134.166,-140.001 L 133.912,-139.462 L 133.593,-138.958 L 133.213,-138.498 L 132.778,-138.09 L 132.295,-137.739
 L 131.772,-137.452 L 131.218,-137.232 L 130.64,-137.084 L 130.048,-137.009 z
M 130.937,-112.589 L 131.545,-112.745 L 132.129,-112.976 L 132.679,-113.278 L 133.187,-113.647 L 133.645,-114.077
 L 134.045,-114.561 L 134.382,-115.091 L 134.649,-115.659 L 134.843,-116.257 L 134.961,-116.873 L 135,-117.5
 L 135,-122.5 L 134.961,-123.127 L 134.843,-123.743 L 134.649,-124.341 L 134.382,-124.909 L 134.045,-125.439
 L 133.645,-125.923 L 133.187,-126.353 L 132.679,-126.722 L 132.129,-127.024 L 131.545,-127.255 L 130.937,-127.411
 L 130.314,-127.49 L -130.314,-127.49 L -130.937,-127.411 L -131.545,-127.255 L -132.129,-127.024 L -132.679,-126.722
 L -133.187,-126.353 L -133.645,-125.923 L -134.045,-125.439 L -134.382,-124.909 L -134.649,-124.341 L -134.843,-123.743
 L -134.961,-123.127 L -135,-122.5 L -135,-117.5 L -134.961,-116.873 L -134.843,-116.257 L -134.649,-115.659
 L -134.382,-115.091 L -134.045,-114.561 L -133.645,-114.077 L -133.187,-113.647 L -132.679,-113.278 L -132.129,-112.976
 L -131.545,-112.745 L -130.937,-112.589 L -130.314,-112.51 L 130.314,-112.51 z
M -130.037,-113.181 L -130.608,-113.253 L -131.165,-113.396 L -131.699,-113.607 L -132.203,-113.884 L -132.668,-114.222
 L -133.088,-114.616 L -133.454,-115.059 L -133.762,-115.544 L -134.007,-116.065 L -134.185,-116.611 L -134.292,-117.176
 L -134.328,-117.75 L -134.328,-122.25 L -134.292,-122.824 L -134.185,-123.389 L -134.007,-123.935 L -133.762,-124.456
 L -133.454,-124.941 L -133.088,-125.384 L -132.668,-125.778 L -132.203,-126.116 L -131.699,-126.393 L -131.165,-126.604
 L -130.608,-126.747 L -130.037,-126.819 L 130.037,-126.819 L 130.608,-126.747 L 131.165,-126.604 L 131.699,-126.393
 L 132.203,-126.116 L 132.668,-125.778 L 133.088,-125.384 L 133.454,-124.941 L 133.762,-124.456 L 134.007,-123.935
 L 134.185,-123.389 L 134.292,-122.824 L 134.328,-122.25 L 134.328,-117.75 L 134.292,-117.176 L 134.185,-116.611
 L 134.007,-116.065 L 133.762,-115.544 L 133.454,-115.059 L 133.088,-114.616 L 132.668,-114.222 L 132.203,-113.884
 L 131.699,-113.607 L 131.165,-113.396 L 130.608,-113.253 L 130.037,-113.181 z
M 130.937,-88.5886 L 131.545,-88.7447 L 132.129,-88.9759 L 132.679,-89.2784 L 133.187,-89.6474 L 133.645,-90.0773
 L 134.045,-90.5611 L 134.382,-91.0912 L 134.649,-91.6594 L 134.843,-92.2566 L 134.961,-92.8733 L 135,-93.5
 L 135,-98.5 L 134.961,-99.1267 L 134.843,-99.7434 L 134.649,-100.341 L 134.382,-100.909 L 134.045,-101.439
 L 133.645,-101.923 L 133.187,-102.353 L 132.679,-102.722 L 132.129,-103.024 L 131.545,-103.255 L 130.937,-103.411
 L 130.314,-103.49 L -130.314,-103.49 L -130.937,-103.411 L -131.545,-103.255 L -132.129,-103.024 L -132.679,-102.722
 L -133.187,-102.353 L -133.645,-101.923 L -134.045,-101.439 L -134.382,-100.909 L -134.649,-100.341 L -134.843,-99.7434
 L -134.961,-99.1267 L -135,-98.5 L -135,-93.5 L -134.961,-92.8733 L -134.843,-92.2566 L -134.649,-91.6594
 L -134.382,-91.0912 L -134.045,-90.5611 L -133.645,-90.0773 L -133.187,-89.6474 L -132.679,-89.2784 L -132.129,-88.9759
 L -131.545,-88.7447 L -130.937,-88.5886 L -130.314,-88.5099 L 130.314,-88.5099 z
M -129.882,-91.6445 L -130.145,-91.6777 L -130.402,-91.7436 L -130.648,-91.8412 L -130.88,-91.9688 L -131.095,-92.1245
 L -131.288,-92.3059 L -131.457,-92.51 L -131.599,-92.7337 L -131.711,-92.9734 L -131.793,-93.2254 L -131.843,-93.4856
 L -131.86,-93.75 L -131.86,-98.25 L -131.843,-98.5144 L -131.793,-98.7746 L -131.711,-99.0266 L -131.599,-99.2663
 L -131.457,-99.49 L -131.288,-99.6941 L -131.095,-99.8755 L -130.88,-100.031 L -130.648,-100.159 L -130.402,-100.256
 L -130.145,-100.322 L -129.882,-100.355 L 129.882,-100.355 L 130.145,-100.322 L 130.402,-100.256 L 130.648,-100.159
 L 130.88,-100.031 L 131.095,-99.8755 L 131.288,-99.6941 L 131.457,-99.49 L 131.599,-99.2663 L 131.711,-99.0266
 L 131.793,-98.7746 L 131.843,-98.5144 L 131.86,-98.25 L 131.86,-93.75 L 131.843,-93.4856 L 131.793,-93.2254
 L 131.711,-92.9734 L 131.599,-92.7337 L 131.457,-92.51 L 131.288,-92.3059 L 131.095,-92.1245 L 130.88,-91.9688
 L 130.648,-91.8412 L 130.402,-91.7436 L 130.145,-91.6777 L 129.882,-91.6445 z
" stroke="black" fill="lightgray" stroke-width="0.5"/>
</svg>
