  0
SECTION
  2
BLOCKS
  0
ENDSEC
  0
SECTION
  2
ENTITIES
  0
LINE
  8
0
 10
-148.5
 20
523.441
 11
-148.187
 21
523.147
  0
LINE
  8
0
 10
-148.187
 20
523.147
 11
-147.679
 21
522.778
  0
LINE
  8
0
 10
-147.679
 20
522.778
 11
-147.129
 21
522.476
  0
LINE
  8
0
 10
-147.129
 20
522.476
 11
-146.545
 21
522.245
  0
LINE
  8
0
 10
-146.545
 20
522.245
 11
-145.937
 21
522.089
  0
LINE
  8
0
 10
-145.937
 20
522.089
 11
-145.314
 21
522.01
  0
LINE
  8
0
 10
-145.314
 20
522.01
 11
145.314
 21
522.01
  0
LINE
  8
0
 10
145.314
 20
522.01
 11
145.937
 21
522.089
  0
LINE
  8
0
 10
145.937
 20
522.089
 11
146.545
 21
522.245
  0
LINE
  8
0
 10
146.545
 20
522.245
 11
147.129
 21
522.476
  0
LINE
  8
0
 10
147.129
 20
522.476
 11
147.679
 21
522.778
  0
LINE
  8
0
 10
147.679
 20
522.778
 11
148.187
 21
523.147
  0
LINE
  8
0
 10
148.187
 20
523.147
 11
148.645
 21
523.577
  0
LINE
  8
0
 10
148.645
 20
523.577
 11
149.045
 21
524.061
  0
LINE
  8
0
 10
149.045
 20
524.061
 11
149.382
 21
524.591
  0
LINE
  8
0
 10
149.382
 20
524.591
 11
149.649
 21
525.159
  0
LINE
  8
0
 10
149.649
 20
525.159
 11
149.843
 21
525.757
  0
LINE
  8
0
 10
149.843
 20
525.757
 11
149.961
 21
526.373
  0
LINE
  8
0
 10
149.961
 20
526.373
 11
150
 21
527
  0
LINE
  8
0
 10
150
 20
527
 11
150
 21
577
  0
LINE
  8
0
 10
150
 20
577
 11
149.961
 21
577.627
  0
LINE
  8
0
 10
149.961
 20
577.627
 11
149.843
 21
578.243
  0
LINE
  8
0
 10
149.843
 20
578.243
 11
149.649
 21
578.841
  0
LINE
  8
0
 10
149.649
 20
578.841
 11
149.382
 21
579.409
  0
LINE
  8
0
 10
149.382
 20
579.409
 11
149.045
 21
579.939
  0
LINE
  8
0
 10
149.045
 20
579.939
 11
148.645
 21
580.423
  0
LINE
  8
0
 10
148.645
 20
580.423
 11
148.187
 21
580.853
  0
LINE
  8
0
 10
148.187
 20
580.853
 11
147.679
 21
581.222
  0
LINE
  8
0
 10
147.679
 20
581.222
 11
147.129
 21
581.524
  0
LINE
  8
0
 10
147.129
 20
581.524
 11
146.545
 21
581.755
  0
LINE
  8
0
 10
146.545
 20
581.755
 11
145.937
 21
581.911
  0
LINE
  8
0
 10
145.937
 20
581.911
 11
145.314
 21
581.99
  0
LINE
  8
0
 10
145.314
 20
581.99
 11
-145.314
 21
581.99
  0
LINE
  8
0
 10
-145.314
 20
581.99
 11
-145.937
 21
581.911
  0
LINE
  8
0
 10
-145.937
 20
581.911
 11
-146.545
 21
581.755
  0
LINE
  8
0
 10
-146.545
 20
581.755
 11
-147.129
 21
581.524
  0
LINE
  8
0
 10
-147.129
 20
581.524
 11
-147.679
 21
581.222
  0
LINE
  8
0
 10
-147.679
 20
581.222
 11
-148.187
 21
580.853
  0
LINE
  8
0
 10
-148.187
 20
580.853
 11
-148.5
 21
580.559
  0
LINE
  8
0
 10
-148.5
 20
580.559
 11
-148.5
 21
581.99
  0
LINE
  8
0
 10
-148.5
 20
581.99
 11
-151.5
 21
581.99
  0
LINE
  8
0
 10
-151.5
 20
581.99
 11
-151.5
 21
522.01
  0
LINE
  8
0
 10
-151.5
 20
522.01
 11
-148.5
 21
522.01
  0
LINE
  8
0
 10
-148.5
 20
522.01
 11
-148.5
 21
523.441
  0
LINE
  8
0
 10
-144.751
 20
523.508
 11
-145.25
 21
523.571
  0
LINE
  8
0
 10
-145.25
 20
523.571
 11
-145.736
 21
523.696
  0
LINE
  8
0
 10
-145.736
 20
523.696
 11
-146.203
 21
523.881
  0
LINE
  8
0
 10
-146.203
 20
523.881
 11
-146.643
 21
524.123
  0
LINE
  8
0
 10
-146.643
 20
524.123
 11
-147.05
 21
524.418
  0
LINE
  8
0
 10
-147.05
 20
524.418
 11
-147.416
 21
524.762
  0
LINE
  8
0
 10
-147.416
 20
524.762
 11
-147.736
 21
525.149
  0
LINE
  8
0
 10
-147.736
 20
525.149
 11
-148.005
 21
525.573
  0
LINE
  8
0
 10
-148.005
 20
525.573
 11
-148.219
 21
526.028
  0
LINE
  8
0
 10
-148.219
 20
526.028
 11
-148.374
 21
526.505
  0
LINE
  8
0
 10
-148.374
 20
526.505
 11
-148.468
 21
526.999
  0
LINE
  8
0
 10
-148.468
 20
526.999
 11
-148.5
 21
527.5
  0
LINE
  8
0
 10
-148.5
 20
527.5
 11
-148.5
 21
576.5
  0
LINE
  8
0
 10
-148.5
 20
576.5
 11
-148.468
 21
577.001
  0
LINE
  8
0
 10
-148.468
 20
577.001
 11
-148.374
 21
577.495
  0
LINE
  8
0
 10
-148.374
 20
577.495
 11
-148.219
 21
577.972
  0
LINE
  8
0
 10
-148.219
 20
577.972
 11
-148.005
 21
578.427
  0
LINE
  8
0
 10
-148.005
 20
578.427
 11
-147.736
 21
578.851
  0
LINE
  8
0
 10
-147.736
 20
578.851
 11
-147.416
 21
579.238
  0
LINE
  8
0
 10
-147.416
 20
579.238
 11
-147.05
 21
579.582
  0
LINE
  8
0
 10
-147.05
 20
579.582
 11
-146.643
 21
579.877
  0
LINE
  8
0
 10
-146.643
 20
579.877
 11
-146.203
 21
580.119
  0
LINE
  8
0
 10
-146.203
 20
580.119
 11
-145.736
 21
580.304
  0
LINE
  8
0
 10
-145.736
 20
580.304
 11
-145.25
 21
580.429
  0
LINE
  8
0
 10
-145.25
 20
580.429
 11
-144.751
 21
580.492
  0
LINE
  8
0
 10
-144.751
 20
580.492
 11
144.751
 21
580.492
  0
LINE
  8
0
 10
144.751
 20
580.492
 11
145.25
 21
580.429
  0
LINE
  8
0
 10
145.25
 20
580.429
 11
145.736
 21
580.304
  0
LINE
  8
0
 10
145.736
 20
580.304
 11
146.203
 21
580.119
  0
LINE
  8
0
 10
146.203
 20
580.119
 11
146.643
 21
579.877
  0
LINE
  8
0
 10
146.643
 20
579.877
 11
147.05
 21
579.582
  0
LINE
  8
0
 10
147.05
 20
579.582
 11
147.416
 21
579.238
  0
LINE
  8
0
 10
147.416
 20
579.238
 11
147.736
 21
578.851
  0
LINE
  8
0
 10
147.736
 20
578.851
 11
148.005
 21
578.427
  0
LINE
  8
0
 10
148.005
 20
578.427
 11
148.219
 21
577.972
  0
LINE
  8
0
 10
148.219
 20
577.972
 11
148.374
 21
577.495
  0
LINE
  8
0
 10
148.374
 20
577.495
 11
148.468
 21
577.001
  0
LINE
  8
0
 10
148.468
 20
577.001
 11
148.5
 21
576.5
  0
LINE
  8
0
 10
148.5
 20
576.5
 11
148.5
 21
527.5
  0
LINE
  8
0
 10
148.5
 20
527.5
 11
148.468
 21
526.999
  0
LINE
  8
0
 10
148.468
 20
526.999
 11
148.374
 21
526.505
  0
LINE
  8
0
 10
148.374
 20
526.505
 11
148.219
 21
526.028
  0
LINE
  8
0
 10
148.219
 20
526.028
 11
148.005
 21
525.573
  0
LINE
  8
0
 10
148.005
 20
525.573
 11
147.736
 21
525.149
  0
LINE
  8
0
 10
147.736
 20
525.149
 11
147.416
 21
524.762
  0
LINE
  8
0
 10
147.416
 20
524.762
 11
147.05
 21
524.418
  0
LINE
  8
0
 10
147.05
 20
524.418
 11
146.643
 21
524.123
  0
LINE
  8
0
 10
146.643
 20
524.123
 11
146.203
 21
523.881
  0
LINE
  8
0
 10
146.203
 20
523.881
 11
145.736
 21
523.696
  0
LINE
  8
0
 10
145.736
 20
523.696
 11
145.25
 21
523.571
  0
LINE
  8
0
 10
145.25
 20
523.571
 11
144.751
 21
523.508
  0
LINE
  8
0
 10
144.751
 20
523.508
 11
-144.751
 21
523.508
  0
LINE
  8
0
 10
-148.5
 20
454.441
 11
-148.187
 21
454.147
  0
LINE
  8
0
 10
-148.187
 20
454.147
 11
-147.679
 21
453.778
  0
LINE
  8
0
 10
-147.679
 20
453.778
 11
-147.129
 21
453.476
  0
LINE
  8
0
 10
-147.129
 20
453.476
 11
-146.545
 21
453.245
  0
LINE
  8
0
 10
-146.545
 20
453.245
 11
-145.937
 21
453.089
  0
LINE
  8
0
 10
-145.937
 20
453.089
 11
-145.314
 21
453.01
  0
LINE
  8
0
 10
-145.314
 20
453.01
 11
145.314
 21
453.01
  0
LINE
  8
0
 10
145.314
 20
453.01
 11
145.937
 21
453.089
  0
LINE
  8
0
 10
145.937
 20
453.089
 11
146.545
 21
453.245
  0
LINE
  8
0
 10
146.545
 20
453.245
 11
147.129
 21
453.476
  0
LINE
  8
0
 10
147.129
 20
453.476
 11
147.679
 21
453.778
  0
LINE
  8
0
 10
147.679
 20
453.778
 11
148.187
 21
454.147
  0
LINE
  8
0
 10
148.187
 20
454.147
 11
148.645
 21
454.577
  0
LINE
  8
0
 10
148.645
 20
454.577
 11
149.045
 21
455.061
  0
LINE
  8
0
 10
149.045
 20
455.061
 11
149.382
 21
455.591
  0
LINE
  8
0
 10
149.382
 20
455.591
 11
149.649
 21
456.159
  0
LINE
  8
0
 10
149.649
 20
456.159
 11
149.843
 21
456.757
  0
LINE
  8
0
 10
149.843
 20
456.757
 11
149.961
 21
457.373
  0
LINE
  8
0
 10
149.961
 20
457.373
 11
150
 21
458
  0
LINE
  8
0
 10
150
 20
458
 11
150
 21
508
  0
LINE
  8
0
 10
150
 20
508
 11
149.961
 21
508.627
  0
LINE
  8
0
 10
149.961
 20
508.627
 11
149.843
 21
509.243
  0
LINE
  8
0
 10
149.843
 20
509.243
 11
149.649
 21
509.841
  0
LINE
  8
0
 10
149.649
 20
509.841
 11
149.382
 21
510.409
  0
LINE
  8
0
 10
149.382
 20
510.409
 11
149.045
 21
510.939
  0
LINE
  8
0
 10
149.045
 20
510.939
 11
148.645
 21
511.423
  0
LINE
  8
0
 10
148.645
 20
511.423
 11
148.187
 21
511.853
  0
LINE
  8
0
 10
148.187
 20
511.853
 11
147.679
 21
512.222
  0
LINE
  8
0
 10
147.679
 20
512.222
 11
147.129
 21
512.524
  0
LINE
  8
0
 10
147.129
 20
512.524
 11
146.545
 21
512.755
  0
LINE
  8
0
 10
146.545
 20
512.755
 11
145.937
 21
512.911
  0
LINE
  8
0
 10
145.937
 20
512.911
 11
145.314
 21
512.99
  0
LINE
  8
0
 10
145.314
 20
512.99
 11
-145.314
 21
512.99
  0
LINE
  8
0
 10
-145.314
 20
512.99
 11
-145.937
 21
512.911
  0
LINE
  8
0
 10
-145.937
 20
512.911
 11
-146.545
 21
512.755
  0
LINE
  8
0
 10
-146.545
 20
512.755
 11
-147.129
 21
512.524
  0
LINE
  8
0
 10
-147.129
 20
512.524
 11
-147.679
 21
512.222
  0
LINE
  8
0
 10
-147.679
 20
512.222
 11
-148.187
 21
511.853
  0
LINE
  8
0
 10
-148.187
 20
511.853
 11
-148.5
 21
511.559
  0
LINE
  8
0
 10
-148.5
 20
511.559
 11
-148.5
 21
512.99
  0
LINE
  8
0
 10
-148.5
 20
512.99
 11
-151.5
 21
512.99
  0
LINE
  8
0
 10
-151.5
 20
512.99
 11
-151.5
 21
453.01
  0
LINE
  8
0
 10
-151.5
 20
453.01
 11
-148.5
 21
453.01
  0
LINE
  8
0
 10
-148.5
 20
453.01
 11
-148.5
 21
454.441
  0
LINE
  8
0
 10
-144.751
 20
454.508
 11
-145.25
 21
454.571
  0
LINE
  8
0
 10
-145.25
 20
454.571
 11
-145.736
 21
454.696
  0
LINE
  8
0
 10
-145.736
 20
454.696
 11
-146.203
 21
454.881
  0
LINE
  8
0
 10
-146.203
 20
454.881
 11
-146.643
 21
455.123
  0
LINE
  8
0
 10
-146.643
 20
455.123
 11
-147.05
 21
455.418
  0
LINE
  8
0
 10
-147.05
 20
455.418
 11
-147.416
 21
455.762
  0
LINE
  8
0
 10
-147.416
 20
455.762
 11
-147.736
 21
456.149
  0
LINE
  8
0
 10
-147.736
 20
456.149
 11
-148.005
 21
456.573
  0
LINE
  8
0
 10
-148.005
 20
456.573
 11
-148.219
 21
457.028
  0
LINE
  8
0
 10
-148.219
 20
457.028
 11
-148.374
 21
457.505
  0
LINE
  8
0
 10
-148.374
 20
457.505
 11
-148.468
 21
457.999
  0
LINE
  8
0
 10
-148.468
 20
457.999
 11
-148.5
 21
458.5
  0
LINE
  8
0
 10
-148.5
 20
458.5
 11
-148.5
 21
507.5
  0
LINE
  8
0
 10
-148.5
 20
507.5
 11
-148.468
 21
508.001
  0
LINE
  8
0
 10
-148.468
 20
508.001
 11
-148.374
 21
508.495
  0
LINE
  8
0
 10
-148.374
 20
508.495
 11
-148.219
 21
508.972
  0
LINE
  8
0
 10
-148.219
 20
508.972
 11
-148.005
 21
509.427
  0
LINE
  8
0
 10
-148.005
 20
509.427
 11
-147.736
 21
509.851
  0
LINE
  8
0
 10
-147.736
 20
509.851
 11
-147.416
 21
510.238
  0
LINE
  8
0
 10
-147.416
 20
510.238
 11
-147.05
 21
510.582
  0
LINE
  8
0
 10
-147.05
 20
510.582
 11
-146.643
 21
510.877
  0
LINE
  8
0
 10
-146.643
 20
510.877
 11
-146.203
 21
511.119
  0
LINE
  8
0
 10
-146.203
 20
511.119
 11
-145.736
 21
511.304
  0
LINE
  8
0
 10
-145.736
 20
511.304
 11
-145.25
 21
511.429
  0
LINE
  8
0
 10
-145.25
 20
511.429
 11
-144.751
 21
511.492
  0
LINE
  8
0
 10
-144.751
 20
511.492
 11
144.751
 21
511.492
  0
LINE
  8
0
 10
144.751
 20
511.492
 11
145.25
 21
511.429
  0
LINE
  8
0
 10
145.25
 20
511.429
 11
145.736
 21
511.304
  0
LINE
  8
0
 10
145.736
 20
511.304
 11
146.203
 21
511.119
  0
LINE
  8
0
 10
146.203
 20
511.119
 11
146.643
 21
510.877
  0
LINE
  8
0
 10
146.643
 20
510.877
 11
147.05
 21
510.582
  0
LINE
  8
0
 10
147.05
 20
510.582
 11
147.416
 21
510.238
  0
LINE
  8
0
 10
147.416
 20
510.238
 11
147.736
 21
509.851
  0
LINE
  8
0
 10
147.736
 20
509.851
 11
148.005
 21
509.427
  0
LINE
  8
0
 10
148.005
 20
509.427
 11
148.219
 21
508.972
  0
LINE
  8
0
 10
148.219
 20
508.972
 11
148.374
 21
508.495
  0
LINE
  8
0
 10
148.374
 20
508.495
 11
148.468
 21
508.001
  0
LINE
  8
0
 10
148.468
 20
508.001
 11
148.5
 21
507.5
  0
LINE
  8
0
 10
148.5
 20
507.5
 11
148.5
 21
458.5
  0
LINE
  8
0
 10
148.5
 20
458.5
 11
148.468
 21
457.999
  0
LINE
  8
0
 10
148.468
 20
457.999
 11
148.374
 21
457.505
  0
LINE
  8
0
 10
148.374
 20
457.505
 11
148.219
 21
457.028
  0
LINE
  8
0
 10
148.219
 20
457.028
 11
148.005
 21
456.573
  0
LINE
  8
0
 10
148.005
 20
456.573
 11
147.736
 21
456.149
  0
LINE
  8
0
 10
147.736
 20
456.149
 11
147.416
 21
455.762
  0
LINE
  8
0
 10
147.416
 20
455.762
 11
147.05
 21
455.418
  0
LINE
  8
0
 10
147.05
 20
455.418
 11
146.643
 21
455.123
  0
LINE
  8
0
 10
146.643
 20
455.123
 11
146.203
 21
454.881
  0
LINE
  8
0
 10
146.203
 20
454.881
 11
145.736
 21
454.696
  0
LINE
  8
0
 10
145.736
 20
454.696
 11
145.25
 21
454.571
  0
LINE
  8
0
 10
145.25
 20
454.571
 11
144.751
 21
454.508
  0
LINE
  8
0
 10
144.751
 20
454.508
 11
-144.751
 21
454.508
  0
LINE
  8
0
 10
-148.5
 20
385.441
 11
-148.187
 21
385.147
  0
LINE
  8
0
 10
-148.187
 20
385.147
 11
-147.679
 21
384.778
  0
LINE
  8
0
 10
-147.679
 20
384.778
 11
-147.129
 21
384.476
  0
LINE
  8
0
 10
-147.129
 20
384.476
 11
-146.545
 21
384.245
  0
LINE
  8
0
 10
-146.545
 20
384.245
 11
-145.937
 21
384.089
  0
LINE
  8
0
 10
-145.937
 20
384.089
 11
-145.314
 21
384.01
  0
LINE
  8
0
 10
-145.314
 20
384.01
 11
145.314
 21
384.01
  0
LINE
  8
0
 10
145.314
 20
384.01
 11
145.937
 21
384.089
  0
LINE
  8
0
 10
145.937
 20
384.089
 11
146.545
 21
384.245
  0
LINE
  8
0
 10
146.545
 20
384.245
 11
147.129
 21
384.476
  0
LINE
  8
0
 10
147.129
 20
384.476
 11
147.679
 21
384.778
  0
LINE
  8
0
 10
147.679
 20
384.778
 11
148.187
 21
385.147
  0
LINE
  8
0
 10
148.187
 20
385.147
 11
148.645
 21
385.577
  0
LINE
  8
0
 10
148.645
 20
385.577
 11
149.045
 21
386.061
  0
LINE
  8
0
 10
149.045
 20
386.061
 11
149.382
 21
386.591
  0
LINE
  8
0
 10
149.382
 20
386.591
 11
149.649
 21
387.159
  0
LINE
  8
0
 10
149.649
 20
387.159
 11
149.843
 21
387.757
  0
LINE
  8
0
 10
149.843
 20
387.757
 11
149.961
 21
388.373
  0
LINE
  8
0
 10
149.961
 20
388.373
 11
150
 21
389
  0
LINE
  8
0
 10
150
 20
389
 11
150
 21
439
  0
LINE
  8
0
 10
150
 20
439
 11
149.961
 21
439.627
  0
LINE
  8
0
 10
149.961
 20
439.627
 11
149.843
 21
440.243
  0
LINE
  8
0
 10
149.843
 20
440.243
 11
149.649
 21
440.841
  0
LINE
  8
0
 10
149.649
 20
440.841
 11
149.382
 21
441.409
  0
LINE
  8
0
 10
149.382
 20
441.409
 11
149.045
 21
441.939
  0
LINE
  8
0
 10
149.045
 20
441.939
 11
148.645
 21
442.423
  0
LINE
  8
0
 10
148.645
 20
442.423
 11
148.187
 21
442.853
  0
LINE
  8
0
 10
148.187
 20
442.853
 11
147.679
 21
443.222
  0
LINE
  8
0
 10
147.679
 20
443.222
 11
147.129
 21
443.524
  0
LINE
  8
0
 10
147.129
 20
443.524
 11
146.545
 21
443.755
  0
LINE
  8
0
 10
146.545
 20
443.755
 11
145.937
 21
443.911
  0
LINE
  8
0
 10
145.937
 20
443.911
 11
145.314
 21
443.99
  0
LINE
  8
0
 10
145.314
 20
443.99
 11
-145.314
 21
443.99
  0
LINE
  8
0
 10
-145.314
 20
443.99
 11
-145.937
 21
443.911
  0
LINE
  8
0
 10
-145.937
 20
443.911
 11
-146.545
 21
443.755
  0
LINE
  8
0
 10
-146.545
 20
443.755
 11
-147.129
 21
443.524
  0
LINE
  8
0
 10
-147.129
 20
443.524
 11
-147.679
 21
443.222
  0
LINE
  8
0
 10
-147.679
 20
443.222
 11
-148.187
 21
442.853
  0
LINE
  8
0
 10
-148.187
 20
442.853
 11
-148.5
 21
442.559
  0
LINE
  8
0
 10
-148.5
 20
442.559
 11
-148.5
 21
443.99
  0
LINE
  8
0
 10
-148.5
 20
443.99
 11
-151.5
 21
443.99
  0
LINE
  8
0
 10
-151.5
 20
443.99
 11
-151.5
 21
384.01
  0
LINE
  8
0
 10
-151.5
 20
384.01
 11
-148.5
 21
384.01
  0
LINE
  8
0
 10
-148.5
 20
384.01
 11
-148.5
 21
385.441
  0
LINE
  8
0
 10
-144.743
 20
385.635
 11
-145.226
 21
385.696
  0
LINE
  8
0
 10
-145.226
 20
385.696
 11
-145.697
 21
385.817
  0
LINE
  8
0
 10
-145.697
 20
385.817
 11
-146.149
 21
385.996
  0
LINE
  8
0
 10
-146.149
 20
385.996
 11
-146.575
 21
386.23
  0
LINE
  8
0
 10
-146.575
 20
386.23
 11
-146.969
 21
386.516
  0
LINE
  8
0
 10
-146.969
 20
386.516
 11
-147.323
 21
386.849
  0
LINE
  8
0
 10
-147.323
 20
386.849
 11
-147.633
 21
387.224
  0
LINE
  8
0
 10
-147.633
 20
387.224
 11
-147.894
 21
387.634
  0
LINE
  8
0
 10
-147.894
 20
387.634
 11
-148.101
 21
388.074
  0
LINE
  8
0
 10
-148.101
 20
388.074
 11
-148.251
 21
388.537
  0
LINE
  8
0
 10
-148.251
 20
388.537
 11
-148.342
 21
389.015
  0
LINE
  8
0
 10
-148.342
 20
389.015
 11
-148.373
 21
389.5
  0
LINE
  8
0
 10
-148.373
 20
389.5
 11
-148.373
 21
438.5
  0
LINE
  8
0
 10
-148.373
 20
438.5
 11
-148.342
 21
438.985
  0
LINE
  8
0
 10
-148.342
 20
438.985
 11
-148.251
 21
439.463
  0
LINE
  8
0
 10
-148.251
 20
439.463
 11
-148.101
 21
439.926
  0
LINE
  8
0
 10
-148.101
 20
439.926
 11
-147.894
 21
440.366
  0
LINE
  8
0
 10
-147.894
 20
440.366
 11
-147.633
 21
440.776
  0
LINE
  8
0
 10
-147.633
 20
440.776
 11
-147.323
 21
441.151
  0
LINE
  8
0
 10
-147.323
 20
441.151
 11
-146.969
 21
441.484
  0
LINE
  8
0
 10
-146.969
 20
441.484
 11
-146.575
 21
441.77
  0
LINE
  8
0
 10
-146.575
 20
441.77
 11
-146.149
 21
442.004
  0
LINE
  8
0
 10
-146.149
 20
442.004
 11
-145.697
 21
442.183
  0
LINE
  8
0
 10
-145.697
 20
442.183
 11
-145.226
 21
442.304
  0
LINE
  8
0
 10
-145.226
 20
442.304
 11
-144.743
 21
442.365
  0
LINE
  8
0
 10
-144.743
 20
442.365
 11
144.743
 21
442.365
  0
LINE
  8
0
 10
144.743
 20
442.365
 11
145.226
 21
442.304
  0
LINE
  8
0
 10
145.226
 20
442.304
 11
145.697
 21
442.183
  0
LINE
  8
0
 10
145.697
 20
442.183
 11
146.149
 21
442.004
  0
LINE
  8
0
 10
146.149
 20
442.004
 11
146.575
 21
441.77
  0
LINE
  8
0
 10
146.575
 20
441.77
 11
146.969
 21
441.484
  0
LINE
  8
0
 10
146.969
 20
441.484
 11
147.323
 21
441.151
  0
LINE
  8
0
 10
147.323
 20
441.151
 11
147.633
 21
440.776
  0
LINE
  8
0
 10
147.633
 20
440.776
 11
147.894
 21
440.366
  0
LINE
  8
0
 10
147.894
 20
440.366
 11
148.101
 21
439.926
  0
LINE
  8
0
 10
148.101
 20
439.926
 11
148.251
 21
439.463
  0
LINE
  8
0
 10
148.251
 20
439.463
 11
148.342
 21
438.985
  0
LINE
  8
0
 10
148.342
 20
438.985
 11
148.373
 21
438.5
  0
LINE
  8
0
 10
148.373
 20
438.5
 11
148.373
 21
389.5
  0
LINE
  8
0
 10
148.373
 20
389.5
 11
148.342
 21
389.015
  0
LINE
  8
0
 10
148.342
 20
389.015
 11
148.251
 21
388.537
  0
LINE
  8
0
 10
148.251
 20
388.537
 11
148.101
 21
388.074
  0
LINE
  8
0
 10
148.101
 20
388.074
 11
147.894
 21
387.634
  0
LINE
  8
0
 10
147.894
 20
387.634
 11
147.633
 21
387.224
  0
LINE
  8
0
 10
147.633
 20
387.224
 11
147.323
 21
386.849
  0
LINE
  8
0
 10
147.323
 20
386.849
 11
146.969
 21
386.516
  0
LINE
  8
0
 10
146.969
 20
386.516
 11
146.575
 21
386.23
  0
LINE
  8
0
 10
146.575
 20
386.23
 11
146.149
 21
385.996
  0
LINE
  8
0
 10
146.149
 20
385.996
 11
145.697
 21
385.817
  0
LINE
  8
0
 10
145.697
 20
385.817
 11
145.226
 21
385.696
  0
LINE
  8
0
 10
145.226
 20
385.696
 11
144.743
 21
385.635
  0
LINE
  8
0
 10
144.743
 20
385.635
 11
-144.743
 21
385.635
  0
LINE
  8
0
 10
145.937
 20
315.089
 11
146.545
 21
315.245
  0
LINE
  8
0
 10
146.545
 20
315.245
 11
147.129
 21
315.476
  0
LINE
  8
0
 10
147.129
 20
315.476
 11
147.679
 21
315.778
  0
LINE
  8
0
 10
147.679
 20
315.778
 11
148.187
 21
316.147
  0
LINE
  8
0
 10
148.187
 20
316.147
 11
148.645
 21
316.577
  0
LINE
  8
0
 10
148.645
 20
316.577
 11
149.045
 21
317.061
  0
LINE
  8
0
 10
149.045
 20
317.061
 11
149.382
 21
317.591
  0
LINE
  8
0
 10
149.382
 20
317.591
 11
149.649
 21
318.159
  0
LINE
  8
0
 10
149.649
 20
318.159
 11
149.843
 21
318.757
  0
LINE
  8
0
 10
149.843
 20
318.757
 11
149.961
 21
319.373
  0
LINE
  8
0
 10
149.961
 20
319.373
 11
150
 21
320
  0
LINE
  8
0
 10
150
 20
320
 11
150
 21
370
  0
LINE
  8
0
 10
150
 20
370
 11
149.961
 21
370.627
  0
LINE
  8
0
 10
149.961
 20
370.627
 11
149.843
 21
371.243
  0
LINE
  8
0
 10
149.843
 20
371.243
 11
149.649
 21
371.841
  0
LINE
  8
0
 10
149.649
 20
371.841
 11
149.382
 21
372.409
  0
LINE
  8
0
 10
149.382
 20
372.409
 11
149.045
 21
372.939
  0
LINE
  8
0
 10
149.045
 20
372.939
 11
148.645
 21
373.423
  0
LINE
  8
0
 10
148.645
 20
373.423
 11
148.187
 21
373.853
  0
LINE
  8
0
 10
148.187
 20
373.853
 11
147.679
 21
374.222
  0
LINE
  8
0
 10
147.679
 20
374.222
 11
147.129
 21
374.524
  0
LINE
  8
0
 10
147.129
 20
374.524
 11
146.545
 21
374.755
  0
LINE
  8
0
 10
146.545
 20
374.755
 11
145.937
 21
374.911
  0
LINE
  8
0
 10
145.937
 20
374.911
 11
145.314
 21
374.99
  0
LINE
  8
0
 10
145.314
 20
374.99
 11
-145.314
 21
374.99
  0
LINE
  8
0
 10
-145.314
 20
374.99
 11
-145.937
 21
374.911
  0
LINE
  8
0
 10
-145.937
 20
374.911
 11
-146.545
 21
374.755
  0
LINE
  8
0
 10
-146.545
 20
374.755
 11
-147.129
 21
374.524
  0
LINE
  8
0
 10
-147.129
 20
374.524
 11
-147.679
 21
374.222
  0
LINE
  8
0
 10
-147.679
 20
374.222
 11
-148.187
 21
373.853
  0
LINE
  8
0
 10
-148.187
 20
373.853
 11
-148.5
 21
373.559
  0
LINE
  8
0
 10
-148.5
 20
373.559
 11
-148.5
 21
374.615
  0
LINE
  8
0
 10
-148.5
 20
374.615
 11
-151.5
 21
374.615
  0
LINE
  8
0
 10
-151.5
 20
374.615
 11
-151.5
 21
315.385
  0
LINE
  8
0
 10
-151.5
 20
315.385
 11
-148.5
 21
315.385
  0
LINE
  8
0
 10
-148.5
 20
315.385
 11
-148.5
 21
316.441
  0
LINE
  8
0
 10
-148.5
 20
316.441
 11
-148.187
 21
316.147
  0
LINE
  8
0
 10
-148.187
 20
316.147
 11
-147.679
 21
315.778
  0
LINE
  8
0
 10
-147.679
 20
315.778
 11
-147.129
 21
315.476
  0
LINE
  8
0
 10
-147.129
 20
315.476
 11
-146.545
 21
315.245
  0
LINE
  8
0
 10
-146.545
 20
315.245
 11
-145.937
 21
315.089
  0
LINE
  8
0
 10
-145.937
 20
315.089
 11
-145.314
 21
315.01
  0
LINE
  8
0
 10
-145.314
 20
315.01
 11
145.314
 21
315.01
  0
LINE
  8
0
 10
145.314
 20
315.01
 11
145.937
 21
315.089
  0
LINE
  8
0
 10
-142.651
 20
365.105
 11
-142.95
 21
365.143
  0
LINE
  8
0
 10
-142.95
 20
365.143
 11
-143.242
 21
365.217
  0
LINE
  8
0
 10
-143.242
 20
365.217
 11
-143.522
 21
365.328
  0
LINE
  8
0
 10
-143.522
 20
365.328
 11
-143.786
 21
365.474
  0
LINE
  8
0
 10
-143.786
 20
365.474
 11
-144.03
 21
365.651
  0
LINE
  8
0
 10
-144.03
 20
365.651
 11
-144.25
 21
365.857
  0
LINE
  8
0
 10
-144.25
 20
365.857
 11
-144.442
 21
366.089
  0
LINE
  8
0
 10
-144.442
 20
366.089
 11
-144.603
 21
366.344
  0
LINE
  8
0
 10
-144.603
 20
366.344
 11
-144.731
 21
366.617
  0
LINE
  8
0
 10
-144.731
 20
366.617
 11
-144.825
 21
366.903
  0
LINE
  8
0
 10
-144.825
 20
366.903
 11
-144.881
 21
367.199
  0
LINE
  8
0
 10
-144.881
 20
367.199
 11
-144.9
 21
367.5
  0
LINE
  8
0
 10
-144.9
 20
367.5
 11
-144.881
 21
367.801
  0
LINE
  8
0
 10
-144.881
 20
367.801
 11
-144.825
 21
368.097
  0
LINE
  8
0
 10
-144.825
 20
368.097
 11
-144.731
 21
368.383
  0
LINE
  8
0
 10
-144.731
 20
368.383
 11
-144.603
 21
368.656
  0
LINE
  8
0
 10
-144.603
 20
368.656
 11
-144.442
 21
368.911
  0
LINE
  8
0
 10
-144.442
 20
368.911
 11
-144.25
 21
369.143
  0
LINE
  8
0
 10
-144.25
 20
369.143
 11
-144.03
 21
369.349
  0
LINE
  8
0
 10
-144.03
 20
369.349
 11
-143.786
 21
369.526
  0
LINE
  8
0
 10
-143.786
 20
369.526
 11
-143.522
 21
369.672
  0
LINE
  8
0
 10
-143.522
 20
369.672
 11
-143.242
 21
369.783
  0
LINE
  8
0
 10
-143.242
 20
369.783
 11
-142.95
 21
369.857
  0
LINE
  8
0
 10
-142.95
 20
369.857
 11
-142.651
 21
369.895
  0
LINE
  8
0
 10
-142.651
 20
369.895
 11
-142.349
 21
369.895
  0
LINE
  8
0
 10
-142.349
 20
369.895
 11
-142.05
 21
369.857
  0
LINE
  8
0
 10
-142.05
 20
369.857
 11
-141.758
 21
369.783
  0
LINE
  8
0
 10
-141.758
 20
369.783
 11
-141.478
 21
369.672
  0
LINE
  8
0
 10
-141.478
 20
369.672
 11
-141.214
 21
369.526
  0
LINE
  8
0
 10
-141.214
 20
369.526
 11
-140.97
 21
369.349
  0
LINE
  8
0
 10
-140.97
 20
369.349
 11
-140.75
 21
369.143
  0
LINE
  8
0
 10
-140.75
 20
369.143
 11
-140.558
 21
368.911
  0
LINE
  8
0
 10
-140.558
 20
368.911
 11
-140.397
 21
368.656
  0
LINE
  8
0
 10
-140.397
 20
368.656
 11
-140.269
 21
368.383
  0
LINE
  8
0
 10
-140.269
 20
368.383
 11
-140.175
 21
368.097
  0
LINE
  8
0
 10
-140.175
 20
368.097
 11
-140.119
 21
367.801
  0
LINE
  8
0
 10
-140.119
 20
367.801
 11
-140.1
 21
367.5
  0
LINE
  8
0
 10
-140.1
 20
367.5
 11
-140.119
 21
367.199
  0
LINE
  8
0
 10
-140.119
 20
367.199
 11
-140.175
 21
366.903
  0
LINE
  8
0
 10
-140.175
 20
366.903
 11
-140.269
 21
366.617
  0
LINE
  8
0
 10
-140.269
 20
366.617
 11
-140.397
 21
366.344
  0
LINE
  8
0
 10
-140.397
 20
366.344
 11
-140.558
 21
366.089
  0
LINE
  8
0
 10
-140.558
 20
366.089
 11
-140.75
 21
365.857
  0
LINE
  8
0
 10
-140.75
 20
365.857
 11
-140.97
 21
365.651
  0
LINE
  8
0
 10
-140.97
 20
365.651
 11
-141.214
 21
365.474
  0
LINE
  8
0
 10
-141.214
 20
365.474
 11
-141.478
 21
365.328
  0
LINE
  8
0
 10
-141.478
 20
365.328
 11
-141.758
 21
365.217
  0
LINE
  8
0
 10
-141.758
 20
365.217
 11
-142.05
 21
365.143
  0
LINE
  8
0
 10
-142.05
 20
365.143
 11
-142.349
 21
365.105
  0
LINE
  8
0
 10
-142.349
 20
365.105
 11
-142.651
 21
365.105
  0
LINE
  8
0
 10
142.349
 20
365.105
 11
142.05
 21
365.143
  0
LINE
  8
0
 10
142.05
 20
365.143
 11
141.758
 21
365.217
  0
LINE
  8
0
 10
141.758
 20
365.217
 11
141.478
 21
365.328
  0
LINE
  8
0
 10
141.478
 20
365.328
 11
141.214
 21
365.474
  0
LINE
  8
0
 10
141.214
 20
365.474
 11
140.97
 21
365.651
  0
LINE
  8
0
 10
140.97
 20
365.651
 11
140.75
 21
365.857
  0
LINE
  8
0
 10
140.75
 20
365.857
 11
140.558
 21
366.089
  0
LINE
  8
0
 10
140.558
 20
366.089
 11
140.397
 21
366.344
  0
LINE
  8
0
 10
140.397
 20
366.344
 11
140.269
 21
366.617
  0
LINE
  8
0
 10
140.269
 20
366.617
 11
140.175
 21
366.903
  0
LINE
  8
0
 10
140.175
 20
366.903
 11
140.119
 21
367.199
  0
LINE
  8
0
 10
140.119
 20
367.199
 11
140.1
 21
367.5
  0
LINE
  8
0
 10
140.1
 20
367.5
 11
140.119
 21
367.801
  0
LINE
  8
0
 10
140.119
 20
367.801
 11
140.175
 21
368.097
  0
LINE
  8
0
 10
140.175
 20
368.097
 11
140.269
 21
368.383
  0
LINE
  8
0
 10
140.269
 20
368.383
 11
140.397
 21
368.656
  0
LINE
  8
0
 10
140.397
 20
368.656
 11
140.558
 21
368.911
  0
LINE
  8
0
 10
140.558
 20
368.911
 11
140.75
 21
369.143
  0
LINE
  8
0
 10
140.75
 20
369.143
 11
140.97
 21
369.349
  0
LINE
  8
0
 10
140.97
 20
369.349
 11
141.214
 21
369.526
  0
LINE
  8
0
 10
141.214
 20
369.526
 11
141.478
 21
369.672
  0
LINE
  8
0
 10
141.478
 20
369.672
 11
141.758
 21
369.783
  0
LINE
  8
0
 10
141.758
 20
369.783
 11
142.05
 21
369.857
  0
LINE
  8
0
 10
142.05
 20
369.857
 11
142.349
 21
369.895
  0
LINE
  8
0
 10
142.349
 20
369.895
 11
142.651
 21
369.895
  0
LINE
  8
0
 10
142.651
 20
369.895
 11
142.95
 21
369.857
  0
LINE
  8
0
 10
142.95
 20
369.857
 11
143.242
 21
369.783
  0
LINE
  8
0
 10
143.242
 20
369.783
 11
143.522
 21
369.672
  0
LINE
  8
0
 10
143.522
 20
369.672
 11
143.786
 21
369.526
  0
LINE
  8
0
 10
143.786
 20
369.526
 11
144.03
 21
369.349
  0
LINE
  8
0
 10
144.03
 20
369.349
 11
144.25
 21
369.143
  0
LINE
  8
0
 10
144.25
 20
369.143
 11
144.442
 21
368.911
  0
LINE
  8
0
 10
144.442
 20
368.911
 11
144.603
 21
368.656
  0
LINE
  8
0
 10
144.603
 20
368.656
 11
144.731
 21
368.383
  0
LINE
  8
0
 10
144.731
 20
368.383
 11
144.825
 21
368.097
  0
LINE
  8
0
 10
144.825
 20
368.097
 11
144.881
 21
367.801
  0
LINE
  8
0
 10
144.881
 20
367.801
 11
144.9
 21
367.5
  0
LINE
  8
0
 10
144.9
 20
367.5
 11
144.881
 21
367.199
  0
LINE
  8
0
 10
144.881
 20
367.199
 11
144.825
 21
366.903
  0
LINE
  8
0
 10
144.825
 20
366.903
 11
144.731
 21
366.617
  0
LINE
  8
0
 10
144.731
 20
366.617
 11
144.603
 21
366.344
  0
LINE
  8
0
 10
144.603
 20
366.344
 11
144.442
 21
366.089
  0
LINE
  8
0
 10
144.442
 20
366.089
 11
144.25
 21
365.857
  0
LINE
  8
0
 10
144.25
 20
365.857
 11
144.03
 21
365.651
  0
LINE
  8
0
 10
144.03
 20
365.651
 11
143.786
 21
365.474
  0
LINE
  8
0
 10
143.786
 20
365.474
 11
143.522
 21
365.328
  0
LINE
  8
0
 10
143.522
 20
365.328
 11
143.242
 21
365.217
  0
LINE
  8
0
 10
143.242
 20
365.217
 11
142.95
 21
365.143
  0
LINE
  8
0
 10
142.95
 20
365.143
 11
142.651
 21
365.105
  0
LINE
  8
0
 10
142.651
 20
365.105
 11
142.349
 21
365.105
  0
LINE
  8
0
 10
-142.651
 20
320.105
 11
-142.95
 21
320.143
  0
LINE
  8
0
 10
-142.95
 20
320.143
 11
-143.242
 21
320.217
  0
LINE
  8
0
 10
-143.242
 20
320.217
 11
-143.522
 21
320.328
  0
LINE
  8
0
 10
-143.522
 20
320.328
 11
-143.786
 21
320.474
  0
LINE
  8
0
 10
-143.786
 20
320.474
 11
-144.03
 21
320.651
  0
LINE
  8
0
 10
-144.03
 20
320.651
 11
-144.25
 21
320.857
  0
LINE
  8
0
 10
-144.25
 20
320.857
 11
-144.442
 21
321.089
  0
LINE
  8
0
 10
-144.442
 20
321.089
 11
-144.603
 21
321.344
  0
LINE
  8
0
 10
-144.603
 20
321.344
 11
-144.731
 21
321.617
  0
LINE
  8
0
 10
-144.731
 20
321.617
 11
-144.825
 21
321.903
  0
LINE
  8
0
 10
-144.825
 20
321.903
 11
-144.881
 21
322.199
  0
LINE
  8
0
 10
-144.881
 20
322.199
 11
-144.9
 21
322.5
  0
LINE
  8
0
 10
-144.9
 20
322.5
 11
-144.881
 21
322.801
  0
LINE
  8
0
 10
-144.881
 20
322.801
 11
-144.825
 21
323.097
  0
LINE
  8
0
 10
-144.825
 20
323.097
 11
-144.731
 21
323.383
  0
LINE
  8
0
 10
-144.731
 20
323.383
 11
-144.603
 21
323.656
  0
LINE
  8
0
 10
-144.603
 20
323.656
 11
-144.442
 21
323.911
  0
LINE
  8
0
 10
-144.442
 20
323.911
 11
-144.25
 21
324.143
  0
LINE
  8
0
 10
-144.25
 20
324.143
 11
-144.03
 21
324.349
  0
LINE
  8
0
 10
-144.03
 20
324.349
 11
-143.786
 21
324.526
  0
LINE
  8
0
 10
-143.786
 20
324.526
 11
-143.522
 21
324.672
  0
LINE
  8
0
 10
-143.522
 20
324.672
 11
-143.242
 21
324.783
  0
LINE
  8
0
 10
-143.242
 20
324.783
 11
-142.95
 21
324.857
  0
LINE
  8
0
 10
-142.95
 20
324.857
 11
-142.651
 21
324.895
  0
LINE
  8
0
 10
-142.651
 20
324.895
 11
-142.349
 21
324.895
  0
LINE
  8
0
 10
-142.349
 20
324.895
 11
-142.05
 21
324.857
  0
LINE
  8
0
 10
-142.05
 20
324.857
 11
-141.758
 21
324.783
  0
LINE
  8
0
 10
-141.758
 20
324.783
 11
-141.478
 21
324.672
  0
LINE
  8
0
 10
-141.478
 20
324.672
 11
-141.214
 21
324.526
  0
LINE
  8
0
 10
-141.214
 20
324.526
 11
-140.97
 21
324.349
  0
LINE
  8
0
 10
-140.97
 20
324.349
 11
-140.75
 21
324.143
  0
LINE
  8
0
 10
-140.75
 20
324.143
 11
-140.558
 21
323.911
  0
LINE
  8
0
 10
-140.558
 20
323.911
 11
-140.397
 21
323.656
  0
LINE
  8
0
 10
-140.397
 20
323.656
 11
-140.269
 21
323.383
  0
LINE
  8
0
 10
-140.269
 20
323.383
 11
-140.175
 21
323.097
  0
LINE
  8
0
 10
-140.175
 20
323.097
 11
-140.119
 21
322.801
  0
LINE
  8
0
 10
-140.119
 20
322.801
 11
-140.1
 21
322.5
  0
LINE
  8
0
 10
-140.1
 20
322.5
 11
-140.119
 21
322.199
  0
LINE
  8
0
 10
-140.119
 20
322.199
 11
-140.175
 21
321.903
  0
LINE
  8
0
 10
-140.175
 20
321.903
 11
-140.269
 21
321.617
  0
LINE
  8
0
 10
-140.269
 20
321.617
 11
-140.397
 21
321.344
  0
LINE
  8
0
 10
-140.397
 20
321.344
 11
-140.558
 21
321.089
  0
LINE
  8
0
 10
-140.558
 20
321.089
 11
-140.75
 21
320.857
  0
LINE
  8
0
 10
-140.75
 20
320.857
 11
-140.97
 21
320.651
  0
LINE
  8
0
 10
-140.97
 20
320.651
 11
-141.214
 21
320.474
  0
LINE
  8
0
 10
-141.214
 20
320.474
 11
-141.478
 21
320.328
  0
LINE
  8
0
 10
-141.478
 20
320.328
 11
-141.758
 21
320.217
  0
LINE
  8
0
 10
-141.758
 20
320.217
 11
-142.05
 21
320.143
  0
LINE
  8
0
 10
-142.05
 20
320.143
 11
-142.349
 21
320.105
  0
LINE
  8
0
 10
-142.349
 20
320.105
 11
-142.651
 21
320.105
  0
LINE
  8
0
 10
142.349
 20
320.105
 11
142.05
 21
320.143
  0
LINE
  8
0
 10
142.05
 20
320.143
 11
141.758
 21
320.217
  0
LINE
  8
0
 10
141.758
 20
320.217
 11
141.478
 21
320.328
  0
LINE
  8
0
 10
141.478
 20
320.328
 11
141.214
 21
320.474
  0
LINE
  8
0
 10
141.214
 20
320.474
 11
140.97
 21
320.651
  0
LINE
  8
0
 10
140.97
 20
320.651
 11
140.75
 21
320.857
  0
LINE
  8
0
 10
140.75
 20
320.857
 11
140.558
 21
321.089
  0
LINE
  8
0
 10
140.558
 20
321.089
 11
140.397
 21
321.344
  0
LINE
  8
0
 10
140.397
 20
321.344
 11
140.269
 21
321.617
  0
LINE
  8
0
 10
140.269
 20
321.617
 11
140.175
 21
321.903
  0
LINE
  8
0
 10
140.175
 20
321.903
 11
140.119
 21
322.199
  0
LINE
  8
0
 10
140.119
 20
322.199
 11
140.1
 21
322.5
  0
LINE
  8
0
 10
140.1
 20
322.5
 11
140.119
 21
322.801
  0
LINE
  8
0
 10
140.119
 20
322.801
 11
140.175
 21
323.097
  0
LINE
  8
0
 10
140.175
 20
323.097
 11
140.269
 21
323.383
  0
LINE
  8
0
 10
140.269
 20
323.383
 11
140.397
 21
323.656
  0
LINE
  8
0
 10
140.397
 20
323.656
 11
140.558
 21
323.911
  0
LINE
  8
0
 10
140.558
 20
323.911
 11
140.75
 21
324.143
  0
LINE
  8
0
 10
140.75
 20
324.143
 11
140.97
 21
324.349
  0
LINE
  8
0
 10
140.97
 20
324.349
 11
141.214
 21
324.526
  0
LINE
  8
0
 10
141.214
 20
324.526
 11
141.478
 21
324.672
  0
LINE
  8
0
 10
141.478
 20
324.672
 11
141.758
 21
324.783
  0
LINE
  8
0
 10
141.758
 20
324.783
 11
142.05
 21
324.857
  0
LINE
  8
0
 10
142.05
 20
324.857
 11
142.349
 21
324.895
  0
LINE
  8
0
 10
142.349
 20
324.895
 11
142.651
 21
324.895
  0
LINE
  8
0
 10
142.651
 20
324.895
 11
142.95
 21
324.857
  0
LINE
  8
0
 10
142.95
 20
324.857
 11
143.242
 21
324.783
  0
LINE
  8
0
 10
143.242
 20
324.783
 11
143.522
 21
324.672
  0
LINE
  8
0
 10
143.522
 20
324.672
 11
143.786
 21
324.526
  0
LINE
  8
0
 10
143.786
 20
324.526
 11
144.03
 21
324.349
  0
LINE
  8
0
 10
144.03
 20
324.349
 11
144.25
 21
324.143
  0
LINE
  8
0
 10
144.25
 20
324.143
 11
144.442
 21
323.911
  0
LINE
  8
0
 10
144.442
 20
323.911
 11
144.603
 21
323.656
  0
LINE
  8
0
 10
144.603
 20
323.656
 11
144.731
 21
323.383
  0
LINE
  8
0
 10
144.731
 20
323.383
 11
144.825
 21
323.097
  0
LINE
  8
0
 10
144.825
 20
323.097
 11
144.881
 21
322.801
  0
LINE
  8
0
 10
144.881
 20
322.801
 11
144.9
 21
322.5
  0
LINE
  8
0
 10
144.9
 20
322.5
 11
144.881
 21
322.199
  0
LINE
  8
0
 10
144.881
 20
322.199
 11
144.825
 21
321.903
  0
LINE
  8
0
 10
144.825
 20
321.903
 11
144.731
 21
321.617
  0
LINE
  8
0
 10
144.731
 20
321.617
 11
144.603
 21
321.344
  0
LINE
  8
0
 10
144.603
 20
321.344
 11
144.442
 21
321.089
  0
LINE
  8
0
 10
144.442
 20
321.089
 11
144.25
 21
320.857
  0
LINE
  8
0
 10
144.25
 20
320.857
 11
144.03
 21
320.651
  0
LINE
  8
0
 10
144.03
 20
320.651
 11
143.786
 21
320.474
  0
LINE
  8
0
 10
143.786
 20
320.474
 11
143.522
 21
320.328
  0
LINE
  8
0
 10
143.522
 20
320.328
 11
143.242
 21
320.217
  0
LINE
  8
0
 10
143.242
 20
320.217
 11
142.95
 21
320.143
  0
LINE
  8
0
 10
142.95
 20
320.143
 11
142.651
 21
320.105
  0
LINE
  8
0
 10
142.651
 20
320.105
 11
142.349
 21
320.105
  0
LINE
  8
0
 10
145.937
 20
246.089
 11
146.545
 21
246.245
  0
LINE
  8
0
 10
146.545
 20
246.245
 11
147.129
 21
246.476
  0
LINE
  8
0
 10
147.129
 20
246.476
 11
147.679
 21
246.778
  0
LINE
  8
0
 10
147.679
 20
246.778
 11
148.187
 21
247.147
  0
LINE
  8
0
 10
148.187
 20
247.147
 11
148.645
 21
247.577
  0
LINE
  8
0
 10
148.645
 20
247.577
 11
149.045
 21
248.061
  0
LINE
  8
0
 10
149.045
 20
248.061
 11
149.382
 21
248.591
  0
LINE
  8
0
 10
149.382
 20
248.591
 11
149.649
 21
249.159
  0
LINE
  8
0
 10
149.649
 20
249.159
 11
149.843
 21
249.757
  0
LINE
  8
0
 10
149.843
 20
249.757
 11
149.961
 21
250.373
  0
LINE
  8
0
 10
149.961
 20
250.373
 11
150
 21
251
  0
LINE
  8
0
 10
150
 20
251
 11
150
 21
301
  0
LINE
  8
0
 10
150
 20
301
 11
149.961
 21
301.627
  0
LINE
  8
0
 10
149.961
 20
301.627
 11
149.843
 21
302.243
  0
LINE
  8
0
 10
149.843
 20
302.243
 11
149.649
 21
302.841
  0
LINE
  8
0
 10
149.649
 20
302.841
 11
149.382
 21
303.409
  0
LINE
  8
0
 10
149.382
 20
303.409
 11
149.045
 21
303.939
  0
LINE
  8
0
 10
149.045
 20
303.939
 11
148.645
 21
304.423
  0
LINE
  8
0
 10
148.645
 20
304.423
 11
148.187
 21
304.853
  0
LINE
  8
0
 10
148.187
 20
304.853
 11
147.679
 21
305.222
  0
LINE
  8
0
 10
147.679
 20
305.222
 11
147.129
 21
305.524
  0
LINE
  8
0
 10
147.129
 20
305.524
 11
146.545
 21
305.755
  0
LINE
  8
0
 10
146.545
 20
305.755
 11
145.937
 21
305.911
  0
LINE
  8
0
 10
145.937
 20
305.911
 11
145.314
 21
305.99
  0
LINE
  8
0
 10
145.314
 20
305.99
 11
-145.314
 21
305.99
  0
LINE
  8
0
 10
-145.314
 20
305.99
 11
-145.937
 21
305.911
  0
LINE
  8
0
 10
-145.937
 20
305.911
 11
-146.545
 21
305.755
  0
LINE
  8
0
 10
-146.545
 20
305.755
 11
-147.129
 21
305.524
  0
LINE
  8
0
 10
-147.129
 20
305.524
 11
-147.679
 21
305.222
  0
LINE
  8
0
 10
-147.679
 20
305.222
 11
-148.187
 21
304.853
  0
LINE
  8
0
 10
-148.187
 20
304.853
 11
-148.645
 21
304.423
  0
LINE
  8
0
 10
-148.645
 20
304.423
 11
-149.045
 21
303.939
  0
LINE
  8
0
 10
-149.045
 20
303.939
 11
-149.382
 21
303.409
  0
LINE
  8
0
 10
-149.382
 20
303.409
 11
-149.649
 21
302.841
  0
LINE
  8
0
 10
-149.649
 20
302.841
 11
-149.843
 21
302.243
  0
LINE
  8
0
 10
-149.843
 20
302.243
 11
-149.9
 21
301.944
  0
LINE
  8
0
 10
-149.9
 20
301.944
 11
-151.5
 21
301.944
  0
LINE
  8
0
 10
-151.5
 20
301.944
 11
-151.5
 21
250.056
  0
LINE
  8
0
 10
-151.5
 20
250.056
 11
-149.9
 21
250.056
  0
LINE
  8
0
 10
-149.9
 20
250.056
 11
-149.843
 21
249.757
  0
LINE
  8
0
 10
-149.843
 20
249.757
 11
-149.649
 21
249.159
  0
LINE
  8
0
 10
-149.649
 20
249.159
 11
-149.382
 21
248.591
  0
LINE
  8
0
 10
-149.382
 20
248.591
 11
-149.045
 21
248.061
  0
LINE
  8
0
 10
-149.045
 20
248.061
 11
-148.645
 21
247.577
  0
LINE
  8
0
 10
-148.645
 20
247.577
 11
-148.187
 21
247.147
  0
LINE
  8
0
 10
-148.187
 20
247.147
 11
-147.679
 21
246.778
  0
LINE
  8
0
 10
-147.679
 20
246.778
 11
-147.129
 21
246.476
  0
LINE
  8
0
 10
-147.129
 20
246.476
 11
-146.545
 21
246.245
  0
LINE
  8
0
 10
-146.545
 20
246.245
 11
-145.937
 21
246.089
  0
LINE
  8
0
 10
-145.937
 20
246.089
 11
-145.314
 21
246.01
  0
LINE
  8
0
 10
-145.314
 20
246.01
 11
145.314
 21
246.01
  0
LINE
  8
0
 10
145.314
 20
246.01
 11
145.937
 21
246.089
  0
LINE
  8
0
 10
142.387
 20
296.704
 11
142.163
 21
296.732
  0
LINE
  8
0
 10
142.163
 20
296.732
 11
141.944
 21
296.788
  0
LINE
  8
0
 10
141.944
 20
296.788
 11
141.734
 21
296.871
  0
LINE
  8
0
 10
141.734
 20
296.871
 11
141.536
 21
296.98
  0
LINE
  8
0
 10
141.536
 20
296.98
 11
141.353
 21
297.113
  0
LINE
  8
0
 10
141.353
 20
297.113
 11
141.188
 21
297.268
  0
LINE
  8
0
 10
141.188
 20
297.268
 11
141.044
 21
297.442
  0
LINE
  8
0
 10
141.044
 20
297.442
 11
140.923
 21
297.633
  0
LINE
  8
0
 10
140.923
 20
297.633
 11
140.826
 21
297.837
  0
LINE
  8
0
 10
140.826
 20
297.837
 11
140.757
 21
298.052
  0
LINE
  8
0
 10
140.757
 20
298.052
 11
140.714
 21
298.274
  0
LINE
  8
0
 10
140.714
 20
298.274
 11
140.7
 21
298.5
  0
LINE
  8
0
 10
140.7
 20
298.5
 11
140.714
 21
298.726
  0
LINE
  8
0
 10
140.714
 20
298.726
 11
140.757
 21
298.948
  0
LINE
  8
0
 10
140.757
 20
298.948
 11
140.826
 21
299.163
  0
LINE
  8
0
 10
140.826
 20
299.163
 11
140.923
 21
299.367
  0
LINE
  8
0
 10
140.923
 20
299.367
 11
141.044
 21
299.558
  0
LINE
  8
0
 10
141.044
 20
299.558
 11
141.188
 21
299.732
  0
LINE
  8
0
 10
141.188
 20
299.732
 11
141.353
 21
299.887
  0
LINE
  8
0
 10
141.353
 20
299.887
 11
141.536
 21
300.02
  0
LINE
  8
0
 10
141.536
 20
300.02
 11
141.734
 21
300.129
  0
LINE
  8
0
 10
141.734
 20
300.129
 11
141.944
 21
300.212
  0
LINE
  8
0
 10
141.944
 20
300.212
 11
142.163
 21
300.268
  0
LINE
  8
0
 10
142.163
 20
300.268
 11
142.387
 21
300.296
  0
LINE
  8
0
 10
142.387
 20
300.296
 11
142.613
 21
300.296
  0
LINE
  8
0
 10
142.613
 20
300.296
 11
142.837
 21
300.268
  0
LINE
  8
0
 10
142.837
 20
300.268
 11
143.056
 21
300.212
  0
LINE
  8
0
 10
143.056
 20
300.212
 11
143.266
 21
300.129
  0
LINE
  8
0
 10
143.266
 20
300.129
 11
143.464
 21
300.02
  0
LINE
  8
0
 10
143.464
 20
300.02
 11
143.647
 21
299.887
  0
LINE
  8
0
 10
143.647
 20
299.887
 11
143.812
 21
299.732
  0
LINE
  8
0
 10
143.812
 20
299.732
 11
143.956
 21
299.558
  0
LINE
  8
0
 10
143.956
 20
299.558
 11
144.077
 21
299.367
  0
LINE
  8
0
 10
144.077
 20
299.367
 11
144.174
 21
299.163
  0
LINE
  8
0
 10
144.174
 20
299.163
 11
144.243
 21
298.948
  0
LINE
  8
0
 10
144.243
 20
298.948
 11
144.286
 21
298.726
  0
LINE
  8
0
 10
144.286
 20
298.726
 11
144.3
 21
298.5
  0
LINE
  8
0
 10
144.3
 20
298.5
 11
144.286
 21
298.274
  0
LINE
  8
0
 10
144.286
 20
298.274
 11
144.243
 21
298.052
  0
LINE
  8
0
 10
144.243
 20
298.052
 11
144.174
 21
297.837
  0
LINE
  8
0
 10
144.174
 20
297.837
 11
144.077
 21
297.633
  0
LINE
  8
0
 10
144.077
 20
297.633
 11
143.956
 21
297.442
  0
LINE
  8
0
 10
143.956
 20
297.442
 11
143.812
 21
297.268
  0
LINE
  8
0
 10
143.812
 20
297.268
 11
143.647
 21
297.113
  0
LINE
  8
0
 10
143.647
 20
297.113
 11
143.464
 21
296.98
  0
LINE
  8
0
 10
143.464
 20
296.98
 11
143.266
 21
296.871
  0
LINE
  8
0
 10
143.266
 20
296.871
 11
143.056
 21
296.788
  0
LINE
  8
0
 10
143.056
 20
296.788
 11
142.837
 21
296.732
  0
LINE
  8
0
 10
142.837
 20
296.732
 11
142.613
 21
296.704
  0
LINE
  8
0
 10
142.613
 20
296.704
 11
142.387
 21
296.704
  0
LINE
  8
0
 10
-142.613
 20
296.704
 11
-142.837
 21
296.732
  0
LINE
  8
0
 10
-142.837
 20
296.732
 11
-143.056
 21
296.788
  0
LINE
  8
0
 10
-143.056
 20
296.788
 11
-143.266
 21
296.871
  0
LINE
  8
0
 10
-143.266
 20
296.871
 11
-143.464
 21
296.98
  0
LINE
  8
0
 10
-143.464
 20
296.98
 11
-143.647
 21
297.113
  0
LINE
  8
0
 10
-143.647
 20
297.113
 11
-143.812
 21
297.268
  0
LINE
  8
0
 10
-143.812
 20
297.268
 11
-143.956
 21
297.442
  0
LINE
  8
0
 10
-143.956
 20
297.442
 11
-144.077
 21
297.633
  0
LINE
  8
0
 10
-144.077
 20
297.633
 11
-144.174
 21
297.837
  0
LINE
  8
0
 10
-144.174
 20
297.837
 11
-144.243
 21
298.052
  0
LINE
  8
0
 10
-144.243
 20
298.052
 11
-144.286
 21
298.274
  0
LINE
  8
0
 10
-144.286
 20
298.274
 11
-144.3
 21
298.5
  0
LINE
  8
0
 10
-144.3
 20
298.5
 11
-144.286
 21
298.726
  0
LINE
  8
0
 10
-144.286
 20
298.726
 11
-144.243
 21
298.948
  0
LINE
  8
0
 10
-144.243
 20
298.948
 11
-144.174
 21
299.163
  0
LINE
  8
0
 10
-144.174
 20
299.163
 11
-144.077
 21
299.367
  0
LINE
  8
0
 10
-144.077
 20
299.367
 11
-143.956
 21
299.558
  0
LINE
  8
0
 10
-143.956
 20
299.558
 11
-143.812
 21
299.732
  0
LINE
  8
0
 10
-143.812
 20
299.732
 11
-143.647
 21
299.887
  0
LINE
  8
0
 10
-143.647
 20
299.887
 11
-143.464
 21
300.02
  0
LINE
  8
0
 10
-143.464
 20
300.02
 11
-143.266
 21
300.129
  0
LINE
  8
0
 10
-143.266
 20
300.129
 11
-143.056
 21
300.212
  0
LINE
  8
0
 10
-143.056
 20
300.212
 11
-142.837
 21
300.268
  0
LINE
  8
0
 10
-142.837
 20
300.268
 11
-142.613
 21
300.296
  0
LINE
  8
0
 10
-142.613
 20
300.296
 11
-142.387
 21
300.296
  0
LINE
  8
0
 10
-142.387
 20
300.296
 11
-142.163
 21
300.268
  0
LINE
  8
0
 10
-142.163
 20
300.268
 11
-141.944
 21
300.212
  0
LINE
  8
0
 10
-141.944
 20
300.212
 11
-141.734
 21
300.129
  0
LINE
  8
0
 10
-141.734
 20
300.129
 11
-141.536
 21
300.02
  0
LINE
  8
0
 10
-141.536
 20
300.02
 11
-141.353
 21
299.887
  0
LINE
  8
0
 10
-141.353
 20
299.887
 11
-141.188
 21
299.732
  0
LINE
  8
0
 10
-141.188
 20
299.732
 11
-141.044
 21
299.558
  0
LINE
  8
0
 10
-141.044
 20
299.558
 11
-140.923
 21
299.367
  0
LINE
  8
0
 10
-140.923
 20
299.367
 11
-140.826
 21
299.163
  0
LINE
  8
0
 10
-140.826
 20
299.163
 11
-140.757
 21
298.948
  0
LINE
  8
0
 10
-140.757
 20
298.948
 11
-140.714
 21
298.726
  0
LINE
  8
0
 10
-140.714
 20
298.726
 11
-140.7
 21
298.5
  0
LINE
  8
0
 10
-140.7
 20
298.5
 11
-140.714
 21
298.274
  0
LINE
  8
0
 10
-140.714
 20
298.274
 11
-140.757
 21
298.052
  0
LINE
  8
0
 10
-140.757
 20
298.052
 11
-140.826
 21
297.837
  0
LINE
  8
0
 10
-140.826
 20
297.837
 11
-140.923
 21
297.633
  0
LINE
  8
0
 10
-140.923
 20
297.633
 11
-141.044
 21
297.442
  0
LINE
  8
0
 10
-141.044
 20
297.442
 11
-141.188
 21
297.268
  0
LINE
  8
0
 10
-141.188
 20
297.268
 11
-141.353
 21
297.113
  0
LINE
  8
0
 10
-141.353
 20
297.113
 11
-141.536
 21
296.98
  0
LINE
  8
0
 10
-141.536
 20
296.98
 11
-141.734
 21
296.871
  0
LINE
  8
0
 10
-141.734
 20
296.871
 11
-141.944
 21
296.788
  0
LINE
  8
0
 10
-141.944
 20
296.788
 11
-142.163
 21
296.732
  0
LINE
  8
0
 10
-142.163
 20
296.732
 11
-142.387
 21
296.704
  0
LINE
  8
0
 10
-142.387
 20
296.704
 11
-142.613
 21
296.704
  0
LINE
  8
0
 10
142.387
 20
251.704
 11
142.163
 21
251.732
  0
LINE
  8
0
 10
142.163
 20
251.732
 11
141.944
 21
251.788
  0
LINE
  8
0
 10
141.944
 20
251.788
 11
141.734
 21
251.871
  0
LINE
  8
0
 10
141.734
 20
251.871
 11
141.536
 21
251.98
  0
LINE
  8
0
 10
141.536
 20
251.98
 11
141.353
 21
252.113
  0
LINE
  8
0
 10
141.353
 20
252.113
 11
141.188
 21
252.268
  0
LINE
  8
0
 10
141.188
 20
252.268
 11
141.044
 21
252.442
  0
LINE
  8
0
 10
141.044
 20
252.442
 11
140.923
 21
252.633
  0
LINE
  8
0
 10
140.923
 20
252.633
 11
140.826
 21
252.837
  0
LINE
  8
0
 10
140.826
 20
252.837
 11
140.757
 21
253.052
  0
LINE
  8
0
 10
140.757
 20
253.052
 11
140.714
 21
253.274
  0
LINE
  8
0
 10
140.714
 20
253.274
 11
140.7
 21
253.5
  0
LINE
  8
0
 10
140.7
 20
253.5
 11
140.714
 21
253.726
  0
LINE
  8
0
 10
140.714
 20
253.726
 11
140.757
 21
253.948
  0
LINE
  8
0
 10
140.757
 20
253.948
 11
140.826
 21
254.163
  0
LINE
  8
0
 10
140.826
 20
254.163
 11
140.923
 21
254.367
  0
LINE
  8
0
 10
140.923
 20
254.367
 11
141.044
 21
254.558
  0
LINE
  8
0
 10
141.044
 20
254.558
 11
141.188
 21
254.732
  0
LINE
  8
0
 10
141.188
 20
254.732
 11
141.353
 21
254.887
  0
LINE
  8
0
 10
141.353
 20
254.887
 11
141.536
 21
255.02
  0
LINE
  8
0
 10
141.536
 20
255.02
 11
141.734
 21
255.129
  0
LINE
  8
0
 10
141.734
 20
255.129
 11
141.944
 21
255.212
  0
LINE
  8
0
 10
141.944
 20
255.212
 11
142.163
 21
255.268
  0
LINE
  8
0
 10
142.163
 20
255.268
 11
142.387
 21
255.296
  0
LINE
  8
0
 10
142.387
 20
255.296
 11
142.613
 21
255.296
  0
LINE
  8
0
 10
142.613
 20
255.296
 11
142.837
 21
255.268
  0
LINE
  8
0
 10
142.837
 20
255.268
 11
143.056
 21
255.212
  0
LINE
  8
0
 10
143.056
 20
255.212
 11
143.266
 21
255.129
  0
LINE
  8
0
 10
143.266
 20
255.129
 11
143.464
 21
255.02
  0
LINE
  8
0
 10
143.464
 20
255.02
 11
143.647
 21
254.887
  0
LINE
  8
0
 10
143.647
 20
254.887
 11
143.812
 21
254.732
  0
LINE
  8
0
 10
143.812
 20
254.732
 11
143.956
 21
254.558
  0
LINE
  8
0
 10
143.956
 20
254.558
 11
144.077
 21
254.367
  0
LINE
  8
0
 10
144.077
 20
254.367
 11
144.174
 21
254.163
  0
LINE
  8
0
 10
144.174
 20
254.163
 11
144.243
 21
253.948
  0
LINE
  8
0
 10
144.243
 20
253.948
 11
144.286
 21
253.726
  0
LINE
  8
0
 10
144.286
 20
253.726
 11
144.3
 21
253.5
  0
LINE
  8
0
 10
144.3
 20
253.5
 11
144.286
 21
253.274
  0
LINE
  8
0
 10
144.286
 20
253.274
 11
144.243
 21
253.052
  0
LINE
  8
0
 10
144.243
 20
253.052
 11
144.174
 21
252.837
  0
LINE
  8
0
 10
144.174
 20
252.837
 11
144.077
 21
252.633
  0
LINE
  8
0
 10
144.077
 20
252.633
 11
143.956
 21
252.442
  0
LINE
  8
0
 10
143.956
 20
252.442
 11
143.812
 21
252.268
  0
LINE
  8
0
 10
143.812
 20
252.268
 11
143.647
 21
252.113
  0
LINE
  8
0
 10
143.647
 20
252.113
 11
143.464
 21
251.98
  0
LINE
  8
0
 10
143.464
 20
251.98
 11
143.266
 21
251.871
  0
LINE
  8
0
 10
143.266
 20
251.871
 11
143.056
 21
251.788
  0
LINE
  8
0
 10
143.056
 20
251.788
 11
142.837
 21
251.732
  0
LINE
  8
0
 10
142.837
 20
251.732
 11
142.613
 21
251.704
  0
LINE
  8
0
 10
142.613
 20
251.704
 11
142.387
 21
251.704
  0
LINE
  8
0
 10
-142.613
 20
251.704
 11
-142.837
 21
251.732
  0
LINE
  8
0
 10
-142.837
 20
251.732
 11
-143.056
 21
251.788
  0
LINE
  8
0
 10
-143.056
 20
251.788
 11
-143.266
 21
251.871
  0
LINE
  8
0
 10
-143.266
 20
251.871
 11
-143.464
 21
251.98
  0
LINE
  8
0
 10
-143.464
 20
251.98
 11
-143.647
 21
252.113
  0
LINE
  8
0
 10
-143.647
 20
252.113
 11
-143.812
 21
252.268
  0
LINE
  8
0
 10
-143.812
 20
252.268
 11
-143.956
 21
252.442
  0
LINE
  8
0
 10
-143.956
 20
252.442
 11
-144.077
 21
252.633
  0
LINE
  8
0
 10
-144.077
 20
252.633
 11
-144.174
 21
252.837
  0
LINE
  8
0
 10
-144.174
 20
252.837
 11
-144.243
 21
253.052
  0
LINE
  8
0
 10
-144.243
 20
253.052
 11
-144.286
 21
253.274
  0
LINE
  8
0
 10
-144.286
 20
253.274
 11
-144.3
 21
253.5
  0
LINE
  8
0
 10
-144.3
 20
253.5
 11
-144.286
 21
253.726
  0
LINE
  8
0
 10
-144.286
 20
253.726
 11
-144.243
 21
253.948
  0
LINE
  8
0
 10
-144.243
 20
253.948
 11
-144.174
 21
254.163
  0
LINE
  8
0
 10
-144.174
 20
254.163
 11
-144.077
 21
254.367
  0
LINE
  8
0
 10
-144.077
 20
254.367
 11
-143.956
 21
254.558
  0
LINE
  8
0
 10
-143.956
 20
254.558
 11
-143.812
 21
254.732
  0
LINE
  8
0
 10
-143.812
 20
254.732
 11
-143.647
 21
254.887
  0
LINE
  8
0
 10
-143.647
 20
254.887
 11
-143.464
 21
255.02
  0
LINE
  8
0
 10
-143.464
 20
255.02
 11
-143.266
 21
255.129
  0
LINE
  8
0
 10
-143.266
 20
255.129
 11
-143.056
 21
255.212
  0
LINE
  8
0
 10
-143.056
 20
255.212
 11
-142.837
 21
255.268
  0
LINE
  8
0
 10
-142.837
 20
255.268
 11
-142.613
 21
255.296
  0
LINE
  8
0
 10
-142.613
 20
255.296
 11
-142.387
 21
255.296
  0
LINE
  8
0
 10
-142.387
 20
255.296
 11
-142.163
 21
255.268
  0
LINE
  8
0
 10
-142.163
 20
255.268
 11
-141.944
 21
255.212
  0
LINE
  8
0
 10
-141.944
 20
255.212
 11
-141.734
 21
255.129
  0
LINE
  8
0
 10
-141.734
 20
255.129
 11
-141.536
 21
255.02
  0
LINE
  8
0
 10
-141.536
 20
255.02
 11
-141.353
 21
254.887
  0
LINE
  8
0
 10
-141.353
 20
254.887
 11
-141.188
 21
254.732
  0
LINE
  8
0
 10
-141.188
 20
254.732
 11
-141.044
 21
254.558
  0
LINE
  8
0
 10
-141.044
 20
254.558
 11
-140.923
 21
254.367
  0
LINE
  8
0
 10
-140.923
 20
254.367
 11
-140.826
 21
254.163
  0
LINE
  8
0
 10
-140.826
 20
254.163
 11
-140.757
 21
253.948
  0
LINE
  8
0
 10
-140.757
 20
253.948
 11
-140.714
 21
253.726
  0
LINE
  8
0
 10
-140.714
 20
253.726
 11
-140.7
 21
253.5
  0
LINE
  8
0
 10
-140.7
 20
253.5
 11
-140.714
 21
253.274
  0
LINE
  8
0
 10
-140.714
 20
253.274
 11
-140.757
 21
253.052
  0
LINE
  8
0
 10
-140.757
 20
253.052
 11
-140.826
 21
252.837
  0
LINE
  8
0
 10
-140.826
 20
252.837
 11
-140.923
 21
252.633
  0
LINE
  8
0
 10
-140.923
 20
252.633
 11
-141.044
 21
252.442
  0
LINE
  8
0
 10
-141.044
 20
252.442
 11
-141.188
 21
252.268
  0
LINE
  8
0
 10
-141.188
 20
252.268
 11
-141.353
 21
252.113
  0
LINE
  8
0
 10
-141.353
 20
252.113
 11
-141.536
 21
251.98
  0
LINE
  8
0
 10
-141.536
 20
251.98
 11
-141.734
 21
251.871
  0
LINE
  8
0
 10
-141.734
 20
251.871
 11
-141.944
 21
251.788
  0
LINE
  8
0
 10
-141.944
 20
251.788
 11
-142.163
 21
251.732
  0
LINE
  8
0
 10
-142.163
 20
251.732
 11
-142.387
 21
251.704
  0
LINE
  8
0
 10
-142.387
 20
251.704
 11
-142.613
 21
251.704
  0
ENDSEC
  0
SECTION
  2
OBJECTS
  0
DICTIONARY
  0
ENDSEC
  0
EOF
