<?xml version="1.0" standalone="no"?>
<!DOCTYPE svg PUBLIC "-//W3C//DTD SVG 1.1//EN" "http://www.w3.org/Graphics/SVG/1.1/DTD/svg11.dtd">
<svg width="257mm" height="149mm" viewBox="-129 -295 257 149" xmlns="http://www.w3.org/2000/svg" version="1.1">
<title>OpenSCAD Model</title>
<path d="
M -126,-273.691 L -125.687,-273.397 L -125.179,-273.028 L -124.629,-272.726 L -124.045,-272.495 L -123.437,-272.339
 L -122.814,-272.26 L 122.814,-272.26 L 123.437,-272.339 L 124.045,-272.495 L 124.629,-272.726 L 125.179,-273.028
 L 125.687,-273.397 L 126.145,-273.827 L 126.545,-274.311 L 126.882,-274.841 L 127.149,-275.409 L 127.343,-276.007
 L 127.461,-276.623 L 127.5,-277.25 L 127.5,-289.75 L 127.461,-290.377 L 127.343,-290.993 L 127.149,-291.591
 L 126.882,-292.159 L 126.545,-292.689 L 126.145,-293.173 L 125.687,-293.603 L 125.179,-293.972 L 124.629,-294.274
 L 124.045,-294.505 L 123.437,-294.661 L 122.814,-294.74 L -122.814,-294.74 L -123.437,-294.661 L -124.045,-294.505
 L -124.629,-294.274 L -125.179,-293.972 L -125.687,-293.603 L -126,-293.309 L -126,-294.74 L -129,-294.74
 L -129,-272.26 L -126,-272.26 z
M -122.251,-273.758 L -122.75,-273.821 L -123.236,-273.946 L -123.703,-274.131 L -124.143,-274.373 L -124.55,-274.668
 L -124.916,-275.012 L -125.236,-275.399 L -125.505,-275.823 L -125.719,-276.278 L -125.874,-276.755 L -125.968,-277.249
 L -126,-277.75 L -126,-289.25 L -125.968,-289.751 L -125.874,-290.245 L -125.719,-290.722 L -125.505,-291.177
 L -125.236,-291.601 L -124.916,-291.988 L -124.55,-292.332 L -124.143,-292.627 L -123.703,-292.869 L -123.236,-293.054
 L -122.75,-293.179 L -122.251,-293.242 L 122.251,-293.242 L 122.75,-293.179 L 123.236,-293.054 L 123.703,-292.869
 L 124.143,-292.627 L 124.55,-292.332 L 124.916,-291.988 L 125.236,-291.601 L 125.505,-291.177 L 125.719,-290.722
 L 125.874,-290.245 L 125.968,-289.751 L 126,-289.25 L 126,-277.75 L 125.968,-277.249 L 125.874,-276.755
 L 125.719,-276.278 L 125.505,-275.823 L 125.236,-275.399 L 124.916,-275.012 L 124.55,-274.668 L 124.143,-274.373
 L 123.703,-274.131 L 123.236,-273.946 L 122.75,-273.821 L 122.251,-273.758 z
M -126,-242.191 L -125.687,-241.897 L -125.179,-241.528 L -124.629,-241.226 L -124.045,-240.995 L -123.437,-240.839
 L -122.814,-240.76 L 122.814,-240.76 L 123.437,-240.839 L 124.045,-240.995 L 124.629,-241.226 L 125.179,-241.528
 L 125.687,-241.897 L 126.145,-242.327 L 126.545,-242.811 L 126.882,-243.341 L 127.149,-243.909 L 127.343,-244.507
 L 127.461,-245.123 L 127.5,-245.75 L 127.5,-258.25 L 127.461,-258.877 L 127.343,-259.493 L 127.149,-260.091
 L 126.882,-260.659 L 126.545,-261.189 L 126.145,-261.673 L 125.687,-262.103 L 125.179,-262.472 L 124.629,-262.774
 L 124.045,-263.005 L 123.437,-263.161 L 122.814,-263.24 L -122.814,-263.24 L -123.437,-263.161 L -124.045,-263.005
 L -124.629,-262.774 L -125.179,-262.472 L -125.687,-262.103 L -126,-261.809 L -126,-263.24 L -129,-263.24
 L -129,-240.76 L -126,-240.76 z
M -122.251,-242.258 L -122.75,-242.321 L -123.236,-242.446 L -123.703,-242.631 L -124.143,-242.873 L -124.55,-243.168
 L -124.916,-243.512 L -125.236,-243.899 L -125.505,-244.323 L -125.719,-244.778 L -125.874,-245.255 L -125.968,-245.749
 L -126,-246.25 L -126,-257.75 L -125.968,-258.251 L -125.874,-258.745 L -125.719,-259.222 L -125.505,-259.677
 L -125.236,-260.101 L -124.916,-260.488 L -124.55,-260.832 L -124.143,-261.127 L -123.703,-261.369 L -123.236,-261.554
 L -122.75,-261.679 L -122.251,-261.742 L 122.251,-261.742 L 122.75,-261.679 L 123.236,-261.554 L 123.703,-261.369
 L 124.143,-261.127 L 124.55,-260.832 L 124.916,-260.488 L 125.236,-260.101 L 125.505,-259.677 L 125.719,-259.222
 L 125.874,-258.745 L 125.968,-258.251 L 126,-257.75 L 126,-246.25 L 125.968,-245.749 L 125.874,-245.255
 L 125.719,-244.778 L 125.505,-244.323 L 125.236,-243.899 L 124.916,-243.512 L 124.55,-243.168 L 124.143,-242.873
 L 123.703,-242.631 L 123.236,-242.446 L 122.75,-242.321 L 122.251,-242.258 z
M -126,-210.691 L -125.687,-210.397 L -125.179,-210.028 L -124.629,-209.726 L -124.045,-209.495 L -123.437,-209.339
 L -122.814,-209.26 L 122.814,-209.26 L 123.437,-209.339 L 124.045,-209.495 L 124.629,-209.726 L 125.179,-210.028
 L 125.687,-210.397 L 126.145,-210.827 L 126.545,-211.311 L 126.882,-211.841 L 127.149,-212.409 L 127.343,-213.007
 L 127.461,-213.623 L 127.5,-214.25 L 127.5,-226.75 L 127.461,-227.377 L 127.343,-227.993 L 127.149,-228.591
 L 126.882,-229.159 L 126.545,-229.689 L 126.145,-230.173 L 125.687,-230.603 L 125.179,-230.972 L 124.629,-231.274
 L 124.045,-231.505 L 123.437,-231.661 L 122.814,-231.74 L -122.814,-231.74 L -123.437,-231.661 L -124.045,-231.505
 L -124.629,-231.274 L -125.179,-230.972 L -125.687,-230.603 L -126,-230.309 L -126,-231.74 L -129,-231.74
 L -129,-209.26 L -126,-209.26 z
M -122.251,-210.758 L -122.75,-210.821 L -123.236,-210.946 L -123.703,-211.131 L -124.143,-211.373 L -124.55,-211.668
 L -124.916,-212.012 L -125.236,-212.399 L -125.505,-212.823 L -125.719,-213.278 L -125.874,-213.755 L -125.968,-214.249
 L -126,-214.75 L -126,-226.25 L -125.968,-226.751 L -125.874,-227.245 L -125.719,-227.722 L -125.505,-228.177
 L -125.236,-228.601 L -124.916,-228.988 L -124.55,-229.332 L -124.143,-229.627 L -123.703,-229.869 L -123.236,-230.054
 L -122.75,-230.179 L -122.251,-230.242 L 122.251,-230.242 L 122.75,-230.179 L 123.236,-230.054 L 123.703,-229.869
 L 124.143,-229.627 L 124.55,-229.332 L 124.916,-228.988 L 125.236,-228.601 L 125.505,-228.177 L 125.719,-227.722
 L 125.874,-227.245 L 125.968,-226.751 L 126,-226.25 L 126,-214.75 L 125.968,-214.249 L 125.874,-213.755
 L 125.719,-213.278 L 125.505,-212.823 L 125.236,-212.399 L 124.916,-212.012 L 124.55,-211.668 L 124.143,-211.373
 L 123.703,-211.131 L 123.236,-210.946 L 122.75,-210.821 L 122.251,-210.758 z
M 123.437,-177.839 L 124.045,-177.995 L 124.629,-178.226 L 125.179,-178.528 L 125.687,-178.897 L 126.145,-179.327
 L 126.545,-179.811 L 126.882,-180.341 L 127.149,-180.909 L 127.343,-181.507 L 127.461,-182.123 L 127.5,-182.75
 L 127.5,-195.25 L 127.461,-195.877 L 127.343,-196.493 L 127.149,-197.091 L 126.882,-197.659 L 126.545,-198.189
 L 126.145,-198.673 L 125.687,-199.103 L 125.179,-199.472 L 124.629,-199.774 L 124.045,-200.005 L 123.437,-200.161
 L 122.814,-200.24 L -122.814,-200.24 L -123.437,-200.161 L -124.045,-200.005 L -124.629,-199.774 L -125.179,-199.472
 L -125.687,-199.103 L -126,-198.809 L -126,-200.229 L -129,-200.229 L -129,-177.771 L -126,-177.771
 L -126,-179.191 L -125.687,-178.897 L -125.179,-178.528 L -124.629,-178.226 L -124.045,-177.995 L -123.437,-177.839
 L -122.814,-177.76 L 122.814,-177.76 z
M -122.195,-180.143 L -122.583,-180.192 L -122.962,-180.289 L -123.325,-180.433 L -123.668,-180.622 L -123.984,-180.851
 L -124.269,-181.119 L -124.518,-181.42 L -124.728,-181.75 L -124.894,-182.104 L -125.015,-182.476 L -125.088,-182.86
 L -125.113,-183.25 L -125.113,-194.75 L -125.088,-195.14 L -125.015,-195.524 L -124.894,-195.896 L -124.728,-196.25
 L -124.518,-196.58 L -124.269,-196.881 L -123.984,-197.149 L -123.668,-197.378 L -123.325,-197.567 L -122.962,-197.711
 L -122.583,-197.808 L -122.195,-197.857 L 122.195,-197.857 L 122.583,-197.808 L 122.962,-197.711 L 123.325,-197.567
 L 123.668,-197.378 L 123.984,-197.149 L 124.269,-196.881 L 124.518,-196.58 L 124.728,-196.25 L 124.894,-195.896
 L 125.015,-195.524 L 125.088,-195.14 L 125.113,-194.75 L 125.113,-183.25 L 125.088,-182.86 L 125.015,-182.476
 L 124.894,-182.104 L 124.728,-181.75 L 124.518,-181.42 L 124.269,-181.119 L 123.984,-180.851 L 123.668,-180.622
 L 123.325,-180.433 L 122.962,-180.289 L 122.583,-180.192 L 122.195,-180.143 z
M 123.437,-146.339 L 124.045,-146.495 L 124.629,-146.726 L 125.179,-147.028 L 125.687,-147.397 L 126.145,-147.827
 L 126.545,-148.311 L 126.882,-148.841 L 127.149,-149.409 L 127.343,-150.007 L 127.461,-150.623 L 127.5,-151.25
 L 127.5,-163.75 L 127.461,-164.377 L 127.343,-164.993 L 127.149,-165.591 L 126.882,-166.159 L 126.545,-166.689
 L 126.145,-167.173 L 125.687,-167.603 L 125.179,-167.972 L 124.629,-168.274 L 124.045,-168.505 L 123.437,-168.661
 L 122.814,-168.74 L -122.814,-168.74 L -123.437,-168.661 L -124.045,-168.505 L -124.629,-168.274 L -125.179,-167.972
 L -125.687,-167.603 L -126,-167.309 L -126,-167.403 L -129,-167.403 L -129,-147.597 L -126,-147.597
 L -126,-147.691 L -125.687,-147.397 L -125.179,-147.028 L -124.629,-146.726 L -124.045,-146.495 L -123.437,-146.339
 L -122.814,-146.26 L 122.814,-146.26 z
M -120.134,-159.119 L -120.4,-159.153 L -120.66,-159.219 L -120.909,-159.318 L -121.144,-159.447 L -121.361,-159.605
 L -121.557,-159.788 L -121.727,-159.995 L -121.871,-160.221 L -121.985,-160.464 L -122.068,-160.719 L -122.118,-160.982
 L -122.135,-161.25 L -122.118,-161.518 L -122.068,-161.781 L -121.985,-162.036 L -121.871,-162.279 L -121.727,-162.505
 L -121.557,-162.712 L -121.361,-162.895 L -121.144,-163.053 L -120.909,-163.182 L -120.66,-163.281 L -120.4,-163.347
 L -120.134,-163.381 L -119.866,-163.381 L -119.6,-163.347 L -119.34,-163.281 L -119.091,-163.182 L -118.856,-163.053
 L -118.639,-162.895 L -118.443,-162.712 L -118.273,-162.505 L -118.129,-162.279 L -118.015,-162.036 L -117.932,-161.781
 L -117.882,-161.518 L -117.865,-161.25 L -117.882,-160.982 L -117.932,-160.719 L -118.015,-160.464 L -118.129,-160.221
 L -118.273,-159.995 L -118.443,-159.788 L -118.639,-159.605 L -118.856,-159.447 L -119.091,-159.318 L -119.34,-159.219
 L -119.6,-159.153 L -119.866,-159.119 z
M 119.866,-159.119 L 119.6,-159.153 L 119.34,-159.219 L 119.091,-159.318 L 118.856,-159.447 L 118.639,-159.605
 L 118.443,-159.788 L 118.273,-159.995 L 118.129,-160.221 L 118.015,-160.464 L 117.932,-160.719 L 117.882,-160.982
 L 117.865,-161.25 L 117.882,-161.518 L 117.932,-161.781 L 118.015,-162.036 L 118.129,-162.279 L 118.273,-162.505
 L 118.443,-162.712 L 118.639,-162.895 L 118.856,-163.053 L 119.091,-163.182 L 119.34,-163.281 L 119.6,-163.347
 L 119.866,-163.381 L 120.134,-163.381 L 120.4,-163.347 L 120.66,-163.281 L 120.909,-163.182 L 121.144,-163.053
 L 121.361,-162.895 L 121.557,-162.712 L 121.727,-162.505 L 121.871,-162.279 L 121.985,-162.036 L 122.068,-161.781
 L 122.118,-161.518 L 122.135,-161.25 L 122.118,-160.982 L 122.068,-160.719 L 121.985,-160.464 L 121.871,-160.221
 L 121.727,-159.995 L 121.557,-159.788 L 121.361,-159.605 L 121.144,-159.447 L 120.909,-159.318 L 120.66,-159.219
 L 120.4,-159.153 L 120.134,-159.119 z
M -120.134,-151.619 L -120.4,-151.653 L -120.66,-151.719 L -120.909,-151.818 L -121.144,-151.947 L -121.361,-152.105
 L -121.557,-152.288 L -121.727,-152.495 L -121.871,-152.721 L -121.985,-152.964 L -122.068,-153.219 L -122.118,-153.482
 L -122.135,-153.75 L -122.118,-154.018 L -122.068,-154.281 L -121.985,-154.536 L -121.871,-154.779 L -121.727,-155.005
 L -121.557,-155.212 L -121.361,-155.395 L -121.144,-155.553 L -120.909,-155.682 L -120.66,-155.781 L -120.4,-155.847
 L -120.134,-155.881 L -119.866,-155.881 L -119.6,-155.847 L -119.34,-155.781 L -119.091,-155.682 L -118.856,-155.553
 L -118.639,-155.395 L -118.443,-155.212 L -118.273,-155.005 L -118.129,-154.779 L -118.015,-154.536 L -117.932,-154.281
 L -117.882,-154.018 L -117.865,-153.75 L -117.882,-153.482 L -117.932,-153.219 L -118.015,-152.964 L -118.129,-152.721
 L -118.273,-152.495 L -118.443,-152.288 L -118.639,-152.105 L -118.856,-151.947 L -119.091,-151.818 L -119.34,-151.719
 L -119.6,-151.653 L -119.866,-151.619 z
M 119.866,-151.619 L 119.6,-151.653 L 119.34,-151.719 L 119.091,-151.818 L 118.856,-151.947 L 118.639,-152.105
 L 118.443,-152.288 L 118.273,-152.495 L 118.129,-152.721 L 118.015,-152.964 L 117.932,-153.219 L 117.882,-153.482
 L 117.865,-153.75 L 117.882,-154.018 L 117.932,-154.281 L 118.015,-154.536 L 118.129,-154.779 L 118.273,-155.005
 L 118.443,-155.212 L 118.639,-155.395 L 118.856,-155.553 L 119.091,-155.682 L 119.34,-155.781 L 119.6,-155.847
 L 119.866,-155.881 L 120.134,-155.881 L 120.4,-155.847 L 120.66,-155.781 L 120.909,-155.682 L 121.144,-155.553
 L 121.361,-155.395 L 121.557,-155.212 L 121.727,-155.005 L 121.871,-154.779 L 121.985,-154.536 L 122.068,-154.281
 L 122.118,-154.018 L 122.135,-153.75 L 122.118,-153.482 L 122.068,-153.219 L 121.985,-152.964 L 121.871,-152.721
 L 121.727,-152.495 L 121.557,-152.288 L 121.361,-152.105 L 121.144,-151.947 L 120.909,-151.818 L 120.66,-151.719
 L 120.4,-151.653 L 120.134,-151.619 z
" stroke="black" fill="lightgray" stroke-width="0.5"/>
</svg>
