  0
SECTION
  2
BLOCKS
  0
ENDSEC
  0
SECTION
  2
ENTITIES
  0
LINE
  8
0
 10
138.437
 20
613.589
 11
139.045
 21
613.745
  0
LINE
  8
0
 10
139.045
 20
613.745
 11
139.629
 21
613.976
  0
LINE
  8
0
 10
139.629
 20
613.976
 11
140.179
 21
614.278
  0
LINE
  8
0
 10
140.179
 20
614.278
 11
140.687
 21
614.647
  0
LINE
  8
0
 10
140.687
 20
614.647
 11
141.145
 21
615.077
  0
LINE
  8
0
 10
141.145
 20
615.077
 11
141.545
 21
615.561
  0
LINE
  8
0
 10
141.545
 20
615.561
 11
141.882
 21
616.091
  0
LINE
  8
0
 10
141.882
 20
616.091
 11
142.149
 21
616.659
  0
LINE
  8
0
 10
142.149
 20
616.659
 11
142.343
 21
617.257
  0
LINE
  8
0
 10
142.343
 20
617.257
 11
142.461
 21
617.873
  0
LINE
  8
0
 10
142.461
 20
617.873
 11
142.5
 21
618.5
  0
LINE
  8
0
 10
142.5
 20
618.5
 11
142.5
 21
773.5
  0
LINE
  8
0
 10
142.5
 20
773.5
 11
142.461
 21
774.127
  0
LINE
  8
0
 10
142.461
 20
774.127
 11
142.343
 21
774.743
  0
LINE
  8
0
 10
142.343
 20
774.743
 11
142.149
 21
775.341
  0
LINE
  8
0
 10
142.149
 20
775.341
 11
141.882
 21
775.909
  0
LINE
  8
0
 10
141.882
 20
775.909
 11
141.545
 21
776.439
  0
LINE
  8
0
 10
141.545
 20
776.439
 11
141.145
 21
776.923
  0
LINE
  8
0
 10
141.145
 20
776.923
 11
140.687
 21
777.353
  0
LINE
  8
0
 10
140.687
 20
777.353
 11
140.179
 21
777.722
  0
LINE
  8
0
 10
140.179
 20
777.722
 11
139.629
 21
778.024
  0
LINE
  8
0
 10
139.629
 20
778.024
 11
139.045
 21
778.255
  0
LINE
  8
0
 10
139.045
 20
778.255
 11
138.437
 21
778.411
  0
LINE
  8
0
 10
138.437
 20
778.411
 11
137.814
 21
778.49
  0
LINE
  8
0
 10
137.814
 20
778.49
 11
-137.814
 21
778.49
  0
LINE
  8
0
 10
-137.814
 20
778.49
 11
-138.437
 21
778.411
  0
LINE
  8
0
 10
-138.437
 20
778.411
 11
-139.045
 21
778.255
  0
LINE
  8
0
 10
-139.045
 20
778.255
 11
-139.629
 21
778.024
  0
LINE
  8
0
 10
-139.629
 20
778.024
 11
-140.179
 21
777.722
  0
LINE
  8
0
 10
-140.179
 20
777.722
 11
-140.687
 21
777.353
  0
LINE
  8
0
 10
-140.687
 20
777.353
 11
-141.145
 21
776.923
  0
LINE
  8
0
 10
-141.145
 20
776.923
 11
-141.545
 21
776.439
  0
LINE
  8
0
 10
-141.545
 20
776.439
 11
-141.882
 21
775.909
  0
LINE
  8
0
 10
-141.882
 20
775.909
 11
-142.149
 21
775.341
  0
LINE
  8
0
 10
-142.149
 20
775.341
 11
-142.343
 21
774.743
  0
LINE
  8
0
 10
-142.343
 20
774.743
 11
-142.461
 21
774.127
  0
LINE
  8
0
 10
-142.461
 20
774.127
 11
-142.5
 21
773.5
  0
LINE
  8
0
 10
-142.5
 20
773.5
 11
-142.5
 21
618.5
  0
LINE
  8
0
 10
-142.5
 20
618.5
 11
-142.461
 21
617.873
  0
LINE
  8
0
 10
-142.461
 20
617.873
 11
-142.343
 21
617.257
  0
LINE
  8
0
 10
-142.343
 20
617.257
 11
-142.149
 21
616.659
  0
LINE
  8
0
 10
-142.149
 20
616.659
 11
-141.882
 21
616.091
  0
LINE
  8
0
 10
-141.882
 20
616.091
 11
-141.545
 21
615.561
  0
LINE
  8
0
 10
-141.545
 20
615.561
 11
-141.145
 21
615.077
  0
LINE
  8
0
 10
-141.145
 20
615.077
 11
-140.687
 21
614.647
  0
LINE
  8
0
 10
-140.687
 20
614.647
 11
-140.179
 21
614.278
  0
LINE
  8
0
 10
-140.179
 20
614.278
 11
-139.629
 21
613.976
  0
LINE
  8
0
 10
-139.629
 20
613.976
 11
-139.045
 21
613.745
  0
LINE
  8
0
 10
-139.045
 20
613.745
 11
-138.437
 21
613.589
  0
LINE
  8
0
 10
-138.437
 20
613.589
 11
-137.814
 21
613.51
  0
LINE
  8
0
 10
-137.814
 20
613.51
 11
137.814
 21
613.51
  0
LINE
  8
0
 10
137.814
 20
613.51
 11
138.437
 21
613.589
  0
LINE
  8
0
 10
-137.548
 20
614.009
 11
-138.14
 21
614.084
  0
LINE
  8
0
 10
-138.14
 20
614.084
 11
-138.718
 21
614.232
  0
LINE
  8
0
 10
-138.718
 20
614.232
 11
-139.272
 21
614.452
  0
LINE
  8
0
 10
-139.272
 20
614.452
 11
-139.795
 21
614.739
  0
LINE
  8
0
 10
-139.795
 20
614.739
 11
-140.278
 21
615.09
  0
LINE
  8
0
 10
-140.278
 20
615.09
 11
-140.713
 21
615.498
  0
LINE
  8
0
 10
-140.713
 20
615.498
 11
-141.093
 21
615.958
  0
LINE
  8
0
 10
-141.093
 20
615.958
 11
-141.412
 21
616.462
  0
LINE
  8
0
 10
-141.412
 20
616.462
 11
-141.666
 21
617.001
  0
LINE
  8
0
 10
-141.666
 20
617.001
 11
-141.851
 21
617.569
  0
LINE
  8
0
 10
-141.851
 20
617.569
 11
-141.963
 21
618.155
  0
LINE
  8
0
 10
-141.963
 20
618.155
 11
-142
 21
618.75
  0
LINE
  8
0
 10
-142
 20
618.75
 11
-142
 21
773.25
  0
LINE
  8
0
 10
-142
 20
773.25
 11
-141.963
 21
773.845
  0
LINE
  8
0
 10
-141.963
 20
773.845
 11
-141.851
 21
774.431
  0
LINE
  8
0
 10
-141.851
 20
774.431
 11
-141.666
 21
774.999
  0
LINE
  8
0
 10
-141.666
 20
774.999
 11
-141.412
 21
775.538
  0
LINE
  8
0
 10
-141.412
 20
775.538
 11
-141.093
 21
776.042
  0
LINE
  8
0
 10
-141.093
 20
776.042
 11
-140.713
 21
776.502
  0
LINE
  8
0
 10
-140.713
 20
776.502
 11
-140.278
 21
776.91
  0
LINE
  8
0
 10
-140.278
 20
776.91
 11
-139.795
 21
777.261
  0
LINE
  8
0
 10
-139.795
 20
777.261
 11
-139.272
 21
777.548
  0
LINE
  8
0
 10
-139.272
 20
777.548
 11
-138.718
 21
777.768
  0
LINE
  8
0
 10
-138.718
 20
777.768
 11
-138.14
 21
777.916
  0
LINE
  8
0
 10
-138.14
 20
777.916
 11
-137.548
 21
777.991
  0
LINE
  8
0
 10
-137.548
 20
777.991
 11
137.548
 21
777.991
  0
LINE
  8
0
 10
137.548
 20
777.991
 11
138.14
 21
777.916
  0
LINE
  8
0
 10
138.14
 20
777.916
 11
138.718
 21
777.768
  0
LINE
  8
0
 10
138.718
 20
777.768
 11
139.272
 21
777.548
  0
LINE
  8
0
 10
139.272
 20
777.548
 11
139.795
 21
777.261
  0
LINE
  8
0
 10
139.795
 20
777.261
 11
140.278
 21
776.91
  0
LINE
  8
0
 10
140.278
 20
776.91
 11
140.713
 21
776.502
  0
LINE
  8
0
 10
140.713
 20
776.502
 11
141.093
 21
776.042
  0
LINE
  8
0
 10
141.093
 20
776.042
 11
141.412
 21
775.538
  0
LINE
  8
0
 10
141.412
 20
775.538
 11
141.666
 21
774.999
  0
LINE
  8
0
 10
141.666
 20
774.999
 11
141.851
 21
774.431
  0
LINE
  8
0
 10
141.851
 20
774.431
 11
141.963
 21
773.845
  0
LINE
  8
0
 10
141.963
 20
773.845
 11
142
 21
773.25
  0
LINE
  8
0
 10
142
 20
773.25
 11
142
 21
618.75
  0
LINE
  8
0
 10
142
 20
618.75
 11
141.963
 21
618.155
  0
LINE
  8
0
 10
141.963
 20
618.155
 11
141.851
 21
617.569
  0
LINE
  8
0
 10
141.851
 20
617.569
 11
141.666
 21
617.001
  0
LINE
  8
0
 10
141.666
 20
617.001
 11
141.412
 21
616.462
  0
LINE
  8
0
 10
141.412
 20
616.462
 11
141.093
 21
615.958
  0
LINE
  8
0
 10
141.093
 20
615.958
 11
140.713
 21
615.498
  0
LINE
  8
0
 10
140.713
 20
615.498
 11
140.278
 21
615.09
  0
LINE
  8
0
 10
140.278
 20
615.09
 11
139.795
 21
614.739
  0
LINE
  8
0
 10
139.795
 20
614.739
 11
139.272
 21
614.452
  0
LINE
  8
0
 10
139.272
 20
614.452
 11
138.718
 21
614.232
  0
LINE
  8
0
 10
138.718
 20
614.232
 11
138.14
 21
614.084
  0
LINE
  8
0
 10
138.14
 20
614.084
 11
137.548
 21
614.009
  0
LINE
  8
0
 10
137.548
 20
614.009
 11
-137.548
 21
614.009
  0
LINE
  8
0
 10
138.437
 20
439.589
 11
139.045
 21
439.745
  0
LINE
  8
0
 10
139.045
 20
439.745
 11
139.629
 21
439.976
  0
LINE
  8
0
 10
139.629
 20
439.976
 11
140.179
 21
440.278
  0
LINE
  8
0
 10
140.179
 20
440.278
 11
140.687
 21
440.647
  0
LINE
  8
0
 10
140.687
 20
440.647
 11
141.145
 21
441.077
  0
LINE
  8
0
 10
141.145
 20
441.077
 11
141.545
 21
441.561
  0
LINE
  8
0
 10
141.545
 20
441.561
 11
141.882
 21
442.091
  0
LINE
  8
0
 10
141.882
 20
442.091
 11
142.149
 21
442.659
  0
LINE
  8
0
 10
142.149
 20
442.659
 11
142.343
 21
443.257
  0
LINE
  8
0
 10
142.343
 20
443.257
 11
142.461
 21
443.873
  0
LINE
  8
0
 10
142.461
 20
443.873
 11
142.5
 21
444.5
  0
LINE
  8
0
 10
142.5
 20
444.5
 11
142.5
 21
599.5
  0
LINE
  8
0
 10
142.5
 20
599.5
 11
142.461
 21
600.127
  0
LINE
  8
0
 10
142.461
 20
600.127
 11
142.343
 21
600.743
  0
LINE
  8
0
 10
142.343
 20
600.743
 11
142.149
 21
601.341
  0
LINE
  8
0
 10
142.149
 20
601.341
 11
141.882
 21
601.909
  0
LINE
  8
0
 10
141.882
 20
601.909
 11
141.545
 21
602.439
  0
LINE
  8
0
 10
141.545
 20
602.439
 11
141.145
 21
602.923
  0
LINE
  8
0
 10
141.145
 20
602.923
 11
140.687
 21
603.353
  0
LINE
  8
0
 10
140.687
 20
603.353
 11
140.179
 21
603.722
  0
LINE
  8
0
 10
140.179
 20
603.722
 11
139.629
 21
604.024
  0
LINE
  8
0
 10
139.629
 20
604.024
 11
139.045
 21
604.255
  0
LINE
  8
0
 10
139.045
 20
604.255
 11
138.437
 21
604.411
  0
LINE
  8
0
 10
138.437
 20
604.411
 11
137.814
 21
604.49
  0
LINE
  8
0
 10
137.814
 20
604.49
 11
-137.814
 21
604.49
  0
LINE
  8
0
 10
-137.814
 20
604.49
 11
-138.437
 21
604.411
  0
LINE
  8
0
 10
-138.437
 20
604.411
 11
-139.045
 21
604.255
  0
LINE
  8
0
 10
-139.045
 20
604.255
 11
-139.629
 21
604.024
  0
LINE
  8
0
 10
-139.629
 20
604.024
 11
-140.179
 21
603.722
  0
LINE
  8
0
 10
-140.179
 20
603.722
 11
-140.687
 21
603.353
  0
LINE
  8
0
 10
-140.687
 20
603.353
 11
-141.145
 21
602.923
  0
LINE
  8
0
 10
-141.145
 20
602.923
 11
-141.545
 21
602.439
  0
LINE
  8
0
 10
-141.545
 20
602.439
 11
-141.882
 21
601.909
  0
LINE
  8
0
 10
-141.882
 20
601.909
 11
-142.149
 21
601.341
  0
LINE
  8
0
 10
-142.149
 20
601.341
 11
-142.343
 21
600.743
  0
LINE
  8
0
 10
-142.343
 20
600.743
 11
-142.461
 21
600.127
  0
LINE
  8
0
 10
-142.461
 20
600.127
 11
-142.5
 21
599.5
  0
LINE
  8
0
 10
-142.5
 20
599.5
 11
-142.5
 21
444.5
  0
LINE
  8
0
 10
-142.5
 20
444.5
 11
-142.461
 21
443.873
  0
LINE
  8
0
 10
-142.461
 20
443.873
 11
-142.343
 21
443.257
  0
LINE
  8
0
 10
-142.343
 20
443.257
 11
-142.149
 21
442.659
  0
LINE
  8
0
 10
-142.149
 20
442.659
 11
-141.882
 21
442.091
  0
LINE
  8
0
 10
-141.882
 20
442.091
 11
-141.545
 21
441.561
  0
LINE
  8
0
 10
-141.545
 20
441.561
 11
-141.145
 21
441.077
  0
LINE
  8
0
 10
-141.145
 20
441.077
 11
-140.687
 21
440.647
  0
LINE
  8
0
 10
-140.687
 20
440.647
 11
-140.179
 21
440.278
  0
LINE
  8
0
 10
-140.179
 20
440.278
 11
-139.629
 21
439.976
  0
LINE
  8
0
 10
-139.629
 20
439.976
 11
-139.045
 21
439.745
  0
LINE
  8
0
 10
-139.045
 20
439.745
 11
-138.437
 21
439.589
  0
LINE
  8
0
 10
-138.437
 20
439.589
 11
-137.814
 21
439.51
  0
LINE
  8
0
 10
-137.814
 20
439.51
 11
137.814
 21
439.51
  0
LINE
  8
0
 10
137.814
 20
439.51
 11
138.437
 21
439.589
  0
LINE
  8
0
 10
-137.493
 20
440.888
 11
-137.975
 21
440.949
  0
LINE
  8
0
 10
-137.975
 20
440.949
 11
-138.446
 21
441.07
  0
LINE
  8
0
 10
-138.446
 20
441.07
 11
-138.898
 21
441.249
  0
LINE
  8
0
 10
-138.898
 20
441.249
 11
-139.323
 21
441.483
  0
LINE
  8
0
 10
-139.323
 20
441.483
 11
-139.716
 21
441.769
  0
LINE
  8
0
 10
-139.716
 20
441.769
 11
-140.071
 21
442.101
  0
LINE
  8
0
 10
-140.071
 20
442.101
 11
-140.38
 21
442.476
  0
LINE
  8
0
 10
-140.38
 20
442.476
 11
-140.641
 21
442.886
  0
LINE
  8
0
 10
-140.641
 20
442.886
 11
-140.848
 21
443.326
  0
LINE
  8
0
 10
-140.848
 20
443.326
 11
-140.998
 21
443.788
  0
LINE
  8
0
 10
-140.998
 20
443.788
 11
-141.089
 21
444.265
  0
LINE
  8
0
 10
-141.089
 20
444.265
 11
-141.119
 21
444.75
  0
LINE
  8
0
 10
-141.119
 20
444.75
 11
-141.119
 21
599.25
  0
LINE
  8
0
 10
-141.119
 20
599.25
 11
-141.089
 21
599.735
  0
LINE
  8
0
 10
-141.089
 20
599.735
 11
-140.998
 21
600.212
  0
LINE
  8
0
 10
-140.998
 20
600.212
 11
-140.848
 21
600.674
  0
LINE
  8
0
 10
-140.848
 20
600.674
 11
-140.641
 21
601.114
  0
LINE
  8
0
 10
-140.641
 20
601.114
 11
-140.38
 21
601.524
  0
LINE
  8
0
 10
-140.38
 20
601.524
 11
-140.071
 21
601.899
  0
LINE
  8
0
 10
-140.071
 20
601.899
 11
-139.716
 21
602.231
  0
LINE
  8
0
 10
-139.716
 20
602.231
 11
-139.323
 21
602.517
  0
LINE
  8
0
 10
-139.323
 20
602.517
 11
-138.898
 21
602.751
  0
LINE
  8
0
 10
-138.898
 20
602.751
 11
-138.446
 21
602.93
  0
LINE
  8
0
 10
-138.446
 20
602.93
 11
-137.975
 21
603.051
  0
LINE
  8
0
 10
-137.975
 20
603.051
 11
-137.493
 21
603.112
  0
LINE
  8
0
 10
-137.493
 20
603.112
 11
137.493
 21
603.112
  0
LINE
  8
0
 10
137.493
 20
603.112
 11
137.975
 21
603.051
  0
LINE
  8
0
 10
137.975
 20
603.051
 11
138.446
 21
602.93
  0
LINE
  8
0
 10
138.446
 20
602.93
 11
138.898
 21
602.751
  0
LINE
  8
0
 10
138.898
 20
602.751
 11
139.323
 21
602.517
  0
LINE
  8
0
 10
139.323
 20
602.517
 11
139.716
 21
602.231
  0
LINE
  8
0
 10
139.716
 20
602.231
 11
140.071
 21
601.899
  0
LINE
  8
0
 10
140.071
 20
601.899
 11
140.38
 21
601.524
  0
LINE
  8
0
 10
140.38
 20
601.524
 11
140.641
 21
601.114
  0
LINE
  8
0
 10
140.641
 20
601.114
 11
140.848
 21
600.674
  0
LINE
  8
0
 10
140.848
 20
600.674
 11
140.998
 21
600.212
  0
LINE
  8
0
 10
140.998
 20
600.212
 11
141.089
 21
599.735
  0
LINE
  8
0
 10
141.089
 20
599.735
 11
141.119
 21
599.25
  0
LINE
  8
0
 10
141.119
 20
599.25
 11
141.119
 21
444.75
  0
LINE
  8
0
 10
141.119
 20
444.75
 11
141.089
 21
444.265
  0
LINE
  8
0
 10
141.089
 20
444.265
 11
140.998
 21
443.788
  0
LINE
  8
0
 10
140.998
 20
443.788
 11
140.848
 21
443.326
  0
LINE
  8
0
 10
140.848
 20
443.326
 11
140.641
 21
442.886
  0
LINE
  8
0
 10
140.641
 20
442.886
 11
140.38
 21
442.476
  0
LINE
  8
0
 10
140.38
 20
442.476
 11
140.071
 21
442.101
  0
LINE
  8
0
 10
140.071
 20
442.101
 11
139.716
 21
441.769
  0
LINE
  8
0
 10
139.716
 20
441.769
 11
139.323
 21
441.483
  0
LINE
  8
0
 10
139.323
 20
441.483
 11
138.898
 21
441.249
  0
LINE
  8
0
 10
138.898
 20
441.249
 11
138.446
 21
441.07
  0
LINE
  8
0
 10
138.446
 20
441.07
 11
137.975
 21
440.949
  0
LINE
  8
0
 10
137.975
 20
440.949
 11
137.493
 21
440.888
  0
LINE
  8
0
 10
137.493
 20
440.888
 11
-137.493
 21
440.888
  0
LINE
  8
0
 10
138.437
 20
265.589
 11
139.045
 21
265.745
  0
LINE
  8
0
 10
139.045
 20
265.745
 11
139.629
 21
265.976
  0
LINE
  8
0
 10
139.629
 20
265.976
 11
140.179
 21
266.278
  0
LINE
  8
0
 10
140.179
 20
266.278
 11
140.687
 21
266.647
  0
LINE
  8
0
 10
140.687
 20
266.647
 11
141.145
 21
267.077
  0
LINE
  8
0
 10
141.145
 20
267.077
 11
141.545
 21
267.561
  0
LINE
  8
0
 10
141.545
 20
267.561
 11
141.882
 21
268.091
  0
LINE
  8
0
 10
141.882
 20
268.091
 11
142.149
 21
268.659
  0
LINE
  8
0
 10
142.149
 20
268.659
 11
142.343
 21
269.257
  0
LINE
  8
0
 10
142.343
 20
269.257
 11
142.461
 21
269.873
  0
LINE
  8
0
 10
142.461
 20
269.873
 11
142.5
 21
270.5
  0
LINE
  8
0
 10
142.5
 20
270.5
 11
142.5
 21
425.5
  0
LINE
  8
0
 10
142.5
 20
425.5
 11
142.461
 21
426.127
  0
LINE
  8
0
 10
142.461
 20
426.127
 11
142.343
 21
426.743
  0
LINE
  8
0
 10
142.343
 20
426.743
 11
142.149
 21
427.341
  0
LINE
  8
0
 10
142.149
 20
427.341
 11
141.882
 21
427.909
  0
LINE
  8
0
 10
141.882
 20
427.909
 11
141.545
 21
428.439
  0
LINE
  8
0
 10
141.545
 20
428.439
 11
141.145
 21
428.923
  0
LINE
  8
0
 10
141.145
 20
428.923
 11
140.687
 21
429.353
  0
LINE
  8
0
 10
140.687
 20
429.353
 11
140.179
 21
429.722
  0
LINE
  8
0
 10
140.179
 20
429.722
 11
139.629
 21
430.024
  0
LINE
  8
0
 10
139.629
 20
430.024
 11
139.045
 21
430.255
  0
LINE
  8
0
 10
139.045
 20
430.255
 11
138.437
 21
430.411
  0
LINE
  8
0
 10
138.437
 20
430.411
 11
137.814
 21
430.49
  0
LINE
  8
0
 10
137.814
 20
430.49
 11
-137.814
 21
430.49
  0
LINE
  8
0
 10
-137.814
 20
430.49
 11
-138.437
 21
430.411
  0
LINE
  8
0
 10
-138.437
 20
430.411
 11
-139.045
 21
430.255
  0
LINE
  8
0
 10
-139.045
 20
430.255
 11
-139.629
 21
430.024
  0
LINE
  8
0
 10
-139.629
 20
430.024
 11
-140.179
 21
429.722
  0
LINE
  8
0
 10
-140.179
 20
429.722
 11
-140.687
 21
429.353
  0
LINE
  8
0
 10
-140.687
 20
429.353
 11
-141.145
 21
428.923
  0
LINE
  8
0
 10
-141.145
 20
428.923
 11
-141.545
 21
428.439
  0
LINE
  8
0
 10
-141.545
 20
428.439
 11
-141.882
 21
427.909
  0
LINE
  8
0
 10
-141.882
 20
427.909
 11
-142.149
 21
427.341
  0
LINE
  8
0
 10
-142.149
 20
427.341
 11
-142.343
 21
426.743
  0
LINE
  8
0
 10
-142.343
 20
426.743
 11
-142.461
 21
426.127
  0
LINE
  8
0
 10
-142.461
 20
426.127
 11
-142.5
 21
425.5
  0
LINE
  8
0
 10
-142.5
 20
425.5
 11
-142.5
 21
270.5
  0
LINE
  8
0
 10
-142.5
 20
270.5
 11
-142.461
 21
269.873
  0
LINE
  8
0
 10
-142.461
 20
269.873
 11
-142.343
 21
269.257
  0
LINE
  8
0
 10
-142.343
 20
269.257
 11
-142.149
 21
268.659
  0
LINE
  8
0
 10
-142.149
 20
268.659
 11
-141.882
 21
268.091
  0
LINE
  8
0
 10
-141.882
 20
268.091
 11
-141.545
 21
267.561
  0
LINE
  8
0
 10
-141.545
 20
267.561
 11
-141.145
 21
267.077
  0
LINE
  8
0
 10
-141.145
 20
267.077
 11
-140.687
 21
266.647
  0
LINE
  8
0
 10
-140.687
 20
266.647
 11
-140.179
 21
266.278
  0
LINE
  8
0
 10
-140.179
 20
266.278
 11
-139.629
 21
265.976
  0
LINE
  8
0
 10
-139.629
 20
265.976
 11
-139.045
 21
265.745
  0
LINE
  8
0
 10
-139.045
 20
265.745
 11
-138.437
 21
265.589
  0
LINE
  8
0
 10
-138.437
 20
265.589
 11
-137.814
 21
265.51
  0
LINE
  8
0
 10
-137.814
 20
265.51
 11
137.814
 21
265.51
  0
LINE
  8
0
 10
137.814
 20
265.51
 11
138.437
 21
265.589
  0
LINE
  8
0
 10
-135.113
 20
421.204
 11
-135.337
 21
421.232
  0
LINE
  8
0
 10
-135.337
 20
421.232
 11
-135.556
 21
421.288
  0
LINE
  8
0
 10
-135.556
 20
421.288
 11
-135.766
 21
421.371
  0
LINE
  8
0
 10
-135.766
 20
421.371
 11
-135.964
 21
421.48
  0
LINE
  8
0
 10
-135.964
 20
421.48
 11
-136.147
 21
421.613
  0
LINE
  8
0
 10
-136.147
 20
421.613
 11
-136.312
 21
421.768
  0
LINE
  8
0
 10
-136.312
 20
421.768
 11
-136.456
 21
421.942
  0
LINE
  8
0
 10
-136.456
 20
421.942
 11
-136.577
 21
422.133
  0
LINE
  8
0
 10
-136.577
 20
422.133
 11
-136.674
 21
422.337
  0
LINE
  8
0
 10
-136.674
 20
422.337
 11
-136.743
 21
422.552
  0
LINE
  8
0
 10
-136.743
 20
422.552
 11
-136.786
 21
422.774
  0
LINE
  8
0
 10
-136.786
 20
422.774
 11
-136.8
 21
423
  0
LINE
  8
0
 10
-136.8
 20
423
 11
-136.786
 21
423.226
  0
LINE
  8
0
 10
-136.786
 20
423.226
 11
-136.743
 21
423.448
  0
LINE
  8
0
 10
-136.743
 20
423.448
 11
-136.674
 21
423.663
  0
LINE
  8
0
 10
-136.674
 20
423.663
 11
-136.577
 21
423.867
  0
LINE
  8
0
 10
-136.577
 20
423.867
 11
-136.456
 21
424.058
  0
LINE
  8
0
 10
-136.456
 20
424.058
 11
-136.312
 21
424.232
  0
LINE
  8
0
 10
-136.312
 20
424.232
 11
-136.147
 21
424.387
  0
LINE
  8
0
 10
-136.147
 20
424.387
 11
-135.964
 21
424.52
  0
LINE
  8
0
 10
-135.964
 20
424.52
 11
-135.766
 21
424.629
  0
LINE
  8
0
 10
-135.766
 20
424.629
 11
-135.556
 21
424.712
  0
LINE
  8
0
 10
-135.556
 20
424.712
 11
-135.337
 21
424.768
  0
LINE
  8
0
 10
-135.337
 20
424.768
 11
-135.113
 21
424.796
  0
LINE
  8
0
 10
-135.113
 20
424.796
 11
-134.887
 21
424.796
  0
LINE
  8
0
 10
-134.887
 20
424.796
 11
-134.663
 21
424.768
  0
LINE
  8
0
 10
-134.663
 20
424.768
 11
-134.444
 21
424.712
  0
LINE
  8
0
 10
-134.444
 20
424.712
 11
-134.234
 21
424.629
  0
LINE
  8
0
 10
-134.234
 20
424.629
 11
-134.036
 21
424.52
  0
LINE
  8
0
 10
-134.036
 20
424.52
 11
-133.853
 21
424.387
  0
LINE
  8
0
 10
-133.853
 20
424.387
 11
-133.688
 21
424.232
  0
LINE
  8
0
 10
-133.688
 20
424.232
 11
-133.544
 21
424.058
  0
LINE
  8
0
 10
-133.544
 20
424.058
 11
-133.423
 21
423.867
  0
LINE
  8
0
 10
-133.423
 20
423.867
 11
-133.326
 21
423.663
  0
LINE
  8
0
 10
-133.326
 20
423.663
 11
-133.257
 21
423.448
  0
LINE
  8
0
 10
-133.257
 20
423.448
 11
-133.214
 21
423.226
  0
LINE
  8
0
 10
-133.214
 20
423.226
 11
-133.2
 21
423
  0
LINE
  8
0
 10
-133.2
 20
423
 11
-133.214
 21
422.774
  0
LINE
  8
0
 10
-133.214
 20
422.774
 11
-133.257
 21
422.552
  0
LINE
  8
0
 10
-133.257
 20
422.552
 11
-133.326
 21
422.337
  0
LINE
  8
0
 10
-133.326
 20
422.337
 11
-133.423
 21
422.133
  0
LINE
  8
0
 10
-133.423
 20
422.133
 11
-133.544
 21
421.942
  0
LINE
  8
0
 10
-133.544
 20
421.942
 11
-133.688
 21
421.768
  0
LINE
  8
0
 10
-133.688
 20
421.768
 11
-133.853
 21
421.613
  0
LINE
  8
0
 10
-133.853
 20
421.613
 11
-134.036
 21
421.48
  0
LINE
  8
0
 10
-134.036
 20
421.48
 11
-134.234
 21
421.371
  0
LINE
  8
0
 10
-134.234
 20
421.371
 11
-134.444
 21
421.288
  0
LINE
  8
0
 10
-134.444
 20
421.288
 11
-134.663
 21
421.232
  0
LINE
  8
0
 10
-134.663
 20
421.232
 11
-134.887
 21
421.204
  0
LINE
  8
0
 10
-134.887
 20
421.204
 11
-135.113
 21
421.204
  0
LINE
  8
0
 10
134.887
 20
421.204
 11
134.663
 21
421.232
  0
LINE
  8
0
 10
134.663
 20
421.232
 11
134.444
 21
421.288
  0
LINE
  8
0
 10
134.444
 20
421.288
 11
134.234
 21
421.371
  0
LINE
  8
0
 10
134.234
 20
421.371
 11
134.036
 21
421.48
  0
LINE
  8
0
 10
134.036
 20
421.48
 11
133.853
 21
421.613
  0
LINE
  8
0
 10
133.853
 20
421.613
 11
133.688
 21
421.768
  0
LINE
  8
0
 10
133.688
 20
421.768
 11
133.544
 21
421.942
  0
LINE
  8
0
 10
133.544
 20
421.942
 11
133.423
 21
422.133
  0
LINE
  8
0
 10
133.423
 20
422.133
 11
133.326
 21
422.337
  0
LINE
  8
0
 10
133.326
 20
422.337
 11
133.257
 21
422.552
  0
LINE
  8
0
 10
133.257
 20
422.552
 11
133.214
 21
422.774
  0
LINE
  8
0
 10
133.214
 20
422.774
 11
133.2
 21
423
  0
LINE
  8
0
 10
133.2
 20
423
 11
133.214
 21
423.226
  0
LINE
  8
0
 10
133.214
 20
423.226
 11
133.257
 21
423.448
  0
LINE
  8
0
 10
133.257
 20
423.448
 11
133.326
 21
423.663
  0
LINE
  8
0
 10
133.326
 20
423.663
 11
133.423
 21
423.867
  0
LINE
  8
0
 10
133.423
 20
423.867
 11
133.544
 21
424.058
  0
LINE
  8
0
 10
133.544
 20
424.058
 11
133.688
 21
424.232
  0
LINE
  8
0
 10
133.688
 20
424.232
 11
133.853
 21
424.387
  0
LINE
  8
0
 10
133.853
 20
424.387
 11
134.036
 21
424.52
  0
LINE
  8
0
 10
134.036
 20
424.52
 11
134.234
 21
424.629
  0
LINE
  8
0
 10
134.234
 20
424.629
 11
134.444
 21
424.712
  0
LINE
  8
0
 10
134.444
 20
424.712
 11
134.663
 21
424.768
  0
LINE
  8
0
 10
134.663
 20
424.768
 11
134.887
 21
424.796
  0
LINE
  8
0
 10
134.887
 20
424.796
 11
135.113
 21
424.796
  0
LINE
  8
0
 10
135.113
 20
424.796
 11
135.337
 21
424.768
  0
LINE
  8
0
 10
135.337
 20
424.768
 11
135.556
 21
424.712
  0
LINE
  8
0
 10
135.556
 20
424.712
 11
135.766
 21
424.629
  0
LINE
  8
0
 10
135.766
 20
424.629
 11
135.964
 21
424.52
  0
LINE
  8
0
 10
135.964
 20
424.52
 11
136.147
 21
424.387
  0
LINE
  8
0
 10
136.147
 20
424.387
 11
136.312
 21
424.232
  0
LINE
  8
0
 10
136.312
 20
424.232
 11
136.456
 21
424.058
  0
LINE
  8
0
 10
136.456
 20
424.058
 11
136.577
 21
423.867
  0
LINE
  8
0
 10
136.577
 20
423.867
 11
136.674
 21
423.663
  0
LINE
  8
0
 10
136.674
 20
423.663
 11
136.743
 21
423.448
  0
LINE
  8
0
 10
136.743
 20
423.448
 11
136.786
 21
423.226
  0
LINE
  8
0
 10
136.786
 20
423.226
 11
136.8
 21
423
  0
LINE
  8
0
 10
136.8
 20
423
 11
136.786
 21
422.774
  0
LINE
  8
0
 10
136.786
 20
422.774
 11
136.743
 21
422.552
  0
LINE
  8
0
 10
136.743
 20
422.552
 11
136.674
 21
422.337
  0
LINE
  8
0
 10
136.674
 20
422.337
 11
136.577
 21
422.133
  0
LINE
  8
0
 10
136.577
 20
422.133
 11
136.456
 21
421.942
  0
LINE
  8
0
 10
136.456
 20
421.942
 11
136.312
 21
421.768
  0
LINE
  8
0
 10
136.312
 20
421.768
 11
136.147
 21
421.613
  0
LINE
  8
0
 10
136.147
 20
421.613
 11
135.964
 21
421.48
  0
LINE
  8
0
 10
135.964
 20
421.48
 11
135.766
 21
421.371
  0
LINE
  8
0
 10
135.766
 20
421.371
 11
135.556
 21
421.288
  0
LINE
  8
0
 10
135.556
 20
421.288
 11
135.337
 21
421.232
  0
LINE
  8
0
 10
135.337
 20
421.232
 11
135.113
 21
421.204
  0
LINE
  8
0
 10
135.113
 20
421.204
 11
134.887
 21
421.204
  0
LINE
  8
0
 10
-135.113
 20
271.204
 11
-135.337
 21
271.232
  0
LINE
  8
0
 10
-135.337
 20
271.232
 11
-135.556
 21
271.288
  0
LINE
  8
0
 10
-135.556
 20
271.288
 11
-135.766
 21
271.371
  0
LINE
  8
0
 10
-135.766
 20
271.371
 11
-135.964
 21
271.48
  0
LINE
  8
0
 10
-135.964
 20
271.48
 11
-136.147
 21
271.613
  0
LINE
  8
0
 10
-136.147
 20
271.613
 11
-136.312
 21
271.768
  0
LINE
  8
0
 10
-136.312
 20
271.768
 11
-136.456
 21
271.942
  0
LINE
  8
0
 10
-136.456
 20
271.942
 11
-136.577
 21
272.133
  0
LINE
  8
0
 10
-136.577
 20
272.133
 11
-136.674
 21
272.337
  0
LINE
  8
0
 10
-136.674
 20
272.337
 11
-136.743
 21
272.552
  0
LINE
  8
0
 10
-136.743
 20
272.552
 11
-136.786
 21
272.774
  0
LINE
  8
0
 10
-136.786
 20
272.774
 11
-136.8
 21
273
  0
LINE
  8
0
 10
-136.8
 20
273
 11
-136.786
 21
273.226
  0
LINE
  8
0
 10
-136.786
 20
273.226
 11
-136.743
 21
273.448
  0
LINE
  8
0
 10
-136.743
 20
273.448
 11
-136.674
 21
273.663
  0
LINE
  8
0
 10
-136.674
 20
273.663
 11
-136.577
 21
273.867
  0
LINE
  8
0
 10
-136.577
 20
273.867
 11
-136.456
 21
274.058
  0
LINE
  8
0
 10
-136.456
 20
274.058
 11
-136.312
 21
274.232
  0
LINE
  8
0
 10
-136.312
 20
274.232
 11
-136.147
 21
274.387
  0
LINE
  8
0
 10
-136.147
 20
274.387
 11
-135.964
 21
274.52
  0
LINE
  8
0
 10
-135.964
 20
274.52
 11
-135.766
 21
274.629
  0
LINE
  8
0
 10
-135.766
 20
274.629
 11
-135.556
 21
274.712
  0
LINE
  8
0
 10
-135.556
 20
274.712
 11
-135.337
 21
274.768
  0
LINE
  8
0
 10
-135.337
 20
274.768
 11
-135.113
 21
274.796
  0
LINE
  8
0
 10
-135.113
 20
274.796
 11
-134.887
 21
274.796
  0
LINE
  8
0
 10
-134.887
 20
274.796
 11
-134.663
 21
274.768
  0
LINE
  8
0
 10
-134.663
 20
274.768
 11
-134.444
 21
274.712
  0
LINE
  8
0
 10
-134.444
 20
274.712
 11
-134.234
 21
274.629
  0
LINE
  8
0
 10
-134.234
 20
274.629
 11
-134.036
 21
274.52
  0
LINE
  8
0
 10
-134.036
 20
274.52
 11
-133.853
 21
274.387
  0
LINE
  8
0
 10
-133.853
 20
274.387
 11
-133.688
 21
274.232
  0
LINE
  8
0
 10
-133.688
 20
274.232
 11
-133.544
 21
274.058
  0
LINE
  8
0
 10
-133.544
 20
274.058
 11
-133.423
 21
273.867
  0
LINE
  8
0
 10
-133.423
 20
273.867
 11
-133.326
 21
273.663
  0
LINE
  8
0
 10
-133.326
 20
273.663
 11
-133.257
 21
273.448
  0
LINE
  8
0
 10
-133.257
 20
273.448
 11
-133.214
 21
273.226
  0
LINE
  8
0
 10
-133.214
 20
273.226
 11
-133.2
 21
273
  0
LINE
  8
0
 10
-133.2
 20
273
 11
-133.214
 21
272.774
  0
LINE
  8
0
 10
-133.214
 20
272.774
 11
-133.257
 21
272.552
  0
LINE
  8
0
 10
-133.257
 20
272.552
 11
-133.326
 21
272.337
  0
LINE
  8
0
 10
-133.326
 20
272.337
 11
-133.423
 21
272.133
  0
LINE
  8
0
 10
-133.423
 20
272.133
 11
-133.544
 21
271.942
  0
LINE
  8
0
 10
-133.544
 20
271.942
 11
-133.688
 21
271.768
  0
LINE
  8
0
 10
-133.688
 20
271.768
 11
-133.853
 21
271.613
  0
LINE
  8
0
 10
-133.853
 20
271.613
 11
-134.036
 21
271.48
  0
LINE
  8
0
 10
-134.036
 20
271.48
 11
-134.234
 21
271.371
  0
LINE
  8
0
 10
-134.234
 20
271.371
 11
-134.444
 21
271.288
  0
LINE
  8
0
 10
-134.444
 20
271.288
 11
-134.663
 21
271.232
  0
LINE
  8
0
 10
-134.663
 20
271.232
 11
-134.887
 21
271.204
  0
LINE
  8
0
 10
-134.887
 20
271.204
 11
-135.113
 21
271.204
  0
LINE
  8
0
 10
134.887
 20
271.204
 11
134.663
 21
271.232
  0
LINE
  8
0
 10
134.663
 20
271.232
 11
134.444
 21
271.288
  0
LINE
  8
0
 10
134.444
 20
271.288
 11
134.234
 21
271.371
  0
LINE
  8
0
 10
134.234
 20
271.371
 11
134.036
 21
271.48
  0
LINE
  8
0
 10
134.036
 20
271.48
 11
133.853
 21
271.613
  0
LINE
  8
0
 10
133.853
 20
271.613
 11
133.688
 21
271.768
  0
LINE
  8
0
 10
133.688
 20
271.768
 11
133.544
 21
271.942
  0
LINE
  8
0
 10
133.544
 20
271.942
 11
133.423
 21
272.133
  0
LINE
  8
0
 10
133.423
 20
272.133
 11
133.326
 21
272.337
  0
LINE
  8
0
 10
133.326
 20
272.337
 11
133.257
 21
272.552
  0
LINE
  8
0
 10
133.257
 20
272.552
 11
133.214
 21
272.774
  0
LINE
  8
0
 10
133.214
 20
272.774
 11
133.2
 21
273
  0
LINE
  8
0
 10
133.2
 20
273
 11
133.214
 21
273.226
  0
LINE
  8
0
 10
133.214
 20
273.226
 11
133.257
 21
273.448
  0
LINE
  8
0
 10
133.257
 20
273.448
 11
133.326
 21
273.663
  0
LINE
  8
0
 10
133.326
 20
273.663
 11
133.423
 21
273.867
  0
LINE
  8
0
 10
133.423
 20
273.867
 11
133.544
 21
274.058
  0
LINE
  8
0
 10
133.544
 20
274.058
 11
133.688
 21
274.232
  0
LINE
  8
0
 10
133.688
 20
274.232
 11
133.853
 21
274.387
  0
LINE
  8
0
 10
133.853
 20
274.387
 11
134.036
 21
274.52
  0
LINE
  8
0
 10
134.036
 20
274.52
 11
134.234
 21
274.629
  0
LINE
  8
0
 10
134.234
 20
274.629
 11
134.444
 21
274.712
  0
LINE
  8
0
 10
134.444
 20
274.712
 11
134.663
 21
274.768
  0
LINE
  8
0
 10
134.663
 20
274.768
 11
134.887
 21
274.796
  0
LINE
  8
0
 10
134.887
 20
274.796
 11
135.113
 21
274.796
  0
LINE
  8
0
 10
135.113
 20
274.796
 11
135.337
 21
274.768
  0
LINE
  8
0
 10
135.337
 20
274.768
 11
135.556
 21
274.712
  0
LINE
  8
0
 10
135.556
 20
274.712
 11
135.766
 21
274.629
  0
LINE
  8
0
 10
135.766
 20
274.629
 11
135.964
 21
274.52
  0
LINE
  8
0
 10
135.964
 20
274.52
 11
136.147
 21
274.387
  0
LINE
  8
0
 10
136.147
 20
274.387
 11
136.312
 21
274.232
  0
LINE
  8
0
 10
136.312
 20
274.232
 11
136.456
 21
274.058
  0
LINE
  8
0
 10
136.456
 20
274.058
 11
136.577
 21
273.867
  0
LINE
  8
0
 10
136.577
 20
273.867
 11
136.674
 21
273.663
  0
LINE
  8
0
 10
136.674
 20
273.663
 11
136.743
 21
273.448
  0
LINE
  8
0
 10
136.743
 20
273.448
 11
136.786
 21
273.226
  0
LINE
  8
0
 10
136.786
 20
273.226
 11
136.8
 21
273
  0
LINE
  8
0
 10
136.8
 20
273
 11
136.786
 21
272.774
  0
LINE
  8
0
 10
136.786
 20
272.774
 11
136.743
 21
272.552
  0
LINE
  8
0
 10
136.743
 20
272.552
 11
136.674
 21
272.337
  0
LINE
  8
0
 10
136.674
 20
272.337
 11
136.577
 21
272.133
  0
LINE
  8
0
 10
136.577
 20
272.133
 11
136.456
 21
271.942
  0
LINE
  8
0
 10
136.456
 20
271.942
 11
136.312
 21
271.768
  0
LINE
  8
0
 10
136.312
 20
271.768
 11
136.147
 21
271.613
  0
LINE
  8
0
 10
136.147
 20
271.613
 11
135.964
 21
271.48
  0
LINE
  8
0
 10
135.964
 20
271.48
 11
135.766
 21
271.371
  0
LINE
  8
0
 10
135.766
 20
271.371
 11
135.556
 21
271.288
  0
LINE
  8
0
 10
135.556
 20
271.288
 11
135.337
 21
271.232
  0
LINE
  8
0
 10
135.337
 20
271.232
 11
135.113
 21
271.204
  0
LINE
  8
0
 10
135.113
 20
271.204
 11
134.887
 21
271.204
  0
ENDSEC
  0
SECTION
  2
OBJECTS
  0
DICTIONARY
  0
ENDSEC
  0
EOF
