<?xml version="1.0" standalone="no"?>
<!DOCTYPE svg PUBLIC "-//W3C//DTD SVG 1.1//EN" "http://www.w3.org/Graphics/SVG/1.1/DTD/svg11.dtd">
<svg width="242mm" height="627mm" viewBox="-122 -1029 242 627" xmlns="http://www.w3.org/2000/svg" version="1.1">
<title>OpenSCAD Model</title>
<path d="
M -118.5,-880.441 L -118.187,-880.147 L -117.679,-879.778 L -117.129,-879.476 L -116.545,-879.245 L -115.937,-879.089
 L -115.314,-879.01 L 115.314,-879.01 L 115.937,-879.089 L 116.545,-879.245 L 117.129,-879.476 L 117.679,-879.778
 L 118.187,-880.147 L 118.645,-880.577 L 119.045,-881.061 L 119.382,-881.591 L 119.649,-882.159 L 119.843,-882.757
 L 119.961,-883.373 L 120,-884 L 120,-1024 L 119.961,-1024.63 L 119.843,-1025.24 L 119.649,-1025.84
 L 119.382,-1026.41 L 119.045,-1026.94 L 118.645,-1027.42 L 118.187,-1027.85 L 117.679,-1028.22 L 117.129,-1028.52
 L 116.545,-1028.76 L 115.937,-1028.91 L 115.314,-1028.99 L -115.314,-1028.99 L -115.937,-1028.91 L -116.545,-1028.76
 L -117.129,-1028.52 L -117.679,-1028.22 L -118.187,-1027.85 L -118.5,-1027.56 L -118.5,-1028.99 L -121.5,-1028.99
 L -121.5,-879.01 L -118.5,-879.01 z
M -114.751,-880.508 L -115.25,-880.571 L -115.736,-880.696 L -116.203,-880.881 L -116.643,-881.123 L -117.05,-881.418
 L -117.416,-881.762 L -117.736,-882.149 L -118.005,-882.573 L -118.219,-883.028 L -118.374,-883.505 L -118.468,-883.999
 L -118.5,-884.5 L -118.5,-1023.5 L -118.468,-1024 L -118.374,-1024.49 L -118.219,-1024.97 L -118.005,-1025.43
 L -117.736,-1025.85 L -117.416,-1026.24 L -117.05,-1026.58 L -116.643,-1026.88 L -116.203,-1027.12 L -115.736,-1027.3
 L -115.25,-1027.43 L -114.751,-1027.49 L 114.751,-1027.49 L 115.25,-1027.43 L 115.736,-1027.3 L 116.203,-1027.12
 L 116.643,-1026.88 L 117.05,-1026.58 L 117.416,-1026.24 L 117.736,-1025.85 L 118.005,-1025.43 L 118.219,-1024.97
 L 118.374,-1024.49 L 118.468,-1024 L 118.5,-1023.5 L 118.5,-884.5 L 118.468,-883.999 L 118.374,-883.505
 L 118.219,-883.028 L 118.005,-882.573 L 117.736,-882.149 L 117.416,-881.762 L 117.05,-881.418 L 116.643,-881.123
 L 116.203,-880.881 L 115.736,-880.696 L 115.25,-880.571 L 114.751,-880.508 z
M -118.5,-721.441 L -118.187,-721.147 L -117.679,-720.778 L -117.129,-720.476 L -116.545,-720.245 L -115.937,-720.089
 L -115.314,-720.01 L 115.314,-720.01 L 115.937,-720.089 L 116.545,-720.245 L 117.129,-720.476 L 117.679,-720.778
 L 118.187,-721.147 L 118.645,-721.577 L 119.045,-722.061 L 119.382,-722.591 L 119.649,-723.159 L 119.843,-723.757
 L 119.961,-724.373 L 120,-725 L 120,-865 L 119.961,-865.627 L 119.843,-866.243 L 119.649,-866.841
 L 119.382,-867.409 L 119.045,-867.939 L 118.645,-868.423 L 118.187,-868.853 L 117.679,-869.222 L 117.129,-869.524
 L 116.545,-869.755 L 115.937,-869.911 L 115.314,-869.99 L -115.314,-869.99 L -115.937,-869.911 L -116.545,-869.755
 L -117.129,-869.524 L -117.679,-869.222 L -118.187,-868.853 L -118.5,-868.559 L -118.5,-869.99 L -121.5,-869.99
 L -121.5,-720.01 L -118.5,-720.01 z
M -114.743,-721.635 L -115.226,-721.696 L -115.697,-721.817 L -116.149,-721.996 L -116.575,-722.23 L -116.969,-722.516
 L -117.323,-722.849 L -117.633,-723.224 L -117.894,-723.634 L -118.101,-724.074 L -118.251,-724.537 L -118.342,-725.015
 L -118.373,-725.5 L -118.373,-864.5 L -118.342,-864.985 L -118.251,-865.463 L -118.101,-865.926 L -117.894,-866.366
 L -117.633,-866.776 L -117.323,-867.151 L -116.969,-867.484 L -116.575,-867.77 L -116.149,-868.004 L -115.697,-868.183
 L -115.226,-868.304 L -114.743,-868.365 L 114.743,-868.365 L 115.226,-868.304 L 115.697,-868.183 L 116.149,-868.004
 L 116.575,-867.77 L 116.969,-867.484 L 117.323,-867.151 L 117.633,-866.776 L 117.894,-866.366 L 118.101,-865.926
 L 118.251,-865.463 L 118.342,-864.985 L 118.373,-864.5 L 118.373,-725.5 L 118.342,-725.015 L 118.251,-724.537
 L 118.101,-724.074 L 117.894,-723.634 L 117.633,-723.224 L 117.323,-722.849 L 116.969,-722.516 L 116.575,-722.23
 L 116.149,-721.996 L 115.697,-721.817 L 115.226,-721.696 L 114.743,-721.635 z
M 115.937,-561.089 L 116.545,-561.245 L 117.129,-561.476 L 117.679,-561.778 L 118.187,-562.147 L 118.645,-562.577
 L 119.045,-563.061 L 119.382,-563.591 L 119.649,-564.159 L 119.843,-564.757 L 119.961,-565.373 L 120,-566
 L 120,-706 L 119.961,-706.627 L 119.843,-707.243 L 119.649,-707.841 L 119.382,-708.409 L 119.045,-708.939
 L 118.645,-709.423 L 118.187,-709.853 L 117.679,-710.222 L 117.129,-710.524 L 116.545,-710.755 L 115.937,-710.911
 L 115.314,-710.99 L -115.314,-710.99 L -115.937,-710.911 L -116.545,-710.755 L -117.129,-710.524 L -117.679,-710.222
 L -118.187,-709.853 L -118.5,-709.559 L -118.5,-710.615 L -121.5,-710.615 L -121.5,-561.385 L -118.5,-561.385
 L -118.5,-562.441 L -118.187,-562.147 L -117.679,-561.778 L -117.129,-561.476 L -116.545,-561.245 L -115.937,-561.089
 L -115.314,-561.01 L 115.314,-561.01 z
M 112.349,-701.105 L 112.05,-701.143 L 111.758,-701.217 L 111.478,-701.328 L 111.214,-701.474 L 110.97,-701.651
 L 110.75,-701.857 L 110.558,-702.089 L 110.397,-702.344 L 110.269,-702.617 L 110.175,-702.903 L 110.119,-703.199
 L 110.1,-703.5 L 110.119,-703.801 L 110.175,-704.097 L 110.269,-704.383 L 110.397,-704.656 L 110.558,-704.911
 L 110.75,-705.143 L 110.97,-705.349 L 111.214,-705.526 L 111.478,-705.672 L 111.758,-705.783 L 112.05,-705.857
 L 112.349,-705.895 L 112.651,-705.895 L 112.95,-705.857 L 113.242,-705.783 L 113.522,-705.672 L 113.786,-705.526
 L 114.03,-705.349 L 114.25,-705.143 L 114.442,-704.911 L 114.603,-704.656 L 114.731,-704.383 L 114.825,-704.097
 L 114.881,-703.801 L 114.9,-703.5 L 114.881,-703.199 L 114.825,-702.903 L 114.731,-702.617 L 114.603,-702.344
 L 114.442,-702.089 L 114.25,-701.857 L 114.03,-701.651 L 113.786,-701.474 L 113.522,-701.328 L 113.242,-701.217
 L 112.95,-701.143 L 112.651,-701.105 z
M -112.651,-701.105 L -112.95,-701.143 L -113.242,-701.217 L -113.522,-701.328 L -113.786,-701.474 L -114.03,-701.651
 L -114.25,-701.857 L -114.442,-702.089 L -114.603,-702.344 L -114.731,-702.617 L -114.825,-702.903 L -114.881,-703.199
 L -114.9,-703.5 L -114.881,-703.801 L -114.825,-704.097 L -114.731,-704.383 L -114.603,-704.656 L -114.442,-704.911
 L -114.25,-705.143 L -114.03,-705.349 L -113.786,-705.526 L -113.522,-705.672 L -113.242,-705.783 L -112.95,-705.857
 L -112.651,-705.895 L -112.349,-705.895 L -112.05,-705.857 L -111.758,-705.783 L -111.478,-705.672 L -111.214,-705.526
 L -110.97,-705.349 L -110.75,-705.143 L -110.558,-704.911 L -110.397,-704.656 L -110.269,-704.383 L -110.175,-704.097
 L -110.119,-703.801 L -110.1,-703.5 L -110.119,-703.199 L -110.175,-702.903 L -110.269,-702.617 L -110.397,-702.344
 L -110.558,-702.089 L -110.75,-701.857 L -110.97,-701.651 L -111.214,-701.474 L -111.478,-701.328 L -111.758,-701.217
 L -112.05,-701.143 L -112.349,-701.105 z
M 112.349,-566.105 L 112.05,-566.143 L 111.758,-566.217 L 111.478,-566.328 L 111.214,-566.474 L 110.97,-566.651
 L 110.75,-566.857 L 110.558,-567.089 L 110.397,-567.344 L 110.269,-567.617 L 110.175,-567.903 L 110.119,-568.199
 L 110.1,-568.5 L 110.119,-568.801 L 110.175,-569.097 L 110.269,-569.383 L 110.397,-569.656 L 110.558,-569.911
 L 110.75,-570.143 L 110.97,-570.349 L 111.214,-570.526 L 111.478,-570.672 L 111.758,-570.783 L 112.05,-570.857
 L 112.349,-570.895 L 112.651,-570.895 L 112.95,-570.857 L 113.242,-570.783 L 113.522,-570.672 L 113.786,-570.526
 L 114.03,-570.349 L 114.25,-570.143 L 114.442,-569.911 L 114.603,-569.656 L 114.731,-569.383 L 114.825,-569.097
 L 114.881,-568.801 L 114.9,-568.5 L 114.881,-568.199 L 114.825,-567.903 L 114.731,-567.617 L 114.603,-567.344
 L 114.442,-567.089 L 114.25,-566.857 L 114.03,-566.651 L 113.786,-566.474 L 113.522,-566.328 L 113.242,-566.217
 L 112.95,-566.143 L 112.651,-566.105 z
M -112.651,-566.105 L -112.95,-566.143 L -113.242,-566.217 L -113.522,-566.328 L -113.786,-566.474 L -114.03,-566.651
 L -114.25,-566.857 L -114.442,-567.089 L -114.603,-567.344 L -114.731,-567.617 L -114.825,-567.903 L -114.881,-568.199
 L -114.9,-568.5 L -114.881,-568.801 L -114.825,-569.097 L -114.731,-569.383 L -114.603,-569.656 L -114.442,-569.911
 L -114.25,-570.143 L -114.03,-570.349 L -113.786,-570.526 L -113.522,-570.672 L -113.242,-570.783 L -112.95,-570.857
 L -112.651,-570.895 L -112.349,-570.895 L -112.05,-570.857 L -111.758,-570.783 L -111.478,-570.672 L -111.214,-570.526
 L -110.97,-570.349 L -110.75,-570.143 L -110.558,-569.911 L -110.397,-569.656 L -110.269,-569.383 L -110.175,-569.097
 L -110.119,-568.801 L -110.1,-568.5 L -110.119,-568.199 L -110.175,-567.903 L -110.269,-567.617 L -110.397,-567.344
 L -110.558,-567.089 L -110.75,-566.857 L -110.97,-566.651 L -111.214,-566.474 L -111.478,-566.328 L -111.758,-566.217
 L -112.05,-566.143 L -112.349,-566.105 z
M 115.937,-402.089 L 116.545,-402.245 L 117.129,-402.476 L 117.679,-402.778 L 118.187,-403.147 L 118.645,-403.577
 L 119.045,-404.061 L 119.382,-404.591 L 119.649,-405.159 L 119.843,-405.757 L 119.961,-406.373 L 120,-407
 L 120,-547 L 119.961,-547.627 L 119.843,-548.243 L 119.649,-548.841 L 119.382,-549.409 L 119.045,-549.939
 L 118.645,-550.423 L 118.187,-550.853 L 117.679,-551.222 L 117.129,-551.524 L 116.545,-551.755 L 115.937,-551.911
 L 115.314,-551.99 L -115.314,-551.99 L -115.937,-551.911 L -116.545,-551.755 L -117.129,-551.524 L -117.679,-551.222
 L -118.187,-550.853 L -118.645,-550.423 L -119.045,-549.939 L -119.382,-549.409 L -119.649,-548.841 L -119.843,-548.243
 L -119.9,-547.944 L -121.5,-547.944 L -121.5,-406.056 L -119.9,-406.056 L -119.843,-405.757 L -119.649,-405.159
 L -119.382,-404.591 L -119.045,-404.061 L -118.645,-403.577 L -118.187,-403.147 L -117.679,-402.778 L -117.129,-402.476
 L -116.545,-402.245 L -115.937,-402.089 L -115.314,-402.01 L 115.314,-402.01 z
M -112.613,-542.704 L -112.837,-542.732 L -113.056,-542.788 L -113.266,-542.871 L -113.464,-542.98 L -113.647,-543.113
 L -113.812,-543.268 L -113.956,-543.442 L -114.077,-543.633 L -114.174,-543.837 L -114.243,-544.052 L -114.286,-544.274
 L -114.3,-544.5 L -114.286,-544.726 L -114.243,-544.948 L -114.174,-545.163 L -114.077,-545.367 L -113.956,-545.558
 L -113.812,-545.732 L -113.647,-545.887 L -113.464,-546.02 L -113.266,-546.129 L -113.056,-546.212 L -112.837,-546.268
 L -112.613,-546.296 L -112.387,-546.296 L -112.163,-546.268 L -111.944,-546.212 L -111.734,-546.129 L -111.536,-546.02
 L -111.353,-545.887 L -111.188,-545.732 L -111.044,-545.558 L -110.923,-545.367 L -110.826,-545.163 L -110.757,-544.948
 L -110.714,-544.726 L -110.7,-544.5 L -110.714,-544.274 L -110.757,-544.052 L -110.826,-543.837 L -110.923,-543.633
 L -111.044,-543.442 L -111.188,-543.268 L -111.353,-543.113 L -111.536,-542.98 L -111.734,-542.871 L -111.944,-542.788
 L -112.163,-542.732 L -112.387,-542.704 z
M 112.387,-542.704 L 112.163,-542.732 L 111.944,-542.788 L 111.734,-542.871 L 111.536,-542.98 L 111.353,-543.113
 L 111.188,-543.268 L 111.044,-543.442 L 110.923,-543.633 L 110.826,-543.837 L 110.757,-544.052 L 110.714,-544.274
 L 110.7,-544.5 L 110.714,-544.726 L 110.757,-544.948 L 110.826,-545.163 L 110.923,-545.367 L 111.044,-545.558
 L 111.188,-545.732 L 111.353,-545.887 L 111.536,-546.02 L 111.734,-546.129 L 111.944,-546.212 L 112.163,-546.268
 L 112.387,-546.296 L 112.613,-546.296 L 112.837,-546.268 L 113.056,-546.212 L 113.266,-546.129 L 113.464,-546.02
 L 113.647,-545.887 L 113.812,-545.732 L 113.956,-545.558 L 114.077,-545.367 L 114.174,-545.163 L 114.243,-544.948
 L 114.286,-544.726 L 114.3,-544.5 L 114.286,-544.274 L 114.243,-544.052 L 114.174,-543.837 L 114.077,-543.633
 L 113.956,-543.442 L 113.812,-543.268 L 113.647,-543.113 L 113.464,-542.98 L 113.266,-542.871 L 113.056,-542.788
 L 112.837,-542.732 L 112.613,-542.704 z
M -112.613,-407.704 L -112.837,-407.732 L -113.056,-407.788 L -113.266,-407.871 L -113.464,-407.98 L -113.647,-408.113
 L -113.812,-408.268 L -113.956,-408.442 L -114.077,-408.633 L -114.174,-408.837 L -114.243,-409.052 L -114.286,-409.274
 L -114.3,-409.5 L -114.286,-409.726 L -114.243,-409.948 L -114.174,-410.163 L -114.077,-410.367 L -113.956,-410.558
 L -113.812,-410.732 L -113.647,-410.887 L -113.464,-411.02 L -113.266,-411.129 L -113.056,-411.212 L -112.837,-411.268
 L -112.613,-411.296 L -112.387,-411.296 L -112.163,-411.268 L -111.944,-411.212 L -111.734,-411.129 L -111.536,-411.02
 L -111.353,-410.887 L -111.188,-410.732 L -111.044,-410.558 L -110.923,-410.367 L -110.826,-410.163 L -110.757,-409.948
 L -110.714,-409.726 L -110.7,-409.5 L -110.714,-409.274 L -110.757,-409.052 L -110.826,-408.837 L -110.923,-408.633
 L -111.044,-408.442 L -111.188,-408.268 L -111.353,-408.113 L -111.536,-407.98 L -111.734,-407.871 L -111.944,-407.788
 L -112.163,-407.732 L -112.387,-407.704 z
M 112.387,-407.704 L 112.163,-407.732 L 111.944,-407.788 L 111.734,-407.871 L 111.536,-407.98 L 111.353,-408.113
 L 111.188,-408.268 L 111.044,-408.442 L 110.923,-408.633 L 110.826,-408.837 L 110.757,-409.052 L 110.714,-409.274
 L 110.7,-409.5 L 110.714,-409.726 L 110.757,-409.948 L 110.826,-410.163 L 110.923,-410.367 L 111.044,-410.558
 L 111.188,-410.732 L 111.353,-410.887 L 111.536,-411.02 L 111.734,-411.129 L 111.944,-411.212 L 112.163,-411.268
 L 112.387,-411.296 L 112.613,-411.296 L 112.837,-411.268 L 113.056,-411.212 L 113.266,-411.129 L 113.464,-411.02
 L 113.647,-410.887 L 113.812,-410.732 L 113.956,-410.558 L 114.077,-410.367 L 114.174,-410.163 L 114.243,-409.948
 L 114.286,-409.726 L 114.3,-409.5 L 114.286,-409.274 L 114.243,-409.052 L 114.174,-408.837 L 114.077,-408.633
 L 113.956,-408.442 L 113.812,-408.268 L 113.647,-408.113 L 113.464,-407.98 L 113.266,-407.871 L 113.056,-407.788
 L 112.837,-407.732 L 112.613,-407.704 z
" stroke="black" fill="lightgray" stroke-width="0.5"/>
</svg>
