<?xml version="1.0" standalone="no"?>
<!DOCTYPE svg PUBLIC "-//W3C//DTD SVG 1.1//EN" "http://www.w3.org/Graphics/SVG/1.1/DTD/svg11.dtd">
<svg width="240mm" height="267mm" viewBox="-120 -444 240 267" xmlns="http://www.w3.org/2000/svg" version="1.1">
<title>OpenSCAD Model</title>
<path d="
M 115.937,-384.089 L 116.545,-384.245 L 117.129,-384.476 L 117.679,-384.778 L 118.187,-385.147 L 118.645,-385.577
 L 119.045,-386.061 L 119.382,-386.591 L 119.649,-387.159 L 119.843,-387.757 L 119.961,-388.373 L 120,-389
 L 120,-439 L 119.961,-439.627 L 119.843,-440.243 L 119.649,-440.841 L 119.382,-441.409 L 119.045,-441.939
 L 118.645,-442.423 L 118.187,-442.853 L 117.679,-443.222 L 117.129,-443.524 L 116.545,-443.755 L 115.937,-443.911
 L 115.314,-443.99 L -115.314,-443.99 L -115.937,-443.911 L -116.545,-443.755 L -117.129,-443.524 L -117.679,-443.222
 L -118.187,-442.853 L -118.645,-442.423 L -119.045,-441.939 L -119.382,-441.409 L -119.649,-440.841 L -119.843,-440.243
 L -119.961,-439.627 L -120,-439 L -120,-389 L -119.961,-388.373 L -119.843,-387.757 L -119.649,-387.159
 L -119.382,-386.591 L -119.045,-386.061 L -118.645,-385.577 L -118.187,-385.147 L -117.679,-384.778 L -117.129,-384.476
 L -116.545,-384.245 L -115.937,-384.089 L -115.314,-384.01 L 115.314,-384.01 z
M -115.048,-384.509 L -115.64,-384.584 L -116.218,-384.732 L -116.772,-384.952 L -117.295,-385.239 L -117.778,-385.59
 L -118.213,-385.998 L -118.593,-386.458 L -118.912,-386.962 L -119.166,-387.501 L -119.351,-388.069 L -119.463,-388.655
 L -119.5,-389.25 L -119.5,-438.75 L -119.463,-439.345 L -119.351,-439.931 L -119.166,-440.499 L -118.912,-441.038
 L -118.593,-441.542 L -118.213,-442.002 L -117.778,-442.41 L -117.295,-442.761 L -116.772,-443.048 L -116.218,-443.268
 L -115.64,-443.416 L -115.048,-443.491 L 115.048,-443.491 L 115.64,-443.416 L 116.218,-443.268 L 116.772,-443.048
 L 117.295,-442.761 L 117.778,-442.41 L 118.213,-442.002 L 118.593,-441.542 L 118.912,-441.038 L 119.166,-440.499
 L 119.351,-439.931 L 119.463,-439.345 L 119.5,-438.75 L 119.5,-389.25 L 119.463,-388.655 L 119.351,-388.069
 L 119.166,-387.501 L 118.912,-386.962 L 118.593,-386.458 L 118.213,-385.998 L 117.778,-385.59 L 117.295,-385.239
 L 116.772,-384.952 L 116.218,-384.732 L 115.64,-384.584 L 115.048,-384.509 z
M 115.937,-315.089 L 116.545,-315.245 L 117.129,-315.476 L 117.679,-315.778 L 118.187,-316.147 L 118.645,-316.577
 L 119.045,-317.061 L 119.382,-317.591 L 119.649,-318.159 L 119.843,-318.757 L 119.961,-319.373 L 120,-320
 L 120,-370 L 119.961,-370.627 L 119.843,-371.243 L 119.649,-371.841 L 119.382,-372.409 L 119.045,-372.939
 L 118.645,-373.423 L 118.187,-373.853 L 117.679,-374.222 L 117.129,-374.524 L 116.545,-374.755 L 115.937,-374.911
 L 115.314,-374.99 L -115.314,-374.99 L -115.937,-374.911 L -116.545,-374.755 L -117.129,-374.524 L -117.679,-374.222
 L -118.187,-373.853 L -118.645,-373.423 L -119.045,-372.939 L -119.382,-372.409 L -119.649,-371.841 L -119.843,-371.243
 L -119.961,-370.627 L -120,-370 L -120,-320 L -119.961,-319.373 L -119.843,-318.757 L -119.649,-318.159
 L -119.382,-317.591 L -119.045,-317.061 L -118.645,-316.577 L -118.187,-316.147 L -117.679,-315.778 L -117.129,-315.476
 L -116.545,-315.245 L -115.937,-315.089 L -115.314,-315.01 L 115.314,-315.01 z
M -115.048,-315.509 L -115.64,-315.584 L -116.218,-315.732 L -116.772,-315.952 L -117.295,-316.239 L -117.778,-316.59
 L -118.213,-316.998 L -118.593,-317.458 L -118.912,-317.962 L -119.166,-318.501 L -119.351,-319.069 L -119.463,-319.655
 L -119.5,-320.25 L -119.5,-369.75 L -119.463,-370.345 L -119.351,-370.931 L -119.166,-371.499 L -118.912,-372.038
 L -118.593,-372.542 L -118.213,-373.002 L -117.778,-373.41 L -117.295,-373.761 L -116.772,-374.048 L -116.218,-374.268
 L -115.64,-374.416 L -115.048,-374.491 L 115.048,-374.491 L 115.64,-374.416 L 116.218,-374.268 L 116.772,-374.048
 L 117.295,-373.761 L 117.778,-373.41 L 118.213,-373.002 L 118.593,-372.542 L 118.912,-372.038 L 119.166,-371.499
 L 119.351,-370.931 L 119.463,-370.345 L 119.5,-369.75 L 119.5,-320.25 L 119.463,-319.655 L 119.351,-319.069
 L 119.166,-318.501 L 118.912,-317.962 L 118.593,-317.458 L 118.213,-316.998 L 117.778,-316.59 L 117.295,-316.239
 L 116.772,-315.952 L 116.218,-315.732 L 115.64,-315.584 L 115.048,-315.509 z
M 115.937,-246.089 L 116.545,-246.245 L 117.129,-246.476 L 117.679,-246.778 L 118.187,-247.147 L 118.645,-247.577
 L 119.045,-248.061 L 119.382,-248.591 L 119.649,-249.159 L 119.843,-249.757 L 119.961,-250.373 L 120,-251
 L 120,-301 L 119.961,-301.627 L 119.843,-302.243 L 119.649,-302.841 L 119.382,-303.409 L 119.045,-303.939
 L 118.645,-304.423 L 118.187,-304.853 L 117.679,-305.222 L 117.129,-305.524 L 116.545,-305.755 L 115.937,-305.911
 L 115.314,-305.99 L -115.314,-305.99 L -115.937,-305.911 L -116.545,-305.755 L -117.129,-305.524 L -117.679,-305.222
 L -118.187,-304.853 L -118.645,-304.423 L -119.045,-303.939 L -119.382,-303.409 L -119.649,-302.841 L -119.843,-302.243
 L -119.961,-301.627 L -120,-301 L -120,-251 L -119.961,-250.373 L -119.843,-249.757 L -119.649,-249.159
 L -119.382,-248.591 L -119.045,-248.061 L -118.645,-247.577 L -118.187,-247.147 L -117.679,-246.778 L -117.129,-246.476
 L -116.545,-246.245 L -115.937,-246.089 L -115.314,-246.01 L 115.314,-246.01 z
M -114.993,-247.388 L -115.475,-247.449 L -115.946,-247.57 L -116.398,-247.749 L -116.823,-247.983 L -117.216,-248.269
 L -117.571,-248.601 L -117.88,-248.976 L -118.141,-249.386 L -118.348,-249.826 L -118.498,-250.288 L -118.589,-250.765
 L -118.619,-251.25 L -118.619,-300.75 L -118.589,-301.235 L -118.498,-301.712 L -118.348,-302.174 L -118.141,-302.614
 L -117.88,-303.024 L -117.571,-303.399 L -117.216,-303.731 L -116.823,-304.017 L -116.398,-304.251 L -115.946,-304.43
 L -115.475,-304.551 L -114.993,-304.612 L 114.993,-304.612 L 115.475,-304.551 L 115.946,-304.43 L 116.398,-304.251
 L 116.823,-304.017 L 117.216,-303.731 L 117.571,-303.399 L 117.88,-303.024 L 118.141,-302.614 L 118.348,-302.174
 L 118.498,-301.712 L 118.589,-301.235 L 118.619,-300.75 L 118.619,-251.25 L 118.589,-250.765 L 118.498,-250.288
 L 118.348,-249.826 L 118.141,-249.386 L 117.88,-248.976 L 117.571,-248.601 L 117.216,-248.269 L 116.823,-247.983
 L 116.398,-247.749 L 115.946,-247.57 L 115.475,-247.449 L 114.993,-247.388 z
M 115.937,-177.089 L 116.545,-177.245 L 117.129,-177.476 L 117.679,-177.778 L 118.187,-178.147 L 118.645,-178.577
 L 119.045,-179.061 L 119.382,-179.591 L 119.649,-180.159 L 119.843,-180.757 L 119.961,-181.373 L 120,-182
 L 120,-232 L 119.961,-232.627 L 119.843,-233.243 L 119.649,-233.841 L 119.382,-234.409 L 119.045,-234.939
 L 118.645,-235.423 L 118.187,-235.853 L 117.679,-236.222 L 117.129,-236.524 L 116.545,-236.755 L 115.937,-236.911
 L 115.314,-236.99 L -115.314,-236.99 L -115.937,-236.911 L -116.545,-236.755 L -117.129,-236.524 L -117.679,-236.222
 L -118.187,-235.853 L -118.645,-235.423 L -119.045,-234.939 L -119.382,-234.409 L -119.649,-233.841 L -119.843,-233.243
 L -119.961,-232.627 L -120,-232 L -120,-182 L -119.961,-181.373 L -119.843,-180.757 L -119.649,-180.159
 L -119.382,-179.591 L -119.045,-179.061 L -118.645,-178.577 L -118.187,-178.147 L -117.679,-177.778 L -117.129,-177.476
 L -116.545,-177.245 L -115.937,-177.089 L -115.314,-177.01 L 115.314,-177.01 z
M -112.613,-227.704 L -112.837,-227.732 L -113.056,-227.788 L -113.266,-227.871 L -113.464,-227.98 L -113.647,-228.113
 L -113.812,-228.268 L -113.956,-228.442 L -114.077,-228.633 L -114.174,-228.837 L -114.243,-229.052 L -114.286,-229.274
 L -114.3,-229.5 L -114.286,-229.726 L -114.243,-229.948 L -114.174,-230.163 L -114.077,-230.367 L -113.956,-230.558
 L -113.812,-230.732 L -113.647,-230.887 L -113.464,-231.02 L -113.266,-231.129 L -113.056,-231.212 L -112.837,-231.268
 L -112.613,-231.296 L -112.387,-231.296 L -112.163,-231.268 L -111.944,-231.212 L -111.734,-231.129 L -111.536,-231.02
 L -111.353,-230.887 L -111.188,-230.732 L -111.044,-230.558 L -110.923,-230.367 L -110.826,-230.163 L -110.757,-229.948
 L -110.714,-229.726 L -110.7,-229.5 L -110.714,-229.274 L -110.757,-229.052 L -110.826,-228.837 L -110.923,-228.633
 L -111.044,-228.442 L -111.188,-228.268 L -111.353,-228.113 L -111.536,-227.98 L -111.734,-227.871 L -111.944,-227.788
 L -112.163,-227.732 L -112.387,-227.704 z
M 112.387,-227.704 L 112.163,-227.732 L 111.944,-227.788 L 111.734,-227.871 L 111.536,-227.98 L 111.353,-228.113
 L 111.188,-228.268 L 111.044,-228.442 L 110.923,-228.633 L 110.826,-228.837 L 110.757,-229.052 L 110.714,-229.274
 L 110.7,-229.5 L 110.714,-229.726 L 110.757,-229.948 L 110.826,-230.163 L 110.923,-230.367 L 111.044,-230.558
 L 111.188,-230.732 L 111.353,-230.887 L 111.536,-231.02 L 111.734,-231.129 L 111.944,-231.212 L 112.163,-231.268
 L 112.387,-231.296 L 112.613,-231.296 L 112.837,-231.268 L 113.056,-231.212 L 113.266,-231.129 L 113.464,-231.02
 L 113.647,-230.887 L 113.812,-230.732 L 113.956,-230.558 L 114.077,-230.367 L 114.174,-230.163 L 114.243,-229.948
 L 114.286,-229.726 L 114.3,-229.5 L 114.286,-229.274 L 114.243,-229.052 L 114.174,-228.837 L 114.077,-228.633
 L 113.956,-228.442 L 113.812,-228.268 L 113.647,-228.113 L 113.464,-227.98 L 113.266,-227.871 L 113.056,-227.788
 L 112.837,-227.732 L 112.613,-227.704 z
M 112.387,-182.704 L 112.163,-182.732 L 111.944,-182.788 L 111.734,-182.871 L 111.536,-182.98 L 111.353,-183.113
 L 111.188,-183.268 L 111.044,-183.442 L 110.923,-183.633 L 110.826,-183.837 L 110.757,-184.052 L 110.714,-184.274
 L 110.7,-184.5 L 110.714,-184.726 L 110.757,-184.948 L 110.826,-185.163 L 110.923,-185.367 L 111.044,-185.558
 L 111.188,-185.732 L 111.353,-185.887 L 111.536,-186.02 L 111.734,-186.129 L 111.944,-186.212 L 112.163,-186.268
 L 112.387,-186.296 L 112.613,-186.296 L 112.837,-186.268 L 113.056,-186.212 L 113.266,-186.129 L 113.464,-186.02
 L 113.647,-185.887 L 113.812,-185.732 L 113.956,-185.558 L 114.077,-185.367 L 114.174,-185.163 L 114.243,-184.948
 L 114.286,-184.726 L 114.3,-184.5 L 114.286,-184.274 L 114.243,-184.052 L 114.174,-183.837 L 114.077,-183.633
 L 113.956,-183.442 L 113.812,-183.268 L 113.647,-183.113 L 113.464,-182.98 L 113.266,-182.871 L 113.056,-182.788
 L 112.837,-182.732 L 112.613,-182.704 z
M -112.613,-182.704 L -112.837,-182.732 L -113.056,-182.788 L -113.266,-182.871 L -113.464,-182.98 L -113.647,-183.113
 L -113.812,-183.268 L -113.956,-183.442 L -114.077,-183.633 L -114.174,-183.837 L -114.243,-184.052 L -114.286,-184.274
 L -114.3,-184.5 L -114.286,-184.726 L -114.243,-184.948 L -114.174,-185.163 L -114.077,-185.367 L -113.956,-185.558
 L -113.812,-185.732 L -113.647,-185.887 L -113.464,-186.02 L -113.266,-186.129 L -113.056,-186.212 L -112.837,-186.268
 L -112.613,-186.296 L -112.387,-186.296 L -112.163,-186.268 L -111.944,-186.212 L -111.734,-186.129 L -111.536,-186.02
 L -111.353,-185.887 L -111.188,-185.732 L -111.044,-185.558 L -110.923,-185.367 L -110.826,-185.163 L -110.757,-184.948
 L -110.714,-184.726 L -110.7,-184.5 L -110.714,-184.274 L -110.757,-184.052 L -110.826,-183.837 L -110.923,-183.633
 L -111.044,-183.442 L -111.188,-183.268 L -111.353,-183.113 L -111.536,-182.98 L -111.734,-182.871 L -111.944,-182.788
 L -112.163,-182.732 L -112.387,-182.704 z
" stroke="black" fill="lightgray" stroke-width="0.5"/>
</svg>
