  0
SECTION
  2
BLOCKS
  0
ENDSEC
  0
SECTION
  2
ENTITIES
  0
LINE
  8
0
 10
115.937
 20
384.089
 11
116.545
 21
384.245
  0
LINE
  8
0
 10
116.545
 20
384.245
 11
117.129
 21
384.476
  0
LINE
  8
0
 10
117.129
 20
384.476
 11
117.679
 21
384.778
  0
LINE
  8
0
 10
117.679
 20
384.778
 11
118.187
 21
385.147
  0
LINE
  8
0
 10
118.187
 20
385.147
 11
118.645
 21
385.577
  0
LINE
  8
0
 10
118.645
 20
385.577
 11
119.045
 21
386.061
  0
LINE
  8
0
 10
119.045
 20
386.061
 11
119.382
 21
386.591
  0
LINE
  8
0
 10
119.382
 20
386.591
 11
119.649
 21
387.159
  0
LINE
  8
0
 10
119.649
 20
387.159
 11
119.843
 21
387.757
  0
LINE
  8
0
 10
119.843
 20
387.757
 11
119.961
 21
388.373
  0
LINE
  8
0
 10
119.961
 20
388.373
 11
120
 21
389
  0
LINE
  8
0
 10
120
 20
389
 11
120
 21
439
  0
LINE
  8
0
 10
120
 20
439
 11
119.961
 21
439.627
  0
LINE
  8
0
 10
119.961
 20
439.627
 11
119.843
 21
440.243
  0
LINE
  8
0
 10
119.843
 20
440.243
 11
119.649
 21
440.841
  0
LINE
  8
0
 10
119.649
 20
440.841
 11
119.382
 21
441.409
  0
LINE
  8
0
 10
119.382
 20
441.409
 11
119.045
 21
441.939
  0
LINE
  8
0
 10
119.045
 20
441.939
 11
118.645
 21
442.423
  0
LINE
  8
0
 10
118.645
 20
442.423
 11
118.187
 21
442.853
  0
LINE
  8
0
 10
118.187
 20
442.853
 11
117.679
 21
443.222
  0
LINE
  8
0
 10
117.679
 20
443.222
 11
117.129
 21
443.524
  0
LINE
  8
0
 10
117.129
 20
443.524
 11
116.545
 21
443.755
  0
LINE
  8
0
 10
116.545
 20
443.755
 11
115.937
 21
443.911
  0
LINE
  8
0
 10
115.937
 20
443.911
 11
115.314
 21
443.99
  0
LINE
  8
0
 10
115.314
 20
443.99
 11
-115.314
 21
443.99
  0
LINE
  8
0
 10
-115.314
 20
443.99
 11
-115.937
 21
443.911
  0
LINE
  8
0
 10
-115.937
 20
443.911
 11
-116.545
 21
443.755
  0
LINE
  8
0
 10
-116.545
 20
443.755
 11
-117.129
 21
443.524
  0
LINE
  8
0
 10
-117.129
 20
443.524
 11
-117.679
 21
443.222
  0
LINE
  8
0
 10
-117.679
 20
443.222
 11
-118.187
 21
442.853
  0
LINE
  8
0
 10
-118.187
 20
442.853
 11
-118.645
 21
442.423
  0
LINE
  8
0
 10
-118.645
 20
442.423
 11
-119.045
 21
441.939
  0
LINE
  8
0
 10
-119.045
 20
441.939
 11
-119.382
 21
441.409
  0
LINE
  8
0
 10
-119.382
 20
441.409
 11
-119.649
 21
440.841
  0
LINE
  8
0
 10
-119.649
 20
440.841
 11
-119.843
 21
440.243
  0
LINE
  8
0
 10
-119.843
 20
440.243
 11
-119.961
 21
439.627
  0
LINE
  8
0
 10
-119.961
 20
439.627
 11
-120
 21
439
  0
LINE
  8
0
 10
-120
 20
439
 11
-120
 21
389
  0
LINE
  8
0
 10
-120
 20
389
 11
-119.961
 21
388.373
  0
LINE
  8
0
 10
-119.961
 20
388.373
 11
-119.843
 21
387.757
  0
LINE
  8
0
 10
-119.843
 20
387.757
 11
-119.649
 21
387.159
  0
LINE
  8
0
 10
-119.649
 20
387.159
 11
-119.382
 21
386.591
  0
LINE
  8
0
 10
-119.382
 20
386.591
 11
-119.045
 21
386.061
  0
LINE
  8
0
 10
-119.045
 20
386.061
 11
-118.645
 21
385.577
  0
LINE
  8
0
 10
-118.645
 20
385.577
 11
-118.187
 21
385.147
  0
LINE
  8
0
 10
-118.187
 20
385.147
 11
-117.679
 21
384.778
  0
LINE
  8
0
 10
-117.679
 20
384.778
 11
-117.129
 21
384.476
  0
LINE
  8
0
 10
-117.129
 20
384.476
 11
-116.545
 21
384.245
  0
LINE
  8
0
 10
-116.545
 20
384.245
 11
-115.937
 21
384.089
  0
LINE
  8
0
 10
-115.937
 20
384.089
 11
-115.314
 21
384.01
  0
LINE
  8
0
 10
-115.314
 20
384.01
 11
115.314
 21
384.01
  0
LINE
  8
0
 10
115.314
 20
384.01
 11
115.937
 21
384.089
  0
LINE
  8
0
 10
-115.048
 20
384.509
 11
-115.64
 21
384.584
  0
LINE
  8
0
 10
-115.64
 20
384.584
 11
-116.218
 21
384.732
  0
LINE
  8
0
 10
-116.218
 20
384.732
 11
-116.772
 21
384.952
  0
LINE
  8
0
 10
-116.772
 20
384.952
 11
-117.295
 21
385.239
  0
LINE
  8
0
 10
-117.295
 20
385.239
 11
-117.778
 21
385.59
  0
LINE
  8
0
 10
-117.778
 20
385.59
 11
-118.213
 21
385.998
  0
LINE
  8
0
 10
-118.213
 20
385.998
 11
-118.593
 21
386.458
  0
LINE
  8
0
 10
-118.593
 20
386.458
 11
-118.912
 21
386.962
  0
LINE
  8
0
 10
-118.912
 20
386.962
 11
-119.166
 21
387.501
  0
LINE
  8
0
 10
-119.166
 20
387.501
 11
-119.351
 21
388.069
  0
LINE
  8
0
 10
-119.351
 20
388.069
 11
-119.463
 21
388.655
  0
LINE
  8
0
 10
-119.463
 20
388.655
 11
-119.5
 21
389.25
  0
LINE
  8
0
 10
-119.5
 20
389.25
 11
-119.5
 21
438.75
  0
LINE
  8
0
 10
-119.5
 20
438.75
 11
-119.463
 21
439.345
  0
LINE
  8
0
 10
-119.463
 20
439.345
 11
-119.351
 21
439.931
  0
LINE
  8
0
 10
-119.351
 20
439.931
 11
-119.166
 21
440.499
  0
LINE
  8
0
 10
-119.166
 20
440.499
 11
-118.912
 21
441.038
  0
LINE
  8
0
 10
-118.912
 20
441.038
 11
-118.593
 21
441.542
  0
LINE
  8
0
 10
-118.593
 20
441.542
 11
-118.213
 21
442.002
  0
LINE
  8
0
 10
-118.213
 20
442.002
 11
-117.778
 21
442.41
  0
LINE
  8
0
 10
-117.778
 20
442.41
 11
-117.295
 21
442.761
  0
LINE
  8
0
 10
-117.295
 20
442.761
 11
-116.772
 21
443.048
  0
LINE
  8
0
 10
-116.772
 20
443.048
 11
-116.218
 21
443.268
  0
LINE
  8
0
 10
-116.218
 20
443.268
 11
-115.64
 21
443.416
  0
LINE
  8
0
 10
-115.64
 20
443.416
 11
-115.048
 21
443.491
  0
LINE
  8
0
 10
-115.048
 20
443.491
 11
115.048
 21
443.491
  0
LINE
  8
0
 10
115.048
 20
443.491
 11
115.64
 21
443.416
  0
LINE
  8
0
 10
115.64
 20
443.416
 11
116.218
 21
443.268
  0
LINE
  8
0
 10
116.218
 20
443.268
 11
116.772
 21
443.048
  0
LINE
  8
0
 10
116.772
 20
443.048
 11
117.295
 21
442.761
  0
LINE
  8
0
 10
117.295
 20
442.761
 11
117.778
 21
442.41
  0
LINE
  8
0
 10
117.778
 20
442.41
 11
118.213
 21
442.002
  0
LINE
  8
0
 10
118.213
 20
442.002
 11
118.593
 21
441.542
  0
LINE
  8
0
 10
118.593
 20
441.542
 11
118.912
 21
441.038
  0
LINE
  8
0
 10
118.912
 20
441.038
 11
119.166
 21
440.499
  0
LINE
  8
0
 10
119.166
 20
440.499
 11
119.351
 21
439.931
  0
LINE
  8
0
 10
119.351
 20
439.931
 11
119.463
 21
439.345
  0
LINE
  8
0
 10
119.463
 20
439.345
 11
119.5
 21
438.75
  0
LINE
  8
0
 10
119.5
 20
438.75
 11
119.5
 21
389.25
  0
LINE
  8
0
 10
119.5
 20
389.25
 11
119.463
 21
388.655
  0
LINE
  8
0
 10
119.463
 20
388.655
 11
119.351
 21
388.069
  0
LINE
  8
0
 10
119.351
 20
388.069
 11
119.166
 21
387.501
  0
LINE
  8
0
 10
119.166
 20
387.501
 11
118.912
 21
386.962
  0
LINE
  8
0
 10
118.912
 20
386.962
 11
118.593
 21
386.458
  0
LINE
  8
0
 10
118.593
 20
386.458
 11
118.213
 21
385.998
  0
LINE
  8
0
 10
118.213
 20
385.998
 11
117.778
 21
385.59
  0
LINE
  8
0
 10
117.778
 20
385.59
 11
117.295
 21
385.239
  0
LINE
  8
0
 10
117.295
 20
385.239
 11
116.772
 21
384.952
  0
LINE
  8
0
 10
116.772
 20
384.952
 11
116.218
 21
384.732
  0
LINE
  8
0
 10
116.218
 20
384.732
 11
115.64
 21
384.584
  0
LINE
  8
0
 10
115.64
 20
384.584
 11
115.048
 21
384.509
  0
LINE
  8
0
 10
115.048
 20
384.509
 11
-115.048
 21
384.509
  0
LINE
  8
0
 10
115.937
 20
315.089
 11
116.545
 21
315.245
  0
LINE
  8
0
 10
116.545
 20
315.245
 11
117.129
 21
315.476
  0
LINE
  8
0
 10
117.129
 20
315.476
 11
117.679
 21
315.778
  0
LINE
  8
0
 10
117.679
 20
315.778
 11
118.187
 21
316.147
  0
LINE
  8
0
 10
118.187
 20
316.147
 11
118.645
 21
316.577
  0
LINE
  8
0
 10
118.645
 20
316.577
 11
119.045
 21
317.061
  0
LINE
  8
0
 10
119.045
 20
317.061
 11
119.382
 21
317.591
  0
LINE
  8
0
 10
119.382
 20
317.591
 11
119.649
 21
318.159
  0
LINE
  8
0
 10
119.649
 20
318.159
 11
119.843
 21
318.757
  0
LINE
  8
0
 10
119.843
 20
318.757
 11
119.961
 21
319.373
  0
LINE
  8
0
 10
119.961
 20
319.373
 11
120
 21
320
  0
LINE
  8
0
 10
120
 20
320
 11
120
 21
370
  0
LINE
  8
0
 10
120
 20
370
 11
119.961
 21
370.627
  0
LINE
  8
0
 10
119.961
 20
370.627
 11
119.843
 21
371.243
  0
LINE
  8
0
 10
119.843
 20
371.243
 11
119.649
 21
371.841
  0
LINE
  8
0
 10
119.649
 20
371.841
 11
119.382
 21
372.409
  0
LINE
  8
0
 10
119.382
 20
372.409
 11
119.045
 21
372.939
  0
LINE
  8
0
 10
119.045
 20
372.939
 11
118.645
 21
373.423
  0
LINE
  8
0
 10
118.645
 20
373.423
 11
118.187
 21
373.853
  0
LINE
  8
0
 10
118.187
 20
373.853
 11
117.679
 21
374.222
  0
LINE
  8
0
 10
117.679
 20
374.222
 11
117.129
 21
374.524
  0
LINE
  8
0
 10
117.129
 20
374.524
 11
116.545
 21
374.755
  0
LINE
  8
0
 10
116.545
 20
374.755
 11
115.937
 21
374.911
  0
LINE
  8
0
 10
115.937
 20
374.911
 11
115.314
 21
374.99
  0
LINE
  8
0
 10
115.314
 20
374.99
 11
-115.314
 21
374.99
  0
LINE
  8
0
 10
-115.314
 20
374.99
 11
-115.937
 21
374.911
  0
LINE
  8
0
 10
-115.937
 20
374.911
 11
-116.545
 21
374.755
  0
LINE
  8
0
 10
-116.545
 20
374.755
 11
-117.129
 21
374.524
  0
LINE
  8
0
 10
-117.129
 20
374.524
 11
-117.679
 21
374.222
  0
LINE
  8
0
 10
-117.679
 20
374.222
 11
-118.187
 21
373.853
  0
LINE
  8
0
 10
-118.187
 20
373.853
 11
-118.645
 21
373.423
  0
LINE
  8
0
 10
-118.645
 20
373.423
 11
-119.045
 21
372.939
  0
LINE
  8
0
 10
-119.045
 20
372.939
 11
-119.382
 21
372.409
  0
LINE
  8
0
 10
-119.382
 20
372.409
 11
-119.649
 21
371.841
  0
LINE
  8
0
 10
-119.649
 20
371.841
 11
-119.843
 21
371.243
  0
LINE
  8
0
 10
-119.843
 20
371.243
 11
-119.961
 21
370.627
  0
LINE
  8
0
 10
-119.961
 20
370.627
 11
-120
 21
370
  0
LINE
  8
0
 10
-120
 20
370
 11
-120
 21
320
  0
LINE
  8
0
 10
-120
 20
320
 11
-119.961
 21
319.373
  0
LINE
  8
0
 10
-119.961
 20
319.373
 11
-119.843
 21
318.757
  0
LINE
  8
0
 10
-119.843
 20
318.757
 11
-119.649
 21
318.159
  0
LINE
  8
0
 10
-119.649
 20
318.159
 11
-119.382
 21
317.591
  0
LINE
  8
0
 10
-119.382
 20
317.591
 11
-119.045
 21
317.061
  0
LINE
  8
0
 10
-119.045
 20
317.061
 11
-118.645
 21
316.577
  0
LINE
  8
0
 10
-118.645
 20
316.577
 11
-118.187
 21
316.147
  0
LINE
  8
0
 10
-118.187
 20
316.147
 11
-117.679
 21
315.778
  0
LINE
  8
0
 10
-117.679
 20
315.778
 11
-117.129
 21
315.476
  0
LINE
  8
0
 10
-117.129
 20
315.476
 11
-116.545
 21
315.245
  0
LINE
  8
0
 10
-116.545
 20
315.245
 11
-115.937
 21
315.089
  0
LINE
  8
0
 10
-115.937
 20
315.089
 11
-115.314
 21
315.01
  0
LINE
  8
0
 10
-115.314
 20
315.01
 11
115.314
 21
315.01
  0
LINE
  8
0
 10
115.314
 20
315.01
 11
115.937
 21
315.089
  0
LINE
  8
0
 10
-115.048
 20
315.509
 11
-115.64
 21
315.584
  0
LINE
  8
0
 10
-115.64
 20
315.584
 11
-116.218
 21
315.732
  0
LINE
  8
0
 10
-116.218
 20
315.732
 11
-116.772
 21
315.952
  0
LINE
  8
0
 10
-116.772
 20
315.952
 11
-117.295
 21
316.239
  0
LINE
  8
0
 10
-117.295
 20
316.239
 11
-117.778
 21
316.59
  0
LINE
  8
0
 10
-117.778
 20
316.59
 11
-118.213
 21
316.998
  0
LINE
  8
0
 10
-118.213
 20
316.998
 11
-118.593
 21
317.458
  0
LINE
  8
0
 10
-118.593
 20
317.458
 11
-118.912
 21
317.962
  0
LINE
  8
0
 10
-118.912
 20
317.962
 11
-119.166
 21
318.501
  0
LINE
  8
0
 10
-119.166
 20
318.501
 11
-119.351
 21
319.069
  0
LINE
  8
0
 10
-119.351
 20
319.069
 11
-119.463
 21
319.655
  0
LINE
  8
0
 10
-119.463
 20
319.655
 11
-119.5
 21
320.25
  0
LINE
  8
0
 10
-119.5
 20
320.25
 11
-119.5
 21
369.75
  0
LINE
  8
0
 10
-119.5
 20
369.75
 11
-119.463
 21
370.345
  0
LINE
  8
0
 10
-119.463
 20
370.345
 11
-119.351
 21
370.931
  0
LINE
  8
0
 10
-119.351
 20
370.931
 11
-119.166
 21
371.499
  0
LINE
  8
0
 10
-119.166
 20
371.499
 11
-118.912
 21
372.038
  0
LINE
  8
0
 10
-118.912
 20
372.038
 11
-118.593
 21
372.542
  0
LINE
  8
0
 10
-118.593
 20
372.542
 11
-118.213
 21
373.002
  0
LINE
  8
0
 10
-118.213
 20
373.002
 11
-117.778
 21
373.41
  0
LINE
  8
0
 10
-117.778
 20
373.41
 11
-117.295
 21
373.761
  0
LINE
  8
0
 10
-117.295
 20
373.761
 11
-116.772
 21
374.048
  0
LINE
  8
0
 10
-116.772
 20
374.048
 11
-116.218
 21
374.268
  0
LINE
  8
0
 10
-116.218
 20
374.268
 11
-115.64
 21
374.416
  0
LINE
  8
0
 10
-115.64
 20
374.416
 11
-115.048
 21
374.491
  0
LINE
  8
0
 10
-115.048
 20
374.491
 11
115.048
 21
374.491
  0
LINE
  8
0
 10
115.048
 20
374.491
 11
115.64
 21
374.416
  0
LINE
  8
0
 10
115.64
 20
374.416
 11
116.218
 21
374.268
  0
LINE
  8
0
 10
116.218
 20
374.268
 11
116.772
 21
374.048
  0
LINE
  8
0
 10
116.772
 20
374.048
 11
117.295
 21
373.761
  0
LINE
  8
0
 10
117.295
 20
373.761
 11
117.778
 21
373.41
  0
LINE
  8
0
 10
117.778
 20
373.41
 11
118.213
 21
373.002
  0
LINE
  8
0
 10
118.213
 20
373.002
 11
118.593
 21
372.542
  0
LINE
  8
0
 10
118.593
 20
372.542
 11
118.912
 21
372.038
  0
LINE
  8
0
 10
118.912
 20
372.038
 11
119.166
 21
371.499
  0
LINE
  8
0
 10
119.166
 20
371.499
 11
119.351
 21
370.931
  0
LINE
  8
0
 10
119.351
 20
370.931
 11
119.463
 21
370.345
  0
LINE
  8
0
 10
119.463
 20
370.345
 11
119.5
 21
369.75
  0
LINE
  8
0
 10
119.5
 20
369.75
 11
119.5
 21
320.25
  0
LINE
  8
0
 10
119.5
 20
320.25
 11
119.463
 21
319.655
  0
LINE
  8
0
 10
119.463
 20
319.655
 11
119.351
 21
319.069
  0
LINE
  8
0
 10
119.351
 20
319.069
 11
119.166
 21
318.501
  0
LINE
  8
0
 10
119.166
 20
318.501
 11
118.912
 21
317.962
  0
LINE
  8
0
 10
118.912
 20
317.962
 11
118.593
 21
317.458
  0
LINE
  8
0
 10
118.593
 20
317.458
 11
118.213
 21
316.998
  0
LINE
  8
0
 10
118.213
 20
316.998
 11
117.778
 21
316.59
  0
LINE
  8
0
 10
117.778
 20
316.59
 11
117.295
 21
316.239
  0
LINE
  8
0
 10
117.295
 20
316.239
 11
116.772
 21
315.952
  0
LINE
  8
0
 10
116.772
 20
315.952
 11
116.218
 21
315.732
  0
LINE
  8
0
 10
116.218
 20
315.732
 11
115.64
 21
315.584
  0
LINE
  8
0
 10
115.64
 20
315.584
 11
115.048
 21
315.509
  0
LINE
  8
0
 10
115.048
 20
315.509
 11
-115.048
 21
315.509
  0
LINE
  8
0
 10
115.937
 20
246.089
 11
116.545
 21
246.245
  0
LINE
  8
0
 10
116.545
 20
246.245
 11
117.129
 21
246.476
  0
LINE
  8
0
 10
117.129
 20
246.476
 11
117.679
 21
246.778
  0
LINE
  8
0
 10
117.679
 20
246.778
 11
118.187
 21
247.147
  0
LINE
  8
0
 10
118.187
 20
247.147
 11
118.645
 21
247.577
  0
LINE
  8
0
 10
118.645
 20
247.577
 11
119.045
 21
248.061
  0
LINE
  8
0
 10
119.045
 20
248.061
 11
119.382
 21
248.591
  0
LINE
  8
0
 10
119.382
 20
248.591
 11
119.649
 21
249.159
  0
LINE
  8
0
 10
119.649
 20
249.159
 11
119.843
 21
249.757
  0
LINE
  8
0
 10
119.843
 20
249.757
 11
119.961
 21
250.373
  0
LINE
  8
0
 10
119.961
 20
250.373
 11
120
 21
251
  0
LINE
  8
0
 10
120
 20
251
 11
120
 21
301
  0
LINE
  8
0
 10
120
 20
301
 11
119.961
 21
301.627
  0
LINE
  8
0
 10
119.961
 20
301.627
 11
119.843
 21
302.243
  0
LINE
  8
0
 10
119.843
 20
302.243
 11
119.649
 21
302.841
  0
LINE
  8
0
 10
119.649
 20
302.841
 11
119.382
 21
303.409
  0
LINE
  8
0
 10
119.382
 20
303.409
 11
119.045
 21
303.939
  0
LINE
  8
0
 10
119.045
 20
303.939
 11
118.645
 21
304.423
  0
LINE
  8
0
 10
118.645
 20
304.423
 11
118.187
 21
304.853
  0
LINE
  8
0
 10
118.187
 20
304.853
 11
117.679
 21
305.222
  0
LINE
  8
0
 10
117.679
 20
305.222
 11
117.129
 21
305.524
  0
LINE
  8
0
 10
117.129
 20
305.524
 11
116.545
 21
305.755
  0
LINE
  8
0
 10
116.545
 20
305.755
 11
115.937
 21
305.911
  0
LINE
  8
0
 10
115.937
 20
305.911
 11
115.314
 21
305.99
  0
LINE
  8
0
 10
115.314
 20
305.99
 11
-115.314
 21
305.99
  0
LINE
  8
0
 10
-115.314
 20
305.99
 11
-115.937
 21
305.911
  0
LINE
  8
0
 10
-115.937
 20
305.911
 11
-116.545
 21
305.755
  0
LINE
  8
0
 10
-116.545
 20
305.755
 11
-117.129
 21
305.524
  0
LINE
  8
0
 10
-117.129
 20
305.524
 11
-117.679
 21
305.222
  0
LINE
  8
0
 10
-117.679
 20
305.222
 11
-118.187
 21
304.853
  0
LINE
  8
0
 10
-118.187
 20
304.853
 11
-118.645
 21
304.423
  0
LINE
  8
0
 10
-118.645
 20
304.423
 11
-119.045
 21
303.939
  0
LINE
  8
0
 10
-119.045
 20
303.939
 11
-119.382
 21
303.409
  0
LINE
  8
0
 10
-119.382
 20
303.409
 11
-119.649
 21
302.841
  0
LINE
  8
0
 10
-119.649
 20
302.841
 11
-119.843
 21
302.243
  0
LINE
  8
0
 10
-119.843
 20
302.243
 11
-119.961
 21
301.627
  0
LINE
  8
0
 10
-119.961
 20
301.627
 11
-120
 21
301
  0
LINE
  8
0
 10
-120
 20
301
 11
-120
 21
251
  0
LINE
  8
0
 10
-120
 20
251
 11
-119.961
 21
250.373
  0
LINE
  8
0
 10
-119.961
 20
250.373
 11
-119.843
 21
249.757
  0
LINE
  8
0
 10
-119.843
 20
249.757
 11
-119.649
 21
249.159
  0
LINE
  8
0
 10
-119.649
 20
249.159
 11
-119.382
 21
248.591
  0
LINE
  8
0
 10
-119.382
 20
248.591
 11
-119.045
 21
248.061
  0
LINE
  8
0
 10
-119.045
 20
248.061
 11
-118.645
 21
247.577
  0
LINE
  8
0
 10
-118.645
 20
247.577
 11
-118.187
 21
247.147
  0
LINE
  8
0
 10
-118.187
 20
247.147
 11
-117.679
 21
246.778
  0
LINE
  8
0
 10
-117.679
 20
246.778
 11
-117.129
 21
246.476
  0
LINE
  8
0
 10
-117.129
 20
246.476
 11
-116.545
 21
246.245
  0
LINE
  8
0
 10
-116.545
 20
246.245
 11
-115.937
 21
246.089
  0
LINE
  8
0
 10
-115.937
 20
246.089
 11
-115.314
 21
246.01
  0
LINE
  8
0
 10
-115.314
 20
246.01
 11
115.314
 21
246.01
  0
LINE
  8
0
 10
115.314
 20
246.01
 11
115.937
 21
246.089
  0
LINE
  8
0
 10
-114.993
 20
247.388
 11
-115.475
 21
247.449
  0
LINE
  8
0
 10
-115.475
 20
247.449
 11
-115.946
 21
247.57
  0
LINE
  8
0
 10
-115.946
 20
247.57
 11
-116.398
 21
247.749
  0
LINE
  8
0
 10
-116.398
 20
247.749
 11
-116.823
 21
247.983
  0
LINE
  8
0
 10
-116.823
 20
247.983
 11
-117.216
 21
248.269
  0
LINE
  8
0
 10
-117.216
 20
248.269
 11
-117.571
 21
248.601
  0
LINE
  8
0
 10
-117.571
 20
248.601
 11
-117.88
 21
248.976
  0
LINE
  8
0
 10
-117.88
 20
248.976
 11
-118.141
 21
249.386
  0
LINE
  8
0
 10
-118.141
 20
249.386
 11
-118.348
 21
249.826
  0
LINE
  8
0
 10
-118.348
 20
249.826
 11
-118.498
 21
250.288
  0
LINE
  8
0
 10
-118.498
 20
250.288
 11
-118.589
 21
250.765
  0
LINE
  8
0
 10
-118.589
 20
250.765
 11
-118.619
 21
251.25
  0
LINE
  8
0
 10
-118.619
 20
251.25
 11
-118.619
 21
300.75
  0
LINE
  8
0
 10
-118.619
 20
300.75
 11
-118.589
 21
301.235
  0
LINE
  8
0
 10
-118.589
 20
301.235
 11
-118.498
 21
301.712
  0
LINE
  8
0
 10
-118.498
 20
301.712
 11
-118.348
 21
302.174
  0
LINE
  8
0
 10
-118.348
 20
302.174
 11
-118.141
 21
302.614
  0
LINE
  8
0
 10
-118.141
 20
302.614
 11
-117.88
 21
303.024
  0
LINE
  8
0
 10
-117.88
 20
303.024
 11
-117.571
 21
303.399
  0
LINE
  8
0
 10
-117.571
 20
303.399
 11
-117.216
 21
303.731
  0
LINE
  8
0
 10
-117.216
 20
303.731
 11
-116.823
 21
304.017
  0
LINE
  8
0
 10
-116.823
 20
304.017
 11
-116.398
 21
304.251
  0
LINE
  8
0
 10
-116.398
 20
304.251
 11
-115.946
 21
304.43
  0
LINE
  8
0
 10
-115.946
 20
304.43
 11
-115.475
 21
304.551
  0
LINE
  8
0
 10
-115.475
 20
304.551
 11
-114.993
 21
304.612
  0
LINE
  8
0
 10
-114.993
 20
304.612
 11
114.993
 21
304.612
  0
LINE
  8
0
 10
114.993
 20
304.612
 11
115.475
 21
304.551
  0
LINE
  8
0
 10
115.475
 20
304.551
 11
115.946
 21
304.43
  0
LINE
  8
0
 10
115.946
 20
304.43
 11
116.398
 21
304.251
  0
LINE
  8
0
 10
116.398
 20
304.251
 11
116.823
 21
304.017
  0
LINE
  8
0
 10
116.823
 20
304.017
 11
117.216
 21
303.731
  0
LINE
  8
0
 10
117.216
 20
303.731
 11
117.571
 21
303.399
  0
LINE
  8
0
 10
117.571
 20
303.399
 11
117.88
 21
303.024
  0
LINE
  8
0
 10
117.88
 20
303.024
 11
118.141
 21
302.614
  0
LINE
  8
0
 10
118.141
 20
302.614
 11
118.348
 21
302.174
  0
LINE
  8
0
 10
118.348
 20
302.174
 11
118.498
 21
301.712
  0
LINE
  8
0
 10
118.498
 20
301.712
 11
118.589
 21
301.235
  0
LINE
  8
0
 10
118.589
 20
301.235
 11
118.619
 21
300.75
  0
LINE
  8
0
 10
118.619
 20
300.75
 11
118.619
 21
251.25
  0
LINE
  8
0
 10
118.619
 20
251.25
 11
118.589
 21
250.765
  0
LINE
  8
0
 10
118.589
 20
250.765
 11
118.498
 21
250.288
  0
LINE
  8
0
 10
118.498
 20
250.288
 11
118.348
 21
249.826
  0
LINE
  8
0
 10
118.348
 20
249.826
 11
118.141
 21
249.386
  0
LINE
  8
0
 10
118.141
 20
249.386
 11
117.88
 21
248.976
  0
LINE
  8
0
 10
117.88
 20
248.976
 11
117.571
 21
248.601
  0
LINE
  8
0
 10
117.571
 20
248.601
 11
117.216
 21
248.269
  0
LINE
  8
0
 10
117.216
 20
248.269
 11
116.823
 21
247.983
  0
LINE
  8
0
 10
116.823
 20
247.983
 11
116.398
 21
247.749
  0
LINE
  8
0
 10
116.398
 20
247.749
 11
115.946
 21
247.57
  0
LINE
  8
0
 10
115.946
 20
247.57
 11
115.475
 21
247.449
  0
LINE
  8
0
 10
115.475
 20
247.449
 11
114.993
 21
247.388
  0
LINE
  8
0
 10
114.993
 20
247.388
 11
-114.993
 21
247.388
  0
LINE
  8
0
 10
115.937
 20
177.089
 11
116.545
 21
177.245
  0
LINE
  8
0
 10
116.545
 20
177.245
 11
117.129
 21
177.476
  0
LINE
  8
0
 10
117.129
 20
177.476
 11
117.679
 21
177.778
  0
LINE
  8
0
 10
117.679
 20
177.778
 11
118.187
 21
178.147
  0
LINE
  8
0
 10
118.187
 20
178.147
 11
118.645
 21
178.577
  0
LINE
  8
0
 10
118.645
 20
178.577
 11
119.045
 21
179.061
  0
LINE
  8
0
 10
119.045
 20
179.061
 11
119.382
 21
179.591
  0
LINE
  8
0
 10
119.382
 20
179.591
 11
119.649
 21
180.159
  0
LINE
  8
0
 10
119.649
 20
180.159
 11
119.843
 21
180.757
  0
LINE
  8
0
 10
119.843
 20
180.757
 11
119.961
 21
181.373
  0
LINE
  8
0
 10
119.961
 20
181.373
 11
120
 21
182
  0
LINE
  8
0
 10
120
 20
182
 11
120
 21
232
  0
LINE
  8
0
 10
120
 20
232
 11
119.961
 21
232.627
  0
LINE
  8
0
 10
119.961
 20
232.627
 11
119.843
 21
233.243
  0
LINE
  8
0
 10
119.843
 20
233.243
 11
119.649
 21
233.841
  0
LINE
  8
0
 10
119.649
 20
233.841
 11
119.382
 21
234.409
  0
LINE
  8
0
 10
119.382
 20
234.409
 11
119.045
 21
234.939
  0
LINE
  8
0
 10
119.045
 20
234.939
 11
118.645
 21
235.423
  0
LINE
  8
0
 10
118.645
 20
235.423
 11
118.187
 21
235.853
  0
LINE
  8
0
 10
118.187
 20
235.853
 11
117.679
 21
236.222
  0
LINE
  8
0
 10
117.679
 20
236.222
 11
117.129
 21
236.524
  0
LINE
  8
0
 10
117.129
 20
236.524
 11
116.545
 21
236.755
  0
LINE
  8
0
 10
116.545
 20
236.755
 11
115.937
 21
236.911
  0
LINE
  8
0
 10
115.937
 20
236.911
 11
115.314
 21
236.99
  0
LINE
  8
0
 10
115.314
 20
236.99
 11
-115.314
 21
236.99
  0
LINE
  8
0
 10
-115.314
 20
236.99
 11
-115.937
 21
236.911
  0
LINE
  8
0
 10
-115.937
 20
236.911
 11
-116.545
 21
236.755
  0
LINE
  8
0
 10
-116.545
 20
236.755
 11
-117.129
 21
236.524
  0
LINE
  8
0
 10
-117.129
 20
236.524
 11
-117.679
 21
236.222
  0
LINE
  8
0
 10
-117.679
 20
236.222
 11
-118.187
 21
235.853
  0
LINE
  8
0
 10
-118.187
 20
235.853
 11
-118.645
 21
235.423
  0
LINE
  8
0
 10
-118.645
 20
235.423
 11
-119.045
 21
234.939
  0
LINE
  8
0
 10
-119.045
 20
234.939
 11
-119.382
 21
234.409
  0
LINE
  8
0
 10
-119.382
 20
234.409
 11
-119.649
 21
233.841
  0
LINE
  8
0
 10
-119.649
 20
233.841
 11
-119.843
 21
233.243
  0
LINE
  8
0
 10
-119.843
 20
233.243
 11
-119.961
 21
232.627
  0
LINE
  8
0
 10
-119.961
 20
232.627
 11
-120
 21
232
  0
LINE
  8
0
 10
-120
 20
232
 11
-120
 21
182
  0
LINE
  8
0
 10
-120
 20
182
 11
-119.961
 21
181.373
  0
LINE
  8
0
 10
-119.961
 20
181.373
 11
-119.843
 21
180.757
  0
LINE
  8
0
 10
-119.843
 20
180.757
 11
-119.649
 21
180.159
  0
LINE
  8
0
 10
-119.649
 20
180.159
 11
-119.382
 21
179.591
  0
LINE
  8
0
 10
-119.382
 20
179.591
 11
-119.045
 21
179.061
  0
LINE
  8
0
 10
-119.045
 20
179.061
 11
-118.645
 21
178.577
  0
LINE
  8
0
 10
-118.645
 20
178.577
 11
-118.187
 21
178.147
  0
LINE
  8
0
 10
-118.187
 20
178.147
 11
-117.679
 21
177.778
  0
LINE
  8
0
 10
-117.679
 20
177.778
 11
-117.129
 21
177.476
  0
LINE
  8
0
 10
-117.129
 20
177.476
 11
-116.545
 21
177.245
  0
LINE
  8
0
 10
-116.545
 20
177.245
 11
-115.937
 21
177.089
  0
LINE
  8
0
 10
-115.937
 20
177.089
 11
-115.314
 21
177.01
  0
LINE
  8
0
 10
-115.314
 20
177.01
 11
115.314
 21
177.01
  0
LINE
  8
0
 10
115.314
 20
177.01
 11
115.937
 21
177.089
  0
LINE
  8
0
 10
-112.613
 20
227.704
 11
-112.837
 21
227.732
  0
LINE
  8
0
 10
-112.837
 20
227.732
 11
-113.056
 21
227.788
  0
LINE
  8
0
 10
-113.056
 20
227.788
 11
-113.266
 21
227.871
  0
LINE
  8
0
 10
-113.266
 20
227.871
 11
-113.464
 21
227.98
  0
LINE
  8
0
 10
-113.464
 20
227.98
 11
-113.647
 21
228.113
  0
LINE
  8
0
 10
-113.647
 20
228.113
 11
-113.812
 21
228.268
  0
LINE
  8
0
 10
-113.812
 20
228.268
 11
-113.956
 21
228.442
  0
LINE
  8
0
 10
-113.956
 20
228.442
 11
-114.077
 21
228.633
  0
LINE
  8
0
 10
-114.077
 20
228.633
 11
-114.174
 21
228.837
  0
LINE
  8
0
 10
-114.174
 20
228.837
 11
-114.243
 21
229.052
  0
LINE
  8
0
 10
-114.243
 20
229.052
 11
-114.286
 21
229.274
  0
LINE
  8
0
 10
-114.286
 20
229.274
 11
-114.3
 21
229.5
  0
LINE
  8
0
 10
-114.3
 20
229.5
 11
-114.286
 21
229.726
  0
LINE
  8
0
 10
-114.286
 20
229.726
 11
-114.243
 21
229.948
  0
LINE
  8
0
 10
-114.243
 20
229.948
 11
-114.174
 21
230.163
  0
LINE
  8
0
 10
-114.174
 20
230.163
 11
-114.077
 21
230.367
  0
LINE
  8
0
 10
-114.077
 20
230.367
 11
-113.956
 21
230.558
  0
LINE
  8
0
 10
-113.956
 20
230.558
 11
-113.812
 21
230.732
  0
LINE
  8
0
 10
-113.812
 20
230.732
 11
-113.647
 21
230.887
  0
LINE
  8
0
 10
-113.647
 20
230.887
 11
-113.464
 21
231.02
  0
LINE
  8
0
 10
-113.464
 20
231.02
 11
-113.266
 21
231.129
  0
LINE
  8
0
 10
-113.266
 20
231.129
 11
-113.056
 21
231.212
  0
LINE
  8
0
 10
-113.056
 20
231.212
 11
-112.837
 21
231.268
  0
LINE
  8
0
 10
-112.837
 20
231.268
 11
-112.613
 21
231.296
  0
LINE
  8
0
 10
-112.613
 20
231.296
 11
-112.387
 21
231.296
  0
LINE
  8
0
 10
-112.387
 20
231.296
 11
-112.163
 21
231.268
  0
LINE
  8
0
 10
-112.163
 20
231.268
 11
-111.944
 21
231.212
  0
LINE
  8
0
 10
-111.944
 20
231.212
 11
-111.734
 21
231.129
  0
LINE
  8
0
 10
-111.734
 20
231.129
 11
-111.536
 21
231.02
  0
LINE
  8
0
 10
-111.536
 20
231.02
 11
-111.353
 21
230.887
  0
LINE
  8
0
 10
-111.353
 20
230.887
 11
-111.188
 21
230.732
  0
LINE
  8
0
 10
-111.188
 20
230.732
 11
-111.044
 21
230.558
  0
LINE
  8
0
 10
-111.044
 20
230.558
 11
-110.923
 21
230.367
  0
LINE
  8
0
 10
-110.923
 20
230.367
 11
-110.826
 21
230.163
  0
LINE
  8
0
 10
-110.826
 20
230.163
 11
-110.757
 21
229.948
  0
LINE
  8
0
 10
-110.757
 20
229.948
 11
-110.714
 21
229.726
  0
LINE
  8
0
 10
-110.714
 20
229.726
 11
-110.7
 21
229.5
  0
LINE
  8
0
 10
-110.7
 20
229.5
 11
-110.714
 21
229.274
  0
LINE
  8
0
 10
-110.714
 20
229.274
 11
-110.757
 21
229.052
  0
LINE
  8
0
 10
-110.757
 20
229.052
 11
-110.826
 21
228.837
  0
LINE
  8
0
 10
-110.826
 20
228.837
 11
-110.923
 21
228.633
  0
LINE
  8
0
 10
-110.923
 20
228.633
 11
-111.044
 21
228.442
  0
LINE
  8
0
 10
-111.044
 20
228.442
 11
-111.188
 21
228.268
  0
LINE
  8
0
 10
-111.188
 20
228.268
 11
-111.353
 21
228.113
  0
LINE
  8
0
 10
-111.353
 20
228.113
 11
-111.536
 21
227.98
  0
LINE
  8
0
 10
-111.536
 20
227.98
 11
-111.734
 21
227.871
  0
LINE
  8
0
 10
-111.734
 20
227.871
 11
-111.944
 21
227.788
  0
LINE
  8
0
 10
-111.944
 20
227.788
 11
-112.163
 21
227.732
  0
LINE
  8
0
 10
-112.163
 20
227.732
 11
-112.387
 21
227.704
  0
LINE
  8
0
 10
-112.387
 20
227.704
 11
-112.613
 21
227.704
  0
LINE
  8
0
 10
112.387
 20
227.704
 11
112.163
 21
227.732
  0
LINE
  8
0
 10
112.163
 20
227.732
 11
111.944
 21
227.788
  0
LINE
  8
0
 10
111.944
 20
227.788
 11
111.734
 21
227.871
  0
LINE
  8
0
 10
111.734
 20
227.871
 11
111.536
 21
227.98
  0
LINE
  8
0
 10
111.536
 20
227.98
 11
111.353
 21
228.113
  0
LINE
  8
0
 10
111.353
 20
228.113
 11
111.188
 21
228.268
  0
LINE
  8
0
 10
111.188
 20
228.268
 11
111.044
 21
228.442
  0
LINE
  8
0
 10
111.044
 20
228.442
 11
110.923
 21
228.633
  0
LINE
  8
0
 10
110.923
 20
228.633
 11
110.826
 21
228.837
  0
LINE
  8
0
 10
110.826
 20
228.837
 11
110.757
 21
229.052
  0
LINE
  8
0
 10
110.757
 20
229.052
 11
110.714
 21
229.274
  0
LINE
  8
0
 10
110.714
 20
229.274
 11
110.7
 21
229.5
  0
LINE
  8
0
 10
110.7
 20
229.5
 11
110.714
 21
229.726
  0
LINE
  8
0
 10
110.714
 20
229.726
 11
110.757
 21
229.948
  0
LINE
  8
0
 10
110.757
 20
229.948
 11
110.826
 21
230.163
  0
LINE
  8
0
 10
110.826
 20
230.163
 11
110.923
 21
230.367
  0
LINE
  8
0
 10
110.923
 20
230.367
 11
111.044
 21
230.558
  0
LINE
  8
0
 10
111.044
 20
230.558
 11
111.188
 21
230.732
  0
LINE
  8
0
 10
111.188
 20
230.732
 11
111.353
 21
230.887
  0
LINE
  8
0
 10
111.353
 20
230.887
 11
111.536
 21
231.02
  0
LINE
  8
0
 10
111.536
 20
231.02
 11
111.734
 21
231.129
  0
LINE
  8
0
 10
111.734
 20
231.129
 11
111.944
 21
231.212
  0
LINE
  8
0
 10
111.944
 20
231.212
 11
112.163
 21
231.268
  0
LINE
  8
0
 10
112.163
 20
231.268
 11
112.387
 21
231.296
  0
LINE
  8
0
 10
112.387
 20
231.296
 11
112.613
 21
231.296
  0
LINE
  8
0
 10
112.613
 20
231.296
 11
112.837
 21
231.268
  0
LINE
  8
0
 10
112.837
 20
231.268
 11
113.056
 21
231.212
  0
LINE
  8
0
 10
113.056
 20
231.212
 11
113.266
 21
231.129
  0
LINE
  8
0
 10
113.266
 20
231.129
 11
113.464
 21
231.02
  0
LINE
  8
0
 10
113.464
 20
231.02
 11
113.647
 21
230.887
  0
LINE
  8
0
 10
113.647
 20
230.887
 11
113.812
 21
230.732
  0
LINE
  8
0
 10
113.812
 20
230.732
 11
113.956
 21
230.558
  0
LINE
  8
0
 10
113.956
 20
230.558
 11
114.077
 21
230.367
  0
LINE
  8
0
 10
114.077
 20
230.367
 11
114.174
 21
230.163
  0
LINE
  8
0
 10
114.174
 20
230.163
 11
114.243
 21
229.948
  0
LINE
  8
0
 10
114.243
 20
229.948
 11
114.286
 21
229.726
  0
LINE
  8
0
 10
114.286
 20
229.726
 11
114.3
 21
229.5
  0
LINE
  8
0
 10
114.3
 20
229.5
 11
114.286
 21
229.274
  0
LINE
  8
0
 10
114.286
 20
229.274
 11
114.243
 21
229.052
  0
LINE
  8
0
 10
114.243
 20
229.052
 11
114.174
 21
228.837
  0
LINE
  8
0
 10
114.174
 20
228.837
 11
114.077
 21
228.633
  0
LINE
  8
0
 10
114.077
 20
228.633
 11
113.956
 21
228.442
  0
LINE
  8
0
 10
113.956
 20
228.442
 11
113.812
 21
228.268
  0
LINE
  8
0
 10
113.812
 20
228.268
 11
113.647
 21
228.113
  0
LINE
  8
0
 10
113.647
 20
228.113
 11
113.464
 21
227.98
  0
LINE
  8
0
 10
113.464
 20
227.98
 11
113.266
 21
227.871
  0
LINE
  8
0
 10
113.266
 20
227.871
 11
113.056
 21
227.788
  0
LINE
  8
0
 10
113.056
 20
227.788
 11
112.837
 21
227.732
  0
LINE
  8
0
 10
112.837
 20
227.732
 11
112.613
 21
227.704
  0
LINE
  8
0
 10
112.613
 20
227.704
 11
112.387
 21
227.704
  0
LINE
  8
0
 10
112.387
 20
182.704
 11
112.163
 21
182.732
  0
LINE
  8
0
 10
112.163
 20
182.732
 11
111.944
 21
182.788
  0
LINE
  8
0
 10
111.944
 20
182.788
 11
111.734
 21
182.871
  0
LINE
  8
0
 10
111.734
 20
182.871
 11
111.536
 21
182.98
  0
LINE
  8
0
 10
111.536
 20
182.98
 11
111.353
 21
183.113
  0
LINE
  8
0
 10
111.353
 20
183.113
 11
111.188
 21
183.268
  0
LINE
  8
0
 10
111.188
 20
183.268
 11
111.044
 21
183.442
  0
LINE
  8
0
 10
111.044
 20
183.442
 11
110.923
 21
183.633
  0
LINE
  8
0
 10
110.923
 20
183.633
 11
110.826
 21
183.837
  0
LINE
  8
0
 10
110.826
 20
183.837
 11
110.757
 21
184.052
  0
LINE
  8
0
 10
110.757
 20
184.052
 11
110.714
 21
184.274
  0
LINE
  8
0
 10
110.714
 20
184.274
 11
110.7
 21
184.5
  0
LINE
  8
0
 10
110.7
 20
184.5
 11
110.714
 21
184.726
  0
LINE
  8
0
 10
110.714
 20
184.726
 11
110.757
 21
184.948
  0
LINE
  8
0
 10
110.757
 20
184.948
 11
110.826
 21
185.163
  0
LINE
  8
0
 10
110.826
 20
185.163
 11
110.923
 21
185.367
  0
LINE
  8
0
 10
110.923
 20
185.367
 11
111.044
 21
185.558
  0
LINE
  8
0
 10
111.044
 20
185.558
 11
111.188
 21
185.732
  0
LINE
  8
0
 10
111.188
 20
185.732
 11
111.353
 21
185.887
  0
LINE
  8
0
 10
111.353
 20
185.887
 11
111.536
 21
186.02
  0
LINE
  8
0
 10
111.536
 20
186.02
 11
111.734
 21
186.129
  0
LINE
  8
0
 10
111.734
 20
186.129
 11
111.944
 21
186.212
  0
LINE
  8
0
 10
111.944
 20
186.212
 11
112.163
 21
186.268
  0
LINE
  8
0
 10
112.163
 20
186.268
 11
112.387
 21
186.296
  0
LINE
  8
0
 10
112.387
 20
186.296
 11
112.613
 21
186.296
  0
LINE
  8
0
 10
112.613
 20
186.296
 11
112.837
 21
186.268
  0
LINE
  8
0
 10
112.837
 20
186.268
 11
113.056
 21
186.212
  0
LINE
  8
0
 10
113.056
 20
186.212
 11
113.266
 21
186.129
  0
LINE
  8
0
 10
113.266
 20
186.129
 11
113.464
 21
186.02
  0
LINE
  8
0
 10
113.464
 20
186.02
 11
113.647
 21
185.887
  0
LINE
  8
0
 10
113.647
 20
185.887
 11
113.812
 21
185.732
  0
LINE
  8
0
 10
113.812
 20
185.732
 11
113.956
 21
185.558
  0
LINE
  8
0
 10
113.956
 20
185.558
 11
114.077
 21
185.367
  0
LINE
  8
0
 10
114.077
 20
185.367
 11
114.174
 21
185.163
  0
LINE
  8
0
 10
114.174
 20
185.163
 11
114.243
 21
184.948
  0
LINE
  8
0
 10
114.243
 20
184.948
 11
114.286
 21
184.726
  0
LINE
  8
0
 10
114.286
 20
184.726
 11
114.3
 21
184.5
  0
LINE
  8
0
 10
114.3
 20
184.5
 11
114.286
 21
184.274
  0
LINE
  8
0
 10
114.286
 20
184.274
 11
114.243
 21
184.052
  0
LINE
  8
0
 10
114.243
 20
184.052
 11
114.174
 21
183.837
  0
LINE
  8
0
 10
114.174
 20
183.837
 11
114.077
 21
183.633
  0
LINE
  8
0
 10
114.077
 20
183.633
 11
113.956
 21
183.442
  0
LINE
  8
0
 10
113.956
 20
183.442
 11
113.812
 21
183.268
  0
LINE
  8
0
 10
113.812
 20
183.268
 11
113.647
 21
183.113
  0
LINE
  8
0
 10
113.647
 20
183.113
 11
113.464
 21
182.98
  0
LINE
  8
0
 10
113.464
 20
182.98
 11
113.266
 21
182.871
  0
LINE
  8
0
 10
113.266
 20
182.871
 11
113.056
 21
182.788
  0
LINE
  8
0
 10
113.056
 20
182.788
 11
112.837
 21
182.732
  0
LINE
  8
0
 10
112.837
 20
182.732
 11
112.613
 21
182.704
  0
LINE
  8
0
 10
112.613
 20
182.704
 11
112.387
 21
182.704
  0
LINE
  8
0
 10
-112.613
 20
182.704
 11
-112.837
 21
182.732
  0
LINE
  8
0
 10
-112.837
 20
182.732
 11
-113.056
 21
182.788
  0
LINE
  8
0
 10
-113.056
 20
182.788
 11
-113.266
 21
182.871
  0
LINE
  8
0
 10
-113.266
 20
182.871
 11
-113.464
 21
182.98
  0
LINE
  8
0
 10
-113.464
 20
182.98
 11
-113.647
 21
183.113
  0
LINE
  8
0
 10
-113.647
 20
183.113
 11
-113.812
 21
183.268
  0
LINE
  8
0
 10
-113.812
 20
183.268
 11
-113.956
 21
183.442
  0
LINE
  8
0
 10
-113.956
 20
183.442
 11
-114.077
 21
183.633
  0
LINE
  8
0
 10
-114.077
 20
183.633
 11
-114.174
 21
183.837
  0
LINE
  8
0
 10
-114.174
 20
183.837
 11
-114.243
 21
184.052
  0
LINE
  8
0
 10
-114.243
 20
184.052
 11
-114.286
 21
184.274
  0
LINE
  8
0
 10
-114.286
 20
184.274
 11
-114.3
 21
184.5
  0
LINE
  8
0
 10
-114.3
 20
184.5
 11
-114.286
 21
184.726
  0
LINE
  8
0
 10
-114.286
 20
184.726
 11
-114.243
 21
184.948
  0
LINE
  8
0
 10
-114.243
 20
184.948
 11
-114.174
 21
185.163
  0
LINE
  8
0
 10
-114.174
 20
185.163
 11
-114.077
 21
185.367
  0
LINE
  8
0
 10
-114.077
 20
185.367
 11
-113.956
 21
185.558
  0
LINE
  8
0
 10
-113.956
 20
185.558
 11
-113.812
 21
185.732
  0
LINE
  8
0
 10
-113.812
 20
185.732
 11
-113.647
 21
185.887
  0
LINE
  8
0
 10
-113.647
 20
185.887
 11
-113.464
 21
186.02
  0
LINE
  8
0
 10
-113.464
 20
186.02
 11
-113.266
 21
186.129
  0
LINE
  8
0
 10
-113.266
 20
186.129
 11
-113.056
 21
186.212
  0
LINE
  8
0
 10
-113.056
 20
186.212
 11
-112.837
 21
186.268
  0
LINE
  8
0
 10
-112.837
 20
186.268
 11
-112.613
 21
186.296
  0
LINE
  8
0
 10
-112.613
 20
186.296
 11
-112.387
 21
186.296
  0
LINE
  8
0
 10
-112.387
 20
186.296
 11
-112.163
 21
186.268
  0
LINE
  8
0
 10
-112.163
 20
186.268
 11
-111.944
 21
186.212
  0
LINE
  8
0
 10
-111.944
 20
186.212
 11
-111.734
 21
186.129
  0
LINE
  8
0
 10
-111.734
 20
186.129
 11
-111.536
 21
186.02
  0
LINE
  8
0
 10
-111.536
 20
186.02
 11
-111.353
 21
185.887
  0
LINE
  8
0
 10
-111.353
 20
185.887
 11
-111.188
 21
185.732
  0
LINE
  8
0
 10
-111.188
 20
185.732
 11
-111.044
 21
185.558
  0
LINE
  8
0
 10
-111.044
 20
185.558
 11
-110.923
 21
185.367
  0
LINE
  8
0
 10
-110.923
 20
185.367
 11
-110.826
 21
185.163
  0
LINE
  8
0
 10
-110.826
 20
185.163
 11
-110.757
 21
184.948
  0
LINE
  8
0
 10
-110.757
 20
184.948
 11
-110.714
 21
184.726
  0
LINE
  8
0
 10
-110.714
 20
184.726
 11
-110.7
 21
184.5
  0
LINE
  8
0
 10
-110.7
 20
184.5
 11
-110.714
 21
184.274
  0
LINE
  8
0
 10
-110.714
 20
184.274
 11
-110.757
 21
184.052
  0
LINE
  8
0
 10
-110.757
 20
184.052
 11
-110.826
 21
183.837
  0
LINE
  8
0
 10
-110.826
 20
183.837
 11
-110.923
 21
183.633
  0
LINE
  8
0
 10
-110.923
 20
183.633
 11
-111.044
 21
183.442
  0
LINE
  8
0
 10
-111.044
 20
183.442
 11
-111.188
 21
183.268
  0
LINE
  8
0
 10
-111.188
 20
183.268
 11
-111.353
 21
183.113
  0
LINE
  8
0
 10
-111.353
 20
183.113
 11
-111.536
 21
182.98
  0
LINE
  8
0
 10
-111.536
 20
182.98
 11
-111.734
 21
182.871
  0
LINE
  8
0
 10
-111.734
 20
182.871
 11
-111.944
 21
182.788
  0
LINE
  8
0
 10
-111.944
 20
182.788
 11
-112.163
 21
182.732
  0
LINE
  8
0
 10
-112.163
 20
182.732
 11
-112.387
 21
182.704
  0
LINE
  8
0
 10
-112.387
 20
182.704
 11
-112.613
 21
182.704
  0
ENDSEC
  0
SECTION
  2
OBJECTS
  0
DICTIONARY
  0
ENDSEC
  0
EOF
