  0
SECTION
  2
BLOCKS
  0
ENDSEC
  0
SECTION
  2
ENTITIES
  0
LINE
  8
0
 10
-148.5
 20
89.9413
 11
-148.187
 21
89.6474
  0
LINE
  8
0
 10
-148.187
 20
89.6474
 11
-147.679
 21
89.2784
  0
LINE
  8
0
 10
-147.679
 20
89.2784
 11
-147.129
 21
88.9759
  0
LINE
  8
0
 10
-147.129
 20
88.9759
 11
-146.545
 21
88.7447
  0
LINE
  8
0
 10
-146.545
 20
88.7447
 11
-145.937
 21
88.5886
  0
LINE
  8
0
 10
-145.937
 20
88.5886
 11
-145.314
 21
88.5099
  0
LINE
  8
0
 10
-145.314
 20
88.5099
 11
145.314
 21
88.5099
  0
LINE
  8
0
 10
145.314
 20
88.5099
 11
145.937
 21
88.5886
  0
LINE
  8
0
 10
145.937
 20
88.5886
 11
146.545
 21
88.7447
  0
LINE
  8
0
 10
146.545
 20
88.7447
 11
147.129
 21
88.9759
  0
LINE
  8
0
 10
147.129
 20
88.9759
 11
147.679
 21
89.2784
  0
LINE
  8
0
 10
147.679
 20
89.2784
 11
148.187
 21
89.6474
  0
LINE
  8
0
 10
148.187
 20
89.6474
 11
148.645
 21
90.0773
  0
LINE
  8
0
 10
148.645
 20
90.0773
 11
149.045
 21
90.5611
  0
LINE
  8
0
 10
149.045
 20
90.5611
 11
149.382
 21
91.0912
  0
LINE
  8
0
 10
149.382
 20
91.0912
 11
149.649
 21
91.6594
  0
LINE
  8
0
 10
149.649
 20
91.6594
 11
149.843
 21
92.2566
  0
LINE
  8
0
 10
149.843
 20
92.2566
 11
149.961
 21
92.8733
  0
LINE
  8
0
 10
149.961
 20
92.8733
 11
150
 21
93.5
  0
LINE
  8
0
 10
150
 20
93.5
 11
150
 21
98.5
  0
LINE
  8
0
 10
150
 20
98.5
 11
149.961
 21
99.1267
  0
LINE
  8
0
 10
149.961
 20
99.1267
 11
149.843
 21
99.7434
  0
LINE
  8
0
 10
149.843
 20
99.7434
 11
149.649
 21
100.341
  0
LINE
  8
0
 10
149.649
 20
100.341
 11
149.382
 21
100.909
  0
LINE
  8
0
 10
149.382
 20
100.909
 11
149.045
 21
101.439
  0
LINE
  8
0
 10
149.045
 20
101.439
 11
148.645
 21
101.923
  0
LINE
  8
0
 10
148.645
 20
101.923
 11
148.187
 21
102.353
  0
LINE
  8
0
 10
148.187
 20
102.353
 11
147.679
 21
102.722
  0
LINE
  8
0
 10
147.679
 20
102.722
 11
147.129
 21
103.024
  0
LINE
  8
0
 10
147.129
 20
103.024
 11
146.545
 21
103.255
  0
LINE
  8
0
 10
146.545
 20
103.255
 11
145.937
 21
103.411
  0
LINE
  8
0
 10
145.937
 20
103.411
 11
145.314
 21
103.49
  0
LINE
  8
0
 10
145.314
 20
103.49
 11
-145.314
 21
103.49
  0
LINE
  8
0
 10
-145.314
 20
103.49
 11
-145.937
 21
103.411
  0
LINE
  8
0
 10
-145.937
 20
103.411
 11
-146.545
 21
103.255
  0
LINE
  8
0
 10
-146.545
 20
103.255
 11
-147.129
 21
103.024
  0
LINE
  8
0
 10
-147.129
 20
103.024
 11
-147.679
 21
102.722
  0
LINE
  8
0
 10
-147.679
 20
102.722
 11
-148.187
 21
102.353
  0
LINE
  8
0
 10
-148.187
 20
102.353
 11
-148.5
 21
102.059
  0
LINE
  8
0
 10
-148.5
 20
102.059
 11
-148.5
 21
103.49
  0
LINE
  8
0
 10
-148.5
 20
103.49
 11
-151.5
 21
103.49
  0
LINE
  8
0
 10
-151.5
 20
103.49
 11
-151.5
 21
88.5099
  0
LINE
  8
0
 10
-151.5
 20
88.5099
 11
-148.5
 21
88.5099
  0
LINE
  8
0
 10
-148.5
 20
88.5099
 11
-148.5
 21
89.9413
  0
LINE
  8
0
 10
-144.743
 20
90.135
 11
-145.226
 21
90.196
  0
LINE
  8
0
 10
-145.226
 20
90.196
 11
-145.697
 21
90.3169
  0
LINE
  8
0
 10
-145.697
 20
90.3169
 11
-146.149
 21
90.4959
  0
LINE
  8
0
 10
-146.149
 20
90.4959
 11
-146.575
 21
90.7302
  0
LINE
  8
0
 10
-146.575
 20
90.7302
 11
-146.969
 21
91.0161
  0
LINE
  8
0
 10
-146.969
 20
91.0161
 11
-147.323
 21
91.349
  0
LINE
  8
0
 10
-147.323
 20
91.349
 11
-147.633
 21
91.7237
  0
LINE
  8
0
 10
-147.633
 20
91.7237
 11
-147.894
 21
92.1344
  0
LINE
  8
0
 10
-147.894
 20
92.1344
 11
-148.101
 21
92.5744
  0
LINE
  8
0
 10
-148.101
 20
92.5744
 11
-148.251
 21
93.0369
  0
LINE
  8
0
 10
-148.251
 20
93.0369
 11
-148.342
 21
93.5146
  0
LINE
  8
0
 10
-148.342
 20
93.5146
 11
-148.373
 21
94
  0
LINE
  8
0
 10
-148.373
 20
94
 11
-148.373
 21
98
  0
LINE
  8
0
 10
-148.373
 20
98
 11
-148.342
 21
98.4854
  0
LINE
  8
0
 10
-148.342
 20
98.4854
 11
-148.251
 21
98.9631
  0
LINE
  8
0
 10
-148.251
 20
98.9631
 11
-148.101
 21
99.4256
  0
LINE
  8
0
 10
-148.101
 20
99.4256
 11
-147.894
 21
99.8656
  0
LINE
  8
0
 10
-147.894
 20
99.8656
 11
-147.633
 21
100.276
  0
LINE
  8
0
 10
-147.633
 20
100.276
 11
-147.323
 21
100.651
  0
LINE
  8
0
 10
-147.323
 20
100.651
 11
-146.969
 21
100.984
  0
LINE
  8
0
 10
-146.969
 20
100.984
 11
-146.575
 21
101.27
  0
LINE
  8
0
 10
-146.575
 20
101.27
 11
-146.149
 21
101.504
  0
LINE
  8
0
 10
-146.149
 20
101.504
 11
-145.697
 21
101.683
  0
LINE
  8
0
 10
-145.697
 20
101.683
 11
-145.226
 21
101.804
  0
LINE
  8
0
 10
-145.226
 20
101.804
 11
-144.743
 21
101.865
  0
LINE
  8
0
 10
-144.743
 20
101.865
 11
144.743
 21
101.865
  0
LINE
  8
0
 10
144.743
 20
101.865
 11
145.226
 21
101.804
  0
LINE
  8
0
 10
145.226
 20
101.804
 11
145.697
 21
101.683
  0
LINE
  8
0
 10
145.697
 20
101.683
 11
146.149
 21
101.504
  0
LINE
  8
0
 10
146.149
 20
101.504
 11
146.575
 21
101.27
  0
LINE
  8
0
 10
146.575
 20
101.27
 11
146.969
 21
100.984
  0
LINE
  8
0
 10
146.969
 20
100.984
 11
147.323
 21
100.651
  0
LINE
  8
0
 10
147.323
 20
100.651
 11
147.633
 21
100.276
  0
LINE
  8
0
 10
147.633
 20
100.276
 11
147.894
 21
99.8656
  0
LINE
  8
0
 10
147.894
 20
99.8656
 11
148.101
 21
99.4256
  0
LINE
  8
0
 10
148.101
 20
99.4256
 11
148.251
 21
98.9631
  0
LINE
  8
0
 10
148.251
 20
98.9631
 11
148.342
 21
98.4854
  0
LINE
  8
0
 10
148.342
 20
98.4854
 11
148.373
 21
98
  0
LINE
  8
0
 10
148.373
 20
98
 11
148.373
 21
94
  0
LINE
  8
0
 10
148.373
 20
94
 11
148.342
 21
93.5146
  0
LINE
  8
0
 10
148.342
 20
93.5146
 11
148.251
 21
93.0369
  0
LINE
  8
0
 10
148.251
 20
93.0369
 11
148.101
 21
92.5744
  0
LINE
  8
0
 10
148.101
 20
92.5744
 11
147.894
 21
92.1344
  0
LINE
  8
0
 10
147.894
 20
92.1344
 11
147.633
 21
91.7237
  0
LINE
  8
0
 10
147.633
 20
91.7237
 11
147.323
 21
91.349
  0
LINE
  8
0
 10
147.323
 20
91.349
 11
146.969
 21
91.0161
  0
LINE
  8
0
 10
146.969
 20
91.0161
 11
146.575
 21
90.7302
  0
LINE
  8
0
 10
146.575
 20
90.7302
 11
146.149
 21
90.4959
  0
LINE
  8
0
 10
146.149
 20
90.4959
 11
145.697
 21
90.3169
  0
LINE
  8
0
 10
145.697
 20
90.3169
 11
145.226
 21
90.196
  0
LINE
  8
0
 10
145.226
 20
90.196
 11
144.743
 21
90.135
  0
LINE
  8
0
 10
144.743
 20
90.135
 11
-144.743
 21
90.135
  0
LINE
  8
0
 10
145.937
 20
64.5886
 11
146.545
 21
64.7447
  0
LINE
  8
0
 10
146.545
 20
64.7447
 11
147.129
 21
64.9759
  0
LINE
  8
0
 10
147.129
 20
64.9759
 11
147.679
 21
65.2784
  0
LINE
  8
0
 10
147.679
 20
65.2784
 11
148.187
 21
65.6474
  0
LINE
  8
0
 10
148.187
 20
65.6474
 11
148.645
 21
66.0773
  0
LINE
  8
0
 10
148.645
 20
66.0773
 11
149.045
 21
66.5611
  0
LINE
  8
0
 10
149.045
 20
66.5611
 11
149.382
 21
67.0912
  0
LINE
  8
0
 10
149.382
 20
67.0912
 11
149.649
 21
67.6594
  0
LINE
  8
0
 10
149.649
 20
67.6594
 11
149.843
 21
68.2566
  0
LINE
  8
0
 10
149.843
 20
68.2566
 11
149.961
 21
68.8733
  0
LINE
  8
0
 10
149.961
 20
68.8733
 11
150
 21
69.5
  0
LINE
  8
0
 10
150
 20
69.5
 11
150
 21
74.5
  0
LINE
  8
0
 10
150
 20
74.5
 11
149.961
 21
75.1267
  0
LINE
  8
0
 10
149.961
 20
75.1267
 11
149.843
 21
75.7434
  0
LINE
  8
0
 10
149.843
 20
75.7434
 11
149.649
 21
76.3406
  0
LINE
  8
0
 10
149.649
 20
76.3406
 11
149.382
 21
76.9088
  0
LINE
  8
0
 10
149.382
 20
76.9088
 11
149.045
 21
77.4389
  0
LINE
  8
0
 10
149.045
 20
77.4389
 11
148.645
 21
77.9227
  0
LINE
  8
0
 10
148.645
 20
77.9227
 11
148.187
 21
78.3526
  0
LINE
  8
0
 10
148.187
 20
78.3526
 11
147.679
 21
78.7216
  0
LINE
  8
0
 10
147.679
 20
78.7216
 11
147.129
 21
79.0241
  0
LINE
  8
0
 10
147.129
 20
79.0241
 11
146.545
 21
79.2553
  0
LINE
  8
0
 10
146.545
 20
79.2553
 11
145.937
 21
79.4114
  0
LINE
  8
0
 10
145.937
 20
79.4114
 11
145.314
 21
79.4901
  0
LINE
  8
0
 10
145.314
 20
79.4901
 11
-145.314
 21
79.4901
  0
LINE
  8
0
 10
-145.314
 20
79.4901
 11
-145.937
 21
79.4114
  0
LINE
  8
0
 10
-145.937
 20
79.4114
 11
-146.545
 21
79.2553
  0
LINE
  8
0
 10
-146.545
 20
79.2553
 11
-147.129
 21
79.0241
  0
LINE
  8
0
 10
-147.129
 20
79.0241
 11
-147.679
 21
78.7216
  0
LINE
  8
0
 10
-147.679
 20
78.7216
 11
-148.187
 21
78.3526
  0
LINE
  8
0
 10
-148.187
 20
78.3526
 11
-148.5
 21
78.0587
  0
LINE
  8
0
 10
-148.5
 20
78.0587
 11
-148.5
 21
79.1148
  0
LINE
  8
0
 10
-148.5
 20
79.1148
 11
-151.5
 21
79.1148
  0
LINE
  8
0
 10
-151.5
 20
79.1148
 11
-151.5
 21
64.8852
  0
LINE
  8
0
 10
-151.5
 20
64.8852
 11
-148.5
 21
64.8852
  0
LINE
  8
0
 10
-148.5
 20
64.8852
 11
-148.5
 21
65.9413
  0
LINE
  8
0
 10
-148.5
 20
65.9413
 11
-148.187
 21
65.6474
  0
LINE
  8
0
 10
-148.187
 20
65.6474
 11
-147.679
 21
65.2784
  0
LINE
  8
0
 10
-147.679
 20
65.2784
 11
-147.129
 21
64.9759
  0
LINE
  8
0
 10
-147.129
 20
64.9759
 11
-146.545
 21
64.7447
  0
LINE
  8
0
 10
-146.545
 20
64.7447
 11
-145.937
 21
64.5886
  0
LINE
  8
0
 10
-145.937
 20
64.5886
 11
-145.314
 21
64.5099
  0
LINE
  8
0
 10
-145.314
 20
64.5099
 11
145.314
 21
64.5099
  0
LINE
  8
0
 10
145.314
 20
64.5099
 11
145.937
 21
64.5886
  0
LINE
  8
0
 10
142.349
 20
69.6047
 11
142.05
 21
69.6425
  0
LINE
  8
0
 10
142.05
 20
69.6425
 11
141.758
 21
69.7175
  0
LINE
  8
0
 10
141.758
 20
69.7175
 11
141.478
 21
69.8284
  0
LINE
  8
0
 10
141.478
 20
69.8284
 11
141.214
 21
69.9736
  0
LINE
  8
0
 10
141.214
 20
69.9736
 11
140.97
 21
70.1508
  0
LINE
  8
0
 10
140.97
 20
70.1508
 11
140.75
 21
70.3571
  0
LINE
  8
0
 10
140.75
 20
70.3571
 11
140.558
 21
70.5893
  0
LINE
  8
0
 10
140.558
 20
70.5893
 11
140.397
 21
70.8438
  0
LINE
  8
0
 10
140.397
 20
70.8438
 11
140.269
 21
71.1165
  0
LINE
  8
0
 10
140.269
 20
71.1165
 11
140.175
 21
71.4032
  0
LINE
  8
0
 10
140.175
 20
71.4032
 11
140.119
 21
71.6992
  0
LINE
  8
0
 10
140.119
 20
71.6992
 11
140.1
 21
72
  0
LINE
  8
0
 10
140.1
 20
72
 11
140.119
 21
72.3008
  0
LINE
  8
0
 10
140.119
 20
72.3008
 11
140.175
 21
72.5968
  0
LINE
  8
0
 10
140.175
 20
72.5968
 11
140.269
 21
72.8835
  0
LINE
  8
0
 10
140.269
 20
72.8835
 11
140.397
 21
73.1562
  0
LINE
  8
0
 10
140.397
 20
73.1562
 11
140.558
 21
73.4107
  0
LINE
  8
0
 10
140.558
 20
73.4107
 11
140.75
 21
73.6429
  0
LINE
  8
0
 10
140.75
 20
73.6429
 11
140.97
 21
73.8492
  0
LINE
  8
0
 10
140.97
 20
73.8492
 11
141.214
 21
74.0264
  0
LINE
  8
0
 10
141.214
 20
74.0264
 11
141.478
 21
74.1716
  0
LINE
  8
0
 10
141.478
 20
74.1716
 11
141.758
 21
74.2825
  0
LINE
  8
0
 10
141.758
 20
74.2825
 11
142.05
 21
74.3575
  0
LINE
  8
0
 10
142.05
 20
74.3575
 11
142.349
 21
74.3953
  0
LINE
  8
0
 10
142.349
 20
74.3953
 11
142.651
 21
74.3953
  0
LINE
  8
0
 10
142.651
 20
74.3953
 11
142.95
 21
74.3575
  0
LINE
  8
0
 10
142.95
 20
74.3575
 11
143.242
 21
74.2825
  0
LINE
  8
0
 10
143.242
 20
74.2825
 11
143.522
 21
74.1716
  0
LINE
  8
0
 10
143.522
 20
74.1716
 11
143.786
 21
74.0264
  0
LINE
  8
0
 10
143.786
 20
74.0264
 11
144.03
 21
73.8492
  0
LINE
  8
0
 10
144.03
 20
73.8492
 11
144.25
 21
73.6429
  0
LINE
  8
0
 10
144.25
 20
73.6429
 11
144.442
 21
73.4107
  0
LINE
  8
0
 10
144.442
 20
73.4107
 11
144.603
 21
73.1562
  0
LINE
  8
0
 10
144.603
 20
73.1562
 11
144.731
 21
72.8835
  0
LINE
  8
0
 10
144.731
 20
72.8835
 11
144.825
 21
72.5968
  0
LINE
  8
0
 10
144.825
 20
72.5968
 11
144.881
 21
72.3008
  0
LINE
  8
0
 10
144.881
 20
72.3008
 11
144.9
 21
72
  0
LINE
  8
0
 10
144.9
 20
72
 11
144.881
 21
71.6992
  0
LINE
  8
0
 10
144.881
 20
71.6992
 11
144.825
 21
71.4032
  0
LINE
  8
0
 10
144.825
 20
71.4032
 11
144.731
 21
71.1165
  0
LINE
  8
0
 10
144.731
 20
71.1165
 11
144.603
 21
70.8438
  0
LINE
  8
0
 10
144.603
 20
70.8438
 11
144.442
 21
70.5893
  0
LINE
  8
0
 10
144.442
 20
70.5893
 11
144.25
 21
70.3571
  0
LINE
  8
0
 10
144.25
 20
70.3571
 11
144.03
 21
70.1508
  0
LINE
  8
0
 10
144.03
 20
70.1508
 11
143.786
 21
69.9736
  0
LINE
  8
0
 10
143.786
 20
69.9736
 11
143.522
 21
69.8284
  0
LINE
  8
0
 10
143.522
 20
69.8284
 11
143.242
 21
69.7175
  0
LINE
  8
0
 10
143.242
 20
69.7175
 11
142.95
 21
69.6425
  0
LINE
  8
0
 10
142.95
 20
69.6425
 11
142.651
 21
69.6047
  0
LINE
  8
0
 10
142.651
 20
69.6047
 11
142.349
 21
69.6047
  0
LINE
  8
0
 10
-142.651
 20
69.6047
 11
-142.95
 21
69.6425
  0
LINE
  8
0
 10
-142.95
 20
69.6425
 11
-143.242
 21
69.7175
  0
LINE
  8
0
 10
-143.242
 20
69.7175
 11
-143.522
 21
69.8284
  0
LINE
  8
0
 10
-143.522
 20
69.8284
 11
-143.786
 21
69.9736
  0
LINE
  8
0
 10
-143.786
 20
69.9736
 11
-144.03
 21
70.1508
  0
LINE
  8
0
 10
-144.03
 20
70.1508
 11
-144.25
 21
70.3571
  0
LINE
  8
0
 10
-144.25
 20
70.3571
 11
-144.442
 21
70.5893
  0
LINE
  8
0
 10
-144.442
 20
70.5893
 11
-144.603
 21
70.8438
  0
LINE
  8
0
 10
-144.603
 20
70.8438
 11
-144.731
 21
71.1165
  0
LINE
  8
0
 10
-144.731
 20
71.1165
 11
-144.825
 21
71.4032
  0
LINE
  8
0
 10
-144.825
 20
71.4032
 11
-144.881
 21
71.6992
  0
LINE
  8
0
 10
-144.881
 20
71.6992
 11
-144.9
 21
72
  0
LINE
  8
0
 10
-144.9
 20
72
 11
-144.881
 21
72.3008
  0
LINE
  8
0
 10
-144.881
 20
72.3008
 11
-144.825
 21
72.5968
  0
LINE
  8
0
 10
-144.825
 20
72.5968
 11
-144.731
 21
72.8835
  0
LINE
  8
0
 10
-144.731
 20
72.8835
 11
-144.603
 21
73.1562
  0
LINE
  8
0
 10
-144.603
 20
73.1562
 11
-144.442
 21
73.4107
  0
LINE
  8
0
 10
-144.442
 20
73.4107
 11
-144.25
 21
73.6429
  0
LINE
  8
0
 10
-144.25
 20
73.6429
 11
-144.03
 21
73.8492
  0
LINE
  8
0
 10
-144.03
 20
73.8492
 11
-143.786
 21
74.0264
  0
LINE
  8
0
 10
-143.786
 20
74.0264
 11
-143.522
 21
74.1716
  0
LINE
  8
0
 10
-143.522
 20
74.1716
 11
-143.242
 21
74.2825
  0
LINE
  8
0
 10
-143.242
 20
74.2825
 11
-142.95
 21
74.3575
  0
LINE
  8
0
 10
-142.95
 20
74.3575
 11
-142.651
 21
74.3953
  0
LINE
  8
0
 10
-142.651
 20
74.3953
 11
-142.349
 21
74.3953
  0
LINE
  8
0
 10
-142.349
 20
74.3953
 11
-142.05
 21
74.3575
  0
LINE
  8
0
 10
-142.05
 20
74.3575
 11
-141.758
 21
74.2825
  0
LINE
  8
0
 10
-141.758
 20
74.2825
 11
-141.478
 21
74.1716
  0
LINE
  8
0
 10
-141.478
 20
74.1716
 11
-141.214
 21
74.0264
  0
LINE
  8
0
 10
-141.214
 20
74.0264
 11
-140.97
 21
73.8492
  0
LINE
  8
0
 10
-140.97
 20
73.8492
 11
-140.75
 21
73.6429
  0
LINE
  8
0
 10
-140.75
 20
73.6429
 11
-140.558
 21
73.4107
  0
LINE
  8
0
 10
-140.558
 20
73.4107
 11
-140.397
 21
73.1562
  0
LINE
  8
0
 10
-140.397
 20
73.1562
 11
-140.269
 21
72.8835
  0
LINE
  8
0
 10
-140.269
 20
72.8835
 11
-140.175
 21
72.5968
  0
LINE
  8
0
 10
-140.175
 20
72.5968
 11
-140.119
 21
72.3008
  0
LINE
  8
0
 10
-140.119
 20
72.3008
 11
-140.1
 21
72
  0
LINE
  8
0
 10
-140.1
 20
72
 11
-140.119
 21
71.6992
  0
LINE
  8
0
 10
-140.119
 20
71.6992
 11
-140.175
 21
71.4032
  0
LINE
  8
0
 10
-140.175
 20
71.4032
 11
-140.269
 21
71.1165
  0
LINE
  8
0
 10
-140.269
 20
71.1165
 11
-140.397
 21
70.8438
  0
LINE
  8
0
 10
-140.397
 20
70.8438
 11
-140.558
 21
70.5893
  0
LINE
  8
0
 10
-140.558
 20
70.5893
 11
-140.75
 21
70.3571
  0
LINE
  8
0
 10
-140.75
 20
70.3571
 11
-140.97
 21
70.1508
  0
LINE
  8
0
 10
-140.97
 20
70.1508
 11
-141.214
 21
69.9736
  0
LINE
  8
0
 10
-141.214
 20
69.9736
 11
-141.478
 21
69.8284
  0
LINE
  8
0
 10
-141.478
 20
69.8284
 11
-141.758
 21
69.7175
  0
LINE
  8
0
 10
-141.758
 20
69.7175
 11
-142.05
 21
69.6425
  0
LINE
  8
0
 10
-142.05
 20
69.6425
 11
-142.349
 21
69.6047
  0
LINE
  8
0
 10
-142.349
 20
69.6047
 11
-142.651
 21
69.6047
  0
LINE
  8
0
 10
145.937
 20
40.5886
 11
146.545
 21
40.7447
  0
LINE
  8
0
 10
146.545
 20
40.7447
 11
147.129
 21
40.9759
  0
LINE
  8
0
 10
147.129
 20
40.9759
 11
147.679
 21
41.2784
  0
LINE
  8
0
 10
147.679
 20
41.2784
 11
148.187
 21
41.6474
  0
LINE
  8
0
 10
148.187
 20
41.6474
 11
148.645
 21
42.0773
  0
LINE
  8
0
 10
148.645
 20
42.0773
 11
149.045
 21
42.5611
  0
LINE
  8
0
 10
149.045
 20
42.5611
 11
149.382
 21
43.0912
  0
LINE
  8
0
 10
149.382
 20
43.0912
 11
149.649
 21
43.6594
  0
LINE
  8
0
 10
149.649
 20
43.6594
 11
149.843
 21
44.2566
  0
LINE
  8
0
 10
149.843
 20
44.2566
 11
149.961
 21
44.8733
  0
LINE
  8
0
 10
149.961
 20
44.8733
 11
150
 21
45.5
  0
LINE
  8
0
 10
150
 20
45.5
 11
150
 21
50.5
  0
LINE
  8
0
 10
150
 20
50.5
 11
149.961
 21
51.1267
  0
LINE
  8
0
 10
149.961
 20
51.1267
 11
149.843
 21
51.7434
  0
LINE
  8
0
 10
149.843
 20
51.7434
 11
149.649
 21
52.3406
  0
LINE
  8
0
 10
149.649
 20
52.3406
 11
149.382
 21
52.9088
  0
LINE
  8
0
 10
149.382
 20
52.9088
 11
149.045
 21
53.4389
  0
LINE
  8
0
 10
149.045
 20
53.4389
 11
148.645
 21
53.9227
  0
LINE
  8
0
 10
148.645
 20
53.9227
 11
148.187
 21
54.3526
  0
LINE
  8
0
 10
148.187
 20
54.3526
 11
147.679
 21
54.7216
  0
LINE
  8
0
 10
147.679
 20
54.7216
 11
147.129
 21
55.0241
  0
LINE
  8
0
 10
147.129
 20
55.0241
 11
146.545
 21
55.2553
  0
LINE
  8
0
 10
146.545
 20
55.2553
 11
145.937
 21
55.4114
  0
LINE
  8
0
 10
145.937
 20
55.4114
 11
145.314
 21
55.4901
  0
LINE
  8
0
 10
145.314
 20
55.4901
 11
-145.314
 21
55.4901
  0
LINE
  8
0
 10
-145.314
 20
55.4901
 11
-145.937
 21
55.4114
  0
LINE
  8
0
 10
-145.937
 20
55.4114
 11
-146.545
 21
55.2553
  0
LINE
  8
0
 10
-146.545
 20
55.2553
 11
-147.129
 21
55.0241
  0
LINE
  8
0
 10
-147.129
 20
55.0241
 11
-147.679
 21
54.7216
  0
LINE
  8
0
 10
-147.679
 20
54.7216
 11
-148.187
 21
54.3526
  0
LINE
  8
0
 10
-148.187
 20
54.3526
 11
-148.645
 21
53.9227
  0
LINE
  8
0
 10
-148.645
 20
53.9227
 11
-149.045
 21
53.4389
  0
LINE
  8
0
 10
-149.045
 20
53.4389
 11
-149.382
 21
52.9088
  0
LINE
  8
0
 10
-149.382
 20
52.9088
 11
-149.649
 21
52.3406
  0
LINE
  8
0
 10
-149.649
 20
52.3406
 11
-149.843
 21
51.7434
  0
LINE
  8
0
 10
-149.843
 20
51.7434
 11
-149.9
 21
51.4442
  0
LINE
  8
0
 10
-149.9
 20
51.4442
 11
-151.5
 21
51.4442
  0
LINE
  8
0
 10
-151.5
 20
51.4442
 11
-151.5
 21
44.5558
  0
LINE
  8
0
 10
-151.5
 20
44.5558
 11
-149.9
 21
44.5558
  0
LINE
  8
0
 10
-149.9
 20
44.5558
 11
-149.843
 21
44.2566
  0
LINE
  8
0
 10
-149.843
 20
44.2566
 11
-149.649
 21
43.6594
  0
LINE
  8
0
 10
-149.649
 20
43.6594
 11
-149.382
 21
43.0912
  0
LINE
  8
0
 10
-149.382
 20
43.0912
 11
-149.045
 21
42.5611
  0
LINE
  8
0
 10
-149.045
 20
42.5611
 11
-148.645
 21
42.0773
  0
LINE
  8
0
 10
-148.645
 20
42.0773
 11
-148.187
 21
41.6474
  0
LINE
  8
0
 10
-148.187
 20
41.6474
 11
-147.679
 21
41.2784
  0
LINE
  8
0
 10
-147.679
 20
41.2784
 11
-147.129
 21
40.9759
  0
LINE
  8
0
 10
-147.129
 20
40.9759
 11
-146.545
 21
40.7447
  0
LINE
  8
0
 10
-146.545
 20
40.7447
 11
-145.937
 21
40.5886
  0
LINE
  8
0
 10
-145.937
 20
40.5886
 11
-145.314
 21
40.5099
  0
LINE
  8
0
 10
-145.314
 20
40.5099
 11
145.314
 21
40.5099
  0
LINE
  8
0
 10
145.314
 20
40.5099
 11
145.937
 21
40.5886
  0
LINE
  8
0
 10
-142.613
 20
46.2036
 11
-142.837
 21
46.2319
  0
LINE
  8
0
 10
-142.837
 20
46.2319
 11
-143.056
 21
46.2881
  0
LINE
  8
0
 10
-143.056
 20
46.2881
 11
-143.266
 21
46.3713
  0
LINE
  8
0
 10
-143.266
 20
46.3713
 11
-143.464
 21
46.4802
  0
LINE
  8
0
 10
-143.464
 20
46.4802
 11
-143.647
 21
46.6131
  0
LINE
  8
0
 10
-143.647
 20
46.6131
 11
-143.812
 21
46.7678
  0
LINE
  8
0
 10
-143.812
 20
46.7678
 11
-143.956
 21
46.942
  0
LINE
  8
0
 10
-143.956
 20
46.942
 11
-144.077
 21
47.1329
  0
LINE
  8
0
 10
-144.077
 20
47.1329
 11
-144.174
 21
47.3374
  0
LINE
  8
0
 10
-144.174
 20
47.3374
 11
-144.243
 21
47.5524
  0
LINE
  8
0
 10
-144.243
 20
47.5524
 11
-144.286
 21
47.7744
  0
LINE
  8
0
 10
-144.286
 20
47.7744
 11
-144.3
 21
48
  0
LINE
  8
0
 10
-144.3
 20
48
 11
-144.286
 21
48.2256
  0
LINE
  8
0
 10
-144.286
 20
48.2256
 11
-144.243
 21
48.4476
  0
LINE
  8
0
 10
-144.243
 20
48.4476
 11
-144.174
 21
48.6626
  0
LINE
  8
0
 10
-144.174
 20
48.6626
 11
-144.077
 21
48.8671
  0
LINE
  8
0
 10
-144.077
 20
48.8671
 11
-143.956
 21
49.058
  0
LINE
  8
0
 10
-143.956
 20
49.058
 11
-143.812
 21
49.2322
  0
LINE
  8
0
 10
-143.812
 20
49.2322
 11
-143.647
 21
49.3869
  0
LINE
  8
0
 10
-143.647
 20
49.3869
 11
-143.464
 21
49.5198
  0
LINE
  8
0
 10
-143.464
 20
49.5198
 11
-143.266
 21
49.6287
  0
LINE
  8
0
 10
-143.266
 20
49.6287
 11
-143.056
 21
49.7119
  0
LINE
  8
0
 10
-143.056
 20
49.7119
 11
-142.837
 21
49.7681
  0
LINE
  8
0
 10
-142.837
 20
49.7681
 11
-142.613
 21
49.7964
  0
LINE
  8
0
 10
-142.613
 20
49.7964
 11
-142.387
 21
49.7964
  0
LINE
  8
0
 10
-142.387
 20
49.7964
 11
-142.163
 21
49.7681
  0
LINE
  8
0
 10
-142.163
 20
49.7681
 11
-141.944
 21
49.7119
  0
LINE
  8
0
 10
-141.944
 20
49.7119
 11
-141.734
 21
49.6287
  0
LINE
  8
0
 10
-141.734
 20
49.6287
 11
-141.536
 21
49.5198
  0
LINE
  8
0
 10
-141.536
 20
49.5198
 11
-141.353
 21
49.3869
  0
LINE
  8
0
 10
-141.353
 20
49.3869
 11
-141.188
 21
49.2322
  0
LINE
  8
0
 10
-141.188
 20
49.2322
 11
-141.044
 21
49.058
  0
LINE
  8
0
 10
-141.044
 20
49.058
 11
-140.923
 21
48.8671
  0
LINE
  8
0
 10
-140.923
 20
48.8671
 11
-140.826
 21
48.6626
  0
LINE
  8
0
 10
-140.826
 20
48.6626
 11
-140.757
 21
48.4476
  0
LINE
  8
0
 10
-140.757
 20
48.4476
 11
-140.714
 21
48.2256
  0
LINE
  8
0
 10
-140.714
 20
48.2256
 11
-140.7
 21
48
  0
LINE
  8
0
 10
-140.7
 20
48
 11
-140.714
 21
47.7744
  0
LINE
  8
0
 10
-140.714
 20
47.7744
 11
-140.757
 21
47.5524
  0
LINE
  8
0
 10
-140.757
 20
47.5524
 11
-140.826
 21
47.3374
  0
LINE
  8
0
 10
-140.826
 20
47.3374
 11
-140.923
 21
47.1329
  0
LINE
  8
0
 10
-140.923
 20
47.1329
 11
-141.044
 21
46.942
  0
LINE
  8
0
 10
-141.044
 20
46.942
 11
-141.188
 21
46.7678
  0
LINE
  8
0
 10
-141.188
 20
46.7678
 11
-141.353
 21
46.6131
  0
LINE
  8
0
 10
-141.353
 20
46.6131
 11
-141.536
 21
46.4802
  0
LINE
  8
0
 10
-141.536
 20
46.4802
 11
-141.734
 21
46.3713
  0
LINE
  8
0
 10
-141.734
 20
46.3713
 11
-141.944
 21
46.2881
  0
LINE
  8
0
 10
-141.944
 20
46.2881
 11
-142.163
 21
46.2319
  0
LINE
  8
0
 10
-142.163
 20
46.2319
 11
-142.387
 21
46.2036
  0
LINE
  8
0
 10
-142.387
 20
46.2036
 11
-142.613
 21
46.2036
  0
LINE
  8
0
 10
142.387
 20
46.2036
 11
142.163
 21
46.2319
  0
LINE
  8
0
 10
142.163
 20
46.2319
 11
141.944
 21
46.2881
  0
LINE
  8
0
 10
141.944
 20
46.2881
 11
141.734
 21
46.3713
  0
LINE
  8
0
 10
141.734
 20
46.3713
 11
141.536
 21
46.4802
  0
LINE
  8
0
 10
141.536
 20
46.4802
 11
141.353
 21
46.6131
  0
LINE
  8
0
 10
141.353
 20
46.6131
 11
141.188
 21
46.7678
  0
LINE
  8
0
 10
141.188
 20
46.7678
 11
141.044
 21
46.942
  0
LINE
  8
0
 10
141.044
 20
46.942
 11
140.923
 21
47.1329
  0
LINE
  8
0
 10
140.923
 20
47.1329
 11
140.826
 21
47.3374
  0
LINE
  8
0
 10
140.826
 20
47.3374
 11
140.757
 21
47.5524
  0
LINE
  8
0
 10
140.757
 20
47.5524
 11
140.714
 21
47.7744
  0
LINE
  8
0
 10
140.714
 20
47.7744
 11
140.7
 21
48
  0
LINE
  8
0
 10
140.7
 20
48
 11
140.714
 21
48.2256
  0
LINE
  8
0
 10
140.714
 20
48.2256
 11
140.757
 21
48.4476
  0
LINE
  8
0
 10
140.757
 20
48.4476
 11
140.826
 21
48.6626
  0
LINE
  8
0
 10
140.826
 20
48.6626
 11
140.923
 21
48.8671
  0
LINE
  8
0
 10
140.923
 20
48.8671
 11
141.044
 21
49.058
  0
LINE
  8
0
 10
141.044
 20
49.058
 11
141.188
 21
49.2322
  0
LINE
  8
0
 10
141.188
 20
49.2322
 11
141.353
 21
49.3869
  0
LINE
  8
0
 10
141.353
 20
49.3869
 11
141.536
 21
49.5198
  0
LINE
  8
0
 10
141.536
 20
49.5198
 11
141.734
 21
49.6287
  0
LINE
  8
0
 10
141.734
 20
49.6287
 11
141.944
 21
49.7119
  0
LINE
  8
0
 10
141.944
 20
49.7119
 11
142.163
 21
49.7681
  0
LINE
  8
0
 10
142.163
 20
49.7681
 11
142.387
 21
49.7964
  0
LINE
  8
0
 10
142.387
 20
49.7964
 11
142.613
 21
49.7964
  0
LINE
  8
0
 10
142.613
 20
49.7964
 11
142.837
 21
49.7681
  0
LINE
  8
0
 10
142.837
 20
49.7681
 11
143.056
 21
49.7119
  0
LINE
  8
0
 10
143.056
 20
49.7119
 11
143.266
 21
49.6287
  0
LINE
  8
0
 10
143.266
 20
49.6287
 11
143.464
 21
49.5198
  0
LINE
  8
0
 10
143.464
 20
49.5198
 11
143.647
 21
49.3869
  0
LINE
  8
0
 10
143.647
 20
49.3869
 11
143.812
 21
49.2322
  0
LINE
  8
0
 10
143.812
 20
49.2322
 11
143.956
 21
49.058
  0
LINE
  8
0
 10
143.956
 20
49.058
 11
144.077
 21
48.8671
  0
LINE
  8
0
 10
144.077
 20
48.8671
 11
144.174
 21
48.6626
  0
LINE
  8
0
 10
144.174
 20
48.6626
 11
144.243
 21
48.4476
  0
LINE
  8
0
 10
144.243
 20
48.4476
 11
144.286
 21
48.2256
  0
LINE
  8
0
 10
144.286
 20
48.2256
 11
144.3
 21
48
  0
LINE
  8
0
 10
144.3
 20
48
 11
144.286
 21
47.7744
  0
LINE
  8
0
 10
144.286
 20
47.7744
 11
144.243
 21
47.5524
  0
LINE
  8
0
 10
144.243
 20
47.5524
 11
144.174
 21
47.3374
  0
LINE
  8
0
 10
144.174
 20
47.3374
 11
144.077
 21
47.1329
  0
LINE
  8
0
 10
144.077
 20
47.1329
 11
143.956
 21
46.942
  0
LINE
  8
0
 10
143.956
 20
46.942
 11
143.812
 21
46.7678
  0
LINE
  8
0
 10
143.812
 20
46.7678
 11
143.647
 21
46.6131
  0
LINE
  8
0
 10
143.647
 20
46.6131
 11
143.464
 21
46.4802
  0
LINE
  8
0
 10
143.464
 20
46.4802
 11
143.266
 21
46.3713
  0
LINE
  8
0
 10
143.266
 20
46.3713
 11
143.056
 21
46.2881
  0
LINE
  8
0
 10
143.056
 20
46.2881
 11
142.837
 21
46.2319
  0
LINE
  8
0
 10
142.837
 20
46.2319
 11
142.613
 21
46.2036
  0
LINE
  8
0
 10
142.613
 20
46.2036
 11
142.387
 21
46.2036
  0
ENDSEC
  0
SECTION
  2
OBJECTS
  0
DICTIONARY
  0
ENDSEC
  0
EOF
