<?xml version="1.0" standalone="no"?>
<!DOCTYPE svg PUBLIC "-//W3C//DTD SVG 1.1//EN" "http://www.w3.org/Graphics/SVG/1.1/DTD/svg11.dtd">
<svg width="270mm" height="808mm" viewBox="-135 -1322 270 808" xmlns="http://www.w3.org/2000/svg" version="1.1">
<title>OpenSCAD Model</title>
<path d="
M 130.937,-1126.59 L 131.545,-1126.74 L 132.129,-1126.98 L 132.679,-1127.28 L 133.187,-1127.65 L 133.645,-1128.08
 L 134.045,-1128.56 L 134.382,-1129.09 L 134.649,-1129.66 L 134.843,-1130.26 L 134.961,-1130.87 L 135,-1131.5
 L 135,-1316.5 L 134.961,-1317.13 L 134.843,-1317.74 L 134.649,-1318.34 L 134.382,-1318.91 L 134.045,-1319.44
 L 133.645,-1319.92 L 133.187,-1320.35 L 132.679,-1320.72 L 132.129,-1321.02 L 131.545,-1321.26 L 130.937,-1321.41
 L 130.314,-1321.49 L -130.314,-1321.49 L -130.937,-1321.41 L -131.545,-1321.26 L -132.129,-1321.02 L -132.679,-1320.72
 L -133.187,-1320.35 L -133.645,-1319.92 L -134.045,-1319.44 L -134.382,-1318.91 L -134.649,-1318.34 L -134.843,-1317.74
 L -134.961,-1317.13 L -135,-1316.5 L -135,-1131.5 L -134.961,-1130.87 L -134.843,-1130.26 L -134.649,-1129.66
 L -134.382,-1129.09 L -134.045,-1128.56 L -133.645,-1128.08 L -133.187,-1127.65 L -132.679,-1127.28 L -132.129,-1126.98
 L -131.545,-1126.74 L -130.937,-1126.59 L -130.314,-1126.51 L 130.314,-1126.51 z
M -130.048,-1127.01 L -130.64,-1127.08 L -131.218,-1127.23 L -131.772,-1127.45 L -132.295,-1127.74 L -132.778,-1128.09
 L -133.213,-1128.5 L -133.593,-1128.96 L -133.912,-1129.46 L -134.166,-1130 L -134.351,-1130.57 L -134.463,-1131.15
 L -134.5,-1131.75 L -134.5,-1316.25 L -134.463,-1316.85 L -134.351,-1317.43 L -134.166,-1318 L -133.912,-1318.54
 L -133.593,-1319.04 L -133.213,-1319.5 L -132.778,-1319.91 L -132.295,-1320.26 L -131.772,-1320.55 L -131.218,-1320.77
 L -130.64,-1320.92 L -130.048,-1320.99 L 130.048,-1320.99 L 130.64,-1320.92 L 131.218,-1320.77 L 131.772,-1320.55
 L 132.295,-1320.26 L 132.778,-1319.91 L 133.213,-1319.5 L 133.593,-1319.04 L 133.912,-1318.54 L 134.166,-1318
 L 134.351,-1317.43 L 134.463,-1316.85 L 134.5,-1316.25 L 134.5,-1131.75 L 134.463,-1131.15 L 134.351,-1130.57
 L 134.166,-1130 L 133.912,-1129.46 L 133.593,-1128.96 L 133.213,-1128.5 L 132.778,-1128.09 L 132.295,-1127.74
 L 131.772,-1127.45 L 131.218,-1127.23 L 130.64,-1127.08 L 130.048,-1127.01 z
M 130.937,-922.589 L 131.545,-922.745 L 132.129,-922.976 L 132.679,-923.278 L 133.187,-923.647 L 133.645,-924.077
 L 134.045,-924.561 L 134.382,-925.091 L 134.649,-925.659 L 134.843,-926.257 L 134.961,-926.873 L 135,-927.5
 L 135,-1112.5 L 134.961,-1113.13 L 134.843,-1113.74 L 134.649,-1114.34 L 134.382,-1114.91 L 134.045,-1115.44
 L 133.645,-1115.92 L 133.187,-1116.35 L 132.679,-1116.72 L 132.129,-1117.02 L 131.545,-1117.26 L 130.937,-1117.41
 L 130.314,-1117.49 L -130.314,-1117.49 L -130.937,-1117.41 L -131.545,-1117.26 L -132.129,-1117.02 L -132.679,-1116.72
 L -133.187,-1116.35 L -133.645,-1115.92 L -134.045,-1115.44 L -134.382,-1114.91 L -134.649,-1114.34 L -134.843,-1113.74
 L -134.961,-1113.13 L -135,-1112.5 L -135,-927.5 L -134.961,-926.873 L -134.843,-926.257 L -134.649,-925.659
 L -134.382,-925.091 L -134.045,-924.561 L -133.645,-924.077 L -133.187,-923.647 L -132.679,-923.278 L -132.129,-922.976
 L -131.545,-922.745 L -130.937,-922.589 L -130.314,-922.51 L 130.314,-922.51 z
M -130.048,-923.009 L -130.64,-923.084 L -131.218,-923.232 L -131.772,-923.452 L -132.295,-923.739 L -132.778,-924.09
 L -133.213,-924.498 L -133.593,-924.958 L -133.912,-925.462 L -134.166,-926.001 L -134.351,-926.569 L -134.463,-927.155
 L -134.5,-927.75 L -134.5,-1112.25 L -134.463,-1112.85 L -134.351,-1113.43 L -134.166,-1114 L -133.912,-1114.54
 L -133.593,-1115.04 L -133.213,-1115.5 L -132.778,-1115.91 L -132.295,-1116.26 L -131.772,-1116.55 L -131.218,-1116.77
 L -130.64,-1116.92 L -130.048,-1116.99 L 130.048,-1116.99 L 130.64,-1116.92 L 131.218,-1116.77 L 131.772,-1116.55
 L 132.295,-1116.26 L 132.778,-1115.91 L 133.213,-1115.5 L 133.593,-1115.04 L 133.912,-1114.54 L 134.166,-1114
 L 134.351,-1113.43 L 134.463,-1112.85 L 134.5,-1112.25 L 134.5,-927.75 L 134.463,-927.155 L 134.351,-926.569
 L 134.166,-926.001 L 133.912,-925.462 L 133.593,-924.958 L 133.213,-924.498 L 132.778,-924.09 L 132.295,-923.739
 L 131.772,-923.452 L 131.218,-923.232 L 130.64,-923.084 L 130.048,-923.009 z
M 130.937,-718.589 L 131.545,-718.745 L 132.129,-718.976 L 132.679,-719.278 L 133.187,-719.647 L 133.645,-720.077
 L 134.045,-720.561 L 134.382,-721.091 L 134.649,-721.659 L 134.843,-722.257 L 134.961,-722.873 L 135,-723.5
 L 135,-908.5 L 134.961,-909.127 L 134.843,-909.743 L 134.649,-910.341 L 134.382,-910.909 L 134.045,-911.439
 L 133.645,-911.923 L 133.187,-912.353 L 132.679,-912.722 L 132.129,-913.024 L 131.545,-913.255 L 130.937,-913.411
 L 130.314,-913.49 L -130.314,-913.49 L -130.937,-913.411 L -131.545,-913.255 L -132.129,-913.024 L -132.679,-912.722
 L -133.187,-912.353 L -133.645,-911.923 L -134.045,-911.439 L -134.382,-910.909 L -134.649,-910.341 L -134.843,-909.743
 L -134.961,-909.127 L -135,-908.5 L -135,-723.5 L -134.961,-722.873 L -134.843,-722.257 L -134.649,-721.659
 L -134.382,-721.091 L -134.045,-720.561 L -133.645,-720.077 L -133.187,-719.647 L -132.679,-719.278 L -132.129,-718.976
 L -131.545,-718.745 L -130.937,-718.589 L -130.314,-718.51 L 130.314,-718.51 z
M -129.993,-719.888 L -130.475,-719.949 L -130.946,-720.07 L -131.398,-720.249 L -131.823,-720.483 L -132.216,-720.769
 L -132.571,-721.101 L -132.88,-721.476 L -133.141,-721.886 L -133.348,-722.326 L -133.498,-722.788 L -133.589,-723.265
 L -133.619,-723.75 L -133.619,-908.25 L -133.589,-908.735 L -133.498,-909.212 L -133.348,-909.674 L -133.141,-910.114
 L -132.88,-910.524 L -132.571,-910.899 L -132.216,-911.231 L -131.823,-911.517 L -131.398,-911.751 L -130.946,-911.93
 L -130.475,-912.051 L -129.993,-912.112 L 129.993,-912.112 L 130.475,-912.051 L 130.946,-911.93 L 131.398,-911.751
 L 131.823,-911.517 L 132.216,-911.231 L 132.571,-910.899 L 132.88,-910.524 L 133.141,-910.114 L 133.348,-909.674
 L 133.498,-909.212 L 133.589,-908.735 L 133.619,-908.25 L 133.619,-723.75 L 133.589,-723.265 L 133.498,-722.788
 L 133.348,-722.326 L 133.141,-721.886 L 132.88,-721.476 L 132.571,-721.101 L 132.216,-720.769 L 131.823,-720.483
 L 131.398,-720.249 L 130.946,-720.07 L 130.475,-719.949 L 129.993,-719.888 z
M 130.937,-514.589 L 131.545,-514.745 L 132.129,-514.976 L 132.679,-515.278 L 133.187,-515.647 L 133.645,-516.077
 L 134.045,-516.561 L 134.382,-517.091 L 134.649,-517.659 L 134.843,-518.257 L 134.961,-518.873 L 135,-519.5
 L 135,-704.5 L 134.961,-705.127 L 134.843,-705.743 L 134.649,-706.341 L 134.382,-706.909 L 134.045,-707.439
 L 133.645,-707.923 L 133.187,-708.353 L 132.679,-708.722 L 132.129,-709.024 L 131.545,-709.255 L 130.937,-709.411
 L 130.314,-709.49 L -130.314,-709.49 L -130.937,-709.411 L -131.545,-709.255 L -132.129,-709.024 L -132.679,-708.722
 L -133.187,-708.353 L -133.645,-707.923 L -134.045,-707.439 L -134.382,-706.909 L -134.649,-706.341 L -134.843,-705.743
 L -134.961,-705.127 L -135,-704.5 L -135,-519.5 L -134.961,-518.873 L -134.843,-518.257 L -134.649,-517.659
 L -134.382,-517.091 L -134.045,-516.561 L -133.645,-516.077 L -133.187,-515.647 L -132.679,-515.278 L -132.129,-514.976
 L -131.545,-514.745 L -130.937,-514.589 L -130.314,-514.51 L 130.314,-514.51 z
M 127.387,-700.204 L 127.163,-700.232 L 126.944,-700.288 L 126.734,-700.371 L 126.536,-700.48 L 126.353,-700.613
 L 126.188,-700.768 L 126.044,-700.942 L 125.923,-701.133 L 125.826,-701.337 L 125.757,-701.552 L 125.714,-701.774
 L 125.7,-702 L 125.714,-702.226 L 125.757,-702.448 L 125.826,-702.663 L 125.923,-702.867 L 126.044,-703.058
 L 126.188,-703.232 L 126.353,-703.387 L 126.536,-703.52 L 126.734,-703.629 L 126.944,-703.712 L 127.163,-703.768
 L 127.387,-703.796 L 127.613,-703.796 L 127.837,-703.768 L 128.056,-703.712 L 128.266,-703.629 L 128.464,-703.52
 L 128.647,-703.387 L 128.812,-703.232 L 128.956,-703.058 L 129.077,-702.867 L 129.174,-702.663 L 129.243,-702.448
 L 129.286,-702.226 L 129.3,-702 L 129.286,-701.774 L 129.243,-701.552 L 129.174,-701.337 L 129.077,-701.133
 L 128.956,-700.942 L 128.812,-700.768 L 128.647,-700.613 L 128.464,-700.48 L 128.266,-700.371 L 128.056,-700.288
 L 127.837,-700.232 L 127.613,-700.204 z
M -127.613,-700.204 L -127.837,-700.232 L -128.056,-700.288 L -128.266,-700.371 L -128.464,-700.48 L -128.647,-700.613
 L -128.812,-700.768 L -128.956,-700.942 L -129.077,-701.133 L -129.174,-701.337 L -129.243,-701.552 L -129.286,-701.774
 L -129.3,-702 L -129.286,-702.226 L -129.243,-702.448 L -129.174,-702.663 L -129.077,-702.867 L -128.956,-703.058
 L -128.812,-703.232 L -128.647,-703.387 L -128.464,-703.52 L -128.266,-703.629 L -128.056,-703.712 L -127.837,-703.768
 L -127.613,-703.796 L -127.387,-703.796 L -127.163,-703.768 L -126.944,-703.712 L -126.734,-703.629 L -126.536,-703.52
 L -126.353,-703.387 L -126.188,-703.232 L -126.044,-703.058 L -125.923,-702.867 L -125.826,-702.663 L -125.757,-702.448
 L -125.714,-702.226 L -125.7,-702 L -125.714,-701.774 L -125.757,-701.552 L -125.826,-701.337 L -125.923,-701.133
 L -126.044,-700.942 L -126.188,-700.768 L -126.353,-700.613 L -126.536,-700.48 L -126.734,-700.371 L -126.944,-700.288
 L -127.163,-700.232 L -127.387,-700.204 z
M -127.613,-520.204 L -127.837,-520.232 L -128.056,-520.288 L -128.266,-520.371 L -128.464,-520.48 L -128.647,-520.613
 L -128.812,-520.768 L -128.956,-520.942 L -129.077,-521.133 L -129.174,-521.337 L -129.243,-521.552 L -129.286,-521.774
 L -129.3,-522 L -129.286,-522.226 L -129.243,-522.448 L -129.174,-522.663 L -129.077,-522.867 L -128.956,-523.058
 L -128.812,-523.232 L -128.647,-523.387 L -128.464,-523.52 L -128.266,-523.629 L -128.056,-523.712 L -127.837,-523.768
 L -127.613,-523.796 L -127.387,-523.796 L -127.163,-523.768 L -126.944,-523.712 L -126.734,-523.629 L -126.536,-523.52
 L -126.353,-523.387 L -126.188,-523.232 L -126.044,-523.058 L -125.923,-522.867 L -125.826,-522.663 L -125.757,-522.448
 L -125.714,-522.226 L -125.7,-522 L -125.714,-521.774 L -125.757,-521.552 L -125.826,-521.337 L -125.923,-521.133
 L -126.044,-520.942 L -126.188,-520.768 L -126.353,-520.613 L -126.536,-520.48 L -126.734,-520.371 L -126.944,-520.288
 L -127.163,-520.232 L -127.387,-520.204 z
M 127.387,-520.204 L 127.163,-520.232 L 126.944,-520.288 L 126.734,-520.371 L 126.536,-520.48 L 126.353,-520.613
 L 126.188,-520.768 L 126.044,-520.942 L 125.923,-521.133 L 125.826,-521.337 L 125.757,-521.552 L 125.714,-521.774
 L 125.7,-522 L 125.714,-522.226 L 125.757,-522.448 L 125.826,-522.663 L 125.923,-522.867 L 126.044,-523.058
 L 126.188,-523.232 L 126.353,-523.387 L 126.536,-523.52 L 126.734,-523.629 L 126.944,-523.712 L 127.163,-523.768
 L 127.387,-523.796 L 127.613,-523.796 L 127.837,-523.768 L 128.056,-523.712 L 128.266,-523.629 L 128.464,-523.52
 L 128.647,-523.387 L 128.812,-523.232 L 128.956,-523.058 L 129.077,-522.867 L 129.174,-522.663 L 129.243,-522.448
 L 129.286,-522.226 L 129.3,-522 L 129.286,-521.774 L 129.243,-521.552 L 129.174,-521.337 L 129.077,-521.133
 L 128.956,-520.942 L 128.812,-520.768 L 128.647,-520.613 L 128.464,-520.48 L 128.266,-520.371 L 128.056,-520.288
 L 127.837,-520.232 L 127.613,-520.204 z
" stroke="black" fill="lightgray" stroke-width="0.5"/>
</svg>
