  0
SECTION
  2
BLOCKS
  0
ENDSEC
  0
SECTION
  2
ENTITIES
  0
LINE
  8
0
 10
115.937
 20
1330.59
 11
116.545
 21
1330.74
  0
LINE
  8
0
 10
116.545
 20
1330.74
 11
117.129
 21
1330.98
  0
LINE
  8
0
 10
117.129
 20
1330.98
 11
117.679
 21
1331.28
  0
LINE
  8
0
 10
117.679
 20
1331.28
 11
118.187
 21
1331.65
  0
LINE
  8
0
 10
118.187
 20
1331.65
 11
118.645
 21
1332.08
  0
LINE
  8
0
 10
118.645
 20
1332.08
 11
119.045
 21
1332.56
  0
LINE
  8
0
 10
119.045
 20
1332.56
 11
119.382
 21
1333.09
  0
LINE
  8
0
 10
119.382
 20
1333.09
 11
119.649
 21
1333.66
  0
LINE
  8
0
 10
119.649
 20
1333.66
 11
119.843
 21
1334.26
  0
LINE
  8
0
 10
119.843
 20
1334.26
 11
119.961
 21
1334.87
  0
LINE
  8
0
 10
119.961
 20
1334.87
 11
120
 21
1335.5
  0
LINE
  8
0
 10
120
 20
1335.5
 11
120
 21
1520.5
  0
LINE
  8
0
 10
120
 20
1520.5
 11
119.961
 21
1521.13
  0
LINE
  8
0
 10
119.961
 20
1521.13
 11
119.843
 21
1521.74
  0
LINE
  8
0
 10
119.843
 20
1521.74
 11
119.649
 21
1522.34
  0
LINE
  8
0
 10
119.649
 20
1522.34
 11
119.382
 21
1522.91
  0
LINE
  8
0
 10
119.382
 20
1522.91
 11
119.045
 21
1523.44
  0
LINE
  8
0
 10
119.045
 20
1523.44
 11
118.645
 21
1523.92
  0
LINE
  8
0
 10
118.645
 20
1523.92
 11
118.187
 21
1524.35
  0
LINE
  8
0
 10
118.187
 20
1524.35
 11
117.679
 21
1524.72
  0
LINE
  8
0
 10
117.679
 20
1524.72
 11
117.129
 21
1525.02
  0
LINE
  8
0
 10
117.129
 20
1525.02
 11
116.545
 21
1525.26
  0
LINE
  8
0
 10
116.545
 20
1525.26
 11
115.937
 21
1525.41
  0
LINE
  8
0
 10
115.937
 20
1525.41
 11
115.314
 21
1525.49
  0
LINE
  8
0
 10
115.314
 20
1525.49
 11
-115.314
 21
1525.49
  0
LINE
  8
0
 10
-115.314
 20
1525.49
 11
-115.937
 21
1525.41
  0
LINE
  8
0
 10
-115.937
 20
1525.41
 11
-116.545
 21
1525.26
  0
LINE
  8
0
 10
-116.545
 20
1525.26
 11
-117.129
 21
1525.02
  0
LINE
  8
0
 10
-117.129
 20
1525.02
 11
-117.679
 21
1524.72
  0
LINE
  8
0
 10
-117.679
 20
1524.72
 11
-118.187
 21
1524.35
  0
LINE
  8
0
 10
-118.187
 20
1524.35
 11
-118.645
 21
1523.92
  0
LINE
  8
0
 10
-118.645
 20
1523.92
 11
-119.045
 21
1523.44
  0
LINE
  8
0
 10
-119.045
 20
1523.44
 11
-119.382
 21
1522.91
  0
LINE
  8
0
 10
-119.382
 20
1522.91
 11
-119.649
 21
1522.34
  0
LINE
  8
0
 10
-119.649
 20
1522.34
 11
-119.843
 21
1521.74
  0
LINE
  8
0
 10
-119.843
 20
1521.74
 11
-119.961
 21
1521.13
  0
LINE
  8
0
 10
-119.961
 20
1521.13
 11
-120
 21
1520.5
  0
LINE
  8
0
 10
-120
 20
1520.5
 11
-120
 21
1335.5
  0
LINE
  8
0
 10
-120
 20
1335.5
 11
-119.961
 21
1334.87
  0
LINE
  8
0
 10
-119.961
 20
1334.87
 11
-119.843
 21
1334.26
  0
LINE
  8
0
 10
-119.843
 20
1334.26
 11
-119.649
 21
1333.66
  0
LINE
  8
0
 10
-119.649
 20
1333.66
 11
-119.382
 21
1333.09
  0
LINE
  8
0
 10
-119.382
 20
1333.09
 11
-119.045
 21
1332.56
  0
LINE
  8
0
 10
-119.045
 20
1332.56
 11
-118.645
 21
1332.08
  0
LINE
  8
0
 10
-118.645
 20
1332.08
 11
-118.187
 21
1331.65
  0
LINE
  8
0
 10
-118.187
 20
1331.65
 11
-117.679
 21
1331.28
  0
LINE
  8
0
 10
-117.679
 20
1331.28
 11
-117.129
 21
1330.98
  0
LINE
  8
0
 10
-117.129
 20
1330.98
 11
-116.545
 21
1330.74
  0
LINE
  8
0
 10
-116.545
 20
1330.74
 11
-115.937
 21
1330.59
  0
LINE
  8
0
 10
-115.937
 20
1330.59
 11
-115.314
 21
1330.51
  0
LINE
  8
0
 10
-115.314
 20
1330.51
 11
115.314
 21
1330.51
  0
LINE
  8
0
 10
115.314
 20
1330.51
 11
115.937
 21
1330.59
  0
LINE
  8
0
 10
-115.048
 20
1331.01
 11
-115.64
 21
1331.08
  0
LINE
  8
0
 10
-115.64
 20
1331.08
 11
-116.218
 21
1331.23
  0
LINE
  8
0
 10
-116.218
 20
1331.23
 11
-116.772
 21
1331.45
  0
LINE
  8
0
 10
-116.772
 20
1331.45
 11
-117.295
 21
1331.74
  0
LINE
  8
0
 10
-117.295
 20
1331.74
 11
-117.778
 21
1332.09
  0
LINE
  8
0
 10
-117.778
 20
1332.09
 11
-118.213
 21
1332.5
  0
LINE
  8
0
 10
-118.213
 20
1332.5
 11
-118.593
 21
1332.96
  0
LINE
  8
0
 10
-118.593
 20
1332.96
 11
-118.912
 21
1333.46
  0
LINE
  8
0
 10
-118.912
 20
1333.46
 11
-119.166
 21
1334
  0
LINE
  8
0
 10
-119.166
 20
1334
 11
-119.351
 21
1334.57
  0
LINE
  8
0
 10
-119.351
 20
1334.57
 11
-119.463
 21
1335.15
  0
LINE
  8
0
 10
-119.463
 20
1335.15
 11
-119.5
 21
1335.75
  0
LINE
  8
0
 10
-119.5
 20
1335.75
 11
-119.5
 21
1520.25
  0
LINE
  8
0
 10
-119.5
 20
1520.25
 11
-119.463
 21
1520.85
  0
LINE
  8
0
 10
-119.463
 20
1520.85
 11
-119.351
 21
1521.43
  0
LINE
  8
0
 10
-119.351
 20
1521.43
 11
-119.166
 21
1522
  0
LINE
  8
0
 10
-119.166
 20
1522
 11
-118.912
 21
1522.54
  0
LINE
  8
0
 10
-118.912
 20
1522.54
 11
-118.593
 21
1523.04
  0
LINE
  8
0
 10
-118.593
 20
1523.04
 11
-118.213
 21
1523.5
  0
LINE
  8
0
 10
-118.213
 20
1523.5
 11
-117.778
 21
1523.91
  0
LINE
  8
0
 10
-117.778
 20
1523.91
 11
-117.295
 21
1524.26
  0
LINE
  8
0
 10
-117.295
 20
1524.26
 11
-116.772
 21
1524.55
  0
LINE
  8
0
 10
-116.772
 20
1524.55
 11
-116.218
 21
1524.77
  0
LINE
  8
0
 10
-116.218
 20
1524.77
 11
-115.64
 21
1524.92
  0
LINE
  8
0
 10
-115.64
 20
1524.92
 11
-115.048
 21
1524.99
  0
LINE
  8
0
 10
-115.048
 20
1524.99
 11
115.048
 21
1524.99
  0
LINE
  8
0
 10
115.048
 20
1524.99
 11
115.64
 21
1524.92
  0
LINE
  8
0
 10
115.64
 20
1524.92
 11
116.218
 21
1524.77
  0
LINE
  8
0
 10
116.218
 20
1524.77
 11
116.772
 21
1524.55
  0
LINE
  8
0
 10
116.772
 20
1524.55
 11
117.295
 21
1524.26
  0
LINE
  8
0
 10
117.295
 20
1524.26
 11
117.778
 21
1523.91
  0
LINE
  8
0
 10
117.778
 20
1523.91
 11
118.213
 21
1523.5
  0
LINE
  8
0
 10
118.213
 20
1523.5
 11
118.593
 21
1523.04
  0
LINE
  8
0
 10
118.593
 20
1523.04
 11
118.912
 21
1522.54
  0
LINE
  8
0
 10
118.912
 20
1522.54
 11
119.166
 21
1522
  0
LINE
  8
0
 10
119.166
 20
1522
 11
119.351
 21
1521.43
  0
LINE
  8
0
 10
119.351
 20
1521.43
 11
119.463
 21
1520.85
  0
LINE
  8
0
 10
119.463
 20
1520.85
 11
119.5
 21
1520.25
  0
LINE
  8
0
 10
119.5
 20
1520.25
 11
119.5
 21
1335.75
  0
LINE
  8
0
 10
119.5
 20
1335.75
 11
119.463
 21
1335.15
  0
LINE
  8
0
 10
119.463
 20
1335.15
 11
119.351
 21
1334.57
  0
LINE
  8
0
 10
119.351
 20
1334.57
 11
119.166
 21
1334
  0
LINE
  8
0
 10
119.166
 20
1334
 11
118.912
 21
1333.46
  0
LINE
  8
0
 10
118.912
 20
1333.46
 11
118.593
 21
1332.96
  0
LINE
  8
0
 10
118.593
 20
1332.96
 11
118.213
 21
1332.5
  0
LINE
  8
0
 10
118.213
 20
1332.5
 11
117.778
 21
1332.09
  0
LINE
  8
0
 10
117.778
 20
1332.09
 11
117.295
 21
1331.74
  0
LINE
  8
0
 10
117.295
 20
1331.74
 11
116.772
 21
1331.45
  0
LINE
  8
0
 10
116.772
 20
1331.45
 11
116.218
 21
1331.23
  0
LINE
  8
0
 10
116.218
 20
1331.23
 11
115.64
 21
1331.08
  0
LINE
  8
0
 10
115.64
 20
1331.08
 11
115.048
 21
1331.01
  0
LINE
  8
0
 10
115.048
 20
1331.01
 11
-115.048
 21
1331.01
  0
LINE
  8
0
 10
115.937
 20
1126.59
 11
116.545
 21
1126.74
  0
LINE
  8
0
 10
116.545
 20
1126.74
 11
117.129
 21
1126.98
  0
LINE
  8
0
 10
117.129
 20
1126.98
 11
117.679
 21
1127.28
  0
LINE
  8
0
 10
117.679
 20
1127.28
 11
118.187
 21
1127.65
  0
LINE
  8
0
 10
118.187
 20
1127.65
 11
118.645
 21
1128.08
  0
LINE
  8
0
 10
118.645
 20
1128.08
 11
119.045
 21
1128.56
  0
LINE
  8
0
 10
119.045
 20
1128.56
 11
119.382
 21
1129.09
  0
LINE
  8
0
 10
119.382
 20
1129.09
 11
119.649
 21
1129.66
  0
LINE
  8
0
 10
119.649
 20
1129.66
 11
119.843
 21
1130.26
  0
LINE
  8
0
 10
119.843
 20
1130.26
 11
119.961
 21
1130.87
  0
LINE
  8
0
 10
119.961
 20
1130.87
 11
120
 21
1131.5
  0
LINE
  8
0
 10
120
 20
1131.5
 11
120
 21
1316.5
  0
LINE
  8
0
 10
120
 20
1316.5
 11
119.961
 21
1317.13
  0
LINE
  8
0
 10
119.961
 20
1317.13
 11
119.843
 21
1317.74
  0
LINE
  8
0
 10
119.843
 20
1317.74
 11
119.649
 21
1318.34
  0
LINE
  8
0
 10
119.649
 20
1318.34
 11
119.382
 21
1318.91
  0
LINE
  8
0
 10
119.382
 20
1318.91
 11
119.045
 21
1319.44
  0
LINE
  8
0
 10
119.045
 20
1319.44
 11
118.645
 21
1319.92
  0
LINE
  8
0
 10
118.645
 20
1319.92
 11
118.187
 21
1320.35
  0
LINE
  8
0
 10
118.187
 20
1320.35
 11
117.679
 21
1320.72
  0
LINE
  8
0
 10
117.679
 20
1320.72
 11
117.129
 21
1321.02
  0
LINE
  8
0
 10
117.129
 20
1321.02
 11
116.545
 21
1321.26
  0
LINE
  8
0
 10
116.545
 20
1321.26
 11
115.937
 21
1321.41
  0
LINE
  8
0
 10
115.937
 20
1321.41
 11
115.314
 21
1321.49
  0
LINE
  8
0
 10
115.314
 20
1321.49
 11
-115.314
 21
1321.49
  0
LINE
  8
0
 10
-115.314
 20
1321.49
 11
-115.937
 21
1321.41
  0
LINE
  8
0
 10
-115.937
 20
1321.41
 11
-116.545
 21
1321.26
  0
LINE
  8
0
 10
-116.545
 20
1321.26
 11
-117.129
 21
1321.02
  0
LINE
  8
0
 10
-117.129
 20
1321.02
 11
-117.679
 21
1320.72
  0
LINE
  8
0
 10
-117.679
 20
1320.72
 11
-118.187
 21
1320.35
  0
LINE
  8
0
 10
-118.187
 20
1320.35
 11
-118.645
 21
1319.92
  0
LINE
  8
0
 10
-118.645
 20
1319.92
 11
-119.045
 21
1319.44
  0
LINE
  8
0
 10
-119.045
 20
1319.44
 11
-119.382
 21
1318.91
  0
LINE
  8
0
 10
-119.382
 20
1318.91
 11
-119.649
 21
1318.34
  0
LINE
  8
0
 10
-119.649
 20
1318.34
 11
-119.843
 21
1317.74
  0
LINE
  8
0
 10
-119.843
 20
1317.74
 11
-119.961
 21
1317.13
  0
LINE
  8
0
 10
-119.961
 20
1317.13
 11
-120
 21
1316.5
  0
LINE
  8
0
 10
-120
 20
1316.5
 11
-120
 21
1131.5
  0
LINE
  8
0
 10
-120
 20
1131.5
 11
-119.961
 21
1130.87
  0
LINE
  8
0
 10
-119.961
 20
1130.87
 11
-119.843
 21
1130.26
  0
LINE
  8
0
 10
-119.843
 20
1130.26
 11
-119.649
 21
1129.66
  0
LINE
  8
0
 10
-119.649
 20
1129.66
 11
-119.382
 21
1129.09
  0
LINE
  8
0
 10
-119.382
 20
1129.09
 11
-119.045
 21
1128.56
  0
LINE
  8
0
 10
-119.045
 20
1128.56
 11
-118.645
 21
1128.08
  0
LINE
  8
0
 10
-118.645
 20
1128.08
 11
-118.187
 21
1127.65
  0
LINE
  8
0
 10
-118.187
 20
1127.65
 11
-117.679
 21
1127.28
  0
LINE
  8
0
 10
-117.679
 20
1127.28
 11
-117.129
 21
1126.98
  0
LINE
  8
0
 10
-117.129
 20
1126.98
 11
-116.545
 21
1126.74
  0
LINE
  8
0
 10
-116.545
 20
1126.74
 11
-115.937
 21
1126.59
  0
LINE
  8
0
 10
-115.937
 20
1126.59
 11
-115.314
 21
1126.51
  0
LINE
  8
0
 10
-115.314
 20
1126.51
 11
115.314
 21
1126.51
  0
LINE
  8
0
 10
115.314
 20
1126.51
 11
115.937
 21
1126.59
  0
LINE
  8
0
 10
-115.048
 20
1127.01
 11
-115.64
 21
1127.08
  0
LINE
  8
0
 10
-115.64
 20
1127.08
 11
-116.218
 21
1127.23
  0
LINE
  8
0
 10
-116.218
 20
1127.23
 11
-116.772
 21
1127.45
  0
LINE
  8
0
 10
-116.772
 20
1127.45
 11
-117.295
 21
1127.74
  0
LINE
  8
0
 10
-117.295
 20
1127.74
 11
-117.778
 21
1128.09
  0
LINE
  8
0
 10
-117.778
 20
1128.09
 11
-118.213
 21
1128.5
  0
LINE
  8
0
 10
-118.213
 20
1128.5
 11
-118.593
 21
1128.96
  0
LINE
  8
0
 10
-118.593
 20
1128.96
 11
-118.912
 21
1129.46
  0
LINE
  8
0
 10
-118.912
 20
1129.46
 11
-119.166
 21
1130
  0
LINE
  8
0
 10
-119.166
 20
1130
 11
-119.351
 21
1130.57
  0
LINE
  8
0
 10
-119.351
 20
1130.57
 11
-119.463
 21
1131.15
  0
LINE
  8
0
 10
-119.463
 20
1131.15
 11
-119.5
 21
1131.75
  0
LINE
  8
0
 10
-119.5
 20
1131.75
 11
-119.5
 21
1316.25
  0
LINE
  8
0
 10
-119.5
 20
1316.25
 11
-119.463
 21
1316.85
  0
LINE
  8
0
 10
-119.463
 20
1316.85
 11
-119.351
 21
1317.43
  0
LINE
  8
0
 10
-119.351
 20
1317.43
 11
-119.166
 21
1318
  0
LINE
  8
0
 10
-119.166
 20
1318
 11
-118.912
 21
1318.54
  0
LINE
  8
0
 10
-118.912
 20
1318.54
 11
-118.593
 21
1319.04
  0
LINE
  8
0
 10
-118.593
 20
1319.04
 11
-118.213
 21
1319.5
  0
LINE
  8
0
 10
-118.213
 20
1319.5
 11
-117.778
 21
1319.91
  0
LINE
  8
0
 10
-117.778
 20
1319.91
 11
-117.295
 21
1320.26
  0
LINE
  8
0
 10
-117.295
 20
1320.26
 11
-116.772
 21
1320.55
  0
LINE
  8
0
 10
-116.772
 20
1320.55
 11
-116.218
 21
1320.77
  0
LINE
  8
0
 10
-116.218
 20
1320.77
 11
-115.64
 21
1320.92
  0
LINE
  8
0
 10
-115.64
 20
1320.92
 11
-115.048
 21
1320.99
  0
LINE
  8
0
 10
-115.048
 20
1320.99
 11
115.048
 21
1320.99
  0
LINE
  8
0
 10
115.048
 20
1320.99
 11
115.64
 21
1320.92
  0
LINE
  8
0
 10
115.64
 20
1320.92
 11
116.218
 21
1320.77
  0
LINE
  8
0
 10
116.218
 20
1320.77
 11
116.772
 21
1320.55
  0
LINE
  8
0
 10
116.772
 20
1320.55
 11
117.295
 21
1320.26
  0
LINE
  8
0
 10
117.295
 20
1320.26
 11
117.778
 21
1319.91
  0
LINE
  8
0
 10
117.778
 20
1319.91
 11
118.213
 21
1319.5
  0
LINE
  8
0
 10
118.213
 20
1319.5
 11
118.593
 21
1319.04
  0
LINE
  8
0
 10
118.593
 20
1319.04
 11
118.912
 21
1318.54
  0
LINE
  8
0
 10
118.912
 20
1318.54
 11
119.166
 21
1318
  0
LINE
  8
0
 10
119.166
 20
1318
 11
119.351
 21
1317.43
  0
LINE
  8
0
 10
119.351
 20
1317.43
 11
119.463
 21
1316.85
  0
LINE
  8
0
 10
119.463
 20
1316.85
 11
119.5
 21
1316.25
  0
LINE
  8
0
 10
119.5
 20
1316.25
 11
119.5
 21
1131.75
  0
LINE
  8
0
 10
119.5
 20
1131.75
 11
119.463
 21
1131.15
  0
LINE
  8
0
 10
119.463
 20
1131.15
 11
119.351
 21
1130.57
  0
LINE
  8
0
 10
119.351
 20
1130.57
 11
119.166
 21
1130
  0
LINE
  8
0
 10
119.166
 20
1130
 11
118.912
 21
1129.46
  0
LINE
  8
0
 10
118.912
 20
1129.46
 11
118.593
 21
1128.96
  0
LINE
  8
0
 10
118.593
 20
1128.96
 11
118.213
 21
1128.5
  0
LINE
  8
0
 10
118.213
 20
1128.5
 11
117.778
 21
1128.09
  0
LINE
  8
0
 10
117.778
 20
1128.09
 11
117.295
 21
1127.74
  0
LINE
  8
0
 10
117.295
 20
1127.74
 11
116.772
 21
1127.45
  0
LINE
  8
0
 10
116.772
 20
1127.45
 11
116.218
 21
1127.23
  0
LINE
  8
0
 10
116.218
 20
1127.23
 11
115.64
 21
1127.08
  0
LINE
  8
0
 10
115.64
 20
1127.08
 11
115.048
 21
1127.01
  0
LINE
  8
0
 10
115.048
 20
1127.01
 11
-115.048
 21
1127.01
  0
LINE
  8
0
 10
115.937
 20
922.589
 11
116.545
 21
922.745
  0
LINE
  8
0
 10
116.545
 20
922.745
 11
117.129
 21
922.976
  0
LINE
  8
0
 10
117.129
 20
922.976
 11
117.679
 21
923.278
  0
LINE
  8
0
 10
117.679
 20
923.278
 11
118.187
 21
923.647
  0
LINE
  8
0
 10
118.187
 20
923.647
 11
118.645
 21
924.077
  0
LINE
  8
0
 10
118.645
 20
924.077
 11
119.045
 21
924.561
  0
LINE
  8
0
 10
119.045
 20
924.561
 11
119.382
 21
925.091
  0
LINE
  8
0
 10
119.382
 20
925.091
 11
119.649
 21
925.659
  0
LINE
  8
0
 10
119.649
 20
925.659
 11
119.843
 21
926.257
  0
LINE
  8
0
 10
119.843
 20
926.257
 11
119.961
 21
926.873
  0
LINE
  8
0
 10
119.961
 20
926.873
 11
120
 21
927.5
  0
LINE
  8
0
 10
120
 20
927.5
 11
120
 21
1112.5
  0
LINE
  8
0
 10
120
 20
1112.5
 11
119.961
 21
1113.13
  0
LINE
  8
0
 10
119.961
 20
1113.13
 11
119.843
 21
1113.74
  0
LINE
  8
0
 10
119.843
 20
1113.74
 11
119.649
 21
1114.34
  0
LINE
  8
0
 10
119.649
 20
1114.34
 11
119.382
 21
1114.91
  0
LINE
  8
0
 10
119.382
 20
1114.91
 11
119.045
 21
1115.44
  0
LINE
  8
0
 10
119.045
 20
1115.44
 11
118.645
 21
1115.92
  0
LINE
  8
0
 10
118.645
 20
1115.92
 11
118.187
 21
1116.35
  0
LINE
  8
0
 10
118.187
 20
1116.35
 11
117.679
 21
1116.72
  0
LINE
  8
0
 10
117.679
 20
1116.72
 11
117.129
 21
1117.02
  0
LINE
  8
0
 10
117.129
 20
1117.02
 11
116.545
 21
1117.26
  0
LINE
  8
0
 10
116.545
 20
1117.26
 11
115.937
 21
1117.41
  0
LINE
  8
0
 10
115.937
 20
1117.41
 11
115.314
 21
1117.49
  0
LINE
  8
0
 10
115.314
 20
1117.49
 11
-115.314
 21
1117.49
  0
LINE
  8
0
 10
-115.314
 20
1117.49
 11
-115.937
 21
1117.41
  0
LINE
  8
0
 10
-115.937
 20
1117.41
 11
-116.545
 21
1117.26
  0
LINE
  8
0
 10
-116.545
 20
1117.26
 11
-117.129
 21
1117.02
  0
LINE
  8
0
 10
-117.129
 20
1117.02
 11
-117.679
 21
1116.72
  0
LINE
  8
0
 10
-117.679
 20
1116.72
 11
-118.187
 21
1116.35
  0
LINE
  8
0
 10
-118.187
 20
1116.35
 11
-118.645
 21
1115.92
  0
LINE
  8
0
 10
-118.645
 20
1115.92
 11
-119.045
 21
1115.44
  0
LINE
  8
0
 10
-119.045
 20
1115.44
 11
-119.382
 21
1114.91
  0
LINE
  8
0
 10
-119.382
 20
1114.91
 11
-119.649
 21
1114.34
  0
LINE
  8
0
 10
-119.649
 20
1114.34
 11
-119.843
 21
1113.74
  0
LINE
  8
0
 10
-119.843
 20
1113.74
 11
-119.961
 21
1113.13
  0
LINE
  8
0
 10
-119.961
 20
1113.13
 11
-120
 21
1112.5
  0
LINE
  8
0
 10
-120
 20
1112.5
 11
-120
 21
927.5
  0
LINE
  8
0
 10
-120
 20
927.5
 11
-119.961
 21
926.873
  0
LINE
  8
0
 10
-119.961
 20
926.873
 11
-119.843
 21
926.257
  0
LINE
  8
0
 10
-119.843
 20
926.257
 11
-119.649
 21
925.659
  0
LINE
  8
0
 10
-119.649
 20
925.659
 11
-119.382
 21
925.091
  0
LINE
  8
0
 10
-119.382
 20
925.091
 11
-119.045
 21
924.561
  0
LINE
  8
0
 10
-119.045
 20
924.561
 11
-118.645
 21
924.077
  0
LINE
  8
0
 10
-118.645
 20
924.077
 11
-118.187
 21
923.647
  0
LINE
  8
0
 10
-118.187
 20
923.647
 11
-117.679
 21
923.278
  0
LINE
  8
0
 10
-117.679
 20
923.278
 11
-117.129
 21
922.976
  0
LINE
  8
0
 10
-117.129
 20
922.976
 11
-116.545
 21
922.745
  0
LINE
  8
0
 10
-116.545
 20
922.745
 11
-115.937
 21
922.589
  0
LINE
  8
0
 10
-115.937
 20
922.589
 11
-115.314
 21
922.51
  0
LINE
  8
0
 10
-115.314
 20
922.51
 11
115.314
 21
922.51
  0
LINE
  8
0
 10
115.314
 20
922.51
 11
115.937
 21
922.589
  0
LINE
  8
0
 10
-115.037
 20
923.181
 11
-115.608
 21
923.253
  0
LINE
  8
0
 10
-115.608
 20
923.253
 11
-116.165
 21
923.396
  0
LINE
  8
0
 10
-116.165
 20
923.396
 11
-116.699
 21
923.607
  0
LINE
  8
0
 10
-116.699
 20
923.607
 11
-117.203
 21
923.884
  0
LINE
  8
0
 10
-117.203
 20
923.884
 11
-117.668
 21
924.222
  0
LINE
  8
0
 10
-117.668
 20
924.222
 11
-118.088
 21
924.616
  0
LINE
  8
0
 10
-118.088
 20
924.616
 11
-118.454
 21
925.059
  0
LINE
  8
0
 10
-118.454
 20
925.059
 11
-118.762
 21
925.544
  0
LINE
  8
0
 10
-118.762
 20
925.544
 11
-119.007
 21
926.065
  0
LINE
  8
0
 10
-119.007
 20
926.065
 11
-119.185
 21
926.611
  0
LINE
  8
0
 10
-119.185
 20
926.611
 11
-119.292
 21
927.176
  0
LINE
  8
0
 10
-119.292
 20
927.176
 11
-119.328
 21
927.75
  0
LINE
  8
0
 10
-119.328
 20
927.75
 11
-119.328
 21
1112.25
  0
LINE
  8
0
 10
-119.328
 20
1112.25
 11
-119.292
 21
1112.82
  0
LINE
  8
0
 10
-119.292
 20
1112.82
 11
-119.185
 21
1113.39
  0
LINE
  8
0
 10
-119.185
 20
1113.39
 11
-119.007
 21
1113.94
  0
LINE
  8
0
 10
-119.007
 20
1113.94
 11
-118.762
 21
1114.46
  0
LINE
  8
0
 10
-118.762
 20
1114.46
 11
-118.454
 21
1114.94
  0
LINE
  8
0
 10
-118.454
 20
1114.94
 11
-118.088
 21
1115.38
  0
LINE
  8
0
 10
-118.088
 20
1115.38
 11
-117.668
 21
1115.78
  0
LINE
  8
0
 10
-117.668
 20
1115.78
 11
-117.203
 21
1116.12
  0
LINE
  8
0
 10
-117.203
 20
1116.12
 11
-116.699
 21
1116.39
  0
LINE
  8
0
 10
-116.699
 20
1116.39
 11
-116.165
 21
1116.6
  0
LINE
  8
0
 10
-116.165
 20
1116.6
 11
-115.608
 21
1116.75
  0
LINE
  8
0
 10
-115.608
 20
1116.75
 11
-115.037
 21
1116.82
  0
LINE
  8
0
 10
-115.037
 20
1116.82
 11
115.037
 21
1116.82
  0
LINE
  8
0
 10
115.037
 20
1116.82
 11
115.608
 21
1116.75
  0
LINE
  8
0
 10
115.608
 20
1116.75
 11
116.165
 21
1116.6
  0
LINE
  8
0
 10
116.165
 20
1116.6
 11
116.699
 21
1116.39
  0
LINE
  8
0
 10
116.699
 20
1116.39
 11
117.203
 21
1116.12
  0
LINE
  8
0
 10
117.203
 20
1116.12
 11
117.668
 21
1115.78
  0
LINE
  8
0
 10
117.668
 20
1115.78
 11
118.088
 21
1115.38
  0
LINE
  8
0
 10
118.088
 20
1115.38
 11
118.454
 21
1114.94
  0
LINE
  8
0
 10
118.454
 20
1114.94
 11
118.762
 21
1114.46
  0
LINE
  8
0
 10
118.762
 20
1114.46
 11
119.007
 21
1113.94
  0
LINE
  8
0
 10
119.007
 20
1113.94
 11
119.185
 21
1113.39
  0
LINE
  8
0
 10
119.185
 20
1113.39
 11
119.292
 21
1112.82
  0
LINE
  8
0
 10
119.292
 20
1112.82
 11
119.328
 21
1112.25
  0
LINE
  8
0
 10
119.328
 20
1112.25
 11
119.328
 21
927.75
  0
LINE
  8
0
 10
119.328
 20
927.75
 11
119.292
 21
927.176
  0
LINE
  8
0
 10
119.292
 20
927.176
 11
119.185
 21
926.611
  0
LINE
  8
0
 10
119.185
 20
926.611
 11
119.007
 21
926.065
  0
LINE
  8
0
 10
119.007
 20
926.065
 11
118.762
 21
925.544
  0
LINE
  8
0
 10
118.762
 20
925.544
 11
118.454
 21
925.059
  0
LINE
  8
0
 10
118.454
 20
925.059
 11
118.088
 21
924.616
  0
LINE
  8
0
 10
118.088
 20
924.616
 11
117.668
 21
924.222
  0
LINE
  8
0
 10
117.668
 20
924.222
 11
117.203
 21
923.884
  0
LINE
  8
0
 10
117.203
 20
923.884
 11
116.699
 21
923.607
  0
LINE
  8
0
 10
116.699
 20
923.607
 11
116.165
 21
923.396
  0
LINE
  8
0
 10
116.165
 20
923.396
 11
115.608
 21
923.253
  0
LINE
  8
0
 10
115.608
 20
923.253
 11
115.037
 21
923.181
  0
LINE
  8
0
 10
115.037
 20
923.181
 11
-115.037
 21
923.181
  0
LINE
  8
0
 10
115.937
 20
718.589
 11
116.545
 21
718.745
  0
LINE
  8
0
 10
116.545
 20
718.745
 11
117.129
 21
718.976
  0
LINE
  8
0
 10
117.129
 20
718.976
 11
117.679
 21
719.278
  0
LINE
  8
0
 10
117.679
 20
719.278
 11
118.187
 21
719.647
  0
LINE
  8
0
 10
118.187
 20
719.647
 11
118.645
 21
720.077
  0
LINE
  8
0
 10
118.645
 20
720.077
 11
119.045
 21
720.561
  0
LINE
  8
0
 10
119.045
 20
720.561
 11
119.382
 21
721.091
  0
LINE
  8
0
 10
119.382
 20
721.091
 11
119.649
 21
721.659
  0
LINE
  8
0
 10
119.649
 20
721.659
 11
119.843
 21
722.257
  0
LINE
  8
0
 10
119.843
 20
722.257
 11
119.961
 21
722.873
  0
LINE
  8
0
 10
119.961
 20
722.873
 11
120
 21
723.5
  0
LINE
  8
0
 10
120
 20
723.5
 11
120
 21
908.5
  0
LINE
  8
0
 10
120
 20
908.5
 11
119.961
 21
909.127
  0
LINE
  8
0
 10
119.961
 20
909.127
 11
119.843
 21
909.743
  0
LINE
  8
0
 10
119.843
 20
909.743
 11
119.649
 21
910.341
  0
LINE
  8
0
 10
119.649
 20
910.341
 11
119.382
 21
910.909
  0
LINE
  8
0
 10
119.382
 20
910.909
 11
119.045
 21
911.439
  0
LINE
  8
0
 10
119.045
 20
911.439
 11
118.645
 21
911.923
  0
LINE
  8
0
 10
118.645
 20
911.923
 11
118.187
 21
912.353
  0
LINE
  8
0
 10
118.187
 20
912.353
 11
117.679
 21
912.722
  0
LINE
  8
0
 10
117.679
 20
912.722
 11
117.129
 21
913.024
  0
LINE
  8
0
 10
117.129
 20
913.024
 11
116.545
 21
913.255
  0
LINE
  8
0
 10
116.545
 20
913.255
 11
115.937
 21
913.411
  0
LINE
  8
0
 10
115.937
 20
913.411
 11
115.314
 21
913.49
  0
LINE
  8
0
 10
115.314
 20
913.49
 11
-115.314
 21
913.49
  0
LINE
  8
0
 10
-115.314
 20
913.49
 11
-115.937
 21
913.411
  0
LINE
  8
0
 10
-115.937
 20
913.411
 11
-116.545
 21
913.255
  0
LINE
  8
0
 10
-116.545
 20
913.255
 11
-117.129
 21
913.024
  0
LINE
  8
0
 10
-117.129
 20
913.024
 11
-117.679
 21
912.722
  0
LINE
  8
0
 10
-117.679
 20
912.722
 11
-118.187
 21
912.353
  0
LINE
  8
0
 10
-118.187
 20
912.353
 11
-118.645
 21
911.923
  0
LINE
  8
0
 10
-118.645
 20
911.923
 11
-119.045
 21
911.439
  0
LINE
  8
0
 10
-119.045
 20
911.439
 11
-119.382
 21
910.909
  0
LINE
  8
0
 10
-119.382
 20
910.909
 11
-119.649
 21
910.341
  0
LINE
  8
0
 10
-119.649
 20
910.341
 11
-119.843
 21
909.743
  0
LINE
  8
0
 10
-119.843
 20
909.743
 11
-119.961
 21
909.127
  0
LINE
  8
0
 10
-119.961
 20
909.127
 11
-120
 21
908.5
  0
LINE
  8
0
 10
-120
 20
908.5
 11
-120
 21
723.5
  0
LINE
  8
0
 10
-120
 20
723.5
 11
-119.961
 21
722.873
  0
LINE
  8
0
 10
-119.961
 20
722.873
 11
-119.843
 21
722.257
  0
LINE
  8
0
 10
-119.843
 20
722.257
 11
-119.649
 21
721.659
  0
LINE
  8
0
 10
-119.649
 20
721.659
 11
-119.382
 21
721.091
  0
LINE
  8
0
 10
-119.382
 20
721.091
 11
-119.045
 21
720.561
  0
LINE
  8
0
 10
-119.045
 20
720.561
 11
-118.645
 21
720.077
  0
LINE
  8
0
 10
-118.645
 20
720.077
 11
-118.187
 21
719.647
  0
LINE
  8
0
 10
-118.187
 20
719.647
 11
-117.679
 21
719.278
  0
LINE
  8
0
 10
-117.679
 20
719.278
 11
-117.129
 21
718.976
  0
LINE
  8
0
 10
-117.129
 20
718.976
 11
-116.545
 21
718.745
  0
LINE
  8
0
 10
-116.545
 20
718.745
 11
-115.937
 21
718.589
  0
LINE
  8
0
 10
-115.937
 20
718.589
 11
-115.314
 21
718.51
  0
LINE
  8
0
 10
-115.314
 20
718.51
 11
115.314
 21
718.51
  0
LINE
  8
0
 10
115.314
 20
718.51
 11
115.937
 21
718.589
  0
LINE
  8
0
 10
-114.882
 20
721.645
 11
-115.145
 21
721.678
  0
LINE
  8
0
 10
-115.145
 20
721.678
 11
-115.402
 21
721.744
  0
LINE
  8
0
 10
-115.402
 20
721.744
 11
-115.648
 21
721.841
  0
LINE
  8
0
 10
-115.648
 20
721.841
 11
-115.88
 21
721.969
  0
LINE
  8
0
 10
-115.88
 20
721.969
 11
-116.095
 21
722.124
  0
LINE
  8
0
 10
-116.095
 20
722.124
 11
-116.288
 21
722.306
  0
LINE
  8
0
 10
-116.288
 20
722.306
 11
-116.457
 21
722.51
  0
LINE
  8
0
 10
-116.457
 20
722.51
 11
-116.599
 21
722.734
  0
LINE
  8
0
 10
-116.599
 20
722.734
 11
-116.711
 21
722.973
  0
LINE
  8
0
 10
-116.711
 20
722.973
 11
-116.793
 21
723.225
  0
LINE
  8
0
 10
-116.793
 20
723.225
 11
-116.843
 21
723.486
  0
LINE
  8
0
 10
-116.843
 20
723.486
 11
-116.86
 21
723.75
  0
LINE
  8
0
 10
-116.86
 20
723.75
 11
-116.86
 21
908.25
  0
LINE
  8
0
 10
-116.86
 20
908.25
 11
-116.843
 21
908.514
  0
LINE
  8
0
 10
-116.843
 20
908.514
 11
-116.793
 21
908.775
  0
LINE
  8
0
 10
-116.793
 20
908.775
 11
-116.711
 21
909.027
  0
LINE
  8
0
 10
-116.711
 20
909.027
 11
-116.599
 21
909.266
  0
LINE
  8
0
 10
-116.599
 20
909.266
 11
-116.457
 21
909.49
  0
LINE
  8
0
 10
-116.457
 20
909.49
 11
-116.288
 21
909.694
  0
LINE
  8
0
 10
-116.288
 20
909.694
 11
-116.095
 21
909.876
  0
LINE
  8
0
 10
-116.095
 20
909.876
 11
-115.88
 21
910.031
  0
LINE
  8
0
 10
-115.88
 20
910.031
 11
-115.648
 21
910.159
  0
LINE
  8
0
 10
-115.648
 20
910.159
 11
-115.402
 21
910.256
  0
LINE
  8
0
 10
-115.402
 20
910.256
 11
-115.145
 21
910.322
  0
LINE
  8
0
 10
-115.145
 20
910.322
 11
-114.882
 21
910.355
  0
LINE
  8
0
 10
-114.882
 20
910.355
 11
114.882
 21
910.355
  0
LINE
  8
0
 10
114.882
 20
910.355
 11
115.145
 21
910.322
  0
LINE
  8
0
 10
115.145
 20
910.322
 11
115.402
 21
910.256
  0
LINE
  8
0
 10
115.402
 20
910.256
 11
115.648
 21
910.159
  0
LINE
  8
0
 10
115.648
 20
910.159
 11
115.88
 21
910.031
  0
LINE
  8
0
 10
115.88
 20
910.031
 11
116.095
 21
909.876
  0
LINE
  8
0
 10
116.095
 20
909.876
 11
116.288
 21
909.694
  0
LINE
  8
0
 10
116.288
 20
909.694
 11
116.457
 21
909.49
  0
LINE
  8
0
 10
116.457
 20
909.49
 11
116.599
 21
909.266
  0
LINE
  8
0
 10
116.599
 20
909.266
 11
116.711
 21
909.027
  0
LINE
  8
0
 10
116.711
 20
909.027
 11
116.793
 21
908.775
  0
LINE
  8
0
 10
116.793
 20
908.775
 11
116.843
 21
908.514
  0
LINE
  8
0
 10
116.843
 20
908.514
 11
116.86
 21
908.25
  0
LINE
  8
0
 10
116.86
 20
908.25
 11
116.86
 21
723.75
  0
LINE
  8
0
 10
116.86
 20
723.75
 11
116.843
 21
723.486
  0
LINE
  8
0
 10
116.843
 20
723.486
 11
116.793
 21
723.225
  0
LINE
  8
0
 10
116.793
 20
723.225
 11
116.711
 21
722.973
  0
LINE
  8
0
 10
116.711
 20
722.973
 11
116.599
 21
722.734
  0
LINE
  8
0
 10
116.599
 20
722.734
 11
116.457
 21
722.51
  0
LINE
  8
0
 10
116.457
 20
722.51
 11
116.288
 21
722.306
  0
LINE
  8
0
 10
116.288
 20
722.306
 11
116.095
 21
722.124
  0
LINE
  8
0
 10
116.095
 20
722.124
 11
115.88
 21
721.969
  0
LINE
  8
0
 10
115.88
 20
721.969
 11
115.648
 21
721.841
  0
LINE
  8
0
 10
115.648
 20
721.841
 11
115.402
 21
721.744
  0
LINE
  8
0
 10
115.402
 20
721.744
 11
115.145
 21
721.678
  0
LINE
  8
0
 10
115.145
 20
721.678
 11
114.882
 21
721.645
  0
LINE
  8
0
 10
114.882
 20
721.645
 11
-114.882
 21
721.645
  0
ENDSEC
  0
SECTION
  2
OBJECTS
  0
DICTIONARY
  0
ENDSEC
  0
EOF
