<?xml version="1.0" standalone="no"?>
<!DOCTYPE svg PUBLIC "-//W3C//DTD SVG 1.1//EN" "http://www.w3.org/Graphics/SVG/1.1/DTD/svg11.dtd">
<svg width="286mm" height="468mm" viewBox="-143 -870 286 468" xmlns="http://www.w3.org/2000/svg" version="1.1">
<title>OpenSCAD Model</title>
<path d="
M 138.437,-720.089 L 139.045,-720.245 L 139.629,-720.476 L 140.179,-720.778 L 140.687,-721.147 L 141.145,-721.577
 L 141.545,-722.061 L 141.882,-722.591 L 142.149,-723.159 L 142.343,-723.757 L 142.461,-724.373 L 142.5,-725
 L 142.5,-865 L 142.461,-865.627 L 142.343,-866.243 L 142.149,-866.841 L 141.882,-867.409 L 141.545,-867.939
 L 141.145,-868.423 L 140.687,-868.853 L 140.179,-869.222 L 139.629,-869.524 L 139.045,-869.755 L 138.437,-869.911
 L 137.814,-869.99 L -137.814,-869.99 L -138.437,-869.911 L -139.045,-869.755 L -139.629,-869.524 L -140.179,-869.222
 L -140.687,-868.853 L -141.145,-868.423 L -141.545,-867.939 L -141.882,-867.409 L -142.149,-866.841 L -142.343,-866.243
 L -142.461,-865.627 L -142.5,-865 L -142.5,-725 L -142.461,-724.373 L -142.343,-723.757 L -142.149,-723.159
 L -141.882,-722.591 L -141.545,-722.061 L -141.145,-721.577 L -140.687,-721.147 L -140.179,-720.778 L -139.629,-720.476
 L -139.045,-720.245 L -138.437,-720.089 L -137.814,-720.01 L 137.814,-720.01 z
M -137.548,-720.509 L -138.14,-720.584 L -138.718,-720.732 L -139.272,-720.952 L -139.795,-721.239 L -140.278,-721.59
 L -140.713,-721.998 L -141.093,-722.458 L -141.412,-722.962 L -141.666,-723.501 L -141.851,-724.069 L -141.963,-724.655
 L -142,-725.25 L -142,-864.75 L -141.963,-865.345 L -141.851,-865.931 L -141.666,-866.499 L -141.412,-867.038
 L -141.093,-867.542 L -140.713,-868.002 L -140.278,-868.41 L -139.795,-868.761 L -139.272,-869.048 L -138.718,-869.268
 L -138.14,-869.416 L -137.548,-869.491 L 137.548,-869.491 L 138.14,-869.416 L 138.718,-869.268 L 139.272,-869.048
 L 139.795,-868.761 L 140.278,-868.41 L 140.713,-868.002 L 141.093,-867.542 L 141.412,-867.038 L 141.666,-866.499
 L 141.851,-865.931 L 141.963,-865.345 L 142,-864.75 L 142,-725.25 L 141.963,-724.655 L 141.851,-724.069
 L 141.666,-723.501 L 141.412,-722.962 L 141.093,-722.458 L 140.713,-721.998 L 140.278,-721.59 L 139.795,-721.239
 L 139.272,-720.952 L 138.718,-720.732 L 138.14,-720.584 L 137.548,-720.509 z
M 138.437,-561.089 L 139.045,-561.245 L 139.629,-561.476 L 140.179,-561.778 L 140.687,-562.147 L 141.145,-562.577
 L 141.545,-563.061 L 141.882,-563.591 L 142.149,-564.159 L 142.343,-564.757 L 142.461,-565.373 L 142.5,-566
 L 142.5,-706 L 142.461,-706.627 L 142.343,-707.243 L 142.149,-707.841 L 141.882,-708.409 L 141.545,-708.939
 L 141.145,-709.423 L 140.687,-709.853 L 140.179,-710.222 L 139.629,-710.524 L 139.045,-710.755 L 138.437,-710.911
 L 137.814,-710.99 L -137.814,-710.99 L -138.437,-710.911 L -139.045,-710.755 L -139.629,-710.524 L -140.179,-710.222
 L -140.687,-709.853 L -141.145,-709.423 L -141.545,-708.939 L -141.882,-708.409 L -142.149,-707.841 L -142.343,-707.243
 L -142.461,-706.627 L -142.5,-706 L -142.5,-566 L -142.461,-565.373 L -142.343,-564.757 L -142.149,-564.159
 L -141.882,-563.591 L -141.545,-563.061 L -141.145,-562.577 L -140.687,-562.147 L -140.179,-561.778 L -139.629,-561.476
 L -139.045,-561.245 L -138.437,-561.089 L -137.814,-561.01 L 137.814,-561.01 z
M -137.537,-561.681 L -138.108,-561.753 L -138.665,-561.896 L -139.199,-562.107 L -139.703,-562.384 L -140.168,-562.722
 L -140.588,-563.116 L -140.954,-563.559 L -141.262,-564.044 L -141.507,-564.565 L -141.685,-565.111 L -141.792,-565.676
 L -141.828,-566.25 L -141.828,-705.75 L -141.792,-706.324 L -141.685,-706.889 L -141.507,-707.435 L -141.262,-707.956
 L -140.954,-708.441 L -140.588,-708.884 L -140.168,-709.278 L -139.703,-709.616 L -139.199,-709.893 L -138.665,-710.104
 L -138.108,-710.247 L -137.537,-710.319 L 137.537,-710.319 L 138.108,-710.247 L 138.665,-710.104 L 139.199,-709.893
 L 139.703,-709.616 L 140.168,-709.278 L 140.588,-708.884 L 140.954,-708.441 L 141.262,-707.956 L 141.507,-707.435
 L 141.685,-706.889 L 141.792,-706.324 L 141.828,-705.75 L 141.828,-566.25 L 141.792,-565.676 L 141.685,-565.111
 L 141.507,-564.565 L 141.262,-564.044 L 140.954,-563.559 L 140.588,-563.116 L 140.168,-562.722 L 139.703,-562.384
 L 139.199,-562.107 L 138.665,-561.896 L 138.108,-561.753 L 137.537,-561.681 z
M 138.437,-402.089 L 139.045,-402.245 L 139.629,-402.476 L 140.179,-402.778 L 140.687,-403.147 L 141.145,-403.577
 L 141.545,-404.061 L 141.882,-404.591 L 142.149,-405.159 L 142.343,-405.757 L 142.461,-406.373 L 142.5,-407
 L 142.5,-547 L 142.461,-547.627 L 142.343,-548.243 L 142.149,-548.841 L 141.882,-549.409 L 141.545,-549.939
 L 141.145,-550.423 L 140.687,-550.853 L 140.179,-551.222 L 139.629,-551.524 L 139.045,-551.755 L 138.437,-551.911
 L 137.814,-551.99 L -137.814,-551.99 L -138.437,-551.911 L -139.045,-551.755 L -139.629,-551.524 L -140.179,-551.222
 L -140.687,-550.853 L -141.145,-550.423 L -141.545,-549.939 L -141.882,-549.409 L -142.149,-548.841 L -142.343,-548.243
 L -142.461,-547.627 L -142.5,-547 L -142.5,-407 L -142.461,-406.373 L -142.343,-405.757 L -142.149,-405.159
 L -141.882,-404.591 L -141.545,-404.061 L -141.145,-403.577 L -140.687,-403.147 L -140.179,-402.778 L -139.629,-402.476
 L -139.045,-402.245 L -138.437,-402.089 L -137.814,-402.01 L 137.814,-402.01 z
M -137.382,-405.145 L -137.645,-405.178 L -137.902,-405.244 L -138.148,-405.341 L -138.38,-405.469 L -138.595,-405.624
 L -138.788,-405.806 L -138.957,-406.01 L -139.099,-406.234 L -139.211,-406.473 L -139.293,-406.725 L -139.343,-406.986
 L -139.36,-407.25 L -139.36,-546.75 L -139.343,-547.014 L -139.293,-547.275 L -139.211,-547.527 L -139.099,-547.766
 L -138.957,-547.99 L -138.788,-548.194 L -138.595,-548.376 L -138.38,-548.531 L -138.148,-548.659 L -137.902,-548.756
 L -137.645,-548.822 L -137.382,-548.855 L 137.382,-548.855 L 137.645,-548.822 L 137.902,-548.756 L 138.148,-548.659
 L 138.38,-548.531 L 138.595,-548.376 L 138.788,-548.194 L 138.957,-547.99 L 139.099,-547.766 L 139.211,-547.527
 L 139.293,-547.275 L 139.343,-547.014 L 139.36,-546.75 L 139.36,-407.25 L 139.343,-406.986 L 139.293,-406.725
 L 139.211,-406.473 L 139.099,-406.234 L 138.957,-406.01 L 138.788,-405.806 L 138.595,-405.624 L 138.38,-405.469
 L 138.148,-405.341 L 137.902,-405.244 L 137.645,-405.178 L 137.382,-405.145 z
" stroke="black" fill="lightgray" stroke-width="0.5"/>
</svg>
