<?xml version="1.0" standalone="no"?>
<!DOCTYPE svg PUBLIC "-//W3C//DTD SVG 1.1//EN" "http://www.w3.org/Graphics/SVG/1.1/DTD/svg11.dtd">
<svg width="240mm" height="1048mm" viewBox="-120 -1976 240 1048" xmlns="http://www.w3.org/2000/svg" version="1.1">
<title>OpenSCAD Model</title>
<path d="
M 115.937,-1720.59 L 116.545,-1720.74 L 117.129,-1720.98 L 117.679,-1721.28 L 118.187,-1721.65 L 118.645,-1722.08
 L 119.045,-1722.56 L 119.382,-1723.09 L 119.649,-1723.66 L 119.843,-1724.26 L 119.961,-1724.87 L 120,-1725.5
 L 120,-1970.5 L 119.961,-1971.13 L 119.843,-1971.74 L 119.649,-1972.34 L 119.382,-1972.91 L 119.045,-1973.44
 L 118.645,-1973.92 L 118.187,-1974.35 L 117.679,-1974.72 L 117.129,-1975.02 L 116.545,-1975.26 L 115.937,-1975.41
 L 115.314,-1975.49 L -115.314,-1975.49 L -115.937,-1975.41 L -116.545,-1975.26 L -117.129,-1975.02 L -117.679,-1974.72
 L -118.187,-1974.35 L -118.645,-1973.92 L -119.045,-1973.44 L -119.382,-1972.91 L -119.649,-1972.34 L -119.843,-1971.74
 L -119.961,-1971.13 L -120,-1970.5 L -120,-1725.5 L -119.961,-1724.87 L -119.843,-1724.26 L -119.649,-1723.66
 L -119.382,-1723.09 L -119.045,-1722.56 L -118.645,-1722.08 L -118.187,-1721.65 L -117.679,-1721.28 L -117.129,-1720.98
 L -116.545,-1720.74 L -115.937,-1720.59 L -115.314,-1720.51 L 115.314,-1720.51 z
M -114.751,-1722.01 L -115.25,-1722.07 L -115.736,-1722.2 L -116.203,-1722.38 L -116.643,-1722.62 L -117.05,-1722.92
 L -117.416,-1723.26 L -117.736,-1723.65 L -118.005,-1724.07 L -118.219,-1724.53 L -118.374,-1725.01 L -118.468,-1725.5
 L -118.5,-1726 L -118.5,-1970 L -118.468,-1970.5 L -118.374,-1970.99 L -118.219,-1971.47 L -118.005,-1971.93
 L -117.736,-1972.35 L -117.416,-1972.74 L -117.05,-1973.08 L -116.643,-1973.38 L -116.203,-1973.62 L -115.736,-1973.8
 L -115.25,-1973.93 L -114.751,-1973.99 L 114.751,-1973.99 L 115.25,-1973.93 L 115.736,-1973.8 L 116.203,-1973.62
 L 116.643,-1973.38 L 117.05,-1973.08 L 117.416,-1972.74 L 117.736,-1972.35 L 118.005,-1971.93 L 118.219,-1971.47
 L 118.374,-1970.99 L 118.468,-1970.5 L 118.5,-1970 L 118.5,-1726 L 118.468,-1725.5 L 118.374,-1725.01
 L 118.219,-1724.53 L 118.005,-1724.07 L 117.736,-1723.65 L 117.416,-1723.26 L 117.05,-1722.92 L 116.643,-1722.62
 L 116.203,-1722.38 L 115.736,-1722.2 L 115.25,-1722.07 L 114.751,-1722.01 z
M 115.937,-1456.59 L 116.545,-1456.74 L 117.129,-1456.98 L 117.679,-1457.28 L 118.187,-1457.65 L 118.645,-1458.08
 L 119.045,-1458.56 L 119.382,-1459.09 L 119.649,-1459.66 L 119.843,-1460.26 L 119.961,-1460.87 L 120,-1461.5
 L 120,-1706.5 L 119.961,-1707.13 L 119.843,-1707.74 L 119.649,-1708.34 L 119.382,-1708.91 L 119.045,-1709.44
 L 118.645,-1709.92 L 118.187,-1710.35 L 117.679,-1710.72 L 117.129,-1711.02 L 116.545,-1711.26 L 115.937,-1711.41
 L 115.314,-1711.49 L -115.314,-1711.49 L -115.937,-1711.41 L -116.545,-1711.26 L -117.129,-1711.02 L -117.679,-1710.72
 L -118.187,-1710.35 L -118.645,-1709.92 L -119.045,-1709.44 L -119.382,-1708.91 L -119.649,-1708.34 L -119.843,-1707.74
 L -119.961,-1707.13 L -120,-1706.5 L -120,-1461.5 L -119.961,-1460.87 L -119.843,-1460.26 L -119.649,-1459.66
 L -119.382,-1459.09 L -119.045,-1458.56 L -118.645,-1458.08 L -118.187,-1457.65 L -117.679,-1457.28 L -117.129,-1456.98
 L -116.545,-1456.74 L -115.937,-1456.59 L -115.314,-1456.51 L 115.314,-1456.51 z
M -114.751,-1458.01 L -115.25,-1458.07 L -115.736,-1458.2 L -116.203,-1458.38 L -116.643,-1458.62 L -117.05,-1458.92
 L -117.416,-1459.26 L -117.736,-1459.65 L -118.005,-1460.07 L -118.219,-1460.53 L -118.374,-1461.01 L -118.468,-1461.5
 L -118.5,-1462 L -118.5,-1706 L -118.468,-1706.5 L -118.374,-1706.99 L -118.219,-1707.47 L -118.005,-1707.93
 L -117.736,-1708.35 L -117.416,-1708.74 L -117.05,-1709.08 L -116.643,-1709.38 L -116.203,-1709.62 L -115.736,-1709.8
 L -115.25,-1709.93 L -114.751,-1709.99 L 114.751,-1709.99 L 115.25,-1709.93 L 115.736,-1709.8 L 116.203,-1709.62
 L 116.643,-1709.38 L 117.05,-1709.08 L 117.416,-1708.74 L 117.736,-1708.35 L 118.005,-1707.93 L 118.219,-1707.47
 L 118.374,-1706.99 L 118.468,-1706.5 L 118.5,-1706 L 118.5,-1462 L 118.468,-1461.5 L 118.374,-1461.01
 L 118.219,-1460.53 L 118.005,-1460.07 L 117.736,-1459.65 L 117.416,-1459.26 L 117.05,-1458.92 L 116.643,-1458.62
 L 116.203,-1458.38 L 115.736,-1458.2 L 115.25,-1458.07 L 114.751,-1458.01 z
M 115.937,-1192.59 L 116.545,-1192.74 L 117.129,-1192.98 L 117.679,-1193.28 L 118.187,-1193.65 L 118.645,-1194.08
 L 119.045,-1194.56 L 119.382,-1195.09 L 119.649,-1195.66 L 119.843,-1196.26 L 119.961,-1196.87 L 120,-1197.5
 L 120,-1442.5 L 119.961,-1443.13 L 119.843,-1443.74 L 119.649,-1444.34 L 119.382,-1444.91 L 119.045,-1445.44
 L 118.645,-1445.92 L 118.187,-1446.35 L 117.679,-1446.72 L 117.129,-1447.02 L 116.545,-1447.26 L 115.937,-1447.41
 L 115.314,-1447.49 L -115.314,-1447.49 L -115.937,-1447.41 L -116.545,-1447.26 L -117.129,-1447.02 L -117.679,-1446.72
 L -118.187,-1446.35 L -118.645,-1445.92 L -119.045,-1445.44 L -119.382,-1444.91 L -119.649,-1444.34 L -119.843,-1443.74
 L -119.961,-1443.13 L -120,-1442.5 L -120,-1197.5 L -119.961,-1196.87 L -119.843,-1196.26 L -119.649,-1195.66
 L -119.382,-1195.09 L -119.045,-1194.56 L -118.645,-1194.08 L -118.187,-1193.65 L -117.679,-1193.28 L -117.129,-1192.98
 L -116.545,-1192.74 L -115.937,-1192.59 L -115.314,-1192.51 L 115.314,-1192.51 z
M -114.695,-1194.89 L -115.083,-1194.94 L -115.462,-1195.04 L -115.825,-1195.18 L -116.168,-1195.37 L -116.484,-1195.6
 L -116.769,-1195.87 L -117.018,-1196.17 L -117.228,-1196.5 L -117.394,-1196.85 L -117.515,-1197.23 L -117.588,-1197.61
 L -117.613,-1198 L -117.613,-1442 L -117.588,-1442.39 L -117.515,-1442.77 L -117.394,-1443.15 L -117.228,-1443.5
 L -117.018,-1443.83 L -116.769,-1444.13 L -116.484,-1444.4 L -116.168,-1444.63 L -115.825,-1444.82 L -115.462,-1444.96
 L -115.083,-1445.06 L -114.695,-1445.11 L 114.695,-1445.11 L 115.083,-1445.06 L 115.462,-1444.96 L 115.825,-1444.82
 L 116.168,-1444.63 L 116.484,-1444.4 L 116.769,-1444.13 L 117.018,-1443.83 L 117.228,-1443.5 L 117.394,-1443.15
 L 117.515,-1442.77 L 117.588,-1442.39 L 117.613,-1442 L 117.613,-1198 L 117.588,-1197.61 L 117.515,-1197.23
 L 117.394,-1196.85 L 117.228,-1196.5 L 117.018,-1196.17 L 116.769,-1195.87 L 116.484,-1195.6 L 116.168,-1195.37
 L 115.825,-1195.18 L 115.462,-1195.04 L 115.083,-1194.94 L 114.695,-1194.89 z
M 115.937,-928.589 L 116.545,-928.745 L 117.129,-928.976 L 117.679,-929.278 L 118.187,-929.647 L 118.645,-930.077
 L 119.045,-930.561 L 119.382,-931.091 L 119.649,-931.659 L 119.843,-932.257 L 119.961,-932.873 L 120,-933.5
 L 120,-1178.5 L 119.961,-1179.13 L 119.843,-1179.74 L 119.649,-1180.34 L 119.382,-1180.91 L 119.045,-1181.44
 L 118.645,-1181.92 L 118.187,-1182.35 L 117.679,-1182.72 L 117.129,-1183.02 L 116.545,-1183.26 L 115.937,-1183.41
 L 115.314,-1183.49 L -115.314,-1183.49 L -115.937,-1183.41 L -116.545,-1183.26 L -117.129,-1183.02 L -117.679,-1182.72
 L -118.187,-1182.35 L -118.645,-1181.92 L -119.045,-1181.44 L -119.382,-1180.91 L -119.649,-1180.34 L -119.843,-1179.74
 L -119.961,-1179.13 L -120,-1178.5 L -120,-933.5 L -119.961,-932.873 L -119.843,-932.257 L -119.649,-931.659
 L -119.382,-931.091 L -119.045,-930.561 L -118.645,-930.077 L -118.187,-929.647 L -117.679,-929.278 L -117.129,-928.976
 L -116.545,-928.745 L -115.937,-928.589 L -115.314,-928.51 L 115.314,-928.51 z
M 112.366,-1173.87 L 112.1,-1173.9 L 111.84,-1173.97 L 111.591,-1174.07 L 111.356,-1174.2 L 111.139,-1174.35
 L 110.943,-1174.54 L 110.773,-1174.74 L 110.629,-1174.97 L 110.515,-1175.21 L 110.432,-1175.47 L 110.382,-1175.73
 L 110.365,-1176 L 110.382,-1176.27 L 110.432,-1176.53 L 110.515,-1176.79 L 110.629,-1177.03 L 110.773,-1177.26
 L 110.943,-1177.46 L 111.139,-1177.65 L 111.356,-1177.8 L 111.591,-1177.93 L 111.84,-1178.03 L 112.1,-1178.1
 L 112.366,-1178.13 L 112.634,-1178.13 L 112.9,-1178.1 L 113.16,-1178.03 L 113.409,-1177.93 L 113.644,-1177.8
 L 113.861,-1177.65 L 114.057,-1177.46 L 114.227,-1177.26 L 114.371,-1177.03 L 114.485,-1176.79 L 114.568,-1176.53
 L 114.618,-1176.27 L 114.635,-1176 L 114.618,-1175.73 L 114.568,-1175.47 L 114.485,-1175.21 L 114.371,-1174.97
 L 114.227,-1174.74 L 114.057,-1174.54 L 113.861,-1174.35 L 113.644,-1174.2 L 113.409,-1174.07 L 113.16,-1173.97
 L 112.9,-1173.9 L 112.634,-1173.87 z
M -112.634,-1173.87 L -112.9,-1173.9 L -113.16,-1173.97 L -113.409,-1174.07 L -113.644,-1174.2 L -113.861,-1174.35
 L -114.057,-1174.54 L -114.227,-1174.74 L -114.371,-1174.97 L -114.485,-1175.21 L -114.568,-1175.47 L -114.618,-1175.73
 L -114.635,-1176 L -114.618,-1176.27 L -114.568,-1176.53 L -114.485,-1176.79 L -114.371,-1177.03 L -114.227,-1177.26
 L -114.057,-1177.46 L -113.861,-1177.65 L -113.644,-1177.8 L -113.409,-1177.93 L -113.16,-1178.03 L -112.9,-1178.1
 L -112.634,-1178.13 L -112.366,-1178.13 L -112.1,-1178.1 L -111.84,-1178.03 L -111.591,-1177.93 L -111.356,-1177.8
 L -111.139,-1177.65 L -110.943,-1177.46 L -110.773,-1177.26 L -110.629,-1177.03 L -110.515,-1176.79 L -110.432,-1176.53
 L -110.382,-1176.27 L -110.365,-1176 L -110.382,-1175.73 L -110.432,-1175.47 L -110.515,-1175.21 L -110.629,-1174.97
 L -110.773,-1174.74 L -110.943,-1174.54 L -111.139,-1174.35 L -111.356,-1174.2 L -111.591,-1174.07 L -111.84,-1173.97
 L -112.1,-1173.9 L -112.366,-1173.87 z
M 112.366,-933.869 L 112.1,-933.903 L 111.84,-933.969 L 111.591,-934.068 L 111.356,-934.197 L 111.139,-934.355
 L 110.943,-934.538 L 110.773,-934.745 L 110.629,-934.971 L 110.515,-935.214 L 110.432,-935.469 L 110.382,-935.732
 L 110.365,-936 L 110.382,-936.268 L 110.432,-936.531 L 110.515,-936.786 L 110.629,-937.029 L 110.773,-937.255
 L 110.943,-937.462 L 111.139,-937.645 L 111.356,-937.803 L 111.591,-937.932 L 111.84,-938.031 L 112.1,-938.097
 L 112.366,-938.131 L 112.634,-938.131 L 112.9,-938.097 L 113.16,-938.031 L 113.409,-937.932 L 113.644,-937.803
 L 113.861,-937.645 L 114.057,-937.462 L 114.227,-937.255 L 114.371,-937.029 L 114.485,-936.786 L 114.568,-936.531
 L 114.618,-936.268 L 114.635,-936 L 114.618,-935.732 L 114.568,-935.469 L 114.485,-935.214 L 114.371,-934.971
 L 114.227,-934.745 L 114.057,-934.538 L 113.861,-934.355 L 113.644,-934.197 L 113.409,-934.068 L 113.16,-933.969
 L 112.9,-933.903 L 112.634,-933.869 z
M -112.634,-933.869 L -112.9,-933.903 L -113.16,-933.969 L -113.409,-934.068 L -113.644,-934.197 L -113.861,-934.355
 L -114.057,-934.538 L -114.227,-934.745 L -114.371,-934.971 L -114.485,-935.214 L -114.568,-935.469 L -114.618,-935.732
 L -114.635,-936 L -114.618,-936.268 L -114.568,-936.531 L -114.485,-936.786 L -114.371,-937.029 L -114.227,-937.255
 L -114.057,-937.462 L -113.861,-937.645 L -113.644,-937.803 L -113.409,-937.932 L -113.16,-938.031 L -112.9,-938.097
 L -112.634,-938.131 L -112.366,-938.131 L -112.1,-938.097 L -111.84,-938.031 L -111.591,-937.932 L -111.356,-937.803
 L -111.139,-937.645 L -110.943,-937.462 L -110.773,-937.255 L -110.629,-937.029 L -110.515,-936.786 L -110.432,-936.531
 L -110.382,-936.268 L -110.365,-936 L -110.382,-935.732 L -110.432,-935.469 L -110.515,-935.214 L -110.629,-934.971
 L -110.773,-934.745 L -110.943,-934.538 L -111.139,-934.355 L -111.356,-934.197 L -111.591,-934.068 L -111.84,-933.969
 L -112.1,-933.903 L -112.366,-933.869 z
" stroke="black" fill="lightgray" stroke-width="0.5"/>
</svg>
