<?xml version="1.0" standalone="no"?>
<!DOCTYPE svg PUBLIC "-//W3C//DTD SVG 1.1//EN" "http://www.w3.org/Graphics/SVG/1.1/DTD/svg11.dtd">
<svg width="287mm" height="40mm" viewBox="-144 -80 287 40" xmlns="http://www.w3.org/2000/svg" version="1.1">
<title>OpenSCAD Model</title>
<path d="
M 138.437,-64.5886 L 139.045,-64.7447 L 139.629,-64.9759 L 140.179,-65.2784 L 140.687,-65.6474 L 141.145,-66.0773
 L 141.545,-66.5611 L 141.882,-67.0912 L 142.149,-67.6594 L 142.343,-68.2566 L 142.461,-68.8733 L 142.5,-69.5
 L 142.5,-74.5 L 142.461,-75.1267 L 142.343,-75.7434 L 142.149,-76.3406 L 141.882,-76.9088 L 141.545,-77.4389
 L 141.145,-77.9227 L 140.687,-78.3526 L 140.179,-78.7216 L 139.629,-79.0241 L 139.045,-79.2553 L 138.437,-79.4114
 L 137.814,-79.4901 L -137.814,-79.4901 L -138.437,-79.4114 L -139.045,-79.2553 L -139.629,-79.0241 L -140.179,-78.7216
 L -140.687,-78.3526 L -141,-78.0587 L -141,-79.4792 L -144,-79.4792 L -144,-64.5208 L -141,-64.5208
 L -141,-65.9413 L -140.687,-65.6474 L -140.179,-65.2784 L -139.629,-64.9759 L -139.045,-64.7447 L -138.437,-64.5886
 L -137.814,-64.5099 L 137.814,-64.5099 z
M -137.195,-66.8932 L -137.583,-66.9422 L -137.962,-67.0394 L -138.325,-67.1833 L -138.668,-67.3717 L -138.984,-67.6015
 L -139.269,-67.8691 L -139.518,-68.1703 L -139.728,-68.5004 L -139.894,-68.8541 L -140.015,-69.2259 L -140.088,-69.6098
 L -140.113,-70 L -140.113,-74 L -140.088,-74.3902 L -140.015,-74.7741 L -139.894,-75.1459 L -139.728,-75.4996
 L -139.518,-75.8297 L -139.269,-76.1309 L -138.984,-76.3985 L -138.668,-76.6283 L -138.325,-76.8167 L -137.962,-76.9606
 L -137.583,-77.0578 L -137.195,-77.1068 L 137.195,-77.1068 L 137.583,-77.0578 L 137.962,-76.9606 L 138.325,-76.8167
 L 138.668,-76.6283 L 138.984,-76.3985 L 139.269,-76.1309 L 139.518,-75.8297 L 139.728,-75.4996 L 139.894,-75.1459
 L 140.015,-74.7741 L 140.088,-74.3902 L 140.113,-74 L 140.113,-70 L 140.088,-69.6098 L 140.015,-69.2259
 L 139.894,-68.8541 L 139.728,-68.5004 L 139.518,-68.1703 L 139.269,-67.8691 L 138.984,-67.6015 L 138.668,-67.3717
 L 138.325,-67.1833 L 137.962,-67.0394 L 137.583,-66.9422 L 137.195,-66.8932 z
M 138.437,-40.5886 L 139.045,-40.7447 L 139.629,-40.9759 L 140.179,-41.2784 L 140.687,-41.6474 L 141.145,-42.0773
 L 141.545,-42.5611 L 141.882,-43.0912 L 142.149,-43.6594 L 142.343,-44.2566 L 142.461,-44.8733 L 142.5,-45.5
 L 142.5,-50.5 L 142.461,-51.1267 L 142.343,-51.7434 L 142.149,-52.3406 L 141.882,-52.9088 L 141.545,-53.4389
 L 141.145,-53.9227 L 140.687,-54.3526 L 140.179,-54.7216 L 139.629,-55.0241 L 139.045,-55.2553 L 138.437,-55.4114
 L 137.814,-55.4901 L -137.814,-55.4901 L -138.437,-55.4114 L -139.045,-55.2553 L -139.629,-55.0241 L -140.179,-54.7216
 L -140.687,-54.3526 L -141,-54.0587 L -141,-54.1526 L -144,-54.1526 L -144,-41.8474 L -141,-41.8474
 L -141,-41.9413 L -140.687,-41.6474 L -140.179,-41.2784 L -139.629,-40.9759 L -139.045,-40.7447 L -138.437,-40.5886
 L -137.814,-40.5099 L 137.814,-40.5099 z
M 134.866,-45.8689 L 134.6,-45.9025 L 134.34,-45.9692 L 134.091,-46.0679 L 133.856,-46.1971 L 133.639,-46.3547
 L 133.443,-46.5383 L 133.273,-46.7449 L 133.129,-46.9713 L 133.015,-47.214 L 132.932,-47.469 L 132.882,-47.7324
 L 132.865,-48 L 132.882,-48.2676 L 132.932,-48.531 L 133.015,-48.786 L 133.129,-49.0287 L 133.273,-49.2551
 L 133.443,-49.4617 L 133.639,-49.6453 L 133.856,-49.8029 L 134.091,-49.9321 L 134.34,-50.0308 L 134.6,-50.0975
 L 134.866,-50.1311 L 135.134,-50.1311 L 135.4,-50.0975 L 135.66,-50.0308 L 135.909,-49.9321 L 136.144,-49.8029
 L 136.361,-49.6453 L 136.557,-49.4617 L 136.727,-49.2551 L 136.871,-49.0287 L 136.985,-48.786 L 137.068,-48.531
 L 137.118,-48.2676 L 137.135,-48 L 137.118,-47.7324 L 137.068,-47.469 L 136.985,-47.214 L 136.871,-46.9713
 L 136.727,-46.7449 L 136.557,-46.5383 L 136.361,-46.3547 L 136.144,-46.1971 L 135.909,-46.0679 L 135.66,-45.9692
 L 135.4,-45.9025 L 135.134,-45.8689 z
M -135.134,-45.8689 L -135.4,-45.9025 L -135.66,-45.9692 L -135.909,-46.0679 L -136.144,-46.1971 L -136.361,-46.3547
 L -136.557,-46.5383 L -136.727,-46.7449 L -136.871,-46.9713 L -136.985,-47.214 L -137.068,-47.469 L -137.118,-47.7324
 L -137.135,-48 L -137.118,-48.2676 L -137.068,-48.531 L -136.985,-48.786 L -136.871,-49.0287 L -136.727,-49.2551
 L -136.557,-49.4617 L -136.361,-49.6453 L -136.144,-49.8029 L -135.909,-49.9321 L -135.66,-50.0308 L -135.4,-50.0975
 L -135.134,-50.1311 L -134.866,-50.1311 L -134.6,-50.0975 L -134.34,-50.0308 L -134.091,-49.9321 L -133.856,-49.8029
 L -133.639,-49.6453 L -133.443,-49.4617 L -133.273,-49.2551 L -133.129,-49.0287 L -133.015,-48.786 L -132.932,-48.531
 L -132.882,-48.2676 L -132.865,-48 L -132.882,-47.7324 L -132.932,-47.469 L -133.015,-47.214 L -133.129,-46.9713
 L -133.273,-46.7449 L -133.443,-46.5383 L -133.639,-46.3547 L -133.856,-46.1971 L -134.091,-46.0679 L -134.34,-45.9692
 L -134.6,-45.9025 L -134.866,-45.8689 z
" stroke="black" fill="lightgray" stroke-width="0.5"/>
</svg>
