<?xml version="1.0" standalone="no"?>
<!DOCTYPE svg PUBLIC "-//W3C//DTD SVG 1.1//EN" "http://www.w3.org/Graphics/SVG/1.1/DTD/svg11.dtd">
<svg width="302mm" height="532mm" viewBox="-152 -1049 302 532" xmlns="http://www.w3.org/2000/svg" version="1.1">
<title>OpenSCAD Model</title>
<path d="
M 145.937,-1003.59 L 146.545,-1003.74 L 147.129,-1003.98 L 147.679,-1004.28 L 148.187,-1004.65 L 148.645,-1005.08
 L 149.045,-1005.56 L 149.382,-1006.09 L 149.649,-1006.66 L 149.843,-1007.26 L 149.961,-1007.87 L 150,-1008.5
 L 150,-1043.5 L 149.961,-1044.13 L 149.843,-1044.74 L 149.649,-1045.34 L 149.382,-1045.91 L 149.045,-1046.44
 L 148.645,-1046.92 L 148.187,-1047.35 L 147.679,-1047.72 L 147.129,-1048.02 L 146.545,-1048.26 L 145.937,-1048.41
 L 145.314,-1048.49 L -145.314,-1048.49 L -145.937,-1048.41 L -146.545,-1048.26 L -147.129,-1048.02 L -147.679,-1047.72
 L -148.187,-1047.35 L -148.5,-1047.06 L -151.5,-1047.06 L -151.5,-1004.94 L -148.5,-1004.94 L -148.187,-1004.65
 L -147.679,-1004.28 L -147.129,-1003.98 L -146.545,-1003.74 L -145.937,-1003.59 L -145.314,-1003.51 L 145.314,-1003.51
 z
M -144.751,-1005.01 L -145.25,-1005.07 L -145.736,-1005.2 L -146.203,-1005.38 L -146.643,-1005.62 L -147.05,-1005.92
 L -147.416,-1006.26 L -147.736,-1006.65 L -148.005,-1007.07 L -148.219,-1007.53 L -148.374,-1008.01 L -148.468,-1008.5
 L -148.5,-1009 L -148.5,-1043 L -148.468,-1043.5 L -148.374,-1043.99 L -148.219,-1044.47 L -148.005,-1044.93
 L -147.736,-1045.35 L -147.416,-1045.74 L -147.05,-1046.08 L -146.643,-1046.38 L -146.203,-1046.62 L -145.736,-1046.8
 L -145.25,-1046.93 L -144.751,-1046.99 L 144.751,-1046.99 L 145.25,-1046.93 L 145.736,-1046.8 L 146.203,-1046.62
 L 146.643,-1046.38 L 147.05,-1046.08 L 147.416,-1045.74 L 147.736,-1045.35 L 148.005,-1044.93 L 148.219,-1044.47
 L 148.374,-1043.99 L 148.468,-1043.5 L 148.5,-1043 L 148.5,-1009 L 148.468,-1008.5 L 148.374,-1008.01
 L 148.219,-1007.53 L 148.005,-1007.07 L 147.736,-1006.65 L 147.416,-1006.26 L 147.05,-1005.92 L 146.643,-1005.62
 L 146.203,-1005.38 L 145.736,-1005.2 L 145.25,-1005.07 L 144.751,-1005.01 z
M 145.937,-949.589 L 146.545,-949.745 L 147.129,-949.976 L 147.679,-950.278 L 148.187,-950.647 L 148.645,-951.077
 L 149.045,-951.561 L 149.382,-952.091 L 149.649,-952.659 L 149.843,-953.257 L 149.961,-953.873 L 150,-954.5
 L 150,-989.5 L 149.961,-990.127 L 149.843,-990.743 L 149.649,-991.341 L 149.382,-991.909 L 149.045,-992.439
 L 148.645,-992.923 L 148.187,-993.353 L 147.679,-993.722 L 147.129,-994.024 L 146.545,-994.255 L 145.937,-994.411
 L 145.314,-994.49 L -145.314,-994.49 L -145.937,-994.411 L -146.545,-994.255 L -147.129,-994.024 L -147.679,-993.722
 L -148.187,-993.353 L -148.5,-993.059 L -148.5,-994.467 L -151.5,-994.467 L -151.5,-949.533 L -148.5,-949.533
 L -148.5,-950.941 L -148.187,-950.647 L -147.679,-950.278 L -147.129,-949.976 L -146.545,-949.745 L -145.937,-949.589
 L -145.314,-949.51 L 145.314,-949.51 z
M -144.751,-951.008 L -145.25,-951.071 L -145.736,-951.196 L -146.203,-951.381 L -146.643,-951.623 L -147.05,-951.918
 L -147.416,-952.262 L -147.736,-952.649 L -148.005,-953.073 L -148.219,-953.528 L -148.374,-954.005 L -148.468,-954.499
 L -148.5,-955 L -148.5,-989 L -148.468,-989.501 L -148.374,-989.995 L -148.219,-990.472 L -148.005,-990.927
 L -147.736,-991.351 L -147.416,-991.738 L -147.05,-992.082 L -146.643,-992.377 L -146.203,-992.619 L -145.736,-992.804
 L -145.25,-992.929 L -144.751,-992.992 L 144.751,-992.992 L 145.25,-992.929 L 145.736,-992.804 L 146.203,-992.619
 L 146.643,-992.377 L 147.05,-992.082 L 147.416,-991.738 L 147.736,-991.351 L 148.005,-990.927 L 148.219,-990.472
 L 148.374,-989.995 L 148.468,-989.501 L 148.5,-989 L 148.5,-955 L 148.468,-954.499 L 148.374,-954.005
 L 148.219,-953.528 L 148.005,-953.073 L 147.736,-952.649 L 147.416,-952.262 L 147.05,-951.918 L 146.643,-951.623
 L 146.203,-951.381 L 145.736,-951.196 L 145.25,-951.071 L 144.751,-951.008 z
M -148.5,-896.941 L -148.187,-896.647 L -147.679,-896.278 L -147.129,-895.976 L -146.545,-895.745 L -145.937,-895.589
 L -145.314,-895.51 L 145.314,-895.51 L 145.937,-895.589 L 146.545,-895.745 L 147.129,-895.976 L 147.679,-896.278
 L 148.187,-896.647 L 148.645,-897.077 L 149.045,-897.561 L 149.382,-898.091 L 149.649,-898.659 L 149.843,-899.257
 L 149.961,-899.873 L 150,-900.5 L 150,-935.5 L 149.961,-936.127 L 149.843,-936.743 L 149.649,-937.341
 L 149.382,-937.909 L 149.045,-938.439 L 148.645,-938.923 L 148.187,-939.353 L 147.679,-939.722 L 147.129,-940.024
 L 146.545,-940.255 L 145.937,-940.411 L 145.314,-940.49 L -145.314,-940.49 L -145.937,-940.411 L -146.545,-940.255
 L -147.129,-940.024 L -147.679,-939.722 L -148.187,-939.353 L -148.5,-939.059 L -148.5,-940.49 L -151.5,-940.49
 L -151.5,-935.994 L -148.374,-935.994 L -148.374,-935.995 L -148.219,-936.472 L -148.005,-936.927 L -147.736,-937.351
 L -147.416,-937.738 L -147.05,-938.082 L -146.643,-938.377 L -146.203,-938.619 L -145.736,-938.804 L -145.25,-938.929
 L -144.751,-938.992 L 144.751,-938.992 L 145.25,-938.929 L 145.736,-938.804 L 146.203,-938.619 L 146.643,-938.377
 L 147.05,-938.082 L 147.416,-937.738 L 147.736,-937.351 L 148.005,-936.927 L 148.219,-936.472 L 148.374,-935.995
 L 148.468,-935.501 L 148.5,-935 L 148.5,-901 L 148.468,-900.499 L 148.374,-900.005 L 148.219,-899.528
 L 148.005,-899.073 L 147.736,-898.649 L 147.416,-898.262 L 147.05,-897.918 L 146.643,-897.623 L 146.203,-897.381
 L 145.736,-897.196 L 145.25,-897.071 L 144.751,-897.008 L -144.751,-897.008 L -145.25,-897.071 L -145.736,-897.196
 L -146.203,-897.381 L -146.643,-897.623 L -147.05,-897.918 L -147.416,-898.262 L -147.736,-898.649 L -148.005,-899.073
 L -148.219,-899.528 L -148.374,-900.005 L -148.374,-900.006 L -151.5,-900.006 L -151.5,-895.51 L -148.5,-895.51
 z
M -148.5,-930.006 L -151.5,-930.006 L -151.5,-920.994 L -148.5,-920.994 z
M -148.5,-915.006 L -151.5,-915.006 L -151.5,-905.994 L -148.5,-905.994 z
M -148.5,-842.941 L -148.187,-842.647 L -147.679,-842.278 L -147.129,-841.976 L -146.545,-841.745 L -145.937,-841.589
 L -145.314,-841.51 L 145.314,-841.51 L 145.937,-841.589 L 146.545,-841.745 L 147.129,-841.976 L 147.679,-842.278
 L 148.187,-842.647 L 148.645,-843.077 L 149.045,-843.561 L 149.382,-844.091 L 149.649,-844.659 L 149.843,-845.257
 L 149.961,-845.873 L 150,-846.5 L 150,-881.5 L 149.961,-882.127 L 149.843,-882.743 L 149.649,-883.341
 L 149.382,-883.909 L 149.045,-884.439 L 148.645,-884.923 L 148.187,-885.353 L 147.679,-885.722 L 147.129,-886.024
 L 146.545,-886.255 L 145.937,-886.411 L 145.314,-886.49 L -145.314,-886.49 L -145.937,-886.411 L -146.545,-886.255
 L -147.129,-886.024 L -147.679,-885.722 L -148.187,-885.353 L -148.5,-885.059 L -148.5,-886.49 L -151.5,-886.49
 L -151.5,-841.51 L -148.5,-841.51 z
M -144.751,-843.008 L -145.25,-843.071 L -145.736,-843.196 L -146.203,-843.381 L -146.643,-843.623 L -147.05,-843.918
 L -147.416,-844.262 L -147.736,-844.649 L -148.005,-845.073 L -148.219,-845.528 L -148.374,-846.005 L -148.468,-846.499
 L -148.5,-847 L -148.5,-881 L -148.468,-881.501 L -148.374,-881.995 L -148.219,-882.472 L -148.005,-882.927
 L -147.736,-883.351 L -147.416,-883.738 L -147.05,-884.082 L -146.643,-884.377 L -146.203,-884.619 L -145.736,-884.804
 L -145.25,-884.929 L -144.751,-884.992 L 144.751,-884.992 L 145.25,-884.929 L 145.736,-884.804 L 146.203,-884.619
 L 146.643,-884.377 L 147.05,-884.082 L 147.416,-883.738 L 147.736,-883.351 L 148.005,-882.927 L 148.219,-882.472
 L 148.374,-881.995 L 148.468,-881.501 L 148.5,-881 L 148.5,-847 L 148.468,-846.499 L 148.374,-846.005
 L 148.219,-845.528 L 148.005,-845.073 L 147.736,-844.649 L 147.416,-844.262 L 147.05,-843.918 L 146.643,-843.623
 L 146.203,-843.381 L 145.736,-843.196 L 145.25,-843.071 L 144.751,-843.008 z
M -148.5,-788.941 L -148.187,-788.647 L -147.679,-788.278 L -147.129,-787.976 L -146.545,-787.745 L -145.937,-787.589
 L -145.314,-787.51 L 145.314,-787.51 L 145.937,-787.589 L 146.545,-787.745 L 147.129,-787.976 L 147.679,-788.278
 L 148.187,-788.647 L 148.645,-789.077 L 149.045,-789.561 L 149.382,-790.091 L 149.649,-790.659 L 149.843,-791.257
 L 149.961,-791.873 L 150,-792.5 L 150,-827.5 L 149.961,-828.127 L 149.843,-828.743 L 149.649,-829.341
 L 149.382,-829.909 L 149.045,-830.439 L 148.645,-830.923 L 148.187,-831.353 L 147.679,-831.722 L 147.129,-832.024
 L 146.545,-832.255 L 145.937,-832.411 L 145.314,-832.49 L -145.314,-832.49 L -145.937,-832.411 L -146.545,-832.255
 L -147.129,-832.024 L -147.679,-831.722 L -148.187,-831.353 L -148.5,-831.059 L -148.5,-832.49 L -151.5,-832.49
 L -151.5,-787.51 L -148.5,-787.51 z
M -144.751,-789.008 L -145.25,-789.071 L -145.736,-789.196 L -146.203,-789.381 L -146.643,-789.623 L -147.05,-789.918
 L -147.416,-790.262 L -147.736,-790.649 L -148.005,-791.073 L -148.219,-791.528 L -148.374,-792.005 L -148.468,-792.499
 L -148.5,-793 L -148.5,-827 L -148.468,-827.501 L -148.374,-827.995 L -148.219,-828.472 L -148.005,-828.927
 L -147.736,-829.351 L -147.416,-829.738 L -147.05,-830.082 L -146.643,-830.377 L -146.203,-830.619 L -145.736,-830.804
 L -145.25,-830.929 L -144.751,-830.992 L 144.751,-830.992 L 145.25,-830.929 L 145.736,-830.804 L 146.203,-830.619
 L 146.643,-830.377 L 147.05,-830.082 L 147.416,-829.738 L 147.736,-829.351 L 148.005,-828.927 L 148.219,-828.472
 L 148.374,-827.995 L 148.468,-827.501 L 148.5,-827 L 148.5,-793 L 148.468,-792.499 L 148.374,-792.005
 L 148.219,-791.528 L 148.005,-791.073 L 147.736,-790.649 L 147.416,-790.262 L 147.05,-789.918 L 146.643,-789.623
 L 146.203,-789.381 L 145.736,-789.196 L 145.25,-789.071 L 144.751,-789.008 z
M -148.5,-734.941 L -148.187,-734.647 L -147.679,-734.278 L -147.129,-733.976 L -146.545,-733.745 L -145.937,-733.589
 L -145.314,-733.51 L 145.314,-733.51 L 145.937,-733.589 L 146.545,-733.745 L 147.129,-733.976 L 147.679,-734.278
 L 148.187,-734.647 L 148.645,-735.077 L 149.045,-735.561 L 149.382,-736.091 L 149.649,-736.659 L 149.843,-737.257
 L 149.961,-737.873 L 150,-738.5 L 150,-773.5 L 149.961,-774.127 L 149.843,-774.743 L 149.649,-775.341
 L 149.382,-775.909 L 149.045,-776.439 L 148.645,-776.923 L 148.187,-777.353 L 147.679,-777.722 L 147.129,-778.024
 L 146.545,-778.255 L 145.937,-778.411 L 145.314,-778.49 L -145.314,-778.49 L -145.937,-778.411 L -146.545,-778.255
 L -147.129,-778.024 L -147.679,-777.722 L -148.187,-777.353 L -148.5,-777.059 L -148.5,-778.49 L -151.5,-778.49
 L -151.5,-733.51 L -148.5,-733.51 z
M -144.751,-735.008 L -145.25,-735.071 L -145.736,-735.196 L -146.203,-735.381 L -146.643,-735.623 L -147.05,-735.918
 L -147.416,-736.262 L -147.736,-736.649 L -148.005,-737.073 L -148.219,-737.528 L -148.374,-738.005 L -148.468,-738.499
 L -148.5,-739 L -148.5,-773 L -148.468,-773.501 L -148.374,-773.995 L -148.219,-774.472 L -148.005,-774.927
 L -147.736,-775.351 L -147.416,-775.738 L -147.05,-776.082 L -146.643,-776.377 L -146.203,-776.619 L -145.736,-776.804
 L -145.25,-776.929 L -144.751,-776.992 L 144.751,-776.992 L 145.25,-776.929 L 145.736,-776.804 L 146.203,-776.619
 L 146.643,-776.377 L 147.05,-776.082 L 147.416,-775.738 L 147.736,-775.351 L 148.005,-774.927 L 148.219,-774.472
 L 148.374,-773.995 L 148.468,-773.501 L 148.5,-773 L 148.5,-739 L 148.468,-738.499 L 148.374,-738.005
 L 148.219,-737.528 L 148.005,-737.073 L 147.736,-736.649 L 147.416,-736.262 L 147.05,-735.918 L 146.643,-735.623
 L 146.203,-735.381 L 145.736,-735.196 L 145.25,-735.071 L 144.751,-735.008 z
M -148.5,-680.941 L -148.187,-680.647 L -147.679,-680.278 L -147.129,-679.976 L -146.545,-679.745 L -145.937,-679.589
 L -145.314,-679.51 L 145.314,-679.51 L 145.937,-679.589 L 146.545,-679.745 L 147.129,-679.976 L 147.679,-680.278
 L 148.187,-680.647 L 148.645,-681.077 L 149.045,-681.561 L 149.382,-682.091 L 149.649,-682.659 L 149.843,-683.257
 L 149.961,-683.873 L 150,-684.5 L 150,-719.5 L 149.961,-720.127 L 149.843,-720.743 L 149.649,-721.341
 L 149.382,-721.909 L 149.045,-722.439 L 148.645,-722.923 L 148.187,-723.353 L 147.679,-723.722 L 147.129,-724.024
 L 146.545,-724.255 L 145.937,-724.411 L 145.314,-724.49 L -145.314,-724.49 L -145.937,-724.411 L -146.545,-724.255
 L -147.129,-724.024 L -147.679,-723.722 L -148.187,-723.353 L -148.5,-723.059 L -148.5,-724.49 L -151.5,-724.49
 L -151.5,-679.51 L -148.5,-679.51 z
M -144.751,-681.008 L -145.25,-681.071 L -145.736,-681.196 L -146.203,-681.381 L -146.643,-681.623 L -147.05,-681.918
 L -147.416,-682.262 L -147.736,-682.649 L -148.005,-683.073 L -148.219,-683.528 L -148.374,-684.005 L -148.468,-684.499
 L -148.5,-685 L -148.5,-719 L -148.468,-719.501 L -148.374,-719.995 L -148.219,-720.472 L -148.005,-720.927
 L -147.736,-721.351 L -147.416,-721.738 L -147.05,-722.082 L -146.643,-722.377 L -146.203,-722.619 L -145.736,-722.804
 L -145.25,-722.929 L -144.751,-722.992 L 144.751,-722.992 L 145.25,-722.929 L 145.736,-722.804 L 146.203,-722.619
 L 146.643,-722.377 L 147.05,-722.082 L 147.416,-721.738 L 147.736,-721.351 L 148.005,-720.927 L 148.219,-720.472
 L 148.374,-719.995 L 148.468,-719.501 L 148.5,-719 L 148.5,-685 L 148.468,-684.499 L 148.374,-684.005
 L 148.219,-683.528 L 148.005,-683.073 L 147.736,-682.649 L 147.416,-682.262 L 147.05,-681.918 L 146.643,-681.623
 L 146.203,-681.381 L 145.736,-681.196 L 145.25,-681.071 L 144.751,-681.008 z
M -148.5,-626.941 L -148.187,-626.647 L -147.679,-626.278 L -147.129,-625.976 L -146.545,-625.745 L -145.937,-625.589
 L -145.314,-625.51 L 145.314,-625.51 L 145.937,-625.589 L 146.545,-625.745 L 147.129,-625.976 L 147.679,-626.278
 L 148.187,-626.647 L 148.645,-627.077 L 149.045,-627.561 L 149.382,-628.091 L 149.649,-628.659 L 149.843,-629.257
 L 149.961,-629.873 L 150,-630.5 L 150,-665.5 L 149.961,-666.127 L 149.843,-666.743 L 149.649,-667.341
 L 149.382,-667.909 L 149.045,-668.439 L 148.645,-668.923 L 148.187,-669.353 L 147.679,-669.722 L 147.129,-670.024
 L 146.545,-670.255 L 145.937,-670.411 L 145.314,-670.49 L -145.314,-670.49 L -145.937,-670.411 L -146.545,-670.255
 L -147.129,-670.024 L -147.679,-669.722 L -148.187,-669.353 L -148.5,-669.059 L -148.5,-670.49 L -151.5,-670.49
 L -151.5,-625.51 L -148.5,-625.51 z
M -144.751,-627.008 L -145.25,-627.071 L -145.736,-627.196 L -146.203,-627.381 L -146.643,-627.623 L -147.05,-627.918
 L -147.416,-628.262 L -147.736,-628.649 L -148.005,-629.073 L -148.219,-629.528 L -148.374,-630.005 L -148.468,-630.499
 L -148.5,-631 L -148.5,-665 L -148.468,-665.501 L -148.374,-665.995 L -148.219,-666.472 L -148.005,-666.927
 L -147.736,-667.351 L -147.416,-667.738 L -147.05,-668.082 L -146.643,-668.377 L -146.203,-668.619 L -145.736,-668.804
 L -145.25,-668.929 L -144.751,-668.992 L 144.751,-668.992 L 145.25,-668.929 L 145.736,-668.804 L 146.203,-668.619
 L 146.643,-668.377 L 147.05,-668.082 L 147.416,-667.738 L 147.736,-667.351 L 148.005,-666.927 L 148.219,-666.472
 L 148.374,-665.995 L 148.468,-665.501 L 148.5,-665 L 148.5,-631 L 148.468,-630.499 L 148.374,-630.005
 L 148.219,-629.528 L 148.005,-629.073 L 147.736,-628.649 L 147.416,-628.262 L 147.05,-627.918 L 146.643,-627.623
 L 146.203,-627.381 L 145.736,-627.196 L 145.25,-627.071 L 144.751,-627.008 z
M 145.937,-571.589 L 146.545,-571.745 L 147.129,-571.976 L 147.679,-572.278 L 148.187,-572.647 L 148.645,-573.077
 L 149.045,-573.561 L 149.382,-574.091 L 149.649,-574.659 L 149.843,-575.257 L 149.961,-575.873 L 150,-576.5
 L 150,-611.5 L 149.961,-612.127 L 149.843,-612.743 L 149.649,-613.341 L 149.382,-613.909 L 149.045,-614.439
 L 148.645,-614.923 L 148.187,-615.353 L 147.679,-615.722 L 147.129,-616.024 L 146.545,-616.255 L 145.937,-616.411
 L 145.314,-616.49 L -145.314,-616.49 L -145.937,-616.411 L -146.545,-616.255 L -147.129,-616.024 L -147.679,-615.722
 L -148.187,-615.353 L -148.5,-615.059 L -148.5,-616.479 L -151.5,-616.479 L -151.5,-571.521 L -148.5,-571.521
 L -148.5,-572.941 L -148.187,-572.647 L -147.679,-572.278 L -147.129,-571.976 L -146.545,-571.745 L -145.937,-571.589
 L -145.314,-571.51 L 145.314,-571.51 z
M -144.695,-573.893 L -145.083,-573.942 L -145.462,-574.039 L -145.825,-574.183 L -146.168,-574.372 L -146.484,-574.601
 L -146.769,-574.869 L -147.018,-575.17 L -147.228,-575.5 L -147.394,-575.854 L -147.515,-576.226 L -147.588,-576.61
 L -147.613,-577 L -147.613,-611 L -147.588,-611.39 L -147.515,-611.774 L -147.394,-612.146 L -147.228,-612.5
 L -147.018,-612.83 L -146.769,-613.131 L -146.484,-613.399 L -146.168,-613.628 L -145.825,-613.817 L -145.462,-613.961
 L -145.083,-614.058 L -144.695,-614.107 L 144.695,-614.107 L 145.083,-614.058 L 145.462,-613.961 L 145.825,-613.817
 L 146.168,-613.628 L 146.484,-613.399 L 146.769,-613.131 L 147.018,-612.83 L 147.228,-612.5 L 147.394,-612.146
 L 147.515,-611.774 L 147.588,-611.39 L 147.613,-611 L 147.613,-577 L 147.588,-576.61 L 147.515,-576.226
 L 147.394,-575.854 L 147.228,-575.5 L 147.018,-575.17 L 146.769,-574.869 L 146.484,-574.601 L 146.168,-574.372
 L 145.825,-574.183 L 145.462,-574.039 L 145.083,-573.942 L 144.695,-573.893 z
M 145.937,-517.589 L 146.545,-517.745 L 147.129,-517.976 L 147.679,-518.278 L 148.187,-518.647 L 148.645,-519.077
 L 149.045,-519.561 L 149.382,-520.091 L 149.649,-520.659 L 149.843,-521.257 L 149.961,-521.873 L 150,-522.5
 L 150,-557.5 L 149.961,-558.127 L 149.843,-558.743 L 149.649,-559.341 L 149.382,-559.909 L 149.045,-560.439
 L 148.645,-560.923 L 148.187,-561.353 L 147.679,-561.722 L 147.129,-562.024 L 146.545,-562.255 L 145.937,-562.411
 L 145.314,-562.49 L -145.314,-562.49 L -145.937,-562.411 L -146.545,-562.255 L -147.129,-562.024 L -147.679,-561.722
 L -148.187,-561.353 L -148.5,-561.059 L -148.5,-561.153 L -151.5,-561.153 L -151.5,-518.847 L -148.5,-518.847
 L -148.5,-518.941 L -148.187,-518.647 L -147.679,-518.278 L -147.129,-517.976 L -146.545,-517.745 L -145.937,-517.589
 L -145.314,-517.51 L 145.314,-517.51 z
M -142.634,-552.869 L -142.9,-552.903 L -143.16,-552.969 L -143.409,-553.068 L -143.644,-553.197 L -143.861,-553.355
 L -144.057,-553.538 L -144.227,-553.745 L -144.371,-553.971 L -144.485,-554.214 L -144.568,-554.469 L -144.618,-554.732
 L -144.635,-555 L -144.618,-555.268 L -144.568,-555.531 L -144.485,-555.786 L -144.371,-556.029 L -144.227,-556.255
 L -144.057,-556.462 L -143.861,-556.645 L -143.644,-556.803 L -143.409,-556.932 L -143.16,-557.031 L -142.9,-557.097
 L -142.634,-557.131 L -142.366,-557.131 L -142.1,-557.097 L -141.84,-557.031 L -141.591,-556.932 L -141.356,-556.803
 L -141.139,-556.645 L -140.943,-556.462 L -140.773,-556.255 L -140.629,-556.029 L -140.515,-555.786 L -140.432,-555.531
 L -140.382,-555.268 L -140.365,-555 L -140.382,-554.732 L -140.432,-554.469 L -140.515,-554.214 L -140.629,-553.971
 L -140.773,-553.745 L -140.943,-553.538 L -141.139,-553.355 L -141.356,-553.197 L -141.591,-553.068 L -141.84,-552.969
 L -142.1,-552.903 L -142.366,-552.869 z
M 142.366,-552.869 L 142.1,-552.903 L 141.84,-552.969 L 141.591,-553.068 L 141.356,-553.197 L 141.139,-553.355
 L 140.943,-553.538 L 140.773,-553.745 L 140.629,-553.971 L 140.515,-554.214 L 140.432,-554.469 L 140.382,-554.732
 L 140.365,-555 L 140.382,-555.268 L 140.432,-555.531 L 140.515,-555.786 L 140.629,-556.029 L 140.773,-556.255
 L 140.943,-556.462 L 141.139,-556.645 L 141.356,-556.803 L 141.591,-556.932 L 141.84,-557.031 L 142.1,-557.097
 L 142.366,-557.131 L 142.634,-557.131 L 142.9,-557.097 L 143.16,-557.031 L 143.409,-556.932 L 143.644,-556.803
 L 143.861,-556.645 L 144.057,-556.462 L 144.227,-556.255 L 144.371,-556.029 L 144.485,-555.786 L 144.568,-555.531
 L 144.618,-555.268 L 144.635,-555 L 144.618,-554.732 L 144.568,-554.469 L 144.485,-554.214 L 144.371,-553.971
 L 144.227,-553.745 L 144.057,-553.538 L 143.861,-553.355 L 143.644,-553.197 L 143.409,-553.068 L 143.16,-552.969
 L 142.9,-552.903 L 142.634,-552.869 z
M -142.634,-522.869 L -142.9,-522.903 L -143.16,-522.969 L -143.409,-523.068 L -143.644,-523.197 L -143.861,-523.355
 L -144.057,-523.538 L -144.227,-523.745 L -144.371,-523.971 L -144.485,-524.214 L -144.568,-524.469 L -144.618,-524.732
 L -144.635,-525 L -144.618,-525.268 L -144.568,-525.531 L -144.485,-525.786 L -144.371,-526.029 L -144.227,-526.255
 L -144.057,-526.462 L -143.861,-526.645 L -143.644,-526.803 L -143.409,-526.932 L -143.16,-527.031 L -142.9,-527.097
 L -142.634,-527.131 L -142.366,-527.131 L -142.1,-527.097 L -141.84,-527.031 L -141.591,-526.932 L -141.356,-526.803
 L -141.139,-526.645 L -140.943,-526.462 L -140.773,-526.255 L -140.629,-526.029 L -140.515,-525.786 L -140.432,-525.531
 L -140.382,-525.268 L -140.365,-525 L -140.382,-524.732 L -140.432,-524.469 L -140.515,-524.214 L -140.629,-523.971
 L -140.773,-523.745 L -140.943,-523.538 L -141.139,-523.355 L -141.356,-523.197 L -141.591,-523.068 L -141.84,-522.969
 L -142.1,-522.903 L -142.366,-522.869 z
M 142.366,-522.869 L 142.1,-522.903 L 141.84,-522.969 L 141.591,-523.068 L 141.356,-523.197 L 141.139,-523.355
 L 140.943,-523.538 L 140.773,-523.745 L 140.629,-523.971 L 140.515,-524.214 L 140.432,-524.469 L 140.382,-524.732
 L 140.365,-525 L 140.382,-525.268 L 140.432,-525.531 L 140.515,-525.786 L 140.629,-526.029 L 140.773,-526.255
 L 140.943,-526.462 L 141.139,-526.645 L 141.356,-526.803 L 141.591,-526.932 L 141.84,-527.031 L 142.1,-527.097
 L 142.366,-527.131 L 142.634,-527.131 L 142.9,-527.097 L 143.16,-527.031 L 143.409,-526.932 L 143.644,-526.803
 L 143.861,-526.645 L 144.057,-526.462 L 144.227,-526.255 L 144.371,-526.029 L 144.485,-525.786 L 144.568,-525.531
 L 144.618,-525.268 L 144.635,-525 L 144.618,-524.732 L 144.568,-524.469 L 144.485,-524.214 L 144.371,-523.971
 L 144.227,-523.745 L 144.057,-523.538 L 143.861,-523.355 L 143.644,-523.197 L 143.409,-523.068 L 143.16,-522.969
 L 142.9,-522.903 L 142.634,-522.869 z
" stroke="black" fill="lightgray" stroke-width="0.5"/>
</svg>
