<?xml version="1.0" standalone="no"?>
<!DOCTYPE svg PUBLIC "-//W3C//DTD SVG 1.1//EN" "http://www.w3.org/Graphics/SVG/1.1/DTD/svg11.dtd">
<svg width="302mm" height="987mm" viewBox="-152 -1614 302 987" xmlns="http://www.w3.org/2000/svg" version="1.1">
<title>OpenSCAD Model</title>
<path d="
M -148.5,-1375.44 L -148.187,-1375.15 L -147.679,-1374.78 L -147.129,-1374.48 L -146.545,-1374.24 L -145.937,-1374.09
 L -145.314,-1374.01 L 145.314,-1374.01 L 145.937,-1374.09 L 146.545,-1374.24 L 147.129,-1374.48 L 147.679,-1374.78
 L 148.187,-1375.15 L 148.645,-1375.58 L 149.045,-1376.06 L 149.382,-1376.59 L 149.649,-1377.16 L 149.843,-1377.76
 L 149.961,-1378.37 L 150,-1379 L 150,-1609 L 149.961,-1609.63 L 149.843,-1610.24 L 149.649,-1610.84
 L 149.382,-1611.41 L 149.045,-1611.94 L 148.645,-1612.42 L 148.187,-1612.85 L 147.679,-1613.22 L 147.129,-1613.52
 L 146.545,-1613.76 L 145.937,-1613.91 L 145.314,-1613.99 L -145.314,-1613.99 L -145.937,-1613.91 L -146.545,-1613.76
 L -147.129,-1613.52 L -147.679,-1613.22 L -148.187,-1612.85 L -148.5,-1612.56 L -148.5,-1613.99 L -151.5,-1613.99
 L -151.5,-1374.01 L -148.5,-1374.01 z
M -144.751,-1375.51 L -145.25,-1375.57 L -145.736,-1375.7 L -146.203,-1375.88 L -146.643,-1376.12 L -147.05,-1376.42
 L -147.416,-1376.76 L -147.736,-1377.15 L -148.005,-1377.57 L -148.219,-1378.03 L -148.374,-1378.51 L -148.468,-1379
 L -148.5,-1379.5 L -148.5,-1608.5 L -148.468,-1609 L -148.374,-1609.49 L -148.219,-1609.97 L -148.005,-1610.43
 L -147.736,-1610.85 L -147.416,-1611.24 L -147.05,-1611.58 L -146.643,-1611.88 L -146.203,-1612.12 L -145.736,-1612.3
 L -145.25,-1612.43 L -144.751,-1612.49 L 144.751,-1612.49 L 145.25,-1612.43 L 145.736,-1612.3 L 146.203,-1612.12
 L 146.643,-1611.88 L 147.05,-1611.58 L 147.416,-1611.24 L 147.736,-1610.85 L 148.005,-1610.43 L 148.219,-1609.97
 L 148.374,-1609.49 L 148.468,-1609 L 148.5,-1608.5 L 148.5,-1379.5 L 148.468,-1379 L 148.374,-1378.51
 L 148.219,-1378.03 L 148.005,-1377.57 L 147.736,-1377.15 L 147.416,-1376.76 L 147.05,-1376.42 L 146.643,-1376.12
 L 146.203,-1375.88 L 145.736,-1375.7 L 145.25,-1375.57 L 144.751,-1375.51 z
M -148.5,-1126.44 L -148.187,-1126.15 L -147.679,-1125.78 L -147.129,-1125.48 L -146.545,-1125.24 L -145.937,-1125.09
 L -145.314,-1125.01 L 145.314,-1125.01 L 145.937,-1125.09 L 146.545,-1125.24 L 147.129,-1125.48 L 147.679,-1125.78
 L 148.187,-1126.15 L 148.645,-1126.58 L 149.045,-1127.06 L 149.382,-1127.59 L 149.649,-1128.16 L 149.843,-1128.76
 L 149.961,-1129.37 L 150,-1130 L 150,-1360 L 149.961,-1360.63 L 149.843,-1361.24 L 149.649,-1361.84
 L 149.382,-1362.41 L 149.045,-1362.94 L 148.645,-1363.42 L 148.187,-1363.85 L 147.679,-1364.22 L 147.129,-1364.52
 L 146.545,-1364.76 L 145.937,-1364.91 L 145.314,-1364.99 L -145.314,-1364.99 L -145.937,-1364.91 L -146.545,-1364.76
 L -147.129,-1364.52 L -147.679,-1364.22 L -148.187,-1363.85 L -148.5,-1363.56 L -148.5,-1364.99 L -151.5,-1364.99
 L -151.5,-1125.01 L -148.5,-1125.01 z
M -144.743,-1126.64 L -145.226,-1126.7 L -145.697,-1126.82 L -146.149,-1127 L -146.575,-1127.23 L -146.969,-1127.52
 L -147.323,-1127.85 L -147.633,-1128.22 L -147.894,-1128.63 L -148.101,-1129.07 L -148.251,-1129.54 L -148.342,-1130.01
 L -148.373,-1130.5 L -148.373,-1359.5 L -148.342,-1359.99 L -148.251,-1360.46 L -148.101,-1360.93 L -147.894,-1361.37
 L -147.633,-1361.78 L -147.323,-1362.15 L -146.969,-1362.48 L -146.575,-1362.77 L -146.149,-1363 L -145.697,-1363.18
 L -145.226,-1363.3 L -144.743,-1363.36 L 144.743,-1363.36 L 145.226,-1363.3 L 145.697,-1363.18 L 146.149,-1363
 L 146.575,-1362.77 L 146.969,-1362.48 L 147.323,-1362.15 L 147.633,-1361.78 L 147.894,-1361.37 L 148.101,-1360.93
 L 148.251,-1360.46 L 148.342,-1359.99 L 148.373,-1359.5 L 148.373,-1130.5 L 148.342,-1130.01 L 148.251,-1129.54
 L 148.101,-1129.07 L 147.894,-1128.63 L 147.633,-1128.22 L 147.323,-1127.85 L 146.969,-1127.52 L 146.575,-1127.23
 L 146.149,-1127 L 145.697,-1126.82 L 145.226,-1126.7 L 144.743,-1126.64 z
M 145.937,-876.089 L 146.545,-876.245 L 147.129,-876.476 L 147.679,-876.778 L 148.187,-877.147 L 148.645,-877.577
 L 149.045,-878.061 L 149.382,-878.591 L 149.649,-879.159 L 149.843,-879.757 L 149.961,-880.373 L 150,-881
 L 150,-1111 L 149.961,-1111.63 L 149.843,-1112.24 L 149.649,-1112.84 L 149.382,-1113.41 L 149.045,-1113.94
 L 148.645,-1114.42 L 148.187,-1114.85 L 147.679,-1115.22 L 147.129,-1115.52 L 146.545,-1115.76 L 145.937,-1115.91
 L 145.314,-1115.99 L -145.314,-1115.99 L -145.937,-1115.91 L -146.545,-1115.76 L -147.129,-1115.52 L -147.679,-1115.22
 L -148.187,-1114.85 L -148.5,-1114.56 L -148.5,-1115.61 L -151.5,-1115.61 L -151.5,-876.385 L -148.5,-876.385
 L -148.5,-877.441 L -148.187,-877.147 L -147.679,-876.778 L -147.129,-876.476 L -146.545,-876.245 L -145.937,-876.089
 L -145.314,-876.01 L 145.314,-876.01 z
M 142.349,-1106.1 L 142.05,-1106.14 L 141.758,-1106.22 L 141.478,-1106.33 L 141.214,-1106.47 L 140.97,-1106.65
 L 140.75,-1106.86 L 140.558,-1107.09 L 140.397,-1107.34 L 140.269,-1107.62 L 140.175,-1107.9 L 140.119,-1108.2
 L 140.1,-1108.5 L 140.119,-1108.8 L 140.175,-1109.1 L 140.269,-1109.38 L 140.397,-1109.66 L 140.558,-1109.91
 L 140.75,-1110.14 L 140.97,-1110.35 L 141.214,-1110.53 L 141.478,-1110.67 L 141.758,-1110.78 L 142.05,-1110.86
 L 142.349,-1110.9 L 142.651,-1110.9 L 142.95,-1110.86 L 143.242,-1110.78 L 143.522,-1110.67 L 143.786,-1110.53
 L 144.03,-1110.35 L 144.25,-1110.14 L 144.442,-1109.91 L 144.603,-1109.66 L 144.731,-1109.38 L 144.825,-1109.1
 L 144.881,-1108.8 L 144.9,-1108.5 L 144.881,-1108.2 L 144.825,-1107.9 L 144.731,-1107.62 L 144.603,-1107.34
 L 144.442,-1107.09 L 144.25,-1106.86 L 144.03,-1106.65 L 143.786,-1106.47 L 143.522,-1106.33 L 143.242,-1106.22
 L 142.95,-1106.14 L 142.651,-1106.1 z
M -142.651,-1106.1 L -142.95,-1106.14 L -143.242,-1106.22 L -143.522,-1106.33 L -143.786,-1106.47 L -144.03,-1106.65
 L -144.25,-1106.86 L -144.442,-1107.09 L -144.603,-1107.34 L -144.731,-1107.62 L -144.825,-1107.9 L -144.881,-1108.2
 L -144.9,-1108.5 L -144.881,-1108.8 L -144.825,-1109.1 L -144.731,-1109.38 L -144.603,-1109.66 L -144.442,-1109.91
 L -144.25,-1110.14 L -144.03,-1110.35 L -143.786,-1110.53 L -143.522,-1110.67 L -143.242,-1110.78 L -142.95,-1110.86
 L -142.651,-1110.9 L -142.349,-1110.9 L -142.05,-1110.86 L -141.758,-1110.78 L -141.478,-1110.67 L -141.214,-1110.53
 L -140.97,-1110.35 L -140.75,-1110.14 L -140.558,-1109.91 L -140.397,-1109.66 L -140.269,-1109.38 L -140.175,-1109.1
 L -140.119,-1108.8 L -140.1,-1108.5 L -140.119,-1108.2 L -140.175,-1107.9 L -140.269,-1107.62 L -140.397,-1107.34
 L -140.558,-1107.09 L -140.75,-1106.86 L -140.97,-1106.65 L -141.214,-1106.47 L -141.478,-1106.33 L -141.758,-1106.22
 L -142.05,-1106.14 L -142.349,-1106.1 z
M 142.349,-881.105 L 142.05,-881.143 L 141.758,-881.217 L 141.478,-881.328 L 141.214,-881.474 L 140.97,-881.651
 L 140.75,-881.857 L 140.558,-882.089 L 140.397,-882.344 L 140.269,-882.617 L 140.175,-882.903 L 140.119,-883.199
 L 140.1,-883.5 L 140.119,-883.801 L 140.175,-884.097 L 140.269,-884.383 L 140.397,-884.656 L 140.558,-884.911
 L 140.75,-885.143 L 140.97,-885.349 L 141.214,-885.526 L 141.478,-885.672 L 141.758,-885.783 L 142.05,-885.857
 L 142.349,-885.895 L 142.651,-885.895 L 142.95,-885.857 L 143.242,-885.783 L 143.522,-885.672 L 143.786,-885.526
 L 144.03,-885.349 L 144.25,-885.143 L 144.442,-884.911 L 144.603,-884.656 L 144.731,-884.383 L 144.825,-884.097
 L 144.881,-883.801 L 144.9,-883.5 L 144.881,-883.199 L 144.825,-882.903 L 144.731,-882.617 L 144.603,-882.344
 L 144.442,-882.089 L 144.25,-881.857 L 144.03,-881.651 L 143.786,-881.474 L 143.522,-881.328 L 143.242,-881.217
 L 142.95,-881.143 L 142.651,-881.105 z
M -142.651,-881.105 L -142.95,-881.143 L -143.242,-881.217 L -143.522,-881.328 L -143.786,-881.474 L -144.03,-881.651
 L -144.25,-881.857 L -144.442,-882.089 L -144.603,-882.344 L -144.731,-882.617 L -144.825,-882.903 L -144.881,-883.199
 L -144.9,-883.5 L -144.881,-883.801 L -144.825,-884.097 L -144.731,-884.383 L -144.603,-884.656 L -144.442,-884.911
 L -144.25,-885.143 L -144.03,-885.349 L -143.786,-885.526 L -143.522,-885.672 L -143.242,-885.783 L -142.95,-885.857
 L -142.651,-885.895 L -142.349,-885.895 L -142.05,-885.857 L -141.758,-885.783 L -141.478,-885.672 L -141.214,-885.526
 L -140.97,-885.349 L -140.75,-885.143 L -140.558,-884.911 L -140.397,-884.656 L -140.269,-884.383 L -140.175,-884.097
 L -140.119,-883.801 L -140.1,-883.5 L -140.119,-883.199 L -140.175,-882.903 L -140.269,-882.617 L -140.397,-882.344
 L -140.558,-882.089 L -140.75,-881.857 L -140.97,-881.651 L -141.214,-881.474 L -141.478,-881.328 L -141.758,-881.217
 L -142.05,-881.143 L -142.349,-881.105 z
M 145.937,-627.089 L 146.545,-627.245 L 147.129,-627.476 L 147.679,-627.778 L 148.187,-628.147 L 148.645,-628.577
 L 149.045,-629.061 L 149.382,-629.591 L 149.649,-630.159 L 149.843,-630.757 L 149.961,-631.373 L 150,-632
 L 150,-862 L 149.961,-862.627 L 149.843,-863.243 L 149.649,-863.841 L 149.382,-864.409 L 149.045,-864.939
 L 148.645,-865.423 L 148.187,-865.853 L 147.679,-866.222 L 147.129,-866.524 L 146.545,-866.755 L 145.937,-866.911
 L 145.314,-866.99 L -145.314,-866.99 L -145.937,-866.911 L -146.545,-866.755 L -147.129,-866.524 L -147.679,-866.222
 L -148.187,-865.853 L -148.645,-865.423 L -149.045,-864.939 L -149.382,-864.409 L -149.649,-863.841 L -149.843,-863.243
 L -149.9,-862.944 L -151.5,-862.944 L -151.5,-631.056 L -149.9,-631.056 L -149.843,-630.757 L -149.649,-630.159
 L -149.382,-629.591 L -149.045,-629.061 L -148.645,-628.577 L -148.187,-628.147 L -147.679,-627.778 L -147.129,-627.476
 L -146.545,-627.245 L -145.937,-627.089 L -145.314,-627.01 L 145.314,-627.01 z
M -142.613,-857.704 L -142.837,-857.732 L -143.056,-857.788 L -143.266,-857.871 L -143.464,-857.98 L -143.647,-858.113
 L -143.812,-858.268 L -143.956,-858.442 L -144.077,-858.633 L -144.174,-858.837 L -144.243,-859.052 L -144.286,-859.274
 L -144.3,-859.5 L -144.286,-859.726 L -144.243,-859.948 L -144.174,-860.163 L -144.077,-860.367 L -143.956,-860.558
 L -143.812,-860.732 L -143.647,-860.887 L -143.464,-861.02 L -143.266,-861.129 L -143.056,-861.212 L -142.837,-861.268
 L -142.613,-861.296 L -142.387,-861.296 L -142.163,-861.268 L -141.944,-861.212 L -141.734,-861.129 L -141.536,-861.02
 L -141.353,-860.887 L -141.188,-860.732 L -141.044,-860.558 L -140.923,-860.367 L -140.826,-860.163 L -140.757,-859.948
 L -140.714,-859.726 L -140.7,-859.5 L -140.714,-859.274 L -140.757,-859.052 L -140.826,-858.837 L -140.923,-858.633
 L -141.044,-858.442 L -141.188,-858.268 L -141.353,-858.113 L -141.536,-857.98 L -141.734,-857.871 L -141.944,-857.788
 L -142.163,-857.732 L -142.387,-857.704 z
M 142.387,-857.704 L 142.163,-857.732 L 141.944,-857.788 L 141.734,-857.871 L 141.536,-857.98 L 141.353,-858.113
 L 141.188,-858.268 L 141.044,-858.442 L 140.923,-858.633 L 140.826,-858.837 L 140.757,-859.052 L 140.714,-859.274
 L 140.7,-859.5 L 140.714,-859.726 L 140.757,-859.948 L 140.826,-860.163 L 140.923,-860.367 L 141.044,-860.558
 L 141.188,-860.732 L 141.353,-860.887 L 141.536,-861.02 L 141.734,-861.129 L 141.944,-861.212 L 142.163,-861.268
 L 142.387,-861.296 L 142.613,-861.296 L 142.837,-861.268 L 143.056,-861.212 L 143.266,-861.129 L 143.464,-861.02
 L 143.647,-860.887 L 143.812,-860.732 L 143.956,-860.558 L 144.077,-860.367 L 144.174,-860.163 L 144.243,-859.948
 L 144.286,-859.726 L 144.3,-859.5 L 144.286,-859.274 L 144.243,-859.052 L 144.174,-858.837 L 144.077,-858.633
 L 143.956,-858.442 L 143.812,-858.268 L 143.647,-858.113 L 143.464,-857.98 L 143.266,-857.871 L 143.056,-857.788
 L 142.837,-857.732 L 142.613,-857.704 z
M -142.613,-632.704 L -142.837,-632.732 L -143.056,-632.788 L -143.266,-632.871 L -143.464,-632.98 L -143.647,-633.113
 L -143.812,-633.268 L -143.956,-633.442 L -144.077,-633.633 L -144.174,-633.837 L -144.243,-634.052 L -144.286,-634.274
 L -144.3,-634.5 L -144.286,-634.726 L -144.243,-634.948 L -144.174,-635.163 L -144.077,-635.367 L -143.956,-635.558
 L -143.812,-635.732 L -143.647,-635.887 L -143.464,-636.02 L -143.266,-636.129 L -143.056,-636.212 L -142.837,-636.268
 L -142.613,-636.296 L -142.387,-636.296 L -142.163,-636.268 L -141.944,-636.212 L -141.734,-636.129 L -141.536,-636.02
 L -141.353,-635.887 L -141.188,-635.732 L -141.044,-635.558 L -140.923,-635.367 L -140.826,-635.163 L -140.757,-634.948
 L -140.714,-634.726 L -140.7,-634.5 L -140.714,-634.274 L -140.757,-634.052 L -140.826,-633.837 L -140.923,-633.633
 L -141.044,-633.442 L -141.188,-633.268 L -141.353,-633.113 L -141.536,-632.98 L -141.734,-632.871 L -141.944,-632.788
 L -142.163,-632.732 L -142.387,-632.704 z
M 142.387,-632.704 L 142.163,-632.732 L 141.944,-632.788 L 141.734,-632.871 L 141.536,-632.98 L 141.353,-633.113
 L 141.188,-633.268 L 141.044,-633.442 L 140.923,-633.633 L 140.826,-633.837 L 140.757,-634.052 L 140.714,-634.274
 L 140.7,-634.5 L 140.714,-634.726 L 140.757,-634.948 L 140.826,-635.163 L 140.923,-635.367 L 141.044,-635.558
 L 141.188,-635.732 L 141.353,-635.887 L 141.536,-636.02 L 141.734,-636.129 L 141.944,-636.212 L 142.163,-636.268
 L 142.387,-636.296 L 142.613,-636.296 L 142.837,-636.268 L 143.056,-636.212 L 143.266,-636.129 L 143.464,-636.02
 L 143.647,-635.887 L 143.812,-635.732 L 143.956,-635.558 L 144.077,-635.367 L 144.174,-635.163 L 144.243,-634.948
 L 144.286,-634.726 L 144.3,-634.5 L 144.286,-634.274 L 144.243,-634.052 L 144.174,-633.837 L 144.077,-633.633
 L 143.956,-633.442 L 143.812,-633.268 L 143.647,-633.113 L 143.464,-632.98 L 143.266,-632.871 L 143.056,-632.788
 L 142.837,-632.732 L 142.613,-632.704 z
" stroke="black" fill="lightgray" stroke-width="0.5"/>
</svg>
