<?xml version="1.0" standalone="no"?>
<!DOCTYPE svg PUBLIC "-//W3C//DTD SVG 1.1//EN" "http://www.w3.org/Graphics/SVG/1.1/DTD/svg11.dtd">
<svg width="256mm" height="424mm" viewBox="-128 -644 256 424" xmlns="http://www.w3.org/2000/svg" version="1.1">
<title>OpenSCAD Model</title>
<path d="
M 123.437,-508.589 L 124.045,-508.745 L 124.629,-508.976 L 125.179,-509.278 L 125.687,-509.647 L 126.145,-510.077
 L 126.545,-510.561 L 126.882,-511.091 L 127.149,-511.659 L 127.343,-512.257 L 127.461,-512.873 L 127.5,-513.5
 L 127.5,-638.5 L 127.461,-639.127 L 127.343,-639.743 L 127.149,-640.341 L 126.882,-640.909 L 126.545,-641.439
 L 126.145,-641.923 L 125.687,-642.353 L 125.179,-642.722 L 124.629,-643.024 L 124.045,-643.255 L 123.437,-643.411
 L 122.814,-643.49 L -122.814,-643.49 L -123.437,-643.411 L -124.045,-643.255 L -124.629,-643.024 L -125.179,-642.722
 L -125.687,-642.353 L -126.145,-641.923 L -126.545,-641.439 L -126.882,-640.909 L -127.149,-640.341 L -127.343,-639.743
 L -127.461,-639.127 L -127.5,-638.5 L -127.5,-513.5 L -127.461,-512.873 L -127.343,-512.257 L -127.149,-511.659
 L -126.882,-511.091 L -126.545,-510.561 L -126.145,-510.077 L -125.687,-509.647 L -125.179,-509.278 L -124.629,-508.976
 L -124.045,-508.745 L -123.437,-508.589 L -122.814,-508.51 L 122.814,-508.51 z
M -122.548,-509.009 L -123.14,-509.084 L -123.718,-509.232 L -124.272,-509.452 L -124.795,-509.739 L -125.278,-510.09
 L -125.713,-510.498 L -126.093,-510.958 L -126.412,-511.462 L -126.666,-512.001 L -126.851,-512.569 L -126.963,-513.155
 L -127,-513.75 L -127,-638.25 L -126.963,-638.845 L -126.851,-639.431 L -126.666,-639.999 L -126.412,-640.538
 L -126.093,-641.042 L -125.713,-641.502 L -125.278,-641.91 L -124.795,-642.261 L -124.272,-642.548 L -123.718,-642.768
 L -123.14,-642.916 L -122.548,-642.991 L 122.548,-642.991 L 123.14,-642.916 L 123.718,-642.768 L 124.272,-642.548
 L 124.795,-642.261 L 125.278,-641.91 L 125.713,-641.502 L 126.093,-641.042 L 126.412,-640.538 L 126.666,-639.999
 L 126.851,-639.431 L 126.963,-638.845 L 127,-638.25 L 127,-513.75 L 126.963,-513.155 L 126.851,-512.569
 L 126.666,-512.001 L 126.412,-511.462 L 126.093,-510.958 L 125.713,-510.498 L 125.278,-510.09 L 124.795,-509.739
 L 124.272,-509.452 L 123.718,-509.232 L 123.14,-509.084 L 122.548,-509.009 z
M 123.437,-364.589 L 124.045,-364.745 L 124.629,-364.976 L 125.179,-365.278 L 125.687,-365.647 L 126.145,-366.077
 L 126.545,-366.561 L 126.882,-367.091 L 127.149,-367.659 L 127.343,-368.257 L 127.461,-368.873 L 127.5,-369.5
 L 127.5,-494.5 L 127.461,-495.127 L 127.343,-495.743 L 127.149,-496.341 L 126.882,-496.909 L 126.545,-497.439
 L 126.145,-497.923 L 125.687,-498.353 L 125.179,-498.722 L 124.629,-499.024 L 124.045,-499.255 L 123.437,-499.411
 L 122.814,-499.49 L -122.814,-499.49 L -123.437,-499.411 L -124.045,-499.255 L -124.629,-499.024 L -125.179,-498.722
 L -125.687,-498.353 L -126.145,-497.923 L -126.545,-497.439 L -126.882,-496.909 L -127.149,-496.341 L -127.343,-495.743
 L -127.461,-495.127 L -127.5,-494.5 L -127.5,-369.5 L -127.461,-368.873 L -127.343,-368.257 L -127.149,-367.659
 L -126.882,-367.091 L -126.545,-366.561 L -126.145,-366.077 L -125.687,-365.647 L -125.179,-365.278 L -124.629,-364.976
 L -124.045,-364.745 L -123.437,-364.589 L -122.814,-364.51 L 122.814,-364.51 z
M -122.493,-365.888 L -122.975,-365.949 L -123.446,-366.07 L -123.898,-366.249 L -124.323,-366.483 L -124.716,-366.769
 L -125.071,-367.101 L -125.38,-367.476 L -125.641,-367.886 L -125.848,-368.326 L -125.998,-368.788 L -126.089,-369.265
 L -126.119,-369.75 L -126.119,-494.25 L -126.089,-494.735 L -125.998,-495.212 L -125.848,-495.674 L -125.641,-496.114
 L -125.38,-496.524 L -125.071,-496.899 L -124.716,-497.231 L -124.323,-497.517 L -123.898,-497.751 L -123.446,-497.93
 L -122.975,-498.051 L -122.493,-498.112 L 122.493,-498.112 L 122.975,-498.051 L 123.446,-497.93 L 123.898,-497.751
 L 124.323,-497.517 L 124.716,-497.231 L 125.071,-496.899 L 125.38,-496.524 L 125.641,-496.114 L 125.848,-495.674
 L 125.998,-495.212 L 126.089,-494.735 L 126.119,-494.25 L 126.119,-369.75 L 126.089,-369.265 L 125.998,-368.788
 L 125.848,-368.326 L 125.641,-367.886 L 125.38,-367.476 L 125.071,-367.101 L 124.716,-366.769 L 124.323,-366.483
 L 123.898,-366.249 L 123.446,-366.07 L 122.975,-365.949 L 122.493,-365.888 z
M 123.437,-220.589 L 124.045,-220.745 L 124.629,-220.976 L 125.179,-221.278 L 125.687,-221.647 L 126.145,-222.077
 L 126.545,-222.561 L 126.882,-223.091 L 127.149,-223.659 L 127.343,-224.257 L 127.461,-224.873 L 127.5,-225.5
 L 127.5,-350.5 L 127.461,-351.127 L 127.343,-351.743 L 127.149,-352.341 L 126.882,-352.909 L 126.545,-353.439
 L 126.145,-353.923 L 125.687,-354.353 L 125.179,-354.722 L 124.629,-355.024 L 124.045,-355.255 L 123.437,-355.411
 L 122.814,-355.49 L -122.814,-355.49 L -123.437,-355.411 L -124.045,-355.255 L -124.629,-355.024 L -125.179,-354.722
 L -125.687,-354.353 L -126.145,-353.923 L -126.545,-353.439 L -126.882,-352.909 L -127.149,-352.341 L -127.343,-351.743
 L -127.461,-351.127 L -127.5,-350.5 L -127.5,-225.5 L -127.461,-224.873 L -127.343,-224.257 L -127.149,-223.659
 L -126.882,-223.091 L -126.545,-222.561 L -126.145,-222.077 L -125.687,-221.647 L -125.179,-221.278 L -124.629,-220.976
 L -124.045,-220.745 L -123.437,-220.589 L -122.814,-220.51 L 122.814,-220.51 z
M -120.113,-346.204 L -120.337,-346.232 L -120.556,-346.288 L -120.766,-346.371 L -120.964,-346.48 L -121.147,-346.613
 L -121.312,-346.768 L -121.456,-346.942 L -121.577,-347.133 L -121.674,-347.337 L -121.743,-347.552 L -121.786,-347.774
 L -121.8,-348 L -121.786,-348.226 L -121.743,-348.448 L -121.674,-348.663 L -121.577,-348.867 L -121.456,-349.058
 L -121.312,-349.232 L -121.147,-349.387 L -120.964,-349.52 L -120.766,-349.629 L -120.556,-349.712 L -120.337,-349.768
 L -120.113,-349.796 L -119.887,-349.796 L -119.663,-349.768 L -119.444,-349.712 L -119.234,-349.629 L -119.036,-349.52
 L -118.853,-349.387 L -118.688,-349.232 L -118.544,-349.058 L -118.423,-348.867 L -118.326,-348.663 L -118.257,-348.448
 L -118.214,-348.226 L -118.2,-348 L -118.214,-347.774 L -118.257,-347.552 L -118.326,-347.337 L -118.423,-347.133
 L -118.544,-346.942 L -118.688,-346.768 L -118.853,-346.613 L -119.036,-346.48 L -119.234,-346.371 L -119.444,-346.288
 L -119.663,-346.232 L -119.887,-346.204 z
M 119.887,-346.204 L 119.663,-346.232 L 119.444,-346.288 L 119.234,-346.371 L 119.036,-346.48 L 118.853,-346.613
 L 118.688,-346.768 L 118.544,-346.942 L 118.423,-347.133 L 118.326,-347.337 L 118.257,-347.552 L 118.214,-347.774
 L 118.2,-348 L 118.214,-348.226 L 118.257,-348.448 L 118.326,-348.663 L 118.423,-348.867 L 118.544,-349.058
 L 118.688,-349.232 L 118.853,-349.387 L 119.036,-349.52 L 119.234,-349.629 L 119.444,-349.712 L 119.663,-349.768
 L 119.887,-349.796 L 120.113,-349.796 L 120.337,-349.768 L 120.556,-349.712 L 120.766,-349.629 L 120.964,-349.52
 L 121.147,-349.387 L 121.312,-349.232 L 121.456,-349.058 L 121.577,-348.867 L 121.674,-348.663 L 121.743,-348.448
 L 121.786,-348.226 L 121.8,-348 L 121.786,-347.774 L 121.743,-347.552 L 121.674,-347.337 L 121.577,-347.133
 L 121.456,-346.942 L 121.312,-346.768 L 121.147,-346.613 L 120.964,-346.48 L 120.766,-346.371 L 120.556,-346.288
 L 120.337,-346.232 L 120.113,-346.204 z
M -120.113,-226.204 L -120.337,-226.232 L -120.556,-226.288 L -120.766,-226.371 L -120.964,-226.48 L -121.147,-226.613
 L -121.312,-226.768 L -121.456,-226.942 L -121.577,-227.133 L -121.674,-227.337 L -121.743,-227.552 L -121.786,-227.774
 L -121.8,-228 L -121.786,-228.226 L -121.743,-228.448 L -121.674,-228.663 L -121.577,-228.867 L -121.456,-229.058
 L -121.312,-229.232 L -121.147,-229.387 L -120.964,-229.52 L -120.766,-229.629 L -120.556,-229.712 L -120.337,-229.768
 L -120.113,-229.796 L -119.887,-229.796 L -119.663,-229.768 L -119.444,-229.712 L -119.234,-229.629 L -119.036,-229.52
 L -118.853,-229.387 L -118.688,-229.232 L -118.544,-229.058 L -118.423,-228.867 L -118.326,-228.663 L -118.257,-228.448
 L -118.214,-228.226 L -118.2,-228 L -118.214,-227.774 L -118.257,-227.552 L -118.326,-227.337 L -118.423,-227.133
 L -118.544,-226.942 L -118.688,-226.768 L -118.853,-226.613 L -119.036,-226.48 L -119.234,-226.371 L -119.444,-226.288
 L -119.663,-226.232 L -119.887,-226.204 z
M 119.887,-226.204 L 119.663,-226.232 L 119.444,-226.288 L 119.234,-226.371 L 119.036,-226.48 L 118.853,-226.613
 L 118.688,-226.768 L 118.544,-226.942 L 118.423,-227.133 L 118.326,-227.337 L 118.257,-227.552 L 118.214,-227.774
 L 118.2,-228 L 118.214,-228.226 L 118.257,-228.448 L 118.326,-228.663 L 118.423,-228.867 L 118.544,-229.058
 L 118.688,-229.232 L 118.853,-229.387 L 119.036,-229.52 L 119.234,-229.629 L 119.444,-229.712 L 119.663,-229.768
 L 119.887,-229.796 L 120.113,-229.796 L 120.337,-229.768 L 120.556,-229.712 L 120.766,-229.629 L 120.964,-229.52
 L 121.147,-229.387 L 121.312,-229.232 L 121.456,-229.058 L 121.577,-228.867 L 121.674,-228.663 L 121.743,-228.448
 L 121.786,-228.226 L 121.8,-228 L 121.786,-227.774 L 121.743,-227.552 L 121.674,-227.337 L 121.577,-227.133
 L 121.456,-226.942 L 121.312,-226.768 L 121.147,-226.613 L 120.964,-226.48 L 120.766,-226.371 L 120.556,-226.288
 L 120.337,-226.232 L 120.113,-226.204 z
" stroke="black" fill="lightgray" stroke-width="0.5"/>
</svg>
