<?xml version="1.0" standalone="no"?>
<!DOCTYPE svg PUBLIC "-//W3C//DTD SVG 1.1//EN" "http://www.w3.org/Graphics/SVG/1.1/DTD/svg11.dtd">
<svg width="302mm" height="88mm" viewBox="-152 -152 302 88" xmlns="http://www.w3.org/2000/svg" version="1.1">
<title>OpenSCAD Model</title>
<path d="
M -148.5,-137.941 L -148.187,-137.647 L -147.679,-137.278 L -147.129,-136.976 L -146.545,-136.745 L -145.937,-136.589
 L -145.314,-136.51 L 145.314,-136.51 L 145.937,-136.589 L 146.545,-136.745 L 147.129,-136.976 L 147.679,-137.278
 L 148.187,-137.647 L 148.645,-138.077 L 149.045,-138.561 L 149.382,-139.091 L 149.649,-139.659 L 149.843,-140.257
 L 149.961,-140.873 L 150,-141.5 L 150,-146.5 L 149.961,-147.127 L 149.843,-147.743 L 149.649,-148.341
 L 149.382,-148.909 L 149.045,-149.439 L 148.645,-149.923 L 148.187,-150.353 L 147.679,-150.722 L 147.129,-151.024
 L 146.545,-151.255 L 145.937,-151.411 L 145.314,-151.49 L -145.314,-151.49 L -145.937,-151.411 L -146.545,-151.255
 L -147.129,-151.024 L -147.679,-150.722 L -148.187,-150.353 L -148.5,-150.059 L -148.5,-151.49 L -151.5,-151.49
 L -151.5,-136.51 L -148.5,-136.51 z
M -144.751,-138.008 L -145.25,-138.071 L -145.736,-138.196 L -146.203,-138.381 L -146.643,-138.623 L -147.05,-138.918
 L -147.416,-139.262 L -147.736,-139.649 L -148.005,-140.073 L -148.219,-140.528 L -148.374,-141.005 L -148.468,-141.499
 L -148.5,-142 L -148.5,-146 L -148.468,-146.501 L -148.374,-146.995 L -148.219,-147.472 L -148.005,-147.927
 L -147.736,-148.351 L -147.416,-148.738 L -147.05,-149.082 L -146.643,-149.377 L -146.203,-149.619 L -145.736,-149.804
 L -145.25,-149.929 L -144.751,-149.992 L 144.751,-149.992 L 145.25,-149.929 L 145.736,-149.804 L 146.203,-149.619
 L 146.643,-149.377 L 147.05,-149.082 L 147.416,-148.738 L 147.736,-148.351 L 148.005,-147.927 L 148.219,-147.472
 L 148.374,-146.995 L 148.468,-146.501 L 148.5,-146 L 148.5,-142 L 148.468,-141.499 L 148.374,-141.005
 L 148.219,-140.528 L 148.005,-140.073 L 147.736,-139.649 L 147.416,-139.262 L 147.05,-138.918 L 146.643,-138.623
 L 146.203,-138.381 L 145.736,-138.196 L 145.25,-138.071 L 144.751,-138.008 z
M -148.5,-113.941 L -148.187,-113.647 L -147.679,-113.278 L -147.129,-112.976 L -146.545,-112.745 L -145.937,-112.589
 L -145.314,-112.51 L 145.314,-112.51 L 145.937,-112.589 L 146.545,-112.745 L 147.129,-112.976 L 147.679,-113.278
 L 148.187,-113.647 L 148.645,-114.077 L 149.045,-114.561 L 149.382,-115.091 L 149.649,-115.659 L 149.843,-116.257
 L 149.961,-116.873 L 150,-117.5 L 150,-122.5 L 149.961,-123.127 L 149.843,-123.743 L 149.649,-124.341
 L 149.382,-124.909 L 149.045,-125.439 L 148.645,-125.923 L 148.187,-126.353 L 147.679,-126.722 L 147.129,-127.024
 L 146.545,-127.255 L 145.937,-127.411 L 145.314,-127.49 L -145.314,-127.49 L -145.937,-127.411 L -146.545,-127.255
 L -147.129,-127.024 L -147.679,-126.722 L -148.187,-126.353 L -148.5,-126.059 L -148.5,-127.49 L -151.5,-127.49
 L -151.5,-112.51 L -148.5,-112.51 z
M -144.743,-114.135 L -145.226,-114.196 L -145.697,-114.317 L -146.149,-114.496 L -146.575,-114.73 L -146.969,-115.016
 L -147.323,-115.349 L -147.633,-115.724 L -147.894,-116.134 L -148.101,-116.574 L -148.251,-117.037 L -148.342,-117.515
 L -148.373,-118 L -148.373,-122 L -148.342,-122.485 L -148.251,-122.963 L -148.101,-123.426 L -147.894,-123.866
 L -147.633,-124.276 L -147.323,-124.651 L -146.969,-124.984 L -146.575,-125.27 L -146.149,-125.504 L -145.697,-125.683
 L -145.226,-125.804 L -144.743,-125.865 L 144.743,-125.865 L 145.226,-125.804 L 145.697,-125.683 L 146.149,-125.504
 L 146.575,-125.27 L 146.969,-124.984 L 147.323,-124.651 L 147.633,-124.276 L 147.894,-123.866 L 148.101,-123.426
 L 148.251,-122.963 L 148.342,-122.485 L 148.373,-122 L 148.373,-118 L 148.342,-117.515 L 148.251,-117.037
 L 148.101,-116.574 L 147.894,-116.134 L 147.633,-115.724 L 147.323,-115.349 L 146.969,-115.016 L 146.575,-114.73
 L 146.149,-114.496 L 145.697,-114.317 L 145.226,-114.196 L 144.743,-114.135 z
M 145.937,-88.5886 L 146.545,-88.7447 L 147.129,-88.9759 L 147.679,-89.2784 L 148.187,-89.6474 L 148.645,-90.0773
 L 149.045,-90.5611 L 149.382,-91.0912 L 149.649,-91.6594 L 149.843,-92.2566 L 149.961,-92.8733 L 150,-93.5
 L 150,-98.5 L 149.961,-99.1267 L 149.843,-99.7434 L 149.649,-100.341 L 149.382,-100.909 L 149.045,-101.439
 L 148.645,-101.923 L 148.187,-102.353 L 147.679,-102.722 L 147.129,-103.024 L 146.545,-103.255 L 145.937,-103.411
 L 145.314,-103.49 L -145.314,-103.49 L -145.937,-103.411 L -146.545,-103.255 L -147.129,-103.024 L -147.679,-102.722
 L -148.187,-102.353 L -148.5,-102.059 L -148.5,-103.115 L -151.5,-103.115 L -151.5,-88.8852 L -148.5,-88.8852
 L -148.5,-89.9413 L -148.187,-89.6474 L -147.679,-89.2784 L -147.129,-88.9759 L -146.545,-88.7447 L -145.937,-88.5886
 L -145.314,-88.5099 L 145.314,-88.5099 z
M 142.349,-93.6047 L 142.05,-93.6425 L 141.758,-93.7175 L 141.478,-93.8284 L 141.214,-93.9736 L 140.97,-94.1508
 L 140.75,-94.3571 L 140.558,-94.5893 L 140.397,-94.8438 L 140.269,-95.1165 L 140.175,-95.4032 L 140.119,-95.6992
 L 140.1,-96 L 140.119,-96.3008 L 140.175,-96.5968 L 140.269,-96.8835 L 140.397,-97.1562 L 140.558,-97.4107
 L 140.75,-97.6429 L 140.97,-97.8492 L 141.214,-98.0264 L 141.478,-98.1716 L 141.758,-98.2825 L 142.05,-98.3575
 L 142.349,-98.3953 L 142.651,-98.3953 L 142.95,-98.3575 L 143.242,-98.2825 L 143.522,-98.1716 L 143.786,-98.0264
 L 144.03,-97.8492 L 144.25,-97.6429 L 144.442,-97.4107 L 144.603,-97.1562 L 144.731,-96.8835 L 144.825,-96.5968
 L 144.881,-96.3008 L 144.9,-96 L 144.881,-95.6992 L 144.825,-95.4032 L 144.731,-95.1165 L 144.603,-94.8438
 L 144.442,-94.5893 L 144.25,-94.3571 L 144.03,-94.1508 L 143.786,-93.9736 L 143.522,-93.8284 L 143.242,-93.7175
 L 142.95,-93.6425 L 142.651,-93.6047 z
M -142.651,-93.6047 L -142.95,-93.6425 L -143.242,-93.7175 L -143.522,-93.8284 L -143.786,-93.9736 L -144.03,-94.1508
 L -144.25,-94.3571 L -144.442,-94.5893 L -144.603,-94.8438 L -144.731,-95.1165 L -144.825,-95.4032 L -144.881,-95.6992
 L -144.9,-96 L -144.881,-96.3008 L -144.825,-96.5968 L -144.731,-96.8835 L -144.603,-97.1562 L -144.442,-97.4107
 L -144.25,-97.6429 L -144.03,-97.8492 L -143.786,-98.0264 L -143.522,-98.1716 L -143.242,-98.2825 L -142.95,-98.3575
 L -142.651,-98.3953 L -142.349,-98.3953 L -142.05,-98.3575 L -141.758,-98.2825 L -141.478,-98.1716 L -141.214,-98.0264
 L -140.97,-97.8492 L -140.75,-97.6429 L -140.558,-97.4107 L -140.397,-97.1562 L -140.269,-96.8835 L -140.175,-96.5968
 L -140.119,-96.3008 L -140.1,-96 L -140.119,-95.6992 L -140.175,-95.4032 L -140.269,-95.1165 L -140.397,-94.8438
 L -140.558,-94.5893 L -140.75,-94.3571 L -140.97,-94.1508 L -141.214,-93.9736 L -141.478,-93.8284 L -141.758,-93.7175
 L -142.05,-93.6425 L -142.349,-93.6047 z
M 145.937,-64.5886 L 146.545,-64.7447 L 147.129,-64.9759 L 147.679,-65.2784 L 148.187,-65.6474 L 148.645,-66.0773
 L 149.045,-66.5611 L 149.382,-67.0912 L 149.649,-67.6594 L 149.843,-68.2566 L 149.961,-68.8733 L 150,-69.5
 L 150,-74.5 L 149.961,-75.1267 L 149.843,-75.7434 L 149.649,-76.3406 L 149.382,-76.9088 L 149.045,-77.4389
 L 148.645,-77.9227 L 148.187,-78.3526 L 147.679,-78.7216 L 147.129,-79.0241 L 146.545,-79.2553 L 145.937,-79.4114
 L 145.314,-79.4901 L -145.314,-79.4901 L -145.937,-79.4114 L -146.545,-79.2553 L -147.129,-79.0241 L -147.679,-78.7216
 L -148.187,-78.3526 L -148.645,-77.9227 L -149.045,-77.4389 L -149.382,-76.9088 L -149.649,-76.3406 L -149.843,-75.7434
 L -149.9,-75.4442 L -151.5,-75.4442 L -151.5,-68.5558 L -149.9,-68.5558 L -149.843,-68.2566 L -149.649,-67.6594
 L -149.382,-67.0912 L -149.045,-66.5611 L -148.645,-66.0773 L -148.187,-65.6474 L -147.679,-65.2784 L -147.129,-64.9759
 L -146.545,-64.7447 L -145.937,-64.5886 L -145.314,-64.5099 L 145.314,-64.5099 z
M -142.613,-70.2036 L -142.837,-70.2319 L -143.056,-70.2881 L -143.266,-70.3713 L -143.464,-70.4802 L -143.647,-70.6131
 L -143.812,-70.7678 L -143.956,-70.942 L -144.077,-71.1329 L -144.174,-71.3374 L -144.243,-71.5524 L -144.286,-71.7744
 L -144.3,-72 L -144.286,-72.2256 L -144.243,-72.4476 L -144.174,-72.6626 L -144.077,-72.8671 L -143.956,-73.058
 L -143.812,-73.2322 L -143.647,-73.3869 L -143.464,-73.5198 L -143.266,-73.6287 L -143.056,-73.7119 L -142.837,-73.7681
 L -142.613,-73.7964 L -142.387,-73.7964 L -142.163,-73.7681 L -141.944,-73.7119 L -141.734,-73.6287 L -141.536,-73.5198
 L -141.353,-73.3869 L -141.188,-73.2322 L -141.044,-73.058 L -140.923,-72.8671 L -140.826,-72.6626 L -140.757,-72.4476
 L -140.714,-72.2256 L -140.7,-72 L -140.714,-71.7744 L -140.757,-71.5524 L -140.826,-71.3374 L -140.923,-71.1329
 L -141.044,-70.942 L -141.188,-70.7678 L -141.353,-70.6131 L -141.536,-70.4802 L -141.734,-70.3713 L -141.944,-70.2881
 L -142.163,-70.2319 L -142.387,-70.2036 z
M 142.387,-70.2036 L 142.163,-70.2319 L 141.944,-70.2881 L 141.734,-70.3713 L 141.536,-70.4802 L 141.353,-70.6131
 L 141.188,-70.7678 L 141.044,-70.942 L 140.923,-71.1329 L 140.826,-71.3374 L 140.757,-71.5524 L 140.714,-71.7744
 L 140.7,-72 L 140.714,-72.2256 L 140.757,-72.4476 L 140.826,-72.6626 L 140.923,-72.8671 L 141.044,-73.058
 L 141.188,-73.2322 L 141.353,-73.3869 L 141.536,-73.5198 L 141.734,-73.6287 L 141.944,-73.7119 L 142.163,-73.7681
 L 142.387,-73.7964 L 142.613,-73.7964 L 142.837,-73.7681 L 143.056,-73.7119 L 143.266,-73.6287 L 143.464,-73.5198
 L 143.647,-73.3869 L 143.812,-73.2322 L 143.956,-73.058 L 144.077,-72.8671 L 144.174,-72.6626 L 144.243,-72.4476
 L 144.286,-72.2256 L 144.3,-72 L 144.286,-71.7744 L 144.243,-71.5524 L 144.174,-71.3374 L 144.077,-71.1329
 L 143.956,-70.942 L 143.812,-70.7678 L 143.647,-70.6131 L 143.464,-70.4802 L 143.266,-70.3713 L 143.056,-70.2881
 L 142.837,-70.2319 L 142.613,-70.2036 z
" stroke="black" fill="lightgray" stroke-width="0.5"/>
</svg>
