<?xml version="1.0" standalone="no"?>
<!DOCTYPE svg PUBLIC "-//W3C//DTD SVG 1.1//EN" "http://www.w3.org/Graphics/SVG/1.1/DTD/svg11.dtd">
<svg width="257mm" height="468mm" viewBox="-129 -870 257 468" xmlns="http://www.w3.org/2000/svg" version="1.1">
<title>OpenSCAD Model</title>
<path d="
M -126,-721.441 L -125.687,-721.147 L -125.179,-720.778 L -124.629,-720.476 L -124.045,-720.245 L -123.437,-720.089
 L -122.814,-720.01 L 122.814,-720.01 L 123.437,-720.089 L 124.045,-720.245 L 124.629,-720.476 L 125.179,-720.778
 L 125.687,-721.147 L 126.145,-721.577 L 126.545,-722.061 L 126.882,-722.591 L 127.149,-723.159 L 127.343,-723.757
 L 127.461,-724.373 L 127.5,-725 L 127.5,-865 L 127.461,-865.627 L 127.343,-866.243 L 127.149,-866.841
 L 126.882,-867.409 L 126.545,-867.939 L 126.145,-868.423 L 125.687,-868.853 L 125.179,-869.222 L 124.629,-869.524
 L 124.045,-869.755 L 123.437,-869.911 L 122.814,-869.99 L -122.814,-869.99 L -123.437,-869.911 L -124.045,-869.755
 L -124.629,-869.524 L -125.179,-869.222 L -125.687,-868.853 L -126,-868.559 L -126,-869.99 L -129,-869.99
 L -129,-720.01 L -126,-720.01 z
M -122.251,-721.508 L -122.75,-721.571 L -123.236,-721.696 L -123.703,-721.881 L -124.143,-722.123 L -124.55,-722.418
 L -124.916,-722.762 L -125.236,-723.149 L -125.505,-723.573 L -125.719,-724.028 L -125.874,-724.505 L -125.968,-724.999
 L -126,-725.5 L -126,-864.5 L -125.968,-865.001 L -125.874,-865.495 L -125.719,-865.972 L -125.505,-866.427
 L -125.236,-866.851 L -124.916,-867.238 L -124.55,-867.582 L -124.143,-867.877 L -123.703,-868.119 L -123.236,-868.304
 L -122.75,-868.429 L -122.251,-868.492 L 122.251,-868.492 L 122.75,-868.429 L 123.236,-868.304 L 123.703,-868.119
 L 124.143,-867.877 L 124.55,-867.582 L 124.916,-867.238 L 125.236,-866.851 L 125.505,-866.427 L 125.719,-865.972
 L 125.874,-865.495 L 125.968,-865.001 L 126,-864.5 L 126,-725.5 L 125.968,-724.999 L 125.874,-724.505
 L 125.719,-724.028 L 125.505,-723.573 L 125.236,-723.149 L 124.916,-722.762 L 124.55,-722.418 L 124.143,-722.123
 L 123.703,-721.881 L 123.236,-721.696 L 122.75,-721.571 L 122.251,-721.508 z
M 123.437,-561.089 L 124.045,-561.245 L 124.629,-561.476 L 125.179,-561.778 L 125.687,-562.147 L 126.145,-562.577
 L 126.545,-563.061 L 126.882,-563.591 L 127.149,-564.159 L 127.343,-564.757 L 127.461,-565.373 L 127.5,-566
 L 127.5,-706 L 127.461,-706.627 L 127.343,-707.243 L 127.149,-707.841 L 126.882,-708.409 L 126.545,-708.939
 L 126.145,-709.423 L 125.687,-709.853 L 125.179,-710.222 L 124.629,-710.524 L 124.045,-710.755 L 123.437,-710.911
 L 122.814,-710.99 L -122.814,-710.99 L -123.437,-710.911 L -124.045,-710.755 L -124.629,-710.524 L -125.179,-710.222
 L -125.687,-709.853 L -126,-709.559 L -126,-710.979 L -129,-710.979 L -129,-561.021 L -126,-561.021
 L -126,-562.441 L -125.687,-562.147 L -125.179,-561.778 L -124.629,-561.476 L -124.045,-561.245 L -123.437,-561.089
 L -122.814,-561.01 L 122.814,-561.01 z
M -122.195,-563.393 L -122.583,-563.442 L -122.962,-563.539 L -123.325,-563.683 L -123.668,-563.872 L -123.984,-564.101
 L -124.269,-564.369 L -124.518,-564.67 L -124.728,-565 L -124.894,-565.354 L -125.015,-565.726 L -125.088,-566.11
 L -125.113,-566.5 L -125.113,-705.5 L -125.088,-705.89 L -125.015,-706.274 L -124.894,-706.646 L -124.728,-707
 L -124.518,-707.33 L -124.269,-707.631 L -123.984,-707.899 L -123.668,-708.128 L -123.325,-708.317 L -122.962,-708.461
 L -122.583,-708.558 L -122.195,-708.607 L 122.195,-708.607 L 122.583,-708.558 L 122.962,-708.461 L 123.325,-708.317
 L 123.668,-708.128 L 123.984,-707.899 L 124.269,-707.631 L 124.518,-707.33 L 124.728,-707 L 124.894,-706.646
 L 125.015,-706.274 L 125.088,-705.89 L 125.113,-705.5 L 125.113,-566.5 L 125.088,-566.11 L 125.015,-565.726
 L 124.894,-565.354 L 124.728,-565 L 124.518,-564.67 L 124.269,-564.369 L 123.984,-564.101 L 123.668,-563.872
 L 123.325,-563.683 L 122.962,-563.539 L 122.583,-563.442 L 122.195,-563.393 z
M 123.437,-402.089 L 124.045,-402.245 L 124.629,-402.476 L 125.179,-402.778 L 125.687,-403.147 L 126.145,-403.577
 L 126.545,-404.061 L 126.882,-404.591 L 127.149,-405.159 L 127.343,-405.757 L 127.461,-406.373 L 127.5,-407
 L 127.5,-547 L 127.461,-547.627 L 127.343,-548.243 L 127.149,-548.841 L 126.882,-549.409 L 126.545,-549.939
 L 126.145,-550.423 L 125.687,-550.853 L 125.179,-551.222 L 124.629,-551.524 L 124.045,-551.755 L 123.437,-551.911
 L 122.814,-551.99 L -122.814,-551.99 L -123.437,-551.911 L -124.045,-551.755 L -124.629,-551.524 L -125.179,-551.222
 L -125.687,-550.853 L -126,-550.559 L -126,-550.653 L -129,-550.653 L -129,-403.347 L -126,-403.347
 L -126,-403.441 L -125.687,-403.147 L -125.179,-402.778 L -124.629,-402.476 L -124.045,-402.245 L -123.437,-402.089
 L -122.814,-402.01 L 122.814,-402.01 z
M 119.866,-542.369 L 119.6,-542.403 L 119.34,-542.469 L 119.091,-542.568 L 118.856,-542.697 L 118.639,-542.855
 L 118.443,-543.038 L 118.273,-543.245 L 118.129,-543.471 L 118.015,-543.714 L 117.932,-543.969 L 117.882,-544.232
 L 117.865,-544.5 L 117.882,-544.768 L 117.932,-545.031 L 118.015,-545.286 L 118.129,-545.529 L 118.273,-545.755
 L 118.443,-545.962 L 118.639,-546.145 L 118.856,-546.303 L 119.091,-546.432 L 119.34,-546.531 L 119.6,-546.597
 L 119.866,-546.631 L 120.134,-546.631 L 120.4,-546.597 L 120.66,-546.531 L 120.909,-546.432 L 121.144,-546.303
 L 121.361,-546.145 L 121.557,-545.962 L 121.727,-545.755 L 121.871,-545.529 L 121.985,-545.286 L 122.068,-545.031
 L 122.118,-544.768 L 122.135,-544.5 L 122.118,-544.232 L 122.068,-543.969 L 121.985,-543.714 L 121.871,-543.471
 L 121.727,-543.245 L 121.557,-543.038 L 121.361,-542.855 L 121.144,-542.697 L 120.909,-542.568 L 120.66,-542.469
 L 120.4,-542.403 L 120.134,-542.369 z
M -120.134,-542.369 L -120.4,-542.403 L -120.66,-542.469 L -120.909,-542.568 L -121.144,-542.697 L -121.361,-542.855
 L -121.557,-543.038 L -121.727,-543.245 L -121.871,-543.471 L -121.985,-543.714 L -122.068,-543.969 L -122.118,-544.232
 L -122.135,-544.5 L -122.118,-544.768 L -122.068,-545.031 L -121.985,-545.286 L -121.871,-545.529 L -121.727,-545.755
 L -121.557,-545.962 L -121.361,-546.145 L -121.144,-546.303 L -120.909,-546.432 L -120.66,-546.531 L -120.4,-546.597
 L -120.134,-546.631 L -119.866,-546.631 L -119.6,-546.597 L -119.34,-546.531 L -119.091,-546.432 L -118.856,-546.303
 L -118.639,-546.145 L -118.443,-545.962 L -118.273,-545.755 L -118.129,-545.529 L -118.015,-545.286 L -117.932,-545.031
 L -117.882,-544.768 L -117.865,-544.5 L -117.882,-544.232 L -117.932,-543.969 L -118.015,-543.714 L -118.129,-543.471
 L -118.273,-543.245 L -118.443,-543.038 L -118.639,-542.855 L -118.856,-542.697 L -119.091,-542.568 L -119.34,-542.469
 L -119.6,-542.403 L -119.866,-542.369 z
M 119.866,-407.369 L 119.6,-407.403 L 119.34,-407.469 L 119.091,-407.568 L 118.856,-407.697 L 118.639,-407.855
 L 118.443,-408.038 L 118.273,-408.245 L 118.129,-408.471 L 118.015,-408.714 L 117.932,-408.969 L 117.882,-409.232
 L 117.865,-409.5 L 117.882,-409.768 L 117.932,-410.031 L 118.015,-410.286 L 118.129,-410.529 L 118.273,-410.755
 L 118.443,-410.962 L 118.639,-411.145 L 118.856,-411.303 L 119.091,-411.432 L 119.34,-411.531 L 119.6,-411.597
 L 119.866,-411.631 L 120.134,-411.631 L 120.4,-411.597 L 120.66,-411.531 L 120.909,-411.432 L 121.144,-411.303
 L 121.361,-411.145 L 121.557,-410.962 L 121.727,-410.755 L 121.871,-410.529 L 121.985,-410.286 L 122.068,-410.031
 L 122.118,-409.768 L 122.135,-409.5 L 122.118,-409.232 L 122.068,-408.969 L 121.985,-408.714 L 121.871,-408.471
 L 121.727,-408.245 L 121.557,-408.038 L 121.361,-407.855 L 121.144,-407.697 L 120.909,-407.568 L 120.66,-407.469
 L 120.4,-407.403 L 120.134,-407.369 z
M -120.134,-407.369 L -120.4,-407.403 L -120.66,-407.469 L -120.909,-407.568 L -121.144,-407.697 L -121.361,-407.855
 L -121.557,-408.038 L -121.727,-408.245 L -121.871,-408.471 L -121.985,-408.714 L -122.068,-408.969 L -122.118,-409.232
 L -122.135,-409.5 L -122.118,-409.768 L -122.068,-410.031 L -121.985,-410.286 L -121.871,-410.529 L -121.727,-410.755
 L -121.557,-410.962 L -121.361,-411.145 L -121.144,-411.303 L -120.909,-411.432 L -120.66,-411.531 L -120.4,-411.597
 L -120.134,-411.631 L -119.866,-411.631 L -119.6,-411.597 L -119.34,-411.531 L -119.091,-411.432 L -118.856,-411.303
 L -118.639,-411.145 L -118.443,-410.962 L -118.273,-410.755 L -118.129,-410.529 L -118.015,-410.286 L -117.932,-410.031
 L -117.882,-409.768 L -117.865,-409.5 L -117.882,-409.232 L -117.932,-408.969 L -118.015,-408.714 L -118.129,-408.471
 L -118.273,-408.245 L -118.443,-408.038 L -118.639,-407.855 L -118.856,-407.697 L -119.091,-407.568 L -119.34,-407.469
 L -119.6,-407.403 L -119.866,-407.369 z
" stroke="black" fill="lightgray" stroke-width="0.5"/>
</svg>
