  0
SECTION
  2
BLOCKS
  0
ENDSEC
  0
SECTION
  2
ENTITIES
  0
LINE
  8
0
 10
115.937
 20
351.089
 11
116.545
 21
351.245
  0
LINE
  8
0
 10
116.545
 20
351.245
 11
117.129
 21
351.476
  0
LINE
  8
0
 10
117.129
 20
351.476
 11
117.679
 21
351.778
  0
LINE
  8
0
 10
117.679
 20
351.778
 11
118.187
 21
352.147
  0
LINE
  8
0
 10
118.187
 20
352.147
 11
118.645
 21
352.577
  0
LINE
  8
0
 10
118.645
 20
352.577
 11
119.045
 21
353.061
  0
LINE
  8
0
 10
119.045
 20
353.061
 11
119.382
 21
353.591
  0
LINE
  8
0
 10
119.382
 20
353.591
 11
119.649
 21
354.159
  0
LINE
  8
0
 10
119.649
 20
354.159
 11
119.843
 21
354.757
  0
LINE
  8
0
 10
119.843
 20
354.757
 11
119.961
 21
355.373
  0
LINE
  8
0
 10
119.961
 20
355.373
 11
120
 21
356
  0
LINE
  8
0
 10
120
 20
356
 11
120
 21
436
  0
LINE
  8
0
 10
120
 20
436
 11
119.961
 21
436.627
  0
LINE
  8
0
 10
119.961
 20
436.627
 11
119.843
 21
437.243
  0
LINE
  8
0
 10
119.843
 20
437.243
 11
119.649
 21
437.841
  0
LINE
  8
0
 10
119.649
 20
437.841
 11
119.382
 21
438.409
  0
LINE
  8
0
 10
119.382
 20
438.409
 11
119.045
 21
438.939
  0
LINE
  8
0
 10
119.045
 20
438.939
 11
118.645
 21
439.423
  0
LINE
  8
0
 10
118.645
 20
439.423
 11
118.187
 21
439.853
  0
LINE
  8
0
 10
118.187
 20
439.853
 11
117.679
 21
440.222
  0
LINE
  8
0
 10
117.679
 20
440.222
 11
117.129
 21
440.524
  0
LINE
  8
0
 10
117.129
 20
440.524
 11
116.545
 21
440.755
  0
LINE
  8
0
 10
116.545
 20
440.755
 11
115.937
 21
440.911
  0
LINE
  8
0
 10
115.937
 20
440.911
 11
115.314
 21
440.99
  0
LINE
  8
0
 10
115.314
 20
440.99
 11
-115.314
 21
440.99
  0
LINE
  8
0
 10
-115.314
 20
440.99
 11
-115.937
 21
440.911
  0
LINE
  8
0
 10
-115.937
 20
440.911
 11
-116.545
 21
440.755
  0
LINE
  8
0
 10
-116.545
 20
440.755
 11
-117.129
 21
440.524
  0
LINE
  8
0
 10
-117.129
 20
440.524
 11
-117.679
 21
440.222
  0
LINE
  8
0
 10
-117.679
 20
440.222
 11
-118.187
 21
439.853
  0
LINE
  8
0
 10
-118.187
 20
439.853
 11
-118.645
 21
439.423
  0
LINE
  8
0
 10
-118.645
 20
439.423
 11
-119.045
 21
438.939
  0
LINE
  8
0
 10
-119.045
 20
438.939
 11
-119.382
 21
438.409
  0
LINE
  8
0
 10
-119.382
 20
438.409
 11
-119.649
 21
437.841
  0
LINE
  8
0
 10
-119.649
 20
437.841
 11
-119.843
 21
437.243
  0
LINE
  8
0
 10
-119.843
 20
437.243
 11
-119.961
 21
436.627
  0
LINE
  8
0
 10
-119.961
 20
436.627
 11
-120
 21
436
  0
LINE
  8
0
 10
-120
 20
436
 11
-120
 21
356
  0
LINE
  8
0
 10
-120
 20
356
 11
-119.961
 21
355.373
  0
LINE
  8
0
 10
-119.961
 20
355.373
 11
-119.843
 21
354.757
  0
LINE
  8
0
 10
-119.843
 20
354.757
 11
-119.649
 21
354.159
  0
LINE
  8
0
 10
-119.649
 20
354.159
 11
-119.382
 21
353.591
  0
LINE
  8
0
 10
-119.382
 20
353.591
 11
-119.045
 21
353.061
  0
LINE
  8
0
 10
-119.045
 20
353.061
 11
-118.645
 21
352.577
  0
LINE
  8
0
 10
-118.645
 20
352.577
 11
-118.187
 21
352.147
  0
LINE
  8
0
 10
-118.187
 20
352.147
 11
-117.679
 21
351.778
  0
LINE
  8
0
 10
-117.679
 20
351.778
 11
-117.129
 21
351.476
  0
LINE
  8
0
 10
-117.129
 20
351.476
 11
-116.545
 21
351.245
  0
LINE
  8
0
 10
-116.545
 20
351.245
 11
-115.937
 21
351.089
  0
LINE
  8
0
 10
-115.937
 20
351.089
 11
-115.314
 21
351.01
  0
LINE
  8
0
 10
-115.314
 20
351.01
 11
115.314
 21
351.01
  0
LINE
  8
0
 10
115.314
 20
351.01
 11
115.937
 21
351.089
  0
LINE
  8
0
 10
-115.048
 20
351.509
 11
-115.64
 21
351.584
  0
LINE
  8
0
 10
-115.64
 20
351.584
 11
-116.218
 21
351.732
  0
LINE
  8
0
 10
-116.218
 20
351.732
 11
-116.772
 21
351.952
  0
LINE
  8
0
 10
-116.772
 20
351.952
 11
-117.295
 21
352.239
  0
LINE
  8
0
 10
-117.295
 20
352.239
 11
-117.778
 21
352.59
  0
LINE
  8
0
 10
-117.778
 20
352.59
 11
-118.213
 21
352.998
  0
LINE
  8
0
 10
-118.213
 20
352.998
 11
-118.593
 21
353.458
  0
LINE
  8
0
 10
-118.593
 20
353.458
 11
-118.912
 21
353.962
  0
LINE
  8
0
 10
-118.912
 20
353.962
 11
-119.166
 21
354.501
  0
LINE
  8
0
 10
-119.166
 20
354.501
 11
-119.351
 21
355.069
  0
LINE
  8
0
 10
-119.351
 20
355.069
 11
-119.463
 21
355.655
  0
LINE
  8
0
 10
-119.463
 20
355.655
 11
-119.5
 21
356.25
  0
LINE
  8
0
 10
-119.5
 20
356.25
 11
-119.5
 21
435.75
  0
LINE
  8
0
 10
-119.5
 20
435.75
 11
-119.463
 21
436.345
  0
LINE
  8
0
 10
-119.463
 20
436.345
 11
-119.351
 21
436.931
  0
LINE
  8
0
 10
-119.351
 20
436.931
 11
-119.166
 21
437.499
  0
LINE
  8
0
 10
-119.166
 20
437.499
 11
-118.912
 21
438.038
  0
LINE
  8
0
 10
-118.912
 20
438.038
 11
-118.593
 21
438.542
  0
LINE
  8
0
 10
-118.593
 20
438.542
 11
-118.213
 21
439.002
  0
LINE
  8
0
 10
-118.213
 20
439.002
 11
-117.778
 21
439.41
  0
LINE
  8
0
 10
-117.778
 20
439.41
 11
-117.295
 21
439.761
  0
LINE
  8
0
 10
-117.295
 20
439.761
 11
-116.772
 21
440.048
  0
LINE
  8
0
 10
-116.772
 20
440.048
 11
-116.218
 21
440.268
  0
LINE
  8
0
 10
-116.218
 20
440.268
 11
-115.64
 21
440.416
  0
LINE
  8
0
 10
-115.64
 20
440.416
 11
-115.048
 21
440.491
  0
LINE
  8
0
 10
-115.048
 20
440.491
 11
115.048
 21
440.491
  0
LINE
  8
0
 10
115.048
 20
440.491
 11
115.64
 21
440.416
  0
LINE
  8
0
 10
115.64
 20
440.416
 11
116.218
 21
440.268
  0
LINE
  8
0
 10
116.218
 20
440.268
 11
116.772
 21
440.048
  0
LINE
  8
0
 10
116.772
 20
440.048
 11
117.295
 21
439.761
  0
LINE
  8
0
 10
117.295
 20
439.761
 11
117.778
 21
439.41
  0
LINE
  8
0
 10
117.778
 20
439.41
 11
118.213
 21
439.002
  0
LINE
  8
0
 10
118.213
 20
439.002
 11
118.593
 21
438.542
  0
LINE
  8
0
 10
118.593
 20
438.542
 11
118.912
 21
438.038
  0
LINE
  8
0
 10
118.912
 20
438.038
 11
119.166
 21
437.499
  0
LINE
  8
0
 10
119.166
 20
437.499
 11
119.351
 21
436.931
  0
LINE
  8
0
 10
119.351
 20
436.931
 11
119.463
 21
436.345
  0
LINE
  8
0
 10
119.463
 20
436.345
 11
119.5
 21
435.75
  0
LINE
  8
0
 10
119.5
 20
435.75
 11
119.5
 21
356.25
  0
LINE
  8
0
 10
119.5
 20
356.25
 11
119.463
 21
355.655
  0
LINE
  8
0
 10
119.463
 20
355.655
 11
119.351
 21
355.069
  0
LINE
  8
0
 10
119.351
 20
355.069
 11
119.166
 21
354.501
  0
LINE
  8
0
 10
119.166
 20
354.501
 11
118.912
 21
353.962
  0
LINE
  8
0
 10
118.912
 20
353.962
 11
118.593
 21
353.458
  0
LINE
  8
0
 10
118.593
 20
353.458
 11
118.213
 21
352.998
  0
LINE
  8
0
 10
118.213
 20
352.998
 11
117.778
 21
352.59
  0
LINE
  8
0
 10
117.778
 20
352.59
 11
117.295
 21
352.239
  0
LINE
  8
0
 10
117.295
 20
352.239
 11
116.772
 21
351.952
  0
LINE
  8
0
 10
116.772
 20
351.952
 11
116.218
 21
351.732
  0
LINE
  8
0
 10
116.218
 20
351.732
 11
115.64
 21
351.584
  0
LINE
  8
0
 10
115.64
 20
351.584
 11
115.048
 21
351.509
  0
LINE
  8
0
 10
115.048
 20
351.509
 11
-115.048
 21
351.509
  0
LINE
  8
0
 10
115.937
 20
252.089
 11
116.545
 21
252.245
  0
LINE
  8
0
 10
116.545
 20
252.245
 11
117.129
 21
252.476
  0
LINE
  8
0
 10
117.129
 20
252.476
 11
117.679
 21
252.778
  0
LINE
  8
0
 10
117.679
 20
252.778
 11
118.187
 21
253.147
  0
LINE
  8
0
 10
118.187
 20
253.147
 11
118.645
 21
253.577
  0
LINE
  8
0
 10
118.645
 20
253.577
 11
119.045
 21
254.061
  0
LINE
  8
0
 10
119.045
 20
254.061
 11
119.382
 21
254.591
  0
LINE
  8
0
 10
119.382
 20
254.591
 11
119.649
 21
255.159
  0
LINE
  8
0
 10
119.649
 20
255.159
 11
119.843
 21
255.757
  0
LINE
  8
0
 10
119.843
 20
255.757
 11
119.961
 21
256.373
  0
LINE
  8
0
 10
119.961
 20
256.373
 11
120
 21
257
  0
LINE
  8
0
 10
120
 20
257
 11
120
 21
337
  0
LINE
  8
0
 10
120
 20
337
 11
119.961
 21
337.627
  0
LINE
  8
0
 10
119.961
 20
337.627
 11
119.843
 21
338.243
  0
LINE
  8
0
 10
119.843
 20
338.243
 11
119.649
 21
338.841
  0
LINE
  8
0
 10
119.649
 20
338.841
 11
119.382
 21
339.409
  0
LINE
  8
0
 10
119.382
 20
339.409
 11
119.045
 21
339.939
  0
LINE
  8
0
 10
119.045
 20
339.939
 11
118.645
 21
340.423
  0
LINE
  8
0
 10
118.645
 20
340.423
 11
118.187
 21
340.853
  0
LINE
  8
0
 10
118.187
 20
340.853
 11
117.679
 21
341.222
  0
LINE
  8
0
 10
117.679
 20
341.222
 11
117.129
 21
341.524
  0
LINE
  8
0
 10
117.129
 20
341.524
 11
116.545
 21
341.755
  0
LINE
  8
0
 10
116.545
 20
341.755
 11
115.937
 21
341.911
  0
LINE
  8
0
 10
115.937
 20
341.911
 11
115.314
 21
341.99
  0
LINE
  8
0
 10
115.314
 20
341.99
 11
-115.314
 21
341.99
  0
LINE
  8
0
 10
-115.314
 20
341.99
 11
-115.937
 21
341.911
  0
LINE
  8
0
 10
-115.937
 20
341.911
 11
-116.545
 21
341.755
  0
LINE
  8
0
 10
-116.545
 20
341.755
 11
-117.129
 21
341.524
  0
LINE
  8
0
 10
-117.129
 20
341.524
 11
-117.679
 21
341.222
  0
LINE
  8
0
 10
-117.679
 20
341.222
 11
-118.187
 21
340.853
  0
LINE
  8
0
 10
-118.187
 20
340.853
 11
-118.645
 21
340.423
  0
LINE
  8
0
 10
-118.645
 20
340.423
 11
-119.045
 21
339.939
  0
LINE
  8
0
 10
-119.045
 20
339.939
 11
-119.382
 21
339.409
  0
LINE
  8
0
 10
-119.382
 20
339.409
 11
-119.649
 21
338.841
  0
LINE
  8
0
 10
-119.649
 20
338.841
 11
-119.843
 21
338.243
  0
LINE
  8
0
 10
-119.843
 20
338.243
 11
-119.961
 21
337.627
  0
LINE
  8
0
 10
-119.961
 20
337.627
 11
-120
 21
337
  0
LINE
  8
0
 10
-120
 20
337
 11
-120
 21
257
  0
LINE
  8
0
 10
-120
 20
257
 11
-119.961
 21
256.373
  0
LINE
  8
0
 10
-119.961
 20
256.373
 11
-119.843
 21
255.757
  0
LINE
  8
0
 10
-119.843
 20
255.757
 11
-119.649
 21
255.159
  0
LINE
  8
0
 10
-119.649
 20
255.159
 11
-119.382
 21
254.591
  0
LINE
  8
0
 10
-119.382
 20
254.591
 11
-119.045
 21
254.061
  0
LINE
  8
0
 10
-119.045
 20
254.061
 11
-118.645
 21
253.577
  0
LINE
  8
0
 10
-118.645
 20
253.577
 11
-118.187
 21
253.147
  0
LINE
  8
0
 10
-118.187
 20
253.147
 11
-117.679
 21
252.778
  0
LINE
  8
0
 10
-117.679
 20
252.778
 11
-117.129
 21
252.476
  0
LINE
  8
0
 10
-117.129
 20
252.476
 11
-116.545
 21
252.245
  0
LINE
  8
0
 10
-116.545
 20
252.245
 11
-115.937
 21
252.089
  0
LINE
  8
0
 10
-115.937
 20
252.089
 11
-115.314
 21
252.01
  0
LINE
  8
0
 10
-115.314
 20
252.01
 11
115.314
 21
252.01
  0
LINE
  8
0
 10
115.314
 20
252.01
 11
115.937
 21
252.089
  0
LINE
  8
0
 10
-114.993
 20
253.388
 11
-115.475
 21
253.449
  0
LINE
  8
0
 10
-115.475
 20
253.449
 11
-115.946
 21
253.57
  0
LINE
  8
0
 10
-115.946
 20
253.57
 11
-116.398
 21
253.749
  0
LINE
  8
0
 10
-116.398
 20
253.749
 11
-116.823
 21
253.983
  0
LINE
  8
0
 10
-116.823
 20
253.983
 11
-117.216
 21
254.269
  0
LINE
  8
0
 10
-117.216
 20
254.269
 11
-117.571
 21
254.601
  0
LINE
  8
0
 10
-117.571
 20
254.601
 11
-117.88
 21
254.976
  0
LINE
  8
0
 10
-117.88
 20
254.976
 11
-118.141
 21
255.386
  0
LINE
  8
0
 10
-118.141
 20
255.386
 11
-118.348
 21
255.826
  0
LINE
  8
0
 10
-118.348
 20
255.826
 11
-118.498
 21
256.288
  0
LINE
  8
0
 10
-118.498
 20
256.288
 11
-118.589
 21
256.765
  0
LINE
  8
0
 10
-118.589
 20
256.765
 11
-118.619
 21
257.25
  0
LINE
  8
0
 10
-118.619
 20
257.25
 11
-118.619
 21
336.75
  0
LINE
  8
0
 10
-118.619
 20
336.75
 11
-118.589
 21
337.235
  0
LINE
  8
0
 10
-118.589
 20
337.235
 11
-118.498
 21
337.712
  0
LINE
  8
0
 10
-118.498
 20
337.712
 11
-118.348
 21
338.174
  0
LINE
  8
0
 10
-118.348
 20
338.174
 11
-118.141
 21
338.614
  0
LINE
  8
0
 10
-118.141
 20
338.614
 11
-117.88
 21
339.024
  0
LINE
  8
0
 10
-117.88
 20
339.024
 11
-117.571
 21
339.399
  0
LINE
  8
0
 10
-117.571
 20
339.399
 11
-117.216
 21
339.731
  0
LINE
  8
0
 10
-117.216
 20
339.731
 11
-116.823
 21
340.017
  0
LINE
  8
0
 10
-116.823
 20
340.017
 11
-116.398
 21
340.251
  0
LINE
  8
0
 10
-116.398
 20
340.251
 11
-115.946
 21
340.43
  0
LINE
  8
0
 10
-115.946
 20
340.43
 11
-115.475
 21
340.551
  0
LINE
  8
0
 10
-115.475
 20
340.551
 11
-114.993
 21
340.612
  0
LINE
  8
0
 10
-114.993
 20
340.612
 11
114.993
 21
340.612
  0
LINE
  8
0
 10
114.993
 20
340.612
 11
115.475
 21
340.551
  0
LINE
  8
0
 10
115.475
 20
340.551
 11
115.946
 21
340.43
  0
LINE
  8
0
 10
115.946
 20
340.43
 11
116.398
 21
340.251
  0
LINE
  8
0
 10
116.398
 20
340.251
 11
116.823
 21
340.017
  0
LINE
  8
0
 10
116.823
 20
340.017
 11
117.216
 21
339.731
  0
LINE
  8
0
 10
117.216
 20
339.731
 11
117.571
 21
339.399
  0
LINE
  8
0
 10
117.571
 20
339.399
 11
117.88
 21
339.024
  0
LINE
  8
0
 10
117.88
 20
339.024
 11
118.141
 21
338.614
  0
LINE
  8
0
 10
118.141
 20
338.614
 11
118.348
 21
338.174
  0
LINE
  8
0
 10
118.348
 20
338.174
 11
118.498
 21
337.712
  0
LINE
  8
0
 10
118.498
 20
337.712
 11
118.589
 21
337.235
  0
LINE
  8
0
 10
118.589
 20
337.235
 11
118.619
 21
336.75
  0
LINE
  8
0
 10
118.619
 20
336.75
 11
118.619
 21
257.25
  0
LINE
  8
0
 10
118.619
 20
257.25
 11
118.589
 21
256.765
  0
LINE
  8
0
 10
118.589
 20
256.765
 11
118.498
 21
256.288
  0
LINE
  8
0
 10
118.498
 20
256.288
 11
118.348
 21
255.826
  0
LINE
  8
0
 10
118.348
 20
255.826
 11
118.141
 21
255.386
  0
LINE
  8
0
 10
118.141
 20
255.386
 11
117.88
 21
254.976
  0
LINE
  8
0
 10
117.88
 20
254.976
 11
117.571
 21
254.601
  0
LINE
  8
0
 10
117.571
 20
254.601
 11
117.216
 21
254.269
  0
LINE
  8
0
 10
117.216
 20
254.269
 11
116.823
 21
253.983
  0
LINE
  8
0
 10
116.823
 20
253.983
 11
116.398
 21
253.749
  0
LINE
  8
0
 10
116.398
 20
253.749
 11
115.946
 21
253.57
  0
LINE
  8
0
 10
115.946
 20
253.57
 11
115.475
 21
253.449
  0
LINE
  8
0
 10
115.475
 20
253.449
 11
114.993
 21
253.388
  0
LINE
  8
0
 10
114.993
 20
253.388
 11
-114.993
 21
253.388
  0
LINE
  8
0
 10
115.937
 20
153.089
 11
116.545
 21
153.245
  0
LINE
  8
0
 10
116.545
 20
153.245
 11
117.129
 21
153.476
  0
LINE
  8
0
 10
117.129
 20
153.476
 11
117.679
 21
153.778
  0
LINE
  8
0
 10
117.679
 20
153.778
 11
118.187
 21
154.147
  0
LINE
  8
0
 10
118.187
 20
154.147
 11
118.645
 21
154.577
  0
LINE
  8
0
 10
118.645
 20
154.577
 11
119.045
 21
155.061
  0
LINE
  8
0
 10
119.045
 20
155.061
 11
119.382
 21
155.591
  0
LINE
  8
0
 10
119.382
 20
155.591
 11
119.649
 21
156.159
  0
LINE
  8
0
 10
119.649
 20
156.159
 11
119.843
 21
156.757
  0
LINE
  8
0
 10
119.843
 20
156.757
 11
119.961
 21
157.373
  0
LINE
  8
0
 10
119.961
 20
157.373
 11
120
 21
158
  0
LINE
  8
0
 10
120
 20
158
 11
120
 21
238
  0
LINE
  8
0
 10
120
 20
238
 11
119.961
 21
238.627
  0
LINE
  8
0
 10
119.961
 20
238.627
 11
119.843
 21
239.243
  0
LINE
  8
0
 10
119.843
 20
239.243
 11
119.649
 21
239.841
  0
LINE
  8
0
 10
119.649
 20
239.841
 11
119.382
 21
240.409
  0
LINE
  8
0
 10
119.382
 20
240.409
 11
119.045
 21
240.939
  0
LINE
  8
0
 10
119.045
 20
240.939
 11
118.645
 21
241.423
  0
LINE
  8
0
 10
118.645
 20
241.423
 11
118.187
 21
241.853
  0
LINE
  8
0
 10
118.187
 20
241.853
 11
117.679
 21
242.222
  0
LINE
  8
0
 10
117.679
 20
242.222
 11
117.129
 21
242.524
  0
LINE
  8
0
 10
117.129
 20
242.524
 11
116.545
 21
242.755
  0
LINE
  8
0
 10
116.545
 20
242.755
 11
115.937
 21
242.911
  0
LINE
  8
0
 10
115.937
 20
242.911
 11
115.314
 21
242.99
  0
LINE
  8
0
 10
115.314
 20
242.99
 11
-115.314
 21
242.99
  0
LINE
  8
0
 10
-115.314
 20
242.99
 11
-115.937
 21
242.911
  0
LINE
  8
0
 10
-115.937
 20
242.911
 11
-116.545
 21
242.755
  0
LINE
  8
0
 10
-116.545
 20
242.755
 11
-117.129
 21
242.524
  0
LINE
  8
0
 10
-117.129
 20
242.524
 11
-117.679
 21
242.222
  0
LINE
  8
0
 10
-117.679
 20
242.222
 11
-118.187
 21
241.853
  0
LINE
  8
0
 10
-118.187
 20
241.853
 11
-118.645
 21
241.423
  0
LINE
  8
0
 10
-118.645
 20
241.423
 11
-119.045
 21
240.939
  0
LINE
  8
0
 10
-119.045
 20
240.939
 11
-119.382
 21
240.409
  0
LINE
  8
0
 10
-119.382
 20
240.409
 11
-119.649
 21
239.841
  0
LINE
  8
0
 10
-119.649
 20
239.841
 11
-119.843
 21
239.243
  0
LINE
  8
0
 10
-119.843
 20
239.243
 11
-119.961
 21
238.627
  0
LINE
  8
0
 10
-119.961
 20
238.627
 11
-120
 21
238
  0
LINE
  8
0
 10
-120
 20
238
 11
-120
 21
158
  0
LINE
  8
0
 10
-120
 20
158
 11
-119.961
 21
157.373
  0
LINE
  8
0
 10
-119.961
 20
157.373
 11
-119.843
 21
156.757
  0
LINE
  8
0
 10
-119.843
 20
156.757
 11
-119.649
 21
156.159
  0
LINE
  8
0
 10
-119.649
 20
156.159
 11
-119.382
 21
155.591
  0
LINE
  8
0
 10
-119.382
 20
155.591
 11
-119.045
 21
155.061
  0
LINE
  8
0
 10
-119.045
 20
155.061
 11
-118.645
 21
154.577
  0
LINE
  8
0
 10
-118.645
 20
154.577
 11
-118.187
 21
154.147
  0
LINE
  8
0
 10
-118.187
 20
154.147
 11
-117.679
 21
153.778
  0
LINE
  8
0
 10
-117.679
 20
153.778
 11
-117.129
 21
153.476
  0
LINE
  8
0
 10
-117.129
 20
153.476
 11
-116.545
 21
153.245
  0
LINE
  8
0
 10
-116.545
 20
153.245
 11
-115.937
 21
153.089
  0
LINE
  8
0
 10
-115.937
 20
153.089
 11
-115.314
 21
153.01
  0
LINE
  8
0
 10
-115.314
 20
153.01
 11
115.314
 21
153.01
  0
LINE
  8
0
 10
115.314
 20
153.01
 11
115.937
 21
153.089
  0
LINE
  8
0
 10
-112.613
 20
233.704
 11
-112.837
 21
233.732
  0
LINE
  8
0
 10
-112.837
 20
233.732
 11
-113.056
 21
233.788
  0
LINE
  8
0
 10
-113.056
 20
233.788
 11
-113.266
 21
233.871
  0
LINE
  8
0
 10
-113.266
 20
233.871
 11
-113.464
 21
233.98
  0
LINE
  8
0
 10
-113.464
 20
233.98
 11
-113.647
 21
234.113
  0
LINE
  8
0
 10
-113.647
 20
234.113
 11
-113.812
 21
234.268
  0
LINE
  8
0
 10
-113.812
 20
234.268
 11
-113.956
 21
234.442
  0
LINE
  8
0
 10
-113.956
 20
234.442
 11
-114.077
 21
234.633
  0
LINE
  8
0
 10
-114.077
 20
234.633
 11
-114.174
 21
234.837
  0
LINE
  8
0
 10
-114.174
 20
234.837
 11
-114.243
 21
235.052
  0
LINE
  8
0
 10
-114.243
 20
235.052
 11
-114.286
 21
235.274
  0
LINE
  8
0
 10
-114.286
 20
235.274
 11
-114.3
 21
235.5
  0
LINE
  8
0
 10
-114.3
 20
235.5
 11
-114.286
 21
235.726
  0
LINE
  8
0
 10
-114.286
 20
235.726
 11
-114.243
 21
235.948
  0
LINE
  8
0
 10
-114.243
 20
235.948
 11
-114.174
 21
236.163
  0
LINE
  8
0
 10
-114.174
 20
236.163
 11
-114.077
 21
236.367
  0
LINE
  8
0
 10
-114.077
 20
236.367
 11
-113.956
 21
236.558
  0
LINE
  8
0
 10
-113.956
 20
236.558
 11
-113.812
 21
236.732
  0
LINE
  8
0
 10
-113.812
 20
236.732
 11
-113.647
 21
236.887
  0
LINE
  8
0
 10
-113.647
 20
236.887
 11
-113.464
 21
237.02
  0
LINE
  8
0
 10
-113.464
 20
237.02
 11
-113.266
 21
237.129
  0
LINE
  8
0
 10
-113.266
 20
237.129
 11
-113.056
 21
237.212
  0
LINE
  8
0
 10
-113.056
 20
237.212
 11
-112.837
 21
237.268
  0
LINE
  8
0
 10
-112.837
 20
237.268
 11
-112.613
 21
237.296
  0
LINE
  8
0
 10
-112.613
 20
237.296
 11
-112.387
 21
237.296
  0
LINE
  8
0
 10
-112.387
 20
237.296
 11
-112.163
 21
237.268
  0
LINE
  8
0
 10
-112.163
 20
237.268
 11
-111.944
 21
237.212
  0
LINE
  8
0
 10
-111.944
 20
237.212
 11
-111.734
 21
237.129
  0
LINE
  8
0
 10
-111.734
 20
237.129
 11
-111.536
 21
237.02
  0
LINE
  8
0
 10
-111.536
 20
237.02
 11
-111.353
 21
236.887
  0
LINE
  8
0
 10
-111.353
 20
236.887
 11
-111.188
 21
236.732
  0
LINE
  8
0
 10
-111.188
 20
236.732
 11
-111.044
 21
236.558
  0
LINE
  8
0
 10
-111.044
 20
236.558
 11
-110.923
 21
236.367
  0
LINE
  8
0
 10
-110.923
 20
236.367
 11
-110.826
 21
236.163
  0
LINE
  8
0
 10
-110.826
 20
236.163
 11
-110.757
 21
235.948
  0
LINE
  8
0
 10
-110.757
 20
235.948
 11
-110.714
 21
235.726
  0
LINE
  8
0
 10
-110.714
 20
235.726
 11
-110.7
 21
235.5
  0
LINE
  8
0
 10
-110.7
 20
235.5
 11
-110.714
 21
235.274
  0
LINE
  8
0
 10
-110.714
 20
235.274
 11
-110.757
 21
235.052
  0
LINE
  8
0
 10
-110.757
 20
235.052
 11
-110.826
 21
234.837
  0
LINE
  8
0
 10
-110.826
 20
234.837
 11
-110.923
 21
234.633
  0
LINE
  8
0
 10
-110.923
 20
234.633
 11
-111.044
 21
234.442
  0
LINE
  8
0
 10
-111.044
 20
234.442
 11
-111.188
 21
234.268
  0
LINE
  8
0
 10
-111.188
 20
234.268
 11
-111.353
 21
234.113
  0
LINE
  8
0
 10
-111.353
 20
234.113
 11
-111.536
 21
233.98
  0
LINE
  8
0
 10
-111.536
 20
233.98
 11
-111.734
 21
233.871
  0
LINE
  8
0
 10
-111.734
 20
233.871
 11
-111.944
 21
233.788
  0
LINE
  8
0
 10
-111.944
 20
233.788
 11
-112.163
 21
233.732
  0
LINE
  8
0
 10
-112.163
 20
233.732
 11
-112.387
 21
233.704
  0
LINE
  8
0
 10
-112.387
 20
233.704
 11
-112.613
 21
233.704
  0
LINE
  8
0
 10
112.387
 20
233.704
 11
112.163
 21
233.732
  0
LINE
  8
0
 10
112.163
 20
233.732
 11
111.944
 21
233.788
  0
LINE
  8
0
 10
111.944
 20
233.788
 11
111.734
 21
233.871
  0
LINE
  8
0
 10
111.734
 20
233.871
 11
111.536
 21
233.98
  0
LINE
  8
0
 10
111.536
 20
233.98
 11
111.353
 21
234.113
  0
LINE
  8
0
 10
111.353
 20
234.113
 11
111.188
 21
234.268
  0
LINE
  8
0
 10
111.188
 20
234.268
 11
111.044
 21
234.442
  0
LINE
  8
0
 10
111.044
 20
234.442
 11
110.923
 21
234.633
  0
LINE
  8
0
 10
110.923
 20
234.633
 11
110.826
 21
234.837
  0
LINE
  8
0
 10
110.826
 20
234.837
 11
110.757
 21
235.052
  0
LINE
  8
0
 10
110.757
 20
235.052
 11
110.714
 21
235.274
  0
LINE
  8
0
 10
110.714
 20
235.274
 11
110.7
 21
235.5
  0
LINE
  8
0
 10
110.7
 20
235.5
 11
110.714
 21
235.726
  0
LINE
  8
0
 10
110.714
 20
235.726
 11
110.757
 21
235.948
  0
LINE
  8
0
 10
110.757
 20
235.948
 11
110.826
 21
236.163
  0
LINE
  8
0
 10
110.826
 20
236.163
 11
110.923
 21
236.367
  0
LINE
  8
0
 10
110.923
 20
236.367
 11
111.044
 21
236.558
  0
LINE
  8
0
 10
111.044
 20
236.558
 11
111.188
 21
236.732
  0
LINE
  8
0
 10
111.188
 20
236.732
 11
111.353
 21
236.887
  0
LINE
  8
0
 10
111.353
 20
236.887
 11
111.536
 21
237.02
  0
LINE
  8
0
 10
111.536
 20
237.02
 11
111.734
 21
237.129
  0
LINE
  8
0
 10
111.734
 20
237.129
 11
111.944
 21
237.212
  0
LINE
  8
0
 10
111.944
 20
237.212
 11
112.163
 21
237.268
  0
LINE
  8
0
 10
112.163
 20
237.268
 11
112.387
 21
237.296
  0
LINE
  8
0
 10
112.387
 20
237.296
 11
112.613
 21
237.296
  0
LINE
  8
0
 10
112.613
 20
237.296
 11
112.837
 21
237.268
  0
LINE
  8
0
 10
112.837
 20
237.268
 11
113.056
 21
237.212
  0
LINE
  8
0
 10
113.056
 20
237.212
 11
113.266
 21
237.129
  0
LINE
  8
0
 10
113.266
 20
237.129
 11
113.464
 21
237.02
  0
LINE
  8
0
 10
113.464
 20
237.02
 11
113.647
 21
236.887
  0
LINE
  8
0
 10
113.647
 20
236.887
 11
113.812
 21
236.732
  0
LINE
  8
0
 10
113.812
 20
236.732
 11
113.956
 21
236.558
  0
LINE
  8
0
 10
113.956
 20
236.558
 11
114.077
 21
236.367
  0
LINE
  8
0
 10
114.077
 20
236.367
 11
114.174
 21
236.163
  0
LINE
  8
0
 10
114.174
 20
236.163
 11
114.243
 21
235.948
  0
LINE
  8
0
 10
114.243
 20
235.948
 11
114.286
 21
235.726
  0
LINE
  8
0
 10
114.286
 20
235.726
 11
114.3
 21
235.5
  0
LINE
  8
0
 10
114.3
 20
235.5
 11
114.286
 21
235.274
  0
LINE
  8
0
 10
114.286
 20
235.274
 11
114.243
 21
235.052
  0
LINE
  8
0
 10
114.243
 20
235.052
 11
114.174
 21
234.837
  0
LINE
  8
0
 10
114.174
 20
234.837
 11
114.077
 21
234.633
  0
LINE
  8
0
 10
114.077
 20
234.633
 11
113.956
 21
234.442
  0
LINE
  8
0
 10
113.956
 20
234.442
 11
113.812
 21
234.268
  0
LINE
  8
0
 10
113.812
 20
234.268
 11
113.647
 21
234.113
  0
LINE
  8
0
 10
113.647
 20
234.113
 11
113.464
 21
233.98
  0
LINE
  8
0
 10
113.464
 20
233.98
 11
113.266
 21
233.871
  0
LINE
  8
0
 10
113.266
 20
233.871
 11
113.056
 21
233.788
  0
LINE
  8
0
 10
113.056
 20
233.788
 11
112.837
 21
233.732
  0
LINE
  8
0
 10
112.837
 20
233.732
 11
112.613
 21
233.704
  0
LINE
  8
0
 10
112.613
 20
233.704
 11
112.387
 21
233.704
  0
LINE
  8
0
 10
112.387
 20
158.704
 11
112.163
 21
158.732
  0
LINE
  8
0
 10
112.163
 20
158.732
 11
111.944
 21
158.788
  0
LINE
  8
0
 10
111.944
 20
158.788
 11
111.734
 21
158.871
  0
LINE
  8
0
 10
111.734
 20
158.871
 11
111.536
 21
158.98
  0
LINE
  8
0
 10
111.536
 20
158.98
 11
111.353
 21
159.113
  0
LINE
  8
0
 10
111.353
 20
159.113
 11
111.188
 21
159.268
  0
LINE
  8
0
 10
111.188
 20
159.268
 11
111.044
 21
159.442
  0
LINE
  8
0
 10
111.044
 20
159.442
 11
110.923
 21
159.633
  0
LINE
  8
0
 10
110.923
 20
159.633
 11
110.826
 21
159.837
  0
LINE
  8
0
 10
110.826
 20
159.837
 11
110.757
 21
160.052
  0
LINE
  8
0
 10
110.757
 20
160.052
 11
110.714
 21
160.274
  0
LINE
  8
0
 10
110.714
 20
160.274
 11
110.7
 21
160.5
  0
LINE
  8
0
 10
110.7
 20
160.5
 11
110.714
 21
160.726
  0
LINE
  8
0
 10
110.714
 20
160.726
 11
110.757
 21
160.948
  0
LINE
  8
0
 10
110.757
 20
160.948
 11
110.826
 21
161.163
  0
LINE
  8
0
 10
110.826
 20
161.163
 11
110.923
 21
161.367
  0
LINE
  8
0
 10
110.923
 20
161.367
 11
111.044
 21
161.558
  0
LINE
  8
0
 10
111.044
 20
161.558
 11
111.188
 21
161.732
  0
LINE
  8
0
 10
111.188
 20
161.732
 11
111.353
 21
161.887
  0
LINE
  8
0
 10
111.353
 20
161.887
 11
111.536
 21
162.02
  0
LINE
  8
0
 10
111.536
 20
162.02
 11
111.734
 21
162.129
  0
LINE
  8
0
 10
111.734
 20
162.129
 11
111.944
 21
162.212
  0
LINE
  8
0
 10
111.944
 20
162.212
 11
112.163
 21
162.268
  0
LINE
  8
0
 10
112.163
 20
162.268
 11
112.387
 21
162.296
  0
LINE
  8
0
 10
112.387
 20
162.296
 11
112.613
 21
162.296
  0
LINE
  8
0
 10
112.613
 20
162.296
 11
112.837
 21
162.268
  0
LINE
  8
0
 10
112.837
 20
162.268
 11
113.056
 21
162.212
  0
LINE
  8
0
 10
113.056
 20
162.212
 11
113.266
 21
162.129
  0
LINE
  8
0
 10
113.266
 20
162.129
 11
113.464
 21
162.02
  0
LINE
  8
0
 10
113.464
 20
162.02
 11
113.647
 21
161.887
  0
LINE
  8
0
 10
113.647
 20
161.887
 11
113.812
 21
161.732
  0
LINE
  8
0
 10
113.812
 20
161.732
 11
113.956
 21
161.558
  0
LINE
  8
0
 10
113.956
 20
161.558
 11
114.077
 21
161.367
  0
LINE
  8
0
 10
114.077
 20
161.367
 11
114.174
 21
161.163
  0
LINE
  8
0
 10
114.174
 20
161.163
 11
114.243
 21
160.948
  0
LINE
  8
0
 10
114.243
 20
160.948
 11
114.286
 21
160.726
  0
LINE
  8
0
 10
114.286
 20
160.726
 11
114.3
 21
160.5
  0
LINE
  8
0
 10
114.3
 20
160.5
 11
114.286
 21
160.274
  0
LINE
  8
0
 10
114.286
 20
160.274
 11
114.243
 21
160.052
  0
LINE
  8
0
 10
114.243
 20
160.052
 11
114.174
 21
159.837
  0
LINE
  8
0
 10
114.174
 20
159.837
 11
114.077
 21
159.633
  0
LINE
  8
0
 10
114.077
 20
159.633
 11
113.956
 21
159.442
  0
LINE
  8
0
 10
113.956
 20
159.442
 11
113.812
 21
159.268
  0
LINE
  8
0
 10
113.812
 20
159.268
 11
113.647
 21
159.113
  0
LINE
  8
0
 10
113.647
 20
159.113
 11
113.464
 21
158.98
  0
LINE
  8
0
 10
113.464
 20
158.98
 11
113.266
 21
158.871
  0
LINE
  8
0
 10
113.266
 20
158.871
 11
113.056
 21
158.788
  0
LINE
  8
0
 10
113.056
 20
158.788
 11
112.837
 21
158.732
  0
LINE
  8
0
 10
112.837
 20
158.732
 11
112.613
 21
158.704
  0
LINE
  8
0
 10
112.613
 20
158.704
 11
112.387
 21
158.704
  0
LINE
  8
0
 10
-112.613
 20
158.704
 11
-112.837
 21
158.732
  0
LINE
  8
0
 10
-112.837
 20
158.732
 11
-113.056
 21
158.788
  0
LINE
  8
0
 10
-113.056
 20
158.788
 11
-113.266
 21
158.871
  0
LINE
  8
0
 10
-113.266
 20
158.871
 11
-113.464
 21
158.98
  0
LINE
  8
0
 10
-113.464
 20
158.98
 11
-113.647
 21
159.113
  0
LINE
  8
0
 10
-113.647
 20
159.113
 11
-113.812
 21
159.268
  0
LINE
  8
0
 10
-113.812
 20
159.268
 11
-113.956
 21
159.442
  0
LINE
  8
0
 10
-113.956
 20
159.442
 11
-114.077
 21
159.633
  0
LINE
  8
0
 10
-114.077
 20
159.633
 11
-114.174
 21
159.837
  0
LINE
  8
0
 10
-114.174
 20
159.837
 11
-114.243
 21
160.052
  0
LINE
  8
0
 10
-114.243
 20
160.052
 11
-114.286
 21
160.274
  0
LINE
  8
0
 10
-114.286
 20
160.274
 11
-114.3
 21
160.5
  0
LINE
  8
0
 10
-114.3
 20
160.5
 11
-114.286
 21
160.726
  0
LINE
  8
0
 10
-114.286
 20
160.726
 11
-114.243
 21
160.948
  0
LINE
  8
0
 10
-114.243
 20
160.948
 11
-114.174
 21
161.163
  0
LINE
  8
0
 10
-114.174
 20
161.163
 11
-114.077
 21
161.367
  0
LINE
  8
0
 10
-114.077
 20
161.367
 11
-113.956
 21
161.558
  0
LINE
  8
0
 10
-113.956
 20
161.558
 11
-113.812
 21
161.732
  0
LINE
  8
0
 10
-113.812
 20
161.732
 11
-113.647
 21
161.887
  0
LINE
  8
0
 10
-113.647
 20
161.887
 11
-113.464
 21
162.02
  0
LINE
  8
0
 10
-113.464
 20
162.02
 11
-113.266
 21
162.129
  0
LINE
  8
0
 10
-113.266
 20
162.129
 11
-113.056
 21
162.212
  0
LINE
  8
0
 10
-113.056
 20
162.212
 11
-112.837
 21
162.268
  0
LINE
  8
0
 10
-112.837
 20
162.268
 11
-112.613
 21
162.296
  0
LINE
  8
0
 10
-112.613
 20
162.296
 11
-112.387
 21
162.296
  0
LINE
  8
0
 10
-112.387
 20
162.296
 11
-112.163
 21
162.268
  0
LINE
  8
0
 10
-112.163
 20
162.268
 11
-111.944
 21
162.212
  0
LINE
  8
0
 10
-111.944
 20
162.212
 11
-111.734
 21
162.129
  0
LINE
  8
0
 10
-111.734
 20
162.129
 11
-111.536
 21
162.02
  0
LINE
  8
0
 10
-111.536
 20
162.02
 11
-111.353
 21
161.887
  0
LINE
  8
0
 10
-111.353
 20
161.887
 11
-111.188
 21
161.732
  0
LINE
  8
0
 10
-111.188
 20
161.732
 11
-111.044
 21
161.558
  0
LINE
  8
0
 10
-111.044
 20
161.558
 11
-110.923
 21
161.367
  0
LINE
  8
0
 10
-110.923
 20
161.367
 11
-110.826
 21
161.163
  0
LINE
  8
0
 10
-110.826
 20
161.163
 11
-110.757
 21
160.948
  0
LINE
  8
0
 10
-110.757
 20
160.948
 11
-110.714
 21
160.726
  0
LINE
  8
0
 10
-110.714
 20
160.726
 11
-110.7
 21
160.5
  0
LINE
  8
0
 10
-110.7
 20
160.5
 11
-110.714
 21
160.274
  0
LINE
  8
0
 10
-110.714
 20
160.274
 11
-110.757
 21
160.052
  0
LINE
  8
0
 10
-110.757
 20
160.052
 11
-110.826
 21
159.837
  0
LINE
  8
0
 10
-110.826
 20
159.837
 11
-110.923
 21
159.633
  0
LINE
  8
0
 10
-110.923
 20
159.633
 11
-111.044
 21
159.442
  0
LINE
  8
0
 10
-111.044
 20
159.442
 11
-111.188
 21
159.268
  0
LINE
  8
0
 10
-111.188
 20
159.268
 11
-111.353
 21
159.113
  0
LINE
  8
0
 10
-111.353
 20
159.113
 11
-111.536
 21
158.98
  0
LINE
  8
0
 10
-111.536
 20
158.98
 11
-111.734
 21
158.871
  0
LINE
  8
0
 10
-111.734
 20
158.871
 11
-111.944
 21
158.788
  0
LINE
  8
0
 10
-111.944
 20
158.788
 11
-112.163
 21
158.732
  0
LINE
  8
0
 10
-112.163
 20
158.732
 11
-112.387
 21
158.704
  0
LINE
  8
0
 10
-112.387
 20
158.704
 11
-112.613
 21
158.704
  0
ENDSEC
  0
SECTION
  2
OBJECTS
  0
DICTIONARY
  0
ENDSEC
  0
EOF
