<?xml version="1.0" standalone="no"?>
<!DOCTYPE svg PUBLIC "-//W3C//DTD SVG 1.1//EN" "http://www.w3.org/Graphics/SVG/1.1/DTD/svg11.dtd">
<svg width="286mm" height="336mm" viewBox="-143 -582 286 336" xmlns="http://www.w3.org/2000/svg" version="1.1">
<title>OpenSCAD Model</title>
<path d="
M 138.437,-522.089 L 139.045,-522.245 L 139.629,-522.476 L 140.179,-522.778 L 140.687,-523.147 L 141.145,-523.577
 L 141.545,-524.061 L 141.882,-524.591 L 142.149,-525.159 L 142.343,-525.757 L 142.461,-526.373 L 142.5,-527
 L 142.5,-577 L 142.461,-577.627 L 142.343,-578.243 L 142.149,-578.841 L 141.882,-579.409 L 141.545,-579.939
 L 141.145,-580.423 L 140.687,-580.853 L 140.179,-581.222 L 139.629,-581.524 L 139.045,-581.755 L 138.437,-581.911
 L 137.814,-581.99 L -137.814,-581.99 L -138.437,-581.911 L -139.045,-581.755 L -139.629,-581.524 L -140.179,-581.222
 L -140.687,-580.853 L -141.145,-580.423 L -141.545,-579.939 L -141.882,-579.409 L -142.149,-578.841 L -142.343,-578.243
 L -142.461,-577.627 L -142.5,-577 L -142.5,-527 L -142.461,-526.373 L -142.343,-525.757 L -142.149,-525.159
 L -141.882,-524.591 L -141.545,-524.061 L -141.145,-523.577 L -140.687,-523.147 L -140.179,-522.778 L -139.629,-522.476
 L -139.045,-522.245 L -138.437,-522.089 L -137.814,-522.01 L 137.814,-522.01 z
M -137.548,-522.509 L -138.14,-522.584 L -138.718,-522.732 L -139.272,-522.952 L -139.795,-523.239 L -140.278,-523.59
 L -140.713,-523.998 L -141.093,-524.458 L -141.412,-524.962 L -141.666,-525.501 L -141.851,-526.069 L -141.963,-526.655
 L -142,-527.25 L -142,-576.75 L -141.963,-577.345 L -141.851,-577.931 L -141.666,-578.499 L -141.412,-579.038
 L -141.093,-579.542 L -140.713,-580.002 L -140.278,-580.41 L -139.795,-580.761 L -139.272,-581.048 L -138.718,-581.268
 L -138.14,-581.416 L -137.548,-581.491 L 137.548,-581.491 L 138.14,-581.416 L 138.718,-581.268 L 139.272,-581.048
 L 139.795,-580.761 L 140.278,-580.41 L 140.713,-580.002 L 141.093,-579.542 L 141.412,-579.038 L 141.666,-578.499
 L 141.851,-577.931 L 141.963,-577.345 L 142,-576.75 L 142,-527.25 L 141.963,-526.655 L 141.851,-526.069
 L 141.666,-525.501 L 141.412,-524.962 L 141.093,-524.458 L 140.713,-523.998 L 140.278,-523.59 L 139.795,-523.239
 L 139.272,-522.952 L 138.718,-522.732 L 138.14,-522.584 L 137.548,-522.509 z
M 138.437,-453.089 L 139.045,-453.245 L 139.629,-453.476 L 140.179,-453.778 L 140.687,-454.147 L 141.145,-454.577
 L 141.545,-455.061 L 141.882,-455.591 L 142.149,-456.159 L 142.343,-456.757 L 142.461,-457.373 L 142.5,-458
 L 142.5,-508 L 142.461,-508.627 L 142.343,-509.243 L 142.149,-509.841 L 141.882,-510.409 L 141.545,-510.939
 L 141.145,-511.423 L 140.687,-511.853 L 140.179,-512.222 L 139.629,-512.524 L 139.045,-512.755 L 138.437,-512.911
 L 137.814,-512.99 L -137.814,-512.99 L -138.437,-512.911 L -139.045,-512.755 L -139.629,-512.524 L -140.179,-512.222
 L -140.687,-511.853 L -141.145,-511.423 L -141.545,-510.939 L -141.882,-510.409 L -142.149,-509.841 L -142.343,-509.243
 L -142.461,-508.627 L -142.5,-508 L -142.5,-458 L -142.461,-457.373 L -142.343,-456.757 L -142.149,-456.159
 L -141.882,-455.591 L -141.545,-455.061 L -141.145,-454.577 L -140.687,-454.147 L -140.179,-453.778 L -139.629,-453.476
 L -139.045,-453.245 L -138.437,-453.089 L -137.814,-453.01 L 137.814,-453.01 z
M -137.548,-453.509 L -138.14,-453.584 L -138.718,-453.732 L -139.272,-453.952 L -139.795,-454.239 L -140.278,-454.59
 L -140.713,-454.998 L -141.093,-455.458 L -141.412,-455.962 L -141.666,-456.501 L -141.851,-457.069 L -141.963,-457.655
 L -142,-458.25 L -142,-507.75 L -141.963,-508.345 L -141.851,-508.931 L -141.666,-509.499 L -141.412,-510.038
 L -141.093,-510.542 L -140.713,-511.002 L -140.278,-511.41 L -139.795,-511.761 L -139.272,-512.048 L -138.718,-512.268
 L -138.14,-512.416 L -137.548,-512.491 L 137.548,-512.491 L 138.14,-512.416 L 138.718,-512.268 L 139.272,-512.048
 L 139.795,-511.761 L 140.278,-511.41 L 140.713,-511.002 L 141.093,-510.542 L 141.412,-510.038 L 141.666,-509.499
 L 141.851,-508.931 L 141.963,-508.345 L 142,-507.75 L 142,-458.25 L 141.963,-457.655 L 141.851,-457.069
 L 141.666,-456.501 L 141.412,-455.962 L 141.093,-455.458 L 140.713,-454.998 L 140.278,-454.59 L 139.795,-454.239
 L 139.272,-453.952 L 138.718,-453.732 L 138.14,-453.584 L 137.548,-453.509 z
M 138.437,-384.089 L 139.045,-384.245 L 139.629,-384.476 L 140.179,-384.778 L 140.687,-385.147 L 141.145,-385.577
 L 141.545,-386.061 L 141.882,-386.591 L 142.149,-387.159 L 142.343,-387.757 L 142.461,-388.373 L 142.5,-389
 L 142.5,-439 L 142.461,-439.627 L 142.343,-440.243 L 142.149,-440.841 L 141.882,-441.409 L 141.545,-441.939
 L 141.145,-442.423 L 140.687,-442.853 L 140.179,-443.222 L 139.629,-443.524 L 139.045,-443.755 L 138.437,-443.911
 L 137.814,-443.99 L -137.814,-443.99 L -138.437,-443.911 L -139.045,-443.755 L -139.629,-443.524 L -140.179,-443.222
 L -140.687,-442.853 L -141.145,-442.423 L -141.545,-441.939 L -141.882,-441.409 L -142.149,-440.841 L -142.343,-440.243
 L -142.461,-439.627 L -142.5,-439 L -142.5,-389 L -142.461,-388.373 L -142.343,-387.757 L -142.149,-387.159
 L -141.882,-386.591 L -141.545,-386.061 L -141.145,-385.577 L -140.687,-385.147 L -140.179,-384.778 L -139.629,-384.476
 L -139.045,-384.245 L -138.437,-384.089 L -137.814,-384.01 L 137.814,-384.01 z
M -137.548,-384.509 L -138.14,-384.584 L -138.718,-384.732 L -139.272,-384.952 L -139.795,-385.239 L -140.278,-385.59
 L -140.713,-385.998 L -141.093,-386.458 L -141.412,-386.962 L -141.666,-387.501 L -141.851,-388.069 L -141.963,-388.655
 L -142,-389.25 L -142,-438.75 L -141.963,-439.345 L -141.851,-439.931 L -141.666,-440.499 L -141.412,-441.038
 L -141.093,-441.542 L -140.713,-442.002 L -140.278,-442.41 L -139.795,-442.761 L -139.272,-443.048 L -138.718,-443.268
 L -138.14,-443.416 L -137.548,-443.491 L 137.548,-443.491 L 138.14,-443.416 L 138.718,-443.268 L 139.272,-443.048
 L 139.795,-442.761 L 140.278,-442.41 L 140.713,-442.002 L 141.093,-441.542 L 141.412,-441.038 L 141.666,-440.499
 L 141.851,-439.931 L 141.963,-439.345 L 142,-438.75 L 142,-389.25 L 141.963,-388.655 L 141.851,-388.069
 L 141.666,-387.501 L 141.412,-386.962 L 141.093,-386.458 L 140.713,-385.998 L 140.278,-385.59 L 139.795,-385.239
 L 139.272,-384.952 L 138.718,-384.732 L 138.14,-384.584 L 137.548,-384.509 z
M 138.437,-315.089 L 139.045,-315.245 L 139.629,-315.476 L 140.179,-315.778 L 140.687,-316.147 L 141.145,-316.577
 L 141.545,-317.061 L 141.882,-317.591 L 142.149,-318.159 L 142.343,-318.757 L 142.461,-319.373 L 142.5,-320
 L 142.5,-370 L 142.461,-370.627 L 142.343,-371.243 L 142.149,-371.841 L 141.882,-372.409 L 141.545,-372.939
 L 141.145,-373.423 L 140.687,-373.853 L 140.179,-374.222 L 139.629,-374.524 L 139.045,-374.755 L 138.437,-374.911
 L 137.814,-374.99 L -137.814,-374.99 L -138.437,-374.911 L -139.045,-374.755 L -139.629,-374.524 L -140.179,-374.222
 L -140.687,-373.853 L -141.145,-373.423 L -141.545,-372.939 L -141.882,-372.409 L -142.149,-371.841 L -142.343,-371.243
 L -142.461,-370.627 L -142.5,-370 L -142.5,-320 L -142.461,-319.373 L -142.343,-318.757 L -142.149,-318.159
 L -141.882,-317.591 L -141.545,-317.061 L -141.145,-316.577 L -140.687,-316.147 L -140.179,-315.778 L -139.629,-315.476
 L -139.045,-315.245 L -138.437,-315.089 L -137.814,-315.01 L 137.814,-315.01 z
M -137.493,-316.388 L -137.975,-316.449 L -138.446,-316.57 L -138.898,-316.749 L -139.323,-316.983 L -139.716,-317.269
 L -140.071,-317.601 L -140.38,-317.976 L -140.641,-318.386 L -140.848,-318.826 L -140.998,-319.288 L -141.089,-319.765
 L -141.119,-320.25 L -141.119,-369.75 L -141.089,-370.235 L -140.998,-370.712 L -140.848,-371.174 L -140.641,-371.614
 L -140.38,-372.024 L -140.071,-372.399 L -139.716,-372.731 L -139.323,-373.017 L -138.898,-373.251 L -138.446,-373.43
 L -137.975,-373.551 L -137.493,-373.612 L 137.493,-373.612 L 137.975,-373.551 L 138.446,-373.43 L 138.898,-373.251
 L 139.323,-373.017 L 139.716,-372.731 L 140.071,-372.399 L 140.38,-372.024 L 140.641,-371.614 L 140.848,-371.174
 L 140.998,-370.712 L 141.089,-370.235 L 141.119,-369.75 L 141.119,-320.25 L 141.089,-319.765 L 140.998,-319.288
 L 140.848,-318.826 L 140.641,-318.386 L 140.38,-317.976 L 140.071,-317.601 L 139.716,-317.269 L 139.323,-316.983
 L 138.898,-316.749 L 138.446,-316.57 L 137.975,-316.449 L 137.493,-316.388 z
M 138.437,-246.089 L 139.045,-246.245 L 139.629,-246.476 L 140.179,-246.778 L 140.687,-247.147 L 141.145,-247.577
 L 141.545,-248.061 L 141.882,-248.591 L 142.149,-249.159 L 142.343,-249.757 L 142.461,-250.373 L 142.5,-251
 L 142.5,-301 L 142.461,-301.627 L 142.343,-302.243 L 142.149,-302.841 L 141.882,-303.409 L 141.545,-303.939
 L 141.145,-304.423 L 140.687,-304.853 L 140.179,-305.222 L 139.629,-305.524 L 139.045,-305.755 L 138.437,-305.911
 L 137.814,-305.99 L -137.814,-305.99 L -138.437,-305.911 L -139.045,-305.755 L -139.629,-305.524 L -140.179,-305.222
 L -140.687,-304.853 L -141.145,-304.423 L -141.545,-303.939 L -141.882,-303.409 L -142.149,-302.841 L -142.343,-302.243
 L -142.461,-301.627 L -142.5,-301 L -142.5,-251 L -142.461,-250.373 L -142.343,-249.757 L -142.149,-249.159
 L -141.882,-248.591 L -141.545,-248.061 L -141.145,-247.577 L -140.687,-247.147 L -140.179,-246.778 L -139.629,-246.476
 L -139.045,-246.245 L -138.437,-246.089 L -137.814,-246.01 L 137.814,-246.01 z
M -135.113,-296.704 L -135.337,-296.732 L -135.556,-296.788 L -135.766,-296.871 L -135.964,-296.98 L -136.147,-297.113
 L -136.312,-297.268 L -136.456,-297.442 L -136.577,-297.633 L -136.674,-297.837 L -136.743,-298.052 L -136.786,-298.274
 L -136.8,-298.5 L -136.786,-298.726 L -136.743,-298.948 L -136.674,-299.163 L -136.577,-299.367 L -136.456,-299.558
 L -136.312,-299.732 L -136.147,-299.887 L -135.964,-300.02 L -135.766,-300.129 L -135.556,-300.212 L -135.337,-300.268
 L -135.113,-300.296 L -134.887,-300.296 L -134.663,-300.268 L -134.444,-300.212 L -134.234,-300.129 L -134.036,-300.02
 L -133.853,-299.887 L -133.688,-299.732 L -133.544,-299.558 L -133.423,-299.367 L -133.326,-299.163 L -133.257,-298.948
 L -133.214,-298.726 L -133.2,-298.5 L -133.214,-298.274 L -133.257,-298.052 L -133.326,-297.837 L -133.423,-297.633
 L -133.544,-297.442 L -133.688,-297.268 L -133.853,-297.113 L -134.036,-296.98 L -134.234,-296.871 L -134.444,-296.788
 L -134.663,-296.732 L -134.887,-296.704 z
M 134.887,-296.704 L 134.663,-296.732 L 134.444,-296.788 L 134.234,-296.871 L 134.036,-296.98 L 133.853,-297.113
 L 133.688,-297.268 L 133.544,-297.442 L 133.423,-297.633 L 133.326,-297.837 L 133.257,-298.052 L 133.214,-298.274
 L 133.2,-298.5 L 133.214,-298.726 L 133.257,-298.948 L 133.326,-299.163 L 133.423,-299.367 L 133.544,-299.558
 L 133.688,-299.732 L 133.853,-299.887 L 134.036,-300.02 L 134.234,-300.129 L 134.444,-300.212 L 134.663,-300.268
 L 134.887,-300.296 L 135.113,-300.296 L 135.337,-300.268 L 135.556,-300.212 L 135.766,-300.129 L 135.964,-300.02
 L 136.147,-299.887 L 136.312,-299.732 L 136.456,-299.558 L 136.577,-299.367 L 136.674,-299.163 L 136.743,-298.948
 L 136.786,-298.726 L 136.8,-298.5 L 136.786,-298.274 L 136.743,-298.052 L 136.674,-297.837 L 136.577,-297.633
 L 136.456,-297.442 L 136.312,-297.268 L 136.147,-297.113 L 135.964,-296.98 L 135.766,-296.871 L 135.556,-296.788
 L 135.337,-296.732 L 135.113,-296.704 z
M 134.887,-251.704 L 134.663,-251.732 L 134.444,-251.788 L 134.234,-251.871 L 134.036,-251.98 L 133.853,-252.113
 L 133.688,-252.268 L 133.544,-252.442 L 133.423,-252.633 L 133.326,-252.837 L 133.257,-253.052 L 133.214,-253.274
 L 133.2,-253.5 L 133.214,-253.726 L 133.257,-253.948 L 133.326,-254.163 L 133.423,-254.367 L 133.544,-254.558
 L 133.688,-254.732 L 133.853,-254.887 L 134.036,-255.02 L 134.234,-255.129 L 134.444,-255.212 L 134.663,-255.268
 L 134.887,-255.296 L 135.113,-255.296 L 135.337,-255.268 L 135.556,-255.212 L 135.766,-255.129 L 135.964,-255.02
 L 136.147,-254.887 L 136.312,-254.732 L 136.456,-254.558 L 136.577,-254.367 L 136.674,-254.163 L 136.743,-253.948
 L 136.786,-253.726 L 136.8,-253.5 L 136.786,-253.274 L 136.743,-253.052 L 136.674,-252.837 L 136.577,-252.633
 L 136.456,-252.442 L 136.312,-252.268 L 136.147,-252.113 L 135.964,-251.98 L 135.766,-251.871 L 135.556,-251.788
 L 135.337,-251.732 L 135.113,-251.704 z
M -135.113,-251.704 L -135.337,-251.732 L -135.556,-251.788 L -135.766,-251.871 L -135.964,-251.98 L -136.147,-252.113
 L -136.312,-252.268 L -136.456,-252.442 L -136.577,-252.633 L -136.674,-252.837 L -136.743,-253.052 L -136.786,-253.274
 L -136.8,-253.5 L -136.786,-253.726 L -136.743,-253.948 L -136.674,-254.163 L -136.577,-254.367 L -136.456,-254.558
 L -136.312,-254.732 L -136.147,-254.887 L -135.964,-255.02 L -135.766,-255.129 L -135.556,-255.212 L -135.337,-255.268
 L -135.113,-255.296 L -134.887,-255.296 L -134.663,-255.268 L -134.444,-255.212 L -134.234,-255.129 L -134.036,-255.02
 L -133.853,-254.887 L -133.688,-254.732 L -133.544,-254.558 L -133.423,-254.367 L -133.326,-254.163 L -133.257,-253.948
 L -133.214,-253.726 L -133.2,-253.5 L -133.214,-253.274 L -133.257,-253.052 L -133.326,-252.837 L -133.423,-252.633
 L -133.544,-252.442 L -133.688,-252.268 L -133.853,-252.113 L -134.036,-251.98 L -134.234,-251.871 L -134.444,-251.788
 L -134.663,-251.732 L -134.887,-251.704 z
" stroke="black" fill="lightgray" stroke-width="0.5"/>
</svg>
