  0
SECTION
  2
BLOCKS
  0
ENDSEC
  0
SECTION
  2
ENTITIES
  0
LINE
  8
0
 10
138.437
 20
2376.09
 11
139.045
 21
2376.24
  0
LINE
  8
0
 10
139.045
 20
2376.24
 11
139.629
 21
2376.48
  0
LINE
  8
0
 10
139.629
 20
2376.48
 11
140.179
 21
2376.78
  0
LINE
  8
0
 10
140.179
 20
2376.78
 11
140.687
 21
2377.15
  0
LINE
  8
0
 10
140.687
 20
2377.15
 11
141.145
 21
2377.58
  0
LINE
  8
0
 10
141.145
 20
2377.58
 11
141.545
 21
2378.06
  0
LINE
  8
0
 10
141.545
 20
2378.06
 11
141.882
 21
2378.59
  0
LINE
  8
0
 10
141.882
 20
2378.59
 11
142.149
 21
2379.16
  0
LINE
  8
0
 10
142.149
 20
2379.16
 11
142.343
 21
2379.76
  0
LINE
  8
0
 10
142.343
 20
2379.76
 11
142.461
 21
2380.37
  0
LINE
  8
0
 10
142.461
 20
2380.37
 11
142.5
 21
2381
  0
LINE
  8
0
 10
142.5
 20
2381
 11
142.5
 21
2641
  0
LINE
  8
0
 10
142.5
 20
2641
 11
142.461
 21
2641.63
  0
LINE
  8
0
 10
142.461
 20
2641.63
 11
142.343
 21
2642.24
  0
LINE
  8
0
 10
142.343
 20
2642.24
 11
142.149
 21
2642.84
  0
LINE
  8
0
 10
142.149
 20
2642.84
 11
141.882
 21
2643.41
  0
LINE
  8
0
 10
141.882
 20
2643.41
 11
141.545
 21
2643.94
  0
LINE
  8
0
 10
141.545
 20
2643.94
 11
141.145
 21
2644.42
  0
LINE
  8
0
 10
141.145
 20
2644.42
 11
140.687
 21
2644.85
  0
LINE
  8
0
 10
140.687
 20
2644.85
 11
140.179
 21
2645.22
  0
LINE
  8
0
 10
140.179
 20
2645.22
 11
139.629
 21
2645.52
  0
LINE
  8
0
 10
139.629
 20
2645.52
 11
139.045
 21
2645.76
  0
LINE
  8
0
 10
139.045
 20
2645.76
 11
138.437
 21
2645.91
  0
LINE
  8
0
 10
138.437
 20
2645.91
 11
137.814
 21
2645.99
  0
LINE
  8
0
 10
137.814
 20
2645.99
 11
-137.814
 21
2645.99
  0
LINE
  8
0
 10
-137.814
 20
2645.99
 11
-138.437
 21
2645.91
  0
LINE
  8
0
 10
-138.437
 20
2645.91
 11
-139.045
 21
2645.76
  0
LINE
  8
0
 10
-139.045
 20
2645.76
 11
-139.629
 21
2645.52
  0
LINE
  8
0
 10
-139.629
 20
2645.52
 11
-140.179
 21
2645.22
  0
LINE
  8
0
 10
-140.179
 20
2645.22
 11
-140.687
 21
2644.85
  0
LINE
  8
0
 10
-140.687
 20
2644.85
 11
-141.145
 21
2644.42
  0
LINE
  8
0
 10
-141.145
 20
2644.42
 11
-141.545
 21
2643.94
  0
LINE
  8
0
 10
-141.545
 20
2643.94
 11
-141.882
 21
2643.41
  0
LINE
  8
0
 10
-141.882
 20
2643.41
 11
-142.149
 21
2642.84
  0
LINE
  8
0
 10
-142.149
 20
2642.84
 11
-142.343
 21
2642.24
  0
LINE
  8
0
 10
-142.343
 20
2642.24
 11
-142.461
 21
2641.63
  0
LINE
  8
0
 10
-142.461
 20
2641.63
 11
-142.5
 21
2641
  0
LINE
  8
0
 10
-142.5
 20
2641
 11
-142.5
 21
2381
  0
LINE
  8
0
 10
-142.5
 20
2381
 11
-142.461
 21
2380.37
  0
LINE
  8
0
 10
-142.461
 20
2380.37
 11
-142.343
 21
2379.76
  0
LINE
  8
0
 10
-142.343
 20
2379.76
 11
-142.149
 21
2379.16
  0
LINE
  8
0
 10
-142.149
 20
2379.16
 11
-141.882
 21
2378.59
  0
LINE
  8
0
 10
-141.882
 20
2378.59
 11
-141.545
 21
2378.06
  0
LINE
  8
0
 10
-141.545
 20
2378.06
 11
-141.145
 21
2377.58
  0
LINE
  8
0
 10
-141.145
 20
2377.58
 11
-140.687
 21
2377.15
  0
LINE
  8
0
 10
-140.687
 20
2377.15
 11
-140.179
 21
2376.78
  0
LINE
  8
0
 10
-140.179
 20
2376.78
 11
-139.629
 21
2376.48
  0
LINE
  8
0
 10
-139.629
 20
2376.48
 11
-139.045
 21
2376.24
  0
LINE
  8
0
 10
-139.045
 20
2376.24
 11
-138.437
 21
2376.09
  0
LINE
  8
0
 10
-138.437
 20
2376.09
 11
-137.814
 21
2376.01
  0
LINE
  8
0
 10
-137.814
 20
2376.01
 11
137.814
 21
2376.01
  0
LINE
  8
0
 10
137.814
 20
2376.01
 11
138.437
 21
2376.09
  0
LINE
  8
0
 10
-137.548
 20
2376.51
 11
-138.14
 21
2376.58
  0
LINE
  8
0
 10
-138.14
 20
2376.58
 11
-138.718
 21
2376.73
  0
LINE
  8
0
 10
-138.718
 20
2376.73
 11
-139.272
 21
2376.95
  0
LINE
  8
0
 10
-139.272
 20
2376.95
 11
-139.795
 21
2377.24
  0
LINE
  8
0
 10
-139.795
 20
2377.24
 11
-140.278
 21
2377.59
  0
LINE
  8
0
 10
-140.278
 20
2377.59
 11
-140.713
 21
2378
  0
LINE
  8
0
 10
-140.713
 20
2378
 11
-141.093
 21
2378.46
  0
LINE
  8
0
 10
-141.093
 20
2378.46
 11
-141.412
 21
2378.96
  0
LINE
  8
0
 10
-141.412
 20
2378.96
 11
-141.666
 21
2379.5
  0
LINE
  8
0
 10
-141.666
 20
2379.5
 11
-141.851
 21
2380.07
  0
LINE
  8
0
 10
-141.851
 20
2380.07
 11
-141.963
 21
2380.65
  0
LINE
  8
0
 10
-141.963
 20
2380.65
 11
-142
 21
2381.25
  0
LINE
  8
0
 10
-142
 20
2381.25
 11
-142
 21
2640.75
  0
LINE
  8
0
 10
-142
 20
2640.75
 11
-141.963
 21
2641.35
  0
LINE
  8
0
 10
-141.963
 20
2641.35
 11
-141.851
 21
2641.93
  0
LINE
  8
0
 10
-141.851
 20
2641.93
 11
-141.666
 21
2642.5
  0
LINE
  8
0
 10
-141.666
 20
2642.5
 11
-141.412
 21
2643.04
  0
LINE
  8
0
 10
-141.412
 20
2643.04
 11
-141.093
 21
2643.54
  0
LINE
  8
0
 10
-141.093
 20
2643.54
 11
-140.713
 21
2644
  0
LINE
  8
0
 10
-140.713
 20
2644
 11
-140.278
 21
2644.41
  0
LINE
  8
0
 10
-140.278
 20
2644.41
 11
-139.795
 21
2644.76
  0
LINE
  8
0
 10
-139.795
 20
2644.76
 11
-139.272
 21
2645.05
  0
LINE
  8
0
 10
-139.272
 20
2645.05
 11
-138.718
 21
2645.27
  0
LINE
  8
0
 10
-138.718
 20
2645.27
 11
-138.14
 21
2645.42
  0
LINE
  8
0
 10
-138.14
 20
2645.42
 11
-137.548
 21
2645.49
  0
LINE
  8
0
 10
-137.548
 20
2645.49
 11
137.548
 21
2645.49
  0
LINE
  8
0
 10
137.548
 20
2645.49
 11
138.14
 21
2645.42
  0
LINE
  8
0
 10
138.14
 20
2645.42
 11
138.718
 21
2645.27
  0
LINE
  8
0
 10
138.718
 20
2645.27
 11
139.272
 21
2645.05
  0
LINE
  8
0
 10
139.272
 20
2645.05
 11
139.795
 21
2644.76
  0
LINE
  8
0
 10
139.795
 20
2644.76
 11
140.278
 21
2644.41
  0
LINE
  8
0
 10
140.278
 20
2644.41
 11
140.713
 21
2644
  0
LINE
  8
0
 10
140.713
 20
2644
 11
141.093
 21
2643.54
  0
LINE
  8
0
 10
141.093
 20
2643.54
 11
141.412
 21
2643.04
  0
LINE
  8
0
 10
141.412
 20
2643.04
 11
141.666
 21
2642.5
  0
LINE
  8
0
 10
141.666
 20
2642.5
 11
141.851
 21
2641.93
  0
LINE
  8
0
 10
141.851
 20
2641.93
 11
141.963
 21
2641.35
  0
LINE
  8
0
 10
141.963
 20
2641.35
 11
142
 21
2640.75
  0
LINE
  8
0
 10
142
 20
2640.75
 11
142
 21
2381.25
  0
LINE
  8
0
 10
142
 20
2381.25
 11
141.963
 21
2380.65
  0
LINE
  8
0
 10
141.963
 20
2380.65
 11
141.851
 21
2380.07
  0
LINE
  8
0
 10
141.851
 20
2380.07
 11
141.666
 21
2379.5
  0
LINE
  8
0
 10
141.666
 20
2379.5
 11
141.412
 21
2378.96
  0
LINE
  8
0
 10
141.412
 20
2378.96
 11
141.093
 21
2378.46
  0
LINE
  8
0
 10
141.093
 20
2378.46
 11
140.713
 21
2378
  0
LINE
  8
0
 10
140.713
 20
2378
 11
140.278
 21
2377.59
  0
LINE
  8
0
 10
140.278
 20
2377.59
 11
139.795
 21
2377.24
  0
LINE
  8
0
 10
139.795
 20
2377.24
 11
139.272
 21
2376.95
  0
LINE
  8
0
 10
139.272
 20
2376.95
 11
138.718
 21
2376.73
  0
LINE
  8
0
 10
138.718
 20
2376.73
 11
138.14
 21
2376.58
  0
LINE
  8
0
 10
138.14
 20
2376.58
 11
137.548
 21
2376.51
  0
LINE
  8
0
 10
137.548
 20
2376.51
 11
-137.548
 21
2376.51
  0
LINE
  8
0
 10
138.437
 20
2097.09
 11
139.045
 21
2097.24
  0
LINE
  8
0
 10
139.045
 20
2097.24
 11
139.629
 21
2097.48
  0
LINE
  8
0
 10
139.629
 20
2097.48
 11
140.179
 21
2097.78
  0
LINE
  8
0
 10
140.179
 20
2097.78
 11
140.687
 21
2098.15
  0
LINE
  8
0
 10
140.687
 20
2098.15
 11
141.145
 21
2098.58
  0
LINE
  8
0
 10
141.145
 20
2098.58
 11
141.545
 21
2099.06
  0
LINE
  8
0
 10
141.545
 20
2099.06
 11
141.882
 21
2099.59
  0
LINE
  8
0
 10
141.882
 20
2099.59
 11
142.149
 21
2100.16
  0
LINE
  8
0
 10
142.149
 20
2100.16
 11
142.343
 21
2100.76
  0
LINE
  8
0
 10
142.343
 20
2100.76
 11
142.461
 21
2101.37
  0
LINE
  8
0
 10
142.461
 20
2101.37
 11
142.5
 21
2102
  0
LINE
  8
0
 10
142.5
 20
2102
 11
142.5
 21
2362
  0
LINE
  8
0
 10
142.5
 20
2362
 11
142.461
 21
2362.63
  0
LINE
  8
0
 10
142.461
 20
2362.63
 11
142.343
 21
2363.24
  0
LINE
  8
0
 10
142.343
 20
2363.24
 11
142.149
 21
2363.84
  0
LINE
  8
0
 10
142.149
 20
2363.84
 11
141.882
 21
2364.41
  0
LINE
  8
0
 10
141.882
 20
2364.41
 11
141.545
 21
2364.94
  0
LINE
  8
0
 10
141.545
 20
2364.94
 11
141.145
 21
2365.42
  0
LINE
  8
0
 10
141.145
 20
2365.42
 11
140.687
 21
2365.85
  0
LINE
  8
0
 10
140.687
 20
2365.85
 11
140.179
 21
2366.22
  0
LINE
  8
0
 10
140.179
 20
2366.22
 11
139.629
 21
2366.52
  0
LINE
  8
0
 10
139.629
 20
2366.52
 11
139.045
 21
2366.76
  0
LINE
  8
0
 10
139.045
 20
2366.76
 11
138.437
 21
2366.91
  0
LINE
  8
0
 10
138.437
 20
2366.91
 11
137.814
 21
2366.99
  0
LINE
  8
0
 10
137.814
 20
2366.99
 11
-137.814
 21
2366.99
  0
LINE
  8
0
 10
-137.814
 20
2366.99
 11
-138.437
 21
2366.91
  0
LINE
  8
0
 10
-138.437
 20
2366.91
 11
-139.045
 21
2366.76
  0
LINE
  8
0
 10
-139.045
 20
2366.76
 11
-139.629
 21
2366.52
  0
LINE
  8
0
 10
-139.629
 20
2366.52
 11
-140.179
 21
2366.22
  0
LINE
  8
0
 10
-140.179
 20
2366.22
 11
-140.687
 21
2365.85
  0
LINE
  8
0
 10
-140.687
 20
2365.85
 11
-141.145
 21
2365.42
  0
LINE
  8
0
 10
-141.145
 20
2365.42
 11
-141.545
 21
2364.94
  0
LINE
  8
0
 10
-141.545
 20
2364.94
 11
-141.882
 21
2364.41
  0
LINE
  8
0
 10
-141.882
 20
2364.41
 11
-142.149
 21
2363.84
  0
LINE
  8
0
 10
-142.149
 20
2363.84
 11
-142.343
 21
2363.24
  0
LINE
  8
0
 10
-142.343
 20
2363.24
 11
-142.461
 21
2362.63
  0
LINE
  8
0
 10
-142.461
 20
2362.63
 11
-142.5
 21
2362
  0
LINE
  8
0
 10
-142.5
 20
2362
 11
-142.5
 21
2102
  0
LINE
  8
0
 10
-142.5
 20
2102
 11
-142.461
 21
2101.37
  0
LINE
  8
0
 10
-142.461
 20
2101.37
 11
-142.343
 21
2100.76
  0
LINE
  8
0
 10
-142.343
 20
2100.76
 11
-142.149
 21
2100.16
  0
LINE
  8
0
 10
-142.149
 20
2100.16
 11
-141.882
 21
2099.59
  0
LINE
  8
0
 10
-141.882
 20
2099.59
 11
-141.545
 21
2099.06
  0
LINE
  8
0
 10
-141.545
 20
2099.06
 11
-141.145
 21
2098.58
  0
LINE
  8
0
 10
-141.145
 20
2098.58
 11
-140.687
 21
2098.15
  0
LINE
  8
0
 10
-140.687
 20
2098.15
 11
-140.179
 21
2097.78
  0
LINE
  8
0
 10
-140.179
 20
2097.78
 11
-139.629
 21
2097.48
  0
LINE
  8
0
 10
-139.629
 20
2097.48
 11
-139.045
 21
2097.24
  0
LINE
  8
0
 10
-139.045
 20
2097.24
 11
-138.437
 21
2097.09
  0
LINE
  8
0
 10
-138.437
 20
2097.09
 11
-137.814
 21
2097.01
  0
LINE
  8
0
 10
-137.814
 20
2097.01
 11
137.814
 21
2097.01
  0
LINE
  8
0
 10
137.814
 20
2097.01
 11
138.437
 21
2097.09
  0
LINE
  8
0
 10
-137.548
 20
2097.51
 11
-138.14
 21
2097.58
  0
LINE
  8
0
 10
-138.14
 20
2097.58
 11
-138.718
 21
2097.73
  0
LINE
  8
0
 10
-138.718
 20
2097.73
 11
-139.272
 21
2097.95
  0
LINE
  8
0
 10
-139.272
 20
2097.95
 11
-139.795
 21
2098.24
  0
LINE
  8
0
 10
-139.795
 20
2098.24
 11
-140.278
 21
2098.59
  0
LINE
  8
0
 10
-140.278
 20
2098.59
 11
-140.713
 21
2099
  0
LINE
  8
0
 10
-140.713
 20
2099
 11
-141.093
 21
2099.46
  0
LINE
  8
0
 10
-141.093
 20
2099.46
 11
-141.412
 21
2099.96
  0
LINE
  8
0
 10
-141.412
 20
2099.96
 11
-141.666
 21
2100.5
  0
LINE
  8
0
 10
-141.666
 20
2100.5
 11
-141.851
 21
2101.07
  0
LINE
  8
0
 10
-141.851
 20
2101.07
 11
-141.963
 21
2101.65
  0
LINE
  8
0
 10
-141.963
 20
2101.65
 11
-142
 21
2102.25
  0
LINE
  8
0
 10
-142
 20
2102.25
 11
-142
 21
2361.75
  0
LINE
  8
0
 10
-142
 20
2361.75
 11
-141.963
 21
2362.35
  0
LINE
  8
0
 10
-141.963
 20
2362.35
 11
-141.851
 21
2362.93
  0
LINE
  8
0
 10
-141.851
 20
2362.93
 11
-141.666
 21
2363.5
  0
LINE
  8
0
 10
-141.666
 20
2363.5
 11
-141.412
 21
2364.04
  0
LINE
  8
0
 10
-141.412
 20
2364.04
 11
-141.093
 21
2364.54
  0
LINE
  8
0
 10
-141.093
 20
2364.54
 11
-140.713
 21
2365
  0
LINE
  8
0
 10
-140.713
 20
2365
 11
-140.278
 21
2365.41
  0
LINE
  8
0
 10
-140.278
 20
2365.41
 11
-139.795
 21
2365.76
  0
LINE
  8
0
 10
-139.795
 20
2365.76
 11
-139.272
 21
2366.05
  0
LINE
  8
0
 10
-139.272
 20
2366.05
 11
-138.718
 21
2366.27
  0
LINE
  8
0
 10
-138.718
 20
2366.27
 11
-138.14
 21
2366.42
  0
LINE
  8
0
 10
-138.14
 20
2366.42
 11
-137.548
 21
2366.49
  0
LINE
  8
0
 10
-137.548
 20
2366.49
 11
137.548
 21
2366.49
  0
LINE
  8
0
 10
137.548
 20
2366.49
 11
138.14
 21
2366.42
  0
LINE
  8
0
 10
138.14
 20
2366.42
 11
138.718
 21
2366.27
  0
LINE
  8
0
 10
138.718
 20
2366.27
 11
139.272
 21
2366.05
  0
LINE
  8
0
 10
139.272
 20
2366.05
 11
139.795
 21
2365.76
  0
LINE
  8
0
 10
139.795
 20
2365.76
 11
140.278
 21
2365.41
  0
LINE
  8
0
 10
140.278
 20
2365.41
 11
140.713
 21
2365
  0
LINE
  8
0
 10
140.713
 20
2365
 11
141.093
 21
2364.54
  0
LINE
  8
0
 10
141.093
 20
2364.54
 11
141.412
 21
2364.04
  0
LINE
  8
0
 10
141.412
 20
2364.04
 11
141.666
 21
2363.5
  0
LINE
  8
0
 10
141.666
 20
2363.5
 11
141.851
 21
2362.93
  0
LINE
  8
0
 10
141.851
 20
2362.93
 11
141.963
 21
2362.35
  0
LINE
  8
0
 10
141.963
 20
2362.35
 11
142
 21
2361.75
  0
LINE
  8
0
 10
142
 20
2361.75
 11
142
 21
2102.25
  0
LINE
  8
0
 10
142
 20
2102.25
 11
141.963
 21
2101.65
  0
LINE
  8
0
 10
141.963
 20
2101.65
 11
141.851
 21
2101.07
  0
LINE
  8
0
 10
141.851
 20
2101.07
 11
141.666
 21
2100.5
  0
LINE
  8
0
 10
141.666
 20
2100.5
 11
141.412
 21
2099.96
  0
LINE
  8
0
 10
141.412
 20
2099.96
 11
141.093
 21
2099.46
  0
LINE
  8
0
 10
141.093
 20
2099.46
 11
140.713
 21
2099
  0
LINE
  8
0
 10
140.713
 20
2099
 11
140.278
 21
2098.59
  0
LINE
  8
0
 10
140.278
 20
2098.59
 11
139.795
 21
2098.24
  0
LINE
  8
0
 10
139.795
 20
2098.24
 11
139.272
 21
2097.95
  0
LINE
  8
0
 10
139.272
 20
2097.95
 11
138.718
 21
2097.73
  0
LINE
  8
0
 10
138.718
 20
2097.73
 11
138.14
 21
2097.58
  0
LINE
  8
0
 10
138.14
 20
2097.58
 11
137.548
 21
2097.51
  0
LINE
  8
0
 10
137.548
 20
2097.51
 11
-137.548
 21
2097.51
  0
LINE
  8
0
 10
138.437
 20
1818.09
 11
139.045
 21
1818.24
  0
LINE
  8
0
 10
139.045
 20
1818.24
 11
139.629
 21
1818.48
  0
LINE
  8
0
 10
139.629
 20
1818.48
 11
140.179
 21
1818.78
  0
LINE
  8
0
 10
140.179
 20
1818.78
 11
140.687
 21
1819.15
  0
LINE
  8
0
 10
140.687
 20
1819.15
 11
141.145
 21
1819.58
  0
LINE
  8
0
 10
141.145
 20
1819.58
 11
141.545
 21
1820.06
  0
LINE
  8
0
 10
141.545
 20
1820.06
 11
141.882
 21
1820.59
  0
LINE
  8
0
 10
141.882
 20
1820.59
 11
142.149
 21
1821.16
  0
LINE
  8
0
 10
142.149
 20
1821.16
 11
142.343
 21
1821.76
  0
LINE
  8
0
 10
142.343
 20
1821.76
 11
142.461
 21
1822.37
  0
LINE
  8
0
 10
142.461
 20
1822.37
 11
142.5
 21
1823
  0
LINE
  8
0
 10
142.5
 20
1823
 11
142.5
 21
2083
  0
LINE
  8
0
 10
142.5
 20
2083
 11
142.461
 21
2083.63
  0
LINE
  8
0
 10
142.461
 20
2083.63
 11
142.343
 21
2084.24
  0
LINE
  8
0
 10
142.343
 20
2084.24
 11
142.149
 21
2084.84
  0
LINE
  8
0
 10
142.149
 20
2084.84
 11
141.882
 21
2085.41
  0
LINE
  8
0
 10
141.882
 20
2085.41
 11
141.545
 21
2085.94
  0
LINE
  8
0
 10
141.545
 20
2085.94
 11
141.145
 21
2086.42
  0
LINE
  8
0
 10
141.145
 20
2086.42
 11
140.687
 21
2086.85
  0
LINE
  8
0
 10
140.687
 20
2086.85
 11
140.179
 21
2087.22
  0
LINE
  8
0
 10
140.179
 20
2087.22
 11
139.629
 21
2087.52
  0
LINE
  8
0
 10
139.629
 20
2087.52
 11
139.045
 21
2087.76
  0
LINE
  8
0
 10
139.045
 20
2087.76
 11
138.437
 21
2087.91
  0
LINE
  8
0
 10
138.437
 20
2087.91
 11
137.814
 21
2087.99
  0
LINE
  8
0
 10
137.814
 20
2087.99
 11
-137.814
 21
2087.99
  0
LINE
  8
0
 10
-137.814
 20
2087.99
 11
-138.437
 21
2087.91
  0
LINE
  8
0
 10
-138.437
 20
2087.91
 11
-139.045
 21
2087.76
  0
LINE
  8
0
 10
-139.045
 20
2087.76
 11
-139.629
 21
2087.52
  0
LINE
  8
0
 10
-139.629
 20
2087.52
 11
-140.179
 21
2087.22
  0
LINE
  8
0
 10
-140.179
 20
2087.22
 11
-140.687
 21
2086.85
  0
LINE
  8
0
 10
-140.687
 20
2086.85
 11
-141.145
 21
2086.42
  0
LINE
  8
0
 10
-141.145
 20
2086.42
 11
-141.545
 21
2085.94
  0
LINE
  8
0
 10
-141.545
 20
2085.94
 11
-141.882
 21
2085.41
  0
LINE
  8
0
 10
-141.882
 20
2085.41
 11
-142.149
 21
2084.84
  0
LINE
  8
0
 10
-142.149
 20
2084.84
 11
-142.343
 21
2084.24
  0
LINE
  8
0
 10
-142.343
 20
2084.24
 11
-142.461
 21
2083.63
  0
LINE
  8
0
 10
-142.461
 20
2083.63
 11
-142.5
 21
2083
  0
LINE
  8
0
 10
-142.5
 20
2083
 11
-142.5
 21
1823
  0
LINE
  8
0
 10
-142.5
 20
1823
 11
-142.461
 21
1822.37
  0
LINE
  8
0
 10
-142.461
 20
1822.37
 11
-142.343
 21
1821.76
  0
LINE
  8
0
 10
-142.343
 20
1821.76
 11
-142.149
 21
1821.16
  0
LINE
  8
0
 10
-142.149
 20
1821.16
 11
-141.882
 21
1820.59
  0
LINE
  8
0
 10
-141.882
 20
1820.59
 11
-141.545
 21
1820.06
  0
LINE
  8
0
 10
-141.545
 20
1820.06
 11
-141.145
 21
1819.58
  0
LINE
  8
0
 10
-141.145
 20
1819.58
 11
-140.687
 21
1819.15
  0
LINE
  8
0
 10
-140.687
 20
1819.15
 11
-140.179
 21
1818.78
  0
LINE
  8
0
 10
-140.179
 20
1818.78
 11
-139.629
 21
1818.48
  0
LINE
  8
0
 10
-139.629
 20
1818.48
 11
-139.045
 21
1818.24
  0
LINE
  8
0
 10
-139.045
 20
1818.24
 11
-138.437
 21
1818.09
  0
LINE
  8
0
 10
-138.437
 20
1818.09
 11
-137.814
 21
1818.01
  0
LINE
  8
0
 10
-137.814
 20
1818.01
 11
137.814
 21
1818.01
  0
LINE
  8
0
 10
137.814
 20
1818.01
 11
138.437
 21
1818.09
  0
LINE
  8
0
 10
-137.548
 20
1818.51
 11
-138.14
 21
1818.58
  0
LINE
  8
0
 10
-138.14
 20
1818.58
 11
-138.718
 21
1818.73
  0
LINE
  8
0
 10
-138.718
 20
1818.73
 11
-139.272
 21
1818.95
  0
LINE
  8
0
 10
-139.272
 20
1818.95
 11
-139.795
 21
1819.24
  0
LINE
  8
0
 10
-139.795
 20
1819.24
 11
-140.278
 21
1819.59
  0
LINE
  8
0
 10
-140.278
 20
1819.59
 11
-140.713
 21
1820
  0
LINE
  8
0
 10
-140.713
 20
1820
 11
-141.093
 21
1820.46
  0
LINE
  8
0
 10
-141.093
 20
1820.46
 11
-141.412
 21
1820.96
  0
LINE
  8
0
 10
-141.412
 20
1820.96
 11
-141.666
 21
1821.5
  0
LINE
  8
0
 10
-141.666
 20
1821.5
 11
-141.851
 21
1822.07
  0
LINE
  8
0
 10
-141.851
 20
1822.07
 11
-141.963
 21
1822.65
  0
LINE
  8
0
 10
-141.963
 20
1822.65
 11
-142
 21
1823.25
  0
LINE
  8
0
 10
-142
 20
1823.25
 11
-142
 21
2082.75
  0
LINE
  8
0
 10
-142
 20
2082.75
 11
-141.963
 21
2083.35
  0
LINE
  8
0
 10
-141.963
 20
2083.35
 11
-141.851
 21
2083.93
  0
LINE
  8
0
 10
-141.851
 20
2083.93
 11
-141.666
 21
2084.5
  0
LINE
  8
0
 10
-141.666
 20
2084.5
 11
-141.412
 21
2085.04
  0
LINE
  8
0
 10
-141.412
 20
2085.04
 11
-141.093
 21
2085.54
  0
LINE
  8
0
 10
-141.093
 20
2085.54
 11
-140.713
 21
2086
  0
LINE
  8
0
 10
-140.713
 20
2086
 11
-140.278
 21
2086.41
  0
LINE
  8
0
 10
-140.278
 20
2086.41
 11
-139.795
 21
2086.76
  0
LINE
  8
0
 10
-139.795
 20
2086.76
 11
-139.272
 21
2087.05
  0
LINE
  8
0
 10
-139.272
 20
2087.05
 11
-138.718
 21
2087.27
  0
LINE
  8
0
 10
-138.718
 20
2087.27
 11
-138.14
 21
2087.42
  0
LINE
  8
0
 10
-138.14
 20
2087.42
 11
-137.548
 21
2087.49
  0
LINE
  8
0
 10
-137.548
 20
2087.49
 11
137.548
 21
2087.49
  0
LINE
  8
0
 10
137.548
 20
2087.49
 11
138.14
 21
2087.42
  0
LINE
  8
0
 10
138.14
 20
2087.42
 11
138.718
 21
2087.27
  0
LINE
  8
0
 10
138.718
 20
2087.27
 11
139.272
 21
2087.05
  0
LINE
  8
0
 10
139.272
 20
2087.05
 11
139.795
 21
2086.76
  0
LINE
  8
0
 10
139.795
 20
2086.76
 11
140.278
 21
2086.41
  0
LINE
  8
0
 10
140.278
 20
2086.41
 11
140.713
 21
2086
  0
LINE
  8
0
 10
140.713
 20
2086
 11
141.093
 21
2085.54
  0
LINE
  8
0
 10
141.093
 20
2085.54
 11
141.412
 21
2085.04
  0
LINE
  8
0
 10
141.412
 20
2085.04
 11
141.666
 21
2084.5
  0
LINE
  8
0
 10
141.666
 20
2084.5
 11
141.851
 21
2083.93
  0
LINE
  8
0
 10
141.851
 20
2083.93
 11
141.963
 21
2083.35
  0
LINE
  8
0
 10
141.963
 20
2083.35
 11
142
 21
2082.75
  0
LINE
  8
0
 10
142
 20
2082.75
 11
142
 21
1823.25
  0
LINE
  8
0
 10
142
 20
1823.25
 11
141.963
 21
1822.65
  0
LINE
  8
0
 10
141.963
 20
1822.65
 11
141.851
 21
1822.07
  0
LINE
  8
0
 10
141.851
 20
1822.07
 11
141.666
 21
1821.5
  0
LINE
  8
0
 10
141.666
 20
1821.5
 11
141.412
 21
1820.96
  0
LINE
  8
0
 10
141.412
 20
1820.96
 11
141.093
 21
1820.46
  0
LINE
  8
0
 10
141.093
 20
1820.46
 11
140.713
 21
1820
  0
LINE
  8
0
 10
140.713
 20
1820
 11
140.278
 21
1819.59
  0
LINE
  8
0
 10
140.278
 20
1819.59
 11
139.795
 21
1819.24
  0
LINE
  8
0
 10
139.795
 20
1819.24
 11
139.272
 21
1818.95
  0
LINE
  8
0
 10
139.272
 20
1818.95
 11
138.718
 21
1818.73
  0
LINE
  8
0
 10
138.718
 20
1818.73
 11
138.14
 21
1818.58
  0
LINE
  8
0
 10
138.14
 20
1818.58
 11
137.548
 21
1818.51
  0
LINE
  8
0
 10
137.548
 20
1818.51
 11
-137.548
 21
1818.51
  0
LINE
  8
0
 10
138.437
 20
1539.09
 11
139.045
 21
1539.24
  0
LINE
  8
0
 10
139.045
 20
1539.24
 11
139.629
 21
1539.48
  0
LINE
  8
0
 10
139.629
 20
1539.48
 11
140.179
 21
1539.78
  0
LINE
  8
0
 10
140.179
 20
1539.78
 11
140.687
 21
1540.15
  0
LINE
  8
0
 10
140.687
 20
1540.15
 11
141.145
 21
1540.58
  0
LINE
  8
0
 10
141.145
 20
1540.58
 11
141.545
 21
1541.06
  0
LINE
  8
0
 10
141.545
 20
1541.06
 11
141.882
 21
1541.59
  0
LINE
  8
0
 10
141.882
 20
1541.59
 11
142.149
 21
1542.16
  0
LINE
  8
0
 10
142.149
 20
1542.16
 11
142.343
 21
1542.76
  0
LINE
  8
0
 10
142.343
 20
1542.76
 11
142.461
 21
1543.37
  0
LINE
  8
0
 10
142.461
 20
1543.37
 11
142.5
 21
1544
  0
LINE
  8
0
 10
142.5
 20
1544
 11
142.5
 21
1804
  0
LINE
  8
0
 10
142.5
 20
1804
 11
142.461
 21
1804.63
  0
LINE
  8
0
 10
142.461
 20
1804.63
 11
142.343
 21
1805.24
  0
LINE
  8
0
 10
142.343
 20
1805.24
 11
142.149
 21
1805.84
  0
LINE
  8
0
 10
142.149
 20
1805.84
 11
141.882
 21
1806.41
  0
LINE
  8
0
 10
141.882
 20
1806.41
 11
141.545
 21
1806.94
  0
LINE
  8
0
 10
141.545
 20
1806.94
 11
141.145
 21
1807.42
  0
LINE
  8
0
 10
141.145
 20
1807.42
 11
140.687
 21
1807.85
  0
LINE
  8
0
 10
140.687
 20
1807.85
 11
140.179
 21
1808.22
  0
LINE
  8
0
 10
140.179
 20
1808.22
 11
139.629
 21
1808.52
  0
LINE
  8
0
 10
139.629
 20
1808.52
 11
139.045
 21
1808.76
  0
LINE
  8
0
 10
139.045
 20
1808.76
 11
138.437
 21
1808.91
  0
LINE
  8
0
 10
138.437
 20
1808.91
 11
137.814
 21
1808.99
  0
LINE
  8
0
 10
137.814
 20
1808.99
 11
-137.814
 21
1808.99
  0
LINE
  8
0
 10
-137.814
 20
1808.99
 11
-138.437
 21
1808.91
  0
LINE
  8
0
 10
-138.437
 20
1808.91
 11
-139.045
 21
1808.76
  0
LINE
  8
0
 10
-139.045
 20
1808.76
 11
-139.629
 21
1808.52
  0
LINE
  8
0
 10
-139.629
 20
1808.52
 11
-140.179
 21
1808.22
  0
LINE
  8
0
 10
-140.179
 20
1808.22
 11
-140.687
 21
1807.85
  0
LINE
  8
0
 10
-140.687
 20
1807.85
 11
-141.145
 21
1807.42
  0
LINE
  8
0
 10
-141.145
 20
1807.42
 11
-141.545
 21
1806.94
  0
LINE
  8
0
 10
-141.545
 20
1806.94
 11
-141.882
 21
1806.41
  0
LINE
  8
0
 10
-141.882
 20
1806.41
 11
-142.149
 21
1805.84
  0
LINE
  8
0
 10
-142.149
 20
1805.84
 11
-142.343
 21
1805.24
  0
LINE
  8
0
 10
-142.343
 20
1805.24
 11
-142.461
 21
1804.63
  0
LINE
  8
0
 10
-142.461
 20
1804.63
 11
-142.5
 21
1804
  0
LINE
  8
0
 10
-142.5
 20
1804
 11
-142.5
 21
1544
  0
LINE
  8
0
 10
-142.5
 20
1544
 11
-142.461
 21
1543.37
  0
LINE
  8
0
 10
-142.461
 20
1543.37
 11
-142.343
 21
1542.76
  0
LINE
  8
0
 10
-142.343
 20
1542.76
 11
-142.149
 21
1542.16
  0
LINE
  8
0
 10
-142.149
 20
1542.16
 11
-141.882
 21
1541.59
  0
LINE
  8
0
 10
-141.882
 20
1541.59
 11
-141.545
 21
1541.06
  0
LINE
  8
0
 10
-141.545
 20
1541.06
 11
-141.145
 21
1540.58
  0
LINE
  8
0
 10
-141.145
 20
1540.58
 11
-140.687
 21
1540.15
  0
LINE
  8
0
 10
-140.687
 20
1540.15
 11
-140.179
 21
1539.78
  0
LINE
  8
0
 10
-140.179
 20
1539.78
 11
-139.629
 21
1539.48
  0
LINE
  8
0
 10
-139.629
 20
1539.48
 11
-139.045
 21
1539.24
  0
LINE
  8
0
 10
-139.045
 20
1539.24
 11
-138.437
 21
1539.09
  0
LINE
  8
0
 10
-138.437
 20
1539.09
 11
-137.814
 21
1539.01
  0
LINE
  8
0
 10
-137.814
 20
1539.01
 11
137.814
 21
1539.01
  0
LINE
  8
0
 10
137.814
 20
1539.01
 11
138.437
 21
1539.09
  0
LINE
  8
0
 10
-137.537
 20
1539.68
 11
-138.108
 21
1539.75
  0
LINE
  8
0
 10
-138.108
 20
1539.75
 11
-138.665
 21
1539.9
  0
LINE
  8
0
 10
-138.665
 20
1539.9
 11
-139.199
 21
1540.11
  0
LINE
  8
0
 10
-139.199
 20
1540.11
 11
-139.703
 21
1540.38
  0
LINE
  8
0
 10
-139.703
 20
1540.38
 11
-140.168
 21
1540.72
  0
LINE
  8
0
 10
-140.168
 20
1540.72
 11
-140.588
 21
1541.12
  0
LINE
  8
0
 10
-140.588
 20
1541.12
 11
-140.954
 21
1541.56
  0
LINE
  8
0
 10
-140.954
 20
1541.56
 11
-141.262
 21
1542.04
  0
LINE
  8
0
 10
-141.262
 20
1542.04
 11
-141.507
 21
1542.56
  0
LINE
  8
0
 10
-141.507
 20
1542.56
 11
-141.685
 21
1543.11
  0
LINE
  8
0
 10
-141.685
 20
1543.11
 11
-141.792
 21
1543.68
  0
LINE
  8
0
 10
-141.792
 20
1543.68
 11
-141.828
 21
1544.25
  0
LINE
  8
0
 10
-141.828
 20
1544.25
 11
-141.828
 21
1803.75
  0
LINE
  8
0
 10
-141.828
 20
1803.75
 11
-141.792
 21
1804.32
  0
LINE
  8
0
 10
-141.792
 20
1804.32
 11
-141.685
 21
1804.89
  0
LINE
  8
0
 10
-141.685
 20
1804.89
 11
-141.507
 21
1805.44
  0
LINE
  8
0
 10
-141.507
 20
1805.44
 11
-141.262
 21
1805.96
  0
LINE
  8
0
 10
-141.262
 20
1805.96
 11
-140.954
 21
1806.44
  0
LINE
  8
0
 10
-140.954
 20
1806.44
 11
-140.588
 21
1806.88
  0
LINE
  8
0
 10
-140.588
 20
1806.88
 11
-140.168
 21
1807.28
  0
LINE
  8
0
 10
-140.168
 20
1807.28
 11
-139.703
 21
1807.62
  0
LINE
  8
0
 10
-139.703
 20
1807.62
 11
-139.199
 21
1807.89
  0
LINE
  8
0
 10
-139.199
 20
1807.89
 11
-138.665
 21
1808.1
  0
LINE
  8
0
 10
-138.665
 20
1808.1
 11
-138.108
 21
1808.25
  0
LINE
  8
0
 10
-138.108
 20
1808.25
 11
-137.537
 21
1808.32
  0
LINE
  8
0
 10
-137.537
 20
1808.32
 11
137.537
 21
1808.32
  0
LINE
  8
0
 10
137.537
 20
1808.32
 11
138.108
 21
1808.25
  0
LINE
  8
0
 10
138.108
 20
1808.25
 11
138.665
 21
1808.1
  0
LINE
  8
0
 10
138.665
 20
1808.1
 11
139.199
 21
1807.89
  0
LINE
  8
0
 10
139.199
 20
1807.89
 11
139.703
 21
1807.62
  0
LINE
  8
0
 10
139.703
 20
1807.62
 11
140.168
 21
1807.28
  0
LINE
  8
0
 10
140.168
 20
1807.28
 11
140.588
 21
1806.88
  0
LINE
  8
0
 10
140.588
 20
1806.88
 11
140.954
 21
1806.44
  0
LINE
  8
0
 10
140.954
 20
1806.44
 11
141.262
 21
1805.96
  0
LINE
  8
0
 10
141.262
 20
1805.96
 11
141.507
 21
1805.44
  0
LINE
  8
0
 10
141.507
 20
1805.44
 11
141.685
 21
1804.89
  0
LINE
  8
0
 10
141.685
 20
1804.89
 11
141.792
 21
1804.32
  0
LINE
  8
0
 10
141.792
 20
1804.32
 11
141.828
 21
1803.75
  0
LINE
  8
0
 10
141.828
 20
1803.75
 11
141.828
 21
1544.25
  0
LINE
  8
0
 10
141.828
 20
1544.25
 11
141.792
 21
1543.68
  0
LINE
  8
0
 10
141.792
 20
1543.68
 11
141.685
 21
1543.11
  0
LINE
  8
0
 10
141.685
 20
1543.11
 11
141.507
 21
1542.56
  0
LINE
  8
0
 10
141.507
 20
1542.56
 11
141.262
 21
1542.04
  0
LINE
  8
0
 10
141.262
 20
1542.04
 11
140.954
 21
1541.56
  0
LINE
  8
0
 10
140.954
 20
1541.56
 11
140.588
 21
1541.12
  0
LINE
  8
0
 10
140.588
 20
1541.12
 11
140.168
 21
1540.72
  0
LINE
  8
0
 10
140.168
 20
1540.72
 11
139.703
 21
1540.38
  0
LINE
  8
0
 10
139.703
 20
1540.38
 11
139.199
 21
1540.11
  0
LINE
  8
0
 10
139.199
 20
1540.11
 11
138.665
 21
1539.9
  0
LINE
  8
0
 10
138.665
 20
1539.9
 11
138.108
 21
1539.75
  0
LINE
  8
0
 10
138.108
 20
1539.75
 11
137.537
 21
1539.68
  0
LINE
  8
0
 10
137.537
 20
1539.68
 11
-137.537
 21
1539.68
  0
LINE
  8
0
 10
138.437
 20
1260.09
 11
139.045
 21
1260.24
  0
LINE
  8
0
 10
139.045
 20
1260.24
 11
139.629
 21
1260.48
  0
LINE
  8
0
 10
139.629
 20
1260.48
 11
140.179
 21
1260.78
  0
LINE
  8
0
 10
140.179
 20
1260.78
 11
140.687
 21
1261.15
  0
LINE
  8
0
 10
140.687
 20
1261.15
 11
141.145
 21
1261.58
  0
LINE
  8
0
 10
141.145
 20
1261.58
 11
141.545
 21
1262.06
  0
LINE
  8
0
 10
141.545
 20
1262.06
 11
141.882
 21
1262.59
  0
LINE
  8
0
 10
141.882
 20
1262.59
 11
142.149
 21
1263.16
  0
LINE
  8
0
 10
142.149
 20
1263.16
 11
142.343
 21
1263.76
  0
LINE
  8
0
 10
142.343
 20
1263.76
 11
142.461
 21
1264.37
  0
LINE
  8
0
 10
142.461
 20
1264.37
 11
142.5
 21
1265
  0
LINE
  8
0
 10
142.5
 20
1265
 11
142.5
 21
1525
  0
LINE
  8
0
 10
142.5
 20
1525
 11
142.461
 21
1525.63
  0
LINE
  8
0
 10
142.461
 20
1525.63
 11
142.343
 21
1526.24
  0
LINE
  8
0
 10
142.343
 20
1526.24
 11
142.149
 21
1526.84
  0
LINE
  8
0
 10
142.149
 20
1526.84
 11
141.882
 21
1527.41
  0
LINE
  8
0
 10
141.882
 20
1527.41
 11
141.545
 21
1527.94
  0
LINE
  8
0
 10
141.545
 20
1527.94
 11
141.145
 21
1528.42
  0
LINE
  8
0
 10
141.145
 20
1528.42
 11
140.687
 21
1528.85
  0
LINE
  8
0
 10
140.687
 20
1528.85
 11
140.179
 21
1529.22
  0
LINE
  8
0
 10
140.179
 20
1529.22
 11
139.629
 21
1529.52
  0
LINE
  8
0
 10
139.629
 20
1529.52
 11
139.045
 21
1529.76
  0
LINE
  8
0
 10
139.045
 20
1529.76
 11
138.437
 21
1529.91
  0
LINE
  8
0
 10
138.437
 20
1529.91
 11
137.814
 21
1529.99
  0
LINE
  8
0
 10
137.814
 20
1529.99
 11
-137.814
 21
1529.99
  0
LINE
  8
0
 10
-137.814
 20
1529.99
 11
-138.437
 21
1529.91
  0
LINE
  8
0
 10
-138.437
 20
1529.91
 11
-139.045
 21
1529.76
  0
LINE
  8
0
 10
-139.045
 20
1529.76
 11
-139.629
 21
1529.52
  0
LINE
  8
0
 10
-139.629
 20
1529.52
 11
-140.179
 21
1529.22
  0
LINE
  8
0
 10
-140.179
 20
1529.22
 11
-140.687
 21
1528.85
  0
LINE
  8
0
 10
-140.687
 20
1528.85
 11
-141.145
 21
1528.42
  0
LINE
  8
0
 10
-141.145
 20
1528.42
 11
-141.545
 21
1527.94
  0
LINE
  8
0
 10
-141.545
 20
1527.94
 11
-141.882
 21
1527.41
  0
LINE
  8
0
 10
-141.882
 20
1527.41
 11
-142.149
 21
1526.84
  0
LINE
  8
0
 10
-142.149
 20
1526.84
 11
-142.343
 21
1526.24
  0
LINE
  8
0
 10
-142.343
 20
1526.24
 11
-142.461
 21
1525.63
  0
LINE
  8
0
 10
-142.461
 20
1525.63
 11
-142.5
 21
1525
  0
LINE
  8
0
 10
-142.5
 20
1525
 11
-142.5
 21
1265
  0
LINE
  8
0
 10
-142.5
 20
1265
 11
-142.461
 21
1264.37
  0
LINE
  8
0
 10
-142.461
 20
1264.37
 11
-142.343
 21
1263.76
  0
LINE
  8
0
 10
-142.343
 20
1263.76
 11
-142.149
 21
1263.16
  0
LINE
  8
0
 10
-142.149
 20
1263.16
 11
-141.882
 21
1262.59
  0
LINE
  8
0
 10
-141.882
 20
1262.59
 11
-141.545
 21
1262.06
  0
LINE
  8
0
 10
-141.545
 20
1262.06
 11
-141.145
 21
1261.58
  0
LINE
  8
0
 10
-141.145
 20
1261.58
 11
-140.687
 21
1261.15
  0
LINE
  8
0
 10
-140.687
 20
1261.15
 11
-140.179
 21
1260.78
  0
LINE
  8
0
 10
-140.179
 20
1260.78
 11
-139.629
 21
1260.48
  0
LINE
  8
0
 10
-139.629
 20
1260.48
 11
-139.045
 21
1260.24
  0
LINE
  8
0
 10
-139.045
 20
1260.24
 11
-138.437
 21
1260.09
  0
LINE
  8
0
 10
-138.437
 20
1260.09
 11
-137.814
 21
1260.01
  0
LINE
  8
0
 10
-137.814
 20
1260.01
 11
137.814
 21
1260.01
  0
LINE
  8
0
 10
137.814
 20
1260.01
 11
138.437
 21
1260.09
  0
LINE
  8
0
 10
-137.382
 20
1263.14
 11
-137.645
 21
1263.18
  0
LINE
  8
0
 10
-137.645
 20
1263.18
 11
-137.902
 21
1263.24
  0
LINE
  8
0
 10
-137.902
 20
1263.24
 11
-138.148
 21
1263.34
  0
LINE
  8
0
 10
-138.148
 20
1263.34
 11
-138.38
 21
1263.47
  0
LINE
  8
0
 10
-138.38
 20
1263.47
 11
-138.595
 21
1263.62
  0
LINE
  8
0
 10
-138.595
 20
1263.62
 11
-138.788
 21
1263.81
  0
LINE
  8
0
 10
-138.788
 20
1263.81
 11
-138.957
 21
1264.01
  0
LINE
  8
0
 10
-138.957
 20
1264.01
 11
-139.099
 21
1264.23
  0
LINE
  8
0
 10
-139.099
 20
1264.23
 11
-139.211
 21
1264.47
  0
LINE
  8
0
 10
-139.211
 20
1264.47
 11
-139.293
 21
1264.73
  0
LINE
  8
0
 10
-139.293
 20
1264.73
 11
-139.343
 21
1264.99
  0
LINE
  8
0
 10
-139.343
 20
1264.99
 11
-139.36
 21
1265.25
  0
LINE
  8
0
 10
-139.36
 20
1265.25
 11
-139.36
 21
1524.75
  0
LINE
  8
0
 10
-139.36
 20
1524.75
 11
-139.343
 21
1525.01
  0
LINE
  8
0
 10
-139.343
 20
1525.01
 11
-139.293
 21
1525.27
  0
LINE
  8
0
 10
-139.293
 20
1525.27
 11
-139.211
 21
1525.53
  0
LINE
  8
0
 10
-139.211
 20
1525.53
 11
-139.099
 21
1525.77
  0
LINE
  8
0
 10
-139.099
 20
1525.77
 11
-138.957
 21
1525.99
  0
LINE
  8
0
 10
-138.957
 20
1525.99
 11
-138.788
 21
1526.19
  0
LINE
  8
0
 10
-138.788
 20
1526.19
 11
-138.595
 21
1526.38
  0
LINE
  8
0
 10
-138.595
 20
1526.38
 11
-138.38
 21
1526.53
  0
LINE
  8
0
 10
-138.38
 20
1526.53
 11
-138.148
 21
1526.66
  0
LINE
  8
0
 10
-138.148
 20
1526.66
 11
-137.902
 21
1526.76
  0
LINE
  8
0
 10
-137.902
 20
1526.76
 11
-137.645
 21
1526.82
  0
LINE
  8
0
 10
-137.645
 20
1526.82
 11
-137.382
 21
1526.86
  0
LINE
  8
0
 10
-137.382
 20
1526.86
 11
137.382
 21
1526.86
  0
LINE
  8
0
 10
137.382
 20
1526.86
 11
137.645
 21
1526.82
  0
LINE
  8
0
 10
137.645
 20
1526.82
 11
137.902
 21
1526.76
  0
LINE
  8
0
 10
137.902
 20
1526.76
 11
138.148
 21
1526.66
  0
LINE
  8
0
 10
138.148
 20
1526.66
 11
138.38
 21
1526.53
  0
LINE
  8
0
 10
138.38
 20
1526.53
 11
138.595
 21
1526.38
  0
LINE
  8
0
 10
138.595
 20
1526.38
 11
138.788
 21
1526.19
  0
LINE
  8
0
 10
138.788
 20
1526.19
 11
138.957
 21
1525.99
  0
LINE
  8
0
 10
138.957
 20
1525.99
 11
139.099
 21
1525.77
  0
LINE
  8
0
 10
139.099
 20
1525.77
 11
139.211
 21
1525.53
  0
LINE
  8
0
 10
139.211
 20
1525.53
 11
139.293
 21
1525.27
  0
LINE
  8
0
 10
139.293
 20
1525.27
 11
139.343
 21
1525.01
  0
LINE
  8
0
 10
139.343
 20
1525.01
 11
139.36
 21
1524.75
  0
LINE
  8
0
 10
139.36
 20
1524.75
 11
139.36
 21
1265.25
  0
LINE
  8
0
 10
139.36
 20
1265.25
 11
139.343
 21
1264.99
  0
LINE
  8
0
 10
139.343
 20
1264.99
 11
139.293
 21
1264.73
  0
LINE
  8
0
 10
139.293
 20
1264.73
 11
139.211
 21
1264.47
  0
LINE
  8
0
 10
139.211
 20
1264.47
 11
139.099
 21
1264.23
  0
LINE
  8
0
 10
139.099
 20
1264.23
 11
138.957
 21
1264.01
  0
LINE
  8
0
 10
138.957
 20
1264.01
 11
138.788
 21
1263.81
  0
LINE
  8
0
 10
138.788
 20
1263.81
 11
138.595
 21
1263.62
  0
LINE
  8
0
 10
138.595
 20
1263.62
 11
138.38
 21
1263.47
  0
LINE
  8
0
 10
138.38
 20
1263.47
 11
138.148
 21
1263.34
  0
LINE
  8
0
 10
138.148
 20
1263.34
 11
137.902
 21
1263.24
  0
LINE
  8
0
 10
137.902
 20
1263.24
 11
137.645
 21
1263.18
  0
LINE
  8
0
 10
137.645
 20
1263.18
 11
137.382
 21
1263.14
  0
LINE
  8
0
 10
137.382
 20
1263.14
 11
-137.382
 21
1263.14
  0
ENDSEC
  0
SECTION
  2
OBJECTS
  0
DICTIONARY
  0
ENDSEC
  0
EOF
