<?xml version="1.0" standalone="no"?>
<!DOCTYPE svg PUBLIC "-//W3C//DTD SVG 1.1//EN" "http://www.w3.org/Graphics/SVG/1.1/DTD/svg11.dtd">
<svg width="270mm" height="108mm" viewBox="-135 -210 270 108" xmlns="http://www.w3.org/2000/svg" version="1.1">
<title>OpenSCAD Model</title>
<path d="
M 130.937,-180.089 L 131.545,-180.245 L 132.129,-180.476 L 132.679,-180.778 L 133.187,-181.147 L 133.645,-181.577
 L 134.045,-182.061 L 134.382,-182.591 L 134.649,-183.159 L 134.843,-183.757 L 134.961,-184.373 L 135,-185
 L 135,-205 L 134.961,-205.627 L 134.843,-206.243 L 134.649,-206.841 L 134.382,-207.409 L 134.045,-207.939
 L 133.645,-208.423 L 133.187,-208.853 L 132.679,-209.222 L 132.129,-209.524 L 131.545,-209.755 L 130.937,-209.911
 L 130.314,-209.99 L -130.314,-209.99 L -130.937,-209.911 L -131.545,-209.755 L -132.129,-209.524 L -132.679,-209.222
 L -133.187,-208.853 L -133.645,-208.423 L -134.045,-207.939 L -134.382,-207.409 L -134.649,-206.841 L -134.843,-206.243
 L -134.961,-205.627 L -135,-205 L -135,-185 L -134.961,-184.373 L -134.843,-183.757 L -134.649,-183.159
 L -134.382,-182.591 L -134.045,-182.061 L -133.645,-181.577 L -133.187,-181.147 L -132.679,-180.778 L -132.129,-180.476
 L -131.545,-180.245 L -130.937,-180.089 L -130.314,-180.01 L 130.314,-180.01 z
M -130.048,-180.509 L -130.64,-180.584 L -131.218,-180.732 L -131.772,-180.952 L -132.295,-181.239 L -132.778,-181.59
 L -133.213,-181.998 L -133.593,-182.458 L -133.912,-182.962 L -134.166,-183.501 L -134.351,-184.069 L -134.463,-184.655
 L -134.5,-185.25 L -134.5,-204.75 L -134.463,-205.345 L -134.351,-205.931 L -134.166,-206.499 L -133.912,-207.038
 L -133.593,-207.542 L -133.213,-208.002 L -132.778,-208.41 L -132.295,-208.761 L -131.772,-209.048 L -131.218,-209.268
 L -130.64,-209.416 L -130.048,-209.491 L 130.048,-209.491 L 130.64,-209.416 L 131.218,-209.268 L 131.772,-209.048
 L 132.295,-208.761 L 132.778,-208.41 L 133.213,-208.002 L 133.593,-207.542 L 133.912,-207.038 L 134.166,-206.499
 L 134.351,-205.931 L 134.463,-205.345 L 134.5,-204.75 L 134.5,-185.25 L 134.463,-184.655 L 134.351,-184.069
 L 134.166,-183.501 L 133.912,-182.962 L 133.593,-182.458 L 133.213,-181.998 L 132.778,-181.59 L 132.295,-181.239
 L 131.772,-180.952 L 131.218,-180.732 L 130.64,-180.584 L 130.048,-180.509 z
M 130.937,-141.089 L 131.545,-141.245 L 132.129,-141.476 L 132.679,-141.778 L 133.187,-142.147 L 133.645,-142.577
 L 134.045,-143.061 L 134.382,-143.591 L 134.649,-144.159 L 134.843,-144.757 L 134.961,-145.373 L 135,-146
 L 135,-166 L 134.961,-166.627 L 134.843,-167.243 L 134.649,-167.841 L 134.382,-168.409 L 134.045,-168.939
 L 133.645,-169.423 L 133.187,-169.853 L 132.679,-170.222 L 132.129,-170.524 L 131.545,-170.755 L 130.937,-170.911
 L 130.314,-170.99 L -130.314,-170.99 L -130.937,-170.911 L -131.545,-170.755 L -132.129,-170.524 L -132.679,-170.222
 L -133.187,-169.853 L -133.645,-169.423 L -134.045,-168.939 L -134.382,-168.409 L -134.649,-167.841 L -134.843,-167.243
 L -134.961,-166.627 L -135,-166 L -135,-146 L -134.961,-145.373 L -134.843,-144.757 L -134.649,-144.159
 L -134.382,-143.591 L -134.045,-143.061 L -133.645,-142.577 L -133.187,-142.147 L -132.679,-141.778 L -132.129,-141.476
 L -131.545,-141.245 L -130.937,-141.089 L -130.314,-141.01 L 130.314,-141.01 z
M -130.037,-141.681 L -130.608,-141.753 L -131.165,-141.896 L -131.699,-142.107 L -132.203,-142.384 L -132.668,-142.722
 L -133.088,-143.116 L -133.454,-143.559 L -133.762,-144.044 L -134.007,-144.565 L -134.185,-145.111 L -134.292,-145.676
 L -134.328,-146.25 L -134.328,-165.75 L -134.292,-166.324 L -134.185,-166.889 L -134.007,-167.435 L -133.762,-167.956
 L -133.454,-168.441 L -133.088,-168.884 L -132.668,-169.278 L -132.203,-169.616 L -131.699,-169.893 L -131.165,-170.104
 L -130.608,-170.247 L -130.037,-170.319 L 130.037,-170.319 L 130.608,-170.247 L 131.165,-170.104 L 131.699,-169.893
 L 132.203,-169.616 L 132.668,-169.278 L 133.088,-168.884 L 133.454,-168.441 L 133.762,-167.956 L 134.007,-167.435
 L 134.185,-166.889 L 134.292,-166.324 L 134.328,-165.75 L 134.328,-146.25 L 134.292,-145.676 L 134.185,-145.111
 L 134.007,-144.565 L 133.762,-144.044 L 133.454,-143.559 L 133.088,-143.116 L 132.668,-142.722 L 132.203,-142.384
 L 131.699,-142.107 L 131.165,-141.896 L 130.608,-141.753 L 130.037,-141.681 z
M 130.937,-102.089 L 131.545,-102.245 L 132.129,-102.476 L 132.679,-102.778 L 133.187,-103.147 L 133.645,-103.577
 L 134.045,-104.061 L 134.382,-104.591 L 134.649,-105.159 L 134.843,-105.757 L 134.961,-106.373 L 135,-107
 L 135,-127 L 134.961,-127.627 L 134.843,-128.243 L 134.649,-128.841 L 134.382,-129.409 L 134.045,-129.939
 L 133.645,-130.423 L 133.187,-130.853 L 132.679,-131.222 L 132.129,-131.524 L 131.545,-131.755 L 130.937,-131.911
 L 130.314,-131.99 L -130.314,-131.99 L -130.937,-131.911 L -131.545,-131.755 L -132.129,-131.524 L -132.679,-131.222
 L -133.187,-130.853 L -133.645,-130.423 L -134.045,-129.939 L -134.382,-129.409 L -134.649,-128.841 L -134.843,-128.243
 L -134.961,-127.627 L -135,-127 L -135,-107 L -134.961,-106.373 L -134.843,-105.757 L -134.649,-105.159
 L -134.382,-104.591 L -134.045,-104.061 L -133.645,-103.577 L -133.187,-103.147 L -132.679,-102.778 L -132.129,-102.476
 L -131.545,-102.245 L -130.937,-102.089 L -130.314,-102.01 L 130.314,-102.01 z
M -129.882,-105.145 L -130.145,-105.178 L -130.402,-105.244 L -130.648,-105.341 L -130.88,-105.469 L -131.095,-105.625
 L -131.288,-105.806 L -131.457,-106.01 L -131.599,-106.234 L -131.711,-106.473 L -131.793,-106.725 L -131.843,-106.986
 L -131.86,-107.25 L -131.86,-126.75 L -131.843,-127.014 L -131.793,-127.275 L -131.711,-127.527 L -131.599,-127.766
 L -131.457,-127.99 L -131.288,-128.194 L -131.095,-128.375 L -130.88,-128.531 L -130.648,-128.659 L -130.402,-128.756
 L -130.145,-128.822 L -129.882,-128.855 L 129.882,-128.855 L 130.145,-128.822 L 130.402,-128.756 L 130.648,-128.659
 L 130.88,-128.531 L 131.095,-128.375 L 131.288,-128.194 L 131.457,-127.99 L 131.599,-127.766 L 131.711,-127.527
 L 131.793,-127.275 L 131.843,-127.014 L 131.86,-126.75 L 131.86,-107.25 L 131.843,-106.986 L 131.793,-106.725
 L 131.711,-106.473 L 131.599,-106.234 L 131.457,-106.01 L 131.288,-105.806 L 131.095,-105.625 L 130.88,-105.469
 L 130.648,-105.341 L 130.402,-105.244 L 130.145,-105.178 L 129.882,-105.145 z
" stroke="black" fill="lightgray" stroke-width="0.5"/>
</svg>
