<?xml version="1.0" standalone="no"?>
<!DOCTYPE svg PUBLIC "-//W3C//DTD SVG 1.1//EN" "http://www.w3.org/Graphics/SVG/1.1/DTD/svg11.dtd">
<svg width="270mm" height="1162mm" viewBox="-135 -2219 270 1162" xmlns="http://www.w3.org/2000/svg" version="1.1">
<title>OpenSCAD Model</title>
<path d="
M 130.937,-1993.59 L 131.545,-1993.74 L 132.129,-1993.98 L 132.679,-1994.28 L 133.187,-1994.65 L 133.645,-1995.08
 L 134.045,-1995.56 L 134.382,-1996.09 L 134.649,-1996.66 L 134.843,-1997.26 L 134.961,-1997.87 L 135,-1998.5
 L 135,-2213.5 L 134.961,-2214.13 L 134.843,-2214.74 L 134.649,-2215.34 L 134.382,-2215.91 L 134.045,-2216.44
 L 133.645,-2216.92 L 133.187,-2217.35 L 132.679,-2217.72 L 132.129,-2218.02 L 131.545,-2218.26 L 130.937,-2218.41
 L 130.314,-2218.49 L -130.314,-2218.49 L -130.937,-2218.41 L -131.545,-2218.26 L -132.129,-2218.02 L -132.679,-2217.72
 L -133.187,-2217.35 L -133.645,-2216.92 L -134.045,-2216.44 L -134.382,-2215.91 L -134.649,-2215.34 L -134.843,-2214.74
 L -134.961,-2214.13 L -135,-2213.5 L -135,-1998.5 L -134.961,-1997.87 L -134.843,-1997.26 L -134.649,-1996.66
 L -134.382,-1996.09 L -134.045,-1995.56 L -133.645,-1995.08 L -133.187,-1994.65 L -132.679,-1994.28 L -132.129,-1993.98
 L -131.545,-1993.74 L -130.937,-1993.59 L -130.314,-1993.51 L 130.314,-1993.51 z
M -130.048,-1994.01 L -130.64,-1994.08 L -131.218,-1994.23 L -131.772,-1994.45 L -132.295,-1994.74 L -132.778,-1995.09
 L -133.213,-1995.5 L -133.593,-1995.96 L -133.912,-1996.46 L -134.166,-1997 L -134.351,-1997.57 L -134.463,-1998.15
 L -134.5,-1998.75 L -134.5,-2213.25 L -134.463,-2213.85 L -134.351,-2214.43 L -134.166,-2215 L -133.912,-2215.54
 L -133.593,-2216.04 L -133.213,-2216.5 L -132.778,-2216.91 L -132.295,-2217.26 L -131.772,-2217.55 L -131.218,-2217.77
 L -130.64,-2217.92 L -130.048,-2217.99 L 130.048,-2217.99 L 130.64,-2217.92 L 131.218,-2217.77 L 131.772,-2217.55
 L 132.295,-2217.26 L 132.778,-2216.91 L 133.213,-2216.5 L 133.593,-2216.04 L 133.912,-2215.54 L 134.166,-2215
 L 134.351,-2214.43 L 134.463,-2213.85 L 134.5,-2213.25 L 134.5,-1998.75 L 134.463,-1998.15 L 134.351,-1997.57
 L 134.166,-1997 L 133.912,-1996.46 L 133.593,-1995.96 L 133.213,-1995.5 L 132.778,-1995.09 L 132.295,-1994.74
 L 131.772,-1994.45 L 131.218,-1994.23 L 130.64,-1994.08 L 130.048,-1994.01 z
M 130.937,-1759.59 L 131.545,-1759.74 L 132.129,-1759.98 L 132.679,-1760.28 L 133.187,-1760.65 L 133.645,-1761.08
 L 134.045,-1761.56 L 134.382,-1762.09 L 134.649,-1762.66 L 134.843,-1763.26 L 134.961,-1763.87 L 135,-1764.5
 L 135,-1979.5 L 134.961,-1980.13 L 134.843,-1980.74 L 134.649,-1981.34 L 134.382,-1981.91 L 134.045,-1982.44
 L 133.645,-1982.92 L 133.187,-1983.35 L 132.679,-1983.72 L 132.129,-1984.02 L 131.545,-1984.26 L 130.937,-1984.41
 L 130.314,-1984.49 L -130.314,-1984.49 L -130.937,-1984.41 L -131.545,-1984.26 L -132.129,-1984.02 L -132.679,-1983.72
 L -133.187,-1983.35 L -133.645,-1982.92 L -134.045,-1982.44 L -134.382,-1981.91 L -134.649,-1981.34 L -134.843,-1980.74
 L -134.961,-1980.13 L -135,-1979.5 L -135,-1764.5 L -134.961,-1763.87 L -134.843,-1763.26 L -134.649,-1762.66
 L -134.382,-1762.09 L -134.045,-1761.56 L -133.645,-1761.08 L -133.187,-1760.65 L -132.679,-1760.28 L -132.129,-1759.98
 L -131.545,-1759.74 L -130.937,-1759.59 L -130.314,-1759.51 L 130.314,-1759.51 z
M -130.048,-1760.01 L -130.64,-1760.08 L -131.218,-1760.23 L -131.772,-1760.45 L -132.295,-1760.74 L -132.778,-1761.09
 L -133.213,-1761.5 L -133.593,-1761.96 L -133.912,-1762.46 L -134.166,-1763 L -134.351,-1763.57 L -134.463,-1764.15
 L -134.5,-1764.75 L -134.5,-1979.25 L -134.463,-1979.85 L -134.351,-1980.43 L -134.166,-1981 L -133.912,-1981.54
 L -133.593,-1982.04 L -133.213,-1982.5 L -132.778,-1982.91 L -132.295,-1983.26 L -131.772,-1983.55 L -131.218,-1983.77
 L -130.64,-1983.92 L -130.048,-1983.99 L 130.048,-1983.99 L 130.64,-1983.92 L 131.218,-1983.77 L 131.772,-1983.55
 L 132.295,-1983.26 L 132.778,-1982.91 L 133.213,-1982.5 L 133.593,-1982.04 L 133.912,-1981.54 L 134.166,-1981
 L 134.351,-1980.43 L 134.463,-1979.85 L 134.5,-1979.25 L 134.5,-1764.75 L 134.463,-1764.15 L 134.351,-1763.57
 L 134.166,-1763 L 133.912,-1762.46 L 133.593,-1761.96 L 133.213,-1761.5 L 132.778,-1761.09 L 132.295,-1760.74
 L 131.772,-1760.45 L 131.218,-1760.23 L 130.64,-1760.08 L 130.048,-1760.01 z
M 130.937,-1525.59 L 131.545,-1525.74 L 132.129,-1525.98 L 132.679,-1526.28 L 133.187,-1526.65 L 133.645,-1527.08
 L 134.045,-1527.56 L 134.382,-1528.09 L 134.649,-1528.66 L 134.843,-1529.26 L 134.961,-1529.87 L 135,-1530.5
 L 135,-1745.5 L 134.961,-1746.13 L 134.843,-1746.74 L 134.649,-1747.34 L 134.382,-1747.91 L 134.045,-1748.44
 L 133.645,-1748.92 L 133.187,-1749.35 L 132.679,-1749.72 L 132.129,-1750.02 L 131.545,-1750.26 L 130.937,-1750.41
 L 130.314,-1750.49 L -130.314,-1750.49 L -130.937,-1750.41 L -131.545,-1750.26 L -132.129,-1750.02 L -132.679,-1749.72
 L -133.187,-1749.35 L -133.645,-1748.92 L -134.045,-1748.44 L -134.382,-1747.91 L -134.649,-1747.34 L -134.843,-1746.74
 L -134.961,-1746.13 L -135,-1745.5 L -135,-1530.5 L -134.961,-1529.87 L -134.843,-1529.26 L -134.649,-1528.66
 L -134.382,-1528.09 L -134.045,-1527.56 L -133.645,-1527.08 L -133.187,-1526.65 L -132.679,-1526.28 L -132.129,-1525.98
 L -131.545,-1525.74 L -130.937,-1525.59 L -130.314,-1525.51 L 130.314,-1525.51 z
M -130.048,-1526.01 L -130.64,-1526.08 L -131.218,-1526.23 L -131.772,-1526.45 L -132.295,-1526.74 L -132.778,-1527.09
 L -133.213,-1527.5 L -133.593,-1527.96 L -133.912,-1528.46 L -134.166,-1529 L -134.351,-1529.57 L -134.463,-1530.15
 L -134.5,-1530.75 L -134.5,-1745.25 L -134.463,-1745.85 L -134.351,-1746.43 L -134.166,-1747 L -133.912,-1747.54
 L -133.593,-1748.04 L -133.213,-1748.5 L -132.778,-1748.91 L -132.295,-1749.26 L -131.772,-1749.55 L -131.218,-1749.77
 L -130.64,-1749.92 L -130.048,-1749.99 L 130.048,-1749.99 L 130.64,-1749.92 L 131.218,-1749.77 L 131.772,-1749.55
 L 132.295,-1749.26 L 132.778,-1748.91 L 133.213,-1748.5 L 133.593,-1748.04 L 133.912,-1747.54 L 134.166,-1747
 L 134.351,-1746.43 L 134.463,-1745.85 L 134.5,-1745.25 L 134.5,-1530.75 L 134.463,-1530.15 L 134.351,-1529.57
 L 134.166,-1529 L 133.912,-1528.46 L 133.593,-1527.96 L 133.213,-1527.5 L 132.778,-1527.09 L 132.295,-1526.74
 L 131.772,-1526.45 L 131.218,-1526.23 L 130.64,-1526.08 L 130.048,-1526.01 z
M 130.937,-1291.59 L 131.545,-1291.74 L 132.129,-1291.98 L 132.679,-1292.28 L 133.187,-1292.65 L 133.645,-1293.08
 L 134.045,-1293.56 L 134.382,-1294.09 L 134.649,-1294.66 L 134.843,-1295.26 L 134.961,-1295.87 L 135,-1296.5
 L 135,-1511.5 L 134.961,-1512.13 L 134.843,-1512.74 L 134.649,-1513.34 L 134.382,-1513.91 L 134.045,-1514.44
 L 133.645,-1514.92 L 133.187,-1515.35 L 132.679,-1515.72 L 132.129,-1516.02 L 131.545,-1516.26 L 130.937,-1516.41
 L 130.314,-1516.49 L -130.314,-1516.49 L -130.937,-1516.41 L -131.545,-1516.26 L -132.129,-1516.02 L -132.679,-1515.72
 L -133.187,-1515.35 L -133.645,-1514.92 L -134.045,-1514.44 L -134.382,-1513.91 L -134.649,-1513.34 L -134.843,-1512.74
 L -134.961,-1512.13 L -135,-1511.5 L -135,-1296.5 L -134.961,-1295.87 L -134.843,-1295.26 L -134.649,-1294.66
 L -134.382,-1294.09 L -134.045,-1293.56 L -133.645,-1293.08 L -133.187,-1292.65 L -132.679,-1292.28 L -132.129,-1291.98
 L -131.545,-1291.74 L -130.937,-1291.59 L -130.314,-1291.51 L 130.314,-1291.51 z
M -130.037,-1292.18 L -130.608,-1292.25 L -131.165,-1292.4 L -131.699,-1292.61 L -132.203,-1292.88 L -132.668,-1293.22
 L -133.088,-1293.62 L -133.454,-1294.06 L -133.762,-1294.54 L -134.007,-1295.06 L -134.185,-1295.61 L -134.292,-1296.18
 L -134.328,-1296.75 L -134.328,-1511.25 L -134.292,-1511.82 L -134.185,-1512.39 L -134.007,-1512.94 L -133.762,-1513.46
 L -133.454,-1513.94 L -133.088,-1514.38 L -132.668,-1514.78 L -132.203,-1515.12 L -131.699,-1515.39 L -131.165,-1515.6
 L -130.608,-1515.75 L -130.037,-1515.82 L 130.037,-1515.82 L 130.608,-1515.75 L 131.165,-1515.6 L 131.699,-1515.39
 L 132.203,-1515.12 L 132.668,-1514.78 L 133.088,-1514.38 L 133.454,-1513.94 L 133.762,-1513.46 L 134.007,-1512.94
 L 134.185,-1512.39 L 134.292,-1511.82 L 134.328,-1511.25 L 134.328,-1296.75 L 134.292,-1296.18 L 134.185,-1295.61
 L 134.007,-1295.06 L 133.762,-1294.54 L 133.454,-1294.06 L 133.088,-1293.62 L 132.668,-1293.22 L 132.203,-1292.88
 L 131.699,-1292.61 L 131.165,-1292.4 L 130.608,-1292.25 L 130.037,-1292.18 z
M 130.937,-1057.59 L 131.545,-1057.74 L 132.129,-1057.98 L 132.679,-1058.28 L 133.187,-1058.65 L 133.645,-1059.08
 L 134.045,-1059.56 L 134.382,-1060.09 L 134.649,-1060.66 L 134.843,-1061.26 L 134.961,-1061.87 L 135,-1062.5
 L 135,-1277.5 L 134.961,-1278.13 L 134.843,-1278.74 L 134.649,-1279.34 L 134.382,-1279.91 L 134.045,-1280.44
 L 133.645,-1280.92 L 133.187,-1281.35 L 132.679,-1281.72 L 132.129,-1282.02 L 131.545,-1282.26 L 130.937,-1282.41
 L 130.314,-1282.49 L -130.314,-1282.49 L -130.937,-1282.41 L -131.545,-1282.26 L -132.129,-1282.02 L -132.679,-1281.72
 L -133.187,-1281.35 L -133.645,-1280.92 L -134.045,-1280.44 L -134.382,-1279.91 L -134.649,-1279.34 L -134.843,-1278.74
 L -134.961,-1278.13 L -135,-1277.5 L -135,-1062.5 L -134.961,-1061.87 L -134.843,-1061.26 L -134.649,-1060.66
 L -134.382,-1060.09 L -134.045,-1059.56 L -133.645,-1059.08 L -133.187,-1058.65 L -132.679,-1058.28 L -132.129,-1057.98
 L -131.545,-1057.74 L -130.937,-1057.59 L -130.314,-1057.51 L 130.314,-1057.51 z
M -129.882,-1060.64 L -130.145,-1060.68 L -130.402,-1060.74 L -130.648,-1060.84 L -130.88,-1060.97 L -131.095,-1061.12
 L -131.288,-1061.31 L -131.457,-1061.51 L -131.599,-1061.73 L -131.711,-1061.97 L -131.793,-1062.23 L -131.843,-1062.49
 L -131.86,-1062.75 L -131.86,-1277.25 L -131.843,-1277.51 L -131.793,-1277.77 L -131.711,-1278.03 L -131.599,-1278.27
 L -131.457,-1278.49 L -131.288,-1278.69 L -131.095,-1278.88 L -130.88,-1279.03 L -130.648,-1279.16 L -130.402,-1279.26
 L -130.145,-1279.32 L -129.882,-1279.36 L 129.882,-1279.36 L 130.145,-1279.32 L 130.402,-1279.26 L 130.648,-1279.16
 L 130.88,-1279.03 L 131.095,-1278.88 L 131.288,-1278.69 L 131.457,-1278.49 L 131.599,-1278.27 L 131.711,-1278.03
 L 131.793,-1277.77 L 131.843,-1277.51 L 131.86,-1277.25 L 131.86,-1062.75 L 131.843,-1062.49 L 131.793,-1062.23
 L 131.711,-1061.97 L 131.599,-1061.73 L 131.457,-1061.51 L 131.288,-1061.31 L 131.095,-1061.12 L 130.88,-1060.97
 L 130.648,-1060.84 L 130.402,-1060.74 L 130.145,-1060.68 L 129.882,-1060.64 z
" stroke="black" fill="lightgray" stroke-width="0.5"/>
</svg>
