<?xml version="1.0" standalone="no"?>
<!DOCTYPE svg PUBLIC "-//W3C//DTD SVG 1.1//EN" "http://www.w3.org/Graphics/SVG/1.1/DTD/svg11.dtd">
<svg width="272mm" height="520mm" viewBox="-137 -920 272 520" xmlns="http://www.w3.org/2000/svg" version="1.1">
<title>OpenSCAD Model</title>
<path d="
M 130.937,-664.589 L 131.545,-664.745 L 132.129,-664.976 L 132.679,-665.278 L 133.187,-665.647 L 133.645,-666.077
 L 134.045,-666.561 L 134.382,-667.091 L 134.649,-667.659 L 134.843,-668.257 L 134.961,-668.873 L 135,-669.5
 L 135,-914.5 L 134.961,-915.127 L 134.843,-915.743 L 134.649,-916.341 L 134.382,-916.909 L 134.045,-917.439
 L 133.645,-917.923 L 133.187,-918.353 L 132.679,-918.722 L 132.129,-919.024 L 131.545,-919.255 L 130.937,-919.411
 L 130.314,-919.49 L -130.314,-919.49 L -130.937,-919.411 L -131.545,-919.255 L -132.129,-919.024 L -132.679,-918.722
 L -133.187,-918.353 L -133.5,-918.059 L -133.5,-919.479 L -136.5,-919.479 L -136.5,-664.521 L -133.5,-664.521
 L -133.5,-665.941 L -133.187,-665.647 L -132.679,-665.278 L -132.129,-664.976 L -131.545,-664.745 L -130.937,-664.589
 L -130.314,-664.51 L 130.314,-664.51 z
M -129.695,-666.893 L -130.083,-666.942 L -130.462,-667.039 L -130.825,-667.183 L -131.168,-667.372 L -131.484,-667.601
 L -131.769,-667.869 L -132.018,-668.17 L -132.228,-668.5 L -132.394,-668.854 L -132.515,-669.226 L -132.588,-669.61
 L -132.613,-670 L -132.613,-914 L -132.588,-914.39 L -132.515,-914.774 L -132.394,-915.146 L -132.228,-915.5
 L -132.018,-915.83 L -131.769,-916.131 L -131.484,-916.399 L -131.168,-916.628 L -130.825,-916.817 L -130.462,-916.961
 L -130.083,-917.058 L -129.695,-917.107 L 129.695,-917.107 L 130.083,-917.058 L 130.462,-916.961 L 130.825,-916.817
 L 131.168,-916.628 L 131.484,-916.399 L 131.769,-916.131 L 132.018,-915.83 L 132.228,-915.5 L 132.394,-915.146
 L 132.515,-914.774 L 132.588,-914.39 L 132.613,-914 L 132.613,-670 L 132.588,-669.61 L 132.515,-669.226
 L 132.394,-668.854 L 132.228,-668.5 L 132.018,-668.17 L 131.769,-667.869 L 131.484,-667.601 L 131.168,-667.372
 L 130.825,-667.183 L 130.462,-667.039 L 130.083,-666.942 L 129.695,-666.893 z
M 130.937,-400.589 L 131.545,-400.745 L 132.129,-400.976 L 132.679,-401.278 L 133.187,-401.647 L 133.645,-402.077
 L 134.045,-402.561 L 134.382,-403.091 L 134.649,-403.659 L 134.843,-404.257 L 134.961,-404.873 L 135,-405.5
 L 135,-650.5 L 134.961,-651.127 L 134.843,-651.743 L 134.649,-652.341 L 134.382,-652.909 L 134.045,-653.439
 L 133.645,-653.923 L 133.187,-654.353 L 132.679,-654.722 L 132.129,-655.024 L 131.545,-655.255 L 130.937,-655.411
 L 130.314,-655.49 L -130.314,-655.49 L -130.937,-655.411 L -131.545,-655.255 L -132.129,-655.024 L -132.679,-654.722
 L -133.187,-654.353 L -133.5,-654.059 L -133.5,-654.153 L -136.5,-654.153 L -136.5,-401.847 L -133.5,-401.847
 L -133.5,-401.941 L -133.187,-401.647 L -132.679,-401.278 L -132.129,-400.976 L -131.545,-400.745 L -130.937,-400.589
 L -130.314,-400.51 L 130.314,-400.51 z
M 127.366,-645.869 L 127.1,-645.903 L 126.84,-645.969 L 126.591,-646.068 L 126.356,-646.197 L 126.139,-646.355
 L 125.943,-646.538 L 125.773,-646.745 L 125.629,-646.971 L 125.515,-647.214 L 125.432,-647.469 L 125.382,-647.732
 L 125.365,-648 L 125.382,-648.268 L 125.432,-648.531 L 125.515,-648.786 L 125.629,-649.029 L 125.773,-649.255
 L 125.943,-649.462 L 126.139,-649.645 L 126.356,-649.803 L 126.591,-649.932 L 126.84,-650.031 L 127.1,-650.097
 L 127.366,-650.131 L 127.634,-650.131 L 127.9,-650.097 L 128.16,-650.031 L 128.409,-649.932 L 128.644,-649.803
 L 128.861,-649.645 L 129.057,-649.462 L 129.227,-649.255 L 129.371,-649.029 L 129.485,-648.786 L 129.568,-648.531
 L 129.618,-648.268 L 129.635,-648 L 129.618,-647.732 L 129.568,-647.469 L 129.485,-647.214 L 129.371,-646.971
 L 129.227,-646.745 L 129.057,-646.538 L 128.861,-646.355 L 128.644,-646.197 L 128.409,-646.068 L 128.16,-645.969
 L 127.9,-645.903 L 127.634,-645.869 z
M -127.634,-645.869 L -127.9,-645.903 L -128.16,-645.969 L -128.409,-646.068 L -128.644,-646.197 L -128.861,-646.355
 L -129.057,-646.538 L -129.227,-646.745 L -129.371,-646.971 L -129.485,-647.214 L -129.568,-647.469 L -129.618,-647.732
 L -129.635,-648 L -129.618,-648.268 L -129.568,-648.531 L -129.485,-648.786 L -129.371,-649.029 L -129.227,-649.255
 L -129.057,-649.462 L -128.861,-649.645 L -128.644,-649.803 L -128.409,-649.932 L -128.16,-650.031 L -127.9,-650.097
 L -127.634,-650.131 L -127.366,-650.131 L -127.1,-650.097 L -126.84,-650.031 L -126.591,-649.932 L -126.356,-649.803
 L -126.139,-649.645 L -125.943,-649.462 L -125.773,-649.255 L -125.629,-649.029 L -125.515,-648.786 L -125.432,-648.531
 L -125.382,-648.268 L -125.365,-648 L -125.382,-647.732 L -125.432,-647.469 L -125.515,-647.214 L -125.629,-646.971
 L -125.773,-646.745 L -125.943,-646.538 L -126.139,-646.355 L -126.356,-646.197 L -126.591,-646.068 L -126.84,-645.969
 L -127.1,-645.903 L -127.366,-645.869 z
M 127.366,-405.869 L 127.1,-405.903 L 126.84,-405.969 L 126.591,-406.068 L 126.356,-406.197 L 126.139,-406.355
 L 125.943,-406.538 L 125.773,-406.745 L 125.629,-406.971 L 125.515,-407.214 L 125.432,-407.469 L 125.382,-407.732
 L 125.365,-408 L 125.382,-408.268 L 125.432,-408.531 L 125.515,-408.786 L 125.629,-409.029 L 125.773,-409.255
 L 125.943,-409.462 L 126.139,-409.645 L 126.356,-409.803 L 126.591,-409.932 L 126.84,-410.031 L 127.1,-410.097
 L 127.366,-410.131 L 127.634,-410.131 L 127.9,-410.097 L 128.16,-410.031 L 128.409,-409.932 L 128.644,-409.803
 L 128.861,-409.645 L 129.057,-409.462 L 129.227,-409.255 L 129.371,-409.029 L 129.485,-408.786 L 129.568,-408.531
 L 129.618,-408.268 L 129.635,-408 L 129.618,-407.732 L 129.568,-407.469 L 129.485,-407.214 L 129.371,-406.971
 L 129.227,-406.745 L 129.057,-406.538 L 128.861,-406.355 L 128.644,-406.197 L 128.409,-406.068 L 128.16,-405.969
 L 127.9,-405.903 L 127.634,-405.869 z
M -127.634,-405.869 L -127.9,-405.903 L -128.16,-405.969 L -128.409,-406.068 L -128.644,-406.197 L -128.861,-406.355
 L -129.057,-406.538 L -129.227,-406.745 L -129.371,-406.971 L -129.485,-407.214 L -129.568,-407.469 L -129.618,-407.732
 L -129.635,-408 L -129.618,-408.268 L -129.568,-408.531 L -129.485,-408.786 L -129.371,-409.029 L -129.227,-409.255
 L -129.057,-409.462 L -128.861,-409.645 L -128.644,-409.803 L -128.409,-409.932 L -128.16,-410.031 L -127.9,-410.097
 L -127.634,-410.131 L -127.366,-410.131 L -127.1,-410.097 L -126.84,-410.031 L -126.591,-409.932 L -126.356,-409.803
 L -126.139,-409.645 L -125.943,-409.462 L -125.773,-409.255 L -125.629,-409.029 L -125.515,-408.786 L -125.432,-408.531
 L -125.382,-408.268 L -125.365,-408 L -125.382,-407.732 L -125.432,-407.469 L -125.515,-407.214 L -125.629,-406.971
 L -125.773,-406.745 L -125.943,-406.538 L -126.139,-406.355 L -126.356,-406.197 L -126.591,-406.068 L -126.84,-405.969
 L -127.1,-405.903 L -127.366,-405.869 z
" stroke="black" fill="lightgray" stroke-width="0.5"/>
</svg>
