<?xml version="1.0" standalone="no"?>
<!DOCTYPE svg PUBLIC "-//W3C//DTD SVG 1.1//EN" "http://www.w3.org/Graphics/SVG/1.1/DTD/svg11.dtd">
<svg width="287mm" height="147mm" viewBox="-144 -249 287 147" xmlns="http://www.w3.org/2000/svg" version="1.1">
<title>OpenSCAD Model</title>
<path d="
M -141,-220.441 L -140.687,-220.147 L -140.179,-219.778 L -139.629,-219.476 L -139.045,-219.245 L -138.437,-219.089
 L -137.814,-219.01 L 137.814,-219.01 L 138.437,-219.089 L 139.045,-219.245 L 139.629,-219.476 L 140.179,-219.778
 L 140.687,-220.147 L 141.145,-220.577 L 141.545,-221.061 L 141.882,-221.591 L 142.149,-222.159 L 142.343,-222.757
 L 142.461,-223.373 L 142.5,-224 L 142.5,-244 L 142.461,-244.627 L 142.343,-245.243 L 142.149,-245.841
 L 141.882,-246.409 L 141.545,-246.939 L 141.145,-247.423 L 140.687,-247.853 L 140.179,-248.222 L 139.629,-248.524
 L 139.045,-248.755 L 138.437,-248.911 L 137.814,-248.99 L -137.814,-248.99 L -138.437,-248.911 L -139.045,-248.755
 L -139.629,-248.524 L -140.179,-248.222 L -140.687,-247.853 L -141,-247.559 L -141,-248.99 L -144,-248.99
 L -144,-219.01 L -141,-219.01 z
M -137.251,-220.508 L -137.75,-220.571 L -138.236,-220.696 L -138.703,-220.881 L -139.143,-221.123 L -139.55,-221.418
 L -139.916,-221.762 L -140.236,-222.149 L -140.505,-222.573 L -140.719,-223.028 L -140.874,-223.505 L -140.968,-223.999
 L -141,-224.5 L -141,-243.5 L -140.968,-244.001 L -140.874,-244.495 L -140.719,-244.972 L -140.505,-245.427
 L -140.236,-245.851 L -139.916,-246.238 L -139.55,-246.582 L -139.143,-246.877 L -138.703,-247.119 L -138.236,-247.304
 L -137.75,-247.429 L -137.251,-247.492 L 137.251,-247.492 L 137.75,-247.429 L 138.236,-247.304 L 138.703,-247.119
 L 139.143,-246.877 L 139.55,-246.582 L 139.916,-246.238 L 140.236,-245.851 L 140.505,-245.427 L 140.719,-244.972
 L 140.874,-244.495 L 140.968,-244.001 L 141,-243.5 L 141,-224.5 L 140.968,-223.999 L 140.874,-223.505
 L 140.719,-223.028 L 140.505,-222.573 L 140.236,-222.149 L 139.916,-221.762 L 139.55,-221.418 L 139.143,-221.123
 L 138.703,-220.881 L 138.236,-220.696 L 137.75,-220.571 L 137.251,-220.508 z
M -141,-181.441 L -140.687,-181.147 L -140.179,-180.778 L -139.629,-180.476 L -139.045,-180.245 L -138.437,-180.089
 L -137.814,-180.01 L 137.814,-180.01 L 138.437,-180.089 L 139.045,-180.245 L 139.629,-180.476 L 140.179,-180.778
 L 140.687,-181.147 L 141.145,-181.577 L 141.545,-182.061 L 141.882,-182.591 L 142.149,-183.159 L 142.343,-183.757
 L 142.461,-184.373 L 142.5,-185 L 142.5,-205 L 142.461,-205.627 L 142.343,-206.243 L 142.149,-206.841
 L 141.882,-207.409 L 141.545,-207.939 L 141.145,-208.423 L 140.687,-208.853 L 140.179,-209.222 L 139.629,-209.524
 L 139.045,-209.755 L 138.437,-209.911 L 137.814,-209.99 L -137.814,-209.99 L -138.437,-209.911 L -139.045,-209.755
 L -139.629,-209.524 L -140.179,-209.222 L -140.687,-208.853 L -141,-208.559 L -141,-209.99 L -144,-209.99
 L -144,-180.01 L -141,-180.01 z
M -137.243,-181.635 L -137.726,-181.696 L -138.197,-181.817 L -138.649,-181.996 L -139.075,-182.23 L -139.469,-182.516
 L -139.823,-182.849 L -140.133,-183.224 L -140.394,-183.634 L -140.601,-184.074 L -140.751,-184.537 L -140.842,-185.015
 L -140.873,-185.5 L -140.873,-204.5 L -140.842,-204.985 L -140.751,-205.463 L -140.601,-205.926 L -140.394,-206.366
 L -140.133,-206.776 L -139.823,-207.151 L -139.469,-207.484 L -139.075,-207.77 L -138.649,-208.004 L -138.197,-208.183
 L -137.726,-208.304 L -137.243,-208.365 L 137.243,-208.365 L 137.726,-208.304 L 138.197,-208.183 L 138.649,-208.004
 L 139.075,-207.77 L 139.469,-207.484 L 139.823,-207.151 L 140.133,-206.776 L 140.394,-206.366 L 140.601,-205.926
 L 140.751,-205.463 L 140.842,-204.985 L 140.873,-204.5 L 140.873,-185.5 L 140.842,-185.015 L 140.751,-184.537
 L 140.601,-184.074 L 140.394,-183.634 L 140.133,-183.224 L 139.823,-182.849 L 139.469,-182.516 L 139.075,-182.23
 L 138.649,-181.996 L 138.197,-181.817 L 137.726,-181.696 L 137.243,-181.635 z
M 138.437,-141.089 L 139.045,-141.245 L 139.629,-141.476 L 140.179,-141.778 L 140.687,-142.147 L 141.145,-142.577
 L 141.545,-143.061 L 141.882,-143.591 L 142.149,-144.159 L 142.343,-144.757 L 142.461,-145.373 L 142.5,-146
 L 142.5,-166 L 142.461,-166.627 L 142.343,-167.243 L 142.149,-167.841 L 141.882,-168.409 L 141.545,-168.939
 L 141.145,-169.423 L 140.687,-169.853 L 140.179,-170.222 L 139.629,-170.524 L 139.045,-170.755 L 138.437,-170.911
 L 137.814,-170.99 L -137.814,-170.99 L -138.437,-170.911 L -139.045,-170.755 L -139.629,-170.524 L -140.179,-170.222
 L -140.687,-169.853 L -141,-169.559 L -141,-170.615 L -144,-170.615 L -144,-141.385 L -141,-141.385
 L -141,-142.441 L -140.687,-142.147 L -140.179,-141.778 L -139.629,-141.476 L -139.045,-141.245 L -138.437,-141.089
 L -137.814,-141.01 L 137.814,-141.01 z
M 134.849,-161.105 L 134.55,-161.143 L 134.258,-161.217 L 133.978,-161.328 L 133.714,-161.474 L 133.47,-161.651
 L 133.25,-161.857 L 133.058,-162.089 L 132.897,-162.344 L 132.769,-162.617 L 132.675,-162.903 L 132.619,-163.199
 L 132.6,-163.5 L 132.619,-163.801 L 132.675,-164.097 L 132.769,-164.383 L 132.897,-164.656 L 133.058,-164.911
 L 133.25,-165.143 L 133.47,-165.349 L 133.714,-165.526 L 133.978,-165.672 L 134.258,-165.783 L 134.55,-165.857
 L 134.849,-165.895 L 135.151,-165.895 L 135.45,-165.857 L 135.742,-165.783 L 136.022,-165.672 L 136.286,-165.526
 L 136.53,-165.349 L 136.75,-165.143 L 136.942,-164.911 L 137.103,-164.656 L 137.231,-164.383 L 137.325,-164.097
 L 137.381,-163.801 L 137.4,-163.5 L 137.381,-163.199 L 137.325,-162.903 L 137.231,-162.617 L 137.103,-162.344
 L 136.942,-162.089 L 136.75,-161.857 L 136.53,-161.651 L 136.286,-161.474 L 136.022,-161.328 L 135.742,-161.217
 L 135.45,-161.143 L 135.151,-161.105 z
M -135.151,-161.105 L -135.45,-161.143 L -135.742,-161.217 L -136.022,-161.328 L -136.286,-161.474 L -136.53,-161.651
 L -136.75,-161.857 L -136.942,-162.089 L -137.103,-162.344 L -137.231,-162.617 L -137.325,-162.903 L -137.381,-163.199
 L -137.4,-163.5 L -137.381,-163.801 L -137.325,-164.097 L -137.231,-164.383 L -137.103,-164.656 L -136.942,-164.911
 L -136.75,-165.143 L -136.53,-165.349 L -136.286,-165.526 L -136.022,-165.672 L -135.742,-165.783 L -135.45,-165.857
 L -135.151,-165.895 L -134.849,-165.895 L -134.55,-165.857 L -134.258,-165.783 L -133.978,-165.672 L -133.714,-165.526
 L -133.47,-165.349 L -133.25,-165.143 L -133.058,-164.911 L -132.897,-164.656 L -132.769,-164.383 L -132.675,-164.097
 L -132.619,-163.801 L -132.6,-163.5 L -132.619,-163.199 L -132.675,-162.903 L -132.769,-162.617 L -132.897,-162.344
 L -133.058,-162.089 L -133.25,-161.857 L -133.47,-161.651 L -133.714,-161.474 L -133.978,-161.328 L -134.258,-161.217
 L -134.55,-161.143 L -134.849,-161.105 z
M 134.849,-146.105 L 134.55,-146.143 L 134.258,-146.217 L 133.978,-146.328 L 133.714,-146.474 L 133.47,-146.651
 L 133.25,-146.857 L 133.058,-147.089 L 132.897,-147.344 L 132.769,-147.617 L 132.675,-147.903 L 132.619,-148.199
 L 132.6,-148.5 L 132.619,-148.801 L 132.675,-149.097 L 132.769,-149.383 L 132.897,-149.656 L 133.058,-149.911
 L 133.25,-150.143 L 133.47,-150.349 L 133.714,-150.526 L 133.978,-150.672 L 134.258,-150.783 L 134.55,-150.857
 L 134.849,-150.895 L 135.151,-150.895 L 135.45,-150.857 L 135.742,-150.783 L 136.022,-150.672 L 136.286,-150.526
 L 136.53,-150.349 L 136.75,-150.143 L 136.942,-149.911 L 137.103,-149.656 L 137.231,-149.383 L 137.325,-149.097
 L 137.381,-148.801 L 137.4,-148.5 L 137.381,-148.199 L 137.325,-147.903 L 137.231,-147.617 L 137.103,-147.344
 L 136.942,-147.089 L 136.75,-146.857 L 136.53,-146.651 L 136.286,-146.474 L 136.022,-146.328 L 135.742,-146.217
 L 135.45,-146.143 L 135.151,-146.105 z
M -135.151,-146.105 L -135.45,-146.143 L -135.742,-146.217 L -136.022,-146.328 L -136.286,-146.474 L -136.53,-146.651
 L -136.75,-146.857 L -136.942,-147.089 L -137.103,-147.344 L -137.231,-147.617 L -137.325,-147.903 L -137.381,-148.199
 L -137.4,-148.5 L -137.381,-148.801 L -137.325,-149.097 L -137.231,-149.383 L -137.103,-149.656 L -136.942,-149.911
 L -136.75,-150.143 L -136.53,-150.349 L -136.286,-150.526 L -136.022,-150.672 L -135.742,-150.783 L -135.45,-150.857
 L -135.151,-150.895 L -134.849,-150.895 L -134.55,-150.857 L -134.258,-150.783 L -133.978,-150.672 L -133.714,-150.526
 L -133.47,-150.349 L -133.25,-150.143 L -133.058,-149.911 L -132.897,-149.656 L -132.769,-149.383 L -132.675,-149.097
 L -132.619,-148.801 L -132.6,-148.5 L -132.619,-148.199 L -132.675,-147.903 L -132.769,-147.617 L -132.897,-147.344
 L -133.058,-147.089 L -133.25,-146.857 L -133.47,-146.651 L -133.714,-146.474 L -133.978,-146.328 L -134.258,-146.217
 L -134.55,-146.143 L -134.849,-146.105 z
M 138.437,-102.089 L 139.045,-102.245 L 139.629,-102.476 L 140.179,-102.778 L 140.687,-103.147 L 141.145,-103.577
 L 141.545,-104.061 L 141.882,-104.591 L 142.149,-105.159 L 142.343,-105.757 L 142.461,-106.373 L 142.5,-107
 L 142.5,-127 L 142.461,-127.627 L 142.343,-128.243 L 142.149,-128.841 L 141.882,-129.409 L 141.545,-129.939
 L 141.145,-130.423 L 140.687,-130.853 L 140.179,-131.222 L 139.629,-131.524 L 139.045,-131.755 L 138.437,-131.911
 L 137.814,-131.99 L -137.814,-131.99 L -138.437,-131.911 L -139.045,-131.755 L -139.629,-131.524 L -140.179,-131.222
 L -140.687,-130.853 L -141.145,-130.423 L -141.545,-129.939 L -141.882,-129.409 L -142.149,-128.841 L -142.343,-128.243
 L -142.4,-127.944 L -144,-127.944 L -144,-106.056 L -142.4,-106.056 L -142.343,-105.757 L -142.149,-105.159
 L -141.882,-104.591 L -141.545,-104.061 L -141.145,-103.577 L -140.687,-103.147 L -140.179,-102.778 L -139.629,-102.476
 L -139.045,-102.245 L -138.437,-102.089 L -137.814,-102.01 L 137.814,-102.01 z
M -135.113,-122.704 L -135.337,-122.732 L -135.556,-122.788 L -135.766,-122.871 L -135.964,-122.98 L -136.147,-123.113
 L -136.312,-123.268 L -136.456,-123.442 L -136.577,-123.633 L -136.674,-123.837 L -136.743,-124.052 L -136.786,-124.274
 L -136.8,-124.5 L -136.786,-124.726 L -136.743,-124.948 L -136.674,-125.163 L -136.577,-125.367 L -136.456,-125.558
 L -136.312,-125.732 L -136.147,-125.887 L -135.964,-126.02 L -135.766,-126.129 L -135.556,-126.212 L -135.337,-126.268
 L -135.113,-126.296 L -134.887,-126.296 L -134.663,-126.268 L -134.444,-126.212 L -134.234,-126.129 L -134.036,-126.02
 L -133.853,-125.887 L -133.688,-125.732 L -133.544,-125.558 L -133.423,-125.367 L -133.326,-125.163 L -133.257,-124.948
 L -133.214,-124.726 L -133.2,-124.5 L -133.214,-124.274 L -133.257,-124.052 L -133.326,-123.837 L -133.423,-123.633
 L -133.544,-123.442 L -133.688,-123.268 L -133.853,-123.113 L -134.036,-122.98 L -134.234,-122.871 L -134.444,-122.788
 L -134.663,-122.732 L -134.887,-122.704 z
M 134.887,-122.704 L 134.663,-122.732 L 134.444,-122.788 L 134.234,-122.871 L 134.036,-122.98 L 133.853,-123.113
 L 133.688,-123.268 L 133.544,-123.442 L 133.423,-123.633 L 133.326,-123.837 L 133.257,-124.052 L 133.214,-124.274
 L 133.2,-124.5 L 133.214,-124.726 L 133.257,-124.948 L 133.326,-125.163 L 133.423,-125.367 L 133.544,-125.558
 L 133.688,-125.732 L 133.853,-125.887 L 134.036,-126.02 L 134.234,-126.129 L 134.444,-126.212 L 134.663,-126.268
 L 134.887,-126.296 L 135.113,-126.296 L 135.337,-126.268 L 135.556,-126.212 L 135.766,-126.129 L 135.964,-126.02
 L 136.147,-125.887 L 136.312,-125.732 L 136.456,-125.558 L 136.577,-125.367 L 136.674,-125.163 L 136.743,-124.948
 L 136.786,-124.726 L 136.8,-124.5 L 136.786,-124.274 L 136.743,-124.052 L 136.674,-123.837 L 136.577,-123.633
 L 136.456,-123.442 L 136.312,-123.268 L 136.147,-123.113 L 135.964,-122.98 L 135.766,-122.871 L 135.556,-122.788
 L 135.337,-122.732 L 135.113,-122.704 z
M 134.887,-107.704 L 134.663,-107.732 L 134.444,-107.788 L 134.234,-107.871 L 134.036,-107.98 L 133.853,-108.113
 L 133.688,-108.268 L 133.544,-108.442 L 133.423,-108.633 L 133.326,-108.837 L 133.257,-109.052 L 133.214,-109.274
 L 133.2,-109.5 L 133.214,-109.726 L 133.257,-109.948 L 133.326,-110.163 L 133.423,-110.367 L 133.544,-110.558
 L 133.688,-110.732 L 133.853,-110.887 L 134.036,-111.02 L 134.234,-111.129 L 134.444,-111.212 L 134.663,-111.268
 L 134.887,-111.296 L 135.113,-111.296 L 135.337,-111.268 L 135.556,-111.212 L 135.766,-111.129 L 135.964,-111.02
 L 136.147,-110.887 L 136.312,-110.732 L 136.456,-110.558 L 136.577,-110.367 L 136.674,-110.163 L 136.743,-109.948
 L 136.786,-109.726 L 136.8,-109.5 L 136.786,-109.274 L 136.743,-109.052 L 136.674,-108.837 L 136.577,-108.633
 L 136.456,-108.442 L 136.312,-108.268 L 136.147,-108.113 L 135.964,-107.98 L 135.766,-107.871 L 135.556,-107.788
 L 135.337,-107.732 L 135.113,-107.704 z
M -135.113,-107.704 L -135.337,-107.732 L -135.556,-107.788 L -135.766,-107.871 L -135.964,-107.98 L -136.147,-108.113
 L -136.312,-108.268 L -136.456,-108.442 L -136.577,-108.633 L -136.674,-108.837 L -136.743,-109.052 L -136.786,-109.274
 L -136.8,-109.5 L -136.786,-109.726 L -136.743,-109.948 L -136.674,-110.163 L -136.577,-110.367 L -136.456,-110.558
 L -136.312,-110.732 L -136.147,-110.887 L -135.964,-111.02 L -135.766,-111.129 L -135.556,-111.212 L -135.337,-111.268
 L -135.113,-111.296 L -134.887,-111.296 L -134.663,-111.268 L -134.444,-111.212 L -134.234,-111.129 L -134.036,-111.02
 L -133.853,-110.887 L -133.688,-110.732 L -133.544,-110.558 L -133.423,-110.367 L -133.326,-110.163 L -133.257,-109.948
 L -133.214,-109.726 L -133.2,-109.5 L -133.214,-109.274 L -133.257,-109.052 L -133.326,-108.837 L -133.423,-108.633
 L -133.544,-108.442 L -133.688,-108.268 L -133.853,-108.113 L -134.036,-107.98 L -134.234,-107.871 L -134.444,-107.788
 L -134.663,-107.732 L -134.887,-107.704 z
" stroke="black" fill="lightgray" stroke-width="0.5"/>
</svg>
