<?xml version="1.0" standalone="no"?>
<!DOCTYPE svg PUBLIC "-//W3C//DTD SVG 1.1//EN" "http://www.w3.org/Graphics/SVG/1.1/DTD/svg11.dtd">
<svg width="256mm" height="1227mm" viewBox="-128 -2004 256 1227" xmlns="http://www.w3.org/2000/svg" version="1.1">
<title>OpenSCAD Model</title>
<path d="
M 123.437,-1704.09 L 124.045,-1704.24 L 124.629,-1704.48 L 125.179,-1704.78 L 125.687,-1705.15 L 126.145,-1705.58
 L 126.545,-1706.06 L 126.882,-1706.59 L 127.149,-1707.16 L 127.343,-1707.76 L 127.461,-1708.37 L 127.5,-1709
 L 127.5,-1999 L 127.461,-1999.63 L 127.343,-2000.24 L 127.149,-2000.84 L 126.882,-2001.41 L 126.545,-2001.94
 L 126.145,-2002.42 L 125.687,-2002.85 L 125.179,-2003.22 L 124.629,-2003.52 L 124.045,-2003.76 L 123.437,-2003.91
 L 122.814,-2003.99 L -122.814,-2003.99 L -123.437,-2003.91 L -124.045,-2003.76 L -124.629,-2003.52 L -125.179,-2003.22
 L -125.687,-2002.85 L -126.145,-2002.42 L -126.545,-2001.94 L -126.882,-2001.41 L -127.149,-2000.84 L -127.343,-2000.24
 L -127.461,-1999.63 L -127.5,-1999 L -127.5,-1709 L -127.461,-1708.37 L -127.343,-1707.76 L -127.149,-1707.16
 L -126.882,-1706.59 L -126.545,-1706.06 L -126.145,-1705.58 L -125.687,-1705.15 L -125.179,-1704.78 L -124.629,-1704.48
 L -124.045,-1704.24 L -123.437,-1704.09 L -122.814,-1704.01 L 122.814,-1704.01 z
M -122.251,-1705.51 L -122.75,-1705.57 L -123.236,-1705.7 L -123.703,-1705.88 L -124.143,-1706.12 L -124.55,-1706.42
 L -124.916,-1706.76 L -125.236,-1707.15 L -125.505,-1707.57 L -125.719,-1708.03 L -125.874,-1708.51 L -125.968,-1709
 L -126,-1709.5 L -126,-1998.5 L -125.968,-1999 L -125.874,-1999.49 L -125.719,-1999.97 L -125.505,-2000.43
 L -125.236,-2000.85 L -124.916,-2001.24 L -124.55,-2001.58 L -124.143,-2001.88 L -123.703,-2002.12 L -123.236,-2002.3
 L -122.75,-2002.43 L -122.251,-2002.49 L 122.251,-2002.49 L 122.75,-2002.43 L 123.236,-2002.3 L 123.703,-2002.12
 L 124.143,-2001.88 L 124.55,-2001.58 L 124.916,-2001.24 L 125.236,-2000.85 L 125.505,-2000.43 L 125.719,-1999.97
 L 125.874,-1999.49 L 125.968,-1999 L 126,-1998.5 L 126,-1709.5 L 125.968,-1709 L 125.874,-1708.51
 L 125.719,-1708.03 L 125.505,-1707.57 L 125.236,-1707.15 L 124.916,-1706.76 L 124.55,-1706.42 L 124.143,-1706.12
 L 123.703,-1705.88 L 123.236,-1705.7 L 122.75,-1705.57 L 122.251,-1705.51 z
M 123.437,-1395.09 L 124.045,-1395.24 L 124.629,-1395.48 L 125.179,-1395.78 L 125.687,-1396.15 L 126.145,-1396.58
 L 126.545,-1397.06 L 126.882,-1397.59 L 127.149,-1398.16 L 127.343,-1398.76 L 127.461,-1399.37 L 127.5,-1400
 L 127.5,-1690 L 127.461,-1690.63 L 127.343,-1691.24 L 127.149,-1691.84 L 126.882,-1692.41 L 126.545,-1692.94
 L 126.145,-1693.42 L 125.687,-1693.85 L 125.179,-1694.22 L 124.629,-1694.52 L 124.045,-1694.76 L 123.437,-1694.91
 L 122.814,-1694.99 L -122.814,-1694.99 L -123.437,-1694.91 L -124.045,-1694.76 L -124.629,-1694.52 L -125.179,-1694.22
 L -125.687,-1693.85 L -126.145,-1693.42 L -126.545,-1692.94 L -126.882,-1692.41 L -127.149,-1691.84 L -127.343,-1691.24
 L -127.461,-1690.63 L -127.5,-1690 L -127.5,-1400 L -127.461,-1399.37 L -127.343,-1398.76 L -127.149,-1398.16
 L -126.882,-1397.59 L -126.545,-1397.06 L -126.145,-1396.58 L -125.687,-1396.15 L -125.179,-1395.78 L -124.629,-1395.48
 L -124.045,-1395.24 L -123.437,-1395.09 L -122.814,-1395.01 L 122.814,-1395.01 z
M -122.243,-1396.64 L -122.726,-1396.7 L -123.197,-1396.82 L -123.649,-1397 L -124.075,-1397.23 L -124.469,-1397.52
 L -124.823,-1397.85 L -125.133,-1398.22 L -125.394,-1398.63 L -125.601,-1399.07 L -125.751,-1399.54 L -125.842,-1400.01
 L -125.873,-1400.5 L -125.873,-1689.5 L -125.842,-1689.99 L -125.751,-1690.46 L -125.601,-1690.93 L -125.394,-1691.37
 L -125.133,-1691.78 L -124.823,-1692.15 L -124.469,-1692.48 L -124.075,-1692.77 L -123.649,-1693 L -123.197,-1693.18
 L -122.726,-1693.3 L -122.243,-1693.36 L 122.243,-1693.36 L 122.726,-1693.3 L 123.197,-1693.18 L 123.649,-1693
 L 124.075,-1692.77 L 124.469,-1692.48 L 124.823,-1692.15 L 125.133,-1691.78 L 125.394,-1691.37 L 125.601,-1690.93
 L 125.751,-1690.46 L 125.842,-1689.99 L 125.873,-1689.5 L 125.873,-1400.5 L 125.842,-1400.01 L 125.751,-1399.54
 L 125.601,-1399.07 L 125.394,-1398.63 L 125.133,-1398.22 L 124.823,-1397.85 L 124.469,-1397.52 L 124.075,-1397.23
 L 123.649,-1397 L 123.197,-1396.82 L 122.726,-1396.7 L 122.243,-1396.64 z
M 123.437,-1086.09 L 124.045,-1086.24 L 124.629,-1086.48 L 125.179,-1086.78 L 125.687,-1087.15 L 126.145,-1087.58
 L 126.545,-1088.06 L 126.882,-1088.59 L 127.149,-1089.16 L 127.343,-1089.76 L 127.461,-1090.37 L 127.5,-1091
 L 127.5,-1381 L 127.461,-1381.63 L 127.343,-1382.24 L 127.149,-1382.84 L 126.882,-1383.41 L 126.545,-1383.94
 L 126.145,-1384.42 L 125.687,-1384.85 L 125.179,-1385.22 L 124.629,-1385.52 L 124.045,-1385.76 L 123.437,-1385.91
 L 122.814,-1385.99 L -122.814,-1385.99 L -123.437,-1385.91 L -124.045,-1385.76 L -124.629,-1385.52 L -125.179,-1385.22
 L -125.687,-1384.85 L -126.145,-1384.42 L -126.545,-1383.94 L -126.882,-1383.41 L -127.149,-1382.84 L -127.343,-1382.24
 L -127.461,-1381.63 L -127.5,-1381 L -127.5,-1091 L -127.461,-1090.37 L -127.343,-1089.76 L -127.149,-1089.16
 L -126.882,-1088.59 L -126.545,-1088.06 L -126.145,-1087.58 L -125.687,-1087.15 L -125.179,-1086.78 L -124.629,-1086.48
 L -124.045,-1086.24 L -123.437,-1086.09 L -122.814,-1086.01 L 122.814,-1086.01 z
M 119.849,-1376.1 L 119.55,-1376.14 L 119.258,-1376.22 L 118.978,-1376.33 L 118.714,-1376.47 L 118.47,-1376.65
 L 118.25,-1376.86 L 118.058,-1377.09 L 117.897,-1377.34 L 117.769,-1377.62 L 117.675,-1377.9 L 117.619,-1378.2
 L 117.6,-1378.5 L 117.619,-1378.8 L 117.675,-1379.1 L 117.769,-1379.38 L 117.897,-1379.66 L 118.058,-1379.91
 L 118.25,-1380.14 L 118.47,-1380.35 L 118.714,-1380.53 L 118.978,-1380.67 L 119.258,-1380.78 L 119.55,-1380.86
 L 119.849,-1380.9 L 120.151,-1380.9 L 120.45,-1380.86 L 120.742,-1380.78 L 121.022,-1380.67 L 121.286,-1380.53
 L 121.53,-1380.35 L 121.75,-1380.14 L 121.942,-1379.91 L 122.103,-1379.66 L 122.231,-1379.38 L 122.325,-1379.1
 L 122.381,-1378.8 L 122.4,-1378.5 L 122.381,-1378.2 L 122.325,-1377.9 L 122.231,-1377.62 L 122.103,-1377.34
 L 121.942,-1377.09 L 121.75,-1376.86 L 121.53,-1376.65 L 121.286,-1376.47 L 121.022,-1376.33 L 120.742,-1376.22
 L 120.45,-1376.14 L 120.151,-1376.1 z
M -120.151,-1376.1 L -120.45,-1376.14 L -120.742,-1376.22 L -121.022,-1376.33 L -121.286,-1376.47 L -121.53,-1376.65
 L -121.75,-1376.86 L -121.942,-1377.09 L -122.103,-1377.34 L -122.231,-1377.62 L -122.325,-1377.9 L -122.381,-1378.2
 L -122.4,-1378.5 L -122.381,-1378.8 L -122.325,-1379.1 L -122.231,-1379.38 L -122.103,-1379.66 L -121.942,-1379.91
 L -121.75,-1380.14 L -121.53,-1380.35 L -121.286,-1380.53 L -121.022,-1380.67 L -120.742,-1380.78 L -120.45,-1380.86
 L -120.151,-1380.9 L -119.849,-1380.9 L -119.55,-1380.86 L -119.258,-1380.78 L -118.978,-1380.67 L -118.714,-1380.53
 L -118.47,-1380.35 L -118.25,-1380.14 L -118.058,-1379.91 L -117.897,-1379.66 L -117.769,-1379.38 L -117.675,-1379.1
 L -117.619,-1378.8 L -117.6,-1378.5 L -117.619,-1378.2 L -117.675,-1377.9 L -117.769,-1377.62 L -117.897,-1377.34
 L -118.058,-1377.09 L -118.25,-1376.86 L -118.47,-1376.65 L -118.714,-1376.47 L -118.978,-1376.33 L -119.258,-1376.22
 L -119.55,-1376.14 L -119.849,-1376.1 z
M 119.849,-1091.1 L 119.55,-1091.14 L 119.258,-1091.22 L 118.978,-1091.33 L 118.714,-1091.47 L 118.47,-1091.65
 L 118.25,-1091.86 L 118.058,-1092.09 L 117.897,-1092.34 L 117.769,-1092.62 L 117.675,-1092.9 L 117.619,-1093.2
 L 117.6,-1093.5 L 117.619,-1093.8 L 117.675,-1094.1 L 117.769,-1094.38 L 117.897,-1094.66 L 118.058,-1094.91
 L 118.25,-1095.14 L 118.47,-1095.35 L 118.714,-1095.53 L 118.978,-1095.67 L 119.258,-1095.78 L 119.55,-1095.86
 L 119.849,-1095.9 L 120.151,-1095.9 L 120.45,-1095.86 L 120.742,-1095.78 L 121.022,-1095.67 L 121.286,-1095.53
 L 121.53,-1095.35 L 121.75,-1095.14 L 121.942,-1094.91 L 122.103,-1094.66 L 122.231,-1094.38 L 122.325,-1094.1
 L 122.381,-1093.8 L 122.4,-1093.5 L 122.381,-1093.2 L 122.325,-1092.9 L 122.231,-1092.62 L 122.103,-1092.34
 L 121.942,-1092.09 L 121.75,-1091.86 L 121.53,-1091.65 L 121.286,-1091.47 L 121.022,-1091.33 L 120.742,-1091.22
 L 120.45,-1091.14 L 120.151,-1091.1 z
M -120.151,-1091.1 L -120.45,-1091.14 L -120.742,-1091.22 L -121.022,-1091.33 L -121.286,-1091.47 L -121.53,-1091.65
 L -121.75,-1091.86 L -121.942,-1092.09 L -122.103,-1092.34 L -122.231,-1092.62 L -122.325,-1092.9 L -122.381,-1093.2
 L -122.4,-1093.5 L -122.381,-1093.8 L -122.325,-1094.1 L -122.231,-1094.38 L -122.103,-1094.66 L -121.942,-1094.91
 L -121.75,-1095.14 L -121.53,-1095.35 L -121.286,-1095.53 L -121.022,-1095.67 L -120.742,-1095.78 L -120.45,-1095.86
 L -120.151,-1095.9 L -119.849,-1095.9 L -119.55,-1095.86 L -119.258,-1095.78 L -118.978,-1095.67 L -118.714,-1095.53
 L -118.47,-1095.35 L -118.25,-1095.14 L -118.058,-1094.91 L -117.897,-1094.66 L -117.769,-1094.38 L -117.675,-1094.1
 L -117.619,-1093.8 L -117.6,-1093.5 L -117.619,-1093.2 L -117.675,-1092.9 L -117.769,-1092.62 L -117.897,-1092.34
 L -118.058,-1092.09 L -118.25,-1091.86 L -118.47,-1091.65 L -118.714,-1091.47 L -118.978,-1091.33 L -119.258,-1091.22
 L -119.55,-1091.14 L -119.849,-1091.1 z
M 123.437,-777.089 L 124.045,-777.245 L 124.629,-777.476 L 125.179,-777.778 L 125.687,-778.147 L 126.145,-778.577
 L 126.545,-779.061 L 126.882,-779.591 L 127.149,-780.159 L 127.343,-780.757 L 127.461,-781.373 L 127.5,-782
 L 127.5,-1072 L 127.461,-1072.63 L 127.343,-1073.24 L 127.149,-1073.84 L 126.882,-1074.41 L 126.545,-1074.94
 L 126.145,-1075.42 L 125.687,-1075.85 L 125.179,-1076.22 L 124.629,-1076.52 L 124.045,-1076.76 L 123.437,-1076.91
 L 122.814,-1076.99 L -122.814,-1076.99 L -123.437,-1076.91 L -124.045,-1076.76 L -124.629,-1076.52 L -125.179,-1076.22
 L -125.687,-1075.85 L -126.145,-1075.42 L -126.545,-1074.94 L -126.882,-1074.41 L -127.149,-1073.84 L -127.343,-1073.24
 L -127.461,-1072.63 L -127.5,-1072 L -127.5,-782 L -127.461,-781.373 L -127.343,-780.757 L -127.149,-780.159
 L -126.882,-779.591 L -126.545,-779.061 L -126.145,-778.577 L -125.687,-778.147 L -125.179,-777.778 L -124.629,-777.476
 L -124.045,-777.245 L -123.437,-777.089 L -122.814,-777.01 L 122.814,-777.01 z
M 119.887,-1067.7 L 119.663,-1067.73 L 119.444,-1067.79 L 119.234,-1067.87 L 119.036,-1067.98 L 118.853,-1068.11
 L 118.688,-1068.27 L 118.544,-1068.44 L 118.423,-1068.63 L 118.326,-1068.84 L 118.257,-1069.05 L 118.214,-1069.27
 L 118.2,-1069.5 L 118.214,-1069.73 L 118.257,-1069.95 L 118.326,-1070.16 L 118.423,-1070.37 L 118.544,-1070.56
 L 118.688,-1070.73 L 118.853,-1070.89 L 119.036,-1071.02 L 119.234,-1071.13 L 119.444,-1071.21 L 119.663,-1071.27
 L 119.887,-1071.3 L 120.113,-1071.3 L 120.337,-1071.27 L 120.556,-1071.21 L 120.766,-1071.13 L 120.964,-1071.02
 L 121.147,-1070.89 L 121.312,-1070.73 L 121.456,-1070.56 L 121.577,-1070.37 L 121.674,-1070.16 L 121.743,-1069.95
 L 121.786,-1069.73 L 121.8,-1069.5 L 121.786,-1069.27 L 121.743,-1069.05 L 121.674,-1068.84 L 121.577,-1068.63
 L 121.456,-1068.44 L 121.312,-1068.27 L 121.147,-1068.11 L 120.964,-1067.98 L 120.766,-1067.87 L 120.556,-1067.79
 L 120.337,-1067.73 L 120.113,-1067.7 z
M -120.113,-1067.7 L -120.337,-1067.73 L -120.556,-1067.79 L -120.766,-1067.87 L -120.964,-1067.98 L -121.147,-1068.11
 L -121.312,-1068.27 L -121.456,-1068.44 L -121.577,-1068.63 L -121.674,-1068.84 L -121.743,-1069.05 L -121.786,-1069.27
 L -121.8,-1069.5 L -121.786,-1069.73 L -121.743,-1069.95 L -121.674,-1070.16 L -121.577,-1070.37 L -121.456,-1070.56
 L -121.312,-1070.73 L -121.147,-1070.89 L -120.964,-1071.02 L -120.766,-1071.13 L -120.556,-1071.21 L -120.337,-1071.27
 L -120.113,-1071.3 L -119.887,-1071.3 L -119.663,-1071.27 L -119.444,-1071.21 L -119.234,-1071.13 L -119.036,-1071.02
 L -118.853,-1070.89 L -118.688,-1070.73 L -118.544,-1070.56 L -118.423,-1070.37 L -118.326,-1070.16 L -118.257,-1069.95
 L -118.214,-1069.73 L -118.2,-1069.5 L -118.214,-1069.27 L -118.257,-1069.05 L -118.326,-1068.84 L -118.423,-1068.63
 L -118.544,-1068.44 L -118.688,-1068.27 L -118.853,-1068.11 L -119.036,-1067.98 L -119.234,-1067.87 L -119.444,-1067.79
 L -119.663,-1067.73 L -119.887,-1067.7 z
M -120.113,-782.704 L -120.337,-782.732 L -120.556,-782.788 L -120.766,-782.871 L -120.964,-782.98 L -121.147,-783.113
 L -121.312,-783.268 L -121.456,-783.442 L -121.577,-783.633 L -121.674,-783.837 L -121.743,-784.052 L -121.786,-784.274
 L -121.8,-784.5 L -121.786,-784.726 L -121.743,-784.948 L -121.674,-785.163 L -121.577,-785.367 L -121.456,-785.558
 L -121.312,-785.732 L -121.147,-785.887 L -120.964,-786.02 L -120.766,-786.129 L -120.556,-786.212 L -120.337,-786.268
 L -120.113,-786.296 L -119.887,-786.296 L -119.663,-786.268 L -119.444,-786.212 L -119.234,-786.129 L -119.036,-786.02
 L -118.853,-785.887 L -118.688,-785.732 L -118.544,-785.558 L -118.423,-785.367 L -118.326,-785.163 L -118.257,-784.948
 L -118.214,-784.726 L -118.2,-784.5 L -118.214,-784.274 L -118.257,-784.052 L -118.326,-783.837 L -118.423,-783.633
 L -118.544,-783.442 L -118.688,-783.268 L -118.853,-783.113 L -119.036,-782.98 L -119.234,-782.871 L -119.444,-782.788
 L -119.663,-782.732 L -119.887,-782.704 z
M 119.887,-782.704 L 119.663,-782.732 L 119.444,-782.788 L 119.234,-782.871 L 119.036,-782.98 L 118.853,-783.113
 L 118.688,-783.268 L 118.544,-783.442 L 118.423,-783.633 L 118.326,-783.837 L 118.257,-784.052 L 118.214,-784.274
 L 118.2,-784.5 L 118.214,-784.726 L 118.257,-784.948 L 118.326,-785.163 L 118.423,-785.367 L 118.544,-785.558
 L 118.688,-785.732 L 118.853,-785.887 L 119.036,-786.02 L 119.234,-786.129 L 119.444,-786.212 L 119.663,-786.268
 L 119.887,-786.296 L 120.113,-786.296 L 120.337,-786.268 L 120.556,-786.212 L 120.766,-786.129 L 120.964,-786.02
 L 121.147,-785.887 L 121.312,-785.732 L 121.456,-785.558 L 121.577,-785.367 L 121.674,-785.163 L 121.743,-784.948
 L 121.786,-784.726 L 121.8,-784.5 L 121.786,-784.274 L 121.743,-784.052 L 121.674,-783.837 L 121.577,-783.633
 L 121.456,-783.442 L 121.312,-783.268 L 121.147,-783.113 L 120.964,-782.98 L 120.766,-782.871 L 120.556,-782.788
 L 120.337,-782.732 L 120.113,-782.704 z
" stroke="black" fill="lightgray" stroke-width="0.5"/>
</svg>
