<?xml version="1.0" standalone="no"?>
<!DOCTYPE svg PUBLIC "-//W3C//DTD SVG 1.1//EN" "http://www.w3.org/Graphics/SVG/1.1/DTD/svg11.dtd">
<svg width="256mm" height="828mm" viewBox="-128 -1530 256 828" xmlns="http://www.w3.org/2000/svg" version="1.1">
<title>OpenSCAD Model</title>
<path d="
M 123.437,-1260.09 L 124.045,-1260.24 L 124.629,-1260.48 L 125.179,-1260.78 L 125.687,-1261.15 L 126.145,-1261.58
 L 126.545,-1262.06 L 126.882,-1262.59 L 127.149,-1263.16 L 127.343,-1263.76 L 127.461,-1264.37 L 127.5,-1265
 L 127.5,-1525 L 127.461,-1525.63 L 127.343,-1526.24 L 127.149,-1526.84 L 126.882,-1527.41 L 126.545,-1527.94
 L 126.145,-1528.42 L 125.687,-1528.85 L 125.179,-1529.22 L 124.629,-1529.52 L 124.045,-1529.76 L 123.437,-1529.91
 L 122.814,-1529.99 L -122.814,-1529.99 L -123.437,-1529.91 L -124.045,-1529.76 L -124.629,-1529.52 L -125.179,-1529.22
 L -125.687,-1528.85 L -126.145,-1528.42 L -126.545,-1527.94 L -126.882,-1527.41 L -127.149,-1526.84 L -127.343,-1526.24
 L -127.461,-1525.63 L -127.5,-1525 L -127.5,-1265 L -127.461,-1264.37 L -127.343,-1263.76 L -127.149,-1263.16
 L -126.882,-1262.59 L -126.545,-1262.06 L -126.145,-1261.58 L -125.687,-1261.15 L -125.179,-1260.78 L -124.629,-1260.48
 L -124.045,-1260.24 L -123.437,-1260.09 L -122.814,-1260.01 L 122.814,-1260.01 z
M -122.251,-1261.51 L -122.75,-1261.57 L -123.236,-1261.7 L -123.703,-1261.88 L -124.143,-1262.12 L -124.55,-1262.42
 L -124.916,-1262.76 L -125.236,-1263.15 L -125.505,-1263.57 L -125.719,-1264.03 L -125.874,-1264.51 L -125.968,-1265
 L -126,-1265.5 L -126,-1524.5 L -125.968,-1525 L -125.874,-1525.49 L -125.719,-1525.97 L -125.505,-1526.43
 L -125.236,-1526.85 L -124.916,-1527.24 L -124.55,-1527.58 L -124.143,-1527.88 L -123.703,-1528.12 L -123.236,-1528.3
 L -122.75,-1528.43 L -122.251,-1528.49 L 122.251,-1528.49 L 122.75,-1528.43 L 123.236,-1528.3 L 123.703,-1528.12
 L 124.143,-1527.88 L 124.55,-1527.58 L 124.916,-1527.24 L 125.236,-1526.85 L 125.505,-1526.43 L 125.719,-1525.97
 L 125.874,-1525.49 L 125.968,-1525 L 126,-1524.5 L 126,-1265.5 L 125.968,-1265 L 125.874,-1264.51
 L 125.719,-1264.03 L 125.505,-1263.57 L 125.236,-1263.15 L 124.916,-1262.76 L 124.55,-1262.42 L 124.143,-1262.12
 L 123.703,-1261.88 L 123.236,-1261.7 L 122.75,-1261.57 L 122.251,-1261.51 z
M 123.437,-981.089 L 124.045,-981.245 L 124.629,-981.476 L 125.179,-981.778 L 125.687,-982.147 L 126.145,-982.577
 L 126.545,-983.061 L 126.882,-983.591 L 127.149,-984.159 L 127.343,-984.757 L 127.461,-985.373 L 127.5,-986
 L 127.5,-1246 L 127.461,-1246.63 L 127.343,-1247.24 L 127.149,-1247.84 L 126.882,-1248.41 L 126.545,-1248.94
 L 126.145,-1249.42 L 125.687,-1249.85 L 125.179,-1250.22 L 124.629,-1250.52 L 124.045,-1250.76 L 123.437,-1250.91
 L 122.814,-1250.99 L -122.814,-1250.99 L -123.437,-1250.91 L -124.045,-1250.76 L -124.629,-1250.52 L -125.179,-1250.22
 L -125.687,-1249.85 L -126.145,-1249.42 L -126.545,-1248.94 L -126.882,-1248.41 L -127.149,-1247.84 L -127.343,-1247.24
 L -127.461,-1246.63 L -127.5,-1246 L -127.5,-986 L -127.461,-985.373 L -127.343,-984.757 L -127.149,-984.159
 L -126.882,-983.591 L -126.545,-983.061 L -126.145,-982.577 L -125.687,-982.147 L -125.179,-981.778 L -124.629,-981.476
 L -124.045,-981.245 L -123.437,-981.089 L -122.814,-981.01 L 122.814,-981.01 z
M -122.195,-983.393 L -122.583,-983.442 L -122.962,-983.539 L -123.325,-983.683 L -123.668,-983.872 L -123.984,-984.101
 L -124.269,-984.369 L -124.518,-984.67 L -124.728,-985 L -124.894,-985.354 L -125.015,-985.726 L -125.088,-986.11
 L -125.113,-986.5 L -125.113,-1245.5 L -125.088,-1245.89 L -125.015,-1246.27 L -124.894,-1246.65 L -124.728,-1247
 L -124.518,-1247.33 L -124.269,-1247.63 L -123.984,-1247.9 L -123.668,-1248.13 L -123.325,-1248.32 L -122.962,-1248.46
 L -122.583,-1248.56 L -122.195,-1248.61 L 122.195,-1248.61 L 122.583,-1248.56 L 122.962,-1248.46 L 123.325,-1248.32
 L 123.668,-1248.13 L 123.984,-1247.9 L 124.269,-1247.63 L 124.518,-1247.33 L 124.728,-1247 L 124.894,-1246.65
 L 125.015,-1246.27 L 125.088,-1245.89 L 125.113,-1245.5 L 125.113,-986.5 L 125.088,-986.11 L 125.015,-985.726
 L 124.894,-985.354 L 124.728,-985 L 124.518,-984.67 L 124.269,-984.369 L 123.984,-984.101 L 123.668,-983.872
 L 123.325,-983.683 L 122.962,-983.539 L 122.583,-983.442 L 122.195,-983.393 z
M 123.437,-702.089 L 124.045,-702.245 L 124.629,-702.476 L 125.179,-702.778 L 125.687,-703.147 L 126.145,-703.577
 L 126.545,-704.061 L 126.882,-704.591 L 127.149,-705.159 L 127.343,-705.757 L 127.461,-706.373 L 127.5,-707
 L 127.5,-967 L 127.461,-967.627 L 127.343,-968.243 L 127.149,-968.841 L 126.882,-969.409 L 126.545,-969.939
 L 126.145,-970.423 L 125.687,-970.853 L 125.179,-971.222 L 124.629,-971.524 L 124.045,-971.755 L 123.437,-971.911
 L 122.814,-971.99 L -122.814,-971.99 L -123.437,-971.911 L -124.045,-971.755 L -124.629,-971.524 L -125.179,-971.222
 L -125.687,-970.853 L -126.145,-970.423 L -126.545,-969.939 L -126.882,-969.409 L -127.149,-968.841 L -127.343,-968.243
 L -127.461,-967.627 L -127.5,-967 L -127.5,-707 L -127.461,-706.373 L -127.343,-705.757 L -127.149,-705.159
 L -126.882,-704.591 L -126.545,-704.061 L -126.145,-703.577 L -125.687,-703.147 L -125.179,-702.778 L -124.629,-702.476
 L -124.045,-702.245 L -123.437,-702.089 L -122.814,-702.01 L 122.814,-702.01 z
M 119.866,-962.369 L 119.6,-962.403 L 119.34,-962.469 L 119.091,-962.568 L 118.856,-962.697 L 118.639,-962.855
 L 118.443,-963.038 L 118.273,-963.245 L 118.129,-963.471 L 118.015,-963.714 L 117.932,-963.969 L 117.882,-964.232
 L 117.865,-964.5 L 117.882,-964.768 L 117.932,-965.031 L 118.015,-965.286 L 118.129,-965.529 L 118.273,-965.755
 L 118.443,-965.962 L 118.639,-966.145 L 118.856,-966.303 L 119.091,-966.432 L 119.34,-966.531 L 119.6,-966.597
 L 119.866,-966.631 L 120.134,-966.631 L 120.4,-966.597 L 120.66,-966.531 L 120.909,-966.432 L 121.144,-966.303
 L 121.361,-966.145 L 121.557,-965.962 L 121.727,-965.755 L 121.871,-965.529 L 121.985,-965.286 L 122.068,-965.031
 L 122.118,-964.768 L 122.135,-964.5 L 122.118,-964.232 L 122.068,-963.969 L 121.985,-963.714 L 121.871,-963.471
 L 121.727,-963.245 L 121.557,-963.038 L 121.361,-962.855 L 121.144,-962.697 L 120.909,-962.568 L 120.66,-962.469
 L 120.4,-962.403 L 120.134,-962.369 z
M -120.134,-962.369 L -120.4,-962.403 L -120.66,-962.469 L -120.909,-962.568 L -121.144,-962.697 L -121.361,-962.855
 L -121.557,-963.038 L -121.727,-963.245 L -121.871,-963.471 L -121.985,-963.714 L -122.068,-963.969 L -122.118,-964.232
 L -122.135,-964.5 L -122.118,-964.768 L -122.068,-965.031 L -121.985,-965.286 L -121.871,-965.529 L -121.727,-965.755
 L -121.557,-965.962 L -121.361,-966.145 L -121.144,-966.303 L -120.909,-966.432 L -120.66,-966.531 L -120.4,-966.597
 L -120.134,-966.631 L -119.866,-966.631 L -119.6,-966.597 L -119.34,-966.531 L -119.091,-966.432 L -118.856,-966.303
 L -118.639,-966.145 L -118.443,-965.962 L -118.273,-965.755 L -118.129,-965.529 L -118.015,-965.286 L -117.932,-965.031
 L -117.882,-964.768 L -117.865,-964.5 L -117.882,-964.232 L -117.932,-963.969 L -118.015,-963.714 L -118.129,-963.471
 L -118.273,-963.245 L -118.443,-963.038 L -118.639,-962.855 L -118.856,-962.697 L -119.091,-962.568 L -119.34,-962.469
 L -119.6,-962.403 L -119.866,-962.369 z
M 119.866,-707.369 L 119.6,-707.403 L 119.34,-707.469 L 119.091,-707.568 L 118.856,-707.697 L 118.639,-707.855
 L 118.443,-708.038 L 118.273,-708.245 L 118.129,-708.471 L 118.015,-708.714 L 117.932,-708.969 L 117.882,-709.232
 L 117.865,-709.5 L 117.882,-709.768 L 117.932,-710.031 L 118.015,-710.286 L 118.129,-710.529 L 118.273,-710.755
 L 118.443,-710.962 L 118.639,-711.145 L 118.856,-711.303 L 119.091,-711.432 L 119.34,-711.531 L 119.6,-711.597
 L 119.866,-711.631 L 120.134,-711.631 L 120.4,-711.597 L 120.66,-711.531 L 120.909,-711.432 L 121.144,-711.303
 L 121.361,-711.145 L 121.557,-710.962 L 121.727,-710.755 L 121.871,-710.529 L 121.985,-710.286 L 122.068,-710.031
 L 122.118,-709.768 L 122.135,-709.5 L 122.118,-709.232 L 122.068,-708.969 L 121.985,-708.714 L 121.871,-708.471
 L 121.727,-708.245 L 121.557,-708.038 L 121.361,-707.855 L 121.144,-707.697 L 120.909,-707.568 L 120.66,-707.469
 L 120.4,-707.403 L 120.134,-707.369 z
M -120.134,-707.369 L -120.4,-707.403 L -120.66,-707.469 L -120.909,-707.568 L -121.144,-707.697 L -121.361,-707.855
 L -121.557,-708.038 L -121.727,-708.245 L -121.871,-708.471 L -121.985,-708.714 L -122.068,-708.969 L -122.118,-709.232
 L -122.135,-709.5 L -122.118,-709.768 L -122.068,-710.031 L -121.985,-710.286 L -121.871,-710.529 L -121.727,-710.755
 L -121.557,-710.962 L -121.361,-711.145 L -121.144,-711.303 L -120.909,-711.432 L -120.66,-711.531 L -120.4,-711.597
 L -120.134,-711.631 L -119.866,-711.631 L -119.6,-711.597 L -119.34,-711.531 L -119.091,-711.432 L -118.856,-711.303
 L -118.639,-711.145 L -118.443,-710.962 L -118.273,-710.755 L -118.129,-710.529 L -118.015,-710.286 L -117.932,-710.031
 L -117.882,-709.768 L -117.865,-709.5 L -117.882,-709.232 L -117.932,-708.969 L -118.015,-708.714 L -118.129,-708.471
 L -118.273,-708.245 L -118.443,-708.038 L -118.639,-707.855 L -118.856,-707.697 L -119.091,-707.568 L -119.34,-707.469
 L -119.6,-707.403 L -119.866,-707.369 z
" stroke="black" fill="lightgray" stroke-width="0.5"/>
</svg>
