<?xml version="1.0" standalone="no"?>
<!DOCTYPE svg PUBLIC "-//W3C//DTD SVG 1.1//EN" "http://www.w3.org/Graphics/SVG/1.1/DTD/svg11.dtd">
<svg width="256mm" height="189mm" viewBox="-128 -342 256 189" xmlns="http://www.w3.org/2000/svg" version="1.1">
<title>OpenSCAD Model</title>
<path d="
M 123.437,-252.089 L 124.045,-252.245 L 124.629,-252.476 L 125.179,-252.778 L 125.687,-253.147 L 126.145,-253.577
 L 126.545,-254.061 L 126.882,-254.591 L 127.149,-255.159 L 127.343,-255.757 L 127.461,-256.373 L 127.5,-257
 L 127.5,-337 L 127.461,-337.627 L 127.343,-338.243 L 127.149,-338.841 L 126.882,-339.409 L 126.545,-339.939
 L 126.145,-340.423 L 125.687,-340.853 L 125.179,-341.222 L 124.629,-341.524 L 124.045,-341.755 L 123.437,-341.911
 L 122.814,-341.99 L -122.814,-341.99 L -123.437,-341.911 L -124.045,-341.755 L -124.629,-341.524 L -125.179,-341.222
 L -125.687,-340.853 L -126.145,-340.423 L -126.545,-339.939 L -126.882,-339.409 L -127.149,-338.841 L -127.343,-338.243
 L -127.461,-337.627 L -127.5,-337 L -127.5,-257 L -127.461,-256.373 L -127.343,-255.757 L -127.149,-255.159
 L -126.882,-254.591 L -126.545,-254.061 L -126.145,-253.577 L -125.687,-253.147 L -125.179,-252.778 L -124.629,-252.476
 L -124.045,-252.245 L -123.437,-252.089 L -122.814,-252.01 L 122.814,-252.01 z
M -122.537,-252.681 L -123.108,-252.753 L -123.665,-252.896 L -124.199,-253.107 L -124.703,-253.384 L -125.168,-253.722
 L -125.588,-254.116 L -125.954,-254.559 L -126.262,-255.044 L -126.507,-255.565 L -126.685,-256.111 L -126.792,-256.676
 L -126.828,-257.25 L -126.828,-336.75 L -126.792,-337.324 L -126.685,-337.889 L -126.507,-338.435 L -126.262,-338.956
 L -125.954,-339.441 L -125.588,-339.884 L -125.168,-340.278 L -124.703,-340.616 L -124.199,-340.893 L -123.665,-341.104
 L -123.108,-341.247 L -122.537,-341.319 L 122.537,-341.319 L 123.108,-341.247 L 123.665,-341.104 L 124.199,-340.893
 L 124.703,-340.616 L 125.168,-340.278 L 125.588,-339.884 L 125.954,-339.441 L 126.262,-338.956 L 126.507,-338.435
 L 126.685,-337.889 L 126.792,-337.324 L 126.828,-336.75 L 126.828,-257.25 L 126.792,-256.676 L 126.685,-256.111
 L 126.507,-255.565 L 126.262,-255.044 L 125.954,-254.559 L 125.588,-254.116 L 125.168,-253.722 L 124.703,-253.384
 L 124.199,-253.107 L 123.665,-252.896 L 123.108,-252.753 L 122.537,-252.681 z
M 123.437,-153.089 L 124.045,-153.245 L 124.629,-153.476 L 125.179,-153.778 L 125.687,-154.147 L 126.145,-154.577
 L 126.545,-155.061 L 126.882,-155.591 L 127.149,-156.159 L 127.343,-156.757 L 127.461,-157.373 L 127.5,-158
 L 127.5,-238 L 127.461,-238.627 L 127.343,-239.243 L 127.149,-239.841 L 126.882,-240.409 L 126.545,-240.939
 L 126.145,-241.423 L 125.687,-241.853 L 125.179,-242.222 L 124.629,-242.524 L 124.045,-242.755 L 123.437,-242.911
 L 122.814,-242.99 L -122.814,-242.99 L -123.437,-242.911 L -124.045,-242.755 L -124.629,-242.524 L -125.179,-242.222
 L -125.687,-241.853 L -126.145,-241.423 L -126.545,-240.939 L -126.882,-240.409 L -127.149,-239.841 L -127.343,-239.243
 L -127.461,-238.627 L -127.5,-238 L -127.5,-158 L -127.461,-157.373 L -127.343,-156.757 L -127.149,-156.159
 L -126.882,-155.591 L -126.545,-155.061 L -126.145,-154.577 L -125.687,-154.147 L -125.179,-153.778 L -124.629,-153.476
 L -124.045,-153.245 L -123.437,-153.089 L -122.814,-153.01 L 122.814,-153.01 z
M -122.382,-156.145 L -122.645,-156.178 L -122.902,-156.244 L -123.148,-156.341 L -123.38,-156.469 L -123.595,-156.625
 L -123.788,-156.806 L -123.957,-157.01 L -124.099,-157.234 L -124.211,-157.473 L -124.293,-157.725 L -124.343,-157.986
 L -124.36,-158.25 L -124.36,-237.75 L -124.343,-238.014 L -124.293,-238.275 L -124.211,-238.527 L -124.099,-238.766
 L -123.957,-238.99 L -123.788,-239.194 L -123.595,-239.375 L -123.38,-239.531 L -123.148,-239.659 L -122.902,-239.756
 L -122.645,-239.822 L -122.382,-239.855 L 122.382,-239.855 L 122.645,-239.822 L 122.902,-239.756 L 123.148,-239.659
 L 123.38,-239.531 L 123.595,-239.375 L 123.788,-239.194 L 123.957,-238.99 L 124.099,-238.766 L 124.211,-238.527
 L 124.293,-238.275 L 124.343,-238.014 L 124.36,-237.75 L 124.36,-158.25 L 124.343,-157.986 L 124.293,-157.725
 L 124.211,-157.473 L 124.099,-157.234 L 123.957,-157.01 L 123.788,-156.806 L 123.595,-156.625 L 123.38,-156.469
 L 123.148,-156.341 L 122.902,-156.244 L 122.645,-156.178 L 122.382,-156.145 z
" stroke="black" fill="lightgray" stroke-width="0.5"/>
</svg>
