<?xml version="1.0" standalone="no"?>
<!DOCTYPE svg PUBLIC "-//W3C//DTD SVG 1.1//EN" "http://www.w3.org/Graphics/SVG/1.1/DTD/svg11.dtd">
<svg width="287mm" height="55mm" viewBox="-144 -106 287 55" xmlns="http://www.w3.org/2000/svg" version="1.1">
<title>OpenSCAD Model</title>
<path d="
M 138.437,-83.3386 L 139.045,-83.4947 L 139.629,-83.7259 L 140.179,-84.0284 L 140.687,-84.3974 L 141.145,-84.8273
 L 141.545,-85.3111 L 141.882,-85.8412 L 142.149,-86.4094 L 142.343,-87.0066 L 142.461,-87.6233 L 142.5,-88.25
 L 142.5,-100.75 L 142.461,-101.377 L 142.343,-101.993 L 142.149,-102.591 L 141.882,-103.159 L 141.545,-103.689
 L 141.145,-104.173 L 140.687,-104.603 L 140.179,-104.972 L 139.629,-105.274 L 139.045,-105.505 L 138.437,-105.661
 L 137.814,-105.74 L -137.814,-105.74 L -138.437,-105.661 L -139.045,-105.505 L -139.629,-105.274 L -140.179,-104.972
 L -140.687,-104.603 L -141,-104.309 L -141,-105.729 L -144,-105.729 L -144,-83.2707 L -141,-83.2707
 L -141,-84.6913 L -140.687,-84.3974 L -140.179,-84.0284 L -139.629,-83.7259 L -139.045,-83.4947 L -138.437,-83.3386
 L -137.814,-83.2599 L 137.814,-83.2599 z
M -137.195,-85.6432 L -137.583,-85.6922 L -137.962,-85.7894 L -138.325,-85.9333 L -138.668,-86.1217 L -138.984,-86.3515
 L -139.269,-86.6191 L -139.518,-86.9203 L -139.728,-87.2504 L -139.894,-87.6041 L -140.015,-87.9759 L -140.088,-88.3598
 L -140.113,-88.75 L -140.113,-100.25 L -140.088,-100.64 L -140.015,-101.024 L -139.894,-101.396 L -139.728,-101.75
 L -139.518,-102.08 L -139.269,-102.381 L -138.984,-102.649 L -138.668,-102.878 L -138.325,-103.067 L -137.962,-103.211
 L -137.583,-103.308 L -137.195,-103.357 L 137.195,-103.357 L 137.583,-103.308 L 137.962,-103.211 L 138.325,-103.067
 L 138.668,-102.878 L 138.984,-102.649 L 139.269,-102.381 L 139.518,-102.08 L 139.728,-101.75 L 139.894,-101.396
 L 140.015,-101.024 L 140.088,-100.64 L 140.113,-100.25 L 140.113,-88.75 L 140.088,-88.3598 L 140.015,-87.9759
 L 139.894,-87.6041 L 139.728,-87.2504 L 139.518,-86.9203 L 139.269,-86.6191 L 138.984,-86.3515 L 138.668,-86.1217
 L 138.325,-85.9333 L 137.962,-85.7894 L 137.583,-85.6922 L 137.195,-85.6432 z
M 138.437,-51.8386 L 139.045,-51.9947 L 139.629,-52.2259 L 140.179,-52.5284 L 140.687,-52.8974 L 141.145,-53.3273
 L 141.545,-53.8111 L 141.882,-54.3412 L 142.149,-54.9094 L 142.343,-55.5066 L 142.461,-56.1233 L 142.5,-56.75
 L 142.5,-69.25 L 142.461,-69.8767 L 142.343,-70.4934 L 142.149,-71.0906 L 141.882,-71.6588 L 141.545,-72.1889
 L 141.145,-72.6727 L 140.687,-73.1026 L 140.179,-73.4716 L 139.629,-73.7741 L 139.045,-74.0053 L 138.437,-74.1614
 L 137.814,-74.2401 L -137.814,-74.2401 L -138.437,-74.1614 L -139.045,-74.0053 L -139.629,-73.7741 L -140.179,-73.4716
 L -140.687,-73.1026 L -141,-72.8087 L -141,-72.9026 L -144,-72.9026 L -144,-53.0974 L -141,-53.0974
 L -141,-53.1913 L -140.687,-52.8974 L -140.179,-52.5284 L -139.629,-52.2259 L -139.045,-51.9947 L -138.437,-51.8386
 L -137.814,-51.7599 L 137.814,-51.7599 z
M 134.866,-64.6189 L 134.6,-64.6525 L 134.34,-64.7192 L 134.091,-64.8179 L 133.856,-64.9471 L 133.639,-65.1047
 L 133.443,-65.2883 L 133.273,-65.4949 L 133.129,-65.7213 L 133.015,-65.9639 L 132.932,-66.219 L 132.882,-66.4824
 L 132.865,-66.75 L 132.882,-67.0176 L 132.932,-67.281 L 133.015,-67.536 L 133.129,-67.7787 L 133.273,-68.0051
 L 133.443,-68.2117 L 133.639,-68.3953 L 133.856,-68.5529 L 134.091,-68.6821 L 134.34,-68.7808 L 134.6,-68.8475
 L 134.866,-68.8811 L 135.134,-68.8811 L 135.4,-68.8475 L 135.66,-68.7808 L 135.909,-68.6821 L 136.144,-68.5529
 L 136.361,-68.3953 L 136.557,-68.2117 L 136.727,-68.0051 L 136.871,-67.7787 L 136.985,-67.536 L 137.068,-67.281
 L 137.118,-67.0176 L 137.135,-66.75 L 137.118,-66.4824 L 137.068,-66.219 L 136.985,-65.9639 L 136.871,-65.7213
 L 136.727,-65.4949 L 136.557,-65.2883 L 136.361,-65.1047 L 136.144,-64.9471 L 135.909,-64.8179 L 135.66,-64.7192
 L 135.4,-64.6525 L 135.134,-64.6189 z
M -135.134,-64.6189 L -135.4,-64.6525 L -135.66,-64.7192 L -135.909,-64.8179 L -136.144,-64.9471 L -136.361,-65.1047
 L -136.557,-65.2883 L -136.727,-65.4949 L -136.871,-65.7213 L -136.985,-65.9639 L -137.068,-66.219 L -137.118,-66.4824
 L -137.135,-66.75 L -137.118,-67.0176 L -137.068,-67.281 L -136.985,-67.536 L -136.871,-67.7787 L -136.727,-68.0051
 L -136.557,-68.2117 L -136.361,-68.3953 L -136.144,-68.5529 L -135.909,-68.6821 L -135.66,-68.7808 L -135.4,-68.8475
 L -135.134,-68.8811 L -134.866,-68.8811 L -134.6,-68.8475 L -134.34,-68.7808 L -134.091,-68.6821 L -133.856,-68.5529
 L -133.639,-68.3953 L -133.443,-68.2117 L -133.273,-68.0051 L -133.129,-67.7787 L -133.015,-67.536 L -132.932,-67.281
 L -132.882,-67.0176 L -132.865,-66.75 L -132.882,-66.4824 L -132.932,-66.219 L -133.015,-65.9639 L -133.129,-65.7213
 L -133.273,-65.4949 L -133.443,-65.2883 L -133.639,-65.1047 L -133.856,-64.9471 L -134.091,-64.8179 L -134.34,-64.7192
 L -134.6,-64.6525 L -134.866,-64.6189 z
M 134.866,-57.1189 L 134.6,-57.1525 L 134.34,-57.2192 L 134.091,-57.3179 L 133.856,-57.4471 L 133.639,-57.6047
 L 133.443,-57.7883 L 133.273,-57.9949 L 133.129,-58.2213 L 133.015,-58.464 L 132.932,-58.719 L 132.882,-58.9824
 L 132.865,-59.25 L 132.882,-59.5176 L 132.932,-59.781 L 133.015,-60.0361 L 133.129,-60.2787 L 133.273,-60.5051
 L 133.443,-60.7117 L 133.639,-60.8953 L 133.856,-61.0529 L 134.091,-61.1821 L 134.34,-61.2808 L 134.6,-61.3475
 L 134.866,-61.3811 L 135.134,-61.3811 L 135.4,-61.3475 L 135.66,-61.2808 L 135.909,-61.1821 L 136.144,-61.0529
 L 136.361,-60.8953 L 136.557,-60.7117 L 136.727,-60.5051 L 136.871,-60.2787 L 136.985,-60.0361 L 137.068,-59.781
 L 137.118,-59.5176 L 137.135,-59.25 L 137.118,-58.9824 L 137.068,-58.719 L 136.985,-58.464 L 136.871,-58.2213
 L 136.727,-57.9949 L 136.557,-57.7883 L 136.361,-57.6047 L 136.144,-57.4471 L 135.909,-57.3179 L 135.66,-57.2192
 L 135.4,-57.1525 L 135.134,-57.1189 z
M -135.134,-57.1189 L -135.4,-57.1525 L -135.66,-57.2192 L -135.909,-57.3179 L -136.144,-57.4471 L -136.361,-57.6047
 L -136.557,-57.7883 L -136.727,-57.9949 L -136.871,-58.2213 L -136.985,-58.464 L -137.068,-58.719 L -137.118,-58.9824
 L -137.135,-59.25 L -137.118,-59.5176 L -137.068,-59.781 L -136.985,-60.0361 L -136.871,-60.2787 L -136.727,-60.5051
 L -136.557,-60.7117 L -136.361,-60.8953 L -136.144,-61.0529 L -135.909,-61.1821 L -135.66,-61.2808 L -135.4,-61.3475
 L -135.134,-61.3811 L -134.866,-61.3811 L -134.6,-61.3475 L -134.34,-61.2808 L -134.091,-61.1821 L -133.856,-61.0529
 L -133.639,-60.8953 L -133.443,-60.7117 L -133.273,-60.5051 L -133.129,-60.2787 L -133.015,-60.0361 L -132.932,-59.781
 L -132.882,-59.5176 L -132.865,-59.25 L -132.882,-58.9824 L -132.932,-58.719 L -133.015,-58.464 L -133.129,-58.2213
 L -133.273,-57.9949 L -133.443,-57.7883 L -133.639,-57.6047 L -133.856,-57.4471 L -134.091,-57.3179 L -134.34,-57.2192
 L -134.6,-57.1525 L -134.866,-57.1189 z
" stroke="black" fill="lightgray" stroke-width="0.5"/>
</svg>
