<?xml version="1.0" standalone="no"?>
<!DOCTYPE svg PUBLIC "-//W3C//DTD SVG 1.1//EN" "http://www.w3.org/Graphics/SVG/1.1/DTD/svg11.dtd">
<svg width="242mm" height="694mm" viewBox="-122 -1049 242 694" xmlns="http://www.w3.org/2000/svg" version="1.1">
<title>OpenSCAD Model</title>
<path d="
M -118.5,-824.941 L -118.187,-824.647 L -117.679,-824.278 L -117.129,-823.976 L -116.545,-823.745 L -115.937,-823.589
 L -115.314,-823.51 L 115.314,-823.51 L 115.937,-823.589 L 116.545,-823.745 L 117.129,-823.976 L 117.679,-824.278
 L 118.187,-824.647 L 118.645,-825.077 L 119.045,-825.561 L 119.382,-826.091 L 119.649,-826.659 L 119.843,-827.257
 L 119.961,-827.873 L 120,-828.5 L 120,-1043.5 L 119.961,-1044.13 L 119.843,-1044.74 L 119.649,-1045.34
 L 119.382,-1045.91 L 119.045,-1046.44 L 118.645,-1046.92 L 118.187,-1047.35 L 117.679,-1047.72 L 117.129,-1048.02
 L 116.545,-1048.26 L 115.937,-1048.41 L 115.314,-1048.49 L -115.314,-1048.49 L -115.937,-1048.41 L -116.545,-1048.26
 L -117.129,-1048.02 L -117.679,-1047.72 L -118.187,-1047.35 L -118.5,-1047.06 L -118.5,-1048.49 L -121.5,-1048.49
 L -121.5,-823.51 L -118.5,-823.51 z
M -114.743,-825.135 L -115.226,-825.196 L -115.697,-825.317 L -116.149,-825.496 L -116.575,-825.73 L -116.969,-826.016
 L -117.323,-826.349 L -117.633,-826.724 L -117.894,-827.134 L -118.101,-827.574 L -118.251,-828.037 L -118.342,-828.515
 L -118.373,-829 L -118.373,-1043 L -118.342,-1043.49 L -118.251,-1043.96 L -118.101,-1044.43 L -117.894,-1044.87
 L -117.633,-1045.28 L -117.323,-1045.65 L -116.969,-1045.98 L -116.575,-1046.27 L -116.149,-1046.5 L -115.697,-1046.68
 L -115.226,-1046.8 L -114.743,-1046.86 L 114.743,-1046.86 L 115.226,-1046.8 L 115.697,-1046.68 L 116.149,-1046.5
 L 116.575,-1046.27 L 116.969,-1045.98 L 117.323,-1045.65 L 117.633,-1045.28 L 117.894,-1044.87 L 118.101,-1044.43
 L 118.251,-1043.96 L 118.342,-1043.49 L 118.373,-1043 L 118.373,-829 L 118.342,-828.515 L 118.251,-828.037
 L 118.101,-827.574 L 117.894,-827.134 L 117.633,-826.724 L 117.323,-826.349 L 116.969,-826.016 L 116.575,-825.73
 L 116.149,-825.496 L 115.697,-825.317 L 115.226,-825.196 L 114.743,-825.135 z
M 115.937,-589.589 L 116.545,-589.745 L 117.129,-589.976 L 117.679,-590.278 L 118.187,-590.647 L 118.645,-591.077
 L 119.045,-591.561 L 119.382,-592.091 L 119.649,-592.659 L 119.843,-593.257 L 119.961,-593.873 L 120,-594.5
 L 120,-809.5 L 119.961,-810.127 L 119.843,-810.743 L 119.649,-811.341 L 119.382,-811.909 L 119.045,-812.439
 L 118.645,-812.923 L 118.187,-813.353 L 117.679,-813.722 L 117.129,-814.024 L 116.545,-814.255 L 115.937,-814.411
 L 115.314,-814.49 L -115.314,-814.49 L -115.937,-814.411 L -116.545,-814.255 L -117.129,-814.024 L -117.679,-813.722
 L -118.187,-813.353 L -118.5,-813.059 L -118.5,-814.115 L -121.5,-814.115 L -121.5,-589.885 L -118.5,-589.885
 L -118.5,-590.941 L -118.187,-590.647 L -117.679,-590.278 L -117.129,-589.976 L -116.545,-589.745 L -115.937,-589.589
 L -115.314,-589.51 L 115.314,-589.51 z
M 112.349,-804.605 L 112.05,-804.643 L 111.758,-804.717 L 111.478,-804.828 L 111.214,-804.974 L 110.97,-805.151
 L 110.75,-805.357 L 110.558,-805.589 L 110.397,-805.844 L 110.269,-806.117 L 110.175,-806.403 L 110.119,-806.699
 L 110.1,-807 L 110.119,-807.301 L 110.175,-807.597 L 110.269,-807.883 L 110.397,-808.156 L 110.558,-808.411
 L 110.75,-808.643 L 110.97,-808.849 L 111.214,-809.026 L 111.478,-809.172 L 111.758,-809.283 L 112.05,-809.357
 L 112.349,-809.395 L 112.651,-809.395 L 112.95,-809.357 L 113.242,-809.283 L 113.522,-809.172 L 113.786,-809.026
 L 114.03,-808.849 L 114.25,-808.643 L 114.442,-808.411 L 114.603,-808.156 L 114.731,-807.883 L 114.825,-807.597
 L 114.881,-807.301 L 114.9,-807 L 114.881,-806.699 L 114.825,-806.403 L 114.731,-806.117 L 114.603,-805.844
 L 114.442,-805.589 L 114.25,-805.357 L 114.03,-805.151 L 113.786,-804.974 L 113.522,-804.828 L 113.242,-804.717
 L 112.95,-804.643 L 112.651,-804.605 z
M -112.651,-804.605 L -112.95,-804.643 L -113.242,-804.717 L -113.522,-804.828 L -113.786,-804.974 L -114.03,-805.151
 L -114.25,-805.357 L -114.442,-805.589 L -114.603,-805.844 L -114.731,-806.117 L -114.825,-806.403 L -114.881,-806.699
 L -114.9,-807 L -114.881,-807.301 L -114.825,-807.597 L -114.731,-807.883 L -114.603,-808.156 L -114.442,-808.411
 L -114.25,-808.643 L -114.03,-808.849 L -113.786,-809.026 L -113.522,-809.172 L -113.242,-809.283 L -112.95,-809.357
 L -112.651,-809.395 L -112.349,-809.395 L -112.05,-809.357 L -111.758,-809.283 L -111.478,-809.172 L -111.214,-809.026
 L -110.97,-808.849 L -110.75,-808.643 L -110.558,-808.411 L -110.397,-808.156 L -110.269,-807.883 L -110.175,-807.597
 L -110.119,-807.301 L -110.1,-807 L -110.119,-806.699 L -110.175,-806.403 L -110.269,-806.117 L -110.397,-805.844
 L -110.558,-805.589 L -110.75,-805.357 L -110.97,-805.151 L -111.214,-804.974 L -111.478,-804.828 L -111.758,-804.717
 L -112.05,-804.643 L -112.349,-804.605 z
M 112.349,-594.605 L 112.05,-594.643 L 111.758,-594.717 L 111.478,-594.828 L 111.214,-594.974 L 110.97,-595.151
 L 110.75,-595.357 L 110.558,-595.589 L 110.397,-595.844 L 110.269,-596.117 L 110.175,-596.403 L 110.119,-596.699
 L 110.1,-597 L 110.119,-597.301 L 110.175,-597.597 L 110.269,-597.883 L 110.397,-598.156 L 110.558,-598.411
 L 110.75,-598.643 L 110.97,-598.849 L 111.214,-599.026 L 111.478,-599.172 L 111.758,-599.283 L 112.05,-599.357
 L 112.349,-599.395 L 112.651,-599.395 L 112.95,-599.357 L 113.242,-599.283 L 113.522,-599.172 L 113.786,-599.026
 L 114.03,-598.849 L 114.25,-598.643 L 114.442,-598.411 L 114.603,-598.156 L 114.731,-597.883 L 114.825,-597.597
 L 114.881,-597.301 L 114.9,-597 L 114.881,-596.699 L 114.825,-596.403 L 114.731,-596.117 L 114.603,-595.844
 L 114.442,-595.589 L 114.25,-595.357 L 114.03,-595.151 L 113.786,-594.974 L 113.522,-594.828 L 113.242,-594.717
 L 112.95,-594.643 L 112.651,-594.605 z
M -112.651,-594.605 L -112.95,-594.643 L -113.242,-594.717 L -113.522,-594.828 L -113.786,-594.974 L -114.03,-595.151
 L -114.25,-595.357 L -114.442,-595.589 L -114.603,-595.844 L -114.731,-596.117 L -114.825,-596.403 L -114.881,-596.699
 L -114.9,-597 L -114.881,-597.301 L -114.825,-597.597 L -114.731,-597.883 L -114.603,-598.156 L -114.442,-598.411
 L -114.25,-598.643 L -114.03,-598.849 L -113.786,-599.026 L -113.522,-599.172 L -113.242,-599.283 L -112.95,-599.357
 L -112.651,-599.395 L -112.349,-599.395 L -112.05,-599.357 L -111.758,-599.283 L -111.478,-599.172 L -111.214,-599.026
 L -110.97,-598.849 L -110.75,-598.643 L -110.558,-598.411 L -110.397,-598.156 L -110.269,-597.883 L -110.175,-597.597
 L -110.119,-597.301 L -110.1,-597 L -110.119,-596.699 L -110.175,-596.403 L -110.269,-596.117 L -110.397,-595.844
 L -110.558,-595.589 L -110.75,-595.357 L -110.97,-595.151 L -111.214,-594.974 L -111.478,-594.828 L -111.758,-594.717
 L -112.05,-594.643 L -112.349,-594.605 z
M 115.937,-355.589 L 116.545,-355.745 L 117.129,-355.976 L 117.679,-356.278 L 118.187,-356.647 L 118.645,-357.077
 L 119.045,-357.561 L 119.382,-358.091 L 119.649,-358.659 L 119.843,-359.257 L 119.961,-359.873 L 120,-360.5
 L 120,-575.5 L 119.961,-576.127 L 119.843,-576.743 L 119.649,-577.341 L 119.382,-577.909 L 119.045,-578.439
 L 118.645,-578.923 L 118.187,-579.353 L 117.679,-579.722 L 117.129,-580.024 L 116.545,-580.255 L 115.937,-580.411
 L 115.314,-580.49 L -115.314,-580.49 L -115.937,-580.411 L -116.545,-580.255 L -117.129,-580.024 L -117.679,-579.722
 L -118.187,-579.353 L -118.645,-578.923 L -119.045,-578.439 L -119.382,-577.909 L -119.649,-577.341 L -119.843,-576.743
 L -119.9,-576.444 L -121.5,-576.444 L -121.5,-359.556 L -119.9,-359.556 L -119.843,-359.257 L -119.649,-358.659
 L -119.382,-358.091 L -119.045,-357.561 L -118.645,-357.077 L -118.187,-356.647 L -117.679,-356.278 L -117.129,-355.976
 L -116.545,-355.745 L -115.937,-355.589 L -115.314,-355.51 L 115.314,-355.51 z
M -112.613,-571.204 L -112.837,-571.232 L -113.056,-571.288 L -113.266,-571.371 L -113.464,-571.48 L -113.647,-571.613
 L -113.812,-571.768 L -113.956,-571.942 L -114.077,-572.133 L -114.174,-572.337 L -114.243,-572.552 L -114.286,-572.774
 L -114.3,-573 L -114.286,-573.226 L -114.243,-573.448 L -114.174,-573.663 L -114.077,-573.867 L -113.956,-574.058
 L -113.812,-574.232 L -113.647,-574.387 L -113.464,-574.52 L -113.266,-574.629 L -113.056,-574.712 L -112.837,-574.768
 L -112.613,-574.796 L -112.387,-574.796 L -112.163,-574.768 L -111.944,-574.712 L -111.734,-574.629 L -111.536,-574.52
 L -111.353,-574.387 L -111.188,-574.232 L -111.044,-574.058 L -110.923,-573.867 L -110.826,-573.663 L -110.757,-573.448
 L -110.714,-573.226 L -110.7,-573 L -110.714,-572.774 L -110.757,-572.552 L -110.826,-572.337 L -110.923,-572.133
 L -111.044,-571.942 L -111.188,-571.768 L -111.353,-571.613 L -111.536,-571.48 L -111.734,-571.371 L -111.944,-571.288
 L -112.163,-571.232 L -112.387,-571.204 z
M 112.387,-571.204 L 112.163,-571.232 L 111.944,-571.288 L 111.734,-571.371 L 111.536,-571.48 L 111.353,-571.613
 L 111.188,-571.768 L 111.044,-571.942 L 110.923,-572.133 L 110.826,-572.337 L 110.757,-572.552 L 110.714,-572.774
 L 110.7,-573 L 110.714,-573.226 L 110.757,-573.448 L 110.826,-573.663 L 110.923,-573.867 L 111.044,-574.058
 L 111.188,-574.232 L 111.353,-574.387 L 111.536,-574.52 L 111.734,-574.629 L 111.944,-574.712 L 112.163,-574.768
 L 112.387,-574.796 L 112.613,-574.796 L 112.837,-574.768 L 113.056,-574.712 L 113.266,-574.629 L 113.464,-574.52
 L 113.647,-574.387 L 113.812,-574.232 L 113.956,-574.058 L 114.077,-573.867 L 114.174,-573.663 L 114.243,-573.448
 L 114.286,-573.226 L 114.3,-573 L 114.286,-572.774 L 114.243,-572.552 L 114.174,-572.337 L 114.077,-572.133
 L 113.956,-571.942 L 113.812,-571.768 L 113.647,-571.613 L 113.464,-571.48 L 113.266,-571.371 L 113.056,-571.288
 L 112.837,-571.232 L 112.613,-571.204 z
M 112.387,-361.204 L 112.163,-361.232 L 111.944,-361.288 L 111.734,-361.371 L 111.536,-361.48 L 111.353,-361.613
 L 111.188,-361.768 L 111.044,-361.942 L 110.923,-362.133 L 110.826,-362.337 L 110.757,-362.552 L 110.714,-362.774
 L 110.7,-363 L 110.714,-363.226 L 110.757,-363.448 L 110.826,-363.663 L 110.923,-363.867 L 111.044,-364.058
 L 111.188,-364.232 L 111.353,-364.387 L 111.536,-364.52 L 111.734,-364.629 L 111.944,-364.712 L 112.163,-364.768
 L 112.387,-364.796 L 112.613,-364.796 L 112.837,-364.768 L 113.056,-364.712 L 113.266,-364.629 L 113.464,-364.52
 L 113.647,-364.387 L 113.812,-364.232 L 113.956,-364.058 L 114.077,-363.867 L 114.174,-363.663 L 114.243,-363.448
 L 114.286,-363.226 L 114.3,-363 L 114.286,-362.774 L 114.243,-362.552 L 114.174,-362.337 L 114.077,-362.133
 L 113.956,-361.942 L 113.812,-361.768 L 113.647,-361.613 L 113.464,-361.48 L 113.266,-361.371 L 113.056,-361.288
 L 112.837,-361.232 L 112.613,-361.204 z
M -112.613,-361.204 L -112.837,-361.232 L -113.056,-361.288 L -113.266,-361.371 L -113.464,-361.48 L -113.647,-361.613
 L -113.812,-361.768 L -113.956,-361.942 L -114.077,-362.133 L -114.174,-362.337 L -114.243,-362.552 L -114.286,-362.774
 L -114.3,-363 L -114.286,-363.226 L -114.243,-363.448 L -114.174,-363.663 L -114.077,-363.867 L -113.956,-364.058
 L -113.812,-364.232 L -113.647,-364.387 L -113.464,-364.52 L -113.266,-364.629 L -113.056,-364.712 L -112.837,-364.768
 L -112.613,-364.796 L -112.387,-364.796 L -112.163,-364.768 L -111.944,-364.712 L -111.734,-364.629 L -111.536,-364.52
 L -111.353,-364.387 L -111.188,-364.232 L -111.044,-364.058 L -110.923,-363.867 L -110.826,-363.663 L -110.757,-363.448
 L -110.714,-363.226 L -110.7,-363 L -110.714,-362.774 L -110.757,-362.552 L -110.826,-362.337 L -110.923,-362.133
 L -111.044,-361.942 L -111.188,-361.768 L -111.353,-361.613 L -111.536,-361.48 L -111.734,-361.371 L -111.944,-361.288
 L -112.163,-361.232 L -112.387,-361.204 z
" stroke="black" fill="lightgray" stroke-width="0.5"/>
</svg>
