<?xml version="1.0" standalone="no"?>
<!DOCTYPE svg PUBLIC "-//W3C//DTD SVG 1.1//EN" "http://www.w3.org/Graphics/SVG/1.1/DTD/svg11.dtd">
<svg width="286mm" height="549mm" viewBox="-143 -972 286 549" xmlns="http://www.w3.org/2000/svg" version="1.1">
<title>OpenSCAD Model</title>
<path d="
M 138.437,-702.089 L 139.045,-702.245 L 139.629,-702.476 L 140.179,-702.778 L 140.687,-703.147 L 141.145,-703.577
 L 141.545,-704.061 L 141.882,-704.591 L 142.149,-705.159 L 142.343,-705.757 L 142.461,-706.373 L 142.5,-707
 L 142.5,-967 L 142.461,-967.627 L 142.343,-968.243 L 142.149,-968.841 L 141.882,-969.409 L 141.545,-969.939
 L 141.145,-970.423 L 140.687,-970.853 L 140.179,-971.222 L 139.629,-971.524 L 139.045,-971.755 L 138.437,-971.911
 L 137.814,-971.99 L -137.814,-971.99 L -138.437,-971.911 L -139.045,-971.755 L -139.629,-971.524 L -140.179,-971.222
 L -140.687,-970.853 L -141.145,-970.423 L -141.545,-969.939 L -141.882,-969.409 L -142.149,-968.841 L -142.343,-968.243
 L -142.461,-967.627 L -142.5,-967 L -142.5,-707 L -142.461,-706.373 L -142.343,-705.757 L -142.149,-705.159
 L -141.882,-704.591 L -141.545,-704.061 L -141.145,-703.577 L -140.687,-703.147 L -140.179,-702.778 L -139.629,-702.476
 L -139.045,-702.245 L -138.437,-702.089 L -137.814,-702.01 L 137.814,-702.01 z
M -137.537,-702.681 L -138.108,-702.753 L -138.665,-702.896 L -139.199,-703.107 L -139.703,-703.384 L -140.168,-703.722
 L -140.588,-704.116 L -140.954,-704.559 L -141.262,-705.044 L -141.507,-705.565 L -141.685,-706.111 L -141.792,-706.676
 L -141.828,-707.25 L -141.828,-966.75 L -141.792,-967.324 L -141.685,-967.889 L -141.507,-968.435 L -141.262,-968.956
 L -140.954,-969.441 L -140.588,-969.884 L -140.168,-970.278 L -139.703,-970.616 L -139.199,-970.893 L -138.665,-971.104
 L -138.108,-971.247 L -137.537,-971.319 L 137.537,-971.319 L 138.108,-971.247 L 138.665,-971.104 L 139.199,-970.893
 L 139.703,-970.616 L 140.168,-970.278 L 140.588,-969.884 L 140.954,-969.441 L 141.262,-968.956 L 141.507,-968.435
 L 141.685,-967.889 L 141.792,-967.324 L 141.828,-966.75 L 141.828,-707.25 L 141.792,-706.676 L 141.685,-706.111
 L 141.507,-705.565 L 141.262,-705.044 L 140.954,-704.559 L 140.588,-704.116 L 140.168,-703.722 L 139.703,-703.384
 L 139.199,-703.107 L 138.665,-702.896 L 138.108,-702.753 L 137.537,-702.681 z
M 138.437,-423.089 L 139.045,-423.245 L 139.629,-423.476 L 140.179,-423.778 L 140.687,-424.147 L 141.145,-424.577
 L 141.545,-425.061 L 141.882,-425.591 L 142.149,-426.159 L 142.343,-426.757 L 142.461,-427.373 L 142.5,-428
 L 142.5,-688 L 142.461,-688.627 L 142.343,-689.243 L 142.149,-689.841 L 141.882,-690.409 L 141.545,-690.939
 L 141.145,-691.423 L 140.687,-691.853 L 140.179,-692.222 L 139.629,-692.524 L 139.045,-692.755 L 138.437,-692.911
 L 137.814,-692.99 L -137.814,-692.99 L -138.437,-692.911 L -139.045,-692.755 L -139.629,-692.524 L -140.179,-692.222
 L -140.687,-691.853 L -141.145,-691.423 L -141.545,-690.939 L -141.882,-690.409 L -142.149,-689.841 L -142.343,-689.243
 L -142.461,-688.627 L -142.5,-688 L -142.5,-428 L -142.461,-427.373 L -142.343,-426.757 L -142.149,-426.159
 L -141.882,-425.591 L -141.545,-425.061 L -141.145,-424.577 L -140.687,-424.147 L -140.179,-423.778 L -139.629,-423.476
 L -139.045,-423.245 L -138.437,-423.089 L -137.814,-423.01 L 137.814,-423.01 z
M -137.382,-426.145 L -137.645,-426.178 L -137.902,-426.244 L -138.148,-426.341 L -138.38,-426.469 L -138.595,-426.624
 L -138.788,-426.806 L -138.957,-427.01 L -139.099,-427.234 L -139.211,-427.473 L -139.293,-427.725 L -139.343,-427.986
 L -139.36,-428.25 L -139.36,-687.75 L -139.343,-688.014 L -139.293,-688.275 L -139.211,-688.527 L -139.099,-688.766
 L -138.957,-688.99 L -138.788,-689.194 L -138.595,-689.376 L -138.38,-689.531 L -138.148,-689.659 L -137.902,-689.756
 L -137.645,-689.822 L -137.382,-689.855 L 137.382,-689.855 L 137.645,-689.822 L 137.902,-689.756 L 138.148,-689.659
 L 138.38,-689.531 L 138.595,-689.376 L 138.788,-689.194 L 138.957,-688.99 L 139.099,-688.766 L 139.211,-688.527
 L 139.293,-688.275 L 139.343,-688.014 L 139.36,-687.75 L 139.36,-428.25 L 139.343,-427.986 L 139.293,-427.725
 L 139.211,-427.473 L 139.099,-427.234 L 138.957,-427.01 L 138.788,-426.806 L 138.595,-426.624 L 138.38,-426.469
 L 138.148,-426.341 L 137.902,-426.244 L 137.645,-426.178 L 137.382,-426.145 z
" stroke="black" fill="lightgray" stroke-width="0.5"/>
</svg>
