<?xml version="1.0" standalone="no"?>
<!DOCTYPE svg PUBLIC "-//W3C//DTD SVG 1.1//EN" "http://www.w3.org/Graphics/SVG/1.1/DTD/svg11.dtd">
<svg width="286mm" height="604mm" viewBox="-143 -1118 286 604" xmlns="http://www.w3.org/2000/svg" version="1.1">
<title>OpenSCAD Model</title>
<path d="
M 138.437,-922.589 L 139.045,-922.745 L 139.629,-922.976 L 140.179,-923.278 L 140.687,-923.647 L 141.145,-924.077
 L 141.545,-924.561 L 141.882,-925.091 L 142.149,-925.659 L 142.343,-926.257 L 142.461,-926.873 L 142.5,-927.5
 L 142.5,-1112.5 L 142.461,-1113.13 L 142.343,-1113.74 L 142.149,-1114.34 L 141.882,-1114.91 L 141.545,-1115.44
 L 141.145,-1115.92 L 140.687,-1116.35 L 140.179,-1116.72 L 139.629,-1117.02 L 139.045,-1117.26 L 138.437,-1117.41
 L 137.814,-1117.49 L -137.814,-1117.49 L -138.437,-1117.41 L -139.045,-1117.26 L -139.629,-1117.02 L -140.179,-1116.72
 L -140.687,-1116.35 L -141.145,-1115.92 L -141.545,-1115.44 L -141.882,-1114.91 L -142.149,-1114.34 L -142.343,-1113.74
 L -142.461,-1113.13 L -142.5,-1112.5 L -142.5,-927.5 L -142.461,-926.873 L -142.343,-926.257 L -142.149,-925.659
 L -141.882,-925.091 L -141.545,-924.561 L -141.145,-924.077 L -140.687,-923.647 L -140.179,-923.278 L -139.629,-922.976
 L -139.045,-922.745 L -138.437,-922.589 L -137.814,-922.51 L 137.814,-922.51 z
M -137.548,-923.009 L -138.14,-923.084 L -138.718,-923.232 L -139.272,-923.452 L -139.795,-923.739 L -140.278,-924.09
 L -140.713,-924.498 L -141.093,-924.958 L -141.412,-925.462 L -141.666,-926.001 L -141.851,-926.569 L -141.963,-927.155
 L -142,-927.75 L -142,-1112.25 L -141.963,-1112.85 L -141.851,-1113.43 L -141.666,-1114 L -141.412,-1114.54
 L -141.093,-1115.04 L -140.713,-1115.5 L -140.278,-1115.91 L -139.795,-1116.26 L -139.272,-1116.55 L -138.718,-1116.77
 L -138.14,-1116.92 L -137.548,-1116.99 L 137.548,-1116.99 L 138.14,-1116.92 L 138.718,-1116.77 L 139.272,-1116.55
 L 139.795,-1116.26 L 140.278,-1115.91 L 140.713,-1115.5 L 141.093,-1115.04 L 141.412,-1114.54 L 141.666,-1114
 L 141.851,-1113.43 L 141.963,-1112.85 L 142,-1112.25 L 142,-927.75 L 141.963,-927.155 L 141.851,-926.569
 L 141.666,-926.001 L 141.412,-925.462 L 141.093,-924.958 L 140.713,-924.498 L 140.278,-924.09 L 139.795,-923.739
 L 139.272,-923.452 L 138.718,-923.232 L 138.14,-923.084 L 137.548,-923.009 z
M 138.437,-718.589 L 139.045,-718.745 L 139.629,-718.976 L 140.179,-719.278 L 140.687,-719.647 L 141.145,-720.077
 L 141.545,-720.561 L 141.882,-721.091 L 142.149,-721.659 L 142.343,-722.257 L 142.461,-722.873 L 142.5,-723.5
 L 142.5,-908.5 L 142.461,-909.127 L 142.343,-909.743 L 142.149,-910.341 L 141.882,-910.909 L 141.545,-911.439
 L 141.145,-911.923 L 140.687,-912.353 L 140.179,-912.722 L 139.629,-913.024 L 139.045,-913.255 L 138.437,-913.411
 L 137.814,-913.49 L -137.814,-913.49 L -138.437,-913.411 L -139.045,-913.255 L -139.629,-913.024 L -140.179,-912.722
 L -140.687,-912.353 L -141.145,-911.923 L -141.545,-911.439 L -141.882,-910.909 L -142.149,-910.341 L -142.343,-909.743
 L -142.461,-909.127 L -142.5,-908.5 L -142.5,-723.5 L -142.461,-722.873 L -142.343,-722.257 L -142.149,-721.659
 L -141.882,-721.091 L -141.545,-720.561 L -141.145,-720.077 L -140.687,-719.647 L -140.179,-719.278 L -139.629,-718.976
 L -139.045,-718.745 L -138.437,-718.589 L -137.814,-718.51 L 137.814,-718.51 z
M -137.537,-719.181 L -138.108,-719.253 L -138.665,-719.396 L -139.199,-719.607 L -139.703,-719.884 L -140.168,-720.222
 L -140.588,-720.616 L -140.954,-721.059 L -141.262,-721.544 L -141.507,-722.065 L -141.685,-722.611 L -141.792,-723.176
 L -141.828,-723.75 L -141.828,-908.25 L -141.792,-908.824 L -141.685,-909.389 L -141.507,-909.935 L -141.262,-910.456
 L -140.954,-910.941 L -140.588,-911.384 L -140.168,-911.778 L -139.703,-912.116 L -139.199,-912.393 L -138.665,-912.604
 L -138.108,-912.747 L -137.537,-912.819 L 137.537,-912.819 L 138.108,-912.747 L 138.665,-912.604 L 139.199,-912.393
 L 139.703,-912.116 L 140.168,-911.778 L 140.588,-911.384 L 140.954,-910.941 L 141.262,-910.456 L 141.507,-909.935
 L 141.685,-909.389 L 141.792,-908.824 L 141.828,-908.25 L 141.828,-723.75 L 141.792,-723.176 L 141.685,-722.611
 L 141.507,-722.065 L 141.262,-721.544 L 140.954,-721.059 L 140.588,-720.616 L 140.168,-720.222 L 139.703,-719.884
 L 139.199,-719.607 L 138.665,-719.396 L 138.108,-719.253 L 137.537,-719.181 z
M 138.437,-514.589 L 139.045,-514.745 L 139.629,-514.976 L 140.179,-515.278 L 140.687,-515.647 L 141.145,-516.077
 L 141.545,-516.561 L 141.882,-517.091 L 142.149,-517.659 L 142.343,-518.257 L 142.461,-518.873 L 142.5,-519.5
 L 142.5,-704.5 L 142.461,-705.127 L 142.343,-705.743 L 142.149,-706.341 L 141.882,-706.909 L 141.545,-707.439
 L 141.145,-707.923 L 140.687,-708.353 L 140.179,-708.722 L 139.629,-709.024 L 139.045,-709.255 L 138.437,-709.411
 L 137.814,-709.49 L -137.814,-709.49 L -138.437,-709.411 L -139.045,-709.255 L -139.629,-709.024 L -140.179,-708.722
 L -140.687,-708.353 L -141.145,-707.923 L -141.545,-707.439 L -141.882,-706.909 L -142.149,-706.341 L -142.343,-705.743
 L -142.461,-705.127 L -142.5,-704.5 L -142.5,-519.5 L -142.461,-518.873 L -142.343,-518.257 L -142.149,-517.659
 L -141.882,-517.091 L -141.545,-516.561 L -141.145,-516.077 L -140.687,-515.647 L -140.179,-515.278 L -139.629,-514.976
 L -139.045,-514.745 L -138.437,-514.589 L -137.814,-514.51 L 137.814,-514.51 z
M -137.382,-517.645 L -137.645,-517.678 L -137.902,-517.744 L -138.148,-517.841 L -138.38,-517.969 L -138.595,-518.124
 L -138.788,-518.306 L -138.957,-518.51 L -139.099,-518.734 L -139.211,-518.973 L -139.293,-519.225 L -139.343,-519.486
 L -139.36,-519.75 L -139.36,-704.25 L -139.343,-704.514 L -139.293,-704.775 L -139.211,-705.027 L -139.099,-705.266
 L -138.957,-705.49 L -138.788,-705.694 L -138.595,-705.876 L -138.38,-706.031 L -138.148,-706.159 L -137.902,-706.256
 L -137.645,-706.322 L -137.382,-706.355 L 137.382,-706.355 L 137.645,-706.322 L 137.902,-706.256 L 138.148,-706.159
 L 138.38,-706.031 L 138.595,-705.876 L 138.788,-705.694 L 138.957,-705.49 L 139.099,-705.266 L 139.211,-705.027
 L 139.293,-704.775 L 139.343,-704.514 L 139.36,-704.25 L 139.36,-519.75 L 139.343,-519.486 L 139.293,-519.225
 L 139.211,-518.973 L 139.099,-518.734 L 138.957,-518.51 L 138.788,-518.306 L 138.595,-518.124 L 138.38,-517.969
 L 138.148,-517.841 L 137.902,-517.744 L 137.645,-517.678 L 137.382,-517.645 z
" stroke="black" fill="lightgray" stroke-width="0.5"/>
</svg>
