<?xml version="1.0" standalone="no"?>
<!DOCTYPE svg PUBLIC "-//W3C//DTD SVG 1.1//EN" "http://www.w3.org/Graphics/SVG/1.1/DTD/svg11.dtd">
<svg width="270mm" height="400mm" viewBox="-135 -710 270 400" xmlns="http://www.w3.org/2000/svg" version="1.1">
<title>OpenSCAD Model</title>
<path d="
M 130.937,-514.589 L 131.545,-514.745 L 132.129,-514.976 L 132.679,-515.278 L 133.187,-515.647 L 133.645,-516.077
 L 134.045,-516.561 L 134.382,-517.091 L 134.649,-517.659 L 134.843,-518.257 L 134.961,-518.873 L 135,-519.5
 L 135,-704.5 L 134.961,-705.127 L 134.843,-705.743 L 134.649,-706.341 L 134.382,-706.909 L 134.045,-707.439
 L 133.645,-707.923 L 133.187,-708.353 L 132.679,-708.722 L 132.129,-709.024 L 131.545,-709.255 L 130.937,-709.411
 L 130.314,-709.49 L -130.314,-709.49 L -130.937,-709.411 L -131.545,-709.255 L -132.129,-709.024 L -132.679,-708.722
 L -133.187,-708.353 L -133.645,-707.923 L -134.045,-707.439 L -134.382,-706.909 L -134.649,-706.341 L -134.843,-705.743
 L -134.961,-705.127 L -135,-704.5 L -135,-519.5 L -134.961,-518.873 L -134.843,-518.257 L -134.649,-517.659
 L -134.382,-517.091 L -134.045,-516.561 L -133.645,-516.077 L -133.187,-515.647 L -132.679,-515.278 L -132.129,-514.976
 L -131.545,-514.745 L -130.937,-514.589 L -130.314,-514.51 L 130.314,-514.51 z
M -130.037,-515.181 L -130.608,-515.253 L -131.165,-515.396 L -131.699,-515.607 L -132.203,-515.884 L -132.668,-516.222
 L -133.088,-516.616 L -133.454,-517.059 L -133.762,-517.544 L -134.007,-518.065 L -134.185,-518.611 L -134.292,-519.176
 L -134.328,-519.75 L -134.328,-704.25 L -134.292,-704.824 L -134.185,-705.389 L -134.007,-705.935 L -133.762,-706.456
 L -133.454,-706.941 L -133.088,-707.384 L -132.668,-707.778 L -132.203,-708.116 L -131.699,-708.393 L -131.165,-708.604
 L -130.608,-708.747 L -130.037,-708.819 L 130.037,-708.819 L 130.608,-708.747 L 131.165,-708.604 L 131.699,-708.393
 L 132.203,-708.116 L 132.668,-707.778 L 133.088,-707.384 L 133.454,-706.941 L 133.762,-706.456 L 134.007,-705.935
 L 134.185,-705.389 L 134.292,-704.824 L 134.328,-704.25 L 134.328,-519.75 L 134.292,-519.176 L 134.185,-518.611
 L 134.007,-518.065 L 133.762,-517.544 L 133.454,-517.059 L 133.088,-516.616 L 132.668,-516.222 L 132.203,-515.884
 L 131.699,-515.607 L 131.165,-515.396 L 130.608,-515.253 L 130.037,-515.181 z
M 130.937,-310.589 L 131.545,-310.745 L 132.129,-310.976 L 132.679,-311.278 L 133.187,-311.647 L 133.645,-312.077
 L 134.045,-312.561 L 134.382,-313.091 L 134.649,-313.659 L 134.843,-314.257 L 134.961,-314.873 L 135,-315.5
 L 135,-500.5 L 134.961,-501.127 L 134.843,-501.743 L 134.649,-502.341 L 134.382,-502.909 L 134.045,-503.439
 L 133.645,-503.923 L 133.187,-504.353 L 132.679,-504.722 L 132.129,-505.024 L 131.545,-505.255 L 130.937,-505.411
 L 130.314,-505.49 L -130.314,-505.49 L -130.937,-505.411 L -131.545,-505.255 L -132.129,-505.024 L -132.679,-504.722
 L -133.187,-504.353 L -133.645,-503.923 L -134.045,-503.439 L -134.382,-502.909 L -134.649,-502.341 L -134.843,-501.743
 L -134.961,-501.127 L -135,-500.5 L -135,-315.5 L -134.961,-314.873 L -134.843,-314.257 L -134.649,-313.659
 L -134.382,-313.091 L -134.045,-312.561 L -133.645,-312.077 L -133.187,-311.647 L -132.679,-311.278 L -132.129,-310.976
 L -131.545,-310.745 L -130.937,-310.589 L -130.314,-310.51 L 130.314,-310.51 z
M -129.882,-313.645 L -130.145,-313.678 L -130.402,-313.744 L -130.648,-313.841 L -130.88,-313.969 L -131.095,-314.124
 L -131.288,-314.306 L -131.457,-314.51 L -131.599,-314.734 L -131.711,-314.973 L -131.793,-315.225 L -131.843,-315.486
 L -131.86,-315.75 L -131.86,-500.25 L -131.843,-500.514 L -131.793,-500.775 L -131.711,-501.027 L -131.599,-501.266
 L -131.457,-501.49 L -131.288,-501.694 L -131.095,-501.876 L -130.88,-502.031 L -130.648,-502.159 L -130.402,-502.256
 L -130.145,-502.322 L -129.882,-502.355 L 129.882,-502.355 L 130.145,-502.322 L 130.402,-502.256 L 130.648,-502.159
 L 130.88,-502.031 L 131.095,-501.876 L 131.288,-501.694 L 131.457,-501.49 L 131.599,-501.266 L 131.711,-501.027
 L 131.793,-500.775 L 131.843,-500.514 L 131.86,-500.25 L 131.86,-315.75 L 131.843,-315.486 L 131.793,-315.225
 L 131.711,-314.973 L 131.599,-314.734 L 131.457,-314.51 L 131.288,-314.306 L 131.095,-314.124 L 130.88,-313.969
 L 130.648,-313.841 L 130.402,-313.744 L 130.145,-313.678 L 129.882,-313.645 z
" stroke="black" fill="lightgray" stroke-width="0.5"/>
</svg>
