<?xml version="1.0" standalone="no"?>
<!DOCTYPE svg PUBLIC "-//W3C//DTD SVG 1.1//EN" "http://www.w3.org/Graphics/SVG/1.1/DTD/svg11.dtd">
<svg width="272mm" height="514mm" viewBox="-137 -779 272 514" xmlns="http://www.w3.org/2000/svg" version="1.1">
<title>OpenSCAD Model</title>
<path d="
M -133.5,-614.941 L -133.187,-614.647 L -132.679,-614.278 L -132.129,-613.976 L -131.545,-613.745 L -130.937,-613.589
 L -130.314,-613.51 L 130.314,-613.51 L 130.937,-613.589 L 131.545,-613.745 L 132.129,-613.976 L 132.679,-614.278
 L 133.187,-614.647 L 133.645,-615.077 L 134.045,-615.561 L 134.382,-616.091 L 134.649,-616.659 L 134.843,-617.257
 L 134.961,-617.873 L 135,-618.5 L 135,-773.5 L 134.961,-774.127 L 134.843,-774.743 L 134.649,-775.341
 L 134.382,-775.909 L 134.045,-776.439 L 133.645,-776.923 L 133.187,-777.353 L 132.679,-777.722 L 132.129,-778.024
 L 131.545,-778.255 L 130.937,-778.411 L 130.314,-778.49 L -130.314,-778.49 L -130.937,-778.411 L -131.545,-778.255
 L -132.129,-778.024 L -132.679,-777.722 L -133.187,-777.353 L -133.5,-777.059 L -133.5,-778.49 L -136.5,-778.49
 L -136.5,-613.51 L -133.5,-613.51 z
M -129.743,-615.135 L -130.226,-615.196 L -130.697,-615.317 L -131.149,-615.496 L -131.575,-615.73 L -131.969,-616.016
 L -132.323,-616.349 L -132.633,-616.724 L -132.894,-617.134 L -133.101,-617.574 L -133.251,-618.037 L -133.342,-618.515
 L -133.373,-619 L -133.373,-773 L -133.342,-773.485 L -133.251,-773.963 L -133.101,-774.426 L -132.894,-774.866
 L -132.633,-775.276 L -132.323,-775.651 L -131.969,-775.984 L -131.575,-776.27 L -131.149,-776.504 L -130.697,-776.683
 L -130.226,-776.804 L -129.743,-776.865 L 129.743,-776.865 L 130.226,-776.804 L 130.697,-776.683 L 131.149,-776.504
 L 131.575,-776.27 L 131.969,-775.984 L 132.323,-775.651 L 132.633,-775.276 L 132.894,-774.866 L 133.101,-774.426
 L 133.251,-773.963 L 133.342,-773.485 L 133.373,-773 L 133.373,-619 L 133.342,-618.515 L 133.251,-618.037
 L 133.101,-617.574 L 132.894,-617.134 L 132.633,-616.724 L 132.323,-616.349 L 131.969,-616.016 L 131.575,-615.73
 L 131.149,-615.496 L 130.697,-615.317 L 130.226,-615.196 L 129.743,-615.135 z
M 130.937,-439.589 L 131.545,-439.745 L 132.129,-439.976 L 132.679,-440.278 L 133.187,-440.647 L 133.645,-441.077
 L 134.045,-441.561 L 134.382,-442.091 L 134.649,-442.659 L 134.843,-443.257 L 134.961,-443.873 L 135,-444.5
 L 135,-599.5 L 134.961,-600.127 L 134.843,-600.743 L 134.649,-601.341 L 134.382,-601.909 L 134.045,-602.439
 L 133.645,-602.923 L 133.187,-603.353 L 132.679,-603.722 L 132.129,-604.024 L 131.545,-604.255 L 130.937,-604.411
 L 130.314,-604.49 L -130.314,-604.49 L -130.937,-604.411 L -131.545,-604.255 L -132.129,-604.024 L -132.679,-603.722
 L -133.187,-603.353 L -133.5,-603.059 L -133.5,-604.115 L -136.5,-604.115 L -136.5,-439.885 L -133.5,-439.885
 L -133.5,-440.941 L -133.187,-440.647 L -132.679,-440.278 L -132.129,-439.976 L -131.545,-439.745 L -130.937,-439.589
 L -130.314,-439.51 L 130.314,-439.51 z
M 127.349,-594.605 L 127.05,-594.643 L 126.758,-594.717 L 126.478,-594.828 L 126.214,-594.974 L 125.97,-595.151
 L 125.75,-595.357 L 125.558,-595.589 L 125.397,-595.844 L 125.269,-596.117 L 125.175,-596.403 L 125.119,-596.699
 L 125.1,-597 L 125.119,-597.301 L 125.175,-597.597 L 125.269,-597.883 L 125.397,-598.156 L 125.558,-598.411
 L 125.75,-598.643 L 125.97,-598.849 L 126.214,-599.026 L 126.478,-599.172 L 126.758,-599.283 L 127.05,-599.357
 L 127.349,-599.395 L 127.651,-599.395 L 127.95,-599.357 L 128.242,-599.283 L 128.522,-599.172 L 128.786,-599.026
 L 129.03,-598.849 L 129.25,-598.643 L 129.442,-598.411 L 129.603,-598.156 L 129.731,-597.883 L 129.825,-597.597
 L 129.881,-597.301 L 129.9,-597 L 129.881,-596.699 L 129.825,-596.403 L 129.731,-596.117 L 129.603,-595.844
 L 129.442,-595.589 L 129.25,-595.357 L 129.03,-595.151 L 128.786,-594.974 L 128.522,-594.828 L 128.242,-594.717
 L 127.95,-594.643 L 127.651,-594.605 z
M -127.651,-594.605 L -127.95,-594.643 L -128.242,-594.717 L -128.522,-594.828 L -128.786,-594.974 L -129.03,-595.151
 L -129.25,-595.357 L -129.442,-595.589 L -129.603,-595.844 L -129.731,-596.117 L -129.825,-596.403 L -129.881,-596.699
 L -129.9,-597 L -129.881,-597.301 L -129.825,-597.597 L -129.731,-597.883 L -129.603,-598.156 L -129.442,-598.411
 L -129.25,-598.643 L -129.03,-598.849 L -128.786,-599.026 L -128.522,-599.172 L -128.242,-599.283 L -127.95,-599.357
 L -127.651,-599.395 L -127.349,-599.395 L -127.05,-599.357 L -126.758,-599.283 L -126.478,-599.172 L -126.214,-599.026
 L -125.97,-598.849 L -125.75,-598.643 L -125.558,-598.411 L -125.397,-598.156 L -125.269,-597.883 L -125.175,-597.597
 L -125.119,-597.301 L -125.1,-597 L -125.119,-596.699 L -125.175,-596.403 L -125.269,-596.117 L -125.397,-595.844
 L -125.558,-595.589 L -125.75,-595.357 L -125.97,-595.151 L -126.214,-594.974 L -126.478,-594.828 L -126.758,-594.717
 L -127.05,-594.643 L -127.349,-594.605 z
M 127.349,-444.605 L 127.05,-444.643 L 126.758,-444.717 L 126.478,-444.828 L 126.214,-444.974 L 125.97,-445.151
 L 125.75,-445.357 L 125.558,-445.589 L 125.397,-445.844 L 125.269,-446.117 L 125.175,-446.403 L 125.119,-446.699
 L 125.1,-447 L 125.119,-447.301 L 125.175,-447.597 L 125.269,-447.883 L 125.397,-448.156 L 125.558,-448.411
 L 125.75,-448.643 L 125.97,-448.849 L 126.214,-449.026 L 126.478,-449.172 L 126.758,-449.283 L 127.05,-449.357
 L 127.349,-449.395 L 127.651,-449.395 L 127.95,-449.357 L 128.242,-449.283 L 128.522,-449.172 L 128.786,-449.026
 L 129.03,-448.849 L 129.25,-448.643 L 129.442,-448.411 L 129.603,-448.156 L 129.731,-447.883 L 129.825,-447.597
 L 129.881,-447.301 L 129.9,-447 L 129.881,-446.699 L 129.825,-446.403 L 129.731,-446.117 L 129.603,-445.844
 L 129.442,-445.589 L 129.25,-445.357 L 129.03,-445.151 L 128.786,-444.974 L 128.522,-444.828 L 128.242,-444.717
 L 127.95,-444.643 L 127.651,-444.605 z
M -127.651,-444.605 L -127.95,-444.643 L -128.242,-444.717 L -128.522,-444.828 L -128.786,-444.974 L -129.03,-445.151
 L -129.25,-445.357 L -129.442,-445.589 L -129.603,-445.844 L -129.731,-446.117 L -129.825,-446.403 L -129.881,-446.699
 L -129.9,-447 L -129.881,-447.301 L -129.825,-447.597 L -129.731,-447.883 L -129.603,-448.156 L -129.442,-448.411
 L -129.25,-448.643 L -129.03,-448.849 L -128.786,-449.026 L -128.522,-449.172 L -128.242,-449.283 L -127.95,-449.357
 L -127.651,-449.395 L -127.349,-449.395 L -127.05,-449.357 L -126.758,-449.283 L -126.478,-449.172 L -126.214,-449.026
 L -125.97,-448.849 L -125.75,-448.643 L -125.558,-448.411 L -125.397,-448.156 L -125.269,-447.883 L -125.175,-447.597
 L -125.119,-447.301 L -125.1,-447 L -125.119,-446.699 L -125.175,-446.403 L -125.269,-446.117 L -125.397,-445.844
 L -125.558,-445.589 L -125.75,-445.357 L -125.97,-445.151 L -126.214,-444.974 L -126.478,-444.828 L -126.758,-444.717
 L -127.05,-444.643 L -127.349,-444.605 z
M 130.937,-265.589 L 131.545,-265.745 L 132.129,-265.976 L 132.679,-266.278 L 133.187,-266.647 L 133.645,-267.077
 L 134.045,-267.561 L 134.382,-268.091 L 134.649,-268.659 L 134.843,-269.257 L 134.961,-269.873 L 135,-270.5
 L 135,-425.5 L 134.961,-426.127 L 134.843,-426.743 L 134.649,-427.341 L 134.382,-427.909 L 134.045,-428.439
 L 133.645,-428.923 L 133.187,-429.353 L 132.679,-429.722 L 132.129,-430.024 L 131.545,-430.255 L 130.937,-430.411
 L 130.314,-430.49 L -130.314,-430.49 L -130.937,-430.411 L -131.545,-430.255 L -132.129,-430.024 L -132.679,-429.722
 L -133.187,-429.353 L -133.645,-428.923 L -134.045,-428.439 L -134.382,-427.909 L -134.649,-427.341 L -134.843,-426.743
 L -134.9,-426.444 L -136.5,-426.444 L -136.5,-269.556 L -134.9,-269.556 L -134.843,-269.257 L -134.649,-268.659
 L -134.382,-268.091 L -134.045,-267.561 L -133.645,-267.077 L -133.187,-266.647 L -132.679,-266.278 L -132.129,-265.976
 L -131.545,-265.745 L -130.937,-265.589 L -130.314,-265.51 L 130.314,-265.51 z
M 127.387,-421.204 L 127.163,-421.232 L 126.944,-421.288 L 126.734,-421.371 L 126.536,-421.48 L 126.353,-421.613
 L 126.188,-421.768 L 126.044,-421.942 L 125.923,-422.133 L 125.826,-422.337 L 125.757,-422.552 L 125.714,-422.774
 L 125.7,-423 L 125.714,-423.226 L 125.757,-423.448 L 125.826,-423.663 L 125.923,-423.867 L 126.044,-424.058
 L 126.188,-424.232 L 126.353,-424.387 L 126.536,-424.52 L 126.734,-424.629 L 126.944,-424.712 L 127.163,-424.768
 L 127.387,-424.796 L 127.613,-424.796 L 127.837,-424.768 L 128.056,-424.712 L 128.266,-424.629 L 128.464,-424.52
 L 128.647,-424.387 L 128.812,-424.232 L 128.956,-424.058 L 129.077,-423.867 L 129.174,-423.663 L 129.243,-423.448
 L 129.286,-423.226 L 129.3,-423 L 129.286,-422.774 L 129.243,-422.552 L 129.174,-422.337 L 129.077,-422.133
 L 128.956,-421.942 L 128.812,-421.768 L 128.647,-421.613 L 128.464,-421.48 L 128.266,-421.371 L 128.056,-421.288
 L 127.837,-421.232 L 127.613,-421.204 z
M -127.613,-421.204 L -127.837,-421.232 L -128.056,-421.288 L -128.266,-421.371 L -128.464,-421.48 L -128.647,-421.613
 L -128.812,-421.768 L -128.956,-421.942 L -129.077,-422.133 L -129.174,-422.337 L -129.243,-422.552 L -129.286,-422.774
 L -129.3,-423 L -129.286,-423.226 L -129.243,-423.448 L -129.174,-423.663 L -129.077,-423.867 L -128.956,-424.058
 L -128.812,-424.232 L -128.647,-424.387 L -128.464,-424.52 L -128.266,-424.629 L -128.056,-424.712 L -127.837,-424.768
 L -127.613,-424.796 L -127.387,-424.796 L -127.163,-424.768 L -126.944,-424.712 L -126.734,-424.629 L -126.536,-424.52
 L -126.353,-424.387 L -126.188,-424.232 L -126.044,-424.058 L -125.923,-423.867 L -125.826,-423.663 L -125.757,-423.448
 L -125.714,-423.226 L -125.7,-423 L -125.714,-422.774 L -125.757,-422.552 L -125.826,-422.337 L -125.923,-422.133
 L -126.044,-421.942 L -126.188,-421.768 L -126.353,-421.613 L -126.536,-421.48 L -126.734,-421.371 L -126.944,-421.288
 L -127.163,-421.232 L -127.387,-421.204 z
M 127.387,-271.204 L 127.163,-271.232 L 126.944,-271.288 L 126.734,-271.371 L 126.536,-271.48 L 126.353,-271.613
 L 126.188,-271.768 L 126.044,-271.942 L 125.923,-272.133 L 125.826,-272.337 L 125.757,-272.552 L 125.714,-272.774
 L 125.7,-273 L 125.714,-273.226 L 125.757,-273.448 L 125.826,-273.663 L 125.923,-273.867 L 126.044,-274.058
 L 126.188,-274.232 L 126.353,-274.387 L 126.536,-274.52 L 126.734,-274.629 L 126.944,-274.712 L 127.163,-274.768
 L 127.387,-274.796 L 127.613,-274.796 L 127.837,-274.768 L 128.056,-274.712 L 128.266,-274.629 L 128.464,-274.52
 L 128.647,-274.387 L 128.812,-274.232 L 128.956,-274.058 L 129.077,-273.867 L 129.174,-273.663 L 129.243,-273.448
 L 129.286,-273.226 L 129.3,-273 L 129.286,-272.774 L 129.243,-272.552 L 129.174,-272.337 L 129.077,-272.133
 L 128.956,-271.942 L 128.812,-271.768 L 128.647,-271.613 L 128.464,-271.48 L 128.266,-271.371 L 128.056,-271.288
 L 127.837,-271.232 L 127.613,-271.204 z
M -127.613,-271.204 L -127.837,-271.232 L -128.056,-271.288 L -128.266,-271.371 L -128.464,-271.48 L -128.647,-271.613
 L -128.812,-271.768 L -128.956,-271.942 L -129.077,-272.133 L -129.174,-272.337 L -129.243,-272.552 L -129.286,-272.774
 L -129.3,-273 L -129.286,-273.226 L -129.243,-273.448 L -129.174,-273.663 L -129.077,-273.867 L -128.956,-274.058
 L -128.812,-274.232 L -128.647,-274.387 L -128.464,-274.52 L -128.266,-274.629 L -128.056,-274.712 L -127.837,-274.768
 L -127.613,-274.796 L -127.387,-274.796 L -127.163,-274.768 L -126.944,-274.712 L -126.734,-274.629 L -126.536,-274.52
 L -126.353,-274.387 L -126.188,-274.232 L -126.044,-274.058 L -125.923,-273.867 L -125.826,-273.663 L -125.757,-273.448
 L -125.714,-273.226 L -125.7,-273 L -125.714,-272.774 L -125.757,-272.552 L -125.826,-272.337 L -125.923,-272.133
 L -126.044,-271.942 L -126.188,-271.768 L -126.353,-271.613 L -126.536,-271.48 L -126.734,-271.371 L -126.944,-271.288
 L -127.163,-271.232 L -127.387,-271.204 z
" stroke="black" fill="lightgray" stroke-width="0.5"/>
</svg>
