<?xml version="1.0" standalone="no"?>
<!DOCTYPE svg PUBLIC "-//W3C//DTD SVG 1.1//EN" "http://www.w3.org/Graphics/SVG/1.1/DTD/svg11.dtd">
<svg width="242mm" height="738mm" viewBox="-122 -1365 242 738" xmlns="http://www.w3.org/2000/svg" version="1.1">
<title>OpenSCAD Model</title>
<path d="
M -118.5,-1126.44 L -118.187,-1126.15 L -117.679,-1125.78 L -117.129,-1125.48 L -116.545,-1125.24 L -115.937,-1125.09
 L -115.314,-1125.01 L 115.314,-1125.01 L 115.937,-1125.09 L 116.545,-1125.24 L 117.129,-1125.48 L 117.679,-1125.78
 L 118.187,-1126.15 L 118.645,-1126.58 L 119.045,-1127.06 L 119.382,-1127.59 L 119.649,-1128.16 L 119.843,-1128.76
 L 119.961,-1129.37 L 120,-1130 L 120,-1360 L 119.961,-1360.63 L 119.843,-1361.24 L 119.649,-1361.84
 L 119.382,-1362.41 L 119.045,-1362.94 L 118.645,-1363.42 L 118.187,-1363.85 L 117.679,-1364.22 L 117.129,-1364.52
 L 116.545,-1364.76 L 115.937,-1364.91 L 115.314,-1364.99 L -115.314,-1364.99 L -115.937,-1364.91 L -116.545,-1364.76
 L -117.129,-1364.52 L -117.679,-1364.22 L -118.187,-1363.85 L -118.5,-1363.56 L -118.5,-1364.99 L -121.5,-1364.99
 L -121.5,-1125.01 L -118.5,-1125.01 z
M -114.751,-1126.51 L -115.25,-1126.57 L -115.736,-1126.7 L -116.203,-1126.88 L -116.643,-1127.12 L -117.05,-1127.42
 L -117.416,-1127.76 L -117.736,-1128.15 L -118.005,-1128.57 L -118.219,-1129.03 L -118.374,-1129.51 L -118.468,-1130
 L -118.5,-1130.5 L -118.5,-1359.5 L -118.468,-1360 L -118.374,-1360.49 L -118.219,-1360.97 L -118.005,-1361.43
 L -117.736,-1361.85 L -117.416,-1362.24 L -117.05,-1362.58 L -116.643,-1362.88 L -116.203,-1363.12 L -115.736,-1363.3
 L -115.25,-1363.43 L -114.751,-1363.49 L 114.751,-1363.49 L 115.25,-1363.43 L 115.736,-1363.3 L 116.203,-1363.12
 L 116.643,-1362.88 L 117.05,-1362.58 L 117.416,-1362.24 L 117.736,-1361.85 L 118.005,-1361.43 L 118.219,-1360.97
 L 118.374,-1360.49 L 118.468,-1360 L 118.5,-1359.5 L 118.5,-1130.5 L 118.468,-1130 L 118.374,-1129.51
 L 118.219,-1129.03 L 118.005,-1128.57 L 117.736,-1128.15 L 117.416,-1127.76 L 117.05,-1127.42 L 116.643,-1127.12
 L 116.203,-1126.88 L 115.736,-1126.7 L 115.25,-1126.57 L 114.751,-1126.51 z
M 115.937,-876.089 L 116.545,-876.245 L 117.129,-876.476 L 117.679,-876.778 L 118.187,-877.147 L 118.645,-877.577
 L 119.045,-878.061 L 119.382,-878.591 L 119.649,-879.159 L 119.843,-879.757 L 119.961,-880.373 L 120,-881
 L 120,-1111 L 119.961,-1111.63 L 119.843,-1112.24 L 119.649,-1112.84 L 119.382,-1113.41 L 119.045,-1113.94
 L 118.645,-1114.42 L 118.187,-1114.85 L 117.679,-1115.22 L 117.129,-1115.52 L 116.545,-1115.76 L 115.937,-1115.91
 L 115.314,-1115.99 L -115.314,-1115.99 L -115.937,-1115.91 L -116.545,-1115.76 L -117.129,-1115.52 L -117.679,-1115.22
 L -118.187,-1114.85 L -118.5,-1114.56 L -118.5,-1115.98 L -121.5,-1115.98 L -121.5,-876.021 L -118.5,-876.021
 L -118.5,-877.441 L -118.187,-877.147 L -117.679,-876.778 L -117.129,-876.476 L -116.545,-876.245 L -115.937,-876.089
 L -115.314,-876.01 L 115.314,-876.01 z
M -114.695,-878.393 L -115.083,-878.442 L -115.462,-878.539 L -115.825,-878.683 L -116.168,-878.872 L -116.484,-879.101
 L -116.769,-879.369 L -117.018,-879.67 L -117.228,-880 L -117.394,-880.354 L -117.515,-880.726 L -117.588,-881.11
 L -117.613,-881.5 L -117.613,-1110.5 L -117.588,-1110.89 L -117.515,-1111.27 L -117.394,-1111.65 L -117.228,-1112
 L -117.018,-1112.33 L -116.769,-1112.63 L -116.484,-1112.9 L -116.168,-1113.13 L -115.825,-1113.32 L -115.462,-1113.46
 L -115.083,-1113.56 L -114.695,-1113.61 L 114.695,-1113.61 L 115.083,-1113.56 L 115.462,-1113.46 L 115.825,-1113.32
 L 116.168,-1113.13 L 116.484,-1112.9 L 116.769,-1112.63 L 117.018,-1112.33 L 117.228,-1112 L 117.394,-1111.65
 L 117.515,-1111.27 L 117.588,-1110.89 L 117.613,-1110.5 L 117.613,-881.5 L 117.588,-881.11 L 117.515,-880.726
 L 117.394,-880.354 L 117.228,-880 L 117.018,-879.67 L 116.769,-879.369 L 116.484,-879.101 L 116.168,-878.872
 L 115.825,-878.683 L 115.462,-878.539 L 115.083,-878.442 L 114.695,-878.393 z
M 115.937,-627.089 L 116.545,-627.245 L 117.129,-627.476 L 117.679,-627.778 L 118.187,-628.147 L 118.645,-628.577
 L 119.045,-629.061 L 119.382,-629.591 L 119.649,-630.159 L 119.843,-630.757 L 119.961,-631.373 L 120,-632
 L 120,-862 L 119.961,-862.627 L 119.843,-863.243 L 119.649,-863.841 L 119.382,-864.409 L 119.045,-864.939
 L 118.645,-865.423 L 118.187,-865.853 L 117.679,-866.222 L 117.129,-866.524 L 116.545,-866.755 L 115.937,-866.911
 L 115.314,-866.99 L -115.314,-866.99 L -115.937,-866.911 L -116.545,-866.755 L -117.129,-866.524 L -117.679,-866.222
 L -118.187,-865.853 L -118.5,-865.559 L -118.5,-865.653 L -121.5,-865.653 L -121.5,-628.347 L -118.5,-628.347
 L -118.5,-628.441 L -118.187,-628.147 L -117.679,-627.778 L -117.129,-627.476 L -116.545,-627.245 L -115.937,-627.089
 L -115.314,-627.01 L 115.314,-627.01 z
M 112.366,-857.369 L 112.1,-857.403 L 111.84,-857.469 L 111.591,-857.568 L 111.356,-857.697 L 111.139,-857.855
 L 110.943,-858.038 L 110.773,-858.245 L 110.629,-858.471 L 110.515,-858.714 L 110.432,-858.969 L 110.382,-859.232
 L 110.365,-859.5 L 110.382,-859.768 L 110.432,-860.031 L 110.515,-860.286 L 110.629,-860.529 L 110.773,-860.755
 L 110.943,-860.962 L 111.139,-861.145 L 111.356,-861.303 L 111.591,-861.432 L 111.84,-861.531 L 112.1,-861.597
 L 112.366,-861.631 L 112.634,-861.631 L 112.9,-861.597 L 113.16,-861.531 L 113.409,-861.432 L 113.644,-861.303
 L 113.861,-861.145 L 114.057,-860.962 L 114.227,-860.755 L 114.371,-860.529 L 114.485,-860.286 L 114.568,-860.031
 L 114.618,-859.768 L 114.635,-859.5 L 114.618,-859.232 L 114.568,-858.969 L 114.485,-858.714 L 114.371,-858.471
 L 114.227,-858.245 L 114.057,-858.038 L 113.861,-857.855 L 113.644,-857.697 L 113.409,-857.568 L 113.16,-857.469
 L 112.9,-857.403 L 112.634,-857.369 z
M -112.634,-857.369 L -112.9,-857.403 L -113.16,-857.469 L -113.409,-857.568 L -113.644,-857.697 L -113.861,-857.855
 L -114.057,-858.038 L -114.227,-858.245 L -114.371,-858.471 L -114.485,-858.714 L -114.568,-858.969 L -114.618,-859.232
 L -114.635,-859.5 L -114.618,-859.768 L -114.568,-860.031 L -114.485,-860.286 L -114.371,-860.529 L -114.227,-860.755
 L -114.057,-860.962 L -113.861,-861.145 L -113.644,-861.303 L -113.409,-861.432 L -113.16,-861.531 L -112.9,-861.597
 L -112.634,-861.631 L -112.366,-861.631 L -112.1,-861.597 L -111.84,-861.531 L -111.591,-861.432 L -111.356,-861.303
 L -111.139,-861.145 L -110.943,-860.962 L -110.773,-860.755 L -110.629,-860.529 L -110.515,-860.286 L -110.432,-860.031
 L -110.382,-859.768 L -110.365,-859.5 L -110.382,-859.232 L -110.432,-858.969 L -110.515,-858.714 L -110.629,-858.471
 L -110.773,-858.245 L -110.943,-858.038 L -111.139,-857.855 L -111.356,-857.697 L -111.591,-857.568 L -111.84,-857.469
 L -112.1,-857.403 L -112.366,-857.369 z
M 112.366,-632.369 L 112.1,-632.403 L 111.84,-632.469 L 111.591,-632.568 L 111.356,-632.697 L 111.139,-632.855
 L 110.943,-633.038 L 110.773,-633.245 L 110.629,-633.471 L 110.515,-633.714 L 110.432,-633.969 L 110.382,-634.232
 L 110.365,-634.5 L 110.382,-634.768 L 110.432,-635.031 L 110.515,-635.286 L 110.629,-635.529 L 110.773,-635.755
 L 110.943,-635.962 L 111.139,-636.145 L 111.356,-636.303 L 111.591,-636.432 L 111.84,-636.531 L 112.1,-636.597
 L 112.366,-636.631 L 112.634,-636.631 L 112.9,-636.597 L 113.16,-636.531 L 113.409,-636.432 L 113.644,-636.303
 L 113.861,-636.145 L 114.057,-635.962 L 114.227,-635.755 L 114.371,-635.529 L 114.485,-635.286 L 114.568,-635.031
 L 114.618,-634.768 L 114.635,-634.5 L 114.618,-634.232 L 114.568,-633.969 L 114.485,-633.714 L 114.371,-633.471
 L 114.227,-633.245 L 114.057,-633.038 L 113.861,-632.855 L 113.644,-632.697 L 113.409,-632.568 L 113.16,-632.469
 L 112.9,-632.403 L 112.634,-632.369 z
M -112.634,-632.369 L -112.9,-632.403 L -113.16,-632.469 L -113.409,-632.568 L -113.644,-632.697 L -113.861,-632.855
 L -114.057,-633.038 L -114.227,-633.245 L -114.371,-633.471 L -114.485,-633.714 L -114.568,-633.969 L -114.618,-634.232
 L -114.635,-634.5 L -114.618,-634.768 L -114.568,-635.031 L -114.485,-635.286 L -114.371,-635.529 L -114.227,-635.755
 L -114.057,-635.962 L -113.861,-636.145 L -113.644,-636.303 L -113.409,-636.432 L -113.16,-636.531 L -112.9,-636.597
 L -112.634,-636.631 L -112.366,-636.631 L -112.1,-636.597 L -111.84,-636.531 L -111.591,-636.432 L -111.356,-636.303
 L -111.139,-636.145 L -110.943,-635.962 L -110.773,-635.755 L -110.629,-635.529 L -110.515,-635.286 L -110.432,-635.031
 L -110.382,-634.768 L -110.365,-634.5 L -110.382,-634.232 L -110.432,-633.969 L -110.515,-633.714 L -110.629,-633.471
 L -110.773,-633.245 L -110.943,-633.038 L -111.139,-632.855 L -111.356,-632.697 L -111.591,-632.568 L -111.84,-632.469
 L -112.1,-632.403 L -112.366,-632.369 z
" stroke="black" fill="lightgray" stroke-width="0.5"/>
</svg>
