<?xml version="1.0" standalone="no"?>
<!DOCTYPE svg PUBLIC "-//W3C//DTD SVG 1.1//EN" "http://www.w3.org/Graphics/SVG/1.1/DTD/svg11.dtd">
<svg width="287mm" height="627mm" viewBox="-144 -1029 287 627" xmlns="http://www.w3.org/2000/svg" version="1.1">
<title>OpenSCAD Model</title>
<path d="
M -141,-880.441 L -140.687,-880.147 L -140.179,-879.778 L -139.629,-879.476 L -139.045,-879.245 L -138.437,-879.089
 L -137.814,-879.01 L 137.814,-879.01 L 138.437,-879.089 L 139.045,-879.245 L 139.629,-879.476 L 140.179,-879.778
 L 140.687,-880.147 L 141.145,-880.577 L 141.545,-881.061 L 141.882,-881.591 L 142.149,-882.159 L 142.343,-882.757
 L 142.461,-883.373 L 142.5,-884 L 142.5,-1024 L 142.461,-1024.63 L 142.343,-1025.24 L 142.149,-1025.84
 L 141.882,-1026.41 L 141.545,-1026.94 L 141.145,-1027.42 L 140.687,-1027.85 L 140.179,-1028.22 L 139.629,-1028.52
 L 139.045,-1028.76 L 138.437,-1028.91 L 137.814,-1028.99 L -137.814,-1028.99 L -138.437,-1028.91 L -139.045,-1028.76
 L -139.629,-1028.52 L -140.179,-1028.22 L -140.687,-1027.85 L -141,-1027.56 L -141,-1028.99 L -144,-1028.99
 L -144,-879.01 L -141,-879.01 z
M -137.251,-880.508 L -137.75,-880.571 L -138.236,-880.696 L -138.703,-880.881 L -139.143,-881.123 L -139.55,-881.418
 L -139.916,-881.762 L -140.236,-882.149 L -140.505,-882.573 L -140.719,-883.028 L -140.874,-883.505 L -140.968,-883.999
 L -141,-884.5 L -141,-1023.5 L -140.968,-1024 L -140.874,-1024.49 L -140.719,-1024.97 L -140.505,-1025.43
 L -140.236,-1025.85 L -139.916,-1026.24 L -139.55,-1026.58 L -139.143,-1026.88 L -138.703,-1027.12 L -138.236,-1027.3
 L -137.75,-1027.43 L -137.251,-1027.49 L 137.251,-1027.49 L 137.75,-1027.43 L 138.236,-1027.3 L 138.703,-1027.12
 L 139.143,-1026.88 L 139.55,-1026.58 L 139.916,-1026.24 L 140.236,-1025.85 L 140.505,-1025.43 L 140.719,-1024.97
 L 140.874,-1024.49 L 140.968,-1024 L 141,-1023.5 L 141,-884.5 L 140.968,-883.999 L 140.874,-883.505
 L 140.719,-883.028 L 140.505,-882.573 L 140.236,-882.149 L 139.916,-881.762 L 139.55,-881.418 L 139.143,-881.123
 L 138.703,-880.881 L 138.236,-880.696 L 137.75,-880.571 L 137.251,-880.508 z
M -141,-721.441 L -140.687,-721.147 L -140.179,-720.778 L -139.629,-720.476 L -139.045,-720.245 L -138.437,-720.089
 L -137.814,-720.01 L 137.814,-720.01 L 138.437,-720.089 L 139.045,-720.245 L 139.629,-720.476 L 140.179,-720.778
 L 140.687,-721.147 L 141.145,-721.577 L 141.545,-722.061 L 141.882,-722.591 L 142.149,-723.159 L 142.343,-723.757
 L 142.461,-724.373 L 142.5,-725 L 142.5,-865 L 142.461,-865.627 L 142.343,-866.243 L 142.149,-866.841
 L 141.882,-867.409 L 141.545,-867.939 L 141.145,-868.423 L 140.687,-868.853 L 140.179,-869.222 L 139.629,-869.524
 L 139.045,-869.755 L 138.437,-869.911 L 137.814,-869.99 L -137.814,-869.99 L -138.437,-869.911 L -139.045,-869.755
 L -139.629,-869.524 L -140.179,-869.222 L -140.687,-868.853 L -141,-868.559 L -141,-869.99 L -144,-869.99
 L -144,-720.01 L -141,-720.01 z
M -137.243,-721.635 L -137.726,-721.696 L -138.197,-721.817 L -138.649,-721.996 L -139.075,-722.23 L -139.469,-722.516
 L -139.823,-722.849 L -140.133,-723.224 L -140.394,-723.634 L -140.601,-724.074 L -140.751,-724.537 L -140.842,-725.015
 L -140.873,-725.5 L -140.873,-864.5 L -140.842,-864.985 L -140.751,-865.463 L -140.601,-865.926 L -140.394,-866.366
 L -140.133,-866.776 L -139.823,-867.151 L -139.469,-867.484 L -139.075,-867.77 L -138.649,-868.004 L -138.197,-868.183
 L -137.726,-868.304 L -137.243,-868.365 L 137.243,-868.365 L 137.726,-868.304 L 138.197,-868.183 L 138.649,-868.004
 L 139.075,-867.77 L 139.469,-867.484 L 139.823,-867.151 L 140.133,-866.776 L 140.394,-866.366 L 140.601,-865.926
 L 140.751,-865.463 L 140.842,-864.985 L 140.873,-864.5 L 140.873,-725.5 L 140.842,-725.015 L 140.751,-724.537
 L 140.601,-724.074 L 140.394,-723.634 L 140.133,-723.224 L 139.823,-722.849 L 139.469,-722.516 L 139.075,-722.23
 L 138.649,-721.996 L 138.197,-721.817 L 137.726,-721.696 L 137.243,-721.635 z
M 138.437,-561.089 L 139.045,-561.245 L 139.629,-561.476 L 140.179,-561.778 L 140.687,-562.147 L 141.145,-562.577
 L 141.545,-563.061 L 141.882,-563.591 L 142.149,-564.159 L 142.343,-564.757 L 142.461,-565.373 L 142.5,-566
 L 142.5,-706 L 142.461,-706.627 L 142.343,-707.243 L 142.149,-707.841 L 141.882,-708.409 L 141.545,-708.939
 L 141.145,-709.423 L 140.687,-709.853 L 140.179,-710.222 L 139.629,-710.524 L 139.045,-710.755 L 138.437,-710.911
 L 137.814,-710.99 L -137.814,-710.99 L -138.437,-710.911 L -139.045,-710.755 L -139.629,-710.524 L -140.179,-710.222
 L -140.687,-709.853 L -141,-709.559 L -141,-710.615 L -144,-710.615 L -144,-561.385 L -141,-561.385
 L -141,-562.441 L -140.687,-562.147 L -140.179,-561.778 L -139.629,-561.476 L -139.045,-561.245 L -138.437,-561.089
 L -137.814,-561.01 L 137.814,-561.01 z
M 134.849,-701.105 L 134.55,-701.143 L 134.258,-701.217 L 133.978,-701.328 L 133.714,-701.474 L 133.47,-701.651
 L 133.25,-701.857 L 133.058,-702.089 L 132.897,-702.344 L 132.769,-702.617 L 132.675,-702.903 L 132.619,-703.199
 L 132.6,-703.5 L 132.619,-703.801 L 132.675,-704.097 L 132.769,-704.383 L 132.897,-704.656 L 133.058,-704.911
 L 133.25,-705.143 L 133.47,-705.349 L 133.714,-705.526 L 133.978,-705.672 L 134.258,-705.783 L 134.55,-705.857
 L 134.849,-705.895 L 135.151,-705.895 L 135.45,-705.857 L 135.742,-705.783 L 136.022,-705.672 L 136.286,-705.526
 L 136.53,-705.349 L 136.75,-705.143 L 136.942,-704.911 L 137.103,-704.656 L 137.231,-704.383 L 137.325,-704.097
 L 137.381,-703.801 L 137.4,-703.5 L 137.381,-703.199 L 137.325,-702.903 L 137.231,-702.617 L 137.103,-702.344
 L 136.942,-702.089 L 136.75,-701.857 L 136.53,-701.651 L 136.286,-701.474 L 136.022,-701.328 L 135.742,-701.217
 L 135.45,-701.143 L 135.151,-701.105 z
M -135.151,-701.105 L -135.45,-701.143 L -135.742,-701.217 L -136.022,-701.328 L -136.286,-701.474 L -136.53,-701.651
 L -136.75,-701.857 L -136.942,-702.089 L -137.103,-702.344 L -137.231,-702.617 L -137.325,-702.903 L -137.381,-703.199
 L -137.4,-703.5 L -137.381,-703.801 L -137.325,-704.097 L -137.231,-704.383 L -137.103,-704.656 L -136.942,-704.911
 L -136.75,-705.143 L -136.53,-705.349 L -136.286,-705.526 L -136.022,-705.672 L -135.742,-705.783 L -135.45,-705.857
 L -135.151,-705.895 L -134.849,-705.895 L -134.55,-705.857 L -134.258,-705.783 L -133.978,-705.672 L -133.714,-705.526
 L -133.47,-705.349 L -133.25,-705.143 L -133.058,-704.911 L -132.897,-704.656 L -132.769,-704.383 L -132.675,-704.097
 L -132.619,-703.801 L -132.6,-703.5 L -132.619,-703.199 L -132.675,-702.903 L -132.769,-702.617 L -132.897,-702.344
 L -133.058,-702.089 L -133.25,-701.857 L -133.47,-701.651 L -133.714,-701.474 L -133.978,-701.328 L -134.258,-701.217
 L -134.55,-701.143 L -134.849,-701.105 z
M 134.849,-566.105 L 134.55,-566.143 L 134.258,-566.217 L 133.978,-566.328 L 133.714,-566.474 L 133.47,-566.651
 L 133.25,-566.857 L 133.058,-567.089 L 132.897,-567.344 L 132.769,-567.617 L 132.675,-567.903 L 132.619,-568.199
 L 132.6,-568.5 L 132.619,-568.801 L 132.675,-569.097 L 132.769,-569.383 L 132.897,-569.656 L 133.058,-569.911
 L 133.25,-570.143 L 133.47,-570.349 L 133.714,-570.526 L 133.978,-570.672 L 134.258,-570.783 L 134.55,-570.857
 L 134.849,-570.895 L 135.151,-570.895 L 135.45,-570.857 L 135.742,-570.783 L 136.022,-570.672 L 136.286,-570.526
 L 136.53,-570.349 L 136.75,-570.143 L 136.942,-569.911 L 137.103,-569.656 L 137.231,-569.383 L 137.325,-569.097
 L 137.381,-568.801 L 137.4,-568.5 L 137.381,-568.199 L 137.325,-567.903 L 137.231,-567.617 L 137.103,-567.344
 L 136.942,-567.089 L 136.75,-566.857 L 136.53,-566.651 L 136.286,-566.474 L 136.022,-566.328 L 135.742,-566.217
 L 135.45,-566.143 L 135.151,-566.105 z
M -135.151,-566.105 L -135.45,-566.143 L -135.742,-566.217 L -136.022,-566.328 L -136.286,-566.474 L -136.53,-566.651
 L -136.75,-566.857 L -136.942,-567.089 L -137.103,-567.344 L -137.231,-567.617 L -137.325,-567.903 L -137.381,-568.199
 L -137.4,-568.5 L -137.381,-568.801 L -137.325,-569.097 L -137.231,-569.383 L -137.103,-569.656 L -136.942,-569.911
 L -136.75,-570.143 L -136.53,-570.349 L -136.286,-570.526 L -136.022,-570.672 L -135.742,-570.783 L -135.45,-570.857
 L -135.151,-570.895 L -134.849,-570.895 L -134.55,-570.857 L -134.258,-570.783 L -133.978,-570.672 L -133.714,-570.526
 L -133.47,-570.349 L -133.25,-570.143 L -133.058,-569.911 L -132.897,-569.656 L -132.769,-569.383 L -132.675,-569.097
 L -132.619,-568.801 L -132.6,-568.5 L -132.619,-568.199 L -132.675,-567.903 L -132.769,-567.617 L -132.897,-567.344
 L -133.058,-567.089 L -133.25,-566.857 L -133.47,-566.651 L -133.714,-566.474 L -133.978,-566.328 L -134.258,-566.217
 L -134.55,-566.143 L -134.849,-566.105 z
M 138.437,-402.089 L 139.045,-402.245 L 139.629,-402.476 L 140.179,-402.778 L 140.687,-403.147 L 141.145,-403.577
 L 141.545,-404.061 L 141.882,-404.591 L 142.149,-405.159 L 142.343,-405.757 L 142.461,-406.373 L 142.5,-407
 L 142.5,-547 L 142.461,-547.627 L 142.343,-548.243 L 142.149,-548.841 L 141.882,-549.409 L 141.545,-549.939
 L 141.145,-550.423 L 140.687,-550.853 L 140.179,-551.222 L 139.629,-551.524 L 139.045,-551.755 L 138.437,-551.911
 L 137.814,-551.99 L -137.814,-551.99 L -138.437,-551.911 L -139.045,-551.755 L -139.629,-551.524 L -140.179,-551.222
 L -140.687,-550.853 L -141.145,-550.423 L -141.545,-549.939 L -141.882,-549.409 L -142.149,-548.841 L -142.343,-548.243
 L -142.4,-547.944 L -144,-547.944 L -144,-406.056 L -142.4,-406.056 L -142.343,-405.757 L -142.149,-405.159
 L -141.882,-404.591 L -141.545,-404.061 L -141.145,-403.577 L -140.687,-403.147 L -140.179,-402.778 L -139.629,-402.476
 L -139.045,-402.245 L -138.437,-402.089 L -137.814,-402.01 L 137.814,-402.01 z
M -135.113,-542.704 L -135.337,-542.732 L -135.556,-542.788 L -135.766,-542.871 L -135.964,-542.98 L -136.147,-543.113
 L -136.312,-543.268 L -136.456,-543.442 L -136.577,-543.633 L -136.674,-543.837 L -136.743,-544.052 L -136.786,-544.274
 L -136.8,-544.5 L -136.786,-544.726 L -136.743,-544.948 L -136.674,-545.163 L -136.577,-545.367 L -136.456,-545.558
 L -136.312,-545.732 L -136.147,-545.887 L -135.964,-546.02 L -135.766,-546.129 L -135.556,-546.212 L -135.337,-546.268
 L -135.113,-546.296 L -134.887,-546.296 L -134.663,-546.268 L -134.444,-546.212 L -134.234,-546.129 L -134.036,-546.02
 L -133.853,-545.887 L -133.688,-545.732 L -133.544,-545.558 L -133.423,-545.367 L -133.326,-545.163 L -133.257,-544.948
 L -133.214,-544.726 L -133.2,-544.5 L -133.214,-544.274 L -133.257,-544.052 L -133.326,-543.837 L -133.423,-543.633
 L -133.544,-543.442 L -133.688,-543.268 L -133.853,-543.113 L -134.036,-542.98 L -134.234,-542.871 L -134.444,-542.788
 L -134.663,-542.732 L -134.887,-542.704 z
M 134.887,-542.704 L 134.663,-542.732 L 134.444,-542.788 L 134.234,-542.871 L 134.036,-542.98 L 133.853,-543.113
 L 133.688,-543.268 L 133.544,-543.442 L 133.423,-543.633 L 133.326,-543.837 L 133.257,-544.052 L 133.214,-544.274
 L 133.2,-544.5 L 133.214,-544.726 L 133.257,-544.948 L 133.326,-545.163 L 133.423,-545.367 L 133.544,-545.558
 L 133.688,-545.732 L 133.853,-545.887 L 134.036,-546.02 L 134.234,-546.129 L 134.444,-546.212 L 134.663,-546.268
 L 134.887,-546.296 L 135.113,-546.296 L 135.337,-546.268 L 135.556,-546.212 L 135.766,-546.129 L 135.964,-546.02
 L 136.147,-545.887 L 136.312,-545.732 L 136.456,-545.558 L 136.577,-545.367 L 136.674,-545.163 L 136.743,-544.948
 L 136.786,-544.726 L 136.8,-544.5 L 136.786,-544.274 L 136.743,-544.052 L 136.674,-543.837 L 136.577,-543.633
 L 136.456,-543.442 L 136.312,-543.268 L 136.147,-543.113 L 135.964,-542.98 L 135.766,-542.871 L 135.556,-542.788
 L 135.337,-542.732 L 135.113,-542.704 z
M -135.113,-407.704 L -135.337,-407.732 L -135.556,-407.788 L -135.766,-407.871 L -135.964,-407.98 L -136.147,-408.113
 L -136.312,-408.268 L -136.456,-408.442 L -136.577,-408.633 L -136.674,-408.837 L -136.743,-409.052 L -136.786,-409.274
 L -136.8,-409.5 L -136.786,-409.726 L -136.743,-409.948 L -136.674,-410.163 L -136.577,-410.367 L -136.456,-410.558
 L -136.312,-410.732 L -136.147,-410.887 L -135.964,-411.02 L -135.766,-411.129 L -135.556,-411.212 L -135.337,-411.268
 L -135.113,-411.296 L -134.887,-411.296 L -134.663,-411.268 L -134.444,-411.212 L -134.234,-411.129 L -134.036,-411.02
 L -133.853,-410.887 L -133.688,-410.732 L -133.544,-410.558 L -133.423,-410.367 L -133.326,-410.163 L -133.257,-409.948
 L -133.214,-409.726 L -133.2,-409.5 L -133.214,-409.274 L -133.257,-409.052 L -133.326,-408.837 L -133.423,-408.633
 L -133.544,-408.442 L -133.688,-408.268 L -133.853,-408.113 L -134.036,-407.98 L -134.234,-407.871 L -134.444,-407.788
 L -134.663,-407.732 L -134.887,-407.704 z
M 134.887,-407.704 L 134.663,-407.732 L 134.444,-407.788 L 134.234,-407.871 L 134.036,-407.98 L 133.853,-408.113
 L 133.688,-408.268 L 133.544,-408.442 L 133.423,-408.633 L 133.326,-408.837 L 133.257,-409.052 L 133.214,-409.274
 L 133.2,-409.5 L 133.214,-409.726 L 133.257,-409.948 L 133.326,-410.163 L 133.423,-410.367 L 133.544,-410.558
 L 133.688,-410.732 L 133.853,-410.887 L 134.036,-411.02 L 134.234,-411.129 L 134.444,-411.212 L 134.663,-411.268
 L 134.887,-411.296 L 135.113,-411.296 L 135.337,-411.268 L 135.556,-411.212 L 135.766,-411.129 L 135.964,-411.02
 L 136.147,-410.887 L 136.312,-410.732 L 136.456,-410.558 L 136.577,-410.367 L 136.674,-410.163 L 136.743,-409.948
 L 136.786,-409.726 L 136.8,-409.5 L 136.786,-409.274 L 136.743,-409.052 L 136.674,-408.837 L 136.577,-408.633
 L 136.456,-408.442 L 136.312,-408.268 L 136.147,-408.113 L 135.964,-407.98 L 135.766,-407.871 L 135.556,-407.788
 L 135.337,-407.732 L 135.113,-407.704 z
" stroke="black" fill="lightgray" stroke-width="0.5"/>
</svg>
