<?xml version="1.0" standalone="no"?>
<!DOCTYPE svg PUBLIC "-//W3C//DTD SVG 1.1//EN" "http://www.w3.org/Graphics/SVG/1.1/DTD/svg11.dtd">
<svg width="270mm" height="118mm" viewBox="-135 -201 270 118" xmlns="http://www.w3.org/2000/svg" version="1.1">
<title>OpenSCAD Model</title>
<path d="
M 130.937,-177.839 L 131.545,-177.995 L 132.129,-178.226 L 132.679,-178.528 L 133.187,-178.897 L 133.645,-179.327
 L 134.045,-179.811 L 134.382,-180.341 L 134.649,-180.909 L 134.843,-181.507 L 134.961,-182.123 L 135,-182.75
 L 135,-195.25 L 134.961,-195.877 L 134.843,-196.493 L 134.649,-197.091 L 134.382,-197.659 L 134.045,-198.189
 L 133.645,-198.673 L 133.187,-199.103 L 132.679,-199.472 L 132.129,-199.774 L 131.545,-200.005 L 130.937,-200.161
 L 130.314,-200.24 L -130.314,-200.24 L -130.937,-200.161 L -131.545,-200.005 L -132.129,-199.774 L -132.679,-199.472
 L -133.187,-199.103 L -133.645,-198.673 L -134.045,-198.189 L -134.382,-197.659 L -134.649,-197.091 L -134.843,-196.493
 L -134.961,-195.877 L -135,-195.25 L -135,-182.75 L -134.961,-182.123 L -134.843,-181.507 L -134.649,-180.909
 L -134.382,-180.341 L -134.045,-179.811 L -133.645,-179.327 L -133.187,-178.897 L -132.679,-178.528 L -132.129,-178.226
 L -131.545,-177.995 L -130.937,-177.839 L -130.314,-177.76 L 130.314,-177.76 z
M -130.048,-178.259 L -130.64,-178.334 L -131.218,-178.482 L -131.772,-178.702 L -132.295,-178.989 L -132.778,-179.34
 L -133.213,-179.748 L -133.593,-180.208 L -133.912,-180.712 L -134.166,-181.251 L -134.351,-181.819 L -134.463,-182.405
 L -134.5,-183 L -134.5,-195 L -134.463,-195.595 L -134.351,-196.181 L -134.166,-196.749 L -133.912,-197.288
 L -133.593,-197.792 L -133.213,-198.252 L -132.778,-198.66 L -132.295,-199.011 L -131.772,-199.298 L -131.218,-199.518
 L -130.64,-199.666 L -130.048,-199.741 L 130.048,-199.741 L 130.64,-199.666 L 131.218,-199.518 L 131.772,-199.298
 L 132.295,-199.011 L 132.778,-198.66 L 133.213,-198.252 L 133.593,-197.792 L 133.912,-197.288 L 134.166,-196.749
 L 134.351,-196.181 L 134.463,-195.595 L 134.5,-195 L 134.5,-183 L 134.463,-182.405 L 134.351,-181.819
 L 134.166,-181.251 L 133.912,-180.712 L 133.593,-180.208 L 133.213,-179.748 L 132.778,-179.34 L 132.295,-178.989
 L 131.772,-178.702 L 131.218,-178.482 L 130.64,-178.334 L 130.048,-178.259 z
M 130.937,-146.339 L 131.545,-146.495 L 132.129,-146.726 L 132.679,-147.028 L 133.187,-147.397 L 133.645,-147.827
 L 134.045,-148.311 L 134.382,-148.841 L 134.649,-149.409 L 134.843,-150.007 L 134.961,-150.623 L 135,-151.25
 L 135,-163.75 L 134.961,-164.377 L 134.843,-164.993 L 134.649,-165.591 L 134.382,-166.159 L 134.045,-166.689
 L 133.645,-167.173 L 133.187,-167.603 L 132.679,-167.972 L 132.129,-168.274 L 131.545,-168.505 L 130.937,-168.661
 L 130.314,-168.74 L -130.314,-168.74 L -130.937,-168.661 L -131.545,-168.505 L -132.129,-168.274 L -132.679,-167.972
 L -133.187,-167.603 L -133.645,-167.173 L -134.045,-166.689 L -134.382,-166.159 L -134.649,-165.591 L -134.843,-164.993
 L -134.961,-164.377 L -135,-163.75 L -135,-151.25 L -134.961,-150.623 L -134.843,-150.007 L -134.649,-149.409
 L -134.382,-148.841 L -134.045,-148.311 L -133.645,-147.827 L -133.187,-147.397 L -132.679,-147.028 L -132.129,-146.726
 L -131.545,-146.495 L -130.937,-146.339 L -130.314,-146.26 L 130.314,-146.26 z
M -130.048,-146.759 L -130.64,-146.834 L -131.218,-146.982 L -131.772,-147.202 L -132.295,-147.489 L -132.778,-147.84
 L -133.213,-148.248 L -133.593,-148.708 L -133.912,-149.212 L -134.166,-149.751 L -134.351,-150.319 L -134.463,-150.905
 L -134.5,-151.5 L -134.5,-163.5 L -134.463,-164.095 L -134.351,-164.681 L -134.166,-165.249 L -133.912,-165.788
 L -133.593,-166.292 L -133.213,-166.752 L -132.778,-167.16 L -132.295,-167.511 L -131.772,-167.798 L -131.218,-168.018
 L -130.64,-168.166 L -130.048,-168.241 L 130.048,-168.241 L 130.64,-168.166 L 131.218,-168.018 L 131.772,-167.798
 L 132.295,-167.511 L 132.778,-167.16 L 133.213,-166.752 L 133.593,-166.292 L 133.912,-165.788 L 134.166,-165.249
 L 134.351,-164.681 L 134.463,-164.095 L 134.5,-163.5 L 134.5,-151.5 L 134.463,-150.905 L 134.351,-150.319
 L 134.166,-149.751 L 133.912,-149.212 L 133.593,-148.708 L 133.213,-148.248 L 132.778,-147.84 L 132.295,-147.489
 L 131.772,-147.202 L 131.218,-146.982 L 130.64,-146.834 L 130.048,-146.759 z
M 130.937,-114.839 L 131.545,-114.995 L 132.129,-115.226 L 132.679,-115.528 L 133.187,-115.897 L 133.645,-116.327
 L 134.045,-116.811 L 134.382,-117.341 L 134.649,-117.909 L 134.843,-118.507 L 134.961,-119.123 L 135,-119.75
 L 135,-132.25 L 134.961,-132.877 L 134.843,-133.493 L 134.649,-134.091 L 134.382,-134.659 L 134.045,-135.189
 L 133.645,-135.673 L 133.187,-136.103 L 132.679,-136.472 L 132.129,-136.774 L 131.545,-137.005 L 130.937,-137.161
 L 130.314,-137.24 L -130.314,-137.24 L -130.937,-137.161 L -131.545,-137.005 L -132.129,-136.774 L -132.679,-136.472
 L -133.187,-136.103 L -133.645,-135.673 L -134.045,-135.189 L -134.382,-134.659 L -134.649,-134.091 L -134.843,-133.493
 L -134.961,-132.877 L -135,-132.25 L -135,-119.75 L -134.961,-119.123 L -134.843,-118.507 L -134.649,-117.909
 L -134.382,-117.341 L -134.045,-116.811 L -133.645,-116.327 L -133.187,-115.897 L -132.679,-115.528 L -132.129,-115.226
 L -131.545,-114.995 L -130.937,-114.839 L -130.314,-114.76 L 130.314,-114.76 z
M -129.993,-116.138 L -130.475,-116.199 L -130.946,-116.32 L -131.398,-116.499 L -131.823,-116.733 L -132.216,-117.019
 L -132.571,-117.351 L -132.88,-117.726 L -133.141,-118.136 L -133.348,-118.576 L -133.498,-119.038 L -133.589,-119.515
 L -133.619,-120 L -133.619,-132 L -133.589,-132.485 L -133.498,-132.962 L -133.348,-133.424 L -133.141,-133.864
 L -132.88,-134.274 L -132.571,-134.649 L -132.216,-134.981 L -131.823,-135.267 L -131.398,-135.501 L -130.946,-135.68
 L -130.475,-135.801 L -129.993,-135.862 L 129.993,-135.862 L 130.475,-135.801 L 130.946,-135.68 L 131.398,-135.501
 L 131.823,-135.267 L 132.216,-134.981 L 132.571,-134.649 L 132.88,-134.274 L 133.141,-133.864 L 133.348,-133.424
 L 133.498,-132.962 L 133.589,-132.485 L 133.619,-132 L 133.619,-120 L 133.589,-119.515 L 133.498,-119.038
 L 133.348,-118.576 L 133.141,-118.136 L 132.88,-117.726 L 132.571,-117.351 L 132.216,-117.019 L 131.823,-116.733
 L 131.398,-116.499 L 130.946,-116.32 L 130.475,-116.199 L 129.993,-116.138 z
M 130.937,-83.3386 L 131.545,-83.4947 L 132.129,-83.7259 L 132.679,-84.0284 L 133.187,-84.3974 L 133.645,-84.8273
 L 134.045,-85.3111 L 134.382,-85.8412 L 134.649,-86.4094 L 134.843,-87.0066 L 134.961,-87.6233 L 135,-88.25
 L 135,-100.75 L 134.961,-101.377 L 134.843,-101.993 L 134.649,-102.591 L 134.382,-103.159 L 134.045,-103.689
 L 133.645,-104.173 L 133.187,-104.603 L 132.679,-104.972 L 132.129,-105.274 L 131.545,-105.505 L 130.937,-105.661
 L 130.314,-105.74 L -130.314,-105.74 L -130.937,-105.661 L -131.545,-105.505 L -132.129,-105.274 L -132.679,-104.972
 L -133.187,-104.603 L -133.645,-104.173 L -134.045,-103.689 L -134.382,-103.159 L -134.649,-102.591 L -134.843,-101.993
 L -134.961,-101.377 L -135,-100.75 L -135,-88.25 L -134.961,-87.6233 L -134.843,-87.0066 L -134.649,-86.4094
 L -134.382,-85.8412 L -134.045,-85.3111 L -133.645,-84.8273 L -133.187,-84.3974 L -132.679,-84.0284 L -132.129,-83.7259
 L -131.545,-83.4947 L -130.937,-83.3386 L -130.314,-83.2599 L 130.314,-83.2599 z
M -127.613,-96.4536 L -127.837,-96.4819 L -128.056,-96.5381 L -128.266,-96.6213 L -128.464,-96.7302 L -128.647,-96.8631
 L -128.812,-97.0178 L -128.956,-97.192 L -129.077,-97.3828 L -129.174,-97.5874 L -129.243,-97.8024 L -129.286,-98.0244
 L -129.3,-98.25 L -129.286,-98.4756 L -129.243,-98.6976 L -129.174,-98.9126 L -129.077,-99.1171 L -128.956,-99.308
 L -128.812,-99.4822 L -128.647,-99.6369 L -128.464,-99.7698 L -128.266,-99.8787 L -128.056,-99.9619 L -127.837,-100.018
 L -127.613,-100.046 L -127.387,-100.046 L -127.163,-100.018 L -126.944,-99.9619 L -126.734,-99.8787 L -126.536,-99.7698
 L -126.353,-99.6369 L -126.188,-99.4822 L -126.044,-99.308 L -125.923,-99.1171 L -125.826,-98.9126 L -125.757,-98.6976
 L -125.714,-98.4756 L -125.7,-98.25 L -125.714,-98.0244 L -125.757,-97.8024 L -125.826,-97.5874 L -125.923,-97.3828
 L -126.044,-97.192 L -126.188,-97.0178 L -126.353,-96.8631 L -126.536,-96.7302 L -126.734,-96.6213 L -126.944,-96.5381
 L -127.163,-96.4819 L -127.387,-96.4536 z
M 127.387,-96.4536 L 127.163,-96.4819 L 126.944,-96.5381 L 126.734,-96.6213 L 126.536,-96.7302 L 126.353,-96.8631
 L 126.188,-97.0178 L 126.044,-97.192 L 125.923,-97.3828 L 125.826,-97.5874 L 125.757,-97.8024 L 125.714,-98.0244
 L 125.7,-98.25 L 125.714,-98.4756 L 125.757,-98.6976 L 125.826,-98.9126 L 125.923,-99.1171 L 126.044,-99.308
 L 126.188,-99.4822 L 126.353,-99.6369 L 126.536,-99.7698 L 126.734,-99.8787 L 126.944,-99.9619 L 127.163,-100.018
 L 127.387,-100.046 L 127.613,-100.046 L 127.837,-100.018 L 128.056,-99.9619 L 128.266,-99.8787 L 128.464,-99.7698
 L 128.647,-99.6369 L 128.812,-99.4822 L 128.956,-99.308 L 129.077,-99.1171 L 129.174,-98.9126 L 129.243,-98.6976
 L 129.286,-98.4756 L 129.3,-98.25 L 129.286,-98.0244 L 129.243,-97.8024 L 129.174,-97.5874 L 129.077,-97.3828
 L 128.956,-97.192 L 128.812,-97.0178 L 128.647,-96.8631 L 128.464,-96.7302 L 128.266,-96.6213 L 128.056,-96.5381
 L 127.837,-96.4819 L 127.613,-96.4536 z
M 127.387,-88.9536 L 127.163,-88.9819 L 126.944,-89.0381 L 126.734,-89.1213 L 126.536,-89.2302 L 126.353,-89.3631
 L 126.188,-89.5178 L 126.044,-89.692 L 125.923,-89.8829 L 125.826,-90.0874 L 125.757,-90.3024 L 125.714,-90.5244
 L 125.7,-90.75 L 125.714,-90.9756 L 125.757,-91.1976 L 125.826,-91.4126 L 125.923,-91.6172 L 126.044,-91.808
 L 126.188,-91.9822 L 126.353,-92.1369 L 126.536,-92.2698 L 126.734,-92.3787 L 126.944,-92.4619 L 127.163,-92.5181
 L 127.387,-92.5464 L 127.613,-92.5464 L 127.837,-92.5181 L 128.056,-92.4619 L 128.266,-92.3787 L 128.464,-92.2698
 L 128.647,-92.1369 L 128.812,-91.9822 L 128.956,-91.808 L 129.077,-91.6172 L 129.174,-91.4126 L 129.243,-91.1976
 L 129.286,-90.9756 L 129.3,-90.75 L 129.286,-90.5244 L 129.243,-90.3024 L 129.174,-90.0874 L 129.077,-89.8829
 L 128.956,-89.692 L 128.812,-89.5178 L 128.647,-89.3631 L 128.464,-89.2302 L 128.266,-89.1213 L 128.056,-89.0381
 L 127.837,-88.9819 L 127.613,-88.9536 z
M -127.613,-88.9536 L -127.837,-88.9819 L -128.056,-89.0381 L -128.266,-89.1213 L -128.464,-89.2302 L -128.647,-89.3631
 L -128.812,-89.5178 L -128.956,-89.692 L -129.077,-89.8829 L -129.174,-90.0874 L -129.243,-90.3024 L -129.286,-90.5244
 L -129.3,-90.75 L -129.286,-90.9756 L -129.243,-91.1976 L -129.174,-91.4126 L -129.077,-91.6172 L -128.956,-91.808
 L -128.812,-91.9822 L -128.647,-92.1369 L -128.464,-92.2698 L -128.266,-92.3787 L -128.056,-92.4619 L -127.837,-92.5181
 L -127.613,-92.5464 L -127.387,-92.5464 L -127.163,-92.5181 L -126.944,-92.4619 L -126.734,-92.3787 L -126.536,-92.2698
 L -126.353,-92.1369 L -126.188,-91.9822 L -126.044,-91.808 L -125.923,-91.6172 L -125.826,-91.4126 L -125.757,-91.1976
 L -125.714,-90.9756 L -125.7,-90.75 L -125.714,-90.5244 L -125.757,-90.3024 L -125.826,-90.0874 L -125.923,-89.8829
 L -126.044,-89.692 L -126.188,-89.5178 L -126.353,-89.3631 L -126.536,-89.2302 L -126.734,-89.1213 L -126.944,-89.0381
 L -127.163,-88.9819 L -127.387,-88.9536 z
" stroke="black" fill="lightgray" stroke-width="0.5"/>
</svg>
