<?xml version="1.0" standalone="no"?>
<!DOCTYPE svg PUBLIC "-//W3C//DTD SVG 1.1//EN" "http://www.w3.org/Graphics/SVG/1.1/DTD/svg11.dtd">
<svg width="257mm" height="694mm" viewBox="-129 -1049 257 694" xmlns="http://www.w3.org/2000/svg" version="1.1">
<title>OpenSCAD Model</title>
<path d="
M -126,-824.941 L -125.687,-824.647 L -125.179,-824.278 L -124.629,-823.976 L -124.045,-823.745 L -123.437,-823.589
 L -122.814,-823.51 L 122.814,-823.51 L 123.437,-823.589 L 124.045,-823.745 L 124.629,-823.976 L 125.179,-824.278
 L 125.687,-824.647 L 126.145,-825.077 L 126.545,-825.561 L 126.882,-826.091 L 127.149,-826.659 L 127.343,-827.257
 L 127.461,-827.873 L 127.5,-828.5 L 127.5,-1043.5 L 127.461,-1044.13 L 127.343,-1044.74 L 127.149,-1045.34
 L 126.882,-1045.91 L 126.545,-1046.44 L 126.145,-1046.92 L 125.687,-1047.35 L 125.179,-1047.72 L 124.629,-1048.02
 L 124.045,-1048.26 L 123.437,-1048.41 L 122.814,-1048.49 L -122.814,-1048.49 L -123.437,-1048.41 L -124.045,-1048.26
 L -124.629,-1048.02 L -125.179,-1047.72 L -125.687,-1047.35 L -126,-1047.06 L -126,-1048.49 L -129,-1048.49
 L -129,-823.51 L -126,-823.51 z
M -122.243,-825.135 L -122.726,-825.196 L -123.197,-825.317 L -123.649,-825.496 L -124.075,-825.73 L -124.469,-826.016
 L -124.823,-826.349 L -125.133,-826.724 L -125.394,-827.134 L -125.601,-827.574 L -125.751,-828.037 L -125.842,-828.515
 L -125.873,-829 L -125.873,-1043 L -125.842,-1043.49 L -125.751,-1043.96 L -125.601,-1044.43 L -125.394,-1044.87
 L -125.133,-1045.28 L -124.823,-1045.65 L -124.469,-1045.98 L -124.075,-1046.27 L -123.649,-1046.5 L -123.197,-1046.68
 L -122.726,-1046.8 L -122.243,-1046.86 L 122.243,-1046.86 L 122.726,-1046.8 L 123.197,-1046.68 L 123.649,-1046.5
 L 124.075,-1046.27 L 124.469,-1045.98 L 124.823,-1045.65 L 125.133,-1045.28 L 125.394,-1044.87 L 125.601,-1044.43
 L 125.751,-1043.96 L 125.842,-1043.49 L 125.873,-1043 L 125.873,-829 L 125.842,-828.515 L 125.751,-828.037
 L 125.601,-827.574 L 125.394,-827.134 L 125.133,-826.724 L 124.823,-826.349 L 124.469,-826.016 L 124.075,-825.73
 L 123.649,-825.496 L 123.197,-825.317 L 122.726,-825.196 L 122.243,-825.135 z
M 123.437,-589.589 L 124.045,-589.745 L 124.629,-589.976 L 125.179,-590.278 L 125.687,-590.647 L 126.145,-591.077
 L 126.545,-591.561 L 126.882,-592.091 L 127.149,-592.659 L 127.343,-593.257 L 127.461,-593.873 L 127.5,-594.5
 L 127.5,-809.5 L 127.461,-810.127 L 127.343,-810.743 L 127.149,-811.341 L 126.882,-811.909 L 126.545,-812.439
 L 126.145,-812.923 L 125.687,-813.353 L 125.179,-813.722 L 124.629,-814.024 L 124.045,-814.255 L 123.437,-814.411
 L 122.814,-814.49 L -122.814,-814.49 L -123.437,-814.411 L -124.045,-814.255 L -124.629,-814.024 L -125.179,-813.722
 L -125.687,-813.353 L -126,-813.059 L -126,-814.115 L -129,-814.115 L -129,-589.885 L -126,-589.885
 L -126,-590.941 L -125.687,-590.647 L -125.179,-590.278 L -124.629,-589.976 L -124.045,-589.745 L -123.437,-589.589
 L -122.814,-589.51 L 122.814,-589.51 z
M 119.849,-804.605 L 119.55,-804.643 L 119.258,-804.717 L 118.978,-804.828 L 118.714,-804.974 L 118.47,-805.151
 L 118.25,-805.357 L 118.058,-805.589 L 117.897,-805.844 L 117.769,-806.117 L 117.675,-806.403 L 117.619,-806.699
 L 117.6,-807 L 117.619,-807.301 L 117.675,-807.597 L 117.769,-807.883 L 117.897,-808.156 L 118.058,-808.411
 L 118.25,-808.643 L 118.47,-808.849 L 118.714,-809.026 L 118.978,-809.172 L 119.258,-809.283 L 119.55,-809.357
 L 119.849,-809.395 L 120.151,-809.395 L 120.45,-809.357 L 120.742,-809.283 L 121.022,-809.172 L 121.286,-809.026
 L 121.53,-808.849 L 121.75,-808.643 L 121.942,-808.411 L 122.103,-808.156 L 122.231,-807.883 L 122.325,-807.597
 L 122.381,-807.301 L 122.4,-807 L 122.381,-806.699 L 122.325,-806.403 L 122.231,-806.117 L 122.103,-805.844
 L 121.942,-805.589 L 121.75,-805.357 L 121.53,-805.151 L 121.286,-804.974 L 121.022,-804.828 L 120.742,-804.717
 L 120.45,-804.643 L 120.151,-804.605 z
M -120.151,-804.605 L -120.45,-804.643 L -120.742,-804.717 L -121.022,-804.828 L -121.286,-804.974 L -121.53,-805.151
 L -121.75,-805.357 L -121.942,-805.589 L -122.103,-805.844 L -122.231,-806.117 L -122.325,-806.403 L -122.381,-806.699
 L -122.4,-807 L -122.381,-807.301 L -122.325,-807.597 L -122.231,-807.883 L -122.103,-808.156 L -121.942,-808.411
 L -121.75,-808.643 L -121.53,-808.849 L -121.286,-809.026 L -121.022,-809.172 L -120.742,-809.283 L -120.45,-809.357
 L -120.151,-809.395 L -119.849,-809.395 L -119.55,-809.357 L -119.258,-809.283 L -118.978,-809.172 L -118.714,-809.026
 L -118.47,-808.849 L -118.25,-808.643 L -118.058,-808.411 L -117.897,-808.156 L -117.769,-807.883 L -117.675,-807.597
 L -117.619,-807.301 L -117.6,-807 L -117.619,-806.699 L -117.675,-806.403 L -117.769,-806.117 L -117.897,-805.844
 L -118.058,-805.589 L -118.25,-805.357 L -118.47,-805.151 L -118.714,-804.974 L -118.978,-804.828 L -119.258,-804.717
 L -119.55,-804.643 L -119.849,-804.605 z
M 119.849,-594.605 L 119.55,-594.643 L 119.258,-594.717 L 118.978,-594.828 L 118.714,-594.974 L 118.47,-595.151
 L 118.25,-595.357 L 118.058,-595.589 L 117.897,-595.844 L 117.769,-596.117 L 117.675,-596.403 L 117.619,-596.699
 L 117.6,-597 L 117.619,-597.301 L 117.675,-597.597 L 117.769,-597.883 L 117.897,-598.156 L 118.058,-598.411
 L 118.25,-598.643 L 118.47,-598.849 L 118.714,-599.026 L 118.978,-599.172 L 119.258,-599.283 L 119.55,-599.357
 L 119.849,-599.395 L 120.151,-599.395 L 120.45,-599.357 L 120.742,-599.283 L 121.022,-599.172 L 121.286,-599.026
 L 121.53,-598.849 L 121.75,-598.643 L 121.942,-598.411 L 122.103,-598.156 L 122.231,-597.883 L 122.325,-597.597
 L 122.381,-597.301 L 122.4,-597 L 122.381,-596.699 L 122.325,-596.403 L 122.231,-596.117 L 122.103,-595.844
 L 121.942,-595.589 L 121.75,-595.357 L 121.53,-595.151 L 121.286,-594.974 L 121.022,-594.828 L 120.742,-594.717
 L 120.45,-594.643 L 120.151,-594.605 z
M -120.151,-594.605 L -120.45,-594.643 L -120.742,-594.717 L -121.022,-594.828 L -121.286,-594.974 L -121.53,-595.151
 L -121.75,-595.357 L -121.942,-595.589 L -122.103,-595.844 L -122.231,-596.117 L -122.325,-596.403 L -122.381,-596.699
 L -122.4,-597 L -122.381,-597.301 L -122.325,-597.597 L -122.231,-597.883 L -122.103,-598.156 L -121.942,-598.411
 L -121.75,-598.643 L -121.53,-598.849 L -121.286,-599.026 L -121.022,-599.172 L -120.742,-599.283 L -120.45,-599.357
 L -120.151,-599.395 L -119.849,-599.395 L -119.55,-599.357 L -119.258,-599.283 L -118.978,-599.172 L -118.714,-599.026
 L -118.47,-598.849 L -118.25,-598.643 L -118.058,-598.411 L -117.897,-598.156 L -117.769,-597.883 L -117.675,-597.597
 L -117.619,-597.301 L -117.6,-597 L -117.619,-596.699 L -117.675,-596.403 L -117.769,-596.117 L -117.897,-595.844
 L -118.058,-595.589 L -118.25,-595.357 L -118.47,-595.151 L -118.714,-594.974 L -118.978,-594.828 L -119.258,-594.717
 L -119.55,-594.643 L -119.849,-594.605 z
M 123.437,-355.589 L 124.045,-355.745 L 124.629,-355.976 L 125.179,-356.278 L 125.687,-356.647 L 126.145,-357.077
 L 126.545,-357.561 L 126.882,-358.091 L 127.149,-358.659 L 127.343,-359.257 L 127.461,-359.873 L 127.5,-360.5
 L 127.5,-575.5 L 127.461,-576.127 L 127.343,-576.743 L 127.149,-577.341 L 126.882,-577.909 L 126.545,-578.439
 L 126.145,-578.923 L 125.687,-579.353 L 125.179,-579.722 L 124.629,-580.024 L 124.045,-580.255 L 123.437,-580.411
 L 122.814,-580.49 L -122.814,-580.49 L -123.437,-580.411 L -124.045,-580.255 L -124.629,-580.024 L -125.179,-579.722
 L -125.687,-579.353 L -126.145,-578.923 L -126.545,-578.439 L -126.882,-577.909 L -127.149,-577.341 L -127.343,-576.743
 L -127.4,-576.444 L -129,-576.444 L -129,-359.556 L -127.4,-359.556 L -127.343,-359.257 L -127.149,-358.659
 L -126.882,-358.091 L -126.545,-357.561 L -126.145,-357.077 L -125.687,-356.647 L -125.179,-356.278 L -124.629,-355.976
 L -124.045,-355.745 L -123.437,-355.589 L -122.814,-355.51 L 122.814,-355.51 z
M -120.113,-571.204 L -120.337,-571.232 L -120.556,-571.288 L -120.766,-571.371 L -120.964,-571.48 L -121.147,-571.613
 L -121.312,-571.768 L -121.456,-571.942 L -121.577,-572.133 L -121.674,-572.337 L -121.743,-572.552 L -121.786,-572.774
 L -121.8,-573 L -121.786,-573.226 L -121.743,-573.448 L -121.674,-573.663 L -121.577,-573.867 L -121.456,-574.058
 L -121.312,-574.232 L -121.147,-574.387 L -120.964,-574.52 L -120.766,-574.629 L -120.556,-574.712 L -120.337,-574.768
 L -120.113,-574.796 L -119.887,-574.796 L -119.663,-574.768 L -119.444,-574.712 L -119.234,-574.629 L -119.036,-574.52
 L -118.853,-574.387 L -118.688,-574.232 L -118.544,-574.058 L -118.423,-573.867 L -118.326,-573.663 L -118.257,-573.448
 L -118.214,-573.226 L -118.2,-573 L -118.214,-572.774 L -118.257,-572.552 L -118.326,-572.337 L -118.423,-572.133
 L -118.544,-571.942 L -118.688,-571.768 L -118.853,-571.613 L -119.036,-571.48 L -119.234,-571.371 L -119.444,-571.288
 L -119.663,-571.232 L -119.887,-571.204 z
M 119.887,-571.204 L 119.663,-571.232 L 119.444,-571.288 L 119.234,-571.371 L 119.036,-571.48 L 118.853,-571.613
 L 118.688,-571.768 L 118.544,-571.942 L 118.423,-572.133 L 118.326,-572.337 L 118.257,-572.552 L 118.214,-572.774
 L 118.2,-573 L 118.214,-573.226 L 118.257,-573.448 L 118.326,-573.663 L 118.423,-573.867 L 118.544,-574.058
 L 118.688,-574.232 L 118.853,-574.387 L 119.036,-574.52 L 119.234,-574.629 L 119.444,-574.712 L 119.663,-574.768
 L 119.887,-574.796 L 120.113,-574.796 L 120.337,-574.768 L 120.556,-574.712 L 120.766,-574.629 L 120.964,-574.52
 L 121.147,-574.387 L 121.312,-574.232 L 121.456,-574.058 L 121.577,-573.867 L 121.674,-573.663 L 121.743,-573.448
 L 121.786,-573.226 L 121.8,-573 L 121.786,-572.774 L 121.743,-572.552 L 121.674,-572.337 L 121.577,-572.133
 L 121.456,-571.942 L 121.312,-571.768 L 121.147,-571.613 L 120.964,-571.48 L 120.766,-571.371 L 120.556,-571.288
 L 120.337,-571.232 L 120.113,-571.204 z
M 119.887,-361.204 L 119.663,-361.232 L 119.444,-361.288 L 119.234,-361.371 L 119.036,-361.48 L 118.853,-361.613
 L 118.688,-361.768 L 118.544,-361.942 L 118.423,-362.133 L 118.326,-362.337 L 118.257,-362.552 L 118.214,-362.774
 L 118.2,-363 L 118.214,-363.226 L 118.257,-363.448 L 118.326,-363.663 L 118.423,-363.867 L 118.544,-364.058
 L 118.688,-364.232 L 118.853,-364.387 L 119.036,-364.52 L 119.234,-364.629 L 119.444,-364.712 L 119.663,-364.768
 L 119.887,-364.796 L 120.113,-364.796 L 120.337,-364.768 L 120.556,-364.712 L 120.766,-364.629 L 120.964,-364.52
 L 121.147,-364.387 L 121.312,-364.232 L 121.456,-364.058 L 121.577,-363.867 L 121.674,-363.663 L 121.743,-363.448
 L 121.786,-363.226 L 121.8,-363 L 121.786,-362.774 L 121.743,-362.552 L 121.674,-362.337 L 121.577,-362.133
 L 121.456,-361.942 L 121.312,-361.768 L 121.147,-361.613 L 120.964,-361.48 L 120.766,-361.371 L 120.556,-361.288
 L 120.337,-361.232 L 120.113,-361.204 z
M -120.113,-361.204 L -120.337,-361.232 L -120.556,-361.288 L -120.766,-361.371 L -120.964,-361.48 L -121.147,-361.613
 L -121.312,-361.768 L -121.456,-361.942 L -121.577,-362.133 L -121.674,-362.337 L -121.743,-362.552 L -121.786,-362.774
 L -121.8,-363 L -121.786,-363.226 L -121.743,-363.448 L -121.674,-363.663 L -121.577,-363.867 L -121.456,-364.058
 L -121.312,-364.232 L -121.147,-364.387 L -120.964,-364.52 L -120.766,-364.629 L -120.556,-364.712 L -120.337,-364.768
 L -120.113,-364.796 L -119.887,-364.796 L -119.663,-364.768 L -119.444,-364.712 L -119.234,-364.629 L -119.036,-364.52
 L -118.853,-364.387 L -118.688,-364.232 L -118.544,-364.058 L -118.423,-363.867 L -118.326,-363.663 L -118.257,-363.448
 L -118.214,-363.226 L -118.2,-363 L -118.214,-362.774 L -118.257,-362.552 L -118.326,-362.337 L -118.423,-362.133
 L -118.544,-361.942 L -118.688,-361.768 L -118.853,-361.613 L -119.036,-361.48 L -119.234,-361.371 L -119.444,-361.288
 L -119.663,-361.232 L -119.887,-361.204 z
" stroke="black" fill="lightgray" stroke-width="0.5"/>
</svg>
