  0
SECTION
  2
BLOCKS
  0
ENDSEC
  0
SECTION
  2
ENTITIES
  0
LINE
  8
0
 10
145.937
 20
83.3386
 11
146.545
 21
83.4947
  0
LINE
  8
0
 10
146.545
 20
83.4947
 11
147.129
 21
83.7259
  0
LINE
  8
0
 10
147.129
 20
83.7259
 11
147.679
 21
84.0284
  0
LINE
  8
0
 10
147.679
 20
84.0284
 11
148.187
 21
84.3974
  0
LINE
  8
0
 10
148.187
 20
84.3974
 11
148.645
 21
84.8273
  0
LINE
  8
0
 10
148.645
 20
84.8273
 11
149.045
 21
85.3111
  0
LINE
  8
0
 10
149.045
 20
85.3111
 11
149.382
 21
85.8412
  0
LINE
  8
0
 10
149.382
 20
85.8412
 11
149.649
 21
86.4094
  0
LINE
  8
0
 10
149.649
 20
86.4094
 11
149.843
 21
87.0066
  0
LINE
  8
0
 10
149.843
 20
87.0066
 11
149.961
 21
87.6233
  0
LINE
  8
0
 10
149.961
 20
87.6233
 11
150
 21
88.25
  0
LINE
  8
0
 10
150
 20
88.25
 11
150
 21
100.75
  0
LINE
  8
0
 10
150
 20
100.75
 11
149.961
 21
101.377
  0
LINE
  8
0
 10
149.961
 20
101.377
 11
149.843
 21
101.993
  0
LINE
  8
0
 10
149.843
 20
101.993
 11
149.649
 21
102.591
  0
LINE
  8
0
 10
149.649
 20
102.591
 11
149.382
 21
103.159
  0
LINE
  8
0
 10
149.382
 20
103.159
 11
149.045
 21
103.689
  0
LINE
  8
0
 10
149.045
 20
103.689
 11
148.645
 21
104.173
  0
LINE
  8
0
 10
148.645
 20
104.173
 11
148.187
 21
104.603
  0
LINE
  8
0
 10
148.187
 20
104.603
 11
147.679
 21
104.972
  0
LINE
  8
0
 10
147.679
 20
104.972
 11
147.129
 21
105.274
  0
LINE
  8
0
 10
147.129
 20
105.274
 11
146.545
 21
105.505
  0
LINE
  8
0
 10
146.545
 20
105.505
 11
145.937
 21
105.661
  0
LINE
  8
0
 10
145.937
 20
105.661
 11
145.314
 21
105.74
  0
LINE
  8
0
 10
145.314
 20
105.74
 11
-145.314
 21
105.74
  0
LINE
  8
0
 10
-145.314
 20
105.74
 11
-145.937
 21
105.661
  0
LINE
  8
0
 10
-145.937
 20
105.661
 11
-146.545
 21
105.505
  0
LINE
  8
0
 10
-146.545
 20
105.505
 11
-147.129
 21
105.274
  0
LINE
  8
0
 10
-147.129
 20
105.274
 11
-147.679
 21
104.972
  0
LINE
  8
0
 10
-147.679
 20
104.972
 11
-148.187
 21
104.603
  0
LINE
  8
0
 10
-148.187
 20
104.603
 11
-148.5
 21
104.309
  0
LINE
  8
0
 10
-148.5
 20
104.309
 11
-148.5
 21
105.729
  0
LINE
  8
0
 10
-148.5
 20
105.729
 11
-151.5
 21
105.729
  0
LINE
  8
0
 10
-151.5
 20
105.729
 11
-151.5
 21
83.2707
  0
LINE
  8
0
 10
-151.5
 20
83.2707
 11
-148.5
 21
83.2707
  0
LINE
  8
0
 10
-148.5
 20
83.2707
 11
-148.5
 21
84.6913
  0
LINE
  8
0
 10
-148.5
 20
84.6913
 11
-148.187
 21
84.3974
  0
LINE
  8
0
 10
-148.187
 20
84.3974
 11
-147.679
 21
84.0284
  0
LINE
  8
0
 10
-147.679
 20
84.0284
 11
-147.129
 21
83.7259
  0
LINE
  8
0
 10
-147.129
 20
83.7259
 11
-146.545
 21
83.4947
  0
LINE
  8
0
 10
-146.545
 20
83.4947
 11
-145.937
 21
83.3386
  0
LINE
  8
0
 10
-145.937
 20
83.3386
 11
-145.314
 21
83.2599
  0
LINE
  8
0
 10
-145.314
 20
83.2599
 11
145.314
 21
83.2599
  0
LINE
  8
0
 10
145.314
 20
83.2599
 11
145.937
 21
83.3386
  0
LINE
  8
0
 10
-144.695
 20
85.6432
 11
-145.083
 21
85.6922
  0
LINE
  8
0
 10
-145.083
 20
85.6922
 11
-145.462
 21
85.7894
  0
LINE
  8
0
 10
-145.462
 20
85.7894
 11
-145.825
 21
85.9333
  0
LINE
  8
0
 10
-145.825
 20
85.9333
 11
-146.168
 21
86.1217
  0
LINE
  8
0
 10
-146.168
 20
86.1217
 11
-146.484
 21
86.3515
  0
LINE
  8
0
 10
-146.484
 20
86.3515
 11
-146.769
 21
86.6191
  0
LINE
  8
0
 10
-146.769
 20
86.6191
 11
-147.018
 21
86.9203
  0
LINE
  8
0
 10
-147.018
 20
86.9203
 11
-147.228
 21
87.2504
  0
LINE
  8
0
 10
-147.228
 20
87.2504
 11
-147.394
 21
87.6041
  0
LINE
  8
0
 10
-147.394
 20
87.6041
 11
-147.515
 21
87.9759
  0
LINE
  8
0
 10
-147.515
 20
87.9759
 11
-147.588
 21
88.3598
  0
LINE
  8
0
 10
-147.588
 20
88.3598
 11
-147.613
 21
88.75
  0
LINE
  8
0
 10
-147.613
 20
88.75
 11
-147.613
 21
100.25
  0
LINE
  8
0
 10
-147.613
 20
100.25
 11
-147.588
 21
100.64
  0
LINE
  8
0
 10
-147.588
 20
100.64
 11
-147.515
 21
101.024
  0
LINE
  8
0
 10
-147.515
 20
101.024
 11
-147.394
 21
101.396
  0
LINE
  8
0
 10
-147.394
 20
101.396
 11
-147.228
 21
101.75
  0
LINE
  8
0
 10
-147.228
 20
101.75
 11
-147.018
 21
102.08
  0
LINE
  8
0
 10
-147.018
 20
102.08
 11
-146.769
 21
102.381
  0
LINE
  8
0
 10
-146.769
 20
102.381
 11
-146.484
 21
102.649
  0
LINE
  8
0
 10
-146.484
 20
102.649
 11
-146.168
 21
102.878
  0
LINE
  8
0
 10
-146.168
 20
102.878
 11
-145.825
 21
103.067
  0
LINE
  8
0
 10
-145.825
 20
103.067
 11
-145.462
 21
103.211
  0
LINE
  8
0
 10
-145.462
 20
103.211
 11
-145.083
 21
103.308
  0
LINE
  8
0
 10
-145.083
 20
103.308
 11
-144.695
 21
103.357
  0
LINE
  8
0
 10
-144.695
 20
103.357
 11
144.695
 21
103.357
  0
LINE
  8
0
 10
144.695
 20
103.357
 11
145.083
 21
103.308
  0
LINE
  8
0
 10
145.083
 20
103.308
 11
145.462
 21
103.211
  0
LINE
  8
0
 10
145.462
 20
103.211
 11
145.825
 21
103.067
  0
LINE
  8
0
 10
145.825
 20
103.067
 11
146.168
 21
102.878
  0
LINE
  8
0
 10
146.168
 20
102.878
 11
146.484
 21
102.649
  0
LINE
  8
0
 10
146.484
 20
102.649
 11
146.769
 21
102.381
  0
LINE
  8
0
 10
146.769
 20
102.381
 11
147.018
 21
102.08
  0
LINE
  8
0
 10
147.018
 20
102.08
 11
147.228
 21
101.75
  0
LINE
  8
0
 10
147.228
 20
101.75
 11
147.394
 21
101.396
  0
LINE
  8
0
 10
147.394
 20
101.396
 11
147.515
 21
101.024
  0
LINE
  8
0
 10
147.515
 20
101.024
 11
147.588
 21
100.64
  0
LINE
  8
0
 10
147.588
 20
100.64
 11
147.613
 21
100.25
  0
LINE
  8
0
 10
147.613
 20
100.25
 11
147.613
 21
88.75
  0
LINE
  8
0
 10
147.613
 20
88.75
 11
147.588
 21
88.3598
  0
LINE
  8
0
 10
147.588
 20
88.3598
 11
147.515
 21
87.9759
  0
LINE
  8
0
 10
147.515
 20
87.9759
 11
147.394
 21
87.6041
  0
LINE
  8
0
 10
147.394
 20
87.6041
 11
147.228
 21
87.2504
  0
LINE
  8
0
 10
147.228
 20
87.2504
 11
147.018
 21
86.9203
  0
LINE
  8
0
 10
147.018
 20
86.9203
 11
146.769
 21
86.6191
  0
LINE
  8
0
 10
146.769
 20
86.6191
 11
146.484
 21
86.3515
  0
LINE
  8
0
 10
146.484
 20
86.3515
 11
146.168
 21
86.1217
  0
LINE
  8
0
 10
146.168
 20
86.1217
 11
145.825
 21
85.9333
  0
LINE
  8
0
 10
145.825
 20
85.9333
 11
145.462
 21
85.7894
  0
LINE
  8
0
 10
145.462
 20
85.7894
 11
145.083
 21
85.6922
  0
LINE
  8
0
 10
145.083
 20
85.6922
 11
144.695
 21
85.6432
  0
LINE
  8
0
 10
144.695
 20
85.6432
 11
-144.695
 21
85.6432
  0
LINE
  8
0
 10
145.937
 20
51.8386
 11
146.545
 21
51.9947
  0
LINE
  8
0
 10
146.545
 20
51.9947
 11
147.129
 21
52.2259
  0
LINE
  8
0
 10
147.129
 20
52.2259
 11
147.679
 21
52.5284
  0
LINE
  8
0
 10
147.679
 20
52.5284
 11
148.187
 21
52.8974
  0
LINE
  8
0
 10
148.187
 20
52.8974
 11
148.645
 21
53.3273
  0
LINE
  8
0
 10
148.645
 20
53.3273
 11
149.045
 21
53.8111
  0
LINE
  8
0
 10
149.045
 20
53.8111
 11
149.382
 21
54.3412
  0
LINE
  8
0
 10
149.382
 20
54.3412
 11
149.649
 21
54.9094
  0
LINE
  8
0
 10
149.649
 20
54.9094
 11
149.843
 21
55.5066
  0
LINE
  8
0
 10
149.843
 20
55.5066
 11
149.961
 21
56.1233
  0
LINE
  8
0
 10
149.961
 20
56.1233
 11
150
 21
56.75
  0
LINE
  8
0
 10
150
 20
56.75
 11
150
 21
69.25
  0
LINE
  8
0
 10
150
 20
69.25
 11
149.961
 21
69.8767
  0
LINE
  8
0
 10
149.961
 20
69.8767
 11
149.843
 21
70.4934
  0
LINE
  8
0
 10
149.843
 20
70.4934
 11
149.649
 21
71.0906
  0
LINE
  8
0
 10
149.649
 20
71.0906
 11
149.382
 21
71.6588
  0
LINE
  8
0
 10
149.382
 20
71.6588
 11
149.045
 21
72.1889
  0
LINE
  8
0
 10
149.045
 20
72.1889
 11
148.645
 21
72.6727
  0
LINE
  8
0
 10
148.645
 20
72.6727
 11
148.187
 21
73.1026
  0
LINE
  8
0
 10
148.187
 20
73.1026
 11
147.679
 21
73.4716
  0
LINE
  8
0
 10
147.679
 20
73.4716
 11
147.129
 21
73.7741
  0
LINE
  8
0
 10
147.129
 20
73.7741
 11
146.545
 21
74.0053
  0
LINE
  8
0
 10
146.545
 20
74.0053
 11
145.937
 21
74.1614
  0
LINE
  8
0
 10
145.937
 20
74.1614
 11
145.314
 21
74.2401
  0
LINE
  8
0
 10
145.314
 20
74.2401
 11
-145.314
 21
74.2401
  0
LINE
  8
0
 10
-145.314
 20
74.2401
 11
-145.937
 21
74.1614
  0
LINE
  8
0
 10
-145.937
 20
74.1614
 11
-146.545
 21
74.0053
  0
LINE
  8
0
 10
-146.545
 20
74.0053
 11
-147.129
 21
73.7741
  0
LINE
  8
0
 10
-147.129
 20
73.7741
 11
-147.679
 21
73.4716
  0
LINE
  8
0
 10
-147.679
 20
73.4716
 11
-148.187
 21
73.1026
  0
LINE
  8
0
 10
-148.187
 20
73.1026
 11
-148.5
 21
72.8087
  0
LINE
  8
0
 10
-148.5
 20
72.8087
 11
-148.5
 21
72.9026
  0
LINE
  8
0
 10
-148.5
 20
72.9026
 11
-151.5
 21
72.9026
  0
LINE
  8
0
 10
-151.5
 20
72.9026
 11
-151.5
 21
53.0974
  0
LINE
  8
0
 10
-151.5
 20
53.0974
 11
-148.5
 21
53.0974
  0
LINE
  8
0
 10
-148.5
 20
53.0974
 11
-148.5
 21
53.1913
  0
LINE
  8
0
 10
-148.5
 20
53.1913
 11
-148.187
 21
52.8974
  0
LINE
  8
0
 10
-148.187
 20
52.8974
 11
-147.679
 21
52.5284
  0
LINE
  8
0
 10
-147.679
 20
52.5284
 11
-147.129
 21
52.2259
  0
LINE
  8
0
 10
-147.129
 20
52.2259
 11
-146.545
 21
51.9947
  0
LINE
  8
0
 10
-146.545
 20
51.9947
 11
-145.937
 21
51.8386
  0
LINE
  8
0
 10
-145.937
 20
51.8386
 11
-145.314
 21
51.7599
  0
LINE
  8
0
 10
-145.314
 20
51.7599
 11
145.314
 21
51.7599
  0
LINE
  8
0
 10
145.314
 20
51.7599
 11
145.937
 21
51.8386
  0
LINE
  8
0
 10
142.366
 20
64.6189
 11
142.1
 21
64.6525
  0
LINE
  8
0
 10
142.1
 20
64.6525
 11
141.84
 21
64.7192
  0
LINE
  8
0
 10
141.84
 20
64.7192
 11
141.591
 21
64.8179
  0
LINE
  8
0
 10
141.591
 20
64.8179
 11
141.356
 21
64.9471
  0
LINE
  8
0
 10
141.356
 20
64.9471
 11
141.139
 21
65.1047
  0
LINE
  8
0
 10
141.139
 20
65.1047
 11
140.943
 21
65.2883
  0
LINE
  8
0
 10
140.943
 20
65.2883
 11
140.773
 21
65.4949
  0
LINE
  8
0
 10
140.773
 20
65.4949
 11
140.629
 21
65.7213
  0
LINE
  8
0
 10
140.629
 20
65.7213
 11
140.515
 21
65.9639
  0
LINE
  8
0
 10
140.515
 20
65.9639
 11
140.432
 21
66.219
  0
LINE
  8
0
 10
140.432
 20
66.219
 11
140.382
 21
66.4824
  0
LINE
  8
0
 10
140.382
 20
66.4824
 11
140.365
 21
66.75
  0
LINE
  8
0
 10
140.365
 20
66.75
 11
140.382
 21
67.0176
  0
LINE
  8
0
 10
140.382
 20
67.0176
 11
140.432
 21
67.281
  0
LINE
  8
0
 10
140.432
 20
67.281
 11
140.515
 21
67.536
  0
LINE
  8
0
 10
140.515
 20
67.536
 11
140.629
 21
67.7787
  0
LINE
  8
0
 10
140.629
 20
67.7787
 11
140.773
 21
68.0051
  0
LINE
  8
0
 10
140.773
 20
68.0051
 11
140.943
 21
68.2117
  0
LINE
  8
0
 10
140.943
 20
68.2117
 11
141.139
 21
68.3953
  0
LINE
  8
0
 10
141.139
 20
68.3953
 11
141.356
 21
68.5529
  0
LINE
  8
0
 10
141.356
 20
68.5529
 11
141.591
 21
68.6821
  0
LINE
  8
0
 10
141.591
 20
68.6821
 11
141.84
 21
68.7808
  0
LINE
  8
0
 10
141.84
 20
68.7808
 11
142.1
 21
68.8475
  0
LINE
  8
0
 10
142.1
 20
68.8475
 11
142.366
 21
68.8811
  0
LINE
  8
0
 10
142.366
 20
68.8811
 11
142.634
 21
68.8811
  0
LINE
  8
0
 10
142.634
 20
68.8811
 11
142.9
 21
68.8475
  0
LINE
  8
0
 10
142.9
 20
68.8475
 11
143.16
 21
68.7808
  0
LINE
  8
0
 10
143.16
 20
68.7808
 11
143.409
 21
68.6821
  0
LINE
  8
0
 10
143.409
 20
68.6821
 11
143.644
 21
68.5529
  0
LINE
  8
0
 10
143.644
 20
68.5529
 11
143.861
 21
68.3953
  0
LINE
  8
0
 10
143.861
 20
68.3953
 11
144.057
 21
68.2117
  0
LINE
  8
0
 10
144.057
 20
68.2117
 11
144.227
 21
68.0051
  0
LINE
  8
0
 10
144.227
 20
68.0051
 11
144.371
 21
67.7787
  0
LINE
  8
0
 10
144.371
 20
67.7787
 11
144.485
 21
67.536
  0
LINE
  8
0
 10
144.485
 20
67.536
 11
144.568
 21
67.281
  0
LINE
  8
0
 10
144.568
 20
67.281
 11
144.618
 21
67.0176
  0
LINE
  8
0
 10
144.618
 20
67.0176
 11
144.635
 21
66.75
  0
LINE
  8
0
 10
144.635
 20
66.75
 11
144.618
 21
66.4824
  0
LINE
  8
0
 10
144.618
 20
66.4824
 11
144.568
 21
66.219
  0
LINE
  8
0
 10
144.568
 20
66.219
 11
144.485
 21
65.9639
  0
LINE
  8
0
 10
144.485
 20
65.9639
 11
144.371
 21
65.7213
  0
LINE
  8
0
 10
144.371
 20
65.7213
 11
144.227
 21
65.4949
  0
LINE
  8
0
 10
144.227
 20
65.4949
 11
144.057
 21
65.2883
  0
LINE
  8
0
 10
144.057
 20
65.2883
 11
143.861
 21
65.1047
  0
LINE
  8
0
 10
143.861
 20
65.1047
 11
143.644
 21
64.9471
  0
LINE
  8
0
 10
143.644
 20
64.9471
 11
143.409
 21
64.8179
  0
LINE
  8
0
 10
143.409
 20
64.8179
 11
143.16
 21
64.7192
  0
LINE
  8
0
 10
143.16
 20
64.7192
 11
142.9
 21
64.6525
  0
LINE
  8
0
 10
142.9
 20
64.6525
 11
142.634
 21
64.6189
  0
LINE
  8
0
 10
142.634
 20
64.6189
 11
142.366
 21
64.6189
  0
LINE
  8
0
 10
-142.634
 20
64.6189
 11
-142.9
 21
64.6525
  0
LINE
  8
0
 10
-142.9
 20
64.6525
 11
-143.16
 21
64.7192
  0
LINE
  8
0
 10
-143.16
 20
64.7192
 11
-143.409
 21
64.8179
  0
LINE
  8
0
 10
-143.409
 20
64.8179
 11
-143.644
 21
64.9471
  0
LINE
  8
0
 10
-143.644
 20
64.9471
 11
-143.861
 21
65.1047
  0
LINE
  8
0
 10
-143.861
 20
65.1047
 11
-144.057
 21
65.2883
  0
LINE
  8
0
 10
-144.057
 20
65.2883
 11
-144.227
 21
65.4949
  0
LINE
  8
0
 10
-144.227
 20
65.4949
 11
-144.371
 21
65.7213
  0
LINE
  8
0
 10
-144.371
 20
65.7213
 11
-144.485
 21
65.9639
  0
LINE
  8
0
 10
-144.485
 20
65.9639
 11
-144.568
 21
66.219
  0
LINE
  8
0
 10
-144.568
 20
66.219
 11
-144.618
 21
66.4824
  0
LINE
  8
0
 10
-144.618
 20
66.4824
 11
-144.635
 21
66.75
  0
LINE
  8
0
 10
-144.635
 20
66.75
 11
-144.618
 21
67.0176
  0
LINE
  8
0
 10
-144.618
 20
67.0176
 11
-144.568
 21
67.281
  0
LINE
  8
0
 10
-144.568
 20
67.281
 11
-144.485
 21
67.536
  0
LINE
  8
0
 10
-144.485
 20
67.536
 11
-144.371
 21
67.7787
  0
LINE
  8
0
 10
-144.371
 20
67.7787
 11
-144.227
 21
68.0051
  0
LINE
  8
0
 10
-144.227
 20
68.0051
 11
-144.057
 21
68.2117
  0
LINE
  8
0
 10
-144.057
 20
68.2117
 11
-143.861
 21
68.3953
  0
LINE
  8
0
 10
-143.861
 20
68.3953
 11
-143.644
 21
68.5529
  0
LINE
  8
0
 10
-143.644
 20
68.5529
 11
-143.409
 21
68.6821
  0
LINE
  8
0
 10
-143.409
 20
68.6821
 11
-143.16
 21
68.7808
  0
LINE
  8
0
 10
-143.16
 20
68.7808
 11
-142.9
 21
68.8475
  0
LINE
  8
0
 10
-142.9
 20
68.8475
 11
-142.634
 21
68.8811
  0
LINE
  8
0
 10
-142.634
 20
68.8811
 11
-142.366
 21
68.8811
  0
LINE
  8
0
 10
-142.366
 20
68.8811
 11
-142.1
 21
68.8475
  0
LINE
  8
0
 10
-142.1
 20
68.8475
 11
-141.84
 21
68.7808
  0
LINE
  8
0
 10
-141.84
 20
68.7808
 11
-141.591
 21
68.6821
  0
LINE
  8
0
 10
-141.591
 20
68.6821
 11
-141.356
 21
68.5529
  0
LINE
  8
0
 10
-141.356
 20
68.5529
 11
-141.139
 21
68.3953
  0
LINE
  8
0
 10
-141.139
 20
68.3953
 11
-140.943
 21
68.2117
  0
LINE
  8
0
 10
-140.943
 20
68.2117
 11
-140.773
 21
68.0051
  0
LINE
  8
0
 10
-140.773
 20
68.0051
 11
-140.629
 21
67.7787
  0
LINE
  8
0
 10
-140.629
 20
67.7787
 11
-140.515
 21
67.536
  0
LINE
  8
0
 10
-140.515
 20
67.536
 11
-140.432
 21
67.281
  0
LINE
  8
0
 10
-140.432
 20
67.281
 11
-140.382
 21
67.0176
  0
LINE
  8
0
 10
-140.382
 20
67.0176
 11
-140.365
 21
66.75
  0
LINE
  8
0
 10
-140.365
 20
66.75
 11
-140.382
 21
66.4824
  0
LINE
  8
0
 10
-140.382
 20
66.4824
 11
-140.432
 21
66.219
  0
LINE
  8
0
 10
-140.432
 20
66.219
 11
-140.515
 21
65.9639
  0
LINE
  8
0
 10
-140.515
 20
65.9639
 11
-140.629
 21
65.7213
  0
LINE
  8
0
 10
-140.629
 20
65.7213
 11
-140.773
 21
65.4949
  0
LINE
  8
0
 10
-140.773
 20
65.4949
 11
-140.943
 21
65.2883
  0
LINE
  8
0
 10
-140.943
 20
65.2883
 11
-141.139
 21
65.1047
  0
LINE
  8
0
 10
-141.139
 20
65.1047
 11
-141.356
 21
64.9471
  0
LINE
  8
0
 10
-141.356
 20
64.9471
 11
-141.591
 21
64.8179
  0
LINE
  8
0
 10
-141.591
 20
64.8179
 11
-141.84
 21
64.7192
  0
LINE
  8
0
 10
-141.84
 20
64.7192
 11
-142.1
 21
64.6525
  0
LINE
  8
0
 10
-142.1
 20
64.6525
 11
-142.366
 21
64.6189
  0
LINE
  8
0
 10
-142.366
 20
64.6189
 11
-142.634
 21
64.6189
  0
LINE
  8
0
 10
142.366
 20
57.1189
 11
142.1
 21
57.1525
  0
LINE
  8
0
 10
142.1
 20
57.1525
 11
141.84
 21
57.2192
  0
LINE
  8
0
 10
141.84
 20
57.2192
 11
141.591
 21
57.3179
  0
LINE
  8
0
 10
141.591
 20
57.3179
 11
141.356
 21
57.4471
  0
LINE
  8
0
 10
141.356
 20
57.4471
 11
141.139
 21
57.6047
  0
LINE
  8
0
 10
141.139
 20
57.6047
 11
140.943
 21
57.7883
  0
LINE
  8
0
 10
140.943
 20
57.7883
 11
140.773
 21
57.9949
  0
LINE
  8
0
 10
140.773
 20
57.9949
 11
140.629
 21
58.2213
  0
LINE
  8
0
 10
140.629
 20
58.2213
 11
140.515
 21
58.464
  0
LINE
  8
0
 10
140.515
 20
58.464
 11
140.432
 21
58.719
  0
LINE
  8
0
 10
140.432
 20
58.719
 11
140.382
 21
58.9824
  0
LINE
  8
0
 10
140.382
 20
58.9824
 11
140.365
 21
59.25
  0
LINE
  8
0
 10
140.365
 20
59.25
 11
140.382
 21
59.5176
  0
LINE
  8
0
 10
140.382
 20
59.5176
 11
140.432
 21
59.781
  0
LINE
  8
0
 10
140.432
 20
59.781
 11
140.515
 21
60.0361
  0
LINE
  8
0
 10
140.515
 20
60.0361
 11
140.629
 21
60.2787
  0
LINE
  8
0
 10
140.629
 20
60.2787
 11
140.773
 21
60.5051
  0
LINE
  8
0
 10
140.773
 20
60.5051
 11
140.943
 21
60.7117
  0
LINE
  8
0
 10
140.943
 20
60.7117
 11
141.139
 21
60.8953
  0
LINE
  8
0
 10
141.139
 20
60.8953
 11
141.356
 21
61.0529
  0
LINE
  8
0
 10
141.356
 20
61.0529
 11
141.591
 21
61.1821
  0
LINE
  8
0
 10
141.591
 20
61.1821
 11
141.84
 21
61.2808
  0
LINE
  8
0
 10
141.84
 20
61.2808
 11
142.1
 21
61.3475
  0
LINE
  8
0
 10
142.1
 20
61.3475
 11
142.366
 21
61.3811
  0
LINE
  8
0
 10
142.366
 20
61.3811
 11
142.634
 21
61.3811
  0
LINE
  8
0
 10
142.634
 20
61.3811
 11
142.9
 21
61.3475
  0
LINE
  8
0
 10
142.9
 20
61.3475
 11
143.16
 21
61.2808
  0
LINE
  8
0
 10
143.16
 20
61.2808
 11
143.409
 21
61.1821
  0
LINE
  8
0
 10
143.409
 20
61.1821
 11
143.644
 21
61.0529
  0
LINE
  8
0
 10
143.644
 20
61.0529
 11
143.861
 21
60.8953
  0
LINE
  8
0
 10
143.861
 20
60.8953
 11
144.057
 21
60.7117
  0
LINE
  8
0
 10
144.057
 20
60.7117
 11
144.227
 21
60.5051
  0
LINE
  8
0
 10
144.227
 20
60.5051
 11
144.371
 21
60.2787
  0
LINE
  8
0
 10
144.371
 20
60.2787
 11
144.485
 21
60.0361
  0
LINE
  8
0
 10
144.485
 20
60.0361
 11
144.568
 21
59.781
  0
LINE
  8
0
 10
144.568
 20
59.781
 11
144.618
 21
59.5176
  0
LINE
  8
0
 10
144.618
 20
59.5176
 11
144.635
 21
59.25
  0
LINE
  8
0
 10
144.635
 20
59.25
 11
144.618
 21
58.9824
  0
LINE
  8
0
 10
144.618
 20
58.9824
 11
144.568
 21
58.719
  0
LINE
  8
0
 10
144.568
 20
58.719
 11
144.485
 21
58.464
  0
LINE
  8
0
 10
144.485
 20
58.464
 11
144.371
 21
58.2213
  0
LINE
  8
0
 10
144.371
 20
58.2213
 11
144.227
 21
57.9949
  0
LINE
  8
0
 10
144.227
 20
57.9949
 11
144.057
 21
57.7883
  0
LINE
  8
0
 10
144.057
 20
57.7883
 11
143.861
 21
57.6047
  0
LINE
  8
0
 10
143.861
 20
57.6047
 11
143.644
 21
57.4471
  0
LINE
  8
0
 10
143.644
 20
57.4471
 11
143.409
 21
57.3179
  0
LINE
  8
0
 10
143.409
 20
57.3179
 11
143.16
 21
57.2192
  0
LINE
  8
0
 10
143.16
 20
57.2192
 11
142.9
 21
57.1525
  0
LINE
  8
0
 10
142.9
 20
57.1525
 11
142.634
 21
57.1189
  0
LINE
  8
0
 10
142.634
 20
57.1189
 11
142.366
 21
57.1189
  0
LINE
  8
0
 10
-142.634
 20
57.1189
 11
-142.9
 21
57.1525
  0
LINE
  8
0
 10
-142.9
 20
57.1525
 11
-143.16
 21
57.2192
  0
LINE
  8
0
 10
-143.16
 20
57.2192
 11
-143.409
 21
57.3179
  0
LINE
  8
0
 10
-143.409
 20
57.3179
 11
-143.644
 21
57.4471
  0
LINE
  8
0
 10
-143.644
 20
57.4471
 11
-143.861
 21
57.6047
  0
LINE
  8
0
 10
-143.861
 20
57.6047
 11
-144.057
 21
57.7883
  0
LINE
  8
0
 10
-144.057
 20
57.7883
 11
-144.227
 21
57.9949
  0
LINE
  8
0
 10
-144.227
 20
57.9949
 11
-144.371
 21
58.2213
  0
LINE
  8
0
 10
-144.371
 20
58.2213
 11
-144.485
 21
58.464
  0
LINE
  8
0
 10
-144.485
 20
58.464
 11
-144.568
 21
58.719
  0
LINE
  8
0
 10
-144.568
 20
58.719
 11
-144.618
 21
58.9824
  0
LINE
  8
0
 10
-144.618
 20
58.9824
 11
-144.635
 21
59.25
  0
LINE
  8
0
 10
-144.635
 20
59.25
 11
-144.618
 21
59.5176
  0
LINE
  8
0
 10
-144.618
 20
59.5176
 11
-144.568
 21
59.781
  0
LINE
  8
0
 10
-144.568
 20
59.781
 11
-144.485
 21
60.0361
  0
LINE
  8
0
 10
-144.485
 20
60.0361
 11
-144.371
 21
60.2787
  0
LINE
  8
0
 10
-144.371
 20
60.2787
 11
-144.227
 21
60.5051
  0
LINE
  8
0
 10
-144.227
 20
60.5051
 11
-144.057
 21
60.7117
  0
LINE
  8
0
 10
-144.057
 20
60.7117
 11
-143.861
 21
60.8953
  0
LINE
  8
0
 10
-143.861
 20
60.8953
 11
-143.644
 21
61.0529
  0
LINE
  8
0
 10
-143.644
 20
61.0529
 11
-143.409
 21
61.1821
  0
LINE
  8
0
 10
-143.409
 20
61.1821
 11
-143.16
 21
61.2808
  0
LINE
  8
0
 10
-143.16
 20
61.2808
 11
-142.9
 21
61.3475
  0
LINE
  8
0
 10
-142.9
 20
61.3475
 11
-142.634
 21
61.3811
  0
LINE
  8
0
 10
-142.634
 20
61.3811
 11
-142.366
 21
61.3811
  0
LINE
  8
0
 10
-142.366
 20
61.3811
 11
-142.1
 21
61.3475
  0
LINE
  8
0
 10
-142.1
 20
61.3475
 11
-141.84
 21
61.2808
  0
LINE
  8
0
 10
-141.84
 20
61.2808
 11
-141.591
 21
61.1821
  0
LINE
  8
0
 10
-141.591
 20
61.1821
 11
-141.356
 21
61.0529
  0
LINE
  8
0
 10
-141.356
 20
61.0529
 11
-141.139
 21
60.8953
  0
LINE
  8
0
 10
-141.139
 20
60.8953
 11
-140.943
 21
60.7117
  0
LINE
  8
0
 10
-140.943
 20
60.7117
 11
-140.773
 21
60.5051
  0
LINE
  8
0
 10
-140.773
 20
60.5051
 11
-140.629
 21
60.2787
  0
LINE
  8
0
 10
-140.629
 20
60.2787
 11
-140.515
 21
60.0361
  0
LINE
  8
0
 10
-140.515
 20
60.0361
 11
-140.432
 21
59.781
  0
LINE
  8
0
 10
-140.432
 20
59.781
 11
-140.382
 21
59.5176
  0
LINE
  8
0
 10
-140.382
 20
59.5176
 11
-140.365
 21
59.25
  0
LINE
  8
0
 10
-140.365
 20
59.25
 11
-140.382
 21
58.9824
  0
LINE
  8
0
 10
-140.382
 20
58.9824
 11
-140.432
 21
58.719
  0
LINE
  8
0
 10
-140.432
 20
58.719
 11
-140.515
 21
58.464
  0
LINE
  8
0
 10
-140.515
 20
58.464
 11
-140.629
 21
58.2213
  0
LINE
  8
0
 10
-140.629
 20
58.2213
 11
-140.773
 21
57.9949
  0
LINE
  8
0
 10
-140.773
 20
57.9949
 11
-140.943
 21
57.7883
  0
LINE
  8
0
 10
-140.943
 20
57.7883
 11
-141.139
 21
57.6047
  0
LINE
  8
0
 10
-141.139
 20
57.6047
 11
-141.356
 21
57.4471
  0
LINE
  8
0
 10
-141.356
 20
57.4471
 11
-141.591
 21
57.3179
  0
LINE
  8
0
 10
-141.591
 20
57.3179
 11
-141.84
 21
57.2192
  0
LINE
  8
0
 10
-141.84
 20
57.2192
 11
-142.1
 21
57.1525
  0
LINE
  8
0
 10
-142.1
 20
57.1525
 11
-142.366
 21
57.1189
  0
LINE
  8
0
 10
-142.366
 20
57.1189
 11
-142.634
 21
57.1189
  0
ENDSEC
  0
SECTION
  2
OBJECTS
  0
DICTIONARY
  0
ENDSEC
  0
EOF
