<?xml version="1.0" standalone="no"?>
<!DOCTYPE svg PUBLIC "-//W3C//DTD SVG 1.1//EN" "http://www.w3.org/Graphics/SVG/1.1/DTD/svg11.dtd">
<svg width="302mm" height="55mm" viewBox="-152 -106 302 55" xmlns="http://www.w3.org/2000/svg" version="1.1">
<title>OpenSCAD Model</title>
<path d="
M 145.937,-83.3386 L 146.545,-83.4947 L 147.129,-83.7259 L 147.679,-84.0284 L 148.187,-84.3974 L 148.645,-84.8273
 L 149.045,-85.3111 L 149.382,-85.8412 L 149.649,-86.4094 L 149.843,-87.0066 L 149.961,-87.6233 L 150,-88.25
 L 150,-100.75 L 149.961,-101.377 L 149.843,-101.993 L 149.649,-102.591 L 149.382,-103.159 L 149.045,-103.689
 L 148.645,-104.173 L 148.187,-104.603 L 147.679,-104.972 L 147.129,-105.274 L 146.545,-105.505 L 145.937,-105.661
 L 145.314,-105.74 L -145.314,-105.74 L -145.937,-105.661 L -146.545,-105.505 L -147.129,-105.274 L -147.679,-104.972
 L -148.187,-104.603 L -148.5,-104.309 L -148.5,-105.729 L -151.5,-105.729 L -151.5,-83.2707 L -148.5,-83.2707
 L -148.5,-84.6913 L -148.187,-84.3974 L -147.679,-84.0284 L -147.129,-83.7259 L -146.545,-83.4947 L -145.937,-83.3386
 L -145.314,-83.2599 L 145.314,-83.2599 z
M -144.695,-85.6432 L -145.083,-85.6922 L -145.462,-85.7894 L -145.825,-85.9333 L -146.168,-86.1217 L -146.484,-86.3515
 L -146.769,-86.6191 L -147.018,-86.9203 L -147.228,-87.2504 L -147.394,-87.6041 L -147.515,-87.9759 L -147.588,-88.3598
 L -147.613,-88.75 L -147.613,-100.25 L -147.588,-100.64 L -147.515,-101.024 L -147.394,-101.396 L -147.228,-101.75
 L -147.018,-102.08 L -146.769,-102.381 L -146.484,-102.649 L -146.168,-102.878 L -145.825,-103.067 L -145.462,-103.211
 L -145.083,-103.308 L -144.695,-103.357 L 144.695,-103.357 L 145.083,-103.308 L 145.462,-103.211 L 145.825,-103.067
 L 146.168,-102.878 L 146.484,-102.649 L 146.769,-102.381 L 147.018,-102.08 L 147.228,-101.75 L 147.394,-101.396
 L 147.515,-101.024 L 147.588,-100.64 L 147.613,-100.25 L 147.613,-88.75 L 147.588,-88.3598 L 147.515,-87.9759
 L 147.394,-87.6041 L 147.228,-87.2504 L 147.018,-86.9203 L 146.769,-86.6191 L 146.484,-86.3515 L 146.168,-86.1217
 L 145.825,-85.9333 L 145.462,-85.7894 L 145.083,-85.6922 L 144.695,-85.6432 z
M 145.937,-51.8386 L 146.545,-51.9947 L 147.129,-52.2259 L 147.679,-52.5284 L 148.187,-52.8974 L 148.645,-53.3273
 L 149.045,-53.8111 L 149.382,-54.3412 L 149.649,-54.9094 L 149.843,-55.5066 L 149.961,-56.1233 L 150,-56.75
 L 150,-69.25 L 149.961,-69.8767 L 149.843,-70.4934 L 149.649,-71.0906 L 149.382,-71.6588 L 149.045,-72.1889
 L 148.645,-72.6727 L 148.187,-73.1026 L 147.679,-73.4716 L 147.129,-73.7741 L 146.545,-74.0053 L 145.937,-74.1614
 L 145.314,-74.2401 L -145.314,-74.2401 L -145.937,-74.1614 L -146.545,-74.0053 L -147.129,-73.7741 L -147.679,-73.4716
 L -148.187,-73.1026 L -148.5,-72.8087 L -148.5,-72.9026 L -151.5,-72.9026 L -151.5,-53.0974 L -148.5,-53.0974
 L -148.5,-53.1913 L -148.187,-52.8974 L -147.679,-52.5284 L -147.129,-52.2259 L -146.545,-51.9947 L -145.937,-51.8386
 L -145.314,-51.7599 L 145.314,-51.7599 z
M 142.366,-64.6189 L 142.1,-64.6525 L 141.84,-64.7192 L 141.591,-64.8179 L 141.356,-64.9471 L 141.139,-65.1047
 L 140.943,-65.2883 L 140.773,-65.4949 L 140.629,-65.7213 L 140.515,-65.9639 L 140.432,-66.219 L 140.382,-66.4824
 L 140.365,-66.75 L 140.382,-67.0176 L 140.432,-67.281 L 140.515,-67.536 L 140.629,-67.7787 L 140.773,-68.0051
 L 140.943,-68.2117 L 141.139,-68.3953 L 141.356,-68.5529 L 141.591,-68.6821 L 141.84,-68.7808 L 142.1,-68.8475
 L 142.366,-68.8811 L 142.634,-68.8811 L 142.9,-68.8475 L 143.16,-68.7808 L 143.409,-68.6821 L 143.644,-68.5529
 L 143.861,-68.3953 L 144.057,-68.2117 L 144.227,-68.0051 L 144.371,-67.7787 L 144.485,-67.536 L 144.568,-67.281
 L 144.618,-67.0176 L 144.635,-66.75 L 144.618,-66.4824 L 144.568,-66.219 L 144.485,-65.9639 L 144.371,-65.7213
 L 144.227,-65.4949 L 144.057,-65.2883 L 143.861,-65.1047 L 143.644,-64.9471 L 143.409,-64.8179 L 143.16,-64.7192
 L 142.9,-64.6525 L 142.634,-64.6189 z
M -142.634,-64.6189 L -142.9,-64.6525 L -143.16,-64.7192 L -143.409,-64.8179 L -143.644,-64.9471 L -143.861,-65.1047
 L -144.057,-65.2883 L -144.227,-65.4949 L -144.371,-65.7213 L -144.485,-65.9639 L -144.568,-66.219 L -144.618,-66.4824
 L -144.635,-66.75 L -144.618,-67.0176 L -144.568,-67.281 L -144.485,-67.536 L -144.371,-67.7787 L -144.227,-68.0051
 L -144.057,-68.2117 L -143.861,-68.3953 L -143.644,-68.5529 L -143.409,-68.6821 L -143.16,-68.7808 L -142.9,-68.8475
 L -142.634,-68.8811 L -142.366,-68.8811 L -142.1,-68.8475 L -141.84,-68.7808 L -141.591,-68.6821 L -141.356,-68.5529
 L -141.139,-68.3953 L -140.943,-68.2117 L -140.773,-68.0051 L -140.629,-67.7787 L -140.515,-67.536 L -140.432,-67.281
 L -140.382,-67.0176 L -140.365,-66.75 L -140.382,-66.4824 L -140.432,-66.219 L -140.515,-65.9639 L -140.629,-65.7213
 L -140.773,-65.4949 L -140.943,-65.2883 L -141.139,-65.1047 L -141.356,-64.9471 L -141.591,-64.8179 L -141.84,-64.7192
 L -142.1,-64.6525 L -142.366,-64.6189 z
M 142.366,-57.1189 L 142.1,-57.1525 L 141.84,-57.2192 L 141.591,-57.3179 L 141.356,-57.4471 L 141.139,-57.6047
 L 140.943,-57.7883 L 140.773,-57.9949 L 140.629,-58.2213 L 140.515,-58.464 L 140.432,-58.719 L 140.382,-58.9824
 L 140.365,-59.25 L 140.382,-59.5176 L 140.432,-59.781 L 140.515,-60.0361 L 140.629,-60.2787 L 140.773,-60.5051
 L 140.943,-60.7117 L 141.139,-60.8953 L 141.356,-61.0529 L 141.591,-61.1821 L 141.84,-61.2808 L 142.1,-61.3475
 L 142.366,-61.3811 L 142.634,-61.3811 L 142.9,-61.3475 L 143.16,-61.2808 L 143.409,-61.1821 L 143.644,-61.0529
 L 143.861,-60.8953 L 144.057,-60.7117 L 144.227,-60.5051 L 144.371,-60.2787 L 144.485,-60.0361 L 144.568,-59.781
 L 144.618,-59.5176 L 144.635,-59.25 L 144.618,-58.9824 L 144.568,-58.719 L 144.485,-58.464 L 144.371,-58.2213
 L 144.227,-57.9949 L 144.057,-57.7883 L 143.861,-57.6047 L 143.644,-57.4471 L 143.409,-57.3179 L 143.16,-57.2192
 L 142.9,-57.1525 L 142.634,-57.1189 z
M -142.634,-57.1189 L -142.9,-57.1525 L -143.16,-57.2192 L -143.409,-57.3179 L -143.644,-57.4471 L -143.861,-57.6047
 L -144.057,-57.7883 L -144.227,-57.9949 L -144.371,-58.2213 L -144.485,-58.464 L -144.568,-58.719 L -144.618,-58.9824
 L -144.635,-59.25 L -144.618,-59.5176 L -144.568,-59.781 L -144.485,-60.0361 L -144.371,-60.2787 L -144.227,-60.5051
 L -144.057,-60.7117 L -143.861,-60.8953 L -143.644,-61.0529 L -143.409,-61.1821 L -143.16,-61.2808 L -142.9,-61.3475
 L -142.634,-61.3811 L -142.366,-61.3811 L -142.1,-61.3475 L -141.84,-61.2808 L -141.591,-61.1821 L -141.356,-61.0529
 L -141.139,-60.8953 L -140.943,-60.7117 L -140.773,-60.5051 L -140.629,-60.2787 L -140.515,-60.0361 L -140.432,-59.781
 L -140.382,-59.5176 L -140.365,-59.25 L -140.382,-58.9824 L -140.432,-58.719 L -140.515,-58.464 L -140.629,-58.2213
 L -140.773,-57.9949 L -140.943,-57.7883 L -141.139,-57.6047 L -141.356,-57.4471 L -141.591,-57.3179 L -141.84,-57.2192
 L -142.1,-57.1525 L -142.366,-57.1189 z
" stroke="black" fill="lightgray" stroke-width="0.5"/>
</svg>
