<?xml version="1.0" standalone="no"?>
<!DOCTYPE svg PUBLIC "-//W3C//DTD SVG 1.1//EN" "http://www.w3.org/Graphics/SVG/1.1/DTD/svg11.dtd">
<svg width="300mm" height="160mm" viewBox="-150 -206 300 160" xmlns="http://www.w3.org/2000/svg" version="1.1">
<title>OpenSCAD Model</title>
<path d="
M 145.937,-130.589 L 146.545,-130.745 L 147.129,-130.976 L 147.679,-131.278 L 148.187,-131.647 L 148.645,-132.077
 L 149.045,-132.561 L 149.382,-133.091 L 149.649,-133.659 L 149.843,-134.257 L 149.961,-134.873 L 150,-135.5
 L 150,-200.5 L 149.961,-201.127 L 149.843,-201.743 L 149.649,-202.341 L 149.382,-202.909 L 149.045,-203.439
 L 148.645,-203.923 L 148.187,-204.353 L 147.679,-204.722 L 147.129,-205.024 L 146.545,-205.255 L 145.937,-205.411
 L 145.314,-205.49 L -145.314,-205.49 L -145.937,-205.411 L -146.545,-205.255 L -147.129,-205.024 L -147.679,-204.722
 L -148.187,-204.353 L -148.645,-203.923 L -149.045,-203.439 L -149.382,-202.909 L -149.649,-202.341 L -149.843,-201.743
 L -149.961,-201.127 L -150,-200.5 L -150,-135.5 L -149.961,-134.873 L -149.843,-134.257 L -149.649,-133.659
 L -149.382,-133.091 L -149.045,-132.561 L -148.645,-132.077 L -148.187,-131.647 L -147.679,-131.278 L -147.129,-130.976
 L -146.545,-130.745 L -145.937,-130.589 L -145.314,-130.51 L 145.314,-130.51 z
M -144.993,-131.888 L -145.475,-131.949 L -145.946,-132.07 L -146.398,-132.249 L -146.823,-132.483 L -147.216,-132.769
 L -147.571,-133.101 L -147.88,-133.476 L -148.141,-133.886 L -148.348,-134.326 L -148.498,-134.788 L -148.589,-135.265
 L -148.619,-135.75 L -148.619,-200.25 L -148.589,-200.735 L -148.498,-201.212 L -148.348,-201.674 L -148.141,-202.114
 L -147.88,-202.524 L -147.571,-202.899 L -147.216,-203.231 L -146.823,-203.517 L -146.398,-203.751 L -145.946,-203.93
 L -145.475,-204.051 L -144.993,-204.112 L 144.993,-204.112 L 145.475,-204.051 L 145.946,-203.93 L 146.398,-203.751
 L 146.823,-203.517 L 147.216,-203.231 L 147.571,-202.899 L 147.88,-202.524 L 148.141,-202.114 L 148.348,-201.674
 L 148.498,-201.212 L 148.589,-200.735 L 148.619,-200.25 L 148.619,-135.75 L 148.589,-135.265 L 148.498,-134.788
 L 148.348,-134.326 L 148.141,-133.886 L 147.88,-133.476 L 147.571,-133.101 L 147.216,-132.769 L 146.823,-132.483
 L 146.398,-132.249 L 145.946,-132.07 L 145.475,-131.949 L 144.993,-131.888 z
M 145.937,-46.5886 L 146.545,-46.7447 L 147.129,-46.9759 L 147.679,-47.2784 L 148.187,-47.6474 L 148.645,-48.0773
 L 149.045,-48.5611 L 149.382,-49.0912 L 149.649,-49.6594 L 149.843,-50.2566 L 149.961,-50.8733 L 150,-51.5
 L 150,-116.5 L 149.961,-117.127 L 149.843,-117.743 L 149.649,-118.341 L 149.382,-118.909 L 149.045,-119.439
 L 148.645,-119.923 L 148.187,-120.353 L 147.679,-120.722 L 147.129,-121.024 L 146.545,-121.255 L 145.937,-121.411
 L 145.314,-121.49 L -145.314,-121.49 L -145.937,-121.411 L -146.545,-121.255 L -147.129,-121.024 L -147.679,-120.722
 L -148.187,-120.353 L -148.645,-119.923 L -149.045,-119.439 L -149.382,-118.909 L -149.649,-118.341 L -149.843,-117.743
 L -149.961,-117.127 L -150,-116.5 L -150,-51.5 L -149.961,-50.8733 L -149.843,-50.2566 L -149.649,-49.6594
 L -149.382,-49.0912 L -149.045,-48.5611 L -148.645,-48.0773 L -148.187,-47.6474 L -147.679,-47.2784 L -147.129,-46.9759
 L -146.545,-46.7447 L -145.937,-46.5886 L -145.314,-46.5099 L 145.314,-46.5099 z
M -142.613,-112.204 L -142.837,-112.232 L -143.056,-112.288 L -143.266,-112.371 L -143.464,-112.48 L -143.647,-112.613
 L -143.812,-112.768 L -143.956,-112.942 L -144.077,-113.133 L -144.174,-113.337 L -144.243,-113.552 L -144.286,-113.774
 L -144.3,-114 L -144.286,-114.226 L -144.243,-114.448 L -144.174,-114.663 L -144.077,-114.867 L -143.956,-115.058
 L -143.812,-115.232 L -143.647,-115.387 L -143.464,-115.52 L -143.266,-115.629 L -143.056,-115.712 L -142.837,-115.768
 L -142.613,-115.796 L -142.387,-115.796 L -142.163,-115.768 L -141.944,-115.712 L -141.734,-115.629 L -141.536,-115.52
 L -141.353,-115.387 L -141.188,-115.232 L -141.044,-115.058 L -140.923,-114.867 L -140.826,-114.663 L -140.757,-114.448
 L -140.714,-114.226 L -140.7,-114 L -140.714,-113.774 L -140.757,-113.552 L -140.826,-113.337 L -140.923,-113.133
 L -141.044,-112.942 L -141.188,-112.768 L -141.353,-112.613 L -141.536,-112.48 L -141.734,-112.371 L -141.944,-112.288
 L -142.163,-112.232 L -142.387,-112.204 z
M 142.387,-112.204 L 142.163,-112.232 L 141.944,-112.288 L 141.734,-112.371 L 141.536,-112.48 L 141.353,-112.613
 L 141.188,-112.768 L 141.044,-112.942 L 140.923,-113.133 L 140.826,-113.337 L 140.757,-113.552 L 140.714,-113.774
 L 140.7,-114 L 140.714,-114.226 L 140.757,-114.448 L 140.826,-114.663 L 140.923,-114.867 L 141.044,-115.058
 L 141.188,-115.232 L 141.353,-115.387 L 141.536,-115.52 L 141.734,-115.629 L 141.944,-115.712 L 142.163,-115.768
 L 142.387,-115.796 L 142.613,-115.796 L 142.837,-115.768 L 143.056,-115.712 L 143.266,-115.629 L 143.464,-115.52
 L 143.647,-115.387 L 143.812,-115.232 L 143.956,-115.058 L 144.077,-114.867 L 144.174,-114.663 L 144.243,-114.448
 L 144.286,-114.226 L 144.3,-114 L 144.286,-113.774 L 144.243,-113.552 L 144.174,-113.337 L 144.077,-113.133
 L 143.956,-112.942 L 143.812,-112.768 L 143.647,-112.613 L 143.464,-112.48 L 143.266,-112.371 L 143.056,-112.288
 L 142.837,-112.232 L 142.613,-112.204 z
M 142.387,-52.2036 L 142.163,-52.2319 L 141.944,-52.2881 L 141.734,-52.3713 L 141.536,-52.4802 L 141.353,-52.6131
 L 141.188,-52.7678 L 141.044,-52.942 L 140.923,-53.1328 L 140.826,-53.3374 L 140.757,-53.5524 L 140.714,-53.7744
 L 140.7,-54 L 140.714,-54.2256 L 140.757,-54.4476 L 140.826,-54.6626 L 140.923,-54.8672 L 141.044,-55.058
 L 141.188,-55.2322 L 141.353,-55.3869 L 141.536,-55.5198 L 141.734,-55.6287 L 141.944,-55.7119 L 142.163,-55.7681
 L 142.387,-55.7964 L 142.613,-55.7964 L 142.837,-55.7681 L 143.056,-55.7119 L 143.266,-55.6287 L 143.464,-55.5198
 L 143.647,-55.3869 L 143.812,-55.2322 L 143.956,-55.058 L 144.077,-54.8672 L 144.174,-54.6626 L 144.243,-54.4476
 L 144.286,-54.2256 L 144.3,-54 L 144.286,-53.7744 L 144.243,-53.5524 L 144.174,-53.3374 L 144.077,-53.1328
 L 143.956,-52.942 L 143.812,-52.7678 L 143.647,-52.6131 L 143.464,-52.4802 L 143.266,-52.3713 L 143.056,-52.2881
 L 142.837,-52.2319 L 142.613,-52.2036 z
M -142.613,-52.2036 L -142.837,-52.2319 L -143.056,-52.2881 L -143.266,-52.3713 L -143.464,-52.4802 L -143.647,-52.6131
 L -143.812,-52.7678 L -143.956,-52.942 L -144.077,-53.1328 L -144.174,-53.3374 L -144.243,-53.5524 L -144.286,-53.7744
 L -144.3,-54 L -144.286,-54.2256 L -144.243,-54.4476 L -144.174,-54.6626 L -144.077,-54.8672 L -143.956,-55.058
 L -143.812,-55.2322 L -143.647,-55.3869 L -143.464,-55.5198 L -143.266,-55.6287 L -143.056,-55.7119 L -142.837,-55.7681
 L -142.613,-55.7964 L -142.387,-55.7964 L -142.163,-55.7681 L -141.944,-55.7119 L -141.734,-55.6287 L -141.536,-55.5198
 L -141.353,-55.3869 L -141.188,-55.2322 L -141.044,-55.058 L -140.923,-54.8672 L -140.826,-54.6626 L -140.757,-54.4476
 L -140.714,-54.2256 L -140.7,-54 L -140.714,-53.7744 L -140.757,-53.5524 L -140.826,-53.3374 L -140.923,-53.1328
 L -141.044,-52.942 L -141.188,-52.7678 L -141.353,-52.6131 L -141.536,-52.4802 L -141.734,-52.3713 L -141.944,-52.2881
 L -142.163,-52.2319 L -142.387,-52.2036 z
" stroke="black" fill="lightgray" stroke-width="0.5"/>
</svg>
