  0
SECTION
  2
BLOCKS
  0
ENDSEC
  0
SECTION
  2
ENTITIES
  0
LINE
  8
0
 10
130.937
 20
787.589
 11
131.545
 21
787.745
  0
LINE
  8
0
 10
131.545
 20
787.745
 11
132.129
 21
787.976
  0
LINE
  8
0
 10
132.129
 20
787.976
 11
132.679
 21
788.278
  0
LINE
  8
0
 10
132.679
 20
788.278
 11
133.187
 21
788.647
  0
LINE
  8
0
 10
133.187
 20
788.647
 11
133.645
 21
789.077
  0
LINE
  8
0
 10
133.645
 20
789.077
 11
134.045
 21
789.561
  0
LINE
  8
0
 10
134.045
 20
789.561
 11
134.382
 21
790.091
  0
LINE
  8
0
 10
134.382
 20
790.091
 11
134.649
 21
790.659
  0
LINE
  8
0
 10
134.649
 20
790.659
 11
134.843
 21
791.257
  0
LINE
  8
0
 10
134.843
 20
791.257
 11
134.961
 21
791.873
  0
LINE
  8
0
 10
134.961
 20
791.873
 11
135
 21
792.5
  0
LINE
  8
0
 10
135
 20
792.5
 11
135
 21
947.5
  0
LINE
  8
0
 10
135
 20
947.5
 11
134.961
 21
948.127
  0
LINE
  8
0
 10
134.961
 20
948.127
 11
134.843
 21
948.743
  0
LINE
  8
0
 10
134.843
 20
948.743
 11
134.649
 21
949.341
  0
LINE
  8
0
 10
134.649
 20
949.341
 11
134.382
 21
949.909
  0
LINE
  8
0
 10
134.382
 20
949.909
 11
134.045
 21
950.439
  0
LINE
  8
0
 10
134.045
 20
950.439
 11
133.645
 21
950.923
  0
LINE
  8
0
 10
133.645
 20
950.923
 11
133.187
 21
951.353
  0
LINE
  8
0
 10
133.187
 20
951.353
 11
132.679
 21
951.722
  0
LINE
  8
0
 10
132.679
 20
951.722
 11
132.129
 21
952.024
  0
LINE
  8
0
 10
132.129
 20
952.024
 11
131.545
 21
952.255
  0
LINE
  8
0
 10
131.545
 20
952.255
 11
130.937
 21
952.411
  0
LINE
  8
0
 10
130.937
 20
952.411
 11
130.314
 21
952.49
  0
LINE
  8
0
 10
130.314
 20
952.49
 11
-130.314
 21
952.49
  0
LINE
  8
0
 10
-130.314
 20
952.49
 11
-130.937
 21
952.411
  0
LINE
  8
0
 10
-130.937
 20
952.411
 11
-131.545
 21
952.255
  0
LINE
  8
0
 10
-131.545
 20
952.255
 11
-132.129
 21
952.024
  0
LINE
  8
0
 10
-132.129
 20
952.024
 11
-132.679
 21
951.722
  0
LINE
  8
0
 10
-132.679
 20
951.722
 11
-133.187
 21
951.353
  0
LINE
  8
0
 10
-133.187
 20
951.353
 11
-133.645
 21
950.923
  0
LINE
  8
0
 10
-133.645
 20
950.923
 11
-134.045
 21
950.439
  0
LINE
  8
0
 10
-134.045
 20
950.439
 11
-134.382
 21
949.909
  0
LINE
  8
0
 10
-134.382
 20
949.909
 11
-134.649
 21
949.341
  0
LINE
  8
0
 10
-134.649
 20
949.341
 11
-134.843
 21
948.743
  0
LINE
  8
0
 10
-134.843
 20
948.743
 11
-134.961
 21
948.127
  0
LINE
  8
0
 10
-134.961
 20
948.127
 11
-135
 21
947.5
  0
LINE
  8
0
 10
-135
 20
947.5
 11
-135
 21
792.5
  0
LINE
  8
0
 10
-135
 20
792.5
 11
-134.961
 21
791.873
  0
LINE
  8
0
 10
-134.961
 20
791.873
 11
-134.843
 21
791.257
  0
LINE
  8
0
 10
-134.843
 20
791.257
 11
-134.649
 21
790.659
  0
LINE
  8
0
 10
-134.649
 20
790.659
 11
-134.382
 21
790.091
  0
LINE
  8
0
 10
-134.382
 20
790.091
 11
-134.045
 21
789.561
  0
LINE
  8
0
 10
-134.045
 20
789.561
 11
-133.645
 21
789.077
  0
LINE
  8
0
 10
-133.645
 20
789.077
 11
-133.187
 21
788.647
  0
LINE
  8
0
 10
-133.187
 20
788.647
 11
-132.679
 21
788.278
  0
LINE
  8
0
 10
-132.679
 20
788.278
 11
-132.129
 21
787.976
  0
LINE
  8
0
 10
-132.129
 20
787.976
 11
-131.545
 21
787.745
  0
LINE
  8
0
 10
-131.545
 20
787.745
 11
-130.937
 21
787.589
  0
LINE
  8
0
 10
-130.937
 20
787.589
 11
-130.314
 21
787.51
  0
LINE
  8
0
 10
-130.314
 20
787.51
 11
130.314
 21
787.51
  0
LINE
  8
0
 10
130.314
 20
787.51
 11
130.937
 21
787.589
  0
LINE
  8
0
 10
-130.048
 20
788.009
 11
-130.64
 21
788.084
  0
LINE
  8
0
 10
-130.64
 20
788.084
 11
-131.218
 21
788.232
  0
LINE
  8
0
 10
-131.218
 20
788.232
 11
-131.772
 21
788.452
  0
LINE
  8
0
 10
-131.772
 20
788.452
 11
-132.295
 21
788.739
  0
LINE
  8
0
 10
-132.295
 20
788.739
 11
-132.778
 21
789.09
  0
LINE
  8
0
 10
-132.778
 20
789.09
 11
-133.213
 21
789.498
  0
LINE
  8
0
 10
-133.213
 20
789.498
 11
-133.593
 21
789.958
  0
LINE
  8
0
 10
-133.593
 20
789.958
 11
-133.912
 21
790.462
  0
LINE
  8
0
 10
-133.912
 20
790.462
 11
-134.166
 21
791.001
  0
LINE
  8
0
 10
-134.166
 20
791.001
 11
-134.351
 21
791.569
  0
LINE
  8
0
 10
-134.351
 20
791.569
 11
-134.463
 21
792.155
  0
LINE
  8
0
 10
-134.463
 20
792.155
 11
-134.5
 21
792.75
  0
LINE
  8
0
 10
-134.5
 20
792.75
 11
-134.5
 21
947.25
  0
LINE
  8
0
 10
-134.5
 20
947.25
 11
-134.463
 21
947.845
  0
LINE
  8
0
 10
-134.463
 20
947.845
 11
-134.351
 21
948.431
  0
LINE
  8
0
 10
-134.351
 20
948.431
 11
-134.166
 21
948.999
  0
LINE
  8
0
 10
-134.166
 20
948.999
 11
-133.912
 21
949.538
  0
LINE
  8
0
 10
-133.912
 20
949.538
 11
-133.593
 21
950.042
  0
LINE
  8
0
 10
-133.593
 20
950.042
 11
-133.213
 21
950.502
  0
LINE
  8
0
 10
-133.213
 20
950.502
 11
-132.778
 21
950.91
  0
LINE
  8
0
 10
-132.778
 20
950.91
 11
-132.295
 21
951.261
  0
LINE
  8
0
 10
-132.295
 20
951.261
 11
-131.772
 21
951.548
  0
LINE
  8
0
 10
-131.772
 20
951.548
 11
-131.218
 21
951.768
  0
LINE
  8
0
 10
-131.218
 20
951.768
 11
-130.64
 21
951.916
  0
LINE
  8
0
 10
-130.64
 20
951.916
 11
-130.048
 21
951.991
  0
LINE
  8
0
 10
-130.048
 20
951.991
 11
130.048
 21
951.991
  0
LINE
  8
0
 10
130.048
 20
951.991
 11
130.64
 21
951.916
  0
LINE
  8
0
 10
130.64
 20
951.916
 11
131.218
 21
951.768
  0
LINE
  8
0
 10
131.218
 20
951.768
 11
131.772
 21
951.548
  0
LINE
  8
0
 10
131.772
 20
951.548
 11
132.295
 21
951.261
  0
LINE
  8
0
 10
132.295
 20
951.261
 11
132.778
 21
950.91
  0
LINE
  8
0
 10
132.778
 20
950.91
 11
133.213
 21
950.502
  0
LINE
  8
0
 10
133.213
 20
950.502
 11
133.593
 21
950.042
  0
LINE
  8
0
 10
133.593
 20
950.042
 11
133.912
 21
949.538
  0
LINE
  8
0
 10
133.912
 20
949.538
 11
134.166
 21
948.999
  0
LINE
  8
0
 10
134.166
 20
948.999
 11
134.351
 21
948.431
  0
LINE
  8
0
 10
134.351
 20
948.431
 11
134.463
 21
947.845
  0
LINE
  8
0
 10
134.463
 20
947.845
 11
134.5
 21
947.25
  0
LINE
  8
0
 10
134.5
 20
947.25
 11
134.5
 21
792.75
  0
LINE
  8
0
 10
134.5
 20
792.75
 11
134.463
 21
792.155
  0
LINE
  8
0
 10
134.463
 20
792.155
 11
134.351
 21
791.569
  0
LINE
  8
0
 10
134.351
 20
791.569
 11
134.166
 21
791.001
  0
LINE
  8
0
 10
134.166
 20
791.001
 11
133.912
 21
790.462
  0
LINE
  8
0
 10
133.912
 20
790.462
 11
133.593
 21
789.958
  0
LINE
  8
0
 10
133.593
 20
789.958
 11
133.213
 21
789.498
  0
LINE
  8
0
 10
133.213
 20
789.498
 11
132.778
 21
789.09
  0
LINE
  8
0
 10
132.778
 20
789.09
 11
132.295
 21
788.739
  0
LINE
  8
0
 10
132.295
 20
788.739
 11
131.772
 21
788.452
  0
LINE
  8
0
 10
131.772
 20
788.452
 11
131.218
 21
788.232
  0
LINE
  8
0
 10
131.218
 20
788.232
 11
130.64
 21
788.084
  0
LINE
  8
0
 10
130.64
 20
788.084
 11
130.048
 21
788.009
  0
LINE
  8
0
 10
130.048
 20
788.009
 11
-130.048
 21
788.009
  0
LINE
  8
0
 10
130.937
 20
613.589
 11
131.545
 21
613.745
  0
LINE
  8
0
 10
131.545
 20
613.745
 11
132.129
 21
613.976
  0
LINE
  8
0
 10
132.129
 20
613.976
 11
132.679
 21
614.278
  0
LINE
  8
0
 10
132.679
 20
614.278
 11
133.187
 21
614.647
  0
LINE
  8
0
 10
133.187
 20
614.647
 11
133.645
 21
615.077
  0
LINE
  8
0
 10
133.645
 20
615.077
 11
134.045
 21
615.561
  0
LINE
  8
0
 10
134.045
 20
615.561
 11
134.382
 21
616.091
  0
LINE
  8
0
 10
134.382
 20
616.091
 11
134.649
 21
616.659
  0
LINE
  8
0
 10
134.649
 20
616.659
 11
134.843
 21
617.257
  0
LINE
  8
0
 10
134.843
 20
617.257
 11
134.961
 21
617.873
  0
LINE
  8
0
 10
134.961
 20
617.873
 11
135
 21
618.5
  0
LINE
  8
0
 10
135
 20
618.5
 11
135
 21
773.5
  0
LINE
  8
0
 10
135
 20
773.5
 11
134.961
 21
774.127
  0
LINE
  8
0
 10
134.961
 20
774.127
 11
134.843
 21
774.743
  0
LINE
  8
0
 10
134.843
 20
774.743
 11
134.649
 21
775.341
  0
LINE
  8
0
 10
134.649
 20
775.341
 11
134.382
 21
775.909
  0
LINE
  8
0
 10
134.382
 20
775.909
 11
134.045
 21
776.439
  0
LINE
  8
0
 10
134.045
 20
776.439
 11
133.645
 21
776.923
  0
LINE
  8
0
 10
133.645
 20
776.923
 11
133.187
 21
777.353
  0
LINE
  8
0
 10
133.187
 20
777.353
 11
132.679
 21
777.722
  0
LINE
  8
0
 10
132.679
 20
777.722
 11
132.129
 21
778.024
  0
LINE
  8
0
 10
132.129
 20
778.024
 11
131.545
 21
778.255
  0
LINE
  8
0
 10
131.545
 20
778.255
 11
130.937
 21
778.411
  0
LINE
  8
0
 10
130.937
 20
778.411
 11
130.314
 21
778.49
  0
LINE
  8
0
 10
130.314
 20
778.49
 11
-130.314
 21
778.49
  0
LINE
  8
0
 10
-130.314
 20
778.49
 11
-130.937
 21
778.411
  0
LINE
  8
0
 10
-130.937
 20
778.411
 11
-131.545
 21
778.255
  0
LINE
  8
0
 10
-131.545
 20
778.255
 11
-132.129
 21
778.024
  0
LINE
  8
0
 10
-132.129
 20
778.024
 11
-132.679
 21
777.722
  0
LINE
  8
0
 10
-132.679
 20
777.722
 11
-133.187
 21
777.353
  0
LINE
  8
0
 10
-133.187
 20
777.353
 11
-133.645
 21
776.923
  0
LINE
  8
0
 10
-133.645
 20
776.923
 11
-134.045
 21
776.439
  0
LINE
  8
0
 10
-134.045
 20
776.439
 11
-134.382
 21
775.909
  0
LINE
  8
0
 10
-134.382
 20
775.909
 11
-134.649
 21
775.341
  0
LINE
  8
0
 10
-134.649
 20
775.341
 11
-134.843
 21
774.743
  0
LINE
  8
0
 10
-134.843
 20
774.743
 11
-134.961
 21
774.127
  0
LINE
  8
0
 10
-134.961
 20
774.127
 11
-135
 21
773.5
  0
LINE
  8
0
 10
-135
 20
773.5
 11
-135
 21
618.5
  0
LINE
  8
0
 10
-135
 20
618.5
 11
-134.961
 21
617.873
  0
LINE
  8
0
 10
-134.961
 20
617.873
 11
-134.843
 21
617.257
  0
LINE
  8
0
 10
-134.843
 20
617.257
 11
-134.649
 21
616.659
  0
LINE
  8
0
 10
-134.649
 20
616.659
 11
-134.382
 21
616.091
  0
LINE
  8
0
 10
-134.382
 20
616.091
 11
-134.045
 21
615.561
  0
LINE
  8
0
 10
-134.045
 20
615.561
 11
-133.645
 21
615.077
  0
LINE
  8
0
 10
-133.645
 20
615.077
 11
-133.187
 21
614.647
  0
LINE
  8
0
 10
-133.187
 20
614.647
 11
-132.679
 21
614.278
  0
LINE
  8
0
 10
-132.679
 20
614.278
 11
-132.129
 21
613.976
  0
LINE
  8
0
 10
-132.129
 20
613.976
 11
-131.545
 21
613.745
  0
LINE
  8
0
 10
-131.545
 20
613.745
 11
-130.937
 21
613.589
  0
LINE
  8
0
 10
-130.937
 20
613.589
 11
-130.314
 21
613.51
  0
LINE
  8
0
 10
-130.314
 20
613.51
 11
130.314
 21
613.51
  0
LINE
  8
0
 10
130.314
 20
613.51
 11
130.937
 21
613.589
  0
LINE
  8
0
 10
-130.037
 20
614.181
 11
-130.608
 21
614.253
  0
LINE
  8
0
 10
-130.608
 20
614.253
 11
-131.165
 21
614.396
  0
LINE
  8
0
 10
-131.165
 20
614.396
 11
-131.699
 21
614.607
  0
LINE
  8
0
 10
-131.699
 20
614.607
 11
-132.203
 21
614.884
  0
LINE
  8
0
 10
-132.203
 20
614.884
 11
-132.668
 21
615.222
  0
LINE
  8
0
 10
-132.668
 20
615.222
 11
-133.088
 21
615.616
  0
LINE
  8
0
 10
-133.088
 20
615.616
 11
-133.454
 21
616.059
  0
LINE
  8
0
 10
-133.454
 20
616.059
 11
-133.762
 21
616.544
  0
LINE
  8
0
 10
-133.762
 20
616.544
 11
-134.007
 21
617.065
  0
LINE
  8
0
 10
-134.007
 20
617.065
 11
-134.185
 21
617.611
  0
LINE
  8
0
 10
-134.185
 20
617.611
 11
-134.292
 21
618.176
  0
LINE
  8
0
 10
-134.292
 20
618.176
 11
-134.328
 21
618.75
  0
LINE
  8
0
 10
-134.328
 20
618.75
 11
-134.328
 21
773.25
  0
LINE
  8
0
 10
-134.328
 20
773.25
 11
-134.292
 21
773.824
  0
LINE
  8
0
 10
-134.292
 20
773.824
 11
-134.185
 21
774.389
  0
LINE
  8
0
 10
-134.185
 20
774.389
 11
-134.007
 21
774.935
  0
LINE
  8
0
 10
-134.007
 20
774.935
 11
-133.762
 21
775.456
  0
LINE
  8
0
 10
-133.762
 20
775.456
 11
-133.454
 21
775.941
  0
LINE
  8
0
 10
-133.454
 20
775.941
 11
-133.088
 21
776.384
  0
LINE
  8
0
 10
-133.088
 20
776.384
 11
-132.668
 21
776.778
  0
LINE
  8
0
 10
-132.668
 20
776.778
 11
-132.203
 21
777.116
  0
LINE
  8
0
 10
-132.203
 20
777.116
 11
-131.699
 21
777.393
  0
LINE
  8
0
 10
-131.699
 20
777.393
 11
-131.165
 21
777.604
  0
LINE
  8
0
 10
-131.165
 20
777.604
 11
-130.608
 21
777.747
  0
LINE
  8
0
 10
-130.608
 20
777.747
 11
-130.037
 21
777.819
  0
LINE
  8
0
 10
-130.037
 20
777.819
 11
130.037
 21
777.819
  0
LINE
  8
0
 10
130.037
 20
777.819
 11
130.608
 21
777.747
  0
LINE
  8
0
 10
130.608
 20
777.747
 11
131.165
 21
777.604
  0
LINE
  8
0
 10
131.165
 20
777.604
 11
131.699
 21
777.393
  0
LINE
  8
0
 10
131.699
 20
777.393
 11
132.203
 21
777.116
  0
LINE
  8
0
 10
132.203
 20
777.116
 11
132.668
 21
776.778
  0
LINE
  8
0
 10
132.668
 20
776.778
 11
133.088
 21
776.384
  0
LINE
  8
0
 10
133.088
 20
776.384
 11
133.454
 21
775.941
  0
LINE
  8
0
 10
133.454
 20
775.941
 11
133.762
 21
775.456
  0
LINE
  8
0
 10
133.762
 20
775.456
 11
134.007
 21
774.935
  0
LINE
  8
0
 10
134.007
 20
774.935
 11
134.185
 21
774.389
  0
LINE
  8
0
 10
134.185
 20
774.389
 11
134.292
 21
773.824
  0
LINE
  8
0
 10
134.292
 20
773.824
 11
134.328
 21
773.25
  0
LINE
  8
0
 10
134.328
 20
773.25
 11
134.328
 21
618.75
  0
LINE
  8
0
 10
134.328
 20
618.75
 11
134.292
 21
618.176
  0
LINE
  8
0
 10
134.292
 20
618.176
 11
134.185
 21
617.611
  0
LINE
  8
0
 10
134.185
 20
617.611
 11
134.007
 21
617.065
  0
LINE
  8
0
 10
134.007
 20
617.065
 11
133.762
 21
616.544
  0
LINE
  8
0
 10
133.762
 20
616.544
 11
133.454
 21
616.059
  0
LINE
  8
0
 10
133.454
 20
616.059
 11
133.088
 21
615.616
  0
LINE
  8
0
 10
133.088
 20
615.616
 11
132.668
 21
615.222
  0
LINE
  8
0
 10
132.668
 20
615.222
 11
132.203
 21
614.884
  0
LINE
  8
0
 10
132.203
 20
614.884
 11
131.699
 21
614.607
  0
LINE
  8
0
 10
131.699
 20
614.607
 11
131.165
 21
614.396
  0
LINE
  8
0
 10
131.165
 20
614.396
 11
130.608
 21
614.253
  0
LINE
  8
0
 10
130.608
 20
614.253
 11
130.037
 21
614.181
  0
LINE
  8
0
 10
130.037
 20
614.181
 11
-130.037
 21
614.181
  0
LINE
  8
0
 10
130.937
 20
439.589
 11
131.545
 21
439.745
  0
LINE
  8
0
 10
131.545
 20
439.745
 11
132.129
 21
439.976
  0
LINE
  8
0
 10
132.129
 20
439.976
 11
132.679
 21
440.278
  0
LINE
  8
0
 10
132.679
 20
440.278
 11
133.187
 21
440.647
  0
LINE
  8
0
 10
133.187
 20
440.647
 11
133.645
 21
441.077
  0
LINE
  8
0
 10
133.645
 20
441.077
 11
134.045
 21
441.561
  0
LINE
  8
0
 10
134.045
 20
441.561
 11
134.382
 21
442.091
  0
LINE
  8
0
 10
134.382
 20
442.091
 11
134.649
 21
442.659
  0
LINE
  8
0
 10
134.649
 20
442.659
 11
134.843
 21
443.257
  0
LINE
  8
0
 10
134.843
 20
443.257
 11
134.961
 21
443.873
  0
LINE
  8
0
 10
134.961
 20
443.873
 11
135
 21
444.5
  0
LINE
  8
0
 10
135
 20
444.5
 11
135
 21
599.5
  0
LINE
  8
0
 10
135
 20
599.5
 11
134.961
 21
600.127
  0
LINE
  8
0
 10
134.961
 20
600.127
 11
134.843
 21
600.743
  0
LINE
  8
0
 10
134.843
 20
600.743
 11
134.649
 21
601.341
  0
LINE
  8
0
 10
134.649
 20
601.341
 11
134.382
 21
601.909
  0
LINE
  8
0
 10
134.382
 20
601.909
 11
134.045
 21
602.439
  0
LINE
  8
0
 10
134.045
 20
602.439
 11
133.645
 21
602.923
  0
LINE
  8
0
 10
133.645
 20
602.923
 11
133.187
 21
603.353
  0
LINE
  8
0
 10
133.187
 20
603.353
 11
132.679
 21
603.722
  0
LINE
  8
0
 10
132.679
 20
603.722
 11
132.129
 21
604.024
  0
LINE
  8
0
 10
132.129
 20
604.024
 11
131.545
 21
604.255
  0
LINE
  8
0
 10
131.545
 20
604.255
 11
130.937
 21
604.411
  0
LINE
  8
0
 10
130.937
 20
604.411
 11
130.314
 21
604.49
  0
LINE
  8
0
 10
130.314
 20
604.49
 11
-130.314
 21
604.49
  0
LINE
  8
0
 10
-130.314
 20
604.49
 11
-130.937
 21
604.411
  0
LINE
  8
0
 10
-130.937
 20
604.411
 11
-131.545
 21
604.255
  0
LINE
  8
0
 10
-131.545
 20
604.255
 11
-132.129
 21
604.024
  0
LINE
  8
0
 10
-132.129
 20
604.024
 11
-132.679
 21
603.722
  0
LINE
  8
0
 10
-132.679
 20
603.722
 11
-133.187
 21
603.353
  0
LINE
  8
0
 10
-133.187
 20
603.353
 11
-133.645
 21
602.923
  0
LINE
  8
0
 10
-133.645
 20
602.923
 11
-134.045
 21
602.439
  0
LINE
  8
0
 10
-134.045
 20
602.439
 11
-134.382
 21
601.909
  0
LINE
  8
0
 10
-134.382
 20
601.909
 11
-134.649
 21
601.341
  0
LINE
  8
0
 10
-134.649
 20
601.341
 11
-134.843
 21
600.743
  0
LINE
  8
0
 10
-134.843
 20
600.743
 11
-134.961
 21
600.127
  0
LINE
  8
0
 10
-134.961
 20
600.127
 11
-135
 21
599.5
  0
LINE
  8
0
 10
-135
 20
599.5
 11
-135
 21
444.5
  0
LINE
  8
0
 10
-135
 20
444.5
 11
-134.961
 21
443.873
  0
LINE
  8
0
 10
-134.961
 20
443.873
 11
-134.843
 21
443.257
  0
LINE
  8
0
 10
-134.843
 20
443.257
 11
-134.649
 21
442.659
  0
LINE
  8
0
 10
-134.649
 20
442.659
 11
-134.382
 21
442.091
  0
LINE
  8
0
 10
-134.382
 20
442.091
 11
-134.045
 21
441.561
  0
LINE
  8
0
 10
-134.045
 20
441.561
 11
-133.645
 21
441.077
  0
LINE
  8
0
 10
-133.645
 20
441.077
 11
-133.187
 21
440.647
  0
LINE
  8
0
 10
-133.187
 20
440.647
 11
-132.679
 21
440.278
  0
LINE
  8
0
 10
-132.679
 20
440.278
 11
-132.129
 21
439.976
  0
LINE
  8
0
 10
-132.129
 20
439.976
 11
-131.545
 21
439.745
  0
LINE
  8
0
 10
-131.545
 20
439.745
 11
-130.937
 21
439.589
  0
LINE
  8
0
 10
-130.937
 20
439.589
 11
-130.314
 21
439.51
  0
LINE
  8
0
 10
-130.314
 20
439.51
 11
130.314
 21
439.51
  0
LINE
  8
0
 10
130.314
 20
439.51
 11
130.937
 21
439.589
  0
LINE
  8
0
 10
-129.882
 20
442.645
 11
-130.145
 21
442.678
  0
LINE
  8
0
 10
-130.145
 20
442.678
 11
-130.402
 21
442.744
  0
LINE
  8
0
 10
-130.402
 20
442.744
 11
-130.648
 21
442.841
  0
LINE
  8
0
 10
-130.648
 20
442.841
 11
-130.88
 21
442.969
  0
LINE
  8
0
 10
-130.88
 20
442.969
 11
-131.095
 21
443.124
  0
LINE
  8
0
 10
-131.095
 20
443.124
 11
-131.288
 21
443.306
  0
LINE
  8
0
 10
-131.288
 20
443.306
 11
-131.457
 21
443.51
  0
LINE
  8
0
 10
-131.457
 20
443.51
 11
-131.599
 21
443.734
  0
LINE
  8
0
 10
-131.599
 20
443.734
 11
-131.711
 21
443.973
  0
LINE
  8
0
 10
-131.711
 20
443.973
 11
-131.793
 21
444.225
  0
LINE
  8
0
 10
-131.793
 20
444.225
 11
-131.843
 21
444.486
  0
LINE
  8
0
 10
-131.843
 20
444.486
 11
-131.86
 21
444.75
  0
LINE
  8
0
 10
-131.86
 20
444.75
 11
-131.86
 21
599.25
  0
LINE
  8
0
 10
-131.86
 20
599.25
 11
-131.843
 21
599.514
  0
LINE
  8
0
 10
-131.843
 20
599.514
 11
-131.793
 21
599.775
  0
LINE
  8
0
 10
-131.793
 20
599.775
 11
-131.711
 21
600.027
  0
LINE
  8
0
 10
-131.711
 20
600.027
 11
-131.599
 21
600.266
  0
LINE
  8
0
 10
-131.599
 20
600.266
 11
-131.457
 21
600.49
  0
LINE
  8
0
 10
-131.457
 20
600.49
 11
-131.288
 21
600.694
  0
LINE
  8
0
 10
-131.288
 20
600.694
 11
-131.095
 21
600.876
  0
LINE
  8
0
 10
-131.095
 20
600.876
 11
-130.88
 21
601.031
  0
LINE
  8
0
 10
-130.88
 20
601.031
 11
-130.648
 21
601.159
  0
LINE
  8
0
 10
-130.648
 20
601.159
 11
-130.402
 21
601.256
  0
LINE
  8
0
 10
-130.402
 20
601.256
 11
-130.145
 21
601.322
  0
LINE
  8
0
 10
-130.145
 20
601.322
 11
-129.882
 21
601.355
  0
LINE
  8
0
 10
-129.882
 20
601.355
 11
129.882
 21
601.355
  0
LINE
  8
0
 10
129.882
 20
601.355
 11
130.145
 21
601.322
  0
LINE
  8
0
 10
130.145
 20
601.322
 11
130.402
 21
601.256
  0
LINE
  8
0
 10
130.402
 20
601.256
 11
130.648
 21
601.159
  0
LINE
  8
0
 10
130.648
 20
601.159
 11
130.88
 21
601.031
  0
LINE
  8
0
 10
130.88
 20
601.031
 11
131.095
 21
600.876
  0
LINE
  8
0
 10
131.095
 20
600.876
 11
131.288
 21
600.694
  0
LINE
  8
0
 10
131.288
 20
600.694
 11
131.457
 21
600.49
  0
LINE
  8
0
 10
131.457
 20
600.49
 11
131.599
 21
600.266
  0
LINE
  8
0
 10
131.599
 20
600.266
 11
131.711
 21
600.027
  0
LINE
  8
0
 10
131.711
 20
600.027
 11
131.793
 21
599.775
  0
LINE
  8
0
 10
131.793
 20
599.775
 11
131.843
 21
599.514
  0
LINE
  8
0
 10
131.843
 20
599.514
 11
131.86
 21
599.25
  0
LINE
  8
0
 10
131.86
 20
599.25
 11
131.86
 21
444.75
  0
LINE
  8
0
 10
131.86
 20
444.75
 11
131.843
 21
444.486
  0
LINE
  8
0
 10
131.843
 20
444.486
 11
131.793
 21
444.225
  0
LINE
  8
0
 10
131.793
 20
444.225
 11
131.711
 21
443.973
  0
LINE
  8
0
 10
131.711
 20
443.973
 11
131.599
 21
443.734
  0
LINE
  8
0
 10
131.599
 20
443.734
 11
131.457
 21
443.51
  0
LINE
  8
0
 10
131.457
 20
443.51
 11
131.288
 21
443.306
  0
LINE
  8
0
 10
131.288
 20
443.306
 11
131.095
 21
443.124
  0
LINE
  8
0
 10
131.095
 20
443.124
 11
130.88
 21
442.969
  0
LINE
  8
0
 10
130.88
 20
442.969
 11
130.648
 21
442.841
  0
LINE
  8
0
 10
130.648
 20
442.841
 11
130.402
 21
442.744
  0
LINE
  8
0
 10
130.402
 20
442.744
 11
130.145
 21
442.678
  0
LINE
  8
0
 10
130.145
 20
442.678
 11
129.882
 21
442.645
  0
LINE
  8
0
 10
129.882
 20
442.645
 11
-129.882
 21
442.645
  0
ENDSEC
  0
SECTION
  2
OBJECTS
  0
DICTIONARY
  0
ENDSEC
  0
EOF
