<?xml version="1.0" standalone="no"?>
<!DOCTYPE svg PUBLIC "-//W3C//DTD SVG 1.1//EN" "http://www.w3.org/Graphics/SVG/1.1/DTD/svg11.dtd">
<svg width="242mm" height="400mm" viewBox="-122 -506 242 400" xmlns="http://www.w3.org/2000/svg" version="1.1">
<title>OpenSCAD Model</title>
<path d="
M 115.937,-310.589 L 116.545,-310.745 L 117.129,-310.976 L 117.679,-311.278 L 118.187,-311.647 L 118.645,-312.077
 L 119.045,-312.561 L 119.382,-313.091 L 119.649,-313.659 L 119.843,-314.257 L 119.961,-314.873 L 120,-315.5
 L 120,-500.5 L 119.961,-501.127 L 119.843,-501.743 L 119.649,-502.341 L 119.382,-502.909 L 119.045,-503.439
 L 118.645,-503.923 L 118.187,-504.353 L 117.679,-504.722 L 117.129,-505.024 L 116.545,-505.255 L 115.937,-505.411
 L 115.314,-505.49 L -115.314,-505.49 L -115.937,-505.411 L -116.545,-505.255 L -117.129,-505.024 L -117.679,-504.722
 L -118.187,-504.353 L -118.5,-504.059 L -118.5,-505.115 L -121.5,-505.115 L -121.5,-310.885 L -118.5,-310.885
 L -118.5,-311.941 L -118.187,-311.647 L -117.679,-311.278 L -117.129,-310.976 L -116.545,-310.745 L -115.937,-310.589
 L -115.314,-310.51 L 115.314,-310.51 z
M 112.349,-495.605 L 112.05,-495.643 L 111.758,-495.717 L 111.478,-495.828 L 111.214,-495.974 L 110.97,-496.151
 L 110.75,-496.357 L 110.558,-496.589 L 110.397,-496.844 L 110.269,-497.117 L 110.175,-497.403 L 110.119,-497.699
 L 110.1,-498 L 110.119,-498.301 L 110.175,-498.597 L 110.269,-498.883 L 110.397,-499.156 L 110.558,-499.411
 L 110.75,-499.643 L 110.97,-499.849 L 111.214,-500.026 L 111.478,-500.172 L 111.758,-500.283 L 112.05,-500.357
 L 112.349,-500.395 L 112.651,-500.395 L 112.95,-500.357 L 113.242,-500.283 L 113.522,-500.172 L 113.786,-500.026
 L 114.03,-499.849 L 114.25,-499.643 L 114.442,-499.411 L 114.603,-499.156 L 114.731,-498.883 L 114.825,-498.597
 L 114.881,-498.301 L 114.9,-498 L 114.881,-497.699 L 114.825,-497.403 L 114.731,-497.117 L 114.603,-496.844
 L 114.442,-496.589 L 114.25,-496.357 L 114.03,-496.151 L 113.786,-495.974 L 113.522,-495.828 L 113.242,-495.717
 L 112.95,-495.643 L 112.651,-495.605 z
M -112.651,-495.605 L -112.95,-495.643 L -113.242,-495.717 L -113.522,-495.828 L -113.786,-495.974 L -114.03,-496.151
 L -114.25,-496.357 L -114.442,-496.589 L -114.603,-496.844 L -114.731,-497.117 L -114.825,-497.403 L -114.881,-497.699
 L -114.9,-498 L -114.881,-498.301 L -114.825,-498.597 L -114.731,-498.883 L -114.603,-499.156 L -114.442,-499.411
 L -114.25,-499.643 L -114.03,-499.849 L -113.786,-500.026 L -113.522,-500.172 L -113.242,-500.283 L -112.95,-500.357
 L -112.651,-500.395 L -112.349,-500.395 L -112.05,-500.357 L -111.758,-500.283 L -111.478,-500.172 L -111.214,-500.026
 L -110.97,-499.849 L -110.75,-499.643 L -110.558,-499.411 L -110.397,-499.156 L -110.269,-498.883 L -110.175,-498.597
 L -110.119,-498.301 L -110.1,-498 L -110.119,-497.699 L -110.175,-497.403 L -110.269,-497.117 L -110.397,-496.844
 L -110.558,-496.589 L -110.75,-496.357 L -110.97,-496.151 L -111.214,-495.974 L -111.478,-495.828 L -111.758,-495.717
 L -112.05,-495.643 L -112.349,-495.605 z
M 112.349,-315.605 L 112.05,-315.643 L 111.758,-315.717 L 111.478,-315.828 L 111.214,-315.974 L 110.97,-316.151
 L 110.75,-316.357 L 110.558,-316.589 L 110.397,-316.844 L 110.269,-317.117 L 110.175,-317.403 L 110.119,-317.699
 L 110.1,-318 L 110.119,-318.301 L 110.175,-318.597 L 110.269,-318.883 L 110.397,-319.156 L 110.558,-319.411
 L 110.75,-319.643 L 110.97,-319.849 L 111.214,-320.026 L 111.478,-320.172 L 111.758,-320.283 L 112.05,-320.357
 L 112.349,-320.395 L 112.651,-320.395 L 112.95,-320.357 L 113.242,-320.283 L 113.522,-320.172 L 113.786,-320.026
 L 114.03,-319.849 L 114.25,-319.643 L 114.442,-319.411 L 114.603,-319.156 L 114.731,-318.883 L 114.825,-318.597
 L 114.881,-318.301 L 114.9,-318 L 114.881,-317.699 L 114.825,-317.403 L 114.731,-317.117 L 114.603,-316.844
 L 114.442,-316.589 L 114.25,-316.357 L 114.03,-316.151 L 113.786,-315.974 L 113.522,-315.828 L 113.242,-315.717
 L 112.95,-315.643 L 112.651,-315.605 z
M -112.651,-315.605 L -112.95,-315.643 L -113.242,-315.717 L -113.522,-315.828 L -113.786,-315.974 L -114.03,-316.151
 L -114.25,-316.357 L -114.442,-316.589 L -114.603,-316.844 L -114.731,-317.117 L -114.825,-317.403 L -114.881,-317.699
 L -114.9,-318 L -114.881,-318.301 L -114.825,-318.597 L -114.731,-318.883 L -114.603,-319.156 L -114.442,-319.411
 L -114.25,-319.643 L -114.03,-319.849 L -113.786,-320.026 L -113.522,-320.172 L -113.242,-320.283 L -112.95,-320.357
 L -112.651,-320.395 L -112.349,-320.395 L -112.05,-320.357 L -111.758,-320.283 L -111.478,-320.172 L -111.214,-320.026
 L -110.97,-319.849 L -110.75,-319.643 L -110.558,-319.411 L -110.397,-319.156 L -110.269,-318.883 L -110.175,-318.597
 L -110.119,-318.301 L -110.1,-318 L -110.119,-317.699 L -110.175,-317.403 L -110.269,-317.117 L -110.397,-316.844
 L -110.558,-316.589 L -110.75,-316.357 L -110.97,-316.151 L -111.214,-315.974 L -111.478,-315.828 L -111.758,-315.717
 L -112.05,-315.643 L -112.349,-315.605 z
M 115.937,-106.589 L 116.545,-106.745 L 117.129,-106.976 L 117.679,-107.278 L 118.187,-107.647 L 118.645,-108.077
 L 119.045,-108.561 L 119.382,-109.091 L 119.649,-109.659 L 119.843,-110.257 L 119.961,-110.873 L 120,-111.5
 L 120,-296.5 L 119.961,-297.127 L 119.843,-297.743 L 119.649,-298.341 L 119.382,-298.909 L 119.045,-299.439
 L 118.645,-299.923 L 118.187,-300.353 L 117.679,-300.722 L 117.129,-301.024 L 116.545,-301.255 L 115.937,-301.411
 L 115.314,-301.49 L -115.314,-301.49 L -115.937,-301.411 L -116.545,-301.255 L -117.129,-301.024 L -117.679,-300.722
 L -118.187,-300.353 L -118.645,-299.923 L -119.045,-299.439 L -119.382,-298.909 L -119.649,-298.341 L -119.843,-297.743
 L -119.9,-297.444 L -121.5,-297.444 L -121.5,-110.556 L -119.9,-110.556 L -119.843,-110.257 L -119.649,-109.659
 L -119.382,-109.091 L -119.045,-108.561 L -118.645,-108.077 L -118.187,-107.647 L -117.679,-107.278 L -117.129,-106.976
 L -116.545,-106.745 L -115.937,-106.589 L -115.314,-106.51 L 115.314,-106.51 z
M 112.387,-292.204 L 112.163,-292.232 L 111.944,-292.288 L 111.734,-292.371 L 111.536,-292.48 L 111.353,-292.613
 L 111.188,-292.768 L 111.044,-292.942 L 110.923,-293.133 L 110.826,-293.337 L 110.757,-293.552 L 110.714,-293.774
 L 110.7,-294 L 110.714,-294.226 L 110.757,-294.448 L 110.826,-294.663 L 110.923,-294.867 L 111.044,-295.058
 L 111.188,-295.232 L 111.353,-295.387 L 111.536,-295.52 L 111.734,-295.629 L 111.944,-295.712 L 112.163,-295.768
 L 112.387,-295.796 L 112.613,-295.796 L 112.837,-295.768 L 113.056,-295.712 L 113.266,-295.629 L 113.464,-295.52
 L 113.647,-295.387 L 113.812,-295.232 L 113.956,-295.058 L 114.077,-294.867 L 114.174,-294.663 L 114.243,-294.448
 L 114.286,-294.226 L 114.3,-294 L 114.286,-293.774 L 114.243,-293.552 L 114.174,-293.337 L 114.077,-293.133
 L 113.956,-292.942 L 113.812,-292.768 L 113.647,-292.613 L 113.464,-292.48 L 113.266,-292.371 L 113.056,-292.288
 L 112.837,-292.232 L 112.613,-292.204 z
M -112.613,-292.204 L -112.837,-292.232 L -113.056,-292.288 L -113.266,-292.371 L -113.464,-292.48 L -113.647,-292.613
 L -113.812,-292.768 L -113.956,-292.942 L -114.077,-293.133 L -114.174,-293.337 L -114.243,-293.552 L -114.286,-293.774
 L -114.3,-294 L -114.286,-294.226 L -114.243,-294.448 L -114.174,-294.663 L -114.077,-294.867 L -113.956,-295.058
 L -113.812,-295.232 L -113.647,-295.387 L -113.464,-295.52 L -113.266,-295.629 L -113.056,-295.712 L -112.837,-295.768
 L -112.613,-295.796 L -112.387,-295.796 L -112.163,-295.768 L -111.944,-295.712 L -111.734,-295.629 L -111.536,-295.52
 L -111.353,-295.387 L -111.188,-295.232 L -111.044,-295.058 L -110.923,-294.867 L -110.826,-294.663 L -110.757,-294.448
 L -110.714,-294.226 L -110.7,-294 L -110.714,-293.774 L -110.757,-293.552 L -110.826,-293.337 L -110.923,-293.133
 L -111.044,-292.942 L -111.188,-292.768 L -111.353,-292.613 L -111.536,-292.48 L -111.734,-292.371 L -111.944,-292.288
 L -112.163,-292.232 L -112.387,-292.204 z
M 112.387,-112.204 L 112.163,-112.232 L 111.944,-112.288 L 111.734,-112.371 L 111.536,-112.48 L 111.353,-112.613
 L 111.188,-112.768 L 111.044,-112.942 L 110.923,-113.133 L 110.826,-113.337 L 110.757,-113.552 L 110.714,-113.774
 L 110.7,-114 L 110.714,-114.226 L 110.757,-114.448 L 110.826,-114.663 L 110.923,-114.867 L 111.044,-115.058
 L 111.188,-115.232 L 111.353,-115.387 L 111.536,-115.52 L 111.734,-115.629 L 111.944,-115.712 L 112.163,-115.768
 L 112.387,-115.796 L 112.613,-115.796 L 112.837,-115.768 L 113.056,-115.712 L 113.266,-115.629 L 113.464,-115.52
 L 113.647,-115.387 L 113.812,-115.232 L 113.956,-115.058 L 114.077,-114.867 L 114.174,-114.663 L 114.243,-114.448
 L 114.286,-114.226 L 114.3,-114 L 114.286,-113.774 L 114.243,-113.552 L 114.174,-113.337 L 114.077,-113.133
 L 113.956,-112.942 L 113.812,-112.768 L 113.647,-112.613 L 113.464,-112.48 L 113.266,-112.371 L 113.056,-112.288
 L 112.837,-112.232 L 112.613,-112.204 z
M -112.613,-112.204 L -112.837,-112.232 L -113.056,-112.288 L -113.266,-112.371 L -113.464,-112.48 L -113.647,-112.613
 L -113.812,-112.768 L -113.956,-112.942 L -114.077,-113.133 L -114.174,-113.337 L -114.243,-113.552 L -114.286,-113.774
 L -114.3,-114 L -114.286,-114.226 L -114.243,-114.448 L -114.174,-114.663 L -114.077,-114.867 L -113.956,-115.058
 L -113.812,-115.232 L -113.647,-115.387 L -113.464,-115.52 L -113.266,-115.629 L -113.056,-115.712 L -112.837,-115.768
 L -112.613,-115.796 L -112.387,-115.796 L -112.163,-115.768 L -111.944,-115.712 L -111.734,-115.629 L -111.536,-115.52
 L -111.353,-115.387 L -111.188,-115.232 L -111.044,-115.058 L -110.923,-114.867 L -110.826,-114.663 L -110.757,-114.448
 L -110.714,-114.226 L -110.7,-114 L -110.714,-113.774 L -110.757,-113.552 L -110.826,-113.337 L -110.923,-113.133
 L -111.044,-112.942 L -111.188,-112.768 L -111.353,-112.613 L -111.536,-112.48 L -111.734,-112.371 L -111.944,-112.288
 L -112.163,-112.232 L -112.387,-112.204 z
" stroke="black" fill="lightgray" stroke-width="0.5"/>
</svg>
