  0
SECTION
  2
BLOCKS
  0
ENDSEC
  0
SECTION
  2
ENTITIES
  0
LINE
  8
0
 10
130.937
 20
114.839
 11
131.545
 21
114.995
  0
LINE
  8
0
 10
131.545
 20
114.995
 11
132.129
 21
115.226
  0
LINE
  8
0
 10
132.129
 20
115.226
 11
132.679
 21
115.528
  0
LINE
  8
0
 10
132.679
 20
115.528
 11
133.187
 21
115.897
  0
LINE
  8
0
 10
133.187
 20
115.897
 11
133.645
 21
116.327
  0
LINE
  8
0
 10
133.645
 20
116.327
 11
134.045
 21
116.811
  0
LINE
  8
0
 10
134.045
 20
116.811
 11
134.382
 21
117.341
  0
LINE
  8
0
 10
134.382
 20
117.341
 11
134.649
 21
117.909
  0
LINE
  8
0
 10
134.649
 20
117.909
 11
134.843
 21
118.507
  0
LINE
  8
0
 10
134.843
 20
118.507
 11
134.961
 21
119.123
  0
LINE
  8
0
 10
134.961
 20
119.123
 11
135
 21
119.75
  0
LINE
  8
0
 10
135
 20
119.75
 11
135
 21
132.25
  0
LINE
  8
0
 10
135
 20
132.25
 11
134.961
 21
132.877
  0
LINE
  8
0
 10
134.961
 20
132.877
 11
134.843
 21
133.493
  0
LINE
  8
0
 10
134.843
 20
133.493
 11
134.649
 21
134.091
  0
LINE
  8
0
 10
134.649
 20
134.091
 11
134.382
 21
134.659
  0
LINE
  8
0
 10
134.382
 20
134.659
 11
134.045
 21
135.189
  0
LINE
  8
0
 10
134.045
 20
135.189
 11
133.645
 21
135.673
  0
LINE
  8
0
 10
133.645
 20
135.673
 11
133.187
 21
136.103
  0
LINE
  8
0
 10
133.187
 20
136.103
 11
132.679
 21
136.472
  0
LINE
  8
0
 10
132.679
 20
136.472
 11
132.129
 21
136.774
  0
LINE
  8
0
 10
132.129
 20
136.774
 11
131.545
 21
137.005
  0
LINE
  8
0
 10
131.545
 20
137.005
 11
130.937
 21
137.161
  0
LINE
  8
0
 10
130.937
 20
137.161
 11
130.314
 21
137.24
  0
LINE
  8
0
 10
130.314
 20
137.24
 11
-130.314
 21
137.24
  0
LINE
  8
0
 10
-130.314
 20
137.24
 11
-130.937
 21
137.161
  0
LINE
  8
0
 10
-130.937
 20
137.161
 11
-131.545
 21
137.005
  0
LINE
  8
0
 10
-131.545
 20
137.005
 11
-132.129
 21
136.774
  0
LINE
  8
0
 10
-132.129
 20
136.774
 11
-132.679
 21
136.472
  0
LINE
  8
0
 10
-132.679
 20
136.472
 11
-133.187
 21
136.103
  0
LINE
  8
0
 10
-133.187
 20
136.103
 11
-133.645
 21
135.673
  0
LINE
  8
0
 10
-133.645
 20
135.673
 11
-134.045
 21
135.189
  0
LINE
  8
0
 10
-134.045
 20
135.189
 11
-134.382
 21
134.659
  0
LINE
  8
0
 10
-134.382
 20
134.659
 11
-134.649
 21
134.091
  0
LINE
  8
0
 10
-134.649
 20
134.091
 11
-134.843
 21
133.493
  0
LINE
  8
0
 10
-134.843
 20
133.493
 11
-134.961
 21
132.877
  0
LINE
  8
0
 10
-134.961
 20
132.877
 11
-135
 21
132.25
  0
LINE
  8
0
 10
-135
 20
132.25
 11
-135
 21
119.75
  0
LINE
  8
0
 10
-135
 20
119.75
 11
-134.961
 21
119.123
  0
LINE
  8
0
 10
-134.961
 20
119.123
 11
-134.843
 21
118.507
  0
LINE
  8
0
 10
-134.843
 20
118.507
 11
-134.649
 21
117.909
  0
LINE
  8
0
 10
-134.649
 20
117.909
 11
-134.382
 21
117.341
  0
LINE
  8
0
 10
-134.382
 20
117.341
 11
-134.045
 21
116.811
  0
LINE
  8
0
 10
-134.045
 20
116.811
 11
-133.645
 21
116.327
  0
LINE
  8
0
 10
-133.645
 20
116.327
 11
-133.187
 21
115.897
  0
LINE
  8
0
 10
-133.187
 20
115.897
 11
-132.679
 21
115.528
  0
LINE
  8
0
 10
-132.679
 20
115.528
 11
-132.129
 21
115.226
  0
LINE
  8
0
 10
-132.129
 20
115.226
 11
-131.545
 21
114.995
  0
LINE
  8
0
 10
-131.545
 20
114.995
 11
-130.937
 21
114.839
  0
LINE
  8
0
 10
-130.937
 20
114.839
 11
-130.314
 21
114.76
  0
LINE
  8
0
 10
-130.314
 20
114.76
 11
130.314
 21
114.76
  0
LINE
  8
0
 10
130.314
 20
114.76
 11
130.937
 21
114.839
  0
LINE
  8
0
 10
-130.048
 20
115.259
 11
-130.64
 21
115.334
  0
LINE
  8
0
 10
-130.64
 20
115.334
 11
-131.218
 21
115.482
  0
LINE
  8
0
 10
-131.218
 20
115.482
 11
-131.772
 21
115.702
  0
LINE
  8
0
 10
-131.772
 20
115.702
 11
-132.295
 21
115.989
  0
LINE
  8
0
 10
-132.295
 20
115.989
 11
-132.778
 21
116.34
  0
LINE
  8
0
 10
-132.778
 20
116.34
 11
-133.213
 21
116.748
  0
LINE
  8
0
 10
-133.213
 20
116.748
 11
-133.593
 21
117.208
  0
LINE
  8
0
 10
-133.593
 20
117.208
 11
-133.912
 21
117.712
  0
LINE
  8
0
 10
-133.912
 20
117.712
 11
-134.166
 21
118.251
  0
LINE
  8
0
 10
-134.166
 20
118.251
 11
-134.351
 21
118.819
  0
LINE
  8
0
 10
-134.351
 20
118.819
 11
-134.463
 21
119.405
  0
LINE
  8
0
 10
-134.463
 20
119.405
 11
-134.5
 21
120
  0
LINE
  8
0
 10
-134.5
 20
120
 11
-134.5
 21
132
  0
LINE
  8
0
 10
-134.5
 20
132
 11
-134.463
 21
132.595
  0
LINE
  8
0
 10
-134.463
 20
132.595
 11
-134.351
 21
133.181
  0
LINE
  8
0
 10
-134.351
 20
133.181
 11
-134.166
 21
133.749
  0
LINE
  8
0
 10
-134.166
 20
133.749
 11
-133.912
 21
134.288
  0
LINE
  8
0
 10
-133.912
 20
134.288
 11
-133.593
 21
134.792
  0
LINE
  8
0
 10
-133.593
 20
134.792
 11
-133.213
 21
135.252
  0
LINE
  8
0
 10
-133.213
 20
135.252
 11
-132.778
 21
135.66
  0
LINE
  8
0
 10
-132.778
 20
135.66
 11
-132.295
 21
136.011
  0
LINE
  8
0
 10
-132.295
 20
136.011
 11
-131.772
 21
136.298
  0
LINE
  8
0
 10
-131.772
 20
136.298
 11
-131.218
 21
136.518
  0
LINE
  8
0
 10
-131.218
 20
136.518
 11
-130.64
 21
136.666
  0
LINE
  8
0
 10
-130.64
 20
136.666
 11
-130.048
 21
136.741
  0
LINE
  8
0
 10
-130.048
 20
136.741
 11
130.048
 21
136.741
  0
LINE
  8
0
 10
130.048
 20
136.741
 11
130.64
 21
136.666
  0
LINE
  8
0
 10
130.64
 20
136.666
 11
131.218
 21
136.518
  0
LINE
  8
0
 10
131.218
 20
136.518
 11
131.772
 21
136.298
  0
LINE
  8
0
 10
131.772
 20
136.298
 11
132.295
 21
136.011
  0
LINE
  8
0
 10
132.295
 20
136.011
 11
132.778
 21
135.66
  0
LINE
  8
0
 10
132.778
 20
135.66
 11
133.213
 21
135.252
  0
LINE
  8
0
 10
133.213
 20
135.252
 11
133.593
 21
134.792
  0
LINE
  8
0
 10
133.593
 20
134.792
 11
133.912
 21
134.288
  0
LINE
  8
0
 10
133.912
 20
134.288
 11
134.166
 21
133.749
  0
LINE
  8
0
 10
134.166
 20
133.749
 11
134.351
 21
133.181
  0
LINE
  8
0
 10
134.351
 20
133.181
 11
134.463
 21
132.595
  0
LINE
  8
0
 10
134.463
 20
132.595
 11
134.5
 21
132
  0
LINE
  8
0
 10
134.5
 20
132
 11
134.5
 21
120
  0
LINE
  8
0
 10
134.5
 20
120
 11
134.463
 21
119.405
  0
LINE
  8
0
 10
134.463
 20
119.405
 11
134.351
 21
118.819
  0
LINE
  8
0
 10
134.351
 20
118.819
 11
134.166
 21
118.251
  0
LINE
  8
0
 10
134.166
 20
118.251
 11
133.912
 21
117.712
  0
LINE
  8
0
 10
133.912
 20
117.712
 11
133.593
 21
117.208
  0
LINE
  8
0
 10
133.593
 20
117.208
 11
133.213
 21
116.748
  0
LINE
  8
0
 10
133.213
 20
116.748
 11
132.778
 21
116.34
  0
LINE
  8
0
 10
132.778
 20
116.34
 11
132.295
 21
115.989
  0
LINE
  8
0
 10
132.295
 20
115.989
 11
131.772
 21
115.702
  0
LINE
  8
0
 10
131.772
 20
115.702
 11
131.218
 21
115.482
  0
LINE
  8
0
 10
131.218
 20
115.482
 11
130.64
 21
115.334
  0
LINE
  8
0
 10
130.64
 20
115.334
 11
130.048
 21
115.259
  0
LINE
  8
0
 10
130.048
 20
115.259
 11
-130.048
 21
115.259
  0
LINE
  8
0
 10
130.937
 20
83.3386
 11
131.545
 21
83.4947
  0
LINE
  8
0
 10
131.545
 20
83.4947
 11
132.129
 21
83.7259
  0
LINE
  8
0
 10
132.129
 20
83.7259
 11
132.679
 21
84.0284
  0
LINE
  8
0
 10
132.679
 20
84.0284
 11
133.187
 21
84.3974
  0
LINE
  8
0
 10
133.187
 20
84.3974
 11
133.645
 21
84.8273
  0
LINE
  8
0
 10
133.645
 20
84.8273
 11
134.045
 21
85.3111
  0
LINE
  8
0
 10
134.045
 20
85.3111
 11
134.382
 21
85.8412
  0
LINE
  8
0
 10
134.382
 20
85.8412
 11
134.649
 21
86.4094
  0
LINE
  8
0
 10
134.649
 20
86.4094
 11
134.843
 21
87.0066
  0
LINE
  8
0
 10
134.843
 20
87.0066
 11
134.961
 21
87.6233
  0
LINE
  8
0
 10
134.961
 20
87.6233
 11
135
 21
88.25
  0
LINE
  8
0
 10
135
 20
88.25
 11
135
 21
100.75
  0
LINE
  8
0
 10
135
 20
100.75
 11
134.961
 21
101.377
  0
LINE
  8
0
 10
134.961
 20
101.377
 11
134.843
 21
101.993
  0
LINE
  8
0
 10
134.843
 20
101.993
 11
134.649
 21
102.591
  0
LINE
  8
0
 10
134.649
 20
102.591
 11
134.382
 21
103.159
  0
LINE
  8
0
 10
134.382
 20
103.159
 11
134.045
 21
103.689
  0
LINE
  8
0
 10
134.045
 20
103.689
 11
133.645
 21
104.173
  0
LINE
  8
0
 10
133.645
 20
104.173
 11
133.187
 21
104.603
  0
LINE
  8
0
 10
133.187
 20
104.603
 11
132.679
 21
104.972
  0
LINE
  8
0
 10
132.679
 20
104.972
 11
132.129
 21
105.274
  0
LINE
  8
0
 10
132.129
 20
105.274
 11
131.545
 21
105.505
  0
LINE
  8
0
 10
131.545
 20
105.505
 11
130.937
 21
105.661
  0
LINE
  8
0
 10
130.937
 20
105.661
 11
130.314
 21
105.74
  0
LINE
  8
0
 10
130.314
 20
105.74
 11
-130.314
 21
105.74
  0
LINE
  8
0
 10
-130.314
 20
105.74
 11
-130.937
 21
105.661
  0
LINE
  8
0
 10
-130.937
 20
105.661
 11
-131.545
 21
105.505
  0
LINE
  8
0
 10
-131.545
 20
105.505
 11
-132.129
 21
105.274
  0
LINE
  8
0
 10
-132.129
 20
105.274
 11
-132.679
 21
104.972
  0
LINE
  8
0
 10
-132.679
 20
104.972
 11
-133.187
 21
104.603
  0
LINE
  8
0
 10
-133.187
 20
104.603
 11
-133.645
 21
104.173
  0
LINE
  8
0
 10
-133.645
 20
104.173
 11
-134.045
 21
103.689
  0
LINE
  8
0
 10
-134.045
 20
103.689
 11
-134.382
 21
103.159
  0
LINE
  8
0
 10
-134.382
 20
103.159
 11
-134.649
 21
102.591
  0
LINE
  8
0
 10
-134.649
 20
102.591
 11
-134.843
 21
101.993
  0
LINE
  8
0
 10
-134.843
 20
101.993
 11
-134.961
 21
101.377
  0
LINE
  8
0
 10
-134.961
 20
101.377
 11
-135
 21
100.75
  0
LINE
  8
0
 10
-135
 20
100.75
 11
-135
 21
88.25
  0
LINE
  8
0
 10
-135
 20
88.25
 11
-134.961
 21
87.6233
  0
LINE
  8
0
 10
-134.961
 20
87.6233
 11
-134.843
 21
87.0066
  0
LINE
  8
0
 10
-134.843
 20
87.0066
 11
-134.649
 21
86.4094
  0
LINE
  8
0
 10
-134.649
 20
86.4094
 11
-134.382
 21
85.8412
  0
LINE
  8
0
 10
-134.382
 20
85.8412
 11
-134.045
 21
85.3111
  0
LINE
  8
0
 10
-134.045
 20
85.3111
 11
-133.645
 21
84.8273
  0
LINE
  8
0
 10
-133.645
 20
84.8273
 11
-133.187
 21
84.3974
  0
LINE
  8
0
 10
-133.187
 20
84.3974
 11
-132.679
 21
84.0284
  0
LINE
  8
0
 10
-132.679
 20
84.0284
 11
-132.129
 21
83.7259
  0
LINE
  8
0
 10
-132.129
 20
83.7259
 11
-131.545
 21
83.4947
  0
LINE
  8
0
 10
-131.545
 20
83.4947
 11
-130.937
 21
83.3386
  0
LINE
  8
0
 10
-130.937
 20
83.3386
 11
-130.314
 21
83.2599
  0
LINE
  8
0
 10
-130.314
 20
83.2599
 11
130.314
 21
83.2599
  0
LINE
  8
0
 10
130.314
 20
83.2599
 11
130.937
 21
83.3386
  0
LINE
  8
0
 10
-129.993
 20
84.6382
 11
-130.475
 21
84.6991
  0
LINE
  8
0
 10
-130.475
 20
84.6991
 11
-130.946
 21
84.8199
  0
LINE
  8
0
 10
-130.946
 20
84.8199
 11
-131.398
 21
84.9988
  0
LINE
  8
0
 10
-131.398
 20
84.9988
 11
-131.823
 21
85.2329
  0
LINE
  8
0
 10
-131.823
 20
85.2329
 11
-132.216
 21
85.5185
  0
LINE
  8
0
 10
-132.216
 20
85.5185
 11
-132.571
 21
85.8512
  0
LINE
  8
0
 10
-132.571
 20
85.8512
 11
-132.88
 21
86.2256
  0
LINE
  8
0
 10
-132.88
 20
86.2256
 11
-133.141
 21
86.6359
  0
LINE
  8
0
 10
-133.141
 20
86.6359
 11
-133.348
 21
87.0756
  0
LINE
  8
0
 10
-133.348
 20
87.0756
 11
-133.498
 21
87.5377
  0
LINE
  8
0
 10
-133.498
 20
87.5377
 11
-133.589
 21
88.015
  0
LINE
  8
0
 10
-133.589
 20
88.015
 11
-133.619
 21
88.5
  0
LINE
  8
0
 10
-133.619
 20
88.5
 11
-133.619
 21
100.5
  0
LINE
  8
0
 10
-133.619
 20
100.5
 11
-133.589
 21
100.985
  0
LINE
  8
0
 10
-133.589
 20
100.985
 11
-133.498
 21
101.462
  0
LINE
  8
0
 10
-133.498
 20
101.462
 11
-133.348
 21
101.924
  0
LINE
  8
0
 10
-133.348
 20
101.924
 11
-133.141
 21
102.364
  0
LINE
  8
0
 10
-133.141
 20
102.364
 11
-132.88
 21
102.774
  0
LINE
  8
0
 10
-132.88
 20
102.774
 11
-132.571
 21
103.149
  0
LINE
  8
0
 10
-132.571
 20
103.149
 11
-132.216
 21
103.481
  0
LINE
  8
0
 10
-132.216
 20
103.481
 11
-131.823
 21
103.767
  0
LINE
  8
0
 10
-131.823
 20
103.767
 11
-131.398
 21
104.001
  0
LINE
  8
0
 10
-131.398
 20
104.001
 11
-130.946
 21
104.18
  0
LINE
  8
0
 10
-130.946
 20
104.18
 11
-130.475
 21
104.301
  0
LINE
  8
0
 10
-130.475
 20
104.301
 11
-129.993
 21
104.362
  0
LINE
  8
0
 10
-129.993
 20
104.362
 11
129.993
 21
104.362
  0
LINE
  8
0
 10
129.993
 20
104.362
 11
130.475
 21
104.301
  0
LINE
  8
0
 10
130.475
 20
104.301
 11
130.946
 21
104.18
  0
LINE
  8
0
 10
130.946
 20
104.18
 11
131.398
 21
104.001
  0
LINE
  8
0
 10
131.398
 20
104.001
 11
131.823
 21
103.767
  0
LINE
  8
0
 10
131.823
 20
103.767
 11
132.216
 21
103.481
  0
LINE
  8
0
 10
132.216
 20
103.481
 11
132.571
 21
103.149
  0
LINE
  8
0
 10
132.571
 20
103.149
 11
132.88
 21
102.774
  0
LINE
  8
0
 10
132.88
 20
102.774
 11
133.141
 21
102.364
  0
LINE
  8
0
 10
133.141
 20
102.364
 11
133.348
 21
101.924
  0
LINE
  8
0
 10
133.348
 20
101.924
 11
133.498
 21
101.462
  0
LINE
  8
0
 10
133.498
 20
101.462
 11
133.589
 21
100.985
  0
LINE
  8
0
 10
133.589
 20
100.985
 11
133.619
 21
100.5
  0
LINE
  8
0
 10
133.619
 20
100.5
 11
133.619
 21
88.5
  0
LINE
  8
0
 10
133.619
 20
88.5
 11
133.589
 21
88.015
  0
LINE
  8
0
 10
133.589
 20
88.015
 11
133.498
 21
87.5377
  0
LINE
  8
0
 10
133.498
 20
87.5377
 11
133.348
 21
87.0756
  0
LINE
  8
0
 10
133.348
 20
87.0756
 11
133.141
 21
86.6359
  0
LINE
  8
0
 10
133.141
 20
86.6359
 11
132.88
 21
86.2256
  0
LINE
  8
0
 10
132.88
 20
86.2256
 11
132.571
 21
85.8512
  0
LINE
  8
0
 10
132.571
 20
85.8512
 11
132.216
 21
85.5185
  0
LINE
  8
0
 10
132.216
 20
85.5185
 11
131.823
 21
85.2329
  0
LINE
  8
0
 10
131.823
 20
85.2329
 11
131.398
 21
84.9988
  0
LINE
  8
0
 10
131.398
 20
84.9988
 11
130.946
 21
84.8199
  0
LINE
  8
0
 10
130.946
 20
84.8199
 11
130.475
 21
84.6991
  0
LINE
  8
0
 10
130.475
 20
84.6991
 11
129.993
 21
84.6382
  0
LINE
  8
0
 10
129.993
 20
84.6382
 11
-129.993
 21
84.6382
  0
LINE
  8
0
 10
130.937
 20
51.8386
 11
131.545
 21
51.9947
  0
LINE
  8
0
 10
131.545
 20
51.9947
 11
132.129
 21
52.2259
  0
LINE
  8
0
 10
132.129
 20
52.2259
 11
132.679
 21
52.5284
  0
LINE
  8
0
 10
132.679
 20
52.5284
 11
133.187
 21
52.8974
  0
LINE
  8
0
 10
133.187
 20
52.8974
 11
133.645
 21
53.3273
  0
LINE
  8
0
 10
133.645
 20
53.3273
 11
134.045
 21
53.8111
  0
LINE
  8
0
 10
134.045
 20
53.8111
 11
134.382
 21
54.3412
  0
LINE
  8
0
 10
134.382
 20
54.3412
 11
134.649
 21
54.9094
  0
LINE
  8
0
 10
134.649
 20
54.9094
 11
134.843
 21
55.5066
  0
LINE
  8
0
 10
134.843
 20
55.5066
 11
134.961
 21
56.1233
  0
LINE
  8
0
 10
134.961
 20
56.1233
 11
135
 21
56.75
  0
LINE
  8
0
 10
135
 20
56.75
 11
135
 21
69.25
  0
LINE
  8
0
 10
135
 20
69.25
 11
134.961
 21
69.8767
  0
LINE
  8
0
 10
134.961
 20
69.8767
 11
134.843
 21
70.4934
  0
LINE
  8
0
 10
134.843
 20
70.4934
 11
134.649
 21
71.0906
  0
LINE
  8
0
 10
134.649
 20
71.0906
 11
134.382
 21
71.6588
  0
LINE
  8
0
 10
134.382
 20
71.6588
 11
134.045
 21
72.1889
  0
LINE
  8
0
 10
134.045
 20
72.1889
 11
133.645
 21
72.6727
  0
LINE
  8
0
 10
133.645
 20
72.6727
 11
133.187
 21
73.1026
  0
LINE
  8
0
 10
133.187
 20
73.1026
 11
132.679
 21
73.4716
  0
LINE
  8
0
 10
132.679
 20
73.4716
 11
132.129
 21
73.7741
  0
LINE
  8
0
 10
132.129
 20
73.7741
 11
131.545
 21
74.0053
  0
LINE
  8
0
 10
131.545
 20
74.0053
 11
130.937
 21
74.1614
  0
LINE
  8
0
 10
130.937
 20
74.1614
 11
130.314
 21
74.2401
  0
LINE
  8
0
 10
130.314
 20
74.2401
 11
-130.314
 21
74.2401
  0
LINE
  8
0
 10
-130.314
 20
74.2401
 11
-130.937
 21
74.1614
  0
LINE
  8
0
 10
-130.937
 20
74.1614
 11
-131.545
 21
74.0053
  0
LINE
  8
0
 10
-131.545
 20
74.0053
 11
-132.129
 21
73.7741
  0
LINE
  8
0
 10
-132.129
 20
73.7741
 11
-132.679
 21
73.4716
  0
LINE
  8
0
 10
-132.679
 20
73.4716
 11
-133.187
 21
73.1026
  0
LINE
  8
0
 10
-133.187
 20
73.1026
 11
-133.645
 21
72.6727
  0
LINE
  8
0
 10
-133.645
 20
72.6727
 11
-134.045
 21
72.1889
  0
LINE
  8
0
 10
-134.045
 20
72.1889
 11
-134.382
 21
71.6588
  0
LINE
  8
0
 10
-134.382
 20
71.6588
 11
-134.649
 21
71.0906
  0
LINE
  8
0
 10
-134.649
 20
71.0906
 11
-134.843
 21
70.4934
  0
LINE
  8
0
 10
-134.843
 20
70.4934
 11
-134.961
 21
69.8767
  0
LINE
  8
0
 10
-134.961
 20
69.8767
 11
-135
 21
69.25
  0
LINE
  8
0
 10
-135
 20
69.25
 11
-135
 21
56.75
  0
LINE
  8
0
 10
-135
 20
56.75
 11
-134.961
 21
56.1233
  0
LINE
  8
0
 10
-134.961
 20
56.1233
 11
-134.843
 21
55.5066
  0
LINE
  8
0
 10
-134.843
 20
55.5066
 11
-134.649
 21
54.9094
  0
LINE
  8
0
 10
-134.649
 20
54.9094
 11
-134.382
 21
54.3412
  0
LINE
  8
0
 10
-134.382
 20
54.3412
 11
-134.045
 21
53.8111
  0
LINE
  8
0
 10
-134.045
 20
53.8111
 11
-133.645
 21
53.3273
  0
LINE
  8
0
 10
-133.645
 20
53.3273
 11
-133.187
 21
52.8974
  0
LINE
  8
0
 10
-133.187
 20
52.8974
 11
-132.679
 21
52.5284
  0
LINE
  8
0
 10
-132.679
 20
52.5284
 11
-132.129
 21
52.2259
  0
LINE
  8
0
 10
-132.129
 20
52.2259
 11
-131.545
 21
51.9947
  0
LINE
  8
0
 10
-131.545
 20
51.9947
 11
-130.937
 21
51.8386
  0
LINE
  8
0
 10
-130.937
 20
51.8386
 11
-130.314
 21
51.7599
  0
LINE
  8
0
 10
-130.314
 20
51.7599
 11
130.314
 21
51.7599
  0
LINE
  8
0
 10
130.314
 20
51.7599
 11
130.937
 21
51.8386
  0
LINE
  8
0
 10
-127.613
 20
64.9536
 11
-127.837
 21
64.9819
  0
LINE
  8
0
 10
-127.837
 20
64.9819
 11
-128.056
 21
65.0381
  0
LINE
  8
0
 10
-128.056
 20
65.0381
 11
-128.266
 21
65.1213
  0
LINE
  8
0
 10
-128.266
 20
65.1213
 11
-128.464
 21
65.2302
  0
LINE
  8
0
 10
-128.464
 20
65.2302
 11
-128.647
 21
65.3631
  0
LINE
  8
0
 10
-128.647
 20
65.3631
 11
-128.812
 21
65.5178
  0
LINE
  8
0
 10
-128.812
 20
65.5178
 11
-128.956
 21
65.692
  0
LINE
  8
0
 10
-128.956
 20
65.692
 11
-129.077
 21
65.8828
  0
LINE
  8
0
 10
-129.077
 20
65.8828
 11
-129.174
 21
66.0874
  0
LINE
  8
0
 10
-129.174
 20
66.0874
 11
-129.243
 21
66.3024
  0
LINE
  8
0
 10
-129.243
 20
66.3024
 11
-129.286
 21
66.5244
  0
LINE
  8
0
 10
-129.286
 20
66.5244
 11
-129.3
 21
66.75
  0
LINE
  8
0
 10
-129.3
 20
66.75
 11
-129.286
 21
66.9756
  0
LINE
  8
0
 10
-129.286
 20
66.9756
 11
-129.243
 21
67.1976
  0
LINE
  8
0
 10
-129.243
 20
67.1976
 11
-129.174
 21
67.4126
  0
LINE
  8
0
 10
-129.174
 20
67.4126
 11
-129.077
 21
67.6171
  0
LINE
  8
0
 10
-129.077
 20
67.6171
 11
-128.956
 21
67.808
  0
LINE
  8
0
 10
-128.956
 20
67.808
 11
-128.812
 21
67.9822
  0
LINE
  8
0
 10
-128.812
 20
67.9822
 11
-128.647
 21
68.1369
  0
LINE
  8
0
 10
-128.647
 20
68.1369
 11
-128.464
 21
68.2698
  0
LINE
  8
0
 10
-128.464
 20
68.2698
 11
-128.266
 21
68.3787
  0
LINE
  8
0
 10
-128.266
 20
68.3787
 11
-128.056
 21
68.4619
  0
LINE
  8
0
 10
-128.056
 20
68.4619
 11
-127.837
 21
68.5181
  0
LINE
  8
0
 10
-127.837
 20
68.5181
 11
-127.613
 21
68.5464
  0
LINE
  8
0
 10
-127.613
 20
68.5464
 11
-127.387
 21
68.5464
  0
LINE
  8
0
 10
-127.387
 20
68.5464
 11
-127.163
 21
68.5181
  0
LINE
  8
0
 10
-127.163
 20
68.5181
 11
-126.944
 21
68.4619
  0
LINE
  8
0
 10
-126.944
 20
68.4619
 11
-126.734
 21
68.3787
  0
LINE
  8
0
 10
-126.734
 20
68.3787
 11
-126.536
 21
68.2698
  0
LINE
  8
0
 10
-126.536
 20
68.2698
 11
-126.353
 21
68.1369
  0
LINE
  8
0
 10
-126.353
 20
68.1369
 11
-126.188
 21
67.9822
  0
LINE
  8
0
 10
-126.188
 20
67.9822
 11
-126.044
 21
67.808
  0
LINE
  8
0
 10
-126.044
 20
67.808
 11
-125.923
 21
67.6171
  0
LINE
  8
0
 10
-125.923
 20
67.6171
 11
-125.826
 21
67.4126
  0
LINE
  8
0
 10
-125.826
 20
67.4126
 11
-125.757
 21
67.1976
  0
LINE
  8
0
 10
-125.757
 20
67.1976
 11
-125.714
 21
66.9756
  0
LINE
  8
0
 10
-125.714
 20
66.9756
 11
-125.7
 21
66.75
  0
LINE
  8
0
 10
-125.7
 20
66.75
 11
-125.714
 21
66.5244
  0
LINE
  8
0
 10
-125.714
 20
66.5244
 11
-125.757
 21
66.3024
  0
LINE
  8
0
 10
-125.757
 20
66.3024
 11
-125.826
 21
66.0874
  0
LINE
  8
0
 10
-125.826
 20
66.0874
 11
-125.923
 21
65.8828
  0
LINE
  8
0
 10
-125.923
 20
65.8828
 11
-126.044
 21
65.692
  0
LINE
  8
0
 10
-126.044
 20
65.692
 11
-126.188
 21
65.5178
  0
LINE
  8
0
 10
-126.188
 20
65.5178
 11
-126.353
 21
65.3631
  0
LINE
  8
0
 10
-126.353
 20
65.3631
 11
-126.536
 21
65.2302
  0
LINE
  8
0
 10
-126.536
 20
65.2302
 11
-126.734
 21
65.1213
  0
LINE
  8
0
 10
-126.734
 20
65.1213
 11
-126.944
 21
65.0381
  0
LINE
  8
0
 10
-126.944
 20
65.0381
 11
-127.163
 21
64.9819
  0
LINE
  8
0
 10
-127.163
 20
64.9819
 11
-127.387
 21
64.9536
  0
LINE
  8
0
 10
-127.387
 20
64.9536
 11
-127.613
 21
64.9536
  0
LINE
  8
0
 10
127.387
 20
64.9536
 11
127.163
 21
64.9819
  0
LINE
  8
0
 10
127.163
 20
64.9819
 11
126.944
 21
65.0381
  0
LINE
  8
0
 10
126.944
 20
65.0381
 11
126.734
 21
65.1213
  0
LINE
  8
0
 10
126.734
 20
65.1213
 11
126.536
 21
65.2302
  0
LINE
  8
0
 10
126.536
 20
65.2302
 11
126.353
 21
65.3631
  0
LINE
  8
0
 10
126.353
 20
65.3631
 11
126.188
 21
65.5178
  0
LINE
  8
0
 10
126.188
 20
65.5178
 11
126.044
 21
65.692
  0
LINE
  8
0
 10
126.044
 20
65.692
 11
125.923
 21
65.8828
  0
LINE
  8
0
 10
125.923
 20
65.8828
 11
125.826
 21
66.0874
  0
LINE
  8
0
 10
125.826
 20
66.0874
 11
125.757
 21
66.3024
  0
LINE
  8
0
 10
125.757
 20
66.3024
 11
125.714
 21
66.5244
  0
LINE
  8
0
 10
125.714
 20
66.5244
 11
125.7
 21
66.75
  0
LINE
  8
0
 10
125.7
 20
66.75
 11
125.714
 21
66.9756
  0
LINE
  8
0
 10
125.714
 20
66.9756
 11
125.757
 21
67.1976
  0
LINE
  8
0
 10
125.757
 20
67.1976
 11
125.826
 21
67.4126
  0
LINE
  8
0
 10
125.826
 20
67.4126
 11
125.923
 21
67.6171
  0
LINE
  8
0
 10
125.923
 20
67.6171
 11
126.044
 21
67.808
  0
LINE
  8
0
 10
126.044
 20
67.808
 11
126.188
 21
67.9822
  0
LINE
  8
0
 10
126.188
 20
67.9822
 11
126.353
 21
68.1369
  0
LINE
  8
0
 10
126.353
 20
68.1369
 11
126.536
 21
68.2698
  0
LINE
  8
0
 10
126.536
 20
68.2698
 11
126.734
 21
68.3787
  0
LINE
  8
0
 10
126.734
 20
68.3787
 11
126.944
 21
68.4619
  0
LINE
  8
0
 10
126.944
 20
68.4619
 11
127.163
 21
68.5181
  0
LINE
  8
0
 10
127.163
 20
68.5181
 11
127.387
 21
68.5464
  0
LINE
  8
0
 10
127.387
 20
68.5464
 11
127.613
 21
68.5464
  0
LINE
  8
0
 10
127.613
 20
68.5464
 11
127.837
 21
68.5181
  0
LINE
  8
0
 10
127.837
 20
68.5181
 11
128.056
 21
68.4619
  0
LINE
  8
0
 10
128.056
 20
68.4619
 11
128.266
 21
68.3787
  0
LINE
  8
0
 10
128.266
 20
68.3787
 11
128.464
 21
68.2698
  0
LINE
  8
0
 10
128.464
 20
68.2698
 11
128.647
 21
68.1369
  0
LINE
  8
0
 10
128.647
 20
68.1369
 11
128.812
 21
67.9822
  0
LINE
  8
0
 10
128.812
 20
67.9822
 11
128.956
 21
67.808
  0
LINE
  8
0
 10
128.956
 20
67.808
 11
129.077
 21
67.6171
  0
LINE
  8
0
 10
129.077
 20
67.6171
 11
129.174
 21
67.4126
  0
LINE
  8
0
 10
129.174
 20
67.4126
 11
129.243
 21
67.1976
  0
LINE
  8
0
 10
129.243
 20
67.1976
 11
129.286
 21
66.9756
  0
LINE
  8
0
 10
129.286
 20
66.9756
 11
129.3
 21
66.75
  0
LINE
  8
0
 10
129.3
 20
66.75
 11
129.286
 21
66.5244
  0
LINE
  8
0
 10
129.286
 20
66.5244
 11
129.243
 21
66.3024
  0
LINE
  8
0
 10
129.243
 20
66.3024
 11
129.174
 21
66.0874
  0
LINE
  8
0
 10
129.174
 20
66.0874
 11
129.077
 21
65.8828
  0
LINE
  8
0
 10
129.077
 20
65.8828
 11
128.956
 21
65.692
  0
LINE
  8
0
 10
128.956
 20
65.692
 11
128.812
 21
65.5178
  0
LINE
  8
0
 10
128.812
 20
65.5178
 11
128.647
 21
65.3631
  0
LINE
  8
0
 10
128.647
 20
65.3631
 11
128.464
 21
65.2302
  0
LINE
  8
0
 10
128.464
 20
65.2302
 11
128.266
 21
65.1213
  0
LINE
  8
0
 10
128.266
 20
65.1213
 11
128.056
 21
65.0381
  0
LINE
  8
0
 10
128.056
 20
65.0381
 11
127.837
 21
64.9819
  0
LINE
  8
0
 10
127.837
 20
64.9819
 11
127.613
 21
64.9536
  0
LINE
  8
0
 10
127.613
 20
64.9536
 11
127.387
 21
64.9536
  0
LINE
  8
0
 10
127.387
 20
57.4536
 11
127.163
 21
57.4819
  0
LINE
  8
0
 10
127.163
 20
57.4819
 11
126.944
 21
57.5381
  0
LINE
  8
0
 10
126.944
 20
57.5381
 11
126.734
 21
57.6213
  0
LINE
  8
0
 10
126.734
 20
57.6213
 11
126.536
 21
57.7302
  0
LINE
  8
0
 10
126.536
 20
57.7302
 11
126.353
 21
57.8631
  0
LINE
  8
0
 10
126.353
 20
57.8631
 11
126.188
 21
58.0178
  0
LINE
  8
0
 10
126.188
 20
58.0178
 11
126.044
 21
58.192
  0
LINE
  8
0
 10
126.044
 20
58.192
 11
125.923
 21
58.3829
  0
LINE
  8
0
 10
125.923
 20
58.3829
 11
125.826
 21
58.5874
  0
LINE
  8
0
 10
125.826
 20
58.5874
 11
125.757
 21
58.8024
  0
LINE
  8
0
 10
125.757
 20
58.8024
 11
125.714
 21
59.0244
  0
LINE
  8
0
 10
125.714
 20
59.0244
 11
125.7
 21
59.25
  0
LINE
  8
0
 10
125.7
 20
59.25
 11
125.714
 21
59.4756
  0
LINE
  8
0
 10
125.714
 20
59.4756
 11
125.757
 21
59.6976
  0
LINE
  8
0
 10
125.757
 20
59.6976
 11
125.826
 21
59.9126
  0
LINE
  8
0
 10
125.826
 20
59.9126
 11
125.923
 21
60.1172
  0
LINE
  8
0
 10
125.923
 20
60.1172
 11
126.044
 21
60.308
  0
LINE
  8
0
 10
126.044
 20
60.308
 11
126.188
 21
60.4822
  0
LINE
  8
0
 10
126.188
 20
60.4822
 11
126.353
 21
60.6369
  0
LINE
  8
0
 10
126.353
 20
60.6369
 11
126.536
 21
60.7698
  0
LINE
  8
0
 10
126.536
 20
60.7698
 11
126.734
 21
60.8787
  0
LINE
  8
0
 10
126.734
 20
60.8787
 11
126.944
 21
60.9619
  0
LINE
  8
0
 10
126.944
 20
60.9619
 11
127.163
 21
61.0181
  0
LINE
  8
0
 10
127.163
 20
61.0181
 11
127.387
 21
61.0464
  0
LINE
  8
0
 10
127.387
 20
61.0464
 11
127.613
 21
61.0464
  0
LINE
  8
0
 10
127.613
 20
61.0464
 11
127.837
 21
61.0181
  0
LINE
  8
0
 10
127.837
 20
61.0181
 11
128.056
 21
60.9619
  0
LINE
  8
0
 10
128.056
 20
60.9619
 11
128.266
 21
60.8787
  0
LINE
  8
0
 10
128.266
 20
60.8787
 11
128.464
 21
60.7698
  0
LINE
  8
0
 10
128.464
 20
60.7698
 11
128.647
 21
60.6369
  0
LINE
  8
0
 10
128.647
 20
60.6369
 11
128.812
 21
60.4822
  0
LINE
  8
0
 10
128.812
 20
60.4822
 11
128.956
 21
60.308
  0
LINE
  8
0
 10
128.956
 20
60.308
 11
129.077
 21
60.1172
  0
LINE
  8
0
 10
129.077
 20
60.1172
 11
129.174
 21
59.9126
  0
LINE
  8
0
 10
129.174
 20
59.9126
 11
129.243
 21
59.6976
  0
LINE
  8
0
 10
129.243
 20
59.6976
 11
129.286
 21
59.4756
  0
LINE
  8
0
 10
129.286
 20
59.4756
 11
129.3
 21
59.25
  0
LINE
  8
0
 10
129.3
 20
59.25
 11
129.286
 21
59.0244
  0
LINE
  8
0
 10
129.286
 20
59.0244
 11
129.243
 21
58.8024
  0
LINE
  8
0
 10
129.243
 20
58.8024
 11
129.174
 21
58.5874
  0
LINE
  8
0
 10
129.174
 20
58.5874
 11
129.077
 21
58.3829
  0
LINE
  8
0
 10
129.077
 20
58.3829
 11
128.956
 21
58.192
  0
LINE
  8
0
 10
128.956
 20
58.192
 11
128.812
 21
58.0178
  0
LINE
  8
0
 10
128.812
 20
58.0178
 11
128.647
 21
57.8631
  0
LINE
  8
0
 10
128.647
 20
57.8631
 11
128.464
 21
57.7302
  0
LINE
  8
0
 10
128.464
 20
57.7302
 11
128.266
 21
57.6213
  0
LINE
  8
0
 10
128.266
 20
57.6213
 11
128.056
 21
57.5381
  0
LINE
  8
0
 10
128.056
 20
57.5381
 11
127.837
 21
57.4819
  0
LINE
  8
0
 10
127.837
 20
57.4819
 11
127.613
 21
57.4536
  0
LINE
  8
0
 10
127.613
 20
57.4536
 11
127.387
 21
57.4536
  0
LINE
  8
0
 10
-127.613
 20
57.4536
 11
-127.837
 21
57.4819
  0
LINE
  8
0
 10
-127.837
 20
57.4819
 11
-128.056
 21
57.5381
  0
LINE
  8
0
 10
-128.056
 20
57.5381
 11
-128.266
 21
57.6213
  0
LINE
  8
0
 10
-128.266
 20
57.6213
 11
-128.464
 21
57.7302
  0
LINE
  8
0
 10
-128.464
 20
57.7302
 11
-128.647
 21
57.8631
  0
LINE
  8
0
 10
-128.647
 20
57.8631
 11
-128.812
 21
58.0178
  0
LINE
  8
0
 10
-128.812
 20
58.0178
 11
-128.956
 21
58.192
  0
LINE
  8
0
 10
-128.956
 20
58.192
 11
-129.077
 21
58.3829
  0
LINE
  8
0
 10
-129.077
 20
58.3829
 11
-129.174
 21
58.5874
  0
LINE
  8
0
 10
-129.174
 20
58.5874
 11
-129.243
 21
58.8024
  0
LINE
  8
0
 10
-129.243
 20
58.8024
 11
-129.286
 21
59.0244
  0
LINE
  8
0
 10
-129.286
 20
59.0244
 11
-129.3
 21
59.25
  0
LINE
  8
0
 10
-129.3
 20
59.25
 11
-129.286
 21
59.4756
  0
LINE
  8
0
 10
-129.286
 20
59.4756
 11
-129.243
 21
59.6976
  0
LINE
  8
0
 10
-129.243
 20
59.6976
 11
-129.174
 21
59.9126
  0
LINE
  8
0
 10
-129.174
 20
59.9126
 11
-129.077
 21
60.1172
  0
LINE
  8
0
 10
-129.077
 20
60.1172
 11
-128.956
 21
60.308
  0
LINE
  8
0
 10
-128.956
 20
60.308
 11
-128.812
 21
60.4822
  0
LINE
  8
0
 10
-128.812
 20
60.4822
 11
-128.647
 21
60.6369
  0
LINE
  8
0
 10
-128.647
 20
60.6369
 11
-128.464
 21
60.7698
  0
LINE
  8
0
 10
-128.464
 20
60.7698
 11
-128.266
 21
60.8787
  0
LINE
  8
0
 10
-128.266
 20
60.8787
 11
-128.056
 21
60.9619
  0
LINE
  8
0
 10
-128.056
 20
60.9619
 11
-127.837
 21
61.0181
  0
LINE
  8
0
 10
-127.837
 20
61.0181
 11
-127.613
 21
61.0464
  0
LINE
  8
0
 10
-127.613
 20
61.0464
 11
-127.387
 21
61.0464
  0
LINE
  8
0
 10
-127.387
 20
61.0464
 11
-127.163
 21
61.0181
  0
LINE
  8
0
 10
-127.163
 20
61.0181
 11
-126.944
 21
60.9619
  0
LINE
  8
0
 10
-126.944
 20
60.9619
 11
-126.734
 21
60.8787
  0
LINE
  8
0
 10
-126.734
 20
60.8787
 11
-126.536
 21
60.7698
  0
LINE
  8
0
 10
-126.536
 20
60.7698
 11
-126.353
 21
60.6369
  0
LINE
  8
0
 10
-126.353
 20
60.6369
 11
-126.188
 21
60.4822
  0
LINE
  8
0
 10
-126.188
 20
60.4822
 11
-126.044
 21
60.308
  0
LINE
  8
0
 10
-126.044
 20
60.308
 11
-125.923
 21
60.1172
  0
LINE
  8
0
 10
-125.923
 20
60.1172
 11
-125.826
 21
59.9126
  0
LINE
  8
0
 10
-125.826
 20
59.9126
 11
-125.757
 21
59.6976
  0
LINE
  8
0
 10
-125.757
 20
59.6976
 11
-125.714
 21
59.4756
  0
LINE
  8
0
 10
-125.714
 20
59.4756
 11
-125.7
 21
59.25
  0
LINE
  8
0
 10
-125.7
 20
59.25
 11
-125.714
 21
59.0244
  0
LINE
  8
0
 10
-125.714
 20
59.0244
 11
-125.757
 21
58.8024
  0
LINE
  8
0
 10
-125.757
 20
58.8024
 11
-125.826
 21
58.5874
  0
LINE
  8
0
 10
-125.826
 20
58.5874
 11
-125.923
 21
58.3829
  0
LINE
  8
0
 10
-125.923
 20
58.3829
 11
-126.044
 21
58.192
  0
LINE
  8
0
 10
-126.044
 20
58.192
 11
-126.188
 21
58.0178
  0
LINE
  8
0
 10
-126.188
 20
58.0178
 11
-126.353
 21
57.8631
  0
LINE
  8
0
 10
-126.353
 20
57.8631
 11
-126.536
 21
57.7302
  0
LINE
  8
0
 10
-126.536
 20
57.7302
 11
-126.734
 21
57.6213
  0
LINE
  8
0
 10
-126.734
 20
57.6213
 11
-126.944
 21
57.5381
  0
LINE
  8
0
 10
-126.944
 20
57.5381
 11
-127.163
 21
57.4819
  0
LINE
  8
0
 10
-127.163
 20
57.4819
 11
-127.387
 21
57.4536
  0
LINE
  8
0
 10
-127.387
 20
57.4536
 11
-127.613
 21
57.4536
  0
ENDSEC
  0
SECTION
  2
OBJECTS
  0
DICTIONARY
  0
ENDSEC
  0
EOF
