  0
SECTION
  2
BLOCKS
  0
ENDSEC
  0
SECTION
  2
ENTITIES
  0
LINE
  8
0
 10
-133.5
 20
247.441
 11
-133.187
 21
247.147
  0
LINE
  8
0
 10
-133.187
 20
247.147
 11
-132.679
 21
246.778
  0
LINE
  8
0
 10
-132.679
 20
246.778
 11
-132.129
 21
246.476
  0
LINE
  8
0
 10
-132.129
 20
246.476
 11
-131.545
 21
246.245
  0
LINE
  8
0
 10
-131.545
 20
246.245
 11
-130.937
 21
246.089
  0
LINE
  8
0
 10
-130.937
 20
246.089
 11
-130.314
 21
246.01
  0
LINE
  8
0
 10
-130.314
 20
246.01
 11
130.314
 21
246.01
  0
LINE
  8
0
 10
130.314
 20
246.01
 11
130.937
 21
246.089
  0
LINE
  8
0
 10
130.937
 20
246.089
 11
131.545
 21
246.245
  0
LINE
  8
0
 10
131.545
 20
246.245
 11
132.129
 21
246.476
  0
LINE
  8
0
 10
132.129
 20
246.476
 11
132.679
 21
246.778
  0
LINE
  8
0
 10
132.679
 20
246.778
 11
133.187
 21
247.147
  0
LINE
  8
0
 10
133.187
 20
247.147
 11
133.645
 21
247.577
  0
LINE
  8
0
 10
133.645
 20
247.577
 11
134.045
 21
248.061
  0
LINE
  8
0
 10
134.045
 20
248.061
 11
134.382
 21
248.591
  0
LINE
  8
0
 10
134.382
 20
248.591
 11
134.649
 21
249.159
  0
LINE
  8
0
 10
134.649
 20
249.159
 11
134.843
 21
249.757
  0
LINE
  8
0
 10
134.843
 20
249.757
 11
134.961
 21
250.373
  0
LINE
  8
0
 10
134.961
 20
250.373
 11
135
 21
251
  0
LINE
  8
0
 10
135
 20
251
 11
135
 21
301
  0
LINE
  8
0
 10
135
 20
301
 11
134.961
 21
301.627
  0
LINE
  8
0
 10
134.961
 20
301.627
 11
134.843
 21
302.243
  0
LINE
  8
0
 10
134.843
 20
302.243
 11
134.649
 21
302.841
  0
LINE
  8
0
 10
134.649
 20
302.841
 11
134.382
 21
303.409
  0
LINE
  8
0
 10
134.382
 20
303.409
 11
134.045
 21
303.939
  0
LINE
  8
0
 10
134.045
 20
303.939
 11
133.645
 21
304.423
  0
LINE
  8
0
 10
133.645
 20
304.423
 11
133.187
 21
304.853
  0
LINE
  8
0
 10
133.187
 20
304.853
 11
132.679
 21
305.222
  0
LINE
  8
0
 10
132.679
 20
305.222
 11
132.129
 21
305.524
  0
LINE
  8
0
 10
132.129
 20
305.524
 11
131.545
 21
305.755
  0
LINE
  8
0
 10
131.545
 20
305.755
 11
130.937
 21
305.911
  0
LINE
  8
0
 10
130.937
 20
305.911
 11
130.314
 21
305.99
  0
LINE
  8
0
 10
130.314
 20
305.99
 11
-130.314
 21
305.99
  0
LINE
  8
0
 10
-130.314
 20
305.99
 11
-130.937
 21
305.911
  0
LINE
  8
0
 10
-130.937
 20
305.911
 11
-131.545
 21
305.755
  0
LINE
  8
0
 10
-131.545
 20
305.755
 11
-132.129
 21
305.524
  0
LINE
  8
0
 10
-132.129
 20
305.524
 11
-132.679
 21
305.222
  0
LINE
  8
0
 10
-132.679
 20
305.222
 11
-133.187
 21
304.853
  0
LINE
  8
0
 10
-133.187
 20
304.853
 11
-133.5
 21
304.559
  0
LINE
  8
0
 10
-133.5
 20
304.559
 11
-133.5
 21
305.99
  0
LINE
  8
0
 10
-133.5
 20
305.99
 11
-136.5
 21
305.99
  0
LINE
  8
0
 10
-136.5
 20
305.99
 11
-136.5
 21
246.01
  0
LINE
  8
0
 10
-136.5
 20
246.01
 11
-133.5
 21
246.01
  0
LINE
  8
0
 10
-133.5
 20
246.01
 11
-133.5
 21
247.441
  0
LINE
  8
0
 10
-129.743
 20
247.635
 11
-130.226
 21
247.696
  0
LINE
  8
0
 10
-130.226
 20
247.696
 11
-130.697
 21
247.817
  0
LINE
  8
0
 10
-130.697
 20
247.817
 11
-131.149
 21
247.996
  0
LINE
  8
0
 10
-131.149
 20
247.996
 11
-131.575
 21
248.23
  0
LINE
  8
0
 10
-131.575
 20
248.23
 11
-131.969
 21
248.516
  0
LINE
  8
0
 10
-131.969
 20
248.516
 11
-132.323
 21
248.849
  0
LINE
  8
0
 10
-132.323
 20
248.849
 11
-132.633
 21
249.224
  0
LINE
  8
0
 10
-132.633
 20
249.224
 11
-132.894
 21
249.634
  0
LINE
  8
0
 10
-132.894
 20
249.634
 11
-133.101
 21
250.074
  0
LINE
  8
0
 10
-133.101
 20
250.074
 11
-133.251
 21
250.537
  0
LINE
  8
0
 10
-133.251
 20
250.537
 11
-133.342
 21
251.015
  0
LINE
  8
0
 10
-133.342
 20
251.015
 11
-133.373
 21
251.5
  0
LINE
  8
0
 10
-133.373
 20
251.5
 11
-133.373
 21
300.5
  0
LINE
  8
0
 10
-133.373
 20
300.5
 11
-133.342
 21
300.985
  0
LINE
  8
0
 10
-133.342
 20
300.985
 11
-133.251
 21
301.463
  0
LINE
  8
0
 10
-133.251
 20
301.463
 11
-133.101
 21
301.926
  0
LINE
  8
0
 10
-133.101
 20
301.926
 11
-132.894
 21
302.366
  0
LINE
  8
0
 10
-132.894
 20
302.366
 11
-132.633
 21
302.776
  0
LINE
  8
0
 10
-132.633
 20
302.776
 11
-132.323
 21
303.151
  0
LINE
  8
0
 10
-132.323
 20
303.151
 11
-131.969
 21
303.484
  0
LINE
  8
0
 10
-131.969
 20
303.484
 11
-131.575
 21
303.77
  0
LINE
  8
0
 10
-131.575
 20
303.77
 11
-131.149
 21
304.004
  0
LINE
  8
0
 10
-131.149
 20
304.004
 11
-130.697
 21
304.183
  0
LINE
  8
0
 10
-130.697
 20
304.183
 11
-130.226
 21
304.304
  0
LINE
  8
0
 10
-130.226
 20
304.304
 11
-129.743
 21
304.365
  0
LINE
  8
0
 10
-129.743
 20
304.365
 11
129.743
 21
304.365
  0
LINE
  8
0
 10
129.743
 20
304.365
 11
130.226
 21
304.304
  0
LINE
  8
0
 10
130.226
 20
304.304
 11
130.697
 21
304.183
  0
LINE
  8
0
 10
130.697
 20
304.183
 11
131.149
 21
304.004
  0
LINE
  8
0
 10
131.149
 20
304.004
 11
131.575
 21
303.77
  0
LINE
  8
0
 10
131.575
 20
303.77
 11
131.969
 21
303.484
  0
LINE
  8
0
 10
131.969
 20
303.484
 11
132.323
 21
303.151
  0
LINE
  8
0
 10
132.323
 20
303.151
 11
132.633
 21
302.776
  0
LINE
  8
0
 10
132.633
 20
302.776
 11
132.894
 21
302.366
  0
LINE
  8
0
 10
132.894
 20
302.366
 11
133.101
 21
301.926
  0
LINE
  8
0
 10
133.101
 20
301.926
 11
133.251
 21
301.463
  0
LINE
  8
0
 10
133.251
 20
301.463
 11
133.342
 21
300.985
  0
LINE
  8
0
 10
133.342
 20
300.985
 11
133.373
 21
300.5
  0
LINE
  8
0
 10
133.373
 20
300.5
 11
133.373
 21
251.5
  0
LINE
  8
0
 10
133.373
 20
251.5
 11
133.342
 21
251.015
  0
LINE
  8
0
 10
133.342
 20
251.015
 11
133.251
 21
250.537
  0
LINE
  8
0
 10
133.251
 20
250.537
 11
133.101
 21
250.074
  0
LINE
  8
0
 10
133.101
 20
250.074
 11
132.894
 21
249.634
  0
LINE
  8
0
 10
132.894
 20
249.634
 11
132.633
 21
249.224
  0
LINE
  8
0
 10
132.633
 20
249.224
 11
132.323
 21
248.849
  0
LINE
  8
0
 10
132.323
 20
248.849
 11
131.969
 21
248.516
  0
LINE
  8
0
 10
131.969
 20
248.516
 11
131.575
 21
248.23
  0
LINE
  8
0
 10
131.575
 20
248.23
 11
131.149
 21
247.996
  0
LINE
  8
0
 10
131.149
 20
247.996
 11
130.697
 21
247.817
  0
LINE
  8
0
 10
130.697
 20
247.817
 11
130.226
 21
247.696
  0
LINE
  8
0
 10
130.226
 20
247.696
 11
129.743
 21
247.635
  0
LINE
  8
0
 10
129.743
 20
247.635
 11
-129.743
 21
247.635
  0
LINE
  8
0
 10
130.937
 20
177.089
 11
131.545
 21
177.245
  0
LINE
  8
0
 10
131.545
 20
177.245
 11
132.129
 21
177.476
  0
LINE
  8
0
 10
132.129
 20
177.476
 11
132.679
 21
177.778
  0
LINE
  8
0
 10
132.679
 20
177.778
 11
133.187
 21
178.147
  0
LINE
  8
0
 10
133.187
 20
178.147
 11
133.645
 21
178.577
  0
LINE
  8
0
 10
133.645
 20
178.577
 11
134.045
 21
179.061
  0
LINE
  8
0
 10
134.045
 20
179.061
 11
134.382
 21
179.591
  0
LINE
  8
0
 10
134.382
 20
179.591
 11
134.649
 21
180.159
  0
LINE
  8
0
 10
134.649
 20
180.159
 11
134.843
 21
180.757
  0
LINE
  8
0
 10
134.843
 20
180.757
 11
134.961
 21
181.373
  0
LINE
  8
0
 10
134.961
 20
181.373
 11
135
 21
182
  0
LINE
  8
0
 10
135
 20
182
 11
135
 21
232
  0
LINE
  8
0
 10
135
 20
232
 11
134.961
 21
232.627
  0
LINE
  8
0
 10
134.961
 20
232.627
 11
134.843
 21
233.243
  0
LINE
  8
0
 10
134.843
 20
233.243
 11
134.649
 21
233.841
  0
LINE
  8
0
 10
134.649
 20
233.841
 11
134.382
 21
234.409
  0
LINE
  8
0
 10
134.382
 20
234.409
 11
134.045
 21
234.939
  0
LINE
  8
0
 10
134.045
 20
234.939
 11
133.645
 21
235.423
  0
LINE
  8
0
 10
133.645
 20
235.423
 11
133.187
 21
235.853
  0
LINE
  8
0
 10
133.187
 20
235.853
 11
132.679
 21
236.222
  0
LINE
  8
0
 10
132.679
 20
236.222
 11
132.129
 21
236.524
  0
LINE
  8
0
 10
132.129
 20
236.524
 11
131.545
 21
236.755
  0
LINE
  8
0
 10
131.545
 20
236.755
 11
130.937
 21
236.911
  0
LINE
  8
0
 10
130.937
 20
236.911
 11
130.314
 21
236.99
  0
LINE
  8
0
 10
130.314
 20
236.99
 11
-130.314
 21
236.99
  0
LINE
  8
0
 10
-130.314
 20
236.99
 11
-130.937
 21
236.911
  0
LINE
  8
0
 10
-130.937
 20
236.911
 11
-131.545
 21
236.755
  0
LINE
  8
0
 10
-131.545
 20
236.755
 11
-132.129
 21
236.524
  0
LINE
  8
0
 10
-132.129
 20
236.524
 11
-132.679
 21
236.222
  0
LINE
  8
0
 10
-132.679
 20
236.222
 11
-133.187
 21
235.853
  0
LINE
  8
0
 10
-133.187
 20
235.853
 11
-133.5
 21
235.559
  0
LINE
  8
0
 10
-133.5
 20
235.559
 11
-133.5
 21
236.615
  0
LINE
  8
0
 10
-133.5
 20
236.615
 11
-136.5
 21
236.615
  0
LINE
  8
0
 10
-136.5
 20
236.615
 11
-136.5
 21
177.385
  0
LINE
  8
0
 10
-136.5
 20
177.385
 11
-133.5
 21
177.385
  0
LINE
  8
0
 10
-133.5
 20
177.385
 11
-133.5
 21
178.441
  0
LINE
  8
0
 10
-133.5
 20
178.441
 11
-133.187
 21
178.147
  0
LINE
  8
0
 10
-133.187
 20
178.147
 11
-132.679
 21
177.778
  0
LINE
  8
0
 10
-132.679
 20
177.778
 11
-132.129
 21
177.476
  0
LINE
  8
0
 10
-132.129
 20
177.476
 11
-131.545
 21
177.245
  0
LINE
  8
0
 10
-131.545
 20
177.245
 11
-130.937
 21
177.089
  0
LINE
  8
0
 10
-130.937
 20
177.089
 11
-130.314
 21
177.01
  0
LINE
  8
0
 10
-130.314
 20
177.01
 11
130.314
 21
177.01
  0
LINE
  8
0
 10
130.314
 20
177.01
 11
130.937
 21
177.089
  0
LINE
  8
0
 10
-127.651
 20
227.105
 11
-127.95
 21
227.143
  0
LINE
  8
0
 10
-127.95
 20
227.143
 11
-128.242
 21
227.217
  0
LINE
  8
0
 10
-128.242
 20
227.217
 11
-128.522
 21
227.328
  0
LINE
  8
0
 10
-128.522
 20
227.328
 11
-128.786
 21
227.474
  0
LINE
  8
0
 10
-128.786
 20
227.474
 11
-129.03
 21
227.651
  0
LINE
  8
0
 10
-129.03
 20
227.651
 11
-129.25
 21
227.857
  0
LINE
  8
0
 10
-129.25
 20
227.857
 11
-129.442
 21
228.089
  0
LINE
  8
0
 10
-129.442
 20
228.089
 11
-129.603
 21
228.344
  0
LINE
  8
0
 10
-129.603
 20
228.344
 11
-129.731
 21
228.617
  0
LINE
  8
0
 10
-129.731
 20
228.617
 11
-129.825
 21
228.903
  0
LINE
  8
0
 10
-129.825
 20
228.903
 11
-129.881
 21
229.199
  0
LINE
  8
0
 10
-129.881
 20
229.199
 11
-129.9
 21
229.5
  0
LINE
  8
0
 10
-129.9
 20
229.5
 11
-129.881
 21
229.801
  0
LINE
  8
0
 10
-129.881
 20
229.801
 11
-129.825
 21
230.097
  0
LINE
  8
0
 10
-129.825
 20
230.097
 11
-129.731
 21
230.383
  0
LINE
  8
0
 10
-129.731
 20
230.383
 11
-129.603
 21
230.656
  0
LINE
  8
0
 10
-129.603
 20
230.656
 11
-129.442
 21
230.911
  0
LINE
  8
0
 10
-129.442
 20
230.911
 11
-129.25
 21
231.143
  0
LINE
  8
0
 10
-129.25
 20
231.143
 11
-129.03
 21
231.349
  0
LINE
  8
0
 10
-129.03
 20
231.349
 11
-128.786
 21
231.526
  0
LINE
  8
0
 10
-128.786
 20
231.526
 11
-128.522
 21
231.672
  0
LINE
  8
0
 10
-128.522
 20
231.672
 11
-128.242
 21
231.783
  0
LINE
  8
0
 10
-128.242
 20
231.783
 11
-127.95
 21
231.857
  0
LINE
  8
0
 10
-127.95
 20
231.857
 11
-127.651
 21
231.895
  0
LINE
  8
0
 10
-127.651
 20
231.895
 11
-127.349
 21
231.895
  0
LINE
  8
0
 10
-127.349
 20
231.895
 11
-127.05
 21
231.857
  0
LINE
  8
0
 10
-127.05
 20
231.857
 11
-126.758
 21
231.783
  0
LINE
  8
0
 10
-126.758
 20
231.783
 11
-126.478
 21
231.672
  0
LINE
  8
0
 10
-126.478
 20
231.672
 11
-126.214
 21
231.526
  0
LINE
  8
0
 10
-126.214
 20
231.526
 11
-125.97
 21
231.349
  0
LINE
  8
0
 10
-125.97
 20
231.349
 11
-125.75
 21
231.143
  0
LINE
  8
0
 10
-125.75
 20
231.143
 11
-125.558
 21
230.911
  0
LINE
  8
0
 10
-125.558
 20
230.911
 11
-125.397
 21
230.656
  0
LINE
  8
0
 10
-125.397
 20
230.656
 11
-125.269
 21
230.383
  0
LINE
  8
0
 10
-125.269
 20
230.383
 11
-125.175
 21
230.097
  0
LINE
  8
0
 10
-125.175
 20
230.097
 11
-125.119
 21
229.801
  0
LINE
  8
0
 10
-125.119
 20
229.801
 11
-125.1
 21
229.5
  0
LINE
  8
0
 10
-125.1
 20
229.5
 11
-125.119
 21
229.199
  0
LINE
  8
0
 10
-125.119
 20
229.199
 11
-125.175
 21
228.903
  0
LINE
  8
0
 10
-125.175
 20
228.903
 11
-125.269
 21
228.617
  0
LINE
  8
0
 10
-125.269
 20
228.617
 11
-125.397
 21
228.344
  0
LINE
  8
0
 10
-125.397
 20
228.344
 11
-125.558
 21
228.089
  0
LINE
  8
0
 10
-125.558
 20
228.089
 11
-125.75
 21
227.857
  0
LINE
  8
0
 10
-125.75
 20
227.857
 11
-125.97
 21
227.651
  0
LINE
  8
0
 10
-125.97
 20
227.651
 11
-126.214
 21
227.474
  0
LINE
  8
0
 10
-126.214
 20
227.474
 11
-126.478
 21
227.328
  0
LINE
  8
0
 10
-126.478
 20
227.328
 11
-126.758
 21
227.217
  0
LINE
  8
0
 10
-126.758
 20
227.217
 11
-127.05
 21
227.143
  0
LINE
  8
0
 10
-127.05
 20
227.143
 11
-127.349
 21
227.105
  0
LINE
  8
0
 10
-127.349
 20
227.105
 11
-127.651
 21
227.105
  0
LINE
  8
0
 10
127.349
 20
227.105
 11
127.05
 21
227.143
  0
LINE
  8
0
 10
127.05
 20
227.143
 11
126.758
 21
227.217
  0
LINE
  8
0
 10
126.758
 20
227.217
 11
126.478
 21
227.328
  0
LINE
  8
0
 10
126.478
 20
227.328
 11
126.214
 21
227.474
  0
LINE
  8
0
 10
126.214
 20
227.474
 11
125.97
 21
227.651
  0
LINE
  8
0
 10
125.97
 20
227.651
 11
125.75
 21
227.857
  0
LINE
  8
0
 10
125.75
 20
227.857
 11
125.558
 21
228.089
  0
LINE
  8
0
 10
125.558
 20
228.089
 11
125.397
 21
228.344
  0
LINE
  8
0
 10
125.397
 20
228.344
 11
125.269
 21
228.617
  0
LINE
  8
0
 10
125.269
 20
228.617
 11
125.175
 21
228.903
  0
LINE
  8
0
 10
125.175
 20
228.903
 11
125.119
 21
229.199
  0
LINE
  8
0
 10
125.119
 20
229.199
 11
125.1
 21
229.5
  0
LINE
  8
0
 10
125.1
 20
229.5
 11
125.119
 21
229.801
  0
LINE
  8
0
 10
125.119
 20
229.801
 11
125.175
 21
230.097
  0
LINE
  8
0
 10
125.175
 20
230.097
 11
125.269
 21
230.383
  0
LINE
  8
0
 10
125.269
 20
230.383
 11
125.397
 21
230.656
  0
LINE
  8
0
 10
125.397
 20
230.656
 11
125.558
 21
230.911
  0
LINE
  8
0
 10
125.558
 20
230.911
 11
125.75
 21
231.143
  0
LINE
  8
0
 10
125.75
 20
231.143
 11
125.97
 21
231.349
  0
LINE
  8
0
 10
125.97
 20
231.349
 11
126.214
 21
231.526
  0
LINE
  8
0
 10
126.214
 20
231.526
 11
126.478
 21
231.672
  0
LINE
  8
0
 10
126.478
 20
231.672
 11
126.758
 21
231.783
  0
LINE
  8
0
 10
126.758
 20
231.783
 11
127.05
 21
231.857
  0
LINE
  8
0
 10
127.05
 20
231.857
 11
127.349
 21
231.895
  0
LINE
  8
0
 10
127.349
 20
231.895
 11
127.651
 21
231.895
  0
LINE
  8
0
 10
127.651
 20
231.895
 11
127.95
 21
231.857
  0
LINE
  8
0
 10
127.95
 20
231.857
 11
128.242
 21
231.783
  0
LINE
  8
0
 10
128.242
 20
231.783
 11
128.522
 21
231.672
  0
LINE
  8
0
 10
128.522
 20
231.672
 11
128.786
 21
231.526
  0
LINE
  8
0
 10
128.786
 20
231.526
 11
129.03
 21
231.349
  0
LINE
  8
0
 10
129.03
 20
231.349
 11
129.25
 21
231.143
  0
LINE
  8
0
 10
129.25
 20
231.143
 11
129.442
 21
230.911
  0
LINE
  8
0
 10
129.442
 20
230.911
 11
129.603
 21
230.656
  0
LINE
  8
0
 10
129.603
 20
230.656
 11
129.731
 21
230.383
  0
LINE
  8
0
 10
129.731
 20
230.383
 11
129.825
 21
230.097
  0
LINE
  8
0
 10
129.825
 20
230.097
 11
129.881
 21
229.801
  0
LINE
  8
0
 10
129.881
 20
229.801
 11
129.9
 21
229.5
  0
LINE
  8
0
 10
129.9
 20
229.5
 11
129.881
 21
229.199
  0
LINE
  8
0
 10
129.881
 20
229.199
 11
129.825
 21
228.903
  0
LINE
  8
0
 10
129.825
 20
228.903
 11
129.731
 21
228.617
  0
LINE
  8
0
 10
129.731
 20
228.617
 11
129.603
 21
228.344
  0
LINE
  8
0
 10
129.603
 20
228.344
 11
129.442
 21
228.089
  0
LINE
  8
0
 10
129.442
 20
228.089
 11
129.25
 21
227.857
  0
LINE
  8
0
 10
129.25
 20
227.857
 11
129.03
 21
227.651
  0
LINE
  8
0
 10
129.03
 20
227.651
 11
128.786
 21
227.474
  0
LINE
  8
0
 10
128.786
 20
227.474
 11
128.522
 21
227.328
  0
LINE
  8
0
 10
128.522
 20
227.328
 11
128.242
 21
227.217
  0
LINE
  8
0
 10
128.242
 20
227.217
 11
127.95
 21
227.143
  0
LINE
  8
0
 10
127.95
 20
227.143
 11
127.651
 21
227.105
  0
LINE
  8
0
 10
127.651
 20
227.105
 11
127.349
 21
227.105
  0
LINE
  8
0
 10
127.349
 20
182.105
 11
127.05
 21
182.143
  0
LINE
  8
0
 10
127.05
 20
182.143
 11
126.758
 21
182.217
  0
LINE
  8
0
 10
126.758
 20
182.217
 11
126.478
 21
182.328
  0
LINE
  8
0
 10
126.478
 20
182.328
 11
126.214
 21
182.474
  0
LINE
  8
0
 10
126.214
 20
182.474
 11
125.97
 21
182.651
  0
LINE
  8
0
 10
125.97
 20
182.651
 11
125.75
 21
182.857
  0
LINE
  8
0
 10
125.75
 20
182.857
 11
125.558
 21
183.089
  0
LINE
  8
0
 10
125.558
 20
183.089
 11
125.397
 21
183.344
  0
LINE
  8
0
 10
125.397
 20
183.344
 11
125.269
 21
183.617
  0
LINE
  8
0
 10
125.269
 20
183.617
 11
125.175
 21
183.903
  0
LINE
  8
0
 10
125.175
 20
183.903
 11
125.119
 21
184.199
  0
LINE
  8
0
 10
125.119
 20
184.199
 11
125.1
 21
184.5
  0
LINE
  8
0
 10
125.1
 20
184.5
 11
125.119
 21
184.801
  0
LINE
  8
0
 10
125.119
 20
184.801
 11
125.175
 21
185.097
  0
LINE
  8
0
 10
125.175
 20
185.097
 11
125.269
 21
185.383
  0
LINE
  8
0
 10
125.269
 20
185.383
 11
125.397
 21
185.656
  0
LINE
  8
0
 10
125.397
 20
185.656
 11
125.558
 21
185.911
  0
LINE
  8
0
 10
125.558
 20
185.911
 11
125.75
 21
186.143
  0
LINE
  8
0
 10
125.75
 20
186.143
 11
125.97
 21
186.349
  0
LINE
  8
0
 10
125.97
 20
186.349
 11
126.214
 21
186.526
  0
LINE
  8
0
 10
126.214
 20
186.526
 11
126.478
 21
186.672
  0
LINE
  8
0
 10
126.478
 20
186.672
 11
126.758
 21
186.783
  0
LINE
  8
0
 10
126.758
 20
186.783
 11
127.05
 21
186.857
  0
LINE
  8
0
 10
127.05
 20
186.857
 11
127.349
 21
186.895
  0
LINE
  8
0
 10
127.349
 20
186.895
 11
127.651
 21
186.895
  0
LINE
  8
0
 10
127.651
 20
186.895
 11
127.95
 21
186.857
  0
LINE
  8
0
 10
127.95
 20
186.857
 11
128.242
 21
186.783
  0
LINE
  8
0
 10
128.242
 20
186.783
 11
128.522
 21
186.672
  0
LINE
  8
0
 10
128.522
 20
186.672
 11
128.786
 21
186.526
  0
LINE
  8
0
 10
128.786
 20
186.526
 11
129.03
 21
186.349
  0
LINE
  8
0
 10
129.03
 20
186.349
 11
129.25
 21
186.143
  0
LINE
  8
0
 10
129.25
 20
186.143
 11
129.442
 21
185.911
  0
LINE
  8
0
 10
129.442
 20
185.911
 11
129.603
 21
185.656
  0
LINE
  8
0
 10
129.603
 20
185.656
 11
129.731
 21
185.383
  0
LINE
  8
0
 10
129.731
 20
185.383
 11
129.825
 21
185.097
  0
LINE
  8
0
 10
129.825
 20
185.097
 11
129.881
 21
184.801
  0
LINE
  8
0
 10
129.881
 20
184.801
 11
129.9
 21
184.5
  0
LINE
  8
0
 10
129.9
 20
184.5
 11
129.881
 21
184.199
  0
LINE
  8
0
 10
129.881
 20
184.199
 11
129.825
 21
183.903
  0
LINE
  8
0
 10
129.825
 20
183.903
 11
129.731
 21
183.617
  0
LINE
  8
0
 10
129.731
 20
183.617
 11
129.603
 21
183.344
  0
LINE
  8
0
 10
129.603
 20
183.344
 11
129.442
 21
183.089
  0
LINE
  8
0
 10
129.442
 20
183.089
 11
129.25
 21
182.857
  0
LINE
  8
0
 10
129.25
 20
182.857
 11
129.03
 21
182.651
  0
LINE
  8
0
 10
129.03
 20
182.651
 11
128.786
 21
182.474
  0
LINE
  8
0
 10
128.786
 20
182.474
 11
128.522
 21
182.328
  0
LINE
  8
0
 10
128.522
 20
182.328
 11
128.242
 21
182.217
  0
LINE
  8
0
 10
128.242
 20
182.217
 11
127.95
 21
182.143
  0
LINE
  8
0
 10
127.95
 20
182.143
 11
127.651
 21
182.105
  0
LINE
  8
0
 10
127.651
 20
182.105
 11
127.349
 21
182.105
  0
LINE
  8
0
 10
-127.651
 20
182.105
 11
-127.95
 21
182.143
  0
LINE
  8
0
 10
-127.95
 20
182.143
 11
-128.242
 21
182.217
  0
LINE
  8
0
 10
-128.242
 20
182.217
 11
-128.522
 21
182.328
  0
LINE
  8
0
 10
-128.522
 20
182.328
 11
-128.786
 21
182.474
  0
LINE
  8
0
 10
-128.786
 20
182.474
 11
-129.03
 21
182.651
  0
LINE
  8
0
 10
-129.03
 20
182.651
 11
-129.25
 21
182.857
  0
LINE
  8
0
 10
-129.25
 20
182.857
 11
-129.442
 21
183.089
  0
LINE
  8
0
 10
-129.442
 20
183.089
 11
-129.603
 21
183.344
  0
LINE
  8
0
 10
-129.603
 20
183.344
 11
-129.731
 21
183.617
  0
LINE
  8
0
 10
-129.731
 20
183.617
 11
-129.825
 21
183.903
  0
LINE
  8
0
 10
-129.825
 20
183.903
 11
-129.881
 21
184.199
  0
LINE
  8
0
 10
-129.881
 20
184.199
 11
-129.9
 21
184.5
  0
LINE
  8
0
 10
-129.9
 20
184.5
 11
-129.881
 21
184.801
  0
LINE
  8
0
 10
-129.881
 20
184.801
 11
-129.825
 21
185.097
  0
LINE
  8
0
 10
-129.825
 20
185.097
 11
-129.731
 21
185.383
  0
LINE
  8
0
 10
-129.731
 20
185.383
 11
-129.603
 21
185.656
  0
LINE
  8
0
 10
-129.603
 20
185.656
 11
-129.442
 21
185.911
  0
LINE
  8
0
 10
-129.442
 20
185.911
 11
-129.25
 21
186.143
  0
LINE
  8
0
 10
-129.25
 20
186.143
 11
-129.03
 21
186.349
  0
LINE
  8
0
 10
-129.03
 20
186.349
 11
-128.786
 21
186.526
  0
LINE
  8
0
 10
-128.786
 20
186.526
 11
-128.522
 21
186.672
  0
LINE
  8
0
 10
-128.522
 20
186.672
 11
-128.242
 21
186.783
  0
LINE
  8
0
 10
-128.242
 20
186.783
 11
-127.95
 21
186.857
  0
LINE
  8
0
 10
-127.95
 20
186.857
 11
-127.651
 21
186.895
  0
LINE
  8
0
 10
-127.651
 20
186.895
 11
-127.349
 21
186.895
  0
LINE
  8
0
 10
-127.349
 20
186.895
 11
-127.05
 21
186.857
  0
LINE
  8
0
 10
-127.05
 20
186.857
 11
-126.758
 21
186.783
  0
LINE
  8
0
 10
-126.758
 20
186.783
 11
-126.478
 21
186.672
  0
LINE
  8
0
 10
-126.478
 20
186.672
 11
-126.214
 21
186.526
  0
LINE
  8
0
 10
-126.214
 20
186.526
 11
-125.97
 21
186.349
  0
LINE
  8
0
 10
-125.97
 20
186.349
 11
-125.75
 21
186.143
  0
LINE
  8
0
 10
-125.75
 20
186.143
 11
-125.558
 21
185.911
  0
LINE
  8
0
 10
-125.558
 20
185.911
 11
-125.397
 21
185.656
  0
LINE
  8
0
 10
-125.397
 20
185.656
 11
-125.269
 21
185.383
  0
LINE
  8
0
 10
-125.269
 20
185.383
 11
-125.175
 21
185.097
  0
LINE
  8
0
 10
-125.175
 20
185.097
 11
-125.119
 21
184.801
  0
LINE
  8
0
 10
-125.119
 20
184.801
 11
-125.1
 21
184.5
  0
LINE
  8
0
 10
-125.1
 20
184.5
 11
-125.119
 21
184.199
  0
LINE
  8
0
 10
-125.119
 20
184.199
 11
-125.175
 21
183.903
  0
LINE
  8
0
 10
-125.175
 20
183.903
 11
-125.269
 21
183.617
  0
LINE
  8
0
 10
-125.269
 20
183.617
 11
-125.397
 21
183.344
  0
LINE
  8
0
 10
-125.397
 20
183.344
 11
-125.558
 21
183.089
  0
LINE
  8
0
 10
-125.558
 20
183.089
 11
-125.75
 21
182.857
  0
LINE
  8
0
 10
-125.75
 20
182.857
 11
-125.97
 21
182.651
  0
LINE
  8
0
 10
-125.97
 20
182.651
 11
-126.214
 21
182.474
  0
LINE
  8
0
 10
-126.214
 20
182.474
 11
-126.478
 21
182.328
  0
LINE
  8
0
 10
-126.478
 20
182.328
 11
-126.758
 21
182.217
  0
LINE
  8
0
 10
-126.758
 20
182.217
 11
-127.05
 21
182.143
  0
LINE
  8
0
 10
-127.05
 20
182.143
 11
-127.349
 21
182.105
  0
LINE
  8
0
 10
-127.349
 20
182.105
 11
-127.651
 21
182.105
  0
LINE
  8
0
 10
130.937
 20
108.089
 11
131.545
 21
108.245
  0
LINE
  8
0
 10
131.545
 20
108.245
 11
132.129
 21
108.476
  0
LINE
  8
0
 10
132.129
 20
108.476
 11
132.679
 21
108.778
  0
LINE
  8
0
 10
132.679
 20
108.778
 11
133.187
 21
109.147
  0
LINE
  8
0
 10
133.187
 20
109.147
 11
133.645
 21
109.577
  0
LINE
  8
0
 10
133.645
 20
109.577
 11
134.045
 21
110.061
  0
LINE
  8
0
 10
134.045
 20
110.061
 11
134.382
 21
110.591
  0
LINE
  8
0
 10
134.382
 20
110.591
 11
134.649
 21
111.159
  0
LINE
  8
0
 10
134.649
 20
111.159
 11
134.843
 21
111.757
  0
LINE
  8
0
 10
134.843
 20
111.757
 11
134.961
 21
112.373
  0
LINE
  8
0
 10
134.961
 20
112.373
 11
135
 21
113
  0
LINE
  8
0
 10
135
 20
113
 11
135
 21
163
  0
LINE
  8
0
 10
135
 20
163
 11
134.961
 21
163.627
  0
LINE
  8
0
 10
134.961
 20
163.627
 11
134.843
 21
164.243
  0
LINE
  8
0
 10
134.843
 20
164.243
 11
134.649
 21
164.841
  0
LINE
  8
0
 10
134.649
 20
164.841
 11
134.382
 21
165.409
  0
LINE
  8
0
 10
134.382
 20
165.409
 11
134.045
 21
165.939
  0
LINE
  8
0
 10
134.045
 20
165.939
 11
133.645
 21
166.423
  0
LINE
  8
0
 10
133.645
 20
166.423
 11
133.187
 21
166.853
  0
LINE
  8
0
 10
133.187
 20
166.853
 11
132.679
 21
167.222
  0
LINE
  8
0
 10
132.679
 20
167.222
 11
132.129
 21
167.524
  0
LINE
  8
0
 10
132.129
 20
167.524
 11
131.545
 21
167.755
  0
LINE
  8
0
 10
131.545
 20
167.755
 11
130.937
 21
167.911
  0
LINE
  8
0
 10
130.937
 20
167.911
 11
130.314
 21
167.99
  0
LINE
  8
0
 10
130.314
 20
167.99
 11
-130.314
 21
167.99
  0
LINE
  8
0
 10
-130.314
 20
167.99
 11
-130.937
 21
167.911
  0
LINE
  8
0
 10
-130.937
 20
167.911
 11
-131.545
 21
167.755
  0
LINE
  8
0
 10
-131.545
 20
167.755
 11
-132.129
 21
167.524
  0
LINE
  8
0
 10
-132.129
 20
167.524
 11
-132.679
 21
167.222
  0
LINE
  8
0
 10
-132.679
 20
167.222
 11
-133.187
 21
166.853
  0
LINE
  8
0
 10
-133.187
 20
166.853
 11
-133.645
 21
166.423
  0
LINE
  8
0
 10
-133.645
 20
166.423
 11
-134.045
 21
165.939
  0
LINE
  8
0
 10
-134.045
 20
165.939
 11
-134.382
 21
165.409
  0
LINE
  8
0
 10
-134.382
 20
165.409
 11
-134.649
 21
164.841
  0
LINE
  8
0
 10
-134.649
 20
164.841
 11
-134.843
 21
164.243
  0
LINE
  8
0
 10
-134.843
 20
164.243
 11
-134.9
 21
163.944
  0
LINE
  8
0
 10
-134.9
 20
163.944
 11
-136.5
 21
163.944
  0
LINE
  8
0
 10
-136.5
 20
163.944
 11
-136.5
 21
112.056
  0
LINE
  8
0
 10
-136.5
 20
112.056
 11
-134.9
 21
112.056
  0
LINE
  8
0
 10
-134.9
 20
112.056
 11
-134.843
 21
111.757
  0
LINE
  8
0
 10
-134.843
 20
111.757
 11
-134.649
 21
111.159
  0
LINE
  8
0
 10
-134.649
 20
111.159
 11
-134.382
 21
110.591
  0
LINE
  8
0
 10
-134.382
 20
110.591
 11
-134.045
 21
110.061
  0
LINE
  8
0
 10
-134.045
 20
110.061
 11
-133.645
 21
109.577
  0
LINE
  8
0
 10
-133.645
 20
109.577
 11
-133.187
 21
109.147
  0
LINE
  8
0
 10
-133.187
 20
109.147
 11
-132.679
 21
108.778
  0
LINE
  8
0
 10
-132.679
 20
108.778
 11
-132.129
 21
108.476
  0
LINE
  8
0
 10
-132.129
 20
108.476
 11
-131.545
 21
108.245
  0
LINE
  8
0
 10
-131.545
 20
108.245
 11
-130.937
 21
108.089
  0
LINE
  8
0
 10
-130.937
 20
108.089
 11
-130.314
 21
108.01
  0
LINE
  8
0
 10
-130.314
 20
108.01
 11
130.314
 21
108.01
  0
LINE
  8
0
 10
130.314
 20
108.01
 11
130.937
 21
108.089
  0
LINE
  8
0
 10
127.387
 20
158.704
 11
127.163
 21
158.732
  0
LINE
  8
0
 10
127.163
 20
158.732
 11
126.944
 21
158.788
  0
LINE
  8
0
 10
126.944
 20
158.788
 11
126.734
 21
158.871
  0
LINE
  8
0
 10
126.734
 20
158.871
 11
126.536
 21
158.98
  0
LINE
  8
0
 10
126.536
 20
158.98
 11
126.353
 21
159.113
  0
LINE
  8
0
 10
126.353
 20
159.113
 11
126.188
 21
159.268
  0
LINE
  8
0
 10
126.188
 20
159.268
 11
126.044
 21
159.442
  0
LINE
  8
0
 10
126.044
 20
159.442
 11
125.923
 21
159.633
  0
LINE
  8
0
 10
125.923
 20
159.633
 11
125.826
 21
159.837
  0
LINE
  8
0
 10
125.826
 20
159.837
 11
125.757
 21
160.052
  0
LINE
  8
0
 10
125.757
 20
160.052
 11
125.714
 21
160.274
  0
LINE
  8
0
 10
125.714
 20
160.274
 11
125.7
 21
160.5
  0
LINE
  8
0
 10
125.7
 20
160.5
 11
125.714
 21
160.726
  0
LINE
  8
0
 10
125.714
 20
160.726
 11
125.757
 21
160.948
  0
LINE
  8
0
 10
125.757
 20
160.948
 11
125.826
 21
161.163
  0
LINE
  8
0
 10
125.826
 20
161.163
 11
125.923
 21
161.367
  0
LINE
  8
0
 10
125.923
 20
161.367
 11
126.044
 21
161.558
  0
LINE
  8
0
 10
126.044
 20
161.558
 11
126.188
 21
161.732
  0
LINE
  8
0
 10
126.188
 20
161.732
 11
126.353
 21
161.887
  0
LINE
  8
0
 10
126.353
 20
161.887
 11
126.536
 21
162.02
  0
LINE
  8
0
 10
126.536
 20
162.02
 11
126.734
 21
162.129
  0
LINE
  8
0
 10
126.734
 20
162.129
 11
126.944
 21
162.212
  0
LINE
  8
0
 10
126.944
 20
162.212
 11
127.163
 21
162.268
  0
LINE
  8
0
 10
127.163
 20
162.268
 11
127.387
 21
162.296
  0
LINE
  8
0
 10
127.387
 20
162.296
 11
127.613
 21
162.296
  0
LINE
  8
0
 10
127.613
 20
162.296
 11
127.837
 21
162.268
  0
LINE
  8
0
 10
127.837
 20
162.268
 11
128.056
 21
162.212
  0
LINE
  8
0
 10
128.056
 20
162.212
 11
128.266
 21
162.129
  0
LINE
  8
0
 10
128.266
 20
162.129
 11
128.464
 21
162.02
  0
LINE
  8
0
 10
128.464
 20
162.02
 11
128.647
 21
161.887
  0
LINE
  8
0
 10
128.647
 20
161.887
 11
128.812
 21
161.732
  0
LINE
  8
0
 10
128.812
 20
161.732
 11
128.956
 21
161.558
  0
LINE
  8
0
 10
128.956
 20
161.558
 11
129.077
 21
161.367
  0
LINE
  8
0
 10
129.077
 20
161.367
 11
129.174
 21
161.163
  0
LINE
  8
0
 10
129.174
 20
161.163
 11
129.243
 21
160.948
  0
LINE
  8
0
 10
129.243
 20
160.948
 11
129.286
 21
160.726
  0
LINE
  8
0
 10
129.286
 20
160.726
 11
129.3
 21
160.5
  0
LINE
  8
0
 10
129.3
 20
160.5
 11
129.286
 21
160.274
  0
LINE
  8
0
 10
129.286
 20
160.274
 11
129.243
 21
160.052
  0
LINE
  8
0
 10
129.243
 20
160.052
 11
129.174
 21
159.837
  0
LINE
  8
0
 10
129.174
 20
159.837
 11
129.077
 21
159.633
  0
LINE
  8
0
 10
129.077
 20
159.633
 11
128.956
 21
159.442
  0
LINE
  8
0
 10
128.956
 20
159.442
 11
128.812
 21
159.268
  0
LINE
  8
0
 10
128.812
 20
159.268
 11
128.647
 21
159.113
  0
LINE
  8
0
 10
128.647
 20
159.113
 11
128.464
 21
158.98
  0
LINE
  8
0
 10
128.464
 20
158.98
 11
128.266
 21
158.871
  0
LINE
  8
0
 10
128.266
 20
158.871
 11
128.056
 21
158.788
  0
LINE
  8
0
 10
128.056
 20
158.788
 11
127.837
 21
158.732
  0
LINE
  8
0
 10
127.837
 20
158.732
 11
127.613
 21
158.704
  0
LINE
  8
0
 10
127.613
 20
158.704
 11
127.387
 21
158.704
  0
LINE
  8
0
 10
-127.613
 20
158.704
 11
-127.837
 21
158.732
  0
LINE
  8
0
 10
-127.837
 20
158.732
 11
-128.056
 21
158.788
  0
LINE
  8
0
 10
-128.056
 20
158.788
 11
-128.266
 21
158.871
  0
LINE
  8
0
 10
-128.266
 20
158.871
 11
-128.464
 21
158.98
  0
LINE
  8
0
 10
-128.464
 20
158.98
 11
-128.647
 21
159.113
  0
LINE
  8
0
 10
-128.647
 20
159.113
 11
-128.812
 21
159.268
  0
LINE
  8
0
 10
-128.812
 20
159.268
 11
-128.956
 21
159.442
  0
LINE
  8
0
 10
-128.956
 20
159.442
 11
-129.077
 21
159.633
  0
LINE
  8
0
 10
-129.077
 20
159.633
 11
-129.174
 21
159.837
  0
LINE
  8
0
 10
-129.174
 20
159.837
 11
-129.243
 21
160.052
  0
LINE
  8
0
 10
-129.243
 20
160.052
 11
-129.286
 21
160.274
  0
LINE
  8
0
 10
-129.286
 20
160.274
 11
-129.3
 21
160.5
  0
LINE
  8
0
 10
-129.3
 20
160.5
 11
-129.286
 21
160.726
  0
LINE
  8
0
 10
-129.286
 20
160.726
 11
-129.243
 21
160.948
  0
LINE
  8
0
 10
-129.243
 20
160.948
 11
-129.174
 21
161.163
  0
LINE
  8
0
 10
-129.174
 20
161.163
 11
-129.077
 21
161.367
  0
LINE
  8
0
 10
-129.077
 20
161.367
 11
-128.956
 21
161.558
  0
LINE
  8
0
 10
-128.956
 20
161.558
 11
-128.812
 21
161.732
  0
LINE
  8
0
 10
-128.812
 20
161.732
 11
-128.647
 21
161.887
  0
LINE
  8
0
 10
-128.647
 20
161.887
 11
-128.464
 21
162.02
  0
LINE
  8
0
 10
-128.464
 20
162.02
 11
-128.266
 21
162.129
  0
LINE
  8
0
 10
-128.266
 20
162.129
 11
-128.056
 21
162.212
  0
LINE
  8
0
 10
-128.056
 20
162.212
 11
-127.837
 21
162.268
  0
LINE
  8
0
 10
-127.837
 20
162.268
 11
-127.613
 21
162.296
  0
LINE
  8
0
 10
-127.613
 20
162.296
 11
-127.387
 21
162.296
  0
LINE
  8
0
 10
-127.387
 20
162.296
 11
-127.163
 21
162.268
  0
LINE
  8
0
 10
-127.163
 20
162.268
 11
-126.944
 21
162.212
  0
LINE
  8
0
 10
-126.944
 20
162.212
 11
-126.734
 21
162.129
  0
LINE
  8
0
 10
-126.734
 20
162.129
 11
-126.536
 21
162.02
  0
LINE
  8
0
 10
-126.536
 20
162.02
 11
-126.353
 21
161.887
  0
LINE
  8
0
 10
-126.353
 20
161.887
 11
-126.188
 21
161.732
  0
LINE
  8
0
 10
-126.188
 20
161.732
 11
-126.044
 21
161.558
  0
LINE
  8
0
 10
-126.044
 20
161.558
 11
-125.923
 21
161.367
  0
LINE
  8
0
 10
-125.923
 20
161.367
 11
-125.826
 21
161.163
  0
LINE
  8
0
 10
-125.826
 20
161.163
 11
-125.757
 21
160.948
  0
LINE
  8
0
 10
-125.757
 20
160.948
 11
-125.714
 21
160.726
  0
LINE
  8
0
 10
-125.714
 20
160.726
 11
-125.7
 21
160.5
  0
LINE
  8
0
 10
-125.7
 20
160.5
 11
-125.714
 21
160.274
  0
LINE
  8
0
 10
-125.714
 20
160.274
 11
-125.757
 21
160.052
  0
LINE
  8
0
 10
-125.757
 20
160.052
 11
-125.826
 21
159.837
  0
LINE
  8
0
 10
-125.826
 20
159.837
 11
-125.923
 21
159.633
  0
LINE
  8
0
 10
-125.923
 20
159.633
 11
-126.044
 21
159.442
  0
LINE
  8
0
 10
-126.044
 20
159.442
 11
-126.188
 21
159.268
  0
LINE
  8
0
 10
-126.188
 20
159.268
 11
-126.353
 21
159.113
  0
LINE
  8
0
 10
-126.353
 20
159.113
 11
-126.536
 21
158.98
  0
LINE
  8
0
 10
-126.536
 20
158.98
 11
-126.734
 21
158.871
  0
LINE
  8
0
 10
-126.734
 20
158.871
 11
-126.944
 21
158.788
  0
LINE
  8
0
 10
-126.944
 20
158.788
 11
-127.163
 21
158.732
  0
LINE
  8
0
 10
-127.163
 20
158.732
 11
-127.387
 21
158.704
  0
LINE
  8
0
 10
-127.387
 20
158.704
 11
-127.613
 21
158.704
  0
LINE
  8
0
 10
-127.613
 20
113.704
 11
-127.837
 21
113.732
  0
LINE
  8
0
 10
-127.837
 20
113.732
 11
-128.056
 21
113.788
  0
LINE
  8
0
 10
-128.056
 20
113.788
 11
-128.266
 21
113.871
  0
LINE
  8
0
 10
-128.266
 20
113.871
 11
-128.464
 21
113.98
  0
LINE
  8
0
 10
-128.464
 20
113.98
 11
-128.647
 21
114.113
  0
LINE
  8
0
 10
-128.647
 20
114.113
 11
-128.812
 21
114.268
  0
LINE
  8
0
 10
-128.812
 20
114.268
 11
-128.956
 21
114.442
  0
LINE
  8
0
 10
-128.956
 20
114.442
 11
-129.077
 21
114.633
  0
LINE
  8
0
 10
-129.077
 20
114.633
 11
-129.174
 21
114.837
  0
LINE
  8
0
 10
-129.174
 20
114.837
 11
-129.243
 21
115.052
  0
LINE
  8
0
 10
-129.243
 20
115.052
 11
-129.286
 21
115.274
  0
LINE
  8
0
 10
-129.286
 20
115.274
 11
-129.3
 21
115.5
  0
LINE
  8
0
 10
-129.3
 20
115.5
 11
-129.286
 21
115.726
  0
LINE
  8
0
 10
-129.286
 20
115.726
 11
-129.243
 21
115.948
  0
LINE
  8
0
 10
-129.243
 20
115.948
 11
-129.174
 21
116.163
  0
LINE
  8
0
 10
-129.174
 20
116.163
 11
-129.077
 21
116.367
  0
LINE
  8
0
 10
-129.077
 20
116.367
 11
-128.956
 21
116.558
  0
LINE
  8
0
 10
-128.956
 20
116.558
 11
-128.812
 21
116.732
  0
LINE
  8
0
 10
-128.812
 20
116.732
 11
-128.647
 21
116.887
  0
LINE
  8
0
 10
-128.647
 20
116.887
 11
-128.464
 21
117.02
  0
LINE
  8
0
 10
-128.464
 20
117.02
 11
-128.266
 21
117.129
  0
LINE
  8
0
 10
-128.266
 20
117.129
 11
-128.056
 21
117.212
  0
LINE
  8
0
 10
-128.056
 20
117.212
 11
-127.837
 21
117.268
  0
LINE
  8
0
 10
-127.837
 20
117.268
 11
-127.613
 21
117.296
  0
LINE
  8
0
 10
-127.613
 20
117.296
 11
-127.387
 21
117.296
  0
LINE
  8
0
 10
-127.387
 20
117.296
 11
-127.163
 21
117.268
  0
LINE
  8
0
 10
-127.163
 20
117.268
 11
-126.944
 21
117.212
  0
LINE
  8
0
 10
-126.944
 20
117.212
 11
-126.734
 21
117.129
  0
LINE
  8
0
 10
-126.734
 20
117.129
 11
-126.536
 21
117.02
  0
LINE
  8
0
 10
-126.536
 20
117.02
 11
-126.353
 21
116.887
  0
LINE
  8
0
 10
-126.353
 20
116.887
 11
-126.188
 21
116.732
  0
LINE
  8
0
 10
-126.188
 20
116.732
 11
-126.044
 21
116.558
  0
LINE
  8
0
 10
-126.044
 20
116.558
 11
-125.923
 21
116.367
  0
LINE
  8
0
 10
-125.923
 20
116.367
 11
-125.826
 21
116.163
  0
LINE
  8
0
 10
-125.826
 20
116.163
 11
-125.757
 21
115.948
  0
LINE
  8
0
 10
-125.757
 20
115.948
 11
-125.714
 21
115.726
  0
LINE
  8
0
 10
-125.714
 20
115.726
 11
-125.7
 21
115.5
  0
LINE
  8
0
 10
-125.7
 20
115.5
 11
-125.714
 21
115.274
  0
LINE
  8
0
 10
-125.714
 20
115.274
 11
-125.757
 21
115.052
  0
LINE
  8
0
 10
-125.757
 20
115.052
 11
-125.826
 21
114.837
  0
LINE
  8
0
 10
-125.826
 20
114.837
 11
-125.923
 21
114.633
  0
LINE
  8
0
 10
-125.923
 20
114.633
 11
-126.044
 21
114.442
  0
LINE
  8
0
 10
-126.044
 20
114.442
 11
-126.188
 21
114.268
  0
LINE
  8
0
 10
-126.188
 20
114.268
 11
-126.353
 21
114.113
  0
LINE
  8
0
 10
-126.353
 20
114.113
 11
-126.536
 21
113.98
  0
LINE
  8
0
 10
-126.536
 20
113.98
 11
-126.734
 21
113.871
  0
LINE
  8
0
 10
-126.734
 20
113.871
 11
-126.944
 21
113.788
  0
LINE
  8
0
 10
-126.944
 20
113.788
 11
-127.163
 21
113.732
  0
LINE
  8
0
 10
-127.163
 20
113.732
 11
-127.387
 21
113.704
  0
LINE
  8
0
 10
-127.387
 20
113.704
 11
-127.613
 21
113.704
  0
LINE
  8
0
 10
127.387
 20
113.704
 11
127.163
 21
113.732
  0
LINE
  8
0
 10
127.163
 20
113.732
 11
126.944
 21
113.788
  0
LINE
  8
0
 10
126.944
 20
113.788
 11
126.734
 21
113.871
  0
LINE
  8
0
 10
126.734
 20
113.871
 11
126.536
 21
113.98
  0
LINE
  8
0
 10
126.536
 20
113.98
 11
126.353
 21
114.113
  0
LINE
  8
0
 10
126.353
 20
114.113
 11
126.188
 21
114.268
  0
LINE
  8
0
 10
126.188
 20
114.268
 11
126.044
 21
114.442
  0
LINE
  8
0
 10
126.044
 20
114.442
 11
125.923
 21
114.633
  0
LINE
  8
0
 10
125.923
 20
114.633
 11
125.826
 21
114.837
  0
LINE
  8
0
 10
125.826
 20
114.837
 11
125.757
 21
115.052
  0
LINE
  8
0
 10
125.757
 20
115.052
 11
125.714
 21
115.274
  0
LINE
  8
0
 10
125.714
 20
115.274
 11
125.7
 21
115.5
  0
LINE
  8
0
 10
125.7
 20
115.5
 11
125.714
 21
115.726
  0
LINE
  8
0
 10
125.714
 20
115.726
 11
125.757
 21
115.948
  0
LINE
  8
0
 10
125.757
 20
115.948
 11
125.826
 21
116.163
  0
LINE
  8
0
 10
125.826
 20
116.163
 11
125.923
 21
116.367
  0
LINE
  8
0
 10
125.923
 20
116.367
 11
126.044
 21
116.558
  0
LINE
  8
0
 10
126.044
 20
116.558
 11
126.188
 21
116.732
  0
LINE
  8
0
 10
126.188
 20
116.732
 11
126.353
 21
116.887
  0
LINE
  8
0
 10
126.353
 20
116.887
 11
126.536
 21
117.02
  0
LINE
  8
0
 10
126.536
 20
117.02
 11
126.734
 21
117.129
  0
LINE
  8
0
 10
126.734
 20
117.129
 11
126.944
 21
117.212
  0
LINE
  8
0
 10
126.944
 20
117.212
 11
127.163
 21
117.268
  0
LINE
  8
0
 10
127.163
 20
117.268
 11
127.387
 21
117.296
  0
LINE
  8
0
 10
127.387
 20
117.296
 11
127.613
 21
117.296
  0
LINE
  8
0
 10
127.613
 20
117.296
 11
127.837
 21
117.268
  0
LINE
  8
0
 10
127.837
 20
117.268
 11
128.056
 21
117.212
  0
LINE
  8
0
 10
128.056
 20
117.212
 11
128.266
 21
117.129
  0
LINE
  8
0
 10
128.266
 20
117.129
 11
128.464
 21
117.02
  0
LINE
  8
0
 10
128.464
 20
117.02
 11
128.647
 21
116.887
  0
LINE
  8
0
 10
128.647
 20
116.887
 11
128.812
 21
116.732
  0
LINE
  8
0
 10
128.812
 20
116.732
 11
128.956
 21
116.558
  0
LINE
  8
0
 10
128.956
 20
116.558
 11
129.077
 21
116.367
  0
LINE
  8
0
 10
129.077
 20
116.367
 11
129.174
 21
116.163
  0
LINE
  8
0
 10
129.174
 20
116.163
 11
129.243
 21
115.948
  0
LINE
  8
0
 10
129.243
 20
115.948
 11
129.286
 21
115.726
  0
LINE
  8
0
 10
129.286
 20
115.726
 11
129.3
 21
115.5
  0
LINE
  8
0
 10
129.3
 20
115.5
 11
129.286
 21
115.274
  0
LINE
  8
0
 10
129.286
 20
115.274
 11
129.243
 21
115.052
  0
LINE
  8
0
 10
129.243
 20
115.052
 11
129.174
 21
114.837
  0
LINE
  8
0
 10
129.174
 20
114.837
 11
129.077
 21
114.633
  0
LINE
  8
0
 10
129.077
 20
114.633
 11
128.956
 21
114.442
  0
LINE
  8
0
 10
128.956
 20
114.442
 11
128.812
 21
114.268
  0
LINE
  8
0
 10
128.812
 20
114.268
 11
128.647
 21
114.113
  0
LINE
  8
0
 10
128.647
 20
114.113
 11
128.464
 21
113.98
  0
LINE
  8
0
 10
128.464
 20
113.98
 11
128.266
 21
113.871
  0
LINE
  8
0
 10
128.266
 20
113.871
 11
128.056
 21
113.788
  0
LINE
  8
0
 10
128.056
 20
113.788
 11
127.837
 21
113.732
  0
LINE
  8
0
 10
127.837
 20
113.732
 11
127.613
 21
113.704
  0
LINE
  8
0
 10
127.613
 20
113.704
 11
127.387
 21
113.704
  0
ENDSEC
  0
SECTION
  2
OBJECTS
  0
DICTIONARY
  0
ENDSEC
  0
EOF
