<?xml version="1.0" standalone="no"?>
<!DOCTYPE svg PUBLIC "-//W3C//DTD SVG 1.1//EN" "http://www.w3.org/Graphics/SVG/1.1/DTD/svg11.dtd">
<svg width="272mm" height="198mm" viewBox="-137 -306 272 198" xmlns="http://www.w3.org/2000/svg" version="1.1">
<title>OpenSCAD Model</title>
<path d="
M -133.5,-247.441 L -133.187,-247.147 L -132.679,-246.778 L -132.129,-246.476 L -131.545,-246.245 L -130.937,-246.089
 L -130.314,-246.01 L 130.314,-246.01 L 130.937,-246.089 L 131.545,-246.245 L 132.129,-246.476 L 132.679,-246.778
 L 133.187,-247.147 L 133.645,-247.577 L 134.045,-248.061 L 134.382,-248.591 L 134.649,-249.159 L 134.843,-249.757
 L 134.961,-250.373 L 135,-251 L 135,-301 L 134.961,-301.627 L 134.843,-302.243 L 134.649,-302.841
 L 134.382,-303.409 L 134.045,-303.939 L 133.645,-304.423 L 133.187,-304.853 L 132.679,-305.222 L 132.129,-305.524
 L 131.545,-305.755 L 130.937,-305.911 L 130.314,-305.99 L -130.314,-305.99 L -130.937,-305.911 L -131.545,-305.755
 L -132.129,-305.524 L -132.679,-305.222 L -133.187,-304.853 L -133.5,-304.559 L -133.5,-305.99 L -136.5,-305.99
 L -136.5,-246.01 L -133.5,-246.01 z
M -129.743,-247.635 L -130.226,-247.696 L -130.697,-247.817 L -131.149,-247.996 L -131.575,-248.23 L -131.969,-248.516
 L -132.323,-248.849 L -132.633,-249.224 L -132.894,-249.634 L -133.101,-250.074 L -133.251,-250.537 L -133.342,-251.015
 L -133.373,-251.5 L -133.373,-300.5 L -133.342,-300.985 L -133.251,-301.463 L -133.101,-301.926 L -132.894,-302.366
 L -132.633,-302.776 L -132.323,-303.151 L -131.969,-303.484 L -131.575,-303.77 L -131.149,-304.004 L -130.697,-304.183
 L -130.226,-304.304 L -129.743,-304.365 L 129.743,-304.365 L 130.226,-304.304 L 130.697,-304.183 L 131.149,-304.004
 L 131.575,-303.77 L 131.969,-303.484 L 132.323,-303.151 L 132.633,-302.776 L 132.894,-302.366 L 133.101,-301.926
 L 133.251,-301.463 L 133.342,-300.985 L 133.373,-300.5 L 133.373,-251.5 L 133.342,-251.015 L 133.251,-250.537
 L 133.101,-250.074 L 132.894,-249.634 L 132.633,-249.224 L 132.323,-248.849 L 131.969,-248.516 L 131.575,-248.23
 L 131.149,-247.996 L 130.697,-247.817 L 130.226,-247.696 L 129.743,-247.635 z
M 130.937,-177.089 L 131.545,-177.245 L 132.129,-177.476 L 132.679,-177.778 L 133.187,-178.147 L 133.645,-178.577
 L 134.045,-179.061 L 134.382,-179.591 L 134.649,-180.159 L 134.843,-180.757 L 134.961,-181.373 L 135,-182
 L 135,-232 L 134.961,-232.627 L 134.843,-233.243 L 134.649,-233.841 L 134.382,-234.409 L 134.045,-234.939
 L 133.645,-235.423 L 133.187,-235.853 L 132.679,-236.222 L 132.129,-236.524 L 131.545,-236.755 L 130.937,-236.911
 L 130.314,-236.99 L -130.314,-236.99 L -130.937,-236.911 L -131.545,-236.755 L -132.129,-236.524 L -132.679,-236.222
 L -133.187,-235.853 L -133.5,-235.559 L -133.5,-236.615 L -136.5,-236.615 L -136.5,-177.385 L -133.5,-177.385
 L -133.5,-178.441 L -133.187,-178.147 L -132.679,-177.778 L -132.129,-177.476 L -131.545,-177.245 L -130.937,-177.089
 L -130.314,-177.01 L 130.314,-177.01 z
M -127.651,-227.105 L -127.95,-227.143 L -128.242,-227.217 L -128.522,-227.328 L -128.786,-227.474 L -129.03,-227.651
 L -129.25,-227.857 L -129.442,-228.089 L -129.603,-228.344 L -129.731,-228.617 L -129.825,-228.903 L -129.881,-229.199
 L -129.9,-229.5 L -129.881,-229.801 L -129.825,-230.097 L -129.731,-230.383 L -129.603,-230.656 L -129.442,-230.911
 L -129.25,-231.143 L -129.03,-231.349 L -128.786,-231.526 L -128.522,-231.672 L -128.242,-231.783 L -127.95,-231.857
 L -127.651,-231.895 L -127.349,-231.895 L -127.05,-231.857 L -126.758,-231.783 L -126.478,-231.672 L -126.214,-231.526
 L -125.97,-231.349 L -125.75,-231.143 L -125.558,-230.911 L -125.397,-230.656 L -125.269,-230.383 L -125.175,-230.097
 L -125.119,-229.801 L -125.1,-229.5 L -125.119,-229.199 L -125.175,-228.903 L -125.269,-228.617 L -125.397,-228.344
 L -125.558,-228.089 L -125.75,-227.857 L -125.97,-227.651 L -126.214,-227.474 L -126.478,-227.328 L -126.758,-227.217
 L -127.05,-227.143 L -127.349,-227.105 z
M 127.349,-227.105 L 127.05,-227.143 L 126.758,-227.217 L 126.478,-227.328 L 126.214,-227.474 L 125.97,-227.651
 L 125.75,-227.857 L 125.558,-228.089 L 125.397,-228.344 L 125.269,-228.617 L 125.175,-228.903 L 125.119,-229.199
 L 125.1,-229.5 L 125.119,-229.801 L 125.175,-230.097 L 125.269,-230.383 L 125.397,-230.656 L 125.558,-230.911
 L 125.75,-231.143 L 125.97,-231.349 L 126.214,-231.526 L 126.478,-231.672 L 126.758,-231.783 L 127.05,-231.857
 L 127.349,-231.895 L 127.651,-231.895 L 127.95,-231.857 L 128.242,-231.783 L 128.522,-231.672 L 128.786,-231.526
 L 129.03,-231.349 L 129.25,-231.143 L 129.442,-230.911 L 129.603,-230.656 L 129.731,-230.383 L 129.825,-230.097
 L 129.881,-229.801 L 129.9,-229.5 L 129.881,-229.199 L 129.825,-228.903 L 129.731,-228.617 L 129.603,-228.344
 L 129.442,-228.089 L 129.25,-227.857 L 129.03,-227.651 L 128.786,-227.474 L 128.522,-227.328 L 128.242,-227.217
 L 127.95,-227.143 L 127.651,-227.105 z
M 127.349,-182.105 L 127.05,-182.143 L 126.758,-182.217 L 126.478,-182.328 L 126.214,-182.474 L 125.97,-182.651
 L 125.75,-182.857 L 125.558,-183.089 L 125.397,-183.344 L 125.269,-183.617 L 125.175,-183.903 L 125.119,-184.199
 L 125.1,-184.5 L 125.119,-184.801 L 125.175,-185.097 L 125.269,-185.383 L 125.397,-185.656 L 125.558,-185.911
 L 125.75,-186.143 L 125.97,-186.349 L 126.214,-186.526 L 126.478,-186.672 L 126.758,-186.783 L 127.05,-186.857
 L 127.349,-186.895 L 127.651,-186.895 L 127.95,-186.857 L 128.242,-186.783 L 128.522,-186.672 L 128.786,-186.526
 L 129.03,-186.349 L 129.25,-186.143 L 129.442,-185.911 L 129.603,-185.656 L 129.731,-185.383 L 129.825,-185.097
 L 129.881,-184.801 L 129.9,-184.5 L 129.881,-184.199 L 129.825,-183.903 L 129.731,-183.617 L 129.603,-183.344
 L 129.442,-183.089 L 129.25,-182.857 L 129.03,-182.651 L 128.786,-182.474 L 128.522,-182.328 L 128.242,-182.217
 L 127.95,-182.143 L 127.651,-182.105 z
M -127.651,-182.105 L -127.95,-182.143 L -128.242,-182.217 L -128.522,-182.328 L -128.786,-182.474 L -129.03,-182.651
 L -129.25,-182.857 L -129.442,-183.089 L -129.603,-183.344 L -129.731,-183.617 L -129.825,-183.903 L -129.881,-184.199
 L -129.9,-184.5 L -129.881,-184.801 L -129.825,-185.097 L -129.731,-185.383 L -129.603,-185.656 L -129.442,-185.911
 L -129.25,-186.143 L -129.03,-186.349 L -128.786,-186.526 L -128.522,-186.672 L -128.242,-186.783 L -127.95,-186.857
 L -127.651,-186.895 L -127.349,-186.895 L -127.05,-186.857 L -126.758,-186.783 L -126.478,-186.672 L -126.214,-186.526
 L -125.97,-186.349 L -125.75,-186.143 L -125.558,-185.911 L -125.397,-185.656 L -125.269,-185.383 L -125.175,-185.097
 L -125.119,-184.801 L -125.1,-184.5 L -125.119,-184.199 L -125.175,-183.903 L -125.269,-183.617 L -125.397,-183.344
 L -125.558,-183.089 L -125.75,-182.857 L -125.97,-182.651 L -126.214,-182.474 L -126.478,-182.328 L -126.758,-182.217
 L -127.05,-182.143 L -127.349,-182.105 z
M 130.937,-108.089 L 131.545,-108.245 L 132.129,-108.476 L 132.679,-108.778 L 133.187,-109.147 L 133.645,-109.577
 L 134.045,-110.061 L 134.382,-110.591 L 134.649,-111.159 L 134.843,-111.757 L 134.961,-112.373 L 135,-113
 L 135,-163 L 134.961,-163.627 L 134.843,-164.243 L 134.649,-164.841 L 134.382,-165.409 L 134.045,-165.939
 L 133.645,-166.423 L 133.187,-166.853 L 132.679,-167.222 L 132.129,-167.524 L 131.545,-167.755 L 130.937,-167.911
 L 130.314,-167.99 L -130.314,-167.99 L -130.937,-167.911 L -131.545,-167.755 L -132.129,-167.524 L -132.679,-167.222
 L -133.187,-166.853 L -133.645,-166.423 L -134.045,-165.939 L -134.382,-165.409 L -134.649,-164.841 L -134.843,-164.243
 L -134.9,-163.944 L -136.5,-163.944 L -136.5,-112.056 L -134.9,-112.056 L -134.843,-111.757 L -134.649,-111.159
 L -134.382,-110.591 L -134.045,-110.061 L -133.645,-109.577 L -133.187,-109.147 L -132.679,-108.778 L -132.129,-108.476
 L -131.545,-108.245 L -130.937,-108.089 L -130.314,-108.01 L 130.314,-108.01 z
M 127.387,-158.704 L 127.163,-158.732 L 126.944,-158.788 L 126.734,-158.871 L 126.536,-158.98 L 126.353,-159.113
 L 126.188,-159.268 L 126.044,-159.442 L 125.923,-159.633 L 125.826,-159.837 L 125.757,-160.052 L 125.714,-160.274
 L 125.7,-160.5 L 125.714,-160.726 L 125.757,-160.948 L 125.826,-161.163 L 125.923,-161.367 L 126.044,-161.558
 L 126.188,-161.732 L 126.353,-161.887 L 126.536,-162.02 L 126.734,-162.129 L 126.944,-162.212 L 127.163,-162.268
 L 127.387,-162.296 L 127.613,-162.296 L 127.837,-162.268 L 128.056,-162.212 L 128.266,-162.129 L 128.464,-162.02
 L 128.647,-161.887 L 128.812,-161.732 L 128.956,-161.558 L 129.077,-161.367 L 129.174,-161.163 L 129.243,-160.948
 L 129.286,-160.726 L 129.3,-160.5 L 129.286,-160.274 L 129.243,-160.052 L 129.174,-159.837 L 129.077,-159.633
 L 128.956,-159.442 L 128.812,-159.268 L 128.647,-159.113 L 128.464,-158.98 L 128.266,-158.871 L 128.056,-158.788
 L 127.837,-158.732 L 127.613,-158.704 z
M -127.613,-158.704 L -127.837,-158.732 L -128.056,-158.788 L -128.266,-158.871 L -128.464,-158.98 L -128.647,-159.113
 L -128.812,-159.268 L -128.956,-159.442 L -129.077,-159.633 L -129.174,-159.837 L -129.243,-160.052 L -129.286,-160.274
 L -129.3,-160.5 L -129.286,-160.726 L -129.243,-160.948 L -129.174,-161.163 L -129.077,-161.367 L -128.956,-161.558
 L -128.812,-161.732 L -128.647,-161.887 L -128.464,-162.02 L -128.266,-162.129 L -128.056,-162.212 L -127.837,-162.268
 L -127.613,-162.296 L -127.387,-162.296 L -127.163,-162.268 L -126.944,-162.212 L -126.734,-162.129 L -126.536,-162.02
 L -126.353,-161.887 L -126.188,-161.732 L -126.044,-161.558 L -125.923,-161.367 L -125.826,-161.163 L -125.757,-160.948
 L -125.714,-160.726 L -125.7,-160.5 L -125.714,-160.274 L -125.757,-160.052 L -125.826,-159.837 L -125.923,-159.633
 L -126.044,-159.442 L -126.188,-159.268 L -126.353,-159.113 L -126.536,-158.98 L -126.734,-158.871 L -126.944,-158.788
 L -127.163,-158.732 L -127.387,-158.704 z
M -127.613,-113.704 L -127.837,-113.732 L -128.056,-113.788 L -128.266,-113.871 L -128.464,-113.98 L -128.647,-114.113
 L -128.812,-114.268 L -128.956,-114.442 L -129.077,-114.633 L -129.174,-114.837 L -129.243,-115.052 L -129.286,-115.274
 L -129.3,-115.5 L -129.286,-115.726 L -129.243,-115.948 L -129.174,-116.163 L -129.077,-116.367 L -128.956,-116.558
 L -128.812,-116.732 L -128.647,-116.887 L -128.464,-117.02 L -128.266,-117.129 L -128.056,-117.212 L -127.837,-117.268
 L -127.613,-117.296 L -127.387,-117.296 L -127.163,-117.268 L -126.944,-117.212 L -126.734,-117.129 L -126.536,-117.02
 L -126.353,-116.887 L -126.188,-116.732 L -126.044,-116.558 L -125.923,-116.367 L -125.826,-116.163 L -125.757,-115.948
 L -125.714,-115.726 L -125.7,-115.5 L -125.714,-115.274 L -125.757,-115.052 L -125.826,-114.837 L -125.923,-114.633
 L -126.044,-114.442 L -126.188,-114.268 L -126.353,-114.113 L -126.536,-113.98 L -126.734,-113.871 L -126.944,-113.788
 L -127.163,-113.732 L -127.387,-113.704 z
M 127.387,-113.704 L 127.163,-113.732 L 126.944,-113.788 L 126.734,-113.871 L 126.536,-113.98 L 126.353,-114.113
 L 126.188,-114.268 L 126.044,-114.442 L 125.923,-114.633 L 125.826,-114.837 L 125.757,-115.052 L 125.714,-115.274
 L 125.7,-115.5 L 125.714,-115.726 L 125.757,-115.948 L 125.826,-116.163 L 125.923,-116.367 L 126.044,-116.558
 L 126.188,-116.732 L 126.353,-116.887 L 126.536,-117.02 L 126.734,-117.129 L 126.944,-117.212 L 127.163,-117.268
 L 127.387,-117.296 L 127.613,-117.296 L 127.837,-117.268 L 128.056,-117.212 L 128.266,-117.129 L 128.464,-117.02
 L 128.647,-116.887 L 128.812,-116.732 L 128.956,-116.558 L 129.077,-116.367 L 129.174,-116.163 L 129.243,-115.948
 L 129.286,-115.726 L 129.3,-115.5 L 129.286,-115.274 L 129.243,-115.052 L 129.174,-114.837 L 129.077,-114.633
 L 128.956,-114.442 L 128.812,-114.268 L 128.647,-114.113 L 128.464,-113.98 L 128.266,-113.871 L 128.056,-113.788
 L 127.837,-113.732 L 127.613,-113.704 z
" stroke="black" fill="lightgray" stroke-width="0.5"/>
</svg>
