  0
SECTION
  2
BLOCKS
  0
ENDSEC
  0
SECTION
  2
ENTITIES
  0
LINE
  8
0
 10
130.937
 20
1192.59
 11
131.545
 21
1192.74
  0
LINE
  8
0
 10
131.545
 20
1192.74
 11
132.129
 21
1192.98
  0
LINE
  8
0
 10
132.129
 20
1192.98
 11
132.679
 21
1193.28
  0
LINE
  8
0
 10
132.679
 20
1193.28
 11
133.187
 21
1193.65
  0
LINE
  8
0
 10
133.187
 20
1193.65
 11
133.645
 21
1194.08
  0
LINE
  8
0
 10
133.645
 20
1194.08
 11
134.045
 21
1194.56
  0
LINE
  8
0
 10
134.045
 20
1194.56
 11
134.382
 21
1195.09
  0
LINE
  8
0
 10
134.382
 20
1195.09
 11
134.649
 21
1195.66
  0
LINE
  8
0
 10
134.649
 20
1195.66
 11
134.843
 21
1196.26
  0
LINE
  8
0
 10
134.843
 20
1196.26
 11
134.961
 21
1196.87
  0
LINE
  8
0
 10
134.961
 20
1196.87
 11
135
 21
1197.5
  0
LINE
  8
0
 10
135
 20
1197.5
 11
135
 21
1442.5
  0
LINE
  8
0
 10
135
 20
1442.5
 11
134.961
 21
1443.13
  0
LINE
  8
0
 10
134.961
 20
1443.13
 11
134.843
 21
1443.74
  0
LINE
  8
0
 10
134.843
 20
1443.74
 11
134.649
 21
1444.34
  0
LINE
  8
0
 10
134.649
 20
1444.34
 11
134.382
 21
1444.91
  0
LINE
  8
0
 10
134.382
 20
1444.91
 11
134.045
 21
1445.44
  0
LINE
  8
0
 10
134.045
 20
1445.44
 11
133.645
 21
1445.92
  0
LINE
  8
0
 10
133.645
 20
1445.92
 11
133.187
 21
1446.35
  0
LINE
  8
0
 10
133.187
 20
1446.35
 11
132.679
 21
1446.72
  0
LINE
  8
0
 10
132.679
 20
1446.72
 11
132.129
 21
1447.02
  0
LINE
  8
0
 10
132.129
 20
1447.02
 11
131.545
 21
1447.26
  0
LINE
  8
0
 10
131.545
 20
1447.26
 11
130.937
 21
1447.41
  0
LINE
  8
0
 10
130.937
 20
1447.41
 11
130.314
 21
1447.49
  0
LINE
  8
0
 10
130.314
 20
1447.49
 11
-130.314
 21
1447.49
  0
LINE
  8
0
 10
-130.314
 20
1447.49
 11
-130.937
 21
1447.41
  0
LINE
  8
0
 10
-130.937
 20
1447.41
 11
-131.545
 21
1447.26
  0
LINE
  8
0
 10
-131.545
 20
1447.26
 11
-132.129
 21
1447.02
  0
LINE
  8
0
 10
-132.129
 20
1447.02
 11
-132.679
 21
1446.72
  0
LINE
  8
0
 10
-132.679
 20
1446.72
 11
-133.187
 21
1446.35
  0
LINE
  8
0
 10
-133.187
 20
1446.35
 11
-133.645
 21
1445.92
  0
LINE
  8
0
 10
-133.645
 20
1445.92
 11
-134.045
 21
1445.44
  0
LINE
  8
0
 10
-134.045
 20
1445.44
 11
-134.382
 21
1444.91
  0
LINE
  8
0
 10
-134.382
 20
1444.91
 11
-134.649
 21
1444.34
  0
LINE
  8
0
 10
-134.649
 20
1444.34
 11
-134.843
 21
1443.74
  0
LINE
  8
0
 10
-134.843
 20
1443.74
 11
-134.961
 21
1443.13
  0
LINE
  8
0
 10
-134.961
 20
1443.13
 11
-135
 21
1442.5
  0
LINE
  8
0
 10
-135
 20
1442.5
 11
-135
 21
1197.5
  0
LINE
  8
0
 10
-135
 20
1197.5
 11
-134.961
 21
1196.87
  0
LINE
  8
0
 10
-134.961
 20
1196.87
 11
-134.843
 21
1196.26
  0
LINE
  8
0
 10
-134.843
 20
1196.26
 11
-134.649
 21
1195.66
  0
LINE
  8
0
 10
-134.649
 20
1195.66
 11
-134.382
 21
1195.09
  0
LINE
  8
0
 10
-134.382
 20
1195.09
 11
-134.045
 21
1194.56
  0
LINE
  8
0
 10
-134.045
 20
1194.56
 11
-133.645
 21
1194.08
  0
LINE
  8
0
 10
-133.645
 20
1194.08
 11
-133.187
 21
1193.65
  0
LINE
  8
0
 10
-133.187
 20
1193.65
 11
-132.679
 21
1193.28
  0
LINE
  8
0
 10
-132.679
 20
1193.28
 11
-132.129
 21
1192.98
  0
LINE
  8
0
 10
-132.129
 20
1192.98
 11
-131.545
 21
1192.74
  0
LINE
  8
0
 10
-131.545
 20
1192.74
 11
-130.937
 21
1192.59
  0
LINE
  8
0
 10
-130.937
 20
1192.59
 11
-130.314
 21
1192.51
  0
LINE
  8
0
 10
-130.314
 20
1192.51
 11
130.314
 21
1192.51
  0
LINE
  8
0
 10
130.314
 20
1192.51
 11
130.937
 21
1192.59
  0
LINE
  8
0
 10
-130.048
 20
1193.01
 11
-130.64
 21
1193.08
  0
LINE
  8
0
 10
-130.64
 20
1193.08
 11
-131.218
 21
1193.23
  0
LINE
  8
0
 10
-131.218
 20
1193.23
 11
-131.772
 21
1193.45
  0
LINE
  8
0
 10
-131.772
 20
1193.45
 11
-132.295
 21
1193.74
  0
LINE
  8
0
 10
-132.295
 20
1193.74
 11
-132.778
 21
1194.09
  0
LINE
  8
0
 10
-132.778
 20
1194.09
 11
-133.213
 21
1194.5
  0
LINE
  8
0
 10
-133.213
 20
1194.5
 11
-133.593
 21
1194.96
  0
LINE
  8
0
 10
-133.593
 20
1194.96
 11
-133.912
 21
1195.46
  0
LINE
  8
0
 10
-133.912
 20
1195.46
 11
-134.166
 21
1196
  0
LINE
  8
0
 10
-134.166
 20
1196
 11
-134.351
 21
1196.57
  0
LINE
  8
0
 10
-134.351
 20
1196.57
 11
-134.463
 21
1197.15
  0
LINE
  8
0
 10
-134.463
 20
1197.15
 11
-134.5
 21
1197.75
  0
LINE
  8
0
 10
-134.5
 20
1197.75
 11
-134.5
 21
1442.25
  0
LINE
  8
0
 10
-134.5
 20
1442.25
 11
-134.463
 21
1442.85
  0
LINE
  8
0
 10
-134.463
 20
1442.85
 11
-134.351
 21
1443.43
  0
LINE
  8
0
 10
-134.351
 20
1443.43
 11
-134.166
 21
1444
  0
LINE
  8
0
 10
-134.166
 20
1444
 11
-133.912
 21
1444.54
  0
LINE
  8
0
 10
-133.912
 20
1444.54
 11
-133.593
 21
1445.04
  0
LINE
  8
0
 10
-133.593
 20
1445.04
 11
-133.213
 21
1445.5
  0
LINE
  8
0
 10
-133.213
 20
1445.5
 11
-132.778
 21
1445.91
  0
LINE
  8
0
 10
-132.778
 20
1445.91
 11
-132.295
 21
1446.26
  0
LINE
  8
0
 10
-132.295
 20
1446.26
 11
-131.772
 21
1446.55
  0
LINE
  8
0
 10
-131.772
 20
1446.55
 11
-131.218
 21
1446.77
  0
LINE
  8
0
 10
-131.218
 20
1446.77
 11
-130.64
 21
1446.92
  0
LINE
  8
0
 10
-130.64
 20
1446.92
 11
-130.048
 21
1446.99
  0
LINE
  8
0
 10
-130.048
 20
1446.99
 11
130.048
 21
1446.99
  0
LINE
  8
0
 10
130.048
 20
1446.99
 11
130.64
 21
1446.92
  0
LINE
  8
0
 10
130.64
 20
1446.92
 11
131.218
 21
1446.77
  0
LINE
  8
0
 10
131.218
 20
1446.77
 11
131.772
 21
1446.55
  0
LINE
  8
0
 10
131.772
 20
1446.55
 11
132.295
 21
1446.26
  0
LINE
  8
0
 10
132.295
 20
1446.26
 11
132.778
 21
1445.91
  0
LINE
  8
0
 10
132.778
 20
1445.91
 11
133.213
 21
1445.5
  0
LINE
  8
0
 10
133.213
 20
1445.5
 11
133.593
 21
1445.04
  0
LINE
  8
0
 10
133.593
 20
1445.04
 11
133.912
 21
1444.54
  0
LINE
  8
0
 10
133.912
 20
1444.54
 11
134.166
 21
1444
  0
LINE
  8
0
 10
134.166
 20
1444
 11
134.351
 21
1443.43
  0
LINE
  8
0
 10
134.351
 20
1443.43
 11
134.463
 21
1442.85
  0
LINE
  8
0
 10
134.463
 20
1442.85
 11
134.5
 21
1442.25
  0
LINE
  8
0
 10
134.5
 20
1442.25
 11
134.5
 21
1197.75
  0
LINE
  8
0
 10
134.5
 20
1197.75
 11
134.463
 21
1197.15
  0
LINE
  8
0
 10
134.463
 20
1197.15
 11
134.351
 21
1196.57
  0
LINE
  8
0
 10
134.351
 20
1196.57
 11
134.166
 21
1196
  0
LINE
  8
0
 10
134.166
 20
1196
 11
133.912
 21
1195.46
  0
LINE
  8
0
 10
133.912
 20
1195.46
 11
133.593
 21
1194.96
  0
LINE
  8
0
 10
133.593
 20
1194.96
 11
133.213
 21
1194.5
  0
LINE
  8
0
 10
133.213
 20
1194.5
 11
132.778
 21
1194.09
  0
LINE
  8
0
 10
132.778
 20
1194.09
 11
132.295
 21
1193.74
  0
LINE
  8
0
 10
132.295
 20
1193.74
 11
131.772
 21
1193.45
  0
LINE
  8
0
 10
131.772
 20
1193.45
 11
131.218
 21
1193.23
  0
LINE
  8
0
 10
131.218
 20
1193.23
 11
130.64
 21
1193.08
  0
LINE
  8
0
 10
130.64
 20
1193.08
 11
130.048
 21
1193.01
  0
LINE
  8
0
 10
130.048
 20
1193.01
 11
-130.048
 21
1193.01
  0
LINE
  8
0
 10
130.937
 20
928.589
 11
131.545
 21
928.745
  0
LINE
  8
0
 10
131.545
 20
928.745
 11
132.129
 21
928.976
  0
LINE
  8
0
 10
132.129
 20
928.976
 11
132.679
 21
929.278
  0
LINE
  8
0
 10
132.679
 20
929.278
 11
133.187
 21
929.647
  0
LINE
  8
0
 10
133.187
 20
929.647
 11
133.645
 21
930.077
  0
LINE
  8
0
 10
133.645
 20
930.077
 11
134.045
 21
930.561
  0
LINE
  8
0
 10
134.045
 20
930.561
 11
134.382
 21
931.091
  0
LINE
  8
0
 10
134.382
 20
931.091
 11
134.649
 21
931.659
  0
LINE
  8
0
 10
134.649
 20
931.659
 11
134.843
 21
932.257
  0
LINE
  8
0
 10
134.843
 20
932.257
 11
134.961
 21
932.873
  0
LINE
  8
0
 10
134.961
 20
932.873
 11
135
 21
933.5
  0
LINE
  8
0
 10
135
 20
933.5
 11
135
 21
1178.5
  0
LINE
  8
0
 10
135
 20
1178.5
 11
134.961
 21
1179.13
  0
LINE
  8
0
 10
134.961
 20
1179.13
 11
134.843
 21
1179.74
  0
LINE
  8
0
 10
134.843
 20
1179.74
 11
134.649
 21
1180.34
  0
LINE
  8
0
 10
134.649
 20
1180.34
 11
134.382
 21
1180.91
  0
LINE
  8
0
 10
134.382
 20
1180.91
 11
134.045
 21
1181.44
  0
LINE
  8
0
 10
134.045
 20
1181.44
 11
133.645
 21
1181.92
  0
LINE
  8
0
 10
133.645
 20
1181.92
 11
133.187
 21
1182.35
  0
LINE
  8
0
 10
133.187
 20
1182.35
 11
132.679
 21
1182.72
  0
LINE
  8
0
 10
132.679
 20
1182.72
 11
132.129
 21
1183.02
  0
LINE
  8
0
 10
132.129
 20
1183.02
 11
131.545
 21
1183.26
  0
LINE
  8
0
 10
131.545
 20
1183.26
 11
130.937
 21
1183.41
  0
LINE
  8
0
 10
130.937
 20
1183.41
 11
130.314
 21
1183.49
  0
LINE
  8
0
 10
130.314
 20
1183.49
 11
-130.314
 21
1183.49
  0
LINE
  8
0
 10
-130.314
 20
1183.49
 11
-130.937
 21
1183.41
  0
LINE
  8
0
 10
-130.937
 20
1183.41
 11
-131.545
 21
1183.26
  0
LINE
  8
0
 10
-131.545
 20
1183.26
 11
-132.129
 21
1183.02
  0
LINE
  8
0
 10
-132.129
 20
1183.02
 11
-132.679
 21
1182.72
  0
LINE
  8
0
 10
-132.679
 20
1182.72
 11
-133.187
 21
1182.35
  0
LINE
  8
0
 10
-133.187
 20
1182.35
 11
-133.645
 21
1181.92
  0
LINE
  8
0
 10
-133.645
 20
1181.92
 11
-134.045
 21
1181.44
  0
LINE
  8
0
 10
-134.045
 20
1181.44
 11
-134.382
 21
1180.91
  0
LINE
  8
0
 10
-134.382
 20
1180.91
 11
-134.649
 21
1180.34
  0
LINE
  8
0
 10
-134.649
 20
1180.34
 11
-134.843
 21
1179.74
  0
LINE
  8
0
 10
-134.843
 20
1179.74
 11
-134.961
 21
1179.13
  0
LINE
  8
0
 10
-134.961
 20
1179.13
 11
-135
 21
1178.5
  0
LINE
  8
0
 10
-135
 20
1178.5
 11
-135
 21
933.5
  0
LINE
  8
0
 10
-135
 20
933.5
 11
-134.961
 21
932.873
  0
LINE
  8
0
 10
-134.961
 20
932.873
 11
-134.843
 21
932.257
  0
LINE
  8
0
 10
-134.843
 20
932.257
 11
-134.649
 21
931.659
  0
LINE
  8
0
 10
-134.649
 20
931.659
 11
-134.382
 21
931.091
  0
LINE
  8
0
 10
-134.382
 20
931.091
 11
-134.045
 21
930.561
  0
LINE
  8
0
 10
-134.045
 20
930.561
 11
-133.645
 21
930.077
  0
LINE
  8
0
 10
-133.645
 20
930.077
 11
-133.187
 21
929.647
  0
LINE
  8
0
 10
-133.187
 20
929.647
 11
-132.679
 21
929.278
  0
LINE
  8
0
 10
-132.679
 20
929.278
 11
-132.129
 21
928.976
  0
LINE
  8
0
 10
-132.129
 20
928.976
 11
-131.545
 21
928.745
  0
LINE
  8
0
 10
-131.545
 20
928.745
 11
-130.937
 21
928.589
  0
LINE
  8
0
 10
-130.937
 20
928.589
 11
-130.314
 21
928.51
  0
LINE
  8
0
 10
-130.314
 20
928.51
 11
130.314
 21
928.51
  0
LINE
  8
0
 10
130.314
 20
928.51
 11
130.937
 21
928.589
  0
LINE
  8
0
 10
-130.037
 20
929.181
 11
-130.608
 21
929.253
  0
LINE
  8
0
 10
-130.608
 20
929.253
 11
-131.165
 21
929.396
  0
LINE
  8
0
 10
-131.165
 20
929.396
 11
-131.699
 21
929.607
  0
LINE
  8
0
 10
-131.699
 20
929.607
 11
-132.203
 21
929.884
  0
LINE
  8
0
 10
-132.203
 20
929.884
 11
-132.668
 21
930.222
  0
LINE
  8
0
 10
-132.668
 20
930.222
 11
-133.088
 21
930.616
  0
LINE
  8
0
 10
-133.088
 20
930.616
 11
-133.454
 21
931.059
  0
LINE
  8
0
 10
-133.454
 20
931.059
 11
-133.762
 21
931.544
  0
LINE
  8
0
 10
-133.762
 20
931.544
 11
-134.007
 21
932.065
  0
LINE
  8
0
 10
-134.007
 20
932.065
 11
-134.185
 21
932.611
  0
LINE
  8
0
 10
-134.185
 20
932.611
 11
-134.292
 21
933.176
  0
LINE
  8
0
 10
-134.292
 20
933.176
 11
-134.328
 21
933.75
  0
LINE
  8
0
 10
-134.328
 20
933.75
 11
-134.328
 21
1178.25
  0
LINE
  8
0
 10
-134.328
 20
1178.25
 11
-134.292
 21
1178.82
  0
LINE
  8
0
 10
-134.292
 20
1178.82
 11
-134.185
 21
1179.39
  0
LINE
  8
0
 10
-134.185
 20
1179.39
 11
-134.007
 21
1179.94
  0
LINE
  8
0
 10
-134.007
 20
1179.94
 11
-133.762
 21
1180.46
  0
LINE
  8
0
 10
-133.762
 20
1180.46
 11
-133.454
 21
1180.94
  0
LINE
  8
0
 10
-133.454
 20
1180.94
 11
-133.088
 21
1181.38
  0
LINE
  8
0
 10
-133.088
 20
1181.38
 11
-132.668
 21
1181.78
  0
LINE
  8
0
 10
-132.668
 20
1181.78
 11
-132.203
 21
1182.12
  0
LINE
  8
0
 10
-132.203
 20
1182.12
 11
-131.699
 21
1182.39
  0
LINE
  8
0
 10
-131.699
 20
1182.39
 11
-131.165
 21
1182.6
  0
LINE
  8
0
 10
-131.165
 20
1182.6
 11
-130.608
 21
1182.75
  0
LINE
  8
0
 10
-130.608
 20
1182.75
 11
-130.037
 21
1182.82
  0
LINE
  8
0
 10
-130.037
 20
1182.82
 11
130.037
 21
1182.82
  0
LINE
  8
0
 10
130.037
 20
1182.82
 11
130.608
 21
1182.75
  0
LINE
  8
0
 10
130.608
 20
1182.75
 11
131.165
 21
1182.6
  0
LINE
  8
0
 10
131.165
 20
1182.6
 11
131.699
 21
1182.39
  0
LINE
  8
0
 10
131.699
 20
1182.39
 11
132.203
 21
1182.12
  0
LINE
  8
0
 10
132.203
 20
1182.12
 11
132.668
 21
1181.78
  0
LINE
  8
0
 10
132.668
 20
1181.78
 11
133.088
 21
1181.38
  0
LINE
  8
0
 10
133.088
 20
1181.38
 11
133.454
 21
1180.94
  0
LINE
  8
0
 10
133.454
 20
1180.94
 11
133.762
 21
1180.46
  0
LINE
  8
0
 10
133.762
 20
1180.46
 11
134.007
 21
1179.94
  0
LINE
  8
0
 10
134.007
 20
1179.94
 11
134.185
 21
1179.39
  0
LINE
  8
0
 10
134.185
 20
1179.39
 11
134.292
 21
1178.82
  0
LINE
  8
0
 10
134.292
 20
1178.82
 11
134.328
 21
1178.25
  0
LINE
  8
0
 10
134.328
 20
1178.25
 11
134.328
 21
933.75
  0
LINE
  8
0
 10
134.328
 20
933.75
 11
134.292
 21
933.176
  0
LINE
  8
0
 10
134.292
 20
933.176
 11
134.185
 21
932.611
  0
LINE
  8
0
 10
134.185
 20
932.611
 11
134.007
 21
932.065
  0
LINE
  8
0
 10
134.007
 20
932.065
 11
133.762
 21
931.544
  0
LINE
  8
0
 10
133.762
 20
931.544
 11
133.454
 21
931.059
  0
LINE
  8
0
 10
133.454
 20
931.059
 11
133.088
 21
930.616
  0
LINE
  8
0
 10
133.088
 20
930.616
 11
132.668
 21
930.222
  0
LINE
  8
0
 10
132.668
 20
930.222
 11
132.203
 21
929.884
  0
LINE
  8
0
 10
132.203
 20
929.884
 11
131.699
 21
929.607
  0
LINE
  8
0
 10
131.699
 20
929.607
 11
131.165
 21
929.396
  0
LINE
  8
0
 10
131.165
 20
929.396
 11
130.608
 21
929.253
  0
LINE
  8
0
 10
130.608
 20
929.253
 11
130.037
 21
929.181
  0
LINE
  8
0
 10
130.037
 20
929.181
 11
-130.037
 21
929.181
  0
LINE
  8
0
 10
130.937
 20
664.589
 11
131.545
 21
664.745
  0
LINE
  8
0
 10
131.545
 20
664.745
 11
132.129
 21
664.976
  0
LINE
  8
0
 10
132.129
 20
664.976
 11
132.679
 21
665.278
  0
LINE
  8
0
 10
132.679
 20
665.278
 11
133.187
 21
665.647
  0
LINE
  8
0
 10
133.187
 20
665.647
 11
133.645
 21
666.077
  0
LINE
  8
0
 10
133.645
 20
666.077
 11
134.045
 21
666.561
  0
LINE
  8
0
 10
134.045
 20
666.561
 11
134.382
 21
667.091
  0
LINE
  8
0
 10
134.382
 20
667.091
 11
134.649
 21
667.659
  0
LINE
  8
0
 10
134.649
 20
667.659
 11
134.843
 21
668.257
  0
LINE
  8
0
 10
134.843
 20
668.257
 11
134.961
 21
668.873
  0
LINE
  8
0
 10
134.961
 20
668.873
 11
135
 21
669.5
  0
LINE
  8
0
 10
135
 20
669.5
 11
135
 21
914.5
  0
LINE
  8
0
 10
135
 20
914.5
 11
134.961
 21
915.127
  0
LINE
  8
0
 10
134.961
 20
915.127
 11
134.843
 21
915.743
  0
LINE
  8
0
 10
134.843
 20
915.743
 11
134.649
 21
916.341
  0
LINE
  8
0
 10
134.649
 20
916.341
 11
134.382
 21
916.909
  0
LINE
  8
0
 10
134.382
 20
916.909
 11
134.045
 21
917.439
  0
LINE
  8
0
 10
134.045
 20
917.439
 11
133.645
 21
917.923
  0
LINE
  8
0
 10
133.645
 20
917.923
 11
133.187
 21
918.353
  0
LINE
  8
0
 10
133.187
 20
918.353
 11
132.679
 21
918.722
  0
LINE
  8
0
 10
132.679
 20
918.722
 11
132.129
 21
919.024
  0
LINE
  8
0
 10
132.129
 20
919.024
 11
131.545
 21
919.255
  0
LINE
  8
0
 10
131.545
 20
919.255
 11
130.937
 21
919.411
  0
LINE
  8
0
 10
130.937
 20
919.411
 11
130.314
 21
919.49
  0
LINE
  8
0
 10
130.314
 20
919.49
 11
-130.314
 21
919.49
  0
LINE
  8
0
 10
-130.314
 20
919.49
 11
-130.937
 21
919.411
  0
LINE
  8
0
 10
-130.937
 20
919.411
 11
-131.545
 21
919.255
  0
LINE
  8
0
 10
-131.545
 20
919.255
 11
-132.129
 21
919.024
  0
LINE
  8
0
 10
-132.129
 20
919.024
 11
-132.679
 21
918.722
  0
LINE
  8
0
 10
-132.679
 20
918.722
 11
-133.187
 21
918.353
  0
LINE
  8
0
 10
-133.187
 20
918.353
 11
-133.645
 21
917.923
  0
LINE
  8
0
 10
-133.645
 20
917.923
 11
-134.045
 21
917.439
  0
LINE
  8
0
 10
-134.045
 20
917.439
 11
-134.382
 21
916.909
  0
LINE
  8
0
 10
-134.382
 20
916.909
 11
-134.649
 21
916.341
  0
LINE
  8
0
 10
-134.649
 20
916.341
 11
-134.843
 21
915.743
  0
LINE
  8
0
 10
-134.843
 20
915.743
 11
-134.961
 21
915.127
  0
LINE
  8
0
 10
-134.961
 20
915.127
 11
-135
 21
914.5
  0
LINE
  8
0
 10
-135
 20
914.5
 11
-135
 21
669.5
  0
LINE
  8
0
 10
-135
 20
669.5
 11
-134.961
 21
668.873
  0
LINE
  8
0
 10
-134.961
 20
668.873
 11
-134.843
 21
668.257
  0
LINE
  8
0
 10
-134.843
 20
668.257
 11
-134.649
 21
667.659
  0
LINE
  8
0
 10
-134.649
 20
667.659
 11
-134.382
 21
667.091
  0
LINE
  8
0
 10
-134.382
 20
667.091
 11
-134.045
 21
666.561
  0
LINE
  8
0
 10
-134.045
 20
666.561
 11
-133.645
 21
666.077
  0
LINE
  8
0
 10
-133.645
 20
666.077
 11
-133.187
 21
665.647
  0
LINE
  8
0
 10
-133.187
 20
665.647
 11
-132.679
 21
665.278
  0
LINE
  8
0
 10
-132.679
 20
665.278
 11
-132.129
 21
664.976
  0
LINE
  8
0
 10
-132.129
 20
664.976
 11
-131.545
 21
664.745
  0
LINE
  8
0
 10
-131.545
 20
664.745
 11
-130.937
 21
664.589
  0
LINE
  8
0
 10
-130.937
 20
664.589
 11
-130.314
 21
664.51
  0
LINE
  8
0
 10
-130.314
 20
664.51
 11
130.314
 21
664.51
  0
LINE
  8
0
 10
130.314
 20
664.51
 11
130.937
 21
664.589
  0
LINE
  8
0
 10
-129.882
 20
667.645
 11
-130.145
 21
667.678
  0
LINE
  8
0
 10
-130.145
 20
667.678
 11
-130.402
 21
667.744
  0
LINE
  8
0
 10
-130.402
 20
667.744
 11
-130.648
 21
667.841
  0
LINE
  8
0
 10
-130.648
 20
667.841
 11
-130.88
 21
667.969
  0
LINE
  8
0
 10
-130.88
 20
667.969
 11
-131.095
 21
668.124
  0
LINE
  8
0
 10
-131.095
 20
668.124
 11
-131.288
 21
668.306
  0
LINE
  8
0
 10
-131.288
 20
668.306
 11
-131.457
 21
668.51
  0
LINE
  8
0
 10
-131.457
 20
668.51
 11
-131.599
 21
668.734
  0
LINE
  8
0
 10
-131.599
 20
668.734
 11
-131.711
 21
668.973
  0
LINE
  8
0
 10
-131.711
 20
668.973
 11
-131.793
 21
669.225
  0
LINE
  8
0
 10
-131.793
 20
669.225
 11
-131.843
 21
669.486
  0
LINE
  8
0
 10
-131.843
 20
669.486
 11
-131.86
 21
669.75
  0
LINE
  8
0
 10
-131.86
 20
669.75
 11
-131.86
 21
914.25
  0
LINE
  8
0
 10
-131.86
 20
914.25
 11
-131.843
 21
914.514
  0
LINE
  8
0
 10
-131.843
 20
914.514
 11
-131.793
 21
914.775
  0
LINE
  8
0
 10
-131.793
 20
914.775
 11
-131.711
 21
915.027
  0
LINE
  8
0
 10
-131.711
 20
915.027
 11
-131.599
 21
915.266
  0
LINE
  8
0
 10
-131.599
 20
915.266
 11
-131.457
 21
915.49
  0
LINE
  8
0
 10
-131.457
 20
915.49
 11
-131.288
 21
915.694
  0
LINE
  8
0
 10
-131.288
 20
915.694
 11
-131.095
 21
915.876
  0
LINE
  8
0
 10
-131.095
 20
915.876
 11
-130.88
 21
916.031
  0
LINE
  8
0
 10
-130.88
 20
916.031
 11
-130.648
 21
916.159
  0
LINE
  8
0
 10
-130.648
 20
916.159
 11
-130.402
 21
916.256
  0
LINE
  8
0
 10
-130.402
 20
916.256
 11
-130.145
 21
916.322
  0
LINE
  8
0
 10
-130.145
 20
916.322
 11
-129.882
 21
916.355
  0
LINE
  8
0
 10
-129.882
 20
916.355
 11
129.882
 21
916.355
  0
LINE
  8
0
 10
129.882
 20
916.355
 11
130.145
 21
916.322
  0
LINE
  8
0
 10
130.145
 20
916.322
 11
130.402
 21
916.256
  0
LINE
  8
0
 10
130.402
 20
916.256
 11
130.648
 21
916.159
  0
LINE
  8
0
 10
130.648
 20
916.159
 11
130.88
 21
916.031
  0
LINE
  8
0
 10
130.88
 20
916.031
 11
131.095
 21
915.876
  0
LINE
  8
0
 10
131.095
 20
915.876
 11
131.288
 21
915.694
  0
LINE
  8
0
 10
131.288
 20
915.694
 11
131.457
 21
915.49
  0
LINE
  8
0
 10
131.457
 20
915.49
 11
131.599
 21
915.266
  0
LINE
  8
0
 10
131.599
 20
915.266
 11
131.711
 21
915.027
  0
LINE
  8
0
 10
131.711
 20
915.027
 11
131.793
 21
914.775
  0
LINE
  8
0
 10
131.793
 20
914.775
 11
131.843
 21
914.514
  0
LINE
  8
0
 10
131.843
 20
914.514
 11
131.86
 21
914.25
  0
LINE
  8
0
 10
131.86
 20
914.25
 11
131.86
 21
669.75
  0
LINE
  8
0
 10
131.86
 20
669.75
 11
131.843
 21
669.486
  0
LINE
  8
0
 10
131.843
 20
669.486
 11
131.793
 21
669.225
  0
LINE
  8
0
 10
131.793
 20
669.225
 11
131.711
 21
668.973
  0
LINE
  8
0
 10
131.711
 20
668.973
 11
131.599
 21
668.734
  0
LINE
  8
0
 10
131.599
 20
668.734
 11
131.457
 21
668.51
  0
LINE
  8
0
 10
131.457
 20
668.51
 11
131.288
 21
668.306
  0
LINE
  8
0
 10
131.288
 20
668.306
 11
131.095
 21
668.124
  0
LINE
  8
0
 10
131.095
 20
668.124
 11
130.88
 21
667.969
  0
LINE
  8
0
 10
130.88
 20
667.969
 11
130.648
 21
667.841
  0
LINE
  8
0
 10
130.648
 20
667.841
 11
130.402
 21
667.744
  0
LINE
  8
0
 10
130.402
 20
667.744
 11
130.145
 21
667.678
  0
LINE
  8
0
 10
130.145
 20
667.678
 11
129.882
 21
667.645
  0
LINE
  8
0
 10
129.882
 20
667.645
 11
-129.882
 21
667.645
  0
ENDSEC
  0
SECTION
  2
OBJECTS
  0
DICTIONARY
  0
ENDSEC
  0
EOF
