<?xml version="1.0" standalone="no"?>
<!DOCTYPE svg PUBLIC "-//W3C//DTD SVG 1.1//EN" "http://www.w3.org/Graphics/SVG/1.1/DTD/svg11.dtd">
<svg width="270mm" height="874mm" viewBox="-135 -1613 270 874" xmlns="http://www.w3.org/2000/svg" version="1.1">
<title>OpenSCAD Model</title>
<path d="
M 130.937,-1327.59 L 131.545,-1327.74 L 132.129,-1327.98 L 132.679,-1328.28 L 133.187,-1328.65 L 133.645,-1329.08
 L 134.045,-1329.56 L 134.382,-1330.09 L 134.649,-1330.66 L 134.843,-1331.26 L 134.961,-1331.87 L 135,-1332.5
 L 135,-1607.5 L 134.961,-1608.13 L 134.843,-1608.74 L 134.649,-1609.34 L 134.382,-1609.91 L 134.045,-1610.44
 L 133.645,-1610.92 L 133.187,-1611.35 L 132.679,-1611.72 L 132.129,-1612.02 L 131.545,-1612.26 L 130.937,-1612.41
 L 130.314,-1612.49 L -130.314,-1612.49 L -130.937,-1612.41 L -131.545,-1612.26 L -132.129,-1612.02 L -132.679,-1611.72
 L -133.187,-1611.35 L -133.645,-1610.92 L -134.045,-1610.44 L -134.382,-1609.91 L -134.649,-1609.34 L -134.843,-1608.74
 L -134.961,-1608.13 L -135,-1607.5 L -135,-1332.5 L -134.961,-1331.87 L -134.843,-1331.26 L -134.649,-1330.66
 L -134.382,-1330.09 L -134.045,-1329.56 L -133.645,-1329.08 L -133.187,-1328.65 L -132.679,-1328.28 L -132.129,-1327.98
 L -131.545,-1327.74 L -130.937,-1327.59 L -130.314,-1327.51 L 130.314,-1327.51 z
M -129.751,-1329.01 L -130.25,-1329.07 L -130.736,-1329.2 L -131.203,-1329.38 L -131.643,-1329.62 L -132.05,-1329.92
 L -132.416,-1330.26 L -132.736,-1330.65 L -133.005,-1331.07 L -133.219,-1331.53 L -133.374,-1332.01 L -133.468,-1332.5
 L -133.5,-1333 L -133.5,-1607 L -133.468,-1607.5 L -133.374,-1607.99 L -133.219,-1608.47 L -133.005,-1608.93
 L -132.736,-1609.35 L -132.416,-1609.74 L -132.05,-1610.08 L -131.643,-1610.38 L -131.203,-1610.62 L -130.736,-1610.8
 L -130.25,-1610.93 L -129.751,-1610.99 L 129.751,-1610.99 L 130.25,-1610.93 L 130.736,-1610.8 L 131.203,-1610.62
 L 131.643,-1610.38 L 132.05,-1610.08 L 132.416,-1609.74 L 132.736,-1609.35 L 133.005,-1608.93 L 133.219,-1608.47
 L 133.374,-1607.99 L 133.468,-1607.5 L 133.5,-1607 L 133.5,-1333 L 133.468,-1332.5 L 133.374,-1332.01
 L 133.219,-1331.53 L 133.005,-1331.07 L 132.736,-1330.65 L 132.416,-1330.26 L 132.05,-1329.92 L 131.643,-1329.62
 L 131.203,-1329.38 L 130.736,-1329.2 L 130.25,-1329.07 L 129.751,-1329.01 z
M 130.937,-1033.59 L 131.545,-1033.74 L 132.129,-1033.98 L 132.679,-1034.28 L 133.187,-1034.65 L 133.645,-1035.08
 L 134.045,-1035.56 L 134.382,-1036.09 L 134.649,-1036.66 L 134.843,-1037.26 L 134.961,-1037.87 L 135,-1038.5
 L 135,-1313.5 L 134.961,-1314.13 L 134.843,-1314.74 L 134.649,-1315.34 L 134.382,-1315.91 L 134.045,-1316.44
 L 133.645,-1316.92 L 133.187,-1317.35 L 132.679,-1317.72 L 132.129,-1318.02 L 131.545,-1318.26 L 130.937,-1318.41
 L 130.314,-1318.49 L -130.314,-1318.49 L -130.937,-1318.41 L -131.545,-1318.26 L -132.129,-1318.02 L -132.679,-1317.72
 L -133.187,-1317.35 L -133.645,-1316.92 L -134.045,-1316.44 L -134.382,-1315.91 L -134.649,-1315.34 L -134.843,-1314.74
 L -134.961,-1314.13 L -135,-1313.5 L -135,-1038.5 L -134.961,-1037.87 L -134.843,-1037.26 L -134.649,-1036.66
 L -134.382,-1036.09 L -134.045,-1035.56 L -133.645,-1035.08 L -133.187,-1034.65 L -132.679,-1034.28 L -132.129,-1033.98
 L -131.545,-1033.74 L -130.937,-1033.59 L -130.314,-1033.51 L 130.314,-1033.51 z
M -129.695,-1035.89 L -130.083,-1035.94 L -130.462,-1036.04 L -130.825,-1036.18 L -131.168,-1036.37 L -131.484,-1036.6
 L -131.769,-1036.87 L -132.018,-1037.17 L -132.228,-1037.5 L -132.394,-1037.85 L -132.515,-1038.23 L -132.588,-1038.61
 L -132.613,-1039 L -132.613,-1313 L -132.588,-1313.39 L -132.515,-1313.77 L -132.394,-1314.15 L -132.228,-1314.5
 L -132.018,-1314.83 L -131.769,-1315.13 L -131.484,-1315.4 L -131.168,-1315.63 L -130.825,-1315.82 L -130.462,-1315.96
 L -130.083,-1316.06 L -129.695,-1316.11 L 129.695,-1316.11 L 130.083,-1316.06 L 130.462,-1315.96 L 130.825,-1315.82
 L 131.168,-1315.63 L 131.484,-1315.4 L 131.769,-1315.13 L 132.018,-1314.83 L 132.228,-1314.5 L 132.394,-1314.15
 L 132.515,-1313.77 L 132.588,-1313.39 L 132.613,-1313 L 132.613,-1039 L 132.588,-1038.61 L 132.515,-1038.23
 L 132.394,-1037.85 L 132.228,-1037.5 L 132.018,-1037.17 L 131.769,-1036.87 L 131.484,-1036.6 L 131.168,-1036.37
 L 130.825,-1036.18 L 130.462,-1036.04 L 130.083,-1035.94 L 129.695,-1035.89 z
M 130.937,-739.589 L 131.545,-739.745 L 132.129,-739.976 L 132.679,-740.278 L 133.187,-740.647 L 133.645,-741.077
 L 134.045,-741.561 L 134.382,-742.091 L 134.649,-742.659 L 134.843,-743.257 L 134.961,-743.873 L 135,-744.5
 L 135,-1019.5 L 134.961,-1020.13 L 134.843,-1020.74 L 134.649,-1021.34 L 134.382,-1021.91 L 134.045,-1022.44
 L 133.645,-1022.92 L 133.187,-1023.35 L 132.679,-1023.72 L 132.129,-1024.02 L 131.545,-1024.26 L 130.937,-1024.41
 L 130.314,-1024.49 L -130.314,-1024.49 L -130.937,-1024.41 L -131.545,-1024.26 L -132.129,-1024.02 L -132.679,-1023.72
 L -133.187,-1023.35 L -133.645,-1022.92 L -134.045,-1022.44 L -134.382,-1021.91 L -134.649,-1021.34 L -134.843,-1020.74
 L -134.961,-1020.13 L -135,-1019.5 L -135,-744.5 L -134.961,-743.873 L -134.843,-743.257 L -134.649,-742.659
 L -134.382,-742.091 L -134.045,-741.561 L -133.645,-741.077 L -133.187,-740.647 L -132.679,-740.278 L -132.129,-739.976
 L -131.545,-739.745 L -130.937,-739.589 L -130.314,-739.51 L 130.314,-739.51 z
M 127.366,-1014.87 L 127.1,-1014.9 L 126.84,-1014.97 L 126.591,-1015.07 L 126.356,-1015.2 L 126.139,-1015.35
 L 125.943,-1015.54 L 125.773,-1015.74 L 125.629,-1015.97 L 125.515,-1016.21 L 125.432,-1016.47 L 125.382,-1016.73
 L 125.365,-1017 L 125.382,-1017.27 L 125.432,-1017.53 L 125.515,-1017.79 L 125.629,-1018.03 L 125.773,-1018.26
 L 125.943,-1018.46 L 126.139,-1018.65 L 126.356,-1018.8 L 126.591,-1018.93 L 126.84,-1019.03 L 127.1,-1019.1
 L 127.366,-1019.13 L 127.634,-1019.13 L 127.9,-1019.1 L 128.16,-1019.03 L 128.409,-1018.93 L 128.644,-1018.8
 L 128.861,-1018.65 L 129.057,-1018.46 L 129.227,-1018.26 L 129.371,-1018.03 L 129.485,-1017.79 L 129.568,-1017.53
 L 129.618,-1017.27 L 129.635,-1017 L 129.618,-1016.73 L 129.568,-1016.47 L 129.485,-1016.21 L 129.371,-1015.97
 L 129.227,-1015.74 L 129.057,-1015.54 L 128.861,-1015.35 L 128.644,-1015.2 L 128.409,-1015.07 L 128.16,-1014.97
 L 127.9,-1014.9 L 127.634,-1014.87 z
M -127.634,-1014.87 L -127.9,-1014.9 L -128.16,-1014.97 L -128.409,-1015.07 L -128.644,-1015.2 L -128.861,-1015.35
 L -129.057,-1015.54 L -129.227,-1015.74 L -129.371,-1015.97 L -129.485,-1016.21 L -129.568,-1016.47 L -129.618,-1016.73
 L -129.635,-1017 L -129.618,-1017.27 L -129.568,-1017.53 L -129.485,-1017.79 L -129.371,-1018.03 L -129.227,-1018.26
 L -129.057,-1018.46 L -128.861,-1018.65 L -128.644,-1018.8 L -128.409,-1018.93 L -128.16,-1019.03 L -127.9,-1019.1
 L -127.634,-1019.13 L -127.366,-1019.13 L -127.1,-1019.1 L -126.84,-1019.03 L -126.591,-1018.93 L -126.356,-1018.8
 L -126.139,-1018.65 L -125.943,-1018.46 L -125.773,-1018.26 L -125.629,-1018.03 L -125.515,-1017.79 L -125.432,-1017.53
 L -125.382,-1017.27 L -125.365,-1017 L -125.382,-1016.73 L -125.432,-1016.47 L -125.515,-1016.21 L -125.629,-1015.97
 L -125.773,-1015.74 L -125.943,-1015.54 L -126.139,-1015.35 L -126.356,-1015.2 L -126.591,-1015.07 L -126.84,-1014.97
 L -127.1,-1014.9 L -127.366,-1014.87 z
M 127.366,-744.869 L 127.1,-744.903 L 126.84,-744.969 L 126.591,-745.068 L 126.356,-745.197 L 126.139,-745.355
 L 125.943,-745.538 L 125.773,-745.745 L 125.629,-745.971 L 125.515,-746.214 L 125.432,-746.469 L 125.382,-746.732
 L 125.365,-747 L 125.382,-747.268 L 125.432,-747.531 L 125.515,-747.786 L 125.629,-748.029 L 125.773,-748.255
 L 125.943,-748.462 L 126.139,-748.645 L 126.356,-748.803 L 126.591,-748.932 L 126.84,-749.031 L 127.1,-749.097
 L 127.366,-749.131 L 127.634,-749.131 L 127.9,-749.097 L 128.16,-749.031 L 128.409,-748.932 L 128.644,-748.803
 L 128.861,-748.645 L 129.057,-748.462 L 129.227,-748.255 L 129.371,-748.029 L 129.485,-747.786 L 129.568,-747.531
 L 129.618,-747.268 L 129.635,-747 L 129.618,-746.732 L 129.568,-746.469 L 129.485,-746.214 L 129.371,-745.971
 L 129.227,-745.745 L 129.057,-745.538 L 128.861,-745.355 L 128.644,-745.197 L 128.409,-745.068 L 128.16,-744.969
 L 127.9,-744.903 L 127.634,-744.869 z
M -127.634,-744.869 L -127.9,-744.903 L -128.16,-744.969 L -128.409,-745.068 L -128.644,-745.197 L -128.861,-745.355
 L -129.057,-745.538 L -129.227,-745.745 L -129.371,-745.971 L -129.485,-746.214 L -129.568,-746.469 L -129.618,-746.732
 L -129.635,-747 L -129.618,-747.268 L -129.568,-747.531 L -129.485,-747.786 L -129.371,-748.029 L -129.227,-748.255
 L -129.057,-748.462 L -128.861,-748.645 L -128.644,-748.803 L -128.409,-748.932 L -128.16,-749.031 L -127.9,-749.097
 L -127.634,-749.131 L -127.366,-749.131 L -127.1,-749.097 L -126.84,-749.031 L -126.591,-748.932 L -126.356,-748.803
 L -126.139,-748.645 L -125.943,-748.462 L -125.773,-748.255 L -125.629,-748.029 L -125.515,-747.786 L -125.432,-747.531
 L -125.382,-747.268 L -125.365,-747 L -125.382,-746.732 L -125.432,-746.469 L -125.515,-746.214 L -125.629,-745.971
 L -125.773,-745.745 L -125.943,-745.538 L -126.139,-745.355 L -126.356,-745.197 L -126.591,-745.068 L -126.84,-744.969
 L -127.1,-744.903 L -127.366,-744.869 z
" stroke="black" fill="lightgray" stroke-width="0.5"/>
</svg>
