<?xml version="1.0" standalone="no"?>
<!DOCTYPE svg PUBLIC "-//W3C//DTD SVG 1.1//EN" "http://www.w3.org/Graphics/SVG/1.1/DTD/svg11.dtd">
<svg width="270mm" height="532mm" viewBox="-135 -1049 270 532" xmlns="http://www.w3.org/2000/svg" version="1.1">
<title>OpenSCAD Model</title>
<path d="
M 130.937,-1003.59 L 131.545,-1003.74 L 132.129,-1003.98 L 132.679,-1004.28 L 133.187,-1004.65 L 133.645,-1005.08
 L 134.045,-1005.56 L 134.382,-1006.09 L 134.649,-1006.66 L 134.843,-1007.26 L 134.961,-1007.87 L 135,-1008.5
 L 135,-1043.5 L 134.961,-1044.13 L 134.843,-1044.74 L 134.649,-1045.34 L 134.382,-1045.91 L 134.045,-1046.44
 L 133.645,-1046.92 L 133.187,-1047.35 L 132.679,-1047.72 L 132.129,-1048.02 L 131.545,-1048.26 L 130.937,-1048.41
 L 130.314,-1048.49 L -130.314,-1048.49 L -130.937,-1048.41 L -131.545,-1048.26 L -132.129,-1048.02 L -132.679,-1047.72
 L -133.187,-1047.35 L -133.645,-1046.92 L -134.045,-1046.44 L -134.382,-1045.91 L -134.649,-1045.34 L -134.843,-1044.74
 L -134.961,-1044.13 L -135,-1043.5 L -135,-1008.5 L -134.961,-1007.87 L -134.843,-1007.26 L -134.649,-1006.66
 L -134.382,-1006.09 L -134.045,-1005.56 L -133.645,-1005.08 L -133.187,-1004.65 L -132.679,-1004.28 L -132.129,-1003.98
 L -131.545,-1003.74 L -130.937,-1003.59 L -130.314,-1003.51 L 130.314,-1003.51 z
M -130.048,-1004.01 L -130.64,-1004.08 L -131.218,-1004.23 L -131.772,-1004.45 L -132.295,-1004.74 L -132.778,-1005.09
 L -133.213,-1005.5 L -133.593,-1005.96 L -133.912,-1006.46 L -134.166,-1007 L -134.351,-1007.57 L -134.463,-1008.15
 L -134.5,-1008.75 L -134.5,-1043.25 L -134.463,-1043.85 L -134.351,-1044.43 L -134.166,-1045 L -133.912,-1045.54
 L -133.593,-1046.04 L -133.213,-1046.5 L -132.778,-1046.91 L -132.295,-1047.26 L -131.772,-1047.55 L -131.218,-1047.77
 L -130.64,-1047.92 L -130.048,-1047.99 L 130.048,-1047.99 L 130.64,-1047.92 L 131.218,-1047.77 L 131.772,-1047.55
 L 132.295,-1047.26 L 132.778,-1046.91 L 133.213,-1046.5 L 133.593,-1046.04 L 133.912,-1045.54 L 134.166,-1045
 L 134.351,-1044.43 L 134.463,-1043.85 L 134.5,-1043.25 L 134.5,-1008.75 L 134.463,-1008.15 L 134.351,-1007.57
 L 134.166,-1007 L 133.912,-1006.46 L 133.593,-1005.96 L 133.213,-1005.5 L 132.778,-1005.09 L 132.295,-1004.74
 L 131.772,-1004.45 L 131.218,-1004.23 L 130.64,-1004.08 L 130.048,-1004.01 z
M 130.937,-949.589 L 131.545,-949.745 L 132.129,-949.976 L 132.679,-950.278 L 133.187,-950.647 L 133.645,-951.077
 L 134.045,-951.561 L 134.382,-952.091 L 134.649,-952.659 L 134.843,-953.257 L 134.961,-953.873 L 135,-954.5
 L 135,-989.5 L 134.961,-990.127 L 134.843,-990.743 L 134.649,-991.341 L 134.382,-991.909 L 134.045,-992.439
 L 133.645,-992.923 L 133.187,-993.353 L 132.679,-993.722 L 132.129,-994.024 L 131.545,-994.255 L 130.937,-994.411
 L 130.314,-994.49 L -130.314,-994.49 L -130.937,-994.411 L -131.545,-994.255 L -132.129,-994.024 L -132.679,-993.722
 L -133.187,-993.353 L -133.645,-992.923 L -134.045,-992.439 L -134.382,-991.909 L -134.649,-991.341 L -134.843,-990.743
 L -134.961,-990.127 L -135,-989.5 L -135,-954.5 L -134.961,-953.873 L -134.843,-953.257 L -134.649,-952.659
 L -134.382,-952.091 L -134.045,-951.561 L -133.645,-951.077 L -133.187,-950.647 L -132.679,-950.278 L -132.129,-949.976
 L -131.545,-949.745 L -130.937,-949.589 L -130.314,-949.51 L 130.314,-949.51 z
M -130.048,-950.009 L -130.64,-950.084 L -131.218,-950.232 L -131.772,-950.452 L -132.295,-950.739 L -132.778,-951.09
 L -133.213,-951.498 L -133.593,-951.958 L -133.912,-952.462 L -134.166,-953.001 L -134.351,-953.569 L -134.463,-954.155
 L -134.5,-954.75 L -134.5,-989.25 L -134.463,-989.845 L -134.351,-990.431 L -134.166,-990.999 L -133.912,-991.538
 L -133.593,-992.042 L -133.213,-992.502 L -132.778,-992.91 L -132.295,-993.261 L -131.772,-993.548 L -131.218,-993.768
 L -130.64,-993.916 L -130.048,-993.991 L 130.048,-993.991 L 130.64,-993.916 L 131.218,-993.768 L 131.772,-993.548
 L 132.295,-993.261 L 132.778,-992.91 L 133.213,-992.502 L 133.593,-992.042 L 133.912,-991.538 L 134.166,-990.999
 L 134.351,-990.431 L 134.463,-989.845 L 134.5,-989.25 L 134.5,-954.75 L 134.463,-954.155 L 134.351,-953.569
 L 134.166,-953.001 L 133.912,-952.462 L 133.593,-951.958 L 133.213,-951.498 L 132.778,-951.09 L 132.295,-950.739
 L 131.772,-950.452 L 131.218,-950.232 L 130.64,-950.084 L 130.048,-950.009 z
M 130.937,-895.589 L 131.545,-895.745 L 132.129,-895.976 L 132.679,-896.278 L 133.187,-896.647 L 133.645,-897.077
 L 134.045,-897.561 L 134.382,-898.091 L 134.649,-898.659 L 134.843,-899.257 L 134.961,-899.873 L 135,-900.5
 L 135,-935.5 L 134.961,-936.127 L 134.843,-936.743 L 134.649,-937.341 L 134.382,-937.909 L 134.045,-938.439
 L 133.645,-938.923 L 133.187,-939.353 L 132.679,-939.722 L 132.129,-940.024 L 131.545,-940.255 L 130.937,-940.411
 L 130.314,-940.49 L -130.314,-940.49 L -130.937,-940.411 L -131.545,-940.255 L -132.129,-940.024 L -132.679,-939.722
 L -133.187,-939.353 L -133.645,-938.923 L -134.045,-938.439 L -134.382,-937.909 L -134.649,-937.341 L -134.843,-936.743
 L -134.961,-936.127 L -135,-935.5 L -135,-900.5 L -134.961,-899.873 L -134.843,-899.257 L -134.649,-898.659
 L -134.382,-898.091 L -134.045,-897.561 L -133.645,-897.077 L -133.187,-896.647 L -132.679,-896.278 L -132.129,-895.976
 L -131.545,-895.745 L -130.937,-895.589 L -130.314,-895.51 L 130.314,-895.51 z
M -130.048,-896.009 L -130.64,-896.084 L -131.218,-896.232 L -131.772,-896.452 L -132.295,-896.739 L -132.778,-897.09
 L -133.213,-897.498 L -133.593,-897.958 L -133.912,-898.462 L -134.166,-899.001 L -134.351,-899.569 L -134.463,-900.155
 L -134.5,-900.75 L -134.5,-935.25 L -134.463,-935.845 L -134.351,-936.431 L -134.166,-936.999 L -133.912,-937.538
 L -133.593,-938.042 L -133.213,-938.502 L -132.778,-938.91 L -132.295,-939.261 L -131.772,-939.548 L -131.218,-939.768
 L -130.64,-939.916 L -130.048,-939.991 L 130.048,-939.991 L 130.64,-939.916 L 131.218,-939.768 L 131.772,-939.548
 L 132.295,-939.261 L 132.778,-938.91 L 133.213,-938.502 L 133.593,-938.042 L 133.912,-937.538 L 134.166,-936.999
 L 134.351,-936.431 L 134.463,-935.845 L 134.5,-935.25 L 134.5,-900.75 L 134.463,-900.155 L 134.351,-899.569
 L 134.166,-899.001 L 133.912,-898.462 L 133.593,-897.958 L 133.213,-897.498 L 132.778,-897.09 L 132.295,-896.739
 L 131.772,-896.452 L 131.218,-896.232 L 130.64,-896.084 L 130.048,-896.009 z
M 130.937,-841.589 L 131.545,-841.745 L 132.129,-841.976 L 132.679,-842.278 L 133.187,-842.647 L 133.645,-843.077
 L 134.045,-843.561 L 134.382,-844.091 L 134.649,-844.659 L 134.843,-845.257 L 134.961,-845.873 L 135,-846.5
 L 135,-881.5 L 134.961,-882.127 L 134.843,-882.743 L 134.649,-883.341 L 134.382,-883.909 L 134.045,-884.439
 L 133.645,-884.923 L 133.187,-885.353 L 132.679,-885.722 L 132.129,-886.024 L 131.545,-886.255 L 130.937,-886.411
 L 130.314,-886.49 L -130.314,-886.49 L -130.937,-886.411 L -131.545,-886.255 L -132.129,-886.024 L -132.679,-885.722
 L -133.187,-885.353 L -133.645,-884.923 L -134.045,-884.439 L -134.382,-883.909 L -134.649,-883.341 L -134.843,-882.743
 L -134.961,-882.127 L -135,-881.5 L -135,-846.5 L -134.961,-845.873 L -134.843,-845.257 L -134.649,-844.659
 L -134.382,-844.091 L -134.045,-843.561 L -133.645,-843.077 L -133.187,-842.647 L -132.679,-842.278 L -132.129,-841.976
 L -131.545,-841.745 L -130.937,-841.589 L -130.314,-841.51 L 130.314,-841.51 z
M -130.048,-842.009 L -130.64,-842.084 L -131.218,-842.232 L -131.772,-842.452 L -132.295,-842.739 L -132.778,-843.09
 L -133.213,-843.498 L -133.593,-843.958 L -133.912,-844.462 L -134.166,-845.001 L -134.351,-845.569 L -134.463,-846.155
 L -134.5,-846.75 L -134.5,-881.25 L -134.463,-881.845 L -134.351,-882.431 L -134.166,-882.999 L -133.912,-883.538
 L -133.593,-884.042 L -133.213,-884.502 L -132.778,-884.91 L -132.295,-885.261 L -131.772,-885.548 L -131.218,-885.768
 L -130.64,-885.916 L -130.048,-885.991 L 130.048,-885.991 L 130.64,-885.916 L 131.218,-885.768 L 131.772,-885.548
 L 132.295,-885.261 L 132.778,-884.91 L 133.213,-884.502 L 133.593,-884.042 L 133.912,-883.538 L 134.166,-882.999
 L 134.351,-882.431 L 134.463,-881.845 L 134.5,-881.25 L 134.5,-846.75 L 134.463,-846.155 L 134.351,-845.569
 L 134.166,-845.001 L 133.912,-844.462 L 133.593,-843.958 L 133.213,-843.498 L 132.778,-843.09 L 132.295,-842.739
 L 131.772,-842.452 L 131.218,-842.232 L 130.64,-842.084 L 130.048,-842.009 z
M 130.937,-787.589 L 131.545,-787.745 L 132.129,-787.976 L 132.679,-788.278 L 133.187,-788.647 L 133.645,-789.077
 L 134.045,-789.561 L 134.382,-790.091 L 134.649,-790.659 L 134.843,-791.257 L 134.961,-791.873 L 135,-792.5
 L 135,-827.5 L 134.961,-828.127 L 134.843,-828.743 L 134.649,-829.341 L 134.382,-829.909 L 134.045,-830.439
 L 133.645,-830.923 L 133.187,-831.353 L 132.679,-831.722 L 132.129,-832.024 L 131.545,-832.255 L 130.937,-832.411
 L 130.314,-832.49 L -130.314,-832.49 L -130.937,-832.411 L -131.545,-832.255 L -132.129,-832.024 L -132.679,-831.722
 L -133.187,-831.353 L -133.645,-830.923 L -134.045,-830.439 L -134.382,-829.909 L -134.649,-829.341 L -134.843,-828.743
 L -134.961,-828.127 L -135,-827.5 L -135,-792.5 L -134.961,-791.873 L -134.843,-791.257 L -134.649,-790.659
 L -134.382,-790.091 L -134.045,-789.561 L -133.645,-789.077 L -133.187,-788.647 L -132.679,-788.278 L -132.129,-787.976
 L -131.545,-787.745 L -130.937,-787.589 L -130.314,-787.51 L 130.314,-787.51 z
M -130.048,-788.009 L -130.64,-788.084 L -131.218,-788.232 L -131.772,-788.452 L -132.295,-788.739 L -132.778,-789.09
 L -133.213,-789.498 L -133.593,-789.958 L -133.912,-790.462 L -134.166,-791.001 L -134.351,-791.569 L -134.463,-792.155
 L -134.5,-792.75 L -134.5,-827.25 L -134.463,-827.845 L -134.351,-828.431 L -134.166,-828.999 L -133.912,-829.538
 L -133.593,-830.042 L -133.213,-830.502 L -132.778,-830.91 L -132.295,-831.261 L -131.772,-831.548 L -131.218,-831.768
 L -130.64,-831.916 L -130.048,-831.991 L 130.048,-831.991 L 130.64,-831.916 L 131.218,-831.768 L 131.772,-831.548
 L 132.295,-831.261 L 132.778,-830.91 L 133.213,-830.502 L 133.593,-830.042 L 133.912,-829.538 L 134.166,-828.999
 L 134.351,-828.431 L 134.463,-827.845 L 134.5,-827.25 L 134.5,-792.75 L 134.463,-792.155 L 134.351,-791.569
 L 134.166,-791.001 L 133.912,-790.462 L 133.593,-789.958 L 133.213,-789.498 L 132.778,-789.09 L 132.295,-788.739
 L 131.772,-788.452 L 131.218,-788.232 L 130.64,-788.084 L 130.048,-788.009 z
M 130.937,-733.589 L 131.545,-733.745 L 132.129,-733.976 L 132.679,-734.278 L 133.187,-734.647 L 133.645,-735.077
 L 134.045,-735.561 L 134.382,-736.091 L 134.649,-736.659 L 134.843,-737.257 L 134.961,-737.873 L 135,-738.5
 L 135,-773.5 L 134.961,-774.127 L 134.843,-774.743 L 134.649,-775.341 L 134.382,-775.909 L 134.045,-776.439
 L 133.645,-776.923 L 133.187,-777.353 L 132.679,-777.722 L 132.129,-778.024 L 131.545,-778.255 L 130.937,-778.411
 L 130.314,-778.49 L -130.314,-778.49 L -130.937,-778.411 L -131.545,-778.255 L -132.129,-778.024 L -132.679,-777.722
 L -133.187,-777.353 L -133.645,-776.923 L -134.045,-776.439 L -134.382,-775.909 L -134.649,-775.341 L -134.843,-774.743
 L -134.961,-774.127 L -135,-773.5 L -135,-738.5 L -134.961,-737.873 L -134.843,-737.257 L -134.649,-736.659
 L -134.382,-736.091 L -134.045,-735.561 L -133.645,-735.077 L -133.187,-734.647 L -132.679,-734.278 L -132.129,-733.976
 L -131.545,-733.745 L -130.937,-733.589 L -130.314,-733.51 L 130.314,-733.51 z
M -130.048,-734.009 L -130.64,-734.084 L -131.218,-734.232 L -131.772,-734.452 L -132.295,-734.739 L -132.778,-735.09
 L -133.213,-735.498 L -133.593,-735.958 L -133.912,-736.462 L -134.166,-737.001 L -134.351,-737.569 L -134.463,-738.155
 L -134.5,-738.75 L -134.5,-773.25 L -134.463,-773.845 L -134.351,-774.431 L -134.166,-774.999 L -133.912,-775.538
 L -133.593,-776.042 L -133.213,-776.502 L -132.778,-776.91 L -132.295,-777.261 L -131.772,-777.548 L -131.218,-777.768
 L -130.64,-777.916 L -130.048,-777.991 L 130.048,-777.991 L 130.64,-777.916 L 131.218,-777.768 L 131.772,-777.548
 L 132.295,-777.261 L 132.778,-776.91 L 133.213,-776.502 L 133.593,-776.042 L 133.912,-775.538 L 134.166,-774.999
 L 134.351,-774.431 L 134.463,-773.845 L 134.5,-773.25 L 134.5,-738.75 L 134.463,-738.155 L 134.351,-737.569
 L 134.166,-737.001 L 133.912,-736.462 L 133.593,-735.958 L 133.213,-735.498 L 132.778,-735.09 L 132.295,-734.739
 L 131.772,-734.452 L 131.218,-734.232 L 130.64,-734.084 L 130.048,-734.009 z
M 130.937,-679.589 L 131.545,-679.745 L 132.129,-679.976 L 132.679,-680.278 L 133.187,-680.647 L 133.645,-681.077
 L 134.045,-681.561 L 134.382,-682.091 L 134.649,-682.659 L 134.843,-683.257 L 134.961,-683.873 L 135,-684.5
 L 135,-719.5 L 134.961,-720.127 L 134.843,-720.743 L 134.649,-721.341 L 134.382,-721.909 L 134.045,-722.439
 L 133.645,-722.923 L 133.187,-723.353 L 132.679,-723.722 L 132.129,-724.024 L 131.545,-724.255 L 130.937,-724.411
 L 130.314,-724.49 L -130.314,-724.49 L -130.937,-724.411 L -131.545,-724.255 L -132.129,-724.024 L -132.679,-723.722
 L -133.187,-723.353 L -133.645,-722.923 L -134.045,-722.439 L -134.382,-721.909 L -134.649,-721.341 L -134.843,-720.743
 L -134.961,-720.127 L -135,-719.5 L -135,-684.5 L -134.961,-683.873 L -134.843,-683.257 L -134.649,-682.659
 L -134.382,-682.091 L -134.045,-681.561 L -133.645,-681.077 L -133.187,-680.647 L -132.679,-680.278 L -132.129,-679.976
 L -131.545,-679.745 L -130.937,-679.589 L -130.314,-679.51 L 130.314,-679.51 z
M -130.048,-680.009 L -130.64,-680.084 L -131.218,-680.232 L -131.772,-680.452 L -132.295,-680.739 L -132.778,-681.09
 L -133.213,-681.498 L -133.593,-681.958 L -133.912,-682.462 L -134.166,-683.001 L -134.351,-683.569 L -134.463,-684.155
 L -134.5,-684.75 L -134.5,-719.25 L -134.463,-719.845 L -134.351,-720.431 L -134.166,-720.999 L -133.912,-721.538
 L -133.593,-722.042 L -133.213,-722.502 L -132.778,-722.91 L -132.295,-723.261 L -131.772,-723.548 L -131.218,-723.768
 L -130.64,-723.916 L -130.048,-723.991 L 130.048,-723.991 L 130.64,-723.916 L 131.218,-723.768 L 131.772,-723.548
 L 132.295,-723.261 L 132.778,-722.91 L 133.213,-722.502 L 133.593,-722.042 L 133.912,-721.538 L 134.166,-720.999
 L 134.351,-720.431 L 134.463,-719.845 L 134.5,-719.25 L 134.5,-684.75 L 134.463,-684.155 L 134.351,-683.569
 L 134.166,-683.001 L 133.912,-682.462 L 133.593,-681.958 L 133.213,-681.498 L 132.778,-681.09 L 132.295,-680.739
 L 131.772,-680.452 L 131.218,-680.232 L 130.64,-680.084 L 130.048,-680.009 z
M 130.937,-625.589 L 131.545,-625.745 L 132.129,-625.976 L 132.679,-626.278 L 133.187,-626.647 L 133.645,-627.077
 L 134.045,-627.561 L 134.382,-628.091 L 134.649,-628.659 L 134.843,-629.257 L 134.961,-629.873 L 135,-630.5
 L 135,-665.5 L 134.961,-666.127 L 134.843,-666.743 L 134.649,-667.341 L 134.382,-667.909 L 134.045,-668.439
 L 133.645,-668.923 L 133.187,-669.353 L 132.679,-669.722 L 132.129,-670.024 L 131.545,-670.255 L 130.937,-670.411
 L 130.314,-670.49 L -130.314,-670.49 L -130.937,-670.411 L -131.545,-670.255 L -132.129,-670.024 L -132.679,-669.722
 L -133.187,-669.353 L -133.645,-668.923 L -134.045,-668.439 L -134.382,-667.909 L -134.649,-667.341 L -134.843,-666.743
 L -134.961,-666.127 L -135,-665.5 L -135,-630.5 L -134.961,-629.873 L -134.843,-629.257 L -134.649,-628.659
 L -134.382,-628.091 L -134.045,-627.561 L -133.645,-627.077 L -133.187,-626.647 L -132.679,-626.278 L -132.129,-625.976
 L -131.545,-625.745 L -130.937,-625.589 L -130.314,-625.51 L 130.314,-625.51 z
M -130.048,-626.009 L -130.64,-626.084 L -131.218,-626.232 L -131.772,-626.452 L -132.295,-626.739 L -132.778,-627.09
 L -133.213,-627.498 L -133.593,-627.958 L -133.912,-628.462 L -134.166,-629.001 L -134.351,-629.569 L -134.463,-630.155
 L -134.5,-630.75 L -134.5,-665.25 L -134.463,-665.845 L -134.351,-666.431 L -134.166,-666.999 L -133.912,-667.538
 L -133.593,-668.042 L -133.213,-668.502 L -132.778,-668.91 L -132.295,-669.261 L -131.772,-669.548 L -131.218,-669.768
 L -130.64,-669.916 L -130.048,-669.991 L 130.048,-669.991 L 130.64,-669.916 L 131.218,-669.768 L 131.772,-669.548
 L 132.295,-669.261 L 132.778,-668.91 L 133.213,-668.502 L 133.593,-668.042 L 133.912,-667.538 L 134.166,-666.999
 L 134.351,-666.431 L 134.463,-665.845 L 134.5,-665.25 L 134.5,-630.75 L 134.463,-630.155 L 134.351,-629.569
 L 134.166,-629.001 L 133.912,-628.462 L 133.593,-627.958 L 133.213,-627.498 L 132.778,-627.09 L 132.295,-626.739
 L 131.772,-626.452 L 131.218,-626.232 L 130.64,-626.084 L 130.048,-626.009 z
M 130.937,-571.589 L 131.545,-571.745 L 132.129,-571.976 L 132.679,-572.278 L 133.187,-572.647 L 133.645,-573.077
 L 134.045,-573.561 L 134.382,-574.091 L 134.649,-574.659 L 134.843,-575.257 L 134.961,-575.873 L 135,-576.5
 L 135,-611.5 L 134.961,-612.127 L 134.843,-612.743 L 134.649,-613.341 L 134.382,-613.909 L 134.045,-614.439
 L 133.645,-614.923 L 133.187,-615.353 L 132.679,-615.722 L 132.129,-616.024 L 131.545,-616.255 L 130.937,-616.411
 L 130.314,-616.49 L -130.314,-616.49 L -130.937,-616.411 L -131.545,-616.255 L -132.129,-616.024 L -132.679,-615.722
 L -133.187,-615.353 L -133.645,-614.923 L -134.045,-614.439 L -134.382,-613.909 L -134.649,-613.341 L -134.843,-612.743
 L -134.961,-612.127 L -135,-611.5 L -135,-576.5 L -134.961,-575.873 L -134.843,-575.257 L -134.649,-574.659
 L -134.382,-574.091 L -134.045,-573.561 L -133.645,-573.077 L -133.187,-572.647 L -132.679,-572.278 L -132.129,-571.976
 L -131.545,-571.745 L -130.937,-571.589 L -130.314,-571.51 L 130.314,-571.51 z
M -130.037,-572.181 L -130.608,-572.253 L -131.165,-572.396 L -131.699,-572.607 L -132.203,-572.884 L -132.668,-573.222
 L -133.088,-573.616 L -133.454,-574.059 L -133.762,-574.544 L -134.007,-575.065 L -134.185,-575.611 L -134.292,-576.176
 L -134.328,-576.75 L -134.328,-611.25 L -134.292,-611.824 L -134.185,-612.389 L -134.007,-612.935 L -133.762,-613.456
 L -133.454,-613.941 L -133.088,-614.384 L -132.668,-614.778 L -132.203,-615.116 L -131.699,-615.393 L -131.165,-615.604
 L -130.608,-615.747 L -130.037,-615.819 L 130.037,-615.819 L 130.608,-615.747 L 131.165,-615.604 L 131.699,-615.393
 L 132.203,-615.116 L 132.668,-614.778 L 133.088,-614.384 L 133.454,-613.941 L 133.762,-613.456 L 134.007,-612.935
 L 134.185,-612.389 L 134.292,-611.824 L 134.328,-611.25 L 134.328,-576.75 L 134.292,-576.176 L 134.185,-575.611
 L 134.007,-575.065 L 133.762,-574.544 L 133.454,-574.059 L 133.088,-573.616 L 132.668,-573.222 L 132.203,-572.884
 L 131.699,-572.607 L 131.165,-572.396 L 130.608,-572.253 L 130.037,-572.181 z
M 130.937,-517.589 L 131.545,-517.745 L 132.129,-517.976 L 132.679,-518.278 L 133.187,-518.647 L 133.645,-519.077
 L 134.045,-519.561 L 134.382,-520.091 L 134.649,-520.659 L 134.843,-521.257 L 134.961,-521.873 L 135,-522.5
 L 135,-557.5 L 134.961,-558.127 L 134.843,-558.743 L 134.649,-559.341 L 134.382,-559.909 L 134.045,-560.439
 L 133.645,-560.923 L 133.187,-561.353 L 132.679,-561.722 L 132.129,-562.024 L 131.545,-562.255 L 130.937,-562.411
 L 130.314,-562.49 L -130.314,-562.49 L -130.937,-562.411 L -131.545,-562.255 L -132.129,-562.024 L -132.679,-561.722
 L -133.187,-561.353 L -133.645,-560.923 L -134.045,-560.439 L -134.382,-559.909 L -134.649,-559.341 L -134.843,-558.743
 L -134.961,-558.127 L -135,-557.5 L -135,-522.5 L -134.961,-521.873 L -134.843,-521.257 L -134.649,-520.659
 L -134.382,-520.091 L -134.045,-519.561 L -133.645,-519.077 L -133.187,-518.647 L -132.679,-518.278 L -132.129,-517.976
 L -131.545,-517.745 L -130.937,-517.589 L -130.314,-517.51 L 130.314,-517.51 z
M -129.882,-520.645 L -130.145,-520.678 L -130.402,-520.744 L -130.648,-520.841 L -130.88,-520.969 L -131.095,-521.125
 L -131.288,-521.306 L -131.457,-521.51 L -131.599,-521.734 L -131.711,-521.973 L -131.793,-522.225 L -131.843,-522.486
 L -131.86,-522.75 L -131.86,-557.25 L -131.843,-557.514 L -131.793,-557.775 L -131.711,-558.027 L -131.599,-558.266
 L -131.457,-558.49 L -131.288,-558.694 L -131.095,-558.875 L -130.88,-559.031 L -130.648,-559.159 L -130.402,-559.256
 L -130.145,-559.322 L -129.882,-559.355 L 129.882,-559.355 L 130.145,-559.322 L 130.402,-559.256 L 130.648,-559.159
 L 130.88,-559.031 L 131.095,-558.875 L 131.288,-558.694 L 131.457,-558.49 L 131.599,-558.266 L 131.711,-558.027
 L 131.793,-557.775 L 131.843,-557.514 L 131.86,-557.25 L 131.86,-522.75 L 131.843,-522.486 L 131.793,-522.225
 L 131.711,-521.973 L 131.599,-521.734 L 131.457,-521.51 L 131.288,-521.306 L 131.095,-521.125 L 130.88,-520.969
 L 130.648,-520.841 L 130.402,-520.744 L 130.145,-520.678 L 129.882,-520.645 z
" stroke="black" fill="lightgray" stroke-width="0.5"/>
</svg>
