<?xml version="1.0" standalone="no"?>
<!DOCTYPE svg PUBLIC "-//W3C//DTD SVG 1.1//EN" "http://www.w3.org/Graphics/SVG/1.1/DTD/svg11.dtd">
<svg width="256mm" height="549mm" viewBox="-128 -972 256 549" xmlns="http://www.w3.org/2000/svg" version="1.1">
<title>OpenSCAD Model</title>
<path d="
M 123.437,-702.089 L 124.045,-702.245 L 124.629,-702.476 L 125.179,-702.778 L 125.687,-703.147 L 126.145,-703.577
 L 126.545,-704.061 L 126.882,-704.591 L 127.149,-705.159 L 127.343,-705.757 L 127.461,-706.373 L 127.5,-707
 L 127.5,-967 L 127.461,-967.627 L 127.343,-968.243 L 127.149,-968.841 L 126.882,-969.409 L 126.545,-969.939
 L 126.145,-970.423 L 125.687,-970.853 L 125.179,-971.222 L 124.629,-971.524 L 124.045,-971.755 L 123.437,-971.911
 L 122.814,-971.99 L -122.814,-971.99 L -123.437,-971.911 L -124.045,-971.755 L -124.629,-971.524 L -125.179,-971.222
 L -125.687,-970.853 L -126.145,-970.423 L -126.545,-969.939 L -126.882,-969.409 L -127.149,-968.841 L -127.343,-968.243
 L -127.461,-967.627 L -127.5,-967 L -127.5,-707 L -127.461,-706.373 L -127.343,-705.757 L -127.149,-705.159
 L -126.882,-704.591 L -126.545,-704.061 L -126.145,-703.577 L -125.687,-703.147 L -125.179,-702.778 L -124.629,-702.476
 L -124.045,-702.245 L -123.437,-702.089 L -122.814,-702.01 L 122.814,-702.01 z
M -122.195,-704.393 L -122.583,-704.442 L -122.962,-704.539 L -123.325,-704.683 L -123.668,-704.872 L -123.984,-705.101
 L -124.269,-705.369 L -124.518,-705.67 L -124.728,-706 L -124.894,-706.354 L -125.015,-706.726 L -125.088,-707.11
 L -125.113,-707.5 L -125.113,-966.5 L -125.088,-966.89 L -125.015,-967.274 L -124.894,-967.646 L -124.728,-968
 L -124.518,-968.33 L -124.269,-968.631 L -123.984,-968.899 L -123.668,-969.128 L -123.325,-969.317 L -122.962,-969.461
 L -122.583,-969.558 L -122.195,-969.607 L 122.195,-969.607 L 122.583,-969.558 L 122.962,-969.461 L 123.325,-969.317
 L 123.668,-969.128 L 123.984,-968.899 L 124.269,-968.631 L 124.518,-968.33 L 124.728,-968 L 124.894,-967.646
 L 125.015,-967.274 L 125.088,-966.89 L 125.113,-966.5 L 125.113,-707.5 L 125.088,-707.11 L 125.015,-706.726
 L 124.894,-706.354 L 124.728,-706 L 124.518,-705.67 L 124.269,-705.369 L 123.984,-705.101 L 123.668,-704.872
 L 123.325,-704.683 L 122.962,-704.539 L 122.583,-704.442 L 122.195,-704.393 z
M 123.437,-423.089 L 124.045,-423.245 L 124.629,-423.476 L 125.179,-423.778 L 125.687,-424.147 L 126.145,-424.577
 L 126.545,-425.061 L 126.882,-425.591 L 127.149,-426.159 L 127.343,-426.757 L 127.461,-427.373 L 127.5,-428
 L 127.5,-688 L 127.461,-688.627 L 127.343,-689.243 L 127.149,-689.841 L 126.882,-690.409 L 126.545,-690.939
 L 126.145,-691.423 L 125.687,-691.853 L 125.179,-692.222 L 124.629,-692.524 L 124.045,-692.755 L 123.437,-692.911
 L 122.814,-692.99 L -122.814,-692.99 L -123.437,-692.911 L -124.045,-692.755 L -124.629,-692.524 L -125.179,-692.222
 L -125.687,-691.853 L -126.145,-691.423 L -126.545,-690.939 L -126.882,-690.409 L -127.149,-689.841 L -127.343,-689.243
 L -127.461,-688.627 L -127.5,-688 L -127.5,-428 L -127.461,-427.373 L -127.343,-426.757 L -127.149,-426.159
 L -126.882,-425.591 L -126.545,-425.061 L -126.145,-424.577 L -125.687,-424.147 L -125.179,-423.778 L -124.629,-423.476
 L -124.045,-423.245 L -123.437,-423.089 L -122.814,-423.01 L 122.814,-423.01 z
M 119.866,-683.369 L 119.6,-683.403 L 119.34,-683.469 L 119.091,-683.568 L 118.856,-683.697 L 118.639,-683.855
 L 118.443,-684.038 L 118.273,-684.245 L 118.129,-684.471 L 118.015,-684.714 L 117.932,-684.969 L 117.882,-685.232
 L 117.865,-685.5 L 117.882,-685.768 L 117.932,-686.031 L 118.015,-686.286 L 118.129,-686.529 L 118.273,-686.755
 L 118.443,-686.962 L 118.639,-687.145 L 118.856,-687.303 L 119.091,-687.432 L 119.34,-687.531 L 119.6,-687.597
 L 119.866,-687.631 L 120.134,-687.631 L 120.4,-687.597 L 120.66,-687.531 L 120.909,-687.432 L 121.144,-687.303
 L 121.361,-687.145 L 121.557,-686.962 L 121.727,-686.755 L 121.871,-686.529 L 121.985,-686.286 L 122.068,-686.031
 L 122.118,-685.768 L 122.135,-685.5 L 122.118,-685.232 L 122.068,-684.969 L 121.985,-684.714 L 121.871,-684.471
 L 121.727,-684.245 L 121.557,-684.038 L 121.361,-683.855 L 121.144,-683.697 L 120.909,-683.568 L 120.66,-683.469
 L 120.4,-683.403 L 120.134,-683.369 z
M -120.134,-683.369 L -120.4,-683.403 L -120.66,-683.469 L -120.909,-683.568 L -121.144,-683.697 L -121.361,-683.855
 L -121.557,-684.038 L -121.727,-684.245 L -121.871,-684.471 L -121.985,-684.714 L -122.068,-684.969 L -122.118,-685.232
 L -122.135,-685.5 L -122.118,-685.768 L -122.068,-686.031 L -121.985,-686.286 L -121.871,-686.529 L -121.727,-686.755
 L -121.557,-686.962 L -121.361,-687.145 L -121.144,-687.303 L -120.909,-687.432 L -120.66,-687.531 L -120.4,-687.597
 L -120.134,-687.631 L -119.866,-687.631 L -119.6,-687.597 L -119.34,-687.531 L -119.091,-687.432 L -118.856,-687.303
 L -118.639,-687.145 L -118.443,-686.962 L -118.273,-686.755 L -118.129,-686.529 L -118.015,-686.286 L -117.932,-686.031
 L -117.882,-685.768 L -117.865,-685.5 L -117.882,-685.232 L -117.932,-684.969 L -118.015,-684.714 L -118.129,-684.471
 L -118.273,-684.245 L -118.443,-684.038 L -118.639,-683.855 L -118.856,-683.697 L -119.091,-683.568 L -119.34,-683.469
 L -119.6,-683.403 L -119.866,-683.369 z
M 119.866,-428.369 L 119.6,-428.403 L 119.34,-428.469 L 119.091,-428.568 L 118.856,-428.697 L 118.639,-428.855
 L 118.443,-429.038 L 118.273,-429.245 L 118.129,-429.471 L 118.015,-429.714 L 117.932,-429.969 L 117.882,-430.232
 L 117.865,-430.5 L 117.882,-430.768 L 117.932,-431.031 L 118.015,-431.286 L 118.129,-431.529 L 118.273,-431.755
 L 118.443,-431.962 L 118.639,-432.145 L 118.856,-432.303 L 119.091,-432.432 L 119.34,-432.531 L 119.6,-432.597
 L 119.866,-432.631 L 120.134,-432.631 L 120.4,-432.597 L 120.66,-432.531 L 120.909,-432.432 L 121.144,-432.303
 L 121.361,-432.145 L 121.557,-431.962 L 121.727,-431.755 L 121.871,-431.529 L 121.985,-431.286 L 122.068,-431.031
 L 122.118,-430.768 L 122.135,-430.5 L 122.118,-430.232 L 122.068,-429.969 L 121.985,-429.714 L 121.871,-429.471
 L 121.727,-429.245 L 121.557,-429.038 L 121.361,-428.855 L 121.144,-428.697 L 120.909,-428.568 L 120.66,-428.469
 L 120.4,-428.403 L 120.134,-428.369 z
M -120.134,-428.369 L -120.4,-428.403 L -120.66,-428.469 L -120.909,-428.568 L -121.144,-428.697 L -121.361,-428.855
 L -121.557,-429.038 L -121.727,-429.245 L -121.871,-429.471 L -121.985,-429.714 L -122.068,-429.969 L -122.118,-430.232
 L -122.135,-430.5 L -122.118,-430.768 L -122.068,-431.031 L -121.985,-431.286 L -121.871,-431.529 L -121.727,-431.755
 L -121.557,-431.962 L -121.361,-432.145 L -121.144,-432.303 L -120.909,-432.432 L -120.66,-432.531 L -120.4,-432.597
 L -120.134,-432.631 L -119.866,-432.631 L -119.6,-432.597 L -119.34,-432.531 L -119.091,-432.432 L -118.856,-432.303
 L -118.639,-432.145 L -118.443,-431.962 L -118.273,-431.755 L -118.129,-431.529 L -118.015,-431.286 L -117.932,-431.031
 L -117.882,-430.768 L -117.865,-430.5 L -117.882,-430.232 L -117.932,-429.969 L -118.015,-429.714 L -118.129,-429.471
 L -118.273,-429.245 L -118.443,-429.038 L -118.639,-428.855 L -118.856,-428.697 L -119.091,-428.568 L -119.34,-428.469
 L -119.6,-428.403 L -119.866,-428.369 z
" stroke="black" fill="lightgray" stroke-width="0.5"/>
</svg>
