<?xml version="1.0" standalone="no"?>
<!DOCTYPE svg PUBLIC "-//W3C//DTD SVG 1.1//EN" "http://www.w3.org/Graphics/SVG/1.1/DTD/svg11.dtd">
<svg width="240mm" height="562mm" viewBox="-120 -965 240 562" xmlns="http://www.w3.org/2000/svg" version="1.1">
<title>OpenSCAD Model</title>
<path d="
M 115.937,-859.589 L 116.545,-859.745 L 117.129,-859.976 L 117.679,-860.278 L 118.187,-860.647 L 118.645,-861.077
 L 119.045,-861.561 L 119.382,-862.091 L 119.649,-862.659 L 119.843,-863.257 L 119.961,-863.873 L 120,-864.5
 L 120,-959.5 L 119.961,-960.127 L 119.843,-960.743 L 119.649,-961.341 L 119.382,-961.909 L 119.045,-962.439
 L 118.645,-962.923 L 118.187,-963.353 L 117.679,-963.722 L 117.129,-964.024 L 116.545,-964.255 L 115.937,-964.411
 L 115.314,-964.49 L -115.314,-964.49 L -115.937,-964.411 L -116.545,-964.255 L -117.129,-964.024 L -117.679,-963.722
 L -118.187,-963.353 L -118.645,-962.923 L -119.045,-962.439 L -119.382,-961.909 L -119.649,-961.341 L -119.843,-960.743
 L -119.961,-960.127 L -120,-959.5 L -120,-864.5 L -119.961,-863.873 L -119.843,-863.257 L -119.649,-862.659
 L -119.382,-862.091 L -119.045,-861.561 L -118.645,-861.077 L -118.187,-860.647 L -117.679,-860.278 L -117.129,-859.976
 L -116.545,-859.745 L -115.937,-859.589 L -115.314,-859.51 L 115.314,-859.51 z
M -115.048,-860.009 L -115.64,-860.084 L -116.218,-860.232 L -116.772,-860.452 L -117.295,-860.739 L -117.778,-861.09
 L -118.213,-861.498 L -118.593,-861.958 L -118.912,-862.462 L -119.166,-863.001 L -119.351,-863.569 L -119.463,-864.155
 L -119.5,-864.75 L -119.5,-959.25 L -119.463,-959.845 L -119.351,-960.431 L -119.166,-960.999 L -118.912,-961.538
 L -118.593,-962.042 L -118.213,-962.502 L -117.778,-962.91 L -117.295,-963.261 L -116.772,-963.548 L -116.218,-963.768
 L -115.64,-963.916 L -115.048,-963.991 L 115.048,-963.991 L 115.64,-963.916 L 116.218,-963.768 L 116.772,-963.548
 L 117.295,-963.261 L 117.778,-962.91 L 118.213,-962.502 L 118.593,-962.042 L 118.912,-961.538 L 119.166,-960.999
 L 119.351,-960.431 L 119.463,-959.845 L 119.5,-959.25 L 119.5,-864.75 L 119.463,-864.155 L 119.351,-863.569
 L 119.166,-863.001 L 118.912,-862.462 L 118.593,-861.958 L 118.213,-861.498 L 117.778,-861.09 L 117.295,-860.739
 L 116.772,-860.452 L 116.218,-860.232 L 115.64,-860.084 L 115.048,-860.009 z
M 115.937,-745.589 L 116.545,-745.745 L 117.129,-745.976 L 117.679,-746.278 L 118.187,-746.647 L 118.645,-747.077
 L 119.045,-747.561 L 119.382,-748.091 L 119.649,-748.659 L 119.843,-749.257 L 119.961,-749.873 L 120,-750.5
 L 120,-845.5 L 119.961,-846.127 L 119.843,-846.743 L 119.649,-847.341 L 119.382,-847.909 L 119.045,-848.439
 L 118.645,-848.923 L 118.187,-849.353 L 117.679,-849.722 L 117.129,-850.024 L 116.545,-850.255 L 115.937,-850.411
 L 115.314,-850.49 L -115.314,-850.49 L -115.937,-850.411 L -116.545,-850.255 L -117.129,-850.024 L -117.679,-849.722
 L -118.187,-849.353 L -118.645,-848.923 L -119.045,-848.439 L -119.382,-847.909 L -119.649,-847.341 L -119.843,-846.743
 L -119.961,-846.127 L -120,-845.5 L -120,-750.5 L -119.961,-749.873 L -119.843,-749.257 L -119.649,-748.659
 L -119.382,-748.091 L -119.045,-747.561 L -118.645,-747.077 L -118.187,-746.647 L -117.679,-746.278 L -117.129,-745.976
 L -116.545,-745.745 L -115.937,-745.589 L -115.314,-745.51 L 115.314,-745.51 z
M -115.048,-746.009 L -115.64,-746.084 L -116.218,-746.232 L -116.772,-746.452 L -117.295,-746.739 L -117.778,-747.09
 L -118.213,-747.498 L -118.593,-747.958 L -118.912,-748.462 L -119.166,-749.001 L -119.351,-749.569 L -119.463,-750.155
 L -119.5,-750.75 L -119.5,-845.25 L -119.463,-845.845 L -119.351,-846.431 L -119.166,-846.999 L -118.912,-847.538
 L -118.593,-848.042 L -118.213,-848.502 L -117.778,-848.91 L -117.295,-849.261 L -116.772,-849.548 L -116.218,-849.768
 L -115.64,-849.916 L -115.048,-849.991 L 115.048,-849.991 L 115.64,-849.916 L 116.218,-849.768 L 116.772,-849.548
 L 117.295,-849.261 L 117.778,-848.91 L 118.213,-848.502 L 118.593,-848.042 L 118.912,-847.538 L 119.166,-846.999
 L 119.351,-846.431 L 119.463,-845.845 L 119.5,-845.25 L 119.5,-750.75 L 119.463,-750.155 L 119.351,-749.569
 L 119.166,-749.001 L 118.912,-748.462 L 118.593,-747.958 L 118.213,-747.498 L 117.778,-747.09 L 117.295,-746.739
 L 116.772,-746.452 L 116.218,-746.232 L 115.64,-746.084 L 115.048,-746.009 z
M 115.937,-631.589 L 116.545,-631.745 L 117.129,-631.976 L 117.679,-632.278 L 118.187,-632.647 L 118.645,-633.077
 L 119.045,-633.561 L 119.382,-634.091 L 119.649,-634.659 L 119.843,-635.257 L 119.961,-635.873 L 120,-636.5
 L 120,-731.5 L 119.961,-732.127 L 119.843,-732.743 L 119.649,-733.341 L 119.382,-733.909 L 119.045,-734.439
 L 118.645,-734.923 L 118.187,-735.353 L 117.679,-735.722 L 117.129,-736.024 L 116.545,-736.255 L 115.937,-736.411
 L 115.314,-736.49 L -115.314,-736.49 L -115.937,-736.411 L -116.545,-736.255 L -117.129,-736.024 L -117.679,-735.722
 L -118.187,-735.353 L -118.645,-734.923 L -119.045,-734.439 L -119.382,-733.909 L -119.649,-733.341 L -119.843,-732.743
 L -119.961,-732.127 L -120,-731.5 L -120,-636.5 L -119.961,-635.873 L -119.843,-635.257 L -119.649,-634.659
 L -119.382,-634.091 L -119.045,-633.561 L -118.645,-633.077 L -118.187,-632.647 L -117.679,-632.278 L -117.129,-631.976
 L -116.545,-631.745 L -115.937,-631.589 L -115.314,-631.51 L 115.314,-631.51 z
M -115.048,-632.009 L -115.64,-632.084 L -116.218,-632.232 L -116.772,-632.452 L -117.295,-632.739 L -117.778,-633.09
 L -118.213,-633.498 L -118.593,-633.958 L -118.912,-634.462 L -119.166,-635.001 L -119.351,-635.569 L -119.463,-636.155
 L -119.5,-636.75 L -119.5,-731.25 L -119.463,-731.845 L -119.351,-732.431 L -119.166,-732.999 L -118.912,-733.538
 L -118.593,-734.042 L -118.213,-734.502 L -117.778,-734.91 L -117.295,-735.261 L -116.772,-735.548 L -116.218,-735.768
 L -115.64,-735.916 L -115.048,-735.991 L 115.048,-735.991 L 115.64,-735.916 L 116.218,-735.768 L 116.772,-735.548
 L 117.295,-735.261 L 117.778,-734.91 L 118.213,-734.502 L 118.593,-734.042 L 118.912,-733.538 L 119.166,-732.999
 L 119.351,-732.431 L 119.463,-731.845 L 119.5,-731.25 L 119.5,-636.75 L 119.463,-636.155 L 119.351,-635.569
 L 119.166,-635.001 L 118.912,-634.462 L 118.593,-633.958 L 118.213,-633.498 L 117.778,-633.09 L 117.295,-632.739
 L 116.772,-632.452 L 116.218,-632.232 L 115.64,-632.084 L 115.048,-632.009 z
M 115.937,-517.589 L 116.545,-517.745 L 117.129,-517.976 L 117.679,-518.278 L 118.187,-518.647 L 118.645,-519.077
 L 119.045,-519.561 L 119.382,-520.091 L 119.649,-520.659 L 119.843,-521.257 L 119.961,-521.873 L 120,-522.5
 L 120,-617.5 L 119.961,-618.127 L 119.843,-618.743 L 119.649,-619.341 L 119.382,-619.909 L 119.045,-620.439
 L 118.645,-620.923 L 118.187,-621.353 L 117.679,-621.722 L 117.129,-622.024 L 116.545,-622.255 L 115.937,-622.411
 L 115.314,-622.49 L -115.314,-622.49 L -115.937,-622.411 L -116.545,-622.255 L -117.129,-622.024 L -117.679,-621.722
 L -118.187,-621.353 L -118.645,-620.923 L -119.045,-620.439 L -119.382,-619.909 L -119.649,-619.341 L -119.843,-618.743
 L -119.961,-618.127 L -120,-617.5 L -120,-522.5 L -119.961,-521.873 L -119.843,-521.257 L -119.649,-520.659
 L -119.382,-520.091 L -119.045,-519.561 L -118.645,-519.077 L -118.187,-518.647 L -117.679,-518.278 L -117.129,-517.976
 L -116.545,-517.745 L -115.937,-517.589 L -115.314,-517.51 L 115.314,-517.51 z
M -114.993,-518.888 L -115.475,-518.949 L -115.946,-519.07 L -116.398,-519.249 L -116.823,-519.483 L -117.216,-519.769
 L -117.571,-520.101 L -117.88,-520.476 L -118.141,-520.886 L -118.348,-521.326 L -118.498,-521.788 L -118.589,-522.265
 L -118.619,-522.75 L -118.619,-617.25 L -118.589,-617.735 L -118.498,-618.212 L -118.348,-618.674 L -118.141,-619.114
 L -117.88,-619.524 L -117.571,-619.899 L -117.216,-620.231 L -116.823,-620.517 L -116.398,-620.751 L -115.946,-620.93
 L -115.475,-621.051 L -114.993,-621.112 L 114.993,-621.112 L 115.475,-621.051 L 115.946,-620.93 L 116.398,-620.751
 L 116.823,-620.517 L 117.216,-620.231 L 117.571,-619.899 L 117.88,-619.524 L 118.141,-619.114 L 118.348,-618.674
 L 118.498,-618.212 L 118.589,-617.735 L 118.619,-617.25 L 118.619,-522.75 L 118.589,-522.265 L 118.498,-521.788
 L 118.348,-521.326 L 118.141,-520.886 L 117.88,-520.476 L 117.571,-520.101 L 117.216,-519.769 L 116.823,-519.483
 L 116.398,-519.249 L 115.946,-519.07 L 115.475,-518.949 L 114.993,-518.888 z
M 115.937,-403.589 L 116.545,-403.745 L 117.129,-403.976 L 117.679,-404.278 L 118.187,-404.647 L 118.645,-405.077
 L 119.045,-405.561 L 119.382,-406.091 L 119.649,-406.659 L 119.843,-407.257 L 119.961,-407.873 L 120,-408.5
 L 120,-503.5 L 119.961,-504.127 L 119.843,-504.743 L 119.649,-505.341 L 119.382,-505.909 L 119.045,-506.439
 L 118.645,-506.923 L 118.187,-507.353 L 117.679,-507.722 L 117.129,-508.024 L 116.545,-508.255 L 115.937,-508.411
 L 115.314,-508.49 L -115.314,-508.49 L -115.937,-508.411 L -116.545,-508.255 L -117.129,-508.024 L -117.679,-507.722
 L -118.187,-507.353 L -118.645,-506.923 L -119.045,-506.439 L -119.382,-505.909 L -119.649,-505.341 L -119.843,-504.743
 L -119.961,-504.127 L -120,-503.5 L -120,-408.5 L -119.961,-407.873 L -119.843,-407.257 L -119.649,-406.659
 L -119.382,-406.091 L -119.045,-405.561 L -118.645,-405.077 L -118.187,-404.647 L -117.679,-404.278 L -117.129,-403.976
 L -116.545,-403.745 L -115.937,-403.589 L -115.314,-403.51 L 115.314,-403.51 z
M 112.387,-499.204 L 112.163,-499.232 L 111.944,-499.288 L 111.734,-499.371 L 111.536,-499.48 L 111.353,-499.613
 L 111.188,-499.768 L 111.044,-499.942 L 110.923,-500.133 L 110.826,-500.337 L 110.757,-500.552 L 110.714,-500.774
 L 110.7,-501 L 110.714,-501.226 L 110.757,-501.448 L 110.826,-501.663 L 110.923,-501.867 L 111.044,-502.058
 L 111.188,-502.232 L 111.353,-502.387 L 111.536,-502.52 L 111.734,-502.629 L 111.944,-502.712 L 112.163,-502.768
 L 112.387,-502.796 L 112.613,-502.796 L 112.837,-502.768 L 113.056,-502.712 L 113.266,-502.629 L 113.464,-502.52
 L 113.647,-502.387 L 113.812,-502.232 L 113.956,-502.058 L 114.077,-501.867 L 114.174,-501.663 L 114.243,-501.448
 L 114.286,-501.226 L 114.3,-501 L 114.286,-500.774 L 114.243,-500.552 L 114.174,-500.337 L 114.077,-500.133
 L 113.956,-499.942 L 113.812,-499.768 L 113.647,-499.613 L 113.464,-499.48 L 113.266,-499.371 L 113.056,-499.288
 L 112.837,-499.232 L 112.613,-499.204 z
M -112.613,-499.204 L -112.837,-499.232 L -113.056,-499.288 L -113.266,-499.371 L -113.464,-499.48 L -113.647,-499.613
 L -113.812,-499.768 L -113.956,-499.942 L -114.077,-500.133 L -114.174,-500.337 L -114.243,-500.552 L -114.286,-500.774
 L -114.3,-501 L -114.286,-501.226 L -114.243,-501.448 L -114.174,-501.663 L -114.077,-501.867 L -113.956,-502.058
 L -113.812,-502.232 L -113.647,-502.387 L -113.464,-502.52 L -113.266,-502.629 L -113.056,-502.712 L -112.837,-502.768
 L -112.613,-502.796 L -112.387,-502.796 L -112.163,-502.768 L -111.944,-502.712 L -111.734,-502.629 L -111.536,-502.52
 L -111.353,-502.387 L -111.188,-502.232 L -111.044,-502.058 L -110.923,-501.867 L -110.826,-501.663 L -110.757,-501.448
 L -110.714,-501.226 L -110.7,-501 L -110.714,-500.774 L -110.757,-500.552 L -110.826,-500.337 L -110.923,-500.133
 L -111.044,-499.942 L -111.188,-499.768 L -111.353,-499.613 L -111.536,-499.48 L -111.734,-499.371 L -111.944,-499.288
 L -112.163,-499.232 L -112.387,-499.204 z
M 112.387,-409.204 L 112.163,-409.232 L 111.944,-409.288 L 111.734,-409.371 L 111.536,-409.48 L 111.353,-409.613
 L 111.188,-409.768 L 111.044,-409.942 L 110.923,-410.133 L 110.826,-410.337 L 110.757,-410.552 L 110.714,-410.774
 L 110.7,-411 L 110.714,-411.226 L 110.757,-411.448 L 110.826,-411.663 L 110.923,-411.867 L 111.044,-412.058
 L 111.188,-412.232 L 111.353,-412.387 L 111.536,-412.52 L 111.734,-412.629 L 111.944,-412.712 L 112.163,-412.768
 L 112.387,-412.796 L 112.613,-412.796 L 112.837,-412.768 L 113.056,-412.712 L 113.266,-412.629 L 113.464,-412.52
 L 113.647,-412.387 L 113.812,-412.232 L 113.956,-412.058 L 114.077,-411.867 L 114.174,-411.663 L 114.243,-411.448
 L 114.286,-411.226 L 114.3,-411 L 114.286,-410.774 L 114.243,-410.552 L 114.174,-410.337 L 114.077,-410.133
 L 113.956,-409.942 L 113.812,-409.768 L 113.647,-409.613 L 113.464,-409.48 L 113.266,-409.371 L 113.056,-409.288
 L 112.837,-409.232 L 112.613,-409.204 z
M -112.613,-409.204 L -112.837,-409.232 L -113.056,-409.288 L -113.266,-409.371 L -113.464,-409.48 L -113.647,-409.613
 L -113.812,-409.768 L -113.956,-409.942 L -114.077,-410.133 L -114.174,-410.337 L -114.243,-410.552 L -114.286,-410.774
 L -114.3,-411 L -114.286,-411.226 L -114.243,-411.448 L -114.174,-411.663 L -114.077,-411.867 L -113.956,-412.058
 L -113.812,-412.232 L -113.647,-412.387 L -113.464,-412.52 L -113.266,-412.629 L -113.056,-412.712 L -112.837,-412.768
 L -112.613,-412.796 L -112.387,-412.796 L -112.163,-412.768 L -111.944,-412.712 L -111.734,-412.629 L -111.536,-412.52
 L -111.353,-412.387 L -111.188,-412.232 L -111.044,-412.058 L -110.923,-411.867 L -110.826,-411.663 L -110.757,-411.448
 L -110.714,-411.226 L -110.7,-411 L -110.714,-410.774 L -110.757,-410.552 L -110.826,-410.337 L -110.923,-410.133
 L -111.044,-409.942 L -111.188,-409.768 L -111.353,-409.613 L -111.536,-409.48 L -111.734,-409.371 L -111.944,-409.288
 L -112.163,-409.232 L -112.387,-409.204 z
" stroke="black" fill="lightgray" stroke-width="0.5"/>
</svg>
