<?xml version="1.0" standalone="no"?>
<!DOCTYPE svg PUBLIC "-//W3C//DTD SVG 1.1//EN" "http://www.w3.org/Graphics/SVG/1.1/DTD/svg11.dtd">
<svg width="240mm" height="150mm" viewBox="-120 -264 240 150" xmlns="http://www.w3.org/2000/svg" version="1.1">
<title>OpenSCAD Model</title>
<path d="
M 115.937,-240.839 L 116.545,-240.995 L 117.129,-241.226 L 117.679,-241.528 L 118.187,-241.897 L 118.645,-242.327
 L 119.045,-242.811 L 119.382,-243.341 L 119.649,-243.909 L 119.843,-244.507 L 119.961,-245.123 L 120,-245.75
 L 120,-258.25 L 119.961,-258.877 L 119.843,-259.493 L 119.649,-260.091 L 119.382,-260.659 L 119.045,-261.189
 L 118.645,-261.673 L 118.187,-262.103 L 117.679,-262.472 L 117.129,-262.774 L 116.545,-263.005 L 115.937,-263.161
 L 115.314,-263.24 L -115.314,-263.24 L -115.937,-263.161 L -116.545,-263.005 L -117.129,-262.774 L -117.679,-262.472
 L -118.187,-262.103 L -118.645,-261.673 L -119.045,-261.189 L -119.382,-260.659 L -119.649,-260.091 L -119.843,-259.493
 L -119.961,-258.877 L -120,-258.25 L -120,-245.75 L -119.961,-245.123 L -119.843,-244.507 L -119.649,-243.909
 L -119.382,-243.341 L -119.045,-242.811 L -118.645,-242.327 L -118.187,-241.897 L -117.679,-241.528 L -117.129,-241.226
 L -116.545,-240.995 L -115.937,-240.839 L -115.314,-240.76 L 115.314,-240.76 z
M -115.048,-241.259 L -115.64,-241.334 L -116.218,-241.482 L -116.772,-241.702 L -117.295,-241.989 L -117.778,-242.34
 L -118.213,-242.748 L -118.593,-243.208 L -118.912,-243.712 L -119.166,-244.251 L -119.351,-244.819 L -119.463,-245.405
 L -119.5,-246 L -119.5,-258 L -119.463,-258.595 L -119.351,-259.181 L -119.166,-259.749 L -118.912,-260.288
 L -118.593,-260.792 L -118.213,-261.252 L -117.778,-261.66 L -117.295,-262.011 L -116.772,-262.298 L -116.218,-262.518
 L -115.64,-262.666 L -115.048,-262.741 L 115.048,-262.741 L 115.64,-262.666 L 116.218,-262.518 L 116.772,-262.298
 L 117.295,-262.011 L 117.778,-261.66 L 118.213,-261.252 L 118.593,-260.792 L 118.912,-260.288 L 119.166,-259.749
 L 119.351,-259.181 L 119.463,-258.595 L 119.5,-258 L 119.5,-246 L 119.463,-245.405 L 119.351,-244.819
 L 119.166,-244.251 L 118.912,-243.712 L 118.593,-243.208 L 118.213,-242.748 L 117.778,-242.34 L 117.295,-241.989
 L 116.772,-241.702 L 116.218,-241.482 L 115.64,-241.334 L 115.048,-241.259 z
M 115.937,-209.339 L 116.545,-209.495 L 117.129,-209.726 L 117.679,-210.028 L 118.187,-210.397 L 118.645,-210.827
 L 119.045,-211.311 L 119.382,-211.841 L 119.649,-212.409 L 119.843,-213.007 L 119.961,-213.623 L 120,-214.25
 L 120,-226.75 L 119.961,-227.377 L 119.843,-227.993 L 119.649,-228.591 L 119.382,-229.159 L 119.045,-229.689
 L 118.645,-230.173 L 118.187,-230.603 L 117.679,-230.972 L 117.129,-231.274 L 116.545,-231.505 L 115.937,-231.661
 L 115.314,-231.74 L -115.314,-231.74 L -115.937,-231.661 L -116.545,-231.505 L -117.129,-231.274 L -117.679,-230.972
 L -118.187,-230.603 L -118.645,-230.173 L -119.045,-229.689 L -119.382,-229.159 L -119.649,-228.591 L -119.843,-227.993
 L -119.961,-227.377 L -120,-226.75 L -120,-214.25 L -119.961,-213.623 L -119.843,-213.007 L -119.649,-212.409
 L -119.382,-211.841 L -119.045,-211.311 L -118.645,-210.827 L -118.187,-210.397 L -117.679,-210.028 L -117.129,-209.726
 L -116.545,-209.495 L -115.937,-209.339 L -115.314,-209.26 L 115.314,-209.26 z
M -115.048,-209.759 L -115.64,-209.834 L -116.218,-209.982 L -116.772,-210.202 L -117.295,-210.489 L -117.778,-210.84
 L -118.213,-211.248 L -118.593,-211.708 L -118.912,-212.212 L -119.166,-212.751 L -119.351,-213.319 L -119.463,-213.905
 L -119.5,-214.5 L -119.5,-226.5 L -119.463,-227.095 L -119.351,-227.681 L -119.166,-228.249 L -118.912,-228.788
 L -118.593,-229.292 L -118.213,-229.752 L -117.778,-230.16 L -117.295,-230.511 L -116.772,-230.798 L -116.218,-231.018
 L -115.64,-231.166 L -115.048,-231.241 L 115.048,-231.241 L 115.64,-231.166 L 116.218,-231.018 L 116.772,-230.798
 L 117.295,-230.511 L 117.778,-230.16 L 118.213,-229.752 L 118.593,-229.292 L 118.912,-228.788 L 119.166,-228.249
 L 119.351,-227.681 L 119.463,-227.095 L 119.5,-226.5 L 119.5,-214.5 L 119.463,-213.905 L 119.351,-213.319
 L 119.166,-212.751 L 118.912,-212.212 L 118.593,-211.708 L 118.213,-211.248 L 117.778,-210.84 L 117.295,-210.489
 L 116.772,-210.202 L 116.218,-209.982 L 115.64,-209.834 L 115.048,-209.759 z
M 115.937,-177.839 L 116.545,-177.995 L 117.129,-178.226 L 117.679,-178.528 L 118.187,-178.897 L 118.645,-179.327
 L 119.045,-179.811 L 119.382,-180.341 L 119.649,-180.909 L 119.843,-181.507 L 119.961,-182.123 L 120,-182.75
 L 120,-195.25 L 119.961,-195.877 L 119.843,-196.493 L 119.649,-197.091 L 119.382,-197.659 L 119.045,-198.189
 L 118.645,-198.673 L 118.187,-199.103 L 117.679,-199.472 L 117.129,-199.774 L 116.545,-200.005 L 115.937,-200.161
 L 115.314,-200.24 L -115.314,-200.24 L -115.937,-200.161 L -116.545,-200.005 L -117.129,-199.774 L -117.679,-199.472
 L -118.187,-199.103 L -118.645,-198.673 L -119.045,-198.189 L -119.382,-197.659 L -119.649,-197.091 L -119.843,-196.493
 L -119.961,-195.877 L -120,-195.25 L -120,-182.75 L -119.961,-182.123 L -119.843,-181.507 L -119.649,-180.909
 L -119.382,-180.341 L -119.045,-179.811 L -118.645,-179.327 L -118.187,-178.897 L -117.679,-178.528 L -117.129,-178.226
 L -116.545,-177.995 L -115.937,-177.839 L -115.314,-177.76 L 115.314,-177.76 z
M -115.048,-178.259 L -115.64,-178.334 L -116.218,-178.482 L -116.772,-178.702 L -117.295,-178.989 L -117.778,-179.34
 L -118.213,-179.748 L -118.593,-180.208 L -118.912,-180.712 L -119.166,-181.251 L -119.351,-181.819 L -119.463,-182.405
 L -119.5,-183 L -119.5,-195 L -119.463,-195.595 L -119.351,-196.181 L -119.166,-196.749 L -118.912,-197.288
 L -118.593,-197.792 L -118.213,-198.252 L -117.778,-198.66 L -117.295,-199.011 L -116.772,-199.298 L -116.218,-199.518
 L -115.64,-199.666 L -115.048,-199.741 L 115.048,-199.741 L 115.64,-199.666 L 116.218,-199.518 L 116.772,-199.298
 L 117.295,-199.011 L 117.778,-198.66 L 118.213,-198.252 L 118.593,-197.792 L 118.912,-197.288 L 119.166,-196.749
 L 119.351,-196.181 L 119.463,-195.595 L 119.5,-195 L 119.5,-183 L 119.463,-182.405 L 119.351,-181.819
 L 119.166,-181.251 L 118.912,-180.712 L 118.593,-180.208 L 118.213,-179.748 L 117.778,-179.34 L 117.295,-178.989
 L 116.772,-178.702 L 116.218,-178.482 L 115.64,-178.334 L 115.048,-178.259 z
M 115.937,-146.339 L 116.545,-146.495 L 117.129,-146.726 L 117.679,-147.028 L 118.187,-147.397 L 118.645,-147.827
 L 119.045,-148.311 L 119.382,-148.841 L 119.649,-149.409 L 119.843,-150.007 L 119.961,-150.623 L 120,-151.25
 L 120,-163.75 L 119.961,-164.377 L 119.843,-164.993 L 119.649,-165.591 L 119.382,-166.159 L 119.045,-166.689
 L 118.645,-167.173 L 118.187,-167.603 L 117.679,-167.972 L 117.129,-168.274 L 116.545,-168.505 L 115.937,-168.661
 L 115.314,-168.74 L -115.314,-168.74 L -115.937,-168.661 L -116.545,-168.505 L -117.129,-168.274 L -117.679,-167.972
 L -118.187,-167.603 L -118.645,-167.173 L -119.045,-166.689 L -119.382,-166.159 L -119.649,-165.591 L -119.843,-164.993
 L -119.961,-164.377 L -120,-163.75 L -120,-151.25 L -119.961,-150.623 L -119.843,-150.007 L -119.649,-149.409
 L -119.382,-148.841 L -119.045,-148.311 L -118.645,-147.827 L -118.187,-147.397 L -117.679,-147.028 L -117.129,-146.726
 L -116.545,-146.495 L -115.937,-146.339 L -115.314,-146.26 L 115.314,-146.26 z
M -114.993,-147.638 L -115.475,-147.699 L -115.946,-147.82 L -116.398,-147.999 L -116.823,-148.233 L -117.216,-148.519
 L -117.571,-148.851 L -117.88,-149.226 L -118.141,-149.636 L -118.348,-150.076 L -118.498,-150.538 L -118.589,-151.015
 L -118.619,-151.5 L -118.619,-163.5 L -118.589,-163.985 L -118.498,-164.462 L -118.348,-164.924 L -118.141,-165.364
 L -117.88,-165.774 L -117.571,-166.149 L -117.216,-166.481 L -116.823,-166.767 L -116.398,-167.001 L -115.946,-167.18
 L -115.475,-167.301 L -114.993,-167.362 L 114.993,-167.362 L 115.475,-167.301 L 115.946,-167.18 L 116.398,-167.001
 L 116.823,-166.767 L 117.216,-166.481 L 117.571,-166.149 L 117.88,-165.774 L 118.141,-165.364 L 118.348,-164.924
 L 118.498,-164.462 L 118.589,-163.985 L 118.619,-163.5 L 118.619,-151.5 L 118.589,-151.015 L 118.498,-150.538
 L 118.348,-150.076 L 118.141,-149.636 L 117.88,-149.226 L 117.571,-148.851 L 117.216,-148.519 L 116.823,-148.233
 L 116.398,-147.999 L 115.946,-147.82 L 115.475,-147.699 L 114.993,-147.638 z
M 115.937,-114.839 L 116.545,-114.995 L 117.129,-115.226 L 117.679,-115.528 L 118.187,-115.897 L 118.645,-116.327
 L 119.045,-116.811 L 119.382,-117.341 L 119.649,-117.909 L 119.843,-118.507 L 119.961,-119.123 L 120,-119.75
 L 120,-132.25 L 119.961,-132.877 L 119.843,-133.493 L 119.649,-134.091 L 119.382,-134.659 L 119.045,-135.189
 L 118.645,-135.673 L 118.187,-136.103 L 117.679,-136.472 L 117.129,-136.774 L 116.545,-137.005 L 115.937,-137.161
 L 115.314,-137.24 L -115.314,-137.24 L -115.937,-137.161 L -116.545,-137.005 L -117.129,-136.774 L -117.679,-136.472
 L -118.187,-136.103 L -118.645,-135.673 L -119.045,-135.189 L -119.382,-134.659 L -119.649,-134.091 L -119.843,-133.493
 L -119.961,-132.877 L -120,-132.25 L -120,-119.75 L -119.961,-119.123 L -119.843,-118.507 L -119.649,-117.909
 L -119.382,-117.341 L -119.045,-116.811 L -118.645,-116.327 L -118.187,-115.897 L -117.679,-115.528 L -117.129,-115.226
 L -116.545,-114.995 L -115.937,-114.839 L -115.314,-114.76 L 115.314,-114.76 z
M -112.613,-127.954 L -112.837,-127.982 L -113.056,-128.038 L -113.266,-128.121 L -113.464,-128.23 L -113.647,-128.363
 L -113.812,-128.518 L -113.956,-128.692 L -114.077,-128.883 L -114.174,-129.087 L -114.243,-129.302 L -114.286,-129.524
 L -114.3,-129.75 L -114.286,-129.976 L -114.243,-130.198 L -114.174,-130.413 L -114.077,-130.617 L -113.956,-130.808
 L -113.812,-130.982 L -113.647,-131.137 L -113.464,-131.27 L -113.266,-131.379 L -113.056,-131.462 L -112.837,-131.518
 L -112.613,-131.546 L -112.387,-131.546 L -112.163,-131.518 L -111.944,-131.462 L -111.734,-131.379 L -111.536,-131.27
 L -111.353,-131.137 L -111.188,-130.982 L -111.044,-130.808 L -110.923,-130.617 L -110.826,-130.413 L -110.757,-130.198
 L -110.714,-129.976 L -110.7,-129.75 L -110.714,-129.524 L -110.757,-129.302 L -110.826,-129.087 L -110.923,-128.883
 L -111.044,-128.692 L -111.188,-128.518 L -111.353,-128.363 L -111.536,-128.23 L -111.734,-128.121 L -111.944,-128.038
 L -112.163,-127.982 L -112.387,-127.954 z
M 112.387,-127.954 L 112.163,-127.982 L 111.944,-128.038 L 111.734,-128.121 L 111.536,-128.23 L 111.353,-128.363
 L 111.188,-128.518 L 111.044,-128.692 L 110.923,-128.883 L 110.826,-129.087 L 110.757,-129.302 L 110.714,-129.524
 L 110.7,-129.75 L 110.714,-129.976 L 110.757,-130.198 L 110.826,-130.413 L 110.923,-130.617 L 111.044,-130.808
 L 111.188,-130.982 L 111.353,-131.137 L 111.536,-131.27 L 111.734,-131.379 L 111.944,-131.462 L 112.163,-131.518
 L 112.387,-131.546 L 112.613,-131.546 L 112.837,-131.518 L 113.056,-131.462 L 113.266,-131.379 L 113.464,-131.27
 L 113.647,-131.137 L 113.812,-130.982 L 113.956,-130.808 L 114.077,-130.617 L 114.174,-130.413 L 114.243,-130.198
 L 114.286,-129.976 L 114.3,-129.75 L 114.286,-129.524 L 114.243,-129.302 L 114.174,-129.087 L 114.077,-128.883
 L 113.956,-128.692 L 113.812,-128.518 L 113.647,-128.363 L 113.464,-128.23 L 113.266,-128.121 L 113.056,-128.038
 L 112.837,-127.982 L 112.613,-127.954 z
M 112.387,-120.454 L 112.163,-120.482 L 111.944,-120.538 L 111.734,-120.621 L 111.536,-120.73 L 111.353,-120.863
 L 111.188,-121.018 L 111.044,-121.192 L 110.923,-121.383 L 110.826,-121.587 L 110.757,-121.802 L 110.714,-122.024
 L 110.7,-122.25 L 110.714,-122.476 L 110.757,-122.698 L 110.826,-122.913 L 110.923,-123.117 L 111.044,-123.308
 L 111.188,-123.482 L 111.353,-123.637 L 111.536,-123.77 L 111.734,-123.879 L 111.944,-123.962 L 112.163,-124.018
 L 112.387,-124.046 L 112.613,-124.046 L 112.837,-124.018 L 113.056,-123.962 L 113.266,-123.879 L 113.464,-123.77
 L 113.647,-123.637 L 113.812,-123.482 L 113.956,-123.308 L 114.077,-123.117 L 114.174,-122.913 L 114.243,-122.698
 L 114.286,-122.476 L 114.3,-122.25 L 114.286,-122.024 L 114.243,-121.802 L 114.174,-121.587 L 114.077,-121.383
 L 113.956,-121.192 L 113.812,-121.018 L 113.647,-120.863 L 113.464,-120.73 L 113.266,-120.621 L 113.056,-120.538
 L 112.837,-120.482 L 112.613,-120.454 z
M -112.613,-120.454 L -112.837,-120.482 L -113.056,-120.538 L -113.266,-120.621 L -113.464,-120.73 L -113.647,-120.863
 L -113.812,-121.018 L -113.956,-121.192 L -114.077,-121.383 L -114.174,-121.587 L -114.243,-121.802 L -114.286,-122.024
 L -114.3,-122.25 L -114.286,-122.476 L -114.243,-122.698 L -114.174,-122.913 L -114.077,-123.117 L -113.956,-123.308
 L -113.812,-123.482 L -113.647,-123.637 L -113.464,-123.77 L -113.266,-123.879 L -113.056,-123.962 L -112.837,-124.018
 L -112.613,-124.046 L -112.387,-124.046 L -112.163,-124.018 L -111.944,-123.962 L -111.734,-123.879 L -111.536,-123.77
 L -111.353,-123.637 L -111.188,-123.482 L -111.044,-123.308 L -110.923,-123.117 L -110.826,-122.913 L -110.757,-122.698
 L -110.714,-122.476 L -110.7,-122.25 L -110.714,-122.024 L -110.757,-121.802 L -110.826,-121.587 L -110.923,-121.383
 L -111.044,-121.192 L -111.188,-121.018 L -111.353,-120.863 L -111.536,-120.73 L -111.734,-120.621 L -111.944,-120.538
 L -112.163,-120.482 L -112.387,-120.454 z
" stroke="black" fill="lightgray" stroke-width="0.5"/>
</svg>
