<?xml version="1.0" standalone="no"?>
<!DOCTYPE svg PUBLIC "-//W3C//DTD SVG 1.1//EN" "http://www.w3.org/Graphics/SVG/1.1/DTD/svg11.dtd">
<svg width="242mm" height="369mm" viewBox="-122 -657 242 369" xmlns="http://www.w3.org/2000/svg" version="1.1">
<title>OpenSCAD Model</title>
<path d="
M 115.937,-477.089 L 116.545,-477.245 L 117.129,-477.476 L 117.679,-477.778 L 118.187,-478.147 L 118.645,-478.577
 L 119.045,-479.061 L 119.382,-479.591 L 119.649,-480.159 L 119.843,-480.757 L 119.961,-481.373 L 120,-482
 L 120,-652 L 119.961,-652.627 L 119.843,-653.243 L 119.649,-653.841 L 119.382,-654.409 L 119.045,-654.939
 L 118.645,-655.423 L 118.187,-655.853 L 117.679,-656.222 L 117.129,-656.524 L 116.545,-656.755 L 115.937,-656.911
 L 115.314,-656.99 L -115.314,-656.99 L -115.937,-656.911 L -116.545,-656.755 L -117.129,-656.524 L -117.679,-656.222
 L -118.187,-655.853 L -118.5,-655.559 L -118.5,-656.979 L -121.5,-656.979 L -121.5,-477.021 L -118.5,-477.021
 L -118.5,-478.441 L -118.187,-478.147 L -117.679,-477.778 L -117.129,-477.476 L -116.545,-477.245 L -115.937,-477.089
 L -115.314,-477.01 L 115.314,-477.01 z
M -114.695,-479.393 L -115.083,-479.442 L -115.462,-479.539 L -115.825,-479.683 L -116.168,-479.872 L -116.484,-480.101
 L -116.769,-480.369 L -117.018,-480.67 L -117.228,-481 L -117.394,-481.354 L -117.515,-481.726 L -117.588,-482.11
 L -117.613,-482.5 L -117.613,-651.5 L -117.588,-651.89 L -117.515,-652.274 L -117.394,-652.646 L -117.228,-653
 L -117.018,-653.33 L -116.769,-653.631 L -116.484,-653.899 L -116.168,-654.128 L -115.825,-654.317 L -115.462,-654.461
 L -115.083,-654.558 L -114.695,-654.607 L 114.695,-654.607 L 115.083,-654.558 L 115.462,-654.461 L 115.825,-654.317
 L 116.168,-654.128 L 116.484,-653.899 L 116.769,-653.631 L 117.018,-653.33 L 117.228,-653 L 117.394,-652.646
 L 117.515,-652.274 L 117.588,-651.89 L 117.613,-651.5 L 117.613,-482.5 L 117.588,-482.11 L 117.515,-481.726
 L 117.394,-481.354 L 117.228,-481 L 117.018,-480.67 L 116.769,-480.369 L 116.484,-480.101 L 116.168,-479.872
 L 115.825,-479.683 L 115.462,-479.539 L 115.083,-479.442 L 114.695,-479.393 z
M 115.937,-288.089 L 116.545,-288.245 L 117.129,-288.476 L 117.679,-288.778 L 118.187,-289.147 L 118.645,-289.577
 L 119.045,-290.061 L 119.382,-290.591 L 119.649,-291.159 L 119.843,-291.757 L 119.961,-292.373 L 120,-293
 L 120,-463 L 119.961,-463.627 L 119.843,-464.243 L 119.649,-464.841 L 119.382,-465.409 L 119.045,-465.939
 L 118.645,-466.423 L 118.187,-466.853 L 117.679,-467.222 L 117.129,-467.524 L 116.545,-467.755 L 115.937,-467.911
 L 115.314,-467.99 L -115.314,-467.99 L -115.937,-467.911 L -116.545,-467.755 L -117.129,-467.524 L -117.679,-467.222
 L -118.187,-466.853 L -118.5,-466.559 L -118.5,-466.653 L -121.5,-466.653 L -121.5,-289.347 L -118.5,-289.347
 L -118.5,-289.441 L -118.187,-289.147 L -117.679,-288.778 L -117.129,-288.476 L -116.545,-288.245 L -115.937,-288.089
 L -115.314,-288.01 L 115.314,-288.01 z
M 112.366,-458.369 L 112.1,-458.403 L 111.84,-458.469 L 111.591,-458.568 L 111.356,-458.697 L 111.139,-458.855
 L 110.943,-459.038 L 110.773,-459.245 L 110.629,-459.471 L 110.515,-459.714 L 110.432,-459.969 L 110.382,-460.232
 L 110.365,-460.5 L 110.382,-460.768 L 110.432,-461.031 L 110.515,-461.286 L 110.629,-461.529 L 110.773,-461.755
 L 110.943,-461.962 L 111.139,-462.145 L 111.356,-462.303 L 111.591,-462.432 L 111.84,-462.531 L 112.1,-462.597
 L 112.366,-462.631 L 112.634,-462.631 L 112.9,-462.597 L 113.16,-462.531 L 113.409,-462.432 L 113.644,-462.303
 L 113.861,-462.145 L 114.057,-461.962 L 114.227,-461.755 L 114.371,-461.529 L 114.485,-461.286 L 114.568,-461.031
 L 114.618,-460.768 L 114.635,-460.5 L 114.618,-460.232 L 114.568,-459.969 L 114.485,-459.714 L 114.371,-459.471
 L 114.227,-459.245 L 114.057,-459.038 L 113.861,-458.855 L 113.644,-458.697 L 113.409,-458.568 L 113.16,-458.469
 L 112.9,-458.403 L 112.634,-458.369 z
M -112.634,-458.369 L -112.9,-458.403 L -113.16,-458.469 L -113.409,-458.568 L -113.644,-458.697 L -113.861,-458.855
 L -114.057,-459.038 L -114.227,-459.245 L -114.371,-459.471 L -114.485,-459.714 L -114.568,-459.969 L -114.618,-460.232
 L -114.635,-460.5 L -114.618,-460.768 L -114.568,-461.031 L -114.485,-461.286 L -114.371,-461.529 L -114.227,-461.755
 L -114.057,-461.962 L -113.861,-462.145 L -113.644,-462.303 L -113.409,-462.432 L -113.16,-462.531 L -112.9,-462.597
 L -112.634,-462.631 L -112.366,-462.631 L -112.1,-462.597 L -111.84,-462.531 L -111.591,-462.432 L -111.356,-462.303
 L -111.139,-462.145 L -110.943,-461.962 L -110.773,-461.755 L -110.629,-461.529 L -110.515,-461.286 L -110.432,-461.031
 L -110.382,-460.768 L -110.365,-460.5 L -110.382,-460.232 L -110.432,-459.969 L -110.515,-459.714 L -110.629,-459.471
 L -110.773,-459.245 L -110.943,-459.038 L -111.139,-458.855 L -111.356,-458.697 L -111.591,-458.568 L -111.84,-458.469
 L -112.1,-458.403 L -112.366,-458.369 z
M 112.366,-293.369 L 112.1,-293.403 L 111.84,-293.469 L 111.591,-293.568 L 111.356,-293.697 L 111.139,-293.855
 L 110.943,-294.038 L 110.773,-294.245 L 110.629,-294.471 L 110.515,-294.714 L 110.432,-294.969 L 110.382,-295.232
 L 110.365,-295.5 L 110.382,-295.768 L 110.432,-296.031 L 110.515,-296.286 L 110.629,-296.529 L 110.773,-296.755
 L 110.943,-296.962 L 111.139,-297.145 L 111.356,-297.303 L 111.591,-297.432 L 111.84,-297.531 L 112.1,-297.597
 L 112.366,-297.631 L 112.634,-297.631 L 112.9,-297.597 L 113.16,-297.531 L 113.409,-297.432 L 113.644,-297.303
 L 113.861,-297.145 L 114.057,-296.962 L 114.227,-296.755 L 114.371,-296.529 L 114.485,-296.286 L 114.568,-296.031
 L 114.618,-295.768 L 114.635,-295.5 L 114.618,-295.232 L 114.568,-294.969 L 114.485,-294.714 L 114.371,-294.471
 L 114.227,-294.245 L 114.057,-294.038 L 113.861,-293.855 L 113.644,-293.697 L 113.409,-293.568 L 113.16,-293.469
 L 112.9,-293.403 L 112.634,-293.369 z
M -112.634,-293.369 L -112.9,-293.403 L -113.16,-293.469 L -113.409,-293.568 L -113.644,-293.697 L -113.861,-293.855
 L -114.057,-294.038 L -114.227,-294.245 L -114.371,-294.471 L -114.485,-294.714 L -114.568,-294.969 L -114.618,-295.232
 L -114.635,-295.5 L -114.618,-295.768 L -114.568,-296.031 L -114.485,-296.286 L -114.371,-296.529 L -114.227,-296.755
 L -114.057,-296.962 L -113.861,-297.145 L -113.644,-297.303 L -113.409,-297.432 L -113.16,-297.531 L -112.9,-297.597
 L -112.634,-297.631 L -112.366,-297.631 L -112.1,-297.597 L -111.84,-297.531 L -111.591,-297.432 L -111.356,-297.303
 L -111.139,-297.145 L -110.943,-296.962 L -110.773,-296.755 L -110.629,-296.529 L -110.515,-296.286 L -110.432,-296.031
 L -110.382,-295.768 L -110.365,-295.5 L -110.382,-295.232 L -110.432,-294.969 L -110.515,-294.714 L -110.629,-294.471
 L -110.773,-294.245 L -110.943,-294.038 L -111.139,-293.855 L -111.356,-293.697 L -111.591,-293.568 L -111.84,-293.469
 L -112.1,-293.403 L -112.366,-293.369 z
" stroke="black" fill="lightgray" stroke-width="0.5"/>
</svg>
