<?xml version="1.0" standalone="no"?>
<!DOCTYPE svg PUBLIC "-//W3C//DTD SVG 1.1//EN" "http://www.w3.org/Graphics/SVG/1.1/DTD/svg11.dtd">
<svg width="287mm" height="220mm" viewBox="-144 -281 287 220" xmlns="http://www.w3.org/2000/svg" version="1.1">
<title>OpenSCAD Model</title>
<path d="
M 138.437,-175.589 L 139.045,-175.745 L 139.629,-175.976 L 140.179,-176.278 L 140.687,-176.647 L 141.145,-177.077
 L 141.545,-177.561 L 141.882,-178.091 L 142.149,-178.659 L 142.343,-179.257 L 142.461,-179.873 L 142.5,-180.5
 L 142.5,-275.5 L 142.461,-276.127 L 142.343,-276.743 L 142.149,-277.341 L 141.882,-277.909 L 141.545,-278.439
 L 141.145,-278.923 L 140.687,-279.353 L 140.179,-279.722 L 139.629,-280.024 L 139.045,-280.255 L 138.437,-280.411
 L 137.814,-280.49 L -137.814,-280.49 L -138.437,-280.411 L -139.045,-280.255 L -139.629,-280.024 L -140.179,-279.722
 L -140.687,-279.353 L -141,-279.059 L -141,-280.115 L -144,-280.115 L -144,-175.885 L -141,-175.885
 L -141,-176.941 L -140.687,-176.647 L -140.179,-176.278 L -139.629,-175.976 L -139.045,-175.745 L -138.437,-175.589
 L -137.814,-175.51 L 137.814,-175.51 z
M 134.849,-270.605 L 134.55,-270.643 L 134.258,-270.717 L 133.978,-270.828 L 133.714,-270.974 L 133.47,-271.151
 L 133.25,-271.357 L 133.058,-271.589 L 132.897,-271.844 L 132.769,-272.117 L 132.675,-272.403 L 132.619,-272.699
 L 132.6,-273 L 132.619,-273.301 L 132.675,-273.597 L 132.769,-273.883 L 132.897,-274.156 L 133.058,-274.411
 L 133.25,-274.643 L 133.47,-274.849 L 133.714,-275.026 L 133.978,-275.172 L 134.258,-275.283 L 134.55,-275.357
 L 134.849,-275.395 L 135.151,-275.395 L 135.45,-275.357 L 135.742,-275.283 L 136.022,-275.172 L 136.286,-275.026
 L 136.53,-274.849 L 136.75,-274.643 L 136.942,-274.411 L 137.103,-274.156 L 137.231,-273.883 L 137.325,-273.597
 L 137.381,-273.301 L 137.4,-273 L 137.381,-272.699 L 137.325,-272.403 L 137.231,-272.117 L 137.103,-271.844
 L 136.942,-271.589 L 136.75,-271.357 L 136.53,-271.151 L 136.286,-270.974 L 136.022,-270.828 L 135.742,-270.717
 L 135.45,-270.643 L 135.151,-270.605 z
M -135.151,-270.605 L -135.45,-270.643 L -135.742,-270.717 L -136.022,-270.828 L -136.286,-270.974 L -136.53,-271.151
 L -136.75,-271.357 L -136.942,-271.589 L -137.103,-271.844 L -137.231,-272.117 L -137.325,-272.403 L -137.381,-272.699
 L -137.4,-273 L -137.381,-273.301 L -137.325,-273.597 L -137.231,-273.883 L -137.103,-274.156 L -136.942,-274.411
 L -136.75,-274.643 L -136.53,-274.849 L -136.286,-275.026 L -136.022,-275.172 L -135.742,-275.283 L -135.45,-275.357
 L -135.151,-275.395 L -134.849,-275.395 L -134.55,-275.357 L -134.258,-275.283 L -133.978,-275.172 L -133.714,-275.026
 L -133.47,-274.849 L -133.25,-274.643 L -133.058,-274.411 L -132.897,-274.156 L -132.769,-273.883 L -132.675,-273.597
 L -132.619,-273.301 L -132.6,-273 L -132.619,-272.699 L -132.675,-272.403 L -132.769,-272.117 L -132.897,-271.844
 L -133.058,-271.589 L -133.25,-271.357 L -133.47,-271.151 L -133.714,-270.974 L -133.978,-270.828 L -134.258,-270.717
 L -134.55,-270.643 L -134.849,-270.605 z
M 134.849,-180.605 L 134.55,-180.643 L 134.258,-180.717 L 133.978,-180.828 L 133.714,-180.974 L 133.47,-181.151
 L 133.25,-181.357 L 133.058,-181.589 L 132.897,-181.844 L 132.769,-182.117 L 132.675,-182.403 L 132.619,-182.699
 L 132.6,-183 L 132.619,-183.301 L 132.675,-183.597 L 132.769,-183.883 L 132.897,-184.156 L 133.058,-184.411
 L 133.25,-184.643 L 133.47,-184.849 L 133.714,-185.026 L 133.978,-185.172 L 134.258,-185.283 L 134.55,-185.357
 L 134.849,-185.395 L 135.151,-185.395 L 135.45,-185.357 L 135.742,-185.283 L 136.022,-185.172 L 136.286,-185.026
 L 136.53,-184.849 L 136.75,-184.643 L 136.942,-184.411 L 137.103,-184.156 L 137.231,-183.883 L 137.325,-183.597
 L 137.381,-183.301 L 137.4,-183 L 137.381,-182.699 L 137.325,-182.403 L 137.231,-182.117 L 137.103,-181.844
 L 136.942,-181.589 L 136.75,-181.357 L 136.53,-181.151 L 136.286,-180.974 L 136.022,-180.828 L 135.742,-180.717
 L 135.45,-180.643 L 135.151,-180.605 z
M -135.151,-180.605 L -135.45,-180.643 L -135.742,-180.717 L -136.022,-180.828 L -136.286,-180.974 L -136.53,-181.151
 L -136.75,-181.357 L -136.942,-181.589 L -137.103,-181.844 L -137.231,-182.117 L -137.325,-182.403 L -137.381,-182.699
 L -137.4,-183 L -137.381,-183.301 L -137.325,-183.597 L -137.231,-183.883 L -137.103,-184.156 L -136.942,-184.411
 L -136.75,-184.643 L -136.53,-184.849 L -136.286,-185.026 L -136.022,-185.172 L -135.742,-185.283 L -135.45,-185.357
 L -135.151,-185.395 L -134.849,-185.395 L -134.55,-185.357 L -134.258,-185.283 L -133.978,-185.172 L -133.714,-185.026
 L -133.47,-184.849 L -133.25,-184.643 L -133.058,-184.411 L -132.897,-184.156 L -132.769,-183.883 L -132.675,-183.597
 L -132.619,-183.301 L -132.6,-183 L -132.619,-182.699 L -132.675,-182.403 L -132.769,-182.117 L -132.897,-181.844
 L -133.058,-181.589 L -133.25,-181.357 L -133.47,-181.151 L -133.714,-180.974 L -133.978,-180.828 L -134.258,-180.717
 L -134.55,-180.643 L -134.849,-180.605 z
M 138.437,-61.5886 L 139.045,-61.7447 L 139.629,-61.9759 L 140.179,-62.2784 L 140.687,-62.6474 L 141.145,-63.0773
 L 141.545,-63.5611 L 141.882,-64.0912 L 142.149,-64.6594 L 142.343,-65.2566 L 142.461,-65.8733 L 142.5,-66.5
 L 142.5,-161.5 L 142.461,-162.127 L 142.343,-162.743 L 142.149,-163.341 L 141.882,-163.909 L 141.545,-164.439
 L 141.145,-164.923 L 140.687,-165.353 L 140.179,-165.722 L 139.629,-166.024 L 139.045,-166.255 L 138.437,-166.411
 L 137.814,-166.49 L -137.814,-166.49 L -138.437,-166.411 L -139.045,-166.255 L -139.629,-166.024 L -140.179,-165.722
 L -140.687,-165.353 L -141.145,-164.923 L -141.545,-164.439 L -141.882,-163.909 L -142.149,-163.341 L -142.343,-162.743
 L -142.4,-162.444 L -144,-162.444 L -144,-65.5558 L -142.4,-65.5558 L -142.343,-65.2566 L -142.149,-64.6594
 L -141.882,-64.0912 L -141.545,-63.5611 L -141.145,-63.0773 L -140.687,-62.6474 L -140.179,-62.2784 L -139.629,-61.9759
 L -139.045,-61.7447 L -138.437,-61.5886 L -137.814,-61.5099 L 137.814,-61.5099 z
M 134.887,-157.204 L 134.663,-157.232 L 134.444,-157.288 L 134.234,-157.371 L 134.036,-157.48 L 133.853,-157.613
 L 133.688,-157.768 L 133.544,-157.942 L 133.423,-158.133 L 133.326,-158.337 L 133.257,-158.552 L 133.214,-158.774
 L 133.2,-159 L 133.214,-159.226 L 133.257,-159.448 L 133.326,-159.663 L 133.423,-159.867 L 133.544,-160.058
 L 133.688,-160.232 L 133.853,-160.387 L 134.036,-160.52 L 134.234,-160.629 L 134.444,-160.712 L 134.663,-160.768
 L 134.887,-160.796 L 135.113,-160.796 L 135.337,-160.768 L 135.556,-160.712 L 135.766,-160.629 L 135.964,-160.52
 L 136.147,-160.387 L 136.312,-160.232 L 136.456,-160.058 L 136.577,-159.867 L 136.674,-159.663 L 136.743,-159.448
 L 136.786,-159.226 L 136.8,-159 L 136.786,-158.774 L 136.743,-158.552 L 136.674,-158.337 L 136.577,-158.133
 L 136.456,-157.942 L 136.312,-157.768 L 136.147,-157.613 L 135.964,-157.48 L 135.766,-157.371 L 135.556,-157.288
 L 135.337,-157.232 L 135.113,-157.204 z
M -135.113,-157.204 L -135.337,-157.232 L -135.556,-157.288 L -135.766,-157.371 L -135.964,-157.48 L -136.147,-157.613
 L -136.312,-157.768 L -136.456,-157.942 L -136.577,-158.133 L -136.674,-158.337 L -136.743,-158.552 L -136.786,-158.774
 L -136.8,-159 L -136.786,-159.226 L -136.743,-159.448 L -136.674,-159.663 L -136.577,-159.867 L -136.456,-160.058
 L -136.312,-160.232 L -136.147,-160.387 L -135.964,-160.52 L -135.766,-160.629 L -135.556,-160.712 L -135.337,-160.768
 L -135.113,-160.796 L -134.887,-160.796 L -134.663,-160.768 L -134.444,-160.712 L -134.234,-160.629 L -134.036,-160.52
 L -133.853,-160.387 L -133.688,-160.232 L -133.544,-160.058 L -133.423,-159.867 L -133.326,-159.663 L -133.257,-159.448
 L -133.214,-159.226 L -133.2,-159 L -133.214,-158.774 L -133.257,-158.552 L -133.326,-158.337 L -133.423,-158.133
 L -133.544,-157.942 L -133.688,-157.768 L -133.853,-157.613 L -134.036,-157.48 L -134.234,-157.371 L -134.444,-157.288
 L -134.663,-157.232 L -134.887,-157.204 z
M 134.887,-67.2036 L 134.663,-67.2319 L 134.444,-67.2881 L 134.234,-67.3713 L 134.036,-67.4802 L 133.853,-67.6131
 L 133.688,-67.7678 L 133.544,-67.942 L 133.423,-68.1328 L 133.326,-68.3374 L 133.257,-68.5524 L 133.214,-68.7744
 L 133.2,-69 L 133.214,-69.2256 L 133.257,-69.4476 L 133.326,-69.6626 L 133.423,-69.8672 L 133.544,-70.058
 L 133.688,-70.2322 L 133.853,-70.3869 L 134.036,-70.5198 L 134.234,-70.6287 L 134.444,-70.7119 L 134.663,-70.7681
 L 134.887,-70.7964 L 135.113,-70.7964 L 135.337,-70.7681 L 135.556,-70.7119 L 135.766,-70.6287 L 135.964,-70.5198
 L 136.147,-70.3869 L 136.312,-70.2322 L 136.456,-70.058 L 136.577,-69.8672 L 136.674,-69.6626 L 136.743,-69.4476
 L 136.786,-69.2256 L 136.8,-69 L 136.786,-68.7744 L 136.743,-68.5524 L 136.674,-68.3374 L 136.577,-68.1328
 L 136.456,-67.942 L 136.312,-67.7678 L 136.147,-67.6131 L 135.964,-67.4802 L 135.766,-67.3713 L 135.556,-67.2881
 L 135.337,-67.2319 L 135.113,-67.2036 z
M -135.113,-67.2036 L -135.337,-67.2319 L -135.556,-67.2881 L -135.766,-67.3713 L -135.964,-67.4802 L -136.147,-67.6131
 L -136.312,-67.7678 L -136.456,-67.942 L -136.577,-68.1328 L -136.674,-68.3374 L -136.743,-68.5524 L -136.786,-68.7744
 L -136.8,-69 L -136.786,-69.2256 L -136.743,-69.4476 L -136.674,-69.6626 L -136.577,-69.8672 L -136.456,-70.058
 L -136.312,-70.2322 L -136.147,-70.3869 L -135.964,-70.5198 L -135.766,-70.6287 L -135.556,-70.7119 L -135.337,-70.7681
 L -135.113,-70.7964 L -134.887,-70.7964 L -134.663,-70.7681 L -134.444,-70.7119 L -134.234,-70.6287 L -134.036,-70.5198
 L -133.853,-70.3869 L -133.688,-70.2322 L -133.544,-70.058 L -133.423,-69.8672 L -133.326,-69.6626 L -133.257,-69.4476
 L -133.214,-69.2256 L -133.2,-69 L -133.214,-68.7744 L -133.257,-68.5524 L -133.326,-68.3374 L -133.423,-68.1328
 L -133.544,-67.942 L -133.688,-67.7678 L -133.853,-67.6131 L -134.036,-67.4802 L -134.234,-67.3713 L -134.444,-67.2881
 L -134.663,-67.2319 L -134.887,-67.2036 z
" stroke="black" fill="lightgray" stroke-width="0.5"/>
</svg>
