<?xml version="1.0" standalone="no"?>
<!DOCTYPE svg PUBLIC "-//W3C//DTD SVG 1.1//EN" "http://www.w3.org/Graphics/SVG/1.1/DTD/svg11.dtd">
<svg width="240mm" height="747mm" viewBox="-120 -1413 240 747" xmlns="http://www.w3.org/2000/svg" version="1.1">
<title>OpenSCAD Model</title>
<path d="
M 115.937,-1233.09 L 116.545,-1233.24 L 117.129,-1233.48 L 117.679,-1233.78 L 118.187,-1234.15 L 118.645,-1234.58
 L 119.045,-1235.06 L 119.382,-1235.59 L 119.649,-1236.16 L 119.843,-1236.76 L 119.961,-1237.37 L 120,-1238
 L 120,-1408 L 119.961,-1408.63 L 119.843,-1409.24 L 119.649,-1409.84 L 119.382,-1410.41 L 119.045,-1410.94
 L 118.645,-1411.42 L 118.187,-1411.85 L 117.679,-1412.22 L 117.129,-1412.52 L 116.545,-1412.76 L 115.937,-1412.91
 L 115.314,-1412.99 L -115.314,-1412.99 L -115.937,-1412.91 L -116.545,-1412.76 L -117.129,-1412.52 L -117.679,-1412.22
 L -118.187,-1411.85 L -118.645,-1411.42 L -119.045,-1410.94 L -119.382,-1410.41 L -119.649,-1409.84 L -119.843,-1409.24
 L -119.961,-1408.63 L -120,-1408 L -120,-1238 L -119.961,-1237.37 L -119.843,-1236.76 L -119.649,-1236.16
 L -119.382,-1235.59 L -119.045,-1235.06 L -118.645,-1234.58 L -118.187,-1234.15 L -117.679,-1233.78 L -117.129,-1233.48
 L -116.545,-1233.24 L -115.937,-1233.09 L -115.314,-1233.01 L 115.314,-1233.01 z
M -115.048,-1233.51 L -115.64,-1233.58 L -116.218,-1233.73 L -116.772,-1233.95 L -117.295,-1234.24 L -117.778,-1234.59
 L -118.213,-1235 L -118.593,-1235.46 L -118.912,-1235.96 L -119.166,-1236.5 L -119.351,-1237.07 L -119.463,-1237.65
 L -119.5,-1238.25 L -119.5,-1407.75 L -119.463,-1408.35 L -119.351,-1408.93 L -119.166,-1409.5 L -118.912,-1410.04
 L -118.593,-1410.54 L -118.213,-1411 L -117.778,-1411.41 L -117.295,-1411.76 L -116.772,-1412.05 L -116.218,-1412.27
 L -115.64,-1412.42 L -115.048,-1412.49 L 115.048,-1412.49 L 115.64,-1412.42 L 116.218,-1412.27 L 116.772,-1412.05
 L 117.295,-1411.76 L 117.778,-1411.41 L 118.213,-1411 L 118.593,-1410.54 L 118.912,-1410.04 L 119.166,-1409.5
 L 119.351,-1408.93 L 119.463,-1408.35 L 119.5,-1407.75 L 119.5,-1238.25 L 119.463,-1237.65 L 119.351,-1237.07
 L 119.166,-1236.5 L 118.912,-1235.96 L 118.593,-1235.46 L 118.213,-1235 L 117.778,-1234.59 L 117.295,-1234.24
 L 116.772,-1233.95 L 116.218,-1233.73 L 115.64,-1233.58 L 115.048,-1233.51 z
M 115.937,-1044.09 L 116.545,-1044.24 L 117.129,-1044.48 L 117.679,-1044.78 L 118.187,-1045.15 L 118.645,-1045.58
 L 119.045,-1046.06 L 119.382,-1046.59 L 119.649,-1047.16 L 119.843,-1047.76 L 119.961,-1048.37 L 120,-1049
 L 120,-1219 L 119.961,-1219.63 L 119.843,-1220.24 L 119.649,-1220.84 L 119.382,-1221.41 L 119.045,-1221.94
 L 118.645,-1222.42 L 118.187,-1222.85 L 117.679,-1223.22 L 117.129,-1223.52 L 116.545,-1223.76 L 115.937,-1223.91
 L 115.314,-1223.99 L -115.314,-1223.99 L -115.937,-1223.91 L -116.545,-1223.76 L -117.129,-1223.52 L -117.679,-1223.22
 L -118.187,-1222.85 L -118.645,-1222.42 L -119.045,-1221.94 L -119.382,-1221.41 L -119.649,-1220.84 L -119.843,-1220.24
 L -119.961,-1219.63 L -120,-1219 L -120,-1049 L -119.961,-1048.37 L -119.843,-1047.76 L -119.649,-1047.16
 L -119.382,-1046.59 L -119.045,-1046.06 L -118.645,-1045.58 L -118.187,-1045.15 L -117.679,-1044.78 L -117.129,-1044.48
 L -116.545,-1044.24 L -115.937,-1044.09 L -115.314,-1044.01 L 115.314,-1044.01 z
M -115.048,-1044.51 L -115.64,-1044.58 L -116.218,-1044.73 L -116.772,-1044.95 L -117.295,-1045.24 L -117.778,-1045.59
 L -118.213,-1046 L -118.593,-1046.46 L -118.912,-1046.96 L -119.166,-1047.5 L -119.351,-1048.07 L -119.463,-1048.65
 L -119.5,-1049.25 L -119.5,-1218.75 L -119.463,-1219.35 L -119.351,-1219.93 L -119.166,-1220.5 L -118.912,-1221.04
 L -118.593,-1221.54 L -118.213,-1222 L -117.778,-1222.41 L -117.295,-1222.76 L -116.772,-1223.05 L -116.218,-1223.27
 L -115.64,-1223.42 L -115.048,-1223.49 L 115.048,-1223.49 L 115.64,-1223.42 L 116.218,-1223.27 L 116.772,-1223.05
 L 117.295,-1222.76 L 117.778,-1222.41 L 118.213,-1222 L 118.593,-1221.54 L 118.912,-1221.04 L 119.166,-1220.5
 L 119.351,-1219.93 L 119.463,-1219.35 L 119.5,-1218.75 L 119.5,-1049.25 L 119.463,-1048.65 L 119.351,-1048.07
 L 119.166,-1047.5 L 118.912,-1046.96 L 118.593,-1046.46 L 118.213,-1046 L 117.778,-1045.59 L 117.295,-1045.24
 L 116.772,-1044.95 L 116.218,-1044.73 L 115.64,-1044.58 L 115.048,-1044.51 z
M 115.937,-855.089 L 116.545,-855.245 L 117.129,-855.476 L 117.679,-855.778 L 118.187,-856.147 L 118.645,-856.577
 L 119.045,-857.061 L 119.382,-857.591 L 119.649,-858.159 L 119.843,-858.757 L 119.961,-859.373 L 120,-860
 L 120,-1030 L 119.961,-1030.63 L 119.843,-1031.24 L 119.649,-1031.84 L 119.382,-1032.41 L 119.045,-1032.94
 L 118.645,-1033.42 L 118.187,-1033.85 L 117.679,-1034.22 L 117.129,-1034.52 L 116.545,-1034.76 L 115.937,-1034.91
 L 115.314,-1034.99 L -115.314,-1034.99 L -115.937,-1034.91 L -116.545,-1034.76 L -117.129,-1034.52 L -117.679,-1034.22
 L -118.187,-1033.85 L -118.645,-1033.42 L -119.045,-1032.94 L -119.382,-1032.41 L -119.649,-1031.84 L -119.843,-1031.24
 L -119.961,-1030.63 L -120,-1030 L -120,-860 L -119.961,-859.373 L -119.843,-858.757 L -119.649,-858.159
 L -119.382,-857.591 L -119.045,-857.061 L -118.645,-856.577 L -118.187,-856.147 L -117.679,-855.778 L -117.129,-855.476
 L -116.545,-855.245 L -115.937,-855.089 L -115.314,-855.01 L 115.314,-855.01 z
M -115.037,-855.681 L -115.608,-855.753 L -116.165,-855.896 L -116.699,-856.107 L -117.203,-856.384 L -117.668,-856.722
 L -118.088,-857.116 L -118.454,-857.559 L -118.762,-858.044 L -119.007,-858.565 L -119.185,-859.111 L -119.292,-859.676
 L -119.328,-860.25 L -119.328,-1029.75 L -119.292,-1030.32 L -119.185,-1030.89 L -119.007,-1031.44 L -118.762,-1031.96
 L -118.454,-1032.44 L -118.088,-1032.88 L -117.668,-1033.28 L -117.203,-1033.62 L -116.699,-1033.89 L -116.165,-1034.1
 L -115.608,-1034.25 L -115.037,-1034.32 L 115.037,-1034.32 L 115.608,-1034.25 L 116.165,-1034.1 L 116.699,-1033.89
 L 117.203,-1033.62 L 117.668,-1033.28 L 118.088,-1032.88 L 118.454,-1032.44 L 118.762,-1031.96 L 119.007,-1031.44
 L 119.185,-1030.89 L 119.292,-1030.32 L 119.328,-1029.75 L 119.328,-860.25 L 119.292,-859.676 L 119.185,-859.111
 L 119.007,-858.565 L 118.762,-858.044 L 118.454,-857.559 L 118.088,-857.116 L 117.668,-856.722 L 117.203,-856.384
 L 116.699,-856.107 L 116.165,-855.896 L 115.608,-855.753 L 115.037,-855.681 z
M 115.937,-666.089 L 116.545,-666.245 L 117.129,-666.476 L 117.679,-666.778 L 118.187,-667.147 L 118.645,-667.577
 L 119.045,-668.061 L 119.382,-668.591 L 119.649,-669.159 L 119.843,-669.757 L 119.961,-670.373 L 120,-671
 L 120,-841 L 119.961,-841.627 L 119.843,-842.243 L 119.649,-842.841 L 119.382,-843.409 L 119.045,-843.939
 L 118.645,-844.423 L 118.187,-844.853 L 117.679,-845.222 L 117.129,-845.524 L 116.545,-845.755 L 115.937,-845.911
 L 115.314,-845.99 L -115.314,-845.99 L -115.937,-845.911 L -116.545,-845.755 L -117.129,-845.524 L -117.679,-845.222
 L -118.187,-844.853 L -118.645,-844.423 L -119.045,-843.939 L -119.382,-843.409 L -119.649,-842.841 L -119.843,-842.243
 L -119.961,-841.627 L -120,-841 L -120,-671 L -119.961,-670.373 L -119.843,-669.757 L -119.649,-669.159
 L -119.382,-668.591 L -119.045,-668.061 L -118.645,-667.577 L -118.187,-667.147 L -117.679,-666.778 L -117.129,-666.476
 L -116.545,-666.245 L -115.937,-666.089 L -115.314,-666.01 L 115.314,-666.01 z
M -114.882,-669.145 L -115.145,-669.178 L -115.402,-669.244 L -115.648,-669.341 L -115.88,-669.469 L -116.095,-669.624
 L -116.288,-669.806 L -116.457,-670.01 L -116.599,-670.234 L -116.711,-670.473 L -116.793,-670.725 L -116.843,-670.986
 L -116.86,-671.25 L -116.86,-840.75 L -116.843,-841.014 L -116.793,-841.275 L -116.711,-841.527 L -116.599,-841.766
 L -116.457,-841.99 L -116.288,-842.194 L -116.095,-842.376 L -115.88,-842.531 L -115.648,-842.659 L -115.402,-842.756
 L -115.145,-842.822 L -114.882,-842.855 L 114.882,-842.855 L 115.145,-842.822 L 115.402,-842.756 L 115.648,-842.659
 L 115.88,-842.531 L 116.095,-842.376 L 116.288,-842.194 L 116.457,-841.99 L 116.599,-841.766 L 116.711,-841.527
 L 116.793,-841.275 L 116.843,-841.014 L 116.86,-840.75 L 116.86,-671.25 L 116.843,-670.986 L 116.793,-670.725
 L 116.711,-670.473 L 116.599,-670.234 L 116.457,-670.01 L 116.288,-669.806 L 116.095,-669.624 L 115.88,-669.469
 L 115.648,-669.341 L 115.402,-669.244 L 115.145,-669.178 L 114.882,-669.145 z
" stroke="black" fill="lightgray" stroke-width="0.5"/>
</svg>
