<?xml version="1.0" standalone="no"?>
<!DOCTYPE svg PUBLIC "-//W3C//DTD SVG 1.1//EN" "http://www.w3.org/Graphics/SVG/1.1/DTD/svg11.dtd">
<svg width="300mm" height="1462mm" viewBox="-150 -2495 300 1462" xmlns="http://www.w3.org/2000/svg" version="1.1">
<title>OpenSCAD Model</title>
<path d="
M 145.937,-2209.59 L 146.545,-2209.74 L 147.129,-2209.98 L 147.679,-2210.28 L 148.187,-2210.65 L 148.645,-2211.08
 L 149.045,-2211.56 L 149.382,-2212.09 L 149.649,-2212.66 L 149.843,-2213.26 L 149.961,-2213.87 L 150,-2214.5
 L 150,-2489.5 L 149.961,-2490.13 L 149.843,-2490.74 L 149.649,-2491.34 L 149.382,-2491.91 L 149.045,-2492.44
 L 148.645,-2492.92 L 148.187,-2493.35 L 147.679,-2493.72 L 147.129,-2494.02 L 146.545,-2494.26 L 145.937,-2494.41
 L 145.314,-2494.49 L -145.314,-2494.49 L -145.937,-2494.41 L -146.545,-2494.26 L -147.129,-2494.02 L -147.679,-2493.72
 L -148.187,-2493.35 L -148.645,-2492.92 L -149.045,-2492.44 L -149.382,-2491.91 L -149.649,-2491.34 L -149.843,-2490.74
 L -149.961,-2490.13 L -150,-2489.5 L -150,-2214.5 L -149.961,-2213.87 L -149.843,-2213.26 L -149.649,-2212.66
 L -149.382,-2212.09 L -149.045,-2211.56 L -148.645,-2211.08 L -148.187,-2210.65 L -147.679,-2210.28 L -147.129,-2209.98
 L -146.545,-2209.74 L -145.937,-2209.59 L -145.314,-2209.51 L 145.314,-2209.51 z
M -145.048,-2210.01 L -145.64,-2210.08 L -146.218,-2210.23 L -146.772,-2210.45 L -147.295,-2210.74 L -147.778,-2211.09
 L -148.213,-2211.5 L -148.593,-2211.96 L -148.912,-2212.46 L -149.166,-2213 L -149.351,-2213.57 L -149.463,-2214.15
 L -149.5,-2214.75 L -149.5,-2489.25 L -149.463,-2489.85 L -149.351,-2490.43 L -149.166,-2491 L -148.912,-2491.54
 L -148.593,-2492.04 L -148.213,-2492.5 L -147.778,-2492.91 L -147.295,-2493.26 L -146.772,-2493.55 L -146.218,-2493.77
 L -145.64,-2493.92 L -145.048,-2493.99 L 145.048,-2493.99 L 145.64,-2493.92 L 146.218,-2493.77 L 146.772,-2493.55
 L 147.295,-2493.26 L 147.778,-2492.91 L 148.213,-2492.5 L 148.593,-2492.04 L 148.912,-2491.54 L 149.166,-2491
 L 149.351,-2490.43 L 149.463,-2489.85 L 149.5,-2489.25 L 149.5,-2214.75 L 149.463,-2214.15 L 149.351,-2213.57
 L 149.166,-2213 L 148.912,-2212.46 L 148.593,-2211.96 L 148.213,-2211.5 L 147.778,-2211.09 L 147.295,-2210.74
 L 146.772,-2210.45 L 146.218,-2210.23 L 145.64,-2210.08 L 145.048,-2210.01 z
M 145.937,-1915.59 L 146.545,-1915.74 L 147.129,-1915.98 L 147.679,-1916.28 L 148.187,-1916.65 L 148.645,-1917.08
 L 149.045,-1917.56 L 149.382,-1918.09 L 149.649,-1918.66 L 149.843,-1919.26 L 149.961,-1919.87 L 150,-1920.5
 L 150,-2195.5 L 149.961,-2196.13 L 149.843,-2196.74 L 149.649,-2197.34 L 149.382,-2197.91 L 149.045,-2198.44
 L 148.645,-2198.92 L 148.187,-2199.35 L 147.679,-2199.72 L 147.129,-2200.02 L 146.545,-2200.26 L 145.937,-2200.41
 L 145.314,-2200.49 L -145.314,-2200.49 L -145.937,-2200.41 L -146.545,-2200.26 L -147.129,-2200.02 L -147.679,-2199.72
 L -148.187,-2199.35 L -148.645,-2198.92 L -149.045,-2198.44 L -149.382,-2197.91 L -149.649,-2197.34 L -149.843,-2196.74
 L -149.961,-2196.13 L -150,-2195.5 L -150,-1920.5 L -149.961,-1919.87 L -149.843,-1919.26 L -149.649,-1918.66
 L -149.382,-1918.09 L -149.045,-1917.56 L -148.645,-1917.08 L -148.187,-1916.65 L -147.679,-1916.28 L -147.129,-1915.98
 L -146.545,-1915.74 L -145.937,-1915.59 L -145.314,-1915.51 L 145.314,-1915.51 z
M -145.048,-1916.01 L -145.64,-1916.08 L -146.218,-1916.23 L -146.772,-1916.45 L -147.295,-1916.74 L -147.778,-1917.09
 L -148.213,-1917.5 L -148.593,-1917.96 L -148.912,-1918.46 L -149.166,-1919 L -149.351,-1919.57 L -149.463,-1920.15
 L -149.5,-1920.75 L -149.5,-2195.25 L -149.463,-2195.85 L -149.351,-2196.43 L -149.166,-2197 L -148.912,-2197.54
 L -148.593,-2198.04 L -148.213,-2198.5 L -147.778,-2198.91 L -147.295,-2199.26 L -146.772,-2199.55 L -146.218,-2199.77
 L -145.64,-2199.92 L -145.048,-2199.99 L 145.048,-2199.99 L 145.64,-2199.92 L 146.218,-2199.77 L 146.772,-2199.55
 L 147.295,-2199.26 L 147.778,-2198.91 L 148.213,-2198.5 L 148.593,-2198.04 L 148.912,-2197.54 L 149.166,-2197
 L 149.351,-2196.43 L 149.463,-2195.85 L 149.5,-2195.25 L 149.5,-1920.75 L 149.463,-1920.15 L 149.351,-1919.57
 L 149.166,-1919 L 148.912,-1918.46 L 148.593,-1917.96 L 148.213,-1917.5 L 147.778,-1917.09 L 147.295,-1916.74
 L 146.772,-1916.45 L 146.218,-1916.23 L 145.64,-1916.08 L 145.048,-1916.01 z
M 145.937,-1621.59 L 146.545,-1621.74 L 147.129,-1621.98 L 147.679,-1622.28 L 148.187,-1622.65 L 148.645,-1623.08
 L 149.045,-1623.56 L 149.382,-1624.09 L 149.649,-1624.66 L 149.843,-1625.26 L 149.961,-1625.87 L 150,-1626.5
 L 150,-1901.5 L 149.961,-1902.13 L 149.843,-1902.74 L 149.649,-1903.34 L 149.382,-1903.91 L 149.045,-1904.44
 L 148.645,-1904.92 L 148.187,-1905.35 L 147.679,-1905.72 L 147.129,-1906.02 L 146.545,-1906.26 L 145.937,-1906.41
 L 145.314,-1906.49 L -145.314,-1906.49 L -145.937,-1906.41 L -146.545,-1906.26 L -147.129,-1906.02 L -147.679,-1905.72
 L -148.187,-1905.35 L -148.645,-1904.92 L -149.045,-1904.44 L -149.382,-1903.91 L -149.649,-1903.34 L -149.843,-1902.74
 L -149.961,-1902.13 L -150,-1901.5 L -150,-1626.5 L -149.961,-1625.87 L -149.843,-1625.26 L -149.649,-1624.66
 L -149.382,-1624.09 L -149.045,-1623.56 L -148.645,-1623.08 L -148.187,-1622.65 L -147.679,-1622.28 L -147.129,-1621.98
 L -146.545,-1621.74 L -145.937,-1621.59 L -145.314,-1621.51 L 145.314,-1621.51 z
M -145.048,-1622.01 L -145.64,-1622.08 L -146.218,-1622.23 L -146.772,-1622.45 L -147.295,-1622.74 L -147.778,-1623.09
 L -148.213,-1623.5 L -148.593,-1623.96 L -148.912,-1624.46 L -149.166,-1625 L -149.351,-1625.57 L -149.463,-1626.15
 L -149.5,-1626.75 L -149.5,-1901.25 L -149.463,-1901.85 L -149.351,-1902.43 L -149.166,-1903 L -148.912,-1903.54
 L -148.593,-1904.04 L -148.213,-1904.5 L -147.778,-1904.91 L -147.295,-1905.26 L -146.772,-1905.55 L -146.218,-1905.77
 L -145.64,-1905.92 L -145.048,-1905.99 L 145.048,-1905.99 L 145.64,-1905.92 L 146.218,-1905.77 L 146.772,-1905.55
 L 147.295,-1905.26 L 147.778,-1904.91 L 148.213,-1904.5 L 148.593,-1904.04 L 148.912,-1903.54 L 149.166,-1903
 L 149.351,-1902.43 L 149.463,-1901.85 L 149.5,-1901.25 L 149.5,-1626.75 L 149.463,-1626.15 L 149.351,-1625.57
 L 149.166,-1625 L 148.912,-1624.46 L 148.593,-1623.96 L 148.213,-1623.5 L 147.778,-1623.09 L 147.295,-1622.74
 L 146.772,-1622.45 L 146.218,-1622.23 L 145.64,-1622.08 L 145.048,-1622.01 z
M 145.937,-1327.59 L 146.545,-1327.74 L 147.129,-1327.98 L 147.679,-1328.28 L 148.187,-1328.65 L 148.645,-1329.08
 L 149.045,-1329.56 L 149.382,-1330.09 L 149.649,-1330.66 L 149.843,-1331.26 L 149.961,-1331.87 L 150,-1332.5
 L 150,-1607.5 L 149.961,-1608.13 L 149.843,-1608.74 L 149.649,-1609.34 L 149.382,-1609.91 L 149.045,-1610.44
 L 148.645,-1610.92 L 148.187,-1611.35 L 147.679,-1611.72 L 147.129,-1612.02 L 146.545,-1612.26 L 145.937,-1612.41
 L 145.314,-1612.49 L -145.314,-1612.49 L -145.937,-1612.41 L -146.545,-1612.26 L -147.129,-1612.02 L -147.679,-1611.72
 L -148.187,-1611.35 L -148.645,-1610.92 L -149.045,-1610.44 L -149.382,-1609.91 L -149.649,-1609.34 L -149.843,-1608.74
 L -149.961,-1608.13 L -150,-1607.5 L -150,-1332.5 L -149.961,-1331.87 L -149.843,-1331.26 L -149.649,-1330.66
 L -149.382,-1330.09 L -149.045,-1329.56 L -148.645,-1329.08 L -148.187,-1328.65 L -147.679,-1328.28 L -147.129,-1327.98
 L -146.545,-1327.74 L -145.937,-1327.59 L -145.314,-1327.51 L 145.314,-1327.51 z
M -144.993,-1328.89 L -145.475,-1328.95 L -145.946,-1329.07 L -146.398,-1329.25 L -146.823,-1329.48 L -147.216,-1329.77
 L -147.571,-1330.1 L -147.88,-1330.48 L -148.141,-1330.89 L -148.348,-1331.33 L -148.498,-1331.79 L -148.589,-1332.27
 L -148.619,-1332.75 L -148.619,-1607.25 L -148.589,-1607.73 L -148.498,-1608.21 L -148.348,-1608.67 L -148.141,-1609.11
 L -147.88,-1609.52 L -147.571,-1609.9 L -147.216,-1610.23 L -146.823,-1610.52 L -146.398,-1610.75 L -145.946,-1610.93
 L -145.475,-1611.05 L -144.993,-1611.11 L 144.993,-1611.11 L 145.475,-1611.05 L 145.946,-1610.93 L 146.398,-1610.75
 L 146.823,-1610.52 L 147.216,-1610.23 L 147.571,-1609.9 L 147.88,-1609.52 L 148.141,-1609.11 L 148.348,-1608.67
 L 148.498,-1608.21 L 148.589,-1607.73 L 148.619,-1607.25 L 148.619,-1332.75 L 148.589,-1332.27 L 148.498,-1331.79
 L 148.348,-1331.33 L 148.141,-1330.89 L 147.88,-1330.48 L 147.571,-1330.1 L 147.216,-1329.77 L 146.823,-1329.48
 L 146.398,-1329.25 L 145.946,-1329.07 L 145.475,-1328.95 L 144.993,-1328.89 z
M 145.937,-1033.59 L 146.545,-1033.74 L 147.129,-1033.98 L 147.679,-1034.28 L 148.187,-1034.65 L 148.645,-1035.08
 L 149.045,-1035.56 L 149.382,-1036.09 L 149.649,-1036.66 L 149.843,-1037.26 L 149.961,-1037.87 L 150,-1038.5
 L 150,-1313.5 L 149.961,-1314.13 L 149.843,-1314.74 L 149.649,-1315.34 L 149.382,-1315.91 L 149.045,-1316.44
 L 148.645,-1316.92 L 148.187,-1317.35 L 147.679,-1317.72 L 147.129,-1318.02 L 146.545,-1318.26 L 145.937,-1318.41
 L 145.314,-1318.49 L -145.314,-1318.49 L -145.937,-1318.41 L -146.545,-1318.26 L -147.129,-1318.02 L -147.679,-1317.72
 L -148.187,-1317.35 L -148.645,-1316.92 L -149.045,-1316.44 L -149.382,-1315.91 L -149.649,-1315.34 L -149.843,-1314.74
 L -149.961,-1314.13 L -150,-1313.5 L -150,-1038.5 L -149.961,-1037.87 L -149.843,-1037.26 L -149.649,-1036.66
 L -149.382,-1036.09 L -149.045,-1035.56 L -148.645,-1035.08 L -148.187,-1034.65 L -147.679,-1034.28 L -147.129,-1033.98
 L -146.545,-1033.74 L -145.937,-1033.59 L -145.314,-1033.51 L 145.314,-1033.51 z
M 142.387,-1309.2 L 142.163,-1309.23 L 141.944,-1309.29 L 141.734,-1309.37 L 141.536,-1309.48 L 141.353,-1309.61
 L 141.188,-1309.77 L 141.044,-1309.94 L 140.923,-1310.13 L 140.826,-1310.34 L 140.757,-1310.55 L 140.714,-1310.77
 L 140.7,-1311 L 140.714,-1311.23 L 140.757,-1311.45 L 140.826,-1311.66 L 140.923,-1311.87 L 141.044,-1312.06
 L 141.188,-1312.23 L 141.353,-1312.39 L 141.536,-1312.52 L 141.734,-1312.63 L 141.944,-1312.71 L 142.163,-1312.77
 L 142.387,-1312.8 L 142.613,-1312.8 L 142.837,-1312.77 L 143.056,-1312.71 L 143.266,-1312.63 L 143.464,-1312.52
 L 143.647,-1312.39 L 143.812,-1312.23 L 143.956,-1312.06 L 144.077,-1311.87 L 144.174,-1311.66 L 144.243,-1311.45
 L 144.286,-1311.23 L 144.3,-1311 L 144.286,-1310.77 L 144.243,-1310.55 L 144.174,-1310.34 L 144.077,-1310.13
 L 143.956,-1309.94 L 143.812,-1309.77 L 143.647,-1309.61 L 143.464,-1309.48 L 143.266,-1309.37 L 143.056,-1309.29
 L 142.837,-1309.23 L 142.613,-1309.2 z
M -142.613,-1309.2 L -142.837,-1309.23 L -143.056,-1309.29 L -143.266,-1309.37 L -143.464,-1309.48 L -143.647,-1309.61
 L -143.812,-1309.77 L -143.956,-1309.94 L -144.077,-1310.13 L -144.174,-1310.34 L -144.243,-1310.55 L -144.286,-1310.77
 L -144.3,-1311 L -144.286,-1311.23 L -144.243,-1311.45 L -144.174,-1311.66 L -144.077,-1311.87 L -143.956,-1312.06
 L -143.812,-1312.23 L -143.647,-1312.39 L -143.464,-1312.52 L -143.266,-1312.63 L -143.056,-1312.71 L -142.837,-1312.77
 L -142.613,-1312.8 L -142.387,-1312.8 L -142.163,-1312.77 L -141.944,-1312.71 L -141.734,-1312.63 L -141.536,-1312.52
 L -141.353,-1312.39 L -141.188,-1312.23 L -141.044,-1312.06 L -140.923,-1311.87 L -140.826,-1311.66 L -140.757,-1311.45
 L -140.714,-1311.23 L -140.7,-1311 L -140.714,-1310.77 L -140.757,-1310.55 L -140.826,-1310.34 L -140.923,-1310.13
 L -141.044,-1309.94 L -141.188,-1309.77 L -141.353,-1309.61 L -141.536,-1309.48 L -141.734,-1309.37 L -141.944,-1309.29
 L -142.163,-1309.23 L -142.387,-1309.2 z
M -142.613,-1039.2 L -142.837,-1039.23 L -143.056,-1039.29 L -143.266,-1039.37 L -143.464,-1039.48 L -143.647,-1039.61
 L -143.812,-1039.77 L -143.956,-1039.94 L -144.077,-1040.13 L -144.174,-1040.34 L -144.243,-1040.55 L -144.286,-1040.77
 L -144.3,-1041 L -144.286,-1041.23 L -144.243,-1041.45 L -144.174,-1041.66 L -144.077,-1041.87 L -143.956,-1042.06
 L -143.812,-1042.23 L -143.647,-1042.39 L -143.464,-1042.52 L -143.266,-1042.63 L -143.056,-1042.71 L -142.837,-1042.77
 L -142.613,-1042.8 L -142.387,-1042.8 L -142.163,-1042.77 L -141.944,-1042.71 L -141.734,-1042.63 L -141.536,-1042.52
 L -141.353,-1042.39 L -141.188,-1042.23 L -141.044,-1042.06 L -140.923,-1041.87 L -140.826,-1041.66 L -140.757,-1041.45
 L -140.714,-1041.23 L -140.7,-1041 L -140.714,-1040.77 L -140.757,-1040.55 L -140.826,-1040.34 L -140.923,-1040.13
 L -141.044,-1039.94 L -141.188,-1039.77 L -141.353,-1039.61 L -141.536,-1039.48 L -141.734,-1039.37 L -141.944,-1039.29
 L -142.163,-1039.23 L -142.387,-1039.2 z
M 142.387,-1039.2 L 142.163,-1039.23 L 141.944,-1039.29 L 141.734,-1039.37 L 141.536,-1039.48 L 141.353,-1039.61
 L 141.188,-1039.77 L 141.044,-1039.94 L 140.923,-1040.13 L 140.826,-1040.34 L 140.757,-1040.55 L 140.714,-1040.77
 L 140.7,-1041 L 140.714,-1041.23 L 140.757,-1041.45 L 140.826,-1041.66 L 140.923,-1041.87 L 141.044,-1042.06
 L 141.188,-1042.23 L 141.353,-1042.39 L 141.536,-1042.52 L 141.734,-1042.63 L 141.944,-1042.71 L 142.163,-1042.77
 L 142.387,-1042.8 L 142.613,-1042.8 L 142.837,-1042.77 L 143.056,-1042.71 L 143.266,-1042.63 L 143.464,-1042.52
 L 143.647,-1042.39 L 143.812,-1042.23 L 143.956,-1042.06 L 144.077,-1041.87 L 144.174,-1041.66 L 144.243,-1041.45
 L 144.286,-1041.23 L 144.3,-1041 L 144.286,-1040.77 L 144.243,-1040.55 L 144.174,-1040.34 L 144.077,-1040.13
 L 143.956,-1039.94 L 143.812,-1039.77 L 143.647,-1039.61 L 143.464,-1039.48 L 143.266,-1039.37 L 143.056,-1039.29
 L 142.837,-1039.23 L 142.613,-1039.2 z
" stroke="black" fill="lightgray" stroke-width="0.5"/>
</svg>
