<?xml version="1.0" standalone="no"?>
<!DOCTYPE svg PUBLIC "-//W3C//DTD SVG 1.1//EN" "http://www.w3.org/Graphics/SVG/1.1/DTD/svg11.dtd">
<svg width="257mm" height="154mm" viewBox="-129 -239 257 154" xmlns="http://www.w3.org/2000/svg" version="1.1">
<title>OpenSCAD Model</title>
<path d="
M -126,-194.941 L -125.687,-194.647 L -125.179,-194.278 L -124.629,-193.976 L -124.045,-193.745 L -123.437,-193.589
 L -122.814,-193.51 L 122.814,-193.51 L 123.437,-193.589 L 124.045,-193.745 L 124.629,-193.976 L 125.179,-194.278
 L 125.687,-194.647 L 126.145,-195.077 L 126.545,-195.561 L 126.882,-196.091 L 127.149,-196.659 L 127.343,-197.257
 L 127.461,-197.873 L 127.5,-198.5 L 127.5,-233.5 L 127.461,-234.127 L 127.343,-234.743 L 127.149,-235.341
 L 126.882,-235.909 L 126.545,-236.439 L 126.145,-236.923 L 125.687,-237.353 L 125.179,-237.722 L 124.629,-238.024
 L 124.045,-238.255 L 123.437,-238.411 L 122.814,-238.49 L -122.814,-238.49 L -123.437,-238.411 L -124.045,-238.255
 L -124.629,-238.024 L -125.179,-237.722 L -125.687,-237.353 L -126,-237.059 L -126,-238.49 L -129,-238.49
 L -129,-193.51 L -126,-193.51 z
M -122.243,-195.135 L -122.726,-195.196 L -123.197,-195.317 L -123.649,-195.496 L -124.075,-195.73 L -124.469,-196.016
 L -124.823,-196.349 L -125.133,-196.724 L -125.394,-197.134 L -125.601,-197.574 L -125.751,-198.037 L -125.842,-198.515
 L -125.873,-199 L -125.873,-233 L -125.842,-233.485 L -125.751,-233.963 L -125.601,-234.426 L -125.394,-234.866
 L -125.133,-235.276 L -124.823,-235.651 L -124.469,-235.984 L -124.075,-236.27 L -123.649,-236.504 L -123.197,-236.683
 L -122.726,-236.804 L -122.243,-236.865 L 122.243,-236.865 L 122.726,-236.804 L 123.197,-236.683 L 123.649,-236.504
 L 124.075,-236.27 L 124.469,-235.984 L 124.823,-235.651 L 125.133,-235.276 L 125.394,-234.866 L 125.601,-234.426
 L 125.751,-233.963 L 125.842,-233.485 L 125.873,-233 L 125.873,-199 L 125.842,-198.515 L 125.751,-198.037
 L 125.601,-197.574 L 125.394,-197.134 L 125.133,-196.724 L 124.823,-196.349 L 124.469,-196.016 L 124.075,-195.73
 L 123.649,-195.496 L 123.197,-195.317 L 122.726,-195.196 L 122.243,-195.135 z
M 123.437,-139.589 L 124.045,-139.745 L 124.629,-139.976 L 125.179,-140.278 L 125.687,-140.647 L 126.145,-141.077
 L 126.545,-141.561 L 126.882,-142.091 L 127.149,-142.659 L 127.343,-143.257 L 127.461,-143.873 L 127.5,-144.5
 L 127.5,-179.5 L 127.461,-180.127 L 127.343,-180.743 L 127.149,-181.341 L 126.882,-181.909 L 126.545,-182.439
 L 126.145,-182.923 L 125.687,-183.353 L 125.179,-183.722 L 124.629,-184.024 L 124.045,-184.255 L 123.437,-184.411
 L 122.814,-184.49 L -122.814,-184.49 L -123.437,-184.411 L -124.045,-184.255 L -124.629,-184.024 L -125.179,-183.722
 L -125.687,-183.353 L -126,-183.059 L -126,-184.115 L -129,-184.115 L -129,-139.885 L -126,-139.885
 L -126,-140.941 L -125.687,-140.647 L -125.179,-140.278 L -124.629,-139.976 L -124.045,-139.745 L -123.437,-139.589
 L -122.814,-139.51 L 122.814,-139.51 z
M 119.849,-174.605 L 119.55,-174.643 L 119.258,-174.717 L 118.978,-174.828 L 118.714,-174.974 L 118.47,-175.151
 L 118.25,-175.357 L 118.058,-175.589 L 117.897,-175.844 L 117.769,-176.117 L 117.675,-176.403 L 117.619,-176.699
 L 117.6,-177 L 117.619,-177.301 L 117.675,-177.597 L 117.769,-177.883 L 117.897,-178.156 L 118.058,-178.411
 L 118.25,-178.643 L 118.47,-178.849 L 118.714,-179.026 L 118.978,-179.172 L 119.258,-179.283 L 119.55,-179.357
 L 119.849,-179.395 L 120.151,-179.395 L 120.45,-179.357 L 120.742,-179.283 L 121.022,-179.172 L 121.286,-179.026
 L 121.53,-178.849 L 121.75,-178.643 L 121.942,-178.411 L 122.103,-178.156 L 122.231,-177.883 L 122.325,-177.597
 L 122.381,-177.301 L 122.4,-177 L 122.381,-176.699 L 122.325,-176.403 L 122.231,-176.117 L 122.103,-175.844
 L 121.942,-175.589 L 121.75,-175.357 L 121.53,-175.151 L 121.286,-174.974 L 121.022,-174.828 L 120.742,-174.717
 L 120.45,-174.643 L 120.151,-174.605 z
M -120.151,-174.605 L -120.45,-174.643 L -120.742,-174.717 L -121.022,-174.828 L -121.286,-174.974 L -121.53,-175.151
 L -121.75,-175.357 L -121.942,-175.589 L -122.103,-175.844 L -122.231,-176.117 L -122.325,-176.403 L -122.381,-176.699
 L -122.4,-177 L -122.381,-177.301 L -122.325,-177.597 L -122.231,-177.883 L -122.103,-178.156 L -121.942,-178.411
 L -121.75,-178.643 L -121.53,-178.849 L -121.286,-179.026 L -121.022,-179.172 L -120.742,-179.283 L -120.45,-179.357
 L -120.151,-179.395 L -119.849,-179.395 L -119.55,-179.357 L -119.258,-179.283 L -118.978,-179.172 L -118.714,-179.026
 L -118.47,-178.849 L -118.25,-178.643 L -118.058,-178.411 L -117.897,-178.156 L -117.769,-177.883 L -117.675,-177.597
 L -117.619,-177.301 L -117.6,-177 L -117.619,-176.699 L -117.675,-176.403 L -117.769,-176.117 L -117.897,-175.844
 L -118.058,-175.589 L -118.25,-175.357 L -118.47,-175.151 L -118.714,-174.974 L -118.978,-174.828 L -119.258,-174.717
 L -119.55,-174.643 L -119.849,-174.605 z
M 119.849,-144.605 L 119.55,-144.643 L 119.258,-144.717 L 118.978,-144.828 L 118.714,-144.974 L 118.47,-145.151
 L 118.25,-145.357 L 118.058,-145.589 L 117.897,-145.844 L 117.769,-146.117 L 117.675,-146.403 L 117.619,-146.699
 L 117.6,-147 L 117.619,-147.301 L 117.675,-147.597 L 117.769,-147.883 L 117.897,-148.156 L 118.058,-148.411
 L 118.25,-148.643 L 118.47,-148.849 L 118.714,-149.026 L 118.978,-149.172 L 119.258,-149.283 L 119.55,-149.357
 L 119.849,-149.395 L 120.151,-149.395 L 120.45,-149.357 L 120.742,-149.283 L 121.022,-149.172 L 121.286,-149.026
 L 121.53,-148.849 L 121.75,-148.643 L 121.942,-148.411 L 122.103,-148.156 L 122.231,-147.883 L 122.325,-147.597
 L 122.381,-147.301 L 122.4,-147 L 122.381,-146.699 L 122.325,-146.403 L 122.231,-146.117 L 122.103,-145.844
 L 121.942,-145.589 L 121.75,-145.357 L 121.53,-145.151 L 121.286,-144.974 L 121.022,-144.828 L 120.742,-144.717
 L 120.45,-144.643 L 120.151,-144.605 z
M -120.151,-144.605 L -120.45,-144.643 L -120.742,-144.717 L -121.022,-144.828 L -121.286,-144.974 L -121.53,-145.151
 L -121.75,-145.357 L -121.942,-145.589 L -122.103,-145.844 L -122.231,-146.117 L -122.325,-146.403 L -122.381,-146.699
 L -122.4,-147 L -122.381,-147.301 L -122.325,-147.597 L -122.231,-147.883 L -122.103,-148.156 L -121.942,-148.411
 L -121.75,-148.643 L -121.53,-148.849 L -121.286,-149.026 L -121.022,-149.172 L -120.742,-149.283 L -120.45,-149.357
 L -120.151,-149.395 L -119.849,-149.395 L -119.55,-149.357 L -119.258,-149.283 L -118.978,-149.172 L -118.714,-149.026
 L -118.47,-148.849 L -118.25,-148.643 L -118.058,-148.411 L -117.897,-148.156 L -117.769,-147.883 L -117.675,-147.597
 L -117.619,-147.301 L -117.6,-147 L -117.619,-146.699 L -117.675,-146.403 L -117.769,-146.117 L -117.897,-145.844
 L -118.058,-145.589 L -118.25,-145.357 L -118.47,-145.151 L -118.714,-144.974 L -118.978,-144.828 L -119.258,-144.717
 L -119.55,-144.643 L -119.849,-144.605 z
M 123.437,-85.5886 L 124.045,-85.7447 L 124.629,-85.9759 L 125.179,-86.2784 L 125.687,-86.6474 L 126.145,-87.0773
 L 126.545,-87.5611 L 126.882,-88.0912 L 127.149,-88.6594 L 127.343,-89.2566 L 127.461,-89.8733 L 127.5,-90.5
 L 127.5,-125.5 L 127.461,-126.127 L 127.343,-126.743 L 127.149,-127.341 L 126.882,-127.909 L 126.545,-128.439
 L 126.145,-128.923 L 125.687,-129.353 L 125.179,-129.722 L 124.629,-130.024 L 124.045,-130.255 L 123.437,-130.411
 L 122.814,-130.49 L -122.814,-130.49 L -123.437,-130.411 L -124.045,-130.255 L -124.629,-130.024 L -125.179,-129.722
 L -125.687,-129.353 L -126.145,-128.923 L -126.545,-128.439 L -126.882,-127.909 L -127.149,-127.341 L -127.343,-126.743
 L -127.4,-126.444 L -129,-126.444 L -129,-89.5558 L -127.4,-89.5558 L -127.343,-89.2566 L -127.149,-88.6594
 L -126.882,-88.0912 L -126.545,-87.5611 L -126.145,-87.0773 L -125.687,-86.6474 L -125.179,-86.2784 L -124.629,-85.9759
 L -124.045,-85.7447 L -123.437,-85.5886 L -122.814,-85.5099 L 122.814,-85.5099 z
M 119.887,-121.204 L 119.663,-121.232 L 119.444,-121.288 L 119.234,-121.371 L 119.036,-121.48 L 118.853,-121.613
 L 118.688,-121.768 L 118.544,-121.942 L 118.423,-122.133 L 118.326,-122.337 L 118.257,-122.552 L 118.214,-122.774
 L 118.2,-123 L 118.214,-123.226 L 118.257,-123.448 L 118.326,-123.663 L 118.423,-123.867 L 118.544,-124.058
 L 118.688,-124.232 L 118.853,-124.387 L 119.036,-124.52 L 119.234,-124.629 L 119.444,-124.712 L 119.663,-124.768
 L 119.887,-124.796 L 120.113,-124.796 L 120.337,-124.768 L 120.556,-124.712 L 120.766,-124.629 L 120.964,-124.52
 L 121.147,-124.387 L 121.312,-124.232 L 121.456,-124.058 L 121.577,-123.867 L 121.674,-123.663 L 121.743,-123.448
 L 121.786,-123.226 L 121.8,-123 L 121.786,-122.774 L 121.743,-122.552 L 121.674,-122.337 L 121.577,-122.133
 L 121.456,-121.942 L 121.312,-121.768 L 121.147,-121.613 L 120.964,-121.48 L 120.766,-121.371 L 120.556,-121.288
 L 120.337,-121.232 L 120.113,-121.204 z
M -120.113,-121.204 L -120.337,-121.232 L -120.556,-121.288 L -120.766,-121.371 L -120.964,-121.48 L -121.147,-121.613
 L -121.312,-121.768 L -121.456,-121.942 L -121.577,-122.133 L -121.674,-122.337 L -121.743,-122.552 L -121.786,-122.774
 L -121.8,-123 L -121.786,-123.226 L -121.743,-123.448 L -121.674,-123.663 L -121.577,-123.867 L -121.456,-124.058
 L -121.312,-124.232 L -121.147,-124.387 L -120.964,-124.52 L -120.766,-124.629 L -120.556,-124.712 L -120.337,-124.768
 L -120.113,-124.796 L -119.887,-124.796 L -119.663,-124.768 L -119.444,-124.712 L -119.234,-124.629 L -119.036,-124.52
 L -118.853,-124.387 L -118.688,-124.232 L -118.544,-124.058 L -118.423,-123.867 L -118.326,-123.663 L -118.257,-123.448
 L -118.214,-123.226 L -118.2,-123 L -118.214,-122.774 L -118.257,-122.552 L -118.326,-122.337 L -118.423,-122.133
 L -118.544,-121.942 L -118.688,-121.768 L -118.853,-121.613 L -119.036,-121.48 L -119.234,-121.371 L -119.444,-121.288
 L -119.663,-121.232 L -119.887,-121.204 z
M -120.113,-91.2036 L -120.337,-91.2319 L -120.556,-91.2881 L -120.766,-91.3713 L -120.964,-91.4802 L -121.147,-91.6131
 L -121.312,-91.7678 L -121.456,-91.942 L -121.577,-92.1329 L -121.674,-92.3374 L -121.743,-92.5524 L -121.786,-92.7744
 L -121.8,-93 L -121.786,-93.2256 L -121.743,-93.4476 L -121.674,-93.6626 L -121.577,-93.8672 L -121.456,-94.058
 L -121.312,-94.2322 L -121.147,-94.3869 L -120.964,-94.5198 L -120.766,-94.6287 L -120.556,-94.7119 L -120.337,-94.7681
 L -120.113,-94.7964 L -119.887,-94.7964 L -119.663,-94.7681 L -119.444,-94.7119 L -119.234,-94.6287 L -119.036,-94.5198
 L -118.853,-94.3869 L -118.688,-94.2322 L -118.544,-94.058 L -118.423,-93.8672 L -118.326,-93.6626 L -118.257,-93.4476
 L -118.214,-93.2256 L -118.2,-93 L -118.214,-92.7744 L -118.257,-92.5524 L -118.326,-92.3374 L -118.423,-92.1329
 L -118.544,-91.942 L -118.688,-91.7678 L -118.853,-91.6131 L -119.036,-91.4802 L -119.234,-91.3713 L -119.444,-91.2881
 L -119.663,-91.2319 L -119.887,-91.2036 z
M 119.887,-91.2036 L 119.663,-91.2319 L 119.444,-91.2881 L 119.234,-91.3713 L 119.036,-91.4802 L 118.853,-91.6131
 L 118.688,-91.7678 L 118.544,-91.942 L 118.423,-92.1329 L 118.326,-92.3374 L 118.257,-92.5524 L 118.214,-92.7744
 L 118.2,-93 L 118.214,-93.2256 L 118.257,-93.4476 L 118.326,-93.6626 L 118.423,-93.8672 L 118.544,-94.058
 L 118.688,-94.2322 L 118.853,-94.3869 L 119.036,-94.5198 L 119.234,-94.6287 L 119.444,-94.7119 L 119.663,-94.7681
 L 119.887,-94.7964 L 120.113,-94.7964 L 120.337,-94.7681 L 120.556,-94.7119 L 120.766,-94.6287 L 120.964,-94.5198
 L 121.147,-94.3869 L 121.312,-94.2322 L 121.456,-94.058 L 121.577,-93.8672 L 121.674,-93.6626 L 121.743,-93.4476
 L 121.786,-93.2256 L 121.8,-93 L 121.786,-92.7744 L 121.743,-92.5524 L 121.674,-92.3374 L 121.577,-92.1329
 L 121.456,-91.942 L 121.312,-91.7678 L 121.147,-91.6131 L 120.964,-91.4802 L 120.766,-91.3713 L 120.556,-91.2881
 L 120.337,-91.2319 L 120.113,-91.2036 z
" stroke="black" fill="lightgray" stroke-width="0.5"/>
</svg>
