  0
SECTION
  2
BLOCKS
  0
ENDSEC
  0
SECTION
  2
ENTITIES
  0
LINE
  8
0
 10
-141
 20
1102.44
 11
-140.687
 21
1102.15
  0
LINE
  8
0
 10
-140.687
 20
1102.15
 11
-140.179
 21
1101.78
  0
LINE
  8
0
 10
-140.179
 20
1101.78
 11
-139.629
 21
1101.48
  0
LINE
  8
0
 10
-139.629
 20
1101.48
 11
-139.045
 21
1101.24
  0
LINE
  8
0
 10
-139.045
 20
1101.24
 11
-138.437
 21
1101.09
  0
LINE
  8
0
 10
-138.437
 20
1101.09
 11
-137.814
 21
1101.01
  0
LINE
  8
0
 10
-137.814
 20
1101.01
 11
137.814
 21
1101.01
  0
LINE
  8
0
 10
137.814
 20
1101.01
 11
138.437
 21
1101.09
  0
LINE
  8
0
 10
138.437
 20
1101.09
 11
139.045
 21
1101.24
  0
LINE
  8
0
 10
139.045
 20
1101.24
 11
139.629
 21
1101.48
  0
LINE
  8
0
 10
139.629
 20
1101.48
 11
140.179
 21
1101.78
  0
LINE
  8
0
 10
140.179
 20
1101.78
 11
140.687
 21
1102.15
  0
LINE
  8
0
 10
140.687
 20
1102.15
 11
141.145
 21
1102.58
  0
LINE
  8
0
 10
141.145
 20
1102.58
 11
141.545
 21
1103.06
  0
LINE
  8
0
 10
141.545
 20
1103.06
 11
141.882
 21
1103.59
  0
LINE
  8
0
 10
141.882
 20
1103.59
 11
142.149
 21
1104.16
  0
LINE
  8
0
 10
142.149
 20
1104.16
 11
142.343
 21
1104.76
  0
LINE
  8
0
 10
142.343
 20
1104.76
 11
142.461
 21
1105.37
  0
LINE
  8
0
 10
142.461
 20
1105.37
 11
142.5
 21
1106
  0
LINE
  8
0
 10
142.5
 20
1106
 11
142.5
 21
1216
  0
LINE
  8
0
 10
142.5
 20
1216
 11
142.461
 21
1216.63
  0
LINE
  8
0
 10
142.461
 20
1216.63
 11
142.343
 21
1217.24
  0
LINE
  8
0
 10
142.343
 20
1217.24
 11
142.149
 21
1217.84
  0
LINE
  8
0
 10
142.149
 20
1217.84
 11
141.882
 21
1218.41
  0
LINE
  8
0
 10
141.882
 20
1218.41
 11
141.545
 21
1218.94
  0
LINE
  8
0
 10
141.545
 20
1218.94
 11
141.145
 21
1219.42
  0
LINE
  8
0
 10
141.145
 20
1219.42
 11
140.687
 21
1219.85
  0
LINE
  8
0
 10
140.687
 20
1219.85
 11
140.179
 21
1220.22
  0
LINE
  8
0
 10
140.179
 20
1220.22
 11
139.629
 21
1220.52
  0
LINE
  8
0
 10
139.629
 20
1220.52
 11
139.045
 21
1220.76
  0
LINE
  8
0
 10
139.045
 20
1220.76
 11
138.437
 21
1220.91
  0
LINE
  8
0
 10
138.437
 20
1220.91
 11
137.814
 21
1220.99
  0
LINE
  8
0
 10
137.814
 20
1220.99
 11
-137.814
 21
1220.99
  0
LINE
  8
0
 10
-137.814
 20
1220.99
 11
-138.437
 21
1220.91
  0
LINE
  8
0
 10
-138.437
 20
1220.91
 11
-139.045
 21
1220.76
  0
LINE
  8
0
 10
-139.045
 20
1220.76
 11
-139.629
 21
1220.52
  0
LINE
  8
0
 10
-139.629
 20
1220.52
 11
-140.179
 21
1220.22
  0
LINE
  8
0
 10
-140.179
 20
1220.22
 11
-140.687
 21
1219.85
  0
LINE
  8
0
 10
-140.687
 20
1219.85
 11
-141
 21
1219.56
  0
LINE
  8
0
 10
-141
 20
1219.56
 11
-141
 21
1220.99
  0
LINE
  8
0
 10
-141
 20
1220.99
 11
-144
 21
1220.99
  0
LINE
  8
0
 10
-144
 20
1220.99
 11
-144
 21
1101.01
  0
LINE
  8
0
 10
-144
 20
1101.01
 11
-141
 21
1101.01
  0
LINE
  8
0
 10
-141
 20
1101.01
 11
-141
 21
1102.44
  0
LINE
  8
0
 10
-137.251
 20
1102.51
 11
-137.75
 21
1102.57
  0
LINE
  8
0
 10
-137.75
 20
1102.57
 11
-138.236
 21
1102.7
  0
LINE
  8
0
 10
-138.236
 20
1102.7
 11
-138.703
 21
1102.88
  0
LINE
  8
0
 10
-138.703
 20
1102.88
 11
-139.143
 21
1103.12
  0
LINE
  8
0
 10
-139.143
 20
1103.12
 11
-139.55
 21
1103.42
  0
LINE
  8
0
 10
-139.55
 20
1103.42
 11
-139.916
 21
1103.76
  0
LINE
  8
0
 10
-139.916
 20
1103.76
 11
-140.236
 21
1104.15
  0
LINE
  8
0
 10
-140.236
 20
1104.15
 11
-140.505
 21
1104.57
  0
LINE
  8
0
 10
-140.505
 20
1104.57
 11
-140.719
 21
1105.03
  0
LINE
  8
0
 10
-140.719
 20
1105.03
 11
-140.874
 21
1105.51
  0
LINE
  8
0
 10
-140.874
 20
1105.51
 11
-140.968
 21
1106
  0
LINE
  8
0
 10
-140.968
 20
1106
 11
-141
 21
1106.5
  0
LINE
  8
0
 10
-141
 20
1106.5
 11
-141
 21
1215.5
  0
LINE
  8
0
 10
-141
 20
1215.5
 11
-140.968
 21
1216
  0
LINE
  8
0
 10
-140.968
 20
1216
 11
-140.874
 21
1216.49
  0
LINE
  8
0
 10
-140.874
 20
1216.49
 11
-140.719
 21
1216.97
  0
LINE
  8
0
 10
-140.719
 20
1216.97
 11
-140.505
 21
1217.43
  0
LINE
  8
0
 10
-140.505
 20
1217.43
 11
-140.236
 21
1217.85
  0
LINE
  8
0
 10
-140.236
 20
1217.85
 11
-139.916
 21
1218.24
  0
LINE
  8
0
 10
-139.916
 20
1218.24
 11
-139.55
 21
1218.58
  0
LINE
  8
0
 10
-139.55
 20
1218.58
 11
-139.143
 21
1218.88
  0
LINE
  8
0
 10
-139.143
 20
1218.88
 11
-138.703
 21
1219.12
  0
LINE
  8
0
 10
-138.703
 20
1219.12
 11
-138.236
 21
1219.3
  0
LINE
  8
0
 10
-138.236
 20
1219.3
 11
-137.75
 21
1219.43
  0
LINE
  8
0
 10
-137.75
 20
1219.43
 11
-137.251
 21
1219.49
  0
LINE
  8
0
 10
-137.251
 20
1219.49
 11
137.251
 21
1219.49
  0
LINE
  8
0
 10
137.251
 20
1219.49
 11
137.75
 21
1219.43
  0
LINE
  8
0
 10
137.75
 20
1219.43
 11
138.236
 21
1219.3
  0
LINE
  8
0
 10
138.236
 20
1219.3
 11
138.703
 21
1219.12
  0
LINE
  8
0
 10
138.703
 20
1219.12
 11
139.143
 21
1218.88
  0
LINE
  8
0
 10
139.143
 20
1218.88
 11
139.55
 21
1218.58
  0
LINE
  8
0
 10
139.55
 20
1218.58
 11
139.916
 21
1218.24
  0
LINE
  8
0
 10
139.916
 20
1218.24
 11
140.236
 21
1217.85
  0
LINE
  8
0
 10
140.236
 20
1217.85
 11
140.505
 21
1217.43
  0
LINE
  8
0
 10
140.505
 20
1217.43
 11
140.719
 21
1216.97
  0
LINE
  8
0
 10
140.719
 20
1216.97
 11
140.874
 21
1216.49
  0
LINE
  8
0
 10
140.874
 20
1216.49
 11
140.968
 21
1216
  0
LINE
  8
0
 10
140.968
 20
1216
 11
141
 21
1215.5
  0
LINE
  8
0
 10
141
 20
1215.5
 11
141
 21
1106.5
  0
LINE
  8
0
 10
141
 20
1106.5
 11
140.968
 21
1106
  0
LINE
  8
0
 10
140.968
 20
1106
 11
140.874
 21
1105.51
  0
LINE
  8
0
 10
140.874
 20
1105.51
 11
140.719
 21
1105.03
  0
LINE
  8
0
 10
140.719
 20
1105.03
 11
140.505
 21
1104.57
  0
LINE
  8
0
 10
140.505
 20
1104.57
 11
140.236
 21
1104.15
  0
LINE
  8
0
 10
140.236
 20
1104.15
 11
139.916
 21
1103.76
  0
LINE
  8
0
 10
139.916
 20
1103.76
 11
139.55
 21
1103.42
  0
LINE
  8
0
 10
139.55
 20
1103.42
 11
139.143
 21
1103.12
  0
LINE
  8
0
 10
139.143
 20
1103.12
 11
138.703
 21
1102.88
  0
LINE
  8
0
 10
138.703
 20
1102.88
 11
138.236
 21
1102.7
  0
LINE
  8
0
 10
138.236
 20
1102.7
 11
137.75
 21
1102.57
  0
LINE
  8
0
 10
137.75
 20
1102.57
 11
137.251
 21
1102.51
  0
LINE
  8
0
 10
137.251
 20
1102.51
 11
-137.251
 21
1102.51
  0
LINE
  8
0
 10
-141
 20
973.441
 11
-140.687
 21
973.147
  0
LINE
  8
0
 10
-140.687
 20
973.147
 11
-140.179
 21
972.778
  0
LINE
  8
0
 10
-140.179
 20
972.778
 11
-139.629
 21
972.476
  0
LINE
  8
0
 10
-139.629
 20
972.476
 11
-139.045
 21
972.245
  0
LINE
  8
0
 10
-139.045
 20
972.245
 11
-138.437
 21
972.089
  0
LINE
  8
0
 10
-138.437
 20
972.089
 11
-137.814
 21
972.01
  0
LINE
  8
0
 10
-137.814
 20
972.01
 11
137.814
 21
972.01
  0
LINE
  8
0
 10
137.814
 20
972.01
 11
138.437
 21
972.089
  0
LINE
  8
0
 10
138.437
 20
972.089
 11
139.045
 21
972.245
  0
LINE
  8
0
 10
139.045
 20
972.245
 11
139.629
 21
972.476
  0
LINE
  8
0
 10
139.629
 20
972.476
 11
140.179
 21
972.778
  0
LINE
  8
0
 10
140.179
 20
972.778
 11
140.687
 21
973.147
  0
LINE
  8
0
 10
140.687
 20
973.147
 11
141.145
 21
973.577
  0
LINE
  8
0
 10
141.145
 20
973.577
 11
141.545
 21
974.061
  0
LINE
  8
0
 10
141.545
 20
974.061
 11
141.882
 21
974.591
  0
LINE
  8
0
 10
141.882
 20
974.591
 11
142.149
 21
975.159
  0
LINE
  8
0
 10
142.149
 20
975.159
 11
142.343
 21
975.757
  0
LINE
  8
0
 10
142.343
 20
975.757
 11
142.461
 21
976.373
  0
LINE
  8
0
 10
142.461
 20
976.373
 11
142.5
 21
977
  0
LINE
  8
0
 10
142.5
 20
977
 11
142.5
 21
1087
  0
LINE
  8
0
 10
142.5
 20
1087
 11
142.461
 21
1087.63
  0
LINE
  8
0
 10
142.461
 20
1087.63
 11
142.343
 21
1088.24
  0
LINE
  8
0
 10
142.343
 20
1088.24
 11
142.149
 21
1088.84
  0
LINE
  8
0
 10
142.149
 20
1088.84
 11
141.882
 21
1089.41
  0
LINE
  8
0
 10
141.882
 20
1089.41
 11
141.545
 21
1089.94
  0
LINE
  8
0
 10
141.545
 20
1089.94
 11
141.145
 21
1090.42
  0
LINE
  8
0
 10
141.145
 20
1090.42
 11
140.687
 21
1090.85
  0
LINE
  8
0
 10
140.687
 20
1090.85
 11
140.179
 21
1091.22
  0
LINE
  8
0
 10
140.179
 20
1091.22
 11
139.629
 21
1091.52
  0
LINE
  8
0
 10
139.629
 20
1091.52
 11
139.045
 21
1091.76
  0
LINE
  8
0
 10
139.045
 20
1091.76
 11
138.437
 21
1091.91
  0
LINE
  8
0
 10
138.437
 20
1091.91
 11
137.814
 21
1091.99
  0
LINE
  8
0
 10
137.814
 20
1091.99
 11
-137.814
 21
1091.99
  0
LINE
  8
0
 10
-137.814
 20
1091.99
 11
-138.437
 21
1091.91
  0
LINE
  8
0
 10
-138.437
 20
1091.91
 11
-139.045
 21
1091.76
  0
LINE
  8
0
 10
-139.045
 20
1091.76
 11
-139.629
 21
1091.52
  0
LINE
  8
0
 10
-139.629
 20
1091.52
 11
-140.179
 21
1091.22
  0
LINE
  8
0
 10
-140.179
 20
1091.22
 11
-140.687
 21
1090.85
  0
LINE
  8
0
 10
-140.687
 20
1090.85
 11
-141
 21
1090.56
  0
LINE
  8
0
 10
-141
 20
1090.56
 11
-141
 21
1091.99
  0
LINE
  8
0
 10
-141
 20
1091.99
 11
-144
 21
1091.99
  0
LINE
  8
0
 10
-144
 20
1091.99
 11
-144
 21
972.01
  0
LINE
  8
0
 10
-144
 20
972.01
 11
-141
 21
972.01
  0
LINE
  8
0
 10
-141
 20
972.01
 11
-141
 21
973.441
  0
LINE
  8
0
 10
-137.251
 20
973.508
 11
-137.75
 21
973.571
  0
LINE
  8
0
 10
-137.75
 20
973.571
 11
-138.236
 21
973.696
  0
LINE
  8
0
 10
-138.236
 20
973.696
 11
-138.703
 21
973.881
  0
LINE
  8
0
 10
-138.703
 20
973.881
 11
-139.143
 21
974.123
  0
LINE
  8
0
 10
-139.143
 20
974.123
 11
-139.55
 21
974.418
  0
LINE
  8
0
 10
-139.55
 20
974.418
 11
-139.916
 21
974.762
  0
LINE
  8
0
 10
-139.916
 20
974.762
 11
-140.236
 21
975.149
  0
LINE
  8
0
 10
-140.236
 20
975.149
 11
-140.505
 21
975.573
  0
LINE
  8
0
 10
-140.505
 20
975.573
 11
-140.719
 21
976.028
  0
LINE
  8
0
 10
-140.719
 20
976.028
 11
-140.874
 21
976.505
  0
LINE
  8
0
 10
-140.874
 20
976.505
 11
-140.968
 21
976.999
  0
LINE
  8
0
 10
-140.968
 20
976.999
 11
-141
 21
977.5
  0
LINE
  8
0
 10
-141
 20
977.5
 11
-141
 21
1086.5
  0
LINE
  8
0
 10
-141
 20
1086.5
 11
-140.968
 21
1087
  0
LINE
  8
0
 10
-140.968
 20
1087
 11
-140.874
 21
1087.49
  0
LINE
  8
0
 10
-140.874
 20
1087.49
 11
-140.719
 21
1087.97
  0
LINE
  8
0
 10
-140.719
 20
1087.97
 11
-140.505
 21
1088.43
  0
LINE
  8
0
 10
-140.505
 20
1088.43
 11
-140.236
 21
1088.85
  0
LINE
  8
0
 10
-140.236
 20
1088.85
 11
-139.916
 21
1089.24
  0
LINE
  8
0
 10
-139.916
 20
1089.24
 11
-139.55
 21
1089.58
  0
LINE
  8
0
 10
-139.55
 20
1089.58
 11
-139.143
 21
1089.88
  0
LINE
  8
0
 10
-139.143
 20
1089.88
 11
-138.703
 21
1090.12
  0
LINE
  8
0
 10
-138.703
 20
1090.12
 11
-138.236
 21
1090.3
  0
LINE
  8
0
 10
-138.236
 20
1090.3
 11
-137.75
 21
1090.43
  0
LINE
  8
0
 10
-137.75
 20
1090.43
 11
-137.251
 21
1090.49
  0
LINE
  8
0
 10
-137.251
 20
1090.49
 11
137.251
 21
1090.49
  0
LINE
  8
0
 10
137.251
 20
1090.49
 11
137.75
 21
1090.43
  0
LINE
  8
0
 10
137.75
 20
1090.43
 11
138.236
 21
1090.3
  0
LINE
  8
0
 10
138.236
 20
1090.3
 11
138.703
 21
1090.12
  0
LINE
  8
0
 10
138.703
 20
1090.12
 11
139.143
 21
1089.88
  0
LINE
  8
0
 10
139.143
 20
1089.88
 11
139.55
 21
1089.58
  0
LINE
  8
0
 10
139.55
 20
1089.58
 11
139.916
 21
1089.24
  0
LINE
  8
0
 10
139.916
 20
1089.24
 11
140.236
 21
1088.85
  0
LINE
  8
0
 10
140.236
 20
1088.85
 11
140.505
 21
1088.43
  0
LINE
  8
0
 10
140.505
 20
1088.43
 11
140.719
 21
1087.97
  0
LINE
  8
0
 10
140.719
 20
1087.97
 11
140.874
 21
1087.49
  0
LINE
  8
0
 10
140.874
 20
1087.49
 11
140.968
 21
1087
  0
LINE
  8
0
 10
140.968
 20
1087
 11
141
 21
1086.5
  0
LINE
  8
0
 10
141
 20
1086.5
 11
141
 21
977.5
  0
LINE
  8
0
 10
141
 20
977.5
 11
140.968
 21
976.999
  0
LINE
  8
0
 10
140.968
 20
976.999
 11
140.874
 21
976.505
  0
LINE
  8
0
 10
140.874
 20
976.505
 11
140.719
 21
976.028
  0
LINE
  8
0
 10
140.719
 20
976.028
 11
140.505
 21
975.573
  0
LINE
  8
0
 10
140.505
 20
975.573
 11
140.236
 21
975.149
  0
LINE
  8
0
 10
140.236
 20
975.149
 11
139.916
 21
974.762
  0
LINE
  8
0
 10
139.916
 20
974.762
 11
139.55
 21
974.418
  0
LINE
  8
0
 10
139.55
 20
974.418
 11
139.143
 21
974.123
  0
LINE
  8
0
 10
139.143
 20
974.123
 11
138.703
 21
973.881
  0
LINE
  8
0
 10
138.703
 20
973.881
 11
138.236
 21
973.696
  0
LINE
  8
0
 10
138.236
 20
973.696
 11
137.75
 21
973.571
  0
LINE
  8
0
 10
137.75
 20
973.571
 11
137.251
 21
973.508
  0
LINE
  8
0
 10
137.251
 20
973.508
 11
-137.251
 21
973.508
  0
LINE
  8
0
 10
-141
 20
844.441
 11
-140.687
 21
844.147
  0
LINE
  8
0
 10
-140.687
 20
844.147
 11
-140.179
 21
843.778
  0
LINE
  8
0
 10
-140.179
 20
843.778
 11
-139.629
 21
843.476
  0
LINE
  8
0
 10
-139.629
 20
843.476
 11
-139.045
 21
843.245
  0
LINE
  8
0
 10
-139.045
 20
843.245
 11
-138.437
 21
843.089
  0
LINE
  8
0
 10
-138.437
 20
843.089
 11
-137.814
 21
843.01
  0
LINE
  8
0
 10
-137.814
 20
843.01
 11
137.814
 21
843.01
  0
LINE
  8
0
 10
137.814
 20
843.01
 11
138.437
 21
843.089
  0
LINE
  8
0
 10
138.437
 20
843.089
 11
139.045
 21
843.245
  0
LINE
  8
0
 10
139.045
 20
843.245
 11
139.629
 21
843.476
  0
LINE
  8
0
 10
139.629
 20
843.476
 11
140.179
 21
843.778
  0
LINE
  8
0
 10
140.179
 20
843.778
 11
140.687
 21
844.147
  0
LINE
  8
0
 10
140.687
 20
844.147
 11
141.145
 21
844.577
  0
LINE
  8
0
 10
141.145
 20
844.577
 11
141.545
 21
845.061
  0
LINE
  8
0
 10
141.545
 20
845.061
 11
141.882
 21
845.591
  0
LINE
  8
0
 10
141.882
 20
845.591
 11
142.149
 21
846.159
  0
LINE
  8
0
 10
142.149
 20
846.159
 11
142.343
 21
846.757
  0
LINE
  8
0
 10
142.343
 20
846.757
 11
142.461
 21
847.373
  0
LINE
  8
0
 10
142.461
 20
847.373
 11
142.5
 21
848
  0
LINE
  8
0
 10
142.5
 20
848
 11
142.5
 21
958
  0
LINE
  8
0
 10
142.5
 20
958
 11
142.461
 21
958.627
  0
LINE
  8
0
 10
142.461
 20
958.627
 11
142.343
 21
959.243
  0
LINE
  8
0
 10
142.343
 20
959.243
 11
142.149
 21
959.841
  0
LINE
  8
0
 10
142.149
 20
959.841
 11
141.882
 21
960.409
  0
LINE
  8
0
 10
141.882
 20
960.409
 11
141.545
 21
960.939
  0
LINE
  8
0
 10
141.545
 20
960.939
 11
141.145
 21
961.423
  0
LINE
  8
0
 10
141.145
 20
961.423
 11
140.687
 21
961.853
  0
LINE
  8
0
 10
140.687
 20
961.853
 11
140.179
 21
962.222
  0
LINE
  8
0
 10
140.179
 20
962.222
 11
139.629
 21
962.524
  0
LINE
  8
0
 10
139.629
 20
962.524
 11
139.045
 21
962.755
  0
LINE
  8
0
 10
139.045
 20
962.755
 11
138.437
 21
962.911
  0
LINE
  8
0
 10
138.437
 20
962.911
 11
137.814
 21
962.99
  0
LINE
  8
0
 10
137.814
 20
962.99
 11
-137.814
 21
962.99
  0
LINE
  8
0
 10
-137.814
 20
962.99
 11
-138.437
 21
962.911
  0
LINE
  8
0
 10
-138.437
 20
962.911
 11
-139.045
 21
962.755
  0
LINE
  8
0
 10
-139.045
 20
962.755
 11
-139.629
 21
962.524
  0
LINE
  8
0
 10
-139.629
 20
962.524
 11
-140.179
 21
962.222
  0
LINE
  8
0
 10
-140.179
 20
962.222
 11
-140.687
 21
961.853
  0
LINE
  8
0
 10
-140.687
 20
961.853
 11
-141
 21
961.559
  0
LINE
  8
0
 10
-141
 20
961.559
 11
-141
 21
962.99
  0
LINE
  8
0
 10
-141
 20
962.99
 11
-144
 21
962.99
  0
LINE
  8
0
 10
-144
 20
962.99
 11
-144
 21
843.01
  0
LINE
  8
0
 10
-144
 20
843.01
 11
-141
 21
843.01
  0
LINE
  8
0
 10
-141
 20
843.01
 11
-141
 21
844.441
  0
LINE
  8
0
 10
-137.251
 20
844.508
 11
-137.75
 21
844.571
  0
LINE
  8
0
 10
-137.75
 20
844.571
 11
-138.236
 21
844.696
  0
LINE
  8
0
 10
-138.236
 20
844.696
 11
-138.703
 21
844.881
  0
LINE
  8
0
 10
-138.703
 20
844.881
 11
-139.143
 21
845.123
  0
LINE
  8
0
 10
-139.143
 20
845.123
 11
-139.55
 21
845.418
  0
LINE
  8
0
 10
-139.55
 20
845.418
 11
-139.916
 21
845.762
  0
LINE
  8
0
 10
-139.916
 20
845.762
 11
-140.236
 21
846.149
  0
LINE
  8
0
 10
-140.236
 20
846.149
 11
-140.505
 21
846.573
  0
LINE
  8
0
 10
-140.505
 20
846.573
 11
-140.719
 21
847.028
  0
LINE
  8
0
 10
-140.719
 20
847.028
 11
-140.874
 21
847.505
  0
LINE
  8
0
 10
-140.874
 20
847.505
 11
-140.968
 21
847.999
  0
LINE
  8
0
 10
-140.968
 20
847.999
 11
-141
 21
848.5
  0
LINE
  8
0
 10
-141
 20
848.5
 11
-141
 21
957.5
  0
LINE
  8
0
 10
-141
 20
957.5
 11
-140.968
 21
958.001
  0
LINE
  8
0
 10
-140.968
 20
958.001
 11
-140.874
 21
958.495
  0
LINE
  8
0
 10
-140.874
 20
958.495
 11
-140.719
 21
958.972
  0
LINE
  8
0
 10
-140.719
 20
958.972
 11
-140.505
 21
959.427
  0
LINE
  8
0
 10
-140.505
 20
959.427
 11
-140.236
 21
959.851
  0
LINE
  8
0
 10
-140.236
 20
959.851
 11
-139.916
 21
960.238
  0
LINE
  8
0
 10
-139.916
 20
960.238
 11
-139.55
 21
960.582
  0
LINE
  8
0
 10
-139.55
 20
960.582
 11
-139.143
 21
960.877
  0
LINE
  8
0
 10
-139.143
 20
960.877
 11
-138.703
 21
961.119
  0
LINE
  8
0
 10
-138.703
 20
961.119
 11
-138.236
 21
961.304
  0
LINE
  8
0
 10
-138.236
 20
961.304
 11
-137.75
 21
961.429
  0
LINE
  8
0
 10
-137.75
 20
961.429
 11
-137.251
 21
961.492
  0
LINE
  8
0
 10
-137.251
 20
961.492
 11
137.251
 21
961.492
  0
LINE
  8
0
 10
137.251
 20
961.492
 11
137.75
 21
961.429
  0
LINE
  8
0
 10
137.75
 20
961.429
 11
138.236
 21
961.304
  0
LINE
  8
0
 10
138.236
 20
961.304
 11
138.703
 21
961.119
  0
LINE
  8
0
 10
138.703
 20
961.119
 11
139.143
 21
960.877
  0
LINE
  8
0
 10
139.143
 20
960.877
 11
139.55
 21
960.582
  0
LINE
  8
0
 10
139.55
 20
960.582
 11
139.916
 21
960.238
  0
LINE
  8
0
 10
139.916
 20
960.238
 11
140.236
 21
959.851
  0
LINE
  8
0
 10
140.236
 20
959.851
 11
140.505
 21
959.427
  0
LINE
  8
0
 10
140.505
 20
959.427
 11
140.719
 21
958.972
  0
LINE
  8
0
 10
140.719
 20
958.972
 11
140.874
 21
958.495
  0
LINE
  8
0
 10
140.874
 20
958.495
 11
140.968
 21
958.001
  0
LINE
  8
0
 10
140.968
 20
958.001
 11
141
 21
957.5
  0
LINE
  8
0
 10
141
 20
957.5
 11
141
 21
848.5
  0
LINE
  8
0
 10
141
 20
848.5
 11
140.968
 21
847.999
  0
LINE
  8
0
 10
140.968
 20
847.999
 11
140.874
 21
847.505
  0
LINE
  8
0
 10
140.874
 20
847.505
 11
140.719
 21
847.028
  0
LINE
  8
0
 10
140.719
 20
847.028
 11
140.505
 21
846.573
  0
LINE
  8
0
 10
140.505
 20
846.573
 11
140.236
 21
846.149
  0
LINE
  8
0
 10
140.236
 20
846.149
 11
139.916
 21
845.762
  0
LINE
  8
0
 10
139.916
 20
845.762
 11
139.55
 21
845.418
  0
LINE
  8
0
 10
139.55
 20
845.418
 11
139.143
 21
845.123
  0
LINE
  8
0
 10
139.143
 20
845.123
 11
138.703
 21
844.881
  0
LINE
  8
0
 10
138.703
 20
844.881
 11
138.236
 21
844.696
  0
LINE
  8
0
 10
138.236
 20
844.696
 11
137.75
 21
844.571
  0
LINE
  8
0
 10
137.75
 20
844.571
 11
137.251
 21
844.508
  0
LINE
  8
0
 10
137.251
 20
844.508
 11
-137.251
 21
844.508
  0
LINE
  8
0
 10
138.437
 20
714.089
 11
139.045
 21
714.245
  0
LINE
  8
0
 10
139.045
 20
714.245
 11
139.629
 21
714.476
  0
LINE
  8
0
 10
139.629
 20
714.476
 11
140.179
 21
714.778
  0
LINE
  8
0
 10
140.179
 20
714.778
 11
140.687
 21
715.147
  0
LINE
  8
0
 10
140.687
 20
715.147
 11
141.145
 21
715.577
  0
LINE
  8
0
 10
141.145
 20
715.577
 11
141.545
 21
716.061
  0
LINE
  8
0
 10
141.545
 20
716.061
 11
141.882
 21
716.591
  0
LINE
  8
0
 10
141.882
 20
716.591
 11
142.149
 21
717.159
  0
LINE
  8
0
 10
142.149
 20
717.159
 11
142.343
 21
717.757
  0
LINE
  8
0
 10
142.343
 20
717.757
 11
142.461
 21
718.373
  0
LINE
  8
0
 10
142.461
 20
718.373
 11
142.5
 21
719
  0
LINE
  8
0
 10
142.5
 20
719
 11
142.5
 21
829
  0
LINE
  8
0
 10
142.5
 20
829
 11
142.461
 21
829.627
  0
LINE
  8
0
 10
142.461
 20
829.627
 11
142.343
 21
830.243
  0
LINE
  8
0
 10
142.343
 20
830.243
 11
142.149
 21
830.841
  0
LINE
  8
0
 10
142.149
 20
830.841
 11
141.882
 21
831.409
  0
LINE
  8
0
 10
141.882
 20
831.409
 11
141.545
 21
831.939
  0
LINE
  8
0
 10
141.545
 20
831.939
 11
141.145
 21
832.423
  0
LINE
  8
0
 10
141.145
 20
832.423
 11
140.687
 21
832.853
  0
LINE
  8
0
 10
140.687
 20
832.853
 11
140.179
 21
833.222
  0
LINE
  8
0
 10
140.179
 20
833.222
 11
139.629
 21
833.524
  0
LINE
  8
0
 10
139.629
 20
833.524
 11
139.045
 21
833.755
  0
LINE
  8
0
 10
139.045
 20
833.755
 11
138.437
 21
833.911
  0
LINE
  8
0
 10
138.437
 20
833.911
 11
137.814
 21
833.99
  0
LINE
  8
0
 10
137.814
 20
833.99
 11
-137.814
 21
833.99
  0
LINE
  8
0
 10
-137.814
 20
833.99
 11
-138.437
 21
833.911
  0
LINE
  8
0
 10
-138.437
 20
833.911
 11
-139.045
 21
833.755
  0
LINE
  8
0
 10
-139.045
 20
833.755
 11
-139.629
 21
833.524
  0
LINE
  8
0
 10
-139.629
 20
833.524
 11
-140.179
 21
833.222
  0
LINE
  8
0
 10
-140.179
 20
833.222
 11
-140.687
 21
832.853
  0
LINE
  8
0
 10
-140.687
 20
832.853
 11
-141
 21
832.559
  0
LINE
  8
0
 10
-141
 20
832.559
 11
-141
 21
833.979
  0
LINE
  8
0
 10
-141
 20
833.979
 11
-144
 21
833.979
  0
LINE
  8
0
 10
-144
 20
833.979
 11
-144
 21
714.021
  0
LINE
  8
0
 10
-144
 20
714.021
 11
-141
 21
714.021
  0
LINE
  8
0
 10
-141
 20
714.021
 11
-141
 21
715.441
  0
LINE
  8
0
 10
-141
 20
715.441
 11
-140.687
 21
715.147
  0
LINE
  8
0
 10
-140.687
 20
715.147
 11
-140.179
 21
714.778
  0
LINE
  8
0
 10
-140.179
 20
714.778
 11
-139.629
 21
714.476
  0
LINE
  8
0
 10
-139.629
 20
714.476
 11
-139.045
 21
714.245
  0
LINE
  8
0
 10
-139.045
 20
714.245
 11
-138.437
 21
714.089
  0
LINE
  8
0
 10
-138.437
 20
714.089
 11
-137.814
 21
714.01
  0
LINE
  8
0
 10
-137.814
 20
714.01
 11
137.814
 21
714.01
  0
LINE
  8
0
 10
137.814
 20
714.01
 11
138.437
 21
714.089
  0
LINE
  8
0
 10
-137.195
 20
716.393
 11
-137.583
 21
716.442
  0
LINE
  8
0
 10
-137.583
 20
716.442
 11
-137.962
 21
716.539
  0
LINE
  8
0
 10
-137.962
 20
716.539
 11
-138.325
 21
716.683
  0
LINE
  8
0
 10
-138.325
 20
716.683
 11
-138.668
 21
716.872
  0
LINE
  8
0
 10
-138.668
 20
716.872
 11
-138.984
 21
717.101
  0
LINE
  8
0
 10
-138.984
 20
717.101
 11
-139.269
 21
717.369
  0
LINE
  8
0
 10
-139.269
 20
717.369
 11
-139.518
 21
717.67
  0
LINE
  8
0
 10
-139.518
 20
717.67
 11
-139.728
 21
718
  0
LINE
  8
0
 10
-139.728
 20
718
 11
-139.894
 21
718.354
  0
LINE
  8
0
 10
-139.894
 20
718.354
 11
-140.015
 21
718.726
  0
LINE
  8
0
 10
-140.015
 20
718.726
 11
-140.088
 21
719.11
  0
LINE
  8
0
 10
-140.088
 20
719.11
 11
-140.113
 21
719.5
  0
LINE
  8
0
 10
-140.113
 20
719.5
 11
-140.113
 21
828.5
  0
LINE
  8
0
 10
-140.113
 20
828.5
 11
-140.088
 21
828.89
  0
LINE
  8
0
 10
-140.088
 20
828.89
 11
-140.015
 21
829.274
  0
LINE
  8
0
 10
-140.015
 20
829.274
 11
-139.894
 21
829.646
  0
LINE
  8
0
 10
-139.894
 20
829.646
 11
-139.728
 21
830
  0
LINE
  8
0
 10
-139.728
 20
830
 11
-139.518
 21
830.33
  0
LINE
  8
0
 10
-139.518
 20
830.33
 11
-139.269
 21
830.631
  0
LINE
  8
0
 10
-139.269
 20
830.631
 11
-138.984
 21
830.899
  0
LINE
  8
0
 10
-138.984
 20
830.899
 11
-138.668
 21
831.128
  0
LINE
  8
0
 10
-138.668
 20
831.128
 11
-138.325
 21
831.317
  0
LINE
  8
0
 10
-138.325
 20
831.317
 11
-137.962
 21
831.461
  0
LINE
  8
0
 10
-137.962
 20
831.461
 11
-137.583
 21
831.558
  0
LINE
  8
0
 10
-137.583
 20
831.558
 11
-137.195
 21
831.607
  0
LINE
  8
0
 10
-137.195
 20
831.607
 11
137.195
 21
831.607
  0
LINE
  8
0
 10
137.195
 20
831.607
 11
137.583
 21
831.558
  0
LINE
  8
0
 10
137.583
 20
831.558
 11
137.962
 21
831.461
  0
LINE
  8
0
 10
137.962
 20
831.461
 11
138.325
 21
831.317
  0
LINE
  8
0
 10
138.325
 20
831.317
 11
138.668
 21
831.128
  0
LINE
  8
0
 10
138.668
 20
831.128
 11
138.984
 21
830.899
  0
LINE
  8
0
 10
138.984
 20
830.899
 11
139.269
 21
830.631
  0
LINE
  8
0
 10
139.269
 20
830.631
 11
139.518
 21
830.33
  0
LINE
  8
0
 10
139.518
 20
830.33
 11
139.728
 21
830
  0
LINE
  8
0
 10
139.728
 20
830
 11
139.894
 21
829.646
  0
LINE
  8
0
 10
139.894
 20
829.646
 11
140.015
 21
829.274
  0
LINE
  8
0
 10
140.015
 20
829.274
 11
140.088
 21
828.89
  0
LINE
  8
0
 10
140.088
 20
828.89
 11
140.113
 21
828.5
  0
LINE
  8
0
 10
140.113
 20
828.5
 11
140.113
 21
719.5
  0
LINE
  8
0
 10
140.113
 20
719.5
 11
140.088
 21
719.11
  0
LINE
  8
0
 10
140.088
 20
719.11
 11
140.015
 21
718.726
  0
LINE
  8
0
 10
140.015
 20
718.726
 11
139.894
 21
718.354
  0
LINE
  8
0
 10
139.894
 20
718.354
 11
139.728
 21
718
  0
LINE
  8
0
 10
139.728
 20
718
 11
139.518
 21
717.67
  0
LINE
  8
0
 10
139.518
 20
717.67
 11
139.269
 21
717.369
  0
LINE
  8
0
 10
139.269
 20
717.369
 11
138.984
 21
717.101
  0
LINE
  8
0
 10
138.984
 20
717.101
 11
138.668
 21
716.872
  0
LINE
  8
0
 10
138.668
 20
716.872
 11
138.325
 21
716.683
  0
LINE
  8
0
 10
138.325
 20
716.683
 11
137.962
 21
716.539
  0
LINE
  8
0
 10
137.962
 20
716.539
 11
137.583
 21
716.442
  0
LINE
  8
0
 10
137.583
 20
716.442
 11
137.195
 21
716.393
  0
LINE
  8
0
 10
137.195
 20
716.393
 11
-137.195
 21
716.393
  0
LINE
  8
0
 10
138.437
 20
585.089
 11
139.045
 21
585.245
  0
LINE
  8
0
 10
139.045
 20
585.245
 11
139.629
 21
585.476
  0
LINE
  8
0
 10
139.629
 20
585.476
 11
140.179
 21
585.778
  0
LINE
  8
0
 10
140.179
 20
585.778
 11
140.687
 21
586.147
  0
LINE
  8
0
 10
140.687
 20
586.147
 11
141.145
 21
586.577
  0
LINE
  8
0
 10
141.145
 20
586.577
 11
141.545
 21
587.061
  0
LINE
  8
0
 10
141.545
 20
587.061
 11
141.882
 21
587.591
  0
LINE
  8
0
 10
141.882
 20
587.591
 11
142.149
 21
588.159
  0
LINE
  8
0
 10
142.149
 20
588.159
 11
142.343
 21
588.757
  0
LINE
  8
0
 10
142.343
 20
588.757
 11
142.461
 21
589.373
  0
LINE
  8
0
 10
142.461
 20
589.373
 11
142.5
 21
590
  0
LINE
  8
0
 10
142.5
 20
590
 11
142.5
 21
700
  0
LINE
  8
0
 10
142.5
 20
700
 11
142.461
 21
700.627
  0
LINE
  8
0
 10
142.461
 20
700.627
 11
142.343
 21
701.243
  0
LINE
  8
0
 10
142.343
 20
701.243
 11
142.149
 21
701.841
  0
LINE
  8
0
 10
142.149
 20
701.841
 11
141.882
 21
702.409
  0
LINE
  8
0
 10
141.882
 20
702.409
 11
141.545
 21
702.939
  0
LINE
  8
0
 10
141.545
 20
702.939
 11
141.145
 21
703.423
  0
LINE
  8
0
 10
141.145
 20
703.423
 11
140.687
 21
703.853
  0
LINE
  8
0
 10
140.687
 20
703.853
 11
140.179
 21
704.222
  0
LINE
  8
0
 10
140.179
 20
704.222
 11
139.629
 21
704.524
  0
LINE
  8
0
 10
139.629
 20
704.524
 11
139.045
 21
704.755
  0
LINE
  8
0
 10
139.045
 20
704.755
 11
138.437
 21
704.911
  0
LINE
  8
0
 10
138.437
 20
704.911
 11
137.814
 21
704.99
  0
LINE
  8
0
 10
137.814
 20
704.99
 11
-137.814
 21
704.99
  0
LINE
  8
0
 10
-137.814
 20
704.99
 11
-138.437
 21
704.911
  0
LINE
  8
0
 10
-138.437
 20
704.911
 11
-139.045
 21
704.755
  0
LINE
  8
0
 10
-139.045
 20
704.755
 11
-139.629
 21
704.524
  0
LINE
  8
0
 10
-139.629
 20
704.524
 11
-140.179
 21
704.222
  0
LINE
  8
0
 10
-140.179
 20
704.222
 11
-140.687
 21
703.853
  0
LINE
  8
0
 10
-140.687
 20
703.853
 11
-141
 21
703.559
  0
LINE
  8
0
 10
-141
 20
703.559
 11
-141
 21
703.653
  0
LINE
  8
0
 10
-141
 20
703.653
 11
-144
 21
703.653
  0
LINE
  8
0
 10
-144
 20
703.653
 11
-144
 21
586.347
  0
LINE
  8
0
 10
-144
 20
586.347
 11
-141
 21
586.347
  0
LINE
  8
0
 10
-141
 20
586.347
 11
-141
 21
586.441
  0
LINE
  8
0
 10
-141
 20
586.441
 11
-140.687
 21
586.147
  0
LINE
  8
0
 10
-140.687
 20
586.147
 11
-140.179
 21
585.778
  0
LINE
  8
0
 10
-140.179
 20
585.778
 11
-139.629
 21
585.476
  0
LINE
  8
0
 10
-139.629
 20
585.476
 11
-139.045
 21
585.245
  0
LINE
  8
0
 10
-139.045
 20
585.245
 11
-138.437
 21
585.089
  0
LINE
  8
0
 10
-138.437
 20
585.089
 11
-137.814
 21
585.01
  0
LINE
  8
0
 10
-137.814
 20
585.01
 11
137.814
 21
585.01
  0
LINE
  8
0
 10
137.814
 20
585.01
 11
138.437
 21
585.089
  0
LINE
  8
0
 10
-135.134
 20
695.369
 11
-135.4
 21
695.403
  0
LINE
  8
0
 10
-135.4
 20
695.403
 11
-135.66
 21
695.469
  0
LINE
  8
0
 10
-135.66
 20
695.469
 11
-135.909
 21
695.568
  0
LINE
  8
0
 10
-135.909
 20
695.568
 11
-136.144
 21
695.697
  0
LINE
  8
0
 10
-136.144
 20
695.697
 11
-136.361
 21
695.855
  0
LINE
  8
0
 10
-136.361
 20
695.855
 11
-136.557
 21
696.038
  0
LINE
  8
0
 10
-136.557
 20
696.038
 11
-136.727
 21
696.245
  0
LINE
  8
0
 10
-136.727
 20
696.245
 11
-136.871
 21
696.471
  0
LINE
  8
0
 10
-136.871
 20
696.471
 11
-136.985
 21
696.714
  0
LINE
  8
0
 10
-136.985
 20
696.714
 11
-137.068
 21
696.969
  0
LINE
  8
0
 10
-137.068
 20
696.969
 11
-137.118
 21
697.232
  0
LINE
  8
0
 10
-137.118
 20
697.232
 11
-137.135
 21
697.5
  0
LINE
  8
0
 10
-137.135
 20
697.5
 11
-137.118
 21
697.768
  0
LINE
  8
0
 10
-137.118
 20
697.768
 11
-137.068
 21
698.031
  0
LINE
  8
0
 10
-137.068
 20
698.031
 11
-136.985
 21
698.286
  0
LINE
  8
0
 10
-136.985
 20
698.286
 11
-136.871
 21
698.529
  0
LINE
  8
0
 10
-136.871
 20
698.529
 11
-136.727
 21
698.755
  0
LINE
  8
0
 10
-136.727
 20
698.755
 11
-136.557
 21
698.962
  0
LINE
  8
0
 10
-136.557
 20
698.962
 11
-136.361
 21
699.145
  0
LINE
  8
0
 10
-136.361
 20
699.145
 11
-136.144
 21
699.303
  0
LINE
  8
0
 10
-136.144
 20
699.303
 11
-135.909
 21
699.432
  0
LINE
  8
0
 10
-135.909
 20
699.432
 11
-135.66
 21
699.531
  0
LINE
  8
0
 10
-135.66
 20
699.531
 11
-135.4
 21
699.597
  0
LINE
  8
0
 10
-135.4
 20
699.597
 11
-135.134
 21
699.631
  0
LINE
  8
0
 10
-135.134
 20
699.631
 11
-134.866
 21
699.631
  0
LINE
  8
0
 10
-134.866
 20
699.631
 11
-134.6
 21
699.597
  0
LINE
  8
0
 10
-134.6
 20
699.597
 11
-134.34
 21
699.531
  0
LINE
  8
0
 10
-134.34
 20
699.531
 11
-134.091
 21
699.432
  0
LINE
  8
0
 10
-134.091
 20
699.432
 11
-133.856
 21
699.303
  0
LINE
  8
0
 10
-133.856
 20
699.303
 11
-133.639
 21
699.145
  0
LINE
  8
0
 10
-133.639
 20
699.145
 11
-133.443
 21
698.962
  0
LINE
  8
0
 10
-133.443
 20
698.962
 11
-133.273
 21
698.755
  0
LINE
  8
0
 10
-133.273
 20
698.755
 11
-133.129
 21
698.529
  0
LINE
  8
0
 10
-133.129
 20
698.529
 11
-133.015
 21
698.286
  0
LINE
  8
0
 10
-133.015
 20
698.286
 11
-132.932
 21
698.031
  0
LINE
  8
0
 10
-132.932
 20
698.031
 11
-132.882
 21
697.768
  0
LINE
  8
0
 10
-132.882
 20
697.768
 11
-132.865
 21
697.5
  0
LINE
  8
0
 10
-132.865
 20
697.5
 11
-132.882
 21
697.232
  0
LINE
  8
0
 10
-132.882
 20
697.232
 11
-132.932
 21
696.969
  0
LINE
  8
0
 10
-132.932
 20
696.969
 11
-133.015
 21
696.714
  0
LINE
  8
0
 10
-133.015
 20
696.714
 11
-133.129
 21
696.471
  0
LINE
  8
0
 10
-133.129
 20
696.471
 11
-133.273
 21
696.245
  0
LINE
  8
0
 10
-133.273
 20
696.245
 11
-133.443
 21
696.038
  0
LINE
  8
0
 10
-133.443
 20
696.038
 11
-133.639
 21
695.855
  0
LINE
  8
0
 10
-133.639
 20
695.855
 11
-133.856
 21
695.697
  0
LINE
  8
0
 10
-133.856
 20
695.697
 11
-134.091
 21
695.568
  0
LINE
  8
0
 10
-134.091
 20
695.568
 11
-134.34
 21
695.469
  0
LINE
  8
0
 10
-134.34
 20
695.469
 11
-134.6
 21
695.403
  0
LINE
  8
0
 10
-134.6
 20
695.403
 11
-134.866
 21
695.369
  0
LINE
  8
0
 10
-134.866
 20
695.369
 11
-135.134
 21
695.369
  0
LINE
  8
0
 10
134.866
 20
695.369
 11
134.6
 21
695.403
  0
LINE
  8
0
 10
134.6
 20
695.403
 11
134.34
 21
695.469
  0
LINE
  8
0
 10
134.34
 20
695.469
 11
134.091
 21
695.568
  0
LINE
  8
0
 10
134.091
 20
695.568
 11
133.856
 21
695.697
  0
LINE
  8
0
 10
133.856
 20
695.697
 11
133.639
 21
695.855
  0
LINE
  8
0
 10
133.639
 20
695.855
 11
133.443
 21
696.038
  0
LINE
  8
0
 10
133.443
 20
696.038
 11
133.273
 21
696.245
  0
LINE
  8
0
 10
133.273
 20
696.245
 11
133.129
 21
696.471
  0
LINE
  8
0
 10
133.129
 20
696.471
 11
133.015
 21
696.714
  0
LINE
  8
0
 10
133.015
 20
696.714
 11
132.932
 21
696.969
  0
LINE
  8
0
 10
132.932
 20
696.969
 11
132.882
 21
697.232
  0
LINE
  8
0
 10
132.882
 20
697.232
 11
132.865
 21
697.5
  0
LINE
  8
0
 10
132.865
 20
697.5
 11
132.882
 21
697.768
  0
LINE
  8
0
 10
132.882
 20
697.768
 11
132.932
 21
698.031
  0
LINE
  8
0
 10
132.932
 20
698.031
 11
133.015
 21
698.286
  0
LINE
  8
0
 10
133.015
 20
698.286
 11
133.129
 21
698.529
  0
LINE
  8
0
 10
133.129
 20
698.529
 11
133.273
 21
698.755
  0
LINE
  8
0
 10
133.273
 20
698.755
 11
133.443
 21
698.962
  0
LINE
  8
0
 10
133.443
 20
698.962
 11
133.639
 21
699.145
  0
LINE
  8
0
 10
133.639
 20
699.145
 11
133.856
 21
699.303
  0
LINE
  8
0
 10
133.856
 20
699.303
 11
134.091
 21
699.432
  0
LINE
  8
0
 10
134.091
 20
699.432
 11
134.34
 21
699.531
  0
LINE
  8
0
 10
134.34
 20
699.531
 11
134.6
 21
699.597
  0
LINE
  8
0
 10
134.6
 20
699.597
 11
134.866
 21
699.631
  0
LINE
  8
0
 10
134.866
 20
699.631
 11
135.134
 21
699.631
  0
LINE
  8
0
 10
135.134
 20
699.631
 11
135.4
 21
699.597
  0
LINE
  8
0
 10
135.4
 20
699.597
 11
135.66
 21
699.531
  0
LINE
  8
0
 10
135.66
 20
699.531
 11
135.909
 21
699.432
  0
LINE
  8
0
 10
135.909
 20
699.432
 11
136.144
 21
699.303
  0
LINE
  8
0
 10
136.144
 20
699.303
 11
136.361
 21
699.145
  0
LINE
  8
0
 10
136.361
 20
699.145
 11
136.557
 21
698.962
  0
LINE
  8
0
 10
136.557
 20
698.962
 11
136.727
 21
698.755
  0
LINE
  8
0
 10
136.727
 20
698.755
 11
136.871
 21
698.529
  0
LINE
  8
0
 10
136.871
 20
698.529
 11
136.985
 21
698.286
  0
LINE
  8
0
 10
136.985
 20
698.286
 11
137.068
 21
698.031
  0
LINE
  8
0
 10
137.068
 20
698.031
 11
137.118
 21
697.768
  0
LINE
  8
0
 10
137.118
 20
697.768
 11
137.135
 21
697.5
  0
LINE
  8
0
 10
137.135
 20
697.5
 11
137.118
 21
697.232
  0
LINE
  8
0
 10
137.118
 20
697.232
 11
137.068
 21
696.969
  0
LINE
  8
0
 10
137.068
 20
696.969
 11
136.985
 21
696.714
  0
LINE
  8
0
 10
136.985
 20
696.714
 11
136.871
 21
696.471
  0
LINE
  8
0
 10
136.871
 20
696.471
 11
136.727
 21
696.245
  0
LINE
  8
0
 10
136.727
 20
696.245
 11
136.557
 21
696.038
  0
LINE
  8
0
 10
136.557
 20
696.038
 11
136.361
 21
695.855
  0
LINE
  8
0
 10
136.361
 20
695.855
 11
136.144
 21
695.697
  0
LINE
  8
0
 10
136.144
 20
695.697
 11
135.909
 21
695.568
  0
LINE
  8
0
 10
135.909
 20
695.568
 11
135.66
 21
695.469
  0
LINE
  8
0
 10
135.66
 20
695.469
 11
135.4
 21
695.403
  0
LINE
  8
0
 10
135.4
 20
695.403
 11
135.134
 21
695.369
  0
LINE
  8
0
 10
135.134
 20
695.369
 11
134.866
 21
695.369
  0
LINE
  8
0
 10
-135.134
 20
590.369
 11
-135.4
 21
590.403
  0
LINE
  8
0
 10
-135.4
 20
590.403
 11
-135.66
 21
590.469
  0
LINE
  8
0
 10
-135.66
 20
590.469
 11
-135.909
 21
590.568
  0
LINE
  8
0
 10
-135.909
 20
590.568
 11
-136.144
 21
590.697
  0
LINE
  8
0
 10
-136.144
 20
590.697
 11
-136.361
 21
590.855
  0
LINE
  8
0
 10
-136.361
 20
590.855
 11
-136.557
 21
591.038
  0
LINE
  8
0
 10
-136.557
 20
591.038
 11
-136.727
 21
591.245
  0
LINE
  8
0
 10
-136.727
 20
591.245
 11
-136.871
 21
591.471
  0
LINE
  8
0
 10
-136.871
 20
591.471
 11
-136.985
 21
591.714
  0
LINE
  8
0
 10
-136.985
 20
591.714
 11
-137.068
 21
591.969
  0
LINE
  8
0
 10
-137.068
 20
591.969
 11
-137.118
 21
592.232
  0
LINE
  8
0
 10
-137.118
 20
592.232
 11
-137.135
 21
592.5
  0
LINE
  8
0
 10
-137.135
 20
592.5
 11
-137.118
 21
592.768
  0
LINE
  8
0
 10
-137.118
 20
592.768
 11
-137.068
 21
593.031
  0
LINE
  8
0
 10
-137.068
 20
593.031
 11
-136.985
 21
593.286
  0
LINE
  8
0
 10
-136.985
 20
593.286
 11
-136.871
 21
593.529
  0
LINE
  8
0
 10
-136.871
 20
593.529
 11
-136.727
 21
593.755
  0
LINE
  8
0
 10
-136.727
 20
593.755
 11
-136.557
 21
593.962
  0
LINE
  8
0
 10
-136.557
 20
593.962
 11
-136.361
 21
594.145
  0
LINE
  8
0
 10
-136.361
 20
594.145
 11
-136.144
 21
594.303
  0
LINE
  8
0
 10
-136.144
 20
594.303
 11
-135.909
 21
594.432
  0
LINE
  8
0
 10
-135.909
 20
594.432
 11
-135.66
 21
594.531
  0
LINE
  8
0
 10
-135.66
 20
594.531
 11
-135.4
 21
594.597
  0
LINE
  8
0
 10
-135.4
 20
594.597
 11
-135.134
 21
594.631
  0
LINE
  8
0
 10
-135.134
 20
594.631
 11
-134.866
 21
594.631
  0
LINE
  8
0
 10
-134.866
 20
594.631
 11
-134.6
 21
594.597
  0
LINE
  8
0
 10
-134.6
 20
594.597
 11
-134.34
 21
594.531
  0
LINE
  8
0
 10
-134.34
 20
594.531
 11
-134.091
 21
594.432
  0
LINE
  8
0
 10
-134.091
 20
594.432
 11
-133.856
 21
594.303
  0
LINE
  8
0
 10
-133.856
 20
594.303
 11
-133.639
 21
594.145
  0
LINE
  8
0
 10
-133.639
 20
594.145
 11
-133.443
 21
593.962
  0
LINE
  8
0
 10
-133.443
 20
593.962
 11
-133.273
 21
593.755
  0
LINE
  8
0
 10
-133.273
 20
593.755
 11
-133.129
 21
593.529
  0
LINE
  8
0
 10
-133.129
 20
593.529
 11
-133.015
 21
593.286
  0
LINE
  8
0
 10
-133.015
 20
593.286
 11
-132.932
 21
593.031
  0
LINE
  8
0
 10
-132.932
 20
593.031
 11
-132.882
 21
592.768
  0
LINE
  8
0
 10
-132.882
 20
592.768
 11
-132.865
 21
592.5
  0
LINE
  8
0
 10
-132.865
 20
592.5
 11
-132.882
 21
592.232
  0
LINE
  8
0
 10
-132.882
 20
592.232
 11
-132.932
 21
591.969
  0
LINE
  8
0
 10
-132.932
 20
591.969
 11
-133.015
 21
591.714
  0
LINE
  8
0
 10
-133.015
 20
591.714
 11
-133.129
 21
591.471
  0
LINE
  8
0
 10
-133.129
 20
591.471
 11
-133.273
 21
591.245
  0
LINE
  8
0
 10
-133.273
 20
591.245
 11
-133.443
 21
591.038
  0
LINE
  8
0
 10
-133.443
 20
591.038
 11
-133.639
 21
590.855
  0
LINE
  8
0
 10
-133.639
 20
590.855
 11
-133.856
 21
590.697
  0
LINE
  8
0
 10
-133.856
 20
590.697
 11
-134.091
 21
590.568
  0
LINE
  8
0
 10
-134.091
 20
590.568
 11
-134.34
 21
590.469
  0
LINE
  8
0
 10
-134.34
 20
590.469
 11
-134.6
 21
590.403
  0
LINE
  8
0
 10
-134.6
 20
590.403
 11
-134.866
 21
590.369
  0
LINE
  8
0
 10
-134.866
 20
590.369
 11
-135.134
 21
590.369
  0
LINE
  8
0
 10
134.866
 20
590.369
 11
134.6
 21
590.403
  0
LINE
  8
0
 10
134.6
 20
590.403
 11
134.34
 21
590.469
  0
LINE
  8
0
 10
134.34
 20
590.469
 11
134.091
 21
590.568
  0
LINE
  8
0
 10
134.091
 20
590.568
 11
133.856
 21
590.697
  0
LINE
  8
0
 10
133.856
 20
590.697
 11
133.639
 21
590.855
  0
LINE
  8
0
 10
133.639
 20
590.855
 11
133.443
 21
591.038
  0
LINE
  8
0
 10
133.443
 20
591.038
 11
133.273
 21
591.245
  0
LINE
  8
0
 10
133.273
 20
591.245
 11
133.129
 21
591.471
  0
LINE
  8
0
 10
133.129
 20
591.471
 11
133.015
 21
591.714
  0
LINE
  8
0
 10
133.015
 20
591.714
 11
132.932
 21
591.969
  0
LINE
  8
0
 10
132.932
 20
591.969
 11
132.882
 21
592.232
  0
LINE
  8
0
 10
132.882
 20
592.232
 11
132.865
 21
592.5
  0
LINE
  8
0
 10
132.865
 20
592.5
 11
132.882
 21
592.768
  0
LINE
  8
0
 10
132.882
 20
592.768
 11
132.932
 21
593.031
  0
LINE
  8
0
 10
132.932
 20
593.031
 11
133.015
 21
593.286
  0
LINE
  8
0
 10
133.015
 20
593.286
 11
133.129
 21
593.529
  0
LINE
  8
0
 10
133.129
 20
593.529
 11
133.273
 21
593.755
  0
LINE
  8
0
 10
133.273
 20
593.755
 11
133.443
 21
593.962
  0
LINE
  8
0
 10
133.443
 20
593.962
 11
133.639
 21
594.145
  0
LINE
  8
0
 10
133.639
 20
594.145
 11
133.856
 21
594.303
  0
LINE
  8
0
 10
133.856
 20
594.303
 11
134.091
 21
594.432
  0
LINE
  8
0
 10
134.091
 20
594.432
 11
134.34
 21
594.531
  0
LINE
  8
0
 10
134.34
 20
594.531
 11
134.6
 21
594.597
  0
LINE
  8
0
 10
134.6
 20
594.597
 11
134.866
 21
594.631
  0
LINE
  8
0
 10
134.866
 20
594.631
 11
135.134
 21
594.631
  0
LINE
  8
0
 10
135.134
 20
594.631
 11
135.4
 21
594.597
  0
LINE
  8
0
 10
135.4
 20
594.597
 11
135.66
 21
594.531
  0
LINE
  8
0
 10
135.66
 20
594.531
 11
135.909
 21
594.432
  0
LINE
  8
0
 10
135.909
 20
594.432
 11
136.144
 21
594.303
  0
LINE
  8
0
 10
136.144
 20
594.303
 11
136.361
 21
594.145
  0
LINE
  8
0
 10
136.361
 20
594.145
 11
136.557
 21
593.962
  0
LINE
  8
0
 10
136.557
 20
593.962
 11
136.727
 21
593.755
  0
LINE
  8
0
 10
136.727
 20
593.755
 11
136.871
 21
593.529
  0
LINE
  8
0
 10
136.871
 20
593.529
 11
136.985
 21
593.286
  0
LINE
  8
0
 10
136.985
 20
593.286
 11
137.068
 21
593.031
  0
LINE
  8
0
 10
137.068
 20
593.031
 11
137.118
 21
592.768
  0
LINE
  8
0
 10
137.118
 20
592.768
 11
137.135
 21
592.5
  0
LINE
  8
0
 10
137.135
 20
592.5
 11
137.118
 21
592.232
  0
LINE
  8
0
 10
137.118
 20
592.232
 11
137.068
 21
591.969
  0
LINE
  8
0
 10
137.068
 20
591.969
 11
136.985
 21
591.714
  0
LINE
  8
0
 10
136.985
 20
591.714
 11
136.871
 21
591.471
  0
LINE
  8
0
 10
136.871
 20
591.471
 11
136.727
 21
591.245
  0
LINE
  8
0
 10
136.727
 20
591.245
 11
136.557
 21
591.038
  0
LINE
  8
0
 10
136.557
 20
591.038
 11
136.361
 21
590.855
  0
LINE
  8
0
 10
136.361
 20
590.855
 11
136.144
 21
590.697
  0
LINE
  8
0
 10
136.144
 20
590.697
 11
135.909
 21
590.568
  0
LINE
  8
0
 10
135.909
 20
590.568
 11
135.66
 21
590.469
  0
LINE
  8
0
 10
135.66
 20
590.469
 11
135.4
 21
590.403
  0
LINE
  8
0
 10
135.4
 20
590.403
 11
135.134
 21
590.369
  0
LINE
  8
0
 10
135.134
 20
590.369
 11
134.866
 21
590.369
  0
ENDSEC
  0
SECTION
  2
OBJECTS
  0
DICTIONARY
  0
ENDSEC
  0
EOF
