  0
SECTION
  2
BLOCKS
  0
ENDSEC
  0
SECTION
  2
ENTITIES
  0
LINE
  8
0
 10
40.4369
 20
-36.9114
 11
41.0451
 21
-36.7553
  0
LINE
  8
0
 10
41.0451
 20
-36.7553
 11
41.6289
 21
-36.5241
  0
LINE
  8
0
 10
41.6289
 20
-36.5241
 11
42.1791
 21
-36.2216
  0
LINE
  8
0
 10
42.1791
 20
-36.2216
 11
42.6871
 21
-35.8526
  0
LINE
  8
0
 10
42.6871
 20
-35.8526
 11
43.1448
 21
-35.4227
  0
LINE
  8
0
 10
43.1448
 20
-35.4227
 11
43.5451
 21
-34.9389
  0
LINE
  8
0
 10
43.5451
 20
-34.9389
 11
43.8815
 21
-34.4088
  0
LINE
  8
0
 10
43.8815
 20
-34.4088
 11
44.1489
 21
-33.8406
  0
LINE
  8
0
 10
44.1489
 20
-33.8406
 11
44.3429
 21
-33.2434
  0
LINE
  8
0
 10
44.3429
 20
-33.2434
 11
44.4606
 21
-32.6267
  0
LINE
  8
0
 10
44.4606
 20
-32.6267
 11
44.5
 21
-32
  0
LINE
  8
0
 10
44.5
 20
-32
 11
44.5
 21
32
  0
LINE
  8
0
 10
44.5
 20
32
 11
44.4606
 21
32.6267
  0
LINE
  8
0
 10
44.4606
 20
32.6267
 11
44.3429
 21
33.2434
  0
LINE
  8
0
 10
44.3429
 20
33.2434
 11
44.1489
 21
33.8406
  0
LINE
  8
0
 10
44.1489
 20
33.8406
 11
43.8815
 21
34.4088
  0
LINE
  8
0
 10
43.8815
 20
34.4088
 11
43.5451
 21
34.9389
  0
LINE
  8
0
 10
43.5451
 20
34.9389
 11
43.1448
 21
35.4227
  0
LINE
  8
0
 10
43.1448
 20
35.4227
 11
42.6871
 21
35.8526
  0
LINE
  8
0
 10
42.6871
 20
35.8526
 11
42.1791
 21
36.2216
  0
LINE
  8
0
 10
42.1791
 20
36.2216
 11
41.6289
 21
36.5241
  0
LINE
  8
0
 10
41.6289
 20
36.5241
 11
41.0451
 21
36.7553
  0
LINE
  8
0
 10
41.0451
 20
36.7553
 11
40.4369
 21
36.9114
  0
LINE
  8
0
 10
40.4369
 20
36.9114
 11
39.8139
 21
36.9901
  0
LINE
  8
0
 10
39.8139
 20
36.9901
 11
-39.8139
 21
36.9901
  0
LINE
  8
0
 10
-39.8139
 20
36.9901
 11
-40.4369
 21
36.9114
  0
LINE
  8
0
 10
-40.4369
 20
36.9114
 11
-41.0451
 21
36.7553
  0
LINE
  8
0
 10
-41.0451
 20
36.7553
 11
-41.6289
 21
36.5241
  0
LINE
  8
0
 10
-41.6289
 20
36.5241
 11
-42.1791
 21
36.2216
  0
LINE
  8
0
 10
-42.1791
 20
36.2216
 11
-42.6871
 21
35.8526
  0
LINE
  8
0
 10
-42.6871
 20
35.8526
 11
-43.1448
 21
35.4227
  0
LINE
  8
0
 10
-43.1448
 20
35.4227
 11
-43.5451
 21
34.9389
  0
LINE
  8
0
 10
-43.5451
 20
34.9389
 11
-43.8815
 21
34.4088
  0
LINE
  8
0
 10
-43.8815
 20
34.4088
 11
-44.1489
 21
33.8406
  0
LINE
  8
0
 10
-44.1489
 20
33.8406
 11
-44.3429
 21
33.2434
  0
LINE
  8
0
 10
-44.3429
 20
33.2434
 11
-44.4606
 21
32.6267
  0
LINE
  8
0
 10
-44.4606
 20
32.6267
 11
-44.5
 21
32
  0
LINE
  8
0
 10
-44.5
 20
32
 11
-44.5
 21
-32
  0
LINE
  8
0
 10
-44.5
 20
-32
 11
-44.4606
 21
-32.6267
  0
LINE
  8
0
 10
-44.4606
 20
-32.6267
 11
-44.3429
 21
-33.2434
  0
LINE
  8
0
 10
-44.3429
 20
-33.2434
 11
-44.1489
 21
-33.8406
  0
LINE
  8
0
 10
-44.1489
 20
-33.8406
 11
-43.8815
 21
-34.4088
  0
LINE
  8
0
 10
-43.8815
 20
-34.4088
 11
-43.5451
 21
-34.9389
  0
LINE
  8
0
 10
-43.5451
 20
-34.9389
 11
-43.1448
 21
-35.4227
  0
LINE
  8
0
 10
-43.1448
 20
-35.4227
 11
-42.6871
 21
-35.8526
  0
LINE
  8
0
 10
-42.6871
 20
-35.8526
 11
-42.1791
 21
-36.2216
  0
LINE
  8
0
 10
-42.1791
 20
-36.2216
 11
-41.6289
 21
-36.5241
  0
LINE
  8
0
 10
-41.6289
 20
-36.5241
 11
-41.0451
 21
-36.7553
  0
LINE
  8
0
 10
-41.0451
 20
-36.7553
 11
-40.4369
 21
-36.9114
  0
LINE
  8
0
 10
-40.4369
 20
-36.9114
 11
-39.8139
 21
-36.9901
  0
LINE
  8
0
 10
-39.8139
 20
-36.9901
 11
39.8139
 21
-36.9901
  0
LINE
  8
0
 10
39.8139
 20
-36.9901
 11
40.4369
 21
-36.9114
  0
LINE
  8
0
 10
-37.6884
 20
27.0059
 11
-38.0621
 21
27.0531
  0
LINE
  8
0
 10
-38.0621
 20
27.0531
 11
-38.427
 21
27.1468
  0
LINE
  8
0
 10
-38.427
 20
27.1468
 11
-38.7773
 21
27.2855
  0
LINE
  8
0
 10
-38.7773
 20
27.2855
 11
-39.1075
 21
27.467
  0
LINE
  8
0
 10
-39.1075
 20
27.467
 11
-39.4123
 21
27.6884
  0
LINE
  8
0
 10
-39.4123
 20
27.6884
 11
-39.6869
 21
27.9464
  0
LINE
  8
0
 10
-39.6869
 20
27.9464
 11
-39.927
 21
28.2366
  0
LINE
  8
0
 10
-39.927
 20
28.2366
 11
-40.1289
 21
28.5547
  0
LINE
  8
0
 10
-40.1289
 20
28.5547
 11
-40.2893
 21
28.8956
  0
LINE
  8
0
 10
-40.2893
 20
28.8956
 11
-40.4057
 21
29.2539
  0
LINE
  8
0
 10
-40.4057
 20
29.2539
 11
-40.4763
 21
29.624
  0
LINE
  8
0
 10
-40.4763
 20
29.624
 11
-40.5
 21
30
  0
LINE
  8
0
 10
-40.5
 20
30
 11
-40.4763
 21
30.376
  0
LINE
  8
0
 10
-40.4763
 20
30.376
 11
-40.4057
 21
30.7461
  0
LINE
  8
0
 10
-40.4057
 20
30.7461
 11
-40.2893
 21
31.1044
  0
LINE
  8
0
 10
-40.2893
 20
31.1044
 11
-40.1289
 21
31.4453
  0
LINE
  8
0
 10
-40.1289
 20
31.4453
 11
-39.927
 21
31.7634
  0
LINE
  8
0
 10
-39.927
 20
31.7634
 11
-39.6869
 21
32.0536
  0
LINE
  8
0
 10
-39.6869
 20
32.0536
 11
-39.4123
 21
32.3115
  0
LINE
  8
0
 10
-39.4123
 20
32.3115
 11
-39.1075
 21
32.533
  0
LINE
  8
0
 10
-39.1075
 20
32.533
 11
-38.7773
 21
32.7145
  0
LINE
  8
0
 10
-38.7773
 20
32.7145
 11
-38.427
 21
32.8532
  0
LINE
  8
0
 10
-38.427
 20
32.8532
 11
-38.0621
 21
32.9469
  0
LINE
  8
0
 10
-38.0621
 20
32.9469
 11
-37.6884
 21
32.9941
  0
LINE
  8
0
 10
-37.6884
 20
32.9941
 11
-37.3116
 21
32.9941
  0
LINE
  8
0
 10
-37.3116
 20
32.9941
 11
-36.9379
 21
32.9469
  0
LINE
  8
0
 10
-36.9379
 20
32.9469
 11
-36.5729
 21
32.8532
  0
LINE
  8
0
 10
-36.5729
 20
32.8532
 11
-36.2227
 21
32.7145
  0
LINE
  8
0
 10
-36.2227
 20
32.7145
 11
-35.8925
 21
32.533
  0
LINE
  8
0
 10
-35.8925
 20
32.533
 11
-35.5877
 21
32.3115
  0
LINE
  8
0
 10
-35.5877
 20
32.3115
 11
-35.3131
 21
32.0536
  0
LINE
  8
0
 10
-35.3131
 20
32.0536
 11
-35.0729
 21
31.7634
  0
LINE
  8
0
 10
-35.0729
 20
31.7634
 11
-34.8711
 21
31.4453
  0
LINE
  8
0
 10
-34.8711
 20
31.4453
 11
-34.7107
 21
31.1044
  0
LINE
  8
0
 10
-34.7107
 20
31.1044
 11
-34.5942
 21
30.7461
  0
LINE
  8
0
 10
-34.5942
 20
30.7461
 11
-34.5237
 21
30.376
  0
LINE
  8
0
 10
-34.5237
 20
30.376
 11
-34.5
 21
30
  0
LINE
  8
0
 10
-34.5
 20
30
 11
-34.5237
 21
29.624
  0
LINE
  8
0
 10
-34.5237
 20
29.624
 11
-34.5942
 21
29.2539
  0
LINE
  8
0
 10
-34.5942
 20
29.2539
 11
-34.7107
 21
28.8956
  0
LINE
  8
0
 10
-34.7107
 20
28.8956
 11
-34.8711
 21
28.5547
  0
LINE
  8
0
 10
-34.8711
 20
28.5547
 11
-35.0729
 21
28.2366
  0
LINE
  8
0
 10
-35.0729
 20
28.2366
 11
-35.3131
 21
27.9464
  0
LINE
  8
0
 10
-35.3131
 20
27.9464
 11
-35.5877
 21
27.6884
  0
LINE
  8
0
 10
-35.5877
 20
27.6884
 11
-35.8925
 21
27.467
  0
LINE
  8
0
 10
-35.8925
 20
27.467
 11
-36.2227
 21
27.2855
  0
LINE
  8
0
 10
-36.2227
 20
27.2855
 11
-36.5729
 21
27.1468
  0
LINE
  8
0
 10
-36.5729
 20
27.1468
 11
-36.9379
 21
27.0531
  0
LINE
  8
0
 10
-36.9379
 20
27.0531
 11
-37.3116
 21
27.0059
  0
LINE
  8
0
 10
-37.3116
 20
27.0059
 11
-37.6884
 21
27.0059
  0
LINE
  8
0
 10
-22.6884
 20
27.0059
 11
-23.0621
 21
27.0531
  0
LINE
  8
0
 10
-23.0621
 20
27.0531
 11
-23.427
 21
27.1468
  0
LINE
  8
0
 10
-23.427
 20
27.1468
 11
-23.7773
 21
27.2855
  0
LINE
  8
0
 10
-23.7773
 20
27.2855
 11
-24.1075
 21
27.467
  0
LINE
  8
0
 10
-24.1075
 20
27.467
 11
-24.4123
 21
27.6884
  0
LINE
  8
0
 10
-24.4123
 20
27.6884
 11
-24.6869
 21
27.9464
  0
LINE
  8
0
 10
-24.6869
 20
27.9464
 11
-24.927
 21
28.2366
  0
LINE
  8
0
 10
-24.927
 20
28.2366
 11
-25.1289
 21
28.5547
  0
LINE
  8
0
 10
-25.1289
 20
28.5547
 11
-25.2893
 21
28.8956
  0
LINE
  8
0
 10
-25.2893
 20
28.8956
 11
-25.4057
 21
29.2539
  0
LINE
  8
0
 10
-25.4057
 20
29.2539
 11
-25.4763
 21
29.624
  0
LINE
  8
0
 10
-25.4763
 20
29.624
 11
-25.5
 21
30
  0
LINE
  8
0
 10
-25.5
 20
30
 11
-25.4763
 21
30.376
  0
LINE
  8
0
 10
-25.4763
 20
30.376
 11
-25.4057
 21
30.7461
  0
LINE
  8
0
 10
-25.4057
 20
30.7461
 11
-25.2893
 21
31.1044
  0
LINE
  8
0
 10
-25.2893
 20
31.1044
 11
-25.1289
 21
31.4453
  0
LINE
  8
0
 10
-25.1289
 20
31.4453
 11
-24.927
 21
31.7634
  0
LINE
  8
0
 10
-24.927
 20
31.7634
 11
-24.6869
 21
32.0536
  0
LINE
  8
0
 10
-24.6869
 20
32.0536
 11
-24.4123
 21
32.3115
  0
LINE
  8
0
 10
-24.4123
 20
32.3115
 11
-24.1075
 21
32.533
  0
LINE
  8
0
 10
-24.1075
 20
32.533
 11
-23.7773
 21
32.7145
  0
LINE
  8
0
 10
-23.7773
 20
32.7145
 11
-23.427
 21
32.8532
  0
LINE
  8
0
 10
-23.427
 20
32.8532
 11
-23.0621
 21
32.9469
  0
LINE
  8
0
 10
-23.0621
 20
32.9469
 11
-22.6884
 21
32.9941
  0
LINE
  8
0
 10
-22.6884
 20
32.9941
 11
-22.3116
 21
32.9941
  0
LINE
  8
0
 10
-22.3116
 20
32.9941
 11
-21.9379
 21
32.9469
  0
LINE
  8
0
 10
-21.9379
 20
32.9469
 11
-21.5729
 21
32.8532
  0
LINE
  8
0
 10
-21.5729
 20
32.8532
 11
-21.2227
 21
32.7145
  0
LINE
  8
0
 10
-21.2227
 20
32.7145
 11
-20.8925
 21
32.533
  0
LINE
  8
0
 10
-20.8925
 20
32.533
 11
-20.5877
 21
32.3115
  0
LINE
  8
0
 10
-20.5877
 20
32.3115
 11
-20.3131
 21
32.0536
  0
LINE
  8
0
 10
-20.3131
 20
32.0536
 11
-20.0729
 21
31.7634
  0
LINE
  8
0
 10
-20.0729
 20
31.7634
 11
-19.8711
 21
31.4453
  0
LINE
  8
0
 10
-19.8711
 20
31.4453
 11
-19.7107
 21
31.1044
  0
LINE
  8
0
 10
-19.7107
 20
31.1044
 11
-19.5942
 21
30.7461
  0
LINE
  8
0
 10
-19.5942
 20
30.7461
 11
-19.5237
 21
30.376
  0
LINE
  8
0
 10
-19.5237
 20
30.376
 11
-19.5
 21
30
  0
LINE
  8
0
 10
-19.5
 20
30
 11
-19.5237
 21
29.624
  0
LINE
  8
0
 10
-19.5237
 20
29.624
 11
-19.5942
 21
29.2539
  0
LINE
  8
0
 10
-19.5942
 20
29.2539
 11
-19.7107
 21
28.8956
  0
LINE
  8
0
 10
-19.7107
 20
28.8956
 11
-19.8711
 21
28.5547
  0
LINE
  8
0
 10
-19.8711
 20
28.5547
 11
-20.0729
 21
28.2366
  0
LINE
  8
0
 10
-20.0729
 20
28.2366
 11
-20.3131
 21
27.9464
  0
LINE
  8
0
 10
-20.3131
 20
27.9464
 11
-20.5877
 21
27.6884
  0
LINE
  8
0
 10
-20.5877
 20
27.6884
 11
-20.8925
 21
27.467
  0
LINE
  8
0
 10
-20.8925
 20
27.467
 11
-21.2227
 21
27.2855
  0
LINE
  8
0
 10
-21.2227
 20
27.2855
 11
-21.5729
 21
27.1468
  0
LINE
  8
0
 10
-21.5729
 20
27.1468
 11
-21.9379
 21
27.0531
  0
LINE
  8
0
 10
-21.9379
 20
27.0531
 11
-22.3116
 21
27.0059
  0
LINE
  8
0
 10
-22.3116
 20
27.0059
 11
-22.6884
 21
27.0059
  0
LINE
  8
0
 10
7.31161
 20
27.0059
 11
6.93785
 21
27.0531
  0
LINE
  8
0
 10
6.93785
 20
27.0531
 11
6.57294
 21
27.1468
  0
LINE
  8
0
 10
6.57294
 20
27.1468
 11
6.22266
 21
27.2855
  0
LINE
  8
0
 10
6.22266
 20
27.2855
 11
5.89252
 21
27.467
  0
LINE
  8
0
 10
5.89252
 20
27.467
 11
5.58772
 21
27.6884
  0
LINE
  8
0
 10
5.58772
 20
27.6884
 11
5.31308
 21
27.9464
  0
LINE
  8
0
 10
5.31308
 20
27.9464
 11
5.07294
 21
28.2366
  0
LINE
  8
0
 10
5.07294
 20
28.2366
 11
4.87108
 21
28.5547
  0
LINE
  8
0
 10
4.87108
 20
28.5547
 11
4.71066
 21
28.8956
  0
LINE
  8
0
 10
4.71066
 20
28.8956
 11
4.59424
 21
29.2539
  0
LINE
  8
0
 10
4.59424
 20
29.2539
 11
4.52365
 21
29.624
  0
LINE
  8
0
 10
4.52365
 20
29.624
 11
4.5
 21
30
  0
LINE
  8
0
 10
4.5
 20
30
 11
4.52365
 21
30.376
  0
LINE
  8
0
 10
4.52365
 20
30.376
 11
4.59424
 21
30.7461
  0
LINE
  8
0
 10
4.59424
 20
30.7461
 11
4.71066
 21
31.1044
  0
LINE
  8
0
 10
4.71066
 20
31.1044
 11
4.87108
 21
31.4453
  0
LINE
  8
0
 10
4.87108
 20
31.4453
 11
5.07294
 21
31.7634
  0
LINE
  8
0
 10
5.07294
 20
31.7634
 11
5.31308
 21
32.0536
  0
LINE
  8
0
 10
5.31308
 20
32.0536
 11
5.58772
 21
32.3115
  0
LINE
  8
0
 10
5.58772
 20
32.3115
 11
5.89252
 21
32.533
  0
LINE
  8
0
 10
5.89252
 20
32.533
 11
6.22266
 21
32.7145
  0
LINE
  8
0
 10
6.22266
 20
32.7145
 11
6.57294
 21
32.8532
  0
LINE
  8
0
 10
6.57294
 20
32.8532
 11
6.93785
 21
32.9469
  0
LINE
  8
0
 10
6.93785
 20
32.9469
 11
7.31161
 21
32.9941
  0
LINE
  8
0
 10
7.31161
 20
32.9941
 11
7.68837
 21
32.9941
  0
LINE
  8
0
 10
7.68837
 20
32.9941
 11
8.06213
 21
32.9469
  0
LINE
  8
0
 10
8.06213
 20
32.9469
 11
8.42705
 21
32.8532
  0
LINE
  8
0
 10
8.42705
 20
32.8532
 11
8.77733
 21
32.7145
  0
LINE
  8
0
 10
8.77733
 20
32.7145
 11
9.10747
 21
32.533
  0
LINE
  8
0
 10
9.10747
 20
32.533
 11
9.41226
 21
32.3115
  0
LINE
  8
0
 10
9.41226
 20
32.3115
 11
9.6869
 21
32.0536
  0
LINE
  8
0
 10
9.6869
 20
32.0536
 11
9.92705
 21
31.7634
  0
LINE
  8
0
 10
9.92705
 20
31.7634
 11
10.1289
 21
31.4453
  0
LINE
  8
0
 10
10.1289
 20
31.4453
 11
10.2893
 21
31.1044
  0
LINE
  8
0
 10
10.2893
 20
31.1044
 11
10.4057
 21
30.7461
  0
LINE
  8
0
 10
10.4057
 20
30.7461
 11
10.4763
 21
30.376
  0
LINE
  8
0
 10
10.4763
 20
30.376
 11
10.5
 21
30
  0
LINE
  8
0
 10
10.5
 20
30
 11
10.4763
 21
29.624
  0
LINE
  8
0
 10
10.4763
 20
29.624
 11
10.4057
 21
29.2539
  0
LINE
  8
0
 10
10.4057
 20
29.2539
 11
10.2893
 21
28.8956
  0
LINE
  8
0
 10
10.2893
 20
28.8956
 11
10.1289
 21
28.5547
  0
LINE
  8
0
 10
10.1289
 20
28.5547
 11
9.92705
 21
28.2366
  0
LINE
  8
0
 10
9.92705
 20
28.2366
 11
9.6869
 21
27.9464
  0
LINE
  8
0
 10
9.6869
 20
27.9464
 11
9.41226
 21
27.6884
  0
LINE
  8
0
 10
9.41226
 20
27.6884
 11
9.10747
 21
27.467
  0
LINE
  8
0
 10
9.10747
 20
27.467
 11
8.77733
 21
27.2855
  0
LINE
  8
0
 10
8.77733
 20
27.2855
 11
8.42705
 21
27.1468
  0
LINE
  8
0
 10
8.42705
 20
27.1468
 11
8.06213
 21
27.0531
  0
LINE
  8
0
 10
8.06213
 20
27.0531
 11
7.68837
 21
27.0059
  0
LINE
  8
0
 10
7.68837
 20
27.0059
 11
7.31161
 21
27.0059
  0
LINE
  8
0
 10
37.3116
 20
27.0059
 11
36.9379
 21
27.0531
  0
LINE
  8
0
 10
36.9379
 20
27.0531
 11
36.5729
 21
27.1468
  0
LINE
  8
0
 10
36.5729
 20
27.1468
 11
36.2227
 21
27.2855
  0
LINE
  8
0
 10
36.2227
 20
27.2855
 11
35.8925
 21
27.467
  0
LINE
  8
0
 10
35.8925
 20
27.467
 11
35.5877
 21
27.6884
  0
LINE
  8
0
 10
35.5877
 20
27.6884
 11
35.3131
 21
27.9464
  0
LINE
  8
0
 10
35.3131
 20
27.9464
 11
35.0729
 21
28.2366
  0
LINE
  8
0
 10
35.0729
 20
28.2366
 11
34.8711
 21
28.5547
  0
LINE
  8
0
 10
34.8711
 20
28.5547
 11
34.7107
 21
28.8956
  0
LINE
  8
0
 10
34.7107
 20
28.8956
 11
34.5942
 21
29.2539
  0
LINE
  8
0
 10
34.5942
 20
29.2539
 11
34.5237
 21
29.624
  0
LINE
  8
0
 10
34.5237
 20
29.624
 11
34.5
 21
30
  0
LINE
  8
0
 10
34.5
 20
30
 11
34.5237
 21
30.376
  0
LINE
  8
0
 10
34.5237
 20
30.376
 11
34.5942
 21
30.7461
  0
LINE
  8
0
 10
34.5942
 20
30.7461
 11
34.7107
 21
31.1044
  0
LINE
  8
0
 10
34.7107
 20
31.1044
 11
34.8711
 21
31.4453
  0
LINE
  8
0
 10
34.8711
 20
31.4453
 11
35.0729
 21
31.7634
  0
LINE
  8
0
 10
35.0729
 20
31.7634
 11
35.3131
 21
32.0536
  0
LINE
  8
0
 10
35.3131
 20
32.0536
 11
35.5877
 21
32.3115
  0
LINE
  8
0
 10
35.5877
 20
32.3115
 11
35.8925
 21
32.533
  0
LINE
  8
0
 10
35.8925
 20
32.533
 11
36.2227
 21
32.7145
  0
LINE
  8
0
 10
36.2227
 20
32.7145
 11
36.5729
 21
32.8532
  0
LINE
  8
0
 10
36.5729
 20
32.8532
 11
36.9379
 21
32.9469
  0
LINE
  8
0
 10
36.9379
 20
32.9469
 11
37.3116
 21
32.9941
  0
LINE
  8
0
 10
37.3116
 20
32.9941
 11
37.6884
 21
32.9941
  0
LINE
  8
0
 10
37.6884
 20
32.9941
 11
38.0621
 21
32.9469
  0
LINE
  8
0
 10
38.0621
 20
32.9469
 11
38.427
 21
32.8532
  0
LINE
  8
0
 10
38.427
 20
32.8532
 11
38.7773
 21
32.7145
  0
LINE
  8
0
 10
38.7773
 20
32.7145
 11
39.1075
 21
32.533
  0
LINE
  8
0
 10
39.1075
 20
32.533
 11
39.4123
 21
32.3115
  0
LINE
  8
0
 10
39.4123
 20
32.3115
 11
39.6869
 21
32.0536
  0
LINE
  8
0
 10
39.6869
 20
32.0536
 11
39.927
 21
31.7634
  0
LINE
  8
0
 10
39.927
 20
31.7634
 11
40.1289
 21
31.4453
  0
LINE
  8
0
 10
40.1289
 20
31.4453
 11
40.2893
 21
31.1044
  0
LINE
  8
0
 10
40.2893
 20
31.1044
 11
40.4057
 21
30.7461
  0
LINE
  8
0
 10
40.4057
 20
30.7461
 11
40.4763
 21
30.376
  0
LINE
  8
0
 10
40.4763
 20
30.376
 11
40.5
 21
30
  0
LINE
  8
0
 10
40.5
 20
30
 11
40.4763
 21
29.624
  0
LINE
  8
0
 10
40.4763
 20
29.624
 11
40.4057
 21
29.2539
  0
LINE
  8
0
 10
40.4057
 20
29.2539
 11
40.2893
 21
28.8956
  0
LINE
  8
0
 10
40.2893
 20
28.8956
 11
40.1289
 21
28.5547
  0
LINE
  8
0
 10
40.1289
 20
28.5547
 11
39.927
 21
28.2366
  0
LINE
  8
0
 10
39.927
 20
28.2366
 11
39.6869
 21
27.9464
  0
LINE
  8
0
 10
39.6869
 20
27.9464
 11
39.4123
 21
27.6884
  0
LINE
  8
0
 10
39.4123
 20
27.6884
 11
39.1075
 21
27.467
  0
LINE
  8
0
 10
39.1075
 20
27.467
 11
38.7773
 21
27.2855
  0
LINE
  8
0
 10
38.7773
 20
27.2855
 11
38.427
 21
27.1468
  0
LINE
  8
0
 10
38.427
 20
27.1468
 11
38.0621
 21
27.0531
  0
LINE
  8
0
 10
38.0621
 20
27.0531
 11
37.6884
 21
27.0059
  0
LINE
  8
0
 10
37.6884
 20
27.0059
 11
37.3116
 21
27.0059
  0
LINE
  8
0
 10
22.3116
 20
27.0059
 11
21.9379
 21
27.0531
  0
LINE
  8
0
 10
21.9379
 20
27.0531
 11
21.5729
 21
27.1468
  0
LINE
  8
0
 10
21.5729
 20
27.1468
 11
21.2227
 21
27.2855
  0
LINE
  8
0
 10
21.2227
 20
27.2855
 11
20.8925
 21
27.467
  0
LINE
  8
0
 10
20.8925
 20
27.467
 11
20.5877
 21
27.6884
  0
LINE
  8
0
 10
20.5877
 20
27.6884
 11
20.3131
 21
27.9464
  0
LINE
  8
0
 10
20.3131
 20
27.9464
 11
20.0729
 21
28.2366
  0
LINE
  8
0
 10
20.0729
 20
28.2366
 11
19.8711
 21
28.5547
  0
LINE
  8
0
 10
19.8711
 20
28.5547
 11
19.7107
 21
28.8956
  0
LINE
  8
0
 10
19.7107
 20
28.8956
 11
19.5942
 21
29.2539
  0
LINE
  8
0
 10
19.5942
 20
29.2539
 11
19.5237
 21
29.624
  0
LINE
  8
0
 10
19.5237
 20
29.624
 11
19.5
 21
30
  0
LINE
  8
0
 10
19.5
 20
30
 11
19.5237
 21
30.376
  0
LINE
  8
0
 10
19.5237
 20
30.376
 11
19.5942
 21
30.7461
  0
LINE
  8
0
 10
19.5942
 20
30.7461
 11
19.7107
 21
31.1044
  0
LINE
  8
0
 10
19.7107
 20
31.1044
 11
19.8711
 21
31.4453
  0
LINE
  8
0
 10
19.8711
 20
31.4453
 11
20.0729
 21
31.7634
  0
LINE
  8
0
 10
20.0729
 20
31.7634
 11
20.3131
 21
32.0536
  0
LINE
  8
0
 10
20.3131
 20
32.0536
 11
20.5877
 21
32.3115
  0
LINE
  8
0
 10
20.5877
 20
32.3115
 11
20.8925
 21
32.533
  0
LINE
  8
0
 10
20.8925
 20
32.533
 11
21.2227
 21
32.7145
  0
LINE
  8
0
 10
21.2227
 20
32.7145
 11
21.5729
 21
32.8532
  0
LINE
  8
0
 10
21.5729
 20
32.8532
 11
21.9379
 21
32.9469
  0
LINE
  8
0
 10
21.9379
 20
32.9469
 11
22.3116
 21
32.9941
  0
LINE
  8
0
 10
22.3116
 20
32.9941
 11
22.6884
 21
32.9941
  0
LINE
  8
0
 10
22.6884
 20
32.9941
 11
23.0621
 21
32.9469
  0
LINE
  8
0
 10
23.0621
 20
32.9469
 11
23.427
 21
32.8532
  0
LINE
  8
0
 10
23.427
 20
32.8532
 11
23.7773
 21
32.7145
  0
LINE
  8
0
 10
23.7773
 20
32.7145
 11
24.1075
 21
32.533
  0
LINE
  8
0
 10
24.1075
 20
32.533
 11
24.4123
 21
32.3115
  0
LINE
  8
0
 10
24.4123
 20
32.3115
 11
24.6869
 21
32.0536
  0
LINE
  8
0
 10
24.6869
 20
32.0536
 11
24.927
 21
31.7634
  0
LINE
  8
0
 10
24.927
 20
31.7634
 11
25.1289
 21
31.4453
  0
LINE
  8
0
 10
25.1289
 20
31.4453
 11
25.2893
 21
31.1044
  0
LINE
  8
0
 10
25.2893
 20
31.1044
 11
25.4057
 21
30.7461
  0
LINE
  8
0
 10
25.4057
 20
30.7461
 11
25.4763
 21
30.376
  0
LINE
  8
0
 10
25.4763
 20
30.376
 11
25.5
 21
30
  0
LINE
  8
0
 10
25.5
 20
30
 11
25.4763
 21
29.624
  0
LINE
  8
0
 10
25.4763
 20
29.624
 11
25.4057
 21
29.2539
  0
LINE
  8
0
 10
25.4057
 20
29.2539
 11
25.2893
 21
28.8956
  0
LINE
  8
0
 10
25.2893
 20
28.8956
 11
25.1289
 21
28.5547
  0
LINE
  8
0
 10
25.1289
 20
28.5547
 11
24.927
 21
28.2366
  0
LINE
  8
0
 10
24.927
 20
28.2366
 11
24.6869
 21
27.9464
  0
LINE
  8
0
 10
24.6869
 20
27.9464
 11
24.4123
 21
27.6884
  0
LINE
  8
0
 10
24.4123
 20
27.6884
 11
24.1075
 21
27.467
  0
LINE
  8
0
 10
24.1075
 20
27.467
 11
23.7773
 21
27.2855
  0
LINE
  8
0
 10
23.7773
 20
27.2855
 11
23.427
 21
27.1468
  0
LINE
  8
0
 10
23.427
 20
27.1468
 11
23.0621
 21
27.0531
  0
LINE
  8
0
 10
23.0621
 20
27.0531
 11
22.6884
 21
27.0059
  0
LINE
  8
0
 10
22.6884
 20
27.0059
 11
22.3116
 21
27.0059
  0
LINE
  8
0
 10
-7.68837
 20
27.0059
 11
-8.06213
 21
27.0531
  0
LINE
  8
0
 10
-8.06213
 20
27.0531
 11
-8.42705
 21
27.1468
  0
LINE
  8
0
 10
-8.42705
 20
27.1468
 11
-8.77733
 21
27.2855
  0
LINE
  8
0
 10
-8.77733
 20
27.2855
 11
-9.10747
 21
27.467
  0
LINE
  8
0
 10
-9.10747
 20
27.467
 11
-9.41226
 21
27.6884
  0
LINE
  8
0
 10
-9.41226
 20
27.6884
 11
-9.6869
 21
27.9464
  0
LINE
  8
0
 10
-9.6869
 20
27.9464
 11
-9.92705
 21
28.2366
  0
LINE
  8
0
 10
-9.92705
 20
28.2366
 11
-10.1289
 21
28.5547
  0
LINE
  8
0
 10
-10.1289
 20
28.5547
 11
-10.2893
 21
28.8956
  0
LINE
  8
0
 10
-10.2893
 20
28.8956
 11
-10.4057
 21
29.2539
  0
LINE
  8
0
 10
-10.4057
 20
29.2539
 11
-10.4763
 21
29.624
  0
LINE
  8
0
 10
-10.4763
 20
29.624
 11
-10.5
 21
30
  0
LINE
  8
0
 10
-10.5
 20
30
 11
-10.4763
 21
30.376
  0
LINE
  8
0
 10
-10.4763
 20
30.376
 11
-10.4057
 21
30.7461
  0
LINE
  8
0
 10
-10.4057
 20
30.7461
 11
-10.2893
 21
31.1044
  0
LINE
  8
0
 10
-10.2893
 20
31.1044
 11
-10.1289
 21
31.4453
  0
LINE
  8
0
 10
-10.1289
 20
31.4453
 11
-9.92705
 21
31.7634
  0
LINE
  8
0
 10
-9.92705
 20
31.7634
 11
-9.6869
 21
32.0536
  0
LINE
  8
0
 10
-9.6869
 20
32.0536
 11
-9.41226
 21
32.3115
  0
LINE
  8
0
 10
-9.41226
 20
32.3115
 11
-9.10747
 21
32.533
  0
LINE
  8
0
 10
-9.10747
 20
32.533
 11
-8.77733
 21
32.7145
  0
LINE
  8
0
 10
-8.77733
 20
32.7145
 11
-8.42705
 21
32.8532
  0
LINE
  8
0
 10
-8.42705
 20
32.8532
 11
-8.06213
 21
32.9469
  0
LINE
  8
0
 10
-8.06213
 20
32.9469
 11
-7.68837
 21
32.9941
  0
LINE
  8
0
 10
-7.68837
 20
32.9941
 11
-7.31161
 21
32.9941
  0
LINE
  8
0
 10
-7.31161
 20
32.9941
 11
-6.93785
 21
32.9469
  0
LINE
  8
0
 10
-6.93785
 20
32.9469
 11
-6.57294
 21
32.8532
  0
LINE
  8
0
 10
-6.57294
 20
32.8532
 11
-6.22266
 21
32.7145
  0
LINE
  8
0
 10
-6.22266
 20
32.7145
 11
-5.89252
 21
32.533
  0
LINE
  8
0
 10
-5.89252
 20
32.533
 11
-5.58772
 21
32.3115
  0
LINE
  8
0
 10
-5.58772
 20
32.3115
 11
-5.31308
 21
32.0536
  0
LINE
  8
0
 10
-5.31308
 20
32.0536
 11
-5.07294
 21
31.7634
  0
LINE
  8
0
 10
-5.07294
 20
31.7634
 11
-4.87108
 21
31.4453
  0
LINE
  8
0
 10
-4.87108
 20
31.4453
 11
-4.71066
 21
31.1044
  0
LINE
  8
0
 10
-4.71066
 20
31.1044
 11
-4.59424
 21
30.7461
  0
LINE
  8
0
 10
-4.59424
 20
30.7461
 11
-4.52365
 21
30.376
  0
LINE
  8
0
 10
-4.52365
 20
30.376
 11
-4.5
 21
30
  0
LINE
  8
0
 10
-4.5
 20
30
 11
-4.52365
 21
29.624
  0
LINE
  8
0
 10
-4.52365
 20
29.624
 11
-4.59424
 21
29.2539
  0
LINE
  8
0
 10
-4.59424
 20
29.2539
 11
-4.71066
 21
28.8956
  0
LINE
  8
0
 10
-4.71066
 20
28.8956
 11
-4.87108
 21
28.5547
  0
LINE
  8
0
 10
-4.87108
 20
28.5547
 11
-5.07294
 21
28.2366
  0
LINE
  8
0
 10
-5.07294
 20
28.2366
 11
-5.31308
 21
27.9464
  0
LINE
  8
0
 10
-5.31308
 20
27.9464
 11
-5.58772
 21
27.6884
  0
LINE
  8
0
 10
-5.58772
 20
27.6884
 11
-5.89252
 21
27.467
  0
LINE
  8
0
 10
-5.89252
 20
27.467
 11
-6.22266
 21
27.2855
  0
LINE
  8
0
 10
-6.22266
 20
27.2855
 11
-6.57294
 21
27.1468
  0
LINE
  8
0
 10
-6.57294
 20
27.1468
 11
-6.93785
 21
27.0531
  0
LINE
  8
0
 10
-6.93785
 20
27.0531
 11
-7.31161
 21
27.0059
  0
LINE
  8
0
 10
-7.31161
 20
27.0059
 11
-7.68837
 21
27.0059
  0
LINE
  8
0
 10
28.1527
 20
16.703
 11
27.9595
 21
16.7274
  0
LINE
  8
0
 10
27.9595
 20
16.7274
 11
27.771
 21
16.7759
  0
LINE
  8
0
 10
27.771
 20
16.7759
 11
27.59
 21
16.8475
  0
LINE
  8
0
 10
27.59
 20
16.8475
 11
27.4195
 21
16.9413
  0
LINE
  8
0
 10
27.4195
 20
16.9413
 11
27.262
 21
17.0557
  0
LINE
  8
0
 10
27.262
 20
17.0557
 11
27.1201
 21
17.1889
  0
LINE
  8
0
 10
27.1201
 20
17.1889
 11
26.996
 21
17.3389
  0
LINE
  8
0
 10
26.996
 20
17.3389
 11
26.8917
 21
17.5033
  0
LINE
  8
0
 10
26.8917
 20
17.5033
 11
26.8088
 21
17.6794
  0
LINE
  8
0
 10
26.8088
 20
17.6794
 11
26.7487
 21
17.8645
  0
LINE
  8
0
 10
26.7487
 20
17.8645
 11
26.7122
 21
18.0557
  0
LINE
  8
0
 10
26.7122
 20
18.0557
 11
26.7
 21
18.25
  0
LINE
  8
0
 10
26.7
 20
18.25
 11
26.7122
 21
18.4443
  0
LINE
  8
0
 10
26.7122
 20
18.4443
 11
26.7487
 21
18.6355
  0
LINE
  8
0
 10
26.7487
 20
18.6355
 11
26.8088
 21
18.8206
  0
LINE
  8
0
 10
26.8088
 20
18.8206
 11
26.8917
 21
18.9967
  0
LINE
  8
0
 10
26.8917
 20
18.9967
 11
26.996
 21
19.1611
  0
LINE
  8
0
 10
26.996
 20
19.1611
 11
27.1201
 21
19.311
  0
LINE
  8
0
 10
27.1201
 20
19.311
 11
27.262
 21
19.4443
  0
LINE
  8
0
 10
27.262
 20
19.4443
 11
27.4195
 21
19.5587
  0
LINE
  8
0
 10
27.4195
 20
19.5587
 11
27.59
 21
19.6525
  0
LINE
  8
0
 10
27.59
 20
19.6525
 11
27.771
 21
19.7241
  0
LINE
  8
0
 10
27.771
 20
19.7241
 11
27.9595
 21
19.7725
  0
LINE
  8
0
 10
27.9595
 20
19.7725
 11
28.1527
 21
19.7969
  0
LINE
  8
0
 10
28.1527
 20
19.7969
 11
28.3473
 21
19.7969
  0
LINE
  8
0
 10
28.3473
 20
19.7969
 11
28.5404
 21
19.7725
  0
LINE
  8
0
 10
28.5404
 20
19.7725
 11
28.729
 21
19.7241
  0
LINE
  8
0
 10
28.729
 20
19.7241
 11
28.91
 21
19.6525
  0
LINE
  8
0
 10
28.91
 20
19.6525
 11
29.0805
 21
19.5587
  0
LINE
  8
0
 10
29.0805
 20
19.5587
 11
29.238
 21
19.4443
  0
LINE
  8
0
 10
29.238
 20
19.4443
 11
29.3799
 21
19.311
  0
LINE
  8
0
 10
29.3799
 20
19.311
 11
29.504
 21
19.1611
  0
LINE
  8
0
 10
29.504
 20
19.1611
 11
29.6083
 21
18.9967
  0
LINE
  8
0
 10
29.6083
 20
18.9967
 11
29.6911
 21
18.8206
  0
LINE
  8
0
 10
29.6911
 20
18.8206
 11
29.7513
 21
18.6355
  0
LINE
  8
0
 10
29.7513
 20
18.6355
 11
29.7878
 21
18.4443
  0
LINE
  8
0
 10
29.7878
 20
18.4443
 11
29.8
 21
18.25
  0
LINE
  8
0
 10
29.8
 20
18.25
 11
29.7878
 21
18.0557
  0
LINE
  8
0
 10
29.7878
 20
18.0557
 11
29.7513
 21
17.8645
  0
LINE
  8
0
 10
29.7513
 20
17.8645
 11
29.6911
 21
17.6794
  0
LINE
  8
0
 10
29.6911
 20
17.6794
 11
29.6083
 21
17.5033
  0
LINE
  8
0
 10
29.6083
 20
17.5033
 11
29.504
 21
17.3389
  0
LINE
  8
0
 10
29.504
 20
17.3389
 11
29.3799
 21
17.1889
  0
LINE
  8
0
 10
29.3799
 20
17.1889
 11
29.238
 21
17.0557
  0
LINE
  8
0
 10
29.238
 20
17.0557
 11
29.0805
 21
16.9413
  0
LINE
  8
0
 10
29.0805
 20
16.9413
 11
28.91
 21
16.8475
  0
LINE
  8
0
 10
28.91
 20
16.8475
 11
28.729
 21
16.7759
  0
LINE
  8
0
 10
28.729
 20
16.7759
 11
28.5404
 21
16.7274
  0
LINE
  8
0
 10
28.5404
 20
16.7274
 11
28.3473
 21
16.703
  0
LINE
  8
0
 10
28.3473
 20
16.703
 11
28.1527
 21
16.703
  0
LINE
  8
0
 10
-28.3473
 20
16.703
 11
-28.5404
 21
16.7274
  0
LINE
  8
0
 10
-28.5404
 20
16.7274
 11
-28.729
 21
16.7759
  0
LINE
  8
0
 10
-28.729
 20
16.7759
 11
-28.91
 21
16.8475
  0
LINE
  8
0
 10
-28.91
 20
16.8475
 11
-29.0805
 21
16.9413
  0
LINE
  8
0
 10
-29.0805
 20
16.9413
 11
-29.238
 21
17.0557
  0
LINE
  8
0
 10
-29.238
 20
17.0557
 11
-29.3799
 21
17.1889
  0
LINE
  8
0
 10
-29.3799
 20
17.1889
 11
-29.504
 21
17.3389
  0
LINE
  8
0
 10
-29.504
 20
17.3389
 11
-29.6083
 21
17.5033
  0
LINE
  8
0
 10
-29.6083
 20
17.5033
 11
-29.6911
 21
17.6794
  0
LINE
  8
0
 10
-29.6911
 20
17.6794
 11
-29.7513
 21
17.8645
  0
LINE
  8
0
 10
-29.7513
 20
17.8645
 11
-29.7878
 21
18.0557
  0
LINE
  8
0
 10
-29.7878
 20
18.0557
 11
-29.8
 21
18.25
  0
LINE
  8
0
 10
-29.8
 20
18.25
 11
-29.7878
 21
18.4443
  0
LINE
  8
0
 10
-29.7878
 20
18.4443
 11
-29.7513
 21
18.6355
  0
LINE
  8
0
 10
-29.7513
 20
18.6355
 11
-29.6911
 21
18.8206
  0
LINE
  8
0
 10
-29.6911
 20
18.8206
 11
-29.6083
 21
18.9967
  0
LINE
  8
0
 10
-29.6083
 20
18.9967
 11
-29.504
 21
19.1611
  0
LINE
  8
0
 10
-29.504
 20
19.1611
 11
-29.3799
 21
19.311
  0
LINE
  8
0
 10
-29.3799
 20
19.311
 11
-29.238
 21
19.4443
  0
LINE
  8
0
 10
-29.238
 20
19.4443
 11
-29.0805
 21
19.5587
  0
LINE
  8
0
 10
-29.0805
 20
19.5587
 11
-28.91
 21
19.6525
  0
LINE
  8
0
 10
-28.91
 20
19.6525
 11
-28.729
 21
19.7241
  0
LINE
  8
0
 10
-28.729
 20
19.7241
 11
-28.5404
 21
19.7725
  0
LINE
  8
0
 10
-28.5404
 20
19.7725
 11
-28.3473
 21
19.7969
  0
LINE
  8
0
 10
-28.3473
 20
19.7969
 11
-28.1527
 21
19.7969
  0
LINE
  8
0
 10
-28.1527
 20
19.7969
 11
-27.9595
 21
19.7725
  0
LINE
  8
0
 10
-27.9595
 20
19.7725
 11
-27.771
 21
19.7241
  0
LINE
  8
0
 10
-27.771
 20
19.7241
 11
-27.59
 21
19.6525
  0
LINE
  8
0
 10
-27.59
 20
19.6525
 11
-27.4195
 21
19.5587
  0
LINE
  8
0
 10
-27.4195
 20
19.5587
 11
-27.262
 21
19.4443
  0
LINE
  8
0
 10
-27.262
 20
19.4443
 11
-27.1201
 21
19.311
  0
LINE
  8
0
 10
-27.1201
 20
19.311
 11
-26.996
 21
19.1611
  0
LINE
  8
0
 10
-26.996
 20
19.1611
 11
-26.8917
 21
18.9967
  0
LINE
  8
0
 10
-26.8917
 20
18.9967
 11
-26.8088
 21
18.8206
  0
LINE
  8
0
 10
-26.8088
 20
18.8206
 11
-26.7487
 21
18.6355
  0
LINE
  8
0
 10
-26.7487
 20
18.6355
 11
-26.7122
 21
18.4443
  0
LINE
  8
0
 10
-26.7122
 20
18.4443
 11
-26.7
 21
18.25
  0
LINE
  8
0
 10
-26.7
 20
18.25
 11
-26.7122
 21
18.0557
  0
LINE
  8
0
 10
-26.7122
 20
18.0557
 11
-26.7487
 21
17.8645
  0
LINE
  8
0
 10
-26.7487
 20
17.8645
 11
-26.8088
 21
17.6794
  0
LINE
  8
0
 10
-26.8088
 20
17.6794
 11
-26.8917
 21
17.5033
  0
LINE
  8
0
 10
-26.8917
 20
17.5033
 11
-26.996
 21
17.3389
  0
LINE
  8
0
 10
-26.996
 20
17.3389
 11
-27.1201
 21
17.1889
  0
LINE
  8
0
 10
-27.1201
 20
17.1889
 11
-27.262
 21
17.0557
  0
LINE
  8
0
 10
-27.262
 20
17.0557
 11
-27.4195
 21
16.9413
  0
LINE
  8
0
 10
-27.4195
 20
16.9413
 11
-27.59
 21
16.8475
  0
LINE
  8
0
 10
-27.59
 20
16.8475
 11
-27.771
 21
16.7759
  0
LINE
  8
0
 10
-27.771
 20
16.7759
 11
-27.9595
 21
16.7274
  0
LINE
  8
0
 10
-27.9595
 20
16.7274
 11
-28.1527
 21
16.703
  0
LINE
  8
0
 10
-28.1527
 20
16.703
 11
-28.3473
 21
16.703
  0
LINE
  8
0
 10
-37.6884
 20
12.0059
 11
-38.0621
 21
12.0531
  0
LINE
  8
0
 10
-38.0621
 20
12.0531
 11
-38.427
 21
12.1468
  0
LINE
  8
0
 10
-38.427
 20
12.1468
 11
-38.7773
 21
12.2855
  0
LINE
  8
0
 10
-38.7773
 20
12.2855
 11
-39.1075
 21
12.467
  0
LINE
  8
0
 10
-39.1075
 20
12.467
 11
-39.4123
 21
12.6884
  0
LINE
  8
0
 10
-39.4123
 20
12.6884
 11
-39.6869
 21
12.9464
  0
LINE
  8
0
 10
-39.6869
 20
12.9464
 11
-39.927
 21
13.2366
  0
LINE
  8
0
 10
-39.927
 20
13.2366
 11
-40.1289
 21
13.5547
  0
LINE
  8
0
 10
-40.1289
 20
13.5547
 11
-40.2893
 21
13.8956
  0
LINE
  8
0
 10
-40.2893
 20
13.8956
 11
-40.4057
 21
14.2539
  0
LINE
  8
0
 10
-40.4057
 20
14.2539
 11
-40.4763
 21
14.624
  0
LINE
  8
0
 10
-40.4763
 20
14.624
 11
-40.5
 21
15
  0
LINE
  8
0
 10
-40.5
 20
15
 11
-40.4763
 21
15.376
  0
LINE
  8
0
 10
-40.4763
 20
15.376
 11
-40.4057
 21
15.7461
  0
LINE
  8
0
 10
-40.4057
 20
15.7461
 11
-40.2893
 21
16.1044
  0
LINE
  8
0
 10
-40.2893
 20
16.1044
 11
-40.1289
 21
16.4453
  0
LINE
  8
0
 10
-40.1289
 20
16.4453
 11
-39.927
 21
16.7634
  0
LINE
  8
0
 10
-39.927
 20
16.7634
 11
-39.6869
 21
17.0536
  0
LINE
  8
0
 10
-39.6869
 20
17.0536
 11
-39.4123
 21
17.3115
  0
LINE
  8
0
 10
-39.4123
 20
17.3115
 11
-39.1075
 21
17.533
  0
LINE
  8
0
 10
-39.1075
 20
17.533
 11
-38.7773
 21
17.7145
  0
LINE
  8
0
 10
-38.7773
 20
17.7145
 11
-38.427
 21
17.8532
  0
LINE
  8
0
 10
-38.427
 20
17.8532
 11
-38.0621
 21
17.9469
  0
LINE
  8
0
 10
-38.0621
 20
17.9469
 11
-37.6884
 21
17.9941
  0
LINE
  8
0
 10
-37.6884
 20
17.9941
 11
-37.3116
 21
17.9941
  0
LINE
  8
0
 10
-37.3116
 20
17.9941
 11
-36.9379
 21
17.9469
  0
LINE
  8
0
 10
-36.9379
 20
17.9469
 11
-36.5729
 21
17.8532
  0
LINE
  8
0
 10
-36.5729
 20
17.8532
 11
-36.2227
 21
17.7145
  0
LINE
  8
0
 10
-36.2227
 20
17.7145
 11
-35.8925
 21
17.533
  0
LINE
  8
0
 10
-35.8925
 20
17.533
 11
-35.5877
 21
17.3115
  0
LINE
  8
0
 10
-35.5877
 20
17.3115
 11
-35.3131
 21
17.0536
  0
LINE
  8
0
 10
-35.3131
 20
17.0536
 11
-35.0729
 21
16.7634
  0
LINE
  8
0
 10
-35.0729
 20
16.7634
 11
-34.8711
 21
16.4453
  0
LINE
  8
0
 10
-34.8711
 20
16.4453
 11
-34.7107
 21
16.1044
  0
LINE
  8
0
 10
-34.7107
 20
16.1044
 11
-34.5942
 21
15.7461
  0
LINE
  8
0
 10
-34.5942
 20
15.7461
 11
-34.5237
 21
15.376
  0
LINE
  8
0
 10
-34.5237
 20
15.376
 11
-34.5
 21
15
  0
LINE
  8
0
 10
-34.5
 20
15
 11
-34.5237
 21
14.624
  0
LINE
  8
0
 10
-34.5237
 20
14.624
 11
-34.5942
 21
14.2539
  0
LINE
  8
0
 10
-34.5942
 20
14.2539
 11
-34.7107
 21
13.8956
  0
LINE
  8
0
 10
-34.7107
 20
13.8956
 11
-34.8711
 21
13.5547
  0
LINE
  8
0
 10
-34.8711
 20
13.5547
 11
-35.0729
 21
13.2366
  0
LINE
  8
0
 10
-35.0729
 20
13.2366
 11
-35.3131
 21
12.9464
  0
LINE
  8
0
 10
-35.3131
 20
12.9464
 11
-35.5877
 21
12.6884
  0
LINE
  8
0
 10
-35.5877
 20
12.6884
 11
-35.8925
 21
12.467
  0
LINE
  8
0
 10
-35.8925
 20
12.467
 11
-36.2227
 21
12.2855
  0
LINE
  8
0
 10
-36.2227
 20
12.2855
 11
-36.5729
 21
12.1468
  0
LINE
  8
0
 10
-36.5729
 20
12.1468
 11
-36.9379
 21
12.0531
  0
LINE
  8
0
 10
-36.9379
 20
12.0531
 11
-37.3116
 21
12.0059
  0
LINE
  8
0
 10
-37.3116
 20
12.0059
 11
-37.6884
 21
12.0059
  0
LINE
  8
0
 10
37.3116
 20
12.0059
 11
36.9379
 21
12.0531
  0
LINE
  8
0
 10
36.9379
 20
12.0531
 11
36.5729
 21
12.1468
  0
LINE
  8
0
 10
36.5729
 20
12.1468
 11
36.2227
 21
12.2855
  0
LINE
  8
0
 10
36.2227
 20
12.2855
 11
35.8925
 21
12.467
  0
LINE
  8
0
 10
35.8925
 20
12.467
 11
35.5877
 21
12.6884
  0
LINE
  8
0
 10
35.5877
 20
12.6884
 11
35.3131
 21
12.9464
  0
LINE
  8
0
 10
35.3131
 20
12.9464
 11
35.0729
 21
13.2366
  0
LINE
  8
0
 10
35.0729
 20
13.2366
 11
34.8711
 21
13.5547
  0
LINE
  8
0
 10
34.8711
 20
13.5547
 11
34.7107
 21
13.8956
  0
LINE
  8
0
 10
34.7107
 20
13.8956
 11
34.5942
 21
14.2539
  0
LINE
  8
0
 10
34.5942
 20
14.2539
 11
34.5237
 21
14.624
  0
LINE
  8
0
 10
34.5237
 20
14.624
 11
34.5
 21
15
  0
LINE
  8
0
 10
34.5
 20
15
 11
34.5237
 21
15.376
  0
LINE
  8
0
 10
34.5237
 20
15.376
 11
34.5942
 21
15.7461
  0
LINE
  8
0
 10
34.5942
 20
15.7461
 11
34.7107
 21
16.1044
  0
LINE
  8
0
 10
34.7107
 20
16.1044
 11
34.8711
 21
16.4453
  0
LINE
  8
0
 10
34.8711
 20
16.4453
 11
35.0729
 21
16.7634
  0
LINE
  8
0
 10
35.0729
 20
16.7634
 11
35.3131
 21
17.0536
  0
LINE
  8
0
 10
35.3131
 20
17.0536
 11
35.5877
 21
17.3115
  0
LINE
  8
0
 10
35.5877
 20
17.3115
 11
35.8925
 21
17.533
  0
LINE
  8
0
 10
35.8925
 20
17.533
 11
36.2227
 21
17.7145
  0
LINE
  8
0
 10
36.2227
 20
17.7145
 11
36.5729
 21
17.8532
  0
LINE
  8
0
 10
36.5729
 20
17.8532
 11
36.9379
 21
17.9469
  0
LINE
  8
0
 10
36.9379
 20
17.9469
 11
37.3116
 21
17.9941
  0
LINE
  8
0
 10
37.3116
 20
17.9941
 11
37.6884
 21
17.9941
  0
LINE
  8
0
 10
37.6884
 20
17.9941
 11
38.0621
 21
17.9469
  0
LINE
  8
0
 10
38.0621
 20
17.9469
 11
38.427
 21
17.8532
  0
LINE
  8
0
 10
38.427
 20
17.8532
 11
38.7773
 21
17.7145
  0
LINE
  8
0
 10
38.7773
 20
17.7145
 11
39.1075
 21
17.533
  0
LINE
  8
0
 10
39.1075
 20
17.533
 11
39.4123
 21
17.3115
  0
LINE
  8
0
 10
39.4123
 20
17.3115
 11
39.6869
 21
17.0536
  0
LINE
  8
0
 10
39.6869
 20
17.0536
 11
39.927
 21
16.7634
  0
LINE
  8
0
 10
39.927
 20
16.7634
 11
40.1289
 21
16.4453
  0
LINE
  8
0
 10
40.1289
 20
16.4453
 11
40.2893
 21
16.1044
  0
LINE
  8
0
 10
40.2893
 20
16.1044
 11
40.4057
 21
15.7461
  0
LINE
  8
0
 10
40.4057
 20
15.7461
 11
40.4763
 21
15.376
  0
LINE
  8
0
 10
40.4763
 20
15.376
 11
40.5
 21
15
  0
LINE
  8
0
 10
40.5
 20
15
 11
40.4763
 21
14.624
  0
LINE
  8
0
 10
40.4763
 20
14.624
 11
40.4057
 21
14.2539
  0
LINE
  8
0
 10
40.4057
 20
14.2539
 11
40.2893
 21
13.8956
  0
LINE
  8
0
 10
40.2893
 20
13.8956
 11
40.1289
 21
13.5547
  0
LINE
  8
0
 10
40.1289
 20
13.5547
 11
39.927
 21
13.2366
  0
LINE
  8
0
 10
39.927
 20
13.2366
 11
39.6869
 21
12.9464
  0
LINE
  8
0
 10
39.6869
 20
12.9464
 11
39.4123
 21
12.6884
  0
LINE
  8
0
 10
39.4123
 20
12.6884
 11
39.1075
 21
12.467
  0
LINE
  8
0
 10
39.1075
 20
12.467
 11
38.7773
 21
12.2855
  0
LINE
  8
0
 10
38.7773
 20
12.2855
 11
38.427
 21
12.1468
  0
LINE
  8
0
 10
38.427
 20
12.1468
 11
38.0621
 21
12.0531
  0
LINE
  8
0
 10
38.0621
 20
12.0531
 11
37.6884
 21
12.0059
  0
LINE
  8
0
 10
37.6884
 20
12.0059
 11
37.3116
 21
12.0059
  0
LINE
  8
0
 10
-37.6884
 20
-2.99408
 11
-38.0621
 21
-2.94685
  0
LINE
  8
0
 10
-38.0621
 20
-2.94685
 11
-38.427
 21
-2.85316
  0
LINE
  8
0
 10
-38.427
 20
-2.85316
 11
-38.7773
 21
-2.71448
  0
LINE
  8
0
 10
-38.7773
 20
-2.71448
 11
-39.1075
 21
-2.53297
  0
LINE
  8
0
 10
-39.1075
 20
-2.53297
 11
-39.4123
 21
-2.31154
  0
LINE
  8
0
 10
-39.4123
 20
-2.31154
 11
-39.6869
 21
-2.05363
  0
LINE
  8
0
 10
-39.6869
 20
-2.05363
 11
-39.927
 21
-1.76335
  0
LINE
  8
0
 10
-39.927
 20
-1.76335
 11
-40.1289
 21
-1.44525
  0
LINE
  8
0
 10
-40.1289
 20
-1.44525
 11
-40.2893
 21
-1.10437
  0
LINE
  8
0
 10
-40.2893
 20
-1.10437
 11
-40.4057
 21
-0.746063
  0
LINE
  8
0
 10
-40.4057
 20
-0.746063
 11
-40.4763
 21
-0.375992
  0
LINE
  8
0
 10
-40.4763
 20
-0.375992
 11
-40.5
 21
0
  0
LINE
  8
0
 10
-40.5
 20
0
 11
-40.4763
 21
0.375992
  0
LINE
  8
0
 10
-40.4763
 20
0.375992
 11
-40.4057
 21
0.746063
  0
LINE
  8
0
 10
-40.4057
 20
0.746063
 11
-40.2893
 21
1.10437
  0
LINE
  8
0
 10
-40.2893
 20
1.10437
 11
-40.1289
 21
1.44525
  0
LINE
  8
0
 10
-40.1289
 20
1.44525
 11
-39.927
 21
1.76335
  0
LINE
  8
0
 10
-39.927
 20
1.76335
 11
-39.6869
 21
2.05363
  0
LINE
  8
0
 10
-39.6869
 20
2.05363
 11
-39.4123
 21
2.31154
  0
LINE
  8
0
 10
-39.4123
 20
2.31154
 11
-39.1075
 21
2.53297
  0
LINE
  8
0
 10
-39.1075
 20
2.53297
 11
-38.7773
 21
2.71448
  0
LINE
  8
0
 10
-38.7773
 20
2.71448
 11
-38.427
 21
2.85316
  0
LINE
  8
0
 10
-38.427
 20
2.85316
 11
-38.0621
 21
2.94685
  0
LINE
  8
0
 10
-38.0621
 20
2.94685
 11
-37.6884
 21
2.99408
  0
LINE
  8
0
 10
-37.6884
 20
2.99408
 11
-37.3116
 21
2.99408
  0
LINE
  8
0
 10
-37.3116
 20
2.99408
 11
-36.9379
 21
2.94685
  0
LINE
  8
0
 10
-36.9379
 20
2.94685
 11
-36.5729
 21
2.85316
  0
LINE
  8
0
 10
-36.5729
 20
2.85316
 11
-36.2227
 21
2.71448
  0
LINE
  8
0
 10
-36.2227
 20
2.71448
 11
-35.8925
 21
2.53297
  0
LINE
  8
0
 10
-35.8925
 20
2.53297
 11
-35.5877
 21
2.31154
  0
LINE
  8
0
 10
-35.5877
 20
2.31154
 11
-35.3131
 21
2.05363
  0
LINE
  8
0
 10
-35.3131
 20
2.05363
 11
-35.0729
 21
1.76335
  0
LINE
  8
0
 10
-35.0729
 20
1.76335
 11
-34.8711
 21
1.44525
  0
LINE
  8
0
 10
-34.8711
 20
1.44525
 11
-34.7107
 21
1.10437
  0
LINE
  8
0
 10
-34.7107
 20
1.10437
 11
-34.5942
 21
0.746063
  0
LINE
  8
0
 10
-34.5942
 20
0.746063
 11
-34.5237
 21
0.375992
  0
LINE
  8
0
 10
-34.5237
 20
0.375992
 11
-34.5
 21
0
  0
LINE
  8
0
 10
-34.5
 20
0
 11
-34.5237
 21
-0.375992
  0
LINE
  8
0
 10
-34.5237
 20
-0.375992
 11
-34.5942
 21
-0.746063
  0
LINE
  8
0
 10
-34.5942
 20
-0.746063
 11
-34.7107
 21
-1.10437
  0
LINE
  8
0
 10
-34.7107
 20
-1.10437
 11
-34.8711
 21
-1.44525
  0
LINE
  8
0
 10
-34.8711
 20
-1.44525
 11
-35.0729
 21
-1.76335
  0
LINE
  8
0
 10
-35.0729
 20
-1.76335
 11
-35.3131
 21
-2.05363
  0
LINE
  8
0
 10
-35.3131
 20
-2.05363
 11
-35.5877
 21
-2.31154
  0
LINE
  8
0
 10
-35.5877
 20
-2.31154
 11
-35.8925
 21
-2.53297
  0
LINE
  8
0
 10
-35.8925
 20
-2.53297
 11
-36.2227
 21
-2.71448
  0
LINE
  8
0
 10
-36.2227
 20
-2.71448
 11
-36.5729
 21
-2.85316
  0
LINE
  8
0
 10
-36.5729
 20
-2.85316
 11
-36.9379
 21
-2.94685
  0
LINE
  8
0
 10
-36.9379
 20
-2.94685
 11
-37.3116
 21
-2.99408
  0
LINE
  8
0
 10
-37.3116
 20
-2.99408
 11
-37.6884
 21
-2.99408
  0
LINE
  8
0
 10
37.3116
 20
-2.99408
 11
36.9379
 21
-2.94685
  0
LINE
  8
0
 10
36.9379
 20
-2.94685
 11
36.5729
 21
-2.85316
  0
LINE
  8
0
 10
36.5729
 20
-2.85316
 11
36.2227
 21
-2.71448
  0
LINE
  8
0
 10
36.2227
 20
-2.71448
 11
35.8925
 21
-2.53297
  0
LINE
  8
0
 10
35.8925
 20
-2.53297
 11
35.5877
 21
-2.31154
  0
LINE
  8
0
 10
35.5877
 20
-2.31154
 11
35.3131
 21
-2.05363
  0
LINE
  8
0
 10
35.3131
 20
-2.05363
 11
35.0729
 21
-1.76335
  0
LINE
  8
0
 10
35.0729
 20
-1.76335
 11
34.8711
 21
-1.44525
  0
LINE
  8
0
 10
34.8711
 20
-1.44525
 11
34.7107
 21
-1.10437
  0
LINE
  8
0
 10
34.7107
 20
-1.10437
 11
34.5942
 21
-0.746063
  0
LINE
  8
0
 10
34.5942
 20
-0.746063
 11
34.5237
 21
-0.375992
  0
LINE
  8
0
 10
34.5237
 20
-0.375992
 11
34.5
 21
0
  0
LINE
  8
0
 10
34.5
 20
0
 11
34.5237
 21
0.375992
  0
LINE
  8
0
 10
34.5237
 20
0.375992
 11
34.5942
 21
0.746063
  0
LINE
  8
0
 10
34.5942
 20
0.746063
 11
34.7107
 21
1.10437
  0
LINE
  8
0
 10
34.7107
 20
1.10437
 11
34.8711
 21
1.44525
  0
LINE
  8
0
 10
34.8711
 20
1.44525
 11
35.0729
 21
1.76335
  0
LINE
  8
0
 10
35.0729
 20
1.76335
 11
35.3131
 21
2.05363
  0
LINE
  8
0
 10
35.3131
 20
2.05363
 11
35.5877
 21
2.31154
  0
LINE
  8
0
 10
35.5877
 20
2.31154
 11
35.8925
 21
2.53297
  0
LINE
  8
0
 10
35.8925
 20
2.53297
 11
36.2227
 21
2.71448
  0
LINE
  8
0
 10
36.2227
 20
2.71448
 11
36.5729
 21
2.85316
  0
LINE
  8
0
 10
36.5729
 20
2.85316
 11
36.9379
 21
2.94685
  0
LINE
  8
0
 10
36.9379
 20
2.94685
 11
37.3116
 21
2.99408
  0
LINE
  8
0
 10
37.3116
 20
2.99408
 11
37.6884
 21
2.99408
  0
LINE
  8
0
 10
37.6884
 20
2.99408
 11
38.0621
 21
2.94685
  0
LINE
  8
0
 10
38.0621
 20
2.94685
 11
38.427
 21
2.85316
  0
LINE
  8
0
 10
38.427
 20
2.85316
 11
38.7773
 21
2.71448
  0
LINE
  8
0
 10
38.7773
 20
2.71448
 11
39.1075
 21
2.53297
  0
LINE
  8
0
 10
39.1075
 20
2.53297
 11
39.4123
 21
2.31154
  0
LINE
  8
0
 10
39.4123
 20
2.31154
 11
39.6869
 21
2.05363
  0
LINE
  8
0
 10
39.6869
 20
2.05363
 11
39.927
 21
1.76335
  0
LINE
  8
0
 10
39.927
 20
1.76335
 11
40.1289
 21
1.44525
  0
LINE
  8
0
 10
40.1289
 20
1.44525
 11
40.2893
 21
1.10437
  0
LINE
  8
0
 10
40.2893
 20
1.10437
 11
40.4057
 21
0.746063
  0
LINE
  8
0
 10
40.4057
 20
0.746063
 11
40.4763
 21
0.375992
  0
LINE
  8
0
 10
40.4763
 20
0.375992
 11
40.5
 21
0
  0
LINE
  8
0
 10
40.5
 20
0
 11
40.4763
 21
-0.375992
  0
LINE
  8
0
 10
40.4763
 20
-0.375992
 11
40.4057
 21
-0.746063
  0
LINE
  8
0
 10
40.4057
 20
-0.746063
 11
40.2893
 21
-1.10437
  0
LINE
  8
0
 10
40.2893
 20
-1.10437
 11
40.1289
 21
-1.44525
  0
LINE
  8
0
 10
40.1289
 20
-1.44525
 11
39.927
 21
-1.76335
  0
LINE
  8
0
 10
39.927
 20
-1.76335
 11
39.6869
 21
-2.05363
  0
LINE
  8
0
 10
39.6869
 20
-2.05363
 11
39.4123
 21
-2.31154
  0
LINE
  8
0
 10
39.4123
 20
-2.31154
 11
39.1075
 21
-2.53297
  0
LINE
  8
0
 10
39.1075
 20
-2.53297
 11
38.7773
 21
-2.71448
  0
LINE
  8
0
 10
38.7773
 20
-2.71448
 11
38.427
 21
-2.85316
  0
LINE
  8
0
 10
38.427
 20
-2.85316
 11
38.0621
 21
-2.94685
  0
LINE
  8
0
 10
38.0621
 20
-2.94685
 11
37.6884
 21
-2.99408
  0
LINE
  8
0
 10
37.6884
 20
-2.99408
 11
37.3116
 21
-2.99408
  0
LINE
  8
0
 10
37.3116
 20
-17.9941
 11
36.9379
 21
-17.9469
  0
LINE
  8
0
 10
36.9379
 20
-17.9469
 11
36.5729
 21
-17.8532
  0
LINE
  8
0
 10
36.5729
 20
-17.8532
 11
36.2227
 21
-17.7145
  0
LINE
  8
0
 10
36.2227
 20
-17.7145
 11
35.8925
 21
-17.533
  0
LINE
  8
0
 10
35.8925
 20
-17.533
 11
35.5877
 21
-17.3115
  0
LINE
  8
0
 10
35.5877
 20
-17.3115
 11
35.3131
 21
-17.0536
  0
LINE
  8
0
 10
35.3131
 20
-17.0536
 11
35.0729
 21
-16.7634
  0
LINE
  8
0
 10
35.0729
 20
-16.7634
 11
34.8711
 21
-16.4453
  0
LINE
  8
0
 10
34.8711
 20
-16.4453
 11
34.7107
 21
-16.1044
  0
LINE
  8
0
 10
34.7107
 20
-16.1044
 11
34.5942
 21
-15.7461
  0
LINE
  8
0
 10
34.5942
 20
-15.7461
 11
34.5237
 21
-15.376
  0
LINE
  8
0
 10
34.5237
 20
-15.376
 11
34.5
 21
-15
  0
LINE
  8
0
 10
34.5
 20
-15
 11
34.5237
 21
-14.624
  0
LINE
  8
0
 10
34.5237
 20
-14.624
 11
34.5942
 21
-14.2539
  0
LINE
  8
0
 10
34.5942
 20
-14.2539
 11
34.7107
 21
-13.8956
  0
LINE
  8
0
 10
34.7107
 20
-13.8956
 11
34.8711
 21
-13.5547
  0
LINE
  8
0
 10
34.8711
 20
-13.5547
 11
35.0729
 21
-13.2366
  0
LINE
  8
0
 10
35.0729
 20
-13.2366
 11
35.3131
 21
-12.9464
  0
LINE
  8
0
 10
35.3131
 20
-12.9464
 11
35.5877
 21
-12.6884
  0
LINE
  8
0
 10
35.5877
 20
-12.6884
 11
35.8925
 21
-12.467
  0
LINE
  8
0
 10
35.8925
 20
-12.467
 11
36.2227
 21
-12.2855
  0
LINE
  8
0
 10
36.2227
 20
-12.2855
 11
36.5729
 21
-12.1468
  0
LINE
  8
0
 10
36.5729
 20
-12.1468
 11
36.9379
 21
-12.0531
  0
LINE
  8
0
 10
36.9379
 20
-12.0531
 11
37.3116
 21
-12.0059
  0
LINE
  8
0
 10
37.3116
 20
-12.0059
 11
37.6884
 21
-12.0059
  0
LINE
  8
0
 10
37.6884
 20
-12.0059
 11
38.0621
 21
-12.0531
  0
LINE
  8
0
 10
38.0621
 20
-12.0531
 11
38.427
 21
-12.1468
  0
LINE
  8
0
 10
38.427
 20
-12.1468
 11
38.7773
 21
-12.2855
  0
LINE
  8
0
 10
38.7773
 20
-12.2855
 11
39.1075
 21
-12.467
  0
LINE
  8
0
 10
39.1075
 20
-12.467
 11
39.4123
 21
-12.6884
  0
LINE
  8
0
 10
39.4123
 20
-12.6884
 11
39.6869
 21
-12.9464
  0
LINE
  8
0
 10
39.6869
 20
-12.9464
 11
39.927
 21
-13.2366
  0
LINE
  8
0
 10
39.927
 20
-13.2366
 11
40.1289
 21
-13.5547
  0
LINE
  8
0
 10
40.1289
 20
-13.5547
 11
40.2893
 21
-13.8956
  0
LINE
  8
0
 10
40.2893
 20
-13.8956
 11
40.4057
 21
-14.2539
  0
LINE
  8
0
 10
40.4057
 20
-14.2539
 11
40.4763
 21
-14.624
  0
LINE
  8
0
 10
40.4763
 20
-14.624
 11
40.5
 21
-15
  0
LINE
  8
0
 10
40.5
 20
-15
 11
40.4763
 21
-15.376
  0
LINE
  8
0
 10
40.4763
 20
-15.376
 11
40.4057
 21
-15.7461
  0
LINE
  8
0
 10
40.4057
 20
-15.7461
 11
40.2893
 21
-16.1044
  0
LINE
  8
0
 10
40.2893
 20
-16.1044
 11
40.1289
 21
-16.4453
  0
LINE
  8
0
 10
40.1289
 20
-16.4453
 11
39.927
 21
-16.7634
  0
LINE
  8
0
 10
39.927
 20
-16.7634
 11
39.6869
 21
-17.0536
  0
LINE
  8
0
 10
39.6869
 20
-17.0536
 11
39.4123
 21
-17.3115
  0
LINE
  8
0
 10
39.4123
 20
-17.3115
 11
39.1075
 21
-17.533
  0
LINE
  8
0
 10
39.1075
 20
-17.533
 11
38.7773
 21
-17.7145
  0
LINE
  8
0
 10
38.7773
 20
-17.7145
 11
38.427
 21
-17.8532
  0
LINE
  8
0
 10
38.427
 20
-17.8532
 11
38.0621
 21
-17.9469
  0
LINE
  8
0
 10
38.0621
 20
-17.9469
 11
37.6884
 21
-17.9941
  0
LINE
  8
0
 10
37.6884
 20
-17.9941
 11
37.3116
 21
-17.9941
  0
LINE
  8
0
 10
-37.6884
 20
-17.9941
 11
-38.0621
 21
-17.9469
  0
LINE
  8
0
 10
-38.0621
 20
-17.9469
 11
-38.427
 21
-17.8532
  0
LINE
  8
0
 10
-38.427
 20
-17.8532
 11
-38.7773
 21
-17.7145
  0
LINE
  8
0
 10
-38.7773
 20
-17.7145
 11
-39.1075
 21
-17.533
  0
LINE
  8
0
 10
-39.1075
 20
-17.533
 11
-39.4123
 21
-17.3115
  0
LINE
  8
0
 10
-39.4123
 20
-17.3115
 11
-39.6869
 21
-17.0536
  0
LINE
  8
0
 10
-39.6869
 20
-17.0536
 11
-39.927
 21
-16.7634
  0
LINE
  8
0
 10
-39.927
 20
-16.7634
 11
-40.1289
 21
-16.4453
  0
LINE
  8
0
 10
-40.1289
 20
-16.4453
 11
-40.2893
 21
-16.1044
  0
LINE
  8
0
 10
-40.2893
 20
-16.1044
 11
-40.4057
 21
-15.7461
  0
LINE
  8
0
 10
-40.4057
 20
-15.7461
 11
-40.4763
 21
-15.376
  0
LINE
  8
0
 10
-40.4763
 20
-15.376
 11
-40.5
 21
-15
  0
LINE
  8
0
 10
-40.5
 20
-15
 11
-40.4763
 21
-14.624
  0
LINE
  8
0
 10
-40.4763
 20
-14.624
 11
-40.4057
 21
-14.2539
  0
LINE
  8
0
 10
-40.4057
 20
-14.2539
 11
-40.2893
 21
-13.8956
  0
LINE
  8
0
 10
-40.2893
 20
-13.8956
 11
-40.1289
 21
-13.5547
  0
LINE
  8
0
 10
-40.1289
 20
-13.5547
 11
-39.927
 21
-13.2366
  0
LINE
  8
0
 10
-39.927
 20
-13.2366
 11
-39.6869
 21
-12.9464
  0
LINE
  8
0
 10
-39.6869
 20
-12.9464
 11
-39.4123
 21
-12.6884
  0
LINE
  8
0
 10
-39.4123
 20
-12.6884
 11
-39.1075
 21
-12.467
  0
LINE
  8
0
 10
-39.1075
 20
-12.467
 11
-38.7773
 21
-12.2855
  0
LINE
  8
0
 10
-38.7773
 20
-12.2855
 11
-38.427
 21
-12.1468
  0
LINE
  8
0
 10
-38.427
 20
-12.1468
 11
-38.0621
 21
-12.0531
  0
LINE
  8
0
 10
-38.0621
 20
-12.0531
 11
-37.6884
 21
-12.0059
  0
LINE
  8
0
 10
-37.6884
 20
-12.0059
 11
-37.3116
 21
-12.0059
  0
LINE
  8
0
 10
-37.3116
 20
-12.0059
 11
-36.9379
 21
-12.0531
  0
LINE
  8
0
 10
-36.9379
 20
-12.0531
 11
-36.5729
 21
-12.1468
  0
LINE
  8
0
 10
-36.5729
 20
-12.1468
 11
-36.2227
 21
-12.2855
  0
LINE
  8
0
 10
-36.2227
 20
-12.2855
 11
-35.8925
 21
-12.467
  0
LINE
  8
0
 10
-35.8925
 20
-12.467
 11
-35.5877
 21
-12.6884
  0
LINE
  8
0
 10
-35.5877
 20
-12.6884
 11
-35.3131
 21
-12.9464
  0
LINE
  8
0
 10
-35.3131
 20
-12.9464
 11
-35.0729
 21
-13.2366
  0
LINE
  8
0
 10
-35.0729
 20
-13.2366
 11
-34.8711
 21
-13.5547
  0
LINE
  8
0
 10
-34.8711
 20
-13.5547
 11
-34.7107
 21
-13.8956
  0
LINE
  8
0
 10
-34.7107
 20
-13.8956
 11
-34.5942
 21
-14.2539
  0
LINE
  8
0
 10
-34.5942
 20
-14.2539
 11
-34.5237
 21
-14.624
  0
LINE
  8
0
 10
-34.5237
 20
-14.624
 11
-34.5
 21
-15
  0
LINE
  8
0
 10
-34.5
 20
-15
 11
-34.5237
 21
-15.376
  0
LINE
  8
0
 10
-34.5237
 20
-15.376
 11
-34.5942
 21
-15.7461
  0
LINE
  8
0
 10
-34.5942
 20
-15.7461
 11
-34.7107
 21
-16.1044
  0
LINE
  8
0
 10
-34.7107
 20
-16.1044
 11
-34.8711
 21
-16.4453
  0
LINE
  8
0
 10
-34.8711
 20
-16.4453
 11
-35.0729
 21
-16.7634
  0
LINE
  8
0
 10
-35.0729
 20
-16.7634
 11
-35.3131
 21
-17.0536
  0
LINE
  8
0
 10
-35.3131
 20
-17.0536
 11
-35.5877
 21
-17.3115
  0
LINE
  8
0
 10
-35.5877
 20
-17.3115
 11
-35.8925
 21
-17.533
  0
LINE
  8
0
 10
-35.8925
 20
-17.533
 11
-36.2227
 21
-17.7145
  0
LINE
  8
0
 10
-36.2227
 20
-17.7145
 11
-36.5729
 21
-17.8532
  0
LINE
  8
0
 10
-36.5729
 20
-17.8532
 11
-36.9379
 21
-17.9469
  0
LINE
  8
0
 10
-36.9379
 20
-17.9469
 11
-37.3116
 21
-17.9941
  0
LINE
  8
0
 10
-37.3116
 20
-17.9941
 11
-37.6884
 21
-17.9941
  0
LINE
  8
0
 10
28.1527
 20
-19.7969
 11
27.9595
 21
-19.7725
  0
LINE
  8
0
 10
27.9595
 20
-19.7725
 11
27.771
 21
-19.7241
  0
LINE
  8
0
 10
27.771
 20
-19.7241
 11
27.59
 21
-19.6525
  0
LINE
  8
0
 10
27.59
 20
-19.6525
 11
27.4195
 21
-19.5587
  0
LINE
  8
0
 10
27.4195
 20
-19.5587
 11
27.262
 21
-19.4443
  0
LINE
  8
0
 10
27.262
 20
-19.4443
 11
27.1201
 21
-19.311
  0
LINE
  8
0
 10
27.1201
 20
-19.311
 11
26.996
 21
-19.1611
  0
LINE
  8
0
 10
26.996
 20
-19.1611
 11
26.8917
 21
-18.9967
  0
LINE
  8
0
 10
26.8917
 20
-18.9967
 11
26.8088
 21
-18.8206
  0
LINE
  8
0
 10
26.8088
 20
-18.8206
 11
26.7487
 21
-18.6355
  0
LINE
  8
0
 10
26.7487
 20
-18.6355
 11
26.7122
 21
-18.4443
  0
LINE
  8
0
 10
26.7122
 20
-18.4443
 11
26.7
 21
-18.25
  0
LINE
  8
0
 10
26.7
 20
-18.25
 11
26.7122
 21
-18.0557
  0
LINE
  8
0
 10
26.7122
 20
-18.0557
 11
26.7487
 21
-17.8645
  0
LINE
  8
0
 10
26.7487
 20
-17.8645
 11
26.8088
 21
-17.6794
  0
LINE
  8
0
 10
26.8088
 20
-17.6794
 11
26.8917
 21
-17.5033
  0
LINE
  8
0
 10
26.8917
 20
-17.5033
 11
26.996
 21
-17.3389
  0
LINE
  8
0
 10
26.996
 20
-17.3389
 11
27.1201
 21
-17.1889
  0
LINE
  8
0
 10
27.1201
 20
-17.1889
 11
27.262
 21
-17.0557
  0
LINE
  8
0
 10
27.262
 20
-17.0557
 11
27.4195
 21
-16.9413
  0
LINE
  8
0
 10
27.4195
 20
-16.9413
 11
27.59
 21
-16.8475
  0
LINE
  8
0
 10
27.59
 20
-16.8475
 11
27.771
 21
-16.7759
  0
LINE
  8
0
 10
27.771
 20
-16.7759
 11
27.9595
 21
-16.7274
  0
LINE
  8
0
 10
27.9595
 20
-16.7274
 11
28.1527
 21
-16.703
  0
LINE
  8
0
 10
28.1527
 20
-16.703
 11
28.3473
 21
-16.703
  0
LINE
  8
0
 10
28.3473
 20
-16.703
 11
28.5404
 21
-16.7274
  0
LINE
  8
0
 10
28.5404
 20
-16.7274
 11
28.729
 21
-16.7759
  0
LINE
  8
0
 10
28.729
 20
-16.7759
 11
28.91
 21
-16.8475
  0
LINE
  8
0
 10
28.91
 20
-16.8475
 11
29.0805
 21
-16.9413
  0
LINE
  8
0
 10
29.0805
 20
-16.9413
 11
29.238
 21
-17.0557
  0
LINE
  8
0
 10
29.238
 20
-17.0557
 11
29.3799
 21
-17.1889
  0
LINE
  8
0
 10
29.3799
 20
-17.1889
 11
29.504
 21
-17.3389
  0
LINE
  8
0
 10
29.504
 20
-17.3389
 11
29.6083
 21
-17.5033
  0
LINE
  8
0
 10
29.6083
 20
-17.5033
 11
29.6911
 21
-17.6794
  0
LINE
  8
0
 10
29.6911
 20
-17.6794
 11
29.7513
 21
-17.8645
  0
LINE
  8
0
 10
29.7513
 20
-17.8645
 11
29.7878
 21
-18.0557
  0
LINE
  8
0
 10
29.7878
 20
-18.0557
 11
29.8
 21
-18.25
  0
LINE
  8
0
 10
29.8
 20
-18.25
 11
29.7878
 21
-18.4443
  0
LINE
  8
0
 10
29.7878
 20
-18.4443
 11
29.7513
 21
-18.6355
  0
LINE
  8
0
 10
29.7513
 20
-18.6355
 11
29.6911
 21
-18.8206
  0
LINE
  8
0
 10
29.6911
 20
-18.8206
 11
29.6083
 21
-18.9967
  0
LINE
  8
0
 10
29.6083
 20
-18.9967
 11
29.504
 21
-19.1611
  0
LINE
  8
0
 10
29.504
 20
-19.1611
 11
29.3799
 21
-19.311
  0
LINE
  8
0
 10
29.3799
 20
-19.311
 11
29.238
 21
-19.4443
  0
LINE
  8
0
 10
29.238
 20
-19.4443
 11
29.0805
 21
-19.5587
  0
LINE
  8
0
 10
29.0805
 20
-19.5587
 11
28.91
 21
-19.6525
  0
LINE
  8
0
 10
28.91
 20
-19.6525
 11
28.729
 21
-19.7241
  0
LINE
  8
0
 10
28.729
 20
-19.7241
 11
28.5404
 21
-19.7725
  0
LINE
  8
0
 10
28.5404
 20
-19.7725
 11
28.3473
 21
-19.7969
  0
LINE
  8
0
 10
28.3473
 20
-19.7969
 11
28.1527
 21
-19.7969
  0
LINE
  8
0
 10
-28.3473
 20
-19.7969
 11
-28.5404
 21
-19.7725
  0
LINE
  8
0
 10
-28.5404
 20
-19.7725
 11
-28.729
 21
-19.7241
  0
LINE
  8
0
 10
-28.729
 20
-19.7241
 11
-28.91
 21
-19.6525
  0
LINE
  8
0
 10
-28.91
 20
-19.6525
 11
-29.0805
 21
-19.5587
  0
LINE
  8
0
 10
-29.0805
 20
-19.5587
 11
-29.238
 21
-19.4443
  0
LINE
  8
0
 10
-29.238
 20
-19.4443
 11
-29.3799
 21
-19.311
  0
LINE
  8
0
 10
-29.3799
 20
-19.311
 11
-29.504
 21
-19.1611
  0
LINE
  8
0
 10
-29.504
 20
-19.1611
 11
-29.6083
 21
-18.9967
  0
LINE
  8
0
 10
-29.6083
 20
-18.9967
 11
-29.6911
 21
-18.8206
  0
LINE
  8
0
 10
-29.6911
 20
-18.8206
 11
-29.7513
 21
-18.6355
  0
LINE
  8
0
 10
-29.7513
 20
-18.6355
 11
-29.7878
 21
-18.4443
  0
LINE
  8
0
 10
-29.7878
 20
-18.4443
 11
-29.8
 21
-18.25
  0
LINE
  8
0
 10
-29.8
 20
-18.25
 11
-29.7878
 21
-18.0557
  0
LINE
  8
0
 10
-29.7878
 20
-18.0557
 11
-29.7513
 21
-17.8645
  0
LINE
  8
0
 10
-29.7513
 20
-17.8645
 11
-29.6911
 21
-17.6794
  0
LINE
  8
0
 10
-29.6911
 20
-17.6794
 11
-29.6083
 21
-17.5033
  0
LINE
  8
0
 10
-29.6083
 20
-17.5033
 11
-29.504
 21
-17.3389
  0
LINE
  8
0
 10
-29.504
 20
-17.3389
 11
-29.3799
 21
-17.1889
  0
LINE
  8
0
 10
-29.3799
 20
-17.1889
 11
-29.238
 21
-17.0557
  0
LINE
  8
0
 10
-29.238
 20
-17.0557
 11
-29.0805
 21
-16.9413
  0
LINE
  8
0
 10
-29.0805
 20
-16.9413
 11
-28.91
 21
-16.8475
  0
LINE
  8
0
 10
-28.91
 20
-16.8475
 11
-28.729
 21
-16.7759
  0
LINE
  8
0
 10
-28.729
 20
-16.7759
 11
-28.5404
 21
-16.7274
  0
LINE
  8
0
 10
-28.5404
 20
-16.7274
 11
-28.3473
 21
-16.703
  0
LINE
  8
0
 10
-28.3473
 20
-16.703
 11
-28.1527
 21
-16.703
  0
LINE
  8
0
 10
-28.1527
 20
-16.703
 11
-27.9595
 21
-16.7274
  0
LINE
  8
0
 10
-27.9595
 20
-16.7274
 11
-27.771
 21
-16.7759
  0
LINE
  8
0
 10
-27.771
 20
-16.7759
 11
-27.59
 21
-16.8475
  0
LINE
  8
0
 10
-27.59
 20
-16.8475
 11
-27.4195
 21
-16.9413
  0
LINE
  8
0
 10
-27.4195
 20
-16.9413
 11
-27.262
 21
-17.0557
  0
LINE
  8
0
 10
-27.262
 20
-17.0557
 11
-27.1201
 21
-17.1889
  0
LINE
  8
0
 10
-27.1201
 20
-17.1889
 11
-26.996
 21
-17.3389
  0
LINE
  8
0
 10
-26.996
 20
-17.3389
 11
-26.8917
 21
-17.5033
  0
LINE
  8
0
 10
-26.8917
 20
-17.5033
 11
-26.8088
 21
-17.6794
  0
LINE
  8
0
 10
-26.8088
 20
-17.6794
 11
-26.7487
 21
-17.8645
  0
LINE
  8
0
 10
-26.7487
 20
-17.8645
 11
-26.7122
 21
-18.0557
  0
LINE
  8
0
 10
-26.7122
 20
-18.0557
 11
-26.7
 21
-18.25
  0
LINE
  8
0
 10
-26.7
 20
-18.25
 11
-26.7122
 21
-18.4443
  0
LINE
  8
0
 10
-26.7122
 20
-18.4443
 11
-26.7487
 21
-18.6355
  0
LINE
  8
0
 10
-26.7487
 20
-18.6355
 11
-26.8088
 21
-18.8206
  0
LINE
  8
0
 10
-26.8088
 20
-18.8206
 11
-26.8917
 21
-18.9967
  0
LINE
  8
0
 10
-26.8917
 20
-18.9967
 11
-26.996
 21
-19.1611
  0
LINE
  8
0
 10
-26.996
 20
-19.1611
 11
-27.1201
 21
-19.311
  0
LINE
  8
0
 10
-27.1201
 20
-19.311
 11
-27.262
 21
-19.4443
  0
LINE
  8
0
 10
-27.262
 20
-19.4443
 11
-27.4195
 21
-19.5587
  0
LINE
  8
0
 10
-27.4195
 20
-19.5587
 11
-27.59
 21
-19.6525
  0
LINE
  8
0
 10
-27.59
 20
-19.6525
 11
-27.771
 21
-19.7241
  0
LINE
  8
0
 10
-27.771
 20
-19.7241
 11
-27.9595
 21
-19.7725
  0
LINE
  8
0
 10
-27.9595
 20
-19.7725
 11
-28.1527
 21
-19.7969
  0
LINE
  8
0
 10
-28.1527
 20
-19.7969
 11
-28.3473
 21
-19.7969
  0
LINE
  8
0
 10
-37.6884
 20
-32.9941
 11
-38.0621
 21
-32.9469
  0
LINE
  8
0
 10
-38.0621
 20
-32.9469
 11
-38.427
 21
-32.8532
  0
LINE
  8
0
 10
-38.427
 20
-32.8532
 11
-38.7773
 21
-32.7145
  0
LINE
  8
0
 10
-38.7773
 20
-32.7145
 11
-39.1075
 21
-32.533
  0
LINE
  8
0
 10
-39.1075
 20
-32.533
 11
-39.4123
 21
-32.3115
  0
LINE
  8
0
 10
-39.4123
 20
-32.3115
 11
-39.6869
 21
-32.0536
  0
LINE
  8
0
 10
-39.6869
 20
-32.0536
 11
-39.927
 21
-31.7634
  0
LINE
  8
0
 10
-39.927
 20
-31.7634
 11
-40.1289
 21
-31.4453
  0
LINE
  8
0
 10
-40.1289
 20
-31.4453
 11
-40.2893
 21
-31.1044
  0
LINE
  8
0
 10
-40.2893
 20
-31.1044
 11
-40.4057
 21
-30.7461
  0
LINE
  8
0
 10
-40.4057
 20
-30.7461
 11
-40.4763
 21
-30.376
  0
LINE
  8
0
 10
-40.4763
 20
-30.376
 11
-40.5
 21
-30
  0
LINE
  8
0
 10
-40.5
 20
-30
 11
-40.4763
 21
-29.624
  0
LINE
  8
0
 10
-40.4763
 20
-29.624
 11
-40.4057
 21
-29.2539
  0
LINE
  8
0
 10
-40.4057
 20
-29.2539
 11
-40.2893
 21
-28.8956
  0
LINE
  8
0
 10
-40.2893
 20
-28.8956
 11
-40.1289
 21
-28.5547
  0
LINE
  8
0
 10
-40.1289
 20
-28.5547
 11
-39.927
 21
-28.2366
  0
LINE
  8
0
 10
-39.927
 20
-28.2366
 11
-39.6869
 21
-27.9464
  0
LINE
  8
0
 10
-39.6869
 20
-27.9464
 11
-39.4123
 21
-27.6884
  0
LINE
  8
0
 10
-39.4123
 20
-27.6884
 11
-39.1075
 21
-27.467
  0
LINE
  8
0
 10
-39.1075
 20
-27.467
 11
-38.7773
 21
-27.2855
  0
LINE
  8
0
 10
-38.7773
 20
-27.2855
 11
-38.427
 21
-27.1468
  0
LINE
  8
0
 10
-38.427
 20
-27.1468
 11
-38.0621
 21
-27.0531
  0
LINE
  8
0
 10
-38.0621
 20
-27.0531
 11
-37.6884
 21
-27.0059
  0
LINE
  8
0
 10
-37.6884
 20
-27.0059
 11
-37.3116
 21
-27.0059
  0
LINE
  8
0
 10
-37.3116
 20
-27.0059
 11
-36.9379
 21
-27.0531
  0
LINE
  8
0
 10
-36.9379
 20
-27.0531
 11
-36.5729
 21
-27.1468
  0
LINE
  8
0
 10
-36.5729
 20
-27.1468
 11
-36.2227
 21
-27.2855
  0
LINE
  8
0
 10
-36.2227
 20
-27.2855
 11
-35.8925
 21
-27.467
  0
LINE
  8
0
 10
-35.8925
 20
-27.467
 11
-35.5877
 21
-27.6884
  0
LINE
  8
0
 10
-35.5877
 20
-27.6884
 11
-35.3131
 21
-27.9464
  0
LINE
  8
0
 10
-35.3131
 20
-27.9464
 11
-35.0729
 21
-28.2366
  0
LINE
  8
0
 10
-35.0729
 20
-28.2366
 11
-34.8711
 21
-28.5547
  0
LINE
  8
0
 10
-34.8711
 20
-28.5547
 11
-34.7107
 21
-28.8956
  0
LINE
  8
0
 10
-34.7107
 20
-28.8956
 11
-34.5942
 21
-29.2539
  0
LINE
  8
0
 10
-34.5942
 20
-29.2539
 11
-34.5237
 21
-29.624
  0
LINE
  8
0
 10
-34.5237
 20
-29.624
 11
-34.5
 21
-30
  0
LINE
  8
0
 10
-34.5
 20
-30
 11
-34.5237
 21
-30.376
  0
LINE
  8
0
 10
-34.5237
 20
-30.376
 11
-34.5942
 21
-30.7461
  0
LINE
  8
0
 10
-34.5942
 20
-30.7461
 11
-34.7107
 21
-31.1044
  0
LINE
  8
0
 10
-34.7107
 20
-31.1044
 11
-34.8711
 21
-31.4453
  0
LINE
  8
0
 10
-34.8711
 20
-31.4453
 11
-35.0729
 21
-31.7634
  0
LINE
  8
0
 10
-35.0729
 20
-31.7634
 11
-35.3131
 21
-32.0536
  0
LINE
  8
0
 10
-35.3131
 20
-32.0536
 11
-35.5877
 21
-32.3115
  0
LINE
  8
0
 10
-35.5877
 20
-32.3115
 11
-35.8925
 21
-32.533
  0
LINE
  8
0
 10
-35.8925
 20
-32.533
 11
-36.2227
 21
-32.7145
  0
LINE
  8
0
 10
-36.2227
 20
-32.7145
 11
-36.5729
 21
-32.8532
  0
LINE
  8
0
 10
-36.5729
 20
-32.8532
 11
-36.9379
 21
-32.9469
  0
LINE
  8
0
 10
-36.9379
 20
-32.9469
 11
-37.3116
 21
-32.9941
  0
LINE
  8
0
 10
-37.3116
 20
-32.9941
 11
-37.6884
 21
-32.9941
  0
LINE
  8
0
 10
7.31161
 20
-32.9941
 11
6.93785
 21
-32.9469
  0
LINE
  8
0
 10
6.93785
 20
-32.9469
 11
6.57294
 21
-32.8532
  0
LINE
  8
0
 10
6.57294
 20
-32.8532
 11
6.22266
 21
-32.7145
  0
LINE
  8
0
 10
6.22266
 20
-32.7145
 11
5.89252
 21
-32.533
  0
LINE
  8
0
 10
5.89252
 20
-32.533
 11
5.58772
 21
-32.3115
  0
LINE
  8
0
 10
5.58772
 20
-32.3115
 11
5.31308
 21
-32.0536
  0
LINE
  8
0
 10
5.31308
 20
-32.0536
 11
5.07294
 21
-31.7634
  0
LINE
  8
0
 10
5.07294
 20
-31.7634
 11
4.87108
 21
-31.4453
  0
LINE
  8
0
 10
4.87108
 20
-31.4453
 11
4.71066
 21
-31.1044
  0
LINE
  8
0
 10
4.71066
 20
-31.1044
 11
4.59424
 21
-30.7461
  0
LINE
  8
0
 10
4.59424
 20
-30.7461
 11
4.52365
 21
-30.376
  0
LINE
  8
0
 10
4.52365
 20
-30.376
 11
4.5
 21
-30
  0
LINE
  8
0
 10
4.5
 20
-30
 11
4.52365
 21
-29.624
  0
LINE
  8
0
 10
4.52365
 20
-29.624
 11
4.59424
 21
-29.2539
  0
LINE
  8
0
 10
4.59424
 20
-29.2539
 11
4.71066
 21
-28.8956
  0
LINE
  8
0
 10
4.71066
 20
-28.8956
 11
4.87108
 21
-28.5547
  0
LINE
  8
0
 10
4.87108
 20
-28.5547
 11
5.07294
 21
-28.2366
  0
LINE
  8
0
 10
5.07294
 20
-28.2366
 11
5.31308
 21
-27.9464
  0
LINE
  8
0
 10
5.31308
 20
-27.9464
 11
5.58772
 21
-27.6884
  0
LINE
  8
0
 10
5.58772
 20
-27.6884
 11
5.89252
 21
-27.467
  0
LINE
  8
0
 10
5.89252
 20
-27.467
 11
6.22266
 21
-27.2855
  0
LINE
  8
0
 10
6.22266
 20
-27.2855
 11
6.57294
 21
-27.1468
  0
LINE
  8
0
 10
6.57294
 20
-27.1468
 11
6.93785
 21
-27.0531
  0
LINE
  8
0
 10
6.93785
 20
-27.0531
 11
7.31161
 21
-27.0059
  0
LINE
  8
0
 10
7.31161
 20
-27.0059
 11
7.68837
 21
-27.0059
  0
LINE
  8
0
 10
7.68837
 20
-27.0059
 11
8.06213
 21
-27.0531
  0
LINE
  8
0
 10
8.06213
 20
-27.0531
 11
8.42705
 21
-27.1468
  0
LINE
  8
0
 10
8.42705
 20
-27.1468
 11
8.77733
 21
-27.2855
  0
LINE
  8
0
 10
8.77733
 20
-27.2855
 11
9.10747
 21
-27.467
  0
LINE
  8
0
 10
9.10747
 20
-27.467
 11
9.41226
 21
-27.6884
  0
LINE
  8
0
 10
9.41226
 20
-27.6884
 11
9.6869
 21
-27.9464
  0
LINE
  8
0
 10
9.6869
 20
-27.9464
 11
9.92705
 21
-28.2366
  0
LINE
  8
0
 10
9.92705
 20
-28.2366
 11
10.1289
 21
-28.5547
  0
LINE
  8
0
 10
10.1289
 20
-28.5547
 11
10.2893
 21
-28.8956
  0
LINE
  8
0
 10
10.2893
 20
-28.8956
 11
10.4057
 21
-29.2539
  0
LINE
  8
0
 10
10.4057
 20
-29.2539
 11
10.4763
 21
-29.624
  0
LINE
  8
0
 10
10.4763
 20
-29.624
 11
10.5
 21
-30
  0
LINE
  8
0
 10
10.5
 20
-30
 11
10.4763
 21
-30.376
  0
LINE
  8
0
 10
10.4763
 20
-30.376
 11
10.4057
 21
-30.7461
  0
LINE
  8
0
 10
10.4057
 20
-30.7461
 11
10.2893
 21
-31.1044
  0
LINE
  8
0
 10
10.2893
 20
-31.1044
 11
10.1289
 21
-31.4453
  0
LINE
  8
0
 10
10.1289
 20
-31.4453
 11
9.92705
 21
-31.7634
  0
LINE
  8
0
 10
9.92705
 20
-31.7634
 11
9.6869
 21
-32.0536
  0
LINE
  8
0
 10
9.6869
 20
-32.0536
 11
9.41226
 21
-32.3115
  0
LINE
  8
0
 10
9.41226
 20
-32.3115
 11
9.10747
 21
-32.533
  0
LINE
  8
0
 10
9.10747
 20
-32.533
 11
8.77733
 21
-32.7145
  0
LINE
  8
0
 10
8.77733
 20
-32.7145
 11
8.42705
 21
-32.8532
  0
LINE
  8
0
 10
8.42705
 20
-32.8532
 11
8.06213
 21
-32.9469
  0
LINE
  8
0
 10
8.06213
 20
-32.9469
 11
7.68837
 21
-32.9941
  0
LINE
  8
0
 10
7.68837
 20
-32.9941
 11
7.31161
 21
-32.9941
  0
LINE
  8
0
 10
-22.6884
 20
-32.9941
 11
-23.0621
 21
-32.9469
  0
LINE
  8
0
 10
-23.0621
 20
-32.9469
 11
-23.427
 21
-32.8532
  0
LINE
  8
0
 10
-23.427
 20
-32.8532
 11
-23.7773
 21
-32.7145
  0
LINE
  8
0
 10
-23.7773
 20
-32.7145
 11
-24.1075
 21
-32.533
  0
LINE
  8
0
 10
-24.1075
 20
-32.533
 11
-24.4123
 21
-32.3115
  0
LINE
  8
0
 10
-24.4123
 20
-32.3115
 11
-24.6869
 21
-32.0536
  0
LINE
  8
0
 10
-24.6869
 20
-32.0536
 11
-24.927
 21
-31.7634
  0
LINE
  8
0
 10
-24.927
 20
-31.7634
 11
-25.1289
 21
-31.4453
  0
LINE
  8
0
 10
-25.1289
 20
-31.4453
 11
-25.2893
 21
-31.1044
  0
LINE
  8
0
 10
-25.2893
 20
-31.1044
 11
-25.4057
 21
-30.7461
  0
LINE
  8
0
 10
-25.4057
 20
-30.7461
 11
-25.4763
 21
-30.376
  0
LINE
  8
0
 10
-25.4763
 20
-30.376
 11
-25.5
 21
-30
  0
LINE
  8
0
 10
-25.5
 20
-30
 11
-25.4763
 21
-29.624
  0
LINE
  8
0
 10
-25.4763
 20
-29.624
 11
-25.4057
 21
-29.2539
  0
LINE
  8
0
 10
-25.4057
 20
-29.2539
 11
-25.2893
 21
-28.8956
  0
LINE
  8
0
 10
-25.2893
 20
-28.8956
 11
-25.1289
 21
-28.5547
  0
LINE
  8
0
 10
-25.1289
 20
-28.5547
 11
-24.927
 21
-28.2366
  0
LINE
  8
0
 10
-24.927
 20
-28.2366
 11
-24.6869
 21
-27.9464
  0
LINE
  8
0
 10
-24.6869
 20
-27.9464
 11
-24.4123
 21
-27.6884
  0
LINE
  8
0
 10
-24.4123
 20
-27.6884
 11
-24.1075
 21
-27.467
  0
LINE
  8
0
 10
-24.1075
 20
-27.467
 11
-23.7773
 21
-27.2855
  0
LINE
  8
0
 10
-23.7773
 20
-27.2855
 11
-23.427
 21
-27.1468
  0
LINE
  8
0
 10
-23.427
 20
-27.1468
 11
-23.0621
 21
-27.0531
  0
LINE
  8
0
 10
-23.0621
 20
-27.0531
 11
-22.6884
 21
-27.0059
  0
LINE
  8
0
 10
-22.6884
 20
-27.0059
 11
-22.3116
 21
-27.0059
  0
LINE
  8
0
 10
-22.3116
 20
-27.0059
 11
-21.9379
 21
-27.0531
  0
LINE
  8
0
 10
-21.9379
 20
-27.0531
 11
-21.5729
 21
-27.1468
  0
LINE
  8
0
 10
-21.5729
 20
-27.1468
 11
-21.2227
 21
-27.2855
  0
LINE
  8
0
 10
-21.2227
 20
-27.2855
 11
-20.8925
 21
-27.467
  0
LINE
  8
0
 10
-20.8925
 20
-27.467
 11
-20.5877
 21
-27.6884
  0
LINE
  8
0
 10
-20.5877
 20
-27.6884
 11
-20.3131
 21
-27.9464
  0
LINE
  8
0
 10
-20.3131
 20
-27.9464
 11
-20.0729
 21
-28.2366
  0
LINE
  8
0
 10
-20.0729
 20
-28.2366
 11
-19.8711
 21
-28.5547
  0
LINE
  8
0
 10
-19.8711
 20
-28.5547
 11
-19.7107
 21
-28.8956
  0
LINE
  8
0
 10
-19.7107
 20
-28.8956
 11
-19.5942
 21
-29.2539
  0
LINE
  8
0
 10
-19.5942
 20
-29.2539
 11
-19.5237
 21
-29.624
  0
LINE
  8
0
 10
-19.5237
 20
-29.624
 11
-19.5
 21
-30
  0
LINE
  8
0
 10
-19.5
 20
-30
 11
-19.5237
 21
-30.376
  0
LINE
  8
0
 10
-19.5237
 20
-30.376
 11
-19.5942
 21
-30.7461
  0
LINE
  8
0
 10
-19.5942
 20
-30.7461
 11
-19.7107
 21
-31.1044
  0
LINE
  8
0
 10
-19.7107
 20
-31.1044
 11
-19.8711
 21
-31.4453
  0
LINE
  8
0
 10
-19.8711
 20
-31.4453
 11
-20.0729
 21
-31.7634
  0
LINE
  8
0
 10
-20.0729
 20
-31.7634
 11
-20.3131
 21
-32.0536
  0
LINE
  8
0
 10
-20.3131
 20
-32.0536
 11
-20.5877
 21
-32.3115
  0
LINE
  8
0
 10
-20.5877
 20
-32.3115
 11
-20.8925
 21
-32.533
  0
LINE
  8
0
 10
-20.8925
 20
-32.533
 11
-21.2227
 21
-32.7145
  0
LINE
  8
0
 10
-21.2227
 20
-32.7145
 11
-21.5729
 21
-32.8532
  0
LINE
  8
0
 10
-21.5729
 20
-32.8532
 11
-21.9379
 21
-32.9469
  0
LINE
  8
0
 10
-21.9379
 20
-32.9469
 11
-22.3116
 21
-32.9941
  0
LINE
  8
0
 10
-22.3116
 20
-32.9941
 11
-22.6884
 21
-32.9941
  0
LINE
  8
0
 10
-7.68837
 20
-32.9941
 11
-8.06213
 21
-32.9469
  0
LINE
  8
0
 10
-8.06213
 20
-32.9469
 11
-8.42705
 21
-32.8532
  0
LINE
  8
0
 10
-8.42705
 20
-32.8532
 11
-8.77733
 21
-32.7145
  0
LINE
  8
0
 10
-8.77733
 20
-32.7145
 11
-9.10747
 21
-32.533
  0
LINE
  8
0
 10
-9.10747
 20
-32.533
 11
-9.41226
 21
-32.3115
  0
LINE
  8
0
 10
-9.41226
 20
-32.3115
 11
-9.6869
 21
-32.0536
  0
LINE
  8
0
 10
-9.6869
 20
-32.0536
 11
-9.92705
 21
-31.7634
  0
LINE
  8
0
 10
-9.92705
 20
-31.7634
 11
-10.1289
 21
-31.4453
  0
LINE
  8
0
 10
-10.1289
 20
-31.4453
 11
-10.2893
 21
-31.1044
  0
LINE
  8
0
 10
-10.2893
 20
-31.1044
 11
-10.4057
 21
-30.7461
  0
LINE
  8
0
 10
-10.4057
 20
-30.7461
 11
-10.4763
 21
-30.376
  0
LINE
  8
0
 10
-10.4763
 20
-30.376
 11
-10.5
 21
-30
  0
LINE
  8
0
 10
-10.5
 20
-30
 11
-10.4763
 21
-29.624
  0
LINE
  8
0
 10
-10.4763
 20
-29.624
 11
-10.4057
 21
-29.2539
  0
LINE
  8
0
 10
-10.4057
 20
-29.2539
 11
-10.2893
 21
-28.8956
  0
LINE
  8
0
 10
-10.2893
 20
-28.8956
 11
-10.1289
 21
-28.5547
  0
LINE
  8
0
 10
-10.1289
 20
-28.5547
 11
-9.92705
 21
-28.2366
  0
LINE
  8
0
 10
-9.92705
 20
-28.2366
 11
-9.6869
 21
-27.9464
  0
LINE
  8
0
 10
-9.6869
 20
-27.9464
 11
-9.41226
 21
-27.6884
  0
LINE
  8
0
 10
-9.41226
 20
-27.6884
 11
-9.10747
 21
-27.467
  0
LINE
  8
0
 10
-9.10747
 20
-27.467
 11
-8.77733
 21
-27.2855
  0
LINE
  8
0
 10
-8.77733
 20
-27.2855
 11
-8.42705
 21
-27.1468
  0
LINE
  8
0
 10
-8.42705
 20
-27.1468
 11
-8.06213
 21
-27.0531
  0
LINE
  8
0
 10
-8.06213
 20
-27.0531
 11
-7.68837
 21
-27.0059
  0
LINE
  8
0
 10
-7.68837
 20
-27.0059
 11
-7.31161
 21
-27.0059
  0
LINE
  8
0
 10
-7.31161
 20
-27.0059
 11
-6.93785
 21
-27.0531
  0
LINE
  8
0
 10
-6.93785
 20
-27.0531
 11
-6.57294
 21
-27.1468
  0
LINE
  8
0
 10
-6.57294
 20
-27.1468
 11
-6.22266
 21
-27.2855
  0
LINE
  8
0
 10
-6.22266
 20
-27.2855
 11
-5.89252
 21
-27.467
  0
LINE
  8
0
 10
-5.89252
 20
-27.467
 11
-5.58772
 21
-27.6884
  0
LINE
  8
0
 10
-5.58772
 20
-27.6884
 11
-5.31308
 21
-27.9464
  0
LINE
  8
0
 10
-5.31308
 20
-27.9464
 11
-5.07294
 21
-28.2366
  0
LINE
  8
0
 10
-5.07294
 20
-28.2366
 11
-4.87108
 21
-28.5547
  0
LINE
  8
0
 10
-4.87108
 20
-28.5547
 11
-4.71066
 21
-28.8956
  0
LINE
  8
0
 10
-4.71066
 20
-28.8956
 11
-4.59424
 21
-29.2539
  0
LINE
  8
0
 10
-4.59424
 20
-29.2539
 11
-4.52365
 21
-29.624
  0
LINE
  8
0
 10
-4.52365
 20
-29.624
 11
-4.5
 21
-30
  0
LINE
  8
0
 10
-4.5
 20
-30
 11
-4.52365
 21
-30.376
  0
LINE
  8
0
 10
-4.52365
 20
-30.376
 11
-4.59424
 21
-30.7461
  0
LINE
  8
0
 10
-4.59424
 20
-30.7461
 11
-4.71066
 21
-31.1044
  0
LINE
  8
0
 10
-4.71066
 20
-31.1044
 11
-4.87108
 21
-31.4453
  0
LINE
  8
0
 10
-4.87108
 20
-31.4453
 11
-5.07294
 21
-31.7634
  0
LINE
  8
0
 10
-5.07294
 20
-31.7634
 11
-5.31308
 21
-32.0536
  0
LINE
  8
0
 10
-5.31308
 20
-32.0536
 11
-5.58772
 21
-32.3115
  0
LINE
  8
0
 10
-5.58772
 20
-32.3115
 11
-5.89252
 21
-32.533
  0
LINE
  8
0
 10
-5.89252
 20
-32.533
 11
-6.22266
 21
-32.7145
  0
LINE
  8
0
 10
-6.22266
 20
-32.7145
 11
-6.57294
 21
-32.8532
  0
LINE
  8
0
 10
-6.57294
 20
-32.8532
 11
-6.93785
 21
-32.9469
  0
LINE
  8
0
 10
-6.93785
 20
-32.9469
 11
-7.31161
 21
-32.9941
  0
LINE
  8
0
 10
-7.31161
 20
-32.9941
 11
-7.68837
 21
-32.9941
  0
LINE
  8
0
 10
37.3116
 20
-32.9941
 11
36.9379
 21
-32.9469
  0
LINE
  8
0
 10
36.9379
 20
-32.9469
 11
36.5729
 21
-32.8532
  0
LINE
  8
0
 10
36.5729
 20
-32.8532
 11
36.2227
 21
-32.7145
  0
LINE
  8
0
 10
36.2227
 20
-32.7145
 11
35.8925
 21
-32.533
  0
LINE
  8
0
 10
35.8925
 20
-32.533
 11
35.5877
 21
-32.3115
  0
LINE
  8
0
 10
35.5877
 20
-32.3115
 11
35.3131
 21
-32.0536
  0
LINE
  8
0
 10
35.3131
 20
-32.0536
 11
35.0729
 21
-31.7634
  0
LINE
  8
0
 10
35.0729
 20
-31.7634
 11
34.8711
 21
-31.4453
  0
LINE
  8
0
 10
34.8711
 20
-31.4453
 11
34.7107
 21
-31.1044
  0
LINE
  8
0
 10
34.7107
 20
-31.1044
 11
34.5942
 21
-30.7461
  0
LINE
  8
0
 10
34.5942
 20
-30.7461
 11
34.5237
 21
-30.376
  0
LINE
  8
0
 10
34.5237
 20
-30.376
 11
34.5
 21
-30
  0
LINE
  8
0
 10
34.5
 20
-30
 11
34.5237
 21
-29.624
  0
LINE
  8
0
 10
34.5237
 20
-29.624
 11
34.5942
 21
-29.2539
  0
LINE
  8
0
 10
34.5942
 20
-29.2539
 11
34.7107
 21
-28.8956
  0
LINE
  8
0
 10
34.7107
 20
-28.8956
 11
34.8711
 21
-28.5547
  0
LINE
  8
0
 10
34.8711
 20
-28.5547
 11
35.0729
 21
-28.2366
  0
LINE
  8
0
 10
35.0729
 20
-28.2366
 11
35.3131
 21
-27.9464
  0
LINE
  8
0
 10
35.3131
 20
-27.9464
 11
35.5877
 21
-27.6884
  0
LINE
  8
0
 10
35.5877
 20
-27.6884
 11
35.8925
 21
-27.467
  0
LINE
  8
0
 10
35.8925
 20
-27.467
 11
36.2227
 21
-27.2855
  0
LINE
  8
0
 10
36.2227
 20
-27.2855
 11
36.5729
 21
-27.1468
  0
LINE
  8
0
 10
36.5729
 20
-27.1468
 11
36.9379
 21
-27.0531
  0
LINE
  8
0
 10
36.9379
 20
-27.0531
 11
37.3116
 21
-27.0059
  0
LINE
  8
0
 10
37.3116
 20
-27.0059
 11
37.6884
 21
-27.0059
  0
LINE
  8
0
 10
37.6884
 20
-27.0059
 11
38.0621
 21
-27.0531
  0
LINE
  8
0
 10
38.0621
 20
-27.0531
 11
38.427
 21
-27.1468
  0
LINE
  8
0
 10
38.427
 20
-27.1468
 11
38.7773
 21
-27.2855
  0
LINE
  8
0
 10
38.7773
 20
-27.2855
 11
39.1075
 21
-27.467
  0
LINE
  8
0
 10
39.1075
 20
-27.467
 11
39.4123
 21
-27.6884
  0
LINE
  8
0
 10
39.4123
 20
-27.6884
 11
39.6869
 21
-27.9464
  0
LINE
  8
0
 10
39.6869
 20
-27.9464
 11
39.927
 21
-28.2366
  0
LINE
  8
0
 10
39.927
 20
-28.2366
 11
40.1289
 21
-28.5547
  0
LINE
  8
0
 10
40.1289
 20
-28.5547
 11
40.2893
 21
-28.8956
  0
LINE
  8
0
 10
40.2893
 20
-28.8956
 11
40.4057
 21
-29.2539
  0
LINE
  8
0
 10
40.4057
 20
-29.2539
 11
40.4763
 21
-29.624
  0
LINE
  8
0
 10
40.4763
 20
-29.624
 11
40.5
 21
-30
  0
LINE
  8
0
 10
40.5
 20
-30
 11
40.4763
 21
-30.376
  0
LINE
  8
0
 10
40.4763
 20
-30.376
 11
40.4057
 21
-30.7461
  0
LINE
  8
0
 10
40.4057
 20
-30.7461
 11
40.2893
 21
-31.1044
  0
LINE
  8
0
 10
40.2893
 20
-31.1044
 11
40.1289
 21
-31.4453
  0
LINE
  8
0
 10
40.1289
 20
-31.4453
 11
39.927
 21
-31.7634
  0
LINE
  8
0
 10
39.927
 20
-31.7634
 11
39.6869
 21
-32.0536
  0
LINE
  8
0
 10
39.6869
 20
-32.0536
 11
39.4123
 21
-32.3115
  0
LINE
  8
0
 10
39.4123
 20
-32.3115
 11
39.1075
 21
-32.533
  0
LINE
  8
0
 10
39.1075
 20
-32.533
 11
38.7773
 21
-32.7145
  0
LINE
  8
0
 10
38.7773
 20
-32.7145
 11
38.427
 21
-32.8532
  0
LINE
  8
0
 10
38.427
 20
-32.8532
 11
38.0621
 21
-32.9469
  0
LINE
  8
0
 10
38.0621
 20
-32.9469
 11
37.6884
 21
-32.9941
  0
LINE
  8
0
 10
37.6884
 20
-32.9941
 11
37.3116
 21
-32.9941
  0
LINE
  8
0
 10
22.3116
 20
-32.9941
 11
21.9379
 21
-32.9469
  0
LINE
  8
0
 10
21.9379
 20
-32.9469
 11
21.5729
 21
-32.8532
  0
LINE
  8
0
 10
21.5729
 20
-32.8532
 11
21.2227
 21
-32.7145
  0
LINE
  8
0
 10
21.2227
 20
-32.7145
 11
20.8925
 21
-32.533
  0
LINE
  8
0
 10
20.8925
 20
-32.533
 11
20.5877
 21
-32.3115
  0
LINE
  8
0
 10
20.5877
 20
-32.3115
 11
20.3131
 21
-32.0536
  0
LINE
  8
0
 10
20.3131
 20
-32.0536
 11
20.0729
 21
-31.7634
  0
LINE
  8
0
 10
20.0729
 20
-31.7634
 11
19.8711
 21
-31.4453
  0
LINE
  8
0
 10
19.8711
 20
-31.4453
 11
19.7107
 21
-31.1044
  0
LINE
  8
0
 10
19.7107
 20
-31.1044
 11
19.5942
 21
-30.7461
  0
LINE
  8
0
 10
19.5942
 20
-30.7461
 11
19.5237
 21
-30.376
  0
LINE
  8
0
 10
19.5237
 20
-30.376
 11
19.5
 21
-30
  0
LINE
  8
0
 10
19.5
 20
-30
 11
19.5237
 21
-29.624
  0
LINE
  8
0
 10
19.5237
 20
-29.624
 11
19.5942
 21
-29.2539
  0
LINE
  8
0
 10
19.5942
 20
-29.2539
 11
19.7107
 21
-28.8956
  0
LINE
  8
0
 10
19.7107
 20
-28.8956
 11
19.8711
 21
-28.5547
  0
LINE
  8
0
 10
19.8711
 20
-28.5547
 11
20.0729
 21
-28.2366
  0
LINE
  8
0
 10
20.0729
 20
-28.2366
 11
20.3131
 21
-27.9464
  0
LINE
  8
0
 10
20.3131
 20
-27.9464
 11
20.5877
 21
-27.6884
  0
LINE
  8
0
 10
20.5877
 20
-27.6884
 11
20.8925
 21
-27.467
  0
LINE
  8
0
 10
20.8925
 20
-27.467
 11
21.2227
 21
-27.2855
  0
LINE
  8
0
 10
21.2227
 20
-27.2855
 11
21.5729
 21
-27.1468
  0
LINE
  8
0
 10
21.5729
 20
-27.1468
 11
21.9379
 21
-27.0531
  0
LINE
  8
0
 10
21.9379
 20
-27.0531
 11
22.3116
 21
-27.0059
  0
LINE
  8
0
 10
22.3116
 20
-27.0059
 11
22.6884
 21
-27.0059
  0
LINE
  8
0
 10
22.6884
 20
-27.0059
 11
23.0621
 21
-27.0531
  0
LINE
  8
0
 10
23.0621
 20
-27.0531
 11
23.427
 21
-27.1468
  0
LINE
  8
0
 10
23.427
 20
-27.1468
 11
23.7773
 21
-27.2855
  0
LINE
  8
0
 10
23.7773
 20
-27.2855
 11
24.1075
 21
-27.467
  0
LINE
  8
0
 10
24.1075
 20
-27.467
 11
24.4123
 21
-27.6884
  0
LINE
  8
0
 10
24.4123
 20
-27.6884
 11
24.6869
 21
-27.9464
  0
LINE
  8
0
 10
24.6869
 20
-27.9464
 11
24.927
 21
-28.2366
  0
LINE
  8
0
 10
24.927
 20
-28.2366
 11
25.1289
 21
-28.5547
  0
LINE
  8
0
 10
25.1289
 20
-28.5547
 11
25.2893
 21
-28.8956
  0
LINE
  8
0
 10
25.2893
 20
-28.8956
 11
25.4057
 21
-29.2539
  0
LINE
  8
0
 10
25.4057
 20
-29.2539
 11
25.4763
 21
-29.624
  0
LINE
  8
0
 10
25.4763
 20
-29.624
 11
25.5
 21
-30
  0
LINE
  8
0
 10
25.5
 20
-30
 11
25.4763
 21
-30.376
  0
LINE
  8
0
 10
25.4763
 20
-30.376
 11
25.4057
 21
-30.7461
  0
LINE
  8
0
 10
25.4057
 20
-30.7461
 11
25.2893
 21
-31.1044
  0
LINE
  8
0
 10
25.2893
 20
-31.1044
 11
25.1289
 21
-31.4453
  0
LINE
  8
0
 10
25.1289
 20
-31.4453
 11
24.927
 21
-31.7634
  0
LINE
  8
0
 10
24.927
 20
-31.7634
 11
24.6869
 21
-32.0536
  0
LINE
  8
0
 10
24.6869
 20
-32.0536
 11
24.4123
 21
-32.3115
  0
LINE
  8
0
 10
24.4123
 20
-32.3115
 11
24.1075
 21
-32.533
  0
LINE
  8
0
 10
24.1075
 20
-32.533
 11
23.7773
 21
-32.7145
  0
LINE
  8
0
 10
23.7773
 20
-32.7145
 11
23.427
 21
-32.8532
  0
LINE
  8
0
 10
23.427
 20
-32.8532
 11
23.0621
 21
-32.9469
  0
LINE
  8
0
 10
23.0621
 20
-32.9469
 11
22.6884
 21
-32.9941
  0
LINE
  8
0
 10
22.6884
 20
-32.9941
 11
22.3116
 21
-32.9941
  0
ENDSEC
  0
SECTION
  2
OBJECTS
  0
DICTIONARY
  0
ENDSEC
  0
EOF
