<?xml version="1.0" standalone="no"?>
<!DOCTYPE svg PUBLIC "-//W3C//DTD SVG 1.1//EN" "http://www.w3.org/Graphics/SVG/1.1/DTD/svg11.dtd">
<svg width="240mm" height="460mm" viewBox="-120 -815 240 460" xmlns="http://www.w3.org/2000/svg" version="1.1">
<title>OpenSCAD Model</title>
<path d="
M 115.937,-589.589 L 116.545,-589.745 L 117.129,-589.976 L 117.679,-590.278 L 118.187,-590.647 L 118.645,-591.077
 L 119.045,-591.561 L 119.382,-592.091 L 119.649,-592.659 L 119.843,-593.257 L 119.961,-593.873 L 120,-594.5
 L 120,-809.5 L 119.961,-810.127 L 119.843,-810.743 L 119.649,-811.341 L 119.382,-811.909 L 119.045,-812.439
 L 118.645,-812.923 L 118.187,-813.353 L 117.679,-813.722 L 117.129,-814.024 L 116.545,-814.255 L 115.937,-814.411
 L 115.314,-814.49 L -115.314,-814.49 L -115.937,-814.411 L -116.545,-814.255 L -117.129,-814.024 L -117.679,-813.722
 L -118.187,-813.353 L -118.645,-812.923 L -119.045,-812.439 L -119.382,-811.909 L -119.649,-811.341 L -119.843,-810.743
 L -119.961,-810.127 L -120,-809.5 L -120,-594.5 L -119.961,-593.873 L -119.843,-593.257 L -119.649,-592.659
 L -119.382,-592.091 L -119.045,-591.561 L -118.645,-591.077 L -118.187,-590.647 L -117.679,-590.278 L -117.129,-589.976
 L -116.545,-589.745 L -115.937,-589.589 L -115.314,-589.51 L 115.314,-589.51 z
M -115.037,-590.181 L -115.608,-590.253 L -116.165,-590.396 L -116.699,-590.607 L -117.203,-590.884 L -117.668,-591.222
 L -118.088,-591.616 L -118.454,-592.059 L -118.762,-592.544 L -119.007,-593.065 L -119.185,-593.611 L -119.292,-594.176
 L -119.328,-594.75 L -119.328,-809.25 L -119.292,-809.824 L -119.185,-810.389 L -119.007,-810.935 L -118.762,-811.456
 L -118.454,-811.941 L -118.088,-812.384 L -117.668,-812.778 L -117.203,-813.116 L -116.699,-813.393 L -116.165,-813.604
 L -115.608,-813.747 L -115.037,-813.819 L 115.037,-813.819 L 115.608,-813.747 L 116.165,-813.604 L 116.699,-813.393
 L 117.203,-813.116 L 117.668,-812.778 L 118.088,-812.384 L 118.454,-811.941 L 118.762,-811.456 L 119.007,-810.935
 L 119.185,-810.389 L 119.292,-809.824 L 119.328,-809.25 L 119.328,-594.75 L 119.292,-594.176 L 119.185,-593.611
 L 119.007,-593.065 L 118.762,-592.544 L 118.454,-592.059 L 118.088,-591.616 L 117.668,-591.222 L 117.203,-590.884
 L 116.699,-590.607 L 116.165,-590.396 L 115.608,-590.253 L 115.037,-590.181 z
M 115.937,-355.589 L 116.545,-355.745 L 117.129,-355.976 L 117.679,-356.278 L 118.187,-356.647 L 118.645,-357.077
 L 119.045,-357.561 L 119.382,-358.091 L 119.649,-358.659 L 119.843,-359.257 L 119.961,-359.873 L 120,-360.5
 L 120,-575.5 L 119.961,-576.127 L 119.843,-576.743 L 119.649,-577.341 L 119.382,-577.909 L 119.045,-578.439
 L 118.645,-578.923 L 118.187,-579.353 L 117.679,-579.722 L 117.129,-580.024 L 116.545,-580.255 L 115.937,-580.411
 L 115.314,-580.49 L -115.314,-580.49 L -115.937,-580.411 L -116.545,-580.255 L -117.129,-580.024 L -117.679,-579.722
 L -118.187,-579.353 L -118.645,-578.923 L -119.045,-578.439 L -119.382,-577.909 L -119.649,-577.341 L -119.843,-576.743
 L -119.961,-576.127 L -120,-575.5 L -120,-360.5 L -119.961,-359.873 L -119.843,-359.257 L -119.649,-358.659
 L -119.382,-358.091 L -119.045,-357.561 L -118.645,-357.077 L -118.187,-356.647 L -117.679,-356.278 L -117.129,-355.976
 L -116.545,-355.745 L -115.937,-355.589 L -115.314,-355.51 L 115.314,-355.51 z
M -114.882,-358.645 L -115.145,-358.678 L -115.402,-358.744 L -115.648,-358.841 L -115.88,-358.969 L -116.095,-359.124
 L -116.288,-359.306 L -116.457,-359.51 L -116.599,-359.734 L -116.711,-359.973 L -116.793,-360.225 L -116.843,-360.486
 L -116.86,-360.75 L -116.86,-575.25 L -116.843,-575.514 L -116.793,-575.775 L -116.711,-576.027 L -116.599,-576.266
 L -116.457,-576.49 L -116.288,-576.694 L -116.095,-576.876 L -115.88,-577.031 L -115.648,-577.159 L -115.402,-577.256
 L -115.145,-577.322 L -114.882,-577.355 L 114.882,-577.355 L 115.145,-577.322 L 115.402,-577.256 L 115.648,-577.159
 L 115.88,-577.031 L 116.095,-576.876 L 116.288,-576.694 L 116.457,-576.49 L 116.599,-576.266 L 116.711,-576.027
 L 116.793,-575.775 L 116.843,-575.514 L 116.86,-575.25 L 116.86,-360.75 L 116.843,-360.486 L 116.793,-360.225
 L 116.711,-359.973 L 116.599,-359.734 L 116.457,-359.51 L 116.288,-359.306 L 116.095,-359.124 L 115.88,-358.969
 L 115.648,-358.841 L 115.402,-358.744 L 115.145,-358.678 L 114.882,-358.645 z
" stroke="black" fill="lightgray" stroke-width="0.5"/>
</svg>
