<?xml version="1.0" standalone="no"?>
<!DOCTYPE svg PUBLIC "-//W3C//DTD SVG 1.1//EN" "http://www.w3.org/Graphics/SVG/1.1/DTD/svg11.dtd">
<svg width="302mm" height="549mm" viewBox="-152 -972 302 549" xmlns="http://www.w3.org/2000/svg" version="1.1">
<title>OpenSCAD Model</title>
<path d="
M 145.937,-702.089 L 146.545,-702.245 L 147.129,-702.476 L 147.679,-702.778 L 148.187,-703.147 L 148.645,-703.577
 L 149.045,-704.061 L 149.382,-704.591 L 149.649,-705.159 L 149.843,-705.757 L 149.961,-706.373 L 150,-707
 L 150,-967 L 149.961,-967.627 L 149.843,-968.243 L 149.649,-968.841 L 149.382,-969.409 L 149.045,-969.939
 L 148.645,-970.423 L 148.187,-970.853 L 147.679,-971.222 L 147.129,-971.524 L 146.545,-971.755 L 145.937,-971.911
 L 145.314,-971.99 L -145.314,-971.99 L -145.937,-971.911 L -146.545,-971.755 L -147.129,-971.524 L -147.679,-971.222
 L -148.187,-970.853 L -148.5,-970.559 L -148.5,-971.979 L -151.5,-971.979 L -151.5,-702.021 L -148.5,-702.021
 L -148.5,-703.441 L -148.187,-703.147 L -147.679,-702.778 L -147.129,-702.476 L -146.545,-702.245 L -145.937,-702.089
 L -145.314,-702.01 L 145.314,-702.01 z
M -144.695,-704.393 L -145.083,-704.442 L -145.462,-704.539 L -145.825,-704.683 L -146.168,-704.872 L -146.484,-705.101
 L -146.769,-705.369 L -147.018,-705.67 L -147.228,-706 L -147.394,-706.354 L -147.515,-706.726 L -147.588,-707.11
 L -147.613,-707.5 L -147.613,-966.5 L -147.588,-966.89 L -147.515,-967.274 L -147.394,-967.646 L -147.228,-968
 L -147.018,-968.33 L -146.769,-968.631 L -146.484,-968.899 L -146.168,-969.128 L -145.825,-969.317 L -145.462,-969.461
 L -145.083,-969.558 L -144.695,-969.607 L 144.695,-969.607 L 145.083,-969.558 L 145.462,-969.461 L 145.825,-969.317
 L 146.168,-969.128 L 146.484,-968.899 L 146.769,-968.631 L 147.018,-968.33 L 147.228,-968 L 147.394,-967.646
 L 147.515,-967.274 L 147.588,-966.89 L 147.613,-966.5 L 147.613,-707.5 L 147.588,-707.11 L 147.515,-706.726
 L 147.394,-706.354 L 147.228,-706 L 147.018,-705.67 L 146.769,-705.369 L 146.484,-705.101 L 146.168,-704.872
 L 145.825,-704.683 L 145.462,-704.539 L 145.083,-704.442 L 144.695,-704.393 z
M 145.937,-423.089 L 146.545,-423.245 L 147.129,-423.476 L 147.679,-423.778 L 148.187,-424.147 L 148.645,-424.577
 L 149.045,-425.061 L 149.382,-425.591 L 149.649,-426.159 L 149.843,-426.757 L 149.961,-427.373 L 150,-428
 L 150,-688 L 149.961,-688.627 L 149.843,-689.243 L 149.649,-689.841 L 149.382,-690.409 L 149.045,-690.939
 L 148.645,-691.423 L 148.187,-691.853 L 147.679,-692.222 L 147.129,-692.524 L 146.545,-692.755 L 145.937,-692.911
 L 145.314,-692.99 L -145.314,-692.99 L -145.937,-692.911 L -146.545,-692.755 L -147.129,-692.524 L -147.679,-692.222
 L -148.187,-691.853 L -148.5,-691.559 L -148.5,-691.653 L -151.5,-691.653 L -151.5,-424.347 L -148.5,-424.347
 L -148.5,-424.441 L -148.187,-424.147 L -147.679,-423.778 L -147.129,-423.476 L -146.545,-423.245 L -145.937,-423.089
 L -145.314,-423.01 L 145.314,-423.01 z
M 142.366,-683.369 L 142.1,-683.403 L 141.84,-683.469 L 141.591,-683.568 L 141.356,-683.697 L 141.139,-683.855
 L 140.943,-684.038 L 140.773,-684.245 L 140.629,-684.471 L 140.515,-684.714 L 140.432,-684.969 L 140.382,-685.232
 L 140.365,-685.5 L 140.382,-685.768 L 140.432,-686.031 L 140.515,-686.286 L 140.629,-686.529 L 140.773,-686.755
 L 140.943,-686.962 L 141.139,-687.145 L 141.356,-687.303 L 141.591,-687.432 L 141.84,-687.531 L 142.1,-687.597
 L 142.366,-687.631 L 142.634,-687.631 L 142.9,-687.597 L 143.16,-687.531 L 143.409,-687.432 L 143.644,-687.303
 L 143.861,-687.145 L 144.057,-686.962 L 144.227,-686.755 L 144.371,-686.529 L 144.485,-686.286 L 144.568,-686.031
 L 144.618,-685.768 L 144.635,-685.5 L 144.618,-685.232 L 144.568,-684.969 L 144.485,-684.714 L 144.371,-684.471
 L 144.227,-684.245 L 144.057,-684.038 L 143.861,-683.855 L 143.644,-683.697 L 143.409,-683.568 L 143.16,-683.469
 L 142.9,-683.403 L 142.634,-683.369 z
M -142.634,-683.369 L -142.9,-683.403 L -143.16,-683.469 L -143.409,-683.568 L -143.644,-683.697 L -143.861,-683.855
 L -144.057,-684.038 L -144.227,-684.245 L -144.371,-684.471 L -144.485,-684.714 L -144.568,-684.969 L -144.618,-685.232
 L -144.635,-685.5 L -144.618,-685.768 L -144.568,-686.031 L -144.485,-686.286 L -144.371,-686.529 L -144.227,-686.755
 L -144.057,-686.962 L -143.861,-687.145 L -143.644,-687.303 L -143.409,-687.432 L -143.16,-687.531 L -142.9,-687.597
 L -142.634,-687.631 L -142.366,-687.631 L -142.1,-687.597 L -141.84,-687.531 L -141.591,-687.432 L -141.356,-687.303
 L -141.139,-687.145 L -140.943,-686.962 L -140.773,-686.755 L -140.629,-686.529 L -140.515,-686.286 L -140.432,-686.031
 L -140.382,-685.768 L -140.365,-685.5 L -140.382,-685.232 L -140.432,-684.969 L -140.515,-684.714 L -140.629,-684.471
 L -140.773,-684.245 L -140.943,-684.038 L -141.139,-683.855 L -141.356,-683.697 L -141.591,-683.568 L -141.84,-683.469
 L -142.1,-683.403 L -142.366,-683.369 z
M 142.366,-428.369 L 142.1,-428.403 L 141.84,-428.469 L 141.591,-428.568 L 141.356,-428.697 L 141.139,-428.855
 L 140.943,-429.038 L 140.773,-429.245 L 140.629,-429.471 L 140.515,-429.714 L 140.432,-429.969 L 140.382,-430.232
 L 140.365,-430.5 L 140.382,-430.768 L 140.432,-431.031 L 140.515,-431.286 L 140.629,-431.529 L 140.773,-431.755
 L 140.943,-431.962 L 141.139,-432.145 L 141.356,-432.303 L 141.591,-432.432 L 141.84,-432.531 L 142.1,-432.597
 L 142.366,-432.631 L 142.634,-432.631 L 142.9,-432.597 L 143.16,-432.531 L 143.409,-432.432 L 143.644,-432.303
 L 143.861,-432.145 L 144.057,-431.962 L 144.227,-431.755 L 144.371,-431.529 L 144.485,-431.286 L 144.568,-431.031
 L 144.618,-430.768 L 144.635,-430.5 L 144.618,-430.232 L 144.568,-429.969 L 144.485,-429.714 L 144.371,-429.471
 L 144.227,-429.245 L 144.057,-429.038 L 143.861,-428.855 L 143.644,-428.697 L 143.409,-428.568 L 143.16,-428.469
 L 142.9,-428.403 L 142.634,-428.369 z
M -142.634,-428.369 L -142.9,-428.403 L -143.16,-428.469 L -143.409,-428.568 L -143.644,-428.697 L -143.861,-428.855
 L -144.057,-429.038 L -144.227,-429.245 L -144.371,-429.471 L -144.485,-429.714 L -144.568,-429.969 L -144.618,-430.232
 L -144.635,-430.5 L -144.618,-430.768 L -144.568,-431.031 L -144.485,-431.286 L -144.371,-431.529 L -144.227,-431.755
 L -144.057,-431.962 L -143.861,-432.145 L -143.644,-432.303 L -143.409,-432.432 L -143.16,-432.531 L -142.9,-432.597
 L -142.634,-432.631 L -142.366,-432.631 L -142.1,-432.597 L -141.84,-432.531 L -141.591,-432.432 L -141.356,-432.303
 L -141.139,-432.145 L -140.943,-431.962 L -140.773,-431.755 L -140.629,-431.529 L -140.515,-431.286 L -140.432,-431.031
 L -140.382,-430.768 L -140.365,-430.5 L -140.382,-430.232 L -140.432,-429.969 L -140.515,-429.714 L -140.629,-429.471
 L -140.773,-429.245 L -140.943,-429.038 L -141.139,-428.855 L -141.356,-428.697 L -141.591,-428.568 L -141.84,-428.469
 L -142.1,-428.403 L -142.366,-428.369 z
" stroke="black" fill="lightgray" stroke-width="0.5"/>
</svg>
