<?xml version="1.0" standalone="no"?>
<!DOCTYPE svg PUBLIC "-//W3C//DTD SVG 1.1//EN" "http://www.w3.org/Graphics/SVG/1.1/DTD/svg11.dtd">
<svg width="24mm" height="276mm" viewBox="-12 -264 24 276" xmlns="http://www.w3.org/2000/svg" version="1.1">
<title>OpenSCAD Model</title>
<path d="
M 2.24857,-240.213 L 3.70819,-240.587 L 5.10934,-241.142 L 6.42992,-241.868 L 7.64908,-242.754 L 8.74762,-243.785
 L 9.70819,-244.947 L 10.5157,-246.219 L 11.1573,-247.583 L 11.623,-249.016 L 11.9054,-250.496 L 12,-252
 L 11.9054,-253.504 L 11.623,-254.984 L 11.1573,-256.417 L 10.5157,-257.781 L 9.70819,-259.053 L 8.74762,-260.215
 L 7.64908,-261.246 L 6.42992,-262.132 L 5.10934,-262.858 L 3.70819,-263.413 L 2.24857,-263.787 L 0.753479,-263.976
 L -0.753479,-263.976 L -2.24857,-263.787 L -3.70819,-263.413 L -5.10934,-262.858 L -6.42992,-262.132 L -7.64908,-261.246
 L -8.74762,-260.215 L -9.70819,-259.053 L -10.5157,-257.781 L -11.1573,-256.417 L -11.623,-254.984 L -11.9054,-253.504
 L -12,-252 L -11.9054,-250.496 L -11.623,-249.016 L -11.1573,-247.583 L -10.5157,-246.219 L -9.70819,-244.947
 L -8.74762,-243.785 L -7.64908,-242.754 L -6.42992,-241.868 L -5.10934,-241.142 L -3.70819,-240.587 L -2.24857,-240.213
 L -0.753479,-240.024 L 0.753479,-240.024 z
M -0.18837,-249.006 L -0.562134,-249.053 L -0.927048,-249.147 L -1.27733,-249.286 L -1.60747,-249.467 L -1.91226,-249.688
 L -2.1869,-249.946 L -2.42705,-250.237 L -2.62891,-250.555 L -2.78932,-250.896 L -2.90575,-251.254 L -2.97633,-251.624
 L -3,-252 L -2.97633,-252.376 L -2.90575,-252.746 L -2.78932,-253.104 L -2.62891,-253.445 L -2.42705,-253.763
 L -2.1869,-254.054 L -1.91226,-254.312 L -1.60747,-254.533 L -1.27733,-254.714 L -0.927048,-254.853 L -0.562134,-254.947
 L -0.18837,-254.994 L 0.18837,-254.994 L 0.562134,-254.947 L 0.927048,-254.853 L 1.27733,-254.714 L 1.60747,-254.533
 L 1.91226,-254.312 L 2.1869,-254.054 L 2.42705,-253.763 L 2.62891,-253.445 L 2.78932,-253.104 L 2.90575,-252.746
 L 2.97633,-252.376 L 3,-252 L 2.97633,-251.624 L 2.90575,-251.254 L 2.78932,-250.896 L 2.62891,-250.555
 L 2.42705,-250.237 L 2.1869,-249.946 L 1.91226,-249.688 L 1.60747,-249.467 L 1.27733,-249.286 L 0.927048,-249.147
 L 0.562134,-249.053 L 0.18837,-249.006 z
M -8.09418,-250.503 L -8.28107,-250.527 L -8.46352,-250.573 L -8.63866,-250.643 L -8.80373,-250.734 L -8.95613,-250.844
 L -9.09344,-250.973 L -9.21352,-251.118 L -9.31445,-251.277 L -9.39465,-251.448 L -9.45287,-251.627 L -9.48816,-251.812
 L -9.5,-252 L -9.48816,-252.188 L -9.45287,-252.373 L -9.39465,-252.552 L -9.31445,-252.723 L -9.21352,-252.882
 L -9.09344,-253.027 L -8.95613,-253.156 L -8.80373,-253.266 L -8.63866,-253.357 L -8.46352,-253.427 L -8.28107,-253.473
 L -8.09418,-253.497 L -7.40581,-253.497 L -7.21892,-253.473 L -7.03647,-253.427 L -6.86133,-253.357 L -6.69626,-253.266
 L -6.54385,-253.156 L -6.40654,-253.027 L -6.28647,-252.882 L -6.18553,-252.723 L -6.10533,-252.552 L -6.04712,-252.373
 L -6.01183,-252.188 L -6,-252 L -6.01183,-251.812 L -6.04712,-251.627 L -6.10533,-251.448 L -6.18553,-251.277
 L -6.28647,-251.118 L -6.40654,-250.973 L -6.54385,-250.844 L -6.69626,-250.734 L -6.86133,-250.643 L -7.03647,-250.573
 L -7.21892,-250.527 L -7.40581,-250.503 z
M 7.40581,-250.503 L 7.21892,-250.527 L 7.03647,-250.573 L 6.86133,-250.643 L 6.69626,-250.734 L 6.54385,-250.844
 L 6.40654,-250.973 L 6.28647,-251.118 L 6.18553,-251.277 L 6.10533,-251.448 L 6.04712,-251.627 L 6.01183,-251.812
 L 6,-252 L 6.01183,-252.188 L 6.04712,-252.373 L 6.10533,-252.552 L 6.18553,-252.723 L 6.28647,-252.882
 L 6.40654,-253.027 L 6.54385,-253.156 L 6.69626,-253.266 L 6.86133,-253.357 L 7.03647,-253.427 L 7.21892,-253.473
 L 7.40581,-253.497 L 8.09418,-253.497 L 8.28107,-253.473 L 8.46352,-253.427 L 8.63866,-253.357 L 8.80373,-253.266
 L 8.95613,-253.156 L 9.09344,-253.027 L 9.21352,-252.882 L 9.31445,-252.723 L 9.39465,-252.552 L 9.45287,-252.373
 L 9.48816,-252.188 L 9.5,-252 L 9.48816,-251.812 L 9.45287,-251.627 L 9.39465,-251.448 L 9.31445,-251.277
 L 9.21352,-251.118 L 9.09344,-250.973 L 8.95613,-250.844 L 8.80373,-250.734 L 8.63866,-250.643 L 8.46352,-250.573
 L 8.28107,-250.527 L 8.09418,-250.503 z
M 2.24857,-156.213 L 3.70819,-156.587 L 5.10934,-157.142 L 6.42992,-157.868 L 7.64908,-158.754 L 8.74762,-159.785
 L 9.70819,-160.947 L 10.5157,-162.219 L 11.1573,-163.583 L 11.623,-165.016 L 11.9054,-166.496 L 12,-168
 L 11.9054,-169.504 L 11.623,-170.984 L 11.1573,-172.417 L 10.5157,-173.781 L 9.70819,-175.053 L 8.74762,-176.215
 L 7.64908,-177.246 L 6.42992,-178.132 L 5.10934,-178.858 L 3.70819,-179.413 L 2.24857,-179.787 L 0.753479,-179.976
 L -0.753479,-179.976 L -2.24857,-179.787 L -3.70819,-179.413 L -5.10934,-178.858 L -6.42992,-178.132 L -7.64908,-177.246
 L -8.74762,-176.215 L -9.70819,-175.053 L -10.5157,-173.781 L -11.1573,-172.417 L -11.623,-170.984 L -11.9054,-169.504
 L -12,-168 L -11.9054,-166.496 L -11.623,-165.016 L -11.1573,-163.583 L -10.5157,-162.219 L -9.70819,-160.947
 L -8.74762,-159.785 L -7.64908,-158.754 L -6.42992,-157.868 L -5.10934,-157.142 L -3.70819,-156.587 L -2.24857,-156.213
 L -0.753479,-156.024 L 0.753479,-156.024 z
M -0.18837,-165.006 L -0.562134,-165.053 L -0.927048,-165.147 L -1.27733,-165.286 L -1.60747,-165.467 L -1.91226,-165.688
 L -2.1869,-165.946 L -2.42705,-166.237 L -2.62891,-166.555 L -2.78932,-166.896 L -2.90575,-167.254 L -2.97633,-167.624
 L -3,-168 L -2.97633,-168.376 L -2.90575,-168.746 L -2.78932,-169.104 L -2.62891,-169.445 L -2.42705,-169.763
 L -2.1869,-170.054 L -1.91226,-170.312 L -1.60747,-170.533 L -1.27733,-170.714 L -0.927048,-170.853 L -0.562134,-170.947
 L -0.18837,-170.994 L 0.18837,-170.994 L 0.562134,-170.947 L 0.927048,-170.853 L 1.27733,-170.714 L 1.60747,-170.533
 L 1.91226,-170.312 L 2.1869,-170.054 L 2.42705,-169.763 L 2.62891,-169.445 L 2.78932,-169.104 L 2.90575,-168.746
 L 2.97633,-168.376 L 3,-168 L 2.97633,-167.624 L 2.90575,-167.254 L 2.78932,-166.896 L 2.62891,-166.555
 L 2.42705,-166.237 L 2.1869,-165.946 L 1.91226,-165.688 L 1.60747,-165.467 L 1.27733,-165.286 L 0.927048,-165.147
 L 0.562134,-165.053 L 0.18837,-165.006 z
M -8.09418,-166.503 L -8.28107,-166.527 L -8.46352,-166.573 L -8.63866,-166.643 L -8.80373,-166.734 L -8.95613,-166.844
 L -9.09344,-166.973 L -9.21352,-167.118 L -9.31445,-167.277 L -9.39465,-167.448 L -9.45287,-167.627 L -9.48816,-167.812
 L -9.5,-168 L -9.48816,-168.188 L -9.45287,-168.373 L -9.39465,-168.552 L -9.31445,-168.723 L -9.21352,-168.882
 L -9.09344,-169.027 L -8.95613,-169.156 L -8.80373,-169.266 L -8.63866,-169.357 L -8.46352,-169.427 L -8.28107,-169.473
 L -8.09418,-169.497 L -7.40581,-169.497 L -7.21892,-169.473 L -7.03647,-169.427 L -6.86133,-169.357 L -6.69626,-169.266
 L -6.54385,-169.156 L -6.40654,-169.027 L -6.28647,-168.882 L -6.18553,-168.723 L -6.10533,-168.552 L -6.04712,-168.373
 L -6.01183,-168.188 L -6,-168 L -6.01183,-167.812 L -6.04712,-167.627 L -6.10533,-167.448 L -6.18553,-167.277
 L -6.28647,-167.118 L -6.40654,-166.973 L -6.54385,-166.844 L -6.69626,-166.734 L -6.86133,-166.643 L -7.03647,-166.573
 L -7.21892,-166.527 L -7.40581,-166.503 z
M 7.40581,-166.503 L 7.21892,-166.527 L 7.03647,-166.573 L 6.86133,-166.643 L 6.69626,-166.734 L 6.54385,-166.844
 L 6.40654,-166.973 L 6.28647,-167.118 L 6.18553,-167.277 L 6.10533,-167.448 L 6.04712,-167.627 L 6.01183,-167.812
 L 6,-168 L 6.01183,-168.188 L 6.04712,-168.373 L 6.10533,-168.552 L 6.18553,-168.723 L 6.28647,-168.882
 L 6.40654,-169.027 L 6.54385,-169.156 L 6.69626,-169.266 L 6.86133,-169.357 L 7.03647,-169.427 L 7.21892,-169.473
 L 7.40581,-169.497 L 8.09418,-169.497 L 8.28107,-169.473 L 8.46352,-169.427 L 8.63866,-169.357 L 8.80373,-169.266
 L 8.95613,-169.156 L 9.09344,-169.027 L 9.21352,-168.882 L 9.31445,-168.723 L 9.39465,-168.552 L 9.45287,-168.373
 L 9.48816,-168.188 L 9.5,-168 L 9.48816,-167.812 L 9.45287,-167.627 L 9.39465,-167.448 L 9.31445,-167.277
 L 9.21352,-167.118 L 9.09344,-166.973 L 8.95613,-166.844 L 8.80373,-166.734 L 8.63866,-166.643 L 8.46352,-166.573
 L 8.28107,-166.527 L 8.09418,-166.503 z
M 2.24857,-72.2126 L 3.70819,-72.5873 L 5.10934,-73.1421 L 6.42992,-73.8681 L 7.64908,-74.7538 L 8.74762,-75.7854
 L 9.70819,-76.9466 L 10.5157,-78.219 L 11.1573,-79.5825 L 11.623,-81.0157 L 11.9054,-82.496 L 12,-84
 L 11.9054,-85.504 L 11.623,-86.9843 L 11.1573,-88.4175 L 10.5157,-89.781 L 9.70819,-91.0534 L 8.74762,-92.2146
 L 7.64908,-93.2462 L 6.42992,-94.1319 L 5.10934,-94.8579 L 3.70819,-95.4127 L 2.24857,-95.7874 L 0.753479,-95.9763
 L -0.753479,-95.9763 L -2.24857,-95.7874 L -3.70819,-95.4127 L -5.10934,-94.8579 L -6.42992,-94.1319 L -7.64908,-93.2462
 L -8.74762,-92.2146 L -9.70819,-91.0534 L -10.5157,-89.781 L -11.1573,-88.4175 L -11.623,-86.9843 L -11.9054,-85.504
 L -12,-84 L -11.9054,-82.496 L -11.623,-81.0157 L -11.1573,-79.5825 L -10.5157,-78.219 L -9.70819,-76.9466
 L -8.74762,-75.7854 L -7.64908,-74.7538 L -6.42992,-73.8681 L -5.10934,-73.1421 L -3.70819,-72.5873 L -2.24857,-72.2126
 L -0.753479,-72.0237 L 0.753479,-72.0237 z
M -0.18837,-81.0059 L -0.562134,-81.0531 L -0.927048,-81.1468 L -1.27733,-81.2855 L -1.60747,-81.467 L -1.91226,-81.6885
 L -2.1869,-81.9464 L -2.42705,-82.2366 L -2.62891,-82.5547 L -2.78932,-82.8956 L -2.90575,-83.2539 L -2.97633,-83.624
 L -3,-84 L -2.97633,-84.376 L -2.90575,-84.7461 L -2.78932,-85.1044 L -2.62891,-85.4453 L -2.42705,-85.7634
 L -2.1869,-86.0536 L -1.91226,-86.3115 L -1.60747,-86.533 L -1.27733,-86.7145 L -0.927048,-86.8532 L -0.562134,-86.9469
 L -0.18837,-86.9941 L 0.18837,-86.9941 L 0.562134,-86.9469 L 0.927048,-86.8532 L 1.27733,-86.7145 L 1.60747,-86.533
 L 1.91226,-86.3115 L 2.1869,-86.0536 L 2.42705,-85.7634 L 2.62891,-85.4453 L 2.78932,-85.1044 L 2.90575,-84.7461
 L 2.97633,-84.376 L 3,-84 L 2.97633,-83.624 L 2.90575,-83.2539 L 2.78932,-82.8956 L 2.62891,-82.5547
 L 2.42705,-82.2366 L 2.1869,-81.9464 L 1.91226,-81.6885 L 1.60747,-81.467 L 1.27733,-81.2855 L 0.927048,-81.1468
 L 0.562134,-81.0531 L 0.18837,-81.0059 z
M -8.09418,-82.503 L -8.28107,-82.5266 L -8.46352,-82.5734 L -8.63866,-82.6428 L -8.80373,-82.7335 L -8.95613,-82.8442
 L -9.09344,-82.9732 L -9.21352,-83.1183 L -9.31445,-83.2774 L -9.39465,-83.4478 L -9.45287,-83.627 L -9.48816,-83.812
 L -9.5,-84 L -9.48816,-84.188 L -9.45287,-84.373 L -9.39465,-84.5522 L -9.31445,-84.7226 L -9.21352,-84.8817
 L -9.09344,-85.0268 L -8.95613,-85.1558 L -8.80373,-85.2665 L -8.63866,-85.3572 L -8.46352,-85.4266 L -8.28107,-85.4734
 L -8.09418,-85.497 L -7.40581,-85.497 L -7.21892,-85.4734 L -7.03647,-85.4266 L -6.86133,-85.3572 L -6.69626,-85.2665
 L -6.54385,-85.1558 L -6.40654,-85.0268 L -6.28647,-84.8817 L -6.18553,-84.7226 L -6.10533,-84.5522 L -6.04712,-84.373
 L -6.01183,-84.188 L -6,-84 L -6.01183,-83.812 L -6.04712,-83.627 L -6.10533,-83.4478 L -6.18553,-83.2774
 L -6.28647,-83.1183 L -6.40654,-82.9732 L -6.54385,-82.8442 L -6.69626,-82.7335 L -6.86133,-82.6428 L -7.03647,-82.5734
 L -7.21892,-82.5266 L -7.40581,-82.503 z
M 7.40581,-82.503 L 7.21892,-82.5266 L 7.03647,-82.5734 L 6.86133,-82.6428 L 6.69626,-82.7335 L 6.54385,-82.8442
 L 6.40654,-82.9732 L 6.28647,-83.1183 L 6.18553,-83.2774 L 6.10533,-83.4478 L 6.04712,-83.627 L 6.01183,-83.812
 L 6,-84 L 6.01183,-84.188 L 6.04712,-84.373 L 6.10533,-84.5522 L 6.18553,-84.7226 L 6.28647,-84.8817
 L 6.40654,-85.0268 L 6.54385,-85.1558 L 6.69626,-85.2665 L 6.86133,-85.3572 L 7.03647,-85.4266 L 7.21892,-85.4734
 L 7.40581,-85.497 L 8.09418,-85.497 L 8.28107,-85.4734 L 8.46352,-85.4266 L 8.63866,-85.3572 L 8.80373,-85.2665
 L 8.95613,-85.1558 L 9.09344,-85.0268 L 9.21352,-84.8817 L 9.31445,-84.7226 L 9.39465,-84.5522 L 9.45287,-84.373
 L 9.48816,-84.188 L 9.5,-84 L 9.48816,-83.812 L 9.45287,-83.627 L 9.39465,-83.4478 L 9.31445,-83.2774
 L 9.21352,-83.1183 L 9.09344,-82.9732 L 8.95613,-82.8442 L 8.80373,-82.7335 L 8.63866,-82.6428 L 8.46352,-82.5734
 L 8.28107,-82.5266 L 8.09418,-82.503 z
M 2.24857,11.7874 L 3.70819,11.4127 L 5.10934,10.8579 L 6.42992,10.1319 L 7.64908,9.24615 L 8.74762,8.21455
 L 9.70819,7.05342 L 10.5157,5.78104 L 11.1573,4.41748 L 11.623,2.98427 L 11.9054,1.504 L 12,-0
 L 11.9054,-1.504 L 11.623,-2.98427 L 11.1573,-4.41748 L 10.5157,-5.78104 L 9.70819,-7.05342 L 8.74762,-8.21455
 L 7.64908,-9.24615 L 6.42992,-10.1319 L 5.10934,-10.8579 L 3.70819,-11.4127 L 2.24857,-11.7874 L 0.753479,-11.9763
 L -0.753479,-11.9763 L -2.24857,-11.7874 L -3.70819,-11.4127 L -5.10934,-10.8579 L -6.42992,-10.1319 L -7.64908,-9.24615
 L -8.74762,-8.21455 L -9.70819,-7.05342 L -10.5157,-5.78104 L -11.1573,-4.41748 L -11.623,-2.98427 L -11.9054,-1.504
 L -12,-0 L -11.9054,1.504 L -11.623,2.98427 L -11.1573,4.41748 L -10.5157,5.78104 L -9.70819,7.05342
 L -8.74762,8.21455 L -7.64908,9.24615 L -6.42992,10.1319 L -5.10934,10.8579 L -3.70819,11.4127 L -2.24857,11.7874
 L -0.753479,11.9763 L 0.753479,11.9763 z
M -0.18837,2.99408 L -0.562134,2.94685 L -0.927048,2.85316 L -1.27733,2.71448 L -1.60747,2.53297 L -1.91226,2.31154
 L -2.1869,2.05363 L -2.42705,1.76335 L -2.62891,1.44525 L -2.78932,1.10437 L -2.90575,0.746063 L -2.97633,0.375992
 L -3,-0 L -2.97633,-0.375992 L -2.90575,-0.746063 L -2.78932,-1.10437 L -2.62891,-1.44525 L -2.42705,-1.76335
 L -2.1869,-2.05363 L -1.91226,-2.31154 L -1.60747,-2.53297 L -1.27733,-2.71448 L -0.927048,-2.85316 L -0.562134,-2.94685
 L -0.18837,-2.99408 L 0.18837,-2.99408 L 0.562134,-2.94685 L 0.927048,-2.85316 L 1.27733,-2.71448 L 1.60747,-2.53297
 L 1.91226,-2.31154 L 2.1869,-2.05363 L 2.42705,-1.76335 L 2.62891,-1.44525 L 2.78932,-1.10437 L 2.90575,-0.746063
 L 2.97633,-0.375992 L 3,-0 L 2.97633,0.375992 L 2.90575,0.746063 L 2.78932,1.10437 L 2.62891,1.44525
 L 2.42705,1.76335 L 2.1869,2.05363 L 1.91226,2.31154 L 1.60747,2.53297 L 1.27733,2.71448 L 0.927048,2.85316
 L 0.562134,2.94685 L 0.18837,2.99408 z
M -8.09418,1.49704 L -8.28107,1.47342 L -8.46352,1.42657 L -8.63866,1.35724 L -8.80373,1.26648 L -8.95613,1.15576
 L -9.09344,1.02681 L -9.21352,0.881668 L -9.31445,0.722626 L -9.39465,0.552185 L -9.45287,0.373032 L -9.48816,0.187988
 L -9.5,-0 L -9.48816,-0.187988 L -9.45287,-0.373032 L -9.39465,-0.552185 L -9.31445,-0.722626 L -9.21352,-0.881668
 L -9.09344,-1.02681 L -8.95613,-1.15576 L -8.80373,-1.26648 L -8.63866,-1.35724 L -8.46352,-1.42657 L -8.28107,-1.47342
 L -8.09418,-1.49704 L -7.40581,-1.49704 L -7.21892,-1.47342 L -7.03647,-1.42657 L -6.86133,-1.35724 L -6.69626,-1.26648
 L -6.54385,-1.15576 L -6.40654,-1.02681 L -6.28647,-0.881668 L -6.18553,-0.722626 L -6.10533,-0.552185 L -6.04712,-0.373032
 L -6.01183,-0.187988 L -6,-0 L -6.01183,0.187988 L -6.04712,0.373032 L -6.10533,0.552185 L -6.18553,0.722626
 L -6.28647,0.881668 L -6.40654,1.02681 L -6.54385,1.15576 L -6.69626,1.26648 L -6.86133,1.35724 L -7.03647,1.42657
 L -7.21892,1.47342 L -7.40581,1.49704 z
M 7.40581,1.49704 L 7.21892,1.47342 L 7.03647,1.42657 L 6.86133,1.35724 L 6.69626,1.26648 L 6.54385,1.15576
 L 6.40654,1.02681 L 6.28647,0.881668 L 6.18553,0.722626 L 6.10533,0.552185 L 6.04712,0.373032 L 6.01183,0.187988
 L 6,-0 L 6.01183,-0.187988 L 6.04712,-0.373032 L 6.10533,-0.552185 L 6.18553,-0.722626 L 6.28647,-0.881668
 L 6.40654,-1.02681 L 6.54385,-1.15576 L 6.69626,-1.26648 L 6.86133,-1.35724 L 7.03647,-1.42657 L 7.21892,-1.47342
 L 7.40581,-1.49704 L 8.09418,-1.49704 L 8.28107,-1.47342 L 8.46352,-1.42657 L 8.63866,-1.35724 L 8.80373,-1.26648
 L 8.95613,-1.15576 L 9.09344,-1.02681 L 9.21352,-0.881668 L 9.31445,-0.722626 L 9.39465,-0.552185 L 9.45287,-0.373032
 L 9.48816,-0.187988 L 9.5,-0 L 9.48816,0.187988 L 9.45287,0.373032 L 9.39465,0.552185 L 9.31445,0.722626
 L 9.21352,0.881668 L 9.09344,1.02681 L 8.95613,1.15576 L 8.80373,1.26648 L 8.63866,1.35724 L 8.46352,1.42657
 L 8.28107,1.47342 L 8.09418,1.49704 z
" stroke="black" fill="lightgray" stroke-width="0.5"/>
</svg>
