<?xml version="1.0" standalone="no"?>
<!DOCTYPE svg PUBLIC "-//W3C//DTD SVG 1.1//EN" "http://www.w3.org/Graphics/SVG/1.1/DTD/svg11.dtd">
<svg width="226mm" height="549mm" viewBox="-113 -693 226 549" xmlns="http://www.w3.org/2000/svg" version="1.1">
<title>OpenSCAD Model</title>
<path d="
M 108.437,-423.089 L 109.045,-423.245 L 109.629,-423.476 L 110.179,-423.778 L 110.687,-424.147 L 111.145,-424.577
 L 111.545,-425.061 L 111.882,-425.591 L 112.149,-426.159 L 112.343,-426.757 L 112.461,-427.373 L 112.5,-428
 L 112.5,-688 L 112.461,-688.627 L 112.343,-689.243 L 112.149,-689.841 L 111.882,-690.409 L 111.545,-690.939
 L 111.145,-691.423 L 110.687,-691.853 L 110.179,-692.222 L 109.629,-692.524 L 109.045,-692.755 L 108.437,-692.911
 L 107.814,-692.99 L -107.814,-692.99 L -108.437,-692.911 L -109.045,-692.755 L -109.629,-692.524 L -110.179,-692.222
 L -110.687,-691.853 L -111.145,-691.423 L -111.545,-690.939 L -111.882,-690.409 L -112.149,-689.841 L -112.343,-689.243
 L -112.461,-688.627 L -112.5,-688 L -112.5,-428 L -112.461,-427.373 L -112.343,-426.757 L -112.149,-426.159
 L -111.882,-425.591 L -111.545,-425.061 L -111.145,-424.577 L -110.687,-424.147 L -110.179,-423.778 L -109.629,-423.476
 L -109.045,-423.245 L -108.437,-423.089 L -107.814,-423.01 L 107.814,-423.01 z
M -105.151,-683.105 L -105.45,-683.143 L -105.742,-683.217 L -106.022,-683.328 L -106.286,-683.474 L -106.53,-683.651
 L -106.75,-683.857 L -106.942,-684.089 L -107.103,-684.344 L -107.231,-684.617 L -107.325,-684.903 L -107.381,-685.199
 L -107.4,-685.5 L -107.381,-685.801 L -107.325,-686.097 L -107.231,-686.383 L -107.103,-686.656 L -106.942,-686.911
 L -106.75,-687.143 L -106.53,-687.349 L -106.286,-687.526 L -106.022,-687.672 L -105.742,-687.783 L -105.45,-687.857
 L -105.151,-687.895 L -104.849,-687.895 L -104.55,-687.857 L -104.258,-687.783 L -103.978,-687.672 L -103.714,-687.526
 L -103.47,-687.349 L -103.25,-687.143 L -103.058,-686.911 L -102.897,-686.656 L -102.769,-686.383 L -102.675,-686.097
 L -102.619,-685.801 L -102.6,-685.5 L -102.619,-685.199 L -102.675,-684.903 L -102.769,-684.617 L -102.897,-684.344
 L -103.058,-684.089 L -103.25,-683.857 L -103.47,-683.651 L -103.714,-683.474 L -103.978,-683.328 L -104.258,-683.217
 L -104.55,-683.143 L -104.849,-683.105 z
M 104.849,-683.105 L 104.55,-683.143 L 104.258,-683.217 L 103.978,-683.328 L 103.714,-683.474 L 103.47,-683.651
 L 103.25,-683.857 L 103.058,-684.089 L 102.897,-684.344 L 102.769,-684.617 L 102.675,-684.903 L 102.619,-685.199
 L 102.6,-685.5 L 102.619,-685.801 L 102.675,-686.097 L 102.769,-686.383 L 102.897,-686.656 L 103.058,-686.911
 L 103.25,-687.143 L 103.47,-687.349 L 103.714,-687.526 L 103.978,-687.672 L 104.258,-687.783 L 104.55,-687.857
 L 104.849,-687.895 L 105.151,-687.895 L 105.45,-687.857 L 105.742,-687.783 L 106.022,-687.672 L 106.286,-687.526
 L 106.53,-687.349 L 106.75,-687.143 L 106.942,-686.911 L 107.103,-686.656 L 107.231,-686.383 L 107.325,-686.097
 L 107.381,-685.801 L 107.4,-685.5 L 107.381,-685.199 L 107.325,-684.903 L 107.231,-684.617 L 107.103,-684.344
 L 106.942,-684.089 L 106.75,-683.857 L 106.53,-683.651 L 106.286,-683.474 L 106.022,-683.328 L 105.742,-683.217
 L 105.45,-683.143 L 105.151,-683.105 z
M 104.849,-428.105 L 104.55,-428.143 L 104.258,-428.217 L 103.978,-428.328 L 103.714,-428.474 L 103.47,-428.651
 L 103.25,-428.857 L 103.058,-429.089 L 102.897,-429.344 L 102.769,-429.617 L 102.675,-429.903 L 102.619,-430.199
 L 102.6,-430.5 L 102.619,-430.801 L 102.675,-431.097 L 102.769,-431.383 L 102.897,-431.656 L 103.058,-431.911
 L 103.25,-432.143 L 103.47,-432.349 L 103.714,-432.526 L 103.978,-432.672 L 104.258,-432.783 L 104.55,-432.857
 L 104.849,-432.895 L 105.151,-432.895 L 105.45,-432.857 L 105.742,-432.783 L 106.022,-432.672 L 106.286,-432.526
 L 106.53,-432.349 L 106.75,-432.143 L 106.942,-431.911 L 107.103,-431.656 L 107.231,-431.383 L 107.325,-431.097
 L 107.381,-430.801 L 107.4,-430.5 L 107.381,-430.199 L 107.325,-429.903 L 107.231,-429.617 L 107.103,-429.344
 L 106.942,-429.089 L 106.75,-428.857 L 106.53,-428.651 L 106.286,-428.474 L 106.022,-428.328 L 105.742,-428.217
 L 105.45,-428.143 L 105.151,-428.105 z
M -105.151,-428.105 L -105.45,-428.143 L -105.742,-428.217 L -106.022,-428.328 L -106.286,-428.474 L -106.53,-428.651
 L -106.75,-428.857 L -106.942,-429.089 L -107.103,-429.344 L -107.231,-429.617 L -107.325,-429.903 L -107.381,-430.199
 L -107.4,-430.5 L -107.381,-430.801 L -107.325,-431.097 L -107.231,-431.383 L -107.103,-431.656 L -106.942,-431.911
 L -106.75,-432.143 L -106.53,-432.349 L -106.286,-432.526 L -106.022,-432.672 L -105.742,-432.783 L -105.45,-432.857
 L -105.151,-432.895 L -104.849,-432.895 L -104.55,-432.857 L -104.258,-432.783 L -103.978,-432.672 L -103.714,-432.526
 L -103.47,-432.349 L -103.25,-432.143 L -103.058,-431.911 L -102.897,-431.656 L -102.769,-431.383 L -102.675,-431.097
 L -102.619,-430.801 L -102.6,-430.5 L -102.619,-430.199 L -102.675,-429.903 L -102.769,-429.617 L -102.897,-429.344
 L -103.058,-429.089 L -103.25,-428.857 L -103.47,-428.651 L -103.714,-428.474 L -103.978,-428.328 L -104.258,-428.217
 L -104.55,-428.143 L -104.849,-428.105 z
M 108.437,-144.089 L 109.045,-144.245 L 109.629,-144.476 L 110.179,-144.778 L 110.687,-145.147 L 111.145,-145.577
 L 111.545,-146.061 L 111.882,-146.591 L 112.149,-147.159 L 112.343,-147.757 L 112.461,-148.373 L 112.5,-149
 L 112.5,-409 L 112.461,-409.627 L 112.343,-410.243 L 112.149,-410.841 L 111.882,-411.409 L 111.545,-411.939
 L 111.145,-412.423 L 110.687,-412.853 L 110.179,-413.222 L 109.629,-413.524 L 109.045,-413.755 L 108.437,-413.911
 L 107.814,-413.99 L -107.814,-413.99 L -108.437,-413.911 L -109.045,-413.755 L -109.629,-413.524 L -110.179,-413.222
 L -110.687,-412.853 L -111.145,-412.423 L -111.545,-411.939 L -111.882,-411.409 L -112.149,-410.841 L -112.343,-410.243
 L -112.461,-409.627 L -112.5,-409 L -112.5,-149 L -112.461,-148.373 L -112.343,-147.757 L -112.149,-147.159
 L -111.882,-146.591 L -111.545,-146.061 L -111.145,-145.577 L -110.687,-145.147 L -110.179,-144.778 L -109.629,-144.476
 L -109.045,-144.245 L -108.437,-144.089 L -107.814,-144.01 L 107.814,-144.01 z
M 104.887,-404.704 L 104.663,-404.732 L 104.444,-404.788 L 104.234,-404.871 L 104.036,-404.98 L 103.853,-405.113
 L 103.688,-405.268 L 103.544,-405.442 L 103.423,-405.633 L 103.326,-405.837 L 103.257,-406.052 L 103.214,-406.274
 L 103.2,-406.5 L 103.214,-406.726 L 103.257,-406.948 L 103.326,-407.163 L 103.423,-407.367 L 103.544,-407.558
 L 103.688,-407.732 L 103.853,-407.887 L 104.036,-408.02 L 104.234,-408.129 L 104.444,-408.212 L 104.663,-408.268
 L 104.887,-408.296 L 105.113,-408.296 L 105.337,-408.268 L 105.556,-408.212 L 105.766,-408.129 L 105.964,-408.02
 L 106.147,-407.887 L 106.312,-407.732 L 106.456,-407.558 L 106.577,-407.367 L 106.674,-407.163 L 106.743,-406.948
 L 106.786,-406.726 L 106.8,-406.5 L 106.786,-406.274 L 106.743,-406.052 L 106.674,-405.837 L 106.577,-405.633
 L 106.456,-405.442 L 106.312,-405.268 L 106.147,-405.113 L 105.964,-404.98 L 105.766,-404.871 L 105.556,-404.788
 L 105.337,-404.732 L 105.113,-404.704 z
M -105.113,-404.704 L -105.337,-404.732 L -105.556,-404.788 L -105.766,-404.871 L -105.964,-404.98 L -106.147,-405.113
 L -106.312,-405.268 L -106.456,-405.442 L -106.577,-405.633 L -106.674,-405.837 L -106.743,-406.052 L -106.786,-406.274
 L -106.8,-406.5 L -106.786,-406.726 L -106.743,-406.948 L -106.674,-407.163 L -106.577,-407.367 L -106.456,-407.558
 L -106.312,-407.732 L -106.147,-407.887 L -105.964,-408.02 L -105.766,-408.129 L -105.556,-408.212 L -105.337,-408.268
 L -105.113,-408.296 L -104.887,-408.296 L -104.663,-408.268 L -104.444,-408.212 L -104.234,-408.129 L -104.036,-408.02
 L -103.853,-407.887 L -103.688,-407.732 L -103.544,-407.558 L -103.423,-407.367 L -103.326,-407.163 L -103.257,-406.948
 L -103.214,-406.726 L -103.2,-406.5 L -103.214,-406.274 L -103.257,-406.052 L -103.326,-405.837 L -103.423,-405.633
 L -103.544,-405.442 L -103.688,-405.268 L -103.853,-405.113 L -104.036,-404.98 L -104.234,-404.871 L -104.444,-404.788
 L -104.663,-404.732 L -104.887,-404.704 z
M -105.113,-149.704 L -105.337,-149.732 L -105.556,-149.788 L -105.766,-149.871 L -105.964,-149.98 L -106.147,-150.113
 L -106.312,-150.268 L -106.456,-150.442 L -106.577,-150.633 L -106.674,-150.837 L -106.743,-151.052 L -106.786,-151.274
 L -106.8,-151.5 L -106.786,-151.726 L -106.743,-151.948 L -106.674,-152.163 L -106.577,-152.367 L -106.456,-152.558
 L -106.312,-152.732 L -106.147,-152.887 L -105.964,-153.02 L -105.766,-153.129 L -105.556,-153.212 L -105.337,-153.268
 L -105.113,-153.296 L -104.887,-153.296 L -104.663,-153.268 L -104.444,-153.212 L -104.234,-153.129 L -104.036,-153.02
 L -103.853,-152.887 L -103.688,-152.732 L -103.544,-152.558 L -103.423,-152.367 L -103.326,-152.163 L -103.257,-151.948
 L -103.214,-151.726 L -103.2,-151.5 L -103.214,-151.274 L -103.257,-151.052 L -103.326,-150.837 L -103.423,-150.633
 L -103.544,-150.442 L -103.688,-150.268 L -103.853,-150.113 L -104.036,-149.98 L -104.234,-149.871 L -104.444,-149.788
 L -104.663,-149.732 L -104.887,-149.704 z
M 104.887,-149.704 L 104.663,-149.732 L 104.444,-149.788 L 104.234,-149.871 L 104.036,-149.98 L 103.853,-150.113
 L 103.688,-150.268 L 103.544,-150.442 L 103.423,-150.633 L 103.326,-150.837 L 103.257,-151.052 L 103.214,-151.274
 L 103.2,-151.5 L 103.214,-151.726 L 103.257,-151.948 L 103.326,-152.163 L 103.423,-152.367 L 103.544,-152.558
 L 103.688,-152.732 L 103.853,-152.887 L 104.036,-153.02 L 104.234,-153.129 L 104.444,-153.212 L 104.663,-153.268
 L 104.887,-153.296 L 105.113,-153.296 L 105.337,-153.268 L 105.556,-153.212 L 105.766,-153.129 L 105.964,-153.02
 L 106.147,-152.887 L 106.312,-152.732 L 106.456,-152.558 L 106.577,-152.367 L 106.674,-152.163 L 106.743,-151.948
 L 106.786,-151.726 L 106.8,-151.5 L 106.786,-151.274 L 106.743,-151.052 L 106.674,-150.837 L 106.577,-150.633
 L 106.456,-150.442 L 106.312,-150.268 L 106.147,-150.113 L 105.964,-149.98 L 105.766,-149.871 L 105.556,-149.788
 L 105.337,-149.732 L 105.113,-149.704 z
" stroke="black" fill="lightgray" stroke-width="0.5"/>
</svg>
