<?xml version="1.0" standalone="no"?>
<!DOCTYPE svg PUBLIC "-//W3C//DTD SVG 1.1//EN" "http://www.w3.org/Graphics/SVG/1.1/DTD/svg11.dtd">
<svg width="242mm" height="69mm" viewBox="-122 -93 242 69" xmlns="http://www.w3.org/2000/svg" version="1.1">
<title>OpenSCAD Model</title>
<path d="
M 115.937,-63.0886 L 116.545,-63.2447 L 117.129,-63.4759 L 117.679,-63.7784 L 118.187,-64.1474 L 118.645,-64.5773
 L 119.045,-65.0611 L 119.382,-65.5912 L 119.649,-66.1594 L 119.843,-66.7566 L 119.961,-67.3733 L 120,-68
 L 120,-88 L 119.961,-88.6267 L 119.843,-89.2434 L 119.649,-89.8406 L 119.382,-90.4088 L 119.045,-90.9389
 L 118.645,-91.4227 L 118.187,-91.8526 L 117.679,-92.2216 L 117.129,-92.5241 L 116.545,-92.7553 L 115.937,-92.9114
 L 115.314,-92.9901 L -115.314,-92.9901 L -115.937,-92.9114 L -116.545,-92.7553 L -117.129,-92.5241 L -117.679,-92.2216
 L -118.187,-91.8526 L -118.5,-91.5587 L -118.5,-92.6148 L -121.5,-92.6148 L -121.5,-63.3852 L -118.5,-63.3852
 L -118.5,-64.4413 L -118.187,-64.1474 L -117.679,-63.7784 L -117.129,-63.4759 L -116.545,-63.2447 L -115.937,-63.0886
 L -115.314,-63.0099 L 115.314,-63.0099 z
M -112.651,-83.1047 L -112.95,-83.1425 L -113.242,-83.2175 L -113.522,-83.3284 L -113.786,-83.4736 L -114.03,-83.6508
 L -114.25,-83.8571 L -114.442,-84.0893 L -114.603,-84.3438 L -114.731,-84.6165 L -114.825,-84.9031 L -114.881,-85.1992
 L -114.9,-85.5 L -114.881,-85.8008 L -114.825,-86.0968 L -114.731,-86.3835 L -114.603,-86.6562 L -114.442,-86.9107
 L -114.25,-87.1429 L -114.03,-87.3492 L -113.786,-87.5264 L -113.522,-87.6716 L -113.242,-87.7825 L -112.95,-87.8575
 L -112.651,-87.8953 L -112.349,-87.8953 L -112.05,-87.8575 L -111.758,-87.7825 L -111.478,-87.6716 L -111.214,-87.5264
 L -110.97,-87.3492 L -110.75,-87.1429 L -110.558,-86.9107 L -110.397,-86.6562 L -110.269,-86.3835 L -110.175,-86.0968
 L -110.119,-85.8008 L -110.1,-85.5 L -110.119,-85.1992 L -110.175,-84.9031 L -110.269,-84.6165 L -110.397,-84.3438
 L -110.558,-84.0893 L -110.75,-83.8571 L -110.97,-83.6508 L -111.214,-83.4736 L -111.478,-83.3284 L -111.758,-83.2175
 L -112.05,-83.1425 L -112.349,-83.1047 z
M 112.349,-83.1047 L 112.05,-83.1425 L 111.758,-83.2175 L 111.478,-83.3284 L 111.214,-83.4736 L 110.97,-83.6508
 L 110.75,-83.8571 L 110.558,-84.0893 L 110.397,-84.3438 L 110.269,-84.6165 L 110.175,-84.9031 L 110.119,-85.1992
 L 110.1,-85.5 L 110.119,-85.8008 L 110.175,-86.0968 L 110.269,-86.3835 L 110.397,-86.6562 L 110.558,-86.9107
 L 110.75,-87.1429 L 110.97,-87.3492 L 111.214,-87.5264 L 111.478,-87.6716 L 111.758,-87.7825 L 112.05,-87.8575
 L 112.349,-87.8953 L 112.651,-87.8953 L 112.95,-87.8575 L 113.242,-87.7825 L 113.522,-87.6716 L 113.786,-87.5264
 L 114.03,-87.3492 L 114.25,-87.1429 L 114.442,-86.9107 L 114.603,-86.6562 L 114.731,-86.3835 L 114.825,-86.0968
 L 114.881,-85.8008 L 114.9,-85.5 L 114.881,-85.1992 L 114.825,-84.9031 L 114.731,-84.6165 L 114.603,-84.3438
 L 114.442,-84.0893 L 114.25,-83.8571 L 114.03,-83.6508 L 113.786,-83.4736 L 113.522,-83.3284 L 113.242,-83.2175
 L 112.95,-83.1425 L 112.651,-83.1047 z
M 112.349,-68.1047 L 112.05,-68.1425 L 111.758,-68.2175 L 111.478,-68.3284 L 111.214,-68.4736 L 110.97,-68.6508
 L 110.75,-68.8571 L 110.558,-69.0893 L 110.397,-69.3438 L 110.269,-69.6165 L 110.175,-69.9032 L 110.119,-70.1992
 L 110.1,-70.5 L 110.119,-70.8008 L 110.175,-71.0969 L 110.269,-71.3835 L 110.397,-71.6562 L 110.558,-71.9107
 L 110.75,-72.1429 L 110.97,-72.3492 L 111.214,-72.5264 L 111.478,-72.6716 L 111.758,-72.7825 L 112.05,-72.8575
 L 112.349,-72.8953 L 112.651,-72.8953 L 112.95,-72.8575 L 113.242,-72.7825 L 113.522,-72.6716 L 113.786,-72.5264
 L 114.03,-72.3492 L 114.25,-72.1429 L 114.442,-71.9107 L 114.603,-71.6562 L 114.731,-71.3835 L 114.825,-71.0969
 L 114.881,-70.8008 L 114.9,-70.5 L 114.881,-70.1992 L 114.825,-69.9032 L 114.731,-69.6165 L 114.603,-69.3438
 L 114.442,-69.0893 L 114.25,-68.8571 L 114.03,-68.6508 L 113.786,-68.4736 L 113.522,-68.3284 L 113.242,-68.2175
 L 112.95,-68.1425 L 112.651,-68.1047 z
M -112.651,-68.1047 L -112.95,-68.1425 L -113.242,-68.2175 L -113.522,-68.3284 L -113.786,-68.4736 L -114.03,-68.6508
 L -114.25,-68.8571 L -114.442,-69.0893 L -114.603,-69.3438 L -114.731,-69.6165 L -114.825,-69.9032 L -114.881,-70.1992
 L -114.9,-70.5 L -114.881,-70.8008 L -114.825,-71.0969 L -114.731,-71.3835 L -114.603,-71.6562 L -114.442,-71.9107
 L -114.25,-72.1429 L -114.03,-72.3492 L -113.786,-72.5264 L -113.522,-72.6716 L -113.242,-72.7825 L -112.95,-72.8575
 L -112.651,-72.8953 L -112.349,-72.8953 L -112.05,-72.8575 L -111.758,-72.7825 L -111.478,-72.6716 L -111.214,-72.5264
 L -110.97,-72.3492 L -110.75,-72.1429 L -110.558,-71.9107 L -110.397,-71.6562 L -110.269,-71.3835 L -110.175,-71.0969
 L -110.119,-70.8008 L -110.1,-70.5 L -110.119,-70.1992 L -110.175,-69.9032 L -110.269,-69.6165 L -110.397,-69.3438
 L -110.558,-69.0893 L -110.75,-68.8571 L -110.97,-68.6508 L -111.214,-68.4736 L -111.478,-68.3284 L -111.758,-68.2175
 L -112.05,-68.1425 L -112.349,-68.1047 z
M 115.937,-24.0886 L 116.545,-24.2447 L 117.129,-24.4759 L 117.679,-24.7784 L 118.187,-25.1474 L 118.645,-25.5773
 L 119.045,-26.0611 L 119.382,-26.5912 L 119.649,-27.1594 L 119.843,-27.7566 L 119.961,-28.3733 L 120,-29
 L 120,-49 L 119.961,-49.6267 L 119.843,-50.2434 L 119.649,-50.8406 L 119.382,-51.4088 L 119.045,-51.9389
 L 118.645,-52.4227 L 118.187,-52.8526 L 117.679,-53.2216 L 117.129,-53.5241 L 116.545,-53.7553 L 115.937,-53.9114
 L 115.314,-53.9901 L -115.314,-53.9901 L -115.937,-53.9114 L -116.545,-53.7553 L -117.129,-53.5241 L -117.679,-53.2216
 L -118.187,-52.8526 L -118.645,-52.4227 L -119.045,-51.9389 L -119.382,-51.4088 L -119.649,-50.8406 L -119.843,-50.2434
 L -119.9,-49.9442 L -121.5,-49.9442 L -121.5,-28.0558 L -119.9,-28.0558 L -119.843,-27.7566 L -119.649,-27.1594
 L -119.382,-26.5912 L -119.045,-26.0611 L -118.645,-25.5773 L -118.187,-25.1474 L -117.679,-24.7784 L -117.129,-24.4759
 L -116.545,-24.2447 L -115.937,-24.0886 L -115.314,-24.0099 L 115.314,-24.0099 z
M 112.387,-44.7036 L 112.163,-44.7319 L 111.944,-44.7881 L 111.734,-44.8713 L 111.536,-44.9802 L 111.353,-45.1131
 L 111.188,-45.2678 L 111.044,-45.442 L 110.923,-45.6328 L 110.826,-45.8374 L 110.757,-46.0524 L 110.714,-46.2744
 L 110.7,-46.5 L 110.714,-46.7256 L 110.757,-46.9476 L 110.826,-47.1626 L 110.923,-47.3671 L 111.044,-47.558
 L 111.188,-47.7322 L 111.353,-47.8869 L 111.536,-48.0198 L 111.734,-48.1287 L 111.944,-48.2119 L 112.163,-48.2681
 L 112.387,-48.2964 L 112.613,-48.2964 L 112.837,-48.2681 L 113.056,-48.2119 L 113.266,-48.1287 L 113.464,-48.0198
 L 113.647,-47.8869 L 113.812,-47.7322 L 113.956,-47.558 L 114.077,-47.3671 L 114.174,-47.1626 L 114.243,-46.9476
 L 114.286,-46.7256 L 114.3,-46.5 L 114.286,-46.2744 L 114.243,-46.0524 L 114.174,-45.8374 L 114.077,-45.6328
 L 113.956,-45.442 L 113.812,-45.2678 L 113.647,-45.1131 L 113.464,-44.9802 L 113.266,-44.8713 L 113.056,-44.7881
 L 112.837,-44.7319 L 112.613,-44.7036 z
M -112.613,-44.7036 L -112.837,-44.7319 L -113.056,-44.7881 L -113.266,-44.8713 L -113.464,-44.9802 L -113.647,-45.1131
 L -113.812,-45.2678 L -113.956,-45.442 L -114.077,-45.6328 L -114.174,-45.8374 L -114.243,-46.0524 L -114.286,-46.2744
 L -114.3,-46.5 L -114.286,-46.7256 L -114.243,-46.9476 L -114.174,-47.1626 L -114.077,-47.3671 L -113.956,-47.558
 L -113.812,-47.7322 L -113.647,-47.8869 L -113.464,-48.0198 L -113.266,-48.1287 L -113.056,-48.2119 L -112.837,-48.2681
 L -112.613,-48.2964 L -112.387,-48.2964 L -112.163,-48.2681 L -111.944,-48.2119 L -111.734,-48.1287 L -111.536,-48.0198
 L -111.353,-47.8869 L -111.188,-47.7322 L -111.044,-47.558 L -110.923,-47.3671 L -110.826,-47.1626 L -110.757,-46.9476
 L -110.714,-46.7256 L -110.7,-46.5 L -110.714,-46.2744 L -110.757,-46.0524 L -110.826,-45.8374 L -110.923,-45.6328
 L -111.044,-45.442 L -111.188,-45.2678 L -111.353,-45.1131 L -111.536,-44.9802 L -111.734,-44.8713 L -111.944,-44.7881
 L -112.163,-44.7319 L -112.387,-44.7036 z
M -112.613,-29.7036 L -112.837,-29.7319 L -113.056,-29.7881 L -113.266,-29.8713 L -113.464,-29.9802 L -113.647,-30.1131
 L -113.812,-30.2678 L -113.956,-30.442 L -114.077,-30.6329 L -114.174,-30.8374 L -114.243,-31.0524 L -114.286,-31.2744
 L -114.3,-31.5 L -114.286,-31.7256 L -114.243,-31.9476 L -114.174,-32.1626 L -114.077,-32.3672 L -113.956,-32.558
 L -113.812,-32.7322 L -113.647,-32.8869 L -113.464,-33.0198 L -113.266,-33.1287 L -113.056,-33.2119 L -112.837,-33.2681
 L -112.613,-33.2964 L -112.387,-33.2964 L -112.163,-33.2681 L -111.944,-33.2119 L -111.734,-33.1287 L -111.536,-33.0198
 L -111.353,-32.8869 L -111.188,-32.7322 L -111.044,-32.558 L -110.923,-32.3672 L -110.826,-32.1626 L -110.757,-31.9476
 L -110.714,-31.7256 L -110.7,-31.5 L -110.714,-31.2744 L -110.757,-31.0524 L -110.826,-30.8374 L -110.923,-30.6329
 L -111.044,-30.442 L -111.188,-30.2678 L -111.353,-30.1131 L -111.536,-29.9802 L -111.734,-29.8713 L -111.944,-29.7881
 L -112.163,-29.7319 L -112.387,-29.7036 z
M 112.387,-29.7036 L 112.163,-29.7319 L 111.944,-29.7881 L 111.734,-29.8713 L 111.536,-29.9802 L 111.353,-30.1131
 L 111.188,-30.2678 L 111.044,-30.442 L 110.923,-30.6329 L 110.826,-30.8374 L 110.757,-31.0524 L 110.714,-31.2744
 L 110.7,-31.5 L 110.714,-31.7256 L 110.757,-31.9476 L 110.826,-32.1626 L 110.923,-32.3672 L 111.044,-32.558
 L 111.188,-32.7322 L 111.353,-32.8869 L 111.536,-33.0198 L 111.734,-33.1287 L 111.944,-33.2119 L 112.163,-33.2681
 L 112.387,-33.2964 L 112.613,-33.2964 L 112.837,-33.2681 L 113.056,-33.2119 L 113.266,-33.1287 L 113.464,-33.0198
 L 113.647,-32.8869 L 113.812,-32.7322 L 113.956,-32.558 L 114.077,-32.3672 L 114.174,-32.1626 L 114.243,-31.9476
 L 114.286,-31.7256 L 114.3,-31.5 L 114.286,-31.2744 L 114.243,-31.0524 L 114.174,-30.8374 L 114.077,-30.6329
 L 113.956,-30.442 L 113.812,-30.2678 L 113.647,-30.1131 L 113.464,-29.9802 L 113.266,-29.8713 L 113.056,-29.7881
 L 112.837,-29.7319 L 112.613,-29.7036 z
" stroke="black" fill="lightgray" stroke-width="0.5"/>
</svg>
