<?xml version="1.0" standalone="no"?>
<!DOCTYPE svg PUBLIC "-//W3C//DTD SVG 1.1//EN" "http://www.w3.org/Graphics/SVG/1.1/DTD/svg11.dtd">
<svg width="272mm" height="981mm" viewBox="-137 -1926 272 981" xmlns="http://www.w3.org/2000/svg" version="1.1">
<title>OpenSCAD Model</title>
<path d="
M 130.937,-1836.09 L 131.545,-1836.24 L 132.129,-1836.48 L 132.679,-1836.78 L 133.187,-1837.15 L 133.645,-1837.58
 L 134.045,-1838.06 L 134.382,-1838.59 L 134.649,-1839.16 L 134.843,-1839.76 L 134.961,-1840.37 L 135,-1841
 L 135,-1921 L 134.961,-1921.63 L 134.843,-1922.24 L 134.649,-1922.84 L 134.382,-1923.41 L 134.045,-1923.94
 L 133.645,-1924.42 L 133.187,-1924.85 L 132.679,-1925.22 L 132.129,-1925.52 L 131.545,-1925.76 L 130.937,-1925.91
 L 130.314,-1925.99 L -130.314,-1925.99 L -130.937,-1925.91 L -131.545,-1925.76 L -132.129,-1925.52 L -132.679,-1925.22
 L -133.187,-1924.85 L -133.5,-1924.56 L -136.5,-1924.56 L -136.5,-1837.44 L -133.5,-1837.44 L -133.187,-1837.15
 L -132.679,-1836.78 L -132.129,-1836.48 L -131.545,-1836.24 L -130.937,-1836.09 L -130.314,-1836.01 L 130.314,-1836.01
 z
M -129.751,-1837.51 L -130.25,-1837.57 L -130.736,-1837.7 L -131.203,-1837.88 L -131.643,-1838.12 L -132.05,-1838.42
 L -132.416,-1838.76 L -132.736,-1839.15 L -133.005,-1839.57 L -133.219,-1840.03 L -133.374,-1840.51 L -133.468,-1841
 L -133.5,-1841.5 L -133.5,-1920.5 L -133.468,-1921 L -133.374,-1921.49 L -133.219,-1921.97 L -133.005,-1922.43
 L -132.736,-1922.85 L -132.416,-1923.24 L -132.05,-1923.58 L -131.643,-1923.88 L -131.203,-1924.12 L -130.736,-1924.3
 L -130.25,-1924.43 L -129.751,-1924.49 L 129.751,-1924.49 L 130.25,-1924.43 L 130.736,-1924.3 L 131.203,-1924.12
 L 131.643,-1923.88 L 132.05,-1923.58 L 132.416,-1923.24 L 132.736,-1922.85 L 133.005,-1922.43 L 133.219,-1921.97
 L 133.374,-1921.49 L 133.468,-1921 L 133.5,-1920.5 L 133.5,-1841.5 L 133.468,-1841 L 133.374,-1840.51
 L 133.219,-1840.03 L 133.005,-1839.57 L 132.736,-1839.15 L 132.416,-1838.76 L 132.05,-1838.42 L 131.643,-1838.12
 L 131.203,-1837.88 L 130.736,-1837.7 L 130.25,-1837.57 L 129.751,-1837.51 z
M 130.937,-1737.09 L 131.545,-1737.24 L 132.129,-1737.48 L 132.679,-1737.78 L 133.187,-1738.15 L 133.645,-1738.58
 L 134.045,-1739.06 L 134.382,-1739.59 L 134.649,-1740.16 L 134.843,-1740.76 L 134.961,-1741.37 L 135,-1742
 L 135,-1822 L 134.961,-1822.63 L 134.843,-1823.24 L 134.649,-1823.84 L 134.382,-1824.41 L 134.045,-1824.94
 L 133.645,-1825.42 L 133.187,-1825.85 L 132.679,-1826.22 L 132.129,-1826.52 L 131.545,-1826.76 L 130.937,-1826.91
 L 130.314,-1826.99 L -130.314,-1826.99 L -130.937,-1826.91 L -131.545,-1826.76 L -132.129,-1826.52 L -132.679,-1826.22
 L -133.187,-1825.85 L -133.5,-1825.56 L -133.5,-1826.97 L -136.5,-1826.97 L -136.5,-1737.03 L -133.5,-1737.03
 L -133.5,-1738.44 L -133.187,-1738.15 L -132.679,-1737.78 L -132.129,-1737.48 L -131.545,-1737.24 L -130.937,-1737.09
 L -130.314,-1737.01 L 130.314,-1737.01 z
M -129.751,-1738.51 L -130.25,-1738.57 L -130.736,-1738.7 L -131.203,-1738.88 L -131.643,-1739.12 L -132.05,-1739.42
 L -132.416,-1739.76 L -132.736,-1740.15 L -133.005,-1740.57 L -133.219,-1741.03 L -133.374,-1741.51 L -133.468,-1742
 L -133.5,-1742.5 L -133.5,-1821.5 L -133.468,-1822 L -133.374,-1822.49 L -133.219,-1822.97 L -133.005,-1823.43
 L -132.736,-1823.85 L -132.416,-1824.24 L -132.05,-1824.58 L -131.643,-1824.88 L -131.203,-1825.12 L -130.736,-1825.3
 L -130.25,-1825.43 L -129.751,-1825.49 L 129.751,-1825.49 L 130.25,-1825.43 L 130.736,-1825.3 L 131.203,-1825.12
 L 131.643,-1824.88 L 132.05,-1824.58 L 132.416,-1824.24 L 132.736,-1823.85 L 133.005,-1823.43 L 133.219,-1822.97
 L 133.374,-1822.49 L 133.468,-1822 L 133.5,-1821.5 L 133.5,-1742.5 L 133.468,-1742 L 133.374,-1741.51
 L 133.219,-1741.03 L 133.005,-1740.57 L 132.736,-1740.15 L 132.416,-1739.76 L 132.05,-1739.42 L 131.643,-1739.12
 L 131.203,-1738.88 L 130.736,-1738.7 L 130.25,-1738.57 L 129.751,-1738.51 z
M -133.5,-1639.44 L -133.187,-1639.15 L -132.679,-1638.78 L -132.129,-1638.48 L -131.545,-1638.24 L -130.937,-1638.09
 L -130.314,-1638.01 L 130.314,-1638.01 L 130.937,-1638.09 L 131.545,-1638.24 L 132.129,-1638.48 L 132.679,-1638.78
 L 133.187,-1639.15 L 133.645,-1639.58 L 134.045,-1640.06 L 134.382,-1640.59 L 134.649,-1641.16 L 134.843,-1641.76
 L 134.961,-1642.37 L 135,-1643 L 135,-1723 L 134.961,-1723.63 L 134.843,-1724.24 L 134.649,-1724.84
 L 134.382,-1725.41 L 134.045,-1725.94 L 133.645,-1726.42 L 133.187,-1726.85 L 132.679,-1727.22 L 132.129,-1727.52
 L 131.545,-1727.76 L 130.937,-1727.91 L 130.314,-1727.99 L -130.314,-1727.99 L -130.937,-1727.91 L -131.545,-1727.76
 L -132.129,-1727.52 L -132.679,-1727.22 L -133.187,-1726.85 L -133.5,-1726.56 L -133.5,-1727.99 L -136.5,-1727.99
 L -136.5,-1723.49 L -133.374,-1723.49 L -133.374,-1723.49 L -133.219,-1723.97 L -133.005,-1724.43 L -132.736,-1724.85
 L -132.416,-1725.24 L -132.05,-1725.58 L -131.643,-1725.88 L -131.203,-1726.12 L -130.736,-1726.3 L -130.25,-1726.43
 L -129.751,-1726.49 L 129.751,-1726.49 L 130.25,-1726.43 L 130.736,-1726.3 L 131.203,-1726.12 L 131.643,-1725.88
 L 132.05,-1725.58 L 132.416,-1725.24 L 132.736,-1724.85 L 133.005,-1724.43 L 133.219,-1723.97 L 133.374,-1723.49
 L 133.468,-1723 L 133.5,-1722.5 L 133.5,-1643.5 L 133.468,-1643 L 133.374,-1642.51 L 133.219,-1642.03
 L 133.005,-1641.57 L 132.736,-1641.15 L 132.416,-1640.76 L 132.05,-1640.42 L 131.643,-1640.12 L 131.203,-1639.88
 L 130.736,-1639.7 L 130.25,-1639.57 L 129.751,-1639.51 L -129.751,-1639.51 L -130.25,-1639.57 L -130.736,-1639.7
 L -131.203,-1639.88 L -131.643,-1640.12 L -132.05,-1640.42 L -132.416,-1640.76 L -132.736,-1641.15 L -133.005,-1641.57
 L -133.219,-1642.03 L -133.374,-1642.51 L -133.374,-1642.51 L -136.5,-1642.51 L -136.5,-1638.01 L -133.5,-1638.01
 z
M -133.5,-1717.51 L -136.5,-1717.51 L -136.5,-1708.49 L -133.5,-1708.49 z
M -133.5,-1702.51 L -136.5,-1702.51 L -136.5,-1693.49 L -133.5,-1693.49 z
M -133.5,-1687.51 L -136.5,-1687.51 L -136.5,-1678.49 L -133.5,-1678.49 z
M -133.5,-1672.51 L -136.5,-1672.51 L -136.5,-1663.49 L -133.5,-1663.49 z
M -133.5,-1657.51 L -136.5,-1657.51 L -136.5,-1648.49 L -133.5,-1648.49 z
M -133.5,-1540.44 L -133.187,-1540.15 L -132.679,-1539.78 L -132.129,-1539.48 L -131.545,-1539.24 L -130.937,-1539.09
 L -130.314,-1539.01 L 130.314,-1539.01 L 130.937,-1539.09 L 131.545,-1539.24 L 132.129,-1539.48 L 132.679,-1539.78
 L 133.187,-1540.15 L 133.645,-1540.58 L 134.045,-1541.06 L 134.382,-1541.59 L 134.649,-1542.16 L 134.843,-1542.76
 L 134.961,-1543.37 L 135,-1544 L 135,-1624 L 134.961,-1624.63 L 134.843,-1625.24 L 134.649,-1625.84
 L 134.382,-1626.41 L 134.045,-1626.94 L 133.645,-1627.42 L 133.187,-1627.85 L 132.679,-1628.22 L 132.129,-1628.52
 L 131.545,-1628.76 L 130.937,-1628.91 L 130.314,-1628.99 L -130.314,-1628.99 L -130.937,-1628.91 L -131.545,-1628.76
 L -132.129,-1628.52 L -132.679,-1628.22 L -133.187,-1627.85 L -133.5,-1627.56 L -133.5,-1628.99 L -136.5,-1628.99
 L -136.5,-1539.01 L -133.5,-1539.01 z
M -129.751,-1540.51 L -130.25,-1540.57 L -130.736,-1540.7 L -131.203,-1540.88 L -131.643,-1541.12 L -132.05,-1541.42
 L -132.416,-1541.76 L -132.736,-1542.15 L -133.005,-1542.57 L -133.219,-1543.03 L -133.374,-1543.51 L -133.468,-1544
 L -133.5,-1544.5 L -133.5,-1623.5 L -133.468,-1624 L -133.374,-1624.49 L -133.219,-1624.97 L -133.005,-1625.43
 L -132.736,-1625.85 L -132.416,-1626.24 L -132.05,-1626.58 L -131.643,-1626.88 L -131.203,-1627.12 L -130.736,-1627.3
 L -130.25,-1627.43 L -129.751,-1627.49 L 129.751,-1627.49 L 130.25,-1627.43 L 130.736,-1627.3 L 131.203,-1627.12
 L 131.643,-1626.88 L 132.05,-1626.58 L 132.416,-1626.24 L 132.736,-1625.85 L 133.005,-1625.43 L 133.219,-1624.97
 L 133.374,-1624.49 L 133.468,-1624 L 133.5,-1623.5 L 133.5,-1544.5 L 133.468,-1544 L 133.374,-1543.51
 L 133.219,-1543.03 L 133.005,-1542.57 L 132.736,-1542.15 L 132.416,-1541.76 L 132.05,-1541.42 L 131.643,-1541.12
 L 131.203,-1540.88 L 130.736,-1540.7 L 130.25,-1540.57 L 129.751,-1540.51 z
M -133.5,-1441.44 L -133.187,-1441.15 L -132.679,-1440.78 L -132.129,-1440.48 L -131.545,-1440.24 L -130.937,-1440.09
 L -130.314,-1440.01 L 130.314,-1440.01 L 130.937,-1440.09 L 131.545,-1440.24 L 132.129,-1440.48 L 132.679,-1440.78
 L 133.187,-1441.15 L 133.645,-1441.58 L 134.045,-1442.06 L 134.382,-1442.59 L 134.649,-1443.16 L 134.843,-1443.76
 L 134.961,-1444.37 L 135,-1445 L 135,-1525 L 134.961,-1525.63 L 134.843,-1526.24 L 134.649,-1526.84
 L 134.382,-1527.41 L 134.045,-1527.94 L 133.645,-1528.42 L 133.187,-1528.85 L 132.679,-1529.22 L 132.129,-1529.52
 L 131.545,-1529.76 L 130.937,-1529.91 L 130.314,-1529.99 L -130.314,-1529.99 L -130.937,-1529.91 L -131.545,-1529.76
 L -132.129,-1529.52 L -132.679,-1529.22 L -133.187,-1528.85 L -133.5,-1528.56 L -133.5,-1529.99 L -136.5,-1529.99
 L -136.5,-1440.01 L -133.5,-1440.01 z
M -129.751,-1441.51 L -130.25,-1441.57 L -130.736,-1441.7 L -131.203,-1441.88 L -131.643,-1442.12 L -132.05,-1442.42
 L -132.416,-1442.76 L -132.736,-1443.15 L -133.005,-1443.57 L -133.219,-1444.03 L -133.374,-1444.51 L -133.468,-1445
 L -133.5,-1445.5 L -133.5,-1524.5 L -133.468,-1525 L -133.374,-1525.49 L -133.219,-1525.97 L -133.005,-1526.43
 L -132.736,-1526.85 L -132.416,-1527.24 L -132.05,-1527.58 L -131.643,-1527.88 L -131.203,-1528.12 L -130.736,-1528.3
 L -130.25,-1528.43 L -129.751,-1528.49 L 129.751,-1528.49 L 130.25,-1528.43 L 130.736,-1528.3 L 131.203,-1528.12
 L 131.643,-1527.88 L 132.05,-1527.58 L 132.416,-1527.24 L 132.736,-1526.85 L 133.005,-1526.43 L 133.219,-1525.97
 L 133.374,-1525.49 L 133.468,-1525 L 133.5,-1524.5 L 133.5,-1445.5 L 133.468,-1445 L 133.374,-1444.51
 L 133.219,-1444.03 L 133.005,-1443.57 L 132.736,-1443.15 L 132.416,-1442.76 L 132.05,-1442.42 L 131.643,-1442.12
 L 131.203,-1441.88 L 130.736,-1441.7 L 130.25,-1441.57 L 129.751,-1441.51 z
M -133.5,-1342.44 L -133.187,-1342.15 L -132.679,-1341.78 L -132.129,-1341.48 L -131.545,-1341.24 L -130.937,-1341.09
 L -130.314,-1341.01 L 130.314,-1341.01 L 130.937,-1341.09 L 131.545,-1341.24 L 132.129,-1341.48 L 132.679,-1341.78
 L 133.187,-1342.15 L 133.645,-1342.58 L 134.045,-1343.06 L 134.382,-1343.59 L 134.649,-1344.16 L 134.843,-1344.76
 L 134.961,-1345.37 L 135,-1346 L 135,-1426 L 134.961,-1426.63 L 134.843,-1427.24 L 134.649,-1427.84
 L 134.382,-1428.41 L 134.045,-1428.94 L 133.645,-1429.42 L 133.187,-1429.85 L 132.679,-1430.22 L 132.129,-1430.52
 L 131.545,-1430.76 L 130.937,-1430.91 L 130.314,-1430.99 L -130.314,-1430.99 L -130.937,-1430.91 L -131.545,-1430.76
 L -132.129,-1430.52 L -132.679,-1430.22 L -133.187,-1429.85 L -133.5,-1429.56 L -133.5,-1430.99 L -136.5,-1430.99
 L -136.5,-1341.01 L -133.5,-1341.01 z
M -129.751,-1342.51 L -130.25,-1342.57 L -130.736,-1342.7 L -131.203,-1342.88 L -131.643,-1343.12 L -132.05,-1343.42
 L -132.416,-1343.76 L -132.736,-1344.15 L -133.005,-1344.57 L -133.219,-1345.03 L -133.374,-1345.51 L -133.468,-1346
 L -133.5,-1346.5 L -133.5,-1425.5 L -133.468,-1426 L -133.374,-1426.49 L -133.219,-1426.97 L -133.005,-1427.43
 L -132.736,-1427.85 L -132.416,-1428.24 L -132.05,-1428.58 L -131.643,-1428.88 L -131.203,-1429.12 L -130.736,-1429.3
 L -130.25,-1429.43 L -129.751,-1429.49 L 129.751,-1429.49 L 130.25,-1429.43 L 130.736,-1429.3 L 131.203,-1429.12
 L 131.643,-1428.88 L 132.05,-1428.58 L 132.416,-1428.24 L 132.736,-1427.85 L 133.005,-1427.43 L 133.219,-1426.97
 L 133.374,-1426.49 L 133.468,-1426 L 133.5,-1425.5 L 133.5,-1346.5 L 133.468,-1346 L 133.374,-1345.51
 L 133.219,-1345.03 L 133.005,-1344.57 L 132.736,-1344.15 L 132.416,-1343.76 L 132.05,-1343.42 L 131.643,-1343.12
 L 131.203,-1342.88 L 130.736,-1342.7 L 130.25,-1342.57 L 129.751,-1342.51 z
M -133.5,-1243.44 L -133.187,-1243.15 L -132.679,-1242.78 L -132.129,-1242.48 L -131.545,-1242.24 L -130.937,-1242.09
 L -130.314,-1242.01 L 130.314,-1242.01 L 130.937,-1242.09 L 131.545,-1242.24 L 132.129,-1242.48 L 132.679,-1242.78
 L 133.187,-1243.15 L 133.645,-1243.58 L 134.045,-1244.06 L 134.382,-1244.59 L 134.649,-1245.16 L 134.843,-1245.76
 L 134.961,-1246.37 L 135,-1247 L 135,-1327 L 134.961,-1327.63 L 134.843,-1328.24 L 134.649,-1328.84
 L 134.382,-1329.41 L 134.045,-1329.94 L 133.645,-1330.42 L 133.187,-1330.85 L 132.679,-1331.22 L 132.129,-1331.52
 L 131.545,-1331.76 L 130.937,-1331.91 L 130.314,-1331.99 L -130.314,-1331.99 L -130.937,-1331.91 L -131.545,-1331.76
 L -132.129,-1331.52 L -132.679,-1331.22 L -133.187,-1330.85 L -133.5,-1330.56 L -133.5,-1331.99 L -136.5,-1331.99
 L -136.5,-1242.01 L -133.5,-1242.01 z
M -129.751,-1243.51 L -130.25,-1243.57 L -130.736,-1243.7 L -131.203,-1243.88 L -131.643,-1244.12 L -132.05,-1244.42
 L -132.416,-1244.76 L -132.736,-1245.15 L -133.005,-1245.57 L -133.219,-1246.03 L -133.374,-1246.51 L -133.468,-1247
 L -133.5,-1247.5 L -133.5,-1326.5 L -133.468,-1327 L -133.374,-1327.49 L -133.219,-1327.97 L -133.005,-1328.43
 L -132.736,-1328.85 L -132.416,-1329.24 L -132.05,-1329.58 L -131.643,-1329.88 L -131.203,-1330.12 L -130.736,-1330.3
 L -130.25,-1330.43 L -129.751,-1330.49 L 129.751,-1330.49 L 130.25,-1330.43 L 130.736,-1330.3 L 131.203,-1330.12
 L 131.643,-1329.88 L 132.05,-1329.58 L 132.416,-1329.24 L 132.736,-1328.85 L 133.005,-1328.43 L 133.219,-1327.97
 L 133.374,-1327.49 L 133.468,-1327 L 133.5,-1326.5 L 133.5,-1247.5 L 133.468,-1247 L 133.374,-1246.51
 L 133.219,-1246.03 L 133.005,-1245.57 L 132.736,-1245.15 L 132.416,-1244.76 L 132.05,-1244.42 L 131.643,-1244.12
 L 131.203,-1243.88 L 130.736,-1243.7 L 130.25,-1243.57 L 129.751,-1243.51 z
M -133.5,-1144.44 L -133.187,-1144.15 L -132.679,-1143.78 L -132.129,-1143.48 L -131.545,-1143.24 L -130.937,-1143.09
 L -130.314,-1143.01 L 130.314,-1143.01 L 130.937,-1143.09 L 131.545,-1143.24 L 132.129,-1143.48 L 132.679,-1143.78
 L 133.187,-1144.15 L 133.645,-1144.58 L 134.045,-1145.06 L 134.382,-1145.59 L 134.649,-1146.16 L 134.843,-1146.76
 L 134.961,-1147.37 L 135,-1148 L 135,-1228 L 134.961,-1228.63 L 134.843,-1229.24 L 134.649,-1229.84
 L 134.382,-1230.41 L 134.045,-1230.94 L 133.645,-1231.42 L 133.187,-1231.85 L 132.679,-1232.22 L 132.129,-1232.52
 L 131.545,-1232.76 L 130.937,-1232.91 L 130.314,-1232.99 L -130.314,-1232.99 L -130.937,-1232.91 L -131.545,-1232.76
 L -132.129,-1232.52 L -132.679,-1232.22 L -133.187,-1231.85 L -133.5,-1231.56 L -133.5,-1232.99 L -136.5,-1232.99
 L -136.5,-1143.01 L -133.5,-1143.01 z
M -129.751,-1144.51 L -130.25,-1144.57 L -130.736,-1144.7 L -131.203,-1144.88 L -131.643,-1145.12 L -132.05,-1145.42
 L -132.416,-1145.76 L -132.736,-1146.15 L -133.005,-1146.57 L -133.219,-1147.03 L -133.374,-1147.51 L -133.468,-1148
 L -133.5,-1148.5 L -133.5,-1227.5 L -133.468,-1228 L -133.374,-1228.49 L -133.219,-1228.97 L -133.005,-1229.43
 L -132.736,-1229.85 L -132.416,-1230.24 L -132.05,-1230.58 L -131.643,-1230.88 L -131.203,-1231.12 L -130.736,-1231.3
 L -130.25,-1231.43 L -129.751,-1231.49 L 129.751,-1231.49 L 130.25,-1231.43 L 130.736,-1231.3 L 131.203,-1231.12
 L 131.643,-1230.88 L 132.05,-1230.58 L 132.416,-1230.24 L 132.736,-1229.85 L 133.005,-1229.43 L 133.219,-1228.97
 L 133.374,-1228.49 L 133.468,-1228 L 133.5,-1227.5 L 133.5,-1148.5 L 133.468,-1148 L 133.374,-1147.51
 L 133.219,-1147.03 L 133.005,-1146.57 L 132.736,-1146.15 L 132.416,-1145.76 L 132.05,-1145.42 L 131.643,-1145.12
 L 131.203,-1144.88 L 130.736,-1144.7 L 130.25,-1144.57 L 129.751,-1144.51 z
M 130.937,-1044.09 L 131.545,-1044.24 L 132.129,-1044.48 L 132.679,-1044.78 L 133.187,-1045.15 L 133.645,-1045.58
 L 134.045,-1046.06 L 134.382,-1046.59 L 134.649,-1047.16 L 134.843,-1047.76 L 134.961,-1048.37 L 135,-1049
 L 135,-1129 L 134.961,-1129.63 L 134.843,-1130.24 L 134.649,-1130.84 L 134.382,-1131.41 L 134.045,-1131.94
 L 133.645,-1132.42 L 133.187,-1132.85 L 132.679,-1133.22 L 132.129,-1133.52 L 131.545,-1133.76 L 130.937,-1133.91
 L 130.314,-1133.99 L -130.314,-1133.99 L -130.937,-1133.91 L -131.545,-1133.76 L -132.129,-1133.52 L -132.679,-1133.22
 L -133.187,-1132.85 L -133.5,-1132.56 L -133.5,-1133.98 L -136.5,-1133.98 L -136.5,-1044.02 L -133.5,-1044.02
 L -133.5,-1045.44 L -133.187,-1045.15 L -132.679,-1044.78 L -132.129,-1044.48 L -131.545,-1044.24 L -130.937,-1044.09
 L -130.314,-1044.01 L 130.314,-1044.01 z
M -129.695,-1046.39 L -130.083,-1046.44 L -130.462,-1046.54 L -130.825,-1046.68 L -131.168,-1046.87 L -131.484,-1047.1
 L -131.769,-1047.37 L -132.018,-1047.67 L -132.228,-1048 L -132.394,-1048.35 L -132.515,-1048.73 L -132.588,-1049.11
 L -132.613,-1049.5 L -132.613,-1128.5 L -132.588,-1128.89 L -132.515,-1129.27 L -132.394,-1129.65 L -132.228,-1130
 L -132.018,-1130.33 L -131.769,-1130.63 L -131.484,-1130.9 L -131.168,-1131.13 L -130.825,-1131.32 L -130.462,-1131.46
 L -130.083,-1131.56 L -129.695,-1131.61 L 129.695,-1131.61 L 130.083,-1131.56 L 130.462,-1131.46 L 130.825,-1131.32
 L 131.168,-1131.13 L 131.484,-1130.9 L 131.769,-1130.63 L 132.018,-1130.33 L 132.228,-1130 L 132.394,-1129.65
 L 132.515,-1129.27 L 132.588,-1128.89 L 132.613,-1128.5 L 132.613,-1049.5 L 132.588,-1049.11 L 132.515,-1048.73
 L 132.394,-1048.35 L 132.228,-1048 L 132.018,-1047.67 L 131.769,-1047.37 L 131.484,-1047.1 L 131.168,-1046.87
 L 130.825,-1046.68 L 130.462,-1046.54 L 130.083,-1046.44 L 129.695,-1046.39 z
M 130.937,-945.089 L 131.545,-945.245 L 132.129,-945.476 L 132.679,-945.778 L 133.187,-946.147 L 133.645,-946.577
 L 134.045,-947.061 L 134.382,-947.591 L 134.649,-948.159 L 134.843,-948.757 L 134.961,-949.373 L 135,-950
 L 135,-1030 L 134.961,-1030.63 L 134.843,-1031.24 L 134.649,-1031.84 L 134.382,-1032.41 L 134.045,-1032.94
 L 133.645,-1033.42 L 133.187,-1033.85 L 132.679,-1034.22 L 132.129,-1034.52 L 131.545,-1034.76 L 130.937,-1034.91
 L 130.314,-1034.99 L -130.314,-1034.99 L -130.937,-1034.91 L -131.545,-1034.76 L -132.129,-1034.52 L -132.679,-1034.22
 L -133.187,-1033.85 L -133.5,-1033.56 L -133.5,-1033.65 L -136.5,-1033.65 L -136.5,-946.347 L -133.5,-946.347
 L -133.5,-946.441 L -133.187,-946.147 L -132.679,-945.778 L -132.129,-945.476 L -131.545,-945.245 L -130.937,-945.089
 L -130.314,-945.01 L 130.314,-945.01 z
M -127.634,-1025.37 L -127.9,-1025.4 L -128.16,-1025.47 L -128.409,-1025.57 L -128.644,-1025.7 L -128.861,-1025.85
 L -129.057,-1026.04 L -129.227,-1026.24 L -129.371,-1026.47 L -129.485,-1026.71 L -129.568,-1026.97 L -129.618,-1027.23
 L -129.635,-1027.5 L -129.618,-1027.77 L -129.568,-1028.03 L -129.485,-1028.29 L -129.371,-1028.53 L -129.227,-1028.76
 L -129.057,-1028.96 L -128.861,-1029.15 L -128.644,-1029.3 L -128.409,-1029.43 L -128.16,-1029.53 L -127.9,-1029.6
 L -127.634,-1029.63 L -127.366,-1029.63 L -127.1,-1029.6 L -126.84,-1029.53 L -126.591,-1029.43 L -126.356,-1029.3
 L -126.139,-1029.15 L -125.943,-1028.96 L -125.773,-1028.76 L -125.629,-1028.53 L -125.515,-1028.29 L -125.432,-1028.03
 L -125.382,-1027.77 L -125.365,-1027.5 L -125.382,-1027.23 L -125.432,-1026.97 L -125.515,-1026.71 L -125.629,-1026.47
 L -125.773,-1026.24 L -125.943,-1026.04 L -126.139,-1025.85 L -126.356,-1025.7 L -126.591,-1025.57 L -126.84,-1025.47
 L -127.1,-1025.4 L -127.366,-1025.37 z
M 127.366,-1025.37 L 127.1,-1025.4 L 126.84,-1025.47 L 126.591,-1025.57 L 126.356,-1025.7 L 126.139,-1025.85
 L 125.943,-1026.04 L 125.773,-1026.24 L 125.629,-1026.47 L 125.515,-1026.71 L 125.432,-1026.97 L 125.382,-1027.23
 L 125.365,-1027.5 L 125.382,-1027.77 L 125.432,-1028.03 L 125.515,-1028.29 L 125.629,-1028.53 L 125.773,-1028.76
 L 125.943,-1028.96 L 126.139,-1029.15 L 126.356,-1029.3 L 126.591,-1029.43 L 126.84,-1029.53 L 127.1,-1029.6
 L 127.366,-1029.63 L 127.634,-1029.63 L 127.9,-1029.6 L 128.16,-1029.53 L 128.409,-1029.43 L 128.644,-1029.3
 L 128.861,-1029.15 L 129.057,-1028.96 L 129.227,-1028.76 L 129.371,-1028.53 L 129.485,-1028.29 L 129.568,-1028.03
 L 129.618,-1027.77 L 129.635,-1027.5 L 129.618,-1027.23 L 129.568,-1026.97 L 129.485,-1026.71 L 129.371,-1026.47
 L 129.227,-1026.24 L 129.057,-1026.04 L 128.861,-1025.85 L 128.644,-1025.7 L 128.409,-1025.57 L 128.16,-1025.47
 L 127.9,-1025.4 L 127.634,-1025.37 z
M -127.634,-950.369 L -127.9,-950.403 L -128.16,-950.469 L -128.409,-950.568 L -128.644,-950.697 L -128.861,-950.855
 L -129.057,-951.038 L -129.227,-951.245 L -129.371,-951.471 L -129.485,-951.714 L -129.568,-951.969 L -129.618,-952.232
 L -129.635,-952.5 L -129.618,-952.768 L -129.568,-953.031 L -129.485,-953.286 L -129.371,-953.529 L -129.227,-953.755
 L -129.057,-953.962 L -128.861,-954.145 L -128.644,-954.303 L -128.409,-954.432 L -128.16,-954.531 L -127.9,-954.597
 L -127.634,-954.631 L -127.366,-954.631 L -127.1,-954.597 L -126.84,-954.531 L -126.591,-954.432 L -126.356,-954.303
 L -126.139,-954.145 L -125.943,-953.962 L -125.773,-953.755 L -125.629,-953.529 L -125.515,-953.286 L -125.432,-953.031
 L -125.382,-952.768 L -125.365,-952.5 L -125.382,-952.232 L -125.432,-951.969 L -125.515,-951.714 L -125.629,-951.471
 L -125.773,-951.245 L -125.943,-951.038 L -126.139,-950.855 L -126.356,-950.697 L -126.591,-950.568 L -126.84,-950.469
 L -127.1,-950.403 L -127.366,-950.369 z
M 127.366,-950.369 L 127.1,-950.403 L 126.84,-950.469 L 126.591,-950.568 L 126.356,-950.697 L 126.139,-950.855
 L 125.943,-951.038 L 125.773,-951.245 L 125.629,-951.471 L 125.515,-951.714 L 125.432,-951.969 L 125.382,-952.232
 L 125.365,-952.5 L 125.382,-952.768 L 125.432,-953.031 L 125.515,-953.286 L 125.629,-953.529 L 125.773,-953.755
 L 125.943,-953.962 L 126.139,-954.145 L 126.356,-954.303 L 126.591,-954.432 L 126.84,-954.531 L 127.1,-954.597
 L 127.366,-954.631 L 127.634,-954.631 L 127.9,-954.597 L 128.16,-954.531 L 128.409,-954.432 L 128.644,-954.303
 L 128.861,-954.145 L 129.057,-953.962 L 129.227,-953.755 L 129.371,-953.529 L 129.485,-953.286 L 129.568,-953.031
 L 129.618,-952.768 L 129.635,-952.5 L 129.618,-952.232 L 129.568,-951.969 L 129.485,-951.714 L 129.371,-951.471
 L 129.227,-951.245 L 129.057,-951.038 L 128.861,-950.855 L 128.644,-950.697 L 128.409,-950.568 L 128.16,-950.469
 L 127.9,-950.403 L 127.634,-950.369 z
" stroke="black" fill="lightgray" stroke-width="0.5"/>
</svg>
