<?xml version="1.0" standalone="no"?>
<!DOCTYPE svg PUBLIC "-//W3C//DTD SVG 1.1//EN" "http://www.w3.org/Graphics/SVG/1.1/DTD/svg11.dtd">
<svg width="302mm" height="340mm" viewBox="-152 -605 302 340" xmlns="http://www.w3.org/2000/svg" version="1.1">
<title>OpenSCAD Model</title>
<path d="
M 145.937,-439.589 L 146.545,-439.745 L 147.129,-439.976 L 147.679,-440.278 L 148.187,-440.647 L 148.645,-441.077
 L 149.045,-441.561 L 149.382,-442.091 L 149.649,-442.659 L 149.843,-443.257 L 149.961,-443.873 L 150,-444.5
 L 150,-599.5 L 149.961,-600.127 L 149.843,-600.743 L 149.649,-601.341 L 149.382,-601.909 L 149.045,-602.439
 L 148.645,-602.923 L 148.187,-603.353 L 147.679,-603.722 L 147.129,-604.024 L 146.545,-604.255 L 145.937,-604.411
 L 145.314,-604.49 L -145.314,-604.49 L -145.937,-604.411 L -146.545,-604.255 L -147.129,-604.024 L -147.679,-603.722
 L -148.187,-603.353 L -148.5,-603.059 L -148.5,-604.479 L -151.5,-604.479 L -151.5,-439.521 L -148.5,-439.521
 L -148.5,-440.941 L -148.187,-440.647 L -147.679,-440.278 L -147.129,-439.976 L -146.545,-439.745 L -145.937,-439.589
 L -145.314,-439.51 L 145.314,-439.51 z
M -144.695,-441.893 L -145.083,-441.942 L -145.462,-442.039 L -145.825,-442.183 L -146.168,-442.372 L -146.484,-442.601
 L -146.769,-442.869 L -147.018,-443.17 L -147.228,-443.5 L -147.394,-443.854 L -147.515,-444.226 L -147.588,-444.61
 L -147.613,-445 L -147.613,-599 L -147.588,-599.39 L -147.515,-599.774 L -147.394,-600.146 L -147.228,-600.5
 L -147.018,-600.83 L -146.769,-601.131 L -146.484,-601.399 L -146.168,-601.628 L -145.825,-601.817 L -145.462,-601.961
 L -145.083,-602.058 L -144.695,-602.107 L 144.695,-602.107 L 145.083,-602.058 L 145.462,-601.961 L 145.825,-601.817
 L 146.168,-601.628 L 146.484,-601.399 L 146.769,-601.131 L 147.018,-600.83 L 147.228,-600.5 L 147.394,-600.146
 L 147.515,-599.774 L 147.588,-599.39 L 147.613,-599 L 147.613,-445 L 147.588,-444.61 L 147.515,-444.226
 L 147.394,-443.854 L 147.228,-443.5 L 147.018,-443.17 L 146.769,-442.869 L 146.484,-442.601 L 146.168,-442.372
 L 145.825,-442.183 L 145.462,-442.039 L 145.083,-441.942 L 144.695,-441.893 z
M 145.937,-265.589 L 146.545,-265.745 L 147.129,-265.976 L 147.679,-266.278 L 148.187,-266.647 L 148.645,-267.077
 L 149.045,-267.561 L 149.382,-268.091 L 149.649,-268.659 L 149.843,-269.257 L 149.961,-269.873 L 150,-270.5
 L 150,-425.5 L 149.961,-426.127 L 149.843,-426.743 L 149.649,-427.341 L 149.382,-427.909 L 149.045,-428.439
 L 148.645,-428.923 L 148.187,-429.353 L 147.679,-429.722 L 147.129,-430.024 L 146.545,-430.255 L 145.937,-430.411
 L 145.314,-430.49 L -145.314,-430.49 L -145.937,-430.411 L -146.545,-430.255 L -147.129,-430.024 L -147.679,-429.722
 L -148.187,-429.353 L -148.5,-429.059 L -148.5,-429.153 L -151.5,-429.153 L -151.5,-266.847 L -148.5,-266.847
 L -148.5,-266.941 L -148.187,-266.647 L -147.679,-266.278 L -147.129,-265.976 L -146.545,-265.745 L -145.937,-265.589
 L -145.314,-265.51 L 145.314,-265.51 z
M 142.366,-420.869 L 142.1,-420.903 L 141.84,-420.969 L 141.591,-421.068 L 141.356,-421.197 L 141.139,-421.355
 L 140.943,-421.538 L 140.773,-421.745 L 140.629,-421.971 L 140.515,-422.214 L 140.432,-422.469 L 140.382,-422.732
 L 140.365,-423 L 140.382,-423.268 L 140.432,-423.531 L 140.515,-423.786 L 140.629,-424.029 L 140.773,-424.255
 L 140.943,-424.462 L 141.139,-424.645 L 141.356,-424.803 L 141.591,-424.932 L 141.84,-425.031 L 142.1,-425.097
 L 142.366,-425.131 L 142.634,-425.131 L 142.9,-425.097 L 143.16,-425.031 L 143.409,-424.932 L 143.644,-424.803
 L 143.861,-424.645 L 144.057,-424.462 L 144.227,-424.255 L 144.371,-424.029 L 144.485,-423.786 L 144.568,-423.531
 L 144.618,-423.268 L 144.635,-423 L 144.618,-422.732 L 144.568,-422.469 L 144.485,-422.214 L 144.371,-421.971
 L 144.227,-421.745 L 144.057,-421.538 L 143.861,-421.355 L 143.644,-421.197 L 143.409,-421.068 L 143.16,-420.969
 L 142.9,-420.903 L 142.634,-420.869 z
M -142.634,-420.869 L -142.9,-420.903 L -143.16,-420.969 L -143.409,-421.068 L -143.644,-421.197 L -143.861,-421.355
 L -144.057,-421.538 L -144.227,-421.745 L -144.371,-421.971 L -144.485,-422.214 L -144.568,-422.469 L -144.618,-422.732
 L -144.635,-423 L -144.618,-423.268 L -144.568,-423.531 L -144.485,-423.786 L -144.371,-424.029 L -144.227,-424.255
 L -144.057,-424.462 L -143.861,-424.645 L -143.644,-424.803 L -143.409,-424.932 L -143.16,-425.031 L -142.9,-425.097
 L -142.634,-425.131 L -142.366,-425.131 L -142.1,-425.097 L -141.84,-425.031 L -141.591,-424.932 L -141.356,-424.803
 L -141.139,-424.645 L -140.943,-424.462 L -140.773,-424.255 L -140.629,-424.029 L -140.515,-423.786 L -140.432,-423.531
 L -140.382,-423.268 L -140.365,-423 L -140.382,-422.732 L -140.432,-422.469 L -140.515,-422.214 L -140.629,-421.971
 L -140.773,-421.745 L -140.943,-421.538 L -141.139,-421.355 L -141.356,-421.197 L -141.591,-421.068 L -141.84,-420.969
 L -142.1,-420.903 L -142.366,-420.869 z
M 142.366,-270.869 L 142.1,-270.903 L 141.84,-270.969 L 141.591,-271.068 L 141.356,-271.197 L 141.139,-271.355
 L 140.943,-271.538 L 140.773,-271.745 L 140.629,-271.971 L 140.515,-272.214 L 140.432,-272.469 L 140.382,-272.732
 L 140.365,-273 L 140.382,-273.268 L 140.432,-273.531 L 140.515,-273.786 L 140.629,-274.029 L 140.773,-274.255
 L 140.943,-274.462 L 141.139,-274.645 L 141.356,-274.803 L 141.591,-274.932 L 141.84,-275.031 L 142.1,-275.097
 L 142.366,-275.131 L 142.634,-275.131 L 142.9,-275.097 L 143.16,-275.031 L 143.409,-274.932 L 143.644,-274.803
 L 143.861,-274.645 L 144.057,-274.462 L 144.227,-274.255 L 144.371,-274.029 L 144.485,-273.786 L 144.568,-273.531
 L 144.618,-273.268 L 144.635,-273 L 144.618,-272.732 L 144.568,-272.469 L 144.485,-272.214 L 144.371,-271.971
 L 144.227,-271.745 L 144.057,-271.538 L 143.861,-271.355 L 143.644,-271.197 L 143.409,-271.068 L 143.16,-270.969
 L 142.9,-270.903 L 142.634,-270.869 z
M -142.634,-270.869 L -142.9,-270.903 L -143.16,-270.969 L -143.409,-271.068 L -143.644,-271.197 L -143.861,-271.355
 L -144.057,-271.538 L -144.227,-271.745 L -144.371,-271.971 L -144.485,-272.214 L -144.568,-272.469 L -144.618,-272.732
 L -144.635,-273 L -144.618,-273.268 L -144.568,-273.531 L -144.485,-273.786 L -144.371,-274.029 L -144.227,-274.255
 L -144.057,-274.462 L -143.861,-274.645 L -143.644,-274.803 L -143.409,-274.932 L -143.16,-275.031 L -142.9,-275.097
 L -142.634,-275.131 L -142.366,-275.131 L -142.1,-275.097 L -141.84,-275.031 L -141.591,-274.932 L -141.356,-274.803
 L -141.139,-274.645 L -140.943,-274.462 L -140.773,-274.255 L -140.629,-274.029 L -140.515,-273.786 L -140.432,-273.531
 L -140.382,-273.268 L -140.365,-273 L -140.382,-272.732 L -140.432,-272.469 L -140.515,-272.214 L -140.629,-271.971
 L -140.773,-271.745 L -140.943,-271.538 L -141.139,-271.355 L -141.356,-271.197 L -141.591,-271.068 L -141.84,-270.969
 L -142.1,-270.903 L -142.366,-270.869 z
" stroke="black" fill="lightgray" stroke-width="0.5"/>
</svg>
