<?xml version="1.0" standalone="no"?>
<!DOCTYPE svg PUBLIC "-//W3C//DTD SVG 1.1//EN" "http://www.w3.org/Graphics/SVG/1.1/DTD/svg11.dtd">
<svg width="272mm" height="681mm" viewBox="-137 -1341 272 681" xmlns="http://www.w3.org/2000/svg" version="1.1">
<title>OpenSCAD Model</title>
<path d="
M 130.937,-1281.09 L 131.545,-1281.24 L 132.129,-1281.48 L 132.679,-1281.78 L 133.187,-1282.15 L 133.645,-1282.58
 L 134.045,-1283.06 L 134.382,-1283.59 L 134.649,-1284.16 L 134.843,-1284.76 L 134.961,-1285.37 L 135,-1286
 L 135,-1336 L 134.961,-1336.63 L 134.843,-1337.24 L 134.649,-1337.84 L 134.382,-1338.41 L 134.045,-1338.94
 L 133.645,-1339.42 L 133.187,-1339.85 L 132.679,-1340.22 L 132.129,-1340.52 L 131.545,-1340.76 L 130.937,-1340.91
 L 130.314,-1340.99 L -130.314,-1340.99 L -130.937,-1340.91 L -131.545,-1340.76 L -132.129,-1340.52 L -132.679,-1340.22
 L -133.187,-1339.85 L -133.5,-1339.56 L -136.5,-1339.56 L -136.5,-1282.44 L -133.5,-1282.44 L -133.187,-1282.15
 L -132.679,-1281.78 L -132.129,-1281.48 L -131.545,-1281.24 L -130.937,-1281.09 L -130.314,-1281.01 L 130.314,-1281.01
 z
M -129.751,-1282.51 L -130.25,-1282.57 L -130.736,-1282.7 L -131.203,-1282.88 L -131.643,-1283.12 L -132.05,-1283.42
 L -132.416,-1283.76 L -132.736,-1284.15 L -133.005,-1284.57 L -133.219,-1285.03 L -133.374,-1285.51 L -133.468,-1286
 L -133.5,-1286.5 L -133.5,-1335.5 L -133.468,-1336 L -133.374,-1336.49 L -133.219,-1336.97 L -133.005,-1337.43
 L -132.736,-1337.85 L -132.416,-1338.24 L -132.05,-1338.58 L -131.643,-1338.88 L -131.203,-1339.12 L -130.736,-1339.3
 L -130.25,-1339.43 L -129.751,-1339.49 L 129.751,-1339.49 L 130.25,-1339.43 L 130.736,-1339.3 L 131.203,-1339.12
 L 131.643,-1338.88 L 132.05,-1338.58 L 132.416,-1338.24 L 132.736,-1337.85 L 133.005,-1337.43 L 133.219,-1336.97
 L 133.374,-1336.49 L 133.468,-1336 L 133.5,-1335.5 L 133.5,-1286.5 L 133.468,-1286 L 133.374,-1285.51
 L 133.219,-1285.03 L 133.005,-1284.57 L 132.736,-1284.15 L 132.416,-1283.76 L 132.05,-1283.42 L 131.643,-1283.12
 L 131.203,-1282.88 L 130.736,-1282.7 L 130.25,-1282.57 L 129.751,-1282.51 z
M 130.937,-1212.09 L 131.545,-1212.24 L 132.129,-1212.48 L 132.679,-1212.78 L 133.187,-1213.15 L 133.645,-1213.58
 L 134.045,-1214.06 L 134.382,-1214.59 L 134.649,-1215.16 L 134.843,-1215.76 L 134.961,-1216.37 L 135,-1217
 L 135,-1267 L 134.961,-1267.63 L 134.843,-1268.24 L 134.649,-1268.84 L 134.382,-1269.41 L 134.045,-1269.94
 L 133.645,-1270.42 L 133.187,-1270.85 L 132.679,-1271.22 L 132.129,-1271.52 L 131.545,-1271.76 L 130.937,-1271.91
 L 130.314,-1271.99 L -130.314,-1271.99 L -130.937,-1271.91 L -131.545,-1271.76 L -132.129,-1271.52 L -132.679,-1271.22
 L -133.187,-1270.85 L -133.5,-1270.56 L -133.5,-1271.97 L -136.5,-1271.97 L -136.5,-1212.03 L -133.5,-1212.03
 L -133.5,-1213.44 L -133.187,-1213.15 L -132.679,-1212.78 L -132.129,-1212.48 L -131.545,-1212.24 L -130.937,-1212.09
 L -130.314,-1212.01 L 130.314,-1212.01 z
M -129.751,-1213.51 L -130.25,-1213.57 L -130.736,-1213.7 L -131.203,-1213.88 L -131.643,-1214.12 L -132.05,-1214.42
 L -132.416,-1214.76 L -132.736,-1215.15 L -133.005,-1215.57 L -133.219,-1216.03 L -133.374,-1216.51 L -133.468,-1217
 L -133.5,-1217.5 L -133.5,-1266.5 L -133.468,-1267 L -133.374,-1267.49 L -133.219,-1267.97 L -133.005,-1268.43
 L -132.736,-1268.85 L -132.416,-1269.24 L -132.05,-1269.58 L -131.643,-1269.88 L -131.203,-1270.12 L -130.736,-1270.3
 L -130.25,-1270.43 L -129.751,-1270.49 L 129.751,-1270.49 L 130.25,-1270.43 L 130.736,-1270.3 L 131.203,-1270.12
 L 131.643,-1269.88 L 132.05,-1269.58 L 132.416,-1269.24 L 132.736,-1268.85 L 133.005,-1268.43 L 133.219,-1267.97
 L 133.374,-1267.49 L 133.468,-1267 L 133.5,-1266.5 L 133.5,-1217.5 L 133.468,-1217 L 133.374,-1216.51
 L 133.219,-1216.03 L 133.005,-1215.57 L 132.736,-1215.15 L 132.416,-1214.76 L 132.05,-1214.42 L 131.643,-1214.12
 L 131.203,-1213.88 L 130.736,-1213.7 L 130.25,-1213.57 L 129.751,-1213.51 z
M -133.5,-1144.44 L -133.187,-1144.15 L -132.679,-1143.78 L -132.129,-1143.48 L -131.545,-1143.24 L -130.937,-1143.09
 L -130.314,-1143.01 L 130.314,-1143.01 L 130.937,-1143.09 L 131.545,-1143.24 L 132.129,-1143.48 L 132.679,-1143.78
 L 133.187,-1144.15 L 133.645,-1144.58 L 134.045,-1145.06 L 134.382,-1145.59 L 134.649,-1146.16 L 134.843,-1146.76
 L 134.961,-1147.37 L 135,-1148 L 135,-1198 L 134.961,-1198.63 L 134.843,-1199.24 L 134.649,-1199.84
 L 134.382,-1200.41 L 134.045,-1200.94 L 133.645,-1201.42 L 133.187,-1201.85 L 132.679,-1202.22 L 132.129,-1202.52
 L 131.545,-1202.76 L 130.937,-1202.91 L 130.314,-1202.99 L -130.314,-1202.99 L -130.937,-1202.91 L -131.545,-1202.76
 L -132.129,-1202.52 L -132.679,-1202.22 L -133.187,-1201.85 L -133.5,-1201.56 L -133.5,-1202.99 L -136.5,-1202.99
 L -136.5,-1198.49 L -133.374,-1198.49 L -133.374,-1198.49 L -133.219,-1198.97 L -133.005,-1199.43 L -132.736,-1199.85
 L -132.416,-1200.24 L -132.05,-1200.58 L -131.643,-1200.88 L -131.203,-1201.12 L -130.736,-1201.3 L -130.25,-1201.43
 L -129.751,-1201.49 L 129.751,-1201.49 L 130.25,-1201.43 L 130.736,-1201.3 L 131.203,-1201.12 L 131.643,-1200.88
 L 132.05,-1200.58 L 132.416,-1200.24 L 132.736,-1199.85 L 133.005,-1199.43 L 133.219,-1198.97 L 133.374,-1198.49
 L 133.468,-1198 L 133.5,-1197.5 L 133.5,-1148.5 L 133.468,-1148 L 133.374,-1147.51 L 133.219,-1147.03
 L 133.005,-1146.57 L 132.736,-1146.15 L 132.416,-1145.76 L 132.05,-1145.42 L 131.643,-1145.12 L 131.203,-1144.88
 L 130.736,-1144.7 L 130.25,-1144.57 L 129.751,-1144.51 L -129.751,-1144.51 L -130.25,-1144.57 L -130.736,-1144.7
 L -131.203,-1144.88 L -131.643,-1145.12 L -132.05,-1145.42 L -132.416,-1145.76 L -132.736,-1146.15 L -133.005,-1146.57
 L -133.219,-1147.03 L -133.374,-1147.51 L -133.374,-1147.51 L -136.5,-1147.51 L -136.5,-1143.01 L -133.5,-1143.01
 z
M -133.5,-1192.51 L -136.5,-1192.51 L -136.5,-1183.49 L -133.5,-1183.49 z
M -133.5,-1177.51 L -136.5,-1177.51 L -136.5,-1168.49 L -133.5,-1168.49 z
M -133.5,-1162.51 L -136.5,-1162.51 L -136.5,-1153.49 L -133.5,-1153.49 z
M -133.5,-1075.44 L -133.187,-1075.15 L -132.679,-1074.78 L -132.129,-1074.48 L -131.545,-1074.24 L -130.937,-1074.09
 L -130.314,-1074.01 L 130.314,-1074.01 L 130.937,-1074.09 L 131.545,-1074.24 L 132.129,-1074.48 L 132.679,-1074.78
 L 133.187,-1075.15 L 133.645,-1075.58 L 134.045,-1076.06 L 134.382,-1076.59 L 134.649,-1077.16 L 134.843,-1077.76
 L 134.961,-1078.37 L 135,-1079 L 135,-1129 L 134.961,-1129.63 L 134.843,-1130.24 L 134.649,-1130.84
 L 134.382,-1131.41 L 134.045,-1131.94 L 133.645,-1132.42 L 133.187,-1132.85 L 132.679,-1133.22 L 132.129,-1133.52
 L 131.545,-1133.76 L 130.937,-1133.91 L 130.314,-1133.99 L -130.314,-1133.99 L -130.937,-1133.91 L -131.545,-1133.76
 L -132.129,-1133.52 L -132.679,-1133.22 L -133.187,-1132.85 L -133.5,-1132.56 L -133.5,-1133.99 L -136.5,-1133.99
 L -136.5,-1074.01 L -133.5,-1074.01 z
M -129.751,-1075.51 L -130.25,-1075.57 L -130.736,-1075.7 L -131.203,-1075.88 L -131.643,-1076.12 L -132.05,-1076.42
 L -132.416,-1076.76 L -132.736,-1077.15 L -133.005,-1077.57 L -133.219,-1078.03 L -133.374,-1078.51 L -133.468,-1079
 L -133.5,-1079.5 L -133.5,-1128.5 L -133.468,-1129 L -133.374,-1129.49 L -133.219,-1129.97 L -133.005,-1130.43
 L -132.736,-1130.85 L -132.416,-1131.24 L -132.05,-1131.58 L -131.643,-1131.88 L -131.203,-1132.12 L -130.736,-1132.3
 L -130.25,-1132.43 L -129.751,-1132.49 L 129.751,-1132.49 L 130.25,-1132.43 L 130.736,-1132.3 L 131.203,-1132.12
 L 131.643,-1131.88 L 132.05,-1131.58 L 132.416,-1131.24 L 132.736,-1130.85 L 133.005,-1130.43 L 133.219,-1129.97
 L 133.374,-1129.49 L 133.468,-1129 L 133.5,-1128.5 L 133.5,-1079.5 L 133.468,-1079 L 133.374,-1078.51
 L 133.219,-1078.03 L 133.005,-1077.57 L 132.736,-1077.15 L 132.416,-1076.76 L 132.05,-1076.42 L 131.643,-1076.12
 L 131.203,-1075.88 L 130.736,-1075.7 L 130.25,-1075.57 L 129.751,-1075.51 z
M -133.5,-1006.44 L -133.187,-1006.15 L -132.679,-1005.78 L -132.129,-1005.48 L -131.545,-1005.24 L -130.937,-1005.09
 L -130.314,-1005.01 L 130.314,-1005.01 L 130.937,-1005.09 L 131.545,-1005.24 L 132.129,-1005.48 L 132.679,-1005.78
 L 133.187,-1006.15 L 133.645,-1006.58 L 134.045,-1007.06 L 134.382,-1007.59 L 134.649,-1008.16 L 134.843,-1008.76
 L 134.961,-1009.37 L 135,-1010 L 135,-1060 L 134.961,-1060.63 L 134.843,-1061.24 L 134.649,-1061.84
 L 134.382,-1062.41 L 134.045,-1062.94 L 133.645,-1063.42 L 133.187,-1063.85 L 132.679,-1064.22 L 132.129,-1064.52
 L 131.545,-1064.76 L 130.937,-1064.91 L 130.314,-1064.99 L -130.314,-1064.99 L -130.937,-1064.91 L -131.545,-1064.76
 L -132.129,-1064.52 L -132.679,-1064.22 L -133.187,-1063.85 L -133.5,-1063.56 L -133.5,-1064.99 L -136.5,-1064.99
 L -136.5,-1005.01 L -133.5,-1005.01 z
M -129.751,-1006.51 L -130.25,-1006.57 L -130.736,-1006.7 L -131.203,-1006.88 L -131.643,-1007.12 L -132.05,-1007.42
 L -132.416,-1007.76 L -132.736,-1008.15 L -133.005,-1008.57 L -133.219,-1009.03 L -133.374,-1009.51 L -133.468,-1010
 L -133.5,-1010.5 L -133.5,-1059.5 L -133.468,-1060 L -133.374,-1060.49 L -133.219,-1060.97 L -133.005,-1061.43
 L -132.736,-1061.85 L -132.416,-1062.24 L -132.05,-1062.58 L -131.643,-1062.88 L -131.203,-1063.12 L -130.736,-1063.3
 L -130.25,-1063.43 L -129.751,-1063.49 L 129.751,-1063.49 L 130.25,-1063.43 L 130.736,-1063.3 L 131.203,-1063.12
 L 131.643,-1062.88 L 132.05,-1062.58 L 132.416,-1062.24 L 132.736,-1061.85 L 133.005,-1061.43 L 133.219,-1060.97
 L 133.374,-1060.49 L 133.468,-1060 L 133.5,-1059.5 L 133.5,-1010.5 L 133.468,-1010 L 133.374,-1009.51
 L 133.219,-1009.03 L 133.005,-1008.57 L 132.736,-1008.15 L 132.416,-1007.76 L 132.05,-1007.42 L 131.643,-1007.12
 L 131.203,-1006.88 L 130.736,-1006.7 L 130.25,-1006.57 L 129.751,-1006.51 z
M -133.5,-937.441 L -133.187,-937.147 L -132.679,-936.778 L -132.129,-936.476 L -131.545,-936.245 L -130.937,-936.089
 L -130.314,-936.01 L 130.314,-936.01 L 130.937,-936.089 L 131.545,-936.245 L 132.129,-936.476 L 132.679,-936.778
 L 133.187,-937.147 L 133.645,-937.577 L 134.045,-938.061 L 134.382,-938.591 L 134.649,-939.159 L 134.843,-939.757
 L 134.961,-940.373 L 135,-941 L 135,-991 L 134.961,-991.627 L 134.843,-992.243 L 134.649,-992.841
 L 134.382,-993.409 L 134.045,-993.939 L 133.645,-994.423 L 133.187,-994.853 L 132.679,-995.222 L 132.129,-995.524
 L 131.545,-995.755 L 130.937,-995.911 L 130.314,-995.99 L -130.314,-995.99 L -130.937,-995.911 L -131.545,-995.755
 L -132.129,-995.524 L -132.679,-995.222 L -133.187,-994.853 L -133.5,-994.559 L -133.5,-995.99 L -136.5,-995.99
 L -136.5,-936.01 L -133.5,-936.01 z
M -129.751,-937.508 L -130.25,-937.571 L -130.736,-937.696 L -131.203,-937.881 L -131.643,-938.123 L -132.05,-938.418
 L -132.416,-938.762 L -132.736,-939.149 L -133.005,-939.573 L -133.219,-940.028 L -133.374,-940.505 L -133.468,-940.999
 L -133.5,-941.5 L -133.5,-990.5 L -133.468,-991.001 L -133.374,-991.495 L -133.219,-991.972 L -133.005,-992.427
 L -132.736,-992.851 L -132.416,-993.238 L -132.05,-993.582 L -131.643,-993.877 L -131.203,-994.119 L -130.736,-994.304
 L -130.25,-994.429 L -129.751,-994.492 L 129.751,-994.492 L 130.25,-994.429 L 130.736,-994.304 L 131.203,-994.119
 L 131.643,-993.877 L 132.05,-993.582 L 132.416,-993.238 L 132.736,-992.851 L 133.005,-992.427 L 133.219,-991.972
 L 133.374,-991.495 L 133.468,-991.001 L 133.5,-990.5 L 133.5,-941.5 L 133.468,-940.999 L 133.374,-940.505
 L 133.219,-940.028 L 133.005,-939.573 L 132.736,-939.149 L 132.416,-938.762 L 132.05,-938.418 L 131.643,-938.123
 L 131.203,-937.881 L 130.736,-937.696 L 130.25,-937.571 L 129.751,-937.508 z
M -133.5,-868.441 L -133.187,-868.147 L -132.679,-867.778 L -132.129,-867.476 L -131.545,-867.245 L -130.937,-867.089
 L -130.314,-867.01 L 130.314,-867.01 L 130.937,-867.089 L 131.545,-867.245 L 132.129,-867.476 L 132.679,-867.778
 L 133.187,-868.147 L 133.645,-868.577 L 134.045,-869.061 L 134.382,-869.591 L 134.649,-870.159 L 134.843,-870.757
 L 134.961,-871.373 L 135,-872 L 135,-922 L 134.961,-922.627 L 134.843,-923.243 L 134.649,-923.841
 L 134.382,-924.409 L 134.045,-924.939 L 133.645,-925.423 L 133.187,-925.853 L 132.679,-926.222 L 132.129,-926.524
 L 131.545,-926.755 L 130.937,-926.911 L 130.314,-926.99 L -130.314,-926.99 L -130.937,-926.911 L -131.545,-926.755
 L -132.129,-926.524 L -132.679,-926.222 L -133.187,-925.853 L -133.5,-925.559 L -133.5,-926.99 L -136.5,-926.99
 L -136.5,-867.01 L -133.5,-867.01 z
M -129.751,-868.508 L -130.25,-868.571 L -130.736,-868.696 L -131.203,-868.881 L -131.643,-869.123 L -132.05,-869.418
 L -132.416,-869.762 L -132.736,-870.149 L -133.005,-870.573 L -133.219,-871.028 L -133.374,-871.505 L -133.468,-871.999
 L -133.5,-872.5 L -133.5,-921.5 L -133.468,-922.001 L -133.374,-922.495 L -133.219,-922.972 L -133.005,-923.427
 L -132.736,-923.851 L -132.416,-924.238 L -132.05,-924.582 L -131.643,-924.877 L -131.203,-925.119 L -130.736,-925.304
 L -130.25,-925.429 L -129.751,-925.492 L 129.751,-925.492 L 130.25,-925.429 L 130.736,-925.304 L 131.203,-925.119
 L 131.643,-924.877 L 132.05,-924.582 L 132.416,-924.238 L 132.736,-923.851 L 133.005,-923.427 L 133.219,-922.972
 L 133.374,-922.495 L 133.468,-922.001 L 133.5,-921.5 L 133.5,-872.5 L 133.468,-871.999 L 133.374,-871.505
 L 133.219,-871.028 L 133.005,-870.573 L 132.736,-870.149 L 132.416,-869.762 L 132.05,-869.418 L 131.643,-869.123
 L 131.203,-868.881 L 130.736,-868.696 L 130.25,-868.571 L 129.751,-868.508 z
M -133.5,-799.441 L -133.187,-799.147 L -132.679,-798.778 L -132.129,-798.476 L -131.545,-798.245 L -130.937,-798.089
 L -130.314,-798.01 L 130.314,-798.01 L 130.937,-798.089 L 131.545,-798.245 L 132.129,-798.476 L 132.679,-798.778
 L 133.187,-799.147 L 133.645,-799.577 L 134.045,-800.061 L 134.382,-800.591 L 134.649,-801.159 L 134.843,-801.757
 L 134.961,-802.373 L 135,-803 L 135,-853 L 134.961,-853.627 L 134.843,-854.243 L 134.649,-854.841
 L 134.382,-855.409 L 134.045,-855.939 L 133.645,-856.423 L 133.187,-856.853 L 132.679,-857.222 L 132.129,-857.524
 L 131.545,-857.755 L 130.937,-857.911 L 130.314,-857.99 L -130.314,-857.99 L -130.937,-857.911 L -131.545,-857.755
 L -132.129,-857.524 L -132.679,-857.222 L -133.187,-856.853 L -133.5,-856.559 L -133.5,-857.99 L -136.5,-857.99
 L -136.5,-798.01 L -133.5,-798.01 z
M -129.751,-799.508 L -130.25,-799.571 L -130.736,-799.696 L -131.203,-799.881 L -131.643,-800.123 L -132.05,-800.418
 L -132.416,-800.762 L -132.736,-801.149 L -133.005,-801.573 L -133.219,-802.028 L -133.374,-802.505 L -133.468,-802.999
 L -133.5,-803.5 L -133.5,-852.5 L -133.468,-853.001 L -133.374,-853.495 L -133.219,-853.972 L -133.005,-854.427
 L -132.736,-854.851 L -132.416,-855.238 L -132.05,-855.582 L -131.643,-855.877 L -131.203,-856.119 L -130.736,-856.304
 L -130.25,-856.429 L -129.751,-856.492 L 129.751,-856.492 L 130.25,-856.429 L 130.736,-856.304 L 131.203,-856.119
 L 131.643,-855.877 L 132.05,-855.582 L 132.416,-855.238 L 132.736,-854.851 L 133.005,-854.427 L 133.219,-853.972
 L 133.374,-853.495 L 133.468,-853.001 L 133.5,-852.5 L 133.5,-803.5 L 133.468,-802.999 L 133.374,-802.505
 L 133.219,-802.028 L 133.005,-801.573 L 132.736,-801.149 L 132.416,-800.762 L 132.05,-800.418 L 131.643,-800.123
 L 131.203,-799.881 L 130.736,-799.696 L 130.25,-799.571 L 129.751,-799.508 z
M 130.937,-729.089 L 131.545,-729.245 L 132.129,-729.476 L 132.679,-729.778 L 133.187,-730.147 L 133.645,-730.577
 L 134.045,-731.061 L 134.382,-731.591 L 134.649,-732.159 L 134.843,-732.757 L 134.961,-733.373 L 135,-734
 L 135,-784 L 134.961,-784.627 L 134.843,-785.243 L 134.649,-785.841 L 134.382,-786.409 L 134.045,-786.939
 L 133.645,-787.423 L 133.187,-787.853 L 132.679,-788.222 L 132.129,-788.524 L 131.545,-788.755 L 130.937,-788.911
 L 130.314,-788.99 L -130.314,-788.99 L -130.937,-788.911 L -131.545,-788.755 L -132.129,-788.524 L -132.679,-788.222
 L -133.187,-787.853 L -133.5,-787.559 L -133.5,-788.979 L -136.5,-788.979 L -136.5,-729.021 L -133.5,-729.021
 L -133.5,-730.441 L -133.187,-730.147 L -132.679,-729.778 L -132.129,-729.476 L -131.545,-729.245 L -130.937,-729.089
 L -130.314,-729.01 L 130.314,-729.01 z
M -129.695,-731.393 L -130.083,-731.442 L -130.462,-731.539 L -130.825,-731.683 L -131.168,-731.872 L -131.484,-732.101
 L -131.769,-732.369 L -132.018,-732.67 L -132.228,-733 L -132.394,-733.354 L -132.515,-733.726 L -132.588,-734.11
 L -132.613,-734.5 L -132.613,-783.5 L -132.588,-783.89 L -132.515,-784.274 L -132.394,-784.646 L -132.228,-785
 L -132.018,-785.33 L -131.769,-785.631 L -131.484,-785.899 L -131.168,-786.128 L -130.825,-786.317 L -130.462,-786.461
 L -130.083,-786.558 L -129.695,-786.607 L 129.695,-786.607 L 130.083,-786.558 L 130.462,-786.461 L 130.825,-786.317
 L 131.168,-786.128 L 131.484,-785.899 L 131.769,-785.631 L 132.018,-785.33 L 132.228,-785 L 132.394,-784.646
 L 132.515,-784.274 L 132.588,-783.89 L 132.613,-783.5 L 132.613,-734.5 L 132.588,-734.11 L 132.515,-733.726
 L 132.394,-733.354 L 132.228,-733 L 132.018,-732.67 L 131.769,-732.369 L 131.484,-732.101 L 131.168,-731.872
 L 130.825,-731.683 L 130.462,-731.539 L 130.083,-731.442 L 129.695,-731.393 z
M 130.937,-660.089 L 131.545,-660.245 L 132.129,-660.476 L 132.679,-660.778 L 133.187,-661.147 L 133.645,-661.577
 L 134.045,-662.061 L 134.382,-662.591 L 134.649,-663.159 L 134.843,-663.757 L 134.961,-664.373 L 135,-665
 L 135,-715 L 134.961,-715.627 L 134.843,-716.243 L 134.649,-716.841 L 134.382,-717.409 L 134.045,-717.939
 L 133.645,-718.423 L 133.187,-718.853 L 132.679,-719.222 L 132.129,-719.524 L 131.545,-719.755 L 130.937,-719.911
 L 130.314,-719.99 L -130.314,-719.99 L -130.937,-719.911 L -131.545,-719.755 L -132.129,-719.524 L -132.679,-719.222
 L -133.187,-718.853 L -133.5,-718.559 L -133.5,-718.653 L -136.5,-718.653 L -136.5,-661.347 L -133.5,-661.347
 L -133.5,-661.441 L -133.187,-661.147 L -132.679,-660.778 L -132.129,-660.476 L -131.545,-660.245 L -130.937,-660.089
 L -130.314,-660.01 L 130.314,-660.01 z
M -127.634,-710.369 L -127.9,-710.403 L -128.16,-710.469 L -128.409,-710.568 L -128.644,-710.697 L -128.861,-710.855
 L -129.057,-711.038 L -129.227,-711.245 L -129.371,-711.471 L -129.485,-711.714 L -129.568,-711.969 L -129.618,-712.232
 L -129.635,-712.5 L -129.618,-712.768 L -129.568,-713.031 L -129.485,-713.286 L -129.371,-713.529 L -129.227,-713.755
 L -129.057,-713.962 L -128.861,-714.145 L -128.644,-714.303 L -128.409,-714.432 L -128.16,-714.531 L -127.9,-714.597
 L -127.634,-714.631 L -127.366,-714.631 L -127.1,-714.597 L -126.84,-714.531 L -126.591,-714.432 L -126.356,-714.303
 L -126.139,-714.145 L -125.943,-713.962 L -125.773,-713.755 L -125.629,-713.529 L -125.515,-713.286 L -125.432,-713.031
 L -125.382,-712.768 L -125.365,-712.5 L -125.382,-712.232 L -125.432,-711.969 L -125.515,-711.714 L -125.629,-711.471
 L -125.773,-711.245 L -125.943,-711.038 L -126.139,-710.855 L -126.356,-710.697 L -126.591,-710.568 L -126.84,-710.469
 L -127.1,-710.403 L -127.366,-710.369 z
M 127.366,-710.369 L 127.1,-710.403 L 126.84,-710.469 L 126.591,-710.568 L 126.356,-710.697 L 126.139,-710.855
 L 125.943,-711.038 L 125.773,-711.245 L 125.629,-711.471 L 125.515,-711.714 L 125.432,-711.969 L 125.382,-712.232
 L 125.365,-712.5 L 125.382,-712.768 L 125.432,-713.031 L 125.515,-713.286 L 125.629,-713.529 L 125.773,-713.755
 L 125.943,-713.962 L 126.139,-714.145 L 126.356,-714.303 L 126.591,-714.432 L 126.84,-714.531 L 127.1,-714.597
 L 127.366,-714.631 L 127.634,-714.631 L 127.9,-714.597 L 128.16,-714.531 L 128.409,-714.432 L 128.644,-714.303
 L 128.861,-714.145 L 129.057,-713.962 L 129.227,-713.755 L 129.371,-713.529 L 129.485,-713.286 L 129.568,-713.031
 L 129.618,-712.768 L 129.635,-712.5 L 129.618,-712.232 L 129.568,-711.969 L 129.485,-711.714 L 129.371,-711.471
 L 129.227,-711.245 L 129.057,-711.038 L 128.861,-710.855 L 128.644,-710.697 L 128.409,-710.568 L 128.16,-710.469
 L 127.9,-710.403 L 127.634,-710.369 z
M -127.634,-665.369 L -127.9,-665.403 L -128.16,-665.469 L -128.409,-665.568 L -128.644,-665.697 L -128.861,-665.855
 L -129.057,-666.038 L -129.227,-666.245 L -129.371,-666.471 L -129.485,-666.714 L -129.568,-666.969 L -129.618,-667.232
 L -129.635,-667.5 L -129.618,-667.768 L -129.568,-668.031 L -129.485,-668.286 L -129.371,-668.529 L -129.227,-668.755
 L -129.057,-668.962 L -128.861,-669.145 L -128.644,-669.303 L -128.409,-669.432 L -128.16,-669.531 L -127.9,-669.597
 L -127.634,-669.631 L -127.366,-669.631 L -127.1,-669.597 L -126.84,-669.531 L -126.591,-669.432 L -126.356,-669.303
 L -126.139,-669.145 L -125.943,-668.962 L -125.773,-668.755 L -125.629,-668.529 L -125.515,-668.286 L -125.432,-668.031
 L -125.382,-667.768 L -125.365,-667.5 L -125.382,-667.232 L -125.432,-666.969 L -125.515,-666.714 L -125.629,-666.471
 L -125.773,-666.245 L -125.943,-666.038 L -126.139,-665.855 L -126.356,-665.697 L -126.591,-665.568 L -126.84,-665.469
 L -127.1,-665.403 L -127.366,-665.369 z
M 127.366,-665.369 L 127.1,-665.403 L 126.84,-665.469 L 126.591,-665.568 L 126.356,-665.697 L 126.139,-665.855
 L 125.943,-666.038 L 125.773,-666.245 L 125.629,-666.471 L 125.515,-666.714 L 125.432,-666.969 L 125.382,-667.232
 L 125.365,-667.5 L 125.382,-667.768 L 125.432,-668.031 L 125.515,-668.286 L 125.629,-668.529 L 125.773,-668.755
 L 125.943,-668.962 L 126.139,-669.145 L 126.356,-669.303 L 126.591,-669.432 L 126.84,-669.531 L 127.1,-669.597
 L 127.366,-669.631 L 127.634,-669.631 L 127.9,-669.597 L 128.16,-669.531 L 128.409,-669.432 L 128.644,-669.303
 L 128.861,-669.145 L 129.057,-668.962 L 129.227,-668.755 L 129.371,-668.529 L 129.485,-668.286 L 129.568,-668.031
 L 129.618,-667.768 L 129.635,-667.5 L 129.618,-667.232 L 129.568,-666.969 L 129.485,-666.714 L 129.371,-666.471
 L 129.227,-666.245 L 129.057,-666.038 L 128.861,-665.855 L 128.644,-665.697 L 128.409,-665.568 L 128.16,-665.469
 L 127.9,-665.403 L 127.634,-665.369 z
" stroke="black" fill="lightgray" stroke-width="0.5"/>
</svg>
