<?xml version="1.0" standalone="no"?>
<!DOCTYPE svg PUBLIC "-//W3C//DTD SVG 1.1//EN" "http://www.w3.org/Graphics/SVG/1.1/DTD/svg11.dtd">
<svg width="286mm" height="1386mm" viewBox="-143 -2367 286 1386" xmlns="http://www.w3.org/2000/svg" version="1.1">
<title>OpenSCAD Model</title>
<path d="
M 138.437,-2097.09 L 139.045,-2097.24 L 139.629,-2097.48 L 140.179,-2097.78 L 140.687,-2098.15 L 141.145,-2098.58
 L 141.545,-2099.06 L 141.882,-2099.59 L 142.149,-2100.16 L 142.343,-2100.76 L 142.461,-2101.37 L 142.5,-2102
 L 142.5,-2362 L 142.461,-2362.63 L 142.343,-2363.24 L 142.149,-2363.84 L 141.882,-2364.41 L 141.545,-2364.94
 L 141.145,-2365.42 L 140.687,-2365.85 L 140.179,-2366.22 L 139.629,-2366.52 L 139.045,-2366.76 L 138.437,-2366.91
 L 137.814,-2366.99 L -137.814,-2366.99 L -138.437,-2366.91 L -139.045,-2366.76 L -139.629,-2366.52 L -140.179,-2366.22
 L -140.687,-2365.85 L -141.145,-2365.42 L -141.545,-2364.94 L -141.882,-2364.41 L -142.149,-2363.84 L -142.343,-2363.24
 L -142.461,-2362.63 L -142.5,-2362 L -142.5,-2102 L -142.461,-2101.37 L -142.343,-2100.76 L -142.149,-2100.16
 L -141.882,-2099.59 L -141.545,-2099.06 L -141.145,-2098.58 L -140.687,-2098.15 L -140.179,-2097.78 L -139.629,-2097.48
 L -139.045,-2097.24 L -138.437,-2097.09 L -137.814,-2097.01 L 137.814,-2097.01 z
M -137.548,-2097.51 L -138.14,-2097.58 L -138.718,-2097.73 L -139.272,-2097.95 L -139.795,-2098.24 L -140.278,-2098.59
 L -140.713,-2099 L -141.093,-2099.46 L -141.412,-2099.96 L -141.666,-2100.5 L -141.851,-2101.07 L -141.963,-2101.65
 L -142,-2102.25 L -142,-2361.75 L -141.963,-2362.35 L -141.851,-2362.93 L -141.666,-2363.5 L -141.412,-2364.04
 L -141.093,-2364.54 L -140.713,-2365 L -140.278,-2365.41 L -139.795,-2365.76 L -139.272,-2366.05 L -138.718,-2366.27
 L -138.14,-2366.42 L -137.548,-2366.49 L 137.548,-2366.49 L 138.14,-2366.42 L 138.718,-2366.27 L 139.272,-2366.05
 L 139.795,-2365.76 L 140.278,-2365.41 L 140.713,-2365 L 141.093,-2364.54 L 141.412,-2364.04 L 141.666,-2363.5
 L 141.851,-2362.93 L 141.963,-2362.35 L 142,-2361.75 L 142,-2102.25 L 141.963,-2101.65 L 141.851,-2101.07
 L 141.666,-2100.5 L 141.412,-2099.96 L 141.093,-2099.46 L 140.713,-2099 L 140.278,-2098.59 L 139.795,-2098.24
 L 139.272,-2097.95 L 138.718,-2097.73 L 138.14,-2097.58 L 137.548,-2097.51 z
M 138.437,-1818.09 L 139.045,-1818.24 L 139.629,-1818.48 L 140.179,-1818.78 L 140.687,-1819.15 L 141.145,-1819.58
 L 141.545,-1820.06 L 141.882,-1820.59 L 142.149,-1821.16 L 142.343,-1821.76 L 142.461,-1822.37 L 142.5,-1823
 L 142.5,-2083 L 142.461,-2083.63 L 142.343,-2084.24 L 142.149,-2084.84 L 141.882,-2085.41 L 141.545,-2085.94
 L 141.145,-2086.42 L 140.687,-2086.85 L 140.179,-2087.22 L 139.629,-2087.52 L 139.045,-2087.76 L 138.437,-2087.91
 L 137.814,-2087.99 L -137.814,-2087.99 L -138.437,-2087.91 L -139.045,-2087.76 L -139.629,-2087.52 L -140.179,-2087.22
 L -140.687,-2086.85 L -141.145,-2086.42 L -141.545,-2085.94 L -141.882,-2085.41 L -142.149,-2084.84 L -142.343,-2084.24
 L -142.461,-2083.63 L -142.5,-2083 L -142.5,-1823 L -142.461,-1822.37 L -142.343,-1821.76 L -142.149,-1821.16
 L -141.882,-1820.59 L -141.545,-1820.06 L -141.145,-1819.58 L -140.687,-1819.15 L -140.179,-1818.78 L -139.629,-1818.48
 L -139.045,-1818.24 L -138.437,-1818.09 L -137.814,-1818.01 L 137.814,-1818.01 z
M -137.548,-1818.51 L -138.14,-1818.58 L -138.718,-1818.73 L -139.272,-1818.95 L -139.795,-1819.24 L -140.278,-1819.59
 L -140.713,-1820 L -141.093,-1820.46 L -141.412,-1820.96 L -141.666,-1821.5 L -141.851,-1822.07 L -141.963,-1822.65
 L -142,-1823.25 L -142,-2082.75 L -141.963,-2083.35 L -141.851,-2083.93 L -141.666,-2084.5 L -141.412,-2085.04
 L -141.093,-2085.54 L -140.713,-2086 L -140.278,-2086.41 L -139.795,-2086.76 L -139.272,-2087.05 L -138.718,-2087.27
 L -138.14,-2087.42 L -137.548,-2087.49 L 137.548,-2087.49 L 138.14,-2087.42 L 138.718,-2087.27 L 139.272,-2087.05
 L 139.795,-2086.76 L 140.278,-2086.41 L 140.713,-2086 L 141.093,-2085.54 L 141.412,-2085.04 L 141.666,-2084.5
 L 141.851,-2083.93 L 141.963,-2083.35 L 142,-2082.75 L 142,-1823.25 L 141.963,-1822.65 L 141.851,-1822.07
 L 141.666,-1821.5 L 141.412,-1820.96 L 141.093,-1820.46 L 140.713,-1820 L 140.278,-1819.59 L 139.795,-1819.24
 L 139.272,-1818.95 L 138.718,-1818.73 L 138.14,-1818.58 L 137.548,-1818.51 z
M 138.437,-1539.09 L 139.045,-1539.24 L 139.629,-1539.48 L 140.179,-1539.78 L 140.687,-1540.15 L 141.145,-1540.58
 L 141.545,-1541.06 L 141.882,-1541.59 L 142.149,-1542.16 L 142.343,-1542.76 L 142.461,-1543.37 L 142.5,-1544
 L 142.5,-1804 L 142.461,-1804.63 L 142.343,-1805.24 L 142.149,-1805.84 L 141.882,-1806.41 L 141.545,-1806.94
 L 141.145,-1807.42 L 140.687,-1807.85 L 140.179,-1808.22 L 139.629,-1808.52 L 139.045,-1808.76 L 138.437,-1808.91
 L 137.814,-1808.99 L -137.814,-1808.99 L -138.437,-1808.91 L -139.045,-1808.76 L -139.629,-1808.52 L -140.179,-1808.22
 L -140.687,-1807.85 L -141.145,-1807.42 L -141.545,-1806.94 L -141.882,-1806.41 L -142.149,-1805.84 L -142.343,-1805.24
 L -142.461,-1804.63 L -142.5,-1804 L -142.5,-1544 L -142.461,-1543.37 L -142.343,-1542.76 L -142.149,-1542.16
 L -141.882,-1541.59 L -141.545,-1541.06 L -141.145,-1540.58 L -140.687,-1540.15 L -140.179,-1539.78 L -139.629,-1539.48
 L -139.045,-1539.24 L -138.437,-1539.09 L -137.814,-1539.01 L 137.814,-1539.01 z
M -137.548,-1539.51 L -138.14,-1539.58 L -138.718,-1539.73 L -139.272,-1539.95 L -139.795,-1540.24 L -140.278,-1540.59
 L -140.713,-1541 L -141.093,-1541.46 L -141.412,-1541.96 L -141.666,-1542.5 L -141.851,-1543.07 L -141.963,-1543.65
 L -142,-1544.25 L -142,-1803.75 L -141.963,-1804.35 L -141.851,-1804.93 L -141.666,-1805.5 L -141.412,-1806.04
 L -141.093,-1806.54 L -140.713,-1807 L -140.278,-1807.41 L -139.795,-1807.76 L -139.272,-1808.05 L -138.718,-1808.27
 L -138.14,-1808.42 L -137.548,-1808.49 L 137.548,-1808.49 L 138.14,-1808.42 L 138.718,-1808.27 L 139.272,-1808.05
 L 139.795,-1807.76 L 140.278,-1807.41 L 140.713,-1807 L 141.093,-1806.54 L 141.412,-1806.04 L 141.666,-1805.5
 L 141.851,-1804.93 L 141.963,-1804.35 L 142,-1803.75 L 142,-1544.25 L 141.963,-1543.65 L 141.851,-1543.07
 L 141.666,-1542.5 L 141.412,-1541.96 L 141.093,-1541.46 L 140.713,-1541 L 140.278,-1540.59 L 139.795,-1540.24
 L 139.272,-1539.95 L 138.718,-1539.73 L 138.14,-1539.58 L 137.548,-1539.51 z
M 138.437,-1260.09 L 139.045,-1260.24 L 139.629,-1260.48 L 140.179,-1260.78 L 140.687,-1261.15 L 141.145,-1261.58
 L 141.545,-1262.06 L 141.882,-1262.59 L 142.149,-1263.16 L 142.343,-1263.76 L 142.461,-1264.37 L 142.5,-1265
 L 142.5,-1525 L 142.461,-1525.63 L 142.343,-1526.24 L 142.149,-1526.84 L 141.882,-1527.41 L 141.545,-1527.94
 L 141.145,-1528.42 L 140.687,-1528.85 L 140.179,-1529.22 L 139.629,-1529.52 L 139.045,-1529.76 L 138.437,-1529.91
 L 137.814,-1529.99 L -137.814,-1529.99 L -138.437,-1529.91 L -139.045,-1529.76 L -139.629,-1529.52 L -140.179,-1529.22
 L -140.687,-1528.85 L -141.145,-1528.42 L -141.545,-1527.94 L -141.882,-1527.41 L -142.149,-1526.84 L -142.343,-1526.24
 L -142.461,-1525.63 L -142.5,-1525 L -142.5,-1265 L -142.461,-1264.37 L -142.343,-1263.76 L -142.149,-1263.16
 L -141.882,-1262.59 L -141.545,-1262.06 L -141.145,-1261.58 L -140.687,-1261.15 L -140.179,-1260.78 L -139.629,-1260.48
 L -139.045,-1260.24 L -138.437,-1260.09 L -137.814,-1260.01 L 137.814,-1260.01 z
M -137.493,-1261.39 L -137.975,-1261.45 L -138.446,-1261.57 L -138.898,-1261.75 L -139.323,-1261.98 L -139.716,-1262.27
 L -140.071,-1262.6 L -140.38,-1262.98 L -140.641,-1263.39 L -140.848,-1263.83 L -140.998,-1264.29 L -141.089,-1264.77
 L -141.119,-1265.25 L -141.119,-1524.75 L -141.089,-1525.23 L -140.998,-1525.71 L -140.848,-1526.17 L -140.641,-1526.61
 L -140.38,-1527.02 L -140.071,-1527.4 L -139.716,-1527.73 L -139.323,-1528.02 L -138.898,-1528.25 L -138.446,-1528.43
 L -137.975,-1528.55 L -137.493,-1528.61 L 137.493,-1528.61 L 137.975,-1528.55 L 138.446,-1528.43 L 138.898,-1528.25
 L 139.323,-1528.02 L 139.716,-1527.73 L 140.071,-1527.4 L 140.38,-1527.02 L 140.641,-1526.61 L 140.848,-1526.17
 L 140.998,-1525.71 L 141.089,-1525.23 L 141.119,-1524.75 L 141.119,-1265.25 L 141.089,-1264.77 L 140.998,-1264.29
 L 140.848,-1263.83 L 140.641,-1263.39 L 140.38,-1262.98 L 140.071,-1262.6 L 139.716,-1262.27 L 139.323,-1261.98
 L 138.898,-1261.75 L 138.446,-1261.57 L 137.975,-1261.45 L 137.493,-1261.39 z
M 138.437,-981.089 L 139.045,-981.245 L 139.629,-981.476 L 140.179,-981.778 L 140.687,-982.147 L 141.145,-982.577
 L 141.545,-983.061 L 141.882,-983.591 L 142.149,-984.159 L 142.343,-984.757 L 142.461,-985.373 L 142.5,-986
 L 142.5,-1246 L 142.461,-1246.63 L 142.343,-1247.24 L 142.149,-1247.84 L 141.882,-1248.41 L 141.545,-1248.94
 L 141.145,-1249.42 L 140.687,-1249.85 L 140.179,-1250.22 L 139.629,-1250.52 L 139.045,-1250.76 L 138.437,-1250.91
 L 137.814,-1250.99 L -137.814,-1250.99 L -138.437,-1250.91 L -139.045,-1250.76 L -139.629,-1250.52 L -140.179,-1250.22
 L -140.687,-1249.85 L -141.145,-1249.42 L -141.545,-1248.94 L -141.882,-1248.41 L -142.149,-1247.84 L -142.343,-1247.24
 L -142.461,-1246.63 L -142.5,-1246 L -142.5,-986 L -142.461,-985.373 L -142.343,-984.757 L -142.149,-984.159
 L -141.882,-983.591 L -141.545,-983.061 L -141.145,-982.577 L -140.687,-982.147 L -140.179,-981.778 L -139.629,-981.476
 L -139.045,-981.245 L -138.437,-981.089 L -137.814,-981.01 L 137.814,-981.01 z
M 134.887,-1241.7 L 134.663,-1241.73 L 134.444,-1241.79 L 134.234,-1241.87 L 134.036,-1241.98 L 133.853,-1242.11
 L 133.688,-1242.27 L 133.544,-1242.44 L 133.423,-1242.63 L 133.326,-1242.84 L 133.257,-1243.05 L 133.214,-1243.27
 L 133.2,-1243.5 L 133.214,-1243.73 L 133.257,-1243.95 L 133.326,-1244.16 L 133.423,-1244.37 L 133.544,-1244.56
 L 133.688,-1244.73 L 133.853,-1244.89 L 134.036,-1245.02 L 134.234,-1245.13 L 134.444,-1245.21 L 134.663,-1245.27
 L 134.887,-1245.3 L 135.113,-1245.3 L 135.337,-1245.27 L 135.556,-1245.21 L 135.766,-1245.13 L 135.964,-1245.02
 L 136.147,-1244.89 L 136.312,-1244.73 L 136.456,-1244.56 L 136.577,-1244.37 L 136.674,-1244.16 L 136.743,-1243.95
 L 136.786,-1243.73 L 136.8,-1243.5 L 136.786,-1243.27 L 136.743,-1243.05 L 136.674,-1242.84 L 136.577,-1242.63
 L 136.456,-1242.44 L 136.312,-1242.27 L 136.147,-1242.11 L 135.964,-1241.98 L 135.766,-1241.87 L 135.556,-1241.79
 L 135.337,-1241.73 L 135.113,-1241.7 z
M -135.113,-1241.7 L -135.337,-1241.73 L -135.556,-1241.79 L -135.766,-1241.87 L -135.964,-1241.98 L -136.147,-1242.11
 L -136.312,-1242.27 L -136.456,-1242.44 L -136.577,-1242.63 L -136.674,-1242.84 L -136.743,-1243.05 L -136.786,-1243.27
 L -136.8,-1243.5 L -136.786,-1243.73 L -136.743,-1243.95 L -136.674,-1244.16 L -136.577,-1244.37 L -136.456,-1244.56
 L -136.312,-1244.73 L -136.147,-1244.89 L -135.964,-1245.02 L -135.766,-1245.13 L -135.556,-1245.21 L -135.337,-1245.27
 L -135.113,-1245.3 L -134.887,-1245.3 L -134.663,-1245.27 L -134.444,-1245.21 L -134.234,-1245.13 L -134.036,-1245.02
 L -133.853,-1244.89 L -133.688,-1244.73 L -133.544,-1244.56 L -133.423,-1244.37 L -133.326,-1244.16 L -133.257,-1243.95
 L -133.214,-1243.73 L -133.2,-1243.5 L -133.214,-1243.27 L -133.257,-1243.05 L -133.326,-1242.84 L -133.423,-1242.63
 L -133.544,-1242.44 L -133.688,-1242.27 L -133.853,-1242.11 L -134.036,-1241.98 L -134.234,-1241.87 L -134.444,-1241.79
 L -134.663,-1241.73 L -134.887,-1241.7 z
M -135.113,-986.704 L -135.337,-986.732 L -135.556,-986.788 L -135.766,-986.871 L -135.964,-986.98 L -136.147,-987.113
 L -136.312,-987.268 L -136.456,-987.442 L -136.577,-987.633 L -136.674,-987.837 L -136.743,-988.052 L -136.786,-988.274
 L -136.8,-988.5 L -136.786,-988.726 L -136.743,-988.948 L -136.674,-989.163 L -136.577,-989.367 L -136.456,-989.558
 L -136.312,-989.732 L -136.147,-989.887 L -135.964,-990.02 L -135.766,-990.129 L -135.556,-990.212 L -135.337,-990.268
 L -135.113,-990.296 L -134.887,-990.296 L -134.663,-990.268 L -134.444,-990.212 L -134.234,-990.129 L -134.036,-990.02
 L -133.853,-989.887 L -133.688,-989.732 L -133.544,-989.558 L -133.423,-989.367 L -133.326,-989.163 L -133.257,-988.948
 L -133.214,-988.726 L -133.2,-988.5 L -133.214,-988.274 L -133.257,-988.052 L -133.326,-987.837 L -133.423,-987.633
 L -133.544,-987.442 L -133.688,-987.268 L -133.853,-987.113 L -134.036,-986.98 L -134.234,-986.871 L -134.444,-986.788
 L -134.663,-986.732 L -134.887,-986.704 z
M 134.887,-986.704 L 134.663,-986.732 L 134.444,-986.788 L 134.234,-986.871 L 134.036,-986.98 L 133.853,-987.113
 L 133.688,-987.268 L 133.544,-987.442 L 133.423,-987.633 L 133.326,-987.837 L 133.257,-988.052 L 133.214,-988.274
 L 133.2,-988.5 L 133.214,-988.726 L 133.257,-988.948 L 133.326,-989.163 L 133.423,-989.367 L 133.544,-989.558
 L 133.688,-989.732 L 133.853,-989.887 L 134.036,-990.02 L 134.234,-990.129 L 134.444,-990.212 L 134.663,-990.268
 L 134.887,-990.296 L 135.113,-990.296 L 135.337,-990.268 L 135.556,-990.212 L 135.766,-990.129 L 135.964,-990.02
 L 136.147,-989.887 L 136.312,-989.732 L 136.456,-989.558 L 136.577,-989.367 L 136.674,-989.163 L 136.743,-988.948
 L 136.786,-988.726 L 136.8,-988.5 L 136.786,-988.274 L 136.743,-988.052 L 136.674,-987.837 L 136.577,-987.633
 L 136.456,-987.442 L 136.312,-987.268 L 136.147,-987.113 L 135.964,-986.98 L 135.766,-986.871 L 135.556,-986.788
 L 135.337,-986.732 L 135.113,-986.704 z
" stroke="black" fill="lightgray" stroke-width="0.5"/>
</svg>
