  0
SECTION
  2
BLOCKS
  0
ENDSEC
  0
SECTION
  2
ENTITIES
  0
LINE
  8
0
 10
-118.5
 20
1535.94
 11
-118.187
 21
1535.65
  0
LINE
  8
0
 10
-118.187
 20
1535.65
 11
-117.679
 21
1535.28
  0
LINE
  8
0
 10
-117.679
 20
1535.28
 11
-117.129
 21
1534.98
  0
LINE
  8
0
 10
-117.129
 20
1534.98
 11
-116.545
 21
1534.74
  0
LINE
  8
0
 10
-116.545
 20
1534.74
 11
-115.937
 21
1534.59
  0
LINE
  8
0
 10
-115.937
 20
1534.59
 11
-115.314
 21
1534.51
  0
LINE
  8
0
 10
-115.314
 20
1534.51
 11
115.314
 21
1534.51
  0
LINE
  8
0
 10
115.314
 20
1534.51
 11
115.937
 21
1534.59
  0
LINE
  8
0
 10
115.937
 20
1534.59
 11
116.545
 21
1534.74
  0
LINE
  8
0
 10
116.545
 20
1534.74
 11
117.129
 21
1534.98
  0
LINE
  8
0
 10
117.129
 20
1534.98
 11
117.679
 21
1535.28
  0
LINE
  8
0
 10
117.679
 20
1535.28
 11
118.187
 21
1535.65
  0
LINE
  8
0
 10
118.187
 20
1535.65
 11
118.645
 21
1536.08
  0
LINE
  8
0
 10
118.645
 20
1536.08
 11
119.045
 21
1536.56
  0
LINE
  8
0
 10
119.045
 20
1536.56
 11
119.382
 21
1537.09
  0
LINE
  8
0
 10
119.382
 20
1537.09
 11
119.649
 21
1537.66
  0
LINE
  8
0
 10
119.649
 20
1537.66
 11
119.843
 21
1538.26
  0
LINE
  8
0
 10
119.843
 20
1538.26
 11
119.961
 21
1538.87
  0
LINE
  8
0
 10
119.961
 20
1538.87
 11
120
 21
1539.5
  0
LINE
  8
0
 10
120
 20
1539.5
 11
120
 21
1724.5
  0
LINE
  8
0
 10
120
 20
1724.5
 11
119.961
 21
1725.13
  0
LINE
  8
0
 10
119.961
 20
1725.13
 11
119.843
 21
1725.74
  0
LINE
  8
0
 10
119.843
 20
1725.74
 11
119.649
 21
1726.34
  0
LINE
  8
0
 10
119.649
 20
1726.34
 11
119.382
 21
1726.91
  0
LINE
  8
0
 10
119.382
 20
1726.91
 11
119.045
 21
1727.44
  0
LINE
  8
0
 10
119.045
 20
1727.44
 11
118.645
 21
1727.92
  0
LINE
  8
0
 10
118.645
 20
1727.92
 11
118.187
 21
1728.35
  0
LINE
  8
0
 10
118.187
 20
1728.35
 11
117.679
 21
1728.72
  0
LINE
  8
0
 10
117.679
 20
1728.72
 11
117.129
 21
1729.02
  0
LINE
  8
0
 10
117.129
 20
1729.02
 11
116.545
 21
1729.26
  0
LINE
  8
0
 10
116.545
 20
1729.26
 11
115.937
 21
1729.41
  0
LINE
  8
0
 10
115.937
 20
1729.41
 11
115.314
 21
1729.49
  0
LINE
  8
0
 10
115.314
 20
1729.49
 11
-115.314
 21
1729.49
  0
LINE
  8
0
 10
-115.314
 20
1729.49
 11
-115.937
 21
1729.41
  0
LINE
  8
0
 10
-115.937
 20
1729.41
 11
-116.545
 21
1729.26
  0
LINE
  8
0
 10
-116.545
 20
1729.26
 11
-117.129
 21
1729.02
  0
LINE
  8
0
 10
-117.129
 20
1729.02
 11
-117.679
 21
1728.72
  0
LINE
  8
0
 10
-117.679
 20
1728.72
 11
-118.187
 21
1728.35
  0
LINE
  8
0
 10
-118.187
 20
1728.35
 11
-118.5
 21
1728.06
  0
LINE
  8
0
 10
-118.5
 20
1728.06
 11
-118.5
 21
1729.49
  0
LINE
  8
0
 10
-118.5
 20
1729.49
 11
-121.5
 21
1729.49
  0
LINE
  8
0
 10
-121.5
 20
1729.49
 11
-121.5
 21
1534.51
  0
LINE
  8
0
 10
-121.5
 20
1534.51
 11
-118.5
 21
1534.51
  0
LINE
  8
0
 10
-118.5
 20
1534.51
 11
-118.5
 21
1535.94
  0
LINE
  8
0
 10
-114.751
 20
1536.01
 11
-115.25
 21
1536.07
  0
LINE
  8
0
 10
-115.25
 20
1536.07
 11
-115.736
 21
1536.2
  0
LINE
  8
0
 10
-115.736
 20
1536.2
 11
-116.203
 21
1536.38
  0
LINE
  8
0
 10
-116.203
 20
1536.38
 11
-116.643
 21
1536.62
  0
LINE
  8
0
 10
-116.643
 20
1536.62
 11
-117.05
 21
1536.92
  0
LINE
  8
0
 10
-117.05
 20
1536.92
 11
-117.416
 21
1537.26
  0
LINE
  8
0
 10
-117.416
 20
1537.26
 11
-117.736
 21
1537.65
  0
LINE
  8
0
 10
-117.736
 20
1537.65
 11
-118.005
 21
1538.07
  0
LINE
  8
0
 10
-118.005
 20
1538.07
 11
-118.219
 21
1538.53
  0
LINE
  8
0
 10
-118.219
 20
1538.53
 11
-118.374
 21
1539.01
  0
LINE
  8
0
 10
-118.374
 20
1539.01
 11
-118.468
 21
1539.5
  0
LINE
  8
0
 10
-118.468
 20
1539.5
 11
-118.5
 21
1540
  0
LINE
  8
0
 10
-118.5
 20
1540
 11
-118.5
 21
1724
  0
LINE
  8
0
 10
-118.5
 20
1724
 11
-118.468
 21
1724.5
  0
LINE
  8
0
 10
-118.468
 20
1724.5
 11
-118.374
 21
1724.99
  0
LINE
  8
0
 10
-118.374
 20
1724.99
 11
-118.219
 21
1725.47
  0
LINE
  8
0
 10
-118.219
 20
1725.47
 11
-118.005
 21
1725.93
  0
LINE
  8
0
 10
-118.005
 20
1725.93
 11
-117.736
 21
1726.35
  0
LINE
  8
0
 10
-117.736
 20
1726.35
 11
-117.416
 21
1726.74
  0
LINE
  8
0
 10
-117.416
 20
1726.74
 11
-117.05
 21
1727.08
  0
LINE
  8
0
 10
-117.05
 20
1727.08
 11
-116.643
 21
1727.38
  0
LINE
  8
0
 10
-116.643
 20
1727.38
 11
-116.203
 21
1727.62
  0
LINE
  8
0
 10
-116.203
 20
1727.62
 11
-115.736
 21
1727.8
  0
LINE
  8
0
 10
-115.736
 20
1727.8
 11
-115.25
 21
1727.93
  0
LINE
  8
0
 10
-115.25
 20
1727.93
 11
-114.751
 21
1727.99
  0
LINE
  8
0
 10
-114.751
 20
1727.99
 11
114.751
 21
1727.99
  0
LINE
  8
0
 10
114.751
 20
1727.99
 11
115.25
 21
1727.93
  0
LINE
  8
0
 10
115.25
 20
1727.93
 11
115.736
 21
1727.8
  0
LINE
  8
0
 10
115.736
 20
1727.8
 11
116.203
 21
1727.62
  0
LINE
  8
0
 10
116.203
 20
1727.62
 11
116.643
 21
1727.38
  0
LINE
  8
0
 10
116.643
 20
1727.38
 11
117.05
 21
1727.08
  0
LINE
  8
0
 10
117.05
 20
1727.08
 11
117.416
 21
1726.74
  0
LINE
  8
0
 10
117.416
 20
1726.74
 11
117.736
 21
1726.35
  0
LINE
  8
0
 10
117.736
 20
1726.35
 11
118.005
 21
1725.93
  0
LINE
  8
0
 10
118.005
 20
1725.93
 11
118.219
 21
1725.47
  0
LINE
  8
0
 10
118.219
 20
1725.47
 11
118.374
 21
1724.99
  0
LINE
  8
0
 10
118.374
 20
1724.99
 11
118.468
 21
1724.5
  0
LINE
  8
0
 10
118.468
 20
1724.5
 11
118.5
 21
1724
  0
LINE
  8
0
 10
118.5
 20
1724
 11
118.5
 21
1540
  0
LINE
  8
0
 10
118.5
 20
1540
 11
118.468
 21
1539.5
  0
LINE
  8
0
 10
118.468
 20
1539.5
 11
118.374
 21
1539.01
  0
LINE
  8
0
 10
118.374
 20
1539.01
 11
118.219
 21
1538.53
  0
LINE
  8
0
 10
118.219
 20
1538.53
 11
118.005
 21
1538.07
  0
LINE
  8
0
 10
118.005
 20
1538.07
 11
117.736
 21
1537.65
  0
LINE
  8
0
 10
117.736
 20
1537.65
 11
117.416
 21
1537.26
  0
LINE
  8
0
 10
117.416
 20
1537.26
 11
117.05
 21
1536.92
  0
LINE
  8
0
 10
117.05
 20
1536.92
 11
116.643
 21
1536.62
  0
LINE
  8
0
 10
116.643
 20
1536.62
 11
116.203
 21
1536.38
  0
LINE
  8
0
 10
116.203
 20
1536.38
 11
115.736
 21
1536.2
  0
LINE
  8
0
 10
115.736
 20
1536.2
 11
115.25
 21
1536.07
  0
LINE
  8
0
 10
115.25
 20
1536.07
 11
114.751
 21
1536.01
  0
LINE
  8
0
 10
114.751
 20
1536.01
 11
-114.751
 21
1536.01
  0
LINE
  8
0
 10
-118.5
 20
1331.94
 11
-118.187
 21
1331.65
  0
LINE
  8
0
 10
-118.187
 20
1331.65
 11
-117.679
 21
1331.28
  0
LINE
  8
0
 10
-117.679
 20
1331.28
 11
-117.129
 21
1330.98
  0
LINE
  8
0
 10
-117.129
 20
1330.98
 11
-116.545
 21
1330.74
  0
LINE
  8
0
 10
-116.545
 20
1330.74
 11
-115.937
 21
1330.59
  0
LINE
  8
0
 10
-115.937
 20
1330.59
 11
-115.314
 21
1330.51
  0
LINE
  8
0
 10
-115.314
 20
1330.51
 11
115.314
 21
1330.51
  0
LINE
  8
0
 10
115.314
 20
1330.51
 11
115.937
 21
1330.59
  0
LINE
  8
0
 10
115.937
 20
1330.59
 11
116.545
 21
1330.74
  0
LINE
  8
0
 10
116.545
 20
1330.74
 11
117.129
 21
1330.98
  0
LINE
  8
0
 10
117.129
 20
1330.98
 11
117.679
 21
1331.28
  0
LINE
  8
0
 10
117.679
 20
1331.28
 11
118.187
 21
1331.65
  0
LINE
  8
0
 10
118.187
 20
1331.65
 11
118.645
 21
1332.08
  0
LINE
  8
0
 10
118.645
 20
1332.08
 11
119.045
 21
1332.56
  0
LINE
  8
0
 10
119.045
 20
1332.56
 11
119.382
 21
1333.09
  0
LINE
  8
0
 10
119.382
 20
1333.09
 11
119.649
 21
1333.66
  0
LINE
  8
0
 10
119.649
 20
1333.66
 11
119.843
 21
1334.26
  0
LINE
  8
0
 10
119.843
 20
1334.26
 11
119.961
 21
1334.87
  0
LINE
  8
0
 10
119.961
 20
1334.87
 11
120
 21
1335.5
  0
LINE
  8
0
 10
120
 20
1335.5
 11
120
 21
1520.5
  0
LINE
  8
0
 10
120
 20
1520.5
 11
119.961
 21
1521.13
  0
LINE
  8
0
 10
119.961
 20
1521.13
 11
119.843
 21
1521.74
  0
LINE
  8
0
 10
119.843
 20
1521.74
 11
119.649
 21
1522.34
  0
LINE
  8
0
 10
119.649
 20
1522.34
 11
119.382
 21
1522.91
  0
LINE
  8
0
 10
119.382
 20
1522.91
 11
119.045
 21
1523.44
  0
LINE
  8
0
 10
119.045
 20
1523.44
 11
118.645
 21
1523.92
  0
LINE
  8
0
 10
118.645
 20
1523.92
 11
118.187
 21
1524.35
  0
LINE
  8
0
 10
118.187
 20
1524.35
 11
117.679
 21
1524.72
  0
LINE
  8
0
 10
117.679
 20
1524.72
 11
117.129
 21
1525.02
  0
LINE
  8
0
 10
117.129
 20
1525.02
 11
116.545
 21
1525.26
  0
LINE
  8
0
 10
116.545
 20
1525.26
 11
115.937
 21
1525.41
  0
LINE
  8
0
 10
115.937
 20
1525.41
 11
115.314
 21
1525.49
  0
LINE
  8
0
 10
115.314
 20
1525.49
 11
-115.314
 21
1525.49
  0
LINE
  8
0
 10
-115.314
 20
1525.49
 11
-115.937
 21
1525.41
  0
LINE
  8
0
 10
-115.937
 20
1525.41
 11
-116.545
 21
1525.26
  0
LINE
  8
0
 10
-116.545
 20
1525.26
 11
-117.129
 21
1525.02
  0
LINE
  8
0
 10
-117.129
 20
1525.02
 11
-117.679
 21
1524.72
  0
LINE
  8
0
 10
-117.679
 20
1524.72
 11
-118.187
 21
1524.35
  0
LINE
  8
0
 10
-118.187
 20
1524.35
 11
-118.5
 21
1524.06
  0
LINE
  8
0
 10
-118.5
 20
1524.06
 11
-118.5
 21
1525.49
  0
LINE
  8
0
 10
-118.5
 20
1525.49
 11
-121.5
 21
1525.49
  0
LINE
  8
0
 10
-121.5
 20
1525.49
 11
-121.5
 21
1330.51
  0
LINE
  8
0
 10
-121.5
 20
1330.51
 11
-118.5
 21
1330.51
  0
LINE
  8
0
 10
-118.5
 20
1330.51
 11
-118.5
 21
1331.94
  0
LINE
  8
0
 10
-114.751
 20
1332.01
 11
-115.25
 21
1332.07
  0
LINE
  8
0
 10
-115.25
 20
1332.07
 11
-115.736
 21
1332.2
  0
LINE
  8
0
 10
-115.736
 20
1332.2
 11
-116.203
 21
1332.38
  0
LINE
  8
0
 10
-116.203
 20
1332.38
 11
-116.643
 21
1332.62
  0
LINE
  8
0
 10
-116.643
 20
1332.62
 11
-117.05
 21
1332.92
  0
LINE
  8
0
 10
-117.05
 20
1332.92
 11
-117.416
 21
1333.26
  0
LINE
  8
0
 10
-117.416
 20
1333.26
 11
-117.736
 21
1333.65
  0
LINE
  8
0
 10
-117.736
 20
1333.65
 11
-118.005
 21
1334.07
  0
LINE
  8
0
 10
-118.005
 20
1334.07
 11
-118.219
 21
1334.53
  0
LINE
  8
0
 10
-118.219
 20
1334.53
 11
-118.374
 21
1335.01
  0
LINE
  8
0
 10
-118.374
 20
1335.01
 11
-118.468
 21
1335.5
  0
LINE
  8
0
 10
-118.468
 20
1335.5
 11
-118.5
 21
1336
  0
LINE
  8
0
 10
-118.5
 20
1336
 11
-118.5
 21
1520
  0
LINE
  8
0
 10
-118.5
 20
1520
 11
-118.468
 21
1520.5
  0
LINE
  8
0
 10
-118.468
 20
1520.5
 11
-118.374
 21
1520.99
  0
LINE
  8
0
 10
-118.374
 20
1520.99
 11
-118.219
 21
1521.47
  0
LINE
  8
0
 10
-118.219
 20
1521.47
 11
-118.005
 21
1521.93
  0
LINE
  8
0
 10
-118.005
 20
1521.93
 11
-117.736
 21
1522.35
  0
LINE
  8
0
 10
-117.736
 20
1522.35
 11
-117.416
 21
1522.74
  0
LINE
  8
0
 10
-117.416
 20
1522.74
 11
-117.05
 21
1523.08
  0
LINE
  8
0
 10
-117.05
 20
1523.08
 11
-116.643
 21
1523.38
  0
LINE
  8
0
 10
-116.643
 20
1523.38
 11
-116.203
 21
1523.62
  0
LINE
  8
0
 10
-116.203
 20
1523.62
 11
-115.736
 21
1523.8
  0
LINE
  8
0
 10
-115.736
 20
1523.8
 11
-115.25
 21
1523.93
  0
LINE
  8
0
 10
-115.25
 20
1523.93
 11
-114.751
 21
1523.99
  0
LINE
  8
0
 10
-114.751
 20
1523.99
 11
114.751
 21
1523.99
  0
LINE
  8
0
 10
114.751
 20
1523.99
 11
115.25
 21
1523.93
  0
LINE
  8
0
 10
115.25
 20
1523.93
 11
115.736
 21
1523.8
  0
LINE
  8
0
 10
115.736
 20
1523.8
 11
116.203
 21
1523.62
  0
LINE
  8
0
 10
116.203
 20
1523.62
 11
116.643
 21
1523.38
  0
LINE
  8
0
 10
116.643
 20
1523.38
 11
117.05
 21
1523.08
  0
LINE
  8
0
 10
117.05
 20
1523.08
 11
117.416
 21
1522.74
  0
LINE
  8
0
 10
117.416
 20
1522.74
 11
117.736
 21
1522.35
  0
LINE
  8
0
 10
117.736
 20
1522.35
 11
118.005
 21
1521.93
  0
LINE
  8
0
 10
118.005
 20
1521.93
 11
118.219
 21
1521.47
  0
LINE
  8
0
 10
118.219
 20
1521.47
 11
118.374
 21
1520.99
  0
LINE
  8
0
 10
118.374
 20
1520.99
 11
118.468
 21
1520.5
  0
LINE
  8
0
 10
118.468
 20
1520.5
 11
118.5
 21
1520
  0
LINE
  8
0
 10
118.5
 20
1520
 11
118.5
 21
1336
  0
LINE
  8
0
 10
118.5
 20
1336
 11
118.468
 21
1335.5
  0
LINE
  8
0
 10
118.468
 20
1335.5
 11
118.374
 21
1335.01
  0
LINE
  8
0
 10
118.374
 20
1335.01
 11
118.219
 21
1334.53
  0
LINE
  8
0
 10
118.219
 20
1334.53
 11
118.005
 21
1334.07
  0
LINE
  8
0
 10
118.005
 20
1334.07
 11
117.736
 21
1333.65
  0
LINE
  8
0
 10
117.736
 20
1333.65
 11
117.416
 21
1333.26
  0
LINE
  8
0
 10
117.416
 20
1333.26
 11
117.05
 21
1332.92
  0
LINE
  8
0
 10
117.05
 20
1332.92
 11
116.643
 21
1332.62
  0
LINE
  8
0
 10
116.643
 20
1332.62
 11
116.203
 21
1332.38
  0
LINE
  8
0
 10
116.203
 20
1332.38
 11
115.736
 21
1332.2
  0
LINE
  8
0
 10
115.736
 20
1332.2
 11
115.25
 21
1332.07
  0
LINE
  8
0
 10
115.25
 20
1332.07
 11
114.751
 21
1332.01
  0
LINE
  8
0
 10
114.751
 20
1332.01
 11
-114.751
 21
1332.01
  0
LINE
  8
0
 10
-118.5
 20
1127.94
 11
-118.187
 21
1127.65
  0
LINE
  8
0
 10
-118.187
 20
1127.65
 11
-117.679
 21
1127.28
  0
LINE
  8
0
 10
-117.679
 20
1127.28
 11
-117.129
 21
1126.98
  0
LINE
  8
0
 10
-117.129
 20
1126.98
 11
-116.545
 21
1126.74
  0
LINE
  8
0
 10
-116.545
 20
1126.74
 11
-115.937
 21
1126.59
  0
LINE
  8
0
 10
-115.937
 20
1126.59
 11
-115.314
 21
1126.51
  0
LINE
  8
0
 10
-115.314
 20
1126.51
 11
115.314
 21
1126.51
  0
LINE
  8
0
 10
115.314
 20
1126.51
 11
115.937
 21
1126.59
  0
LINE
  8
0
 10
115.937
 20
1126.59
 11
116.545
 21
1126.74
  0
LINE
  8
0
 10
116.545
 20
1126.74
 11
117.129
 21
1126.98
  0
LINE
  8
0
 10
117.129
 20
1126.98
 11
117.679
 21
1127.28
  0
LINE
  8
0
 10
117.679
 20
1127.28
 11
118.187
 21
1127.65
  0
LINE
  8
0
 10
118.187
 20
1127.65
 11
118.645
 21
1128.08
  0
LINE
  8
0
 10
118.645
 20
1128.08
 11
119.045
 21
1128.56
  0
LINE
  8
0
 10
119.045
 20
1128.56
 11
119.382
 21
1129.09
  0
LINE
  8
0
 10
119.382
 20
1129.09
 11
119.649
 21
1129.66
  0
LINE
  8
0
 10
119.649
 20
1129.66
 11
119.843
 21
1130.26
  0
LINE
  8
0
 10
119.843
 20
1130.26
 11
119.961
 21
1130.87
  0
LINE
  8
0
 10
119.961
 20
1130.87
 11
120
 21
1131.5
  0
LINE
  8
0
 10
120
 20
1131.5
 11
120
 21
1316.5
  0
LINE
  8
0
 10
120
 20
1316.5
 11
119.961
 21
1317.13
  0
LINE
  8
0
 10
119.961
 20
1317.13
 11
119.843
 21
1317.74
  0
LINE
  8
0
 10
119.843
 20
1317.74
 11
119.649
 21
1318.34
  0
LINE
  8
0
 10
119.649
 20
1318.34
 11
119.382
 21
1318.91
  0
LINE
  8
0
 10
119.382
 20
1318.91
 11
119.045
 21
1319.44
  0
LINE
  8
0
 10
119.045
 20
1319.44
 11
118.645
 21
1319.92
  0
LINE
  8
0
 10
118.645
 20
1319.92
 11
118.187
 21
1320.35
  0
LINE
  8
0
 10
118.187
 20
1320.35
 11
117.679
 21
1320.72
  0
LINE
  8
0
 10
117.679
 20
1320.72
 11
117.129
 21
1321.02
  0
LINE
  8
0
 10
117.129
 20
1321.02
 11
116.545
 21
1321.26
  0
LINE
  8
0
 10
116.545
 20
1321.26
 11
115.937
 21
1321.41
  0
LINE
  8
0
 10
115.937
 20
1321.41
 11
115.314
 21
1321.49
  0
LINE
  8
0
 10
115.314
 20
1321.49
 11
-115.314
 21
1321.49
  0
LINE
  8
0
 10
-115.314
 20
1321.49
 11
-115.937
 21
1321.41
  0
LINE
  8
0
 10
-115.937
 20
1321.41
 11
-116.545
 21
1321.26
  0
LINE
  8
0
 10
-116.545
 20
1321.26
 11
-117.129
 21
1321.02
  0
LINE
  8
0
 10
-117.129
 20
1321.02
 11
-117.679
 21
1320.72
  0
LINE
  8
0
 10
-117.679
 20
1320.72
 11
-118.187
 21
1320.35
  0
LINE
  8
0
 10
-118.187
 20
1320.35
 11
-118.5
 21
1320.06
  0
LINE
  8
0
 10
-118.5
 20
1320.06
 11
-118.5
 21
1321.49
  0
LINE
  8
0
 10
-118.5
 20
1321.49
 11
-121.5
 21
1321.49
  0
LINE
  8
0
 10
-121.5
 20
1321.49
 11
-121.5
 21
1126.51
  0
LINE
  8
0
 10
-121.5
 20
1126.51
 11
-118.5
 21
1126.51
  0
LINE
  8
0
 10
-118.5
 20
1126.51
 11
-118.5
 21
1127.94
  0
LINE
  8
0
 10
-114.743
 20
1128.14
 11
-115.226
 21
1128.2
  0
LINE
  8
0
 10
-115.226
 20
1128.2
 11
-115.697
 21
1128.32
  0
LINE
  8
0
 10
-115.697
 20
1128.32
 11
-116.149
 21
1128.5
  0
LINE
  8
0
 10
-116.149
 20
1128.5
 11
-116.575
 21
1128.73
  0
LINE
  8
0
 10
-116.575
 20
1128.73
 11
-116.969
 21
1129.02
  0
LINE
  8
0
 10
-116.969
 20
1129.02
 11
-117.323
 21
1129.35
  0
LINE
  8
0
 10
-117.323
 20
1129.35
 11
-117.633
 21
1129.72
  0
LINE
  8
0
 10
-117.633
 20
1129.72
 11
-117.894
 21
1130.13
  0
LINE
  8
0
 10
-117.894
 20
1130.13
 11
-118.101
 21
1130.57
  0
LINE
  8
0
 10
-118.101
 20
1130.57
 11
-118.251
 21
1131.04
  0
LINE
  8
0
 10
-118.251
 20
1131.04
 11
-118.342
 21
1131.51
  0
LINE
  8
0
 10
-118.342
 20
1131.51
 11
-118.373
 21
1132
  0
LINE
  8
0
 10
-118.373
 20
1132
 11
-118.373
 21
1316
  0
LINE
  8
0
 10
-118.373
 20
1316
 11
-118.342
 21
1316.49
  0
LINE
  8
0
 10
-118.342
 20
1316.49
 11
-118.251
 21
1316.96
  0
LINE
  8
0
 10
-118.251
 20
1316.96
 11
-118.101
 21
1317.43
  0
LINE
  8
0
 10
-118.101
 20
1317.43
 11
-117.894
 21
1317.87
  0
LINE
  8
0
 10
-117.894
 20
1317.87
 11
-117.633
 21
1318.28
  0
LINE
  8
0
 10
-117.633
 20
1318.28
 11
-117.323
 21
1318.65
  0
LINE
  8
0
 10
-117.323
 20
1318.65
 11
-116.969
 21
1318.98
  0
LINE
  8
0
 10
-116.969
 20
1318.98
 11
-116.575
 21
1319.27
  0
LINE
  8
0
 10
-116.575
 20
1319.27
 11
-116.149
 21
1319.5
  0
LINE
  8
0
 10
-116.149
 20
1319.5
 11
-115.697
 21
1319.68
  0
LINE
  8
0
 10
-115.697
 20
1319.68
 11
-115.226
 21
1319.8
  0
LINE
  8
0
 10
-115.226
 20
1319.8
 11
-114.743
 21
1319.86
  0
LINE
  8
0
 10
-114.743
 20
1319.86
 11
114.743
 21
1319.86
  0
LINE
  8
0
 10
114.743
 20
1319.86
 11
115.226
 21
1319.8
  0
LINE
  8
0
 10
115.226
 20
1319.8
 11
115.697
 21
1319.68
  0
LINE
  8
0
 10
115.697
 20
1319.68
 11
116.149
 21
1319.5
  0
LINE
  8
0
 10
116.149
 20
1319.5
 11
116.575
 21
1319.27
  0
LINE
  8
0
 10
116.575
 20
1319.27
 11
116.969
 21
1318.98
  0
LINE
  8
0
 10
116.969
 20
1318.98
 11
117.323
 21
1318.65
  0
LINE
  8
0
 10
117.323
 20
1318.65
 11
117.633
 21
1318.28
  0
LINE
  8
0
 10
117.633
 20
1318.28
 11
117.894
 21
1317.87
  0
LINE
  8
0
 10
117.894
 20
1317.87
 11
118.101
 21
1317.43
  0
LINE
  8
0
 10
118.101
 20
1317.43
 11
118.251
 21
1316.96
  0
LINE
  8
0
 10
118.251
 20
1316.96
 11
118.342
 21
1316.49
  0
LINE
  8
0
 10
118.342
 20
1316.49
 11
118.373
 21
1316
  0
LINE
  8
0
 10
118.373
 20
1316
 11
118.373
 21
1132
  0
LINE
  8
0
 10
118.373
 20
1132
 11
118.342
 21
1131.51
  0
LINE
  8
0
 10
118.342
 20
1131.51
 11
118.251
 21
1131.04
  0
LINE
  8
0
 10
118.251
 20
1131.04
 11
118.101
 21
1130.57
  0
LINE
  8
0
 10
118.101
 20
1130.57
 11
117.894
 21
1130.13
  0
LINE
  8
0
 10
117.894
 20
1130.13
 11
117.633
 21
1129.72
  0
LINE
  8
0
 10
117.633
 20
1129.72
 11
117.323
 21
1129.35
  0
LINE
  8
0
 10
117.323
 20
1129.35
 11
116.969
 21
1129.02
  0
LINE
  8
0
 10
116.969
 20
1129.02
 11
116.575
 21
1128.73
  0
LINE
  8
0
 10
116.575
 20
1128.73
 11
116.149
 21
1128.5
  0
LINE
  8
0
 10
116.149
 20
1128.5
 11
115.697
 21
1128.32
  0
LINE
  8
0
 10
115.697
 20
1128.32
 11
115.226
 21
1128.2
  0
LINE
  8
0
 10
115.226
 20
1128.2
 11
114.743
 21
1128.14
  0
LINE
  8
0
 10
114.743
 20
1128.14
 11
-114.743
 21
1128.14
  0
LINE
  8
0
 10
115.937
 20
922.589
 11
116.545
 21
922.745
  0
LINE
  8
0
 10
116.545
 20
922.745
 11
117.129
 21
922.976
  0
LINE
  8
0
 10
117.129
 20
922.976
 11
117.679
 21
923.278
  0
LINE
  8
0
 10
117.679
 20
923.278
 11
118.187
 21
923.647
  0
LINE
  8
0
 10
118.187
 20
923.647
 11
118.645
 21
924.077
  0
LINE
  8
0
 10
118.645
 20
924.077
 11
119.045
 21
924.561
  0
LINE
  8
0
 10
119.045
 20
924.561
 11
119.382
 21
925.091
  0
LINE
  8
0
 10
119.382
 20
925.091
 11
119.649
 21
925.659
  0
LINE
  8
0
 10
119.649
 20
925.659
 11
119.843
 21
926.257
  0
LINE
  8
0
 10
119.843
 20
926.257
 11
119.961
 21
926.873
  0
LINE
  8
0
 10
119.961
 20
926.873
 11
120
 21
927.5
  0
LINE
  8
0
 10
120
 20
927.5
 11
120
 21
1112.5
  0
LINE
  8
0
 10
120
 20
1112.5
 11
119.961
 21
1113.13
  0
LINE
  8
0
 10
119.961
 20
1113.13
 11
119.843
 21
1113.74
  0
LINE
  8
0
 10
119.843
 20
1113.74
 11
119.649
 21
1114.34
  0
LINE
  8
0
 10
119.649
 20
1114.34
 11
119.382
 21
1114.91
  0
LINE
  8
0
 10
119.382
 20
1114.91
 11
119.045
 21
1115.44
  0
LINE
  8
0
 10
119.045
 20
1115.44
 11
118.645
 21
1115.92
  0
LINE
  8
0
 10
118.645
 20
1115.92
 11
118.187
 21
1116.35
  0
LINE
  8
0
 10
118.187
 20
1116.35
 11
117.679
 21
1116.72
  0
LINE
  8
0
 10
117.679
 20
1116.72
 11
117.129
 21
1117.02
  0
LINE
  8
0
 10
117.129
 20
1117.02
 11
116.545
 21
1117.26
  0
LINE
  8
0
 10
116.545
 20
1117.26
 11
115.937
 21
1117.41
  0
LINE
  8
0
 10
115.937
 20
1117.41
 11
115.314
 21
1117.49
  0
LINE
  8
0
 10
115.314
 20
1117.49
 11
-115.314
 21
1117.49
  0
LINE
  8
0
 10
-115.314
 20
1117.49
 11
-115.937
 21
1117.41
  0
LINE
  8
0
 10
-115.937
 20
1117.41
 11
-116.545
 21
1117.26
  0
LINE
  8
0
 10
-116.545
 20
1117.26
 11
-117.129
 21
1117.02
  0
LINE
  8
0
 10
-117.129
 20
1117.02
 11
-117.679
 21
1116.72
  0
LINE
  8
0
 10
-117.679
 20
1116.72
 11
-118.187
 21
1116.35
  0
LINE
  8
0
 10
-118.187
 20
1116.35
 11
-118.5
 21
1116.06
  0
LINE
  8
0
 10
-118.5
 20
1116.06
 11
-118.5
 21
1117.11
  0
LINE
  8
0
 10
-118.5
 20
1117.11
 11
-121.5
 21
1117.11
  0
LINE
  8
0
 10
-121.5
 20
1117.11
 11
-121.5
 21
922.885
  0
LINE
  8
0
 10
-121.5
 20
922.885
 11
-118.5
 21
922.885
  0
LINE
  8
0
 10
-118.5
 20
922.885
 11
-118.5
 21
923.941
  0
LINE
  8
0
 10
-118.5
 20
923.941
 11
-118.187
 21
923.647
  0
LINE
  8
0
 10
-118.187
 20
923.647
 11
-117.679
 21
923.278
  0
LINE
  8
0
 10
-117.679
 20
923.278
 11
-117.129
 21
922.976
  0
LINE
  8
0
 10
-117.129
 20
922.976
 11
-116.545
 21
922.745
  0
LINE
  8
0
 10
-116.545
 20
922.745
 11
-115.937
 21
922.589
  0
LINE
  8
0
 10
-115.937
 20
922.589
 11
-115.314
 21
922.51
  0
LINE
  8
0
 10
-115.314
 20
922.51
 11
115.314
 21
922.51
  0
LINE
  8
0
 10
115.314
 20
922.51
 11
115.937
 21
922.589
  0
LINE
  8
0
 10
112.349
 20
1107.6
 11
112.05
 21
1107.64
  0
LINE
  8
0
 10
112.05
 20
1107.64
 11
111.758
 21
1107.72
  0
LINE
  8
0
 10
111.758
 20
1107.72
 11
111.478
 21
1107.83
  0
LINE
  8
0
 10
111.478
 20
1107.83
 11
111.214
 21
1107.97
  0
LINE
  8
0
 10
111.214
 20
1107.97
 11
110.97
 21
1108.15
  0
LINE
  8
0
 10
110.97
 20
1108.15
 11
110.75
 21
1108.36
  0
LINE
  8
0
 10
110.75
 20
1108.36
 11
110.558
 21
1108.59
  0
LINE
  8
0
 10
110.558
 20
1108.59
 11
110.397
 21
1108.84
  0
LINE
  8
0
 10
110.397
 20
1108.84
 11
110.269
 21
1109.12
  0
LINE
  8
0
 10
110.269
 20
1109.12
 11
110.175
 21
1109.4
  0
LINE
  8
0
 10
110.175
 20
1109.4
 11
110.119
 21
1109.7
  0
LINE
  8
0
 10
110.119
 20
1109.7
 11
110.1
 21
1110
  0
LINE
  8
0
 10
110.1
 20
1110
 11
110.119
 21
1110.3
  0
LINE
  8
0
 10
110.119
 20
1110.3
 11
110.175
 21
1110.6
  0
LINE
  8
0
 10
110.175
 20
1110.6
 11
110.269
 21
1110.88
  0
LINE
  8
0
 10
110.269
 20
1110.88
 11
110.397
 21
1111.16
  0
LINE
  8
0
 10
110.397
 20
1111.16
 11
110.558
 21
1111.41
  0
LINE
  8
0
 10
110.558
 20
1111.41
 11
110.75
 21
1111.64
  0
LINE
  8
0
 10
110.75
 20
1111.64
 11
110.97
 21
1111.85
  0
LINE
  8
0
 10
110.97
 20
1111.85
 11
111.214
 21
1112.03
  0
LINE
  8
0
 10
111.214
 20
1112.03
 11
111.478
 21
1112.17
  0
LINE
  8
0
 10
111.478
 20
1112.17
 11
111.758
 21
1112.28
  0
LINE
  8
0
 10
111.758
 20
1112.28
 11
112.05
 21
1112.36
  0
LINE
  8
0
 10
112.05
 20
1112.36
 11
112.349
 21
1112.4
  0
LINE
  8
0
 10
112.349
 20
1112.4
 11
112.651
 21
1112.4
  0
LINE
  8
0
 10
112.651
 20
1112.4
 11
112.95
 21
1112.36
  0
LINE
  8
0
 10
112.95
 20
1112.36
 11
113.242
 21
1112.28
  0
LINE
  8
0
 10
113.242
 20
1112.28
 11
113.522
 21
1112.17
  0
LINE
  8
0
 10
113.522
 20
1112.17
 11
113.786
 21
1112.03
  0
LINE
  8
0
 10
113.786
 20
1112.03
 11
114.03
 21
1111.85
  0
LINE
  8
0
 10
114.03
 20
1111.85
 11
114.25
 21
1111.64
  0
LINE
  8
0
 10
114.25
 20
1111.64
 11
114.442
 21
1111.41
  0
LINE
  8
0
 10
114.442
 20
1111.41
 11
114.603
 21
1111.16
  0
LINE
  8
0
 10
114.603
 20
1111.16
 11
114.731
 21
1110.88
  0
LINE
  8
0
 10
114.731
 20
1110.88
 11
114.825
 21
1110.6
  0
LINE
  8
0
 10
114.825
 20
1110.6
 11
114.881
 21
1110.3
  0
LINE
  8
0
 10
114.881
 20
1110.3
 11
114.9
 21
1110
  0
LINE
  8
0
 10
114.9
 20
1110
 11
114.881
 21
1109.7
  0
LINE
  8
0
 10
114.881
 20
1109.7
 11
114.825
 21
1109.4
  0
LINE
  8
0
 10
114.825
 20
1109.4
 11
114.731
 21
1109.12
  0
LINE
  8
0
 10
114.731
 20
1109.12
 11
114.603
 21
1108.84
  0
LINE
  8
0
 10
114.603
 20
1108.84
 11
114.442
 21
1108.59
  0
LINE
  8
0
 10
114.442
 20
1108.59
 11
114.25
 21
1108.36
  0
LINE
  8
0
 10
114.25
 20
1108.36
 11
114.03
 21
1108.15
  0
LINE
  8
0
 10
114.03
 20
1108.15
 11
113.786
 21
1107.97
  0
LINE
  8
0
 10
113.786
 20
1107.97
 11
113.522
 21
1107.83
  0
LINE
  8
0
 10
113.522
 20
1107.83
 11
113.242
 21
1107.72
  0
LINE
  8
0
 10
113.242
 20
1107.72
 11
112.95
 21
1107.64
  0
LINE
  8
0
 10
112.95
 20
1107.64
 11
112.651
 21
1107.6
  0
LINE
  8
0
 10
112.651
 20
1107.6
 11
112.349
 21
1107.6
  0
LINE
  8
0
 10
-112.651
 20
1107.6
 11
-112.95
 21
1107.64
  0
LINE
  8
0
 10
-112.95
 20
1107.64
 11
-113.242
 21
1107.72
  0
LINE
  8
0
 10
-113.242
 20
1107.72
 11
-113.522
 21
1107.83
  0
LINE
  8
0
 10
-113.522
 20
1107.83
 11
-113.786
 21
1107.97
  0
LINE
  8
0
 10
-113.786
 20
1107.97
 11
-114.03
 21
1108.15
  0
LINE
  8
0
 10
-114.03
 20
1108.15
 11
-114.25
 21
1108.36
  0
LINE
  8
0
 10
-114.25
 20
1108.36
 11
-114.442
 21
1108.59
  0
LINE
  8
0
 10
-114.442
 20
1108.59
 11
-114.603
 21
1108.84
  0
LINE
  8
0
 10
-114.603
 20
1108.84
 11
-114.731
 21
1109.12
  0
LINE
  8
0
 10
-114.731
 20
1109.12
 11
-114.825
 21
1109.4
  0
LINE
  8
0
 10
-114.825
 20
1109.4
 11
-114.881
 21
1109.7
  0
LINE
  8
0
 10
-114.881
 20
1109.7
 11
-114.9
 21
1110
  0
LINE
  8
0
 10
-114.9
 20
1110
 11
-114.881
 21
1110.3
  0
LINE
  8
0
 10
-114.881
 20
1110.3
 11
-114.825
 21
1110.6
  0
LINE
  8
0
 10
-114.825
 20
1110.6
 11
-114.731
 21
1110.88
  0
LINE
  8
0
 10
-114.731
 20
1110.88
 11
-114.603
 21
1111.16
  0
LINE
  8
0
 10
-114.603
 20
1111.16
 11
-114.442
 21
1111.41
  0
LINE
  8
0
 10
-114.442
 20
1111.41
 11
-114.25
 21
1111.64
  0
LINE
  8
0
 10
-114.25
 20
1111.64
 11
-114.03
 21
1111.85
  0
LINE
  8
0
 10
-114.03
 20
1111.85
 11
-113.786
 21
1112.03
  0
LINE
  8
0
 10
-113.786
 20
1112.03
 11
-113.522
 21
1112.17
  0
LINE
  8
0
 10
-113.522
 20
1112.17
 11
-113.242
 21
1112.28
  0
LINE
  8
0
 10
-113.242
 20
1112.28
 11
-112.95
 21
1112.36
  0
LINE
  8
0
 10
-112.95
 20
1112.36
 11
-112.651
 21
1112.4
  0
LINE
  8
0
 10
-112.651
 20
1112.4
 11
-112.349
 21
1112.4
  0
LINE
  8
0
 10
-112.349
 20
1112.4
 11
-112.05
 21
1112.36
  0
LINE
  8
0
 10
-112.05
 20
1112.36
 11
-111.758
 21
1112.28
  0
LINE
  8
0
 10
-111.758
 20
1112.28
 11
-111.478
 21
1112.17
  0
LINE
  8
0
 10
-111.478
 20
1112.17
 11
-111.214
 21
1112.03
  0
LINE
  8
0
 10
-111.214
 20
1112.03
 11
-110.97
 21
1111.85
  0
LINE
  8
0
 10
-110.97
 20
1111.85
 11
-110.75
 21
1111.64
  0
LINE
  8
0
 10
-110.75
 20
1111.64
 11
-110.558
 21
1111.41
  0
LINE
  8
0
 10
-110.558
 20
1111.41
 11
-110.397
 21
1111.16
  0
LINE
  8
0
 10
-110.397
 20
1111.16
 11
-110.269
 21
1110.88
  0
LINE
  8
0
 10
-110.269
 20
1110.88
 11
-110.175
 21
1110.6
  0
LINE
  8
0
 10
-110.175
 20
1110.6
 11
-110.119
 21
1110.3
  0
LINE
  8
0
 10
-110.119
 20
1110.3
 11
-110.1
 21
1110
  0
LINE
  8
0
 10
-110.1
 20
1110
 11
-110.119
 21
1109.7
  0
LINE
  8
0
 10
-110.119
 20
1109.7
 11
-110.175
 21
1109.4
  0
LINE
  8
0
 10
-110.175
 20
1109.4
 11
-110.269
 21
1109.12
  0
LINE
  8
0
 10
-110.269
 20
1109.12
 11
-110.397
 21
1108.84
  0
LINE
  8
0
 10
-110.397
 20
1108.84
 11
-110.558
 21
1108.59
  0
LINE
  8
0
 10
-110.558
 20
1108.59
 11
-110.75
 21
1108.36
  0
LINE
  8
0
 10
-110.75
 20
1108.36
 11
-110.97
 21
1108.15
  0
LINE
  8
0
 10
-110.97
 20
1108.15
 11
-111.214
 21
1107.97
  0
LINE
  8
0
 10
-111.214
 20
1107.97
 11
-111.478
 21
1107.83
  0
LINE
  8
0
 10
-111.478
 20
1107.83
 11
-111.758
 21
1107.72
  0
LINE
  8
0
 10
-111.758
 20
1107.72
 11
-112.05
 21
1107.64
  0
LINE
  8
0
 10
-112.05
 20
1107.64
 11
-112.349
 21
1107.6
  0
LINE
  8
0
 10
-112.349
 20
1107.6
 11
-112.651
 21
1107.6
  0
LINE
  8
0
 10
-112.651
 20
927.605
 11
-112.95
 21
927.643
  0
LINE
  8
0
 10
-112.95
 20
927.643
 11
-113.242
 21
927.717
  0
LINE
  8
0
 10
-113.242
 20
927.717
 11
-113.522
 21
927.828
  0
LINE
  8
0
 10
-113.522
 20
927.828
 11
-113.786
 21
927.974
  0
LINE
  8
0
 10
-113.786
 20
927.974
 11
-114.03
 21
928.151
  0
LINE
  8
0
 10
-114.03
 20
928.151
 11
-114.25
 21
928.357
  0
LINE
  8
0
 10
-114.25
 20
928.357
 11
-114.442
 21
928.589
  0
LINE
  8
0
 10
-114.442
 20
928.589
 11
-114.603
 21
928.844
  0
LINE
  8
0
 10
-114.603
 20
928.844
 11
-114.731
 21
929.117
  0
LINE
  8
0
 10
-114.731
 20
929.117
 11
-114.825
 21
929.403
  0
LINE
  8
0
 10
-114.825
 20
929.403
 11
-114.881
 21
929.699
  0
LINE
  8
0
 10
-114.881
 20
929.699
 11
-114.9
 21
930
  0
LINE
  8
0
 10
-114.9
 20
930
 11
-114.881
 21
930.301
  0
LINE
  8
0
 10
-114.881
 20
930.301
 11
-114.825
 21
930.597
  0
LINE
  8
0
 10
-114.825
 20
930.597
 11
-114.731
 21
930.883
  0
LINE
  8
0
 10
-114.731
 20
930.883
 11
-114.603
 21
931.156
  0
LINE
  8
0
 10
-114.603
 20
931.156
 11
-114.442
 21
931.411
  0
LINE
  8
0
 10
-114.442
 20
931.411
 11
-114.25
 21
931.643
  0
LINE
  8
0
 10
-114.25
 20
931.643
 11
-114.03
 21
931.849
  0
LINE
  8
0
 10
-114.03
 20
931.849
 11
-113.786
 21
932.026
  0
LINE
  8
0
 10
-113.786
 20
932.026
 11
-113.522
 21
932.172
  0
LINE
  8
0
 10
-113.522
 20
932.172
 11
-113.242
 21
932.283
  0
LINE
  8
0
 10
-113.242
 20
932.283
 11
-112.95
 21
932.357
  0
LINE
  8
0
 10
-112.95
 20
932.357
 11
-112.651
 21
932.395
  0
LINE
  8
0
 10
-112.651
 20
932.395
 11
-112.349
 21
932.395
  0
LINE
  8
0
 10
-112.349
 20
932.395
 11
-112.05
 21
932.357
  0
LINE
  8
0
 10
-112.05
 20
932.357
 11
-111.758
 21
932.283
  0
LINE
  8
0
 10
-111.758
 20
932.283
 11
-111.478
 21
932.172
  0
LINE
  8
0
 10
-111.478
 20
932.172
 11
-111.214
 21
932.026
  0
LINE
  8
0
 10
-111.214
 20
932.026
 11
-110.97
 21
931.849
  0
LINE
  8
0
 10
-110.97
 20
931.849
 11
-110.75
 21
931.643
  0
LINE
  8
0
 10
-110.75
 20
931.643
 11
-110.558
 21
931.411
  0
LINE
  8
0
 10
-110.558
 20
931.411
 11
-110.397
 21
931.156
  0
LINE
  8
0
 10
-110.397
 20
931.156
 11
-110.269
 21
930.883
  0
LINE
  8
0
 10
-110.269
 20
930.883
 11
-110.175
 21
930.597
  0
LINE
  8
0
 10
-110.175
 20
930.597
 11
-110.119
 21
930.301
  0
LINE
  8
0
 10
-110.119
 20
930.301
 11
-110.1
 21
930
  0
LINE
  8
0
 10
-110.1
 20
930
 11
-110.119
 21
929.699
  0
LINE
  8
0
 10
-110.119
 20
929.699
 11
-110.175
 21
929.403
  0
LINE
  8
0
 10
-110.175
 20
929.403
 11
-110.269
 21
929.117
  0
LINE
  8
0
 10
-110.269
 20
929.117
 11
-110.397
 21
928.844
  0
LINE
  8
0
 10
-110.397
 20
928.844
 11
-110.558
 21
928.589
  0
LINE
  8
0
 10
-110.558
 20
928.589
 11
-110.75
 21
928.357
  0
LINE
  8
0
 10
-110.75
 20
928.357
 11
-110.97
 21
928.151
  0
LINE
  8
0
 10
-110.97
 20
928.151
 11
-111.214
 21
927.974
  0
LINE
  8
0
 10
-111.214
 20
927.974
 11
-111.478
 21
927.828
  0
LINE
  8
0
 10
-111.478
 20
927.828
 11
-111.758
 21
927.717
  0
LINE
  8
0
 10
-111.758
 20
927.717
 11
-112.05
 21
927.643
  0
LINE
  8
0
 10
-112.05
 20
927.643
 11
-112.349
 21
927.605
  0
LINE
  8
0
 10
-112.349
 20
927.605
 11
-112.651
 21
927.605
  0
LINE
  8
0
 10
112.349
 20
927.605
 11
112.05
 21
927.643
  0
LINE
  8
0
 10
112.05
 20
927.643
 11
111.758
 21
927.717
  0
LINE
  8
0
 10
111.758
 20
927.717
 11
111.478
 21
927.828
  0
LINE
  8
0
 10
111.478
 20
927.828
 11
111.214
 21
927.974
  0
LINE
  8
0
 10
111.214
 20
927.974
 11
110.97
 21
928.151
  0
LINE
  8
0
 10
110.97
 20
928.151
 11
110.75
 21
928.357
  0
LINE
  8
0
 10
110.75
 20
928.357
 11
110.558
 21
928.589
  0
LINE
  8
0
 10
110.558
 20
928.589
 11
110.397
 21
928.844
  0
LINE
  8
0
 10
110.397
 20
928.844
 11
110.269
 21
929.117
  0
LINE
  8
0
 10
110.269
 20
929.117
 11
110.175
 21
929.403
  0
LINE
  8
0
 10
110.175
 20
929.403
 11
110.119
 21
929.699
  0
LINE
  8
0
 10
110.119
 20
929.699
 11
110.1
 21
930
  0
LINE
  8
0
 10
110.1
 20
930
 11
110.119
 21
930.301
  0
LINE
  8
0
 10
110.119
 20
930.301
 11
110.175
 21
930.597
  0
LINE
  8
0
 10
110.175
 20
930.597
 11
110.269
 21
930.883
  0
LINE
  8
0
 10
110.269
 20
930.883
 11
110.397
 21
931.156
  0
LINE
  8
0
 10
110.397
 20
931.156
 11
110.558
 21
931.411
  0
LINE
  8
0
 10
110.558
 20
931.411
 11
110.75
 21
931.643
  0
LINE
  8
0
 10
110.75
 20
931.643
 11
110.97
 21
931.849
  0
LINE
  8
0
 10
110.97
 20
931.849
 11
111.214
 21
932.026
  0
LINE
  8
0
 10
111.214
 20
932.026
 11
111.478
 21
932.172
  0
LINE
  8
0
 10
111.478
 20
932.172
 11
111.758
 21
932.283
  0
LINE
  8
0
 10
111.758
 20
932.283
 11
112.05
 21
932.357
  0
LINE
  8
0
 10
112.05
 20
932.357
 11
112.349
 21
932.395
  0
LINE
  8
0
 10
112.349
 20
932.395
 11
112.651
 21
932.395
  0
LINE
  8
0
 10
112.651
 20
932.395
 11
112.95
 21
932.357
  0
LINE
  8
0
 10
112.95
 20
932.357
 11
113.242
 21
932.283
  0
LINE
  8
0
 10
113.242
 20
932.283
 11
113.522
 21
932.172
  0
LINE
  8
0
 10
113.522
 20
932.172
 11
113.786
 21
932.026
  0
LINE
  8
0
 10
113.786
 20
932.026
 11
114.03
 21
931.849
  0
LINE
  8
0
 10
114.03
 20
931.849
 11
114.25
 21
931.643
  0
LINE
  8
0
 10
114.25
 20
931.643
 11
114.442
 21
931.411
  0
LINE
  8
0
 10
114.442
 20
931.411
 11
114.603
 21
931.156
  0
LINE
  8
0
 10
114.603
 20
931.156
 11
114.731
 21
930.883
  0
LINE
  8
0
 10
114.731
 20
930.883
 11
114.825
 21
930.597
  0
LINE
  8
0
 10
114.825
 20
930.597
 11
114.881
 21
930.301
  0
LINE
  8
0
 10
114.881
 20
930.301
 11
114.9
 21
930
  0
LINE
  8
0
 10
114.9
 20
930
 11
114.881
 21
929.699
  0
LINE
  8
0
 10
114.881
 20
929.699
 11
114.825
 21
929.403
  0
LINE
  8
0
 10
114.825
 20
929.403
 11
114.731
 21
929.117
  0
LINE
  8
0
 10
114.731
 20
929.117
 11
114.603
 21
928.844
  0
LINE
  8
0
 10
114.603
 20
928.844
 11
114.442
 21
928.589
  0
LINE
  8
0
 10
114.442
 20
928.589
 11
114.25
 21
928.357
  0
LINE
  8
0
 10
114.25
 20
928.357
 11
114.03
 21
928.151
  0
LINE
  8
0
 10
114.03
 20
928.151
 11
113.786
 21
927.974
  0
LINE
  8
0
 10
113.786
 20
927.974
 11
113.522
 21
927.828
  0
LINE
  8
0
 10
113.522
 20
927.828
 11
113.242
 21
927.717
  0
LINE
  8
0
 10
113.242
 20
927.717
 11
112.95
 21
927.643
  0
LINE
  8
0
 10
112.95
 20
927.643
 11
112.651
 21
927.605
  0
LINE
  8
0
 10
112.651
 20
927.605
 11
112.349
 21
927.605
  0
LINE
  8
0
 10
115.937
 20
718.589
 11
116.545
 21
718.745
  0
LINE
  8
0
 10
116.545
 20
718.745
 11
117.129
 21
718.976
  0
LINE
  8
0
 10
117.129
 20
718.976
 11
117.679
 21
719.278
  0
LINE
  8
0
 10
117.679
 20
719.278
 11
118.187
 21
719.647
  0
LINE
  8
0
 10
118.187
 20
719.647
 11
118.645
 21
720.077
  0
LINE
  8
0
 10
118.645
 20
720.077
 11
119.045
 21
720.561
  0
LINE
  8
0
 10
119.045
 20
720.561
 11
119.382
 21
721.091
  0
LINE
  8
0
 10
119.382
 20
721.091
 11
119.649
 21
721.659
  0
LINE
  8
0
 10
119.649
 20
721.659
 11
119.843
 21
722.257
  0
LINE
  8
0
 10
119.843
 20
722.257
 11
119.961
 21
722.873
  0
LINE
  8
0
 10
119.961
 20
722.873
 11
120
 21
723.5
  0
LINE
  8
0
 10
120
 20
723.5
 11
120
 21
908.5
  0
LINE
  8
0
 10
120
 20
908.5
 11
119.961
 21
909.127
  0
LINE
  8
0
 10
119.961
 20
909.127
 11
119.843
 21
909.743
  0
LINE
  8
0
 10
119.843
 20
909.743
 11
119.649
 21
910.341
  0
LINE
  8
0
 10
119.649
 20
910.341
 11
119.382
 21
910.909
  0
LINE
  8
0
 10
119.382
 20
910.909
 11
119.045
 21
911.439
  0
LINE
  8
0
 10
119.045
 20
911.439
 11
118.645
 21
911.923
  0
LINE
  8
0
 10
118.645
 20
911.923
 11
118.187
 21
912.353
  0
LINE
  8
0
 10
118.187
 20
912.353
 11
117.679
 21
912.722
  0
LINE
  8
0
 10
117.679
 20
912.722
 11
117.129
 21
913.024
  0
LINE
  8
0
 10
117.129
 20
913.024
 11
116.545
 21
913.255
  0
LINE
  8
0
 10
116.545
 20
913.255
 11
115.937
 21
913.411
  0
LINE
  8
0
 10
115.937
 20
913.411
 11
115.314
 21
913.49
  0
LINE
  8
0
 10
115.314
 20
913.49
 11
-115.314
 21
913.49
  0
LINE
  8
0
 10
-115.314
 20
913.49
 11
-115.937
 21
913.411
  0
LINE
  8
0
 10
-115.937
 20
913.411
 11
-116.545
 21
913.255
  0
LINE
  8
0
 10
-116.545
 20
913.255
 11
-117.129
 21
913.024
  0
LINE
  8
0
 10
-117.129
 20
913.024
 11
-117.679
 21
912.722
  0
LINE
  8
0
 10
-117.679
 20
912.722
 11
-118.187
 21
912.353
  0
LINE
  8
0
 10
-118.187
 20
912.353
 11
-118.645
 21
911.923
  0
LINE
  8
0
 10
-118.645
 20
911.923
 11
-119.045
 21
911.439
  0
LINE
  8
0
 10
-119.045
 20
911.439
 11
-119.382
 21
910.909
  0
LINE
  8
0
 10
-119.382
 20
910.909
 11
-119.649
 21
910.341
  0
LINE
  8
0
 10
-119.649
 20
910.341
 11
-119.843
 21
909.743
  0
LINE
  8
0
 10
-119.843
 20
909.743
 11
-119.9
 21
909.444
  0
LINE
  8
0
 10
-119.9
 20
909.444
 11
-121.5
 21
909.444
  0
LINE
  8
0
 10
-121.5
 20
909.444
 11
-121.5
 21
722.556
  0
LINE
  8
0
 10
-121.5
 20
722.556
 11
-119.9
 21
722.556
  0
LINE
  8
0
 10
-119.9
 20
722.556
 11
-119.843
 21
722.257
  0
LINE
  8
0
 10
-119.843
 20
722.257
 11
-119.649
 21
721.659
  0
LINE
  8
0
 10
-119.649
 20
721.659
 11
-119.382
 21
721.091
  0
LINE
  8
0
 10
-119.382
 20
721.091
 11
-119.045
 21
720.561
  0
LINE
  8
0
 10
-119.045
 20
720.561
 11
-118.645
 21
720.077
  0
LINE
  8
0
 10
-118.645
 20
720.077
 11
-118.187
 21
719.647
  0
LINE
  8
0
 10
-118.187
 20
719.647
 11
-117.679
 21
719.278
  0
LINE
  8
0
 10
-117.679
 20
719.278
 11
-117.129
 21
718.976
  0
LINE
  8
0
 10
-117.129
 20
718.976
 11
-116.545
 21
718.745
  0
LINE
  8
0
 10
-116.545
 20
718.745
 11
-115.937
 21
718.589
  0
LINE
  8
0
 10
-115.937
 20
718.589
 11
-115.314
 21
718.51
  0
LINE
  8
0
 10
-115.314
 20
718.51
 11
115.314
 21
718.51
  0
LINE
  8
0
 10
115.314
 20
718.51
 11
115.937
 21
718.589
  0
LINE
  8
0
 10
-112.613
 20
904.204
 11
-112.837
 21
904.232
  0
LINE
  8
0
 10
-112.837
 20
904.232
 11
-113.056
 21
904.288
  0
LINE
  8
0
 10
-113.056
 20
904.288
 11
-113.266
 21
904.371
  0
LINE
  8
0
 10
-113.266
 20
904.371
 11
-113.464
 21
904.48
  0
LINE
  8
0
 10
-113.464
 20
904.48
 11
-113.647
 21
904.613
  0
LINE
  8
0
 10
-113.647
 20
904.613
 11
-113.812
 21
904.768
  0
LINE
  8
0
 10
-113.812
 20
904.768
 11
-113.956
 21
904.942
  0
LINE
  8
0
 10
-113.956
 20
904.942
 11
-114.077
 21
905.133
  0
LINE
  8
0
 10
-114.077
 20
905.133
 11
-114.174
 21
905.337
  0
LINE
  8
0
 10
-114.174
 20
905.337
 11
-114.243
 21
905.552
  0
LINE
  8
0
 10
-114.243
 20
905.552
 11
-114.286
 21
905.774
  0
LINE
  8
0
 10
-114.286
 20
905.774
 11
-114.3
 21
906
  0
LINE
  8
0
 10
-114.3
 20
906
 11
-114.286
 21
906.226
  0
LINE
  8
0
 10
-114.286
 20
906.226
 11
-114.243
 21
906.448
  0
LINE
  8
0
 10
-114.243
 20
906.448
 11
-114.174
 21
906.663
  0
LINE
  8
0
 10
-114.174
 20
906.663
 11
-114.077
 21
906.867
  0
LINE
  8
0
 10
-114.077
 20
906.867
 11
-113.956
 21
907.058
  0
LINE
  8
0
 10
-113.956
 20
907.058
 11
-113.812
 21
907.232
  0
LINE
  8
0
 10
-113.812
 20
907.232
 11
-113.647
 21
907.387
  0
LINE
  8
0
 10
-113.647
 20
907.387
 11
-113.464
 21
907.52
  0
LINE
  8
0
 10
-113.464
 20
907.52
 11
-113.266
 21
907.629
  0
LINE
  8
0
 10
-113.266
 20
907.629
 11
-113.056
 21
907.712
  0
LINE
  8
0
 10
-113.056
 20
907.712
 11
-112.837
 21
907.768
  0
LINE
  8
0
 10
-112.837
 20
907.768
 11
-112.613
 21
907.796
  0
LINE
  8
0
 10
-112.613
 20
907.796
 11
-112.387
 21
907.796
  0
LINE
  8
0
 10
-112.387
 20
907.796
 11
-112.163
 21
907.768
  0
LINE
  8
0
 10
-112.163
 20
907.768
 11
-111.944
 21
907.712
  0
LINE
  8
0
 10
-111.944
 20
907.712
 11
-111.734
 21
907.629
  0
LINE
  8
0
 10
-111.734
 20
907.629
 11
-111.536
 21
907.52
  0
LINE
  8
0
 10
-111.536
 20
907.52
 11
-111.353
 21
907.387
  0
LINE
  8
0
 10
-111.353
 20
907.387
 11
-111.188
 21
907.232
  0
LINE
  8
0
 10
-111.188
 20
907.232
 11
-111.044
 21
907.058
  0
LINE
  8
0
 10
-111.044
 20
907.058
 11
-110.923
 21
906.867
  0
LINE
  8
0
 10
-110.923
 20
906.867
 11
-110.826
 21
906.663
  0
LINE
  8
0
 10
-110.826
 20
906.663
 11
-110.757
 21
906.448
  0
LINE
  8
0
 10
-110.757
 20
906.448
 11
-110.714
 21
906.226
  0
LINE
  8
0
 10
-110.714
 20
906.226
 11
-110.7
 21
906
  0
LINE
  8
0
 10
-110.7
 20
906
 11
-110.714
 21
905.774
  0
LINE
  8
0
 10
-110.714
 20
905.774
 11
-110.757
 21
905.552
  0
LINE
  8
0
 10
-110.757
 20
905.552
 11
-110.826
 21
905.337
  0
LINE
  8
0
 10
-110.826
 20
905.337
 11
-110.923
 21
905.133
  0
LINE
  8
0
 10
-110.923
 20
905.133
 11
-111.044
 21
904.942
  0
LINE
  8
0
 10
-111.044
 20
904.942
 11
-111.188
 21
904.768
  0
LINE
  8
0
 10
-111.188
 20
904.768
 11
-111.353
 21
904.613
  0
LINE
  8
0
 10
-111.353
 20
904.613
 11
-111.536
 21
904.48
  0
LINE
  8
0
 10
-111.536
 20
904.48
 11
-111.734
 21
904.371
  0
LINE
  8
0
 10
-111.734
 20
904.371
 11
-111.944
 21
904.288
  0
LINE
  8
0
 10
-111.944
 20
904.288
 11
-112.163
 21
904.232
  0
LINE
  8
0
 10
-112.163
 20
904.232
 11
-112.387
 21
904.204
  0
LINE
  8
0
 10
-112.387
 20
904.204
 11
-112.613
 21
904.204
  0
LINE
  8
0
 10
112.387
 20
904.204
 11
112.163
 21
904.232
  0
LINE
  8
0
 10
112.163
 20
904.232
 11
111.944
 21
904.288
  0
LINE
  8
0
 10
111.944
 20
904.288
 11
111.734
 21
904.371
  0
LINE
  8
0
 10
111.734
 20
904.371
 11
111.536
 21
904.48
  0
LINE
  8
0
 10
111.536
 20
904.48
 11
111.353
 21
904.613
  0
LINE
  8
0
 10
111.353
 20
904.613
 11
111.188
 21
904.768
  0
LINE
  8
0
 10
111.188
 20
904.768
 11
111.044
 21
904.942
  0
LINE
  8
0
 10
111.044
 20
904.942
 11
110.923
 21
905.133
  0
LINE
  8
0
 10
110.923
 20
905.133
 11
110.826
 21
905.337
  0
LINE
  8
0
 10
110.826
 20
905.337
 11
110.757
 21
905.552
  0
LINE
  8
0
 10
110.757
 20
905.552
 11
110.714
 21
905.774
  0
LINE
  8
0
 10
110.714
 20
905.774
 11
110.7
 21
906
  0
LINE
  8
0
 10
110.7
 20
906
 11
110.714
 21
906.226
  0
LINE
  8
0
 10
110.714
 20
906.226
 11
110.757
 21
906.448
  0
LINE
  8
0
 10
110.757
 20
906.448
 11
110.826
 21
906.663
  0
LINE
  8
0
 10
110.826
 20
906.663
 11
110.923
 21
906.867
  0
LINE
  8
0
 10
110.923
 20
906.867
 11
111.044
 21
907.058
  0
LINE
  8
0
 10
111.044
 20
907.058
 11
111.188
 21
907.232
  0
LINE
  8
0
 10
111.188
 20
907.232
 11
111.353
 21
907.387
  0
LINE
  8
0
 10
111.353
 20
907.387
 11
111.536
 21
907.52
  0
LINE
  8
0
 10
111.536
 20
907.52
 11
111.734
 21
907.629
  0
LINE
  8
0
 10
111.734
 20
907.629
 11
111.944
 21
907.712
  0
LINE
  8
0
 10
111.944
 20
907.712
 11
112.163
 21
907.768
  0
LINE
  8
0
 10
112.163
 20
907.768
 11
112.387
 21
907.796
  0
LINE
  8
0
 10
112.387
 20
907.796
 11
112.613
 21
907.796
  0
LINE
  8
0
 10
112.613
 20
907.796
 11
112.837
 21
907.768
  0
LINE
  8
0
 10
112.837
 20
907.768
 11
113.056
 21
907.712
  0
LINE
  8
0
 10
113.056
 20
907.712
 11
113.266
 21
907.629
  0
LINE
  8
0
 10
113.266
 20
907.629
 11
113.464
 21
907.52
  0
LINE
  8
0
 10
113.464
 20
907.52
 11
113.647
 21
907.387
  0
LINE
  8
0
 10
113.647
 20
907.387
 11
113.812
 21
907.232
  0
LINE
  8
0
 10
113.812
 20
907.232
 11
113.956
 21
907.058
  0
LINE
  8
0
 10
113.956
 20
907.058
 11
114.077
 21
906.867
  0
LINE
  8
0
 10
114.077
 20
906.867
 11
114.174
 21
906.663
  0
LINE
  8
0
 10
114.174
 20
906.663
 11
114.243
 21
906.448
  0
LINE
  8
0
 10
114.243
 20
906.448
 11
114.286
 21
906.226
  0
LINE
  8
0
 10
114.286
 20
906.226
 11
114.3
 21
906
  0
LINE
  8
0
 10
114.3
 20
906
 11
114.286
 21
905.774
  0
LINE
  8
0
 10
114.286
 20
905.774
 11
114.243
 21
905.552
  0
LINE
  8
0
 10
114.243
 20
905.552
 11
114.174
 21
905.337
  0
LINE
  8
0
 10
114.174
 20
905.337
 11
114.077
 21
905.133
  0
LINE
  8
0
 10
114.077
 20
905.133
 11
113.956
 21
904.942
  0
LINE
  8
0
 10
113.956
 20
904.942
 11
113.812
 21
904.768
  0
LINE
  8
0
 10
113.812
 20
904.768
 11
113.647
 21
904.613
  0
LINE
  8
0
 10
113.647
 20
904.613
 11
113.464
 21
904.48
  0
LINE
  8
0
 10
113.464
 20
904.48
 11
113.266
 21
904.371
  0
LINE
  8
0
 10
113.266
 20
904.371
 11
113.056
 21
904.288
  0
LINE
  8
0
 10
113.056
 20
904.288
 11
112.837
 21
904.232
  0
LINE
  8
0
 10
112.837
 20
904.232
 11
112.613
 21
904.204
  0
LINE
  8
0
 10
112.613
 20
904.204
 11
112.387
 21
904.204
  0
LINE
  8
0
 10
-112.613
 20
724.204
 11
-112.837
 21
724.232
  0
LINE
  8
0
 10
-112.837
 20
724.232
 11
-113.056
 21
724.288
  0
LINE
  8
0
 10
-113.056
 20
724.288
 11
-113.266
 21
724.371
  0
LINE
  8
0
 10
-113.266
 20
724.371
 11
-113.464
 21
724.48
  0
LINE
  8
0
 10
-113.464
 20
724.48
 11
-113.647
 21
724.613
  0
LINE
  8
0
 10
-113.647
 20
724.613
 11
-113.812
 21
724.768
  0
LINE
  8
0
 10
-113.812
 20
724.768
 11
-113.956
 21
724.942
  0
LINE
  8
0
 10
-113.956
 20
724.942
 11
-114.077
 21
725.133
  0
LINE
  8
0
 10
-114.077
 20
725.133
 11
-114.174
 21
725.337
  0
LINE
  8
0
 10
-114.174
 20
725.337
 11
-114.243
 21
725.552
  0
LINE
  8
0
 10
-114.243
 20
725.552
 11
-114.286
 21
725.774
  0
LINE
  8
0
 10
-114.286
 20
725.774
 11
-114.3
 21
726
  0
LINE
  8
0
 10
-114.3
 20
726
 11
-114.286
 21
726.226
  0
LINE
  8
0
 10
-114.286
 20
726.226
 11
-114.243
 21
726.448
  0
LINE
  8
0
 10
-114.243
 20
726.448
 11
-114.174
 21
726.663
  0
LINE
  8
0
 10
-114.174
 20
726.663
 11
-114.077
 21
726.867
  0
LINE
  8
0
 10
-114.077
 20
726.867
 11
-113.956
 21
727.058
  0
LINE
  8
0
 10
-113.956
 20
727.058
 11
-113.812
 21
727.232
  0
LINE
  8
0
 10
-113.812
 20
727.232
 11
-113.647
 21
727.387
  0
LINE
  8
0
 10
-113.647
 20
727.387
 11
-113.464
 21
727.52
  0
LINE
  8
0
 10
-113.464
 20
727.52
 11
-113.266
 21
727.629
  0
LINE
  8
0
 10
-113.266
 20
727.629
 11
-113.056
 21
727.712
  0
LINE
  8
0
 10
-113.056
 20
727.712
 11
-112.837
 21
727.768
  0
LINE
  8
0
 10
-112.837
 20
727.768
 11
-112.613
 21
727.796
  0
LINE
  8
0
 10
-112.613
 20
727.796
 11
-112.387
 21
727.796
  0
LINE
  8
0
 10
-112.387
 20
727.796
 11
-112.163
 21
727.768
  0
LINE
  8
0
 10
-112.163
 20
727.768
 11
-111.944
 21
727.712
  0
LINE
  8
0
 10
-111.944
 20
727.712
 11
-111.734
 21
727.629
  0
LINE
  8
0
 10
-111.734
 20
727.629
 11
-111.536
 21
727.52
  0
LINE
  8
0
 10
-111.536
 20
727.52
 11
-111.353
 21
727.387
  0
LINE
  8
0
 10
-111.353
 20
727.387
 11
-111.188
 21
727.232
  0
LINE
  8
0
 10
-111.188
 20
727.232
 11
-111.044
 21
727.058
  0
LINE
  8
0
 10
-111.044
 20
727.058
 11
-110.923
 21
726.867
  0
LINE
  8
0
 10
-110.923
 20
726.867
 11
-110.826
 21
726.663
  0
LINE
  8
0
 10
-110.826
 20
726.663
 11
-110.757
 21
726.448
  0
LINE
  8
0
 10
-110.757
 20
726.448
 11
-110.714
 21
726.226
  0
LINE
  8
0
 10
-110.714
 20
726.226
 11
-110.7
 21
726
  0
LINE
  8
0
 10
-110.7
 20
726
 11
-110.714
 21
725.774
  0
LINE
  8
0
 10
-110.714
 20
725.774
 11
-110.757
 21
725.552
  0
LINE
  8
0
 10
-110.757
 20
725.552
 11
-110.826
 21
725.337
  0
LINE
  8
0
 10
-110.826
 20
725.337
 11
-110.923
 21
725.133
  0
LINE
  8
0
 10
-110.923
 20
725.133
 11
-111.044
 21
724.942
  0
LINE
  8
0
 10
-111.044
 20
724.942
 11
-111.188
 21
724.768
  0
LINE
  8
0
 10
-111.188
 20
724.768
 11
-111.353
 21
724.613
  0
LINE
  8
0
 10
-111.353
 20
724.613
 11
-111.536
 21
724.48
  0
LINE
  8
0
 10
-111.536
 20
724.48
 11
-111.734
 21
724.371
  0
LINE
  8
0
 10
-111.734
 20
724.371
 11
-111.944
 21
724.288
  0
LINE
  8
0
 10
-111.944
 20
724.288
 11
-112.163
 21
724.232
  0
LINE
  8
0
 10
-112.163
 20
724.232
 11
-112.387
 21
724.204
  0
LINE
  8
0
 10
-112.387
 20
724.204
 11
-112.613
 21
724.204
  0
LINE
  8
0
 10
112.387
 20
724.204
 11
112.163
 21
724.232
  0
LINE
  8
0
 10
112.163
 20
724.232
 11
111.944
 21
724.288
  0
LINE
  8
0
 10
111.944
 20
724.288
 11
111.734
 21
724.371
  0
LINE
  8
0
 10
111.734
 20
724.371
 11
111.536
 21
724.48
  0
LINE
  8
0
 10
111.536
 20
724.48
 11
111.353
 21
724.613
  0
LINE
  8
0
 10
111.353
 20
724.613
 11
111.188
 21
724.768
  0
LINE
  8
0
 10
111.188
 20
724.768
 11
111.044
 21
724.942
  0
LINE
  8
0
 10
111.044
 20
724.942
 11
110.923
 21
725.133
  0
LINE
  8
0
 10
110.923
 20
725.133
 11
110.826
 21
725.337
  0
LINE
  8
0
 10
110.826
 20
725.337
 11
110.757
 21
725.552
  0
LINE
  8
0
 10
110.757
 20
725.552
 11
110.714
 21
725.774
  0
LINE
  8
0
 10
110.714
 20
725.774
 11
110.7
 21
726
  0
LINE
  8
0
 10
110.7
 20
726
 11
110.714
 21
726.226
  0
LINE
  8
0
 10
110.714
 20
726.226
 11
110.757
 21
726.448
  0
LINE
  8
0
 10
110.757
 20
726.448
 11
110.826
 21
726.663
  0
LINE
  8
0
 10
110.826
 20
726.663
 11
110.923
 21
726.867
  0
LINE
  8
0
 10
110.923
 20
726.867
 11
111.044
 21
727.058
  0
LINE
  8
0
 10
111.044
 20
727.058
 11
111.188
 21
727.232
  0
LINE
  8
0
 10
111.188
 20
727.232
 11
111.353
 21
727.387
  0
LINE
  8
0
 10
111.353
 20
727.387
 11
111.536
 21
727.52
  0
LINE
  8
0
 10
111.536
 20
727.52
 11
111.734
 21
727.629
  0
LINE
  8
0
 10
111.734
 20
727.629
 11
111.944
 21
727.712
  0
LINE
  8
0
 10
111.944
 20
727.712
 11
112.163
 21
727.768
  0
LINE
  8
0
 10
112.163
 20
727.768
 11
112.387
 21
727.796
  0
LINE
  8
0
 10
112.387
 20
727.796
 11
112.613
 21
727.796
  0
LINE
  8
0
 10
112.613
 20
727.796
 11
112.837
 21
727.768
  0
LINE
  8
0
 10
112.837
 20
727.768
 11
113.056
 21
727.712
  0
LINE
  8
0
 10
113.056
 20
727.712
 11
113.266
 21
727.629
  0
LINE
  8
0
 10
113.266
 20
727.629
 11
113.464
 21
727.52
  0
LINE
  8
0
 10
113.464
 20
727.52
 11
113.647
 21
727.387
  0
LINE
  8
0
 10
113.647
 20
727.387
 11
113.812
 21
727.232
  0
LINE
  8
0
 10
113.812
 20
727.232
 11
113.956
 21
727.058
  0
LINE
  8
0
 10
113.956
 20
727.058
 11
114.077
 21
726.867
  0
LINE
  8
0
 10
114.077
 20
726.867
 11
114.174
 21
726.663
  0
LINE
  8
0
 10
114.174
 20
726.663
 11
114.243
 21
726.448
  0
LINE
  8
0
 10
114.243
 20
726.448
 11
114.286
 21
726.226
  0
LINE
  8
0
 10
114.286
 20
726.226
 11
114.3
 21
726
  0
LINE
  8
0
 10
114.3
 20
726
 11
114.286
 21
725.774
  0
LINE
  8
0
 10
114.286
 20
725.774
 11
114.243
 21
725.552
  0
LINE
  8
0
 10
114.243
 20
725.552
 11
114.174
 21
725.337
  0
LINE
  8
0
 10
114.174
 20
725.337
 11
114.077
 21
725.133
  0
LINE
  8
0
 10
114.077
 20
725.133
 11
113.956
 21
724.942
  0
LINE
  8
0
 10
113.956
 20
724.942
 11
113.812
 21
724.768
  0
LINE
  8
0
 10
113.812
 20
724.768
 11
113.647
 21
724.613
  0
LINE
  8
0
 10
113.647
 20
724.613
 11
113.464
 21
724.48
  0
LINE
  8
0
 10
113.464
 20
724.48
 11
113.266
 21
724.371
  0
LINE
  8
0
 10
113.266
 20
724.371
 11
113.056
 21
724.288
  0
LINE
  8
0
 10
113.056
 20
724.288
 11
112.837
 21
724.232
  0
LINE
  8
0
 10
112.837
 20
724.232
 11
112.613
 21
724.204
  0
LINE
  8
0
 10
112.613
 20
724.204
 11
112.387
 21
724.204
  0
ENDSEC
  0
SECTION
  2
OBJECTS
  0
DICTIONARY
  0
ENDSEC
  0
EOF
