<?xml version="1.0" standalone="no"?>
<!DOCTYPE svg PUBLIC "-//W3C//DTD SVG 1.1//EN" "http://www.w3.org/Graphics/SVG/1.1/DTD/svg11.dtd">
<svg width="240mm" height="558mm" viewBox="-120 -1035 240 558" xmlns="http://www.w3.org/2000/svg" version="1.1">
<title>OpenSCAD Model</title>
<path d="
M 115.937,-855.089 L 116.545,-855.245 L 117.129,-855.476 L 117.679,-855.778 L 118.187,-856.147 L 118.645,-856.577
 L 119.045,-857.061 L 119.382,-857.591 L 119.649,-858.159 L 119.843,-858.757 L 119.961,-859.373 L 120,-860
 L 120,-1030 L 119.961,-1030.63 L 119.843,-1031.24 L 119.649,-1031.84 L 119.382,-1032.41 L 119.045,-1032.94
 L 118.645,-1033.42 L 118.187,-1033.85 L 117.679,-1034.22 L 117.129,-1034.52 L 116.545,-1034.76 L 115.937,-1034.91
 L 115.314,-1034.99 L -115.314,-1034.99 L -115.937,-1034.91 L -116.545,-1034.76 L -117.129,-1034.52 L -117.679,-1034.22
 L -118.187,-1033.85 L -118.645,-1033.42 L -119.045,-1032.94 L -119.382,-1032.41 L -119.649,-1031.84 L -119.843,-1031.24
 L -119.961,-1030.63 L -120,-1030 L -120,-860 L -119.961,-859.373 L -119.843,-858.757 L -119.649,-858.159
 L -119.382,-857.591 L -119.045,-857.061 L -118.645,-856.577 L -118.187,-856.147 L -117.679,-855.778 L -117.129,-855.476
 L -116.545,-855.245 L -115.937,-855.089 L -115.314,-855.01 L 115.314,-855.01 z
M -115.048,-855.509 L -115.64,-855.584 L -116.218,-855.732 L -116.772,-855.952 L -117.295,-856.239 L -117.778,-856.59
 L -118.213,-856.998 L -118.593,-857.458 L -118.912,-857.962 L -119.166,-858.501 L -119.351,-859.069 L -119.463,-859.655
 L -119.5,-860.25 L -119.5,-1029.75 L -119.463,-1030.35 L -119.351,-1030.93 L -119.166,-1031.5 L -118.912,-1032.04
 L -118.593,-1032.54 L -118.213,-1033 L -117.778,-1033.41 L -117.295,-1033.76 L -116.772,-1034.05 L -116.218,-1034.27
 L -115.64,-1034.42 L -115.048,-1034.49 L 115.048,-1034.49 L 115.64,-1034.42 L 116.218,-1034.27 L 116.772,-1034.05
 L 117.295,-1033.76 L 117.778,-1033.41 L 118.213,-1033 L 118.593,-1032.54 L 118.912,-1032.04 L 119.166,-1031.5
 L 119.351,-1030.93 L 119.463,-1030.35 L 119.5,-1029.75 L 119.5,-860.25 L 119.463,-859.655 L 119.351,-859.069
 L 119.166,-858.501 L 118.912,-857.962 L 118.593,-857.458 L 118.213,-856.998 L 117.778,-856.59 L 117.295,-856.239
 L 116.772,-855.952 L 116.218,-855.732 L 115.64,-855.584 L 115.048,-855.509 z
M 115.937,-666.089 L 116.545,-666.245 L 117.129,-666.476 L 117.679,-666.778 L 118.187,-667.147 L 118.645,-667.577
 L 119.045,-668.061 L 119.382,-668.591 L 119.649,-669.159 L 119.843,-669.757 L 119.961,-670.373 L 120,-671
 L 120,-841 L 119.961,-841.627 L 119.843,-842.243 L 119.649,-842.841 L 119.382,-843.409 L 119.045,-843.939
 L 118.645,-844.423 L 118.187,-844.853 L 117.679,-845.222 L 117.129,-845.524 L 116.545,-845.755 L 115.937,-845.911
 L 115.314,-845.99 L -115.314,-845.99 L -115.937,-845.911 L -116.545,-845.755 L -117.129,-845.524 L -117.679,-845.222
 L -118.187,-844.853 L -118.645,-844.423 L -119.045,-843.939 L -119.382,-843.409 L -119.649,-842.841 L -119.843,-842.243
 L -119.961,-841.627 L -120,-841 L -120,-671 L -119.961,-670.373 L -119.843,-669.757 L -119.649,-669.159
 L -119.382,-668.591 L -119.045,-668.061 L -118.645,-667.577 L -118.187,-667.147 L -117.679,-666.778 L -117.129,-666.476
 L -116.545,-666.245 L -115.937,-666.089 L -115.314,-666.01 L 115.314,-666.01 z
M -115.037,-666.681 L -115.608,-666.753 L -116.165,-666.896 L -116.699,-667.107 L -117.203,-667.384 L -117.668,-667.722
 L -118.088,-668.116 L -118.454,-668.559 L -118.762,-669.044 L -119.007,-669.565 L -119.185,-670.111 L -119.292,-670.676
 L -119.328,-671.25 L -119.328,-840.75 L -119.292,-841.324 L -119.185,-841.889 L -119.007,-842.435 L -118.762,-842.956
 L -118.454,-843.441 L -118.088,-843.884 L -117.668,-844.278 L -117.203,-844.616 L -116.699,-844.893 L -116.165,-845.104
 L -115.608,-845.247 L -115.037,-845.319 L 115.037,-845.319 L 115.608,-845.247 L 116.165,-845.104 L 116.699,-844.893
 L 117.203,-844.616 L 117.668,-844.278 L 118.088,-843.884 L 118.454,-843.441 L 118.762,-842.956 L 119.007,-842.435
 L 119.185,-841.889 L 119.292,-841.324 L 119.328,-840.75 L 119.328,-671.25 L 119.292,-670.676 L 119.185,-670.111
 L 119.007,-669.565 L 118.762,-669.044 L 118.454,-668.559 L 118.088,-668.116 L 117.668,-667.722 L 117.203,-667.384
 L 116.699,-667.107 L 116.165,-666.896 L 115.608,-666.753 L 115.037,-666.681 z
M 115.937,-477.089 L 116.545,-477.245 L 117.129,-477.476 L 117.679,-477.778 L 118.187,-478.147 L 118.645,-478.577
 L 119.045,-479.061 L 119.382,-479.591 L 119.649,-480.159 L 119.843,-480.757 L 119.961,-481.373 L 120,-482
 L 120,-652 L 119.961,-652.627 L 119.843,-653.243 L 119.649,-653.841 L 119.382,-654.409 L 119.045,-654.939
 L 118.645,-655.423 L 118.187,-655.853 L 117.679,-656.222 L 117.129,-656.524 L 116.545,-656.755 L 115.937,-656.911
 L 115.314,-656.99 L -115.314,-656.99 L -115.937,-656.911 L -116.545,-656.755 L -117.129,-656.524 L -117.679,-656.222
 L -118.187,-655.853 L -118.645,-655.423 L -119.045,-654.939 L -119.382,-654.409 L -119.649,-653.841 L -119.843,-653.243
 L -119.961,-652.627 L -120,-652 L -120,-482 L -119.961,-481.373 L -119.843,-480.757 L -119.649,-480.159
 L -119.382,-479.591 L -119.045,-479.061 L -118.645,-478.577 L -118.187,-478.147 L -117.679,-477.778 L -117.129,-477.476
 L -116.545,-477.245 L -115.937,-477.089 L -115.314,-477.01 L 115.314,-477.01 z
M -114.882,-480.145 L -115.145,-480.178 L -115.402,-480.244 L -115.648,-480.341 L -115.88,-480.469 L -116.095,-480.624
 L -116.288,-480.806 L -116.457,-481.01 L -116.599,-481.234 L -116.711,-481.473 L -116.793,-481.725 L -116.843,-481.986
 L -116.86,-482.25 L -116.86,-651.75 L -116.843,-652.014 L -116.793,-652.275 L -116.711,-652.527 L -116.599,-652.766
 L -116.457,-652.99 L -116.288,-653.194 L -116.095,-653.376 L -115.88,-653.531 L -115.648,-653.659 L -115.402,-653.756
 L -115.145,-653.822 L -114.882,-653.855 L 114.882,-653.855 L 115.145,-653.822 L 115.402,-653.756 L 115.648,-653.659
 L 115.88,-653.531 L 116.095,-653.376 L 116.288,-653.194 L 116.457,-652.99 L 116.599,-652.766 L 116.711,-652.527
 L 116.793,-652.275 L 116.843,-652.014 L 116.86,-651.75 L 116.86,-482.25 L 116.843,-481.986 L 116.793,-481.725
 L 116.711,-481.473 L 116.599,-481.234 L 116.457,-481.01 L 116.288,-480.806 L 116.095,-480.624 L 115.88,-480.469
 L 115.648,-480.341 L 115.402,-480.244 L 115.145,-480.178 L 114.882,-480.145 z
" stroke="black" fill="lightgray" stroke-width="0.5"/>
</svg>
