<?xml version="1.0" standalone="no"?>
<!DOCTYPE svg PUBLIC "-//W3C//DTD SVG 1.1//EN" "http://www.w3.org/Graphics/SVG/1.1/DTD/svg11.dtd">
<svg width="257mm" height="88mm" viewBox="-129 -152 257 88" xmlns="http://www.w3.org/2000/svg" version="1.1">
<title>OpenSCAD Model</title>
<path d="
M -126,-137.941 L -125.687,-137.647 L -125.179,-137.278 L -124.629,-136.976 L -124.045,-136.745 L -123.437,-136.589
 L -122.814,-136.51 L 122.814,-136.51 L 123.437,-136.589 L 124.045,-136.745 L 124.629,-136.976 L 125.179,-137.278
 L 125.687,-137.647 L 126.145,-138.077 L 126.545,-138.561 L 126.882,-139.091 L 127.149,-139.659 L 127.343,-140.257
 L 127.461,-140.873 L 127.5,-141.5 L 127.5,-146.5 L 127.461,-147.127 L 127.343,-147.743 L 127.149,-148.341
 L 126.882,-148.909 L 126.545,-149.439 L 126.145,-149.923 L 125.687,-150.353 L 125.179,-150.722 L 124.629,-151.024
 L 124.045,-151.255 L 123.437,-151.411 L 122.814,-151.49 L -122.814,-151.49 L -123.437,-151.411 L -124.045,-151.255
 L -124.629,-151.024 L -125.179,-150.722 L -125.687,-150.353 L -126,-150.059 L -126,-151.49 L -129,-151.49
 L -129,-136.51 L -126,-136.51 z
M -122.251,-138.008 L -122.75,-138.071 L -123.236,-138.196 L -123.703,-138.381 L -124.143,-138.623 L -124.55,-138.918
 L -124.916,-139.262 L -125.236,-139.649 L -125.505,-140.073 L -125.719,-140.528 L -125.874,-141.005 L -125.968,-141.499
 L -126,-142 L -126,-146 L -125.968,-146.501 L -125.874,-146.995 L -125.719,-147.472 L -125.505,-147.927
 L -125.236,-148.351 L -124.916,-148.738 L -124.55,-149.082 L -124.143,-149.377 L -123.703,-149.619 L -123.236,-149.804
 L -122.75,-149.929 L -122.251,-149.992 L 122.251,-149.992 L 122.75,-149.929 L 123.236,-149.804 L 123.703,-149.619
 L 124.143,-149.377 L 124.55,-149.082 L 124.916,-148.738 L 125.236,-148.351 L 125.505,-147.927 L 125.719,-147.472
 L 125.874,-146.995 L 125.968,-146.501 L 126,-146 L 126,-142 L 125.968,-141.499 L 125.874,-141.005
 L 125.719,-140.528 L 125.505,-140.073 L 125.236,-139.649 L 124.916,-139.262 L 124.55,-138.918 L 124.143,-138.623
 L 123.703,-138.381 L 123.236,-138.196 L 122.75,-138.071 L 122.251,-138.008 z
M -126,-113.941 L -125.687,-113.647 L -125.179,-113.278 L -124.629,-112.976 L -124.045,-112.745 L -123.437,-112.589
 L -122.814,-112.51 L 122.814,-112.51 L 123.437,-112.589 L 124.045,-112.745 L 124.629,-112.976 L 125.179,-113.278
 L 125.687,-113.647 L 126.145,-114.077 L 126.545,-114.561 L 126.882,-115.091 L 127.149,-115.659 L 127.343,-116.257
 L 127.461,-116.873 L 127.5,-117.5 L 127.5,-122.5 L 127.461,-123.127 L 127.343,-123.743 L 127.149,-124.341
 L 126.882,-124.909 L 126.545,-125.439 L 126.145,-125.923 L 125.687,-126.353 L 125.179,-126.722 L 124.629,-127.024
 L 124.045,-127.255 L 123.437,-127.411 L 122.814,-127.49 L -122.814,-127.49 L -123.437,-127.411 L -124.045,-127.255
 L -124.629,-127.024 L -125.179,-126.722 L -125.687,-126.353 L -126,-126.059 L -126,-127.49 L -129,-127.49
 L -129,-112.51 L -126,-112.51 z
M -122.243,-114.135 L -122.726,-114.196 L -123.197,-114.317 L -123.649,-114.496 L -124.075,-114.73 L -124.469,-115.016
 L -124.823,-115.349 L -125.133,-115.724 L -125.394,-116.134 L -125.601,-116.574 L -125.751,-117.037 L -125.842,-117.515
 L -125.873,-118 L -125.873,-122 L -125.842,-122.485 L -125.751,-122.963 L -125.601,-123.426 L -125.394,-123.866
 L -125.133,-124.276 L -124.823,-124.651 L -124.469,-124.984 L -124.075,-125.27 L -123.649,-125.504 L -123.197,-125.683
 L -122.726,-125.804 L -122.243,-125.865 L 122.243,-125.865 L 122.726,-125.804 L 123.197,-125.683 L 123.649,-125.504
 L 124.075,-125.27 L 124.469,-124.984 L 124.823,-124.651 L 125.133,-124.276 L 125.394,-123.866 L 125.601,-123.426
 L 125.751,-122.963 L 125.842,-122.485 L 125.873,-122 L 125.873,-118 L 125.842,-117.515 L 125.751,-117.037
 L 125.601,-116.574 L 125.394,-116.134 L 125.133,-115.724 L 124.823,-115.349 L 124.469,-115.016 L 124.075,-114.73
 L 123.649,-114.496 L 123.197,-114.317 L 122.726,-114.196 L 122.243,-114.135 z
M 123.437,-88.5886 L 124.045,-88.7447 L 124.629,-88.9759 L 125.179,-89.2784 L 125.687,-89.6474 L 126.145,-90.0773
 L 126.545,-90.5611 L 126.882,-91.0912 L 127.149,-91.6594 L 127.343,-92.2566 L 127.461,-92.8733 L 127.5,-93.5
 L 127.5,-98.5 L 127.461,-99.1267 L 127.343,-99.7434 L 127.149,-100.341 L 126.882,-100.909 L 126.545,-101.439
 L 126.145,-101.923 L 125.687,-102.353 L 125.179,-102.722 L 124.629,-103.024 L 124.045,-103.255 L 123.437,-103.411
 L 122.814,-103.49 L -122.814,-103.49 L -123.437,-103.411 L -124.045,-103.255 L -124.629,-103.024 L -125.179,-102.722
 L -125.687,-102.353 L -126,-102.059 L -126,-103.115 L -129,-103.115 L -129,-88.8852 L -126,-88.8852
 L -126,-89.9413 L -125.687,-89.6474 L -125.179,-89.2784 L -124.629,-88.9759 L -124.045,-88.7447 L -123.437,-88.5886
 L -122.814,-88.5099 L 122.814,-88.5099 z
M 119.849,-93.6047 L 119.55,-93.6425 L 119.258,-93.7175 L 118.978,-93.8284 L 118.714,-93.9736 L 118.47,-94.1508
 L 118.25,-94.3571 L 118.058,-94.5893 L 117.897,-94.8438 L 117.769,-95.1165 L 117.675,-95.4032 L 117.619,-95.6992
 L 117.6,-96 L 117.619,-96.3008 L 117.675,-96.5968 L 117.769,-96.8835 L 117.897,-97.1562 L 118.058,-97.4107
 L 118.25,-97.6429 L 118.47,-97.8492 L 118.714,-98.0264 L 118.978,-98.1716 L 119.258,-98.2825 L 119.55,-98.3575
 L 119.849,-98.3953 L 120.151,-98.3953 L 120.45,-98.3575 L 120.742,-98.2825 L 121.022,-98.1716 L 121.286,-98.0264
 L 121.53,-97.8492 L 121.75,-97.6429 L 121.942,-97.4107 L 122.103,-97.1562 L 122.231,-96.8835 L 122.325,-96.5968
 L 122.381,-96.3008 L 122.4,-96 L 122.381,-95.6992 L 122.325,-95.4032 L 122.231,-95.1165 L 122.103,-94.8438
 L 121.942,-94.5893 L 121.75,-94.3571 L 121.53,-94.1508 L 121.286,-93.9736 L 121.022,-93.8284 L 120.742,-93.7175
 L 120.45,-93.6425 L 120.151,-93.6047 z
M -120.151,-93.6047 L -120.45,-93.6425 L -120.742,-93.7175 L -121.022,-93.8284 L -121.286,-93.9736 L -121.53,-94.1508
 L -121.75,-94.3571 L -121.942,-94.5893 L -122.103,-94.8438 L -122.231,-95.1165 L -122.325,-95.4032 L -122.381,-95.6992
 L -122.4,-96 L -122.381,-96.3008 L -122.325,-96.5968 L -122.231,-96.8835 L -122.103,-97.1562 L -121.942,-97.4107
 L -121.75,-97.6429 L -121.53,-97.8492 L -121.286,-98.0264 L -121.022,-98.1716 L -120.742,-98.2825 L -120.45,-98.3575
 L -120.151,-98.3953 L -119.849,-98.3953 L -119.55,-98.3575 L -119.258,-98.2825 L -118.978,-98.1716 L -118.714,-98.0264
 L -118.47,-97.8492 L -118.25,-97.6429 L -118.058,-97.4107 L -117.897,-97.1562 L -117.769,-96.8835 L -117.675,-96.5968
 L -117.619,-96.3008 L -117.6,-96 L -117.619,-95.6992 L -117.675,-95.4032 L -117.769,-95.1165 L -117.897,-94.8438
 L -118.058,-94.5893 L -118.25,-94.3571 L -118.47,-94.1508 L -118.714,-93.9736 L -118.978,-93.8284 L -119.258,-93.7175
 L -119.55,-93.6425 L -119.849,-93.6047 z
M 123.437,-64.5886 L 124.045,-64.7447 L 124.629,-64.9759 L 125.179,-65.2784 L 125.687,-65.6474 L 126.145,-66.0773
 L 126.545,-66.5611 L 126.882,-67.0912 L 127.149,-67.6594 L 127.343,-68.2566 L 127.461,-68.8733 L 127.5,-69.5
 L 127.5,-74.5 L 127.461,-75.1267 L 127.343,-75.7434 L 127.149,-76.3406 L 126.882,-76.9088 L 126.545,-77.4389
 L 126.145,-77.9227 L 125.687,-78.3526 L 125.179,-78.7216 L 124.629,-79.0241 L 124.045,-79.2553 L 123.437,-79.4114
 L 122.814,-79.4901 L -122.814,-79.4901 L -123.437,-79.4114 L -124.045,-79.2553 L -124.629,-79.0241 L -125.179,-78.7216
 L -125.687,-78.3526 L -126.145,-77.9227 L -126.545,-77.4389 L -126.882,-76.9088 L -127.149,-76.3406 L -127.343,-75.7434
 L -127.4,-75.4442 L -129,-75.4442 L -129,-68.5558 L -127.4,-68.5558 L -127.343,-68.2566 L -127.149,-67.6594
 L -126.882,-67.0912 L -126.545,-66.5611 L -126.145,-66.0773 L -125.687,-65.6474 L -125.179,-65.2784 L -124.629,-64.9759
 L -124.045,-64.7447 L -123.437,-64.5886 L -122.814,-64.5099 L 122.814,-64.5099 z
M -120.113,-70.2036 L -120.337,-70.2319 L -120.556,-70.2881 L -120.766,-70.3713 L -120.964,-70.4802 L -121.147,-70.6131
 L -121.312,-70.7678 L -121.456,-70.942 L -121.577,-71.1329 L -121.674,-71.3374 L -121.743,-71.5524 L -121.786,-71.7744
 L -121.8,-72 L -121.786,-72.2256 L -121.743,-72.4476 L -121.674,-72.6626 L -121.577,-72.8671 L -121.456,-73.058
 L -121.312,-73.2322 L -121.147,-73.3869 L -120.964,-73.5198 L -120.766,-73.6287 L -120.556,-73.7119 L -120.337,-73.7681
 L -120.113,-73.7964 L -119.887,-73.7964 L -119.663,-73.7681 L -119.444,-73.7119 L -119.234,-73.6287 L -119.036,-73.5198
 L -118.853,-73.3869 L -118.688,-73.2322 L -118.544,-73.058 L -118.423,-72.8671 L -118.326,-72.6626 L -118.257,-72.4476
 L -118.214,-72.2256 L -118.2,-72 L -118.214,-71.7744 L -118.257,-71.5524 L -118.326,-71.3374 L -118.423,-71.1329
 L -118.544,-70.942 L -118.688,-70.7678 L -118.853,-70.6131 L -119.036,-70.4802 L -119.234,-70.3713 L -119.444,-70.2881
 L -119.663,-70.2319 L -119.887,-70.2036 z
M 119.887,-70.2036 L 119.663,-70.2319 L 119.444,-70.2881 L 119.234,-70.3713 L 119.036,-70.4802 L 118.853,-70.6131
 L 118.688,-70.7678 L 118.544,-70.942 L 118.423,-71.1329 L 118.326,-71.3374 L 118.257,-71.5524 L 118.214,-71.7744
 L 118.2,-72 L 118.214,-72.2256 L 118.257,-72.4476 L 118.326,-72.6626 L 118.423,-72.8671 L 118.544,-73.058
 L 118.688,-73.2322 L 118.853,-73.3869 L 119.036,-73.5198 L 119.234,-73.6287 L 119.444,-73.7119 L 119.663,-73.7681
 L 119.887,-73.7964 L 120.113,-73.7964 L 120.337,-73.7681 L 120.556,-73.7119 L 120.766,-73.6287 L 120.964,-73.5198
 L 121.147,-73.3869 L 121.312,-73.2322 L 121.456,-73.058 L 121.577,-72.8671 L 121.674,-72.6626 L 121.743,-72.4476
 L 121.786,-72.2256 L 121.8,-72 L 121.786,-71.7744 L 121.743,-71.5524 L 121.674,-71.3374 L 121.577,-71.1329
 L 121.456,-70.942 L 121.312,-70.7678 L 121.147,-70.6131 L 120.964,-70.4802 L 120.766,-70.3713 L 120.556,-70.2881
 L 120.337,-70.2319 L 120.113,-70.2036 z
" stroke="black" fill="lightgray" stroke-width="0.5"/>
</svg>
