  0
SECTION
  2
BLOCKS
  0
ENDSEC
  0
SECTION
  2
ENTITIES
  0
LINE
  8
0
 10
-141
 20
147.691
 11
-140.687
 21
147.397
  0
LINE
  8
0
 10
-140.687
 20
147.397
 11
-140.179
 21
147.028
  0
LINE
  8
0
 10
-140.179
 20
147.028
 11
-139.629
 21
146.726
  0
LINE
  8
0
 10
-139.629
 20
146.726
 11
-139.045
 21
146.495
  0
LINE
  8
0
 10
-139.045
 20
146.495
 11
-138.437
 21
146.339
  0
LINE
  8
0
 10
-138.437
 20
146.339
 11
-137.814
 21
146.26
  0
LINE
  8
0
 10
-137.814
 20
146.26
 11
137.814
 21
146.26
  0
LINE
  8
0
 10
137.814
 20
146.26
 11
138.437
 21
146.339
  0
LINE
  8
0
 10
138.437
 20
146.339
 11
139.045
 21
146.495
  0
LINE
  8
0
 10
139.045
 20
146.495
 11
139.629
 21
146.726
  0
LINE
  8
0
 10
139.629
 20
146.726
 11
140.179
 21
147.028
  0
LINE
  8
0
 10
140.179
 20
147.028
 11
140.687
 21
147.397
  0
LINE
  8
0
 10
140.687
 20
147.397
 11
141.145
 21
147.827
  0
LINE
  8
0
 10
141.145
 20
147.827
 11
141.545
 21
148.311
  0
LINE
  8
0
 10
141.545
 20
148.311
 11
141.882
 21
148.841
  0
LINE
  8
0
 10
141.882
 20
148.841
 11
142.149
 21
149.409
  0
LINE
  8
0
 10
142.149
 20
149.409
 11
142.343
 21
150.007
  0
LINE
  8
0
 10
142.343
 20
150.007
 11
142.461
 21
150.623
  0
LINE
  8
0
 10
142.461
 20
150.623
 11
142.5
 21
151.25
  0
LINE
  8
0
 10
142.5
 20
151.25
 11
142.5
 21
163.75
  0
LINE
  8
0
 10
142.5
 20
163.75
 11
142.461
 21
164.377
  0
LINE
  8
0
 10
142.461
 20
164.377
 11
142.343
 21
164.993
  0
LINE
  8
0
 10
142.343
 20
164.993
 11
142.149
 21
165.591
  0
LINE
  8
0
 10
142.149
 20
165.591
 11
141.882
 21
166.159
  0
LINE
  8
0
 10
141.882
 20
166.159
 11
141.545
 21
166.689
  0
LINE
  8
0
 10
141.545
 20
166.689
 11
141.145
 21
167.173
  0
LINE
  8
0
 10
141.145
 20
167.173
 11
140.687
 21
167.603
  0
LINE
  8
0
 10
140.687
 20
167.603
 11
140.179
 21
167.972
  0
LINE
  8
0
 10
140.179
 20
167.972
 11
139.629
 21
168.274
  0
LINE
  8
0
 10
139.629
 20
168.274
 11
139.045
 21
168.505
  0
LINE
  8
0
 10
139.045
 20
168.505
 11
138.437
 21
168.661
  0
LINE
  8
0
 10
138.437
 20
168.661
 11
137.814
 21
168.74
  0
LINE
  8
0
 10
137.814
 20
168.74
 11
-137.814
 21
168.74
  0
LINE
  8
0
 10
-137.814
 20
168.74
 11
-138.437
 21
168.661
  0
LINE
  8
0
 10
-138.437
 20
168.661
 11
-139.045
 21
168.505
  0
LINE
  8
0
 10
-139.045
 20
168.505
 11
-139.629
 21
168.274
  0
LINE
  8
0
 10
-139.629
 20
168.274
 11
-140.179
 21
167.972
  0
LINE
  8
0
 10
-140.179
 20
167.972
 11
-140.687
 21
167.603
  0
LINE
  8
0
 10
-140.687
 20
167.603
 11
-141
 21
167.309
  0
LINE
  8
0
 10
-141
 20
167.309
 11
-141
 21
168.74
  0
LINE
  8
0
 10
-141
 20
168.74
 11
-144
 21
168.74
  0
LINE
  8
0
 10
-144
 20
168.74
 11
-144
 21
146.26
  0
LINE
  8
0
 10
-144
 20
146.26
 11
-141
 21
146.26
  0
LINE
  8
0
 10
-141
 20
146.26
 11
-141
 21
147.691
  0
LINE
  8
0
 10
-137.251
 20
147.758
 11
-137.75
 21
147.821
  0
LINE
  8
0
 10
-137.75
 20
147.821
 11
-138.236
 21
147.946
  0
LINE
  8
0
 10
-138.236
 20
147.946
 11
-138.703
 21
148.131
  0
LINE
  8
0
 10
-138.703
 20
148.131
 11
-139.143
 21
148.373
  0
LINE
  8
0
 10
-139.143
 20
148.373
 11
-139.55
 21
148.668
  0
LINE
  8
0
 10
-139.55
 20
148.668
 11
-139.916
 21
149.012
  0
LINE
  8
0
 10
-139.916
 20
149.012
 11
-140.236
 21
149.399
  0
LINE
  8
0
 10
-140.236
 20
149.399
 11
-140.505
 21
149.823
  0
LINE
  8
0
 10
-140.505
 20
149.823
 11
-140.719
 21
150.278
  0
LINE
  8
0
 10
-140.719
 20
150.278
 11
-140.874
 21
150.755
  0
LINE
  8
0
 10
-140.874
 20
150.755
 11
-140.968
 21
151.249
  0
LINE
  8
0
 10
-140.968
 20
151.249
 11
-141
 21
151.75
  0
LINE
  8
0
 10
-141
 20
151.75
 11
-141
 21
163.25
  0
LINE
  8
0
 10
-141
 20
163.25
 11
-140.968
 21
163.751
  0
LINE
  8
0
 10
-140.968
 20
163.751
 11
-140.874
 21
164.245
  0
LINE
  8
0
 10
-140.874
 20
164.245
 11
-140.719
 21
164.722
  0
LINE
  8
0
 10
-140.719
 20
164.722
 11
-140.505
 21
165.177
  0
LINE
  8
0
 10
-140.505
 20
165.177
 11
-140.236
 21
165.601
  0
LINE
  8
0
 10
-140.236
 20
165.601
 11
-139.916
 21
165.988
  0
LINE
  8
0
 10
-139.916
 20
165.988
 11
-139.55
 21
166.332
  0
LINE
  8
0
 10
-139.55
 20
166.332
 11
-139.143
 21
166.627
  0
LINE
  8
0
 10
-139.143
 20
166.627
 11
-138.703
 21
166.869
  0
LINE
  8
0
 10
-138.703
 20
166.869
 11
-138.236
 21
167.054
  0
LINE
  8
0
 10
-138.236
 20
167.054
 11
-137.75
 21
167.179
  0
LINE
  8
0
 10
-137.75
 20
167.179
 11
-137.251
 21
167.242
  0
LINE
  8
0
 10
-137.251
 20
167.242
 11
137.251
 21
167.242
  0
LINE
  8
0
 10
137.251
 20
167.242
 11
137.75
 21
167.179
  0
LINE
  8
0
 10
137.75
 20
167.179
 11
138.236
 21
167.054
  0
LINE
  8
0
 10
138.236
 20
167.054
 11
138.703
 21
166.869
  0
LINE
  8
0
 10
138.703
 20
166.869
 11
139.143
 21
166.627
  0
LINE
  8
0
 10
139.143
 20
166.627
 11
139.55
 21
166.332
  0
LINE
  8
0
 10
139.55
 20
166.332
 11
139.916
 21
165.988
  0
LINE
  8
0
 10
139.916
 20
165.988
 11
140.236
 21
165.601
  0
LINE
  8
0
 10
140.236
 20
165.601
 11
140.505
 21
165.177
  0
LINE
  8
0
 10
140.505
 20
165.177
 11
140.719
 21
164.722
  0
LINE
  8
0
 10
140.719
 20
164.722
 11
140.874
 21
164.245
  0
LINE
  8
0
 10
140.874
 20
164.245
 11
140.968
 21
163.751
  0
LINE
  8
0
 10
140.968
 20
163.751
 11
141
 21
163.25
  0
LINE
  8
0
 10
141
 20
163.25
 11
141
 21
151.75
  0
LINE
  8
0
 10
141
 20
151.75
 11
140.968
 21
151.249
  0
LINE
  8
0
 10
140.968
 20
151.249
 11
140.874
 21
150.755
  0
LINE
  8
0
 10
140.874
 20
150.755
 11
140.719
 21
150.278
  0
LINE
  8
0
 10
140.719
 20
150.278
 11
140.505
 21
149.823
  0
LINE
  8
0
 10
140.505
 20
149.823
 11
140.236
 21
149.399
  0
LINE
  8
0
 10
140.236
 20
149.399
 11
139.916
 21
149.012
  0
LINE
  8
0
 10
139.916
 20
149.012
 11
139.55
 21
148.668
  0
LINE
  8
0
 10
139.55
 20
148.668
 11
139.143
 21
148.373
  0
LINE
  8
0
 10
139.143
 20
148.373
 11
138.703
 21
148.131
  0
LINE
  8
0
 10
138.703
 20
148.131
 11
138.236
 21
147.946
  0
LINE
  8
0
 10
138.236
 20
147.946
 11
137.75
 21
147.821
  0
LINE
  8
0
 10
137.75
 20
147.821
 11
137.251
 21
147.758
  0
LINE
  8
0
 10
137.251
 20
147.758
 11
-137.251
 21
147.758
  0
LINE
  8
0
 10
138.437
 20
114.839
 11
139.045
 21
114.995
  0
LINE
  8
0
 10
139.045
 20
114.995
 11
139.629
 21
115.226
  0
LINE
  8
0
 10
139.629
 20
115.226
 11
140.179
 21
115.528
  0
LINE
  8
0
 10
140.179
 20
115.528
 11
140.687
 21
115.897
  0
LINE
  8
0
 10
140.687
 20
115.897
 11
141.145
 21
116.327
  0
LINE
  8
0
 10
141.145
 20
116.327
 11
141.545
 21
116.811
  0
LINE
  8
0
 10
141.545
 20
116.811
 11
141.882
 21
117.341
  0
LINE
  8
0
 10
141.882
 20
117.341
 11
142.149
 21
117.909
  0
LINE
  8
0
 10
142.149
 20
117.909
 11
142.343
 21
118.507
  0
LINE
  8
0
 10
142.343
 20
118.507
 11
142.461
 21
119.123
  0
LINE
  8
0
 10
142.461
 20
119.123
 11
142.5
 21
119.75
  0
LINE
  8
0
 10
142.5
 20
119.75
 11
142.5
 21
132.25
  0
LINE
  8
0
 10
142.5
 20
132.25
 11
142.461
 21
132.877
  0
LINE
  8
0
 10
142.461
 20
132.877
 11
142.343
 21
133.493
  0
LINE
  8
0
 10
142.343
 20
133.493
 11
142.149
 21
134.091
  0
LINE
  8
0
 10
142.149
 20
134.091
 11
141.882
 21
134.659
  0
LINE
  8
0
 10
141.882
 20
134.659
 11
141.545
 21
135.189
  0
LINE
  8
0
 10
141.545
 20
135.189
 11
141.145
 21
135.673
  0
LINE
  8
0
 10
141.145
 20
135.673
 11
140.687
 21
136.103
  0
LINE
  8
0
 10
140.687
 20
136.103
 11
140.179
 21
136.472
  0
LINE
  8
0
 10
140.179
 20
136.472
 11
139.629
 21
136.774
  0
LINE
  8
0
 10
139.629
 20
136.774
 11
139.045
 21
137.005
  0
LINE
  8
0
 10
139.045
 20
137.005
 11
138.437
 21
137.161
  0
LINE
  8
0
 10
138.437
 20
137.161
 11
137.814
 21
137.24
  0
LINE
  8
0
 10
137.814
 20
137.24
 11
-137.814
 21
137.24
  0
LINE
  8
0
 10
-137.814
 20
137.24
 11
-138.437
 21
137.161
  0
LINE
  8
0
 10
-138.437
 20
137.161
 11
-139.045
 21
137.005
  0
LINE
  8
0
 10
-139.045
 20
137.005
 11
-139.629
 21
136.774
  0
LINE
  8
0
 10
-139.629
 20
136.774
 11
-140.179
 21
136.472
  0
LINE
  8
0
 10
-140.179
 20
136.472
 11
-140.687
 21
136.103
  0
LINE
  8
0
 10
-140.687
 20
136.103
 11
-141
 21
135.809
  0
LINE
  8
0
 10
-141
 20
135.809
 11
-141
 21
137.229
  0
LINE
  8
0
 10
-141
 20
137.229
 11
-144
 21
137.229
  0
LINE
  8
0
 10
-144
 20
137.229
 11
-144
 21
114.771
  0
LINE
  8
0
 10
-144
 20
114.771
 11
-141
 21
114.771
  0
LINE
  8
0
 10
-141
 20
114.771
 11
-141
 21
116.191
  0
LINE
  8
0
 10
-141
 20
116.191
 11
-140.687
 21
115.897
  0
LINE
  8
0
 10
-140.687
 20
115.897
 11
-140.179
 21
115.528
  0
LINE
  8
0
 10
-140.179
 20
115.528
 11
-139.629
 21
115.226
  0
LINE
  8
0
 10
-139.629
 20
115.226
 11
-139.045
 21
114.995
  0
LINE
  8
0
 10
-139.045
 20
114.995
 11
-138.437
 21
114.839
  0
LINE
  8
0
 10
-138.437
 20
114.839
 11
-137.814
 21
114.76
  0
LINE
  8
0
 10
-137.814
 20
114.76
 11
137.814
 21
114.76
  0
LINE
  8
0
 10
137.814
 20
114.76
 11
138.437
 21
114.839
  0
LINE
  8
0
 10
-137.195
 20
117.143
 11
-137.583
 21
117.192
  0
LINE
  8
0
 10
-137.583
 20
117.192
 11
-137.962
 21
117.289
  0
LINE
  8
0
 10
-137.962
 20
117.289
 11
-138.325
 21
117.433
  0
LINE
  8
0
 10
-138.325
 20
117.433
 11
-138.668
 21
117.622
  0
LINE
  8
0
 10
-138.668
 20
117.622
 11
-138.984
 21
117.851
  0
LINE
  8
0
 10
-138.984
 20
117.851
 11
-139.269
 21
118.119
  0
LINE
  8
0
 10
-139.269
 20
118.119
 11
-139.518
 21
118.42
  0
LINE
  8
0
 10
-139.518
 20
118.42
 11
-139.728
 21
118.75
  0
LINE
  8
0
 10
-139.728
 20
118.75
 11
-139.894
 21
119.104
  0
LINE
  8
0
 10
-139.894
 20
119.104
 11
-140.015
 21
119.476
  0
LINE
  8
0
 10
-140.015
 20
119.476
 11
-140.088
 21
119.86
  0
LINE
  8
0
 10
-140.088
 20
119.86
 11
-140.113
 21
120.25
  0
LINE
  8
0
 10
-140.113
 20
120.25
 11
-140.113
 21
131.75
  0
LINE
  8
0
 10
-140.113
 20
131.75
 11
-140.088
 21
132.14
  0
LINE
  8
0
 10
-140.088
 20
132.14
 11
-140.015
 21
132.524
  0
LINE
  8
0
 10
-140.015
 20
132.524
 11
-139.894
 21
132.896
  0
LINE
  8
0
 10
-139.894
 20
132.896
 11
-139.728
 21
133.25
  0
LINE
  8
0
 10
-139.728
 20
133.25
 11
-139.518
 21
133.58
  0
LINE
  8
0
 10
-139.518
 20
133.58
 11
-139.269
 21
133.881
  0
LINE
  8
0
 10
-139.269
 20
133.881
 11
-138.984
 21
134.149
  0
LINE
  8
0
 10
-138.984
 20
134.149
 11
-138.668
 21
134.378
  0
LINE
  8
0
 10
-138.668
 20
134.378
 11
-138.325
 21
134.567
  0
LINE
  8
0
 10
-138.325
 20
134.567
 11
-137.962
 21
134.711
  0
LINE
  8
0
 10
-137.962
 20
134.711
 11
-137.583
 21
134.808
  0
LINE
  8
0
 10
-137.583
 20
134.808
 11
-137.195
 21
134.857
  0
LINE
  8
0
 10
-137.195
 20
134.857
 11
137.195
 21
134.857
  0
LINE
  8
0
 10
137.195
 20
134.857
 11
137.583
 21
134.808
  0
LINE
  8
0
 10
137.583
 20
134.808
 11
137.962
 21
134.711
  0
LINE
  8
0
 10
137.962
 20
134.711
 11
138.325
 21
134.567
  0
LINE
  8
0
 10
138.325
 20
134.567
 11
138.668
 21
134.378
  0
LINE
  8
0
 10
138.668
 20
134.378
 11
138.984
 21
134.149
  0
LINE
  8
0
 10
138.984
 20
134.149
 11
139.269
 21
133.881
  0
LINE
  8
0
 10
139.269
 20
133.881
 11
139.518
 21
133.58
  0
LINE
  8
0
 10
139.518
 20
133.58
 11
139.728
 21
133.25
  0
LINE
  8
0
 10
139.728
 20
133.25
 11
139.894
 21
132.896
  0
LINE
  8
0
 10
139.894
 20
132.896
 11
140.015
 21
132.524
  0
LINE
  8
0
 10
140.015
 20
132.524
 11
140.088
 21
132.14
  0
LINE
  8
0
 10
140.088
 20
132.14
 11
140.113
 21
131.75
  0
LINE
  8
0
 10
140.113
 20
131.75
 11
140.113
 21
120.25
  0
LINE
  8
0
 10
140.113
 20
120.25
 11
140.088
 21
119.86
  0
LINE
  8
0
 10
140.088
 20
119.86
 11
140.015
 21
119.476
  0
LINE
  8
0
 10
140.015
 20
119.476
 11
139.894
 21
119.104
  0
LINE
  8
0
 10
139.894
 20
119.104
 11
139.728
 21
118.75
  0
LINE
  8
0
 10
139.728
 20
118.75
 11
139.518
 21
118.42
  0
LINE
  8
0
 10
139.518
 20
118.42
 11
139.269
 21
118.119
  0
LINE
  8
0
 10
139.269
 20
118.119
 11
138.984
 21
117.851
  0
LINE
  8
0
 10
138.984
 20
117.851
 11
138.668
 21
117.622
  0
LINE
  8
0
 10
138.668
 20
117.622
 11
138.325
 21
117.433
  0
LINE
  8
0
 10
138.325
 20
117.433
 11
137.962
 21
117.289
  0
LINE
  8
0
 10
137.962
 20
117.289
 11
137.583
 21
117.192
  0
LINE
  8
0
 10
137.583
 20
117.192
 11
137.195
 21
117.143
  0
LINE
  8
0
 10
137.195
 20
117.143
 11
-137.195
 21
117.143
  0
LINE
  8
0
 10
138.437
 20
83.3386
 11
139.045
 21
83.4947
  0
LINE
  8
0
 10
139.045
 20
83.4947
 11
139.629
 21
83.7259
  0
LINE
  8
0
 10
139.629
 20
83.7259
 11
140.179
 21
84.0284
  0
LINE
  8
0
 10
140.179
 20
84.0284
 11
140.687
 21
84.3974
  0
LINE
  8
0
 10
140.687
 20
84.3974
 11
141.145
 21
84.8273
  0
LINE
  8
0
 10
141.145
 20
84.8273
 11
141.545
 21
85.3111
  0
LINE
  8
0
 10
141.545
 20
85.3111
 11
141.882
 21
85.8412
  0
LINE
  8
0
 10
141.882
 20
85.8412
 11
142.149
 21
86.4094
  0
LINE
  8
0
 10
142.149
 20
86.4094
 11
142.343
 21
87.0066
  0
LINE
  8
0
 10
142.343
 20
87.0066
 11
142.461
 21
87.6233
  0
LINE
  8
0
 10
142.461
 20
87.6233
 11
142.5
 21
88.25
  0
LINE
  8
0
 10
142.5
 20
88.25
 11
142.5
 21
100.75
  0
LINE
  8
0
 10
142.5
 20
100.75
 11
142.461
 21
101.377
  0
LINE
  8
0
 10
142.461
 20
101.377
 11
142.343
 21
101.993
  0
LINE
  8
0
 10
142.343
 20
101.993
 11
142.149
 21
102.591
  0
LINE
  8
0
 10
142.149
 20
102.591
 11
141.882
 21
103.159
  0
LINE
  8
0
 10
141.882
 20
103.159
 11
141.545
 21
103.689
  0
LINE
  8
0
 10
141.545
 20
103.689
 11
141.145
 21
104.173
  0
LINE
  8
0
 10
141.145
 20
104.173
 11
140.687
 21
104.603
  0
LINE
  8
0
 10
140.687
 20
104.603
 11
140.179
 21
104.972
  0
LINE
  8
0
 10
140.179
 20
104.972
 11
139.629
 21
105.274
  0
LINE
  8
0
 10
139.629
 20
105.274
 11
139.045
 21
105.505
  0
LINE
  8
0
 10
139.045
 20
105.505
 11
138.437
 21
105.661
  0
LINE
  8
0
 10
138.437
 20
105.661
 11
137.814
 21
105.74
  0
LINE
  8
0
 10
137.814
 20
105.74
 11
-137.814
 21
105.74
  0
LINE
  8
0
 10
-137.814
 20
105.74
 11
-138.437
 21
105.661
  0
LINE
  8
0
 10
-138.437
 20
105.661
 11
-139.045
 21
105.505
  0
LINE
  8
0
 10
-139.045
 20
105.505
 11
-139.629
 21
105.274
  0
LINE
  8
0
 10
-139.629
 20
105.274
 11
-140.179
 21
104.972
  0
LINE
  8
0
 10
-140.179
 20
104.972
 11
-140.687
 21
104.603
  0
LINE
  8
0
 10
-140.687
 20
104.603
 11
-141
 21
104.309
  0
LINE
  8
0
 10
-141
 20
104.309
 11
-141
 21
104.403
  0
LINE
  8
0
 10
-141
 20
104.403
 11
-144
 21
104.403
  0
LINE
  8
0
 10
-144
 20
104.403
 11
-144
 21
84.5974
  0
LINE
  8
0
 10
-144
 20
84.5974
 11
-141
 21
84.5974
  0
LINE
  8
0
 10
-141
 20
84.5974
 11
-141
 21
84.6913
  0
LINE
  8
0
 10
-141
 20
84.6913
 11
-140.687
 21
84.3974
  0
LINE
  8
0
 10
-140.687
 20
84.3974
 11
-140.179
 21
84.0284
  0
LINE
  8
0
 10
-140.179
 20
84.0284
 11
-139.629
 21
83.7259
  0
LINE
  8
0
 10
-139.629
 20
83.7259
 11
-139.045
 21
83.4947
  0
LINE
  8
0
 10
-139.045
 20
83.4947
 11
-138.437
 21
83.3386
  0
LINE
  8
0
 10
-138.437
 20
83.3386
 11
-137.814
 21
83.2599
  0
LINE
  8
0
 10
-137.814
 20
83.2599
 11
137.814
 21
83.2599
  0
LINE
  8
0
 10
137.814
 20
83.2599
 11
138.437
 21
83.3386
  0
LINE
  8
0
 10
134.866
 20
96.1189
 11
134.6
 21
96.1525
  0
LINE
  8
0
 10
134.6
 20
96.1525
 11
134.34
 21
96.2192
  0
LINE
  8
0
 10
134.34
 20
96.2192
 11
134.091
 21
96.3179
  0
LINE
  8
0
 10
134.091
 20
96.3179
 11
133.856
 21
96.4471
  0
LINE
  8
0
 10
133.856
 20
96.4471
 11
133.639
 21
96.6047
  0
LINE
  8
0
 10
133.639
 20
96.6047
 11
133.443
 21
96.7883
  0
LINE
  8
0
 10
133.443
 20
96.7883
 11
133.273
 21
96.9949
  0
LINE
  8
0
 10
133.273
 20
96.9949
 11
133.129
 21
97.2213
  0
LINE
  8
0
 10
133.129
 20
97.2213
 11
133.015
 21
97.4639
  0
LINE
  8
0
 10
133.015
 20
97.4639
 11
132.932
 21
97.719
  0
LINE
  8
0
 10
132.932
 20
97.719
 11
132.882
 21
97.9824
  0
LINE
  8
0
 10
132.882
 20
97.9824
 11
132.865
 21
98.25
  0
LINE
  8
0
 10
132.865
 20
98.25
 11
132.882
 21
98.5176
  0
LINE
  8
0
 10
132.882
 20
98.5176
 11
132.932
 21
98.781
  0
LINE
  8
0
 10
132.932
 20
98.781
 11
133.015
 21
99.036
  0
LINE
  8
0
 10
133.015
 20
99.036
 11
133.129
 21
99.2787
  0
LINE
  8
0
 10
133.129
 20
99.2787
 11
133.273
 21
99.5051
  0
LINE
  8
0
 10
133.273
 20
99.5051
 11
133.443
 21
99.7117
  0
LINE
  8
0
 10
133.443
 20
99.7117
 11
133.639
 21
99.8953
  0
LINE
  8
0
 10
133.639
 20
99.8953
 11
133.856
 21
100.053
  0
LINE
  8
0
 10
133.856
 20
100.053
 11
134.091
 21
100.182
  0
LINE
  8
0
 10
134.091
 20
100.182
 11
134.34
 21
100.281
  0
LINE
  8
0
 10
134.34
 20
100.281
 11
134.6
 21
100.347
  0
LINE
  8
0
 10
134.6
 20
100.347
 11
134.866
 21
100.381
  0
LINE
  8
0
 10
134.866
 20
100.381
 11
135.134
 21
100.381
  0
LINE
  8
0
 10
135.134
 20
100.381
 11
135.4
 21
100.347
  0
LINE
  8
0
 10
135.4
 20
100.347
 11
135.66
 21
100.281
  0
LINE
  8
0
 10
135.66
 20
100.281
 11
135.909
 21
100.182
  0
LINE
  8
0
 10
135.909
 20
100.182
 11
136.144
 21
100.053
  0
LINE
  8
0
 10
136.144
 20
100.053
 11
136.361
 21
99.8953
  0
LINE
  8
0
 10
136.361
 20
99.8953
 11
136.557
 21
99.7117
  0
LINE
  8
0
 10
136.557
 20
99.7117
 11
136.727
 21
99.5051
  0
LINE
  8
0
 10
136.727
 20
99.5051
 11
136.871
 21
99.2787
  0
LINE
  8
0
 10
136.871
 20
99.2787
 11
136.985
 21
99.036
  0
LINE
  8
0
 10
136.985
 20
99.036
 11
137.068
 21
98.781
  0
LINE
  8
0
 10
137.068
 20
98.781
 11
137.118
 21
98.5176
  0
LINE
  8
0
 10
137.118
 20
98.5176
 11
137.135
 21
98.25
  0
LINE
  8
0
 10
137.135
 20
98.25
 11
137.118
 21
97.9824
  0
LINE
  8
0
 10
137.118
 20
97.9824
 11
137.068
 21
97.719
  0
LINE
  8
0
 10
137.068
 20
97.719
 11
136.985
 21
97.4639
  0
LINE
  8
0
 10
136.985
 20
97.4639
 11
136.871
 21
97.2213
  0
LINE
  8
0
 10
136.871
 20
97.2213
 11
136.727
 21
96.9949
  0
LINE
  8
0
 10
136.727
 20
96.9949
 11
136.557
 21
96.7883
  0
LINE
  8
0
 10
136.557
 20
96.7883
 11
136.361
 21
96.6047
  0
LINE
  8
0
 10
136.361
 20
96.6047
 11
136.144
 21
96.4471
  0
LINE
  8
0
 10
136.144
 20
96.4471
 11
135.909
 21
96.3179
  0
LINE
  8
0
 10
135.909
 20
96.3179
 11
135.66
 21
96.2192
  0
LINE
  8
0
 10
135.66
 20
96.2192
 11
135.4
 21
96.1525
  0
LINE
  8
0
 10
135.4
 20
96.1525
 11
135.134
 21
96.1189
  0
LINE
  8
0
 10
135.134
 20
96.1189
 11
134.866
 21
96.1189
  0
LINE
  8
0
 10
-135.134
 20
96.1189
 11
-135.4
 21
96.1525
  0
LINE
  8
0
 10
-135.4
 20
96.1525
 11
-135.66
 21
96.2192
  0
LINE
  8
0
 10
-135.66
 20
96.2192
 11
-135.909
 21
96.3179
  0
LINE
  8
0
 10
-135.909
 20
96.3179
 11
-136.144
 21
96.4471
  0
LINE
  8
0
 10
-136.144
 20
96.4471
 11
-136.361
 21
96.6047
  0
LINE
  8
0
 10
-136.361
 20
96.6047
 11
-136.557
 21
96.7883
  0
LINE
  8
0
 10
-136.557
 20
96.7883
 11
-136.727
 21
96.9949
  0
LINE
  8
0
 10
-136.727
 20
96.9949
 11
-136.871
 21
97.2213
  0
LINE
  8
0
 10
-136.871
 20
97.2213
 11
-136.985
 21
97.4639
  0
LINE
  8
0
 10
-136.985
 20
97.4639
 11
-137.068
 21
97.719
  0
LINE
  8
0
 10
-137.068
 20
97.719
 11
-137.118
 21
97.9824
  0
LINE
  8
0
 10
-137.118
 20
97.9824
 11
-137.135
 21
98.25
  0
LINE
  8
0
 10
-137.135
 20
98.25
 11
-137.118
 21
98.5176
  0
LINE
  8
0
 10
-137.118
 20
98.5176
 11
-137.068
 21
98.781
  0
LINE
  8
0
 10
-137.068
 20
98.781
 11
-136.985
 21
99.036
  0
LINE
  8
0
 10
-136.985
 20
99.036
 11
-136.871
 21
99.2787
  0
LINE
  8
0
 10
-136.871
 20
99.2787
 11
-136.727
 21
99.5051
  0
LINE
  8
0
 10
-136.727
 20
99.5051
 11
-136.557
 21
99.7117
  0
LINE
  8
0
 10
-136.557
 20
99.7117
 11
-136.361
 21
99.8953
  0
LINE
  8
0
 10
-136.361
 20
99.8953
 11
-136.144
 21
100.053
  0
LINE
  8
0
 10
-136.144
 20
100.053
 11
-135.909
 21
100.182
  0
LINE
  8
0
 10
-135.909
 20
100.182
 11
-135.66
 21
100.281
  0
LINE
  8
0
 10
-135.66
 20
100.281
 11
-135.4
 21
100.347
  0
LINE
  8
0
 10
-135.4
 20
100.347
 11
-135.134
 21
100.381
  0
LINE
  8
0
 10
-135.134
 20
100.381
 11
-134.866
 21
100.381
  0
LINE
  8
0
 10
-134.866
 20
100.381
 11
-134.6
 21
100.347
  0
LINE
  8
0
 10
-134.6
 20
100.347
 11
-134.34
 21
100.281
  0
LINE
  8
0
 10
-134.34
 20
100.281
 11
-134.091
 21
100.182
  0
LINE
  8
0
 10
-134.091
 20
100.182
 11
-133.856
 21
100.053
  0
LINE
  8
0
 10
-133.856
 20
100.053
 11
-133.639
 21
99.8953
  0
LINE
  8
0
 10
-133.639
 20
99.8953
 11
-133.443
 21
99.7117
  0
LINE
  8
0
 10
-133.443
 20
99.7117
 11
-133.273
 21
99.5051
  0
LINE
  8
0
 10
-133.273
 20
99.5051
 11
-133.129
 21
99.2787
  0
LINE
  8
0
 10
-133.129
 20
99.2787
 11
-133.015
 21
99.036
  0
LINE
  8
0
 10
-133.015
 20
99.036
 11
-132.932
 21
98.781
  0
LINE
  8
0
 10
-132.932
 20
98.781
 11
-132.882
 21
98.5176
  0
LINE
  8
0
 10
-132.882
 20
98.5176
 11
-132.865
 21
98.25
  0
LINE
  8
0
 10
-132.865
 20
98.25
 11
-132.882
 21
97.9824
  0
LINE
  8
0
 10
-132.882
 20
97.9824
 11
-132.932
 21
97.719
  0
LINE
  8
0
 10
-132.932
 20
97.719
 11
-133.015
 21
97.4639
  0
LINE
  8
0
 10
-133.015
 20
97.4639
 11
-133.129
 21
97.2213
  0
LINE
  8
0
 10
-133.129
 20
97.2213
 11
-133.273
 21
96.9949
  0
LINE
  8
0
 10
-133.273
 20
96.9949
 11
-133.443
 21
96.7883
  0
LINE
  8
0
 10
-133.443
 20
96.7883
 11
-133.639
 21
96.6047
  0
LINE
  8
0
 10
-133.639
 20
96.6047
 11
-133.856
 21
96.4471
  0
LINE
  8
0
 10
-133.856
 20
96.4471
 11
-134.091
 21
96.3179
  0
LINE
  8
0
 10
-134.091
 20
96.3179
 11
-134.34
 21
96.2192
  0
LINE
  8
0
 10
-134.34
 20
96.2192
 11
-134.6
 21
96.1525
  0
LINE
  8
0
 10
-134.6
 20
96.1525
 11
-134.866
 21
96.1189
  0
LINE
  8
0
 10
-134.866
 20
96.1189
 11
-135.134
 21
96.1189
  0
LINE
  8
0
 10
134.866
 20
88.6189
 11
134.6
 21
88.6525
  0
LINE
  8
0
 10
134.6
 20
88.6525
 11
134.34
 21
88.7192
  0
LINE
  8
0
 10
134.34
 20
88.7192
 11
134.091
 21
88.8179
  0
LINE
  8
0
 10
134.091
 20
88.8179
 11
133.856
 21
88.9471
  0
LINE
  8
0
 10
133.856
 20
88.9471
 11
133.639
 21
89.1047
  0
LINE
  8
0
 10
133.639
 20
89.1047
 11
133.443
 21
89.2883
  0
LINE
  8
0
 10
133.443
 20
89.2883
 11
133.273
 21
89.4949
  0
LINE
  8
0
 10
133.273
 20
89.4949
 11
133.129
 21
89.7213
  0
LINE
  8
0
 10
133.129
 20
89.7213
 11
133.015
 21
89.964
  0
LINE
  8
0
 10
133.015
 20
89.964
 11
132.932
 21
90.219
  0
LINE
  8
0
 10
132.932
 20
90.219
 11
132.882
 21
90.4824
  0
LINE
  8
0
 10
132.882
 20
90.4824
 11
132.865
 21
90.75
  0
LINE
  8
0
 10
132.865
 20
90.75
 11
132.882
 21
91.0176
  0
LINE
  8
0
 10
132.882
 20
91.0176
 11
132.932
 21
91.281
  0
LINE
  8
0
 10
132.932
 20
91.281
 11
133.015
 21
91.5361
  0
LINE
  8
0
 10
133.015
 20
91.5361
 11
133.129
 21
91.7787
  0
LINE
  8
0
 10
133.129
 20
91.7787
 11
133.273
 21
92.0051
  0
LINE
  8
0
 10
133.273
 20
92.0051
 11
133.443
 21
92.2117
  0
LINE
  8
0
 10
133.443
 20
92.2117
 11
133.639
 21
92.3953
  0
LINE
  8
0
 10
133.639
 20
92.3953
 11
133.856
 21
92.5529
  0
LINE
  8
0
 10
133.856
 20
92.5529
 11
134.091
 21
92.6821
  0
LINE
  8
0
 10
134.091
 20
92.6821
 11
134.34
 21
92.7808
  0
LINE
  8
0
 10
134.34
 20
92.7808
 11
134.6
 21
92.8475
  0
LINE
  8
0
 10
134.6
 20
92.8475
 11
134.866
 21
92.8811
  0
LINE
  8
0
 10
134.866
 20
92.8811
 11
135.134
 21
92.8811
  0
LINE
  8
0
 10
135.134
 20
92.8811
 11
135.4
 21
92.8475
  0
LINE
  8
0
 10
135.4
 20
92.8475
 11
135.66
 21
92.7808
  0
LINE
  8
0
 10
135.66
 20
92.7808
 11
135.909
 21
92.6821
  0
LINE
  8
0
 10
135.909
 20
92.6821
 11
136.144
 21
92.5529
  0
LINE
  8
0
 10
136.144
 20
92.5529
 11
136.361
 21
92.3953
  0
LINE
  8
0
 10
136.361
 20
92.3953
 11
136.557
 21
92.2117
  0
LINE
  8
0
 10
136.557
 20
92.2117
 11
136.727
 21
92.0051
  0
LINE
  8
0
 10
136.727
 20
92.0051
 11
136.871
 21
91.7787
  0
LINE
  8
0
 10
136.871
 20
91.7787
 11
136.985
 21
91.5361
  0
LINE
  8
0
 10
136.985
 20
91.5361
 11
137.068
 21
91.281
  0
LINE
  8
0
 10
137.068
 20
91.281
 11
137.118
 21
91.0176
  0
LINE
  8
0
 10
137.118
 20
91.0176
 11
137.135
 21
90.75
  0
LINE
  8
0
 10
137.135
 20
90.75
 11
137.118
 21
90.4824
  0
LINE
  8
0
 10
137.118
 20
90.4824
 11
137.068
 21
90.219
  0
LINE
  8
0
 10
137.068
 20
90.219
 11
136.985
 21
89.964
  0
LINE
  8
0
 10
136.985
 20
89.964
 11
136.871
 21
89.7213
  0
LINE
  8
0
 10
136.871
 20
89.7213
 11
136.727
 21
89.4949
  0
LINE
  8
0
 10
136.727
 20
89.4949
 11
136.557
 21
89.2883
  0
LINE
  8
0
 10
136.557
 20
89.2883
 11
136.361
 21
89.1047
  0
LINE
  8
0
 10
136.361
 20
89.1047
 11
136.144
 21
88.9471
  0
LINE
  8
0
 10
136.144
 20
88.9471
 11
135.909
 21
88.8179
  0
LINE
  8
0
 10
135.909
 20
88.8179
 11
135.66
 21
88.7192
  0
LINE
  8
0
 10
135.66
 20
88.7192
 11
135.4
 21
88.6525
  0
LINE
  8
0
 10
135.4
 20
88.6525
 11
135.134
 21
88.6189
  0
LINE
  8
0
 10
135.134
 20
88.6189
 11
134.866
 21
88.6189
  0
LINE
  8
0
 10
-135.134
 20
88.6189
 11
-135.4
 21
88.6525
  0
LINE
  8
0
 10
-135.4
 20
88.6525
 11
-135.66
 21
88.7192
  0
LINE
  8
0
 10
-135.66
 20
88.7192
 11
-135.909
 21
88.8179
  0
LINE
  8
0
 10
-135.909
 20
88.8179
 11
-136.144
 21
88.9471
  0
LINE
  8
0
 10
-136.144
 20
88.9471
 11
-136.361
 21
89.1047
  0
LINE
  8
0
 10
-136.361
 20
89.1047
 11
-136.557
 21
89.2883
  0
LINE
  8
0
 10
-136.557
 20
89.2883
 11
-136.727
 21
89.4949
  0
LINE
  8
0
 10
-136.727
 20
89.4949
 11
-136.871
 21
89.7213
  0
LINE
  8
0
 10
-136.871
 20
89.7213
 11
-136.985
 21
89.964
  0
LINE
  8
0
 10
-136.985
 20
89.964
 11
-137.068
 21
90.219
  0
LINE
  8
0
 10
-137.068
 20
90.219
 11
-137.118
 21
90.4824
  0
LINE
  8
0
 10
-137.118
 20
90.4824
 11
-137.135
 21
90.75
  0
LINE
  8
0
 10
-137.135
 20
90.75
 11
-137.118
 21
91.0176
  0
LINE
  8
0
 10
-137.118
 20
91.0176
 11
-137.068
 21
91.281
  0
LINE
  8
0
 10
-137.068
 20
91.281
 11
-136.985
 21
91.5361
  0
LINE
  8
0
 10
-136.985
 20
91.5361
 11
-136.871
 21
91.7787
  0
LINE
  8
0
 10
-136.871
 20
91.7787
 11
-136.727
 21
92.0051
  0
LINE
  8
0
 10
-136.727
 20
92.0051
 11
-136.557
 21
92.2117
  0
LINE
  8
0
 10
-136.557
 20
92.2117
 11
-136.361
 21
92.3953
  0
LINE
  8
0
 10
-136.361
 20
92.3953
 11
-136.144
 21
92.5529
  0
LINE
  8
0
 10
-136.144
 20
92.5529
 11
-135.909
 21
92.6821
  0
LINE
  8
0
 10
-135.909
 20
92.6821
 11
-135.66
 21
92.7808
  0
LINE
  8
0
 10
-135.66
 20
92.7808
 11
-135.4
 21
92.8475
  0
LINE
  8
0
 10
-135.4
 20
92.8475
 11
-135.134
 21
92.8811
  0
LINE
  8
0
 10
-135.134
 20
92.8811
 11
-134.866
 21
92.8811
  0
LINE
  8
0
 10
-134.866
 20
92.8811
 11
-134.6
 21
92.8475
  0
LINE
  8
0
 10
-134.6
 20
92.8475
 11
-134.34
 21
92.7808
  0
LINE
  8
0
 10
-134.34
 20
92.7808
 11
-134.091
 21
92.6821
  0
LINE
  8
0
 10
-134.091
 20
92.6821
 11
-133.856
 21
92.5529
  0
LINE
  8
0
 10
-133.856
 20
92.5529
 11
-133.639
 21
92.3953
  0
LINE
  8
0
 10
-133.639
 20
92.3953
 11
-133.443
 21
92.2117
  0
LINE
  8
0
 10
-133.443
 20
92.2117
 11
-133.273
 21
92.0051
  0
LINE
  8
0
 10
-133.273
 20
92.0051
 11
-133.129
 21
91.7787
  0
LINE
  8
0
 10
-133.129
 20
91.7787
 11
-133.015
 21
91.5361
  0
LINE
  8
0
 10
-133.015
 20
91.5361
 11
-132.932
 21
91.281
  0
LINE
  8
0
 10
-132.932
 20
91.281
 11
-132.882
 21
91.0176
  0
LINE
  8
0
 10
-132.882
 20
91.0176
 11
-132.865
 21
90.75
  0
LINE
  8
0
 10
-132.865
 20
90.75
 11
-132.882
 21
90.4824
  0
LINE
  8
0
 10
-132.882
 20
90.4824
 11
-132.932
 21
90.219
  0
LINE
  8
0
 10
-132.932
 20
90.219
 11
-133.015
 21
89.964
  0
LINE
  8
0
 10
-133.015
 20
89.964
 11
-133.129
 21
89.7213
  0
LINE
  8
0
 10
-133.129
 20
89.7213
 11
-133.273
 21
89.4949
  0
LINE
  8
0
 10
-133.273
 20
89.4949
 11
-133.443
 21
89.2883
  0
LINE
  8
0
 10
-133.443
 20
89.2883
 11
-133.639
 21
89.1047
  0
LINE
  8
0
 10
-133.639
 20
89.1047
 11
-133.856
 21
88.9471
  0
LINE
  8
0
 10
-133.856
 20
88.9471
 11
-134.091
 21
88.8179
  0
LINE
  8
0
 10
-134.091
 20
88.8179
 11
-134.34
 21
88.7192
  0
LINE
  8
0
 10
-134.34
 20
88.7192
 11
-134.6
 21
88.6525
  0
LINE
  8
0
 10
-134.6
 20
88.6525
 11
-134.866
 21
88.6189
  0
LINE
  8
0
 10
-134.866
 20
88.6189
 11
-135.134
 21
88.6189
  0
ENDSEC
  0
SECTION
  2
OBJECTS
  0
DICTIONARY
  0
ENDSEC
  0
EOF
