<?xml version="1.0" standalone="no"?>
<!DOCTYPE svg PUBLIC "-//W3C//DTD SVG 1.1//EN" "http://www.w3.org/Graphics/SVG/1.1/DTD/svg11.dtd">
<svg width="242mm" height="576mm" viewBox="-122 -1146 242 576" xmlns="http://www.w3.org/2000/svg" version="1.1">
<title>OpenSCAD Model</title>
<path d="
M 115.937,-1116.09 L 116.545,-1116.24 L 117.129,-1116.48 L 117.679,-1116.78 L 118.187,-1117.15 L 118.645,-1117.58
 L 119.045,-1118.06 L 119.382,-1118.59 L 119.649,-1119.16 L 119.843,-1119.76 L 119.961,-1120.37 L 120,-1121
 L 120,-1141 L 119.961,-1141.63 L 119.843,-1142.24 L 119.649,-1142.84 L 119.382,-1143.41 L 119.045,-1143.94
 L 118.645,-1144.42 L 118.187,-1144.85 L 117.679,-1145.22 L 117.129,-1145.52 L 116.545,-1145.76 L 115.937,-1145.91
 L 115.314,-1145.99 L -115.314,-1145.99 L -115.937,-1145.91 L -116.545,-1145.76 L -117.129,-1145.52 L -117.679,-1145.22
 L -118.187,-1144.85 L -118.645,-1144.42 L -119.045,-1143.94 L -119.382,-1143.41 L -119.649,-1142.84 L -119.843,-1142.24
 L -119.961,-1141.63 L -120,-1141 L -120,-1121 L -119.961,-1120.37 L -119.843,-1119.76 L -119.649,-1119.16
 L -119.382,-1118.59 L -119.045,-1118.06 L -118.645,-1117.58 L -118.187,-1117.15 L -117.679,-1116.78 L -117.129,-1116.48
 L -116.545,-1116.24 L -115.937,-1116.09 L -115.314,-1116.01 L 115.314,-1116.01 z
M -114.751,-1117.51 L -115.25,-1117.57 L -115.736,-1117.7 L -116.203,-1117.88 L -116.643,-1118.12 L -117.05,-1118.42
 L -117.416,-1118.76 L -117.736,-1119.15 L -118.005,-1119.57 L -118.219,-1120.03 L -118.374,-1120.51 L -118.468,-1121
 L -118.5,-1121.5 L -118.5,-1140.5 L -118.468,-1141 L -118.374,-1141.49 L -118.219,-1141.97 L -118.005,-1142.43
 L -117.736,-1142.85 L -117.416,-1143.24 L -117.05,-1143.58 L -116.643,-1143.88 L -116.203,-1144.12 L -115.736,-1144.3
 L -115.25,-1144.43 L -114.751,-1144.49 L 114.751,-1144.49 L 115.25,-1144.43 L 115.736,-1144.3 L 116.203,-1144.12
 L 116.643,-1143.88 L 117.05,-1143.58 L 117.416,-1143.24 L 117.736,-1142.85 L 118.005,-1142.43 L 118.219,-1141.97
 L 118.374,-1141.49 L 118.468,-1141 L 118.5,-1140.5 L 118.5,-1121.5 L 118.468,-1121 L 118.374,-1120.51
 L 118.219,-1120.03 L 118.005,-1119.57 L 117.736,-1119.15 L 117.416,-1118.76 L 117.05,-1118.42 L 116.643,-1118.12
 L 116.203,-1117.88 L 115.736,-1117.7 L 115.25,-1117.57 L 114.751,-1117.51 z
M 115.937,-1077.09 L 116.545,-1077.24 L 117.129,-1077.48 L 117.679,-1077.78 L 118.187,-1078.15 L 118.645,-1078.58
 L 119.045,-1079.06 L 119.382,-1079.59 L 119.649,-1080.16 L 119.843,-1080.76 L 119.961,-1081.37 L 120,-1082
 L 120,-1102 L 119.961,-1102.63 L 119.843,-1103.24 L 119.649,-1103.84 L 119.382,-1104.41 L 119.045,-1104.94
 L 118.645,-1105.42 L 118.187,-1105.85 L 117.679,-1106.22 L 117.129,-1106.52 L 116.545,-1106.76 L 115.937,-1106.91
 L 115.314,-1106.99 L -115.314,-1106.99 L -115.937,-1106.91 L -116.545,-1106.76 L -117.129,-1106.52 L -117.679,-1106.22
 L -118.187,-1105.85 L -118.645,-1105.42 L -119.045,-1104.94 L -119.382,-1104.41 L -119.649,-1103.84 L -119.843,-1103.24
 L -119.961,-1102.63 L -120,-1102 L -120,-1082 L -119.961,-1081.37 L -119.843,-1080.76 L -119.649,-1080.16
 L -119.382,-1079.59 L -119.045,-1079.06 L -118.645,-1078.58 L -118.187,-1078.15 L -117.679,-1077.78 L -117.129,-1077.48
 L -116.545,-1077.24 L -115.937,-1077.09 L -115.314,-1077.01 L 115.314,-1077.01 z
M -114.751,-1078.51 L -115.25,-1078.57 L -115.736,-1078.7 L -116.203,-1078.88 L -116.643,-1079.12 L -117.05,-1079.42
 L -117.416,-1079.76 L -117.736,-1080.15 L -118.005,-1080.57 L -118.219,-1081.03 L -118.374,-1081.51 L -118.468,-1082
 L -118.5,-1082.5 L -118.5,-1101.5 L -118.468,-1102 L -118.374,-1102.49 L -118.219,-1102.97 L -118.005,-1103.43
 L -117.736,-1103.85 L -117.416,-1104.24 L -117.05,-1104.58 L -116.643,-1104.88 L -116.203,-1105.12 L -115.736,-1105.3
 L -115.25,-1105.43 L -114.751,-1105.49 L 114.751,-1105.49 L 115.25,-1105.43 L 115.736,-1105.3 L 116.203,-1105.12
 L 116.643,-1104.88 L 117.05,-1104.58 L 117.416,-1104.24 L 117.736,-1103.85 L 118.005,-1103.43 L 118.219,-1102.97
 L 118.374,-1102.49 L 118.468,-1102 L 118.5,-1101.5 L 118.5,-1082.5 L 118.468,-1082 L 118.374,-1081.51
 L 118.219,-1081.03 L 118.005,-1080.57 L 117.736,-1080.15 L 117.416,-1079.76 L 117.05,-1079.42 L 116.643,-1079.12
 L 116.203,-1078.88 L 115.736,-1078.7 L 115.25,-1078.57 L 114.751,-1078.51 z
M 115.937,-1038.09 L 116.545,-1038.24 L 117.129,-1038.48 L 117.679,-1038.78 L 118.187,-1039.15 L 118.645,-1039.58
 L 119.045,-1040.06 L 119.382,-1040.59 L 119.649,-1041.16 L 119.843,-1041.76 L 119.961,-1042.37 L 120,-1043
 L 120,-1063 L 119.961,-1063.63 L 119.843,-1064.24 L 119.649,-1064.84 L 119.382,-1065.41 L 119.045,-1065.94
 L 118.645,-1066.42 L 118.187,-1066.85 L 117.679,-1067.22 L 117.129,-1067.52 L 116.545,-1067.76 L 115.937,-1067.91
 L 115.314,-1067.99 L -115.314,-1067.99 L -115.937,-1067.91 L -116.545,-1067.76 L -117.129,-1067.52 L -117.679,-1067.22
 L -118.187,-1066.85 L -118.645,-1066.42 L -119.045,-1065.94 L -119.382,-1065.41 L -119.649,-1064.84 L -119.843,-1064.24
 L -119.961,-1063.63 L -120,-1063 L -120,-1043 L -119.961,-1042.37 L -119.843,-1041.76 L -119.649,-1041.16
 L -119.382,-1040.59 L -119.045,-1040.06 L -118.645,-1039.58 L -118.187,-1039.15 L -117.679,-1038.78 L -117.129,-1038.48
 L -116.545,-1038.24 L -115.937,-1038.09 L -115.314,-1038.01 L 115.314,-1038.01 z
M -114.751,-1039.51 L -115.25,-1039.57 L -115.736,-1039.7 L -116.203,-1039.88 L -116.643,-1040.12 L -117.05,-1040.42
 L -117.416,-1040.76 L -117.736,-1041.15 L -118.005,-1041.57 L -118.219,-1042.03 L -118.374,-1042.51 L -118.468,-1043
 L -118.5,-1043.5 L -118.5,-1062.5 L -118.468,-1063 L -118.374,-1063.49 L -118.219,-1063.97 L -118.005,-1064.43
 L -117.736,-1064.85 L -117.416,-1065.24 L -117.05,-1065.58 L -116.643,-1065.88 L -116.203,-1066.12 L -115.736,-1066.3
 L -115.25,-1066.43 L -114.751,-1066.49 L 114.751,-1066.49 L 115.25,-1066.43 L 115.736,-1066.3 L 116.203,-1066.12
 L 116.643,-1065.88 L 117.05,-1065.58 L 117.416,-1065.24 L 117.736,-1064.85 L 118.005,-1064.43 L 118.219,-1063.97
 L 118.374,-1063.49 L 118.468,-1063 L 118.5,-1062.5 L 118.5,-1043.5 L 118.468,-1043 L 118.374,-1042.51
 L 118.219,-1042.03 L 118.005,-1041.57 L 117.736,-1041.15 L 117.416,-1040.76 L 117.05,-1040.42 L 116.643,-1040.12
 L 116.203,-1039.88 L 115.736,-1039.7 L 115.25,-1039.57 L 114.751,-1039.51 z
M 115.937,-999.089 L 116.545,-999.245 L 117.129,-999.476 L 117.679,-999.778 L 118.187,-1000.15 L 118.645,-1000.58
 L 119.045,-1001.06 L 119.382,-1001.59 L 119.649,-1002.16 L 119.843,-1002.76 L 119.961,-1003.37 L 120,-1004
 L 120,-1024 L 119.961,-1024.63 L 119.843,-1025.24 L 119.649,-1025.84 L 119.382,-1026.41 L 119.045,-1026.94
 L 118.645,-1027.42 L 118.187,-1027.85 L 117.679,-1028.22 L 117.129,-1028.52 L 116.545,-1028.76 L 115.937,-1028.91
 L 115.314,-1028.99 L -115.314,-1028.99 L -115.937,-1028.91 L -116.545,-1028.76 L -117.129,-1028.52 L -117.679,-1028.22
 L -118.187,-1027.85 L -118.645,-1027.42 L -119.045,-1026.94 L -119.382,-1026.41 L -119.649,-1025.84 L -119.843,-1025.24
 L -119.961,-1024.63 L -120,-1024 L -120,-1004 L -119.961,-1003.37 L -119.843,-1002.76 L -119.649,-1002.16
 L -119.382,-1001.59 L -119.045,-1001.06 L -118.645,-1000.58 L -118.187,-1000.15 L -117.679,-999.778 L -117.129,-999.476
 L -116.545,-999.245 L -115.937,-999.089 L -115.314,-999.01 L 115.314,-999.01 z
M -114.751,-1000.51 L -115.25,-1000.57 L -115.736,-1000.7 L -116.203,-1000.88 L -116.643,-1001.12 L -117.05,-1001.42
 L -117.416,-1001.76 L -117.736,-1002.15 L -118.005,-1002.57 L -118.219,-1003.03 L -118.374,-1003.51 L -118.468,-1004
 L -118.5,-1004.5 L -118.5,-1023.5 L -118.468,-1024 L -118.374,-1024.49 L -118.219,-1024.97 L -118.005,-1025.43
 L -117.736,-1025.85 L -117.416,-1026.24 L -117.05,-1026.58 L -116.643,-1026.88 L -116.203,-1027.12 L -115.736,-1027.3
 L -115.25,-1027.43 L -114.751,-1027.49 L 114.751,-1027.49 L 115.25,-1027.43 L 115.736,-1027.3 L 116.203,-1027.12
 L 116.643,-1026.88 L 117.05,-1026.58 L 117.416,-1026.24 L 117.736,-1025.85 L 118.005,-1025.43 L 118.219,-1024.97
 L 118.374,-1024.49 L 118.468,-1024 L 118.5,-1023.5 L 118.5,-1004.5 L 118.468,-1004 L 118.374,-1003.51
 L 118.219,-1003.03 L 118.005,-1002.57 L 117.736,-1002.15 L 117.416,-1001.76 L 117.05,-1001.42 L 116.643,-1001.12
 L 116.203,-1000.88 L 115.736,-1000.7 L 115.25,-1000.57 L 114.751,-1000.51 z
M 115.937,-960.089 L 116.545,-960.245 L 117.129,-960.476 L 117.679,-960.778 L 118.187,-961.147 L 118.645,-961.577
 L 119.045,-962.061 L 119.382,-962.591 L 119.649,-963.159 L 119.843,-963.757 L 119.961,-964.373 L 120,-965
 L 120,-985 L 119.961,-985.627 L 119.843,-986.243 L 119.649,-986.841 L 119.382,-987.409 L 119.045,-987.939
 L 118.645,-988.423 L 118.187,-988.853 L 117.679,-989.222 L 117.129,-989.524 L 116.545,-989.755 L 115.937,-989.911
 L 115.314,-989.99 L -115.314,-989.99 L -115.937,-989.911 L -116.545,-989.755 L -117.129,-989.524 L -117.679,-989.222
 L -118.187,-988.853 L -118.645,-988.423 L -119.045,-987.939 L -119.382,-987.409 L -119.649,-986.841 L -119.843,-986.243
 L -119.961,-985.627 L -120,-985 L -120,-965 L -119.961,-964.373 L -119.843,-963.757 L -119.649,-963.159
 L -119.382,-962.591 L -119.045,-962.061 L -118.645,-961.577 L -118.187,-961.147 L -117.679,-960.778 L -117.129,-960.476
 L -116.545,-960.245 L -115.937,-960.089 L -115.314,-960.01 L 115.314,-960.01 z
M -114.751,-961.508 L -115.25,-961.571 L -115.736,-961.696 L -116.203,-961.881 L -116.643,-962.123 L -117.05,-962.418
 L -117.416,-962.762 L -117.736,-963.149 L -118.005,-963.573 L -118.219,-964.028 L -118.374,-964.505 L -118.468,-964.999
 L -118.5,-965.5 L -118.5,-984.5 L -118.468,-985.001 L -118.374,-985.495 L -118.219,-985.972 L -118.005,-986.427
 L -117.736,-986.851 L -117.416,-987.238 L -117.05,-987.582 L -116.643,-987.877 L -116.203,-988.119 L -115.736,-988.304
 L -115.25,-988.429 L -114.751,-988.492 L 114.751,-988.492 L 115.25,-988.429 L 115.736,-988.304 L 116.203,-988.119
 L 116.643,-987.877 L 117.05,-987.582 L 117.416,-987.238 L 117.736,-986.851 L 118.005,-986.427 L 118.219,-985.972
 L 118.374,-985.495 L 118.468,-985.001 L 118.5,-984.5 L 118.5,-965.5 L 118.468,-964.999 L 118.374,-964.505
 L 118.219,-964.028 L 118.005,-963.573 L 117.736,-963.149 L 117.416,-962.762 L 117.05,-962.418 L 116.643,-962.123
 L 116.203,-961.881 L 115.736,-961.696 L 115.25,-961.571 L 114.751,-961.508 z
M 115.937,-921.089 L 116.545,-921.245 L 117.129,-921.476 L 117.679,-921.778 L 118.187,-922.147 L 118.645,-922.577
 L 119.045,-923.061 L 119.382,-923.591 L 119.649,-924.159 L 119.843,-924.757 L 119.961,-925.373 L 120,-926
 L 120,-946 L 119.961,-946.627 L 119.843,-947.243 L 119.649,-947.841 L 119.382,-948.409 L 119.045,-948.939
 L 118.645,-949.423 L 118.187,-949.853 L 117.679,-950.222 L 117.129,-950.524 L 116.545,-950.755 L 115.937,-950.911
 L 115.314,-950.99 L -115.314,-950.99 L -115.937,-950.911 L -116.545,-950.755 L -117.129,-950.524 L -117.679,-950.222
 L -118.187,-949.853 L -118.5,-949.559 L -121.5,-949.559 L -121.5,-922.441 L -118.5,-922.441 L -118.187,-922.147
 L -117.679,-921.778 L -117.129,-921.476 L -116.545,-921.245 L -115.937,-921.089 L -115.314,-921.01 L 115.314,-921.01
 z
M -114.751,-922.508 L -115.25,-922.571 L -115.736,-922.696 L -116.203,-922.881 L -116.643,-923.123 L -117.05,-923.418
 L -117.416,-923.762 L -117.736,-924.149 L -118.005,-924.573 L -118.219,-925.028 L -118.374,-925.505 L -118.468,-925.999
 L -118.5,-926.5 L -118.5,-945.5 L -118.468,-946.001 L -118.374,-946.495 L -118.219,-946.972 L -118.005,-947.427
 L -117.736,-947.851 L -117.416,-948.238 L -117.05,-948.582 L -116.643,-948.877 L -116.203,-949.119 L -115.736,-949.304
 L -115.25,-949.429 L -114.751,-949.492 L 114.751,-949.492 L 115.25,-949.429 L 115.736,-949.304 L 116.203,-949.119
 L 116.643,-948.877 L 117.05,-948.582 L 117.416,-948.238 L 117.736,-947.851 L 118.005,-947.427 L 118.219,-946.972
 L 118.374,-946.495 L 118.468,-946.001 L 118.5,-945.5 L 118.5,-926.5 L 118.468,-925.999 L 118.374,-925.505
 L 118.219,-925.028 L 118.005,-924.573 L 117.736,-924.149 L 117.416,-923.762 L 117.05,-923.418 L 116.643,-923.123
 L 116.203,-922.881 L 115.736,-922.696 L 115.25,-922.571 L 114.751,-922.508 z
M 115.937,-882.089 L 116.545,-882.245 L 117.129,-882.476 L 117.679,-882.778 L 118.187,-883.147 L 118.645,-883.577
 L 119.045,-884.061 L 119.382,-884.591 L 119.649,-885.159 L 119.843,-885.757 L 119.961,-886.373 L 120,-887
 L 120,-907 L 119.961,-907.627 L 119.843,-908.243 L 119.649,-908.841 L 119.382,-909.409 L 119.045,-909.939
 L 118.645,-910.423 L 118.187,-910.853 L 117.679,-911.222 L 117.129,-911.524 L 116.545,-911.755 L 115.937,-911.911
 L 115.314,-911.99 L -115.314,-911.99 L -115.937,-911.911 L -116.545,-911.755 L -117.129,-911.524 L -117.679,-911.222
 L -118.187,-910.853 L -118.5,-910.559 L -118.5,-911.967 L -121.5,-911.967 L -121.5,-882.033 L -118.5,-882.033
 L -118.5,-883.441 L -118.187,-883.147 L -117.679,-882.778 L -117.129,-882.476 L -116.545,-882.245 L -115.937,-882.089
 L -115.314,-882.01 L 115.314,-882.01 z
M -114.751,-883.508 L -115.25,-883.571 L -115.736,-883.696 L -116.203,-883.881 L -116.643,-884.123 L -117.05,-884.418
 L -117.416,-884.762 L -117.736,-885.149 L -118.005,-885.573 L -118.219,-886.028 L -118.374,-886.505 L -118.468,-886.999
 L -118.5,-887.5 L -118.5,-906.5 L -118.468,-907.001 L -118.374,-907.495 L -118.219,-907.972 L -118.005,-908.427
 L -117.736,-908.851 L -117.416,-909.238 L -117.05,-909.582 L -116.643,-909.877 L -116.203,-910.119 L -115.736,-910.304
 L -115.25,-910.429 L -114.751,-910.492 L 114.751,-910.492 L 115.25,-910.429 L 115.736,-910.304 L 116.203,-910.119
 L 116.643,-909.877 L 117.05,-909.582 L 117.416,-909.238 L 117.736,-908.851 L 118.005,-908.427 L 118.219,-907.972
 L 118.374,-907.495 L 118.468,-907.001 L 118.5,-906.5 L 118.5,-887.5 L 118.468,-886.999 L 118.374,-886.505
 L 118.219,-886.028 L 118.005,-885.573 L 117.736,-885.149 L 117.416,-884.762 L 117.05,-884.418 L 116.643,-884.123
 L 116.203,-883.881 L 115.736,-883.696 L 115.25,-883.571 L 114.751,-883.508 z
M -118.5,-844.441 L -118.187,-844.147 L -117.679,-843.778 L -117.129,-843.476 L -116.545,-843.245 L -115.937,-843.089
 L -115.314,-843.01 L 115.314,-843.01 L 115.937,-843.089 L 116.545,-843.245 L 117.129,-843.476 L 117.679,-843.778
 L 118.187,-844.147 L 118.645,-844.577 L 119.045,-845.061 L 119.382,-845.591 L 119.649,-846.159 L 119.843,-846.757
 L 119.961,-847.373 L 120,-848 L 120,-868 L 119.961,-868.627 L 119.843,-869.243 L 119.649,-869.841
 L 119.382,-870.409 L 119.045,-870.939 L 118.645,-871.423 L 118.187,-871.853 L 117.679,-872.222 L 117.129,-872.524
 L 116.545,-872.755 L 115.937,-872.911 L 115.314,-872.99 L -115.314,-872.99 L -115.937,-872.911 L -116.545,-872.755
 L -117.129,-872.524 L -117.679,-872.222 L -118.187,-871.853 L -118.5,-871.559 L -118.5,-872.99 L -121.5,-872.99
 L -121.5,-868.494 L -118.374,-868.494 L -118.374,-868.495 L -118.219,-868.972 L -118.005,-869.427 L -117.736,-869.851
 L -117.416,-870.238 L -117.05,-870.582 L -116.643,-870.877 L -116.203,-871.119 L -115.736,-871.304 L -115.25,-871.429
 L -114.751,-871.492 L 114.751,-871.492 L 115.25,-871.429 L 115.736,-871.304 L 116.203,-871.119 L 116.643,-870.877
 L 117.05,-870.582 L 117.416,-870.238 L 117.736,-869.851 L 118.005,-869.427 L 118.219,-868.972 L 118.374,-868.495
 L 118.468,-868.001 L 118.5,-867.5 L 118.5,-848.5 L 118.468,-847.999 L 118.374,-847.505 L 118.219,-847.028
 L 118.005,-846.573 L 117.736,-846.149 L 117.416,-845.762 L 117.05,-845.418 L 116.643,-845.123 L 116.203,-844.881
 L 115.736,-844.696 L 115.25,-844.571 L 114.751,-844.508 L -114.751,-844.508 L -115.25,-844.571 L -115.736,-844.696
 L -116.203,-844.881 L -116.643,-845.123 L -117.05,-845.418 L -117.416,-845.762 L -117.736,-846.149 L -118.005,-846.573
 L -118.219,-847.028 L -118.374,-847.505 L -118.374,-847.506 L -121.5,-847.506 L -121.5,-843.01 L -118.5,-843.01
 z
M -118.5,-862.506 L -121.5,-862.506 L -121.5,-853.494 L -118.5,-853.494 z
M -118.5,-805.441 L -118.187,-805.147 L -117.679,-804.778 L -117.129,-804.476 L -116.545,-804.245 L -115.937,-804.089
 L -115.314,-804.01 L 115.314,-804.01 L 115.937,-804.089 L 116.545,-804.245 L 117.129,-804.476 L 117.679,-804.778
 L 118.187,-805.147 L 118.645,-805.577 L 119.045,-806.061 L 119.382,-806.591 L 119.649,-807.159 L 119.843,-807.757
 L 119.961,-808.373 L 120,-809 L 120,-829 L 119.961,-829.627 L 119.843,-830.243 L 119.649,-830.841
 L 119.382,-831.409 L 119.045,-831.939 L 118.645,-832.423 L 118.187,-832.853 L 117.679,-833.222 L 117.129,-833.524
 L 116.545,-833.755 L 115.937,-833.911 L 115.314,-833.99 L -115.314,-833.99 L -115.937,-833.911 L -116.545,-833.755
 L -117.129,-833.524 L -117.679,-833.222 L -118.187,-832.853 L -118.5,-832.559 L -118.5,-833.99 L -121.5,-833.99
 L -121.5,-804.01 L -118.5,-804.01 z
M -114.751,-805.508 L -115.25,-805.571 L -115.736,-805.696 L -116.203,-805.881 L -116.643,-806.123 L -117.05,-806.418
 L -117.416,-806.762 L -117.736,-807.149 L -118.005,-807.573 L -118.219,-808.028 L -118.374,-808.505 L -118.468,-808.999
 L -118.5,-809.5 L -118.5,-828.5 L -118.468,-829.001 L -118.374,-829.495 L -118.219,-829.972 L -118.005,-830.427
 L -117.736,-830.851 L -117.416,-831.238 L -117.05,-831.582 L -116.643,-831.877 L -116.203,-832.119 L -115.736,-832.304
 L -115.25,-832.429 L -114.751,-832.492 L 114.751,-832.492 L 115.25,-832.429 L 115.736,-832.304 L 116.203,-832.119
 L 116.643,-831.877 L 117.05,-831.582 L 117.416,-831.238 L 117.736,-830.851 L 118.005,-830.427 L 118.219,-829.972
 L 118.374,-829.495 L 118.468,-829.001 L 118.5,-828.5 L 118.5,-809.5 L 118.468,-808.999 L 118.374,-808.505
 L 118.219,-808.028 L 118.005,-807.573 L 117.736,-807.149 L 117.416,-806.762 L 117.05,-806.418 L 116.643,-806.123
 L 116.203,-805.881 L 115.736,-805.696 L 115.25,-805.571 L 114.751,-805.508 z
M -118.5,-766.441 L -118.187,-766.147 L -117.679,-765.778 L -117.129,-765.476 L -116.545,-765.245 L -115.937,-765.089
 L -115.314,-765.01 L 115.314,-765.01 L 115.937,-765.089 L 116.545,-765.245 L 117.129,-765.476 L 117.679,-765.778
 L 118.187,-766.147 L 118.645,-766.577 L 119.045,-767.061 L 119.382,-767.591 L 119.649,-768.159 L 119.843,-768.757
 L 119.961,-769.373 L 120,-770 L 120,-790 L 119.961,-790.627 L 119.843,-791.243 L 119.649,-791.841
 L 119.382,-792.409 L 119.045,-792.939 L 118.645,-793.423 L 118.187,-793.853 L 117.679,-794.222 L 117.129,-794.524
 L 116.545,-794.755 L 115.937,-794.911 L 115.314,-794.99 L -115.314,-794.99 L -115.937,-794.911 L -116.545,-794.755
 L -117.129,-794.524 L -117.679,-794.222 L -118.187,-793.853 L -118.5,-793.559 L -118.5,-794.99 L -121.5,-794.99
 L -121.5,-765.01 L -118.5,-765.01 z
M -114.751,-766.508 L -115.25,-766.571 L -115.736,-766.696 L -116.203,-766.881 L -116.643,-767.123 L -117.05,-767.418
 L -117.416,-767.762 L -117.736,-768.149 L -118.005,-768.573 L -118.219,-769.028 L -118.374,-769.505 L -118.468,-769.999
 L -118.5,-770.5 L -118.5,-789.5 L -118.468,-790.001 L -118.374,-790.495 L -118.219,-790.972 L -118.005,-791.427
 L -117.736,-791.851 L -117.416,-792.238 L -117.05,-792.582 L -116.643,-792.877 L -116.203,-793.119 L -115.736,-793.304
 L -115.25,-793.429 L -114.751,-793.492 L 114.751,-793.492 L 115.25,-793.429 L 115.736,-793.304 L 116.203,-793.119
 L 116.643,-792.877 L 117.05,-792.582 L 117.416,-792.238 L 117.736,-791.851 L 118.005,-791.427 L 118.219,-790.972
 L 118.374,-790.495 L 118.468,-790.001 L 118.5,-789.5 L 118.5,-770.5 L 118.468,-769.999 L 118.374,-769.505
 L 118.219,-769.028 L 118.005,-768.573 L 117.736,-768.149 L 117.416,-767.762 L 117.05,-767.418 L 116.643,-767.123
 L 116.203,-766.881 L 115.736,-766.696 L 115.25,-766.571 L 114.751,-766.508 z
M -118.5,-727.441 L -118.187,-727.147 L -117.679,-726.778 L -117.129,-726.476 L -116.545,-726.245 L -115.937,-726.089
 L -115.314,-726.01 L 115.314,-726.01 L 115.937,-726.089 L 116.545,-726.245 L 117.129,-726.476 L 117.679,-726.778
 L 118.187,-727.147 L 118.645,-727.577 L 119.045,-728.061 L 119.382,-728.591 L 119.649,-729.159 L 119.843,-729.757
 L 119.961,-730.373 L 120,-731 L 120,-751 L 119.961,-751.627 L 119.843,-752.243 L 119.649,-752.841
 L 119.382,-753.409 L 119.045,-753.939 L 118.645,-754.423 L 118.187,-754.853 L 117.679,-755.222 L 117.129,-755.524
 L 116.545,-755.755 L 115.937,-755.911 L 115.314,-755.99 L -115.314,-755.99 L -115.937,-755.911 L -116.545,-755.755
 L -117.129,-755.524 L -117.679,-755.222 L -118.187,-754.853 L -118.5,-754.559 L -118.5,-755.99 L -121.5,-755.99
 L -121.5,-726.01 L -118.5,-726.01 z
M -114.751,-727.508 L -115.25,-727.571 L -115.736,-727.696 L -116.203,-727.881 L -116.643,-728.123 L -117.05,-728.418
 L -117.416,-728.762 L -117.736,-729.149 L -118.005,-729.573 L -118.219,-730.028 L -118.374,-730.505 L -118.468,-730.999
 L -118.5,-731.5 L -118.5,-750.5 L -118.468,-751.001 L -118.374,-751.495 L -118.219,-751.972 L -118.005,-752.427
 L -117.736,-752.851 L -117.416,-753.238 L -117.05,-753.582 L -116.643,-753.877 L -116.203,-754.119 L -115.736,-754.304
 L -115.25,-754.429 L -114.751,-754.492 L 114.751,-754.492 L 115.25,-754.429 L 115.736,-754.304 L 116.203,-754.119
 L 116.643,-753.877 L 117.05,-753.582 L 117.416,-753.238 L 117.736,-752.851 L 118.005,-752.427 L 118.219,-751.972
 L 118.374,-751.495 L 118.468,-751.001 L 118.5,-750.5 L 118.5,-731.5 L 118.468,-730.999 L 118.374,-730.505
 L 118.219,-730.028 L 118.005,-729.573 L 117.736,-729.149 L 117.416,-728.762 L 117.05,-728.418 L 116.643,-728.123
 L 116.203,-727.881 L 115.736,-727.696 L 115.25,-727.571 L 114.751,-727.508 z
M -118.5,-688.441 L -118.187,-688.147 L -117.679,-687.778 L -117.129,-687.476 L -116.545,-687.245 L -115.937,-687.089
 L -115.314,-687.01 L 115.314,-687.01 L 115.937,-687.089 L 116.545,-687.245 L 117.129,-687.476 L 117.679,-687.778
 L 118.187,-688.147 L 118.645,-688.577 L 119.045,-689.061 L 119.382,-689.591 L 119.649,-690.159 L 119.843,-690.757
 L 119.961,-691.373 L 120,-692 L 120,-712 L 119.961,-712.627 L 119.843,-713.243 L 119.649,-713.841
 L 119.382,-714.409 L 119.045,-714.939 L 118.645,-715.423 L 118.187,-715.853 L 117.679,-716.222 L 117.129,-716.524
 L 116.545,-716.755 L 115.937,-716.911 L 115.314,-716.99 L -115.314,-716.99 L -115.937,-716.911 L -116.545,-716.755
 L -117.129,-716.524 L -117.679,-716.222 L -118.187,-715.853 L -118.5,-715.559 L -118.5,-716.99 L -121.5,-716.99
 L -121.5,-687.01 L -118.5,-687.01 z
M -114.751,-688.508 L -115.25,-688.571 L -115.736,-688.696 L -116.203,-688.881 L -116.643,-689.123 L -117.05,-689.418
 L -117.416,-689.762 L -117.736,-690.149 L -118.005,-690.573 L -118.219,-691.028 L -118.374,-691.505 L -118.468,-691.999
 L -118.5,-692.5 L -118.5,-711.5 L -118.468,-712.001 L -118.374,-712.495 L -118.219,-712.972 L -118.005,-713.427
 L -117.736,-713.851 L -117.416,-714.238 L -117.05,-714.582 L -116.643,-714.877 L -116.203,-715.119 L -115.736,-715.304
 L -115.25,-715.429 L -114.751,-715.492 L 114.751,-715.492 L 115.25,-715.429 L 115.736,-715.304 L 116.203,-715.119
 L 116.643,-714.877 L 117.05,-714.582 L 117.416,-714.238 L 117.736,-713.851 L 118.005,-713.427 L 118.219,-712.972
 L 118.374,-712.495 L 118.468,-712.001 L 118.5,-711.5 L 118.5,-692.5 L 118.468,-691.999 L 118.374,-691.505
 L 118.219,-691.028 L 118.005,-690.573 L 117.736,-690.149 L 117.416,-689.762 L 117.05,-689.418 L 116.643,-689.123
 L 116.203,-688.881 L 115.736,-688.696 L 115.25,-688.571 L 114.751,-688.508 z
M -118.5,-649.441 L -118.187,-649.147 L -117.679,-648.778 L -117.129,-648.476 L -116.545,-648.245 L -115.937,-648.089
 L -115.314,-648.01 L 115.314,-648.01 L 115.937,-648.089 L 116.545,-648.245 L 117.129,-648.476 L 117.679,-648.778
 L 118.187,-649.147 L 118.645,-649.577 L 119.045,-650.061 L 119.382,-650.591 L 119.649,-651.159 L 119.843,-651.757
 L 119.961,-652.373 L 120,-653 L 120,-673 L 119.961,-673.627 L 119.843,-674.243 L 119.649,-674.841
 L 119.382,-675.409 L 119.045,-675.939 L 118.645,-676.423 L 118.187,-676.853 L 117.679,-677.222 L 117.129,-677.524
 L 116.545,-677.755 L 115.937,-677.911 L 115.314,-677.99 L -115.314,-677.99 L -115.937,-677.911 L -116.545,-677.755
 L -117.129,-677.524 L -117.679,-677.222 L -118.187,-676.853 L -118.5,-676.559 L -118.5,-677.99 L -121.5,-677.99
 L -121.5,-648.01 L -118.5,-648.01 z
M -114.751,-649.508 L -115.25,-649.571 L -115.736,-649.696 L -116.203,-649.881 L -116.643,-650.123 L -117.05,-650.418
 L -117.416,-650.762 L -117.736,-651.149 L -118.005,-651.573 L -118.219,-652.028 L -118.374,-652.505 L -118.468,-652.999
 L -118.5,-653.5 L -118.5,-672.5 L -118.468,-673.001 L -118.374,-673.495 L -118.219,-673.972 L -118.005,-674.427
 L -117.736,-674.851 L -117.416,-675.238 L -117.05,-675.582 L -116.643,-675.877 L -116.203,-676.119 L -115.736,-676.304
 L -115.25,-676.429 L -114.751,-676.492 L 114.751,-676.492 L 115.25,-676.429 L 115.736,-676.304 L 116.203,-676.119
 L 116.643,-675.877 L 117.05,-675.582 L 117.416,-675.238 L 117.736,-674.851 L 118.005,-674.427 L 118.219,-673.972
 L 118.374,-673.495 L 118.468,-673.001 L 118.5,-672.5 L 118.5,-653.5 L 118.468,-652.999 L 118.374,-652.505
 L 118.219,-652.028 L 118.005,-651.573 L 117.736,-651.149 L 117.416,-650.762 L 117.05,-650.418 L 116.643,-650.123
 L 116.203,-649.881 L 115.736,-649.696 L 115.25,-649.571 L 114.751,-649.508 z
M 115.937,-609.089 L 116.545,-609.245 L 117.129,-609.476 L 117.679,-609.778 L 118.187,-610.147 L 118.645,-610.577
 L 119.045,-611.061 L 119.382,-611.591 L 119.649,-612.159 L 119.843,-612.757 L 119.961,-613.373 L 120,-614
 L 120,-634 L 119.961,-634.627 L 119.843,-635.243 L 119.649,-635.841 L 119.382,-636.409 L 119.045,-636.939
 L 118.645,-637.423 L 118.187,-637.853 L 117.679,-638.222 L 117.129,-638.524 L 116.545,-638.755 L 115.937,-638.911
 L 115.314,-638.99 L -115.314,-638.99 L -115.937,-638.911 L -116.545,-638.755 L -117.129,-638.524 L -117.679,-638.222
 L -118.187,-637.853 L -118.5,-637.559 L -118.5,-638.979 L -121.5,-638.979 L -121.5,-609.021 L -118.5,-609.021
 L -118.5,-610.441 L -118.187,-610.147 L -117.679,-609.778 L -117.129,-609.476 L -116.545,-609.245 L -115.937,-609.089
 L -115.314,-609.01 L 115.314,-609.01 z
M -114.695,-611.393 L -115.083,-611.442 L -115.462,-611.539 L -115.825,-611.683 L -116.168,-611.872 L -116.484,-612.101
 L -116.769,-612.369 L -117.018,-612.67 L -117.228,-613 L -117.394,-613.354 L -117.515,-613.726 L -117.588,-614.11
 L -117.613,-614.5 L -117.613,-633.5 L -117.588,-633.89 L -117.515,-634.274 L -117.394,-634.646 L -117.228,-635
 L -117.018,-635.33 L -116.769,-635.631 L -116.484,-635.899 L -116.168,-636.128 L -115.825,-636.317 L -115.462,-636.461
 L -115.083,-636.558 L -114.695,-636.607 L 114.695,-636.607 L 115.083,-636.558 L 115.462,-636.461 L 115.825,-636.317
 L 116.168,-636.128 L 116.484,-635.899 L 116.769,-635.631 L 117.018,-635.33 L 117.228,-635 L 117.394,-634.646
 L 117.515,-634.274 L 117.588,-633.89 L 117.613,-633.5 L 117.613,-614.5 L 117.588,-614.11 L 117.515,-613.726
 L 117.394,-613.354 L 117.228,-613 L 117.018,-612.67 L 116.769,-612.369 L 116.484,-612.101 L 116.168,-611.872
 L 115.825,-611.683 L 115.462,-611.539 L 115.083,-611.442 L 114.695,-611.393 z
M 115.937,-570.089 L 116.545,-570.245 L 117.129,-570.476 L 117.679,-570.778 L 118.187,-571.147 L 118.645,-571.577
 L 119.045,-572.061 L 119.382,-572.591 L 119.649,-573.159 L 119.843,-573.757 L 119.961,-574.373 L 120,-575
 L 120,-595 L 119.961,-595.627 L 119.843,-596.243 L 119.649,-596.841 L 119.382,-597.409 L 119.045,-597.939
 L 118.645,-598.423 L 118.187,-598.853 L 117.679,-599.222 L 117.129,-599.524 L 116.545,-599.755 L 115.937,-599.911
 L 115.314,-599.99 L -115.314,-599.99 L -115.937,-599.911 L -116.545,-599.755 L -117.129,-599.524 L -117.679,-599.222
 L -118.187,-598.853 L -118.5,-598.559 L -118.5,-598.653 L -121.5,-598.653 L -121.5,-571.347 L -118.5,-571.347
 L -118.5,-571.441 L -118.187,-571.147 L -117.679,-570.778 L -117.129,-570.476 L -116.545,-570.245 L -115.937,-570.089
 L -115.314,-570.01 L 115.314,-570.01 z
M -112.634,-590.369 L -112.9,-590.403 L -113.16,-590.469 L -113.409,-590.568 L -113.644,-590.697 L -113.861,-590.855
 L -114.057,-591.038 L -114.227,-591.245 L -114.371,-591.471 L -114.485,-591.714 L -114.568,-591.969 L -114.618,-592.232
 L -114.635,-592.5 L -114.618,-592.768 L -114.568,-593.031 L -114.485,-593.286 L -114.371,-593.529 L -114.227,-593.755
 L -114.057,-593.962 L -113.861,-594.145 L -113.644,-594.303 L -113.409,-594.432 L -113.16,-594.531 L -112.9,-594.597
 L -112.634,-594.631 L -112.366,-594.631 L -112.1,-594.597 L -111.84,-594.531 L -111.591,-594.432 L -111.356,-594.303
 L -111.139,-594.145 L -110.943,-593.962 L -110.773,-593.755 L -110.629,-593.529 L -110.515,-593.286 L -110.432,-593.031
 L -110.382,-592.768 L -110.365,-592.5 L -110.382,-592.232 L -110.432,-591.969 L -110.515,-591.714 L -110.629,-591.471
 L -110.773,-591.245 L -110.943,-591.038 L -111.139,-590.855 L -111.356,-590.697 L -111.591,-590.568 L -111.84,-590.469
 L -112.1,-590.403 L -112.366,-590.369 z
M 112.366,-590.369 L 112.1,-590.403 L 111.84,-590.469 L 111.591,-590.568 L 111.356,-590.697 L 111.139,-590.855
 L 110.943,-591.038 L 110.773,-591.245 L 110.629,-591.471 L 110.515,-591.714 L 110.432,-591.969 L 110.382,-592.232
 L 110.365,-592.5 L 110.382,-592.768 L 110.432,-593.031 L 110.515,-593.286 L 110.629,-593.529 L 110.773,-593.755
 L 110.943,-593.962 L 111.139,-594.145 L 111.356,-594.303 L 111.591,-594.432 L 111.84,-594.531 L 112.1,-594.597
 L 112.366,-594.631 L 112.634,-594.631 L 112.9,-594.597 L 113.16,-594.531 L 113.409,-594.432 L 113.644,-594.303
 L 113.861,-594.145 L 114.057,-593.962 L 114.227,-593.755 L 114.371,-593.529 L 114.485,-593.286 L 114.568,-593.031
 L 114.618,-592.768 L 114.635,-592.5 L 114.618,-592.232 L 114.568,-591.969 L 114.485,-591.714 L 114.371,-591.471
 L 114.227,-591.245 L 114.057,-591.038 L 113.861,-590.855 L 113.644,-590.697 L 113.409,-590.568 L 113.16,-590.469
 L 112.9,-590.403 L 112.634,-590.369 z
M -112.634,-575.369 L -112.9,-575.403 L -113.16,-575.469 L -113.409,-575.568 L -113.644,-575.697 L -113.861,-575.855
 L -114.057,-576.038 L -114.227,-576.245 L -114.371,-576.471 L -114.485,-576.714 L -114.568,-576.969 L -114.618,-577.232
 L -114.635,-577.5 L -114.618,-577.768 L -114.568,-578.031 L -114.485,-578.286 L -114.371,-578.529 L -114.227,-578.755
 L -114.057,-578.962 L -113.861,-579.145 L -113.644,-579.303 L -113.409,-579.432 L -113.16,-579.531 L -112.9,-579.597
 L -112.634,-579.631 L -112.366,-579.631 L -112.1,-579.597 L -111.84,-579.531 L -111.591,-579.432 L -111.356,-579.303
 L -111.139,-579.145 L -110.943,-578.962 L -110.773,-578.755 L -110.629,-578.529 L -110.515,-578.286 L -110.432,-578.031
 L -110.382,-577.768 L -110.365,-577.5 L -110.382,-577.232 L -110.432,-576.969 L -110.515,-576.714 L -110.629,-576.471
 L -110.773,-576.245 L -110.943,-576.038 L -111.139,-575.855 L -111.356,-575.697 L -111.591,-575.568 L -111.84,-575.469
 L -112.1,-575.403 L -112.366,-575.369 z
M 112.366,-575.369 L 112.1,-575.403 L 111.84,-575.469 L 111.591,-575.568 L 111.356,-575.697 L 111.139,-575.855
 L 110.943,-576.038 L 110.773,-576.245 L 110.629,-576.471 L 110.515,-576.714 L 110.432,-576.969 L 110.382,-577.232
 L 110.365,-577.5 L 110.382,-577.768 L 110.432,-578.031 L 110.515,-578.286 L 110.629,-578.529 L 110.773,-578.755
 L 110.943,-578.962 L 111.139,-579.145 L 111.356,-579.303 L 111.591,-579.432 L 111.84,-579.531 L 112.1,-579.597
 L 112.366,-579.631 L 112.634,-579.631 L 112.9,-579.597 L 113.16,-579.531 L 113.409,-579.432 L 113.644,-579.303
 L 113.861,-579.145 L 114.057,-578.962 L 114.227,-578.755 L 114.371,-578.529 L 114.485,-578.286 L 114.568,-578.031
 L 114.618,-577.768 L 114.635,-577.5 L 114.618,-577.232 L 114.568,-576.969 L 114.485,-576.714 L 114.371,-576.471
 L 114.227,-576.245 L 114.057,-576.038 L 113.861,-575.855 L 113.644,-575.697 L 113.409,-575.568 L 113.16,-575.469
 L 112.9,-575.403 L 112.634,-575.369 z
" stroke="black" fill="lightgray" stroke-width="0.5"/>
</svg>
