<?xml version="1.0" standalone="no"?>
<!DOCTYPE svg PUBLIC "-//W3C//DTD SVG 1.1//EN" "http://www.w3.org/Graphics/SVG/1.1/DTD/svg11.dtd">
<svg width="256mm" height="64mm" viewBox="-128 -128 256 64" xmlns="http://www.w3.org/2000/svg" version="1.1">
<title>OpenSCAD Model</title>
<path d="
M 123.437,-112.589 L 124.045,-112.745 L 124.629,-112.976 L 125.179,-113.278 L 125.687,-113.647 L 126.145,-114.077
 L 126.545,-114.561 L 126.882,-115.091 L 127.149,-115.659 L 127.343,-116.257 L 127.461,-116.873 L 127.5,-117.5
 L 127.5,-122.5 L 127.461,-123.127 L 127.343,-123.743 L 127.149,-124.341 L 126.882,-124.909 L 126.545,-125.439
 L 126.145,-125.923 L 125.687,-126.353 L 125.179,-126.722 L 124.629,-127.024 L 124.045,-127.255 L 123.437,-127.411
 L 122.814,-127.49 L -122.814,-127.49 L -123.437,-127.411 L -124.045,-127.255 L -124.629,-127.024 L -125.179,-126.722
 L -125.687,-126.353 L -126.145,-125.923 L -126.545,-125.439 L -126.882,-124.909 L -127.149,-124.341 L -127.343,-123.743
 L -127.461,-123.127 L -127.5,-122.5 L -127.5,-117.5 L -127.461,-116.873 L -127.343,-116.257 L -127.149,-115.659
 L -126.882,-115.091 L -126.545,-114.561 L -126.145,-114.077 L -125.687,-113.647 L -125.179,-113.278 L -124.629,-112.976
 L -124.045,-112.745 L -123.437,-112.589 L -122.814,-112.51 L 122.814,-112.51 z
M -122.548,-113.009 L -123.14,-113.084 L -123.718,-113.232 L -124.272,-113.452 L -124.795,-113.739 L -125.278,-114.09
 L -125.713,-114.498 L -126.093,-114.958 L -126.412,-115.462 L -126.666,-116.001 L -126.851,-116.569 L -126.963,-117.155
 L -127,-117.75 L -127,-122.25 L -126.963,-122.845 L -126.851,-123.431 L -126.666,-123.999 L -126.412,-124.538
 L -126.093,-125.042 L -125.713,-125.502 L -125.278,-125.91 L -124.795,-126.261 L -124.272,-126.548 L -123.718,-126.768
 L -123.14,-126.916 L -122.548,-126.991 L 122.548,-126.991 L 123.14,-126.916 L 123.718,-126.768 L 124.272,-126.548
 L 124.795,-126.261 L 125.278,-125.91 L 125.713,-125.502 L 126.093,-125.042 L 126.412,-124.538 L 126.666,-123.999
 L 126.851,-123.431 L 126.963,-122.845 L 127,-122.25 L 127,-117.75 L 126.963,-117.155 L 126.851,-116.569
 L 126.666,-116.001 L 126.412,-115.462 L 126.093,-114.958 L 125.713,-114.498 L 125.278,-114.09 L 124.795,-113.739
 L 124.272,-113.452 L 123.718,-113.232 L 123.14,-113.084 L 122.548,-113.009 z
M 123.437,-88.5886 L 124.045,-88.7447 L 124.629,-88.9759 L 125.179,-89.2784 L 125.687,-89.6474 L 126.145,-90.0773
 L 126.545,-90.5611 L 126.882,-91.0912 L 127.149,-91.6594 L 127.343,-92.2566 L 127.461,-92.8733 L 127.5,-93.5
 L 127.5,-98.5 L 127.461,-99.1267 L 127.343,-99.7434 L 127.149,-100.341 L 126.882,-100.909 L 126.545,-101.439
 L 126.145,-101.923 L 125.687,-102.353 L 125.179,-102.722 L 124.629,-103.024 L 124.045,-103.255 L 123.437,-103.411
 L 122.814,-103.49 L -122.814,-103.49 L -123.437,-103.411 L -124.045,-103.255 L -124.629,-103.024 L -125.179,-102.722
 L -125.687,-102.353 L -126.145,-101.923 L -126.545,-101.439 L -126.882,-100.909 L -127.149,-100.341 L -127.343,-99.7434
 L -127.461,-99.1267 L -127.5,-98.5 L -127.5,-93.5 L -127.461,-92.8733 L -127.343,-92.2566 L -127.149,-91.6594
 L -126.882,-91.0912 L -126.545,-90.5611 L -126.145,-90.0773 L -125.687,-89.6474 L -125.179,-89.2784 L -124.629,-88.9759
 L -124.045,-88.7447 L -123.437,-88.5886 L -122.814,-88.5099 L 122.814,-88.5099 z
M -122.537,-89.1806 L -123.108,-89.2527 L -123.665,-89.3956 L -124.199,-89.6073 L -124.703,-89.8843 L -125.168,-90.2223
 L -125.588,-90.6158 L -125.954,-91.0589 L -126.262,-91.5443 L -126.507,-92.0646 L -126.685,-92.6114 L -126.792,-93.1762
 L -126.828,-93.75 L -126.828,-98.25 L -126.792,-98.8238 L -126.685,-99.3886 L -126.507,-99.9354 L -126.262,-100.456
 L -125.954,-100.941 L -125.588,-101.384 L -125.168,-101.778 L -124.703,-102.116 L -124.199,-102.393 L -123.665,-102.604
 L -123.108,-102.747 L -122.537,-102.819 L 122.537,-102.819 L 123.108,-102.747 L 123.665,-102.604 L 124.199,-102.393
 L 124.703,-102.116 L 125.168,-101.778 L 125.588,-101.384 L 125.954,-100.941 L 126.262,-100.456 L 126.507,-99.9354
 L 126.685,-99.3886 L 126.792,-98.8238 L 126.828,-98.25 L 126.828,-93.75 L 126.792,-93.1762 L 126.685,-92.6114
 L 126.507,-92.0646 L 126.262,-91.5443 L 125.954,-91.0589 L 125.588,-90.6158 L 125.168,-90.2223 L 124.703,-89.8843
 L 124.199,-89.6073 L 123.665,-89.3956 L 123.108,-89.2527 L 122.537,-89.1806 z
M 123.437,-64.5886 L 124.045,-64.7447 L 124.629,-64.9759 L 125.179,-65.2784 L 125.687,-65.6474 L 126.145,-66.0773
 L 126.545,-66.5611 L 126.882,-67.0912 L 127.149,-67.6594 L 127.343,-68.2566 L 127.461,-68.8733 L 127.5,-69.5
 L 127.5,-74.5 L 127.461,-75.1267 L 127.343,-75.7434 L 127.149,-76.3406 L 126.882,-76.9088 L 126.545,-77.4389
 L 126.145,-77.9227 L 125.687,-78.3526 L 125.179,-78.7216 L 124.629,-79.0241 L 124.045,-79.2553 L 123.437,-79.4114
 L 122.814,-79.4901 L -122.814,-79.4901 L -123.437,-79.4114 L -124.045,-79.2553 L -124.629,-79.0241 L -125.179,-78.7216
 L -125.687,-78.3526 L -126.145,-77.9227 L -126.545,-77.4389 L -126.882,-76.9088 L -127.149,-76.3406 L -127.343,-75.7434
 L -127.461,-75.1267 L -127.5,-74.5 L -127.5,-69.5 L -127.461,-68.8733 L -127.343,-68.2566 L -127.149,-67.6594
 L -126.882,-67.0912 L -126.545,-66.5611 L -126.145,-66.0773 L -125.687,-65.6474 L -125.179,-65.2784 L -124.629,-64.9759
 L -124.045,-64.7447 L -123.437,-64.5886 L -122.814,-64.5099 L 122.814,-64.5099 z
M -122.382,-67.6445 L -122.645,-67.6777 L -122.902,-67.7436 L -123.148,-67.8412 L -123.38,-67.9688 L -123.595,-68.1245
 L -123.788,-68.3059 L -123.957,-68.51 L -124.099,-68.7337 L -124.211,-68.9734 L -124.293,-69.2254 L -124.343,-69.4856
 L -124.36,-69.75 L -124.36,-74.25 L -124.343,-74.5144 L -124.293,-74.7746 L -124.211,-75.0266 L -124.099,-75.2663
 L -123.957,-75.49 L -123.788,-75.6941 L -123.595,-75.8755 L -123.38,-76.0312 L -123.148,-76.1588 L -122.902,-76.2564
 L -122.645,-76.3223 L -122.382,-76.3555 L 122.382,-76.3555 L 122.645,-76.3223 L 122.902,-76.2564 L 123.148,-76.1588
 L 123.38,-76.0312 L 123.595,-75.8755 L 123.788,-75.6941 L 123.957,-75.49 L 124.099,-75.2663 L 124.211,-75.0266
 L 124.293,-74.7746 L 124.343,-74.5144 L 124.36,-74.25 L 124.36,-69.75 L 124.343,-69.4856 L 124.293,-69.2254
 L 124.211,-68.9734 L 124.099,-68.7337 L 123.957,-68.51 L 123.788,-68.3059 L 123.595,-68.1245 L 123.38,-67.9688
 L 123.148,-67.8412 L 122.902,-67.7436 L 122.645,-67.6777 L 122.382,-67.6445 z
" stroke="black" fill="lightgray" stroke-width="0.5"/>
</svg>
