<?xml version="1.0" standalone="no"?>
<!DOCTYPE svg PUBLIC "-//W3C//DTD SVG 1.1//EN" "http://www.w3.org/Graphics/SVG/1.1/DTD/svg11.dtd">
<svg width="257mm" height="688mm" viewBox="-129 -1127 257 688" xmlns="http://www.w3.org/2000/svg" version="1.1">
<title>OpenSCAD Model</title>
<path d="
M -126,-962.941 L -125.687,-962.647 L -125.179,-962.278 L -124.629,-961.976 L -124.045,-961.745 L -123.437,-961.589
 L -122.814,-961.51 L 122.814,-961.51 L 123.437,-961.589 L 124.045,-961.745 L 124.629,-961.976 L 125.179,-962.278
 L 125.687,-962.647 L 126.145,-963.077 L 126.545,-963.561 L 126.882,-964.091 L 127.149,-964.659 L 127.343,-965.257
 L 127.461,-965.873 L 127.5,-966.5 L 127.5,-1121.5 L 127.461,-1122.13 L 127.343,-1122.74 L 127.149,-1123.34
 L 126.882,-1123.91 L 126.545,-1124.44 L 126.145,-1124.92 L 125.687,-1125.35 L 125.179,-1125.72 L 124.629,-1126.02
 L 124.045,-1126.26 L 123.437,-1126.41 L 122.814,-1126.49 L -122.814,-1126.49 L -123.437,-1126.41 L -124.045,-1126.26
 L -124.629,-1126.02 L -125.179,-1125.72 L -125.687,-1125.35 L -126,-1125.06 L -126,-1126.49 L -129,-1126.49
 L -129,-961.51 L -126,-961.51 z
M -122.251,-963.008 L -122.75,-963.071 L -123.236,-963.196 L -123.703,-963.381 L -124.143,-963.623 L -124.55,-963.918
 L -124.916,-964.262 L -125.236,-964.649 L -125.505,-965.073 L -125.719,-965.528 L -125.874,-966.005 L -125.968,-966.499
 L -126,-967 L -126,-1121 L -125.968,-1121.5 L -125.874,-1121.99 L -125.719,-1122.47 L -125.505,-1122.93
 L -125.236,-1123.35 L -124.916,-1123.74 L -124.55,-1124.08 L -124.143,-1124.38 L -123.703,-1124.62 L -123.236,-1124.8
 L -122.75,-1124.93 L -122.251,-1124.99 L 122.251,-1124.99 L 122.75,-1124.93 L 123.236,-1124.8 L 123.703,-1124.62
 L 124.143,-1124.38 L 124.55,-1124.08 L 124.916,-1123.74 L 125.236,-1123.35 L 125.505,-1122.93 L 125.719,-1122.47
 L 125.874,-1121.99 L 125.968,-1121.5 L 126,-1121 L 126,-967 L 125.968,-966.499 L 125.874,-966.005
 L 125.719,-965.528 L 125.505,-965.073 L 125.236,-964.649 L 124.916,-964.262 L 124.55,-963.918 L 124.143,-963.623
 L 123.703,-963.381 L 123.236,-963.196 L 122.75,-963.071 L 122.251,-963.008 z
M -126,-788.941 L -125.687,-788.647 L -125.179,-788.278 L -124.629,-787.976 L -124.045,-787.745 L -123.437,-787.589
 L -122.814,-787.51 L 122.814,-787.51 L 123.437,-787.589 L 124.045,-787.745 L 124.629,-787.976 L 125.179,-788.278
 L 125.687,-788.647 L 126.145,-789.077 L 126.545,-789.561 L 126.882,-790.091 L 127.149,-790.659 L 127.343,-791.257
 L 127.461,-791.873 L 127.5,-792.5 L 127.5,-947.5 L 127.461,-948.127 L 127.343,-948.743 L 127.149,-949.341
 L 126.882,-949.909 L 126.545,-950.439 L 126.145,-950.923 L 125.687,-951.353 L 125.179,-951.722 L 124.629,-952.024
 L 124.045,-952.255 L 123.437,-952.411 L 122.814,-952.49 L -122.814,-952.49 L -123.437,-952.411 L -124.045,-952.255
 L -124.629,-952.024 L -125.179,-951.722 L -125.687,-951.353 L -126,-951.059 L -126,-952.49 L -129,-952.49
 L -129,-787.51 L -126,-787.51 z
M -122.243,-789.135 L -122.726,-789.196 L -123.197,-789.317 L -123.649,-789.496 L -124.075,-789.73 L -124.469,-790.016
 L -124.823,-790.349 L -125.133,-790.724 L -125.394,-791.134 L -125.601,-791.574 L -125.751,-792.037 L -125.842,-792.515
 L -125.873,-793 L -125.873,-947 L -125.842,-947.485 L -125.751,-947.963 L -125.601,-948.426 L -125.394,-948.866
 L -125.133,-949.276 L -124.823,-949.651 L -124.469,-949.984 L -124.075,-950.27 L -123.649,-950.504 L -123.197,-950.683
 L -122.726,-950.804 L -122.243,-950.865 L 122.243,-950.865 L 122.726,-950.804 L 123.197,-950.683 L 123.649,-950.504
 L 124.075,-950.27 L 124.469,-949.984 L 124.823,-949.651 L 125.133,-949.276 L 125.394,-948.866 L 125.601,-948.426
 L 125.751,-947.963 L 125.842,-947.485 L 125.873,-947 L 125.873,-793 L 125.842,-792.515 L 125.751,-792.037
 L 125.601,-791.574 L 125.394,-791.134 L 125.133,-790.724 L 124.823,-790.349 L 124.469,-790.016 L 124.075,-789.73
 L 123.649,-789.496 L 123.197,-789.317 L 122.726,-789.196 L 122.243,-789.135 z
M 123.437,-613.589 L 124.045,-613.745 L 124.629,-613.976 L 125.179,-614.278 L 125.687,-614.647 L 126.145,-615.077
 L 126.545,-615.561 L 126.882,-616.091 L 127.149,-616.659 L 127.343,-617.257 L 127.461,-617.873 L 127.5,-618.5
 L 127.5,-773.5 L 127.461,-774.127 L 127.343,-774.743 L 127.149,-775.341 L 126.882,-775.909 L 126.545,-776.439
 L 126.145,-776.923 L 125.687,-777.353 L 125.179,-777.722 L 124.629,-778.024 L 124.045,-778.255 L 123.437,-778.411
 L 122.814,-778.49 L -122.814,-778.49 L -123.437,-778.411 L -124.045,-778.255 L -124.629,-778.024 L -125.179,-777.722
 L -125.687,-777.353 L -126,-777.059 L -126,-778.115 L -129,-778.115 L -129,-613.885 L -126,-613.885
 L -126,-614.941 L -125.687,-614.647 L -125.179,-614.278 L -124.629,-613.976 L -124.045,-613.745 L -123.437,-613.589
 L -122.814,-613.51 L 122.814,-613.51 z
M 119.849,-768.605 L 119.55,-768.643 L 119.258,-768.717 L 118.978,-768.828 L 118.714,-768.974 L 118.47,-769.151
 L 118.25,-769.357 L 118.058,-769.589 L 117.897,-769.844 L 117.769,-770.117 L 117.675,-770.403 L 117.619,-770.699
 L 117.6,-771 L 117.619,-771.301 L 117.675,-771.597 L 117.769,-771.883 L 117.897,-772.156 L 118.058,-772.411
 L 118.25,-772.643 L 118.47,-772.849 L 118.714,-773.026 L 118.978,-773.172 L 119.258,-773.283 L 119.55,-773.357
 L 119.849,-773.395 L 120.151,-773.395 L 120.45,-773.357 L 120.742,-773.283 L 121.022,-773.172 L 121.286,-773.026
 L 121.53,-772.849 L 121.75,-772.643 L 121.942,-772.411 L 122.103,-772.156 L 122.231,-771.883 L 122.325,-771.597
 L 122.381,-771.301 L 122.4,-771 L 122.381,-770.699 L 122.325,-770.403 L 122.231,-770.117 L 122.103,-769.844
 L 121.942,-769.589 L 121.75,-769.357 L 121.53,-769.151 L 121.286,-768.974 L 121.022,-768.828 L 120.742,-768.717
 L 120.45,-768.643 L 120.151,-768.605 z
M -120.151,-768.605 L -120.45,-768.643 L -120.742,-768.717 L -121.022,-768.828 L -121.286,-768.974 L -121.53,-769.151
 L -121.75,-769.357 L -121.942,-769.589 L -122.103,-769.844 L -122.231,-770.117 L -122.325,-770.403 L -122.381,-770.699
 L -122.4,-771 L -122.381,-771.301 L -122.325,-771.597 L -122.231,-771.883 L -122.103,-772.156 L -121.942,-772.411
 L -121.75,-772.643 L -121.53,-772.849 L -121.286,-773.026 L -121.022,-773.172 L -120.742,-773.283 L -120.45,-773.357
 L -120.151,-773.395 L -119.849,-773.395 L -119.55,-773.357 L -119.258,-773.283 L -118.978,-773.172 L -118.714,-773.026
 L -118.47,-772.849 L -118.25,-772.643 L -118.058,-772.411 L -117.897,-772.156 L -117.769,-771.883 L -117.675,-771.597
 L -117.619,-771.301 L -117.6,-771 L -117.619,-770.699 L -117.675,-770.403 L -117.769,-770.117 L -117.897,-769.844
 L -118.058,-769.589 L -118.25,-769.357 L -118.47,-769.151 L -118.714,-768.974 L -118.978,-768.828 L -119.258,-768.717
 L -119.55,-768.643 L -119.849,-768.605 z
M 119.849,-618.605 L 119.55,-618.643 L 119.258,-618.717 L 118.978,-618.828 L 118.714,-618.974 L 118.47,-619.151
 L 118.25,-619.357 L 118.058,-619.589 L 117.897,-619.844 L 117.769,-620.117 L 117.675,-620.403 L 117.619,-620.699
 L 117.6,-621 L 117.619,-621.301 L 117.675,-621.597 L 117.769,-621.883 L 117.897,-622.156 L 118.058,-622.411
 L 118.25,-622.643 L 118.47,-622.849 L 118.714,-623.026 L 118.978,-623.172 L 119.258,-623.283 L 119.55,-623.357
 L 119.849,-623.395 L 120.151,-623.395 L 120.45,-623.357 L 120.742,-623.283 L 121.022,-623.172 L 121.286,-623.026
 L 121.53,-622.849 L 121.75,-622.643 L 121.942,-622.411 L 122.103,-622.156 L 122.231,-621.883 L 122.325,-621.597
 L 122.381,-621.301 L 122.4,-621 L 122.381,-620.699 L 122.325,-620.403 L 122.231,-620.117 L 122.103,-619.844
 L 121.942,-619.589 L 121.75,-619.357 L 121.53,-619.151 L 121.286,-618.974 L 121.022,-618.828 L 120.742,-618.717
 L 120.45,-618.643 L 120.151,-618.605 z
M -120.151,-618.605 L -120.45,-618.643 L -120.742,-618.717 L -121.022,-618.828 L -121.286,-618.974 L -121.53,-619.151
 L -121.75,-619.357 L -121.942,-619.589 L -122.103,-619.844 L -122.231,-620.117 L -122.325,-620.403 L -122.381,-620.699
 L -122.4,-621 L -122.381,-621.301 L -122.325,-621.597 L -122.231,-621.883 L -122.103,-622.156 L -121.942,-622.411
 L -121.75,-622.643 L -121.53,-622.849 L -121.286,-623.026 L -121.022,-623.172 L -120.742,-623.283 L -120.45,-623.357
 L -120.151,-623.395 L -119.849,-623.395 L -119.55,-623.357 L -119.258,-623.283 L -118.978,-623.172 L -118.714,-623.026
 L -118.47,-622.849 L -118.25,-622.643 L -118.058,-622.411 L -117.897,-622.156 L -117.769,-621.883 L -117.675,-621.597
 L -117.619,-621.301 L -117.6,-621 L -117.619,-620.699 L -117.675,-620.403 L -117.769,-620.117 L -117.897,-619.844
 L -118.058,-619.589 L -118.25,-619.357 L -118.47,-619.151 L -118.714,-618.974 L -118.978,-618.828 L -119.258,-618.717
 L -119.55,-618.643 L -119.849,-618.605 z
M 123.437,-439.589 L 124.045,-439.745 L 124.629,-439.976 L 125.179,-440.278 L 125.687,-440.647 L 126.145,-441.077
 L 126.545,-441.561 L 126.882,-442.091 L 127.149,-442.659 L 127.343,-443.257 L 127.461,-443.873 L 127.5,-444.5
 L 127.5,-599.5 L 127.461,-600.127 L 127.343,-600.743 L 127.149,-601.341 L 126.882,-601.909 L 126.545,-602.439
 L 126.145,-602.923 L 125.687,-603.353 L 125.179,-603.722 L 124.629,-604.024 L 124.045,-604.255 L 123.437,-604.411
 L 122.814,-604.49 L -122.814,-604.49 L -123.437,-604.411 L -124.045,-604.255 L -124.629,-604.024 L -125.179,-603.722
 L -125.687,-603.353 L -126.145,-602.923 L -126.545,-602.439 L -126.882,-601.909 L -127.149,-601.341 L -127.343,-600.743
 L -127.4,-600.444 L -129,-600.444 L -129,-443.556 L -127.4,-443.556 L -127.343,-443.257 L -127.149,-442.659
 L -126.882,-442.091 L -126.545,-441.561 L -126.145,-441.077 L -125.687,-440.647 L -125.179,-440.278 L -124.629,-439.976
 L -124.045,-439.745 L -123.437,-439.589 L -122.814,-439.51 L 122.814,-439.51 z
M -120.113,-595.204 L -120.337,-595.232 L -120.556,-595.288 L -120.766,-595.371 L -120.964,-595.48 L -121.147,-595.613
 L -121.312,-595.768 L -121.456,-595.942 L -121.577,-596.133 L -121.674,-596.337 L -121.743,-596.552 L -121.786,-596.774
 L -121.8,-597 L -121.786,-597.226 L -121.743,-597.448 L -121.674,-597.663 L -121.577,-597.867 L -121.456,-598.058
 L -121.312,-598.232 L -121.147,-598.387 L -120.964,-598.52 L -120.766,-598.629 L -120.556,-598.712 L -120.337,-598.768
 L -120.113,-598.796 L -119.887,-598.796 L -119.663,-598.768 L -119.444,-598.712 L -119.234,-598.629 L -119.036,-598.52
 L -118.853,-598.387 L -118.688,-598.232 L -118.544,-598.058 L -118.423,-597.867 L -118.326,-597.663 L -118.257,-597.448
 L -118.214,-597.226 L -118.2,-597 L -118.214,-596.774 L -118.257,-596.552 L -118.326,-596.337 L -118.423,-596.133
 L -118.544,-595.942 L -118.688,-595.768 L -118.853,-595.613 L -119.036,-595.48 L -119.234,-595.371 L -119.444,-595.288
 L -119.663,-595.232 L -119.887,-595.204 z
M 119.887,-595.204 L 119.663,-595.232 L 119.444,-595.288 L 119.234,-595.371 L 119.036,-595.48 L 118.853,-595.613
 L 118.688,-595.768 L 118.544,-595.942 L 118.423,-596.133 L 118.326,-596.337 L 118.257,-596.552 L 118.214,-596.774
 L 118.2,-597 L 118.214,-597.226 L 118.257,-597.448 L 118.326,-597.663 L 118.423,-597.867 L 118.544,-598.058
 L 118.688,-598.232 L 118.853,-598.387 L 119.036,-598.52 L 119.234,-598.629 L 119.444,-598.712 L 119.663,-598.768
 L 119.887,-598.796 L 120.113,-598.796 L 120.337,-598.768 L 120.556,-598.712 L 120.766,-598.629 L 120.964,-598.52
 L 121.147,-598.387 L 121.312,-598.232 L 121.456,-598.058 L 121.577,-597.867 L 121.674,-597.663 L 121.743,-597.448
 L 121.786,-597.226 L 121.8,-597 L 121.786,-596.774 L 121.743,-596.552 L 121.674,-596.337 L 121.577,-596.133
 L 121.456,-595.942 L 121.312,-595.768 L 121.147,-595.613 L 120.964,-595.48 L 120.766,-595.371 L 120.556,-595.288
 L 120.337,-595.232 L 120.113,-595.204 z
M -120.113,-445.204 L -120.337,-445.232 L -120.556,-445.288 L -120.766,-445.371 L -120.964,-445.48 L -121.147,-445.613
 L -121.312,-445.768 L -121.456,-445.942 L -121.577,-446.133 L -121.674,-446.337 L -121.743,-446.552 L -121.786,-446.774
 L -121.8,-447 L -121.786,-447.226 L -121.743,-447.448 L -121.674,-447.663 L -121.577,-447.867 L -121.456,-448.058
 L -121.312,-448.232 L -121.147,-448.387 L -120.964,-448.52 L -120.766,-448.629 L -120.556,-448.712 L -120.337,-448.768
 L -120.113,-448.796 L -119.887,-448.796 L -119.663,-448.768 L -119.444,-448.712 L -119.234,-448.629 L -119.036,-448.52
 L -118.853,-448.387 L -118.688,-448.232 L -118.544,-448.058 L -118.423,-447.867 L -118.326,-447.663 L -118.257,-447.448
 L -118.214,-447.226 L -118.2,-447 L -118.214,-446.774 L -118.257,-446.552 L -118.326,-446.337 L -118.423,-446.133
 L -118.544,-445.942 L -118.688,-445.768 L -118.853,-445.613 L -119.036,-445.48 L -119.234,-445.371 L -119.444,-445.288
 L -119.663,-445.232 L -119.887,-445.204 z
M 119.887,-445.204 L 119.663,-445.232 L 119.444,-445.288 L 119.234,-445.371 L 119.036,-445.48 L 118.853,-445.613
 L 118.688,-445.768 L 118.544,-445.942 L 118.423,-446.133 L 118.326,-446.337 L 118.257,-446.552 L 118.214,-446.774
 L 118.2,-447 L 118.214,-447.226 L 118.257,-447.448 L 118.326,-447.663 L 118.423,-447.867 L 118.544,-448.058
 L 118.688,-448.232 L 118.853,-448.387 L 119.036,-448.52 L 119.234,-448.629 L 119.444,-448.712 L 119.663,-448.768
 L 119.887,-448.796 L 120.113,-448.796 L 120.337,-448.768 L 120.556,-448.712 L 120.766,-448.629 L 120.964,-448.52
 L 121.147,-448.387 L 121.312,-448.232 L 121.456,-448.058 L 121.577,-447.867 L 121.674,-447.663 L 121.743,-447.448
 L 121.786,-447.226 L 121.8,-447 L 121.786,-446.774 L 121.743,-446.552 L 121.674,-446.337 L 121.577,-446.133
 L 121.456,-445.942 L 121.312,-445.768 L 121.147,-445.613 L 120.964,-445.48 L 120.766,-445.371 L 120.556,-445.288
 L 120.337,-445.232 L 120.113,-445.204 z
" stroke="black" fill="lightgray" stroke-width="0.5"/>
</svg>
