<?xml version="1.0" standalone="no"?>
<!DOCTYPE svg PUBLIC "-//W3C//DTD SVG 1.1//EN" "http://www.w3.org/Graphics/SVG/1.1/DTD/svg11.dtd">
<svg width="256mm" height="336mm" viewBox="-128 -582 256 336" xmlns="http://www.w3.org/2000/svg" version="1.1">
<title>OpenSCAD Model</title>
<path d="
M 123.437,-522.089 L 124.045,-522.245 L 124.629,-522.476 L 125.179,-522.778 L 125.687,-523.147 L 126.145,-523.577
 L 126.545,-524.061 L 126.882,-524.591 L 127.149,-525.159 L 127.343,-525.757 L 127.461,-526.373 L 127.5,-527
 L 127.5,-577 L 127.461,-577.627 L 127.343,-578.243 L 127.149,-578.841 L 126.882,-579.409 L 126.545,-579.939
 L 126.145,-580.423 L 125.687,-580.853 L 125.179,-581.222 L 124.629,-581.524 L 124.045,-581.755 L 123.437,-581.911
 L 122.814,-581.99 L -122.814,-581.99 L -123.437,-581.911 L -124.045,-581.755 L -124.629,-581.524 L -125.179,-581.222
 L -125.687,-580.853 L -126.145,-580.423 L -126.545,-579.939 L -126.882,-579.409 L -127.149,-578.841 L -127.343,-578.243
 L -127.461,-577.627 L -127.5,-577 L -127.5,-527 L -127.461,-526.373 L -127.343,-525.757 L -127.149,-525.159
 L -126.882,-524.591 L -126.545,-524.061 L -126.145,-523.577 L -125.687,-523.147 L -125.179,-522.778 L -124.629,-522.476
 L -124.045,-522.245 L -123.437,-522.089 L -122.814,-522.01 L 122.814,-522.01 z
M -122.548,-522.509 L -123.14,-522.584 L -123.718,-522.732 L -124.272,-522.952 L -124.795,-523.239 L -125.278,-523.59
 L -125.713,-523.998 L -126.093,-524.458 L -126.412,-524.962 L -126.666,-525.501 L -126.851,-526.069 L -126.963,-526.655
 L -127,-527.25 L -127,-576.75 L -126.963,-577.345 L -126.851,-577.931 L -126.666,-578.499 L -126.412,-579.038
 L -126.093,-579.542 L -125.713,-580.002 L -125.278,-580.41 L -124.795,-580.761 L -124.272,-581.048 L -123.718,-581.268
 L -123.14,-581.416 L -122.548,-581.491 L 122.548,-581.491 L 123.14,-581.416 L 123.718,-581.268 L 124.272,-581.048
 L 124.795,-580.761 L 125.278,-580.41 L 125.713,-580.002 L 126.093,-579.542 L 126.412,-579.038 L 126.666,-578.499
 L 126.851,-577.931 L 126.963,-577.345 L 127,-576.75 L 127,-527.25 L 126.963,-526.655 L 126.851,-526.069
 L 126.666,-525.501 L 126.412,-524.962 L 126.093,-524.458 L 125.713,-523.998 L 125.278,-523.59 L 124.795,-523.239
 L 124.272,-522.952 L 123.718,-522.732 L 123.14,-522.584 L 122.548,-522.509 z
M 123.437,-453.089 L 124.045,-453.245 L 124.629,-453.476 L 125.179,-453.778 L 125.687,-454.147 L 126.145,-454.577
 L 126.545,-455.061 L 126.882,-455.591 L 127.149,-456.159 L 127.343,-456.757 L 127.461,-457.373 L 127.5,-458
 L 127.5,-508 L 127.461,-508.627 L 127.343,-509.243 L 127.149,-509.841 L 126.882,-510.409 L 126.545,-510.939
 L 126.145,-511.423 L 125.687,-511.853 L 125.179,-512.222 L 124.629,-512.524 L 124.045,-512.755 L 123.437,-512.911
 L 122.814,-512.99 L -122.814,-512.99 L -123.437,-512.911 L -124.045,-512.755 L -124.629,-512.524 L -125.179,-512.222
 L -125.687,-511.853 L -126.145,-511.423 L -126.545,-510.939 L -126.882,-510.409 L -127.149,-509.841 L -127.343,-509.243
 L -127.461,-508.627 L -127.5,-508 L -127.5,-458 L -127.461,-457.373 L -127.343,-456.757 L -127.149,-456.159
 L -126.882,-455.591 L -126.545,-455.061 L -126.145,-454.577 L -125.687,-454.147 L -125.179,-453.778 L -124.629,-453.476
 L -124.045,-453.245 L -123.437,-453.089 L -122.814,-453.01 L 122.814,-453.01 z
M -122.548,-453.509 L -123.14,-453.584 L -123.718,-453.732 L -124.272,-453.952 L -124.795,-454.239 L -125.278,-454.59
 L -125.713,-454.998 L -126.093,-455.458 L -126.412,-455.962 L -126.666,-456.501 L -126.851,-457.069 L -126.963,-457.655
 L -127,-458.25 L -127,-507.75 L -126.963,-508.345 L -126.851,-508.931 L -126.666,-509.499 L -126.412,-510.038
 L -126.093,-510.542 L -125.713,-511.002 L -125.278,-511.41 L -124.795,-511.761 L -124.272,-512.048 L -123.718,-512.268
 L -123.14,-512.416 L -122.548,-512.491 L 122.548,-512.491 L 123.14,-512.416 L 123.718,-512.268 L 124.272,-512.048
 L 124.795,-511.761 L 125.278,-511.41 L 125.713,-511.002 L 126.093,-510.542 L 126.412,-510.038 L 126.666,-509.499
 L 126.851,-508.931 L 126.963,-508.345 L 127,-507.75 L 127,-458.25 L 126.963,-457.655 L 126.851,-457.069
 L 126.666,-456.501 L 126.412,-455.962 L 126.093,-455.458 L 125.713,-454.998 L 125.278,-454.59 L 124.795,-454.239
 L 124.272,-453.952 L 123.718,-453.732 L 123.14,-453.584 L 122.548,-453.509 z
M 123.437,-384.089 L 124.045,-384.245 L 124.629,-384.476 L 125.179,-384.778 L 125.687,-385.147 L 126.145,-385.577
 L 126.545,-386.061 L 126.882,-386.591 L 127.149,-387.159 L 127.343,-387.757 L 127.461,-388.373 L 127.5,-389
 L 127.5,-439 L 127.461,-439.627 L 127.343,-440.243 L 127.149,-440.841 L 126.882,-441.409 L 126.545,-441.939
 L 126.145,-442.423 L 125.687,-442.853 L 125.179,-443.222 L 124.629,-443.524 L 124.045,-443.755 L 123.437,-443.911
 L 122.814,-443.99 L -122.814,-443.99 L -123.437,-443.911 L -124.045,-443.755 L -124.629,-443.524 L -125.179,-443.222
 L -125.687,-442.853 L -126.145,-442.423 L -126.545,-441.939 L -126.882,-441.409 L -127.149,-440.841 L -127.343,-440.243
 L -127.461,-439.627 L -127.5,-439 L -127.5,-389 L -127.461,-388.373 L -127.343,-387.757 L -127.149,-387.159
 L -126.882,-386.591 L -126.545,-386.061 L -126.145,-385.577 L -125.687,-385.147 L -125.179,-384.778 L -124.629,-384.476
 L -124.045,-384.245 L -123.437,-384.089 L -122.814,-384.01 L 122.814,-384.01 z
M -122.548,-384.509 L -123.14,-384.584 L -123.718,-384.732 L -124.272,-384.952 L -124.795,-385.239 L -125.278,-385.59
 L -125.713,-385.998 L -126.093,-386.458 L -126.412,-386.962 L -126.666,-387.501 L -126.851,-388.069 L -126.963,-388.655
 L -127,-389.25 L -127,-438.75 L -126.963,-439.345 L -126.851,-439.931 L -126.666,-440.499 L -126.412,-441.038
 L -126.093,-441.542 L -125.713,-442.002 L -125.278,-442.41 L -124.795,-442.761 L -124.272,-443.048 L -123.718,-443.268
 L -123.14,-443.416 L -122.548,-443.491 L 122.548,-443.491 L 123.14,-443.416 L 123.718,-443.268 L 124.272,-443.048
 L 124.795,-442.761 L 125.278,-442.41 L 125.713,-442.002 L 126.093,-441.542 L 126.412,-441.038 L 126.666,-440.499
 L 126.851,-439.931 L 126.963,-439.345 L 127,-438.75 L 127,-389.25 L 126.963,-388.655 L 126.851,-388.069
 L 126.666,-387.501 L 126.412,-386.962 L 126.093,-386.458 L 125.713,-385.998 L 125.278,-385.59 L 124.795,-385.239
 L 124.272,-384.952 L 123.718,-384.732 L 123.14,-384.584 L 122.548,-384.509 z
M 123.437,-315.089 L 124.045,-315.245 L 124.629,-315.476 L 125.179,-315.778 L 125.687,-316.147 L 126.145,-316.577
 L 126.545,-317.061 L 126.882,-317.591 L 127.149,-318.159 L 127.343,-318.757 L 127.461,-319.373 L 127.5,-320
 L 127.5,-370 L 127.461,-370.627 L 127.343,-371.243 L 127.149,-371.841 L 126.882,-372.409 L 126.545,-372.939
 L 126.145,-373.423 L 125.687,-373.853 L 125.179,-374.222 L 124.629,-374.524 L 124.045,-374.755 L 123.437,-374.911
 L 122.814,-374.99 L -122.814,-374.99 L -123.437,-374.911 L -124.045,-374.755 L -124.629,-374.524 L -125.179,-374.222
 L -125.687,-373.853 L -126.145,-373.423 L -126.545,-372.939 L -126.882,-372.409 L -127.149,-371.841 L -127.343,-371.243
 L -127.461,-370.627 L -127.5,-370 L -127.5,-320 L -127.461,-319.373 L -127.343,-318.757 L -127.149,-318.159
 L -126.882,-317.591 L -126.545,-317.061 L -126.145,-316.577 L -125.687,-316.147 L -125.179,-315.778 L -124.629,-315.476
 L -124.045,-315.245 L -123.437,-315.089 L -122.814,-315.01 L 122.814,-315.01 z
M -122.493,-316.388 L -122.975,-316.449 L -123.446,-316.57 L -123.898,-316.749 L -124.323,-316.983 L -124.716,-317.269
 L -125.071,-317.601 L -125.38,-317.976 L -125.641,-318.386 L -125.848,-318.826 L -125.998,-319.288 L -126.089,-319.765
 L -126.119,-320.25 L -126.119,-369.75 L -126.089,-370.235 L -125.998,-370.712 L -125.848,-371.174 L -125.641,-371.614
 L -125.38,-372.024 L -125.071,-372.399 L -124.716,-372.731 L -124.323,-373.017 L -123.898,-373.251 L -123.446,-373.43
 L -122.975,-373.551 L -122.493,-373.612 L 122.493,-373.612 L 122.975,-373.551 L 123.446,-373.43 L 123.898,-373.251
 L 124.323,-373.017 L 124.716,-372.731 L 125.071,-372.399 L 125.38,-372.024 L 125.641,-371.614 L 125.848,-371.174
 L 125.998,-370.712 L 126.089,-370.235 L 126.119,-369.75 L 126.119,-320.25 L 126.089,-319.765 L 125.998,-319.288
 L 125.848,-318.826 L 125.641,-318.386 L 125.38,-317.976 L 125.071,-317.601 L 124.716,-317.269 L 124.323,-316.983
 L 123.898,-316.749 L 123.446,-316.57 L 122.975,-316.449 L 122.493,-316.388 z
M 123.437,-246.089 L 124.045,-246.245 L 124.629,-246.476 L 125.179,-246.778 L 125.687,-247.147 L 126.145,-247.577
 L 126.545,-248.061 L 126.882,-248.591 L 127.149,-249.159 L 127.343,-249.757 L 127.461,-250.373 L 127.5,-251
 L 127.5,-301 L 127.461,-301.627 L 127.343,-302.243 L 127.149,-302.841 L 126.882,-303.409 L 126.545,-303.939
 L 126.145,-304.423 L 125.687,-304.853 L 125.179,-305.222 L 124.629,-305.524 L 124.045,-305.755 L 123.437,-305.911
 L 122.814,-305.99 L -122.814,-305.99 L -123.437,-305.911 L -124.045,-305.755 L -124.629,-305.524 L -125.179,-305.222
 L -125.687,-304.853 L -126.145,-304.423 L -126.545,-303.939 L -126.882,-303.409 L -127.149,-302.841 L -127.343,-302.243
 L -127.461,-301.627 L -127.5,-301 L -127.5,-251 L -127.461,-250.373 L -127.343,-249.757 L -127.149,-249.159
 L -126.882,-248.591 L -126.545,-248.061 L -126.145,-247.577 L -125.687,-247.147 L -125.179,-246.778 L -124.629,-246.476
 L -124.045,-246.245 L -123.437,-246.089 L -122.814,-246.01 L 122.814,-246.01 z
M -120.113,-296.704 L -120.337,-296.732 L -120.556,-296.788 L -120.766,-296.871 L -120.964,-296.98 L -121.147,-297.113
 L -121.312,-297.268 L -121.456,-297.442 L -121.577,-297.633 L -121.674,-297.837 L -121.743,-298.052 L -121.786,-298.274
 L -121.8,-298.5 L -121.786,-298.726 L -121.743,-298.948 L -121.674,-299.163 L -121.577,-299.367 L -121.456,-299.558
 L -121.312,-299.732 L -121.147,-299.887 L -120.964,-300.02 L -120.766,-300.129 L -120.556,-300.212 L -120.337,-300.268
 L -120.113,-300.296 L -119.887,-300.296 L -119.663,-300.268 L -119.444,-300.212 L -119.234,-300.129 L -119.036,-300.02
 L -118.853,-299.887 L -118.688,-299.732 L -118.544,-299.558 L -118.423,-299.367 L -118.326,-299.163 L -118.257,-298.948
 L -118.214,-298.726 L -118.2,-298.5 L -118.214,-298.274 L -118.257,-298.052 L -118.326,-297.837 L -118.423,-297.633
 L -118.544,-297.442 L -118.688,-297.268 L -118.853,-297.113 L -119.036,-296.98 L -119.234,-296.871 L -119.444,-296.788
 L -119.663,-296.732 L -119.887,-296.704 z
M 119.887,-296.704 L 119.663,-296.732 L 119.444,-296.788 L 119.234,-296.871 L 119.036,-296.98 L 118.853,-297.113
 L 118.688,-297.268 L 118.544,-297.442 L 118.423,-297.633 L 118.326,-297.837 L 118.257,-298.052 L 118.214,-298.274
 L 118.2,-298.5 L 118.214,-298.726 L 118.257,-298.948 L 118.326,-299.163 L 118.423,-299.367 L 118.544,-299.558
 L 118.688,-299.732 L 118.853,-299.887 L 119.036,-300.02 L 119.234,-300.129 L 119.444,-300.212 L 119.663,-300.268
 L 119.887,-300.296 L 120.113,-300.296 L 120.337,-300.268 L 120.556,-300.212 L 120.766,-300.129 L 120.964,-300.02
 L 121.147,-299.887 L 121.312,-299.732 L 121.456,-299.558 L 121.577,-299.367 L 121.674,-299.163 L 121.743,-298.948
 L 121.786,-298.726 L 121.8,-298.5 L 121.786,-298.274 L 121.743,-298.052 L 121.674,-297.837 L 121.577,-297.633
 L 121.456,-297.442 L 121.312,-297.268 L 121.147,-297.113 L 120.964,-296.98 L 120.766,-296.871 L 120.556,-296.788
 L 120.337,-296.732 L 120.113,-296.704 z
M 119.887,-251.704 L 119.663,-251.732 L 119.444,-251.788 L 119.234,-251.871 L 119.036,-251.98 L 118.853,-252.113
 L 118.688,-252.268 L 118.544,-252.442 L 118.423,-252.633 L 118.326,-252.837 L 118.257,-253.052 L 118.214,-253.274
 L 118.2,-253.5 L 118.214,-253.726 L 118.257,-253.948 L 118.326,-254.163 L 118.423,-254.367 L 118.544,-254.558
 L 118.688,-254.732 L 118.853,-254.887 L 119.036,-255.02 L 119.234,-255.129 L 119.444,-255.212 L 119.663,-255.268
 L 119.887,-255.296 L 120.113,-255.296 L 120.337,-255.268 L 120.556,-255.212 L 120.766,-255.129 L 120.964,-255.02
 L 121.147,-254.887 L 121.312,-254.732 L 121.456,-254.558 L 121.577,-254.367 L 121.674,-254.163 L 121.743,-253.948
 L 121.786,-253.726 L 121.8,-253.5 L 121.786,-253.274 L 121.743,-253.052 L 121.674,-252.837 L 121.577,-252.633
 L 121.456,-252.442 L 121.312,-252.268 L 121.147,-252.113 L 120.964,-251.98 L 120.766,-251.871 L 120.556,-251.788
 L 120.337,-251.732 L 120.113,-251.704 z
M -120.113,-251.704 L -120.337,-251.732 L -120.556,-251.788 L -120.766,-251.871 L -120.964,-251.98 L -121.147,-252.113
 L -121.312,-252.268 L -121.456,-252.442 L -121.577,-252.633 L -121.674,-252.837 L -121.743,-253.052 L -121.786,-253.274
 L -121.8,-253.5 L -121.786,-253.726 L -121.743,-253.948 L -121.674,-254.163 L -121.577,-254.367 L -121.456,-254.558
 L -121.312,-254.732 L -121.147,-254.887 L -120.964,-255.02 L -120.766,-255.129 L -120.556,-255.212 L -120.337,-255.268
 L -120.113,-255.296 L -119.887,-255.296 L -119.663,-255.268 L -119.444,-255.212 L -119.234,-255.129 L -119.036,-255.02
 L -118.853,-254.887 L -118.688,-254.732 L -118.544,-254.558 L -118.423,-254.367 L -118.326,-254.163 L -118.257,-253.948
 L -118.214,-253.726 L -118.2,-253.5 L -118.214,-253.274 L -118.257,-253.052 L -118.326,-252.837 L -118.423,-252.633
 L -118.544,-252.442 L -118.688,-252.268 L -118.853,-252.113 L -119.036,-251.98 L -119.234,-251.871 L -119.444,-251.788
 L -119.663,-251.732 L -119.887,-251.704 z
" stroke="black" fill="lightgray" stroke-width="0.5"/>
</svg>
