  0
SECTION
  2
BLOCKS
  0
ENDSEC
  0
SECTION
  2
ENTITIES
  0
LINE
  8
0
 10
-148.5
 20
1210.44
 11
-148.187
 21
1210.15
  0
LINE
  8
0
 10
-148.187
 20
1210.15
 11
-147.679
 21
1209.78
  0
LINE
  8
0
 10
-147.679
 20
1209.78
 11
-147.129
 21
1209.48
  0
LINE
  8
0
 10
-147.129
 20
1209.48
 11
-146.545
 21
1209.24
  0
LINE
  8
0
 10
-146.545
 20
1209.24
 11
-145.937
 21
1209.09
  0
LINE
  8
0
 10
-145.937
 20
1209.09
 11
-145.314
 21
1209.01
  0
LINE
  8
0
 10
-145.314
 20
1209.01
 11
145.314
 21
1209.01
  0
LINE
  8
0
 10
145.314
 20
1209.01
 11
145.937
 21
1209.09
  0
LINE
  8
0
 10
145.937
 20
1209.09
 11
146.545
 21
1209.24
  0
LINE
  8
0
 10
146.545
 20
1209.24
 11
147.129
 21
1209.48
  0
LINE
  8
0
 10
147.129
 20
1209.48
 11
147.679
 21
1209.78
  0
LINE
  8
0
 10
147.679
 20
1209.78
 11
148.187
 21
1210.15
  0
LINE
  8
0
 10
148.187
 20
1210.15
 11
148.645
 21
1210.58
  0
LINE
  8
0
 10
148.645
 20
1210.58
 11
149.045
 21
1211.06
  0
LINE
  8
0
 10
149.045
 20
1211.06
 11
149.382
 21
1211.59
  0
LINE
  8
0
 10
149.382
 20
1211.59
 11
149.649
 21
1212.16
  0
LINE
  8
0
 10
149.649
 20
1212.16
 11
149.843
 21
1212.76
  0
LINE
  8
0
 10
149.843
 20
1212.76
 11
149.961
 21
1213.37
  0
LINE
  8
0
 10
149.961
 20
1213.37
 11
150
 21
1214
  0
LINE
  8
0
 10
150
 20
1214
 11
150
 21
1414
  0
LINE
  8
0
 10
150
 20
1414
 11
149.961
 21
1414.63
  0
LINE
  8
0
 10
149.961
 20
1414.63
 11
149.843
 21
1415.24
  0
LINE
  8
0
 10
149.843
 20
1415.24
 11
149.649
 21
1415.84
  0
LINE
  8
0
 10
149.649
 20
1415.84
 11
149.382
 21
1416.41
  0
LINE
  8
0
 10
149.382
 20
1416.41
 11
149.045
 21
1416.94
  0
LINE
  8
0
 10
149.045
 20
1416.94
 11
148.645
 21
1417.42
  0
LINE
  8
0
 10
148.645
 20
1417.42
 11
148.187
 21
1417.85
  0
LINE
  8
0
 10
148.187
 20
1417.85
 11
147.679
 21
1418.22
  0
LINE
  8
0
 10
147.679
 20
1418.22
 11
147.129
 21
1418.52
  0
LINE
  8
0
 10
147.129
 20
1418.52
 11
146.545
 21
1418.76
  0
LINE
  8
0
 10
146.545
 20
1418.76
 11
145.937
 21
1418.91
  0
LINE
  8
0
 10
145.937
 20
1418.91
 11
145.314
 21
1418.99
  0
LINE
  8
0
 10
145.314
 20
1418.99
 11
-145.314
 21
1418.99
  0
LINE
  8
0
 10
-145.314
 20
1418.99
 11
-145.937
 21
1418.91
  0
LINE
  8
0
 10
-145.937
 20
1418.91
 11
-146.545
 21
1418.76
  0
LINE
  8
0
 10
-146.545
 20
1418.76
 11
-147.129
 21
1418.52
  0
LINE
  8
0
 10
-147.129
 20
1418.52
 11
-147.679
 21
1418.22
  0
LINE
  8
0
 10
-147.679
 20
1418.22
 11
-148.187
 21
1417.85
  0
LINE
  8
0
 10
-148.187
 20
1417.85
 11
-148.5
 21
1417.56
  0
LINE
  8
0
 10
-148.5
 20
1417.56
 11
-148.5
 21
1418.99
  0
LINE
  8
0
 10
-148.5
 20
1418.99
 11
-151.5
 21
1418.99
  0
LINE
  8
0
 10
-151.5
 20
1418.99
 11
-151.5
 21
1209.01
  0
LINE
  8
0
 10
-151.5
 20
1209.01
 11
-148.5
 21
1209.01
  0
LINE
  8
0
 10
-148.5
 20
1209.01
 11
-148.5
 21
1210.44
  0
LINE
  8
0
 10
-144.751
 20
1210.51
 11
-145.25
 21
1210.57
  0
LINE
  8
0
 10
-145.25
 20
1210.57
 11
-145.736
 21
1210.7
  0
LINE
  8
0
 10
-145.736
 20
1210.7
 11
-146.203
 21
1210.88
  0
LINE
  8
0
 10
-146.203
 20
1210.88
 11
-146.643
 21
1211.12
  0
LINE
  8
0
 10
-146.643
 20
1211.12
 11
-147.05
 21
1211.42
  0
LINE
  8
0
 10
-147.05
 20
1211.42
 11
-147.416
 21
1211.76
  0
LINE
  8
0
 10
-147.416
 20
1211.76
 11
-147.736
 21
1212.15
  0
LINE
  8
0
 10
-147.736
 20
1212.15
 11
-148.005
 21
1212.57
  0
LINE
  8
0
 10
-148.005
 20
1212.57
 11
-148.219
 21
1213.03
  0
LINE
  8
0
 10
-148.219
 20
1213.03
 11
-148.374
 21
1213.51
  0
LINE
  8
0
 10
-148.374
 20
1213.51
 11
-148.468
 21
1214
  0
LINE
  8
0
 10
-148.468
 20
1214
 11
-148.5
 21
1214.5
  0
LINE
  8
0
 10
-148.5
 20
1214.5
 11
-148.5
 21
1413.5
  0
LINE
  8
0
 10
-148.5
 20
1413.5
 11
-148.468
 21
1414
  0
LINE
  8
0
 10
-148.468
 20
1414
 11
-148.374
 21
1414.49
  0
LINE
  8
0
 10
-148.374
 20
1414.49
 11
-148.219
 21
1414.97
  0
LINE
  8
0
 10
-148.219
 20
1414.97
 11
-148.005
 21
1415.43
  0
LINE
  8
0
 10
-148.005
 20
1415.43
 11
-147.736
 21
1415.85
  0
LINE
  8
0
 10
-147.736
 20
1415.85
 11
-147.416
 21
1416.24
  0
LINE
  8
0
 10
-147.416
 20
1416.24
 11
-147.05
 21
1416.58
  0
LINE
  8
0
 10
-147.05
 20
1416.58
 11
-146.643
 21
1416.88
  0
LINE
  8
0
 10
-146.643
 20
1416.88
 11
-146.203
 21
1417.12
  0
LINE
  8
0
 10
-146.203
 20
1417.12
 11
-145.736
 21
1417.3
  0
LINE
  8
0
 10
-145.736
 20
1417.3
 11
-145.25
 21
1417.43
  0
LINE
  8
0
 10
-145.25
 20
1417.43
 11
-144.751
 21
1417.49
  0
LINE
  8
0
 10
-144.751
 20
1417.49
 11
144.751
 21
1417.49
  0
LINE
  8
0
 10
144.751
 20
1417.49
 11
145.25
 21
1417.43
  0
LINE
  8
0
 10
145.25
 20
1417.43
 11
145.736
 21
1417.3
  0
LINE
  8
0
 10
145.736
 20
1417.3
 11
146.203
 21
1417.12
  0
LINE
  8
0
 10
146.203
 20
1417.12
 11
146.643
 21
1416.88
  0
LINE
  8
0
 10
146.643
 20
1416.88
 11
147.05
 21
1416.58
  0
LINE
  8
0
 10
147.05
 20
1416.58
 11
147.416
 21
1416.24
  0
LINE
  8
0
 10
147.416
 20
1416.24
 11
147.736
 21
1415.85
  0
LINE
  8
0
 10
147.736
 20
1415.85
 11
148.005
 21
1415.43
  0
LINE
  8
0
 10
148.005
 20
1415.43
 11
148.219
 21
1414.97
  0
LINE
  8
0
 10
148.219
 20
1414.97
 11
148.374
 21
1414.49
  0
LINE
  8
0
 10
148.374
 20
1414.49
 11
148.468
 21
1414
  0
LINE
  8
0
 10
148.468
 20
1414
 11
148.5
 21
1413.5
  0
LINE
  8
0
 10
148.5
 20
1413.5
 11
148.5
 21
1214.5
  0
LINE
  8
0
 10
148.5
 20
1214.5
 11
148.468
 21
1214
  0
LINE
  8
0
 10
148.468
 20
1214
 11
148.374
 21
1213.51
  0
LINE
  8
0
 10
148.374
 20
1213.51
 11
148.219
 21
1213.03
  0
LINE
  8
0
 10
148.219
 20
1213.03
 11
148.005
 21
1212.57
  0
LINE
  8
0
 10
148.005
 20
1212.57
 11
147.736
 21
1212.15
  0
LINE
  8
0
 10
147.736
 20
1212.15
 11
147.416
 21
1211.76
  0
LINE
  8
0
 10
147.416
 20
1211.76
 11
147.05
 21
1211.42
  0
LINE
  8
0
 10
147.05
 20
1211.42
 11
146.643
 21
1211.12
  0
LINE
  8
0
 10
146.643
 20
1211.12
 11
146.203
 21
1210.88
  0
LINE
  8
0
 10
146.203
 20
1210.88
 11
145.736
 21
1210.7
  0
LINE
  8
0
 10
145.736
 20
1210.7
 11
145.25
 21
1210.57
  0
LINE
  8
0
 10
145.25
 20
1210.57
 11
144.751
 21
1210.51
  0
LINE
  8
0
 10
144.751
 20
1210.51
 11
-144.751
 21
1210.51
  0
LINE
  8
0
 10
-148.5
 20
991.441
 11
-148.187
 21
991.147
  0
LINE
  8
0
 10
-148.187
 20
991.147
 11
-147.679
 21
990.778
  0
LINE
  8
0
 10
-147.679
 20
990.778
 11
-147.129
 21
990.476
  0
LINE
  8
0
 10
-147.129
 20
990.476
 11
-146.545
 21
990.245
  0
LINE
  8
0
 10
-146.545
 20
990.245
 11
-145.937
 21
990.089
  0
LINE
  8
0
 10
-145.937
 20
990.089
 11
-145.314
 21
990.01
  0
LINE
  8
0
 10
-145.314
 20
990.01
 11
145.314
 21
990.01
  0
LINE
  8
0
 10
145.314
 20
990.01
 11
145.937
 21
990.089
  0
LINE
  8
0
 10
145.937
 20
990.089
 11
146.545
 21
990.245
  0
LINE
  8
0
 10
146.545
 20
990.245
 11
147.129
 21
990.476
  0
LINE
  8
0
 10
147.129
 20
990.476
 11
147.679
 21
990.778
  0
LINE
  8
0
 10
147.679
 20
990.778
 11
148.187
 21
991.147
  0
LINE
  8
0
 10
148.187
 20
991.147
 11
148.645
 21
991.577
  0
LINE
  8
0
 10
148.645
 20
991.577
 11
149.045
 21
992.061
  0
LINE
  8
0
 10
149.045
 20
992.061
 11
149.382
 21
992.591
  0
LINE
  8
0
 10
149.382
 20
992.591
 11
149.649
 21
993.159
  0
LINE
  8
0
 10
149.649
 20
993.159
 11
149.843
 21
993.757
  0
LINE
  8
0
 10
149.843
 20
993.757
 11
149.961
 21
994.373
  0
LINE
  8
0
 10
149.961
 20
994.373
 11
150
 21
995
  0
LINE
  8
0
 10
150
 20
995
 11
150
 21
1195
  0
LINE
  8
0
 10
150
 20
1195
 11
149.961
 21
1195.63
  0
LINE
  8
0
 10
149.961
 20
1195.63
 11
149.843
 21
1196.24
  0
LINE
  8
0
 10
149.843
 20
1196.24
 11
149.649
 21
1196.84
  0
LINE
  8
0
 10
149.649
 20
1196.84
 11
149.382
 21
1197.41
  0
LINE
  8
0
 10
149.382
 20
1197.41
 11
149.045
 21
1197.94
  0
LINE
  8
0
 10
149.045
 20
1197.94
 11
148.645
 21
1198.42
  0
LINE
  8
0
 10
148.645
 20
1198.42
 11
148.187
 21
1198.85
  0
LINE
  8
0
 10
148.187
 20
1198.85
 11
147.679
 21
1199.22
  0
LINE
  8
0
 10
147.679
 20
1199.22
 11
147.129
 21
1199.52
  0
LINE
  8
0
 10
147.129
 20
1199.52
 11
146.545
 21
1199.76
  0
LINE
  8
0
 10
146.545
 20
1199.76
 11
145.937
 21
1199.91
  0
LINE
  8
0
 10
145.937
 20
1199.91
 11
145.314
 21
1199.99
  0
LINE
  8
0
 10
145.314
 20
1199.99
 11
-145.314
 21
1199.99
  0
LINE
  8
0
 10
-145.314
 20
1199.99
 11
-145.937
 21
1199.91
  0
LINE
  8
0
 10
-145.937
 20
1199.91
 11
-146.545
 21
1199.76
  0
LINE
  8
0
 10
-146.545
 20
1199.76
 11
-147.129
 21
1199.52
  0
LINE
  8
0
 10
-147.129
 20
1199.52
 11
-147.679
 21
1199.22
  0
LINE
  8
0
 10
-147.679
 20
1199.22
 11
-148.187
 21
1198.85
  0
LINE
  8
0
 10
-148.187
 20
1198.85
 11
-148.5
 21
1198.56
  0
LINE
  8
0
 10
-148.5
 20
1198.56
 11
-148.5
 21
1199.99
  0
LINE
  8
0
 10
-148.5
 20
1199.99
 11
-151.5
 21
1199.99
  0
LINE
  8
0
 10
-151.5
 20
1199.99
 11
-151.5
 21
990.01
  0
LINE
  8
0
 10
-151.5
 20
990.01
 11
-148.5
 21
990.01
  0
LINE
  8
0
 10
-148.5
 20
990.01
 11
-148.5
 21
991.441
  0
LINE
  8
0
 10
-144.743
 20
991.635
 11
-145.226
 21
991.696
  0
LINE
  8
0
 10
-145.226
 20
991.696
 11
-145.697
 21
991.817
  0
LINE
  8
0
 10
-145.697
 20
991.817
 11
-146.149
 21
991.996
  0
LINE
  8
0
 10
-146.149
 20
991.996
 11
-146.575
 21
992.23
  0
LINE
  8
0
 10
-146.575
 20
992.23
 11
-146.969
 21
992.516
  0
LINE
  8
0
 10
-146.969
 20
992.516
 11
-147.323
 21
992.849
  0
LINE
  8
0
 10
-147.323
 20
992.849
 11
-147.633
 21
993.224
  0
LINE
  8
0
 10
-147.633
 20
993.224
 11
-147.894
 21
993.634
  0
LINE
  8
0
 10
-147.894
 20
993.634
 11
-148.101
 21
994.074
  0
LINE
  8
0
 10
-148.101
 20
994.074
 11
-148.251
 21
994.537
  0
LINE
  8
0
 10
-148.251
 20
994.537
 11
-148.342
 21
995.015
  0
LINE
  8
0
 10
-148.342
 20
995.015
 11
-148.373
 21
995.5
  0
LINE
  8
0
 10
-148.373
 20
995.5
 11
-148.373
 21
1194.5
  0
LINE
  8
0
 10
-148.373
 20
1194.5
 11
-148.342
 21
1194.99
  0
LINE
  8
0
 10
-148.342
 20
1194.99
 11
-148.251
 21
1195.46
  0
LINE
  8
0
 10
-148.251
 20
1195.46
 11
-148.101
 21
1195.93
  0
LINE
  8
0
 10
-148.101
 20
1195.93
 11
-147.894
 21
1196.37
  0
LINE
  8
0
 10
-147.894
 20
1196.37
 11
-147.633
 21
1196.78
  0
LINE
  8
0
 10
-147.633
 20
1196.78
 11
-147.323
 21
1197.15
  0
LINE
  8
0
 10
-147.323
 20
1197.15
 11
-146.969
 21
1197.48
  0
LINE
  8
0
 10
-146.969
 20
1197.48
 11
-146.575
 21
1197.77
  0
LINE
  8
0
 10
-146.575
 20
1197.77
 11
-146.149
 21
1198
  0
LINE
  8
0
 10
-146.149
 20
1198
 11
-145.697
 21
1198.18
  0
LINE
  8
0
 10
-145.697
 20
1198.18
 11
-145.226
 21
1198.3
  0
LINE
  8
0
 10
-145.226
 20
1198.3
 11
-144.743
 21
1198.36
  0
LINE
  8
0
 10
-144.743
 20
1198.36
 11
144.743
 21
1198.36
  0
LINE
  8
0
 10
144.743
 20
1198.36
 11
145.226
 21
1198.3
  0
LINE
  8
0
 10
145.226
 20
1198.3
 11
145.697
 21
1198.18
  0
LINE
  8
0
 10
145.697
 20
1198.18
 11
146.149
 21
1198
  0
LINE
  8
0
 10
146.149
 20
1198
 11
146.575
 21
1197.77
  0
LINE
  8
0
 10
146.575
 20
1197.77
 11
146.969
 21
1197.48
  0
LINE
  8
0
 10
146.969
 20
1197.48
 11
147.323
 21
1197.15
  0
LINE
  8
0
 10
147.323
 20
1197.15
 11
147.633
 21
1196.78
  0
LINE
  8
0
 10
147.633
 20
1196.78
 11
147.894
 21
1196.37
  0
LINE
  8
0
 10
147.894
 20
1196.37
 11
148.101
 21
1195.93
  0
LINE
  8
0
 10
148.101
 20
1195.93
 11
148.251
 21
1195.46
  0
LINE
  8
0
 10
148.251
 20
1195.46
 11
148.342
 21
1194.99
  0
LINE
  8
0
 10
148.342
 20
1194.99
 11
148.373
 21
1194.5
  0
LINE
  8
0
 10
148.373
 20
1194.5
 11
148.373
 21
995.5
  0
LINE
  8
0
 10
148.373
 20
995.5
 11
148.342
 21
995.015
  0
LINE
  8
0
 10
148.342
 20
995.015
 11
148.251
 21
994.537
  0
LINE
  8
0
 10
148.251
 20
994.537
 11
148.101
 21
994.074
  0
LINE
  8
0
 10
148.101
 20
994.074
 11
147.894
 21
993.634
  0
LINE
  8
0
 10
147.894
 20
993.634
 11
147.633
 21
993.224
  0
LINE
  8
0
 10
147.633
 20
993.224
 11
147.323
 21
992.849
  0
LINE
  8
0
 10
147.323
 20
992.849
 11
146.969
 21
992.516
  0
LINE
  8
0
 10
146.969
 20
992.516
 11
146.575
 21
992.23
  0
LINE
  8
0
 10
146.575
 20
992.23
 11
146.149
 21
991.996
  0
LINE
  8
0
 10
146.149
 20
991.996
 11
145.697
 21
991.817
  0
LINE
  8
0
 10
145.697
 20
991.817
 11
145.226
 21
991.696
  0
LINE
  8
0
 10
145.226
 20
991.696
 11
144.743
 21
991.635
  0
LINE
  8
0
 10
144.743
 20
991.635
 11
-144.743
 21
991.635
  0
LINE
  8
0
 10
145.937
 20
771.089
 11
146.545
 21
771.245
  0
LINE
  8
0
 10
146.545
 20
771.245
 11
147.129
 21
771.476
  0
LINE
  8
0
 10
147.129
 20
771.476
 11
147.679
 21
771.778
  0
LINE
  8
0
 10
147.679
 20
771.778
 11
148.187
 21
772.147
  0
LINE
  8
0
 10
148.187
 20
772.147
 11
148.645
 21
772.577
  0
LINE
  8
0
 10
148.645
 20
772.577
 11
149.045
 21
773.061
  0
LINE
  8
0
 10
149.045
 20
773.061
 11
149.382
 21
773.591
  0
LINE
  8
0
 10
149.382
 20
773.591
 11
149.649
 21
774.159
  0
LINE
  8
0
 10
149.649
 20
774.159
 11
149.843
 21
774.757
  0
LINE
  8
0
 10
149.843
 20
774.757
 11
149.961
 21
775.373
  0
LINE
  8
0
 10
149.961
 20
775.373
 11
150
 21
776
  0
LINE
  8
0
 10
150
 20
776
 11
150
 21
976
  0
LINE
  8
0
 10
150
 20
976
 11
149.961
 21
976.627
  0
LINE
  8
0
 10
149.961
 20
976.627
 11
149.843
 21
977.243
  0
LINE
  8
0
 10
149.843
 20
977.243
 11
149.649
 21
977.841
  0
LINE
  8
0
 10
149.649
 20
977.841
 11
149.382
 21
978.409
  0
LINE
  8
0
 10
149.382
 20
978.409
 11
149.045
 21
978.939
  0
LINE
  8
0
 10
149.045
 20
978.939
 11
148.645
 21
979.423
  0
LINE
  8
0
 10
148.645
 20
979.423
 11
148.187
 21
979.853
  0
LINE
  8
0
 10
148.187
 20
979.853
 11
147.679
 21
980.222
  0
LINE
  8
0
 10
147.679
 20
980.222
 11
147.129
 21
980.524
  0
LINE
  8
0
 10
147.129
 20
980.524
 11
146.545
 21
980.755
  0
LINE
  8
0
 10
146.545
 20
980.755
 11
145.937
 21
980.911
  0
LINE
  8
0
 10
145.937
 20
980.911
 11
145.314
 21
980.99
  0
LINE
  8
0
 10
145.314
 20
980.99
 11
-145.314
 21
980.99
  0
LINE
  8
0
 10
-145.314
 20
980.99
 11
-145.937
 21
980.911
  0
LINE
  8
0
 10
-145.937
 20
980.911
 11
-146.545
 21
980.755
  0
LINE
  8
0
 10
-146.545
 20
980.755
 11
-147.129
 21
980.524
  0
LINE
  8
0
 10
-147.129
 20
980.524
 11
-147.679
 21
980.222
  0
LINE
  8
0
 10
-147.679
 20
980.222
 11
-148.187
 21
979.853
  0
LINE
  8
0
 10
-148.187
 20
979.853
 11
-148.5
 21
979.559
  0
LINE
  8
0
 10
-148.5
 20
979.559
 11
-148.5
 21
980.615
  0
LINE
  8
0
 10
-148.5
 20
980.615
 11
-151.5
 21
980.615
  0
LINE
  8
0
 10
-151.5
 20
980.615
 11
-151.5
 21
771.385
  0
LINE
  8
0
 10
-151.5
 20
771.385
 11
-148.5
 21
771.385
  0
LINE
  8
0
 10
-148.5
 20
771.385
 11
-148.5
 21
772.441
  0
LINE
  8
0
 10
-148.5
 20
772.441
 11
-148.187
 21
772.147
  0
LINE
  8
0
 10
-148.187
 20
772.147
 11
-147.679
 21
771.778
  0
LINE
  8
0
 10
-147.679
 20
771.778
 11
-147.129
 21
771.476
  0
LINE
  8
0
 10
-147.129
 20
771.476
 11
-146.545
 21
771.245
  0
LINE
  8
0
 10
-146.545
 20
771.245
 11
-145.937
 21
771.089
  0
LINE
  8
0
 10
-145.937
 20
771.089
 11
-145.314
 21
771.01
  0
LINE
  8
0
 10
-145.314
 20
771.01
 11
145.314
 21
771.01
  0
LINE
  8
0
 10
145.314
 20
771.01
 11
145.937
 21
771.089
  0
LINE
  8
0
 10
-142.651
 20
971.105
 11
-142.95
 21
971.143
  0
LINE
  8
0
 10
-142.95
 20
971.143
 11
-143.242
 21
971.217
  0
LINE
  8
0
 10
-143.242
 20
971.217
 11
-143.522
 21
971.328
  0
LINE
  8
0
 10
-143.522
 20
971.328
 11
-143.786
 21
971.474
  0
LINE
  8
0
 10
-143.786
 20
971.474
 11
-144.03
 21
971.651
  0
LINE
  8
0
 10
-144.03
 20
971.651
 11
-144.25
 21
971.857
  0
LINE
  8
0
 10
-144.25
 20
971.857
 11
-144.442
 21
972.089
  0
LINE
  8
0
 10
-144.442
 20
972.089
 11
-144.603
 21
972.344
  0
LINE
  8
0
 10
-144.603
 20
972.344
 11
-144.731
 21
972.617
  0
LINE
  8
0
 10
-144.731
 20
972.617
 11
-144.825
 21
972.903
  0
LINE
  8
0
 10
-144.825
 20
972.903
 11
-144.881
 21
973.199
  0
LINE
  8
0
 10
-144.881
 20
973.199
 11
-144.9
 21
973.5
  0
LINE
  8
0
 10
-144.9
 20
973.5
 11
-144.881
 21
973.801
  0
LINE
  8
0
 10
-144.881
 20
973.801
 11
-144.825
 21
974.097
  0
LINE
  8
0
 10
-144.825
 20
974.097
 11
-144.731
 21
974.383
  0
LINE
  8
0
 10
-144.731
 20
974.383
 11
-144.603
 21
974.656
  0
LINE
  8
0
 10
-144.603
 20
974.656
 11
-144.442
 21
974.911
  0
LINE
  8
0
 10
-144.442
 20
974.911
 11
-144.25
 21
975.143
  0
LINE
  8
0
 10
-144.25
 20
975.143
 11
-144.03
 21
975.349
  0
LINE
  8
0
 10
-144.03
 20
975.349
 11
-143.786
 21
975.526
  0
LINE
  8
0
 10
-143.786
 20
975.526
 11
-143.522
 21
975.672
  0
LINE
  8
0
 10
-143.522
 20
975.672
 11
-143.242
 21
975.783
  0
LINE
  8
0
 10
-143.242
 20
975.783
 11
-142.95
 21
975.857
  0
LINE
  8
0
 10
-142.95
 20
975.857
 11
-142.651
 21
975.895
  0
LINE
  8
0
 10
-142.651
 20
975.895
 11
-142.349
 21
975.895
  0
LINE
  8
0
 10
-142.349
 20
975.895
 11
-142.05
 21
975.857
  0
LINE
  8
0
 10
-142.05
 20
975.857
 11
-141.758
 21
975.783
  0
LINE
  8
0
 10
-141.758
 20
975.783
 11
-141.478
 21
975.672
  0
LINE
  8
0
 10
-141.478
 20
975.672
 11
-141.214
 21
975.526
  0
LINE
  8
0
 10
-141.214
 20
975.526
 11
-140.97
 21
975.349
  0
LINE
  8
0
 10
-140.97
 20
975.349
 11
-140.75
 21
975.143
  0
LINE
  8
0
 10
-140.75
 20
975.143
 11
-140.558
 21
974.911
  0
LINE
  8
0
 10
-140.558
 20
974.911
 11
-140.397
 21
974.656
  0
LINE
  8
0
 10
-140.397
 20
974.656
 11
-140.269
 21
974.383
  0
LINE
  8
0
 10
-140.269
 20
974.383
 11
-140.175
 21
974.097
  0
LINE
  8
0
 10
-140.175
 20
974.097
 11
-140.119
 21
973.801
  0
LINE
  8
0
 10
-140.119
 20
973.801
 11
-140.1
 21
973.5
  0
LINE
  8
0
 10
-140.1
 20
973.5
 11
-140.119
 21
973.199
  0
LINE
  8
0
 10
-140.119
 20
973.199
 11
-140.175
 21
972.903
  0
LINE
  8
0
 10
-140.175
 20
972.903
 11
-140.269
 21
972.617
  0
LINE
  8
0
 10
-140.269
 20
972.617
 11
-140.397
 21
972.344
  0
LINE
  8
0
 10
-140.397
 20
972.344
 11
-140.558
 21
972.089
  0
LINE
  8
0
 10
-140.558
 20
972.089
 11
-140.75
 21
971.857
  0
LINE
  8
0
 10
-140.75
 20
971.857
 11
-140.97
 21
971.651
  0
LINE
  8
0
 10
-140.97
 20
971.651
 11
-141.214
 21
971.474
  0
LINE
  8
0
 10
-141.214
 20
971.474
 11
-141.478
 21
971.328
  0
LINE
  8
0
 10
-141.478
 20
971.328
 11
-141.758
 21
971.217
  0
LINE
  8
0
 10
-141.758
 20
971.217
 11
-142.05
 21
971.143
  0
LINE
  8
0
 10
-142.05
 20
971.143
 11
-142.349
 21
971.105
  0
LINE
  8
0
 10
-142.349
 20
971.105
 11
-142.651
 21
971.105
  0
LINE
  8
0
 10
142.349
 20
971.105
 11
142.05
 21
971.143
  0
LINE
  8
0
 10
142.05
 20
971.143
 11
141.758
 21
971.217
  0
LINE
  8
0
 10
141.758
 20
971.217
 11
141.478
 21
971.328
  0
LINE
  8
0
 10
141.478
 20
971.328
 11
141.214
 21
971.474
  0
LINE
  8
0
 10
141.214
 20
971.474
 11
140.97
 21
971.651
  0
LINE
  8
0
 10
140.97
 20
971.651
 11
140.75
 21
971.857
  0
LINE
  8
0
 10
140.75
 20
971.857
 11
140.558
 21
972.089
  0
LINE
  8
0
 10
140.558
 20
972.089
 11
140.397
 21
972.344
  0
LINE
  8
0
 10
140.397
 20
972.344
 11
140.269
 21
972.617
  0
LINE
  8
0
 10
140.269
 20
972.617
 11
140.175
 21
972.903
  0
LINE
  8
0
 10
140.175
 20
972.903
 11
140.119
 21
973.199
  0
LINE
  8
0
 10
140.119
 20
973.199
 11
140.1
 21
973.5
  0
LINE
  8
0
 10
140.1
 20
973.5
 11
140.119
 21
973.801
  0
LINE
  8
0
 10
140.119
 20
973.801
 11
140.175
 21
974.097
  0
LINE
  8
0
 10
140.175
 20
974.097
 11
140.269
 21
974.383
  0
LINE
  8
0
 10
140.269
 20
974.383
 11
140.397
 21
974.656
  0
LINE
  8
0
 10
140.397
 20
974.656
 11
140.558
 21
974.911
  0
LINE
  8
0
 10
140.558
 20
974.911
 11
140.75
 21
975.143
  0
LINE
  8
0
 10
140.75
 20
975.143
 11
140.97
 21
975.349
  0
LINE
  8
0
 10
140.97
 20
975.349
 11
141.214
 21
975.526
  0
LINE
  8
0
 10
141.214
 20
975.526
 11
141.478
 21
975.672
  0
LINE
  8
0
 10
141.478
 20
975.672
 11
141.758
 21
975.783
  0
LINE
  8
0
 10
141.758
 20
975.783
 11
142.05
 21
975.857
  0
LINE
  8
0
 10
142.05
 20
975.857
 11
142.349
 21
975.895
  0
LINE
  8
0
 10
142.349
 20
975.895
 11
142.651
 21
975.895
  0
LINE
  8
0
 10
142.651
 20
975.895
 11
142.95
 21
975.857
  0
LINE
  8
0
 10
142.95
 20
975.857
 11
143.242
 21
975.783
  0
LINE
  8
0
 10
143.242
 20
975.783
 11
143.522
 21
975.672
  0
LINE
  8
0
 10
143.522
 20
975.672
 11
143.786
 21
975.526
  0
LINE
  8
0
 10
143.786
 20
975.526
 11
144.03
 21
975.349
  0
LINE
  8
0
 10
144.03
 20
975.349
 11
144.25
 21
975.143
  0
LINE
  8
0
 10
144.25
 20
975.143
 11
144.442
 21
974.911
  0
LINE
  8
0
 10
144.442
 20
974.911
 11
144.603
 21
974.656
  0
LINE
  8
0
 10
144.603
 20
974.656
 11
144.731
 21
974.383
  0
LINE
  8
0
 10
144.731
 20
974.383
 11
144.825
 21
974.097
  0
LINE
  8
0
 10
144.825
 20
974.097
 11
144.881
 21
973.801
  0
LINE
  8
0
 10
144.881
 20
973.801
 11
144.9
 21
973.5
  0
LINE
  8
0
 10
144.9
 20
973.5
 11
144.881
 21
973.199
  0
LINE
  8
0
 10
144.881
 20
973.199
 11
144.825
 21
972.903
  0
LINE
  8
0
 10
144.825
 20
972.903
 11
144.731
 21
972.617
  0
LINE
  8
0
 10
144.731
 20
972.617
 11
144.603
 21
972.344
  0
LINE
  8
0
 10
144.603
 20
972.344
 11
144.442
 21
972.089
  0
LINE
  8
0
 10
144.442
 20
972.089
 11
144.25
 21
971.857
  0
LINE
  8
0
 10
144.25
 20
971.857
 11
144.03
 21
971.651
  0
LINE
  8
0
 10
144.03
 20
971.651
 11
143.786
 21
971.474
  0
LINE
  8
0
 10
143.786
 20
971.474
 11
143.522
 21
971.328
  0
LINE
  8
0
 10
143.522
 20
971.328
 11
143.242
 21
971.217
  0
LINE
  8
0
 10
143.242
 20
971.217
 11
142.95
 21
971.143
  0
LINE
  8
0
 10
142.95
 20
971.143
 11
142.651
 21
971.105
  0
LINE
  8
0
 10
142.651
 20
971.105
 11
142.349
 21
971.105
  0
LINE
  8
0
 10
142.349
 20
776.105
 11
142.05
 21
776.143
  0
LINE
  8
0
 10
142.05
 20
776.143
 11
141.758
 21
776.217
  0
LINE
  8
0
 10
141.758
 20
776.217
 11
141.478
 21
776.328
  0
LINE
  8
0
 10
141.478
 20
776.328
 11
141.214
 21
776.474
  0
LINE
  8
0
 10
141.214
 20
776.474
 11
140.97
 21
776.651
  0
LINE
  8
0
 10
140.97
 20
776.651
 11
140.75
 21
776.857
  0
LINE
  8
0
 10
140.75
 20
776.857
 11
140.558
 21
777.089
  0
LINE
  8
0
 10
140.558
 20
777.089
 11
140.397
 21
777.344
  0
LINE
  8
0
 10
140.397
 20
777.344
 11
140.269
 21
777.617
  0
LINE
  8
0
 10
140.269
 20
777.617
 11
140.175
 21
777.903
  0
LINE
  8
0
 10
140.175
 20
777.903
 11
140.119
 21
778.199
  0
LINE
  8
0
 10
140.119
 20
778.199
 11
140.1
 21
778.5
  0
LINE
  8
0
 10
140.1
 20
778.5
 11
140.119
 21
778.801
  0
LINE
  8
0
 10
140.119
 20
778.801
 11
140.175
 21
779.097
  0
LINE
  8
0
 10
140.175
 20
779.097
 11
140.269
 21
779.383
  0
LINE
  8
0
 10
140.269
 20
779.383
 11
140.397
 21
779.656
  0
LINE
  8
0
 10
140.397
 20
779.656
 11
140.558
 21
779.911
  0
LINE
  8
0
 10
140.558
 20
779.911
 11
140.75
 21
780.143
  0
LINE
  8
0
 10
140.75
 20
780.143
 11
140.97
 21
780.349
  0
LINE
  8
0
 10
140.97
 20
780.349
 11
141.214
 21
780.526
  0
LINE
  8
0
 10
141.214
 20
780.526
 11
141.478
 21
780.672
  0
LINE
  8
0
 10
141.478
 20
780.672
 11
141.758
 21
780.783
  0
LINE
  8
0
 10
141.758
 20
780.783
 11
142.05
 21
780.857
  0
LINE
  8
0
 10
142.05
 20
780.857
 11
142.349
 21
780.895
  0
LINE
  8
0
 10
142.349
 20
780.895
 11
142.651
 21
780.895
  0
LINE
  8
0
 10
142.651
 20
780.895
 11
142.95
 21
780.857
  0
LINE
  8
0
 10
142.95
 20
780.857
 11
143.242
 21
780.783
  0
LINE
  8
0
 10
143.242
 20
780.783
 11
143.522
 21
780.672
  0
LINE
  8
0
 10
143.522
 20
780.672
 11
143.786
 21
780.526
  0
LINE
  8
0
 10
143.786
 20
780.526
 11
144.03
 21
780.349
  0
LINE
  8
0
 10
144.03
 20
780.349
 11
144.25
 21
780.143
  0
LINE
  8
0
 10
144.25
 20
780.143
 11
144.442
 21
779.911
  0
LINE
  8
0
 10
144.442
 20
779.911
 11
144.603
 21
779.656
  0
LINE
  8
0
 10
144.603
 20
779.656
 11
144.731
 21
779.383
  0
LINE
  8
0
 10
144.731
 20
779.383
 11
144.825
 21
779.097
  0
LINE
  8
0
 10
144.825
 20
779.097
 11
144.881
 21
778.801
  0
LINE
  8
0
 10
144.881
 20
778.801
 11
144.9
 21
778.5
  0
LINE
  8
0
 10
144.9
 20
778.5
 11
144.881
 21
778.199
  0
LINE
  8
0
 10
144.881
 20
778.199
 11
144.825
 21
777.903
  0
LINE
  8
0
 10
144.825
 20
777.903
 11
144.731
 21
777.617
  0
LINE
  8
0
 10
144.731
 20
777.617
 11
144.603
 21
777.344
  0
LINE
  8
0
 10
144.603
 20
777.344
 11
144.442
 21
777.089
  0
LINE
  8
0
 10
144.442
 20
777.089
 11
144.25
 21
776.857
  0
LINE
  8
0
 10
144.25
 20
776.857
 11
144.03
 21
776.651
  0
LINE
  8
0
 10
144.03
 20
776.651
 11
143.786
 21
776.474
  0
LINE
  8
0
 10
143.786
 20
776.474
 11
143.522
 21
776.328
  0
LINE
  8
0
 10
143.522
 20
776.328
 11
143.242
 21
776.217
  0
LINE
  8
0
 10
143.242
 20
776.217
 11
142.95
 21
776.143
  0
LINE
  8
0
 10
142.95
 20
776.143
 11
142.651
 21
776.105
  0
LINE
  8
0
 10
142.651
 20
776.105
 11
142.349
 21
776.105
  0
LINE
  8
0
 10
-142.651
 20
776.105
 11
-142.95
 21
776.143
  0
LINE
  8
0
 10
-142.95
 20
776.143
 11
-143.242
 21
776.217
  0
LINE
  8
0
 10
-143.242
 20
776.217
 11
-143.522
 21
776.328
  0
LINE
  8
0
 10
-143.522
 20
776.328
 11
-143.786
 21
776.474
  0
LINE
  8
0
 10
-143.786
 20
776.474
 11
-144.03
 21
776.651
  0
LINE
  8
0
 10
-144.03
 20
776.651
 11
-144.25
 21
776.857
  0
LINE
  8
0
 10
-144.25
 20
776.857
 11
-144.442
 21
777.089
  0
LINE
  8
0
 10
-144.442
 20
777.089
 11
-144.603
 21
777.344
  0
LINE
  8
0
 10
-144.603
 20
777.344
 11
-144.731
 21
777.617
  0
LINE
  8
0
 10
-144.731
 20
777.617
 11
-144.825
 21
777.903
  0
LINE
  8
0
 10
-144.825
 20
777.903
 11
-144.881
 21
778.199
  0
LINE
  8
0
 10
-144.881
 20
778.199
 11
-144.9
 21
778.5
  0
LINE
  8
0
 10
-144.9
 20
778.5
 11
-144.881
 21
778.801
  0
LINE
  8
0
 10
-144.881
 20
778.801
 11
-144.825
 21
779.097
  0
LINE
  8
0
 10
-144.825
 20
779.097
 11
-144.731
 21
779.383
  0
LINE
  8
0
 10
-144.731
 20
779.383
 11
-144.603
 21
779.656
  0
LINE
  8
0
 10
-144.603
 20
779.656
 11
-144.442
 21
779.911
  0
LINE
  8
0
 10
-144.442
 20
779.911
 11
-144.25
 21
780.143
  0
LINE
  8
0
 10
-144.25
 20
780.143
 11
-144.03
 21
780.349
  0
LINE
  8
0
 10
-144.03
 20
780.349
 11
-143.786
 21
780.526
  0
LINE
  8
0
 10
-143.786
 20
780.526
 11
-143.522
 21
780.672
  0
LINE
  8
0
 10
-143.522
 20
780.672
 11
-143.242
 21
780.783
  0
LINE
  8
0
 10
-143.242
 20
780.783
 11
-142.95
 21
780.857
  0
LINE
  8
0
 10
-142.95
 20
780.857
 11
-142.651
 21
780.895
  0
LINE
  8
0
 10
-142.651
 20
780.895
 11
-142.349
 21
780.895
  0
LINE
  8
0
 10
-142.349
 20
780.895
 11
-142.05
 21
780.857
  0
LINE
  8
0
 10
-142.05
 20
780.857
 11
-141.758
 21
780.783
  0
LINE
  8
0
 10
-141.758
 20
780.783
 11
-141.478
 21
780.672
  0
LINE
  8
0
 10
-141.478
 20
780.672
 11
-141.214
 21
780.526
  0
LINE
  8
0
 10
-141.214
 20
780.526
 11
-140.97
 21
780.349
  0
LINE
  8
0
 10
-140.97
 20
780.349
 11
-140.75
 21
780.143
  0
LINE
  8
0
 10
-140.75
 20
780.143
 11
-140.558
 21
779.911
  0
LINE
  8
0
 10
-140.558
 20
779.911
 11
-140.397
 21
779.656
  0
LINE
  8
0
 10
-140.397
 20
779.656
 11
-140.269
 21
779.383
  0
LINE
  8
0
 10
-140.269
 20
779.383
 11
-140.175
 21
779.097
  0
LINE
  8
0
 10
-140.175
 20
779.097
 11
-140.119
 21
778.801
  0
LINE
  8
0
 10
-140.119
 20
778.801
 11
-140.1
 21
778.5
  0
LINE
  8
0
 10
-140.1
 20
778.5
 11
-140.119
 21
778.199
  0
LINE
  8
0
 10
-140.119
 20
778.199
 11
-140.175
 21
777.903
  0
LINE
  8
0
 10
-140.175
 20
777.903
 11
-140.269
 21
777.617
  0
LINE
  8
0
 10
-140.269
 20
777.617
 11
-140.397
 21
777.344
  0
LINE
  8
0
 10
-140.397
 20
777.344
 11
-140.558
 21
777.089
  0
LINE
  8
0
 10
-140.558
 20
777.089
 11
-140.75
 21
776.857
  0
LINE
  8
0
 10
-140.75
 20
776.857
 11
-140.97
 21
776.651
  0
LINE
  8
0
 10
-140.97
 20
776.651
 11
-141.214
 21
776.474
  0
LINE
  8
0
 10
-141.214
 20
776.474
 11
-141.478
 21
776.328
  0
LINE
  8
0
 10
-141.478
 20
776.328
 11
-141.758
 21
776.217
  0
LINE
  8
0
 10
-141.758
 20
776.217
 11
-142.05
 21
776.143
  0
LINE
  8
0
 10
-142.05
 20
776.143
 11
-142.349
 21
776.105
  0
LINE
  8
0
 10
-142.349
 20
776.105
 11
-142.651
 21
776.105
  0
LINE
  8
0
 10
145.937
 20
552.089
 11
146.545
 21
552.245
  0
LINE
  8
0
 10
146.545
 20
552.245
 11
147.129
 21
552.476
  0
LINE
  8
0
 10
147.129
 20
552.476
 11
147.679
 21
552.778
  0
LINE
  8
0
 10
147.679
 20
552.778
 11
148.187
 21
553.147
  0
LINE
  8
0
 10
148.187
 20
553.147
 11
148.645
 21
553.577
  0
LINE
  8
0
 10
148.645
 20
553.577
 11
149.045
 21
554.061
  0
LINE
  8
0
 10
149.045
 20
554.061
 11
149.382
 21
554.591
  0
LINE
  8
0
 10
149.382
 20
554.591
 11
149.649
 21
555.159
  0
LINE
  8
0
 10
149.649
 20
555.159
 11
149.843
 21
555.757
  0
LINE
  8
0
 10
149.843
 20
555.757
 11
149.961
 21
556.373
  0
LINE
  8
0
 10
149.961
 20
556.373
 11
150
 21
557
  0
LINE
  8
0
 10
150
 20
557
 11
150
 21
757
  0
LINE
  8
0
 10
150
 20
757
 11
149.961
 21
757.627
  0
LINE
  8
0
 10
149.961
 20
757.627
 11
149.843
 21
758.243
  0
LINE
  8
0
 10
149.843
 20
758.243
 11
149.649
 21
758.841
  0
LINE
  8
0
 10
149.649
 20
758.841
 11
149.382
 21
759.409
  0
LINE
  8
0
 10
149.382
 20
759.409
 11
149.045
 21
759.939
  0
LINE
  8
0
 10
149.045
 20
759.939
 11
148.645
 21
760.423
  0
LINE
  8
0
 10
148.645
 20
760.423
 11
148.187
 21
760.853
  0
LINE
  8
0
 10
148.187
 20
760.853
 11
147.679
 21
761.222
  0
LINE
  8
0
 10
147.679
 20
761.222
 11
147.129
 21
761.524
  0
LINE
  8
0
 10
147.129
 20
761.524
 11
146.545
 21
761.755
  0
LINE
  8
0
 10
146.545
 20
761.755
 11
145.937
 21
761.911
  0
LINE
  8
0
 10
145.937
 20
761.911
 11
145.314
 21
761.99
  0
LINE
  8
0
 10
145.314
 20
761.99
 11
-145.314
 21
761.99
  0
LINE
  8
0
 10
-145.314
 20
761.99
 11
-145.937
 21
761.911
  0
LINE
  8
0
 10
-145.937
 20
761.911
 11
-146.545
 21
761.755
  0
LINE
  8
0
 10
-146.545
 20
761.755
 11
-147.129
 21
761.524
  0
LINE
  8
0
 10
-147.129
 20
761.524
 11
-147.679
 21
761.222
  0
LINE
  8
0
 10
-147.679
 20
761.222
 11
-148.187
 21
760.853
  0
LINE
  8
0
 10
-148.187
 20
760.853
 11
-148.645
 21
760.423
  0
LINE
  8
0
 10
-148.645
 20
760.423
 11
-149.045
 21
759.939
  0
LINE
  8
0
 10
-149.045
 20
759.939
 11
-149.382
 21
759.409
  0
LINE
  8
0
 10
-149.382
 20
759.409
 11
-149.649
 21
758.841
  0
LINE
  8
0
 10
-149.649
 20
758.841
 11
-149.843
 21
758.243
  0
LINE
  8
0
 10
-149.843
 20
758.243
 11
-149.9
 21
757.944
  0
LINE
  8
0
 10
-149.9
 20
757.944
 11
-151.5
 21
757.944
  0
LINE
  8
0
 10
-151.5
 20
757.944
 11
-151.5
 21
556.056
  0
LINE
  8
0
 10
-151.5
 20
556.056
 11
-149.9
 21
556.056
  0
LINE
  8
0
 10
-149.9
 20
556.056
 11
-149.843
 21
555.757
  0
LINE
  8
0
 10
-149.843
 20
555.757
 11
-149.649
 21
555.159
  0
LINE
  8
0
 10
-149.649
 20
555.159
 11
-149.382
 21
554.591
  0
LINE
  8
0
 10
-149.382
 20
554.591
 11
-149.045
 21
554.061
  0
LINE
  8
0
 10
-149.045
 20
554.061
 11
-148.645
 21
553.577
  0
LINE
  8
0
 10
-148.645
 20
553.577
 11
-148.187
 21
553.147
  0
LINE
  8
0
 10
-148.187
 20
553.147
 11
-147.679
 21
552.778
  0
LINE
  8
0
 10
-147.679
 20
552.778
 11
-147.129
 21
552.476
  0
LINE
  8
0
 10
-147.129
 20
552.476
 11
-146.545
 21
552.245
  0
LINE
  8
0
 10
-146.545
 20
552.245
 11
-145.937
 21
552.089
  0
LINE
  8
0
 10
-145.937
 20
552.089
 11
-145.314
 21
552.01
  0
LINE
  8
0
 10
-145.314
 20
552.01
 11
145.314
 21
552.01
  0
LINE
  8
0
 10
145.314
 20
552.01
 11
145.937
 21
552.089
  0
LINE
  8
0
 10
142.387
 20
752.704
 11
142.163
 21
752.732
  0
LINE
  8
0
 10
142.163
 20
752.732
 11
141.944
 21
752.788
  0
LINE
  8
0
 10
141.944
 20
752.788
 11
141.734
 21
752.871
  0
LINE
  8
0
 10
141.734
 20
752.871
 11
141.536
 21
752.98
  0
LINE
  8
0
 10
141.536
 20
752.98
 11
141.353
 21
753.113
  0
LINE
  8
0
 10
141.353
 20
753.113
 11
141.188
 21
753.268
  0
LINE
  8
0
 10
141.188
 20
753.268
 11
141.044
 21
753.442
  0
LINE
  8
0
 10
141.044
 20
753.442
 11
140.923
 21
753.633
  0
LINE
  8
0
 10
140.923
 20
753.633
 11
140.826
 21
753.837
  0
LINE
  8
0
 10
140.826
 20
753.837
 11
140.757
 21
754.052
  0
LINE
  8
0
 10
140.757
 20
754.052
 11
140.714
 21
754.274
  0
LINE
  8
0
 10
140.714
 20
754.274
 11
140.7
 21
754.5
  0
LINE
  8
0
 10
140.7
 20
754.5
 11
140.714
 21
754.726
  0
LINE
  8
0
 10
140.714
 20
754.726
 11
140.757
 21
754.948
  0
LINE
  8
0
 10
140.757
 20
754.948
 11
140.826
 21
755.163
  0
LINE
  8
0
 10
140.826
 20
755.163
 11
140.923
 21
755.367
  0
LINE
  8
0
 10
140.923
 20
755.367
 11
141.044
 21
755.558
  0
LINE
  8
0
 10
141.044
 20
755.558
 11
141.188
 21
755.732
  0
LINE
  8
0
 10
141.188
 20
755.732
 11
141.353
 21
755.887
  0
LINE
  8
0
 10
141.353
 20
755.887
 11
141.536
 21
756.02
  0
LINE
  8
0
 10
141.536
 20
756.02
 11
141.734
 21
756.129
  0
LINE
  8
0
 10
141.734
 20
756.129
 11
141.944
 21
756.212
  0
LINE
  8
0
 10
141.944
 20
756.212
 11
142.163
 21
756.268
  0
LINE
  8
0
 10
142.163
 20
756.268
 11
142.387
 21
756.296
  0
LINE
  8
0
 10
142.387
 20
756.296
 11
142.613
 21
756.296
  0
LINE
  8
0
 10
142.613
 20
756.296
 11
142.837
 21
756.268
  0
LINE
  8
0
 10
142.837
 20
756.268
 11
143.056
 21
756.212
  0
LINE
  8
0
 10
143.056
 20
756.212
 11
143.266
 21
756.129
  0
LINE
  8
0
 10
143.266
 20
756.129
 11
143.464
 21
756.02
  0
LINE
  8
0
 10
143.464
 20
756.02
 11
143.647
 21
755.887
  0
LINE
  8
0
 10
143.647
 20
755.887
 11
143.812
 21
755.732
  0
LINE
  8
0
 10
143.812
 20
755.732
 11
143.956
 21
755.558
  0
LINE
  8
0
 10
143.956
 20
755.558
 11
144.077
 21
755.367
  0
LINE
  8
0
 10
144.077
 20
755.367
 11
144.174
 21
755.163
  0
LINE
  8
0
 10
144.174
 20
755.163
 11
144.243
 21
754.948
  0
LINE
  8
0
 10
144.243
 20
754.948
 11
144.286
 21
754.726
  0
LINE
  8
0
 10
144.286
 20
754.726
 11
144.3
 21
754.5
  0
LINE
  8
0
 10
144.3
 20
754.5
 11
144.286
 21
754.274
  0
LINE
  8
0
 10
144.286
 20
754.274
 11
144.243
 21
754.052
  0
LINE
  8
0
 10
144.243
 20
754.052
 11
144.174
 21
753.837
  0
LINE
  8
0
 10
144.174
 20
753.837
 11
144.077
 21
753.633
  0
LINE
  8
0
 10
144.077
 20
753.633
 11
143.956
 21
753.442
  0
LINE
  8
0
 10
143.956
 20
753.442
 11
143.812
 21
753.268
  0
LINE
  8
0
 10
143.812
 20
753.268
 11
143.647
 21
753.113
  0
LINE
  8
0
 10
143.647
 20
753.113
 11
143.464
 21
752.98
  0
LINE
  8
0
 10
143.464
 20
752.98
 11
143.266
 21
752.871
  0
LINE
  8
0
 10
143.266
 20
752.871
 11
143.056
 21
752.788
  0
LINE
  8
0
 10
143.056
 20
752.788
 11
142.837
 21
752.732
  0
LINE
  8
0
 10
142.837
 20
752.732
 11
142.613
 21
752.704
  0
LINE
  8
0
 10
142.613
 20
752.704
 11
142.387
 21
752.704
  0
LINE
  8
0
 10
-142.613
 20
752.704
 11
-142.837
 21
752.732
  0
LINE
  8
0
 10
-142.837
 20
752.732
 11
-143.056
 21
752.788
  0
LINE
  8
0
 10
-143.056
 20
752.788
 11
-143.266
 21
752.871
  0
LINE
  8
0
 10
-143.266
 20
752.871
 11
-143.464
 21
752.98
  0
LINE
  8
0
 10
-143.464
 20
752.98
 11
-143.647
 21
753.113
  0
LINE
  8
0
 10
-143.647
 20
753.113
 11
-143.812
 21
753.268
  0
LINE
  8
0
 10
-143.812
 20
753.268
 11
-143.956
 21
753.442
  0
LINE
  8
0
 10
-143.956
 20
753.442
 11
-144.077
 21
753.633
  0
LINE
  8
0
 10
-144.077
 20
753.633
 11
-144.174
 21
753.837
  0
LINE
  8
0
 10
-144.174
 20
753.837
 11
-144.243
 21
754.052
  0
LINE
  8
0
 10
-144.243
 20
754.052
 11
-144.286
 21
754.274
  0
LINE
  8
0
 10
-144.286
 20
754.274
 11
-144.3
 21
754.5
  0
LINE
  8
0
 10
-144.3
 20
754.5
 11
-144.286
 21
754.726
  0
LINE
  8
0
 10
-144.286
 20
754.726
 11
-144.243
 21
754.948
  0
LINE
  8
0
 10
-144.243
 20
754.948
 11
-144.174
 21
755.163
  0
LINE
  8
0
 10
-144.174
 20
755.163
 11
-144.077
 21
755.367
  0
LINE
  8
0
 10
-144.077
 20
755.367
 11
-143.956
 21
755.558
  0
LINE
  8
0
 10
-143.956
 20
755.558
 11
-143.812
 21
755.732
  0
LINE
  8
0
 10
-143.812
 20
755.732
 11
-143.647
 21
755.887
  0
LINE
  8
0
 10
-143.647
 20
755.887
 11
-143.464
 21
756.02
  0
LINE
  8
0
 10
-143.464
 20
756.02
 11
-143.266
 21
756.129
  0
LINE
  8
0
 10
-143.266
 20
756.129
 11
-143.056
 21
756.212
  0
LINE
  8
0
 10
-143.056
 20
756.212
 11
-142.837
 21
756.268
  0
LINE
  8
0
 10
-142.837
 20
756.268
 11
-142.613
 21
756.296
  0
LINE
  8
0
 10
-142.613
 20
756.296
 11
-142.387
 21
756.296
  0
LINE
  8
0
 10
-142.387
 20
756.296
 11
-142.163
 21
756.268
  0
LINE
  8
0
 10
-142.163
 20
756.268
 11
-141.944
 21
756.212
  0
LINE
  8
0
 10
-141.944
 20
756.212
 11
-141.734
 21
756.129
  0
LINE
  8
0
 10
-141.734
 20
756.129
 11
-141.536
 21
756.02
  0
LINE
  8
0
 10
-141.536
 20
756.02
 11
-141.353
 21
755.887
  0
LINE
  8
0
 10
-141.353
 20
755.887
 11
-141.188
 21
755.732
  0
LINE
  8
0
 10
-141.188
 20
755.732
 11
-141.044
 21
755.558
  0
LINE
  8
0
 10
-141.044
 20
755.558
 11
-140.923
 21
755.367
  0
LINE
  8
0
 10
-140.923
 20
755.367
 11
-140.826
 21
755.163
  0
LINE
  8
0
 10
-140.826
 20
755.163
 11
-140.757
 21
754.948
  0
LINE
  8
0
 10
-140.757
 20
754.948
 11
-140.714
 21
754.726
  0
LINE
  8
0
 10
-140.714
 20
754.726
 11
-140.7
 21
754.5
  0
LINE
  8
0
 10
-140.7
 20
754.5
 11
-140.714
 21
754.274
  0
LINE
  8
0
 10
-140.714
 20
754.274
 11
-140.757
 21
754.052
  0
LINE
  8
0
 10
-140.757
 20
754.052
 11
-140.826
 21
753.837
  0
LINE
  8
0
 10
-140.826
 20
753.837
 11
-140.923
 21
753.633
  0
LINE
  8
0
 10
-140.923
 20
753.633
 11
-141.044
 21
753.442
  0
LINE
  8
0
 10
-141.044
 20
753.442
 11
-141.188
 21
753.268
  0
LINE
  8
0
 10
-141.188
 20
753.268
 11
-141.353
 21
753.113
  0
LINE
  8
0
 10
-141.353
 20
753.113
 11
-141.536
 21
752.98
  0
LINE
  8
0
 10
-141.536
 20
752.98
 11
-141.734
 21
752.871
  0
LINE
  8
0
 10
-141.734
 20
752.871
 11
-141.944
 21
752.788
  0
LINE
  8
0
 10
-141.944
 20
752.788
 11
-142.163
 21
752.732
  0
LINE
  8
0
 10
-142.163
 20
752.732
 11
-142.387
 21
752.704
  0
LINE
  8
0
 10
-142.387
 20
752.704
 11
-142.613
 21
752.704
  0
LINE
  8
0
 10
-142.613
 20
557.704
 11
-142.837
 21
557.732
  0
LINE
  8
0
 10
-142.837
 20
557.732
 11
-143.056
 21
557.788
  0
LINE
  8
0
 10
-143.056
 20
557.788
 11
-143.266
 21
557.871
  0
LINE
  8
0
 10
-143.266
 20
557.871
 11
-143.464
 21
557.98
  0
LINE
  8
0
 10
-143.464
 20
557.98
 11
-143.647
 21
558.113
  0
LINE
  8
0
 10
-143.647
 20
558.113
 11
-143.812
 21
558.268
  0
LINE
  8
0
 10
-143.812
 20
558.268
 11
-143.956
 21
558.442
  0
LINE
  8
0
 10
-143.956
 20
558.442
 11
-144.077
 21
558.633
  0
LINE
  8
0
 10
-144.077
 20
558.633
 11
-144.174
 21
558.837
  0
LINE
  8
0
 10
-144.174
 20
558.837
 11
-144.243
 21
559.052
  0
LINE
  8
0
 10
-144.243
 20
559.052
 11
-144.286
 21
559.274
  0
LINE
  8
0
 10
-144.286
 20
559.274
 11
-144.3
 21
559.5
  0
LINE
  8
0
 10
-144.3
 20
559.5
 11
-144.286
 21
559.726
  0
LINE
  8
0
 10
-144.286
 20
559.726
 11
-144.243
 21
559.948
  0
LINE
  8
0
 10
-144.243
 20
559.948
 11
-144.174
 21
560.163
  0
LINE
  8
0
 10
-144.174
 20
560.163
 11
-144.077
 21
560.367
  0
LINE
  8
0
 10
-144.077
 20
560.367
 11
-143.956
 21
560.558
  0
LINE
  8
0
 10
-143.956
 20
560.558
 11
-143.812
 21
560.732
  0
LINE
  8
0
 10
-143.812
 20
560.732
 11
-143.647
 21
560.887
  0
LINE
  8
0
 10
-143.647
 20
560.887
 11
-143.464
 21
561.02
  0
LINE
  8
0
 10
-143.464
 20
561.02
 11
-143.266
 21
561.129
  0
LINE
  8
0
 10
-143.266
 20
561.129
 11
-143.056
 21
561.212
  0
LINE
  8
0
 10
-143.056
 20
561.212
 11
-142.837
 21
561.268
  0
LINE
  8
0
 10
-142.837
 20
561.268
 11
-142.613
 21
561.296
  0
LINE
  8
0
 10
-142.613
 20
561.296
 11
-142.387
 21
561.296
  0
LINE
  8
0
 10
-142.387
 20
561.296
 11
-142.163
 21
561.268
  0
LINE
  8
0
 10
-142.163
 20
561.268
 11
-141.944
 21
561.212
  0
LINE
  8
0
 10
-141.944
 20
561.212
 11
-141.734
 21
561.129
  0
LINE
  8
0
 10
-141.734
 20
561.129
 11
-141.536
 21
561.02
  0
LINE
  8
0
 10
-141.536
 20
561.02
 11
-141.353
 21
560.887
  0
LINE
  8
0
 10
-141.353
 20
560.887
 11
-141.188
 21
560.732
  0
LINE
  8
0
 10
-141.188
 20
560.732
 11
-141.044
 21
560.558
  0
LINE
  8
0
 10
-141.044
 20
560.558
 11
-140.923
 21
560.367
  0
LINE
  8
0
 10
-140.923
 20
560.367
 11
-140.826
 21
560.163
  0
LINE
  8
0
 10
-140.826
 20
560.163
 11
-140.757
 21
559.948
  0
LINE
  8
0
 10
-140.757
 20
559.948
 11
-140.714
 21
559.726
  0
LINE
  8
0
 10
-140.714
 20
559.726
 11
-140.7
 21
559.5
  0
LINE
  8
0
 10
-140.7
 20
559.5
 11
-140.714
 21
559.274
  0
LINE
  8
0
 10
-140.714
 20
559.274
 11
-140.757
 21
559.052
  0
LINE
  8
0
 10
-140.757
 20
559.052
 11
-140.826
 21
558.837
  0
LINE
  8
0
 10
-140.826
 20
558.837
 11
-140.923
 21
558.633
  0
LINE
  8
0
 10
-140.923
 20
558.633
 11
-141.044
 21
558.442
  0
LINE
  8
0
 10
-141.044
 20
558.442
 11
-141.188
 21
558.268
  0
LINE
  8
0
 10
-141.188
 20
558.268
 11
-141.353
 21
558.113
  0
LINE
  8
0
 10
-141.353
 20
558.113
 11
-141.536
 21
557.98
  0
LINE
  8
0
 10
-141.536
 20
557.98
 11
-141.734
 21
557.871
  0
LINE
  8
0
 10
-141.734
 20
557.871
 11
-141.944
 21
557.788
  0
LINE
  8
0
 10
-141.944
 20
557.788
 11
-142.163
 21
557.732
  0
LINE
  8
0
 10
-142.163
 20
557.732
 11
-142.387
 21
557.704
  0
LINE
  8
0
 10
-142.387
 20
557.704
 11
-142.613
 21
557.704
  0
LINE
  8
0
 10
142.387
 20
557.704
 11
142.163
 21
557.732
  0
LINE
  8
0
 10
142.163
 20
557.732
 11
141.944
 21
557.788
  0
LINE
  8
0
 10
141.944
 20
557.788
 11
141.734
 21
557.871
  0
LINE
  8
0
 10
141.734
 20
557.871
 11
141.536
 21
557.98
  0
LINE
  8
0
 10
141.536
 20
557.98
 11
141.353
 21
558.113
  0
LINE
  8
0
 10
141.353
 20
558.113
 11
141.188
 21
558.268
  0
LINE
  8
0
 10
141.188
 20
558.268
 11
141.044
 21
558.442
  0
LINE
  8
0
 10
141.044
 20
558.442
 11
140.923
 21
558.633
  0
LINE
  8
0
 10
140.923
 20
558.633
 11
140.826
 21
558.837
  0
LINE
  8
0
 10
140.826
 20
558.837
 11
140.757
 21
559.052
  0
LINE
  8
0
 10
140.757
 20
559.052
 11
140.714
 21
559.274
  0
LINE
  8
0
 10
140.714
 20
559.274
 11
140.7
 21
559.5
  0
LINE
  8
0
 10
140.7
 20
559.5
 11
140.714
 21
559.726
  0
LINE
  8
0
 10
140.714
 20
559.726
 11
140.757
 21
559.948
  0
LINE
  8
0
 10
140.757
 20
559.948
 11
140.826
 21
560.163
  0
LINE
  8
0
 10
140.826
 20
560.163
 11
140.923
 21
560.367
  0
LINE
  8
0
 10
140.923
 20
560.367
 11
141.044
 21
560.558
  0
LINE
  8
0
 10
141.044
 20
560.558
 11
141.188
 21
560.732
  0
LINE
  8
0
 10
141.188
 20
560.732
 11
141.353
 21
560.887
  0
LINE
  8
0
 10
141.353
 20
560.887
 11
141.536
 21
561.02
  0
LINE
  8
0
 10
141.536
 20
561.02
 11
141.734
 21
561.129
  0
LINE
  8
0
 10
141.734
 20
561.129
 11
141.944
 21
561.212
  0
LINE
  8
0
 10
141.944
 20
561.212
 11
142.163
 21
561.268
  0
LINE
  8
0
 10
142.163
 20
561.268
 11
142.387
 21
561.296
  0
LINE
  8
0
 10
142.387
 20
561.296
 11
142.613
 21
561.296
  0
LINE
  8
0
 10
142.613
 20
561.296
 11
142.837
 21
561.268
  0
LINE
  8
0
 10
142.837
 20
561.268
 11
143.056
 21
561.212
  0
LINE
  8
0
 10
143.056
 20
561.212
 11
143.266
 21
561.129
  0
LINE
  8
0
 10
143.266
 20
561.129
 11
143.464
 21
561.02
  0
LINE
  8
0
 10
143.464
 20
561.02
 11
143.647
 21
560.887
  0
LINE
  8
0
 10
143.647
 20
560.887
 11
143.812
 21
560.732
  0
LINE
  8
0
 10
143.812
 20
560.732
 11
143.956
 21
560.558
  0
LINE
  8
0
 10
143.956
 20
560.558
 11
144.077
 21
560.367
  0
LINE
  8
0
 10
144.077
 20
560.367
 11
144.174
 21
560.163
  0
LINE
  8
0
 10
144.174
 20
560.163
 11
144.243
 21
559.948
  0
LINE
  8
0
 10
144.243
 20
559.948
 11
144.286
 21
559.726
  0
LINE
  8
0
 10
144.286
 20
559.726
 11
144.3
 21
559.5
  0
LINE
  8
0
 10
144.3
 20
559.5
 11
144.286
 21
559.274
  0
LINE
  8
0
 10
144.286
 20
559.274
 11
144.243
 21
559.052
  0
LINE
  8
0
 10
144.243
 20
559.052
 11
144.174
 21
558.837
  0
LINE
  8
0
 10
144.174
 20
558.837
 11
144.077
 21
558.633
  0
LINE
  8
0
 10
144.077
 20
558.633
 11
143.956
 21
558.442
  0
LINE
  8
0
 10
143.956
 20
558.442
 11
143.812
 21
558.268
  0
LINE
  8
0
 10
143.812
 20
558.268
 11
143.647
 21
558.113
  0
LINE
  8
0
 10
143.647
 20
558.113
 11
143.464
 21
557.98
  0
LINE
  8
0
 10
143.464
 20
557.98
 11
143.266
 21
557.871
  0
LINE
  8
0
 10
143.266
 20
557.871
 11
143.056
 21
557.788
  0
LINE
  8
0
 10
143.056
 20
557.788
 11
142.837
 21
557.732
  0
LINE
  8
0
 10
142.837
 20
557.732
 11
142.613
 21
557.704
  0
LINE
  8
0
 10
142.613
 20
557.704
 11
142.387
 21
557.704
  0
ENDSEC
  0
SECTION
  2
OBJECTS
  0
DICTIONARY
  0
ENDSEC
  0
EOF
