<?xml version="1.0" standalone="no"?>
<!DOCTYPE svg PUBLIC "-//W3C//DTD SVG 1.1//EN" "http://www.w3.org/Graphics/SVG/1.1/DTD/svg11.dtd">
<svg width="257mm" height="987mm" viewBox="-129 -1614 257 987" xmlns="http://www.w3.org/2000/svg" version="1.1">
<title>OpenSCAD Model</title>
<path d="
M -126,-1375.44 L -125.687,-1375.15 L -125.179,-1374.78 L -124.629,-1374.48 L -124.045,-1374.24 L -123.437,-1374.09
 L -122.814,-1374.01 L 122.814,-1374.01 L 123.437,-1374.09 L 124.045,-1374.24 L 124.629,-1374.48 L 125.179,-1374.78
 L 125.687,-1375.15 L 126.145,-1375.58 L 126.545,-1376.06 L 126.882,-1376.59 L 127.149,-1377.16 L 127.343,-1377.76
 L 127.461,-1378.37 L 127.5,-1379 L 127.5,-1609 L 127.461,-1609.63 L 127.343,-1610.24 L 127.149,-1610.84
 L 126.882,-1611.41 L 126.545,-1611.94 L 126.145,-1612.42 L 125.687,-1612.85 L 125.179,-1613.22 L 124.629,-1613.52
 L 124.045,-1613.76 L 123.437,-1613.91 L 122.814,-1613.99 L -122.814,-1613.99 L -123.437,-1613.91 L -124.045,-1613.76
 L -124.629,-1613.52 L -125.179,-1613.22 L -125.687,-1612.85 L -126,-1612.56 L -126,-1613.99 L -129,-1613.99
 L -129,-1374.01 L -126,-1374.01 z
M -122.251,-1375.51 L -122.75,-1375.57 L -123.236,-1375.7 L -123.703,-1375.88 L -124.143,-1376.12 L -124.55,-1376.42
 L -124.916,-1376.76 L -125.236,-1377.15 L -125.505,-1377.57 L -125.719,-1378.03 L -125.874,-1378.51 L -125.968,-1379
 L -126,-1379.5 L -126,-1608.5 L -125.968,-1609 L -125.874,-1609.49 L -125.719,-1609.97 L -125.505,-1610.43
 L -125.236,-1610.85 L -124.916,-1611.24 L -124.55,-1611.58 L -124.143,-1611.88 L -123.703,-1612.12 L -123.236,-1612.3
 L -122.75,-1612.43 L -122.251,-1612.49 L 122.251,-1612.49 L 122.75,-1612.43 L 123.236,-1612.3 L 123.703,-1612.12
 L 124.143,-1611.88 L 124.55,-1611.58 L 124.916,-1611.24 L 125.236,-1610.85 L 125.505,-1610.43 L 125.719,-1609.97
 L 125.874,-1609.49 L 125.968,-1609 L 126,-1608.5 L 126,-1379.5 L 125.968,-1379 L 125.874,-1378.51
 L 125.719,-1378.03 L 125.505,-1377.57 L 125.236,-1377.15 L 124.916,-1376.76 L 124.55,-1376.42 L 124.143,-1376.12
 L 123.703,-1375.88 L 123.236,-1375.7 L 122.75,-1375.57 L 122.251,-1375.51 z
M -126,-1126.44 L -125.687,-1126.15 L -125.179,-1125.78 L -124.629,-1125.48 L -124.045,-1125.24 L -123.437,-1125.09
 L -122.814,-1125.01 L 122.814,-1125.01 L 123.437,-1125.09 L 124.045,-1125.24 L 124.629,-1125.48 L 125.179,-1125.78
 L 125.687,-1126.15 L 126.145,-1126.58 L 126.545,-1127.06 L 126.882,-1127.59 L 127.149,-1128.16 L 127.343,-1128.76
 L 127.461,-1129.37 L 127.5,-1130 L 127.5,-1360 L 127.461,-1360.63 L 127.343,-1361.24 L 127.149,-1361.84
 L 126.882,-1362.41 L 126.545,-1362.94 L 126.145,-1363.42 L 125.687,-1363.85 L 125.179,-1364.22 L 124.629,-1364.52
 L 124.045,-1364.76 L 123.437,-1364.91 L 122.814,-1364.99 L -122.814,-1364.99 L -123.437,-1364.91 L -124.045,-1364.76
 L -124.629,-1364.52 L -125.179,-1364.22 L -125.687,-1363.85 L -126,-1363.56 L -126,-1364.99 L -129,-1364.99
 L -129,-1125.01 L -126,-1125.01 z
M -122.243,-1126.64 L -122.726,-1126.7 L -123.197,-1126.82 L -123.649,-1127 L -124.075,-1127.23 L -124.469,-1127.52
 L -124.823,-1127.85 L -125.133,-1128.22 L -125.394,-1128.63 L -125.601,-1129.07 L -125.751,-1129.54 L -125.842,-1130.01
 L -125.873,-1130.5 L -125.873,-1359.5 L -125.842,-1359.99 L -125.751,-1360.46 L -125.601,-1360.93 L -125.394,-1361.37
 L -125.133,-1361.78 L -124.823,-1362.15 L -124.469,-1362.48 L -124.075,-1362.77 L -123.649,-1363 L -123.197,-1363.18
 L -122.726,-1363.3 L -122.243,-1363.36 L 122.243,-1363.36 L 122.726,-1363.3 L 123.197,-1363.18 L 123.649,-1363
 L 124.075,-1362.77 L 124.469,-1362.48 L 124.823,-1362.15 L 125.133,-1361.78 L 125.394,-1361.37 L 125.601,-1360.93
 L 125.751,-1360.46 L 125.842,-1359.99 L 125.873,-1359.5 L 125.873,-1130.5 L 125.842,-1130.01 L 125.751,-1129.54
 L 125.601,-1129.07 L 125.394,-1128.63 L 125.133,-1128.22 L 124.823,-1127.85 L 124.469,-1127.52 L 124.075,-1127.23
 L 123.649,-1127 L 123.197,-1126.82 L 122.726,-1126.7 L 122.243,-1126.64 z
M 123.437,-876.089 L 124.045,-876.245 L 124.629,-876.476 L 125.179,-876.778 L 125.687,-877.147 L 126.145,-877.577
 L 126.545,-878.061 L 126.882,-878.591 L 127.149,-879.159 L 127.343,-879.757 L 127.461,-880.373 L 127.5,-881
 L 127.5,-1111 L 127.461,-1111.63 L 127.343,-1112.24 L 127.149,-1112.84 L 126.882,-1113.41 L 126.545,-1113.94
 L 126.145,-1114.42 L 125.687,-1114.85 L 125.179,-1115.22 L 124.629,-1115.52 L 124.045,-1115.76 L 123.437,-1115.91
 L 122.814,-1115.99 L -122.814,-1115.99 L -123.437,-1115.91 L -124.045,-1115.76 L -124.629,-1115.52 L -125.179,-1115.22
 L -125.687,-1114.85 L -126,-1114.56 L -126,-1115.61 L -129,-1115.61 L -129,-876.385 L -126,-876.385
 L -126,-877.441 L -125.687,-877.147 L -125.179,-876.778 L -124.629,-876.476 L -124.045,-876.245 L -123.437,-876.089
 L -122.814,-876.01 L 122.814,-876.01 z
M -120.151,-1106.1 L -120.45,-1106.14 L -120.742,-1106.22 L -121.022,-1106.33 L -121.286,-1106.47 L -121.53,-1106.65
 L -121.75,-1106.86 L -121.942,-1107.09 L -122.103,-1107.34 L -122.231,-1107.62 L -122.325,-1107.9 L -122.381,-1108.2
 L -122.4,-1108.5 L -122.381,-1108.8 L -122.325,-1109.1 L -122.231,-1109.38 L -122.103,-1109.66 L -121.942,-1109.91
 L -121.75,-1110.14 L -121.53,-1110.35 L -121.286,-1110.53 L -121.022,-1110.67 L -120.742,-1110.78 L -120.45,-1110.86
 L -120.151,-1110.9 L -119.849,-1110.9 L -119.55,-1110.86 L -119.258,-1110.78 L -118.978,-1110.67 L -118.714,-1110.53
 L -118.47,-1110.35 L -118.25,-1110.14 L -118.058,-1109.91 L -117.897,-1109.66 L -117.769,-1109.38 L -117.675,-1109.1
 L -117.619,-1108.8 L -117.6,-1108.5 L -117.619,-1108.2 L -117.675,-1107.9 L -117.769,-1107.62 L -117.897,-1107.34
 L -118.058,-1107.09 L -118.25,-1106.86 L -118.47,-1106.65 L -118.714,-1106.47 L -118.978,-1106.33 L -119.258,-1106.22
 L -119.55,-1106.14 L -119.849,-1106.1 z
M 119.849,-1106.1 L 119.55,-1106.14 L 119.258,-1106.22 L 118.978,-1106.33 L 118.714,-1106.47 L 118.47,-1106.65
 L 118.25,-1106.86 L 118.058,-1107.09 L 117.897,-1107.34 L 117.769,-1107.62 L 117.675,-1107.9 L 117.619,-1108.2
 L 117.6,-1108.5 L 117.619,-1108.8 L 117.675,-1109.1 L 117.769,-1109.38 L 117.897,-1109.66 L 118.058,-1109.91
 L 118.25,-1110.14 L 118.47,-1110.35 L 118.714,-1110.53 L 118.978,-1110.67 L 119.258,-1110.78 L 119.55,-1110.86
 L 119.849,-1110.9 L 120.151,-1110.9 L 120.45,-1110.86 L 120.742,-1110.78 L 121.022,-1110.67 L 121.286,-1110.53
 L 121.53,-1110.35 L 121.75,-1110.14 L 121.942,-1109.91 L 122.103,-1109.66 L 122.231,-1109.38 L 122.325,-1109.1
 L 122.381,-1108.8 L 122.4,-1108.5 L 122.381,-1108.2 L 122.325,-1107.9 L 122.231,-1107.62 L 122.103,-1107.34
 L 121.942,-1107.09 L 121.75,-1106.86 L 121.53,-1106.65 L 121.286,-1106.47 L 121.022,-1106.33 L 120.742,-1106.22
 L 120.45,-1106.14 L 120.151,-1106.1 z
M 119.849,-881.105 L 119.55,-881.143 L 119.258,-881.217 L 118.978,-881.328 L 118.714,-881.474 L 118.47,-881.651
 L 118.25,-881.857 L 118.058,-882.089 L 117.897,-882.344 L 117.769,-882.617 L 117.675,-882.903 L 117.619,-883.199
 L 117.6,-883.5 L 117.619,-883.801 L 117.675,-884.097 L 117.769,-884.383 L 117.897,-884.656 L 118.058,-884.911
 L 118.25,-885.143 L 118.47,-885.349 L 118.714,-885.526 L 118.978,-885.672 L 119.258,-885.783 L 119.55,-885.857
 L 119.849,-885.895 L 120.151,-885.895 L 120.45,-885.857 L 120.742,-885.783 L 121.022,-885.672 L 121.286,-885.526
 L 121.53,-885.349 L 121.75,-885.143 L 121.942,-884.911 L 122.103,-884.656 L 122.231,-884.383 L 122.325,-884.097
 L 122.381,-883.801 L 122.4,-883.5 L 122.381,-883.199 L 122.325,-882.903 L 122.231,-882.617 L 122.103,-882.344
 L 121.942,-882.089 L 121.75,-881.857 L 121.53,-881.651 L 121.286,-881.474 L 121.022,-881.328 L 120.742,-881.217
 L 120.45,-881.143 L 120.151,-881.105 z
M -120.151,-881.105 L -120.45,-881.143 L -120.742,-881.217 L -121.022,-881.328 L -121.286,-881.474 L -121.53,-881.651
 L -121.75,-881.857 L -121.942,-882.089 L -122.103,-882.344 L -122.231,-882.617 L -122.325,-882.903 L -122.381,-883.199
 L -122.4,-883.5 L -122.381,-883.801 L -122.325,-884.097 L -122.231,-884.383 L -122.103,-884.656 L -121.942,-884.911
 L -121.75,-885.143 L -121.53,-885.349 L -121.286,-885.526 L -121.022,-885.672 L -120.742,-885.783 L -120.45,-885.857
 L -120.151,-885.895 L -119.849,-885.895 L -119.55,-885.857 L -119.258,-885.783 L -118.978,-885.672 L -118.714,-885.526
 L -118.47,-885.349 L -118.25,-885.143 L -118.058,-884.911 L -117.897,-884.656 L -117.769,-884.383 L -117.675,-884.097
 L -117.619,-883.801 L -117.6,-883.5 L -117.619,-883.199 L -117.675,-882.903 L -117.769,-882.617 L -117.897,-882.344
 L -118.058,-882.089 L -118.25,-881.857 L -118.47,-881.651 L -118.714,-881.474 L -118.978,-881.328 L -119.258,-881.217
 L -119.55,-881.143 L -119.849,-881.105 z
M 123.437,-627.089 L 124.045,-627.245 L 124.629,-627.476 L 125.179,-627.778 L 125.687,-628.147 L 126.145,-628.577
 L 126.545,-629.061 L 126.882,-629.591 L 127.149,-630.159 L 127.343,-630.757 L 127.461,-631.373 L 127.5,-632
 L 127.5,-862 L 127.461,-862.627 L 127.343,-863.243 L 127.149,-863.841 L 126.882,-864.409 L 126.545,-864.939
 L 126.145,-865.423 L 125.687,-865.853 L 125.179,-866.222 L 124.629,-866.524 L 124.045,-866.755 L 123.437,-866.911
 L 122.814,-866.99 L -122.814,-866.99 L -123.437,-866.911 L -124.045,-866.755 L -124.629,-866.524 L -125.179,-866.222
 L -125.687,-865.853 L -126.145,-865.423 L -126.545,-864.939 L -126.882,-864.409 L -127.149,-863.841 L -127.343,-863.243
 L -127.4,-862.944 L -129,-862.944 L -129,-631.056 L -127.4,-631.056 L -127.343,-630.757 L -127.149,-630.159
 L -126.882,-629.591 L -126.545,-629.061 L -126.145,-628.577 L -125.687,-628.147 L -125.179,-627.778 L -124.629,-627.476
 L -124.045,-627.245 L -123.437,-627.089 L -122.814,-627.01 L 122.814,-627.01 z
M 119.887,-857.704 L 119.663,-857.732 L 119.444,-857.788 L 119.234,-857.871 L 119.036,-857.98 L 118.853,-858.113
 L 118.688,-858.268 L 118.544,-858.442 L 118.423,-858.633 L 118.326,-858.837 L 118.257,-859.052 L 118.214,-859.274
 L 118.2,-859.5 L 118.214,-859.726 L 118.257,-859.948 L 118.326,-860.163 L 118.423,-860.367 L 118.544,-860.558
 L 118.688,-860.732 L 118.853,-860.887 L 119.036,-861.02 L 119.234,-861.129 L 119.444,-861.212 L 119.663,-861.268
 L 119.887,-861.296 L 120.113,-861.296 L 120.337,-861.268 L 120.556,-861.212 L 120.766,-861.129 L 120.964,-861.02
 L 121.147,-860.887 L 121.312,-860.732 L 121.456,-860.558 L 121.577,-860.367 L 121.674,-860.163 L 121.743,-859.948
 L 121.786,-859.726 L 121.8,-859.5 L 121.786,-859.274 L 121.743,-859.052 L 121.674,-858.837 L 121.577,-858.633
 L 121.456,-858.442 L 121.312,-858.268 L 121.147,-858.113 L 120.964,-857.98 L 120.766,-857.871 L 120.556,-857.788
 L 120.337,-857.732 L 120.113,-857.704 z
M -120.113,-857.704 L -120.337,-857.732 L -120.556,-857.788 L -120.766,-857.871 L -120.964,-857.98 L -121.147,-858.113
 L -121.312,-858.268 L -121.456,-858.442 L -121.577,-858.633 L -121.674,-858.837 L -121.743,-859.052 L -121.786,-859.274
 L -121.8,-859.5 L -121.786,-859.726 L -121.743,-859.948 L -121.674,-860.163 L -121.577,-860.367 L -121.456,-860.558
 L -121.312,-860.732 L -121.147,-860.887 L -120.964,-861.02 L -120.766,-861.129 L -120.556,-861.212 L -120.337,-861.268
 L -120.113,-861.296 L -119.887,-861.296 L -119.663,-861.268 L -119.444,-861.212 L -119.234,-861.129 L -119.036,-861.02
 L -118.853,-860.887 L -118.688,-860.732 L -118.544,-860.558 L -118.423,-860.367 L -118.326,-860.163 L -118.257,-859.948
 L -118.214,-859.726 L -118.2,-859.5 L -118.214,-859.274 L -118.257,-859.052 L -118.326,-858.837 L -118.423,-858.633
 L -118.544,-858.442 L -118.688,-858.268 L -118.853,-858.113 L -119.036,-857.98 L -119.234,-857.871 L -119.444,-857.788
 L -119.663,-857.732 L -119.887,-857.704 z
M -120.113,-632.704 L -120.337,-632.732 L -120.556,-632.788 L -120.766,-632.871 L -120.964,-632.98 L -121.147,-633.113
 L -121.312,-633.268 L -121.456,-633.442 L -121.577,-633.633 L -121.674,-633.837 L -121.743,-634.052 L -121.786,-634.274
 L -121.8,-634.5 L -121.786,-634.726 L -121.743,-634.948 L -121.674,-635.163 L -121.577,-635.367 L -121.456,-635.558
 L -121.312,-635.732 L -121.147,-635.887 L -120.964,-636.02 L -120.766,-636.129 L -120.556,-636.212 L -120.337,-636.268
 L -120.113,-636.296 L -119.887,-636.296 L -119.663,-636.268 L -119.444,-636.212 L -119.234,-636.129 L -119.036,-636.02
 L -118.853,-635.887 L -118.688,-635.732 L -118.544,-635.558 L -118.423,-635.367 L -118.326,-635.163 L -118.257,-634.948
 L -118.214,-634.726 L -118.2,-634.5 L -118.214,-634.274 L -118.257,-634.052 L -118.326,-633.837 L -118.423,-633.633
 L -118.544,-633.442 L -118.688,-633.268 L -118.853,-633.113 L -119.036,-632.98 L -119.234,-632.871 L -119.444,-632.788
 L -119.663,-632.732 L -119.887,-632.704 z
M 119.887,-632.704 L 119.663,-632.732 L 119.444,-632.788 L 119.234,-632.871 L 119.036,-632.98 L 118.853,-633.113
 L 118.688,-633.268 L 118.544,-633.442 L 118.423,-633.633 L 118.326,-633.837 L 118.257,-634.052 L 118.214,-634.274
 L 118.2,-634.5 L 118.214,-634.726 L 118.257,-634.948 L 118.326,-635.163 L 118.423,-635.367 L 118.544,-635.558
 L 118.688,-635.732 L 118.853,-635.887 L 119.036,-636.02 L 119.234,-636.129 L 119.444,-636.212 L 119.663,-636.268
 L 119.887,-636.296 L 120.113,-636.296 L 120.337,-636.268 L 120.556,-636.212 L 120.766,-636.129 L 120.964,-636.02
 L 121.147,-635.887 L 121.312,-635.732 L 121.456,-635.558 L 121.577,-635.367 L 121.674,-635.163 L 121.743,-634.948
 L 121.786,-634.726 L 121.8,-634.5 L 121.786,-634.274 L 121.743,-634.052 L 121.674,-633.837 L 121.577,-633.633
 L 121.456,-633.442 L 121.312,-633.268 L 121.147,-633.113 L 120.964,-632.98 L 120.766,-632.871 L 120.556,-632.788
 L 120.337,-632.732 L 120.113,-632.704 z
" stroke="black" fill="lightgray" stroke-width="0.5"/>
</svg>
