<?xml version="1.0" standalone="no"?>
<!DOCTYPE svg PUBLIC "-//W3C//DTD SVG 1.1//EN" "http://www.w3.org/Graphics/SVG/1.1/DTD/svg11.dtd">
<svg width="242mm" height="808mm" viewBox="-122 -1322 242 808" xmlns="http://www.w3.org/2000/svg" version="1.1">
<title>OpenSCAD Model</title>
<path d="
M -118.5,-1127.94 L -118.187,-1127.65 L -117.679,-1127.28 L -117.129,-1126.98 L -116.545,-1126.74 L -115.937,-1126.59
 L -115.314,-1126.51 L 115.314,-1126.51 L 115.937,-1126.59 L 116.545,-1126.74 L 117.129,-1126.98 L 117.679,-1127.28
 L 118.187,-1127.65 L 118.645,-1128.08 L 119.045,-1128.56 L 119.382,-1129.09 L 119.649,-1129.66 L 119.843,-1130.26
 L 119.961,-1130.87 L 120,-1131.5 L 120,-1316.5 L 119.961,-1317.13 L 119.843,-1317.74 L 119.649,-1318.34
 L 119.382,-1318.91 L 119.045,-1319.44 L 118.645,-1319.92 L 118.187,-1320.35 L 117.679,-1320.72 L 117.129,-1321.02
 L 116.545,-1321.26 L 115.937,-1321.41 L 115.314,-1321.49 L -115.314,-1321.49 L -115.937,-1321.41 L -116.545,-1321.26
 L -117.129,-1321.02 L -117.679,-1320.72 L -118.187,-1320.35 L -118.5,-1320.06 L -118.5,-1321.49 L -121.5,-1321.49
 L -121.5,-1126.51 L -118.5,-1126.51 z
M -114.751,-1128.01 L -115.25,-1128.07 L -115.736,-1128.2 L -116.203,-1128.38 L -116.643,-1128.62 L -117.05,-1128.92
 L -117.416,-1129.26 L -117.736,-1129.65 L -118.005,-1130.07 L -118.219,-1130.53 L -118.374,-1131.01 L -118.468,-1131.5
 L -118.5,-1132 L -118.5,-1316 L -118.468,-1316.5 L -118.374,-1316.99 L -118.219,-1317.47 L -118.005,-1317.93
 L -117.736,-1318.35 L -117.416,-1318.74 L -117.05,-1319.08 L -116.643,-1319.38 L -116.203,-1319.62 L -115.736,-1319.8
 L -115.25,-1319.93 L -114.751,-1319.99 L 114.751,-1319.99 L 115.25,-1319.93 L 115.736,-1319.8 L 116.203,-1319.62
 L 116.643,-1319.38 L 117.05,-1319.08 L 117.416,-1318.74 L 117.736,-1318.35 L 118.005,-1317.93 L 118.219,-1317.47
 L 118.374,-1316.99 L 118.468,-1316.5 L 118.5,-1316 L 118.5,-1132 L 118.468,-1131.5 L 118.374,-1131.01
 L 118.219,-1130.53 L 118.005,-1130.07 L 117.736,-1129.65 L 117.416,-1129.26 L 117.05,-1128.92 L 116.643,-1128.62
 L 116.203,-1128.38 L 115.736,-1128.2 L 115.25,-1128.07 L 114.751,-1128.01 z
M -118.5,-923.941 L -118.187,-923.647 L -117.679,-923.278 L -117.129,-922.976 L -116.545,-922.745 L -115.937,-922.589
 L -115.314,-922.51 L 115.314,-922.51 L 115.937,-922.589 L 116.545,-922.745 L 117.129,-922.976 L 117.679,-923.278
 L 118.187,-923.647 L 118.645,-924.077 L 119.045,-924.561 L 119.382,-925.091 L 119.649,-925.659 L 119.843,-926.257
 L 119.961,-926.873 L 120,-927.5 L 120,-1112.5 L 119.961,-1113.13 L 119.843,-1113.74 L 119.649,-1114.34
 L 119.382,-1114.91 L 119.045,-1115.44 L 118.645,-1115.92 L 118.187,-1116.35 L 117.679,-1116.72 L 117.129,-1117.02
 L 116.545,-1117.26 L 115.937,-1117.41 L 115.314,-1117.49 L -115.314,-1117.49 L -115.937,-1117.41 L -116.545,-1117.26
 L -117.129,-1117.02 L -117.679,-1116.72 L -118.187,-1116.35 L -118.5,-1116.06 L -118.5,-1117.49 L -121.5,-1117.49
 L -121.5,-922.51 L -118.5,-922.51 z
M -114.743,-924.135 L -115.226,-924.196 L -115.697,-924.317 L -116.149,-924.496 L -116.575,-924.73 L -116.969,-925.016
 L -117.323,-925.349 L -117.633,-925.724 L -117.894,-926.134 L -118.101,-926.574 L -118.251,-927.037 L -118.342,-927.515
 L -118.373,-928 L -118.373,-1112 L -118.342,-1112.49 L -118.251,-1112.96 L -118.101,-1113.43 L -117.894,-1113.87
 L -117.633,-1114.28 L -117.323,-1114.65 L -116.969,-1114.98 L -116.575,-1115.27 L -116.149,-1115.5 L -115.697,-1115.68
 L -115.226,-1115.8 L -114.743,-1115.86 L 114.743,-1115.86 L 115.226,-1115.8 L 115.697,-1115.68 L 116.149,-1115.5
 L 116.575,-1115.27 L 116.969,-1114.98 L 117.323,-1114.65 L 117.633,-1114.28 L 117.894,-1113.87 L 118.101,-1113.43
 L 118.251,-1112.96 L 118.342,-1112.49 L 118.373,-1112 L 118.373,-928 L 118.342,-927.515 L 118.251,-927.037
 L 118.101,-926.574 L 117.894,-926.134 L 117.633,-925.724 L 117.323,-925.349 L 116.969,-925.016 L 116.575,-924.73
 L 116.149,-924.496 L 115.697,-924.317 L 115.226,-924.196 L 114.743,-924.135 z
M 115.937,-718.589 L 116.545,-718.745 L 117.129,-718.976 L 117.679,-719.278 L 118.187,-719.647 L 118.645,-720.077
 L 119.045,-720.561 L 119.382,-721.091 L 119.649,-721.659 L 119.843,-722.257 L 119.961,-722.873 L 120,-723.5
 L 120,-908.5 L 119.961,-909.127 L 119.843,-909.743 L 119.649,-910.341 L 119.382,-910.909 L 119.045,-911.439
 L 118.645,-911.923 L 118.187,-912.353 L 117.679,-912.722 L 117.129,-913.024 L 116.545,-913.255 L 115.937,-913.411
 L 115.314,-913.49 L -115.314,-913.49 L -115.937,-913.411 L -116.545,-913.255 L -117.129,-913.024 L -117.679,-912.722
 L -118.187,-912.353 L -118.5,-912.059 L -118.5,-913.115 L -121.5,-913.115 L -121.5,-718.885 L -118.5,-718.885
 L -118.5,-719.941 L -118.187,-719.647 L -117.679,-719.278 L -117.129,-718.976 L -116.545,-718.745 L -115.937,-718.589
 L -115.314,-718.51 L 115.314,-718.51 z
M -112.651,-903.605 L -112.95,-903.643 L -113.242,-903.717 L -113.522,-903.828 L -113.786,-903.974 L -114.03,-904.151
 L -114.25,-904.357 L -114.442,-904.589 L -114.603,-904.844 L -114.731,-905.117 L -114.825,-905.403 L -114.881,-905.699
 L -114.9,-906 L -114.881,-906.301 L -114.825,-906.597 L -114.731,-906.883 L -114.603,-907.156 L -114.442,-907.411
 L -114.25,-907.643 L -114.03,-907.849 L -113.786,-908.026 L -113.522,-908.172 L -113.242,-908.283 L -112.95,-908.357
 L -112.651,-908.395 L -112.349,-908.395 L -112.05,-908.357 L -111.758,-908.283 L -111.478,-908.172 L -111.214,-908.026
 L -110.97,-907.849 L -110.75,-907.643 L -110.558,-907.411 L -110.397,-907.156 L -110.269,-906.883 L -110.175,-906.597
 L -110.119,-906.301 L -110.1,-906 L -110.119,-905.699 L -110.175,-905.403 L -110.269,-905.117 L -110.397,-904.844
 L -110.558,-904.589 L -110.75,-904.357 L -110.97,-904.151 L -111.214,-903.974 L -111.478,-903.828 L -111.758,-903.717
 L -112.05,-903.643 L -112.349,-903.605 z
M 112.349,-903.605 L 112.05,-903.643 L 111.758,-903.717 L 111.478,-903.828 L 111.214,-903.974 L 110.97,-904.151
 L 110.75,-904.357 L 110.558,-904.589 L 110.397,-904.844 L 110.269,-905.117 L 110.175,-905.403 L 110.119,-905.699
 L 110.1,-906 L 110.119,-906.301 L 110.175,-906.597 L 110.269,-906.883 L 110.397,-907.156 L 110.558,-907.411
 L 110.75,-907.643 L 110.97,-907.849 L 111.214,-908.026 L 111.478,-908.172 L 111.758,-908.283 L 112.05,-908.357
 L 112.349,-908.395 L 112.651,-908.395 L 112.95,-908.357 L 113.242,-908.283 L 113.522,-908.172 L 113.786,-908.026
 L 114.03,-907.849 L 114.25,-907.643 L 114.442,-907.411 L 114.603,-907.156 L 114.731,-906.883 L 114.825,-906.597
 L 114.881,-906.301 L 114.9,-906 L 114.881,-905.699 L 114.825,-905.403 L 114.731,-905.117 L 114.603,-904.844
 L 114.442,-904.589 L 114.25,-904.357 L 114.03,-904.151 L 113.786,-903.974 L 113.522,-903.828 L 113.242,-903.717
 L 112.95,-903.643 L 112.651,-903.605 z
M 112.349,-723.605 L 112.05,-723.643 L 111.758,-723.717 L 111.478,-723.828 L 111.214,-723.974 L 110.97,-724.151
 L 110.75,-724.357 L 110.558,-724.589 L 110.397,-724.844 L 110.269,-725.117 L 110.175,-725.403 L 110.119,-725.699
 L 110.1,-726 L 110.119,-726.301 L 110.175,-726.597 L 110.269,-726.883 L 110.397,-727.156 L 110.558,-727.411
 L 110.75,-727.643 L 110.97,-727.849 L 111.214,-728.026 L 111.478,-728.172 L 111.758,-728.283 L 112.05,-728.357
 L 112.349,-728.395 L 112.651,-728.395 L 112.95,-728.357 L 113.242,-728.283 L 113.522,-728.172 L 113.786,-728.026
 L 114.03,-727.849 L 114.25,-727.643 L 114.442,-727.411 L 114.603,-727.156 L 114.731,-726.883 L 114.825,-726.597
 L 114.881,-726.301 L 114.9,-726 L 114.881,-725.699 L 114.825,-725.403 L 114.731,-725.117 L 114.603,-724.844
 L 114.442,-724.589 L 114.25,-724.357 L 114.03,-724.151 L 113.786,-723.974 L 113.522,-723.828 L 113.242,-723.717
 L 112.95,-723.643 L 112.651,-723.605 z
M -112.651,-723.605 L -112.95,-723.643 L -113.242,-723.717 L -113.522,-723.828 L -113.786,-723.974 L -114.03,-724.151
 L -114.25,-724.357 L -114.442,-724.589 L -114.603,-724.844 L -114.731,-725.117 L -114.825,-725.403 L -114.881,-725.699
 L -114.9,-726 L -114.881,-726.301 L -114.825,-726.597 L -114.731,-726.883 L -114.603,-727.156 L -114.442,-727.411
 L -114.25,-727.643 L -114.03,-727.849 L -113.786,-728.026 L -113.522,-728.172 L -113.242,-728.283 L -112.95,-728.357
 L -112.651,-728.395 L -112.349,-728.395 L -112.05,-728.357 L -111.758,-728.283 L -111.478,-728.172 L -111.214,-728.026
 L -110.97,-727.849 L -110.75,-727.643 L -110.558,-727.411 L -110.397,-727.156 L -110.269,-726.883 L -110.175,-726.597
 L -110.119,-726.301 L -110.1,-726 L -110.119,-725.699 L -110.175,-725.403 L -110.269,-725.117 L -110.397,-724.844
 L -110.558,-724.589 L -110.75,-724.357 L -110.97,-724.151 L -111.214,-723.974 L -111.478,-723.828 L -111.758,-723.717
 L -112.05,-723.643 L -112.349,-723.605 z
M 115.937,-514.589 L 116.545,-514.745 L 117.129,-514.976 L 117.679,-515.278 L 118.187,-515.647 L 118.645,-516.077
 L 119.045,-516.561 L 119.382,-517.091 L 119.649,-517.659 L 119.843,-518.257 L 119.961,-518.873 L 120,-519.5
 L 120,-704.5 L 119.961,-705.127 L 119.843,-705.743 L 119.649,-706.341 L 119.382,-706.909 L 119.045,-707.439
 L 118.645,-707.923 L 118.187,-708.353 L 117.679,-708.722 L 117.129,-709.024 L 116.545,-709.255 L 115.937,-709.411
 L 115.314,-709.49 L -115.314,-709.49 L -115.937,-709.411 L -116.545,-709.255 L -117.129,-709.024 L -117.679,-708.722
 L -118.187,-708.353 L -118.645,-707.923 L -119.045,-707.439 L -119.382,-706.909 L -119.649,-706.341 L -119.843,-705.743
 L -119.9,-705.444 L -121.5,-705.444 L -121.5,-518.556 L -119.9,-518.556 L -119.843,-518.257 L -119.649,-517.659
 L -119.382,-517.091 L -119.045,-516.561 L -118.645,-516.077 L -118.187,-515.647 L -117.679,-515.278 L -117.129,-514.976
 L -116.545,-514.745 L -115.937,-514.589 L -115.314,-514.51 L 115.314,-514.51 z
M -112.613,-700.204 L -112.837,-700.232 L -113.056,-700.288 L -113.266,-700.371 L -113.464,-700.48 L -113.647,-700.613
 L -113.812,-700.768 L -113.956,-700.942 L -114.077,-701.133 L -114.174,-701.337 L -114.243,-701.552 L -114.286,-701.774
 L -114.3,-702 L -114.286,-702.226 L -114.243,-702.448 L -114.174,-702.663 L -114.077,-702.867 L -113.956,-703.058
 L -113.812,-703.232 L -113.647,-703.387 L -113.464,-703.52 L -113.266,-703.629 L -113.056,-703.712 L -112.837,-703.768
 L -112.613,-703.796 L -112.387,-703.796 L -112.163,-703.768 L -111.944,-703.712 L -111.734,-703.629 L -111.536,-703.52
 L -111.353,-703.387 L -111.188,-703.232 L -111.044,-703.058 L -110.923,-702.867 L -110.826,-702.663 L -110.757,-702.448
 L -110.714,-702.226 L -110.7,-702 L -110.714,-701.774 L -110.757,-701.552 L -110.826,-701.337 L -110.923,-701.133
 L -111.044,-700.942 L -111.188,-700.768 L -111.353,-700.613 L -111.536,-700.48 L -111.734,-700.371 L -111.944,-700.288
 L -112.163,-700.232 L -112.387,-700.204 z
M 112.387,-700.204 L 112.163,-700.232 L 111.944,-700.288 L 111.734,-700.371 L 111.536,-700.48 L 111.353,-700.613
 L 111.188,-700.768 L 111.044,-700.942 L 110.923,-701.133 L 110.826,-701.337 L 110.757,-701.552 L 110.714,-701.774
 L 110.7,-702 L 110.714,-702.226 L 110.757,-702.448 L 110.826,-702.663 L 110.923,-702.867 L 111.044,-703.058
 L 111.188,-703.232 L 111.353,-703.387 L 111.536,-703.52 L 111.734,-703.629 L 111.944,-703.712 L 112.163,-703.768
 L 112.387,-703.796 L 112.613,-703.796 L 112.837,-703.768 L 113.056,-703.712 L 113.266,-703.629 L 113.464,-703.52
 L 113.647,-703.387 L 113.812,-703.232 L 113.956,-703.058 L 114.077,-702.867 L 114.174,-702.663 L 114.243,-702.448
 L 114.286,-702.226 L 114.3,-702 L 114.286,-701.774 L 114.243,-701.552 L 114.174,-701.337 L 114.077,-701.133
 L 113.956,-700.942 L 113.812,-700.768 L 113.647,-700.613 L 113.464,-700.48 L 113.266,-700.371 L 113.056,-700.288
 L 112.837,-700.232 L 112.613,-700.204 z
M -112.613,-520.204 L -112.837,-520.232 L -113.056,-520.288 L -113.266,-520.371 L -113.464,-520.48 L -113.647,-520.613
 L -113.812,-520.768 L -113.956,-520.942 L -114.077,-521.133 L -114.174,-521.337 L -114.243,-521.552 L -114.286,-521.774
 L -114.3,-522 L -114.286,-522.226 L -114.243,-522.448 L -114.174,-522.663 L -114.077,-522.867 L -113.956,-523.058
 L -113.812,-523.232 L -113.647,-523.387 L -113.464,-523.52 L -113.266,-523.629 L -113.056,-523.712 L -112.837,-523.768
 L -112.613,-523.796 L -112.387,-523.796 L -112.163,-523.768 L -111.944,-523.712 L -111.734,-523.629 L -111.536,-523.52
 L -111.353,-523.387 L -111.188,-523.232 L -111.044,-523.058 L -110.923,-522.867 L -110.826,-522.663 L -110.757,-522.448
 L -110.714,-522.226 L -110.7,-522 L -110.714,-521.774 L -110.757,-521.552 L -110.826,-521.337 L -110.923,-521.133
 L -111.044,-520.942 L -111.188,-520.768 L -111.353,-520.613 L -111.536,-520.48 L -111.734,-520.371 L -111.944,-520.288
 L -112.163,-520.232 L -112.387,-520.204 z
M 112.387,-520.204 L 112.163,-520.232 L 111.944,-520.288 L 111.734,-520.371 L 111.536,-520.48 L 111.353,-520.613
 L 111.188,-520.768 L 111.044,-520.942 L 110.923,-521.133 L 110.826,-521.337 L 110.757,-521.552 L 110.714,-521.774
 L 110.7,-522 L 110.714,-522.226 L 110.757,-522.448 L 110.826,-522.663 L 110.923,-522.867 L 111.044,-523.058
 L 111.188,-523.232 L 111.353,-523.387 L 111.536,-523.52 L 111.734,-523.629 L 111.944,-523.712 L 112.163,-523.768
 L 112.387,-523.796 L 112.613,-523.796 L 112.837,-523.768 L 113.056,-523.712 L 113.266,-523.629 L 113.464,-523.52
 L 113.647,-523.387 L 113.812,-523.232 L 113.956,-523.058 L 114.077,-522.867 L 114.174,-522.663 L 114.243,-522.448
 L 114.286,-522.226 L 114.3,-522 L 114.286,-521.774 L 114.243,-521.552 L 114.174,-521.337 L 114.077,-521.133
 L 113.956,-520.942 L 113.812,-520.768 L 113.647,-520.613 L 113.464,-520.48 L 113.266,-520.371 L 113.056,-520.288
 L 112.837,-520.232 L 112.613,-520.204 z
" stroke="black" fill="lightgray" stroke-width="0.5"/>
</svg>
