<?xml version="1.0" standalone="no"?>
<!DOCTYPE svg PUBLIC "-//W3C//DTD SVG 1.1//EN" "http://www.w3.org/Graphics/SVG/1.1/DTD/svg11.dtd">
<svg width="286mm" height="249mm" viewBox="-143 -318 286 249" xmlns="http://www.w3.org/2000/svg" version="1.1">
<title>OpenSCAD Model</title>
<path d="
M 138.437,-198.089 L 139.045,-198.245 L 139.629,-198.476 L 140.179,-198.778 L 140.687,-199.147 L 141.145,-199.577
 L 141.545,-200.061 L 141.882,-200.591 L 142.149,-201.159 L 142.343,-201.757 L 142.461,-202.373 L 142.5,-203
 L 142.5,-313 L 142.461,-313.627 L 142.343,-314.243 L 142.149,-314.841 L 141.882,-315.409 L 141.545,-315.939
 L 141.145,-316.423 L 140.687,-316.853 L 140.179,-317.222 L 139.629,-317.524 L 139.045,-317.755 L 138.437,-317.911
 L 137.814,-317.99 L -137.814,-317.99 L -138.437,-317.911 L -139.045,-317.755 L -139.629,-317.524 L -140.179,-317.222
 L -140.687,-316.853 L -141.145,-316.423 L -141.545,-315.939 L -141.882,-315.409 L -142.149,-314.841 L -142.343,-314.243
 L -142.461,-313.627 L -142.5,-313 L -142.5,-203 L -142.461,-202.373 L -142.343,-201.757 L -142.149,-201.159
 L -141.882,-200.591 L -141.545,-200.061 L -141.145,-199.577 L -140.687,-199.147 L -140.179,-198.778 L -139.629,-198.476
 L -139.045,-198.245 L -138.437,-198.089 L -137.814,-198.01 L 137.814,-198.01 z
M -137.493,-199.388 L -137.975,-199.449 L -138.446,-199.57 L -138.898,-199.749 L -139.323,-199.983 L -139.716,-200.269
 L -140.071,-200.601 L -140.38,-200.976 L -140.641,-201.386 L -140.848,-201.826 L -140.998,-202.288 L -141.089,-202.765
 L -141.119,-203.25 L -141.119,-312.75 L -141.089,-313.235 L -140.998,-313.712 L -140.848,-314.174 L -140.641,-314.614
 L -140.38,-315.024 L -140.071,-315.399 L -139.716,-315.731 L -139.323,-316.017 L -138.898,-316.251 L -138.446,-316.43
 L -137.975,-316.551 L -137.493,-316.612 L 137.493,-316.612 L 137.975,-316.551 L 138.446,-316.43 L 138.898,-316.251
 L 139.323,-316.017 L 139.716,-315.731 L 140.071,-315.399 L 140.38,-315.024 L 140.641,-314.614 L 140.848,-314.174
 L 140.998,-313.712 L 141.089,-313.235 L 141.119,-312.75 L 141.119,-203.25 L 141.089,-202.765 L 140.998,-202.288
 L 140.848,-201.826 L 140.641,-201.386 L 140.38,-200.976 L 140.071,-200.601 L 139.716,-200.269 L 139.323,-199.983
 L 138.898,-199.749 L 138.446,-199.57 L 137.975,-199.449 L 137.493,-199.388 z
M 138.437,-69.0886 L 139.045,-69.2447 L 139.629,-69.4759 L 140.179,-69.7784 L 140.687,-70.1474 L 141.145,-70.5773
 L 141.545,-71.0611 L 141.882,-71.5912 L 142.149,-72.1594 L 142.343,-72.7566 L 142.461,-73.3733 L 142.5,-74
 L 142.5,-184 L 142.461,-184.627 L 142.343,-185.243 L 142.149,-185.841 L 141.882,-186.409 L 141.545,-186.939
 L 141.145,-187.423 L 140.687,-187.853 L 140.179,-188.222 L 139.629,-188.524 L 139.045,-188.755 L 138.437,-188.911
 L 137.814,-188.99 L -137.814,-188.99 L -138.437,-188.911 L -139.045,-188.755 L -139.629,-188.524 L -140.179,-188.222
 L -140.687,-187.853 L -141.145,-187.423 L -141.545,-186.939 L -141.882,-186.409 L -142.149,-185.841 L -142.343,-185.243
 L -142.461,-184.627 L -142.5,-184 L -142.5,-74 L -142.461,-73.3733 L -142.343,-72.7566 L -142.149,-72.1594
 L -141.882,-71.5912 L -141.545,-71.0611 L -141.145,-70.5773 L -140.687,-70.1474 L -140.179,-69.7784 L -139.629,-69.4759
 L -139.045,-69.2447 L -138.437,-69.0886 L -137.814,-69.0099 L 137.814,-69.0099 z
M 134.887,-179.704 L 134.663,-179.732 L 134.444,-179.788 L 134.234,-179.871 L 134.036,-179.98 L 133.853,-180.113
 L 133.688,-180.268 L 133.544,-180.442 L 133.423,-180.633 L 133.326,-180.837 L 133.257,-181.052 L 133.214,-181.274
 L 133.2,-181.5 L 133.214,-181.726 L 133.257,-181.948 L 133.326,-182.163 L 133.423,-182.367 L 133.544,-182.558
 L 133.688,-182.732 L 133.853,-182.887 L 134.036,-183.02 L 134.234,-183.129 L 134.444,-183.212 L 134.663,-183.268
 L 134.887,-183.296 L 135.113,-183.296 L 135.337,-183.268 L 135.556,-183.212 L 135.766,-183.129 L 135.964,-183.02
 L 136.147,-182.887 L 136.312,-182.732 L 136.456,-182.558 L 136.577,-182.367 L 136.674,-182.163 L 136.743,-181.948
 L 136.786,-181.726 L 136.8,-181.5 L 136.786,-181.274 L 136.743,-181.052 L 136.674,-180.837 L 136.577,-180.633
 L 136.456,-180.442 L 136.312,-180.268 L 136.147,-180.113 L 135.964,-179.98 L 135.766,-179.871 L 135.556,-179.788
 L 135.337,-179.732 L 135.113,-179.704 z
M -135.113,-179.704 L -135.337,-179.732 L -135.556,-179.788 L -135.766,-179.871 L -135.964,-179.98 L -136.147,-180.113
 L -136.312,-180.268 L -136.456,-180.442 L -136.577,-180.633 L -136.674,-180.837 L -136.743,-181.052 L -136.786,-181.274
 L -136.8,-181.5 L -136.786,-181.726 L -136.743,-181.948 L -136.674,-182.163 L -136.577,-182.367 L -136.456,-182.558
 L -136.312,-182.732 L -136.147,-182.887 L -135.964,-183.02 L -135.766,-183.129 L -135.556,-183.212 L -135.337,-183.268
 L -135.113,-183.296 L -134.887,-183.296 L -134.663,-183.268 L -134.444,-183.212 L -134.234,-183.129 L -134.036,-183.02
 L -133.853,-182.887 L -133.688,-182.732 L -133.544,-182.558 L -133.423,-182.367 L -133.326,-182.163 L -133.257,-181.948
 L -133.214,-181.726 L -133.2,-181.5 L -133.214,-181.274 L -133.257,-181.052 L -133.326,-180.837 L -133.423,-180.633
 L -133.544,-180.442 L -133.688,-180.268 L -133.853,-180.113 L -134.036,-179.98 L -134.234,-179.871 L -134.444,-179.788
 L -134.663,-179.732 L -134.887,-179.704 z
M -135.113,-74.7036 L -135.337,-74.7319 L -135.556,-74.7881 L -135.766,-74.8713 L -135.964,-74.9802 L -136.147,-75.1131
 L -136.312,-75.2678 L -136.456,-75.442 L -136.577,-75.6328 L -136.674,-75.8374 L -136.743,-76.0524 L -136.786,-76.2744
 L -136.8,-76.5 L -136.786,-76.7256 L -136.743,-76.9476 L -136.674,-77.1626 L -136.577,-77.3672 L -136.456,-77.558
 L -136.312,-77.7322 L -136.147,-77.8869 L -135.964,-78.0198 L -135.766,-78.1287 L -135.556,-78.2119 L -135.337,-78.2681
 L -135.113,-78.2964 L -134.887,-78.2964 L -134.663,-78.2681 L -134.444,-78.2119 L -134.234,-78.1287 L -134.036,-78.0198
 L -133.853,-77.8869 L -133.688,-77.7322 L -133.544,-77.558 L -133.423,-77.3672 L -133.326,-77.1626 L -133.257,-76.9476
 L -133.214,-76.7256 L -133.2,-76.5 L -133.214,-76.2744 L -133.257,-76.0524 L -133.326,-75.8374 L -133.423,-75.6328
 L -133.544,-75.442 L -133.688,-75.2678 L -133.853,-75.1131 L -134.036,-74.9802 L -134.234,-74.8713 L -134.444,-74.7881
 L -134.663,-74.7319 L -134.887,-74.7036 z
M 134.887,-74.7036 L 134.663,-74.7319 L 134.444,-74.7881 L 134.234,-74.8713 L 134.036,-74.9802 L 133.853,-75.1131
 L 133.688,-75.2678 L 133.544,-75.442 L 133.423,-75.6328 L 133.326,-75.8374 L 133.257,-76.0524 L 133.214,-76.2744
 L 133.2,-76.5 L 133.214,-76.7256 L 133.257,-76.9476 L 133.326,-77.1626 L 133.423,-77.3672 L 133.544,-77.558
 L 133.688,-77.7322 L 133.853,-77.8869 L 134.036,-78.0198 L 134.234,-78.1287 L 134.444,-78.2119 L 134.663,-78.2681
 L 134.887,-78.2964 L 135.113,-78.2964 L 135.337,-78.2681 L 135.556,-78.2119 L 135.766,-78.1287 L 135.964,-78.0198
 L 136.147,-77.8869 L 136.312,-77.7322 L 136.456,-77.558 L 136.577,-77.3672 L 136.674,-77.1626 L 136.743,-76.9476
 L 136.786,-76.7256 L 136.8,-76.5 L 136.786,-76.2744 L 136.743,-76.0524 L 136.674,-75.8374 L 136.577,-75.6328
 L 136.456,-75.442 L 136.312,-75.2678 L 136.147,-75.1131 L 135.964,-74.9802 L 135.766,-74.8713 L 135.556,-74.7881
 L 135.337,-74.7319 L 135.113,-74.7036 z
" stroke="black" fill="lightgray" stroke-width="0.5"/>
</svg>
