<?xml version="1.0" standalone="no"?>
<!DOCTYPE svg PUBLIC "-//W3C//DTD SVG 1.1//EN" "http://www.w3.org/Graphics/SVG/1.1/DTD/svg11.dtd">
<svg width="240mm" height="108mm" viewBox="-120 -171 240 108" xmlns="http://www.w3.org/2000/svg" version="1.1">
<title>OpenSCAD Model</title>
<path d="
M 115.937,-141.089 L 116.545,-141.245 L 117.129,-141.476 L 117.679,-141.778 L 118.187,-142.147 L 118.645,-142.577
 L 119.045,-143.061 L 119.382,-143.591 L 119.649,-144.159 L 119.843,-144.757 L 119.961,-145.373 L 120,-146
 L 120,-166 L 119.961,-166.627 L 119.843,-167.243 L 119.649,-167.841 L 119.382,-168.409 L 119.045,-168.939
 L 118.645,-169.423 L 118.187,-169.853 L 117.679,-170.222 L 117.129,-170.524 L 116.545,-170.755 L 115.937,-170.911
 L 115.314,-170.99 L -115.314,-170.99 L -115.937,-170.911 L -116.545,-170.755 L -117.129,-170.524 L -117.679,-170.222
 L -118.187,-169.853 L -118.645,-169.423 L -119.045,-168.939 L -119.382,-168.409 L -119.649,-167.841 L -119.843,-167.243
 L -119.961,-166.627 L -120,-166 L -120,-146 L -119.961,-145.373 L -119.843,-144.757 L -119.649,-144.159
 L -119.382,-143.591 L -119.045,-143.061 L -118.645,-142.577 L -118.187,-142.147 L -117.679,-141.778 L -117.129,-141.476
 L -116.545,-141.245 L -115.937,-141.089 L -115.314,-141.01 L 115.314,-141.01 z
M -115.048,-141.509 L -115.64,-141.584 L -116.218,-141.732 L -116.772,-141.952 L -117.295,-142.239 L -117.778,-142.59
 L -118.213,-142.998 L -118.593,-143.458 L -118.912,-143.962 L -119.166,-144.501 L -119.351,-145.069 L -119.463,-145.655
 L -119.5,-146.25 L -119.5,-165.75 L -119.463,-166.345 L -119.351,-166.931 L -119.166,-167.499 L -118.912,-168.038
 L -118.593,-168.542 L -118.213,-169.002 L -117.778,-169.41 L -117.295,-169.761 L -116.772,-170.048 L -116.218,-170.268
 L -115.64,-170.416 L -115.048,-170.491 L 115.048,-170.491 L 115.64,-170.416 L 116.218,-170.268 L 116.772,-170.048
 L 117.295,-169.761 L 117.778,-169.41 L 118.213,-169.002 L 118.593,-168.542 L 118.912,-168.038 L 119.166,-167.499
 L 119.351,-166.931 L 119.463,-166.345 L 119.5,-165.75 L 119.5,-146.25 L 119.463,-145.655 L 119.351,-145.069
 L 119.166,-144.501 L 118.912,-143.962 L 118.593,-143.458 L 118.213,-142.998 L 117.778,-142.59 L 117.295,-142.239
 L 116.772,-141.952 L 116.218,-141.732 L 115.64,-141.584 L 115.048,-141.509 z
M 115.937,-102.089 L 116.545,-102.245 L 117.129,-102.476 L 117.679,-102.778 L 118.187,-103.147 L 118.645,-103.577
 L 119.045,-104.061 L 119.382,-104.591 L 119.649,-105.159 L 119.843,-105.757 L 119.961,-106.373 L 120,-107
 L 120,-127 L 119.961,-127.627 L 119.843,-128.243 L 119.649,-128.841 L 119.382,-129.409 L 119.045,-129.939
 L 118.645,-130.423 L 118.187,-130.853 L 117.679,-131.222 L 117.129,-131.524 L 116.545,-131.755 L 115.937,-131.911
 L 115.314,-131.99 L -115.314,-131.99 L -115.937,-131.911 L -116.545,-131.755 L -117.129,-131.524 L -117.679,-131.222
 L -118.187,-130.853 L -118.645,-130.423 L -119.045,-129.939 L -119.382,-129.409 L -119.649,-128.841 L -119.843,-128.243
 L -119.961,-127.627 L -120,-127 L -120,-107 L -119.961,-106.373 L -119.843,-105.757 L -119.649,-105.159
 L -119.382,-104.591 L -119.045,-104.061 L -118.645,-103.577 L -118.187,-103.147 L -117.679,-102.778 L -117.129,-102.476
 L -116.545,-102.245 L -115.937,-102.089 L -115.314,-102.01 L 115.314,-102.01 z
M -114.993,-103.388 L -115.475,-103.449 L -115.946,-103.57 L -116.398,-103.749 L -116.823,-103.983 L -117.216,-104.269
 L -117.571,-104.601 L -117.88,-104.976 L -118.141,-105.386 L -118.348,-105.826 L -118.498,-106.288 L -118.589,-106.765
 L -118.619,-107.25 L -118.619,-126.75 L -118.589,-127.235 L -118.498,-127.712 L -118.348,-128.174 L -118.141,-128.614
 L -117.88,-129.024 L -117.571,-129.399 L -117.216,-129.731 L -116.823,-130.017 L -116.398,-130.251 L -115.946,-130.43
 L -115.475,-130.551 L -114.993,-130.612 L 114.993,-130.612 L 115.475,-130.551 L 115.946,-130.43 L 116.398,-130.251
 L 116.823,-130.017 L 117.216,-129.731 L 117.571,-129.399 L 117.88,-129.024 L 118.141,-128.614 L 118.348,-128.174
 L 118.498,-127.712 L 118.589,-127.235 L 118.619,-126.75 L 118.619,-107.25 L 118.589,-106.765 L 118.498,-106.288
 L 118.348,-105.826 L 118.141,-105.386 L 117.88,-104.976 L 117.571,-104.601 L 117.216,-104.269 L 116.823,-103.983
 L 116.398,-103.749 L 115.946,-103.57 L 115.475,-103.449 L 114.993,-103.388 z
M 115.937,-63.0886 L 116.545,-63.2447 L 117.129,-63.4759 L 117.679,-63.7784 L 118.187,-64.1474 L 118.645,-64.5773
 L 119.045,-65.0611 L 119.382,-65.5912 L 119.649,-66.1594 L 119.843,-66.7566 L 119.961,-67.3733 L 120,-68
 L 120,-88 L 119.961,-88.6267 L 119.843,-89.2434 L 119.649,-89.8406 L 119.382,-90.4088 L 119.045,-90.9389
 L 118.645,-91.4227 L 118.187,-91.8526 L 117.679,-92.2216 L 117.129,-92.5241 L 116.545,-92.7553 L 115.937,-92.9114
 L 115.314,-92.9901 L -115.314,-92.9901 L -115.937,-92.9114 L -116.545,-92.7553 L -117.129,-92.5241 L -117.679,-92.2216
 L -118.187,-91.8526 L -118.645,-91.4227 L -119.045,-90.9389 L -119.382,-90.4088 L -119.649,-89.8406 L -119.843,-89.2434
 L -119.961,-88.6267 L -120,-88 L -120,-68 L -119.961,-67.3733 L -119.843,-66.7566 L -119.649,-66.1594
 L -119.382,-65.5912 L -119.045,-65.0611 L -118.645,-64.5773 L -118.187,-64.1474 L -117.679,-63.7784 L -117.129,-63.4759
 L -116.545,-63.2447 L -115.937,-63.0886 L -115.314,-63.0099 L 115.314,-63.0099 z
M 112.387,-83.7036 L 112.163,-83.7319 L 111.944,-83.7881 L 111.734,-83.8713 L 111.536,-83.9802 L 111.353,-84.1131
 L 111.188,-84.2678 L 111.044,-84.442 L 110.923,-84.6328 L 110.826,-84.8374 L 110.757,-85.0524 L 110.714,-85.2744
 L 110.7,-85.5 L 110.714,-85.7256 L 110.757,-85.9476 L 110.826,-86.1626 L 110.923,-86.3671 L 111.044,-86.558
 L 111.188,-86.7322 L 111.353,-86.8869 L 111.536,-87.0198 L 111.734,-87.1287 L 111.944,-87.2119 L 112.163,-87.2681
 L 112.387,-87.2964 L 112.613,-87.2964 L 112.837,-87.2681 L 113.056,-87.2119 L 113.266,-87.1287 L 113.464,-87.0198
 L 113.647,-86.8869 L 113.812,-86.7322 L 113.956,-86.558 L 114.077,-86.3671 L 114.174,-86.1626 L 114.243,-85.9476
 L 114.286,-85.7256 L 114.3,-85.5 L 114.286,-85.2744 L 114.243,-85.0524 L 114.174,-84.8374 L 114.077,-84.6328
 L 113.956,-84.442 L 113.812,-84.2678 L 113.647,-84.1131 L 113.464,-83.9802 L 113.266,-83.8713 L 113.056,-83.7881
 L 112.837,-83.7319 L 112.613,-83.7036 z
M -112.613,-83.7036 L -112.837,-83.7319 L -113.056,-83.7881 L -113.266,-83.8713 L -113.464,-83.9802 L -113.647,-84.1131
 L -113.812,-84.2678 L -113.956,-84.442 L -114.077,-84.6328 L -114.174,-84.8374 L -114.243,-85.0524 L -114.286,-85.2744
 L -114.3,-85.5 L -114.286,-85.7256 L -114.243,-85.9476 L -114.174,-86.1626 L -114.077,-86.3671 L -113.956,-86.558
 L -113.812,-86.7322 L -113.647,-86.8869 L -113.464,-87.0198 L -113.266,-87.1287 L -113.056,-87.2119 L -112.837,-87.2681
 L -112.613,-87.2964 L -112.387,-87.2964 L -112.163,-87.2681 L -111.944,-87.2119 L -111.734,-87.1287 L -111.536,-87.0198
 L -111.353,-86.8869 L -111.188,-86.7322 L -111.044,-86.558 L -110.923,-86.3671 L -110.826,-86.1626 L -110.757,-85.9476
 L -110.714,-85.7256 L -110.7,-85.5 L -110.714,-85.2744 L -110.757,-85.0524 L -110.826,-84.8374 L -110.923,-84.6328
 L -111.044,-84.442 L -111.188,-84.2678 L -111.353,-84.1131 L -111.536,-83.9802 L -111.734,-83.8713 L -111.944,-83.7881
 L -112.163,-83.7319 L -112.387,-83.7036 z
M 112.387,-68.7036 L 112.163,-68.7319 L 111.944,-68.7881 L 111.734,-68.8713 L 111.536,-68.9802 L 111.353,-69.1131
 L 111.188,-69.2678 L 111.044,-69.442 L 110.923,-69.6329 L 110.826,-69.8374 L 110.757,-70.0524 L 110.714,-70.2744
 L 110.7,-70.5 L 110.714,-70.7256 L 110.757,-70.9476 L 110.826,-71.1626 L 110.923,-71.3672 L 111.044,-71.558
 L 111.188,-71.7322 L 111.353,-71.8869 L 111.536,-72.0198 L 111.734,-72.1287 L 111.944,-72.2119 L 112.163,-72.2681
 L 112.387,-72.2964 L 112.613,-72.2964 L 112.837,-72.2681 L 113.056,-72.2119 L 113.266,-72.1287 L 113.464,-72.0198
 L 113.647,-71.8869 L 113.812,-71.7322 L 113.956,-71.558 L 114.077,-71.3672 L 114.174,-71.1626 L 114.243,-70.9476
 L 114.286,-70.7256 L 114.3,-70.5 L 114.286,-70.2744 L 114.243,-70.0524 L 114.174,-69.8374 L 114.077,-69.6329
 L 113.956,-69.442 L 113.812,-69.2678 L 113.647,-69.1131 L 113.464,-68.9802 L 113.266,-68.8713 L 113.056,-68.7881
 L 112.837,-68.7319 L 112.613,-68.7036 z
M -112.613,-68.7036 L -112.837,-68.7319 L -113.056,-68.7881 L -113.266,-68.8713 L -113.464,-68.9802 L -113.647,-69.1131
 L -113.812,-69.2678 L -113.956,-69.442 L -114.077,-69.6329 L -114.174,-69.8374 L -114.243,-70.0524 L -114.286,-70.2744
 L -114.3,-70.5 L -114.286,-70.7256 L -114.243,-70.9476 L -114.174,-71.1626 L -114.077,-71.3672 L -113.956,-71.558
 L -113.812,-71.7322 L -113.647,-71.8869 L -113.464,-72.0198 L -113.266,-72.1287 L -113.056,-72.2119 L -112.837,-72.2681
 L -112.613,-72.2964 L -112.387,-72.2964 L -112.163,-72.2681 L -111.944,-72.2119 L -111.734,-72.1287 L -111.536,-72.0198
 L -111.353,-71.8869 L -111.188,-71.7322 L -111.044,-71.558 L -110.923,-71.3672 L -110.826,-71.1626 L -110.757,-70.9476
 L -110.714,-70.7256 L -110.7,-70.5 L -110.714,-70.2744 L -110.757,-70.0524 L -110.826,-69.8374 L -110.923,-69.6329
 L -111.044,-69.442 L -111.188,-69.2678 L -111.353,-69.1131 L -111.536,-68.9802 L -111.734,-68.8713 L -111.944,-68.7881
 L -112.163,-68.7319 L -112.387,-68.7036 z
" stroke="black" fill="lightgray" stroke-width="0.5"/>
</svg>
