  0
SECTION
  2
BLOCKS
  0
ENDSEC
  0
SECTION
  2
ENTITIES
  0
LINE
  8
0
 10
-118.5
 20
451.441
 11
-118.187
 21
451.147
  0
LINE
  8
0
 10
-118.187
 20
451.147
 11
-117.679
 21
450.778
  0
LINE
  8
0
 10
-117.679
 20
450.778
 11
-117.129
 21
450.476
  0
LINE
  8
0
 10
-117.129
 20
450.476
 11
-116.545
 21
450.245
  0
LINE
  8
0
 10
-116.545
 20
450.245
 11
-115.937
 21
450.089
  0
LINE
  8
0
 10
-115.937
 20
450.089
 11
-115.314
 21
450.01
  0
LINE
  8
0
 10
-115.314
 20
450.01
 11
115.314
 21
450.01
  0
LINE
  8
0
 10
115.314
 20
450.01
 11
115.937
 21
450.089
  0
LINE
  8
0
 10
115.937
 20
450.089
 11
116.545
 21
450.245
  0
LINE
  8
0
 10
116.545
 20
450.245
 11
117.129
 21
450.476
  0
LINE
  8
0
 10
117.129
 20
450.476
 11
117.679
 21
450.778
  0
LINE
  8
0
 10
117.679
 20
450.778
 11
118.187
 21
451.147
  0
LINE
  8
0
 10
118.187
 20
451.147
 11
118.645
 21
451.577
  0
LINE
  8
0
 10
118.645
 20
451.577
 11
119.045
 21
452.061
  0
LINE
  8
0
 10
119.045
 20
452.061
 11
119.382
 21
452.591
  0
LINE
  8
0
 10
119.382
 20
452.591
 11
119.649
 21
453.159
  0
LINE
  8
0
 10
119.649
 20
453.159
 11
119.843
 21
453.757
  0
LINE
  8
0
 10
119.843
 20
453.757
 11
119.961
 21
454.373
  0
LINE
  8
0
 10
119.961
 20
454.373
 11
120
 21
455
  0
LINE
  8
0
 10
120
 20
455
 11
120
 21
535
  0
LINE
  8
0
 10
120
 20
535
 11
119.961
 21
535.627
  0
LINE
  8
0
 10
119.961
 20
535.627
 11
119.843
 21
536.243
  0
LINE
  8
0
 10
119.843
 20
536.243
 11
119.649
 21
536.841
  0
LINE
  8
0
 10
119.649
 20
536.841
 11
119.382
 21
537.409
  0
LINE
  8
0
 10
119.382
 20
537.409
 11
119.045
 21
537.939
  0
LINE
  8
0
 10
119.045
 20
537.939
 11
118.645
 21
538.423
  0
LINE
  8
0
 10
118.645
 20
538.423
 11
118.187
 21
538.853
  0
LINE
  8
0
 10
118.187
 20
538.853
 11
117.679
 21
539.222
  0
LINE
  8
0
 10
117.679
 20
539.222
 11
117.129
 21
539.524
  0
LINE
  8
0
 10
117.129
 20
539.524
 11
116.545
 21
539.755
  0
LINE
  8
0
 10
116.545
 20
539.755
 11
115.937
 21
539.911
  0
LINE
  8
0
 10
115.937
 20
539.911
 11
115.314
 21
539.99
  0
LINE
  8
0
 10
115.314
 20
539.99
 11
-115.314
 21
539.99
  0
LINE
  8
0
 10
-115.314
 20
539.99
 11
-115.937
 21
539.911
  0
LINE
  8
0
 10
-115.937
 20
539.911
 11
-116.545
 21
539.755
  0
LINE
  8
0
 10
-116.545
 20
539.755
 11
-117.129
 21
539.524
  0
LINE
  8
0
 10
-117.129
 20
539.524
 11
-117.679
 21
539.222
  0
LINE
  8
0
 10
-117.679
 20
539.222
 11
-118.187
 21
538.853
  0
LINE
  8
0
 10
-118.187
 20
538.853
 11
-118.5
 21
538.559
  0
LINE
  8
0
 10
-118.5
 20
538.559
 11
-118.5
 21
539.99
  0
LINE
  8
0
 10
-118.5
 20
539.99
 11
-121.5
 21
539.99
  0
LINE
  8
0
 10
-121.5
 20
539.99
 11
-121.5
 21
450.01
  0
LINE
  8
0
 10
-121.5
 20
450.01
 11
-118.5
 21
450.01
  0
LINE
  8
0
 10
-118.5
 20
450.01
 11
-118.5
 21
451.441
  0
LINE
  8
0
 10
-114.751
 20
451.508
 11
-115.25
 21
451.571
  0
LINE
  8
0
 10
-115.25
 20
451.571
 11
-115.736
 21
451.696
  0
LINE
  8
0
 10
-115.736
 20
451.696
 11
-116.203
 21
451.881
  0
LINE
  8
0
 10
-116.203
 20
451.881
 11
-116.643
 21
452.123
  0
LINE
  8
0
 10
-116.643
 20
452.123
 11
-117.05
 21
452.418
  0
LINE
  8
0
 10
-117.05
 20
452.418
 11
-117.416
 21
452.762
  0
LINE
  8
0
 10
-117.416
 20
452.762
 11
-117.736
 21
453.149
  0
LINE
  8
0
 10
-117.736
 20
453.149
 11
-118.005
 21
453.573
  0
LINE
  8
0
 10
-118.005
 20
453.573
 11
-118.219
 21
454.028
  0
LINE
  8
0
 10
-118.219
 20
454.028
 11
-118.374
 21
454.505
  0
LINE
  8
0
 10
-118.374
 20
454.505
 11
-118.468
 21
454.999
  0
LINE
  8
0
 10
-118.468
 20
454.999
 11
-118.5
 21
455.5
  0
LINE
  8
0
 10
-118.5
 20
455.5
 11
-118.5
 21
534.5
  0
LINE
  8
0
 10
-118.5
 20
534.5
 11
-118.468
 21
535.001
  0
LINE
  8
0
 10
-118.468
 20
535.001
 11
-118.374
 21
535.495
  0
LINE
  8
0
 10
-118.374
 20
535.495
 11
-118.219
 21
535.972
  0
LINE
  8
0
 10
-118.219
 20
535.972
 11
-118.005
 21
536.427
  0
LINE
  8
0
 10
-118.005
 20
536.427
 11
-117.736
 21
536.851
  0
LINE
  8
0
 10
-117.736
 20
536.851
 11
-117.416
 21
537.238
  0
LINE
  8
0
 10
-117.416
 20
537.238
 11
-117.05
 21
537.582
  0
LINE
  8
0
 10
-117.05
 20
537.582
 11
-116.643
 21
537.877
  0
LINE
  8
0
 10
-116.643
 20
537.877
 11
-116.203
 21
538.119
  0
LINE
  8
0
 10
-116.203
 20
538.119
 11
-115.736
 21
538.304
  0
LINE
  8
0
 10
-115.736
 20
538.304
 11
-115.25
 21
538.429
  0
LINE
  8
0
 10
-115.25
 20
538.429
 11
-114.751
 21
538.492
  0
LINE
  8
0
 10
-114.751
 20
538.492
 11
114.751
 21
538.492
  0
LINE
  8
0
 10
114.751
 20
538.492
 11
115.25
 21
538.429
  0
LINE
  8
0
 10
115.25
 20
538.429
 11
115.736
 21
538.304
  0
LINE
  8
0
 10
115.736
 20
538.304
 11
116.203
 21
538.119
  0
LINE
  8
0
 10
116.203
 20
538.119
 11
116.643
 21
537.877
  0
LINE
  8
0
 10
116.643
 20
537.877
 11
117.05
 21
537.582
  0
LINE
  8
0
 10
117.05
 20
537.582
 11
117.416
 21
537.238
  0
LINE
  8
0
 10
117.416
 20
537.238
 11
117.736
 21
536.851
  0
LINE
  8
0
 10
117.736
 20
536.851
 11
118.005
 21
536.427
  0
LINE
  8
0
 10
118.005
 20
536.427
 11
118.219
 21
535.972
  0
LINE
  8
0
 10
118.219
 20
535.972
 11
118.374
 21
535.495
  0
LINE
  8
0
 10
118.374
 20
535.495
 11
118.468
 21
535.001
  0
LINE
  8
0
 10
118.468
 20
535.001
 11
118.5
 21
534.5
  0
LINE
  8
0
 10
118.5
 20
534.5
 11
118.5
 21
455.5
  0
LINE
  8
0
 10
118.5
 20
455.5
 11
118.468
 21
454.999
  0
LINE
  8
0
 10
118.468
 20
454.999
 11
118.374
 21
454.505
  0
LINE
  8
0
 10
118.374
 20
454.505
 11
118.219
 21
454.028
  0
LINE
  8
0
 10
118.219
 20
454.028
 11
118.005
 21
453.573
  0
LINE
  8
0
 10
118.005
 20
453.573
 11
117.736
 21
453.149
  0
LINE
  8
0
 10
117.736
 20
453.149
 11
117.416
 21
452.762
  0
LINE
  8
0
 10
117.416
 20
452.762
 11
117.05
 21
452.418
  0
LINE
  8
0
 10
117.05
 20
452.418
 11
116.643
 21
452.123
  0
LINE
  8
0
 10
116.643
 20
452.123
 11
116.203
 21
451.881
  0
LINE
  8
0
 10
116.203
 20
451.881
 11
115.736
 21
451.696
  0
LINE
  8
0
 10
115.736
 20
451.696
 11
115.25
 21
451.571
  0
LINE
  8
0
 10
115.25
 20
451.571
 11
114.751
 21
451.508
  0
LINE
  8
0
 10
114.751
 20
451.508
 11
-114.751
 21
451.508
  0
LINE
  8
0
 10
115.937
 20
351.089
 11
116.545
 21
351.245
  0
LINE
  8
0
 10
116.545
 20
351.245
 11
117.129
 21
351.476
  0
LINE
  8
0
 10
117.129
 20
351.476
 11
117.679
 21
351.778
  0
LINE
  8
0
 10
117.679
 20
351.778
 11
118.187
 21
352.147
  0
LINE
  8
0
 10
118.187
 20
352.147
 11
118.645
 21
352.577
  0
LINE
  8
0
 10
118.645
 20
352.577
 11
119.045
 21
353.061
  0
LINE
  8
0
 10
119.045
 20
353.061
 11
119.382
 21
353.591
  0
LINE
  8
0
 10
119.382
 20
353.591
 11
119.649
 21
354.159
  0
LINE
  8
0
 10
119.649
 20
354.159
 11
119.843
 21
354.757
  0
LINE
  8
0
 10
119.843
 20
354.757
 11
119.961
 21
355.373
  0
LINE
  8
0
 10
119.961
 20
355.373
 11
120
 21
356
  0
LINE
  8
0
 10
120
 20
356
 11
120
 21
436
  0
LINE
  8
0
 10
120
 20
436
 11
119.961
 21
436.627
  0
LINE
  8
0
 10
119.961
 20
436.627
 11
119.843
 21
437.243
  0
LINE
  8
0
 10
119.843
 20
437.243
 11
119.649
 21
437.841
  0
LINE
  8
0
 10
119.649
 20
437.841
 11
119.382
 21
438.409
  0
LINE
  8
0
 10
119.382
 20
438.409
 11
119.045
 21
438.939
  0
LINE
  8
0
 10
119.045
 20
438.939
 11
118.645
 21
439.423
  0
LINE
  8
0
 10
118.645
 20
439.423
 11
118.187
 21
439.853
  0
LINE
  8
0
 10
118.187
 20
439.853
 11
117.679
 21
440.222
  0
LINE
  8
0
 10
117.679
 20
440.222
 11
117.129
 21
440.524
  0
LINE
  8
0
 10
117.129
 20
440.524
 11
116.545
 21
440.755
  0
LINE
  8
0
 10
116.545
 20
440.755
 11
115.937
 21
440.911
  0
LINE
  8
0
 10
115.937
 20
440.911
 11
115.314
 21
440.99
  0
LINE
  8
0
 10
115.314
 20
440.99
 11
-115.314
 21
440.99
  0
LINE
  8
0
 10
-115.314
 20
440.99
 11
-115.937
 21
440.911
  0
LINE
  8
0
 10
-115.937
 20
440.911
 11
-116.545
 21
440.755
  0
LINE
  8
0
 10
-116.545
 20
440.755
 11
-117.129
 21
440.524
  0
LINE
  8
0
 10
-117.129
 20
440.524
 11
-117.679
 21
440.222
  0
LINE
  8
0
 10
-117.679
 20
440.222
 11
-118.187
 21
439.853
  0
LINE
  8
0
 10
-118.187
 20
439.853
 11
-118.5
 21
439.559
  0
LINE
  8
0
 10
-118.5
 20
439.559
 11
-118.5
 21
440.979
  0
LINE
  8
0
 10
-118.5
 20
440.979
 11
-121.5
 21
440.979
  0
LINE
  8
0
 10
-121.5
 20
440.979
 11
-121.5
 21
351.021
  0
LINE
  8
0
 10
-121.5
 20
351.021
 11
-118.5
 21
351.021
  0
LINE
  8
0
 10
-118.5
 20
351.021
 11
-118.5
 21
352.441
  0
LINE
  8
0
 10
-118.5
 20
352.441
 11
-118.187
 21
352.147
  0
LINE
  8
0
 10
-118.187
 20
352.147
 11
-117.679
 21
351.778
  0
LINE
  8
0
 10
-117.679
 20
351.778
 11
-117.129
 21
351.476
  0
LINE
  8
0
 10
-117.129
 20
351.476
 11
-116.545
 21
351.245
  0
LINE
  8
0
 10
-116.545
 20
351.245
 11
-115.937
 21
351.089
  0
LINE
  8
0
 10
-115.937
 20
351.089
 11
-115.314
 21
351.01
  0
LINE
  8
0
 10
-115.314
 20
351.01
 11
115.314
 21
351.01
  0
LINE
  8
0
 10
115.314
 20
351.01
 11
115.937
 21
351.089
  0
LINE
  8
0
 10
-114.695
 20
353.393
 11
-115.083
 21
353.442
  0
LINE
  8
0
 10
-115.083
 20
353.442
 11
-115.462
 21
353.539
  0
LINE
  8
0
 10
-115.462
 20
353.539
 11
-115.825
 21
353.683
  0
LINE
  8
0
 10
-115.825
 20
353.683
 11
-116.168
 21
353.872
  0
LINE
  8
0
 10
-116.168
 20
353.872
 11
-116.484
 21
354.101
  0
LINE
  8
0
 10
-116.484
 20
354.101
 11
-116.769
 21
354.369
  0
LINE
  8
0
 10
-116.769
 20
354.369
 11
-117.018
 21
354.67
  0
LINE
  8
0
 10
-117.018
 20
354.67
 11
-117.228
 21
355
  0
LINE
  8
0
 10
-117.228
 20
355
 11
-117.394
 21
355.354
  0
LINE
  8
0
 10
-117.394
 20
355.354
 11
-117.515
 21
355.726
  0
LINE
  8
0
 10
-117.515
 20
355.726
 11
-117.588
 21
356.11
  0
LINE
  8
0
 10
-117.588
 20
356.11
 11
-117.613
 21
356.5
  0
LINE
  8
0
 10
-117.613
 20
356.5
 11
-117.613
 21
435.5
  0
LINE
  8
0
 10
-117.613
 20
435.5
 11
-117.588
 21
435.89
  0
LINE
  8
0
 10
-117.588
 20
435.89
 11
-117.515
 21
436.274
  0
LINE
  8
0
 10
-117.515
 20
436.274
 11
-117.394
 21
436.646
  0
LINE
  8
0
 10
-117.394
 20
436.646
 11
-117.228
 21
437
  0
LINE
  8
0
 10
-117.228
 20
437
 11
-117.018
 21
437.33
  0
LINE
  8
0
 10
-117.018
 20
437.33
 11
-116.769
 21
437.631
  0
LINE
  8
0
 10
-116.769
 20
437.631
 11
-116.484
 21
437.899
  0
LINE
  8
0
 10
-116.484
 20
437.899
 11
-116.168
 21
438.128
  0
LINE
  8
0
 10
-116.168
 20
438.128
 11
-115.825
 21
438.317
  0
LINE
  8
0
 10
-115.825
 20
438.317
 11
-115.462
 21
438.461
  0
LINE
  8
0
 10
-115.462
 20
438.461
 11
-115.083
 21
438.558
  0
LINE
  8
0
 10
-115.083
 20
438.558
 11
-114.695
 21
438.607
  0
LINE
  8
0
 10
-114.695
 20
438.607
 11
114.695
 21
438.607
  0
LINE
  8
0
 10
114.695
 20
438.607
 11
115.083
 21
438.558
  0
LINE
  8
0
 10
115.083
 20
438.558
 11
115.462
 21
438.461
  0
LINE
  8
0
 10
115.462
 20
438.461
 11
115.825
 21
438.317
  0
LINE
  8
0
 10
115.825
 20
438.317
 11
116.168
 21
438.128
  0
LINE
  8
0
 10
116.168
 20
438.128
 11
116.484
 21
437.899
  0
LINE
  8
0
 10
116.484
 20
437.899
 11
116.769
 21
437.631
  0
LINE
  8
0
 10
116.769
 20
437.631
 11
117.018
 21
437.33
  0
LINE
  8
0
 10
117.018
 20
437.33
 11
117.228
 21
437
  0
LINE
  8
0
 10
117.228
 20
437
 11
117.394
 21
436.646
  0
LINE
  8
0
 10
117.394
 20
436.646
 11
117.515
 21
436.274
  0
LINE
  8
0
 10
117.515
 20
436.274
 11
117.588
 21
435.89
  0
LINE
  8
0
 10
117.588
 20
435.89
 11
117.613
 21
435.5
  0
LINE
  8
0
 10
117.613
 20
435.5
 11
117.613
 21
356.5
  0
LINE
  8
0
 10
117.613
 20
356.5
 11
117.588
 21
356.11
  0
LINE
  8
0
 10
117.588
 20
356.11
 11
117.515
 21
355.726
  0
LINE
  8
0
 10
117.515
 20
355.726
 11
117.394
 21
355.354
  0
LINE
  8
0
 10
117.394
 20
355.354
 11
117.228
 21
355
  0
LINE
  8
0
 10
117.228
 20
355
 11
117.018
 21
354.67
  0
LINE
  8
0
 10
117.018
 20
354.67
 11
116.769
 21
354.369
  0
LINE
  8
0
 10
116.769
 20
354.369
 11
116.484
 21
354.101
  0
LINE
  8
0
 10
116.484
 20
354.101
 11
116.168
 21
353.872
  0
LINE
  8
0
 10
116.168
 20
353.872
 11
115.825
 21
353.683
  0
LINE
  8
0
 10
115.825
 20
353.683
 11
115.462
 21
353.539
  0
LINE
  8
0
 10
115.462
 20
353.539
 11
115.083
 21
353.442
  0
LINE
  8
0
 10
115.083
 20
353.442
 11
114.695
 21
353.393
  0
LINE
  8
0
 10
114.695
 20
353.393
 11
-114.695
 21
353.393
  0
LINE
  8
0
 10
115.937
 20
252.089
 11
116.545
 21
252.245
  0
LINE
  8
0
 10
116.545
 20
252.245
 11
117.129
 21
252.476
  0
LINE
  8
0
 10
117.129
 20
252.476
 11
117.679
 21
252.778
  0
LINE
  8
0
 10
117.679
 20
252.778
 11
118.187
 21
253.147
  0
LINE
  8
0
 10
118.187
 20
253.147
 11
118.645
 21
253.577
  0
LINE
  8
0
 10
118.645
 20
253.577
 11
119.045
 21
254.061
  0
LINE
  8
0
 10
119.045
 20
254.061
 11
119.382
 21
254.591
  0
LINE
  8
0
 10
119.382
 20
254.591
 11
119.649
 21
255.159
  0
LINE
  8
0
 10
119.649
 20
255.159
 11
119.843
 21
255.757
  0
LINE
  8
0
 10
119.843
 20
255.757
 11
119.961
 21
256.373
  0
LINE
  8
0
 10
119.961
 20
256.373
 11
120
 21
257
  0
LINE
  8
0
 10
120
 20
257
 11
120
 21
337
  0
LINE
  8
0
 10
120
 20
337
 11
119.961
 21
337.627
  0
LINE
  8
0
 10
119.961
 20
337.627
 11
119.843
 21
338.243
  0
LINE
  8
0
 10
119.843
 20
338.243
 11
119.649
 21
338.841
  0
LINE
  8
0
 10
119.649
 20
338.841
 11
119.382
 21
339.409
  0
LINE
  8
0
 10
119.382
 20
339.409
 11
119.045
 21
339.939
  0
LINE
  8
0
 10
119.045
 20
339.939
 11
118.645
 21
340.423
  0
LINE
  8
0
 10
118.645
 20
340.423
 11
118.187
 21
340.853
  0
LINE
  8
0
 10
118.187
 20
340.853
 11
117.679
 21
341.222
  0
LINE
  8
0
 10
117.679
 20
341.222
 11
117.129
 21
341.524
  0
LINE
  8
0
 10
117.129
 20
341.524
 11
116.545
 21
341.755
  0
LINE
  8
0
 10
116.545
 20
341.755
 11
115.937
 21
341.911
  0
LINE
  8
0
 10
115.937
 20
341.911
 11
115.314
 21
341.99
  0
LINE
  8
0
 10
115.314
 20
341.99
 11
-115.314
 21
341.99
  0
LINE
  8
0
 10
-115.314
 20
341.99
 11
-115.937
 21
341.911
  0
LINE
  8
0
 10
-115.937
 20
341.911
 11
-116.545
 21
341.755
  0
LINE
  8
0
 10
-116.545
 20
341.755
 11
-117.129
 21
341.524
  0
LINE
  8
0
 10
-117.129
 20
341.524
 11
-117.679
 21
341.222
  0
LINE
  8
0
 10
-117.679
 20
341.222
 11
-118.187
 21
340.853
  0
LINE
  8
0
 10
-118.187
 20
340.853
 11
-118.5
 21
340.559
  0
LINE
  8
0
 10
-118.5
 20
340.559
 11
-118.5
 21
340.653
  0
LINE
  8
0
 10
-118.5
 20
340.653
 11
-121.5
 21
340.653
  0
LINE
  8
0
 10
-121.5
 20
340.653
 11
-121.5
 21
253.347
  0
LINE
  8
0
 10
-121.5
 20
253.347
 11
-118.5
 21
253.347
  0
LINE
  8
0
 10
-118.5
 20
253.347
 11
-118.5
 21
253.441
  0
LINE
  8
0
 10
-118.5
 20
253.441
 11
-118.187
 21
253.147
  0
LINE
  8
0
 10
-118.187
 20
253.147
 11
-117.679
 21
252.778
  0
LINE
  8
0
 10
-117.679
 20
252.778
 11
-117.129
 21
252.476
  0
LINE
  8
0
 10
-117.129
 20
252.476
 11
-116.545
 21
252.245
  0
LINE
  8
0
 10
-116.545
 20
252.245
 11
-115.937
 21
252.089
  0
LINE
  8
0
 10
-115.937
 20
252.089
 11
-115.314
 21
252.01
  0
LINE
  8
0
 10
-115.314
 20
252.01
 11
115.314
 21
252.01
  0
LINE
  8
0
 10
115.314
 20
252.01
 11
115.937
 21
252.089
  0
LINE
  8
0
 10
112.366
 20
332.369
 11
112.1
 21
332.403
  0
LINE
  8
0
 10
112.1
 20
332.403
 11
111.84
 21
332.469
  0
LINE
  8
0
 10
111.84
 20
332.469
 11
111.591
 21
332.568
  0
LINE
  8
0
 10
111.591
 20
332.568
 11
111.356
 21
332.697
  0
LINE
  8
0
 10
111.356
 20
332.697
 11
111.139
 21
332.855
  0
LINE
  8
0
 10
111.139
 20
332.855
 11
110.943
 21
333.038
  0
LINE
  8
0
 10
110.943
 20
333.038
 11
110.773
 21
333.245
  0
LINE
  8
0
 10
110.773
 20
333.245
 11
110.629
 21
333.471
  0
LINE
  8
0
 10
110.629
 20
333.471
 11
110.515
 21
333.714
  0
LINE
  8
0
 10
110.515
 20
333.714
 11
110.432
 21
333.969
  0
LINE
  8
0
 10
110.432
 20
333.969
 11
110.382
 21
334.232
  0
LINE
  8
0
 10
110.382
 20
334.232
 11
110.365
 21
334.5
  0
LINE
  8
0
 10
110.365
 20
334.5
 11
110.382
 21
334.768
  0
LINE
  8
0
 10
110.382
 20
334.768
 11
110.432
 21
335.031
  0
LINE
  8
0
 10
110.432
 20
335.031
 11
110.515
 21
335.286
  0
LINE
  8
0
 10
110.515
 20
335.286
 11
110.629
 21
335.529
  0
LINE
  8
0
 10
110.629
 20
335.529
 11
110.773
 21
335.755
  0
LINE
  8
0
 10
110.773
 20
335.755
 11
110.943
 21
335.962
  0
LINE
  8
0
 10
110.943
 20
335.962
 11
111.139
 21
336.145
  0
LINE
  8
0
 10
111.139
 20
336.145
 11
111.356
 21
336.303
  0
LINE
  8
0
 10
111.356
 20
336.303
 11
111.591
 21
336.432
  0
LINE
  8
0
 10
111.591
 20
336.432
 11
111.84
 21
336.531
  0
LINE
  8
0
 10
111.84
 20
336.531
 11
112.1
 21
336.597
  0
LINE
  8
0
 10
112.1
 20
336.597
 11
112.366
 21
336.631
  0
LINE
  8
0
 10
112.366
 20
336.631
 11
112.634
 21
336.631
  0
LINE
  8
0
 10
112.634
 20
336.631
 11
112.9
 21
336.597
  0
LINE
  8
0
 10
112.9
 20
336.597
 11
113.16
 21
336.531
  0
LINE
  8
0
 10
113.16
 20
336.531
 11
113.409
 21
336.432
  0
LINE
  8
0
 10
113.409
 20
336.432
 11
113.644
 21
336.303
  0
LINE
  8
0
 10
113.644
 20
336.303
 11
113.861
 21
336.145
  0
LINE
  8
0
 10
113.861
 20
336.145
 11
114.057
 21
335.962
  0
LINE
  8
0
 10
114.057
 20
335.962
 11
114.227
 21
335.755
  0
LINE
  8
0
 10
114.227
 20
335.755
 11
114.371
 21
335.529
  0
LINE
  8
0
 10
114.371
 20
335.529
 11
114.485
 21
335.286
  0
LINE
  8
0
 10
114.485
 20
335.286
 11
114.568
 21
335.031
  0
LINE
  8
0
 10
114.568
 20
335.031
 11
114.618
 21
334.768
  0
LINE
  8
0
 10
114.618
 20
334.768
 11
114.635
 21
334.5
  0
LINE
  8
0
 10
114.635
 20
334.5
 11
114.618
 21
334.232
  0
LINE
  8
0
 10
114.618
 20
334.232
 11
114.568
 21
333.969
  0
LINE
  8
0
 10
114.568
 20
333.969
 11
114.485
 21
333.714
  0
LINE
  8
0
 10
114.485
 20
333.714
 11
114.371
 21
333.471
  0
LINE
  8
0
 10
114.371
 20
333.471
 11
114.227
 21
333.245
  0
LINE
  8
0
 10
114.227
 20
333.245
 11
114.057
 21
333.038
  0
LINE
  8
0
 10
114.057
 20
333.038
 11
113.861
 21
332.855
  0
LINE
  8
0
 10
113.861
 20
332.855
 11
113.644
 21
332.697
  0
LINE
  8
0
 10
113.644
 20
332.697
 11
113.409
 21
332.568
  0
LINE
  8
0
 10
113.409
 20
332.568
 11
113.16
 21
332.469
  0
LINE
  8
0
 10
113.16
 20
332.469
 11
112.9
 21
332.403
  0
LINE
  8
0
 10
112.9
 20
332.403
 11
112.634
 21
332.369
  0
LINE
  8
0
 10
112.634
 20
332.369
 11
112.366
 21
332.369
  0
LINE
  8
0
 10
-112.634
 20
332.369
 11
-112.9
 21
332.403
  0
LINE
  8
0
 10
-112.9
 20
332.403
 11
-113.16
 21
332.469
  0
LINE
  8
0
 10
-113.16
 20
332.469
 11
-113.409
 21
332.568
  0
LINE
  8
0
 10
-113.409
 20
332.568
 11
-113.644
 21
332.697
  0
LINE
  8
0
 10
-113.644
 20
332.697
 11
-113.861
 21
332.855
  0
LINE
  8
0
 10
-113.861
 20
332.855
 11
-114.057
 21
333.038
  0
LINE
  8
0
 10
-114.057
 20
333.038
 11
-114.227
 21
333.245
  0
LINE
  8
0
 10
-114.227
 20
333.245
 11
-114.371
 21
333.471
  0
LINE
  8
0
 10
-114.371
 20
333.471
 11
-114.485
 21
333.714
  0
LINE
  8
0
 10
-114.485
 20
333.714
 11
-114.568
 21
333.969
  0
LINE
  8
0
 10
-114.568
 20
333.969
 11
-114.618
 21
334.232
  0
LINE
  8
0
 10
-114.618
 20
334.232
 11
-114.635
 21
334.5
  0
LINE
  8
0
 10
-114.635
 20
334.5
 11
-114.618
 21
334.768
  0
LINE
  8
0
 10
-114.618
 20
334.768
 11
-114.568
 21
335.031
  0
LINE
  8
0
 10
-114.568
 20
335.031
 11
-114.485
 21
335.286
  0
LINE
  8
0
 10
-114.485
 20
335.286
 11
-114.371
 21
335.529
  0
LINE
  8
0
 10
-114.371
 20
335.529
 11
-114.227
 21
335.755
  0
LINE
  8
0
 10
-114.227
 20
335.755
 11
-114.057
 21
335.962
  0
LINE
  8
0
 10
-114.057
 20
335.962
 11
-113.861
 21
336.145
  0
LINE
  8
0
 10
-113.861
 20
336.145
 11
-113.644
 21
336.303
  0
LINE
  8
0
 10
-113.644
 20
336.303
 11
-113.409
 21
336.432
  0
LINE
  8
0
 10
-113.409
 20
336.432
 11
-113.16
 21
336.531
  0
LINE
  8
0
 10
-113.16
 20
336.531
 11
-112.9
 21
336.597
  0
LINE
  8
0
 10
-112.9
 20
336.597
 11
-112.634
 21
336.631
  0
LINE
  8
0
 10
-112.634
 20
336.631
 11
-112.366
 21
336.631
  0
LINE
  8
0
 10
-112.366
 20
336.631
 11
-112.1
 21
336.597
  0
LINE
  8
0
 10
-112.1
 20
336.597
 11
-111.84
 21
336.531
  0
LINE
  8
0
 10
-111.84
 20
336.531
 11
-111.591
 21
336.432
  0
LINE
  8
0
 10
-111.591
 20
336.432
 11
-111.356
 21
336.303
  0
LINE
  8
0
 10
-111.356
 20
336.303
 11
-111.139
 21
336.145
  0
LINE
  8
0
 10
-111.139
 20
336.145
 11
-110.943
 21
335.962
  0
LINE
  8
0
 10
-110.943
 20
335.962
 11
-110.773
 21
335.755
  0
LINE
  8
0
 10
-110.773
 20
335.755
 11
-110.629
 21
335.529
  0
LINE
  8
0
 10
-110.629
 20
335.529
 11
-110.515
 21
335.286
  0
LINE
  8
0
 10
-110.515
 20
335.286
 11
-110.432
 21
335.031
  0
LINE
  8
0
 10
-110.432
 20
335.031
 11
-110.382
 21
334.768
  0
LINE
  8
0
 10
-110.382
 20
334.768
 11
-110.365
 21
334.5
  0
LINE
  8
0
 10
-110.365
 20
334.5
 11
-110.382
 21
334.232
  0
LINE
  8
0
 10
-110.382
 20
334.232
 11
-110.432
 21
333.969
  0
LINE
  8
0
 10
-110.432
 20
333.969
 11
-110.515
 21
333.714
  0
LINE
  8
0
 10
-110.515
 20
333.714
 11
-110.629
 21
333.471
  0
LINE
  8
0
 10
-110.629
 20
333.471
 11
-110.773
 21
333.245
  0
LINE
  8
0
 10
-110.773
 20
333.245
 11
-110.943
 21
333.038
  0
LINE
  8
0
 10
-110.943
 20
333.038
 11
-111.139
 21
332.855
  0
LINE
  8
0
 10
-111.139
 20
332.855
 11
-111.356
 21
332.697
  0
LINE
  8
0
 10
-111.356
 20
332.697
 11
-111.591
 21
332.568
  0
LINE
  8
0
 10
-111.591
 20
332.568
 11
-111.84
 21
332.469
  0
LINE
  8
0
 10
-111.84
 20
332.469
 11
-112.1
 21
332.403
  0
LINE
  8
0
 10
-112.1
 20
332.403
 11
-112.366
 21
332.369
  0
LINE
  8
0
 10
-112.366
 20
332.369
 11
-112.634
 21
332.369
  0
LINE
  8
0
 10
112.366
 20
257.369
 11
112.1
 21
257.403
  0
LINE
  8
0
 10
112.1
 20
257.403
 11
111.84
 21
257.469
  0
LINE
  8
0
 10
111.84
 20
257.469
 11
111.591
 21
257.568
  0
LINE
  8
0
 10
111.591
 20
257.568
 11
111.356
 21
257.697
  0
LINE
  8
0
 10
111.356
 20
257.697
 11
111.139
 21
257.855
  0
LINE
  8
0
 10
111.139
 20
257.855
 11
110.943
 21
258.038
  0
LINE
  8
0
 10
110.943
 20
258.038
 11
110.773
 21
258.245
  0
LINE
  8
0
 10
110.773
 20
258.245
 11
110.629
 21
258.471
  0
LINE
  8
0
 10
110.629
 20
258.471
 11
110.515
 21
258.714
  0
LINE
  8
0
 10
110.515
 20
258.714
 11
110.432
 21
258.969
  0
LINE
  8
0
 10
110.432
 20
258.969
 11
110.382
 21
259.232
  0
LINE
  8
0
 10
110.382
 20
259.232
 11
110.365
 21
259.5
  0
LINE
  8
0
 10
110.365
 20
259.5
 11
110.382
 21
259.768
  0
LINE
  8
0
 10
110.382
 20
259.768
 11
110.432
 21
260.031
  0
LINE
  8
0
 10
110.432
 20
260.031
 11
110.515
 21
260.286
  0
LINE
  8
0
 10
110.515
 20
260.286
 11
110.629
 21
260.529
  0
LINE
  8
0
 10
110.629
 20
260.529
 11
110.773
 21
260.755
  0
LINE
  8
0
 10
110.773
 20
260.755
 11
110.943
 21
260.962
  0
LINE
  8
0
 10
110.943
 20
260.962
 11
111.139
 21
261.145
  0
LINE
  8
0
 10
111.139
 20
261.145
 11
111.356
 21
261.303
  0
LINE
  8
0
 10
111.356
 20
261.303
 11
111.591
 21
261.432
  0
LINE
  8
0
 10
111.591
 20
261.432
 11
111.84
 21
261.531
  0
LINE
  8
0
 10
111.84
 20
261.531
 11
112.1
 21
261.597
  0
LINE
  8
0
 10
112.1
 20
261.597
 11
112.366
 21
261.631
  0
LINE
  8
0
 10
112.366
 20
261.631
 11
112.634
 21
261.631
  0
LINE
  8
0
 10
112.634
 20
261.631
 11
112.9
 21
261.597
  0
LINE
  8
0
 10
112.9
 20
261.597
 11
113.16
 21
261.531
  0
LINE
  8
0
 10
113.16
 20
261.531
 11
113.409
 21
261.432
  0
LINE
  8
0
 10
113.409
 20
261.432
 11
113.644
 21
261.303
  0
LINE
  8
0
 10
113.644
 20
261.303
 11
113.861
 21
261.145
  0
LINE
  8
0
 10
113.861
 20
261.145
 11
114.057
 21
260.962
  0
LINE
  8
0
 10
114.057
 20
260.962
 11
114.227
 21
260.755
  0
LINE
  8
0
 10
114.227
 20
260.755
 11
114.371
 21
260.529
  0
LINE
  8
0
 10
114.371
 20
260.529
 11
114.485
 21
260.286
  0
LINE
  8
0
 10
114.485
 20
260.286
 11
114.568
 21
260.031
  0
LINE
  8
0
 10
114.568
 20
260.031
 11
114.618
 21
259.768
  0
LINE
  8
0
 10
114.618
 20
259.768
 11
114.635
 21
259.5
  0
LINE
  8
0
 10
114.635
 20
259.5
 11
114.618
 21
259.232
  0
LINE
  8
0
 10
114.618
 20
259.232
 11
114.568
 21
258.969
  0
LINE
  8
0
 10
114.568
 20
258.969
 11
114.485
 21
258.714
  0
LINE
  8
0
 10
114.485
 20
258.714
 11
114.371
 21
258.471
  0
LINE
  8
0
 10
114.371
 20
258.471
 11
114.227
 21
258.245
  0
LINE
  8
0
 10
114.227
 20
258.245
 11
114.057
 21
258.038
  0
LINE
  8
0
 10
114.057
 20
258.038
 11
113.861
 21
257.855
  0
LINE
  8
0
 10
113.861
 20
257.855
 11
113.644
 21
257.697
  0
LINE
  8
0
 10
113.644
 20
257.697
 11
113.409
 21
257.568
  0
LINE
  8
0
 10
113.409
 20
257.568
 11
113.16
 21
257.469
  0
LINE
  8
0
 10
113.16
 20
257.469
 11
112.9
 21
257.403
  0
LINE
  8
0
 10
112.9
 20
257.403
 11
112.634
 21
257.369
  0
LINE
  8
0
 10
112.634
 20
257.369
 11
112.366
 21
257.369
  0
LINE
  8
0
 10
-112.634
 20
257.369
 11
-112.9
 21
257.403
  0
LINE
  8
0
 10
-112.9
 20
257.403
 11
-113.16
 21
257.469
  0
LINE
  8
0
 10
-113.16
 20
257.469
 11
-113.409
 21
257.568
  0
LINE
  8
0
 10
-113.409
 20
257.568
 11
-113.644
 21
257.697
  0
LINE
  8
0
 10
-113.644
 20
257.697
 11
-113.861
 21
257.855
  0
LINE
  8
0
 10
-113.861
 20
257.855
 11
-114.057
 21
258.038
  0
LINE
  8
0
 10
-114.057
 20
258.038
 11
-114.227
 21
258.245
  0
LINE
  8
0
 10
-114.227
 20
258.245
 11
-114.371
 21
258.471
  0
LINE
  8
0
 10
-114.371
 20
258.471
 11
-114.485
 21
258.714
  0
LINE
  8
0
 10
-114.485
 20
258.714
 11
-114.568
 21
258.969
  0
LINE
  8
0
 10
-114.568
 20
258.969
 11
-114.618
 21
259.232
  0
LINE
  8
0
 10
-114.618
 20
259.232
 11
-114.635
 21
259.5
  0
LINE
  8
0
 10
-114.635
 20
259.5
 11
-114.618
 21
259.768
  0
LINE
  8
0
 10
-114.618
 20
259.768
 11
-114.568
 21
260.031
  0
LINE
  8
0
 10
-114.568
 20
260.031
 11
-114.485
 21
260.286
  0
LINE
  8
0
 10
-114.485
 20
260.286
 11
-114.371
 21
260.529
  0
LINE
  8
0
 10
-114.371
 20
260.529
 11
-114.227
 21
260.755
  0
LINE
  8
0
 10
-114.227
 20
260.755
 11
-114.057
 21
260.962
  0
LINE
  8
0
 10
-114.057
 20
260.962
 11
-113.861
 21
261.145
  0
LINE
  8
0
 10
-113.861
 20
261.145
 11
-113.644
 21
261.303
  0
LINE
  8
0
 10
-113.644
 20
261.303
 11
-113.409
 21
261.432
  0
LINE
  8
0
 10
-113.409
 20
261.432
 11
-113.16
 21
261.531
  0
LINE
  8
0
 10
-113.16
 20
261.531
 11
-112.9
 21
261.597
  0
LINE
  8
0
 10
-112.9
 20
261.597
 11
-112.634
 21
261.631
  0
LINE
  8
0
 10
-112.634
 20
261.631
 11
-112.366
 21
261.631
  0
LINE
  8
0
 10
-112.366
 20
261.631
 11
-112.1
 21
261.597
  0
LINE
  8
0
 10
-112.1
 20
261.597
 11
-111.84
 21
261.531
  0
LINE
  8
0
 10
-111.84
 20
261.531
 11
-111.591
 21
261.432
  0
LINE
  8
0
 10
-111.591
 20
261.432
 11
-111.356
 21
261.303
  0
LINE
  8
0
 10
-111.356
 20
261.303
 11
-111.139
 21
261.145
  0
LINE
  8
0
 10
-111.139
 20
261.145
 11
-110.943
 21
260.962
  0
LINE
  8
0
 10
-110.943
 20
260.962
 11
-110.773
 21
260.755
  0
LINE
  8
0
 10
-110.773
 20
260.755
 11
-110.629
 21
260.529
  0
LINE
  8
0
 10
-110.629
 20
260.529
 11
-110.515
 21
260.286
  0
LINE
  8
0
 10
-110.515
 20
260.286
 11
-110.432
 21
260.031
  0
LINE
  8
0
 10
-110.432
 20
260.031
 11
-110.382
 21
259.768
  0
LINE
  8
0
 10
-110.382
 20
259.768
 11
-110.365
 21
259.5
  0
LINE
  8
0
 10
-110.365
 20
259.5
 11
-110.382
 21
259.232
  0
LINE
  8
0
 10
-110.382
 20
259.232
 11
-110.432
 21
258.969
  0
LINE
  8
0
 10
-110.432
 20
258.969
 11
-110.515
 21
258.714
  0
LINE
  8
0
 10
-110.515
 20
258.714
 11
-110.629
 21
258.471
  0
LINE
  8
0
 10
-110.629
 20
258.471
 11
-110.773
 21
258.245
  0
LINE
  8
0
 10
-110.773
 20
258.245
 11
-110.943
 21
258.038
  0
LINE
  8
0
 10
-110.943
 20
258.038
 11
-111.139
 21
257.855
  0
LINE
  8
0
 10
-111.139
 20
257.855
 11
-111.356
 21
257.697
  0
LINE
  8
0
 10
-111.356
 20
257.697
 11
-111.591
 21
257.568
  0
LINE
  8
0
 10
-111.591
 20
257.568
 11
-111.84
 21
257.469
  0
LINE
  8
0
 10
-111.84
 20
257.469
 11
-112.1
 21
257.403
  0
LINE
  8
0
 10
-112.1
 20
257.403
 11
-112.366
 21
257.369
  0
LINE
  8
0
 10
-112.366
 20
257.369
 11
-112.634
 21
257.369
  0
ENDSEC
  0
SECTION
  2
OBJECTS
  0
DICTIONARY
  0
ENDSEC
  0
EOF
