  0
SECTION
  2
BLOCKS
  0
ENDSEC
  0
SECTION
  2
ENTITIES
  0
LINE
  8
0
 10
138.437
 20
1374.09
 11
139.045
 21
1374.24
  0
LINE
  8
0
 10
139.045
 20
1374.24
 11
139.629
 21
1374.48
  0
LINE
  8
0
 10
139.629
 20
1374.48
 11
140.179
 21
1374.78
  0
LINE
  8
0
 10
140.179
 20
1374.78
 11
140.687
 21
1375.15
  0
LINE
  8
0
 10
140.687
 20
1375.15
 11
141.145
 21
1375.58
  0
LINE
  8
0
 10
141.145
 20
1375.58
 11
141.545
 21
1376.06
  0
LINE
  8
0
 10
141.545
 20
1376.06
 11
141.882
 21
1376.59
  0
LINE
  8
0
 10
141.882
 20
1376.59
 11
142.149
 21
1377.16
  0
LINE
  8
0
 10
142.149
 20
1377.16
 11
142.343
 21
1377.76
  0
LINE
  8
0
 10
142.343
 20
1377.76
 11
142.461
 21
1378.37
  0
LINE
  8
0
 10
142.461
 20
1378.37
 11
142.5
 21
1379
  0
LINE
  8
0
 10
142.5
 20
1379
 11
142.5
 21
1609
  0
LINE
  8
0
 10
142.5
 20
1609
 11
142.461
 21
1609.63
  0
LINE
  8
0
 10
142.461
 20
1609.63
 11
142.343
 21
1610.24
  0
LINE
  8
0
 10
142.343
 20
1610.24
 11
142.149
 21
1610.84
  0
LINE
  8
0
 10
142.149
 20
1610.84
 11
141.882
 21
1611.41
  0
LINE
  8
0
 10
141.882
 20
1611.41
 11
141.545
 21
1611.94
  0
LINE
  8
0
 10
141.545
 20
1611.94
 11
141.145
 21
1612.42
  0
LINE
  8
0
 10
141.145
 20
1612.42
 11
140.687
 21
1612.85
  0
LINE
  8
0
 10
140.687
 20
1612.85
 11
140.179
 21
1613.22
  0
LINE
  8
0
 10
140.179
 20
1613.22
 11
139.629
 21
1613.52
  0
LINE
  8
0
 10
139.629
 20
1613.52
 11
139.045
 21
1613.76
  0
LINE
  8
0
 10
139.045
 20
1613.76
 11
138.437
 21
1613.91
  0
LINE
  8
0
 10
138.437
 20
1613.91
 11
137.814
 21
1613.99
  0
LINE
  8
0
 10
137.814
 20
1613.99
 11
-137.814
 21
1613.99
  0
LINE
  8
0
 10
-137.814
 20
1613.99
 11
-138.437
 21
1613.91
  0
LINE
  8
0
 10
-138.437
 20
1613.91
 11
-139.045
 21
1613.76
  0
LINE
  8
0
 10
-139.045
 20
1613.76
 11
-139.629
 21
1613.52
  0
LINE
  8
0
 10
-139.629
 20
1613.52
 11
-140.179
 21
1613.22
  0
LINE
  8
0
 10
-140.179
 20
1613.22
 11
-140.687
 21
1612.85
  0
LINE
  8
0
 10
-140.687
 20
1612.85
 11
-141.145
 21
1612.42
  0
LINE
  8
0
 10
-141.145
 20
1612.42
 11
-141.545
 21
1611.94
  0
LINE
  8
0
 10
-141.545
 20
1611.94
 11
-141.882
 21
1611.41
  0
LINE
  8
0
 10
-141.882
 20
1611.41
 11
-142.149
 21
1610.84
  0
LINE
  8
0
 10
-142.149
 20
1610.84
 11
-142.343
 21
1610.24
  0
LINE
  8
0
 10
-142.343
 20
1610.24
 11
-142.461
 21
1609.63
  0
LINE
  8
0
 10
-142.461
 20
1609.63
 11
-142.5
 21
1609
  0
LINE
  8
0
 10
-142.5
 20
1609
 11
-142.5
 21
1379
  0
LINE
  8
0
 10
-142.5
 20
1379
 11
-142.461
 21
1378.37
  0
LINE
  8
0
 10
-142.461
 20
1378.37
 11
-142.343
 21
1377.76
  0
LINE
  8
0
 10
-142.343
 20
1377.76
 11
-142.149
 21
1377.16
  0
LINE
  8
0
 10
-142.149
 20
1377.16
 11
-141.882
 21
1376.59
  0
LINE
  8
0
 10
-141.882
 20
1376.59
 11
-141.545
 21
1376.06
  0
LINE
  8
0
 10
-141.545
 20
1376.06
 11
-141.145
 21
1375.58
  0
LINE
  8
0
 10
-141.145
 20
1375.58
 11
-140.687
 21
1375.15
  0
LINE
  8
0
 10
-140.687
 20
1375.15
 11
-140.179
 21
1374.78
  0
LINE
  8
0
 10
-140.179
 20
1374.78
 11
-139.629
 21
1374.48
  0
LINE
  8
0
 10
-139.629
 20
1374.48
 11
-139.045
 21
1374.24
  0
LINE
  8
0
 10
-139.045
 20
1374.24
 11
-138.437
 21
1374.09
  0
LINE
  8
0
 10
-138.437
 20
1374.09
 11
-137.814
 21
1374.01
  0
LINE
  8
0
 10
-137.814
 20
1374.01
 11
137.814
 21
1374.01
  0
LINE
  8
0
 10
137.814
 20
1374.01
 11
138.437
 21
1374.09
  0
LINE
  8
0
 10
-137.548
 20
1374.51
 11
-138.14
 21
1374.58
  0
LINE
  8
0
 10
-138.14
 20
1374.58
 11
-138.718
 21
1374.73
  0
LINE
  8
0
 10
-138.718
 20
1374.73
 11
-139.272
 21
1374.95
  0
LINE
  8
0
 10
-139.272
 20
1374.95
 11
-139.795
 21
1375.24
  0
LINE
  8
0
 10
-139.795
 20
1375.24
 11
-140.278
 21
1375.59
  0
LINE
  8
0
 10
-140.278
 20
1375.59
 11
-140.713
 21
1376
  0
LINE
  8
0
 10
-140.713
 20
1376
 11
-141.093
 21
1376.46
  0
LINE
  8
0
 10
-141.093
 20
1376.46
 11
-141.412
 21
1376.96
  0
LINE
  8
0
 10
-141.412
 20
1376.96
 11
-141.666
 21
1377.5
  0
LINE
  8
0
 10
-141.666
 20
1377.5
 11
-141.851
 21
1378.07
  0
LINE
  8
0
 10
-141.851
 20
1378.07
 11
-141.963
 21
1378.65
  0
LINE
  8
0
 10
-141.963
 20
1378.65
 11
-142
 21
1379.25
  0
LINE
  8
0
 10
-142
 20
1379.25
 11
-142
 21
1608.75
  0
LINE
  8
0
 10
-142
 20
1608.75
 11
-141.963
 21
1609.35
  0
LINE
  8
0
 10
-141.963
 20
1609.35
 11
-141.851
 21
1609.93
  0
LINE
  8
0
 10
-141.851
 20
1609.93
 11
-141.666
 21
1610.5
  0
LINE
  8
0
 10
-141.666
 20
1610.5
 11
-141.412
 21
1611.04
  0
LINE
  8
0
 10
-141.412
 20
1611.04
 11
-141.093
 21
1611.54
  0
LINE
  8
0
 10
-141.093
 20
1611.54
 11
-140.713
 21
1612
  0
LINE
  8
0
 10
-140.713
 20
1612
 11
-140.278
 21
1612.41
  0
LINE
  8
0
 10
-140.278
 20
1612.41
 11
-139.795
 21
1612.76
  0
LINE
  8
0
 10
-139.795
 20
1612.76
 11
-139.272
 21
1613.05
  0
LINE
  8
0
 10
-139.272
 20
1613.05
 11
-138.718
 21
1613.27
  0
LINE
  8
0
 10
-138.718
 20
1613.27
 11
-138.14
 21
1613.42
  0
LINE
  8
0
 10
-138.14
 20
1613.42
 11
-137.548
 21
1613.49
  0
LINE
  8
0
 10
-137.548
 20
1613.49
 11
137.548
 21
1613.49
  0
LINE
  8
0
 10
137.548
 20
1613.49
 11
138.14
 21
1613.42
  0
LINE
  8
0
 10
138.14
 20
1613.42
 11
138.718
 21
1613.27
  0
LINE
  8
0
 10
138.718
 20
1613.27
 11
139.272
 21
1613.05
  0
LINE
  8
0
 10
139.272
 20
1613.05
 11
139.795
 21
1612.76
  0
LINE
  8
0
 10
139.795
 20
1612.76
 11
140.278
 21
1612.41
  0
LINE
  8
0
 10
140.278
 20
1612.41
 11
140.713
 21
1612
  0
LINE
  8
0
 10
140.713
 20
1612
 11
141.093
 21
1611.54
  0
LINE
  8
0
 10
141.093
 20
1611.54
 11
141.412
 21
1611.04
  0
LINE
  8
0
 10
141.412
 20
1611.04
 11
141.666
 21
1610.5
  0
LINE
  8
0
 10
141.666
 20
1610.5
 11
141.851
 21
1609.93
  0
LINE
  8
0
 10
141.851
 20
1609.93
 11
141.963
 21
1609.35
  0
LINE
  8
0
 10
141.963
 20
1609.35
 11
142
 21
1608.75
  0
LINE
  8
0
 10
142
 20
1608.75
 11
142
 21
1379.25
  0
LINE
  8
0
 10
142
 20
1379.25
 11
141.963
 21
1378.65
  0
LINE
  8
0
 10
141.963
 20
1378.65
 11
141.851
 21
1378.07
  0
LINE
  8
0
 10
141.851
 20
1378.07
 11
141.666
 21
1377.5
  0
LINE
  8
0
 10
141.666
 20
1377.5
 11
141.412
 21
1376.96
  0
LINE
  8
0
 10
141.412
 20
1376.96
 11
141.093
 21
1376.46
  0
LINE
  8
0
 10
141.093
 20
1376.46
 11
140.713
 21
1376
  0
LINE
  8
0
 10
140.713
 20
1376
 11
140.278
 21
1375.59
  0
LINE
  8
0
 10
140.278
 20
1375.59
 11
139.795
 21
1375.24
  0
LINE
  8
0
 10
139.795
 20
1375.24
 11
139.272
 21
1374.95
  0
LINE
  8
0
 10
139.272
 20
1374.95
 11
138.718
 21
1374.73
  0
LINE
  8
0
 10
138.718
 20
1374.73
 11
138.14
 21
1374.58
  0
LINE
  8
0
 10
138.14
 20
1374.58
 11
137.548
 21
1374.51
  0
LINE
  8
0
 10
137.548
 20
1374.51
 11
-137.548
 21
1374.51
  0
LINE
  8
0
 10
138.437
 20
1125.09
 11
139.045
 21
1125.24
  0
LINE
  8
0
 10
139.045
 20
1125.24
 11
139.629
 21
1125.48
  0
LINE
  8
0
 10
139.629
 20
1125.48
 11
140.179
 21
1125.78
  0
LINE
  8
0
 10
140.179
 20
1125.78
 11
140.687
 21
1126.15
  0
LINE
  8
0
 10
140.687
 20
1126.15
 11
141.145
 21
1126.58
  0
LINE
  8
0
 10
141.145
 20
1126.58
 11
141.545
 21
1127.06
  0
LINE
  8
0
 10
141.545
 20
1127.06
 11
141.882
 21
1127.59
  0
LINE
  8
0
 10
141.882
 20
1127.59
 11
142.149
 21
1128.16
  0
LINE
  8
0
 10
142.149
 20
1128.16
 11
142.343
 21
1128.76
  0
LINE
  8
0
 10
142.343
 20
1128.76
 11
142.461
 21
1129.37
  0
LINE
  8
0
 10
142.461
 20
1129.37
 11
142.5
 21
1130
  0
LINE
  8
0
 10
142.5
 20
1130
 11
142.5
 21
1360
  0
LINE
  8
0
 10
142.5
 20
1360
 11
142.461
 21
1360.63
  0
LINE
  8
0
 10
142.461
 20
1360.63
 11
142.343
 21
1361.24
  0
LINE
  8
0
 10
142.343
 20
1361.24
 11
142.149
 21
1361.84
  0
LINE
  8
0
 10
142.149
 20
1361.84
 11
141.882
 21
1362.41
  0
LINE
  8
0
 10
141.882
 20
1362.41
 11
141.545
 21
1362.94
  0
LINE
  8
0
 10
141.545
 20
1362.94
 11
141.145
 21
1363.42
  0
LINE
  8
0
 10
141.145
 20
1363.42
 11
140.687
 21
1363.85
  0
LINE
  8
0
 10
140.687
 20
1363.85
 11
140.179
 21
1364.22
  0
LINE
  8
0
 10
140.179
 20
1364.22
 11
139.629
 21
1364.52
  0
LINE
  8
0
 10
139.629
 20
1364.52
 11
139.045
 21
1364.76
  0
LINE
  8
0
 10
139.045
 20
1364.76
 11
138.437
 21
1364.91
  0
LINE
  8
0
 10
138.437
 20
1364.91
 11
137.814
 21
1364.99
  0
LINE
  8
0
 10
137.814
 20
1364.99
 11
-137.814
 21
1364.99
  0
LINE
  8
0
 10
-137.814
 20
1364.99
 11
-138.437
 21
1364.91
  0
LINE
  8
0
 10
-138.437
 20
1364.91
 11
-139.045
 21
1364.76
  0
LINE
  8
0
 10
-139.045
 20
1364.76
 11
-139.629
 21
1364.52
  0
LINE
  8
0
 10
-139.629
 20
1364.52
 11
-140.179
 21
1364.22
  0
LINE
  8
0
 10
-140.179
 20
1364.22
 11
-140.687
 21
1363.85
  0
LINE
  8
0
 10
-140.687
 20
1363.85
 11
-141.145
 21
1363.42
  0
LINE
  8
0
 10
-141.145
 20
1363.42
 11
-141.545
 21
1362.94
  0
LINE
  8
0
 10
-141.545
 20
1362.94
 11
-141.882
 21
1362.41
  0
LINE
  8
0
 10
-141.882
 20
1362.41
 11
-142.149
 21
1361.84
  0
LINE
  8
0
 10
-142.149
 20
1361.84
 11
-142.343
 21
1361.24
  0
LINE
  8
0
 10
-142.343
 20
1361.24
 11
-142.461
 21
1360.63
  0
LINE
  8
0
 10
-142.461
 20
1360.63
 11
-142.5
 21
1360
  0
LINE
  8
0
 10
-142.5
 20
1360
 11
-142.5
 21
1130
  0
LINE
  8
0
 10
-142.5
 20
1130
 11
-142.461
 21
1129.37
  0
LINE
  8
0
 10
-142.461
 20
1129.37
 11
-142.343
 21
1128.76
  0
LINE
  8
0
 10
-142.343
 20
1128.76
 11
-142.149
 21
1128.16
  0
LINE
  8
0
 10
-142.149
 20
1128.16
 11
-141.882
 21
1127.59
  0
LINE
  8
0
 10
-141.882
 20
1127.59
 11
-141.545
 21
1127.06
  0
LINE
  8
0
 10
-141.545
 20
1127.06
 11
-141.145
 21
1126.58
  0
LINE
  8
0
 10
-141.145
 20
1126.58
 11
-140.687
 21
1126.15
  0
LINE
  8
0
 10
-140.687
 20
1126.15
 11
-140.179
 21
1125.78
  0
LINE
  8
0
 10
-140.179
 20
1125.78
 11
-139.629
 21
1125.48
  0
LINE
  8
0
 10
-139.629
 20
1125.48
 11
-139.045
 21
1125.24
  0
LINE
  8
0
 10
-139.045
 20
1125.24
 11
-138.437
 21
1125.09
  0
LINE
  8
0
 10
-138.437
 20
1125.09
 11
-137.814
 21
1125.01
  0
LINE
  8
0
 10
-137.814
 20
1125.01
 11
137.814
 21
1125.01
  0
LINE
  8
0
 10
137.814
 20
1125.01
 11
138.437
 21
1125.09
  0
LINE
  8
0
 10
-137.548
 20
1125.51
 11
-138.14
 21
1125.58
  0
LINE
  8
0
 10
-138.14
 20
1125.58
 11
-138.718
 21
1125.73
  0
LINE
  8
0
 10
-138.718
 20
1125.73
 11
-139.272
 21
1125.95
  0
LINE
  8
0
 10
-139.272
 20
1125.95
 11
-139.795
 21
1126.24
  0
LINE
  8
0
 10
-139.795
 20
1126.24
 11
-140.278
 21
1126.59
  0
LINE
  8
0
 10
-140.278
 20
1126.59
 11
-140.713
 21
1127
  0
LINE
  8
0
 10
-140.713
 20
1127
 11
-141.093
 21
1127.46
  0
LINE
  8
0
 10
-141.093
 20
1127.46
 11
-141.412
 21
1127.96
  0
LINE
  8
0
 10
-141.412
 20
1127.96
 11
-141.666
 21
1128.5
  0
LINE
  8
0
 10
-141.666
 20
1128.5
 11
-141.851
 21
1129.07
  0
LINE
  8
0
 10
-141.851
 20
1129.07
 11
-141.963
 21
1129.65
  0
LINE
  8
0
 10
-141.963
 20
1129.65
 11
-142
 21
1130.25
  0
LINE
  8
0
 10
-142
 20
1130.25
 11
-142
 21
1359.75
  0
LINE
  8
0
 10
-142
 20
1359.75
 11
-141.963
 21
1360.35
  0
LINE
  8
0
 10
-141.963
 20
1360.35
 11
-141.851
 21
1360.93
  0
LINE
  8
0
 10
-141.851
 20
1360.93
 11
-141.666
 21
1361.5
  0
LINE
  8
0
 10
-141.666
 20
1361.5
 11
-141.412
 21
1362.04
  0
LINE
  8
0
 10
-141.412
 20
1362.04
 11
-141.093
 21
1362.54
  0
LINE
  8
0
 10
-141.093
 20
1362.54
 11
-140.713
 21
1363
  0
LINE
  8
0
 10
-140.713
 20
1363
 11
-140.278
 21
1363.41
  0
LINE
  8
0
 10
-140.278
 20
1363.41
 11
-139.795
 21
1363.76
  0
LINE
  8
0
 10
-139.795
 20
1363.76
 11
-139.272
 21
1364.05
  0
LINE
  8
0
 10
-139.272
 20
1364.05
 11
-138.718
 21
1364.27
  0
LINE
  8
0
 10
-138.718
 20
1364.27
 11
-138.14
 21
1364.42
  0
LINE
  8
0
 10
-138.14
 20
1364.42
 11
-137.548
 21
1364.49
  0
LINE
  8
0
 10
-137.548
 20
1364.49
 11
137.548
 21
1364.49
  0
LINE
  8
0
 10
137.548
 20
1364.49
 11
138.14
 21
1364.42
  0
LINE
  8
0
 10
138.14
 20
1364.42
 11
138.718
 21
1364.27
  0
LINE
  8
0
 10
138.718
 20
1364.27
 11
139.272
 21
1364.05
  0
LINE
  8
0
 10
139.272
 20
1364.05
 11
139.795
 21
1363.76
  0
LINE
  8
0
 10
139.795
 20
1363.76
 11
140.278
 21
1363.41
  0
LINE
  8
0
 10
140.278
 20
1363.41
 11
140.713
 21
1363
  0
LINE
  8
0
 10
140.713
 20
1363
 11
141.093
 21
1362.54
  0
LINE
  8
0
 10
141.093
 20
1362.54
 11
141.412
 21
1362.04
  0
LINE
  8
0
 10
141.412
 20
1362.04
 11
141.666
 21
1361.5
  0
LINE
  8
0
 10
141.666
 20
1361.5
 11
141.851
 21
1360.93
  0
LINE
  8
0
 10
141.851
 20
1360.93
 11
141.963
 21
1360.35
  0
LINE
  8
0
 10
141.963
 20
1360.35
 11
142
 21
1359.75
  0
LINE
  8
0
 10
142
 20
1359.75
 11
142
 21
1130.25
  0
LINE
  8
0
 10
142
 20
1130.25
 11
141.963
 21
1129.65
  0
LINE
  8
0
 10
141.963
 20
1129.65
 11
141.851
 21
1129.07
  0
LINE
  8
0
 10
141.851
 20
1129.07
 11
141.666
 21
1128.5
  0
LINE
  8
0
 10
141.666
 20
1128.5
 11
141.412
 21
1127.96
  0
LINE
  8
0
 10
141.412
 20
1127.96
 11
141.093
 21
1127.46
  0
LINE
  8
0
 10
141.093
 20
1127.46
 11
140.713
 21
1127
  0
LINE
  8
0
 10
140.713
 20
1127
 11
140.278
 21
1126.59
  0
LINE
  8
0
 10
140.278
 20
1126.59
 11
139.795
 21
1126.24
  0
LINE
  8
0
 10
139.795
 20
1126.24
 11
139.272
 21
1125.95
  0
LINE
  8
0
 10
139.272
 20
1125.95
 11
138.718
 21
1125.73
  0
LINE
  8
0
 10
138.718
 20
1125.73
 11
138.14
 21
1125.58
  0
LINE
  8
0
 10
138.14
 20
1125.58
 11
137.548
 21
1125.51
  0
LINE
  8
0
 10
137.548
 20
1125.51
 11
-137.548
 21
1125.51
  0
LINE
  8
0
 10
138.437
 20
876.089
 11
139.045
 21
876.245
  0
LINE
  8
0
 10
139.045
 20
876.245
 11
139.629
 21
876.476
  0
LINE
  8
0
 10
139.629
 20
876.476
 11
140.179
 21
876.778
  0
LINE
  8
0
 10
140.179
 20
876.778
 11
140.687
 21
877.147
  0
LINE
  8
0
 10
140.687
 20
877.147
 11
141.145
 21
877.577
  0
LINE
  8
0
 10
141.145
 20
877.577
 11
141.545
 21
878.061
  0
LINE
  8
0
 10
141.545
 20
878.061
 11
141.882
 21
878.591
  0
LINE
  8
0
 10
141.882
 20
878.591
 11
142.149
 21
879.159
  0
LINE
  8
0
 10
142.149
 20
879.159
 11
142.343
 21
879.757
  0
LINE
  8
0
 10
142.343
 20
879.757
 11
142.461
 21
880.373
  0
LINE
  8
0
 10
142.461
 20
880.373
 11
142.5
 21
881
  0
LINE
  8
0
 10
142.5
 20
881
 11
142.5
 21
1111
  0
LINE
  8
0
 10
142.5
 20
1111
 11
142.461
 21
1111.63
  0
LINE
  8
0
 10
142.461
 20
1111.63
 11
142.343
 21
1112.24
  0
LINE
  8
0
 10
142.343
 20
1112.24
 11
142.149
 21
1112.84
  0
LINE
  8
0
 10
142.149
 20
1112.84
 11
141.882
 21
1113.41
  0
LINE
  8
0
 10
141.882
 20
1113.41
 11
141.545
 21
1113.94
  0
LINE
  8
0
 10
141.545
 20
1113.94
 11
141.145
 21
1114.42
  0
LINE
  8
0
 10
141.145
 20
1114.42
 11
140.687
 21
1114.85
  0
LINE
  8
0
 10
140.687
 20
1114.85
 11
140.179
 21
1115.22
  0
LINE
  8
0
 10
140.179
 20
1115.22
 11
139.629
 21
1115.52
  0
LINE
  8
0
 10
139.629
 20
1115.52
 11
139.045
 21
1115.76
  0
LINE
  8
0
 10
139.045
 20
1115.76
 11
138.437
 21
1115.91
  0
LINE
  8
0
 10
138.437
 20
1115.91
 11
137.814
 21
1115.99
  0
LINE
  8
0
 10
137.814
 20
1115.99
 11
-137.814
 21
1115.99
  0
LINE
  8
0
 10
-137.814
 20
1115.99
 11
-138.437
 21
1115.91
  0
LINE
  8
0
 10
-138.437
 20
1115.91
 11
-139.045
 21
1115.76
  0
LINE
  8
0
 10
-139.045
 20
1115.76
 11
-139.629
 21
1115.52
  0
LINE
  8
0
 10
-139.629
 20
1115.52
 11
-140.179
 21
1115.22
  0
LINE
  8
0
 10
-140.179
 20
1115.22
 11
-140.687
 21
1114.85
  0
LINE
  8
0
 10
-140.687
 20
1114.85
 11
-141.145
 21
1114.42
  0
LINE
  8
0
 10
-141.145
 20
1114.42
 11
-141.545
 21
1113.94
  0
LINE
  8
0
 10
-141.545
 20
1113.94
 11
-141.882
 21
1113.41
  0
LINE
  8
0
 10
-141.882
 20
1113.41
 11
-142.149
 21
1112.84
  0
LINE
  8
0
 10
-142.149
 20
1112.84
 11
-142.343
 21
1112.24
  0
LINE
  8
0
 10
-142.343
 20
1112.24
 11
-142.461
 21
1111.63
  0
LINE
  8
0
 10
-142.461
 20
1111.63
 11
-142.5
 21
1111
  0
LINE
  8
0
 10
-142.5
 20
1111
 11
-142.5
 21
881
  0
LINE
  8
0
 10
-142.5
 20
881
 11
-142.461
 21
880.373
  0
LINE
  8
0
 10
-142.461
 20
880.373
 11
-142.343
 21
879.757
  0
LINE
  8
0
 10
-142.343
 20
879.757
 11
-142.149
 21
879.159
  0
LINE
  8
0
 10
-142.149
 20
879.159
 11
-141.882
 21
878.591
  0
LINE
  8
0
 10
-141.882
 20
878.591
 11
-141.545
 21
878.061
  0
LINE
  8
0
 10
-141.545
 20
878.061
 11
-141.145
 21
877.577
  0
LINE
  8
0
 10
-141.145
 20
877.577
 11
-140.687
 21
877.147
  0
LINE
  8
0
 10
-140.687
 20
877.147
 11
-140.179
 21
876.778
  0
LINE
  8
0
 10
-140.179
 20
876.778
 11
-139.629
 21
876.476
  0
LINE
  8
0
 10
-139.629
 20
876.476
 11
-139.045
 21
876.245
  0
LINE
  8
0
 10
-139.045
 20
876.245
 11
-138.437
 21
876.089
  0
LINE
  8
0
 10
-138.437
 20
876.089
 11
-137.814
 21
876.01
  0
LINE
  8
0
 10
-137.814
 20
876.01
 11
137.814
 21
876.01
  0
LINE
  8
0
 10
137.814
 20
876.01
 11
138.437
 21
876.089
  0
LINE
  8
0
 10
-137.493
 20
877.388
 11
-137.975
 21
877.449
  0
LINE
  8
0
 10
-137.975
 20
877.449
 11
-138.446
 21
877.57
  0
LINE
  8
0
 10
-138.446
 20
877.57
 11
-138.898
 21
877.749
  0
LINE
  8
0
 10
-138.898
 20
877.749
 11
-139.323
 21
877.983
  0
LINE
  8
0
 10
-139.323
 20
877.983
 11
-139.716
 21
878.269
  0
LINE
  8
0
 10
-139.716
 20
878.269
 11
-140.071
 21
878.601
  0
LINE
  8
0
 10
-140.071
 20
878.601
 11
-140.38
 21
878.976
  0
LINE
  8
0
 10
-140.38
 20
878.976
 11
-140.641
 21
879.386
  0
LINE
  8
0
 10
-140.641
 20
879.386
 11
-140.848
 21
879.826
  0
LINE
  8
0
 10
-140.848
 20
879.826
 11
-140.998
 21
880.288
  0
LINE
  8
0
 10
-140.998
 20
880.288
 11
-141.089
 21
880.765
  0
LINE
  8
0
 10
-141.089
 20
880.765
 11
-141.119
 21
881.25
  0
LINE
  8
0
 10
-141.119
 20
881.25
 11
-141.119
 21
1110.75
  0
LINE
  8
0
 10
-141.119
 20
1110.75
 11
-141.089
 21
1111.23
  0
LINE
  8
0
 10
-141.089
 20
1111.23
 11
-140.998
 21
1111.71
  0
LINE
  8
0
 10
-140.998
 20
1111.71
 11
-140.848
 21
1112.17
  0
LINE
  8
0
 10
-140.848
 20
1112.17
 11
-140.641
 21
1112.61
  0
LINE
  8
0
 10
-140.641
 20
1112.61
 11
-140.38
 21
1113.02
  0
LINE
  8
0
 10
-140.38
 20
1113.02
 11
-140.071
 21
1113.4
  0
LINE
  8
0
 10
-140.071
 20
1113.4
 11
-139.716
 21
1113.73
  0
LINE
  8
0
 10
-139.716
 20
1113.73
 11
-139.323
 21
1114.02
  0
LINE
  8
0
 10
-139.323
 20
1114.02
 11
-138.898
 21
1114.25
  0
LINE
  8
0
 10
-138.898
 20
1114.25
 11
-138.446
 21
1114.43
  0
LINE
  8
0
 10
-138.446
 20
1114.43
 11
-137.975
 21
1114.55
  0
LINE
  8
0
 10
-137.975
 20
1114.55
 11
-137.493
 21
1114.61
  0
LINE
  8
0
 10
-137.493
 20
1114.61
 11
137.493
 21
1114.61
  0
LINE
  8
0
 10
137.493
 20
1114.61
 11
137.975
 21
1114.55
  0
LINE
  8
0
 10
137.975
 20
1114.55
 11
138.446
 21
1114.43
  0
LINE
  8
0
 10
138.446
 20
1114.43
 11
138.898
 21
1114.25
  0
LINE
  8
0
 10
138.898
 20
1114.25
 11
139.323
 21
1114.02
  0
LINE
  8
0
 10
139.323
 20
1114.02
 11
139.716
 21
1113.73
  0
LINE
  8
0
 10
139.716
 20
1113.73
 11
140.071
 21
1113.4
  0
LINE
  8
0
 10
140.071
 20
1113.4
 11
140.38
 21
1113.02
  0
LINE
  8
0
 10
140.38
 20
1113.02
 11
140.641
 21
1112.61
  0
LINE
  8
0
 10
140.641
 20
1112.61
 11
140.848
 21
1112.17
  0
LINE
  8
0
 10
140.848
 20
1112.17
 11
140.998
 21
1111.71
  0
LINE
  8
0
 10
140.998
 20
1111.71
 11
141.089
 21
1111.23
  0
LINE
  8
0
 10
141.089
 20
1111.23
 11
141.119
 21
1110.75
  0
LINE
  8
0
 10
141.119
 20
1110.75
 11
141.119
 21
881.25
  0
LINE
  8
0
 10
141.119
 20
881.25
 11
141.089
 21
880.765
  0
LINE
  8
0
 10
141.089
 20
880.765
 11
140.998
 21
880.288
  0
LINE
  8
0
 10
140.998
 20
880.288
 11
140.848
 21
879.826
  0
LINE
  8
0
 10
140.848
 20
879.826
 11
140.641
 21
879.386
  0
LINE
  8
0
 10
140.641
 20
879.386
 11
140.38
 21
878.976
  0
LINE
  8
0
 10
140.38
 20
878.976
 11
140.071
 21
878.601
  0
LINE
  8
0
 10
140.071
 20
878.601
 11
139.716
 21
878.269
  0
LINE
  8
0
 10
139.716
 20
878.269
 11
139.323
 21
877.983
  0
LINE
  8
0
 10
139.323
 20
877.983
 11
138.898
 21
877.749
  0
LINE
  8
0
 10
138.898
 20
877.749
 11
138.446
 21
877.57
  0
LINE
  8
0
 10
138.446
 20
877.57
 11
137.975
 21
877.449
  0
LINE
  8
0
 10
137.975
 20
877.449
 11
137.493
 21
877.388
  0
LINE
  8
0
 10
137.493
 20
877.388
 11
-137.493
 21
877.388
  0
LINE
  8
0
 10
138.437
 20
627.089
 11
139.045
 21
627.245
  0
LINE
  8
0
 10
139.045
 20
627.245
 11
139.629
 21
627.476
  0
LINE
  8
0
 10
139.629
 20
627.476
 11
140.179
 21
627.778
  0
LINE
  8
0
 10
140.179
 20
627.778
 11
140.687
 21
628.147
  0
LINE
  8
0
 10
140.687
 20
628.147
 11
141.145
 21
628.577
  0
LINE
  8
0
 10
141.145
 20
628.577
 11
141.545
 21
629.061
  0
LINE
  8
0
 10
141.545
 20
629.061
 11
141.882
 21
629.591
  0
LINE
  8
0
 10
141.882
 20
629.591
 11
142.149
 21
630.159
  0
LINE
  8
0
 10
142.149
 20
630.159
 11
142.343
 21
630.757
  0
LINE
  8
0
 10
142.343
 20
630.757
 11
142.461
 21
631.373
  0
LINE
  8
0
 10
142.461
 20
631.373
 11
142.5
 21
632
  0
LINE
  8
0
 10
142.5
 20
632
 11
142.5
 21
862
  0
LINE
  8
0
 10
142.5
 20
862
 11
142.461
 21
862.627
  0
LINE
  8
0
 10
142.461
 20
862.627
 11
142.343
 21
863.243
  0
LINE
  8
0
 10
142.343
 20
863.243
 11
142.149
 21
863.841
  0
LINE
  8
0
 10
142.149
 20
863.841
 11
141.882
 21
864.409
  0
LINE
  8
0
 10
141.882
 20
864.409
 11
141.545
 21
864.939
  0
LINE
  8
0
 10
141.545
 20
864.939
 11
141.145
 21
865.423
  0
LINE
  8
0
 10
141.145
 20
865.423
 11
140.687
 21
865.853
  0
LINE
  8
0
 10
140.687
 20
865.853
 11
140.179
 21
866.222
  0
LINE
  8
0
 10
140.179
 20
866.222
 11
139.629
 21
866.524
  0
LINE
  8
0
 10
139.629
 20
866.524
 11
139.045
 21
866.755
  0
LINE
  8
0
 10
139.045
 20
866.755
 11
138.437
 21
866.911
  0
LINE
  8
0
 10
138.437
 20
866.911
 11
137.814
 21
866.99
  0
LINE
  8
0
 10
137.814
 20
866.99
 11
-137.814
 21
866.99
  0
LINE
  8
0
 10
-137.814
 20
866.99
 11
-138.437
 21
866.911
  0
LINE
  8
0
 10
-138.437
 20
866.911
 11
-139.045
 21
866.755
  0
LINE
  8
0
 10
-139.045
 20
866.755
 11
-139.629
 21
866.524
  0
LINE
  8
0
 10
-139.629
 20
866.524
 11
-140.179
 21
866.222
  0
LINE
  8
0
 10
-140.179
 20
866.222
 11
-140.687
 21
865.853
  0
LINE
  8
0
 10
-140.687
 20
865.853
 11
-141.145
 21
865.423
  0
LINE
  8
0
 10
-141.145
 20
865.423
 11
-141.545
 21
864.939
  0
LINE
  8
0
 10
-141.545
 20
864.939
 11
-141.882
 21
864.409
  0
LINE
  8
0
 10
-141.882
 20
864.409
 11
-142.149
 21
863.841
  0
LINE
  8
0
 10
-142.149
 20
863.841
 11
-142.343
 21
863.243
  0
LINE
  8
0
 10
-142.343
 20
863.243
 11
-142.461
 21
862.627
  0
LINE
  8
0
 10
-142.461
 20
862.627
 11
-142.5
 21
862
  0
LINE
  8
0
 10
-142.5
 20
862
 11
-142.5
 21
632
  0
LINE
  8
0
 10
-142.5
 20
632
 11
-142.461
 21
631.373
  0
LINE
  8
0
 10
-142.461
 20
631.373
 11
-142.343
 21
630.757
  0
LINE
  8
0
 10
-142.343
 20
630.757
 11
-142.149
 21
630.159
  0
LINE
  8
0
 10
-142.149
 20
630.159
 11
-141.882
 21
629.591
  0
LINE
  8
0
 10
-141.882
 20
629.591
 11
-141.545
 21
629.061
  0
LINE
  8
0
 10
-141.545
 20
629.061
 11
-141.145
 21
628.577
  0
LINE
  8
0
 10
-141.145
 20
628.577
 11
-140.687
 21
628.147
  0
LINE
  8
0
 10
-140.687
 20
628.147
 11
-140.179
 21
627.778
  0
LINE
  8
0
 10
-140.179
 20
627.778
 11
-139.629
 21
627.476
  0
LINE
  8
0
 10
-139.629
 20
627.476
 11
-139.045
 21
627.245
  0
LINE
  8
0
 10
-139.045
 20
627.245
 11
-138.437
 21
627.089
  0
LINE
  8
0
 10
-138.437
 20
627.089
 11
-137.814
 21
627.01
  0
LINE
  8
0
 10
-137.814
 20
627.01
 11
137.814
 21
627.01
  0
LINE
  8
0
 10
137.814
 20
627.01
 11
138.437
 21
627.089
  0
LINE
  8
0
 10
134.887
 20
857.704
 11
134.663
 21
857.732
  0
LINE
  8
0
 10
134.663
 20
857.732
 11
134.444
 21
857.788
  0
LINE
  8
0
 10
134.444
 20
857.788
 11
134.234
 21
857.871
  0
LINE
  8
0
 10
134.234
 20
857.871
 11
134.036
 21
857.98
  0
LINE
  8
0
 10
134.036
 20
857.98
 11
133.853
 21
858.113
  0
LINE
  8
0
 10
133.853
 20
858.113
 11
133.688
 21
858.268
  0
LINE
  8
0
 10
133.688
 20
858.268
 11
133.544
 21
858.442
  0
LINE
  8
0
 10
133.544
 20
858.442
 11
133.423
 21
858.633
  0
LINE
  8
0
 10
133.423
 20
858.633
 11
133.326
 21
858.837
  0
LINE
  8
0
 10
133.326
 20
858.837
 11
133.257
 21
859.052
  0
LINE
  8
0
 10
133.257
 20
859.052
 11
133.214
 21
859.274
  0
LINE
  8
0
 10
133.214
 20
859.274
 11
133.2
 21
859.5
  0
LINE
  8
0
 10
133.2
 20
859.5
 11
133.214
 21
859.726
  0
LINE
  8
0
 10
133.214
 20
859.726
 11
133.257
 21
859.948
  0
LINE
  8
0
 10
133.257
 20
859.948
 11
133.326
 21
860.163
  0
LINE
  8
0
 10
133.326
 20
860.163
 11
133.423
 21
860.367
  0
LINE
  8
0
 10
133.423
 20
860.367
 11
133.544
 21
860.558
  0
LINE
  8
0
 10
133.544
 20
860.558
 11
133.688
 21
860.732
  0
LINE
  8
0
 10
133.688
 20
860.732
 11
133.853
 21
860.887
  0
LINE
  8
0
 10
133.853
 20
860.887
 11
134.036
 21
861.02
  0
LINE
  8
0
 10
134.036
 20
861.02
 11
134.234
 21
861.129
  0
LINE
  8
0
 10
134.234
 20
861.129
 11
134.444
 21
861.212
  0
LINE
  8
0
 10
134.444
 20
861.212
 11
134.663
 21
861.268
  0
LINE
  8
0
 10
134.663
 20
861.268
 11
134.887
 21
861.296
  0
LINE
  8
0
 10
134.887
 20
861.296
 11
135.113
 21
861.296
  0
LINE
  8
0
 10
135.113
 20
861.296
 11
135.337
 21
861.268
  0
LINE
  8
0
 10
135.337
 20
861.268
 11
135.556
 21
861.212
  0
LINE
  8
0
 10
135.556
 20
861.212
 11
135.766
 21
861.129
  0
LINE
  8
0
 10
135.766
 20
861.129
 11
135.964
 21
861.02
  0
LINE
  8
0
 10
135.964
 20
861.02
 11
136.147
 21
860.887
  0
LINE
  8
0
 10
136.147
 20
860.887
 11
136.312
 21
860.732
  0
LINE
  8
0
 10
136.312
 20
860.732
 11
136.456
 21
860.558
  0
LINE
  8
0
 10
136.456
 20
860.558
 11
136.577
 21
860.367
  0
LINE
  8
0
 10
136.577
 20
860.367
 11
136.674
 21
860.163
  0
LINE
  8
0
 10
136.674
 20
860.163
 11
136.743
 21
859.948
  0
LINE
  8
0
 10
136.743
 20
859.948
 11
136.786
 21
859.726
  0
LINE
  8
0
 10
136.786
 20
859.726
 11
136.8
 21
859.5
  0
LINE
  8
0
 10
136.8
 20
859.5
 11
136.786
 21
859.274
  0
LINE
  8
0
 10
136.786
 20
859.274
 11
136.743
 21
859.052
  0
LINE
  8
0
 10
136.743
 20
859.052
 11
136.674
 21
858.837
  0
LINE
  8
0
 10
136.674
 20
858.837
 11
136.577
 21
858.633
  0
LINE
  8
0
 10
136.577
 20
858.633
 11
136.456
 21
858.442
  0
LINE
  8
0
 10
136.456
 20
858.442
 11
136.312
 21
858.268
  0
LINE
  8
0
 10
136.312
 20
858.268
 11
136.147
 21
858.113
  0
LINE
  8
0
 10
136.147
 20
858.113
 11
135.964
 21
857.98
  0
LINE
  8
0
 10
135.964
 20
857.98
 11
135.766
 21
857.871
  0
LINE
  8
0
 10
135.766
 20
857.871
 11
135.556
 21
857.788
  0
LINE
  8
0
 10
135.556
 20
857.788
 11
135.337
 21
857.732
  0
LINE
  8
0
 10
135.337
 20
857.732
 11
135.113
 21
857.704
  0
LINE
  8
0
 10
135.113
 20
857.704
 11
134.887
 21
857.704
  0
LINE
  8
0
 10
-135.113
 20
857.704
 11
-135.337
 21
857.732
  0
LINE
  8
0
 10
-135.337
 20
857.732
 11
-135.556
 21
857.788
  0
LINE
  8
0
 10
-135.556
 20
857.788
 11
-135.766
 21
857.871
  0
LINE
  8
0
 10
-135.766
 20
857.871
 11
-135.964
 21
857.98
  0
LINE
  8
0
 10
-135.964
 20
857.98
 11
-136.147
 21
858.113
  0
LINE
  8
0
 10
-136.147
 20
858.113
 11
-136.312
 21
858.268
  0
LINE
  8
0
 10
-136.312
 20
858.268
 11
-136.456
 21
858.442
  0
LINE
  8
0
 10
-136.456
 20
858.442
 11
-136.577
 21
858.633
  0
LINE
  8
0
 10
-136.577
 20
858.633
 11
-136.674
 21
858.837
  0
LINE
  8
0
 10
-136.674
 20
858.837
 11
-136.743
 21
859.052
  0
LINE
  8
0
 10
-136.743
 20
859.052
 11
-136.786
 21
859.274
  0
LINE
  8
0
 10
-136.786
 20
859.274
 11
-136.8
 21
859.5
  0
LINE
  8
0
 10
-136.8
 20
859.5
 11
-136.786
 21
859.726
  0
LINE
  8
0
 10
-136.786
 20
859.726
 11
-136.743
 21
859.948
  0
LINE
  8
0
 10
-136.743
 20
859.948
 11
-136.674
 21
860.163
  0
LINE
  8
0
 10
-136.674
 20
860.163
 11
-136.577
 21
860.367
  0
LINE
  8
0
 10
-136.577
 20
860.367
 11
-136.456
 21
860.558
  0
LINE
  8
0
 10
-136.456
 20
860.558
 11
-136.312
 21
860.732
  0
LINE
  8
0
 10
-136.312
 20
860.732
 11
-136.147
 21
860.887
  0
LINE
  8
0
 10
-136.147
 20
860.887
 11
-135.964
 21
861.02
  0
LINE
  8
0
 10
-135.964
 20
861.02
 11
-135.766
 21
861.129
  0
LINE
  8
0
 10
-135.766
 20
861.129
 11
-135.556
 21
861.212
  0
LINE
  8
0
 10
-135.556
 20
861.212
 11
-135.337
 21
861.268
  0
LINE
  8
0
 10
-135.337
 20
861.268
 11
-135.113
 21
861.296
  0
LINE
  8
0
 10
-135.113
 20
861.296
 11
-134.887
 21
861.296
  0
LINE
  8
0
 10
-134.887
 20
861.296
 11
-134.663
 21
861.268
  0
LINE
  8
0
 10
-134.663
 20
861.268
 11
-134.444
 21
861.212
  0
LINE
  8
0
 10
-134.444
 20
861.212
 11
-134.234
 21
861.129
  0
LINE
  8
0
 10
-134.234
 20
861.129
 11
-134.036
 21
861.02
  0
LINE
  8
0
 10
-134.036
 20
861.02
 11
-133.853
 21
860.887
  0
LINE
  8
0
 10
-133.853
 20
860.887
 11
-133.688
 21
860.732
  0
LINE
  8
0
 10
-133.688
 20
860.732
 11
-133.544
 21
860.558
  0
LINE
  8
0
 10
-133.544
 20
860.558
 11
-133.423
 21
860.367
  0
LINE
  8
0
 10
-133.423
 20
860.367
 11
-133.326
 21
860.163
  0
LINE
  8
0
 10
-133.326
 20
860.163
 11
-133.257
 21
859.948
  0
LINE
  8
0
 10
-133.257
 20
859.948
 11
-133.214
 21
859.726
  0
LINE
  8
0
 10
-133.214
 20
859.726
 11
-133.2
 21
859.5
  0
LINE
  8
0
 10
-133.2
 20
859.5
 11
-133.214
 21
859.274
  0
LINE
  8
0
 10
-133.214
 20
859.274
 11
-133.257
 21
859.052
  0
LINE
  8
0
 10
-133.257
 20
859.052
 11
-133.326
 21
858.837
  0
LINE
  8
0
 10
-133.326
 20
858.837
 11
-133.423
 21
858.633
  0
LINE
  8
0
 10
-133.423
 20
858.633
 11
-133.544
 21
858.442
  0
LINE
  8
0
 10
-133.544
 20
858.442
 11
-133.688
 21
858.268
  0
LINE
  8
0
 10
-133.688
 20
858.268
 11
-133.853
 21
858.113
  0
LINE
  8
0
 10
-133.853
 20
858.113
 11
-134.036
 21
857.98
  0
LINE
  8
0
 10
-134.036
 20
857.98
 11
-134.234
 21
857.871
  0
LINE
  8
0
 10
-134.234
 20
857.871
 11
-134.444
 21
857.788
  0
LINE
  8
0
 10
-134.444
 20
857.788
 11
-134.663
 21
857.732
  0
LINE
  8
0
 10
-134.663
 20
857.732
 11
-134.887
 21
857.704
  0
LINE
  8
0
 10
-134.887
 20
857.704
 11
-135.113
 21
857.704
  0
LINE
  8
0
 10
-135.113
 20
632.704
 11
-135.337
 21
632.732
  0
LINE
  8
0
 10
-135.337
 20
632.732
 11
-135.556
 21
632.788
  0
LINE
  8
0
 10
-135.556
 20
632.788
 11
-135.766
 21
632.871
  0
LINE
  8
0
 10
-135.766
 20
632.871
 11
-135.964
 21
632.98
  0
LINE
  8
0
 10
-135.964
 20
632.98
 11
-136.147
 21
633.113
  0
LINE
  8
0
 10
-136.147
 20
633.113
 11
-136.312
 21
633.268
  0
LINE
  8
0
 10
-136.312
 20
633.268
 11
-136.456
 21
633.442
  0
LINE
  8
0
 10
-136.456
 20
633.442
 11
-136.577
 21
633.633
  0
LINE
  8
0
 10
-136.577
 20
633.633
 11
-136.674
 21
633.837
  0
LINE
  8
0
 10
-136.674
 20
633.837
 11
-136.743
 21
634.052
  0
LINE
  8
0
 10
-136.743
 20
634.052
 11
-136.786
 21
634.274
  0
LINE
  8
0
 10
-136.786
 20
634.274
 11
-136.8
 21
634.5
  0
LINE
  8
0
 10
-136.8
 20
634.5
 11
-136.786
 21
634.726
  0
LINE
  8
0
 10
-136.786
 20
634.726
 11
-136.743
 21
634.948
  0
LINE
  8
0
 10
-136.743
 20
634.948
 11
-136.674
 21
635.163
  0
LINE
  8
0
 10
-136.674
 20
635.163
 11
-136.577
 21
635.367
  0
LINE
  8
0
 10
-136.577
 20
635.367
 11
-136.456
 21
635.558
  0
LINE
  8
0
 10
-136.456
 20
635.558
 11
-136.312
 21
635.732
  0
LINE
  8
0
 10
-136.312
 20
635.732
 11
-136.147
 21
635.887
  0
LINE
  8
0
 10
-136.147
 20
635.887
 11
-135.964
 21
636.02
  0
LINE
  8
0
 10
-135.964
 20
636.02
 11
-135.766
 21
636.129
  0
LINE
  8
0
 10
-135.766
 20
636.129
 11
-135.556
 21
636.212
  0
LINE
  8
0
 10
-135.556
 20
636.212
 11
-135.337
 21
636.268
  0
LINE
  8
0
 10
-135.337
 20
636.268
 11
-135.113
 21
636.296
  0
LINE
  8
0
 10
-135.113
 20
636.296
 11
-134.887
 21
636.296
  0
LINE
  8
0
 10
-134.887
 20
636.296
 11
-134.663
 21
636.268
  0
LINE
  8
0
 10
-134.663
 20
636.268
 11
-134.444
 21
636.212
  0
LINE
  8
0
 10
-134.444
 20
636.212
 11
-134.234
 21
636.129
  0
LINE
  8
0
 10
-134.234
 20
636.129
 11
-134.036
 21
636.02
  0
LINE
  8
0
 10
-134.036
 20
636.02
 11
-133.853
 21
635.887
  0
LINE
  8
0
 10
-133.853
 20
635.887
 11
-133.688
 21
635.732
  0
LINE
  8
0
 10
-133.688
 20
635.732
 11
-133.544
 21
635.558
  0
LINE
  8
0
 10
-133.544
 20
635.558
 11
-133.423
 21
635.367
  0
LINE
  8
0
 10
-133.423
 20
635.367
 11
-133.326
 21
635.163
  0
LINE
  8
0
 10
-133.326
 20
635.163
 11
-133.257
 21
634.948
  0
LINE
  8
0
 10
-133.257
 20
634.948
 11
-133.214
 21
634.726
  0
LINE
  8
0
 10
-133.214
 20
634.726
 11
-133.2
 21
634.5
  0
LINE
  8
0
 10
-133.2
 20
634.5
 11
-133.214
 21
634.274
  0
LINE
  8
0
 10
-133.214
 20
634.274
 11
-133.257
 21
634.052
  0
LINE
  8
0
 10
-133.257
 20
634.052
 11
-133.326
 21
633.837
  0
LINE
  8
0
 10
-133.326
 20
633.837
 11
-133.423
 21
633.633
  0
LINE
  8
0
 10
-133.423
 20
633.633
 11
-133.544
 21
633.442
  0
LINE
  8
0
 10
-133.544
 20
633.442
 11
-133.688
 21
633.268
  0
LINE
  8
0
 10
-133.688
 20
633.268
 11
-133.853
 21
633.113
  0
LINE
  8
0
 10
-133.853
 20
633.113
 11
-134.036
 21
632.98
  0
LINE
  8
0
 10
-134.036
 20
632.98
 11
-134.234
 21
632.871
  0
LINE
  8
0
 10
-134.234
 20
632.871
 11
-134.444
 21
632.788
  0
LINE
  8
0
 10
-134.444
 20
632.788
 11
-134.663
 21
632.732
  0
LINE
  8
0
 10
-134.663
 20
632.732
 11
-134.887
 21
632.704
  0
LINE
  8
0
 10
-134.887
 20
632.704
 11
-135.113
 21
632.704
  0
LINE
  8
0
 10
134.887
 20
632.704
 11
134.663
 21
632.732
  0
LINE
  8
0
 10
134.663
 20
632.732
 11
134.444
 21
632.788
  0
LINE
  8
0
 10
134.444
 20
632.788
 11
134.234
 21
632.871
  0
LINE
  8
0
 10
134.234
 20
632.871
 11
134.036
 21
632.98
  0
LINE
  8
0
 10
134.036
 20
632.98
 11
133.853
 21
633.113
  0
LINE
  8
0
 10
133.853
 20
633.113
 11
133.688
 21
633.268
  0
LINE
  8
0
 10
133.688
 20
633.268
 11
133.544
 21
633.442
  0
LINE
  8
0
 10
133.544
 20
633.442
 11
133.423
 21
633.633
  0
LINE
  8
0
 10
133.423
 20
633.633
 11
133.326
 21
633.837
  0
LINE
  8
0
 10
133.326
 20
633.837
 11
133.257
 21
634.052
  0
LINE
  8
0
 10
133.257
 20
634.052
 11
133.214
 21
634.274
  0
LINE
  8
0
 10
133.214
 20
634.274
 11
133.2
 21
634.5
  0
LINE
  8
0
 10
133.2
 20
634.5
 11
133.214
 21
634.726
  0
LINE
  8
0
 10
133.214
 20
634.726
 11
133.257
 21
634.948
  0
LINE
  8
0
 10
133.257
 20
634.948
 11
133.326
 21
635.163
  0
LINE
  8
0
 10
133.326
 20
635.163
 11
133.423
 21
635.367
  0
LINE
  8
0
 10
133.423
 20
635.367
 11
133.544
 21
635.558
  0
LINE
  8
0
 10
133.544
 20
635.558
 11
133.688
 21
635.732
  0
LINE
  8
0
 10
133.688
 20
635.732
 11
133.853
 21
635.887
  0
LINE
  8
0
 10
133.853
 20
635.887
 11
134.036
 21
636.02
  0
LINE
  8
0
 10
134.036
 20
636.02
 11
134.234
 21
636.129
  0
LINE
  8
0
 10
134.234
 20
636.129
 11
134.444
 21
636.212
  0
LINE
  8
0
 10
134.444
 20
636.212
 11
134.663
 21
636.268
  0
LINE
  8
0
 10
134.663
 20
636.268
 11
134.887
 21
636.296
  0
LINE
  8
0
 10
134.887
 20
636.296
 11
135.113
 21
636.296
  0
LINE
  8
0
 10
135.113
 20
636.296
 11
135.337
 21
636.268
  0
LINE
  8
0
 10
135.337
 20
636.268
 11
135.556
 21
636.212
  0
LINE
  8
0
 10
135.556
 20
636.212
 11
135.766
 21
636.129
  0
LINE
  8
0
 10
135.766
 20
636.129
 11
135.964
 21
636.02
  0
LINE
  8
0
 10
135.964
 20
636.02
 11
136.147
 21
635.887
  0
LINE
  8
0
 10
136.147
 20
635.887
 11
136.312
 21
635.732
  0
LINE
  8
0
 10
136.312
 20
635.732
 11
136.456
 21
635.558
  0
LINE
  8
0
 10
136.456
 20
635.558
 11
136.577
 21
635.367
  0
LINE
  8
0
 10
136.577
 20
635.367
 11
136.674
 21
635.163
  0
LINE
  8
0
 10
136.674
 20
635.163
 11
136.743
 21
634.948
  0
LINE
  8
0
 10
136.743
 20
634.948
 11
136.786
 21
634.726
  0
LINE
  8
0
 10
136.786
 20
634.726
 11
136.8
 21
634.5
  0
LINE
  8
0
 10
136.8
 20
634.5
 11
136.786
 21
634.274
  0
LINE
  8
0
 10
136.786
 20
634.274
 11
136.743
 21
634.052
  0
LINE
  8
0
 10
136.743
 20
634.052
 11
136.674
 21
633.837
  0
LINE
  8
0
 10
136.674
 20
633.837
 11
136.577
 21
633.633
  0
LINE
  8
0
 10
136.577
 20
633.633
 11
136.456
 21
633.442
  0
LINE
  8
0
 10
136.456
 20
633.442
 11
136.312
 21
633.268
  0
LINE
  8
0
 10
136.312
 20
633.268
 11
136.147
 21
633.113
  0
LINE
  8
0
 10
136.147
 20
633.113
 11
135.964
 21
632.98
  0
LINE
  8
0
 10
135.964
 20
632.98
 11
135.766
 21
632.871
  0
LINE
  8
0
 10
135.766
 20
632.871
 11
135.556
 21
632.788
  0
LINE
  8
0
 10
135.556
 20
632.788
 11
135.337
 21
632.732
  0
LINE
  8
0
 10
135.337
 20
632.732
 11
135.113
 21
632.704
  0
LINE
  8
0
 10
135.113
 20
632.704
 11
134.887
 21
632.704
  0
ENDSEC
  0
SECTION
  2
OBJECTS
  0
DICTIONARY
  0
ENDSEC
  0
EOF
