  0
SECTION
  2
BLOCKS
  0
ENDSEC
  0
SECTION
  2
ENTITIES
  0
LINE
  8
0
 10
138.437
 20
589.589
 11
139.045
 21
589.745
  0
LINE
  8
0
 10
139.045
 20
589.745
 11
139.629
 21
589.976
  0
LINE
  8
0
 10
139.629
 20
589.976
 11
140.179
 21
590.278
  0
LINE
  8
0
 10
140.179
 20
590.278
 11
140.687
 21
590.647
  0
LINE
  8
0
 10
140.687
 20
590.647
 11
141.145
 21
591.077
  0
LINE
  8
0
 10
141.145
 20
591.077
 11
141.545
 21
591.561
  0
LINE
  8
0
 10
141.545
 20
591.561
 11
141.882
 21
592.091
  0
LINE
  8
0
 10
141.882
 20
592.091
 11
142.149
 21
592.659
  0
LINE
  8
0
 10
142.149
 20
592.659
 11
142.343
 21
593.257
  0
LINE
  8
0
 10
142.343
 20
593.257
 11
142.461
 21
593.873
  0
LINE
  8
0
 10
142.461
 20
593.873
 11
142.5
 21
594.5
  0
LINE
  8
0
 10
142.5
 20
594.5
 11
142.5
 21
809.5
  0
LINE
  8
0
 10
142.5
 20
809.5
 11
142.461
 21
810.127
  0
LINE
  8
0
 10
142.461
 20
810.127
 11
142.343
 21
810.743
  0
LINE
  8
0
 10
142.343
 20
810.743
 11
142.149
 21
811.341
  0
LINE
  8
0
 10
142.149
 20
811.341
 11
141.882
 21
811.909
  0
LINE
  8
0
 10
141.882
 20
811.909
 11
141.545
 21
812.439
  0
LINE
  8
0
 10
141.545
 20
812.439
 11
141.145
 21
812.923
  0
LINE
  8
0
 10
141.145
 20
812.923
 11
140.687
 21
813.353
  0
LINE
  8
0
 10
140.687
 20
813.353
 11
140.179
 21
813.722
  0
LINE
  8
0
 10
140.179
 20
813.722
 11
139.629
 21
814.024
  0
LINE
  8
0
 10
139.629
 20
814.024
 11
139.045
 21
814.255
  0
LINE
  8
0
 10
139.045
 20
814.255
 11
138.437
 21
814.411
  0
LINE
  8
0
 10
138.437
 20
814.411
 11
137.814
 21
814.49
  0
LINE
  8
0
 10
137.814
 20
814.49
 11
-137.814
 21
814.49
  0
LINE
  8
0
 10
-137.814
 20
814.49
 11
-138.437
 21
814.411
  0
LINE
  8
0
 10
-138.437
 20
814.411
 11
-139.045
 21
814.255
  0
LINE
  8
0
 10
-139.045
 20
814.255
 11
-139.629
 21
814.024
  0
LINE
  8
0
 10
-139.629
 20
814.024
 11
-140.179
 21
813.722
  0
LINE
  8
0
 10
-140.179
 20
813.722
 11
-140.687
 21
813.353
  0
LINE
  8
0
 10
-140.687
 20
813.353
 11
-141.145
 21
812.923
  0
LINE
  8
0
 10
-141.145
 20
812.923
 11
-141.545
 21
812.439
  0
LINE
  8
0
 10
-141.545
 20
812.439
 11
-141.882
 21
811.909
  0
LINE
  8
0
 10
-141.882
 20
811.909
 11
-142.149
 21
811.341
  0
LINE
  8
0
 10
-142.149
 20
811.341
 11
-142.343
 21
810.743
  0
LINE
  8
0
 10
-142.343
 20
810.743
 11
-142.461
 21
810.127
  0
LINE
  8
0
 10
-142.461
 20
810.127
 11
-142.5
 21
809.5
  0
LINE
  8
0
 10
-142.5
 20
809.5
 11
-142.5
 21
594.5
  0
LINE
  8
0
 10
-142.5
 20
594.5
 11
-142.461
 21
593.873
  0
LINE
  8
0
 10
-142.461
 20
593.873
 11
-142.343
 21
593.257
  0
LINE
  8
0
 10
-142.343
 20
593.257
 11
-142.149
 21
592.659
  0
LINE
  8
0
 10
-142.149
 20
592.659
 11
-141.882
 21
592.091
  0
LINE
  8
0
 10
-141.882
 20
592.091
 11
-141.545
 21
591.561
  0
LINE
  8
0
 10
-141.545
 20
591.561
 11
-141.145
 21
591.077
  0
LINE
  8
0
 10
-141.145
 20
591.077
 11
-140.687
 21
590.647
  0
LINE
  8
0
 10
-140.687
 20
590.647
 11
-140.179
 21
590.278
  0
LINE
  8
0
 10
-140.179
 20
590.278
 11
-139.629
 21
589.976
  0
LINE
  8
0
 10
-139.629
 20
589.976
 11
-139.045
 21
589.745
  0
LINE
  8
0
 10
-139.045
 20
589.745
 11
-138.437
 21
589.589
  0
LINE
  8
0
 10
-138.437
 20
589.589
 11
-137.814
 21
589.51
  0
LINE
  8
0
 10
-137.814
 20
589.51
 11
137.814
 21
589.51
  0
LINE
  8
0
 10
137.814
 20
589.51
 11
138.437
 21
589.589
  0
LINE
  8
0
 10
-137.537
 20
590.181
 11
-138.108
 21
590.253
  0
LINE
  8
0
 10
-138.108
 20
590.253
 11
-138.665
 21
590.396
  0
LINE
  8
0
 10
-138.665
 20
590.396
 11
-139.199
 21
590.607
  0
LINE
  8
0
 10
-139.199
 20
590.607
 11
-139.703
 21
590.884
  0
LINE
  8
0
 10
-139.703
 20
590.884
 11
-140.168
 21
591.222
  0
LINE
  8
0
 10
-140.168
 20
591.222
 11
-140.588
 21
591.616
  0
LINE
  8
0
 10
-140.588
 20
591.616
 11
-140.954
 21
592.059
  0
LINE
  8
0
 10
-140.954
 20
592.059
 11
-141.262
 21
592.544
  0
LINE
  8
0
 10
-141.262
 20
592.544
 11
-141.507
 21
593.065
  0
LINE
  8
0
 10
-141.507
 20
593.065
 11
-141.685
 21
593.611
  0
LINE
  8
0
 10
-141.685
 20
593.611
 11
-141.792
 21
594.176
  0
LINE
  8
0
 10
-141.792
 20
594.176
 11
-141.828
 21
594.75
  0
LINE
  8
0
 10
-141.828
 20
594.75
 11
-141.828
 21
809.25
  0
LINE
  8
0
 10
-141.828
 20
809.25
 11
-141.792
 21
809.824
  0
LINE
  8
0
 10
-141.792
 20
809.824
 11
-141.685
 21
810.389
  0
LINE
  8
0
 10
-141.685
 20
810.389
 11
-141.507
 21
810.935
  0
LINE
  8
0
 10
-141.507
 20
810.935
 11
-141.262
 21
811.456
  0
LINE
  8
0
 10
-141.262
 20
811.456
 11
-140.954
 21
811.941
  0
LINE
  8
0
 10
-140.954
 20
811.941
 11
-140.588
 21
812.384
  0
LINE
  8
0
 10
-140.588
 20
812.384
 11
-140.168
 21
812.778
  0
LINE
  8
0
 10
-140.168
 20
812.778
 11
-139.703
 21
813.116
  0
LINE
  8
0
 10
-139.703
 20
813.116
 11
-139.199
 21
813.393
  0
LINE
  8
0
 10
-139.199
 20
813.393
 11
-138.665
 21
813.604
  0
LINE
  8
0
 10
-138.665
 20
813.604
 11
-138.108
 21
813.747
  0
LINE
  8
0
 10
-138.108
 20
813.747
 11
-137.537
 21
813.819
  0
LINE
  8
0
 10
-137.537
 20
813.819
 11
137.537
 21
813.819
  0
LINE
  8
0
 10
137.537
 20
813.819
 11
138.108
 21
813.747
  0
LINE
  8
0
 10
138.108
 20
813.747
 11
138.665
 21
813.604
  0
LINE
  8
0
 10
138.665
 20
813.604
 11
139.199
 21
813.393
  0
LINE
  8
0
 10
139.199
 20
813.393
 11
139.703
 21
813.116
  0
LINE
  8
0
 10
139.703
 20
813.116
 11
140.168
 21
812.778
  0
LINE
  8
0
 10
140.168
 20
812.778
 11
140.588
 21
812.384
  0
LINE
  8
0
 10
140.588
 20
812.384
 11
140.954
 21
811.941
  0
LINE
  8
0
 10
140.954
 20
811.941
 11
141.262
 21
811.456
  0
LINE
  8
0
 10
141.262
 20
811.456
 11
141.507
 21
810.935
  0
LINE
  8
0
 10
141.507
 20
810.935
 11
141.685
 21
810.389
  0
LINE
  8
0
 10
141.685
 20
810.389
 11
141.792
 21
809.824
  0
LINE
  8
0
 10
141.792
 20
809.824
 11
141.828
 21
809.25
  0
LINE
  8
0
 10
141.828
 20
809.25
 11
141.828
 21
594.75
  0
LINE
  8
0
 10
141.828
 20
594.75
 11
141.792
 21
594.176
  0
LINE
  8
0
 10
141.792
 20
594.176
 11
141.685
 21
593.611
  0
LINE
  8
0
 10
141.685
 20
593.611
 11
141.507
 21
593.065
  0
LINE
  8
0
 10
141.507
 20
593.065
 11
141.262
 21
592.544
  0
LINE
  8
0
 10
141.262
 20
592.544
 11
140.954
 21
592.059
  0
LINE
  8
0
 10
140.954
 20
592.059
 11
140.588
 21
591.616
  0
LINE
  8
0
 10
140.588
 20
591.616
 11
140.168
 21
591.222
  0
LINE
  8
0
 10
140.168
 20
591.222
 11
139.703
 21
590.884
  0
LINE
  8
0
 10
139.703
 20
590.884
 11
139.199
 21
590.607
  0
LINE
  8
0
 10
139.199
 20
590.607
 11
138.665
 21
590.396
  0
LINE
  8
0
 10
138.665
 20
590.396
 11
138.108
 21
590.253
  0
LINE
  8
0
 10
138.108
 20
590.253
 11
137.537
 21
590.181
  0
LINE
  8
0
 10
137.537
 20
590.181
 11
-137.537
 21
590.181
  0
LINE
  8
0
 10
138.437
 20
355.589
 11
139.045
 21
355.745
  0
LINE
  8
0
 10
139.045
 20
355.745
 11
139.629
 21
355.976
  0
LINE
  8
0
 10
139.629
 20
355.976
 11
140.179
 21
356.278
  0
LINE
  8
0
 10
140.179
 20
356.278
 11
140.687
 21
356.647
  0
LINE
  8
0
 10
140.687
 20
356.647
 11
141.145
 21
357.077
  0
LINE
  8
0
 10
141.145
 20
357.077
 11
141.545
 21
357.561
  0
LINE
  8
0
 10
141.545
 20
357.561
 11
141.882
 21
358.091
  0
LINE
  8
0
 10
141.882
 20
358.091
 11
142.149
 21
358.659
  0
LINE
  8
0
 10
142.149
 20
358.659
 11
142.343
 21
359.257
  0
LINE
  8
0
 10
142.343
 20
359.257
 11
142.461
 21
359.873
  0
LINE
  8
0
 10
142.461
 20
359.873
 11
142.5
 21
360.5
  0
LINE
  8
0
 10
142.5
 20
360.5
 11
142.5
 21
575.5
  0
LINE
  8
0
 10
142.5
 20
575.5
 11
142.461
 21
576.127
  0
LINE
  8
0
 10
142.461
 20
576.127
 11
142.343
 21
576.743
  0
LINE
  8
0
 10
142.343
 20
576.743
 11
142.149
 21
577.341
  0
LINE
  8
0
 10
142.149
 20
577.341
 11
141.882
 21
577.909
  0
LINE
  8
0
 10
141.882
 20
577.909
 11
141.545
 21
578.439
  0
LINE
  8
0
 10
141.545
 20
578.439
 11
141.145
 21
578.923
  0
LINE
  8
0
 10
141.145
 20
578.923
 11
140.687
 21
579.353
  0
LINE
  8
0
 10
140.687
 20
579.353
 11
140.179
 21
579.722
  0
LINE
  8
0
 10
140.179
 20
579.722
 11
139.629
 21
580.024
  0
LINE
  8
0
 10
139.629
 20
580.024
 11
139.045
 21
580.255
  0
LINE
  8
0
 10
139.045
 20
580.255
 11
138.437
 21
580.411
  0
LINE
  8
0
 10
138.437
 20
580.411
 11
137.814
 21
580.49
  0
LINE
  8
0
 10
137.814
 20
580.49
 11
-137.814
 21
580.49
  0
LINE
  8
0
 10
-137.814
 20
580.49
 11
-138.437
 21
580.411
  0
LINE
  8
0
 10
-138.437
 20
580.411
 11
-139.045
 21
580.255
  0
LINE
  8
0
 10
-139.045
 20
580.255
 11
-139.629
 21
580.024
  0
LINE
  8
0
 10
-139.629
 20
580.024
 11
-140.179
 21
579.722
  0
LINE
  8
0
 10
-140.179
 20
579.722
 11
-140.687
 21
579.353
  0
LINE
  8
0
 10
-140.687
 20
579.353
 11
-141.145
 21
578.923
  0
LINE
  8
0
 10
-141.145
 20
578.923
 11
-141.545
 21
578.439
  0
LINE
  8
0
 10
-141.545
 20
578.439
 11
-141.882
 21
577.909
  0
LINE
  8
0
 10
-141.882
 20
577.909
 11
-142.149
 21
577.341
  0
LINE
  8
0
 10
-142.149
 20
577.341
 11
-142.343
 21
576.743
  0
LINE
  8
0
 10
-142.343
 20
576.743
 11
-142.461
 21
576.127
  0
LINE
  8
0
 10
-142.461
 20
576.127
 11
-142.5
 21
575.5
  0
LINE
  8
0
 10
-142.5
 20
575.5
 11
-142.5
 21
360.5
  0
LINE
  8
0
 10
-142.5
 20
360.5
 11
-142.461
 21
359.873
  0
LINE
  8
0
 10
-142.461
 20
359.873
 11
-142.343
 21
359.257
  0
LINE
  8
0
 10
-142.343
 20
359.257
 11
-142.149
 21
358.659
  0
LINE
  8
0
 10
-142.149
 20
358.659
 11
-141.882
 21
358.091
  0
LINE
  8
0
 10
-141.882
 20
358.091
 11
-141.545
 21
357.561
  0
LINE
  8
0
 10
-141.545
 20
357.561
 11
-141.145
 21
357.077
  0
LINE
  8
0
 10
-141.145
 20
357.077
 11
-140.687
 21
356.647
  0
LINE
  8
0
 10
-140.687
 20
356.647
 11
-140.179
 21
356.278
  0
LINE
  8
0
 10
-140.179
 20
356.278
 11
-139.629
 21
355.976
  0
LINE
  8
0
 10
-139.629
 20
355.976
 11
-139.045
 21
355.745
  0
LINE
  8
0
 10
-139.045
 20
355.745
 11
-138.437
 21
355.589
  0
LINE
  8
0
 10
-138.437
 20
355.589
 11
-137.814
 21
355.51
  0
LINE
  8
0
 10
-137.814
 20
355.51
 11
137.814
 21
355.51
  0
LINE
  8
0
 10
137.814
 20
355.51
 11
138.437
 21
355.589
  0
LINE
  8
0
 10
-137.382
 20
358.645
 11
-137.645
 21
358.678
  0
LINE
  8
0
 10
-137.645
 20
358.678
 11
-137.902
 21
358.744
  0
LINE
  8
0
 10
-137.902
 20
358.744
 11
-138.148
 21
358.841
  0
LINE
  8
0
 10
-138.148
 20
358.841
 11
-138.38
 21
358.969
  0
LINE
  8
0
 10
-138.38
 20
358.969
 11
-138.595
 21
359.124
  0
LINE
  8
0
 10
-138.595
 20
359.124
 11
-138.788
 21
359.306
  0
LINE
  8
0
 10
-138.788
 20
359.306
 11
-138.957
 21
359.51
  0
LINE
  8
0
 10
-138.957
 20
359.51
 11
-139.099
 21
359.734
  0
LINE
  8
0
 10
-139.099
 20
359.734
 11
-139.211
 21
359.973
  0
LINE
  8
0
 10
-139.211
 20
359.973
 11
-139.293
 21
360.225
  0
LINE
  8
0
 10
-139.293
 20
360.225
 11
-139.343
 21
360.486
  0
LINE
  8
0
 10
-139.343
 20
360.486
 11
-139.36
 21
360.75
  0
LINE
  8
0
 10
-139.36
 20
360.75
 11
-139.36
 21
575.25
  0
LINE
  8
0
 10
-139.36
 20
575.25
 11
-139.343
 21
575.514
  0
LINE
  8
0
 10
-139.343
 20
575.514
 11
-139.293
 21
575.775
  0
LINE
  8
0
 10
-139.293
 20
575.775
 11
-139.211
 21
576.027
  0
LINE
  8
0
 10
-139.211
 20
576.027
 11
-139.099
 21
576.266
  0
LINE
  8
0
 10
-139.099
 20
576.266
 11
-138.957
 21
576.49
  0
LINE
  8
0
 10
-138.957
 20
576.49
 11
-138.788
 21
576.694
  0
LINE
  8
0
 10
-138.788
 20
576.694
 11
-138.595
 21
576.876
  0
LINE
  8
0
 10
-138.595
 20
576.876
 11
-138.38
 21
577.031
  0
LINE
  8
0
 10
-138.38
 20
577.031
 11
-138.148
 21
577.159
  0
LINE
  8
0
 10
-138.148
 20
577.159
 11
-137.902
 21
577.256
  0
LINE
  8
0
 10
-137.902
 20
577.256
 11
-137.645
 21
577.322
  0
LINE
  8
0
 10
-137.645
 20
577.322
 11
-137.382
 21
577.355
  0
LINE
  8
0
 10
-137.382
 20
577.355
 11
137.382
 21
577.355
  0
LINE
  8
0
 10
137.382
 20
577.355
 11
137.645
 21
577.322
  0
LINE
  8
0
 10
137.645
 20
577.322
 11
137.902
 21
577.256
  0
LINE
  8
0
 10
137.902
 20
577.256
 11
138.148
 21
577.159
  0
LINE
  8
0
 10
138.148
 20
577.159
 11
138.38
 21
577.031
  0
LINE
  8
0
 10
138.38
 20
577.031
 11
138.595
 21
576.876
  0
LINE
  8
0
 10
138.595
 20
576.876
 11
138.788
 21
576.694
  0
LINE
  8
0
 10
138.788
 20
576.694
 11
138.957
 21
576.49
  0
LINE
  8
0
 10
138.957
 20
576.49
 11
139.099
 21
576.266
  0
LINE
  8
0
 10
139.099
 20
576.266
 11
139.211
 21
576.027
  0
LINE
  8
0
 10
139.211
 20
576.027
 11
139.293
 21
575.775
  0
LINE
  8
0
 10
139.293
 20
575.775
 11
139.343
 21
575.514
  0
LINE
  8
0
 10
139.343
 20
575.514
 11
139.36
 21
575.25
  0
LINE
  8
0
 10
139.36
 20
575.25
 11
139.36
 21
360.75
  0
LINE
  8
0
 10
139.36
 20
360.75
 11
139.343
 21
360.486
  0
LINE
  8
0
 10
139.343
 20
360.486
 11
139.293
 21
360.225
  0
LINE
  8
0
 10
139.293
 20
360.225
 11
139.211
 21
359.973
  0
LINE
  8
0
 10
139.211
 20
359.973
 11
139.099
 21
359.734
  0
LINE
  8
0
 10
139.099
 20
359.734
 11
138.957
 21
359.51
  0
LINE
  8
0
 10
138.957
 20
359.51
 11
138.788
 21
359.306
  0
LINE
  8
0
 10
138.788
 20
359.306
 11
138.595
 21
359.124
  0
LINE
  8
0
 10
138.595
 20
359.124
 11
138.38
 21
358.969
  0
LINE
  8
0
 10
138.38
 20
358.969
 11
138.148
 21
358.841
  0
LINE
  8
0
 10
138.148
 20
358.841
 11
137.902
 21
358.744
  0
LINE
  8
0
 10
137.902
 20
358.744
 11
137.645
 21
358.678
  0
LINE
  8
0
 10
137.645
 20
358.678
 11
137.382
 21
358.645
  0
LINE
  8
0
 10
137.382
 20
358.645
 11
-137.382
 21
358.645
  0
ENDSEC
  0
SECTION
  2
OBJECTS
  0
DICTIONARY
  0
ENDSEC
  0
EOF
