<?xml version="1.0" standalone="no"?>
<!DOCTYPE svg PUBLIC "-//W3C//DTD SVG 1.1//EN" "http://www.w3.org/Graphics/SVG/1.1/DTD/svg11.dtd">
<svg width="256mm" height="694mm" viewBox="-128 -1283 256 694" xmlns="http://www.w3.org/2000/svg" version="1.1">
<title>OpenSCAD Model</title>
<path d="
M 123.437,-1057.59 L 124.045,-1057.74 L 124.629,-1057.98 L 125.179,-1058.28 L 125.687,-1058.65 L 126.145,-1059.08
 L 126.545,-1059.56 L 126.882,-1060.09 L 127.149,-1060.66 L 127.343,-1061.26 L 127.461,-1061.87 L 127.5,-1062.5
 L 127.5,-1277.5 L 127.461,-1278.13 L 127.343,-1278.74 L 127.149,-1279.34 L 126.882,-1279.91 L 126.545,-1280.44
 L 126.145,-1280.92 L 125.687,-1281.35 L 125.179,-1281.72 L 124.629,-1282.02 L 124.045,-1282.26 L 123.437,-1282.41
 L 122.814,-1282.49 L -122.814,-1282.49 L -123.437,-1282.41 L -124.045,-1282.26 L -124.629,-1282.02 L -125.179,-1281.72
 L -125.687,-1281.35 L -126.145,-1280.92 L -126.545,-1280.44 L -126.882,-1279.91 L -127.149,-1279.34 L -127.343,-1278.74
 L -127.461,-1278.13 L -127.5,-1277.5 L -127.5,-1062.5 L -127.461,-1061.87 L -127.343,-1061.26 L -127.149,-1060.66
 L -126.882,-1060.09 L -126.545,-1059.56 L -126.145,-1059.08 L -125.687,-1058.65 L -125.179,-1058.28 L -124.629,-1057.98
 L -124.045,-1057.74 L -123.437,-1057.59 L -122.814,-1057.51 L 122.814,-1057.51 z
M -122.548,-1058.01 L -123.14,-1058.08 L -123.718,-1058.23 L -124.272,-1058.45 L -124.795,-1058.74 L -125.278,-1059.09
 L -125.713,-1059.5 L -126.093,-1059.96 L -126.412,-1060.46 L -126.666,-1061 L -126.851,-1061.57 L -126.963,-1062.15
 L -127,-1062.75 L -127,-1277.25 L -126.963,-1277.85 L -126.851,-1278.43 L -126.666,-1279 L -126.412,-1279.54
 L -126.093,-1280.04 L -125.713,-1280.5 L -125.278,-1280.91 L -124.795,-1281.26 L -124.272,-1281.55 L -123.718,-1281.77
 L -123.14,-1281.92 L -122.548,-1281.99 L 122.548,-1281.99 L 123.14,-1281.92 L 123.718,-1281.77 L 124.272,-1281.55
 L 124.795,-1281.26 L 125.278,-1280.91 L 125.713,-1280.5 L 126.093,-1280.04 L 126.412,-1279.54 L 126.666,-1279
 L 126.851,-1278.43 L 126.963,-1277.85 L 127,-1277.25 L 127,-1062.75 L 126.963,-1062.15 L 126.851,-1061.57
 L 126.666,-1061 L 126.412,-1060.46 L 126.093,-1059.96 L 125.713,-1059.5 L 125.278,-1059.09 L 124.795,-1058.74
 L 124.272,-1058.45 L 123.718,-1058.23 L 123.14,-1058.08 L 122.548,-1058.01 z
M 123.437,-823.589 L 124.045,-823.745 L 124.629,-823.976 L 125.179,-824.278 L 125.687,-824.647 L 126.145,-825.077
 L 126.545,-825.561 L 126.882,-826.091 L 127.149,-826.659 L 127.343,-827.257 L 127.461,-827.873 L 127.5,-828.5
 L 127.5,-1043.5 L 127.461,-1044.13 L 127.343,-1044.74 L 127.149,-1045.34 L 126.882,-1045.91 L 126.545,-1046.44
 L 126.145,-1046.92 L 125.687,-1047.35 L 125.179,-1047.72 L 124.629,-1048.02 L 124.045,-1048.26 L 123.437,-1048.41
 L 122.814,-1048.49 L -122.814,-1048.49 L -123.437,-1048.41 L -124.045,-1048.26 L -124.629,-1048.02 L -125.179,-1047.72
 L -125.687,-1047.35 L -126.145,-1046.92 L -126.545,-1046.44 L -126.882,-1045.91 L -127.149,-1045.34 L -127.343,-1044.74
 L -127.461,-1044.13 L -127.5,-1043.5 L -127.5,-828.5 L -127.461,-827.873 L -127.343,-827.257 L -127.149,-826.659
 L -126.882,-826.091 L -126.545,-825.561 L -126.145,-825.077 L -125.687,-824.647 L -125.179,-824.278 L -124.629,-823.976
 L -124.045,-823.745 L -123.437,-823.589 L -122.814,-823.51 L 122.814,-823.51 z
M -122.537,-824.181 L -123.108,-824.253 L -123.665,-824.396 L -124.199,-824.607 L -124.703,-824.884 L -125.168,-825.222
 L -125.588,-825.616 L -125.954,-826.059 L -126.262,-826.544 L -126.507,-827.065 L -126.685,-827.611 L -126.792,-828.176
 L -126.828,-828.75 L -126.828,-1043.25 L -126.792,-1043.82 L -126.685,-1044.39 L -126.507,-1044.94 L -126.262,-1045.46
 L -125.954,-1045.94 L -125.588,-1046.38 L -125.168,-1046.78 L -124.703,-1047.12 L -124.199,-1047.39 L -123.665,-1047.6
 L -123.108,-1047.75 L -122.537,-1047.82 L 122.537,-1047.82 L 123.108,-1047.75 L 123.665,-1047.6 L 124.199,-1047.39
 L 124.703,-1047.12 L 125.168,-1046.78 L 125.588,-1046.38 L 125.954,-1045.94 L 126.262,-1045.46 L 126.507,-1044.94
 L 126.685,-1044.39 L 126.792,-1043.82 L 126.828,-1043.25 L 126.828,-828.75 L 126.792,-828.176 L 126.685,-827.611
 L 126.507,-827.065 L 126.262,-826.544 L 125.954,-826.059 L 125.588,-825.616 L 125.168,-825.222 L 124.703,-824.884
 L 124.199,-824.607 L 123.665,-824.396 L 123.108,-824.253 L 122.537,-824.181 z
M 123.437,-589.589 L 124.045,-589.745 L 124.629,-589.976 L 125.179,-590.278 L 125.687,-590.647 L 126.145,-591.077
 L 126.545,-591.561 L 126.882,-592.091 L 127.149,-592.659 L 127.343,-593.257 L 127.461,-593.873 L 127.5,-594.5
 L 127.5,-809.5 L 127.461,-810.127 L 127.343,-810.743 L 127.149,-811.341 L 126.882,-811.909 L 126.545,-812.439
 L 126.145,-812.923 L 125.687,-813.353 L 125.179,-813.722 L 124.629,-814.024 L 124.045,-814.255 L 123.437,-814.411
 L 122.814,-814.49 L -122.814,-814.49 L -123.437,-814.411 L -124.045,-814.255 L -124.629,-814.024 L -125.179,-813.722
 L -125.687,-813.353 L -126.145,-812.923 L -126.545,-812.439 L -126.882,-811.909 L -127.149,-811.341 L -127.343,-810.743
 L -127.461,-810.127 L -127.5,-809.5 L -127.5,-594.5 L -127.461,-593.873 L -127.343,-593.257 L -127.149,-592.659
 L -126.882,-592.091 L -126.545,-591.561 L -126.145,-591.077 L -125.687,-590.647 L -125.179,-590.278 L -124.629,-589.976
 L -124.045,-589.745 L -123.437,-589.589 L -122.814,-589.51 L 122.814,-589.51 z
M -122.382,-592.645 L -122.645,-592.678 L -122.902,-592.744 L -123.148,-592.841 L -123.38,-592.969 L -123.595,-593.124
 L -123.788,-593.306 L -123.957,-593.51 L -124.099,-593.734 L -124.211,-593.973 L -124.293,-594.225 L -124.343,-594.486
 L -124.36,-594.75 L -124.36,-809.25 L -124.343,-809.514 L -124.293,-809.775 L -124.211,-810.027 L -124.099,-810.266
 L -123.957,-810.49 L -123.788,-810.694 L -123.595,-810.876 L -123.38,-811.031 L -123.148,-811.159 L -122.902,-811.256
 L -122.645,-811.322 L -122.382,-811.355 L 122.382,-811.355 L 122.645,-811.322 L 122.902,-811.256 L 123.148,-811.159
 L 123.38,-811.031 L 123.595,-810.876 L 123.788,-810.694 L 123.957,-810.49 L 124.099,-810.266 L 124.211,-810.027
 L 124.293,-809.775 L 124.343,-809.514 L 124.36,-809.25 L 124.36,-594.75 L 124.343,-594.486 L 124.293,-594.225
 L 124.211,-593.973 L 124.099,-593.734 L 123.957,-593.51 L 123.788,-593.306 L 123.595,-593.124 L 123.38,-592.969
 L 123.148,-592.841 L 122.902,-592.744 L 122.645,-592.678 L 122.382,-592.645 z
" stroke="black" fill="lightgray" stroke-width="0.5"/>
</svg>
