<?xml version="1.0" standalone="no"?>
<!DOCTYPE svg PUBLIC "-//W3C//DTD SVG 1.1//EN" "http://www.w3.org/Graphics/SVG/1.1/DTD/svg11.dtd">
<svg width="104mm" height="60mm" viewBox="-52 -30 104 60" xmlns="http://www.w3.org/2000/svg" version="1.1">
<title>OpenSCAD Model</title>
<path d="
M 47.9369,29.4114 L 48.5451,29.2553 L 49.1289,29.0241 L 49.6791,28.7216 L 50.1871,28.3526 L 50.6448,27.9227
 L 51.0451,27.4389 L 51.3815,26.9088 L 51.6489,26.3406 L 51.8429,25.7434 L 51.9606,25.1267 L 52,24.5
 L 52,-24.5 L 51.9606,-25.1267 L 51.8429,-25.7434 L 51.6489,-26.3406 L 51.3815,-26.9088 L 51.0451,-27.4389
 L 50.6448,-27.9227 L 50.1871,-28.3526 L 49.6791,-28.7216 L 49.1289,-29.0241 L 48.5451,-29.2553 L 47.9369,-29.4114
 L 47.3139,-29.4901 L -47.3139,-29.4901 L -47.9369,-29.4114 L -48.5451,-29.2553 L -49.1289,-29.0241 L -49.6791,-28.7216
 L -50.1871,-28.3526 L -50.6448,-27.9227 L -51.0451,-27.4389 L -51.3815,-26.9088 L -51.6489,-26.3406 L -51.8429,-25.7434
 L -51.9606,-25.1267 L -52,-24.5 L -52,24.5 L -51.9606,25.1267 L -51.8429,25.7434 L -51.6489,26.3406
 L -51.3815,26.9088 L -51.0451,27.4389 L -50.6448,27.9227 L -50.1871,28.3526 L -49.6791,28.7216 L -49.1289,29.0241
 L -48.5451,29.2553 L -47.9369,29.4114 L -47.3139,29.4901 L 47.3139,29.4901 z
M -17.9057,-23.2461 L -17.7893,-23.6044 L -17.6289,-23.9453 L -17.427,-24.2634 L -17.1869,-24.5536 L -16.9123,-24.8115
 L -16.6075,-25.033 L -16.2773,-25.2145 L -15.927,-25.3532 L -15.5621,-25.4469 L -15.1884,-25.4941 L -14.8116,-25.4941
 L -14.4379,-25.4469 L -14.0729,-25.3532 L -13.7227,-25.2145 L -13.3925,-25.033 L -13.0877,-24.8115 L -12.8131,-24.5536
 L -12.5729,-24.2634 L -12.3711,-23.9453 L -12.2107,-23.6044 L -12.0942,-23.2461 L -12.0237,-22.876 L -12,-22.5
 L -12.0237,-22.124 L -12.0942,-21.7539 L -12.2107,-21.3956 L -12.3711,-21.0547 L -12.5729,-20.7366 L -12.8131,-20.4464
 L -13.0877,-20.1884 L -13.3925,-19.967 L -13.7227,-19.7855 L -14.0729,-19.6468 L -14.4379,-19.5531 L -14.8116,-19.5059
 L -15.1884,-19.5059 L -15.5621,-19.5531 L -15.927,-19.6468 L -16.2773,-19.7855 L -16.6075,-19.967 L -16.9123,-20.1884
 L -17.1869,-20.4464 L -17.427,-20.7366 L -17.6289,-21.0547 L -17.7893,-21.3956 L -17.9057,-21.7539 L -17.9763,-22.124
 L -18,-22.5 L -17.9763,-22.876 z
M 44.8116,-19.5059 L 44.4379,-19.5531 L 44.0729,-19.6468 L 43.7227,-19.7855 L 43.3925,-19.967 L 43.0877,-20.1884
 L 42.8131,-20.4464 L 42.5729,-20.7366 L 42.3711,-21.0547 L 42.2107,-21.3956 L 42.0942,-21.7539 L 42.0237,-22.124
 L 42,-22.5 L 42.0237,-22.876 L 42.0942,-23.2461 L 42.2107,-23.6044 L 42.3711,-23.9453 L 42.5729,-24.2634
 L 42.8131,-24.5536 L 43.0877,-24.8115 L 43.3925,-25.033 L 43.7227,-25.2145 L 44.0729,-25.3532 L 44.4379,-25.4469
 L 44.8116,-25.4941 L 45.1884,-25.4941 L 45.5621,-25.4469 L 45.927,-25.3532 L 46.2773,-25.2145 L 46.6075,-25.033
 L 46.9123,-24.8115 L 47.1869,-24.5536 L 47.427,-24.2634 L 47.6289,-23.9453 L 47.7893,-23.6044 L 47.9057,-23.2461
 L 47.9763,-22.876 L 48,-22.5 L 47.9763,-22.124 L 47.9057,-21.7539 L 47.7893,-21.3956 L 47.6289,-21.0547
 L 47.427,-20.7366 L 47.1869,-20.4464 L 46.9123,-20.1884 L 46.6075,-19.967 L 46.2773,-19.7855 L 45.927,-19.6468
 L 45.5621,-19.5531 L 45.1884,-19.5059 z
M 29.8116,-19.5059 L 29.4379,-19.5531 L 29.0729,-19.6468 L 28.7227,-19.7855 L 28.3925,-19.967 L 28.0877,-20.1884
 L 27.8131,-20.4464 L 27.5729,-20.7366 L 27.3711,-21.0547 L 27.2107,-21.3956 L 27.0942,-21.7539 L 27.0237,-22.124
 L 27,-22.5 L 27.0237,-22.876 L 27.0942,-23.2461 L 27.2107,-23.6044 L 27.3711,-23.9453 L 27.5729,-24.2634
 L 27.8131,-24.5536 L 28.0877,-24.8115 L 28.3925,-25.033 L 28.7227,-25.2145 L 29.0729,-25.3532 L 29.4379,-25.4469
 L 29.8116,-25.4941 L 30.1884,-25.4941 L 30.5621,-25.4469 L 30.927,-25.3532 L 31.2773,-25.2145 L 31.6075,-25.033
 L 31.9123,-24.8115 L 32.1869,-24.5536 L 32.427,-24.2634 L 32.6289,-23.9453 L 32.7893,-23.6044 L 32.9057,-23.2461
 L 32.9763,-22.876 L 33,-22.5 L 32.9763,-22.124 L 32.9057,-21.7539 L 32.7893,-21.3956 L 32.6289,-21.0547
 L 32.427,-20.7366 L 32.1869,-20.4464 L 31.9123,-20.1884 L 31.6075,-19.967 L 31.2773,-19.7855 L 30.927,-19.6468
 L 30.5621,-19.5531 L 30.1884,-19.5059 z
M 14.8116,-19.5059 L 14.4379,-19.5531 L 14.0729,-19.6468 L 13.7227,-19.7855 L 13.3925,-19.967 L 13.0877,-20.1884
 L 12.8131,-20.4464 L 12.5729,-20.7366 L 12.3711,-21.0547 L 12.2107,-21.3956 L 12.0942,-21.7539 L 12.0237,-22.124
 L 12,-22.5 L 12.0237,-22.876 L 12.0942,-23.2461 L 12.2107,-23.6044 L 12.3711,-23.9453 L 12.5729,-24.2634
 L 12.8131,-24.5536 L 13.0877,-24.8115 L 13.3925,-25.033 L 13.7227,-25.2145 L 14.0729,-25.3532 L 14.4379,-25.4469
 L 14.8116,-25.4941 L 15.1884,-25.4941 L 15.5621,-25.4469 L 15.927,-25.3532 L 16.2773,-25.2145 L 16.6075,-25.033
 L 16.9123,-24.8115 L 17.1869,-24.5536 L 17.427,-24.2634 L 17.6289,-23.9453 L 17.7893,-23.6044 L 17.9057,-23.2461
 L 17.9763,-22.876 L 18,-22.5 L 17.9763,-22.124 L 17.9057,-21.7539 L 17.7893,-21.3956 L 17.6289,-21.0547
 L 17.427,-20.7366 L 17.1869,-20.4464 L 16.9123,-20.1884 L 16.6075,-19.967 L 16.2773,-19.7855 L 15.927,-19.6468
 L 15.5621,-19.5531 L 15.1884,-19.5059 z
M -0.18837,-19.5059 L -0.562134,-19.5531 L -0.927048,-19.6468 L -1.27733,-19.7855 L -1.60747,-19.967 L -1.91226,-20.1884
 L -2.1869,-20.4464 L -2.42705,-20.7366 L -2.62891,-21.0547 L -2.78932,-21.3956 L -2.90575,-21.7539 L -2.97633,-22.124
 L -3,-22.5 L -2.97633,-22.876 L -2.90575,-23.2461 L -2.78932,-23.6044 L -2.62891,-23.9453 L -2.42705,-24.2634
 L -2.1869,-24.5536 L -1.91226,-24.8115 L -1.60747,-25.033 L -1.27733,-25.2145 L -0.927048,-25.3532 L -0.562134,-25.4469
 L -0.18837,-25.4941 L 0.18837,-25.4941 L 0.562134,-25.4469 L 0.927048,-25.3532 L 1.27733,-25.2145 L 1.60747,-25.033
 L 1.91226,-24.8115 L 2.1869,-24.5536 L 2.42705,-24.2634 L 2.62891,-23.9453 L 2.78932,-23.6044 L 2.90575,-23.2461
 L 2.97633,-22.876 L 3,-22.5 L 2.97633,-22.124 L 2.90575,-21.7539 L 2.78932,-21.3956 L 2.62891,-21.0547
 L 2.42705,-20.7366 L 2.1869,-20.4464 L 1.91226,-20.1884 L 1.60747,-19.967 L 1.27733,-19.7855 L 0.927048,-19.6468
 L 0.562134,-19.5531 L 0.18837,-19.5059 z
M -45.1884,-19.5059 L -45.5621,-19.5531 L -45.927,-19.6468 L -46.2773,-19.7855 L -46.6075,-19.967 L -46.9123,-20.1884
 L -47.1869,-20.4464 L -47.427,-20.7366 L -47.6289,-21.0547 L -47.7893,-21.3956 L -47.9057,-21.7539 L -47.9763,-22.124
 L -48,-22.5 L -47.9763,-22.876 L -47.9057,-23.2461 L -47.7893,-23.6044 L -47.6289,-23.9453 L -47.427,-24.2634
 L -47.1869,-24.5536 L -46.9123,-24.8115 L -46.6075,-25.033 L -46.2773,-25.2145 L -45.927,-25.3532 L -45.5621,-25.4469
 L -45.1884,-25.4941 L -44.8116,-25.4941 L -44.4379,-25.4469 L -44.0729,-25.3532 L -43.7227,-25.2145 L -43.3925,-25.033
 L -43.0877,-24.8115 L -42.8131,-24.5536 L -42.5729,-24.2634 L -42.3711,-23.9453 L -42.2107,-23.6044 L -42.0942,-23.2461
 L -42.0237,-22.876 L -42,-22.5 L -42.0237,-22.124 L -42.0942,-21.7539 L -42.2107,-21.3956 L -42.3711,-21.0547
 L -42.5729,-20.7366 L -42.8131,-20.4464 L -43.0877,-20.1884 L -43.3925,-19.967 L -43.7227,-19.7855 L -44.0729,-19.6468
 L -44.4379,-19.5531 L -44.8116,-19.5059 z
M -32.9057,-23.2461 L -32.7893,-23.6044 L -32.6289,-23.9453 L -32.427,-24.2634 L -32.1869,-24.5536 L -31.9123,-24.8115
 L -31.6075,-25.033 L -31.2773,-25.2145 L -30.927,-25.3532 L -30.5621,-25.4469 L -30.1884,-25.4941 L -29.8116,-25.4941
 L -29.4379,-25.4469 L -29.0729,-25.3532 L -28.7227,-25.2145 L -28.3925,-25.033 L -28.0877,-24.8115 L -27.8131,-24.5536
 L -27.5729,-24.2634 L -27.3711,-23.9453 L -27.2107,-23.6044 L -27.0942,-23.2461 L -27.0237,-22.876 L -27,-22.5
 L -27.0237,-22.124 L -27.0942,-21.7539 L -27.2107,-21.3956 L -27.3711,-21.0547 L -27.5729,-20.7366 L -27.8131,-20.4464
 L -28.0877,-20.1884 L -28.3925,-19.967 L -28.7227,-19.7855 L -29.0729,-19.6468 L -29.4379,-19.5531 L -29.8116,-19.5059
 L -30.1884,-19.5059 L -30.5621,-19.5531 L -30.927,-19.6468 L -31.2773,-19.7855 L -31.6075,-19.967 L -31.9123,-20.1884
 L -32.1869,-20.4464 L -32.427,-20.7366 L -32.6289,-21.0547 L -32.7893,-21.3956 L -32.9057,-21.7539 L -32.9763,-22.124
 L -33,-22.5 L -32.9763,-22.876 z
M 37.4058,-21.003 L 37.2189,-21.0266 L 37.0365,-21.0734 L 36.8613,-21.1427 L 36.6963,-21.2335 L 36.5439,-21.3442
 L 36.4065,-21.4732 L 36.2865,-21.6183 L 36.1855,-21.7774 L 36.1053,-21.9478 L 36.0471,-22.127 L 36.0118,-22.312
 L 36,-22.5 L 36.0118,-22.688 L 36.0471,-22.873 L 36.1053,-23.0522 L 36.1855,-23.2226 L 36.2865,-23.3817
 L 36.4065,-23.5268 L 36.5439,-23.6558 L 36.6963,-23.7665 L 36.8613,-23.8572 L 37.0365,-23.9266 L 37.2189,-23.9734
 L 37.4058,-23.997 L 37.5942,-23.997 L 37.7811,-23.9734 L 37.9635,-23.9266 L 38.1387,-23.8572 L 38.3037,-23.7665
 L 38.4561,-23.6558 L 38.5934,-23.5268 L 38.7135,-23.3817 L 38.8145,-23.2226 L 38.8947,-23.0522 L 38.9529,-22.873
 L 38.9882,-22.688 L 39,-22.5 L 38.9882,-22.312 L 38.9529,-22.127 L 38.8947,-21.9478 L 38.8145,-21.7774
 L 38.7135,-21.6183 L 38.5934,-21.4732 L 38.4561,-21.3442 L 38.3037,-21.2335 L 38.1387,-21.1427 L 37.9635,-21.0734
 L 37.7811,-21.0266 L 37.5942,-21.003 z
M -7.59418,-21.003 L -7.78107,-21.0266 L -7.96352,-21.0734 L -8.13866,-21.1427 L -8.30373,-21.2335 L -8.45613,-21.3442
 L -8.59344,-21.4732 L -8.71352,-21.6183 L -8.81445,-21.7774 L -8.89465,-21.9478 L -8.95287,-22.127 L -8.98816,-22.312
 L -9,-22.5 L -8.98816,-22.688 L -8.95287,-22.873 L -8.89465,-23.0522 L -8.81445,-23.2226 L -8.71352,-23.3817
 L -8.59344,-23.5268 L -8.45613,-23.6558 L -8.30373,-23.7665 L -8.13866,-23.8572 L -7.96352,-23.9266 L -7.78107,-23.9734
 L -7.59418,-23.997 L -7.40581,-23.997 L -7.21892,-23.9734 L -7.03647,-23.9266 L -6.86133,-23.8572 L -6.69626,-23.7665
 L -6.54385,-23.6558 L -6.40654,-23.5268 L -6.28647,-23.3817 L -6.18553,-23.2226 L -6.10533,-23.0522 L -6.04712,-22.873
 L -6.01183,-22.688 L -6,-22.5 L -6.01183,-22.312 L -6.04712,-22.127 L -6.10533,-21.9478 L -6.18553,-21.7774
 L -6.28647,-21.6183 L -6.40654,-21.4732 L -6.54385,-21.3442 L -6.69626,-21.2335 L -6.86133,-21.1427 L -7.03647,-21.0734
 L -7.21892,-21.0266 L -7.40581,-21.003 z
M 7.40581,-21.003 L 7.21892,-21.0266 L 7.03647,-21.0734 L 6.86133,-21.1427 L 6.69626,-21.2335 L 6.54385,-21.3442
 L 6.40654,-21.4732 L 6.28647,-21.6183 L 6.18553,-21.7774 L 6.10533,-21.9478 L 6.04712,-22.127 L 6.01183,-22.312
 L 6,-22.5 L 6.01183,-22.688 L 6.04712,-22.873 L 6.10533,-23.0522 L 6.18553,-23.2226 L 6.28647,-23.3817
 L 6.40654,-23.5268 L 6.54385,-23.6558 L 6.69626,-23.7665 L 6.86133,-23.8572 L 7.03647,-23.9266 L 7.21892,-23.9734
 L 7.40581,-23.997 L 7.59418,-23.997 L 7.78107,-23.9734 L 7.96352,-23.9266 L 8.13866,-23.8572 L 8.30373,-23.7665
 L 8.45613,-23.6558 L 8.59344,-23.5268 L 8.71352,-23.3817 L 8.81445,-23.2226 L 8.89465,-23.0522 L 8.95287,-22.873
 L 8.98816,-22.688 L 9,-22.5 L 8.98816,-22.312 L 8.95287,-22.127 L 8.89465,-21.9478 L 8.81445,-21.7774
 L 8.71352,-21.6183 L 8.59344,-21.4732 L 8.45613,-21.3442 L 8.30373,-21.2335 L 8.13866,-21.1427 L 7.96352,-21.0734
 L 7.78107,-21.0266 L 7.59418,-21.003 z
M 22.4058,-21.003 L 22.2189,-21.0266 L 22.0365,-21.0734 L 21.8613,-21.1427 L 21.6963,-21.2335 L 21.5439,-21.3442
 L 21.4065,-21.4732 L 21.2865,-21.6183 L 21.1855,-21.7774 L 21.1053,-21.9478 L 21.0471,-22.127 L 21.0118,-22.312
 L 21,-22.5 L 21.0118,-22.688 L 21.0471,-22.873 L 21.1053,-23.0522 L 21.1855,-23.2226 L 21.2865,-23.3817
 L 21.4065,-23.5268 L 21.5439,-23.6558 L 21.6963,-23.7665 L 21.8613,-23.8572 L 22.0365,-23.9266 L 22.2189,-23.9734
 L 22.4058,-23.997 L 22.5942,-23.997 L 22.7811,-23.9734 L 22.9635,-23.9266 L 23.1387,-23.8572 L 23.3037,-23.7665
 L 23.4561,-23.6558 L 23.5934,-23.5268 L 23.7135,-23.3817 L 23.8145,-23.2226 L 23.8947,-23.0522 L 23.9529,-22.873
 L 23.9882,-22.688 L 24,-22.5 L 23.9882,-22.312 L 23.9529,-22.127 L 23.8947,-21.9478 L 23.8145,-21.7774
 L 23.7135,-21.6183 L 23.5934,-21.4732 L 23.4561,-21.3442 L 23.3037,-21.2335 L 23.1387,-21.1427 L 22.9635,-21.0734
 L 22.7811,-21.0266 L 22.5942,-21.003 z
M -45.0942,-13.5029 L -45.2811,-13.5266 L -45.4635,-13.5734 L -45.6387,-13.6427 L -45.8037,-13.7335 L -45.9561,-13.8442
 L -46.0934,-13.9732 L -46.2135,-14.1183 L -46.3145,-14.2774 L -46.3947,-14.4478 L -46.4529,-14.627 L -46.4882,-14.812
 L -46.5,-15 L -46.4882,-15.188 L -46.4529,-15.373 L -46.3947,-15.5522 L -46.3145,-15.7226 L -46.2135,-15.8817
 L -46.0934,-16.0268 L -45.9561,-16.1558 L -45.8037,-16.2665 L -45.6387,-16.3572 L -45.4635,-16.4266 L -45.2811,-16.4734
 L -45.0942,-16.497 L -44.9058,-16.497 L -44.7189,-16.4734 L -44.5365,-16.4266 L -44.3613,-16.3572 L -44.1963,-16.2665
 L -44.0439,-16.1558 L -43.9065,-16.0268 L -43.7865,-15.8817 L -43.6855,-15.7226 L -43.6053,-15.5522 L -43.5471,-15.373
 L -43.5118,-15.188 L -43.5,-15 L -43.5118,-14.812 L -43.5471,-14.627 L -43.6053,-14.4478 L -43.6855,-14.2774
 L -43.7865,-14.1183 L -43.9065,-13.9732 L -44.0439,-13.8442 L -44.1963,-13.7335 L -44.3613,-13.6427 L -44.5365,-13.5734
 L -44.7189,-13.5266 L -44.9058,-13.5029 z
M 44.9058,-13.5029 L 44.7189,-13.5266 L 44.5365,-13.5734 L 44.3613,-13.6427 L 44.1963,-13.7335 L 44.0439,-13.8442
 L 43.9065,-13.9732 L 43.7865,-14.1183 L 43.6855,-14.2774 L 43.6053,-14.4478 L 43.5471,-14.627 L 43.5118,-14.812
 L 43.5,-15 L 43.5118,-15.188 L 43.5471,-15.373 L 43.6053,-15.5522 L 43.6855,-15.7226 L 43.7865,-15.8817
 L 43.9065,-16.0268 L 44.0439,-16.1558 L 44.1963,-16.2665 L 44.3613,-16.3572 L 44.5365,-16.4266 L 44.7189,-16.4734
 L 44.9058,-16.497 L 45.0942,-16.497 L 45.2811,-16.4734 L 45.4635,-16.4266 L 45.6387,-16.3572 L 45.8037,-16.2665
 L 45.9561,-16.1558 L 46.0934,-16.0268 L 46.2135,-15.8817 L 46.3145,-15.7226 L 46.3947,-15.5522 L 46.4529,-15.373
 L 46.4882,-15.188 L 46.5,-15 L 46.4882,-14.812 L 46.4529,-14.627 L 46.3947,-14.4478 L 46.3145,-14.2774
 L 46.2135,-14.1183 L 46.0934,-13.9732 L 45.9561,-13.8442 L 45.8037,-13.7335 L 45.6387,-13.6427 L 45.4635,-13.5734
 L 45.2811,-13.5266 L 45.0942,-13.5029 z
M 31.3493,-7.60472 L 31.0503,-7.6425 L 30.7583,-7.71745 L 30.4781,-7.82841 L 30.214,-7.9736 L 29.9702,-8.15076
 L 29.7505,-8.35709 L 29.5583,-8.58931 L 29.3969,-8.84378 L 29.2685,-9.1165 L 29.1754,-9.40314 L 29.1189,-9.69919
 L 29.1,-10 L 29.1189,-10.3008 L 29.1754,-10.5968 L 29.2685,-10.8835 L 29.3969,-11.1562 L 29.5583,-11.4107
 L 29.7505,-11.6429 L 29.9702,-11.8492 L 30.214,-12.0264 L 30.4781,-12.1716 L 30.7583,-12.2825 L 31.0503,-12.3575
 L 31.3493,-12.3953 L 31.6507,-12.3953 L 31.9497,-12.3575 L 32.2416,-12.2825 L 32.5219,-12.1716 L 32.786,-12.0264
 L 33.0298,-11.8492 L 33.2495,-11.6429 L 33.4416,-11.4107 L 33.6031,-11.1562 L 33.7315,-10.8835 L 33.8246,-10.5968
 L 33.8811,-10.3008 L 33.9,-10 L 33.8811,-9.69919 L 33.8246,-9.40314 L 33.7315,-9.1165 L 33.6031,-8.84378
 L 33.4416,-8.58931 L 33.2495,-8.35709 L 33.0298,-8.15076 L 32.786,-7.9736 L 32.5219,-7.82841 L 32.2416,-7.71745
 L 31.9497,-7.6425 L 31.6507,-7.60472 z
M -32.6507,-7.60472 L -32.9497,-7.6425 L -33.2416,-7.71745 L -33.5219,-7.82841 L -33.786,-7.9736 L -34.0298,-8.15076
 L -34.2495,-8.35709 L -34.4416,-8.58931 L -34.6031,-8.84378 L -34.7315,-9.1165 L -34.8246,-9.40314 L -34.8811,-9.69919
 L -34.9,-10 L -34.8811,-10.3008 L -34.8246,-10.5968 L -34.7315,-10.8835 L -34.6031,-11.1562 L -34.4416,-11.4107
 L -34.2495,-11.6429 L -34.0298,-11.8492 L -33.786,-12.0264 L -33.5219,-12.1716 L -33.2416,-12.2825 L -32.9497,-12.3575
 L -32.6507,-12.3953 L -32.3493,-12.3953 L -32.0503,-12.3575 L -31.7583,-12.2825 L -31.4781,-12.1716 L -31.214,-12.0264
 L -30.9702,-11.8492 L -30.7505,-11.6429 L -30.5583,-11.4107 L -30.3969,-11.1562 L -30.2685,-10.8835 L -30.1754,-10.5968
 L -30.1189,-10.3008 L -30.1,-10 L -30.1189,-9.69919 L -30.1754,-9.40314 L -30.2685,-9.1165 L -30.3969,-8.84378
 L -30.5583,-8.58931 L -30.7505,-8.35709 L -30.9702,-8.15076 L -31.214,-7.9736 L -31.4781,-7.82841 L -31.7583,-7.71745
 L -32.0503,-7.6425 L -32.3493,-7.60472 z
M 44.8116,-4.50591 L 44.4379,-4.55313 L 44.0729,-4.64682 L 43.7227,-4.78551 L 43.3925,-4.96701 L 43.0877,-5.18845
 L 42.8131,-5.44635 L 42.5729,-5.73663 L 42.3711,-6.05473 L 42.2107,-6.39561 L 42.0942,-6.75392 L 42.0237,-7.12399
 L 42,-7.5 L 42.0237,-7.87599 L 42.0942,-8.24606 L 42.2107,-8.60437 L 42.3711,-8.94525 L 42.5729,-9.26335
 L 42.8131,-9.55363 L 43.0877,-9.81154 L 43.3925,-10.033 L 43.7227,-10.2145 L 44.0729,-10.3532 L 44.4379,-10.4469
 L 44.8116,-10.4941 L 45.1884,-10.4941 L 45.5621,-10.4469 L 45.927,-10.3532 L 46.2773,-10.2145 L 46.6075,-10.033
 L 46.9123,-9.81154 L 47.1869,-9.55363 L 47.427,-9.26335 L 47.6289,-8.94525 L 47.7893,-8.60437 L 47.9057,-8.24606
 L 47.9763,-7.87599 L 48,-7.5 L 47.9763,-7.12399 L 47.9057,-6.75392 L 47.7893,-6.39561 L 47.6289,-6.05473
 L 47.427,-5.73663 L 47.1869,-5.44635 L 46.9123,-5.18845 L 46.6075,-4.96701 L 46.2773,-4.78551 L 45.927,-4.64682
 L 45.5621,-4.55313 L 45.1884,-4.50591 z
M -45.1884,-4.50591 L -45.5621,-4.55313 L -45.927,-4.64682 L -46.2773,-4.78551 L -46.6075,-4.96701 L -46.9123,-5.18845
 L -47.1869,-5.44635 L -47.427,-5.73663 L -47.6289,-6.05473 L -47.7893,-6.39561 L -47.9057,-6.75392 L -47.9763,-7.12399
 L -48,-7.5 L -47.9763,-7.87599 L -47.9057,-8.24606 L -47.7893,-8.60437 L -47.6289,-8.94525 L -47.427,-9.26335
 L -47.1869,-9.55363 L -46.9123,-9.81154 L -46.6075,-10.033 L -46.2773,-10.2145 L -45.927,-10.3532 L -45.5621,-10.4469
 L -45.1884,-10.4941 L -44.8116,-10.4941 L -44.4379,-10.4469 L -44.0729,-10.3532 L -43.7227,-10.2145 L -43.3925,-10.033
 L -43.0877,-9.81154 L -42.8131,-9.55363 L -42.5729,-9.26335 L -42.3711,-8.94525 L -42.2107,-8.60437 L -42.0942,-8.24606
 L -42.0237,-7.87599 L -42,-7.5 L -42.0237,-7.12399 L -42.0942,-6.75392 L -42.2107,-6.39561 L -42.3711,-6.05473
 L -42.5729,-5.73663 L -42.8131,-5.44635 L -43.0877,-5.18845 L -43.3925,-4.96701 L -43.7227,-4.78551 L -44.0729,-4.64682
 L -44.4379,-4.55313 L -44.8116,-4.50591 z
M 44.9058,1.49704 L 44.7189,1.47342 L 44.5365,1.42657 L 44.3613,1.35724 L 44.1963,1.26648 L 44.0439,1.15576
 L 43.9065,1.02681 L 43.7865,0.881668 L 43.6855,0.722626 L 43.6053,0.552185 L 43.5471,0.373032 L 43.5118,0.187988
 L 43.5,-0 L 43.5118,-0.187988 L 43.5471,-0.373032 L 43.6053,-0.552185 L 43.6855,-0.722626 L 43.7865,-0.881668
 L 43.9065,-1.02681 L 44.0439,-1.15576 L 44.1963,-1.26648 L 44.3613,-1.35724 L 44.5365,-1.42657 L 44.7189,-1.47342
 L 44.9058,-1.49704 L 45.0942,-1.49704 L 45.2811,-1.47342 L 45.4635,-1.42657 L 45.6387,-1.35724 L 45.8037,-1.26648
 L 45.9561,-1.15576 L 46.0934,-1.02681 L 46.2135,-0.881668 L 46.3145,-0.722626 L 46.3947,-0.552185 L 46.4529,-0.373032
 L 46.4882,-0.187988 L 46.5,-0 L 46.4882,0.187988 L 46.4529,0.373032 L 46.3947,0.552185 L 46.3145,0.722626
 L 46.2135,0.881668 L 46.0934,1.02681 L 45.9561,1.15576 L 45.8037,1.26648 L 45.6387,1.35724 L 45.4635,1.42657
 L 45.2811,1.47342 L 45.0942,1.49704 z
M -45.0942,1.49704 L -45.2811,1.47342 L -45.4635,1.42657 L -45.6387,1.35724 L -45.8037,1.26648 L -45.9561,1.15576
 L -46.0934,1.02681 L -46.2135,0.881668 L -46.3145,0.722626 L -46.3947,0.552185 L -46.4529,0.373032 L -46.4882,0.187988
 L -46.5,-0 L -46.4882,-0.187988 L -46.4529,-0.373032 L -46.3947,-0.552185 L -46.3145,-0.722626 L -46.2135,-0.881668
 L -46.0934,-1.02681 L -45.9561,-1.15576 L -45.8037,-1.26648 L -45.6387,-1.35724 L -45.4635,-1.42657 L -45.2811,-1.47342
 L -45.0942,-1.49704 L -44.9058,-1.49704 L -44.7189,-1.47342 L -44.5365,-1.42657 L -44.3613,-1.35724 L -44.1963,-1.26648
 L -44.0439,-1.15576 L -43.9065,-1.02681 L -43.7865,-0.881668 L -43.6855,-0.722626 L -43.6053,-0.552185 L -43.5471,-0.373032
 L -43.5118,-0.187988 L -43.5,-0 L -43.5118,0.187988 L -43.5471,0.373032 L -43.6053,0.552185 L -43.6855,0.722626
 L -43.7865,0.881668 L -43.9065,1.02681 L -44.0439,1.15576 L -44.1963,1.26648 L -44.3613,1.35724 L -44.5365,1.42657
 L -44.7189,1.47342 L -44.9058,1.49704 z
M 44.8116,10.4941 L 44.4379,10.4469 L 44.0729,10.3532 L 43.7227,10.2145 L 43.3925,10.033 L 43.0877,9.81154
 L 42.8131,9.55363 L 42.5729,9.26335 L 42.3711,8.94525 L 42.2107,8.60437 L 42.0942,8.24606 L 42.0237,7.87599
 L 42,7.5 L 42.0237,7.12399 L 42.0942,6.75392 L 42.2107,6.39561 L 42.3711,6.05473 L 42.5729,5.73663
 L 42.8131,5.44635 L 43.0877,5.18845 L 43.3925,4.96701 L 43.7227,4.78551 L 44.0729,4.64682 L 44.4379,4.55313
 L 44.8116,4.50591 L 45.1884,4.50591 L 45.5621,4.55313 L 45.927,4.64682 L 46.2773,4.78551 L 46.6075,4.96701
 L 46.9123,5.18845 L 47.1869,5.44635 L 47.427,5.73663 L 47.6289,6.05473 L 47.7893,6.39561 L 47.9057,6.75392
 L 47.9763,7.12399 L 48,7.5 L 47.9763,7.87599 L 47.9057,8.24606 L 47.7893,8.60437 L 47.6289,8.94525
 L 47.427,9.26335 L 47.1869,9.55363 L 46.9123,9.81154 L 46.6075,10.033 L 46.2773,10.2145 L 45.927,10.3532
 L 45.5621,10.4469 L 45.1884,10.4941 z
M -45.1884,10.4941 L -45.5621,10.4469 L -45.927,10.3532 L -46.2773,10.2145 L -46.6075,10.033 L -46.9123,9.81154
 L -47.1869,9.55363 L -47.427,9.26335 L -47.6289,8.94525 L -47.7893,8.60437 L -47.9057,8.24606 L -47.9763,7.87599
 L -48,7.5 L -47.9763,7.12399 L -47.9057,6.75392 L -47.7893,6.39561 L -47.6289,6.05473 L -47.427,5.73663
 L -47.1869,5.44635 L -46.9123,5.18845 L -46.6075,4.96701 L -46.2773,4.78551 L -45.927,4.64682 L -45.5621,4.55313
 L -45.1884,4.50591 L -44.8116,4.50591 L -44.4379,4.55313 L -44.0729,4.64682 L -43.7227,4.78551 L -43.3925,4.96701
 L -43.0877,5.18845 L -42.8131,5.44635 L -42.5729,5.73663 L -42.3711,6.05473 L -42.2107,6.39561 L -42.0942,6.75392
 L -42.0237,7.12399 L -42,7.5 L -42.0237,7.87599 L -42.0942,8.24606 L -42.2107,8.60437 L -42.3711,8.94525
 L -42.5729,9.26335 L -42.8131,9.55363 L -43.0877,9.81154 L -43.3925,10.033 L -43.7227,10.2145 L -44.0729,10.3532
 L -44.4379,10.4469 L -44.8116,10.4941 z
M 31.3493,12.3953 L 31.0503,12.3575 L 30.7583,12.2825 L 30.4781,12.1716 L 30.214,12.0264 L 29.9702,11.8492
 L 29.7505,11.6429 L 29.5583,11.4107 L 29.3969,11.1562 L 29.2685,10.8835 L 29.1754,10.5968 L 29.1189,10.3008
 L 29.1,10 L 29.1189,9.69919 L 29.1754,9.40314 L 29.2685,9.1165 L 29.3969,8.84378 L 29.5583,8.58931
 L 29.7505,8.35709 L 29.9702,8.15076 L 30.214,7.9736 L 30.4781,7.82841 L 30.7583,7.71745 L 31.0503,7.6425
 L 31.3493,7.60472 L 31.6507,7.60472 L 31.9497,7.6425 L 32.2416,7.71745 L 32.5219,7.82841 L 32.786,7.9736
 L 33.0298,8.15076 L 33.2495,8.35709 L 33.4416,8.58931 L 33.6031,8.84378 L 33.7315,9.1165 L 33.8246,9.40314
 L 33.8811,9.69919 L 33.9,10 L 33.8811,10.3008 L 33.8246,10.5968 L 33.7315,10.8835 L 33.6031,11.1562
 L 33.4416,11.4107 L 33.2495,11.6429 L 33.0298,11.8492 L 32.786,12.0264 L 32.5219,12.1716 L 32.2416,12.2825
 L 31.9497,12.3575 L 31.6507,12.3953 z
M -24.6507,12.3953 L -24.9497,12.3575 L -25.2416,12.2825 L -25.5219,12.1716 L -25.786,12.0264 L -26.0298,11.8492
 L -26.2495,11.6429 L -26.4416,11.4107 L -26.6031,11.1562 L -26.7315,10.8835 L -26.8246,10.5968 L -26.8811,10.3008
 L -26.9,10 L -26.8811,9.69919 L -26.8246,9.40314 L -26.7315,9.1165 L -26.6031,8.84378 L -26.4416,8.58931
 L -26.2495,8.35709 L -26.0298,8.15076 L -25.786,7.9736 L -25.5219,7.82841 L -25.2416,7.71745 L -24.9497,7.6425
 L -24.6507,7.60472 L -24.3493,7.60472 L -24.0503,7.6425 L -23.7583,7.71745 L -23.4781,7.82841 L -23.214,7.9736
 L -22.9702,8.15076 L -22.7505,8.35709 L -22.5583,8.58931 L -22.3969,8.84378 L -22.2685,9.1165 L -22.1754,9.40314
 L -22.1189,9.69919 L -22.1,10 L -22.1189,10.3008 L -22.1754,10.5968 L -22.2685,10.8835 L -22.3969,11.1562
 L -22.5583,11.4107 L -22.7505,11.6429 L -22.9702,11.8492 L -23.214,12.0264 L -23.4781,12.1716 L -23.7583,12.2825
 L -24.0503,12.3575 L -24.3493,12.3953 z
M 44.9058,16.497 L 44.7189,16.4734 L 44.5365,16.4266 L 44.3613,16.3572 L 44.1963,16.2665 L 44.0439,16.1558
 L 43.9065,16.0268 L 43.7865,15.8817 L 43.6855,15.7226 L 43.6053,15.5522 L 43.5471,15.373 L 43.5118,15.188
 L 43.5,15 L 43.5118,14.812 L 43.5471,14.627 L 43.6053,14.4478 L 43.6855,14.2774 L 43.7865,14.1183
 L 43.9065,13.9732 L 44.0439,13.8442 L 44.1963,13.7335 L 44.3613,13.6427 L 44.5365,13.5734 L 44.7189,13.5266
 L 44.9058,13.5029 L 45.0942,13.5029 L 45.2811,13.5266 L 45.4635,13.5734 L 45.6387,13.6427 L 45.8037,13.7335
 L 45.9561,13.8442 L 46.0934,13.9732 L 46.2135,14.1183 L 46.3145,14.2774 L 46.3947,14.4478 L 46.4529,14.627
 L 46.4882,14.812 L 46.5,15 L 46.4882,15.188 L 46.4529,15.373 L 46.3947,15.5522 L 46.3145,15.7226
 L 46.2135,15.8817 L 46.0934,16.0268 L 45.9561,16.1558 L 45.8037,16.2665 L 45.6387,16.3572 L 45.4635,16.4266
 L 45.2811,16.4734 L 45.0942,16.497 z
M -45.0942,16.497 L -45.2811,16.4734 L -45.4635,16.4266 L -45.6387,16.3572 L -45.8037,16.2665 L -45.9561,16.1558
 L -46.0934,16.0268 L -46.2135,15.8817 L -46.3145,15.7226 L -46.3947,15.5522 L -46.4529,15.373 L -46.4882,15.188
 L -46.5,15 L -46.4882,14.812 L -46.4529,14.627 L -46.3947,14.4478 L -46.3145,14.2774 L -46.2135,14.1183
 L -46.0934,13.9732 L -45.9561,13.8442 L -45.8037,13.7335 L -45.6387,13.6427 L -45.4635,13.5734 L -45.2811,13.5266
 L -45.0942,13.5029 L -44.9058,13.5029 L -44.7189,13.5266 L -44.5365,13.5734 L -44.3613,13.6427 L -44.1963,13.7335
 L -44.0439,13.8442 L -43.9065,13.9732 L -43.7865,14.1183 L -43.6855,14.2774 L -43.6053,14.4478 L -43.5471,14.627
 L -43.5118,14.812 L -43.5,15 L -43.5118,15.188 L -43.5471,15.373 L -43.6053,15.5522 L -43.6855,15.7226
 L -43.7865,15.8817 L -43.9065,16.0268 L -44.0439,16.1558 L -44.1963,16.2665 L -44.3613,16.3572 L -44.5365,16.4266
 L -44.7189,16.4734 L -44.9058,16.497 z
M -45.1884,25.4941 L -45.5621,25.4469 L -45.927,25.3532 L -46.2773,25.2145 L -46.6075,25.033 L -46.9123,24.8115
 L -47.1869,24.5536 L -47.427,24.2634 L -47.6289,23.9453 L -47.7893,23.6044 L -47.9057,23.2461 L -47.9763,22.876
 L -48,22.5 L -47.9763,22.124 L -47.9057,21.7539 L -47.7893,21.3956 L -47.6289,21.0547 L -47.427,20.7366
 L -47.1869,20.4464 L -46.9123,20.1884 L -46.6075,19.967 L -46.2773,19.7855 L -45.927,19.6468 L -45.5621,19.5531
 L -45.1884,19.5059 L -44.8116,19.5059 L -44.4379,19.5531 L -44.0729,19.6468 L -43.7227,19.7855 L -43.3925,19.967
 L -43.0877,20.1884 L -42.8131,20.4464 L -42.5729,20.7366 L -42.3711,21.0547 L -42.2107,21.3956 L -42.0942,21.7539
 L -42.0237,22.124 L -42,22.5 L -42.0237,22.876 L -42.0942,23.2461 L -42.2107,23.6044 L -42.3711,23.9453
 L -42.5729,24.2634 L -42.8131,24.5536 L -43.0877,24.8115 L -43.3925,25.033 L -43.7227,25.2145 L -44.0729,25.3532
 L -44.4379,25.4469 L -44.8116,25.4941 z
M -30.1884,25.4941 L -30.5621,25.4469 L -30.927,25.3532 L -31.2773,25.2145 L -31.6075,25.033 L -31.9123,24.8115
 L -32.1869,24.5536 L -32.427,24.2634 L -32.6289,23.9453 L -32.7893,23.6044 L -32.9057,23.2461 L -32.9763,22.876
 L -33,22.5 L -32.9763,22.124 L -32.9057,21.7539 L -32.7893,21.3956 L -32.6289,21.0547 L -32.427,20.7366
 L -32.1869,20.4464 L -31.9123,20.1884 L -31.6075,19.967 L -31.2773,19.7855 L -30.927,19.6468 L -30.5621,19.5531
 L -30.1884,19.5059 L -29.8116,19.5059 L -29.4379,19.5531 L -29.0729,19.6468 L -28.7227,19.7855 L -28.3925,19.967
 L -28.0877,20.1884 L -27.8131,20.4464 L -27.5729,20.7366 L -27.3711,21.0547 L -27.2107,21.3956 L -27.0942,21.7539
 L -27.0237,22.124 L -27,22.5 L -27.0237,22.876 L -27.0942,23.2461 L -27.2107,23.6044 L -27.3711,23.9453
 L -27.5729,24.2634 L -27.8131,24.5536 L -28.0877,24.8115 L -28.3925,25.033 L -28.7227,25.2145 L -29.0729,25.3532
 L -29.4379,25.4469 L -29.8116,25.4941 z
M 29.8116,25.4941 L 29.4379,25.4469 L 29.0729,25.3532 L 28.7227,25.2145 L 28.3925,25.033 L 28.0877,24.8115
 L 27.8131,24.5536 L 27.5729,24.2634 L 27.3711,23.9453 L 27.2107,23.6044 L 27.0942,23.2461 L 27.0237,22.876
 L 27,22.5 L 27.0237,22.124 L 27.0942,21.7539 L 27.2107,21.3956 L 27.3711,21.0547 L 27.5729,20.7366
 L 27.8131,20.4464 L 28.0877,20.1884 L 28.3925,19.967 L 28.7227,19.7855 L 29.0729,19.6468 L 29.4379,19.5531
 L 29.8116,19.5059 L 30.1884,19.5059 L 30.5621,19.5531 L 30.927,19.6468 L 31.2773,19.7855 L 31.6075,19.967
 L 31.9123,20.1884 L 32.1869,20.4464 L 32.427,20.7366 L 32.6289,21.0547 L 32.7893,21.3956 L 32.9057,21.7539
 L 32.9763,22.124 L 33,22.5 L 32.9763,22.876 L 32.9057,23.2461 L 32.7893,23.6044 L 32.6289,23.9453
 L 32.427,24.2634 L 32.1869,24.5536 L 31.9123,24.8115 L 31.6075,25.033 L 31.2773,25.2145 L 30.927,25.3532
 L 30.5621,25.4469 L 30.1884,25.4941 z
M -15.1884,25.4941 L -15.5621,25.4469 L -15.927,25.3532 L -16.2773,25.2145 L -16.6075,25.033 L -16.9123,24.8115
 L -17.1869,24.5536 L -17.427,24.2634 L -17.6289,23.9453 L -17.7893,23.6044 L -17.9057,23.2461 L -17.9763,22.876
 L -18,22.5 L -17.9763,22.124 L -17.9057,21.7539 L -17.7893,21.3956 L -17.6289,21.0547 L -17.427,20.7366
 L -17.1869,20.4464 L -16.9123,20.1884 L -16.6075,19.967 L -16.2773,19.7855 L -15.927,19.6468 L -15.5621,19.5531
 L -15.1884,19.5059 L -14.8116,19.5059 L -14.4379,19.5531 L -14.0729,19.6468 L -13.7227,19.7855 L -13.3925,19.967
 L -13.0877,20.1884 L -12.8131,20.4464 L -12.5729,20.7366 L -12.3711,21.0547 L -12.2107,21.3956 L -12.0942,21.7539
 L -12.0237,22.124 L -12,22.5 L -12.0237,22.876 L -12.0942,23.2461 L -12.2107,23.6044 L -12.3711,23.9453
 L -12.5729,24.2634 L -12.8131,24.5536 L -13.0877,24.8115 L -13.3925,25.033 L -13.7227,25.2145 L -14.0729,25.3532
 L -14.4379,25.4469 L -14.8116,25.4941 z
M 14.8116,25.4941 L 14.4379,25.4469 L 14.0729,25.3532 L 13.7227,25.2145 L 13.3925,25.033 L 13.0877,24.8115
 L 12.8131,24.5536 L 12.5729,24.2634 L 12.3711,23.9453 L 12.2107,23.6044 L 12.0942,23.2461 L 12.0237,22.876
 L 12,22.5 L 12.0237,22.124 L 12.0942,21.7539 L 12.2107,21.3956 L 12.3711,21.0547 L 12.5729,20.7366
 L 12.8131,20.4464 L 13.0877,20.1884 L 13.3925,19.967 L 13.7227,19.7855 L 14.0729,19.6468 L 14.4379,19.5531
 L 14.8116,19.5059 L 15.1884,19.5059 L 15.5621,19.5531 L 15.927,19.6468 L 16.2773,19.7855 L 16.6075,19.967
 L 16.9123,20.1884 L 17.1869,20.4464 L 17.427,20.7366 L 17.6289,21.0547 L 17.7893,21.3956 L 17.9057,21.7539
 L 17.9763,22.124 L 18,22.5 L 17.9763,22.876 L 17.9057,23.2461 L 17.7893,23.6044 L 17.6289,23.9453
 L 17.427,24.2634 L 17.1869,24.5536 L 16.9123,24.8115 L 16.6075,25.033 L 16.2773,25.2145 L 15.927,25.3532
 L 15.5621,25.4469 L 15.1884,25.4941 z
M -0.18837,25.4941 L -0.562134,25.4469 L -0.927048,25.3532 L -1.27733,25.2145 L -1.60747,25.033 L -1.91226,24.8115
 L -2.1869,24.5536 L -2.42705,24.2634 L -2.62891,23.9453 L -2.78932,23.6044 L -2.90575,23.2461 L -2.97633,22.876
 L -3,22.5 L -2.97633,22.124 L -2.90575,21.7539 L -2.78932,21.3956 L -2.62891,21.0547 L -2.42705,20.7366
 L -2.1869,20.4464 L -1.91226,20.1884 L -1.60747,19.967 L -1.27733,19.7855 L -0.927048,19.6468 L -0.562134,19.5531
 L -0.18837,19.5059 L 0.18837,19.5059 L 0.562134,19.5531 L 0.927048,19.6468 L 1.27733,19.7855 L 1.60747,19.967
 L 1.91226,20.1884 L 2.1869,20.4464 L 2.42705,20.7366 L 2.62891,21.0547 L 2.78932,21.3956 L 2.90575,21.7539
 L 2.97633,22.124 L 3,22.5 L 2.97633,22.876 L 2.90575,23.2461 L 2.78932,23.6044 L 2.62891,23.9453
 L 2.42705,24.2634 L 2.1869,24.5536 L 1.91226,24.8115 L 1.60747,25.033 L 1.27733,25.2145 L 0.927048,25.3532
 L 0.562134,25.4469 L 0.18837,25.4941 z
M 44.8116,25.4941 L 44.4379,25.4469 L 44.0729,25.3532 L 43.7227,25.2145 L 43.3925,25.033 L 43.0877,24.8115
 L 42.8131,24.5536 L 42.5729,24.2634 L 42.3711,23.9453 L 42.2107,23.6044 L 42.0942,23.2461 L 42.0237,22.876
 L 42,22.5 L 42.0237,22.124 L 42.0942,21.7539 L 42.2107,21.3956 L 42.3711,21.0547 L 42.5729,20.7366
 L 42.8131,20.4464 L 43.0877,20.1884 L 43.3925,19.967 L 43.7227,19.7855 L 44.0729,19.6468 L 44.4379,19.5531
 L 44.8116,19.5059 L 45.1884,19.5059 L 45.5621,19.5531 L 45.927,19.6468 L 46.2773,19.7855 L 46.6075,19.967
 L 46.9123,20.1884 L 47.1869,20.4464 L 47.427,20.7366 L 47.6289,21.0547 L 47.7893,21.3956 L 47.9057,21.7539
 L 47.9763,22.124 L 48,22.5 L 47.9763,22.876 L 47.9057,23.2461 L 47.7893,23.6044 L 47.6289,23.9453
 L 47.427,24.2634 L 47.1869,24.5536 L 46.9123,24.8115 L 46.6075,25.033 L 46.2773,25.2145 L 45.927,25.3532
 L 45.5621,25.4469 L 45.1884,25.4941 z
M 37.4058,23.997 L 37.2189,23.9734 L 37.0365,23.9266 L 36.8613,23.8572 L 36.6963,23.7665 L 36.5439,23.6558
 L 36.4065,23.5268 L 36.2865,23.3817 L 36.1855,23.2226 L 36.1053,23.0522 L 36.0471,22.873 L 36.0118,22.688
 L 36,22.5 L 36.0118,22.312 L 36.0471,22.127 L 36.1053,21.9478 L 36.1855,21.7774 L 36.2865,21.6183
 L 36.4065,21.4732 L 36.5439,21.3442 L 36.6963,21.2335 L 36.8613,21.1427 L 37.0365,21.0734 L 37.2189,21.0266
 L 37.4058,21.003 L 37.5942,21.003 L 37.7811,21.0266 L 37.9635,21.0734 L 38.1387,21.1427 L 38.3037,21.2335
 L 38.4561,21.3442 L 38.5934,21.4732 L 38.7135,21.6183 L 38.8145,21.7774 L 38.8947,21.9478 L 38.9529,22.127
 L 38.9882,22.312 L 39,22.5 L 38.9882,22.688 L 38.9529,22.873 L 38.8947,23.0522 L 38.8145,23.2226
 L 38.7135,23.3817 L 38.5934,23.5268 L 38.4561,23.6558 L 38.3037,23.7665 L 38.1387,23.8572 L 37.9635,23.9266
 L 37.7811,23.9734 L 37.5942,23.997 z
M 22.4058,23.997 L 22.2189,23.9734 L 22.0365,23.9266 L 21.8613,23.8572 L 21.6963,23.7665 L 21.5439,23.6558
 L 21.4065,23.5268 L 21.2865,23.3817 L 21.1855,23.2226 L 21.1053,23.0522 L 21.0471,22.873 L 21.0118,22.688
 L 21,22.5 L 21.0118,22.312 L 21.0471,22.127 L 21.1053,21.9478 L 21.1855,21.7774 L 21.2865,21.6183
 L 21.4065,21.4732 L 21.5439,21.3442 L 21.6963,21.2335 L 21.8613,21.1427 L 22.0365,21.0734 L 22.2189,21.0266
 L 22.4058,21.003 L 22.5942,21.003 L 22.7811,21.0266 L 22.9635,21.0734 L 23.1387,21.1427 L 23.3037,21.2335
 L 23.4561,21.3442 L 23.5934,21.4732 L 23.7135,21.6183 L 23.8145,21.7774 L 23.8947,21.9478 L 23.9529,22.127
 L 23.9882,22.312 L 24,22.5 L 23.9882,22.688 L 23.9529,22.873 L 23.8947,23.0522 L 23.8145,23.2226
 L 23.7135,23.3817 L 23.5934,23.5268 L 23.4561,23.6558 L 23.3037,23.7665 L 23.1387,23.8572 L 22.9635,23.9266
 L 22.7811,23.9734 L 22.5942,23.997 z
M 7.40581,23.997 L 7.21892,23.9734 L 7.03647,23.9266 L 6.86133,23.8572 L 6.69626,23.7665 L 6.54385,23.6558
 L 6.40654,23.5268 L 6.28647,23.3817 L 6.18553,23.2226 L 6.10533,23.0522 L 6.04712,22.873 L 6.01183,22.688
 L 6,22.5 L 6.01183,22.312 L 6.04712,22.127 L 6.10533,21.9478 L 6.18553,21.7774 L 6.28647,21.6183
 L 6.40654,21.4732 L 6.54385,21.3442 L 6.69626,21.2335 L 6.86133,21.1427 L 7.03647,21.0734 L 7.21892,21.0266
 L 7.40581,21.003 L 7.59418,21.003 L 7.78107,21.0266 L 7.96352,21.0734 L 8.13866,21.1427 L 8.30373,21.2335
 L 8.45613,21.3442 L 8.59344,21.4732 L 8.71352,21.6183 L 8.81445,21.7774 L 8.89465,21.9478 L 8.95287,22.127
 L 8.98816,22.312 L 9,22.5 L 8.98816,22.688 L 8.95287,22.873 L 8.89465,23.0522 L 8.81445,23.2226
 L 8.71352,23.3817 L 8.59344,23.5268 L 8.45613,23.6558 L 8.30373,23.7665 L 8.13866,23.8572 L 7.96352,23.9266
 L 7.78107,23.9734 L 7.59418,23.997 z
M -7.59418,23.997 L -7.78107,23.9734 L -7.96352,23.9266 L -8.13866,23.8572 L -8.30373,23.7665 L -8.45613,23.6558
 L -8.59344,23.5268 L -8.71352,23.3817 L -8.81445,23.2226 L -8.89465,23.0522 L -8.95287,22.873 L -8.98816,22.688
 L -9,22.5 L -8.98816,22.312 L -8.95287,22.127 L -8.89465,21.9478 L -8.81445,21.7774 L -8.71352,21.6183
 L -8.59344,21.4732 L -8.45613,21.3442 L -8.30373,21.2335 L -8.13866,21.1427 L -7.96352,21.0734 L -7.78107,21.0266
 L -7.59418,21.003 L -7.40581,21.003 L -7.21892,21.0266 L -7.03647,21.0734 L -6.86133,21.1427 L -6.69626,21.2335
 L -6.54385,21.3442 L -6.40654,21.4732 L -6.28647,21.6183 L -6.18553,21.7774 L -6.10533,21.9478 L -6.04712,22.127
 L -6.01183,22.312 L -6,22.5 L -6.01183,22.688 L -6.04712,22.873 L -6.10533,23.0522 L -6.18553,23.2226
 L -6.28647,23.3817 L -6.40654,23.5268 L -6.54385,23.6558 L -6.69626,23.7665 L -6.86133,23.8572 L -7.03647,23.9266
 L -7.21892,23.9734 L -7.40581,23.997 z
M -37.5942,23.997 L -37.7811,23.9734 L -37.9635,23.9266 L -38.1387,23.8572 L -38.3037,23.7665 L -38.4561,23.6558
 L -38.5934,23.5268 L -38.7135,23.3817 L -38.8145,23.2226 L -38.8947,23.0522 L -38.9529,22.873 L -38.9882,22.688
 L -39,22.5 L -38.9882,22.312 L -38.9529,22.127 L -38.8947,21.9478 L -38.8145,21.7774 L -38.7135,21.6183
 L -38.5934,21.4732 L -38.4561,21.3442 L -38.3037,21.2335 L -38.1387,21.1427 L -37.9635,21.0734 L -37.7811,21.0266
 L -37.5942,21.003 L -37.4058,21.003 L -37.2189,21.0266 L -37.0365,21.0734 L -36.8613,21.1427 L -36.6963,21.2335
 L -36.5439,21.3442 L -36.4065,21.4732 L -36.2865,21.6183 L -36.1855,21.7774 L -36.1053,21.9478 L -36.0471,22.127
 L -36.0118,22.312 L -36,22.5 L -36.0118,22.688 L -36.0471,22.873 L -36.1053,23.0522 L -36.1855,23.2226
 L -36.2865,23.3817 L -36.4065,23.5268 L -36.5439,23.6558 L -36.6963,23.7665 L -36.8613,23.8572 L -37.0365,23.9266
 L -37.2189,23.9734 L -37.4058,23.997 z
M -22.5942,23.997 L -22.7811,23.9734 L -22.9635,23.9266 L -23.1387,23.8572 L -23.3037,23.7665 L -23.4561,23.6558
 L -23.5934,23.5268 L -23.7135,23.3817 L -23.8145,23.2226 L -23.8947,23.0522 L -23.9529,22.873 L -23.9882,22.688
 L -24,22.5 L -23.9882,22.312 L -23.9529,22.127 L -23.8947,21.9478 L -23.8145,21.7774 L -23.7135,21.6183
 L -23.5934,21.4732 L -23.4561,21.3442 L -23.3037,21.2335 L -23.1387,21.1427 L -22.9635,21.0734 L -22.7811,21.0266
 L -22.5942,21.003 L -22.4058,21.003 L -22.2189,21.0266 L -22.0365,21.0734 L -21.8613,21.1427 L -21.6963,21.2335
 L -21.5439,21.3442 L -21.4065,21.4732 L -21.2865,21.6183 L -21.1855,21.7774 L -21.1053,21.9478 L -21.0471,22.127
 L -21.0118,22.312 L -21,22.5 L -21.0118,22.688 L -21.0471,22.873 L -21.1053,23.0522 L -21.1855,23.2226
 L -21.2865,23.3817 L -21.4065,23.5268 L -21.5439,23.6558 L -21.6963,23.7665 L -21.8613,23.8572 L -22.0365,23.9266
 L -22.2189,23.9734 L -22.4058,23.997 z
M -21.0471,-22.127 L -21.1053,-21.9478 L -21.1855,-21.7774 L -21.2865,-21.6183 L -21.4065,-21.4732 L -21.5439,-21.3442
 L -21.6963,-21.2335 L -21.8613,-21.1427 L -22.0365,-21.0734 L -22.2189,-21.0266 L -22.4058,-21.003 L -22.5942,-21.003
 L -22.7811,-21.0266 L -22.9635,-21.0734 L -23.1387,-21.1427 L -23.3037,-21.2335 L -23.4561,-21.3442 L -23.5934,-21.4732
 L -23.7135,-21.6183 L -23.8145,-21.7774 L -23.8947,-21.9478 L -23.9529,-22.127 L -23.9882,-22.312 L -24,-22.5
 L -23.9882,-22.688 L -23.9529,-22.873 L -23.8947,-23.0522 L -23.8145,-23.2226 L -23.7135,-23.3817 L -23.5934,-23.5268
 L -23.4561,-23.6558 L -23.3037,-23.7665 L -23.1387,-23.8572 L -22.9635,-23.9266 L -22.7811,-23.9734 L -22.5942,-23.997
 L -22.4058,-23.997 L -22.2189,-23.9734 L -22.0365,-23.9266 L -21.8613,-23.8572 L -21.6963,-23.7665 L -21.5439,-23.6558
 L -21.4065,-23.5268 L -21.2865,-23.3817 L -21.1855,-23.2226 L -21.1053,-23.0522 L -21.0471,-22.873 L -21.0118,-22.688
 L -21,-22.5 L -21.0118,-22.312 z
M -36.0471,-22.127 L -36.1053,-21.9478 L -36.1855,-21.7774 L -36.2865,-21.6183 L -36.4065,-21.4732 L -36.5439,-21.3442
 L -36.6963,-21.2335 L -36.8613,-21.1427 L -37.0365,-21.0734 L -37.2189,-21.0266 L -37.4058,-21.003 L -37.5942,-21.003
 L -37.7811,-21.0266 L -37.9635,-21.0734 L -38.1387,-21.1427 L -38.3037,-21.2335 L -38.4561,-21.3442 L -38.5934,-21.4732
 L -38.7135,-21.6183 L -38.8145,-21.7774 L -38.8947,-21.9478 L -38.9529,-22.127 L -38.9882,-22.312 L -39,-22.5
 L -38.9882,-22.688 L -38.9529,-22.873 L -38.8947,-23.0522 L -38.8145,-23.2226 L -38.7135,-23.3817 L -38.5934,-23.5268
 L -38.4561,-23.6558 L -38.3037,-23.7665 L -38.1387,-23.8572 L -37.9635,-23.9266 L -37.7811,-23.9734 L -37.5942,-23.997
 L -37.4058,-23.997 L -37.2189,-23.9734 L -37.0365,-23.9266 L -36.8613,-23.8572 L -36.6963,-23.7665 L -36.5439,-23.6558
 L -36.4065,-23.5268 L -36.2865,-23.3817 L -36.1855,-23.2226 L -36.1053,-23.0522 L -36.0471,-22.873 L -36.0118,-22.688
 L -36,-22.5 L -36.0118,-22.312 z
" stroke="black" fill="lightgray" stroke-width="0.5"/>
</svg>
