<?xml version="1.0" standalone="no"?>
<!DOCTYPE svg PUBLIC "-//W3C//DTD SVG 1.1//EN" "http://www.w3.org/Graphics/SVG/1.1/DTD/svg11.dtd">
<svg width="300mm" height="160mm" viewBox="-150 -290 300 160" xmlns="http://www.w3.org/2000/svg" version="1.1">
<title>OpenSCAD Model</title>
<path d="
M 145.937,-214.589 L 146.545,-214.745 L 147.129,-214.976 L 147.679,-215.278 L 148.187,-215.647 L 148.645,-216.077
 L 149.045,-216.561 L 149.382,-217.091 L 149.649,-217.659 L 149.843,-218.257 L 149.961,-218.873 L 150,-219.5
 L 150,-284.5 L 149.961,-285.127 L 149.843,-285.743 L 149.649,-286.341 L 149.382,-286.909 L 149.045,-287.439
 L 148.645,-287.923 L 148.187,-288.353 L 147.679,-288.722 L 147.129,-289.024 L 146.545,-289.255 L 145.937,-289.411
 L 145.314,-289.49 L -145.314,-289.49 L -145.937,-289.411 L -146.545,-289.255 L -147.129,-289.024 L -147.679,-288.722
 L -148.187,-288.353 L -148.645,-287.923 L -149.045,-287.439 L -149.382,-286.909 L -149.649,-286.341 L -149.843,-285.743
 L -149.961,-285.127 L -150,-284.5 L -150,-219.5 L -149.961,-218.873 L -149.843,-218.257 L -149.649,-217.659
 L -149.382,-217.091 L -149.045,-216.561 L -148.645,-216.077 L -148.187,-215.647 L -147.679,-215.278 L -147.129,-214.976
 L -146.545,-214.745 L -145.937,-214.589 L -145.314,-214.51 L 145.314,-214.51 z
M -145.037,-215.181 L -145.608,-215.253 L -146.165,-215.396 L -146.699,-215.607 L -147.203,-215.884 L -147.668,-216.222
 L -148.088,-216.616 L -148.454,-217.059 L -148.762,-217.544 L -149.007,-218.065 L -149.185,-218.611 L -149.292,-219.176
 L -149.328,-219.75 L -149.328,-284.25 L -149.292,-284.824 L -149.185,-285.389 L -149.007,-285.935 L -148.762,-286.456
 L -148.454,-286.941 L -148.088,-287.384 L -147.668,-287.778 L -147.203,-288.116 L -146.699,-288.393 L -146.165,-288.604
 L -145.608,-288.747 L -145.037,-288.819 L 145.037,-288.819 L 145.608,-288.747 L 146.165,-288.604 L 146.699,-288.393
 L 147.203,-288.116 L 147.668,-287.778 L 148.088,-287.384 L 148.454,-286.941 L 148.762,-286.456 L 149.007,-285.935
 L 149.185,-285.389 L 149.292,-284.824 L 149.328,-284.25 L 149.328,-219.75 L 149.292,-219.176 L 149.185,-218.611
 L 149.007,-218.065 L 148.762,-217.544 L 148.454,-217.059 L 148.088,-216.616 L 147.668,-216.222 L 147.203,-215.884
 L 146.699,-215.607 L 146.165,-215.396 L 145.608,-215.253 L 145.037,-215.181 z
M 145.937,-130.589 L 146.545,-130.745 L 147.129,-130.976 L 147.679,-131.278 L 148.187,-131.647 L 148.645,-132.077
 L 149.045,-132.561 L 149.382,-133.091 L 149.649,-133.659 L 149.843,-134.257 L 149.961,-134.873 L 150,-135.5
 L 150,-200.5 L 149.961,-201.127 L 149.843,-201.743 L 149.649,-202.341 L 149.382,-202.909 L 149.045,-203.439
 L 148.645,-203.923 L 148.187,-204.353 L 147.679,-204.722 L 147.129,-205.024 L 146.545,-205.255 L 145.937,-205.411
 L 145.314,-205.49 L -145.314,-205.49 L -145.937,-205.411 L -146.545,-205.255 L -147.129,-205.024 L -147.679,-204.722
 L -148.187,-204.353 L -148.645,-203.923 L -149.045,-203.439 L -149.382,-202.909 L -149.649,-202.341 L -149.843,-201.743
 L -149.961,-201.127 L -150,-200.5 L -150,-135.5 L -149.961,-134.873 L -149.843,-134.257 L -149.649,-133.659
 L -149.382,-133.091 L -149.045,-132.561 L -148.645,-132.077 L -148.187,-131.647 L -147.679,-131.278 L -147.129,-130.976
 L -146.545,-130.745 L -145.937,-130.589 L -145.314,-130.51 L 145.314,-130.51 z
M -144.882,-133.645 L -145.145,-133.678 L -145.402,-133.744 L -145.648,-133.841 L -145.88,-133.969 L -146.095,-134.125
 L -146.288,-134.306 L -146.457,-134.51 L -146.599,-134.734 L -146.711,-134.973 L -146.793,-135.225 L -146.843,-135.486
 L -146.86,-135.75 L -146.86,-200.25 L -146.843,-200.514 L -146.793,-200.775 L -146.711,-201.027 L -146.599,-201.266
 L -146.457,-201.49 L -146.288,-201.694 L -146.095,-201.875 L -145.88,-202.031 L -145.648,-202.159 L -145.402,-202.256
 L -145.145,-202.322 L -144.882,-202.355 L 144.882,-202.355 L 145.145,-202.322 L 145.402,-202.256 L 145.648,-202.159
 L 145.88,-202.031 L 146.095,-201.875 L 146.288,-201.694 L 146.457,-201.49 L 146.599,-201.266 L 146.711,-201.027
 L 146.793,-200.775 L 146.843,-200.514 L 146.86,-200.25 L 146.86,-135.75 L 146.843,-135.486 L 146.793,-135.225
 L 146.711,-134.973 L 146.599,-134.734 L 146.457,-134.51 L 146.288,-134.306 L 146.095,-134.125 L 145.88,-133.969
 L 145.648,-133.841 L 145.402,-133.744 L 145.145,-133.678 L 144.882,-133.645 z
" stroke="black" fill="lightgray" stroke-width="0.5"/>
</svg>
