  0
SECTION
  2
BLOCKS
  0
ENDSEC
  0
SECTION
  2
ENTITIES
  0
LINE
  8
0
 10
130.937
 20
403.589
 11
131.545
 21
403.745
  0
LINE
  8
0
 10
131.545
 20
403.745
 11
132.129
 21
403.976
  0
LINE
  8
0
 10
132.129
 20
403.976
 11
132.679
 21
404.278
  0
LINE
  8
0
 10
132.679
 20
404.278
 11
133.187
 21
404.647
  0
LINE
  8
0
 10
133.187
 20
404.647
 11
133.645
 21
405.077
  0
LINE
  8
0
 10
133.645
 20
405.077
 11
134.045
 21
405.561
  0
LINE
  8
0
 10
134.045
 20
405.561
 11
134.382
 21
406.091
  0
LINE
  8
0
 10
134.382
 20
406.091
 11
134.649
 21
406.659
  0
LINE
  8
0
 10
134.649
 20
406.659
 11
134.843
 21
407.257
  0
LINE
  8
0
 10
134.843
 20
407.257
 11
134.961
 21
407.873
  0
LINE
  8
0
 10
134.961
 20
407.873
 11
135
 21
408.5
  0
LINE
  8
0
 10
135
 20
408.5
 11
135
 21
503.5
  0
LINE
  8
0
 10
135
 20
503.5
 11
134.961
 21
504.127
  0
LINE
  8
0
 10
134.961
 20
504.127
 11
134.843
 21
504.743
  0
LINE
  8
0
 10
134.843
 20
504.743
 11
134.649
 21
505.341
  0
LINE
  8
0
 10
134.649
 20
505.341
 11
134.382
 21
505.909
  0
LINE
  8
0
 10
134.382
 20
505.909
 11
134.045
 21
506.439
  0
LINE
  8
0
 10
134.045
 20
506.439
 11
133.645
 21
506.923
  0
LINE
  8
0
 10
133.645
 20
506.923
 11
133.187
 21
507.353
  0
LINE
  8
0
 10
133.187
 20
507.353
 11
132.679
 21
507.722
  0
LINE
  8
0
 10
132.679
 20
507.722
 11
132.129
 21
508.024
  0
LINE
  8
0
 10
132.129
 20
508.024
 11
131.545
 21
508.255
  0
LINE
  8
0
 10
131.545
 20
508.255
 11
130.937
 21
508.411
  0
LINE
  8
0
 10
130.937
 20
508.411
 11
130.314
 21
508.49
  0
LINE
  8
0
 10
130.314
 20
508.49
 11
-130.314
 21
508.49
  0
LINE
  8
0
 10
-130.314
 20
508.49
 11
-130.937
 21
508.411
  0
LINE
  8
0
 10
-130.937
 20
508.411
 11
-131.545
 21
508.255
  0
LINE
  8
0
 10
-131.545
 20
508.255
 11
-132.129
 21
508.024
  0
LINE
  8
0
 10
-132.129
 20
508.024
 11
-132.679
 21
507.722
  0
LINE
  8
0
 10
-132.679
 20
507.722
 11
-133.187
 21
507.353
  0
LINE
  8
0
 10
-133.187
 20
507.353
 11
-133.645
 21
506.923
  0
LINE
  8
0
 10
-133.645
 20
506.923
 11
-134.045
 21
506.439
  0
LINE
  8
0
 10
-134.045
 20
506.439
 11
-134.382
 21
505.909
  0
LINE
  8
0
 10
-134.382
 20
505.909
 11
-134.649
 21
505.341
  0
LINE
  8
0
 10
-134.649
 20
505.341
 11
-134.843
 21
504.743
  0
LINE
  8
0
 10
-134.843
 20
504.743
 11
-134.961
 21
504.127
  0
LINE
  8
0
 10
-134.961
 20
504.127
 11
-135
 21
503.5
  0
LINE
  8
0
 10
-135
 20
503.5
 11
-135
 21
408.5
  0
LINE
  8
0
 10
-135
 20
408.5
 11
-134.961
 21
407.873
  0
LINE
  8
0
 10
-134.961
 20
407.873
 11
-134.843
 21
407.257
  0
LINE
  8
0
 10
-134.843
 20
407.257
 11
-134.649
 21
406.659
  0
LINE
  8
0
 10
-134.649
 20
406.659
 11
-134.382
 21
406.091
  0
LINE
  8
0
 10
-134.382
 20
406.091
 11
-134.045
 21
405.561
  0
LINE
  8
0
 10
-134.045
 20
405.561
 11
-133.645
 21
405.077
  0
LINE
  8
0
 10
-133.645
 20
405.077
 11
-133.187
 21
404.647
  0
LINE
  8
0
 10
-133.187
 20
404.647
 11
-132.679
 21
404.278
  0
LINE
  8
0
 10
-132.679
 20
404.278
 11
-132.129
 21
403.976
  0
LINE
  8
0
 10
-132.129
 20
403.976
 11
-131.545
 21
403.745
  0
LINE
  8
0
 10
-131.545
 20
403.745
 11
-130.937
 21
403.589
  0
LINE
  8
0
 10
-130.937
 20
403.589
 11
-130.314
 21
403.51
  0
LINE
  8
0
 10
-130.314
 20
403.51
 11
130.314
 21
403.51
  0
LINE
  8
0
 10
130.314
 20
403.51
 11
130.937
 21
403.589
  0
LINE
  8
0
 10
-130.048
 20
404.009
 11
-130.64
 21
404.084
  0
LINE
  8
0
 10
-130.64
 20
404.084
 11
-131.218
 21
404.232
  0
LINE
  8
0
 10
-131.218
 20
404.232
 11
-131.772
 21
404.452
  0
LINE
  8
0
 10
-131.772
 20
404.452
 11
-132.295
 21
404.739
  0
LINE
  8
0
 10
-132.295
 20
404.739
 11
-132.778
 21
405.09
  0
LINE
  8
0
 10
-132.778
 20
405.09
 11
-133.213
 21
405.498
  0
LINE
  8
0
 10
-133.213
 20
405.498
 11
-133.593
 21
405.958
  0
LINE
  8
0
 10
-133.593
 20
405.958
 11
-133.912
 21
406.462
  0
LINE
  8
0
 10
-133.912
 20
406.462
 11
-134.166
 21
407.001
  0
LINE
  8
0
 10
-134.166
 20
407.001
 11
-134.351
 21
407.569
  0
LINE
  8
0
 10
-134.351
 20
407.569
 11
-134.463
 21
408.155
  0
LINE
  8
0
 10
-134.463
 20
408.155
 11
-134.5
 21
408.75
  0
LINE
  8
0
 10
-134.5
 20
408.75
 11
-134.5
 21
503.25
  0
LINE
  8
0
 10
-134.5
 20
503.25
 11
-134.463
 21
503.845
  0
LINE
  8
0
 10
-134.463
 20
503.845
 11
-134.351
 21
504.431
  0
LINE
  8
0
 10
-134.351
 20
504.431
 11
-134.166
 21
504.999
  0
LINE
  8
0
 10
-134.166
 20
504.999
 11
-133.912
 21
505.538
  0
LINE
  8
0
 10
-133.912
 20
505.538
 11
-133.593
 21
506.042
  0
LINE
  8
0
 10
-133.593
 20
506.042
 11
-133.213
 21
506.502
  0
LINE
  8
0
 10
-133.213
 20
506.502
 11
-132.778
 21
506.91
  0
LINE
  8
0
 10
-132.778
 20
506.91
 11
-132.295
 21
507.261
  0
LINE
  8
0
 10
-132.295
 20
507.261
 11
-131.772
 21
507.548
  0
LINE
  8
0
 10
-131.772
 20
507.548
 11
-131.218
 21
507.768
  0
LINE
  8
0
 10
-131.218
 20
507.768
 11
-130.64
 21
507.916
  0
LINE
  8
0
 10
-130.64
 20
507.916
 11
-130.048
 21
507.991
  0
LINE
  8
0
 10
-130.048
 20
507.991
 11
130.048
 21
507.991
  0
LINE
  8
0
 10
130.048
 20
507.991
 11
130.64
 21
507.916
  0
LINE
  8
0
 10
130.64
 20
507.916
 11
131.218
 21
507.768
  0
LINE
  8
0
 10
131.218
 20
507.768
 11
131.772
 21
507.548
  0
LINE
  8
0
 10
131.772
 20
507.548
 11
132.295
 21
507.261
  0
LINE
  8
0
 10
132.295
 20
507.261
 11
132.778
 21
506.91
  0
LINE
  8
0
 10
132.778
 20
506.91
 11
133.213
 21
506.502
  0
LINE
  8
0
 10
133.213
 20
506.502
 11
133.593
 21
506.042
  0
LINE
  8
0
 10
133.593
 20
506.042
 11
133.912
 21
505.538
  0
LINE
  8
0
 10
133.912
 20
505.538
 11
134.166
 21
504.999
  0
LINE
  8
0
 10
134.166
 20
504.999
 11
134.351
 21
504.431
  0
LINE
  8
0
 10
134.351
 20
504.431
 11
134.463
 21
503.845
  0
LINE
  8
0
 10
134.463
 20
503.845
 11
134.5
 21
503.25
  0
LINE
  8
0
 10
134.5
 20
503.25
 11
134.5
 21
408.75
  0
LINE
  8
0
 10
134.5
 20
408.75
 11
134.463
 21
408.155
  0
LINE
  8
0
 10
134.463
 20
408.155
 11
134.351
 21
407.569
  0
LINE
  8
0
 10
134.351
 20
407.569
 11
134.166
 21
407.001
  0
LINE
  8
0
 10
134.166
 20
407.001
 11
133.912
 21
406.462
  0
LINE
  8
0
 10
133.912
 20
406.462
 11
133.593
 21
405.958
  0
LINE
  8
0
 10
133.593
 20
405.958
 11
133.213
 21
405.498
  0
LINE
  8
0
 10
133.213
 20
405.498
 11
132.778
 21
405.09
  0
LINE
  8
0
 10
132.778
 20
405.09
 11
132.295
 21
404.739
  0
LINE
  8
0
 10
132.295
 20
404.739
 11
131.772
 21
404.452
  0
LINE
  8
0
 10
131.772
 20
404.452
 11
131.218
 21
404.232
  0
LINE
  8
0
 10
131.218
 20
404.232
 11
130.64
 21
404.084
  0
LINE
  8
0
 10
130.64
 20
404.084
 11
130.048
 21
404.009
  0
LINE
  8
0
 10
130.048
 20
404.009
 11
-130.048
 21
404.009
  0
LINE
  8
0
 10
130.937
 20
289.589
 11
131.545
 21
289.745
  0
LINE
  8
0
 10
131.545
 20
289.745
 11
132.129
 21
289.976
  0
LINE
  8
0
 10
132.129
 20
289.976
 11
132.679
 21
290.278
  0
LINE
  8
0
 10
132.679
 20
290.278
 11
133.187
 21
290.647
  0
LINE
  8
0
 10
133.187
 20
290.647
 11
133.645
 21
291.077
  0
LINE
  8
0
 10
133.645
 20
291.077
 11
134.045
 21
291.561
  0
LINE
  8
0
 10
134.045
 20
291.561
 11
134.382
 21
292.091
  0
LINE
  8
0
 10
134.382
 20
292.091
 11
134.649
 21
292.659
  0
LINE
  8
0
 10
134.649
 20
292.659
 11
134.843
 21
293.257
  0
LINE
  8
0
 10
134.843
 20
293.257
 11
134.961
 21
293.873
  0
LINE
  8
0
 10
134.961
 20
293.873
 11
135
 21
294.5
  0
LINE
  8
0
 10
135
 20
294.5
 11
135
 21
389.5
  0
LINE
  8
0
 10
135
 20
389.5
 11
134.961
 21
390.127
  0
LINE
  8
0
 10
134.961
 20
390.127
 11
134.843
 21
390.743
  0
LINE
  8
0
 10
134.843
 20
390.743
 11
134.649
 21
391.341
  0
LINE
  8
0
 10
134.649
 20
391.341
 11
134.382
 21
391.909
  0
LINE
  8
0
 10
134.382
 20
391.909
 11
134.045
 21
392.439
  0
LINE
  8
0
 10
134.045
 20
392.439
 11
133.645
 21
392.923
  0
LINE
  8
0
 10
133.645
 20
392.923
 11
133.187
 21
393.353
  0
LINE
  8
0
 10
133.187
 20
393.353
 11
132.679
 21
393.722
  0
LINE
  8
0
 10
132.679
 20
393.722
 11
132.129
 21
394.024
  0
LINE
  8
0
 10
132.129
 20
394.024
 11
131.545
 21
394.255
  0
LINE
  8
0
 10
131.545
 20
394.255
 11
130.937
 21
394.411
  0
LINE
  8
0
 10
130.937
 20
394.411
 11
130.314
 21
394.49
  0
LINE
  8
0
 10
130.314
 20
394.49
 11
-130.314
 21
394.49
  0
LINE
  8
0
 10
-130.314
 20
394.49
 11
-130.937
 21
394.411
  0
LINE
  8
0
 10
-130.937
 20
394.411
 11
-131.545
 21
394.255
  0
LINE
  8
0
 10
-131.545
 20
394.255
 11
-132.129
 21
394.024
  0
LINE
  8
0
 10
-132.129
 20
394.024
 11
-132.679
 21
393.722
  0
LINE
  8
0
 10
-132.679
 20
393.722
 11
-133.187
 21
393.353
  0
LINE
  8
0
 10
-133.187
 20
393.353
 11
-133.645
 21
392.923
  0
LINE
  8
0
 10
-133.645
 20
392.923
 11
-134.045
 21
392.439
  0
LINE
  8
0
 10
-134.045
 20
392.439
 11
-134.382
 21
391.909
  0
LINE
  8
0
 10
-134.382
 20
391.909
 11
-134.649
 21
391.341
  0
LINE
  8
0
 10
-134.649
 20
391.341
 11
-134.843
 21
390.743
  0
LINE
  8
0
 10
-134.843
 20
390.743
 11
-134.961
 21
390.127
  0
LINE
  8
0
 10
-134.961
 20
390.127
 11
-135
 21
389.5
  0
LINE
  8
0
 10
-135
 20
389.5
 11
-135
 21
294.5
  0
LINE
  8
0
 10
-135
 20
294.5
 11
-134.961
 21
293.873
  0
LINE
  8
0
 10
-134.961
 20
293.873
 11
-134.843
 21
293.257
  0
LINE
  8
0
 10
-134.843
 20
293.257
 11
-134.649
 21
292.659
  0
LINE
  8
0
 10
-134.649
 20
292.659
 11
-134.382
 21
292.091
  0
LINE
  8
0
 10
-134.382
 20
292.091
 11
-134.045
 21
291.561
  0
LINE
  8
0
 10
-134.045
 20
291.561
 11
-133.645
 21
291.077
  0
LINE
  8
0
 10
-133.645
 20
291.077
 11
-133.187
 21
290.647
  0
LINE
  8
0
 10
-133.187
 20
290.647
 11
-132.679
 21
290.278
  0
LINE
  8
0
 10
-132.679
 20
290.278
 11
-132.129
 21
289.976
  0
LINE
  8
0
 10
-132.129
 20
289.976
 11
-131.545
 21
289.745
  0
LINE
  8
0
 10
-131.545
 20
289.745
 11
-130.937
 21
289.589
  0
LINE
  8
0
 10
-130.937
 20
289.589
 11
-130.314
 21
289.51
  0
LINE
  8
0
 10
-130.314
 20
289.51
 11
130.314
 21
289.51
  0
LINE
  8
0
 10
130.314
 20
289.51
 11
130.937
 21
289.589
  0
LINE
  8
0
 10
-129.993
 20
290.888
 11
-130.475
 21
290.949
  0
LINE
  8
0
 10
-130.475
 20
290.949
 11
-130.946
 21
291.07
  0
LINE
  8
0
 10
-130.946
 20
291.07
 11
-131.398
 21
291.249
  0
LINE
  8
0
 10
-131.398
 20
291.249
 11
-131.823
 21
291.483
  0
LINE
  8
0
 10
-131.823
 20
291.483
 11
-132.216
 21
291.769
  0
LINE
  8
0
 10
-132.216
 20
291.769
 11
-132.571
 21
292.101
  0
LINE
  8
0
 10
-132.571
 20
292.101
 11
-132.88
 21
292.476
  0
LINE
  8
0
 10
-132.88
 20
292.476
 11
-133.141
 21
292.886
  0
LINE
  8
0
 10
-133.141
 20
292.886
 11
-133.348
 21
293.326
  0
LINE
  8
0
 10
-133.348
 20
293.326
 11
-133.498
 21
293.788
  0
LINE
  8
0
 10
-133.498
 20
293.788
 11
-133.589
 21
294.265
  0
LINE
  8
0
 10
-133.589
 20
294.265
 11
-133.619
 21
294.75
  0
LINE
  8
0
 10
-133.619
 20
294.75
 11
-133.619
 21
389.25
  0
LINE
  8
0
 10
-133.619
 20
389.25
 11
-133.589
 21
389.735
  0
LINE
  8
0
 10
-133.589
 20
389.735
 11
-133.498
 21
390.212
  0
LINE
  8
0
 10
-133.498
 20
390.212
 11
-133.348
 21
390.674
  0
LINE
  8
0
 10
-133.348
 20
390.674
 11
-133.141
 21
391.114
  0
LINE
  8
0
 10
-133.141
 20
391.114
 11
-132.88
 21
391.524
  0
LINE
  8
0
 10
-132.88
 20
391.524
 11
-132.571
 21
391.899
  0
LINE
  8
0
 10
-132.571
 20
391.899
 11
-132.216
 21
392.231
  0
LINE
  8
0
 10
-132.216
 20
392.231
 11
-131.823
 21
392.517
  0
LINE
  8
0
 10
-131.823
 20
392.517
 11
-131.398
 21
392.751
  0
LINE
  8
0
 10
-131.398
 20
392.751
 11
-130.946
 21
392.93
  0
LINE
  8
0
 10
-130.946
 20
392.93
 11
-130.475
 21
393.051
  0
LINE
  8
0
 10
-130.475
 20
393.051
 11
-129.993
 21
393.112
  0
LINE
  8
0
 10
-129.993
 20
393.112
 11
129.993
 21
393.112
  0
LINE
  8
0
 10
129.993
 20
393.112
 11
130.475
 21
393.051
  0
LINE
  8
0
 10
130.475
 20
393.051
 11
130.946
 21
392.93
  0
LINE
  8
0
 10
130.946
 20
392.93
 11
131.398
 21
392.751
  0
LINE
  8
0
 10
131.398
 20
392.751
 11
131.823
 21
392.517
  0
LINE
  8
0
 10
131.823
 20
392.517
 11
132.216
 21
392.231
  0
LINE
  8
0
 10
132.216
 20
392.231
 11
132.571
 21
391.899
  0
LINE
  8
0
 10
132.571
 20
391.899
 11
132.88
 21
391.524
  0
LINE
  8
0
 10
132.88
 20
391.524
 11
133.141
 21
391.114
  0
LINE
  8
0
 10
133.141
 20
391.114
 11
133.348
 21
390.674
  0
LINE
  8
0
 10
133.348
 20
390.674
 11
133.498
 21
390.212
  0
LINE
  8
0
 10
133.498
 20
390.212
 11
133.589
 21
389.735
  0
LINE
  8
0
 10
133.589
 20
389.735
 11
133.619
 21
389.25
  0
LINE
  8
0
 10
133.619
 20
389.25
 11
133.619
 21
294.75
  0
LINE
  8
0
 10
133.619
 20
294.75
 11
133.589
 21
294.265
  0
LINE
  8
0
 10
133.589
 20
294.265
 11
133.498
 21
293.788
  0
LINE
  8
0
 10
133.498
 20
293.788
 11
133.348
 21
293.326
  0
LINE
  8
0
 10
133.348
 20
293.326
 11
133.141
 21
292.886
  0
LINE
  8
0
 10
133.141
 20
292.886
 11
132.88
 21
292.476
  0
LINE
  8
0
 10
132.88
 20
292.476
 11
132.571
 21
292.101
  0
LINE
  8
0
 10
132.571
 20
292.101
 11
132.216
 21
291.769
  0
LINE
  8
0
 10
132.216
 20
291.769
 11
131.823
 21
291.483
  0
LINE
  8
0
 10
131.823
 20
291.483
 11
131.398
 21
291.249
  0
LINE
  8
0
 10
131.398
 20
291.249
 11
130.946
 21
291.07
  0
LINE
  8
0
 10
130.946
 20
291.07
 11
130.475
 21
290.949
  0
LINE
  8
0
 10
130.475
 20
290.949
 11
129.993
 21
290.888
  0
LINE
  8
0
 10
129.993
 20
290.888
 11
-129.993
 21
290.888
  0
LINE
  8
0
 10
130.937
 20
175.589
 11
131.545
 21
175.745
  0
LINE
  8
0
 10
131.545
 20
175.745
 11
132.129
 21
175.976
  0
LINE
  8
0
 10
132.129
 20
175.976
 11
132.679
 21
176.278
  0
LINE
  8
0
 10
132.679
 20
176.278
 11
133.187
 21
176.647
  0
LINE
  8
0
 10
133.187
 20
176.647
 11
133.645
 21
177.077
  0
LINE
  8
0
 10
133.645
 20
177.077
 11
134.045
 21
177.561
  0
LINE
  8
0
 10
134.045
 20
177.561
 11
134.382
 21
178.091
  0
LINE
  8
0
 10
134.382
 20
178.091
 11
134.649
 21
178.659
  0
LINE
  8
0
 10
134.649
 20
178.659
 11
134.843
 21
179.257
  0
LINE
  8
0
 10
134.843
 20
179.257
 11
134.961
 21
179.873
  0
LINE
  8
0
 10
134.961
 20
179.873
 11
135
 21
180.5
  0
LINE
  8
0
 10
135
 20
180.5
 11
135
 21
275.5
  0
LINE
  8
0
 10
135
 20
275.5
 11
134.961
 21
276.127
  0
LINE
  8
0
 10
134.961
 20
276.127
 11
134.843
 21
276.743
  0
LINE
  8
0
 10
134.843
 20
276.743
 11
134.649
 21
277.341
  0
LINE
  8
0
 10
134.649
 20
277.341
 11
134.382
 21
277.909
  0
LINE
  8
0
 10
134.382
 20
277.909
 11
134.045
 21
278.439
  0
LINE
  8
0
 10
134.045
 20
278.439
 11
133.645
 21
278.923
  0
LINE
  8
0
 10
133.645
 20
278.923
 11
133.187
 21
279.353
  0
LINE
  8
0
 10
133.187
 20
279.353
 11
132.679
 21
279.722
  0
LINE
  8
0
 10
132.679
 20
279.722
 11
132.129
 21
280.024
  0
LINE
  8
0
 10
132.129
 20
280.024
 11
131.545
 21
280.255
  0
LINE
  8
0
 10
131.545
 20
280.255
 11
130.937
 21
280.411
  0
LINE
  8
0
 10
130.937
 20
280.411
 11
130.314
 21
280.49
  0
LINE
  8
0
 10
130.314
 20
280.49
 11
-130.314
 21
280.49
  0
LINE
  8
0
 10
-130.314
 20
280.49
 11
-130.937
 21
280.411
  0
LINE
  8
0
 10
-130.937
 20
280.411
 11
-131.545
 21
280.255
  0
LINE
  8
0
 10
-131.545
 20
280.255
 11
-132.129
 21
280.024
  0
LINE
  8
0
 10
-132.129
 20
280.024
 11
-132.679
 21
279.722
  0
LINE
  8
0
 10
-132.679
 20
279.722
 11
-133.187
 21
279.353
  0
LINE
  8
0
 10
-133.187
 20
279.353
 11
-133.645
 21
278.923
  0
LINE
  8
0
 10
-133.645
 20
278.923
 11
-134.045
 21
278.439
  0
LINE
  8
0
 10
-134.045
 20
278.439
 11
-134.382
 21
277.909
  0
LINE
  8
0
 10
-134.382
 20
277.909
 11
-134.649
 21
277.341
  0
LINE
  8
0
 10
-134.649
 20
277.341
 11
-134.843
 21
276.743
  0
LINE
  8
0
 10
-134.843
 20
276.743
 11
-134.961
 21
276.127
  0
LINE
  8
0
 10
-134.961
 20
276.127
 11
-135
 21
275.5
  0
LINE
  8
0
 10
-135
 20
275.5
 11
-135
 21
180.5
  0
LINE
  8
0
 10
-135
 20
180.5
 11
-134.961
 21
179.873
  0
LINE
  8
0
 10
-134.961
 20
179.873
 11
-134.843
 21
179.257
  0
LINE
  8
0
 10
-134.843
 20
179.257
 11
-134.649
 21
178.659
  0
LINE
  8
0
 10
-134.649
 20
178.659
 11
-134.382
 21
178.091
  0
LINE
  8
0
 10
-134.382
 20
178.091
 11
-134.045
 21
177.561
  0
LINE
  8
0
 10
-134.045
 20
177.561
 11
-133.645
 21
177.077
  0
LINE
  8
0
 10
-133.645
 20
177.077
 11
-133.187
 21
176.647
  0
LINE
  8
0
 10
-133.187
 20
176.647
 11
-132.679
 21
176.278
  0
LINE
  8
0
 10
-132.679
 20
176.278
 11
-132.129
 21
175.976
  0
LINE
  8
0
 10
-132.129
 20
175.976
 11
-131.545
 21
175.745
  0
LINE
  8
0
 10
-131.545
 20
175.745
 11
-130.937
 21
175.589
  0
LINE
  8
0
 10
-130.937
 20
175.589
 11
-130.314
 21
175.51
  0
LINE
  8
0
 10
-130.314
 20
175.51
 11
130.314
 21
175.51
  0
LINE
  8
0
 10
130.314
 20
175.51
 11
130.937
 21
175.589
  0
LINE
  8
0
 10
127.387
 20
271.204
 11
127.163
 21
271.232
  0
LINE
  8
0
 10
127.163
 20
271.232
 11
126.944
 21
271.288
  0
LINE
  8
0
 10
126.944
 20
271.288
 11
126.734
 21
271.371
  0
LINE
  8
0
 10
126.734
 20
271.371
 11
126.536
 21
271.48
  0
LINE
  8
0
 10
126.536
 20
271.48
 11
126.353
 21
271.613
  0
LINE
  8
0
 10
126.353
 20
271.613
 11
126.188
 21
271.768
  0
LINE
  8
0
 10
126.188
 20
271.768
 11
126.044
 21
271.942
  0
LINE
  8
0
 10
126.044
 20
271.942
 11
125.923
 21
272.133
  0
LINE
  8
0
 10
125.923
 20
272.133
 11
125.826
 21
272.337
  0
LINE
  8
0
 10
125.826
 20
272.337
 11
125.757
 21
272.552
  0
LINE
  8
0
 10
125.757
 20
272.552
 11
125.714
 21
272.774
  0
LINE
  8
0
 10
125.714
 20
272.774
 11
125.7
 21
273
  0
LINE
  8
0
 10
125.7
 20
273
 11
125.714
 21
273.226
  0
LINE
  8
0
 10
125.714
 20
273.226
 11
125.757
 21
273.448
  0
LINE
  8
0
 10
125.757
 20
273.448
 11
125.826
 21
273.663
  0
LINE
  8
0
 10
125.826
 20
273.663
 11
125.923
 21
273.867
  0
LINE
  8
0
 10
125.923
 20
273.867
 11
126.044
 21
274.058
  0
LINE
  8
0
 10
126.044
 20
274.058
 11
126.188
 21
274.232
  0
LINE
  8
0
 10
126.188
 20
274.232
 11
126.353
 21
274.387
  0
LINE
  8
0
 10
126.353
 20
274.387
 11
126.536
 21
274.52
  0
LINE
  8
0
 10
126.536
 20
274.52
 11
126.734
 21
274.629
  0
LINE
  8
0
 10
126.734
 20
274.629
 11
126.944
 21
274.712
  0
LINE
  8
0
 10
126.944
 20
274.712
 11
127.163
 21
274.768
  0
LINE
  8
0
 10
127.163
 20
274.768
 11
127.387
 21
274.796
  0
LINE
  8
0
 10
127.387
 20
274.796
 11
127.613
 21
274.796
  0
LINE
  8
0
 10
127.613
 20
274.796
 11
127.837
 21
274.768
  0
LINE
  8
0
 10
127.837
 20
274.768
 11
128.056
 21
274.712
  0
LINE
  8
0
 10
128.056
 20
274.712
 11
128.266
 21
274.629
  0
LINE
  8
0
 10
128.266
 20
274.629
 11
128.464
 21
274.52
  0
LINE
  8
0
 10
128.464
 20
274.52
 11
128.647
 21
274.387
  0
LINE
  8
0
 10
128.647
 20
274.387
 11
128.812
 21
274.232
  0
LINE
  8
0
 10
128.812
 20
274.232
 11
128.956
 21
274.058
  0
LINE
  8
0
 10
128.956
 20
274.058
 11
129.077
 21
273.867
  0
LINE
  8
0
 10
129.077
 20
273.867
 11
129.174
 21
273.663
  0
LINE
  8
0
 10
129.174
 20
273.663
 11
129.243
 21
273.448
  0
LINE
  8
0
 10
129.243
 20
273.448
 11
129.286
 21
273.226
  0
LINE
  8
0
 10
129.286
 20
273.226
 11
129.3
 21
273
  0
LINE
  8
0
 10
129.3
 20
273
 11
129.286
 21
272.774
  0
LINE
  8
0
 10
129.286
 20
272.774
 11
129.243
 21
272.552
  0
LINE
  8
0
 10
129.243
 20
272.552
 11
129.174
 21
272.337
  0
LINE
  8
0
 10
129.174
 20
272.337
 11
129.077
 21
272.133
  0
LINE
  8
0
 10
129.077
 20
272.133
 11
128.956
 21
271.942
  0
LINE
  8
0
 10
128.956
 20
271.942
 11
128.812
 21
271.768
  0
LINE
  8
0
 10
128.812
 20
271.768
 11
128.647
 21
271.613
  0
LINE
  8
0
 10
128.647
 20
271.613
 11
128.464
 21
271.48
  0
LINE
  8
0
 10
128.464
 20
271.48
 11
128.266
 21
271.371
  0
LINE
  8
0
 10
128.266
 20
271.371
 11
128.056
 21
271.288
  0
LINE
  8
0
 10
128.056
 20
271.288
 11
127.837
 21
271.232
  0
LINE
  8
0
 10
127.837
 20
271.232
 11
127.613
 21
271.204
  0
LINE
  8
0
 10
127.613
 20
271.204
 11
127.387
 21
271.204
  0
LINE
  8
0
 10
-127.613
 20
271.204
 11
-127.837
 21
271.232
  0
LINE
  8
0
 10
-127.837
 20
271.232
 11
-128.056
 21
271.288
  0
LINE
  8
0
 10
-128.056
 20
271.288
 11
-128.266
 21
271.371
  0
LINE
  8
0
 10
-128.266
 20
271.371
 11
-128.464
 21
271.48
  0
LINE
  8
0
 10
-128.464
 20
271.48
 11
-128.647
 21
271.613
  0
LINE
  8
0
 10
-128.647
 20
271.613
 11
-128.812
 21
271.768
  0
LINE
  8
0
 10
-128.812
 20
271.768
 11
-128.956
 21
271.942
  0
LINE
  8
0
 10
-128.956
 20
271.942
 11
-129.077
 21
272.133
  0
LINE
  8
0
 10
-129.077
 20
272.133
 11
-129.174
 21
272.337
  0
LINE
  8
0
 10
-129.174
 20
272.337
 11
-129.243
 21
272.552
  0
LINE
  8
0
 10
-129.243
 20
272.552
 11
-129.286
 21
272.774
  0
LINE
  8
0
 10
-129.286
 20
272.774
 11
-129.3
 21
273
  0
LINE
  8
0
 10
-129.3
 20
273
 11
-129.286
 21
273.226
  0
LINE
  8
0
 10
-129.286
 20
273.226
 11
-129.243
 21
273.448
  0
LINE
  8
0
 10
-129.243
 20
273.448
 11
-129.174
 21
273.663
  0
LINE
  8
0
 10
-129.174
 20
273.663
 11
-129.077
 21
273.867
  0
LINE
  8
0
 10
-129.077
 20
273.867
 11
-128.956
 21
274.058
  0
LINE
  8
0
 10
-128.956
 20
274.058
 11
-128.812
 21
274.232
  0
LINE
  8
0
 10
-128.812
 20
274.232
 11
-128.647
 21
274.387
  0
LINE
  8
0
 10
-128.647
 20
274.387
 11
-128.464
 21
274.52
  0
LINE
  8
0
 10
-128.464
 20
274.52
 11
-128.266
 21
274.629
  0
LINE
  8
0
 10
-128.266
 20
274.629
 11
-128.056
 21
274.712
  0
LINE
  8
0
 10
-128.056
 20
274.712
 11
-127.837
 21
274.768
  0
LINE
  8
0
 10
-127.837
 20
274.768
 11
-127.613
 21
274.796
  0
LINE
  8
0
 10
-127.613
 20
274.796
 11
-127.387
 21
274.796
  0
LINE
  8
0
 10
-127.387
 20
274.796
 11
-127.163
 21
274.768
  0
LINE
  8
0
 10
-127.163
 20
274.768
 11
-126.944
 21
274.712
  0
LINE
  8
0
 10
-126.944
 20
274.712
 11
-126.734
 21
274.629
  0
LINE
  8
0
 10
-126.734
 20
274.629
 11
-126.536
 21
274.52
  0
LINE
  8
0
 10
-126.536
 20
274.52
 11
-126.353
 21
274.387
  0
LINE
  8
0
 10
-126.353
 20
274.387
 11
-126.188
 21
274.232
  0
LINE
  8
0
 10
-126.188
 20
274.232
 11
-126.044
 21
274.058
  0
LINE
  8
0
 10
-126.044
 20
274.058
 11
-125.923
 21
273.867
  0
LINE
  8
0
 10
-125.923
 20
273.867
 11
-125.826
 21
273.663
  0
LINE
  8
0
 10
-125.826
 20
273.663
 11
-125.757
 21
273.448
  0
LINE
  8
0
 10
-125.757
 20
273.448
 11
-125.714
 21
273.226
  0
LINE
  8
0
 10
-125.714
 20
273.226
 11
-125.7
 21
273
  0
LINE
  8
0
 10
-125.7
 20
273
 11
-125.714
 21
272.774
  0
LINE
  8
0
 10
-125.714
 20
272.774
 11
-125.757
 21
272.552
  0
LINE
  8
0
 10
-125.757
 20
272.552
 11
-125.826
 21
272.337
  0
LINE
  8
0
 10
-125.826
 20
272.337
 11
-125.923
 21
272.133
  0
LINE
  8
0
 10
-125.923
 20
272.133
 11
-126.044
 21
271.942
  0
LINE
  8
0
 10
-126.044
 20
271.942
 11
-126.188
 21
271.768
  0
LINE
  8
0
 10
-126.188
 20
271.768
 11
-126.353
 21
271.613
  0
LINE
  8
0
 10
-126.353
 20
271.613
 11
-126.536
 21
271.48
  0
LINE
  8
0
 10
-126.536
 20
271.48
 11
-126.734
 21
271.371
  0
LINE
  8
0
 10
-126.734
 20
271.371
 11
-126.944
 21
271.288
  0
LINE
  8
0
 10
-126.944
 20
271.288
 11
-127.163
 21
271.232
  0
LINE
  8
0
 10
-127.163
 20
271.232
 11
-127.387
 21
271.204
  0
LINE
  8
0
 10
-127.387
 20
271.204
 11
-127.613
 21
271.204
  0
LINE
  8
0
 10
127.387
 20
181.204
 11
127.163
 21
181.232
  0
LINE
  8
0
 10
127.163
 20
181.232
 11
126.944
 21
181.288
  0
LINE
  8
0
 10
126.944
 20
181.288
 11
126.734
 21
181.371
  0
LINE
  8
0
 10
126.734
 20
181.371
 11
126.536
 21
181.48
  0
LINE
  8
0
 10
126.536
 20
181.48
 11
126.353
 21
181.613
  0
LINE
  8
0
 10
126.353
 20
181.613
 11
126.188
 21
181.768
  0
LINE
  8
0
 10
126.188
 20
181.768
 11
126.044
 21
181.942
  0
LINE
  8
0
 10
126.044
 20
181.942
 11
125.923
 21
182.133
  0
LINE
  8
0
 10
125.923
 20
182.133
 11
125.826
 21
182.337
  0
LINE
  8
0
 10
125.826
 20
182.337
 11
125.757
 21
182.552
  0
LINE
  8
0
 10
125.757
 20
182.552
 11
125.714
 21
182.774
  0
LINE
  8
0
 10
125.714
 20
182.774
 11
125.7
 21
183
  0
LINE
  8
0
 10
125.7
 20
183
 11
125.714
 21
183.226
  0
LINE
  8
0
 10
125.714
 20
183.226
 11
125.757
 21
183.448
  0
LINE
  8
0
 10
125.757
 20
183.448
 11
125.826
 21
183.663
  0
LINE
  8
0
 10
125.826
 20
183.663
 11
125.923
 21
183.867
  0
LINE
  8
0
 10
125.923
 20
183.867
 11
126.044
 21
184.058
  0
LINE
  8
0
 10
126.044
 20
184.058
 11
126.188
 21
184.232
  0
LINE
  8
0
 10
126.188
 20
184.232
 11
126.353
 21
184.387
  0
LINE
  8
0
 10
126.353
 20
184.387
 11
126.536
 21
184.52
  0
LINE
  8
0
 10
126.536
 20
184.52
 11
126.734
 21
184.629
  0
LINE
  8
0
 10
126.734
 20
184.629
 11
126.944
 21
184.712
  0
LINE
  8
0
 10
126.944
 20
184.712
 11
127.163
 21
184.768
  0
LINE
  8
0
 10
127.163
 20
184.768
 11
127.387
 21
184.796
  0
LINE
  8
0
 10
127.387
 20
184.796
 11
127.613
 21
184.796
  0
LINE
  8
0
 10
127.613
 20
184.796
 11
127.837
 21
184.768
  0
LINE
  8
0
 10
127.837
 20
184.768
 11
128.056
 21
184.712
  0
LINE
  8
0
 10
128.056
 20
184.712
 11
128.266
 21
184.629
  0
LINE
  8
0
 10
128.266
 20
184.629
 11
128.464
 21
184.52
  0
LINE
  8
0
 10
128.464
 20
184.52
 11
128.647
 21
184.387
  0
LINE
  8
0
 10
128.647
 20
184.387
 11
128.812
 21
184.232
  0
LINE
  8
0
 10
128.812
 20
184.232
 11
128.956
 21
184.058
  0
LINE
  8
0
 10
128.956
 20
184.058
 11
129.077
 21
183.867
  0
LINE
  8
0
 10
129.077
 20
183.867
 11
129.174
 21
183.663
  0
LINE
  8
0
 10
129.174
 20
183.663
 11
129.243
 21
183.448
  0
LINE
  8
0
 10
129.243
 20
183.448
 11
129.286
 21
183.226
  0
LINE
  8
0
 10
129.286
 20
183.226
 11
129.3
 21
183
  0
LINE
  8
0
 10
129.3
 20
183
 11
129.286
 21
182.774
  0
LINE
  8
0
 10
129.286
 20
182.774
 11
129.243
 21
182.552
  0
LINE
  8
0
 10
129.243
 20
182.552
 11
129.174
 21
182.337
  0
LINE
  8
0
 10
129.174
 20
182.337
 11
129.077
 21
182.133
  0
LINE
  8
0
 10
129.077
 20
182.133
 11
128.956
 21
181.942
  0
LINE
  8
0
 10
128.956
 20
181.942
 11
128.812
 21
181.768
  0
LINE
  8
0
 10
128.812
 20
181.768
 11
128.647
 21
181.613
  0
LINE
  8
0
 10
128.647
 20
181.613
 11
128.464
 21
181.48
  0
LINE
  8
0
 10
128.464
 20
181.48
 11
128.266
 21
181.371
  0
LINE
  8
0
 10
128.266
 20
181.371
 11
128.056
 21
181.288
  0
LINE
  8
0
 10
128.056
 20
181.288
 11
127.837
 21
181.232
  0
LINE
  8
0
 10
127.837
 20
181.232
 11
127.613
 21
181.204
  0
LINE
  8
0
 10
127.613
 20
181.204
 11
127.387
 21
181.204
  0
LINE
  8
0
 10
-127.613
 20
181.204
 11
-127.837
 21
181.232
  0
LINE
  8
0
 10
-127.837
 20
181.232
 11
-128.056
 21
181.288
  0
LINE
  8
0
 10
-128.056
 20
181.288
 11
-128.266
 21
181.371
  0
LINE
  8
0
 10
-128.266
 20
181.371
 11
-128.464
 21
181.48
  0
LINE
  8
0
 10
-128.464
 20
181.48
 11
-128.647
 21
181.613
  0
LINE
  8
0
 10
-128.647
 20
181.613
 11
-128.812
 21
181.768
  0
LINE
  8
0
 10
-128.812
 20
181.768
 11
-128.956
 21
181.942
  0
LINE
  8
0
 10
-128.956
 20
181.942
 11
-129.077
 21
182.133
  0
LINE
  8
0
 10
-129.077
 20
182.133
 11
-129.174
 21
182.337
  0
LINE
  8
0
 10
-129.174
 20
182.337
 11
-129.243
 21
182.552
  0
LINE
  8
0
 10
-129.243
 20
182.552
 11
-129.286
 21
182.774
  0
LINE
  8
0
 10
-129.286
 20
182.774
 11
-129.3
 21
183
  0
LINE
  8
0
 10
-129.3
 20
183
 11
-129.286
 21
183.226
  0
LINE
  8
0
 10
-129.286
 20
183.226
 11
-129.243
 21
183.448
  0
LINE
  8
0
 10
-129.243
 20
183.448
 11
-129.174
 21
183.663
  0
LINE
  8
0
 10
-129.174
 20
183.663
 11
-129.077
 21
183.867
  0
LINE
  8
0
 10
-129.077
 20
183.867
 11
-128.956
 21
184.058
  0
LINE
  8
0
 10
-128.956
 20
184.058
 11
-128.812
 21
184.232
  0
LINE
  8
0
 10
-128.812
 20
184.232
 11
-128.647
 21
184.387
  0
LINE
  8
0
 10
-128.647
 20
184.387
 11
-128.464
 21
184.52
  0
LINE
  8
0
 10
-128.464
 20
184.52
 11
-128.266
 21
184.629
  0
LINE
  8
0
 10
-128.266
 20
184.629
 11
-128.056
 21
184.712
  0
LINE
  8
0
 10
-128.056
 20
184.712
 11
-127.837
 21
184.768
  0
LINE
  8
0
 10
-127.837
 20
184.768
 11
-127.613
 21
184.796
  0
LINE
  8
0
 10
-127.613
 20
184.796
 11
-127.387
 21
184.796
  0
LINE
  8
0
 10
-127.387
 20
184.796
 11
-127.163
 21
184.768
  0
LINE
  8
0
 10
-127.163
 20
184.768
 11
-126.944
 21
184.712
  0
LINE
  8
0
 10
-126.944
 20
184.712
 11
-126.734
 21
184.629
  0
LINE
  8
0
 10
-126.734
 20
184.629
 11
-126.536
 21
184.52
  0
LINE
  8
0
 10
-126.536
 20
184.52
 11
-126.353
 21
184.387
  0
LINE
  8
0
 10
-126.353
 20
184.387
 11
-126.188
 21
184.232
  0
LINE
  8
0
 10
-126.188
 20
184.232
 11
-126.044
 21
184.058
  0
LINE
  8
0
 10
-126.044
 20
184.058
 11
-125.923
 21
183.867
  0
LINE
  8
0
 10
-125.923
 20
183.867
 11
-125.826
 21
183.663
  0
LINE
  8
0
 10
-125.826
 20
183.663
 11
-125.757
 21
183.448
  0
LINE
  8
0
 10
-125.757
 20
183.448
 11
-125.714
 21
183.226
  0
LINE
  8
0
 10
-125.714
 20
183.226
 11
-125.7
 21
183
  0
LINE
  8
0
 10
-125.7
 20
183
 11
-125.714
 21
182.774
  0
LINE
  8
0
 10
-125.714
 20
182.774
 11
-125.757
 21
182.552
  0
LINE
  8
0
 10
-125.757
 20
182.552
 11
-125.826
 21
182.337
  0
LINE
  8
0
 10
-125.826
 20
182.337
 11
-125.923
 21
182.133
  0
LINE
  8
0
 10
-125.923
 20
182.133
 11
-126.044
 21
181.942
  0
LINE
  8
0
 10
-126.044
 20
181.942
 11
-126.188
 21
181.768
  0
LINE
  8
0
 10
-126.188
 20
181.768
 11
-126.353
 21
181.613
  0
LINE
  8
0
 10
-126.353
 20
181.613
 11
-126.536
 21
181.48
  0
LINE
  8
0
 10
-126.536
 20
181.48
 11
-126.734
 21
181.371
  0
LINE
  8
0
 10
-126.734
 20
181.371
 11
-126.944
 21
181.288
  0
LINE
  8
0
 10
-126.944
 20
181.288
 11
-127.163
 21
181.232
  0
LINE
  8
0
 10
-127.163
 20
181.232
 11
-127.387
 21
181.204
  0
LINE
  8
0
 10
-127.387
 20
181.204
 11
-127.613
 21
181.204
  0
ENDSEC
  0
SECTION
  2
OBJECTS
  0
DICTIONARY
  0
ENDSEC
  0
EOF
