<?xml version="1.0" standalone="no"?>
<!DOCTYPE svg PUBLIC "-//W3C//DTD SVG 1.1//EN" "http://www.w3.org/Graphics/SVG/1.1/DTD/svg11.dtd">
<svg width="257mm" height="1048mm" viewBox="-129 -1712 257 1048" xmlns="http://www.w3.org/2000/svg" version="1.1">
<title>OpenSCAD Model</title>
<path d="
M -126,-1457.94 L -125.687,-1457.65 L -125.179,-1457.28 L -124.629,-1456.98 L -124.045,-1456.74 L -123.437,-1456.59
 L -122.814,-1456.51 L 122.814,-1456.51 L 123.437,-1456.59 L 124.045,-1456.74 L 124.629,-1456.98 L 125.179,-1457.28
 L 125.687,-1457.65 L 126.145,-1458.08 L 126.545,-1458.56 L 126.882,-1459.09 L 127.149,-1459.66 L 127.343,-1460.26
 L 127.461,-1460.87 L 127.5,-1461.5 L 127.5,-1706.5 L 127.461,-1707.13 L 127.343,-1707.74 L 127.149,-1708.34
 L 126.882,-1708.91 L 126.545,-1709.44 L 126.145,-1709.92 L 125.687,-1710.35 L 125.179,-1710.72 L 124.629,-1711.02
 L 124.045,-1711.26 L 123.437,-1711.41 L 122.814,-1711.49 L -122.814,-1711.49 L -123.437,-1711.41 L -124.045,-1711.26
 L -124.629,-1711.02 L -125.179,-1710.72 L -125.687,-1710.35 L -126,-1710.06 L -126,-1711.49 L -129,-1711.49
 L -129,-1456.51 L -126,-1456.51 z
M -122.251,-1458.01 L -122.75,-1458.07 L -123.236,-1458.2 L -123.703,-1458.38 L -124.143,-1458.62 L -124.55,-1458.92
 L -124.916,-1459.26 L -125.236,-1459.65 L -125.505,-1460.07 L -125.719,-1460.53 L -125.874,-1461.01 L -125.968,-1461.5
 L -126,-1462 L -126,-1706 L -125.968,-1706.5 L -125.874,-1706.99 L -125.719,-1707.47 L -125.505,-1707.93
 L -125.236,-1708.35 L -124.916,-1708.74 L -124.55,-1709.08 L -124.143,-1709.38 L -123.703,-1709.62 L -123.236,-1709.8
 L -122.75,-1709.93 L -122.251,-1709.99 L 122.251,-1709.99 L 122.75,-1709.93 L 123.236,-1709.8 L 123.703,-1709.62
 L 124.143,-1709.38 L 124.55,-1709.08 L 124.916,-1708.74 L 125.236,-1708.35 L 125.505,-1707.93 L 125.719,-1707.47
 L 125.874,-1706.99 L 125.968,-1706.5 L 126,-1706 L 126,-1462 L 125.968,-1461.5 L 125.874,-1461.01
 L 125.719,-1460.53 L 125.505,-1460.07 L 125.236,-1459.65 L 124.916,-1459.26 L 124.55,-1458.92 L 124.143,-1458.62
 L 123.703,-1458.38 L 123.236,-1458.2 L 122.75,-1458.07 L 122.251,-1458.01 z
M -126,-1193.94 L -125.687,-1193.65 L -125.179,-1193.28 L -124.629,-1192.98 L -124.045,-1192.74 L -123.437,-1192.59
 L -122.814,-1192.51 L 122.814,-1192.51 L 123.437,-1192.59 L 124.045,-1192.74 L 124.629,-1192.98 L 125.179,-1193.28
 L 125.687,-1193.65 L 126.145,-1194.08 L 126.545,-1194.56 L 126.882,-1195.09 L 127.149,-1195.66 L 127.343,-1196.26
 L 127.461,-1196.87 L 127.5,-1197.5 L 127.5,-1442.5 L 127.461,-1443.13 L 127.343,-1443.74 L 127.149,-1444.34
 L 126.882,-1444.91 L 126.545,-1445.44 L 126.145,-1445.92 L 125.687,-1446.35 L 125.179,-1446.72 L 124.629,-1447.02
 L 124.045,-1447.26 L 123.437,-1447.41 L 122.814,-1447.49 L -122.814,-1447.49 L -123.437,-1447.41 L -124.045,-1447.26
 L -124.629,-1447.02 L -125.179,-1446.72 L -125.687,-1446.35 L -126,-1446.06 L -126,-1447.49 L -129,-1447.49
 L -129,-1192.51 L -126,-1192.51 z
M -122.243,-1194.14 L -122.726,-1194.2 L -123.197,-1194.32 L -123.649,-1194.5 L -124.075,-1194.73 L -124.469,-1195.02
 L -124.823,-1195.35 L -125.133,-1195.72 L -125.394,-1196.13 L -125.601,-1196.57 L -125.751,-1197.04 L -125.842,-1197.51
 L -125.873,-1198 L -125.873,-1442 L -125.842,-1442.49 L -125.751,-1442.96 L -125.601,-1443.43 L -125.394,-1443.87
 L -125.133,-1444.28 L -124.823,-1444.65 L -124.469,-1444.98 L -124.075,-1445.27 L -123.649,-1445.5 L -123.197,-1445.68
 L -122.726,-1445.8 L -122.243,-1445.86 L 122.243,-1445.86 L 122.726,-1445.8 L 123.197,-1445.68 L 123.649,-1445.5
 L 124.075,-1445.27 L 124.469,-1444.98 L 124.823,-1444.65 L 125.133,-1444.28 L 125.394,-1443.87 L 125.601,-1443.43
 L 125.751,-1442.96 L 125.842,-1442.49 L 125.873,-1442 L 125.873,-1198 L 125.842,-1197.51 L 125.751,-1197.04
 L 125.601,-1196.57 L 125.394,-1196.13 L 125.133,-1195.72 L 124.823,-1195.35 L 124.469,-1195.02 L 124.075,-1194.73
 L 123.649,-1194.5 L 123.197,-1194.32 L 122.726,-1194.2 L 122.243,-1194.14 z
M 123.437,-928.589 L 124.045,-928.745 L 124.629,-928.976 L 125.179,-929.278 L 125.687,-929.647 L 126.145,-930.077
 L 126.545,-930.561 L 126.882,-931.091 L 127.149,-931.659 L 127.343,-932.257 L 127.461,-932.873 L 127.5,-933.5
 L 127.5,-1178.5 L 127.461,-1179.13 L 127.343,-1179.74 L 127.149,-1180.34 L 126.882,-1180.91 L 126.545,-1181.44
 L 126.145,-1181.92 L 125.687,-1182.35 L 125.179,-1182.72 L 124.629,-1183.02 L 124.045,-1183.26 L 123.437,-1183.41
 L 122.814,-1183.49 L -122.814,-1183.49 L -123.437,-1183.41 L -124.045,-1183.26 L -124.629,-1183.02 L -125.179,-1182.72
 L -125.687,-1182.35 L -126,-1182.06 L -126,-1183.11 L -129,-1183.11 L -129,-928.885 L -126,-928.885
 L -126,-929.941 L -125.687,-929.647 L -125.179,-929.278 L -124.629,-928.976 L -124.045,-928.745 L -123.437,-928.589
 L -122.814,-928.51 L 122.814,-928.51 z
M 119.849,-1173.6 L 119.55,-1173.64 L 119.258,-1173.72 L 118.978,-1173.83 L 118.714,-1173.97 L 118.47,-1174.15
 L 118.25,-1174.36 L 118.058,-1174.59 L 117.897,-1174.84 L 117.769,-1175.12 L 117.675,-1175.4 L 117.619,-1175.7
 L 117.6,-1176 L 117.619,-1176.3 L 117.675,-1176.6 L 117.769,-1176.88 L 117.897,-1177.16 L 118.058,-1177.41
 L 118.25,-1177.64 L 118.47,-1177.85 L 118.714,-1178.03 L 118.978,-1178.17 L 119.258,-1178.28 L 119.55,-1178.36
 L 119.849,-1178.4 L 120.151,-1178.4 L 120.45,-1178.36 L 120.742,-1178.28 L 121.022,-1178.17 L 121.286,-1178.03
 L 121.53,-1177.85 L 121.75,-1177.64 L 121.942,-1177.41 L 122.103,-1177.16 L 122.231,-1176.88 L 122.325,-1176.6
 L 122.381,-1176.3 L 122.4,-1176 L 122.381,-1175.7 L 122.325,-1175.4 L 122.231,-1175.12 L 122.103,-1174.84
 L 121.942,-1174.59 L 121.75,-1174.36 L 121.53,-1174.15 L 121.286,-1173.97 L 121.022,-1173.83 L 120.742,-1173.72
 L 120.45,-1173.64 L 120.151,-1173.6 z
M -120.151,-1173.6 L -120.45,-1173.64 L -120.742,-1173.72 L -121.022,-1173.83 L -121.286,-1173.97 L -121.53,-1174.15
 L -121.75,-1174.36 L -121.942,-1174.59 L -122.103,-1174.84 L -122.231,-1175.12 L -122.325,-1175.4 L -122.381,-1175.7
 L -122.4,-1176 L -122.381,-1176.3 L -122.325,-1176.6 L -122.231,-1176.88 L -122.103,-1177.16 L -121.942,-1177.41
 L -121.75,-1177.64 L -121.53,-1177.85 L -121.286,-1178.03 L -121.022,-1178.17 L -120.742,-1178.28 L -120.45,-1178.36
 L -120.151,-1178.4 L -119.849,-1178.4 L -119.55,-1178.36 L -119.258,-1178.28 L -118.978,-1178.17 L -118.714,-1178.03
 L -118.47,-1177.85 L -118.25,-1177.64 L -118.058,-1177.41 L -117.897,-1177.16 L -117.769,-1176.88 L -117.675,-1176.6
 L -117.619,-1176.3 L -117.6,-1176 L -117.619,-1175.7 L -117.675,-1175.4 L -117.769,-1175.12 L -117.897,-1174.84
 L -118.058,-1174.59 L -118.25,-1174.36 L -118.47,-1174.15 L -118.714,-1173.97 L -118.978,-1173.83 L -119.258,-1173.72
 L -119.55,-1173.64 L -119.849,-1173.6 z
M 119.849,-933.605 L 119.55,-933.643 L 119.258,-933.717 L 118.978,-933.828 L 118.714,-933.974 L 118.47,-934.151
 L 118.25,-934.357 L 118.058,-934.589 L 117.897,-934.844 L 117.769,-935.117 L 117.675,-935.403 L 117.619,-935.699
 L 117.6,-936 L 117.619,-936.301 L 117.675,-936.597 L 117.769,-936.883 L 117.897,-937.156 L 118.058,-937.411
 L 118.25,-937.643 L 118.47,-937.849 L 118.714,-938.026 L 118.978,-938.172 L 119.258,-938.283 L 119.55,-938.357
 L 119.849,-938.395 L 120.151,-938.395 L 120.45,-938.357 L 120.742,-938.283 L 121.022,-938.172 L 121.286,-938.026
 L 121.53,-937.849 L 121.75,-937.643 L 121.942,-937.411 L 122.103,-937.156 L 122.231,-936.883 L 122.325,-936.597
 L 122.381,-936.301 L 122.4,-936 L 122.381,-935.699 L 122.325,-935.403 L 122.231,-935.117 L 122.103,-934.844
 L 121.942,-934.589 L 121.75,-934.357 L 121.53,-934.151 L 121.286,-933.974 L 121.022,-933.828 L 120.742,-933.717
 L 120.45,-933.643 L 120.151,-933.605 z
M -120.151,-933.605 L -120.45,-933.643 L -120.742,-933.717 L -121.022,-933.828 L -121.286,-933.974 L -121.53,-934.151
 L -121.75,-934.357 L -121.942,-934.589 L -122.103,-934.844 L -122.231,-935.117 L -122.325,-935.403 L -122.381,-935.699
 L -122.4,-936 L -122.381,-936.301 L -122.325,-936.597 L -122.231,-936.883 L -122.103,-937.156 L -121.942,-937.411
 L -121.75,-937.643 L -121.53,-937.849 L -121.286,-938.026 L -121.022,-938.172 L -120.742,-938.283 L -120.45,-938.357
 L -120.151,-938.395 L -119.849,-938.395 L -119.55,-938.357 L -119.258,-938.283 L -118.978,-938.172 L -118.714,-938.026
 L -118.47,-937.849 L -118.25,-937.643 L -118.058,-937.411 L -117.897,-937.156 L -117.769,-936.883 L -117.675,-936.597
 L -117.619,-936.301 L -117.6,-936 L -117.619,-935.699 L -117.675,-935.403 L -117.769,-935.117 L -117.897,-934.844
 L -118.058,-934.589 L -118.25,-934.357 L -118.47,-934.151 L -118.714,-933.974 L -118.978,-933.828 L -119.258,-933.717
 L -119.55,-933.643 L -119.849,-933.605 z
M 123.437,-664.589 L 124.045,-664.745 L 124.629,-664.976 L 125.179,-665.278 L 125.687,-665.647 L 126.145,-666.077
 L 126.545,-666.561 L 126.882,-667.091 L 127.149,-667.659 L 127.343,-668.257 L 127.461,-668.873 L 127.5,-669.5
 L 127.5,-914.5 L 127.461,-915.127 L 127.343,-915.743 L 127.149,-916.341 L 126.882,-916.909 L 126.545,-917.439
 L 126.145,-917.923 L 125.687,-918.353 L 125.179,-918.722 L 124.629,-919.024 L 124.045,-919.255 L 123.437,-919.411
 L 122.814,-919.49 L -122.814,-919.49 L -123.437,-919.411 L -124.045,-919.255 L -124.629,-919.024 L -125.179,-918.722
 L -125.687,-918.353 L -126.145,-917.923 L -126.545,-917.439 L -126.882,-916.909 L -127.149,-916.341 L -127.343,-915.743
 L -127.4,-915.444 L -129,-915.444 L -129,-668.556 L -127.4,-668.556 L -127.343,-668.257 L -127.149,-667.659
 L -126.882,-667.091 L -126.545,-666.561 L -126.145,-666.077 L -125.687,-665.647 L -125.179,-665.278 L -124.629,-664.976
 L -124.045,-664.745 L -123.437,-664.589 L -122.814,-664.51 L 122.814,-664.51 z
M 119.887,-910.204 L 119.663,-910.232 L 119.444,-910.288 L 119.234,-910.371 L 119.036,-910.48 L 118.853,-910.613
 L 118.688,-910.768 L 118.544,-910.942 L 118.423,-911.133 L 118.326,-911.337 L 118.257,-911.552 L 118.214,-911.774
 L 118.2,-912 L 118.214,-912.226 L 118.257,-912.448 L 118.326,-912.663 L 118.423,-912.867 L 118.544,-913.058
 L 118.688,-913.232 L 118.853,-913.387 L 119.036,-913.52 L 119.234,-913.629 L 119.444,-913.712 L 119.663,-913.768
 L 119.887,-913.796 L 120.113,-913.796 L 120.337,-913.768 L 120.556,-913.712 L 120.766,-913.629 L 120.964,-913.52
 L 121.147,-913.387 L 121.312,-913.232 L 121.456,-913.058 L 121.577,-912.867 L 121.674,-912.663 L 121.743,-912.448
 L 121.786,-912.226 L 121.8,-912 L 121.786,-911.774 L 121.743,-911.552 L 121.674,-911.337 L 121.577,-911.133
 L 121.456,-910.942 L 121.312,-910.768 L 121.147,-910.613 L 120.964,-910.48 L 120.766,-910.371 L 120.556,-910.288
 L 120.337,-910.232 L 120.113,-910.204 z
M -120.113,-910.204 L -120.337,-910.232 L -120.556,-910.288 L -120.766,-910.371 L -120.964,-910.48 L -121.147,-910.613
 L -121.312,-910.768 L -121.456,-910.942 L -121.577,-911.133 L -121.674,-911.337 L -121.743,-911.552 L -121.786,-911.774
 L -121.8,-912 L -121.786,-912.226 L -121.743,-912.448 L -121.674,-912.663 L -121.577,-912.867 L -121.456,-913.058
 L -121.312,-913.232 L -121.147,-913.387 L -120.964,-913.52 L -120.766,-913.629 L -120.556,-913.712 L -120.337,-913.768
 L -120.113,-913.796 L -119.887,-913.796 L -119.663,-913.768 L -119.444,-913.712 L -119.234,-913.629 L -119.036,-913.52
 L -118.853,-913.387 L -118.688,-913.232 L -118.544,-913.058 L -118.423,-912.867 L -118.326,-912.663 L -118.257,-912.448
 L -118.214,-912.226 L -118.2,-912 L -118.214,-911.774 L -118.257,-911.552 L -118.326,-911.337 L -118.423,-911.133
 L -118.544,-910.942 L -118.688,-910.768 L -118.853,-910.613 L -119.036,-910.48 L -119.234,-910.371 L -119.444,-910.288
 L -119.663,-910.232 L -119.887,-910.204 z
M -120.113,-670.204 L -120.337,-670.232 L -120.556,-670.288 L -120.766,-670.371 L -120.964,-670.48 L -121.147,-670.613
 L -121.312,-670.768 L -121.456,-670.942 L -121.577,-671.133 L -121.674,-671.337 L -121.743,-671.552 L -121.786,-671.774
 L -121.8,-672 L -121.786,-672.226 L -121.743,-672.448 L -121.674,-672.663 L -121.577,-672.867 L -121.456,-673.058
 L -121.312,-673.232 L -121.147,-673.387 L -120.964,-673.52 L -120.766,-673.629 L -120.556,-673.712 L -120.337,-673.768
 L -120.113,-673.796 L -119.887,-673.796 L -119.663,-673.768 L -119.444,-673.712 L -119.234,-673.629 L -119.036,-673.52
 L -118.853,-673.387 L -118.688,-673.232 L -118.544,-673.058 L -118.423,-672.867 L -118.326,-672.663 L -118.257,-672.448
 L -118.214,-672.226 L -118.2,-672 L -118.214,-671.774 L -118.257,-671.552 L -118.326,-671.337 L -118.423,-671.133
 L -118.544,-670.942 L -118.688,-670.768 L -118.853,-670.613 L -119.036,-670.48 L -119.234,-670.371 L -119.444,-670.288
 L -119.663,-670.232 L -119.887,-670.204 z
M 119.887,-670.204 L 119.663,-670.232 L 119.444,-670.288 L 119.234,-670.371 L 119.036,-670.48 L 118.853,-670.613
 L 118.688,-670.768 L 118.544,-670.942 L 118.423,-671.133 L 118.326,-671.337 L 118.257,-671.552 L 118.214,-671.774
 L 118.2,-672 L 118.214,-672.226 L 118.257,-672.448 L 118.326,-672.663 L 118.423,-672.867 L 118.544,-673.058
 L 118.688,-673.232 L 118.853,-673.387 L 119.036,-673.52 L 119.234,-673.629 L 119.444,-673.712 L 119.663,-673.768
 L 119.887,-673.796 L 120.113,-673.796 L 120.337,-673.768 L 120.556,-673.712 L 120.766,-673.629 L 120.964,-673.52
 L 121.147,-673.387 L 121.312,-673.232 L 121.456,-673.058 L 121.577,-672.867 L 121.674,-672.663 L 121.743,-672.448
 L 121.786,-672.226 L 121.8,-672 L 121.786,-671.774 L 121.743,-671.552 L 121.674,-671.337 L 121.577,-671.133
 L 121.456,-670.942 L 121.312,-670.768 L 121.147,-670.613 L 120.964,-670.48 L 120.766,-670.371 L 120.556,-670.288
 L 120.337,-670.232 L 120.113,-670.204 z
" stroke="black" fill="lightgray" stroke-width="0.5"/>
</svg>
