<?xml version="1.0" standalone="no"?>
<!DOCTYPE svg PUBLIC "-//W3C//DTD SVG 1.1//EN" "http://www.w3.org/Graphics/SVG/1.1/DTD/svg11.dtd">
<svg width="256mm" height="429mm" viewBox="-128 -543 256 429" xmlns="http://www.w3.org/2000/svg" version="1.1">
<title>OpenSCAD Model</title>
<path d="
M 123.437,-333.089 L 124.045,-333.245 L 124.629,-333.476 L 125.179,-333.778 L 125.687,-334.147 L 126.145,-334.577
 L 126.545,-335.061 L 126.882,-335.591 L 127.149,-336.159 L 127.343,-336.757 L 127.461,-337.373 L 127.5,-338
 L 127.5,-538 L 127.461,-538.627 L 127.343,-539.243 L 127.149,-539.841 L 126.882,-540.409 L 126.545,-540.939
 L 126.145,-541.423 L 125.687,-541.853 L 125.179,-542.222 L 124.629,-542.524 L 124.045,-542.755 L 123.437,-542.911
 L 122.814,-542.99 L -122.814,-542.99 L -123.437,-542.911 L -124.045,-542.755 L -124.629,-542.524 L -125.179,-542.222
 L -125.687,-541.853 L -126.145,-541.423 L -126.545,-540.939 L -126.882,-540.409 L -127.149,-539.841 L -127.343,-539.243
 L -127.461,-538.627 L -127.5,-538 L -127.5,-338 L -127.461,-337.373 L -127.343,-336.757 L -127.149,-336.159
 L -126.882,-335.591 L -126.545,-335.061 L -126.145,-334.577 L -125.687,-334.147 L -125.179,-333.778 L -124.629,-333.476
 L -124.045,-333.245 L -123.437,-333.089 L -122.814,-333.01 L 122.814,-333.01 z
M -122.493,-334.388 L -122.975,-334.449 L -123.446,-334.57 L -123.898,-334.749 L -124.323,-334.983 L -124.716,-335.269
 L -125.071,-335.601 L -125.38,-335.976 L -125.641,-336.386 L -125.848,-336.826 L -125.998,-337.288 L -126.089,-337.765
 L -126.119,-338.25 L -126.119,-537.75 L -126.089,-538.235 L -125.998,-538.712 L -125.848,-539.174 L -125.641,-539.614
 L -125.38,-540.024 L -125.071,-540.399 L -124.716,-540.731 L -124.323,-541.017 L -123.898,-541.251 L -123.446,-541.43
 L -122.975,-541.551 L -122.493,-541.612 L 122.493,-541.612 L 122.975,-541.551 L 123.446,-541.43 L 123.898,-541.251
 L 124.323,-541.017 L 124.716,-540.731 L 125.071,-540.399 L 125.38,-540.024 L 125.641,-539.614 L 125.848,-539.174
 L 125.998,-538.712 L 126.089,-538.235 L 126.119,-537.75 L 126.119,-338.25 L 126.089,-337.765 L 125.998,-337.288
 L 125.848,-336.826 L 125.641,-336.386 L 125.38,-335.976 L 125.071,-335.601 L 124.716,-335.269 L 124.323,-334.983
 L 123.898,-334.749 L 123.446,-334.57 L 122.975,-334.449 L 122.493,-334.388 z
M 123.437,-114.089 L 124.045,-114.245 L 124.629,-114.476 L 125.179,-114.778 L 125.687,-115.147 L 126.145,-115.577
 L 126.545,-116.061 L 126.882,-116.591 L 127.149,-117.159 L 127.343,-117.757 L 127.461,-118.373 L 127.5,-119
 L 127.5,-319 L 127.461,-319.627 L 127.343,-320.243 L 127.149,-320.841 L 126.882,-321.409 L 126.545,-321.939
 L 126.145,-322.423 L 125.687,-322.853 L 125.179,-323.222 L 124.629,-323.524 L 124.045,-323.755 L 123.437,-323.911
 L 122.814,-323.99 L -122.814,-323.99 L -123.437,-323.911 L -124.045,-323.755 L -124.629,-323.524 L -125.179,-323.222
 L -125.687,-322.853 L -126.145,-322.423 L -126.545,-321.939 L -126.882,-321.409 L -127.149,-320.841 L -127.343,-320.243
 L -127.461,-319.627 L -127.5,-319 L -127.5,-119 L -127.461,-118.373 L -127.343,-117.757 L -127.149,-117.159
 L -126.882,-116.591 L -126.545,-116.061 L -126.145,-115.577 L -125.687,-115.147 L -125.179,-114.778 L -124.629,-114.476
 L -124.045,-114.245 L -123.437,-114.089 L -122.814,-114.01 L 122.814,-114.01 z
M 119.887,-314.704 L 119.663,-314.732 L 119.444,-314.788 L 119.234,-314.871 L 119.036,-314.98 L 118.853,-315.113
 L 118.688,-315.268 L 118.544,-315.442 L 118.423,-315.633 L 118.326,-315.837 L 118.257,-316.052 L 118.214,-316.274
 L 118.2,-316.5 L 118.214,-316.726 L 118.257,-316.948 L 118.326,-317.163 L 118.423,-317.367 L 118.544,-317.558
 L 118.688,-317.732 L 118.853,-317.887 L 119.036,-318.02 L 119.234,-318.129 L 119.444,-318.212 L 119.663,-318.268
 L 119.887,-318.296 L 120.113,-318.296 L 120.337,-318.268 L 120.556,-318.212 L 120.766,-318.129 L 120.964,-318.02
 L 121.147,-317.887 L 121.312,-317.732 L 121.456,-317.558 L 121.577,-317.367 L 121.674,-317.163 L 121.743,-316.948
 L 121.786,-316.726 L 121.8,-316.5 L 121.786,-316.274 L 121.743,-316.052 L 121.674,-315.837 L 121.577,-315.633
 L 121.456,-315.442 L 121.312,-315.268 L 121.147,-315.113 L 120.964,-314.98 L 120.766,-314.871 L 120.556,-314.788
 L 120.337,-314.732 L 120.113,-314.704 z
M -120.113,-314.704 L -120.337,-314.732 L -120.556,-314.788 L -120.766,-314.871 L -120.964,-314.98 L -121.147,-315.113
 L -121.312,-315.268 L -121.456,-315.442 L -121.577,-315.633 L -121.674,-315.837 L -121.743,-316.052 L -121.786,-316.274
 L -121.8,-316.5 L -121.786,-316.726 L -121.743,-316.948 L -121.674,-317.163 L -121.577,-317.367 L -121.456,-317.558
 L -121.312,-317.732 L -121.147,-317.887 L -120.964,-318.02 L -120.766,-318.129 L -120.556,-318.212 L -120.337,-318.268
 L -120.113,-318.296 L -119.887,-318.296 L -119.663,-318.268 L -119.444,-318.212 L -119.234,-318.129 L -119.036,-318.02
 L -118.853,-317.887 L -118.688,-317.732 L -118.544,-317.558 L -118.423,-317.367 L -118.326,-317.163 L -118.257,-316.948
 L -118.214,-316.726 L -118.2,-316.5 L -118.214,-316.274 L -118.257,-316.052 L -118.326,-315.837 L -118.423,-315.633
 L -118.544,-315.442 L -118.688,-315.268 L -118.853,-315.113 L -119.036,-314.98 L -119.234,-314.871 L -119.444,-314.788
 L -119.663,-314.732 L -119.887,-314.704 z
M -120.113,-119.704 L -120.337,-119.732 L -120.556,-119.788 L -120.766,-119.871 L -120.964,-119.98 L -121.147,-120.113
 L -121.312,-120.268 L -121.456,-120.442 L -121.577,-120.633 L -121.674,-120.837 L -121.743,-121.052 L -121.786,-121.274
 L -121.8,-121.5 L -121.786,-121.726 L -121.743,-121.948 L -121.674,-122.163 L -121.577,-122.367 L -121.456,-122.558
 L -121.312,-122.732 L -121.147,-122.887 L -120.964,-123.02 L -120.766,-123.129 L -120.556,-123.212 L -120.337,-123.268
 L -120.113,-123.296 L -119.887,-123.296 L -119.663,-123.268 L -119.444,-123.212 L -119.234,-123.129 L -119.036,-123.02
 L -118.853,-122.887 L -118.688,-122.732 L -118.544,-122.558 L -118.423,-122.367 L -118.326,-122.163 L -118.257,-121.948
 L -118.214,-121.726 L -118.2,-121.5 L -118.214,-121.274 L -118.257,-121.052 L -118.326,-120.837 L -118.423,-120.633
 L -118.544,-120.442 L -118.688,-120.268 L -118.853,-120.113 L -119.036,-119.98 L -119.234,-119.871 L -119.444,-119.788
 L -119.663,-119.732 L -119.887,-119.704 z
M 119.887,-119.704 L 119.663,-119.732 L 119.444,-119.788 L 119.234,-119.871 L 119.036,-119.98 L 118.853,-120.113
 L 118.688,-120.268 L 118.544,-120.442 L 118.423,-120.633 L 118.326,-120.837 L 118.257,-121.052 L 118.214,-121.274
 L 118.2,-121.5 L 118.214,-121.726 L 118.257,-121.948 L 118.326,-122.163 L 118.423,-122.367 L 118.544,-122.558
 L 118.688,-122.732 L 118.853,-122.887 L 119.036,-123.02 L 119.234,-123.129 L 119.444,-123.212 L 119.663,-123.268
 L 119.887,-123.296 L 120.113,-123.296 L 120.337,-123.268 L 120.556,-123.212 L 120.766,-123.129 L 120.964,-123.02
 L 121.147,-122.887 L 121.312,-122.732 L 121.456,-122.558 L 121.577,-122.367 L 121.674,-122.163 L 121.743,-121.948
 L 121.786,-121.726 L 121.8,-121.5 L 121.786,-121.274 L 121.743,-121.052 L 121.674,-120.837 L 121.577,-120.633
 L 121.456,-120.442 L 121.312,-120.268 L 121.147,-120.113 L 120.964,-119.98 L 120.766,-119.871 L 120.556,-119.788
 L 120.337,-119.732 L 120.113,-119.704 z
" stroke="black" fill="lightgray" stroke-width="0.5"/>
</svg>
