  0
SECTION
  2
BLOCKS
  0
ENDSEC
  0
SECTION
  2
ENTITIES
  0
LINE
  8
0
 10
138.437
 20
289.589
 11
139.045
 21
289.745
  0
LINE
  8
0
 10
139.045
 20
289.745
 11
139.629
 21
289.976
  0
LINE
  8
0
 10
139.629
 20
289.976
 11
140.179
 21
290.278
  0
LINE
  8
0
 10
140.179
 20
290.278
 11
140.687
 21
290.647
  0
LINE
  8
0
 10
140.687
 20
290.647
 11
141.145
 21
291.077
  0
LINE
  8
0
 10
141.145
 20
291.077
 11
141.545
 21
291.561
  0
LINE
  8
0
 10
141.545
 20
291.561
 11
141.882
 21
292.091
  0
LINE
  8
0
 10
141.882
 20
292.091
 11
142.149
 21
292.659
  0
LINE
  8
0
 10
142.149
 20
292.659
 11
142.343
 21
293.257
  0
LINE
  8
0
 10
142.343
 20
293.257
 11
142.461
 21
293.873
  0
LINE
  8
0
 10
142.461
 20
293.873
 11
142.5
 21
294.5
  0
LINE
  8
0
 10
142.5
 20
294.5
 11
142.5
 21
389.5
  0
LINE
  8
0
 10
142.5
 20
389.5
 11
142.461
 21
390.127
  0
LINE
  8
0
 10
142.461
 20
390.127
 11
142.343
 21
390.743
  0
LINE
  8
0
 10
142.343
 20
390.743
 11
142.149
 21
391.341
  0
LINE
  8
0
 10
142.149
 20
391.341
 11
141.882
 21
391.909
  0
LINE
  8
0
 10
141.882
 20
391.909
 11
141.545
 21
392.439
  0
LINE
  8
0
 10
141.545
 20
392.439
 11
141.145
 21
392.923
  0
LINE
  8
0
 10
141.145
 20
392.923
 11
140.687
 21
393.353
  0
LINE
  8
0
 10
140.687
 20
393.353
 11
140.179
 21
393.722
  0
LINE
  8
0
 10
140.179
 20
393.722
 11
139.629
 21
394.024
  0
LINE
  8
0
 10
139.629
 20
394.024
 11
139.045
 21
394.255
  0
LINE
  8
0
 10
139.045
 20
394.255
 11
138.437
 21
394.411
  0
LINE
  8
0
 10
138.437
 20
394.411
 11
137.814
 21
394.49
  0
LINE
  8
0
 10
137.814
 20
394.49
 11
-137.814
 21
394.49
  0
LINE
  8
0
 10
-137.814
 20
394.49
 11
-138.437
 21
394.411
  0
LINE
  8
0
 10
-138.437
 20
394.411
 11
-139.045
 21
394.255
  0
LINE
  8
0
 10
-139.045
 20
394.255
 11
-139.629
 21
394.024
  0
LINE
  8
0
 10
-139.629
 20
394.024
 11
-140.179
 21
393.722
  0
LINE
  8
0
 10
-140.179
 20
393.722
 11
-140.687
 21
393.353
  0
LINE
  8
0
 10
-140.687
 20
393.353
 11
-141.145
 21
392.923
  0
LINE
  8
0
 10
-141.145
 20
392.923
 11
-141.545
 21
392.439
  0
LINE
  8
0
 10
-141.545
 20
392.439
 11
-141.882
 21
391.909
  0
LINE
  8
0
 10
-141.882
 20
391.909
 11
-142.149
 21
391.341
  0
LINE
  8
0
 10
-142.149
 20
391.341
 11
-142.343
 21
390.743
  0
LINE
  8
0
 10
-142.343
 20
390.743
 11
-142.461
 21
390.127
  0
LINE
  8
0
 10
-142.461
 20
390.127
 11
-142.5
 21
389.5
  0
LINE
  8
0
 10
-142.5
 20
389.5
 11
-142.5
 21
294.5
  0
LINE
  8
0
 10
-142.5
 20
294.5
 11
-142.461
 21
293.873
  0
LINE
  8
0
 10
-142.461
 20
293.873
 11
-142.343
 21
293.257
  0
LINE
  8
0
 10
-142.343
 20
293.257
 11
-142.149
 21
292.659
  0
LINE
  8
0
 10
-142.149
 20
292.659
 11
-141.882
 21
292.091
  0
LINE
  8
0
 10
-141.882
 20
292.091
 11
-141.545
 21
291.561
  0
LINE
  8
0
 10
-141.545
 20
291.561
 11
-141.145
 21
291.077
  0
LINE
  8
0
 10
-141.145
 20
291.077
 11
-140.687
 21
290.647
  0
LINE
  8
0
 10
-140.687
 20
290.647
 11
-140.179
 21
290.278
  0
LINE
  8
0
 10
-140.179
 20
290.278
 11
-139.629
 21
289.976
  0
LINE
  8
0
 10
-139.629
 20
289.976
 11
-139.045
 21
289.745
  0
LINE
  8
0
 10
-139.045
 20
289.745
 11
-138.437
 21
289.589
  0
LINE
  8
0
 10
-138.437
 20
289.589
 11
-137.814
 21
289.51
  0
LINE
  8
0
 10
-137.814
 20
289.51
 11
137.814
 21
289.51
  0
LINE
  8
0
 10
137.814
 20
289.51
 11
138.437
 21
289.589
  0
LINE
  8
0
 10
-137.537
 20
290.181
 11
-138.108
 21
290.253
  0
LINE
  8
0
 10
-138.108
 20
290.253
 11
-138.665
 21
290.396
  0
LINE
  8
0
 10
-138.665
 20
290.396
 11
-139.199
 21
290.607
  0
LINE
  8
0
 10
-139.199
 20
290.607
 11
-139.703
 21
290.884
  0
LINE
  8
0
 10
-139.703
 20
290.884
 11
-140.168
 21
291.222
  0
LINE
  8
0
 10
-140.168
 20
291.222
 11
-140.588
 21
291.616
  0
LINE
  8
0
 10
-140.588
 20
291.616
 11
-140.954
 21
292.059
  0
LINE
  8
0
 10
-140.954
 20
292.059
 11
-141.262
 21
292.544
  0
LINE
  8
0
 10
-141.262
 20
292.544
 11
-141.507
 21
293.065
  0
LINE
  8
0
 10
-141.507
 20
293.065
 11
-141.685
 21
293.611
  0
LINE
  8
0
 10
-141.685
 20
293.611
 11
-141.792
 21
294.176
  0
LINE
  8
0
 10
-141.792
 20
294.176
 11
-141.828
 21
294.75
  0
LINE
  8
0
 10
-141.828
 20
294.75
 11
-141.828
 21
389.25
  0
LINE
  8
0
 10
-141.828
 20
389.25
 11
-141.792
 21
389.824
  0
LINE
  8
0
 10
-141.792
 20
389.824
 11
-141.685
 21
390.389
  0
LINE
  8
0
 10
-141.685
 20
390.389
 11
-141.507
 21
390.935
  0
LINE
  8
0
 10
-141.507
 20
390.935
 11
-141.262
 21
391.456
  0
LINE
  8
0
 10
-141.262
 20
391.456
 11
-140.954
 21
391.941
  0
LINE
  8
0
 10
-140.954
 20
391.941
 11
-140.588
 21
392.384
  0
LINE
  8
0
 10
-140.588
 20
392.384
 11
-140.168
 21
392.778
  0
LINE
  8
0
 10
-140.168
 20
392.778
 11
-139.703
 21
393.116
  0
LINE
  8
0
 10
-139.703
 20
393.116
 11
-139.199
 21
393.393
  0
LINE
  8
0
 10
-139.199
 20
393.393
 11
-138.665
 21
393.604
  0
LINE
  8
0
 10
-138.665
 20
393.604
 11
-138.108
 21
393.747
  0
LINE
  8
0
 10
-138.108
 20
393.747
 11
-137.537
 21
393.819
  0
LINE
  8
0
 10
-137.537
 20
393.819
 11
137.537
 21
393.819
  0
LINE
  8
0
 10
137.537
 20
393.819
 11
138.108
 21
393.747
  0
LINE
  8
0
 10
138.108
 20
393.747
 11
138.665
 21
393.604
  0
LINE
  8
0
 10
138.665
 20
393.604
 11
139.199
 21
393.393
  0
LINE
  8
0
 10
139.199
 20
393.393
 11
139.703
 21
393.116
  0
LINE
  8
0
 10
139.703
 20
393.116
 11
140.168
 21
392.778
  0
LINE
  8
0
 10
140.168
 20
392.778
 11
140.588
 21
392.384
  0
LINE
  8
0
 10
140.588
 20
392.384
 11
140.954
 21
391.941
  0
LINE
  8
0
 10
140.954
 20
391.941
 11
141.262
 21
391.456
  0
LINE
  8
0
 10
141.262
 20
391.456
 11
141.507
 21
390.935
  0
LINE
  8
0
 10
141.507
 20
390.935
 11
141.685
 21
390.389
  0
LINE
  8
0
 10
141.685
 20
390.389
 11
141.792
 21
389.824
  0
LINE
  8
0
 10
141.792
 20
389.824
 11
141.828
 21
389.25
  0
LINE
  8
0
 10
141.828
 20
389.25
 11
141.828
 21
294.75
  0
LINE
  8
0
 10
141.828
 20
294.75
 11
141.792
 21
294.176
  0
LINE
  8
0
 10
141.792
 20
294.176
 11
141.685
 21
293.611
  0
LINE
  8
0
 10
141.685
 20
293.611
 11
141.507
 21
293.065
  0
LINE
  8
0
 10
141.507
 20
293.065
 11
141.262
 21
292.544
  0
LINE
  8
0
 10
141.262
 20
292.544
 11
140.954
 21
292.059
  0
LINE
  8
0
 10
140.954
 20
292.059
 11
140.588
 21
291.616
  0
LINE
  8
0
 10
140.588
 20
291.616
 11
140.168
 21
291.222
  0
LINE
  8
0
 10
140.168
 20
291.222
 11
139.703
 21
290.884
  0
LINE
  8
0
 10
139.703
 20
290.884
 11
139.199
 21
290.607
  0
LINE
  8
0
 10
139.199
 20
290.607
 11
138.665
 21
290.396
  0
LINE
  8
0
 10
138.665
 20
290.396
 11
138.108
 21
290.253
  0
LINE
  8
0
 10
138.108
 20
290.253
 11
137.537
 21
290.181
  0
LINE
  8
0
 10
137.537
 20
290.181
 11
-137.537
 21
290.181
  0
LINE
  8
0
 10
138.437
 20
175.589
 11
139.045
 21
175.745
  0
LINE
  8
0
 10
139.045
 20
175.745
 11
139.629
 21
175.976
  0
LINE
  8
0
 10
139.629
 20
175.976
 11
140.179
 21
176.278
  0
LINE
  8
0
 10
140.179
 20
176.278
 11
140.687
 21
176.647
  0
LINE
  8
0
 10
140.687
 20
176.647
 11
141.145
 21
177.077
  0
LINE
  8
0
 10
141.145
 20
177.077
 11
141.545
 21
177.561
  0
LINE
  8
0
 10
141.545
 20
177.561
 11
141.882
 21
178.091
  0
LINE
  8
0
 10
141.882
 20
178.091
 11
142.149
 21
178.659
  0
LINE
  8
0
 10
142.149
 20
178.659
 11
142.343
 21
179.257
  0
LINE
  8
0
 10
142.343
 20
179.257
 11
142.461
 21
179.873
  0
LINE
  8
0
 10
142.461
 20
179.873
 11
142.5
 21
180.5
  0
LINE
  8
0
 10
142.5
 20
180.5
 11
142.5
 21
275.5
  0
LINE
  8
0
 10
142.5
 20
275.5
 11
142.461
 21
276.127
  0
LINE
  8
0
 10
142.461
 20
276.127
 11
142.343
 21
276.743
  0
LINE
  8
0
 10
142.343
 20
276.743
 11
142.149
 21
277.341
  0
LINE
  8
0
 10
142.149
 20
277.341
 11
141.882
 21
277.909
  0
LINE
  8
0
 10
141.882
 20
277.909
 11
141.545
 21
278.439
  0
LINE
  8
0
 10
141.545
 20
278.439
 11
141.145
 21
278.923
  0
LINE
  8
0
 10
141.145
 20
278.923
 11
140.687
 21
279.353
  0
LINE
  8
0
 10
140.687
 20
279.353
 11
140.179
 21
279.722
  0
LINE
  8
0
 10
140.179
 20
279.722
 11
139.629
 21
280.024
  0
LINE
  8
0
 10
139.629
 20
280.024
 11
139.045
 21
280.255
  0
LINE
  8
0
 10
139.045
 20
280.255
 11
138.437
 21
280.411
  0
LINE
  8
0
 10
138.437
 20
280.411
 11
137.814
 21
280.49
  0
LINE
  8
0
 10
137.814
 20
280.49
 11
-137.814
 21
280.49
  0
LINE
  8
0
 10
-137.814
 20
280.49
 11
-138.437
 21
280.411
  0
LINE
  8
0
 10
-138.437
 20
280.411
 11
-139.045
 21
280.255
  0
LINE
  8
0
 10
-139.045
 20
280.255
 11
-139.629
 21
280.024
  0
LINE
  8
0
 10
-139.629
 20
280.024
 11
-140.179
 21
279.722
  0
LINE
  8
0
 10
-140.179
 20
279.722
 11
-140.687
 21
279.353
  0
LINE
  8
0
 10
-140.687
 20
279.353
 11
-141.145
 21
278.923
  0
LINE
  8
0
 10
-141.145
 20
278.923
 11
-141.545
 21
278.439
  0
LINE
  8
0
 10
-141.545
 20
278.439
 11
-141.882
 21
277.909
  0
LINE
  8
0
 10
-141.882
 20
277.909
 11
-142.149
 21
277.341
  0
LINE
  8
0
 10
-142.149
 20
277.341
 11
-142.343
 21
276.743
  0
LINE
  8
0
 10
-142.343
 20
276.743
 11
-142.461
 21
276.127
  0
LINE
  8
0
 10
-142.461
 20
276.127
 11
-142.5
 21
275.5
  0
LINE
  8
0
 10
-142.5
 20
275.5
 11
-142.5
 21
180.5
  0
LINE
  8
0
 10
-142.5
 20
180.5
 11
-142.461
 21
179.873
  0
LINE
  8
0
 10
-142.461
 20
179.873
 11
-142.343
 21
179.257
  0
LINE
  8
0
 10
-142.343
 20
179.257
 11
-142.149
 21
178.659
  0
LINE
  8
0
 10
-142.149
 20
178.659
 11
-141.882
 21
178.091
  0
LINE
  8
0
 10
-141.882
 20
178.091
 11
-141.545
 21
177.561
  0
LINE
  8
0
 10
-141.545
 20
177.561
 11
-141.145
 21
177.077
  0
LINE
  8
0
 10
-141.145
 20
177.077
 11
-140.687
 21
176.647
  0
LINE
  8
0
 10
-140.687
 20
176.647
 11
-140.179
 21
176.278
  0
LINE
  8
0
 10
-140.179
 20
176.278
 11
-139.629
 21
175.976
  0
LINE
  8
0
 10
-139.629
 20
175.976
 11
-139.045
 21
175.745
  0
LINE
  8
0
 10
-139.045
 20
175.745
 11
-138.437
 21
175.589
  0
LINE
  8
0
 10
-138.437
 20
175.589
 11
-137.814
 21
175.51
  0
LINE
  8
0
 10
-137.814
 20
175.51
 11
137.814
 21
175.51
  0
LINE
  8
0
 10
137.814
 20
175.51
 11
138.437
 21
175.589
  0
LINE
  8
0
 10
-137.382
 20
178.645
 11
-137.645
 21
178.678
  0
LINE
  8
0
 10
-137.645
 20
178.678
 11
-137.902
 21
178.744
  0
LINE
  8
0
 10
-137.902
 20
178.744
 11
-138.148
 21
178.841
  0
LINE
  8
0
 10
-138.148
 20
178.841
 11
-138.38
 21
178.969
  0
LINE
  8
0
 10
-138.38
 20
178.969
 11
-138.595
 21
179.125
  0
LINE
  8
0
 10
-138.595
 20
179.125
 11
-138.788
 21
179.306
  0
LINE
  8
0
 10
-138.788
 20
179.306
 11
-138.957
 21
179.51
  0
LINE
  8
0
 10
-138.957
 20
179.51
 11
-139.099
 21
179.734
  0
LINE
  8
0
 10
-139.099
 20
179.734
 11
-139.211
 21
179.973
  0
LINE
  8
0
 10
-139.211
 20
179.973
 11
-139.293
 21
180.225
  0
LINE
  8
0
 10
-139.293
 20
180.225
 11
-139.343
 21
180.486
  0
LINE
  8
0
 10
-139.343
 20
180.486
 11
-139.36
 21
180.75
  0
LINE
  8
0
 10
-139.36
 20
180.75
 11
-139.36
 21
275.25
  0
LINE
  8
0
 10
-139.36
 20
275.25
 11
-139.343
 21
275.514
  0
LINE
  8
0
 10
-139.343
 20
275.514
 11
-139.293
 21
275.775
  0
LINE
  8
0
 10
-139.293
 20
275.775
 11
-139.211
 21
276.027
  0
LINE
  8
0
 10
-139.211
 20
276.027
 11
-139.099
 21
276.266
  0
LINE
  8
0
 10
-139.099
 20
276.266
 11
-138.957
 21
276.49
  0
LINE
  8
0
 10
-138.957
 20
276.49
 11
-138.788
 21
276.694
  0
LINE
  8
0
 10
-138.788
 20
276.694
 11
-138.595
 21
276.875
  0
LINE
  8
0
 10
-138.595
 20
276.875
 11
-138.38
 21
277.031
  0
LINE
  8
0
 10
-138.38
 20
277.031
 11
-138.148
 21
277.159
  0
LINE
  8
0
 10
-138.148
 20
277.159
 11
-137.902
 21
277.256
  0
LINE
  8
0
 10
-137.902
 20
277.256
 11
-137.645
 21
277.322
  0
LINE
  8
0
 10
-137.645
 20
277.322
 11
-137.382
 21
277.355
  0
LINE
  8
0
 10
-137.382
 20
277.355
 11
137.382
 21
277.355
  0
LINE
  8
0
 10
137.382
 20
277.355
 11
137.645
 21
277.322
  0
LINE
  8
0
 10
137.645
 20
277.322
 11
137.902
 21
277.256
  0
LINE
  8
0
 10
137.902
 20
277.256
 11
138.148
 21
277.159
  0
LINE
  8
0
 10
138.148
 20
277.159
 11
138.38
 21
277.031
  0
LINE
  8
0
 10
138.38
 20
277.031
 11
138.595
 21
276.875
  0
LINE
  8
0
 10
138.595
 20
276.875
 11
138.788
 21
276.694
  0
LINE
  8
0
 10
138.788
 20
276.694
 11
138.957
 21
276.49
  0
LINE
  8
0
 10
138.957
 20
276.49
 11
139.099
 21
276.266
  0
LINE
  8
0
 10
139.099
 20
276.266
 11
139.211
 21
276.027
  0
LINE
  8
0
 10
139.211
 20
276.027
 11
139.293
 21
275.775
  0
LINE
  8
0
 10
139.293
 20
275.775
 11
139.343
 21
275.514
  0
LINE
  8
0
 10
139.343
 20
275.514
 11
139.36
 21
275.25
  0
LINE
  8
0
 10
139.36
 20
275.25
 11
139.36
 21
180.75
  0
LINE
  8
0
 10
139.36
 20
180.75
 11
139.343
 21
180.486
  0
LINE
  8
0
 10
139.343
 20
180.486
 11
139.293
 21
180.225
  0
LINE
  8
0
 10
139.293
 20
180.225
 11
139.211
 21
179.973
  0
LINE
  8
0
 10
139.211
 20
179.973
 11
139.099
 21
179.734
  0
LINE
  8
0
 10
139.099
 20
179.734
 11
138.957
 21
179.51
  0
LINE
  8
0
 10
138.957
 20
179.51
 11
138.788
 21
179.306
  0
LINE
  8
0
 10
138.788
 20
179.306
 11
138.595
 21
179.125
  0
LINE
  8
0
 10
138.595
 20
179.125
 11
138.38
 21
178.969
  0
LINE
  8
0
 10
138.38
 20
178.969
 11
138.148
 21
178.841
  0
LINE
  8
0
 10
138.148
 20
178.841
 11
137.902
 21
178.744
  0
LINE
  8
0
 10
137.902
 20
178.744
 11
137.645
 21
178.678
  0
LINE
  8
0
 10
137.645
 20
178.678
 11
137.382
 21
178.645
  0
LINE
  8
0
 10
137.382
 20
178.645
 11
-137.382
 21
178.645
  0
ENDSEC
  0
SECTION
  2
OBJECTS
  0
DICTIONARY
  0
ENDSEC
  0
EOF
