<?xml version="1.0" standalone="no"?>
<!DOCTYPE svg PUBLIC "-//W3C//DTD SVG 1.1//EN" "http://www.w3.org/Graphics/SVG/1.1/DTD/svg11.dtd">
<svg width="272mm" height="112mm" viewBox="-137 -200 272 112" xmlns="http://www.w3.org/2000/svg" version="1.1">
<title>OpenSCAD Model</title>
<path d="
M -133.5,-185.941 L -133.187,-185.647 L -132.679,-185.278 L -132.129,-184.976 L -131.545,-184.745 L -130.937,-184.589
 L -130.314,-184.51 L 130.314,-184.51 L 130.937,-184.589 L 131.545,-184.745 L 132.129,-184.976 L 132.679,-185.278
 L 133.187,-185.647 L 133.645,-186.077 L 134.045,-186.561 L 134.382,-187.091 L 134.649,-187.659 L 134.843,-188.257
 L 134.961,-188.873 L 135,-189.5 L 135,-194.5 L 134.961,-195.127 L 134.843,-195.743 L 134.649,-196.341
 L 134.382,-196.909 L 134.045,-197.439 L 133.645,-197.923 L 133.187,-198.353 L 132.679,-198.722 L 132.129,-199.024
 L 131.545,-199.255 L 130.937,-199.411 L 130.314,-199.49 L -130.314,-199.49 L -130.937,-199.411 L -131.545,-199.255
 L -132.129,-199.024 L -132.679,-198.722 L -133.187,-198.353 L -133.5,-198.059 L -133.5,-199.49 L -136.5,-199.49
 L -136.5,-184.51 L -133.5,-184.51 z
M -129.751,-186.008 L -130.25,-186.071 L -130.736,-186.196 L -131.203,-186.381 L -131.643,-186.623 L -132.05,-186.918
 L -132.416,-187.262 L -132.736,-187.649 L -133.005,-188.073 L -133.219,-188.528 L -133.374,-189.005 L -133.468,-189.499
 L -133.5,-190 L -133.5,-194 L -133.468,-194.501 L -133.374,-194.995 L -133.219,-195.472 L -133.005,-195.927
 L -132.736,-196.351 L -132.416,-196.738 L -132.05,-197.082 L -131.643,-197.377 L -131.203,-197.619 L -130.736,-197.804
 L -130.25,-197.929 L -129.751,-197.992 L 129.751,-197.992 L 130.25,-197.929 L 130.736,-197.804 L 131.203,-197.619
 L 131.643,-197.377 L 132.05,-197.082 L 132.416,-196.738 L 132.736,-196.351 L 133.005,-195.927 L 133.219,-195.472
 L 133.374,-194.995 L 133.468,-194.501 L 133.5,-194 L 133.5,-190 L 133.468,-189.499 L 133.374,-189.005
 L 133.219,-188.528 L 133.005,-188.073 L 132.736,-187.649 L 132.416,-187.262 L 132.05,-186.918 L 131.643,-186.623
 L 131.203,-186.381 L 130.736,-186.196 L 130.25,-186.071 L 129.751,-186.008 z
M -133.5,-161.941 L -133.187,-161.647 L -132.679,-161.278 L -132.129,-160.976 L -131.545,-160.745 L -130.937,-160.589
 L -130.314,-160.51 L 130.314,-160.51 L 130.937,-160.589 L 131.545,-160.745 L 132.129,-160.976 L 132.679,-161.278
 L 133.187,-161.647 L 133.645,-162.077 L 134.045,-162.561 L 134.382,-163.091 L 134.649,-163.659 L 134.843,-164.257
 L 134.961,-164.873 L 135,-165.5 L 135,-170.5 L 134.961,-171.127 L 134.843,-171.743 L 134.649,-172.341
 L 134.382,-172.909 L 134.045,-173.439 L 133.645,-173.923 L 133.187,-174.353 L 132.679,-174.722 L 132.129,-175.024
 L 131.545,-175.255 L 130.937,-175.411 L 130.314,-175.49 L -130.314,-175.49 L -130.937,-175.411 L -131.545,-175.255
 L -132.129,-175.024 L -132.679,-174.722 L -133.187,-174.353 L -133.5,-174.059 L -133.5,-175.49 L -136.5,-175.49
 L -136.5,-160.51 L -133.5,-160.51 z
M -129.751,-162.008 L -130.25,-162.071 L -130.736,-162.196 L -131.203,-162.381 L -131.643,-162.623 L -132.05,-162.918
 L -132.416,-163.262 L -132.736,-163.649 L -133.005,-164.073 L -133.219,-164.528 L -133.374,-165.005 L -133.468,-165.499
 L -133.5,-166 L -133.5,-170 L -133.468,-170.501 L -133.374,-170.995 L -133.219,-171.472 L -133.005,-171.927
 L -132.736,-172.351 L -132.416,-172.738 L -132.05,-173.082 L -131.643,-173.377 L -131.203,-173.619 L -130.736,-173.804
 L -130.25,-173.929 L -129.751,-173.992 L 129.751,-173.992 L 130.25,-173.929 L 130.736,-173.804 L 131.203,-173.619
 L 131.643,-173.377 L 132.05,-173.082 L 132.416,-172.738 L 132.736,-172.351 L 133.005,-171.927 L 133.219,-171.472
 L 133.374,-170.995 L 133.468,-170.501 L 133.5,-170 L 133.5,-166 L 133.468,-165.499 L 133.374,-165.005
 L 133.219,-164.528 L 133.005,-164.073 L 132.736,-163.649 L 132.416,-163.262 L 132.05,-162.918 L 131.643,-162.623
 L 131.203,-162.381 L 130.736,-162.196 L 130.25,-162.071 L 129.751,-162.008 z
M -133.5,-137.941 L -133.187,-137.647 L -132.679,-137.278 L -132.129,-136.976 L -131.545,-136.745 L -130.937,-136.589
 L -130.314,-136.51 L 130.314,-136.51 L 130.937,-136.589 L 131.545,-136.745 L 132.129,-136.976 L 132.679,-137.278
 L 133.187,-137.647 L 133.645,-138.077 L 134.045,-138.561 L 134.382,-139.091 L 134.649,-139.659 L 134.843,-140.257
 L 134.961,-140.873 L 135,-141.5 L 135,-146.5 L 134.961,-147.127 L 134.843,-147.743 L 134.649,-148.341
 L 134.382,-148.909 L 134.045,-149.439 L 133.645,-149.923 L 133.187,-150.353 L 132.679,-150.722 L 132.129,-151.024
 L 131.545,-151.255 L 130.937,-151.411 L 130.314,-151.49 L -130.314,-151.49 L -130.937,-151.411 L -131.545,-151.255
 L -132.129,-151.024 L -132.679,-150.722 L -133.187,-150.353 L -133.5,-150.059 L -133.5,-151.49 L -136.5,-151.49
 L -136.5,-136.51 L -133.5,-136.51 z
M -129.743,-138.135 L -130.226,-138.196 L -130.697,-138.317 L -131.149,-138.496 L -131.575,-138.73 L -131.969,-139.016
 L -132.323,-139.349 L -132.633,-139.724 L -132.894,-140.134 L -133.101,-140.574 L -133.251,-141.037 L -133.342,-141.515
 L -133.373,-142 L -133.373,-146 L -133.342,-146.485 L -133.251,-146.963 L -133.101,-147.426 L -132.894,-147.866
 L -132.633,-148.276 L -132.323,-148.651 L -131.969,-148.984 L -131.575,-149.27 L -131.149,-149.504 L -130.697,-149.683
 L -130.226,-149.804 L -129.743,-149.865 L 129.743,-149.865 L 130.226,-149.804 L 130.697,-149.683 L 131.149,-149.504
 L 131.575,-149.27 L 131.969,-148.984 L 132.323,-148.651 L 132.633,-148.276 L 132.894,-147.866 L 133.101,-147.426
 L 133.251,-146.963 L 133.342,-146.485 L 133.373,-146 L 133.373,-142 L 133.342,-141.515 L 133.251,-141.037
 L 133.101,-140.574 L 132.894,-140.134 L 132.633,-139.724 L 132.323,-139.349 L 131.969,-139.016 L 131.575,-138.73
 L 131.149,-138.496 L 130.697,-138.317 L 130.226,-138.196 L 129.743,-138.135 z
M 130.937,-112.589 L 131.545,-112.745 L 132.129,-112.976 L 132.679,-113.278 L 133.187,-113.647 L 133.645,-114.077
 L 134.045,-114.561 L 134.382,-115.091 L 134.649,-115.659 L 134.843,-116.257 L 134.961,-116.873 L 135,-117.5
 L 135,-122.5 L 134.961,-123.127 L 134.843,-123.743 L 134.649,-124.341 L 134.382,-124.909 L 134.045,-125.439
 L 133.645,-125.923 L 133.187,-126.353 L 132.679,-126.722 L 132.129,-127.024 L 131.545,-127.255 L 130.937,-127.411
 L 130.314,-127.49 L -130.314,-127.49 L -130.937,-127.411 L -131.545,-127.255 L -132.129,-127.024 L -132.679,-126.722
 L -133.187,-126.353 L -133.5,-126.059 L -133.5,-127.115 L -136.5,-127.115 L -136.5,-112.885 L -133.5,-112.885
 L -133.5,-113.941 L -133.187,-113.647 L -132.679,-113.278 L -132.129,-112.976 L -131.545,-112.745 L -130.937,-112.589
 L -130.314,-112.51 L 130.314,-112.51 z
M -127.651,-117.605 L -127.95,-117.643 L -128.242,-117.717 L -128.522,-117.828 L -128.786,-117.974 L -129.03,-118.151
 L -129.25,-118.357 L -129.442,-118.589 L -129.603,-118.844 L -129.731,-119.117 L -129.825,-119.403 L -129.881,-119.699
 L -129.9,-120 L -129.881,-120.301 L -129.825,-120.597 L -129.731,-120.883 L -129.603,-121.156 L -129.442,-121.411
 L -129.25,-121.643 L -129.03,-121.849 L -128.786,-122.026 L -128.522,-122.172 L -128.242,-122.283 L -127.95,-122.357
 L -127.651,-122.395 L -127.349,-122.395 L -127.05,-122.357 L -126.758,-122.283 L -126.478,-122.172 L -126.214,-122.026
 L -125.97,-121.849 L -125.75,-121.643 L -125.558,-121.411 L -125.397,-121.156 L -125.269,-120.883 L -125.175,-120.597
 L -125.119,-120.301 L -125.1,-120 L -125.119,-119.699 L -125.175,-119.403 L -125.269,-119.117 L -125.397,-118.844
 L -125.558,-118.589 L -125.75,-118.357 L -125.97,-118.151 L -126.214,-117.974 L -126.478,-117.828 L -126.758,-117.717
 L -127.05,-117.643 L -127.349,-117.605 z
M 127.349,-117.605 L 127.05,-117.643 L 126.758,-117.717 L 126.478,-117.828 L 126.214,-117.974 L 125.97,-118.151
 L 125.75,-118.357 L 125.558,-118.589 L 125.397,-118.844 L 125.269,-119.117 L 125.175,-119.403 L 125.119,-119.699
 L 125.1,-120 L 125.119,-120.301 L 125.175,-120.597 L 125.269,-120.883 L 125.397,-121.156 L 125.558,-121.411
 L 125.75,-121.643 L 125.97,-121.849 L 126.214,-122.026 L 126.478,-122.172 L 126.758,-122.283 L 127.05,-122.357
 L 127.349,-122.395 L 127.651,-122.395 L 127.95,-122.357 L 128.242,-122.283 L 128.522,-122.172 L 128.786,-122.026
 L 129.03,-121.849 L 129.25,-121.643 L 129.442,-121.411 L 129.603,-121.156 L 129.731,-120.883 L 129.825,-120.597
 L 129.881,-120.301 L 129.9,-120 L 129.881,-119.699 L 129.825,-119.403 L 129.731,-119.117 L 129.603,-118.844
 L 129.442,-118.589 L 129.25,-118.357 L 129.03,-118.151 L 128.786,-117.974 L 128.522,-117.828 L 128.242,-117.717
 L 127.95,-117.643 L 127.651,-117.605 z
M 130.937,-88.5886 L 131.545,-88.7447 L 132.129,-88.9759 L 132.679,-89.2784 L 133.187,-89.6474 L 133.645,-90.0773
 L 134.045,-90.5611 L 134.382,-91.0912 L 134.649,-91.6594 L 134.843,-92.2566 L 134.961,-92.8733 L 135,-93.5
 L 135,-98.5 L 134.961,-99.1267 L 134.843,-99.7434 L 134.649,-100.341 L 134.382,-100.909 L 134.045,-101.439
 L 133.645,-101.923 L 133.187,-102.353 L 132.679,-102.722 L 132.129,-103.024 L 131.545,-103.255 L 130.937,-103.411
 L 130.314,-103.49 L -130.314,-103.49 L -130.937,-103.411 L -131.545,-103.255 L -132.129,-103.024 L -132.679,-102.722
 L -133.187,-102.353 L -133.645,-101.923 L -134.045,-101.439 L -134.382,-100.909 L -134.649,-100.341 L -134.843,-99.7434
 L -134.9,-99.4442 L -136.5,-99.4442 L -136.5,-92.5558 L -134.9,-92.5558 L -134.843,-92.2566 L -134.649,-91.6594
 L -134.382,-91.0912 L -134.045,-90.5611 L -133.645,-90.0773 L -133.187,-89.6474 L -132.679,-89.2784 L -132.129,-88.9759
 L -131.545,-88.7447 L -130.937,-88.5886 L -130.314,-88.5099 L 130.314,-88.5099 z
M 127.387,-94.2036 L 127.163,-94.2319 L 126.944,-94.2881 L 126.734,-94.3713 L 126.536,-94.4802 L 126.353,-94.6131
 L 126.188,-94.7678 L 126.044,-94.942 L 125.923,-95.1329 L 125.826,-95.3374 L 125.757,-95.5524 L 125.714,-95.7744
 L 125.7,-96 L 125.714,-96.2256 L 125.757,-96.4476 L 125.826,-96.6626 L 125.923,-96.8671 L 126.044,-97.058
 L 126.188,-97.2322 L 126.353,-97.3869 L 126.536,-97.5198 L 126.734,-97.6287 L 126.944,-97.7119 L 127.163,-97.7681
 L 127.387,-97.7964 L 127.613,-97.7964 L 127.837,-97.7681 L 128.056,-97.7119 L 128.266,-97.6287 L 128.464,-97.5198
 L 128.647,-97.3869 L 128.812,-97.2322 L 128.956,-97.058 L 129.077,-96.8671 L 129.174,-96.6626 L 129.243,-96.4476
 L 129.286,-96.2256 L 129.3,-96 L 129.286,-95.7744 L 129.243,-95.5524 L 129.174,-95.3374 L 129.077,-95.1329
 L 128.956,-94.942 L 128.812,-94.7678 L 128.647,-94.6131 L 128.464,-94.4802 L 128.266,-94.3713 L 128.056,-94.2881
 L 127.837,-94.2319 L 127.613,-94.2036 z
M -127.613,-94.2036 L -127.837,-94.2319 L -128.056,-94.2881 L -128.266,-94.3713 L -128.464,-94.4802 L -128.647,-94.6131
 L -128.812,-94.7678 L -128.956,-94.942 L -129.077,-95.1329 L -129.174,-95.3374 L -129.243,-95.5524 L -129.286,-95.7744
 L -129.3,-96 L -129.286,-96.2256 L -129.243,-96.4476 L -129.174,-96.6626 L -129.077,-96.8671 L -128.956,-97.058
 L -128.812,-97.2322 L -128.647,-97.3869 L -128.464,-97.5198 L -128.266,-97.6287 L -128.056,-97.7119 L -127.837,-97.7681
 L -127.613,-97.7964 L -127.387,-97.7964 L -127.163,-97.7681 L -126.944,-97.7119 L -126.734,-97.6287 L -126.536,-97.5198
 L -126.353,-97.3869 L -126.188,-97.2322 L -126.044,-97.058 L -125.923,-96.8671 L -125.826,-96.6626 L -125.757,-96.4476
 L -125.714,-96.2256 L -125.7,-96 L -125.714,-95.7744 L -125.757,-95.5524 L -125.826,-95.3374 L -125.923,-95.1329
 L -126.044,-94.942 L -126.188,-94.7678 L -126.353,-94.6131 L -126.536,-94.4802 L -126.734,-94.3713 L -126.944,-94.2881
 L -127.163,-94.2319 L -127.387,-94.2036 z
" stroke="black" fill="lightgray" stroke-width="0.5"/>
</svg>
