<?xml version="1.0" standalone="no"?>
<!DOCTYPE svg PUBLIC "-//W3C//DTD SVG 1.1//EN" "http://www.w3.org/Graphics/SVG/1.1/DTD/svg11.dtd">
<svg width="302mm" height="378mm" viewBox="-152 -576 302 378" xmlns="http://www.w3.org/2000/svg" version="1.1">
<title>OpenSCAD Model</title>
<path d="
M -148.5,-457.441 L -148.187,-457.147 L -147.679,-456.778 L -147.129,-456.476 L -146.545,-456.245 L -145.937,-456.089
 L -145.314,-456.01 L 145.314,-456.01 L 145.937,-456.089 L 146.545,-456.245 L 147.129,-456.476 L 147.679,-456.778
 L 148.187,-457.147 L 148.645,-457.577 L 149.045,-458.061 L 149.382,-458.591 L 149.649,-459.159 L 149.843,-459.757
 L 149.961,-460.373 L 150,-461 L 150,-571 L 149.961,-571.627 L 149.843,-572.243 L 149.649,-572.841
 L 149.382,-573.409 L 149.045,-573.939 L 148.645,-574.423 L 148.187,-574.853 L 147.679,-575.222 L 147.129,-575.524
 L 146.545,-575.755 L 145.937,-575.911 L 145.314,-575.99 L -145.314,-575.99 L -145.937,-575.911 L -146.545,-575.755
 L -147.129,-575.524 L -147.679,-575.222 L -148.187,-574.853 L -148.5,-574.559 L -148.5,-575.99 L -151.5,-575.99
 L -151.5,-456.01 L -148.5,-456.01 z
M -144.743,-457.635 L -145.226,-457.696 L -145.697,-457.817 L -146.149,-457.996 L -146.575,-458.23 L -146.969,-458.516
 L -147.323,-458.849 L -147.633,-459.224 L -147.894,-459.634 L -148.101,-460.074 L -148.251,-460.537 L -148.342,-461.015
 L -148.373,-461.5 L -148.373,-570.5 L -148.342,-570.985 L -148.251,-571.463 L -148.101,-571.926 L -147.894,-572.366
 L -147.633,-572.776 L -147.323,-573.151 L -146.969,-573.484 L -146.575,-573.77 L -146.149,-574.004 L -145.697,-574.183
 L -145.226,-574.304 L -144.743,-574.365 L 144.743,-574.365 L 145.226,-574.304 L 145.697,-574.183 L 146.149,-574.004
 L 146.575,-573.77 L 146.969,-573.484 L 147.323,-573.151 L 147.633,-572.776 L 147.894,-572.366 L 148.101,-571.926
 L 148.251,-571.463 L 148.342,-570.985 L 148.373,-570.5 L 148.373,-461.5 L 148.342,-461.015 L 148.251,-460.537
 L 148.101,-460.074 L 147.894,-459.634 L 147.633,-459.224 L 147.323,-458.849 L 146.969,-458.516 L 146.575,-458.23
 L 146.149,-457.996 L 145.697,-457.817 L 145.226,-457.696 L 144.743,-457.635 z
M 145.937,-327.089 L 146.545,-327.245 L 147.129,-327.476 L 147.679,-327.778 L 148.187,-328.147 L 148.645,-328.577
 L 149.045,-329.061 L 149.382,-329.591 L 149.649,-330.159 L 149.843,-330.757 L 149.961,-331.373 L 150,-332
 L 150,-442 L 149.961,-442.627 L 149.843,-443.243 L 149.649,-443.841 L 149.382,-444.409 L 149.045,-444.939
 L 148.645,-445.423 L 148.187,-445.853 L 147.679,-446.222 L 147.129,-446.524 L 146.545,-446.755 L 145.937,-446.911
 L 145.314,-446.99 L -145.314,-446.99 L -145.937,-446.911 L -146.545,-446.755 L -147.129,-446.524 L -147.679,-446.222
 L -148.187,-445.853 L -148.5,-445.559 L -148.5,-446.615 L -151.5,-446.615 L -151.5,-327.385 L -148.5,-327.385
 L -148.5,-328.441 L -148.187,-328.147 L -147.679,-327.778 L -147.129,-327.476 L -146.545,-327.245 L -145.937,-327.089
 L -145.314,-327.01 L 145.314,-327.01 z
M 142.349,-437.105 L 142.05,-437.143 L 141.758,-437.217 L 141.478,-437.328 L 141.214,-437.474 L 140.97,-437.651
 L 140.75,-437.857 L 140.558,-438.089 L 140.397,-438.344 L 140.269,-438.617 L 140.175,-438.903 L 140.119,-439.199
 L 140.1,-439.5 L 140.119,-439.801 L 140.175,-440.097 L 140.269,-440.383 L 140.397,-440.656 L 140.558,-440.911
 L 140.75,-441.143 L 140.97,-441.349 L 141.214,-441.526 L 141.478,-441.672 L 141.758,-441.783 L 142.05,-441.857
 L 142.349,-441.895 L 142.651,-441.895 L 142.95,-441.857 L 143.242,-441.783 L 143.522,-441.672 L 143.786,-441.526
 L 144.03,-441.349 L 144.25,-441.143 L 144.442,-440.911 L 144.603,-440.656 L 144.731,-440.383 L 144.825,-440.097
 L 144.881,-439.801 L 144.9,-439.5 L 144.881,-439.199 L 144.825,-438.903 L 144.731,-438.617 L 144.603,-438.344
 L 144.442,-438.089 L 144.25,-437.857 L 144.03,-437.651 L 143.786,-437.474 L 143.522,-437.328 L 143.242,-437.217
 L 142.95,-437.143 L 142.651,-437.105 z
M -142.651,-437.105 L -142.95,-437.143 L -143.242,-437.217 L -143.522,-437.328 L -143.786,-437.474 L -144.03,-437.651
 L -144.25,-437.857 L -144.442,-438.089 L -144.603,-438.344 L -144.731,-438.617 L -144.825,-438.903 L -144.881,-439.199
 L -144.9,-439.5 L -144.881,-439.801 L -144.825,-440.097 L -144.731,-440.383 L -144.603,-440.656 L -144.442,-440.911
 L -144.25,-441.143 L -144.03,-441.349 L -143.786,-441.526 L -143.522,-441.672 L -143.242,-441.783 L -142.95,-441.857
 L -142.651,-441.895 L -142.349,-441.895 L -142.05,-441.857 L -141.758,-441.783 L -141.478,-441.672 L -141.214,-441.526
 L -140.97,-441.349 L -140.75,-441.143 L -140.558,-440.911 L -140.397,-440.656 L -140.269,-440.383 L -140.175,-440.097
 L -140.119,-439.801 L -140.1,-439.5 L -140.119,-439.199 L -140.175,-438.903 L -140.269,-438.617 L -140.397,-438.344
 L -140.558,-438.089 L -140.75,-437.857 L -140.97,-437.651 L -141.214,-437.474 L -141.478,-437.328 L -141.758,-437.217
 L -142.05,-437.143 L -142.349,-437.105 z
M 142.349,-332.105 L 142.05,-332.143 L 141.758,-332.217 L 141.478,-332.328 L 141.214,-332.474 L 140.97,-332.651
 L 140.75,-332.857 L 140.558,-333.089 L 140.397,-333.344 L 140.269,-333.617 L 140.175,-333.903 L 140.119,-334.199
 L 140.1,-334.5 L 140.119,-334.801 L 140.175,-335.097 L 140.269,-335.383 L 140.397,-335.656 L 140.558,-335.911
 L 140.75,-336.143 L 140.97,-336.349 L 141.214,-336.526 L 141.478,-336.672 L 141.758,-336.783 L 142.05,-336.857
 L 142.349,-336.895 L 142.651,-336.895 L 142.95,-336.857 L 143.242,-336.783 L 143.522,-336.672 L 143.786,-336.526
 L 144.03,-336.349 L 144.25,-336.143 L 144.442,-335.911 L 144.603,-335.656 L 144.731,-335.383 L 144.825,-335.097
 L 144.881,-334.801 L 144.9,-334.5 L 144.881,-334.199 L 144.825,-333.903 L 144.731,-333.617 L 144.603,-333.344
 L 144.442,-333.089 L 144.25,-332.857 L 144.03,-332.651 L 143.786,-332.474 L 143.522,-332.328 L 143.242,-332.217
 L 142.95,-332.143 L 142.651,-332.105 z
M -142.651,-332.105 L -142.95,-332.143 L -143.242,-332.217 L -143.522,-332.328 L -143.786,-332.474 L -144.03,-332.651
 L -144.25,-332.857 L -144.442,-333.089 L -144.603,-333.344 L -144.731,-333.617 L -144.825,-333.903 L -144.881,-334.199
 L -144.9,-334.5 L -144.881,-334.801 L -144.825,-335.097 L -144.731,-335.383 L -144.603,-335.656 L -144.442,-335.911
 L -144.25,-336.143 L -144.03,-336.349 L -143.786,-336.526 L -143.522,-336.672 L -143.242,-336.783 L -142.95,-336.857
 L -142.651,-336.895 L -142.349,-336.895 L -142.05,-336.857 L -141.758,-336.783 L -141.478,-336.672 L -141.214,-336.526
 L -140.97,-336.349 L -140.75,-336.143 L -140.558,-335.911 L -140.397,-335.656 L -140.269,-335.383 L -140.175,-335.097
 L -140.119,-334.801 L -140.1,-334.5 L -140.119,-334.199 L -140.175,-333.903 L -140.269,-333.617 L -140.397,-333.344
 L -140.558,-333.089 L -140.75,-332.857 L -140.97,-332.651 L -141.214,-332.474 L -141.478,-332.328 L -141.758,-332.217
 L -142.05,-332.143 L -142.349,-332.105 z
M 145.937,-198.089 L 146.545,-198.245 L 147.129,-198.476 L 147.679,-198.778 L 148.187,-199.147 L 148.645,-199.577
 L 149.045,-200.061 L 149.382,-200.591 L 149.649,-201.159 L 149.843,-201.757 L 149.961,-202.373 L 150,-203
 L 150,-313 L 149.961,-313.627 L 149.843,-314.243 L 149.649,-314.841 L 149.382,-315.409 L 149.045,-315.939
 L 148.645,-316.423 L 148.187,-316.853 L 147.679,-317.222 L 147.129,-317.524 L 146.545,-317.755 L 145.937,-317.911
 L 145.314,-317.99 L -145.314,-317.99 L -145.937,-317.911 L -146.545,-317.755 L -147.129,-317.524 L -147.679,-317.222
 L -148.187,-316.853 L -148.645,-316.423 L -149.045,-315.939 L -149.382,-315.409 L -149.649,-314.841 L -149.843,-314.243
 L -149.9,-313.944 L -151.5,-313.944 L -151.5,-202.056 L -149.9,-202.056 L -149.843,-201.757 L -149.649,-201.159
 L -149.382,-200.591 L -149.045,-200.061 L -148.645,-199.577 L -148.187,-199.147 L -147.679,-198.778 L -147.129,-198.476
 L -146.545,-198.245 L -145.937,-198.089 L -145.314,-198.01 L 145.314,-198.01 z
M -142.613,-308.704 L -142.837,-308.732 L -143.056,-308.788 L -143.266,-308.871 L -143.464,-308.98 L -143.647,-309.113
 L -143.812,-309.268 L -143.956,-309.442 L -144.077,-309.633 L -144.174,-309.837 L -144.243,-310.052 L -144.286,-310.274
 L -144.3,-310.5 L -144.286,-310.726 L -144.243,-310.948 L -144.174,-311.163 L -144.077,-311.367 L -143.956,-311.558
 L -143.812,-311.732 L -143.647,-311.887 L -143.464,-312.02 L -143.266,-312.129 L -143.056,-312.212 L -142.837,-312.268
 L -142.613,-312.296 L -142.387,-312.296 L -142.163,-312.268 L -141.944,-312.212 L -141.734,-312.129 L -141.536,-312.02
 L -141.353,-311.887 L -141.188,-311.732 L -141.044,-311.558 L -140.923,-311.367 L -140.826,-311.163 L -140.757,-310.948
 L -140.714,-310.726 L -140.7,-310.5 L -140.714,-310.274 L -140.757,-310.052 L -140.826,-309.837 L -140.923,-309.633
 L -141.044,-309.442 L -141.188,-309.268 L -141.353,-309.113 L -141.536,-308.98 L -141.734,-308.871 L -141.944,-308.788
 L -142.163,-308.732 L -142.387,-308.704 z
M 142.387,-308.704 L 142.163,-308.732 L 141.944,-308.788 L 141.734,-308.871 L 141.536,-308.98 L 141.353,-309.113
 L 141.188,-309.268 L 141.044,-309.442 L 140.923,-309.633 L 140.826,-309.837 L 140.757,-310.052 L 140.714,-310.274
 L 140.7,-310.5 L 140.714,-310.726 L 140.757,-310.948 L 140.826,-311.163 L 140.923,-311.367 L 141.044,-311.558
 L 141.188,-311.732 L 141.353,-311.887 L 141.536,-312.02 L 141.734,-312.129 L 141.944,-312.212 L 142.163,-312.268
 L 142.387,-312.296 L 142.613,-312.296 L 142.837,-312.268 L 143.056,-312.212 L 143.266,-312.129 L 143.464,-312.02
 L 143.647,-311.887 L 143.812,-311.732 L 143.956,-311.558 L 144.077,-311.367 L 144.174,-311.163 L 144.243,-310.948
 L 144.286,-310.726 L 144.3,-310.5 L 144.286,-310.274 L 144.243,-310.052 L 144.174,-309.837 L 144.077,-309.633
 L 143.956,-309.442 L 143.812,-309.268 L 143.647,-309.113 L 143.464,-308.98 L 143.266,-308.871 L 143.056,-308.788
 L 142.837,-308.732 L 142.613,-308.704 z
M 142.387,-203.704 L 142.163,-203.732 L 141.944,-203.788 L 141.734,-203.871 L 141.536,-203.98 L 141.353,-204.113
 L 141.188,-204.268 L 141.044,-204.442 L 140.923,-204.633 L 140.826,-204.837 L 140.757,-205.052 L 140.714,-205.274
 L 140.7,-205.5 L 140.714,-205.726 L 140.757,-205.948 L 140.826,-206.163 L 140.923,-206.367 L 141.044,-206.558
 L 141.188,-206.732 L 141.353,-206.887 L 141.536,-207.02 L 141.734,-207.129 L 141.944,-207.212 L 142.163,-207.268
 L 142.387,-207.296 L 142.613,-207.296 L 142.837,-207.268 L 143.056,-207.212 L 143.266,-207.129 L 143.464,-207.02
 L 143.647,-206.887 L 143.812,-206.732 L 143.956,-206.558 L 144.077,-206.367 L 144.174,-206.163 L 144.243,-205.948
 L 144.286,-205.726 L 144.3,-205.5 L 144.286,-205.274 L 144.243,-205.052 L 144.174,-204.837 L 144.077,-204.633
 L 143.956,-204.442 L 143.812,-204.268 L 143.647,-204.113 L 143.464,-203.98 L 143.266,-203.871 L 143.056,-203.788
 L 142.837,-203.732 L 142.613,-203.704 z
M -142.613,-203.704 L -142.837,-203.732 L -143.056,-203.788 L -143.266,-203.871 L -143.464,-203.98 L -143.647,-204.113
 L -143.812,-204.268 L -143.956,-204.442 L -144.077,-204.633 L -144.174,-204.837 L -144.243,-205.052 L -144.286,-205.274
 L -144.3,-205.5 L -144.286,-205.726 L -144.243,-205.948 L -144.174,-206.163 L -144.077,-206.367 L -143.956,-206.558
 L -143.812,-206.732 L -143.647,-206.887 L -143.464,-207.02 L -143.266,-207.129 L -143.056,-207.212 L -142.837,-207.268
 L -142.613,-207.296 L -142.387,-207.296 L -142.163,-207.268 L -141.944,-207.212 L -141.734,-207.129 L -141.536,-207.02
 L -141.353,-206.887 L -141.188,-206.732 L -141.044,-206.558 L -140.923,-206.367 L -140.826,-206.163 L -140.757,-205.948
 L -140.714,-205.726 L -140.7,-205.5 L -140.714,-205.274 L -140.757,-205.052 L -140.826,-204.837 L -140.923,-204.633
 L -141.044,-204.442 L -141.188,-204.268 L -141.353,-204.113 L -141.536,-203.98 L -141.734,-203.871 L -141.944,-203.788
 L -142.163,-203.732 L -142.387,-203.704 z
" stroke="black" fill="lightgray" stroke-width="0.5"/>
</svg>
