<?xml version="1.0" standalone="no"?>
<!DOCTYPE svg PUBLIC "-//W3C//DTD SVG 1.1//EN" "http://www.w3.org/Graphics/SVG/1.1/DTD/svg11.dtd">
<svg width="300mm" height="576mm" viewBox="-150 -1146 300 576" xmlns="http://www.w3.org/2000/svg" version="1.1">
<title>OpenSCAD Model</title>
<path d="
M 145.937,-1116.09 L 146.545,-1116.24 L 147.129,-1116.48 L 147.679,-1116.78 L 148.187,-1117.15 L 148.645,-1117.58
 L 149.045,-1118.06 L 149.382,-1118.59 L 149.649,-1119.16 L 149.843,-1119.76 L 149.961,-1120.37 L 150,-1121
 L 150,-1141 L 149.961,-1141.63 L 149.843,-1142.24 L 149.649,-1142.84 L 149.382,-1143.41 L 149.045,-1143.94
 L 148.645,-1144.42 L 148.187,-1144.85 L 147.679,-1145.22 L 147.129,-1145.52 L 146.545,-1145.76 L 145.937,-1145.91
 L 145.314,-1145.99 L -145.314,-1145.99 L -145.937,-1145.91 L -146.545,-1145.76 L -147.129,-1145.52 L -147.679,-1145.22
 L -148.187,-1144.85 L -148.645,-1144.42 L -149.045,-1143.94 L -149.382,-1143.41 L -149.649,-1142.84 L -149.843,-1142.24
 L -149.961,-1141.63 L -150,-1141 L -150,-1121 L -149.961,-1120.37 L -149.843,-1119.76 L -149.649,-1119.16
 L -149.382,-1118.59 L -149.045,-1118.06 L -148.645,-1117.58 L -148.187,-1117.15 L -147.679,-1116.78 L -147.129,-1116.48
 L -146.545,-1116.24 L -145.937,-1116.09 L -145.314,-1116.01 L 145.314,-1116.01 z
M -145.048,-1116.51 L -145.64,-1116.58 L -146.218,-1116.73 L -146.772,-1116.95 L -147.295,-1117.24 L -147.778,-1117.59
 L -148.213,-1118 L -148.593,-1118.46 L -148.912,-1118.96 L -149.166,-1119.5 L -149.351,-1120.07 L -149.463,-1120.65
 L -149.5,-1121.25 L -149.5,-1140.75 L -149.463,-1141.35 L -149.351,-1141.93 L -149.166,-1142.5 L -148.912,-1143.04
 L -148.593,-1143.54 L -148.213,-1144 L -147.778,-1144.41 L -147.295,-1144.76 L -146.772,-1145.05 L -146.218,-1145.27
 L -145.64,-1145.42 L -145.048,-1145.49 L 145.048,-1145.49 L 145.64,-1145.42 L 146.218,-1145.27 L 146.772,-1145.05
 L 147.295,-1144.76 L 147.778,-1144.41 L 148.213,-1144 L 148.593,-1143.54 L 148.912,-1143.04 L 149.166,-1142.5
 L 149.351,-1141.93 L 149.463,-1141.35 L 149.5,-1140.75 L 149.5,-1121.25 L 149.463,-1120.65 L 149.351,-1120.07
 L 149.166,-1119.5 L 148.912,-1118.96 L 148.593,-1118.46 L 148.213,-1118 L 147.778,-1117.59 L 147.295,-1117.24
 L 146.772,-1116.95 L 146.218,-1116.73 L 145.64,-1116.58 L 145.048,-1116.51 z
M 145.937,-1077.09 L 146.545,-1077.24 L 147.129,-1077.48 L 147.679,-1077.78 L 148.187,-1078.15 L 148.645,-1078.58
 L 149.045,-1079.06 L 149.382,-1079.59 L 149.649,-1080.16 L 149.843,-1080.76 L 149.961,-1081.37 L 150,-1082
 L 150,-1102 L 149.961,-1102.63 L 149.843,-1103.24 L 149.649,-1103.84 L 149.382,-1104.41 L 149.045,-1104.94
 L 148.645,-1105.42 L 148.187,-1105.85 L 147.679,-1106.22 L 147.129,-1106.52 L 146.545,-1106.76 L 145.937,-1106.91
 L 145.314,-1106.99 L -145.314,-1106.99 L -145.937,-1106.91 L -146.545,-1106.76 L -147.129,-1106.52 L -147.679,-1106.22
 L -148.187,-1105.85 L -148.645,-1105.42 L -149.045,-1104.94 L -149.382,-1104.41 L -149.649,-1103.84 L -149.843,-1103.24
 L -149.961,-1102.63 L -150,-1102 L -150,-1082 L -149.961,-1081.37 L -149.843,-1080.76 L -149.649,-1080.16
 L -149.382,-1079.59 L -149.045,-1079.06 L -148.645,-1078.58 L -148.187,-1078.15 L -147.679,-1077.78 L -147.129,-1077.48
 L -146.545,-1077.24 L -145.937,-1077.09 L -145.314,-1077.01 L 145.314,-1077.01 z
M -145.048,-1077.51 L -145.64,-1077.58 L -146.218,-1077.73 L -146.772,-1077.95 L -147.295,-1078.24 L -147.778,-1078.59
 L -148.213,-1079 L -148.593,-1079.46 L -148.912,-1079.96 L -149.166,-1080.5 L -149.351,-1081.07 L -149.463,-1081.65
 L -149.5,-1082.25 L -149.5,-1101.75 L -149.463,-1102.35 L -149.351,-1102.93 L -149.166,-1103.5 L -148.912,-1104.04
 L -148.593,-1104.54 L -148.213,-1105 L -147.778,-1105.41 L -147.295,-1105.76 L -146.772,-1106.05 L -146.218,-1106.27
 L -145.64,-1106.42 L -145.048,-1106.49 L 145.048,-1106.49 L 145.64,-1106.42 L 146.218,-1106.27 L 146.772,-1106.05
 L 147.295,-1105.76 L 147.778,-1105.41 L 148.213,-1105 L 148.593,-1104.54 L 148.912,-1104.04 L 149.166,-1103.5
 L 149.351,-1102.93 L 149.463,-1102.35 L 149.5,-1101.75 L 149.5,-1082.25 L 149.463,-1081.65 L 149.351,-1081.07
 L 149.166,-1080.5 L 148.912,-1079.96 L 148.593,-1079.46 L 148.213,-1079 L 147.778,-1078.59 L 147.295,-1078.24
 L 146.772,-1077.95 L 146.218,-1077.73 L 145.64,-1077.58 L 145.048,-1077.51 z
M 145.937,-1038.09 L 146.545,-1038.24 L 147.129,-1038.48 L 147.679,-1038.78 L 148.187,-1039.15 L 148.645,-1039.58
 L 149.045,-1040.06 L 149.382,-1040.59 L 149.649,-1041.16 L 149.843,-1041.76 L 149.961,-1042.37 L 150,-1043
 L 150,-1063 L 149.961,-1063.63 L 149.843,-1064.24 L 149.649,-1064.84 L 149.382,-1065.41 L 149.045,-1065.94
 L 148.645,-1066.42 L 148.187,-1066.85 L 147.679,-1067.22 L 147.129,-1067.52 L 146.545,-1067.76 L 145.937,-1067.91
 L 145.314,-1067.99 L -145.314,-1067.99 L -145.937,-1067.91 L -146.545,-1067.76 L -147.129,-1067.52 L -147.679,-1067.22
 L -148.187,-1066.85 L -148.645,-1066.42 L -149.045,-1065.94 L -149.382,-1065.41 L -149.649,-1064.84 L -149.843,-1064.24
 L -149.961,-1063.63 L -150,-1063 L -150,-1043 L -149.961,-1042.37 L -149.843,-1041.76 L -149.649,-1041.16
 L -149.382,-1040.59 L -149.045,-1040.06 L -148.645,-1039.58 L -148.187,-1039.15 L -147.679,-1038.78 L -147.129,-1038.48
 L -146.545,-1038.24 L -145.937,-1038.09 L -145.314,-1038.01 L 145.314,-1038.01 z
M -145.048,-1038.51 L -145.64,-1038.58 L -146.218,-1038.73 L -146.772,-1038.95 L -147.295,-1039.24 L -147.778,-1039.59
 L -148.213,-1040 L -148.593,-1040.46 L -148.912,-1040.96 L -149.166,-1041.5 L -149.351,-1042.07 L -149.463,-1042.65
 L -149.5,-1043.25 L -149.5,-1062.75 L -149.463,-1063.35 L -149.351,-1063.93 L -149.166,-1064.5 L -148.912,-1065.04
 L -148.593,-1065.54 L -148.213,-1066 L -147.778,-1066.41 L -147.295,-1066.76 L -146.772,-1067.05 L -146.218,-1067.27
 L -145.64,-1067.42 L -145.048,-1067.49 L 145.048,-1067.49 L 145.64,-1067.42 L 146.218,-1067.27 L 146.772,-1067.05
 L 147.295,-1066.76 L 147.778,-1066.41 L 148.213,-1066 L 148.593,-1065.54 L 148.912,-1065.04 L 149.166,-1064.5
 L 149.351,-1063.93 L 149.463,-1063.35 L 149.5,-1062.75 L 149.5,-1043.25 L 149.463,-1042.65 L 149.351,-1042.07
 L 149.166,-1041.5 L 148.912,-1040.96 L 148.593,-1040.46 L 148.213,-1040 L 147.778,-1039.59 L 147.295,-1039.24
 L 146.772,-1038.95 L 146.218,-1038.73 L 145.64,-1038.58 L 145.048,-1038.51 z
M 145.937,-999.089 L 146.545,-999.245 L 147.129,-999.476 L 147.679,-999.778 L 148.187,-1000.15 L 148.645,-1000.58
 L 149.045,-1001.06 L 149.382,-1001.59 L 149.649,-1002.16 L 149.843,-1002.76 L 149.961,-1003.37 L 150,-1004
 L 150,-1024 L 149.961,-1024.63 L 149.843,-1025.24 L 149.649,-1025.84 L 149.382,-1026.41 L 149.045,-1026.94
 L 148.645,-1027.42 L 148.187,-1027.85 L 147.679,-1028.22 L 147.129,-1028.52 L 146.545,-1028.76 L 145.937,-1028.91
 L 145.314,-1028.99 L -145.314,-1028.99 L -145.937,-1028.91 L -146.545,-1028.76 L -147.129,-1028.52 L -147.679,-1028.22
 L -148.187,-1027.85 L -148.645,-1027.42 L -149.045,-1026.94 L -149.382,-1026.41 L -149.649,-1025.84 L -149.843,-1025.24
 L -149.961,-1024.63 L -150,-1024 L -150,-1004 L -149.961,-1003.37 L -149.843,-1002.76 L -149.649,-1002.16
 L -149.382,-1001.59 L -149.045,-1001.06 L -148.645,-1000.58 L -148.187,-1000.15 L -147.679,-999.778 L -147.129,-999.476
 L -146.545,-999.245 L -145.937,-999.089 L -145.314,-999.01 L 145.314,-999.01 z
M -145.048,-999.509 L -145.64,-999.584 L -146.218,-999.732 L -146.772,-999.952 L -147.295,-1000.24 L -147.778,-1000.59
 L -148.213,-1001 L -148.593,-1001.46 L -148.912,-1001.96 L -149.166,-1002.5 L -149.351,-1003.07 L -149.463,-1003.65
 L -149.5,-1004.25 L -149.5,-1023.75 L -149.463,-1024.35 L -149.351,-1024.93 L -149.166,-1025.5 L -148.912,-1026.04
 L -148.593,-1026.54 L -148.213,-1027 L -147.778,-1027.41 L -147.295,-1027.76 L -146.772,-1028.05 L -146.218,-1028.27
 L -145.64,-1028.42 L -145.048,-1028.49 L 145.048,-1028.49 L 145.64,-1028.42 L 146.218,-1028.27 L 146.772,-1028.05
 L 147.295,-1027.76 L 147.778,-1027.41 L 148.213,-1027 L 148.593,-1026.54 L 148.912,-1026.04 L 149.166,-1025.5
 L 149.351,-1024.93 L 149.463,-1024.35 L 149.5,-1023.75 L 149.5,-1004.25 L 149.463,-1003.65 L 149.351,-1003.07
 L 149.166,-1002.5 L 148.912,-1001.96 L 148.593,-1001.46 L 148.213,-1001 L 147.778,-1000.59 L 147.295,-1000.24
 L 146.772,-999.952 L 146.218,-999.732 L 145.64,-999.584 L 145.048,-999.509 z
M 145.937,-960.089 L 146.545,-960.245 L 147.129,-960.476 L 147.679,-960.778 L 148.187,-961.147 L 148.645,-961.577
 L 149.045,-962.061 L 149.382,-962.591 L 149.649,-963.159 L 149.843,-963.757 L 149.961,-964.373 L 150,-965
 L 150,-985 L 149.961,-985.627 L 149.843,-986.243 L 149.649,-986.841 L 149.382,-987.409 L 149.045,-987.939
 L 148.645,-988.423 L 148.187,-988.853 L 147.679,-989.222 L 147.129,-989.524 L 146.545,-989.755 L 145.937,-989.911
 L 145.314,-989.99 L -145.314,-989.99 L -145.937,-989.911 L -146.545,-989.755 L -147.129,-989.524 L -147.679,-989.222
 L -148.187,-988.853 L -148.645,-988.423 L -149.045,-987.939 L -149.382,-987.409 L -149.649,-986.841 L -149.843,-986.243
 L -149.961,-985.627 L -150,-985 L -150,-965 L -149.961,-964.373 L -149.843,-963.757 L -149.649,-963.159
 L -149.382,-962.591 L -149.045,-962.061 L -148.645,-961.577 L -148.187,-961.147 L -147.679,-960.778 L -147.129,-960.476
 L -146.545,-960.245 L -145.937,-960.089 L -145.314,-960.01 L 145.314,-960.01 z
M -145.048,-960.509 L -145.64,-960.584 L -146.218,-960.732 L -146.772,-960.952 L -147.295,-961.239 L -147.778,-961.59
 L -148.213,-961.998 L -148.593,-962.458 L -148.912,-962.962 L -149.166,-963.501 L -149.351,-964.069 L -149.463,-964.655
 L -149.5,-965.25 L -149.5,-984.75 L -149.463,-985.345 L -149.351,-985.931 L -149.166,-986.499 L -148.912,-987.038
 L -148.593,-987.542 L -148.213,-988.002 L -147.778,-988.41 L -147.295,-988.761 L -146.772,-989.048 L -146.218,-989.268
 L -145.64,-989.416 L -145.048,-989.491 L 145.048,-989.491 L 145.64,-989.416 L 146.218,-989.268 L 146.772,-989.048
 L 147.295,-988.761 L 147.778,-988.41 L 148.213,-988.002 L 148.593,-987.542 L 148.912,-987.038 L 149.166,-986.499
 L 149.351,-985.931 L 149.463,-985.345 L 149.5,-984.75 L 149.5,-965.25 L 149.463,-964.655 L 149.351,-964.069
 L 149.166,-963.501 L 148.912,-962.962 L 148.593,-962.458 L 148.213,-961.998 L 147.778,-961.59 L 147.295,-961.239
 L 146.772,-960.952 L 146.218,-960.732 L 145.64,-960.584 L 145.048,-960.509 z
M 145.937,-921.089 L 146.545,-921.245 L 147.129,-921.476 L 147.679,-921.778 L 148.187,-922.147 L 148.645,-922.577
 L 149.045,-923.061 L 149.382,-923.591 L 149.649,-924.159 L 149.843,-924.757 L 149.961,-925.373 L 150,-926
 L 150,-946 L 149.961,-946.627 L 149.843,-947.243 L 149.649,-947.841 L 149.382,-948.409 L 149.045,-948.939
 L 148.645,-949.423 L 148.187,-949.853 L 147.679,-950.222 L 147.129,-950.524 L 146.545,-950.755 L 145.937,-950.911
 L 145.314,-950.99 L -145.314,-950.99 L -145.937,-950.911 L -146.545,-950.755 L -147.129,-950.524 L -147.679,-950.222
 L -148.187,-949.853 L -148.645,-949.423 L -149.045,-948.939 L -149.382,-948.409 L -149.649,-947.841 L -149.843,-947.243
 L -149.961,-946.627 L -150,-946 L -150,-926 L -149.961,-925.373 L -149.843,-924.757 L -149.649,-924.159
 L -149.382,-923.591 L -149.045,-923.061 L -148.645,-922.577 L -148.187,-922.147 L -147.679,-921.778 L -147.129,-921.476
 L -146.545,-921.245 L -145.937,-921.089 L -145.314,-921.01 L 145.314,-921.01 z
M -145.048,-921.509 L -145.64,-921.584 L -146.218,-921.732 L -146.772,-921.952 L -147.295,-922.239 L -147.778,-922.59
 L -148.213,-922.998 L -148.593,-923.458 L -148.912,-923.962 L -149.166,-924.501 L -149.351,-925.069 L -149.463,-925.655
 L -149.5,-926.25 L -149.5,-945.75 L -149.463,-946.345 L -149.351,-946.931 L -149.166,-947.499 L -148.912,-948.038
 L -148.593,-948.542 L -148.213,-949.002 L -147.778,-949.41 L -147.295,-949.761 L -146.772,-950.048 L -146.218,-950.268
 L -145.64,-950.416 L -145.048,-950.491 L 145.048,-950.491 L 145.64,-950.416 L 146.218,-950.268 L 146.772,-950.048
 L 147.295,-949.761 L 147.778,-949.41 L 148.213,-949.002 L 148.593,-948.542 L 148.912,-948.038 L 149.166,-947.499
 L 149.351,-946.931 L 149.463,-946.345 L 149.5,-945.75 L 149.5,-926.25 L 149.463,-925.655 L 149.351,-925.069
 L 149.166,-924.501 L 148.912,-923.962 L 148.593,-923.458 L 148.213,-922.998 L 147.778,-922.59 L 147.295,-922.239
 L 146.772,-921.952 L 146.218,-921.732 L 145.64,-921.584 L 145.048,-921.509 z
M 145.937,-882.089 L 146.545,-882.245 L 147.129,-882.476 L 147.679,-882.778 L 148.187,-883.147 L 148.645,-883.577
 L 149.045,-884.061 L 149.382,-884.591 L 149.649,-885.159 L 149.843,-885.757 L 149.961,-886.373 L 150,-887
 L 150,-907 L 149.961,-907.627 L 149.843,-908.243 L 149.649,-908.841 L 149.382,-909.409 L 149.045,-909.939
 L 148.645,-910.423 L 148.187,-910.853 L 147.679,-911.222 L 147.129,-911.524 L 146.545,-911.755 L 145.937,-911.911
 L 145.314,-911.99 L -145.314,-911.99 L -145.937,-911.911 L -146.545,-911.755 L -147.129,-911.524 L -147.679,-911.222
 L -148.187,-910.853 L -148.645,-910.423 L -149.045,-909.939 L -149.382,-909.409 L -149.649,-908.841 L -149.843,-908.243
 L -149.961,-907.627 L -150,-907 L -150,-887 L -149.961,-886.373 L -149.843,-885.757 L -149.649,-885.159
 L -149.382,-884.591 L -149.045,-884.061 L -148.645,-883.577 L -148.187,-883.147 L -147.679,-882.778 L -147.129,-882.476
 L -146.545,-882.245 L -145.937,-882.089 L -145.314,-882.01 L 145.314,-882.01 z
M -145.048,-882.509 L -145.64,-882.584 L -146.218,-882.732 L -146.772,-882.952 L -147.295,-883.239 L -147.778,-883.59
 L -148.213,-883.998 L -148.593,-884.458 L -148.912,-884.962 L -149.166,-885.501 L -149.351,-886.069 L -149.463,-886.655
 L -149.5,-887.25 L -149.5,-906.75 L -149.463,-907.345 L -149.351,-907.931 L -149.166,-908.499 L -148.912,-909.038
 L -148.593,-909.542 L -148.213,-910.002 L -147.778,-910.41 L -147.295,-910.761 L -146.772,-911.048 L -146.218,-911.268
 L -145.64,-911.416 L -145.048,-911.491 L 145.048,-911.491 L 145.64,-911.416 L 146.218,-911.268 L 146.772,-911.048
 L 147.295,-910.761 L 147.778,-910.41 L 148.213,-910.002 L 148.593,-909.542 L 148.912,-909.038 L 149.166,-908.499
 L 149.351,-907.931 L 149.463,-907.345 L 149.5,-906.75 L 149.5,-887.25 L 149.463,-886.655 L 149.351,-886.069
 L 149.166,-885.501 L 148.912,-884.962 L 148.593,-884.458 L 148.213,-883.998 L 147.778,-883.59 L 147.295,-883.239
 L 146.772,-882.952 L 146.218,-882.732 L 145.64,-882.584 L 145.048,-882.509 z
M 145.937,-843.089 L 146.545,-843.245 L 147.129,-843.476 L 147.679,-843.778 L 148.187,-844.147 L 148.645,-844.577
 L 149.045,-845.061 L 149.382,-845.591 L 149.649,-846.159 L 149.843,-846.757 L 149.961,-847.373 L 150,-848
 L 150,-868 L 149.961,-868.627 L 149.843,-869.243 L 149.649,-869.841 L 149.382,-870.409 L 149.045,-870.939
 L 148.645,-871.423 L 148.187,-871.853 L 147.679,-872.222 L 147.129,-872.524 L 146.545,-872.755 L 145.937,-872.911
 L 145.314,-872.99 L -145.314,-872.99 L -145.937,-872.911 L -146.545,-872.755 L -147.129,-872.524 L -147.679,-872.222
 L -148.187,-871.853 L -148.645,-871.423 L -149.045,-870.939 L -149.382,-870.409 L -149.649,-869.841 L -149.843,-869.243
 L -149.961,-868.627 L -150,-868 L -150,-848 L -149.961,-847.373 L -149.843,-846.757 L -149.649,-846.159
 L -149.382,-845.591 L -149.045,-845.061 L -148.645,-844.577 L -148.187,-844.147 L -147.679,-843.778 L -147.129,-843.476
 L -146.545,-843.245 L -145.937,-843.089 L -145.314,-843.01 L 145.314,-843.01 z
M -145.048,-843.509 L -145.64,-843.584 L -146.218,-843.732 L -146.772,-843.952 L -147.295,-844.239 L -147.778,-844.59
 L -148.213,-844.998 L -148.593,-845.458 L -148.912,-845.962 L -149.166,-846.501 L -149.351,-847.069 L -149.463,-847.655
 L -149.5,-848.25 L -149.5,-867.75 L -149.463,-868.345 L -149.351,-868.931 L -149.166,-869.499 L -148.912,-870.038
 L -148.593,-870.542 L -148.213,-871.002 L -147.778,-871.41 L -147.295,-871.761 L -146.772,-872.048 L -146.218,-872.268
 L -145.64,-872.416 L -145.048,-872.491 L 145.048,-872.491 L 145.64,-872.416 L 146.218,-872.268 L 146.772,-872.048
 L 147.295,-871.761 L 147.778,-871.41 L 148.213,-871.002 L 148.593,-870.542 L 148.912,-870.038 L 149.166,-869.499
 L 149.351,-868.931 L 149.463,-868.345 L 149.5,-867.75 L 149.5,-848.25 L 149.463,-847.655 L 149.351,-847.069
 L 149.166,-846.501 L 148.912,-845.962 L 148.593,-845.458 L 148.213,-844.998 L 147.778,-844.59 L 147.295,-844.239
 L 146.772,-843.952 L 146.218,-843.732 L 145.64,-843.584 L 145.048,-843.509 z
M 145.937,-804.089 L 146.545,-804.245 L 147.129,-804.476 L 147.679,-804.778 L 148.187,-805.147 L 148.645,-805.577
 L 149.045,-806.061 L 149.382,-806.591 L 149.649,-807.159 L 149.843,-807.757 L 149.961,-808.373 L 150,-809
 L 150,-829 L 149.961,-829.627 L 149.843,-830.243 L 149.649,-830.841 L 149.382,-831.409 L 149.045,-831.939
 L 148.645,-832.423 L 148.187,-832.853 L 147.679,-833.222 L 147.129,-833.524 L 146.545,-833.755 L 145.937,-833.911
 L 145.314,-833.99 L -145.314,-833.99 L -145.937,-833.911 L -146.545,-833.755 L -147.129,-833.524 L -147.679,-833.222
 L -148.187,-832.853 L -148.645,-832.423 L -149.045,-831.939 L -149.382,-831.409 L -149.649,-830.841 L -149.843,-830.243
 L -149.961,-829.627 L -150,-829 L -150,-809 L -149.961,-808.373 L -149.843,-807.757 L -149.649,-807.159
 L -149.382,-806.591 L -149.045,-806.061 L -148.645,-805.577 L -148.187,-805.147 L -147.679,-804.778 L -147.129,-804.476
 L -146.545,-804.245 L -145.937,-804.089 L -145.314,-804.01 L 145.314,-804.01 z
M -145.048,-804.509 L -145.64,-804.584 L -146.218,-804.732 L -146.772,-804.952 L -147.295,-805.239 L -147.778,-805.59
 L -148.213,-805.998 L -148.593,-806.458 L -148.912,-806.962 L -149.166,-807.501 L -149.351,-808.069 L -149.463,-808.655
 L -149.5,-809.25 L -149.5,-828.75 L -149.463,-829.345 L -149.351,-829.931 L -149.166,-830.499 L -148.912,-831.038
 L -148.593,-831.542 L -148.213,-832.002 L -147.778,-832.41 L -147.295,-832.761 L -146.772,-833.048 L -146.218,-833.268
 L -145.64,-833.416 L -145.048,-833.491 L 145.048,-833.491 L 145.64,-833.416 L 146.218,-833.268 L 146.772,-833.048
 L 147.295,-832.761 L 147.778,-832.41 L 148.213,-832.002 L 148.593,-831.542 L 148.912,-831.038 L 149.166,-830.499
 L 149.351,-829.931 L 149.463,-829.345 L 149.5,-828.75 L 149.5,-809.25 L 149.463,-808.655 L 149.351,-808.069
 L 149.166,-807.501 L 148.912,-806.962 L 148.593,-806.458 L 148.213,-805.998 L 147.778,-805.59 L 147.295,-805.239
 L 146.772,-804.952 L 146.218,-804.732 L 145.64,-804.584 L 145.048,-804.509 z
M 145.937,-765.089 L 146.545,-765.245 L 147.129,-765.476 L 147.679,-765.778 L 148.187,-766.147 L 148.645,-766.577
 L 149.045,-767.061 L 149.382,-767.591 L 149.649,-768.159 L 149.843,-768.757 L 149.961,-769.373 L 150,-770
 L 150,-790 L 149.961,-790.627 L 149.843,-791.243 L 149.649,-791.841 L 149.382,-792.409 L 149.045,-792.939
 L 148.645,-793.423 L 148.187,-793.853 L 147.679,-794.222 L 147.129,-794.524 L 146.545,-794.755 L 145.937,-794.911
 L 145.314,-794.99 L -145.314,-794.99 L -145.937,-794.911 L -146.545,-794.755 L -147.129,-794.524 L -147.679,-794.222
 L -148.187,-793.853 L -148.645,-793.423 L -149.045,-792.939 L -149.382,-792.409 L -149.649,-791.841 L -149.843,-791.243
 L -149.961,-790.627 L -150,-790 L -150,-770 L -149.961,-769.373 L -149.843,-768.757 L -149.649,-768.159
 L -149.382,-767.591 L -149.045,-767.061 L -148.645,-766.577 L -148.187,-766.147 L -147.679,-765.778 L -147.129,-765.476
 L -146.545,-765.245 L -145.937,-765.089 L -145.314,-765.01 L 145.314,-765.01 z
M -145.048,-765.509 L -145.64,-765.584 L -146.218,-765.732 L -146.772,-765.952 L -147.295,-766.239 L -147.778,-766.59
 L -148.213,-766.998 L -148.593,-767.458 L -148.912,-767.962 L -149.166,-768.501 L -149.351,-769.069 L -149.463,-769.655
 L -149.5,-770.25 L -149.5,-789.75 L -149.463,-790.345 L -149.351,-790.931 L -149.166,-791.499 L -148.912,-792.038
 L -148.593,-792.542 L -148.213,-793.002 L -147.778,-793.41 L -147.295,-793.761 L -146.772,-794.048 L -146.218,-794.268
 L -145.64,-794.416 L -145.048,-794.491 L 145.048,-794.491 L 145.64,-794.416 L 146.218,-794.268 L 146.772,-794.048
 L 147.295,-793.761 L 147.778,-793.41 L 148.213,-793.002 L 148.593,-792.542 L 148.912,-792.038 L 149.166,-791.499
 L 149.351,-790.931 L 149.463,-790.345 L 149.5,-789.75 L 149.5,-770.25 L 149.463,-769.655 L 149.351,-769.069
 L 149.166,-768.501 L 148.912,-767.962 L 148.593,-767.458 L 148.213,-766.998 L 147.778,-766.59 L 147.295,-766.239
 L 146.772,-765.952 L 146.218,-765.732 L 145.64,-765.584 L 145.048,-765.509 z
M 145.937,-726.089 L 146.545,-726.245 L 147.129,-726.476 L 147.679,-726.778 L 148.187,-727.147 L 148.645,-727.577
 L 149.045,-728.061 L 149.382,-728.591 L 149.649,-729.159 L 149.843,-729.757 L 149.961,-730.373 L 150,-731
 L 150,-751 L 149.961,-751.627 L 149.843,-752.243 L 149.649,-752.841 L 149.382,-753.409 L 149.045,-753.939
 L 148.645,-754.423 L 148.187,-754.853 L 147.679,-755.222 L 147.129,-755.524 L 146.545,-755.755 L 145.937,-755.911
 L 145.314,-755.99 L -145.314,-755.99 L -145.937,-755.911 L -146.545,-755.755 L -147.129,-755.524 L -147.679,-755.222
 L -148.187,-754.853 L -148.645,-754.423 L -149.045,-753.939 L -149.382,-753.409 L -149.649,-752.841 L -149.843,-752.243
 L -149.961,-751.627 L -150,-751 L -150,-731 L -149.961,-730.373 L -149.843,-729.757 L -149.649,-729.159
 L -149.382,-728.591 L -149.045,-728.061 L -148.645,-727.577 L -148.187,-727.147 L -147.679,-726.778 L -147.129,-726.476
 L -146.545,-726.245 L -145.937,-726.089 L -145.314,-726.01 L 145.314,-726.01 z
M -145.048,-726.509 L -145.64,-726.584 L -146.218,-726.732 L -146.772,-726.952 L -147.295,-727.239 L -147.778,-727.59
 L -148.213,-727.998 L -148.593,-728.458 L -148.912,-728.962 L -149.166,-729.501 L -149.351,-730.069 L -149.463,-730.655
 L -149.5,-731.25 L -149.5,-750.75 L -149.463,-751.345 L -149.351,-751.931 L -149.166,-752.499 L -148.912,-753.038
 L -148.593,-753.542 L -148.213,-754.002 L -147.778,-754.41 L -147.295,-754.761 L -146.772,-755.048 L -146.218,-755.268
 L -145.64,-755.416 L -145.048,-755.491 L 145.048,-755.491 L 145.64,-755.416 L 146.218,-755.268 L 146.772,-755.048
 L 147.295,-754.761 L 147.778,-754.41 L 148.213,-754.002 L 148.593,-753.542 L 148.912,-753.038 L 149.166,-752.499
 L 149.351,-751.931 L 149.463,-751.345 L 149.5,-750.75 L 149.5,-731.25 L 149.463,-730.655 L 149.351,-730.069
 L 149.166,-729.501 L 148.912,-728.962 L 148.593,-728.458 L 148.213,-727.998 L 147.778,-727.59 L 147.295,-727.239
 L 146.772,-726.952 L 146.218,-726.732 L 145.64,-726.584 L 145.048,-726.509 z
M 145.937,-687.089 L 146.545,-687.245 L 147.129,-687.476 L 147.679,-687.778 L 148.187,-688.147 L 148.645,-688.577
 L 149.045,-689.061 L 149.382,-689.591 L 149.649,-690.159 L 149.843,-690.757 L 149.961,-691.373 L 150,-692
 L 150,-712 L 149.961,-712.627 L 149.843,-713.243 L 149.649,-713.841 L 149.382,-714.409 L 149.045,-714.939
 L 148.645,-715.423 L 148.187,-715.853 L 147.679,-716.222 L 147.129,-716.524 L 146.545,-716.755 L 145.937,-716.911
 L 145.314,-716.99 L -145.314,-716.99 L -145.937,-716.911 L -146.545,-716.755 L -147.129,-716.524 L -147.679,-716.222
 L -148.187,-715.853 L -148.645,-715.423 L -149.045,-714.939 L -149.382,-714.409 L -149.649,-713.841 L -149.843,-713.243
 L -149.961,-712.627 L -150,-712 L -150,-692 L -149.961,-691.373 L -149.843,-690.757 L -149.649,-690.159
 L -149.382,-689.591 L -149.045,-689.061 L -148.645,-688.577 L -148.187,-688.147 L -147.679,-687.778 L -147.129,-687.476
 L -146.545,-687.245 L -145.937,-687.089 L -145.314,-687.01 L 145.314,-687.01 z
M -145.048,-687.509 L -145.64,-687.584 L -146.218,-687.732 L -146.772,-687.952 L -147.295,-688.239 L -147.778,-688.59
 L -148.213,-688.998 L -148.593,-689.458 L -148.912,-689.962 L -149.166,-690.501 L -149.351,-691.069 L -149.463,-691.655
 L -149.5,-692.25 L -149.5,-711.75 L -149.463,-712.345 L -149.351,-712.931 L -149.166,-713.499 L -148.912,-714.038
 L -148.593,-714.542 L -148.213,-715.002 L -147.778,-715.41 L -147.295,-715.761 L -146.772,-716.048 L -146.218,-716.268
 L -145.64,-716.416 L -145.048,-716.491 L 145.048,-716.491 L 145.64,-716.416 L 146.218,-716.268 L 146.772,-716.048
 L 147.295,-715.761 L 147.778,-715.41 L 148.213,-715.002 L 148.593,-714.542 L 148.912,-714.038 L 149.166,-713.499
 L 149.351,-712.931 L 149.463,-712.345 L 149.5,-711.75 L 149.5,-692.25 L 149.463,-691.655 L 149.351,-691.069
 L 149.166,-690.501 L 148.912,-689.962 L 148.593,-689.458 L 148.213,-688.998 L 147.778,-688.59 L 147.295,-688.239
 L 146.772,-687.952 L 146.218,-687.732 L 145.64,-687.584 L 145.048,-687.509 z
M 145.937,-648.089 L 146.545,-648.245 L 147.129,-648.476 L 147.679,-648.778 L 148.187,-649.147 L 148.645,-649.577
 L 149.045,-650.061 L 149.382,-650.591 L 149.649,-651.159 L 149.843,-651.757 L 149.961,-652.373 L 150,-653
 L 150,-673 L 149.961,-673.627 L 149.843,-674.243 L 149.649,-674.841 L 149.382,-675.409 L 149.045,-675.939
 L 148.645,-676.423 L 148.187,-676.853 L 147.679,-677.222 L 147.129,-677.524 L 146.545,-677.755 L 145.937,-677.911
 L 145.314,-677.99 L -145.314,-677.99 L -145.937,-677.911 L -146.545,-677.755 L -147.129,-677.524 L -147.679,-677.222
 L -148.187,-676.853 L -148.645,-676.423 L -149.045,-675.939 L -149.382,-675.409 L -149.649,-674.841 L -149.843,-674.243
 L -149.961,-673.627 L -150,-673 L -150,-653 L -149.961,-652.373 L -149.843,-651.757 L -149.649,-651.159
 L -149.382,-650.591 L -149.045,-650.061 L -148.645,-649.577 L -148.187,-649.147 L -147.679,-648.778 L -147.129,-648.476
 L -146.545,-648.245 L -145.937,-648.089 L -145.314,-648.01 L 145.314,-648.01 z
M -145.048,-648.509 L -145.64,-648.584 L -146.218,-648.732 L -146.772,-648.952 L -147.295,-649.239 L -147.778,-649.59
 L -148.213,-649.998 L -148.593,-650.458 L -148.912,-650.962 L -149.166,-651.501 L -149.351,-652.069 L -149.463,-652.655
 L -149.5,-653.25 L -149.5,-672.75 L -149.463,-673.345 L -149.351,-673.931 L -149.166,-674.499 L -148.912,-675.038
 L -148.593,-675.542 L -148.213,-676.002 L -147.778,-676.41 L -147.295,-676.761 L -146.772,-677.048 L -146.218,-677.268
 L -145.64,-677.416 L -145.048,-677.491 L 145.048,-677.491 L 145.64,-677.416 L 146.218,-677.268 L 146.772,-677.048
 L 147.295,-676.761 L 147.778,-676.41 L 148.213,-676.002 L 148.593,-675.542 L 148.912,-675.038 L 149.166,-674.499
 L 149.351,-673.931 L 149.463,-673.345 L 149.5,-672.75 L 149.5,-653.25 L 149.463,-652.655 L 149.351,-652.069
 L 149.166,-651.501 L 148.912,-650.962 L 148.593,-650.458 L 148.213,-649.998 L 147.778,-649.59 L 147.295,-649.239
 L 146.772,-648.952 L 146.218,-648.732 L 145.64,-648.584 L 145.048,-648.509 z
M 145.937,-609.089 L 146.545,-609.245 L 147.129,-609.476 L 147.679,-609.778 L 148.187,-610.147 L 148.645,-610.577
 L 149.045,-611.061 L 149.382,-611.591 L 149.649,-612.159 L 149.843,-612.757 L 149.961,-613.373 L 150,-614
 L 150,-634 L 149.961,-634.627 L 149.843,-635.243 L 149.649,-635.841 L 149.382,-636.409 L 149.045,-636.939
 L 148.645,-637.423 L 148.187,-637.853 L 147.679,-638.222 L 147.129,-638.524 L 146.545,-638.755 L 145.937,-638.911
 L 145.314,-638.99 L -145.314,-638.99 L -145.937,-638.911 L -146.545,-638.755 L -147.129,-638.524 L -147.679,-638.222
 L -148.187,-637.853 L -148.645,-637.423 L -149.045,-636.939 L -149.382,-636.409 L -149.649,-635.841 L -149.843,-635.243
 L -149.961,-634.627 L -150,-634 L -150,-614 L -149.961,-613.373 L -149.843,-612.757 L -149.649,-612.159
 L -149.382,-611.591 L -149.045,-611.061 L -148.645,-610.577 L -148.187,-610.147 L -147.679,-609.778 L -147.129,-609.476
 L -146.545,-609.245 L -145.937,-609.089 L -145.314,-609.01 L 145.314,-609.01 z
M -145.037,-609.681 L -145.608,-609.753 L -146.165,-609.896 L -146.699,-610.107 L -147.203,-610.384 L -147.668,-610.722
 L -148.088,-611.116 L -148.454,-611.559 L -148.762,-612.044 L -149.007,-612.565 L -149.185,-613.111 L -149.292,-613.676
 L -149.328,-614.25 L -149.328,-633.75 L -149.292,-634.324 L -149.185,-634.889 L -149.007,-635.435 L -148.762,-635.956
 L -148.454,-636.441 L -148.088,-636.884 L -147.668,-637.278 L -147.203,-637.616 L -146.699,-637.893 L -146.165,-638.104
 L -145.608,-638.247 L -145.037,-638.319 L 145.037,-638.319 L 145.608,-638.247 L 146.165,-638.104 L 146.699,-637.893
 L 147.203,-637.616 L 147.668,-637.278 L 148.088,-636.884 L 148.454,-636.441 L 148.762,-635.956 L 149.007,-635.435
 L 149.185,-634.889 L 149.292,-634.324 L 149.328,-633.75 L 149.328,-614.25 L 149.292,-613.676 L 149.185,-613.111
 L 149.007,-612.565 L 148.762,-612.044 L 148.454,-611.559 L 148.088,-611.116 L 147.668,-610.722 L 147.203,-610.384
 L 146.699,-610.107 L 146.165,-609.896 L 145.608,-609.753 L 145.037,-609.681 z
M 145.937,-570.089 L 146.545,-570.245 L 147.129,-570.476 L 147.679,-570.778 L 148.187,-571.147 L 148.645,-571.577
 L 149.045,-572.061 L 149.382,-572.591 L 149.649,-573.159 L 149.843,-573.757 L 149.961,-574.373 L 150,-575
 L 150,-595 L 149.961,-595.627 L 149.843,-596.243 L 149.649,-596.841 L 149.382,-597.409 L 149.045,-597.939
 L 148.645,-598.423 L 148.187,-598.853 L 147.679,-599.222 L 147.129,-599.524 L 146.545,-599.755 L 145.937,-599.911
 L 145.314,-599.99 L -145.314,-599.99 L -145.937,-599.911 L -146.545,-599.755 L -147.129,-599.524 L -147.679,-599.222
 L -148.187,-598.853 L -148.645,-598.423 L -149.045,-597.939 L -149.382,-597.409 L -149.649,-596.841 L -149.843,-596.243
 L -149.961,-595.627 L -150,-595 L -150,-575 L -149.961,-574.373 L -149.843,-573.757 L -149.649,-573.159
 L -149.382,-572.591 L -149.045,-572.061 L -148.645,-571.577 L -148.187,-571.147 L -147.679,-570.778 L -147.129,-570.476
 L -146.545,-570.245 L -145.937,-570.089 L -145.314,-570.01 L 145.314,-570.01 z
M -144.882,-573.145 L -145.145,-573.178 L -145.402,-573.244 L -145.648,-573.341 L -145.88,-573.469 L -146.095,-573.625
 L -146.288,-573.806 L -146.457,-574.01 L -146.599,-574.234 L -146.711,-574.473 L -146.793,-574.725 L -146.843,-574.986
 L -146.86,-575.25 L -146.86,-594.75 L -146.843,-595.014 L -146.793,-595.275 L -146.711,-595.527 L -146.599,-595.766
 L -146.457,-595.99 L -146.288,-596.194 L -146.095,-596.375 L -145.88,-596.531 L -145.648,-596.659 L -145.402,-596.756
 L -145.145,-596.822 L -144.882,-596.855 L 144.882,-596.855 L 145.145,-596.822 L 145.402,-596.756 L 145.648,-596.659
 L 145.88,-596.531 L 146.095,-596.375 L 146.288,-596.194 L 146.457,-595.99 L 146.599,-595.766 L 146.711,-595.527
 L 146.793,-595.275 L 146.843,-595.014 L 146.86,-594.75 L 146.86,-575.25 L 146.843,-574.986 L 146.793,-574.725
 L 146.711,-574.473 L 146.599,-574.234 L 146.457,-574.01 L 146.288,-573.806 L 146.095,-573.625 L 145.88,-573.469
 L 145.648,-573.341 L 145.402,-573.244 L 145.145,-573.178 L 144.882,-573.145 z
" stroke="black" fill="lightgray" stroke-width="0.5"/>
</svg>
