  0
SECTION
  2
BLOCKS
  0
ENDSEC
  0
SECTION
  2
ENTITIES
  0
LINE
  8
0
 10
138.437
 20
384.089
 11
139.045
 21
384.245
  0
LINE
  8
0
 10
139.045
 20
384.245
 11
139.629
 21
384.476
  0
LINE
  8
0
 10
139.629
 20
384.476
 11
140.179
 21
384.778
  0
LINE
  8
0
 10
140.179
 20
384.778
 11
140.687
 21
385.147
  0
LINE
  8
0
 10
140.687
 20
385.147
 11
141.145
 21
385.577
  0
LINE
  8
0
 10
141.145
 20
385.577
 11
141.545
 21
386.061
  0
LINE
  8
0
 10
141.545
 20
386.061
 11
141.882
 21
386.591
  0
LINE
  8
0
 10
141.882
 20
386.591
 11
142.149
 21
387.159
  0
LINE
  8
0
 10
142.149
 20
387.159
 11
142.343
 21
387.757
  0
LINE
  8
0
 10
142.343
 20
387.757
 11
142.461
 21
388.373
  0
LINE
  8
0
 10
142.461
 20
388.373
 11
142.5
 21
389
  0
LINE
  8
0
 10
142.5
 20
389
 11
142.5
 21
439
  0
LINE
  8
0
 10
142.5
 20
439
 11
142.461
 21
439.627
  0
LINE
  8
0
 10
142.461
 20
439.627
 11
142.343
 21
440.243
  0
LINE
  8
0
 10
142.343
 20
440.243
 11
142.149
 21
440.841
  0
LINE
  8
0
 10
142.149
 20
440.841
 11
141.882
 21
441.409
  0
LINE
  8
0
 10
141.882
 20
441.409
 11
141.545
 21
441.939
  0
LINE
  8
0
 10
141.545
 20
441.939
 11
141.145
 21
442.423
  0
LINE
  8
0
 10
141.145
 20
442.423
 11
140.687
 21
442.853
  0
LINE
  8
0
 10
140.687
 20
442.853
 11
140.179
 21
443.222
  0
LINE
  8
0
 10
140.179
 20
443.222
 11
139.629
 21
443.524
  0
LINE
  8
0
 10
139.629
 20
443.524
 11
139.045
 21
443.755
  0
LINE
  8
0
 10
139.045
 20
443.755
 11
138.437
 21
443.911
  0
LINE
  8
0
 10
138.437
 20
443.911
 11
137.814
 21
443.99
  0
LINE
  8
0
 10
137.814
 20
443.99
 11
-137.814
 21
443.99
  0
LINE
  8
0
 10
-137.814
 20
443.99
 11
-138.437
 21
443.911
  0
LINE
  8
0
 10
-138.437
 20
443.911
 11
-139.045
 21
443.755
  0
LINE
  8
0
 10
-139.045
 20
443.755
 11
-139.629
 21
443.524
  0
LINE
  8
0
 10
-139.629
 20
443.524
 11
-140.179
 21
443.222
  0
LINE
  8
0
 10
-140.179
 20
443.222
 11
-140.687
 21
442.853
  0
LINE
  8
0
 10
-140.687
 20
442.853
 11
-141.145
 21
442.423
  0
LINE
  8
0
 10
-141.145
 20
442.423
 11
-141.545
 21
441.939
  0
LINE
  8
0
 10
-141.545
 20
441.939
 11
-141.882
 21
441.409
  0
LINE
  8
0
 10
-141.882
 20
441.409
 11
-142.149
 21
440.841
  0
LINE
  8
0
 10
-142.149
 20
440.841
 11
-142.343
 21
440.243
  0
LINE
  8
0
 10
-142.343
 20
440.243
 11
-142.461
 21
439.627
  0
LINE
  8
0
 10
-142.461
 20
439.627
 11
-142.5
 21
439
  0
LINE
  8
0
 10
-142.5
 20
439
 11
-142.5
 21
389
  0
LINE
  8
0
 10
-142.5
 20
389
 11
-142.461
 21
388.373
  0
LINE
  8
0
 10
-142.461
 20
388.373
 11
-142.343
 21
387.757
  0
LINE
  8
0
 10
-142.343
 20
387.757
 11
-142.149
 21
387.159
  0
LINE
  8
0
 10
-142.149
 20
387.159
 11
-141.882
 21
386.591
  0
LINE
  8
0
 10
-141.882
 20
386.591
 11
-141.545
 21
386.061
  0
LINE
  8
0
 10
-141.545
 20
386.061
 11
-141.145
 21
385.577
  0
LINE
  8
0
 10
-141.145
 20
385.577
 11
-140.687
 21
385.147
  0
LINE
  8
0
 10
-140.687
 20
385.147
 11
-140.179
 21
384.778
  0
LINE
  8
0
 10
-140.179
 20
384.778
 11
-139.629
 21
384.476
  0
LINE
  8
0
 10
-139.629
 20
384.476
 11
-139.045
 21
384.245
  0
LINE
  8
0
 10
-139.045
 20
384.245
 11
-138.437
 21
384.089
  0
LINE
  8
0
 10
-138.437
 20
384.089
 11
-137.814
 21
384.01
  0
LINE
  8
0
 10
-137.814
 20
384.01
 11
137.814
 21
384.01
  0
LINE
  8
0
 10
137.814
 20
384.01
 11
138.437
 21
384.089
  0
LINE
  8
0
 10
-137.548
 20
384.509
 11
-138.14
 21
384.584
  0
LINE
  8
0
 10
-138.14
 20
384.584
 11
-138.718
 21
384.732
  0
LINE
  8
0
 10
-138.718
 20
384.732
 11
-139.272
 21
384.952
  0
LINE
  8
0
 10
-139.272
 20
384.952
 11
-139.795
 21
385.239
  0
LINE
  8
0
 10
-139.795
 20
385.239
 11
-140.278
 21
385.59
  0
LINE
  8
0
 10
-140.278
 20
385.59
 11
-140.713
 21
385.998
  0
LINE
  8
0
 10
-140.713
 20
385.998
 11
-141.093
 21
386.458
  0
LINE
  8
0
 10
-141.093
 20
386.458
 11
-141.412
 21
386.962
  0
LINE
  8
0
 10
-141.412
 20
386.962
 11
-141.666
 21
387.501
  0
LINE
  8
0
 10
-141.666
 20
387.501
 11
-141.851
 21
388.069
  0
LINE
  8
0
 10
-141.851
 20
388.069
 11
-141.963
 21
388.655
  0
LINE
  8
0
 10
-141.963
 20
388.655
 11
-142
 21
389.25
  0
LINE
  8
0
 10
-142
 20
389.25
 11
-142
 21
438.75
  0
LINE
  8
0
 10
-142
 20
438.75
 11
-141.963
 21
439.345
  0
LINE
  8
0
 10
-141.963
 20
439.345
 11
-141.851
 21
439.931
  0
LINE
  8
0
 10
-141.851
 20
439.931
 11
-141.666
 21
440.499
  0
LINE
  8
0
 10
-141.666
 20
440.499
 11
-141.412
 21
441.038
  0
LINE
  8
0
 10
-141.412
 20
441.038
 11
-141.093
 21
441.542
  0
LINE
  8
0
 10
-141.093
 20
441.542
 11
-140.713
 21
442.002
  0
LINE
  8
0
 10
-140.713
 20
442.002
 11
-140.278
 21
442.41
  0
LINE
  8
0
 10
-140.278
 20
442.41
 11
-139.795
 21
442.761
  0
LINE
  8
0
 10
-139.795
 20
442.761
 11
-139.272
 21
443.048
  0
LINE
  8
0
 10
-139.272
 20
443.048
 11
-138.718
 21
443.268
  0
LINE
  8
0
 10
-138.718
 20
443.268
 11
-138.14
 21
443.416
  0
LINE
  8
0
 10
-138.14
 20
443.416
 11
-137.548
 21
443.491
  0
LINE
  8
0
 10
-137.548
 20
443.491
 11
137.548
 21
443.491
  0
LINE
  8
0
 10
137.548
 20
443.491
 11
138.14
 21
443.416
  0
LINE
  8
0
 10
138.14
 20
443.416
 11
138.718
 21
443.268
  0
LINE
  8
0
 10
138.718
 20
443.268
 11
139.272
 21
443.048
  0
LINE
  8
0
 10
139.272
 20
443.048
 11
139.795
 21
442.761
  0
LINE
  8
0
 10
139.795
 20
442.761
 11
140.278
 21
442.41
  0
LINE
  8
0
 10
140.278
 20
442.41
 11
140.713
 21
442.002
  0
LINE
  8
0
 10
140.713
 20
442.002
 11
141.093
 21
441.542
  0
LINE
  8
0
 10
141.093
 20
441.542
 11
141.412
 21
441.038
  0
LINE
  8
0
 10
141.412
 20
441.038
 11
141.666
 21
440.499
  0
LINE
  8
0
 10
141.666
 20
440.499
 11
141.851
 21
439.931
  0
LINE
  8
0
 10
141.851
 20
439.931
 11
141.963
 21
439.345
  0
LINE
  8
0
 10
141.963
 20
439.345
 11
142
 21
438.75
  0
LINE
  8
0
 10
142
 20
438.75
 11
142
 21
389.25
  0
LINE
  8
0
 10
142
 20
389.25
 11
141.963
 21
388.655
  0
LINE
  8
0
 10
141.963
 20
388.655
 11
141.851
 21
388.069
  0
LINE
  8
0
 10
141.851
 20
388.069
 11
141.666
 21
387.501
  0
LINE
  8
0
 10
141.666
 20
387.501
 11
141.412
 21
386.962
  0
LINE
  8
0
 10
141.412
 20
386.962
 11
141.093
 21
386.458
  0
LINE
  8
0
 10
141.093
 20
386.458
 11
140.713
 21
385.998
  0
LINE
  8
0
 10
140.713
 20
385.998
 11
140.278
 21
385.59
  0
LINE
  8
0
 10
140.278
 20
385.59
 11
139.795
 21
385.239
  0
LINE
  8
0
 10
139.795
 20
385.239
 11
139.272
 21
384.952
  0
LINE
  8
0
 10
139.272
 20
384.952
 11
138.718
 21
384.732
  0
LINE
  8
0
 10
138.718
 20
384.732
 11
138.14
 21
384.584
  0
LINE
  8
0
 10
138.14
 20
384.584
 11
137.548
 21
384.509
  0
LINE
  8
0
 10
137.548
 20
384.509
 11
-137.548
 21
384.509
  0
LINE
  8
0
 10
138.437
 20
315.089
 11
139.045
 21
315.245
  0
LINE
  8
0
 10
139.045
 20
315.245
 11
139.629
 21
315.476
  0
LINE
  8
0
 10
139.629
 20
315.476
 11
140.179
 21
315.778
  0
LINE
  8
0
 10
140.179
 20
315.778
 11
140.687
 21
316.147
  0
LINE
  8
0
 10
140.687
 20
316.147
 11
141.145
 21
316.577
  0
LINE
  8
0
 10
141.145
 20
316.577
 11
141.545
 21
317.061
  0
LINE
  8
0
 10
141.545
 20
317.061
 11
141.882
 21
317.591
  0
LINE
  8
0
 10
141.882
 20
317.591
 11
142.149
 21
318.159
  0
LINE
  8
0
 10
142.149
 20
318.159
 11
142.343
 21
318.757
  0
LINE
  8
0
 10
142.343
 20
318.757
 11
142.461
 21
319.373
  0
LINE
  8
0
 10
142.461
 20
319.373
 11
142.5
 21
320
  0
LINE
  8
0
 10
142.5
 20
320
 11
142.5
 21
370
  0
LINE
  8
0
 10
142.5
 20
370
 11
142.461
 21
370.627
  0
LINE
  8
0
 10
142.461
 20
370.627
 11
142.343
 21
371.243
  0
LINE
  8
0
 10
142.343
 20
371.243
 11
142.149
 21
371.841
  0
LINE
  8
0
 10
142.149
 20
371.841
 11
141.882
 21
372.409
  0
LINE
  8
0
 10
141.882
 20
372.409
 11
141.545
 21
372.939
  0
LINE
  8
0
 10
141.545
 20
372.939
 11
141.145
 21
373.423
  0
LINE
  8
0
 10
141.145
 20
373.423
 11
140.687
 21
373.853
  0
LINE
  8
0
 10
140.687
 20
373.853
 11
140.179
 21
374.222
  0
LINE
  8
0
 10
140.179
 20
374.222
 11
139.629
 21
374.524
  0
LINE
  8
0
 10
139.629
 20
374.524
 11
139.045
 21
374.755
  0
LINE
  8
0
 10
139.045
 20
374.755
 11
138.437
 21
374.911
  0
LINE
  8
0
 10
138.437
 20
374.911
 11
137.814
 21
374.99
  0
LINE
  8
0
 10
137.814
 20
374.99
 11
-137.814
 21
374.99
  0
LINE
  8
0
 10
-137.814
 20
374.99
 11
-138.437
 21
374.911
  0
LINE
  8
0
 10
-138.437
 20
374.911
 11
-139.045
 21
374.755
  0
LINE
  8
0
 10
-139.045
 20
374.755
 11
-139.629
 21
374.524
  0
LINE
  8
0
 10
-139.629
 20
374.524
 11
-140.179
 21
374.222
  0
LINE
  8
0
 10
-140.179
 20
374.222
 11
-140.687
 21
373.853
  0
LINE
  8
0
 10
-140.687
 20
373.853
 11
-141.145
 21
373.423
  0
LINE
  8
0
 10
-141.145
 20
373.423
 11
-141.545
 21
372.939
  0
LINE
  8
0
 10
-141.545
 20
372.939
 11
-141.882
 21
372.409
  0
LINE
  8
0
 10
-141.882
 20
372.409
 11
-142.149
 21
371.841
  0
LINE
  8
0
 10
-142.149
 20
371.841
 11
-142.343
 21
371.243
  0
LINE
  8
0
 10
-142.343
 20
371.243
 11
-142.461
 21
370.627
  0
LINE
  8
0
 10
-142.461
 20
370.627
 11
-142.5
 21
370
  0
LINE
  8
0
 10
-142.5
 20
370
 11
-142.5
 21
320
  0
LINE
  8
0
 10
-142.5
 20
320
 11
-142.461
 21
319.373
  0
LINE
  8
0
 10
-142.461
 20
319.373
 11
-142.343
 21
318.757
  0
LINE
  8
0
 10
-142.343
 20
318.757
 11
-142.149
 21
318.159
  0
LINE
  8
0
 10
-142.149
 20
318.159
 11
-141.882
 21
317.591
  0
LINE
  8
0
 10
-141.882
 20
317.591
 11
-141.545
 21
317.061
  0
LINE
  8
0
 10
-141.545
 20
317.061
 11
-141.145
 21
316.577
  0
LINE
  8
0
 10
-141.145
 20
316.577
 11
-140.687
 21
316.147
  0
LINE
  8
0
 10
-140.687
 20
316.147
 11
-140.179
 21
315.778
  0
LINE
  8
0
 10
-140.179
 20
315.778
 11
-139.629
 21
315.476
  0
LINE
  8
0
 10
-139.629
 20
315.476
 11
-139.045
 21
315.245
  0
LINE
  8
0
 10
-139.045
 20
315.245
 11
-138.437
 21
315.089
  0
LINE
  8
0
 10
-138.437
 20
315.089
 11
-137.814
 21
315.01
  0
LINE
  8
0
 10
-137.814
 20
315.01
 11
137.814
 21
315.01
  0
LINE
  8
0
 10
137.814
 20
315.01
 11
138.437
 21
315.089
  0
LINE
  8
0
 10
-137.548
 20
315.509
 11
-138.14
 21
315.584
  0
LINE
  8
0
 10
-138.14
 20
315.584
 11
-138.718
 21
315.732
  0
LINE
  8
0
 10
-138.718
 20
315.732
 11
-139.272
 21
315.952
  0
LINE
  8
0
 10
-139.272
 20
315.952
 11
-139.795
 21
316.239
  0
LINE
  8
0
 10
-139.795
 20
316.239
 11
-140.278
 21
316.59
  0
LINE
  8
0
 10
-140.278
 20
316.59
 11
-140.713
 21
316.998
  0
LINE
  8
0
 10
-140.713
 20
316.998
 11
-141.093
 21
317.458
  0
LINE
  8
0
 10
-141.093
 20
317.458
 11
-141.412
 21
317.962
  0
LINE
  8
0
 10
-141.412
 20
317.962
 11
-141.666
 21
318.501
  0
LINE
  8
0
 10
-141.666
 20
318.501
 11
-141.851
 21
319.069
  0
LINE
  8
0
 10
-141.851
 20
319.069
 11
-141.963
 21
319.655
  0
LINE
  8
0
 10
-141.963
 20
319.655
 11
-142
 21
320.25
  0
LINE
  8
0
 10
-142
 20
320.25
 11
-142
 21
369.75
  0
LINE
  8
0
 10
-142
 20
369.75
 11
-141.963
 21
370.345
  0
LINE
  8
0
 10
-141.963
 20
370.345
 11
-141.851
 21
370.931
  0
LINE
  8
0
 10
-141.851
 20
370.931
 11
-141.666
 21
371.499
  0
LINE
  8
0
 10
-141.666
 20
371.499
 11
-141.412
 21
372.038
  0
LINE
  8
0
 10
-141.412
 20
372.038
 11
-141.093
 21
372.542
  0
LINE
  8
0
 10
-141.093
 20
372.542
 11
-140.713
 21
373.002
  0
LINE
  8
0
 10
-140.713
 20
373.002
 11
-140.278
 21
373.41
  0
LINE
  8
0
 10
-140.278
 20
373.41
 11
-139.795
 21
373.761
  0
LINE
  8
0
 10
-139.795
 20
373.761
 11
-139.272
 21
374.048
  0
LINE
  8
0
 10
-139.272
 20
374.048
 11
-138.718
 21
374.268
  0
LINE
  8
0
 10
-138.718
 20
374.268
 11
-138.14
 21
374.416
  0
LINE
  8
0
 10
-138.14
 20
374.416
 11
-137.548
 21
374.491
  0
LINE
  8
0
 10
-137.548
 20
374.491
 11
137.548
 21
374.491
  0
LINE
  8
0
 10
137.548
 20
374.491
 11
138.14
 21
374.416
  0
LINE
  8
0
 10
138.14
 20
374.416
 11
138.718
 21
374.268
  0
LINE
  8
0
 10
138.718
 20
374.268
 11
139.272
 21
374.048
  0
LINE
  8
0
 10
139.272
 20
374.048
 11
139.795
 21
373.761
  0
LINE
  8
0
 10
139.795
 20
373.761
 11
140.278
 21
373.41
  0
LINE
  8
0
 10
140.278
 20
373.41
 11
140.713
 21
373.002
  0
LINE
  8
0
 10
140.713
 20
373.002
 11
141.093
 21
372.542
  0
LINE
  8
0
 10
141.093
 20
372.542
 11
141.412
 21
372.038
  0
LINE
  8
0
 10
141.412
 20
372.038
 11
141.666
 21
371.499
  0
LINE
  8
0
 10
141.666
 20
371.499
 11
141.851
 21
370.931
  0
LINE
  8
0
 10
141.851
 20
370.931
 11
141.963
 21
370.345
  0
LINE
  8
0
 10
141.963
 20
370.345
 11
142
 21
369.75
  0
LINE
  8
0
 10
142
 20
369.75
 11
142
 21
320.25
  0
LINE
  8
0
 10
142
 20
320.25
 11
141.963
 21
319.655
  0
LINE
  8
0
 10
141.963
 20
319.655
 11
141.851
 21
319.069
  0
LINE
  8
0
 10
141.851
 20
319.069
 11
141.666
 21
318.501
  0
LINE
  8
0
 10
141.666
 20
318.501
 11
141.412
 21
317.962
  0
LINE
  8
0
 10
141.412
 20
317.962
 11
141.093
 21
317.458
  0
LINE
  8
0
 10
141.093
 20
317.458
 11
140.713
 21
316.998
  0
LINE
  8
0
 10
140.713
 20
316.998
 11
140.278
 21
316.59
  0
LINE
  8
0
 10
140.278
 20
316.59
 11
139.795
 21
316.239
  0
LINE
  8
0
 10
139.795
 20
316.239
 11
139.272
 21
315.952
  0
LINE
  8
0
 10
139.272
 20
315.952
 11
138.718
 21
315.732
  0
LINE
  8
0
 10
138.718
 20
315.732
 11
138.14
 21
315.584
  0
LINE
  8
0
 10
138.14
 20
315.584
 11
137.548
 21
315.509
  0
LINE
  8
0
 10
137.548
 20
315.509
 11
-137.548
 21
315.509
  0
LINE
  8
0
 10
138.437
 20
246.089
 11
139.045
 21
246.245
  0
LINE
  8
0
 10
139.045
 20
246.245
 11
139.629
 21
246.476
  0
LINE
  8
0
 10
139.629
 20
246.476
 11
140.179
 21
246.778
  0
LINE
  8
0
 10
140.179
 20
246.778
 11
140.687
 21
247.147
  0
LINE
  8
0
 10
140.687
 20
247.147
 11
141.145
 21
247.577
  0
LINE
  8
0
 10
141.145
 20
247.577
 11
141.545
 21
248.061
  0
LINE
  8
0
 10
141.545
 20
248.061
 11
141.882
 21
248.591
  0
LINE
  8
0
 10
141.882
 20
248.591
 11
142.149
 21
249.159
  0
LINE
  8
0
 10
142.149
 20
249.159
 11
142.343
 21
249.757
  0
LINE
  8
0
 10
142.343
 20
249.757
 11
142.461
 21
250.373
  0
LINE
  8
0
 10
142.461
 20
250.373
 11
142.5
 21
251
  0
LINE
  8
0
 10
142.5
 20
251
 11
142.5
 21
301
  0
LINE
  8
0
 10
142.5
 20
301
 11
142.461
 21
301.627
  0
LINE
  8
0
 10
142.461
 20
301.627
 11
142.343
 21
302.243
  0
LINE
  8
0
 10
142.343
 20
302.243
 11
142.149
 21
302.841
  0
LINE
  8
0
 10
142.149
 20
302.841
 11
141.882
 21
303.409
  0
LINE
  8
0
 10
141.882
 20
303.409
 11
141.545
 21
303.939
  0
LINE
  8
0
 10
141.545
 20
303.939
 11
141.145
 21
304.423
  0
LINE
  8
0
 10
141.145
 20
304.423
 11
140.687
 21
304.853
  0
LINE
  8
0
 10
140.687
 20
304.853
 11
140.179
 21
305.222
  0
LINE
  8
0
 10
140.179
 20
305.222
 11
139.629
 21
305.524
  0
LINE
  8
0
 10
139.629
 20
305.524
 11
139.045
 21
305.755
  0
LINE
  8
0
 10
139.045
 20
305.755
 11
138.437
 21
305.911
  0
LINE
  8
0
 10
138.437
 20
305.911
 11
137.814
 21
305.99
  0
LINE
  8
0
 10
137.814
 20
305.99
 11
-137.814
 21
305.99
  0
LINE
  8
0
 10
-137.814
 20
305.99
 11
-138.437
 21
305.911
  0
LINE
  8
0
 10
-138.437
 20
305.911
 11
-139.045
 21
305.755
  0
LINE
  8
0
 10
-139.045
 20
305.755
 11
-139.629
 21
305.524
  0
LINE
  8
0
 10
-139.629
 20
305.524
 11
-140.179
 21
305.222
  0
LINE
  8
0
 10
-140.179
 20
305.222
 11
-140.687
 21
304.853
  0
LINE
  8
0
 10
-140.687
 20
304.853
 11
-141.145
 21
304.423
  0
LINE
  8
0
 10
-141.145
 20
304.423
 11
-141.545
 21
303.939
  0
LINE
  8
0
 10
-141.545
 20
303.939
 11
-141.882
 21
303.409
  0
LINE
  8
0
 10
-141.882
 20
303.409
 11
-142.149
 21
302.841
  0
LINE
  8
0
 10
-142.149
 20
302.841
 11
-142.343
 21
302.243
  0
LINE
  8
0
 10
-142.343
 20
302.243
 11
-142.461
 21
301.627
  0
LINE
  8
0
 10
-142.461
 20
301.627
 11
-142.5
 21
301
  0
LINE
  8
0
 10
-142.5
 20
301
 11
-142.5
 21
251
  0
LINE
  8
0
 10
-142.5
 20
251
 11
-142.461
 21
250.373
  0
LINE
  8
0
 10
-142.461
 20
250.373
 11
-142.343
 21
249.757
  0
LINE
  8
0
 10
-142.343
 20
249.757
 11
-142.149
 21
249.159
  0
LINE
  8
0
 10
-142.149
 20
249.159
 11
-141.882
 21
248.591
  0
LINE
  8
0
 10
-141.882
 20
248.591
 11
-141.545
 21
248.061
  0
LINE
  8
0
 10
-141.545
 20
248.061
 11
-141.145
 21
247.577
  0
LINE
  8
0
 10
-141.145
 20
247.577
 11
-140.687
 21
247.147
  0
LINE
  8
0
 10
-140.687
 20
247.147
 11
-140.179
 21
246.778
  0
LINE
  8
0
 10
-140.179
 20
246.778
 11
-139.629
 21
246.476
  0
LINE
  8
0
 10
-139.629
 20
246.476
 11
-139.045
 21
246.245
  0
LINE
  8
0
 10
-139.045
 20
246.245
 11
-138.437
 21
246.089
  0
LINE
  8
0
 10
-138.437
 20
246.089
 11
-137.814
 21
246.01
  0
LINE
  8
0
 10
-137.814
 20
246.01
 11
137.814
 21
246.01
  0
LINE
  8
0
 10
137.814
 20
246.01
 11
138.437
 21
246.089
  0
LINE
  8
0
 10
-137.493
 20
247.388
 11
-137.975
 21
247.449
  0
LINE
  8
0
 10
-137.975
 20
247.449
 11
-138.446
 21
247.57
  0
LINE
  8
0
 10
-138.446
 20
247.57
 11
-138.898
 21
247.749
  0
LINE
  8
0
 10
-138.898
 20
247.749
 11
-139.323
 21
247.983
  0
LINE
  8
0
 10
-139.323
 20
247.983
 11
-139.716
 21
248.269
  0
LINE
  8
0
 10
-139.716
 20
248.269
 11
-140.071
 21
248.601
  0
LINE
  8
0
 10
-140.071
 20
248.601
 11
-140.38
 21
248.976
  0
LINE
  8
0
 10
-140.38
 20
248.976
 11
-140.641
 21
249.386
  0
LINE
  8
0
 10
-140.641
 20
249.386
 11
-140.848
 21
249.826
  0
LINE
  8
0
 10
-140.848
 20
249.826
 11
-140.998
 21
250.288
  0
LINE
  8
0
 10
-140.998
 20
250.288
 11
-141.089
 21
250.765
  0
LINE
  8
0
 10
-141.089
 20
250.765
 11
-141.119
 21
251.25
  0
LINE
  8
0
 10
-141.119
 20
251.25
 11
-141.119
 21
300.75
  0
LINE
  8
0
 10
-141.119
 20
300.75
 11
-141.089
 21
301.235
  0
LINE
  8
0
 10
-141.089
 20
301.235
 11
-140.998
 21
301.712
  0
LINE
  8
0
 10
-140.998
 20
301.712
 11
-140.848
 21
302.174
  0
LINE
  8
0
 10
-140.848
 20
302.174
 11
-140.641
 21
302.614
  0
LINE
  8
0
 10
-140.641
 20
302.614
 11
-140.38
 21
303.024
  0
LINE
  8
0
 10
-140.38
 20
303.024
 11
-140.071
 21
303.399
  0
LINE
  8
0
 10
-140.071
 20
303.399
 11
-139.716
 21
303.731
  0
LINE
  8
0
 10
-139.716
 20
303.731
 11
-139.323
 21
304.017
  0
LINE
  8
0
 10
-139.323
 20
304.017
 11
-138.898
 21
304.251
  0
LINE
  8
0
 10
-138.898
 20
304.251
 11
-138.446
 21
304.43
  0
LINE
  8
0
 10
-138.446
 20
304.43
 11
-137.975
 21
304.551
  0
LINE
  8
0
 10
-137.975
 20
304.551
 11
-137.493
 21
304.612
  0
LINE
  8
0
 10
-137.493
 20
304.612
 11
137.493
 21
304.612
  0
LINE
  8
0
 10
137.493
 20
304.612
 11
137.975
 21
304.551
  0
LINE
  8
0
 10
137.975
 20
304.551
 11
138.446
 21
304.43
  0
LINE
  8
0
 10
138.446
 20
304.43
 11
138.898
 21
304.251
  0
LINE
  8
0
 10
138.898
 20
304.251
 11
139.323
 21
304.017
  0
LINE
  8
0
 10
139.323
 20
304.017
 11
139.716
 21
303.731
  0
LINE
  8
0
 10
139.716
 20
303.731
 11
140.071
 21
303.399
  0
LINE
  8
0
 10
140.071
 20
303.399
 11
140.38
 21
303.024
  0
LINE
  8
0
 10
140.38
 20
303.024
 11
140.641
 21
302.614
  0
LINE
  8
0
 10
140.641
 20
302.614
 11
140.848
 21
302.174
  0
LINE
  8
0
 10
140.848
 20
302.174
 11
140.998
 21
301.712
  0
LINE
  8
0
 10
140.998
 20
301.712
 11
141.089
 21
301.235
  0
LINE
  8
0
 10
141.089
 20
301.235
 11
141.119
 21
300.75
  0
LINE
  8
0
 10
141.119
 20
300.75
 11
141.119
 21
251.25
  0
LINE
  8
0
 10
141.119
 20
251.25
 11
141.089
 21
250.765
  0
LINE
  8
0
 10
141.089
 20
250.765
 11
140.998
 21
250.288
  0
LINE
  8
0
 10
140.998
 20
250.288
 11
140.848
 21
249.826
  0
LINE
  8
0
 10
140.848
 20
249.826
 11
140.641
 21
249.386
  0
LINE
  8
0
 10
140.641
 20
249.386
 11
140.38
 21
248.976
  0
LINE
  8
0
 10
140.38
 20
248.976
 11
140.071
 21
248.601
  0
LINE
  8
0
 10
140.071
 20
248.601
 11
139.716
 21
248.269
  0
LINE
  8
0
 10
139.716
 20
248.269
 11
139.323
 21
247.983
  0
LINE
  8
0
 10
139.323
 20
247.983
 11
138.898
 21
247.749
  0
LINE
  8
0
 10
138.898
 20
247.749
 11
138.446
 21
247.57
  0
LINE
  8
0
 10
138.446
 20
247.57
 11
137.975
 21
247.449
  0
LINE
  8
0
 10
137.975
 20
247.449
 11
137.493
 21
247.388
  0
LINE
  8
0
 10
137.493
 20
247.388
 11
-137.493
 21
247.388
  0
LINE
  8
0
 10
138.437
 20
177.089
 11
139.045
 21
177.245
  0
LINE
  8
0
 10
139.045
 20
177.245
 11
139.629
 21
177.476
  0
LINE
  8
0
 10
139.629
 20
177.476
 11
140.179
 21
177.778
  0
LINE
  8
0
 10
140.179
 20
177.778
 11
140.687
 21
178.147
  0
LINE
  8
0
 10
140.687
 20
178.147
 11
141.145
 21
178.577
  0
LINE
  8
0
 10
141.145
 20
178.577
 11
141.545
 21
179.061
  0
LINE
  8
0
 10
141.545
 20
179.061
 11
141.882
 21
179.591
  0
LINE
  8
0
 10
141.882
 20
179.591
 11
142.149
 21
180.159
  0
LINE
  8
0
 10
142.149
 20
180.159
 11
142.343
 21
180.757
  0
LINE
  8
0
 10
142.343
 20
180.757
 11
142.461
 21
181.373
  0
LINE
  8
0
 10
142.461
 20
181.373
 11
142.5
 21
182
  0
LINE
  8
0
 10
142.5
 20
182
 11
142.5
 21
232
  0
LINE
  8
0
 10
142.5
 20
232
 11
142.461
 21
232.627
  0
LINE
  8
0
 10
142.461
 20
232.627
 11
142.343
 21
233.243
  0
LINE
  8
0
 10
142.343
 20
233.243
 11
142.149
 21
233.841
  0
LINE
  8
0
 10
142.149
 20
233.841
 11
141.882
 21
234.409
  0
LINE
  8
0
 10
141.882
 20
234.409
 11
141.545
 21
234.939
  0
LINE
  8
0
 10
141.545
 20
234.939
 11
141.145
 21
235.423
  0
LINE
  8
0
 10
141.145
 20
235.423
 11
140.687
 21
235.853
  0
LINE
  8
0
 10
140.687
 20
235.853
 11
140.179
 21
236.222
  0
LINE
  8
0
 10
140.179
 20
236.222
 11
139.629
 21
236.524
  0
LINE
  8
0
 10
139.629
 20
236.524
 11
139.045
 21
236.755
  0
LINE
  8
0
 10
139.045
 20
236.755
 11
138.437
 21
236.911
  0
LINE
  8
0
 10
138.437
 20
236.911
 11
137.814
 21
236.99
  0
LINE
  8
0
 10
137.814
 20
236.99
 11
-137.814
 21
236.99
  0
LINE
  8
0
 10
-137.814
 20
236.99
 11
-138.437
 21
236.911
  0
LINE
  8
0
 10
-138.437
 20
236.911
 11
-139.045
 21
236.755
  0
LINE
  8
0
 10
-139.045
 20
236.755
 11
-139.629
 21
236.524
  0
LINE
  8
0
 10
-139.629
 20
236.524
 11
-140.179
 21
236.222
  0
LINE
  8
0
 10
-140.179
 20
236.222
 11
-140.687
 21
235.853
  0
LINE
  8
0
 10
-140.687
 20
235.853
 11
-141.145
 21
235.423
  0
LINE
  8
0
 10
-141.145
 20
235.423
 11
-141.545
 21
234.939
  0
LINE
  8
0
 10
-141.545
 20
234.939
 11
-141.882
 21
234.409
  0
LINE
  8
0
 10
-141.882
 20
234.409
 11
-142.149
 21
233.841
  0
LINE
  8
0
 10
-142.149
 20
233.841
 11
-142.343
 21
233.243
  0
LINE
  8
0
 10
-142.343
 20
233.243
 11
-142.461
 21
232.627
  0
LINE
  8
0
 10
-142.461
 20
232.627
 11
-142.5
 21
232
  0
LINE
  8
0
 10
-142.5
 20
232
 11
-142.5
 21
182
  0
LINE
  8
0
 10
-142.5
 20
182
 11
-142.461
 21
181.373
  0
LINE
  8
0
 10
-142.461
 20
181.373
 11
-142.343
 21
180.757
  0
LINE
  8
0
 10
-142.343
 20
180.757
 11
-142.149
 21
180.159
  0
LINE
  8
0
 10
-142.149
 20
180.159
 11
-141.882
 21
179.591
  0
LINE
  8
0
 10
-141.882
 20
179.591
 11
-141.545
 21
179.061
  0
LINE
  8
0
 10
-141.545
 20
179.061
 11
-141.145
 21
178.577
  0
LINE
  8
0
 10
-141.145
 20
178.577
 11
-140.687
 21
178.147
  0
LINE
  8
0
 10
-140.687
 20
178.147
 11
-140.179
 21
177.778
  0
LINE
  8
0
 10
-140.179
 20
177.778
 11
-139.629
 21
177.476
  0
LINE
  8
0
 10
-139.629
 20
177.476
 11
-139.045
 21
177.245
  0
LINE
  8
0
 10
-139.045
 20
177.245
 11
-138.437
 21
177.089
  0
LINE
  8
0
 10
-138.437
 20
177.089
 11
-137.814
 21
177.01
  0
LINE
  8
0
 10
-137.814
 20
177.01
 11
137.814
 21
177.01
  0
LINE
  8
0
 10
137.814
 20
177.01
 11
138.437
 21
177.089
  0
LINE
  8
0
 10
-135.113
 20
227.704
 11
-135.337
 21
227.732
  0
LINE
  8
0
 10
-135.337
 20
227.732
 11
-135.556
 21
227.788
  0
LINE
  8
0
 10
-135.556
 20
227.788
 11
-135.766
 21
227.871
  0
LINE
  8
0
 10
-135.766
 20
227.871
 11
-135.964
 21
227.98
  0
LINE
  8
0
 10
-135.964
 20
227.98
 11
-136.147
 21
228.113
  0
LINE
  8
0
 10
-136.147
 20
228.113
 11
-136.312
 21
228.268
  0
LINE
  8
0
 10
-136.312
 20
228.268
 11
-136.456
 21
228.442
  0
LINE
  8
0
 10
-136.456
 20
228.442
 11
-136.577
 21
228.633
  0
LINE
  8
0
 10
-136.577
 20
228.633
 11
-136.674
 21
228.837
  0
LINE
  8
0
 10
-136.674
 20
228.837
 11
-136.743
 21
229.052
  0
LINE
  8
0
 10
-136.743
 20
229.052
 11
-136.786
 21
229.274
  0
LINE
  8
0
 10
-136.786
 20
229.274
 11
-136.8
 21
229.5
  0
LINE
  8
0
 10
-136.8
 20
229.5
 11
-136.786
 21
229.726
  0
LINE
  8
0
 10
-136.786
 20
229.726
 11
-136.743
 21
229.948
  0
LINE
  8
0
 10
-136.743
 20
229.948
 11
-136.674
 21
230.163
  0
LINE
  8
0
 10
-136.674
 20
230.163
 11
-136.577
 21
230.367
  0
LINE
  8
0
 10
-136.577
 20
230.367
 11
-136.456
 21
230.558
  0
LINE
  8
0
 10
-136.456
 20
230.558
 11
-136.312
 21
230.732
  0
LINE
  8
0
 10
-136.312
 20
230.732
 11
-136.147
 21
230.887
  0
LINE
  8
0
 10
-136.147
 20
230.887
 11
-135.964
 21
231.02
  0
LINE
  8
0
 10
-135.964
 20
231.02
 11
-135.766
 21
231.129
  0
LINE
  8
0
 10
-135.766
 20
231.129
 11
-135.556
 21
231.212
  0
LINE
  8
0
 10
-135.556
 20
231.212
 11
-135.337
 21
231.268
  0
LINE
  8
0
 10
-135.337
 20
231.268
 11
-135.113
 21
231.296
  0
LINE
  8
0
 10
-135.113
 20
231.296
 11
-134.887
 21
231.296
  0
LINE
  8
0
 10
-134.887
 20
231.296
 11
-134.663
 21
231.268
  0
LINE
  8
0
 10
-134.663
 20
231.268
 11
-134.444
 21
231.212
  0
LINE
  8
0
 10
-134.444
 20
231.212
 11
-134.234
 21
231.129
  0
LINE
  8
0
 10
-134.234
 20
231.129
 11
-134.036
 21
231.02
  0
LINE
  8
0
 10
-134.036
 20
231.02
 11
-133.853
 21
230.887
  0
LINE
  8
0
 10
-133.853
 20
230.887
 11
-133.688
 21
230.732
  0
LINE
  8
0
 10
-133.688
 20
230.732
 11
-133.544
 21
230.558
  0
LINE
  8
0
 10
-133.544
 20
230.558
 11
-133.423
 21
230.367
  0
LINE
  8
0
 10
-133.423
 20
230.367
 11
-133.326
 21
230.163
  0
LINE
  8
0
 10
-133.326
 20
230.163
 11
-133.257
 21
229.948
  0
LINE
  8
0
 10
-133.257
 20
229.948
 11
-133.214
 21
229.726
  0
LINE
  8
0
 10
-133.214
 20
229.726
 11
-133.2
 21
229.5
  0
LINE
  8
0
 10
-133.2
 20
229.5
 11
-133.214
 21
229.274
  0
LINE
  8
0
 10
-133.214
 20
229.274
 11
-133.257
 21
229.052
  0
LINE
  8
0
 10
-133.257
 20
229.052
 11
-133.326
 21
228.837
  0
LINE
  8
0
 10
-133.326
 20
228.837
 11
-133.423
 21
228.633
  0
LINE
  8
0
 10
-133.423
 20
228.633
 11
-133.544
 21
228.442
  0
LINE
  8
0
 10
-133.544
 20
228.442
 11
-133.688
 21
228.268
  0
LINE
  8
0
 10
-133.688
 20
228.268
 11
-133.853
 21
228.113
  0
LINE
  8
0
 10
-133.853
 20
228.113
 11
-134.036
 21
227.98
  0
LINE
  8
0
 10
-134.036
 20
227.98
 11
-134.234
 21
227.871
  0
LINE
  8
0
 10
-134.234
 20
227.871
 11
-134.444
 21
227.788
  0
LINE
  8
0
 10
-134.444
 20
227.788
 11
-134.663
 21
227.732
  0
LINE
  8
0
 10
-134.663
 20
227.732
 11
-134.887
 21
227.704
  0
LINE
  8
0
 10
-134.887
 20
227.704
 11
-135.113
 21
227.704
  0
LINE
  8
0
 10
134.887
 20
227.704
 11
134.663
 21
227.732
  0
LINE
  8
0
 10
134.663
 20
227.732
 11
134.444
 21
227.788
  0
LINE
  8
0
 10
134.444
 20
227.788
 11
134.234
 21
227.871
  0
LINE
  8
0
 10
134.234
 20
227.871
 11
134.036
 21
227.98
  0
LINE
  8
0
 10
134.036
 20
227.98
 11
133.853
 21
228.113
  0
LINE
  8
0
 10
133.853
 20
228.113
 11
133.688
 21
228.268
  0
LINE
  8
0
 10
133.688
 20
228.268
 11
133.544
 21
228.442
  0
LINE
  8
0
 10
133.544
 20
228.442
 11
133.423
 21
228.633
  0
LINE
  8
0
 10
133.423
 20
228.633
 11
133.326
 21
228.837
  0
LINE
  8
0
 10
133.326
 20
228.837
 11
133.257
 21
229.052
  0
LINE
  8
0
 10
133.257
 20
229.052
 11
133.214
 21
229.274
  0
LINE
  8
0
 10
133.214
 20
229.274
 11
133.2
 21
229.5
  0
LINE
  8
0
 10
133.2
 20
229.5
 11
133.214
 21
229.726
  0
LINE
  8
0
 10
133.214
 20
229.726
 11
133.257
 21
229.948
  0
LINE
  8
0
 10
133.257
 20
229.948
 11
133.326
 21
230.163
  0
LINE
  8
0
 10
133.326
 20
230.163
 11
133.423
 21
230.367
  0
LINE
  8
0
 10
133.423
 20
230.367
 11
133.544
 21
230.558
  0
LINE
  8
0
 10
133.544
 20
230.558
 11
133.688
 21
230.732
  0
LINE
  8
0
 10
133.688
 20
230.732
 11
133.853
 21
230.887
  0
LINE
  8
0
 10
133.853
 20
230.887
 11
134.036
 21
231.02
  0
LINE
  8
0
 10
134.036
 20
231.02
 11
134.234
 21
231.129
  0
LINE
  8
0
 10
134.234
 20
231.129
 11
134.444
 21
231.212
  0
LINE
  8
0
 10
134.444
 20
231.212
 11
134.663
 21
231.268
  0
LINE
  8
0
 10
134.663
 20
231.268
 11
134.887
 21
231.296
  0
LINE
  8
0
 10
134.887
 20
231.296
 11
135.113
 21
231.296
  0
LINE
  8
0
 10
135.113
 20
231.296
 11
135.337
 21
231.268
  0
LINE
  8
0
 10
135.337
 20
231.268
 11
135.556
 21
231.212
  0
LINE
  8
0
 10
135.556
 20
231.212
 11
135.766
 21
231.129
  0
LINE
  8
0
 10
135.766
 20
231.129
 11
135.964
 21
231.02
  0
LINE
  8
0
 10
135.964
 20
231.02
 11
136.147
 21
230.887
  0
LINE
  8
0
 10
136.147
 20
230.887
 11
136.312
 21
230.732
  0
LINE
  8
0
 10
136.312
 20
230.732
 11
136.456
 21
230.558
  0
LINE
  8
0
 10
136.456
 20
230.558
 11
136.577
 21
230.367
  0
LINE
  8
0
 10
136.577
 20
230.367
 11
136.674
 21
230.163
  0
LINE
  8
0
 10
136.674
 20
230.163
 11
136.743
 21
229.948
  0
LINE
  8
0
 10
136.743
 20
229.948
 11
136.786
 21
229.726
  0
LINE
  8
0
 10
136.786
 20
229.726
 11
136.8
 21
229.5
  0
LINE
  8
0
 10
136.8
 20
229.5
 11
136.786
 21
229.274
  0
LINE
  8
0
 10
136.786
 20
229.274
 11
136.743
 21
229.052
  0
LINE
  8
0
 10
136.743
 20
229.052
 11
136.674
 21
228.837
  0
LINE
  8
0
 10
136.674
 20
228.837
 11
136.577
 21
228.633
  0
LINE
  8
0
 10
136.577
 20
228.633
 11
136.456
 21
228.442
  0
LINE
  8
0
 10
136.456
 20
228.442
 11
136.312
 21
228.268
  0
LINE
  8
0
 10
136.312
 20
228.268
 11
136.147
 21
228.113
  0
LINE
  8
0
 10
136.147
 20
228.113
 11
135.964
 21
227.98
  0
LINE
  8
0
 10
135.964
 20
227.98
 11
135.766
 21
227.871
  0
LINE
  8
0
 10
135.766
 20
227.871
 11
135.556
 21
227.788
  0
LINE
  8
0
 10
135.556
 20
227.788
 11
135.337
 21
227.732
  0
LINE
  8
0
 10
135.337
 20
227.732
 11
135.113
 21
227.704
  0
LINE
  8
0
 10
135.113
 20
227.704
 11
134.887
 21
227.704
  0
LINE
  8
0
 10
134.887
 20
182.704
 11
134.663
 21
182.732
  0
LINE
  8
0
 10
134.663
 20
182.732
 11
134.444
 21
182.788
  0
LINE
  8
0
 10
134.444
 20
182.788
 11
134.234
 21
182.871
  0
LINE
  8
0
 10
134.234
 20
182.871
 11
134.036
 21
182.98
  0
LINE
  8
0
 10
134.036
 20
182.98
 11
133.853
 21
183.113
  0
LINE
  8
0
 10
133.853
 20
183.113
 11
133.688
 21
183.268
  0
LINE
  8
0
 10
133.688
 20
183.268
 11
133.544
 21
183.442
  0
LINE
  8
0
 10
133.544
 20
183.442
 11
133.423
 21
183.633
  0
LINE
  8
0
 10
133.423
 20
183.633
 11
133.326
 21
183.837
  0
LINE
  8
0
 10
133.326
 20
183.837
 11
133.257
 21
184.052
  0
LINE
  8
0
 10
133.257
 20
184.052
 11
133.214
 21
184.274
  0
LINE
  8
0
 10
133.214
 20
184.274
 11
133.2
 21
184.5
  0
LINE
  8
0
 10
133.2
 20
184.5
 11
133.214
 21
184.726
  0
LINE
  8
0
 10
133.214
 20
184.726
 11
133.257
 21
184.948
  0
LINE
  8
0
 10
133.257
 20
184.948
 11
133.326
 21
185.163
  0
LINE
  8
0
 10
133.326
 20
185.163
 11
133.423
 21
185.367
  0
LINE
  8
0
 10
133.423
 20
185.367
 11
133.544
 21
185.558
  0
LINE
  8
0
 10
133.544
 20
185.558
 11
133.688
 21
185.732
  0
LINE
  8
0
 10
133.688
 20
185.732
 11
133.853
 21
185.887
  0
LINE
  8
0
 10
133.853
 20
185.887
 11
134.036
 21
186.02
  0
LINE
  8
0
 10
134.036
 20
186.02
 11
134.234
 21
186.129
  0
LINE
  8
0
 10
134.234
 20
186.129
 11
134.444
 21
186.212
  0
LINE
  8
0
 10
134.444
 20
186.212
 11
134.663
 21
186.268
  0
LINE
  8
0
 10
134.663
 20
186.268
 11
134.887
 21
186.296
  0
LINE
  8
0
 10
134.887
 20
186.296
 11
135.113
 21
186.296
  0
LINE
  8
0
 10
135.113
 20
186.296
 11
135.337
 21
186.268
  0
LINE
  8
0
 10
135.337
 20
186.268
 11
135.556
 21
186.212
  0
LINE
  8
0
 10
135.556
 20
186.212
 11
135.766
 21
186.129
  0
LINE
  8
0
 10
135.766
 20
186.129
 11
135.964
 21
186.02
  0
LINE
  8
0
 10
135.964
 20
186.02
 11
136.147
 21
185.887
  0
LINE
  8
0
 10
136.147
 20
185.887
 11
136.312
 21
185.732
  0
LINE
  8
0
 10
136.312
 20
185.732
 11
136.456
 21
185.558
  0
LINE
  8
0
 10
136.456
 20
185.558
 11
136.577
 21
185.367
  0
LINE
  8
0
 10
136.577
 20
185.367
 11
136.674
 21
185.163
  0
LINE
  8
0
 10
136.674
 20
185.163
 11
136.743
 21
184.948
  0
LINE
  8
0
 10
136.743
 20
184.948
 11
136.786
 21
184.726
  0
LINE
  8
0
 10
136.786
 20
184.726
 11
136.8
 21
184.5
  0
LINE
  8
0
 10
136.8
 20
184.5
 11
136.786
 21
184.274
  0
LINE
  8
0
 10
136.786
 20
184.274
 11
136.743
 21
184.052
  0
LINE
  8
0
 10
136.743
 20
184.052
 11
136.674
 21
183.837
  0
LINE
  8
0
 10
136.674
 20
183.837
 11
136.577
 21
183.633
  0
LINE
  8
0
 10
136.577
 20
183.633
 11
136.456
 21
183.442
  0
LINE
  8
0
 10
136.456
 20
183.442
 11
136.312
 21
183.268
  0
LINE
  8
0
 10
136.312
 20
183.268
 11
136.147
 21
183.113
  0
LINE
  8
0
 10
136.147
 20
183.113
 11
135.964
 21
182.98
  0
LINE
  8
0
 10
135.964
 20
182.98
 11
135.766
 21
182.871
  0
LINE
  8
0
 10
135.766
 20
182.871
 11
135.556
 21
182.788
  0
LINE
  8
0
 10
135.556
 20
182.788
 11
135.337
 21
182.732
  0
LINE
  8
0
 10
135.337
 20
182.732
 11
135.113
 21
182.704
  0
LINE
  8
0
 10
135.113
 20
182.704
 11
134.887
 21
182.704
  0
LINE
  8
0
 10
-135.113
 20
182.704
 11
-135.337
 21
182.732
  0
LINE
  8
0
 10
-135.337
 20
182.732
 11
-135.556
 21
182.788
  0
LINE
  8
0
 10
-135.556
 20
182.788
 11
-135.766
 21
182.871
  0
LINE
  8
0
 10
-135.766
 20
182.871
 11
-135.964
 21
182.98
  0
LINE
  8
0
 10
-135.964
 20
182.98
 11
-136.147
 21
183.113
  0
LINE
  8
0
 10
-136.147
 20
183.113
 11
-136.312
 21
183.268
  0
LINE
  8
0
 10
-136.312
 20
183.268
 11
-136.456
 21
183.442
  0
LINE
  8
0
 10
-136.456
 20
183.442
 11
-136.577
 21
183.633
  0
LINE
  8
0
 10
-136.577
 20
183.633
 11
-136.674
 21
183.837
  0
LINE
  8
0
 10
-136.674
 20
183.837
 11
-136.743
 21
184.052
  0
LINE
  8
0
 10
-136.743
 20
184.052
 11
-136.786
 21
184.274
  0
LINE
  8
0
 10
-136.786
 20
184.274
 11
-136.8
 21
184.5
  0
LINE
  8
0
 10
-136.8
 20
184.5
 11
-136.786
 21
184.726
  0
LINE
  8
0
 10
-136.786
 20
184.726
 11
-136.743
 21
184.948
  0
LINE
  8
0
 10
-136.743
 20
184.948
 11
-136.674
 21
185.163
  0
LINE
  8
0
 10
-136.674
 20
185.163
 11
-136.577
 21
185.367
  0
LINE
  8
0
 10
-136.577
 20
185.367
 11
-136.456
 21
185.558
  0
LINE
  8
0
 10
-136.456
 20
185.558
 11
-136.312
 21
185.732
  0
LINE
  8
0
 10
-136.312
 20
185.732
 11
-136.147
 21
185.887
  0
LINE
  8
0
 10
-136.147
 20
185.887
 11
-135.964
 21
186.02
  0
LINE
  8
0
 10
-135.964
 20
186.02
 11
-135.766
 21
186.129
  0
LINE
  8
0
 10
-135.766
 20
186.129
 11
-135.556
 21
186.212
  0
LINE
  8
0
 10
-135.556
 20
186.212
 11
-135.337
 21
186.268
  0
LINE
  8
0
 10
-135.337
 20
186.268
 11
-135.113
 21
186.296
  0
LINE
  8
0
 10
-135.113
 20
186.296
 11
-134.887
 21
186.296
  0
LINE
  8
0
 10
-134.887
 20
186.296
 11
-134.663
 21
186.268
  0
LINE
  8
0
 10
-134.663
 20
186.268
 11
-134.444
 21
186.212
  0
LINE
  8
0
 10
-134.444
 20
186.212
 11
-134.234
 21
186.129
  0
LINE
  8
0
 10
-134.234
 20
186.129
 11
-134.036
 21
186.02
  0
LINE
  8
0
 10
-134.036
 20
186.02
 11
-133.853
 21
185.887
  0
LINE
  8
0
 10
-133.853
 20
185.887
 11
-133.688
 21
185.732
  0
LINE
  8
0
 10
-133.688
 20
185.732
 11
-133.544
 21
185.558
  0
LINE
  8
0
 10
-133.544
 20
185.558
 11
-133.423
 21
185.367
  0
LINE
  8
0
 10
-133.423
 20
185.367
 11
-133.326
 21
185.163
  0
LINE
  8
0
 10
-133.326
 20
185.163
 11
-133.257
 21
184.948
  0
LINE
  8
0
 10
-133.257
 20
184.948
 11
-133.214
 21
184.726
  0
LINE
  8
0
 10
-133.214
 20
184.726
 11
-133.2
 21
184.5
  0
LINE
  8
0
 10
-133.2
 20
184.5
 11
-133.214
 21
184.274
  0
LINE
  8
0
 10
-133.214
 20
184.274
 11
-133.257
 21
184.052
  0
LINE
  8
0
 10
-133.257
 20
184.052
 11
-133.326
 21
183.837
  0
LINE
  8
0
 10
-133.326
 20
183.837
 11
-133.423
 21
183.633
  0
LINE
  8
0
 10
-133.423
 20
183.633
 11
-133.544
 21
183.442
  0
LINE
  8
0
 10
-133.544
 20
183.442
 11
-133.688
 21
183.268
  0
LINE
  8
0
 10
-133.688
 20
183.268
 11
-133.853
 21
183.113
  0
LINE
  8
0
 10
-133.853
 20
183.113
 11
-134.036
 21
182.98
  0
LINE
  8
0
 10
-134.036
 20
182.98
 11
-134.234
 21
182.871
  0
LINE
  8
0
 10
-134.234
 20
182.871
 11
-134.444
 21
182.788
  0
LINE
  8
0
 10
-134.444
 20
182.788
 11
-134.663
 21
182.732
  0
LINE
  8
0
 10
-134.663
 20
182.732
 11
-134.887
 21
182.704
  0
LINE
  8
0
 10
-134.887
 20
182.704
 11
-135.113
 21
182.704
  0
ENDSEC
  0
SECTION
  2
OBJECTS
  0
DICTIONARY
  0
ENDSEC
  0
EOF
