  0
SECTION
  2
BLOCKS
  0
ENDSEC
  0
SECTION
  2
ENTITIES
  0
LINE
  8
0
 10
115.937
 20
1621.59
 11
116.545
 21
1621.74
  0
LINE
  8
0
 10
116.545
 20
1621.74
 11
117.129
 21
1621.98
  0
LINE
  8
0
 10
117.129
 20
1621.98
 11
117.679
 21
1622.28
  0
LINE
  8
0
 10
117.679
 20
1622.28
 11
118.187
 21
1622.65
  0
LINE
  8
0
 10
118.187
 20
1622.65
 11
118.645
 21
1623.08
  0
LINE
  8
0
 10
118.645
 20
1623.08
 11
119.045
 21
1623.56
  0
LINE
  8
0
 10
119.045
 20
1623.56
 11
119.382
 21
1624.09
  0
LINE
  8
0
 10
119.382
 20
1624.09
 11
119.649
 21
1624.66
  0
LINE
  8
0
 10
119.649
 20
1624.66
 11
119.843
 21
1625.26
  0
LINE
  8
0
 10
119.843
 20
1625.26
 11
119.961
 21
1625.87
  0
LINE
  8
0
 10
119.961
 20
1625.87
 11
120
 21
1626.5
  0
LINE
  8
0
 10
120
 20
1626.5
 11
120
 21
1901.5
  0
LINE
  8
0
 10
120
 20
1901.5
 11
119.961
 21
1902.13
  0
LINE
  8
0
 10
119.961
 20
1902.13
 11
119.843
 21
1902.74
  0
LINE
  8
0
 10
119.843
 20
1902.74
 11
119.649
 21
1903.34
  0
LINE
  8
0
 10
119.649
 20
1903.34
 11
119.382
 21
1903.91
  0
LINE
  8
0
 10
119.382
 20
1903.91
 11
119.045
 21
1904.44
  0
LINE
  8
0
 10
119.045
 20
1904.44
 11
118.645
 21
1904.92
  0
LINE
  8
0
 10
118.645
 20
1904.92
 11
118.187
 21
1905.35
  0
LINE
  8
0
 10
118.187
 20
1905.35
 11
117.679
 21
1905.72
  0
LINE
  8
0
 10
117.679
 20
1905.72
 11
117.129
 21
1906.02
  0
LINE
  8
0
 10
117.129
 20
1906.02
 11
116.545
 21
1906.26
  0
LINE
  8
0
 10
116.545
 20
1906.26
 11
115.937
 21
1906.41
  0
LINE
  8
0
 10
115.937
 20
1906.41
 11
115.314
 21
1906.49
  0
LINE
  8
0
 10
115.314
 20
1906.49
 11
-115.314
 21
1906.49
  0
LINE
  8
0
 10
-115.314
 20
1906.49
 11
-115.937
 21
1906.41
  0
LINE
  8
0
 10
-115.937
 20
1906.41
 11
-116.545
 21
1906.26
  0
LINE
  8
0
 10
-116.545
 20
1906.26
 11
-117.129
 21
1906.02
  0
LINE
  8
0
 10
-117.129
 20
1906.02
 11
-117.679
 21
1905.72
  0
LINE
  8
0
 10
-117.679
 20
1905.72
 11
-118.187
 21
1905.35
  0
LINE
  8
0
 10
-118.187
 20
1905.35
 11
-118.645
 21
1904.92
  0
LINE
  8
0
 10
-118.645
 20
1904.92
 11
-119.045
 21
1904.44
  0
LINE
  8
0
 10
-119.045
 20
1904.44
 11
-119.382
 21
1903.91
  0
LINE
  8
0
 10
-119.382
 20
1903.91
 11
-119.649
 21
1903.34
  0
LINE
  8
0
 10
-119.649
 20
1903.34
 11
-119.843
 21
1902.74
  0
LINE
  8
0
 10
-119.843
 20
1902.74
 11
-119.961
 21
1902.13
  0
LINE
  8
0
 10
-119.961
 20
1902.13
 11
-120
 21
1901.5
  0
LINE
  8
0
 10
-120
 20
1901.5
 11
-120
 21
1626.5
  0
LINE
  8
0
 10
-120
 20
1626.5
 11
-119.961
 21
1625.87
  0
LINE
  8
0
 10
-119.961
 20
1625.87
 11
-119.843
 21
1625.26
  0
LINE
  8
0
 10
-119.843
 20
1625.26
 11
-119.649
 21
1624.66
  0
LINE
  8
0
 10
-119.649
 20
1624.66
 11
-119.382
 21
1624.09
  0
LINE
  8
0
 10
-119.382
 20
1624.09
 11
-119.045
 21
1623.56
  0
LINE
  8
0
 10
-119.045
 20
1623.56
 11
-118.645
 21
1623.08
  0
LINE
  8
0
 10
-118.645
 20
1623.08
 11
-118.187
 21
1622.65
  0
LINE
  8
0
 10
-118.187
 20
1622.65
 11
-117.679
 21
1622.28
  0
LINE
  8
0
 10
-117.679
 20
1622.28
 11
-117.129
 21
1621.98
  0
LINE
  8
0
 10
-117.129
 20
1621.98
 11
-116.545
 21
1621.74
  0
LINE
  8
0
 10
-116.545
 20
1621.74
 11
-115.937
 21
1621.59
  0
LINE
  8
0
 10
-115.937
 20
1621.59
 11
-115.314
 21
1621.51
  0
LINE
  8
0
 10
-115.314
 20
1621.51
 11
115.314
 21
1621.51
  0
LINE
  8
0
 10
115.314
 20
1621.51
 11
115.937
 21
1621.59
  0
LINE
  8
0
 10
-114.751
 20
1623.01
 11
-115.25
 21
1623.07
  0
LINE
  8
0
 10
-115.25
 20
1623.07
 11
-115.736
 21
1623.2
  0
LINE
  8
0
 10
-115.736
 20
1623.2
 11
-116.203
 21
1623.38
  0
LINE
  8
0
 10
-116.203
 20
1623.38
 11
-116.643
 21
1623.62
  0
LINE
  8
0
 10
-116.643
 20
1623.62
 11
-117.05
 21
1623.92
  0
LINE
  8
0
 10
-117.05
 20
1623.92
 11
-117.416
 21
1624.26
  0
LINE
  8
0
 10
-117.416
 20
1624.26
 11
-117.736
 21
1624.65
  0
LINE
  8
0
 10
-117.736
 20
1624.65
 11
-118.005
 21
1625.07
  0
LINE
  8
0
 10
-118.005
 20
1625.07
 11
-118.219
 21
1625.53
  0
LINE
  8
0
 10
-118.219
 20
1625.53
 11
-118.374
 21
1626.01
  0
LINE
  8
0
 10
-118.374
 20
1626.01
 11
-118.468
 21
1626.5
  0
LINE
  8
0
 10
-118.468
 20
1626.5
 11
-118.5
 21
1627
  0
LINE
  8
0
 10
-118.5
 20
1627
 11
-118.5
 21
1901
  0
LINE
  8
0
 10
-118.5
 20
1901
 11
-118.468
 21
1901.5
  0
LINE
  8
0
 10
-118.468
 20
1901.5
 11
-118.374
 21
1901.99
  0
LINE
  8
0
 10
-118.374
 20
1901.99
 11
-118.219
 21
1902.47
  0
LINE
  8
0
 10
-118.219
 20
1902.47
 11
-118.005
 21
1902.93
  0
LINE
  8
0
 10
-118.005
 20
1902.93
 11
-117.736
 21
1903.35
  0
LINE
  8
0
 10
-117.736
 20
1903.35
 11
-117.416
 21
1903.74
  0
LINE
  8
0
 10
-117.416
 20
1903.74
 11
-117.05
 21
1904.08
  0
LINE
  8
0
 10
-117.05
 20
1904.08
 11
-116.643
 21
1904.38
  0
LINE
  8
0
 10
-116.643
 20
1904.38
 11
-116.203
 21
1904.62
  0
LINE
  8
0
 10
-116.203
 20
1904.62
 11
-115.736
 21
1904.8
  0
LINE
  8
0
 10
-115.736
 20
1904.8
 11
-115.25
 21
1904.93
  0
LINE
  8
0
 10
-115.25
 20
1904.93
 11
-114.751
 21
1904.99
  0
LINE
  8
0
 10
-114.751
 20
1904.99
 11
114.751
 21
1904.99
  0
LINE
  8
0
 10
114.751
 20
1904.99
 11
115.25
 21
1904.93
  0
LINE
  8
0
 10
115.25
 20
1904.93
 11
115.736
 21
1904.8
  0
LINE
  8
0
 10
115.736
 20
1904.8
 11
116.203
 21
1904.62
  0
LINE
  8
0
 10
116.203
 20
1904.62
 11
116.643
 21
1904.38
  0
LINE
  8
0
 10
116.643
 20
1904.38
 11
117.05
 21
1904.08
  0
LINE
  8
0
 10
117.05
 20
1904.08
 11
117.416
 21
1903.74
  0
LINE
  8
0
 10
117.416
 20
1903.74
 11
117.736
 21
1903.35
  0
LINE
  8
0
 10
117.736
 20
1903.35
 11
118.005
 21
1902.93
  0
LINE
  8
0
 10
118.005
 20
1902.93
 11
118.219
 21
1902.47
  0
LINE
  8
0
 10
118.219
 20
1902.47
 11
118.374
 21
1901.99
  0
LINE
  8
0
 10
118.374
 20
1901.99
 11
118.468
 21
1901.5
  0
LINE
  8
0
 10
118.468
 20
1901.5
 11
118.5
 21
1901
  0
LINE
  8
0
 10
118.5
 20
1901
 11
118.5
 21
1627
  0
LINE
  8
0
 10
118.5
 20
1627
 11
118.468
 21
1626.5
  0
LINE
  8
0
 10
118.468
 20
1626.5
 11
118.374
 21
1626.01
  0
LINE
  8
0
 10
118.374
 20
1626.01
 11
118.219
 21
1625.53
  0
LINE
  8
0
 10
118.219
 20
1625.53
 11
118.005
 21
1625.07
  0
LINE
  8
0
 10
118.005
 20
1625.07
 11
117.736
 21
1624.65
  0
LINE
  8
0
 10
117.736
 20
1624.65
 11
117.416
 21
1624.26
  0
LINE
  8
0
 10
117.416
 20
1624.26
 11
117.05
 21
1623.92
  0
LINE
  8
0
 10
117.05
 20
1623.92
 11
116.643
 21
1623.62
  0
LINE
  8
0
 10
116.643
 20
1623.62
 11
116.203
 21
1623.38
  0
LINE
  8
0
 10
116.203
 20
1623.38
 11
115.736
 21
1623.2
  0
LINE
  8
0
 10
115.736
 20
1623.2
 11
115.25
 21
1623.07
  0
LINE
  8
0
 10
115.25
 20
1623.07
 11
114.751
 21
1623.01
  0
LINE
  8
0
 10
114.751
 20
1623.01
 11
-114.751
 21
1623.01
  0
LINE
  8
0
 10
115.937
 20
1327.59
 11
116.545
 21
1327.74
  0
LINE
  8
0
 10
116.545
 20
1327.74
 11
117.129
 21
1327.98
  0
LINE
  8
0
 10
117.129
 20
1327.98
 11
117.679
 21
1328.28
  0
LINE
  8
0
 10
117.679
 20
1328.28
 11
118.187
 21
1328.65
  0
LINE
  8
0
 10
118.187
 20
1328.65
 11
118.645
 21
1329.08
  0
LINE
  8
0
 10
118.645
 20
1329.08
 11
119.045
 21
1329.56
  0
LINE
  8
0
 10
119.045
 20
1329.56
 11
119.382
 21
1330.09
  0
LINE
  8
0
 10
119.382
 20
1330.09
 11
119.649
 21
1330.66
  0
LINE
  8
0
 10
119.649
 20
1330.66
 11
119.843
 21
1331.26
  0
LINE
  8
0
 10
119.843
 20
1331.26
 11
119.961
 21
1331.87
  0
LINE
  8
0
 10
119.961
 20
1331.87
 11
120
 21
1332.5
  0
LINE
  8
0
 10
120
 20
1332.5
 11
120
 21
1607.5
  0
LINE
  8
0
 10
120
 20
1607.5
 11
119.961
 21
1608.13
  0
LINE
  8
0
 10
119.961
 20
1608.13
 11
119.843
 21
1608.74
  0
LINE
  8
0
 10
119.843
 20
1608.74
 11
119.649
 21
1609.34
  0
LINE
  8
0
 10
119.649
 20
1609.34
 11
119.382
 21
1609.91
  0
LINE
  8
0
 10
119.382
 20
1609.91
 11
119.045
 21
1610.44
  0
LINE
  8
0
 10
119.045
 20
1610.44
 11
118.645
 21
1610.92
  0
LINE
  8
0
 10
118.645
 20
1610.92
 11
118.187
 21
1611.35
  0
LINE
  8
0
 10
118.187
 20
1611.35
 11
117.679
 21
1611.72
  0
LINE
  8
0
 10
117.679
 20
1611.72
 11
117.129
 21
1612.02
  0
LINE
  8
0
 10
117.129
 20
1612.02
 11
116.545
 21
1612.26
  0
LINE
  8
0
 10
116.545
 20
1612.26
 11
115.937
 21
1612.41
  0
LINE
  8
0
 10
115.937
 20
1612.41
 11
115.314
 21
1612.49
  0
LINE
  8
0
 10
115.314
 20
1612.49
 11
-115.314
 21
1612.49
  0
LINE
  8
0
 10
-115.314
 20
1612.49
 11
-115.937
 21
1612.41
  0
LINE
  8
0
 10
-115.937
 20
1612.41
 11
-116.545
 21
1612.26
  0
LINE
  8
0
 10
-116.545
 20
1612.26
 11
-117.129
 21
1612.02
  0
LINE
  8
0
 10
-117.129
 20
1612.02
 11
-117.679
 21
1611.72
  0
LINE
  8
0
 10
-117.679
 20
1611.72
 11
-118.187
 21
1611.35
  0
LINE
  8
0
 10
-118.187
 20
1611.35
 11
-118.645
 21
1610.92
  0
LINE
  8
0
 10
-118.645
 20
1610.92
 11
-119.045
 21
1610.44
  0
LINE
  8
0
 10
-119.045
 20
1610.44
 11
-119.382
 21
1609.91
  0
LINE
  8
0
 10
-119.382
 20
1609.91
 11
-119.649
 21
1609.34
  0
LINE
  8
0
 10
-119.649
 20
1609.34
 11
-119.843
 21
1608.74
  0
LINE
  8
0
 10
-119.843
 20
1608.74
 11
-119.961
 21
1608.13
  0
LINE
  8
0
 10
-119.961
 20
1608.13
 11
-120
 21
1607.5
  0
LINE
  8
0
 10
-120
 20
1607.5
 11
-120
 21
1332.5
  0
LINE
  8
0
 10
-120
 20
1332.5
 11
-119.961
 21
1331.87
  0
LINE
  8
0
 10
-119.961
 20
1331.87
 11
-119.843
 21
1331.26
  0
LINE
  8
0
 10
-119.843
 20
1331.26
 11
-119.649
 21
1330.66
  0
LINE
  8
0
 10
-119.649
 20
1330.66
 11
-119.382
 21
1330.09
  0
LINE
  8
0
 10
-119.382
 20
1330.09
 11
-119.045
 21
1329.56
  0
LINE
  8
0
 10
-119.045
 20
1329.56
 11
-118.645
 21
1329.08
  0
LINE
  8
0
 10
-118.645
 20
1329.08
 11
-118.187
 21
1328.65
  0
LINE
  8
0
 10
-118.187
 20
1328.65
 11
-117.679
 21
1328.28
  0
LINE
  8
0
 10
-117.679
 20
1328.28
 11
-117.129
 21
1327.98
  0
LINE
  8
0
 10
-117.129
 20
1327.98
 11
-116.545
 21
1327.74
  0
LINE
  8
0
 10
-116.545
 20
1327.74
 11
-115.937
 21
1327.59
  0
LINE
  8
0
 10
-115.937
 20
1327.59
 11
-115.314
 21
1327.51
  0
LINE
  8
0
 10
-115.314
 20
1327.51
 11
115.314
 21
1327.51
  0
LINE
  8
0
 10
115.314
 20
1327.51
 11
115.937
 21
1327.59
  0
LINE
  8
0
 10
-114.743
 20
1329.14
 11
-115.226
 21
1329.2
  0
LINE
  8
0
 10
-115.226
 20
1329.2
 11
-115.697
 21
1329.32
  0
LINE
  8
0
 10
-115.697
 20
1329.32
 11
-116.149
 21
1329.5
  0
LINE
  8
0
 10
-116.149
 20
1329.5
 11
-116.575
 21
1329.73
  0
LINE
  8
0
 10
-116.575
 20
1329.73
 11
-116.969
 21
1330.02
  0
LINE
  8
0
 10
-116.969
 20
1330.02
 11
-117.323
 21
1330.35
  0
LINE
  8
0
 10
-117.323
 20
1330.35
 11
-117.633
 21
1330.72
  0
LINE
  8
0
 10
-117.633
 20
1330.72
 11
-117.894
 21
1331.13
  0
LINE
  8
0
 10
-117.894
 20
1331.13
 11
-118.101
 21
1331.57
  0
LINE
  8
0
 10
-118.101
 20
1331.57
 11
-118.251
 21
1332.04
  0
LINE
  8
0
 10
-118.251
 20
1332.04
 11
-118.342
 21
1332.51
  0
LINE
  8
0
 10
-118.342
 20
1332.51
 11
-118.373
 21
1333
  0
LINE
  8
0
 10
-118.373
 20
1333
 11
-118.373
 21
1607
  0
LINE
  8
0
 10
-118.373
 20
1607
 11
-118.342
 21
1607.49
  0
LINE
  8
0
 10
-118.342
 20
1607.49
 11
-118.251
 21
1607.96
  0
LINE
  8
0
 10
-118.251
 20
1607.96
 11
-118.101
 21
1608.43
  0
LINE
  8
0
 10
-118.101
 20
1608.43
 11
-117.894
 21
1608.87
  0
LINE
  8
0
 10
-117.894
 20
1608.87
 11
-117.633
 21
1609.28
  0
LINE
  8
0
 10
-117.633
 20
1609.28
 11
-117.323
 21
1609.65
  0
LINE
  8
0
 10
-117.323
 20
1609.65
 11
-116.969
 21
1609.98
  0
LINE
  8
0
 10
-116.969
 20
1609.98
 11
-116.575
 21
1610.27
  0
LINE
  8
0
 10
-116.575
 20
1610.27
 11
-116.149
 21
1610.5
  0
LINE
  8
0
 10
-116.149
 20
1610.5
 11
-115.697
 21
1610.68
  0
LINE
  8
0
 10
-115.697
 20
1610.68
 11
-115.226
 21
1610.8
  0
LINE
  8
0
 10
-115.226
 20
1610.8
 11
-114.743
 21
1610.86
  0
LINE
  8
0
 10
-114.743
 20
1610.86
 11
114.743
 21
1610.86
  0
LINE
  8
0
 10
114.743
 20
1610.86
 11
115.226
 21
1610.8
  0
LINE
  8
0
 10
115.226
 20
1610.8
 11
115.697
 21
1610.68
  0
LINE
  8
0
 10
115.697
 20
1610.68
 11
116.149
 21
1610.5
  0
LINE
  8
0
 10
116.149
 20
1610.5
 11
116.575
 21
1610.27
  0
LINE
  8
0
 10
116.575
 20
1610.27
 11
116.969
 21
1609.98
  0
LINE
  8
0
 10
116.969
 20
1609.98
 11
117.323
 21
1609.65
  0
LINE
  8
0
 10
117.323
 20
1609.65
 11
117.633
 21
1609.28
  0
LINE
  8
0
 10
117.633
 20
1609.28
 11
117.894
 21
1608.87
  0
LINE
  8
0
 10
117.894
 20
1608.87
 11
118.101
 21
1608.43
  0
LINE
  8
0
 10
118.101
 20
1608.43
 11
118.251
 21
1607.96
  0
LINE
  8
0
 10
118.251
 20
1607.96
 11
118.342
 21
1607.49
  0
LINE
  8
0
 10
118.342
 20
1607.49
 11
118.373
 21
1607
  0
LINE
  8
0
 10
118.373
 20
1607
 11
118.373
 21
1333
  0
LINE
  8
0
 10
118.373
 20
1333
 11
118.342
 21
1332.51
  0
LINE
  8
0
 10
118.342
 20
1332.51
 11
118.251
 21
1332.04
  0
LINE
  8
0
 10
118.251
 20
1332.04
 11
118.101
 21
1331.57
  0
LINE
  8
0
 10
118.101
 20
1331.57
 11
117.894
 21
1331.13
  0
LINE
  8
0
 10
117.894
 20
1331.13
 11
117.633
 21
1330.72
  0
LINE
  8
0
 10
117.633
 20
1330.72
 11
117.323
 21
1330.35
  0
LINE
  8
0
 10
117.323
 20
1330.35
 11
116.969
 21
1330.02
  0
LINE
  8
0
 10
116.969
 20
1330.02
 11
116.575
 21
1329.73
  0
LINE
  8
0
 10
116.575
 20
1329.73
 11
116.149
 21
1329.5
  0
LINE
  8
0
 10
116.149
 20
1329.5
 11
115.697
 21
1329.32
  0
LINE
  8
0
 10
115.697
 20
1329.32
 11
115.226
 21
1329.2
  0
LINE
  8
0
 10
115.226
 20
1329.2
 11
114.743
 21
1329.14
  0
LINE
  8
0
 10
114.743
 20
1329.14
 11
-114.743
 21
1329.14
  0
LINE
  8
0
 10
115.937
 20
1033.59
 11
116.545
 21
1033.74
  0
LINE
  8
0
 10
116.545
 20
1033.74
 11
117.129
 21
1033.98
  0
LINE
  8
0
 10
117.129
 20
1033.98
 11
117.679
 21
1034.28
  0
LINE
  8
0
 10
117.679
 20
1034.28
 11
118.187
 21
1034.65
  0
LINE
  8
0
 10
118.187
 20
1034.65
 11
118.645
 21
1035.08
  0
LINE
  8
0
 10
118.645
 20
1035.08
 11
119.045
 21
1035.56
  0
LINE
  8
0
 10
119.045
 20
1035.56
 11
119.382
 21
1036.09
  0
LINE
  8
0
 10
119.382
 20
1036.09
 11
119.649
 21
1036.66
  0
LINE
  8
0
 10
119.649
 20
1036.66
 11
119.843
 21
1037.26
  0
LINE
  8
0
 10
119.843
 20
1037.26
 11
119.961
 21
1037.87
  0
LINE
  8
0
 10
119.961
 20
1037.87
 11
120
 21
1038.5
  0
LINE
  8
0
 10
120
 20
1038.5
 11
120
 21
1313.5
  0
LINE
  8
0
 10
120
 20
1313.5
 11
119.961
 21
1314.13
  0
LINE
  8
0
 10
119.961
 20
1314.13
 11
119.843
 21
1314.74
  0
LINE
  8
0
 10
119.843
 20
1314.74
 11
119.649
 21
1315.34
  0
LINE
  8
0
 10
119.649
 20
1315.34
 11
119.382
 21
1315.91
  0
LINE
  8
0
 10
119.382
 20
1315.91
 11
119.045
 21
1316.44
  0
LINE
  8
0
 10
119.045
 20
1316.44
 11
118.645
 21
1316.92
  0
LINE
  8
0
 10
118.645
 20
1316.92
 11
118.187
 21
1317.35
  0
LINE
  8
0
 10
118.187
 20
1317.35
 11
117.679
 21
1317.72
  0
LINE
  8
0
 10
117.679
 20
1317.72
 11
117.129
 21
1318.02
  0
LINE
  8
0
 10
117.129
 20
1318.02
 11
116.545
 21
1318.26
  0
LINE
  8
0
 10
116.545
 20
1318.26
 11
115.937
 21
1318.41
  0
LINE
  8
0
 10
115.937
 20
1318.41
 11
115.314
 21
1318.49
  0
LINE
  8
0
 10
115.314
 20
1318.49
 11
-115.314
 21
1318.49
  0
LINE
  8
0
 10
-115.314
 20
1318.49
 11
-115.937
 21
1318.41
  0
LINE
  8
0
 10
-115.937
 20
1318.41
 11
-116.545
 21
1318.26
  0
LINE
  8
0
 10
-116.545
 20
1318.26
 11
-117.129
 21
1318.02
  0
LINE
  8
0
 10
-117.129
 20
1318.02
 11
-117.679
 21
1317.72
  0
LINE
  8
0
 10
-117.679
 20
1317.72
 11
-118.187
 21
1317.35
  0
LINE
  8
0
 10
-118.187
 20
1317.35
 11
-118.645
 21
1316.92
  0
LINE
  8
0
 10
-118.645
 20
1316.92
 11
-119.045
 21
1316.44
  0
LINE
  8
0
 10
-119.045
 20
1316.44
 11
-119.382
 21
1315.91
  0
LINE
  8
0
 10
-119.382
 20
1315.91
 11
-119.649
 21
1315.34
  0
LINE
  8
0
 10
-119.649
 20
1315.34
 11
-119.843
 21
1314.74
  0
LINE
  8
0
 10
-119.843
 20
1314.74
 11
-119.961
 21
1314.13
  0
LINE
  8
0
 10
-119.961
 20
1314.13
 11
-120
 21
1313.5
  0
LINE
  8
0
 10
-120
 20
1313.5
 11
-120
 21
1038.5
  0
LINE
  8
0
 10
-120
 20
1038.5
 11
-119.961
 21
1037.87
  0
LINE
  8
0
 10
-119.961
 20
1037.87
 11
-119.843
 21
1037.26
  0
LINE
  8
0
 10
-119.843
 20
1037.26
 11
-119.649
 21
1036.66
  0
LINE
  8
0
 10
-119.649
 20
1036.66
 11
-119.382
 21
1036.09
  0
LINE
  8
0
 10
-119.382
 20
1036.09
 11
-119.045
 21
1035.56
  0
LINE
  8
0
 10
-119.045
 20
1035.56
 11
-118.645
 21
1035.08
  0
LINE
  8
0
 10
-118.645
 20
1035.08
 11
-118.187
 21
1034.65
  0
LINE
  8
0
 10
-118.187
 20
1034.65
 11
-117.679
 21
1034.28
  0
LINE
  8
0
 10
-117.679
 20
1034.28
 11
-117.129
 21
1033.98
  0
LINE
  8
0
 10
-117.129
 20
1033.98
 11
-116.545
 21
1033.74
  0
LINE
  8
0
 10
-116.545
 20
1033.74
 11
-115.937
 21
1033.59
  0
LINE
  8
0
 10
-115.937
 20
1033.59
 11
-115.314
 21
1033.51
  0
LINE
  8
0
 10
-115.314
 20
1033.51
 11
115.314
 21
1033.51
  0
LINE
  8
0
 10
115.314
 20
1033.51
 11
115.937
 21
1033.59
  0
LINE
  8
0
 10
112.349
 20
1308.6
 11
112.05
 21
1308.64
  0
LINE
  8
0
 10
112.05
 20
1308.64
 11
111.758
 21
1308.72
  0
LINE
  8
0
 10
111.758
 20
1308.72
 11
111.478
 21
1308.83
  0
LINE
  8
0
 10
111.478
 20
1308.83
 11
111.214
 21
1308.97
  0
LINE
  8
0
 10
111.214
 20
1308.97
 11
110.97
 21
1309.15
  0
LINE
  8
0
 10
110.97
 20
1309.15
 11
110.75
 21
1309.36
  0
LINE
  8
0
 10
110.75
 20
1309.36
 11
110.558
 21
1309.59
  0
LINE
  8
0
 10
110.558
 20
1309.59
 11
110.397
 21
1309.84
  0
LINE
  8
0
 10
110.397
 20
1309.84
 11
110.269
 21
1310.12
  0
LINE
  8
0
 10
110.269
 20
1310.12
 11
110.175
 21
1310.4
  0
LINE
  8
0
 10
110.175
 20
1310.4
 11
110.119
 21
1310.7
  0
LINE
  8
0
 10
110.119
 20
1310.7
 11
110.1
 21
1311
  0
LINE
  8
0
 10
110.1
 20
1311
 11
110.119
 21
1311.3
  0
LINE
  8
0
 10
110.119
 20
1311.3
 11
110.175
 21
1311.6
  0
LINE
  8
0
 10
110.175
 20
1311.6
 11
110.269
 21
1311.88
  0
LINE
  8
0
 10
110.269
 20
1311.88
 11
110.397
 21
1312.16
  0
LINE
  8
0
 10
110.397
 20
1312.16
 11
110.558
 21
1312.41
  0
LINE
  8
0
 10
110.558
 20
1312.41
 11
110.75
 21
1312.64
  0
LINE
  8
0
 10
110.75
 20
1312.64
 11
110.97
 21
1312.85
  0
LINE
  8
0
 10
110.97
 20
1312.85
 11
111.214
 21
1313.03
  0
LINE
  8
0
 10
111.214
 20
1313.03
 11
111.478
 21
1313.17
  0
LINE
  8
0
 10
111.478
 20
1313.17
 11
111.758
 21
1313.28
  0
LINE
  8
0
 10
111.758
 20
1313.28
 11
112.05
 21
1313.36
  0
LINE
  8
0
 10
112.05
 20
1313.36
 11
112.349
 21
1313.4
  0
LINE
  8
0
 10
112.349
 20
1313.4
 11
112.651
 21
1313.4
  0
LINE
  8
0
 10
112.651
 20
1313.4
 11
112.95
 21
1313.36
  0
LINE
  8
0
 10
112.95
 20
1313.36
 11
113.242
 21
1313.28
  0
LINE
  8
0
 10
113.242
 20
1313.28
 11
113.522
 21
1313.17
  0
LINE
  8
0
 10
113.522
 20
1313.17
 11
113.786
 21
1313.03
  0
LINE
  8
0
 10
113.786
 20
1313.03
 11
114.03
 21
1312.85
  0
LINE
  8
0
 10
114.03
 20
1312.85
 11
114.25
 21
1312.64
  0
LINE
  8
0
 10
114.25
 20
1312.64
 11
114.442
 21
1312.41
  0
LINE
  8
0
 10
114.442
 20
1312.41
 11
114.603
 21
1312.16
  0
LINE
  8
0
 10
114.603
 20
1312.16
 11
114.731
 21
1311.88
  0
LINE
  8
0
 10
114.731
 20
1311.88
 11
114.825
 21
1311.6
  0
LINE
  8
0
 10
114.825
 20
1311.6
 11
114.881
 21
1311.3
  0
LINE
  8
0
 10
114.881
 20
1311.3
 11
114.9
 21
1311
  0
LINE
  8
0
 10
114.9
 20
1311
 11
114.881
 21
1310.7
  0
LINE
  8
0
 10
114.881
 20
1310.7
 11
114.825
 21
1310.4
  0
LINE
  8
0
 10
114.825
 20
1310.4
 11
114.731
 21
1310.12
  0
LINE
  8
0
 10
114.731
 20
1310.12
 11
114.603
 21
1309.84
  0
LINE
  8
0
 10
114.603
 20
1309.84
 11
114.442
 21
1309.59
  0
LINE
  8
0
 10
114.442
 20
1309.59
 11
114.25
 21
1309.36
  0
LINE
  8
0
 10
114.25
 20
1309.36
 11
114.03
 21
1309.15
  0
LINE
  8
0
 10
114.03
 20
1309.15
 11
113.786
 21
1308.97
  0
LINE
  8
0
 10
113.786
 20
1308.97
 11
113.522
 21
1308.83
  0
LINE
  8
0
 10
113.522
 20
1308.83
 11
113.242
 21
1308.72
  0
LINE
  8
0
 10
113.242
 20
1308.72
 11
112.95
 21
1308.64
  0
LINE
  8
0
 10
112.95
 20
1308.64
 11
112.651
 21
1308.6
  0
LINE
  8
0
 10
112.651
 20
1308.6
 11
112.349
 21
1308.6
  0
LINE
  8
0
 10
-112.651
 20
1308.6
 11
-112.95
 21
1308.64
  0
LINE
  8
0
 10
-112.95
 20
1308.64
 11
-113.242
 21
1308.72
  0
LINE
  8
0
 10
-113.242
 20
1308.72
 11
-113.522
 21
1308.83
  0
LINE
  8
0
 10
-113.522
 20
1308.83
 11
-113.786
 21
1308.97
  0
LINE
  8
0
 10
-113.786
 20
1308.97
 11
-114.03
 21
1309.15
  0
LINE
  8
0
 10
-114.03
 20
1309.15
 11
-114.25
 21
1309.36
  0
LINE
  8
0
 10
-114.25
 20
1309.36
 11
-114.442
 21
1309.59
  0
LINE
  8
0
 10
-114.442
 20
1309.59
 11
-114.603
 21
1309.84
  0
LINE
  8
0
 10
-114.603
 20
1309.84
 11
-114.731
 21
1310.12
  0
LINE
  8
0
 10
-114.731
 20
1310.12
 11
-114.825
 21
1310.4
  0
LINE
  8
0
 10
-114.825
 20
1310.4
 11
-114.881
 21
1310.7
  0
LINE
  8
0
 10
-114.881
 20
1310.7
 11
-114.9
 21
1311
  0
LINE
  8
0
 10
-114.9
 20
1311
 11
-114.881
 21
1311.3
  0
LINE
  8
0
 10
-114.881
 20
1311.3
 11
-114.825
 21
1311.6
  0
LINE
  8
0
 10
-114.825
 20
1311.6
 11
-114.731
 21
1311.88
  0
LINE
  8
0
 10
-114.731
 20
1311.88
 11
-114.603
 21
1312.16
  0
LINE
  8
0
 10
-114.603
 20
1312.16
 11
-114.442
 21
1312.41
  0
LINE
  8
0
 10
-114.442
 20
1312.41
 11
-114.25
 21
1312.64
  0
LINE
  8
0
 10
-114.25
 20
1312.64
 11
-114.03
 21
1312.85
  0
LINE
  8
0
 10
-114.03
 20
1312.85
 11
-113.786
 21
1313.03
  0
LINE
  8
0
 10
-113.786
 20
1313.03
 11
-113.522
 21
1313.17
  0
LINE
  8
0
 10
-113.522
 20
1313.17
 11
-113.242
 21
1313.28
  0
LINE
  8
0
 10
-113.242
 20
1313.28
 11
-112.95
 21
1313.36
  0
LINE
  8
0
 10
-112.95
 20
1313.36
 11
-112.651
 21
1313.4
  0
LINE
  8
0
 10
-112.651
 20
1313.4
 11
-112.349
 21
1313.4
  0
LINE
  8
0
 10
-112.349
 20
1313.4
 11
-112.05
 21
1313.36
  0
LINE
  8
0
 10
-112.05
 20
1313.36
 11
-111.758
 21
1313.28
  0
LINE
  8
0
 10
-111.758
 20
1313.28
 11
-111.478
 21
1313.17
  0
LINE
  8
0
 10
-111.478
 20
1313.17
 11
-111.214
 21
1313.03
  0
LINE
  8
0
 10
-111.214
 20
1313.03
 11
-110.97
 21
1312.85
  0
LINE
  8
0
 10
-110.97
 20
1312.85
 11
-110.75
 21
1312.64
  0
LINE
  8
0
 10
-110.75
 20
1312.64
 11
-110.558
 21
1312.41
  0
LINE
  8
0
 10
-110.558
 20
1312.41
 11
-110.397
 21
1312.16
  0
LINE
  8
0
 10
-110.397
 20
1312.16
 11
-110.269
 21
1311.88
  0
LINE
  8
0
 10
-110.269
 20
1311.88
 11
-110.175
 21
1311.6
  0
LINE
  8
0
 10
-110.175
 20
1311.6
 11
-110.119
 21
1311.3
  0
LINE
  8
0
 10
-110.119
 20
1311.3
 11
-110.1
 21
1311
  0
LINE
  8
0
 10
-110.1
 20
1311
 11
-110.119
 21
1310.7
  0
LINE
  8
0
 10
-110.119
 20
1310.7
 11
-110.175
 21
1310.4
  0
LINE
  8
0
 10
-110.175
 20
1310.4
 11
-110.269
 21
1310.12
  0
LINE
  8
0
 10
-110.269
 20
1310.12
 11
-110.397
 21
1309.84
  0
LINE
  8
0
 10
-110.397
 20
1309.84
 11
-110.558
 21
1309.59
  0
LINE
  8
0
 10
-110.558
 20
1309.59
 11
-110.75
 21
1309.36
  0
LINE
  8
0
 10
-110.75
 20
1309.36
 11
-110.97
 21
1309.15
  0
LINE
  8
0
 10
-110.97
 20
1309.15
 11
-111.214
 21
1308.97
  0
LINE
  8
0
 10
-111.214
 20
1308.97
 11
-111.478
 21
1308.83
  0
LINE
  8
0
 10
-111.478
 20
1308.83
 11
-111.758
 21
1308.72
  0
LINE
  8
0
 10
-111.758
 20
1308.72
 11
-112.05
 21
1308.64
  0
LINE
  8
0
 10
-112.05
 20
1308.64
 11
-112.349
 21
1308.6
  0
LINE
  8
0
 10
-112.349
 20
1308.6
 11
-112.651
 21
1308.6
  0
LINE
  8
0
 10
112.349
 20
1038.6
 11
112.05
 21
1038.64
  0
LINE
  8
0
 10
112.05
 20
1038.64
 11
111.758
 21
1038.72
  0
LINE
  8
0
 10
111.758
 20
1038.72
 11
111.478
 21
1038.83
  0
LINE
  8
0
 10
111.478
 20
1038.83
 11
111.214
 21
1038.97
  0
LINE
  8
0
 10
111.214
 20
1038.97
 11
110.97
 21
1039.15
  0
LINE
  8
0
 10
110.97
 20
1039.15
 11
110.75
 21
1039.36
  0
LINE
  8
0
 10
110.75
 20
1039.36
 11
110.558
 21
1039.59
  0
LINE
  8
0
 10
110.558
 20
1039.59
 11
110.397
 21
1039.84
  0
LINE
  8
0
 10
110.397
 20
1039.84
 11
110.269
 21
1040.12
  0
LINE
  8
0
 10
110.269
 20
1040.12
 11
110.175
 21
1040.4
  0
LINE
  8
0
 10
110.175
 20
1040.4
 11
110.119
 21
1040.7
  0
LINE
  8
0
 10
110.119
 20
1040.7
 11
110.1
 21
1041
  0
LINE
  8
0
 10
110.1
 20
1041
 11
110.119
 21
1041.3
  0
LINE
  8
0
 10
110.119
 20
1041.3
 11
110.175
 21
1041.6
  0
LINE
  8
0
 10
110.175
 20
1041.6
 11
110.269
 21
1041.88
  0
LINE
  8
0
 10
110.269
 20
1041.88
 11
110.397
 21
1042.16
  0
LINE
  8
0
 10
110.397
 20
1042.16
 11
110.558
 21
1042.41
  0
LINE
  8
0
 10
110.558
 20
1042.41
 11
110.75
 21
1042.64
  0
LINE
  8
0
 10
110.75
 20
1042.64
 11
110.97
 21
1042.85
  0
LINE
  8
0
 10
110.97
 20
1042.85
 11
111.214
 21
1043.03
  0
LINE
  8
0
 10
111.214
 20
1043.03
 11
111.478
 21
1043.17
  0
LINE
  8
0
 10
111.478
 20
1043.17
 11
111.758
 21
1043.28
  0
LINE
  8
0
 10
111.758
 20
1043.28
 11
112.05
 21
1043.36
  0
LINE
  8
0
 10
112.05
 20
1043.36
 11
112.349
 21
1043.4
  0
LINE
  8
0
 10
112.349
 20
1043.4
 11
112.651
 21
1043.4
  0
LINE
  8
0
 10
112.651
 20
1043.4
 11
112.95
 21
1043.36
  0
LINE
  8
0
 10
112.95
 20
1043.36
 11
113.242
 21
1043.28
  0
LINE
  8
0
 10
113.242
 20
1043.28
 11
113.522
 21
1043.17
  0
LINE
  8
0
 10
113.522
 20
1043.17
 11
113.786
 21
1043.03
  0
LINE
  8
0
 10
113.786
 20
1043.03
 11
114.03
 21
1042.85
  0
LINE
  8
0
 10
114.03
 20
1042.85
 11
114.25
 21
1042.64
  0
LINE
  8
0
 10
114.25
 20
1042.64
 11
114.442
 21
1042.41
  0
LINE
  8
0
 10
114.442
 20
1042.41
 11
114.603
 21
1042.16
  0
LINE
  8
0
 10
114.603
 20
1042.16
 11
114.731
 21
1041.88
  0
LINE
  8
0
 10
114.731
 20
1041.88
 11
114.825
 21
1041.6
  0
LINE
  8
0
 10
114.825
 20
1041.6
 11
114.881
 21
1041.3
  0
LINE
  8
0
 10
114.881
 20
1041.3
 11
114.9
 21
1041
  0
LINE
  8
0
 10
114.9
 20
1041
 11
114.881
 21
1040.7
  0
LINE
  8
0
 10
114.881
 20
1040.7
 11
114.825
 21
1040.4
  0
LINE
  8
0
 10
114.825
 20
1040.4
 11
114.731
 21
1040.12
  0
LINE
  8
0
 10
114.731
 20
1040.12
 11
114.603
 21
1039.84
  0
LINE
  8
0
 10
114.603
 20
1039.84
 11
114.442
 21
1039.59
  0
LINE
  8
0
 10
114.442
 20
1039.59
 11
114.25
 21
1039.36
  0
LINE
  8
0
 10
114.25
 20
1039.36
 11
114.03
 21
1039.15
  0
LINE
  8
0
 10
114.03
 20
1039.15
 11
113.786
 21
1038.97
  0
LINE
  8
0
 10
113.786
 20
1038.97
 11
113.522
 21
1038.83
  0
LINE
  8
0
 10
113.522
 20
1038.83
 11
113.242
 21
1038.72
  0
LINE
  8
0
 10
113.242
 20
1038.72
 11
112.95
 21
1038.64
  0
LINE
  8
0
 10
112.95
 20
1038.64
 11
112.651
 21
1038.6
  0
LINE
  8
0
 10
112.651
 20
1038.6
 11
112.349
 21
1038.6
  0
LINE
  8
0
 10
-112.651
 20
1038.6
 11
-112.95
 21
1038.64
  0
LINE
  8
0
 10
-112.95
 20
1038.64
 11
-113.242
 21
1038.72
  0
LINE
  8
0
 10
-113.242
 20
1038.72
 11
-113.522
 21
1038.83
  0
LINE
  8
0
 10
-113.522
 20
1038.83
 11
-113.786
 21
1038.97
  0
LINE
  8
0
 10
-113.786
 20
1038.97
 11
-114.03
 21
1039.15
  0
LINE
  8
0
 10
-114.03
 20
1039.15
 11
-114.25
 21
1039.36
  0
LINE
  8
0
 10
-114.25
 20
1039.36
 11
-114.442
 21
1039.59
  0
LINE
  8
0
 10
-114.442
 20
1039.59
 11
-114.603
 21
1039.84
  0
LINE
  8
0
 10
-114.603
 20
1039.84
 11
-114.731
 21
1040.12
  0
LINE
  8
0
 10
-114.731
 20
1040.12
 11
-114.825
 21
1040.4
  0
LINE
  8
0
 10
-114.825
 20
1040.4
 11
-114.881
 21
1040.7
  0
LINE
  8
0
 10
-114.881
 20
1040.7
 11
-114.9
 21
1041
  0
LINE
  8
0
 10
-114.9
 20
1041
 11
-114.881
 21
1041.3
  0
LINE
  8
0
 10
-114.881
 20
1041.3
 11
-114.825
 21
1041.6
  0
LINE
  8
0
 10
-114.825
 20
1041.6
 11
-114.731
 21
1041.88
  0
LINE
  8
0
 10
-114.731
 20
1041.88
 11
-114.603
 21
1042.16
  0
LINE
  8
0
 10
-114.603
 20
1042.16
 11
-114.442
 21
1042.41
  0
LINE
  8
0
 10
-114.442
 20
1042.41
 11
-114.25
 21
1042.64
  0
LINE
  8
0
 10
-114.25
 20
1042.64
 11
-114.03
 21
1042.85
  0
LINE
  8
0
 10
-114.03
 20
1042.85
 11
-113.786
 21
1043.03
  0
LINE
  8
0
 10
-113.786
 20
1043.03
 11
-113.522
 21
1043.17
  0
LINE
  8
0
 10
-113.522
 20
1043.17
 11
-113.242
 21
1043.28
  0
LINE
  8
0
 10
-113.242
 20
1043.28
 11
-112.95
 21
1043.36
  0
LINE
  8
0
 10
-112.95
 20
1043.36
 11
-112.651
 21
1043.4
  0
LINE
  8
0
 10
-112.651
 20
1043.4
 11
-112.349
 21
1043.4
  0
LINE
  8
0
 10
-112.349
 20
1043.4
 11
-112.05
 21
1043.36
  0
LINE
  8
0
 10
-112.05
 20
1043.36
 11
-111.758
 21
1043.28
  0
LINE
  8
0
 10
-111.758
 20
1043.28
 11
-111.478
 21
1043.17
  0
LINE
  8
0
 10
-111.478
 20
1043.17
 11
-111.214
 21
1043.03
  0
LINE
  8
0
 10
-111.214
 20
1043.03
 11
-110.97
 21
1042.85
  0
LINE
  8
0
 10
-110.97
 20
1042.85
 11
-110.75
 21
1042.64
  0
LINE
  8
0
 10
-110.75
 20
1042.64
 11
-110.558
 21
1042.41
  0
LINE
  8
0
 10
-110.558
 20
1042.41
 11
-110.397
 21
1042.16
  0
LINE
  8
0
 10
-110.397
 20
1042.16
 11
-110.269
 21
1041.88
  0
LINE
  8
0
 10
-110.269
 20
1041.88
 11
-110.175
 21
1041.6
  0
LINE
  8
0
 10
-110.175
 20
1041.6
 11
-110.119
 21
1041.3
  0
LINE
  8
0
 10
-110.119
 20
1041.3
 11
-110.1
 21
1041
  0
LINE
  8
0
 10
-110.1
 20
1041
 11
-110.119
 21
1040.7
  0
LINE
  8
0
 10
-110.119
 20
1040.7
 11
-110.175
 21
1040.4
  0
LINE
  8
0
 10
-110.175
 20
1040.4
 11
-110.269
 21
1040.12
  0
LINE
  8
0
 10
-110.269
 20
1040.12
 11
-110.397
 21
1039.84
  0
LINE
  8
0
 10
-110.397
 20
1039.84
 11
-110.558
 21
1039.59
  0
LINE
  8
0
 10
-110.558
 20
1039.59
 11
-110.75
 21
1039.36
  0
LINE
  8
0
 10
-110.75
 20
1039.36
 11
-110.97
 21
1039.15
  0
LINE
  8
0
 10
-110.97
 20
1039.15
 11
-111.214
 21
1038.97
  0
LINE
  8
0
 10
-111.214
 20
1038.97
 11
-111.478
 21
1038.83
  0
LINE
  8
0
 10
-111.478
 20
1038.83
 11
-111.758
 21
1038.72
  0
LINE
  8
0
 10
-111.758
 20
1038.72
 11
-112.05
 21
1038.64
  0
LINE
  8
0
 10
-112.05
 20
1038.64
 11
-112.349
 21
1038.6
  0
LINE
  8
0
 10
-112.349
 20
1038.6
 11
-112.651
 21
1038.6
  0
LINE
  8
0
 10
115.937
 20
739.589
 11
116.545
 21
739.745
  0
LINE
  8
0
 10
116.545
 20
739.745
 11
117.129
 21
739.976
  0
LINE
  8
0
 10
117.129
 20
739.976
 11
117.679
 21
740.278
  0
LINE
  8
0
 10
117.679
 20
740.278
 11
118.187
 21
740.647
  0
LINE
  8
0
 10
118.187
 20
740.647
 11
118.645
 21
741.077
  0
LINE
  8
0
 10
118.645
 20
741.077
 11
119.045
 21
741.561
  0
LINE
  8
0
 10
119.045
 20
741.561
 11
119.382
 21
742.091
  0
LINE
  8
0
 10
119.382
 20
742.091
 11
119.649
 21
742.659
  0
LINE
  8
0
 10
119.649
 20
742.659
 11
119.843
 21
743.257
  0
LINE
  8
0
 10
119.843
 20
743.257
 11
119.961
 21
743.873
  0
LINE
  8
0
 10
119.961
 20
743.873
 11
120
 21
744.5
  0
LINE
  8
0
 10
120
 20
744.5
 11
120
 21
1019.5
  0
LINE
  8
0
 10
120
 20
1019.5
 11
119.961
 21
1020.13
  0
LINE
  8
0
 10
119.961
 20
1020.13
 11
119.843
 21
1020.74
  0
LINE
  8
0
 10
119.843
 20
1020.74
 11
119.649
 21
1021.34
  0
LINE
  8
0
 10
119.649
 20
1021.34
 11
119.382
 21
1021.91
  0
LINE
  8
0
 10
119.382
 20
1021.91
 11
119.045
 21
1022.44
  0
LINE
  8
0
 10
119.045
 20
1022.44
 11
118.645
 21
1022.92
  0
LINE
  8
0
 10
118.645
 20
1022.92
 11
118.187
 21
1023.35
  0
LINE
  8
0
 10
118.187
 20
1023.35
 11
117.679
 21
1023.72
  0
LINE
  8
0
 10
117.679
 20
1023.72
 11
117.129
 21
1024.02
  0
LINE
  8
0
 10
117.129
 20
1024.02
 11
116.545
 21
1024.26
  0
LINE
  8
0
 10
116.545
 20
1024.26
 11
115.937
 21
1024.41
  0
LINE
  8
0
 10
115.937
 20
1024.41
 11
115.314
 21
1024.49
  0
LINE
  8
0
 10
115.314
 20
1024.49
 11
-115.314
 21
1024.49
  0
LINE
  8
0
 10
-115.314
 20
1024.49
 11
-115.937
 21
1024.41
  0
LINE
  8
0
 10
-115.937
 20
1024.41
 11
-116.545
 21
1024.26
  0
LINE
  8
0
 10
-116.545
 20
1024.26
 11
-117.129
 21
1024.02
  0
LINE
  8
0
 10
-117.129
 20
1024.02
 11
-117.679
 21
1023.72
  0
LINE
  8
0
 10
-117.679
 20
1023.72
 11
-118.187
 21
1023.35
  0
LINE
  8
0
 10
-118.187
 20
1023.35
 11
-118.645
 21
1022.92
  0
LINE
  8
0
 10
-118.645
 20
1022.92
 11
-119.045
 21
1022.44
  0
LINE
  8
0
 10
-119.045
 20
1022.44
 11
-119.382
 21
1021.91
  0
LINE
  8
0
 10
-119.382
 20
1021.91
 11
-119.649
 21
1021.34
  0
LINE
  8
0
 10
-119.649
 20
1021.34
 11
-119.843
 21
1020.74
  0
LINE
  8
0
 10
-119.843
 20
1020.74
 11
-119.961
 21
1020.13
  0
LINE
  8
0
 10
-119.961
 20
1020.13
 11
-120
 21
1019.5
  0
LINE
  8
0
 10
-120
 20
1019.5
 11
-120
 21
744.5
  0
LINE
  8
0
 10
-120
 20
744.5
 11
-119.961
 21
743.873
  0
LINE
  8
0
 10
-119.961
 20
743.873
 11
-119.843
 21
743.257
  0
LINE
  8
0
 10
-119.843
 20
743.257
 11
-119.649
 21
742.659
  0
LINE
  8
0
 10
-119.649
 20
742.659
 11
-119.382
 21
742.091
  0
LINE
  8
0
 10
-119.382
 20
742.091
 11
-119.045
 21
741.561
  0
LINE
  8
0
 10
-119.045
 20
741.561
 11
-118.645
 21
741.077
  0
LINE
  8
0
 10
-118.645
 20
741.077
 11
-118.187
 21
740.647
  0
LINE
  8
0
 10
-118.187
 20
740.647
 11
-117.679
 21
740.278
  0
LINE
  8
0
 10
-117.679
 20
740.278
 11
-117.129
 21
739.976
  0
LINE
  8
0
 10
-117.129
 20
739.976
 11
-116.545
 21
739.745
  0
LINE
  8
0
 10
-116.545
 20
739.745
 11
-115.937
 21
739.589
  0
LINE
  8
0
 10
-115.937
 20
739.589
 11
-115.314
 21
739.51
  0
LINE
  8
0
 10
-115.314
 20
739.51
 11
115.314
 21
739.51
  0
LINE
  8
0
 10
115.314
 20
739.51
 11
115.937
 21
739.589
  0
LINE
  8
0
 10
112.387
 20
1015.2
 11
112.163
 21
1015.23
  0
LINE
  8
0
 10
112.163
 20
1015.23
 11
111.944
 21
1015.29
  0
LINE
  8
0
 10
111.944
 20
1015.29
 11
111.734
 21
1015.37
  0
LINE
  8
0
 10
111.734
 20
1015.37
 11
111.536
 21
1015.48
  0
LINE
  8
0
 10
111.536
 20
1015.48
 11
111.353
 21
1015.61
  0
LINE
  8
0
 10
111.353
 20
1015.61
 11
111.188
 21
1015.77
  0
LINE
  8
0
 10
111.188
 20
1015.77
 11
111.044
 21
1015.94
  0
LINE
  8
0
 10
111.044
 20
1015.94
 11
110.923
 21
1016.13
  0
LINE
  8
0
 10
110.923
 20
1016.13
 11
110.826
 21
1016.34
  0
LINE
  8
0
 10
110.826
 20
1016.34
 11
110.757
 21
1016.55
  0
LINE
  8
0
 10
110.757
 20
1016.55
 11
110.714
 21
1016.77
  0
LINE
  8
0
 10
110.714
 20
1016.77
 11
110.7
 21
1017
  0
LINE
  8
0
 10
110.7
 20
1017
 11
110.714
 21
1017.23
  0
LINE
  8
0
 10
110.714
 20
1017.23
 11
110.757
 21
1017.45
  0
LINE
  8
0
 10
110.757
 20
1017.45
 11
110.826
 21
1017.66
  0
LINE
  8
0
 10
110.826
 20
1017.66
 11
110.923
 21
1017.87
  0
LINE
  8
0
 10
110.923
 20
1017.87
 11
111.044
 21
1018.06
  0
LINE
  8
0
 10
111.044
 20
1018.06
 11
111.188
 21
1018.23
  0
LINE
  8
0
 10
111.188
 20
1018.23
 11
111.353
 21
1018.39
  0
LINE
  8
0
 10
111.353
 20
1018.39
 11
111.536
 21
1018.52
  0
LINE
  8
0
 10
111.536
 20
1018.52
 11
111.734
 21
1018.63
  0
LINE
  8
0
 10
111.734
 20
1018.63
 11
111.944
 21
1018.71
  0
LINE
  8
0
 10
111.944
 20
1018.71
 11
112.163
 21
1018.77
  0
LINE
  8
0
 10
112.163
 20
1018.77
 11
112.387
 21
1018.8
  0
LINE
  8
0
 10
112.387
 20
1018.8
 11
112.613
 21
1018.8
  0
LINE
  8
0
 10
112.613
 20
1018.8
 11
112.837
 21
1018.77
  0
LINE
  8
0
 10
112.837
 20
1018.77
 11
113.056
 21
1018.71
  0
LINE
  8
0
 10
113.056
 20
1018.71
 11
113.266
 21
1018.63
  0
LINE
  8
0
 10
113.266
 20
1018.63
 11
113.464
 21
1018.52
  0
LINE
  8
0
 10
113.464
 20
1018.52
 11
113.647
 21
1018.39
  0
LINE
  8
0
 10
113.647
 20
1018.39
 11
113.812
 21
1018.23
  0
LINE
  8
0
 10
113.812
 20
1018.23
 11
113.956
 21
1018.06
  0
LINE
  8
0
 10
113.956
 20
1018.06
 11
114.077
 21
1017.87
  0
LINE
  8
0
 10
114.077
 20
1017.87
 11
114.174
 21
1017.66
  0
LINE
  8
0
 10
114.174
 20
1017.66
 11
114.243
 21
1017.45
  0
LINE
  8
0
 10
114.243
 20
1017.45
 11
114.286
 21
1017.23
  0
LINE
  8
0
 10
114.286
 20
1017.23
 11
114.3
 21
1017
  0
LINE
  8
0
 10
114.3
 20
1017
 11
114.286
 21
1016.77
  0
LINE
  8
0
 10
114.286
 20
1016.77
 11
114.243
 21
1016.55
  0
LINE
  8
0
 10
114.243
 20
1016.55
 11
114.174
 21
1016.34
  0
LINE
  8
0
 10
114.174
 20
1016.34
 11
114.077
 21
1016.13
  0
LINE
  8
0
 10
114.077
 20
1016.13
 11
113.956
 21
1015.94
  0
LINE
  8
0
 10
113.956
 20
1015.94
 11
113.812
 21
1015.77
  0
LINE
  8
0
 10
113.812
 20
1015.77
 11
113.647
 21
1015.61
  0
LINE
  8
0
 10
113.647
 20
1015.61
 11
113.464
 21
1015.48
  0
LINE
  8
0
 10
113.464
 20
1015.48
 11
113.266
 21
1015.37
  0
LINE
  8
0
 10
113.266
 20
1015.37
 11
113.056
 21
1015.29
  0
LINE
  8
0
 10
113.056
 20
1015.29
 11
112.837
 21
1015.23
  0
LINE
  8
0
 10
112.837
 20
1015.23
 11
112.613
 21
1015.2
  0
LINE
  8
0
 10
112.613
 20
1015.2
 11
112.387
 21
1015.2
  0
LINE
  8
0
 10
-112.613
 20
1015.2
 11
-112.837
 21
1015.23
  0
LINE
  8
0
 10
-112.837
 20
1015.23
 11
-113.056
 21
1015.29
  0
LINE
  8
0
 10
-113.056
 20
1015.29
 11
-113.266
 21
1015.37
  0
LINE
  8
0
 10
-113.266
 20
1015.37
 11
-113.464
 21
1015.48
  0
LINE
  8
0
 10
-113.464
 20
1015.48
 11
-113.647
 21
1015.61
  0
LINE
  8
0
 10
-113.647
 20
1015.61
 11
-113.812
 21
1015.77
  0
LINE
  8
0
 10
-113.812
 20
1015.77
 11
-113.956
 21
1015.94
  0
LINE
  8
0
 10
-113.956
 20
1015.94
 11
-114.077
 21
1016.13
  0
LINE
  8
0
 10
-114.077
 20
1016.13
 11
-114.174
 21
1016.34
  0
LINE
  8
0
 10
-114.174
 20
1016.34
 11
-114.243
 21
1016.55
  0
LINE
  8
0
 10
-114.243
 20
1016.55
 11
-114.286
 21
1016.77
  0
LINE
  8
0
 10
-114.286
 20
1016.77
 11
-114.3
 21
1017
  0
LINE
  8
0
 10
-114.3
 20
1017
 11
-114.286
 21
1017.23
  0
LINE
  8
0
 10
-114.286
 20
1017.23
 11
-114.243
 21
1017.45
  0
LINE
  8
0
 10
-114.243
 20
1017.45
 11
-114.174
 21
1017.66
  0
LINE
  8
0
 10
-114.174
 20
1017.66
 11
-114.077
 21
1017.87
  0
LINE
  8
0
 10
-114.077
 20
1017.87
 11
-113.956
 21
1018.06
  0
LINE
  8
0
 10
-113.956
 20
1018.06
 11
-113.812
 21
1018.23
  0
LINE
  8
0
 10
-113.812
 20
1018.23
 11
-113.647
 21
1018.39
  0
LINE
  8
0
 10
-113.647
 20
1018.39
 11
-113.464
 21
1018.52
  0
LINE
  8
0
 10
-113.464
 20
1018.52
 11
-113.266
 21
1018.63
  0
LINE
  8
0
 10
-113.266
 20
1018.63
 11
-113.056
 21
1018.71
  0
LINE
  8
0
 10
-113.056
 20
1018.71
 11
-112.837
 21
1018.77
  0
LINE
  8
0
 10
-112.837
 20
1018.77
 11
-112.613
 21
1018.8
  0
LINE
  8
0
 10
-112.613
 20
1018.8
 11
-112.387
 21
1018.8
  0
LINE
  8
0
 10
-112.387
 20
1018.8
 11
-112.163
 21
1018.77
  0
LINE
  8
0
 10
-112.163
 20
1018.77
 11
-111.944
 21
1018.71
  0
LINE
  8
0
 10
-111.944
 20
1018.71
 11
-111.734
 21
1018.63
  0
LINE
  8
0
 10
-111.734
 20
1018.63
 11
-111.536
 21
1018.52
  0
LINE
  8
0
 10
-111.536
 20
1018.52
 11
-111.353
 21
1018.39
  0
LINE
  8
0
 10
-111.353
 20
1018.39
 11
-111.188
 21
1018.23
  0
LINE
  8
0
 10
-111.188
 20
1018.23
 11
-111.044
 21
1018.06
  0
LINE
  8
0
 10
-111.044
 20
1018.06
 11
-110.923
 21
1017.87
  0
LINE
  8
0
 10
-110.923
 20
1017.87
 11
-110.826
 21
1017.66
  0
LINE
  8
0
 10
-110.826
 20
1017.66
 11
-110.757
 21
1017.45
  0
LINE
  8
0
 10
-110.757
 20
1017.45
 11
-110.714
 21
1017.23
  0
LINE
  8
0
 10
-110.714
 20
1017.23
 11
-110.7
 21
1017
  0
LINE
  8
0
 10
-110.7
 20
1017
 11
-110.714
 21
1016.77
  0
LINE
  8
0
 10
-110.714
 20
1016.77
 11
-110.757
 21
1016.55
  0
LINE
  8
0
 10
-110.757
 20
1016.55
 11
-110.826
 21
1016.34
  0
LINE
  8
0
 10
-110.826
 20
1016.34
 11
-110.923
 21
1016.13
  0
LINE
  8
0
 10
-110.923
 20
1016.13
 11
-111.044
 21
1015.94
  0
LINE
  8
0
 10
-111.044
 20
1015.94
 11
-111.188
 21
1015.77
  0
LINE
  8
0
 10
-111.188
 20
1015.77
 11
-111.353
 21
1015.61
  0
LINE
  8
0
 10
-111.353
 20
1015.61
 11
-111.536
 21
1015.48
  0
LINE
  8
0
 10
-111.536
 20
1015.48
 11
-111.734
 21
1015.37
  0
LINE
  8
0
 10
-111.734
 20
1015.37
 11
-111.944
 21
1015.29
  0
LINE
  8
0
 10
-111.944
 20
1015.29
 11
-112.163
 21
1015.23
  0
LINE
  8
0
 10
-112.163
 20
1015.23
 11
-112.387
 21
1015.2
  0
LINE
  8
0
 10
-112.387
 20
1015.2
 11
-112.613
 21
1015.2
  0
LINE
  8
0
 10
-112.613
 20
745.204
 11
-112.837
 21
745.232
  0
LINE
  8
0
 10
-112.837
 20
745.232
 11
-113.056
 21
745.288
  0
LINE
  8
0
 10
-113.056
 20
745.288
 11
-113.266
 21
745.371
  0
LINE
  8
0
 10
-113.266
 20
745.371
 11
-113.464
 21
745.48
  0
LINE
  8
0
 10
-113.464
 20
745.48
 11
-113.647
 21
745.613
  0
LINE
  8
0
 10
-113.647
 20
745.613
 11
-113.812
 21
745.768
  0
LINE
  8
0
 10
-113.812
 20
745.768
 11
-113.956
 21
745.942
  0
LINE
  8
0
 10
-113.956
 20
745.942
 11
-114.077
 21
746.133
  0
LINE
  8
0
 10
-114.077
 20
746.133
 11
-114.174
 21
746.337
  0
LINE
  8
0
 10
-114.174
 20
746.337
 11
-114.243
 21
746.552
  0
LINE
  8
0
 10
-114.243
 20
746.552
 11
-114.286
 21
746.774
  0
LINE
  8
0
 10
-114.286
 20
746.774
 11
-114.3
 21
747
  0
LINE
  8
0
 10
-114.3
 20
747
 11
-114.286
 21
747.226
  0
LINE
  8
0
 10
-114.286
 20
747.226
 11
-114.243
 21
747.448
  0
LINE
  8
0
 10
-114.243
 20
747.448
 11
-114.174
 21
747.663
  0
LINE
  8
0
 10
-114.174
 20
747.663
 11
-114.077
 21
747.867
  0
LINE
  8
0
 10
-114.077
 20
747.867
 11
-113.956
 21
748.058
  0
LINE
  8
0
 10
-113.956
 20
748.058
 11
-113.812
 21
748.232
  0
LINE
  8
0
 10
-113.812
 20
748.232
 11
-113.647
 21
748.387
  0
LINE
  8
0
 10
-113.647
 20
748.387
 11
-113.464
 21
748.52
  0
LINE
  8
0
 10
-113.464
 20
748.52
 11
-113.266
 21
748.629
  0
LINE
  8
0
 10
-113.266
 20
748.629
 11
-113.056
 21
748.712
  0
LINE
  8
0
 10
-113.056
 20
748.712
 11
-112.837
 21
748.768
  0
LINE
  8
0
 10
-112.837
 20
748.768
 11
-112.613
 21
748.796
  0
LINE
  8
0
 10
-112.613
 20
748.796
 11
-112.387
 21
748.796
  0
LINE
  8
0
 10
-112.387
 20
748.796
 11
-112.163
 21
748.768
  0
LINE
  8
0
 10
-112.163
 20
748.768
 11
-111.944
 21
748.712
  0
LINE
  8
0
 10
-111.944
 20
748.712
 11
-111.734
 21
748.629
  0
LINE
  8
0
 10
-111.734
 20
748.629
 11
-111.536
 21
748.52
  0
LINE
  8
0
 10
-111.536
 20
748.52
 11
-111.353
 21
748.387
  0
LINE
  8
0
 10
-111.353
 20
748.387
 11
-111.188
 21
748.232
  0
LINE
  8
0
 10
-111.188
 20
748.232
 11
-111.044
 21
748.058
  0
LINE
  8
0
 10
-111.044
 20
748.058
 11
-110.923
 21
747.867
  0
LINE
  8
0
 10
-110.923
 20
747.867
 11
-110.826
 21
747.663
  0
LINE
  8
0
 10
-110.826
 20
747.663
 11
-110.757
 21
747.448
  0
LINE
  8
0
 10
-110.757
 20
747.448
 11
-110.714
 21
747.226
  0
LINE
  8
0
 10
-110.714
 20
747.226
 11
-110.7
 21
747
  0
LINE
  8
0
 10
-110.7
 20
747
 11
-110.714
 21
746.774
  0
LINE
  8
0
 10
-110.714
 20
746.774
 11
-110.757
 21
746.552
  0
LINE
  8
0
 10
-110.757
 20
746.552
 11
-110.826
 21
746.337
  0
LINE
  8
0
 10
-110.826
 20
746.337
 11
-110.923
 21
746.133
  0
LINE
  8
0
 10
-110.923
 20
746.133
 11
-111.044
 21
745.942
  0
LINE
  8
0
 10
-111.044
 20
745.942
 11
-111.188
 21
745.768
  0
LINE
  8
0
 10
-111.188
 20
745.768
 11
-111.353
 21
745.613
  0
LINE
  8
0
 10
-111.353
 20
745.613
 11
-111.536
 21
745.48
  0
LINE
  8
0
 10
-111.536
 20
745.48
 11
-111.734
 21
745.371
  0
LINE
  8
0
 10
-111.734
 20
745.371
 11
-111.944
 21
745.288
  0
LINE
  8
0
 10
-111.944
 20
745.288
 11
-112.163
 21
745.232
  0
LINE
  8
0
 10
-112.163
 20
745.232
 11
-112.387
 21
745.204
  0
LINE
  8
0
 10
-112.387
 20
745.204
 11
-112.613
 21
745.204
  0
LINE
  8
0
 10
112.387
 20
745.204
 11
112.163
 21
745.232
  0
LINE
  8
0
 10
112.163
 20
745.232
 11
111.944
 21
745.288
  0
LINE
  8
0
 10
111.944
 20
745.288
 11
111.734
 21
745.371
  0
LINE
  8
0
 10
111.734
 20
745.371
 11
111.536
 21
745.48
  0
LINE
  8
0
 10
111.536
 20
745.48
 11
111.353
 21
745.613
  0
LINE
  8
0
 10
111.353
 20
745.613
 11
111.188
 21
745.768
  0
LINE
  8
0
 10
111.188
 20
745.768
 11
111.044
 21
745.942
  0
LINE
  8
0
 10
111.044
 20
745.942
 11
110.923
 21
746.133
  0
LINE
  8
0
 10
110.923
 20
746.133
 11
110.826
 21
746.337
  0
LINE
  8
0
 10
110.826
 20
746.337
 11
110.757
 21
746.552
  0
LINE
  8
0
 10
110.757
 20
746.552
 11
110.714
 21
746.774
  0
LINE
  8
0
 10
110.714
 20
746.774
 11
110.7
 21
747
  0
LINE
  8
0
 10
110.7
 20
747
 11
110.714
 21
747.226
  0
LINE
  8
0
 10
110.714
 20
747.226
 11
110.757
 21
747.448
  0
LINE
  8
0
 10
110.757
 20
747.448
 11
110.826
 21
747.663
  0
LINE
  8
0
 10
110.826
 20
747.663
 11
110.923
 21
747.867
  0
LINE
  8
0
 10
110.923
 20
747.867
 11
111.044
 21
748.058
  0
LINE
  8
0
 10
111.044
 20
748.058
 11
111.188
 21
748.232
  0
LINE
  8
0
 10
111.188
 20
748.232
 11
111.353
 21
748.387
  0
LINE
  8
0
 10
111.353
 20
748.387
 11
111.536
 21
748.52
  0
LINE
  8
0
 10
111.536
 20
748.52
 11
111.734
 21
748.629
  0
LINE
  8
0
 10
111.734
 20
748.629
 11
111.944
 21
748.712
  0
LINE
  8
0
 10
111.944
 20
748.712
 11
112.163
 21
748.768
  0
LINE
  8
0
 10
112.163
 20
748.768
 11
112.387
 21
748.796
  0
LINE
  8
0
 10
112.387
 20
748.796
 11
112.613
 21
748.796
  0
LINE
  8
0
 10
112.613
 20
748.796
 11
112.837
 21
748.768
  0
LINE
  8
0
 10
112.837
 20
748.768
 11
113.056
 21
748.712
  0
LINE
  8
0
 10
113.056
 20
748.712
 11
113.266
 21
748.629
  0
LINE
  8
0
 10
113.266
 20
748.629
 11
113.464
 21
748.52
  0
LINE
  8
0
 10
113.464
 20
748.52
 11
113.647
 21
748.387
  0
LINE
  8
0
 10
113.647
 20
748.387
 11
113.812
 21
748.232
  0
LINE
  8
0
 10
113.812
 20
748.232
 11
113.956
 21
748.058
  0
LINE
  8
0
 10
113.956
 20
748.058
 11
114.077
 21
747.867
  0
LINE
  8
0
 10
114.077
 20
747.867
 11
114.174
 21
747.663
  0
LINE
  8
0
 10
114.174
 20
747.663
 11
114.243
 21
747.448
  0
LINE
  8
0
 10
114.243
 20
747.448
 11
114.286
 21
747.226
  0
LINE
  8
0
 10
114.286
 20
747.226
 11
114.3
 21
747
  0
LINE
  8
0
 10
114.3
 20
747
 11
114.286
 21
746.774
  0
LINE
  8
0
 10
114.286
 20
746.774
 11
114.243
 21
746.552
  0
LINE
  8
0
 10
114.243
 20
746.552
 11
114.174
 21
746.337
  0
LINE
  8
0
 10
114.174
 20
746.337
 11
114.077
 21
746.133
  0
LINE
  8
0
 10
114.077
 20
746.133
 11
113.956
 21
745.942
  0
LINE
  8
0
 10
113.956
 20
745.942
 11
113.812
 21
745.768
  0
LINE
  8
0
 10
113.812
 20
745.768
 11
113.647
 21
745.613
  0
LINE
  8
0
 10
113.647
 20
745.613
 11
113.464
 21
745.48
  0
LINE
  8
0
 10
113.464
 20
745.48
 11
113.266
 21
745.371
  0
LINE
  8
0
 10
113.266
 20
745.371
 11
113.056
 21
745.288
  0
LINE
  8
0
 10
113.056
 20
745.288
 11
112.837
 21
745.232
  0
LINE
  8
0
 10
112.837
 20
745.232
 11
112.613
 21
745.204
  0
LINE
  8
0
 10
112.613
 20
745.204
 11
112.387
 21
745.204
  0
ENDSEC
  0
SECTION
  2
OBJECTS
  0
DICTIONARY
  0
ENDSEC
  0
EOF
