<?xml version="1.0" standalone="no"?>
<!DOCTYPE svg PUBLIC "-//W3C//DTD SVG 1.1//EN" "http://www.w3.org/Graphics/SVG/1.1/DTD/svg11.dtd">
<svg width="240mm" height="1168mm" viewBox="-120 -1907 240 1168" xmlns="http://www.w3.org/2000/svg" version="1.1">
<title>OpenSCAD Model</title>
<path d="
M 115.937,-1621.59 L 116.545,-1621.74 L 117.129,-1621.98 L 117.679,-1622.28 L 118.187,-1622.65 L 118.645,-1623.08
 L 119.045,-1623.56 L 119.382,-1624.09 L 119.649,-1624.66 L 119.843,-1625.26 L 119.961,-1625.87 L 120,-1626.5
 L 120,-1901.5 L 119.961,-1902.13 L 119.843,-1902.74 L 119.649,-1903.34 L 119.382,-1903.91 L 119.045,-1904.44
 L 118.645,-1904.92 L 118.187,-1905.35 L 117.679,-1905.72 L 117.129,-1906.02 L 116.545,-1906.26 L 115.937,-1906.41
 L 115.314,-1906.49 L -115.314,-1906.49 L -115.937,-1906.41 L -116.545,-1906.26 L -117.129,-1906.02 L -117.679,-1905.72
 L -118.187,-1905.35 L -118.645,-1904.92 L -119.045,-1904.44 L -119.382,-1903.91 L -119.649,-1903.34 L -119.843,-1902.74
 L -119.961,-1902.13 L -120,-1901.5 L -120,-1626.5 L -119.961,-1625.87 L -119.843,-1625.26 L -119.649,-1624.66
 L -119.382,-1624.09 L -119.045,-1623.56 L -118.645,-1623.08 L -118.187,-1622.65 L -117.679,-1622.28 L -117.129,-1621.98
 L -116.545,-1621.74 L -115.937,-1621.59 L -115.314,-1621.51 L 115.314,-1621.51 z
M -114.751,-1623.01 L -115.25,-1623.07 L -115.736,-1623.2 L -116.203,-1623.38 L -116.643,-1623.62 L -117.05,-1623.92
 L -117.416,-1624.26 L -117.736,-1624.65 L -118.005,-1625.07 L -118.219,-1625.53 L -118.374,-1626.01 L -118.468,-1626.5
 L -118.5,-1627 L -118.5,-1901 L -118.468,-1901.5 L -118.374,-1901.99 L -118.219,-1902.47 L -118.005,-1902.93
 L -117.736,-1903.35 L -117.416,-1903.74 L -117.05,-1904.08 L -116.643,-1904.38 L -116.203,-1904.62 L -115.736,-1904.8
 L -115.25,-1904.93 L -114.751,-1904.99 L 114.751,-1904.99 L 115.25,-1904.93 L 115.736,-1904.8 L 116.203,-1904.62
 L 116.643,-1904.38 L 117.05,-1904.08 L 117.416,-1903.74 L 117.736,-1903.35 L 118.005,-1902.93 L 118.219,-1902.47
 L 118.374,-1901.99 L 118.468,-1901.5 L 118.5,-1901 L 118.5,-1627 L 118.468,-1626.5 L 118.374,-1626.01
 L 118.219,-1625.53 L 118.005,-1625.07 L 117.736,-1624.65 L 117.416,-1624.26 L 117.05,-1623.92 L 116.643,-1623.62
 L 116.203,-1623.38 L 115.736,-1623.2 L 115.25,-1623.07 L 114.751,-1623.01 z
M 115.937,-1327.59 L 116.545,-1327.74 L 117.129,-1327.98 L 117.679,-1328.28 L 118.187,-1328.65 L 118.645,-1329.08
 L 119.045,-1329.56 L 119.382,-1330.09 L 119.649,-1330.66 L 119.843,-1331.26 L 119.961,-1331.87 L 120,-1332.5
 L 120,-1607.5 L 119.961,-1608.13 L 119.843,-1608.74 L 119.649,-1609.34 L 119.382,-1609.91 L 119.045,-1610.44
 L 118.645,-1610.92 L 118.187,-1611.35 L 117.679,-1611.72 L 117.129,-1612.02 L 116.545,-1612.26 L 115.937,-1612.41
 L 115.314,-1612.49 L -115.314,-1612.49 L -115.937,-1612.41 L -116.545,-1612.26 L -117.129,-1612.02 L -117.679,-1611.72
 L -118.187,-1611.35 L -118.645,-1610.92 L -119.045,-1610.44 L -119.382,-1609.91 L -119.649,-1609.34 L -119.843,-1608.74
 L -119.961,-1608.13 L -120,-1607.5 L -120,-1332.5 L -119.961,-1331.87 L -119.843,-1331.26 L -119.649,-1330.66
 L -119.382,-1330.09 L -119.045,-1329.56 L -118.645,-1329.08 L -118.187,-1328.65 L -117.679,-1328.28 L -117.129,-1327.98
 L -116.545,-1327.74 L -115.937,-1327.59 L -115.314,-1327.51 L 115.314,-1327.51 z
M -114.743,-1329.14 L -115.226,-1329.2 L -115.697,-1329.32 L -116.149,-1329.5 L -116.575,-1329.73 L -116.969,-1330.02
 L -117.323,-1330.35 L -117.633,-1330.72 L -117.894,-1331.13 L -118.101,-1331.57 L -118.251,-1332.04 L -118.342,-1332.51
 L -118.373,-1333 L -118.373,-1607 L -118.342,-1607.49 L -118.251,-1607.96 L -118.101,-1608.43 L -117.894,-1608.87
 L -117.633,-1609.28 L -117.323,-1609.65 L -116.969,-1609.98 L -116.575,-1610.27 L -116.149,-1610.5 L -115.697,-1610.68
 L -115.226,-1610.8 L -114.743,-1610.86 L 114.743,-1610.86 L 115.226,-1610.8 L 115.697,-1610.68 L 116.149,-1610.5
 L 116.575,-1610.27 L 116.969,-1609.98 L 117.323,-1609.65 L 117.633,-1609.28 L 117.894,-1608.87 L 118.101,-1608.43
 L 118.251,-1607.96 L 118.342,-1607.49 L 118.373,-1607 L 118.373,-1333 L 118.342,-1332.51 L 118.251,-1332.04
 L 118.101,-1331.57 L 117.894,-1331.13 L 117.633,-1330.72 L 117.323,-1330.35 L 116.969,-1330.02 L 116.575,-1329.73
 L 116.149,-1329.5 L 115.697,-1329.32 L 115.226,-1329.2 L 114.743,-1329.14 z
M 115.937,-1033.59 L 116.545,-1033.74 L 117.129,-1033.98 L 117.679,-1034.28 L 118.187,-1034.65 L 118.645,-1035.08
 L 119.045,-1035.56 L 119.382,-1036.09 L 119.649,-1036.66 L 119.843,-1037.26 L 119.961,-1037.87 L 120,-1038.5
 L 120,-1313.5 L 119.961,-1314.13 L 119.843,-1314.74 L 119.649,-1315.34 L 119.382,-1315.91 L 119.045,-1316.44
 L 118.645,-1316.92 L 118.187,-1317.35 L 117.679,-1317.72 L 117.129,-1318.02 L 116.545,-1318.26 L 115.937,-1318.41
 L 115.314,-1318.49 L -115.314,-1318.49 L -115.937,-1318.41 L -116.545,-1318.26 L -117.129,-1318.02 L -117.679,-1317.72
 L -118.187,-1317.35 L -118.645,-1316.92 L -119.045,-1316.44 L -119.382,-1315.91 L -119.649,-1315.34 L -119.843,-1314.74
 L -119.961,-1314.13 L -120,-1313.5 L -120,-1038.5 L -119.961,-1037.87 L -119.843,-1037.26 L -119.649,-1036.66
 L -119.382,-1036.09 L -119.045,-1035.56 L -118.645,-1035.08 L -118.187,-1034.65 L -117.679,-1034.28 L -117.129,-1033.98
 L -116.545,-1033.74 L -115.937,-1033.59 L -115.314,-1033.51 L 115.314,-1033.51 z
M 112.349,-1308.6 L 112.05,-1308.64 L 111.758,-1308.72 L 111.478,-1308.83 L 111.214,-1308.97 L 110.97,-1309.15
 L 110.75,-1309.36 L 110.558,-1309.59 L 110.397,-1309.84 L 110.269,-1310.12 L 110.175,-1310.4 L 110.119,-1310.7
 L 110.1,-1311 L 110.119,-1311.3 L 110.175,-1311.6 L 110.269,-1311.88 L 110.397,-1312.16 L 110.558,-1312.41
 L 110.75,-1312.64 L 110.97,-1312.85 L 111.214,-1313.03 L 111.478,-1313.17 L 111.758,-1313.28 L 112.05,-1313.36
 L 112.349,-1313.4 L 112.651,-1313.4 L 112.95,-1313.36 L 113.242,-1313.28 L 113.522,-1313.17 L 113.786,-1313.03
 L 114.03,-1312.85 L 114.25,-1312.64 L 114.442,-1312.41 L 114.603,-1312.16 L 114.731,-1311.88 L 114.825,-1311.6
 L 114.881,-1311.3 L 114.9,-1311 L 114.881,-1310.7 L 114.825,-1310.4 L 114.731,-1310.12 L 114.603,-1309.84
 L 114.442,-1309.59 L 114.25,-1309.36 L 114.03,-1309.15 L 113.786,-1308.97 L 113.522,-1308.83 L 113.242,-1308.72
 L 112.95,-1308.64 L 112.651,-1308.6 z
M -112.651,-1308.6 L -112.95,-1308.64 L -113.242,-1308.72 L -113.522,-1308.83 L -113.786,-1308.97 L -114.03,-1309.15
 L -114.25,-1309.36 L -114.442,-1309.59 L -114.603,-1309.84 L -114.731,-1310.12 L -114.825,-1310.4 L -114.881,-1310.7
 L -114.9,-1311 L -114.881,-1311.3 L -114.825,-1311.6 L -114.731,-1311.88 L -114.603,-1312.16 L -114.442,-1312.41
 L -114.25,-1312.64 L -114.03,-1312.85 L -113.786,-1313.03 L -113.522,-1313.17 L -113.242,-1313.28 L -112.95,-1313.36
 L -112.651,-1313.4 L -112.349,-1313.4 L -112.05,-1313.36 L -111.758,-1313.28 L -111.478,-1313.17 L -111.214,-1313.03
 L -110.97,-1312.85 L -110.75,-1312.64 L -110.558,-1312.41 L -110.397,-1312.16 L -110.269,-1311.88 L -110.175,-1311.6
 L -110.119,-1311.3 L -110.1,-1311 L -110.119,-1310.7 L -110.175,-1310.4 L -110.269,-1310.12 L -110.397,-1309.84
 L -110.558,-1309.59 L -110.75,-1309.36 L -110.97,-1309.15 L -111.214,-1308.97 L -111.478,-1308.83 L -111.758,-1308.72
 L -112.05,-1308.64 L -112.349,-1308.6 z
M 112.349,-1038.6 L 112.05,-1038.64 L 111.758,-1038.72 L 111.478,-1038.83 L 111.214,-1038.97 L 110.97,-1039.15
 L 110.75,-1039.36 L 110.558,-1039.59 L 110.397,-1039.84 L 110.269,-1040.12 L 110.175,-1040.4 L 110.119,-1040.7
 L 110.1,-1041 L 110.119,-1041.3 L 110.175,-1041.6 L 110.269,-1041.88 L 110.397,-1042.16 L 110.558,-1042.41
 L 110.75,-1042.64 L 110.97,-1042.85 L 111.214,-1043.03 L 111.478,-1043.17 L 111.758,-1043.28 L 112.05,-1043.36
 L 112.349,-1043.4 L 112.651,-1043.4 L 112.95,-1043.36 L 113.242,-1043.28 L 113.522,-1043.17 L 113.786,-1043.03
 L 114.03,-1042.85 L 114.25,-1042.64 L 114.442,-1042.41 L 114.603,-1042.16 L 114.731,-1041.88 L 114.825,-1041.6
 L 114.881,-1041.3 L 114.9,-1041 L 114.881,-1040.7 L 114.825,-1040.4 L 114.731,-1040.12 L 114.603,-1039.84
 L 114.442,-1039.59 L 114.25,-1039.36 L 114.03,-1039.15 L 113.786,-1038.97 L 113.522,-1038.83 L 113.242,-1038.72
 L 112.95,-1038.64 L 112.651,-1038.6 z
M -112.651,-1038.6 L -112.95,-1038.64 L -113.242,-1038.72 L -113.522,-1038.83 L -113.786,-1038.97 L -114.03,-1039.15
 L -114.25,-1039.36 L -114.442,-1039.59 L -114.603,-1039.84 L -114.731,-1040.12 L -114.825,-1040.4 L -114.881,-1040.7
 L -114.9,-1041 L -114.881,-1041.3 L -114.825,-1041.6 L -114.731,-1041.88 L -114.603,-1042.16 L -114.442,-1042.41
 L -114.25,-1042.64 L -114.03,-1042.85 L -113.786,-1043.03 L -113.522,-1043.17 L -113.242,-1043.28 L -112.95,-1043.36
 L -112.651,-1043.4 L -112.349,-1043.4 L -112.05,-1043.36 L -111.758,-1043.28 L -111.478,-1043.17 L -111.214,-1043.03
 L -110.97,-1042.85 L -110.75,-1042.64 L -110.558,-1042.41 L -110.397,-1042.16 L -110.269,-1041.88 L -110.175,-1041.6
 L -110.119,-1041.3 L -110.1,-1041 L -110.119,-1040.7 L -110.175,-1040.4 L -110.269,-1040.12 L -110.397,-1039.84
 L -110.558,-1039.59 L -110.75,-1039.36 L -110.97,-1039.15 L -111.214,-1038.97 L -111.478,-1038.83 L -111.758,-1038.72
 L -112.05,-1038.64 L -112.349,-1038.6 z
M 115.937,-739.589 L 116.545,-739.745 L 117.129,-739.976 L 117.679,-740.278 L 118.187,-740.647 L 118.645,-741.077
 L 119.045,-741.561 L 119.382,-742.091 L 119.649,-742.659 L 119.843,-743.257 L 119.961,-743.873 L 120,-744.5
 L 120,-1019.5 L 119.961,-1020.13 L 119.843,-1020.74 L 119.649,-1021.34 L 119.382,-1021.91 L 119.045,-1022.44
 L 118.645,-1022.92 L 118.187,-1023.35 L 117.679,-1023.72 L 117.129,-1024.02 L 116.545,-1024.26 L 115.937,-1024.41
 L 115.314,-1024.49 L -115.314,-1024.49 L -115.937,-1024.41 L -116.545,-1024.26 L -117.129,-1024.02 L -117.679,-1023.72
 L -118.187,-1023.35 L -118.645,-1022.92 L -119.045,-1022.44 L -119.382,-1021.91 L -119.649,-1021.34 L -119.843,-1020.74
 L -119.961,-1020.13 L -120,-1019.5 L -120,-744.5 L -119.961,-743.873 L -119.843,-743.257 L -119.649,-742.659
 L -119.382,-742.091 L -119.045,-741.561 L -118.645,-741.077 L -118.187,-740.647 L -117.679,-740.278 L -117.129,-739.976
 L -116.545,-739.745 L -115.937,-739.589 L -115.314,-739.51 L 115.314,-739.51 z
M 112.387,-1015.2 L 112.163,-1015.23 L 111.944,-1015.29 L 111.734,-1015.37 L 111.536,-1015.48 L 111.353,-1015.61
 L 111.188,-1015.77 L 111.044,-1015.94 L 110.923,-1016.13 L 110.826,-1016.34 L 110.757,-1016.55 L 110.714,-1016.77
 L 110.7,-1017 L 110.714,-1017.23 L 110.757,-1017.45 L 110.826,-1017.66 L 110.923,-1017.87 L 111.044,-1018.06
 L 111.188,-1018.23 L 111.353,-1018.39 L 111.536,-1018.52 L 111.734,-1018.63 L 111.944,-1018.71 L 112.163,-1018.77
 L 112.387,-1018.8 L 112.613,-1018.8 L 112.837,-1018.77 L 113.056,-1018.71 L 113.266,-1018.63 L 113.464,-1018.52
 L 113.647,-1018.39 L 113.812,-1018.23 L 113.956,-1018.06 L 114.077,-1017.87 L 114.174,-1017.66 L 114.243,-1017.45
 L 114.286,-1017.23 L 114.3,-1017 L 114.286,-1016.77 L 114.243,-1016.55 L 114.174,-1016.34 L 114.077,-1016.13
 L 113.956,-1015.94 L 113.812,-1015.77 L 113.647,-1015.61 L 113.464,-1015.48 L 113.266,-1015.37 L 113.056,-1015.29
 L 112.837,-1015.23 L 112.613,-1015.2 z
M -112.613,-1015.2 L -112.837,-1015.23 L -113.056,-1015.29 L -113.266,-1015.37 L -113.464,-1015.48 L -113.647,-1015.61
 L -113.812,-1015.77 L -113.956,-1015.94 L -114.077,-1016.13 L -114.174,-1016.34 L -114.243,-1016.55 L -114.286,-1016.77
 L -114.3,-1017 L -114.286,-1017.23 L -114.243,-1017.45 L -114.174,-1017.66 L -114.077,-1017.87 L -113.956,-1018.06
 L -113.812,-1018.23 L -113.647,-1018.39 L -113.464,-1018.52 L -113.266,-1018.63 L -113.056,-1018.71 L -112.837,-1018.77
 L -112.613,-1018.8 L -112.387,-1018.8 L -112.163,-1018.77 L -111.944,-1018.71 L -111.734,-1018.63 L -111.536,-1018.52
 L -111.353,-1018.39 L -111.188,-1018.23 L -111.044,-1018.06 L -110.923,-1017.87 L -110.826,-1017.66 L -110.757,-1017.45
 L -110.714,-1017.23 L -110.7,-1017 L -110.714,-1016.77 L -110.757,-1016.55 L -110.826,-1016.34 L -110.923,-1016.13
 L -111.044,-1015.94 L -111.188,-1015.77 L -111.353,-1015.61 L -111.536,-1015.48 L -111.734,-1015.37 L -111.944,-1015.29
 L -112.163,-1015.23 L -112.387,-1015.2 z
M -112.613,-745.204 L -112.837,-745.232 L -113.056,-745.288 L -113.266,-745.371 L -113.464,-745.48 L -113.647,-745.613
 L -113.812,-745.768 L -113.956,-745.942 L -114.077,-746.133 L -114.174,-746.337 L -114.243,-746.552 L -114.286,-746.774
 L -114.3,-747 L -114.286,-747.226 L -114.243,-747.448 L -114.174,-747.663 L -114.077,-747.867 L -113.956,-748.058
 L -113.812,-748.232 L -113.647,-748.387 L -113.464,-748.52 L -113.266,-748.629 L -113.056,-748.712 L -112.837,-748.768
 L -112.613,-748.796 L -112.387,-748.796 L -112.163,-748.768 L -111.944,-748.712 L -111.734,-748.629 L -111.536,-748.52
 L -111.353,-748.387 L -111.188,-748.232 L -111.044,-748.058 L -110.923,-747.867 L -110.826,-747.663 L -110.757,-747.448
 L -110.714,-747.226 L -110.7,-747 L -110.714,-746.774 L -110.757,-746.552 L -110.826,-746.337 L -110.923,-746.133
 L -111.044,-745.942 L -111.188,-745.768 L -111.353,-745.613 L -111.536,-745.48 L -111.734,-745.371 L -111.944,-745.288
 L -112.163,-745.232 L -112.387,-745.204 z
M 112.387,-745.204 L 112.163,-745.232 L 111.944,-745.288 L 111.734,-745.371 L 111.536,-745.48 L 111.353,-745.613
 L 111.188,-745.768 L 111.044,-745.942 L 110.923,-746.133 L 110.826,-746.337 L 110.757,-746.552 L 110.714,-746.774
 L 110.7,-747 L 110.714,-747.226 L 110.757,-747.448 L 110.826,-747.663 L 110.923,-747.867 L 111.044,-748.058
 L 111.188,-748.232 L 111.353,-748.387 L 111.536,-748.52 L 111.734,-748.629 L 111.944,-748.712 L 112.163,-748.768
 L 112.387,-748.796 L 112.613,-748.796 L 112.837,-748.768 L 113.056,-748.712 L 113.266,-748.629 L 113.464,-748.52
 L 113.647,-748.387 L 113.812,-748.232 L 113.956,-748.058 L 114.077,-747.867 L 114.174,-747.663 L 114.243,-747.448
 L 114.286,-747.226 L 114.3,-747 L 114.286,-746.774 L 114.243,-746.552 L 114.174,-746.337 L 114.077,-746.133
 L 113.956,-745.942 L 113.812,-745.768 L 113.647,-745.613 L 113.464,-745.48 L 113.266,-745.371 L 113.056,-745.288
 L 112.837,-745.232 L 112.613,-745.204 z
" stroke="black" fill="lightgray" stroke-width="0.5"/>
</svg>
