  0
SECTION
  2
BLOCKS
  0
ENDSEC
  0
SECTION
  2
ENTITIES
  0
LINE
  8
0
 10
115.937
 20
552.089
 11
116.545
 21
552.245
  0
LINE
  8
0
 10
116.545
 20
552.245
 11
117.129
 21
552.476
  0
LINE
  8
0
 10
117.129
 20
552.476
 11
117.679
 21
552.778
  0
LINE
  8
0
 10
117.679
 20
552.778
 11
118.187
 21
553.147
  0
LINE
  8
0
 10
118.187
 20
553.147
 11
118.645
 21
553.577
  0
LINE
  8
0
 10
118.645
 20
553.577
 11
119.045
 21
554.061
  0
LINE
  8
0
 10
119.045
 20
554.061
 11
119.382
 21
554.591
  0
LINE
  8
0
 10
119.382
 20
554.591
 11
119.649
 21
555.159
  0
LINE
  8
0
 10
119.649
 20
555.159
 11
119.843
 21
555.757
  0
LINE
  8
0
 10
119.843
 20
555.757
 11
119.961
 21
556.373
  0
LINE
  8
0
 10
119.961
 20
556.373
 11
120
 21
557
  0
LINE
  8
0
 10
120
 20
557
 11
120
 21
757
  0
LINE
  8
0
 10
120
 20
757
 11
119.961
 21
757.627
  0
LINE
  8
0
 10
119.961
 20
757.627
 11
119.843
 21
758.243
  0
LINE
  8
0
 10
119.843
 20
758.243
 11
119.649
 21
758.841
  0
LINE
  8
0
 10
119.649
 20
758.841
 11
119.382
 21
759.409
  0
LINE
  8
0
 10
119.382
 20
759.409
 11
119.045
 21
759.939
  0
LINE
  8
0
 10
119.045
 20
759.939
 11
118.645
 21
760.423
  0
LINE
  8
0
 10
118.645
 20
760.423
 11
118.187
 21
760.853
  0
LINE
  8
0
 10
118.187
 20
760.853
 11
117.679
 21
761.222
  0
LINE
  8
0
 10
117.679
 20
761.222
 11
117.129
 21
761.524
  0
LINE
  8
0
 10
117.129
 20
761.524
 11
116.545
 21
761.755
  0
LINE
  8
0
 10
116.545
 20
761.755
 11
115.937
 21
761.911
  0
LINE
  8
0
 10
115.937
 20
761.911
 11
115.314
 21
761.99
  0
LINE
  8
0
 10
115.314
 20
761.99
 11
-115.314
 21
761.99
  0
LINE
  8
0
 10
-115.314
 20
761.99
 11
-115.937
 21
761.911
  0
LINE
  8
0
 10
-115.937
 20
761.911
 11
-116.545
 21
761.755
  0
LINE
  8
0
 10
-116.545
 20
761.755
 11
-117.129
 21
761.524
  0
LINE
  8
0
 10
-117.129
 20
761.524
 11
-117.679
 21
761.222
  0
LINE
  8
0
 10
-117.679
 20
761.222
 11
-118.187
 21
760.853
  0
LINE
  8
0
 10
-118.187
 20
760.853
 11
-118.5
 21
760.559
  0
LINE
  8
0
 10
-118.5
 20
760.559
 11
-118.5
 21
761.979
  0
LINE
  8
0
 10
-118.5
 20
761.979
 11
-121.5
 21
761.979
  0
LINE
  8
0
 10
-121.5
 20
761.979
 11
-121.5
 21
552.021
  0
LINE
  8
0
 10
-121.5
 20
552.021
 11
-118.5
 21
552.021
  0
LINE
  8
0
 10
-118.5
 20
552.021
 11
-118.5
 21
553.441
  0
LINE
  8
0
 10
-118.5
 20
553.441
 11
-118.187
 21
553.147
  0
LINE
  8
0
 10
-118.187
 20
553.147
 11
-117.679
 21
552.778
  0
LINE
  8
0
 10
-117.679
 20
552.778
 11
-117.129
 21
552.476
  0
LINE
  8
0
 10
-117.129
 20
552.476
 11
-116.545
 21
552.245
  0
LINE
  8
0
 10
-116.545
 20
552.245
 11
-115.937
 21
552.089
  0
LINE
  8
0
 10
-115.937
 20
552.089
 11
-115.314
 21
552.01
  0
LINE
  8
0
 10
-115.314
 20
552.01
 11
115.314
 21
552.01
  0
LINE
  8
0
 10
115.314
 20
552.01
 11
115.937
 21
552.089
  0
LINE
  8
0
 10
-114.695
 20
554.393
 11
-115.083
 21
554.442
  0
LINE
  8
0
 10
-115.083
 20
554.442
 11
-115.462
 21
554.539
  0
LINE
  8
0
 10
-115.462
 20
554.539
 11
-115.825
 21
554.683
  0
LINE
  8
0
 10
-115.825
 20
554.683
 11
-116.168
 21
554.872
  0
LINE
  8
0
 10
-116.168
 20
554.872
 11
-116.484
 21
555.101
  0
LINE
  8
0
 10
-116.484
 20
555.101
 11
-116.769
 21
555.369
  0
LINE
  8
0
 10
-116.769
 20
555.369
 11
-117.018
 21
555.67
  0
LINE
  8
0
 10
-117.018
 20
555.67
 11
-117.228
 21
556
  0
LINE
  8
0
 10
-117.228
 20
556
 11
-117.394
 21
556.354
  0
LINE
  8
0
 10
-117.394
 20
556.354
 11
-117.515
 21
556.726
  0
LINE
  8
0
 10
-117.515
 20
556.726
 11
-117.588
 21
557.11
  0
LINE
  8
0
 10
-117.588
 20
557.11
 11
-117.613
 21
557.5
  0
LINE
  8
0
 10
-117.613
 20
557.5
 11
-117.613
 21
756.5
  0
LINE
  8
0
 10
-117.613
 20
756.5
 11
-117.588
 21
756.89
  0
LINE
  8
0
 10
-117.588
 20
756.89
 11
-117.515
 21
757.274
  0
LINE
  8
0
 10
-117.515
 20
757.274
 11
-117.394
 21
757.646
  0
LINE
  8
0
 10
-117.394
 20
757.646
 11
-117.228
 21
758
  0
LINE
  8
0
 10
-117.228
 20
758
 11
-117.018
 21
758.33
  0
LINE
  8
0
 10
-117.018
 20
758.33
 11
-116.769
 21
758.631
  0
LINE
  8
0
 10
-116.769
 20
758.631
 11
-116.484
 21
758.899
  0
LINE
  8
0
 10
-116.484
 20
758.899
 11
-116.168
 21
759.128
  0
LINE
  8
0
 10
-116.168
 20
759.128
 11
-115.825
 21
759.317
  0
LINE
  8
0
 10
-115.825
 20
759.317
 11
-115.462
 21
759.461
  0
LINE
  8
0
 10
-115.462
 20
759.461
 11
-115.083
 21
759.558
  0
LINE
  8
0
 10
-115.083
 20
759.558
 11
-114.695
 21
759.607
  0
LINE
  8
0
 10
-114.695
 20
759.607
 11
114.695
 21
759.607
  0
LINE
  8
0
 10
114.695
 20
759.607
 11
115.083
 21
759.558
  0
LINE
  8
0
 10
115.083
 20
759.558
 11
115.462
 21
759.461
  0
LINE
  8
0
 10
115.462
 20
759.461
 11
115.825
 21
759.317
  0
LINE
  8
0
 10
115.825
 20
759.317
 11
116.168
 21
759.128
  0
LINE
  8
0
 10
116.168
 20
759.128
 11
116.484
 21
758.899
  0
LINE
  8
0
 10
116.484
 20
758.899
 11
116.769
 21
758.631
  0
LINE
  8
0
 10
116.769
 20
758.631
 11
117.018
 21
758.33
  0
LINE
  8
0
 10
117.018
 20
758.33
 11
117.228
 21
758
  0
LINE
  8
0
 10
117.228
 20
758
 11
117.394
 21
757.646
  0
LINE
  8
0
 10
117.394
 20
757.646
 11
117.515
 21
757.274
  0
LINE
  8
0
 10
117.515
 20
757.274
 11
117.588
 21
756.89
  0
LINE
  8
0
 10
117.588
 20
756.89
 11
117.613
 21
756.5
  0
LINE
  8
0
 10
117.613
 20
756.5
 11
117.613
 21
557.5
  0
LINE
  8
0
 10
117.613
 20
557.5
 11
117.588
 21
557.11
  0
LINE
  8
0
 10
117.588
 20
557.11
 11
117.515
 21
556.726
  0
LINE
  8
0
 10
117.515
 20
556.726
 11
117.394
 21
556.354
  0
LINE
  8
0
 10
117.394
 20
556.354
 11
117.228
 21
556
  0
LINE
  8
0
 10
117.228
 20
556
 11
117.018
 21
555.67
  0
LINE
  8
0
 10
117.018
 20
555.67
 11
116.769
 21
555.369
  0
LINE
  8
0
 10
116.769
 20
555.369
 11
116.484
 21
555.101
  0
LINE
  8
0
 10
116.484
 20
555.101
 11
116.168
 21
554.872
  0
LINE
  8
0
 10
116.168
 20
554.872
 11
115.825
 21
554.683
  0
LINE
  8
0
 10
115.825
 20
554.683
 11
115.462
 21
554.539
  0
LINE
  8
0
 10
115.462
 20
554.539
 11
115.083
 21
554.442
  0
LINE
  8
0
 10
115.083
 20
554.442
 11
114.695
 21
554.393
  0
LINE
  8
0
 10
114.695
 20
554.393
 11
-114.695
 21
554.393
  0
LINE
  8
0
 10
115.937
 20
333.089
 11
116.545
 21
333.245
  0
LINE
  8
0
 10
116.545
 20
333.245
 11
117.129
 21
333.476
  0
LINE
  8
0
 10
117.129
 20
333.476
 11
117.679
 21
333.778
  0
LINE
  8
0
 10
117.679
 20
333.778
 11
118.187
 21
334.147
  0
LINE
  8
0
 10
118.187
 20
334.147
 11
118.645
 21
334.577
  0
LINE
  8
0
 10
118.645
 20
334.577
 11
119.045
 21
335.061
  0
LINE
  8
0
 10
119.045
 20
335.061
 11
119.382
 21
335.591
  0
LINE
  8
0
 10
119.382
 20
335.591
 11
119.649
 21
336.159
  0
LINE
  8
0
 10
119.649
 20
336.159
 11
119.843
 21
336.757
  0
LINE
  8
0
 10
119.843
 20
336.757
 11
119.961
 21
337.373
  0
LINE
  8
0
 10
119.961
 20
337.373
 11
120
 21
338
  0
LINE
  8
0
 10
120
 20
338
 11
120
 21
538
  0
LINE
  8
0
 10
120
 20
538
 11
119.961
 21
538.627
  0
LINE
  8
0
 10
119.961
 20
538.627
 11
119.843
 21
539.243
  0
LINE
  8
0
 10
119.843
 20
539.243
 11
119.649
 21
539.841
  0
LINE
  8
0
 10
119.649
 20
539.841
 11
119.382
 21
540.409
  0
LINE
  8
0
 10
119.382
 20
540.409
 11
119.045
 21
540.939
  0
LINE
  8
0
 10
119.045
 20
540.939
 11
118.645
 21
541.423
  0
LINE
  8
0
 10
118.645
 20
541.423
 11
118.187
 21
541.853
  0
LINE
  8
0
 10
118.187
 20
541.853
 11
117.679
 21
542.222
  0
LINE
  8
0
 10
117.679
 20
542.222
 11
117.129
 21
542.524
  0
LINE
  8
0
 10
117.129
 20
542.524
 11
116.545
 21
542.755
  0
LINE
  8
0
 10
116.545
 20
542.755
 11
115.937
 21
542.911
  0
LINE
  8
0
 10
115.937
 20
542.911
 11
115.314
 21
542.99
  0
LINE
  8
0
 10
115.314
 20
542.99
 11
-115.314
 21
542.99
  0
LINE
  8
0
 10
-115.314
 20
542.99
 11
-115.937
 21
542.911
  0
LINE
  8
0
 10
-115.937
 20
542.911
 11
-116.545
 21
542.755
  0
LINE
  8
0
 10
-116.545
 20
542.755
 11
-117.129
 21
542.524
  0
LINE
  8
0
 10
-117.129
 20
542.524
 11
-117.679
 21
542.222
  0
LINE
  8
0
 10
-117.679
 20
542.222
 11
-118.187
 21
541.853
  0
LINE
  8
0
 10
-118.187
 20
541.853
 11
-118.5
 21
541.559
  0
LINE
  8
0
 10
-118.5
 20
541.559
 11
-118.5
 21
541.653
  0
LINE
  8
0
 10
-118.5
 20
541.653
 11
-121.5
 21
541.653
  0
LINE
  8
0
 10
-121.5
 20
541.653
 11
-121.5
 21
334.347
  0
LINE
  8
0
 10
-121.5
 20
334.347
 11
-118.5
 21
334.347
  0
LINE
  8
0
 10
-118.5
 20
334.347
 11
-118.5
 21
334.441
  0
LINE
  8
0
 10
-118.5
 20
334.441
 11
-118.187
 21
334.147
  0
LINE
  8
0
 10
-118.187
 20
334.147
 11
-117.679
 21
333.778
  0
LINE
  8
0
 10
-117.679
 20
333.778
 11
-117.129
 21
333.476
  0
LINE
  8
0
 10
-117.129
 20
333.476
 11
-116.545
 21
333.245
  0
LINE
  8
0
 10
-116.545
 20
333.245
 11
-115.937
 21
333.089
  0
LINE
  8
0
 10
-115.937
 20
333.089
 11
-115.314
 21
333.01
  0
LINE
  8
0
 10
-115.314
 20
333.01
 11
115.314
 21
333.01
  0
LINE
  8
0
 10
115.314
 20
333.01
 11
115.937
 21
333.089
  0
LINE
  8
0
 10
112.366
 20
533.369
 11
112.1
 21
533.403
  0
LINE
  8
0
 10
112.1
 20
533.403
 11
111.84
 21
533.469
  0
LINE
  8
0
 10
111.84
 20
533.469
 11
111.591
 21
533.568
  0
LINE
  8
0
 10
111.591
 20
533.568
 11
111.356
 21
533.697
  0
LINE
  8
0
 10
111.356
 20
533.697
 11
111.139
 21
533.855
  0
LINE
  8
0
 10
111.139
 20
533.855
 11
110.943
 21
534.038
  0
LINE
  8
0
 10
110.943
 20
534.038
 11
110.773
 21
534.245
  0
LINE
  8
0
 10
110.773
 20
534.245
 11
110.629
 21
534.471
  0
LINE
  8
0
 10
110.629
 20
534.471
 11
110.515
 21
534.714
  0
LINE
  8
0
 10
110.515
 20
534.714
 11
110.432
 21
534.969
  0
LINE
  8
0
 10
110.432
 20
534.969
 11
110.382
 21
535.232
  0
LINE
  8
0
 10
110.382
 20
535.232
 11
110.365
 21
535.5
  0
LINE
  8
0
 10
110.365
 20
535.5
 11
110.382
 21
535.768
  0
LINE
  8
0
 10
110.382
 20
535.768
 11
110.432
 21
536.031
  0
LINE
  8
0
 10
110.432
 20
536.031
 11
110.515
 21
536.286
  0
LINE
  8
0
 10
110.515
 20
536.286
 11
110.629
 21
536.529
  0
LINE
  8
0
 10
110.629
 20
536.529
 11
110.773
 21
536.755
  0
LINE
  8
0
 10
110.773
 20
536.755
 11
110.943
 21
536.962
  0
LINE
  8
0
 10
110.943
 20
536.962
 11
111.139
 21
537.145
  0
LINE
  8
0
 10
111.139
 20
537.145
 11
111.356
 21
537.303
  0
LINE
  8
0
 10
111.356
 20
537.303
 11
111.591
 21
537.432
  0
LINE
  8
0
 10
111.591
 20
537.432
 11
111.84
 21
537.531
  0
LINE
  8
0
 10
111.84
 20
537.531
 11
112.1
 21
537.597
  0
LINE
  8
0
 10
112.1
 20
537.597
 11
112.366
 21
537.631
  0
LINE
  8
0
 10
112.366
 20
537.631
 11
112.634
 21
537.631
  0
LINE
  8
0
 10
112.634
 20
537.631
 11
112.9
 21
537.597
  0
LINE
  8
0
 10
112.9
 20
537.597
 11
113.16
 21
537.531
  0
LINE
  8
0
 10
113.16
 20
537.531
 11
113.409
 21
537.432
  0
LINE
  8
0
 10
113.409
 20
537.432
 11
113.644
 21
537.303
  0
LINE
  8
0
 10
113.644
 20
537.303
 11
113.861
 21
537.145
  0
LINE
  8
0
 10
113.861
 20
537.145
 11
114.057
 21
536.962
  0
LINE
  8
0
 10
114.057
 20
536.962
 11
114.227
 21
536.755
  0
LINE
  8
0
 10
114.227
 20
536.755
 11
114.371
 21
536.529
  0
LINE
  8
0
 10
114.371
 20
536.529
 11
114.485
 21
536.286
  0
LINE
  8
0
 10
114.485
 20
536.286
 11
114.568
 21
536.031
  0
LINE
  8
0
 10
114.568
 20
536.031
 11
114.618
 21
535.768
  0
LINE
  8
0
 10
114.618
 20
535.768
 11
114.635
 21
535.5
  0
LINE
  8
0
 10
114.635
 20
535.5
 11
114.618
 21
535.232
  0
LINE
  8
0
 10
114.618
 20
535.232
 11
114.568
 21
534.969
  0
LINE
  8
0
 10
114.568
 20
534.969
 11
114.485
 21
534.714
  0
LINE
  8
0
 10
114.485
 20
534.714
 11
114.371
 21
534.471
  0
LINE
  8
0
 10
114.371
 20
534.471
 11
114.227
 21
534.245
  0
LINE
  8
0
 10
114.227
 20
534.245
 11
114.057
 21
534.038
  0
LINE
  8
0
 10
114.057
 20
534.038
 11
113.861
 21
533.855
  0
LINE
  8
0
 10
113.861
 20
533.855
 11
113.644
 21
533.697
  0
LINE
  8
0
 10
113.644
 20
533.697
 11
113.409
 21
533.568
  0
LINE
  8
0
 10
113.409
 20
533.568
 11
113.16
 21
533.469
  0
LINE
  8
0
 10
113.16
 20
533.469
 11
112.9
 21
533.403
  0
LINE
  8
0
 10
112.9
 20
533.403
 11
112.634
 21
533.369
  0
LINE
  8
0
 10
112.634
 20
533.369
 11
112.366
 21
533.369
  0
LINE
  8
0
 10
-112.634
 20
533.369
 11
-112.9
 21
533.403
  0
LINE
  8
0
 10
-112.9
 20
533.403
 11
-113.16
 21
533.469
  0
LINE
  8
0
 10
-113.16
 20
533.469
 11
-113.409
 21
533.568
  0
LINE
  8
0
 10
-113.409
 20
533.568
 11
-113.644
 21
533.697
  0
LINE
  8
0
 10
-113.644
 20
533.697
 11
-113.861
 21
533.855
  0
LINE
  8
0
 10
-113.861
 20
533.855
 11
-114.057
 21
534.038
  0
LINE
  8
0
 10
-114.057
 20
534.038
 11
-114.227
 21
534.245
  0
LINE
  8
0
 10
-114.227
 20
534.245
 11
-114.371
 21
534.471
  0
LINE
  8
0
 10
-114.371
 20
534.471
 11
-114.485
 21
534.714
  0
LINE
  8
0
 10
-114.485
 20
534.714
 11
-114.568
 21
534.969
  0
LINE
  8
0
 10
-114.568
 20
534.969
 11
-114.618
 21
535.232
  0
LINE
  8
0
 10
-114.618
 20
535.232
 11
-114.635
 21
535.5
  0
LINE
  8
0
 10
-114.635
 20
535.5
 11
-114.618
 21
535.768
  0
LINE
  8
0
 10
-114.618
 20
535.768
 11
-114.568
 21
536.031
  0
LINE
  8
0
 10
-114.568
 20
536.031
 11
-114.485
 21
536.286
  0
LINE
  8
0
 10
-114.485
 20
536.286
 11
-114.371
 21
536.529
  0
LINE
  8
0
 10
-114.371
 20
536.529
 11
-114.227
 21
536.755
  0
LINE
  8
0
 10
-114.227
 20
536.755
 11
-114.057
 21
536.962
  0
LINE
  8
0
 10
-114.057
 20
536.962
 11
-113.861
 21
537.145
  0
LINE
  8
0
 10
-113.861
 20
537.145
 11
-113.644
 21
537.303
  0
LINE
  8
0
 10
-113.644
 20
537.303
 11
-113.409
 21
537.432
  0
LINE
  8
0
 10
-113.409
 20
537.432
 11
-113.16
 21
537.531
  0
LINE
  8
0
 10
-113.16
 20
537.531
 11
-112.9
 21
537.597
  0
LINE
  8
0
 10
-112.9
 20
537.597
 11
-112.634
 21
537.631
  0
LINE
  8
0
 10
-112.634
 20
537.631
 11
-112.366
 21
537.631
  0
LINE
  8
0
 10
-112.366
 20
537.631
 11
-112.1
 21
537.597
  0
LINE
  8
0
 10
-112.1
 20
537.597
 11
-111.84
 21
537.531
  0
LINE
  8
0
 10
-111.84
 20
537.531
 11
-111.591
 21
537.432
  0
LINE
  8
0
 10
-111.591
 20
537.432
 11
-111.356
 21
537.303
  0
LINE
  8
0
 10
-111.356
 20
537.303
 11
-111.139
 21
537.145
  0
LINE
  8
0
 10
-111.139
 20
537.145
 11
-110.943
 21
536.962
  0
LINE
  8
0
 10
-110.943
 20
536.962
 11
-110.773
 21
536.755
  0
LINE
  8
0
 10
-110.773
 20
536.755
 11
-110.629
 21
536.529
  0
LINE
  8
0
 10
-110.629
 20
536.529
 11
-110.515
 21
536.286
  0
LINE
  8
0
 10
-110.515
 20
536.286
 11
-110.432
 21
536.031
  0
LINE
  8
0
 10
-110.432
 20
536.031
 11
-110.382
 21
535.768
  0
LINE
  8
0
 10
-110.382
 20
535.768
 11
-110.365
 21
535.5
  0
LINE
  8
0
 10
-110.365
 20
535.5
 11
-110.382
 21
535.232
  0
LINE
  8
0
 10
-110.382
 20
535.232
 11
-110.432
 21
534.969
  0
LINE
  8
0
 10
-110.432
 20
534.969
 11
-110.515
 21
534.714
  0
LINE
  8
0
 10
-110.515
 20
534.714
 11
-110.629
 21
534.471
  0
LINE
  8
0
 10
-110.629
 20
534.471
 11
-110.773
 21
534.245
  0
LINE
  8
0
 10
-110.773
 20
534.245
 11
-110.943
 21
534.038
  0
LINE
  8
0
 10
-110.943
 20
534.038
 11
-111.139
 21
533.855
  0
LINE
  8
0
 10
-111.139
 20
533.855
 11
-111.356
 21
533.697
  0
LINE
  8
0
 10
-111.356
 20
533.697
 11
-111.591
 21
533.568
  0
LINE
  8
0
 10
-111.591
 20
533.568
 11
-111.84
 21
533.469
  0
LINE
  8
0
 10
-111.84
 20
533.469
 11
-112.1
 21
533.403
  0
LINE
  8
0
 10
-112.1
 20
533.403
 11
-112.366
 21
533.369
  0
LINE
  8
0
 10
-112.366
 20
533.369
 11
-112.634
 21
533.369
  0
LINE
  8
0
 10
112.366
 20
338.369
 11
112.1
 21
338.403
  0
LINE
  8
0
 10
112.1
 20
338.403
 11
111.84
 21
338.469
  0
LINE
  8
0
 10
111.84
 20
338.469
 11
111.591
 21
338.568
  0
LINE
  8
0
 10
111.591
 20
338.568
 11
111.356
 21
338.697
  0
LINE
  8
0
 10
111.356
 20
338.697
 11
111.139
 21
338.855
  0
LINE
  8
0
 10
111.139
 20
338.855
 11
110.943
 21
339.038
  0
LINE
  8
0
 10
110.943
 20
339.038
 11
110.773
 21
339.245
  0
LINE
  8
0
 10
110.773
 20
339.245
 11
110.629
 21
339.471
  0
LINE
  8
0
 10
110.629
 20
339.471
 11
110.515
 21
339.714
  0
LINE
  8
0
 10
110.515
 20
339.714
 11
110.432
 21
339.969
  0
LINE
  8
0
 10
110.432
 20
339.969
 11
110.382
 21
340.232
  0
LINE
  8
0
 10
110.382
 20
340.232
 11
110.365
 21
340.5
  0
LINE
  8
0
 10
110.365
 20
340.5
 11
110.382
 21
340.768
  0
LINE
  8
0
 10
110.382
 20
340.768
 11
110.432
 21
341.031
  0
LINE
  8
0
 10
110.432
 20
341.031
 11
110.515
 21
341.286
  0
LINE
  8
0
 10
110.515
 20
341.286
 11
110.629
 21
341.529
  0
LINE
  8
0
 10
110.629
 20
341.529
 11
110.773
 21
341.755
  0
LINE
  8
0
 10
110.773
 20
341.755
 11
110.943
 21
341.962
  0
LINE
  8
0
 10
110.943
 20
341.962
 11
111.139
 21
342.145
  0
LINE
  8
0
 10
111.139
 20
342.145
 11
111.356
 21
342.303
  0
LINE
  8
0
 10
111.356
 20
342.303
 11
111.591
 21
342.432
  0
LINE
  8
0
 10
111.591
 20
342.432
 11
111.84
 21
342.531
  0
LINE
  8
0
 10
111.84
 20
342.531
 11
112.1
 21
342.597
  0
LINE
  8
0
 10
112.1
 20
342.597
 11
112.366
 21
342.631
  0
LINE
  8
0
 10
112.366
 20
342.631
 11
112.634
 21
342.631
  0
LINE
  8
0
 10
112.634
 20
342.631
 11
112.9
 21
342.597
  0
LINE
  8
0
 10
112.9
 20
342.597
 11
113.16
 21
342.531
  0
LINE
  8
0
 10
113.16
 20
342.531
 11
113.409
 21
342.432
  0
LINE
  8
0
 10
113.409
 20
342.432
 11
113.644
 21
342.303
  0
LINE
  8
0
 10
113.644
 20
342.303
 11
113.861
 21
342.145
  0
LINE
  8
0
 10
113.861
 20
342.145
 11
114.057
 21
341.962
  0
LINE
  8
0
 10
114.057
 20
341.962
 11
114.227
 21
341.755
  0
LINE
  8
0
 10
114.227
 20
341.755
 11
114.371
 21
341.529
  0
LINE
  8
0
 10
114.371
 20
341.529
 11
114.485
 21
341.286
  0
LINE
  8
0
 10
114.485
 20
341.286
 11
114.568
 21
341.031
  0
LINE
  8
0
 10
114.568
 20
341.031
 11
114.618
 21
340.768
  0
LINE
  8
0
 10
114.618
 20
340.768
 11
114.635
 21
340.5
  0
LINE
  8
0
 10
114.635
 20
340.5
 11
114.618
 21
340.232
  0
LINE
  8
0
 10
114.618
 20
340.232
 11
114.568
 21
339.969
  0
LINE
  8
0
 10
114.568
 20
339.969
 11
114.485
 21
339.714
  0
LINE
  8
0
 10
114.485
 20
339.714
 11
114.371
 21
339.471
  0
LINE
  8
0
 10
114.371
 20
339.471
 11
114.227
 21
339.245
  0
LINE
  8
0
 10
114.227
 20
339.245
 11
114.057
 21
339.038
  0
LINE
  8
0
 10
114.057
 20
339.038
 11
113.861
 21
338.855
  0
LINE
  8
0
 10
113.861
 20
338.855
 11
113.644
 21
338.697
  0
LINE
  8
0
 10
113.644
 20
338.697
 11
113.409
 21
338.568
  0
LINE
  8
0
 10
113.409
 20
338.568
 11
113.16
 21
338.469
  0
LINE
  8
0
 10
113.16
 20
338.469
 11
112.9
 21
338.403
  0
LINE
  8
0
 10
112.9
 20
338.403
 11
112.634
 21
338.369
  0
LINE
  8
0
 10
112.634
 20
338.369
 11
112.366
 21
338.369
  0
LINE
  8
0
 10
-112.634
 20
338.369
 11
-112.9
 21
338.403
  0
LINE
  8
0
 10
-112.9
 20
338.403
 11
-113.16
 21
338.469
  0
LINE
  8
0
 10
-113.16
 20
338.469
 11
-113.409
 21
338.568
  0
LINE
  8
0
 10
-113.409
 20
338.568
 11
-113.644
 21
338.697
  0
LINE
  8
0
 10
-113.644
 20
338.697
 11
-113.861
 21
338.855
  0
LINE
  8
0
 10
-113.861
 20
338.855
 11
-114.057
 21
339.038
  0
LINE
  8
0
 10
-114.057
 20
339.038
 11
-114.227
 21
339.245
  0
LINE
  8
0
 10
-114.227
 20
339.245
 11
-114.371
 21
339.471
  0
LINE
  8
0
 10
-114.371
 20
339.471
 11
-114.485
 21
339.714
  0
LINE
  8
0
 10
-114.485
 20
339.714
 11
-114.568
 21
339.969
  0
LINE
  8
0
 10
-114.568
 20
339.969
 11
-114.618
 21
340.232
  0
LINE
  8
0
 10
-114.618
 20
340.232
 11
-114.635
 21
340.5
  0
LINE
  8
0
 10
-114.635
 20
340.5
 11
-114.618
 21
340.768
  0
LINE
  8
0
 10
-114.618
 20
340.768
 11
-114.568
 21
341.031
  0
LINE
  8
0
 10
-114.568
 20
341.031
 11
-114.485
 21
341.286
  0
LINE
  8
0
 10
-114.485
 20
341.286
 11
-114.371
 21
341.529
  0
LINE
  8
0
 10
-114.371
 20
341.529
 11
-114.227
 21
341.755
  0
LINE
  8
0
 10
-114.227
 20
341.755
 11
-114.057
 21
341.962
  0
LINE
  8
0
 10
-114.057
 20
341.962
 11
-113.861
 21
342.145
  0
LINE
  8
0
 10
-113.861
 20
342.145
 11
-113.644
 21
342.303
  0
LINE
  8
0
 10
-113.644
 20
342.303
 11
-113.409
 21
342.432
  0
LINE
  8
0
 10
-113.409
 20
342.432
 11
-113.16
 21
342.531
  0
LINE
  8
0
 10
-113.16
 20
342.531
 11
-112.9
 21
342.597
  0
LINE
  8
0
 10
-112.9
 20
342.597
 11
-112.634
 21
342.631
  0
LINE
  8
0
 10
-112.634
 20
342.631
 11
-112.366
 21
342.631
  0
LINE
  8
0
 10
-112.366
 20
342.631
 11
-112.1
 21
342.597
  0
LINE
  8
0
 10
-112.1
 20
342.597
 11
-111.84
 21
342.531
  0
LINE
  8
0
 10
-111.84
 20
342.531
 11
-111.591
 21
342.432
  0
LINE
  8
0
 10
-111.591
 20
342.432
 11
-111.356
 21
342.303
  0
LINE
  8
0
 10
-111.356
 20
342.303
 11
-111.139
 21
342.145
  0
LINE
  8
0
 10
-111.139
 20
342.145
 11
-110.943
 21
341.962
  0
LINE
  8
0
 10
-110.943
 20
341.962
 11
-110.773
 21
341.755
  0
LINE
  8
0
 10
-110.773
 20
341.755
 11
-110.629
 21
341.529
  0
LINE
  8
0
 10
-110.629
 20
341.529
 11
-110.515
 21
341.286
  0
LINE
  8
0
 10
-110.515
 20
341.286
 11
-110.432
 21
341.031
  0
LINE
  8
0
 10
-110.432
 20
341.031
 11
-110.382
 21
340.768
  0
LINE
  8
0
 10
-110.382
 20
340.768
 11
-110.365
 21
340.5
  0
LINE
  8
0
 10
-110.365
 20
340.5
 11
-110.382
 21
340.232
  0
LINE
  8
0
 10
-110.382
 20
340.232
 11
-110.432
 21
339.969
  0
LINE
  8
0
 10
-110.432
 20
339.969
 11
-110.515
 21
339.714
  0
LINE
  8
0
 10
-110.515
 20
339.714
 11
-110.629
 21
339.471
  0
LINE
  8
0
 10
-110.629
 20
339.471
 11
-110.773
 21
339.245
  0
LINE
  8
0
 10
-110.773
 20
339.245
 11
-110.943
 21
339.038
  0
LINE
  8
0
 10
-110.943
 20
339.038
 11
-111.139
 21
338.855
  0
LINE
  8
0
 10
-111.139
 20
338.855
 11
-111.356
 21
338.697
  0
LINE
  8
0
 10
-111.356
 20
338.697
 11
-111.591
 21
338.568
  0
LINE
  8
0
 10
-111.591
 20
338.568
 11
-111.84
 21
338.469
  0
LINE
  8
0
 10
-111.84
 20
338.469
 11
-112.1
 21
338.403
  0
LINE
  8
0
 10
-112.1
 20
338.403
 11
-112.366
 21
338.369
  0
LINE
  8
0
 10
-112.366
 20
338.369
 11
-112.634
 21
338.369
  0
ENDSEC
  0
SECTION
  2
OBJECTS
  0
DICTIONARY
  0
ENDSEC
  0
EOF
