<?xml version="1.0" standalone="no"?>
<!DOCTYPE svg PUBLIC "-//W3C//DTD SVG 1.1//EN" "http://www.w3.org/Graphics/SVG/1.1/DTD/svg11.dtd">
<svg width="242mm" height="429mm" viewBox="-122 -762 242 429" xmlns="http://www.w3.org/2000/svg" version="1.1">
<title>OpenSCAD Model</title>
<path d="
M 115.937,-552.089 L 116.545,-552.245 L 117.129,-552.476 L 117.679,-552.778 L 118.187,-553.147 L 118.645,-553.577
 L 119.045,-554.061 L 119.382,-554.591 L 119.649,-555.159 L 119.843,-555.757 L 119.961,-556.373 L 120,-557
 L 120,-757 L 119.961,-757.627 L 119.843,-758.243 L 119.649,-758.841 L 119.382,-759.409 L 119.045,-759.939
 L 118.645,-760.423 L 118.187,-760.853 L 117.679,-761.222 L 117.129,-761.524 L 116.545,-761.755 L 115.937,-761.911
 L 115.314,-761.99 L -115.314,-761.99 L -115.937,-761.911 L -116.545,-761.755 L -117.129,-761.524 L -117.679,-761.222
 L -118.187,-760.853 L -118.5,-760.559 L -118.5,-761.979 L -121.5,-761.979 L -121.5,-552.021 L -118.5,-552.021
 L -118.5,-553.441 L -118.187,-553.147 L -117.679,-552.778 L -117.129,-552.476 L -116.545,-552.245 L -115.937,-552.089
 L -115.314,-552.01 L 115.314,-552.01 z
M -114.695,-554.393 L -115.083,-554.442 L -115.462,-554.539 L -115.825,-554.683 L -116.168,-554.872 L -116.484,-555.101
 L -116.769,-555.369 L -117.018,-555.67 L -117.228,-556 L -117.394,-556.354 L -117.515,-556.726 L -117.588,-557.11
 L -117.613,-557.5 L -117.613,-756.5 L -117.588,-756.89 L -117.515,-757.274 L -117.394,-757.646 L -117.228,-758
 L -117.018,-758.33 L -116.769,-758.631 L -116.484,-758.899 L -116.168,-759.128 L -115.825,-759.317 L -115.462,-759.461
 L -115.083,-759.558 L -114.695,-759.607 L 114.695,-759.607 L 115.083,-759.558 L 115.462,-759.461 L 115.825,-759.317
 L 116.168,-759.128 L 116.484,-758.899 L 116.769,-758.631 L 117.018,-758.33 L 117.228,-758 L 117.394,-757.646
 L 117.515,-757.274 L 117.588,-756.89 L 117.613,-756.5 L 117.613,-557.5 L 117.588,-557.11 L 117.515,-556.726
 L 117.394,-556.354 L 117.228,-556 L 117.018,-555.67 L 116.769,-555.369 L 116.484,-555.101 L 116.168,-554.872
 L 115.825,-554.683 L 115.462,-554.539 L 115.083,-554.442 L 114.695,-554.393 z
M 115.937,-333.089 L 116.545,-333.245 L 117.129,-333.476 L 117.679,-333.778 L 118.187,-334.147 L 118.645,-334.577
 L 119.045,-335.061 L 119.382,-335.591 L 119.649,-336.159 L 119.843,-336.757 L 119.961,-337.373 L 120,-338
 L 120,-538 L 119.961,-538.627 L 119.843,-539.243 L 119.649,-539.841 L 119.382,-540.409 L 119.045,-540.939
 L 118.645,-541.423 L 118.187,-541.853 L 117.679,-542.222 L 117.129,-542.524 L 116.545,-542.755 L 115.937,-542.911
 L 115.314,-542.99 L -115.314,-542.99 L -115.937,-542.911 L -116.545,-542.755 L -117.129,-542.524 L -117.679,-542.222
 L -118.187,-541.853 L -118.5,-541.559 L -118.5,-541.653 L -121.5,-541.653 L -121.5,-334.347 L -118.5,-334.347
 L -118.5,-334.441 L -118.187,-334.147 L -117.679,-333.778 L -117.129,-333.476 L -116.545,-333.245 L -115.937,-333.089
 L -115.314,-333.01 L 115.314,-333.01 z
M 112.366,-533.369 L 112.1,-533.403 L 111.84,-533.469 L 111.591,-533.568 L 111.356,-533.697 L 111.139,-533.855
 L 110.943,-534.038 L 110.773,-534.245 L 110.629,-534.471 L 110.515,-534.714 L 110.432,-534.969 L 110.382,-535.232
 L 110.365,-535.5 L 110.382,-535.768 L 110.432,-536.031 L 110.515,-536.286 L 110.629,-536.529 L 110.773,-536.755
 L 110.943,-536.962 L 111.139,-537.145 L 111.356,-537.303 L 111.591,-537.432 L 111.84,-537.531 L 112.1,-537.597
 L 112.366,-537.631 L 112.634,-537.631 L 112.9,-537.597 L 113.16,-537.531 L 113.409,-537.432 L 113.644,-537.303
 L 113.861,-537.145 L 114.057,-536.962 L 114.227,-536.755 L 114.371,-536.529 L 114.485,-536.286 L 114.568,-536.031
 L 114.618,-535.768 L 114.635,-535.5 L 114.618,-535.232 L 114.568,-534.969 L 114.485,-534.714 L 114.371,-534.471
 L 114.227,-534.245 L 114.057,-534.038 L 113.861,-533.855 L 113.644,-533.697 L 113.409,-533.568 L 113.16,-533.469
 L 112.9,-533.403 L 112.634,-533.369 z
M -112.634,-533.369 L -112.9,-533.403 L -113.16,-533.469 L -113.409,-533.568 L -113.644,-533.697 L -113.861,-533.855
 L -114.057,-534.038 L -114.227,-534.245 L -114.371,-534.471 L -114.485,-534.714 L -114.568,-534.969 L -114.618,-535.232
 L -114.635,-535.5 L -114.618,-535.768 L -114.568,-536.031 L -114.485,-536.286 L -114.371,-536.529 L -114.227,-536.755
 L -114.057,-536.962 L -113.861,-537.145 L -113.644,-537.303 L -113.409,-537.432 L -113.16,-537.531 L -112.9,-537.597
 L -112.634,-537.631 L -112.366,-537.631 L -112.1,-537.597 L -111.84,-537.531 L -111.591,-537.432 L -111.356,-537.303
 L -111.139,-537.145 L -110.943,-536.962 L -110.773,-536.755 L -110.629,-536.529 L -110.515,-536.286 L -110.432,-536.031
 L -110.382,-535.768 L -110.365,-535.5 L -110.382,-535.232 L -110.432,-534.969 L -110.515,-534.714 L -110.629,-534.471
 L -110.773,-534.245 L -110.943,-534.038 L -111.139,-533.855 L -111.356,-533.697 L -111.591,-533.568 L -111.84,-533.469
 L -112.1,-533.403 L -112.366,-533.369 z
M 112.366,-338.369 L 112.1,-338.403 L 111.84,-338.469 L 111.591,-338.568 L 111.356,-338.697 L 111.139,-338.855
 L 110.943,-339.038 L 110.773,-339.245 L 110.629,-339.471 L 110.515,-339.714 L 110.432,-339.969 L 110.382,-340.232
 L 110.365,-340.5 L 110.382,-340.768 L 110.432,-341.031 L 110.515,-341.286 L 110.629,-341.529 L 110.773,-341.755
 L 110.943,-341.962 L 111.139,-342.145 L 111.356,-342.303 L 111.591,-342.432 L 111.84,-342.531 L 112.1,-342.597
 L 112.366,-342.631 L 112.634,-342.631 L 112.9,-342.597 L 113.16,-342.531 L 113.409,-342.432 L 113.644,-342.303
 L 113.861,-342.145 L 114.057,-341.962 L 114.227,-341.755 L 114.371,-341.529 L 114.485,-341.286 L 114.568,-341.031
 L 114.618,-340.768 L 114.635,-340.5 L 114.618,-340.232 L 114.568,-339.969 L 114.485,-339.714 L 114.371,-339.471
 L 114.227,-339.245 L 114.057,-339.038 L 113.861,-338.855 L 113.644,-338.697 L 113.409,-338.568 L 113.16,-338.469
 L 112.9,-338.403 L 112.634,-338.369 z
M -112.634,-338.369 L -112.9,-338.403 L -113.16,-338.469 L -113.409,-338.568 L -113.644,-338.697 L -113.861,-338.855
 L -114.057,-339.038 L -114.227,-339.245 L -114.371,-339.471 L -114.485,-339.714 L -114.568,-339.969 L -114.618,-340.232
 L -114.635,-340.5 L -114.618,-340.768 L -114.568,-341.031 L -114.485,-341.286 L -114.371,-341.529 L -114.227,-341.755
 L -114.057,-341.962 L -113.861,-342.145 L -113.644,-342.303 L -113.409,-342.432 L -113.16,-342.531 L -112.9,-342.597
 L -112.634,-342.631 L -112.366,-342.631 L -112.1,-342.597 L -111.84,-342.531 L -111.591,-342.432 L -111.356,-342.303
 L -111.139,-342.145 L -110.943,-341.962 L -110.773,-341.755 L -110.629,-341.529 L -110.515,-341.286 L -110.432,-341.031
 L -110.382,-340.768 L -110.365,-340.5 L -110.382,-340.232 L -110.432,-339.969 L -110.515,-339.714 L -110.629,-339.471
 L -110.773,-339.245 L -110.943,-339.038 L -111.139,-338.855 L -111.356,-338.697 L -111.591,-338.568 L -111.84,-338.469
 L -112.1,-338.403 L -112.366,-338.369 z
" stroke="black" fill="lightgray" stroke-width="0.5"/>
</svg>
