<?xml version="1.0" standalone="no"?>
<!DOCTYPE svg PUBLIC "-//W3C//DTD SVG 1.1//EN" "http://www.w3.org/Graphics/SVG/1.1/DTD/svg11.dtd">
<svg width="270mm" height="244mm" viewBox="-135 -458 270 244" xmlns="http://www.w3.org/2000/svg" version="1.1">
<title>OpenSCAD Model</title>
<path d="
M 130.937,-382.589 L 131.545,-382.745 L 132.129,-382.976 L 132.679,-383.278 L 133.187,-383.647 L 133.645,-384.077
 L 134.045,-384.561 L 134.382,-385.091 L 134.649,-385.659 L 134.843,-386.257 L 134.961,-386.873 L 135,-387.5
 L 135,-452.5 L 134.961,-453.127 L 134.843,-453.743 L 134.649,-454.341 L 134.382,-454.909 L 134.045,-455.439
 L 133.645,-455.923 L 133.187,-456.353 L 132.679,-456.722 L 132.129,-457.024 L 131.545,-457.255 L 130.937,-457.411
 L 130.314,-457.49 L -130.314,-457.49 L -130.937,-457.411 L -131.545,-457.255 L -132.129,-457.024 L -132.679,-456.722
 L -133.187,-456.353 L -133.645,-455.923 L -134.045,-455.439 L -134.382,-454.909 L -134.649,-454.341 L -134.843,-453.743
 L -134.961,-453.127 L -135,-452.5 L -135,-387.5 L -134.961,-386.873 L -134.843,-386.257 L -134.649,-385.659
 L -134.382,-385.091 L -134.045,-384.561 L -133.645,-384.077 L -133.187,-383.647 L -132.679,-383.278 L -132.129,-382.976
 L -131.545,-382.745 L -130.937,-382.589 L -130.314,-382.51 L 130.314,-382.51 z
M -130.048,-383.009 L -130.64,-383.084 L -131.218,-383.232 L -131.772,-383.452 L -132.295,-383.739 L -132.778,-384.09
 L -133.213,-384.498 L -133.593,-384.958 L -133.912,-385.462 L -134.166,-386.001 L -134.351,-386.569 L -134.463,-387.155
 L -134.5,-387.75 L -134.5,-452.25 L -134.463,-452.845 L -134.351,-453.431 L -134.166,-453.999 L -133.912,-454.538
 L -133.593,-455.042 L -133.213,-455.502 L -132.778,-455.91 L -132.295,-456.261 L -131.772,-456.548 L -131.218,-456.768
 L -130.64,-456.916 L -130.048,-456.991 L 130.048,-456.991 L 130.64,-456.916 L 131.218,-456.768 L 131.772,-456.548
 L 132.295,-456.261 L 132.778,-455.91 L 133.213,-455.502 L 133.593,-455.042 L 133.912,-454.538 L 134.166,-453.999
 L 134.351,-453.431 L 134.463,-452.845 L 134.5,-452.25 L 134.5,-387.75 L 134.463,-387.155 L 134.351,-386.569
 L 134.166,-386.001 L 133.912,-385.462 L 133.593,-384.958 L 133.213,-384.498 L 132.778,-384.09 L 132.295,-383.739
 L 131.772,-383.452 L 131.218,-383.232 L 130.64,-383.084 L 130.048,-383.009 z
M 130.937,-298.589 L 131.545,-298.745 L 132.129,-298.976 L 132.679,-299.278 L 133.187,-299.647 L 133.645,-300.077
 L 134.045,-300.561 L 134.382,-301.091 L 134.649,-301.659 L 134.843,-302.257 L 134.961,-302.873 L 135,-303.5
 L 135,-368.5 L 134.961,-369.127 L 134.843,-369.743 L 134.649,-370.341 L 134.382,-370.909 L 134.045,-371.439
 L 133.645,-371.923 L 133.187,-372.353 L 132.679,-372.722 L 132.129,-373.024 L 131.545,-373.255 L 130.937,-373.411
 L 130.314,-373.49 L -130.314,-373.49 L -130.937,-373.411 L -131.545,-373.255 L -132.129,-373.024 L -132.679,-372.722
 L -133.187,-372.353 L -133.645,-371.923 L -134.045,-371.439 L -134.382,-370.909 L -134.649,-370.341 L -134.843,-369.743
 L -134.961,-369.127 L -135,-368.5 L -135,-303.5 L -134.961,-302.873 L -134.843,-302.257 L -134.649,-301.659
 L -134.382,-301.091 L -134.045,-300.561 L -133.645,-300.077 L -133.187,-299.647 L -132.679,-299.278 L -132.129,-298.976
 L -131.545,-298.745 L -130.937,-298.589 L -130.314,-298.51 L 130.314,-298.51 z
M -130.037,-299.181 L -130.608,-299.253 L -131.165,-299.396 L -131.699,-299.607 L -132.203,-299.884 L -132.668,-300.222
 L -133.088,-300.616 L -133.454,-301.059 L -133.762,-301.544 L -134.007,-302.065 L -134.185,-302.611 L -134.292,-303.176
 L -134.328,-303.75 L -134.328,-368.25 L -134.292,-368.824 L -134.185,-369.389 L -134.007,-369.935 L -133.762,-370.456
 L -133.454,-370.941 L -133.088,-371.384 L -132.668,-371.778 L -132.203,-372.116 L -131.699,-372.393 L -131.165,-372.604
 L -130.608,-372.747 L -130.037,-372.819 L 130.037,-372.819 L 130.608,-372.747 L 131.165,-372.604 L 131.699,-372.393
 L 132.203,-372.116 L 132.668,-371.778 L 133.088,-371.384 L 133.454,-370.941 L 133.762,-370.456 L 134.007,-369.935
 L 134.185,-369.389 L 134.292,-368.824 L 134.328,-368.25 L 134.328,-303.75 L 134.292,-303.176 L 134.185,-302.611
 L 134.007,-302.065 L 133.762,-301.544 L 133.454,-301.059 L 133.088,-300.616 L 132.668,-300.222 L 132.203,-299.884
 L 131.699,-299.607 L 131.165,-299.396 L 130.608,-299.253 L 130.037,-299.181 z
M 130.937,-214.589 L 131.545,-214.745 L 132.129,-214.976 L 132.679,-215.278 L 133.187,-215.647 L 133.645,-216.077
 L 134.045,-216.561 L 134.382,-217.091 L 134.649,-217.659 L 134.843,-218.257 L 134.961,-218.873 L 135,-219.5
 L 135,-284.5 L 134.961,-285.127 L 134.843,-285.743 L 134.649,-286.341 L 134.382,-286.909 L 134.045,-287.439
 L 133.645,-287.923 L 133.187,-288.353 L 132.679,-288.722 L 132.129,-289.024 L 131.545,-289.255 L 130.937,-289.411
 L 130.314,-289.49 L -130.314,-289.49 L -130.937,-289.411 L -131.545,-289.255 L -132.129,-289.024 L -132.679,-288.722
 L -133.187,-288.353 L -133.645,-287.923 L -134.045,-287.439 L -134.382,-286.909 L -134.649,-286.341 L -134.843,-285.743
 L -134.961,-285.127 L -135,-284.5 L -135,-219.5 L -134.961,-218.873 L -134.843,-218.257 L -134.649,-217.659
 L -134.382,-217.091 L -134.045,-216.561 L -133.645,-216.077 L -133.187,-215.647 L -132.679,-215.278 L -132.129,-214.976
 L -131.545,-214.745 L -130.937,-214.589 L -130.314,-214.51 L 130.314,-214.51 z
M -129.882,-217.645 L -130.145,-217.678 L -130.402,-217.744 L -130.648,-217.841 L -130.88,-217.969 L -131.095,-218.125
 L -131.288,-218.306 L -131.457,-218.51 L -131.599,-218.734 L -131.711,-218.973 L -131.793,-219.225 L -131.843,-219.486
 L -131.86,-219.75 L -131.86,-284.25 L -131.843,-284.514 L -131.793,-284.775 L -131.711,-285.027 L -131.599,-285.266
 L -131.457,-285.49 L -131.288,-285.694 L -131.095,-285.875 L -130.88,-286.031 L -130.648,-286.159 L -130.402,-286.256
 L -130.145,-286.322 L -129.882,-286.355 L 129.882,-286.355 L 130.145,-286.322 L 130.402,-286.256 L 130.648,-286.159
 L 130.88,-286.031 L 131.095,-285.875 L 131.288,-285.694 L 131.457,-285.49 L 131.599,-285.266 L 131.711,-285.027
 L 131.793,-284.775 L 131.843,-284.514 L 131.86,-284.25 L 131.86,-219.75 L 131.843,-219.486 L 131.793,-219.225
 L 131.711,-218.973 L 131.599,-218.734 L 131.457,-218.51 L 131.288,-218.306 L 131.095,-218.125 L 130.88,-217.969
 L 130.648,-217.841 L 130.402,-217.744 L 130.145,-217.678 L 129.882,-217.645 z
" stroke="black" fill="lightgray" stroke-width="0.5"/>
</svg>
