  0
SECTION
  2
BLOCKS
  0
ENDSEC
  0
SECTION
  2
ENTITIES
  0
LINE
  8
0
 10
130.937
 20
193.589
 11
131.545
 21
193.745
  0
LINE
  8
0
 10
131.545
 20
193.745
 11
132.129
 21
193.976
  0
LINE
  8
0
 10
132.129
 20
193.976
 11
132.679
 21
194.278
  0
LINE
  8
0
 10
132.679
 20
194.278
 11
133.187
 21
194.647
  0
LINE
  8
0
 10
133.187
 20
194.647
 11
133.645
 21
195.077
  0
LINE
  8
0
 10
133.645
 20
195.077
 11
134.045
 21
195.561
  0
LINE
  8
0
 10
134.045
 20
195.561
 11
134.382
 21
196.091
  0
LINE
  8
0
 10
134.382
 20
196.091
 11
134.649
 21
196.659
  0
LINE
  8
0
 10
134.649
 20
196.659
 11
134.843
 21
197.257
  0
LINE
  8
0
 10
134.843
 20
197.257
 11
134.961
 21
197.873
  0
LINE
  8
0
 10
134.961
 20
197.873
 11
135
 21
198.5
  0
LINE
  8
0
 10
135
 20
198.5
 11
135
 21
233.5
  0
LINE
  8
0
 10
135
 20
233.5
 11
134.961
 21
234.127
  0
LINE
  8
0
 10
134.961
 20
234.127
 11
134.843
 21
234.743
  0
LINE
  8
0
 10
134.843
 20
234.743
 11
134.649
 21
235.341
  0
LINE
  8
0
 10
134.649
 20
235.341
 11
134.382
 21
235.909
  0
LINE
  8
0
 10
134.382
 20
235.909
 11
134.045
 21
236.439
  0
LINE
  8
0
 10
134.045
 20
236.439
 11
133.645
 21
236.923
  0
LINE
  8
0
 10
133.645
 20
236.923
 11
133.187
 21
237.353
  0
LINE
  8
0
 10
133.187
 20
237.353
 11
132.679
 21
237.722
  0
LINE
  8
0
 10
132.679
 20
237.722
 11
132.129
 21
238.024
  0
LINE
  8
0
 10
132.129
 20
238.024
 11
131.545
 21
238.255
  0
LINE
  8
0
 10
131.545
 20
238.255
 11
130.937
 21
238.411
  0
LINE
  8
0
 10
130.937
 20
238.411
 11
130.314
 21
238.49
  0
LINE
  8
0
 10
130.314
 20
238.49
 11
-130.314
 21
238.49
  0
LINE
  8
0
 10
-130.314
 20
238.49
 11
-130.937
 21
238.411
  0
LINE
  8
0
 10
-130.937
 20
238.411
 11
-131.545
 21
238.255
  0
LINE
  8
0
 10
-131.545
 20
238.255
 11
-132.129
 21
238.024
  0
LINE
  8
0
 10
-132.129
 20
238.024
 11
-132.679
 21
237.722
  0
LINE
  8
0
 10
-132.679
 20
237.722
 11
-133.187
 21
237.353
  0
LINE
  8
0
 10
-133.187
 20
237.353
 11
-133.645
 21
236.923
  0
LINE
  8
0
 10
-133.645
 20
236.923
 11
-134.045
 21
236.439
  0
LINE
  8
0
 10
-134.045
 20
236.439
 11
-134.382
 21
235.909
  0
LINE
  8
0
 10
-134.382
 20
235.909
 11
-134.649
 21
235.341
  0
LINE
  8
0
 10
-134.649
 20
235.341
 11
-134.843
 21
234.743
  0
LINE
  8
0
 10
-134.843
 20
234.743
 11
-134.961
 21
234.127
  0
LINE
  8
0
 10
-134.961
 20
234.127
 11
-135
 21
233.5
  0
LINE
  8
0
 10
-135
 20
233.5
 11
-135
 21
198.5
  0
LINE
  8
0
 10
-135
 20
198.5
 11
-134.961
 21
197.873
  0
LINE
  8
0
 10
-134.961
 20
197.873
 11
-134.843
 21
197.257
  0
LINE
  8
0
 10
-134.843
 20
197.257
 11
-134.649
 21
196.659
  0
LINE
  8
0
 10
-134.649
 20
196.659
 11
-134.382
 21
196.091
  0
LINE
  8
0
 10
-134.382
 20
196.091
 11
-134.045
 21
195.561
  0
LINE
  8
0
 10
-134.045
 20
195.561
 11
-133.645
 21
195.077
  0
LINE
  8
0
 10
-133.645
 20
195.077
 11
-133.187
 21
194.647
  0
LINE
  8
0
 10
-133.187
 20
194.647
 11
-132.679
 21
194.278
  0
LINE
  8
0
 10
-132.679
 20
194.278
 11
-132.129
 21
193.976
  0
LINE
  8
0
 10
-132.129
 20
193.976
 11
-131.545
 21
193.745
  0
LINE
  8
0
 10
-131.545
 20
193.745
 11
-130.937
 21
193.589
  0
LINE
  8
0
 10
-130.937
 20
193.589
 11
-130.314
 21
193.51
  0
LINE
  8
0
 10
-130.314
 20
193.51
 11
130.314
 21
193.51
  0
LINE
  8
0
 10
130.314
 20
193.51
 11
130.937
 21
193.589
  0
LINE
  8
0
 10
-130.048
 20
194.009
 11
-130.64
 21
194.084
  0
LINE
  8
0
 10
-130.64
 20
194.084
 11
-131.218
 21
194.232
  0
LINE
  8
0
 10
-131.218
 20
194.232
 11
-131.772
 21
194.452
  0
LINE
  8
0
 10
-131.772
 20
194.452
 11
-132.295
 21
194.739
  0
LINE
  8
0
 10
-132.295
 20
194.739
 11
-132.778
 21
195.09
  0
LINE
  8
0
 10
-132.778
 20
195.09
 11
-133.213
 21
195.498
  0
LINE
  8
0
 10
-133.213
 20
195.498
 11
-133.593
 21
195.958
  0
LINE
  8
0
 10
-133.593
 20
195.958
 11
-133.912
 21
196.462
  0
LINE
  8
0
 10
-133.912
 20
196.462
 11
-134.166
 21
197.001
  0
LINE
  8
0
 10
-134.166
 20
197.001
 11
-134.351
 21
197.569
  0
LINE
  8
0
 10
-134.351
 20
197.569
 11
-134.463
 21
198.155
  0
LINE
  8
0
 10
-134.463
 20
198.155
 11
-134.5
 21
198.75
  0
LINE
  8
0
 10
-134.5
 20
198.75
 11
-134.5
 21
233.25
  0
LINE
  8
0
 10
-134.5
 20
233.25
 11
-134.463
 21
233.845
  0
LINE
  8
0
 10
-134.463
 20
233.845
 11
-134.351
 21
234.431
  0
LINE
  8
0
 10
-134.351
 20
234.431
 11
-134.166
 21
234.999
  0
LINE
  8
0
 10
-134.166
 20
234.999
 11
-133.912
 21
235.538
  0
LINE
  8
0
 10
-133.912
 20
235.538
 11
-133.593
 21
236.042
  0
LINE
  8
0
 10
-133.593
 20
236.042
 11
-133.213
 21
236.502
  0
LINE
  8
0
 10
-133.213
 20
236.502
 11
-132.778
 21
236.91
  0
LINE
  8
0
 10
-132.778
 20
236.91
 11
-132.295
 21
237.261
  0
LINE
  8
0
 10
-132.295
 20
237.261
 11
-131.772
 21
237.548
  0
LINE
  8
0
 10
-131.772
 20
237.548
 11
-131.218
 21
237.768
  0
LINE
  8
0
 10
-131.218
 20
237.768
 11
-130.64
 21
237.916
  0
LINE
  8
0
 10
-130.64
 20
237.916
 11
-130.048
 21
237.991
  0
LINE
  8
0
 10
-130.048
 20
237.991
 11
130.048
 21
237.991
  0
LINE
  8
0
 10
130.048
 20
237.991
 11
130.64
 21
237.916
  0
LINE
  8
0
 10
130.64
 20
237.916
 11
131.218
 21
237.768
  0
LINE
  8
0
 10
131.218
 20
237.768
 11
131.772
 21
237.548
  0
LINE
  8
0
 10
131.772
 20
237.548
 11
132.295
 21
237.261
  0
LINE
  8
0
 10
132.295
 20
237.261
 11
132.778
 21
236.91
  0
LINE
  8
0
 10
132.778
 20
236.91
 11
133.213
 21
236.502
  0
LINE
  8
0
 10
133.213
 20
236.502
 11
133.593
 21
236.042
  0
LINE
  8
0
 10
133.593
 20
236.042
 11
133.912
 21
235.538
  0
LINE
  8
0
 10
133.912
 20
235.538
 11
134.166
 21
234.999
  0
LINE
  8
0
 10
134.166
 20
234.999
 11
134.351
 21
234.431
  0
LINE
  8
0
 10
134.351
 20
234.431
 11
134.463
 21
233.845
  0
LINE
  8
0
 10
134.463
 20
233.845
 11
134.5
 21
233.25
  0
LINE
  8
0
 10
134.5
 20
233.25
 11
134.5
 21
198.75
  0
LINE
  8
0
 10
134.5
 20
198.75
 11
134.463
 21
198.155
  0
LINE
  8
0
 10
134.463
 20
198.155
 11
134.351
 21
197.569
  0
LINE
  8
0
 10
134.351
 20
197.569
 11
134.166
 21
197.001
  0
LINE
  8
0
 10
134.166
 20
197.001
 11
133.912
 21
196.462
  0
LINE
  8
0
 10
133.912
 20
196.462
 11
133.593
 21
195.958
  0
LINE
  8
0
 10
133.593
 20
195.958
 11
133.213
 21
195.498
  0
LINE
  8
0
 10
133.213
 20
195.498
 11
132.778
 21
195.09
  0
LINE
  8
0
 10
132.778
 20
195.09
 11
132.295
 21
194.739
  0
LINE
  8
0
 10
132.295
 20
194.739
 11
131.772
 21
194.452
  0
LINE
  8
0
 10
131.772
 20
194.452
 11
131.218
 21
194.232
  0
LINE
  8
0
 10
131.218
 20
194.232
 11
130.64
 21
194.084
  0
LINE
  8
0
 10
130.64
 20
194.084
 11
130.048
 21
194.009
  0
LINE
  8
0
 10
130.048
 20
194.009
 11
-130.048
 21
194.009
  0
LINE
  8
0
 10
130.937
 20
139.589
 11
131.545
 21
139.745
  0
LINE
  8
0
 10
131.545
 20
139.745
 11
132.129
 21
139.976
  0
LINE
  8
0
 10
132.129
 20
139.976
 11
132.679
 21
140.278
  0
LINE
  8
0
 10
132.679
 20
140.278
 11
133.187
 21
140.647
  0
LINE
  8
0
 10
133.187
 20
140.647
 11
133.645
 21
141.077
  0
LINE
  8
0
 10
133.645
 20
141.077
 11
134.045
 21
141.561
  0
LINE
  8
0
 10
134.045
 20
141.561
 11
134.382
 21
142.091
  0
LINE
  8
0
 10
134.382
 20
142.091
 11
134.649
 21
142.659
  0
LINE
  8
0
 10
134.649
 20
142.659
 11
134.843
 21
143.257
  0
LINE
  8
0
 10
134.843
 20
143.257
 11
134.961
 21
143.873
  0
LINE
  8
0
 10
134.961
 20
143.873
 11
135
 21
144.5
  0
LINE
  8
0
 10
135
 20
144.5
 11
135
 21
179.5
  0
LINE
  8
0
 10
135
 20
179.5
 11
134.961
 21
180.127
  0
LINE
  8
0
 10
134.961
 20
180.127
 11
134.843
 21
180.743
  0
LINE
  8
0
 10
134.843
 20
180.743
 11
134.649
 21
181.341
  0
LINE
  8
0
 10
134.649
 20
181.341
 11
134.382
 21
181.909
  0
LINE
  8
0
 10
134.382
 20
181.909
 11
134.045
 21
182.439
  0
LINE
  8
0
 10
134.045
 20
182.439
 11
133.645
 21
182.923
  0
LINE
  8
0
 10
133.645
 20
182.923
 11
133.187
 21
183.353
  0
LINE
  8
0
 10
133.187
 20
183.353
 11
132.679
 21
183.722
  0
LINE
  8
0
 10
132.679
 20
183.722
 11
132.129
 21
184.024
  0
LINE
  8
0
 10
132.129
 20
184.024
 11
131.545
 21
184.255
  0
LINE
  8
0
 10
131.545
 20
184.255
 11
130.937
 21
184.411
  0
LINE
  8
0
 10
130.937
 20
184.411
 11
130.314
 21
184.49
  0
LINE
  8
0
 10
130.314
 20
184.49
 11
-130.314
 21
184.49
  0
LINE
  8
0
 10
-130.314
 20
184.49
 11
-130.937
 21
184.411
  0
LINE
  8
0
 10
-130.937
 20
184.411
 11
-131.545
 21
184.255
  0
LINE
  8
0
 10
-131.545
 20
184.255
 11
-132.129
 21
184.024
  0
LINE
  8
0
 10
-132.129
 20
184.024
 11
-132.679
 21
183.722
  0
LINE
  8
0
 10
-132.679
 20
183.722
 11
-133.187
 21
183.353
  0
LINE
  8
0
 10
-133.187
 20
183.353
 11
-133.645
 21
182.923
  0
LINE
  8
0
 10
-133.645
 20
182.923
 11
-134.045
 21
182.439
  0
LINE
  8
0
 10
-134.045
 20
182.439
 11
-134.382
 21
181.909
  0
LINE
  8
0
 10
-134.382
 20
181.909
 11
-134.649
 21
181.341
  0
LINE
  8
0
 10
-134.649
 20
181.341
 11
-134.843
 21
180.743
  0
LINE
  8
0
 10
-134.843
 20
180.743
 11
-134.961
 21
180.127
  0
LINE
  8
0
 10
-134.961
 20
180.127
 11
-135
 21
179.5
  0
LINE
  8
0
 10
-135
 20
179.5
 11
-135
 21
144.5
  0
LINE
  8
0
 10
-135
 20
144.5
 11
-134.961
 21
143.873
  0
LINE
  8
0
 10
-134.961
 20
143.873
 11
-134.843
 21
143.257
  0
LINE
  8
0
 10
-134.843
 20
143.257
 11
-134.649
 21
142.659
  0
LINE
  8
0
 10
-134.649
 20
142.659
 11
-134.382
 21
142.091
  0
LINE
  8
0
 10
-134.382
 20
142.091
 11
-134.045
 21
141.561
  0
LINE
  8
0
 10
-134.045
 20
141.561
 11
-133.645
 21
141.077
  0
LINE
  8
0
 10
-133.645
 20
141.077
 11
-133.187
 21
140.647
  0
LINE
  8
0
 10
-133.187
 20
140.647
 11
-132.679
 21
140.278
  0
LINE
  8
0
 10
-132.679
 20
140.278
 11
-132.129
 21
139.976
  0
LINE
  8
0
 10
-132.129
 20
139.976
 11
-131.545
 21
139.745
  0
LINE
  8
0
 10
-131.545
 20
139.745
 11
-130.937
 21
139.589
  0
LINE
  8
0
 10
-130.937
 20
139.589
 11
-130.314
 21
139.51
  0
LINE
  8
0
 10
-130.314
 20
139.51
 11
130.314
 21
139.51
  0
LINE
  8
0
 10
130.314
 20
139.51
 11
130.937
 21
139.589
  0
LINE
  8
0
 10
-129.993
 20
140.888
 11
-130.475
 21
140.949
  0
LINE
  8
0
 10
-130.475
 20
140.949
 11
-130.946
 21
141.07
  0
LINE
  8
0
 10
-130.946
 20
141.07
 11
-131.398
 21
141.249
  0
LINE
  8
0
 10
-131.398
 20
141.249
 11
-131.823
 21
141.483
  0
LINE
  8
0
 10
-131.823
 20
141.483
 11
-132.216
 21
141.769
  0
LINE
  8
0
 10
-132.216
 20
141.769
 11
-132.571
 21
142.101
  0
LINE
  8
0
 10
-132.571
 20
142.101
 11
-132.88
 21
142.476
  0
LINE
  8
0
 10
-132.88
 20
142.476
 11
-133.141
 21
142.886
  0
LINE
  8
0
 10
-133.141
 20
142.886
 11
-133.348
 21
143.326
  0
LINE
  8
0
 10
-133.348
 20
143.326
 11
-133.498
 21
143.788
  0
LINE
  8
0
 10
-133.498
 20
143.788
 11
-133.589
 21
144.265
  0
LINE
  8
0
 10
-133.589
 20
144.265
 11
-133.619
 21
144.75
  0
LINE
  8
0
 10
-133.619
 20
144.75
 11
-133.619
 21
179.25
  0
LINE
  8
0
 10
-133.619
 20
179.25
 11
-133.589
 21
179.735
  0
LINE
  8
0
 10
-133.589
 20
179.735
 11
-133.498
 21
180.212
  0
LINE
  8
0
 10
-133.498
 20
180.212
 11
-133.348
 21
180.674
  0
LINE
  8
0
 10
-133.348
 20
180.674
 11
-133.141
 21
181.114
  0
LINE
  8
0
 10
-133.141
 20
181.114
 11
-132.88
 21
181.524
  0
LINE
  8
0
 10
-132.88
 20
181.524
 11
-132.571
 21
181.899
  0
LINE
  8
0
 10
-132.571
 20
181.899
 11
-132.216
 21
182.231
  0
LINE
  8
0
 10
-132.216
 20
182.231
 11
-131.823
 21
182.517
  0
LINE
  8
0
 10
-131.823
 20
182.517
 11
-131.398
 21
182.751
  0
LINE
  8
0
 10
-131.398
 20
182.751
 11
-130.946
 21
182.93
  0
LINE
  8
0
 10
-130.946
 20
182.93
 11
-130.475
 21
183.051
  0
LINE
  8
0
 10
-130.475
 20
183.051
 11
-129.993
 21
183.112
  0
LINE
  8
0
 10
-129.993
 20
183.112
 11
129.993
 21
183.112
  0
LINE
  8
0
 10
129.993
 20
183.112
 11
130.475
 21
183.051
  0
LINE
  8
0
 10
130.475
 20
183.051
 11
130.946
 21
182.93
  0
LINE
  8
0
 10
130.946
 20
182.93
 11
131.398
 21
182.751
  0
LINE
  8
0
 10
131.398
 20
182.751
 11
131.823
 21
182.517
  0
LINE
  8
0
 10
131.823
 20
182.517
 11
132.216
 21
182.231
  0
LINE
  8
0
 10
132.216
 20
182.231
 11
132.571
 21
181.899
  0
LINE
  8
0
 10
132.571
 20
181.899
 11
132.88
 21
181.524
  0
LINE
  8
0
 10
132.88
 20
181.524
 11
133.141
 21
181.114
  0
LINE
  8
0
 10
133.141
 20
181.114
 11
133.348
 21
180.674
  0
LINE
  8
0
 10
133.348
 20
180.674
 11
133.498
 21
180.212
  0
LINE
  8
0
 10
133.498
 20
180.212
 11
133.589
 21
179.735
  0
LINE
  8
0
 10
133.589
 20
179.735
 11
133.619
 21
179.25
  0
LINE
  8
0
 10
133.619
 20
179.25
 11
133.619
 21
144.75
  0
LINE
  8
0
 10
133.619
 20
144.75
 11
133.589
 21
144.265
  0
LINE
  8
0
 10
133.589
 20
144.265
 11
133.498
 21
143.788
  0
LINE
  8
0
 10
133.498
 20
143.788
 11
133.348
 21
143.326
  0
LINE
  8
0
 10
133.348
 20
143.326
 11
133.141
 21
142.886
  0
LINE
  8
0
 10
133.141
 20
142.886
 11
132.88
 21
142.476
  0
LINE
  8
0
 10
132.88
 20
142.476
 11
132.571
 21
142.101
  0
LINE
  8
0
 10
132.571
 20
142.101
 11
132.216
 21
141.769
  0
LINE
  8
0
 10
132.216
 20
141.769
 11
131.823
 21
141.483
  0
LINE
  8
0
 10
131.823
 20
141.483
 11
131.398
 21
141.249
  0
LINE
  8
0
 10
131.398
 20
141.249
 11
130.946
 21
141.07
  0
LINE
  8
0
 10
130.946
 20
141.07
 11
130.475
 21
140.949
  0
LINE
  8
0
 10
130.475
 20
140.949
 11
129.993
 21
140.888
  0
LINE
  8
0
 10
129.993
 20
140.888
 11
-129.993
 21
140.888
  0
LINE
  8
0
 10
130.937
 20
85.5886
 11
131.545
 21
85.7447
  0
LINE
  8
0
 10
131.545
 20
85.7447
 11
132.129
 21
85.9759
  0
LINE
  8
0
 10
132.129
 20
85.9759
 11
132.679
 21
86.2784
  0
LINE
  8
0
 10
132.679
 20
86.2784
 11
133.187
 21
86.6474
  0
LINE
  8
0
 10
133.187
 20
86.6474
 11
133.645
 21
87.0773
  0
LINE
  8
0
 10
133.645
 20
87.0773
 11
134.045
 21
87.5611
  0
LINE
  8
0
 10
134.045
 20
87.5611
 11
134.382
 21
88.0912
  0
LINE
  8
0
 10
134.382
 20
88.0912
 11
134.649
 21
88.6594
  0
LINE
  8
0
 10
134.649
 20
88.6594
 11
134.843
 21
89.2566
  0
LINE
  8
0
 10
134.843
 20
89.2566
 11
134.961
 21
89.8733
  0
LINE
  8
0
 10
134.961
 20
89.8733
 11
135
 21
90.5
  0
LINE
  8
0
 10
135
 20
90.5
 11
135
 21
125.5
  0
LINE
  8
0
 10
135
 20
125.5
 11
134.961
 21
126.127
  0
LINE
  8
0
 10
134.961
 20
126.127
 11
134.843
 21
126.743
  0
LINE
  8
0
 10
134.843
 20
126.743
 11
134.649
 21
127.341
  0
LINE
  8
0
 10
134.649
 20
127.341
 11
134.382
 21
127.909
  0
LINE
  8
0
 10
134.382
 20
127.909
 11
134.045
 21
128.439
  0
LINE
  8
0
 10
134.045
 20
128.439
 11
133.645
 21
128.923
  0
LINE
  8
0
 10
133.645
 20
128.923
 11
133.187
 21
129.353
  0
LINE
  8
0
 10
133.187
 20
129.353
 11
132.679
 21
129.722
  0
LINE
  8
0
 10
132.679
 20
129.722
 11
132.129
 21
130.024
  0
LINE
  8
0
 10
132.129
 20
130.024
 11
131.545
 21
130.255
  0
LINE
  8
0
 10
131.545
 20
130.255
 11
130.937
 21
130.411
  0
LINE
  8
0
 10
130.937
 20
130.411
 11
130.314
 21
130.49
  0
LINE
  8
0
 10
130.314
 20
130.49
 11
-130.314
 21
130.49
  0
LINE
  8
0
 10
-130.314
 20
130.49
 11
-130.937
 21
130.411
  0
LINE
  8
0
 10
-130.937
 20
130.411
 11
-131.545
 21
130.255
  0
LINE
  8
0
 10
-131.545
 20
130.255
 11
-132.129
 21
130.024
  0
LINE
  8
0
 10
-132.129
 20
130.024
 11
-132.679
 21
129.722
  0
LINE
  8
0
 10
-132.679
 20
129.722
 11
-133.187
 21
129.353
  0
LINE
  8
0
 10
-133.187
 20
129.353
 11
-133.645
 21
128.923
  0
LINE
  8
0
 10
-133.645
 20
128.923
 11
-134.045
 21
128.439
  0
LINE
  8
0
 10
-134.045
 20
128.439
 11
-134.382
 21
127.909
  0
LINE
  8
0
 10
-134.382
 20
127.909
 11
-134.649
 21
127.341
  0
LINE
  8
0
 10
-134.649
 20
127.341
 11
-134.843
 21
126.743
  0
LINE
  8
0
 10
-134.843
 20
126.743
 11
-134.961
 21
126.127
  0
LINE
  8
0
 10
-134.961
 20
126.127
 11
-135
 21
125.5
  0
LINE
  8
0
 10
-135
 20
125.5
 11
-135
 21
90.5
  0
LINE
  8
0
 10
-135
 20
90.5
 11
-134.961
 21
89.8733
  0
LINE
  8
0
 10
-134.961
 20
89.8733
 11
-134.843
 21
89.2566
  0
LINE
  8
0
 10
-134.843
 20
89.2566
 11
-134.649
 21
88.6594
  0
LINE
  8
0
 10
-134.649
 20
88.6594
 11
-134.382
 21
88.0912
  0
LINE
  8
0
 10
-134.382
 20
88.0912
 11
-134.045
 21
87.5611
  0
LINE
  8
0
 10
-134.045
 20
87.5611
 11
-133.645
 21
87.0773
  0
LINE
  8
0
 10
-133.645
 20
87.0773
 11
-133.187
 21
86.6474
  0
LINE
  8
0
 10
-133.187
 20
86.6474
 11
-132.679
 21
86.2784
  0
LINE
  8
0
 10
-132.679
 20
86.2784
 11
-132.129
 21
85.9759
  0
LINE
  8
0
 10
-132.129
 20
85.9759
 11
-131.545
 21
85.7447
  0
LINE
  8
0
 10
-131.545
 20
85.7447
 11
-130.937
 21
85.5886
  0
LINE
  8
0
 10
-130.937
 20
85.5886
 11
-130.314
 21
85.5099
  0
LINE
  8
0
 10
-130.314
 20
85.5099
 11
130.314
 21
85.5099
  0
LINE
  8
0
 10
130.314
 20
85.5099
 11
130.937
 21
85.5886
  0
LINE
  8
0
 10
-127.613
 20
121.204
 11
-127.837
 21
121.232
  0
LINE
  8
0
 10
-127.837
 20
121.232
 11
-128.056
 21
121.288
  0
LINE
  8
0
 10
-128.056
 20
121.288
 11
-128.266
 21
121.371
  0
LINE
  8
0
 10
-128.266
 20
121.371
 11
-128.464
 21
121.48
  0
LINE
  8
0
 10
-128.464
 20
121.48
 11
-128.647
 21
121.613
  0
LINE
  8
0
 10
-128.647
 20
121.613
 11
-128.812
 21
121.768
  0
LINE
  8
0
 10
-128.812
 20
121.768
 11
-128.956
 21
121.942
  0
LINE
  8
0
 10
-128.956
 20
121.942
 11
-129.077
 21
122.133
  0
LINE
  8
0
 10
-129.077
 20
122.133
 11
-129.174
 21
122.337
  0
LINE
  8
0
 10
-129.174
 20
122.337
 11
-129.243
 21
122.552
  0
LINE
  8
0
 10
-129.243
 20
122.552
 11
-129.286
 21
122.774
  0
LINE
  8
0
 10
-129.286
 20
122.774
 11
-129.3
 21
123
  0
LINE
  8
0
 10
-129.3
 20
123
 11
-129.286
 21
123.226
  0
LINE
  8
0
 10
-129.286
 20
123.226
 11
-129.243
 21
123.448
  0
LINE
  8
0
 10
-129.243
 20
123.448
 11
-129.174
 21
123.663
  0
LINE
  8
0
 10
-129.174
 20
123.663
 11
-129.077
 21
123.867
  0
LINE
  8
0
 10
-129.077
 20
123.867
 11
-128.956
 21
124.058
  0
LINE
  8
0
 10
-128.956
 20
124.058
 11
-128.812
 21
124.232
  0
LINE
  8
0
 10
-128.812
 20
124.232
 11
-128.647
 21
124.387
  0
LINE
  8
0
 10
-128.647
 20
124.387
 11
-128.464
 21
124.52
  0
LINE
  8
0
 10
-128.464
 20
124.52
 11
-128.266
 21
124.629
  0
LINE
  8
0
 10
-128.266
 20
124.629
 11
-128.056
 21
124.712
  0
LINE
  8
0
 10
-128.056
 20
124.712
 11
-127.837
 21
124.768
  0
LINE
  8
0
 10
-127.837
 20
124.768
 11
-127.613
 21
124.796
  0
LINE
  8
0
 10
-127.613
 20
124.796
 11
-127.387
 21
124.796
  0
LINE
  8
0
 10
-127.387
 20
124.796
 11
-127.163
 21
124.768
  0
LINE
  8
0
 10
-127.163
 20
124.768
 11
-126.944
 21
124.712
  0
LINE
  8
0
 10
-126.944
 20
124.712
 11
-126.734
 21
124.629
  0
LINE
  8
0
 10
-126.734
 20
124.629
 11
-126.536
 21
124.52
  0
LINE
  8
0
 10
-126.536
 20
124.52
 11
-126.353
 21
124.387
  0
LINE
  8
0
 10
-126.353
 20
124.387
 11
-126.188
 21
124.232
  0
LINE
  8
0
 10
-126.188
 20
124.232
 11
-126.044
 21
124.058
  0
LINE
  8
0
 10
-126.044
 20
124.058
 11
-125.923
 21
123.867
  0
LINE
  8
0
 10
-125.923
 20
123.867
 11
-125.826
 21
123.663
  0
LINE
  8
0
 10
-125.826
 20
123.663
 11
-125.757
 21
123.448
  0
LINE
  8
0
 10
-125.757
 20
123.448
 11
-125.714
 21
123.226
  0
LINE
  8
0
 10
-125.714
 20
123.226
 11
-125.7
 21
123
  0
LINE
  8
0
 10
-125.7
 20
123
 11
-125.714
 21
122.774
  0
LINE
  8
0
 10
-125.714
 20
122.774
 11
-125.757
 21
122.552
  0
LINE
  8
0
 10
-125.757
 20
122.552
 11
-125.826
 21
122.337
  0
LINE
  8
0
 10
-125.826
 20
122.337
 11
-125.923
 21
122.133
  0
LINE
  8
0
 10
-125.923
 20
122.133
 11
-126.044
 21
121.942
  0
LINE
  8
0
 10
-126.044
 20
121.942
 11
-126.188
 21
121.768
  0
LINE
  8
0
 10
-126.188
 20
121.768
 11
-126.353
 21
121.613
  0
LINE
  8
0
 10
-126.353
 20
121.613
 11
-126.536
 21
121.48
  0
LINE
  8
0
 10
-126.536
 20
121.48
 11
-126.734
 21
121.371
  0
LINE
  8
0
 10
-126.734
 20
121.371
 11
-126.944
 21
121.288
  0
LINE
  8
0
 10
-126.944
 20
121.288
 11
-127.163
 21
121.232
  0
LINE
  8
0
 10
-127.163
 20
121.232
 11
-127.387
 21
121.204
  0
LINE
  8
0
 10
-127.387
 20
121.204
 11
-127.613
 21
121.204
  0
LINE
  8
0
 10
127.387
 20
121.204
 11
127.163
 21
121.232
  0
LINE
  8
0
 10
127.163
 20
121.232
 11
126.944
 21
121.288
  0
LINE
  8
0
 10
126.944
 20
121.288
 11
126.734
 21
121.371
  0
LINE
  8
0
 10
126.734
 20
121.371
 11
126.536
 21
121.48
  0
LINE
  8
0
 10
126.536
 20
121.48
 11
126.353
 21
121.613
  0
LINE
  8
0
 10
126.353
 20
121.613
 11
126.188
 21
121.768
  0
LINE
  8
0
 10
126.188
 20
121.768
 11
126.044
 21
121.942
  0
LINE
  8
0
 10
126.044
 20
121.942
 11
125.923
 21
122.133
  0
LINE
  8
0
 10
125.923
 20
122.133
 11
125.826
 21
122.337
  0
LINE
  8
0
 10
125.826
 20
122.337
 11
125.757
 21
122.552
  0
LINE
  8
0
 10
125.757
 20
122.552
 11
125.714
 21
122.774
  0
LINE
  8
0
 10
125.714
 20
122.774
 11
125.7
 21
123
  0
LINE
  8
0
 10
125.7
 20
123
 11
125.714
 21
123.226
  0
LINE
  8
0
 10
125.714
 20
123.226
 11
125.757
 21
123.448
  0
LINE
  8
0
 10
125.757
 20
123.448
 11
125.826
 21
123.663
  0
LINE
  8
0
 10
125.826
 20
123.663
 11
125.923
 21
123.867
  0
LINE
  8
0
 10
125.923
 20
123.867
 11
126.044
 21
124.058
  0
LINE
  8
0
 10
126.044
 20
124.058
 11
126.188
 21
124.232
  0
LINE
  8
0
 10
126.188
 20
124.232
 11
126.353
 21
124.387
  0
LINE
  8
0
 10
126.353
 20
124.387
 11
126.536
 21
124.52
  0
LINE
  8
0
 10
126.536
 20
124.52
 11
126.734
 21
124.629
  0
LINE
  8
0
 10
126.734
 20
124.629
 11
126.944
 21
124.712
  0
LINE
  8
0
 10
126.944
 20
124.712
 11
127.163
 21
124.768
  0
LINE
  8
0
 10
127.163
 20
124.768
 11
127.387
 21
124.796
  0
LINE
  8
0
 10
127.387
 20
124.796
 11
127.613
 21
124.796
  0
LINE
  8
0
 10
127.613
 20
124.796
 11
127.837
 21
124.768
  0
LINE
  8
0
 10
127.837
 20
124.768
 11
128.056
 21
124.712
  0
LINE
  8
0
 10
128.056
 20
124.712
 11
128.266
 21
124.629
  0
LINE
  8
0
 10
128.266
 20
124.629
 11
128.464
 21
124.52
  0
LINE
  8
0
 10
128.464
 20
124.52
 11
128.647
 21
124.387
  0
LINE
  8
0
 10
128.647
 20
124.387
 11
128.812
 21
124.232
  0
LINE
  8
0
 10
128.812
 20
124.232
 11
128.956
 21
124.058
  0
LINE
  8
0
 10
128.956
 20
124.058
 11
129.077
 21
123.867
  0
LINE
  8
0
 10
129.077
 20
123.867
 11
129.174
 21
123.663
  0
LINE
  8
0
 10
129.174
 20
123.663
 11
129.243
 21
123.448
  0
LINE
  8
0
 10
129.243
 20
123.448
 11
129.286
 21
123.226
  0
LINE
  8
0
 10
129.286
 20
123.226
 11
129.3
 21
123
  0
LINE
  8
0
 10
129.3
 20
123
 11
129.286
 21
122.774
  0
LINE
  8
0
 10
129.286
 20
122.774
 11
129.243
 21
122.552
  0
LINE
  8
0
 10
129.243
 20
122.552
 11
129.174
 21
122.337
  0
LINE
  8
0
 10
129.174
 20
122.337
 11
129.077
 21
122.133
  0
LINE
  8
0
 10
129.077
 20
122.133
 11
128.956
 21
121.942
  0
LINE
  8
0
 10
128.956
 20
121.942
 11
128.812
 21
121.768
  0
LINE
  8
0
 10
128.812
 20
121.768
 11
128.647
 21
121.613
  0
LINE
  8
0
 10
128.647
 20
121.613
 11
128.464
 21
121.48
  0
LINE
  8
0
 10
128.464
 20
121.48
 11
128.266
 21
121.371
  0
LINE
  8
0
 10
128.266
 20
121.371
 11
128.056
 21
121.288
  0
LINE
  8
0
 10
128.056
 20
121.288
 11
127.837
 21
121.232
  0
LINE
  8
0
 10
127.837
 20
121.232
 11
127.613
 21
121.204
  0
LINE
  8
0
 10
127.613
 20
121.204
 11
127.387
 21
121.204
  0
LINE
  8
0
 10
127.387
 20
91.2036
 11
127.163
 21
91.2319
  0
LINE
  8
0
 10
127.163
 20
91.2319
 11
126.944
 21
91.2881
  0
LINE
  8
0
 10
126.944
 20
91.2881
 11
126.734
 21
91.3713
  0
LINE
  8
0
 10
126.734
 20
91.3713
 11
126.536
 21
91.4802
  0
LINE
  8
0
 10
126.536
 20
91.4802
 11
126.353
 21
91.6131
  0
LINE
  8
0
 10
126.353
 20
91.6131
 11
126.188
 21
91.7678
  0
LINE
  8
0
 10
126.188
 20
91.7678
 11
126.044
 21
91.942
  0
LINE
  8
0
 10
126.044
 20
91.942
 11
125.923
 21
92.1329
  0
LINE
  8
0
 10
125.923
 20
92.1329
 11
125.826
 21
92.3374
  0
LINE
  8
0
 10
125.826
 20
92.3374
 11
125.757
 21
92.5524
  0
LINE
  8
0
 10
125.757
 20
92.5524
 11
125.714
 21
92.7744
  0
LINE
  8
0
 10
125.714
 20
92.7744
 11
125.7
 21
93
  0
LINE
  8
0
 10
125.7
 20
93
 11
125.714
 21
93.2256
  0
LINE
  8
0
 10
125.714
 20
93.2256
 11
125.757
 21
93.4476
  0
LINE
  8
0
 10
125.757
 20
93.4476
 11
125.826
 21
93.6626
  0
LINE
  8
0
 10
125.826
 20
93.6626
 11
125.923
 21
93.8672
  0
LINE
  8
0
 10
125.923
 20
93.8672
 11
126.044
 21
94.058
  0
LINE
  8
0
 10
126.044
 20
94.058
 11
126.188
 21
94.2322
  0
LINE
  8
0
 10
126.188
 20
94.2322
 11
126.353
 21
94.3869
  0
LINE
  8
0
 10
126.353
 20
94.3869
 11
126.536
 21
94.5198
  0
LINE
  8
0
 10
126.536
 20
94.5198
 11
126.734
 21
94.6287
  0
LINE
  8
0
 10
126.734
 20
94.6287
 11
126.944
 21
94.7119
  0
LINE
  8
0
 10
126.944
 20
94.7119
 11
127.163
 21
94.7681
  0
LINE
  8
0
 10
127.163
 20
94.7681
 11
127.387
 21
94.7964
  0
LINE
  8
0
 10
127.387
 20
94.7964
 11
127.613
 21
94.7964
  0
LINE
  8
0
 10
127.613
 20
94.7964
 11
127.837
 21
94.7681
  0
LINE
  8
0
 10
127.837
 20
94.7681
 11
128.056
 21
94.7119
  0
LINE
  8
0
 10
128.056
 20
94.7119
 11
128.266
 21
94.6287
  0
LINE
  8
0
 10
128.266
 20
94.6287
 11
128.464
 21
94.5198
  0
LINE
  8
0
 10
128.464
 20
94.5198
 11
128.647
 21
94.3869
  0
LINE
  8
0
 10
128.647
 20
94.3869
 11
128.812
 21
94.2322
  0
LINE
  8
0
 10
128.812
 20
94.2322
 11
128.956
 21
94.058
  0
LINE
  8
0
 10
128.956
 20
94.058
 11
129.077
 21
93.8672
  0
LINE
  8
0
 10
129.077
 20
93.8672
 11
129.174
 21
93.6626
  0
LINE
  8
0
 10
129.174
 20
93.6626
 11
129.243
 21
93.4476
  0
LINE
  8
0
 10
129.243
 20
93.4476
 11
129.286
 21
93.2256
  0
LINE
  8
0
 10
129.286
 20
93.2256
 11
129.3
 21
93
  0
LINE
  8
0
 10
129.3
 20
93
 11
129.286
 21
92.7744
  0
LINE
  8
0
 10
129.286
 20
92.7744
 11
129.243
 21
92.5524
  0
LINE
  8
0
 10
129.243
 20
92.5524
 11
129.174
 21
92.3374
  0
LINE
  8
0
 10
129.174
 20
92.3374
 11
129.077
 21
92.1329
  0
LINE
  8
0
 10
129.077
 20
92.1329
 11
128.956
 21
91.942
  0
LINE
  8
0
 10
128.956
 20
91.942
 11
128.812
 21
91.7678
  0
LINE
  8
0
 10
128.812
 20
91.7678
 11
128.647
 21
91.6131
  0
LINE
  8
0
 10
128.647
 20
91.6131
 11
128.464
 21
91.4802
  0
LINE
  8
0
 10
128.464
 20
91.4802
 11
128.266
 21
91.3713
  0
LINE
  8
0
 10
128.266
 20
91.3713
 11
128.056
 21
91.2881
  0
LINE
  8
0
 10
128.056
 20
91.2881
 11
127.837
 21
91.2319
  0
LINE
  8
0
 10
127.837
 20
91.2319
 11
127.613
 21
91.2036
  0
LINE
  8
0
 10
127.613
 20
91.2036
 11
127.387
 21
91.2036
  0
LINE
  8
0
 10
-127.613
 20
91.2036
 11
-127.837
 21
91.2319
  0
LINE
  8
0
 10
-127.837
 20
91.2319
 11
-128.056
 21
91.2881
  0
LINE
  8
0
 10
-128.056
 20
91.2881
 11
-128.266
 21
91.3713
  0
LINE
  8
0
 10
-128.266
 20
91.3713
 11
-128.464
 21
91.4802
  0
LINE
  8
0
 10
-128.464
 20
91.4802
 11
-128.647
 21
91.6131
  0
LINE
  8
0
 10
-128.647
 20
91.6131
 11
-128.812
 21
91.7678
  0
LINE
  8
0
 10
-128.812
 20
91.7678
 11
-128.956
 21
91.942
  0
LINE
  8
0
 10
-128.956
 20
91.942
 11
-129.077
 21
92.1329
  0
LINE
  8
0
 10
-129.077
 20
92.1329
 11
-129.174
 21
92.3374
  0
LINE
  8
0
 10
-129.174
 20
92.3374
 11
-129.243
 21
92.5524
  0
LINE
  8
0
 10
-129.243
 20
92.5524
 11
-129.286
 21
92.7744
  0
LINE
  8
0
 10
-129.286
 20
92.7744
 11
-129.3
 21
93
  0
LINE
  8
0
 10
-129.3
 20
93
 11
-129.286
 21
93.2256
  0
LINE
  8
0
 10
-129.286
 20
93.2256
 11
-129.243
 21
93.4476
  0
LINE
  8
0
 10
-129.243
 20
93.4476
 11
-129.174
 21
93.6626
  0
LINE
  8
0
 10
-129.174
 20
93.6626
 11
-129.077
 21
93.8672
  0
LINE
  8
0
 10
-129.077
 20
93.8672
 11
-128.956
 21
94.058
  0
LINE
  8
0
 10
-128.956
 20
94.058
 11
-128.812
 21
94.2322
  0
LINE
  8
0
 10
-128.812
 20
94.2322
 11
-128.647
 21
94.3869
  0
LINE
  8
0
 10
-128.647
 20
94.3869
 11
-128.464
 21
94.5198
  0
LINE
  8
0
 10
-128.464
 20
94.5198
 11
-128.266
 21
94.6287
  0
LINE
  8
0
 10
-128.266
 20
94.6287
 11
-128.056
 21
94.7119
  0
LINE
  8
0
 10
-128.056
 20
94.7119
 11
-127.837
 21
94.7681
  0
LINE
  8
0
 10
-127.837
 20
94.7681
 11
-127.613
 21
94.7964
  0
LINE
  8
0
 10
-127.613
 20
94.7964
 11
-127.387
 21
94.7964
  0
LINE
  8
0
 10
-127.387
 20
94.7964
 11
-127.163
 21
94.7681
  0
LINE
  8
0
 10
-127.163
 20
94.7681
 11
-126.944
 21
94.7119
  0
LINE
  8
0
 10
-126.944
 20
94.7119
 11
-126.734
 21
94.6287
  0
LINE
  8
0
 10
-126.734
 20
94.6287
 11
-126.536
 21
94.5198
  0
LINE
  8
0
 10
-126.536
 20
94.5198
 11
-126.353
 21
94.3869
  0
LINE
  8
0
 10
-126.353
 20
94.3869
 11
-126.188
 21
94.2322
  0
LINE
  8
0
 10
-126.188
 20
94.2322
 11
-126.044
 21
94.058
  0
LINE
  8
0
 10
-126.044
 20
94.058
 11
-125.923
 21
93.8672
  0
LINE
  8
0
 10
-125.923
 20
93.8672
 11
-125.826
 21
93.6626
  0
LINE
  8
0
 10
-125.826
 20
93.6626
 11
-125.757
 21
93.4476
  0
LINE
  8
0
 10
-125.757
 20
93.4476
 11
-125.714
 21
93.2256
  0
LINE
  8
0
 10
-125.714
 20
93.2256
 11
-125.7
 21
93
  0
LINE
  8
0
 10
-125.7
 20
93
 11
-125.714
 21
92.7744
  0
LINE
  8
0
 10
-125.714
 20
92.7744
 11
-125.757
 21
92.5524
  0
LINE
  8
0
 10
-125.757
 20
92.5524
 11
-125.826
 21
92.3374
  0
LINE
  8
0
 10
-125.826
 20
92.3374
 11
-125.923
 21
92.1329
  0
LINE
  8
0
 10
-125.923
 20
92.1329
 11
-126.044
 21
91.942
  0
LINE
  8
0
 10
-126.044
 20
91.942
 11
-126.188
 21
91.7678
  0
LINE
  8
0
 10
-126.188
 20
91.7678
 11
-126.353
 21
91.6131
  0
LINE
  8
0
 10
-126.353
 20
91.6131
 11
-126.536
 21
91.4802
  0
LINE
  8
0
 10
-126.536
 20
91.4802
 11
-126.734
 21
91.3713
  0
LINE
  8
0
 10
-126.734
 20
91.3713
 11
-126.944
 21
91.2881
  0
LINE
  8
0
 10
-126.944
 20
91.2881
 11
-127.163
 21
91.2319
  0
LINE
  8
0
 10
-127.163
 20
91.2319
 11
-127.387
 21
91.2036
  0
LINE
  8
0
 10
-127.387
 20
91.2036
 11
-127.613
 21
91.2036
  0
ENDSEC
  0
SECTION
  2
OBJECTS
  0
DICTIONARY
  0
ENDSEC
  0
EOF
