<?xml version="1.0" standalone="no"?>
<!DOCTYPE svg PUBLIC "-//W3C//DTD SVG 1.1//EN" "http://www.w3.org/Graphics/SVG/1.1/DTD/svg11.dtd">
<svg width="300mm" height="328mm" viewBox="-150 -626 300 328" xmlns="http://www.w3.org/2000/svg" version="1.1">
<title>OpenSCAD Model</title>
<path d="
M 145.937,-550.589 L 146.545,-550.745 L 147.129,-550.976 L 147.679,-551.278 L 148.187,-551.647 L 148.645,-552.077
 L 149.045,-552.561 L 149.382,-553.091 L 149.649,-553.659 L 149.843,-554.257 L 149.961,-554.873 L 150,-555.5
 L 150,-620.5 L 149.961,-621.127 L 149.843,-621.743 L 149.649,-622.341 L 149.382,-622.909 L 149.045,-623.439
 L 148.645,-623.923 L 148.187,-624.353 L 147.679,-624.722 L 147.129,-625.024 L 146.545,-625.255 L 145.937,-625.411
 L 145.314,-625.49 L -145.314,-625.49 L -145.937,-625.411 L -146.545,-625.255 L -147.129,-625.024 L -147.679,-624.722
 L -148.187,-624.353 L -148.645,-623.923 L -149.045,-623.439 L -149.382,-622.909 L -149.649,-622.341 L -149.843,-621.743
 L -149.961,-621.127 L -150,-620.5 L -150,-555.5 L -149.961,-554.873 L -149.843,-554.257 L -149.649,-553.659
 L -149.382,-553.091 L -149.045,-552.561 L -148.645,-552.077 L -148.187,-551.647 L -147.679,-551.278 L -147.129,-550.976
 L -146.545,-550.745 L -145.937,-550.589 L -145.314,-550.51 L 145.314,-550.51 z
M -145.048,-551.009 L -145.64,-551.084 L -146.218,-551.232 L -146.772,-551.452 L -147.295,-551.739 L -147.778,-552.09
 L -148.213,-552.498 L -148.593,-552.958 L -148.912,-553.462 L -149.166,-554.001 L -149.351,-554.569 L -149.463,-555.155
 L -149.5,-555.75 L -149.5,-620.25 L -149.463,-620.845 L -149.351,-621.431 L -149.166,-621.999 L -148.912,-622.538
 L -148.593,-623.042 L -148.213,-623.502 L -147.778,-623.91 L -147.295,-624.261 L -146.772,-624.548 L -146.218,-624.768
 L -145.64,-624.916 L -145.048,-624.991 L 145.048,-624.991 L 145.64,-624.916 L 146.218,-624.768 L 146.772,-624.548
 L 147.295,-624.261 L 147.778,-623.91 L 148.213,-623.502 L 148.593,-623.042 L 148.912,-622.538 L 149.166,-621.999
 L 149.351,-621.431 L 149.463,-620.845 L 149.5,-620.25 L 149.5,-555.75 L 149.463,-555.155 L 149.351,-554.569
 L 149.166,-554.001 L 148.912,-553.462 L 148.593,-552.958 L 148.213,-552.498 L 147.778,-552.09 L 147.295,-551.739
 L 146.772,-551.452 L 146.218,-551.232 L 145.64,-551.084 L 145.048,-551.009 z
M 145.937,-466.589 L 146.545,-466.745 L 147.129,-466.976 L 147.679,-467.278 L 148.187,-467.647 L 148.645,-468.077
 L 149.045,-468.561 L 149.382,-469.091 L 149.649,-469.659 L 149.843,-470.257 L 149.961,-470.873 L 150,-471.5
 L 150,-536.5 L 149.961,-537.127 L 149.843,-537.743 L 149.649,-538.341 L 149.382,-538.909 L 149.045,-539.439
 L 148.645,-539.923 L 148.187,-540.353 L 147.679,-540.722 L 147.129,-541.024 L 146.545,-541.255 L 145.937,-541.411
 L 145.314,-541.49 L -145.314,-541.49 L -145.937,-541.411 L -146.545,-541.255 L -147.129,-541.024 L -147.679,-540.722
 L -148.187,-540.353 L -148.645,-539.923 L -149.045,-539.439 L -149.382,-538.909 L -149.649,-538.341 L -149.843,-537.743
 L -149.961,-537.127 L -150,-536.5 L -150,-471.5 L -149.961,-470.873 L -149.843,-470.257 L -149.649,-469.659
 L -149.382,-469.091 L -149.045,-468.561 L -148.645,-468.077 L -148.187,-467.647 L -147.679,-467.278 L -147.129,-466.976
 L -146.545,-466.745 L -145.937,-466.589 L -145.314,-466.51 L 145.314,-466.51 z
M -145.048,-467.009 L -145.64,-467.084 L -146.218,-467.232 L -146.772,-467.452 L -147.295,-467.739 L -147.778,-468.09
 L -148.213,-468.498 L -148.593,-468.958 L -148.912,-469.462 L -149.166,-470.001 L -149.351,-470.569 L -149.463,-471.155
 L -149.5,-471.75 L -149.5,-536.25 L -149.463,-536.845 L -149.351,-537.431 L -149.166,-537.999 L -148.912,-538.538
 L -148.593,-539.042 L -148.213,-539.502 L -147.778,-539.91 L -147.295,-540.261 L -146.772,-540.548 L -146.218,-540.768
 L -145.64,-540.916 L -145.048,-540.991 L 145.048,-540.991 L 145.64,-540.916 L 146.218,-540.768 L 146.772,-540.548
 L 147.295,-540.261 L 147.778,-539.91 L 148.213,-539.502 L 148.593,-539.042 L 148.912,-538.538 L 149.166,-537.999
 L 149.351,-537.431 L 149.463,-536.845 L 149.5,-536.25 L 149.5,-471.75 L 149.463,-471.155 L 149.351,-470.569
 L 149.166,-470.001 L 148.912,-469.462 L 148.593,-468.958 L 148.213,-468.498 L 147.778,-468.09 L 147.295,-467.739
 L 146.772,-467.452 L 146.218,-467.232 L 145.64,-467.084 L 145.048,-467.009 z
M 145.937,-382.589 L 146.545,-382.745 L 147.129,-382.976 L 147.679,-383.278 L 148.187,-383.647 L 148.645,-384.077
 L 149.045,-384.561 L 149.382,-385.091 L 149.649,-385.659 L 149.843,-386.257 L 149.961,-386.873 L 150,-387.5
 L 150,-452.5 L 149.961,-453.127 L 149.843,-453.743 L 149.649,-454.341 L 149.382,-454.909 L 149.045,-455.439
 L 148.645,-455.923 L 148.187,-456.353 L 147.679,-456.722 L 147.129,-457.024 L 146.545,-457.255 L 145.937,-457.411
 L 145.314,-457.49 L -145.314,-457.49 L -145.937,-457.411 L -146.545,-457.255 L -147.129,-457.024 L -147.679,-456.722
 L -148.187,-456.353 L -148.645,-455.923 L -149.045,-455.439 L -149.382,-454.909 L -149.649,-454.341 L -149.843,-453.743
 L -149.961,-453.127 L -150,-452.5 L -150,-387.5 L -149.961,-386.873 L -149.843,-386.257 L -149.649,-385.659
 L -149.382,-385.091 L -149.045,-384.561 L -148.645,-384.077 L -148.187,-383.647 L -147.679,-383.278 L -147.129,-382.976
 L -146.545,-382.745 L -145.937,-382.589 L -145.314,-382.51 L 145.314,-382.51 z
M -145.037,-383.181 L -145.608,-383.253 L -146.165,-383.396 L -146.699,-383.607 L -147.203,-383.884 L -147.668,-384.222
 L -148.088,-384.616 L -148.454,-385.059 L -148.762,-385.544 L -149.007,-386.065 L -149.185,-386.611 L -149.292,-387.176
 L -149.328,-387.75 L -149.328,-452.25 L -149.292,-452.824 L -149.185,-453.389 L -149.007,-453.935 L -148.762,-454.456
 L -148.454,-454.941 L -148.088,-455.384 L -147.668,-455.778 L -147.203,-456.116 L -146.699,-456.393 L -146.165,-456.604
 L -145.608,-456.747 L -145.037,-456.819 L 145.037,-456.819 L 145.608,-456.747 L 146.165,-456.604 L 146.699,-456.393
 L 147.203,-456.116 L 147.668,-455.778 L 148.088,-455.384 L 148.454,-454.941 L 148.762,-454.456 L 149.007,-453.935
 L 149.185,-453.389 L 149.292,-452.824 L 149.328,-452.25 L 149.328,-387.75 L 149.292,-387.176 L 149.185,-386.611
 L 149.007,-386.065 L 148.762,-385.544 L 148.454,-385.059 L 148.088,-384.616 L 147.668,-384.222 L 147.203,-383.884
 L 146.699,-383.607 L 146.165,-383.396 L 145.608,-383.253 L 145.037,-383.181 z
M 145.937,-298.589 L 146.545,-298.745 L 147.129,-298.976 L 147.679,-299.278 L 148.187,-299.647 L 148.645,-300.077
 L 149.045,-300.561 L 149.382,-301.091 L 149.649,-301.659 L 149.843,-302.257 L 149.961,-302.873 L 150,-303.5
 L 150,-368.5 L 149.961,-369.127 L 149.843,-369.743 L 149.649,-370.341 L 149.382,-370.909 L 149.045,-371.439
 L 148.645,-371.923 L 148.187,-372.353 L 147.679,-372.722 L 147.129,-373.024 L 146.545,-373.255 L 145.937,-373.411
 L 145.314,-373.49 L -145.314,-373.49 L -145.937,-373.411 L -146.545,-373.255 L -147.129,-373.024 L -147.679,-372.722
 L -148.187,-372.353 L -148.645,-371.923 L -149.045,-371.439 L -149.382,-370.909 L -149.649,-370.341 L -149.843,-369.743
 L -149.961,-369.127 L -150,-368.5 L -150,-303.5 L -149.961,-302.873 L -149.843,-302.257 L -149.649,-301.659
 L -149.382,-301.091 L -149.045,-300.561 L -148.645,-300.077 L -148.187,-299.647 L -147.679,-299.278 L -147.129,-298.976
 L -146.545,-298.745 L -145.937,-298.589 L -145.314,-298.51 L 145.314,-298.51 z
M -144.882,-301.645 L -145.145,-301.678 L -145.402,-301.744 L -145.648,-301.841 L -145.88,-301.969 L -146.095,-302.125
 L -146.288,-302.306 L -146.457,-302.51 L -146.599,-302.734 L -146.711,-302.973 L -146.793,-303.225 L -146.843,-303.486
 L -146.86,-303.75 L -146.86,-368.25 L -146.843,-368.514 L -146.793,-368.775 L -146.711,-369.027 L -146.599,-369.266
 L -146.457,-369.49 L -146.288,-369.694 L -146.095,-369.875 L -145.88,-370.031 L -145.648,-370.159 L -145.402,-370.256
 L -145.145,-370.322 L -144.882,-370.355 L 144.882,-370.355 L 145.145,-370.322 L 145.402,-370.256 L 145.648,-370.159
 L 145.88,-370.031 L 146.095,-369.875 L 146.288,-369.694 L 146.457,-369.49 L 146.599,-369.266 L 146.711,-369.027
 L 146.793,-368.775 L 146.843,-368.514 L 146.86,-368.25 L 146.86,-303.75 L 146.843,-303.486 L 146.793,-303.225
 L 146.711,-302.973 L 146.599,-302.734 L 146.457,-302.51 L 146.288,-302.306 L 146.095,-302.125 L 145.88,-301.969
 L 145.648,-301.841 L 145.402,-301.744 L 145.145,-301.678 L 144.882,-301.645 z
" stroke="black" fill="lightgray" stroke-width="0.5"/>
</svg>
