<?xml version="1.0" standalone="no"?>
<!DOCTYPE svg PUBLIC "-//W3C//DTD SVG 1.1//EN" "http://www.w3.org/Graphics/SVG/1.1/DTD/svg11.dtd">
<svg width="240mm" height="867mm" viewBox="-120 -1638 240 867" xmlns="http://www.w3.org/2000/svg" version="1.1">
<title>OpenSCAD Model</title>
<path d="
M 115.937,-1428.09 L 116.545,-1428.24 L 117.129,-1428.48 L 117.679,-1428.78 L 118.187,-1429.15 L 118.645,-1429.58
 L 119.045,-1430.06 L 119.382,-1430.59 L 119.649,-1431.16 L 119.843,-1431.76 L 119.961,-1432.37 L 120,-1433
 L 120,-1633 L 119.961,-1633.63 L 119.843,-1634.24 L 119.649,-1634.84 L 119.382,-1635.41 L 119.045,-1635.94
 L 118.645,-1636.42 L 118.187,-1636.85 L 117.679,-1637.22 L 117.129,-1637.52 L 116.545,-1637.76 L 115.937,-1637.91
 L 115.314,-1637.99 L -115.314,-1637.99 L -115.937,-1637.91 L -116.545,-1637.76 L -117.129,-1637.52 L -117.679,-1637.22
 L -118.187,-1636.85 L -118.645,-1636.42 L -119.045,-1635.94 L -119.382,-1635.41 L -119.649,-1634.84 L -119.843,-1634.24
 L -119.961,-1633.63 L -120,-1633 L -120,-1433 L -119.961,-1432.37 L -119.843,-1431.76 L -119.649,-1431.16
 L -119.382,-1430.59 L -119.045,-1430.06 L -118.645,-1429.58 L -118.187,-1429.15 L -117.679,-1428.78 L -117.129,-1428.48
 L -116.545,-1428.24 L -115.937,-1428.09 L -115.314,-1428.01 L 115.314,-1428.01 z
M -115.048,-1428.51 L -115.64,-1428.58 L -116.218,-1428.73 L -116.772,-1428.95 L -117.295,-1429.24 L -117.778,-1429.59
 L -118.213,-1430 L -118.593,-1430.46 L -118.912,-1430.96 L -119.166,-1431.5 L -119.351,-1432.07 L -119.463,-1432.65
 L -119.5,-1433.25 L -119.5,-1632.75 L -119.463,-1633.35 L -119.351,-1633.93 L -119.166,-1634.5 L -118.912,-1635.04
 L -118.593,-1635.54 L -118.213,-1636 L -117.778,-1636.41 L -117.295,-1636.76 L -116.772,-1637.05 L -116.218,-1637.27
 L -115.64,-1637.42 L -115.048,-1637.49 L 115.048,-1637.49 L 115.64,-1637.42 L 116.218,-1637.27 L 116.772,-1637.05
 L 117.295,-1636.76 L 117.778,-1636.41 L 118.213,-1636 L 118.593,-1635.54 L 118.912,-1635.04 L 119.166,-1634.5
 L 119.351,-1633.93 L 119.463,-1633.35 L 119.5,-1632.75 L 119.5,-1433.25 L 119.463,-1432.65 L 119.351,-1432.07
 L 119.166,-1431.5 L 118.912,-1430.96 L 118.593,-1430.46 L 118.213,-1430 L 117.778,-1429.59 L 117.295,-1429.24
 L 116.772,-1428.95 L 116.218,-1428.73 L 115.64,-1428.58 L 115.048,-1428.51 z
M 115.937,-1209.09 L 116.545,-1209.24 L 117.129,-1209.48 L 117.679,-1209.78 L 118.187,-1210.15 L 118.645,-1210.58
 L 119.045,-1211.06 L 119.382,-1211.59 L 119.649,-1212.16 L 119.843,-1212.76 L 119.961,-1213.37 L 120,-1214
 L 120,-1414 L 119.961,-1414.63 L 119.843,-1415.24 L 119.649,-1415.84 L 119.382,-1416.41 L 119.045,-1416.94
 L 118.645,-1417.42 L 118.187,-1417.85 L 117.679,-1418.22 L 117.129,-1418.52 L 116.545,-1418.76 L 115.937,-1418.91
 L 115.314,-1418.99 L -115.314,-1418.99 L -115.937,-1418.91 L -116.545,-1418.76 L -117.129,-1418.52 L -117.679,-1418.22
 L -118.187,-1417.85 L -118.645,-1417.42 L -119.045,-1416.94 L -119.382,-1416.41 L -119.649,-1415.84 L -119.843,-1415.24
 L -119.961,-1414.63 L -120,-1414 L -120,-1214 L -119.961,-1213.37 L -119.843,-1212.76 L -119.649,-1212.16
 L -119.382,-1211.59 L -119.045,-1211.06 L -118.645,-1210.58 L -118.187,-1210.15 L -117.679,-1209.78 L -117.129,-1209.48
 L -116.545,-1209.24 L -115.937,-1209.09 L -115.314,-1209.01 L 115.314,-1209.01 z
M -115.048,-1209.51 L -115.64,-1209.58 L -116.218,-1209.73 L -116.772,-1209.95 L -117.295,-1210.24 L -117.778,-1210.59
 L -118.213,-1211 L -118.593,-1211.46 L -118.912,-1211.96 L -119.166,-1212.5 L -119.351,-1213.07 L -119.463,-1213.65
 L -119.5,-1214.25 L -119.5,-1413.75 L -119.463,-1414.35 L -119.351,-1414.93 L -119.166,-1415.5 L -118.912,-1416.04
 L -118.593,-1416.54 L -118.213,-1417 L -117.778,-1417.41 L -117.295,-1417.76 L -116.772,-1418.05 L -116.218,-1418.27
 L -115.64,-1418.42 L -115.048,-1418.49 L 115.048,-1418.49 L 115.64,-1418.42 L 116.218,-1418.27 L 116.772,-1418.05
 L 117.295,-1417.76 L 117.778,-1417.41 L 118.213,-1417 L 118.593,-1416.54 L 118.912,-1416.04 L 119.166,-1415.5
 L 119.351,-1414.93 L 119.463,-1414.35 L 119.5,-1413.75 L 119.5,-1214.25 L 119.463,-1213.65 L 119.351,-1213.07
 L 119.166,-1212.5 L 118.912,-1211.96 L 118.593,-1211.46 L 118.213,-1211 L 117.778,-1210.59 L 117.295,-1210.24
 L 116.772,-1209.95 L 116.218,-1209.73 L 115.64,-1209.58 L 115.048,-1209.51 z
M 115.937,-990.089 L 116.545,-990.245 L 117.129,-990.476 L 117.679,-990.778 L 118.187,-991.147 L 118.645,-991.577
 L 119.045,-992.061 L 119.382,-992.591 L 119.649,-993.159 L 119.843,-993.757 L 119.961,-994.373 L 120,-995
 L 120,-1195 L 119.961,-1195.63 L 119.843,-1196.24 L 119.649,-1196.84 L 119.382,-1197.41 L 119.045,-1197.94
 L 118.645,-1198.42 L 118.187,-1198.85 L 117.679,-1199.22 L 117.129,-1199.52 L 116.545,-1199.76 L 115.937,-1199.91
 L 115.314,-1199.99 L -115.314,-1199.99 L -115.937,-1199.91 L -116.545,-1199.76 L -117.129,-1199.52 L -117.679,-1199.22
 L -118.187,-1198.85 L -118.645,-1198.42 L -119.045,-1197.94 L -119.382,-1197.41 L -119.649,-1196.84 L -119.843,-1196.24
 L -119.961,-1195.63 L -120,-1195 L -120,-995 L -119.961,-994.373 L -119.843,-993.757 L -119.649,-993.159
 L -119.382,-992.591 L -119.045,-992.061 L -118.645,-991.577 L -118.187,-991.147 L -117.679,-990.778 L -117.129,-990.476
 L -116.545,-990.245 L -115.937,-990.089 L -115.314,-990.01 L 115.314,-990.01 z
M -115.037,-990.681 L -115.608,-990.753 L -116.165,-990.896 L -116.699,-991.107 L -117.203,-991.384 L -117.668,-991.722
 L -118.088,-992.116 L -118.454,-992.559 L -118.762,-993.044 L -119.007,-993.565 L -119.185,-994.111 L -119.292,-994.676
 L -119.328,-995.25 L -119.328,-1194.75 L -119.292,-1195.32 L -119.185,-1195.89 L -119.007,-1196.44 L -118.762,-1196.96
 L -118.454,-1197.44 L -118.088,-1197.88 L -117.668,-1198.28 L -117.203,-1198.62 L -116.699,-1198.89 L -116.165,-1199.1
 L -115.608,-1199.25 L -115.037,-1199.32 L 115.037,-1199.32 L 115.608,-1199.25 L 116.165,-1199.1 L 116.699,-1198.89
 L 117.203,-1198.62 L 117.668,-1198.28 L 118.088,-1197.88 L 118.454,-1197.44 L 118.762,-1196.96 L 119.007,-1196.44
 L 119.185,-1195.89 L 119.292,-1195.32 L 119.328,-1194.75 L 119.328,-995.25 L 119.292,-994.676 L 119.185,-994.111
 L 119.007,-993.565 L 118.762,-993.044 L 118.454,-992.559 L 118.088,-992.116 L 117.668,-991.722 L 117.203,-991.384
 L 116.699,-991.107 L 116.165,-990.896 L 115.608,-990.753 L 115.037,-990.681 z
M 115.937,-771.089 L 116.545,-771.245 L 117.129,-771.476 L 117.679,-771.778 L 118.187,-772.147 L 118.645,-772.577
 L 119.045,-773.061 L 119.382,-773.591 L 119.649,-774.159 L 119.843,-774.757 L 119.961,-775.373 L 120,-776
 L 120,-976 L 119.961,-976.627 L 119.843,-977.243 L 119.649,-977.841 L 119.382,-978.409 L 119.045,-978.939
 L 118.645,-979.423 L 118.187,-979.853 L 117.679,-980.222 L 117.129,-980.524 L 116.545,-980.755 L 115.937,-980.911
 L 115.314,-980.99 L -115.314,-980.99 L -115.937,-980.911 L -116.545,-980.755 L -117.129,-980.524 L -117.679,-980.222
 L -118.187,-979.853 L -118.645,-979.423 L -119.045,-978.939 L -119.382,-978.409 L -119.649,-977.841 L -119.843,-977.243
 L -119.961,-976.627 L -120,-976 L -120,-776 L -119.961,-775.373 L -119.843,-774.757 L -119.649,-774.159
 L -119.382,-773.591 L -119.045,-773.061 L -118.645,-772.577 L -118.187,-772.147 L -117.679,-771.778 L -117.129,-771.476
 L -116.545,-771.245 L -115.937,-771.089 L -115.314,-771.01 L 115.314,-771.01 z
M -114.882,-774.145 L -115.145,-774.178 L -115.402,-774.244 L -115.648,-774.341 L -115.88,-774.469 L -116.095,-774.624
 L -116.288,-774.806 L -116.457,-775.01 L -116.599,-775.234 L -116.711,-775.473 L -116.793,-775.725 L -116.843,-775.986
 L -116.86,-776.25 L -116.86,-975.75 L -116.843,-976.014 L -116.793,-976.275 L -116.711,-976.527 L -116.599,-976.766
 L -116.457,-976.99 L -116.288,-977.194 L -116.095,-977.376 L -115.88,-977.531 L -115.648,-977.659 L -115.402,-977.756
 L -115.145,-977.822 L -114.882,-977.855 L 114.882,-977.855 L 115.145,-977.822 L 115.402,-977.756 L 115.648,-977.659
 L 115.88,-977.531 L 116.095,-977.376 L 116.288,-977.194 L 116.457,-976.99 L 116.599,-976.766 L 116.711,-976.527
 L 116.793,-976.275 L 116.843,-976.014 L 116.86,-975.75 L 116.86,-776.25 L 116.843,-775.986 L 116.793,-775.725
 L 116.711,-775.473 L 116.599,-775.234 L 116.457,-775.01 L 116.288,-774.806 L 116.095,-774.624 L 115.88,-774.469
 L 115.648,-774.341 L 115.402,-774.244 L 115.145,-774.178 L 114.882,-774.145 z
" stroke="black" fill="lightgray" stroke-width="0.5"/>
</svg>
