<?xml version="1.0" standalone="no"?>
<!DOCTYPE svg PUBLIC "-//W3C//DTD SVG 1.1//EN" "http://www.w3.org/Graphics/SVG/1.1/DTD/svg11.dtd">
<svg width="272mm" height="784mm" viewBox="-137 -1184 272 784" xmlns="http://www.w3.org/2000/svg" version="1.1">
<title>OpenSCAD Model</title>
<path d="
M -133.5,-929.941 L -133.187,-929.647 L -132.679,-929.278 L -132.129,-928.976 L -131.545,-928.745 L -130.937,-928.589
 L -130.314,-928.51 L 130.314,-928.51 L 130.937,-928.589 L 131.545,-928.745 L 132.129,-928.976 L 132.679,-929.278
 L 133.187,-929.647 L 133.645,-930.077 L 134.045,-930.561 L 134.382,-931.091 L 134.649,-931.659 L 134.843,-932.257
 L 134.961,-932.873 L 135,-933.5 L 135,-1178.5 L 134.961,-1179.13 L 134.843,-1179.74 L 134.649,-1180.34
 L 134.382,-1180.91 L 134.045,-1181.44 L 133.645,-1181.92 L 133.187,-1182.35 L 132.679,-1182.72 L 132.129,-1183.02
 L 131.545,-1183.26 L 130.937,-1183.41 L 130.314,-1183.49 L -130.314,-1183.49 L -130.937,-1183.41 L -131.545,-1183.26
 L -132.129,-1183.02 L -132.679,-1182.72 L -133.187,-1182.35 L -133.5,-1182.06 L -133.5,-1183.49 L -136.5,-1183.49
 L -136.5,-928.51 L -133.5,-928.51 z
M -129.743,-930.135 L -130.226,-930.196 L -130.697,-930.317 L -131.149,-930.496 L -131.575,-930.73 L -131.969,-931.016
 L -132.323,-931.349 L -132.633,-931.724 L -132.894,-932.134 L -133.101,-932.574 L -133.251,-933.037 L -133.342,-933.515
 L -133.373,-934 L -133.373,-1178 L -133.342,-1178.49 L -133.251,-1178.96 L -133.101,-1179.43 L -132.894,-1179.87
 L -132.633,-1180.28 L -132.323,-1180.65 L -131.969,-1180.98 L -131.575,-1181.27 L -131.149,-1181.5 L -130.697,-1181.68
 L -130.226,-1181.8 L -129.743,-1181.86 L 129.743,-1181.86 L 130.226,-1181.8 L 130.697,-1181.68 L 131.149,-1181.5
 L 131.575,-1181.27 L 131.969,-1180.98 L 132.323,-1180.65 L 132.633,-1180.28 L 132.894,-1179.87 L 133.101,-1179.43
 L 133.251,-1178.96 L 133.342,-1178.49 L 133.373,-1178 L 133.373,-934 L 133.342,-933.515 L 133.251,-933.037
 L 133.101,-932.574 L 132.894,-932.134 L 132.633,-931.724 L 132.323,-931.349 L 131.969,-931.016 L 131.575,-930.73
 L 131.149,-930.496 L 130.697,-930.317 L 130.226,-930.196 L 129.743,-930.135 z
M 130.937,-664.589 L 131.545,-664.745 L 132.129,-664.976 L 132.679,-665.278 L 133.187,-665.647 L 133.645,-666.077
 L 134.045,-666.561 L 134.382,-667.091 L 134.649,-667.659 L 134.843,-668.257 L 134.961,-668.873 L 135,-669.5
 L 135,-914.5 L 134.961,-915.127 L 134.843,-915.743 L 134.649,-916.341 L 134.382,-916.909 L 134.045,-917.439
 L 133.645,-917.923 L 133.187,-918.353 L 132.679,-918.722 L 132.129,-919.024 L 131.545,-919.255 L 130.937,-919.411
 L 130.314,-919.49 L -130.314,-919.49 L -130.937,-919.411 L -131.545,-919.255 L -132.129,-919.024 L -132.679,-918.722
 L -133.187,-918.353 L -133.5,-918.059 L -133.5,-919.115 L -136.5,-919.115 L -136.5,-664.885 L -133.5,-664.885
 L -133.5,-665.941 L -133.187,-665.647 L -132.679,-665.278 L -132.129,-664.976 L -131.545,-664.745 L -130.937,-664.589
 L -130.314,-664.51 L 130.314,-664.51 z
M 127.349,-909.605 L 127.05,-909.643 L 126.758,-909.717 L 126.478,-909.828 L 126.214,-909.974 L 125.97,-910.151
 L 125.75,-910.357 L 125.558,-910.589 L 125.397,-910.844 L 125.269,-911.117 L 125.175,-911.403 L 125.119,-911.699
 L 125.1,-912 L 125.119,-912.301 L 125.175,-912.597 L 125.269,-912.883 L 125.397,-913.156 L 125.558,-913.411
 L 125.75,-913.643 L 125.97,-913.849 L 126.214,-914.026 L 126.478,-914.172 L 126.758,-914.283 L 127.05,-914.357
 L 127.349,-914.395 L 127.651,-914.395 L 127.95,-914.357 L 128.242,-914.283 L 128.522,-914.172 L 128.786,-914.026
 L 129.03,-913.849 L 129.25,-913.643 L 129.442,-913.411 L 129.603,-913.156 L 129.731,-912.883 L 129.825,-912.597
 L 129.881,-912.301 L 129.9,-912 L 129.881,-911.699 L 129.825,-911.403 L 129.731,-911.117 L 129.603,-910.844
 L 129.442,-910.589 L 129.25,-910.357 L 129.03,-910.151 L 128.786,-909.974 L 128.522,-909.828 L 128.242,-909.717
 L 127.95,-909.643 L 127.651,-909.605 z
M -127.651,-909.605 L -127.95,-909.643 L -128.242,-909.717 L -128.522,-909.828 L -128.786,-909.974 L -129.03,-910.151
 L -129.25,-910.357 L -129.442,-910.589 L -129.603,-910.844 L -129.731,-911.117 L -129.825,-911.403 L -129.881,-911.699
 L -129.9,-912 L -129.881,-912.301 L -129.825,-912.597 L -129.731,-912.883 L -129.603,-913.156 L -129.442,-913.411
 L -129.25,-913.643 L -129.03,-913.849 L -128.786,-914.026 L -128.522,-914.172 L -128.242,-914.283 L -127.95,-914.357
 L -127.651,-914.395 L -127.349,-914.395 L -127.05,-914.357 L -126.758,-914.283 L -126.478,-914.172 L -126.214,-914.026
 L -125.97,-913.849 L -125.75,-913.643 L -125.558,-913.411 L -125.397,-913.156 L -125.269,-912.883 L -125.175,-912.597
 L -125.119,-912.301 L -125.1,-912 L -125.119,-911.699 L -125.175,-911.403 L -125.269,-911.117 L -125.397,-910.844
 L -125.558,-910.589 L -125.75,-910.357 L -125.97,-910.151 L -126.214,-909.974 L -126.478,-909.828 L -126.758,-909.717
 L -127.05,-909.643 L -127.349,-909.605 z
M 127.349,-669.605 L 127.05,-669.643 L 126.758,-669.717 L 126.478,-669.828 L 126.214,-669.974 L 125.97,-670.151
 L 125.75,-670.357 L 125.558,-670.589 L 125.397,-670.844 L 125.269,-671.117 L 125.175,-671.403 L 125.119,-671.699
 L 125.1,-672 L 125.119,-672.301 L 125.175,-672.597 L 125.269,-672.883 L 125.397,-673.156 L 125.558,-673.411
 L 125.75,-673.643 L 125.97,-673.849 L 126.214,-674.026 L 126.478,-674.172 L 126.758,-674.283 L 127.05,-674.357
 L 127.349,-674.395 L 127.651,-674.395 L 127.95,-674.357 L 128.242,-674.283 L 128.522,-674.172 L 128.786,-674.026
 L 129.03,-673.849 L 129.25,-673.643 L 129.442,-673.411 L 129.603,-673.156 L 129.731,-672.883 L 129.825,-672.597
 L 129.881,-672.301 L 129.9,-672 L 129.881,-671.699 L 129.825,-671.403 L 129.731,-671.117 L 129.603,-670.844
 L 129.442,-670.589 L 129.25,-670.357 L 129.03,-670.151 L 128.786,-669.974 L 128.522,-669.828 L 128.242,-669.717
 L 127.95,-669.643 L 127.651,-669.605 z
M -127.651,-669.605 L -127.95,-669.643 L -128.242,-669.717 L -128.522,-669.828 L -128.786,-669.974 L -129.03,-670.151
 L -129.25,-670.357 L -129.442,-670.589 L -129.603,-670.844 L -129.731,-671.117 L -129.825,-671.403 L -129.881,-671.699
 L -129.9,-672 L -129.881,-672.301 L -129.825,-672.597 L -129.731,-672.883 L -129.603,-673.156 L -129.442,-673.411
 L -129.25,-673.643 L -129.03,-673.849 L -128.786,-674.026 L -128.522,-674.172 L -128.242,-674.283 L -127.95,-674.357
 L -127.651,-674.395 L -127.349,-674.395 L -127.05,-674.357 L -126.758,-674.283 L -126.478,-674.172 L -126.214,-674.026
 L -125.97,-673.849 L -125.75,-673.643 L -125.558,-673.411 L -125.397,-673.156 L -125.269,-672.883 L -125.175,-672.597
 L -125.119,-672.301 L -125.1,-672 L -125.119,-671.699 L -125.175,-671.403 L -125.269,-671.117 L -125.397,-670.844
 L -125.558,-670.589 L -125.75,-670.357 L -125.97,-670.151 L -126.214,-669.974 L -126.478,-669.828 L -126.758,-669.717
 L -127.05,-669.643 L -127.349,-669.605 z
M 130.937,-400.589 L 131.545,-400.745 L 132.129,-400.976 L 132.679,-401.278 L 133.187,-401.647 L 133.645,-402.077
 L 134.045,-402.561 L 134.382,-403.091 L 134.649,-403.659 L 134.843,-404.257 L 134.961,-404.873 L 135,-405.5
 L 135,-650.5 L 134.961,-651.127 L 134.843,-651.743 L 134.649,-652.341 L 134.382,-652.909 L 134.045,-653.439
 L 133.645,-653.923 L 133.187,-654.353 L 132.679,-654.722 L 132.129,-655.024 L 131.545,-655.255 L 130.937,-655.411
 L 130.314,-655.49 L -130.314,-655.49 L -130.937,-655.411 L -131.545,-655.255 L -132.129,-655.024 L -132.679,-654.722
 L -133.187,-654.353 L -133.645,-653.923 L -134.045,-653.439 L -134.382,-652.909 L -134.649,-652.341 L -134.843,-651.743
 L -134.9,-651.444 L -136.5,-651.444 L -136.5,-404.556 L -134.9,-404.556 L -134.843,-404.257 L -134.649,-403.659
 L -134.382,-403.091 L -134.045,-402.561 L -133.645,-402.077 L -133.187,-401.647 L -132.679,-401.278 L -132.129,-400.976
 L -131.545,-400.745 L -130.937,-400.589 L -130.314,-400.51 L 130.314,-400.51 z
M -127.613,-646.204 L -127.837,-646.232 L -128.056,-646.288 L -128.266,-646.371 L -128.464,-646.48 L -128.647,-646.613
 L -128.812,-646.768 L -128.956,-646.942 L -129.077,-647.133 L -129.174,-647.337 L -129.243,-647.552 L -129.286,-647.774
 L -129.3,-648 L -129.286,-648.226 L -129.243,-648.448 L -129.174,-648.663 L -129.077,-648.867 L -128.956,-649.058
 L -128.812,-649.232 L -128.647,-649.387 L -128.464,-649.52 L -128.266,-649.629 L -128.056,-649.712 L -127.837,-649.768
 L -127.613,-649.796 L -127.387,-649.796 L -127.163,-649.768 L -126.944,-649.712 L -126.734,-649.629 L -126.536,-649.52
 L -126.353,-649.387 L -126.188,-649.232 L -126.044,-649.058 L -125.923,-648.867 L -125.826,-648.663 L -125.757,-648.448
 L -125.714,-648.226 L -125.7,-648 L -125.714,-647.774 L -125.757,-647.552 L -125.826,-647.337 L -125.923,-647.133
 L -126.044,-646.942 L -126.188,-646.768 L -126.353,-646.613 L -126.536,-646.48 L -126.734,-646.371 L -126.944,-646.288
 L -127.163,-646.232 L -127.387,-646.204 z
M 127.387,-646.204 L 127.163,-646.232 L 126.944,-646.288 L 126.734,-646.371 L 126.536,-646.48 L 126.353,-646.613
 L 126.188,-646.768 L 126.044,-646.942 L 125.923,-647.133 L 125.826,-647.337 L 125.757,-647.552 L 125.714,-647.774
 L 125.7,-648 L 125.714,-648.226 L 125.757,-648.448 L 125.826,-648.663 L 125.923,-648.867 L 126.044,-649.058
 L 126.188,-649.232 L 126.353,-649.387 L 126.536,-649.52 L 126.734,-649.629 L 126.944,-649.712 L 127.163,-649.768
 L 127.387,-649.796 L 127.613,-649.796 L 127.837,-649.768 L 128.056,-649.712 L 128.266,-649.629 L 128.464,-649.52
 L 128.647,-649.387 L 128.812,-649.232 L 128.956,-649.058 L 129.077,-648.867 L 129.174,-648.663 L 129.243,-648.448
 L 129.286,-648.226 L 129.3,-648 L 129.286,-647.774 L 129.243,-647.552 L 129.174,-647.337 L 129.077,-647.133
 L 128.956,-646.942 L 128.812,-646.768 L 128.647,-646.613 L 128.464,-646.48 L 128.266,-646.371 L 128.056,-646.288
 L 127.837,-646.232 L 127.613,-646.204 z
M 127.387,-406.204 L 127.163,-406.232 L 126.944,-406.288 L 126.734,-406.371 L 126.536,-406.48 L 126.353,-406.613
 L 126.188,-406.768 L 126.044,-406.942 L 125.923,-407.133 L 125.826,-407.337 L 125.757,-407.552 L 125.714,-407.774
 L 125.7,-408 L 125.714,-408.226 L 125.757,-408.448 L 125.826,-408.663 L 125.923,-408.867 L 126.044,-409.058
 L 126.188,-409.232 L 126.353,-409.387 L 126.536,-409.52 L 126.734,-409.629 L 126.944,-409.712 L 127.163,-409.768
 L 127.387,-409.796 L 127.613,-409.796 L 127.837,-409.768 L 128.056,-409.712 L 128.266,-409.629 L 128.464,-409.52
 L 128.647,-409.387 L 128.812,-409.232 L 128.956,-409.058 L 129.077,-408.867 L 129.174,-408.663 L 129.243,-408.448
 L 129.286,-408.226 L 129.3,-408 L 129.286,-407.774 L 129.243,-407.552 L 129.174,-407.337 L 129.077,-407.133
 L 128.956,-406.942 L 128.812,-406.768 L 128.647,-406.613 L 128.464,-406.48 L 128.266,-406.371 L 128.056,-406.288
 L 127.837,-406.232 L 127.613,-406.204 z
M -127.613,-406.204 L -127.837,-406.232 L -128.056,-406.288 L -128.266,-406.371 L -128.464,-406.48 L -128.647,-406.613
 L -128.812,-406.768 L -128.956,-406.942 L -129.077,-407.133 L -129.174,-407.337 L -129.243,-407.552 L -129.286,-407.774
 L -129.3,-408 L -129.286,-408.226 L -129.243,-408.448 L -129.174,-408.663 L -129.077,-408.867 L -128.956,-409.058
 L -128.812,-409.232 L -128.647,-409.387 L -128.464,-409.52 L -128.266,-409.629 L -128.056,-409.712 L -127.837,-409.768
 L -127.613,-409.796 L -127.387,-409.796 L -127.163,-409.768 L -126.944,-409.712 L -126.734,-409.629 L -126.536,-409.52
 L -126.353,-409.387 L -126.188,-409.232 L -126.044,-409.058 L -125.923,-408.867 L -125.826,-408.663 L -125.757,-408.448
 L -125.714,-408.226 L -125.7,-408 L -125.714,-407.774 L -125.757,-407.552 L -125.826,-407.337 L -125.923,-407.133
 L -126.044,-406.942 L -126.188,-406.768 L -126.353,-406.613 L -126.536,-406.48 L -126.734,-406.371 L -126.944,-406.288
 L -127.163,-406.232 L -127.387,-406.204 z
" stroke="black" fill="lightgray" stroke-width="0.5"/>
</svg>
