<?xml version="1.0" standalone="no"?>
<!DOCTYPE svg PUBLIC "-//W3C//DTD SVG 1.1//EN" "http://www.w3.org/Graphics/SVG/1.1/DTD/svg11.dtd">
<svg width="300mm" height="784mm" viewBox="-150 -1184 300 784" xmlns="http://www.w3.org/2000/svg" version="1.1">
<title>OpenSCAD Model</title>
<path d="
M 145.937,-928.589 L 146.545,-928.745 L 147.129,-928.976 L 147.679,-929.278 L 148.187,-929.647 L 148.645,-930.077
 L 149.045,-930.561 L 149.382,-931.091 L 149.649,-931.659 L 149.843,-932.257 L 149.961,-932.873 L 150,-933.5
 L 150,-1178.5 L 149.961,-1179.13 L 149.843,-1179.74 L 149.649,-1180.34 L 149.382,-1180.91 L 149.045,-1181.44
 L 148.645,-1181.92 L 148.187,-1182.35 L 147.679,-1182.72 L 147.129,-1183.02 L 146.545,-1183.26 L 145.937,-1183.41
 L 145.314,-1183.49 L -145.314,-1183.49 L -145.937,-1183.41 L -146.545,-1183.26 L -147.129,-1183.02 L -147.679,-1182.72
 L -148.187,-1182.35 L -148.645,-1181.92 L -149.045,-1181.44 L -149.382,-1180.91 L -149.649,-1180.34 L -149.843,-1179.74
 L -149.961,-1179.13 L -150,-1178.5 L -150,-933.5 L -149.961,-932.873 L -149.843,-932.257 L -149.649,-931.659
 L -149.382,-931.091 L -149.045,-930.561 L -148.645,-930.077 L -148.187,-929.647 L -147.679,-929.278 L -147.129,-928.976
 L -146.545,-928.745 L -145.937,-928.589 L -145.314,-928.51 L 145.314,-928.51 z
M -145.048,-929.009 L -145.64,-929.084 L -146.218,-929.232 L -146.772,-929.452 L -147.295,-929.739 L -147.778,-930.09
 L -148.213,-930.498 L -148.593,-930.958 L -148.912,-931.462 L -149.166,-932.001 L -149.351,-932.569 L -149.463,-933.155
 L -149.5,-933.75 L -149.5,-1178.25 L -149.463,-1178.85 L -149.351,-1179.43 L -149.166,-1180 L -148.912,-1180.54
 L -148.593,-1181.04 L -148.213,-1181.5 L -147.778,-1181.91 L -147.295,-1182.26 L -146.772,-1182.55 L -146.218,-1182.77
 L -145.64,-1182.92 L -145.048,-1182.99 L 145.048,-1182.99 L 145.64,-1182.92 L 146.218,-1182.77 L 146.772,-1182.55
 L 147.295,-1182.26 L 147.778,-1181.91 L 148.213,-1181.5 L 148.593,-1181.04 L 148.912,-1180.54 L 149.166,-1180
 L 149.351,-1179.43 L 149.463,-1178.85 L 149.5,-1178.25 L 149.5,-933.75 L 149.463,-933.155 L 149.351,-932.569
 L 149.166,-932.001 L 148.912,-931.462 L 148.593,-930.958 L 148.213,-930.498 L 147.778,-930.09 L 147.295,-929.739
 L 146.772,-929.452 L 146.218,-929.232 L 145.64,-929.084 L 145.048,-929.009 z
M 145.937,-664.589 L 146.545,-664.745 L 147.129,-664.976 L 147.679,-665.278 L 148.187,-665.647 L 148.645,-666.077
 L 149.045,-666.561 L 149.382,-667.091 L 149.649,-667.659 L 149.843,-668.257 L 149.961,-668.873 L 150,-669.5
 L 150,-914.5 L 149.961,-915.127 L 149.843,-915.743 L 149.649,-916.341 L 149.382,-916.909 L 149.045,-917.439
 L 148.645,-917.923 L 148.187,-918.353 L 147.679,-918.722 L 147.129,-919.024 L 146.545,-919.255 L 145.937,-919.411
 L 145.314,-919.49 L -145.314,-919.49 L -145.937,-919.411 L -146.545,-919.255 L -147.129,-919.024 L -147.679,-918.722
 L -148.187,-918.353 L -148.645,-917.923 L -149.045,-917.439 L -149.382,-916.909 L -149.649,-916.341 L -149.843,-915.743
 L -149.961,-915.127 L -150,-914.5 L -150,-669.5 L -149.961,-668.873 L -149.843,-668.257 L -149.649,-667.659
 L -149.382,-667.091 L -149.045,-666.561 L -148.645,-666.077 L -148.187,-665.647 L -147.679,-665.278 L -147.129,-664.976
 L -146.545,-664.745 L -145.937,-664.589 L -145.314,-664.51 L 145.314,-664.51 z
M -144.993,-665.888 L -145.475,-665.949 L -145.946,-666.07 L -146.398,-666.249 L -146.823,-666.483 L -147.216,-666.769
 L -147.571,-667.101 L -147.88,-667.476 L -148.141,-667.886 L -148.348,-668.326 L -148.498,-668.788 L -148.589,-669.265
 L -148.619,-669.75 L -148.619,-914.25 L -148.589,-914.735 L -148.498,-915.212 L -148.348,-915.674 L -148.141,-916.114
 L -147.88,-916.524 L -147.571,-916.899 L -147.216,-917.231 L -146.823,-917.517 L -146.398,-917.751 L -145.946,-917.93
 L -145.475,-918.051 L -144.993,-918.112 L 144.993,-918.112 L 145.475,-918.051 L 145.946,-917.93 L 146.398,-917.751
 L 146.823,-917.517 L 147.216,-917.231 L 147.571,-916.899 L 147.88,-916.524 L 148.141,-916.114 L 148.348,-915.674
 L 148.498,-915.212 L 148.589,-914.735 L 148.619,-914.25 L 148.619,-669.75 L 148.589,-669.265 L 148.498,-668.788
 L 148.348,-668.326 L 148.141,-667.886 L 147.88,-667.476 L 147.571,-667.101 L 147.216,-666.769 L 146.823,-666.483
 L 146.398,-666.249 L 145.946,-666.07 L 145.475,-665.949 L 144.993,-665.888 z
M 145.937,-400.589 L 146.545,-400.745 L 147.129,-400.976 L 147.679,-401.278 L 148.187,-401.647 L 148.645,-402.077
 L 149.045,-402.561 L 149.382,-403.091 L 149.649,-403.659 L 149.843,-404.257 L 149.961,-404.873 L 150,-405.5
 L 150,-650.5 L 149.961,-651.127 L 149.843,-651.743 L 149.649,-652.341 L 149.382,-652.909 L 149.045,-653.439
 L 148.645,-653.923 L 148.187,-654.353 L 147.679,-654.722 L 147.129,-655.024 L 146.545,-655.255 L 145.937,-655.411
 L 145.314,-655.49 L -145.314,-655.49 L -145.937,-655.411 L -146.545,-655.255 L -147.129,-655.024 L -147.679,-654.722
 L -148.187,-654.353 L -148.645,-653.923 L -149.045,-653.439 L -149.382,-652.909 L -149.649,-652.341 L -149.843,-651.743
 L -149.961,-651.127 L -150,-650.5 L -150,-405.5 L -149.961,-404.873 L -149.843,-404.257 L -149.649,-403.659
 L -149.382,-403.091 L -149.045,-402.561 L -148.645,-402.077 L -148.187,-401.647 L -147.679,-401.278 L -147.129,-400.976
 L -146.545,-400.745 L -145.937,-400.589 L -145.314,-400.51 L 145.314,-400.51 z
M 142.387,-646.204 L 142.163,-646.232 L 141.944,-646.288 L 141.734,-646.371 L 141.536,-646.48 L 141.353,-646.613
 L 141.188,-646.768 L 141.044,-646.942 L 140.923,-647.133 L 140.826,-647.337 L 140.757,-647.552 L 140.714,-647.774
 L 140.7,-648 L 140.714,-648.226 L 140.757,-648.448 L 140.826,-648.663 L 140.923,-648.867 L 141.044,-649.058
 L 141.188,-649.232 L 141.353,-649.387 L 141.536,-649.52 L 141.734,-649.629 L 141.944,-649.712 L 142.163,-649.768
 L 142.387,-649.796 L 142.613,-649.796 L 142.837,-649.768 L 143.056,-649.712 L 143.266,-649.629 L 143.464,-649.52
 L 143.647,-649.387 L 143.812,-649.232 L 143.956,-649.058 L 144.077,-648.867 L 144.174,-648.663 L 144.243,-648.448
 L 144.286,-648.226 L 144.3,-648 L 144.286,-647.774 L 144.243,-647.552 L 144.174,-647.337 L 144.077,-647.133
 L 143.956,-646.942 L 143.812,-646.768 L 143.647,-646.613 L 143.464,-646.48 L 143.266,-646.371 L 143.056,-646.288
 L 142.837,-646.232 L 142.613,-646.204 z
M -142.613,-646.204 L -142.837,-646.232 L -143.056,-646.288 L -143.266,-646.371 L -143.464,-646.48 L -143.647,-646.613
 L -143.812,-646.768 L -143.956,-646.942 L -144.077,-647.133 L -144.174,-647.337 L -144.243,-647.552 L -144.286,-647.774
 L -144.3,-648 L -144.286,-648.226 L -144.243,-648.448 L -144.174,-648.663 L -144.077,-648.867 L -143.956,-649.058
 L -143.812,-649.232 L -143.647,-649.387 L -143.464,-649.52 L -143.266,-649.629 L -143.056,-649.712 L -142.837,-649.768
 L -142.613,-649.796 L -142.387,-649.796 L -142.163,-649.768 L -141.944,-649.712 L -141.734,-649.629 L -141.536,-649.52
 L -141.353,-649.387 L -141.188,-649.232 L -141.044,-649.058 L -140.923,-648.867 L -140.826,-648.663 L -140.757,-648.448
 L -140.714,-648.226 L -140.7,-648 L -140.714,-647.774 L -140.757,-647.552 L -140.826,-647.337 L -140.923,-647.133
 L -141.044,-646.942 L -141.188,-646.768 L -141.353,-646.613 L -141.536,-646.48 L -141.734,-646.371 L -141.944,-646.288
 L -142.163,-646.232 L -142.387,-646.204 z
M -142.613,-406.204 L -142.837,-406.232 L -143.056,-406.288 L -143.266,-406.371 L -143.464,-406.48 L -143.647,-406.613
 L -143.812,-406.768 L -143.956,-406.942 L -144.077,-407.133 L -144.174,-407.337 L -144.243,-407.552 L -144.286,-407.774
 L -144.3,-408 L -144.286,-408.226 L -144.243,-408.448 L -144.174,-408.663 L -144.077,-408.867 L -143.956,-409.058
 L -143.812,-409.232 L -143.647,-409.387 L -143.464,-409.52 L -143.266,-409.629 L -143.056,-409.712 L -142.837,-409.768
 L -142.613,-409.796 L -142.387,-409.796 L -142.163,-409.768 L -141.944,-409.712 L -141.734,-409.629 L -141.536,-409.52
 L -141.353,-409.387 L -141.188,-409.232 L -141.044,-409.058 L -140.923,-408.867 L -140.826,-408.663 L -140.757,-408.448
 L -140.714,-408.226 L -140.7,-408 L -140.714,-407.774 L -140.757,-407.552 L -140.826,-407.337 L -140.923,-407.133
 L -141.044,-406.942 L -141.188,-406.768 L -141.353,-406.613 L -141.536,-406.48 L -141.734,-406.371 L -141.944,-406.288
 L -142.163,-406.232 L -142.387,-406.204 z
M 142.387,-406.204 L 142.163,-406.232 L 141.944,-406.288 L 141.734,-406.371 L 141.536,-406.48 L 141.353,-406.613
 L 141.188,-406.768 L 141.044,-406.942 L 140.923,-407.133 L 140.826,-407.337 L 140.757,-407.552 L 140.714,-407.774
 L 140.7,-408 L 140.714,-408.226 L 140.757,-408.448 L 140.826,-408.663 L 140.923,-408.867 L 141.044,-409.058
 L 141.188,-409.232 L 141.353,-409.387 L 141.536,-409.52 L 141.734,-409.629 L 141.944,-409.712 L 142.163,-409.768
 L 142.387,-409.796 L 142.613,-409.796 L 142.837,-409.768 L 143.056,-409.712 L 143.266,-409.629 L 143.464,-409.52
 L 143.647,-409.387 L 143.812,-409.232 L 143.956,-409.058 L 144.077,-408.867 L 144.174,-408.663 L 144.243,-408.448
 L 144.286,-408.226 L 144.3,-408 L 144.286,-407.774 L 144.243,-407.552 L 144.174,-407.337 L 144.077,-407.133
 L 143.956,-406.942 L 143.812,-406.768 L 143.647,-406.613 L 143.464,-406.48 L 143.266,-406.371 L 143.056,-406.288
 L 142.837,-406.232 L 142.613,-406.204 z
" stroke="black" fill="lightgray" stroke-width="0.5"/>
</svg>
