  0
SECTION
  2
BLOCKS
  0
ENDSEC
  0
SECTION
  2
ENTITIES
  0
LINE
  8
0
 10
-118.5
 20
941.941
 11
-118.187
 21
941.647
  0
LINE
  8
0
 10
-118.187
 20
941.647
 11
-117.679
 21
941.278
  0
LINE
  8
0
 10
-117.679
 20
941.278
 11
-117.129
 21
940.976
  0
LINE
  8
0
 10
-117.129
 20
940.976
 11
-116.545
 21
940.745
  0
LINE
  8
0
 10
-116.545
 20
940.745
 11
-115.937
 21
940.589
  0
LINE
  8
0
 10
-115.937
 20
940.589
 11
-115.314
 21
940.51
  0
LINE
  8
0
 10
-115.314
 20
940.51
 11
115.314
 21
940.51
  0
LINE
  8
0
 10
115.314
 20
940.51
 11
115.937
 21
940.589
  0
LINE
  8
0
 10
115.937
 20
940.589
 11
116.545
 21
940.745
  0
LINE
  8
0
 10
116.545
 20
940.745
 11
117.129
 21
940.976
  0
LINE
  8
0
 10
117.129
 20
940.976
 11
117.679
 21
941.278
  0
LINE
  8
0
 10
117.679
 20
941.278
 11
118.187
 21
941.647
  0
LINE
  8
0
 10
118.187
 20
941.647
 11
118.645
 21
942.077
  0
LINE
  8
0
 10
118.645
 20
942.077
 11
119.045
 21
942.561
  0
LINE
  8
0
 10
119.045
 20
942.561
 11
119.382
 21
943.091
  0
LINE
  8
0
 10
119.382
 20
943.091
 11
119.649
 21
943.659
  0
LINE
  8
0
 10
119.649
 20
943.659
 11
119.843
 21
944.257
  0
LINE
  8
0
 10
119.843
 20
944.257
 11
119.961
 21
944.873
  0
LINE
  8
0
 10
119.961
 20
944.873
 11
120
 21
945.5
  0
LINE
  8
0
 10
120
 20
945.5
 11
120
 21
1070.5
  0
LINE
  8
0
 10
120
 20
1070.5
 11
119.961
 21
1071.13
  0
LINE
  8
0
 10
119.961
 20
1071.13
 11
119.843
 21
1071.74
  0
LINE
  8
0
 10
119.843
 20
1071.74
 11
119.649
 21
1072.34
  0
LINE
  8
0
 10
119.649
 20
1072.34
 11
119.382
 21
1072.91
  0
LINE
  8
0
 10
119.382
 20
1072.91
 11
119.045
 21
1073.44
  0
LINE
  8
0
 10
119.045
 20
1073.44
 11
118.645
 21
1073.92
  0
LINE
  8
0
 10
118.645
 20
1073.92
 11
118.187
 21
1074.35
  0
LINE
  8
0
 10
118.187
 20
1074.35
 11
117.679
 21
1074.72
  0
LINE
  8
0
 10
117.679
 20
1074.72
 11
117.129
 21
1075.02
  0
LINE
  8
0
 10
117.129
 20
1075.02
 11
116.545
 21
1075.26
  0
LINE
  8
0
 10
116.545
 20
1075.26
 11
115.937
 21
1075.41
  0
LINE
  8
0
 10
115.937
 20
1075.41
 11
115.314
 21
1075.49
  0
LINE
  8
0
 10
115.314
 20
1075.49
 11
-115.314
 21
1075.49
  0
LINE
  8
0
 10
-115.314
 20
1075.49
 11
-115.937
 21
1075.41
  0
LINE
  8
0
 10
-115.937
 20
1075.41
 11
-116.545
 21
1075.26
  0
LINE
  8
0
 10
-116.545
 20
1075.26
 11
-117.129
 21
1075.02
  0
LINE
  8
0
 10
-117.129
 20
1075.02
 11
-117.679
 21
1074.72
  0
LINE
  8
0
 10
-117.679
 20
1074.72
 11
-118.187
 21
1074.35
  0
LINE
  8
0
 10
-118.187
 20
1074.35
 11
-118.5
 21
1074.06
  0
LINE
  8
0
 10
-118.5
 20
1074.06
 11
-118.5
 21
1075.49
  0
LINE
  8
0
 10
-118.5
 20
1075.49
 11
-121.5
 21
1075.49
  0
LINE
  8
0
 10
-121.5
 20
1075.49
 11
-121.5
 21
940.51
  0
LINE
  8
0
 10
-121.5
 20
940.51
 11
-118.5
 21
940.51
  0
LINE
  8
0
 10
-118.5
 20
940.51
 11
-118.5
 21
941.941
  0
LINE
  8
0
 10
-114.751
 20
942.008
 11
-115.25
 21
942.071
  0
LINE
  8
0
 10
-115.25
 20
942.071
 11
-115.736
 21
942.196
  0
LINE
  8
0
 10
-115.736
 20
942.196
 11
-116.203
 21
942.381
  0
LINE
  8
0
 10
-116.203
 20
942.381
 11
-116.643
 21
942.623
  0
LINE
  8
0
 10
-116.643
 20
942.623
 11
-117.05
 21
942.918
  0
LINE
  8
0
 10
-117.05
 20
942.918
 11
-117.416
 21
943.262
  0
LINE
  8
0
 10
-117.416
 20
943.262
 11
-117.736
 21
943.649
  0
LINE
  8
0
 10
-117.736
 20
943.649
 11
-118.005
 21
944.073
  0
LINE
  8
0
 10
-118.005
 20
944.073
 11
-118.219
 21
944.528
  0
LINE
  8
0
 10
-118.219
 20
944.528
 11
-118.374
 21
945.005
  0
LINE
  8
0
 10
-118.374
 20
945.005
 11
-118.468
 21
945.499
  0
LINE
  8
0
 10
-118.468
 20
945.499
 11
-118.5
 21
946
  0
LINE
  8
0
 10
-118.5
 20
946
 11
-118.5
 21
1070
  0
LINE
  8
0
 10
-118.5
 20
1070
 11
-118.468
 21
1070.5
  0
LINE
  8
0
 10
-118.468
 20
1070.5
 11
-118.374
 21
1070.99
  0
LINE
  8
0
 10
-118.374
 20
1070.99
 11
-118.219
 21
1071.47
  0
LINE
  8
0
 10
-118.219
 20
1071.47
 11
-118.005
 21
1071.93
  0
LINE
  8
0
 10
-118.005
 20
1071.93
 11
-117.736
 21
1072.35
  0
LINE
  8
0
 10
-117.736
 20
1072.35
 11
-117.416
 21
1072.74
  0
LINE
  8
0
 10
-117.416
 20
1072.74
 11
-117.05
 21
1073.08
  0
LINE
  8
0
 10
-117.05
 20
1073.08
 11
-116.643
 21
1073.38
  0
LINE
  8
0
 10
-116.643
 20
1073.38
 11
-116.203
 21
1073.62
  0
LINE
  8
0
 10
-116.203
 20
1073.62
 11
-115.736
 21
1073.8
  0
LINE
  8
0
 10
-115.736
 20
1073.8
 11
-115.25
 21
1073.93
  0
LINE
  8
0
 10
-115.25
 20
1073.93
 11
-114.751
 21
1073.99
  0
LINE
  8
0
 10
-114.751
 20
1073.99
 11
114.751
 21
1073.99
  0
LINE
  8
0
 10
114.751
 20
1073.99
 11
115.25
 21
1073.93
  0
LINE
  8
0
 10
115.25
 20
1073.93
 11
115.736
 21
1073.8
  0
LINE
  8
0
 10
115.736
 20
1073.8
 11
116.203
 21
1073.62
  0
LINE
  8
0
 10
116.203
 20
1073.62
 11
116.643
 21
1073.38
  0
LINE
  8
0
 10
116.643
 20
1073.38
 11
117.05
 21
1073.08
  0
LINE
  8
0
 10
117.05
 20
1073.08
 11
117.416
 21
1072.74
  0
LINE
  8
0
 10
117.416
 20
1072.74
 11
117.736
 21
1072.35
  0
LINE
  8
0
 10
117.736
 20
1072.35
 11
118.005
 21
1071.93
  0
LINE
  8
0
 10
118.005
 20
1071.93
 11
118.219
 21
1071.47
  0
LINE
  8
0
 10
118.219
 20
1071.47
 11
118.374
 21
1070.99
  0
LINE
  8
0
 10
118.374
 20
1070.99
 11
118.468
 21
1070.5
  0
LINE
  8
0
 10
118.468
 20
1070.5
 11
118.5
 21
1070
  0
LINE
  8
0
 10
118.5
 20
1070
 11
118.5
 21
946
  0
LINE
  8
0
 10
118.5
 20
946
 11
118.468
 21
945.499
  0
LINE
  8
0
 10
118.468
 20
945.499
 11
118.374
 21
945.005
  0
LINE
  8
0
 10
118.374
 20
945.005
 11
118.219
 21
944.528
  0
LINE
  8
0
 10
118.219
 20
944.528
 11
118.005
 21
944.073
  0
LINE
  8
0
 10
118.005
 20
944.073
 11
117.736
 21
943.649
  0
LINE
  8
0
 10
117.736
 20
943.649
 11
117.416
 21
943.262
  0
LINE
  8
0
 10
117.416
 20
943.262
 11
117.05
 21
942.918
  0
LINE
  8
0
 10
117.05
 20
942.918
 11
116.643
 21
942.623
  0
LINE
  8
0
 10
116.643
 20
942.623
 11
116.203
 21
942.381
  0
LINE
  8
0
 10
116.203
 20
942.381
 11
115.736
 21
942.196
  0
LINE
  8
0
 10
115.736
 20
942.196
 11
115.25
 21
942.071
  0
LINE
  8
0
 10
115.25
 20
942.071
 11
114.751
 21
942.008
  0
LINE
  8
0
 10
114.751
 20
942.008
 11
-114.751
 21
942.008
  0
LINE
  8
0
 10
-118.5
 20
797.941
 11
-118.187
 21
797.647
  0
LINE
  8
0
 10
-118.187
 20
797.647
 11
-117.679
 21
797.278
  0
LINE
  8
0
 10
-117.679
 20
797.278
 11
-117.129
 21
796.976
  0
LINE
  8
0
 10
-117.129
 20
796.976
 11
-116.545
 21
796.745
  0
LINE
  8
0
 10
-116.545
 20
796.745
 11
-115.937
 21
796.589
  0
LINE
  8
0
 10
-115.937
 20
796.589
 11
-115.314
 21
796.51
  0
LINE
  8
0
 10
-115.314
 20
796.51
 11
115.314
 21
796.51
  0
LINE
  8
0
 10
115.314
 20
796.51
 11
115.937
 21
796.589
  0
LINE
  8
0
 10
115.937
 20
796.589
 11
116.545
 21
796.745
  0
LINE
  8
0
 10
116.545
 20
796.745
 11
117.129
 21
796.976
  0
LINE
  8
0
 10
117.129
 20
796.976
 11
117.679
 21
797.278
  0
LINE
  8
0
 10
117.679
 20
797.278
 11
118.187
 21
797.647
  0
LINE
  8
0
 10
118.187
 20
797.647
 11
118.645
 21
798.077
  0
LINE
  8
0
 10
118.645
 20
798.077
 11
119.045
 21
798.561
  0
LINE
  8
0
 10
119.045
 20
798.561
 11
119.382
 21
799.091
  0
LINE
  8
0
 10
119.382
 20
799.091
 11
119.649
 21
799.659
  0
LINE
  8
0
 10
119.649
 20
799.659
 11
119.843
 21
800.257
  0
LINE
  8
0
 10
119.843
 20
800.257
 11
119.961
 21
800.873
  0
LINE
  8
0
 10
119.961
 20
800.873
 11
120
 21
801.5
  0
LINE
  8
0
 10
120
 20
801.5
 11
120
 21
926.5
  0
LINE
  8
0
 10
120
 20
926.5
 11
119.961
 21
927.127
  0
LINE
  8
0
 10
119.961
 20
927.127
 11
119.843
 21
927.743
  0
LINE
  8
0
 10
119.843
 20
927.743
 11
119.649
 21
928.341
  0
LINE
  8
0
 10
119.649
 20
928.341
 11
119.382
 21
928.909
  0
LINE
  8
0
 10
119.382
 20
928.909
 11
119.045
 21
929.439
  0
LINE
  8
0
 10
119.045
 20
929.439
 11
118.645
 21
929.923
  0
LINE
  8
0
 10
118.645
 20
929.923
 11
118.187
 21
930.353
  0
LINE
  8
0
 10
118.187
 20
930.353
 11
117.679
 21
930.722
  0
LINE
  8
0
 10
117.679
 20
930.722
 11
117.129
 21
931.024
  0
LINE
  8
0
 10
117.129
 20
931.024
 11
116.545
 21
931.255
  0
LINE
  8
0
 10
116.545
 20
931.255
 11
115.937
 21
931.411
  0
LINE
  8
0
 10
115.937
 20
931.411
 11
115.314
 21
931.49
  0
LINE
  8
0
 10
115.314
 20
931.49
 11
-115.314
 21
931.49
  0
LINE
  8
0
 10
-115.314
 20
931.49
 11
-115.937
 21
931.411
  0
LINE
  8
0
 10
-115.937
 20
931.411
 11
-116.545
 21
931.255
  0
LINE
  8
0
 10
-116.545
 20
931.255
 11
-117.129
 21
931.024
  0
LINE
  8
0
 10
-117.129
 20
931.024
 11
-117.679
 21
930.722
  0
LINE
  8
0
 10
-117.679
 20
930.722
 11
-118.187
 21
930.353
  0
LINE
  8
0
 10
-118.187
 20
930.353
 11
-118.5
 21
930.059
  0
LINE
  8
0
 10
-118.5
 20
930.059
 11
-118.5
 21
931.49
  0
LINE
  8
0
 10
-118.5
 20
931.49
 11
-121.5
 21
931.49
  0
LINE
  8
0
 10
-121.5
 20
931.49
 11
-121.5
 21
796.51
  0
LINE
  8
0
 10
-121.5
 20
796.51
 11
-118.5
 21
796.51
  0
LINE
  8
0
 10
-118.5
 20
796.51
 11
-118.5
 21
797.941
  0
LINE
  8
0
 10
-114.751
 20
798.008
 11
-115.25
 21
798.071
  0
LINE
  8
0
 10
-115.25
 20
798.071
 11
-115.736
 21
798.196
  0
LINE
  8
0
 10
-115.736
 20
798.196
 11
-116.203
 21
798.381
  0
LINE
  8
0
 10
-116.203
 20
798.381
 11
-116.643
 21
798.623
  0
LINE
  8
0
 10
-116.643
 20
798.623
 11
-117.05
 21
798.918
  0
LINE
  8
0
 10
-117.05
 20
798.918
 11
-117.416
 21
799.262
  0
LINE
  8
0
 10
-117.416
 20
799.262
 11
-117.736
 21
799.649
  0
LINE
  8
0
 10
-117.736
 20
799.649
 11
-118.005
 21
800.073
  0
LINE
  8
0
 10
-118.005
 20
800.073
 11
-118.219
 21
800.528
  0
LINE
  8
0
 10
-118.219
 20
800.528
 11
-118.374
 21
801.005
  0
LINE
  8
0
 10
-118.374
 20
801.005
 11
-118.468
 21
801.499
  0
LINE
  8
0
 10
-118.468
 20
801.499
 11
-118.5
 21
802
  0
LINE
  8
0
 10
-118.5
 20
802
 11
-118.5
 21
926
  0
LINE
  8
0
 10
-118.5
 20
926
 11
-118.468
 21
926.501
  0
LINE
  8
0
 10
-118.468
 20
926.501
 11
-118.374
 21
926.995
  0
LINE
  8
0
 10
-118.374
 20
926.995
 11
-118.219
 21
927.472
  0
LINE
  8
0
 10
-118.219
 20
927.472
 11
-118.005
 21
927.927
  0
LINE
  8
0
 10
-118.005
 20
927.927
 11
-117.736
 21
928.351
  0
LINE
  8
0
 10
-117.736
 20
928.351
 11
-117.416
 21
928.738
  0
LINE
  8
0
 10
-117.416
 20
928.738
 11
-117.05
 21
929.082
  0
LINE
  8
0
 10
-117.05
 20
929.082
 11
-116.643
 21
929.377
  0
LINE
  8
0
 10
-116.643
 20
929.377
 11
-116.203
 21
929.619
  0
LINE
  8
0
 10
-116.203
 20
929.619
 11
-115.736
 21
929.804
  0
LINE
  8
0
 10
-115.736
 20
929.804
 11
-115.25
 21
929.929
  0
LINE
  8
0
 10
-115.25
 20
929.929
 11
-114.751
 21
929.992
  0
LINE
  8
0
 10
-114.751
 20
929.992
 11
114.751
 21
929.992
  0
LINE
  8
0
 10
114.751
 20
929.992
 11
115.25
 21
929.929
  0
LINE
  8
0
 10
115.25
 20
929.929
 11
115.736
 21
929.804
  0
LINE
  8
0
 10
115.736
 20
929.804
 11
116.203
 21
929.619
  0
LINE
  8
0
 10
116.203
 20
929.619
 11
116.643
 21
929.377
  0
LINE
  8
0
 10
116.643
 20
929.377
 11
117.05
 21
929.082
  0
LINE
  8
0
 10
117.05
 20
929.082
 11
117.416
 21
928.738
  0
LINE
  8
0
 10
117.416
 20
928.738
 11
117.736
 21
928.351
  0
LINE
  8
0
 10
117.736
 20
928.351
 11
118.005
 21
927.927
  0
LINE
  8
0
 10
118.005
 20
927.927
 11
118.219
 21
927.472
  0
LINE
  8
0
 10
118.219
 20
927.472
 11
118.374
 21
926.995
  0
LINE
  8
0
 10
118.374
 20
926.995
 11
118.468
 21
926.501
  0
LINE
  8
0
 10
118.468
 20
926.501
 11
118.5
 21
926
  0
LINE
  8
0
 10
118.5
 20
926
 11
118.5
 21
802
  0
LINE
  8
0
 10
118.5
 20
802
 11
118.468
 21
801.499
  0
LINE
  8
0
 10
118.468
 20
801.499
 11
118.374
 21
801.005
  0
LINE
  8
0
 10
118.374
 20
801.005
 11
118.219
 21
800.528
  0
LINE
  8
0
 10
118.219
 20
800.528
 11
118.005
 21
800.073
  0
LINE
  8
0
 10
118.005
 20
800.073
 11
117.736
 21
799.649
  0
LINE
  8
0
 10
117.736
 20
799.649
 11
117.416
 21
799.262
  0
LINE
  8
0
 10
117.416
 20
799.262
 11
117.05
 21
798.918
  0
LINE
  8
0
 10
117.05
 20
798.918
 11
116.643
 21
798.623
  0
LINE
  8
0
 10
116.643
 20
798.623
 11
116.203
 21
798.381
  0
LINE
  8
0
 10
116.203
 20
798.381
 11
115.736
 21
798.196
  0
LINE
  8
0
 10
115.736
 20
798.196
 11
115.25
 21
798.071
  0
LINE
  8
0
 10
115.25
 20
798.071
 11
114.751
 21
798.008
  0
LINE
  8
0
 10
114.751
 20
798.008
 11
-114.751
 21
798.008
  0
LINE
  8
0
 10
115.937
 20
652.589
 11
116.545
 21
652.745
  0
LINE
  8
0
 10
116.545
 20
652.745
 11
117.129
 21
652.976
  0
LINE
  8
0
 10
117.129
 20
652.976
 11
117.679
 21
653.278
  0
LINE
  8
0
 10
117.679
 20
653.278
 11
118.187
 21
653.647
  0
LINE
  8
0
 10
118.187
 20
653.647
 11
118.645
 21
654.077
  0
LINE
  8
0
 10
118.645
 20
654.077
 11
119.045
 21
654.561
  0
LINE
  8
0
 10
119.045
 20
654.561
 11
119.382
 21
655.091
  0
LINE
  8
0
 10
119.382
 20
655.091
 11
119.649
 21
655.659
  0
LINE
  8
0
 10
119.649
 20
655.659
 11
119.843
 21
656.257
  0
LINE
  8
0
 10
119.843
 20
656.257
 11
119.961
 21
656.873
  0
LINE
  8
0
 10
119.961
 20
656.873
 11
120
 21
657.5
  0
LINE
  8
0
 10
120
 20
657.5
 11
120
 21
782.5
  0
LINE
  8
0
 10
120
 20
782.5
 11
119.961
 21
783.127
  0
LINE
  8
0
 10
119.961
 20
783.127
 11
119.843
 21
783.743
  0
LINE
  8
0
 10
119.843
 20
783.743
 11
119.649
 21
784.341
  0
LINE
  8
0
 10
119.649
 20
784.341
 11
119.382
 21
784.909
  0
LINE
  8
0
 10
119.382
 20
784.909
 11
119.045
 21
785.439
  0
LINE
  8
0
 10
119.045
 20
785.439
 11
118.645
 21
785.923
  0
LINE
  8
0
 10
118.645
 20
785.923
 11
118.187
 21
786.353
  0
LINE
  8
0
 10
118.187
 20
786.353
 11
117.679
 21
786.722
  0
LINE
  8
0
 10
117.679
 20
786.722
 11
117.129
 21
787.024
  0
LINE
  8
0
 10
117.129
 20
787.024
 11
116.545
 21
787.255
  0
LINE
  8
0
 10
116.545
 20
787.255
 11
115.937
 21
787.411
  0
LINE
  8
0
 10
115.937
 20
787.411
 11
115.314
 21
787.49
  0
LINE
  8
0
 10
115.314
 20
787.49
 11
-115.314
 21
787.49
  0
LINE
  8
0
 10
-115.314
 20
787.49
 11
-115.937
 21
787.411
  0
LINE
  8
0
 10
-115.937
 20
787.411
 11
-116.545
 21
787.255
  0
LINE
  8
0
 10
-116.545
 20
787.255
 11
-117.129
 21
787.024
  0
LINE
  8
0
 10
-117.129
 20
787.024
 11
-117.679
 21
786.722
  0
LINE
  8
0
 10
-117.679
 20
786.722
 11
-118.187
 21
786.353
  0
LINE
  8
0
 10
-118.187
 20
786.353
 11
-118.5
 21
786.059
  0
LINE
  8
0
 10
-118.5
 20
786.059
 11
-118.5
 21
787.479
  0
LINE
  8
0
 10
-118.5
 20
787.479
 11
-121.5
 21
787.479
  0
LINE
  8
0
 10
-121.5
 20
787.479
 11
-121.5
 21
652.521
  0
LINE
  8
0
 10
-121.5
 20
652.521
 11
-118.5
 21
652.521
  0
LINE
  8
0
 10
-118.5
 20
652.521
 11
-118.5
 21
653.941
  0
LINE
  8
0
 10
-118.5
 20
653.941
 11
-118.187
 21
653.647
  0
LINE
  8
0
 10
-118.187
 20
653.647
 11
-117.679
 21
653.278
  0
LINE
  8
0
 10
-117.679
 20
653.278
 11
-117.129
 21
652.976
  0
LINE
  8
0
 10
-117.129
 20
652.976
 11
-116.545
 21
652.745
  0
LINE
  8
0
 10
-116.545
 20
652.745
 11
-115.937
 21
652.589
  0
LINE
  8
0
 10
-115.937
 20
652.589
 11
-115.314
 21
652.51
  0
LINE
  8
0
 10
-115.314
 20
652.51
 11
115.314
 21
652.51
  0
LINE
  8
0
 10
115.314
 20
652.51
 11
115.937
 21
652.589
  0
LINE
  8
0
 10
-114.695
 20
654.893
 11
-115.083
 21
654.942
  0
LINE
  8
0
 10
-115.083
 20
654.942
 11
-115.462
 21
655.039
  0
LINE
  8
0
 10
-115.462
 20
655.039
 11
-115.825
 21
655.183
  0
LINE
  8
0
 10
-115.825
 20
655.183
 11
-116.168
 21
655.372
  0
LINE
  8
0
 10
-116.168
 20
655.372
 11
-116.484
 21
655.601
  0
LINE
  8
0
 10
-116.484
 20
655.601
 11
-116.769
 21
655.869
  0
LINE
  8
0
 10
-116.769
 20
655.869
 11
-117.018
 21
656.17
  0
LINE
  8
0
 10
-117.018
 20
656.17
 11
-117.228
 21
656.5
  0
LINE
  8
0
 10
-117.228
 20
656.5
 11
-117.394
 21
656.854
  0
LINE
  8
0
 10
-117.394
 20
656.854
 11
-117.515
 21
657.226
  0
LINE
  8
0
 10
-117.515
 20
657.226
 11
-117.588
 21
657.61
  0
LINE
  8
0
 10
-117.588
 20
657.61
 11
-117.613
 21
658
  0
LINE
  8
0
 10
-117.613
 20
658
 11
-117.613
 21
782
  0
LINE
  8
0
 10
-117.613
 20
782
 11
-117.588
 21
782.39
  0
LINE
  8
0
 10
-117.588
 20
782.39
 11
-117.515
 21
782.774
  0
LINE
  8
0
 10
-117.515
 20
782.774
 11
-117.394
 21
783.146
  0
LINE
  8
0
 10
-117.394
 20
783.146
 11
-117.228
 21
783.5
  0
LINE
  8
0
 10
-117.228
 20
783.5
 11
-117.018
 21
783.83
  0
LINE
  8
0
 10
-117.018
 20
783.83
 11
-116.769
 21
784.131
  0
LINE
  8
0
 10
-116.769
 20
784.131
 11
-116.484
 21
784.399
  0
LINE
  8
0
 10
-116.484
 20
784.399
 11
-116.168
 21
784.628
  0
LINE
  8
0
 10
-116.168
 20
784.628
 11
-115.825
 21
784.817
  0
LINE
  8
0
 10
-115.825
 20
784.817
 11
-115.462
 21
784.961
  0
LINE
  8
0
 10
-115.462
 20
784.961
 11
-115.083
 21
785.058
  0
LINE
  8
0
 10
-115.083
 20
785.058
 11
-114.695
 21
785.107
  0
LINE
  8
0
 10
-114.695
 20
785.107
 11
114.695
 21
785.107
  0
LINE
  8
0
 10
114.695
 20
785.107
 11
115.083
 21
785.058
  0
LINE
  8
0
 10
115.083
 20
785.058
 11
115.462
 21
784.961
  0
LINE
  8
0
 10
115.462
 20
784.961
 11
115.825
 21
784.817
  0
LINE
  8
0
 10
115.825
 20
784.817
 11
116.168
 21
784.628
  0
LINE
  8
0
 10
116.168
 20
784.628
 11
116.484
 21
784.399
  0
LINE
  8
0
 10
116.484
 20
784.399
 11
116.769
 21
784.131
  0
LINE
  8
0
 10
116.769
 20
784.131
 11
117.018
 21
783.83
  0
LINE
  8
0
 10
117.018
 20
783.83
 11
117.228
 21
783.5
  0
LINE
  8
0
 10
117.228
 20
783.5
 11
117.394
 21
783.146
  0
LINE
  8
0
 10
117.394
 20
783.146
 11
117.515
 21
782.774
  0
LINE
  8
0
 10
117.515
 20
782.774
 11
117.588
 21
782.39
  0
LINE
  8
0
 10
117.588
 20
782.39
 11
117.613
 21
782
  0
LINE
  8
0
 10
117.613
 20
782
 11
117.613
 21
658
  0
LINE
  8
0
 10
117.613
 20
658
 11
117.588
 21
657.61
  0
LINE
  8
0
 10
117.588
 20
657.61
 11
117.515
 21
657.226
  0
LINE
  8
0
 10
117.515
 20
657.226
 11
117.394
 21
656.854
  0
LINE
  8
0
 10
117.394
 20
656.854
 11
117.228
 21
656.5
  0
LINE
  8
0
 10
117.228
 20
656.5
 11
117.018
 21
656.17
  0
LINE
  8
0
 10
117.018
 20
656.17
 11
116.769
 21
655.869
  0
LINE
  8
0
 10
116.769
 20
655.869
 11
116.484
 21
655.601
  0
LINE
  8
0
 10
116.484
 20
655.601
 11
116.168
 21
655.372
  0
LINE
  8
0
 10
116.168
 20
655.372
 11
115.825
 21
655.183
  0
LINE
  8
0
 10
115.825
 20
655.183
 11
115.462
 21
655.039
  0
LINE
  8
0
 10
115.462
 20
655.039
 11
115.083
 21
654.942
  0
LINE
  8
0
 10
115.083
 20
654.942
 11
114.695
 21
654.893
  0
LINE
  8
0
 10
114.695
 20
654.893
 11
-114.695
 21
654.893
  0
LINE
  8
0
 10
115.937
 20
508.589
 11
116.545
 21
508.745
  0
LINE
  8
0
 10
116.545
 20
508.745
 11
117.129
 21
508.976
  0
LINE
  8
0
 10
117.129
 20
508.976
 11
117.679
 21
509.278
  0
LINE
  8
0
 10
117.679
 20
509.278
 11
118.187
 21
509.647
  0
LINE
  8
0
 10
118.187
 20
509.647
 11
118.645
 21
510.077
  0
LINE
  8
0
 10
118.645
 20
510.077
 11
119.045
 21
510.561
  0
LINE
  8
0
 10
119.045
 20
510.561
 11
119.382
 21
511.091
  0
LINE
  8
0
 10
119.382
 20
511.091
 11
119.649
 21
511.659
  0
LINE
  8
0
 10
119.649
 20
511.659
 11
119.843
 21
512.257
  0
LINE
  8
0
 10
119.843
 20
512.257
 11
119.961
 21
512.873
  0
LINE
  8
0
 10
119.961
 20
512.873
 11
120
 21
513.5
  0
LINE
  8
0
 10
120
 20
513.5
 11
120
 21
638.5
  0
LINE
  8
0
 10
120
 20
638.5
 11
119.961
 21
639.127
  0
LINE
  8
0
 10
119.961
 20
639.127
 11
119.843
 21
639.743
  0
LINE
  8
0
 10
119.843
 20
639.743
 11
119.649
 21
640.341
  0
LINE
  8
0
 10
119.649
 20
640.341
 11
119.382
 21
640.909
  0
LINE
  8
0
 10
119.382
 20
640.909
 11
119.045
 21
641.439
  0
LINE
  8
0
 10
119.045
 20
641.439
 11
118.645
 21
641.923
  0
LINE
  8
0
 10
118.645
 20
641.923
 11
118.187
 21
642.353
  0
LINE
  8
0
 10
118.187
 20
642.353
 11
117.679
 21
642.722
  0
LINE
  8
0
 10
117.679
 20
642.722
 11
117.129
 21
643.024
  0
LINE
  8
0
 10
117.129
 20
643.024
 11
116.545
 21
643.255
  0
LINE
  8
0
 10
116.545
 20
643.255
 11
115.937
 21
643.411
  0
LINE
  8
0
 10
115.937
 20
643.411
 11
115.314
 21
643.49
  0
LINE
  8
0
 10
115.314
 20
643.49
 11
-115.314
 21
643.49
  0
LINE
  8
0
 10
-115.314
 20
643.49
 11
-115.937
 21
643.411
  0
LINE
  8
0
 10
-115.937
 20
643.411
 11
-116.545
 21
643.255
  0
LINE
  8
0
 10
-116.545
 20
643.255
 11
-117.129
 21
643.024
  0
LINE
  8
0
 10
-117.129
 20
643.024
 11
-117.679
 21
642.722
  0
LINE
  8
0
 10
-117.679
 20
642.722
 11
-118.187
 21
642.353
  0
LINE
  8
0
 10
-118.187
 20
642.353
 11
-118.5
 21
642.059
  0
LINE
  8
0
 10
-118.5
 20
642.059
 11
-118.5
 21
642.153
  0
LINE
  8
0
 10
-118.5
 20
642.153
 11
-121.5
 21
642.153
  0
LINE
  8
0
 10
-121.5
 20
642.153
 11
-121.5
 21
509.847
  0
LINE
  8
0
 10
-121.5
 20
509.847
 11
-118.5
 21
509.847
  0
LINE
  8
0
 10
-118.5
 20
509.847
 11
-118.5
 21
509.941
  0
LINE
  8
0
 10
-118.5
 20
509.941
 11
-118.187
 21
509.647
  0
LINE
  8
0
 10
-118.187
 20
509.647
 11
-117.679
 21
509.278
  0
LINE
  8
0
 10
-117.679
 20
509.278
 11
-117.129
 21
508.976
  0
LINE
  8
0
 10
-117.129
 20
508.976
 11
-116.545
 21
508.745
  0
LINE
  8
0
 10
-116.545
 20
508.745
 11
-115.937
 21
508.589
  0
LINE
  8
0
 10
-115.937
 20
508.589
 11
-115.314
 21
508.51
  0
LINE
  8
0
 10
-115.314
 20
508.51
 11
115.314
 21
508.51
  0
LINE
  8
0
 10
115.314
 20
508.51
 11
115.937
 21
508.589
  0
LINE
  8
0
 10
-112.634
 20
633.869
 11
-112.9
 21
633.903
  0
LINE
  8
0
 10
-112.9
 20
633.903
 11
-113.16
 21
633.969
  0
LINE
  8
0
 10
-113.16
 20
633.969
 11
-113.409
 21
634.068
  0
LINE
  8
0
 10
-113.409
 20
634.068
 11
-113.644
 21
634.197
  0
LINE
  8
0
 10
-113.644
 20
634.197
 11
-113.861
 21
634.355
  0
LINE
  8
0
 10
-113.861
 20
634.355
 11
-114.057
 21
634.538
  0
LINE
  8
0
 10
-114.057
 20
634.538
 11
-114.227
 21
634.745
  0
LINE
  8
0
 10
-114.227
 20
634.745
 11
-114.371
 21
634.971
  0
LINE
  8
0
 10
-114.371
 20
634.971
 11
-114.485
 21
635.214
  0
LINE
  8
0
 10
-114.485
 20
635.214
 11
-114.568
 21
635.469
  0
LINE
  8
0
 10
-114.568
 20
635.469
 11
-114.618
 21
635.732
  0
LINE
  8
0
 10
-114.618
 20
635.732
 11
-114.635
 21
636
  0
LINE
  8
0
 10
-114.635
 20
636
 11
-114.618
 21
636.268
  0
LINE
  8
0
 10
-114.618
 20
636.268
 11
-114.568
 21
636.531
  0
LINE
  8
0
 10
-114.568
 20
636.531
 11
-114.485
 21
636.786
  0
LINE
  8
0
 10
-114.485
 20
636.786
 11
-114.371
 21
637.029
  0
LINE
  8
0
 10
-114.371
 20
637.029
 11
-114.227
 21
637.255
  0
LINE
  8
0
 10
-114.227
 20
637.255
 11
-114.057
 21
637.462
  0
LINE
  8
0
 10
-114.057
 20
637.462
 11
-113.861
 21
637.645
  0
LINE
  8
0
 10
-113.861
 20
637.645
 11
-113.644
 21
637.803
  0
LINE
  8
0
 10
-113.644
 20
637.803
 11
-113.409
 21
637.932
  0
LINE
  8
0
 10
-113.409
 20
637.932
 11
-113.16
 21
638.031
  0
LINE
  8
0
 10
-113.16
 20
638.031
 11
-112.9
 21
638.097
  0
LINE
  8
0
 10
-112.9
 20
638.097
 11
-112.634
 21
638.131
  0
LINE
  8
0
 10
-112.634
 20
638.131
 11
-112.366
 21
638.131
  0
LINE
  8
0
 10
-112.366
 20
638.131
 11
-112.1
 21
638.097
  0
LINE
  8
0
 10
-112.1
 20
638.097
 11
-111.84
 21
638.031
  0
LINE
  8
0
 10
-111.84
 20
638.031
 11
-111.591
 21
637.932
  0
LINE
  8
0
 10
-111.591
 20
637.932
 11
-111.356
 21
637.803
  0
LINE
  8
0
 10
-111.356
 20
637.803
 11
-111.139
 21
637.645
  0
LINE
  8
0
 10
-111.139
 20
637.645
 11
-110.943
 21
637.462
  0
LINE
  8
0
 10
-110.943
 20
637.462
 11
-110.773
 21
637.255
  0
LINE
  8
0
 10
-110.773
 20
637.255
 11
-110.629
 21
637.029
  0
LINE
  8
0
 10
-110.629
 20
637.029
 11
-110.515
 21
636.786
  0
LINE
  8
0
 10
-110.515
 20
636.786
 11
-110.432
 21
636.531
  0
LINE
  8
0
 10
-110.432
 20
636.531
 11
-110.382
 21
636.268
  0
LINE
  8
0
 10
-110.382
 20
636.268
 11
-110.365
 21
636
  0
LINE
  8
0
 10
-110.365
 20
636
 11
-110.382
 21
635.732
  0
LINE
  8
0
 10
-110.382
 20
635.732
 11
-110.432
 21
635.469
  0
LINE
  8
0
 10
-110.432
 20
635.469
 11
-110.515
 21
635.214
  0
LINE
  8
0
 10
-110.515
 20
635.214
 11
-110.629
 21
634.971
  0
LINE
  8
0
 10
-110.629
 20
634.971
 11
-110.773
 21
634.745
  0
LINE
  8
0
 10
-110.773
 20
634.745
 11
-110.943
 21
634.538
  0
LINE
  8
0
 10
-110.943
 20
634.538
 11
-111.139
 21
634.355
  0
LINE
  8
0
 10
-111.139
 20
634.355
 11
-111.356
 21
634.197
  0
LINE
  8
0
 10
-111.356
 20
634.197
 11
-111.591
 21
634.068
  0
LINE
  8
0
 10
-111.591
 20
634.068
 11
-111.84
 21
633.969
  0
LINE
  8
0
 10
-111.84
 20
633.969
 11
-112.1
 21
633.903
  0
LINE
  8
0
 10
-112.1
 20
633.903
 11
-112.366
 21
633.869
  0
LINE
  8
0
 10
-112.366
 20
633.869
 11
-112.634
 21
633.869
  0
LINE
  8
0
 10
112.366
 20
633.869
 11
112.1
 21
633.903
  0
LINE
  8
0
 10
112.1
 20
633.903
 11
111.84
 21
633.969
  0
LINE
  8
0
 10
111.84
 20
633.969
 11
111.591
 21
634.068
  0
LINE
  8
0
 10
111.591
 20
634.068
 11
111.356
 21
634.197
  0
LINE
  8
0
 10
111.356
 20
634.197
 11
111.139
 21
634.355
  0
LINE
  8
0
 10
111.139
 20
634.355
 11
110.943
 21
634.538
  0
LINE
  8
0
 10
110.943
 20
634.538
 11
110.773
 21
634.745
  0
LINE
  8
0
 10
110.773
 20
634.745
 11
110.629
 21
634.971
  0
LINE
  8
0
 10
110.629
 20
634.971
 11
110.515
 21
635.214
  0
LINE
  8
0
 10
110.515
 20
635.214
 11
110.432
 21
635.469
  0
LINE
  8
0
 10
110.432
 20
635.469
 11
110.382
 21
635.732
  0
LINE
  8
0
 10
110.382
 20
635.732
 11
110.365
 21
636
  0
LINE
  8
0
 10
110.365
 20
636
 11
110.382
 21
636.268
  0
LINE
  8
0
 10
110.382
 20
636.268
 11
110.432
 21
636.531
  0
LINE
  8
0
 10
110.432
 20
636.531
 11
110.515
 21
636.786
  0
LINE
  8
0
 10
110.515
 20
636.786
 11
110.629
 21
637.029
  0
LINE
  8
0
 10
110.629
 20
637.029
 11
110.773
 21
637.255
  0
LINE
  8
0
 10
110.773
 20
637.255
 11
110.943
 21
637.462
  0
LINE
  8
0
 10
110.943
 20
637.462
 11
111.139
 21
637.645
  0
LINE
  8
0
 10
111.139
 20
637.645
 11
111.356
 21
637.803
  0
LINE
  8
0
 10
111.356
 20
637.803
 11
111.591
 21
637.932
  0
LINE
  8
0
 10
111.591
 20
637.932
 11
111.84
 21
638.031
  0
LINE
  8
0
 10
111.84
 20
638.031
 11
112.1
 21
638.097
  0
LINE
  8
0
 10
112.1
 20
638.097
 11
112.366
 21
638.131
  0
LINE
  8
0
 10
112.366
 20
638.131
 11
112.634
 21
638.131
  0
LINE
  8
0
 10
112.634
 20
638.131
 11
112.9
 21
638.097
  0
LINE
  8
0
 10
112.9
 20
638.097
 11
113.16
 21
638.031
  0
LINE
  8
0
 10
113.16
 20
638.031
 11
113.409
 21
637.932
  0
LINE
  8
0
 10
113.409
 20
637.932
 11
113.644
 21
637.803
  0
LINE
  8
0
 10
113.644
 20
637.803
 11
113.861
 21
637.645
  0
LINE
  8
0
 10
113.861
 20
637.645
 11
114.057
 21
637.462
  0
LINE
  8
0
 10
114.057
 20
637.462
 11
114.227
 21
637.255
  0
LINE
  8
0
 10
114.227
 20
637.255
 11
114.371
 21
637.029
  0
LINE
  8
0
 10
114.371
 20
637.029
 11
114.485
 21
636.786
  0
LINE
  8
0
 10
114.485
 20
636.786
 11
114.568
 21
636.531
  0
LINE
  8
0
 10
114.568
 20
636.531
 11
114.618
 21
636.268
  0
LINE
  8
0
 10
114.618
 20
636.268
 11
114.635
 21
636
  0
LINE
  8
0
 10
114.635
 20
636
 11
114.618
 21
635.732
  0
LINE
  8
0
 10
114.618
 20
635.732
 11
114.568
 21
635.469
  0
LINE
  8
0
 10
114.568
 20
635.469
 11
114.485
 21
635.214
  0
LINE
  8
0
 10
114.485
 20
635.214
 11
114.371
 21
634.971
  0
LINE
  8
0
 10
114.371
 20
634.971
 11
114.227
 21
634.745
  0
LINE
  8
0
 10
114.227
 20
634.745
 11
114.057
 21
634.538
  0
LINE
  8
0
 10
114.057
 20
634.538
 11
113.861
 21
634.355
  0
LINE
  8
0
 10
113.861
 20
634.355
 11
113.644
 21
634.197
  0
LINE
  8
0
 10
113.644
 20
634.197
 11
113.409
 21
634.068
  0
LINE
  8
0
 10
113.409
 20
634.068
 11
113.16
 21
633.969
  0
LINE
  8
0
 10
113.16
 20
633.969
 11
112.9
 21
633.903
  0
LINE
  8
0
 10
112.9
 20
633.903
 11
112.634
 21
633.869
  0
LINE
  8
0
 10
112.634
 20
633.869
 11
112.366
 21
633.869
  0
LINE
  8
0
 10
-112.634
 20
513.869
 11
-112.9
 21
513.903
  0
LINE
  8
0
 10
-112.9
 20
513.903
 11
-113.16
 21
513.969
  0
LINE
  8
0
 10
-113.16
 20
513.969
 11
-113.409
 21
514.068
  0
LINE
  8
0
 10
-113.409
 20
514.068
 11
-113.644
 21
514.197
  0
LINE
  8
0
 10
-113.644
 20
514.197
 11
-113.861
 21
514.355
  0
LINE
  8
0
 10
-113.861
 20
514.355
 11
-114.057
 21
514.538
  0
LINE
  8
0
 10
-114.057
 20
514.538
 11
-114.227
 21
514.745
  0
LINE
  8
0
 10
-114.227
 20
514.745
 11
-114.371
 21
514.971
  0
LINE
  8
0
 10
-114.371
 20
514.971
 11
-114.485
 21
515.214
  0
LINE
  8
0
 10
-114.485
 20
515.214
 11
-114.568
 21
515.469
  0
LINE
  8
0
 10
-114.568
 20
515.469
 11
-114.618
 21
515.732
  0
LINE
  8
0
 10
-114.618
 20
515.732
 11
-114.635
 21
516
  0
LINE
  8
0
 10
-114.635
 20
516
 11
-114.618
 21
516.268
  0
LINE
  8
0
 10
-114.618
 20
516.268
 11
-114.568
 21
516.531
  0
LINE
  8
0
 10
-114.568
 20
516.531
 11
-114.485
 21
516.786
  0
LINE
  8
0
 10
-114.485
 20
516.786
 11
-114.371
 21
517.029
  0
LINE
  8
0
 10
-114.371
 20
517.029
 11
-114.227
 21
517.255
  0
LINE
  8
0
 10
-114.227
 20
517.255
 11
-114.057
 21
517.462
  0
LINE
  8
0
 10
-114.057
 20
517.462
 11
-113.861
 21
517.645
  0
LINE
  8
0
 10
-113.861
 20
517.645
 11
-113.644
 21
517.803
  0
LINE
  8
0
 10
-113.644
 20
517.803
 11
-113.409
 21
517.932
  0
LINE
  8
0
 10
-113.409
 20
517.932
 11
-113.16
 21
518.031
  0
LINE
  8
0
 10
-113.16
 20
518.031
 11
-112.9
 21
518.097
  0
LINE
  8
0
 10
-112.9
 20
518.097
 11
-112.634
 21
518.131
  0
LINE
  8
0
 10
-112.634
 20
518.131
 11
-112.366
 21
518.131
  0
LINE
  8
0
 10
-112.366
 20
518.131
 11
-112.1
 21
518.097
  0
LINE
  8
0
 10
-112.1
 20
518.097
 11
-111.84
 21
518.031
  0
LINE
  8
0
 10
-111.84
 20
518.031
 11
-111.591
 21
517.932
  0
LINE
  8
0
 10
-111.591
 20
517.932
 11
-111.356
 21
517.803
  0
LINE
  8
0
 10
-111.356
 20
517.803
 11
-111.139
 21
517.645
  0
LINE
  8
0
 10
-111.139
 20
517.645
 11
-110.943
 21
517.462
  0
LINE
  8
0
 10
-110.943
 20
517.462
 11
-110.773
 21
517.255
  0
LINE
  8
0
 10
-110.773
 20
517.255
 11
-110.629
 21
517.029
  0
LINE
  8
0
 10
-110.629
 20
517.029
 11
-110.515
 21
516.786
  0
LINE
  8
0
 10
-110.515
 20
516.786
 11
-110.432
 21
516.531
  0
LINE
  8
0
 10
-110.432
 20
516.531
 11
-110.382
 21
516.268
  0
LINE
  8
0
 10
-110.382
 20
516.268
 11
-110.365
 21
516
  0
LINE
  8
0
 10
-110.365
 20
516
 11
-110.382
 21
515.732
  0
LINE
  8
0
 10
-110.382
 20
515.732
 11
-110.432
 21
515.469
  0
LINE
  8
0
 10
-110.432
 20
515.469
 11
-110.515
 21
515.214
  0
LINE
  8
0
 10
-110.515
 20
515.214
 11
-110.629
 21
514.971
  0
LINE
  8
0
 10
-110.629
 20
514.971
 11
-110.773
 21
514.745
  0
LINE
  8
0
 10
-110.773
 20
514.745
 11
-110.943
 21
514.538
  0
LINE
  8
0
 10
-110.943
 20
514.538
 11
-111.139
 21
514.355
  0
LINE
  8
0
 10
-111.139
 20
514.355
 11
-111.356
 21
514.197
  0
LINE
  8
0
 10
-111.356
 20
514.197
 11
-111.591
 21
514.068
  0
LINE
  8
0
 10
-111.591
 20
514.068
 11
-111.84
 21
513.969
  0
LINE
  8
0
 10
-111.84
 20
513.969
 11
-112.1
 21
513.903
  0
LINE
  8
0
 10
-112.1
 20
513.903
 11
-112.366
 21
513.869
  0
LINE
  8
0
 10
-112.366
 20
513.869
 11
-112.634
 21
513.869
  0
LINE
  8
0
 10
112.366
 20
513.869
 11
112.1
 21
513.903
  0
LINE
  8
0
 10
112.1
 20
513.903
 11
111.84
 21
513.969
  0
LINE
  8
0
 10
111.84
 20
513.969
 11
111.591
 21
514.068
  0
LINE
  8
0
 10
111.591
 20
514.068
 11
111.356
 21
514.197
  0
LINE
  8
0
 10
111.356
 20
514.197
 11
111.139
 21
514.355
  0
LINE
  8
0
 10
111.139
 20
514.355
 11
110.943
 21
514.538
  0
LINE
  8
0
 10
110.943
 20
514.538
 11
110.773
 21
514.745
  0
LINE
  8
0
 10
110.773
 20
514.745
 11
110.629
 21
514.971
  0
LINE
  8
0
 10
110.629
 20
514.971
 11
110.515
 21
515.214
  0
LINE
  8
0
 10
110.515
 20
515.214
 11
110.432
 21
515.469
  0
LINE
  8
0
 10
110.432
 20
515.469
 11
110.382
 21
515.732
  0
LINE
  8
0
 10
110.382
 20
515.732
 11
110.365
 21
516
  0
LINE
  8
0
 10
110.365
 20
516
 11
110.382
 21
516.268
  0
LINE
  8
0
 10
110.382
 20
516.268
 11
110.432
 21
516.531
  0
LINE
  8
0
 10
110.432
 20
516.531
 11
110.515
 21
516.786
  0
LINE
  8
0
 10
110.515
 20
516.786
 11
110.629
 21
517.029
  0
LINE
  8
0
 10
110.629
 20
517.029
 11
110.773
 21
517.255
  0
LINE
  8
0
 10
110.773
 20
517.255
 11
110.943
 21
517.462
  0
LINE
  8
0
 10
110.943
 20
517.462
 11
111.139
 21
517.645
  0
LINE
  8
0
 10
111.139
 20
517.645
 11
111.356
 21
517.803
  0
LINE
  8
0
 10
111.356
 20
517.803
 11
111.591
 21
517.932
  0
LINE
  8
0
 10
111.591
 20
517.932
 11
111.84
 21
518.031
  0
LINE
  8
0
 10
111.84
 20
518.031
 11
112.1
 21
518.097
  0
LINE
  8
0
 10
112.1
 20
518.097
 11
112.366
 21
518.131
  0
LINE
  8
0
 10
112.366
 20
518.131
 11
112.634
 21
518.131
  0
LINE
  8
0
 10
112.634
 20
518.131
 11
112.9
 21
518.097
  0
LINE
  8
0
 10
112.9
 20
518.097
 11
113.16
 21
518.031
  0
LINE
  8
0
 10
113.16
 20
518.031
 11
113.409
 21
517.932
  0
LINE
  8
0
 10
113.409
 20
517.932
 11
113.644
 21
517.803
  0
LINE
  8
0
 10
113.644
 20
517.803
 11
113.861
 21
517.645
  0
LINE
  8
0
 10
113.861
 20
517.645
 11
114.057
 21
517.462
  0
LINE
  8
0
 10
114.057
 20
517.462
 11
114.227
 21
517.255
  0
LINE
  8
0
 10
114.227
 20
517.255
 11
114.371
 21
517.029
  0
LINE
  8
0
 10
114.371
 20
517.029
 11
114.485
 21
516.786
  0
LINE
  8
0
 10
114.485
 20
516.786
 11
114.568
 21
516.531
  0
LINE
  8
0
 10
114.568
 20
516.531
 11
114.618
 21
516.268
  0
LINE
  8
0
 10
114.618
 20
516.268
 11
114.635
 21
516
  0
LINE
  8
0
 10
114.635
 20
516
 11
114.618
 21
515.732
  0
LINE
  8
0
 10
114.618
 20
515.732
 11
114.568
 21
515.469
  0
LINE
  8
0
 10
114.568
 20
515.469
 11
114.485
 21
515.214
  0
LINE
  8
0
 10
114.485
 20
515.214
 11
114.371
 21
514.971
  0
LINE
  8
0
 10
114.371
 20
514.971
 11
114.227
 21
514.745
  0
LINE
  8
0
 10
114.227
 20
514.745
 11
114.057
 21
514.538
  0
LINE
  8
0
 10
114.057
 20
514.538
 11
113.861
 21
514.355
  0
LINE
  8
0
 10
113.861
 20
514.355
 11
113.644
 21
514.197
  0
LINE
  8
0
 10
113.644
 20
514.197
 11
113.409
 21
514.068
  0
LINE
  8
0
 10
113.409
 20
514.068
 11
113.16
 21
513.969
  0
LINE
  8
0
 10
113.16
 20
513.969
 11
112.9
 21
513.903
  0
LINE
  8
0
 10
112.9
 20
513.903
 11
112.634
 21
513.869
  0
LINE
  8
0
 10
112.634
 20
513.869
 11
112.366
 21
513.869
  0
ENDSEC
  0
SECTION
  2
OBJECTS
  0
DICTIONARY
  0
ENDSEC
  0
EOF
