<?xml version="1.0" standalone="no"?>
<!DOCTYPE svg PUBLIC "-//W3C//DTD SVG 1.1//EN" "http://www.w3.org/Graphics/SVG/1.1/DTD/svg11.dtd">
<svg width="286mm" height="681mm" viewBox="-143 -1341 286 681" xmlns="http://www.w3.org/2000/svg" version="1.1">
<title>OpenSCAD Model</title>
<path d="
M 138.437,-1281.09 L 139.045,-1281.24 L 139.629,-1281.48 L 140.179,-1281.78 L 140.687,-1282.15 L 141.145,-1282.58
 L 141.545,-1283.06 L 141.882,-1283.59 L 142.149,-1284.16 L 142.343,-1284.76 L 142.461,-1285.37 L 142.5,-1286
 L 142.5,-1336 L 142.461,-1336.63 L 142.343,-1337.24 L 142.149,-1337.84 L 141.882,-1338.41 L 141.545,-1338.94
 L 141.145,-1339.42 L 140.687,-1339.85 L 140.179,-1340.22 L 139.629,-1340.52 L 139.045,-1340.76 L 138.437,-1340.91
 L 137.814,-1340.99 L -137.814,-1340.99 L -138.437,-1340.91 L -139.045,-1340.76 L -139.629,-1340.52 L -140.179,-1340.22
 L -140.687,-1339.85 L -141.145,-1339.42 L -141.545,-1338.94 L -141.882,-1338.41 L -142.149,-1337.84 L -142.343,-1337.24
 L -142.461,-1336.63 L -142.5,-1336 L -142.5,-1286 L -142.461,-1285.37 L -142.343,-1284.76 L -142.149,-1284.16
 L -141.882,-1283.59 L -141.545,-1283.06 L -141.145,-1282.58 L -140.687,-1282.15 L -140.179,-1281.78 L -139.629,-1281.48
 L -139.045,-1281.24 L -138.437,-1281.09 L -137.814,-1281.01 L 137.814,-1281.01 z
M -137.548,-1281.51 L -138.14,-1281.58 L -138.718,-1281.73 L -139.272,-1281.95 L -139.795,-1282.24 L -140.278,-1282.59
 L -140.713,-1283 L -141.093,-1283.46 L -141.412,-1283.96 L -141.666,-1284.5 L -141.851,-1285.07 L -141.963,-1285.65
 L -142,-1286.25 L -142,-1335.75 L -141.963,-1336.35 L -141.851,-1336.93 L -141.666,-1337.5 L -141.412,-1338.04
 L -141.093,-1338.54 L -140.713,-1339 L -140.278,-1339.41 L -139.795,-1339.76 L -139.272,-1340.05 L -138.718,-1340.27
 L -138.14,-1340.42 L -137.548,-1340.49 L 137.548,-1340.49 L 138.14,-1340.42 L 138.718,-1340.27 L 139.272,-1340.05
 L 139.795,-1339.76 L 140.278,-1339.41 L 140.713,-1339 L 141.093,-1338.54 L 141.412,-1338.04 L 141.666,-1337.5
 L 141.851,-1336.93 L 141.963,-1336.35 L 142,-1335.75 L 142,-1286.25 L 141.963,-1285.65 L 141.851,-1285.07
 L 141.666,-1284.5 L 141.412,-1283.96 L 141.093,-1283.46 L 140.713,-1283 L 140.278,-1282.59 L 139.795,-1282.24
 L 139.272,-1281.95 L 138.718,-1281.73 L 138.14,-1281.58 L 137.548,-1281.51 z
M 138.437,-1212.09 L 139.045,-1212.24 L 139.629,-1212.48 L 140.179,-1212.78 L 140.687,-1213.15 L 141.145,-1213.58
 L 141.545,-1214.06 L 141.882,-1214.59 L 142.149,-1215.16 L 142.343,-1215.76 L 142.461,-1216.37 L 142.5,-1217
 L 142.5,-1267 L 142.461,-1267.63 L 142.343,-1268.24 L 142.149,-1268.84 L 141.882,-1269.41 L 141.545,-1269.94
 L 141.145,-1270.42 L 140.687,-1270.85 L 140.179,-1271.22 L 139.629,-1271.52 L 139.045,-1271.76 L 138.437,-1271.91
 L 137.814,-1271.99 L -137.814,-1271.99 L -138.437,-1271.91 L -139.045,-1271.76 L -139.629,-1271.52 L -140.179,-1271.22
 L -140.687,-1270.85 L -141.145,-1270.42 L -141.545,-1269.94 L -141.882,-1269.41 L -142.149,-1268.84 L -142.343,-1268.24
 L -142.461,-1267.63 L -142.5,-1267 L -142.5,-1217 L -142.461,-1216.37 L -142.343,-1215.76 L -142.149,-1215.16
 L -141.882,-1214.59 L -141.545,-1214.06 L -141.145,-1213.58 L -140.687,-1213.15 L -140.179,-1212.78 L -139.629,-1212.48
 L -139.045,-1212.24 L -138.437,-1212.09 L -137.814,-1212.01 L 137.814,-1212.01 z
M -137.548,-1212.51 L -138.14,-1212.58 L -138.718,-1212.73 L -139.272,-1212.95 L -139.795,-1213.24 L -140.278,-1213.59
 L -140.713,-1214 L -141.093,-1214.46 L -141.412,-1214.96 L -141.666,-1215.5 L -141.851,-1216.07 L -141.963,-1216.65
 L -142,-1217.25 L -142,-1266.75 L -141.963,-1267.35 L -141.851,-1267.93 L -141.666,-1268.5 L -141.412,-1269.04
 L -141.093,-1269.54 L -140.713,-1270 L -140.278,-1270.41 L -139.795,-1270.76 L -139.272,-1271.05 L -138.718,-1271.27
 L -138.14,-1271.42 L -137.548,-1271.49 L 137.548,-1271.49 L 138.14,-1271.42 L 138.718,-1271.27 L 139.272,-1271.05
 L 139.795,-1270.76 L 140.278,-1270.41 L 140.713,-1270 L 141.093,-1269.54 L 141.412,-1269.04 L 141.666,-1268.5
 L 141.851,-1267.93 L 141.963,-1267.35 L 142,-1266.75 L 142,-1217.25 L 141.963,-1216.65 L 141.851,-1216.07
 L 141.666,-1215.5 L 141.412,-1214.96 L 141.093,-1214.46 L 140.713,-1214 L 140.278,-1213.59 L 139.795,-1213.24
 L 139.272,-1212.95 L 138.718,-1212.73 L 138.14,-1212.58 L 137.548,-1212.51 z
M 138.437,-1143.09 L 139.045,-1143.24 L 139.629,-1143.48 L 140.179,-1143.78 L 140.687,-1144.15 L 141.145,-1144.58
 L 141.545,-1145.06 L 141.882,-1145.59 L 142.149,-1146.16 L 142.343,-1146.76 L 142.461,-1147.37 L 142.5,-1148
 L 142.5,-1198 L 142.461,-1198.63 L 142.343,-1199.24 L 142.149,-1199.84 L 141.882,-1200.41 L 141.545,-1200.94
 L 141.145,-1201.42 L 140.687,-1201.85 L 140.179,-1202.22 L 139.629,-1202.52 L 139.045,-1202.76 L 138.437,-1202.91
 L 137.814,-1202.99 L -137.814,-1202.99 L -138.437,-1202.91 L -139.045,-1202.76 L -139.629,-1202.52 L -140.179,-1202.22
 L -140.687,-1201.85 L -141.145,-1201.42 L -141.545,-1200.94 L -141.882,-1200.41 L -142.149,-1199.84 L -142.343,-1199.24
 L -142.461,-1198.63 L -142.5,-1198 L -142.5,-1148 L -142.461,-1147.37 L -142.343,-1146.76 L -142.149,-1146.16
 L -141.882,-1145.59 L -141.545,-1145.06 L -141.145,-1144.58 L -140.687,-1144.15 L -140.179,-1143.78 L -139.629,-1143.48
 L -139.045,-1143.24 L -138.437,-1143.09 L -137.814,-1143.01 L 137.814,-1143.01 z
M -137.548,-1143.51 L -138.14,-1143.58 L -138.718,-1143.73 L -139.272,-1143.95 L -139.795,-1144.24 L -140.278,-1144.59
 L -140.713,-1145 L -141.093,-1145.46 L -141.412,-1145.96 L -141.666,-1146.5 L -141.851,-1147.07 L -141.963,-1147.65
 L -142,-1148.25 L -142,-1197.75 L -141.963,-1198.35 L -141.851,-1198.93 L -141.666,-1199.5 L -141.412,-1200.04
 L -141.093,-1200.54 L -140.713,-1201 L -140.278,-1201.41 L -139.795,-1201.76 L -139.272,-1202.05 L -138.718,-1202.27
 L -138.14,-1202.42 L -137.548,-1202.49 L 137.548,-1202.49 L 138.14,-1202.42 L 138.718,-1202.27 L 139.272,-1202.05
 L 139.795,-1201.76 L 140.278,-1201.41 L 140.713,-1201 L 141.093,-1200.54 L 141.412,-1200.04 L 141.666,-1199.5
 L 141.851,-1198.93 L 141.963,-1198.35 L 142,-1197.75 L 142,-1148.25 L 141.963,-1147.65 L 141.851,-1147.07
 L 141.666,-1146.5 L 141.412,-1145.96 L 141.093,-1145.46 L 140.713,-1145 L 140.278,-1144.59 L 139.795,-1144.24
 L 139.272,-1143.95 L 138.718,-1143.73 L 138.14,-1143.58 L 137.548,-1143.51 z
M 138.437,-1074.09 L 139.045,-1074.24 L 139.629,-1074.48 L 140.179,-1074.78 L 140.687,-1075.15 L 141.145,-1075.58
 L 141.545,-1076.06 L 141.882,-1076.59 L 142.149,-1077.16 L 142.343,-1077.76 L 142.461,-1078.37 L 142.5,-1079
 L 142.5,-1129 L 142.461,-1129.63 L 142.343,-1130.24 L 142.149,-1130.84 L 141.882,-1131.41 L 141.545,-1131.94
 L 141.145,-1132.42 L 140.687,-1132.85 L 140.179,-1133.22 L 139.629,-1133.52 L 139.045,-1133.76 L 138.437,-1133.91
 L 137.814,-1133.99 L -137.814,-1133.99 L -138.437,-1133.91 L -139.045,-1133.76 L -139.629,-1133.52 L -140.179,-1133.22
 L -140.687,-1132.85 L -141.145,-1132.42 L -141.545,-1131.94 L -141.882,-1131.41 L -142.149,-1130.84 L -142.343,-1130.24
 L -142.461,-1129.63 L -142.5,-1129 L -142.5,-1079 L -142.461,-1078.37 L -142.343,-1077.76 L -142.149,-1077.16
 L -141.882,-1076.59 L -141.545,-1076.06 L -141.145,-1075.58 L -140.687,-1075.15 L -140.179,-1074.78 L -139.629,-1074.48
 L -139.045,-1074.24 L -138.437,-1074.09 L -137.814,-1074.01 L 137.814,-1074.01 z
M -137.548,-1074.51 L -138.14,-1074.58 L -138.718,-1074.73 L -139.272,-1074.95 L -139.795,-1075.24 L -140.278,-1075.59
 L -140.713,-1076 L -141.093,-1076.46 L -141.412,-1076.96 L -141.666,-1077.5 L -141.851,-1078.07 L -141.963,-1078.65
 L -142,-1079.25 L -142,-1128.75 L -141.963,-1129.35 L -141.851,-1129.93 L -141.666,-1130.5 L -141.412,-1131.04
 L -141.093,-1131.54 L -140.713,-1132 L -140.278,-1132.41 L -139.795,-1132.76 L -139.272,-1133.05 L -138.718,-1133.27
 L -138.14,-1133.42 L -137.548,-1133.49 L 137.548,-1133.49 L 138.14,-1133.42 L 138.718,-1133.27 L 139.272,-1133.05
 L 139.795,-1132.76 L 140.278,-1132.41 L 140.713,-1132 L 141.093,-1131.54 L 141.412,-1131.04 L 141.666,-1130.5
 L 141.851,-1129.93 L 141.963,-1129.35 L 142,-1128.75 L 142,-1079.25 L 141.963,-1078.65 L 141.851,-1078.07
 L 141.666,-1077.5 L 141.412,-1076.96 L 141.093,-1076.46 L 140.713,-1076 L 140.278,-1075.59 L 139.795,-1075.24
 L 139.272,-1074.95 L 138.718,-1074.73 L 138.14,-1074.58 L 137.548,-1074.51 z
M 138.437,-1005.09 L 139.045,-1005.24 L 139.629,-1005.48 L 140.179,-1005.78 L 140.687,-1006.15 L 141.145,-1006.58
 L 141.545,-1007.06 L 141.882,-1007.59 L 142.149,-1008.16 L 142.343,-1008.76 L 142.461,-1009.37 L 142.5,-1010
 L 142.5,-1060 L 142.461,-1060.63 L 142.343,-1061.24 L 142.149,-1061.84 L 141.882,-1062.41 L 141.545,-1062.94
 L 141.145,-1063.42 L 140.687,-1063.85 L 140.179,-1064.22 L 139.629,-1064.52 L 139.045,-1064.76 L 138.437,-1064.91
 L 137.814,-1064.99 L -137.814,-1064.99 L -138.437,-1064.91 L -139.045,-1064.76 L -139.629,-1064.52 L -140.179,-1064.22
 L -140.687,-1063.85 L -141.145,-1063.42 L -141.545,-1062.94 L -141.882,-1062.41 L -142.149,-1061.84 L -142.343,-1061.24
 L -142.461,-1060.63 L -142.5,-1060 L -142.5,-1010 L -142.461,-1009.37 L -142.343,-1008.76 L -142.149,-1008.16
 L -141.882,-1007.59 L -141.545,-1007.06 L -141.145,-1006.58 L -140.687,-1006.15 L -140.179,-1005.78 L -139.629,-1005.48
 L -139.045,-1005.24 L -138.437,-1005.09 L -137.814,-1005.01 L 137.814,-1005.01 z
M -137.548,-1005.51 L -138.14,-1005.58 L -138.718,-1005.73 L -139.272,-1005.95 L -139.795,-1006.24 L -140.278,-1006.59
 L -140.713,-1007 L -141.093,-1007.46 L -141.412,-1007.96 L -141.666,-1008.5 L -141.851,-1009.07 L -141.963,-1009.65
 L -142,-1010.25 L -142,-1059.75 L -141.963,-1060.35 L -141.851,-1060.93 L -141.666,-1061.5 L -141.412,-1062.04
 L -141.093,-1062.54 L -140.713,-1063 L -140.278,-1063.41 L -139.795,-1063.76 L -139.272,-1064.05 L -138.718,-1064.27
 L -138.14,-1064.42 L -137.548,-1064.49 L 137.548,-1064.49 L 138.14,-1064.42 L 138.718,-1064.27 L 139.272,-1064.05
 L 139.795,-1063.76 L 140.278,-1063.41 L 140.713,-1063 L 141.093,-1062.54 L 141.412,-1062.04 L 141.666,-1061.5
 L 141.851,-1060.93 L 141.963,-1060.35 L 142,-1059.75 L 142,-1010.25 L 141.963,-1009.65 L 141.851,-1009.07
 L 141.666,-1008.5 L 141.412,-1007.96 L 141.093,-1007.46 L 140.713,-1007 L 140.278,-1006.59 L 139.795,-1006.24
 L 139.272,-1005.95 L 138.718,-1005.73 L 138.14,-1005.58 L 137.548,-1005.51 z
M 138.437,-936.089 L 139.045,-936.245 L 139.629,-936.476 L 140.179,-936.778 L 140.687,-937.147 L 141.145,-937.577
 L 141.545,-938.061 L 141.882,-938.591 L 142.149,-939.159 L 142.343,-939.757 L 142.461,-940.373 L 142.5,-941
 L 142.5,-991 L 142.461,-991.627 L 142.343,-992.243 L 142.149,-992.841 L 141.882,-993.409 L 141.545,-993.939
 L 141.145,-994.423 L 140.687,-994.853 L 140.179,-995.222 L 139.629,-995.524 L 139.045,-995.755 L 138.437,-995.911
 L 137.814,-995.99 L -137.814,-995.99 L -138.437,-995.911 L -139.045,-995.755 L -139.629,-995.524 L -140.179,-995.222
 L -140.687,-994.853 L -141.145,-994.423 L -141.545,-993.939 L -141.882,-993.409 L -142.149,-992.841 L -142.343,-992.243
 L -142.461,-991.627 L -142.5,-991 L -142.5,-941 L -142.461,-940.373 L -142.343,-939.757 L -142.149,-939.159
 L -141.882,-938.591 L -141.545,-938.061 L -141.145,-937.577 L -140.687,-937.147 L -140.179,-936.778 L -139.629,-936.476
 L -139.045,-936.245 L -138.437,-936.089 L -137.814,-936.01 L 137.814,-936.01 z
M -137.548,-936.509 L -138.14,-936.584 L -138.718,-936.732 L -139.272,-936.952 L -139.795,-937.239 L -140.278,-937.59
 L -140.713,-937.998 L -141.093,-938.458 L -141.412,-938.962 L -141.666,-939.501 L -141.851,-940.069 L -141.963,-940.655
 L -142,-941.25 L -142,-990.75 L -141.963,-991.345 L -141.851,-991.931 L -141.666,-992.499 L -141.412,-993.038
 L -141.093,-993.542 L -140.713,-994.002 L -140.278,-994.41 L -139.795,-994.761 L -139.272,-995.048 L -138.718,-995.268
 L -138.14,-995.416 L -137.548,-995.491 L 137.548,-995.491 L 138.14,-995.416 L 138.718,-995.268 L 139.272,-995.048
 L 139.795,-994.761 L 140.278,-994.41 L 140.713,-994.002 L 141.093,-993.542 L 141.412,-993.038 L 141.666,-992.499
 L 141.851,-991.931 L 141.963,-991.345 L 142,-990.75 L 142,-941.25 L 141.963,-940.655 L 141.851,-940.069
 L 141.666,-939.501 L 141.412,-938.962 L 141.093,-938.458 L 140.713,-937.998 L 140.278,-937.59 L 139.795,-937.239
 L 139.272,-936.952 L 138.718,-936.732 L 138.14,-936.584 L 137.548,-936.509 z
M 138.437,-867.089 L 139.045,-867.245 L 139.629,-867.476 L 140.179,-867.778 L 140.687,-868.147 L 141.145,-868.577
 L 141.545,-869.061 L 141.882,-869.591 L 142.149,-870.159 L 142.343,-870.757 L 142.461,-871.373 L 142.5,-872
 L 142.5,-922 L 142.461,-922.627 L 142.343,-923.243 L 142.149,-923.841 L 141.882,-924.409 L 141.545,-924.939
 L 141.145,-925.423 L 140.687,-925.853 L 140.179,-926.222 L 139.629,-926.524 L 139.045,-926.755 L 138.437,-926.911
 L 137.814,-926.99 L -137.814,-926.99 L -138.437,-926.911 L -139.045,-926.755 L -139.629,-926.524 L -140.179,-926.222
 L -140.687,-925.853 L -141.145,-925.423 L -141.545,-924.939 L -141.882,-924.409 L -142.149,-923.841 L -142.343,-923.243
 L -142.461,-922.627 L -142.5,-922 L -142.5,-872 L -142.461,-871.373 L -142.343,-870.757 L -142.149,-870.159
 L -141.882,-869.591 L -141.545,-869.061 L -141.145,-868.577 L -140.687,-868.147 L -140.179,-867.778 L -139.629,-867.476
 L -139.045,-867.245 L -138.437,-867.089 L -137.814,-867.01 L 137.814,-867.01 z
M -137.548,-867.509 L -138.14,-867.584 L -138.718,-867.732 L -139.272,-867.952 L -139.795,-868.239 L -140.278,-868.59
 L -140.713,-868.998 L -141.093,-869.458 L -141.412,-869.962 L -141.666,-870.501 L -141.851,-871.069 L -141.963,-871.655
 L -142,-872.25 L -142,-921.75 L -141.963,-922.345 L -141.851,-922.931 L -141.666,-923.499 L -141.412,-924.038
 L -141.093,-924.542 L -140.713,-925.002 L -140.278,-925.41 L -139.795,-925.761 L -139.272,-926.048 L -138.718,-926.268
 L -138.14,-926.416 L -137.548,-926.491 L 137.548,-926.491 L 138.14,-926.416 L 138.718,-926.268 L 139.272,-926.048
 L 139.795,-925.761 L 140.278,-925.41 L 140.713,-925.002 L 141.093,-924.542 L 141.412,-924.038 L 141.666,-923.499
 L 141.851,-922.931 L 141.963,-922.345 L 142,-921.75 L 142,-872.25 L 141.963,-871.655 L 141.851,-871.069
 L 141.666,-870.501 L 141.412,-869.962 L 141.093,-869.458 L 140.713,-868.998 L 140.278,-868.59 L 139.795,-868.239
 L 139.272,-867.952 L 138.718,-867.732 L 138.14,-867.584 L 137.548,-867.509 z
M 138.437,-798.089 L 139.045,-798.245 L 139.629,-798.476 L 140.179,-798.778 L 140.687,-799.147 L 141.145,-799.577
 L 141.545,-800.061 L 141.882,-800.591 L 142.149,-801.159 L 142.343,-801.757 L 142.461,-802.373 L 142.5,-803
 L 142.5,-853 L 142.461,-853.627 L 142.343,-854.243 L 142.149,-854.841 L 141.882,-855.409 L 141.545,-855.939
 L 141.145,-856.423 L 140.687,-856.853 L 140.179,-857.222 L 139.629,-857.524 L 139.045,-857.755 L 138.437,-857.911
 L 137.814,-857.99 L -137.814,-857.99 L -138.437,-857.911 L -139.045,-857.755 L -139.629,-857.524 L -140.179,-857.222
 L -140.687,-856.853 L -141.145,-856.423 L -141.545,-855.939 L -141.882,-855.409 L -142.149,-854.841 L -142.343,-854.243
 L -142.461,-853.627 L -142.5,-853 L -142.5,-803 L -142.461,-802.373 L -142.343,-801.757 L -142.149,-801.159
 L -141.882,-800.591 L -141.545,-800.061 L -141.145,-799.577 L -140.687,-799.147 L -140.179,-798.778 L -139.629,-798.476
 L -139.045,-798.245 L -138.437,-798.089 L -137.814,-798.01 L 137.814,-798.01 z
M -137.548,-798.509 L -138.14,-798.584 L -138.718,-798.732 L -139.272,-798.952 L -139.795,-799.239 L -140.278,-799.59
 L -140.713,-799.998 L -141.093,-800.458 L -141.412,-800.962 L -141.666,-801.501 L -141.851,-802.069 L -141.963,-802.655
 L -142,-803.25 L -142,-852.75 L -141.963,-853.345 L -141.851,-853.931 L -141.666,-854.499 L -141.412,-855.038
 L -141.093,-855.542 L -140.713,-856.002 L -140.278,-856.41 L -139.795,-856.761 L -139.272,-857.048 L -138.718,-857.268
 L -138.14,-857.416 L -137.548,-857.491 L 137.548,-857.491 L 138.14,-857.416 L 138.718,-857.268 L 139.272,-857.048
 L 139.795,-856.761 L 140.278,-856.41 L 140.713,-856.002 L 141.093,-855.542 L 141.412,-855.038 L 141.666,-854.499
 L 141.851,-853.931 L 141.963,-853.345 L 142,-852.75 L 142,-803.25 L 141.963,-802.655 L 141.851,-802.069
 L 141.666,-801.501 L 141.412,-800.962 L 141.093,-800.458 L 140.713,-799.998 L 140.278,-799.59 L 139.795,-799.239
 L 139.272,-798.952 L 138.718,-798.732 L 138.14,-798.584 L 137.548,-798.509 z
M 138.437,-729.089 L 139.045,-729.245 L 139.629,-729.476 L 140.179,-729.778 L 140.687,-730.147 L 141.145,-730.577
 L 141.545,-731.061 L 141.882,-731.591 L 142.149,-732.159 L 142.343,-732.757 L 142.461,-733.373 L 142.5,-734
 L 142.5,-784 L 142.461,-784.627 L 142.343,-785.243 L 142.149,-785.841 L 141.882,-786.409 L 141.545,-786.939
 L 141.145,-787.423 L 140.687,-787.853 L 140.179,-788.222 L 139.629,-788.524 L 139.045,-788.755 L 138.437,-788.911
 L 137.814,-788.99 L -137.814,-788.99 L -138.437,-788.911 L -139.045,-788.755 L -139.629,-788.524 L -140.179,-788.222
 L -140.687,-787.853 L -141.145,-787.423 L -141.545,-786.939 L -141.882,-786.409 L -142.149,-785.841 L -142.343,-785.243
 L -142.461,-784.627 L -142.5,-784 L -142.5,-734 L -142.461,-733.373 L -142.343,-732.757 L -142.149,-732.159
 L -141.882,-731.591 L -141.545,-731.061 L -141.145,-730.577 L -140.687,-730.147 L -140.179,-729.778 L -139.629,-729.476
 L -139.045,-729.245 L -138.437,-729.089 L -137.814,-729.01 L 137.814,-729.01 z
M -137.537,-729.681 L -138.108,-729.753 L -138.665,-729.896 L -139.199,-730.107 L -139.703,-730.384 L -140.168,-730.722
 L -140.588,-731.116 L -140.954,-731.559 L -141.262,-732.044 L -141.507,-732.565 L -141.685,-733.111 L -141.792,-733.676
 L -141.828,-734.25 L -141.828,-783.75 L -141.792,-784.324 L -141.685,-784.889 L -141.507,-785.435 L -141.262,-785.956
 L -140.954,-786.441 L -140.588,-786.884 L -140.168,-787.278 L -139.703,-787.616 L -139.199,-787.893 L -138.665,-788.104
 L -138.108,-788.247 L -137.537,-788.319 L 137.537,-788.319 L 138.108,-788.247 L 138.665,-788.104 L 139.199,-787.893
 L 139.703,-787.616 L 140.168,-787.278 L 140.588,-786.884 L 140.954,-786.441 L 141.262,-785.956 L 141.507,-785.435
 L 141.685,-784.889 L 141.792,-784.324 L 141.828,-783.75 L 141.828,-734.25 L 141.792,-733.676 L 141.685,-733.111
 L 141.507,-732.565 L 141.262,-732.044 L 140.954,-731.559 L 140.588,-731.116 L 140.168,-730.722 L 139.703,-730.384
 L 139.199,-730.107 L 138.665,-729.896 L 138.108,-729.753 L 137.537,-729.681 z
M 138.437,-660.089 L 139.045,-660.245 L 139.629,-660.476 L 140.179,-660.778 L 140.687,-661.147 L 141.145,-661.577
 L 141.545,-662.061 L 141.882,-662.591 L 142.149,-663.159 L 142.343,-663.757 L 142.461,-664.373 L 142.5,-665
 L 142.5,-715 L 142.461,-715.627 L 142.343,-716.243 L 142.149,-716.841 L 141.882,-717.409 L 141.545,-717.939
 L 141.145,-718.423 L 140.687,-718.853 L 140.179,-719.222 L 139.629,-719.524 L 139.045,-719.755 L 138.437,-719.911
 L 137.814,-719.99 L -137.814,-719.99 L -138.437,-719.911 L -139.045,-719.755 L -139.629,-719.524 L -140.179,-719.222
 L -140.687,-718.853 L -141.145,-718.423 L -141.545,-717.939 L -141.882,-717.409 L -142.149,-716.841 L -142.343,-716.243
 L -142.461,-715.627 L -142.5,-715 L -142.5,-665 L -142.461,-664.373 L -142.343,-663.757 L -142.149,-663.159
 L -141.882,-662.591 L -141.545,-662.061 L -141.145,-661.577 L -140.687,-661.147 L -140.179,-660.778 L -139.629,-660.476
 L -139.045,-660.245 L -138.437,-660.089 L -137.814,-660.01 L 137.814,-660.01 z
M -137.382,-663.145 L -137.645,-663.178 L -137.902,-663.244 L -138.148,-663.341 L -138.38,-663.469 L -138.595,-663.625
 L -138.788,-663.806 L -138.957,-664.01 L -139.099,-664.234 L -139.211,-664.473 L -139.293,-664.725 L -139.343,-664.986
 L -139.36,-665.25 L -139.36,-714.75 L -139.343,-715.014 L -139.293,-715.275 L -139.211,-715.527 L -139.099,-715.766
 L -138.957,-715.99 L -138.788,-716.194 L -138.595,-716.375 L -138.38,-716.531 L -138.148,-716.659 L -137.902,-716.756
 L -137.645,-716.822 L -137.382,-716.855 L 137.382,-716.855 L 137.645,-716.822 L 137.902,-716.756 L 138.148,-716.659
 L 138.38,-716.531 L 138.595,-716.375 L 138.788,-716.194 L 138.957,-715.99 L 139.099,-715.766 L 139.211,-715.527
 L 139.293,-715.275 L 139.343,-715.014 L 139.36,-714.75 L 139.36,-665.25 L 139.343,-664.986 L 139.293,-664.725
 L 139.211,-664.473 L 139.099,-664.234 L 138.957,-664.01 L 138.788,-663.806 L 138.595,-663.625 L 138.38,-663.469
 L 138.148,-663.341 L 137.902,-663.244 L 137.645,-663.178 L 137.382,-663.145 z
" stroke="black" fill="lightgray" stroke-width="0.5"/>
</svg>
