<?xml version="1.0" standalone="no"?>
<!DOCTYPE svg PUBLIC "-//W3C//DTD SVG 1.1//EN" "http://www.w3.org/Graphics/SVG/1.1/DTD/svg11.dtd">
<svg width="240mm" height="1048mm" viewBox="-120 -1712 240 1048" xmlns="http://www.w3.org/2000/svg" version="1.1">
<title>OpenSCAD Model</title>
<path d="
M 115.937,-1456.59 L 116.545,-1456.74 L 117.129,-1456.98 L 117.679,-1457.28 L 118.187,-1457.65 L 118.645,-1458.08
 L 119.045,-1458.56 L 119.382,-1459.09 L 119.649,-1459.66 L 119.843,-1460.26 L 119.961,-1460.87 L 120,-1461.5
 L 120,-1706.5 L 119.961,-1707.13 L 119.843,-1707.74 L 119.649,-1708.34 L 119.382,-1708.91 L 119.045,-1709.44
 L 118.645,-1709.92 L 118.187,-1710.35 L 117.679,-1710.72 L 117.129,-1711.02 L 116.545,-1711.26 L 115.937,-1711.41
 L 115.314,-1711.49 L -115.314,-1711.49 L -115.937,-1711.41 L -116.545,-1711.26 L -117.129,-1711.02 L -117.679,-1710.72
 L -118.187,-1710.35 L -118.645,-1709.92 L -119.045,-1709.44 L -119.382,-1708.91 L -119.649,-1708.34 L -119.843,-1707.74
 L -119.961,-1707.13 L -120,-1706.5 L -120,-1461.5 L -119.961,-1460.87 L -119.843,-1460.26 L -119.649,-1459.66
 L -119.382,-1459.09 L -119.045,-1458.56 L -118.645,-1458.08 L -118.187,-1457.65 L -117.679,-1457.28 L -117.129,-1456.98
 L -116.545,-1456.74 L -115.937,-1456.59 L -115.314,-1456.51 L 115.314,-1456.51 z
M -114.751,-1458.01 L -115.25,-1458.07 L -115.736,-1458.2 L -116.203,-1458.38 L -116.643,-1458.62 L -117.05,-1458.92
 L -117.416,-1459.26 L -117.736,-1459.65 L -118.005,-1460.07 L -118.219,-1460.53 L -118.374,-1461.01 L -118.468,-1461.5
 L -118.5,-1462 L -118.5,-1706 L -118.468,-1706.5 L -118.374,-1706.99 L -118.219,-1707.47 L -118.005,-1707.93
 L -117.736,-1708.35 L -117.416,-1708.74 L -117.05,-1709.08 L -116.643,-1709.38 L -116.203,-1709.62 L -115.736,-1709.8
 L -115.25,-1709.93 L -114.751,-1709.99 L 114.751,-1709.99 L 115.25,-1709.93 L 115.736,-1709.8 L 116.203,-1709.62
 L 116.643,-1709.38 L 117.05,-1709.08 L 117.416,-1708.74 L 117.736,-1708.35 L 118.005,-1707.93 L 118.219,-1707.47
 L 118.374,-1706.99 L 118.468,-1706.5 L 118.5,-1706 L 118.5,-1462 L 118.468,-1461.5 L 118.374,-1461.01
 L 118.219,-1460.53 L 118.005,-1460.07 L 117.736,-1459.65 L 117.416,-1459.26 L 117.05,-1458.92 L 116.643,-1458.62
 L 116.203,-1458.38 L 115.736,-1458.2 L 115.25,-1458.07 L 114.751,-1458.01 z
M 115.937,-1192.59 L 116.545,-1192.74 L 117.129,-1192.98 L 117.679,-1193.28 L 118.187,-1193.65 L 118.645,-1194.08
 L 119.045,-1194.56 L 119.382,-1195.09 L 119.649,-1195.66 L 119.843,-1196.26 L 119.961,-1196.87 L 120,-1197.5
 L 120,-1442.5 L 119.961,-1443.13 L 119.843,-1443.74 L 119.649,-1444.34 L 119.382,-1444.91 L 119.045,-1445.44
 L 118.645,-1445.92 L 118.187,-1446.35 L 117.679,-1446.72 L 117.129,-1447.02 L 116.545,-1447.26 L 115.937,-1447.41
 L 115.314,-1447.49 L -115.314,-1447.49 L -115.937,-1447.41 L -116.545,-1447.26 L -117.129,-1447.02 L -117.679,-1446.72
 L -118.187,-1446.35 L -118.645,-1445.92 L -119.045,-1445.44 L -119.382,-1444.91 L -119.649,-1444.34 L -119.843,-1443.74
 L -119.961,-1443.13 L -120,-1442.5 L -120,-1197.5 L -119.961,-1196.87 L -119.843,-1196.26 L -119.649,-1195.66
 L -119.382,-1195.09 L -119.045,-1194.56 L -118.645,-1194.08 L -118.187,-1193.65 L -117.679,-1193.28 L -117.129,-1192.98
 L -116.545,-1192.74 L -115.937,-1192.59 L -115.314,-1192.51 L 115.314,-1192.51 z
M -114.743,-1194.14 L -115.226,-1194.2 L -115.697,-1194.32 L -116.149,-1194.5 L -116.575,-1194.73 L -116.969,-1195.02
 L -117.323,-1195.35 L -117.633,-1195.72 L -117.894,-1196.13 L -118.101,-1196.57 L -118.251,-1197.04 L -118.342,-1197.51
 L -118.373,-1198 L -118.373,-1442 L -118.342,-1442.49 L -118.251,-1442.96 L -118.101,-1443.43 L -117.894,-1443.87
 L -117.633,-1444.28 L -117.323,-1444.65 L -116.969,-1444.98 L -116.575,-1445.27 L -116.149,-1445.5 L -115.697,-1445.68
 L -115.226,-1445.8 L -114.743,-1445.86 L 114.743,-1445.86 L 115.226,-1445.8 L 115.697,-1445.68 L 116.149,-1445.5
 L 116.575,-1445.27 L 116.969,-1444.98 L 117.323,-1444.65 L 117.633,-1444.28 L 117.894,-1443.87 L 118.101,-1443.43
 L 118.251,-1442.96 L 118.342,-1442.49 L 118.373,-1442 L 118.373,-1198 L 118.342,-1197.51 L 118.251,-1197.04
 L 118.101,-1196.57 L 117.894,-1196.13 L 117.633,-1195.72 L 117.323,-1195.35 L 116.969,-1195.02 L 116.575,-1194.73
 L 116.149,-1194.5 L 115.697,-1194.32 L 115.226,-1194.2 L 114.743,-1194.14 z
M 115.937,-928.589 L 116.545,-928.745 L 117.129,-928.976 L 117.679,-929.278 L 118.187,-929.647 L 118.645,-930.077
 L 119.045,-930.561 L 119.382,-931.091 L 119.649,-931.659 L 119.843,-932.257 L 119.961,-932.873 L 120,-933.5
 L 120,-1178.5 L 119.961,-1179.13 L 119.843,-1179.74 L 119.649,-1180.34 L 119.382,-1180.91 L 119.045,-1181.44
 L 118.645,-1181.92 L 118.187,-1182.35 L 117.679,-1182.72 L 117.129,-1183.02 L 116.545,-1183.26 L 115.937,-1183.41
 L 115.314,-1183.49 L -115.314,-1183.49 L -115.937,-1183.41 L -116.545,-1183.26 L -117.129,-1183.02 L -117.679,-1182.72
 L -118.187,-1182.35 L -118.645,-1181.92 L -119.045,-1181.44 L -119.382,-1180.91 L -119.649,-1180.34 L -119.843,-1179.74
 L -119.961,-1179.13 L -120,-1178.5 L -120,-933.5 L -119.961,-932.873 L -119.843,-932.257 L -119.649,-931.659
 L -119.382,-931.091 L -119.045,-930.561 L -118.645,-930.077 L -118.187,-929.647 L -117.679,-929.278 L -117.129,-928.976
 L -116.545,-928.745 L -115.937,-928.589 L -115.314,-928.51 L 115.314,-928.51 z
M -112.651,-1173.6 L -112.95,-1173.64 L -113.242,-1173.72 L -113.522,-1173.83 L -113.786,-1173.97 L -114.03,-1174.15
 L -114.25,-1174.36 L -114.442,-1174.59 L -114.603,-1174.84 L -114.731,-1175.12 L -114.825,-1175.4 L -114.881,-1175.7
 L -114.9,-1176 L -114.881,-1176.3 L -114.825,-1176.6 L -114.731,-1176.88 L -114.603,-1177.16 L -114.442,-1177.41
 L -114.25,-1177.64 L -114.03,-1177.85 L -113.786,-1178.03 L -113.522,-1178.17 L -113.242,-1178.28 L -112.95,-1178.36
 L -112.651,-1178.4 L -112.349,-1178.4 L -112.05,-1178.36 L -111.758,-1178.28 L -111.478,-1178.17 L -111.214,-1178.03
 L -110.97,-1177.85 L -110.75,-1177.64 L -110.558,-1177.41 L -110.397,-1177.16 L -110.269,-1176.88 L -110.175,-1176.6
 L -110.119,-1176.3 L -110.1,-1176 L -110.119,-1175.7 L -110.175,-1175.4 L -110.269,-1175.12 L -110.397,-1174.84
 L -110.558,-1174.59 L -110.75,-1174.36 L -110.97,-1174.15 L -111.214,-1173.97 L -111.478,-1173.83 L -111.758,-1173.72
 L -112.05,-1173.64 L -112.349,-1173.6 z
M 112.349,-1173.6 L 112.05,-1173.64 L 111.758,-1173.72 L 111.478,-1173.83 L 111.214,-1173.97 L 110.97,-1174.15
 L 110.75,-1174.36 L 110.558,-1174.59 L 110.397,-1174.84 L 110.269,-1175.12 L 110.175,-1175.4 L 110.119,-1175.7
 L 110.1,-1176 L 110.119,-1176.3 L 110.175,-1176.6 L 110.269,-1176.88 L 110.397,-1177.16 L 110.558,-1177.41
 L 110.75,-1177.64 L 110.97,-1177.85 L 111.214,-1178.03 L 111.478,-1178.17 L 111.758,-1178.28 L 112.05,-1178.36
 L 112.349,-1178.4 L 112.651,-1178.4 L 112.95,-1178.36 L 113.242,-1178.28 L 113.522,-1178.17 L 113.786,-1178.03
 L 114.03,-1177.85 L 114.25,-1177.64 L 114.442,-1177.41 L 114.603,-1177.16 L 114.731,-1176.88 L 114.825,-1176.6
 L 114.881,-1176.3 L 114.9,-1176 L 114.881,-1175.7 L 114.825,-1175.4 L 114.731,-1175.12 L 114.603,-1174.84
 L 114.442,-1174.59 L 114.25,-1174.36 L 114.03,-1174.15 L 113.786,-1173.97 L 113.522,-1173.83 L 113.242,-1173.72
 L 112.95,-1173.64 L 112.651,-1173.6 z
M 112.349,-933.605 L 112.05,-933.643 L 111.758,-933.717 L 111.478,-933.828 L 111.214,-933.974 L 110.97,-934.151
 L 110.75,-934.357 L 110.558,-934.589 L 110.397,-934.844 L 110.269,-935.117 L 110.175,-935.403 L 110.119,-935.699
 L 110.1,-936 L 110.119,-936.301 L 110.175,-936.597 L 110.269,-936.883 L 110.397,-937.156 L 110.558,-937.411
 L 110.75,-937.643 L 110.97,-937.849 L 111.214,-938.026 L 111.478,-938.172 L 111.758,-938.283 L 112.05,-938.357
 L 112.349,-938.395 L 112.651,-938.395 L 112.95,-938.357 L 113.242,-938.283 L 113.522,-938.172 L 113.786,-938.026
 L 114.03,-937.849 L 114.25,-937.643 L 114.442,-937.411 L 114.603,-937.156 L 114.731,-936.883 L 114.825,-936.597
 L 114.881,-936.301 L 114.9,-936 L 114.881,-935.699 L 114.825,-935.403 L 114.731,-935.117 L 114.603,-934.844
 L 114.442,-934.589 L 114.25,-934.357 L 114.03,-934.151 L 113.786,-933.974 L 113.522,-933.828 L 113.242,-933.717
 L 112.95,-933.643 L 112.651,-933.605 z
M -112.651,-933.605 L -112.95,-933.643 L -113.242,-933.717 L -113.522,-933.828 L -113.786,-933.974 L -114.03,-934.151
 L -114.25,-934.357 L -114.442,-934.589 L -114.603,-934.844 L -114.731,-935.117 L -114.825,-935.403 L -114.881,-935.699
 L -114.9,-936 L -114.881,-936.301 L -114.825,-936.597 L -114.731,-936.883 L -114.603,-937.156 L -114.442,-937.411
 L -114.25,-937.643 L -114.03,-937.849 L -113.786,-938.026 L -113.522,-938.172 L -113.242,-938.283 L -112.95,-938.357
 L -112.651,-938.395 L -112.349,-938.395 L -112.05,-938.357 L -111.758,-938.283 L -111.478,-938.172 L -111.214,-938.026
 L -110.97,-937.849 L -110.75,-937.643 L -110.558,-937.411 L -110.397,-937.156 L -110.269,-936.883 L -110.175,-936.597
 L -110.119,-936.301 L -110.1,-936 L -110.119,-935.699 L -110.175,-935.403 L -110.269,-935.117 L -110.397,-934.844
 L -110.558,-934.589 L -110.75,-934.357 L -110.97,-934.151 L -111.214,-933.974 L -111.478,-933.828 L -111.758,-933.717
 L -112.05,-933.643 L -112.349,-933.605 z
M 115.937,-664.589 L 116.545,-664.745 L 117.129,-664.976 L 117.679,-665.278 L 118.187,-665.647 L 118.645,-666.077
 L 119.045,-666.561 L 119.382,-667.091 L 119.649,-667.659 L 119.843,-668.257 L 119.961,-668.873 L 120,-669.5
 L 120,-914.5 L 119.961,-915.127 L 119.843,-915.743 L 119.649,-916.341 L 119.382,-916.909 L 119.045,-917.439
 L 118.645,-917.923 L 118.187,-918.353 L 117.679,-918.722 L 117.129,-919.024 L 116.545,-919.255 L 115.937,-919.411
 L 115.314,-919.49 L -115.314,-919.49 L -115.937,-919.411 L -116.545,-919.255 L -117.129,-919.024 L -117.679,-918.722
 L -118.187,-918.353 L -118.645,-917.923 L -119.045,-917.439 L -119.382,-916.909 L -119.649,-916.341 L -119.843,-915.743
 L -119.961,-915.127 L -120,-914.5 L -120,-669.5 L -119.961,-668.873 L -119.843,-668.257 L -119.649,-667.659
 L -119.382,-667.091 L -119.045,-666.561 L -118.645,-666.077 L -118.187,-665.647 L -117.679,-665.278 L -117.129,-664.976
 L -116.545,-664.745 L -115.937,-664.589 L -115.314,-664.51 L 115.314,-664.51 z
M 112.387,-910.204 L 112.163,-910.232 L 111.944,-910.288 L 111.734,-910.371 L 111.536,-910.48 L 111.353,-910.613
 L 111.188,-910.768 L 111.044,-910.942 L 110.923,-911.133 L 110.826,-911.337 L 110.757,-911.552 L 110.714,-911.774
 L 110.7,-912 L 110.714,-912.226 L 110.757,-912.448 L 110.826,-912.663 L 110.923,-912.867 L 111.044,-913.058
 L 111.188,-913.232 L 111.353,-913.387 L 111.536,-913.52 L 111.734,-913.629 L 111.944,-913.712 L 112.163,-913.768
 L 112.387,-913.796 L 112.613,-913.796 L 112.837,-913.768 L 113.056,-913.712 L 113.266,-913.629 L 113.464,-913.52
 L 113.647,-913.387 L 113.812,-913.232 L 113.956,-913.058 L 114.077,-912.867 L 114.174,-912.663 L 114.243,-912.448
 L 114.286,-912.226 L 114.3,-912 L 114.286,-911.774 L 114.243,-911.552 L 114.174,-911.337 L 114.077,-911.133
 L 113.956,-910.942 L 113.812,-910.768 L 113.647,-910.613 L 113.464,-910.48 L 113.266,-910.371 L 113.056,-910.288
 L 112.837,-910.232 L 112.613,-910.204 z
M -112.613,-910.204 L -112.837,-910.232 L -113.056,-910.288 L -113.266,-910.371 L -113.464,-910.48 L -113.647,-910.613
 L -113.812,-910.768 L -113.956,-910.942 L -114.077,-911.133 L -114.174,-911.337 L -114.243,-911.552 L -114.286,-911.774
 L -114.3,-912 L -114.286,-912.226 L -114.243,-912.448 L -114.174,-912.663 L -114.077,-912.867 L -113.956,-913.058
 L -113.812,-913.232 L -113.647,-913.387 L -113.464,-913.52 L -113.266,-913.629 L -113.056,-913.712 L -112.837,-913.768
 L -112.613,-913.796 L -112.387,-913.796 L -112.163,-913.768 L -111.944,-913.712 L -111.734,-913.629 L -111.536,-913.52
 L -111.353,-913.387 L -111.188,-913.232 L -111.044,-913.058 L -110.923,-912.867 L -110.826,-912.663 L -110.757,-912.448
 L -110.714,-912.226 L -110.7,-912 L -110.714,-911.774 L -110.757,-911.552 L -110.826,-911.337 L -110.923,-911.133
 L -111.044,-910.942 L -111.188,-910.768 L -111.353,-910.613 L -111.536,-910.48 L -111.734,-910.371 L -111.944,-910.288
 L -112.163,-910.232 L -112.387,-910.204 z
M -112.613,-670.204 L -112.837,-670.232 L -113.056,-670.288 L -113.266,-670.371 L -113.464,-670.48 L -113.647,-670.613
 L -113.812,-670.768 L -113.956,-670.942 L -114.077,-671.133 L -114.174,-671.337 L -114.243,-671.552 L -114.286,-671.774
 L -114.3,-672 L -114.286,-672.226 L -114.243,-672.448 L -114.174,-672.663 L -114.077,-672.867 L -113.956,-673.058
 L -113.812,-673.232 L -113.647,-673.387 L -113.464,-673.52 L -113.266,-673.629 L -113.056,-673.712 L -112.837,-673.768
 L -112.613,-673.796 L -112.387,-673.796 L -112.163,-673.768 L -111.944,-673.712 L -111.734,-673.629 L -111.536,-673.52
 L -111.353,-673.387 L -111.188,-673.232 L -111.044,-673.058 L -110.923,-672.867 L -110.826,-672.663 L -110.757,-672.448
 L -110.714,-672.226 L -110.7,-672 L -110.714,-671.774 L -110.757,-671.552 L -110.826,-671.337 L -110.923,-671.133
 L -111.044,-670.942 L -111.188,-670.768 L -111.353,-670.613 L -111.536,-670.48 L -111.734,-670.371 L -111.944,-670.288
 L -112.163,-670.232 L -112.387,-670.204 z
M 112.387,-670.204 L 112.163,-670.232 L 111.944,-670.288 L 111.734,-670.371 L 111.536,-670.48 L 111.353,-670.613
 L 111.188,-670.768 L 111.044,-670.942 L 110.923,-671.133 L 110.826,-671.337 L 110.757,-671.552 L 110.714,-671.774
 L 110.7,-672 L 110.714,-672.226 L 110.757,-672.448 L 110.826,-672.663 L 110.923,-672.867 L 111.044,-673.058
 L 111.188,-673.232 L 111.353,-673.387 L 111.536,-673.52 L 111.734,-673.629 L 111.944,-673.712 L 112.163,-673.768
 L 112.387,-673.796 L 112.613,-673.796 L 112.837,-673.768 L 113.056,-673.712 L 113.266,-673.629 L 113.464,-673.52
 L 113.647,-673.387 L 113.812,-673.232 L 113.956,-673.058 L 114.077,-672.867 L 114.174,-672.663 L 114.243,-672.448
 L 114.286,-672.226 L 114.3,-672 L 114.286,-671.774 L 114.243,-671.552 L 114.174,-671.337 L 114.077,-671.133
 L 113.956,-670.942 L 113.812,-670.768 L 113.647,-670.613 L 113.464,-670.48 L 113.266,-670.371 L 113.056,-670.288
 L 112.837,-670.232 L 112.613,-670.204 z
" stroke="black" fill="lightgray" stroke-width="0.5"/>
</svg>
