<?xml version="1.0" standalone="no"?>
<!DOCTYPE svg PUBLIC "-//W3C//DTD SVG 1.1//EN" "http://www.w3.org/Graphics/SVG/1.1/DTD/svg11.dtd">
<svg width="270mm" height="936mm" viewBox="-135 -1602 270 936" xmlns="http://www.w3.org/2000/svg" version="1.1">
<title>OpenSCAD Model</title>
<path d="
M 130.937,-1422.09 L 131.545,-1422.24 L 132.129,-1422.48 L 132.679,-1422.78 L 133.187,-1423.15 L 133.645,-1423.58
 L 134.045,-1424.06 L 134.382,-1424.59 L 134.649,-1425.16 L 134.843,-1425.76 L 134.961,-1426.37 L 135,-1427
 L 135,-1597 L 134.961,-1597.63 L 134.843,-1598.24 L 134.649,-1598.84 L 134.382,-1599.41 L 134.045,-1599.94
 L 133.645,-1600.42 L 133.187,-1600.85 L 132.679,-1601.22 L 132.129,-1601.52 L 131.545,-1601.76 L 130.937,-1601.91
 L 130.314,-1601.99 L -130.314,-1601.99 L -130.937,-1601.91 L -131.545,-1601.76 L -132.129,-1601.52 L -132.679,-1601.22
 L -133.187,-1600.85 L -133.645,-1600.42 L -134.045,-1599.94 L -134.382,-1599.41 L -134.649,-1598.84 L -134.843,-1598.24
 L -134.961,-1597.63 L -135,-1597 L -135,-1427 L -134.961,-1426.37 L -134.843,-1425.76 L -134.649,-1425.16
 L -134.382,-1424.59 L -134.045,-1424.06 L -133.645,-1423.58 L -133.187,-1423.15 L -132.679,-1422.78 L -132.129,-1422.48
 L -131.545,-1422.24 L -130.937,-1422.09 L -130.314,-1422.01 L 130.314,-1422.01 z
M -130.048,-1422.51 L -130.64,-1422.58 L -131.218,-1422.73 L -131.772,-1422.95 L -132.295,-1423.24 L -132.778,-1423.59
 L -133.213,-1424 L -133.593,-1424.46 L -133.912,-1424.96 L -134.166,-1425.5 L -134.351,-1426.07 L -134.463,-1426.65
 L -134.5,-1427.25 L -134.5,-1596.75 L -134.463,-1597.35 L -134.351,-1597.93 L -134.166,-1598.5 L -133.912,-1599.04
 L -133.593,-1599.54 L -133.213,-1600 L -132.778,-1600.41 L -132.295,-1600.76 L -131.772,-1601.05 L -131.218,-1601.27
 L -130.64,-1601.42 L -130.048,-1601.49 L 130.048,-1601.49 L 130.64,-1601.42 L 131.218,-1601.27 L 131.772,-1601.05
 L 132.295,-1600.76 L 132.778,-1600.41 L 133.213,-1600 L 133.593,-1599.54 L 133.912,-1599.04 L 134.166,-1598.5
 L 134.351,-1597.93 L 134.463,-1597.35 L 134.5,-1596.75 L 134.5,-1427.25 L 134.463,-1426.65 L 134.351,-1426.07
 L 134.166,-1425.5 L 133.912,-1424.96 L 133.593,-1424.46 L 133.213,-1424 L 132.778,-1423.59 L 132.295,-1423.24
 L 131.772,-1422.95 L 131.218,-1422.73 L 130.64,-1422.58 L 130.048,-1422.51 z
M 130.937,-1233.09 L 131.545,-1233.24 L 132.129,-1233.48 L 132.679,-1233.78 L 133.187,-1234.15 L 133.645,-1234.58
 L 134.045,-1235.06 L 134.382,-1235.59 L 134.649,-1236.16 L 134.843,-1236.76 L 134.961,-1237.37 L 135,-1238
 L 135,-1408 L 134.961,-1408.63 L 134.843,-1409.24 L 134.649,-1409.84 L 134.382,-1410.41 L 134.045,-1410.94
 L 133.645,-1411.42 L 133.187,-1411.85 L 132.679,-1412.22 L 132.129,-1412.52 L 131.545,-1412.76 L 130.937,-1412.91
 L 130.314,-1412.99 L -130.314,-1412.99 L -130.937,-1412.91 L -131.545,-1412.76 L -132.129,-1412.52 L -132.679,-1412.22
 L -133.187,-1411.85 L -133.645,-1411.42 L -134.045,-1410.94 L -134.382,-1410.41 L -134.649,-1409.84 L -134.843,-1409.24
 L -134.961,-1408.63 L -135,-1408 L -135,-1238 L -134.961,-1237.37 L -134.843,-1236.76 L -134.649,-1236.16
 L -134.382,-1235.59 L -134.045,-1235.06 L -133.645,-1234.58 L -133.187,-1234.15 L -132.679,-1233.78 L -132.129,-1233.48
 L -131.545,-1233.24 L -130.937,-1233.09 L -130.314,-1233.01 L 130.314,-1233.01 z
M -130.048,-1233.51 L -130.64,-1233.58 L -131.218,-1233.73 L -131.772,-1233.95 L -132.295,-1234.24 L -132.778,-1234.59
 L -133.213,-1235 L -133.593,-1235.46 L -133.912,-1235.96 L -134.166,-1236.5 L -134.351,-1237.07 L -134.463,-1237.65
 L -134.5,-1238.25 L -134.5,-1407.75 L -134.463,-1408.35 L -134.351,-1408.93 L -134.166,-1409.5 L -133.912,-1410.04
 L -133.593,-1410.54 L -133.213,-1411 L -132.778,-1411.41 L -132.295,-1411.76 L -131.772,-1412.05 L -131.218,-1412.27
 L -130.64,-1412.42 L -130.048,-1412.49 L 130.048,-1412.49 L 130.64,-1412.42 L 131.218,-1412.27 L 131.772,-1412.05
 L 132.295,-1411.76 L 132.778,-1411.41 L 133.213,-1411 L 133.593,-1410.54 L 133.912,-1410.04 L 134.166,-1409.5
 L 134.351,-1408.93 L 134.463,-1408.35 L 134.5,-1407.75 L 134.5,-1238.25 L 134.463,-1237.65 L 134.351,-1237.07
 L 134.166,-1236.5 L 133.912,-1235.96 L 133.593,-1235.46 L 133.213,-1235 L 132.778,-1234.59 L 132.295,-1234.24
 L 131.772,-1233.95 L 131.218,-1233.73 L 130.64,-1233.58 L 130.048,-1233.51 z
M 130.937,-1044.09 L 131.545,-1044.24 L 132.129,-1044.48 L 132.679,-1044.78 L 133.187,-1045.15 L 133.645,-1045.58
 L 134.045,-1046.06 L 134.382,-1046.59 L 134.649,-1047.16 L 134.843,-1047.76 L 134.961,-1048.37 L 135,-1049
 L 135,-1219 L 134.961,-1219.63 L 134.843,-1220.24 L 134.649,-1220.84 L 134.382,-1221.41 L 134.045,-1221.94
 L 133.645,-1222.42 L 133.187,-1222.85 L 132.679,-1223.22 L 132.129,-1223.52 L 131.545,-1223.76 L 130.937,-1223.91
 L 130.314,-1223.99 L -130.314,-1223.99 L -130.937,-1223.91 L -131.545,-1223.76 L -132.129,-1223.52 L -132.679,-1223.22
 L -133.187,-1222.85 L -133.645,-1222.42 L -134.045,-1221.94 L -134.382,-1221.41 L -134.649,-1220.84 L -134.843,-1220.24
 L -134.961,-1219.63 L -135,-1219 L -135,-1049 L -134.961,-1048.37 L -134.843,-1047.76 L -134.649,-1047.16
 L -134.382,-1046.59 L -134.045,-1046.06 L -133.645,-1045.58 L -133.187,-1045.15 L -132.679,-1044.78 L -132.129,-1044.48
 L -131.545,-1044.24 L -130.937,-1044.09 L -130.314,-1044.01 L 130.314,-1044.01 z
M -130.048,-1044.51 L -130.64,-1044.58 L -131.218,-1044.73 L -131.772,-1044.95 L -132.295,-1045.24 L -132.778,-1045.59
 L -133.213,-1046 L -133.593,-1046.46 L -133.912,-1046.96 L -134.166,-1047.5 L -134.351,-1048.07 L -134.463,-1048.65
 L -134.5,-1049.25 L -134.5,-1218.75 L -134.463,-1219.35 L -134.351,-1219.93 L -134.166,-1220.5 L -133.912,-1221.04
 L -133.593,-1221.54 L -133.213,-1222 L -132.778,-1222.41 L -132.295,-1222.76 L -131.772,-1223.05 L -131.218,-1223.27
 L -130.64,-1223.42 L -130.048,-1223.49 L 130.048,-1223.49 L 130.64,-1223.42 L 131.218,-1223.27 L 131.772,-1223.05
 L 132.295,-1222.76 L 132.778,-1222.41 L 133.213,-1222 L 133.593,-1221.54 L 133.912,-1221.04 L 134.166,-1220.5
 L 134.351,-1219.93 L 134.463,-1219.35 L 134.5,-1218.75 L 134.5,-1049.25 L 134.463,-1048.65 L 134.351,-1048.07
 L 134.166,-1047.5 L 133.912,-1046.96 L 133.593,-1046.46 L 133.213,-1046 L 132.778,-1045.59 L 132.295,-1045.24
 L 131.772,-1044.95 L 131.218,-1044.73 L 130.64,-1044.58 L 130.048,-1044.51 z
M 130.937,-855.089 L 131.545,-855.245 L 132.129,-855.476 L 132.679,-855.778 L 133.187,-856.147 L 133.645,-856.577
 L 134.045,-857.061 L 134.382,-857.591 L 134.649,-858.159 L 134.843,-858.757 L 134.961,-859.373 L 135,-860
 L 135,-1030 L 134.961,-1030.63 L 134.843,-1031.24 L 134.649,-1031.84 L 134.382,-1032.41 L 134.045,-1032.94
 L 133.645,-1033.42 L 133.187,-1033.85 L 132.679,-1034.22 L 132.129,-1034.52 L 131.545,-1034.76 L 130.937,-1034.91
 L 130.314,-1034.99 L -130.314,-1034.99 L -130.937,-1034.91 L -131.545,-1034.76 L -132.129,-1034.52 L -132.679,-1034.22
 L -133.187,-1033.85 L -133.645,-1033.42 L -134.045,-1032.94 L -134.382,-1032.41 L -134.649,-1031.84 L -134.843,-1031.24
 L -134.961,-1030.63 L -135,-1030 L -135,-860 L -134.961,-859.373 L -134.843,-858.757 L -134.649,-858.159
 L -134.382,-857.591 L -134.045,-857.061 L -133.645,-856.577 L -133.187,-856.147 L -132.679,-855.778 L -132.129,-855.476
 L -131.545,-855.245 L -130.937,-855.089 L -130.314,-855.01 L 130.314,-855.01 z
M -129.993,-856.388 L -130.475,-856.449 L -130.946,-856.57 L -131.398,-856.749 L -131.823,-856.983 L -132.216,-857.269
 L -132.571,-857.601 L -132.88,-857.976 L -133.141,-858.386 L -133.348,-858.826 L -133.498,-859.288 L -133.589,-859.765
 L -133.619,-860.25 L -133.619,-1029.75 L -133.589,-1030.23 L -133.498,-1030.71 L -133.348,-1031.17 L -133.141,-1031.61
 L -132.88,-1032.02 L -132.571,-1032.4 L -132.216,-1032.73 L -131.823,-1033.02 L -131.398,-1033.25 L -130.946,-1033.43
 L -130.475,-1033.55 L -129.993,-1033.61 L 129.993,-1033.61 L 130.475,-1033.55 L 130.946,-1033.43 L 131.398,-1033.25
 L 131.823,-1033.02 L 132.216,-1032.73 L 132.571,-1032.4 L 132.88,-1032.02 L 133.141,-1031.61 L 133.348,-1031.17
 L 133.498,-1030.71 L 133.589,-1030.23 L 133.619,-1029.75 L 133.619,-860.25 L 133.589,-859.765 L 133.498,-859.288
 L 133.348,-858.826 L 133.141,-858.386 L 132.88,-857.976 L 132.571,-857.601 L 132.216,-857.269 L 131.823,-856.983
 L 131.398,-856.749 L 130.946,-856.57 L 130.475,-856.449 L 129.993,-856.388 z
M 130.937,-666.089 L 131.545,-666.245 L 132.129,-666.476 L 132.679,-666.778 L 133.187,-667.147 L 133.645,-667.577
 L 134.045,-668.061 L 134.382,-668.591 L 134.649,-669.159 L 134.843,-669.757 L 134.961,-670.373 L 135,-671
 L 135,-841 L 134.961,-841.627 L 134.843,-842.243 L 134.649,-842.841 L 134.382,-843.409 L 134.045,-843.939
 L 133.645,-844.423 L 133.187,-844.853 L 132.679,-845.222 L 132.129,-845.524 L 131.545,-845.755 L 130.937,-845.911
 L 130.314,-845.99 L -130.314,-845.99 L -130.937,-845.911 L -131.545,-845.755 L -132.129,-845.524 L -132.679,-845.222
 L -133.187,-844.853 L -133.645,-844.423 L -134.045,-843.939 L -134.382,-843.409 L -134.649,-842.841 L -134.843,-842.243
 L -134.961,-841.627 L -135,-841 L -135,-671 L -134.961,-670.373 L -134.843,-669.757 L -134.649,-669.159
 L -134.382,-668.591 L -134.045,-668.061 L -133.645,-667.577 L -133.187,-667.147 L -132.679,-666.778 L -132.129,-666.476
 L -131.545,-666.245 L -130.937,-666.089 L -130.314,-666.01 L 130.314,-666.01 z
M -127.613,-836.704 L -127.837,-836.732 L -128.056,-836.788 L -128.266,-836.871 L -128.464,-836.98 L -128.647,-837.113
 L -128.812,-837.268 L -128.956,-837.442 L -129.077,-837.633 L -129.174,-837.837 L -129.243,-838.052 L -129.286,-838.274
 L -129.3,-838.5 L -129.286,-838.726 L -129.243,-838.948 L -129.174,-839.163 L -129.077,-839.367 L -128.956,-839.558
 L -128.812,-839.732 L -128.647,-839.887 L -128.464,-840.02 L -128.266,-840.129 L -128.056,-840.212 L -127.837,-840.268
 L -127.613,-840.296 L -127.387,-840.296 L -127.163,-840.268 L -126.944,-840.212 L -126.734,-840.129 L -126.536,-840.02
 L -126.353,-839.887 L -126.188,-839.732 L -126.044,-839.558 L -125.923,-839.367 L -125.826,-839.163 L -125.757,-838.948
 L -125.714,-838.726 L -125.7,-838.5 L -125.714,-838.274 L -125.757,-838.052 L -125.826,-837.837 L -125.923,-837.633
 L -126.044,-837.442 L -126.188,-837.268 L -126.353,-837.113 L -126.536,-836.98 L -126.734,-836.871 L -126.944,-836.788
 L -127.163,-836.732 L -127.387,-836.704 z
M 127.387,-836.704 L 127.163,-836.732 L 126.944,-836.788 L 126.734,-836.871 L 126.536,-836.98 L 126.353,-837.113
 L 126.188,-837.268 L 126.044,-837.442 L 125.923,-837.633 L 125.826,-837.837 L 125.757,-838.052 L 125.714,-838.274
 L 125.7,-838.5 L 125.714,-838.726 L 125.757,-838.948 L 125.826,-839.163 L 125.923,-839.367 L 126.044,-839.558
 L 126.188,-839.732 L 126.353,-839.887 L 126.536,-840.02 L 126.734,-840.129 L 126.944,-840.212 L 127.163,-840.268
 L 127.387,-840.296 L 127.613,-840.296 L 127.837,-840.268 L 128.056,-840.212 L 128.266,-840.129 L 128.464,-840.02
 L 128.647,-839.887 L 128.812,-839.732 L 128.956,-839.558 L 129.077,-839.367 L 129.174,-839.163 L 129.243,-838.948
 L 129.286,-838.726 L 129.3,-838.5 L 129.286,-838.274 L 129.243,-838.052 L 129.174,-837.837 L 129.077,-837.633
 L 128.956,-837.442 L 128.812,-837.268 L 128.647,-837.113 L 128.464,-836.98 L 128.266,-836.871 L 128.056,-836.788
 L 127.837,-836.732 L 127.613,-836.704 z
M -127.613,-671.704 L -127.837,-671.732 L -128.056,-671.788 L -128.266,-671.871 L -128.464,-671.98 L -128.647,-672.113
 L -128.812,-672.268 L -128.956,-672.442 L -129.077,-672.633 L -129.174,-672.837 L -129.243,-673.052 L -129.286,-673.274
 L -129.3,-673.5 L -129.286,-673.726 L -129.243,-673.948 L -129.174,-674.163 L -129.077,-674.367 L -128.956,-674.558
 L -128.812,-674.732 L -128.647,-674.887 L -128.464,-675.02 L -128.266,-675.129 L -128.056,-675.212 L -127.837,-675.268
 L -127.613,-675.296 L -127.387,-675.296 L -127.163,-675.268 L -126.944,-675.212 L -126.734,-675.129 L -126.536,-675.02
 L -126.353,-674.887 L -126.188,-674.732 L -126.044,-674.558 L -125.923,-674.367 L -125.826,-674.163 L -125.757,-673.948
 L -125.714,-673.726 L -125.7,-673.5 L -125.714,-673.274 L -125.757,-673.052 L -125.826,-672.837 L -125.923,-672.633
 L -126.044,-672.442 L -126.188,-672.268 L -126.353,-672.113 L -126.536,-671.98 L -126.734,-671.871 L -126.944,-671.788
 L -127.163,-671.732 L -127.387,-671.704 z
M 127.387,-671.704 L 127.163,-671.732 L 126.944,-671.788 L 126.734,-671.871 L 126.536,-671.98 L 126.353,-672.113
 L 126.188,-672.268 L 126.044,-672.442 L 125.923,-672.633 L 125.826,-672.837 L 125.757,-673.052 L 125.714,-673.274
 L 125.7,-673.5 L 125.714,-673.726 L 125.757,-673.948 L 125.826,-674.163 L 125.923,-674.367 L 126.044,-674.558
 L 126.188,-674.732 L 126.353,-674.887 L 126.536,-675.02 L 126.734,-675.129 L 126.944,-675.212 L 127.163,-675.268
 L 127.387,-675.296 L 127.613,-675.296 L 127.837,-675.268 L 128.056,-675.212 L 128.266,-675.129 L 128.464,-675.02
 L 128.647,-674.887 L 128.812,-674.732 L 128.956,-674.558 L 129.077,-674.367 L 129.174,-674.163 L 129.243,-673.948
 L 129.286,-673.726 L 129.3,-673.5 L 129.286,-673.274 L 129.243,-673.052 L 129.174,-672.837 L 129.077,-672.633
 L 128.956,-672.442 L 128.812,-672.268 L 128.647,-672.113 L 128.464,-671.98 L 128.266,-671.871 L 128.056,-671.788
 L 127.837,-671.732 L 127.613,-671.704 z
" stroke="black" fill="lightgray" stroke-width="0.5"/>
</svg>
