  0
SECTION
  2
BLOCKS
  0
ENDSEC
  0
SECTION
  2
ENTITIES
  0
LINE
  8
0
 10
130.937
 20
1422.09
 11
131.545
 21
1422.24
  0
LINE
  8
0
 10
131.545
 20
1422.24
 11
132.129
 21
1422.48
  0
LINE
  8
0
 10
132.129
 20
1422.48
 11
132.679
 21
1422.78
  0
LINE
  8
0
 10
132.679
 20
1422.78
 11
133.187
 21
1423.15
  0
LINE
  8
0
 10
133.187
 20
1423.15
 11
133.645
 21
1423.58
  0
LINE
  8
0
 10
133.645
 20
1423.58
 11
134.045
 21
1424.06
  0
LINE
  8
0
 10
134.045
 20
1424.06
 11
134.382
 21
1424.59
  0
LINE
  8
0
 10
134.382
 20
1424.59
 11
134.649
 21
1425.16
  0
LINE
  8
0
 10
134.649
 20
1425.16
 11
134.843
 21
1425.76
  0
LINE
  8
0
 10
134.843
 20
1425.76
 11
134.961
 21
1426.37
  0
LINE
  8
0
 10
134.961
 20
1426.37
 11
135
 21
1427
  0
LINE
  8
0
 10
135
 20
1427
 11
135
 21
1597
  0
LINE
  8
0
 10
135
 20
1597
 11
134.961
 21
1597.63
  0
LINE
  8
0
 10
134.961
 20
1597.63
 11
134.843
 21
1598.24
  0
LINE
  8
0
 10
134.843
 20
1598.24
 11
134.649
 21
1598.84
  0
LINE
  8
0
 10
134.649
 20
1598.84
 11
134.382
 21
1599.41
  0
LINE
  8
0
 10
134.382
 20
1599.41
 11
134.045
 21
1599.94
  0
LINE
  8
0
 10
134.045
 20
1599.94
 11
133.645
 21
1600.42
  0
LINE
  8
0
 10
133.645
 20
1600.42
 11
133.187
 21
1600.85
  0
LINE
  8
0
 10
133.187
 20
1600.85
 11
132.679
 21
1601.22
  0
LINE
  8
0
 10
132.679
 20
1601.22
 11
132.129
 21
1601.52
  0
LINE
  8
0
 10
132.129
 20
1601.52
 11
131.545
 21
1601.76
  0
LINE
  8
0
 10
131.545
 20
1601.76
 11
130.937
 21
1601.91
  0
LINE
  8
0
 10
130.937
 20
1601.91
 11
130.314
 21
1601.99
  0
LINE
  8
0
 10
130.314
 20
1601.99
 11
-130.314
 21
1601.99
  0
LINE
  8
0
 10
-130.314
 20
1601.99
 11
-130.937
 21
1601.91
  0
LINE
  8
0
 10
-130.937
 20
1601.91
 11
-131.545
 21
1601.76
  0
LINE
  8
0
 10
-131.545
 20
1601.76
 11
-132.129
 21
1601.52
  0
LINE
  8
0
 10
-132.129
 20
1601.52
 11
-132.679
 21
1601.22
  0
LINE
  8
0
 10
-132.679
 20
1601.22
 11
-133.187
 21
1600.85
  0
LINE
  8
0
 10
-133.187
 20
1600.85
 11
-133.645
 21
1600.42
  0
LINE
  8
0
 10
-133.645
 20
1600.42
 11
-134.045
 21
1599.94
  0
LINE
  8
0
 10
-134.045
 20
1599.94
 11
-134.382
 21
1599.41
  0
LINE
  8
0
 10
-134.382
 20
1599.41
 11
-134.649
 21
1598.84
  0
LINE
  8
0
 10
-134.649
 20
1598.84
 11
-134.843
 21
1598.24
  0
LINE
  8
0
 10
-134.843
 20
1598.24
 11
-134.961
 21
1597.63
  0
LINE
  8
0
 10
-134.961
 20
1597.63
 11
-135
 21
1597
  0
LINE
  8
0
 10
-135
 20
1597
 11
-135
 21
1427
  0
LINE
  8
0
 10
-135
 20
1427
 11
-134.961
 21
1426.37
  0
LINE
  8
0
 10
-134.961
 20
1426.37
 11
-134.843
 21
1425.76
  0
LINE
  8
0
 10
-134.843
 20
1425.76
 11
-134.649
 21
1425.16
  0
LINE
  8
0
 10
-134.649
 20
1425.16
 11
-134.382
 21
1424.59
  0
LINE
  8
0
 10
-134.382
 20
1424.59
 11
-134.045
 21
1424.06
  0
LINE
  8
0
 10
-134.045
 20
1424.06
 11
-133.645
 21
1423.58
  0
LINE
  8
0
 10
-133.645
 20
1423.58
 11
-133.187
 21
1423.15
  0
LINE
  8
0
 10
-133.187
 20
1423.15
 11
-132.679
 21
1422.78
  0
LINE
  8
0
 10
-132.679
 20
1422.78
 11
-132.129
 21
1422.48
  0
LINE
  8
0
 10
-132.129
 20
1422.48
 11
-131.545
 21
1422.24
  0
LINE
  8
0
 10
-131.545
 20
1422.24
 11
-130.937
 21
1422.09
  0
LINE
  8
0
 10
-130.937
 20
1422.09
 11
-130.314
 21
1422.01
  0
LINE
  8
0
 10
-130.314
 20
1422.01
 11
130.314
 21
1422.01
  0
LINE
  8
0
 10
130.314
 20
1422.01
 11
130.937
 21
1422.09
  0
LINE
  8
0
 10
-130.048
 20
1422.51
 11
-130.64
 21
1422.58
  0
LINE
  8
0
 10
-130.64
 20
1422.58
 11
-131.218
 21
1422.73
  0
LINE
  8
0
 10
-131.218
 20
1422.73
 11
-131.772
 21
1422.95
  0
LINE
  8
0
 10
-131.772
 20
1422.95
 11
-132.295
 21
1423.24
  0
LINE
  8
0
 10
-132.295
 20
1423.24
 11
-132.778
 21
1423.59
  0
LINE
  8
0
 10
-132.778
 20
1423.59
 11
-133.213
 21
1424
  0
LINE
  8
0
 10
-133.213
 20
1424
 11
-133.593
 21
1424.46
  0
LINE
  8
0
 10
-133.593
 20
1424.46
 11
-133.912
 21
1424.96
  0
LINE
  8
0
 10
-133.912
 20
1424.96
 11
-134.166
 21
1425.5
  0
LINE
  8
0
 10
-134.166
 20
1425.5
 11
-134.351
 21
1426.07
  0
LINE
  8
0
 10
-134.351
 20
1426.07
 11
-134.463
 21
1426.65
  0
LINE
  8
0
 10
-134.463
 20
1426.65
 11
-134.5
 21
1427.25
  0
LINE
  8
0
 10
-134.5
 20
1427.25
 11
-134.5
 21
1596.75
  0
LINE
  8
0
 10
-134.5
 20
1596.75
 11
-134.463
 21
1597.35
  0
LINE
  8
0
 10
-134.463
 20
1597.35
 11
-134.351
 21
1597.93
  0
LINE
  8
0
 10
-134.351
 20
1597.93
 11
-134.166
 21
1598.5
  0
LINE
  8
0
 10
-134.166
 20
1598.5
 11
-133.912
 21
1599.04
  0
LINE
  8
0
 10
-133.912
 20
1599.04
 11
-133.593
 21
1599.54
  0
LINE
  8
0
 10
-133.593
 20
1599.54
 11
-133.213
 21
1600
  0
LINE
  8
0
 10
-133.213
 20
1600
 11
-132.778
 21
1600.41
  0
LINE
  8
0
 10
-132.778
 20
1600.41
 11
-132.295
 21
1600.76
  0
LINE
  8
0
 10
-132.295
 20
1600.76
 11
-131.772
 21
1601.05
  0
LINE
  8
0
 10
-131.772
 20
1601.05
 11
-131.218
 21
1601.27
  0
LINE
  8
0
 10
-131.218
 20
1601.27
 11
-130.64
 21
1601.42
  0
LINE
  8
0
 10
-130.64
 20
1601.42
 11
-130.048
 21
1601.49
  0
LINE
  8
0
 10
-130.048
 20
1601.49
 11
130.048
 21
1601.49
  0
LINE
  8
0
 10
130.048
 20
1601.49
 11
130.64
 21
1601.42
  0
LINE
  8
0
 10
130.64
 20
1601.42
 11
131.218
 21
1601.27
  0
LINE
  8
0
 10
131.218
 20
1601.27
 11
131.772
 21
1601.05
  0
LINE
  8
0
 10
131.772
 20
1601.05
 11
132.295
 21
1600.76
  0
LINE
  8
0
 10
132.295
 20
1600.76
 11
132.778
 21
1600.41
  0
LINE
  8
0
 10
132.778
 20
1600.41
 11
133.213
 21
1600
  0
LINE
  8
0
 10
133.213
 20
1600
 11
133.593
 21
1599.54
  0
LINE
  8
0
 10
133.593
 20
1599.54
 11
133.912
 21
1599.04
  0
LINE
  8
0
 10
133.912
 20
1599.04
 11
134.166
 21
1598.5
  0
LINE
  8
0
 10
134.166
 20
1598.5
 11
134.351
 21
1597.93
  0
LINE
  8
0
 10
134.351
 20
1597.93
 11
134.463
 21
1597.35
  0
LINE
  8
0
 10
134.463
 20
1597.35
 11
134.5
 21
1596.75
  0
LINE
  8
0
 10
134.5
 20
1596.75
 11
134.5
 21
1427.25
  0
LINE
  8
0
 10
134.5
 20
1427.25
 11
134.463
 21
1426.65
  0
LINE
  8
0
 10
134.463
 20
1426.65
 11
134.351
 21
1426.07
  0
LINE
  8
0
 10
134.351
 20
1426.07
 11
134.166
 21
1425.5
  0
LINE
  8
0
 10
134.166
 20
1425.5
 11
133.912
 21
1424.96
  0
LINE
  8
0
 10
133.912
 20
1424.96
 11
133.593
 21
1424.46
  0
LINE
  8
0
 10
133.593
 20
1424.46
 11
133.213
 21
1424
  0
LINE
  8
0
 10
133.213
 20
1424
 11
132.778
 21
1423.59
  0
LINE
  8
0
 10
132.778
 20
1423.59
 11
132.295
 21
1423.24
  0
LINE
  8
0
 10
132.295
 20
1423.24
 11
131.772
 21
1422.95
  0
LINE
  8
0
 10
131.772
 20
1422.95
 11
131.218
 21
1422.73
  0
LINE
  8
0
 10
131.218
 20
1422.73
 11
130.64
 21
1422.58
  0
LINE
  8
0
 10
130.64
 20
1422.58
 11
130.048
 21
1422.51
  0
LINE
  8
0
 10
130.048
 20
1422.51
 11
-130.048
 21
1422.51
  0
LINE
  8
0
 10
130.937
 20
1233.09
 11
131.545
 21
1233.24
  0
LINE
  8
0
 10
131.545
 20
1233.24
 11
132.129
 21
1233.48
  0
LINE
  8
0
 10
132.129
 20
1233.48
 11
132.679
 21
1233.78
  0
LINE
  8
0
 10
132.679
 20
1233.78
 11
133.187
 21
1234.15
  0
LINE
  8
0
 10
133.187
 20
1234.15
 11
133.645
 21
1234.58
  0
LINE
  8
0
 10
133.645
 20
1234.58
 11
134.045
 21
1235.06
  0
LINE
  8
0
 10
134.045
 20
1235.06
 11
134.382
 21
1235.59
  0
LINE
  8
0
 10
134.382
 20
1235.59
 11
134.649
 21
1236.16
  0
LINE
  8
0
 10
134.649
 20
1236.16
 11
134.843
 21
1236.76
  0
LINE
  8
0
 10
134.843
 20
1236.76
 11
134.961
 21
1237.37
  0
LINE
  8
0
 10
134.961
 20
1237.37
 11
135
 21
1238
  0
LINE
  8
0
 10
135
 20
1238
 11
135
 21
1408
  0
LINE
  8
0
 10
135
 20
1408
 11
134.961
 21
1408.63
  0
LINE
  8
0
 10
134.961
 20
1408.63
 11
134.843
 21
1409.24
  0
LINE
  8
0
 10
134.843
 20
1409.24
 11
134.649
 21
1409.84
  0
LINE
  8
0
 10
134.649
 20
1409.84
 11
134.382
 21
1410.41
  0
LINE
  8
0
 10
134.382
 20
1410.41
 11
134.045
 21
1410.94
  0
LINE
  8
0
 10
134.045
 20
1410.94
 11
133.645
 21
1411.42
  0
LINE
  8
0
 10
133.645
 20
1411.42
 11
133.187
 21
1411.85
  0
LINE
  8
0
 10
133.187
 20
1411.85
 11
132.679
 21
1412.22
  0
LINE
  8
0
 10
132.679
 20
1412.22
 11
132.129
 21
1412.52
  0
LINE
  8
0
 10
132.129
 20
1412.52
 11
131.545
 21
1412.76
  0
LINE
  8
0
 10
131.545
 20
1412.76
 11
130.937
 21
1412.91
  0
LINE
  8
0
 10
130.937
 20
1412.91
 11
130.314
 21
1412.99
  0
LINE
  8
0
 10
130.314
 20
1412.99
 11
-130.314
 21
1412.99
  0
LINE
  8
0
 10
-130.314
 20
1412.99
 11
-130.937
 21
1412.91
  0
LINE
  8
0
 10
-130.937
 20
1412.91
 11
-131.545
 21
1412.76
  0
LINE
  8
0
 10
-131.545
 20
1412.76
 11
-132.129
 21
1412.52
  0
LINE
  8
0
 10
-132.129
 20
1412.52
 11
-132.679
 21
1412.22
  0
LINE
  8
0
 10
-132.679
 20
1412.22
 11
-133.187
 21
1411.85
  0
LINE
  8
0
 10
-133.187
 20
1411.85
 11
-133.645
 21
1411.42
  0
LINE
  8
0
 10
-133.645
 20
1411.42
 11
-134.045
 21
1410.94
  0
LINE
  8
0
 10
-134.045
 20
1410.94
 11
-134.382
 21
1410.41
  0
LINE
  8
0
 10
-134.382
 20
1410.41
 11
-134.649
 21
1409.84
  0
LINE
  8
0
 10
-134.649
 20
1409.84
 11
-134.843
 21
1409.24
  0
LINE
  8
0
 10
-134.843
 20
1409.24
 11
-134.961
 21
1408.63
  0
LINE
  8
0
 10
-134.961
 20
1408.63
 11
-135
 21
1408
  0
LINE
  8
0
 10
-135
 20
1408
 11
-135
 21
1238
  0
LINE
  8
0
 10
-135
 20
1238
 11
-134.961
 21
1237.37
  0
LINE
  8
0
 10
-134.961
 20
1237.37
 11
-134.843
 21
1236.76
  0
LINE
  8
0
 10
-134.843
 20
1236.76
 11
-134.649
 21
1236.16
  0
LINE
  8
0
 10
-134.649
 20
1236.16
 11
-134.382
 21
1235.59
  0
LINE
  8
0
 10
-134.382
 20
1235.59
 11
-134.045
 21
1235.06
  0
LINE
  8
0
 10
-134.045
 20
1235.06
 11
-133.645
 21
1234.58
  0
LINE
  8
0
 10
-133.645
 20
1234.58
 11
-133.187
 21
1234.15
  0
LINE
  8
0
 10
-133.187
 20
1234.15
 11
-132.679
 21
1233.78
  0
LINE
  8
0
 10
-132.679
 20
1233.78
 11
-132.129
 21
1233.48
  0
LINE
  8
0
 10
-132.129
 20
1233.48
 11
-131.545
 21
1233.24
  0
LINE
  8
0
 10
-131.545
 20
1233.24
 11
-130.937
 21
1233.09
  0
LINE
  8
0
 10
-130.937
 20
1233.09
 11
-130.314
 21
1233.01
  0
LINE
  8
0
 10
-130.314
 20
1233.01
 11
130.314
 21
1233.01
  0
LINE
  8
0
 10
130.314
 20
1233.01
 11
130.937
 21
1233.09
  0
LINE
  8
0
 10
-130.048
 20
1233.51
 11
-130.64
 21
1233.58
  0
LINE
  8
0
 10
-130.64
 20
1233.58
 11
-131.218
 21
1233.73
  0
LINE
  8
0
 10
-131.218
 20
1233.73
 11
-131.772
 21
1233.95
  0
LINE
  8
0
 10
-131.772
 20
1233.95
 11
-132.295
 21
1234.24
  0
LINE
  8
0
 10
-132.295
 20
1234.24
 11
-132.778
 21
1234.59
  0
LINE
  8
0
 10
-132.778
 20
1234.59
 11
-133.213
 21
1235
  0
LINE
  8
0
 10
-133.213
 20
1235
 11
-133.593
 21
1235.46
  0
LINE
  8
0
 10
-133.593
 20
1235.46
 11
-133.912
 21
1235.96
  0
LINE
  8
0
 10
-133.912
 20
1235.96
 11
-134.166
 21
1236.5
  0
LINE
  8
0
 10
-134.166
 20
1236.5
 11
-134.351
 21
1237.07
  0
LINE
  8
0
 10
-134.351
 20
1237.07
 11
-134.463
 21
1237.65
  0
LINE
  8
0
 10
-134.463
 20
1237.65
 11
-134.5
 21
1238.25
  0
LINE
  8
0
 10
-134.5
 20
1238.25
 11
-134.5
 21
1407.75
  0
LINE
  8
0
 10
-134.5
 20
1407.75
 11
-134.463
 21
1408.35
  0
LINE
  8
0
 10
-134.463
 20
1408.35
 11
-134.351
 21
1408.93
  0
LINE
  8
0
 10
-134.351
 20
1408.93
 11
-134.166
 21
1409.5
  0
LINE
  8
0
 10
-134.166
 20
1409.5
 11
-133.912
 21
1410.04
  0
LINE
  8
0
 10
-133.912
 20
1410.04
 11
-133.593
 21
1410.54
  0
LINE
  8
0
 10
-133.593
 20
1410.54
 11
-133.213
 21
1411
  0
LINE
  8
0
 10
-133.213
 20
1411
 11
-132.778
 21
1411.41
  0
LINE
  8
0
 10
-132.778
 20
1411.41
 11
-132.295
 21
1411.76
  0
LINE
  8
0
 10
-132.295
 20
1411.76
 11
-131.772
 21
1412.05
  0
LINE
  8
0
 10
-131.772
 20
1412.05
 11
-131.218
 21
1412.27
  0
LINE
  8
0
 10
-131.218
 20
1412.27
 11
-130.64
 21
1412.42
  0
LINE
  8
0
 10
-130.64
 20
1412.42
 11
-130.048
 21
1412.49
  0
LINE
  8
0
 10
-130.048
 20
1412.49
 11
130.048
 21
1412.49
  0
LINE
  8
0
 10
130.048
 20
1412.49
 11
130.64
 21
1412.42
  0
LINE
  8
0
 10
130.64
 20
1412.42
 11
131.218
 21
1412.27
  0
LINE
  8
0
 10
131.218
 20
1412.27
 11
131.772
 21
1412.05
  0
LINE
  8
0
 10
131.772
 20
1412.05
 11
132.295
 21
1411.76
  0
LINE
  8
0
 10
132.295
 20
1411.76
 11
132.778
 21
1411.41
  0
LINE
  8
0
 10
132.778
 20
1411.41
 11
133.213
 21
1411
  0
LINE
  8
0
 10
133.213
 20
1411
 11
133.593
 21
1410.54
  0
LINE
  8
0
 10
133.593
 20
1410.54
 11
133.912
 21
1410.04
  0
LINE
  8
0
 10
133.912
 20
1410.04
 11
134.166
 21
1409.5
  0
LINE
  8
0
 10
134.166
 20
1409.5
 11
134.351
 21
1408.93
  0
LINE
  8
0
 10
134.351
 20
1408.93
 11
134.463
 21
1408.35
  0
LINE
  8
0
 10
134.463
 20
1408.35
 11
134.5
 21
1407.75
  0
LINE
  8
0
 10
134.5
 20
1407.75
 11
134.5
 21
1238.25
  0
LINE
  8
0
 10
134.5
 20
1238.25
 11
134.463
 21
1237.65
  0
LINE
  8
0
 10
134.463
 20
1237.65
 11
134.351
 21
1237.07
  0
LINE
  8
0
 10
134.351
 20
1237.07
 11
134.166
 21
1236.5
  0
LINE
  8
0
 10
134.166
 20
1236.5
 11
133.912
 21
1235.96
  0
LINE
  8
0
 10
133.912
 20
1235.96
 11
133.593
 21
1235.46
  0
LINE
  8
0
 10
133.593
 20
1235.46
 11
133.213
 21
1235
  0
LINE
  8
0
 10
133.213
 20
1235
 11
132.778
 21
1234.59
  0
LINE
  8
0
 10
132.778
 20
1234.59
 11
132.295
 21
1234.24
  0
LINE
  8
0
 10
132.295
 20
1234.24
 11
131.772
 21
1233.95
  0
LINE
  8
0
 10
131.772
 20
1233.95
 11
131.218
 21
1233.73
  0
LINE
  8
0
 10
131.218
 20
1233.73
 11
130.64
 21
1233.58
  0
LINE
  8
0
 10
130.64
 20
1233.58
 11
130.048
 21
1233.51
  0
LINE
  8
0
 10
130.048
 20
1233.51
 11
-130.048
 21
1233.51
  0
LINE
  8
0
 10
130.937
 20
1044.09
 11
131.545
 21
1044.24
  0
LINE
  8
0
 10
131.545
 20
1044.24
 11
132.129
 21
1044.48
  0
LINE
  8
0
 10
132.129
 20
1044.48
 11
132.679
 21
1044.78
  0
LINE
  8
0
 10
132.679
 20
1044.78
 11
133.187
 21
1045.15
  0
LINE
  8
0
 10
133.187
 20
1045.15
 11
133.645
 21
1045.58
  0
LINE
  8
0
 10
133.645
 20
1045.58
 11
134.045
 21
1046.06
  0
LINE
  8
0
 10
134.045
 20
1046.06
 11
134.382
 21
1046.59
  0
LINE
  8
0
 10
134.382
 20
1046.59
 11
134.649
 21
1047.16
  0
LINE
  8
0
 10
134.649
 20
1047.16
 11
134.843
 21
1047.76
  0
LINE
  8
0
 10
134.843
 20
1047.76
 11
134.961
 21
1048.37
  0
LINE
  8
0
 10
134.961
 20
1048.37
 11
135
 21
1049
  0
LINE
  8
0
 10
135
 20
1049
 11
135
 21
1219
  0
LINE
  8
0
 10
135
 20
1219
 11
134.961
 21
1219.63
  0
LINE
  8
0
 10
134.961
 20
1219.63
 11
134.843
 21
1220.24
  0
LINE
  8
0
 10
134.843
 20
1220.24
 11
134.649
 21
1220.84
  0
LINE
  8
0
 10
134.649
 20
1220.84
 11
134.382
 21
1221.41
  0
LINE
  8
0
 10
134.382
 20
1221.41
 11
134.045
 21
1221.94
  0
LINE
  8
0
 10
134.045
 20
1221.94
 11
133.645
 21
1222.42
  0
LINE
  8
0
 10
133.645
 20
1222.42
 11
133.187
 21
1222.85
  0
LINE
  8
0
 10
133.187
 20
1222.85
 11
132.679
 21
1223.22
  0
LINE
  8
0
 10
132.679
 20
1223.22
 11
132.129
 21
1223.52
  0
LINE
  8
0
 10
132.129
 20
1223.52
 11
131.545
 21
1223.76
  0
LINE
  8
0
 10
131.545
 20
1223.76
 11
130.937
 21
1223.91
  0
LINE
  8
0
 10
130.937
 20
1223.91
 11
130.314
 21
1223.99
  0
LINE
  8
0
 10
130.314
 20
1223.99
 11
-130.314
 21
1223.99
  0
LINE
  8
0
 10
-130.314
 20
1223.99
 11
-130.937
 21
1223.91
  0
LINE
  8
0
 10
-130.937
 20
1223.91
 11
-131.545
 21
1223.76
  0
LINE
  8
0
 10
-131.545
 20
1223.76
 11
-132.129
 21
1223.52
  0
LINE
  8
0
 10
-132.129
 20
1223.52
 11
-132.679
 21
1223.22
  0
LINE
  8
0
 10
-132.679
 20
1223.22
 11
-133.187
 21
1222.85
  0
LINE
  8
0
 10
-133.187
 20
1222.85
 11
-133.645
 21
1222.42
  0
LINE
  8
0
 10
-133.645
 20
1222.42
 11
-134.045
 21
1221.94
  0
LINE
  8
0
 10
-134.045
 20
1221.94
 11
-134.382
 21
1221.41
  0
LINE
  8
0
 10
-134.382
 20
1221.41
 11
-134.649
 21
1220.84
  0
LINE
  8
0
 10
-134.649
 20
1220.84
 11
-134.843
 21
1220.24
  0
LINE
  8
0
 10
-134.843
 20
1220.24
 11
-134.961
 21
1219.63
  0
LINE
  8
0
 10
-134.961
 20
1219.63
 11
-135
 21
1219
  0
LINE
  8
0
 10
-135
 20
1219
 11
-135
 21
1049
  0
LINE
  8
0
 10
-135
 20
1049
 11
-134.961
 21
1048.37
  0
LINE
  8
0
 10
-134.961
 20
1048.37
 11
-134.843
 21
1047.76
  0
LINE
  8
0
 10
-134.843
 20
1047.76
 11
-134.649
 21
1047.16
  0
LINE
  8
0
 10
-134.649
 20
1047.16
 11
-134.382
 21
1046.59
  0
LINE
  8
0
 10
-134.382
 20
1046.59
 11
-134.045
 21
1046.06
  0
LINE
  8
0
 10
-134.045
 20
1046.06
 11
-133.645
 21
1045.58
  0
LINE
  8
0
 10
-133.645
 20
1045.58
 11
-133.187
 21
1045.15
  0
LINE
  8
0
 10
-133.187
 20
1045.15
 11
-132.679
 21
1044.78
  0
LINE
  8
0
 10
-132.679
 20
1044.78
 11
-132.129
 21
1044.48
  0
LINE
  8
0
 10
-132.129
 20
1044.48
 11
-131.545
 21
1044.24
  0
LINE
  8
0
 10
-131.545
 20
1044.24
 11
-130.937
 21
1044.09
  0
LINE
  8
0
 10
-130.937
 20
1044.09
 11
-130.314
 21
1044.01
  0
LINE
  8
0
 10
-130.314
 20
1044.01
 11
130.314
 21
1044.01
  0
LINE
  8
0
 10
130.314
 20
1044.01
 11
130.937
 21
1044.09
  0
LINE
  8
0
 10
-130.048
 20
1044.51
 11
-130.64
 21
1044.58
  0
LINE
  8
0
 10
-130.64
 20
1044.58
 11
-131.218
 21
1044.73
  0
LINE
  8
0
 10
-131.218
 20
1044.73
 11
-131.772
 21
1044.95
  0
LINE
  8
0
 10
-131.772
 20
1044.95
 11
-132.295
 21
1045.24
  0
LINE
  8
0
 10
-132.295
 20
1045.24
 11
-132.778
 21
1045.59
  0
LINE
  8
0
 10
-132.778
 20
1045.59
 11
-133.213
 21
1046
  0
LINE
  8
0
 10
-133.213
 20
1046
 11
-133.593
 21
1046.46
  0
LINE
  8
0
 10
-133.593
 20
1046.46
 11
-133.912
 21
1046.96
  0
LINE
  8
0
 10
-133.912
 20
1046.96
 11
-134.166
 21
1047.5
  0
LINE
  8
0
 10
-134.166
 20
1047.5
 11
-134.351
 21
1048.07
  0
LINE
  8
0
 10
-134.351
 20
1048.07
 11
-134.463
 21
1048.65
  0
LINE
  8
0
 10
-134.463
 20
1048.65
 11
-134.5
 21
1049.25
  0
LINE
  8
0
 10
-134.5
 20
1049.25
 11
-134.5
 21
1218.75
  0
LINE
  8
0
 10
-134.5
 20
1218.75
 11
-134.463
 21
1219.35
  0
LINE
  8
0
 10
-134.463
 20
1219.35
 11
-134.351
 21
1219.93
  0
LINE
  8
0
 10
-134.351
 20
1219.93
 11
-134.166
 21
1220.5
  0
LINE
  8
0
 10
-134.166
 20
1220.5
 11
-133.912
 21
1221.04
  0
LINE
  8
0
 10
-133.912
 20
1221.04
 11
-133.593
 21
1221.54
  0
LINE
  8
0
 10
-133.593
 20
1221.54
 11
-133.213
 21
1222
  0
LINE
  8
0
 10
-133.213
 20
1222
 11
-132.778
 21
1222.41
  0
LINE
  8
0
 10
-132.778
 20
1222.41
 11
-132.295
 21
1222.76
  0
LINE
  8
0
 10
-132.295
 20
1222.76
 11
-131.772
 21
1223.05
  0
LINE
  8
0
 10
-131.772
 20
1223.05
 11
-131.218
 21
1223.27
  0
LINE
  8
0
 10
-131.218
 20
1223.27
 11
-130.64
 21
1223.42
  0
LINE
  8
0
 10
-130.64
 20
1223.42
 11
-130.048
 21
1223.49
  0
LINE
  8
0
 10
-130.048
 20
1223.49
 11
130.048
 21
1223.49
  0
LINE
  8
0
 10
130.048
 20
1223.49
 11
130.64
 21
1223.42
  0
LINE
  8
0
 10
130.64
 20
1223.42
 11
131.218
 21
1223.27
  0
LINE
  8
0
 10
131.218
 20
1223.27
 11
131.772
 21
1223.05
  0
LINE
  8
0
 10
131.772
 20
1223.05
 11
132.295
 21
1222.76
  0
LINE
  8
0
 10
132.295
 20
1222.76
 11
132.778
 21
1222.41
  0
LINE
  8
0
 10
132.778
 20
1222.41
 11
133.213
 21
1222
  0
LINE
  8
0
 10
133.213
 20
1222
 11
133.593
 21
1221.54
  0
LINE
  8
0
 10
133.593
 20
1221.54
 11
133.912
 21
1221.04
  0
LINE
  8
0
 10
133.912
 20
1221.04
 11
134.166
 21
1220.5
  0
LINE
  8
0
 10
134.166
 20
1220.5
 11
134.351
 21
1219.93
  0
LINE
  8
0
 10
134.351
 20
1219.93
 11
134.463
 21
1219.35
  0
LINE
  8
0
 10
134.463
 20
1219.35
 11
134.5
 21
1218.75
  0
LINE
  8
0
 10
134.5
 20
1218.75
 11
134.5
 21
1049.25
  0
LINE
  8
0
 10
134.5
 20
1049.25
 11
134.463
 21
1048.65
  0
LINE
  8
0
 10
134.463
 20
1048.65
 11
134.351
 21
1048.07
  0
LINE
  8
0
 10
134.351
 20
1048.07
 11
134.166
 21
1047.5
  0
LINE
  8
0
 10
134.166
 20
1047.5
 11
133.912
 21
1046.96
  0
LINE
  8
0
 10
133.912
 20
1046.96
 11
133.593
 21
1046.46
  0
LINE
  8
0
 10
133.593
 20
1046.46
 11
133.213
 21
1046
  0
LINE
  8
0
 10
133.213
 20
1046
 11
132.778
 21
1045.59
  0
LINE
  8
0
 10
132.778
 20
1045.59
 11
132.295
 21
1045.24
  0
LINE
  8
0
 10
132.295
 20
1045.24
 11
131.772
 21
1044.95
  0
LINE
  8
0
 10
131.772
 20
1044.95
 11
131.218
 21
1044.73
  0
LINE
  8
0
 10
131.218
 20
1044.73
 11
130.64
 21
1044.58
  0
LINE
  8
0
 10
130.64
 20
1044.58
 11
130.048
 21
1044.51
  0
LINE
  8
0
 10
130.048
 20
1044.51
 11
-130.048
 21
1044.51
  0
LINE
  8
0
 10
130.937
 20
855.089
 11
131.545
 21
855.245
  0
LINE
  8
0
 10
131.545
 20
855.245
 11
132.129
 21
855.476
  0
LINE
  8
0
 10
132.129
 20
855.476
 11
132.679
 21
855.778
  0
LINE
  8
0
 10
132.679
 20
855.778
 11
133.187
 21
856.147
  0
LINE
  8
0
 10
133.187
 20
856.147
 11
133.645
 21
856.577
  0
LINE
  8
0
 10
133.645
 20
856.577
 11
134.045
 21
857.061
  0
LINE
  8
0
 10
134.045
 20
857.061
 11
134.382
 21
857.591
  0
LINE
  8
0
 10
134.382
 20
857.591
 11
134.649
 21
858.159
  0
LINE
  8
0
 10
134.649
 20
858.159
 11
134.843
 21
858.757
  0
LINE
  8
0
 10
134.843
 20
858.757
 11
134.961
 21
859.373
  0
LINE
  8
0
 10
134.961
 20
859.373
 11
135
 21
860
  0
LINE
  8
0
 10
135
 20
860
 11
135
 21
1030
  0
LINE
  8
0
 10
135
 20
1030
 11
134.961
 21
1030.63
  0
LINE
  8
0
 10
134.961
 20
1030.63
 11
134.843
 21
1031.24
  0
LINE
  8
0
 10
134.843
 20
1031.24
 11
134.649
 21
1031.84
  0
LINE
  8
0
 10
134.649
 20
1031.84
 11
134.382
 21
1032.41
  0
LINE
  8
0
 10
134.382
 20
1032.41
 11
134.045
 21
1032.94
  0
LINE
  8
0
 10
134.045
 20
1032.94
 11
133.645
 21
1033.42
  0
LINE
  8
0
 10
133.645
 20
1033.42
 11
133.187
 21
1033.85
  0
LINE
  8
0
 10
133.187
 20
1033.85
 11
132.679
 21
1034.22
  0
LINE
  8
0
 10
132.679
 20
1034.22
 11
132.129
 21
1034.52
  0
LINE
  8
0
 10
132.129
 20
1034.52
 11
131.545
 21
1034.76
  0
LINE
  8
0
 10
131.545
 20
1034.76
 11
130.937
 21
1034.91
  0
LINE
  8
0
 10
130.937
 20
1034.91
 11
130.314
 21
1034.99
  0
LINE
  8
0
 10
130.314
 20
1034.99
 11
-130.314
 21
1034.99
  0
LINE
  8
0
 10
-130.314
 20
1034.99
 11
-130.937
 21
1034.91
  0
LINE
  8
0
 10
-130.937
 20
1034.91
 11
-131.545
 21
1034.76
  0
LINE
  8
0
 10
-131.545
 20
1034.76
 11
-132.129
 21
1034.52
  0
LINE
  8
0
 10
-132.129
 20
1034.52
 11
-132.679
 21
1034.22
  0
LINE
  8
0
 10
-132.679
 20
1034.22
 11
-133.187
 21
1033.85
  0
LINE
  8
0
 10
-133.187
 20
1033.85
 11
-133.645
 21
1033.42
  0
LINE
  8
0
 10
-133.645
 20
1033.42
 11
-134.045
 21
1032.94
  0
LINE
  8
0
 10
-134.045
 20
1032.94
 11
-134.382
 21
1032.41
  0
LINE
  8
0
 10
-134.382
 20
1032.41
 11
-134.649
 21
1031.84
  0
LINE
  8
0
 10
-134.649
 20
1031.84
 11
-134.843
 21
1031.24
  0
LINE
  8
0
 10
-134.843
 20
1031.24
 11
-134.961
 21
1030.63
  0
LINE
  8
0
 10
-134.961
 20
1030.63
 11
-135
 21
1030
  0
LINE
  8
0
 10
-135
 20
1030
 11
-135
 21
860
  0
LINE
  8
0
 10
-135
 20
860
 11
-134.961
 21
859.373
  0
LINE
  8
0
 10
-134.961
 20
859.373
 11
-134.843
 21
858.757
  0
LINE
  8
0
 10
-134.843
 20
858.757
 11
-134.649
 21
858.159
  0
LINE
  8
0
 10
-134.649
 20
858.159
 11
-134.382
 21
857.591
  0
LINE
  8
0
 10
-134.382
 20
857.591
 11
-134.045
 21
857.061
  0
LINE
  8
0
 10
-134.045
 20
857.061
 11
-133.645
 21
856.577
  0
LINE
  8
0
 10
-133.645
 20
856.577
 11
-133.187
 21
856.147
  0
LINE
  8
0
 10
-133.187
 20
856.147
 11
-132.679
 21
855.778
  0
LINE
  8
0
 10
-132.679
 20
855.778
 11
-132.129
 21
855.476
  0
LINE
  8
0
 10
-132.129
 20
855.476
 11
-131.545
 21
855.245
  0
LINE
  8
0
 10
-131.545
 20
855.245
 11
-130.937
 21
855.089
  0
LINE
  8
0
 10
-130.937
 20
855.089
 11
-130.314
 21
855.01
  0
LINE
  8
0
 10
-130.314
 20
855.01
 11
130.314
 21
855.01
  0
LINE
  8
0
 10
130.314
 20
855.01
 11
130.937
 21
855.089
  0
LINE
  8
0
 10
-129.993
 20
856.388
 11
-130.475
 21
856.449
  0
LINE
  8
0
 10
-130.475
 20
856.449
 11
-130.946
 21
856.57
  0
LINE
  8
0
 10
-130.946
 20
856.57
 11
-131.398
 21
856.749
  0
LINE
  8
0
 10
-131.398
 20
856.749
 11
-131.823
 21
856.983
  0
LINE
  8
0
 10
-131.823
 20
856.983
 11
-132.216
 21
857.269
  0
LINE
  8
0
 10
-132.216
 20
857.269
 11
-132.571
 21
857.601
  0
LINE
  8
0
 10
-132.571
 20
857.601
 11
-132.88
 21
857.976
  0
LINE
  8
0
 10
-132.88
 20
857.976
 11
-133.141
 21
858.386
  0
LINE
  8
0
 10
-133.141
 20
858.386
 11
-133.348
 21
858.826
  0
LINE
  8
0
 10
-133.348
 20
858.826
 11
-133.498
 21
859.288
  0
LINE
  8
0
 10
-133.498
 20
859.288
 11
-133.589
 21
859.765
  0
LINE
  8
0
 10
-133.589
 20
859.765
 11
-133.619
 21
860.25
  0
LINE
  8
0
 10
-133.619
 20
860.25
 11
-133.619
 21
1029.75
  0
LINE
  8
0
 10
-133.619
 20
1029.75
 11
-133.589
 21
1030.23
  0
LINE
  8
0
 10
-133.589
 20
1030.23
 11
-133.498
 21
1030.71
  0
LINE
  8
0
 10
-133.498
 20
1030.71
 11
-133.348
 21
1031.17
  0
LINE
  8
0
 10
-133.348
 20
1031.17
 11
-133.141
 21
1031.61
  0
LINE
  8
0
 10
-133.141
 20
1031.61
 11
-132.88
 21
1032.02
  0
LINE
  8
0
 10
-132.88
 20
1032.02
 11
-132.571
 21
1032.4
  0
LINE
  8
0
 10
-132.571
 20
1032.4
 11
-132.216
 21
1032.73
  0
LINE
  8
0
 10
-132.216
 20
1032.73
 11
-131.823
 21
1033.02
  0
LINE
  8
0
 10
-131.823
 20
1033.02
 11
-131.398
 21
1033.25
  0
LINE
  8
0
 10
-131.398
 20
1033.25
 11
-130.946
 21
1033.43
  0
LINE
  8
0
 10
-130.946
 20
1033.43
 11
-130.475
 21
1033.55
  0
LINE
  8
0
 10
-130.475
 20
1033.55
 11
-129.993
 21
1033.61
  0
LINE
  8
0
 10
-129.993
 20
1033.61
 11
129.993
 21
1033.61
  0
LINE
  8
0
 10
129.993
 20
1033.61
 11
130.475
 21
1033.55
  0
LINE
  8
0
 10
130.475
 20
1033.55
 11
130.946
 21
1033.43
  0
LINE
  8
0
 10
130.946
 20
1033.43
 11
131.398
 21
1033.25
  0
LINE
  8
0
 10
131.398
 20
1033.25
 11
131.823
 21
1033.02
  0
LINE
  8
0
 10
131.823
 20
1033.02
 11
132.216
 21
1032.73
  0
LINE
  8
0
 10
132.216
 20
1032.73
 11
132.571
 21
1032.4
  0
LINE
  8
0
 10
132.571
 20
1032.4
 11
132.88
 21
1032.02
  0
LINE
  8
0
 10
132.88
 20
1032.02
 11
133.141
 21
1031.61
  0
LINE
  8
0
 10
133.141
 20
1031.61
 11
133.348
 21
1031.17
  0
LINE
  8
0
 10
133.348
 20
1031.17
 11
133.498
 21
1030.71
  0
LINE
  8
0
 10
133.498
 20
1030.71
 11
133.589
 21
1030.23
  0
LINE
  8
0
 10
133.589
 20
1030.23
 11
133.619
 21
1029.75
  0
LINE
  8
0
 10
133.619
 20
1029.75
 11
133.619
 21
860.25
  0
LINE
  8
0
 10
133.619
 20
860.25
 11
133.589
 21
859.765
  0
LINE
  8
0
 10
133.589
 20
859.765
 11
133.498
 21
859.288
  0
LINE
  8
0
 10
133.498
 20
859.288
 11
133.348
 21
858.826
  0
LINE
  8
0
 10
133.348
 20
858.826
 11
133.141
 21
858.386
  0
LINE
  8
0
 10
133.141
 20
858.386
 11
132.88
 21
857.976
  0
LINE
  8
0
 10
132.88
 20
857.976
 11
132.571
 21
857.601
  0
LINE
  8
0
 10
132.571
 20
857.601
 11
132.216
 21
857.269
  0
LINE
  8
0
 10
132.216
 20
857.269
 11
131.823
 21
856.983
  0
LINE
  8
0
 10
131.823
 20
856.983
 11
131.398
 21
856.749
  0
LINE
  8
0
 10
131.398
 20
856.749
 11
130.946
 21
856.57
  0
LINE
  8
0
 10
130.946
 20
856.57
 11
130.475
 21
856.449
  0
LINE
  8
0
 10
130.475
 20
856.449
 11
129.993
 21
856.388
  0
LINE
  8
0
 10
129.993
 20
856.388
 11
-129.993
 21
856.388
  0
LINE
  8
0
 10
130.937
 20
666.089
 11
131.545
 21
666.245
  0
LINE
  8
0
 10
131.545
 20
666.245
 11
132.129
 21
666.476
  0
LINE
  8
0
 10
132.129
 20
666.476
 11
132.679
 21
666.778
  0
LINE
  8
0
 10
132.679
 20
666.778
 11
133.187
 21
667.147
  0
LINE
  8
0
 10
133.187
 20
667.147
 11
133.645
 21
667.577
  0
LINE
  8
0
 10
133.645
 20
667.577
 11
134.045
 21
668.061
  0
LINE
  8
0
 10
134.045
 20
668.061
 11
134.382
 21
668.591
  0
LINE
  8
0
 10
134.382
 20
668.591
 11
134.649
 21
669.159
  0
LINE
  8
0
 10
134.649
 20
669.159
 11
134.843
 21
669.757
  0
LINE
  8
0
 10
134.843
 20
669.757
 11
134.961
 21
670.373
  0
LINE
  8
0
 10
134.961
 20
670.373
 11
135
 21
671
  0
LINE
  8
0
 10
135
 20
671
 11
135
 21
841
  0
LINE
  8
0
 10
135
 20
841
 11
134.961
 21
841.627
  0
LINE
  8
0
 10
134.961
 20
841.627
 11
134.843
 21
842.243
  0
LINE
  8
0
 10
134.843
 20
842.243
 11
134.649
 21
842.841
  0
LINE
  8
0
 10
134.649
 20
842.841
 11
134.382
 21
843.409
  0
LINE
  8
0
 10
134.382
 20
843.409
 11
134.045
 21
843.939
  0
LINE
  8
0
 10
134.045
 20
843.939
 11
133.645
 21
844.423
  0
LINE
  8
0
 10
133.645
 20
844.423
 11
133.187
 21
844.853
  0
LINE
  8
0
 10
133.187
 20
844.853
 11
132.679
 21
845.222
  0
LINE
  8
0
 10
132.679
 20
845.222
 11
132.129
 21
845.524
  0
LINE
  8
0
 10
132.129
 20
845.524
 11
131.545
 21
845.755
  0
LINE
  8
0
 10
131.545
 20
845.755
 11
130.937
 21
845.911
  0
LINE
  8
0
 10
130.937
 20
845.911
 11
130.314
 21
845.99
  0
LINE
  8
0
 10
130.314
 20
845.99
 11
-130.314
 21
845.99
  0
LINE
  8
0
 10
-130.314
 20
845.99
 11
-130.937
 21
845.911
  0
LINE
  8
0
 10
-130.937
 20
845.911
 11
-131.545
 21
845.755
  0
LINE
  8
0
 10
-131.545
 20
845.755
 11
-132.129
 21
845.524
  0
LINE
  8
0
 10
-132.129
 20
845.524
 11
-132.679
 21
845.222
  0
LINE
  8
0
 10
-132.679
 20
845.222
 11
-133.187
 21
844.853
  0
LINE
  8
0
 10
-133.187
 20
844.853
 11
-133.645
 21
844.423
  0
LINE
  8
0
 10
-133.645
 20
844.423
 11
-134.045
 21
843.939
  0
LINE
  8
0
 10
-134.045
 20
843.939
 11
-134.382
 21
843.409
  0
LINE
  8
0
 10
-134.382
 20
843.409
 11
-134.649
 21
842.841
  0
LINE
  8
0
 10
-134.649
 20
842.841
 11
-134.843
 21
842.243
  0
LINE
  8
0
 10
-134.843
 20
842.243
 11
-134.961
 21
841.627
  0
LINE
  8
0
 10
-134.961
 20
841.627
 11
-135
 21
841
  0
LINE
  8
0
 10
-135
 20
841
 11
-135
 21
671
  0
LINE
  8
0
 10
-135
 20
671
 11
-134.961
 21
670.373
  0
LINE
  8
0
 10
-134.961
 20
670.373
 11
-134.843
 21
669.757
  0
LINE
  8
0
 10
-134.843
 20
669.757
 11
-134.649
 21
669.159
  0
LINE
  8
0
 10
-134.649
 20
669.159
 11
-134.382
 21
668.591
  0
LINE
  8
0
 10
-134.382
 20
668.591
 11
-134.045
 21
668.061
  0
LINE
  8
0
 10
-134.045
 20
668.061
 11
-133.645
 21
667.577
  0
LINE
  8
0
 10
-133.645
 20
667.577
 11
-133.187
 21
667.147
  0
LINE
  8
0
 10
-133.187
 20
667.147
 11
-132.679
 21
666.778
  0
LINE
  8
0
 10
-132.679
 20
666.778
 11
-132.129
 21
666.476
  0
LINE
  8
0
 10
-132.129
 20
666.476
 11
-131.545
 21
666.245
  0
LINE
  8
0
 10
-131.545
 20
666.245
 11
-130.937
 21
666.089
  0
LINE
  8
0
 10
-130.937
 20
666.089
 11
-130.314
 21
666.01
  0
LINE
  8
0
 10
-130.314
 20
666.01
 11
130.314
 21
666.01
  0
LINE
  8
0
 10
130.314
 20
666.01
 11
130.937
 21
666.089
  0
LINE
  8
0
 10
-127.613
 20
836.704
 11
-127.837
 21
836.732
  0
LINE
  8
0
 10
-127.837
 20
836.732
 11
-128.056
 21
836.788
  0
LINE
  8
0
 10
-128.056
 20
836.788
 11
-128.266
 21
836.871
  0
LINE
  8
0
 10
-128.266
 20
836.871
 11
-128.464
 21
836.98
  0
LINE
  8
0
 10
-128.464
 20
836.98
 11
-128.647
 21
837.113
  0
LINE
  8
0
 10
-128.647
 20
837.113
 11
-128.812
 21
837.268
  0
LINE
  8
0
 10
-128.812
 20
837.268
 11
-128.956
 21
837.442
  0
LINE
  8
0
 10
-128.956
 20
837.442
 11
-129.077
 21
837.633
  0
LINE
  8
0
 10
-129.077
 20
837.633
 11
-129.174
 21
837.837
  0
LINE
  8
0
 10
-129.174
 20
837.837
 11
-129.243
 21
838.052
  0
LINE
  8
0
 10
-129.243
 20
838.052
 11
-129.286
 21
838.274
  0
LINE
  8
0
 10
-129.286
 20
838.274
 11
-129.3
 21
838.5
  0
LINE
  8
0
 10
-129.3
 20
838.5
 11
-129.286
 21
838.726
  0
LINE
  8
0
 10
-129.286
 20
838.726
 11
-129.243
 21
838.948
  0
LINE
  8
0
 10
-129.243
 20
838.948
 11
-129.174
 21
839.163
  0
LINE
  8
0
 10
-129.174
 20
839.163
 11
-129.077
 21
839.367
  0
LINE
  8
0
 10
-129.077
 20
839.367
 11
-128.956
 21
839.558
  0
LINE
  8
0
 10
-128.956
 20
839.558
 11
-128.812
 21
839.732
  0
LINE
  8
0
 10
-128.812
 20
839.732
 11
-128.647
 21
839.887
  0
LINE
  8
0
 10
-128.647
 20
839.887
 11
-128.464
 21
840.02
  0
LINE
  8
0
 10
-128.464
 20
840.02
 11
-128.266
 21
840.129
  0
LINE
  8
0
 10
-128.266
 20
840.129
 11
-128.056
 21
840.212
  0
LINE
  8
0
 10
-128.056
 20
840.212
 11
-127.837
 21
840.268
  0
LINE
  8
0
 10
-127.837
 20
840.268
 11
-127.613
 21
840.296
  0
LINE
  8
0
 10
-127.613
 20
840.296
 11
-127.387
 21
840.296
  0
LINE
  8
0
 10
-127.387
 20
840.296
 11
-127.163
 21
840.268
  0
LINE
  8
0
 10
-127.163
 20
840.268
 11
-126.944
 21
840.212
  0
LINE
  8
0
 10
-126.944
 20
840.212
 11
-126.734
 21
840.129
  0
LINE
  8
0
 10
-126.734
 20
840.129
 11
-126.536
 21
840.02
  0
LINE
  8
0
 10
-126.536
 20
840.02
 11
-126.353
 21
839.887
  0
LINE
  8
0
 10
-126.353
 20
839.887
 11
-126.188
 21
839.732
  0
LINE
  8
0
 10
-126.188
 20
839.732
 11
-126.044
 21
839.558
  0
LINE
  8
0
 10
-126.044
 20
839.558
 11
-125.923
 21
839.367
  0
LINE
  8
0
 10
-125.923
 20
839.367
 11
-125.826
 21
839.163
  0
LINE
  8
0
 10
-125.826
 20
839.163
 11
-125.757
 21
838.948
  0
LINE
  8
0
 10
-125.757
 20
838.948
 11
-125.714
 21
838.726
  0
LINE
  8
0
 10
-125.714
 20
838.726
 11
-125.7
 21
838.5
  0
LINE
  8
0
 10
-125.7
 20
838.5
 11
-125.714
 21
838.274
  0
LINE
  8
0
 10
-125.714
 20
838.274
 11
-125.757
 21
838.052
  0
LINE
  8
0
 10
-125.757
 20
838.052
 11
-125.826
 21
837.837
  0
LINE
  8
0
 10
-125.826
 20
837.837
 11
-125.923
 21
837.633
  0
LINE
  8
0
 10
-125.923
 20
837.633
 11
-126.044
 21
837.442
  0
LINE
  8
0
 10
-126.044
 20
837.442
 11
-126.188
 21
837.268
  0
LINE
  8
0
 10
-126.188
 20
837.268
 11
-126.353
 21
837.113
  0
LINE
  8
0
 10
-126.353
 20
837.113
 11
-126.536
 21
836.98
  0
LINE
  8
0
 10
-126.536
 20
836.98
 11
-126.734
 21
836.871
  0
LINE
  8
0
 10
-126.734
 20
836.871
 11
-126.944
 21
836.788
  0
LINE
  8
0
 10
-126.944
 20
836.788
 11
-127.163
 21
836.732
  0
LINE
  8
0
 10
-127.163
 20
836.732
 11
-127.387
 21
836.704
  0
LINE
  8
0
 10
-127.387
 20
836.704
 11
-127.613
 21
836.704
  0
LINE
  8
0
 10
127.387
 20
836.704
 11
127.163
 21
836.732
  0
LINE
  8
0
 10
127.163
 20
836.732
 11
126.944
 21
836.788
  0
LINE
  8
0
 10
126.944
 20
836.788
 11
126.734
 21
836.871
  0
LINE
  8
0
 10
126.734
 20
836.871
 11
126.536
 21
836.98
  0
LINE
  8
0
 10
126.536
 20
836.98
 11
126.353
 21
837.113
  0
LINE
  8
0
 10
126.353
 20
837.113
 11
126.188
 21
837.268
  0
LINE
  8
0
 10
126.188
 20
837.268
 11
126.044
 21
837.442
  0
LINE
  8
0
 10
126.044
 20
837.442
 11
125.923
 21
837.633
  0
LINE
  8
0
 10
125.923
 20
837.633
 11
125.826
 21
837.837
  0
LINE
  8
0
 10
125.826
 20
837.837
 11
125.757
 21
838.052
  0
LINE
  8
0
 10
125.757
 20
838.052
 11
125.714
 21
838.274
  0
LINE
  8
0
 10
125.714
 20
838.274
 11
125.7
 21
838.5
  0
LINE
  8
0
 10
125.7
 20
838.5
 11
125.714
 21
838.726
  0
LINE
  8
0
 10
125.714
 20
838.726
 11
125.757
 21
838.948
  0
LINE
  8
0
 10
125.757
 20
838.948
 11
125.826
 21
839.163
  0
LINE
  8
0
 10
125.826
 20
839.163
 11
125.923
 21
839.367
  0
LINE
  8
0
 10
125.923
 20
839.367
 11
126.044
 21
839.558
  0
LINE
  8
0
 10
126.044
 20
839.558
 11
126.188
 21
839.732
  0
LINE
  8
0
 10
126.188
 20
839.732
 11
126.353
 21
839.887
  0
LINE
  8
0
 10
126.353
 20
839.887
 11
126.536
 21
840.02
  0
LINE
  8
0
 10
126.536
 20
840.02
 11
126.734
 21
840.129
  0
LINE
  8
0
 10
126.734
 20
840.129
 11
126.944
 21
840.212
  0
LINE
  8
0
 10
126.944
 20
840.212
 11
127.163
 21
840.268
  0
LINE
  8
0
 10
127.163
 20
840.268
 11
127.387
 21
840.296
  0
LINE
  8
0
 10
127.387
 20
840.296
 11
127.613
 21
840.296
  0
LINE
  8
0
 10
127.613
 20
840.296
 11
127.837
 21
840.268
  0
LINE
  8
0
 10
127.837
 20
840.268
 11
128.056
 21
840.212
  0
LINE
  8
0
 10
128.056
 20
840.212
 11
128.266
 21
840.129
  0
LINE
  8
0
 10
128.266
 20
840.129
 11
128.464
 21
840.02
  0
LINE
  8
0
 10
128.464
 20
840.02
 11
128.647
 21
839.887
  0
LINE
  8
0
 10
128.647
 20
839.887
 11
128.812
 21
839.732
  0
LINE
  8
0
 10
128.812
 20
839.732
 11
128.956
 21
839.558
  0
LINE
  8
0
 10
128.956
 20
839.558
 11
129.077
 21
839.367
  0
LINE
  8
0
 10
129.077
 20
839.367
 11
129.174
 21
839.163
  0
LINE
  8
0
 10
129.174
 20
839.163
 11
129.243
 21
838.948
  0
LINE
  8
0
 10
129.243
 20
838.948
 11
129.286
 21
838.726
  0
LINE
  8
0
 10
129.286
 20
838.726
 11
129.3
 21
838.5
  0
LINE
  8
0
 10
129.3
 20
838.5
 11
129.286
 21
838.274
  0
LINE
  8
0
 10
129.286
 20
838.274
 11
129.243
 21
838.052
  0
LINE
  8
0
 10
129.243
 20
838.052
 11
129.174
 21
837.837
  0
LINE
  8
0
 10
129.174
 20
837.837
 11
129.077
 21
837.633
  0
LINE
  8
0
 10
129.077
 20
837.633
 11
128.956
 21
837.442
  0
LINE
  8
0
 10
128.956
 20
837.442
 11
128.812
 21
837.268
  0
LINE
  8
0
 10
128.812
 20
837.268
 11
128.647
 21
837.113
  0
LINE
  8
0
 10
128.647
 20
837.113
 11
128.464
 21
836.98
  0
LINE
  8
0
 10
128.464
 20
836.98
 11
128.266
 21
836.871
  0
LINE
  8
0
 10
128.266
 20
836.871
 11
128.056
 21
836.788
  0
LINE
  8
0
 10
128.056
 20
836.788
 11
127.837
 21
836.732
  0
LINE
  8
0
 10
127.837
 20
836.732
 11
127.613
 21
836.704
  0
LINE
  8
0
 10
127.613
 20
836.704
 11
127.387
 21
836.704
  0
LINE
  8
0
 10
-127.613
 20
671.704
 11
-127.837
 21
671.732
  0
LINE
  8
0
 10
-127.837
 20
671.732
 11
-128.056
 21
671.788
  0
LINE
  8
0
 10
-128.056
 20
671.788
 11
-128.266
 21
671.871
  0
LINE
  8
0
 10
-128.266
 20
671.871
 11
-128.464
 21
671.98
  0
LINE
  8
0
 10
-128.464
 20
671.98
 11
-128.647
 21
672.113
  0
LINE
  8
0
 10
-128.647
 20
672.113
 11
-128.812
 21
672.268
  0
LINE
  8
0
 10
-128.812
 20
672.268
 11
-128.956
 21
672.442
  0
LINE
  8
0
 10
-128.956
 20
672.442
 11
-129.077
 21
672.633
  0
LINE
  8
0
 10
-129.077
 20
672.633
 11
-129.174
 21
672.837
  0
LINE
  8
0
 10
-129.174
 20
672.837
 11
-129.243
 21
673.052
  0
LINE
  8
0
 10
-129.243
 20
673.052
 11
-129.286
 21
673.274
  0
LINE
  8
0
 10
-129.286
 20
673.274
 11
-129.3
 21
673.5
  0
LINE
  8
0
 10
-129.3
 20
673.5
 11
-129.286
 21
673.726
  0
LINE
  8
0
 10
-129.286
 20
673.726
 11
-129.243
 21
673.948
  0
LINE
  8
0
 10
-129.243
 20
673.948
 11
-129.174
 21
674.163
  0
LINE
  8
0
 10
-129.174
 20
674.163
 11
-129.077
 21
674.367
  0
LINE
  8
0
 10
-129.077
 20
674.367
 11
-128.956
 21
674.558
  0
LINE
  8
0
 10
-128.956
 20
674.558
 11
-128.812
 21
674.732
  0
LINE
  8
0
 10
-128.812
 20
674.732
 11
-128.647
 21
674.887
  0
LINE
  8
0
 10
-128.647
 20
674.887
 11
-128.464
 21
675.02
  0
LINE
  8
0
 10
-128.464
 20
675.02
 11
-128.266
 21
675.129
  0
LINE
  8
0
 10
-128.266
 20
675.129
 11
-128.056
 21
675.212
  0
LINE
  8
0
 10
-128.056
 20
675.212
 11
-127.837
 21
675.268
  0
LINE
  8
0
 10
-127.837
 20
675.268
 11
-127.613
 21
675.296
  0
LINE
  8
0
 10
-127.613
 20
675.296
 11
-127.387
 21
675.296
  0
LINE
  8
0
 10
-127.387
 20
675.296
 11
-127.163
 21
675.268
  0
LINE
  8
0
 10
-127.163
 20
675.268
 11
-126.944
 21
675.212
  0
LINE
  8
0
 10
-126.944
 20
675.212
 11
-126.734
 21
675.129
  0
LINE
  8
0
 10
-126.734
 20
675.129
 11
-126.536
 21
675.02
  0
LINE
  8
0
 10
-126.536
 20
675.02
 11
-126.353
 21
674.887
  0
LINE
  8
0
 10
-126.353
 20
674.887
 11
-126.188
 21
674.732
  0
LINE
  8
0
 10
-126.188
 20
674.732
 11
-126.044
 21
674.558
  0
LINE
  8
0
 10
-126.044
 20
674.558
 11
-125.923
 21
674.367
  0
LINE
  8
0
 10
-125.923
 20
674.367
 11
-125.826
 21
674.163
  0
LINE
  8
0
 10
-125.826
 20
674.163
 11
-125.757
 21
673.948
  0
LINE
  8
0
 10
-125.757
 20
673.948
 11
-125.714
 21
673.726
  0
LINE
  8
0
 10
-125.714
 20
673.726
 11
-125.7
 21
673.5
  0
LINE
  8
0
 10
-125.7
 20
673.5
 11
-125.714
 21
673.274
  0
LINE
  8
0
 10
-125.714
 20
673.274
 11
-125.757
 21
673.052
  0
LINE
  8
0
 10
-125.757
 20
673.052
 11
-125.826
 21
672.837
  0
LINE
  8
0
 10
-125.826
 20
672.837
 11
-125.923
 21
672.633
  0
LINE
  8
0
 10
-125.923
 20
672.633
 11
-126.044
 21
672.442
  0
LINE
  8
0
 10
-126.044
 20
672.442
 11
-126.188
 21
672.268
  0
LINE
  8
0
 10
-126.188
 20
672.268
 11
-126.353
 21
672.113
  0
LINE
  8
0
 10
-126.353
 20
672.113
 11
-126.536
 21
671.98
  0
LINE
  8
0
 10
-126.536
 20
671.98
 11
-126.734
 21
671.871
  0
LINE
  8
0
 10
-126.734
 20
671.871
 11
-126.944
 21
671.788
  0
LINE
  8
0
 10
-126.944
 20
671.788
 11
-127.163
 21
671.732
  0
LINE
  8
0
 10
-127.163
 20
671.732
 11
-127.387
 21
671.704
  0
LINE
  8
0
 10
-127.387
 20
671.704
 11
-127.613
 21
671.704
  0
LINE
  8
0
 10
127.387
 20
671.704
 11
127.163
 21
671.732
  0
LINE
  8
0
 10
127.163
 20
671.732
 11
126.944
 21
671.788
  0
LINE
  8
0
 10
126.944
 20
671.788
 11
126.734
 21
671.871
  0
LINE
  8
0
 10
126.734
 20
671.871
 11
126.536
 21
671.98
  0
LINE
  8
0
 10
126.536
 20
671.98
 11
126.353
 21
672.113
  0
LINE
  8
0
 10
126.353
 20
672.113
 11
126.188
 21
672.268
  0
LINE
  8
0
 10
126.188
 20
672.268
 11
126.044
 21
672.442
  0
LINE
  8
0
 10
126.044
 20
672.442
 11
125.923
 21
672.633
  0
LINE
  8
0
 10
125.923
 20
672.633
 11
125.826
 21
672.837
  0
LINE
  8
0
 10
125.826
 20
672.837
 11
125.757
 21
673.052
  0
LINE
  8
0
 10
125.757
 20
673.052
 11
125.714
 21
673.274
  0
LINE
  8
0
 10
125.714
 20
673.274
 11
125.7
 21
673.5
  0
LINE
  8
0
 10
125.7
 20
673.5
 11
125.714
 21
673.726
  0
LINE
  8
0
 10
125.714
 20
673.726
 11
125.757
 21
673.948
  0
LINE
  8
0
 10
125.757
 20
673.948
 11
125.826
 21
674.163
  0
LINE
  8
0
 10
125.826
 20
674.163
 11
125.923
 21
674.367
  0
LINE
  8
0
 10
125.923
 20
674.367
 11
126.044
 21
674.558
  0
LINE
  8
0
 10
126.044
 20
674.558
 11
126.188
 21
674.732
  0
LINE
  8
0
 10
126.188
 20
674.732
 11
126.353
 21
674.887
  0
LINE
  8
0
 10
126.353
 20
674.887
 11
126.536
 21
675.02
  0
LINE
  8
0
 10
126.536
 20
675.02
 11
126.734
 21
675.129
  0
LINE
  8
0
 10
126.734
 20
675.129
 11
126.944
 21
675.212
  0
LINE
  8
0
 10
126.944
 20
675.212
 11
127.163
 21
675.268
  0
LINE
  8
0
 10
127.163
 20
675.268
 11
127.387
 21
675.296
  0
LINE
  8
0
 10
127.387
 20
675.296
 11
127.613
 21
675.296
  0
LINE
  8
0
 10
127.613
 20
675.296
 11
127.837
 21
675.268
  0
LINE
  8
0
 10
127.837
 20
675.268
 11
128.056
 21
675.212
  0
LINE
  8
0
 10
128.056
 20
675.212
 11
128.266
 21
675.129
  0
LINE
  8
0
 10
128.266
 20
675.129
 11
128.464
 21
675.02
  0
LINE
  8
0
 10
128.464
 20
675.02
 11
128.647
 21
674.887
  0
LINE
  8
0
 10
128.647
 20
674.887
 11
128.812
 21
674.732
  0
LINE
  8
0
 10
128.812
 20
674.732
 11
128.956
 21
674.558
  0
LINE
  8
0
 10
128.956
 20
674.558
 11
129.077
 21
674.367
  0
LINE
  8
0
 10
129.077
 20
674.367
 11
129.174
 21
674.163
  0
LINE
  8
0
 10
129.174
 20
674.163
 11
129.243
 21
673.948
  0
LINE
  8
0
 10
129.243
 20
673.948
 11
129.286
 21
673.726
  0
LINE
  8
0
 10
129.286
 20
673.726
 11
129.3
 21
673.5
  0
LINE
  8
0
 10
129.3
 20
673.5
 11
129.286
 21
673.274
  0
LINE
  8
0
 10
129.286
 20
673.274
 11
129.243
 21
673.052
  0
LINE
  8
0
 10
129.243
 20
673.052
 11
129.174
 21
672.837
  0
LINE
  8
0
 10
129.174
 20
672.837
 11
129.077
 21
672.633
  0
LINE
  8
0
 10
129.077
 20
672.633
 11
128.956
 21
672.442
  0
LINE
  8
0
 10
128.956
 20
672.442
 11
128.812
 21
672.268
  0
LINE
  8
0
 10
128.812
 20
672.268
 11
128.647
 21
672.113
  0
LINE
  8
0
 10
128.647
 20
672.113
 11
128.464
 21
671.98
  0
LINE
  8
0
 10
128.464
 20
671.98
 11
128.266
 21
671.871
  0
LINE
  8
0
 10
128.266
 20
671.871
 11
128.056
 21
671.788
  0
LINE
  8
0
 10
128.056
 20
671.788
 11
127.837
 21
671.732
  0
LINE
  8
0
 10
127.837
 20
671.732
 11
127.613
 21
671.704
  0
LINE
  8
0
 10
127.613
 20
671.704
 11
127.387
 21
671.704
  0
ENDSEC
  0
SECTION
  2
OBJECTS
  0
DICTIONARY
  0
ENDSEC
  0
EOF
