<?xml version="1.0" standalone="no"?>
<!DOCTYPE svg PUBLIC "-//W3C//DTD SVG 1.1//EN" "http://www.w3.org/Graphics/SVG/1.1/DTD/svg11.dtd">
<svg width="240mm" height="328mm" viewBox="-120 -542 240 328" xmlns="http://www.w3.org/2000/svg" version="1.1">
<title>OpenSCAD Model</title>
<path d="
M 115.937,-466.589 L 116.545,-466.745 L 117.129,-466.976 L 117.679,-467.278 L 118.187,-467.647 L 118.645,-468.077
 L 119.045,-468.561 L 119.382,-469.091 L 119.649,-469.659 L 119.843,-470.257 L 119.961,-470.873 L 120,-471.5
 L 120,-536.5 L 119.961,-537.127 L 119.843,-537.743 L 119.649,-538.341 L 119.382,-538.909 L 119.045,-539.439
 L 118.645,-539.923 L 118.187,-540.353 L 117.679,-540.722 L 117.129,-541.024 L 116.545,-541.255 L 115.937,-541.411
 L 115.314,-541.49 L -115.314,-541.49 L -115.937,-541.411 L -116.545,-541.255 L -117.129,-541.024 L -117.679,-540.722
 L -118.187,-540.353 L -118.645,-539.923 L -119.045,-539.439 L -119.382,-538.909 L -119.649,-538.341 L -119.843,-537.743
 L -119.961,-537.127 L -120,-536.5 L -120,-471.5 L -119.961,-470.873 L -119.843,-470.257 L -119.649,-469.659
 L -119.382,-469.091 L -119.045,-468.561 L -118.645,-468.077 L -118.187,-467.647 L -117.679,-467.278 L -117.129,-466.976
 L -116.545,-466.745 L -115.937,-466.589 L -115.314,-466.51 L 115.314,-466.51 z
M -115.048,-467.009 L -115.64,-467.084 L -116.218,-467.232 L -116.772,-467.452 L -117.295,-467.739 L -117.778,-468.09
 L -118.213,-468.498 L -118.593,-468.958 L -118.912,-469.462 L -119.166,-470.001 L -119.351,-470.569 L -119.463,-471.155
 L -119.5,-471.75 L -119.5,-536.25 L -119.463,-536.845 L -119.351,-537.431 L -119.166,-537.999 L -118.912,-538.538
 L -118.593,-539.042 L -118.213,-539.502 L -117.778,-539.91 L -117.295,-540.261 L -116.772,-540.548 L -116.218,-540.768
 L -115.64,-540.916 L -115.048,-540.991 L 115.048,-540.991 L 115.64,-540.916 L 116.218,-540.768 L 116.772,-540.548
 L 117.295,-540.261 L 117.778,-539.91 L 118.213,-539.502 L 118.593,-539.042 L 118.912,-538.538 L 119.166,-537.999
 L 119.351,-537.431 L 119.463,-536.845 L 119.5,-536.25 L 119.5,-471.75 L 119.463,-471.155 L 119.351,-470.569
 L 119.166,-470.001 L 118.912,-469.462 L 118.593,-468.958 L 118.213,-468.498 L 117.778,-468.09 L 117.295,-467.739
 L 116.772,-467.452 L 116.218,-467.232 L 115.64,-467.084 L 115.048,-467.009 z
M 115.937,-382.589 L 116.545,-382.745 L 117.129,-382.976 L 117.679,-383.278 L 118.187,-383.647 L 118.645,-384.077
 L 119.045,-384.561 L 119.382,-385.091 L 119.649,-385.659 L 119.843,-386.257 L 119.961,-386.873 L 120,-387.5
 L 120,-452.5 L 119.961,-453.127 L 119.843,-453.743 L 119.649,-454.341 L 119.382,-454.909 L 119.045,-455.439
 L 118.645,-455.923 L 118.187,-456.353 L 117.679,-456.722 L 117.129,-457.024 L 116.545,-457.255 L 115.937,-457.411
 L 115.314,-457.49 L -115.314,-457.49 L -115.937,-457.411 L -116.545,-457.255 L -117.129,-457.024 L -117.679,-456.722
 L -118.187,-456.353 L -118.645,-455.923 L -119.045,-455.439 L -119.382,-454.909 L -119.649,-454.341 L -119.843,-453.743
 L -119.961,-453.127 L -120,-452.5 L -120,-387.5 L -119.961,-386.873 L -119.843,-386.257 L -119.649,-385.659
 L -119.382,-385.091 L -119.045,-384.561 L -118.645,-384.077 L -118.187,-383.647 L -117.679,-383.278 L -117.129,-382.976
 L -116.545,-382.745 L -115.937,-382.589 L -115.314,-382.51 L 115.314,-382.51 z
M -115.048,-383.009 L -115.64,-383.084 L -116.218,-383.232 L -116.772,-383.452 L -117.295,-383.739 L -117.778,-384.09
 L -118.213,-384.498 L -118.593,-384.958 L -118.912,-385.462 L -119.166,-386.001 L -119.351,-386.569 L -119.463,-387.155
 L -119.5,-387.75 L -119.5,-452.25 L -119.463,-452.845 L -119.351,-453.431 L -119.166,-453.999 L -118.912,-454.538
 L -118.593,-455.042 L -118.213,-455.502 L -117.778,-455.91 L -117.295,-456.261 L -116.772,-456.548 L -116.218,-456.768
 L -115.64,-456.916 L -115.048,-456.991 L 115.048,-456.991 L 115.64,-456.916 L 116.218,-456.768 L 116.772,-456.548
 L 117.295,-456.261 L 117.778,-455.91 L 118.213,-455.502 L 118.593,-455.042 L 118.912,-454.538 L 119.166,-453.999
 L 119.351,-453.431 L 119.463,-452.845 L 119.5,-452.25 L 119.5,-387.75 L 119.463,-387.155 L 119.351,-386.569
 L 119.166,-386.001 L 118.912,-385.462 L 118.593,-384.958 L 118.213,-384.498 L 117.778,-384.09 L 117.295,-383.739
 L 116.772,-383.452 L 116.218,-383.232 L 115.64,-383.084 L 115.048,-383.009 z
M 115.937,-298.589 L 116.545,-298.745 L 117.129,-298.976 L 117.679,-299.278 L 118.187,-299.647 L 118.645,-300.077
 L 119.045,-300.561 L 119.382,-301.091 L 119.649,-301.659 L 119.843,-302.257 L 119.961,-302.873 L 120,-303.5
 L 120,-368.5 L 119.961,-369.127 L 119.843,-369.743 L 119.649,-370.341 L 119.382,-370.909 L 119.045,-371.439
 L 118.645,-371.923 L 118.187,-372.353 L 117.679,-372.722 L 117.129,-373.024 L 116.545,-373.255 L 115.937,-373.411
 L 115.314,-373.49 L -115.314,-373.49 L -115.937,-373.411 L -116.545,-373.255 L -117.129,-373.024 L -117.679,-372.722
 L -118.187,-372.353 L -118.645,-371.923 L -119.045,-371.439 L -119.382,-370.909 L -119.649,-370.341 L -119.843,-369.743
 L -119.961,-369.127 L -120,-368.5 L -120,-303.5 L -119.961,-302.873 L -119.843,-302.257 L -119.649,-301.659
 L -119.382,-301.091 L -119.045,-300.561 L -118.645,-300.077 L -118.187,-299.647 L -117.679,-299.278 L -117.129,-298.976
 L -116.545,-298.745 L -115.937,-298.589 L -115.314,-298.51 L 115.314,-298.51 z
M -114.993,-299.888 L -115.475,-299.949 L -115.946,-300.07 L -116.398,-300.249 L -116.823,-300.483 L -117.216,-300.769
 L -117.571,-301.101 L -117.88,-301.476 L -118.141,-301.886 L -118.348,-302.326 L -118.498,-302.788 L -118.589,-303.265
 L -118.619,-303.75 L -118.619,-368.25 L -118.589,-368.735 L -118.498,-369.212 L -118.348,-369.674 L -118.141,-370.114
 L -117.88,-370.524 L -117.571,-370.899 L -117.216,-371.231 L -116.823,-371.517 L -116.398,-371.751 L -115.946,-371.93
 L -115.475,-372.051 L -114.993,-372.112 L 114.993,-372.112 L 115.475,-372.051 L 115.946,-371.93 L 116.398,-371.751
 L 116.823,-371.517 L 117.216,-371.231 L 117.571,-370.899 L 117.88,-370.524 L 118.141,-370.114 L 118.348,-369.674
 L 118.498,-369.212 L 118.589,-368.735 L 118.619,-368.25 L 118.619,-303.75 L 118.589,-303.265 L 118.498,-302.788
 L 118.348,-302.326 L 118.141,-301.886 L 117.88,-301.476 L 117.571,-301.101 L 117.216,-300.769 L 116.823,-300.483
 L 116.398,-300.249 L 115.946,-300.07 L 115.475,-299.949 L 114.993,-299.888 z
M 115.937,-214.589 L 116.545,-214.745 L 117.129,-214.976 L 117.679,-215.278 L 118.187,-215.647 L 118.645,-216.077
 L 119.045,-216.561 L 119.382,-217.091 L 119.649,-217.659 L 119.843,-218.257 L 119.961,-218.873 L 120,-219.5
 L 120,-284.5 L 119.961,-285.127 L 119.843,-285.743 L 119.649,-286.341 L 119.382,-286.909 L 119.045,-287.439
 L 118.645,-287.923 L 118.187,-288.353 L 117.679,-288.722 L 117.129,-289.024 L 116.545,-289.255 L 115.937,-289.411
 L 115.314,-289.49 L -115.314,-289.49 L -115.937,-289.411 L -116.545,-289.255 L -117.129,-289.024 L -117.679,-288.722
 L -118.187,-288.353 L -118.645,-287.923 L -119.045,-287.439 L -119.382,-286.909 L -119.649,-286.341 L -119.843,-285.743
 L -119.961,-285.127 L -120,-284.5 L -120,-219.5 L -119.961,-218.873 L -119.843,-218.257 L -119.649,-217.659
 L -119.382,-217.091 L -119.045,-216.561 L -118.645,-216.077 L -118.187,-215.647 L -117.679,-215.278 L -117.129,-214.976
 L -116.545,-214.745 L -115.937,-214.589 L -115.314,-214.51 L 115.314,-214.51 z
M -112.613,-280.204 L -112.837,-280.232 L -113.056,-280.288 L -113.266,-280.371 L -113.464,-280.48 L -113.647,-280.613
 L -113.812,-280.768 L -113.956,-280.942 L -114.077,-281.133 L -114.174,-281.337 L -114.243,-281.552 L -114.286,-281.774
 L -114.3,-282 L -114.286,-282.226 L -114.243,-282.448 L -114.174,-282.663 L -114.077,-282.867 L -113.956,-283.058
 L -113.812,-283.232 L -113.647,-283.387 L -113.464,-283.52 L -113.266,-283.629 L -113.056,-283.712 L -112.837,-283.768
 L -112.613,-283.796 L -112.387,-283.796 L -112.163,-283.768 L -111.944,-283.712 L -111.734,-283.629 L -111.536,-283.52
 L -111.353,-283.387 L -111.188,-283.232 L -111.044,-283.058 L -110.923,-282.867 L -110.826,-282.663 L -110.757,-282.448
 L -110.714,-282.226 L -110.7,-282 L -110.714,-281.774 L -110.757,-281.552 L -110.826,-281.337 L -110.923,-281.133
 L -111.044,-280.942 L -111.188,-280.768 L -111.353,-280.613 L -111.536,-280.48 L -111.734,-280.371 L -111.944,-280.288
 L -112.163,-280.232 L -112.387,-280.204 z
M 112.387,-280.204 L 112.163,-280.232 L 111.944,-280.288 L 111.734,-280.371 L 111.536,-280.48 L 111.353,-280.613
 L 111.188,-280.768 L 111.044,-280.942 L 110.923,-281.133 L 110.826,-281.337 L 110.757,-281.552 L 110.714,-281.774
 L 110.7,-282 L 110.714,-282.226 L 110.757,-282.448 L 110.826,-282.663 L 110.923,-282.867 L 111.044,-283.058
 L 111.188,-283.232 L 111.353,-283.387 L 111.536,-283.52 L 111.734,-283.629 L 111.944,-283.712 L 112.163,-283.768
 L 112.387,-283.796 L 112.613,-283.796 L 112.837,-283.768 L 113.056,-283.712 L 113.266,-283.629 L 113.464,-283.52
 L 113.647,-283.387 L 113.812,-283.232 L 113.956,-283.058 L 114.077,-282.867 L 114.174,-282.663 L 114.243,-282.448
 L 114.286,-282.226 L 114.3,-282 L 114.286,-281.774 L 114.243,-281.552 L 114.174,-281.337 L 114.077,-281.133
 L 113.956,-280.942 L 113.812,-280.768 L 113.647,-280.613 L 113.464,-280.48 L 113.266,-280.371 L 113.056,-280.288
 L 112.837,-280.232 L 112.613,-280.204 z
M 112.387,-220.204 L 112.163,-220.232 L 111.944,-220.288 L 111.734,-220.371 L 111.536,-220.48 L 111.353,-220.613
 L 111.188,-220.768 L 111.044,-220.942 L 110.923,-221.133 L 110.826,-221.337 L 110.757,-221.552 L 110.714,-221.774
 L 110.7,-222 L 110.714,-222.226 L 110.757,-222.448 L 110.826,-222.663 L 110.923,-222.867 L 111.044,-223.058
 L 111.188,-223.232 L 111.353,-223.387 L 111.536,-223.52 L 111.734,-223.629 L 111.944,-223.712 L 112.163,-223.768
 L 112.387,-223.796 L 112.613,-223.796 L 112.837,-223.768 L 113.056,-223.712 L 113.266,-223.629 L 113.464,-223.52
 L 113.647,-223.387 L 113.812,-223.232 L 113.956,-223.058 L 114.077,-222.867 L 114.174,-222.663 L 114.243,-222.448
 L 114.286,-222.226 L 114.3,-222 L 114.286,-221.774 L 114.243,-221.552 L 114.174,-221.337 L 114.077,-221.133
 L 113.956,-220.942 L 113.812,-220.768 L 113.647,-220.613 L 113.464,-220.48 L 113.266,-220.371 L 113.056,-220.288
 L 112.837,-220.232 L 112.613,-220.204 z
M -112.613,-220.204 L -112.837,-220.232 L -113.056,-220.288 L -113.266,-220.371 L -113.464,-220.48 L -113.647,-220.613
 L -113.812,-220.768 L -113.956,-220.942 L -114.077,-221.133 L -114.174,-221.337 L -114.243,-221.552 L -114.286,-221.774
 L -114.3,-222 L -114.286,-222.226 L -114.243,-222.448 L -114.174,-222.663 L -114.077,-222.867 L -113.956,-223.058
 L -113.812,-223.232 L -113.647,-223.387 L -113.464,-223.52 L -113.266,-223.629 L -113.056,-223.712 L -112.837,-223.768
 L -112.613,-223.796 L -112.387,-223.796 L -112.163,-223.768 L -111.944,-223.712 L -111.734,-223.629 L -111.536,-223.52
 L -111.353,-223.387 L -111.188,-223.232 L -111.044,-223.058 L -110.923,-222.867 L -110.826,-222.663 L -110.757,-222.448
 L -110.714,-222.226 L -110.7,-222 L -110.714,-221.774 L -110.757,-221.552 L -110.826,-221.337 L -110.923,-221.133
 L -111.044,-220.942 L -111.188,-220.768 L -111.353,-220.613 L -111.536,-220.48 L -111.734,-220.371 L -111.944,-220.288
 L -112.163,-220.232 L -112.387,-220.204 z
" stroke="black" fill="lightgray" stroke-width="0.5"/>
</svg>
