  0
SECTION
  2
BLOCKS
  0
ENDSEC
  0
SECTION
  2
ENTITIES
  0
LINE
  8
0
 10
115.937
 20
220.589
 11
116.545
 21
220.745
  0
LINE
  8
0
 10
116.545
 20
220.745
 11
117.129
 21
220.976
  0
LINE
  8
0
 10
117.129
 20
220.976
 11
117.679
 21
221.278
  0
LINE
  8
0
 10
117.679
 20
221.278
 11
118.187
 21
221.647
  0
LINE
  8
0
 10
118.187
 20
221.647
 11
118.645
 21
222.077
  0
LINE
  8
0
 10
118.645
 20
222.077
 11
119.045
 21
222.561
  0
LINE
  8
0
 10
119.045
 20
222.561
 11
119.382
 21
223.091
  0
LINE
  8
0
 10
119.382
 20
223.091
 11
119.649
 21
223.659
  0
LINE
  8
0
 10
119.649
 20
223.659
 11
119.843
 21
224.257
  0
LINE
  8
0
 10
119.843
 20
224.257
 11
119.961
 21
224.873
  0
LINE
  8
0
 10
119.961
 20
224.873
 11
120
 21
225.5
  0
LINE
  8
0
 10
120
 20
225.5
 11
120
 21
350.5
  0
LINE
  8
0
 10
120
 20
350.5
 11
119.961
 21
351.127
  0
LINE
  8
0
 10
119.961
 20
351.127
 11
119.843
 21
351.743
  0
LINE
  8
0
 10
119.843
 20
351.743
 11
119.649
 21
352.341
  0
LINE
  8
0
 10
119.649
 20
352.341
 11
119.382
 21
352.909
  0
LINE
  8
0
 10
119.382
 20
352.909
 11
119.045
 21
353.439
  0
LINE
  8
0
 10
119.045
 20
353.439
 11
118.645
 21
353.923
  0
LINE
  8
0
 10
118.645
 20
353.923
 11
118.187
 21
354.353
  0
LINE
  8
0
 10
118.187
 20
354.353
 11
117.679
 21
354.722
  0
LINE
  8
0
 10
117.679
 20
354.722
 11
117.129
 21
355.024
  0
LINE
  8
0
 10
117.129
 20
355.024
 11
116.545
 21
355.255
  0
LINE
  8
0
 10
116.545
 20
355.255
 11
115.937
 21
355.411
  0
LINE
  8
0
 10
115.937
 20
355.411
 11
115.314
 21
355.49
  0
LINE
  8
0
 10
115.314
 20
355.49
 11
-115.314
 21
355.49
  0
LINE
  8
0
 10
-115.314
 20
355.49
 11
-115.937
 21
355.411
  0
LINE
  8
0
 10
-115.937
 20
355.411
 11
-116.545
 21
355.255
  0
LINE
  8
0
 10
-116.545
 20
355.255
 11
-117.129
 21
355.024
  0
LINE
  8
0
 10
-117.129
 20
355.024
 11
-117.679
 21
354.722
  0
LINE
  8
0
 10
-117.679
 20
354.722
 11
-118.187
 21
354.353
  0
LINE
  8
0
 10
-118.187
 20
354.353
 11
-118.5
 21
354.059
  0
LINE
  8
0
 10
-118.5
 20
354.059
 11
-118.5
 21
355.115
  0
LINE
  8
0
 10
-118.5
 20
355.115
 11
-121.5
 21
355.115
  0
LINE
  8
0
 10
-121.5
 20
355.115
 11
-121.5
 21
220.885
  0
LINE
  8
0
 10
-121.5
 20
220.885
 11
-118.5
 21
220.885
  0
LINE
  8
0
 10
-118.5
 20
220.885
 11
-118.5
 21
221.941
  0
LINE
  8
0
 10
-118.5
 20
221.941
 11
-118.187
 21
221.647
  0
LINE
  8
0
 10
-118.187
 20
221.647
 11
-117.679
 21
221.278
  0
LINE
  8
0
 10
-117.679
 20
221.278
 11
-117.129
 21
220.976
  0
LINE
  8
0
 10
-117.129
 20
220.976
 11
-116.545
 21
220.745
  0
LINE
  8
0
 10
-116.545
 20
220.745
 11
-115.937
 21
220.589
  0
LINE
  8
0
 10
-115.937
 20
220.589
 11
-115.314
 21
220.51
  0
LINE
  8
0
 10
-115.314
 20
220.51
 11
115.314
 21
220.51
  0
LINE
  8
0
 10
115.314
 20
220.51
 11
115.937
 21
220.589
  0
LINE
  8
0
 10
112.349
 20
345.605
 11
112.05
 21
345.643
  0
LINE
  8
0
 10
112.05
 20
345.643
 11
111.758
 21
345.717
  0
LINE
  8
0
 10
111.758
 20
345.717
 11
111.478
 21
345.828
  0
LINE
  8
0
 10
111.478
 20
345.828
 11
111.214
 21
345.974
  0
LINE
  8
0
 10
111.214
 20
345.974
 11
110.97
 21
346.151
  0
LINE
  8
0
 10
110.97
 20
346.151
 11
110.75
 21
346.357
  0
LINE
  8
0
 10
110.75
 20
346.357
 11
110.558
 21
346.589
  0
LINE
  8
0
 10
110.558
 20
346.589
 11
110.397
 21
346.844
  0
LINE
  8
0
 10
110.397
 20
346.844
 11
110.269
 21
347.117
  0
LINE
  8
0
 10
110.269
 20
347.117
 11
110.175
 21
347.403
  0
LINE
  8
0
 10
110.175
 20
347.403
 11
110.119
 21
347.699
  0
LINE
  8
0
 10
110.119
 20
347.699
 11
110.1
 21
348
  0
LINE
  8
0
 10
110.1
 20
348
 11
110.119
 21
348.301
  0
LINE
  8
0
 10
110.119
 20
348.301
 11
110.175
 21
348.597
  0
LINE
  8
0
 10
110.175
 20
348.597
 11
110.269
 21
348.883
  0
LINE
  8
0
 10
110.269
 20
348.883
 11
110.397
 21
349.156
  0
LINE
  8
0
 10
110.397
 20
349.156
 11
110.558
 21
349.411
  0
LINE
  8
0
 10
110.558
 20
349.411
 11
110.75
 21
349.643
  0
LINE
  8
0
 10
110.75
 20
349.643
 11
110.97
 21
349.849
  0
LINE
  8
0
 10
110.97
 20
349.849
 11
111.214
 21
350.026
  0
LINE
  8
0
 10
111.214
 20
350.026
 11
111.478
 21
350.172
  0
LINE
  8
0
 10
111.478
 20
350.172
 11
111.758
 21
350.283
  0
LINE
  8
0
 10
111.758
 20
350.283
 11
112.05
 21
350.357
  0
LINE
  8
0
 10
112.05
 20
350.357
 11
112.349
 21
350.395
  0
LINE
  8
0
 10
112.349
 20
350.395
 11
112.651
 21
350.395
  0
LINE
  8
0
 10
112.651
 20
350.395
 11
112.95
 21
350.357
  0
LINE
  8
0
 10
112.95
 20
350.357
 11
113.242
 21
350.283
  0
LINE
  8
0
 10
113.242
 20
350.283
 11
113.522
 21
350.172
  0
LINE
  8
0
 10
113.522
 20
350.172
 11
113.786
 21
350.026
  0
LINE
  8
0
 10
113.786
 20
350.026
 11
114.03
 21
349.849
  0
LINE
  8
0
 10
114.03
 20
349.849
 11
114.25
 21
349.643
  0
LINE
  8
0
 10
114.25
 20
349.643
 11
114.442
 21
349.411
  0
LINE
  8
0
 10
114.442
 20
349.411
 11
114.603
 21
349.156
  0
LINE
  8
0
 10
114.603
 20
349.156
 11
114.731
 21
348.883
  0
LINE
  8
0
 10
114.731
 20
348.883
 11
114.825
 21
348.597
  0
LINE
  8
0
 10
114.825
 20
348.597
 11
114.881
 21
348.301
  0
LINE
  8
0
 10
114.881
 20
348.301
 11
114.9
 21
348
  0
LINE
  8
0
 10
114.9
 20
348
 11
114.881
 21
347.699
  0
LINE
  8
0
 10
114.881
 20
347.699
 11
114.825
 21
347.403
  0
LINE
  8
0
 10
114.825
 20
347.403
 11
114.731
 21
347.117
  0
LINE
  8
0
 10
114.731
 20
347.117
 11
114.603
 21
346.844
  0
LINE
  8
0
 10
114.603
 20
346.844
 11
114.442
 21
346.589
  0
LINE
  8
0
 10
114.442
 20
346.589
 11
114.25
 21
346.357
  0
LINE
  8
0
 10
114.25
 20
346.357
 11
114.03
 21
346.151
  0
LINE
  8
0
 10
114.03
 20
346.151
 11
113.786
 21
345.974
  0
LINE
  8
0
 10
113.786
 20
345.974
 11
113.522
 21
345.828
  0
LINE
  8
0
 10
113.522
 20
345.828
 11
113.242
 21
345.717
  0
LINE
  8
0
 10
113.242
 20
345.717
 11
112.95
 21
345.643
  0
LINE
  8
0
 10
112.95
 20
345.643
 11
112.651
 21
345.605
  0
LINE
  8
0
 10
112.651
 20
345.605
 11
112.349
 21
345.605
  0
LINE
  8
0
 10
-112.651
 20
345.605
 11
-112.95
 21
345.643
  0
LINE
  8
0
 10
-112.95
 20
345.643
 11
-113.242
 21
345.717
  0
LINE
  8
0
 10
-113.242
 20
345.717
 11
-113.522
 21
345.828
  0
LINE
  8
0
 10
-113.522
 20
345.828
 11
-113.786
 21
345.974
  0
LINE
  8
0
 10
-113.786
 20
345.974
 11
-114.03
 21
346.151
  0
LINE
  8
0
 10
-114.03
 20
346.151
 11
-114.25
 21
346.357
  0
LINE
  8
0
 10
-114.25
 20
346.357
 11
-114.442
 21
346.589
  0
LINE
  8
0
 10
-114.442
 20
346.589
 11
-114.603
 21
346.844
  0
LINE
  8
0
 10
-114.603
 20
346.844
 11
-114.731
 21
347.117
  0
LINE
  8
0
 10
-114.731
 20
347.117
 11
-114.825
 21
347.403
  0
LINE
  8
0
 10
-114.825
 20
347.403
 11
-114.881
 21
347.699
  0
LINE
  8
0
 10
-114.881
 20
347.699
 11
-114.9
 21
348
  0
LINE
  8
0
 10
-114.9
 20
348
 11
-114.881
 21
348.301
  0
LINE
  8
0
 10
-114.881
 20
348.301
 11
-114.825
 21
348.597
  0
LINE
  8
0
 10
-114.825
 20
348.597
 11
-114.731
 21
348.883
  0
LINE
  8
0
 10
-114.731
 20
348.883
 11
-114.603
 21
349.156
  0
LINE
  8
0
 10
-114.603
 20
349.156
 11
-114.442
 21
349.411
  0
LINE
  8
0
 10
-114.442
 20
349.411
 11
-114.25
 21
349.643
  0
LINE
  8
0
 10
-114.25
 20
349.643
 11
-114.03
 21
349.849
  0
LINE
  8
0
 10
-114.03
 20
349.849
 11
-113.786
 21
350.026
  0
LINE
  8
0
 10
-113.786
 20
350.026
 11
-113.522
 21
350.172
  0
LINE
  8
0
 10
-113.522
 20
350.172
 11
-113.242
 21
350.283
  0
LINE
  8
0
 10
-113.242
 20
350.283
 11
-112.95
 21
350.357
  0
LINE
  8
0
 10
-112.95
 20
350.357
 11
-112.651
 21
350.395
  0
LINE
  8
0
 10
-112.651
 20
350.395
 11
-112.349
 21
350.395
  0
LINE
  8
0
 10
-112.349
 20
350.395
 11
-112.05
 21
350.357
  0
LINE
  8
0
 10
-112.05
 20
350.357
 11
-111.758
 21
350.283
  0
LINE
  8
0
 10
-111.758
 20
350.283
 11
-111.478
 21
350.172
  0
LINE
  8
0
 10
-111.478
 20
350.172
 11
-111.214
 21
350.026
  0
LINE
  8
0
 10
-111.214
 20
350.026
 11
-110.97
 21
349.849
  0
LINE
  8
0
 10
-110.97
 20
349.849
 11
-110.75
 21
349.643
  0
LINE
  8
0
 10
-110.75
 20
349.643
 11
-110.558
 21
349.411
  0
LINE
  8
0
 10
-110.558
 20
349.411
 11
-110.397
 21
349.156
  0
LINE
  8
0
 10
-110.397
 20
349.156
 11
-110.269
 21
348.883
  0
LINE
  8
0
 10
-110.269
 20
348.883
 11
-110.175
 21
348.597
  0
LINE
  8
0
 10
-110.175
 20
348.597
 11
-110.119
 21
348.301
  0
LINE
  8
0
 10
-110.119
 20
348.301
 11
-110.1
 21
348
  0
LINE
  8
0
 10
-110.1
 20
348
 11
-110.119
 21
347.699
  0
LINE
  8
0
 10
-110.119
 20
347.699
 11
-110.175
 21
347.403
  0
LINE
  8
0
 10
-110.175
 20
347.403
 11
-110.269
 21
347.117
  0
LINE
  8
0
 10
-110.269
 20
347.117
 11
-110.397
 21
346.844
  0
LINE
  8
0
 10
-110.397
 20
346.844
 11
-110.558
 21
346.589
  0
LINE
  8
0
 10
-110.558
 20
346.589
 11
-110.75
 21
346.357
  0
LINE
  8
0
 10
-110.75
 20
346.357
 11
-110.97
 21
346.151
  0
LINE
  8
0
 10
-110.97
 20
346.151
 11
-111.214
 21
345.974
  0
LINE
  8
0
 10
-111.214
 20
345.974
 11
-111.478
 21
345.828
  0
LINE
  8
0
 10
-111.478
 20
345.828
 11
-111.758
 21
345.717
  0
LINE
  8
0
 10
-111.758
 20
345.717
 11
-112.05
 21
345.643
  0
LINE
  8
0
 10
-112.05
 20
345.643
 11
-112.349
 21
345.605
  0
LINE
  8
0
 10
-112.349
 20
345.605
 11
-112.651
 21
345.605
  0
LINE
  8
0
 10
112.349
 20
225.605
 11
112.05
 21
225.643
  0
LINE
  8
0
 10
112.05
 20
225.643
 11
111.758
 21
225.717
  0
LINE
  8
0
 10
111.758
 20
225.717
 11
111.478
 21
225.828
  0
LINE
  8
0
 10
111.478
 20
225.828
 11
111.214
 21
225.974
  0
LINE
  8
0
 10
111.214
 20
225.974
 11
110.97
 21
226.151
  0
LINE
  8
0
 10
110.97
 20
226.151
 11
110.75
 21
226.357
  0
LINE
  8
0
 10
110.75
 20
226.357
 11
110.558
 21
226.589
  0
LINE
  8
0
 10
110.558
 20
226.589
 11
110.397
 21
226.844
  0
LINE
  8
0
 10
110.397
 20
226.844
 11
110.269
 21
227.117
  0
LINE
  8
0
 10
110.269
 20
227.117
 11
110.175
 21
227.403
  0
LINE
  8
0
 10
110.175
 20
227.403
 11
110.119
 21
227.699
  0
LINE
  8
0
 10
110.119
 20
227.699
 11
110.1
 21
228
  0
LINE
  8
0
 10
110.1
 20
228
 11
110.119
 21
228.301
  0
LINE
  8
0
 10
110.119
 20
228.301
 11
110.175
 21
228.597
  0
LINE
  8
0
 10
110.175
 20
228.597
 11
110.269
 21
228.883
  0
LINE
  8
0
 10
110.269
 20
228.883
 11
110.397
 21
229.156
  0
LINE
  8
0
 10
110.397
 20
229.156
 11
110.558
 21
229.411
  0
LINE
  8
0
 10
110.558
 20
229.411
 11
110.75
 21
229.643
  0
LINE
  8
0
 10
110.75
 20
229.643
 11
110.97
 21
229.849
  0
LINE
  8
0
 10
110.97
 20
229.849
 11
111.214
 21
230.026
  0
LINE
  8
0
 10
111.214
 20
230.026
 11
111.478
 21
230.172
  0
LINE
  8
0
 10
111.478
 20
230.172
 11
111.758
 21
230.283
  0
LINE
  8
0
 10
111.758
 20
230.283
 11
112.05
 21
230.357
  0
LINE
  8
0
 10
112.05
 20
230.357
 11
112.349
 21
230.395
  0
LINE
  8
0
 10
112.349
 20
230.395
 11
112.651
 21
230.395
  0
LINE
  8
0
 10
112.651
 20
230.395
 11
112.95
 21
230.357
  0
LINE
  8
0
 10
112.95
 20
230.357
 11
113.242
 21
230.283
  0
LINE
  8
0
 10
113.242
 20
230.283
 11
113.522
 21
230.172
  0
LINE
  8
0
 10
113.522
 20
230.172
 11
113.786
 21
230.026
  0
LINE
  8
0
 10
113.786
 20
230.026
 11
114.03
 21
229.849
  0
LINE
  8
0
 10
114.03
 20
229.849
 11
114.25
 21
229.643
  0
LINE
  8
0
 10
114.25
 20
229.643
 11
114.442
 21
229.411
  0
LINE
  8
0
 10
114.442
 20
229.411
 11
114.603
 21
229.156
  0
LINE
  8
0
 10
114.603
 20
229.156
 11
114.731
 21
228.883
  0
LINE
  8
0
 10
114.731
 20
228.883
 11
114.825
 21
228.597
  0
LINE
  8
0
 10
114.825
 20
228.597
 11
114.881
 21
228.301
  0
LINE
  8
0
 10
114.881
 20
228.301
 11
114.9
 21
228
  0
LINE
  8
0
 10
114.9
 20
228
 11
114.881
 21
227.699
  0
LINE
  8
0
 10
114.881
 20
227.699
 11
114.825
 21
227.403
  0
LINE
  8
0
 10
114.825
 20
227.403
 11
114.731
 21
227.117
  0
LINE
  8
0
 10
114.731
 20
227.117
 11
114.603
 21
226.844
  0
LINE
  8
0
 10
114.603
 20
226.844
 11
114.442
 21
226.589
  0
LINE
  8
0
 10
114.442
 20
226.589
 11
114.25
 21
226.357
  0
LINE
  8
0
 10
114.25
 20
226.357
 11
114.03
 21
226.151
  0
LINE
  8
0
 10
114.03
 20
226.151
 11
113.786
 21
225.974
  0
LINE
  8
0
 10
113.786
 20
225.974
 11
113.522
 21
225.828
  0
LINE
  8
0
 10
113.522
 20
225.828
 11
113.242
 21
225.717
  0
LINE
  8
0
 10
113.242
 20
225.717
 11
112.95
 21
225.643
  0
LINE
  8
0
 10
112.95
 20
225.643
 11
112.651
 21
225.605
  0
LINE
  8
0
 10
112.651
 20
225.605
 11
112.349
 21
225.605
  0
LINE
  8
0
 10
-112.651
 20
225.605
 11
-112.95
 21
225.643
  0
LINE
  8
0
 10
-112.95
 20
225.643
 11
-113.242
 21
225.717
  0
LINE
  8
0
 10
-113.242
 20
225.717
 11
-113.522
 21
225.828
  0
LINE
  8
0
 10
-113.522
 20
225.828
 11
-113.786
 21
225.974
  0
LINE
  8
0
 10
-113.786
 20
225.974
 11
-114.03
 21
226.151
  0
LINE
  8
0
 10
-114.03
 20
226.151
 11
-114.25
 21
226.357
  0
LINE
  8
0
 10
-114.25
 20
226.357
 11
-114.442
 21
226.589
  0
LINE
  8
0
 10
-114.442
 20
226.589
 11
-114.603
 21
226.844
  0
LINE
  8
0
 10
-114.603
 20
226.844
 11
-114.731
 21
227.117
  0
LINE
  8
0
 10
-114.731
 20
227.117
 11
-114.825
 21
227.403
  0
LINE
  8
0
 10
-114.825
 20
227.403
 11
-114.881
 21
227.699
  0
LINE
  8
0
 10
-114.881
 20
227.699
 11
-114.9
 21
228
  0
LINE
  8
0
 10
-114.9
 20
228
 11
-114.881
 21
228.301
  0
LINE
  8
0
 10
-114.881
 20
228.301
 11
-114.825
 21
228.597
  0
LINE
  8
0
 10
-114.825
 20
228.597
 11
-114.731
 21
228.883
  0
LINE
  8
0
 10
-114.731
 20
228.883
 11
-114.603
 21
229.156
  0
LINE
  8
0
 10
-114.603
 20
229.156
 11
-114.442
 21
229.411
  0
LINE
  8
0
 10
-114.442
 20
229.411
 11
-114.25
 21
229.643
  0
LINE
  8
0
 10
-114.25
 20
229.643
 11
-114.03
 21
229.849
  0
LINE
  8
0
 10
-114.03
 20
229.849
 11
-113.786
 21
230.026
  0
LINE
  8
0
 10
-113.786
 20
230.026
 11
-113.522
 21
230.172
  0
LINE
  8
0
 10
-113.522
 20
230.172
 11
-113.242
 21
230.283
  0
LINE
  8
0
 10
-113.242
 20
230.283
 11
-112.95
 21
230.357
  0
LINE
  8
0
 10
-112.95
 20
230.357
 11
-112.651
 21
230.395
  0
LINE
  8
0
 10
-112.651
 20
230.395
 11
-112.349
 21
230.395
  0
LINE
  8
0
 10
-112.349
 20
230.395
 11
-112.05
 21
230.357
  0
LINE
  8
0
 10
-112.05
 20
230.357
 11
-111.758
 21
230.283
  0
LINE
  8
0
 10
-111.758
 20
230.283
 11
-111.478
 21
230.172
  0
LINE
  8
0
 10
-111.478
 20
230.172
 11
-111.214
 21
230.026
  0
LINE
  8
0
 10
-111.214
 20
230.026
 11
-110.97
 21
229.849
  0
LINE
  8
0
 10
-110.97
 20
229.849
 11
-110.75
 21
229.643
  0
LINE
  8
0
 10
-110.75
 20
229.643
 11
-110.558
 21
229.411
  0
LINE
  8
0
 10
-110.558
 20
229.411
 11
-110.397
 21
229.156
  0
LINE
  8
0
 10
-110.397
 20
229.156
 11
-110.269
 21
228.883
  0
LINE
  8
0
 10
-110.269
 20
228.883
 11
-110.175
 21
228.597
  0
LINE
  8
0
 10
-110.175
 20
228.597
 11
-110.119
 21
228.301
  0
LINE
  8
0
 10
-110.119
 20
228.301
 11
-110.1
 21
228
  0
LINE
  8
0
 10
-110.1
 20
228
 11
-110.119
 21
227.699
  0
LINE
  8
0
 10
-110.119
 20
227.699
 11
-110.175
 21
227.403
  0
LINE
  8
0
 10
-110.175
 20
227.403
 11
-110.269
 21
227.117
  0
LINE
  8
0
 10
-110.269
 20
227.117
 11
-110.397
 21
226.844
  0
LINE
  8
0
 10
-110.397
 20
226.844
 11
-110.558
 21
226.589
  0
LINE
  8
0
 10
-110.558
 20
226.589
 11
-110.75
 21
226.357
  0
LINE
  8
0
 10
-110.75
 20
226.357
 11
-110.97
 21
226.151
  0
LINE
  8
0
 10
-110.97
 20
226.151
 11
-111.214
 21
225.974
  0
LINE
  8
0
 10
-111.214
 20
225.974
 11
-111.478
 21
225.828
  0
LINE
  8
0
 10
-111.478
 20
225.828
 11
-111.758
 21
225.717
  0
LINE
  8
0
 10
-111.758
 20
225.717
 11
-112.05
 21
225.643
  0
LINE
  8
0
 10
-112.05
 20
225.643
 11
-112.349
 21
225.605
  0
LINE
  8
0
 10
-112.349
 20
225.605
 11
-112.651
 21
225.605
  0
LINE
  8
0
 10
115.937
 20
76.5886
 11
116.545
 21
76.7447
  0
LINE
  8
0
 10
116.545
 20
76.7447
 11
117.129
 21
76.9759
  0
LINE
  8
0
 10
117.129
 20
76.9759
 11
117.679
 21
77.2784
  0
LINE
  8
0
 10
117.679
 20
77.2784
 11
118.187
 21
77.6474
  0
LINE
  8
0
 10
118.187
 20
77.6474
 11
118.645
 21
78.0773
  0
LINE
  8
0
 10
118.645
 20
78.0773
 11
119.045
 21
78.5611
  0
LINE
  8
0
 10
119.045
 20
78.5611
 11
119.382
 21
79.0912
  0
LINE
  8
0
 10
119.382
 20
79.0912
 11
119.649
 21
79.6594
  0
LINE
  8
0
 10
119.649
 20
79.6594
 11
119.843
 21
80.2566
  0
LINE
  8
0
 10
119.843
 20
80.2566
 11
119.961
 21
80.8733
  0
LINE
  8
0
 10
119.961
 20
80.8733
 11
120
 21
81.5
  0
LINE
  8
0
 10
120
 20
81.5
 11
120
 21
206.5
  0
LINE
  8
0
 10
120
 20
206.5
 11
119.961
 21
207.127
  0
LINE
  8
0
 10
119.961
 20
207.127
 11
119.843
 21
207.743
  0
LINE
  8
0
 10
119.843
 20
207.743
 11
119.649
 21
208.341
  0
LINE
  8
0
 10
119.649
 20
208.341
 11
119.382
 21
208.909
  0
LINE
  8
0
 10
119.382
 20
208.909
 11
119.045
 21
209.439
  0
LINE
  8
0
 10
119.045
 20
209.439
 11
118.645
 21
209.923
  0
LINE
  8
0
 10
118.645
 20
209.923
 11
118.187
 21
210.353
  0
LINE
  8
0
 10
118.187
 20
210.353
 11
117.679
 21
210.722
  0
LINE
  8
0
 10
117.679
 20
210.722
 11
117.129
 21
211.024
  0
LINE
  8
0
 10
117.129
 20
211.024
 11
116.545
 21
211.255
  0
LINE
  8
0
 10
116.545
 20
211.255
 11
115.937
 21
211.411
  0
LINE
  8
0
 10
115.937
 20
211.411
 11
115.314
 21
211.49
  0
LINE
  8
0
 10
115.314
 20
211.49
 11
-115.314
 21
211.49
  0
LINE
  8
0
 10
-115.314
 20
211.49
 11
-115.937
 21
211.411
  0
LINE
  8
0
 10
-115.937
 20
211.411
 11
-116.545
 21
211.255
  0
LINE
  8
0
 10
-116.545
 20
211.255
 11
-117.129
 21
211.024
  0
LINE
  8
0
 10
-117.129
 20
211.024
 11
-117.679
 21
210.722
  0
LINE
  8
0
 10
-117.679
 20
210.722
 11
-118.187
 21
210.353
  0
LINE
  8
0
 10
-118.187
 20
210.353
 11
-118.645
 21
209.923
  0
LINE
  8
0
 10
-118.645
 20
209.923
 11
-119.045
 21
209.439
  0
LINE
  8
0
 10
-119.045
 20
209.439
 11
-119.382
 21
208.909
  0
LINE
  8
0
 10
-119.382
 20
208.909
 11
-119.649
 21
208.341
  0
LINE
  8
0
 10
-119.649
 20
208.341
 11
-119.843
 21
207.743
  0
LINE
  8
0
 10
-119.843
 20
207.743
 11
-119.9
 21
207.444
  0
LINE
  8
0
 10
-119.9
 20
207.444
 11
-121.5
 21
207.444
  0
LINE
  8
0
 10
-121.5
 20
207.444
 11
-121.5
 21
80.5558
  0
LINE
  8
0
 10
-121.5
 20
80.5558
 11
-119.9
 21
80.5558
  0
LINE
  8
0
 10
-119.9
 20
80.5558
 11
-119.843
 21
80.2566
  0
LINE
  8
0
 10
-119.843
 20
80.2566
 11
-119.649
 21
79.6594
  0
LINE
  8
0
 10
-119.649
 20
79.6594
 11
-119.382
 21
79.0912
  0
LINE
  8
0
 10
-119.382
 20
79.0912
 11
-119.045
 21
78.5611
  0
LINE
  8
0
 10
-119.045
 20
78.5611
 11
-118.645
 21
78.0773
  0
LINE
  8
0
 10
-118.645
 20
78.0773
 11
-118.187
 21
77.6474
  0
LINE
  8
0
 10
-118.187
 20
77.6474
 11
-117.679
 21
77.2784
  0
LINE
  8
0
 10
-117.679
 20
77.2784
 11
-117.129
 21
76.9759
  0
LINE
  8
0
 10
-117.129
 20
76.9759
 11
-116.545
 21
76.7447
  0
LINE
  8
0
 10
-116.545
 20
76.7447
 11
-115.937
 21
76.5886
  0
LINE
  8
0
 10
-115.937
 20
76.5886
 11
-115.314
 21
76.5099
  0
LINE
  8
0
 10
-115.314
 20
76.5099
 11
115.314
 21
76.5099
  0
LINE
  8
0
 10
115.314
 20
76.5099
 11
115.937
 21
76.5886
  0
LINE
  8
0
 10
112.387
 20
202.204
 11
112.163
 21
202.232
  0
LINE
  8
0
 10
112.163
 20
202.232
 11
111.944
 21
202.288
  0
LINE
  8
0
 10
111.944
 20
202.288
 11
111.734
 21
202.371
  0
LINE
  8
0
 10
111.734
 20
202.371
 11
111.536
 21
202.48
  0
LINE
  8
0
 10
111.536
 20
202.48
 11
111.353
 21
202.613
  0
LINE
  8
0
 10
111.353
 20
202.613
 11
111.188
 21
202.768
  0
LINE
  8
0
 10
111.188
 20
202.768
 11
111.044
 21
202.942
  0
LINE
  8
0
 10
111.044
 20
202.942
 11
110.923
 21
203.133
  0
LINE
  8
0
 10
110.923
 20
203.133
 11
110.826
 21
203.337
  0
LINE
  8
0
 10
110.826
 20
203.337
 11
110.757
 21
203.552
  0
LINE
  8
0
 10
110.757
 20
203.552
 11
110.714
 21
203.774
  0
LINE
  8
0
 10
110.714
 20
203.774
 11
110.7
 21
204
  0
LINE
  8
0
 10
110.7
 20
204
 11
110.714
 21
204.226
  0
LINE
  8
0
 10
110.714
 20
204.226
 11
110.757
 21
204.448
  0
LINE
  8
0
 10
110.757
 20
204.448
 11
110.826
 21
204.663
  0
LINE
  8
0
 10
110.826
 20
204.663
 11
110.923
 21
204.867
  0
LINE
  8
0
 10
110.923
 20
204.867
 11
111.044
 21
205.058
  0
LINE
  8
0
 10
111.044
 20
205.058
 11
111.188
 21
205.232
  0
LINE
  8
0
 10
111.188
 20
205.232
 11
111.353
 21
205.387
  0
LINE
  8
0
 10
111.353
 20
205.387
 11
111.536
 21
205.52
  0
LINE
  8
0
 10
111.536
 20
205.52
 11
111.734
 21
205.629
  0
LINE
  8
0
 10
111.734
 20
205.629
 11
111.944
 21
205.712
  0
LINE
  8
0
 10
111.944
 20
205.712
 11
112.163
 21
205.768
  0
LINE
  8
0
 10
112.163
 20
205.768
 11
112.387
 21
205.796
  0
LINE
  8
0
 10
112.387
 20
205.796
 11
112.613
 21
205.796
  0
LINE
  8
0
 10
112.613
 20
205.796
 11
112.837
 21
205.768
  0
LINE
  8
0
 10
112.837
 20
205.768
 11
113.056
 21
205.712
  0
LINE
  8
0
 10
113.056
 20
205.712
 11
113.266
 21
205.629
  0
LINE
  8
0
 10
113.266
 20
205.629
 11
113.464
 21
205.52
  0
LINE
  8
0
 10
113.464
 20
205.52
 11
113.647
 21
205.387
  0
LINE
  8
0
 10
113.647
 20
205.387
 11
113.812
 21
205.232
  0
LINE
  8
0
 10
113.812
 20
205.232
 11
113.956
 21
205.058
  0
LINE
  8
0
 10
113.956
 20
205.058
 11
114.077
 21
204.867
  0
LINE
  8
0
 10
114.077
 20
204.867
 11
114.174
 21
204.663
  0
LINE
  8
0
 10
114.174
 20
204.663
 11
114.243
 21
204.448
  0
LINE
  8
0
 10
114.243
 20
204.448
 11
114.286
 21
204.226
  0
LINE
  8
0
 10
114.286
 20
204.226
 11
114.3
 21
204
  0
LINE
  8
0
 10
114.3
 20
204
 11
114.286
 21
203.774
  0
LINE
  8
0
 10
114.286
 20
203.774
 11
114.243
 21
203.552
  0
LINE
  8
0
 10
114.243
 20
203.552
 11
114.174
 21
203.337
  0
LINE
  8
0
 10
114.174
 20
203.337
 11
114.077
 21
203.133
  0
LINE
  8
0
 10
114.077
 20
203.133
 11
113.956
 21
202.942
  0
LINE
  8
0
 10
113.956
 20
202.942
 11
113.812
 21
202.768
  0
LINE
  8
0
 10
113.812
 20
202.768
 11
113.647
 21
202.613
  0
LINE
  8
0
 10
113.647
 20
202.613
 11
113.464
 21
202.48
  0
LINE
  8
0
 10
113.464
 20
202.48
 11
113.266
 21
202.371
  0
LINE
  8
0
 10
113.266
 20
202.371
 11
113.056
 21
202.288
  0
LINE
  8
0
 10
113.056
 20
202.288
 11
112.837
 21
202.232
  0
LINE
  8
0
 10
112.837
 20
202.232
 11
112.613
 21
202.204
  0
LINE
  8
0
 10
112.613
 20
202.204
 11
112.387
 21
202.204
  0
LINE
  8
0
 10
-112.613
 20
202.204
 11
-112.837
 21
202.232
  0
LINE
  8
0
 10
-112.837
 20
202.232
 11
-113.056
 21
202.288
  0
LINE
  8
0
 10
-113.056
 20
202.288
 11
-113.266
 21
202.371
  0
LINE
  8
0
 10
-113.266
 20
202.371
 11
-113.464
 21
202.48
  0
LINE
  8
0
 10
-113.464
 20
202.48
 11
-113.647
 21
202.613
  0
LINE
  8
0
 10
-113.647
 20
202.613
 11
-113.812
 21
202.768
  0
LINE
  8
0
 10
-113.812
 20
202.768
 11
-113.956
 21
202.942
  0
LINE
  8
0
 10
-113.956
 20
202.942
 11
-114.077
 21
203.133
  0
LINE
  8
0
 10
-114.077
 20
203.133
 11
-114.174
 21
203.337
  0
LINE
  8
0
 10
-114.174
 20
203.337
 11
-114.243
 21
203.552
  0
LINE
  8
0
 10
-114.243
 20
203.552
 11
-114.286
 21
203.774
  0
LINE
  8
0
 10
-114.286
 20
203.774
 11
-114.3
 21
204
  0
LINE
  8
0
 10
-114.3
 20
204
 11
-114.286
 21
204.226
  0
LINE
  8
0
 10
-114.286
 20
204.226
 11
-114.243
 21
204.448
  0
LINE
  8
0
 10
-114.243
 20
204.448
 11
-114.174
 21
204.663
  0
LINE
  8
0
 10
-114.174
 20
204.663
 11
-114.077
 21
204.867
  0
LINE
  8
0
 10
-114.077
 20
204.867
 11
-113.956
 21
205.058
  0
LINE
  8
0
 10
-113.956
 20
205.058
 11
-113.812
 21
205.232
  0
LINE
  8
0
 10
-113.812
 20
205.232
 11
-113.647
 21
205.387
  0
LINE
  8
0
 10
-113.647
 20
205.387
 11
-113.464
 21
205.52
  0
LINE
  8
0
 10
-113.464
 20
205.52
 11
-113.266
 21
205.629
  0
LINE
  8
0
 10
-113.266
 20
205.629
 11
-113.056
 21
205.712
  0
LINE
  8
0
 10
-113.056
 20
205.712
 11
-112.837
 21
205.768
  0
LINE
  8
0
 10
-112.837
 20
205.768
 11
-112.613
 21
205.796
  0
LINE
  8
0
 10
-112.613
 20
205.796
 11
-112.387
 21
205.796
  0
LINE
  8
0
 10
-112.387
 20
205.796
 11
-112.163
 21
205.768
  0
LINE
  8
0
 10
-112.163
 20
205.768
 11
-111.944
 21
205.712
  0
LINE
  8
0
 10
-111.944
 20
205.712
 11
-111.734
 21
205.629
  0
LINE
  8
0
 10
-111.734
 20
205.629
 11
-111.536
 21
205.52
  0
LINE
  8
0
 10
-111.536
 20
205.52
 11
-111.353
 21
205.387
  0
LINE
  8
0
 10
-111.353
 20
205.387
 11
-111.188
 21
205.232
  0
LINE
  8
0
 10
-111.188
 20
205.232
 11
-111.044
 21
205.058
  0
LINE
  8
0
 10
-111.044
 20
205.058
 11
-110.923
 21
204.867
  0
LINE
  8
0
 10
-110.923
 20
204.867
 11
-110.826
 21
204.663
  0
LINE
  8
0
 10
-110.826
 20
204.663
 11
-110.757
 21
204.448
  0
LINE
  8
0
 10
-110.757
 20
204.448
 11
-110.714
 21
204.226
  0
LINE
  8
0
 10
-110.714
 20
204.226
 11
-110.7
 21
204
  0
LINE
  8
0
 10
-110.7
 20
204
 11
-110.714
 21
203.774
  0
LINE
  8
0
 10
-110.714
 20
203.774
 11
-110.757
 21
203.552
  0
LINE
  8
0
 10
-110.757
 20
203.552
 11
-110.826
 21
203.337
  0
LINE
  8
0
 10
-110.826
 20
203.337
 11
-110.923
 21
203.133
  0
LINE
  8
0
 10
-110.923
 20
203.133
 11
-111.044
 21
202.942
  0
LINE
  8
0
 10
-111.044
 20
202.942
 11
-111.188
 21
202.768
  0
LINE
  8
0
 10
-111.188
 20
202.768
 11
-111.353
 21
202.613
  0
LINE
  8
0
 10
-111.353
 20
202.613
 11
-111.536
 21
202.48
  0
LINE
  8
0
 10
-111.536
 20
202.48
 11
-111.734
 21
202.371
  0
LINE
  8
0
 10
-111.734
 20
202.371
 11
-111.944
 21
202.288
  0
LINE
  8
0
 10
-111.944
 20
202.288
 11
-112.163
 21
202.232
  0
LINE
  8
0
 10
-112.163
 20
202.232
 11
-112.387
 21
202.204
  0
LINE
  8
0
 10
-112.387
 20
202.204
 11
-112.613
 21
202.204
  0
LINE
  8
0
 10
112.387
 20
82.2036
 11
112.163
 21
82.2319
  0
LINE
  8
0
 10
112.163
 20
82.2319
 11
111.944
 21
82.2881
  0
LINE
  8
0
 10
111.944
 20
82.2881
 11
111.734
 21
82.3713
  0
LINE
  8
0
 10
111.734
 20
82.3713
 11
111.536
 21
82.4802
  0
LINE
  8
0
 10
111.536
 20
82.4802
 11
111.353
 21
82.6131
  0
LINE
  8
0
 10
111.353
 20
82.6131
 11
111.188
 21
82.7678
  0
LINE
  8
0
 10
111.188
 20
82.7678
 11
111.044
 21
82.942
  0
LINE
  8
0
 10
111.044
 20
82.942
 11
110.923
 21
83.1328
  0
LINE
  8
0
 10
110.923
 20
83.1328
 11
110.826
 21
83.3374
  0
LINE
  8
0
 10
110.826
 20
83.3374
 11
110.757
 21
83.5524
  0
LINE
  8
0
 10
110.757
 20
83.5524
 11
110.714
 21
83.7744
  0
LINE
  8
0
 10
110.714
 20
83.7744
 11
110.7
 21
84
  0
LINE
  8
0
 10
110.7
 20
84
 11
110.714
 21
84.2256
  0
LINE
  8
0
 10
110.714
 20
84.2256
 11
110.757
 21
84.4476
  0
LINE
  8
0
 10
110.757
 20
84.4476
 11
110.826
 21
84.6626
  0
LINE
  8
0
 10
110.826
 20
84.6626
 11
110.923
 21
84.8672
  0
LINE
  8
0
 10
110.923
 20
84.8672
 11
111.044
 21
85.058
  0
LINE
  8
0
 10
111.044
 20
85.058
 11
111.188
 21
85.2322
  0
LINE
  8
0
 10
111.188
 20
85.2322
 11
111.353
 21
85.3869
  0
LINE
  8
0
 10
111.353
 20
85.3869
 11
111.536
 21
85.5198
  0
LINE
  8
0
 10
111.536
 20
85.5198
 11
111.734
 21
85.6287
  0
LINE
  8
0
 10
111.734
 20
85.6287
 11
111.944
 21
85.7119
  0
LINE
  8
0
 10
111.944
 20
85.7119
 11
112.163
 21
85.7681
  0
LINE
  8
0
 10
112.163
 20
85.7681
 11
112.387
 21
85.7964
  0
LINE
  8
0
 10
112.387
 20
85.7964
 11
112.613
 21
85.7964
  0
LINE
  8
0
 10
112.613
 20
85.7964
 11
112.837
 21
85.7681
  0
LINE
  8
0
 10
112.837
 20
85.7681
 11
113.056
 21
85.7119
  0
LINE
  8
0
 10
113.056
 20
85.7119
 11
113.266
 21
85.6287
  0
LINE
  8
0
 10
113.266
 20
85.6287
 11
113.464
 21
85.5198
  0
LINE
  8
0
 10
113.464
 20
85.5198
 11
113.647
 21
85.3869
  0
LINE
  8
0
 10
113.647
 20
85.3869
 11
113.812
 21
85.2322
  0
LINE
  8
0
 10
113.812
 20
85.2322
 11
113.956
 21
85.058
  0
LINE
  8
0
 10
113.956
 20
85.058
 11
114.077
 21
84.8672
  0
LINE
  8
0
 10
114.077
 20
84.8672
 11
114.174
 21
84.6626
  0
LINE
  8
0
 10
114.174
 20
84.6626
 11
114.243
 21
84.4476
  0
LINE
  8
0
 10
114.243
 20
84.4476
 11
114.286
 21
84.2256
  0
LINE
  8
0
 10
114.286
 20
84.2256
 11
114.3
 21
84
  0
LINE
  8
0
 10
114.3
 20
84
 11
114.286
 21
83.7744
  0
LINE
  8
0
 10
114.286
 20
83.7744
 11
114.243
 21
83.5524
  0
LINE
  8
0
 10
114.243
 20
83.5524
 11
114.174
 21
83.3374
  0
LINE
  8
0
 10
114.174
 20
83.3374
 11
114.077
 21
83.1328
  0
LINE
  8
0
 10
114.077
 20
83.1328
 11
113.956
 21
82.942
  0
LINE
  8
0
 10
113.956
 20
82.942
 11
113.812
 21
82.7678
  0
LINE
  8
0
 10
113.812
 20
82.7678
 11
113.647
 21
82.6131
  0
LINE
  8
0
 10
113.647
 20
82.6131
 11
113.464
 21
82.4802
  0
LINE
  8
0
 10
113.464
 20
82.4802
 11
113.266
 21
82.3713
  0
LINE
  8
0
 10
113.266
 20
82.3713
 11
113.056
 21
82.2881
  0
LINE
  8
0
 10
113.056
 20
82.2881
 11
112.837
 21
82.2319
  0
LINE
  8
0
 10
112.837
 20
82.2319
 11
112.613
 21
82.2036
  0
LINE
  8
0
 10
112.613
 20
82.2036
 11
112.387
 21
82.2036
  0
LINE
  8
0
 10
-112.613
 20
82.2036
 11
-112.837
 21
82.2319
  0
LINE
  8
0
 10
-112.837
 20
82.2319
 11
-113.056
 21
82.2881
  0
LINE
  8
0
 10
-113.056
 20
82.2881
 11
-113.266
 21
82.3713
  0
LINE
  8
0
 10
-113.266
 20
82.3713
 11
-113.464
 21
82.4802
  0
LINE
  8
0
 10
-113.464
 20
82.4802
 11
-113.647
 21
82.6131
  0
LINE
  8
0
 10
-113.647
 20
82.6131
 11
-113.812
 21
82.7678
  0
LINE
  8
0
 10
-113.812
 20
82.7678
 11
-113.956
 21
82.942
  0
LINE
  8
0
 10
-113.956
 20
82.942
 11
-114.077
 21
83.1328
  0
LINE
  8
0
 10
-114.077
 20
83.1328
 11
-114.174
 21
83.3374
  0
LINE
  8
0
 10
-114.174
 20
83.3374
 11
-114.243
 21
83.5524
  0
LINE
  8
0
 10
-114.243
 20
83.5524
 11
-114.286
 21
83.7744
  0
LINE
  8
0
 10
-114.286
 20
83.7744
 11
-114.3
 21
84
  0
LINE
  8
0
 10
-114.3
 20
84
 11
-114.286
 21
84.2256
  0
LINE
  8
0
 10
-114.286
 20
84.2256
 11
-114.243
 21
84.4476
  0
LINE
  8
0
 10
-114.243
 20
84.4476
 11
-114.174
 21
84.6626
  0
LINE
  8
0
 10
-114.174
 20
84.6626
 11
-114.077
 21
84.8672
  0
LINE
  8
0
 10
-114.077
 20
84.8672
 11
-113.956
 21
85.058
  0
LINE
  8
0
 10
-113.956
 20
85.058
 11
-113.812
 21
85.2322
  0
LINE
  8
0
 10
-113.812
 20
85.2322
 11
-113.647
 21
85.3869
  0
LINE
  8
0
 10
-113.647
 20
85.3869
 11
-113.464
 21
85.5198
  0
LINE
  8
0
 10
-113.464
 20
85.5198
 11
-113.266
 21
85.6287
  0
LINE
  8
0
 10
-113.266
 20
85.6287
 11
-113.056
 21
85.7119
  0
LINE
  8
0
 10
-113.056
 20
85.7119
 11
-112.837
 21
85.7681
  0
LINE
  8
0
 10
-112.837
 20
85.7681
 11
-112.613
 21
85.7964
  0
LINE
  8
0
 10
-112.613
 20
85.7964
 11
-112.387
 21
85.7964
  0
LINE
  8
0
 10
-112.387
 20
85.7964
 11
-112.163
 21
85.7681
  0
LINE
  8
0
 10
-112.163
 20
85.7681
 11
-111.944
 21
85.7119
  0
LINE
  8
0
 10
-111.944
 20
85.7119
 11
-111.734
 21
85.6287
  0
LINE
  8
0
 10
-111.734
 20
85.6287
 11
-111.536
 21
85.5198
  0
LINE
  8
0
 10
-111.536
 20
85.5198
 11
-111.353
 21
85.3869
  0
LINE
  8
0
 10
-111.353
 20
85.3869
 11
-111.188
 21
85.2322
  0
LINE
  8
0
 10
-111.188
 20
85.2322
 11
-111.044
 21
85.058
  0
LINE
  8
0
 10
-111.044
 20
85.058
 11
-110.923
 21
84.8672
  0
LINE
  8
0
 10
-110.923
 20
84.8672
 11
-110.826
 21
84.6626
  0
LINE
  8
0
 10
-110.826
 20
84.6626
 11
-110.757
 21
84.4476
  0
LINE
  8
0
 10
-110.757
 20
84.4476
 11
-110.714
 21
84.2256
  0
LINE
  8
0
 10
-110.714
 20
84.2256
 11
-110.7
 21
84
  0
LINE
  8
0
 10
-110.7
 20
84
 11
-110.714
 21
83.7744
  0
LINE
  8
0
 10
-110.714
 20
83.7744
 11
-110.757
 21
83.5524
  0
LINE
  8
0
 10
-110.757
 20
83.5524
 11
-110.826
 21
83.3374
  0
LINE
  8
0
 10
-110.826
 20
83.3374
 11
-110.923
 21
83.1328
  0
LINE
  8
0
 10
-110.923
 20
83.1328
 11
-111.044
 21
82.942
  0
LINE
  8
0
 10
-111.044
 20
82.942
 11
-111.188
 21
82.7678
  0
LINE
  8
0
 10
-111.188
 20
82.7678
 11
-111.353
 21
82.6131
  0
LINE
  8
0
 10
-111.353
 20
82.6131
 11
-111.536
 21
82.4802
  0
LINE
  8
0
 10
-111.536
 20
82.4802
 11
-111.734
 21
82.3713
  0
LINE
  8
0
 10
-111.734
 20
82.3713
 11
-111.944
 21
82.2881
  0
LINE
  8
0
 10
-111.944
 20
82.2881
 11
-112.163
 21
82.2319
  0
LINE
  8
0
 10
-112.163
 20
82.2319
 11
-112.387
 21
82.2036
  0
LINE
  8
0
 10
-112.387
 20
82.2036
 11
-112.613
 21
82.2036
  0
ENDSEC
  0
SECTION
  2
OBJECTS
  0
DICTIONARY
  0
ENDSEC
  0
EOF
