  0
SECTION
  2
BLOCKS
  0
ENDSEC
  0
SECTION
  2
ENTITIES
  0
LINE
  8
0
 10
130.937
 20
981.089
 11
131.545
 21
981.245
  0
LINE
  8
0
 10
131.545
 20
981.245
 11
132.129
 21
981.476
  0
LINE
  8
0
 10
132.129
 20
981.476
 11
132.679
 21
981.778
  0
LINE
  8
0
 10
132.679
 20
981.778
 11
133.187
 21
982.147
  0
LINE
  8
0
 10
133.187
 20
982.147
 11
133.645
 21
982.577
  0
LINE
  8
0
 10
133.645
 20
982.577
 11
134.045
 21
983.061
  0
LINE
  8
0
 10
134.045
 20
983.061
 11
134.382
 21
983.591
  0
LINE
  8
0
 10
134.382
 20
983.591
 11
134.649
 21
984.159
  0
LINE
  8
0
 10
134.649
 20
984.159
 11
134.843
 21
984.757
  0
LINE
  8
0
 10
134.843
 20
984.757
 11
134.961
 21
985.373
  0
LINE
  8
0
 10
134.961
 20
985.373
 11
135
 21
986
  0
LINE
  8
0
 10
135
 20
986
 11
135
 21
1246
  0
LINE
  8
0
 10
135
 20
1246
 11
134.961
 21
1246.63
  0
LINE
  8
0
 10
134.961
 20
1246.63
 11
134.843
 21
1247.24
  0
LINE
  8
0
 10
134.843
 20
1247.24
 11
134.649
 21
1247.84
  0
LINE
  8
0
 10
134.649
 20
1247.84
 11
134.382
 21
1248.41
  0
LINE
  8
0
 10
134.382
 20
1248.41
 11
134.045
 21
1248.94
  0
LINE
  8
0
 10
134.045
 20
1248.94
 11
133.645
 21
1249.42
  0
LINE
  8
0
 10
133.645
 20
1249.42
 11
133.187
 21
1249.85
  0
LINE
  8
0
 10
133.187
 20
1249.85
 11
132.679
 21
1250.22
  0
LINE
  8
0
 10
132.679
 20
1250.22
 11
132.129
 21
1250.52
  0
LINE
  8
0
 10
132.129
 20
1250.52
 11
131.545
 21
1250.76
  0
LINE
  8
0
 10
131.545
 20
1250.76
 11
130.937
 21
1250.91
  0
LINE
  8
0
 10
130.937
 20
1250.91
 11
130.314
 21
1250.99
  0
LINE
  8
0
 10
130.314
 20
1250.99
 11
-130.314
 21
1250.99
  0
LINE
  8
0
 10
-130.314
 20
1250.99
 11
-130.937
 21
1250.91
  0
LINE
  8
0
 10
-130.937
 20
1250.91
 11
-131.545
 21
1250.76
  0
LINE
  8
0
 10
-131.545
 20
1250.76
 11
-132.129
 21
1250.52
  0
LINE
  8
0
 10
-132.129
 20
1250.52
 11
-132.679
 21
1250.22
  0
LINE
  8
0
 10
-132.679
 20
1250.22
 11
-133.187
 21
1249.85
  0
LINE
  8
0
 10
-133.187
 20
1249.85
 11
-133.645
 21
1249.42
  0
LINE
  8
0
 10
-133.645
 20
1249.42
 11
-134.045
 21
1248.94
  0
LINE
  8
0
 10
-134.045
 20
1248.94
 11
-134.382
 21
1248.41
  0
LINE
  8
0
 10
-134.382
 20
1248.41
 11
-134.649
 21
1247.84
  0
LINE
  8
0
 10
-134.649
 20
1247.84
 11
-134.843
 21
1247.24
  0
LINE
  8
0
 10
-134.843
 20
1247.24
 11
-134.961
 21
1246.63
  0
LINE
  8
0
 10
-134.961
 20
1246.63
 11
-135
 21
1246
  0
LINE
  8
0
 10
-135
 20
1246
 11
-135
 21
986
  0
LINE
  8
0
 10
-135
 20
986
 11
-134.961
 21
985.373
  0
LINE
  8
0
 10
-134.961
 20
985.373
 11
-134.843
 21
984.757
  0
LINE
  8
0
 10
-134.843
 20
984.757
 11
-134.649
 21
984.159
  0
LINE
  8
0
 10
-134.649
 20
984.159
 11
-134.382
 21
983.591
  0
LINE
  8
0
 10
-134.382
 20
983.591
 11
-134.045
 21
983.061
  0
LINE
  8
0
 10
-134.045
 20
983.061
 11
-133.645
 21
982.577
  0
LINE
  8
0
 10
-133.645
 20
982.577
 11
-133.187
 21
982.147
  0
LINE
  8
0
 10
-133.187
 20
982.147
 11
-132.679
 21
981.778
  0
LINE
  8
0
 10
-132.679
 20
981.778
 11
-132.129
 21
981.476
  0
LINE
  8
0
 10
-132.129
 20
981.476
 11
-131.545
 21
981.245
  0
LINE
  8
0
 10
-131.545
 20
981.245
 11
-130.937
 21
981.089
  0
LINE
  8
0
 10
-130.937
 20
981.089
 11
-130.314
 21
981.01
  0
LINE
  8
0
 10
-130.314
 20
981.01
 11
130.314
 21
981.01
  0
LINE
  8
0
 10
130.314
 20
981.01
 11
130.937
 21
981.089
  0
LINE
  8
0
 10
-130.048
 20
981.509
 11
-130.64
 21
981.584
  0
LINE
  8
0
 10
-130.64
 20
981.584
 11
-131.218
 21
981.732
  0
LINE
  8
0
 10
-131.218
 20
981.732
 11
-131.772
 21
981.952
  0
LINE
  8
0
 10
-131.772
 20
981.952
 11
-132.295
 21
982.239
  0
LINE
  8
0
 10
-132.295
 20
982.239
 11
-132.778
 21
982.59
  0
LINE
  8
0
 10
-132.778
 20
982.59
 11
-133.213
 21
982.998
  0
LINE
  8
0
 10
-133.213
 20
982.998
 11
-133.593
 21
983.458
  0
LINE
  8
0
 10
-133.593
 20
983.458
 11
-133.912
 21
983.962
  0
LINE
  8
0
 10
-133.912
 20
983.962
 11
-134.166
 21
984.501
  0
LINE
  8
0
 10
-134.166
 20
984.501
 11
-134.351
 21
985.069
  0
LINE
  8
0
 10
-134.351
 20
985.069
 11
-134.463
 21
985.655
  0
LINE
  8
0
 10
-134.463
 20
985.655
 11
-134.5
 21
986.25
  0
LINE
  8
0
 10
-134.5
 20
986.25
 11
-134.5
 21
1245.75
  0
LINE
  8
0
 10
-134.5
 20
1245.75
 11
-134.463
 21
1246.35
  0
LINE
  8
0
 10
-134.463
 20
1246.35
 11
-134.351
 21
1246.93
  0
LINE
  8
0
 10
-134.351
 20
1246.93
 11
-134.166
 21
1247.5
  0
LINE
  8
0
 10
-134.166
 20
1247.5
 11
-133.912
 21
1248.04
  0
LINE
  8
0
 10
-133.912
 20
1248.04
 11
-133.593
 21
1248.54
  0
LINE
  8
0
 10
-133.593
 20
1248.54
 11
-133.213
 21
1249
  0
LINE
  8
0
 10
-133.213
 20
1249
 11
-132.778
 21
1249.41
  0
LINE
  8
0
 10
-132.778
 20
1249.41
 11
-132.295
 21
1249.76
  0
LINE
  8
0
 10
-132.295
 20
1249.76
 11
-131.772
 21
1250.05
  0
LINE
  8
0
 10
-131.772
 20
1250.05
 11
-131.218
 21
1250.27
  0
LINE
  8
0
 10
-131.218
 20
1250.27
 11
-130.64
 21
1250.42
  0
LINE
  8
0
 10
-130.64
 20
1250.42
 11
-130.048
 21
1250.49
  0
LINE
  8
0
 10
-130.048
 20
1250.49
 11
130.048
 21
1250.49
  0
LINE
  8
0
 10
130.048
 20
1250.49
 11
130.64
 21
1250.42
  0
LINE
  8
0
 10
130.64
 20
1250.42
 11
131.218
 21
1250.27
  0
LINE
  8
0
 10
131.218
 20
1250.27
 11
131.772
 21
1250.05
  0
LINE
  8
0
 10
131.772
 20
1250.05
 11
132.295
 21
1249.76
  0
LINE
  8
0
 10
132.295
 20
1249.76
 11
132.778
 21
1249.41
  0
LINE
  8
0
 10
132.778
 20
1249.41
 11
133.213
 21
1249
  0
LINE
  8
0
 10
133.213
 20
1249
 11
133.593
 21
1248.54
  0
LINE
  8
0
 10
133.593
 20
1248.54
 11
133.912
 21
1248.04
  0
LINE
  8
0
 10
133.912
 20
1248.04
 11
134.166
 21
1247.5
  0
LINE
  8
0
 10
134.166
 20
1247.5
 11
134.351
 21
1246.93
  0
LINE
  8
0
 10
134.351
 20
1246.93
 11
134.463
 21
1246.35
  0
LINE
  8
0
 10
134.463
 20
1246.35
 11
134.5
 21
1245.75
  0
LINE
  8
0
 10
134.5
 20
1245.75
 11
134.5
 21
986.25
  0
LINE
  8
0
 10
134.5
 20
986.25
 11
134.463
 21
985.655
  0
LINE
  8
0
 10
134.463
 20
985.655
 11
134.351
 21
985.069
  0
LINE
  8
0
 10
134.351
 20
985.069
 11
134.166
 21
984.501
  0
LINE
  8
0
 10
134.166
 20
984.501
 11
133.912
 21
983.962
  0
LINE
  8
0
 10
133.912
 20
983.962
 11
133.593
 21
983.458
  0
LINE
  8
0
 10
133.593
 20
983.458
 11
133.213
 21
982.998
  0
LINE
  8
0
 10
133.213
 20
982.998
 11
132.778
 21
982.59
  0
LINE
  8
0
 10
132.778
 20
982.59
 11
132.295
 21
982.239
  0
LINE
  8
0
 10
132.295
 20
982.239
 11
131.772
 21
981.952
  0
LINE
  8
0
 10
131.772
 20
981.952
 11
131.218
 21
981.732
  0
LINE
  8
0
 10
131.218
 20
981.732
 11
130.64
 21
981.584
  0
LINE
  8
0
 10
130.64
 20
981.584
 11
130.048
 21
981.509
  0
LINE
  8
0
 10
130.048
 20
981.509
 11
-130.048
 21
981.509
  0
LINE
  8
0
 10
130.937
 20
702.089
 11
131.545
 21
702.245
  0
LINE
  8
0
 10
131.545
 20
702.245
 11
132.129
 21
702.476
  0
LINE
  8
0
 10
132.129
 20
702.476
 11
132.679
 21
702.778
  0
LINE
  8
0
 10
132.679
 20
702.778
 11
133.187
 21
703.147
  0
LINE
  8
0
 10
133.187
 20
703.147
 11
133.645
 21
703.577
  0
LINE
  8
0
 10
133.645
 20
703.577
 11
134.045
 21
704.061
  0
LINE
  8
0
 10
134.045
 20
704.061
 11
134.382
 21
704.591
  0
LINE
  8
0
 10
134.382
 20
704.591
 11
134.649
 21
705.159
  0
LINE
  8
0
 10
134.649
 20
705.159
 11
134.843
 21
705.757
  0
LINE
  8
0
 10
134.843
 20
705.757
 11
134.961
 21
706.373
  0
LINE
  8
0
 10
134.961
 20
706.373
 11
135
 21
707
  0
LINE
  8
0
 10
135
 20
707
 11
135
 21
967
  0
LINE
  8
0
 10
135
 20
967
 11
134.961
 21
967.627
  0
LINE
  8
0
 10
134.961
 20
967.627
 11
134.843
 21
968.243
  0
LINE
  8
0
 10
134.843
 20
968.243
 11
134.649
 21
968.841
  0
LINE
  8
0
 10
134.649
 20
968.841
 11
134.382
 21
969.409
  0
LINE
  8
0
 10
134.382
 20
969.409
 11
134.045
 21
969.939
  0
LINE
  8
0
 10
134.045
 20
969.939
 11
133.645
 21
970.423
  0
LINE
  8
0
 10
133.645
 20
970.423
 11
133.187
 21
970.853
  0
LINE
  8
0
 10
133.187
 20
970.853
 11
132.679
 21
971.222
  0
LINE
  8
0
 10
132.679
 20
971.222
 11
132.129
 21
971.524
  0
LINE
  8
0
 10
132.129
 20
971.524
 11
131.545
 21
971.755
  0
LINE
  8
0
 10
131.545
 20
971.755
 11
130.937
 21
971.911
  0
LINE
  8
0
 10
130.937
 20
971.911
 11
130.314
 21
971.99
  0
LINE
  8
0
 10
130.314
 20
971.99
 11
-130.314
 21
971.99
  0
LINE
  8
0
 10
-130.314
 20
971.99
 11
-130.937
 21
971.911
  0
LINE
  8
0
 10
-130.937
 20
971.911
 11
-131.545
 21
971.755
  0
LINE
  8
0
 10
-131.545
 20
971.755
 11
-132.129
 21
971.524
  0
LINE
  8
0
 10
-132.129
 20
971.524
 11
-132.679
 21
971.222
  0
LINE
  8
0
 10
-132.679
 20
971.222
 11
-133.187
 21
970.853
  0
LINE
  8
0
 10
-133.187
 20
970.853
 11
-133.645
 21
970.423
  0
LINE
  8
0
 10
-133.645
 20
970.423
 11
-134.045
 21
969.939
  0
LINE
  8
0
 10
-134.045
 20
969.939
 11
-134.382
 21
969.409
  0
LINE
  8
0
 10
-134.382
 20
969.409
 11
-134.649
 21
968.841
  0
LINE
  8
0
 10
-134.649
 20
968.841
 11
-134.843
 21
968.243
  0
LINE
  8
0
 10
-134.843
 20
968.243
 11
-134.961
 21
967.627
  0
LINE
  8
0
 10
-134.961
 20
967.627
 11
-135
 21
967
  0
LINE
  8
0
 10
-135
 20
967
 11
-135
 21
707
  0
LINE
  8
0
 10
-135
 20
707
 11
-134.961
 21
706.373
  0
LINE
  8
0
 10
-134.961
 20
706.373
 11
-134.843
 21
705.757
  0
LINE
  8
0
 10
-134.843
 20
705.757
 11
-134.649
 21
705.159
  0
LINE
  8
0
 10
-134.649
 20
705.159
 11
-134.382
 21
704.591
  0
LINE
  8
0
 10
-134.382
 20
704.591
 11
-134.045
 21
704.061
  0
LINE
  8
0
 10
-134.045
 20
704.061
 11
-133.645
 21
703.577
  0
LINE
  8
0
 10
-133.645
 20
703.577
 11
-133.187
 21
703.147
  0
LINE
  8
0
 10
-133.187
 20
703.147
 11
-132.679
 21
702.778
  0
LINE
  8
0
 10
-132.679
 20
702.778
 11
-132.129
 21
702.476
  0
LINE
  8
0
 10
-132.129
 20
702.476
 11
-131.545
 21
702.245
  0
LINE
  8
0
 10
-131.545
 20
702.245
 11
-130.937
 21
702.089
  0
LINE
  8
0
 10
-130.937
 20
702.089
 11
-130.314
 21
702.01
  0
LINE
  8
0
 10
-130.314
 20
702.01
 11
130.314
 21
702.01
  0
LINE
  8
0
 10
130.314
 20
702.01
 11
130.937
 21
702.089
  0
LINE
  8
0
 10
-129.993
 20
703.388
 11
-130.475
 21
703.449
  0
LINE
  8
0
 10
-130.475
 20
703.449
 11
-130.946
 21
703.57
  0
LINE
  8
0
 10
-130.946
 20
703.57
 11
-131.398
 21
703.749
  0
LINE
  8
0
 10
-131.398
 20
703.749
 11
-131.823
 21
703.983
  0
LINE
  8
0
 10
-131.823
 20
703.983
 11
-132.216
 21
704.269
  0
LINE
  8
0
 10
-132.216
 20
704.269
 11
-132.571
 21
704.601
  0
LINE
  8
0
 10
-132.571
 20
704.601
 11
-132.88
 21
704.976
  0
LINE
  8
0
 10
-132.88
 20
704.976
 11
-133.141
 21
705.386
  0
LINE
  8
0
 10
-133.141
 20
705.386
 11
-133.348
 21
705.826
  0
LINE
  8
0
 10
-133.348
 20
705.826
 11
-133.498
 21
706.288
  0
LINE
  8
0
 10
-133.498
 20
706.288
 11
-133.589
 21
706.765
  0
LINE
  8
0
 10
-133.589
 20
706.765
 11
-133.619
 21
707.25
  0
LINE
  8
0
 10
-133.619
 20
707.25
 11
-133.619
 21
966.75
  0
LINE
  8
0
 10
-133.619
 20
966.75
 11
-133.589
 21
967.235
  0
LINE
  8
0
 10
-133.589
 20
967.235
 11
-133.498
 21
967.712
  0
LINE
  8
0
 10
-133.498
 20
967.712
 11
-133.348
 21
968.174
  0
LINE
  8
0
 10
-133.348
 20
968.174
 11
-133.141
 21
968.614
  0
LINE
  8
0
 10
-133.141
 20
968.614
 11
-132.88
 21
969.024
  0
LINE
  8
0
 10
-132.88
 20
969.024
 11
-132.571
 21
969.399
  0
LINE
  8
0
 10
-132.571
 20
969.399
 11
-132.216
 21
969.731
  0
LINE
  8
0
 10
-132.216
 20
969.731
 11
-131.823
 21
970.017
  0
LINE
  8
0
 10
-131.823
 20
970.017
 11
-131.398
 21
970.251
  0
LINE
  8
0
 10
-131.398
 20
970.251
 11
-130.946
 21
970.43
  0
LINE
  8
0
 10
-130.946
 20
970.43
 11
-130.475
 21
970.551
  0
LINE
  8
0
 10
-130.475
 20
970.551
 11
-129.993
 21
970.612
  0
LINE
  8
0
 10
-129.993
 20
970.612
 11
129.993
 21
970.612
  0
LINE
  8
0
 10
129.993
 20
970.612
 11
130.475
 21
970.551
  0
LINE
  8
0
 10
130.475
 20
970.551
 11
130.946
 21
970.43
  0
LINE
  8
0
 10
130.946
 20
970.43
 11
131.398
 21
970.251
  0
LINE
  8
0
 10
131.398
 20
970.251
 11
131.823
 21
970.017
  0
LINE
  8
0
 10
131.823
 20
970.017
 11
132.216
 21
969.731
  0
LINE
  8
0
 10
132.216
 20
969.731
 11
132.571
 21
969.399
  0
LINE
  8
0
 10
132.571
 20
969.399
 11
132.88
 21
969.024
  0
LINE
  8
0
 10
132.88
 20
969.024
 11
133.141
 21
968.614
  0
LINE
  8
0
 10
133.141
 20
968.614
 11
133.348
 21
968.174
  0
LINE
  8
0
 10
133.348
 20
968.174
 11
133.498
 21
967.712
  0
LINE
  8
0
 10
133.498
 20
967.712
 11
133.589
 21
967.235
  0
LINE
  8
0
 10
133.589
 20
967.235
 11
133.619
 21
966.75
  0
LINE
  8
0
 10
133.619
 20
966.75
 11
133.619
 21
707.25
  0
LINE
  8
0
 10
133.619
 20
707.25
 11
133.589
 21
706.765
  0
LINE
  8
0
 10
133.589
 20
706.765
 11
133.498
 21
706.288
  0
LINE
  8
0
 10
133.498
 20
706.288
 11
133.348
 21
705.826
  0
LINE
  8
0
 10
133.348
 20
705.826
 11
133.141
 21
705.386
  0
LINE
  8
0
 10
133.141
 20
705.386
 11
132.88
 21
704.976
  0
LINE
  8
0
 10
132.88
 20
704.976
 11
132.571
 21
704.601
  0
LINE
  8
0
 10
132.571
 20
704.601
 11
132.216
 21
704.269
  0
LINE
  8
0
 10
132.216
 20
704.269
 11
131.823
 21
703.983
  0
LINE
  8
0
 10
131.823
 20
703.983
 11
131.398
 21
703.749
  0
LINE
  8
0
 10
131.398
 20
703.749
 11
130.946
 21
703.57
  0
LINE
  8
0
 10
130.946
 20
703.57
 11
130.475
 21
703.449
  0
LINE
  8
0
 10
130.475
 20
703.449
 11
129.993
 21
703.388
  0
LINE
  8
0
 10
129.993
 20
703.388
 11
-129.993
 21
703.388
  0
LINE
  8
0
 10
130.937
 20
423.089
 11
131.545
 21
423.245
  0
LINE
  8
0
 10
131.545
 20
423.245
 11
132.129
 21
423.476
  0
LINE
  8
0
 10
132.129
 20
423.476
 11
132.679
 21
423.778
  0
LINE
  8
0
 10
132.679
 20
423.778
 11
133.187
 21
424.147
  0
LINE
  8
0
 10
133.187
 20
424.147
 11
133.645
 21
424.577
  0
LINE
  8
0
 10
133.645
 20
424.577
 11
134.045
 21
425.061
  0
LINE
  8
0
 10
134.045
 20
425.061
 11
134.382
 21
425.591
  0
LINE
  8
0
 10
134.382
 20
425.591
 11
134.649
 21
426.159
  0
LINE
  8
0
 10
134.649
 20
426.159
 11
134.843
 21
426.757
  0
LINE
  8
0
 10
134.843
 20
426.757
 11
134.961
 21
427.373
  0
LINE
  8
0
 10
134.961
 20
427.373
 11
135
 21
428
  0
LINE
  8
0
 10
135
 20
428
 11
135
 21
688
  0
LINE
  8
0
 10
135
 20
688
 11
134.961
 21
688.627
  0
LINE
  8
0
 10
134.961
 20
688.627
 11
134.843
 21
689.243
  0
LINE
  8
0
 10
134.843
 20
689.243
 11
134.649
 21
689.841
  0
LINE
  8
0
 10
134.649
 20
689.841
 11
134.382
 21
690.409
  0
LINE
  8
0
 10
134.382
 20
690.409
 11
134.045
 21
690.939
  0
LINE
  8
0
 10
134.045
 20
690.939
 11
133.645
 21
691.423
  0
LINE
  8
0
 10
133.645
 20
691.423
 11
133.187
 21
691.853
  0
LINE
  8
0
 10
133.187
 20
691.853
 11
132.679
 21
692.222
  0
LINE
  8
0
 10
132.679
 20
692.222
 11
132.129
 21
692.524
  0
LINE
  8
0
 10
132.129
 20
692.524
 11
131.545
 21
692.755
  0
LINE
  8
0
 10
131.545
 20
692.755
 11
130.937
 21
692.911
  0
LINE
  8
0
 10
130.937
 20
692.911
 11
130.314
 21
692.99
  0
LINE
  8
0
 10
130.314
 20
692.99
 11
-130.314
 21
692.99
  0
LINE
  8
0
 10
-130.314
 20
692.99
 11
-130.937
 21
692.911
  0
LINE
  8
0
 10
-130.937
 20
692.911
 11
-131.545
 21
692.755
  0
LINE
  8
0
 10
-131.545
 20
692.755
 11
-132.129
 21
692.524
  0
LINE
  8
0
 10
-132.129
 20
692.524
 11
-132.679
 21
692.222
  0
LINE
  8
0
 10
-132.679
 20
692.222
 11
-133.187
 21
691.853
  0
LINE
  8
0
 10
-133.187
 20
691.853
 11
-133.645
 21
691.423
  0
LINE
  8
0
 10
-133.645
 20
691.423
 11
-134.045
 21
690.939
  0
LINE
  8
0
 10
-134.045
 20
690.939
 11
-134.382
 21
690.409
  0
LINE
  8
0
 10
-134.382
 20
690.409
 11
-134.649
 21
689.841
  0
LINE
  8
0
 10
-134.649
 20
689.841
 11
-134.843
 21
689.243
  0
LINE
  8
0
 10
-134.843
 20
689.243
 11
-134.961
 21
688.627
  0
LINE
  8
0
 10
-134.961
 20
688.627
 11
-135
 21
688
  0
LINE
  8
0
 10
-135
 20
688
 11
-135
 21
428
  0
LINE
  8
0
 10
-135
 20
428
 11
-134.961
 21
427.373
  0
LINE
  8
0
 10
-134.961
 20
427.373
 11
-134.843
 21
426.757
  0
LINE
  8
0
 10
-134.843
 20
426.757
 11
-134.649
 21
426.159
  0
LINE
  8
0
 10
-134.649
 20
426.159
 11
-134.382
 21
425.591
  0
LINE
  8
0
 10
-134.382
 20
425.591
 11
-134.045
 21
425.061
  0
LINE
  8
0
 10
-134.045
 20
425.061
 11
-133.645
 21
424.577
  0
LINE
  8
0
 10
-133.645
 20
424.577
 11
-133.187
 21
424.147
  0
LINE
  8
0
 10
-133.187
 20
424.147
 11
-132.679
 21
423.778
  0
LINE
  8
0
 10
-132.679
 20
423.778
 11
-132.129
 21
423.476
  0
LINE
  8
0
 10
-132.129
 20
423.476
 11
-131.545
 21
423.245
  0
LINE
  8
0
 10
-131.545
 20
423.245
 11
-130.937
 21
423.089
  0
LINE
  8
0
 10
-130.937
 20
423.089
 11
-130.314
 21
423.01
  0
LINE
  8
0
 10
-130.314
 20
423.01
 11
130.314
 21
423.01
  0
LINE
  8
0
 10
130.314
 20
423.01
 11
130.937
 21
423.089
  0
LINE
  8
0
 10
127.387
 20
683.704
 11
127.163
 21
683.732
  0
LINE
  8
0
 10
127.163
 20
683.732
 11
126.944
 21
683.788
  0
LINE
  8
0
 10
126.944
 20
683.788
 11
126.734
 21
683.871
  0
LINE
  8
0
 10
126.734
 20
683.871
 11
126.536
 21
683.98
  0
LINE
  8
0
 10
126.536
 20
683.98
 11
126.353
 21
684.113
  0
LINE
  8
0
 10
126.353
 20
684.113
 11
126.188
 21
684.268
  0
LINE
  8
0
 10
126.188
 20
684.268
 11
126.044
 21
684.442
  0
LINE
  8
0
 10
126.044
 20
684.442
 11
125.923
 21
684.633
  0
LINE
  8
0
 10
125.923
 20
684.633
 11
125.826
 21
684.837
  0
LINE
  8
0
 10
125.826
 20
684.837
 11
125.757
 21
685.052
  0
LINE
  8
0
 10
125.757
 20
685.052
 11
125.714
 21
685.274
  0
LINE
  8
0
 10
125.714
 20
685.274
 11
125.7
 21
685.5
  0
LINE
  8
0
 10
125.7
 20
685.5
 11
125.714
 21
685.726
  0
LINE
  8
0
 10
125.714
 20
685.726
 11
125.757
 21
685.948
  0
LINE
  8
0
 10
125.757
 20
685.948
 11
125.826
 21
686.163
  0
LINE
  8
0
 10
125.826
 20
686.163
 11
125.923
 21
686.367
  0
LINE
  8
0
 10
125.923
 20
686.367
 11
126.044
 21
686.558
  0
LINE
  8
0
 10
126.044
 20
686.558
 11
126.188
 21
686.732
  0
LINE
  8
0
 10
126.188
 20
686.732
 11
126.353
 21
686.887
  0
LINE
  8
0
 10
126.353
 20
686.887
 11
126.536
 21
687.02
  0
LINE
  8
0
 10
126.536
 20
687.02
 11
126.734
 21
687.129
  0
LINE
  8
0
 10
126.734
 20
687.129
 11
126.944
 21
687.212
  0
LINE
  8
0
 10
126.944
 20
687.212
 11
127.163
 21
687.268
  0
LINE
  8
0
 10
127.163
 20
687.268
 11
127.387
 21
687.296
  0
LINE
  8
0
 10
127.387
 20
687.296
 11
127.613
 21
687.296
  0
LINE
  8
0
 10
127.613
 20
687.296
 11
127.837
 21
687.268
  0
LINE
  8
0
 10
127.837
 20
687.268
 11
128.056
 21
687.212
  0
LINE
  8
0
 10
128.056
 20
687.212
 11
128.266
 21
687.129
  0
LINE
  8
0
 10
128.266
 20
687.129
 11
128.464
 21
687.02
  0
LINE
  8
0
 10
128.464
 20
687.02
 11
128.647
 21
686.887
  0
LINE
  8
0
 10
128.647
 20
686.887
 11
128.812
 21
686.732
  0
LINE
  8
0
 10
128.812
 20
686.732
 11
128.956
 21
686.558
  0
LINE
  8
0
 10
128.956
 20
686.558
 11
129.077
 21
686.367
  0
LINE
  8
0
 10
129.077
 20
686.367
 11
129.174
 21
686.163
  0
LINE
  8
0
 10
129.174
 20
686.163
 11
129.243
 21
685.948
  0
LINE
  8
0
 10
129.243
 20
685.948
 11
129.286
 21
685.726
  0
LINE
  8
0
 10
129.286
 20
685.726
 11
129.3
 21
685.5
  0
LINE
  8
0
 10
129.3
 20
685.5
 11
129.286
 21
685.274
  0
LINE
  8
0
 10
129.286
 20
685.274
 11
129.243
 21
685.052
  0
LINE
  8
0
 10
129.243
 20
685.052
 11
129.174
 21
684.837
  0
LINE
  8
0
 10
129.174
 20
684.837
 11
129.077
 21
684.633
  0
LINE
  8
0
 10
129.077
 20
684.633
 11
128.956
 21
684.442
  0
LINE
  8
0
 10
128.956
 20
684.442
 11
128.812
 21
684.268
  0
LINE
  8
0
 10
128.812
 20
684.268
 11
128.647
 21
684.113
  0
LINE
  8
0
 10
128.647
 20
684.113
 11
128.464
 21
683.98
  0
LINE
  8
0
 10
128.464
 20
683.98
 11
128.266
 21
683.871
  0
LINE
  8
0
 10
128.266
 20
683.871
 11
128.056
 21
683.788
  0
LINE
  8
0
 10
128.056
 20
683.788
 11
127.837
 21
683.732
  0
LINE
  8
0
 10
127.837
 20
683.732
 11
127.613
 21
683.704
  0
LINE
  8
0
 10
127.613
 20
683.704
 11
127.387
 21
683.704
  0
LINE
  8
0
 10
-127.613
 20
683.704
 11
-127.837
 21
683.732
  0
LINE
  8
0
 10
-127.837
 20
683.732
 11
-128.056
 21
683.788
  0
LINE
  8
0
 10
-128.056
 20
683.788
 11
-128.266
 21
683.871
  0
LINE
  8
0
 10
-128.266
 20
683.871
 11
-128.464
 21
683.98
  0
LINE
  8
0
 10
-128.464
 20
683.98
 11
-128.647
 21
684.113
  0
LINE
  8
0
 10
-128.647
 20
684.113
 11
-128.812
 21
684.268
  0
LINE
  8
0
 10
-128.812
 20
684.268
 11
-128.956
 21
684.442
  0
LINE
  8
0
 10
-128.956
 20
684.442
 11
-129.077
 21
684.633
  0
LINE
  8
0
 10
-129.077
 20
684.633
 11
-129.174
 21
684.837
  0
LINE
  8
0
 10
-129.174
 20
684.837
 11
-129.243
 21
685.052
  0
LINE
  8
0
 10
-129.243
 20
685.052
 11
-129.286
 21
685.274
  0
LINE
  8
0
 10
-129.286
 20
685.274
 11
-129.3
 21
685.5
  0
LINE
  8
0
 10
-129.3
 20
685.5
 11
-129.286
 21
685.726
  0
LINE
  8
0
 10
-129.286
 20
685.726
 11
-129.243
 21
685.948
  0
LINE
  8
0
 10
-129.243
 20
685.948
 11
-129.174
 21
686.163
  0
LINE
  8
0
 10
-129.174
 20
686.163
 11
-129.077
 21
686.367
  0
LINE
  8
0
 10
-129.077
 20
686.367
 11
-128.956
 21
686.558
  0
LINE
  8
0
 10
-128.956
 20
686.558
 11
-128.812
 21
686.732
  0
LINE
  8
0
 10
-128.812
 20
686.732
 11
-128.647
 21
686.887
  0
LINE
  8
0
 10
-128.647
 20
686.887
 11
-128.464
 21
687.02
  0
LINE
  8
0
 10
-128.464
 20
687.02
 11
-128.266
 21
687.129
  0
LINE
  8
0
 10
-128.266
 20
687.129
 11
-128.056
 21
687.212
  0
LINE
  8
0
 10
-128.056
 20
687.212
 11
-127.837
 21
687.268
  0
LINE
  8
0
 10
-127.837
 20
687.268
 11
-127.613
 21
687.296
  0
LINE
  8
0
 10
-127.613
 20
687.296
 11
-127.387
 21
687.296
  0
LINE
  8
0
 10
-127.387
 20
687.296
 11
-127.163
 21
687.268
  0
LINE
  8
0
 10
-127.163
 20
687.268
 11
-126.944
 21
687.212
  0
LINE
  8
0
 10
-126.944
 20
687.212
 11
-126.734
 21
687.129
  0
LINE
  8
0
 10
-126.734
 20
687.129
 11
-126.536
 21
687.02
  0
LINE
  8
0
 10
-126.536
 20
687.02
 11
-126.353
 21
686.887
  0
LINE
  8
0
 10
-126.353
 20
686.887
 11
-126.188
 21
686.732
  0
LINE
  8
0
 10
-126.188
 20
686.732
 11
-126.044
 21
686.558
  0
LINE
  8
0
 10
-126.044
 20
686.558
 11
-125.923
 21
686.367
  0
LINE
  8
0
 10
-125.923
 20
686.367
 11
-125.826
 21
686.163
  0
LINE
  8
0
 10
-125.826
 20
686.163
 11
-125.757
 21
685.948
  0
LINE
  8
0
 10
-125.757
 20
685.948
 11
-125.714
 21
685.726
  0
LINE
  8
0
 10
-125.714
 20
685.726
 11
-125.7
 21
685.5
  0
LINE
  8
0
 10
-125.7
 20
685.5
 11
-125.714
 21
685.274
  0
LINE
  8
0
 10
-125.714
 20
685.274
 11
-125.757
 21
685.052
  0
LINE
  8
0
 10
-125.757
 20
685.052
 11
-125.826
 21
684.837
  0
LINE
  8
0
 10
-125.826
 20
684.837
 11
-125.923
 21
684.633
  0
LINE
  8
0
 10
-125.923
 20
684.633
 11
-126.044
 21
684.442
  0
LINE
  8
0
 10
-126.044
 20
684.442
 11
-126.188
 21
684.268
  0
LINE
  8
0
 10
-126.188
 20
684.268
 11
-126.353
 21
684.113
  0
LINE
  8
0
 10
-126.353
 20
684.113
 11
-126.536
 21
683.98
  0
LINE
  8
0
 10
-126.536
 20
683.98
 11
-126.734
 21
683.871
  0
LINE
  8
0
 10
-126.734
 20
683.871
 11
-126.944
 21
683.788
  0
LINE
  8
0
 10
-126.944
 20
683.788
 11
-127.163
 21
683.732
  0
LINE
  8
0
 10
-127.163
 20
683.732
 11
-127.387
 21
683.704
  0
LINE
  8
0
 10
-127.387
 20
683.704
 11
-127.613
 21
683.704
  0
LINE
  8
0
 10
-127.613
 20
428.704
 11
-127.837
 21
428.732
  0
LINE
  8
0
 10
-127.837
 20
428.732
 11
-128.056
 21
428.788
  0
LINE
  8
0
 10
-128.056
 20
428.788
 11
-128.266
 21
428.871
  0
LINE
  8
0
 10
-128.266
 20
428.871
 11
-128.464
 21
428.98
  0
LINE
  8
0
 10
-128.464
 20
428.98
 11
-128.647
 21
429.113
  0
LINE
  8
0
 10
-128.647
 20
429.113
 11
-128.812
 21
429.268
  0
LINE
  8
0
 10
-128.812
 20
429.268
 11
-128.956
 21
429.442
  0
LINE
  8
0
 10
-128.956
 20
429.442
 11
-129.077
 21
429.633
  0
LINE
  8
0
 10
-129.077
 20
429.633
 11
-129.174
 21
429.837
  0
LINE
  8
0
 10
-129.174
 20
429.837
 11
-129.243
 21
430.052
  0
LINE
  8
0
 10
-129.243
 20
430.052
 11
-129.286
 21
430.274
  0
LINE
  8
0
 10
-129.286
 20
430.274
 11
-129.3
 21
430.5
  0
LINE
  8
0
 10
-129.3
 20
430.5
 11
-129.286
 21
430.726
  0
LINE
  8
0
 10
-129.286
 20
430.726
 11
-129.243
 21
430.948
  0
LINE
  8
0
 10
-129.243
 20
430.948
 11
-129.174
 21
431.163
  0
LINE
  8
0
 10
-129.174
 20
431.163
 11
-129.077
 21
431.367
  0
LINE
  8
0
 10
-129.077
 20
431.367
 11
-128.956
 21
431.558
  0
LINE
  8
0
 10
-128.956
 20
431.558
 11
-128.812
 21
431.732
  0
LINE
  8
0
 10
-128.812
 20
431.732
 11
-128.647
 21
431.887
  0
LINE
  8
0
 10
-128.647
 20
431.887
 11
-128.464
 21
432.02
  0
LINE
  8
0
 10
-128.464
 20
432.02
 11
-128.266
 21
432.129
  0
LINE
  8
0
 10
-128.266
 20
432.129
 11
-128.056
 21
432.212
  0
LINE
  8
0
 10
-128.056
 20
432.212
 11
-127.837
 21
432.268
  0
LINE
  8
0
 10
-127.837
 20
432.268
 11
-127.613
 21
432.296
  0
LINE
  8
0
 10
-127.613
 20
432.296
 11
-127.387
 21
432.296
  0
LINE
  8
0
 10
-127.387
 20
432.296
 11
-127.163
 21
432.268
  0
LINE
  8
0
 10
-127.163
 20
432.268
 11
-126.944
 21
432.212
  0
LINE
  8
0
 10
-126.944
 20
432.212
 11
-126.734
 21
432.129
  0
LINE
  8
0
 10
-126.734
 20
432.129
 11
-126.536
 21
432.02
  0
LINE
  8
0
 10
-126.536
 20
432.02
 11
-126.353
 21
431.887
  0
LINE
  8
0
 10
-126.353
 20
431.887
 11
-126.188
 21
431.732
  0
LINE
  8
0
 10
-126.188
 20
431.732
 11
-126.044
 21
431.558
  0
LINE
  8
0
 10
-126.044
 20
431.558
 11
-125.923
 21
431.367
  0
LINE
  8
0
 10
-125.923
 20
431.367
 11
-125.826
 21
431.163
  0
LINE
  8
0
 10
-125.826
 20
431.163
 11
-125.757
 21
430.948
  0
LINE
  8
0
 10
-125.757
 20
430.948
 11
-125.714
 21
430.726
  0
LINE
  8
0
 10
-125.714
 20
430.726
 11
-125.7
 21
430.5
  0
LINE
  8
0
 10
-125.7
 20
430.5
 11
-125.714
 21
430.274
  0
LINE
  8
0
 10
-125.714
 20
430.274
 11
-125.757
 21
430.052
  0
LINE
  8
0
 10
-125.757
 20
430.052
 11
-125.826
 21
429.837
  0
LINE
  8
0
 10
-125.826
 20
429.837
 11
-125.923
 21
429.633
  0
LINE
  8
0
 10
-125.923
 20
429.633
 11
-126.044
 21
429.442
  0
LINE
  8
0
 10
-126.044
 20
429.442
 11
-126.188
 21
429.268
  0
LINE
  8
0
 10
-126.188
 20
429.268
 11
-126.353
 21
429.113
  0
LINE
  8
0
 10
-126.353
 20
429.113
 11
-126.536
 21
428.98
  0
LINE
  8
0
 10
-126.536
 20
428.98
 11
-126.734
 21
428.871
  0
LINE
  8
0
 10
-126.734
 20
428.871
 11
-126.944
 21
428.788
  0
LINE
  8
0
 10
-126.944
 20
428.788
 11
-127.163
 21
428.732
  0
LINE
  8
0
 10
-127.163
 20
428.732
 11
-127.387
 21
428.704
  0
LINE
  8
0
 10
-127.387
 20
428.704
 11
-127.613
 21
428.704
  0
LINE
  8
0
 10
127.387
 20
428.704
 11
127.163
 21
428.732
  0
LINE
  8
0
 10
127.163
 20
428.732
 11
126.944
 21
428.788
  0
LINE
  8
0
 10
126.944
 20
428.788
 11
126.734
 21
428.871
  0
LINE
  8
0
 10
126.734
 20
428.871
 11
126.536
 21
428.98
  0
LINE
  8
0
 10
126.536
 20
428.98
 11
126.353
 21
429.113
  0
LINE
  8
0
 10
126.353
 20
429.113
 11
126.188
 21
429.268
  0
LINE
  8
0
 10
126.188
 20
429.268
 11
126.044
 21
429.442
  0
LINE
  8
0
 10
126.044
 20
429.442
 11
125.923
 21
429.633
  0
LINE
  8
0
 10
125.923
 20
429.633
 11
125.826
 21
429.837
  0
LINE
  8
0
 10
125.826
 20
429.837
 11
125.757
 21
430.052
  0
LINE
  8
0
 10
125.757
 20
430.052
 11
125.714
 21
430.274
  0
LINE
  8
0
 10
125.714
 20
430.274
 11
125.7
 21
430.5
  0
LINE
  8
0
 10
125.7
 20
430.5
 11
125.714
 21
430.726
  0
LINE
  8
0
 10
125.714
 20
430.726
 11
125.757
 21
430.948
  0
LINE
  8
0
 10
125.757
 20
430.948
 11
125.826
 21
431.163
  0
LINE
  8
0
 10
125.826
 20
431.163
 11
125.923
 21
431.367
  0
LINE
  8
0
 10
125.923
 20
431.367
 11
126.044
 21
431.558
  0
LINE
  8
0
 10
126.044
 20
431.558
 11
126.188
 21
431.732
  0
LINE
  8
0
 10
126.188
 20
431.732
 11
126.353
 21
431.887
  0
LINE
  8
0
 10
126.353
 20
431.887
 11
126.536
 21
432.02
  0
LINE
  8
0
 10
126.536
 20
432.02
 11
126.734
 21
432.129
  0
LINE
  8
0
 10
126.734
 20
432.129
 11
126.944
 21
432.212
  0
LINE
  8
0
 10
126.944
 20
432.212
 11
127.163
 21
432.268
  0
LINE
  8
0
 10
127.163
 20
432.268
 11
127.387
 21
432.296
  0
LINE
  8
0
 10
127.387
 20
432.296
 11
127.613
 21
432.296
  0
LINE
  8
0
 10
127.613
 20
432.296
 11
127.837
 21
432.268
  0
LINE
  8
0
 10
127.837
 20
432.268
 11
128.056
 21
432.212
  0
LINE
  8
0
 10
128.056
 20
432.212
 11
128.266
 21
432.129
  0
LINE
  8
0
 10
128.266
 20
432.129
 11
128.464
 21
432.02
  0
LINE
  8
0
 10
128.464
 20
432.02
 11
128.647
 21
431.887
  0
LINE
  8
0
 10
128.647
 20
431.887
 11
128.812
 21
431.732
  0
LINE
  8
0
 10
128.812
 20
431.732
 11
128.956
 21
431.558
  0
LINE
  8
0
 10
128.956
 20
431.558
 11
129.077
 21
431.367
  0
LINE
  8
0
 10
129.077
 20
431.367
 11
129.174
 21
431.163
  0
LINE
  8
0
 10
129.174
 20
431.163
 11
129.243
 21
430.948
  0
LINE
  8
0
 10
129.243
 20
430.948
 11
129.286
 21
430.726
  0
LINE
  8
0
 10
129.286
 20
430.726
 11
129.3
 21
430.5
  0
LINE
  8
0
 10
129.3
 20
430.5
 11
129.286
 21
430.274
  0
LINE
  8
0
 10
129.286
 20
430.274
 11
129.243
 21
430.052
  0
LINE
  8
0
 10
129.243
 20
430.052
 11
129.174
 21
429.837
  0
LINE
  8
0
 10
129.174
 20
429.837
 11
129.077
 21
429.633
  0
LINE
  8
0
 10
129.077
 20
429.633
 11
128.956
 21
429.442
  0
LINE
  8
0
 10
128.956
 20
429.442
 11
128.812
 21
429.268
  0
LINE
  8
0
 10
128.812
 20
429.268
 11
128.647
 21
429.113
  0
LINE
  8
0
 10
128.647
 20
429.113
 11
128.464
 21
428.98
  0
LINE
  8
0
 10
128.464
 20
428.98
 11
128.266
 21
428.871
  0
LINE
  8
0
 10
128.266
 20
428.871
 11
128.056
 21
428.788
  0
LINE
  8
0
 10
128.056
 20
428.788
 11
127.837
 21
428.732
  0
LINE
  8
0
 10
127.837
 20
428.732
 11
127.613
 21
428.704
  0
LINE
  8
0
 10
127.613
 20
428.704
 11
127.387
 21
428.704
  0
ENDSEC
  0
SECTION
  2
OBJECTS
  0
DICTIONARY
  0
ENDSEC
  0
EOF
