<?xml version="1.0" standalone="no"?>
<!DOCTYPE svg PUBLIC "-//W3C//DTD SVG 1.1//EN" "http://www.w3.org/Graphics/SVG/1.1/DTD/svg11.dtd">
<svg width="272mm" height="232mm" viewBox="-137 -464 272 232" xmlns="http://www.w3.org/2000/svg" version="1.1">
<title>OpenSCAD Model</title>
<path d="
M 130.937,-448.589 L 131.545,-448.745 L 132.129,-448.976 L 132.679,-449.278 L 133.187,-449.647 L 133.645,-450.077
 L 134.045,-450.561 L 134.382,-451.091 L 134.649,-451.659 L 134.843,-452.257 L 134.961,-452.873 L 135,-453.5
 L 135,-458.5 L 134.961,-459.127 L 134.843,-459.743 L 134.649,-460.341 L 134.382,-460.909 L 134.045,-461.439
 L 133.645,-461.923 L 133.187,-462.353 L 132.679,-462.722 L 132.129,-463.024 L 131.545,-463.255 L 130.937,-463.411
 L 130.314,-463.49 L -130.314,-463.49 L -130.937,-463.411 L -131.545,-463.255 L -132.129,-463.024 L -132.679,-462.722
 L -133.187,-462.353 L -133.5,-462.059 L -136.5,-462.059 L -136.5,-449.941 L -133.5,-449.941 L -133.187,-449.647
 L -132.679,-449.278 L -132.129,-448.976 L -131.545,-448.745 L -130.937,-448.589 L -130.314,-448.51 L 130.314,-448.51
 z
M -129.751,-450.008 L -130.25,-450.071 L -130.736,-450.196 L -131.203,-450.381 L -131.643,-450.623 L -132.05,-450.918
 L -132.416,-451.262 L -132.736,-451.649 L -133.005,-452.073 L -133.219,-452.528 L -133.374,-453.005 L -133.468,-453.499
 L -133.5,-454 L -133.5,-458 L -133.468,-458.501 L -133.374,-458.995 L -133.219,-459.472 L -133.005,-459.927
 L -132.736,-460.351 L -132.416,-460.738 L -132.05,-461.082 L -131.643,-461.377 L -131.203,-461.619 L -130.736,-461.804
 L -130.25,-461.929 L -129.751,-461.992 L 129.751,-461.992 L 130.25,-461.929 L 130.736,-461.804 L 131.203,-461.619
 L 131.643,-461.377 L 132.05,-461.082 L 132.416,-460.738 L 132.736,-460.351 L 133.005,-459.927 L 133.219,-459.472
 L 133.374,-458.995 L 133.468,-458.501 L 133.5,-458 L 133.5,-454 L 133.468,-453.499 L 133.374,-453.005
 L 133.219,-452.528 L 133.005,-452.073 L 132.736,-451.649 L 132.416,-451.262 L 132.05,-450.918 L 131.643,-450.623
 L 131.203,-450.381 L 130.736,-450.196 L 130.25,-450.071 L 129.751,-450.008 z
M 130.937,-424.589 L 131.545,-424.745 L 132.129,-424.976 L 132.679,-425.278 L 133.187,-425.647 L 133.645,-426.077
 L 134.045,-426.561 L 134.382,-427.091 L 134.649,-427.659 L 134.843,-428.257 L 134.961,-428.873 L 135,-429.5
 L 135,-434.5 L 134.961,-435.127 L 134.843,-435.743 L 134.649,-436.341 L 134.382,-436.909 L 134.045,-437.439
 L 133.645,-437.923 L 133.187,-438.353 L 132.679,-438.722 L 132.129,-439.024 L 131.545,-439.255 L 130.937,-439.411
 L 130.314,-439.49 L -130.314,-439.49 L -130.937,-439.411 L -131.545,-439.255 L -132.129,-439.024 L -132.679,-438.722
 L -133.187,-438.353 L -133.5,-438.059 L -133.5,-439.467 L -136.5,-439.467 L -136.5,-424.533 L -133.5,-424.533
 L -133.5,-425.941 L -133.187,-425.647 L -132.679,-425.278 L -132.129,-424.976 L -131.545,-424.745 L -130.937,-424.589
 L -130.314,-424.51 L 130.314,-424.51 z
M -129.751,-426.008 L -130.25,-426.071 L -130.736,-426.196 L -131.203,-426.381 L -131.643,-426.623 L -132.05,-426.918
 L -132.416,-427.262 L -132.736,-427.649 L -133.005,-428.073 L -133.219,-428.528 L -133.374,-429.005 L -133.468,-429.499
 L -133.5,-430 L -133.5,-434 L -133.468,-434.501 L -133.374,-434.995 L -133.219,-435.472 L -133.005,-435.927
 L -132.736,-436.351 L -132.416,-436.738 L -132.05,-437.082 L -131.643,-437.377 L -131.203,-437.619 L -130.736,-437.804
 L -130.25,-437.929 L -129.751,-437.992 L 129.751,-437.992 L 130.25,-437.929 L 130.736,-437.804 L 131.203,-437.619
 L 131.643,-437.377 L 132.05,-437.082 L 132.416,-436.738 L 132.736,-436.351 L 133.005,-435.927 L 133.219,-435.472
 L 133.374,-434.995 L 133.468,-434.501 L 133.5,-434 L 133.5,-430 L 133.468,-429.499 L 133.374,-429.005
 L 133.219,-428.528 L 133.005,-428.073 L 132.736,-427.649 L 132.416,-427.262 L 132.05,-426.918 L 131.643,-426.623
 L 131.203,-426.381 L 130.736,-426.196 L 130.25,-426.071 L 129.751,-426.008 z
M -133.5,-401.941 L -133.187,-401.647 L -132.679,-401.278 L -132.129,-400.976 L -131.545,-400.745 L -130.937,-400.589
 L -130.314,-400.51 L 130.314,-400.51 L 130.937,-400.589 L 131.545,-400.745 L 132.129,-400.976 L 132.679,-401.278
 L 133.187,-401.647 L 133.645,-402.077 L 134.045,-402.561 L 134.382,-403.091 L 134.649,-403.659 L 134.843,-404.257
 L 134.961,-404.873 L 135,-405.5 L 135,-410.5 L 134.961,-411.127 L 134.843,-411.743 L 134.649,-412.341
 L 134.382,-412.909 L 134.045,-413.439 L 133.645,-413.923 L 133.187,-414.353 L 132.679,-414.722 L 132.129,-415.024
 L 131.545,-415.255 L 130.937,-415.411 L 130.314,-415.49 L -130.314,-415.49 L -130.937,-415.411 L -131.545,-415.255
 L -132.129,-415.024 L -132.679,-414.722 L -133.187,-414.353 L -133.5,-414.059 L -133.5,-415.49 L -136.5,-415.49
 L -136.5,-410.994 L -133.374,-410.994 L -133.374,-410.995 L -133.219,-411.472 L -133.005,-411.927 L -132.736,-412.351
 L -132.416,-412.738 L -132.05,-413.082 L -131.643,-413.377 L -131.203,-413.619 L -130.736,-413.804 L -130.25,-413.929
 L -129.751,-413.992 L 129.751,-413.992 L 130.25,-413.929 L 130.736,-413.804 L 131.203,-413.619 L 131.643,-413.377
 L 132.05,-413.082 L 132.416,-412.738 L 132.736,-412.351 L 133.005,-411.927 L 133.219,-411.472 L 133.374,-410.995
 L 133.468,-410.501 L 133.5,-410 L 133.5,-406 L 133.468,-405.499 L 133.374,-405.005 L 133.219,-404.528
 L 133.005,-404.073 L 132.736,-403.649 L 132.416,-403.262 L 132.05,-402.918 L 131.643,-402.623 L 131.203,-402.381
 L 130.736,-402.196 L 130.25,-402.071 L 129.751,-402.008 L -129.751,-402.008 L -130.25,-402.071 L -130.736,-402.196
 L -131.203,-402.381 L -131.643,-402.623 L -132.05,-402.918 L -132.416,-403.262 L -132.736,-403.649 L -133.005,-404.073
 L -133.219,-404.528 L -133.374,-405.005 L -133.374,-405.006 L -136.5,-405.006 L -136.5,-400.51 L -133.5,-400.51
 z
M -133.5,-377.941 L -133.187,-377.647 L -132.679,-377.278 L -132.129,-376.976 L -131.545,-376.745 L -130.937,-376.589
 L -130.314,-376.51 L 130.314,-376.51 L 130.937,-376.589 L 131.545,-376.745 L 132.129,-376.976 L 132.679,-377.278
 L 133.187,-377.647 L 133.645,-378.077 L 134.045,-378.561 L 134.382,-379.091 L 134.649,-379.659 L 134.843,-380.257
 L 134.961,-380.873 L 135,-381.5 L 135,-386.5 L 134.961,-387.127 L 134.843,-387.743 L 134.649,-388.341
 L 134.382,-388.909 L 134.045,-389.439 L 133.645,-389.923 L 133.187,-390.353 L 132.679,-390.722 L 132.129,-391.024
 L 131.545,-391.255 L 130.937,-391.411 L 130.314,-391.49 L -130.314,-391.49 L -130.937,-391.411 L -131.545,-391.255
 L -132.129,-391.024 L -132.679,-390.722 L -133.187,-390.353 L -133.5,-390.059 L -133.5,-391.49 L -136.5,-391.49
 L -136.5,-376.51 L -133.5,-376.51 z
M -129.751,-378.008 L -130.25,-378.071 L -130.736,-378.196 L -131.203,-378.381 L -131.643,-378.623 L -132.05,-378.918
 L -132.416,-379.262 L -132.736,-379.649 L -133.005,-380.073 L -133.219,-380.528 L -133.374,-381.005 L -133.468,-381.499
 L -133.5,-382 L -133.5,-386 L -133.468,-386.501 L -133.374,-386.995 L -133.219,-387.472 L -133.005,-387.927
 L -132.736,-388.351 L -132.416,-388.738 L -132.05,-389.082 L -131.643,-389.377 L -131.203,-389.619 L -130.736,-389.804
 L -130.25,-389.929 L -129.751,-389.992 L 129.751,-389.992 L 130.25,-389.929 L 130.736,-389.804 L 131.203,-389.619
 L 131.643,-389.377 L 132.05,-389.082 L 132.416,-388.738 L 132.736,-388.351 L 133.005,-387.927 L 133.219,-387.472
 L 133.374,-386.995 L 133.468,-386.501 L 133.5,-386 L 133.5,-382 L 133.468,-381.499 L 133.374,-381.005
 L 133.219,-380.528 L 133.005,-380.073 L 132.736,-379.649 L 132.416,-379.262 L 132.05,-378.918 L 131.643,-378.623
 L 131.203,-378.381 L 130.736,-378.196 L 130.25,-378.071 L 129.751,-378.008 z
M -133.5,-353.941 L -133.187,-353.647 L -132.679,-353.278 L -132.129,-352.976 L -131.545,-352.745 L -130.937,-352.589
 L -130.314,-352.51 L 130.314,-352.51 L 130.937,-352.589 L 131.545,-352.745 L 132.129,-352.976 L 132.679,-353.278
 L 133.187,-353.647 L 133.645,-354.077 L 134.045,-354.561 L 134.382,-355.091 L 134.649,-355.659 L 134.843,-356.257
 L 134.961,-356.873 L 135,-357.5 L 135,-362.5 L 134.961,-363.127 L 134.843,-363.743 L 134.649,-364.341
 L 134.382,-364.909 L 134.045,-365.439 L 133.645,-365.923 L 133.187,-366.353 L 132.679,-366.722 L 132.129,-367.024
 L 131.545,-367.255 L 130.937,-367.411 L 130.314,-367.49 L -130.314,-367.49 L -130.937,-367.411 L -131.545,-367.255
 L -132.129,-367.024 L -132.679,-366.722 L -133.187,-366.353 L -133.5,-366.059 L -133.5,-367.49 L -136.5,-367.49
 L -136.5,-352.51 L -133.5,-352.51 z
M -129.751,-354.008 L -130.25,-354.071 L -130.736,-354.196 L -131.203,-354.381 L -131.643,-354.623 L -132.05,-354.918
 L -132.416,-355.262 L -132.736,-355.649 L -133.005,-356.073 L -133.219,-356.528 L -133.374,-357.005 L -133.468,-357.499
 L -133.5,-358 L -133.5,-362 L -133.468,-362.501 L -133.374,-362.995 L -133.219,-363.472 L -133.005,-363.927
 L -132.736,-364.351 L -132.416,-364.738 L -132.05,-365.082 L -131.643,-365.377 L -131.203,-365.619 L -130.736,-365.804
 L -130.25,-365.929 L -129.751,-365.992 L 129.751,-365.992 L 130.25,-365.929 L 130.736,-365.804 L 131.203,-365.619
 L 131.643,-365.377 L 132.05,-365.082 L 132.416,-364.738 L 132.736,-364.351 L 133.005,-363.927 L 133.219,-363.472
 L 133.374,-362.995 L 133.468,-362.501 L 133.5,-362 L 133.5,-358 L 133.468,-357.499 L 133.374,-357.005
 L 133.219,-356.528 L 133.005,-356.073 L 132.736,-355.649 L 132.416,-355.262 L 132.05,-354.918 L 131.643,-354.623
 L 131.203,-354.381 L 130.736,-354.196 L 130.25,-354.071 L 129.751,-354.008 z
M -133.5,-329.941 L -133.187,-329.647 L -132.679,-329.278 L -132.129,-328.976 L -131.545,-328.745 L -130.937,-328.589
 L -130.314,-328.51 L 130.314,-328.51 L 130.937,-328.589 L 131.545,-328.745 L 132.129,-328.976 L 132.679,-329.278
 L 133.187,-329.647 L 133.645,-330.077 L 134.045,-330.561 L 134.382,-331.091 L 134.649,-331.659 L 134.843,-332.257
 L 134.961,-332.873 L 135,-333.5 L 135,-338.5 L 134.961,-339.127 L 134.843,-339.743 L 134.649,-340.341
 L 134.382,-340.909 L 134.045,-341.439 L 133.645,-341.923 L 133.187,-342.353 L 132.679,-342.722 L 132.129,-343.024
 L 131.545,-343.255 L 130.937,-343.411 L 130.314,-343.49 L -130.314,-343.49 L -130.937,-343.411 L -131.545,-343.255
 L -132.129,-343.024 L -132.679,-342.722 L -133.187,-342.353 L -133.5,-342.059 L -133.5,-343.49 L -136.5,-343.49
 L -136.5,-328.51 L -133.5,-328.51 z
M -129.751,-330.008 L -130.25,-330.071 L -130.736,-330.196 L -131.203,-330.381 L -131.643,-330.623 L -132.05,-330.918
 L -132.416,-331.262 L -132.736,-331.649 L -133.005,-332.073 L -133.219,-332.528 L -133.374,-333.005 L -133.468,-333.499
 L -133.5,-334 L -133.5,-338 L -133.468,-338.501 L -133.374,-338.995 L -133.219,-339.472 L -133.005,-339.927
 L -132.736,-340.351 L -132.416,-340.738 L -132.05,-341.082 L -131.643,-341.377 L -131.203,-341.619 L -130.736,-341.804
 L -130.25,-341.929 L -129.751,-341.992 L 129.751,-341.992 L 130.25,-341.929 L 130.736,-341.804 L 131.203,-341.619
 L 131.643,-341.377 L 132.05,-341.082 L 132.416,-340.738 L 132.736,-340.351 L 133.005,-339.927 L 133.219,-339.472
 L 133.374,-338.995 L 133.468,-338.501 L 133.5,-338 L 133.5,-334 L 133.468,-333.499 L 133.374,-333.005
 L 133.219,-332.528 L 133.005,-332.073 L 132.736,-331.649 L 132.416,-331.262 L 132.05,-330.918 L 131.643,-330.623
 L 131.203,-330.381 L 130.736,-330.196 L 130.25,-330.071 L 129.751,-330.008 z
M -133.5,-305.941 L -133.187,-305.647 L -132.679,-305.278 L -132.129,-304.976 L -131.545,-304.745 L -130.937,-304.589
 L -130.314,-304.51 L 130.314,-304.51 L 130.937,-304.589 L 131.545,-304.745 L 132.129,-304.976 L 132.679,-305.278
 L 133.187,-305.647 L 133.645,-306.077 L 134.045,-306.561 L 134.382,-307.091 L 134.649,-307.659 L 134.843,-308.257
 L 134.961,-308.873 L 135,-309.5 L 135,-314.5 L 134.961,-315.127 L 134.843,-315.743 L 134.649,-316.341
 L 134.382,-316.909 L 134.045,-317.439 L 133.645,-317.923 L 133.187,-318.353 L 132.679,-318.722 L 132.129,-319.024
 L 131.545,-319.255 L 130.937,-319.411 L 130.314,-319.49 L -130.314,-319.49 L -130.937,-319.411 L -131.545,-319.255
 L -132.129,-319.024 L -132.679,-318.722 L -133.187,-318.353 L -133.5,-318.059 L -133.5,-319.49 L -136.5,-319.49
 L -136.5,-304.51 L -133.5,-304.51 z
M -129.751,-306.008 L -130.25,-306.071 L -130.736,-306.196 L -131.203,-306.381 L -131.643,-306.623 L -132.05,-306.918
 L -132.416,-307.262 L -132.736,-307.649 L -133.005,-308.073 L -133.219,-308.528 L -133.374,-309.005 L -133.468,-309.499
 L -133.5,-310 L -133.5,-314 L -133.468,-314.501 L -133.374,-314.995 L -133.219,-315.472 L -133.005,-315.927
 L -132.736,-316.351 L -132.416,-316.738 L -132.05,-317.082 L -131.643,-317.377 L -131.203,-317.619 L -130.736,-317.804
 L -130.25,-317.929 L -129.751,-317.992 L 129.751,-317.992 L 130.25,-317.929 L 130.736,-317.804 L 131.203,-317.619
 L 131.643,-317.377 L 132.05,-317.082 L 132.416,-316.738 L 132.736,-316.351 L 133.005,-315.927 L 133.219,-315.472
 L 133.374,-314.995 L 133.468,-314.501 L 133.5,-314 L 133.5,-310 L 133.468,-309.499 L 133.374,-309.005
 L 133.219,-308.528 L 133.005,-308.073 L 132.736,-307.649 L 132.416,-307.262 L 132.05,-306.918 L 131.643,-306.623
 L 131.203,-306.381 L 130.736,-306.196 L 130.25,-306.071 L 129.751,-306.008 z
M -133.5,-281.941 L -133.187,-281.647 L -132.679,-281.278 L -132.129,-280.976 L -131.545,-280.745 L -130.937,-280.589
 L -130.314,-280.51 L 130.314,-280.51 L 130.937,-280.589 L 131.545,-280.745 L 132.129,-280.976 L 132.679,-281.278
 L 133.187,-281.647 L 133.645,-282.077 L 134.045,-282.561 L 134.382,-283.091 L 134.649,-283.659 L 134.843,-284.257
 L 134.961,-284.873 L 135,-285.5 L 135,-290.5 L 134.961,-291.127 L 134.843,-291.743 L 134.649,-292.341
 L 134.382,-292.909 L 134.045,-293.439 L 133.645,-293.923 L 133.187,-294.353 L 132.679,-294.722 L 132.129,-295.024
 L 131.545,-295.255 L 130.937,-295.411 L 130.314,-295.49 L -130.314,-295.49 L -130.937,-295.411 L -131.545,-295.255
 L -132.129,-295.024 L -132.679,-294.722 L -133.187,-294.353 L -133.5,-294.059 L -133.5,-295.49 L -136.5,-295.49
 L -136.5,-280.51 L -133.5,-280.51 z
M -129.751,-282.008 L -130.25,-282.071 L -130.736,-282.196 L -131.203,-282.381 L -131.643,-282.623 L -132.05,-282.918
 L -132.416,-283.262 L -132.736,-283.649 L -133.005,-284.073 L -133.219,-284.528 L -133.374,-285.005 L -133.468,-285.499
 L -133.5,-286 L -133.5,-290 L -133.468,-290.501 L -133.374,-290.995 L -133.219,-291.472 L -133.005,-291.927
 L -132.736,-292.351 L -132.416,-292.738 L -132.05,-293.082 L -131.643,-293.377 L -131.203,-293.619 L -130.736,-293.804
 L -130.25,-293.929 L -129.751,-293.992 L 129.751,-293.992 L 130.25,-293.929 L 130.736,-293.804 L 131.203,-293.619
 L 131.643,-293.377 L 132.05,-293.082 L 132.416,-292.738 L 132.736,-292.351 L 133.005,-291.927 L 133.219,-291.472
 L 133.374,-290.995 L 133.468,-290.501 L 133.5,-290 L 133.5,-286 L 133.468,-285.499 L 133.374,-285.005
 L 133.219,-284.528 L 133.005,-284.073 L 132.736,-283.649 L 132.416,-283.262 L 132.05,-282.918 L 131.643,-282.623
 L 131.203,-282.381 L 130.736,-282.196 L 130.25,-282.071 L 129.751,-282.008 z
M 130.937,-256.589 L 131.545,-256.745 L 132.129,-256.976 L 132.679,-257.278 L 133.187,-257.647 L 133.645,-258.077
 L 134.045,-258.561 L 134.382,-259.091 L 134.649,-259.659 L 134.843,-260.257 L 134.961,-260.873 L 135,-261.5
 L 135,-266.5 L 134.961,-267.127 L 134.843,-267.743 L 134.649,-268.341 L 134.382,-268.909 L 134.045,-269.439
 L 133.645,-269.923 L 133.187,-270.353 L 132.679,-270.722 L 132.129,-271.024 L 131.545,-271.255 L 130.937,-271.411
 L 130.314,-271.49 L -130.314,-271.49 L -130.937,-271.411 L -131.545,-271.255 L -132.129,-271.024 L -132.679,-270.722
 L -133.187,-270.353 L -133.5,-270.059 L -133.5,-271.479 L -136.5,-271.479 L -136.5,-256.521 L -133.5,-256.521
 L -133.5,-257.941 L -133.187,-257.647 L -132.679,-257.278 L -132.129,-256.976 L -131.545,-256.745 L -130.937,-256.589
 L -130.314,-256.51 L 130.314,-256.51 z
M -129.695,-258.893 L -130.083,-258.942 L -130.462,-259.039 L -130.825,-259.183 L -131.168,-259.372 L -131.484,-259.601
 L -131.769,-259.869 L -132.018,-260.17 L -132.228,-260.5 L -132.394,-260.854 L -132.515,-261.226 L -132.588,-261.61
 L -132.613,-262 L -132.613,-266 L -132.588,-266.39 L -132.515,-266.774 L -132.394,-267.146 L -132.228,-267.5
 L -132.018,-267.83 L -131.769,-268.131 L -131.484,-268.399 L -131.168,-268.628 L -130.825,-268.817 L -130.462,-268.961
 L -130.083,-269.058 L -129.695,-269.107 L 129.695,-269.107 L 130.083,-269.058 L 130.462,-268.961 L 130.825,-268.817
 L 131.168,-268.628 L 131.484,-268.399 L 131.769,-268.131 L 132.018,-267.83 L 132.228,-267.5 L 132.394,-267.146
 L 132.515,-266.774 L 132.588,-266.39 L 132.613,-266 L 132.613,-262 L 132.588,-261.61 L 132.515,-261.226
 L 132.394,-260.854 L 132.228,-260.5 L 132.018,-260.17 L 131.769,-259.869 L 131.484,-259.601 L 131.168,-259.372
 L 130.825,-259.183 L 130.462,-259.039 L 130.083,-258.942 L 129.695,-258.893 z
M 130.937,-232.589 L 131.545,-232.745 L 132.129,-232.976 L 132.679,-233.278 L 133.187,-233.647 L 133.645,-234.077
 L 134.045,-234.561 L 134.382,-235.091 L 134.649,-235.659 L 134.843,-236.257 L 134.961,-236.873 L 135,-237.5
 L 135,-242.5 L 134.961,-243.127 L 134.843,-243.743 L 134.649,-244.341 L 134.382,-244.909 L 134.045,-245.439
 L 133.645,-245.923 L 133.187,-246.353 L 132.679,-246.722 L 132.129,-247.024 L 131.545,-247.255 L 130.937,-247.411
 L 130.314,-247.49 L -130.314,-247.49 L -130.937,-247.411 L -131.545,-247.255 L -132.129,-247.024 L -132.679,-246.722
 L -133.187,-246.353 L -133.5,-246.059 L -133.5,-246.153 L -136.5,-246.153 L -136.5,-233.847 L -133.5,-233.847
 L -133.5,-233.941 L -133.187,-233.647 L -132.679,-233.278 L -132.129,-232.976 L -131.545,-232.745 L -130.937,-232.589
 L -130.314,-232.51 L 130.314,-232.51 z
M -127.634,-237.869 L -127.9,-237.903 L -128.16,-237.969 L -128.409,-238.068 L -128.644,-238.197 L -128.861,-238.355
 L -129.057,-238.538 L -129.227,-238.745 L -129.371,-238.971 L -129.485,-239.214 L -129.568,-239.469 L -129.618,-239.732
 L -129.635,-240 L -129.618,-240.268 L -129.568,-240.531 L -129.485,-240.786 L -129.371,-241.029 L -129.227,-241.255
 L -129.057,-241.462 L -128.861,-241.645 L -128.644,-241.803 L -128.409,-241.932 L -128.16,-242.031 L -127.9,-242.097
 L -127.634,-242.131 L -127.366,-242.131 L -127.1,-242.097 L -126.84,-242.031 L -126.591,-241.932 L -126.356,-241.803
 L -126.139,-241.645 L -125.943,-241.462 L -125.773,-241.255 L -125.629,-241.029 L -125.515,-240.786 L -125.432,-240.531
 L -125.382,-240.268 L -125.365,-240 L -125.382,-239.732 L -125.432,-239.469 L -125.515,-239.214 L -125.629,-238.971
 L -125.773,-238.745 L -125.943,-238.538 L -126.139,-238.355 L -126.356,-238.197 L -126.591,-238.068 L -126.84,-237.969
 L -127.1,-237.903 L -127.366,-237.869 z
M 127.366,-237.869 L 127.1,-237.903 L 126.84,-237.969 L 126.591,-238.068 L 126.356,-238.197 L 126.139,-238.355
 L 125.943,-238.538 L 125.773,-238.745 L 125.629,-238.971 L 125.515,-239.214 L 125.432,-239.469 L 125.382,-239.732
 L 125.365,-240 L 125.382,-240.268 L 125.432,-240.531 L 125.515,-240.786 L 125.629,-241.029 L 125.773,-241.255
 L 125.943,-241.462 L 126.139,-241.645 L 126.356,-241.803 L 126.591,-241.932 L 126.84,-242.031 L 127.1,-242.097
 L 127.366,-242.131 L 127.634,-242.131 L 127.9,-242.097 L 128.16,-242.031 L 128.409,-241.932 L 128.644,-241.803
 L 128.861,-241.645 L 129.057,-241.462 L 129.227,-241.255 L 129.371,-241.029 L 129.485,-240.786 L 129.568,-240.531
 L 129.618,-240.268 L 129.635,-240 L 129.618,-239.732 L 129.568,-239.469 L 129.485,-239.214 L 129.371,-238.971
 L 129.227,-238.745 L 129.057,-238.538 L 128.861,-238.355 L 128.644,-238.197 L 128.409,-238.068 L 128.16,-237.969
 L 127.9,-237.903 L 127.634,-237.869 z
" stroke="black" fill="lightgray" stroke-width="0.5"/>
</svg>
