<?xml version="1.0" standalone="no"?>
<!DOCTYPE svg PUBLIC "-//W3C//DTD SVG 1.1//EN" "http://www.w3.org/Graphics/SVG/1.1/DTD/svg11.dtd">
<svg width="272mm" height="220mm" viewBox="-137 -395 272 220" xmlns="http://www.w3.org/2000/svg" version="1.1">
<title>OpenSCAD Model</title>
<path d="
M 130.937,-289.589 L 131.545,-289.745 L 132.129,-289.976 L 132.679,-290.278 L 133.187,-290.647 L 133.645,-291.077
 L 134.045,-291.561 L 134.382,-292.091 L 134.649,-292.659 L 134.843,-293.257 L 134.961,-293.873 L 135,-294.5
 L 135,-389.5 L 134.961,-390.127 L 134.843,-390.743 L 134.649,-391.341 L 134.382,-391.909 L 134.045,-392.439
 L 133.645,-392.923 L 133.187,-393.353 L 132.679,-393.722 L 132.129,-394.024 L 131.545,-394.255 L 130.937,-394.411
 L 130.314,-394.49 L -130.314,-394.49 L -130.937,-394.411 L -131.545,-394.255 L -132.129,-394.024 L -132.679,-393.722
 L -133.187,-393.353 L -133.5,-393.059 L -133.5,-394.479 L -136.5,-394.479 L -136.5,-289.521 L -133.5,-289.521
 L -133.5,-290.941 L -133.187,-290.647 L -132.679,-290.278 L -132.129,-289.976 L -131.545,-289.745 L -130.937,-289.589
 L -130.314,-289.51 L 130.314,-289.51 z
M -129.695,-291.893 L -130.083,-291.942 L -130.462,-292.039 L -130.825,-292.183 L -131.168,-292.372 L -131.484,-292.601
 L -131.769,-292.869 L -132.018,-293.17 L -132.228,-293.5 L -132.394,-293.854 L -132.515,-294.226 L -132.588,-294.61
 L -132.613,-295 L -132.613,-389 L -132.588,-389.39 L -132.515,-389.774 L -132.394,-390.146 L -132.228,-390.5
 L -132.018,-390.83 L -131.769,-391.131 L -131.484,-391.399 L -131.168,-391.628 L -130.825,-391.817 L -130.462,-391.961
 L -130.083,-392.058 L -129.695,-392.107 L 129.695,-392.107 L 130.083,-392.058 L 130.462,-391.961 L 130.825,-391.817
 L 131.168,-391.628 L 131.484,-391.399 L 131.769,-391.131 L 132.018,-390.83 L 132.228,-390.5 L 132.394,-390.146
 L 132.515,-389.774 L 132.588,-389.39 L 132.613,-389 L 132.613,-295 L 132.588,-294.61 L 132.515,-294.226
 L 132.394,-293.854 L 132.228,-293.5 L 132.018,-293.17 L 131.769,-292.869 L 131.484,-292.601 L 131.168,-292.372
 L 130.825,-292.183 L 130.462,-292.039 L 130.083,-291.942 L 129.695,-291.893 z
M 130.937,-175.589 L 131.545,-175.745 L 132.129,-175.976 L 132.679,-176.278 L 133.187,-176.647 L 133.645,-177.077
 L 134.045,-177.561 L 134.382,-178.091 L 134.649,-178.659 L 134.843,-179.257 L 134.961,-179.873 L 135,-180.5
 L 135,-275.5 L 134.961,-276.127 L 134.843,-276.743 L 134.649,-277.341 L 134.382,-277.909 L 134.045,-278.439
 L 133.645,-278.923 L 133.187,-279.353 L 132.679,-279.722 L 132.129,-280.024 L 131.545,-280.255 L 130.937,-280.411
 L 130.314,-280.49 L -130.314,-280.49 L -130.937,-280.411 L -131.545,-280.255 L -132.129,-280.024 L -132.679,-279.722
 L -133.187,-279.353 L -133.5,-279.059 L -133.5,-279.153 L -136.5,-279.153 L -136.5,-176.847 L -133.5,-176.847
 L -133.5,-176.941 L -133.187,-176.647 L -132.679,-176.278 L -132.129,-175.976 L -131.545,-175.745 L -130.937,-175.589
 L -130.314,-175.51 L 130.314,-175.51 z
M 127.366,-270.869 L 127.1,-270.903 L 126.84,-270.969 L 126.591,-271.068 L 126.356,-271.197 L 126.139,-271.355
 L 125.943,-271.538 L 125.773,-271.745 L 125.629,-271.971 L 125.515,-272.214 L 125.432,-272.469 L 125.382,-272.732
 L 125.365,-273 L 125.382,-273.268 L 125.432,-273.531 L 125.515,-273.786 L 125.629,-274.029 L 125.773,-274.255
 L 125.943,-274.462 L 126.139,-274.645 L 126.356,-274.803 L 126.591,-274.932 L 126.84,-275.031 L 127.1,-275.097
 L 127.366,-275.131 L 127.634,-275.131 L 127.9,-275.097 L 128.16,-275.031 L 128.409,-274.932 L 128.644,-274.803
 L 128.861,-274.645 L 129.057,-274.462 L 129.227,-274.255 L 129.371,-274.029 L 129.485,-273.786 L 129.568,-273.531
 L 129.618,-273.268 L 129.635,-273 L 129.618,-272.732 L 129.568,-272.469 L 129.485,-272.214 L 129.371,-271.971
 L 129.227,-271.745 L 129.057,-271.538 L 128.861,-271.355 L 128.644,-271.197 L 128.409,-271.068 L 128.16,-270.969
 L 127.9,-270.903 L 127.634,-270.869 z
M -127.634,-270.869 L -127.9,-270.903 L -128.16,-270.969 L -128.409,-271.068 L -128.644,-271.197 L -128.861,-271.355
 L -129.057,-271.538 L -129.227,-271.745 L -129.371,-271.971 L -129.485,-272.214 L -129.568,-272.469 L -129.618,-272.732
 L -129.635,-273 L -129.618,-273.268 L -129.568,-273.531 L -129.485,-273.786 L -129.371,-274.029 L -129.227,-274.255
 L -129.057,-274.462 L -128.861,-274.645 L -128.644,-274.803 L -128.409,-274.932 L -128.16,-275.031 L -127.9,-275.097
 L -127.634,-275.131 L -127.366,-275.131 L -127.1,-275.097 L -126.84,-275.031 L -126.591,-274.932 L -126.356,-274.803
 L -126.139,-274.645 L -125.943,-274.462 L -125.773,-274.255 L -125.629,-274.029 L -125.515,-273.786 L -125.432,-273.531
 L -125.382,-273.268 L -125.365,-273 L -125.382,-272.732 L -125.432,-272.469 L -125.515,-272.214 L -125.629,-271.971
 L -125.773,-271.745 L -125.943,-271.538 L -126.139,-271.355 L -126.356,-271.197 L -126.591,-271.068 L -126.84,-270.969
 L -127.1,-270.903 L -127.366,-270.869 z
M 127.366,-180.869 L 127.1,-180.903 L 126.84,-180.969 L 126.591,-181.068 L 126.356,-181.197 L 126.139,-181.355
 L 125.943,-181.538 L 125.773,-181.745 L 125.629,-181.971 L 125.515,-182.214 L 125.432,-182.469 L 125.382,-182.732
 L 125.365,-183 L 125.382,-183.268 L 125.432,-183.531 L 125.515,-183.786 L 125.629,-184.029 L 125.773,-184.255
 L 125.943,-184.462 L 126.139,-184.645 L 126.356,-184.803 L 126.591,-184.932 L 126.84,-185.031 L 127.1,-185.097
 L 127.366,-185.131 L 127.634,-185.131 L 127.9,-185.097 L 128.16,-185.031 L 128.409,-184.932 L 128.644,-184.803
 L 128.861,-184.645 L 129.057,-184.462 L 129.227,-184.255 L 129.371,-184.029 L 129.485,-183.786 L 129.568,-183.531
 L 129.618,-183.268 L 129.635,-183 L 129.618,-182.732 L 129.568,-182.469 L 129.485,-182.214 L 129.371,-181.971
 L 129.227,-181.745 L 129.057,-181.538 L 128.861,-181.355 L 128.644,-181.197 L 128.409,-181.068 L 128.16,-180.969
 L 127.9,-180.903 L 127.634,-180.869 z
M -127.634,-180.869 L -127.9,-180.903 L -128.16,-180.969 L -128.409,-181.068 L -128.644,-181.197 L -128.861,-181.355
 L -129.057,-181.538 L -129.227,-181.745 L -129.371,-181.971 L -129.485,-182.214 L -129.568,-182.469 L -129.618,-182.732
 L -129.635,-183 L -129.618,-183.268 L -129.568,-183.531 L -129.485,-183.786 L -129.371,-184.029 L -129.227,-184.255
 L -129.057,-184.462 L -128.861,-184.645 L -128.644,-184.803 L -128.409,-184.932 L -128.16,-185.031 L -127.9,-185.097
 L -127.634,-185.131 L -127.366,-185.131 L -127.1,-185.097 L -126.84,-185.031 L -126.591,-184.932 L -126.356,-184.803
 L -126.139,-184.645 L -125.943,-184.462 L -125.773,-184.255 L -125.629,-184.029 L -125.515,-183.786 L -125.432,-183.531
 L -125.382,-183.268 L -125.365,-183 L -125.382,-182.732 L -125.432,-182.469 L -125.515,-182.214 L -125.629,-181.971
 L -125.773,-181.745 L -125.943,-181.538 L -126.139,-181.355 L -126.356,-181.197 L -126.591,-181.068 L -126.84,-180.969
 L -127.1,-180.903 L -127.366,-180.869 z
" stroke="black" fill="lightgray" stroke-width="0.5"/>
</svg>
