<?xml version="1.0" standalone="no"?>
<!DOCTYPE svg PUBLIC "-//W3C//DTD SVG 1.1//EN" "http://www.w3.org/Graphics/SVG/1.1/DTD/svg11.dtd">
<svg width="300mm" height="400mm" viewBox="-150 -710 300 400" xmlns="http://www.w3.org/2000/svg" version="1.1">
<title>OpenSCAD Model</title>
<path d="
M 145.937,-514.589 L 146.545,-514.745 L 147.129,-514.976 L 147.679,-515.278 L 148.187,-515.647 L 148.645,-516.077
 L 149.045,-516.561 L 149.382,-517.091 L 149.649,-517.659 L 149.843,-518.257 L 149.961,-518.873 L 150,-519.5
 L 150,-704.5 L 149.961,-705.127 L 149.843,-705.743 L 149.649,-706.341 L 149.382,-706.909 L 149.045,-707.439
 L 148.645,-707.923 L 148.187,-708.353 L 147.679,-708.722 L 147.129,-709.024 L 146.545,-709.255 L 145.937,-709.411
 L 145.314,-709.49 L -145.314,-709.49 L -145.937,-709.411 L -146.545,-709.255 L -147.129,-709.024 L -147.679,-708.722
 L -148.187,-708.353 L -148.645,-707.923 L -149.045,-707.439 L -149.382,-706.909 L -149.649,-706.341 L -149.843,-705.743
 L -149.961,-705.127 L -150,-704.5 L -150,-519.5 L -149.961,-518.873 L -149.843,-518.257 L -149.649,-517.659
 L -149.382,-517.091 L -149.045,-516.561 L -148.645,-516.077 L -148.187,-515.647 L -147.679,-515.278 L -147.129,-514.976
 L -146.545,-514.745 L -145.937,-514.589 L -145.314,-514.51 L 145.314,-514.51 z
M -145.037,-515.181 L -145.608,-515.253 L -146.165,-515.396 L -146.699,-515.607 L -147.203,-515.884 L -147.668,-516.222
 L -148.088,-516.616 L -148.454,-517.059 L -148.762,-517.544 L -149.007,-518.065 L -149.185,-518.611 L -149.292,-519.176
 L -149.328,-519.75 L -149.328,-704.25 L -149.292,-704.824 L -149.185,-705.389 L -149.007,-705.935 L -148.762,-706.456
 L -148.454,-706.941 L -148.088,-707.384 L -147.668,-707.778 L -147.203,-708.116 L -146.699,-708.393 L -146.165,-708.604
 L -145.608,-708.747 L -145.037,-708.819 L 145.037,-708.819 L 145.608,-708.747 L 146.165,-708.604 L 146.699,-708.393
 L 147.203,-708.116 L 147.668,-707.778 L 148.088,-707.384 L 148.454,-706.941 L 148.762,-706.456 L 149.007,-705.935
 L 149.185,-705.389 L 149.292,-704.824 L 149.328,-704.25 L 149.328,-519.75 L 149.292,-519.176 L 149.185,-518.611
 L 149.007,-518.065 L 148.762,-517.544 L 148.454,-517.059 L 148.088,-516.616 L 147.668,-516.222 L 147.203,-515.884
 L 146.699,-515.607 L 146.165,-515.396 L 145.608,-515.253 L 145.037,-515.181 z
M 145.937,-310.589 L 146.545,-310.745 L 147.129,-310.976 L 147.679,-311.278 L 148.187,-311.647 L 148.645,-312.077
 L 149.045,-312.561 L 149.382,-313.091 L 149.649,-313.659 L 149.843,-314.257 L 149.961,-314.873 L 150,-315.5
 L 150,-500.5 L 149.961,-501.127 L 149.843,-501.743 L 149.649,-502.341 L 149.382,-502.909 L 149.045,-503.439
 L 148.645,-503.923 L 148.187,-504.353 L 147.679,-504.722 L 147.129,-505.024 L 146.545,-505.255 L 145.937,-505.411
 L 145.314,-505.49 L -145.314,-505.49 L -145.937,-505.411 L -146.545,-505.255 L -147.129,-505.024 L -147.679,-504.722
 L -148.187,-504.353 L -148.645,-503.923 L -149.045,-503.439 L -149.382,-502.909 L -149.649,-502.341 L -149.843,-501.743
 L -149.961,-501.127 L -150,-500.5 L -150,-315.5 L -149.961,-314.873 L -149.843,-314.257 L -149.649,-313.659
 L -149.382,-313.091 L -149.045,-312.561 L -148.645,-312.077 L -148.187,-311.647 L -147.679,-311.278 L -147.129,-310.976
 L -146.545,-310.745 L -145.937,-310.589 L -145.314,-310.51 L 145.314,-310.51 z
M -144.882,-313.645 L -145.145,-313.678 L -145.402,-313.744 L -145.648,-313.841 L -145.88,-313.969 L -146.095,-314.124
 L -146.288,-314.306 L -146.457,-314.51 L -146.599,-314.734 L -146.711,-314.973 L -146.793,-315.225 L -146.843,-315.486
 L -146.86,-315.75 L -146.86,-500.25 L -146.843,-500.514 L -146.793,-500.775 L -146.711,-501.027 L -146.599,-501.266
 L -146.457,-501.49 L -146.288,-501.694 L -146.095,-501.876 L -145.88,-502.031 L -145.648,-502.159 L -145.402,-502.256
 L -145.145,-502.322 L -144.882,-502.355 L 144.882,-502.355 L 145.145,-502.322 L 145.402,-502.256 L 145.648,-502.159
 L 145.88,-502.031 L 146.095,-501.876 L 146.288,-501.694 L 146.457,-501.49 L 146.599,-501.266 L 146.711,-501.027
 L 146.793,-500.775 L 146.843,-500.514 L 146.86,-500.25 L 146.86,-315.75 L 146.843,-315.486 L 146.793,-315.225
 L 146.711,-314.973 L 146.599,-314.734 L 146.457,-314.51 L 146.288,-314.306 L 146.095,-314.124 L 145.88,-313.969
 L 145.648,-313.841 L 145.402,-313.744 L 145.145,-313.678 L 144.882,-313.645 z
" stroke="black" fill="lightgray" stroke-width="0.5"/>
</svg>
