  0
SECTION
  2
BLOCKS
  0
ENDSEC
  0
SECTION
  2
ENTITIES
  0
LINE
  8
0
 10
115.937
 20
1915.59
 11
116.545
 21
1915.74
  0
LINE
  8
0
 10
116.545
 20
1915.74
 11
117.129
 21
1915.98
  0
LINE
  8
0
 10
117.129
 20
1915.98
 11
117.679
 21
1916.28
  0
LINE
  8
0
 10
117.679
 20
1916.28
 11
118.187
 21
1916.65
  0
LINE
  8
0
 10
118.187
 20
1916.65
 11
118.645
 21
1917.08
  0
LINE
  8
0
 10
118.645
 20
1917.08
 11
119.045
 21
1917.56
  0
LINE
  8
0
 10
119.045
 20
1917.56
 11
119.382
 21
1918.09
  0
LINE
  8
0
 10
119.382
 20
1918.09
 11
119.649
 21
1918.66
  0
LINE
  8
0
 10
119.649
 20
1918.66
 11
119.843
 21
1919.26
  0
LINE
  8
0
 10
119.843
 20
1919.26
 11
119.961
 21
1919.87
  0
LINE
  8
0
 10
119.961
 20
1919.87
 11
120
 21
1920.5
  0
LINE
  8
0
 10
120
 20
1920.5
 11
120
 21
2195.5
  0
LINE
  8
0
 10
120
 20
2195.5
 11
119.961
 21
2196.13
  0
LINE
  8
0
 10
119.961
 20
2196.13
 11
119.843
 21
2196.74
  0
LINE
  8
0
 10
119.843
 20
2196.74
 11
119.649
 21
2197.34
  0
LINE
  8
0
 10
119.649
 20
2197.34
 11
119.382
 21
2197.91
  0
LINE
  8
0
 10
119.382
 20
2197.91
 11
119.045
 21
2198.44
  0
LINE
  8
0
 10
119.045
 20
2198.44
 11
118.645
 21
2198.92
  0
LINE
  8
0
 10
118.645
 20
2198.92
 11
118.187
 21
2199.35
  0
LINE
  8
0
 10
118.187
 20
2199.35
 11
117.679
 21
2199.72
  0
LINE
  8
0
 10
117.679
 20
2199.72
 11
117.129
 21
2200.02
  0
LINE
  8
0
 10
117.129
 20
2200.02
 11
116.545
 21
2200.26
  0
LINE
  8
0
 10
116.545
 20
2200.26
 11
115.937
 21
2200.41
  0
LINE
  8
0
 10
115.937
 20
2200.41
 11
115.314
 21
2200.49
  0
LINE
  8
0
 10
115.314
 20
2200.49
 11
-115.314
 21
2200.49
  0
LINE
  8
0
 10
-115.314
 20
2200.49
 11
-115.937
 21
2200.41
  0
LINE
  8
0
 10
-115.937
 20
2200.41
 11
-116.545
 21
2200.26
  0
LINE
  8
0
 10
-116.545
 20
2200.26
 11
-117.129
 21
2200.02
  0
LINE
  8
0
 10
-117.129
 20
2200.02
 11
-117.679
 21
2199.72
  0
LINE
  8
0
 10
-117.679
 20
2199.72
 11
-118.187
 21
2199.35
  0
LINE
  8
0
 10
-118.187
 20
2199.35
 11
-118.645
 21
2198.92
  0
LINE
  8
0
 10
-118.645
 20
2198.92
 11
-119.045
 21
2198.44
  0
LINE
  8
0
 10
-119.045
 20
2198.44
 11
-119.382
 21
2197.91
  0
LINE
  8
0
 10
-119.382
 20
2197.91
 11
-119.649
 21
2197.34
  0
LINE
  8
0
 10
-119.649
 20
2197.34
 11
-119.843
 21
2196.74
  0
LINE
  8
0
 10
-119.843
 20
2196.74
 11
-119.961
 21
2196.13
  0
LINE
  8
0
 10
-119.961
 20
2196.13
 11
-120
 21
2195.5
  0
LINE
  8
0
 10
-120
 20
2195.5
 11
-120
 21
1920.5
  0
LINE
  8
0
 10
-120
 20
1920.5
 11
-119.961
 21
1919.87
  0
LINE
  8
0
 10
-119.961
 20
1919.87
 11
-119.843
 21
1919.26
  0
LINE
  8
0
 10
-119.843
 20
1919.26
 11
-119.649
 21
1918.66
  0
LINE
  8
0
 10
-119.649
 20
1918.66
 11
-119.382
 21
1918.09
  0
LINE
  8
0
 10
-119.382
 20
1918.09
 11
-119.045
 21
1917.56
  0
LINE
  8
0
 10
-119.045
 20
1917.56
 11
-118.645
 21
1917.08
  0
LINE
  8
0
 10
-118.645
 20
1917.08
 11
-118.187
 21
1916.65
  0
LINE
  8
0
 10
-118.187
 20
1916.65
 11
-117.679
 21
1916.28
  0
LINE
  8
0
 10
-117.679
 20
1916.28
 11
-117.129
 21
1915.98
  0
LINE
  8
0
 10
-117.129
 20
1915.98
 11
-116.545
 21
1915.74
  0
LINE
  8
0
 10
-116.545
 20
1915.74
 11
-115.937
 21
1915.59
  0
LINE
  8
0
 10
-115.937
 20
1915.59
 11
-115.314
 21
1915.51
  0
LINE
  8
0
 10
-115.314
 20
1915.51
 11
115.314
 21
1915.51
  0
LINE
  8
0
 10
115.314
 20
1915.51
 11
115.937
 21
1915.59
  0
LINE
  8
0
 10
-114.751
 20
1917.01
 11
-115.25
 21
1917.07
  0
LINE
  8
0
 10
-115.25
 20
1917.07
 11
-115.736
 21
1917.2
  0
LINE
  8
0
 10
-115.736
 20
1917.2
 11
-116.203
 21
1917.38
  0
LINE
  8
0
 10
-116.203
 20
1917.38
 11
-116.643
 21
1917.62
  0
LINE
  8
0
 10
-116.643
 20
1917.62
 11
-117.05
 21
1917.92
  0
LINE
  8
0
 10
-117.05
 20
1917.92
 11
-117.416
 21
1918.26
  0
LINE
  8
0
 10
-117.416
 20
1918.26
 11
-117.736
 21
1918.65
  0
LINE
  8
0
 10
-117.736
 20
1918.65
 11
-118.005
 21
1919.07
  0
LINE
  8
0
 10
-118.005
 20
1919.07
 11
-118.219
 21
1919.53
  0
LINE
  8
0
 10
-118.219
 20
1919.53
 11
-118.374
 21
1920.01
  0
LINE
  8
0
 10
-118.374
 20
1920.01
 11
-118.468
 21
1920.5
  0
LINE
  8
0
 10
-118.468
 20
1920.5
 11
-118.5
 21
1921
  0
LINE
  8
0
 10
-118.5
 20
1921
 11
-118.5
 21
2195
  0
LINE
  8
0
 10
-118.5
 20
2195
 11
-118.468
 21
2195.5
  0
LINE
  8
0
 10
-118.468
 20
2195.5
 11
-118.374
 21
2195.99
  0
LINE
  8
0
 10
-118.374
 20
2195.99
 11
-118.219
 21
2196.47
  0
LINE
  8
0
 10
-118.219
 20
2196.47
 11
-118.005
 21
2196.93
  0
LINE
  8
0
 10
-118.005
 20
2196.93
 11
-117.736
 21
2197.35
  0
LINE
  8
0
 10
-117.736
 20
2197.35
 11
-117.416
 21
2197.74
  0
LINE
  8
0
 10
-117.416
 20
2197.74
 11
-117.05
 21
2198.08
  0
LINE
  8
0
 10
-117.05
 20
2198.08
 11
-116.643
 21
2198.38
  0
LINE
  8
0
 10
-116.643
 20
2198.38
 11
-116.203
 21
2198.62
  0
LINE
  8
0
 10
-116.203
 20
2198.62
 11
-115.736
 21
2198.8
  0
LINE
  8
0
 10
-115.736
 20
2198.8
 11
-115.25
 21
2198.93
  0
LINE
  8
0
 10
-115.25
 20
2198.93
 11
-114.751
 21
2198.99
  0
LINE
  8
0
 10
-114.751
 20
2198.99
 11
114.751
 21
2198.99
  0
LINE
  8
0
 10
114.751
 20
2198.99
 11
115.25
 21
2198.93
  0
LINE
  8
0
 10
115.25
 20
2198.93
 11
115.736
 21
2198.8
  0
LINE
  8
0
 10
115.736
 20
2198.8
 11
116.203
 21
2198.62
  0
LINE
  8
0
 10
116.203
 20
2198.62
 11
116.643
 21
2198.38
  0
LINE
  8
0
 10
116.643
 20
2198.38
 11
117.05
 21
2198.08
  0
LINE
  8
0
 10
117.05
 20
2198.08
 11
117.416
 21
2197.74
  0
LINE
  8
0
 10
117.416
 20
2197.74
 11
117.736
 21
2197.35
  0
LINE
  8
0
 10
117.736
 20
2197.35
 11
118.005
 21
2196.93
  0
LINE
  8
0
 10
118.005
 20
2196.93
 11
118.219
 21
2196.47
  0
LINE
  8
0
 10
118.219
 20
2196.47
 11
118.374
 21
2195.99
  0
LINE
  8
0
 10
118.374
 20
2195.99
 11
118.468
 21
2195.5
  0
LINE
  8
0
 10
118.468
 20
2195.5
 11
118.5
 21
2195
  0
LINE
  8
0
 10
118.5
 20
2195
 11
118.5
 21
1921
  0
LINE
  8
0
 10
118.5
 20
1921
 11
118.468
 21
1920.5
  0
LINE
  8
0
 10
118.468
 20
1920.5
 11
118.374
 21
1920.01
  0
LINE
  8
0
 10
118.374
 20
1920.01
 11
118.219
 21
1919.53
  0
LINE
  8
0
 10
118.219
 20
1919.53
 11
118.005
 21
1919.07
  0
LINE
  8
0
 10
118.005
 20
1919.07
 11
117.736
 21
1918.65
  0
LINE
  8
0
 10
117.736
 20
1918.65
 11
117.416
 21
1918.26
  0
LINE
  8
0
 10
117.416
 20
1918.26
 11
117.05
 21
1917.92
  0
LINE
  8
0
 10
117.05
 20
1917.92
 11
116.643
 21
1917.62
  0
LINE
  8
0
 10
116.643
 20
1917.62
 11
116.203
 21
1917.38
  0
LINE
  8
0
 10
116.203
 20
1917.38
 11
115.736
 21
1917.2
  0
LINE
  8
0
 10
115.736
 20
1917.2
 11
115.25
 21
1917.07
  0
LINE
  8
0
 10
115.25
 20
1917.07
 11
114.751
 21
1917.01
  0
LINE
  8
0
 10
114.751
 20
1917.01
 11
-114.751
 21
1917.01
  0
LINE
  8
0
 10
115.937
 20
1621.59
 11
116.545
 21
1621.74
  0
LINE
  8
0
 10
116.545
 20
1621.74
 11
117.129
 21
1621.98
  0
LINE
  8
0
 10
117.129
 20
1621.98
 11
117.679
 21
1622.28
  0
LINE
  8
0
 10
117.679
 20
1622.28
 11
118.187
 21
1622.65
  0
LINE
  8
0
 10
118.187
 20
1622.65
 11
118.645
 21
1623.08
  0
LINE
  8
0
 10
118.645
 20
1623.08
 11
119.045
 21
1623.56
  0
LINE
  8
0
 10
119.045
 20
1623.56
 11
119.382
 21
1624.09
  0
LINE
  8
0
 10
119.382
 20
1624.09
 11
119.649
 21
1624.66
  0
LINE
  8
0
 10
119.649
 20
1624.66
 11
119.843
 21
1625.26
  0
LINE
  8
0
 10
119.843
 20
1625.26
 11
119.961
 21
1625.87
  0
LINE
  8
0
 10
119.961
 20
1625.87
 11
120
 21
1626.5
  0
LINE
  8
0
 10
120
 20
1626.5
 11
120
 21
1901.5
  0
LINE
  8
0
 10
120
 20
1901.5
 11
119.961
 21
1902.13
  0
LINE
  8
0
 10
119.961
 20
1902.13
 11
119.843
 21
1902.74
  0
LINE
  8
0
 10
119.843
 20
1902.74
 11
119.649
 21
1903.34
  0
LINE
  8
0
 10
119.649
 20
1903.34
 11
119.382
 21
1903.91
  0
LINE
  8
0
 10
119.382
 20
1903.91
 11
119.045
 21
1904.44
  0
LINE
  8
0
 10
119.045
 20
1904.44
 11
118.645
 21
1904.92
  0
LINE
  8
0
 10
118.645
 20
1904.92
 11
118.187
 21
1905.35
  0
LINE
  8
0
 10
118.187
 20
1905.35
 11
117.679
 21
1905.72
  0
LINE
  8
0
 10
117.679
 20
1905.72
 11
117.129
 21
1906.02
  0
LINE
  8
0
 10
117.129
 20
1906.02
 11
116.545
 21
1906.26
  0
LINE
  8
0
 10
116.545
 20
1906.26
 11
115.937
 21
1906.41
  0
LINE
  8
0
 10
115.937
 20
1906.41
 11
115.314
 21
1906.49
  0
LINE
  8
0
 10
115.314
 20
1906.49
 11
-115.314
 21
1906.49
  0
LINE
  8
0
 10
-115.314
 20
1906.49
 11
-115.937
 21
1906.41
  0
LINE
  8
0
 10
-115.937
 20
1906.41
 11
-116.545
 21
1906.26
  0
LINE
  8
0
 10
-116.545
 20
1906.26
 11
-117.129
 21
1906.02
  0
LINE
  8
0
 10
-117.129
 20
1906.02
 11
-117.679
 21
1905.72
  0
LINE
  8
0
 10
-117.679
 20
1905.72
 11
-118.187
 21
1905.35
  0
LINE
  8
0
 10
-118.187
 20
1905.35
 11
-118.645
 21
1904.92
  0
LINE
  8
0
 10
-118.645
 20
1904.92
 11
-119.045
 21
1904.44
  0
LINE
  8
0
 10
-119.045
 20
1904.44
 11
-119.382
 21
1903.91
  0
LINE
  8
0
 10
-119.382
 20
1903.91
 11
-119.649
 21
1903.34
  0
LINE
  8
0
 10
-119.649
 20
1903.34
 11
-119.843
 21
1902.74
  0
LINE
  8
0
 10
-119.843
 20
1902.74
 11
-119.961
 21
1902.13
  0
LINE
  8
0
 10
-119.961
 20
1902.13
 11
-120
 21
1901.5
  0
LINE
  8
0
 10
-120
 20
1901.5
 11
-120
 21
1626.5
  0
LINE
  8
0
 10
-120
 20
1626.5
 11
-119.961
 21
1625.87
  0
LINE
  8
0
 10
-119.961
 20
1625.87
 11
-119.843
 21
1625.26
  0
LINE
  8
0
 10
-119.843
 20
1625.26
 11
-119.649
 21
1624.66
  0
LINE
  8
0
 10
-119.649
 20
1624.66
 11
-119.382
 21
1624.09
  0
LINE
  8
0
 10
-119.382
 20
1624.09
 11
-119.045
 21
1623.56
  0
LINE
  8
0
 10
-119.045
 20
1623.56
 11
-118.645
 21
1623.08
  0
LINE
  8
0
 10
-118.645
 20
1623.08
 11
-118.187
 21
1622.65
  0
LINE
  8
0
 10
-118.187
 20
1622.65
 11
-117.679
 21
1622.28
  0
LINE
  8
0
 10
-117.679
 20
1622.28
 11
-117.129
 21
1621.98
  0
LINE
  8
0
 10
-117.129
 20
1621.98
 11
-116.545
 21
1621.74
  0
LINE
  8
0
 10
-116.545
 20
1621.74
 11
-115.937
 21
1621.59
  0
LINE
  8
0
 10
-115.937
 20
1621.59
 11
-115.314
 21
1621.51
  0
LINE
  8
0
 10
-115.314
 20
1621.51
 11
115.314
 21
1621.51
  0
LINE
  8
0
 10
115.314
 20
1621.51
 11
115.937
 21
1621.59
  0
LINE
  8
0
 10
-114.751
 20
1623.01
 11
-115.25
 21
1623.07
  0
LINE
  8
0
 10
-115.25
 20
1623.07
 11
-115.736
 21
1623.2
  0
LINE
  8
0
 10
-115.736
 20
1623.2
 11
-116.203
 21
1623.38
  0
LINE
  8
0
 10
-116.203
 20
1623.38
 11
-116.643
 21
1623.62
  0
LINE
  8
0
 10
-116.643
 20
1623.62
 11
-117.05
 21
1623.92
  0
LINE
  8
0
 10
-117.05
 20
1623.92
 11
-117.416
 21
1624.26
  0
LINE
  8
0
 10
-117.416
 20
1624.26
 11
-117.736
 21
1624.65
  0
LINE
  8
0
 10
-117.736
 20
1624.65
 11
-118.005
 21
1625.07
  0
LINE
  8
0
 10
-118.005
 20
1625.07
 11
-118.219
 21
1625.53
  0
LINE
  8
0
 10
-118.219
 20
1625.53
 11
-118.374
 21
1626.01
  0
LINE
  8
0
 10
-118.374
 20
1626.01
 11
-118.468
 21
1626.5
  0
LINE
  8
0
 10
-118.468
 20
1626.5
 11
-118.5
 21
1627
  0
LINE
  8
0
 10
-118.5
 20
1627
 11
-118.5
 21
1901
  0
LINE
  8
0
 10
-118.5
 20
1901
 11
-118.468
 21
1901.5
  0
LINE
  8
0
 10
-118.468
 20
1901.5
 11
-118.374
 21
1901.99
  0
LINE
  8
0
 10
-118.374
 20
1901.99
 11
-118.219
 21
1902.47
  0
LINE
  8
0
 10
-118.219
 20
1902.47
 11
-118.005
 21
1902.93
  0
LINE
  8
0
 10
-118.005
 20
1902.93
 11
-117.736
 21
1903.35
  0
LINE
  8
0
 10
-117.736
 20
1903.35
 11
-117.416
 21
1903.74
  0
LINE
  8
0
 10
-117.416
 20
1903.74
 11
-117.05
 21
1904.08
  0
LINE
  8
0
 10
-117.05
 20
1904.08
 11
-116.643
 21
1904.38
  0
LINE
  8
0
 10
-116.643
 20
1904.38
 11
-116.203
 21
1904.62
  0
LINE
  8
0
 10
-116.203
 20
1904.62
 11
-115.736
 21
1904.8
  0
LINE
  8
0
 10
-115.736
 20
1904.8
 11
-115.25
 21
1904.93
  0
LINE
  8
0
 10
-115.25
 20
1904.93
 11
-114.751
 21
1904.99
  0
LINE
  8
0
 10
-114.751
 20
1904.99
 11
114.751
 21
1904.99
  0
LINE
  8
0
 10
114.751
 20
1904.99
 11
115.25
 21
1904.93
  0
LINE
  8
0
 10
115.25
 20
1904.93
 11
115.736
 21
1904.8
  0
LINE
  8
0
 10
115.736
 20
1904.8
 11
116.203
 21
1904.62
  0
LINE
  8
0
 10
116.203
 20
1904.62
 11
116.643
 21
1904.38
  0
LINE
  8
0
 10
116.643
 20
1904.38
 11
117.05
 21
1904.08
  0
LINE
  8
0
 10
117.05
 20
1904.08
 11
117.416
 21
1903.74
  0
LINE
  8
0
 10
117.416
 20
1903.74
 11
117.736
 21
1903.35
  0
LINE
  8
0
 10
117.736
 20
1903.35
 11
118.005
 21
1902.93
  0
LINE
  8
0
 10
118.005
 20
1902.93
 11
118.219
 21
1902.47
  0
LINE
  8
0
 10
118.219
 20
1902.47
 11
118.374
 21
1901.99
  0
LINE
  8
0
 10
118.374
 20
1901.99
 11
118.468
 21
1901.5
  0
LINE
  8
0
 10
118.468
 20
1901.5
 11
118.5
 21
1901
  0
LINE
  8
0
 10
118.5
 20
1901
 11
118.5
 21
1627
  0
LINE
  8
0
 10
118.5
 20
1627
 11
118.468
 21
1626.5
  0
LINE
  8
0
 10
118.468
 20
1626.5
 11
118.374
 21
1626.01
  0
LINE
  8
0
 10
118.374
 20
1626.01
 11
118.219
 21
1625.53
  0
LINE
  8
0
 10
118.219
 20
1625.53
 11
118.005
 21
1625.07
  0
LINE
  8
0
 10
118.005
 20
1625.07
 11
117.736
 21
1624.65
  0
LINE
  8
0
 10
117.736
 20
1624.65
 11
117.416
 21
1624.26
  0
LINE
  8
0
 10
117.416
 20
1624.26
 11
117.05
 21
1623.92
  0
LINE
  8
0
 10
117.05
 20
1623.92
 11
116.643
 21
1623.62
  0
LINE
  8
0
 10
116.643
 20
1623.62
 11
116.203
 21
1623.38
  0
LINE
  8
0
 10
116.203
 20
1623.38
 11
115.736
 21
1623.2
  0
LINE
  8
0
 10
115.736
 20
1623.2
 11
115.25
 21
1623.07
  0
LINE
  8
0
 10
115.25
 20
1623.07
 11
114.751
 21
1623.01
  0
LINE
  8
0
 10
114.751
 20
1623.01
 11
-114.751
 21
1623.01
  0
LINE
  8
0
 10
115.937
 20
1327.59
 11
116.545
 21
1327.74
  0
LINE
  8
0
 10
116.545
 20
1327.74
 11
117.129
 21
1327.98
  0
LINE
  8
0
 10
117.129
 20
1327.98
 11
117.679
 21
1328.28
  0
LINE
  8
0
 10
117.679
 20
1328.28
 11
118.187
 21
1328.65
  0
LINE
  8
0
 10
118.187
 20
1328.65
 11
118.645
 21
1329.08
  0
LINE
  8
0
 10
118.645
 20
1329.08
 11
119.045
 21
1329.56
  0
LINE
  8
0
 10
119.045
 20
1329.56
 11
119.382
 21
1330.09
  0
LINE
  8
0
 10
119.382
 20
1330.09
 11
119.649
 21
1330.66
  0
LINE
  8
0
 10
119.649
 20
1330.66
 11
119.843
 21
1331.26
  0
LINE
  8
0
 10
119.843
 20
1331.26
 11
119.961
 21
1331.87
  0
LINE
  8
0
 10
119.961
 20
1331.87
 11
120
 21
1332.5
  0
LINE
  8
0
 10
120
 20
1332.5
 11
120
 21
1607.5
  0
LINE
  8
0
 10
120
 20
1607.5
 11
119.961
 21
1608.13
  0
LINE
  8
0
 10
119.961
 20
1608.13
 11
119.843
 21
1608.74
  0
LINE
  8
0
 10
119.843
 20
1608.74
 11
119.649
 21
1609.34
  0
LINE
  8
0
 10
119.649
 20
1609.34
 11
119.382
 21
1609.91
  0
LINE
  8
0
 10
119.382
 20
1609.91
 11
119.045
 21
1610.44
  0
LINE
  8
0
 10
119.045
 20
1610.44
 11
118.645
 21
1610.92
  0
LINE
  8
0
 10
118.645
 20
1610.92
 11
118.187
 21
1611.35
  0
LINE
  8
0
 10
118.187
 20
1611.35
 11
117.679
 21
1611.72
  0
LINE
  8
0
 10
117.679
 20
1611.72
 11
117.129
 21
1612.02
  0
LINE
  8
0
 10
117.129
 20
1612.02
 11
116.545
 21
1612.26
  0
LINE
  8
0
 10
116.545
 20
1612.26
 11
115.937
 21
1612.41
  0
LINE
  8
0
 10
115.937
 20
1612.41
 11
115.314
 21
1612.49
  0
LINE
  8
0
 10
115.314
 20
1612.49
 11
-115.314
 21
1612.49
  0
LINE
  8
0
 10
-115.314
 20
1612.49
 11
-115.937
 21
1612.41
  0
LINE
  8
0
 10
-115.937
 20
1612.41
 11
-116.545
 21
1612.26
  0
LINE
  8
0
 10
-116.545
 20
1612.26
 11
-117.129
 21
1612.02
  0
LINE
  8
0
 10
-117.129
 20
1612.02
 11
-117.679
 21
1611.72
  0
LINE
  8
0
 10
-117.679
 20
1611.72
 11
-118.187
 21
1611.35
  0
LINE
  8
0
 10
-118.187
 20
1611.35
 11
-118.645
 21
1610.92
  0
LINE
  8
0
 10
-118.645
 20
1610.92
 11
-119.045
 21
1610.44
  0
LINE
  8
0
 10
-119.045
 20
1610.44
 11
-119.382
 21
1609.91
  0
LINE
  8
0
 10
-119.382
 20
1609.91
 11
-119.649
 21
1609.34
  0
LINE
  8
0
 10
-119.649
 20
1609.34
 11
-119.843
 21
1608.74
  0
LINE
  8
0
 10
-119.843
 20
1608.74
 11
-119.961
 21
1608.13
  0
LINE
  8
0
 10
-119.961
 20
1608.13
 11
-120
 21
1607.5
  0
LINE
  8
0
 10
-120
 20
1607.5
 11
-120
 21
1332.5
  0
LINE
  8
0
 10
-120
 20
1332.5
 11
-119.961
 21
1331.87
  0
LINE
  8
0
 10
-119.961
 20
1331.87
 11
-119.843
 21
1331.26
  0
LINE
  8
0
 10
-119.843
 20
1331.26
 11
-119.649
 21
1330.66
  0
LINE
  8
0
 10
-119.649
 20
1330.66
 11
-119.382
 21
1330.09
  0
LINE
  8
0
 10
-119.382
 20
1330.09
 11
-119.045
 21
1329.56
  0
LINE
  8
0
 10
-119.045
 20
1329.56
 11
-118.645
 21
1329.08
  0
LINE
  8
0
 10
-118.645
 20
1329.08
 11
-118.187
 21
1328.65
  0
LINE
  8
0
 10
-118.187
 20
1328.65
 11
-117.679
 21
1328.28
  0
LINE
  8
0
 10
-117.679
 20
1328.28
 11
-117.129
 21
1327.98
  0
LINE
  8
0
 10
-117.129
 20
1327.98
 11
-116.545
 21
1327.74
  0
LINE
  8
0
 10
-116.545
 20
1327.74
 11
-115.937
 21
1327.59
  0
LINE
  8
0
 10
-115.937
 20
1327.59
 11
-115.314
 21
1327.51
  0
LINE
  8
0
 10
-115.314
 20
1327.51
 11
115.314
 21
1327.51
  0
LINE
  8
0
 10
115.314
 20
1327.51
 11
115.937
 21
1327.59
  0
LINE
  8
0
 10
-114.695
 20
1329.89
 11
-115.083
 21
1329.94
  0
LINE
  8
0
 10
-115.083
 20
1329.94
 11
-115.462
 21
1330.04
  0
LINE
  8
0
 10
-115.462
 20
1330.04
 11
-115.825
 21
1330.18
  0
LINE
  8
0
 10
-115.825
 20
1330.18
 11
-116.168
 21
1330.37
  0
LINE
  8
0
 10
-116.168
 20
1330.37
 11
-116.484
 21
1330.6
  0
LINE
  8
0
 10
-116.484
 20
1330.6
 11
-116.769
 21
1330.87
  0
LINE
  8
0
 10
-116.769
 20
1330.87
 11
-117.018
 21
1331.17
  0
LINE
  8
0
 10
-117.018
 20
1331.17
 11
-117.228
 21
1331.5
  0
LINE
  8
0
 10
-117.228
 20
1331.5
 11
-117.394
 21
1331.85
  0
LINE
  8
0
 10
-117.394
 20
1331.85
 11
-117.515
 21
1332.23
  0
LINE
  8
0
 10
-117.515
 20
1332.23
 11
-117.588
 21
1332.61
  0
LINE
  8
0
 10
-117.588
 20
1332.61
 11
-117.613
 21
1333
  0
LINE
  8
0
 10
-117.613
 20
1333
 11
-117.613
 21
1607
  0
LINE
  8
0
 10
-117.613
 20
1607
 11
-117.588
 21
1607.39
  0
LINE
  8
0
 10
-117.588
 20
1607.39
 11
-117.515
 21
1607.77
  0
LINE
  8
0
 10
-117.515
 20
1607.77
 11
-117.394
 21
1608.15
  0
LINE
  8
0
 10
-117.394
 20
1608.15
 11
-117.228
 21
1608.5
  0
LINE
  8
0
 10
-117.228
 20
1608.5
 11
-117.018
 21
1608.83
  0
LINE
  8
0
 10
-117.018
 20
1608.83
 11
-116.769
 21
1609.13
  0
LINE
  8
0
 10
-116.769
 20
1609.13
 11
-116.484
 21
1609.4
  0
LINE
  8
0
 10
-116.484
 20
1609.4
 11
-116.168
 21
1609.63
  0
LINE
  8
0
 10
-116.168
 20
1609.63
 11
-115.825
 21
1609.82
  0
LINE
  8
0
 10
-115.825
 20
1609.82
 11
-115.462
 21
1609.96
  0
LINE
  8
0
 10
-115.462
 20
1609.96
 11
-115.083
 21
1610.06
  0
LINE
  8
0
 10
-115.083
 20
1610.06
 11
-114.695
 21
1610.11
  0
LINE
  8
0
 10
-114.695
 20
1610.11
 11
114.695
 21
1610.11
  0
LINE
  8
0
 10
114.695
 20
1610.11
 11
115.083
 21
1610.06
  0
LINE
  8
0
 10
115.083
 20
1610.06
 11
115.462
 21
1609.96
  0
LINE
  8
0
 10
115.462
 20
1609.96
 11
115.825
 21
1609.82
  0
LINE
  8
0
 10
115.825
 20
1609.82
 11
116.168
 21
1609.63
  0
LINE
  8
0
 10
116.168
 20
1609.63
 11
116.484
 21
1609.4
  0
LINE
  8
0
 10
116.484
 20
1609.4
 11
116.769
 21
1609.13
  0
LINE
  8
0
 10
116.769
 20
1609.13
 11
117.018
 21
1608.83
  0
LINE
  8
0
 10
117.018
 20
1608.83
 11
117.228
 21
1608.5
  0
LINE
  8
0
 10
117.228
 20
1608.5
 11
117.394
 21
1608.15
  0
LINE
  8
0
 10
117.394
 20
1608.15
 11
117.515
 21
1607.77
  0
LINE
  8
0
 10
117.515
 20
1607.77
 11
117.588
 21
1607.39
  0
LINE
  8
0
 10
117.588
 20
1607.39
 11
117.613
 21
1607
  0
LINE
  8
0
 10
117.613
 20
1607
 11
117.613
 21
1333
  0
LINE
  8
0
 10
117.613
 20
1333
 11
117.588
 21
1332.61
  0
LINE
  8
0
 10
117.588
 20
1332.61
 11
117.515
 21
1332.23
  0
LINE
  8
0
 10
117.515
 20
1332.23
 11
117.394
 21
1331.85
  0
LINE
  8
0
 10
117.394
 20
1331.85
 11
117.228
 21
1331.5
  0
LINE
  8
0
 10
117.228
 20
1331.5
 11
117.018
 21
1331.17
  0
LINE
  8
0
 10
117.018
 20
1331.17
 11
116.769
 21
1330.87
  0
LINE
  8
0
 10
116.769
 20
1330.87
 11
116.484
 21
1330.6
  0
LINE
  8
0
 10
116.484
 20
1330.6
 11
116.168
 21
1330.37
  0
LINE
  8
0
 10
116.168
 20
1330.37
 11
115.825
 21
1330.18
  0
LINE
  8
0
 10
115.825
 20
1330.18
 11
115.462
 21
1330.04
  0
LINE
  8
0
 10
115.462
 20
1330.04
 11
115.083
 21
1329.94
  0
LINE
  8
0
 10
115.083
 20
1329.94
 11
114.695
 21
1329.89
  0
LINE
  8
0
 10
114.695
 20
1329.89
 11
-114.695
 21
1329.89
  0
LINE
  8
0
 10
115.937
 20
1033.59
 11
116.545
 21
1033.74
  0
LINE
  8
0
 10
116.545
 20
1033.74
 11
117.129
 21
1033.98
  0
LINE
  8
0
 10
117.129
 20
1033.98
 11
117.679
 21
1034.28
  0
LINE
  8
0
 10
117.679
 20
1034.28
 11
118.187
 21
1034.65
  0
LINE
  8
0
 10
118.187
 20
1034.65
 11
118.645
 21
1035.08
  0
LINE
  8
0
 10
118.645
 20
1035.08
 11
119.045
 21
1035.56
  0
LINE
  8
0
 10
119.045
 20
1035.56
 11
119.382
 21
1036.09
  0
LINE
  8
0
 10
119.382
 20
1036.09
 11
119.649
 21
1036.66
  0
LINE
  8
0
 10
119.649
 20
1036.66
 11
119.843
 21
1037.26
  0
LINE
  8
0
 10
119.843
 20
1037.26
 11
119.961
 21
1037.87
  0
LINE
  8
0
 10
119.961
 20
1037.87
 11
120
 21
1038.5
  0
LINE
  8
0
 10
120
 20
1038.5
 11
120
 21
1313.5
  0
LINE
  8
0
 10
120
 20
1313.5
 11
119.961
 21
1314.13
  0
LINE
  8
0
 10
119.961
 20
1314.13
 11
119.843
 21
1314.74
  0
LINE
  8
0
 10
119.843
 20
1314.74
 11
119.649
 21
1315.34
  0
LINE
  8
0
 10
119.649
 20
1315.34
 11
119.382
 21
1315.91
  0
LINE
  8
0
 10
119.382
 20
1315.91
 11
119.045
 21
1316.44
  0
LINE
  8
0
 10
119.045
 20
1316.44
 11
118.645
 21
1316.92
  0
LINE
  8
0
 10
118.645
 20
1316.92
 11
118.187
 21
1317.35
  0
LINE
  8
0
 10
118.187
 20
1317.35
 11
117.679
 21
1317.72
  0
LINE
  8
0
 10
117.679
 20
1317.72
 11
117.129
 21
1318.02
  0
LINE
  8
0
 10
117.129
 20
1318.02
 11
116.545
 21
1318.26
  0
LINE
  8
0
 10
116.545
 20
1318.26
 11
115.937
 21
1318.41
  0
LINE
  8
0
 10
115.937
 20
1318.41
 11
115.314
 21
1318.49
  0
LINE
  8
0
 10
115.314
 20
1318.49
 11
-115.314
 21
1318.49
  0
LINE
  8
0
 10
-115.314
 20
1318.49
 11
-115.937
 21
1318.41
  0
LINE
  8
0
 10
-115.937
 20
1318.41
 11
-116.545
 21
1318.26
  0
LINE
  8
0
 10
-116.545
 20
1318.26
 11
-117.129
 21
1318.02
  0
LINE
  8
0
 10
-117.129
 20
1318.02
 11
-117.679
 21
1317.72
  0
LINE
  8
0
 10
-117.679
 20
1317.72
 11
-118.187
 21
1317.35
  0
LINE
  8
0
 10
-118.187
 20
1317.35
 11
-118.645
 21
1316.92
  0
LINE
  8
0
 10
-118.645
 20
1316.92
 11
-119.045
 21
1316.44
  0
LINE
  8
0
 10
-119.045
 20
1316.44
 11
-119.382
 21
1315.91
  0
LINE
  8
0
 10
-119.382
 20
1315.91
 11
-119.649
 21
1315.34
  0
LINE
  8
0
 10
-119.649
 20
1315.34
 11
-119.843
 21
1314.74
  0
LINE
  8
0
 10
-119.843
 20
1314.74
 11
-119.961
 21
1314.13
  0
LINE
  8
0
 10
-119.961
 20
1314.13
 11
-120
 21
1313.5
  0
LINE
  8
0
 10
-120
 20
1313.5
 11
-120
 21
1038.5
  0
LINE
  8
0
 10
-120
 20
1038.5
 11
-119.961
 21
1037.87
  0
LINE
  8
0
 10
-119.961
 20
1037.87
 11
-119.843
 21
1037.26
  0
LINE
  8
0
 10
-119.843
 20
1037.26
 11
-119.649
 21
1036.66
  0
LINE
  8
0
 10
-119.649
 20
1036.66
 11
-119.382
 21
1036.09
  0
LINE
  8
0
 10
-119.382
 20
1036.09
 11
-119.045
 21
1035.56
  0
LINE
  8
0
 10
-119.045
 20
1035.56
 11
-118.645
 21
1035.08
  0
LINE
  8
0
 10
-118.645
 20
1035.08
 11
-118.187
 21
1034.65
  0
LINE
  8
0
 10
-118.187
 20
1034.65
 11
-117.679
 21
1034.28
  0
LINE
  8
0
 10
-117.679
 20
1034.28
 11
-117.129
 21
1033.98
  0
LINE
  8
0
 10
-117.129
 20
1033.98
 11
-116.545
 21
1033.74
  0
LINE
  8
0
 10
-116.545
 20
1033.74
 11
-115.937
 21
1033.59
  0
LINE
  8
0
 10
-115.937
 20
1033.59
 11
-115.314
 21
1033.51
  0
LINE
  8
0
 10
-115.314
 20
1033.51
 11
115.314
 21
1033.51
  0
LINE
  8
0
 10
115.314
 20
1033.51
 11
115.937
 21
1033.59
  0
LINE
  8
0
 10
112.366
 20
1308.87
 11
112.1
 21
1308.9
  0
LINE
  8
0
 10
112.1
 20
1308.9
 11
111.84
 21
1308.97
  0
LINE
  8
0
 10
111.84
 20
1308.97
 11
111.591
 21
1309.07
  0
LINE
  8
0
 10
111.591
 20
1309.07
 11
111.356
 21
1309.2
  0
LINE
  8
0
 10
111.356
 20
1309.2
 11
111.139
 21
1309.35
  0
LINE
  8
0
 10
111.139
 20
1309.35
 11
110.943
 21
1309.54
  0
LINE
  8
0
 10
110.943
 20
1309.54
 11
110.773
 21
1309.74
  0
LINE
  8
0
 10
110.773
 20
1309.74
 11
110.629
 21
1309.97
  0
LINE
  8
0
 10
110.629
 20
1309.97
 11
110.515
 21
1310.21
  0
LINE
  8
0
 10
110.515
 20
1310.21
 11
110.432
 21
1310.47
  0
LINE
  8
0
 10
110.432
 20
1310.47
 11
110.382
 21
1310.73
  0
LINE
  8
0
 10
110.382
 20
1310.73
 11
110.365
 21
1311
  0
LINE
  8
0
 10
110.365
 20
1311
 11
110.382
 21
1311.27
  0
LINE
  8
0
 10
110.382
 20
1311.27
 11
110.432
 21
1311.53
  0
LINE
  8
0
 10
110.432
 20
1311.53
 11
110.515
 21
1311.79
  0
LINE
  8
0
 10
110.515
 20
1311.79
 11
110.629
 21
1312.03
  0
LINE
  8
0
 10
110.629
 20
1312.03
 11
110.773
 21
1312.26
  0
LINE
  8
0
 10
110.773
 20
1312.26
 11
110.943
 21
1312.46
  0
LINE
  8
0
 10
110.943
 20
1312.46
 11
111.139
 21
1312.65
  0
LINE
  8
0
 10
111.139
 20
1312.65
 11
111.356
 21
1312.8
  0
LINE
  8
0
 10
111.356
 20
1312.8
 11
111.591
 21
1312.93
  0
LINE
  8
0
 10
111.591
 20
1312.93
 11
111.84
 21
1313.03
  0
LINE
  8
0
 10
111.84
 20
1313.03
 11
112.1
 21
1313.1
  0
LINE
  8
0
 10
112.1
 20
1313.1
 11
112.366
 21
1313.13
  0
LINE
  8
0
 10
112.366
 20
1313.13
 11
112.634
 21
1313.13
  0
LINE
  8
0
 10
112.634
 20
1313.13
 11
112.9
 21
1313.1
  0
LINE
  8
0
 10
112.9
 20
1313.1
 11
113.16
 21
1313.03
  0
LINE
  8
0
 10
113.16
 20
1313.03
 11
113.409
 21
1312.93
  0
LINE
  8
0
 10
113.409
 20
1312.93
 11
113.644
 21
1312.8
  0
LINE
  8
0
 10
113.644
 20
1312.8
 11
113.861
 21
1312.65
  0
LINE
  8
0
 10
113.861
 20
1312.65
 11
114.057
 21
1312.46
  0
LINE
  8
0
 10
114.057
 20
1312.46
 11
114.227
 21
1312.26
  0
LINE
  8
0
 10
114.227
 20
1312.26
 11
114.371
 21
1312.03
  0
LINE
  8
0
 10
114.371
 20
1312.03
 11
114.485
 21
1311.79
  0
LINE
  8
0
 10
114.485
 20
1311.79
 11
114.568
 21
1311.53
  0
LINE
  8
0
 10
114.568
 20
1311.53
 11
114.618
 21
1311.27
  0
LINE
  8
0
 10
114.618
 20
1311.27
 11
114.635
 21
1311
  0
LINE
  8
0
 10
114.635
 20
1311
 11
114.618
 21
1310.73
  0
LINE
  8
0
 10
114.618
 20
1310.73
 11
114.568
 21
1310.47
  0
LINE
  8
0
 10
114.568
 20
1310.47
 11
114.485
 21
1310.21
  0
LINE
  8
0
 10
114.485
 20
1310.21
 11
114.371
 21
1309.97
  0
LINE
  8
0
 10
114.371
 20
1309.97
 11
114.227
 21
1309.74
  0
LINE
  8
0
 10
114.227
 20
1309.74
 11
114.057
 21
1309.54
  0
LINE
  8
0
 10
114.057
 20
1309.54
 11
113.861
 21
1309.35
  0
LINE
  8
0
 10
113.861
 20
1309.35
 11
113.644
 21
1309.2
  0
LINE
  8
0
 10
113.644
 20
1309.2
 11
113.409
 21
1309.07
  0
LINE
  8
0
 10
113.409
 20
1309.07
 11
113.16
 21
1308.97
  0
LINE
  8
0
 10
113.16
 20
1308.97
 11
112.9
 21
1308.9
  0
LINE
  8
0
 10
112.9
 20
1308.9
 11
112.634
 21
1308.87
  0
LINE
  8
0
 10
112.634
 20
1308.87
 11
112.366
 21
1308.87
  0
LINE
  8
0
 10
-112.634
 20
1308.87
 11
-112.9
 21
1308.9
  0
LINE
  8
0
 10
-112.9
 20
1308.9
 11
-113.16
 21
1308.97
  0
LINE
  8
0
 10
-113.16
 20
1308.97
 11
-113.409
 21
1309.07
  0
LINE
  8
0
 10
-113.409
 20
1309.07
 11
-113.644
 21
1309.2
  0
LINE
  8
0
 10
-113.644
 20
1309.2
 11
-113.861
 21
1309.35
  0
LINE
  8
0
 10
-113.861
 20
1309.35
 11
-114.057
 21
1309.54
  0
LINE
  8
0
 10
-114.057
 20
1309.54
 11
-114.227
 21
1309.74
  0
LINE
  8
0
 10
-114.227
 20
1309.74
 11
-114.371
 21
1309.97
  0
LINE
  8
0
 10
-114.371
 20
1309.97
 11
-114.485
 21
1310.21
  0
LINE
  8
0
 10
-114.485
 20
1310.21
 11
-114.568
 21
1310.47
  0
LINE
  8
0
 10
-114.568
 20
1310.47
 11
-114.618
 21
1310.73
  0
LINE
  8
0
 10
-114.618
 20
1310.73
 11
-114.635
 21
1311
  0
LINE
  8
0
 10
-114.635
 20
1311
 11
-114.618
 21
1311.27
  0
LINE
  8
0
 10
-114.618
 20
1311.27
 11
-114.568
 21
1311.53
  0
LINE
  8
0
 10
-114.568
 20
1311.53
 11
-114.485
 21
1311.79
  0
LINE
  8
0
 10
-114.485
 20
1311.79
 11
-114.371
 21
1312.03
  0
LINE
  8
0
 10
-114.371
 20
1312.03
 11
-114.227
 21
1312.26
  0
LINE
  8
0
 10
-114.227
 20
1312.26
 11
-114.057
 21
1312.46
  0
LINE
  8
0
 10
-114.057
 20
1312.46
 11
-113.861
 21
1312.65
  0
LINE
  8
0
 10
-113.861
 20
1312.65
 11
-113.644
 21
1312.8
  0
LINE
  8
0
 10
-113.644
 20
1312.8
 11
-113.409
 21
1312.93
  0
LINE
  8
0
 10
-113.409
 20
1312.93
 11
-113.16
 21
1313.03
  0
LINE
  8
0
 10
-113.16
 20
1313.03
 11
-112.9
 21
1313.1
  0
LINE
  8
0
 10
-112.9
 20
1313.1
 11
-112.634
 21
1313.13
  0
LINE
  8
0
 10
-112.634
 20
1313.13
 11
-112.366
 21
1313.13
  0
LINE
  8
0
 10
-112.366
 20
1313.13
 11
-112.1
 21
1313.1
  0
LINE
  8
0
 10
-112.1
 20
1313.1
 11
-111.84
 21
1313.03
  0
LINE
  8
0
 10
-111.84
 20
1313.03
 11
-111.591
 21
1312.93
  0
LINE
  8
0
 10
-111.591
 20
1312.93
 11
-111.356
 21
1312.8
  0
LINE
  8
0
 10
-111.356
 20
1312.8
 11
-111.139
 21
1312.65
  0
LINE
  8
0
 10
-111.139
 20
1312.65
 11
-110.943
 21
1312.46
  0
LINE
  8
0
 10
-110.943
 20
1312.46
 11
-110.773
 21
1312.26
  0
LINE
  8
0
 10
-110.773
 20
1312.26
 11
-110.629
 21
1312.03
  0
LINE
  8
0
 10
-110.629
 20
1312.03
 11
-110.515
 21
1311.79
  0
LINE
  8
0
 10
-110.515
 20
1311.79
 11
-110.432
 21
1311.53
  0
LINE
  8
0
 10
-110.432
 20
1311.53
 11
-110.382
 21
1311.27
  0
LINE
  8
0
 10
-110.382
 20
1311.27
 11
-110.365
 21
1311
  0
LINE
  8
0
 10
-110.365
 20
1311
 11
-110.382
 21
1310.73
  0
LINE
  8
0
 10
-110.382
 20
1310.73
 11
-110.432
 21
1310.47
  0
LINE
  8
0
 10
-110.432
 20
1310.47
 11
-110.515
 21
1310.21
  0
LINE
  8
0
 10
-110.515
 20
1310.21
 11
-110.629
 21
1309.97
  0
LINE
  8
0
 10
-110.629
 20
1309.97
 11
-110.773
 21
1309.74
  0
LINE
  8
0
 10
-110.773
 20
1309.74
 11
-110.943
 21
1309.54
  0
LINE
  8
0
 10
-110.943
 20
1309.54
 11
-111.139
 21
1309.35
  0
LINE
  8
0
 10
-111.139
 20
1309.35
 11
-111.356
 21
1309.2
  0
LINE
  8
0
 10
-111.356
 20
1309.2
 11
-111.591
 21
1309.07
  0
LINE
  8
0
 10
-111.591
 20
1309.07
 11
-111.84
 21
1308.97
  0
LINE
  8
0
 10
-111.84
 20
1308.97
 11
-112.1
 21
1308.9
  0
LINE
  8
0
 10
-112.1
 20
1308.9
 11
-112.366
 21
1308.87
  0
LINE
  8
0
 10
-112.366
 20
1308.87
 11
-112.634
 21
1308.87
  0
LINE
  8
0
 10
112.366
 20
1038.87
 11
112.1
 21
1038.9
  0
LINE
  8
0
 10
112.1
 20
1038.9
 11
111.84
 21
1038.97
  0
LINE
  8
0
 10
111.84
 20
1038.97
 11
111.591
 21
1039.07
  0
LINE
  8
0
 10
111.591
 20
1039.07
 11
111.356
 21
1039.2
  0
LINE
  8
0
 10
111.356
 20
1039.2
 11
111.139
 21
1039.35
  0
LINE
  8
0
 10
111.139
 20
1039.35
 11
110.943
 21
1039.54
  0
LINE
  8
0
 10
110.943
 20
1039.54
 11
110.773
 21
1039.74
  0
LINE
  8
0
 10
110.773
 20
1039.74
 11
110.629
 21
1039.97
  0
LINE
  8
0
 10
110.629
 20
1039.97
 11
110.515
 21
1040.21
  0
LINE
  8
0
 10
110.515
 20
1040.21
 11
110.432
 21
1040.47
  0
LINE
  8
0
 10
110.432
 20
1040.47
 11
110.382
 21
1040.73
  0
LINE
  8
0
 10
110.382
 20
1040.73
 11
110.365
 21
1041
  0
LINE
  8
0
 10
110.365
 20
1041
 11
110.382
 21
1041.27
  0
LINE
  8
0
 10
110.382
 20
1041.27
 11
110.432
 21
1041.53
  0
LINE
  8
0
 10
110.432
 20
1041.53
 11
110.515
 21
1041.79
  0
LINE
  8
0
 10
110.515
 20
1041.79
 11
110.629
 21
1042.03
  0
LINE
  8
0
 10
110.629
 20
1042.03
 11
110.773
 21
1042.26
  0
LINE
  8
0
 10
110.773
 20
1042.26
 11
110.943
 21
1042.46
  0
LINE
  8
0
 10
110.943
 20
1042.46
 11
111.139
 21
1042.65
  0
LINE
  8
0
 10
111.139
 20
1042.65
 11
111.356
 21
1042.8
  0
LINE
  8
0
 10
111.356
 20
1042.8
 11
111.591
 21
1042.93
  0
LINE
  8
0
 10
111.591
 20
1042.93
 11
111.84
 21
1043.03
  0
LINE
  8
0
 10
111.84
 20
1043.03
 11
112.1
 21
1043.1
  0
LINE
  8
0
 10
112.1
 20
1043.1
 11
112.366
 21
1043.13
  0
LINE
  8
0
 10
112.366
 20
1043.13
 11
112.634
 21
1043.13
  0
LINE
  8
0
 10
112.634
 20
1043.13
 11
112.9
 21
1043.1
  0
LINE
  8
0
 10
112.9
 20
1043.1
 11
113.16
 21
1043.03
  0
LINE
  8
0
 10
113.16
 20
1043.03
 11
113.409
 21
1042.93
  0
LINE
  8
0
 10
113.409
 20
1042.93
 11
113.644
 21
1042.8
  0
LINE
  8
0
 10
113.644
 20
1042.8
 11
113.861
 21
1042.65
  0
LINE
  8
0
 10
113.861
 20
1042.65
 11
114.057
 21
1042.46
  0
LINE
  8
0
 10
114.057
 20
1042.46
 11
114.227
 21
1042.26
  0
LINE
  8
0
 10
114.227
 20
1042.26
 11
114.371
 21
1042.03
  0
LINE
  8
0
 10
114.371
 20
1042.03
 11
114.485
 21
1041.79
  0
LINE
  8
0
 10
114.485
 20
1041.79
 11
114.568
 21
1041.53
  0
LINE
  8
0
 10
114.568
 20
1041.53
 11
114.618
 21
1041.27
  0
LINE
  8
0
 10
114.618
 20
1041.27
 11
114.635
 21
1041
  0
LINE
  8
0
 10
114.635
 20
1041
 11
114.618
 21
1040.73
  0
LINE
  8
0
 10
114.618
 20
1040.73
 11
114.568
 21
1040.47
  0
LINE
  8
0
 10
114.568
 20
1040.47
 11
114.485
 21
1040.21
  0
LINE
  8
0
 10
114.485
 20
1040.21
 11
114.371
 21
1039.97
  0
LINE
  8
0
 10
114.371
 20
1039.97
 11
114.227
 21
1039.74
  0
LINE
  8
0
 10
114.227
 20
1039.74
 11
114.057
 21
1039.54
  0
LINE
  8
0
 10
114.057
 20
1039.54
 11
113.861
 21
1039.35
  0
LINE
  8
0
 10
113.861
 20
1039.35
 11
113.644
 21
1039.2
  0
LINE
  8
0
 10
113.644
 20
1039.2
 11
113.409
 21
1039.07
  0
LINE
  8
0
 10
113.409
 20
1039.07
 11
113.16
 21
1038.97
  0
LINE
  8
0
 10
113.16
 20
1038.97
 11
112.9
 21
1038.9
  0
LINE
  8
0
 10
112.9
 20
1038.9
 11
112.634
 21
1038.87
  0
LINE
  8
0
 10
112.634
 20
1038.87
 11
112.366
 21
1038.87
  0
LINE
  8
0
 10
-112.634
 20
1038.87
 11
-112.9
 21
1038.9
  0
LINE
  8
0
 10
-112.9
 20
1038.9
 11
-113.16
 21
1038.97
  0
LINE
  8
0
 10
-113.16
 20
1038.97
 11
-113.409
 21
1039.07
  0
LINE
  8
0
 10
-113.409
 20
1039.07
 11
-113.644
 21
1039.2
  0
LINE
  8
0
 10
-113.644
 20
1039.2
 11
-113.861
 21
1039.35
  0
LINE
  8
0
 10
-113.861
 20
1039.35
 11
-114.057
 21
1039.54
  0
LINE
  8
0
 10
-114.057
 20
1039.54
 11
-114.227
 21
1039.74
  0
LINE
  8
0
 10
-114.227
 20
1039.74
 11
-114.371
 21
1039.97
  0
LINE
  8
0
 10
-114.371
 20
1039.97
 11
-114.485
 21
1040.21
  0
LINE
  8
0
 10
-114.485
 20
1040.21
 11
-114.568
 21
1040.47
  0
LINE
  8
0
 10
-114.568
 20
1040.47
 11
-114.618
 21
1040.73
  0
LINE
  8
0
 10
-114.618
 20
1040.73
 11
-114.635
 21
1041
  0
LINE
  8
0
 10
-114.635
 20
1041
 11
-114.618
 21
1041.27
  0
LINE
  8
0
 10
-114.618
 20
1041.27
 11
-114.568
 21
1041.53
  0
LINE
  8
0
 10
-114.568
 20
1041.53
 11
-114.485
 21
1041.79
  0
LINE
  8
0
 10
-114.485
 20
1041.79
 11
-114.371
 21
1042.03
  0
LINE
  8
0
 10
-114.371
 20
1042.03
 11
-114.227
 21
1042.26
  0
LINE
  8
0
 10
-114.227
 20
1042.26
 11
-114.057
 21
1042.46
  0
LINE
  8
0
 10
-114.057
 20
1042.46
 11
-113.861
 21
1042.65
  0
LINE
  8
0
 10
-113.861
 20
1042.65
 11
-113.644
 21
1042.8
  0
LINE
  8
0
 10
-113.644
 20
1042.8
 11
-113.409
 21
1042.93
  0
LINE
  8
0
 10
-113.409
 20
1042.93
 11
-113.16
 21
1043.03
  0
LINE
  8
0
 10
-113.16
 20
1043.03
 11
-112.9
 21
1043.1
  0
LINE
  8
0
 10
-112.9
 20
1043.1
 11
-112.634
 21
1043.13
  0
LINE
  8
0
 10
-112.634
 20
1043.13
 11
-112.366
 21
1043.13
  0
LINE
  8
0
 10
-112.366
 20
1043.13
 11
-112.1
 21
1043.1
  0
LINE
  8
0
 10
-112.1
 20
1043.1
 11
-111.84
 21
1043.03
  0
LINE
  8
0
 10
-111.84
 20
1043.03
 11
-111.591
 21
1042.93
  0
LINE
  8
0
 10
-111.591
 20
1042.93
 11
-111.356
 21
1042.8
  0
LINE
  8
0
 10
-111.356
 20
1042.8
 11
-111.139
 21
1042.65
  0
LINE
  8
0
 10
-111.139
 20
1042.65
 11
-110.943
 21
1042.46
  0
LINE
  8
0
 10
-110.943
 20
1042.46
 11
-110.773
 21
1042.26
  0
LINE
  8
0
 10
-110.773
 20
1042.26
 11
-110.629
 21
1042.03
  0
LINE
  8
0
 10
-110.629
 20
1042.03
 11
-110.515
 21
1041.79
  0
LINE
  8
0
 10
-110.515
 20
1041.79
 11
-110.432
 21
1041.53
  0
LINE
  8
0
 10
-110.432
 20
1041.53
 11
-110.382
 21
1041.27
  0
LINE
  8
0
 10
-110.382
 20
1041.27
 11
-110.365
 21
1041
  0
LINE
  8
0
 10
-110.365
 20
1041
 11
-110.382
 21
1040.73
  0
LINE
  8
0
 10
-110.382
 20
1040.73
 11
-110.432
 21
1040.47
  0
LINE
  8
0
 10
-110.432
 20
1040.47
 11
-110.515
 21
1040.21
  0
LINE
  8
0
 10
-110.515
 20
1040.21
 11
-110.629
 21
1039.97
  0
LINE
  8
0
 10
-110.629
 20
1039.97
 11
-110.773
 21
1039.74
  0
LINE
  8
0
 10
-110.773
 20
1039.74
 11
-110.943
 21
1039.54
  0
LINE
  8
0
 10
-110.943
 20
1039.54
 11
-111.139
 21
1039.35
  0
LINE
  8
0
 10
-111.139
 20
1039.35
 11
-111.356
 21
1039.2
  0
LINE
  8
0
 10
-111.356
 20
1039.2
 11
-111.591
 21
1039.07
  0
LINE
  8
0
 10
-111.591
 20
1039.07
 11
-111.84
 21
1038.97
  0
LINE
  8
0
 10
-111.84
 20
1038.97
 11
-112.1
 21
1038.9
  0
LINE
  8
0
 10
-112.1
 20
1038.9
 11
-112.366
 21
1038.87
  0
LINE
  8
0
 10
-112.366
 20
1038.87
 11
-112.634
 21
1038.87
  0
ENDSEC
  0
SECTION
  2
OBJECTS
  0
DICTIONARY
  0
ENDSEC
  0
EOF
