<?xml version="1.0" standalone="no"?>
<!DOCTYPE svg PUBLIC "-//W3C//DTD SVG 1.1//EN" "http://www.w3.org/Graphics/SVG/1.1/DTD/svg11.dtd">
<svg width="300mm" height="108mm" viewBox="-150 -171 300 108" xmlns="http://www.w3.org/2000/svg" version="1.1">
<title>OpenSCAD Model</title>
<path d="
M 145.937,-141.089 L 146.545,-141.245 L 147.129,-141.476 L 147.679,-141.778 L 148.187,-142.147 L 148.645,-142.577
 L 149.045,-143.061 L 149.382,-143.591 L 149.649,-144.159 L 149.843,-144.757 L 149.961,-145.373 L 150,-146
 L 150,-166 L 149.961,-166.627 L 149.843,-167.243 L 149.649,-167.841 L 149.382,-168.409 L 149.045,-168.939
 L 148.645,-169.423 L 148.187,-169.853 L 147.679,-170.222 L 147.129,-170.524 L 146.545,-170.755 L 145.937,-170.911
 L 145.314,-170.99 L -145.314,-170.99 L -145.937,-170.911 L -146.545,-170.755 L -147.129,-170.524 L -147.679,-170.222
 L -148.187,-169.853 L -148.645,-169.423 L -149.045,-168.939 L -149.382,-168.409 L -149.649,-167.841 L -149.843,-167.243
 L -149.961,-166.627 L -150,-166 L -150,-146 L -149.961,-145.373 L -149.843,-144.757 L -149.649,-144.159
 L -149.382,-143.591 L -149.045,-143.061 L -148.645,-142.577 L -148.187,-142.147 L -147.679,-141.778 L -147.129,-141.476
 L -146.545,-141.245 L -145.937,-141.089 L -145.314,-141.01 L 145.314,-141.01 z
M -145.048,-141.509 L -145.64,-141.584 L -146.218,-141.732 L -146.772,-141.952 L -147.295,-142.239 L -147.778,-142.59
 L -148.213,-142.998 L -148.593,-143.458 L -148.912,-143.962 L -149.166,-144.501 L -149.351,-145.069 L -149.463,-145.655
 L -149.5,-146.25 L -149.5,-165.75 L -149.463,-166.345 L -149.351,-166.931 L -149.166,-167.499 L -148.912,-168.038
 L -148.593,-168.542 L -148.213,-169.002 L -147.778,-169.41 L -147.295,-169.761 L -146.772,-170.048 L -146.218,-170.268
 L -145.64,-170.416 L -145.048,-170.491 L 145.048,-170.491 L 145.64,-170.416 L 146.218,-170.268 L 146.772,-170.048
 L 147.295,-169.761 L 147.778,-169.41 L 148.213,-169.002 L 148.593,-168.542 L 148.912,-168.038 L 149.166,-167.499
 L 149.351,-166.931 L 149.463,-166.345 L 149.5,-165.75 L 149.5,-146.25 L 149.463,-145.655 L 149.351,-145.069
 L 149.166,-144.501 L 148.912,-143.962 L 148.593,-143.458 L 148.213,-142.998 L 147.778,-142.59 L 147.295,-142.239
 L 146.772,-141.952 L 146.218,-141.732 L 145.64,-141.584 L 145.048,-141.509 z
M 145.937,-102.089 L 146.545,-102.245 L 147.129,-102.476 L 147.679,-102.778 L 148.187,-103.147 L 148.645,-103.577
 L 149.045,-104.061 L 149.382,-104.591 L 149.649,-105.159 L 149.843,-105.757 L 149.961,-106.373 L 150,-107
 L 150,-127 L 149.961,-127.627 L 149.843,-128.243 L 149.649,-128.841 L 149.382,-129.409 L 149.045,-129.939
 L 148.645,-130.423 L 148.187,-130.853 L 147.679,-131.222 L 147.129,-131.524 L 146.545,-131.755 L 145.937,-131.911
 L 145.314,-131.99 L -145.314,-131.99 L -145.937,-131.911 L -146.545,-131.755 L -147.129,-131.524 L -147.679,-131.222
 L -148.187,-130.853 L -148.645,-130.423 L -149.045,-129.939 L -149.382,-129.409 L -149.649,-128.841 L -149.843,-128.243
 L -149.961,-127.627 L -150,-127 L -150,-107 L -149.961,-106.373 L -149.843,-105.757 L -149.649,-105.159
 L -149.382,-104.591 L -149.045,-104.061 L -148.645,-103.577 L -148.187,-103.147 L -147.679,-102.778 L -147.129,-102.476
 L -146.545,-102.245 L -145.937,-102.089 L -145.314,-102.01 L 145.314,-102.01 z
M -144.993,-103.388 L -145.475,-103.449 L -145.946,-103.57 L -146.398,-103.749 L -146.823,-103.983 L -147.216,-104.269
 L -147.571,-104.601 L -147.88,-104.976 L -148.141,-105.386 L -148.348,-105.826 L -148.498,-106.288 L -148.589,-106.765
 L -148.619,-107.25 L -148.619,-126.75 L -148.589,-127.235 L -148.498,-127.712 L -148.348,-128.174 L -148.141,-128.614
 L -147.88,-129.024 L -147.571,-129.399 L -147.216,-129.731 L -146.823,-130.017 L -146.398,-130.251 L -145.946,-130.43
 L -145.475,-130.551 L -144.993,-130.612 L 144.993,-130.612 L 145.475,-130.551 L 145.946,-130.43 L 146.398,-130.251
 L 146.823,-130.017 L 147.216,-129.731 L 147.571,-129.399 L 147.88,-129.024 L 148.141,-128.614 L 148.348,-128.174
 L 148.498,-127.712 L 148.589,-127.235 L 148.619,-126.75 L 148.619,-107.25 L 148.589,-106.765 L 148.498,-106.288
 L 148.348,-105.826 L 148.141,-105.386 L 147.88,-104.976 L 147.571,-104.601 L 147.216,-104.269 L 146.823,-103.983
 L 146.398,-103.749 L 145.946,-103.57 L 145.475,-103.449 L 144.993,-103.388 z
M 145.937,-63.0886 L 146.545,-63.2447 L 147.129,-63.4759 L 147.679,-63.7784 L 148.187,-64.1474 L 148.645,-64.5773
 L 149.045,-65.0611 L 149.382,-65.5912 L 149.649,-66.1594 L 149.843,-66.7566 L 149.961,-67.3733 L 150,-68
 L 150,-88 L 149.961,-88.6267 L 149.843,-89.2434 L 149.649,-89.8406 L 149.382,-90.4088 L 149.045,-90.9389
 L 148.645,-91.4227 L 148.187,-91.8526 L 147.679,-92.2216 L 147.129,-92.5241 L 146.545,-92.7553 L 145.937,-92.9114
 L 145.314,-92.9901 L -145.314,-92.9901 L -145.937,-92.9114 L -146.545,-92.7553 L -147.129,-92.5241 L -147.679,-92.2216
 L -148.187,-91.8526 L -148.645,-91.4227 L -149.045,-90.9389 L -149.382,-90.4088 L -149.649,-89.8406 L -149.843,-89.2434
 L -149.961,-88.6267 L -150,-88 L -150,-68 L -149.961,-67.3733 L -149.843,-66.7566 L -149.649,-66.1594
 L -149.382,-65.5912 L -149.045,-65.0611 L -148.645,-64.5773 L -148.187,-64.1474 L -147.679,-63.7784 L -147.129,-63.4759
 L -146.545,-63.2447 L -145.937,-63.0886 L -145.314,-63.0099 L 145.314,-63.0099 z
M 142.387,-83.7036 L 142.163,-83.7319 L 141.944,-83.7881 L 141.734,-83.8713 L 141.536,-83.9802 L 141.353,-84.1131
 L 141.188,-84.2678 L 141.044,-84.442 L 140.923,-84.6328 L 140.826,-84.8374 L 140.757,-85.0524 L 140.714,-85.2744
 L 140.7,-85.5 L 140.714,-85.7256 L 140.757,-85.9476 L 140.826,-86.1626 L 140.923,-86.3671 L 141.044,-86.558
 L 141.188,-86.7322 L 141.353,-86.8869 L 141.536,-87.0198 L 141.734,-87.1287 L 141.944,-87.2119 L 142.163,-87.2681
 L 142.387,-87.2964 L 142.613,-87.2964 L 142.837,-87.2681 L 143.056,-87.2119 L 143.266,-87.1287 L 143.464,-87.0198
 L 143.647,-86.8869 L 143.812,-86.7322 L 143.956,-86.558 L 144.077,-86.3671 L 144.174,-86.1626 L 144.243,-85.9476
 L 144.286,-85.7256 L 144.3,-85.5 L 144.286,-85.2744 L 144.243,-85.0524 L 144.174,-84.8374 L 144.077,-84.6328
 L 143.956,-84.442 L 143.812,-84.2678 L 143.647,-84.1131 L 143.464,-83.9802 L 143.266,-83.8713 L 143.056,-83.7881
 L 142.837,-83.7319 L 142.613,-83.7036 z
M -142.613,-83.7036 L -142.837,-83.7319 L -143.056,-83.7881 L -143.266,-83.8713 L -143.464,-83.9802 L -143.647,-84.1131
 L -143.812,-84.2678 L -143.956,-84.442 L -144.077,-84.6328 L -144.174,-84.8374 L -144.243,-85.0524 L -144.286,-85.2744
 L -144.3,-85.5 L -144.286,-85.7256 L -144.243,-85.9476 L -144.174,-86.1626 L -144.077,-86.3671 L -143.956,-86.558
 L -143.812,-86.7322 L -143.647,-86.8869 L -143.464,-87.0198 L -143.266,-87.1287 L -143.056,-87.2119 L -142.837,-87.2681
 L -142.613,-87.2964 L -142.387,-87.2964 L -142.163,-87.2681 L -141.944,-87.2119 L -141.734,-87.1287 L -141.536,-87.0198
 L -141.353,-86.8869 L -141.188,-86.7322 L -141.044,-86.558 L -140.923,-86.3671 L -140.826,-86.1626 L -140.757,-85.9476
 L -140.714,-85.7256 L -140.7,-85.5 L -140.714,-85.2744 L -140.757,-85.0524 L -140.826,-84.8374 L -140.923,-84.6328
 L -141.044,-84.442 L -141.188,-84.2678 L -141.353,-84.1131 L -141.536,-83.9802 L -141.734,-83.8713 L -141.944,-83.7881
 L -142.163,-83.7319 L -142.387,-83.7036 z
M 142.387,-68.7036 L 142.163,-68.7319 L 141.944,-68.7881 L 141.734,-68.8713 L 141.536,-68.9802 L 141.353,-69.1131
 L 141.188,-69.2678 L 141.044,-69.442 L 140.923,-69.6329 L 140.826,-69.8374 L 140.757,-70.0524 L 140.714,-70.2744
 L 140.7,-70.5 L 140.714,-70.7256 L 140.757,-70.9476 L 140.826,-71.1626 L 140.923,-71.3672 L 141.044,-71.558
 L 141.188,-71.7322 L 141.353,-71.8869 L 141.536,-72.0198 L 141.734,-72.1287 L 141.944,-72.2119 L 142.163,-72.2681
 L 142.387,-72.2964 L 142.613,-72.2964 L 142.837,-72.2681 L 143.056,-72.2119 L 143.266,-72.1287 L 143.464,-72.0198
 L 143.647,-71.8869 L 143.812,-71.7322 L 143.956,-71.558 L 144.077,-71.3672 L 144.174,-71.1626 L 144.243,-70.9476
 L 144.286,-70.7256 L 144.3,-70.5 L 144.286,-70.2744 L 144.243,-70.0524 L 144.174,-69.8374 L 144.077,-69.6329
 L 143.956,-69.442 L 143.812,-69.2678 L 143.647,-69.1131 L 143.464,-68.9802 L 143.266,-68.8713 L 143.056,-68.7881
 L 142.837,-68.7319 L 142.613,-68.7036 z
M -142.613,-68.7036 L -142.837,-68.7319 L -143.056,-68.7881 L -143.266,-68.8713 L -143.464,-68.9802 L -143.647,-69.1131
 L -143.812,-69.2678 L -143.956,-69.442 L -144.077,-69.6329 L -144.174,-69.8374 L -144.243,-70.0524 L -144.286,-70.2744
 L -144.3,-70.5 L -144.286,-70.7256 L -144.243,-70.9476 L -144.174,-71.1626 L -144.077,-71.3672 L -143.956,-71.558
 L -143.812,-71.7322 L -143.647,-71.8869 L -143.464,-72.0198 L -143.266,-72.1287 L -143.056,-72.2119 L -142.837,-72.2681
 L -142.613,-72.2964 L -142.387,-72.2964 L -142.163,-72.2681 L -141.944,-72.2119 L -141.734,-72.1287 L -141.536,-72.0198
 L -141.353,-71.8869 L -141.188,-71.7322 L -141.044,-71.558 L -140.923,-71.3672 L -140.826,-71.1626 L -140.757,-70.9476
 L -140.714,-70.7256 L -140.7,-70.5 L -140.714,-70.2744 L -140.757,-70.0524 L -140.826,-69.8374 L -140.923,-69.6329
 L -141.044,-69.442 L -141.188,-69.2678 L -141.353,-69.1131 L -141.536,-68.9802 L -141.734,-68.8713 L -141.944,-68.7881
 L -142.163,-68.7319 L -142.387,-68.7036 z
" stroke="black" fill="lightgray" stroke-width="0.5"/>
</svg>
