<?xml version="1.0" standalone="no"?>
<!DOCTYPE svg PUBLIC "-//W3C//DTD SVG 1.1//EN" "http://www.w3.org/Graphics/SVG/1.1/DTD/svg11.dtd">
<svg width="256mm" height="1227mm" viewBox="-128 -2313 256 1227" xmlns="http://www.w3.org/2000/svg" version="1.1">
<title>OpenSCAD Model</title>
<path d="
M 123.437,-2013.09 L 124.045,-2013.24 L 124.629,-2013.48 L 125.179,-2013.78 L 125.687,-2014.15 L 126.145,-2014.58
 L 126.545,-2015.06 L 126.882,-2015.59 L 127.149,-2016.16 L 127.343,-2016.76 L 127.461,-2017.37 L 127.5,-2018
 L 127.5,-2308 L 127.461,-2308.63 L 127.343,-2309.24 L 127.149,-2309.84 L 126.882,-2310.41 L 126.545,-2310.94
 L 126.145,-2311.42 L 125.687,-2311.85 L 125.179,-2312.22 L 124.629,-2312.52 L 124.045,-2312.76 L 123.437,-2312.91
 L 122.814,-2312.99 L -122.814,-2312.99 L -123.437,-2312.91 L -124.045,-2312.76 L -124.629,-2312.52 L -125.179,-2312.22
 L -125.687,-2311.85 L -126.145,-2311.42 L -126.545,-2310.94 L -126.882,-2310.41 L -127.149,-2309.84 L -127.343,-2309.24
 L -127.461,-2308.63 L -127.5,-2308 L -127.5,-2018 L -127.461,-2017.37 L -127.343,-2016.76 L -127.149,-2016.16
 L -126.882,-2015.59 L -126.545,-2015.06 L -126.145,-2014.58 L -125.687,-2014.15 L -125.179,-2013.78 L -124.629,-2013.48
 L -124.045,-2013.24 L -123.437,-2013.09 L -122.814,-2013.01 L 122.814,-2013.01 z
M -122.251,-2014.51 L -122.75,-2014.57 L -123.236,-2014.7 L -123.703,-2014.88 L -124.143,-2015.12 L -124.55,-2015.42
 L -124.916,-2015.76 L -125.236,-2016.15 L -125.505,-2016.57 L -125.719,-2017.03 L -125.874,-2017.51 L -125.968,-2018
 L -126,-2018.5 L -126,-2307.5 L -125.968,-2308 L -125.874,-2308.49 L -125.719,-2308.97 L -125.505,-2309.43
 L -125.236,-2309.85 L -124.916,-2310.24 L -124.55,-2310.58 L -124.143,-2310.88 L -123.703,-2311.12 L -123.236,-2311.3
 L -122.75,-2311.43 L -122.251,-2311.49 L 122.251,-2311.49 L 122.75,-2311.43 L 123.236,-2311.3 L 123.703,-2311.12
 L 124.143,-2310.88 L 124.55,-2310.58 L 124.916,-2310.24 L 125.236,-2309.85 L 125.505,-2309.43 L 125.719,-2308.97
 L 125.874,-2308.49 L 125.968,-2308 L 126,-2307.5 L 126,-2018.5 L 125.968,-2018 L 125.874,-2017.51
 L 125.719,-2017.03 L 125.505,-2016.57 L 125.236,-2016.15 L 124.916,-2015.76 L 124.55,-2015.42 L 124.143,-2015.12
 L 123.703,-2014.88 L 123.236,-2014.7 L 122.75,-2014.57 L 122.251,-2014.51 z
M 123.437,-1704.09 L 124.045,-1704.24 L 124.629,-1704.48 L 125.179,-1704.78 L 125.687,-1705.15 L 126.145,-1705.58
 L 126.545,-1706.06 L 126.882,-1706.59 L 127.149,-1707.16 L 127.343,-1707.76 L 127.461,-1708.37 L 127.5,-1709
 L 127.5,-1999 L 127.461,-1999.63 L 127.343,-2000.24 L 127.149,-2000.84 L 126.882,-2001.41 L 126.545,-2001.94
 L 126.145,-2002.42 L 125.687,-2002.85 L 125.179,-2003.22 L 124.629,-2003.52 L 124.045,-2003.76 L 123.437,-2003.91
 L 122.814,-2003.99 L -122.814,-2003.99 L -123.437,-2003.91 L -124.045,-2003.76 L -124.629,-2003.52 L -125.179,-2003.22
 L -125.687,-2002.85 L -126.145,-2002.42 L -126.545,-2001.94 L -126.882,-2001.41 L -127.149,-2000.84 L -127.343,-2000.24
 L -127.461,-1999.63 L -127.5,-1999 L -127.5,-1709 L -127.461,-1708.37 L -127.343,-1707.76 L -127.149,-1707.16
 L -126.882,-1706.59 L -126.545,-1706.06 L -126.145,-1705.58 L -125.687,-1705.15 L -125.179,-1704.78 L -124.629,-1704.48
 L -124.045,-1704.24 L -123.437,-1704.09 L -122.814,-1704.01 L 122.814,-1704.01 z
M -122.251,-1705.51 L -122.75,-1705.57 L -123.236,-1705.7 L -123.703,-1705.88 L -124.143,-1706.12 L -124.55,-1706.42
 L -124.916,-1706.76 L -125.236,-1707.15 L -125.505,-1707.57 L -125.719,-1708.03 L -125.874,-1708.51 L -125.968,-1709
 L -126,-1709.5 L -126,-1998.5 L -125.968,-1999 L -125.874,-1999.49 L -125.719,-1999.97 L -125.505,-2000.43
 L -125.236,-2000.85 L -124.916,-2001.24 L -124.55,-2001.58 L -124.143,-2001.88 L -123.703,-2002.12 L -123.236,-2002.3
 L -122.75,-2002.43 L -122.251,-2002.49 L 122.251,-2002.49 L 122.75,-2002.43 L 123.236,-2002.3 L 123.703,-2002.12
 L 124.143,-2001.88 L 124.55,-2001.58 L 124.916,-2001.24 L 125.236,-2000.85 L 125.505,-2000.43 L 125.719,-1999.97
 L 125.874,-1999.49 L 125.968,-1999 L 126,-1998.5 L 126,-1709.5 L 125.968,-1709 L 125.874,-1708.51
 L 125.719,-1708.03 L 125.505,-1707.57 L 125.236,-1707.15 L 124.916,-1706.76 L 124.55,-1706.42 L 124.143,-1706.12
 L 123.703,-1705.88 L 123.236,-1705.7 L 122.75,-1705.57 L 122.251,-1705.51 z
M 123.437,-1395.09 L 124.045,-1395.24 L 124.629,-1395.48 L 125.179,-1395.78 L 125.687,-1396.15 L 126.145,-1396.58
 L 126.545,-1397.06 L 126.882,-1397.59 L 127.149,-1398.16 L 127.343,-1398.76 L 127.461,-1399.37 L 127.5,-1400
 L 127.5,-1690 L 127.461,-1690.63 L 127.343,-1691.24 L 127.149,-1691.84 L 126.882,-1692.41 L 126.545,-1692.94
 L 126.145,-1693.42 L 125.687,-1693.85 L 125.179,-1694.22 L 124.629,-1694.52 L 124.045,-1694.76 L 123.437,-1694.91
 L 122.814,-1694.99 L -122.814,-1694.99 L -123.437,-1694.91 L -124.045,-1694.76 L -124.629,-1694.52 L -125.179,-1694.22
 L -125.687,-1693.85 L -126.145,-1693.42 L -126.545,-1692.94 L -126.882,-1692.41 L -127.149,-1691.84 L -127.343,-1691.24
 L -127.461,-1690.63 L -127.5,-1690 L -127.5,-1400 L -127.461,-1399.37 L -127.343,-1398.76 L -127.149,-1398.16
 L -126.882,-1397.59 L -126.545,-1397.06 L -126.145,-1396.58 L -125.687,-1396.15 L -125.179,-1395.78 L -124.629,-1395.48
 L -124.045,-1395.24 L -123.437,-1395.09 L -122.814,-1395.01 L 122.814,-1395.01 z
M -122.195,-1397.39 L -122.583,-1397.44 L -122.962,-1397.54 L -123.325,-1397.68 L -123.668,-1397.87 L -123.984,-1398.1
 L -124.269,-1398.37 L -124.518,-1398.67 L -124.728,-1399 L -124.894,-1399.35 L -125.015,-1399.73 L -125.088,-1400.11
 L -125.113,-1400.5 L -125.113,-1689.5 L -125.088,-1689.89 L -125.015,-1690.27 L -124.894,-1690.65 L -124.728,-1691
 L -124.518,-1691.33 L -124.269,-1691.63 L -123.984,-1691.9 L -123.668,-1692.13 L -123.325,-1692.32 L -122.962,-1692.46
 L -122.583,-1692.56 L -122.195,-1692.61 L 122.195,-1692.61 L 122.583,-1692.56 L 122.962,-1692.46 L 123.325,-1692.32
 L 123.668,-1692.13 L 123.984,-1691.9 L 124.269,-1691.63 L 124.518,-1691.33 L 124.728,-1691 L 124.894,-1690.65
 L 125.015,-1690.27 L 125.088,-1689.89 L 125.113,-1689.5 L 125.113,-1400.5 L 125.088,-1400.11 L 125.015,-1399.73
 L 124.894,-1399.35 L 124.728,-1399 L 124.518,-1398.67 L 124.269,-1398.37 L 123.984,-1398.1 L 123.668,-1397.87
 L 123.325,-1397.68 L 122.962,-1397.54 L 122.583,-1397.44 L 122.195,-1397.39 z
M 123.437,-1086.09 L 124.045,-1086.24 L 124.629,-1086.48 L 125.179,-1086.78 L 125.687,-1087.15 L 126.145,-1087.58
 L 126.545,-1088.06 L 126.882,-1088.59 L 127.149,-1089.16 L 127.343,-1089.76 L 127.461,-1090.37 L 127.5,-1091
 L 127.5,-1381 L 127.461,-1381.63 L 127.343,-1382.24 L 127.149,-1382.84 L 126.882,-1383.41 L 126.545,-1383.94
 L 126.145,-1384.42 L 125.687,-1384.85 L 125.179,-1385.22 L 124.629,-1385.52 L 124.045,-1385.76 L 123.437,-1385.91
 L 122.814,-1385.99 L -122.814,-1385.99 L -123.437,-1385.91 L -124.045,-1385.76 L -124.629,-1385.52 L -125.179,-1385.22
 L -125.687,-1384.85 L -126.145,-1384.42 L -126.545,-1383.94 L -126.882,-1383.41 L -127.149,-1382.84 L -127.343,-1382.24
 L -127.461,-1381.63 L -127.5,-1381 L -127.5,-1091 L -127.461,-1090.37 L -127.343,-1089.76 L -127.149,-1089.16
 L -126.882,-1088.59 L -126.545,-1088.06 L -126.145,-1087.58 L -125.687,-1087.15 L -125.179,-1086.78 L -124.629,-1086.48
 L -124.045,-1086.24 L -123.437,-1086.09 L -122.814,-1086.01 L 122.814,-1086.01 z
M 119.866,-1376.37 L 119.6,-1376.4 L 119.34,-1376.47 L 119.091,-1376.57 L 118.856,-1376.7 L 118.639,-1376.85
 L 118.443,-1377.04 L 118.273,-1377.24 L 118.129,-1377.47 L 118.015,-1377.71 L 117.932,-1377.97 L 117.882,-1378.23
 L 117.865,-1378.5 L 117.882,-1378.77 L 117.932,-1379.03 L 118.015,-1379.29 L 118.129,-1379.53 L 118.273,-1379.76
 L 118.443,-1379.96 L 118.639,-1380.15 L 118.856,-1380.3 L 119.091,-1380.43 L 119.34,-1380.53 L 119.6,-1380.6
 L 119.866,-1380.63 L 120.134,-1380.63 L 120.4,-1380.6 L 120.66,-1380.53 L 120.909,-1380.43 L 121.144,-1380.3
 L 121.361,-1380.15 L 121.557,-1379.96 L 121.727,-1379.76 L 121.871,-1379.53 L 121.985,-1379.29 L 122.068,-1379.03
 L 122.118,-1378.77 L 122.135,-1378.5 L 122.118,-1378.23 L 122.068,-1377.97 L 121.985,-1377.71 L 121.871,-1377.47
 L 121.727,-1377.24 L 121.557,-1377.04 L 121.361,-1376.85 L 121.144,-1376.7 L 120.909,-1376.57 L 120.66,-1376.47
 L 120.4,-1376.4 L 120.134,-1376.37 z
M -120.134,-1376.37 L -120.4,-1376.4 L -120.66,-1376.47 L -120.909,-1376.57 L -121.144,-1376.7 L -121.361,-1376.85
 L -121.557,-1377.04 L -121.727,-1377.24 L -121.871,-1377.47 L -121.985,-1377.71 L -122.068,-1377.97 L -122.118,-1378.23
 L -122.135,-1378.5 L -122.118,-1378.77 L -122.068,-1379.03 L -121.985,-1379.29 L -121.871,-1379.53 L -121.727,-1379.76
 L -121.557,-1379.96 L -121.361,-1380.15 L -121.144,-1380.3 L -120.909,-1380.43 L -120.66,-1380.53 L -120.4,-1380.6
 L -120.134,-1380.63 L -119.866,-1380.63 L -119.6,-1380.6 L -119.34,-1380.53 L -119.091,-1380.43 L -118.856,-1380.3
 L -118.639,-1380.15 L -118.443,-1379.96 L -118.273,-1379.76 L -118.129,-1379.53 L -118.015,-1379.29 L -117.932,-1379.03
 L -117.882,-1378.77 L -117.865,-1378.5 L -117.882,-1378.23 L -117.932,-1377.97 L -118.015,-1377.71 L -118.129,-1377.47
 L -118.273,-1377.24 L -118.443,-1377.04 L -118.639,-1376.85 L -118.856,-1376.7 L -119.091,-1376.57 L -119.34,-1376.47
 L -119.6,-1376.4 L -119.866,-1376.37 z
M 119.866,-1091.37 L 119.6,-1091.4 L 119.34,-1091.47 L 119.091,-1091.57 L 118.856,-1091.7 L 118.639,-1091.85
 L 118.443,-1092.04 L 118.273,-1092.24 L 118.129,-1092.47 L 118.015,-1092.71 L 117.932,-1092.97 L 117.882,-1093.23
 L 117.865,-1093.5 L 117.882,-1093.77 L 117.932,-1094.03 L 118.015,-1094.29 L 118.129,-1094.53 L 118.273,-1094.76
 L 118.443,-1094.96 L 118.639,-1095.15 L 118.856,-1095.3 L 119.091,-1095.43 L 119.34,-1095.53 L 119.6,-1095.6
 L 119.866,-1095.63 L 120.134,-1095.63 L 120.4,-1095.6 L 120.66,-1095.53 L 120.909,-1095.43 L 121.144,-1095.3
 L 121.361,-1095.15 L 121.557,-1094.96 L 121.727,-1094.76 L 121.871,-1094.53 L 121.985,-1094.29 L 122.068,-1094.03
 L 122.118,-1093.77 L 122.135,-1093.5 L 122.118,-1093.23 L 122.068,-1092.97 L 121.985,-1092.71 L 121.871,-1092.47
 L 121.727,-1092.24 L 121.557,-1092.04 L 121.361,-1091.85 L 121.144,-1091.7 L 120.909,-1091.57 L 120.66,-1091.47
 L 120.4,-1091.4 L 120.134,-1091.37 z
M -120.134,-1091.37 L -120.4,-1091.4 L -120.66,-1091.47 L -120.909,-1091.57 L -121.144,-1091.7 L -121.361,-1091.85
 L -121.557,-1092.04 L -121.727,-1092.24 L -121.871,-1092.47 L -121.985,-1092.71 L -122.068,-1092.97 L -122.118,-1093.23
 L -122.135,-1093.5 L -122.118,-1093.77 L -122.068,-1094.03 L -121.985,-1094.29 L -121.871,-1094.53 L -121.727,-1094.76
 L -121.557,-1094.96 L -121.361,-1095.15 L -121.144,-1095.3 L -120.909,-1095.43 L -120.66,-1095.53 L -120.4,-1095.6
 L -120.134,-1095.63 L -119.866,-1095.63 L -119.6,-1095.6 L -119.34,-1095.53 L -119.091,-1095.43 L -118.856,-1095.3
 L -118.639,-1095.15 L -118.443,-1094.96 L -118.273,-1094.76 L -118.129,-1094.53 L -118.015,-1094.29 L -117.932,-1094.03
 L -117.882,-1093.77 L -117.865,-1093.5 L -117.882,-1093.23 L -117.932,-1092.97 L -118.015,-1092.71 L -118.129,-1092.47
 L -118.273,-1092.24 L -118.443,-1092.04 L -118.639,-1091.85 L -118.856,-1091.7 L -119.091,-1091.57 L -119.34,-1091.47
 L -119.6,-1091.4 L -119.866,-1091.37 z
" stroke="black" fill="lightgray" stroke-width="0.5"/>
</svg>
