<?xml version="1.0" standalone="no"?>
<!DOCTYPE svg PUBLIC "-//W3C//DTD SVG 1.1//EN" "http://www.w3.org/Graphics/SVG/1.1/DTD/svg11.dtd">
<svg width="300mm" height="862mm" viewBox="-150 -1475 300 862" xmlns="http://www.w3.org/2000/svg" version="1.1">
<title>OpenSCAD Model</title>
<path d="
M 145.937,-1309.59 L 146.545,-1309.74 L 147.129,-1309.98 L 147.679,-1310.28 L 148.187,-1310.65 L 148.645,-1311.08
 L 149.045,-1311.56 L 149.382,-1312.09 L 149.649,-1312.66 L 149.843,-1313.26 L 149.961,-1313.87 L 150,-1314.5
 L 150,-1469.5 L 149.961,-1470.13 L 149.843,-1470.74 L 149.649,-1471.34 L 149.382,-1471.91 L 149.045,-1472.44
 L 148.645,-1472.92 L 148.187,-1473.35 L 147.679,-1473.72 L 147.129,-1474.02 L 146.545,-1474.26 L 145.937,-1474.41
 L 145.314,-1474.49 L -145.314,-1474.49 L -145.937,-1474.41 L -146.545,-1474.26 L -147.129,-1474.02 L -147.679,-1473.72
 L -148.187,-1473.35 L -148.645,-1472.92 L -149.045,-1472.44 L -149.382,-1471.91 L -149.649,-1471.34 L -149.843,-1470.74
 L -149.961,-1470.13 L -150,-1469.5 L -150,-1314.5 L -149.961,-1313.87 L -149.843,-1313.26 L -149.649,-1312.66
 L -149.382,-1312.09 L -149.045,-1311.56 L -148.645,-1311.08 L -148.187,-1310.65 L -147.679,-1310.28 L -147.129,-1309.98
 L -146.545,-1309.74 L -145.937,-1309.59 L -145.314,-1309.51 L 145.314,-1309.51 z
M -145.048,-1310.01 L -145.64,-1310.08 L -146.218,-1310.23 L -146.772,-1310.45 L -147.295,-1310.74 L -147.778,-1311.09
 L -148.213,-1311.5 L -148.593,-1311.96 L -148.912,-1312.46 L -149.166,-1313 L -149.351,-1313.57 L -149.463,-1314.15
 L -149.5,-1314.75 L -149.5,-1469.25 L -149.463,-1469.85 L -149.351,-1470.43 L -149.166,-1471 L -148.912,-1471.54
 L -148.593,-1472.04 L -148.213,-1472.5 L -147.778,-1472.91 L -147.295,-1473.26 L -146.772,-1473.55 L -146.218,-1473.77
 L -145.64,-1473.92 L -145.048,-1473.99 L 145.048,-1473.99 L 145.64,-1473.92 L 146.218,-1473.77 L 146.772,-1473.55
 L 147.295,-1473.26 L 147.778,-1472.91 L 148.213,-1472.5 L 148.593,-1472.04 L 148.912,-1471.54 L 149.166,-1471
 L 149.351,-1470.43 L 149.463,-1469.85 L 149.5,-1469.25 L 149.5,-1314.75 L 149.463,-1314.15 L 149.351,-1313.57
 L 149.166,-1313 L 148.912,-1312.46 L 148.593,-1311.96 L 148.213,-1311.5 L 147.778,-1311.09 L 147.295,-1310.74
 L 146.772,-1310.45 L 146.218,-1310.23 L 145.64,-1310.08 L 145.048,-1310.01 z
M 145.937,-1135.59 L 146.545,-1135.74 L 147.129,-1135.98 L 147.679,-1136.28 L 148.187,-1136.65 L 148.645,-1137.08
 L 149.045,-1137.56 L 149.382,-1138.09 L 149.649,-1138.66 L 149.843,-1139.26 L 149.961,-1139.87 L 150,-1140.5
 L 150,-1295.5 L 149.961,-1296.13 L 149.843,-1296.74 L 149.649,-1297.34 L 149.382,-1297.91 L 149.045,-1298.44
 L 148.645,-1298.92 L 148.187,-1299.35 L 147.679,-1299.72 L 147.129,-1300.02 L 146.545,-1300.26 L 145.937,-1300.41
 L 145.314,-1300.49 L -145.314,-1300.49 L -145.937,-1300.41 L -146.545,-1300.26 L -147.129,-1300.02 L -147.679,-1299.72
 L -148.187,-1299.35 L -148.645,-1298.92 L -149.045,-1298.44 L -149.382,-1297.91 L -149.649,-1297.34 L -149.843,-1296.74
 L -149.961,-1296.13 L -150,-1295.5 L -150,-1140.5 L -149.961,-1139.87 L -149.843,-1139.26 L -149.649,-1138.66
 L -149.382,-1138.09 L -149.045,-1137.56 L -148.645,-1137.08 L -148.187,-1136.65 L -147.679,-1136.28 L -147.129,-1135.98
 L -146.545,-1135.74 L -145.937,-1135.59 L -145.314,-1135.51 L 145.314,-1135.51 z
M -145.048,-1136.01 L -145.64,-1136.08 L -146.218,-1136.23 L -146.772,-1136.45 L -147.295,-1136.74 L -147.778,-1137.09
 L -148.213,-1137.5 L -148.593,-1137.96 L -148.912,-1138.46 L -149.166,-1139 L -149.351,-1139.57 L -149.463,-1140.15
 L -149.5,-1140.75 L -149.5,-1295.25 L -149.463,-1295.85 L -149.351,-1296.43 L -149.166,-1297 L -148.912,-1297.54
 L -148.593,-1298.04 L -148.213,-1298.5 L -147.778,-1298.91 L -147.295,-1299.26 L -146.772,-1299.55 L -146.218,-1299.77
 L -145.64,-1299.92 L -145.048,-1299.99 L 145.048,-1299.99 L 145.64,-1299.92 L 146.218,-1299.77 L 146.772,-1299.55
 L 147.295,-1299.26 L 147.778,-1298.91 L 148.213,-1298.5 L 148.593,-1298.04 L 148.912,-1297.54 L 149.166,-1297
 L 149.351,-1296.43 L 149.463,-1295.85 L 149.5,-1295.25 L 149.5,-1140.75 L 149.463,-1140.15 L 149.351,-1139.57
 L 149.166,-1139 L 148.912,-1138.46 L 148.593,-1137.96 L 148.213,-1137.5 L 147.778,-1137.09 L 147.295,-1136.74
 L 146.772,-1136.45 L 146.218,-1136.23 L 145.64,-1136.08 L 145.048,-1136.01 z
M 145.937,-961.589 L 146.545,-961.745 L 147.129,-961.976 L 147.679,-962.278 L 148.187,-962.647 L 148.645,-963.077
 L 149.045,-963.561 L 149.382,-964.091 L 149.649,-964.659 L 149.843,-965.257 L 149.961,-965.873 L 150,-966.5
 L 150,-1121.5 L 149.961,-1122.13 L 149.843,-1122.74 L 149.649,-1123.34 L 149.382,-1123.91 L 149.045,-1124.44
 L 148.645,-1124.92 L 148.187,-1125.35 L 147.679,-1125.72 L 147.129,-1126.02 L 146.545,-1126.26 L 145.937,-1126.41
 L 145.314,-1126.49 L -145.314,-1126.49 L -145.937,-1126.41 L -146.545,-1126.26 L -147.129,-1126.02 L -147.679,-1125.72
 L -148.187,-1125.35 L -148.645,-1124.92 L -149.045,-1124.44 L -149.382,-1123.91 L -149.649,-1123.34 L -149.843,-1122.74
 L -149.961,-1122.13 L -150,-1121.5 L -150,-966.5 L -149.961,-965.873 L -149.843,-965.257 L -149.649,-964.659
 L -149.382,-964.091 L -149.045,-963.561 L -148.645,-963.077 L -148.187,-962.647 L -147.679,-962.278 L -147.129,-961.976
 L -146.545,-961.745 L -145.937,-961.589 L -145.314,-961.51 L 145.314,-961.51 z
M -145.048,-962.009 L -145.64,-962.084 L -146.218,-962.232 L -146.772,-962.452 L -147.295,-962.739 L -147.778,-963.09
 L -148.213,-963.498 L -148.593,-963.958 L -148.912,-964.462 L -149.166,-965.001 L -149.351,-965.569 L -149.463,-966.155
 L -149.5,-966.75 L -149.5,-1121.25 L -149.463,-1121.85 L -149.351,-1122.43 L -149.166,-1123 L -148.912,-1123.54
 L -148.593,-1124.04 L -148.213,-1124.5 L -147.778,-1124.91 L -147.295,-1125.26 L -146.772,-1125.55 L -146.218,-1125.77
 L -145.64,-1125.92 L -145.048,-1125.99 L 145.048,-1125.99 L 145.64,-1125.92 L 146.218,-1125.77 L 146.772,-1125.55
 L 147.295,-1125.26 L 147.778,-1124.91 L 148.213,-1124.5 L 148.593,-1124.04 L 148.912,-1123.54 L 149.166,-1123
 L 149.351,-1122.43 L 149.463,-1121.85 L 149.5,-1121.25 L 149.5,-966.75 L 149.463,-966.155 L 149.351,-965.569
 L 149.166,-965.001 L 148.912,-964.462 L 148.593,-963.958 L 148.213,-963.498 L 147.778,-963.09 L 147.295,-962.739
 L 146.772,-962.452 L 146.218,-962.232 L 145.64,-962.084 L 145.048,-962.009 z
M 145.937,-787.589 L 146.545,-787.745 L 147.129,-787.976 L 147.679,-788.278 L 148.187,-788.647 L 148.645,-789.077
 L 149.045,-789.561 L 149.382,-790.091 L 149.649,-790.659 L 149.843,-791.257 L 149.961,-791.873 L 150,-792.5
 L 150,-947.5 L 149.961,-948.127 L 149.843,-948.743 L 149.649,-949.341 L 149.382,-949.909 L 149.045,-950.439
 L 148.645,-950.923 L 148.187,-951.353 L 147.679,-951.722 L 147.129,-952.024 L 146.545,-952.255 L 145.937,-952.411
 L 145.314,-952.49 L -145.314,-952.49 L -145.937,-952.411 L -146.545,-952.255 L -147.129,-952.024 L -147.679,-951.722
 L -148.187,-951.353 L -148.645,-950.923 L -149.045,-950.439 L -149.382,-949.909 L -149.649,-949.341 L -149.843,-948.743
 L -149.961,-948.127 L -150,-947.5 L -150,-792.5 L -149.961,-791.873 L -149.843,-791.257 L -149.649,-790.659
 L -149.382,-790.091 L -149.045,-789.561 L -148.645,-789.077 L -148.187,-788.647 L -147.679,-788.278 L -147.129,-787.976
 L -146.545,-787.745 L -145.937,-787.589 L -145.314,-787.51 L 145.314,-787.51 z
M -144.993,-788.888 L -145.475,-788.949 L -145.946,-789.07 L -146.398,-789.249 L -146.823,-789.483 L -147.216,-789.769
 L -147.571,-790.101 L -147.88,-790.476 L -148.141,-790.886 L -148.348,-791.326 L -148.498,-791.788 L -148.589,-792.265
 L -148.619,-792.75 L -148.619,-947.25 L -148.589,-947.735 L -148.498,-948.212 L -148.348,-948.674 L -148.141,-949.114
 L -147.88,-949.524 L -147.571,-949.899 L -147.216,-950.231 L -146.823,-950.517 L -146.398,-950.751 L -145.946,-950.93
 L -145.475,-951.051 L -144.993,-951.112 L 144.993,-951.112 L 145.475,-951.051 L 145.946,-950.93 L 146.398,-950.751
 L 146.823,-950.517 L 147.216,-950.231 L 147.571,-949.899 L 147.88,-949.524 L 148.141,-949.114 L 148.348,-948.674
 L 148.498,-948.212 L 148.589,-947.735 L 148.619,-947.25 L 148.619,-792.75 L 148.589,-792.265 L 148.498,-791.788
 L 148.348,-791.326 L 148.141,-790.886 L 147.88,-790.476 L 147.571,-790.101 L 147.216,-789.769 L 146.823,-789.483
 L 146.398,-789.249 L 145.946,-789.07 L 145.475,-788.949 L 144.993,-788.888 z
M 145.937,-613.589 L 146.545,-613.745 L 147.129,-613.976 L 147.679,-614.278 L 148.187,-614.647 L 148.645,-615.077
 L 149.045,-615.561 L 149.382,-616.091 L 149.649,-616.659 L 149.843,-617.257 L 149.961,-617.873 L 150,-618.5
 L 150,-773.5 L 149.961,-774.127 L 149.843,-774.743 L 149.649,-775.341 L 149.382,-775.909 L 149.045,-776.439
 L 148.645,-776.923 L 148.187,-777.353 L 147.679,-777.722 L 147.129,-778.024 L 146.545,-778.255 L 145.937,-778.411
 L 145.314,-778.49 L -145.314,-778.49 L -145.937,-778.411 L -146.545,-778.255 L -147.129,-778.024 L -147.679,-777.722
 L -148.187,-777.353 L -148.645,-776.923 L -149.045,-776.439 L -149.382,-775.909 L -149.649,-775.341 L -149.843,-774.743
 L -149.961,-774.127 L -150,-773.5 L -150,-618.5 L -149.961,-617.873 L -149.843,-617.257 L -149.649,-616.659
 L -149.382,-616.091 L -149.045,-615.561 L -148.645,-615.077 L -148.187,-614.647 L -147.679,-614.278 L -147.129,-613.976
 L -146.545,-613.745 L -145.937,-613.589 L -145.314,-613.51 L 145.314,-613.51 z
M -142.613,-769.204 L -142.837,-769.232 L -143.056,-769.288 L -143.266,-769.371 L -143.464,-769.48 L -143.647,-769.613
 L -143.812,-769.768 L -143.956,-769.942 L -144.077,-770.133 L -144.174,-770.337 L -144.243,-770.552 L -144.286,-770.774
 L -144.3,-771 L -144.286,-771.226 L -144.243,-771.448 L -144.174,-771.663 L -144.077,-771.867 L -143.956,-772.058
 L -143.812,-772.232 L -143.647,-772.387 L -143.464,-772.52 L -143.266,-772.629 L -143.056,-772.712 L -142.837,-772.768
 L -142.613,-772.796 L -142.387,-772.796 L -142.163,-772.768 L -141.944,-772.712 L -141.734,-772.629 L -141.536,-772.52
 L -141.353,-772.387 L -141.188,-772.232 L -141.044,-772.058 L -140.923,-771.867 L -140.826,-771.663 L -140.757,-771.448
 L -140.714,-771.226 L -140.7,-771 L -140.714,-770.774 L -140.757,-770.552 L -140.826,-770.337 L -140.923,-770.133
 L -141.044,-769.942 L -141.188,-769.768 L -141.353,-769.613 L -141.536,-769.48 L -141.734,-769.371 L -141.944,-769.288
 L -142.163,-769.232 L -142.387,-769.204 z
M 142.387,-769.204 L 142.163,-769.232 L 141.944,-769.288 L 141.734,-769.371 L 141.536,-769.48 L 141.353,-769.613
 L 141.188,-769.768 L 141.044,-769.942 L 140.923,-770.133 L 140.826,-770.337 L 140.757,-770.552 L 140.714,-770.774
 L 140.7,-771 L 140.714,-771.226 L 140.757,-771.448 L 140.826,-771.663 L 140.923,-771.867 L 141.044,-772.058
 L 141.188,-772.232 L 141.353,-772.387 L 141.536,-772.52 L 141.734,-772.629 L 141.944,-772.712 L 142.163,-772.768
 L 142.387,-772.796 L 142.613,-772.796 L 142.837,-772.768 L 143.056,-772.712 L 143.266,-772.629 L 143.464,-772.52
 L 143.647,-772.387 L 143.812,-772.232 L 143.956,-772.058 L 144.077,-771.867 L 144.174,-771.663 L 144.243,-771.448
 L 144.286,-771.226 L 144.3,-771 L 144.286,-770.774 L 144.243,-770.552 L 144.174,-770.337 L 144.077,-770.133
 L 143.956,-769.942 L 143.812,-769.768 L 143.647,-769.613 L 143.464,-769.48 L 143.266,-769.371 L 143.056,-769.288
 L 142.837,-769.232 L 142.613,-769.204 z
M -142.613,-619.204 L -142.837,-619.232 L -143.056,-619.288 L -143.266,-619.371 L -143.464,-619.48 L -143.647,-619.613
 L -143.812,-619.768 L -143.956,-619.942 L -144.077,-620.133 L -144.174,-620.337 L -144.243,-620.552 L -144.286,-620.774
 L -144.3,-621 L -144.286,-621.226 L -144.243,-621.448 L -144.174,-621.663 L -144.077,-621.867 L -143.956,-622.058
 L -143.812,-622.232 L -143.647,-622.387 L -143.464,-622.52 L -143.266,-622.629 L -143.056,-622.712 L -142.837,-622.768
 L -142.613,-622.796 L -142.387,-622.796 L -142.163,-622.768 L -141.944,-622.712 L -141.734,-622.629 L -141.536,-622.52
 L -141.353,-622.387 L -141.188,-622.232 L -141.044,-622.058 L -140.923,-621.867 L -140.826,-621.663 L -140.757,-621.448
 L -140.714,-621.226 L -140.7,-621 L -140.714,-620.774 L -140.757,-620.552 L -140.826,-620.337 L -140.923,-620.133
 L -141.044,-619.942 L -141.188,-619.768 L -141.353,-619.613 L -141.536,-619.48 L -141.734,-619.371 L -141.944,-619.288
 L -142.163,-619.232 L -142.387,-619.204 z
M 142.387,-619.204 L 142.163,-619.232 L 141.944,-619.288 L 141.734,-619.371 L 141.536,-619.48 L 141.353,-619.613
 L 141.188,-619.768 L 141.044,-619.942 L 140.923,-620.133 L 140.826,-620.337 L 140.757,-620.552 L 140.714,-620.774
 L 140.7,-621 L 140.714,-621.226 L 140.757,-621.448 L 140.826,-621.663 L 140.923,-621.867 L 141.044,-622.058
 L 141.188,-622.232 L 141.353,-622.387 L 141.536,-622.52 L 141.734,-622.629 L 141.944,-622.712 L 142.163,-622.768
 L 142.387,-622.796 L 142.613,-622.796 L 142.837,-622.768 L 143.056,-622.712 L 143.266,-622.629 L 143.464,-622.52
 L 143.647,-622.387 L 143.812,-622.232 L 143.956,-622.058 L 144.077,-621.867 L 144.174,-621.663 L 144.243,-621.448
 L 144.286,-621.226 L 144.3,-621 L 144.286,-620.774 L 144.243,-620.552 L 144.174,-620.337 L 144.077,-620.133
 L 143.956,-619.942 L 143.812,-619.768 L 143.647,-619.613 L 143.464,-619.48 L 143.266,-619.371 L 143.056,-619.288
 L 142.837,-619.232 L 142.613,-619.204 z
" stroke="black" fill="lightgray" stroke-width="0.5"/>
</svg>
