<?xml version="1.0" standalone="no"?>
<!DOCTYPE svg PUBLIC "-//W3C//DTD SVG 1.1//EN" "http://www.w3.org/Graphics/SVG/1.1/DTD/svg11.dtd">
<svg width="242mm" height="429mm" viewBox="-122 -543 242 429" xmlns="http://www.w3.org/2000/svg" version="1.1">
<title>OpenSCAD Model</title>
<path d="
M 115.937,-333.089 L 116.545,-333.245 L 117.129,-333.476 L 117.679,-333.778 L 118.187,-334.147 L 118.645,-334.577
 L 119.045,-335.061 L 119.382,-335.591 L 119.649,-336.159 L 119.843,-336.757 L 119.961,-337.373 L 120,-338
 L 120,-538 L 119.961,-538.627 L 119.843,-539.243 L 119.649,-539.841 L 119.382,-540.409 L 119.045,-540.939
 L 118.645,-541.423 L 118.187,-541.853 L 117.679,-542.222 L 117.129,-542.524 L 116.545,-542.755 L 115.937,-542.911
 L 115.314,-542.99 L -115.314,-542.99 L -115.937,-542.911 L -116.545,-542.755 L -117.129,-542.524 L -117.679,-542.222
 L -118.187,-541.853 L -118.5,-541.559 L -118.5,-542.615 L -121.5,-542.615 L -121.5,-333.385 L -118.5,-333.385
 L -118.5,-334.441 L -118.187,-334.147 L -117.679,-333.778 L -117.129,-333.476 L -116.545,-333.245 L -115.937,-333.089
 L -115.314,-333.01 L 115.314,-333.01 z
M 112.349,-533.105 L 112.05,-533.143 L 111.758,-533.217 L 111.478,-533.328 L 111.214,-533.474 L 110.97,-533.651
 L 110.75,-533.857 L 110.558,-534.089 L 110.397,-534.344 L 110.269,-534.617 L 110.175,-534.903 L 110.119,-535.199
 L 110.1,-535.5 L 110.119,-535.801 L 110.175,-536.097 L 110.269,-536.383 L 110.397,-536.656 L 110.558,-536.911
 L 110.75,-537.143 L 110.97,-537.349 L 111.214,-537.526 L 111.478,-537.672 L 111.758,-537.783 L 112.05,-537.857
 L 112.349,-537.895 L 112.651,-537.895 L 112.95,-537.857 L 113.242,-537.783 L 113.522,-537.672 L 113.786,-537.526
 L 114.03,-537.349 L 114.25,-537.143 L 114.442,-536.911 L 114.603,-536.656 L 114.731,-536.383 L 114.825,-536.097
 L 114.881,-535.801 L 114.9,-535.5 L 114.881,-535.199 L 114.825,-534.903 L 114.731,-534.617 L 114.603,-534.344
 L 114.442,-534.089 L 114.25,-533.857 L 114.03,-533.651 L 113.786,-533.474 L 113.522,-533.328 L 113.242,-533.217
 L 112.95,-533.143 L 112.651,-533.105 z
M -112.651,-533.105 L -112.95,-533.143 L -113.242,-533.217 L -113.522,-533.328 L -113.786,-533.474 L -114.03,-533.651
 L -114.25,-533.857 L -114.442,-534.089 L -114.603,-534.344 L -114.731,-534.617 L -114.825,-534.903 L -114.881,-535.199
 L -114.9,-535.5 L -114.881,-535.801 L -114.825,-536.097 L -114.731,-536.383 L -114.603,-536.656 L -114.442,-536.911
 L -114.25,-537.143 L -114.03,-537.349 L -113.786,-537.526 L -113.522,-537.672 L -113.242,-537.783 L -112.95,-537.857
 L -112.651,-537.895 L -112.349,-537.895 L -112.05,-537.857 L -111.758,-537.783 L -111.478,-537.672 L -111.214,-537.526
 L -110.97,-537.349 L -110.75,-537.143 L -110.558,-536.911 L -110.397,-536.656 L -110.269,-536.383 L -110.175,-536.097
 L -110.119,-535.801 L -110.1,-535.5 L -110.119,-535.199 L -110.175,-534.903 L -110.269,-534.617 L -110.397,-534.344
 L -110.558,-534.089 L -110.75,-533.857 L -110.97,-533.651 L -111.214,-533.474 L -111.478,-533.328 L -111.758,-533.217
 L -112.05,-533.143 L -112.349,-533.105 z
M 112.349,-338.105 L 112.05,-338.143 L 111.758,-338.217 L 111.478,-338.328 L 111.214,-338.474 L 110.97,-338.651
 L 110.75,-338.857 L 110.558,-339.089 L 110.397,-339.344 L 110.269,-339.617 L 110.175,-339.903 L 110.119,-340.199
 L 110.1,-340.5 L 110.119,-340.801 L 110.175,-341.097 L 110.269,-341.383 L 110.397,-341.656 L 110.558,-341.911
 L 110.75,-342.143 L 110.97,-342.349 L 111.214,-342.526 L 111.478,-342.672 L 111.758,-342.783 L 112.05,-342.857
 L 112.349,-342.895 L 112.651,-342.895 L 112.95,-342.857 L 113.242,-342.783 L 113.522,-342.672 L 113.786,-342.526
 L 114.03,-342.349 L 114.25,-342.143 L 114.442,-341.911 L 114.603,-341.656 L 114.731,-341.383 L 114.825,-341.097
 L 114.881,-340.801 L 114.9,-340.5 L 114.881,-340.199 L 114.825,-339.903 L 114.731,-339.617 L 114.603,-339.344
 L 114.442,-339.089 L 114.25,-338.857 L 114.03,-338.651 L 113.786,-338.474 L 113.522,-338.328 L 113.242,-338.217
 L 112.95,-338.143 L 112.651,-338.105 z
M -112.651,-338.105 L -112.95,-338.143 L -113.242,-338.217 L -113.522,-338.328 L -113.786,-338.474 L -114.03,-338.651
 L -114.25,-338.857 L -114.442,-339.089 L -114.603,-339.344 L -114.731,-339.617 L -114.825,-339.903 L -114.881,-340.199
 L -114.9,-340.5 L -114.881,-340.801 L -114.825,-341.097 L -114.731,-341.383 L -114.603,-341.656 L -114.442,-341.911
 L -114.25,-342.143 L -114.03,-342.349 L -113.786,-342.526 L -113.522,-342.672 L -113.242,-342.783 L -112.95,-342.857
 L -112.651,-342.895 L -112.349,-342.895 L -112.05,-342.857 L -111.758,-342.783 L -111.478,-342.672 L -111.214,-342.526
 L -110.97,-342.349 L -110.75,-342.143 L -110.558,-341.911 L -110.397,-341.656 L -110.269,-341.383 L -110.175,-341.097
 L -110.119,-340.801 L -110.1,-340.5 L -110.119,-340.199 L -110.175,-339.903 L -110.269,-339.617 L -110.397,-339.344
 L -110.558,-339.089 L -110.75,-338.857 L -110.97,-338.651 L -111.214,-338.474 L -111.478,-338.328 L -111.758,-338.217
 L -112.05,-338.143 L -112.349,-338.105 z
M 115.937,-114.089 L 116.545,-114.245 L 117.129,-114.476 L 117.679,-114.778 L 118.187,-115.147 L 118.645,-115.577
 L 119.045,-116.061 L 119.382,-116.591 L 119.649,-117.159 L 119.843,-117.757 L 119.961,-118.373 L 120,-119
 L 120,-319 L 119.961,-319.627 L 119.843,-320.243 L 119.649,-320.841 L 119.382,-321.409 L 119.045,-321.939
 L 118.645,-322.423 L 118.187,-322.853 L 117.679,-323.222 L 117.129,-323.524 L 116.545,-323.755 L 115.937,-323.911
 L 115.314,-323.99 L -115.314,-323.99 L -115.937,-323.911 L -116.545,-323.755 L -117.129,-323.524 L -117.679,-323.222
 L -118.187,-322.853 L -118.645,-322.423 L -119.045,-321.939 L -119.382,-321.409 L -119.649,-320.841 L -119.843,-320.243
 L -119.9,-319.944 L -121.5,-319.944 L -121.5,-118.056 L -119.9,-118.056 L -119.843,-117.757 L -119.649,-117.159
 L -119.382,-116.591 L -119.045,-116.061 L -118.645,-115.577 L -118.187,-115.147 L -117.679,-114.778 L -117.129,-114.476
 L -116.545,-114.245 L -115.937,-114.089 L -115.314,-114.01 L 115.314,-114.01 z
M -112.613,-314.704 L -112.837,-314.732 L -113.056,-314.788 L -113.266,-314.871 L -113.464,-314.98 L -113.647,-315.113
 L -113.812,-315.268 L -113.956,-315.442 L -114.077,-315.633 L -114.174,-315.837 L -114.243,-316.052 L -114.286,-316.274
 L -114.3,-316.5 L -114.286,-316.726 L -114.243,-316.948 L -114.174,-317.163 L -114.077,-317.367 L -113.956,-317.558
 L -113.812,-317.732 L -113.647,-317.887 L -113.464,-318.02 L -113.266,-318.129 L -113.056,-318.212 L -112.837,-318.268
 L -112.613,-318.296 L -112.387,-318.296 L -112.163,-318.268 L -111.944,-318.212 L -111.734,-318.129 L -111.536,-318.02
 L -111.353,-317.887 L -111.188,-317.732 L -111.044,-317.558 L -110.923,-317.367 L -110.826,-317.163 L -110.757,-316.948
 L -110.714,-316.726 L -110.7,-316.5 L -110.714,-316.274 L -110.757,-316.052 L -110.826,-315.837 L -110.923,-315.633
 L -111.044,-315.442 L -111.188,-315.268 L -111.353,-315.113 L -111.536,-314.98 L -111.734,-314.871 L -111.944,-314.788
 L -112.163,-314.732 L -112.387,-314.704 z
M 112.387,-314.704 L 112.163,-314.732 L 111.944,-314.788 L 111.734,-314.871 L 111.536,-314.98 L 111.353,-315.113
 L 111.188,-315.268 L 111.044,-315.442 L 110.923,-315.633 L 110.826,-315.837 L 110.757,-316.052 L 110.714,-316.274
 L 110.7,-316.5 L 110.714,-316.726 L 110.757,-316.948 L 110.826,-317.163 L 110.923,-317.367 L 111.044,-317.558
 L 111.188,-317.732 L 111.353,-317.887 L 111.536,-318.02 L 111.734,-318.129 L 111.944,-318.212 L 112.163,-318.268
 L 112.387,-318.296 L 112.613,-318.296 L 112.837,-318.268 L 113.056,-318.212 L 113.266,-318.129 L 113.464,-318.02
 L 113.647,-317.887 L 113.812,-317.732 L 113.956,-317.558 L 114.077,-317.367 L 114.174,-317.163 L 114.243,-316.948
 L 114.286,-316.726 L 114.3,-316.5 L 114.286,-316.274 L 114.243,-316.052 L 114.174,-315.837 L 114.077,-315.633
 L 113.956,-315.442 L 113.812,-315.268 L 113.647,-315.113 L 113.464,-314.98 L 113.266,-314.871 L 113.056,-314.788
 L 112.837,-314.732 L 112.613,-314.704 z
M 112.387,-119.704 L 112.163,-119.732 L 111.944,-119.788 L 111.734,-119.871 L 111.536,-119.98 L 111.353,-120.113
 L 111.188,-120.268 L 111.044,-120.442 L 110.923,-120.633 L 110.826,-120.837 L 110.757,-121.052 L 110.714,-121.274
 L 110.7,-121.5 L 110.714,-121.726 L 110.757,-121.948 L 110.826,-122.163 L 110.923,-122.367 L 111.044,-122.558
 L 111.188,-122.732 L 111.353,-122.887 L 111.536,-123.02 L 111.734,-123.129 L 111.944,-123.212 L 112.163,-123.268
 L 112.387,-123.296 L 112.613,-123.296 L 112.837,-123.268 L 113.056,-123.212 L 113.266,-123.129 L 113.464,-123.02
 L 113.647,-122.887 L 113.812,-122.732 L 113.956,-122.558 L 114.077,-122.367 L 114.174,-122.163 L 114.243,-121.948
 L 114.286,-121.726 L 114.3,-121.5 L 114.286,-121.274 L 114.243,-121.052 L 114.174,-120.837 L 114.077,-120.633
 L 113.956,-120.442 L 113.812,-120.268 L 113.647,-120.113 L 113.464,-119.98 L 113.266,-119.871 L 113.056,-119.788
 L 112.837,-119.732 L 112.613,-119.704 z
M -112.613,-119.704 L -112.837,-119.732 L -113.056,-119.788 L -113.266,-119.871 L -113.464,-119.98 L -113.647,-120.113
 L -113.812,-120.268 L -113.956,-120.442 L -114.077,-120.633 L -114.174,-120.837 L -114.243,-121.052 L -114.286,-121.274
 L -114.3,-121.5 L -114.286,-121.726 L -114.243,-121.948 L -114.174,-122.163 L -114.077,-122.367 L -113.956,-122.558
 L -113.812,-122.732 L -113.647,-122.887 L -113.464,-123.02 L -113.266,-123.129 L -113.056,-123.212 L -112.837,-123.268
 L -112.613,-123.296 L -112.387,-123.296 L -112.163,-123.268 L -111.944,-123.212 L -111.734,-123.129 L -111.536,-123.02
 L -111.353,-122.887 L -111.188,-122.732 L -111.044,-122.558 L -110.923,-122.367 L -110.826,-122.163 L -110.757,-121.948
 L -110.714,-121.726 L -110.7,-121.5 L -110.714,-121.274 L -110.757,-121.052 L -110.826,-120.837 L -110.923,-120.633
 L -111.044,-120.442 L -111.188,-120.268 L -111.353,-120.113 L -111.536,-119.98 L -111.734,-119.871 L -111.944,-119.788
 L -112.163,-119.732 L -112.387,-119.704 z
" stroke="black" fill="lightgray" stroke-width="0.5"/>
</svg>
