<?xml version="1.0" standalone="no"?>
<!DOCTYPE svg PUBLIC "-//W3C//DTD SVG 1.1//EN" "http://www.w3.org/Graphics/SVG/1.1/DTD/svg11.dtd">
<svg width="240mm" height="249mm" viewBox="-120 -447 240 249" xmlns="http://www.w3.org/2000/svg" version="1.1">
<title>OpenSCAD Model</title>
<path d="
M 115.937,-327.089 L 116.545,-327.245 L 117.129,-327.476 L 117.679,-327.778 L 118.187,-328.147 L 118.645,-328.577
 L 119.045,-329.061 L 119.382,-329.591 L 119.649,-330.159 L 119.843,-330.757 L 119.961,-331.373 L 120,-332
 L 120,-442 L 119.961,-442.627 L 119.843,-443.243 L 119.649,-443.841 L 119.382,-444.409 L 119.045,-444.939
 L 118.645,-445.423 L 118.187,-445.853 L 117.679,-446.222 L 117.129,-446.524 L 116.545,-446.755 L 115.937,-446.911
 L 115.314,-446.99 L -115.314,-446.99 L -115.937,-446.911 L -116.545,-446.755 L -117.129,-446.524 L -117.679,-446.222
 L -118.187,-445.853 L -118.645,-445.423 L -119.045,-444.939 L -119.382,-444.409 L -119.649,-443.841 L -119.843,-443.243
 L -119.961,-442.627 L -120,-442 L -120,-332 L -119.961,-331.373 L -119.843,-330.757 L -119.649,-330.159
 L -119.382,-329.591 L -119.045,-329.061 L -118.645,-328.577 L -118.187,-328.147 L -117.679,-327.778 L -117.129,-327.476
 L -116.545,-327.245 L -115.937,-327.089 L -115.314,-327.01 L 115.314,-327.01 z
M -115.037,-327.681 L -115.608,-327.753 L -116.165,-327.896 L -116.699,-328.107 L -117.203,-328.384 L -117.668,-328.722
 L -118.088,-329.116 L -118.454,-329.559 L -118.762,-330.044 L -119.007,-330.565 L -119.185,-331.111 L -119.292,-331.676
 L -119.328,-332.25 L -119.328,-441.75 L -119.292,-442.324 L -119.185,-442.889 L -119.007,-443.435 L -118.762,-443.956
 L -118.454,-444.441 L -118.088,-444.884 L -117.668,-445.278 L -117.203,-445.616 L -116.699,-445.893 L -116.165,-446.104
 L -115.608,-446.247 L -115.037,-446.319 L 115.037,-446.319 L 115.608,-446.247 L 116.165,-446.104 L 116.699,-445.893
 L 117.203,-445.616 L 117.668,-445.278 L 118.088,-444.884 L 118.454,-444.441 L 118.762,-443.956 L 119.007,-443.435
 L 119.185,-442.889 L 119.292,-442.324 L 119.328,-441.75 L 119.328,-332.25 L 119.292,-331.676 L 119.185,-331.111
 L 119.007,-330.565 L 118.762,-330.044 L 118.454,-329.559 L 118.088,-329.116 L 117.668,-328.722 L 117.203,-328.384
 L 116.699,-328.107 L 116.165,-327.896 L 115.608,-327.753 L 115.037,-327.681 z
M 115.937,-198.089 L 116.545,-198.245 L 117.129,-198.476 L 117.679,-198.778 L 118.187,-199.147 L 118.645,-199.577
 L 119.045,-200.061 L 119.382,-200.591 L 119.649,-201.159 L 119.843,-201.757 L 119.961,-202.373 L 120,-203
 L 120,-313 L 119.961,-313.627 L 119.843,-314.243 L 119.649,-314.841 L 119.382,-315.409 L 119.045,-315.939
 L 118.645,-316.423 L 118.187,-316.853 L 117.679,-317.222 L 117.129,-317.524 L 116.545,-317.755 L 115.937,-317.911
 L 115.314,-317.99 L -115.314,-317.99 L -115.937,-317.911 L -116.545,-317.755 L -117.129,-317.524 L -117.679,-317.222
 L -118.187,-316.853 L -118.645,-316.423 L -119.045,-315.939 L -119.382,-315.409 L -119.649,-314.841 L -119.843,-314.243
 L -119.961,-313.627 L -120,-313 L -120,-203 L -119.961,-202.373 L -119.843,-201.757 L -119.649,-201.159
 L -119.382,-200.591 L -119.045,-200.061 L -118.645,-199.577 L -118.187,-199.147 L -117.679,-198.778 L -117.129,-198.476
 L -116.545,-198.245 L -115.937,-198.089 L -115.314,-198.01 L 115.314,-198.01 z
M -114.882,-201.145 L -115.145,-201.178 L -115.402,-201.244 L -115.648,-201.341 L -115.88,-201.469 L -116.095,-201.625
 L -116.288,-201.806 L -116.457,-202.01 L -116.599,-202.234 L -116.711,-202.473 L -116.793,-202.725 L -116.843,-202.986
 L -116.86,-203.25 L -116.86,-312.75 L -116.843,-313.014 L -116.793,-313.275 L -116.711,-313.527 L -116.599,-313.766
 L -116.457,-313.99 L -116.288,-314.194 L -116.095,-314.375 L -115.88,-314.531 L -115.648,-314.659 L -115.402,-314.756
 L -115.145,-314.822 L -114.882,-314.855 L 114.882,-314.855 L 115.145,-314.822 L 115.402,-314.756 L 115.648,-314.659
 L 115.88,-314.531 L 116.095,-314.375 L 116.288,-314.194 L 116.457,-313.99 L 116.599,-313.766 L 116.711,-313.527
 L 116.793,-313.275 L 116.843,-313.014 L 116.86,-312.75 L 116.86,-203.25 L 116.843,-202.986 L 116.793,-202.725
 L 116.711,-202.473 L 116.599,-202.234 L 116.457,-202.01 L 116.288,-201.806 L 116.095,-201.625 L 115.88,-201.469
 L 115.648,-201.341 L 115.402,-201.244 L 115.145,-201.178 L 114.882,-201.145 z
" stroke="black" fill="lightgray" stroke-width="0.5"/>
</svg>
