<?xml version="1.0" standalone="no"?>
<!DOCTYPE svg PUBLIC "-//W3C//DTD SVG 1.1//EN" "http://www.w3.org/Graphics/SVG/1.1/DTD/svg11.dtd">
<svg width="286mm" height="1536mm" viewBox="-143 -2622 286 1536" xmlns="http://www.w3.org/2000/svg" version="1.1">
<title>OpenSCAD Model</title>
<path d="
M 138.437,-2322.09 L 139.045,-2322.24 L 139.629,-2322.48 L 140.179,-2322.78 L 140.687,-2323.15 L 141.145,-2323.58
 L 141.545,-2324.06 L 141.882,-2324.59 L 142.149,-2325.16 L 142.343,-2325.76 L 142.461,-2326.37 L 142.5,-2327
 L 142.5,-2617 L 142.461,-2617.63 L 142.343,-2618.24 L 142.149,-2618.84 L 141.882,-2619.41 L 141.545,-2619.94
 L 141.145,-2620.42 L 140.687,-2620.85 L 140.179,-2621.22 L 139.629,-2621.52 L 139.045,-2621.76 L 138.437,-2621.91
 L 137.814,-2621.99 L -137.814,-2621.99 L -138.437,-2621.91 L -139.045,-2621.76 L -139.629,-2621.52 L -140.179,-2621.22
 L -140.687,-2620.85 L -141.145,-2620.42 L -141.545,-2619.94 L -141.882,-2619.41 L -142.149,-2618.84 L -142.343,-2618.24
 L -142.461,-2617.63 L -142.5,-2617 L -142.5,-2327 L -142.461,-2326.37 L -142.343,-2325.76 L -142.149,-2325.16
 L -141.882,-2324.59 L -141.545,-2324.06 L -141.145,-2323.58 L -140.687,-2323.15 L -140.179,-2322.78 L -139.629,-2322.48
 L -139.045,-2322.24 L -138.437,-2322.09 L -137.814,-2322.01 L 137.814,-2322.01 z
M -137.251,-2323.51 L -137.75,-2323.57 L -138.236,-2323.7 L -138.703,-2323.88 L -139.143,-2324.12 L -139.55,-2324.42
 L -139.916,-2324.76 L -140.236,-2325.15 L -140.505,-2325.57 L -140.719,-2326.03 L -140.874,-2326.51 L -140.968,-2327
 L -141,-2327.5 L -141,-2616.5 L -140.968,-2617 L -140.874,-2617.49 L -140.719,-2617.97 L -140.505,-2618.43
 L -140.236,-2618.85 L -139.916,-2619.24 L -139.55,-2619.58 L -139.143,-2619.88 L -138.703,-2620.12 L -138.236,-2620.3
 L -137.75,-2620.43 L -137.251,-2620.49 L 137.251,-2620.49 L 137.75,-2620.43 L 138.236,-2620.3 L 138.703,-2620.12
 L 139.143,-2619.88 L 139.55,-2619.58 L 139.916,-2619.24 L 140.236,-2618.85 L 140.505,-2618.43 L 140.719,-2617.97
 L 140.874,-2617.49 L 140.968,-2617 L 141,-2616.5 L 141,-2327.5 L 140.968,-2327 L 140.874,-2326.51
 L 140.719,-2326.03 L 140.505,-2325.57 L 140.236,-2325.15 L 139.916,-2324.76 L 139.55,-2324.42 L 139.143,-2324.12
 L 138.703,-2323.88 L 138.236,-2323.7 L 137.75,-2323.57 L 137.251,-2323.51 z
M 138.437,-2013.09 L 139.045,-2013.24 L 139.629,-2013.48 L 140.179,-2013.78 L 140.687,-2014.15 L 141.145,-2014.58
 L 141.545,-2015.06 L 141.882,-2015.59 L 142.149,-2016.16 L 142.343,-2016.76 L 142.461,-2017.37 L 142.5,-2018
 L 142.5,-2308 L 142.461,-2308.63 L 142.343,-2309.24 L 142.149,-2309.84 L 141.882,-2310.41 L 141.545,-2310.94
 L 141.145,-2311.42 L 140.687,-2311.85 L 140.179,-2312.22 L 139.629,-2312.52 L 139.045,-2312.76 L 138.437,-2312.91
 L 137.814,-2312.99 L -137.814,-2312.99 L -138.437,-2312.91 L -139.045,-2312.76 L -139.629,-2312.52 L -140.179,-2312.22
 L -140.687,-2311.85 L -141.145,-2311.42 L -141.545,-2310.94 L -141.882,-2310.41 L -142.149,-2309.84 L -142.343,-2309.24
 L -142.461,-2308.63 L -142.5,-2308 L -142.5,-2018 L -142.461,-2017.37 L -142.343,-2016.76 L -142.149,-2016.16
 L -141.882,-2015.59 L -141.545,-2015.06 L -141.145,-2014.58 L -140.687,-2014.15 L -140.179,-2013.78 L -139.629,-2013.48
 L -139.045,-2013.24 L -138.437,-2013.09 L -137.814,-2013.01 L 137.814,-2013.01 z
M -137.251,-2014.51 L -137.75,-2014.57 L -138.236,-2014.7 L -138.703,-2014.88 L -139.143,-2015.12 L -139.55,-2015.42
 L -139.916,-2015.76 L -140.236,-2016.15 L -140.505,-2016.57 L -140.719,-2017.03 L -140.874,-2017.51 L -140.968,-2018
 L -141,-2018.5 L -141,-2307.5 L -140.968,-2308 L -140.874,-2308.49 L -140.719,-2308.97 L -140.505,-2309.43
 L -140.236,-2309.85 L -139.916,-2310.24 L -139.55,-2310.58 L -139.143,-2310.88 L -138.703,-2311.12 L -138.236,-2311.3
 L -137.75,-2311.43 L -137.251,-2311.49 L 137.251,-2311.49 L 137.75,-2311.43 L 138.236,-2311.3 L 138.703,-2311.12
 L 139.143,-2310.88 L 139.55,-2310.58 L 139.916,-2310.24 L 140.236,-2309.85 L 140.505,-2309.43 L 140.719,-2308.97
 L 140.874,-2308.49 L 140.968,-2308 L 141,-2307.5 L 141,-2018.5 L 140.968,-2018 L 140.874,-2017.51
 L 140.719,-2017.03 L 140.505,-2016.57 L 140.236,-2016.15 L 139.916,-2015.76 L 139.55,-2015.42 L 139.143,-2015.12
 L 138.703,-2014.88 L 138.236,-2014.7 L 137.75,-2014.57 L 137.251,-2014.51 z
M 138.437,-1704.09 L 139.045,-1704.24 L 139.629,-1704.48 L 140.179,-1704.78 L 140.687,-1705.15 L 141.145,-1705.58
 L 141.545,-1706.06 L 141.882,-1706.59 L 142.149,-1707.16 L 142.343,-1707.76 L 142.461,-1708.37 L 142.5,-1709
 L 142.5,-1999 L 142.461,-1999.63 L 142.343,-2000.24 L 142.149,-2000.84 L 141.882,-2001.41 L 141.545,-2001.94
 L 141.145,-2002.42 L 140.687,-2002.85 L 140.179,-2003.22 L 139.629,-2003.52 L 139.045,-2003.76 L 138.437,-2003.91
 L 137.814,-2003.99 L -137.814,-2003.99 L -138.437,-2003.91 L -139.045,-2003.76 L -139.629,-2003.52 L -140.179,-2003.22
 L -140.687,-2002.85 L -141.145,-2002.42 L -141.545,-2001.94 L -141.882,-2001.41 L -142.149,-2000.84 L -142.343,-2000.24
 L -142.461,-1999.63 L -142.5,-1999 L -142.5,-1709 L -142.461,-1708.37 L -142.343,-1707.76 L -142.149,-1707.16
 L -141.882,-1706.59 L -141.545,-1706.06 L -141.145,-1705.58 L -140.687,-1705.15 L -140.179,-1704.78 L -139.629,-1704.48
 L -139.045,-1704.24 L -138.437,-1704.09 L -137.814,-1704.01 L 137.814,-1704.01 z
M -137.243,-1705.64 L -137.726,-1705.7 L -138.197,-1705.82 L -138.649,-1706 L -139.075,-1706.23 L -139.469,-1706.52
 L -139.823,-1706.85 L -140.133,-1707.22 L -140.394,-1707.63 L -140.601,-1708.07 L -140.751,-1708.54 L -140.842,-1709.01
 L -140.873,-1709.5 L -140.873,-1998.5 L -140.842,-1998.99 L -140.751,-1999.46 L -140.601,-1999.93 L -140.394,-2000.37
 L -140.133,-2000.78 L -139.823,-2001.15 L -139.469,-2001.48 L -139.075,-2001.77 L -138.649,-2002 L -138.197,-2002.18
 L -137.726,-2002.3 L -137.243,-2002.36 L 137.243,-2002.36 L 137.726,-2002.3 L 138.197,-2002.18 L 138.649,-2002
 L 139.075,-2001.77 L 139.469,-2001.48 L 139.823,-2001.15 L 140.133,-2000.78 L 140.394,-2000.37 L 140.601,-1999.93
 L 140.751,-1999.46 L 140.842,-1998.99 L 140.873,-1998.5 L 140.873,-1709.5 L 140.842,-1709.01 L 140.751,-1708.54
 L 140.601,-1708.07 L 140.394,-1707.63 L 140.133,-1707.22 L 139.823,-1706.85 L 139.469,-1706.52 L 139.075,-1706.23
 L 138.649,-1706 L 138.197,-1705.82 L 137.726,-1705.7 L 137.243,-1705.64 z
M 138.437,-1395.09 L 139.045,-1395.24 L 139.629,-1395.48 L 140.179,-1395.78 L 140.687,-1396.15 L 141.145,-1396.58
 L 141.545,-1397.06 L 141.882,-1397.59 L 142.149,-1398.16 L 142.343,-1398.76 L 142.461,-1399.37 L 142.5,-1400
 L 142.5,-1690 L 142.461,-1690.63 L 142.343,-1691.24 L 142.149,-1691.84 L 141.882,-1692.41 L 141.545,-1692.94
 L 141.145,-1693.42 L 140.687,-1693.85 L 140.179,-1694.22 L 139.629,-1694.52 L 139.045,-1694.76 L 138.437,-1694.91
 L 137.814,-1694.99 L -137.814,-1694.99 L -138.437,-1694.91 L -139.045,-1694.76 L -139.629,-1694.52 L -140.179,-1694.22
 L -140.687,-1693.85 L -141.145,-1693.42 L -141.545,-1692.94 L -141.882,-1692.41 L -142.149,-1691.84 L -142.343,-1691.24
 L -142.461,-1690.63 L -142.5,-1690 L -142.5,-1400 L -142.461,-1399.37 L -142.343,-1398.76 L -142.149,-1398.16
 L -141.882,-1397.59 L -141.545,-1397.06 L -141.145,-1396.58 L -140.687,-1396.15 L -140.179,-1395.78 L -139.629,-1395.48
 L -139.045,-1395.24 L -138.437,-1395.09 L -137.814,-1395.01 L 137.814,-1395.01 z
M 134.849,-1685.1 L 134.55,-1685.14 L 134.258,-1685.22 L 133.978,-1685.33 L 133.714,-1685.47 L 133.47,-1685.65
 L 133.25,-1685.86 L 133.058,-1686.09 L 132.897,-1686.34 L 132.769,-1686.62 L 132.675,-1686.9 L 132.619,-1687.2
 L 132.6,-1687.5 L 132.619,-1687.8 L 132.675,-1688.1 L 132.769,-1688.38 L 132.897,-1688.66 L 133.058,-1688.91
 L 133.25,-1689.14 L 133.47,-1689.35 L 133.714,-1689.53 L 133.978,-1689.67 L 134.258,-1689.78 L 134.55,-1689.86
 L 134.849,-1689.9 L 135.151,-1689.9 L 135.45,-1689.86 L 135.742,-1689.78 L 136.022,-1689.67 L 136.286,-1689.53
 L 136.53,-1689.35 L 136.75,-1689.14 L 136.942,-1688.91 L 137.103,-1688.66 L 137.231,-1688.38 L 137.325,-1688.1
 L 137.381,-1687.8 L 137.4,-1687.5 L 137.381,-1687.2 L 137.325,-1686.9 L 137.231,-1686.62 L 137.103,-1686.34
 L 136.942,-1686.09 L 136.75,-1685.86 L 136.53,-1685.65 L 136.286,-1685.47 L 136.022,-1685.33 L 135.742,-1685.22
 L 135.45,-1685.14 L 135.151,-1685.1 z
M -135.151,-1685.1 L -135.45,-1685.14 L -135.742,-1685.22 L -136.022,-1685.33 L -136.286,-1685.47 L -136.53,-1685.65
 L -136.75,-1685.86 L -136.942,-1686.09 L -137.103,-1686.34 L -137.231,-1686.62 L -137.325,-1686.9 L -137.381,-1687.2
 L -137.4,-1687.5 L -137.381,-1687.8 L -137.325,-1688.1 L -137.231,-1688.38 L -137.103,-1688.66 L -136.942,-1688.91
 L -136.75,-1689.14 L -136.53,-1689.35 L -136.286,-1689.53 L -136.022,-1689.67 L -135.742,-1689.78 L -135.45,-1689.86
 L -135.151,-1689.9 L -134.849,-1689.9 L -134.55,-1689.86 L -134.258,-1689.78 L -133.978,-1689.67 L -133.714,-1689.53
 L -133.47,-1689.35 L -133.25,-1689.14 L -133.058,-1688.91 L -132.897,-1688.66 L -132.769,-1688.38 L -132.675,-1688.1
 L -132.619,-1687.8 L -132.6,-1687.5 L -132.619,-1687.2 L -132.675,-1686.9 L -132.769,-1686.62 L -132.897,-1686.34
 L -133.058,-1686.09 L -133.25,-1685.86 L -133.47,-1685.65 L -133.714,-1685.47 L -133.978,-1685.33 L -134.258,-1685.22
 L -134.55,-1685.14 L -134.849,-1685.1 z
M 134.849,-1400.1 L 134.55,-1400.14 L 134.258,-1400.22 L 133.978,-1400.33 L 133.714,-1400.47 L 133.47,-1400.65
 L 133.25,-1400.86 L 133.058,-1401.09 L 132.897,-1401.34 L 132.769,-1401.62 L 132.675,-1401.9 L 132.619,-1402.2
 L 132.6,-1402.5 L 132.619,-1402.8 L 132.675,-1403.1 L 132.769,-1403.38 L 132.897,-1403.66 L 133.058,-1403.91
 L 133.25,-1404.14 L 133.47,-1404.35 L 133.714,-1404.53 L 133.978,-1404.67 L 134.258,-1404.78 L 134.55,-1404.86
 L 134.849,-1404.9 L 135.151,-1404.9 L 135.45,-1404.86 L 135.742,-1404.78 L 136.022,-1404.67 L 136.286,-1404.53
 L 136.53,-1404.35 L 136.75,-1404.14 L 136.942,-1403.91 L 137.103,-1403.66 L 137.231,-1403.38 L 137.325,-1403.1
 L 137.381,-1402.8 L 137.4,-1402.5 L 137.381,-1402.2 L 137.325,-1401.9 L 137.231,-1401.62 L 137.103,-1401.34
 L 136.942,-1401.09 L 136.75,-1400.86 L 136.53,-1400.65 L 136.286,-1400.47 L 136.022,-1400.33 L 135.742,-1400.22
 L 135.45,-1400.14 L 135.151,-1400.1 z
M -135.151,-1400.1 L -135.45,-1400.14 L -135.742,-1400.22 L -136.022,-1400.33 L -136.286,-1400.47 L -136.53,-1400.65
 L -136.75,-1400.86 L -136.942,-1401.09 L -137.103,-1401.34 L -137.231,-1401.62 L -137.325,-1401.9 L -137.381,-1402.2
 L -137.4,-1402.5 L -137.381,-1402.8 L -137.325,-1403.1 L -137.231,-1403.38 L -137.103,-1403.66 L -136.942,-1403.91
 L -136.75,-1404.14 L -136.53,-1404.35 L -136.286,-1404.53 L -136.022,-1404.67 L -135.742,-1404.78 L -135.45,-1404.86
 L -135.151,-1404.9 L -134.849,-1404.9 L -134.55,-1404.86 L -134.258,-1404.78 L -133.978,-1404.67 L -133.714,-1404.53
 L -133.47,-1404.35 L -133.25,-1404.14 L -133.058,-1403.91 L -132.897,-1403.66 L -132.769,-1403.38 L -132.675,-1403.1
 L -132.619,-1402.8 L -132.6,-1402.5 L -132.619,-1402.2 L -132.675,-1401.9 L -132.769,-1401.62 L -132.897,-1401.34
 L -133.058,-1401.09 L -133.25,-1400.86 L -133.47,-1400.65 L -133.714,-1400.47 L -133.978,-1400.33 L -134.258,-1400.22
 L -134.55,-1400.14 L -134.849,-1400.1 z
M 138.437,-1086.09 L 139.045,-1086.24 L 139.629,-1086.48 L 140.179,-1086.78 L 140.687,-1087.15 L 141.145,-1087.58
 L 141.545,-1088.06 L 141.882,-1088.59 L 142.149,-1089.16 L 142.343,-1089.76 L 142.461,-1090.37 L 142.5,-1091
 L 142.5,-1381 L 142.461,-1381.63 L 142.343,-1382.24 L 142.149,-1382.84 L 141.882,-1383.41 L 141.545,-1383.94
 L 141.145,-1384.42 L 140.687,-1384.85 L 140.179,-1385.22 L 139.629,-1385.52 L 139.045,-1385.76 L 138.437,-1385.91
 L 137.814,-1385.99 L -137.814,-1385.99 L -138.437,-1385.91 L -139.045,-1385.76 L -139.629,-1385.52 L -140.179,-1385.22
 L -140.687,-1384.85 L -141.145,-1384.42 L -141.545,-1383.94 L -141.882,-1383.41 L -142.149,-1382.84 L -142.343,-1382.24
 L -142.461,-1381.63 L -142.5,-1381 L -142.5,-1091 L -142.461,-1090.37 L -142.343,-1089.76 L -142.149,-1089.16
 L -141.882,-1088.59 L -141.545,-1088.06 L -141.145,-1087.58 L -140.687,-1087.15 L -140.179,-1086.78 L -139.629,-1086.48
 L -139.045,-1086.24 L -138.437,-1086.09 L -137.814,-1086.01 L 137.814,-1086.01 z
M 134.887,-1376.7 L 134.663,-1376.73 L 134.444,-1376.79 L 134.234,-1376.87 L 134.036,-1376.98 L 133.853,-1377.11
 L 133.688,-1377.27 L 133.544,-1377.44 L 133.423,-1377.63 L 133.326,-1377.84 L 133.257,-1378.05 L 133.214,-1378.27
 L 133.2,-1378.5 L 133.214,-1378.73 L 133.257,-1378.95 L 133.326,-1379.16 L 133.423,-1379.37 L 133.544,-1379.56
 L 133.688,-1379.73 L 133.853,-1379.89 L 134.036,-1380.02 L 134.234,-1380.13 L 134.444,-1380.21 L 134.663,-1380.27
 L 134.887,-1380.3 L 135.113,-1380.3 L 135.337,-1380.27 L 135.556,-1380.21 L 135.766,-1380.13 L 135.964,-1380.02
 L 136.147,-1379.89 L 136.312,-1379.73 L 136.456,-1379.56 L 136.577,-1379.37 L 136.674,-1379.16 L 136.743,-1378.95
 L 136.786,-1378.73 L 136.8,-1378.5 L 136.786,-1378.27 L 136.743,-1378.05 L 136.674,-1377.84 L 136.577,-1377.63
 L 136.456,-1377.44 L 136.312,-1377.27 L 136.147,-1377.11 L 135.964,-1376.98 L 135.766,-1376.87 L 135.556,-1376.79
 L 135.337,-1376.73 L 135.113,-1376.7 z
M -135.113,-1376.7 L -135.337,-1376.73 L -135.556,-1376.79 L -135.766,-1376.87 L -135.964,-1376.98 L -136.147,-1377.11
 L -136.312,-1377.27 L -136.456,-1377.44 L -136.577,-1377.63 L -136.674,-1377.84 L -136.743,-1378.05 L -136.786,-1378.27
 L -136.8,-1378.5 L -136.786,-1378.73 L -136.743,-1378.95 L -136.674,-1379.16 L -136.577,-1379.37 L -136.456,-1379.56
 L -136.312,-1379.73 L -136.147,-1379.89 L -135.964,-1380.02 L -135.766,-1380.13 L -135.556,-1380.21 L -135.337,-1380.27
 L -135.113,-1380.3 L -134.887,-1380.3 L -134.663,-1380.27 L -134.444,-1380.21 L -134.234,-1380.13 L -134.036,-1380.02
 L -133.853,-1379.89 L -133.688,-1379.73 L -133.544,-1379.56 L -133.423,-1379.37 L -133.326,-1379.16 L -133.257,-1378.95
 L -133.214,-1378.73 L -133.2,-1378.5 L -133.214,-1378.27 L -133.257,-1378.05 L -133.326,-1377.84 L -133.423,-1377.63
 L -133.544,-1377.44 L -133.688,-1377.27 L -133.853,-1377.11 L -134.036,-1376.98 L -134.234,-1376.87 L -134.444,-1376.79
 L -134.663,-1376.73 L -134.887,-1376.7 z
M -135.113,-1091.7 L -135.337,-1091.73 L -135.556,-1091.79 L -135.766,-1091.87 L -135.964,-1091.98 L -136.147,-1092.11
 L -136.312,-1092.27 L -136.456,-1092.44 L -136.577,-1092.63 L -136.674,-1092.84 L -136.743,-1093.05 L -136.786,-1093.27
 L -136.8,-1093.5 L -136.786,-1093.73 L -136.743,-1093.95 L -136.674,-1094.16 L -136.577,-1094.37 L -136.456,-1094.56
 L -136.312,-1094.73 L -136.147,-1094.89 L -135.964,-1095.02 L -135.766,-1095.13 L -135.556,-1095.21 L -135.337,-1095.27
 L -135.113,-1095.3 L -134.887,-1095.3 L -134.663,-1095.27 L -134.444,-1095.21 L -134.234,-1095.13 L -134.036,-1095.02
 L -133.853,-1094.89 L -133.688,-1094.73 L -133.544,-1094.56 L -133.423,-1094.37 L -133.326,-1094.16 L -133.257,-1093.95
 L -133.214,-1093.73 L -133.2,-1093.5 L -133.214,-1093.27 L -133.257,-1093.05 L -133.326,-1092.84 L -133.423,-1092.63
 L -133.544,-1092.44 L -133.688,-1092.27 L -133.853,-1092.11 L -134.036,-1091.98 L -134.234,-1091.87 L -134.444,-1091.79
 L -134.663,-1091.73 L -134.887,-1091.7 z
M 134.887,-1091.7 L 134.663,-1091.73 L 134.444,-1091.79 L 134.234,-1091.87 L 134.036,-1091.98 L 133.853,-1092.11
 L 133.688,-1092.27 L 133.544,-1092.44 L 133.423,-1092.63 L 133.326,-1092.84 L 133.257,-1093.05 L 133.214,-1093.27
 L 133.2,-1093.5 L 133.214,-1093.73 L 133.257,-1093.95 L 133.326,-1094.16 L 133.423,-1094.37 L 133.544,-1094.56
 L 133.688,-1094.73 L 133.853,-1094.89 L 134.036,-1095.02 L 134.234,-1095.13 L 134.444,-1095.21 L 134.663,-1095.27
 L 134.887,-1095.3 L 135.113,-1095.3 L 135.337,-1095.27 L 135.556,-1095.21 L 135.766,-1095.13 L 135.964,-1095.02
 L 136.147,-1094.89 L 136.312,-1094.73 L 136.456,-1094.56 L 136.577,-1094.37 L 136.674,-1094.16 L 136.743,-1093.95
 L 136.786,-1093.73 L 136.8,-1093.5 L 136.786,-1093.27 L 136.743,-1093.05 L 136.674,-1092.84 L 136.577,-1092.63
 L 136.456,-1092.44 L 136.312,-1092.27 L 136.147,-1092.11 L 135.964,-1091.98 L 135.766,-1091.87 L 135.556,-1091.79
 L 135.337,-1091.73 L 135.113,-1091.7 z
" stroke="black" fill="lightgray" stroke-width="0.5"/>
</svg>
