  0
SECTION
  2
BLOCKS
  0
ENDSEC
  0
SECTION
  2
ENTITIES
  0
LINE
  8
0
 10
-126
 20
454.441
 11
-125.687
 21
454.147
  0
LINE
  8
0
 10
-125.687
 20
454.147
 11
-125.179
 21
453.778
  0
LINE
  8
0
 10
-125.179
 20
453.778
 11
-124.629
 21
453.476
  0
LINE
  8
0
 10
-124.629
 20
453.476
 11
-124.045
 21
453.245
  0
LINE
  8
0
 10
-124.045
 20
453.245
 11
-123.437
 21
453.089
  0
LINE
  8
0
 10
-123.437
 20
453.089
 11
-122.814
 21
453.01
  0
LINE
  8
0
 10
-122.814
 20
453.01
 11
122.814
 21
453.01
  0
LINE
  8
0
 10
122.814
 20
453.01
 11
123.437
 21
453.089
  0
LINE
  8
0
 10
123.437
 20
453.089
 11
124.045
 21
453.245
  0
LINE
  8
0
 10
124.045
 20
453.245
 11
124.629
 21
453.476
  0
LINE
  8
0
 10
124.629
 20
453.476
 11
125.179
 21
453.778
  0
LINE
  8
0
 10
125.179
 20
453.778
 11
125.687
 21
454.147
  0
LINE
  8
0
 10
125.687
 20
454.147
 11
126.145
 21
454.577
  0
LINE
  8
0
 10
126.145
 20
454.577
 11
126.545
 21
455.061
  0
LINE
  8
0
 10
126.545
 20
455.061
 11
126.882
 21
455.591
  0
LINE
  8
0
 10
126.882
 20
455.591
 11
127.149
 21
456.159
  0
LINE
  8
0
 10
127.149
 20
456.159
 11
127.343
 21
456.757
  0
LINE
  8
0
 10
127.343
 20
456.757
 11
127.461
 21
457.373
  0
LINE
  8
0
 10
127.461
 20
457.373
 11
127.5
 21
458
  0
LINE
  8
0
 10
127.5
 20
458
 11
127.5
 21
508
  0
LINE
  8
0
 10
127.5
 20
508
 11
127.461
 21
508.627
  0
LINE
  8
0
 10
127.461
 20
508.627
 11
127.343
 21
509.243
  0
LINE
  8
0
 10
127.343
 20
509.243
 11
127.149
 21
509.841
  0
LINE
  8
0
 10
127.149
 20
509.841
 11
126.882
 21
510.409
  0
LINE
  8
0
 10
126.882
 20
510.409
 11
126.545
 21
510.939
  0
LINE
  8
0
 10
126.545
 20
510.939
 11
126.145
 21
511.423
  0
LINE
  8
0
 10
126.145
 20
511.423
 11
125.687
 21
511.853
  0
LINE
  8
0
 10
125.687
 20
511.853
 11
125.179
 21
512.222
  0
LINE
  8
0
 10
125.179
 20
512.222
 11
124.629
 21
512.524
  0
LINE
  8
0
 10
124.629
 20
512.524
 11
124.045
 21
512.755
  0
LINE
  8
0
 10
124.045
 20
512.755
 11
123.437
 21
512.911
  0
LINE
  8
0
 10
123.437
 20
512.911
 11
122.814
 21
512.99
  0
LINE
  8
0
 10
122.814
 20
512.99
 11
-122.814
 21
512.99
  0
LINE
  8
0
 10
-122.814
 20
512.99
 11
-123.437
 21
512.911
  0
LINE
  8
0
 10
-123.437
 20
512.911
 11
-124.045
 21
512.755
  0
LINE
  8
0
 10
-124.045
 20
512.755
 11
-124.629
 21
512.524
  0
LINE
  8
0
 10
-124.629
 20
512.524
 11
-125.179
 21
512.222
  0
LINE
  8
0
 10
-125.179
 20
512.222
 11
-125.687
 21
511.853
  0
LINE
  8
0
 10
-125.687
 20
511.853
 11
-126
 21
511.559
  0
LINE
  8
0
 10
-126
 20
511.559
 11
-126
 21
512.99
  0
LINE
  8
0
 10
-126
 20
512.99
 11
-129
 21
512.99
  0
LINE
  8
0
 10
-129
 20
512.99
 11
-129
 21
453.01
  0
LINE
  8
0
 10
-129
 20
453.01
 11
-126
 21
453.01
  0
LINE
  8
0
 10
-126
 20
453.01
 11
-126
 21
454.441
  0
LINE
  8
0
 10
-122.251
 20
454.508
 11
-122.75
 21
454.571
  0
LINE
  8
0
 10
-122.75
 20
454.571
 11
-123.236
 21
454.696
  0
LINE
  8
0
 10
-123.236
 20
454.696
 11
-123.703
 21
454.881
  0
LINE
  8
0
 10
-123.703
 20
454.881
 11
-124.143
 21
455.123
  0
LINE
  8
0
 10
-124.143
 20
455.123
 11
-124.55
 21
455.418
  0
LINE
  8
0
 10
-124.55
 20
455.418
 11
-124.916
 21
455.762
  0
LINE
  8
0
 10
-124.916
 20
455.762
 11
-125.236
 21
456.149
  0
LINE
  8
0
 10
-125.236
 20
456.149
 11
-125.505
 21
456.573
  0
LINE
  8
0
 10
-125.505
 20
456.573
 11
-125.719
 21
457.028
  0
LINE
  8
0
 10
-125.719
 20
457.028
 11
-125.874
 21
457.505
  0
LINE
  8
0
 10
-125.874
 20
457.505
 11
-125.968
 21
457.999
  0
LINE
  8
0
 10
-125.968
 20
457.999
 11
-126
 21
458.5
  0
LINE
  8
0
 10
-126
 20
458.5
 11
-126
 21
507.5
  0
LINE
  8
0
 10
-126
 20
507.5
 11
-125.968
 21
508.001
  0
LINE
  8
0
 10
-125.968
 20
508.001
 11
-125.874
 21
508.495
  0
LINE
  8
0
 10
-125.874
 20
508.495
 11
-125.719
 21
508.972
  0
LINE
  8
0
 10
-125.719
 20
508.972
 11
-125.505
 21
509.427
  0
LINE
  8
0
 10
-125.505
 20
509.427
 11
-125.236
 21
509.851
  0
LINE
  8
0
 10
-125.236
 20
509.851
 11
-124.916
 21
510.238
  0
LINE
  8
0
 10
-124.916
 20
510.238
 11
-124.55
 21
510.582
  0
LINE
  8
0
 10
-124.55
 20
510.582
 11
-124.143
 21
510.877
  0
LINE
  8
0
 10
-124.143
 20
510.877
 11
-123.703
 21
511.119
  0
LINE
  8
0
 10
-123.703
 20
511.119
 11
-123.236
 21
511.304
  0
LINE
  8
0
 10
-123.236
 20
511.304
 11
-122.75
 21
511.429
  0
LINE
  8
0
 10
-122.75
 20
511.429
 11
-122.251
 21
511.492
  0
LINE
  8
0
 10
-122.251
 20
511.492
 11
122.251
 21
511.492
  0
LINE
  8
0
 10
122.251
 20
511.492
 11
122.75
 21
511.429
  0
LINE
  8
0
 10
122.75
 20
511.429
 11
123.236
 21
511.304
  0
LINE
  8
0
 10
123.236
 20
511.304
 11
123.703
 21
511.119
  0
LINE
  8
0
 10
123.703
 20
511.119
 11
124.143
 21
510.877
  0
LINE
  8
0
 10
124.143
 20
510.877
 11
124.55
 21
510.582
  0
LINE
  8
0
 10
124.55
 20
510.582
 11
124.916
 21
510.238
  0
LINE
  8
0
 10
124.916
 20
510.238
 11
125.236
 21
509.851
  0
LINE
  8
0
 10
125.236
 20
509.851
 11
125.505
 21
509.427
  0
LINE
  8
0
 10
125.505
 20
509.427
 11
125.719
 21
508.972
  0
LINE
  8
0
 10
125.719
 20
508.972
 11
125.874
 21
508.495
  0
LINE
  8
0
 10
125.874
 20
508.495
 11
125.968
 21
508.001
  0
LINE
  8
0
 10
125.968
 20
508.001
 11
126
 21
507.5
  0
LINE
  8
0
 10
126
 20
507.5
 11
126
 21
458.5
  0
LINE
  8
0
 10
126
 20
458.5
 11
125.968
 21
457.999
  0
LINE
  8
0
 10
125.968
 20
457.999
 11
125.874
 21
457.505
  0
LINE
  8
0
 10
125.874
 20
457.505
 11
125.719
 21
457.028
  0
LINE
  8
0
 10
125.719
 20
457.028
 11
125.505
 21
456.573
  0
LINE
  8
0
 10
125.505
 20
456.573
 11
125.236
 21
456.149
  0
LINE
  8
0
 10
125.236
 20
456.149
 11
124.916
 21
455.762
  0
LINE
  8
0
 10
124.916
 20
455.762
 11
124.55
 21
455.418
  0
LINE
  8
0
 10
124.55
 20
455.418
 11
124.143
 21
455.123
  0
LINE
  8
0
 10
124.143
 20
455.123
 11
123.703
 21
454.881
  0
LINE
  8
0
 10
123.703
 20
454.881
 11
123.236
 21
454.696
  0
LINE
  8
0
 10
123.236
 20
454.696
 11
122.75
 21
454.571
  0
LINE
  8
0
 10
122.75
 20
454.571
 11
122.251
 21
454.508
  0
LINE
  8
0
 10
122.251
 20
454.508
 11
-122.251
 21
454.508
  0
LINE
  8
0
 10
-126
 20
385.441
 11
-125.687
 21
385.147
  0
LINE
  8
0
 10
-125.687
 20
385.147
 11
-125.179
 21
384.778
  0
LINE
  8
0
 10
-125.179
 20
384.778
 11
-124.629
 21
384.476
  0
LINE
  8
0
 10
-124.629
 20
384.476
 11
-124.045
 21
384.245
  0
LINE
  8
0
 10
-124.045
 20
384.245
 11
-123.437
 21
384.089
  0
LINE
  8
0
 10
-123.437
 20
384.089
 11
-122.814
 21
384.01
  0
LINE
  8
0
 10
-122.814
 20
384.01
 11
122.814
 21
384.01
  0
LINE
  8
0
 10
122.814
 20
384.01
 11
123.437
 21
384.089
  0
LINE
  8
0
 10
123.437
 20
384.089
 11
124.045
 21
384.245
  0
LINE
  8
0
 10
124.045
 20
384.245
 11
124.629
 21
384.476
  0
LINE
  8
0
 10
124.629
 20
384.476
 11
125.179
 21
384.778
  0
LINE
  8
0
 10
125.179
 20
384.778
 11
125.687
 21
385.147
  0
LINE
  8
0
 10
125.687
 20
385.147
 11
126.145
 21
385.577
  0
LINE
  8
0
 10
126.145
 20
385.577
 11
126.545
 21
386.061
  0
LINE
  8
0
 10
126.545
 20
386.061
 11
126.882
 21
386.591
  0
LINE
  8
0
 10
126.882
 20
386.591
 11
127.149
 21
387.159
  0
LINE
  8
0
 10
127.149
 20
387.159
 11
127.343
 21
387.757
  0
LINE
  8
0
 10
127.343
 20
387.757
 11
127.461
 21
388.373
  0
LINE
  8
0
 10
127.461
 20
388.373
 11
127.5
 21
389
  0
LINE
  8
0
 10
127.5
 20
389
 11
127.5
 21
439
  0
LINE
  8
0
 10
127.5
 20
439
 11
127.461
 21
439.627
  0
LINE
  8
0
 10
127.461
 20
439.627
 11
127.343
 21
440.243
  0
LINE
  8
0
 10
127.343
 20
440.243
 11
127.149
 21
440.841
  0
LINE
  8
0
 10
127.149
 20
440.841
 11
126.882
 21
441.409
  0
LINE
  8
0
 10
126.882
 20
441.409
 11
126.545
 21
441.939
  0
LINE
  8
0
 10
126.545
 20
441.939
 11
126.145
 21
442.423
  0
LINE
  8
0
 10
126.145
 20
442.423
 11
125.687
 21
442.853
  0
LINE
  8
0
 10
125.687
 20
442.853
 11
125.179
 21
443.222
  0
LINE
  8
0
 10
125.179
 20
443.222
 11
124.629
 21
443.524
  0
LINE
  8
0
 10
124.629
 20
443.524
 11
124.045
 21
443.755
  0
LINE
  8
0
 10
124.045
 20
443.755
 11
123.437
 21
443.911
  0
LINE
  8
0
 10
123.437
 20
443.911
 11
122.814
 21
443.99
  0
LINE
  8
0
 10
122.814
 20
443.99
 11
-122.814
 21
443.99
  0
LINE
  8
0
 10
-122.814
 20
443.99
 11
-123.437
 21
443.911
  0
LINE
  8
0
 10
-123.437
 20
443.911
 11
-124.045
 21
443.755
  0
LINE
  8
0
 10
-124.045
 20
443.755
 11
-124.629
 21
443.524
  0
LINE
  8
0
 10
-124.629
 20
443.524
 11
-125.179
 21
443.222
  0
LINE
  8
0
 10
-125.179
 20
443.222
 11
-125.687
 21
442.853
  0
LINE
  8
0
 10
-125.687
 20
442.853
 11
-126
 21
442.559
  0
LINE
  8
0
 10
-126
 20
442.559
 11
-126
 21
443.99
  0
LINE
  8
0
 10
-126
 20
443.99
 11
-129
 21
443.99
  0
LINE
  8
0
 10
-129
 20
443.99
 11
-129
 21
384.01
  0
LINE
  8
0
 10
-129
 20
384.01
 11
-126
 21
384.01
  0
LINE
  8
0
 10
-126
 20
384.01
 11
-126
 21
385.441
  0
LINE
  8
0
 10
-122.251
 20
385.508
 11
-122.75
 21
385.571
  0
LINE
  8
0
 10
-122.75
 20
385.571
 11
-123.236
 21
385.696
  0
LINE
  8
0
 10
-123.236
 20
385.696
 11
-123.703
 21
385.881
  0
LINE
  8
0
 10
-123.703
 20
385.881
 11
-124.143
 21
386.123
  0
LINE
  8
0
 10
-124.143
 20
386.123
 11
-124.55
 21
386.418
  0
LINE
  8
0
 10
-124.55
 20
386.418
 11
-124.916
 21
386.762
  0
LINE
  8
0
 10
-124.916
 20
386.762
 11
-125.236
 21
387.149
  0
LINE
  8
0
 10
-125.236
 20
387.149
 11
-125.505
 21
387.573
  0
LINE
  8
0
 10
-125.505
 20
387.573
 11
-125.719
 21
388.028
  0
LINE
  8
0
 10
-125.719
 20
388.028
 11
-125.874
 21
388.505
  0
LINE
  8
0
 10
-125.874
 20
388.505
 11
-125.968
 21
388.999
  0
LINE
  8
0
 10
-125.968
 20
388.999
 11
-126
 21
389.5
  0
LINE
  8
0
 10
-126
 20
389.5
 11
-126
 21
438.5
  0
LINE
  8
0
 10
-126
 20
438.5
 11
-125.968
 21
439.001
  0
LINE
  8
0
 10
-125.968
 20
439.001
 11
-125.874
 21
439.495
  0
LINE
  8
0
 10
-125.874
 20
439.495
 11
-125.719
 21
439.972
  0
LINE
  8
0
 10
-125.719
 20
439.972
 11
-125.505
 21
440.427
  0
LINE
  8
0
 10
-125.505
 20
440.427
 11
-125.236
 21
440.851
  0
LINE
  8
0
 10
-125.236
 20
440.851
 11
-124.916
 21
441.238
  0
LINE
  8
0
 10
-124.916
 20
441.238
 11
-124.55
 21
441.582
  0
LINE
  8
0
 10
-124.55
 20
441.582
 11
-124.143
 21
441.877
  0
LINE
  8
0
 10
-124.143
 20
441.877
 11
-123.703
 21
442.119
  0
LINE
  8
0
 10
-123.703
 20
442.119
 11
-123.236
 21
442.304
  0
LINE
  8
0
 10
-123.236
 20
442.304
 11
-122.75
 21
442.429
  0
LINE
  8
0
 10
-122.75
 20
442.429
 11
-122.251
 21
442.492
  0
LINE
  8
0
 10
-122.251
 20
442.492
 11
122.251
 21
442.492
  0
LINE
  8
0
 10
122.251
 20
442.492
 11
122.75
 21
442.429
  0
LINE
  8
0
 10
122.75
 20
442.429
 11
123.236
 21
442.304
  0
LINE
  8
0
 10
123.236
 20
442.304
 11
123.703
 21
442.119
  0
LINE
  8
0
 10
123.703
 20
442.119
 11
124.143
 21
441.877
  0
LINE
  8
0
 10
124.143
 20
441.877
 11
124.55
 21
441.582
  0
LINE
  8
0
 10
124.55
 20
441.582
 11
124.916
 21
441.238
  0
LINE
  8
0
 10
124.916
 20
441.238
 11
125.236
 21
440.851
  0
LINE
  8
0
 10
125.236
 20
440.851
 11
125.505
 21
440.427
  0
LINE
  8
0
 10
125.505
 20
440.427
 11
125.719
 21
439.972
  0
LINE
  8
0
 10
125.719
 20
439.972
 11
125.874
 21
439.495
  0
LINE
  8
0
 10
125.874
 20
439.495
 11
125.968
 21
439.001
  0
LINE
  8
0
 10
125.968
 20
439.001
 11
126
 21
438.5
  0
LINE
  8
0
 10
126
 20
438.5
 11
126
 21
389.5
  0
LINE
  8
0
 10
126
 20
389.5
 11
125.968
 21
388.999
  0
LINE
  8
0
 10
125.968
 20
388.999
 11
125.874
 21
388.505
  0
LINE
  8
0
 10
125.874
 20
388.505
 11
125.719
 21
388.028
  0
LINE
  8
0
 10
125.719
 20
388.028
 11
125.505
 21
387.573
  0
LINE
  8
0
 10
125.505
 20
387.573
 11
125.236
 21
387.149
  0
LINE
  8
0
 10
125.236
 20
387.149
 11
124.916
 21
386.762
  0
LINE
  8
0
 10
124.916
 20
386.762
 11
124.55
 21
386.418
  0
LINE
  8
0
 10
124.55
 20
386.418
 11
124.143
 21
386.123
  0
LINE
  8
0
 10
124.143
 20
386.123
 11
123.703
 21
385.881
  0
LINE
  8
0
 10
123.703
 20
385.881
 11
123.236
 21
385.696
  0
LINE
  8
0
 10
123.236
 20
385.696
 11
122.75
 21
385.571
  0
LINE
  8
0
 10
122.75
 20
385.571
 11
122.251
 21
385.508
  0
LINE
  8
0
 10
122.251
 20
385.508
 11
-122.251
 21
385.508
  0
LINE
  8
0
 10
123.437
 20
315.089
 11
124.045
 21
315.245
  0
LINE
  8
0
 10
124.045
 20
315.245
 11
124.629
 21
315.476
  0
LINE
  8
0
 10
124.629
 20
315.476
 11
125.179
 21
315.778
  0
LINE
  8
0
 10
125.179
 20
315.778
 11
125.687
 21
316.147
  0
LINE
  8
0
 10
125.687
 20
316.147
 11
126.145
 21
316.577
  0
LINE
  8
0
 10
126.145
 20
316.577
 11
126.545
 21
317.061
  0
LINE
  8
0
 10
126.545
 20
317.061
 11
126.882
 21
317.591
  0
LINE
  8
0
 10
126.882
 20
317.591
 11
127.149
 21
318.159
  0
LINE
  8
0
 10
127.149
 20
318.159
 11
127.343
 21
318.757
  0
LINE
  8
0
 10
127.343
 20
318.757
 11
127.461
 21
319.373
  0
LINE
  8
0
 10
127.461
 20
319.373
 11
127.5
 21
320
  0
LINE
  8
0
 10
127.5
 20
320
 11
127.5
 21
370
  0
LINE
  8
0
 10
127.5
 20
370
 11
127.461
 21
370.627
  0
LINE
  8
0
 10
127.461
 20
370.627
 11
127.343
 21
371.243
  0
LINE
  8
0
 10
127.343
 20
371.243
 11
127.149
 21
371.841
  0
LINE
  8
0
 10
127.149
 20
371.841
 11
126.882
 21
372.409
  0
LINE
  8
0
 10
126.882
 20
372.409
 11
126.545
 21
372.939
  0
LINE
  8
0
 10
126.545
 20
372.939
 11
126.145
 21
373.423
  0
LINE
  8
0
 10
126.145
 20
373.423
 11
125.687
 21
373.853
  0
LINE
  8
0
 10
125.687
 20
373.853
 11
125.179
 21
374.222
  0
LINE
  8
0
 10
125.179
 20
374.222
 11
124.629
 21
374.524
  0
LINE
  8
0
 10
124.629
 20
374.524
 11
124.045
 21
374.755
  0
LINE
  8
0
 10
124.045
 20
374.755
 11
123.437
 21
374.911
  0
LINE
  8
0
 10
123.437
 20
374.911
 11
122.814
 21
374.99
  0
LINE
  8
0
 10
122.814
 20
374.99
 11
-122.814
 21
374.99
  0
LINE
  8
0
 10
-122.814
 20
374.99
 11
-123.437
 21
374.911
  0
LINE
  8
0
 10
-123.437
 20
374.911
 11
-124.045
 21
374.755
  0
LINE
  8
0
 10
-124.045
 20
374.755
 11
-124.629
 21
374.524
  0
LINE
  8
0
 10
-124.629
 20
374.524
 11
-125.179
 21
374.222
  0
LINE
  8
0
 10
-125.179
 20
374.222
 11
-125.687
 21
373.853
  0
LINE
  8
0
 10
-125.687
 20
373.853
 11
-126
 21
373.559
  0
LINE
  8
0
 10
-126
 20
373.559
 11
-126
 21
374.979
  0
LINE
  8
0
 10
-126
 20
374.979
 11
-129
 21
374.979
  0
LINE
  8
0
 10
-129
 20
374.979
 11
-129
 21
315.021
  0
LINE
  8
0
 10
-129
 20
315.021
 11
-126
 21
315.021
  0
LINE
  8
0
 10
-126
 20
315.021
 11
-126
 21
316.441
  0
LINE
  8
0
 10
-126
 20
316.441
 11
-125.687
 21
316.147
  0
LINE
  8
0
 10
-125.687
 20
316.147
 11
-125.179
 21
315.778
  0
LINE
  8
0
 10
-125.179
 20
315.778
 11
-124.629
 21
315.476
  0
LINE
  8
0
 10
-124.629
 20
315.476
 11
-124.045
 21
315.245
  0
LINE
  8
0
 10
-124.045
 20
315.245
 11
-123.437
 21
315.089
  0
LINE
  8
0
 10
-123.437
 20
315.089
 11
-122.814
 21
315.01
  0
LINE
  8
0
 10
-122.814
 20
315.01
 11
122.814
 21
315.01
  0
LINE
  8
0
 10
122.814
 20
315.01
 11
123.437
 21
315.089
  0
LINE
  8
0
 10
-122.195
 20
317.393
 11
-122.583
 21
317.442
  0
LINE
  8
0
 10
-122.583
 20
317.442
 11
-122.962
 21
317.539
  0
LINE
  8
0
 10
-122.962
 20
317.539
 11
-123.325
 21
317.683
  0
LINE
  8
0
 10
-123.325
 20
317.683
 11
-123.668
 21
317.872
  0
LINE
  8
0
 10
-123.668
 20
317.872
 11
-123.984
 21
318.101
  0
LINE
  8
0
 10
-123.984
 20
318.101
 11
-124.269
 21
318.369
  0
LINE
  8
0
 10
-124.269
 20
318.369
 11
-124.518
 21
318.67
  0
LINE
  8
0
 10
-124.518
 20
318.67
 11
-124.728
 21
319
  0
LINE
  8
0
 10
-124.728
 20
319
 11
-124.894
 21
319.354
  0
LINE
  8
0
 10
-124.894
 20
319.354
 11
-125.015
 21
319.726
  0
LINE
  8
0
 10
-125.015
 20
319.726
 11
-125.088
 21
320.11
  0
LINE
  8
0
 10
-125.088
 20
320.11
 11
-125.113
 21
320.5
  0
LINE
  8
0
 10
-125.113
 20
320.5
 11
-125.113
 21
369.5
  0
LINE
  8
0
 10
-125.113
 20
369.5
 11
-125.088
 21
369.89
  0
LINE
  8
0
 10
-125.088
 20
369.89
 11
-125.015
 21
370.274
  0
LINE
  8
0
 10
-125.015
 20
370.274
 11
-124.894
 21
370.646
  0
LINE
  8
0
 10
-124.894
 20
370.646
 11
-124.728
 21
371
  0
LINE
  8
0
 10
-124.728
 20
371
 11
-124.518
 21
371.33
  0
LINE
  8
0
 10
-124.518
 20
371.33
 11
-124.269
 21
371.631
  0
LINE
  8
0
 10
-124.269
 20
371.631
 11
-123.984
 21
371.899
  0
LINE
  8
0
 10
-123.984
 20
371.899
 11
-123.668
 21
372.128
  0
LINE
  8
0
 10
-123.668
 20
372.128
 11
-123.325
 21
372.317
  0
LINE
  8
0
 10
-123.325
 20
372.317
 11
-122.962
 21
372.461
  0
LINE
  8
0
 10
-122.962
 20
372.461
 11
-122.583
 21
372.558
  0
LINE
  8
0
 10
-122.583
 20
372.558
 11
-122.195
 21
372.607
  0
LINE
  8
0
 10
-122.195
 20
372.607
 11
122.195
 21
372.607
  0
LINE
  8
0
 10
122.195
 20
372.607
 11
122.583
 21
372.558
  0
LINE
  8
0
 10
122.583
 20
372.558
 11
122.962
 21
372.461
  0
LINE
  8
0
 10
122.962
 20
372.461
 11
123.325
 21
372.317
  0
LINE
  8
0
 10
123.325
 20
372.317
 11
123.668
 21
372.128
  0
LINE
  8
0
 10
123.668
 20
372.128
 11
123.984
 21
371.899
  0
LINE
  8
0
 10
123.984
 20
371.899
 11
124.269
 21
371.631
  0
LINE
  8
0
 10
124.269
 20
371.631
 11
124.518
 21
371.33
  0
LINE
  8
0
 10
124.518
 20
371.33
 11
124.728
 21
371
  0
LINE
  8
0
 10
124.728
 20
371
 11
124.894
 21
370.646
  0
LINE
  8
0
 10
124.894
 20
370.646
 11
125.015
 21
370.274
  0
LINE
  8
0
 10
125.015
 20
370.274
 11
125.088
 21
369.89
  0
LINE
  8
0
 10
125.088
 20
369.89
 11
125.113
 21
369.5
  0
LINE
  8
0
 10
125.113
 20
369.5
 11
125.113
 21
320.5
  0
LINE
  8
0
 10
125.113
 20
320.5
 11
125.088
 21
320.11
  0
LINE
  8
0
 10
125.088
 20
320.11
 11
125.015
 21
319.726
  0
LINE
  8
0
 10
125.015
 20
319.726
 11
124.894
 21
319.354
  0
LINE
  8
0
 10
124.894
 20
319.354
 11
124.728
 21
319
  0
LINE
  8
0
 10
124.728
 20
319
 11
124.518
 21
318.67
  0
LINE
  8
0
 10
124.518
 20
318.67
 11
124.269
 21
318.369
  0
LINE
  8
0
 10
124.269
 20
318.369
 11
123.984
 21
318.101
  0
LINE
  8
0
 10
123.984
 20
318.101
 11
123.668
 21
317.872
  0
LINE
  8
0
 10
123.668
 20
317.872
 11
123.325
 21
317.683
  0
LINE
  8
0
 10
123.325
 20
317.683
 11
122.962
 21
317.539
  0
LINE
  8
0
 10
122.962
 20
317.539
 11
122.583
 21
317.442
  0
LINE
  8
0
 10
122.583
 20
317.442
 11
122.195
 21
317.393
  0
LINE
  8
0
 10
122.195
 20
317.393
 11
-122.195
 21
317.393
  0
LINE
  8
0
 10
123.437
 20
246.089
 11
124.045
 21
246.245
  0
LINE
  8
0
 10
124.045
 20
246.245
 11
124.629
 21
246.476
  0
LINE
  8
0
 10
124.629
 20
246.476
 11
125.179
 21
246.778
  0
LINE
  8
0
 10
125.179
 20
246.778
 11
125.687
 21
247.147
  0
LINE
  8
0
 10
125.687
 20
247.147
 11
126.145
 21
247.577
  0
LINE
  8
0
 10
126.145
 20
247.577
 11
126.545
 21
248.061
  0
LINE
  8
0
 10
126.545
 20
248.061
 11
126.882
 21
248.591
  0
LINE
  8
0
 10
126.882
 20
248.591
 11
127.149
 21
249.159
  0
LINE
  8
0
 10
127.149
 20
249.159
 11
127.343
 21
249.757
  0
LINE
  8
0
 10
127.343
 20
249.757
 11
127.461
 21
250.373
  0
LINE
  8
0
 10
127.461
 20
250.373
 11
127.5
 21
251
  0
LINE
  8
0
 10
127.5
 20
251
 11
127.5
 21
301
  0
LINE
  8
0
 10
127.5
 20
301
 11
127.461
 21
301.627
  0
LINE
  8
0
 10
127.461
 20
301.627
 11
127.343
 21
302.243
  0
LINE
  8
0
 10
127.343
 20
302.243
 11
127.149
 21
302.841
  0
LINE
  8
0
 10
127.149
 20
302.841
 11
126.882
 21
303.409
  0
LINE
  8
0
 10
126.882
 20
303.409
 11
126.545
 21
303.939
  0
LINE
  8
0
 10
126.545
 20
303.939
 11
126.145
 21
304.423
  0
LINE
  8
0
 10
126.145
 20
304.423
 11
125.687
 21
304.853
  0
LINE
  8
0
 10
125.687
 20
304.853
 11
125.179
 21
305.222
  0
LINE
  8
0
 10
125.179
 20
305.222
 11
124.629
 21
305.524
  0
LINE
  8
0
 10
124.629
 20
305.524
 11
124.045
 21
305.755
  0
LINE
  8
0
 10
124.045
 20
305.755
 11
123.437
 21
305.911
  0
LINE
  8
0
 10
123.437
 20
305.911
 11
122.814
 21
305.99
  0
LINE
  8
0
 10
122.814
 20
305.99
 11
-122.814
 21
305.99
  0
LINE
  8
0
 10
-122.814
 20
305.99
 11
-123.437
 21
305.911
  0
LINE
  8
0
 10
-123.437
 20
305.911
 11
-124.045
 21
305.755
  0
LINE
  8
0
 10
-124.045
 20
305.755
 11
-124.629
 21
305.524
  0
LINE
  8
0
 10
-124.629
 20
305.524
 11
-125.179
 21
305.222
  0
LINE
  8
0
 10
-125.179
 20
305.222
 11
-125.687
 21
304.853
  0
LINE
  8
0
 10
-125.687
 20
304.853
 11
-126
 21
304.559
  0
LINE
  8
0
 10
-126
 20
304.559
 11
-126
 21
304.653
  0
LINE
  8
0
 10
-126
 20
304.653
 11
-129
 21
304.653
  0
LINE
  8
0
 10
-129
 20
304.653
 11
-129
 21
247.347
  0
LINE
  8
0
 10
-129
 20
247.347
 11
-126
 21
247.347
  0
LINE
  8
0
 10
-126
 20
247.347
 11
-126
 21
247.441
  0
LINE
  8
0
 10
-126
 20
247.441
 11
-125.687
 21
247.147
  0
LINE
  8
0
 10
-125.687
 20
247.147
 11
-125.179
 21
246.778
  0
LINE
  8
0
 10
-125.179
 20
246.778
 11
-124.629
 21
246.476
  0
LINE
  8
0
 10
-124.629
 20
246.476
 11
-124.045
 21
246.245
  0
LINE
  8
0
 10
-124.045
 20
246.245
 11
-123.437
 21
246.089
  0
LINE
  8
0
 10
-123.437
 20
246.089
 11
-122.814
 21
246.01
  0
LINE
  8
0
 10
-122.814
 20
246.01
 11
122.814
 21
246.01
  0
LINE
  8
0
 10
122.814
 20
246.01
 11
123.437
 21
246.089
  0
LINE
  8
0
 10
-120.134
 20
296.369
 11
-120.4
 21
296.403
  0
LINE
  8
0
 10
-120.4
 20
296.403
 11
-120.66
 21
296.469
  0
LINE
  8
0
 10
-120.66
 20
296.469
 11
-120.909
 21
296.568
  0
LINE
  8
0
 10
-120.909
 20
296.568
 11
-121.144
 21
296.697
  0
LINE
  8
0
 10
-121.144
 20
296.697
 11
-121.361
 21
296.855
  0
LINE
  8
0
 10
-121.361
 20
296.855
 11
-121.557
 21
297.038
  0
LINE
  8
0
 10
-121.557
 20
297.038
 11
-121.727
 21
297.245
  0
LINE
  8
0
 10
-121.727
 20
297.245
 11
-121.871
 21
297.471
  0
LINE
  8
0
 10
-121.871
 20
297.471
 11
-121.985
 21
297.714
  0
LINE
  8
0
 10
-121.985
 20
297.714
 11
-122.068
 21
297.969
  0
LINE
  8
0
 10
-122.068
 20
297.969
 11
-122.118
 21
298.232
  0
LINE
  8
0
 10
-122.118
 20
298.232
 11
-122.135
 21
298.5
  0
LINE
  8
0
 10
-122.135
 20
298.5
 11
-122.118
 21
298.768
  0
LINE
  8
0
 10
-122.118
 20
298.768
 11
-122.068
 21
299.031
  0
LINE
  8
0
 10
-122.068
 20
299.031
 11
-121.985
 21
299.286
  0
LINE
  8
0
 10
-121.985
 20
299.286
 11
-121.871
 21
299.529
  0
LINE
  8
0
 10
-121.871
 20
299.529
 11
-121.727
 21
299.755
  0
LINE
  8
0
 10
-121.727
 20
299.755
 11
-121.557
 21
299.962
  0
LINE
  8
0
 10
-121.557
 20
299.962
 11
-121.361
 21
300.145
  0
LINE
  8
0
 10
-121.361
 20
300.145
 11
-121.144
 21
300.303
  0
LINE
  8
0
 10
-121.144
 20
300.303
 11
-120.909
 21
300.432
  0
LINE
  8
0
 10
-120.909
 20
300.432
 11
-120.66
 21
300.531
  0
LINE
  8
0
 10
-120.66
 20
300.531
 11
-120.4
 21
300.597
  0
LINE
  8
0
 10
-120.4
 20
300.597
 11
-120.134
 21
300.631
  0
LINE
  8
0
 10
-120.134
 20
300.631
 11
-119.866
 21
300.631
  0
LINE
  8
0
 10
-119.866
 20
300.631
 11
-119.6
 21
300.597
  0
LINE
  8
0
 10
-119.6
 20
300.597
 11
-119.34
 21
300.531
  0
LINE
  8
0
 10
-119.34
 20
300.531
 11
-119.091
 21
300.432
  0
LINE
  8
0
 10
-119.091
 20
300.432
 11
-118.856
 21
300.303
  0
LINE
  8
0
 10
-118.856
 20
300.303
 11
-118.639
 21
300.145
  0
LINE
  8
0
 10
-118.639
 20
300.145
 11
-118.443
 21
299.962
  0
LINE
  8
0
 10
-118.443
 20
299.962
 11
-118.273
 21
299.755
  0
LINE
  8
0
 10
-118.273
 20
299.755
 11
-118.129
 21
299.529
  0
LINE
  8
0
 10
-118.129
 20
299.529
 11
-118.015
 21
299.286
  0
LINE
  8
0
 10
-118.015
 20
299.286
 11
-117.932
 21
299.031
  0
LINE
  8
0
 10
-117.932
 20
299.031
 11
-117.882
 21
298.768
  0
LINE
  8
0
 10
-117.882
 20
298.768
 11
-117.865
 21
298.5
  0
LINE
  8
0
 10
-117.865
 20
298.5
 11
-117.882
 21
298.232
  0
LINE
  8
0
 10
-117.882
 20
298.232
 11
-117.932
 21
297.969
  0
LINE
  8
0
 10
-117.932
 20
297.969
 11
-118.015
 21
297.714
  0
LINE
  8
0
 10
-118.015
 20
297.714
 11
-118.129
 21
297.471
  0
LINE
  8
0
 10
-118.129
 20
297.471
 11
-118.273
 21
297.245
  0
LINE
  8
0
 10
-118.273
 20
297.245
 11
-118.443
 21
297.038
  0
LINE
  8
0
 10
-118.443
 20
297.038
 11
-118.639
 21
296.855
  0
LINE
  8
0
 10
-118.639
 20
296.855
 11
-118.856
 21
296.697
  0
LINE
  8
0
 10
-118.856
 20
296.697
 11
-119.091
 21
296.568
  0
LINE
  8
0
 10
-119.091
 20
296.568
 11
-119.34
 21
296.469
  0
LINE
  8
0
 10
-119.34
 20
296.469
 11
-119.6
 21
296.403
  0
LINE
  8
0
 10
-119.6
 20
296.403
 11
-119.866
 21
296.369
  0
LINE
  8
0
 10
-119.866
 20
296.369
 11
-120.134
 21
296.369
  0
LINE
  8
0
 10
119.866
 20
296.369
 11
119.6
 21
296.403
  0
LINE
  8
0
 10
119.6
 20
296.403
 11
119.34
 21
296.469
  0
LINE
  8
0
 10
119.34
 20
296.469
 11
119.091
 21
296.568
  0
LINE
  8
0
 10
119.091
 20
296.568
 11
118.856
 21
296.697
  0
LINE
  8
0
 10
118.856
 20
296.697
 11
118.639
 21
296.855
  0
LINE
  8
0
 10
118.639
 20
296.855
 11
118.443
 21
297.038
  0
LINE
  8
0
 10
118.443
 20
297.038
 11
118.273
 21
297.245
  0
LINE
  8
0
 10
118.273
 20
297.245
 11
118.129
 21
297.471
  0
LINE
  8
0
 10
118.129
 20
297.471
 11
118.015
 21
297.714
  0
LINE
  8
0
 10
118.015
 20
297.714
 11
117.932
 21
297.969
  0
LINE
  8
0
 10
117.932
 20
297.969
 11
117.882
 21
298.232
  0
LINE
  8
0
 10
117.882
 20
298.232
 11
117.865
 21
298.5
  0
LINE
  8
0
 10
117.865
 20
298.5
 11
117.882
 21
298.768
  0
LINE
  8
0
 10
117.882
 20
298.768
 11
117.932
 21
299.031
  0
LINE
  8
0
 10
117.932
 20
299.031
 11
118.015
 21
299.286
  0
LINE
  8
0
 10
118.015
 20
299.286
 11
118.129
 21
299.529
  0
LINE
  8
0
 10
118.129
 20
299.529
 11
118.273
 21
299.755
  0
LINE
  8
0
 10
118.273
 20
299.755
 11
118.443
 21
299.962
  0
LINE
  8
0
 10
118.443
 20
299.962
 11
118.639
 21
300.145
  0
LINE
  8
0
 10
118.639
 20
300.145
 11
118.856
 21
300.303
  0
LINE
  8
0
 10
118.856
 20
300.303
 11
119.091
 21
300.432
  0
LINE
  8
0
 10
119.091
 20
300.432
 11
119.34
 21
300.531
  0
LINE
  8
0
 10
119.34
 20
300.531
 11
119.6
 21
300.597
  0
LINE
  8
0
 10
119.6
 20
300.597
 11
119.866
 21
300.631
  0
LINE
  8
0
 10
119.866
 20
300.631
 11
120.134
 21
300.631
  0
LINE
  8
0
 10
120.134
 20
300.631
 11
120.4
 21
300.597
  0
LINE
  8
0
 10
120.4
 20
300.597
 11
120.66
 21
300.531
  0
LINE
  8
0
 10
120.66
 20
300.531
 11
120.909
 21
300.432
  0
LINE
  8
0
 10
120.909
 20
300.432
 11
121.144
 21
300.303
  0
LINE
  8
0
 10
121.144
 20
300.303
 11
121.361
 21
300.145
  0
LINE
  8
0
 10
121.361
 20
300.145
 11
121.557
 21
299.962
  0
LINE
  8
0
 10
121.557
 20
299.962
 11
121.727
 21
299.755
  0
LINE
  8
0
 10
121.727
 20
299.755
 11
121.871
 21
299.529
  0
LINE
  8
0
 10
121.871
 20
299.529
 11
121.985
 21
299.286
  0
LINE
  8
0
 10
121.985
 20
299.286
 11
122.068
 21
299.031
  0
LINE
  8
0
 10
122.068
 20
299.031
 11
122.118
 21
298.768
  0
LINE
  8
0
 10
122.118
 20
298.768
 11
122.135
 21
298.5
  0
LINE
  8
0
 10
122.135
 20
298.5
 11
122.118
 21
298.232
  0
LINE
  8
0
 10
122.118
 20
298.232
 11
122.068
 21
297.969
  0
LINE
  8
0
 10
122.068
 20
297.969
 11
121.985
 21
297.714
  0
LINE
  8
0
 10
121.985
 20
297.714
 11
121.871
 21
297.471
  0
LINE
  8
0
 10
121.871
 20
297.471
 11
121.727
 21
297.245
  0
LINE
  8
0
 10
121.727
 20
297.245
 11
121.557
 21
297.038
  0
LINE
  8
0
 10
121.557
 20
297.038
 11
121.361
 21
296.855
  0
LINE
  8
0
 10
121.361
 20
296.855
 11
121.144
 21
296.697
  0
LINE
  8
0
 10
121.144
 20
296.697
 11
120.909
 21
296.568
  0
LINE
  8
0
 10
120.909
 20
296.568
 11
120.66
 21
296.469
  0
LINE
  8
0
 10
120.66
 20
296.469
 11
120.4
 21
296.403
  0
LINE
  8
0
 10
120.4
 20
296.403
 11
120.134
 21
296.369
  0
LINE
  8
0
 10
120.134
 20
296.369
 11
119.866
 21
296.369
  0
LINE
  8
0
 10
-120.134
 20
251.369
 11
-120.4
 21
251.403
  0
LINE
  8
0
 10
-120.4
 20
251.403
 11
-120.66
 21
251.469
  0
LINE
  8
0
 10
-120.66
 20
251.469
 11
-120.909
 21
251.568
  0
LINE
  8
0
 10
-120.909
 20
251.568
 11
-121.144
 21
251.697
  0
LINE
  8
0
 10
-121.144
 20
251.697
 11
-121.361
 21
251.855
  0
LINE
  8
0
 10
-121.361
 20
251.855
 11
-121.557
 21
252.038
  0
LINE
  8
0
 10
-121.557
 20
252.038
 11
-121.727
 21
252.245
  0
LINE
  8
0
 10
-121.727
 20
252.245
 11
-121.871
 21
252.471
  0
LINE
  8
0
 10
-121.871
 20
252.471
 11
-121.985
 21
252.714
  0
LINE
  8
0
 10
-121.985
 20
252.714
 11
-122.068
 21
252.969
  0
LINE
  8
0
 10
-122.068
 20
252.969
 11
-122.118
 21
253.232
  0
LINE
  8
0
 10
-122.118
 20
253.232
 11
-122.135
 21
253.5
  0
LINE
  8
0
 10
-122.135
 20
253.5
 11
-122.118
 21
253.768
  0
LINE
  8
0
 10
-122.118
 20
253.768
 11
-122.068
 21
254.031
  0
LINE
  8
0
 10
-122.068
 20
254.031
 11
-121.985
 21
254.286
  0
LINE
  8
0
 10
-121.985
 20
254.286
 11
-121.871
 21
254.529
  0
LINE
  8
0
 10
-121.871
 20
254.529
 11
-121.727
 21
254.755
  0
LINE
  8
0
 10
-121.727
 20
254.755
 11
-121.557
 21
254.962
  0
LINE
  8
0
 10
-121.557
 20
254.962
 11
-121.361
 21
255.145
  0
LINE
  8
0
 10
-121.361
 20
255.145
 11
-121.144
 21
255.303
  0
LINE
  8
0
 10
-121.144
 20
255.303
 11
-120.909
 21
255.432
  0
LINE
  8
0
 10
-120.909
 20
255.432
 11
-120.66
 21
255.531
  0
LINE
  8
0
 10
-120.66
 20
255.531
 11
-120.4
 21
255.597
  0
LINE
  8
0
 10
-120.4
 20
255.597
 11
-120.134
 21
255.631
  0
LINE
  8
0
 10
-120.134
 20
255.631
 11
-119.866
 21
255.631
  0
LINE
  8
0
 10
-119.866
 20
255.631
 11
-119.6
 21
255.597
  0
LINE
  8
0
 10
-119.6
 20
255.597
 11
-119.34
 21
255.531
  0
LINE
  8
0
 10
-119.34
 20
255.531
 11
-119.091
 21
255.432
  0
LINE
  8
0
 10
-119.091
 20
255.432
 11
-118.856
 21
255.303
  0
LINE
  8
0
 10
-118.856
 20
255.303
 11
-118.639
 21
255.145
  0
LINE
  8
0
 10
-118.639
 20
255.145
 11
-118.443
 21
254.962
  0
LINE
  8
0
 10
-118.443
 20
254.962
 11
-118.273
 21
254.755
  0
LINE
  8
0
 10
-118.273
 20
254.755
 11
-118.129
 21
254.529
  0
LINE
  8
0
 10
-118.129
 20
254.529
 11
-118.015
 21
254.286
  0
LINE
  8
0
 10
-118.015
 20
254.286
 11
-117.932
 21
254.031
  0
LINE
  8
0
 10
-117.932
 20
254.031
 11
-117.882
 21
253.768
  0
LINE
  8
0
 10
-117.882
 20
253.768
 11
-117.865
 21
253.5
  0
LINE
  8
0
 10
-117.865
 20
253.5
 11
-117.882
 21
253.232
  0
LINE
  8
0
 10
-117.882
 20
253.232
 11
-117.932
 21
252.969
  0
LINE
  8
0
 10
-117.932
 20
252.969
 11
-118.015
 21
252.714
  0
LINE
  8
0
 10
-118.015
 20
252.714
 11
-118.129
 21
252.471
  0
LINE
  8
0
 10
-118.129
 20
252.471
 11
-118.273
 21
252.245
  0
LINE
  8
0
 10
-118.273
 20
252.245
 11
-118.443
 21
252.038
  0
LINE
  8
0
 10
-118.443
 20
252.038
 11
-118.639
 21
251.855
  0
LINE
  8
0
 10
-118.639
 20
251.855
 11
-118.856
 21
251.697
  0
LINE
  8
0
 10
-118.856
 20
251.697
 11
-119.091
 21
251.568
  0
LINE
  8
0
 10
-119.091
 20
251.568
 11
-119.34
 21
251.469
  0
LINE
  8
0
 10
-119.34
 20
251.469
 11
-119.6
 21
251.403
  0
LINE
  8
0
 10
-119.6
 20
251.403
 11
-119.866
 21
251.369
  0
LINE
  8
0
 10
-119.866
 20
251.369
 11
-120.134
 21
251.369
  0
LINE
  8
0
 10
119.866
 20
251.369
 11
119.6
 21
251.403
  0
LINE
  8
0
 10
119.6
 20
251.403
 11
119.34
 21
251.469
  0
LINE
  8
0
 10
119.34
 20
251.469
 11
119.091
 21
251.568
  0
LINE
  8
0
 10
119.091
 20
251.568
 11
118.856
 21
251.697
  0
LINE
  8
0
 10
118.856
 20
251.697
 11
118.639
 21
251.855
  0
LINE
  8
0
 10
118.639
 20
251.855
 11
118.443
 21
252.038
  0
LINE
  8
0
 10
118.443
 20
252.038
 11
118.273
 21
252.245
  0
LINE
  8
0
 10
118.273
 20
252.245
 11
118.129
 21
252.471
  0
LINE
  8
0
 10
118.129
 20
252.471
 11
118.015
 21
252.714
  0
LINE
  8
0
 10
118.015
 20
252.714
 11
117.932
 21
252.969
  0
LINE
  8
0
 10
117.932
 20
252.969
 11
117.882
 21
253.232
  0
LINE
  8
0
 10
117.882
 20
253.232
 11
117.865
 21
253.5
  0
LINE
  8
0
 10
117.865
 20
253.5
 11
117.882
 21
253.768
  0
LINE
  8
0
 10
117.882
 20
253.768
 11
117.932
 21
254.031
  0
LINE
  8
0
 10
117.932
 20
254.031
 11
118.015
 21
254.286
  0
LINE
  8
0
 10
118.015
 20
254.286
 11
118.129
 21
254.529
  0
LINE
  8
0
 10
118.129
 20
254.529
 11
118.273
 21
254.755
  0
LINE
  8
0
 10
118.273
 20
254.755
 11
118.443
 21
254.962
  0
LINE
  8
0
 10
118.443
 20
254.962
 11
118.639
 21
255.145
  0
LINE
  8
0
 10
118.639
 20
255.145
 11
118.856
 21
255.303
  0
LINE
  8
0
 10
118.856
 20
255.303
 11
119.091
 21
255.432
  0
LINE
  8
0
 10
119.091
 20
255.432
 11
119.34
 21
255.531
  0
LINE
  8
0
 10
119.34
 20
255.531
 11
119.6
 21
255.597
  0
LINE
  8
0
 10
119.6
 20
255.597
 11
119.866
 21
255.631
  0
LINE
  8
0
 10
119.866
 20
255.631
 11
120.134
 21
255.631
  0
LINE
  8
0
 10
120.134
 20
255.631
 11
120.4
 21
255.597
  0
LINE
  8
0
 10
120.4
 20
255.597
 11
120.66
 21
255.531
  0
LINE
  8
0
 10
120.66
 20
255.531
 11
120.909
 21
255.432
  0
LINE
  8
0
 10
120.909
 20
255.432
 11
121.144
 21
255.303
  0
LINE
  8
0
 10
121.144
 20
255.303
 11
121.361
 21
255.145
  0
LINE
  8
0
 10
121.361
 20
255.145
 11
121.557
 21
254.962
  0
LINE
  8
0
 10
121.557
 20
254.962
 11
121.727
 21
254.755
  0
LINE
  8
0
 10
121.727
 20
254.755
 11
121.871
 21
254.529
  0
LINE
  8
0
 10
121.871
 20
254.529
 11
121.985
 21
254.286
  0
LINE
  8
0
 10
121.985
 20
254.286
 11
122.068
 21
254.031
  0
LINE
  8
0
 10
122.068
 20
254.031
 11
122.118
 21
253.768
  0
LINE
  8
0
 10
122.118
 20
253.768
 11
122.135
 21
253.5
  0
LINE
  8
0
 10
122.135
 20
253.5
 11
122.118
 21
253.232
  0
LINE
  8
0
 10
122.118
 20
253.232
 11
122.068
 21
252.969
  0
LINE
  8
0
 10
122.068
 20
252.969
 11
121.985
 21
252.714
  0
LINE
  8
0
 10
121.985
 20
252.714
 11
121.871
 21
252.471
  0
LINE
  8
0
 10
121.871
 20
252.471
 11
121.727
 21
252.245
  0
LINE
  8
0
 10
121.727
 20
252.245
 11
121.557
 21
252.038
  0
LINE
  8
0
 10
121.557
 20
252.038
 11
121.361
 21
251.855
  0
LINE
  8
0
 10
121.361
 20
251.855
 11
121.144
 21
251.697
  0
LINE
  8
0
 10
121.144
 20
251.697
 11
120.909
 21
251.568
  0
LINE
  8
0
 10
120.909
 20
251.568
 11
120.66
 21
251.469
  0
LINE
  8
0
 10
120.66
 20
251.469
 11
120.4
 21
251.403
  0
LINE
  8
0
 10
120.4
 20
251.403
 11
120.134
 21
251.369
  0
LINE
  8
0
 10
120.134
 20
251.369
 11
119.866
 21
251.369
  0
ENDSEC
  0
SECTION
  2
OBJECTS
  0
DICTIONARY
  0
ENDSEC
  0
EOF
