<?xml version="1.0" standalone="no"?>
<!DOCTYPE svg PUBLIC "-//W3C//DTD SVG 1.1//EN" "http://www.w3.org/Graphics/SVG/1.1/DTD/svg11.dtd">
<svg width="257mm" height="267mm" viewBox="-129 -513 257 267" xmlns="http://www.w3.org/2000/svg" version="1.1">
<title>OpenSCAD Model</title>
<path d="
M -126,-454.441 L -125.687,-454.147 L -125.179,-453.778 L -124.629,-453.476 L -124.045,-453.245 L -123.437,-453.089
 L -122.814,-453.01 L 122.814,-453.01 L 123.437,-453.089 L 124.045,-453.245 L 124.629,-453.476 L 125.179,-453.778
 L 125.687,-454.147 L 126.145,-454.577 L 126.545,-455.061 L 126.882,-455.591 L 127.149,-456.159 L 127.343,-456.757
 L 127.461,-457.373 L 127.5,-458 L 127.5,-508 L 127.461,-508.627 L 127.343,-509.243 L 127.149,-509.841
 L 126.882,-510.409 L 126.545,-510.939 L 126.145,-511.423 L 125.687,-511.853 L 125.179,-512.222 L 124.629,-512.524
 L 124.045,-512.755 L 123.437,-512.911 L 122.814,-512.99 L -122.814,-512.99 L -123.437,-512.911 L -124.045,-512.755
 L -124.629,-512.524 L -125.179,-512.222 L -125.687,-511.853 L -126,-511.559 L -126,-512.99 L -129,-512.99
 L -129,-453.01 L -126,-453.01 z
M -122.251,-454.508 L -122.75,-454.571 L -123.236,-454.696 L -123.703,-454.881 L -124.143,-455.123 L -124.55,-455.418
 L -124.916,-455.762 L -125.236,-456.149 L -125.505,-456.573 L -125.719,-457.028 L -125.874,-457.505 L -125.968,-457.999
 L -126,-458.5 L -126,-507.5 L -125.968,-508.001 L -125.874,-508.495 L -125.719,-508.972 L -125.505,-509.427
 L -125.236,-509.851 L -124.916,-510.238 L -124.55,-510.582 L -124.143,-510.877 L -123.703,-511.119 L -123.236,-511.304
 L -122.75,-511.429 L -122.251,-511.492 L 122.251,-511.492 L 122.75,-511.429 L 123.236,-511.304 L 123.703,-511.119
 L 124.143,-510.877 L 124.55,-510.582 L 124.916,-510.238 L 125.236,-509.851 L 125.505,-509.427 L 125.719,-508.972
 L 125.874,-508.495 L 125.968,-508.001 L 126,-507.5 L 126,-458.5 L 125.968,-457.999 L 125.874,-457.505
 L 125.719,-457.028 L 125.505,-456.573 L 125.236,-456.149 L 124.916,-455.762 L 124.55,-455.418 L 124.143,-455.123
 L 123.703,-454.881 L 123.236,-454.696 L 122.75,-454.571 L 122.251,-454.508 z
M -126,-385.441 L -125.687,-385.147 L -125.179,-384.778 L -124.629,-384.476 L -124.045,-384.245 L -123.437,-384.089
 L -122.814,-384.01 L 122.814,-384.01 L 123.437,-384.089 L 124.045,-384.245 L 124.629,-384.476 L 125.179,-384.778
 L 125.687,-385.147 L 126.145,-385.577 L 126.545,-386.061 L 126.882,-386.591 L 127.149,-387.159 L 127.343,-387.757
 L 127.461,-388.373 L 127.5,-389 L 127.5,-439 L 127.461,-439.627 L 127.343,-440.243 L 127.149,-440.841
 L 126.882,-441.409 L 126.545,-441.939 L 126.145,-442.423 L 125.687,-442.853 L 125.179,-443.222 L 124.629,-443.524
 L 124.045,-443.755 L 123.437,-443.911 L 122.814,-443.99 L -122.814,-443.99 L -123.437,-443.911 L -124.045,-443.755
 L -124.629,-443.524 L -125.179,-443.222 L -125.687,-442.853 L -126,-442.559 L -126,-443.99 L -129,-443.99
 L -129,-384.01 L -126,-384.01 z
M -122.251,-385.508 L -122.75,-385.571 L -123.236,-385.696 L -123.703,-385.881 L -124.143,-386.123 L -124.55,-386.418
 L -124.916,-386.762 L -125.236,-387.149 L -125.505,-387.573 L -125.719,-388.028 L -125.874,-388.505 L -125.968,-388.999
 L -126,-389.5 L -126,-438.5 L -125.968,-439.001 L -125.874,-439.495 L -125.719,-439.972 L -125.505,-440.427
 L -125.236,-440.851 L -124.916,-441.238 L -124.55,-441.582 L -124.143,-441.877 L -123.703,-442.119 L -123.236,-442.304
 L -122.75,-442.429 L -122.251,-442.492 L 122.251,-442.492 L 122.75,-442.429 L 123.236,-442.304 L 123.703,-442.119
 L 124.143,-441.877 L 124.55,-441.582 L 124.916,-441.238 L 125.236,-440.851 L 125.505,-440.427 L 125.719,-439.972
 L 125.874,-439.495 L 125.968,-439.001 L 126,-438.5 L 126,-389.5 L 125.968,-388.999 L 125.874,-388.505
 L 125.719,-388.028 L 125.505,-387.573 L 125.236,-387.149 L 124.916,-386.762 L 124.55,-386.418 L 124.143,-386.123
 L 123.703,-385.881 L 123.236,-385.696 L 122.75,-385.571 L 122.251,-385.508 z
M 123.437,-315.089 L 124.045,-315.245 L 124.629,-315.476 L 125.179,-315.778 L 125.687,-316.147 L 126.145,-316.577
 L 126.545,-317.061 L 126.882,-317.591 L 127.149,-318.159 L 127.343,-318.757 L 127.461,-319.373 L 127.5,-320
 L 127.5,-370 L 127.461,-370.627 L 127.343,-371.243 L 127.149,-371.841 L 126.882,-372.409 L 126.545,-372.939
 L 126.145,-373.423 L 125.687,-373.853 L 125.179,-374.222 L 124.629,-374.524 L 124.045,-374.755 L 123.437,-374.911
 L 122.814,-374.99 L -122.814,-374.99 L -123.437,-374.911 L -124.045,-374.755 L -124.629,-374.524 L -125.179,-374.222
 L -125.687,-373.853 L -126,-373.559 L -126,-374.979 L -129,-374.979 L -129,-315.021 L -126,-315.021
 L -126,-316.441 L -125.687,-316.147 L -125.179,-315.778 L -124.629,-315.476 L -124.045,-315.245 L -123.437,-315.089
 L -122.814,-315.01 L 122.814,-315.01 z
M -122.195,-317.393 L -122.583,-317.442 L -122.962,-317.539 L -123.325,-317.683 L -123.668,-317.872 L -123.984,-318.101
 L -124.269,-318.369 L -124.518,-318.67 L -124.728,-319 L -124.894,-319.354 L -125.015,-319.726 L -125.088,-320.11
 L -125.113,-320.5 L -125.113,-369.5 L -125.088,-369.89 L -125.015,-370.274 L -124.894,-370.646 L -124.728,-371
 L -124.518,-371.33 L -124.269,-371.631 L -123.984,-371.899 L -123.668,-372.128 L -123.325,-372.317 L -122.962,-372.461
 L -122.583,-372.558 L -122.195,-372.607 L 122.195,-372.607 L 122.583,-372.558 L 122.962,-372.461 L 123.325,-372.317
 L 123.668,-372.128 L 123.984,-371.899 L 124.269,-371.631 L 124.518,-371.33 L 124.728,-371 L 124.894,-370.646
 L 125.015,-370.274 L 125.088,-369.89 L 125.113,-369.5 L 125.113,-320.5 L 125.088,-320.11 L 125.015,-319.726
 L 124.894,-319.354 L 124.728,-319 L 124.518,-318.67 L 124.269,-318.369 L 123.984,-318.101 L 123.668,-317.872
 L 123.325,-317.683 L 122.962,-317.539 L 122.583,-317.442 L 122.195,-317.393 z
M 123.437,-246.089 L 124.045,-246.245 L 124.629,-246.476 L 125.179,-246.778 L 125.687,-247.147 L 126.145,-247.577
 L 126.545,-248.061 L 126.882,-248.591 L 127.149,-249.159 L 127.343,-249.757 L 127.461,-250.373 L 127.5,-251
 L 127.5,-301 L 127.461,-301.627 L 127.343,-302.243 L 127.149,-302.841 L 126.882,-303.409 L 126.545,-303.939
 L 126.145,-304.423 L 125.687,-304.853 L 125.179,-305.222 L 124.629,-305.524 L 124.045,-305.755 L 123.437,-305.911
 L 122.814,-305.99 L -122.814,-305.99 L -123.437,-305.911 L -124.045,-305.755 L -124.629,-305.524 L -125.179,-305.222
 L -125.687,-304.853 L -126,-304.559 L -126,-304.653 L -129,-304.653 L -129,-247.347 L -126,-247.347
 L -126,-247.441 L -125.687,-247.147 L -125.179,-246.778 L -124.629,-246.476 L -124.045,-246.245 L -123.437,-246.089
 L -122.814,-246.01 L 122.814,-246.01 z
M -120.134,-296.369 L -120.4,-296.403 L -120.66,-296.469 L -120.909,-296.568 L -121.144,-296.697 L -121.361,-296.855
 L -121.557,-297.038 L -121.727,-297.245 L -121.871,-297.471 L -121.985,-297.714 L -122.068,-297.969 L -122.118,-298.232
 L -122.135,-298.5 L -122.118,-298.768 L -122.068,-299.031 L -121.985,-299.286 L -121.871,-299.529 L -121.727,-299.755
 L -121.557,-299.962 L -121.361,-300.145 L -121.144,-300.303 L -120.909,-300.432 L -120.66,-300.531 L -120.4,-300.597
 L -120.134,-300.631 L -119.866,-300.631 L -119.6,-300.597 L -119.34,-300.531 L -119.091,-300.432 L -118.856,-300.303
 L -118.639,-300.145 L -118.443,-299.962 L -118.273,-299.755 L -118.129,-299.529 L -118.015,-299.286 L -117.932,-299.031
 L -117.882,-298.768 L -117.865,-298.5 L -117.882,-298.232 L -117.932,-297.969 L -118.015,-297.714 L -118.129,-297.471
 L -118.273,-297.245 L -118.443,-297.038 L -118.639,-296.855 L -118.856,-296.697 L -119.091,-296.568 L -119.34,-296.469
 L -119.6,-296.403 L -119.866,-296.369 z
M 119.866,-296.369 L 119.6,-296.403 L 119.34,-296.469 L 119.091,-296.568 L 118.856,-296.697 L 118.639,-296.855
 L 118.443,-297.038 L 118.273,-297.245 L 118.129,-297.471 L 118.015,-297.714 L 117.932,-297.969 L 117.882,-298.232
 L 117.865,-298.5 L 117.882,-298.768 L 117.932,-299.031 L 118.015,-299.286 L 118.129,-299.529 L 118.273,-299.755
 L 118.443,-299.962 L 118.639,-300.145 L 118.856,-300.303 L 119.091,-300.432 L 119.34,-300.531 L 119.6,-300.597
 L 119.866,-300.631 L 120.134,-300.631 L 120.4,-300.597 L 120.66,-300.531 L 120.909,-300.432 L 121.144,-300.303
 L 121.361,-300.145 L 121.557,-299.962 L 121.727,-299.755 L 121.871,-299.529 L 121.985,-299.286 L 122.068,-299.031
 L 122.118,-298.768 L 122.135,-298.5 L 122.118,-298.232 L 122.068,-297.969 L 121.985,-297.714 L 121.871,-297.471
 L 121.727,-297.245 L 121.557,-297.038 L 121.361,-296.855 L 121.144,-296.697 L 120.909,-296.568 L 120.66,-296.469
 L 120.4,-296.403 L 120.134,-296.369 z
M -120.134,-251.369 L -120.4,-251.403 L -120.66,-251.469 L -120.909,-251.568 L -121.144,-251.697 L -121.361,-251.855
 L -121.557,-252.038 L -121.727,-252.245 L -121.871,-252.471 L -121.985,-252.714 L -122.068,-252.969 L -122.118,-253.232
 L -122.135,-253.5 L -122.118,-253.768 L -122.068,-254.031 L -121.985,-254.286 L -121.871,-254.529 L -121.727,-254.755
 L -121.557,-254.962 L -121.361,-255.145 L -121.144,-255.303 L -120.909,-255.432 L -120.66,-255.531 L -120.4,-255.597
 L -120.134,-255.631 L -119.866,-255.631 L -119.6,-255.597 L -119.34,-255.531 L -119.091,-255.432 L -118.856,-255.303
 L -118.639,-255.145 L -118.443,-254.962 L -118.273,-254.755 L -118.129,-254.529 L -118.015,-254.286 L -117.932,-254.031
 L -117.882,-253.768 L -117.865,-253.5 L -117.882,-253.232 L -117.932,-252.969 L -118.015,-252.714 L -118.129,-252.471
 L -118.273,-252.245 L -118.443,-252.038 L -118.639,-251.855 L -118.856,-251.697 L -119.091,-251.568 L -119.34,-251.469
 L -119.6,-251.403 L -119.866,-251.369 z
M 119.866,-251.369 L 119.6,-251.403 L 119.34,-251.469 L 119.091,-251.568 L 118.856,-251.697 L 118.639,-251.855
 L 118.443,-252.038 L 118.273,-252.245 L 118.129,-252.471 L 118.015,-252.714 L 117.932,-252.969 L 117.882,-253.232
 L 117.865,-253.5 L 117.882,-253.768 L 117.932,-254.031 L 118.015,-254.286 L 118.129,-254.529 L 118.273,-254.755
 L 118.443,-254.962 L 118.639,-255.145 L 118.856,-255.303 L 119.091,-255.432 L 119.34,-255.531 L 119.6,-255.597
 L 119.866,-255.631 L 120.134,-255.631 L 120.4,-255.597 L 120.66,-255.531 L 120.909,-255.432 L 121.144,-255.303
 L 121.361,-255.145 L 121.557,-254.962 L 121.727,-254.755 L 121.871,-254.529 L 121.985,-254.286 L 122.068,-254.031
 L 122.118,-253.768 L 122.135,-253.5 L 122.118,-253.232 L 122.068,-252.969 L 121.985,-252.714 L 121.871,-252.471
 L 121.727,-252.245 L 121.557,-252.038 L 121.361,-251.855 L 121.144,-251.697 L 120.909,-251.568 L 120.66,-251.469
 L 120.4,-251.403 L 120.134,-251.369 z
" stroke="black" fill="lightgray" stroke-width="0.5"/>
</svg>
