  0
SECTION
  2
BLOCKS
  0
ENDSEC
  0
SECTION
  2
ENTITIES
  0
LINE
  8
0
 10
-141
 20
653.941
 11
-140.687
 21
653.647
  0
LINE
  8
0
 10
-140.687
 20
653.647
 11
-140.179
 21
653.278
  0
LINE
  8
0
 10
-140.179
 20
653.278
 11
-139.629
 21
652.976
  0
LINE
  8
0
 10
-139.629
 20
652.976
 11
-139.045
 21
652.745
  0
LINE
  8
0
 10
-139.045
 20
652.745
 11
-138.437
 21
652.589
  0
LINE
  8
0
 10
-138.437
 20
652.589
 11
-137.814
 21
652.51
  0
LINE
  8
0
 10
-137.814
 20
652.51
 11
137.814
 21
652.51
  0
LINE
  8
0
 10
137.814
 20
652.51
 11
138.437
 21
652.589
  0
LINE
  8
0
 10
138.437
 20
652.589
 11
139.045
 21
652.745
  0
LINE
  8
0
 10
139.045
 20
652.745
 11
139.629
 21
652.976
  0
LINE
  8
0
 10
139.629
 20
652.976
 11
140.179
 21
653.278
  0
LINE
  8
0
 10
140.179
 20
653.278
 11
140.687
 21
653.647
  0
LINE
  8
0
 10
140.687
 20
653.647
 11
141.145
 21
654.077
  0
LINE
  8
0
 10
141.145
 20
654.077
 11
141.545
 21
654.561
  0
LINE
  8
0
 10
141.545
 20
654.561
 11
141.882
 21
655.091
  0
LINE
  8
0
 10
141.882
 20
655.091
 11
142.149
 21
655.659
  0
LINE
  8
0
 10
142.149
 20
655.659
 11
142.343
 21
656.257
  0
LINE
  8
0
 10
142.343
 20
656.257
 11
142.461
 21
656.873
  0
LINE
  8
0
 10
142.461
 20
656.873
 11
142.5
 21
657.5
  0
LINE
  8
0
 10
142.5
 20
657.5
 11
142.5
 21
782.5
  0
LINE
  8
0
 10
142.5
 20
782.5
 11
142.461
 21
783.127
  0
LINE
  8
0
 10
142.461
 20
783.127
 11
142.343
 21
783.743
  0
LINE
  8
0
 10
142.343
 20
783.743
 11
142.149
 21
784.341
  0
LINE
  8
0
 10
142.149
 20
784.341
 11
141.882
 21
784.909
  0
LINE
  8
0
 10
141.882
 20
784.909
 11
141.545
 21
785.439
  0
LINE
  8
0
 10
141.545
 20
785.439
 11
141.145
 21
785.923
  0
LINE
  8
0
 10
141.145
 20
785.923
 11
140.687
 21
786.353
  0
LINE
  8
0
 10
140.687
 20
786.353
 11
140.179
 21
786.722
  0
LINE
  8
0
 10
140.179
 20
786.722
 11
139.629
 21
787.024
  0
LINE
  8
0
 10
139.629
 20
787.024
 11
139.045
 21
787.255
  0
LINE
  8
0
 10
139.045
 20
787.255
 11
138.437
 21
787.411
  0
LINE
  8
0
 10
138.437
 20
787.411
 11
137.814
 21
787.49
  0
LINE
  8
0
 10
137.814
 20
787.49
 11
-137.814
 21
787.49
  0
LINE
  8
0
 10
-137.814
 20
787.49
 11
-138.437
 21
787.411
  0
LINE
  8
0
 10
-138.437
 20
787.411
 11
-139.045
 21
787.255
  0
LINE
  8
0
 10
-139.045
 20
787.255
 11
-139.629
 21
787.024
  0
LINE
  8
0
 10
-139.629
 20
787.024
 11
-140.179
 21
786.722
  0
LINE
  8
0
 10
-140.179
 20
786.722
 11
-140.687
 21
786.353
  0
LINE
  8
0
 10
-140.687
 20
786.353
 11
-141
 21
786.059
  0
LINE
  8
0
 10
-141
 20
786.059
 11
-141
 21
787.49
  0
LINE
  8
0
 10
-141
 20
787.49
 11
-144
 21
787.49
  0
LINE
  8
0
 10
-144
 20
787.49
 11
-144
 21
652.51
  0
LINE
  8
0
 10
-144
 20
652.51
 11
-141
 21
652.51
  0
LINE
  8
0
 10
-141
 20
652.51
 11
-141
 21
653.941
  0
LINE
  8
0
 10
-137.251
 20
654.008
 11
-137.75
 21
654.071
  0
LINE
  8
0
 10
-137.75
 20
654.071
 11
-138.236
 21
654.196
  0
LINE
  8
0
 10
-138.236
 20
654.196
 11
-138.703
 21
654.381
  0
LINE
  8
0
 10
-138.703
 20
654.381
 11
-139.143
 21
654.623
  0
LINE
  8
0
 10
-139.143
 20
654.623
 11
-139.55
 21
654.918
  0
LINE
  8
0
 10
-139.55
 20
654.918
 11
-139.916
 21
655.262
  0
LINE
  8
0
 10
-139.916
 20
655.262
 11
-140.236
 21
655.649
  0
LINE
  8
0
 10
-140.236
 20
655.649
 11
-140.505
 21
656.073
  0
LINE
  8
0
 10
-140.505
 20
656.073
 11
-140.719
 21
656.528
  0
LINE
  8
0
 10
-140.719
 20
656.528
 11
-140.874
 21
657.005
  0
LINE
  8
0
 10
-140.874
 20
657.005
 11
-140.968
 21
657.499
  0
LINE
  8
0
 10
-140.968
 20
657.499
 11
-141
 21
658
  0
LINE
  8
0
 10
-141
 20
658
 11
-141
 21
782
  0
LINE
  8
0
 10
-141
 20
782
 11
-140.968
 21
782.501
  0
LINE
  8
0
 10
-140.968
 20
782.501
 11
-140.874
 21
782.995
  0
LINE
  8
0
 10
-140.874
 20
782.995
 11
-140.719
 21
783.472
  0
LINE
  8
0
 10
-140.719
 20
783.472
 11
-140.505
 21
783.927
  0
LINE
  8
0
 10
-140.505
 20
783.927
 11
-140.236
 21
784.351
  0
LINE
  8
0
 10
-140.236
 20
784.351
 11
-139.916
 21
784.738
  0
LINE
  8
0
 10
-139.916
 20
784.738
 11
-139.55
 21
785.082
  0
LINE
  8
0
 10
-139.55
 20
785.082
 11
-139.143
 21
785.377
  0
LINE
  8
0
 10
-139.143
 20
785.377
 11
-138.703
 21
785.619
  0
LINE
  8
0
 10
-138.703
 20
785.619
 11
-138.236
 21
785.804
  0
LINE
  8
0
 10
-138.236
 20
785.804
 11
-137.75
 21
785.929
  0
LINE
  8
0
 10
-137.75
 20
785.929
 11
-137.251
 21
785.992
  0
LINE
  8
0
 10
-137.251
 20
785.992
 11
137.251
 21
785.992
  0
LINE
  8
0
 10
137.251
 20
785.992
 11
137.75
 21
785.929
  0
LINE
  8
0
 10
137.75
 20
785.929
 11
138.236
 21
785.804
  0
LINE
  8
0
 10
138.236
 20
785.804
 11
138.703
 21
785.619
  0
LINE
  8
0
 10
138.703
 20
785.619
 11
139.143
 21
785.377
  0
LINE
  8
0
 10
139.143
 20
785.377
 11
139.55
 21
785.082
  0
LINE
  8
0
 10
139.55
 20
785.082
 11
139.916
 21
784.738
  0
LINE
  8
0
 10
139.916
 20
784.738
 11
140.236
 21
784.351
  0
LINE
  8
0
 10
140.236
 20
784.351
 11
140.505
 21
783.927
  0
LINE
  8
0
 10
140.505
 20
783.927
 11
140.719
 21
783.472
  0
LINE
  8
0
 10
140.719
 20
783.472
 11
140.874
 21
782.995
  0
LINE
  8
0
 10
140.874
 20
782.995
 11
140.968
 21
782.501
  0
LINE
  8
0
 10
140.968
 20
782.501
 11
141
 21
782
  0
LINE
  8
0
 10
141
 20
782
 11
141
 21
658
  0
LINE
  8
0
 10
141
 20
658
 11
140.968
 21
657.499
  0
LINE
  8
0
 10
140.968
 20
657.499
 11
140.874
 21
657.005
  0
LINE
  8
0
 10
140.874
 20
657.005
 11
140.719
 21
656.528
  0
LINE
  8
0
 10
140.719
 20
656.528
 11
140.505
 21
656.073
  0
LINE
  8
0
 10
140.505
 20
656.073
 11
140.236
 21
655.649
  0
LINE
  8
0
 10
140.236
 20
655.649
 11
139.916
 21
655.262
  0
LINE
  8
0
 10
139.916
 20
655.262
 11
139.55
 21
654.918
  0
LINE
  8
0
 10
139.55
 20
654.918
 11
139.143
 21
654.623
  0
LINE
  8
0
 10
139.143
 20
654.623
 11
138.703
 21
654.381
  0
LINE
  8
0
 10
138.703
 20
654.381
 11
138.236
 21
654.196
  0
LINE
  8
0
 10
138.236
 20
654.196
 11
137.75
 21
654.071
  0
LINE
  8
0
 10
137.75
 20
654.071
 11
137.251
 21
654.008
  0
LINE
  8
0
 10
137.251
 20
654.008
 11
-137.251
 21
654.008
  0
LINE
  8
0
 10
138.437
 20
508.589
 11
139.045
 21
508.745
  0
LINE
  8
0
 10
139.045
 20
508.745
 11
139.629
 21
508.976
  0
LINE
  8
0
 10
139.629
 20
508.976
 11
140.179
 21
509.278
  0
LINE
  8
0
 10
140.179
 20
509.278
 11
140.687
 21
509.647
  0
LINE
  8
0
 10
140.687
 20
509.647
 11
141.145
 21
510.077
  0
LINE
  8
0
 10
141.145
 20
510.077
 11
141.545
 21
510.561
  0
LINE
  8
0
 10
141.545
 20
510.561
 11
141.882
 21
511.091
  0
LINE
  8
0
 10
141.882
 20
511.091
 11
142.149
 21
511.659
  0
LINE
  8
0
 10
142.149
 20
511.659
 11
142.343
 21
512.257
  0
LINE
  8
0
 10
142.343
 20
512.257
 11
142.461
 21
512.873
  0
LINE
  8
0
 10
142.461
 20
512.873
 11
142.5
 21
513.5
  0
LINE
  8
0
 10
142.5
 20
513.5
 11
142.5
 21
638.5
  0
LINE
  8
0
 10
142.5
 20
638.5
 11
142.461
 21
639.127
  0
LINE
  8
0
 10
142.461
 20
639.127
 11
142.343
 21
639.743
  0
LINE
  8
0
 10
142.343
 20
639.743
 11
142.149
 21
640.341
  0
LINE
  8
0
 10
142.149
 20
640.341
 11
141.882
 21
640.909
  0
LINE
  8
0
 10
141.882
 20
640.909
 11
141.545
 21
641.439
  0
LINE
  8
0
 10
141.545
 20
641.439
 11
141.145
 21
641.923
  0
LINE
  8
0
 10
141.145
 20
641.923
 11
140.687
 21
642.353
  0
LINE
  8
0
 10
140.687
 20
642.353
 11
140.179
 21
642.722
  0
LINE
  8
0
 10
140.179
 20
642.722
 11
139.629
 21
643.024
  0
LINE
  8
0
 10
139.629
 20
643.024
 11
139.045
 21
643.255
  0
LINE
  8
0
 10
139.045
 20
643.255
 11
138.437
 21
643.411
  0
LINE
  8
0
 10
138.437
 20
643.411
 11
137.814
 21
643.49
  0
LINE
  8
0
 10
137.814
 20
643.49
 11
-137.814
 21
643.49
  0
LINE
  8
0
 10
-137.814
 20
643.49
 11
-138.437
 21
643.411
  0
LINE
  8
0
 10
-138.437
 20
643.411
 11
-139.045
 21
643.255
  0
LINE
  8
0
 10
-139.045
 20
643.255
 11
-139.629
 21
643.024
  0
LINE
  8
0
 10
-139.629
 20
643.024
 11
-140.179
 21
642.722
  0
LINE
  8
0
 10
-140.179
 20
642.722
 11
-140.687
 21
642.353
  0
LINE
  8
0
 10
-140.687
 20
642.353
 11
-141
 21
642.059
  0
LINE
  8
0
 10
-141
 20
642.059
 11
-141
 21
643.479
  0
LINE
  8
0
 10
-141
 20
643.479
 11
-144
 21
643.479
  0
LINE
  8
0
 10
-144
 20
643.479
 11
-144
 21
508.521
  0
LINE
  8
0
 10
-144
 20
508.521
 11
-141
 21
508.521
  0
LINE
  8
0
 10
-141
 20
508.521
 11
-141
 21
509.941
  0
LINE
  8
0
 10
-141
 20
509.941
 11
-140.687
 21
509.647
  0
LINE
  8
0
 10
-140.687
 20
509.647
 11
-140.179
 21
509.278
  0
LINE
  8
0
 10
-140.179
 20
509.278
 11
-139.629
 21
508.976
  0
LINE
  8
0
 10
-139.629
 20
508.976
 11
-139.045
 21
508.745
  0
LINE
  8
0
 10
-139.045
 20
508.745
 11
-138.437
 21
508.589
  0
LINE
  8
0
 10
-138.437
 20
508.589
 11
-137.814
 21
508.51
  0
LINE
  8
0
 10
-137.814
 20
508.51
 11
137.814
 21
508.51
  0
LINE
  8
0
 10
137.814
 20
508.51
 11
138.437
 21
508.589
  0
LINE
  8
0
 10
-137.195
 20
510.893
 11
-137.583
 21
510.942
  0
LINE
  8
0
 10
-137.583
 20
510.942
 11
-137.962
 21
511.039
  0
LINE
  8
0
 10
-137.962
 20
511.039
 11
-138.325
 21
511.183
  0
LINE
  8
0
 10
-138.325
 20
511.183
 11
-138.668
 21
511.372
  0
LINE
  8
0
 10
-138.668
 20
511.372
 11
-138.984
 21
511.601
  0
LINE
  8
0
 10
-138.984
 20
511.601
 11
-139.269
 21
511.869
  0
LINE
  8
0
 10
-139.269
 20
511.869
 11
-139.518
 21
512.17
  0
LINE
  8
0
 10
-139.518
 20
512.17
 11
-139.728
 21
512.5
  0
LINE
  8
0
 10
-139.728
 20
512.5
 11
-139.894
 21
512.854
  0
LINE
  8
0
 10
-139.894
 20
512.854
 11
-140.015
 21
513.226
  0
LINE
  8
0
 10
-140.015
 20
513.226
 11
-140.088
 21
513.61
  0
LINE
  8
0
 10
-140.088
 20
513.61
 11
-140.113
 21
514
  0
LINE
  8
0
 10
-140.113
 20
514
 11
-140.113
 21
638
  0
LINE
  8
0
 10
-140.113
 20
638
 11
-140.088
 21
638.39
  0
LINE
  8
0
 10
-140.088
 20
638.39
 11
-140.015
 21
638.774
  0
LINE
  8
0
 10
-140.015
 20
638.774
 11
-139.894
 21
639.146
  0
LINE
  8
0
 10
-139.894
 20
639.146
 11
-139.728
 21
639.5
  0
LINE
  8
0
 10
-139.728
 20
639.5
 11
-139.518
 21
639.83
  0
LINE
  8
0
 10
-139.518
 20
639.83
 11
-139.269
 21
640.131
  0
LINE
  8
0
 10
-139.269
 20
640.131
 11
-138.984
 21
640.399
  0
LINE
  8
0
 10
-138.984
 20
640.399
 11
-138.668
 21
640.628
  0
LINE
  8
0
 10
-138.668
 20
640.628
 11
-138.325
 21
640.817
  0
LINE
  8
0
 10
-138.325
 20
640.817
 11
-137.962
 21
640.961
  0
LINE
  8
0
 10
-137.962
 20
640.961
 11
-137.583
 21
641.058
  0
LINE
  8
0
 10
-137.583
 20
641.058
 11
-137.195
 21
641.107
  0
LINE
  8
0
 10
-137.195
 20
641.107
 11
137.195
 21
641.107
  0
LINE
  8
0
 10
137.195
 20
641.107
 11
137.583
 21
641.058
  0
LINE
  8
0
 10
137.583
 20
641.058
 11
137.962
 21
640.961
  0
LINE
  8
0
 10
137.962
 20
640.961
 11
138.325
 21
640.817
  0
LINE
  8
0
 10
138.325
 20
640.817
 11
138.668
 21
640.628
  0
LINE
  8
0
 10
138.668
 20
640.628
 11
138.984
 21
640.399
  0
LINE
  8
0
 10
138.984
 20
640.399
 11
139.269
 21
640.131
  0
LINE
  8
0
 10
139.269
 20
640.131
 11
139.518
 21
639.83
  0
LINE
  8
0
 10
139.518
 20
639.83
 11
139.728
 21
639.5
  0
LINE
  8
0
 10
139.728
 20
639.5
 11
139.894
 21
639.146
  0
LINE
  8
0
 10
139.894
 20
639.146
 11
140.015
 21
638.774
  0
LINE
  8
0
 10
140.015
 20
638.774
 11
140.088
 21
638.39
  0
LINE
  8
0
 10
140.088
 20
638.39
 11
140.113
 21
638
  0
LINE
  8
0
 10
140.113
 20
638
 11
140.113
 21
514
  0
LINE
  8
0
 10
140.113
 20
514
 11
140.088
 21
513.61
  0
LINE
  8
0
 10
140.088
 20
513.61
 11
140.015
 21
513.226
  0
LINE
  8
0
 10
140.015
 20
513.226
 11
139.894
 21
512.854
  0
LINE
  8
0
 10
139.894
 20
512.854
 11
139.728
 21
512.5
  0
LINE
  8
0
 10
139.728
 20
512.5
 11
139.518
 21
512.17
  0
LINE
  8
0
 10
139.518
 20
512.17
 11
139.269
 21
511.869
  0
LINE
  8
0
 10
139.269
 20
511.869
 11
138.984
 21
511.601
  0
LINE
  8
0
 10
138.984
 20
511.601
 11
138.668
 21
511.372
  0
LINE
  8
0
 10
138.668
 20
511.372
 11
138.325
 21
511.183
  0
LINE
  8
0
 10
138.325
 20
511.183
 11
137.962
 21
511.039
  0
LINE
  8
0
 10
137.962
 20
511.039
 11
137.583
 21
510.942
  0
LINE
  8
0
 10
137.583
 20
510.942
 11
137.195
 21
510.893
  0
LINE
  8
0
 10
137.195
 20
510.893
 11
-137.195
 21
510.893
  0
LINE
  8
0
 10
138.437
 20
364.589
 11
139.045
 21
364.745
  0
LINE
  8
0
 10
139.045
 20
364.745
 11
139.629
 21
364.976
  0
LINE
  8
0
 10
139.629
 20
364.976
 11
140.179
 21
365.278
  0
LINE
  8
0
 10
140.179
 20
365.278
 11
140.687
 21
365.647
  0
LINE
  8
0
 10
140.687
 20
365.647
 11
141.145
 21
366.077
  0
LINE
  8
0
 10
141.145
 20
366.077
 11
141.545
 21
366.561
  0
LINE
  8
0
 10
141.545
 20
366.561
 11
141.882
 21
367.091
  0
LINE
  8
0
 10
141.882
 20
367.091
 11
142.149
 21
367.659
  0
LINE
  8
0
 10
142.149
 20
367.659
 11
142.343
 21
368.257
  0
LINE
  8
0
 10
142.343
 20
368.257
 11
142.461
 21
368.873
  0
LINE
  8
0
 10
142.461
 20
368.873
 11
142.5
 21
369.5
  0
LINE
  8
0
 10
142.5
 20
369.5
 11
142.5
 21
494.5
  0
LINE
  8
0
 10
142.5
 20
494.5
 11
142.461
 21
495.127
  0
LINE
  8
0
 10
142.461
 20
495.127
 11
142.343
 21
495.743
  0
LINE
  8
0
 10
142.343
 20
495.743
 11
142.149
 21
496.341
  0
LINE
  8
0
 10
142.149
 20
496.341
 11
141.882
 21
496.909
  0
LINE
  8
0
 10
141.882
 20
496.909
 11
141.545
 21
497.439
  0
LINE
  8
0
 10
141.545
 20
497.439
 11
141.145
 21
497.923
  0
LINE
  8
0
 10
141.145
 20
497.923
 11
140.687
 21
498.353
  0
LINE
  8
0
 10
140.687
 20
498.353
 11
140.179
 21
498.722
  0
LINE
  8
0
 10
140.179
 20
498.722
 11
139.629
 21
499.024
  0
LINE
  8
0
 10
139.629
 20
499.024
 11
139.045
 21
499.255
  0
LINE
  8
0
 10
139.045
 20
499.255
 11
138.437
 21
499.411
  0
LINE
  8
0
 10
138.437
 20
499.411
 11
137.814
 21
499.49
  0
LINE
  8
0
 10
137.814
 20
499.49
 11
-137.814
 21
499.49
  0
LINE
  8
0
 10
-137.814
 20
499.49
 11
-138.437
 21
499.411
  0
LINE
  8
0
 10
-138.437
 20
499.411
 11
-139.045
 21
499.255
  0
LINE
  8
0
 10
-139.045
 20
499.255
 11
-139.629
 21
499.024
  0
LINE
  8
0
 10
-139.629
 20
499.024
 11
-140.179
 21
498.722
  0
LINE
  8
0
 10
-140.179
 20
498.722
 11
-140.687
 21
498.353
  0
LINE
  8
0
 10
-140.687
 20
498.353
 11
-141
 21
498.059
  0
LINE
  8
0
 10
-141
 20
498.059
 11
-141
 21
498.153
  0
LINE
  8
0
 10
-141
 20
498.153
 11
-144
 21
498.153
  0
LINE
  8
0
 10
-144
 20
498.153
 11
-144
 21
365.847
  0
LINE
  8
0
 10
-144
 20
365.847
 11
-141
 21
365.847
  0
LINE
  8
0
 10
-141
 20
365.847
 11
-141
 21
365.941
  0
LINE
  8
0
 10
-141
 20
365.941
 11
-140.687
 21
365.647
  0
LINE
  8
0
 10
-140.687
 20
365.647
 11
-140.179
 21
365.278
  0
LINE
  8
0
 10
-140.179
 20
365.278
 11
-139.629
 21
364.976
  0
LINE
  8
0
 10
-139.629
 20
364.976
 11
-139.045
 21
364.745
  0
LINE
  8
0
 10
-139.045
 20
364.745
 11
-138.437
 21
364.589
  0
LINE
  8
0
 10
-138.437
 20
364.589
 11
-137.814
 21
364.51
  0
LINE
  8
0
 10
-137.814
 20
364.51
 11
137.814
 21
364.51
  0
LINE
  8
0
 10
137.814
 20
364.51
 11
138.437
 21
364.589
  0
LINE
  8
0
 10
134.866
 20
489.869
 11
134.6
 21
489.903
  0
LINE
  8
0
 10
134.6
 20
489.903
 11
134.34
 21
489.969
  0
LINE
  8
0
 10
134.34
 20
489.969
 11
134.091
 21
490.068
  0
LINE
  8
0
 10
134.091
 20
490.068
 11
133.856
 21
490.197
  0
LINE
  8
0
 10
133.856
 20
490.197
 11
133.639
 21
490.355
  0
LINE
  8
0
 10
133.639
 20
490.355
 11
133.443
 21
490.538
  0
LINE
  8
0
 10
133.443
 20
490.538
 11
133.273
 21
490.745
  0
LINE
  8
0
 10
133.273
 20
490.745
 11
133.129
 21
490.971
  0
LINE
  8
0
 10
133.129
 20
490.971
 11
133.015
 21
491.214
  0
LINE
  8
0
 10
133.015
 20
491.214
 11
132.932
 21
491.469
  0
LINE
  8
0
 10
132.932
 20
491.469
 11
132.882
 21
491.732
  0
LINE
  8
0
 10
132.882
 20
491.732
 11
132.865
 21
492
  0
LINE
  8
0
 10
132.865
 20
492
 11
132.882
 21
492.268
  0
LINE
  8
0
 10
132.882
 20
492.268
 11
132.932
 21
492.531
  0
LINE
  8
0
 10
132.932
 20
492.531
 11
133.015
 21
492.786
  0
LINE
  8
0
 10
133.015
 20
492.786
 11
133.129
 21
493.029
  0
LINE
  8
0
 10
133.129
 20
493.029
 11
133.273
 21
493.255
  0
LINE
  8
0
 10
133.273
 20
493.255
 11
133.443
 21
493.462
  0
LINE
  8
0
 10
133.443
 20
493.462
 11
133.639
 21
493.645
  0
LINE
  8
0
 10
133.639
 20
493.645
 11
133.856
 21
493.803
  0
LINE
  8
0
 10
133.856
 20
493.803
 11
134.091
 21
493.932
  0
LINE
  8
0
 10
134.091
 20
493.932
 11
134.34
 21
494.031
  0
LINE
  8
0
 10
134.34
 20
494.031
 11
134.6
 21
494.097
  0
LINE
  8
0
 10
134.6
 20
494.097
 11
134.866
 21
494.131
  0
LINE
  8
0
 10
134.866
 20
494.131
 11
135.134
 21
494.131
  0
LINE
  8
0
 10
135.134
 20
494.131
 11
135.4
 21
494.097
  0
LINE
  8
0
 10
135.4
 20
494.097
 11
135.66
 21
494.031
  0
LINE
  8
0
 10
135.66
 20
494.031
 11
135.909
 21
493.932
  0
LINE
  8
0
 10
135.909
 20
493.932
 11
136.144
 21
493.803
  0
LINE
  8
0
 10
136.144
 20
493.803
 11
136.361
 21
493.645
  0
LINE
  8
0
 10
136.361
 20
493.645
 11
136.557
 21
493.462
  0
LINE
  8
0
 10
136.557
 20
493.462
 11
136.727
 21
493.255
  0
LINE
  8
0
 10
136.727
 20
493.255
 11
136.871
 21
493.029
  0
LINE
  8
0
 10
136.871
 20
493.029
 11
136.985
 21
492.786
  0
LINE
  8
0
 10
136.985
 20
492.786
 11
137.068
 21
492.531
  0
LINE
  8
0
 10
137.068
 20
492.531
 11
137.118
 21
492.268
  0
LINE
  8
0
 10
137.118
 20
492.268
 11
137.135
 21
492
  0
LINE
  8
0
 10
137.135
 20
492
 11
137.118
 21
491.732
  0
LINE
  8
0
 10
137.118
 20
491.732
 11
137.068
 21
491.469
  0
LINE
  8
0
 10
137.068
 20
491.469
 11
136.985
 21
491.214
  0
LINE
  8
0
 10
136.985
 20
491.214
 11
136.871
 21
490.971
  0
LINE
  8
0
 10
136.871
 20
490.971
 11
136.727
 21
490.745
  0
LINE
  8
0
 10
136.727
 20
490.745
 11
136.557
 21
490.538
  0
LINE
  8
0
 10
136.557
 20
490.538
 11
136.361
 21
490.355
  0
LINE
  8
0
 10
136.361
 20
490.355
 11
136.144
 21
490.197
  0
LINE
  8
0
 10
136.144
 20
490.197
 11
135.909
 21
490.068
  0
LINE
  8
0
 10
135.909
 20
490.068
 11
135.66
 21
489.969
  0
LINE
  8
0
 10
135.66
 20
489.969
 11
135.4
 21
489.903
  0
LINE
  8
0
 10
135.4
 20
489.903
 11
135.134
 21
489.869
  0
LINE
  8
0
 10
135.134
 20
489.869
 11
134.866
 21
489.869
  0
LINE
  8
0
 10
-135.134
 20
489.869
 11
-135.4
 21
489.903
  0
LINE
  8
0
 10
-135.4
 20
489.903
 11
-135.66
 21
489.969
  0
LINE
  8
0
 10
-135.66
 20
489.969
 11
-135.909
 21
490.068
  0
LINE
  8
0
 10
-135.909
 20
490.068
 11
-136.144
 21
490.197
  0
LINE
  8
0
 10
-136.144
 20
490.197
 11
-136.361
 21
490.355
  0
LINE
  8
0
 10
-136.361
 20
490.355
 11
-136.557
 21
490.538
  0
LINE
  8
0
 10
-136.557
 20
490.538
 11
-136.727
 21
490.745
  0
LINE
  8
0
 10
-136.727
 20
490.745
 11
-136.871
 21
490.971
  0
LINE
  8
0
 10
-136.871
 20
490.971
 11
-136.985
 21
491.214
  0
LINE
  8
0
 10
-136.985
 20
491.214
 11
-137.068
 21
491.469
  0
LINE
  8
0
 10
-137.068
 20
491.469
 11
-137.118
 21
491.732
  0
LINE
  8
0
 10
-137.118
 20
491.732
 11
-137.135
 21
492
  0
LINE
  8
0
 10
-137.135
 20
492
 11
-137.118
 21
492.268
  0
LINE
  8
0
 10
-137.118
 20
492.268
 11
-137.068
 21
492.531
  0
LINE
  8
0
 10
-137.068
 20
492.531
 11
-136.985
 21
492.786
  0
LINE
  8
0
 10
-136.985
 20
492.786
 11
-136.871
 21
493.029
  0
LINE
  8
0
 10
-136.871
 20
493.029
 11
-136.727
 21
493.255
  0
LINE
  8
0
 10
-136.727
 20
493.255
 11
-136.557
 21
493.462
  0
LINE
  8
0
 10
-136.557
 20
493.462
 11
-136.361
 21
493.645
  0
LINE
  8
0
 10
-136.361
 20
493.645
 11
-136.144
 21
493.803
  0
LINE
  8
0
 10
-136.144
 20
493.803
 11
-135.909
 21
493.932
  0
LINE
  8
0
 10
-135.909
 20
493.932
 11
-135.66
 21
494.031
  0
LINE
  8
0
 10
-135.66
 20
494.031
 11
-135.4
 21
494.097
  0
LINE
  8
0
 10
-135.4
 20
494.097
 11
-135.134
 21
494.131
  0
LINE
  8
0
 10
-135.134
 20
494.131
 11
-134.866
 21
494.131
  0
LINE
  8
0
 10
-134.866
 20
494.131
 11
-134.6
 21
494.097
  0
LINE
  8
0
 10
-134.6
 20
494.097
 11
-134.34
 21
494.031
  0
LINE
  8
0
 10
-134.34
 20
494.031
 11
-134.091
 21
493.932
  0
LINE
  8
0
 10
-134.091
 20
493.932
 11
-133.856
 21
493.803
  0
LINE
  8
0
 10
-133.856
 20
493.803
 11
-133.639
 21
493.645
  0
LINE
  8
0
 10
-133.639
 20
493.645
 11
-133.443
 21
493.462
  0
LINE
  8
0
 10
-133.443
 20
493.462
 11
-133.273
 21
493.255
  0
LINE
  8
0
 10
-133.273
 20
493.255
 11
-133.129
 21
493.029
  0
LINE
  8
0
 10
-133.129
 20
493.029
 11
-133.015
 21
492.786
  0
LINE
  8
0
 10
-133.015
 20
492.786
 11
-132.932
 21
492.531
  0
LINE
  8
0
 10
-132.932
 20
492.531
 11
-132.882
 21
492.268
  0
LINE
  8
0
 10
-132.882
 20
492.268
 11
-132.865
 21
492
  0
LINE
  8
0
 10
-132.865
 20
492
 11
-132.882
 21
491.732
  0
LINE
  8
0
 10
-132.882
 20
491.732
 11
-132.932
 21
491.469
  0
LINE
  8
0
 10
-132.932
 20
491.469
 11
-133.015
 21
491.214
  0
LINE
  8
0
 10
-133.015
 20
491.214
 11
-133.129
 21
490.971
  0
LINE
  8
0
 10
-133.129
 20
490.971
 11
-133.273
 21
490.745
  0
LINE
  8
0
 10
-133.273
 20
490.745
 11
-133.443
 21
490.538
  0
LINE
  8
0
 10
-133.443
 20
490.538
 11
-133.639
 21
490.355
  0
LINE
  8
0
 10
-133.639
 20
490.355
 11
-133.856
 21
490.197
  0
LINE
  8
0
 10
-133.856
 20
490.197
 11
-134.091
 21
490.068
  0
LINE
  8
0
 10
-134.091
 20
490.068
 11
-134.34
 21
489.969
  0
LINE
  8
0
 10
-134.34
 20
489.969
 11
-134.6
 21
489.903
  0
LINE
  8
0
 10
-134.6
 20
489.903
 11
-134.866
 21
489.869
  0
LINE
  8
0
 10
-134.866
 20
489.869
 11
-135.134
 21
489.869
  0
LINE
  8
0
 10
134.866
 20
369.869
 11
134.6
 21
369.903
  0
LINE
  8
0
 10
134.6
 20
369.903
 11
134.34
 21
369.969
  0
LINE
  8
0
 10
134.34
 20
369.969
 11
134.091
 21
370.068
  0
LINE
  8
0
 10
134.091
 20
370.068
 11
133.856
 21
370.197
  0
LINE
  8
0
 10
133.856
 20
370.197
 11
133.639
 21
370.355
  0
LINE
  8
0
 10
133.639
 20
370.355
 11
133.443
 21
370.538
  0
LINE
  8
0
 10
133.443
 20
370.538
 11
133.273
 21
370.745
  0
LINE
  8
0
 10
133.273
 20
370.745
 11
133.129
 21
370.971
  0
LINE
  8
0
 10
133.129
 20
370.971
 11
133.015
 21
371.214
  0
LINE
  8
0
 10
133.015
 20
371.214
 11
132.932
 21
371.469
  0
LINE
  8
0
 10
132.932
 20
371.469
 11
132.882
 21
371.732
  0
LINE
  8
0
 10
132.882
 20
371.732
 11
132.865
 21
372
  0
LINE
  8
0
 10
132.865
 20
372
 11
132.882
 21
372.268
  0
LINE
  8
0
 10
132.882
 20
372.268
 11
132.932
 21
372.531
  0
LINE
  8
0
 10
132.932
 20
372.531
 11
133.015
 21
372.786
  0
LINE
  8
0
 10
133.015
 20
372.786
 11
133.129
 21
373.029
  0
LINE
  8
0
 10
133.129
 20
373.029
 11
133.273
 21
373.255
  0
LINE
  8
0
 10
133.273
 20
373.255
 11
133.443
 21
373.462
  0
LINE
  8
0
 10
133.443
 20
373.462
 11
133.639
 21
373.645
  0
LINE
  8
0
 10
133.639
 20
373.645
 11
133.856
 21
373.803
  0
LINE
  8
0
 10
133.856
 20
373.803
 11
134.091
 21
373.932
  0
LINE
  8
0
 10
134.091
 20
373.932
 11
134.34
 21
374.031
  0
LINE
  8
0
 10
134.34
 20
374.031
 11
134.6
 21
374.097
  0
LINE
  8
0
 10
134.6
 20
374.097
 11
134.866
 21
374.131
  0
LINE
  8
0
 10
134.866
 20
374.131
 11
135.134
 21
374.131
  0
LINE
  8
0
 10
135.134
 20
374.131
 11
135.4
 21
374.097
  0
LINE
  8
0
 10
135.4
 20
374.097
 11
135.66
 21
374.031
  0
LINE
  8
0
 10
135.66
 20
374.031
 11
135.909
 21
373.932
  0
LINE
  8
0
 10
135.909
 20
373.932
 11
136.144
 21
373.803
  0
LINE
  8
0
 10
136.144
 20
373.803
 11
136.361
 21
373.645
  0
LINE
  8
0
 10
136.361
 20
373.645
 11
136.557
 21
373.462
  0
LINE
  8
0
 10
136.557
 20
373.462
 11
136.727
 21
373.255
  0
LINE
  8
0
 10
136.727
 20
373.255
 11
136.871
 21
373.029
  0
LINE
  8
0
 10
136.871
 20
373.029
 11
136.985
 21
372.786
  0
LINE
  8
0
 10
136.985
 20
372.786
 11
137.068
 21
372.531
  0
LINE
  8
0
 10
137.068
 20
372.531
 11
137.118
 21
372.268
  0
LINE
  8
0
 10
137.118
 20
372.268
 11
137.135
 21
372
  0
LINE
  8
0
 10
137.135
 20
372
 11
137.118
 21
371.732
  0
LINE
  8
0
 10
137.118
 20
371.732
 11
137.068
 21
371.469
  0
LINE
  8
0
 10
137.068
 20
371.469
 11
136.985
 21
371.214
  0
LINE
  8
0
 10
136.985
 20
371.214
 11
136.871
 21
370.971
  0
LINE
  8
0
 10
136.871
 20
370.971
 11
136.727
 21
370.745
  0
LINE
  8
0
 10
136.727
 20
370.745
 11
136.557
 21
370.538
  0
LINE
  8
0
 10
136.557
 20
370.538
 11
136.361
 21
370.355
  0
LINE
  8
0
 10
136.361
 20
370.355
 11
136.144
 21
370.197
  0
LINE
  8
0
 10
136.144
 20
370.197
 11
135.909
 21
370.068
  0
LINE
  8
0
 10
135.909
 20
370.068
 11
135.66
 21
369.969
  0
LINE
  8
0
 10
135.66
 20
369.969
 11
135.4
 21
369.903
  0
LINE
  8
0
 10
135.4
 20
369.903
 11
135.134
 21
369.869
  0
LINE
  8
0
 10
135.134
 20
369.869
 11
134.866
 21
369.869
  0
LINE
  8
0
 10
-135.134
 20
369.869
 11
-135.4
 21
369.903
  0
LINE
  8
0
 10
-135.4
 20
369.903
 11
-135.66
 21
369.969
  0
LINE
  8
0
 10
-135.66
 20
369.969
 11
-135.909
 21
370.068
  0
LINE
  8
0
 10
-135.909
 20
370.068
 11
-136.144
 21
370.197
  0
LINE
  8
0
 10
-136.144
 20
370.197
 11
-136.361
 21
370.355
  0
LINE
  8
0
 10
-136.361
 20
370.355
 11
-136.557
 21
370.538
  0
LINE
  8
0
 10
-136.557
 20
370.538
 11
-136.727
 21
370.745
  0
LINE
  8
0
 10
-136.727
 20
370.745
 11
-136.871
 21
370.971
  0
LINE
  8
0
 10
-136.871
 20
370.971
 11
-136.985
 21
371.214
  0
LINE
  8
0
 10
-136.985
 20
371.214
 11
-137.068
 21
371.469
  0
LINE
  8
0
 10
-137.068
 20
371.469
 11
-137.118
 21
371.732
  0
LINE
  8
0
 10
-137.118
 20
371.732
 11
-137.135
 21
372
  0
LINE
  8
0
 10
-137.135
 20
372
 11
-137.118
 21
372.268
  0
LINE
  8
0
 10
-137.118
 20
372.268
 11
-137.068
 21
372.531
  0
LINE
  8
0
 10
-137.068
 20
372.531
 11
-136.985
 21
372.786
  0
LINE
  8
0
 10
-136.985
 20
372.786
 11
-136.871
 21
373.029
  0
LINE
  8
0
 10
-136.871
 20
373.029
 11
-136.727
 21
373.255
  0
LINE
  8
0
 10
-136.727
 20
373.255
 11
-136.557
 21
373.462
  0
LINE
  8
0
 10
-136.557
 20
373.462
 11
-136.361
 21
373.645
  0
LINE
  8
0
 10
-136.361
 20
373.645
 11
-136.144
 21
373.803
  0
LINE
  8
0
 10
-136.144
 20
373.803
 11
-135.909
 21
373.932
  0
LINE
  8
0
 10
-135.909
 20
373.932
 11
-135.66
 21
374.031
  0
LINE
  8
0
 10
-135.66
 20
374.031
 11
-135.4
 21
374.097
  0
LINE
  8
0
 10
-135.4
 20
374.097
 11
-135.134
 21
374.131
  0
LINE
  8
0
 10
-135.134
 20
374.131
 11
-134.866
 21
374.131
  0
LINE
  8
0
 10
-134.866
 20
374.131
 11
-134.6
 21
374.097
  0
LINE
  8
0
 10
-134.6
 20
374.097
 11
-134.34
 21
374.031
  0
LINE
  8
0
 10
-134.34
 20
374.031
 11
-134.091
 21
373.932
  0
LINE
  8
0
 10
-134.091
 20
373.932
 11
-133.856
 21
373.803
  0
LINE
  8
0
 10
-133.856
 20
373.803
 11
-133.639
 21
373.645
  0
LINE
  8
0
 10
-133.639
 20
373.645
 11
-133.443
 21
373.462
  0
LINE
  8
0
 10
-133.443
 20
373.462
 11
-133.273
 21
373.255
  0
LINE
  8
0
 10
-133.273
 20
373.255
 11
-133.129
 21
373.029
  0
LINE
  8
0
 10
-133.129
 20
373.029
 11
-133.015
 21
372.786
  0
LINE
  8
0
 10
-133.015
 20
372.786
 11
-132.932
 21
372.531
  0
LINE
  8
0
 10
-132.932
 20
372.531
 11
-132.882
 21
372.268
  0
LINE
  8
0
 10
-132.882
 20
372.268
 11
-132.865
 21
372
  0
LINE
  8
0
 10
-132.865
 20
372
 11
-132.882
 21
371.732
  0
LINE
  8
0
 10
-132.882
 20
371.732
 11
-132.932
 21
371.469
  0
LINE
  8
0
 10
-132.932
 20
371.469
 11
-133.015
 21
371.214
  0
LINE
  8
0
 10
-133.015
 20
371.214
 11
-133.129
 21
370.971
  0
LINE
  8
0
 10
-133.129
 20
370.971
 11
-133.273
 21
370.745
  0
LINE
  8
0
 10
-133.273
 20
370.745
 11
-133.443
 21
370.538
  0
LINE
  8
0
 10
-133.443
 20
370.538
 11
-133.639
 21
370.355
  0
LINE
  8
0
 10
-133.639
 20
370.355
 11
-133.856
 21
370.197
  0
LINE
  8
0
 10
-133.856
 20
370.197
 11
-134.091
 21
370.068
  0
LINE
  8
0
 10
-134.091
 20
370.068
 11
-134.34
 21
369.969
  0
LINE
  8
0
 10
-134.34
 20
369.969
 11
-134.6
 21
369.903
  0
LINE
  8
0
 10
-134.6
 20
369.903
 11
-134.866
 21
369.869
  0
LINE
  8
0
 10
-134.866
 20
369.869
 11
-135.134
 21
369.869
  0
ENDSEC
  0
SECTION
  2
OBJECTS
  0
DICTIONARY
  0
ENDSEC
  0
EOF
