<?xml version="1.0" standalone="no"?>
<!DOCTYPE svg PUBLIC "-//W3C//DTD SVG 1.1//EN" "http://www.w3.org/Graphics/SVG/1.1/DTD/svg11.dtd">
<svg width="287mm" height="424mm" viewBox="-144 -788 287 424" xmlns="http://www.w3.org/2000/svg" version="1.1">
<title>OpenSCAD Model</title>
<path d="
M -141,-653.941 L -140.687,-653.647 L -140.179,-653.278 L -139.629,-652.976 L -139.045,-652.745 L -138.437,-652.589
 L -137.814,-652.51 L 137.814,-652.51 L 138.437,-652.589 L 139.045,-652.745 L 139.629,-652.976 L 140.179,-653.278
 L 140.687,-653.647 L 141.145,-654.077 L 141.545,-654.561 L 141.882,-655.091 L 142.149,-655.659 L 142.343,-656.257
 L 142.461,-656.873 L 142.5,-657.5 L 142.5,-782.5 L 142.461,-783.127 L 142.343,-783.743 L 142.149,-784.341
 L 141.882,-784.909 L 141.545,-785.439 L 141.145,-785.923 L 140.687,-786.353 L 140.179,-786.722 L 139.629,-787.024
 L 139.045,-787.255 L 138.437,-787.411 L 137.814,-787.49 L -137.814,-787.49 L -138.437,-787.411 L -139.045,-787.255
 L -139.629,-787.024 L -140.179,-786.722 L -140.687,-786.353 L -141,-786.059 L -141,-787.49 L -144,-787.49
 L -144,-652.51 L -141,-652.51 z
M -137.251,-654.008 L -137.75,-654.071 L -138.236,-654.196 L -138.703,-654.381 L -139.143,-654.623 L -139.55,-654.918
 L -139.916,-655.262 L -140.236,-655.649 L -140.505,-656.073 L -140.719,-656.528 L -140.874,-657.005 L -140.968,-657.499
 L -141,-658 L -141,-782 L -140.968,-782.501 L -140.874,-782.995 L -140.719,-783.472 L -140.505,-783.927
 L -140.236,-784.351 L -139.916,-784.738 L -139.55,-785.082 L -139.143,-785.377 L -138.703,-785.619 L -138.236,-785.804
 L -137.75,-785.929 L -137.251,-785.992 L 137.251,-785.992 L 137.75,-785.929 L 138.236,-785.804 L 138.703,-785.619
 L 139.143,-785.377 L 139.55,-785.082 L 139.916,-784.738 L 140.236,-784.351 L 140.505,-783.927 L 140.719,-783.472
 L 140.874,-782.995 L 140.968,-782.501 L 141,-782 L 141,-658 L 140.968,-657.499 L 140.874,-657.005
 L 140.719,-656.528 L 140.505,-656.073 L 140.236,-655.649 L 139.916,-655.262 L 139.55,-654.918 L 139.143,-654.623
 L 138.703,-654.381 L 138.236,-654.196 L 137.75,-654.071 L 137.251,-654.008 z
M 138.437,-508.589 L 139.045,-508.745 L 139.629,-508.976 L 140.179,-509.278 L 140.687,-509.647 L 141.145,-510.077
 L 141.545,-510.561 L 141.882,-511.091 L 142.149,-511.659 L 142.343,-512.257 L 142.461,-512.873 L 142.5,-513.5
 L 142.5,-638.5 L 142.461,-639.127 L 142.343,-639.743 L 142.149,-640.341 L 141.882,-640.909 L 141.545,-641.439
 L 141.145,-641.923 L 140.687,-642.353 L 140.179,-642.722 L 139.629,-643.024 L 139.045,-643.255 L 138.437,-643.411
 L 137.814,-643.49 L -137.814,-643.49 L -138.437,-643.411 L -139.045,-643.255 L -139.629,-643.024 L -140.179,-642.722
 L -140.687,-642.353 L -141,-642.059 L -141,-643.479 L -144,-643.479 L -144,-508.521 L -141,-508.521
 L -141,-509.941 L -140.687,-509.647 L -140.179,-509.278 L -139.629,-508.976 L -139.045,-508.745 L -138.437,-508.589
 L -137.814,-508.51 L 137.814,-508.51 z
M -137.195,-510.893 L -137.583,-510.942 L -137.962,-511.039 L -138.325,-511.183 L -138.668,-511.372 L -138.984,-511.601
 L -139.269,-511.869 L -139.518,-512.17 L -139.728,-512.5 L -139.894,-512.854 L -140.015,-513.226 L -140.088,-513.61
 L -140.113,-514 L -140.113,-638 L -140.088,-638.39 L -140.015,-638.774 L -139.894,-639.146 L -139.728,-639.5
 L -139.518,-639.83 L -139.269,-640.131 L -138.984,-640.399 L -138.668,-640.628 L -138.325,-640.817 L -137.962,-640.961
 L -137.583,-641.058 L -137.195,-641.107 L 137.195,-641.107 L 137.583,-641.058 L 137.962,-640.961 L 138.325,-640.817
 L 138.668,-640.628 L 138.984,-640.399 L 139.269,-640.131 L 139.518,-639.83 L 139.728,-639.5 L 139.894,-639.146
 L 140.015,-638.774 L 140.088,-638.39 L 140.113,-638 L 140.113,-514 L 140.088,-513.61 L 140.015,-513.226
 L 139.894,-512.854 L 139.728,-512.5 L 139.518,-512.17 L 139.269,-511.869 L 138.984,-511.601 L 138.668,-511.372
 L 138.325,-511.183 L 137.962,-511.039 L 137.583,-510.942 L 137.195,-510.893 z
M 138.437,-364.589 L 139.045,-364.745 L 139.629,-364.976 L 140.179,-365.278 L 140.687,-365.647 L 141.145,-366.077
 L 141.545,-366.561 L 141.882,-367.091 L 142.149,-367.659 L 142.343,-368.257 L 142.461,-368.873 L 142.5,-369.5
 L 142.5,-494.5 L 142.461,-495.127 L 142.343,-495.743 L 142.149,-496.341 L 141.882,-496.909 L 141.545,-497.439
 L 141.145,-497.923 L 140.687,-498.353 L 140.179,-498.722 L 139.629,-499.024 L 139.045,-499.255 L 138.437,-499.411
 L 137.814,-499.49 L -137.814,-499.49 L -138.437,-499.411 L -139.045,-499.255 L -139.629,-499.024 L -140.179,-498.722
 L -140.687,-498.353 L -141,-498.059 L -141,-498.153 L -144,-498.153 L -144,-365.847 L -141,-365.847
 L -141,-365.941 L -140.687,-365.647 L -140.179,-365.278 L -139.629,-364.976 L -139.045,-364.745 L -138.437,-364.589
 L -137.814,-364.51 L 137.814,-364.51 z
M 134.866,-489.869 L 134.6,-489.903 L 134.34,-489.969 L 134.091,-490.068 L 133.856,-490.197 L 133.639,-490.355
 L 133.443,-490.538 L 133.273,-490.745 L 133.129,-490.971 L 133.015,-491.214 L 132.932,-491.469 L 132.882,-491.732
 L 132.865,-492 L 132.882,-492.268 L 132.932,-492.531 L 133.015,-492.786 L 133.129,-493.029 L 133.273,-493.255
 L 133.443,-493.462 L 133.639,-493.645 L 133.856,-493.803 L 134.091,-493.932 L 134.34,-494.031 L 134.6,-494.097
 L 134.866,-494.131 L 135.134,-494.131 L 135.4,-494.097 L 135.66,-494.031 L 135.909,-493.932 L 136.144,-493.803
 L 136.361,-493.645 L 136.557,-493.462 L 136.727,-493.255 L 136.871,-493.029 L 136.985,-492.786 L 137.068,-492.531
 L 137.118,-492.268 L 137.135,-492 L 137.118,-491.732 L 137.068,-491.469 L 136.985,-491.214 L 136.871,-490.971
 L 136.727,-490.745 L 136.557,-490.538 L 136.361,-490.355 L 136.144,-490.197 L 135.909,-490.068 L 135.66,-489.969
 L 135.4,-489.903 L 135.134,-489.869 z
M -135.134,-489.869 L -135.4,-489.903 L -135.66,-489.969 L -135.909,-490.068 L -136.144,-490.197 L -136.361,-490.355
 L -136.557,-490.538 L -136.727,-490.745 L -136.871,-490.971 L -136.985,-491.214 L -137.068,-491.469 L -137.118,-491.732
 L -137.135,-492 L -137.118,-492.268 L -137.068,-492.531 L -136.985,-492.786 L -136.871,-493.029 L -136.727,-493.255
 L -136.557,-493.462 L -136.361,-493.645 L -136.144,-493.803 L -135.909,-493.932 L -135.66,-494.031 L -135.4,-494.097
 L -135.134,-494.131 L -134.866,-494.131 L -134.6,-494.097 L -134.34,-494.031 L -134.091,-493.932 L -133.856,-493.803
 L -133.639,-493.645 L -133.443,-493.462 L -133.273,-493.255 L -133.129,-493.029 L -133.015,-492.786 L -132.932,-492.531
 L -132.882,-492.268 L -132.865,-492 L -132.882,-491.732 L -132.932,-491.469 L -133.015,-491.214 L -133.129,-490.971
 L -133.273,-490.745 L -133.443,-490.538 L -133.639,-490.355 L -133.856,-490.197 L -134.091,-490.068 L -134.34,-489.969
 L -134.6,-489.903 L -134.866,-489.869 z
M 134.866,-369.869 L 134.6,-369.903 L 134.34,-369.969 L 134.091,-370.068 L 133.856,-370.197 L 133.639,-370.355
 L 133.443,-370.538 L 133.273,-370.745 L 133.129,-370.971 L 133.015,-371.214 L 132.932,-371.469 L 132.882,-371.732
 L 132.865,-372 L 132.882,-372.268 L 132.932,-372.531 L 133.015,-372.786 L 133.129,-373.029 L 133.273,-373.255
 L 133.443,-373.462 L 133.639,-373.645 L 133.856,-373.803 L 134.091,-373.932 L 134.34,-374.031 L 134.6,-374.097
 L 134.866,-374.131 L 135.134,-374.131 L 135.4,-374.097 L 135.66,-374.031 L 135.909,-373.932 L 136.144,-373.803
 L 136.361,-373.645 L 136.557,-373.462 L 136.727,-373.255 L 136.871,-373.029 L 136.985,-372.786 L 137.068,-372.531
 L 137.118,-372.268 L 137.135,-372 L 137.118,-371.732 L 137.068,-371.469 L 136.985,-371.214 L 136.871,-370.971
 L 136.727,-370.745 L 136.557,-370.538 L 136.361,-370.355 L 136.144,-370.197 L 135.909,-370.068 L 135.66,-369.969
 L 135.4,-369.903 L 135.134,-369.869 z
M -135.134,-369.869 L -135.4,-369.903 L -135.66,-369.969 L -135.909,-370.068 L -136.144,-370.197 L -136.361,-370.355
 L -136.557,-370.538 L -136.727,-370.745 L -136.871,-370.971 L -136.985,-371.214 L -137.068,-371.469 L -137.118,-371.732
 L -137.135,-372 L -137.118,-372.268 L -137.068,-372.531 L -136.985,-372.786 L -136.871,-373.029 L -136.727,-373.255
 L -136.557,-373.462 L -136.361,-373.645 L -136.144,-373.803 L -135.909,-373.932 L -135.66,-374.031 L -135.4,-374.097
 L -135.134,-374.131 L -134.866,-374.131 L -134.6,-374.097 L -134.34,-374.031 L -134.091,-373.932 L -133.856,-373.803
 L -133.639,-373.645 L -133.443,-373.462 L -133.273,-373.255 L -133.129,-373.029 L -133.015,-372.786 L -132.932,-372.531
 L -132.882,-372.268 L -132.865,-372 L -132.882,-371.732 L -132.932,-371.469 L -133.015,-371.214 L -133.129,-370.971
 L -133.273,-370.745 L -133.443,-370.538 L -133.639,-370.355 L -133.856,-370.197 L -134.091,-370.068 L -134.34,-369.969
 L -134.6,-369.903 L -134.866,-369.869 z
" stroke="black" fill="lightgray" stroke-width="0.5"/>
</svg>
