<?xml version="1.0" standalone="no"?>
<!DOCTYPE svg PUBLIC "-//W3C//DTD SVG 1.1//EN" "http://www.w3.org/Graphics/SVG/1.1/DTD/svg11.dtd">
<svg width="272mm" height="489mm" viewBox="-137 -867 272 489" xmlns="http://www.w3.org/2000/svg" version="1.1">
<title>OpenSCAD Model</title>
<path d="
M 130.937,-627.089 L 131.545,-627.245 L 132.129,-627.476 L 132.679,-627.778 L 133.187,-628.147 L 133.645,-628.577
 L 134.045,-629.061 L 134.382,-629.591 L 134.649,-630.159 L 134.843,-630.757 L 134.961,-631.373 L 135,-632
 L 135,-862 L 134.961,-862.627 L 134.843,-863.243 L 134.649,-863.841 L 134.382,-864.409 L 134.045,-864.939
 L 133.645,-865.423 L 133.187,-865.853 L 132.679,-866.222 L 132.129,-866.524 L 131.545,-866.755 L 130.937,-866.911
 L 130.314,-866.99 L -130.314,-866.99 L -130.937,-866.911 L -131.545,-866.755 L -132.129,-866.524 L -132.679,-866.222
 L -133.187,-865.853 L -133.5,-865.559 L -133.5,-866.979 L -136.5,-866.979 L -136.5,-627.021 L -133.5,-627.021
 L -133.5,-628.441 L -133.187,-628.147 L -132.679,-627.778 L -132.129,-627.476 L -131.545,-627.245 L -130.937,-627.089
 L -130.314,-627.01 L 130.314,-627.01 z
M -129.695,-629.393 L -130.083,-629.442 L -130.462,-629.539 L -130.825,-629.683 L -131.168,-629.872 L -131.484,-630.101
 L -131.769,-630.369 L -132.018,-630.67 L -132.228,-631 L -132.394,-631.354 L -132.515,-631.726 L -132.588,-632.11
 L -132.613,-632.5 L -132.613,-861.5 L -132.588,-861.89 L -132.515,-862.274 L -132.394,-862.646 L -132.228,-863
 L -132.018,-863.33 L -131.769,-863.631 L -131.484,-863.899 L -131.168,-864.128 L -130.825,-864.317 L -130.462,-864.461
 L -130.083,-864.558 L -129.695,-864.607 L 129.695,-864.607 L 130.083,-864.558 L 130.462,-864.461 L 130.825,-864.317
 L 131.168,-864.128 L 131.484,-863.899 L 131.769,-863.631 L 132.018,-863.33 L 132.228,-863 L 132.394,-862.646
 L 132.515,-862.274 L 132.588,-861.89 L 132.613,-861.5 L 132.613,-632.5 L 132.588,-632.11 L 132.515,-631.726
 L 132.394,-631.354 L 132.228,-631 L 132.018,-630.67 L 131.769,-630.369 L 131.484,-630.101 L 131.168,-629.872
 L 130.825,-629.683 L 130.462,-629.539 L 130.083,-629.442 L 129.695,-629.393 z
M 130.937,-378.089 L 131.545,-378.245 L 132.129,-378.476 L 132.679,-378.778 L 133.187,-379.147 L 133.645,-379.577
 L 134.045,-380.061 L 134.382,-380.591 L 134.649,-381.159 L 134.843,-381.757 L 134.961,-382.373 L 135,-383
 L 135,-613 L 134.961,-613.627 L 134.843,-614.243 L 134.649,-614.841 L 134.382,-615.409 L 134.045,-615.939
 L 133.645,-616.423 L 133.187,-616.853 L 132.679,-617.222 L 132.129,-617.524 L 131.545,-617.755 L 130.937,-617.911
 L 130.314,-617.99 L -130.314,-617.99 L -130.937,-617.911 L -131.545,-617.755 L -132.129,-617.524 L -132.679,-617.222
 L -133.187,-616.853 L -133.5,-616.559 L -133.5,-616.653 L -136.5,-616.653 L -136.5,-379.347 L -133.5,-379.347
 L -133.5,-379.441 L -133.187,-379.147 L -132.679,-378.778 L -132.129,-378.476 L -131.545,-378.245 L -130.937,-378.089
 L -130.314,-378.01 L 130.314,-378.01 z
M 127.366,-608.369 L 127.1,-608.403 L 126.84,-608.469 L 126.591,-608.568 L 126.356,-608.697 L 126.139,-608.855
 L 125.943,-609.038 L 125.773,-609.245 L 125.629,-609.471 L 125.515,-609.714 L 125.432,-609.969 L 125.382,-610.232
 L 125.365,-610.5 L 125.382,-610.768 L 125.432,-611.031 L 125.515,-611.286 L 125.629,-611.529 L 125.773,-611.755
 L 125.943,-611.962 L 126.139,-612.145 L 126.356,-612.303 L 126.591,-612.432 L 126.84,-612.531 L 127.1,-612.597
 L 127.366,-612.631 L 127.634,-612.631 L 127.9,-612.597 L 128.16,-612.531 L 128.409,-612.432 L 128.644,-612.303
 L 128.861,-612.145 L 129.057,-611.962 L 129.227,-611.755 L 129.371,-611.529 L 129.485,-611.286 L 129.568,-611.031
 L 129.618,-610.768 L 129.635,-610.5 L 129.618,-610.232 L 129.568,-609.969 L 129.485,-609.714 L 129.371,-609.471
 L 129.227,-609.245 L 129.057,-609.038 L 128.861,-608.855 L 128.644,-608.697 L 128.409,-608.568 L 128.16,-608.469
 L 127.9,-608.403 L 127.634,-608.369 z
M -127.634,-608.369 L -127.9,-608.403 L -128.16,-608.469 L -128.409,-608.568 L -128.644,-608.697 L -128.861,-608.855
 L -129.057,-609.038 L -129.227,-609.245 L -129.371,-609.471 L -129.485,-609.714 L -129.568,-609.969 L -129.618,-610.232
 L -129.635,-610.5 L -129.618,-610.768 L -129.568,-611.031 L -129.485,-611.286 L -129.371,-611.529 L -129.227,-611.755
 L -129.057,-611.962 L -128.861,-612.145 L -128.644,-612.303 L -128.409,-612.432 L -128.16,-612.531 L -127.9,-612.597
 L -127.634,-612.631 L -127.366,-612.631 L -127.1,-612.597 L -126.84,-612.531 L -126.591,-612.432 L -126.356,-612.303
 L -126.139,-612.145 L -125.943,-611.962 L -125.773,-611.755 L -125.629,-611.529 L -125.515,-611.286 L -125.432,-611.031
 L -125.382,-610.768 L -125.365,-610.5 L -125.382,-610.232 L -125.432,-609.969 L -125.515,-609.714 L -125.629,-609.471
 L -125.773,-609.245 L -125.943,-609.038 L -126.139,-608.855 L -126.356,-608.697 L -126.591,-608.568 L -126.84,-608.469
 L -127.1,-608.403 L -127.366,-608.369 z
M 127.366,-383.369 L 127.1,-383.403 L 126.84,-383.469 L 126.591,-383.568 L 126.356,-383.697 L 126.139,-383.855
 L 125.943,-384.038 L 125.773,-384.245 L 125.629,-384.471 L 125.515,-384.714 L 125.432,-384.969 L 125.382,-385.232
 L 125.365,-385.5 L 125.382,-385.768 L 125.432,-386.031 L 125.515,-386.286 L 125.629,-386.529 L 125.773,-386.755
 L 125.943,-386.962 L 126.139,-387.145 L 126.356,-387.303 L 126.591,-387.432 L 126.84,-387.531 L 127.1,-387.597
 L 127.366,-387.631 L 127.634,-387.631 L 127.9,-387.597 L 128.16,-387.531 L 128.409,-387.432 L 128.644,-387.303
 L 128.861,-387.145 L 129.057,-386.962 L 129.227,-386.755 L 129.371,-386.529 L 129.485,-386.286 L 129.568,-386.031
 L 129.618,-385.768 L 129.635,-385.5 L 129.618,-385.232 L 129.568,-384.969 L 129.485,-384.714 L 129.371,-384.471
 L 129.227,-384.245 L 129.057,-384.038 L 128.861,-383.855 L 128.644,-383.697 L 128.409,-383.568 L 128.16,-383.469
 L 127.9,-383.403 L 127.634,-383.369 z
M -127.634,-383.369 L -127.9,-383.403 L -128.16,-383.469 L -128.409,-383.568 L -128.644,-383.697 L -128.861,-383.855
 L -129.057,-384.038 L -129.227,-384.245 L -129.371,-384.471 L -129.485,-384.714 L -129.568,-384.969 L -129.618,-385.232
 L -129.635,-385.5 L -129.618,-385.768 L -129.568,-386.031 L -129.485,-386.286 L -129.371,-386.529 L -129.227,-386.755
 L -129.057,-386.962 L -128.861,-387.145 L -128.644,-387.303 L -128.409,-387.432 L -128.16,-387.531 L -127.9,-387.597
 L -127.634,-387.631 L -127.366,-387.631 L -127.1,-387.597 L -126.84,-387.531 L -126.591,-387.432 L -126.356,-387.303
 L -126.139,-387.145 L -125.943,-386.962 L -125.773,-386.755 L -125.629,-386.529 L -125.515,-386.286 L -125.432,-386.031
 L -125.382,-385.768 L -125.365,-385.5 L -125.382,-385.232 L -125.432,-384.969 L -125.515,-384.714 L -125.629,-384.471
 L -125.773,-384.245 L -125.943,-384.038 L -126.139,-383.855 L -126.356,-383.697 L -126.591,-383.568 L -126.84,-383.469
 L -127.1,-383.403 L -127.366,-383.369 z
" stroke="black" fill="lightgray" stroke-width="0.5"/>
</svg>
