<?xml version="1.0" standalone="no"?>
<!DOCTYPE svg PUBLIC "-//W3C//DTD SVG 1.1//EN" "http://www.w3.org/Graphics/SVG/1.1/DTD/svg11.dtd">
<svg width="122mm" height="244mm" viewBox="-62 -374 122 244" xmlns="http://www.w3.org/2000/svg" version="1.1">
<title>OpenSCAD Model</title>
<path d="
M -58.5,-299.941 L -58.1871,-299.647 L -57.6791,-299.278 L -57.1289,-298.976 L -56.5451,-298.745 L -55.9369,-298.589
 L -55.3139,-298.51 L 55.3139,-298.51 L 55.9369,-298.589 L 56.5451,-298.745 L 57.1289,-298.976 L 57.6791,-299.278
 L 58.1871,-299.647 L 58.6448,-300.077 L 59.0451,-300.561 L 59.3815,-301.091 L 59.6489,-301.659 L 59.8429,-302.257
 L 59.9606,-302.873 L 60,-303.5 L 60,-368.5 L 59.9606,-369.127 L 59.8429,-369.743 L 59.6489,-370.341
 L 59.3815,-370.909 L 59.0451,-371.439 L 58.6448,-371.923 L 58.1871,-372.353 L 57.6791,-372.722 L 57.1289,-373.024
 L 56.5451,-373.255 L 55.9369,-373.411 L 55.3139,-373.49 L -55.3139,-373.49 L -55.9369,-373.411 L -56.5451,-373.255
 L -57.1289,-373.024 L -57.6791,-372.722 L -58.1871,-372.353 L -58.5,-372.059 L -58.5,-373.49 L -61.5,-373.49
 L -61.5,-298.51 L -58.5,-298.51 z
M -54.7432,-300.135 L -55.2256,-300.196 L -55.6967,-300.317 L -56.1489,-300.496 L -56.5751,-300.73 L -56.9685,-301.016
 L -57.323,-301.349 L -57.633,-301.724 L -57.8936,-302.134 L -58.1007,-302.574 L -58.251,-303.037 L -58.3421,-303.515
 L -58.3726,-304 L -58.3726,-368 L -58.3421,-368.485 L -58.251,-368.963 L -58.1007,-369.426 L -57.8936,-369.866
 L -57.633,-370.276 L -57.323,-370.651 L -56.9685,-370.984 L -56.5751,-371.27 L -56.1489,-371.504 L -55.6967,-371.683
 L -55.2256,-371.804 L -54.7432,-371.865 L 54.7432,-371.865 L 55.2256,-371.804 L 55.6967,-371.683 L 56.1489,-371.504
 L 56.5751,-371.27 L 56.9685,-370.984 L 57.323,-370.651 L 57.633,-370.276 L 57.8936,-369.866 L 58.1007,-369.426
 L 58.251,-368.963 L 58.3421,-368.485 L 58.3726,-368 L 58.3726,-304 L 58.3421,-303.515 L 58.251,-303.037
 L 58.1007,-302.574 L 57.8936,-302.134 L 57.633,-301.724 L 57.323,-301.349 L 56.9685,-301.016 L 56.5751,-300.73
 L 56.1489,-300.496 L 55.6967,-300.317 L 55.2256,-300.196 L 54.7432,-300.135 z
M 55.9369,-214.589 L 56.5451,-214.745 L 57.1289,-214.976 L 57.6791,-215.278 L 58.1871,-215.647 L 58.6448,-216.077
 L 59.0451,-216.561 L 59.3815,-217.091 L 59.6489,-217.659 L 59.8429,-218.257 L 59.9606,-218.873 L 60,-219.5
 L 60,-284.5 L 59.9606,-285.127 L 59.8429,-285.743 L 59.6489,-286.341 L 59.3815,-286.909 L 59.0451,-287.439
 L 58.6448,-287.923 L 58.1871,-288.353 L 57.6791,-288.722 L 57.1289,-289.024 L 56.5451,-289.255 L 55.9369,-289.411
 L 55.3139,-289.49 L -55.3139,-289.49 L -55.9369,-289.411 L -56.5451,-289.255 L -57.1289,-289.024 L -57.6791,-288.722
 L -58.1871,-288.353 L -58.5,-288.059 L -58.5,-289.115 L -61.5,-289.115 L -61.5,-214.885 L -58.5,-214.885
 L -58.5,-215.941 L -58.1871,-215.647 L -57.6791,-215.278 L -57.1289,-214.976 L -56.5451,-214.745 L -55.9369,-214.589
 L -55.3139,-214.51 L 55.3139,-214.51 z
M 55.9369,-130.589 L 56.5451,-130.745 L 57.1289,-130.976 L 57.6791,-131.278 L 58.1871,-131.647 L 58.6448,-132.077
 L 59.0451,-132.561 L 59.3815,-133.091 L 59.6489,-133.659 L 59.8429,-134.257 L 59.9606,-134.873 L 60,-135.5
 L 60,-200.5 L 59.9606,-201.127 L 59.8429,-201.743 L 59.6489,-202.341 L 59.3815,-202.909 L 59.0451,-203.439
 L 58.6448,-203.923 L 58.1871,-204.353 L 57.6791,-204.722 L 57.1289,-205.024 L 56.5451,-205.255 L 55.9369,-205.411
 L 55.3139,-205.49 L -55.3139,-205.49 L -55.9369,-205.411 L -56.5451,-205.255 L -57.1289,-205.024 L -57.6791,-204.722
 L -58.1871,-204.353 L -58.6448,-203.923 L -59.0451,-203.439 L -59.3815,-202.909 L -59.6489,-202.341 L -59.8429,-201.743
 L -59.9,-201.444 L -61.5,-201.444 L -61.5,-134.556 L -59.9,-134.556 L -59.8429,-134.257 L -59.6489,-133.659
 L -59.3815,-133.091 L -59.0451,-132.561 L -58.6448,-132.077 L -58.1871,-131.647 L -57.6791,-131.278 L -57.1289,-130.976
 L -56.5451,-130.745 L -55.9369,-130.589 L -55.3139,-130.51 L 55.3139,-130.51 z
M 52.387,-196.204 L 52.1627,-196.232 L 51.9438,-196.288 L 51.7336,-196.371 L 51.5355,-196.48 L 51.3526,-196.613
 L 51.1879,-196.768 L 51.0438,-196.942 L 50.9226,-197.133 L 50.8264,-197.337 L 50.7565,-197.552 L 50.7142,-197.774
 L 50.7,-198 L 50.7142,-198.226 L 50.7565,-198.448 L 50.8264,-198.663 L 50.9226,-198.867 L 51.0438,-199.058
 L 51.1879,-199.232 L 51.3526,-199.387 L 51.5355,-199.52 L 51.7336,-199.629 L 51.9438,-199.712 L 52.1627,-199.768
 L 52.387,-199.796 L 52.613,-199.796 L 52.8373,-199.768 L 53.0562,-199.712 L 53.2664,-199.629 L 53.4645,-199.52
 L 53.6474,-199.387 L 53.8121,-199.232 L 53.9562,-199.058 L 54.0773,-198.867 L 54.1736,-198.663 L 54.2434,-198.448
 L 54.2858,-198.226 L 54.3,-198 L 54.2858,-197.774 L 54.2434,-197.552 L 54.1736,-197.337 L 54.0773,-197.133
 L 53.9562,-196.942 L 53.8121,-196.768 L 53.6474,-196.613 L 53.4645,-196.48 L 53.2664,-196.371 L 53.0562,-196.288
 L 52.8373,-196.232 L 52.613,-196.204 z
M -52.613,-196.204 L -52.8373,-196.232 L -53.0562,-196.288 L -53.2664,-196.371 L -53.4645,-196.48 L -53.6474,-196.613
 L -53.8121,-196.768 L -53.9562,-196.942 L -54.0773,-197.133 L -54.1736,-197.337 L -54.2434,-197.552 L -54.2858,-197.774
 L -54.3,-198 L -54.2858,-198.226 L -54.2434,-198.448 L -54.1736,-198.663 L -54.0773,-198.867 L -53.9562,-199.058
 L -53.8121,-199.232 L -53.6474,-199.387 L -53.4645,-199.52 L -53.2664,-199.629 L -53.0562,-199.712 L -52.8373,-199.768
 L -52.613,-199.796 L -52.387,-199.796 L -52.1627,-199.768 L -51.9438,-199.712 L -51.7336,-199.629 L -51.5355,-199.52
 L -51.3526,-199.387 L -51.1879,-199.232 L -51.0438,-199.058 L -50.9226,-198.867 L -50.8264,-198.663 L -50.7565,-198.448
 L -50.7142,-198.226 L -50.7,-198 L -50.7142,-197.774 L -50.7565,-197.552 L -50.8264,-197.337 L -50.9226,-197.133
 L -51.0438,-196.942 L -51.1879,-196.768 L -51.3526,-196.613 L -51.5355,-196.48 L -51.7336,-196.371 L -51.9438,-196.288
 L -52.1627,-196.232 L -52.387,-196.204 z
M -52.613,-136.204 L -52.8373,-136.232 L -53.0562,-136.288 L -53.2664,-136.371 L -53.4645,-136.48 L -53.6474,-136.613
 L -53.8121,-136.768 L -53.9562,-136.942 L -54.0773,-137.133 L -54.1736,-137.337 L -54.2434,-137.552 L -54.2858,-137.774
 L -54.3,-138 L -54.2858,-138.226 L -54.2434,-138.448 L -54.1736,-138.663 L -54.0773,-138.867 L -53.9562,-139.058
 L -53.8121,-139.232 L -53.6474,-139.387 L -53.4645,-139.52 L -53.2664,-139.629 L -53.0562,-139.712 L -52.8373,-139.768
 L -52.613,-139.796 L -52.387,-139.796 L -52.1627,-139.768 L -51.9438,-139.712 L -51.7336,-139.629 L -51.5355,-139.52
 L -51.3526,-139.387 L -51.1879,-139.232 L -51.0438,-139.058 L -50.9226,-138.867 L -50.8264,-138.663 L -50.7565,-138.448
 L -50.7142,-138.226 L -50.7,-138 L -50.7142,-137.774 L -50.7565,-137.552 L -50.8264,-137.337 L -50.9226,-137.133
 L -51.0438,-136.942 L -51.1879,-136.768 L -51.3526,-136.613 L -51.5355,-136.48 L -51.7336,-136.371 L -51.9438,-136.288
 L -52.1627,-136.232 L -52.387,-136.204 z
M 52.387,-136.204 L 52.1627,-136.232 L 51.9438,-136.288 L 51.7336,-136.371 L 51.5355,-136.48 L 51.3526,-136.613
 L 51.1879,-136.768 L 51.0438,-136.942 L 50.9226,-137.133 L 50.8264,-137.337 L 50.7565,-137.552 L 50.7142,-137.774
 L 50.7,-138 L 50.7142,-138.226 L 50.7565,-138.448 L 50.8264,-138.663 L 50.9226,-138.867 L 51.0438,-139.058
 L 51.1879,-139.232 L 51.3526,-139.387 L 51.5355,-139.52 L 51.7336,-139.629 L 51.9438,-139.712 L 52.1627,-139.768
 L 52.387,-139.796 L 52.613,-139.796 L 52.8373,-139.768 L 53.0562,-139.712 L 53.2664,-139.629 L 53.4645,-139.52
 L 53.6474,-139.387 L 53.8121,-139.232 L 53.9562,-139.058 L 54.0773,-138.867 L 54.1736,-138.663 L 54.2434,-138.448
 L 54.2858,-138.226 L 54.3,-138 L 54.2858,-137.774 L 54.2434,-137.552 L 54.1736,-137.337 L 54.0773,-137.133
 L 53.9562,-136.942 L 53.8121,-136.768 L 53.6474,-136.613 L 53.4645,-136.48 L 53.2664,-136.371 L 53.0562,-136.288
 L 52.8373,-136.232 L 52.613,-136.204 z
" stroke="black" fill="lightgray" stroke-width="0.5"/>
</svg>
