  0
SECTION
  2
BLOCKS
  0
ENDSEC
  0
SECTION
  2
ENTITIES
  0
LINE
  8
0
 10
115.937
 20
1086.09
 11
116.545
 21
1086.24
  0
LINE
  8
0
 10
116.545
 20
1086.24
 11
117.129
 21
1086.48
  0
LINE
  8
0
 10
117.129
 20
1086.48
 11
117.679
 21
1086.78
  0
LINE
  8
0
 10
117.679
 20
1086.78
 11
118.187
 21
1087.15
  0
LINE
  8
0
 10
118.187
 20
1087.15
 11
118.645
 21
1087.58
  0
LINE
  8
0
 10
118.645
 20
1087.58
 11
119.045
 21
1088.06
  0
LINE
  8
0
 10
119.045
 20
1088.06
 11
119.382
 21
1088.59
  0
LINE
  8
0
 10
119.382
 20
1088.59
 11
119.649
 21
1089.16
  0
LINE
  8
0
 10
119.649
 20
1089.16
 11
119.843
 21
1089.76
  0
LINE
  8
0
 10
119.843
 20
1089.76
 11
119.961
 21
1090.37
  0
LINE
  8
0
 10
119.961
 20
1090.37
 11
120
 21
1091
  0
LINE
  8
0
 10
120
 20
1091
 11
120
 21
1381
  0
LINE
  8
0
 10
120
 20
1381
 11
119.961
 21
1381.63
  0
LINE
  8
0
 10
119.961
 20
1381.63
 11
119.843
 21
1382.24
  0
LINE
  8
0
 10
119.843
 20
1382.24
 11
119.649
 21
1382.84
  0
LINE
  8
0
 10
119.649
 20
1382.84
 11
119.382
 21
1383.41
  0
LINE
  8
0
 10
119.382
 20
1383.41
 11
119.045
 21
1383.94
  0
LINE
  8
0
 10
119.045
 20
1383.94
 11
118.645
 21
1384.42
  0
LINE
  8
0
 10
118.645
 20
1384.42
 11
118.187
 21
1384.85
  0
LINE
  8
0
 10
118.187
 20
1384.85
 11
117.679
 21
1385.22
  0
LINE
  8
0
 10
117.679
 20
1385.22
 11
117.129
 21
1385.52
  0
LINE
  8
0
 10
117.129
 20
1385.52
 11
116.545
 21
1385.76
  0
LINE
  8
0
 10
116.545
 20
1385.76
 11
115.937
 21
1385.91
  0
LINE
  8
0
 10
115.937
 20
1385.91
 11
115.314
 21
1385.99
  0
LINE
  8
0
 10
115.314
 20
1385.99
 11
-115.314
 21
1385.99
  0
LINE
  8
0
 10
-115.314
 20
1385.99
 11
-115.937
 21
1385.91
  0
LINE
  8
0
 10
-115.937
 20
1385.91
 11
-116.545
 21
1385.76
  0
LINE
  8
0
 10
-116.545
 20
1385.76
 11
-117.129
 21
1385.52
  0
LINE
  8
0
 10
-117.129
 20
1385.52
 11
-117.679
 21
1385.22
  0
LINE
  8
0
 10
-117.679
 20
1385.22
 11
-118.187
 21
1384.85
  0
LINE
  8
0
 10
-118.187
 20
1384.85
 11
-118.645
 21
1384.42
  0
LINE
  8
0
 10
-118.645
 20
1384.42
 11
-119.045
 21
1383.94
  0
LINE
  8
0
 10
-119.045
 20
1383.94
 11
-119.382
 21
1383.41
  0
LINE
  8
0
 10
-119.382
 20
1383.41
 11
-119.649
 21
1382.84
  0
LINE
  8
0
 10
-119.649
 20
1382.84
 11
-119.843
 21
1382.24
  0
LINE
  8
0
 10
-119.843
 20
1382.24
 11
-119.961
 21
1381.63
  0
LINE
  8
0
 10
-119.961
 20
1381.63
 11
-120
 21
1381
  0
LINE
  8
0
 10
-120
 20
1381
 11
-120
 21
1091
  0
LINE
  8
0
 10
-120
 20
1091
 11
-119.961
 21
1090.37
  0
LINE
  8
0
 10
-119.961
 20
1090.37
 11
-119.843
 21
1089.76
  0
LINE
  8
0
 10
-119.843
 20
1089.76
 11
-119.649
 21
1089.16
  0
LINE
  8
0
 10
-119.649
 20
1089.16
 11
-119.382
 21
1088.59
  0
LINE
  8
0
 10
-119.382
 20
1088.59
 11
-119.045
 21
1088.06
  0
LINE
  8
0
 10
-119.045
 20
1088.06
 11
-118.645
 21
1087.58
  0
LINE
  8
0
 10
-118.645
 20
1087.58
 11
-118.187
 21
1087.15
  0
LINE
  8
0
 10
-118.187
 20
1087.15
 11
-117.679
 21
1086.78
  0
LINE
  8
0
 10
-117.679
 20
1086.78
 11
-117.129
 21
1086.48
  0
LINE
  8
0
 10
-117.129
 20
1086.48
 11
-116.545
 21
1086.24
  0
LINE
  8
0
 10
-116.545
 20
1086.24
 11
-115.937
 21
1086.09
  0
LINE
  8
0
 10
-115.937
 20
1086.09
 11
-115.314
 21
1086.01
  0
LINE
  8
0
 10
-115.314
 20
1086.01
 11
115.314
 21
1086.01
  0
LINE
  8
0
 10
115.314
 20
1086.01
 11
115.937
 21
1086.09
  0
LINE
  8
0
 10
-114.743
 20
1087.64
 11
-115.226
 21
1087.7
  0
LINE
  8
0
 10
-115.226
 20
1087.7
 11
-115.697
 21
1087.82
  0
LINE
  8
0
 10
-115.697
 20
1087.82
 11
-116.149
 21
1088
  0
LINE
  8
0
 10
-116.149
 20
1088
 11
-116.575
 21
1088.23
  0
LINE
  8
0
 10
-116.575
 20
1088.23
 11
-116.969
 21
1088.52
  0
LINE
  8
0
 10
-116.969
 20
1088.52
 11
-117.323
 21
1088.85
  0
LINE
  8
0
 10
-117.323
 20
1088.85
 11
-117.633
 21
1089.22
  0
LINE
  8
0
 10
-117.633
 20
1089.22
 11
-117.894
 21
1089.63
  0
LINE
  8
0
 10
-117.894
 20
1089.63
 11
-118.101
 21
1090.07
  0
LINE
  8
0
 10
-118.101
 20
1090.07
 11
-118.251
 21
1090.54
  0
LINE
  8
0
 10
-118.251
 20
1090.54
 11
-118.342
 21
1091.01
  0
LINE
  8
0
 10
-118.342
 20
1091.01
 11
-118.373
 21
1091.5
  0
LINE
  8
0
 10
-118.373
 20
1091.5
 11
-118.373
 21
1380.5
  0
LINE
  8
0
 10
-118.373
 20
1380.5
 11
-118.342
 21
1380.99
  0
LINE
  8
0
 10
-118.342
 20
1380.99
 11
-118.251
 21
1381.46
  0
LINE
  8
0
 10
-118.251
 20
1381.46
 11
-118.101
 21
1381.93
  0
LINE
  8
0
 10
-118.101
 20
1381.93
 11
-117.894
 21
1382.37
  0
LINE
  8
0
 10
-117.894
 20
1382.37
 11
-117.633
 21
1382.78
  0
LINE
  8
0
 10
-117.633
 20
1382.78
 11
-117.323
 21
1383.15
  0
LINE
  8
0
 10
-117.323
 20
1383.15
 11
-116.969
 21
1383.48
  0
LINE
  8
0
 10
-116.969
 20
1383.48
 11
-116.575
 21
1383.77
  0
LINE
  8
0
 10
-116.575
 20
1383.77
 11
-116.149
 21
1384
  0
LINE
  8
0
 10
-116.149
 20
1384
 11
-115.697
 21
1384.18
  0
LINE
  8
0
 10
-115.697
 20
1384.18
 11
-115.226
 21
1384.3
  0
LINE
  8
0
 10
-115.226
 20
1384.3
 11
-114.743
 21
1384.36
  0
LINE
  8
0
 10
-114.743
 20
1384.36
 11
114.743
 21
1384.36
  0
LINE
  8
0
 10
114.743
 20
1384.36
 11
115.226
 21
1384.3
  0
LINE
  8
0
 10
115.226
 20
1384.3
 11
115.697
 21
1384.18
  0
LINE
  8
0
 10
115.697
 20
1384.18
 11
116.149
 21
1384
  0
LINE
  8
0
 10
116.149
 20
1384
 11
116.575
 21
1383.77
  0
LINE
  8
0
 10
116.575
 20
1383.77
 11
116.969
 21
1383.48
  0
LINE
  8
0
 10
116.969
 20
1383.48
 11
117.323
 21
1383.15
  0
LINE
  8
0
 10
117.323
 20
1383.15
 11
117.633
 21
1382.78
  0
LINE
  8
0
 10
117.633
 20
1382.78
 11
117.894
 21
1382.37
  0
LINE
  8
0
 10
117.894
 20
1382.37
 11
118.101
 21
1381.93
  0
LINE
  8
0
 10
118.101
 20
1381.93
 11
118.251
 21
1381.46
  0
LINE
  8
0
 10
118.251
 20
1381.46
 11
118.342
 21
1380.99
  0
LINE
  8
0
 10
118.342
 20
1380.99
 11
118.373
 21
1380.5
  0
LINE
  8
0
 10
118.373
 20
1380.5
 11
118.373
 21
1091.5
  0
LINE
  8
0
 10
118.373
 20
1091.5
 11
118.342
 21
1091.01
  0
LINE
  8
0
 10
118.342
 20
1091.01
 11
118.251
 21
1090.54
  0
LINE
  8
0
 10
118.251
 20
1090.54
 11
118.101
 21
1090.07
  0
LINE
  8
0
 10
118.101
 20
1090.07
 11
117.894
 21
1089.63
  0
LINE
  8
0
 10
117.894
 20
1089.63
 11
117.633
 21
1089.22
  0
LINE
  8
0
 10
117.633
 20
1089.22
 11
117.323
 21
1088.85
  0
LINE
  8
0
 10
117.323
 20
1088.85
 11
116.969
 21
1088.52
  0
LINE
  8
0
 10
116.969
 20
1088.52
 11
116.575
 21
1088.23
  0
LINE
  8
0
 10
116.575
 20
1088.23
 11
116.149
 21
1088
  0
LINE
  8
0
 10
116.149
 20
1088
 11
115.697
 21
1087.82
  0
LINE
  8
0
 10
115.697
 20
1087.82
 11
115.226
 21
1087.7
  0
LINE
  8
0
 10
115.226
 20
1087.7
 11
114.743
 21
1087.64
  0
LINE
  8
0
 10
114.743
 20
1087.64
 11
-114.743
 21
1087.64
  0
LINE
  8
0
 10
115.937
 20
777.089
 11
116.545
 21
777.245
  0
LINE
  8
0
 10
116.545
 20
777.245
 11
117.129
 21
777.476
  0
LINE
  8
0
 10
117.129
 20
777.476
 11
117.679
 21
777.778
  0
LINE
  8
0
 10
117.679
 20
777.778
 11
118.187
 21
778.147
  0
LINE
  8
0
 10
118.187
 20
778.147
 11
118.645
 21
778.577
  0
LINE
  8
0
 10
118.645
 20
778.577
 11
119.045
 21
779.061
  0
LINE
  8
0
 10
119.045
 20
779.061
 11
119.382
 21
779.591
  0
LINE
  8
0
 10
119.382
 20
779.591
 11
119.649
 21
780.159
  0
LINE
  8
0
 10
119.649
 20
780.159
 11
119.843
 21
780.757
  0
LINE
  8
0
 10
119.843
 20
780.757
 11
119.961
 21
781.373
  0
LINE
  8
0
 10
119.961
 20
781.373
 11
120
 21
782
  0
LINE
  8
0
 10
120
 20
782
 11
120
 21
1072
  0
LINE
  8
0
 10
120
 20
1072
 11
119.961
 21
1072.63
  0
LINE
  8
0
 10
119.961
 20
1072.63
 11
119.843
 21
1073.24
  0
LINE
  8
0
 10
119.843
 20
1073.24
 11
119.649
 21
1073.84
  0
LINE
  8
0
 10
119.649
 20
1073.84
 11
119.382
 21
1074.41
  0
LINE
  8
0
 10
119.382
 20
1074.41
 11
119.045
 21
1074.94
  0
LINE
  8
0
 10
119.045
 20
1074.94
 11
118.645
 21
1075.42
  0
LINE
  8
0
 10
118.645
 20
1075.42
 11
118.187
 21
1075.85
  0
LINE
  8
0
 10
118.187
 20
1075.85
 11
117.679
 21
1076.22
  0
LINE
  8
0
 10
117.679
 20
1076.22
 11
117.129
 21
1076.52
  0
LINE
  8
0
 10
117.129
 20
1076.52
 11
116.545
 21
1076.76
  0
LINE
  8
0
 10
116.545
 20
1076.76
 11
115.937
 21
1076.91
  0
LINE
  8
0
 10
115.937
 20
1076.91
 11
115.314
 21
1076.99
  0
LINE
  8
0
 10
115.314
 20
1076.99
 11
-115.314
 21
1076.99
  0
LINE
  8
0
 10
-115.314
 20
1076.99
 11
-115.937
 21
1076.91
  0
LINE
  8
0
 10
-115.937
 20
1076.91
 11
-116.545
 21
1076.76
  0
LINE
  8
0
 10
-116.545
 20
1076.76
 11
-117.129
 21
1076.52
  0
LINE
  8
0
 10
-117.129
 20
1076.52
 11
-117.679
 21
1076.22
  0
LINE
  8
0
 10
-117.679
 20
1076.22
 11
-118.187
 21
1075.85
  0
LINE
  8
0
 10
-118.187
 20
1075.85
 11
-118.645
 21
1075.42
  0
LINE
  8
0
 10
-118.645
 20
1075.42
 11
-119.045
 21
1074.94
  0
LINE
  8
0
 10
-119.045
 20
1074.94
 11
-119.382
 21
1074.41
  0
LINE
  8
0
 10
-119.382
 20
1074.41
 11
-119.649
 21
1073.84
  0
LINE
  8
0
 10
-119.649
 20
1073.84
 11
-119.843
 21
1073.24
  0
LINE
  8
0
 10
-119.843
 20
1073.24
 11
-119.961
 21
1072.63
  0
LINE
  8
0
 10
-119.961
 20
1072.63
 11
-120
 21
1072
  0
LINE
  8
0
 10
-120
 20
1072
 11
-120
 21
782
  0
LINE
  8
0
 10
-120
 20
782
 11
-119.961
 21
781.373
  0
LINE
  8
0
 10
-119.961
 20
781.373
 11
-119.843
 21
780.757
  0
LINE
  8
0
 10
-119.843
 20
780.757
 11
-119.649
 21
780.159
  0
LINE
  8
0
 10
-119.649
 20
780.159
 11
-119.382
 21
779.591
  0
LINE
  8
0
 10
-119.382
 20
779.591
 11
-119.045
 21
779.061
  0
LINE
  8
0
 10
-119.045
 20
779.061
 11
-118.645
 21
778.577
  0
LINE
  8
0
 10
-118.645
 20
778.577
 11
-118.187
 21
778.147
  0
LINE
  8
0
 10
-118.187
 20
778.147
 11
-117.679
 21
777.778
  0
LINE
  8
0
 10
-117.679
 20
777.778
 11
-117.129
 21
777.476
  0
LINE
  8
0
 10
-117.129
 20
777.476
 11
-116.545
 21
777.245
  0
LINE
  8
0
 10
-116.545
 20
777.245
 11
-115.937
 21
777.089
  0
LINE
  8
0
 10
-115.937
 20
777.089
 11
-115.314
 21
777.01
  0
LINE
  8
0
 10
-115.314
 20
777.01
 11
115.314
 21
777.01
  0
LINE
  8
0
 10
115.314
 20
777.01
 11
115.937
 21
777.089
  0
LINE
  8
0
 10
-112.651
 20
1067.1
 11
-112.95
 21
1067.14
  0
LINE
  8
0
 10
-112.95
 20
1067.14
 11
-113.242
 21
1067.22
  0
LINE
  8
0
 10
-113.242
 20
1067.22
 11
-113.522
 21
1067.33
  0
LINE
  8
0
 10
-113.522
 20
1067.33
 11
-113.786
 21
1067.47
  0
LINE
  8
0
 10
-113.786
 20
1067.47
 11
-114.03
 21
1067.65
  0
LINE
  8
0
 10
-114.03
 20
1067.65
 11
-114.25
 21
1067.86
  0
LINE
  8
0
 10
-114.25
 20
1067.86
 11
-114.442
 21
1068.09
  0
LINE
  8
0
 10
-114.442
 20
1068.09
 11
-114.603
 21
1068.34
  0
LINE
  8
0
 10
-114.603
 20
1068.34
 11
-114.731
 21
1068.62
  0
LINE
  8
0
 10
-114.731
 20
1068.62
 11
-114.825
 21
1068.9
  0
LINE
  8
0
 10
-114.825
 20
1068.9
 11
-114.881
 21
1069.2
  0
LINE
  8
0
 10
-114.881
 20
1069.2
 11
-114.9
 21
1069.5
  0
LINE
  8
0
 10
-114.9
 20
1069.5
 11
-114.881
 21
1069.8
  0
LINE
  8
0
 10
-114.881
 20
1069.8
 11
-114.825
 21
1070.1
  0
LINE
  8
0
 10
-114.825
 20
1070.1
 11
-114.731
 21
1070.38
  0
LINE
  8
0
 10
-114.731
 20
1070.38
 11
-114.603
 21
1070.66
  0
LINE
  8
0
 10
-114.603
 20
1070.66
 11
-114.442
 21
1070.91
  0
LINE
  8
0
 10
-114.442
 20
1070.91
 11
-114.25
 21
1071.14
  0
LINE
  8
0
 10
-114.25
 20
1071.14
 11
-114.03
 21
1071.35
  0
LINE
  8
0
 10
-114.03
 20
1071.35
 11
-113.786
 21
1071.53
  0
LINE
  8
0
 10
-113.786
 20
1071.53
 11
-113.522
 21
1071.67
  0
LINE
  8
0
 10
-113.522
 20
1071.67
 11
-113.242
 21
1071.78
  0
LINE
  8
0
 10
-113.242
 20
1071.78
 11
-112.95
 21
1071.86
  0
LINE
  8
0
 10
-112.95
 20
1071.86
 11
-112.651
 21
1071.9
  0
LINE
  8
0
 10
-112.651
 20
1071.9
 11
-112.349
 21
1071.9
  0
LINE
  8
0
 10
-112.349
 20
1071.9
 11
-112.05
 21
1071.86
  0
LINE
  8
0
 10
-112.05
 20
1071.86
 11
-111.758
 21
1071.78
  0
LINE
  8
0
 10
-111.758
 20
1071.78
 11
-111.478
 21
1071.67
  0
LINE
  8
0
 10
-111.478
 20
1071.67
 11
-111.214
 21
1071.53
  0
LINE
  8
0
 10
-111.214
 20
1071.53
 11
-110.97
 21
1071.35
  0
LINE
  8
0
 10
-110.97
 20
1071.35
 11
-110.75
 21
1071.14
  0
LINE
  8
0
 10
-110.75
 20
1071.14
 11
-110.558
 21
1070.91
  0
LINE
  8
0
 10
-110.558
 20
1070.91
 11
-110.397
 21
1070.66
  0
LINE
  8
0
 10
-110.397
 20
1070.66
 11
-110.269
 21
1070.38
  0
LINE
  8
0
 10
-110.269
 20
1070.38
 11
-110.175
 21
1070.1
  0
LINE
  8
0
 10
-110.175
 20
1070.1
 11
-110.119
 21
1069.8
  0
LINE
  8
0
 10
-110.119
 20
1069.8
 11
-110.1
 21
1069.5
  0
LINE
  8
0
 10
-110.1
 20
1069.5
 11
-110.119
 21
1069.2
  0
LINE
  8
0
 10
-110.119
 20
1069.2
 11
-110.175
 21
1068.9
  0
LINE
  8
0
 10
-110.175
 20
1068.9
 11
-110.269
 21
1068.62
  0
LINE
  8
0
 10
-110.269
 20
1068.62
 11
-110.397
 21
1068.34
  0
LINE
  8
0
 10
-110.397
 20
1068.34
 11
-110.558
 21
1068.09
  0
LINE
  8
0
 10
-110.558
 20
1068.09
 11
-110.75
 21
1067.86
  0
LINE
  8
0
 10
-110.75
 20
1067.86
 11
-110.97
 21
1067.65
  0
LINE
  8
0
 10
-110.97
 20
1067.65
 11
-111.214
 21
1067.47
  0
LINE
  8
0
 10
-111.214
 20
1067.47
 11
-111.478
 21
1067.33
  0
LINE
  8
0
 10
-111.478
 20
1067.33
 11
-111.758
 21
1067.22
  0
LINE
  8
0
 10
-111.758
 20
1067.22
 11
-112.05
 21
1067.14
  0
LINE
  8
0
 10
-112.05
 20
1067.14
 11
-112.349
 21
1067.1
  0
LINE
  8
0
 10
-112.349
 20
1067.1
 11
-112.651
 21
1067.1
  0
LINE
  8
0
 10
112.349
 20
1067.1
 11
112.05
 21
1067.14
  0
LINE
  8
0
 10
112.05
 20
1067.14
 11
111.758
 21
1067.22
  0
LINE
  8
0
 10
111.758
 20
1067.22
 11
111.478
 21
1067.33
  0
LINE
  8
0
 10
111.478
 20
1067.33
 11
111.214
 21
1067.47
  0
LINE
  8
0
 10
111.214
 20
1067.47
 11
110.97
 21
1067.65
  0
LINE
  8
0
 10
110.97
 20
1067.65
 11
110.75
 21
1067.86
  0
LINE
  8
0
 10
110.75
 20
1067.86
 11
110.558
 21
1068.09
  0
LINE
  8
0
 10
110.558
 20
1068.09
 11
110.397
 21
1068.34
  0
LINE
  8
0
 10
110.397
 20
1068.34
 11
110.269
 21
1068.62
  0
LINE
  8
0
 10
110.269
 20
1068.62
 11
110.175
 21
1068.9
  0
LINE
  8
0
 10
110.175
 20
1068.9
 11
110.119
 21
1069.2
  0
LINE
  8
0
 10
110.119
 20
1069.2
 11
110.1
 21
1069.5
  0
LINE
  8
0
 10
110.1
 20
1069.5
 11
110.119
 21
1069.8
  0
LINE
  8
0
 10
110.119
 20
1069.8
 11
110.175
 21
1070.1
  0
LINE
  8
0
 10
110.175
 20
1070.1
 11
110.269
 21
1070.38
  0
LINE
  8
0
 10
110.269
 20
1070.38
 11
110.397
 21
1070.66
  0
LINE
  8
0
 10
110.397
 20
1070.66
 11
110.558
 21
1070.91
  0
LINE
  8
0
 10
110.558
 20
1070.91
 11
110.75
 21
1071.14
  0
LINE
  8
0
 10
110.75
 20
1071.14
 11
110.97
 21
1071.35
  0
LINE
  8
0
 10
110.97
 20
1071.35
 11
111.214
 21
1071.53
  0
LINE
  8
0
 10
111.214
 20
1071.53
 11
111.478
 21
1071.67
  0
LINE
  8
0
 10
111.478
 20
1071.67
 11
111.758
 21
1071.78
  0
LINE
  8
0
 10
111.758
 20
1071.78
 11
112.05
 21
1071.86
  0
LINE
  8
0
 10
112.05
 20
1071.86
 11
112.349
 21
1071.9
  0
LINE
  8
0
 10
112.349
 20
1071.9
 11
112.651
 21
1071.9
  0
LINE
  8
0
 10
112.651
 20
1071.9
 11
112.95
 21
1071.86
  0
LINE
  8
0
 10
112.95
 20
1071.86
 11
113.242
 21
1071.78
  0
LINE
  8
0
 10
113.242
 20
1071.78
 11
113.522
 21
1071.67
  0
LINE
  8
0
 10
113.522
 20
1071.67
 11
113.786
 21
1071.53
  0
LINE
  8
0
 10
113.786
 20
1071.53
 11
114.03
 21
1071.35
  0
LINE
  8
0
 10
114.03
 20
1071.35
 11
114.25
 21
1071.14
  0
LINE
  8
0
 10
114.25
 20
1071.14
 11
114.442
 21
1070.91
  0
LINE
  8
0
 10
114.442
 20
1070.91
 11
114.603
 21
1070.66
  0
LINE
  8
0
 10
114.603
 20
1070.66
 11
114.731
 21
1070.38
  0
LINE
  8
0
 10
114.731
 20
1070.38
 11
114.825
 21
1070.1
  0
LINE
  8
0
 10
114.825
 20
1070.1
 11
114.881
 21
1069.8
  0
LINE
  8
0
 10
114.881
 20
1069.8
 11
114.9
 21
1069.5
  0
LINE
  8
0
 10
114.9
 20
1069.5
 11
114.881
 21
1069.2
  0
LINE
  8
0
 10
114.881
 20
1069.2
 11
114.825
 21
1068.9
  0
LINE
  8
0
 10
114.825
 20
1068.9
 11
114.731
 21
1068.62
  0
LINE
  8
0
 10
114.731
 20
1068.62
 11
114.603
 21
1068.34
  0
LINE
  8
0
 10
114.603
 20
1068.34
 11
114.442
 21
1068.09
  0
LINE
  8
0
 10
114.442
 20
1068.09
 11
114.25
 21
1067.86
  0
LINE
  8
0
 10
114.25
 20
1067.86
 11
114.03
 21
1067.65
  0
LINE
  8
0
 10
114.03
 20
1067.65
 11
113.786
 21
1067.47
  0
LINE
  8
0
 10
113.786
 20
1067.47
 11
113.522
 21
1067.33
  0
LINE
  8
0
 10
113.522
 20
1067.33
 11
113.242
 21
1067.22
  0
LINE
  8
0
 10
113.242
 20
1067.22
 11
112.95
 21
1067.14
  0
LINE
  8
0
 10
112.95
 20
1067.14
 11
112.651
 21
1067.1
  0
LINE
  8
0
 10
112.651
 20
1067.1
 11
112.349
 21
1067.1
  0
LINE
  8
0
 10
112.349
 20
782.105
 11
112.05
 21
782.143
  0
LINE
  8
0
 10
112.05
 20
782.143
 11
111.758
 21
782.217
  0
LINE
  8
0
 10
111.758
 20
782.217
 11
111.478
 21
782.328
  0
LINE
  8
0
 10
111.478
 20
782.328
 11
111.214
 21
782.474
  0
LINE
  8
0
 10
111.214
 20
782.474
 11
110.97
 21
782.651
  0
LINE
  8
0
 10
110.97
 20
782.651
 11
110.75
 21
782.857
  0
LINE
  8
0
 10
110.75
 20
782.857
 11
110.558
 21
783.089
  0
LINE
  8
0
 10
110.558
 20
783.089
 11
110.397
 21
783.344
  0
LINE
  8
0
 10
110.397
 20
783.344
 11
110.269
 21
783.617
  0
LINE
  8
0
 10
110.269
 20
783.617
 11
110.175
 21
783.903
  0
LINE
  8
0
 10
110.175
 20
783.903
 11
110.119
 21
784.199
  0
LINE
  8
0
 10
110.119
 20
784.199
 11
110.1
 21
784.5
  0
LINE
  8
0
 10
110.1
 20
784.5
 11
110.119
 21
784.801
  0
LINE
  8
0
 10
110.119
 20
784.801
 11
110.175
 21
785.097
  0
LINE
  8
0
 10
110.175
 20
785.097
 11
110.269
 21
785.383
  0
LINE
  8
0
 10
110.269
 20
785.383
 11
110.397
 21
785.656
  0
LINE
  8
0
 10
110.397
 20
785.656
 11
110.558
 21
785.911
  0
LINE
  8
0
 10
110.558
 20
785.911
 11
110.75
 21
786.143
  0
LINE
  8
0
 10
110.75
 20
786.143
 11
110.97
 21
786.349
  0
LINE
  8
0
 10
110.97
 20
786.349
 11
111.214
 21
786.526
  0
LINE
  8
0
 10
111.214
 20
786.526
 11
111.478
 21
786.672
  0
LINE
  8
0
 10
111.478
 20
786.672
 11
111.758
 21
786.783
  0
LINE
  8
0
 10
111.758
 20
786.783
 11
112.05
 21
786.857
  0
LINE
  8
0
 10
112.05
 20
786.857
 11
112.349
 21
786.895
  0
LINE
  8
0
 10
112.349
 20
786.895
 11
112.651
 21
786.895
  0
LINE
  8
0
 10
112.651
 20
786.895
 11
112.95
 21
786.857
  0
LINE
  8
0
 10
112.95
 20
786.857
 11
113.242
 21
786.783
  0
LINE
  8
0
 10
113.242
 20
786.783
 11
113.522
 21
786.672
  0
LINE
  8
0
 10
113.522
 20
786.672
 11
113.786
 21
786.526
  0
LINE
  8
0
 10
113.786
 20
786.526
 11
114.03
 21
786.349
  0
LINE
  8
0
 10
114.03
 20
786.349
 11
114.25
 21
786.143
  0
LINE
  8
0
 10
114.25
 20
786.143
 11
114.442
 21
785.911
  0
LINE
  8
0
 10
114.442
 20
785.911
 11
114.603
 21
785.656
  0
LINE
  8
0
 10
114.603
 20
785.656
 11
114.731
 21
785.383
  0
LINE
  8
0
 10
114.731
 20
785.383
 11
114.825
 21
785.097
  0
LINE
  8
0
 10
114.825
 20
785.097
 11
114.881
 21
784.801
  0
LINE
  8
0
 10
114.881
 20
784.801
 11
114.9
 21
784.5
  0
LINE
  8
0
 10
114.9
 20
784.5
 11
114.881
 21
784.199
  0
LINE
  8
0
 10
114.881
 20
784.199
 11
114.825
 21
783.903
  0
LINE
  8
0
 10
114.825
 20
783.903
 11
114.731
 21
783.617
  0
LINE
  8
0
 10
114.731
 20
783.617
 11
114.603
 21
783.344
  0
LINE
  8
0
 10
114.603
 20
783.344
 11
114.442
 21
783.089
  0
LINE
  8
0
 10
114.442
 20
783.089
 11
114.25
 21
782.857
  0
LINE
  8
0
 10
114.25
 20
782.857
 11
114.03
 21
782.651
  0
LINE
  8
0
 10
114.03
 20
782.651
 11
113.786
 21
782.474
  0
LINE
  8
0
 10
113.786
 20
782.474
 11
113.522
 21
782.328
  0
LINE
  8
0
 10
113.522
 20
782.328
 11
113.242
 21
782.217
  0
LINE
  8
0
 10
113.242
 20
782.217
 11
112.95
 21
782.143
  0
LINE
  8
0
 10
112.95
 20
782.143
 11
112.651
 21
782.105
  0
LINE
  8
0
 10
112.651
 20
782.105
 11
112.349
 21
782.105
  0
LINE
  8
0
 10
-112.651
 20
782.105
 11
-112.95
 21
782.143
  0
LINE
  8
0
 10
-112.95
 20
782.143
 11
-113.242
 21
782.217
  0
LINE
  8
0
 10
-113.242
 20
782.217
 11
-113.522
 21
782.328
  0
LINE
  8
0
 10
-113.522
 20
782.328
 11
-113.786
 21
782.474
  0
LINE
  8
0
 10
-113.786
 20
782.474
 11
-114.03
 21
782.651
  0
LINE
  8
0
 10
-114.03
 20
782.651
 11
-114.25
 21
782.857
  0
LINE
  8
0
 10
-114.25
 20
782.857
 11
-114.442
 21
783.089
  0
LINE
  8
0
 10
-114.442
 20
783.089
 11
-114.603
 21
783.344
  0
LINE
  8
0
 10
-114.603
 20
783.344
 11
-114.731
 21
783.617
  0
LINE
  8
0
 10
-114.731
 20
783.617
 11
-114.825
 21
783.903
  0
LINE
  8
0
 10
-114.825
 20
783.903
 11
-114.881
 21
784.199
  0
LINE
  8
0
 10
-114.881
 20
784.199
 11
-114.9
 21
784.5
  0
LINE
  8
0
 10
-114.9
 20
784.5
 11
-114.881
 21
784.801
  0
LINE
  8
0
 10
-114.881
 20
784.801
 11
-114.825
 21
785.097
  0
LINE
  8
0
 10
-114.825
 20
785.097
 11
-114.731
 21
785.383
  0
LINE
  8
0
 10
-114.731
 20
785.383
 11
-114.603
 21
785.656
  0
LINE
  8
0
 10
-114.603
 20
785.656
 11
-114.442
 21
785.911
  0
LINE
  8
0
 10
-114.442
 20
785.911
 11
-114.25
 21
786.143
  0
LINE
  8
0
 10
-114.25
 20
786.143
 11
-114.03
 21
786.349
  0
LINE
  8
0
 10
-114.03
 20
786.349
 11
-113.786
 21
786.526
  0
LINE
  8
0
 10
-113.786
 20
786.526
 11
-113.522
 21
786.672
  0
LINE
  8
0
 10
-113.522
 20
786.672
 11
-113.242
 21
786.783
  0
LINE
  8
0
 10
-113.242
 20
786.783
 11
-112.95
 21
786.857
  0
LINE
  8
0
 10
-112.95
 20
786.857
 11
-112.651
 21
786.895
  0
LINE
  8
0
 10
-112.651
 20
786.895
 11
-112.349
 21
786.895
  0
LINE
  8
0
 10
-112.349
 20
786.895
 11
-112.05
 21
786.857
  0
LINE
  8
0
 10
-112.05
 20
786.857
 11
-111.758
 21
786.783
  0
LINE
  8
0
 10
-111.758
 20
786.783
 11
-111.478
 21
786.672
  0
LINE
  8
0
 10
-111.478
 20
786.672
 11
-111.214
 21
786.526
  0
LINE
  8
0
 10
-111.214
 20
786.526
 11
-110.97
 21
786.349
  0
LINE
  8
0
 10
-110.97
 20
786.349
 11
-110.75
 21
786.143
  0
LINE
  8
0
 10
-110.75
 20
786.143
 11
-110.558
 21
785.911
  0
LINE
  8
0
 10
-110.558
 20
785.911
 11
-110.397
 21
785.656
  0
LINE
  8
0
 10
-110.397
 20
785.656
 11
-110.269
 21
785.383
  0
LINE
  8
0
 10
-110.269
 20
785.383
 11
-110.175
 21
785.097
  0
LINE
  8
0
 10
-110.175
 20
785.097
 11
-110.119
 21
784.801
  0
LINE
  8
0
 10
-110.119
 20
784.801
 11
-110.1
 21
784.5
  0
LINE
  8
0
 10
-110.1
 20
784.5
 11
-110.119
 21
784.199
  0
LINE
  8
0
 10
-110.119
 20
784.199
 11
-110.175
 21
783.903
  0
LINE
  8
0
 10
-110.175
 20
783.903
 11
-110.269
 21
783.617
  0
LINE
  8
0
 10
-110.269
 20
783.617
 11
-110.397
 21
783.344
  0
LINE
  8
0
 10
-110.397
 20
783.344
 11
-110.558
 21
783.089
  0
LINE
  8
0
 10
-110.558
 20
783.089
 11
-110.75
 21
782.857
  0
LINE
  8
0
 10
-110.75
 20
782.857
 11
-110.97
 21
782.651
  0
LINE
  8
0
 10
-110.97
 20
782.651
 11
-111.214
 21
782.474
  0
LINE
  8
0
 10
-111.214
 20
782.474
 11
-111.478
 21
782.328
  0
LINE
  8
0
 10
-111.478
 20
782.328
 11
-111.758
 21
782.217
  0
LINE
  8
0
 10
-111.758
 20
782.217
 11
-112.05
 21
782.143
  0
LINE
  8
0
 10
-112.05
 20
782.143
 11
-112.349
 21
782.105
  0
LINE
  8
0
 10
-112.349
 20
782.105
 11
-112.651
 21
782.105
  0
LINE
  8
0
 10
115.937
 20
468.089
 11
116.545
 21
468.245
  0
LINE
  8
0
 10
116.545
 20
468.245
 11
117.129
 21
468.476
  0
LINE
  8
0
 10
117.129
 20
468.476
 11
117.679
 21
468.778
  0
LINE
  8
0
 10
117.679
 20
468.778
 11
118.187
 21
469.147
  0
LINE
  8
0
 10
118.187
 20
469.147
 11
118.645
 21
469.577
  0
LINE
  8
0
 10
118.645
 20
469.577
 11
119.045
 21
470.061
  0
LINE
  8
0
 10
119.045
 20
470.061
 11
119.382
 21
470.591
  0
LINE
  8
0
 10
119.382
 20
470.591
 11
119.649
 21
471.159
  0
LINE
  8
0
 10
119.649
 20
471.159
 11
119.843
 21
471.757
  0
LINE
  8
0
 10
119.843
 20
471.757
 11
119.961
 21
472.373
  0
LINE
  8
0
 10
119.961
 20
472.373
 11
120
 21
473
  0
LINE
  8
0
 10
120
 20
473
 11
120
 21
763
  0
LINE
  8
0
 10
120
 20
763
 11
119.961
 21
763.627
  0
LINE
  8
0
 10
119.961
 20
763.627
 11
119.843
 21
764.243
  0
LINE
  8
0
 10
119.843
 20
764.243
 11
119.649
 21
764.841
  0
LINE
  8
0
 10
119.649
 20
764.841
 11
119.382
 21
765.409
  0
LINE
  8
0
 10
119.382
 20
765.409
 11
119.045
 21
765.939
  0
LINE
  8
0
 10
119.045
 20
765.939
 11
118.645
 21
766.423
  0
LINE
  8
0
 10
118.645
 20
766.423
 11
118.187
 21
766.853
  0
LINE
  8
0
 10
118.187
 20
766.853
 11
117.679
 21
767.222
  0
LINE
  8
0
 10
117.679
 20
767.222
 11
117.129
 21
767.524
  0
LINE
  8
0
 10
117.129
 20
767.524
 11
116.545
 21
767.755
  0
LINE
  8
0
 10
116.545
 20
767.755
 11
115.937
 21
767.911
  0
LINE
  8
0
 10
115.937
 20
767.911
 11
115.314
 21
767.99
  0
LINE
  8
0
 10
115.314
 20
767.99
 11
-115.314
 21
767.99
  0
LINE
  8
0
 10
-115.314
 20
767.99
 11
-115.937
 21
767.911
  0
LINE
  8
0
 10
-115.937
 20
767.911
 11
-116.545
 21
767.755
  0
LINE
  8
0
 10
-116.545
 20
767.755
 11
-117.129
 21
767.524
  0
LINE
  8
0
 10
-117.129
 20
767.524
 11
-117.679
 21
767.222
  0
LINE
  8
0
 10
-117.679
 20
767.222
 11
-118.187
 21
766.853
  0
LINE
  8
0
 10
-118.187
 20
766.853
 11
-118.645
 21
766.423
  0
LINE
  8
0
 10
-118.645
 20
766.423
 11
-119.045
 21
765.939
  0
LINE
  8
0
 10
-119.045
 20
765.939
 11
-119.382
 21
765.409
  0
LINE
  8
0
 10
-119.382
 20
765.409
 11
-119.649
 21
764.841
  0
LINE
  8
0
 10
-119.649
 20
764.841
 11
-119.843
 21
764.243
  0
LINE
  8
0
 10
-119.843
 20
764.243
 11
-119.961
 21
763.627
  0
LINE
  8
0
 10
-119.961
 20
763.627
 11
-120
 21
763
  0
LINE
  8
0
 10
-120
 20
763
 11
-120
 21
473
  0
LINE
  8
0
 10
-120
 20
473
 11
-119.961
 21
472.373
  0
LINE
  8
0
 10
-119.961
 20
472.373
 11
-119.843
 21
471.757
  0
LINE
  8
0
 10
-119.843
 20
471.757
 11
-119.649
 21
471.159
  0
LINE
  8
0
 10
-119.649
 20
471.159
 11
-119.382
 21
470.591
  0
LINE
  8
0
 10
-119.382
 20
470.591
 11
-119.045
 21
470.061
  0
LINE
  8
0
 10
-119.045
 20
470.061
 11
-118.645
 21
469.577
  0
LINE
  8
0
 10
-118.645
 20
469.577
 11
-118.187
 21
469.147
  0
LINE
  8
0
 10
-118.187
 20
469.147
 11
-117.679
 21
468.778
  0
LINE
  8
0
 10
-117.679
 20
468.778
 11
-117.129
 21
468.476
  0
LINE
  8
0
 10
-117.129
 20
468.476
 11
-116.545
 21
468.245
  0
LINE
  8
0
 10
-116.545
 20
468.245
 11
-115.937
 21
468.089
  0
LINE
  8
0
 10
-115.937
 20
468.089
 11
-115.314
 21
468.01
  0
LINE
  8
0
 10
-115.314
 20
468.01
 11
115.314
 21
468.01
  0
LINE
  8
0
 10
115.314
 20
468.01
 11
115.937
 21
468.089
  0
LINE
  8
0
 10
112.387
 20
758.704
 11
112.163
 21
758.732
  0
LINE
  8
0
 10
112.163
 20
758.732
 11
111.944
 21
758.788
  0
LINE
  8
0
 10
111.944
 20
758.788
 11
111.734
 21
758.871
  0
LINE
  8
0
 10
111.734
 20
758.871
 11
111.536
 21
758.98
  0
LINE
  8
0
 10
111.536
 20
758.98
 11
111.353
 21
759.113
  0
LINE
  8
0
 10
111.353
 20
759.113
 11
111.188
 21
759.268
  0
LINE
  8
0
 10
111.188
 20
759.268
 11
111.044
 21
759.442
  0
LINE
  8
0
 10
111.044
 20
759.442
 11
110.923
 21
759.633
  0
LINE
  8
0
 10
110.923
 20
759.633
 11
110.826
 21
759.837
  0
LINE
  8
0
 10
110.826
 20
759.837
 11
110.757
 21
760.052
  0
LINE
  8
0
 10
110.757
 20
760.052
 11
110.714
 21
760.274
  0
LINE
  8
0
 10
110.714
 20
760.274
 11
110.7
 21
760.5
  0
LINE
  8
0
 10
110.7
 20
760.5
 11
110.714
 21
760.726
  0
LINE
  8
0
 10
110.714
 20
760.726
 11
110.757
 21
760.948
  0
LINE
  8
0
 10
110.757
 20
760.948
 11
110.826
 21
761.163
  0
LINE
  8
0
 10
110.826
 20
761.163
 11
110.923
 21
761.367
  0
LINE
  8
0
 10
110.923
 20
761.367
 11
111.044
 21
761.558
  0
LINE
  8
0
 10
111.044
 20
761.558
 11
111.188
 21
761.732
  0
LINE
  8
0
 10
111.188
 20
761.732
 11
111.353
 21
761.887
  0
LINE
  8
0
 10
111.353
 20
761.887
 11
111.536
 21
762.02
  0
LINE
  8
0
 10
111.536
 20
762.02
 11
111.734
 21
762.129
  0
LINE
  8
0
 10
111.734
 20
762.129
 11
111.944
 21
762.212
  0
LINE
  8
0
 10
111.944
 20
762.212
 11
112.163
 21
762.268
  0
LINE
  8
0
 10
112.163
 20
762.268
 11
112.387
 21
762.296
  0
LINE
  8
0
 10
112.387
 20
762.296
 11
112.613
 21
762.296
  0
LINE
  8
0
 10
112.613
 20
762.296
 11
112.837
 21
762.268
  0
LINE
  8
0
 10
112.837
 20
762.268
 11
113.056
 21
762.212
  0
LINE
  8
0
 10
113.056
 20
762.212
 11
113.266
 21
762.129
  0
LINE
  8
0
 10
113.266
 20
762.129
 11
113.464
 21
762.02
  0
LINE
  8
0
 10
113.464
 20
762.02
 11
113.647
 21
761.887
  0
LINE
  8
0
 10
113.647
 20
761.887
 11
113.812
 21
761.732
  0
LINE
  8
0
 10
113.812
 20
761.732
 11
113.956
 21
761.558
  0
LINE
  8
0
 10
113.956
 20
761.558
 11
114.077
 21
761.367
  0
LINE
  8
0
 10
114.077
 20
761.367
 11
114.174
 21
761.163
  0
LINE
  8
0
 10
114.174
 20
761.163
 11
114.243
 21
760.948
  0
LINE
  8
0
 10
114.243
 20
760.948
 11
114.286
 21
760.726
  0
LINE
  8
0
 10
114.286
 20
760.726
 11
114.3
 21
760.5
  0
LINE
  8
0
 10
114.3
 20
760.5
 11
114.286
 21
760.274
  0
LINE
  8
0
 10
114.286
 20
760.274
 11
114.243
 21
760.052
  0
LINE
  8
0
 10
114.243
 20
760.052
 11
114.174
 21
759.837
  0
LINE
  8
0
 10
114.174
 20
759.837
 11
114.077
 21
759.633
  0
LINE
  8
0
 10
114.077
 20
759.633
 11
113.956
 21
759.442
  0
LINE
  8
0
 10
113.956
 20
759.442
 11
113.812
 21
759.268
  0
LINE
  8
0
 10
113.812
 20
759.268
 11
113.647
 21
759.113
  0
LINE
  8
0
 10
113.647
 20
759.113
 11
113.464
 21
758.98
  0
LINE
  8
0
 10
113.464
 20
758.98
 11
113.266
 21
758.871
  0
LINE
  8
0
 10
113.266
 20
758.871
 11
113.056
 21
758.788
  0
LINE
  8
0
 10
113.056
 20
758.788
 11
112.837
 21
758.732
  0
LINE
  8
0
 10
112.837
 20
758.732
 11
112.613
 21
758.704
  0
LINE
  8
0
 10
112.613
 20
758.704
 11
112.387
 21
758.704
  0
LINE
  8
0
 10
-112.613
 20
758.704
 11
-112.837
 21
758.732
  0
LINE
  8
0
 10
-112.837
 20
758.732
 11
-113.056
 21
758.788
  0
LINE
  8
0
 10
-113.056
 20
758.788
 11
-113.266
 21
758.871
  0
LINE
  8
0
 10
-113.266
 20
758.871
 11
-113.464
 21
758.98
  0
LINE
  8
0
 10
-113.464
 20
758.98
 11
-113.647
 21
759.113
  0
LINE
  8
0
 10
-113.647
 20
759.113
 11
-113.812
 21
759.268
  0
LINE
  8
0
 10
-113.812
 20
759.268
 11
-113.956
 21
759.442
  0
LINE
  8
0
 10
-113.956
 20
759.442
 11
-114.077
 21
759.633
  0
LINE
  8
0
 10
-114.077
 20
759.633
 11
-114.174
 21
759.837
  0
LINE
  8
0
 10
-114.174
 20
759.837
 11
-114.243
 21
760.052
  0
LINE
  8
0
 10
-114.243
 20
760.052
 11
-114.286
 21
760.274
  0
LINE
  8
0
 10
-114.286
 20
760.274
 11
-114.3
 21
760.5
  0
LINE
  8
0
 10
-114.3
 20
760.5
 11
-114.286
 21
760.726
  0
LINE
  8
0
 10
-114.286
 20
760.726
 11
-114.243
 21
760.948
  0
LINE
  8
0
 10
-114.243
 20
760.948
 11
-114.174
 21
761.163
  0
LINE
  8
0
 10
-114.174
 20
761.163
 11
-114.077
 21
761.367
  0
LINE
  8
0
 10
-114.077
 20
761.367
 11
-113.956
 21
761.558
  0
LINE
  8
0
 10
-113.956
 20
761.558
 11
-113.812
 21
761.732
  0
LINE
  8
0
 10
-113.812
 20
761.732
 11
-113.647
 21
761.887
  0
LINE
  8
0
 10
-113.647
 20
761.887
 11
-113.464
 21
762.02
  0
LINE
  8
0
 10
-113.464
 20
762.02
 11
-113.266
 21
762.129
  0
LINE
  8
0
 10
-113.266
 20
762.129
 11
-113.056
 21
762.212
  0
LINE
  8
0
 10
-113.056
 20
762.212
 11
-112.837
 21
762.268
  0
LINE
  8
0
 10
-112.837
 20
762.268
 11
-112.613
 21
762.296
  0
LINE
  8
0
 10
-112.613
 20
762.296
 11
-112.387
 21
762.296
  0
LINE
  8
0
 10
-112.387
 20
762.296
 11
-112.163
 21
762.268
  0
LINE
  8
0
 10
-112.163
 20
762.268
 11
-111.944
 21
762.212
  0
LINE
  8
0
 10
-111.944
 20
762.212
 11
-111.734
 21
762.129
  0
LINE
  8
0
 10
-111.734
 20
762.129
 11
-111.536
 21
762.02
  0
LINE
  8
0
 10
-111.536
 20
762.02
 11
-111.353
 21
761.887
  0
LINE
  8
0
 10
-111.353
 20
761.887
 11
-111.188
 21
761.732
  0
LINE
  8
0
 10
-111.188
 20
761.732
 11
-111.044
 21
761.558
  0
LINE
  8
0
 10
-111.044
 20
761.558
 11
-110.923
 21
761.367
  0
LINE
  8
0
 10
-110.923
 20
761.367
 11
-110.826
 21
761.163
  0
LINE
  8
0
 10
-110.826
 20
761.163
 11
-110.757
 21
760.948
  0
LINE
  8
0
 10
-110.757
 20
760.948
 11
-110.714
 21
760.726
  0
LINE
  8
0
 10
-110.714
 20
760.726
 11
-110.7
 21
760.5
  0
LINE
  8
0
 10
-110.7
 20
760.5
 11
-110.714
 21
760.274
  0
LINE
  8
0
 10
-110.714
 20
760.274
 11
-110.757
 21
760.052
  0
LINE
  8
0
 10
-110.757
 20
760.052
 11
-110.826
 21
759.837
  0
LINE
  8
0
 10
-110.826
 20
759.837
 11
-110.923
 21
759.633
  0
LINE
  8
0
 10
-110.923
 20
759.633
 11
-111.044
 21
759.442
  0
LINE
  8
0
 10
-111.044
 20
759.442
 11
-111.188
 21
759.268
  0
LINE
  8
0
 10
-111.188
 20
759.268
 11
-111.353
 21
759.113
  0
LINE
  8
0
 10
-111.353
 20
759.113
 11
-111.536
 21
758.98
  0
LINE
  8
0
 10
-111.536
 20
758.98
 11
-111.734
 21
758.871
  0
LINE
  8
0
 10
-111.734
 20
758.871
 11
-111.944
 21
758.788
  0
LINE
  8
0
 10
-111.944
 20
758.788
 11
-112.163
 21
758.732
  0
LINE
  8
0
 10
-112.163
 20
758.732
 11
-112.387
 21
758.704
  0
LINE
  8
0
 10
-112.387
 20
758.704
 11
-112.613
 21
758.704
  0
LINE
  8
0
 10
-112.613
 20
473.704
 11
-112.837
 21
473.732
  0
LINE
  8
0
 10
-112.837
 20
473.732
 11
-113.056
 21
473.788
  0
LINE
  8
0
 10
-113.056
 20
473.788
 11
-113.266
 21
473.871
  0
LINE
  8
0
 10
-113.266
 20
473.871
 11
-113.464
 21
473.98
  0
LINE
  8
0
 10
-113.464
 20
473.98
 11
-113.647
 21
474.113
  0
LINE
  8
0
 10
-113.647
 20
474.113
 11
-113.812
 21
474.268
  0
LINE
  8
0
 10
-113.812
 20
474.268
 11
-113.956
 21
474.442
  0
LINE
  8
0
 10
-113.956
 20
474.442
 11
-114.077
 21
474.633
  0
LINE
  8
0
 10
-114.077
 20
474.633
 11
-114.174
 21
474.837
  0
LINE
  8
0
 10
-114.174
 20
474.837
 11
-114.243
 21
475.052
  0
LINE
  8
0
 10
-114.243
 20
475.052
 11
-114.286
 21
475.274
  0
LINE
  8
0
 10
-114.286
 20
475.274
 11
-114.3
 21
475.5
  0
LINE
  8
0
 10
-114.3
 20
475.5
 11
-114.286
 21
475.726
  0
LINE
  8
0
 10
-114.286
 20
475.726
 11
-114.243
 21
475.948
  0
LINE
  8
0
 10
-114.243
 20
475.948
 11
-114.174
 21
476.163
  0
LINE
  8
0
 10
-114.174
 20
476.163
 11
-114.077
 21
476.367
  0
LINE
  8
0
 10
-114.077
 20
476.367
 11
-113.956
 21
476.558
  0
LINE
  8
0
 10
-113.956
 20
476.558
 11
-113.812
 21
476.732
  0
LINE
  8
0
 10
-113.812
 20
476.732
 11
-113.647
 21
476.887
  0
LINE
  8
0
 10
-113.647
 20
476.887
 11
-113.464
 21
477.02
  0
LINE
  8
0
 10
-113.464
 20
477.02
 11
-113.266
 21
477.129
  0
LINE
  8
0
 10
-113.266
 20
477.129
 11
-113.056
 21
477.212
  0
LINE
  8
0
 10
-113.056
 20
477.212
 11
-112.837
 21
477.268
  0
LINE
  8
0
 10
-112.837
 20
477.268
 11
-112.613
 21
477.296
  0
LINE
  8
0
 10
-112.613
 20
477.296
 11
-112.387
 21
477.296
  0
LINE
  8
0
 10
-112.387
 20
477.296
 11
-112.163
 21
477.268
  0
LINE
  8
0
 10
-112.163
 20
477.268
 11
-111.944
 21
477.212
  0
LINE
  8
0
 10
-111.944
 20
477.212
 11
-111.734
 21
477.129
  0
LINE
  8
0
 10
-111.734
 20
477.129
 11
-111.536
 21
477.02
  0
LINE
  8
0
 10
-111.536
 20
477.02
 11
-111.353
 21
476.887
  0
LINE
  8
0
 10
-111.353
 20
476.887
 11
-111.188
 21
476.732
  0
LINE
  8
0
 10
-111.188
 20
476.732
 11
-111.044
 21
476.558
  0
LINE
  8
0
 10
-111.044
 20
476.558
 11
-110.923
 21
476.367
  0
LINE
  8
0
 10
-110.923
 20
476.367
 11
-110.826
 21
476.163
  0
LINE
  8
0
 10
-110.826
 20
476.163
 11
-110.757
 21
475.948
  0
LINE
  8
0
 10
-110.757
 20
475.948
 11
-110.714
 21
475.726
  0
LINE
  8
0
 10
-110.714
 20
475.726
 11
-110.7
 21
475.5
  0
LINE
  8
0
 10
-110.7
 20
475.5
 11
-110.714
 21
475.274
  0
LINE
  8
0
 10
-110.714
 20
475.274
 11
-110.757
 21
475.052
  0
LINE
  8
0
 10
-110.757
 20
475.052
 11
-110.826
 21
474.837
  0
LINE
  8
0
 10
-110.826
 20
474.837
 11
-110.923
 21
474.633
  0
LINE
  8
0
 10
-110.923
 20
474.633
 11
-111.044
 21
474.442
  0
LINE
  8
0
 10
-111.044
 20
474.442
 11
-111.188
 21
474.268
  0
LINE
  8
0
 10
-111.188
 20
474.268
 11
-111.353
 21
474.113
  0
LINE
  8
0
 10
-111.353
 20
474.113
 11
-111.536
 21
473.98
  0
LINE
  8
0
 10
-111.536
 20
473.98
 11
-111.734
 21
473.871
  0
LINE
  8
0
 10
-111.734
 20
473.871
 11
-111.944
 21
473.788
  0
LINE
  8
0
 10
-111.944
 20
473.788
 11
-112.163
 21
473.732
  0
LINE
  8
0
 10
-112.163
 20
473.732
 11
-112.387
 21
473.704
  0
LINE
  8
0
 10
-112.387
 20
473.704
 11
-112.613
 21
473.704
  0
LINE
  8
0
 10
112.387
 20
473.704
 11
112.163
 21
473.732
  0
LINE
  8
0
 10
112.163
 20
473.732
 11
111.944
 21
473.788
  0
LINE
  8
0
 10
111.944
 20
473.788
 11
111.734
 21
473.871
  0
LINE
  8
0
 10
111.734
 20
473.871
 11
111.536
 21
473.98
  0
LINE
  8
0
 10
111.536
 20
473.98
 11
111.353
 21
474.113
  0
LINE
  8
0
 10
111.353
 20
474.113
 11
111.188
 21
474.268
  0
LINE
  8
0
 10
111.188
 20
474.268
 11
111.044
 21
474.442
  0
LINE
  8
0
 10
111.044
 20
474.442
 11
110.923
 21
474.633
  0
LINE
  8
0
 10
110.923
 20
474.633
 11
110.826
 21
474.837
  0
LINE
  8
0
 10
110.826
 20
474.837
 11
110.757
 21
475.052
  0
LINE
  8
0
 10
110.757
 20
475.052
 11
110.714
 21
475.274
  0
LINE
  8
0
 10
110.714
 20
475.274
 11
110.7
 21
475.5
  0
LINE
  8
0
 10
110.7
 20
475.5
 11
110.714
 21
475.726
  0
LINE
  8
0
 10
110.714
 20
475.726
 11
110.757
 21
475.948
  0
LINE
  8
0
 10
110.757
 20
475.948
 11
110.826
 21
476.163
  0
LINE
  8
0
 10
110.826
 20
476.163
 11
110.923
 21
476.367
  0
LINE
  8
0
 10
110.923
 20
476.367
 11
111.044
 21
476.558
  0
LINE
  8
0
 10
111.044
 20
476.558
 11
111.188
 21
476.732
  0
LINE
  8
0
 10
111.188
 20
476.732
 11
111.353
 21
476.887
  0
LINE
  8
0
 10
111.353
 20
476.887
 11
111.536
 21
477.02
  0
LINE
  8
0
 10
111.536
 20
477.02
 11
111.734
 21
477.129
  0
LINE
  8
0
 10
111.734
 20
477.129
 11
111.944
 21
477.212
  0
LINE
  8
0
 10
111.944
 20
477.212
 11
112.163
 21
477.268
  0
LINE
  8
0
 10
112.163
 20
477.268
 11
112.387
 21
477.296
  0
LINE
  8
0
 10
112.387
 20
477.296
 11
112.613
 21
477.296
  0
LINE
  8
0
 10
112.613
 20
477.296
 11
112.837
 21
477.268
  0
LINE
  8
0
 10
112.837
 20
477.268
 11
113.056
 21
477.212
  0
LINE
  8
0
 10
113.056
 20
477.212
 11
113.266
 21
477.129
  0
LINE
  8
0
 10
113.266
 20
477.129
 11
113.464
 21
477.02
  0
LINE
  8
0
 10
113.464
 20
477.02
 11
113.647
 21
476.887
  0
LINE
  8
0
 10
113.647
 20
476.887
 11
113.812
 21
476.732
  0
LINE
  8
0
 10
113.812
 20
476.732
 11
113.956
 21
476.558
  0
LINE
  8
0
 10
113.956
 20
476.558
 11
114.077
 21
476.367
  0
LINE
  8
0
 10
114.077
 20
476.367
 11
114.174
 21
476.163
  0
LINE
  8
0
 10
114.174
 20
476.163
 11
114.243
 21
475.948
  0
LINE
  8
0
 10
114.243
 20
475.948
 11
114.286
 21
475.726
  0
LINE
  8
0
 10
114.286
 20
475.726
 11
114.3
 21
475.5
  0
LINE
  8
0
 10
114.3
 20
475.5
 11
114.286
 21
475.274
  0
LINE
  8
0
 10
114.286
 20
475.274
 11
114.243
 21
475.052
  0
LINE
  8
0
 10
114.243
 20
475.052
 11
114.174
 21
474.837
  0
LINE
  8
0
 10
114.174
 20
474.837
 11
114.077
 21
474.633
  0
LINE
  8
0
 10
114.077
 20
474.633
 11
113.956
 21
474.442
  0
LINE
  8
0
 10
113.956
 20
474.442
 11
113.812
 21
474.268
  0
LINE
  8
0
 10
113.812
 20
474.268
 11
113.647
 21
474.113
  0
LINE
  8
0
 10
113.647
 20
474.113
 11
113.464
 21
473.98
  0
LINE
  8
0
 10
113.464
 20
473.98
 11
113.266
 21
473.871
  0
LINE
  8
0
 10
113.266
 20
473.871
 11
113.056
 21
473.788
  0
LINE
  8
0
 10
113.056
 20
473.788
 11
112.837
 21
473.732
  0
LINE
  8
0
 10
112.837
 20
473.732
 11
112.613
 21
473.704
  0
LINE
  8
0
 10
112.613
 20
473.704
 11
112.387
 21
473.704
  0
ENDSEC
  0
SECTION
  2
OBJECTS
  0
DICTIONARY
  0
ENDSEC
  0
EOF
