<?xml version="1.0" standalone="no"?>
<!DOCTYPE svg PUBLIC "-//W3C//DTD SVG 1.1//EN" "http://www.w3.org/Graphics/SVG/1.1/DTD/svg11.dtd">
<svg width="286mm" height="147mm" viewBox="-143 -249 286 147" xmlns="http://www.w3.org/2000/svg" version="1.1">
<title>OpenSCAD Model</title>
<path d="
M 138.437,-219.089 L 139.045,-219.245 L 139.629,-219.476 L 140.179,-219.778 L 140.687,-220.147 L 141.145,-220.577
 L 141.545,-221.061 L 141.882,-221.591 L 142.149,-222.159 L 142.343,-222.757 L 142.461,-223.373 L 142.5,-224
 L 142.5,-244 L 142.461,-244.627 L 142.343,-245.243 L 142.149,-245.841 L 141.882,-246.409 L 141.545,-246.939
 L 141.145,-247.423 L 140.687,-247.853 L 140.179,-248.222 L 139.629,-248.524 L 139.045,-248.755 L 138.437,-248.911
 L 137.814,-248.99 L -137.814,-248.99 L -138.437,-248.911 L -139.045,-248.755 L -139.629,-248.524 L -140.179,-248.222
 L -140.687,-247.853 L -141.145,-247.423 L -141.545,-246.939 L -141.882,-246.409 L -142.149,-245.841 L -142.343,-245.243
 L -142.461,-244.627 L -142.5,-244 L -142.5,-224 L -142.461,-223.373 L -142.343,-222.757 L -142.149,-222.159
 L -141.882,-221.591 L -141.545,-221.061 L -141.145,-220.577 L -140.687,-220.147 L -140.179,-219.778 L -139.629,-219.476
 L -139.045,-219.245 L -138.437,-219.089 L -137.814,-219.01 L 137.814,-219.01 z
M -137.548,-219.509 L -138.14,-219.584 L -138.718,-219.732 L -139.272,-219.952 L -139.795,-220.239 L -140.278,-220.59
 L -140.713,-220.998 L -141.093,-221.458 L -141.412,-221.962 L -141.666,-222.501 L -141.851,-223.069 L -141.963,-223.655
 L -142,-224.25 L -142,-243.75 L -141.963,-244.345 L -141.851,-244.931 L -141.666,-245.499 L -141.412,-246.038
 L -141.093,-246.542 L -140.713,-247.002 L -140.278,-247.41 L -139.795,-247.761 L -139.272,-248.048 L -138.718,-248.268
 L -138.14,-248.416 L -137.548,-248.491 L 137.548,-248.491 L 138.14,-248.416 L 138.718,-248.268 L 139.272,-248.048
 L 139.795,-247.761 L 140.278,-247.41 L 140.713,-247.002 L 141.093,-246.542 L 141.412,-246.038 L 141.666,-245.499
 L 141.851,-244.931 L 141.963,-244.345 L 142,-243.75 L 142,-224.25 L 141.963,-223.655 L 141.851,-223.069
 L 141.666,-222.501 L 141.412,-221.962 L 141.093,-221.458 L 140.713,-220.998 L 140.278,-220.59 L 139.795,-220.239
 L 139.272,-219.952 L 138.718,-219.732 L 138.14,-219.584 L 137.548,-219.509 z
M 138.437,-180.089 L 139.045,-180.245 L 139.629,-180.476 L 140.179,-180.778 L 140.687,-181.147 L 141.145,-181.577
 L 141.545,-182.061 L 141.882,-182.591 L 142.149,-183.159 L 142.343,-183.757 L 142.461,-184.373 L 142.5,-185
 L 142.5,-205 L 142.461,-205.627 L 142.343,-206.243 L 142.149,-206.841 L 141.882,-207.409 L 141.545,-207.939
 L 141.145,-208.423 L 140.687,-208.853 L 140.179,-209.222 L 139.629,-209.524 L 139.045,-209.755 L 138.437,-209.911
 L 137.814,-209.99 L -137.814,-209.99 L -138.437,-209.911 L -139.045,-209.755 L -139.629,-209.524 L -140.179,-209.222
 L -140.687,-208.853 L -141.145,-208.423 L -141.545,-207.939 L -141.882,-207.409 L -142.149,-206.841 L -142.343,-206.243
 L -142.461,-205.627 L -142.5,-205 L -142.5,-185 L -142.461,-184.373 L -142.343,-183.757 L -142.149,-183.159
 L -141.882,-182.591 L -141.545,-182.061 L -141.145,-181.577 L -140.687,-181.147 L -140.179,-180.778 L -139.629,-180.476
 L -139.045,-180.245 L -138.437,-180.089 L -137.814,-180.01 L 137.814,-180.01 z
M -137.548,-180.509 L -138.14,-180.584 L -138.718,-180.732 L -139.272,-180.952 L -139.795,-181.239 L -140.278,-181.59
 L -140.713,-181.998 L -141.093,-182.458 L -141.412,-182.962 L -141.666,-183.501 L -141.851,-184.069 L -141.963,-184.655
 L -142,-185.25 L -142,-204.75 L -141.963,-205.345 L -141.851,-205.931 L -141.666,-206.499 L -141.412,-207.038
 L -141.093,-207.542 L -140.713,-208.002 L -140.278,-208.41 L -139.795,-208.761 L -139.272,-209.048 L -138.718,-209.268
 L -138.14,-209.416 L -137.548,-209.491 L 137.548,-209.491 L 138.14,-209.416 L 138.718,-209.268 L 139.272,-209.048
 L 139.795,-208.761 L 140.278,-208.41 L 140.713,-208.002 L 141.093,-207.542 L 141.412,-207.038 L 141.666,-206.499
 L 141.851,-205.931 L 141.963,-205.345 L 142,-204.75 L 142,-185.25 L 141.963,-184.655 L 141.851,-184.069
 L 141.666,-183.501 L 141.412,-182.962 L 141.093,-182.458 L 140.713,-181.998 L 140.278,-181.59 L 139.795,-181.239
 L 139.272,-180.952 L 138.718,-180.732 L 138.14,-180.584 L 137.548,-180.509 z
M 138.437,-141.089 L 139.045,-141.245 L 139.629,-141.476 L 140.179,-141.778 L 140.687,-142.147 L 141.145,-142.577
 L 141.545,-143.061 L 141.882,-143.591 L 142.149,-144.159 L 142.343,-144.757 L 142.461,-145.373 L 142.5,-146
 L 142.5,-166 L 142.461,-166.627 L 142.343,-167.243 L 142.149,-167.841 L 141.882,-168.409 L 141.545,-168.939
 L 141.145,-169.423 L 140.687,-169.853 L 140.179,-170.222 L 139.629,-170.524 L 139.045,-170.755 L 138.437,-170.911
 L 137.814,-170.99 L -137.814,-170.99 L -138.437,-170.911 L -139.045,-170.755 L -139.629,-170.524 L -140.179,-170.222
 L -140.687,-169.853 L -141.145,-169.423 L -141.545,-168.939 L -141.882,-168.409 L -142.149,-167.841 L -142.343,-167.243
 L -142.461,-166.627 L -142.5,-166 L -142.5,-146 L -142.461,-145.373 L -142.343,-144.757 L -142.149,-144.159
 L -141.882,-143.591 L -141.545,-143.061 L -141.145,-142.577 L -140.687,-142.147 L -140.179,-141.778 L -139.629,-141.476
 L -139.045,-141.245 L -138.437,-141.089 L -137.814,-141.01 L 137.814,-141.01 z
M -137.493,-142.388 L -137.975,-142.449 L -138.446,-142.57 L -138.898,-142.749 L -139.323,-142.983 L -139.716,-143.269
 L -140.071,-143.601 L -140.38,-143.976 L -140.641,-144.386 L -140.848,-144.826 L -140.998,-145.288 L -141.089,-145.765
 L -141.119,-146.25 L -141.119,-165.75 L -141.089,-166.235 L -140.998,-166.712 L -140.848,-167.174 L -140.641,-167.614
 L -140.38,-168.024 L -140.071,-168.399 L -139.716,-168.731 L -139.323,-169.017 L -138.898,-169.251 L -138.446,-169.43
 L -137.975,-169.551 L -137.493,-169.612 L 137.493,-169.612 L 137.975,-169.551 L 138.446,-169.43 L 138.898,-169.251
 L 139.323,-169.017 L 139.716,-168.731 L 140.071,-168.399 L 140.38,-168.024 L 140.641,-167.614 L 140.848,-167.174
 L 140.998,-166.712 L 141.089,-166.235 L 141.119,-165.75 L 141.119,-146.25 L 141.089,-145.765 L 140.998,-145.288
 L 140.848,-144.826 L 140.641,-144.386 L 140.38,-143.976 L 140.071,-143.601 L 139.716,-143.269 L 139.323,-142.983
 L 138.898,-142.749 L 138.446,-142.57 L 137.975,-142.449 L 137.493,-142.388 z
M 138.437,-102.089 L 139.045,-102.245 L 139.629,-102.476 L 140.179,-102.778 L 140.687,-103.147 L 141.145,-103.577
 L 141.545,-104.061 L 141.882,-104.591 L 142.149,-105.159 L 142.343,-105.757 L 142.461,-106.373 L 142.5,-107
 L 142.5,-127 L 142.461,-127.627 L 142.343,-128.243 L 142.149,-128.841 L 141.882,-129.409 L 141.545,-129.939
 L 141.145,-130.423 L 140.687,-130.853 L 140.179,-131.222 L 139.629,-131.524 L 139.045,-131.755 L 138.437,-131.911
 L 137.814,-131.99 L -137.814,-131.99 L -138.437,-131.911 L -139.045,-131.755 L -139.629,-131.524 L -140.179,-131.222
 L -140.687,-130.853 L -141.145,-130.423 L -141.545,-129.939 L -141.882,-129.409 L -142.149,-128.841 L -142.343,-128.243
 L -142.461,-127.627 L -142.5,-127 L -142.5,-107 L -142.461,-106.373 L -142.343,-105.757 L -142.149,-105.159
 L -141.882,-104.591 L -141.545,-104.061 L -141.145,-103.577 L -140.687,-103.147 L -140.179,-102.778 L -139.629,-102.476
 L -139.045,-102.245 L -138.437,-102.089 L -137.814,-102.01 L 137.814,-102.01 z
M 134.887,-122.704 L 134.663,-122.732 L 134.444,-122.788 L 134.234,-122.871 L 134.036,-122.98 L 133.853,-123.113
 L 133.688,-123.268 L 133.544,-123.442 L 133.423,-123.633 L 133.326,-123.837 L 133.257,-124.052 L 133.214,-124.274
 L 133.2,-124.5 L 133.214,-124.726 L 133.257,-124.948 L 133.326,-125.163 L 133.423,-125.367 L 133.544,-125.558
 L 133.688,-125.732 L 133.853,-125.887 L 134.036,-126.02 L 134.234,-126.129 L 134.444,-126.212 L 134.663,-126.268
 L 134.887,-126.296 L 135.113,-126.296 L 135.337,-126.268 L 135.556,-126.212 L 135.766,-126.129 L 135.964,-126.02
 L 136.147,-125.887 L 136.312,-125.732 L 136.456,-125.558 L 136.577,-125.367 L 136.674,-125.163 L 136.743,-124.948
 L 136.786,-124.726 L 136.8,-124.5 L 136.786,-124.274 L 136.743,-124.052 L 136.674,-123.837 L 136.577,-123.633
 L 136.456,-123.442 L 136.312,-123.268 L 136.147,-123.113 L 135.964,-122.98 L 135.766,-122.871 L 135.556,-122.788
 L 135.337,-122.732 L 135.113,-122.704 z
M -135.113,-122.704 L -135.337,-122.732 L -135.556,-122.788 L -135.766,-122.871 L -135.964,-122.98 L -136.147,-123.113
 L -136.312,-123.268 L -136.456,-123.442 L -136.577,-123.633 L -136.674,-123.837 L -136.743,-124.052 L -136.786,-124.274
 L -136.8,-124.5 L -136.786,-124.726 L -136.743,-124.948 L -136.674,-125.163 L -136.577,-125.367 L -136.456,-125.558
 L -136.312,-125.732 L -136.147,-125.887 L -135.964,-126.02 L -135.766,-126.129 L -135.556,-126.212 L -135.337,-126.268
 L -135.113,-126.296 L -134.887,-126.296 L -134.663,-126.268 L -134.444,-126.212 L -134.234,-126.129 L -134.036,-126.02
 L -133.853,-125.887 L -133.688,-125.732 L -133.544,-125.558 L -133.423,-125.367 L -133.326,-125.163 L -133.257,-124.948
 L -133.214,-124.726 L -133.2,-124.5 L -133.214,-124.274 L -133.257,-124.052 L -133.326,-123.837 L -133.423,-123.633
 L -133.544,-123.442 L -133.688,-123.268 L -133.853,-123.113 L -134.036,-122.98 L -134.234,-122.871 L -134.444,-122.788
 L -134.663,-122.732 L -134.887,-122.704 z
M 134.887,-107.704 L 134.663,-107.732 L 134.444,-107.788 L 134.234,-107.871 L 134.036,-107.98 L 133.853,-108.113
 L 133.688,-108.268 L 133.544,-108.442 L 133.423,-108.633 L 133.326,-108.837 L 133.257,-109.052 L 133.214,-109.274
 L 133.2,-109.5 L 133.214,-109.726 L 133.257,-109.948 L 133.326,-110.163 L 133.423,-110.367 L 133.544,-110.558
 L 133.688,-110.732 L 133.853,-110.887 L 134.036,-111.02 L 134.234,-111.129 L 134.444,-111.212 L 134.663,-111.268
 L 134.887,-111.296 L 135.113,-111.296 L 135.337,-111.268 L 135.556,-111.212 L 135.766,-111.129 L 135.964,-111.02
 L 136.147,-110.887 L 136.312,-110.732 L 136.456,-110.558 L 136.577,-110.367 L 136.674,-110.163 L 136.743,-109.948
 L 136.786,-109.726 L 136.8,-109.5 L 136.786,-109.274 L 136.743,-109.052 L 136.674,-108.837 L 136.577,-108.633
 L 136.456,-108.442 L 136.312,-108.268 L 136.147,-108.113 L 135.964,-107.98 L 135.766,-107.871 L 135.556,-107.788
 L 135.337,-107.732 L 135.113,-107.704 z
M -135.113,-107.704 L -135.337,-107.732 L -135.556,-107.788 L -135.766,-107.871 L -135.964,-107.98 L -136.147,-108.113
 L -136.312,-108.268 L -136.456,-108.442 L -136.577,-108.633 L -136.674,-108.837 L -136.743,-109.052 L -136.786,-109.274
 L -136.8,-109.5 L -136.786,-109.726 L -136.743,-109.948 L -136.674,-110.163 L -136.577,-110.367 L -136.456,-110.558
 L -136.312,-110.732 L -136.147,-110.887 L -135.964,-111.02 L -135.766,-111.129 L -135.556,-111.212 L -135.337,-111.268
 L -135.113,-111.296 L -134.887,-111.296 L -134.663,-111.268 L -134.444,-111.212 L -134.234,-111.129 L -134.036,-111.02
 L -133.853,-110.887 L -133.688,-110.732 L -133.544,-110.558 L -133.423,-110.367 L -133.326,-110.163 L -133.257,-109.948
 L -133.214,-109.726 L -133.2,-109.5 L -133.214,-109.274 L -133.257,-109.052 L -133.326,-108.837 L -133.423,-108.633
 L -133.544,-108.442 L -133.688,-108.268 L -133.853,-108.113 L -134.036,-107.98 L -134.234,-107.871 L -134.444,-107.788
 L -134.663,-107.732 L -134.887,-107.704 z
" stroke="black" fill="lightgray" stroke-width="0.5"/>
</svg>
