  0
SECTION
  2
BLOCKS
  0
ENDSEC
  0
SECTION
  2
ENTITIES
  0
LINE
  8
0
 10
130.937
 20
1428.09
 11
131.545
 21
1428.24
  0
LINE
  8
0
 10
131.545
 20
1428.24
 11
132.129
 21
1428.48
  0
LINE
  8
0
 10
132.129
 20
1428.48
 11
132.679
 21
1428.78
  0
LINE
  8
0
 10
132.679
 20
1428.78
 11
133.187
 21
1429.15
  0
LINE
  8
0
 10
133.187
 20
1429.15
 11
133.645
 21
1429.58
  0
LINE
  8
0
 10
133.645
 20
1429.58
 11
134.045
 21
1430.06
  0
LINE
  8
0
 10
134.045
 20
1430.06
 11
134.382
 21
1430.59
  0
LINE
  8
0
 10
134.382
 20
1430.59
 11
134.649
 21
1431.16
  0
LINE
  8
0
 10
134.649
 20
1431.16
 11
134.843
 21
1431.76
  0
LINE
  8
0
 10
134.843
 20
1431.76
 11
134.961
 21
1432.37
  0
LINE
  8
0
 10
134.961
 20
1432.37
 11
135
 21
1433
  0
LINE
  8
0
 10
135
 20
1433
 11
135
 21
1633
  0
LINE
  8
0
 10
135
 20
1633
 11
134.961
 21
1633.63
  0
LINE
  8
0
 10
134.961
 20
1633.63
 11
134.843
 21
1634.24
  0
LINE
  8
0
 10
134.843
 20
1634.24
 11
134.649
 21
1634.84
  0
LINE
  8
0
 10
134.649
 20
1634.84
 11
134.382
 21
1635.41
  0
LINE
  8
0
 10
134.382
 20
1635.41
 11
134.045
 21
1635.94
  0
LINE
  8
0
 10
134.045
 20
1635.94
 11
133.645
 21
1636.42
  0
LINE
  8
0
 10
133.645
 20
1636.42
 11
133.187
 21
1636.85
  0
LINE
  8
0
 10
133.187
 20
1636.85
 11
132.679
 21
1637.22
  0
LINE
  8
0
 10
132.679
 20
1637.22
 11
132.129
 21
1637.52
  0
LINE
  8
0
 10
132.129
 20
1637.52
 11
131.545
 21
1637.76
  0
LINE
  8
0
 10
131.545
 20
1637.76
 11
130.937
 21
1637.91
  0
LINE
  8
0
 10
130.937
 20
1637.91
 11
130.314
 21
1637.99
  0
LINE
  8
0
 10
130.314
 20
1637.99
 11
-130.314
 21
1637.99
  0
LINE
  8
0
 10
-130.314
 20
1637.99
 11
-130.937
 21
1637.91
  0
LINE
  8
0
 10
-130.937
 20
1637.91
 11
-131.545
 21
1637.76
  0
LINE
  8
0
 10
-131.545
 20
1637.76
 11
-132.129
 21
1637.52
  0
LINE
  8
0
 10
-132.129
 20
1637.52
 11
-132.679
 21
1637.22
  0
LINE
  8
0
 10
-132.679
 20
1637.22
 11
-133.187
 21
1636.85
  0
LINE
  8
0
 10
-133.187
 20
1636.85
 11
-133.645
 21
1636.42
  0
LINE
  8
0
 10
-133.645
 20
1636.42
 11
-134.045
 21
1635.94
  0
LINE
  8
0
 10
-134.045
 20
1635.94
 11
-134.382
 21
1635.41
  0
LINE
  8
0
 10
-134.382
 20
1635.41
 11
-134.649
 21
1634.84
  0
LINE
  8
0
 10
-134.649
 20
1634.84
 11
-134.843
 21
1634.24
  0
LINE
  8
0
 10
-134.843
 20
1634.24
 11
-134.961
 21
1633.63
  0
LINE
  8
0
 10
-134.961
 20
1633.63
 11
-135
 21
1633
  0
LINE
  8
0
 10
-135
 20
1633
 11
-135
 21
1433
  0
LINE
  8
0
 10
-135
 20
1433
 11
-134.961
 21
1432.37
  0
LINE
  8
0
 10
-134.961
 20
1432.37
 11
-134.843
 21
1431.76
  0
LINE
  8
0
 10
-134.843
 20
1431.76
 11
-134.649
 21
1431.16
  0
LINE
  8
0
 10
-134.649
 20
1431.16
 11
-134.382
 21
1430.59
  0
LINE
  8
0
 10
-134.382
 20
1430.59
 11
-134.045
 21
1430.06
  0
LINE
  8
0
 10
-134.045
 20
1430.06
 11
-133.645
 21
1429.58
  0
LINE
  8
0
 10
-133.645
 20
1429.58
 11
-133.187
 21
1429.15
  0
LINE
  8
0
 10
-133.187
 20
1429.15
 11
-132.679
 21
1428.78
  0
LINE
  8
0
 10
-132.679
 20
1428.78
 11
-132.129
 21
1428.48
  0
LINE
  8
0
 10
-132.129
 20
1428.48
 11
-131.545
 21
1428.24
  0
LINE
  8
0
 10
-131.545
 20
1428.24
 11
-130.937
 21
1428.09
  0
LINE
  8
0
 10
-130.937
 20
1428.09
 11
-130.314
 21
1428.01
  0
LINE
  8
0
 10
-130.314
 20
1428.01
 11
130.314
 21
1428.01
  0
LINE
  8
0
 10
130.314
 20
1428.01
 11
130.937
 21
1428.09
  0
LINE
  8
0
 10
-130.048
 20
1428.51
 11
-130.64
 21
1428.58
  0
LINE
  8
0
 10
-130.64
 20
1428.58
 11
-131.218
 21
1428.73
  0
LINE
  8
0
 10
-131.218
 20
1428.73
 11
-131.772
 21
1428.95
  0
LINE
  8
0
 10
-131.772
 20
1428.95
 11
-132.295
 21
1429.24
  0
LINE
  8
0
 10
-132.295
 20
1429.24
 11
-132.778
 21
1429.59
  0
LINE
  8
0
 10
-132.778
 20
1429.59
 11
-133.213
 21
1430
  0
LINE
  8
0
 10
-133.213
 20
1430
 11
-133.593
 21
1430.46
  0
LINE
  8
0
 10
-133.593
 20
1430.46
 11
-133.912
 21
1430.96
  0
LINE
  8
0
 10
-133.912
 20
1430.96
 11
-134.166
 21
1431.5
  0
LINE
  8
0
 10
-134.166
 20
1431.5
 11
-134.351
 21
1432.07
  0
LINE
  8
0
 10
-134.351
 20
1432.07
 11
-134.463
 21
1432.65
  0
LINE
  8
0
 10
-134.463
 20
1432.65
 11
-134.5
 21
1433.25
  0
LINE
  8
0
 10
-134.5
 20
1433.25
 11
-134.5
 21
1632.75
  0
LINE
  8
0
 10
-134.5
 20
1632.75
 11
-134.463
 21
1633.35
  0
LINE
  8
0
 10
-134.463
 20
1633.35
 11
-134.351
 21
1633.93
  0
LINE
  8
0
 10
-134.351
 20
1633.93
 11
-134.166
 21
1634.5
  0
LINE
  8
0
 10
-134.166
 20
1634.5
 11
-133.912
 21
1635.04
  0
LINE
  8
0
 10
-133.912
 20
1635.04
 11
-133.593
 21
1635.54
  0
LINE
  8
0
 10
-133.593
 20
1635.54
 11
-133.213
 21
1636
  0
LINE
  8
0
 10
-133.213
 20
1636
 11
-132.778
 21
1636.41
  0
LINE
  8
0
 10
-132.778
 20
1636.41
 11
-132.295
 21
1636.76
  0
LINE
  8
0
 10
-132.295
 20
1636.76
 11
-131.772
 21
1637.05
  0
LINE
  8
0
 10
-131.772
 20
1637.05
 11
-131.218
 21
1637.27
  0
LINE
  8
0
 10
-131.218
 20
1637.27
 11
-130.64
 21
1637.42
  0
LINE
  8
0
 10
-130.64
 20
1637.42
 11
-130.048
 21
1637.49
  0
LINE
  8
0
 10
-130.048
 20
1637.49
 11
130.048
 21
1637.49
  0
LINE
  8
0
 10
130.048
 20
1637.49
 11
130.64
 21
1637.42
  0
LINE
  8
0
 10
130.64
 20
1637.42
 11
131.218
 21
1637.27
  0
LINE
  8
0
 10
131.218
 20
1637.27
 11
131.772
 21
1637.05
  0
LINE
  8
0
 10
131.772
 20
1637.05
 11
132.295
 21
1636.76
  0
LINE
  8
0
 10
132.295
 20
1636.76
 11
132.778
 21
1636.41
  0
LINE
  8
0
 10
132.778
 20
1636.41
 11
133.213
 21
1636
  0
LINE
  8
0
 10
133.213
 20
1636
 11
133.593
 21
1635.54
  0
LINE
  8
0
 10
133.593
 20
1635.54
 11
133.912
 21
1635.04
  0
LINE
  8
0
 10
133.912
 20
1635.04
 11
134.166
 21
1634.5
  0
LINE
  8
0
 10
134.166
 20
1634.5
 11
134.351
 21
1633.93
  0
LINE
  8
0
 10
134.351
 20
1633.93
 11
134.463
 21
1633.35
  0
LINE
  8
0
 10
134.463
 20
1633.35
 11
134.5
 21
1632.75
  0
LINE
  8
0
 10
134.5
 20
1632.75
 11
134.5
 21
1433.25
  0
LINE
  8
0
 10
134.5
 20
1433.25
 11
134.463
 21
1432.65
  0
LINE
  8
0
 10
134.463
 20
1432.65
 11
134.351
 21
1432.07
  0
LINE
  8
0
 10
134.351
 20
1432.07
 11
134.166
 21
1431.5
  0
LINE
  8
0
 10
134.166
 20
1431.5
 11
133.912
 21
1430.96
  0
LINE
  8
0
 10
133.912
 20
1430.96
 11
133.593
 21
1430.46
  0
LINE
  8
0
 10
133.593
 20
1430.46
 11
133.213
 21
1430
  0
LINE
  8
0
 10
133.213
 20
1430
 11
132.778
 21
1429.59
  0
LINE
  8
0
 10
132.778
 20
1429.59
 11
132.295
 21
1429.24
  0
LINE
  8
0
 10
132.295
 20
1429.24
 11
131.772
 21
1428.95
  0
LINE
  8
0
 10
131.772
 20
1428.95
 11
131.218
 21
1428.73
  0
LINE
  8
0
 10
131.218
 20
1428.73
 11
130.64
 21
1428.58
  0
LINE
  8
0
 10
130.64
 20
1428.58
 11
130.048
 21
1428.51
  0
LINE
  8
0
 10
130.048
 20
1428.51
 11
-130.048
 21
1428.51
  0
LINE
  8
0
 10
130.937
 20
1209.09
 11
131.545
 21
1209.24
  0
LINE
  8
0
 10
131.545
 20
1209.24
 11
132.129
 21
1209.48
  0
LINE
  8
0
 10
132.129
 20
1209.48
 11
132.679
 21
1209.78
  0
LINE
  8
0
 10
132.679
 20
1209.78
 11
133.187
 21
1210.15
  0
LINE
  8
0
 10
133.187
 20
1210.15
 11
133.645
 21
1210.58
  0
LINE
  8
0
 10
133.645
 20
1210.58
 11
134.045
 21
1211.06
  0
LINE
  8
0
 10
134.045
 20
1211.06
 11
134.382
 21
1211.59
  0
LINE
  8
0
 10
134.382
 20
1211.59
 11
134.649
 21
1212.16
  0
LINE
  8
0
 10
134.649
 20
1212.16
 11
134.843
 21
1212.76
  0
LINE
  8
0
 10
134.843
 20
1212.76
 11
134.961
 21
1213.37
  0
LINE
  8
0
 10
134.961
 20
1213.37
 11
135
 21
1214
  0
LINE
  8
0
 10
135
 20
1214
 11
135
 21
1414
  0
LINE
  8
0
 10
135
 20
1414
 11
134.961
 21
1414.63
  0
LINE
  8
0
 10
134.961
 20
1414.63
 11
134.843
 21
1415.24
  0
LINE
  8
0
 10
134.843
 20
1415.24
 11
134.649
 21
1415.84
  0
LINE
  8
0
 10
134.649
 20
1415.84
 11
134.382
 21
1416.41
  0
LINE
  8
0
 10
134.382
 20
1416.41
 11
134.045
 21
1416.94
  0
LINE
  8
0
 10
134.045
 20
1416.94
 11
133.645
 21
1417.42
  0
LINE
  8
0
 10
133.645
 20
1417.42
 11
133.187
 21
1417.85
  0
LINE
  8
0
 10
133.187
 20
1417.85
 11
132.679
 21
1418.22
  0
LINE
  8
0
 10
132.679
 20
1418.22
 11
132.129
 21
1418.52
  0
LINE
  8
0
 10
132.129
 20
1418.52
 11
131.545
 21
1418.76
  0
LINE
  8
0
 10
131.545
 20
1418.76
 11
130.937
 21
1418.91
  0
LINE
  8
0
 10
130.937
 20
1418.91
 11
130.314
 21
1418.99
  0
LINE
  8
0
 10
130.314
 20
1418.99
 11
-130.314
 21
1418.99
  0
LINE
  8
0
 10
-130.314
 20
1418.99
 11
-130.937
 21
1418.91
  0
LINE
  8
0
 10
-130.937
 20
1418.91
 11
-131.545
 21
1418.76
  0
LINE
  8
0
 10
-131.545
 20
1418.76
 11
-132.129
 21
1418.52
  0
LINE
  8
0
 10
-132.129
 20
1418.52
 11
-132.679
 21
1418.22
  0
LINE
  8
0
 10
-132.679
 20
1418.22
 11
-133.187
 21
1417.85
  0
LINE
  8
0
 10
-133.187
 20
1417.85
 11
-133.645
 21
1417.42
  0
LINE
  8
0
 10
-133.645
 20
1417.42
 11
-134.045
 21
1416.94
  0
LINE
  8
0
 10
-134.045
 20
1416.94
 11
-134.382
 21
1416.41
  0
LINE
  8
0
 10
-134.382
 20
1416.41
 11
-134.649
 21
1415.84
  0
LINE
  8
0
 10
-134.649
 20
1415.84
 11
-134.843
 21
1415.24
  0
LINE
  8
0
 10
-134.843
 20
1415.24
 11
-134.961
 21
1414.63
  0
LINE
  8
0
 10
-134.961
 20
1414.63
 11
-135
 21
1414
  0
LINE
  8
0
 10
-135
 20
1414
 11
-135
 21
1214
  0
LINE
  8
0
 10
-135
 20
1214
 11
-134.961
 21
1213.37
  0
LINE
  8
0
 10
-134.961
 20
1213.37
 11
-134.843
 21
1212.76
  0
LINE
  8
0
 10
-134.843
 20
1212.76
 11
-134.649
 21
1212.16
  0
LINE
  8
0
 10
-134.649
 20
1212.16
 11
-134.382
 21
1211.59
  0
LINE
  8
0
 10
-134.382
 20
1211.59
 11
-134.045
 21
1211.06
  0
LINE
  8
0
 10
-134.045
 20
1211.06
 11
-133.645
 21
1210.58
  0
LINE
  8
0
 10
-133.645
 20
1210.58
 11
-133.187
 21
1210.15
  0
LINE
  8
0
 10
-133.187
 20
1210.15
 11
-132.679
 21
1209.78
  0
LINE
  8
0
 10
-132.679
 20
1209.78
 11
-132.129
 21
1209.48
  0
LINE
  8
0
 10
-132.129
 20
1209.48
 11
-131.545
 21
1209.24
  0
LINE
  8
0
 10
-131.545
 20
1209.24
 11
-130.937
 21
1209.09
  0
LINE
  8
0
 10
-130.937
 20
1209.09
 11
-130.314
 21
1209.01
  0
LINE
  8
0
 10
-130.314
 20
1209.01
 11
130.314
 21
1209.01
  0
LINE
  8
0
 10
130.314
 20
1209.01
 11
130.937
 21
1209.09
  0
LINE
  8
0
 10
-130.048
 20
1209.51
 11
-130.64
 21
1209.58
  0
LINE
  8
0
 10
-130.64
 20
1209.58
 11
-131.218
 21
1209.73
  0
LINE
  8
0
 10
-131.218
 20
1209.73
 11
-131.772
 21
1209.95
  0
LINE
  8
0
 10
-131.772
 20
1209.95
 11
-132.295
 21
1210.24
  0
LINE
  8
0
 10
-132.295
 20
1210.24
 11
-132.778
 21
1210.59
  0
LINE
  8
0
 10
-132.778
 20
1210.59
 11
-133.213
 21
1211
  0
LINE
  8
0
 10
-133.213
 20
1211
 11
-133.593
 21
1211.46
  0
LINE
  8
0
 10
-133.593
 20
1211.46
 11
-133.912
 21
1211.96
  0
LINE
  8
0
 10
-133.912
 20
1211.96
 11
-134.166
 21
1212.5
  0
LINE
  8
0
 10
-134.166
 20
1212.5
 11
-134.351
 21
1213.07
  0
LINE
  8
0
 10
-134.351
 20
1213.07
 11
-134.463
 21
1213.65
  0
LINE
  8
0
 10
-134.463
 20
1213.65
 11
-134.5
 21
1214.25
  0
LINE
  8
0
 10
-134.5
 20
1214.25
 11
-134.5
 21
1413.75
  0
LINE
  8
0
 10
-134.5
 20
1413.75
 11
-134.463
 21
1414.35
  0
LINE
  8
0
 10
-134.463
 20
1414.35
 11
-134.351
 21
1414.93
  0
LINE
  8
0
 10
-134.351
 20
1414.93
 11
-134.166
 21
1415.5
  0
LINE
  8
0
 10
-134.166
 20
1415.5
 11
-133.912
 21
1416.04
  0
LINE
  8
0
 10
-133.912
 20
1416.04
 11
-133.593
 21
1416.54
  0
LINE
  8
0
 10
-133.593
 20
1416.54
 11
-133.213
 21
1417
  0
LINE
  8
0
 10
-133.213
 20
1417
 11
-132.778
 21
1417.41
  0
LINE
  8
0
 10
-132.778
 20
1417.41
 11
-132.295
 21
1417.76
  0
LINE
  8
0
 10
-132.295
 20
1417.76
 11
-131.772
 21
1418.05
  0
LINE
  8
0
 10
-131.772
 20
1418.05
 11
-131.218
 21
1418.27
  0
LINE
  8
0
 10
-131.218
 20
1418.27
 11
-130.64
 21
1418.42
  0
LINE
  8
0
 10
-130.64
 20
1418.42
 11
-130.048
 21
1418.49
  0
LINE
  8
0
 10
-130.048
 20
1418.49
 11
130.048
 21
1418.49
  0
LINE
  8
0
 10
130.048
 20
1418.49
 11
130.64
 21
1418.42
  0
LINE
  8
0
 10
130.64
 20
1418.42
 11
131.218
 21
1418.27
  0
LINE
  8
0
 10
131.218
 20
1418.27
 11
131.772
 21
1418.05
  0
LINE
  8
0
 10
131.772
 20
1418.05
 11
132.295
 21
1417.76
  0
LINE
  8
0
 10
132.295
 20
1417.76
 11
132.778
 21
1417.41
  0
LINE
  8
0
 10
132.778
 20
1417.41
 11
133.213
 21
1417
  0
LINE
  8
0
 10
133.213
 20
1417
 11
133.593
 21
1416.54
  0
LINE
  8
0
 10
133.593
 20
1416.54
 11
133.912
 21
1416.04
  0
LINE
  8
0
 10
133.912
 20
1416.04
 11
134.166
 21
1415.5
  0
LINE
  8
0
 10
134.166
 20
1415.5
 11
134.351
 21
1414.93
  0
LINE
  8
0
 10
134.351
 20
1414.93
 11
134.463
 21
1414.35
  0
LINE
  8
0
 10
134.463
 20
1414.35
 11
134.5
 21
1413.75
  0
LINE
  8
0
 10
134.5
 20
1413.75
 11
134.5
 21
1214.25
  0
LINE
  8
0
 10
134.5
 20
1214.25
 11
134.463
 21
1213.65
  0
LINE
  8
0
 10
134.463
 20
1213.65
 11
134.351
 21
1213.07
  0
LINE
  8
0
 10
134.351
 20
1213.07
 11
134.166
 21
1212.5
  0
LINE
  8
0
 10
134.166
 20
1212.5
 11
133.912
 21
1211.96
  0
LINE
  8
0
 10
133.912
 20
1211.96
 11
133.593
 21
1211.46
  0
LINE
  8
0
 10
133.593
 20
1211.46
 11
133.213
 21
1211
  0
LINE
  8
0
 10
133.213
 20
1211
 11
132.778
 21
1210.59
  0
LINE
  8
0
 10
132.778
 20
1210.59
 11
132.295
 21
1210.24
  0
LINE
  8
0
 10
132.295
 20
1210.24
 11
131.772
 21
1209.95
  0
LINE
  8
0
 10
131.772
 20
1209.95
 11
131.218
 21
1209.73
  0
LINE
  8
0
 10
131.218
 20
1209.73
 11
130.64
 21
1209.58
  0
LINE
  8
0
 10
130.64
 20
1209.58
 11
130.048
 21
1209.51
  0
LINE
  8
0
 10
130.048
 20
1209.51
 11
-130.048
 21
1209.51
  0
LINE
  8
0
 10
130.937
 20
990.089
 11
131.545
 21
990.245
  0
LINE
  8
0
 10
131.545
 20
990.245
 11
132.129
 21
990.476
  0
LINE
  8
0
 10
132.129
 20
990.476
 11
132.679
 21
990.778
  0
LINE
  8
0
 10
132.679
 20
990.778
 11
133.187
 21
991.147
  0
LINE
  8
0
 10
133.187
 20
991.147
 11
133.645
 21
991.577
  0
LINE
  8
0
 10
133.645
 20
991.577
 11
134.045
 21
992.061
  0
LINE
  8
0
 10
134.045
 20
992.061
 11
134.382
 21
992.591
  0
LINE
  8
0
 10
134.382
 20
992.591
 11
134.649
 21
993.159
  0
LINE
  8
0
 10
134.649
 20
993.159
 11
134.843
 21
993.757
  0
LINE
  8
0
 10
134.843
 20
993.757
 11
134.961
 21
994.373
  0
LINE
  8
0
 10
134.961
 20
994.373
 11
135
 21
995
  0
LINE
  8
0
 10
135
 20
995
 11
135
 21
1195
  0
LINE
  8
0
 10
135
 20
1195
 11
134.961
 21
1195.63
  0
LINE
  8
0
 10
134.961
 20
1195.63
 11
134.843
 21
1196.24
  0
LINE
  8
0
 10
134.843
 20
1196.24
 11
134.649
 21
1196.84
  0
LINE
  8
0
 10
134.649
 20
1196.84
 11
134.382
 21
1197.41
  0
LINE
  8
0
 10
134.382
 20
1197.41
 11
134.045
 21
1197.94
  0
LINE
  8
0
 10
134.045
 20
1197.94
 11
133.645
 21
1198.42
  0
LINE
  8
0
 10
133.645
 20
1198.42
 11
133.187
 21
1198.85
  0
LINE
  8
0
 10
133.187
 20
1198.85
 11
132.679
 21
1199.22
  0
LINE
  8
0
 10
132.679
 20
1199.22
 11
132.129
 21
1199.52
  0
LINE
  8
0
 10
132.129
 20
1199.52
 11
131.545
 21
1199.76
  0
LINE
  8
0
 10
131.545
 20
1199.76
 11
130.937
 21
1199.91
  0
LINE
  8
0
 10
130.937
 20
1199.91
 11
130.314
 21
1199.99
  0
LINE
  8
0
 10
130.314
 20
1199.99
 11
-130.314
 21
1199.99
  0
LINE
  8
0
 10
-130.314
 20
1199.99
 11
-130.937
 21
1199.91
  0
LINE
  8
0
 10
-130.937
 20
1199.91
 11
-131.545
 21
1199.76
  0
LINE
  8
0
 10
-131.545
 20
1199.76
 11
-132.129
 21
1199.52
  0
LINE
  8
0
 10
-132.129
 20
1199.52
 11
-132.679
 21
1199.22
  0
LINE
  8
0
 10
-132.679
 20
1199.22
 11
-133.187
 21
1198.85
  0
LINE
  8
0
 10
-133.187
 20
1198.85
 11
-133.645
 21
1198.42
  0
LINE
  8
0
 10
-133.645
 20
1198.42
 11
-134.045
 21
1197.94
  0
LINE
  8
0
 10
-134.045
 20
1197.94
 11
-134.382
 21
1197.41
  0
LINE
  8
0
 10
-134.382
 20
1197.41
 11
-134.649
 21
1196.84
  0
LINE
  8
0
 10
-134.649
 20
1196.84
 11
-134.843
 21
1196.24
  0
LINE
  8
0
 10
-134.843
 20
1196.24
 11
-134.961
 21
1195.63
  0
LINE
  8
0
 10
-134.961
 20
1195.63
 11
-135
 21
1195
  0
LINE
  8
0
 10
-135
 20
1195
 11
-135
 21
995
  0
LINE
  8
0
 10
-135
 20
995
 11
-134.961
 21
994.373
  0
LINE
  8
0
 10
-134.961
 20
994.373
 11
-134.843
 21
993.757
  0
LINE
  8
0
 10
-134.843
 20
993.757
 11
-134.649
 21
993.159
  0
LINE
  8
0
 10
-134.649
 20
993.159
 11
-134.382
 21
992.591
  0
LINE
  8
0
 10
-134.382
 20
992.591
 11
-134.045
 21
992.061
  0
LINE
  8
0
 10
-134.045
 20
992.061
 11
-133.645
 21
991.577
  0
LINE
  8
0
 10
-133.645
 20
991.577
 11
-133.187
 21
991.147
  0
LINE
  8
0
 10
-133.187
 20
991.147
 11
-132.679
 21
990.778
  0
LINE
  8
0
 10
-132.679
 20
990.778
 11
-132.129
 21
990.476
  0
LINE
  8
0
 10
-132.129
 20
990.476
 11
-131.545
 21
990.245
  0
LINE
  8
0
 10
-131.545
 20
990.245
 11
-130.937
 21
990.089
  0
LINE
  8
0
 10
-130.937
 20
990.089
 11
-130.314
 21
990.01
  0
LINE
  8
0
 10
-130.314
 20
990.01
 11
130.314
 21
990.01
  0
LINE
  8
0
 10
130.314
 20
990.01
 11
130.937
 21
990.089
  0
LINE
  8
0
 10
-130.037
 20
990.681
 11
-130.608
 21
990.753
  0
LINE
  8
0
 10
-130.608
 20
990.753
 11
-131.165
 21
990.896
  0
LINE
  8
0
 10
-131.165
 20
990.896
 11
-131.699
 21
991.107
  0
LINE
  8
0
 10
-131.699
 20
991.107
 11
-132.203
 21
991.384
  0
LINE
  8
0
 10
-132.203
 20
991.384
 11
-132.668
 21
991.722
  0
LINE
  8
0
 10
-132.668
 20
991.722
 11
-133.088
 21
992.116
  0
LINE
  8
0
 10
-133.088
 20
992.116
 11
-133.454
 21
992.559
  0
LINE
  8
0
 10
-133.454
 20
992.559
 11
-133.762
 21
993.044
  0
LINE
  8
0
 10
-133.762
 20
993.044
 11
-134.007
 21
993.565
  0
LINE
  8
0
 10
-134.007
 20
993.565
 11
-134.185
 21
994.111
  0
LINE
  8
0
 10
-134.185
 20
994.111
 11
-134.292
 21
994.676
  0
LINE
  8
0
 10
-134.292
 20
994.676
 11
-134.328
 21
995.25
  0
LINE
  8
0
 10
-134.328
 20
995.25
 11
-134.328
 21
1194.75
  0
LINE
  8
0
 10
-134.328
 20
1194.75
 11
-134.292
 21
1195.32
  0
LINE
  8
0
 10
-134.292
 20
1195.32
 11
-134.185
 21
1195.89
  0
LINE
  8
0
 10
-134.185
 20
1195.89
 11
-134.007
 21
1196.44
  0
LINE
  8
0
 10
-134.007
 20
1196.44
 11
-133.762
 21
1196.96
  0
LINE
  8
0
 10
-133.762
 20
1196.96
 11
-133.454
 21
1197.44
  0
LINE
  8
0
 10
-133.454
 20
1197.44
 11
-133.088
 21
1197.88
  0
LINE
  8
0
 10
-133.088
 20
1197.88
 11
-132.668
 21
1198.28
  0
LINE
  8
0
 10
-132.668
 20
1198.28
 11
-132.203
 21
1198.62
  0
LINE
  8
0
 10
-132.203
 20
1198.62
 11
-131.699
 21
1198.89
  0
LINE
  8
0
 10
-131.699
 20
1198.89
 11
-131.165
 21
1199.1
  0
LINE
  8
0
 10
-131.165
 20
1199.1
 11
-130.608
 21
1199.25
  0
LINE
  8
0
 10
-130.608
 20
1199.25
 11
-130.037
 21
1199.32
  0
LINE
  8
0
 10
-130.037
 20
1199.32
 11
130.037
 21
1199.32
  0
LINE
  8
0
 10
130.037
 20
1199.32
 11
130.608
 21
1199.25
  0
LINE
  8
0
 10
130.608
 20
1199.25
 11
131.165
 21
1199.1
  0
LINE
  8
0
 10
131.165
 20
1199.1
 11
131.699
 21
1198.89
  0
LINE
  8
0
 10
131.699
 20
1198.89
 11
132.203
 21
1198.62
  0
LINE
  8
0
 10
132.203
 20
1198.62
 11
132.668
 21
1198.28
  0
LINE
  8
0
 10
132.668
 20
1198.28
 11
133.088
 21
1197.88
  0
LINE
  8
0
 10
133.088
 20
1197.88
 11
133.454
 21
1197.44
  0
LINE
  8
0
 10
133.454
 20
1197.44
 11
133.762
 21
1196.96
  0
LINE
  8
0
 10
133.762
 20
1196.96
 11
134.007
 21
1196.44
  0
LINE
  8
0
 10
134.007
 20
1196.44
 11
134.185
 21
1195.89
  0
LINE
  8
0
 10
134.185
 20
1195.89
 11
134.292
 21
1195.32
  0
LINE
  8
0
 10
134.292
 20
1195.32
 11
134.328
 21
1194.75
  0
LINE
  8
0
 10
134.328
 20
1194.75
 11
134.328
 21
995.25
  0
LINE
  8
0
 10
134.328
 20
995.25
 11
134.292
 21
994.676
  0
LINE
  8
0
 10
134.292
 20
994.676
 11
134.185
 21
994.111
  0
LINE
  8
0
 10
134.185
 20
994.111
 11
134.007
 21
993.565
  0
LINE
  8
0
 10
134.007
 20
993.565
 11
133.762
 21
993.044
  0
LINE
  8
0
 10
133.762
 20
993.044
 11
133.454
 21
992.559
  0
LINE
  8
0
 10
133.454
 20
992.559
 11
133.088
 21
992.116
  0
LINE
  8
0
 10
133.088
 20
992.116
 11
132.668
 21
991.722
  0
LINE
  8
0
 10
132.668
 20
991.722
 11
132.203
 21
991.384
  0
LINE
  8
0
 10
132.203
 20
991.384
 11
131.699
 21
991.107
  0
LINE
  8
0
 10
131.699
 20
991.107
 11
131.165
 21
990.896
  0
LINE
  8
0
 10
131.165
 20
990.896
 11
130.608
 21
990.753
  0
LINE
  8
0
 10
130.608
 20
990.753
 11
130.037
 21
990.681
  0
LINE
  8
0
 10
130.037
 20
990.681
 11
-130.037
 21
990.681
  0
LINE
  8
0
 10
130.937
 20
771.089
 11
131.545
 21
771.245
  0
LINE
  8
0
 10
131.545
 20
771.245
 11
132.129
 21
771.476
  0
LINE
  8
0
 10
132.129
 20
771.476
 11
132.679
 21
771.778
  0
LINE
  8
0
 10
132.679
 20
771.778
 11
133.187
 21
772.147
  0
LINE
  8
0
 10
133.187
 20
772.147
 11
133.645
 21
772.577
  0
LINE
  8
0
 10
133.645
 20
772.577
 11
134.045
 21
773.061
  0
LINE
  8
0
 10
134.045
 20
773.061
 11
134.382
 21
773.591
  0
LINE
  8
0
 10
134.382
 20
773.591
 11
134.649
 21
774.159
  0
LINE
  8
0
 10
134.649
 20
774.159
 11
134.843
 21
774.757
  0
LINE
  8
0
 10
134.843
 20
774.757
 11
134.961
 21
775.373
  0
LINE
  8
0
 10
134.961
 20
775.373
 11
135
 21
776
  0
LINE
  8
0
 10
135
 20
776
 11
135
 21
976
  0
LINE
  8
0
 10
135
 20
976
 11
134.961
 21
976.627
  0
LINE
  8
0
 10
134.961
 20
976.627
 11
134.843
 21
977.243
  0
LINE
  8
0
 10
134.843
 20
977.243
 11
134.649
 21
977.841
  0
LINE
  8
0
 10
134.649
 20
977.841
 11
134.382
 21
978.409
  0
LINE
  8
0
 10
134.382
 20
978.409
 11
134.045
 21
978.939
  0
LINE
  8
0
 10
134.045
 20
978.939
 11
133.645
 21
979.423
  0
LINE
  8
0
 10
133.645
 20
979.423
 11
133.187
 21
979.853
  0
LINE
  8
0
 10
133.187
 20
979.853
 11
132.679
 21
980.222
  0
LINE
  8
0
 10
132.679
 20
980.222
 11
132.129
 21
980.524
  0
LINE
  8
0
 10
132.129
 20
980.524
 11
131.545
 21
980.755
  0
LINE
  8
0
 10
131.545
 20
980.755
 11
130.937
 21
980.911
  0
LINE
  8
0
 10
130.937
 20
980.911
 11
130.314
 21
980.99
  0
LINE
  8
0
 10
130.314
 20
980.99
 11
-130.314
 21
980.99
  0
LINE
  8
0
 10
-130.314
 20
980.99
 11
-130.937
 21
980.911
  0
LINE
  8
0
 10
-130.937
 20
980.911
 11
-131.545
 21
980.755
  0
LINE
  8
0
 10
-131.545
 20
980.755
 11
-132.129
 21
980.524
  0
LINE
  8
0
 10
-132.129
 20
980.524
 11
-132.679
 21
980.222
  0
LINE
  8
0
 10
-132.679
 20
980.222
 11
-133.187
 21
979.853
  0
LINE
  8
0
 10
-133.187
 20
979.853
 11
-133.645
 21
979.423
  0
LINE
  8
0
 10
-133.645
 20
979.423
 11
-134.045
 21
978.939
  0
LINE
  8
0
 10
-134.045
 20
978.939
 11
-134.382
 21
978.409
  0
LINE
  8
0
 10
-134.382
 20
978.409
 11
-134.649
 21
977.841
  0
LINE
  8
0
 10
-134.649
 20
977.841
 11
-134.843
 21
977.243
  0
LINE
  8
0
 10
-134.843
 20
977.243
 11
-134.961
 21
976.627
  0
LINE
  8
0
 10
-134.961
 20
976.627
 11
-135
 21
976
  0
LINE
  8
0
 10
-135
 20
976
 11
-135
 21
776
  0
LINE
  8
0
 10
-135
 20
776
 11
-134.961
 21
775.373
  0
LINE
  8
0
 10
-134.961
 20
775.373
 11
-134.843
 21
774.757
  0
LINE
  8
0
 10
-134.843
 20
774.757
 11
-134.649
 21
774.159
  0
LINE
  8
0
 10
-134.649
 20
774.159
 11
-134.382
 21
773.591
  0
LINE
  8
0
 10
-134.382
 20
773.591
 11
-134.045
 21
773.061
  0
LINE
  8
0
 10
-134.045
 20
773.061
 11
-133.645
 21
772.577
  0
LINE
  8
0
 10
-133.645
 20
772.577
 11
-133.187
 21
772.147
  0
LINE
  8
0
 10
-133.187
 20
772.147
 11
-132.679
 21
771.778
  0
LINE
  8
0
 10
-132.679
 20
771.778
 11
-132.129
 21
771.476
  0
LINE
  8
0
 10
-132.129
 20
771.476
 11
-131.545
 21
771.245
  0
LINE
  8
0
 10
-131.545
 20
771.245
 11
-130.937
 21
771.089
  0
LINE
  8
0
 10
-130.937
 20
771.089
 11
-130.314
 21
771.01
  0
LINE
  8
0
 10
-130.314
 20
771.01
 11
130.314
 21
771.01
  0
LINE
  8
0
 10
130.314
 20
771.01
 11
130.937
 21
771.089
  0
LINE
  8
0
 10
-129.882
 20
774.145
 11
-130.145
 21
774.178
  0
LINE
  8
0
 10
-130.145
 20
774.178
 11
-130.402
 21
774.244
  0
LINE
  8
0
 10
-130.402
 20
774.244
 11
-130.648
 21
774.341
  0
LINE
  8
0
 10
-130.648
 20
774.341
 11
-130.88
 21
774.469
  0
LINE
  8
0
 10
-130.88
 20
774.469
 11
-131.095
 21
774.624
  0
LINE
  8
0
 10
-131.095
 20
774.624
 11
-131.288
 21
774.806
  0
LINE
  8
0
 10
-131.288
 20
774.806
 11
-131.457
 21
775.01
  0
LINE
  8
0
 10
-131.457
 20
775.01
 11
-131.599
 21
775.234
  0
LINE
  8
0
 10
-131.599
 20
775.234
 11
-131.711
 21
775.473
  0
LINE
  8
0
 10
-131.711
 20
775.473
 11
-131.793
 21
775.725
  0
LINE
  8
0
 10
-131.793
 20
775.725
 11
-131.843
 21
775.986
  0
LINE
  8
0
 10
-131.843
 20
775.986
 11
-131.86
 21
776.25
  0
LINE
  8
0
 10
-131.86
 20
776.25
 11
-131.86
 21
975.75
  0
LINE
  8
0
 10
-131.86
 20
975.75
 11
-131.843
 21
976.014
  0
LINE
  8
0
 10
-131.843
 20
976.014
 11
-131.793
 21
976.275
  0
LINE
  8
0
 10
-131.793
 20
976.275
 11
-131.711
 21
976.527
  0
LINE
  8
0
 10
-131.711
 20
976.527
 11
-131.599
 21
976.766
  0
LINE
  8
0
 10
-131.599
 20
976.766
 11
-131.457
 21
976.99
  0
LINE
  8
0
 10
-131.457
 20
976.99
 11
-131.288
 21
977.194
  0
LINE
  8
0
 10
-131.288
 20
977.194
 11
-131.095
 21
977.376
  0
LINE
  8
0
 10
-131.095
 20
977.376
 11
-130.88
 21
977.531
  0
LINE
  8
0
 10
-130.88
 20
977.531
 11
-130.648
 21
977.659
  0
LINE
  8
0
 10
-130.648
 20
977.659
 11
-130.402
 21
977.756
  0
LINE
  8
0
 10
-130.402
 20
977.756
 11
-130.145
 21
977.822
  0
LINE
  8
0
 10
-130.145
 20
977.822
 11
-129.882
 21
977.855
  0
LINE
  8
0
 10
-129.882
 20
977.855
 11
129.882
 21
977.855
  0
LINE
  8
0
 10
129.882
 20
977.855
 11
130.145
 21
977.822
  0
LINE
  8
0
 10
130.145
 20
977.822
 11
130.402
 21
977.756
  0
LINE
  8
0
 10
130.402
 20
977.756
 11
130.648
 21
977.659
  0
LINE
  8
0
 10
130.648
 20
977.659
 11
130.88
 21
977.531
  0
LINE
  8
0
 10
130.88
 20
977.531
 11
131.095
 21
977.376
  0
LINE
  8
0
 10
131.095
 20
977.376
 11
131.288
 21
977.194
  0
LINE
  8
0
 10
131.288
 20
977.194
 11
131.457
 21
976.99
  0
LINE
  8
0
 10
131.457
 20
976.99
 11
131.599
 21
976.766
  0
LINE
  8
0
 10
131.599
 20
976.766
 11
131.711
 21
976.527
  0
LINE
  8
0
 10
131.711
 20
976.527
 11
131.793
 21
976.275
  0
LINE
  8
0
 10
131.793
 20
976.275
 11
131.843
 21
976.014
  0
LINE
  8
0
 10
131.843
 20
976.014
 11
131.86
 21
975.75
  0
LINE
  8
0
 10
131.86
 20
975.75
 11
131.86
 21
776.25
  0
LINE
  8
0
 10
131.86
 20
776.25
 11
131.843
 21
775.986
  0
LINE
  8
0
 10
131.843
 20
775.986
 11
131.793
 21
775.725
  0
LINE
  8
0
 10
131.793
 20
775.725
 11
131.711
 21
775.473
  0
LINE
  8
0
 10
131.711
 20
775.473
 11
131.599
 21
775.234
  0
LINE
  8
0
 10
131.599
 20
775.234
 11
131.457
 21
775.01
  0
LINE
  8
0
 10
131.457
 20
775.01
 11
131.288
 21
774.806
  0
LINE
  8
0
 10
131.288
 20
774.806
 11
131.095
 21
774.624
  0
LINE
  8
0
 10
131.095
 20
774.624
 11
130.88
 21
774.469
  0
LINE
  8
0
 10
130.88
 20
774.469
 11
130.648
 21
774.341
  0
LINE
  8
0
 10
130.648
 20
774.341
 11
130.402
 21
774.244
  0
LINE
  8
0
 10
130.402
 20
774.244
 11
130.145
 21
774.178
  0
LINE
  8
0
 10
130.145
 20
774.178
 11
129.882
 21
774.145
  0
LINE
  8
0
 10
129.882
 20
774.145
 11
-129.882
 21
774.145
  0
ENDSEC
  0
SECTION
  2
OBJECTS
  0
DICTIONARY
  0
ENDSEC
  0
EOF
