<?xml version="1.0" standalone="no"?>
<!DOCTYPE svg PUBLIC "-//W3C//DTD SVG 1.1//EN" "http://www.w3.org/Graphics/SVG/1.1/DTD/svg11.dtd">
<svg width="240mm" height="507mm" viewBox="-120 -834 240 507" xmlns="http://www.w3.org/2000/svg" version="1.1">
<title>OpenSCAD Model</title>
<path d="
M 115.937,-714.089 L 116.545,-714.245 L 117.129,-714.476 L 117.679,-714.778 L 118.187,-715.147 L 118.645,-715.577
 L 119.045,-716.061 L 119.382,-716.591 L 119.649,-717.159 L 119.843,-717.757 L 119.961,-718.373 L 120,-719
 L 120,-829 L 119.961,-829.627 L 119.843,-830.243 L 119.649,-830.841 L 119.382,-831.409 L 119.045,-831.939
 L 118.645,-832.423 L 118.187,-832.853 L 117.679,-833.222 L 117.129,-833.524 L 116.545,-833.755 L 115.937,-833.911
 L 115.314,-833.99 L -115.314,-833.99 L -115.937,-833.911 L -116.545,-833.755 L -117.129,-833.524 L -117.679,-833.222
 L -118.187,-832.853 L -118.645,-832.423 L -119.045,-831.939 L -119.382,-831.409 L -119.649,-830.841 L -119.843,-830.243
 L -119.961,-829.627 L -120,-829 L -120,-719 L -119.961,-718.373 L -119.843,-717.757 L -119.649,-717.159
 L -119.382,-716.591 L -119.045,-716.061 L -118.645,-715.577 L -118.187,-715.147 L -117.679,-714.778 L -117.129,-714.476
 L -116.545,-714.245 L -115.937,-714.089 L -115.314,-714.01 L 115.314,-714.01 z
M -115.048,-714.509 L -115.64,-714.584 L -116.218,-714.732 L -116.772,-714.952 L -117.295,-715.239 L -117.778,-715.59
 L -118.213,-715.998 L -118.593,-716.458 L -118.912,-716.962 L -119.166,-717.501 L -119.351,-718.069 L -119.463,-718.655
 L -119.5,-719.25 L -119.5,-828.75 L -119.463,-829.345 L -119.351,-829.931 L -119.166,-830.499 L -118.912,-831.038
 L -118.593,-831.542 L -118.213,-832.002 L -117.778,-832.41 L -117.295,-832.761 L -116.772,-833.048 L -116.218,-833.268
 L -115.64,-833.416 L -115.048,-833.491 L 115.048,-833.491 L 115.64,-833.416 L 116.218,-833.268 L 116.772,-833.048
 L 117.295,-832.761 L 117.778,-832.41 L 118.213,-832.002 L 118.593,-831.542 L 118.912,-831.038 L 119.166,-830.499
 L 119.351,-829.931 L 119.463,-829.345 L 119.5,-828.75 L 119.5,-719.25 L 119.463,-718.655 L 119.351,-718.069
 L 119.166,-717.501 L 118.912,-716.962 L 118.593,-716.458 L 118.213,-715.998 L 117.778,-715.59 L 117.295,-715.239
 L 116.772,-714.952 L 116.218,-714.732 L 115.64,-714.584 L 115.048,-714.509 z
M 115.937,-585.089 L 116.545,-585.245 L 117.129,-585.476 L 117.679,-585.778 L 118.187,-586.147 L 118.645,-586.577
 L 119.045,-587.061 L 119.382,-587.591 L 119.649,-588.159 L 119.843,-588.757 L 119.961,-589.373 L 120,-590
 L 120,-700 L 119.961,-700.627 L 119.843,-701.243 L 119.649,-701.841 L 119.382,-702.409 L 119.045,-702.939
 L 118.645,-703.423 L 118.187,-703.853 L 117.679,-704.222 L 117.129,-704.524 L 116.545,-704.755 L 115.937,-704.911
 L 115.314,-704.99 L -115.314,-704.99 L -115.937,-704.911 L -116.545,-704.755 L -117.129,-704.524 L -117.679,-704.222
 L -118.187,-703.853 L -118.645,-703.423 L -119.045,-702.939 L -119.382,-702.409 L -119.649,-701.841 L -119.843,-701.243
 L -119.961,-700.627 L -120,-700 L -120,-590 L -119.961,-589.373 L -119.843,-588.757 L -119.649,-588.159
 L -119.382,-587.591 L -119.045,-587.061 L -118.645,-586.577 L -118.187,-586.147 L -117.679,-585.778 L -117.129,-585.476
 L -116.545,-585.245 L -115.937,-585.089 L -115.314,-585.01 L 115.314,-585.01 z
M -115.048,-585.509 L -115.64,-585.584 L -116.218,-585.732 L -116.772,-585.952 L -117.295,-586.239 L -117.778,-586.59
 L -118.213,-586.998 L -118.593,-587.458 L -118.912,-587.962 L -119.166,-588.501 L -119.351,-589.069 L -119.463,-589.655
 L -119.5,-590.25 L -119.5,-699.75 L -119.463,-700.345 L -119.351,-700.931 L -119.166,-701.499 L -118.912,-702.038
 L -118.593,-702.542 L -118.213,-703.002 L -117.778,-703.41 L -117.295,-703.761 L -116.772,-704.048 L -116.218,-704.268
 L -115.64,-704.416 L -115.048,-704.491 L 115.048,-704.491 L 115.64,-704.416 L 116.218,-704.268 L 116.772,-704.048
 L 117.295,-703.761 L 117.778,-703.41 L 118.213,-703.002 L 118.593,-702.542 L 118.912,-702.038 L 119.166,-701.499
 L 119.351,-700.931 L 119.463,-700.345 L 119.5,-699.75 L 119.5,-590.25 L 119.463,-589.655 L 119.351,-589.069
 L 119.166,-588.501 L 118.912,-587.962 L 118.593,-587.458 L 118.213,-586.998 L 117.778,-586.59 L 117.295,-586.239
 L 116.772,-585.952 L 116.218,-585.732 L 115.64,-585.584 L 115.048,-585.509 z
M 115.937,-456.089 L 116.545,-456.245 L 117.129,-456.476 L 117.679,-456.778 L 118.187,-457.147 L 118.645,-457.577
 L 119.045,-458.061 L 119.382,-458.591 L 119.649,-459.159 L 119.843,-459.757 L 119.961,-460.373 L 120,-461
 L 120,-571 L 119.961,-571.627 L 119.843,-572.243 L 119.649,-572.841 L 119.382,-573.409 L 119.045,-573.939
 L 118.645,-574.423 L 118.187,-574.853 L 117.679,-575.222 L 117.129,-575.524 L 116.545,-575.755 L 115.937,-575.911
 L 115.314,-575.99 L -115.314,-575.99 L -115.937,-575.911 L -116.545,-575.755 L -117.129,-575.524 L -117.679,-575.222
 L -118.187,-574.853 L -118.645,-574.423 L -119.045,-573.939 L -119.382,-573.409 L -119.649,-572.841 L -119.843,-572.243
 L -119.961,-571.627 L -120,-571 L -120,-461 L -119.961,-460.373 L -119.843,-459.757 L -119.649,-459.159
 L -119.382,-458.591 L -119.045,-458.061 L -118.645,-457.577 L -118.187,-457.147 L -117.679,-456.778 L -117.129,-456.476
 L -116.545,-456.245 L -115.937,-456.089 L -115.314,-456.01 L 115.314,-456.01 z
M -114.993,-457.388 L -115.475,-457.449 L -115.946,-457.57 L -116.398,-457.749 L -116.823,-457.983 L -117.216,-458.269
 L -117.571,-458.601 L -117.88,-458.976 L -118.141,-459.386 L -118.348,-459.826 L -118.498,-460.288 L -118.589,-460.765
 L -118.619,-461.25 L -118.619,-570.75 L -118.589,-571.235 L -118.498,-571.712 L -118.348,-572.174 L -118.141,-572.614
 L -117.88,-573.024 L -117.571,-573.399 L -117.216,-573.731 L -116.823,-574.017 L -116.398,-574.251 L -115.946,-574.43
 L -115.475,-574.551 L -114.993,-574.612 L 114.993,-574.612 L 115.475,-574.551 L 115.946,-574.43 L 116.398,-574.251
 L 116.823,-574.017 L 117.216,-573.731 L 117.571,-573.399 L 117.88,-573.024 L 118.141,-572.614 L 118.348,-572.174
 L 118.498,-571.712 L 118.589,-571.235 L 118.619,-570.75 L 118.619,-461.25 L 118.589,-460.765 L 118.498,-460.288
 L 118.348,-459.826 L 118.141,-459.386 L 117.88,-458.976 L 117.571,-458.601 L 117.216,-458.269 L 116.823,-457.983
 L 116.398,-457.749 L 115.946,-457.57 L 115.475,-457.449 L 114.993,-457.388 z
M 115.937,-327.089 L 116.545,-327.245 L 117.129,-327.476 L 117.679,-327.778 L 118.187,-328.147 L 118.645,-328.577
 L 119.045,-329.061 L 119.382,-329.591 L 119.649,-330.159 L 119.843,-330.757 L 119.961,-331.373 L 120,-332
 L 120,-442 L 119.961,-442.627 L 119.843,-443.243 L 119.649,-443.841 L 119.382,-444.409 L 119.045,-444.939
 L 118.645,-445.423 L 118.187,-445.853 L 117.679,-446.222 L 117.129,-446.524 L 116.545,-446.755 L 115.937,-446.911
 L 115.314,-446.99 L -115.314,-446.99 L -115.937,-446.911 L -116.545,-446.755 L -117.129,-446.524 L -117.679,-446.222
 L -118.187,-445.853 L -118.645,-445.423 L -119.045,-444.939 L -119.382,-444.409 L -119.649,-443.841 L -119.843,-443.243
 L -119.961,-442.627 L -120,-442 L -120,-332 L -119.961,-331.373 L -119.843,-330.757 L -119.649,-330.159
 L -119.382,-329.591 L -119.045,-329.061 L -118.645,-328.577 L -118.187,-328.147 L -117.679,-327.778 L -117.129,-327.476
 L -116.545,-327.245 L -115.937,-327.089 L -115.314,-327.01 L 115.314,-327.01 z
M 112.387,-437.704 L 112.163,-437.732 L 111.944,-437.788 L 111.734,-437.871 L 111.536,-437.98 L 111.353,-438.113
 L 111.188,-438.268 L 111.044,-438.442 L 110.923,-438.633 L 110.826,-438.837 L 110.757,-439.052 L 110.714,-439.274
 L 110.7,-439.5 L 110.714,-439.726 L 110.757,-439.948 L 110.826,-440.163 L 110.923,-440.367 L 111.044,-440.558
 L 111.188,-440.732 L 111.353,-440.887 L 111.536,-441.02 L 111.734,-441.129 L 111.944,-441.212 L 112.163,-441.268
 L 112.387,-441.296 L 112.613,-441.296 L 112.837,-441.268 L 113.056,-441.212 L 113.266,-441.129 L 113.464,-441.02
 L 113.647,-440.887 L 113.812,-440.732 L 113.956,-440.558 L 114.077,-440.367 L 114.174,-440.163 L 114.243,-439.948
 L 114.286,-439.726 L 114.3,-439.5 L 114.286,-439.274 L 114.243,-439.052 L 114.174,-438.837 L 114.077,-438.633
 L 113.956,-438.442 L 113.812,-438.268 L 113.647,-438.113 L 113.464,-437.98 L 113.266,-437.871 L 113.056,-437.788
 L 112.837,-437.732 L 112.613,-437.704 z
M -112.613,-437.704 L -112.837,-437.732 L -113.056,-437.788 L -113.266,-437.871 L -113.464,-437.98 L -113.647,-438.113
 L -113.812,-438.268 L -113.956,-438.442 L -114.077,-438.633 L -114.174,-438.837 L -114.243,-439.052 L -114.286,-439.274
 L -114.3,-439.5 L -114.286,-439.726 L -114.243,-439.948 L -114.174,-440.163 L -114.077,-440.367 L -113.956,-440.558
 L -113.812,-440.732 L -113.647,-440.887 L -113.464,-441.02 L -113.266,-441.129 L -113.056,-441.212 L -112.837,-441.268
 L -112.613,-441.296 L -112.387,-441.296 L -112.163,-441.268 L -111.944,-441.212 L -111.734,-441.129 L -111.536,-441.02
 L -111.353,-440.887 L -111.188,-440.732 L -111.044,-440.558 L -110.923,-440.367 L -110.826,-440.163 L -110.757,-439.948
 L -110.714,-439.726 L -110.7,-439.5 L -110.714,-439.274 L -110.757,-439.052 L -110.826,-438.837 L -110.923,-438.633
 L -111.044,-438.442 L -111.188,-438.268 L -111.353,-438.113 L -111.536,-437.98 L -111.734,-437.871 L -111.944,-437.788
 L -112.163,-437.732 L -112.387,-437.704 z
M -112.613,-332.704 L -112.837,-332.732 L -113.056,-332.788 L -113.266,-332.871 L -113.464,-332.98 L -113.647,-333.113
 L -113.812,-333.268 L -113.956,-333.442 L -114.077,-333.633 L -114.174,-333.837 L -114.243,-334.052 L -114.286,-334.274
 L -114.3,-334.5 L -114.286,-334.726 L -114.243,-334.948 L -114.174,-335.163 L -114.077,-335.367 L -113.956,-335.558
 L -113.812,-335.732 L -113.647,-335.887 L -113.464,-336.02 L -113.266,-336.129 L -113.056,-336.212 L -112.837,-336.268
 L -112.613,-336.296 L -112.387,-336.296 L -112.163,-336.268 L -111.944,-336.212 L -111.734,-336.129 L -111.536,-336.02
 L -111.353,-335.887 L -111.188,-335.732 L -111.044,-335.558 L -110.923,-335.367 L -110.826,-335.163 L -110.757,-334.948
 L -110.714,-334.726 L -110.7,-334.5 L -110.714,-334.274 L -110.757,-334.052 L -110.826,-333.837 L -110.923,-333.633
 L -111.044,-333.442 L -111.188,-333.268 L -111.353,-333.113 L -111.536,-332.98 L -111.734,-332.871 L -111.944,-332.788
 L -112.163,-332.732 L -112.387,-332.704 z
M 112.387,-332.704 L 112.163,-332.732 L 111.944,-332.788 L 111.734,-332.871 L 111.536,-332.98 L 111.353,-333.113
 L 111.188,-333.268 L 111.044,-333.442 L 110.923,-333.633 L 110.826,-333.837 L 110.757,-334.052 L 110.714,-334.274
 L 110.7,-334.5 L 110.714,-334.726 L 110.757,-334.948 L 110.826,-335.163 L 110.923,-335.367 L 111.044,-335.558
 L 111.188,-335.732 L 111.353,-335.887 L 111.536,-336.02 L 111.734,-336.129 L 111.944,-336.212 L 112.163,-336.268
 L 112.387,-336.296 L 112.613,-336.296 L 112.837,-336.268 L 113.056,-336.212 L 113.266,-336.129 L 113.464,-336.02
 L 113.647,-335.887 L 113.812,-335.732 L 113.956,-335.558 L 114.077,-335.367 L 114.174,-335.163 L 114.243,-334.948
 L 114.286,-334.726 L 114.3,-334.5 L 114.286,-334.274 L 114.243,-334.052 L 114.174,-333.837 L 114.077,-333.633
 L 113.956,-333.442 L 113.812,-333.268 L 113.647,-333.113 L 113.464,-332.98 L 113.266,-332.871 L 113.056,-332.788
 L 112.837,-332.732 L 112.613,-332.704 z
" stroke="black" fill="lightgray" stroke-width="0.5"/>
</svg>
