<?xml version="1.0" standalone="no"?>
<!DOCTYPE svg PUBLIC "-//W3C//DTD SVG 1.1//EN" "http://www.w3.org/Graphics/SVG/1.1/DTD/svg11.dtd">
<svg width="257mm" height="244mm" viewBox="-129 -374 257 244" xmlns="http://www.w3.org/2000/svg" version="1.1">
<title>OpenSCAD Model</title>
<path d="
M -126,-299.941 L -125.687,-299.647 L -125.179,-299.278 L -124.629,-298.976 L -124.045,-298.745 L -123.437,-298.589
 L -122.814,-298.51 L 122.814,-298.51 L 123.437,-298.589 L 124.045,-298.745 L 124.629,-298.976 L 125.179,-299.278
 L 125.687,-299.647 L 126.145,-300.077 L 126.545,-300.561 L 126.882,-301.091 L 127.149,-301.659 L 127.343,-302.257
 L 127.461,-302.873 L 127.5,-303.5 L 127.5,-368.5 L 127.461,-369.127 L 127.343,-369.743 L 127.149,-370.341
 L 126.882,-370.909 L 126.545,-371.439 L 126.145,-371.923 L 125.687,-372.353 L 125.179,-372.722 L 124.629,-373.024
 L 124.045,-373.255 L 123.437,-373.411 L 122.814,-373.49 L -122.814,-373.49 L -123.437,-373.411 L -124.045,-373.255
 L -124.629,-373.024 L -125.179,-372.722 L -125.687,-372.353 L -126,-372.059 L -126,-373.49 L -129,-373.49
 L -129,-298.51 L -126,-298.51 z
M -122.243,-300.135 L -122.726,-300.196 L -123.197,-300.317 L -123.649,-300.496 L -124.075,-300.73 L -124.469,-301.016
 L -124.823,-301.349 L -125.133,-301.724 L -125.394,-302.134 L -125.601,-302.574 L -125.751,-303.037 L -125.842,-303.515
 L -125.873,-304 L -125.873,-368 L -125.842,-368.485 L -125.751,-368.963 L -125.601,-369.426 L -125.394,-369.866
 L -125.133,-370.276 L -124.823,-370.651 L -124.469,-370.984 L -124.075,-371.27 L -123.649,-371.504 L -123.197,-371.683
 L -122.726,-371.804 L -122.243,-371.865 L 122.243,-371.865 L 122.726,-371.804 L 123.197,-371.683 L 123.649,-371.504
 L 124.075,-371.27 L 124.469,-370.984 L 124.823,-370.651 L 125.133,-370.276 L 125.394,-369.866 L 125.601,-369.426
 L 125.751,-368.963 L 125.842,-368.485 L 125.873,-368 L 125.873,-304 L 125.842,-303.515 L 125.751,-303.037
 L 125.601,-302.574 L 125.394,-302.134 L 125.133,-301.724 L 124.823,-301.349 L 124.469,-301.016 L 124.075,-300.73
 L 123.649,-300.496 L 123.197,-300.317 L 122.726,-300.196 L 122.243,-300.135 z
M 123.437,-214.589 L 124.045,-214.745 L 124.629,-214.976 L 125.179,-215.278 L 125.687,-215.647 L 126.145,-216.077
 L 126.545,-216.561 L 126.882,-217.091 L 127.149,-217.659 L 127.343,-218.257 L 127.461,-218.873 L 127.5,-219.5
 L 127.5,-284.5 L 127.461,-285.127 L 127.343,-285.743 L 127.149,-286.341 L 126.882,-286.909 L 126.545,-287.439
 L 126.145,-287.923 L 125.687,-288.353 L 125.179,-288.722 L 124.629,-289.024 L 124.045,-289.255 L 123.437,-289.411
 L 122.814,-289.49 L -122.814,-289.49 L -123.437,-289.411 L -124.045,-289.255 L -124.629,-289.024 L -125.179,-288.722
 L -125.687,-288.353 L -126,-288.059 L -126,-289.115 L -129,-289.115 L -129,-214.885 L -126,-214.885
 L -126,-215.941 L -125.687,-215.647 L -125.179,-215.278 L -124.629,-214.976 L -124.045,-214.745 L -123.437,-214.589
 L -122.814,-214.51 L 122.814,-214.51 z
M -120.151,-279.605 L -120.45,-279.643 L -120.742,-279.717 L -121.022,-279.828 L -121.286,-279.974 L -121.53,-280.151
 L -121.75,-280.357 L -121.942,-280.589 L -122.103,-280.844 L -122.231,-281.117 L -122.325,-281.403 L -122.381,-281.699
 L -122.4,-282 L -122.381,-282.301 L -122.325,-282.597 L -122.231,-282.883 L -122.103,-283.156 L -121.942,-283.411
 L -121.75,-283.643 L -121.53,-283.849 L -121.286,-284.026 L -121.022,-284.172 L -120.742,-284.283 L -120.45,-284.357
 L -120.151,-284.395 L -119.849,-284.395 L -119.55,-284.357 L -119.258,-284.283 L -118.978,-284.172 L -118.714,-284.026
 L -118.47,-283.849 L -118.25,-283.643 L -118.058,-283.411 L -117.897,-283.156 L -117.769,-282.883 L -117.675,-282.597
 L -117.619,-282.301 L -117.6,-282 L -117.619,-281.699 L -117.675,-281.403 L -117.769,-281.117 L -117.897,-280.844
 L -118.058,-280.589 L -118.25,-280.357 L -118.47,-280.151 L -118.714,-279.974 L -118.978,-279.828 L -119.258,-279.717
 L -119.55,-279.643 L -119.849,-279.605 z
M 119.849,-279.605 L 119.55,-279.643 L 119.258,-279.717 L 118.978,-279.828 L 118.714,-279.974 L 118.47,-280.151
 L 118.25,-280.357 L 118.058,-280.589 L 117.897,-280.844 L 117.769,-281.117 L 117.675,-281.403 L 117.619,-281.699
 L 117.6,-282 L 117.619,-282.301 L 117.675,-282.597 L 117.769,-282.883 L 117.897,-283.156 L 118.058,-283.411
 L 118.25,-283.643 L 118.47,-283.849 L 118.714,-284.026 L 118.978,-284.172 L 119.258,-284.283 L 119.55,-284.357
 L 119.849,-284.395 L 120.151,-284.395 L 120.45,-284.357 L 120.742,-284.283 L 121.022,-284.172 L 121.286,-284.026
 L 121.53,-283.849 L 121.75,-283.643 L 121.942,-283.411 L 122.103,-283.156 L 122.231,-282.883 L 122.325,-282.597
 L 122.381,-282.301 L 122.4,-282 L 122.381,-281.699 L 122.325,-281.403 L 122.231,-281.117 L 122.103,-280.844
 L 121.942,-280.589 L 121.75,-280.357 L 121.53,-280.151 L 121.286,-279.974 L 121.022,-279.828 L 120.742,-279.717
 L 120.45,-279.643 L 120.151,-279.605 z
M 119.849,-219.605 L 119.55,-219.643 L 119.258,-219.717 L 118.978,-219.828 L 118.714,-219.974 L 118.47,-220.151
 L 118.25,-220.357 L 118.058,-220.589 L 117.897,-220.844 L 117.769,-221.117 L 117.675,-221.403 L 117.619,-221.699
 L 117.6,-222 L 117.619,-222.301 L 117.675,-222.597 L 117.769,-222.883 L 117.897,-223.156 L 118.058,-223.411
 L 118.25,-223.643 L 118.47,-223.849 L 118.714,-224.026 L 118.978,-224.172 L 119.258,-224.283 L 119.55,-224.357
 L 119.849,-224.395 L 120.151,-224.395 L 120.45,-224.357 L 120.742,-224.283 L 121.022,-224.172 L 121.286,-224.026
 L 121.53,-223.849 L 121.75,-223.643 L 121.942,-223.411 L 122.103,-223.156 L 122.231,-222.883 L 122.325,-222.597
 L 122.381,-222.301 L 122.4,-222 L 122.381,-221.699 L 122.325,-221.403 L 122.231,-221.117 L 122.103,-220.844
 L 121.942,-220.589 L 121.75,-220.357 L 121.53,-220.151 L 121.286,-219.974 L 121.022,-219.828 L 120.742,-219.717
 L 120.45,-219.643 L 120.151,-219.605 z
M -120.151,-219.605 L -120.45,-219.643 L -120.742,-219.717 L -121.022,-219.828 L -121.286,-219.974 L -121.53,-220.151
 L -121.75,-220.357 L -121.942,-220.589 L -122.103,-220.844 L -122.231,-221.117 L -122.325,-221.403 L -122.381,-221.699
 L -122.4,-222 L -122.381,-222.301 L -122.325,-222.597 L -122.231,-222.883 L -122.103,-223.156 L -121.942,-223.411
 L -121.75,-223.643 L -121.53,-223.849 L -121.286,-224.026 L -121.022,-224.172 L -120.742,-224.283 L -120.45,-224.357
 L -120.151,-224.395 L -119.849,-224.395 L -119.55,-224.357 L -119.258,-224.283 L -118.978,-224.172 L -118.714,-224.026
 L -118.47,-223.849 L -118.25,-223.643 L -118.058,-223.411 L -117.897,-223.156 L -117.769,-222.883 L -117.675,-222.597
 L -117.619,-222.301 L -117.6,-222 L -117.619,-221.699 L -117.675,-221.403 L -117.769,-221.117 L -117.897,-220.844
 L -118.058,-220.589 L -118.25,-220.357 L -118.47,-220.151 L -118.714,-219.974 L -118.978,-219.828 L -119.258,-219.717
 L -119.55,-219.643 L -119.849,-219.605 z
M 123.437,-130.589 L 124.045,-130.745 L 124.629,-130.976 L 125.179,-131.278 L 125.687,-131.647 L 126.145,-132.077
 L 126.545,-132.561 L 126.882,-133.091 L 127.149,-133.659 L 127.343,-134.257 L 127.461,-134.873 L 127.5,-135.5
 L 127.5,-200.5 L 127.461,-201.127 L 127.343,-201.743 L 127.149,-202.341 L 126.882,-202.909 L 126.545,-203.439
 L 126.145,-203.923 L 125.687,-204.353 L 125.179,-204.722 L 124.629,-205.024 L 124.045,-205.255 L 123.437,-205.411
 L 122.814,-205.49 L -122.814,-205.49 L -123.437,-205.411 L -124.045,-205.255 L -124.629,-205.024 L -125.179,-204.722
 L -125.687,-204.353 L -126.145,-203.923 L -126.545,-203.439 L -126.882,-202.909 L -127.149,-202.341 L -127.343,-201.743
 L -127.4,-201.444 L -129,-201.444 L -129,-134.556 L -127.4,-134.556 L -127.343,-134.257 L -127.149,-133.659
 L -126.882,-133.091 L -126.545,-132.561 L -126.145,-132.077 L -125.687,-131.647 L -125.179,-131.278 L -124.629,-130.976
 L -124.045,-130.745 L -123.437,-130.589 L -122.814,-130.51 L 122.814,-130.51 z
M 119.887,-196.204 L 119.663,-196.232 L 119.444,-196.288 L 119.234,-196.371 L 119.036,-196.48 L 118.853,-196.613
 L 118.688,-196.768 L 118.544,-196.942 L 118.423,-197.133 L 118.326,-197.337 L 118.257,-197.552 L 118.214,-197.774
 L 118.2,-198 L 118.214,-198.226 L 118.257,-198.448 L 118.326,-198.663 L 118.423,-198.867 L 118.544,-199.058
 L 118.688,-199.232 L 118.853,-199.387 L 119.036,-199.52 L 119.234,-199.629 L 119.444,-199.712 L 119.663,-199.768
 L 119.887,-199.796 L 120.113,-199.796 L 120.337,-199.768 L 120.556,-199.712 L 120.766,-199.629 L 120.964,-199.52
 L 121.147,-199.387 L 121.312,-199.232 L 121.456,-199.058 L 121.577,-198.867 L 121.674,-198.663 L 121.743,-198.448
 L 121.786,-198.226 L 121.8,-198 L 121.786,-197.774 L 121.743,-197.552 L 121.674,-197.337 L 121.577,-197.133
 L 121.456,-196.942 L 121.312,-196.768 L 121.147,-196.613 L 120.964,-196.48 L 120.766,-196.371 L 120.556,-196.288
 L 120.337,-196.232 L 120.113,-196.204 z
M -120.113,-196.204 L -120.337,-196.232 L -120.556,-196.288 L -120.766,-196.371 L -120.964,-196.48 L -121.147,-196.613
 L -121.312,-196.768 L -121.456,-196.942 L -121.577,-197.133 L -121.674,-197.337 L -121.743,-197.552 L -121.786,-197.774
 L -121.8,-198 L -121.786,-198.226 L -121.743,-198.448 L -121.674,-198.663 L -121.577,-198.867 L -121.456,-199.058
 L -121.312,-199.232 L -121.147,-199.387 L -120.964,-199.52 L -120.766,-199.629 L -120.556,-199.712 L -120.337,-199.768
 L -120.113,-199.796 L -119.887,-199.796 L -119.663,-199.768 L -119.444,-199.712 L -119.234,-199.629 L -119.036,-199.52
 L -118.853,-199.387 L -118.688,-199.232 L -118.544,-199.058 L -118.423,-198.867 L -118.326,-198.663 L -118.257,-198.448
 L -118.214,-198.226 L -118.2,-198 L -118.214,-197.774 L -118.257,-197.552 L -118.326,-197.337 L -118.423,-197.133
 L -118.544,-196.942 L -118.688,-196.768 L -118.853,-196.613 L -119.036,-196.48 L -119.234,-196.371 L -119.444,-196.288
 L -119.663,-196.232 L -119.887,-196.204 z
M 119.887,-136.204 L 119.663,-136.232 L 119.444,-136.288 L 119.234,-136.371 L 119.036,-136.48 L 118.853,-136.613
 L 118.688,-136.768 L 118.544,-136.942 L 118.423,-137.133 L 118.326,-137.337 L 118.257,-137.552 L 118.214,-137.774
 L 118.2,-138 L 118.214,-138.226 L 118.257,-138.448 L 118.326,-138.663 L 118.423,-138.867 L 118.544,-139.058
 L 118.688,-139.232 L 118.853,-139.387 L 119.036,-139.52 L 119.234,-139.629 L 119.444,-139.712 L 119.663,-139.768
 L 119.887,-139.796 L 120.113,-139.796 L 120.337,-139.768 L 120.556,-139.712 L 120.766,-139.629 L 120.964,-139.52
 L 121.147,-139.387 L 121.312,-139.232 L 121.456,-139.058 L 121.577,-138.867 L 121.674,-138.663 L 121.743,-138.448
 L 121.786,-138.226 L 121.8,-138 L 121.786,-137.774 L 121.743,-137.552 L 121.674,-137.337 L 121.577,-137.133
 L 121.456,-136.942 L 121.312,-136.768 L 121.147,-136.613 L 120.964,-136.48 L 120.766,-136.371 L 120.556,-136.288
 L 120.337,-136.232 L 120.113,-136.204 z
M -120.113,-136.204 L -120.337,-136.232 L -120.556,-136.288 L -120.766,-136.371 L -120.964,-136.48 L -121.147,-136.613
 L -121.312,-136.768 L -121.456,-136.942 L -121.577,-137.133 L -121.674,-137.337 L -121.743,-137.552 L -121.786,-137.774
 L -121.8,-138 L -121.786,-138.226 L -121.743,-138.448 L -121.674,-138.663 L -121.577,-138.867 L -121.456,-139.058
 L -121.312,-139.232 L -121.147,-139.387 L -120.964,-139.52 L -120.766,-139.629 L -120.556,-139.712 L -120.337,-139.768
 L -120.113,-139.796 L -119.887,-139.796 L -119.663,-139.768 L -119.444,-139.712 L -119.234,-139.629 L -119.036,-139.52
 L -118.853,-139.387 L -118.688,-139.232 L -118.544,-139.058 L -118.423,-138.867 L -118.326,-138.663 L -118.257,-138.448
 L -118.214,-138.226 L -118.2,-138 L -118.214,-137.774 L -118.257,-137.552 L -118.326,-137.337 L -118.423,-137.133
 L -118.544,-136.942 L -118.688,-136.768 L -118.853,-136.613 L -119.036,-136.48 L -119.234,-136.371 L -119.444,-136.288
 L -119.663,-136.232 L -119.887,-136.204 z
" stroke="black" fill="lightgray" stroke-width="0.5"/>
</svg>
