<?xml version="1.0" standalone="no"?>
<!DOCTYPE svg PUBLIC "-//W3C//DTD SVG 1.1//EN" "http://www.w3.org/Graphics/SVG/1.1/DTD/svg11.dtd">
<svg width="46mm" height="208mm" viewBox="-23 -185 46 208" xmlns="http://www.w3.org/2000/svg" version="1.1">
<title>OpenSCAD Model</title>
<path d="
M 18.4369,-139.589 L 19.0451,-139.745 L 19.6289,-139.976 L 20.1791,-140.278 L 20.6871,-140.647 L 21.1448,-141.077
 L 21.5451,-141.561 L 21.8815,-142.091 L 22.1489,-142.659 L 22.3429,-143.257 L 22.4606,-143.873 L 22.5,-144.5
 L 22.5,-162 L 20.3985,-162 L 20.3841,-161.724 L 20.3307,-161.428 L 20.2406,-161.14 L 20.1151,-160.866
 L 19.9563,-160.61 L 19.7666,-160.376 L 19.5491,-160.167 L 19.3071,-159.987 L 19.0445,-159.839 L 18.7655,-159.725
 L 18.4744,-159.647 L 18.1758,-159.606 L 17.8744,-159.603 L 17.575,-159.638 L 17.2823,-159.71 L 17.0009,-159.818
 L 16.7353,-159.96 L 16.4896,-160.135 L 16.2678,-160.339 L 16.0732,-160.569 L 15.9091,-160.822 L 15.7779,-161.093
 L 15.6818,-161.379 L 15.6222,-161.674 L 15.6001,-161.975 L 15.6014,-162 L 12.25,-162 L 12.1534,-160.465
 L 11.8651,-158.954 L 11.3898,-157.49 L 10.7348,-156.099 L 9.91045,-154.8 L 8.92986,-153.614 L 7.80844,-152.561
 L 6.56387,-151.657 L 5.21579,-150.916 L 3.78545,-150.35 L 2.29541,-149.967 L 0.76918,-149.774 L -0.76918,-149.774
 L -2.29541,-149.967 L -3.78545,-150.35 L -5.21579,-150.916 L -6.56387,-151.657 L -7.80844,-152.561 L -8.92986,-153.614
 L -9.91045,-154.8 L -10.7348,-156.099 L -11.3898,-157.49 L -11.8651,-158.954 L -12.1534,-160.465 L -12.25,-162
 L -12.1534,-163.535 L -11.8651,-165.046 L -11.3898,-166.51 L -10.7348,-167.901 L -9.91045,-169.2 L -8.92986,-170.386
 L -7.80844,-171.439 L -6.56387,-172.343 L -5.21579,-173.084 L -3.78545,-173.65 L -2.29541,-174.033 L -0.76918,-174.226
 L 0,-174.226 L 0,-177.605 L -0.150696,-177.605 L -0.449707,-177.643 L -0.741638,-177.717 L -1.02187,-177.828
 L -1.28598,-177.974 L -1.52982,-178.151 L -1.74951,-178.357 L -1.94164,-178.589 L -2.10313,-178.844 L -2.23146,-179.117
 L -2.32458,-179.403 L -2.38107,-179.699 L -2.39999,-180 L -2.38107,-180.301 L -2.32458,-180.597 L -2.23146,-180.883
 L -2.10313,-181.156 L -1.94164,-181.411 L -1.74951,-181.643 L -1.52982,-181.849 L -1.28598,-182.026 L -1.02187,-182.172
 L -0.741638,-182.283 L -0.449707,-182.357 L -0.150696,-182.395 L 0,-182.395 L 0,-184.49 L -17.8139,-184.49
 L -18.4369,-184.411 L -19.0451,-184.255 L -19.6289,-184.024 L -20.1791,-183.722 L -20.6871,-183.353 L -21.1448,-182.923
 L -21.5451,-182.439 L -21.8815,-181.909 L -22.1489,-181.341 L -22.3429,-180.743 L -22.4606,-180.127 L -22.5,-179.5
 L -22.5,-144.5 L -22.4606,-143.873 L -22.3429,-143.257 L -22.1489,-142.659 L -21.8815,-142.091 L -21.5451,-141.561
 L -21.1448,-141.077 L -20.6871,-140.647 L -20.1791,-140.278 L -19.6289,-139.976 L -19.0451,-139.745 L -18.4369,-139.589
 L -17.8139,-139.51 L 17.8139,-139.51 z
M -15.1884,-174.006 L -15.5621,-174.053 L -15.927,-174.147 L -16.2773,-174.286 L -16.6075,-174.467 L -16.9123,-174.688
 L -17.1869,-174.946 L -17.427,-175.237 L -17.6289,-175.555 L -17.7893,-175.896 L -17.9057,-176.254 L -17.9763,-176.624
 L -18,-177 L -17.9763,-177.376 L -17.9057,-177.746 L -17.7893,-178.104 L -17.6289,-178.445 L -17.427,-178.763
 L -17.1869,-179.054 L -16.9123,-179.312 L -16.6075,-179.533 L -16.2773,-179.714 L -15.927,-179.853 L -15.5621,-179.947
 L -15.1884,-179.994 L -14.8116,-179.994 L -14.4379,-179.947 L -14.0729,-179.853 L -13.7227,-179.714 L -13.3925,-179.533
 L -13.0877,-179.312 L -12.8131,-179.054 L -12.5729,-178.763 L -12.3711,-178.445 L -12.2107,-178.104 L -12.0942,-177.746
 L -12.0237,-177.376 L -12,-177 L -12.0237,-176.624 L -12.0942,-176.254 L -12.2107,-175.896 L -12.3711,-175.555
 L -12.5729,-175.237 L -12.8131,-174.946 L -13.0877,-174.688 L -13.3925,-174.467 L -13.7227,-174.286 L -14.0729,-174.147
 L -14.4379,-174.053 L -14.8116,-174.006 z
M -18.425,-159.638 L -18.7177,-159.71 L -18.9991,-159.818 L -19.2647,-159.96 L -19.5104,-160.135 L -19.7322,-160.339
 L -19.9268,-160.569 L -20.0909,-160.822 L -20.2221,-161.093 L -20.3182,-161.379 L -20.3778,-161.674 L -20.3999,-161.975
 L -20.3841,-162.276 L -20.3307,-162.572 L -20.2406,-162.86 L -20.1151,-163.134 L -19.9563,-163.39 L -19.7666,-163.624
 L -19.5491,-163.833 L -19.3071,-164.013 L -19.0445,-164.161 L -18.7655,-164.275 L -18.4744,-164.353 L -18.1758,-164.394
 L -17.8744,-164.397 L -17.575,-164.362 L -17.2823,-164.29 L -17.0009,-164.182 L -16.7353,-164.04 L -16.4896,-163.865
 L -16.2678,-163.661 L -16.0732,-163.431 L -15.9091,-163.178 L -15.7779,-162.907 L -15.6818,-162.621 L -15.6222,-162.326
 L -15.6001,-162.025 L -15.6159,-161.724 L -15.6693,-161.428 L -15.7594,-161.14 L -15.8849,-160.866 L -16.0437,-160.61
 L -16.2334,-160.376 L -16.4509,-160.167 L -16.6929,-159.987 L -16.9554,-159.839 L -17.2345,-159.725 L -17.5256,-159.647
 L -17.8242,-159.606 L -18.1256,-159.603 z
M 14.8116,-144.006 L 14.4379,-144.053 L 14.0729,-144.147 L 13.7227,-144.286 L 13.3925,-144.467 L 13.0877,-144.688
 L 12.8131,-144.946 L 12.5729,-145.237 L 12.3711,-145.555 L 12.2107,-145.896 L 12.0942,-146.254 L 12.0237,-146.624
 L 12,-147 L 12.0237,-147.376 L 12.0942,-147.746 L 12.2107,-148.104 L 12.3711,-148.445 L 12.5729,-148.763
 L 12.8131,-149.054 L 13.0877,-149.312 L 13.3925,-149.533 L 13.7227,-149.714 L 14.0729,-149.853 L 14.4379,-149.947
 L 14.8116,-149.994 L 15.1884,-149.994 L 15.5621,-149.947 L 15.927,-149.853 L 16.2773,-149.714 L 16.6075,-149.533
 L 16.9123,-149.312 L 17.1869,-149.054 L 17.427,-148.763 L 17.6289,-148.445 L 17.7893,-148.104 L 17.9057,-147.746
 L 17.9763,-147.376 L 18,-147 L 17.9763,-146.624 L 17.9057,-146.254 L 17.7893,-145.896 L 17.6289,-145.555
 L 17.427,-145.237 L 17.1869,-144.946 L 16.9123,-144.688 L 16.6075,-144.467 L 16.2773,-144.286 L 15.927,-144.147
 L 15.5621,-144.053 L 15.1884,-144.006 z
M -15.1884,-144.006 L -15.5621,-144.053 L -15.927,-144.147 L -16.2773,-144.286 L -16.6075,-144.467 L -16.9123,-144.688
 L -17.1869,-144.946 L -17.427,-145.237 L -17.6289,-145.555 L -17.7893,-145.896 L -17.9057,-146.254 L -17.9763,-146.624
 L -18,-147 L -17.9763,-147.376 L -17.9057,-147.746 L -17.7893,-148.104 L -17.6289,-148.445 L -17.427,-148.763
 L -17.1869,-149.054 L -16.9123,-149.312 L -16.6075,-149.533 L -16.2773,-149.714 L -15.927,-149.853 L -15.5621,-149.947
 L -15.1884,-149.994 L -14.8116,-149.994 L -14.4379,-149.947 L -14.0729,-149.853 L -13.7227,-149.714 L -13.3925,-149.533
 L -13.0877,-149.312 L -12.8131,-149.054 L -12.5729,-148.763 L -12.3711,-148.445 L -12.2107,-148.104 L -12.0942,-147.746
 L -12.0237,-147.376 L -12,-147 L -12.0237,-146.624 L -12.0942,-146.254 L -12.2107,-145.896 L -12.3711,-145.555
 L -12.5729,-145.237 L -12.8131,-144.946 L -13.0877,-144.688 L -13.3925,-144.467 L -13.7227,-144.286 L -14.0729,-144.147
 L -14.4379,-144.053 L -14.8116,-144.006 z
M -0.150696,-141.605 L -0.449707,-141.643 L -0.741638,-141.717 L -1.02187,-141.828 L -1.28598,-141.974 L -1.52982,-142.151
 L -1.74951,-142.357 L -1.94164,-142.589 L -2.10313,-142.844 L -2.23146,-143.117 L -2.32458,-143.403 L -2.38107,-143.699
 L -2.39999,-144 L -2.38107,-144.301 L -2.32458,-144.597 L -2.23146,-144.883 L -2.10313,-145.156 L -1.94164,-145.411
 L -1.74951,-145.643 L -1.52982,-145.849 L -1.28598,-146.026 L -1.02187,-146.172 L -0.741638,-146.283 L -0.449707,-146.357
 L -0.150696,-146.395 L 0.150696,-146.395 L 0.449707,-146.357 L 0.741638,-146.283 L 1.02187,-146.172 L 1.28598,-146.026
 L 1.52982,-145.849 L 1.74951,-145.643 L 1.94164,-145.411 L 2.10313,-145.156 L 2.23146,-144.883 L 2.32458,-144.597
 L 2.38107,-144.301 L 2.39999,-144 L 2.38107,-143.699 L 2.32458,-143.403 L 2.23146,-143.117 L 2.10313,-142.844
 L 1.94164,-142.589 L 1.74951,-142.357 L 1.52982,-142.151 L 1.28598,-141.974 L 1.02187,-141.828 L 0.741638,-141.717
 L 0.449707,-141.643 L 0.150696,-141.605 z
M 2.10803,-150.949 L 3.47644,-151.301 L 4.79001,-151.821 L 6.02805,-152.501 L 7.17101,-153.332 L 8.20088,-154.299
 L 9.10144,-155.387 L 9.85844,-156.58 L 10.46,-157.859 L 10.8965,-159.202 L 11.1613,-160.59 L 11.25,-162
 L 9,-162 L 8.98816,-161.812 L 8.95287,-161.627 L 8.89465,-161.448 L 8.81445,-161.277 L 8.71352,-161.118
 L 8.59344,-160.973 L 8.45613,-160.844 L 8.30373,-160.734 L 8.13866,-160.643 L 7.96352,-160.573 L 7.78107,-160.527
 L 7.59418,-160.503 L 7.40581,-160.503 L 7.21892,-160.527 L 7.03647,-160.573 L 6.86133,-160.643 L 6.69626,-160.734
 L 6.54385,-160.844 L 6.40654,-160.973 L 6.28647,-161.118 L 6.18553,-161.277 L 6.10533,-161.448 L 6.04712,-161.627
 L 6.01183,-161.812 L 6,-162 L 3,-162 L 2.97633,-161.624 L 2.90575,-161.254 L 2.78932,-160.896
 L 2.62891,-160.555 L 2.42705,-160.237 L 2.1869,-159.946 L 1.91226,-159.688 L 1.60747,-159.467 L 1.27733,-159.286
 L 0.927048,-159.147 L 0.562134,-159.053 L 0.18837,-159.006 L -0.18837,-159.006 L -0.562134,-159.053 L -0.927048,-159.147
 L -1.27733,-159.286 L -1.60747,-159.467 L -1.91226,-159.688 L -2.1869,-159.946 L -2.42705,-160.237 L -2.62891,-160.555
 L -2.78932,-160.896 L -2.90575,-161.254 L -2.97633,-161.624 L -3,-162 L -2.97633,-162.376 L -2.90575,-162.746
 L -2.78932,-163.104 L -2.62891,-163.445 L -2.42705,-163.763 L -2.1869,-164.054 L -1.91226,-164.312 L -1.60747,-164.533
 L -1.27733,-164.714 L -0.927048,-164.853 L -0.562134,-164.947 L -0.18837,-164.994 L 0,-164.994 L 0,-166.105
 L -0.150696,-166.105 L -0.449707,-166.143 L -0.741638,-166.217 L -1.02187,-166.328 L -1.28598,-166.474 L -1.52982,-166.651
 L -1.74951,-166.857 L -1.94164,-167.089 L -2.10313,-167.344 L -2.23146,-167.617 L -2.32458,-167.903 L -2.38107,-168.199
 L -2.39999,-168.5 L -2.38107,-168.801 L -2.32458,-169.097 L -2.23146,-169.383 L -2.10313,-169.656 L -1.94164,-169.911
 L -1.74951,-170.143 L -1.52982,-170.349 L -1.28598,-170.526 L -1.02187,-170.672 L -0.741638,-170.783 L -0.449707,-170.857
 L -0.150696,-170.895 L 0,-170.895 L 0,-173.228 L -0.70639,-173.228 L -2.10803,-173.051 L -3.47644,-172.699
 L -4.79001,-172.179 L -6.02805,-171.499 L -7.17101,-170.668 L -8.20088,-169.701 L -9.10144,-168.613 L -9.85844,-167.42
 L -10.46,-166.141 L -10.8965,-164.798 L -11.1613,-163.41 L -11.25,-162 L -11.1613,-160.59 L -10.8965,-159.202
 L -10.46,-157.859 L -9.85844,-156.58 L -9.10144,-155.387 L -8.20088,-154.299 L -7.17101,-153.332 L -6.02805,-152.501
 L -4.79001,-151.821 L -3.47644,-151.301 L -2.10803,-150.949 L -0.70639,-150.772 L 0.70639,-150.772 z
M -7.59418,-160.503 L -7.78107,-160.527 L -7.96352,-160.573 L -8.13866,-160.643 L -8.30373,-160.734 L -8.45613,-160.844
 L -8.59344,-160.973 L -8.71352,-161.118 L -8.81445,-161.277 L -8.89465,-161.448 L -8.95287,-161.627 L -8.98816,-161.812
 L -9,-162 L -8.98816,-162.188 L -8.95287,-162.373 L -8.89465,-162.552 L -8.81445,-162.723 L -8.71352,-162.882
 L -8.59344,-163.027 L -8.45613,-163.156 L -8.30373,-163.266 L -8.13866,-163.357 L -7.96352,-163.427 L -7.78107,-163.473
 L -7.59418,-163.497 L -7.40581,-163.497 L -7.21892,-163.473 L -7.03647,-163.427 L -6.86133,-163.357 L -6.69626,-163.266
 L -6.54385,-163.156 L -6.40654,-163.027 L -6.28647,-162.882 L -6.18553,-162.723 L -6.10533,-162.552 L -6.04712,-162.373
 L -6.01183,-162.188 L -6,-162 L -6.01183,-161.812 L -6.04712,-161.627 L -6.10533,-161.448 L -6.18553,-161.277
 L -6.28647,-161.118 L -6.40654,-160.973 L -6.54385,-160.844 L -6.69626,-160.734 L -6.86133,-160.643 L -7.03647,-160.573
 L -7.21892,-160.527 L -7.40581,-160.503 z
M -0.150696,-153.105 L -0.449707,-153.143 L -0.741638,-153.217 L -1.02187,-153.328 L -1.28598,-153.474 L -1.52982,-153.651
 L -1.74951,-153.857 L -1.94164,-154.089 L -2.10313,-154.344 L -2.23146,-154.617 L -2.32458,-154.903 L -2.38107,-155.199
 L -2.39999,-155.5 L -2.38107,-155.801 L -2.32458,-156.097 L -2.23146,-156.383 L -2.10313,-156.656 L -1.94164,-156.911
 L -1.74951,-157.143 L -1.52982,-157.349 L -1.28598,-157.526 L -1.02187,-157.672 L -0.741638,-157.783 L -0.449707,-157.857
 L -0.150696,-157.895 L 0.150696,-157.895 L 0.449707,-157.857 L 0.741638,-157.783 L 1.02187,-157.672 L 1.28598,-157.526
 L 1.52982,-157.349 L 1.74951,-157.143 L 1.94164,-156.911 L 2.10313,-156.656 L 2.23146,-156.383 L 2.32458,-156.097
 L 2.38107,-155.801 L 2.39999,-155.5 L 2.38107,-155.199 L 2.32458,-154.903 L 2.23146,-154.617 L 2.10313,-154.344
 L 1.94164,-154.089 L 1.74951,-153.857 L 1.52982,-153.651 L 1.28598,-153.474 L 1.02187,-153.328 L 0.741638,-153.217
 L 0.449707,-153.143 L 0.150696,-153.105 z
M 18.4369,-85.5886 L 19.0451,-85.7447 L 19.6289,-85.9759 L 20.1791,-86.2784 L 20.6871,-86.6474 L 21.1448,-87.0773
 L 21.5451,-87.5611 L 21.8815,-88.0912 L 22.1489,-88.6594 L 22.3429,-89.2566 L 22.4606,-89.8733 L 22.5,-90.5
 L 22.5,-108 L 20.8982,-108 L 20.8982,-106.327 L 18,-104.653 L 15.1018,-106.327 L 15.1018,-108
 L 13.5,-108 L 13.3935,-106.308 L 13.0759,-104.643 L 12.552,-103.03 L 11.8301,-101.496 L 10.9217,-100.065
 L 9.84106,-98.7586 L 8.60521,-97.5981 L 7.23366,-96.6016 L 5.74802,-95.7848 L 4.17172,-95.1608 L 2.52963,-94.7391
 L 0.847672,-94.5266 L -0.847672,-94.5266 L -2.52963,-94.7391 L -4.17172,-95.1608 L -5.74802,-95.7848 L -7.23366,-96.6016
 L -8.60521,-97.5981 L -9.84106,-98.7586 L -10.9217,-100.065 L -11.8301,-101.496 L -12.552,-103.03 L -13.0759,-104.643
 L -13.3935,-106.308 L -13.5,-108 L -13.3935,-109.692 L -13.0759,-111.357 L -12.552,-112.97 L -11.8301,-114.504
 L -10.9217,-115.935 L -9.84106,-117.241 L -8.60521,-118.402 L -7.23366,-119.398 L -5.74802,-120.215 L -4.17172,-120.839
 L -2.52963,-121.261 L -0.847672,-121.473 L 0,-121.473 L 0,-124.503 L -0.0941772,-124.503 L -0.281067,-124.527
 L -0.463516,-124.573 L -0.638657,-124.643 L -0.803726,-124.734 L -0.956131,-124.844 L -1.09344,-124.973 L -1.21352,-125.118
 L -1.31445,-125.277 L -1.39465,-125.448 L -1.45287,-125.627 L -1.48816,-125.812 L -1.5,-126 L -1.48816,-126.188
 L -1.45287,-126.373 L -1.39465,-126.552 L -1.31445,-126.723 L -1.21352,-126.882 L -1.09344,-127.027 L -0.956131,-127.156
 L -0.803726,-127.266 L -0.638657,-127.357 L -0.463516,-127.427 L -0.281067,-127.473 L -0.0941772,-127.497 L 0,-127.497
 L 0,-130.49 L -17.8139,-130.49 L -18.4369,-130.411 L -19.0451,-130.255 L -19.6289,-130.024 L -20.1791,-129.722
 L -20.6871,-129.353 L -21.1448,-128.923 L -21.5451,-128.439 L -21.8815,-127.909 L -22.1489,-127.341 L -22.3429,-126.743
 L -22.4606,-126.127 L -22.5,-125.5 L -22.5,-90.5 L -22.4606,-89.8733 L -22.3429,-89.2566 L -22.1489,-88.6594
 L -21.8815,-88.0912 L -21.5451,-87.5611 L -21.1448,-87.0773 L -20.6871,-86.6474 L -20.1791,-86.2784 L -19.6289,-85.9759
 L -19.0451,-85.7447 L -18.4369,-85.5886 L -17.8139,-85.5099 L 17.8139,-85.5099 z
M -15.1884,-120.006 L -15.5621,-120.053 L -15.927,-120.147 L -16.2773,-120.286 L -16.6075,-120.467 L -16.9123,-120.688
 L -17.1869,-120.946 L -17.427,-121.237 L -17.6289,-121.555 L -17.7893,-121.896 L -17.9057,-122.254 L -17.9763,-122.624
 L -18,-123 L -17.9763,-123.376 L -17.9057,-123.746 L -17.7893,-124.104 L -17.6289,-124.445 L -17.427,-124.763
 L -17.1869,-125.054 L -16.9123,-125.312 L -16.6075,-125.533 L -16.2773,-125.714 L -15.927,-125.853 L -15.5621,-125.947
 L -15.1884,-125.994 L -14.8116,-125.994 L -14.4379,-125.947 L -14.0729,-125.853 L -13.7227,-125.714 L -13.3925,-125.533
 L -13.0877,-125.312 L -12.8131,-125.054 L -12.5729,-124.763 L -12.3711,-124.445 L -12.2107,-124.104 L -12.0942,-123.746
 L -12.0237,-123.376 L -12,-123 L -12.0237,-122.624 L -12.0942,-122.254 L -12.2107,-121.896 L -12.3711,-121.555
 L -12.5729,-121.237 L -12.8131,-120.946 L -13.0877,-120.688 L -13.3925,-120.467 L -13.7227,-120.286 L -14.0729,-120.147
 L -14.4379,-120.053 L -14.8116,-120.006 z
M -20.8982,-106.327 L -20.8982,-109.673 L -18,-111.347 L -15.1018,-109.673 L -15.1018,-106.327 L -18,-104.653
 z
M -15.1884,-90.0059 L -15.5621,-90.0531 L -15.927,-90.1468 L -16.2773,-90.2855 L -16.6075,-90.467 L -16.9123,-90.6885
 L -17.1869,-90.9464 L -17.427,-91.2366 L -17.6289,-91.5547 L -17.7893,-91.8956 L -17.9057,-92.2539 L -17.9763,-92.624
 L -18,-93 L -17.9763,-93.376 L -17.9057,-93.7461 L -17.7893,-94.1044 L -17.6289,-94.4453 L -17.427,-94.7634
 L -17.1869,-95.0536 L -16.9123,-95.3116 L -16.6075,-95.533 L -16.2773,-95.7145 L -15.927,-95.8532 L -15.5621,-95.9469
 L -15.1884,-95.9941 L -14.8116,-95.9941 L -14.4379,-95.9469 L -14.0729,-95.8532 L -13.7227,-95.7145 L -13.3925,-95.533
 L -13.0877,-95.3116 L -12.8131,-95.0536 L -12.5729,-94.7634 L -12.3711,-94.4453 L -12.2107,-94.1044 L -12.0942,-93.7461
 L -12.0237,-93.376 L -12,-93 L -12.0237,-92.624 L -12.0942,-92.2539 L -12.2107,-91.8956 L -12.3711,-91.5547
 L -12.5729,-91.2366 L -12.8131,-90.9464 L -13.0877,-90.6885 L -13.3925,-90.467 L -13.7227,-90.2855 L -14.0729,-90.1468
 L -14.4379,-90.0531 L -14.8116,-90.0059 z
M 14.8116,-90.0059 L 14.4379,-90.0531 L 14.0729,-90.1468 L 13.7227,-90.2855 L 13.3925,-90.467 L 13.0877,-90.6885
 L 12.8131,-90.9464 L 12.5729,-91.2366 L 12.3711,-91.5547 L 12.2107,-91.8956 L 12.0942,-92.2539 L 12.0237,-92.624
 L 12,-93 L 12.0237,-93.376 L 12.0942,-93.7461 L 12.2107,-94.1044 L 12.3711,-94.4453 L 12.5729,-94.7634
 L 12.8131,-95.0536 L 13.0877,-95.3116 L 13.3925,-95.533 L 13.7227,-95.7145 L 14.0729,-95.8532 L 14.4379,-95.9469
 L 14.8116,-95.9941 L 15.1884,-95.9941 L 15.5621,-95.9469 L 15.927,-95.8532 L 16.2773,-95.7145 L 16.6075,-95.533
 L 16.9123,-95.3116 L 17.1869,-95.0536 L 17.427,-94.7634 L 17.6289,-94.4453 L 17.7893,-94.1044 L 17.9057,-93.7461
 L 17.9763,-93.376 L 18,-93 L 17.9763,-92.624 L 17.9057,-92.2539 L 17.7893,-91.8956 L 17.6289,-91.5547
 L 17.427,-91.2366 L 17.1869,-90.9464 L 16.9123,-90.6885 L 16.6075,-90.467 L 16.2773,-90.2855 L 15.927,-90.1468
 L 15.5621,-90.0531 L 15.1884,-90.0059 z
M -0.0941772,-88.503 L -0.281067,-88.5266 L -0.463516,-88.5734 L -0.638657,-88.6428 L -0.803726,-88.7335 L -0.956131,-88.8442
 L -1.09344,-88.9732 L -1.21352,-89.1183 L -1.31445,-89.2774 L -1.39465,-89.4478 L -1.45287,-89.627 L -1.48816,-89.812
 L -1.5,-90 L -1.48816,-90.188 L -1.45287,-90.373 L -1.39465,-90.5522 L -1.31445,-90.7226 L -1.21352,-90.8817
 L -1.09344,-91.0268 L -0.956131,-91.1558 L -0.803726,-91.2665 L -0.638657,-91.3573 L -0.463516,-91.4266 L -0.281067,-91.4734
 L -0.0941772,-91.497 L 0.0941772,-91.497 L 0.281067,-91.4734 L 0.463516,-91.4266 L 0.638657,-91.3573 L 0.803726,-91.2665
 L 0.956131,-91.1558 L 1.09344,-91.0268 L 1.21352,-90.8817 L 1.31445,-90.7226 L 1.39465,-90.5522 L 1.45287,-90.373
 L 1.48816,-90.188 L 1.5,-90 L 1.48816,-89.812 L 1.45287,-89.627 L 1.39465,-89.4478 L 1.31445,-89.2774
 L 1.21352,-89.1183 L 1.09344,-88.9732 L 0.956131,-88.8442 L 0.803726,-88.7335 L 0.638657,-88.6428 L 0.463516,-88.5734
 L 0.281067,-88.5266 L 0.0941772,-88.503 z
M 1.87381,-98.1771 L 3.09016,-98.4894 L 4.25778,-98.9517 L 5.35826,-99.5567 L 6.37424,-100.295 L 7.28967,-101.155
 L 8.09016,-102.122 L 8.76306,-103.182 L 9.29776,-104.319 L 9.68582,-105.513 L 9.92114,-106.747 L 10,-108
 L 9,-108 L 8.98816,-107.812 L 8.95287,-107.627 L 8.89465,-107.448 L 8.81445,-107.277 L 8.71352,-107.118
 L 8.59344,-106.973 L 8.45613,-106.844 L 8.30373,-106.734 L 8.13866,-106.643 L 7.96352,-106.573 L 7.78107,-106.527
 L 7.59418,-106.503 L 7.40581,-106.503 L 7.21892,-106.527 L 7.03647,-106.573 L 6.86133,-106.643 L 6.69626,-106.734
 L 6.54385,-106.844 L 6.40654,-106.973 L 6.28647,-107.118 L 6.18553,-107.277 L 6.10533,-107.448 L 6.04712,-107.627
 L 6.01183,-107.812 L 6,-108 L 3,-108 L 2.97633,-107.624 L 2.90575,-107.254 L 2.78932,-106.896
 L 2.62891,-106.555 L 2.42705,-106.237 L 2.1869,-105.946 L 1.91226,-105.688 L 1.60747,-105.467 L 1.27733,-105.286
 L 0.927048,-105.147 L 0.562134,-105.053 L 0.18837,-105.006 L -0.18837,-105.006 L -0.562134,-105.053 L -0.927048,-105.147
 L -1.27733,-105.286 L -1.60747,-105.467 L -1.91226,-105.688 L -2.1869,-105.946 L -2.42705,-106.237 L -2.62891,-106.555
 L -2.78932,-106.896 L -2.90575,-107.254 L -2.97633,-107.624 L -3,-108 L -2.97633,-108.376 L -2.90575,-108.746
 L -2.78932,-109.104 L -2.62891,-109.445 L -2.42705,-109.763 L -2.1869,-110.054 L -1.91226,-110.312 L -1.60747,-110.533
 L -1.27733,-110.714 L -0.927048,-110.853 L -0.562134,-110.947 L -0.18837,-110.994 L 0,-110.994 L 0,-111.602
 L -1.67329,-111.602 L -3.34659,-114.5 L -1.67329,-117.398 L 0,-117.398 L 0,-117.98 L -0.627899,-117.98
 L -1.87381,-117.823 L -3.09016,-117.511 L -4.25778,-117.048 L -5.35826,-116.443 L -6.37424,-115.705 L -7.28967,-114.845
 L -8.09016,-113.878 L -8.76306,-112.818 L -9.29776,-111.681 L -9.68582,-110.487 L -9.92114,-109.253 L -10,-108
 L -9.92114,-106.747 L -9.68582,-105.513 L -9.29776,-104.319 L -8.76306,-103.182 L -8.09016,-102.122 L -7.28967,-101.155
 L -6.37424,-100.295 L -5.35826,-99.5567 L -4.25778,-98.9517 L -3.09016,-98.4894 L -1.87381,-98.1771 L -0.627899,-98.0197
 L 0.627899,-98.0197 z
M -7.59418,-106.503 L -7.78107,-106.527 L -7.96352,-106.573 L -8.13866,-106.643 L -8.30373,-106.734 L -8.45613,-106.844
 L -8.59344,-106.973 L -8.71352,-107.118 L -8.81445,-107.277 L -8.89465,-107.448 L -8.95287,-107.627 L -8.98816,-107.812
 L -9,-108 L -8.98816,-108.188 L -8.95287,-108.373 L -8.89465,-108.552 L -8.81445,-108.723 L -8.71352,-108.882
 L -8.59344,-109.027 L -8.45613,-109.156 L -8.30373,-109.266 L -8.13866,-109.357 L -7.96352,-109.427 L -7.78107,-109.473
 L -7.59418,-109.497 L -7.40581,-109.497 L -7.21892,-109.473 L -7.03647,-109.427 L -6.86133,-109.357 L -6.69626,-109.266
 L -6.54385,-109.156 L -6.40654,-109.027 L -6.28647,-108.882 L -6.18553,-108.723 L -6.10533,-108.552 L -6.04712,-108.373
 L -6.01183,-108.188 L -6,-108 L -6.01183,-107.812 L -6.04712,-107.627 L -6.10533,-107.448 L -6.18553,-107.277
 L -6.28647,-107.118 L -6.40654,-106.973 L -6.54385,-106.844 L -6.69626,-106.734 L -6.86133,-106.643 L -7.03647,-106.573
 L -7.21892,-106.527 L -7.40581,-106.503 z
M -1.67329,-98.6018 L -3.34659,-101.5 L -1.67329,-104.398 L 1.67329,-104.398 L 3.34659,-101.5 L 1.67329,-98.6018
 z
M 18.4369,-31.5886 L 19.0451,-31.7447 L 19.6289,-31.9759 L 20.1791,-32.2784 L 20.6871,-32.6474 L 21.1448,-33.0773
 L 21.5451,-33.5611 L 21.8815,-34.0912 L 22.1489,-34.6594 L 22.3429,-35.2566 L 22.4606,-35.8733 L 22.5,-36.5
 L 22.5,-71.5 L 22.4606,-72.1267 L 22.3429,-72.7434 L 22.1489,-73.3406 L 21.8815,-73.9088 L 21.5451,-74.4389
 L 21.1448,-74.9227 L 20.6871,-75.3526 L 20.1791,-75.7216 L 19.6289,-76.0241 L 19.0451,-76.2553 L 18.4369,-76.4114
 L 17.8139,-76.4901 L -17.8139,-76.4901 L -18.4369,-76.4114 L -19.0451,-76.2553 L -19.6289,-76.0241 L -20.1791,-75.7216
 L -20.6871,-75.3526 L -21.1448,-74.9227 L -21.5451,-74.4389 L -21.8815,-73.9088 L -22.1489,-73.3406 L -22.3429,-72.7434
 L -22.4606,-72.1267 L -22.5,-71.5 L -22.5,-36.5 L -22.4606,-35.8733 L -22.3429,-35.2566 L -22.1489,-34.6594
 L -21.8815,-34.0912 L -21.5451,-33.5611 L -21.1448,-33.0773 L -20.6871,-32.6474 L -20.1791,-32.2784 L -19.6289,-31.9759
 L -19.0451,-31.7447 L -18.4369,-31.5886 L -17.8139,-31.5099 L 17.8139,-31.5099 z
M -0.0941772,-70.503 L -0.281067,-70.5266 L -0.463516,-70.5734 L -0.638657,-70.6427 L -0.803726,-70.7335 L -0.956131,-70.8442
 L -1.09344,-70.9732 L -1.21352,-71.1183 L -1.31445,-71.2774 L -1.39465,-71.4478 L -1.45287,-71.627 L -1.48816,-71.812
 L -1.5,-72 L -1.48816,-72.188 L -1.45287,-72.373 L -1.39465,-72.5522 L -1.31445,-72.7226 L -1.21352,-72.8817
 L -1.09344,-73.0268 L -0.956131,-73.1558 L -0.803726,-73.2665 L -0.638657,-73.3572 L -0.463516,-73.4266 L -0.281067,-73.4734
 L -0.0941772,-73.497 L 0.0941772,-73.497 L 0.281067,-73.4734 L 0.463516,-73.4266 L 0.638657,-73.3572 L 0.803726,-73.2665
 L 0.956131,-73.1558 L 1.09344,-73.0268 L 1.21352,-72.8817 L 1.31445,-72.7226 L 1.39465,-72.5522 L 1.45287,-72.373
 L 1.48816,-72.188 L 1.5,-72 L 1.48816,-71.812 L 1.45287,-71.627 L 1.39465,-71.4478 L 1.31445,-71.2774
 L 1.21352,-71.1183 L 1.09344,-70.9732 L 0.956131,-70.8442 L 0.803726,-70.7335 L 0.638657,-70.6427 L 0.463516,-70.5734
 L 0.281067,-70.5266 L 0.0941772,-70.503 z
M 14.8116,-66.0059 L 14.4379,-66.0531 L 14.0729,-66.1468 L 13.7227,-66.2855 L 13.3925,-66.467 L 13.0877,-66.6884
 L 12.8131,-66.9464 L 12.5729,-67.2366 L 12.3711,-67.5547 L 12.2107,-67.8956 L 12.0942,-68.2539 L 12.0237,-68.624
 L 12,-69 L 12.0237,-69.376 L 12.0942,-69.7461 L 12.2107,-70.1044 L 12.3711,-70.4453 L 12.5729,-70.7634
 L 12.8131,-71.0536 L 13.0877,-71.3115 L 13.3925,-71.533 L 13.7227,-71.7145 L 14.0729,-71.8532 L 14.4379,-71.9469
 L 14.8116,-71.9941 L 15.1884,-71.9941 L 15.5621,-71.9469 L 15.927,-71.8532 L 16.2773,-71.7145 L 16.6075,-71.533
 L 16.9123,-71.3115 L 17.1869,-71.0536 L 17.427,-70.7634 L 17.6289,-70.4453 L 17.7893,-70.1044 L 17.9057,-69.7461
 L 17.9763,-69.376 L 18,-69 L 17.9763,-68.624 L 17.9057,-68.2539 L 17.7893,-67.8956 L 17.6289,-67.5547
 L 17.427,-67.2366 L 17.1869,-66.9464 L 16.9123,-66.6884 L 16.6075,-66.467 L 16.2773,-66.2855 L 15.927,-66.1468
 L 15.5621,-66.0531 L 15.1884,-66.0059 z
M -15.1884,-66.0059 L -15.5621,-66.0531 L -15.927,-66.1468 L -16.2773,-66.2855 L -16.6075,-66.467 L -16.9123,-66.6884
 L -17.1869,-66.9464 L -17.427,-67.2366 L -17.6289,-67.5547 L -17.7893,-67.8956 L -17.9057,-68.2539 L -17.9763,-68.624
 L -18,-69 L -17.9763,-69.376 L -17.9057,-69.7461 L -17.7893,-70.1044 L -17.6289,-70.4453 L -17.427,-70.7634
 L -17.1869,-71.0536 L -16.9123,-71.3115 L -16.6075,-71.533 L -16.2773,-71.7145 L -15.927,-71.8532 L -15.5621,-71.9469
 L -15.1884,-71.9941 L -14.8116,-71.9941 L -14.4379,-71.9469 L -14.0729,-71.8532 L -13.7227,-71.7145 L -13.3925,-71.533
 L -13.0877,-71.3115 L -12.8131,-71.0536 L -12.5729,-70.7634 L -12.3711,-70.4453 L -12.2107,-70.1044 L -12.0942,-69.7461
 L -12.0237,-69.376 L -12,-69 L -12.0237,-68.624 L -12.0942,-68.2539 L -12.2107,-67.8956 L -12.3711,-67.5547
 L -12.5729,-67.2366 L -12.8131,-66.9464 L -13.0877,-66.6884 L -13.3925,-66.467 L -13.7227,-66.2855 L -14.0729,-66.1468
 L -14.4379,-66.0531 L -14.8116,-66.0059 z
M -0.847672,-40.5266 L -2.52963,-40.7391 L -4.17172,-41.1608 L -5.74802,-41.7848 L -7.23366,-42.6016 L -8.60521,-43.5981
 L -9.84106,-44.7586 L -10.9217,-46.0649 L -11.8301,-47.4963 L -12.552,-49.0303 L -13.0759,-50.6427 L -13.3935,-52.308
 L -13.5,-54 L -13.3935,-55.692 L -13.0759,-57.3573 L -12.552,-58.9697 L -11.8301,-60.5037 L -10.9217,-61.9351
 L -9.84106,-63.2414 L -8.60521,-64.4019 L -7.23366,-65.3984 L -5.74802,-66.2152 L -4.17172,-66.8392 L -2.52963,-67.2609
 L -0.847672,-67.4734 L 0.847672,-67.4734 L 2.52963,-67.2609 L 4.17172,-66.8392 L 5.74802,-66.2152 L 7.23366,-65.3984
 L 8.60521,-64.4019 L 9.84106,-63.2414 L 10.9217,-61.9351 L 11.8301,-60.5037 L 12.552,-58.9697 L 13.0759,-57.3573
 L 13.3935,-55.692 L 13.5,-54 L 13.3935,-52.308 L 13.0759,-50.6427 L 12.552,-49.0303 L 11.8301,-47.4963
 L 10.9217,-46.0649 L 9.84106,-44.7586 L 8.60521,-43.5981 L 7.23366,-42.6016 L 5.74802,-41.7848 L 4.17172,-41.1608
 L 2.52963,-40.7391 L 0.847672,-40.5266 z
M 1.87381,-44.1771 L 3.09016,-44.4894 L 4.25778,-44.9517 L 5.35826,-45.5567 L 6.37424,-46.2949 L 7.28967,-47.1545
 L 8.09016,-48.1222 L 8.76306,-49.1825 L 9.29776,-50.3188 L 9.68582,-51.5131 L 9.92114,-52.7467 L 10,-54
 L 9.92114,-55.2533 L 9.68582,-56.4869 L 9.29776,-57.6812 L 8.76306,-58.8175 L 8.09016,-59.8778 L 7.28967,-60.8455
 L 6.37424,-61.7051 L 5.35826,-62.4433 L 4.25778,-63.0483 L 3.09016,-63.5106 L 1.87381,-63.8229 L 0.627899,-63.9803
 L -0.627899,-63.9803 L -1.87381,-63.8229 L -3.09016,-63.5106 L -4.25778,-63.0483 L -5.35826,-62.4433 L -6.37424,-61.7051
 L -7.28967,-60.8455 L -8.09016,-59.8778 L -8.76306,-58.8175 L -9.29776,-57.6812 L -9.68582,-56.4869 L -9.92114,-55.2533
 L -10,-54 L -9.92114,-52.7467 L -9.68582,-51.5131 L -9.29776,-50.3188 L -8.76306,-49.1825 L -8.09016,-48.1222
 L -7.28967,-47.1545 L -6.37424,-46.2949 L -5.35826,-45.5567 L -4.25778,-44.9517 L -3.09016,-44.4894 L -1.87381,-44.1771
 L -0.627899,-44.0197 L 0.627899,-44.0197 z
M -1.67329,-57.6018 L -3.34659,-60.5 L -1.67329,-63.3982 L 1.67329,-63.3982 L 3.34659,-60.5 L 1.67329,-57.6018
 z
M -0.18837,-51.0059 L -0.562134,-51.0531 L -0.927048,-51.1468 L -1.27733,-51.2855 L -1.60747,-51.467 L -1.91226,-51.6885
 L -2.1869,-51.9464 L -2.42705,-52.2366 L -2.62891,-52.5547 L -2.78932,-52.8956 L -2.90575,-53.2539 L -2.97633,-53.624
 L -3,-54 L -2.97633,-54.376 L -2.90575,-54.7461 L -2.78932,-55.1044 L -2.62891,-55.4453 L -2.42705,-55.7634
 L -2.1869,-56.0536 L -1.91226,-56.3115 L -1.60747,-56.533 L -1.27733,-56.7145 L -0.927048,-56.8532 L -0.562134,-56.9469
 L -0.18837,-56.9941 L 0.18837,-56.9941 L 0.562134,-56.9469 L 0.927048,-56.8532 L 1.27733,-56.7145 L 1.60747,-56.533
 L 1.91226,-56.3115 L 2.1869,-56.0536 L 2.42705,-55.7634 L 2.62891,-55.4453 L 2.78932,-55.1044 L 2.90575,-54.7461
 L 2.97633,-54.376 L 3,-54 L 2.97633,-53.624 L 2.90575,-53.2539 L 2.78932,-52.8956 L 2.62891,-52.5547
 L 2.42705,-52.2366 L 2.1869,-51.9464 L 1.91226,-51.6885 L 1.60747,-51.467 L 1.27733,-51.2855 L 0.927048,-51.1468
 L 0.562134,-51.0531 L 0.18837,-51.0059 z
M -7.61929,-52.1038 L -7.85602,-52.1337 L -8.08713,-52.193 L -8.30898,-52.2808 L -8.51807,-52.3958 L -8.71111,-52.536
 L -8.88504,-52.6994 L -9.03712,-52.8832 L -9.16498,-53.0847 L -9.26657,-53.3006 L -9.3403,-53.5275 L -9.38501,-53.7619
 L -9.39999,-54 L -9.38501,-54.2381 L -9.3403,-54.4725 L -9.26657,-54.6994 L -9.16498,-54.9153 L -9.03712,-55.1168
 L -8.88504,-55.3006 L -8.71111,-55.464 L -8.51807,-55.6042 L -8.30898,-55.7192 L -8.08713,-55.807 L -7.85602,-55.8663
 L -7.61929,-55.8962 L -7.38069,-55.8962 L -7.14397,-55.8663 L -6.91286,-55.807 L -6.69101,-55.7192 L -6.48192,-55.6042
 L -6.28888,-55.464 L -6.11494,-55.3006 L -5.96286,-55.1168 L -5.83501,-54.9153 L -5.73341,-54.6994 L -5.65968,-54.4725
 L -5.61497,-54.2381 L -5.59999,-54 L -5.61497,-53.7619 L -5.65968,-53.5275 L -5.73341,-53.3006 L -5.83501,-53.0847
 L -5.96286,-52.8832 L -6.11494,-52.6994 L -6.28888,-52.536 L -6.48192,-52.3958 L -6.69101,-52.2808 L -6.91286,-52.193
 L -7.14397,-52.1337 L -7.38069,-52.1038 z
M 7.38069,-52.1038 L 7.14397,-52.1337 L 6.91286,-52.193 L 6.69101,-52.2808 L 6.48192,-52.3958 L 6.28888,-52.536
 L 6.11494,-52.6994 L 5.96286,-52.8832 L 5.83501,-53.0847 L 5.73341,-53.3006 L 5.65968,-53.5275 L 5.61497,-53.7619
 L 5.59999,-54 L 5.61497,-54.2381 L 5.65968,-54.4725 L 5.73341,-54.6994 L 5.83501,-54.9153 L 5.96286,-55.1168
 L 6.11494,-55.3006 L 6.28888,-55.464 L 6.48192,-55.6042 L 6.69101,-55.7192 L 6.91286,-55.807 L 7.14397,-55.8663
 L 7.38069,-55.8962 L 7.61929,-55.8962 L 7.85602,-55.8663 L 8.08713,-55.807 L 8.30898,-55.7192 L 8.51807,-55.6042
 L 8.71111,-55.464 L 8.88504,-55.3006 L 9.03712,-55.1168 L 9.16498,-54.9153 L 9.26657,-54.6994 L 9.3403,-54.4725
 L 9.38501,-54.2381 L 9.39999,-54 L 9.38501,-53.7619 L 9.3403,-53.5275 L 9.26657,-53.3006 L 9.16498,-53.0847
 L 9.03712,-52.8832 L 8.88504,-52.6994 L 8.71111,-52.536 L 8.51807,-52.3958 L 8.30898,-52.2808 L 8.08713,-52.193
 L 7.85602,-52.1337 L 7.61929,-52.1038 z
M -1.67329,-44.6018 L -3.34659,-47.5 L -1.67329,-50.3982 L 1.67329,-50.3982 L 3.34659,-47.5 L 1.67329,-44.6018
 z
M 15.1018,-52.3267 L 15.1018,-55.6733 L 18,-57.3466 L 20.8982,-55.6733 L 20.8982,-52.3267 L 18,-50.6534
 z
M -20.8982,-52.3267 L -20.8982,-55.6733 L -18,-57.3466 L -15.1018,-55.6733 L -15.1018,-52.3267 L -18,-50.6534
 z
M 14.8116,-36.0059 L 14.4379,-36.0531 L 14.0729,-36.1468 L 13.7227,-36.2855 L 13.3925,-36.467 L 13.0877,-36.6885
 L 12.8131,-36.9464 L 12.5729,-37.2366 L 12.3711,-37.5547 L 12.2107,-37.8956 L 12.0942,-38.2539 L 12.0237,-38.624
 L 12,-39 L 12.0237,-39.376 L 12.0942,-39.7461 L 12.2107,-40.1044 L 12.3711,-40.4453 L 12.5729,-40.7634
 L 12.8131,-41.0536 L 13.0877,-41.3116 L 13.3925,-41.533 L 13.7227,-41.7145 L 14.0729,-41.8532 L 14.4379,-41.9469
 L 14.8116,-41.9941 L 15.1884,-41.9941 L 15.5621,-41.9469 L 15.927,-41.8532 L 16.2773,-41.7145 L 16.6075,-41.533
 L 16.9123,-41.3116 L 17.1869,-41.0536 L 17.427,-40.7634 L 17.6289,-40.4453 L 17.7893,-40.1044 L 17.9057,-39.7461
 L 17.9763,-39.376 L 18,-39 L 17.9763,-38.624 L 17.9057,-38.2539 L 17.7893,-37.8956 L 17.6289,-37.5547
 L 17.427,-37.2366 L 17.1869,-36.9464 L 16.9123,-36.6885 L 16.6075,-36.467 L 16.2773,-36.2855 L 15.927,-36.1468
 L 15.5621,-36.0531 L 15.1884,-36.0059 z
M -15.1884,-36.0059 L -15.5621,-36.0531 L -15.927,-36.1468 L -16.2773,-36.2855 L -16.6075,-36.467 L -16.9123,-36.6885
 L -17.1869,-36.9464 L -17.427,-37.2366 L -17.6289,-37.5547 L -17.7893,-37.8956 L -17.9057,-38.2539 L -17.9763,-38.624
 L -18,-39 L -17.9763,-39.376 L -17.9057,-39.7461 L -17.7893,-40.1044 L -17.6289,-40.4453 L -17.427,-40.7634
 L -17.1869,-41.0536 L -16.9123,-41.3116 L -16.6075,-41.533 L -16.2773,-41.7145 L -15.927,-41.8532 L -15.5621,-41.9469
 L -15.1884,-41.9941 L -14.8116,-41.9941 L -14.4379,-41.9469 L -14.0729,-41.8532 L -13.7227,-41.7145 L -13.3925,-41.533
 L -13.0877,-41.3116 L -12.8131,-41.0536 L -12.5729,-40.7634 L -12.3711,-40.4453 L -12.2107,-40.1044 L -12.0942,-39.7461
 L -12.0237,-39.376 L -12,-39 L -12.0237,-38.624 L -12.0942,-38.2539 L -12.2107,-37.8956 L -12.3711,-37.5547
 L -12.5729,-37.2366 L -12.8131,-36.9464 L -13.0877,-36.6885 L -13.3925,-36.467 L -13.7227,-36.2855 L -14.0729,-36.1468
 L -14.4379,-36.0531 L -14.8116,-36.0059 z
M -0.0941772,-34.503 L -0.281067,-34.5266 L -0.463516,-34.5734 L -0.638657,-34.6428 L -0.803726,-34.7335 L -0.956131,-34.8442
 L -1.09344,-34.9732 L -1.21352,-35.1183 L -1.31445,-35.2774 L -1.39465,-35.4478 L -1.45287,-35.627 L -1.48816,-35.812
 L -1.5,-36 L -1.48816,-36.188 L -1.45287,-36.373 L -1.39465,-36.5522 L -1.31445,-36.7226 L -1.21352,-36.8817
 L -1.09344,-37.0268 L -0.956131,-37.1558 L -0.803726,-37.2665 L -0.638657,-37.3573 L -0.463516,-37.4266 L -0.281067,-37.4734
 L -0.0941772,-37.497 L 0.0941772,-37.497 L 0.281067,-37.4734 L 0.463516,-37.4266 L 0.638657,-37.3573 L 0.803726,-37.2665
 L 0.956131,-37.1558 L 1.09344,-37.0268 L 1.21352,-36.8817 L 1.31445,-36.7226 L 1.39465,-36.5522 L 1.45287,-36.373
 L 1.48816,-36.188 L 1.5,-36 L 1.48816,-35.812 L 1.45287,-35.627 L 1.39465,-35.4478 L 1.31445,-35.2774
 L 1.21352,-35.1183 L 1.09344,-34.9732 L 0.956131,-34.8442 L 0.803726,-34.7335 L 0.638657,-34.6428 L 0.463516,-34.5734
 L 0.281067,-34.5266 L 0.0941772,-34.503 z
M 18.4369,22.4114 L 19.0451,22.2553 L 19.6289,22.0241 L 20.1791,21.7216 L 20.6871,21.3526 L 21.1448,20.9227
 L 21.5451,20.4389 L 21.8815,19.9088 L 22.1489,19.3406 L 22.3429,18.7434 L 22.4606,18.1267 L 22.5,17.5
 L 22.5,-17.5 L 22.4606,-18.1267 L 22.3429,-18.7434 L 22.1489,-19.3406 L 21.8815,-19.9088 L 21.5451,-20.4389
 L 21.1448,-20.9227 L 20.6871,-21.3526 L 20.1791,-21.7216 L 19.6289,-22.0241 L 19.0451,-22.2553 L 18.4369,-22.4114
 L 17.8139,-22.4901 L -17.8139,-22.4901 L -18.4369,-22.4114 L -19.0451,-22.2553 L -19.6289,-22.0241 L -20.1791,-21.7216
 L -20.6871,-21.3526 L -21.1448,-20.9227 L -21.5451,-20.4389 L -21.8815,-19.9088 L -22.1489,-19.3406 L -22.3429,-18.7434
 L -22.4606,-18.1267 L -22.5,-17.5 L -22.5,17.5 L -22.4606,18.1267 L -22.3429,18.7434 L -22.1489,19.3406
 L -21.8815,19.9088 L -21.5451,20.4389 L -21.1448,20.9227 L -20.6871,21.3526 L -20.1791,21.7216 L -19.6289,22.0241
 L -19.0451,22.2553 L -18.4369,22.4114 L -17.8139,22.4901 L 17.8139,22.4901 z
M -0.150696,-15.6047 L -0.449707,-15.6425 L -0.741638,-15.7175 L -1.02187,-15.8284 L -1.28598,-15.9736 L -1.52982,-16.1508
 L -1.74951,-16.3571 L -1.94164,-16.5893 L -2.10313,-16.8438 L -2.23146,-17.1165 L -2.32458,-17.4031 L -2.38107,-17.6992
 L -2.39999,-18 L -2.38107,-18.3008 L -2.32458,-18.5968 L -2.23146,-18.8835 L -2.10313,-19.1562 L -1.94164,-19.4107
 L -1.74951,-19.6429 L -1.52982,-19.8492 L -1.28598,-20.0264 L -1.02187,-20.1716 L -0.741638,-20.2825 L -0.449707,-20.3575
 L -0.150696,-20.3953 L 0.150696,-20.3953 L 0.449707,-20.3575 L 0.741638,-20.2825 L 1.02187,-20.1716 L 1.28598,-20.0264
 L 1.52982,-19.8492 L 1.74951,-19.6429 L 1.94164,-19.4107 L 2.10313,-19.1562 L 2.23146,-18.8835 L 2.32458,-18.5968
 L 2.38107,-18.3008 L 2.39999,-18 L 2.38107,-17.6992 L 2.32458,-17.4031 L 2.23146,-17.1165 L 2.10313,-16.8438
 L 1.94164,-16.5893 L 1.74951,-16.3571 L 1.52982,-16.1508 L 1.28598,-15.9736 L 1.02187,-15.8284 L 0.741638,-15.7175
 L 0.449707,-15.6425 L 0.150696,-15.6047 z
M -15.1884,-12.0059 L -15.5621,-12.0531 L -15.927,-12.1468 L -16.2773,-12.2855 L -16.6075,-12.467 L -16.9123,-12.6884
 L -17.1869,-12.9464 L -17.427,-13.2366 L -17.6289,-13.5547 L -17.7893,-13.8956 L -17.9057,-14.2539 L -17.9763,-14.624
 L -18,-15 L -17.9763,-15.376 L -17.9057,-15.7461 L -17.7893,-16.1044 L -17.6289,-16.4453 L -17.427,-16.7634
 L -17.1869,-17.0536 L -16.9123,-17.3115 L -16.6075,-17.533 L -16.2773,-17.7145 L -15.927,-17.8532 L -15.5621,-17.9469
 L -15.1884,-17.9941 L -14.8116,-17.9941 L -14.4379,-17.9469 L -14.0729,-17.8532 L -13.7227,-17.7145 L -13.3925,-17.533
 L -13.0877,-17.3115 L -12.8131,-17.0536 L -12.5729,-16.7634 L -12.3711,-16.4453 L -12.2107,-16.1044 L -12.0942,-15.7461
 L -12.0237,-15.376 L -12,-15 L -12.0237,-14.624 L -12.0942,-14.2539 L -12.2107,-13.8956 L -12.3711,-13.5547
 L -12.5729,-13.2366 L -12.8131,-12.9464 L -13.0877,-12.6884 L -13.3925,-12.467 L -13.7227,-12.2855 L -14.0729,-12.1468
 L -14.4379,-12.0531 L -14.8116,-12.0059 z
M 14.8116,-12.0059 L 14.4379,-12.0531 L 14.0729,-12.1468 L 13.7227,-12.2855 L 13.3925,-12.467 L 13.0877,-12.6884
 L 12.8131,-12.9464 L 12.5729,-13.2366 L 12.3711,-13.5547 L 12.2107,-13.8956 L 12.0942,-14.2539 L 12.0237,-14.624
 L 12,-15 L 12.0237,-15.376 L 12.0942,-15.7461 L 12.2107,-16.1044 L 12.3711,-16.4453 L 12.5729,-16.7634
 L 12.8131,-17.0536 L 13.0877,-17.3115 L 13.3925,-17.533 L 13.7227,-17.7145 L 14.0729,-17.8532 L 14.4379,-17.9469
 L 14.8116,-17.9941 L 15.1884,-17.9941 L 15.5621,-17.9469 L 15.927,-17.8532 L 16.2773,-17.7145 L 16.6075,-17.533
 L 16.9123,-17.3115 L 17.1869,-17.0536 L 17.427,-16.7634 L 17.6289,-16.4453 L 17.7893,-16.1044 L 17.9057,-15.7461
 L 17.9763,-15.376 L 18,-15 L 17.9763,-14.624 L 17.9057,-14.2539 L 17.7893,-13.8956 L 17.6289,-13.5547
 L 17.427,-13.2366 L 17.1869,-12.9464 L 16.9123,-12.6884 L 16.6075,-12.467 L 16.2773,-12.2855 L 15.927,-12.1468
 L 15.5621,-12.0531 L 15.1884,-12.0059 z
M -0.76918,12.2258 L -2.29541,12.033 L -3.78545,11.6504 L -5.21579,11.0841 L -6.56387,10.343 L -7.80844,9.43878
 L -8.92986,8.3857 L -9.91045,7.20036 L -10.7348,5.90147 L -11.3898,4.50952 L -11.8651,3.04645 L -12.1534,1.53532
 L -12.25,-0 L -12.1534,-1.53532 L -11.8651,-3.04645 L -11.3898,-4.50952 L -10.7348,-5.90147 L -9.91045,-7.20036
 L -8.92986,-8.3857 L -7.80844,-9.43878 L -6.56387,-10.343 L -5.21579,-11.0841 L -3.78545,-11.6504 L -2.29541,-12.033
 L -0.76918,-12.2258 L 0.76918,-12.2258 L 2.29541,-12.033 L 3.78545,-11.6504 L 5.21579,-11.0841 L 6.56387,-10.343
 L 7.80844,-9.43878 L 8.92986,-8.3857 L 9.91045,-7.20036 L 10.7348,-5.90147 L 11.3898,-4.50952 L 11.8651,-3.04645
 L 12.1534,-1.53532 L 12.25,-0 L 12.1534,1.53532 L 11.8651,3.04645 L 11.3898,4.50952 L 10.7348,5.90147
 L 9.91045,7.20036 L 8.92986,8.3857 L 7.80844,9.43878 L 6.56387,10.343 L 5.21579,11.0841 L 3.78545,11.6504
 L 2.29541,12.033 L 0.76918,12.2258 z
M 2.10803,11.0507 L 3.47644,10.6994 L 4.79001,10.1793 L 6.02805,9.49869 L 7.17101,8.66827 L 8.20088,7.70114
 L 9.10144,6.61258 L 9.85844,5.41972 L 10.46,4.14139 L 10.8965,2.79776 L 11.1613,1.40999 L 11.25,-0
 L 11.1613,-1.40999 L 10.8965,-2.79776 L 10.46,-4.14139 L 9.85844,-5.41972 L 9.10144,-6.61258 L 8.20088,-7.70114
 L 7.17101,-8.66827 L 6.02805,-9.49869 L 4.79001,-10.1793 L 3.47644,-10.6994 L 2.10803,-11.0507 L 0.70639,-11.2278
 L -0.70639,-11.2278 L -2.10803,-11.0507 L -3.47644,-10.6994 L -4.79001,-10.1793 L -6.02805,-9.49869 L -7.17101,-8.66827
 L -8.20088,-7.70114 L -9.10144,-6.61258 L -9.85844,-5.41972 L -10.46,-4.14139 L -10.8965,-2.79776 L -11.1613,-1.40999
 L -11.25,-0 L -11.1613,1.40999 L -10.8965,2.79776 L -10.46,4.14139 L -9.85844,5.41972 L -9.10144,6.61258
 L -8.20088,7.70114 L -7.17101,8.66827 L -6.02805,9.49869 L -4.79001,10.1793 L -3.47644,10.6994 L -2.10803,11.0507
 L -0.70639,11.2278 L 0.70639,11.2278 z
M -0.150696,-4.10472 L -0.449707,-4.1425 L -0.741638,-4.21745 L -1.02187,-4.32841 L -1.28598,-4.4736 L -1.52982,-4.65076
 L -1.74951,-4.85709 L -1.94164,-5.08931 L -2.10313,-5.34378 L -2.23146,-5.6165 L -2.32458,-5.90314 L -2.38107,-6.19919
 L -2.39999,-6.5 L -2.38107,-6.8008 L -2.32458,-7.09685 L -2.23146,-7.38348 L -2.10313,-7.6562 L -1.94164,-7.91068
 L -1.74951,-8.1429 L -1.52982,-8.34923 L -1.28598,-8.52638 L -1.02187,-8.67157 L -0.741638,-8.78253 L -0.449707,-8.85748
 L -0.150696,-8.89526 L 0.150696,-8.89526 L 0.449707,-8.85748 L 0.741638,-8.78253 L 1.02187,-8.67157 L 1.28598,-8.52638
 L 1.52982,-8.34923 L 1.74951,-8.1429 L 1.94164,-7.91068 L 2.10313,-7.6562 L 2.23146,-7.38348 L 2.32458,-7.09685
 L 2.38107,-6.8008 L 2.39999,-6.5 L 2.38107,-6.19919 L 2.32458,-5.90314 L 2.23146,-5.6165 L 2.10313,-5.34378
 L 1.94164,-5.08931 L 1.74951,-4.85709 L 1.52982,-4.65076 L 1.28598,-4.4736 L 1.02187,-4.32841 L 0.741638,-4.21745
 L 0.449707,-4.1425 L 0.150696,-4.10472 z
M -0.18837,2.99408 L -0.562134,2.94685 L -0.927048,2.85316 L -1.27733,2.71448 L -1.60747,2.53297 L -1.91226,2.31154
 L -2.1869,2.05363 L -2.42705,1.76335 L -2.62891,1.44525 L -2.78932,1.10437 L -2.90575,0.746063 L -2.97633,0.375992
 L -3,-0 L -2.97633,-0.375992 L -2.90575,-0.746063 L -2.78932,-1.10437 L -2.62891,-1.44525 L -2.42705,-1.76335
 L -2.1869,-2.05363 L -1.91226,-2.31154 L -1.60747,-2.53297 L -1.27733,-2.71448 L -0.927048,-2.85316 L -0.562134,-2.94685
 L -0.18837,-2.99408 L 0.18837,-2.99408 L 0.562134,-2.94685 L 0.927048,-2.85316 L 1.27733,-2.71448 L 1.60747,-2.53297
 L 1.91226,-2.31154 L 2.1869,-2.05363 L 2.42705,-1.76335 L 2.62891,-1.44525 L 2.78932,-1.10437 L 2.90575,-0.746063
 L 2.97633,-0.375992 L 3,-0 L 2.97633,0.375992 L 2.90575,0.746063 L 2.78932,1.10437 L 2.62891,1.44525
 L 2.42705,1.76335 L 2.1869,2.05363 L 1.91226,2.31154 L 1.60747,2.53297 L 1.27733,2.71448 L 0.927048,2.85316
 L 0.562134,2.94685 L 0.18837,2.99408 z
M 7.38069,1.89624 L 7.14397,1.86633 L 6.91286,1.80701 L 6.69101,1.71916 L 6.48192,1.60422 L 6.28888,1.46397
 L 6.11494,1.30063 L 5.96286,1.11679 L 5.83501,0.915329 L 5.73341,0.699432 L 5.65968,0.472504 L 5.61497,0.238129
 L 5.59999,-0 L 5.61497,-0.238129 L 5.65968,-0.472504 L 5.73341,-0.699432 L 5.83501,-0.915329 L 5.96286,-1.11679
 L 6.11494,-1.30063 L 6.28888,-1.46397 L 6.48192,-1.60422 L 6.69101,-1.71916 L 6.91286,-1.80701 L 7.14397,-1.86633
 L 7.38069,-1.89624 L 7.61929,-1.89624 L 7.85602,-1.86633 L 8.08713,-1.80701 L 8.30898,-1.71916 L 8.51807,-1.60422
 L 8.71111,-1.46397 L 8.88504,-1.30063 L 9.03712,-1.11679 L 9.16498,-0.915329 L 9.26657,-0.699432 L 9.3403,-0.472504
 L 9.38501,-0.238129 L 9.39999,-0 L 9.38501,0.238129 L 9.3403,0.472504 L 9.26657,0.699432 L 9.16498,0.915329
 L 9.03712,1.11679 L 8.88504,1.30063 L 8.71111,1.46397 L 8.51807,1.60422 L 8.30898,1.71916 L 8.08713,1.80701
 L 7.85602,1.86633 L 7.61929,1.89624 z
M -7.61929,1.89624 L -7.85602,1.86633 L -8.08713,1.80701 L -8.30898,1.71916 L -8.51807,1.60422 L -8.71111,1.46397
 L -8.88504,1.30063 L -9.03712,1.11679 L -9.16498,0.915329 L -9.26657,0.699432 L -9.3403,0.472504 L -9.38501,0.238129
 L -9.39999,-0 L -9.38501,-0.238129 L -9.3403,-0.472504 L -9.26657,-0.699432 L -9.16498,-0.915329 L -9.03712,-1.11679
 L -8.88504,-1.30063 L -8.71111,-1.46397 L -8.51807,-1.60422 L -8.30898,-1.71916 L -8.08713,-1.80701 L -7.85602,-1.86633
 L -7.61929,-1.89624 L -7.38069,-1.89624 L -7.14397,-1.86633 L -6.91286,-1.80701 L -6.69101,-1.71916 L -6.48192,-1.60422
 L -6.28888,-1.46397 L -6.11494,-1.30063 L -5.96286,-1.11679 L -5.83501,-0.915329 L -5.73341,-0.699432 L -5.65968,-0.472504
 L -5.61497,-0.238129 L -5.59999,-0 L -5.61497,0.238129 L -5.65968,0.472504 L -5.73341,0.699432 L -5.83501,0.915329
 L -5.96286,1.11679 L -6.11494,1.30063 L -6.28888,1.46397 L -6.48192,1.60422 L -6.69101,1.71916 L -6.91286,1.80701
 L -7.14397,1.86633 L -7.38069,1.89624 z
M -0.150696,8.89526 L -0.449707,8.85748 L -0.741638,8.78253 L -1.02187,8.67157 L -1.28598,8.52638 L -1.52982,8.34923
 L -1.74951,8.1429 L -1.94164,7.91068 L -2.10313,7.6562 L -2.23146,7.38348 L -2.32458,7.09685 L -2.38107,6.8008
 L -2.39999,6.5 L -2.38107,6.19919 L -2.32458,5.90314 L -2.23146,5.6165 L -2.10313,5.34378 L -1.94164,5.08931
 L -1.74951,4.85709 L -1.52982,4.65076 L -1.28598,4.4736 L -1.02187,4.32841 L -0.741638,4.21745 L -0.449707,4.1425
 L -0.150696,4.10472 L 0.150696,4.10472 L 0.449707,4.1425 L 0.741638,4.21745 L 1.02187,4.32841 L 1.28598,4.4736
 L 1.52982,4.65076 L 1.74951,4.85709 L 1.94164,5.08931 L 2.10313,5.34378 L 2.23146,5.6165 L 2.32458,5.90314
 L 2.38107,6.19919 L 2.39999,6.5 L 2.38107,6.8008 L 2.32458,7.09685 L 2.23146,7.38348 L 2.10313,7.6562
 L 1.94164,7.91068 L 1.74951,8.1429 L 1.52982,8.34923 L 1.28598,8.52638 L 1.02187,8.67157 L 0.741638,8.78253
 L 0.449707,8.85748 L 0.150696,8.89526 z
M -18.425,2.36206 L -18.7177,2.29018 L -18.9991,2.18216 L -19.2647,2.03973 L -19.5104,1.86514 L -19.7322,1.66113
 L -19.9268,1.43094 L -20.0909,1.17816 L -20.2221,0.906815 L -20.3182,0.621155 L -20.3778,0.325714 L -20.3999,0.0251312
 L -20.3841,-0.275848 L -20.3307,-0.572479 L -20.2406,-0.860077 L -20.1151,-1.13411 L -19.9563,-1.39027 L -19.7666,-1.6245
 L -19.5491,-1.8331 L -19.3071,-2.0128 L -19.0445,-2.16075 L -18.7655,-2.27464 L -18.4744,-2.35265 L -18.1758,-2.39355
 L -17.8744,-2.3967 L -17.575,-2.36206 L -17.2823,-2.29018 L -17.0009,-2.18216 L -16.7353,-2.03973 L -16.4896,-1.86514
 L -16.2678,-1.66113 L -16.0732,-1.43094 L -15.9091,-1.17816 L -15.7779,-0.906815 L -15.6818,-0.621155 L -15.6222,-0.325714
 L -15.6001,-0.0251312 L -15.6159,0.275848 L -15.6693,0.572479 L -15.7594,0.860077 L -15.8849,1.13411 L -16.0437,1.39027
 L -16.2334,1.6245 L -16.4509,1.8331 L -16.6929,2.0128 L -16.9554,2.16075 L -17.2345,2.27464 L -17.5256,2.35265
 L -17.8242,2.39355 L -18.1256,2.3967 z
M 17.575,2.36206 L 17.2823,2.29018 L 17.0009,2.18216 L 16.7353,2.03973 L 16.4896,1.86514 L 16.2678,1.66113
 L 16.0732,1.43094 L 15.9091,1.17816 L 15.7779,0.906815 L 15.6818,0.621155 L 15.6222,0.325714 L 15.6001,0.0251312
 L 15.6159,-0.275848 L 15.6693,-0.572479 L 15.7594,-0.860077 L 15.8849,-1.13411 L 16.0437,-1.39027 L 16.2334,-1.6245
 L 16.4509,-1.8331 L 16.6929,-2.0128 L 16.9554,-2.16075 L 17.2345,-2.27464 L 17.5256,-2.35265 L 17.8242,-2.39355
 L 18.1256,-2.3967 L 18.425,-2.36206 L 18.7177,-2.29018 L 18.9991,-2.18216 L 19.2647,-2.03973 L 19.5104,-1.86514
 L 19.7322,-1.66113 L 19.9268,-1.43094 L 20.0909,-1.17816 L 20.2221,-0.906815 L 20.3182,-0.621155 L 20.3778,-0.325714
 L 20.3999,-0.0251312 L 20.3841,0.275848 L 20.3307,0.572479 L 20.2406,0.860077 L 20.1151,1.13411 L 19.9563,1.39027
 L 19.7666,1.6245 L 19.5491,1.8331 L 19.3071,2.0128 L 19.0445,2.16075 L 18.7655,2.27464 L 18.4744,2.35265
 L 18.1758,2.39355 L 17.8744,2.3967 z
M -15.1884,17.9941 L -15.5621,17.9469 L -15.927,17.8532 L -16.2773,17.7145 L -16.6075,17.533 L -16.9123,17.3115
 L -17.1869,17.0536 L -17.427,16.7634 L -17.6289,16.4453 L -17.7893,16.1044 L -17.9057,15.7461 L -17.9763,15.376
 L -18,15 L -17.9763,14.624 L -17.9057,14.2539 L -17.7893,13.8956 L -17.6289,13.5547 L -17.427,13.2366
 L -17.1869,12.9464 L -16.9123,12.6884 L -16.6075,12.467 L -16.2773,12.2855 L -15.927,12.1468 L -15.5621,12.0531
 L -15.1884,12.0059 L -14.8116,12.0059 L -14.4379,12.0531 L -14.0729,12.1468 L -13.7227,12.2855 L -13.3925,12.467
 L -13.0877,12.6884 L -12.8131,12.9464 L -12.5729,13.2366 L -12.3711,13.5547 L -12.2107,13.8956 L -12.0942,14.2539
 L -12.0237,14.624 L -12,15 L -12.0237,15.376 L -12.0942,15.7461 L -12.2107,16.1044 L -12.3711,16.4453
 L -12.5729,16.7634 L -12.8131,17.0536 L -13.0877,17.3115 L -13.3925,17.533 L -13.7227,17.7145 L -14.0729,17.8532
 L -14.4379,17.9469 L -14.8116,17.9941 z
M 14.8116,17.9941 L 14.4379,17.9469 L 14.0729,17.8532 L 13.7227,17.7145 L 13.3925,17.533 L 13.0877,17.3115
 L 12.8131,17.0536 L 12.5729,16.7634 L 12.3711,16.4453 L 12.2107,16.1044 L 12.0942,15.7461 L 12.0237,15.376
 L 12,15 L 12.0237,14.624 L 12.0942,14.2539 L 12.2107,13.8956 L 12.3711,13.5547 L 12.5729,13.2366
 L 12.8131,12.9464 L 13.0877,12.6884 L 13.3925,12.467 L 13.7227,12.2855 L 14.0729,12.1468 L 14.4379,12.0531
 L 14.8116,12.0059 L 15.1884,12.0059 L 15.5621,12.0531 L 15.927,12.1468 L 16.2773,12.2855 L 16.6075,12.467
 L 16.9123,12.6884 L 17.1869,12.9464 L 17.427,13.2366 L 17.6289,13.5547 L 17.7893,13.8956 L 17.9057,14.2539
 L 17.9763,14.624 L 18,15 L 17.9763,15.376 L 17.9057,15.7461 L 17.7893,16.1044 L 17.6289,16.4453
 L 17.427,16.7634 L 17.1869,17.0536 L 16.9123,17.3115 L 16.6075,17.533 L 16.2773,17.7145 L 15.927,17.8532
 L 15.5621,17.9469 L 15.1884,17.9941 z
M -0.150696,20.3953 L -0.449707,20.3575 L -0.741638,20.2825 L -1.02187,20.1716 L -1.28598,20.0264 L -1.52982,19.8492
 L -1.74951,19.6429 L -1.94164,19.4107 L -2.10313,19.1562 L -2.23146,18.8835 L -2.32458,18.5968 L -2.38107,18.3008
 L -2.39999,18 L -2.38107,17.6992 L -2.32458,17.4031 L -2.23146,17.1165 L -2.10313,16.8438 L -1.94164,16.5893
 L -1.74951,16.3571 L -1.52982,16.1508 L -1.28598,15.9736 L -1.02187,15.8284 L -0.741638,15.7175 L -0.449707,15.6425
 L -0.150696,15.6047 L 0.150696,15.6047 L 0.449707,15.6425 L 0.741638,15.7175 L 1.02187,15.8284 L 1.28598,15.9736
 L 1.52982,16.1508 L 1.74951,16.3571 L 1.94164,16.5893 L 2.10313,16.8438 L 2.23146,17.1165 L 2.32458,17.4031
 L 2.38107,17.6992 L 2.39999,18 L 2.38107,18.3008 L 2.32458,18.5968 L 2.23146,18.8835 L 2.10313,19.1562
 L 1.94164,19.4107 L 1.74951,19.6429 L 1.52982,19.8492 L 1.28598,20.0264 L 1.02187,20.1716 L 0.741638,20.2825
 L 0.449707,20.3575 L 0.150696,20.3953 z
" stroke="black" fill="lightgray" stroke-width="0.5"/>
</svg>
