  0
SECTION
  2
BLOCKS
  0
ENDSEC
  0
SECTION
  2
ENTITIES
  0
LINE
  8
0
 10
18.4369
 20
139.589
 11
19.0451
 21
139.745
  0
LINE
  8
0
 10
19.0451
 20
139.745
 11
19.6289
 21
139.976
  0
LINE
  8
0
 10
19.6289
 20
139.976
 11
20.1791
 21
140.278
  0
LINE
  8
0
 10
20.1791
 20
140.278
 11
20.6871
 21
140.647
  0
LINE
  8
0
 10
20.6871
 20
140.647
 11
21.1448
 21
141.077
  0
LINE
  8
0
 10
21.1448
 20
141.077
 11
21.5451
 21
141.561
  0
LINE
  8
0
 10
21.5451
 20
141.561
 11
21.8815
 21
142.091
  0
LINE
  8
0
 10
21.8815
 20
142.091
 11
22.1489
 21
142.659
  0
LINE
  8
0
 10
22.1489
 20
142.659
 11
22.3429
 21
143.257
  0
LINE
  8
0
 10
22.3429
 20
143.257
 11
22.4606
 21
143.873
  0
LINE
  8
0
 10
22.4606
 20
143.873
 11
22.5
 21
144.5
  0
LINE
  8
0
 10
22.5
 20
144.5
 11
22.5
 21
162
  0
LINE
  8
0
 10
22.5
 20
162
 11
20.7483
 21
162
  0
LINE
  8
0
 10
20.7483
 20
162
 11
20.7483
 21
160.413
  0
LINE
  8
0
 10
20.7483
 20
160.413
 11
18
 21
158.827
  0
LINE
  8
0
 10
18
 20
158.827
 11
15.2517
 21
160.413
  0
LINE
  8
0
 10
15.2517
 20
160.413
 11
15.2517
 21
162
  0
LINE
  8
0
 10
15.2517
 20
162
 11
12.25
 21
162
  0
LINE
  8
0
 10
12.25
 20
162
 11
12.1534
 21
160.465
  0
LINE
  8
0
 10
12.1534
 20
160.465
 11
11.8651
 21
158.954
  0
LINE
  8
0
 10
11.8651
 20
158.954
 11
11.3898
 21
157.49
  0
LINE
  8
0
 10
11.3898
 20
157.49
 11
10.7348
 21
156.099
  0
LINE
  8
0
 10
10.7348
 20
156.099
 11
9.91045
 21
154.8
  0
LINE
  8
0
 10
9.91045
 20
154.8
 11
8.92986
 21
153.614
  0
LINE
  8
0
 10
8.92986
 20
153.614
 11
7.80844
 21
152.561
  0
LINE
  8
0
 10
7.80844
 20
152.561
 11
6.56387
 21
151.657
  0
LINE
  8
0
 10
6.56387
 20
151.657
 11
5.21579
 21
150.916
  0
LINE
  8
0
 10
5.21579
 20
150.916
 11
3.78545
 21
150.35
  0
LINE
  8
0
 10
3.78545
 20
150.35
 11
2.29541
 21
149.967
  0
LINE
  8
0
 10
2.29541
 20
149.967
 11
0.76918
 21
149.774
  0
LINE
  8
0
 10
0.76918
 20
149.774
 11
-0.76918
 21
149.774
  0
LINE
  8
0
 10
-0.76918
 20
149.774
 11
-2.29541
 21
149.967
  0
LINE
  8
0
 10
-2.29541
 20
149.967
 11
-3.78545
 21
150.35
  0
LINE
  8
0
 10
-3.78545
 20
150.35
 11
-5.21579
 21
150.916
  0
LINE
  8
0
 10
-5.21579
 20
150.916
 11
-6.56387
 21
151.657
  0
LINE
  8
0
 10
-6.56387
 20
151.657
 11
-7.80844
 21
152.561
  0
LINE
  8
0
 10
-7.80844
 20
152.561
 11
-8.92986
 21
153.614
  0
LINE
  8
0
 10
-8.92986
 20
153.614
 11
-9.91045
 21
154.8
  0
LINE
  8
0
 10
-9.91045
 20
154.8
 11
-10.7348
 21
156.099
  0
LINE
  8
0
 10
-10.7348
 20
156.099
 11
-11.3898
 21
157.49
  0
LINE
  8
0
 10
-11.3898
 20
157.49
 11
-11.8651
 21
158.954
  0
LINE
  8
0
 10
-11.8651
 20
158.954
 11
-12.1534
 21
160.465
  0
LINE
  8
0
 10
-12.1534
 20
160.465
 11
-12.25
 21
162
  0
LINE
  8
0
 10
-12.25
 20
162
 11
-12.1534
 21
163.535
  0
LINE
  8
0
 10
-12.1534
 20
163.535
 11
-11.8651
 21
165.046
  0
LINE
  8
0
 10
-11.8651
 20
165.046
 11
-11.3898
 21
166.51
  0
LINE
  8
0
 10
-11.3898
 20
166.51
 11
-10.7348
 21
167.901
  0
LINE
  8
0
 10
-10.7348
 20
167.901
 11
-9.91045
 21
169.2
  0
LINE
  8
0
 10
-9.91045
 20
169.2
 11
-8.92986
 21
170.386
  0
LINE
  8
0
 10
-8.92986
 20
170.386
 11
-7.80844
 21
171.439
  0
LINE
  8
0
 10
-7.80844
 20
171.439
 11
-6.56387
 21
172.343
  0
LINE
  8
0
 10
-6.56387
 20
172.343
 11
-5.21579
 21
173.084
  0
LINE
  8
0
 10
-5.21579
 20
173.084
 11
-3.78545
 21
173.65
  0
LINE
  8
0
 10
-3.78545
 20
173.65
 11
-2.29541
 21
174.033
  0
LINE
  8
0
 10
-2.29541
 20
174.033
 11
-0.76918
 21
174.226
  0
LINE
  8
0
 10
-0.76918
 20
174.226
 11
0
 21
174.226
  0
LINE
  8
0
 10
0
 20
174.226
 11
0
 21
178.503
  0
LINE
  8
0
 10
0
 20
178.503
 11
-0.0941772
 21
178.503
  0
LINE
  8
0
 10
-0.0941772
 20
178.503
 11
-0.281067
 21
178.527
  0
LINE
  8
0
 10
-0.281067
 20
178.527
 11
-0.463516
 21
178.573
  0
LINE
  8
0
 10
-0.463516
 20
178.573
 11
-0.638657
 21
178.643
  0
LINE
  8
0
 10
-0.638657
 20
178.643
 11
-0.803726
 21
178.734
  0
LINE
  8
0
 10
-0.803726
 20
178.734
 11
-0.956131
 21
178.844
  0
LINE
  8
0
 10
-0.956131
 20
178.844
 11
-1.09344
 21
178.973
  0
LINE
  8
0
 10
-1.09344
 20
178.973
 11
-1.21352
 21
179.118
  0
LINE
  8
0
 10
-1.21352
 20
179.118
 11
-1.31445
 21
179.277
  0
LINE
  8
0
 10
-1.31445
 20
179.277
 11
-1.39465
 21
179.448
  0
LINE
  8
0
 10
-1.39465
 20
179.448
 11
-1.45287
 21
179.627
  0
LINE
  8
0
 10
-1.45287
 20
179.627
 11
-1.48816
 21
179.812
  0
LINE
  8
0
 10
-1.48816
 20
179.812
 11
-1.5
 21
180
  0
LINE
  8
0
 10
-1.5
 20
180
 11
-1.48816
 21
180.188
  0
LINE
  8
0
 10
-1.48816
 20
180.188
 11
-1.45287
 21
180.373
  0
LINE
  8
0
 10
-1.45287
 20
180.373
 11
-1.39465
 21
180.552
  0
LINE
  8
0
 10
-1.39465
 20
180.552
 11
-1.31445
 21
180.723
  0
LINE
  8
0
 10
-1.31445
 20
180.723
 11
-1.21352
 21
180.882
  0
LINE
  8
0
 10
-1.21352
 20
180.882
 11
-1.09344
 21
181.027
  0
LINE
  8
0
 10
-1.09344
 20
181.027
 11
-0.956131
 21
181.156
  0
LINE
  8
0
 10
-0.956131
 20
181.156
 11
-0.803726
 21
181.266
  0
LINE
  8
0
 10
-0.803726
 20
181.266
 11
-0.638657
 21
181.357
  0
LINE
  8
0
 10
-0.638657
 20
181.357
 11
-0.463516
 21
181.427
  0
LINE
  8
0
 10
-0.463516
 20
181.427
 11
-0.281067
 21
181.473
  0
LINE
  8
0
 10
-0.281067
 20
181.473
 11
-0.0941772
 21
181.497
  0
LINE
  8
0
 10
-0.0941772
 20
181.497
 11
0
 21
181.497
  0
LINE
  8
0
 10
0
 20
181.497
 11
0
 21
184.49
  0
LINE
  8
0
 10
0
 20
184.49
 11
-17.8139
 21
184.49
  0
LINE
  8
0
 10
-17.8139
 20
184.49
 11
-18.4369
 21
184.411
  0
LINE
  8
0
 10
-18.4369
 20
184.411
 11
-19.0451
 21
184.255
  0
LINE
  8
0
 10
-19.0451
 20
184.255
 11
-19.6289
 21
184.024
  0
LINE
  8
0
 10
-19.6289
 20
184.024
 11
-20.1791
 21
183.722
  0
LINE
  8
0
 10
-20.1791
 20
183.722
 11
-20.6871
 21
183.353
  0
LINE
  8
0
 10
-20.6871
 20
183.353
 11
-21.1448
 21
182.923
  0
LINE
  8
0
 10
-21.1448
 20
182.923
 11
-21.5451
 21
182.439
  0
LINE
  8
0
 10
-21.5451
 20
182.439
 11
-21.8815
 21
181.909
  0
LINE
  8
0
 10
-21.8815
 20
181.909
 11
-22.1489
 21
181.341
  0
LINE
  8
0
 10
-22.1489
 20
181.341
 11
-22.3429
 21
180.743
  0
LINE
  8
0
 10
-22.3429
 20
180.743
 11
-22.4606
 21
180.127
  0
LINE
  8
0
 10
-22.4606
 20
180.127
 11
-22.5
 21
179.5
  0
LINE
  8
0
 10
-22.5
 20
179.5
 11
-22.5
 21
144.5
  0
LINE
  8
0
 10
-22.5
 20
144.5
 11
-22.4606
 21
143.873
  0
LINE
  8
0
 10
-22.4606
 20
143.873
 11
-22.3429
 21
143.257
  0
LINE
  8
0
 10
-22.3429
 20
143.257
 11
-22.1489
 21
142.659
  0
LINE
  8
0
 10
-22.1489
 20
142.659
 11
-21.8815
 21
142.091
  0
LINE
  8
0
 10
-21.8815
 20
142.091
 11
-21.5451
 21
141.561
  0
LINE
  8
0
 10
-21.5451
 20
141.561
 11
-21.1448
 21
141.077
  0
LINE
  8
0
 10
-21.1448
 20
141.077
 11
-20.6871
 21
140.647
  0
LINE
  8
0
 10
-20.6871
 20
140.647
 11
-20.1791
 21
140.278
  0
LINE
  8
0
 10
-20.1791
 20
140.278
 11
-19.6289
 21
139.976
  0
LINE
  8
0
 10
-19.6289
 20
139.976
 11
-19.0451
 21
139.745
  0
LINE
  8
0
 10
-19.0451
 20
139.745
 11
-18.4369
 21
139.589
  0
LINE
  8
0
 10
-18.4369
 20
139.589
 11
-17.8139
 21
139.51
  0
LINE
  8
0
 10
-17.8139
 20
139.51
 11
17.8139
 21
139.51
  0
LINE
  8
0
 10
17.8139
 20
139.51
 11
18.4369
 21
139.589
  0
LINE
  8
0
 10
-15.1884
 20
174.006
 11
-15.5621
 21
174.053
  0
LINE
  8
0
 10
-15.5621
 20
174.053
 11
-15.927
 21
174.147
  0
LINE
  8
0
 10
-15.927
 20
174.147
 11
-16.2773
 21
174.286
  0
LINE
  8
0
 10
-16.2773
 20
174.286
 11
-16.6075
 21
174.467
  0
LINE
  8
0
 10
-16.6075
 20
174.467
 11
-16.9123
 21
174.688
  0
LINE
  8
0
 10
-16.9123
 20
174.688
 11
-17.1869
 21
174.946
  0
LINE
  8
0
 10
-17.1869
 20
174.946
 11
-17.427
 21
175.237
  0
LINE
  8
0
 10
-17.427
 20
175.237
 11
-17.6289
 21
175.555
  0
LINE
  8
0
 10
-17.6289
 20
175.555
 11
-17.7893
 21
175.896
  0
LINE
  8
0
 10
-17.7893
 20
175.896
 11
-17.9057
 21
176.254
  0
LINE
  8
0
 10
-17.9057
 20
176.254
 11
-17.9763
 21
176.624
  0
LINE
  8
0
 10
-17.9763
 20
176.624
 11
-18
 21
177
  0
LINE
  8
0
 10
-18
 20
177
 11
-17.9763
 21
177.376
  0
LINE
  8
0
 10
-17.9763
 20
177.376
 11
-17.9057
 21
177.746
  0
LINE
  8
0
 10
-17.9057
 20
177.746
 11
-17.7893
 21
178.104
  0
LINE
  8
0
 10
-17.7893
 20
178.104
 11
-17.6289
 21
178.445
  0
LINE
  8
0
 10
-17.6289
 20
178.445
 11
-17.427
 21
178.763
  0
LINE
  8
0
 10
-17.427
 20
178.763
 11
-17.1869
 21
179.054
  0
LINE
  8
0
 10
-17.1869
 20
179.054
 11
-16.9123
 21
179.312
  0
LINE
  8
0
 10
-16.9123
 20
179.312
 11
-16.6075
 21
179.533
  0
LINE
  8
0
 10
-16.6075
 20
179.533
 11
-16.2773
 21
179.714
  0
LINE
  8
0
 10
-16.2773
 20
179.714
 11
-15.927
 21
179.853
  0
LINE
  8
0
 10
-15.927
 20
179.853
 11
-15.5621
 21
179.947
  0
LINE
  8
0
 10
-15.5621
 20
179.947
 11
-15.1884
 21
179.994
  0
LINE
  8
0
 10
-15.1884
 20
179.994
 11
-14.8116
 21
179.994
  0
LINE
  8
0
 10
-14.8116
 20
179.994
 11
-14.4379
 21
179.947
  0
LINE
  8
0
 10
-14.4379
 20
179.947
 11
-14.0729
 21
179.853
  0
LINE
  8
0
 10
-14.0729
 20
179.853
 11
-13.7227
 21
179.714
  0
LINE
  8
0
 10
-13.7227
 20
179.714
 11
-13.3925
 21
179.533
  0
LINE
  8
0
 10
-13.3925
 20
179.533
 11
-13.0877
 21
179.312
  0
LINE
  8
0
 10
-13.0877
 20
179.312
 11
-12.8131
 21
179.054
  0
LINE
  8
0
 10
-12.8131
 20
179.054
 11
-12.5729
 21
178.763
  0
LINE
  8
0
 10
-12.5729
 20
178.763
 11
-12.3711
 21
178.445
  0
LINE
  8
0
 10
-12.3711
 20
178.445
 11
-12.2107
 21
178.104
  0
LINE
  8
0
 10
-12.2107
 20
178.104
 11
-12.0942
 21
177.746
  0
LINE
  8
0
 10
-12.0942
 20
177.746
 11
-12.0237
 21
177.376
  0
LINE
  8
0
 10
-12.0237
 20
177.376
 11
-12
 21
177
  0
LINE
  8
0
 10
-12
 20
177
 11
-12.0237
 21
176.624
  0
LINE
  8
0
 10
-12.0237
 20
176.624
 11
-12.0942
 21
176.254
  0
LINE
  8
0
 10
-12.0942
 20
176.254
 11
-12.2107
 21
175.896
  0
LINE
  8
0
 10
-12.2107
 20
175.896
 11
-12.3711
 21
175.555
  0
LINE
  8
0
 10
-12.3711
 20
175.555
 11
-12.5729
 21
175.237
  0
LINE
  8
0
 10
-12.5729
 20
175.237
 11
-12.8131
 21
174.946
  0
LINE
  8
0
 10
-12.8131
 20
174.946
 11
-13.0877
 21
174.688
  0
LINE
  8
0
 10
-13.0877
 20
174.688
 11
-13.3925
 21
174.467
  0
LINE
  8
0
 10
-13.3925
 20
174.467
 11
-13.7227
 21
174.286
  0
LINE
  8
0
 10
-13.7227
 20
174.286
 11
-14.0729
 21
174.147
  0
LINE
  8
0
 10
-14.0729
 20
174.147
 11
-14.4379
 21
174.053
  0
LINE
  8
0
 10
-14.4379
 20
174.053
 11
-14.8116
 21
174.006
  0
LINE
  8
0
 10
-14.8116
 20
174.006
 11
-15.1884
 21
174.006
  0
LINE
  8
0
 10
-20.7483
 20
160.413
 11
-20.7483
 21
163.587
  0
LINE
  8
0
 10
-20.7483
 20
163.587
 11
-18
 21
165.173
  0
LINE
  8
0
 10
-18
 20
165.173
 11
-15.2517
 21
163.587
  0
LINE
  8
0
 10
-15.2517
 20
163.587
 11
-15.2517
 21
160.413
  0
LINE
  8
0
 10
-15.2517
 20
160.413
 11
-18
 21
158.827
  0
LINE
  8
0
 10
-18
 20
158.827
 11
-20.7483
 21
160.413
  0
LINE
  8
0
 10
14.8116
 20
144.006
 11
14.4379
 21
144.053
  0
LINE
  8
0
 10
14.4379
 20
144.053
 11
14.0729
 21
144.147
  0
LINE
  8
0
 10
14.0729
 20
144.147
 11
13.7227
 21
144.286
  0
LINE
  8
0
 10
13.7227
 20
144.286
 11
13.3925
 21
144.467
  0
LINE
  8
0
 10
13.3925
 20
144.467
 11
13.0877
 21
144.688
  0
LINE
  8
0
 10
13.0877
 20
144.688
 11
12.8131
 21
144.946
  0
LINE
  8
0
 10
12.8131
 20
144.946
 11
12.5729
 21
145.237
  0
LINE
  8
0
 10
12.5729
 20
145.237
 11
12.3711
 21
145.555
  0
LINE
  8
0
 10
12.3711
 20
145.555
 11
12.2107
 21
145.896
  0
LINE
  8
0
 10
12.2107
 20
145.896
 11
12.0942
 21
146.254
  0
LINE
  8
0
 10
12.0942
 20
146.254
 11
12.0237
 21
146.624
  0
LINE
  8
0
 10
12.0237
 20
146.624
 11
12
 21
147
  0
LINE
  8
0
 10
12
 20
147
 11
12.0237
 21
147.376
  0
LINE
  8
0
 10
12.0237
 20
147.376
 11
12.0942
 21
147.746
  0
LINE
  8
0
 10
12.0942
 20
147.746
 11
12.2107
 21
148.104
  0
LINE
  8
0
 10
12.2107
 20
148.104
 11
12.3711
 21
148.445
  0
LINE
  8
0
 10
12.3711
 20
148.445
 11
12.5729
 21
148.763
  0
LINE
  8
0
 10
12.5729
 20
148.763
 11
12.8131
 21
149.054
  0
LINE
  8
0
 10
12.8131
 20
149.054
 11
13.0877
 21
149.312
  0
LINE
  8
0
 10
13.0877
 20
149.312
 11
13.3925
 21
149.533
  0
LINE
  8
0
 10
13.3925
 20
149.533
 11
13.7227
 21
149.714
  0
LINE
  8
0
 10
13.7227
 20
149.714
 11
14.0729
 21
149.853
  0
LINE
  8
0
 10
14.0729
 20
149.853
 11
14.4379
 21
149.947
  0
LINE
  8
0
 10
14.4379
 20
149.947
 11
14.8116
 21
149.994
  0
LINE
  8
0
 10
14.8116
 20
149.994
 11
15.1884
 21
149.994
  0
LINE
  8
0
 10
15.1884
 20
149.994
 11
15.5621
 21
149.947
  0
LINE
  8
0
 10
15.5621
 20
149.947
 11
15.927
 21
149.853
  0
LINE
  8
0
 10
15.927
 20
149.853
 11
16.2773
 21
149.714
  0
LINE
  8
0
 10
16.2773
 20
149.714
 11
16.6075
 21
149.533
  0
LINE
  8
0
 10
16.6075
 20
149.533
 11
16.9123
 21
149.312
  0
LINE
  8
0
 10
16.9123
 20
149.312
 11
17.1869
 21
149.054
  0
LINE
  8
0
 10
17.1869
 20
149.054
 11
17.427
 21
148.763
  0
LINE
  8
0
 10
17.427
 20
148.763
 11
17.6289
 21
148.445
  0
LINE
  8
0
 10
17.6289
 20
148.445
 11
17.7893
 21
148.104
  0
LINE
  8
0
 10
17.7893
 20
148.104
 11
17.9057
 21
147.746
  0
LINE
  8
0
 10
17.9057
 20
147.746
 11
17.9763
 21
147.376
  0
LINE
  8
0
 10
17.9763
 20
147.376
 11
18
 21
147
  0
LINE
  8
0
 10
18
 20
147
 11
17.9763
 21
146.624
  0
LINE
  8
0
 10
17.9763
 20
146.624
 11
17.9057
 21
146.254
  0
LINE
  8
0
 10
17.9057
 20
146.254
 11
17.7893
 21
145.896
  0
LINE
  8
0
 10
17.7893
 20
145.896
 11
17.6289
 21
145.555
  0
LINE
  8
0
 10
17.6289
 20
145.555
 11
17.427
 21
145.237
  0
LINE
  8
0
 10
17.427
 20
145.237
 11
17.1869
 21
144.946
  0
LINE
  8
0
 10
17.1869
 20
144.946
 11
16.9123
 21
144.688
  0
LINE
  8
0
 10
16.9123
 20
144.688
 11
16.6075
 21
144.467
  0
LINE
  8
0
 10
16.6075
 20
144.467
 11
16.2773
 21
144.286
  0
LINE
  8
0
 10
16.2773
 20
144.286
 11
15.927
 21
144.147
  0
LINE
  8
0
 10
15.927
 20
144.147
 11
15.5621
 21
144.053
  0
LINE
  8
0
 10
15.5621
 20
144.053
 11
15.1884
 21
144.006
  0
LINE
  8
0
 10
15.1884
 20
144.006
 11
14.8116
 21
144.006
  0
LINE
  8
0
 10
-15.1884
 20
144.006
 11
-15.5621
 21
144.053
  0
LINE
  8
0
 10
-15.5621
 20
144.053
 11
-15.927
 21
144.147
  0
LINE
  8
0
 10
-15.927
 20
144.147
 11
-16.2773
 21
144.286
  0
LINE
  8
0
 10
-16.2773
 20
144.286
 11
-16.6075
 21
144.467
  0
LINE
  8
0
 10
-16.6075
 20
144.467
 11
-16.9123
 21
144.688
  0
LINE
  8
0
 10
-16.9123
 20
144.688
 11
-17.1869
 21
144.946
  0
LINE
  8
0
 10
-17.1869
 20
144.946
 11
-17.427
 21
145.237
  0
LINE
  8
0
 10
-17.427
 20
145.237
 11
-17.6289
 21
145.555
  0
LINE
  8
0
 10
-17.6289
 20
145.555
 11
-17.7893
 21
145.896
  0
LINE
  8
0
 10
-17.7893
 20
145.896
 11
-17.9057
 21
146.254
  0
LINE
  8
0
 10
-17.9057
 20
146.254
 11
-17.9763
 21
146.624
  0
LINE
  8
0
 10
-17.9763
 20
146.624
 11
-18
 21
147
  0
LINE
  8
0
 10
-18
 20
147
 11
-17.9763
 21
147.376
  0
LINE
  8
0
 10
-17.9763
 20
147.376
 11
-17.9057
 21
147.746
  0
LINE
  8
0
 10
-17.9057
 20
147.746
 11
-17.7893
 21
148.104
  0
LINE
  8
0
 10
-17.7893
 20
148.104
 11
-17.6289
 21
148.445
  0
LINE
  8
0
 10
-17.6289
 20
148.445
 11
-17.427
 21
148.763
  0
LINE
  8
0
 10
-17.427
 20
148.763
 11
-17.1869
 21
149.054
  0
LINE
  8
0
 10
-17.1869
 20
149.054
 11
-16.9123
 21
149.312
  0
LINE
  8
0
 10
-16.9123
 20
149.312
 11
-16.6075
 21
149.533
  0
LINE
  8
0
 10
-16.6075
 20
149.533
 11
-16.2773
 21
149.714
  0
LINE
  8
0
 10
-16.2773
 20
149.714
 11
-15.927
 21
149.853
  0
LINE
  8
0
 10
-15.927
 20
149.853
 11
-15.5621
 21
149.947
  0
LINE
  8
0
 10
-15.5621
 20
149.947
 11
-15.1884
 21
149.994
  0
LINE
  8
0
 10
-15.1884
 20
149.994
 11
-14.8116
 21
149.994
  0
LINE
  8
0
 10
-14.8116
 20
149.994
 11
-14.4379
 21
149.947
  0
LINE
  8
0
 10
-14.4379
 20
149.947
 11
-14.0729
 21
149.853
  0
LINE
  8
0
 10
-14.0729
 20
149.853
 11
-13.7227
 21
149.714
  0
LINE
  8
0
 10
-13.7227
 20
149.714
 11
-13.3925
 21
149.533
  0
LINE
  8
0
 10
-13.3925
 20
149.533
 11
-13.0877
 21
149.312
  0
LINE
  8
0
 10
-13.0877
 20
149.312
 11
-12.8131
 21
149.054
  0
LINE
  8
0
 10
-12.8131
 20
149.054
 11
-12.5729
 21
148.763
  0
LINE
  8
0
 10
-12.5729
 20
148.763
 11
-12.3711
 21
148.445
  0
LINE
  8
0
 10
-12.3711
 20
148.445
 11
-12.2107
 21
148.104
  0
LINE
  8
0
 10
-12.2107
 20
148.104
 11
-12.0942
 21
147.746
  0
LINE
  8
0
 10
-12.0942
 20
147.746
 11
-12.0237
 21
147.376
  0
LINE
  8
0
 10
-12.0237
 20
147.376
 11
-12
 21
147
  0
LINE
  8
0
 10
-12
 20
147
 11
-12.0237
 21
146.624
  0
LINE
  8
0
 10
-12.0237
 20
146.624
 11
-12.0942
 21
146.254
  0
LINE
  8
0
 10
-12.0942
 20
146.254
 11
-12.2107
 21
145.896
  0
LINE
  8
0
 10
-12.2107
 20
145.896
 11
-12.3711
 21
145.555
  0
LINE
  8
0
 10
-12.3711
 20
145.555
 11
-12.5729
 21
145.237
  0
LINE
  8
0
 10
-12.5729
 20
145.237
 11
-12.8131
 21
144.946
  0
LINE
  8
0
 10
-12.8131
 20
144.946
 11
-13.0877
 21
144.688
  0
LINE
  8
0
 10
-13.0877
 20
144.688
 11
-13.3925
 21
144.467
  0
LINE
  8
0
 10
-13.3925
 20
144.467
 11
-13.7227
 21
144.286
  0
LINE
  8
0
 10
-13.7227
 20
144.286
 11
-14.0729
 21
144.147
  0
LINE
  8
0
 10
-14.0729
 20
144.147
 11
-14.4379
 21
144.053
  0
LINE
  8
0
 10
-14.4379
 20
144.053
 11
-14.8116
 21
144.006
  0
LINE
  8
0
 10
-14.8116
 20
144.006
 11
-15.1884
 21
144.006
  0
LINE
  8
0
 10
-0.0941772
 20
142.503
 11
-0.281067
 21
142.527
  0
LINE
  8
0
 10
-0.281067
 20
142.527
 11
-0.463516
 21
142.573
  0
LINE
  8
0
 10
-0.463516
 20
142.573
 11
-0.638657
 21
142.643
  0
LINE
  8
0
 10
-0.638657
 20
142.643
 11
-0.803726
 21
142.734
  0
LINE
  8
0
 10
-0.803726
 20
142.734
 11
-0.956131
 21
142.844
  0
LINE
  8
0
 10
-0.956131
 20
142.844
 11
-1.09344
 21
142.973
  0
LINE
  8
0
 10
-1.09344
 20
142.973
 11
-1.21352
 21
143.118
  0
LINE
  8
0
 10
-1.21352
 20
143.118
 11
-1.31445
 21
143.277
  0
LINE
  8
0
 10
-1.31445
 20
143.277
 11
-1.39465
 21
143.448
  0
LINE
  8
0
 10
-1.39465
 20
143.448
 11
-1.45287
 21
143.627
  0
LINE
  8
0
 10
-1.45287
 20
143.627
 11
-1.48816
 21
143.812
  0
LINE
  8
0
 10
-1.48816
 20
143.812
 11
-1.5
 21
144
  0
LINE
  8
0
 10
-1.5
 20
144
 11
-1.48816
 21
144.188
  0
LINE
  8
0
 10
-1.48816
 20
144.188
 11
-1.45287
 21
144.373
  0
LINE
  8
0
 10
-1.45287
 20
144.373
 11
-1.39465
 21
144.552
  0
LINE
  8
0
 10
-1.39465
 20
144.552
 11
-1.31445
 21
144.723
  0
LINE
  8
0
 10
-1.31445
 20
144.723
 11
-1.21352
 21
144.882
  0
LINE
  8
0
 10
-1.21352
 20
144.882
 11
-1.09344
 21
145.027
  0
LINE
  8
0
 10
-1.09344
 20
145.027
 11
-0.956131
 21
145.156
  0
LINE
  8
0
 10
-0.956131
 20
145.156
 11
-0.803726
 21
145.266
  0
LINE
  8
0
 10
-0.803726
 20
145.266
 11
-0.638657
 21
145.357
  0
LINE
  8
0
 10
-0.638657
 20
145.357
 11
-0.463516
 21
145.427
  0
LINE
  8
0
 10
-0.463516
 20
145.427
 11
-0.281067
 21
145.473
  0
LINE
  8
0
 10
-0.281067
 20
145.473
 11
-0.0941772
 21
145.497
  0
LINE
  8
0
 10
-0.0941772
 20
145.497
 11
0.0941772
 21
145.497
  0
LINE
  8
0
 10
0.0941772
 20
145.497
 11
0.281067
 21
145.473
  0
LINE
  8
0
 10
0.281067
 20
145.473
 11
0.463516
 21
145.427
  0
LINE
  8
0
 10
0.463516
 20
145.427
 11
0.638657
 21
145.357
  0
LINE
  8
0
 10
0.638657
 20
145.357
 11
0.803726
 21
145.266
  0
LINE
  8
0
 10
0.803726
 20
145.266
 11
0.956131
 21
145.156
  0
LINE
  8
0
 10
0.956131
 20
145.156
 11
1.09344
 21
145.027
  0
LINE
  8
0
 10
1.09344
 20
145.027
 11
1.21352
 21
144.882
  0
LINE
  8
0
 10
1.21352
 20
144.882
 11
1.31445
 21
144.723
  0
LINE
  8
0
 10
1.31445
 20
144.723
 11
1.39465
 21
144.552
  0
LINE
  8
0
 10
1.39465
 20
144.552
 11
1.45287
 21
144.373
  0
LINE
  8
0
 10
1.45287
 20
144.373
 11
1.48816
 21
144.188
  0
LINE
  8
0
 10
1.48816
 20
144.188
 11
1.5
 21
144
  0
LINE
  8
0
 10
1.5
 20
144
 11
1.48816
 21
143.812
  0
LINE
  8
0
 10
1.48816
 20
143.812
 11
1.45287
 21
143.627
  0
LINE
  8
0
 10
1.45287
 20
143.627
 11
1.39465
 21
143.448
  0
LINE
  8
0
 10
1.39465
 20
143.448
 11
1.31445
 21
143.277
  0
LINE
  8
0
 10
1.31445
 20
143.277
 11
1.21352
 21
143.118
  0
LINE
  8
0
 10
1.21352
 20
143.118
 11
1.09344
 21
142.973
  0
LINE
  8
0
 10
1.09344
 20
142.973
 11
0.956131
 21
142.844
  0
LINE
  8
0
 10
0.956131
 20
142.844
 11
0.803726
 21
142.734
  0
LINE
  8
0
 10
0.803726
 20
142.734
 11
0.638657
 21
142.643
  0
LINE
  8
0
 10
0.638657
 20
142.643
 11
0.463516
 21
142.573
  0
LINE
  8
0
 10
0.463516
 20
142.573
 11
0.281067
 21
142.527
  0
LINE
  8
0
 10
0.281067
 20
142.527
 11
0.0941772
 21
142.503
  0
LINE
  8
0
 10
0.0941772
 20
142.503
 11
-0.0941772
 21
142.503
  0
LINE
  8
0
 10
2.10803
 20
150.949
 11
3.47644
 21
151.301
  0
LINE
  8
0
 10
3.47644
 20
151.301
 11
4.79001
 21
151.821
  0
LINE
  8
0
 10
4.79001
 20
151.821
 11
6.02805
 21
152.501
  0
LINE
  8
0
 10
6.02805
 20
152.501
 11
7.17101
 21
153.332
  0
LINE
  8
0
 10
7.17101
 20
153.332
 11
8.20088
 21
154.299
  0
LINE
  8
0
 10
8.20088
 20
154.299
 11
9.10144
 21
155.387
  0
LINE
  8
0
 10
9.10144
 20
155.387
 11
9.85844
 21
156.58
  0
LINE
  8
0
 10
9.85844
 20
156.58
 11
10.46
 21
157.859
  0
LINE
  8
0
 10
10.46
 20
157.859
 11
10.8965
 21
159.202
  0
LINE
  8
0
 10
10.8965
 20
159.202
 11
11.1613
 21
160.59
  0
LINE
  8
0
 10
11.1613
 20
160.59
 11
11.25
 21
162
  0
LINE
  8
0
 10
11.25
 20
162
 11
9
 21
162
  0
LINE
  8
0
 10
9
 20
162
 11
8.98816
 21
161.812
  0
LINE
  8
0
 10
8.98816
 20
161.812
 11
8.95287
 21
161.627
  0
LINE
  8
0
 10
8.95287
 20
161.627
 11
8.89465
 21
161.448
  0
LINE
  8
0
 10
8.89465
 20
161.448
 11
8.81445
 21
161.277
  0
LINE
  8
0
 10
8.81445
 20
161.277
 11
8.71352
 21
161.118
  0
LINE
  8
0
 10
8.71352
 20
161.118
 11
8.59344
 21
160.973
  0
LINE
  8
0
 10
8.59344
 20
160.973
 11
8.45613
 21
160.844
  0
LINE
  8
0
 10
8.45613
 20
160.844
 11
8.30373
 21
160.734
  0
LINE
  8
0
 10
8.30373
 20
160.734
 11
8.13866
 21
160.643
  0
LINE
  8
0
 10
8.13866
 20
160.643
 11
7.96352
 21
160.573
  0
LINE
  8
0
 10
7.96352
 20
160.573
 11
7.78107
 21
160.527
  0
LINE
  8
0
 10
7.78107
 20
160.527
 11
7.59418
 21
160.503
  0
LINE
  8
0
 10
7.59418
 20
160.503
 11
7.40581
 21
160.503
  0
LINE
  8
0
 10
7.40581
 20
160.503
 11
7.21892
 21
160.527
  0
LINE
  8
0
 10
7.21892
 20
160.527
 11
7.03647
 21
160.573
  0
LINE
  8
0
 10
7.03647
 20
160.573
 11
6.86133
 21
160.643
  0
LINE
  8
0
 10
6.86133
 20
160.643
 11
6.69626
 21
160.734
  0
LINE
  8
0
 10
6.69626
 20
160.734
 11
6.54385
 21
160.844
  0
LINE
  8
0
 10
6.54385
 20
160.844
 11
6.40654
 21
160.973
  0
LINE
  8
0
 10
6.40654
 20
160.973
 11
6.28647
 21
161.118
  0
LINE
  8
0
 10
6.28647
 20
161.118
 11
6.18553
 21
161.277
  0
LINE
  8
0
 10
6.18553
 20
161.277
 11
6.10533
 21
161.448
  0
LINE
  8
0
 10
6.10533
 20
161.448
 11
6.04712
 21
161.627
  0
LINE
  8
0
 10
6.04712
 20
161.627
 11
6.01183
 21
161.812
  0
LINE
  8
0
 10
6.01183
 20
161.812
 11
6
 21
162
  0
LINE
  8
0
 10
6
 20
162
 11
3
 21
162
  0
LINE
  8
0
 10
3
 20
162
 11
2.97633
 21
161.624
  0
LINE
  8
0
 10
2.97633
 20
161.624
 11
2.90575
 21
161.254
  0
LINE
  8
0
 10
2.90575
 20
161.254
 11
2.78932
 21
160.896
  0
LINE
  8
0
 10
2.78932
 20
160.896
 11
2.62891
 21
160.555
  0
LINE
  8
0
 10
2.62891
 20
160.555
 11
2.42705
 21
160.237
  0
LINE
  8
0
 10
2.42705
 20
160.237
 11
2.1869
 21
159.946
  0
LINE
  8
0
 10
2.1869
 20
159.946
 11
1.91226
 21
159.688
  0
LINE
  8
0
 10
1.91226
 20
159.688
 11
1.60747
 21
159.467
  0
LINE
  8
0
 10
1.60747
 20
159.467
 11
1.27733
 21
159.286
  0
LINE
  8
0
 10
1.27733
 20
159.286
 11
0.927048
 21
159.147
  0
LINE
  8
0
 10
0.927048
 20
159.147
 11
0.562134
 21
159.053
  0
LINE
  8
0
 10
0.562134
 20
159.053
 11
0.18837
 21
159.006
  0
LINE
  8
0
 10
0.18837
 20
159.006
 11
-0.18837
 21
159.006
  0
LINE
  8
0
 10
-0.18837
 20
159.006
 11
-0.562134
 21
159.053
  0
LINE
  8
0
 10
-0.562134
 20
159.053
 11
-0.927048
 21
159.147
  0
LINE
  8
0
 10
-0.927048
 20
159.147
 11
-1.27733
 21
159.286
  0
LINE
  8
0
 10
-1.27733
 20
159.286
 11
-1.60747
 21
159.467
  0
LINE
  8
0
 10
-1.60747
 20
159.467
 11
-1.91226
 21
159.688
  0
LINE
  8
0
 10
-1.91226
 20
159.688
 11
-2.1869
 21
159.946
  0
LINE
  8
0
 10
-2.1869
 20
159.946
 11
-2.42705
 21
160.237
  0
LINE
  8
0
 10
-2.42705
 20
160.237
 11
-2.62891
 21
160.555
  0
LINE
  8
0
 10
-2.62891
 20
160.555
 11
-2.78932
 21
160.896
  0
LINE
  8
0
 10
-2.78932
 20
160.896
 11
-2.90575
 21
161.254
  0
LINE
  8
0
 10
-2.90575
 20
161.254
 11
-2.97633
 21
161.624
  0
LINE
  8
0
 10
-2.97633
 20
161.624
 11
-3
 21
162
  0
LINE
  8
0
 10
-3
 20
162
 11
-2.97633
 21
162.376
  0
LINE
  8
0
 10
-2.97633
 20
162.376
 11
-2.90575
 21
162.746
  0
LINE
  8
0
 10
-2.90575
 20
162.746
 11
-2.78932
 21
163.104
  0
LINE
  8
0
 10
-2.78932
 20
163.104
 11
-2.62891
 21
163.445
  0
LINE
  8
0
 10
-2.62891
 20
163.445
 11
-2.42705
 21
163.763
  0
LINE
  8
0
 10
-2.42705
 20
163.763
 11
-2.1869
 21
164.054
  0
LINE
  8
0
 10
-2.1869
 20
164.054
 11
-1.91226
 21
164.312
  0
LINE
  8
0
 10
-1.91226
 20
164.312
 11
-1.60747
 21
164.533
  0
LINE
  8
0
 10
-1.60747
 20
164.533
 11
-1.27733
 21
164.714
  0
LINE
  8
0
 10
-1.27733
 20
164.714
 11
-0.927048
 21
164.853
  0
LINE
  8
0
 10
-0.927048
 20
164.853
 11
-0.562134
 21
164.947
  0
LINE
  8
0
 10
-0.562134
 20
164.947
 11
-0.18837
 21
164.994
  0
LINE
  8
0
 10
-0.18837
 20
164.994
 11
0
 21
164.994
  0
LINE
  8
0
 10
0
 20
164.994
 11
0
 21
168.003
  0
LINE
  8
0
 10
0
 20
168.003
 11
-0.0941772
 21
168.003
  0
LINE
  8
0
 10
-0.0941772
 20
168.003
 11
-0.281067
 21
168.027
  0
LINE
  8
0
 10
-0.281067
 20
168.027
 11
-0.463516
 21
168.073
  0
LINE
  8
0
 10
-0.463516
 20
168.073
 11
-0.638657
 21
168.143
  0
LINE
  8
0
 10
-0.638657
 20
168.143
 11
-0.803726
 21
168.234
  0
LINE
  8
0
 10
-0.803726
 20
168.234
 11
-0.956131
 21
168.344
  0
LINE
  8
0
 10
-0.956131
 20
168.344
 11
-1.09344
 21
168.473
  0
LINE
  8
0
 10
-1.09344
 20
168.473
 11
-1.21352
 21
168.618
  0
LINE
  8
0
 10
-1.21352
 20
168.618
 11
-1.31445
 21
168.777
  0
LINE
  8
0
 10
-1.31445
 20
168.777
 11
-1.39465
 21
168.948
  0
LINE
  8
0
 10
-1.39465
 20
168.948
 11
-1.45287
 21
169.127
  0
LINE
  8
0
 10
-1.45287
 20
169.127
 11
-1.48816
 21
169.312
  0
LINE
  8
0
 10
-1.48816
 20
169.312
 11
-1.5
 21
169.5
  0
LINE
  8
0
 10
-1.5
 20
169.5
 11
-1.48816
 21
169.688
  0
LINE
  8
0
 10
-1.48816
 20
169.688
 11
-1.45287
 21
169.873
  0
LINE
  8
0
 10
-1.45287
 20
169.873
 11
-1.39465
 21
170.052
  0
LINE
  8
0
 10
-1.39465
 20
170.052
 11
-1.31445
 21
170.223
  0
LINE
  8
0
 10
-1.31445
 20
170.223
 11
-1.21352
 21
170.382
  0
LINE
  8
0
 10
-1.21352
 20
170.382
 11
-1.09344
 21
170.527
  0
LINE
  8
0
 10
-1.09344
 20
170.527
 11
-0.956131
 21
170.656
  0
LINE
  8
0
 10
-0.956131
 20
170.656
 11
-0.803726
 21
170.766
  0
LINE
  8
0
 10
-0.803726
 20
170.766
 11
-0.638657
 21
170.857
  0
LINE
  8
0
 10
-0.638657
 20
170.857
 11
-0.463516
 21
170.927
  0
LINE
  8
0
 10
-0.463516
 20
170.927
 11
-0.281067
 21
170.973
  0
LINE
  8
0
 10
-0.281067
 20
170.973
 11
-0.0941772
 21
170.997
  0
LINE
  8
0
 10
-0.0941772
 20
170.997
 11
0
 21
170.997
  0
LINE
  8
0
 10
0
 20
170.997
 11
0
 21
173.228
  0
LINE
  8
0
 10
0
 20
173.228
 11
-0.70639
 21
173.228
  0
LINE
  8
0
 10
-0.70639
 20
173.228
 11
-2.10803
 21
173.051
  0
LINE
  8
0
 10
-2.10803
 20
173.051
 11
-3.47644
 21
172.699
  0
LINE
  8
0
 10
-3.47644
 20
172.699
 11
-4.79001
 21
172.179
  0
LINE
  8
0
 10
-4.79001
 20
172.179
 11
-6.02805
 21
171.499
  0
LINE
  8
0
 10
-6.02805
 20
171.499
 11
-7.17101
 21
170.668
  0
LINE
  8
0
 10
-7.17101
 20
170.668
 11
-8.20088
 21
169.701
  0
LINE
  8
0
 10
-8.20088
 20
169.701
 11
-9.10144
 21
168.613
  0
LINE
  8
0
 10
-9.10144
 20
168.613
 11
-9.85844
 21
167.42
  0
LINE
  8
0
 10
-9.85844
 20
167.42
 11
-10.46
 21
166.141
  0
LINE
  8
0
 10
-10.46
 20
166.141
 11
-10.8965
 21
164.798
  0
LINE
  8
0
 10
-10.8965
 20
164.798
 11
-11.1613
 21
163.41
  0
LINE
  8
0
 10
-11.1613
 20
163.41
 11
-11.25
 21
162
  0
LINE
  8
0
 10
-11.25
 20
162
 11
-11.1613
 21
160.59
  0
LINE
  8
0
 10
-11.1613
 20
160.59
 11
-10.8965
 21
159.202
  0
LINE
  8
0
 10
-10.8965
 20
159.202
 11
-10.46
 21
157.859
  0
LINE
  8
0
 10
-10.46
 20
157.859
 11
-9.85844
 21
156.58
  0
LINE
  8
0
 10
-9.85844
 20
156.58
 11
-9.10144
 21
155.387
  0
LINE
  8
0
 10
-9.10144
 20
155.387
 11
-8.20088
 21
154.299
  0
LINE
  8
0
 10
-8.20088
 20
154.299
 11
-7.17101
 21
153.332
  0
LINE
  8
0
 10
-7.17101
 20
153.332
 11
-6.02805
 21
152.501
  0
LINE
  8
0
 10
-6.02805
 20
152.501
 11
-4.79001
 21
151.821
  0
LINE
  8
0
 10
-4.79001
 20
151.821
 11
-3.47644
 21
151.301
  0
LINE
  8
0
 10
-3.47644
 20
151.301
 11
-2.10803
 21
150.949
  0
LINE
  8
0
 10
-2.10803
 20
150.949
 11
-0.70639
 21
150.772
  0
LINE
  8
0
 10
-0.70639
 20
150.772
 11
0.70639
 21
150.772
  0
LINE
  8
0
 10
0.70639
 20
150.772
 11
2.10803
 21
150.949
  0
LINE
  8
0
 10
-7.59418
 20
160.503
 11
-7.78107
 21
160.527
  0
LINE
  8
0
 10
-7.78107
 20
160.527
 11
-7.96352
 21
160.573
  0
LINE
  8
0
 10
-7.96352
 20
160.573
 11
-8.13866
 21
160.643
  0
LINE
  8
0
 10
-8.13866
 20
160.643
 11
-8.30373
 21
160.734
  0
LINE
  8
0
 10
-8.30373
 20
160.734
 11
-8.45613
 21
160.844
  0
LINE
  8
0
 10
-8.45613
 20
160.844
 11
-8.59344
 21
160.973
  0
LINE
  8
0
 10
-8.59344
 20
160.973
 11
-8.71352
 21
161.118
  0
LINE
  8
0
 10
-8.71352
 20
161.118
 11
-8.81445
 21
161.277
  0
LINE
  8
0
 10
-8.81445
 20
161.277
 11
-8.89465
 21
161.448
  0
LINE
  8
0
 10
-8.89465
 20
161.448
 11
-8.95287
 21
161.627
  0
LINE
  8
0
 10
-8.95287
 20
161.627
 11
-8.98816
 21
161.812
  0
LINE
  8
0
 10
-8.98816
 20
161.812
 11
-9
 21
162
  0
LINE
  8
0
 10
-9
 20
162
 11
-8.98816
 21
162.188
  0
LINE
  8
0
 10
-8.98816
 20
162.188
 11
-8.95287
 21
162.373
  0
LINE
  8
0
 10
-8.95287
 20
162.373
 11
-8.89465
 21
162.552
  0
LINE
  8
0
 10
-8.89465
 20
162.552
 11
-8.81445
 21
162.723
  0
LINE
  8
0
 10
-8.81445
 20
162.723
 11
-8.71352
 21
162.882
  0
LINE
  8
0
 10
-8.71352
 20
162.882
 11
-8.59344
 21
163.027
  0
LINE
  8
0
 10
-8.59344
 20
163.027
 11
-8.45613
 21
163.156
  0
LINE
  8
0
 10
-8.45613
 20
163.156
 11
-8.30373
 21
163.266
  0
LINE
  8
0
 10
-8.30373
 20
163.266
 11
-8.13866
 21
163.357
  0
LINE
  8
0
 10
-8.13866
 20
163.357
 11
-7.96352
 21
163.427
  0
LINE
  8
0
 10
-7.96352
 20
163.427
 11
-7.78107
 21
163.473
  0
LINE
  8
0
 10
-7.78107
 20
163.473
 11
-7.59418
 21
163.497
  0
LINE
  8
0
 10
-7.59418
 20
163.497
 11
-7.40581
 21
163.497
  0
LINE
  8
0
 10
-7.40581
 20
163.497
 11
-7.21892
 21
163.473
  0
LINE
  8
0
 10
-7.21892
 20
163.473
 11
-7.03647
 21
163.427
  0
LINE
  8
0
 10
-7.03647
 20
163.427
 11
-6.86133
 21
163.357
  0
LINE
  8
0
 10
-6.86133
 20
163.357
 11
-6.69626
 21
163.266
  0
LINE
  8
0
 10
-6.69626
 20
163.266
 11
-6.54385
 21
163.156
  0
LINE
  8
0
 10
-6.54385
 20
163.156
 11
-6.40654
 21
163.027
  0
LINE
  8
0
 10
-6.40654
 20
163.027
 11
-6.28647
 21
162.882
  0
LINE
  8
0
 10
-6.28647
 20
162.882
 11
-6.18553
 21
162.723
  0
LINE
  8
0
 10
-6.18553
 20
162.723
 11
-6.10533
 21
162.552
  0
LINE
  8
0
 10
-6.10533
 20
162.552
 11
-6.04712
 21
162.373
  0
LINE
  8
0
 10
-6.04712
 20
162.373
 11
-6.01183
 21
162.188
  0
LINE
  8
0
 10
-6.01183
 20
162.188
 11
-6
 21
162
  0
LINE
  8
0
 10
-6
 20
162
 11
-6.01183
 21
161.812
  0
LINE
  8
0
 10
-6.01183
 20
161.812
 11
-6.04712
 21
161.627
  0
LINE
  8
0
 10
-6.04712
 20
161.627
 11
-6.10533
 21
161.448
  0
LINE
  8
0
 10
-6.10533
 20
161.448
 11
-6.18553
 21
161.277
  0
LINE
  8
0
 10
-6.18553
 20
161.277
 11
-6.28647
 21
161.118
  0
LINE
  8
0
 10
-6.28647
 20
161.118
 11
-6.40654
 21
160.973
  0
LINE
  8
0
 10
-6.40654
 20
160.973
 11
-6.54385
 21
160.844
  0
LINE
  8
0
 10
-6.54385
 20
160.844
 11
-6.69626
 21
160.734
  0
LINE
  8
0
 10
-6.69626
 20
160.734
 11
-6.86133
 21
160.643
  0
LINE
  8
0
 10
-6.86133
 20
160.643
 11
-7.03647
 21
160.573
  0
LINE
  8
0
 10
-7.03647
 20
160.573
 11
-7.21892
 21
160.527
  0
LINE
  8
0
 10
-7.21892
 20
160.527
 11
-7.40581
 21
160.503
  0
LINE
  8
0
 10
-7.40581
 20
160.503
 11
-7.59418
 21
160.503
  0
LINE
  8
0
 10
-1.58675
 20
151.752
 11
-3.17349
 21
154.5
  0
LINE
  8
0
 10
-3.17349
 20
154.5
 11
-1.58675
 21
157.248
  0
LINE
  8
0
 10
-1.58675
 20
157.248
 11
1.58675
 21
157.248
  0
LINE
  8
0
 10
1.58675
 20
157.248
 11
3.17349
 21
154.5
  0
LINE
  8
0
 10
3.17349
 20
154.5
 11
1.58675
 21
151.752
  0
LINE
  8
0
 10
1.58675
 20
151.752
 11
-1.58675
 21
151.752
  0
LINE
  8
0
 10
18.4369
 20
85.5886
 11
19.0451
 21
85.7447
  0
LINE
  8
0
 10
19.0451
 20
85.7447
 11
19.6289
 21
85.9759
  0
LINE
  8
0
 10
19.6289
 20
85.9759
 11
20.1791
 21
86.2784
  0
LINE
  8
0
 10
20.1791
 20
86.2784
 11
20.6871
 21
86.6474
  0
LINE
  8
0
 10
20.6871
 20
86.6474
 11
21.1448
 21
87.0773
  0
LINE
  8
0
 10
21.1448
 20
87.0773
 11
21.5451
 21
87.5611
  0
LINE
  8
0
 10
21.5451
 20
87.5611
 11
21.8815
 21
88.0912
  0
LINE
  8
0
 10
21.8815
 20
88.0912
 11
22.1489
 21
88.6594
  0
LINE
  8
0
 10
22.1489
 20
88.6594
 11
22.3429
 21
89.2566
  0
LINE
  8
0
 10
22.3429
 20
89.2566
 11
22.4606
 21
89.8733
  0
LINE
  8
0
 10
22.4606
 20
89.8733
 11
22.5
 21
90.5
  0
LINE
  8
0
 10
22.5
 20
90.5
 11
22.5
 21
108
  0
LINE
  8
0
 10
22.5
 20
108
 11
19.4984
 21
108
  0
LINE
  8
0
 10
19.4984
 20
108
 11
19.4918
 21
107.843
  0
LINE
  8
0
 10
19.4918
 20
107.843
 11
19.4604
 21
107.657
  0
LINE
  8
0
 10
19.4604
 20
107.657
 11
19.4059
 21
107.477
  0
LINE
  8
0
 10
19.4059
 20
107.477
 11
19.3293
 21
107.305
  0
LINE
  8
0
 10
19.3293
 20
107.305
 11
19.2317
 21
107.144
  0
LINE
  8
0
 10
19.2317
 20
107.144
 11
19.1147
 21
106.996
  0
LINE
  8
0
 10
19.1147
 20
106.996
 11
18.9801
 21
106.865
  0
LINE
  8
0
 10
18.9801
 20
106.865
 11
18.8301
 21
106.751
  0
LINE
  8
0
 10
18.8301
 20
106.751
 11
18.6669
 21
106.656
  0
LINE
  8
0
 10
18.6669
 20
106.656
 11
18.4933
 21
106.583
  0
LINE
  8
0
 10
18.4933
 20
106.583
 11
18.3119
 21
106.533
  0
LINE
  8
0
 10
18.3119
 20
106.533
 11
18.1255
 21
106.505
  0
LINE
  8
0
 10
18.1255
 20
106.505
 11
17.9372
 21
106.501
  0
LINE
  8
0
 10
17.9372
 20
106.501
 11
17.7498
 21
106.521
  0
LINE
  8
0
 10
17.7498
 20
106.521
 11
17.5665
 21
106.564
  0
LINE
  8
0
 10
17.5665
 20
106.564
 11
17.3899
 21
106.63
  0
LINE
  8
0
 10
17.3899
 20
106.63
 11
17.2229
 21
106.717
  0
LINE
  8
0
 10
17.2229
 20
106.717
 11
17.0683
 21
106.824
  0
LINE
  8
0
 10
17.0683
 20
106.824
 11
16.9283
 21
106.951
  0
LINE
  8
0
 10
16.9283
 20
106.951
 11
16.8052
 21
107.093
  0
LINE
  8
0
 10
16.8052
 20
107.093
 11
16.701
 21
107.25
  0
LINE
  8
0
 10
16.701
 20
107.25
 11
16.6172
 21
107.419
  0
LINE
  8
0
 10
16.6172
 20
107.419
 11
16.5553
 21
107.597
  0
LINE
  8
0
 10
16.5553
 20
107.597
 11
16.5161
 21
107.781
  0
LINE
  8
0
 10
16.5161
 20
107.781
 11
16.5003
 21
107.969
  0
LINE
  8
0
 10
16.5003
 20
107.969
 11
16.5016
 21
108
  0
LINE
  8
0
 10
16.5016
 20
108
 11
13.5
 21
108
  0
LINE
  8
0
 10
13.5
 20
108
 11
13.3935
 21
106.308
  0
LINE
  8
0
 10
13.3935
 20
106.308
 11
13.0759
 21
104.643
  0
LINE
  8
0
 10
13.0759
 20
104.643
 11
12.552
 21
103.03
  0
LINE
  8
0
 10
12.552
 20
103.03
 11
11.8301
 21
101.496
  0
LINE
  8
0
 10
11.8301
 20
101.496
 11
10.9217
 21
100.065
  0
LINE
  8
0
 10
10.9217
 20
100.065
 11
9.84106
 21
98.7586
  0
LINE
  8
0
 10
9.84106
 20
98.7586
 11
8.60521
 21
97.5981
  0
LINE
  8
0
 10
8.60521
 20
97.5981
 11
7.23366
 21
96.6016
  0
LINE
  8
0
 10
7.23366
 20
96.6016
 11
5.74802
 21
95.7848
  0
LINE
  8
0
 10
5.74802
 20
95.7848
 11
4.17172
 21
95.1608
  0
LINE
  8
0
 10
4.17172
 20
95.1608
 11
2.52963
 21
94.7391
  0
LINE
  8
0
 10
2.52963
 20
94.7391
 11
0.847672
 21
94.5266
  0
LINE
  8
0
 10
0.847672
 20
94.5266
 11
-0.847672
 21
94.5266
  0
LINE
  8
0
 10
-0.847672
 20
94.5266
 11
-2.52963
 21
94.7391
  0
LINE
  8
0
 10
-2.52963
 20
94.7391
 11
-4.17172
 21
95.1608
  0
LINE
  8
0
 10
-4.17172
 20
95.1608
 11
-5.74802
 21
95.7848
  0
LINE
  8
0
 10
-5.74802
 20
95.7848
 11
-7.23366
 21
96.6016
  0
LINE
  8
0
 10
-7.23366
 20
96.6016
 11
-8.60521
 21
97.5981
  0
LINE
  8
0
 10
-8.60521
 20
97.5981
 11
-9.84106
 21
98.7586
  0
LINE
  8
0
 10
-9.84106
 20
98.7586
 11
-10.9217
 21
100.065
  0
LINE
  8
0
 10
-10.9217
 20
100.065
 11
-11.8301
 21
101.496
  0
LINE
  8
0
 10
-11.8301
 20
101.496
 11
-12.552
 21
103.03
  0
LINE
  8
0
 10
-12.552
 20
103.03
 11
-13.0759
 21
104.643
  0
LINE
  8
0
 10
-13.0759
 20
104.643
 11
-13.3935
 21
106.308
  0
LINE
  8
0
 10
-13.3935
 20
106.308
 11
-13.5
 21
108
  0
LINE
  8
0
 10
-13.5
 20
108
 11
-13.3935
 21
109.692
  0
LINE
  8
0
 10
-13.3935
 20
109.692
 11
-13.0759
 21
111.357
  0
LINE
  8
0
 10
-13.0759
 20
111.357
 11
-12.552
 21
112.97
  0
LINE
  8
0
 10
-12.552
 20
112.97
 11
-11.8301
 21
114.504
  0
LINE
  8
0
 10
-11.8301
 20
114.504
 11
-10.9217
 21
115.935
  0
LINE
  8
0
 10
-10.9217
 20
115.935
 11
-9.84106
 21
117.241
  0
LINE
  8
0
 10
-9.84106
 20
117.241
 11
-8.60521
 21
118.402
  0
LINE
  8
0
 10
-8.60521
 20
118.402
 11
-7.23366
 21
119.398
  0
LINE
  8
0
 10
-7.23366
 20
119.398
 11
-5.74802
 21
120.215
  0
LINE
  8
0
 10
-5.74802
 20
120.215
 11
-4.17172
 21
120.839
  0
LINE
  8
0
 10
-4.17172
 20
120.839
 11
-2.52963
 21
121.261
  0
LINE
  8
0
 10
-2.52963
 20
121.261
 11
-0.847672
 21
121.473
  0
LINE
  8
0
 10
-0.847672
 20
121.473
 11
0
 21
121.473
  0
LINE
  8
0
 10
0
 20
121.473
 11
0
 21
124.503
  0
LINE
  8
0
 10
0
 20
124.503
 11
-0.0941772
 21
124.503
  0
LINE
  8
0
 10
-0.0941772
 20
124.503
 11
-0.281067
 21
124.527
  0
LINE
  8
0
 10
-0.281067
 20
124.527
 11
-0.463516
 21
124.573
  0
LINE
  8
0
 10
-0.463516
 20
124.573
 11
-0.638657
 21
124.643
  0
LINE
  8
0
 10
-0.638657
 20
124.643
 11
-0.803726
 21
124.734
  0
LINE
  8
0
 10
-0.803726
 20
124.734
 11
-0.956131
 21
124.844
  0
LINE
  8
0
 10
-0.956131
 20
124.844
 11
-1.09344
 21
124.973
  0
LINE
  8
0
 10
-1.09344
 20
124.973
 11
-1.21352
 21
125.118
  0
LINE
  8
0
 10
-1.21352
 20
125.118
 11
-1.31445
 21
125.277
  0
LINE
  8
0
 10
-1.31445
 20
125.277
 11
-1.39465
 21
125.448
  0
LINE
  8
0
 10
-1.39465
 20
125.448
 11
-1.45287
 21
125.627
  0
LINE
  8
0
 10
-1.45287
 20
125.627
 11
-1.48816
 21
125.812
  0
LINE
  8
0
 10
-1.48816
 20
125.812
 11
-1.5
 21
126
  0
LINE
  8
0
 10
-1.5
 20
126
 11
-1.48816
 21
126.188
  0
LINE
  8
0
 10
-1.48816
 20
126.188
 11
-1.45287
 21
126.373
  0
LINE
  8
0
 10
-1.45287
 20
126.373
 11
-1.39465
 21
126.552
  0
LINE
  8
0
 10
-1.39465
 20
126.552
 11
-1.31445
 21
126.723
  0
LINE
  8
0
 10
-1.31445
 20
126.723
 11
-1.21352
 21
126.882
  0
LINE
  8
0
 10
-1.21352
 20
126.882
 11
-1.09344
 21
127.027
  0
LINE
  8
0
 10
-1.09344
 20
127.027
 11
-0.956131
 21
127.156
  0
LINE
  8
0
 10
-0.956131
 20
127.156
 11
-0.803726
 21
127.266
  0
LINE
  8
0
 10
-0.803726
 20
127.266
 11
-0.638657
 21
127.357
  0
LINE
  8
0
 10
-0.638657
 20
127.357
 11
-0.463516
 21
127.427
  0
LINE
  8
0
 10
-0.463516
 20
127.427
 11
-0.281067
 21
127.473
  0
LINE
  8
0
 10
-0.281067
 20
127.473
 11
-0.0941772
 21
127.497
  0
LINE
  8
0
 10
-0.0941772
 20
127.497
 11
0
 21
127.497
  0
LINE
  8
0
 10
0
 20
127.497
 11
0
 21
130.49
  0
LINE
  8
0
 10
0
 20
130.49
 11
-17.8139
 21
130.49
  0
LINE
  8
0
 10
-17.8139
 20
130.49
 11
-18.4369
 21
130.411
  0
LINE
  8
0
 10
-18.4369
 20
130.411
 11
-19.0451
 21
130.255
  0
LINE
  8
0
 10
-19.0451
 20
130.255
 11
-19.6289
 21
130.024
  0
LINE
  8
0
 10
-19.6289
 20
130.024
 11
-20.1791
 21
129.722
  0
LINE
  8
0
 10
-20.1791
 20
129.722
 11
-20.6871
 21
129.353
  0
LINE
  8
0
 10
-20.6871
 20
129.353
 11
-21.1448
 21
128.923
  0
LINE
  8
0
 10
-21.1448
 20
128.923
 11
-21.5451
 21
128.439
  0
LINE
  8
0
 10
-21.5451
 20
128.439
 11
-21.8815
 21
127.909
  0
LINE
  8
0
 10
-21.8815
 20
127.909
 11
-22.1489
 21
127.341
  0
LINE
  8
0
 10
-22.1489
 20
127.341
 11
-22.3429
 21
126.743
  0
LINE
  8
0
 10
-22.3429
 20
126.743
 11
-22.4606
 21
126.127
  0
LINE
  8
0
 10
-22.4606
 20
126.127
 11
-22.5
 21
125.5
  0
LINE
  8
0
 10
-22.5
 20
125.5
 11
-22.5
 21
90.5
  0
LINE
  8
0
 10
-22.5
 20
90.5
 11
-22.4606
 21
89.8733
  0
LINE
  8
0
 10
-22.4606
 20
89.8733
 11
-22.3429
 21
89.2566
  0
LINE
  8
0
 10
-22.3429
 20
89.2566
 11
-22.1489
 21
88.6594
  0
LINE
  8
0
 10
-22.1489
 20
88.6594
 11
-21.8815
 21
88.0912
  0
LINE
  8
0
 10
-21.8815
 20
88.0912
 11
-21.5451
 21
87.5611
  0
LINE
  8
0
 10
-21.5451
 20
87.5611
 11
-21.1448
 21
87.0773
  0
LINE
  8
0
 10
-21.1448
 20
87.0773
 11
-20.6871
 21
86.6474
  0
LINE
  8
0
 10
-20.6871
 20
86.6474
 11
-20.1791
 21
86.2784
  0
LINE
  8
0
 10
-20.1791
 20
86.2784
 11
-19.6289
 21
85.9759
  0
LINE
  8
0
 10
-19.6289
 20
85.9759
 11
-19.0451
 21
85.7447
  0
LINE
  8
0
 10
-19.0451
 20
85.7447
 11
-18.4369
 21
85.5886
  0
LINE
  8
0
 10
-18.4369
 20
85.5886
 11
-17.8139
 21
85.5099
  0
LINE
  8
0
 10
-17.8139
 20
85.5099
 11
17.8139
 21
85.5099
  0
LINE
  8
0
 10
17.8139
 20
85.5099
 11
18.4369
 21
85.5886
  0
LINE
  8
0
 10
-15.1884
 20
120.006
 11
-15.5621
 21
120.053
  0
LINE
  8
0
 10
-15.5621
 20
120.053
 11
-15.927
 21
120.147
  0
LINE
  8
0
 10
-15.927
 20
120.147
 11
-16.2773
 21
120.286
  0
LINE
  8
0
 10
-16.2773
 20
120.286
 11
-16.6075
 21
120.467
  0
LINE
  8
0
 10
-16.6075
 20
120.467
 11
-16.9123
 21
120.688
  0
LINE
  8
0
 10
-16.9123
 20
120.688
 11
-17.1869
 21
120.946
  0
LINE
  8
0
 10
-17.1869
 20
120.946
 11
-17.427
 21
121.237
  0
LINE
  8
0
 10
-17.427
 20
121.237
 11
-17.6289
 21
121.555
  0
LINE
  8
0
 10
-17.6289
 20
121.555
 11
-17.7893
 21
121.896
  0
LINE
  8
0
 10
-17.7893
 20
121.896
 11
-17.9057
 21
122.254
  0
LINE
  8
0
 10
-17.9057
 20
122.254
 11
-17.9763
 21
122.624
  0
LINE
  8
0
 10
-17.9763
 20
122.624
 11
-18
 21
123
  0
LINE
  8
0
 10
-18
 20
123
 11
-17.9763
 21
123.376
  0
LINE
  8
0
 10
-17.9763
 20
123.376
 11
-17.9057
 21
123.746
  0
LINE
  8
0
 10
-17.9057
 20
123.746
 11
-17.7893
 21
124.104
  0
LINE
  8
0
 10
-17.7893
 20
124.104
 11
-17.6289
 21
124.445
  0
LINE
  8
0
 10
-17.6289
 20
124.445
 11
-17.427
 21
124.763
  0
LINE
  8
0
 10
-17.427
 20
124.763
 11
-17.1869
 21
125.054
  0
LINE
  8
0
 10
-17.1869
 20
125.054
 11
-16.9123
 21
125.312
  0
LINE
  8
0
 10
-16.9123
 20
125.312
 11
-16.6075
 21
125.533
  0
LINE
  8
0
 10
-16.6075
 20
125.533
 11
-16.2773
 21
125.714
  0
LINE
  8
0
 10
-16.2773
 20
125.714
 11
-15.927
 21
125.853
  0
LINE
  8
0
 10
-15.927
 20
125.853
 11
-15.5621
 21
125.947
  0
LINE
  8
0
 10
-15.5621
 20
125.947
 11
-15.1884
 21
125.994
  0
LINE
  8
0
 10
-15.1884
 20
125.994
 11
-14.8116
 21
125.994
  0
LINE
  8
0
 10
-14.8116
 20
125.994
 11
-14.4379
 21
125.947
  0
LINE
  8
0
 10
-14.4379
 20
125.947
 11
-14.0729
 21
125.853
  0
LINE
  8
0
 10
-14.0729
 20
125.853
 11
-13.7227
 21
125.714
  0
LINE
  8
0
 10
-13.7227
 20
125.714
 11
-13.3925
 21
125.533
  0
LINE
  8
0
 10
-13.3925
 20
125.533
 11
-13.0877
 21
125.312
  0
LINE
  8
0
 10
-13.0877
 20
125.312
 11
-12.8131
 21
125.054
  0
LINE
  8
0
 10
-12.8131
 20
125.054
 11
-12.5729
 21
124.763
  0
LINE
  8
0
 10
-12.5729
 20
124.763
 11
-12.3711
 21
124.445
  0
LINE
  8
0
 10
-12.3711
 20
124.445
 11
-12.2107
 21
124.104
  0
LINE
  8
0
 10
-12.2107
 20
124.104
 11
-12.0942
 21
123.746
  0
LINE
  8
0
 10
-12.0942
 20
123.746
 11
-12.0237
 21
123.376
  0
LINE
  8
0
 10
-12.0237
 20
123.376
 11
-12
 21
123
  0
LINE
  8
0
 10
-12
 20
123
 11
-12.0237
 21
122.624
  0
LINE
  8
0
 10
-12.0237
 20
122.624
 11
-12.0942
 21
122.254
  0
LINE
  8
0
 10
-12.0942
 20
122.254
 11
-12.2107
 21
121.896
  0
LINE
  8
0
 10
-12.2107
 20
121.896
 11
-12.3711
 21
121.555
  0
LINE
  8
0
 10
-12.3711
 20
121.555
 11
-12.5729
 21
121.237
  0
LINE
  8
0
 10
-12.5729
 20
121.237
 11
-12.8131
 21
120.946
  0
LINE
  8
0
 10
-12.8131
 20
120.946
 11
-13.0877
 21
120.688
  0
LINE
  8
0
 10
-13.0877
 20
120.688
 11
-13.3925
 21
120.467
  0
LINE
  8
0
 10
-13.3925
 20
120.467
 11
-13.7227
 21
120.286
  0
LINE
  8
0
 10
-13.7227
 20
120.286
 11
-14.0729
 21
120.147
  0
LINE
  8
0
 10
-14.0729
 20
120.147
 11
-14.4379
 21
120.053
  0
LINE
  8
0
 10
-14.4379
 20
120.053
 11
-14.8116
 21
120.006
  0
LINE
  8
0
 10
-14.8116
 20
120.006
 11
-15.1884
 21
120.006
  0
LINE
  8
0
 10
-18.2502
 20
106.521
 11
-18.4335
 21
106.564
  0
LINE
  8
0
 10
-18.4335
 20
106.564
 11
-18.6101
 21
106.63
  0
LINE
  8
0
 10
-18.6101
 20
106.63
 11
-18.777
 21
106.717
  0
LINE
  8
0
 10
-18.777
 20
106.717
 11
-18.9317
 21
106.824
  0
LINE
  8
0
 10
-18.9317
 20
106.824
 11
-19.0717
 21
106.951
  0
LINE
  8
0
 10
-19.0717
 20
106.951
 11
-19.1948
 21
107.093
  0
LINE
  8
0
 10
-19.1948
 20
107.093
 11
-19.299
 21
107.25
  0
LINE
  8
0
 10
-19.299
 20
107.25
 11
-19.3828
 21
107.419
  0
LINE
  8
0
 10
-19.3828
 20
107.419
 11
-19.4447
 21
107.597
  0
LINE
  8
0
 10
-19.4447
 20
107.597
 11
-19.4839
 21
107.781
  0
LINE
  8
0
 10
-19.4839
 20
107.781
 11
-19.4997
 21
107.969
  0
LINE
  8
0
 10
-19.4997
 20
107.969
 11
-19.4918
 21
108.157
  0
LINE
  8
0
 10
-19.4918
 20
108.157
 11
-19.4604
 21
108.343
  0
LINE
  8
0
 10
-19.4604
 20
108.343
 11
-19.4059
 21
108.523
  0
LINE
  8
0
 10
-19.4059
 20
108.523
 11
-19.3293
 21
108.695
  0
LINE
  8
0
 10
-19.3293
 20
108.695
 11
-19.2317
 21
108.856
  0
LINE
  8
0
 10
-19.2317
 20
108.856
 11
-19.1147
 21
109.004
  0
LINE
  8
0
 10
-19.1147
 20
109.004
 11
-18.9801
 21
109.135
  0
LINE
  8
0
 10
-18.9801
 20
109.135
 11
-18.8301
 21
109.249
  0
LINE
  8
0
 10
-18.8301
 20
109.249
 11
-18.6669
 21
109.344
  0
LINE
  8
0
 10
-18.6669
 20
109.344
 11
-18.4933
 21
109.417
  0
LINE
  8
0
 10
-18.4933
 20
109.417
 11
-18.3119
 21
109.467
  0
LINE
  8
0
 10
-18.3119
 20
109.467
 11
-18.1255
 21
109.495
  0
LINE
  8
0
 10
-18.1255
 20
109.495
 11
-17.9372
 21
109.499
  0
LINE
  8
0
 10
-17.9372
 20
109.499
 11
-17.7498
 21
109.479
  0
LINE
  8
0
 10
-17.7498
 20
109.479
 11
-17.5665
 21
109.436
  0
LINE
  8
0
 10
-17.5665
 20
109.436
 11
-17.3899
 21
109.37
  0
LINE
  8
0
 10
-17.3899
 20
109.37
 11
-17.2229
 21
109.283
  0
LINE
  8
0
 10
-17.2229
 20
109.283
 11
-17.0683
 21
109.176
  0
LINE
  8
0
 10
-17.0683
 20
109.176
 11
-16.9283
 21
109.049
  0
LINE
  8
0
 10
-16.9283
 20
109.049
 11
-16.8052
 21
108.907
  0
LINE
  8
0
 10
-16.8052
 20
108.907
 11
-16.701
 21
108.75
  0
LINE
  8
0
 10
-16.701
 20
108.75
 11
-16.6172
 21
108.581
  0
LINE
  8
0
 10
-16.6172
 20
108.581
 11
-16.5553
 21
108.403
  0
LINE
  8
0
 10
-16.5553
 20
108.403
 11
-16.5161
 21
108.219
  0
LINE
  8
0
 10
-16.5161
 20
108.219
 11
-16.5003
 21
108.031
  0
LINE
  8
0
 10
-16.5003
 20
108.031
 11
-16.5082
 21
107.843
  0
LINE
  8
0
 10
-16.5082
 20
107.843
 11
-16.5396
 21
107.657
  0
LINE
  8
0
 10
-16.5396
 20
107.657
 11
-16.5941
 21
107.477
  0
LINE
  8
0
 10
-16.5941
 20
107.477
 11
-16.6707
 21
107.305
  0
LINE
  8
0
 10
-16.6707
 20
107.305
 11
-16.7683
 21
107.144
  0
LINE
  8
0
 10
-16.7683
 20
107.144
 11
-16.8853
 21
106.996
  0
LINE
  8
0
 10
-16.8853
 20
106.996
 11
-17.0199
 21
106.865
  0
LINE
  8
0
 10
-17.0199
 20
106.865
 11
-17.1699
 21
106.751
  0
LINE
  8
0
 10
-17.1699
 20
106.751
 11
-17.333
 21
106.656
  0
LINE
  8
0
 10
-17.333
 20
106.656
 11
-17.5067
 21
106.583
  0
LINE
  8
0
 10
-17.5067
 20
106.583
 11
-17.6881
 21
106.533
  0
LINE
  8
0
 10
-17.6881
 20
106.533
 11
-17.8745
 21
106.505
  0
LINE
  8
0
 10
-17.8745
 20
106.505
 11
-18.0628
 21
106.501
  0
LINE
  8
0
 10
-18.0628
 20
106.501
 11
-18.2502
 21
106.521
  0
LINE
  8
0
 10
-15.1884
 20
90.0059
 11
-15.5621
 21
90.0531
  0
LINE
  8
0
 10
-15.5621
 20
90.0531
 11
-15.927
 21
90.1468
  0
LINE
  8
0
 10
-15.927
 20
90.1468
 11
-16.2773
 21
90.2855
  0
LINE
  8
0
 10
-16.2773
 20
90.2855
 11
-16.6075
 21
90.467
  0
LINE
  8
0
 10
-16.6075
 20
90.467
 11
-16.9123
 21
90.6885
  0
LINE
  8
0
 10
-16.9123
 20
90.6885
 11
-17.1869
 21
90.9464
  0
LINE
  8
0
 10
-17.1869
 20
90.9464
 11
-17.427
 21
91.2366
  0
LINE
  8
0
 10
-17.427
 20
91.2366
 11
-17.6289
 21
91.5547
  0
LINE
  8
0
 10
-17.6289
 20
91.5547
 11
-17.7893
 21
91.8956
  0
LINE
  8
0
 10
-17.7893
 20
91.8956
 11
-17.9057
 21
92.2539
  0
LINE
  8
0
 10
-17.9057
 20
92.2539
 11
-17.9763
 21
92.624
  0
LINE
  8
0
 10
-17.9763
 20
92.624
 11
-18
 21
93
  0
LINE
  8
0
 10
-18
 20
93
 11
-17.9763
 21
93.376
  0
LINE
  8
0
 10
-17.9763
 20
93.376
 11
-17.9057
 21
93.7461
  0
LINE
  8
0
 10
-17.9057
 20
93.7461
 11
-17.7893
 21
94.1044
  0
LINE
  8
0
 10
-17.7893
 20
94.1044
 11
-17.6289
 21
94.4453
  0
LINE
  8
0
 10
-17.6289
 20
94.4453
 11
-17.427
 21
94.7634
  0
LINE
  8
0
 10
-17.427
 20
94.7634
 11
-17.1869
 21
95.0536
  0
LINE
  8
0
 10
-17.1869
 20
95.0536
 11
-16.9123
 21
95.3116
  0
LINE
  8
0
 10
-16.9123
 20
95.3116
 11
-16.6075
 21
95.533
  0
LINE
  8
0
 10
-16.6075
 20
95.533
 11
-16.2773
 21
95.7145
  0
LINE
  8
0
 10
-16.2773
 20
95.7145
 11
-15.927
 21
95.8532
  0
LINE
  8
0
 10
-15.927
 20
95.8532
 11
-15.5621
 21
95.9469
  0
LINE
  8
0
 10
-15.5621
 20
95.9469
 11
-15.1884
 21
95.9941
  0
LINE
  8
0
 10
-15.1884
 20
95.9941
 11
-14.8116
 21
95.9941
  0
LINE
  8
0
 10
-14.8116
 20
95.9941
 11
-14.4379
 21
95.9469
  0
LINE
  8
0
 10
-14.4379
 20
95.9469
 11
-14.0729
 21
95.8532
  0
LINE
  8
0
 10
-14.0729
 20
95.8532
 11
-13.7227
 21
95.7145
  0
LINE
  8
0
 10
-13.7227
 20
95.7145
 11
-13.3925
 21
95.533
  0
LINE
  8
0
 10
-13.3925
 20
95.533
 11
-13.0877
 21
95.3116
  0
LINE
  8
0
 10
-13.0877
 20
95.3116
 11
-12.8131
 21
95.0536
  0
LINE
  8
0
 10
-12.8131
 20
95.0536
 11
-12.5729
 21
94.7634
  0
LINE
  8
0
 10
-12.5729
 20
94.7634
 11
-12.3711
 21
94.4453
  0
LINE
  8
0
 10
-12.3711
 20
94.4453
 11
-12.2107
 21
94.1044
  0
LINE
  8
0
 10
-12.2107
 20
94.1044
 11
-12.0942
 21
93.7461
  0
LINE
  8
0
 10
-12.0942
 20
93.7461
 11
-12.0237
 21
93.376
  0
LINE
  8
0
 10
-12.0237
 20
93.376
 11
-12
 21
93
  0
LINE
  8
0
 10
-12
 20
93
 11
-12.0237
 21
92.624
  0
LINE
  8
0
 10
-12.0237
 20
92.624
 11
-12.0942
 21
92.2539
  0
LINE
  8
0
 10
-12.0942
 20
92.2539
 11
-12.2107
 21
91.8956
  0
LINE
  8
0
 10
-12.2107
 20
91.8956
 11
-12.3711
 21
91.5547
  0
LINE
  8
0
 10
-12.3711
 20
91.5547
 11
-12.5729
 21
91.2366
  0
LINE
  8
0
 10
-12.5729
 20
91.2366
 11
-12.8131
 21
90.9464
  0
LINE
  8
0
 10
-12.8131
 20
90.9464
 11
-13.0877
 21
90.6885
  0
LINE
  8
0
 10
-13.0877
 20
90.6885
 11
-13.3925
 21
90.467
  0
LINE
  8
0
 10
-13.3925
 20
90.467
 11
-13.7227
 21
90.2855
  0
LINE
  8
0
 10
-13.7227
 20
90.2855
 11
-14.0729
 21
90.1468
  0
LINE
  8
0
 10
-14.0729
 20
90.1468
 11
-14.4379
 21
90.0531
  0
LINE
  8
0
 10
-14.4379
 20
90.0531
 11
-14.8116
 21
90.0059
  0
LINE
  8
0
 10
-14.8116
 20
90.0059
 11
-15.1884
 21
90.0059
  0
LINE
  8
0
 10
14.8116
 20
90.0059
 11
14.4379
 21
90.0531
  0
LINE
  8
0
 10
14.4379
 20
90.0531
 11
14.0729
 21
90.1468
  0
LINE
  8
0
 10
14.0729
 20
90.1468
 11
13.7227
 21
90.2855
  0
LINE
  8
0
 10
13.7227
 20
90.2855
 11
13.3925
 21
90.467
  0
LINE
  8
0
 10
13.3925
 20
90.467
 11
13.0877
 21
90.6885
  0
LINE
  8
0
 10
13.0877
 20
90.6885
 11
12.8131
 21
90.9464
  0
LINE
  8
0
 10
12.8131
 20
90.9464
 11
12.5729
 21
91.2366
  0
LINE
  8
0
 10
12.5729
 20
91.2366
 11
12.3711
 21
91.5547
  0
LINE
  8
0
 10
12.3711
 20
91.5547
 11
12.2107
 21
91.8956
  0
LINE
  8
0
 10
12.2107
 20
91.8956
 11
12.0942
 21
92.2539
  0
LINE
  8
0
 10
12.0942
 20
92.2539
 11
12.0237
 21
92.624
  0
LINE
  8
0
 10
12.0237
 20
92.624
 11
12
 21
93
  0
LINE
  8
0
 10
12
 20
93
 11
12.0237
 21
93.376
  0
LINE
  8
0
 10
12.0237
 20
93.376
 11
12.0942
 21
93.7461
  0
LINE
  8
0
 10
12.0942
 20
93.7461
 11
12.2107
 21
94.1044
  0
LINE
  8
0
 10
12.2107
 20
94.1044
 11
12.3711
 21
94.4453
  0
LINE
  8
0
 10
12.3711
 20
94.4453
 11
12.5729
 21
94.7634
  0
LINE
  8
0
 10
12.5729
 20
94.7634
 11
12.8131
 21
95.0536
  0
LINE
  8
0
 10
12.8131
 20
95.0536
 11
13.0877
 21
95.3116
  0
LINE
  8
0
 10
13.0877
 20
95.3116
 11
13.3925
 21
95.533
  0
LINE
  8
0
 10
13.3925
 20
95.533
 11
13.7227
 21
95.7145
  0
LINE
  8
0
 10
13.7227
 20
95.7145
 11
14.0729
 21
95.8532
  0
LINE
  8
0
 10
14.0729
 20
95.8532
 11
14.4379
 21
95.9469
  0
LINE
  8
0
 10
14.4379
 20
95.9469
 11
14.8116
 21
95.9941
  0
LINE
  8
0
 10
14.8116
 20
95.9941
 11
15.1884
 21
95.9941
  0
LINE
  8
0
 10
15.1884
 20
95.9941
 11
15.5621
 21
95.9469
  0
LINE
  8
0
 10
15.5621
 20
95.9469
 11
15.927
 21
95.8532
  0
LINE
  8
0
 10
15.927
 20
95.8532
 11
16.2773
 21
95.7145
  0
LINE
  8
0
 10
16.2773
 20
95.7145
 11
16.6075
 21
95.533
  0
LINE
  8
0
 10
16.6075
 20
95.533
 11
16.9123
 21
95.3116
  0
LINE
  8
0
 10
16.9123
 20
95.3116
 11
17.1869
 21
95.0536
  0
LINE
  8
0
 10
17.1869
 20
95.0536
 11
17.427
 21
94.7634
  0
LINE
  8
0
 10
17.427
 20
94.7634
 11
17.6289
 21
94.4453
  0
LINE
  8
0
 10
17.6289
 20
94.4453
 11
17.7893
 21
94.1044
  0
LINE
  8
0
 10
17.7893
 20
94.1044
 11
17.9057
 21
93.7461
  0
LINE
  8
0
 10
17.9057
 20
93.7461
 11
17.9763
 21
93.376
  0
LINE
  8
0
 10
17.9763
 20
93.376
 11
18
 21
93
  0
LINE
  8
0
 10
18
 20
93
 11
17.9763
 21
92.624
  0
LINE
  8
0
 10
17.9763
 20
92.624
 11
17.9057
 21
92.2539
  0
LINE
  8
0
 10
17.9057
 20
92.2539
 11
17.7893
 21
91.8956
  0
LINE
  8
0
 10
17.7893
 20
91.8956
 11
17.6289
 21
91.5547
  0
LINE
  8
0
 10
17.6289
 20
91.5547
 11
17.427
 21
91.2366
  0
LINE
  8
0
 10
17.427
 20
91.2366
 11
17.1869
 21
90.9464
  0
LINE
  8
0
 10
17.1869
 20
90.9464
 11
16.9123
 21
90.6885
  0
LINE
  8
0
 10
16.9123
 20
90.6885
 11
16.6075
 21
90.467
  0
LINE
  8
0
 10
16.6075
 20
90.467
 11
16.2773
 21
90.2855
  0
LINE
  8
0
 10
16.2773
 20
90.2855
 11
15.927
 21
90.1468
  0
LINE
  8
0
 10
15.927
 20
90.1468
 11
15.5621
 21
90.0531
  0
LINE
  8
0
 10
15.5621
 20
90.0531
 11
15.1884
 21
90.0059
  0
LINE
  8
0
 10
15.1884
 20
90.0059
 11
14.8116
 21
90.0059
  0
LINE
  8
0
 10
-0.0941772
 20
88.503
 11
-0.281067
 21
88.5266
  0
LINE
  8
0
 10
-0.281067
 20
88.5266
 11
-0.463516
 21
88.5734
  0
LINE
  8
0
 10
-0.463516
 20
88.5734
 11
-0.638657
 21
88.6428
  0
LINE
  8
0
 10
-0.638657
 20
88.6428
 11
-0.803726
 21
88.7335
  0
LINE
  8
0
 10
-0.803726
 20
88.7335
 11
-0.956131
 21
88.8442
  0
LINE
  8
0
 10
-0.956131
 20
88.8442
 11
-1.09344
 21
88.9732
  0
LINE
  8
0
 10
-1.09344
 20
88.9732
 11
-1.21352
 21
89.1183
  0
LINE
  8
0
 10
-1.21352
 20
89.1183
 11
-1.31445
 21
89.2774
  0
LINE
  8
0
 10
-1.31445
 20
89.2774
 11
-1.39465
 21
89.4478
  0
LINE
  8
0
 10
-1.39465
 20
89.4478
 11
-1.45287
 21
89.627
  0
LINE
  8
0
 10
-1.45287
 20
89.627
 11
-1.48816
 21
89.812
  0
LINE
  8
0
 10
-1.48816
 20
89.812
 11
-1.5
 21
90
  0
LINE
  8
0
 10
-1.5
 20
90
 11
-1.48816
 21
90.188
  0
LINE
  8
0
 10
-1.48816
 20
90.188
 11
-1.45287
 21
90.373
  0
LINE
  8
0
 10
-1.45287
 20
90.373
 11
-1.39465
 21
90.5522
  0
LINE
  8
0
 10
-1.39465
 20
90.5522
 11
-1.31445
 21
90.7226
  0
LINE
  8
0
 10
-1.31445
 20
90.7226
 11
-1.21352
 21
90.8817
  0
LINE
  8
0
 10
-1.21352
 20
90.8817
 11
-1.09344
 21
91.0268
  0
LINE
  8
0
 10
-1.09344
 20
91.0268
 11
-0.956131
 21
91.1558
  0
LINE
  8
0
 10
-0.956131
 20
91.1558
 11
-0.803726
 21
91.2665
  0
LINE
  8
0
 10
-0.803726
 20
91.2665
 11
-0.638657
 21
91.3572
  0
LINE
  8
0
 10
-0.638657
 20
91.3572
 11
-0.463516
 21
91.4266
  0
LINE
  8
0
 10
-0.463516
 20
91.4266
 11
-0.281067
 21
91.4734
  0
LINE
  8
0
 10
-0.281067
 20
91.4734
 11
-0.0941772
 21
91.497
  0
LINE
  8
0
 10
-0.0941772
 20
91.497
 11
0.0941772
 21
91.497
  0
LINE
  8
0
 10
0.0941772
 20
91.497
 11
0.281067
 21
91.4734
  0
LINE
  8
0
 10
0.281067
 20
91.4734
 11
0.463516
 21
91.4266
  0
LINE
  8
0
 10
0.463516
 20
91.4266
 11
0.638657
 21
91.3572
  0
LINE
  8
0
 10
0.638657
 20
91.3572
 11
0.803726
 21
91.2665
  0
LINE
  8
0
 10
0.803726
 20
91.2665
 11
0.956131
 21
91.1558
  0
LINE
  8
0
 10
0.956131
 20
91.1558
 11
1.09344
 21
91.0268
  0
LINE
  8
0
 10
1.09344
 20
91.0268
 11
1.21352
 21
90.8817
  0
LINE
  8
0
 10
1.21352
 20
90.8817
 11
1.31445
 21
90.7226
  0
LINE
  8
0
 10
1.31445
 20
90.7226
 11
1.39465
 21
90.5522
  0
LINE
  8
0
 10
1.39465
 20
90.5522
 11
1.45287
 21
90.373
  0
LINE
  8
0
 10
1.45287
 20
90.373
 11
1.48816
 21
90.188
  0
LINE
  8
0
 10
1.48816
 20
90.188
 11
1.5
 21
90
  0
LINE
  8
0
 10
1.5
 20
90
 11
1.48816
 21
89.812
  0
LINE
  8
0
 10
1.48816
 20
89.812
 11
1.45287
 21
89.627
  0
LINE
  8
0
 10
1.45287
 20
89.627
 11
1.39465
 21
89.4478
  0
LINE
  8
0
 10
1.39465
 20
89.4478
 11
1.31445
 21
89.2774
  0
LINE
  8
0
 10
1.31445
 20
89.2774
 11
1.21352
 21
89.1183
  0
LINE
  8
0
 10
1.21352
 20
89.1183
 11
1.09344
 21
88.9732
  0
LINE
  8
0
 10
1.09344
 20
88.9732
 11
0.956131
 21
88.8442
  0
LINE
  8
0
 10
0.956131
 20
88.8442
 11
0.803726
 21
88.7335
  0
LINE
  8
0
 10
0.803726
 20
88.7335
 11
0.638657
 21
88.6428
  0
LINE
  8
0
 10
0.638657
 20
88.6428
 11
0.463516
 21
88.5734
  0
LINE
  8
0
 10
0.463516
 20
88.5734
 11
0.281067
 21
88.5266
  0
LINE
  8
0
 10
0.281067
 20
88.5266
 11
0.0941772
 21
88.503
  0
LINE
  8
0
 10
0.0941772
 20
88.503
 11
-0.0941772
 21
88.503
  0
LINE
  8
0
 10
1.87381
 20
98.1771
 11
3.09016
 21
98.4894
  0
LINE
  8
0
 10
3.09016
 20
98.4894
 11
4.25778
 21
98.9517
  0
LINE
  8
0
 10
4.25778
 20
98.9517
 11
5.35826
 21
99.5567
  0
LINE
  8
0
 10
5.35826
 20
99.5567
 11
6.37424
 21
100.295
  0
LINE
  8
0
 10
6.37424
 20
100.295
 11
7.28967
 21
101.155
  0
LINE
  8
0
 10
7.28967
 20
101.155
 11
8.09016
 21
102.122
  0
LINE
  8
0
 10
8.09016
 20
102.122
 11
8.76306
 21
103.182
  0
LINE
  8
0
 10
8.76306
 20
103.182
 11
9.29776
 21
104.319
  0
LINE
  8
0
 10
9.29776
 20
104.319
 11
9.68582
 21
105.513
  0
LINE
  8
0
 10
9.68582
 20
105.513
 11
9.92114
 21
106.747
  0
LINE
  8
0
 10
9.92114
 20
106.747
 11
10
 21
108
  0
LINE
  8
0
 10
10
 20
108
 11
9
 21
108
  0
LINE
  8
0
 10
9
 20
108
 11
8.98816
 21
107.812
  0
LINE
  8
0
 10
8.98816
 20
107.812
 11
8.95287
 21
107.627
  0
LINE
  8
0
 10
8.95287
 20
107.627
 11
8.89465
 21
107.448
  0
LINE
  8
0
 10
8.89465
 20
107.448
 11
8.81445
 21
107.277
  0
LINE
  8
0
 10
8.81445
 20
107.277
 11
8.71352
 21
107.118
  0
LINE
  8
0
 10
8.71352
 20
107.118
 11
8.59344
 21
106.973
  0
LINE
  8
0
 10
8.59344
 20
106.973
 11
8.45613
 21
106.844
  0
LINE
  8
0
 10
8.45613
 20
106.844
 11
8.30373
 21
106.734
  0
LINE
  8
0
 10
8.30373
 20
106.734
 11
8.13866
 21
106.643
  0
LINE
  8
0
 10
8.13866
 20
106.643
 11
7.96352
 21
106.573
  0
LINE
  8
0
 10
7.96352
 20
106.573
 11
7.78107
 21
106.527
  0
LINE
  8
0
 10
7.78107
 20
106.527
 11
7.59418
 21
106.503
  0
LINE
  8
0
 10
7.59418
 20
106.503
 11
7.40581
 21
106.503
  0
LINE
  8
0
 10
7.40581
 20
106.503
 11
7.21892
 21
106.527
  0
LINE
  8
0
 10
7.21892
 20
106.527
 11
7.03647
 21
106.573
  0
LINE
  8
0
 10
7.03647
 20
106.573
 11
6.86133
 21
106.643
  0
LINE
  8
0
 10
6.86133
 20
106.643
 11
6.69626
 21
106.734
  0
LINE
  8
0
 10
6.69626
 20
106.734
 11
6.54385
 21
106.844
  0
LINE
  8
0
 10
6.54385
 20
106.844
 11
6.40654
 21
106.973
  0
LINE
  8
0
 10
6.40654
 20
106.973
 11
6.28647
 21
107.118
  0
LINE
  8
0
 10
6.28647
 20
107.118
 11
6.18553
 21
107.277
  0
LINE
  8
0
 10
6.18553
 20
107.277
 11
6.10533
 21
107.448
  0
LINE
  8
0
 10
6.10533
 20
107.448
 11
6.04712
 21
107.627
  0
LINE
  8
0
 10
6.04712
 20
107.627
 11
6.01183
 21
107.812
  0
LINE
  8
0
 10
6.01183
 20
107.812
 11
6
 21
108
  0
LINE
  8
0
 10
6
 20
108
 11
3
 21
108
  0
LINE
  8
0
 10
3
 20
108
 11
2.97633
 21
107.624
  0
LINE
  8
0
 10
2.97633
 20
107.624
 11
2.90575
 21
107.254
  0
LINE
  8
0
 10
2.90575
 20
107.254
 11
2.78932
 21
106.896
  0
LINE
  8
0
 10
2.78932
 20
106.896
 11
2.62891
 21
106.555
  0
LINE
  8
0
 10
2.62891
 20
106.555
 11
2.42705
 21
106.237
  0
LINE
  8
0
 10
2.42705
 20
106.237
 11
2.1869
 21
105.946
  0
LINE
  8
0
 10
2.1869
 20
105.946
 11
1.91226
 21
105.688
  0
LINE
  8
0
 10
1.91226
 20
105.688
 11
1.60747
 21
105.467
  0
LINE
  8
0
 10
1.60747
 20
105.467
 11
1.27733
 21
105.286
  0
LINE
  8
0
 10
1.27733
 20
105.286
 11
0.927048
 21
105.147
  0
LINE
  8
0
 10
0.927048
 20
105.147
 11
0.562134
 21
105.053
  0
LINE
  8
0
 10
0.562134
 20
105.053
 11
0.18837
 21
105.006
  0
LINE
  8
0
 10
0.18837
 20
105.006
 11
-0.18837
 21
105.006
  0
LINE
  8
0
 10
-0.18837
 20
105.006
 11
-0.562134
 21
105.053
  0
LINE
  8
0
 10
-0.562134
 20
105.053
 11
-0.927048
 21
105.147
  0
LINE
  8
0
 10
-0.927048
 20
105.147
 11
-1.27733
 21
105.286
  0
LINE
  8
0
 10
-1.27733
 20
105.286
 11
-1.60747
 21
105.467
  0
LINE
  8
0
 10
-1.60747
 20
105.467
 11
-1.91226
 21
105.688
  0
LINE
  8
0
 10
-1.91226
 20
105.688
 11
-2.1869
 21
105.946
  0
LINE
  8
0
 10
-2.1869
 20
105.946
 11
-2.42705
 21
106.237
  0
LINE
  8
0
 10
-2.42705
 20
106.237
 11
-2.62891
 21
106.555
  0
LINE
  8
0
 10
-2.62891
 20
106.555
 11
-2.78932
 21
106.896
  0
LINE
  8
0
 10
-2.78932
 20
106.896
 11
-2.90575
 21
107.254
  0
LINE
  8
0
 10
-2.90575
 20
107.254
 11
-2.97633
 21
107.624
  0
LINE
  8
0
 10
-2.97633
 20
107.624
 11
-3
 21
108
  0
LINE
  8
0
 10
-3
 20
108
 11
-2.97633
 21
108.376
  0
LINE
  8
0
 10
-2.97633
 20
108.376
 11
-2.90575
 21
108.746
  0
LINE
  8
0
 10
-2.90575
 20
108.746
 11
-2.78932
 21
109.104
  0
LINE
  8
0
 10
-2.78932
 20
109.104
 11
-2.62891
 21
109.445
  0
LINE
  8
0
 10
-2.62891
 20
109.445
 11
-2.42705
 21
109.763
  0
LINE
  8
0
 10
-2.42705
 20
109.763
 11
-2.1869
 21
110.054
  0
LINE
  8
0
 10
-2.1869
 20
110.054
 11
-1.91226
 21
110.312
  0
LINE
  8
0
 10
-1.91226
 20
110.312
 11
-1.60747
 21
110.533
  0
LINE
  8
0
 10
-1.60747
 20
110.533
 11
-1.27733
 21
110.714
  0
LINE
  8
0
 10
-1.27733
 20
110.714
 11
-0.927048
 21
110.853
  0
LINE
  8
0
 10
-0.927048
 20
110.853
 11
-0.562134
 21
110.947
  0
LINE
  8
0
 10
-0.562134
 20
110.947
 11
-0.18837
 21
110.994
  0
LINE
  8
0
 10
-0.18837
 20
110.994
 11
0
 21
110.994
  0
LINE
  8
0
 10
0
 20
110.994
 11
0
 21
114.003
  0
LINE
  8
0
 10
0
 20
114.003
 11
-0.0941772
 21
114.003
  0
LINE
  8
0
 10
-0.0941772
 20
114.003
 11
-0.281067
 21
114.027
  0
LINE
  8
0
 10
-0.281067
 20
114.027
 11
-0.463516
 21
114.073
  0
LINE
  8
0
 10
-0.463516
 20
114.073
 11
-0.638657
 21
114.143
  0
LINE
  8
0
 10
-0.638657
 20
114.143
 11
-0.803726
 21
114.234
  0
LINE
  8
0
 10
-0.803726
 20
114.234
 11
-0.956131
 21
114.344
  0
LINE
  8
0
 10
-0.956131
 20
114.344
 11
-1.09344
 21
114.473
  0
LINE
  8
0
 10
-1.09344
 20
114.473
 11
-1.21352
 21
114.618
  0
LINE
  8
0
 10
-1.21352
 20
114.618
 11
-1.31445
 21
114.777
  0
LINE
  8
0
 10
-1.31445
 20
114.777
 11
-1.39465
 21
114.948
  0
LINE
  8
0
 10
-1.39465
 20
114.948
 11
-1.45287
 21
115.127
  0
LINE
  8
0
 10
-1.45287
 20
115.127
 11
-1.48816
 21
115.312
  0
LINE
  8
0
 10
-1.48816
 20
115.312
 11
-1.5
 21
115.5
  0
LINE
  8
0
 10
-1.5
 20
115.5
 11
-1.48816
 21
115.688
  0
LINE
  8
0
 10
-1.48816
 20
115.688
 11
-1.45287
 21
115.873
  0
LINE
  8
0
 10
-1.45287
 20
115.873
 11
-1.39465
 21
116.052
  0
LINE
  8
0
 10
-1.39465
 20
116.052
 11
-1.31445
 21
116.223
  0
LINE
  8
0
 10
-1.31445
 20
116.223
 11
-1.21352
 21
116.382
  0
LINE
  8
0
 10
-1.21352
 20
116.382
 11
-1.09344
 21
116.527
  0
LINE
  8
0
 10
-1.09344
 20
116.527
 11
-0.956131
 21
116.656
  0
LINE
  8
0
 10
-0.956131
 20
116.656
 11
-0.803726
 21
116.766
  0
LINE
  8
0
 10
-0.803726
 20
116.766
 11
-0.638657
 21
116.857
  0
LINE
  8
0
 10
-0.638657
 20
116.857
 11
-0.463516
 21
116.927
  0
LINE
  8
0
 10
-0.463516
 20
116.927
 11
-0.281067
 21
116.973
  0
LINE
  8
0
 10
-0.281067
 20
116.973
 11
-0.0941772
 21
116.997
  0
LINE
  8
0
 10
-0.0941772
 20
116.997
 11
0
 21
116.997
  0
LINE
  8
0
 10
0
 20
116.997
 11
0
 21
117.98
  0
LINE
  8
0
 10
0
 20
117.98
 11
-0.627899
 21
117.98
  0
LINE
  8
0
 10
-0.627899
 20
117.98
 11
-1.87381
 21
117.823
  0
LINE
  8
0
 10
-1.87381
 20
117.823
 11
-3.09016
 21
117.511
  0
LINE
  8
0
 10
-3.09016
 20
117.511
 11
-4.25778
 21
117.048
  0
LINE
  8
0
 10
-4.25778
 20
117.048
 11
-5.35826
 21
116.443
  0
LINE
  8
0
 10
-5.35826
 20
116.443
 11
-6.37424
 21
115.705
  0
LINE
  8
0
 10
-6.37424
 20
115.705
 11
-7.28967
 21
114.845
  0
LINE
  8
0
 10
-7.28967
 20
114.845
 11
-8.09016
 21
113.878
  0
LINE
  8
0
 10
-8.09016
 20
113.878
 11
-8.76306
 21
112.818
  0
LINE
  8
0
 10
-8.76306
 20
112.818
 11
-9.29776
 21
111.681
  0
LINE
  8
0
 10
-9.29776
 20
111.681
 11
-9.68582
 21
110.487
  0
LINE
  8
0
 10
-9.68582
 20
110.487
 11
-9.92114
 21
109.253
  0
LINE
  8
0
 10
-9.92114
 20
109.253
 11
-10
 21
108
  0
LINE
  8
0
 10
-10
 20
108
 11
-9.92114
 21
106.747
  0
LINE
  8
0
 10
-9.92114
 20
106.747
 11
-9.68582
 21
105.513
  0
LINE
  8
0
 10
-9.68582
 20
105.513
 11
-9.29776
 21
104.319
  0
LINE
  8
0
 10
-9.29776
 20
104.319
 11
-8.76306
 21
103.182
  0
LINE
  8
0
 10
-8.76306
 20
103.182
 11
-8.09016
 21
102.122
  0
LINE
  8
0
 10
-8.09016
 20
102.122
 11
-7.28967
 21
101.155
  0
LINE
  8
0
 10
-7.28967
 20
101.155
 11
-6.37424
 21
100.295
  0
LINE
  8
0
 10
-6.37424
 20
100.295
 11
-5.35826
 21
99.5567
  0
LINE
  8
0
 10
-5.35826
 20
99.5567
 11
-4.25778
 21
98.9517
  0
LINE
  8
0
 10
-4.25778
 20
98.9517
 11
-3.09016
 21
98.4894
  0
LINE
  8
0
 10
-3.09016
 20
98.4894
 11
-1.87381
 21
98.1771
  0
LINE
  8
0
 10
-1.87381
 20
98.1771
 11
-0.627899
 21
98.0197
  0
LINE
  8
0
 10
-0.627899
 20
98.0197
 11
0.627899
 21
98.0197
  0
LINE
  8
0
 10
0.627899
 20
98.0197
 11
1.87381
 21
98.1771
  0
LINE
  8
0
 10
-7.59418
 20
106.503
 11
-7.78107
 21
106.527
  0
LINE
  8
0
 10
-7.78107
 20
106.527
 11
-7.96352
 21
106.573
  0
LINE
  8
0
 10
-7.96352
 20
106.573
 11
-8.13866
 21
106.643
  0
LINE
  8
0
 10
-8.13866
 20
106.643
 11
-8.30373
 21
106.734
  0
LINE
  8
0
 10
-8.30373
 20
106.734
 11
-8.45613
 21
106.844
  0
LINE
  8
0
 10
-8.45613
 20
106.844
 11
-8.59344
 21
106.973
  0
LINE
  8
0
 10
-8.59344
 20
106.973
 11
-8.71352
 21
107.118
  0
LINE
  8
0
 10
-8.71352
 20
107.118
 11
-8.81445
 21
107.277
  0
LINE
  8
0
 10
-8.81445
 20
107.277
 11
-8.89465
 21
107.448
  0
LINE
  8
0
 10
-8.89465
 20
107.448
 11
-8.95287
 21
107.627
  0
LINE
  8
0
 10
-8.95287
 20
107.627
 11
-8.98816
 21
107.812
  0
LINE
  8
0
 10
-8.98816
 20
107.812
 11
-9
 21
108
  0
LINE
  8
0
 10
-9
 20
108
 11
-8.98816
 21
108.188
  0
LINE
  8
0
 10
-8.98816
 20
108.188
 11
-8.95287
 21
108.373
  0
LINE
  8
0
 10
-8.95287
 20
108.373
 11
-8.89465
 21
108.552
  0
LINE
  8
0
 10
-8.89465
 20
108.552
 11
-8.81445
 21
108.723
  0
LINE
  8
0
 10
-8.81445
 20
108.723
 11
-8.71352
 21
108.882
  0
LINE
  8
0
 10
-8.71352
 20
108.882
 11
-8.59344
 21
109.027
  0
LINE
  8
0
 10
-8.59344
 20
109.027
 11
-8.45613
 21
109.156
  0
LINE
  8
0
 10
-8.45613
 20
109.156
 11
-8.30373
 21
109.266
  0
LINE
  8
0
 10
-8.30373
 20
109.266
 11
-8.13866
 21
109.357
  0
LINE
  8
0
 10
-8.13866
 20
109.357
 11
-7.96352
 21
109.427
  0
LINE
  8
0
 10
-7.96352
 20
109.427
 11
-7.78107
 21
109.473
  0
LINE
  8
0
 10
-7.78107
 20
109.473
 11
-7.59418
 21
109.497
  0
LINE
  8
0
 10
-7.59418
 20
109.497
 11
-7.40581
 21
109.497
  0
LINE
  8
0
 10
-7.40581
 20
109.497
 11
-7.21892
 21
109.473
  0
LINE
  8
0
 10
-7.21892
 20
109.473
 11
-7.03647
 21
109.427
  0
LINE
  8
0
 10
-7.03647
 20
109.427
 11
-6.86133
 21
109.357
  0
LINE
  8
0
 10
-6.86133
 20
109.357
 11
-6.69626
 21
109.266
  0
LINE
  8
0
 10
-6.69626
 20
109.266
 11
-6.54385
 21
109.156
  0
LINE
  8
0
 10
-6.54385
 20
109.156
 11
-6.40654
 21
109.027
  0
LINE
  8
0
 10
-6.40654
 20
109.027
 11
-6.28647
 21
108.882
  0
LINE
  8
0
 10
-6.28647
 20
108.882
 11
-6.18553
 21
108.723
  0
LINE
  8
0
 10
-6.18553
 20
108.723
 11
-6.10533
 21
108.552
  0
LINE
  8
0
 10
-6.10533
 20
108.552
 11
-6.04712
 21
108.373
  0
LINE
  8
0
 10
-6.04712
 20
108.373
 11
-6.01183
 21
108.188
  0
LINE
  8
0
 10
-6.01183
 20
108.188
 11
-6
 21
108
  0
LINE
  8
0
 10
-6
 20
108
 11
-6.01183
 21
107.812
  0
LINE
  8
0
 10
-6.01183
 20
107.812
 11
-6.04712
 21
107.627
  0
LINE
  8
0
 10
-6.04712
 20
107.627
 11
-6.10533
 21
107.448
  0
LINE
  8
0
 10
-6.10533
 20
107.448
 11
-6.18553
 21
107.277
  0
LINE
  8
0
 10
-6.18553
 20
107.277
 11
-6.28647
 21
107.118
  0
LINE
  8
0
 10
-6.28647
 20
107.118
 11
-6.40654
 21
106.973
  0
LINE
  8
0
 10
-6.40654
 20
106.973
 11
-6.54385
 21
106.844
  0
LINE
  8
0
 10
-6.54385
 20
106.844
 11
-6.69626
 21
106.734
  0
LINE
  8
0
 10
-6.69626
 20
106.734
 11
-6.86133
 21
106.643
  0
LINE
  8
0
 10
-6.86133
 20
106.643
 11
-7.03647
 21
106.573
  0
LINE
  8
0
 10
-7.03647
 20
106.573
 11
-7.21892
 21
106.527
  0
LINE
  8
0
 10
-7.21892
 20
106.527
 11
-7.40581
 21
106.503
  0
LINE
  8
0
 10
-7.40581
 20
106.503
 11
-7.59418
 21
106.503
  0
LINE
  8
0
 10
-0.0941772
 20
99.003
 11
-0.281067
 21
99.0266
  0
LINE
  8
0
 10
-0.281067
 20
99.0266
 11
-0.463516
 21
99.0734
  0
LINE
  8
0
 10
-0.463516
 20
99.0734
 11
-0.638657
 21
99.1428
  0
LINE
  8
0
 10
-0.638657
 20
99.1428
 11
-0.803726
 21
99.2335
  0
LINE
  8
0
 10
-0.803726
 20
99.2335
 11
-0.956131
 21
99.3442
  0
LINE
  8
0
 10
-0.956131
 20
99.3442
 11
-1.09344
 21
99.4732
  0
LINE
  8
0
 10
-1.09344
 20
99.4732
 11
-1.21352
 21
99.6183
  0
LINE
  8
0
 10
-1.21352
 20
99.6183
 11
-1.31445
 21
99.7774
  0
LINE
  8
0
 10
-1.31445
 20
99.7774
 11
-1.39465
 21
99.9478
  0
LINE
  8
0
 10
-1.39465
 20
99.9478
 11
-1.45287
 21
100.127
  0
LINE
  8
0
 10
-1.45287
 20
100.127
 11
-1.48816
 21
100.312
  0
LINE
  8
0
 10
-1.48816
 20
100.312
 11
-1.5
 21
100.5
  0
LINE
  8
0
 10
-1.5
 20
100.5
 11
-1.48816
 21
100.688
  0
LINE
  8
0
 10
-1.48816
 20
100.688
 11
-1.45287
 21
100.873
  0
LINE
  8
0
 10
-1.45287
 20
100.873
 11
-1.39465
 21
101.052
  0
LINE
  8
0
 10
-1.39465
 20
101.052
 11
-1.31445
 21
101.223
  0
LINE
  8
0
 10
-1.31445
 20
101.223
 11
-1.21352
 21
101.382
  0
LINE
  8
0
 10
-1.21352
 20
101.382
 11
-1.09344
 21
101.527
  0
LINE
  8
0
 10
-1.09344
 20
101.527
 11
-0.956131
 21
101.656
  0
LINE
  8
0
 10
-0.956131
 20
101.656
 11
-0.803726
 21
101.766
  0
LINE
  8
0
 10
-0.803726
 20
101.766
 11
-0.638657
 21
101.857
  0
LINE
  8
0
 10
-0.638657
 20
101.857
 11
-0.463516
 21
101.927
  0
LINE
  8
0
 10
-0.463516
 20
101.927
 11
-0.281067
 21
101.973
  0
LINE
  8
0
 10
-0.281067
 20
101.973
 11
-0.0941772
 21
101.997
  0
LINE
  8
0
 10
-0.0941772
 20
101.997
 11
0.0941772
 21
101.997
  0
LINE
  8
0
 10
0.0941772
 20
101.997
 11
0.281067
 21
101.973
  0
LINE
  8
0
 10
0.281067
 20
101.973
 11
0.463516
 21
101.927
  0
LINE
  8
0
 10
0.463516
 20
101.927
 11
0.638657
 21
101.857
  0
LINE
  8
0
 10
0.638657
 20
101.857
 11
0.803726
 21
101.766
  0
LINE
  8
0
 10
0.803726
 20
101.766
 11
0.956131
 21
101.656
  0
LINE
  8
0
 10
0.956131
 20
101.656
 11
1.09344
 21
101.527
  0
LINE
  8
0
 10
1.09344
 20
101.527
 11
1.21352
 21
101.382
  0
LINE
  8
0
 10
1.21352
 20
101.382
 11
1.31445
 21
101.223
  0
LINE
  8
0
 10
1.31445
 20
101.223
 11
1.39465
 21
101.052
  0
LINE
  8
0
 10
1.39465
 20
101.052
 11
1.45287
 21
100.873
  0
LINE
  8
0
 10
1.45287
 20
100.873
 11
1.48816
 21
100.688
  0
LINE
  8
0
 10
1.48816
 20
100.688
 11
1.5
 21
100.5
  0
LINE
  8
0
 10
1.5
 20
100.5
 11
1.48816
 21
100.312
  0
LINE
  8
0
 10
1.48816
 20
100.312
 11
1.45287
 21
100.127
  0
LINE
  8
0
 10
1.45287
 20
100.127
 11
1.39465
 21
99.9478
  0
LINE
  8
0
 10
1.39465
 20
99.9478
 11
1.31445
 21
99.7774
  0
LINE
  8
0
 10
1.31445
 20
99.7774
 11
1.21352
 21
99.6183
  0
LINE
  8
0
 10
1.21352
 20
99.6183
 11
1.09344
 21
99.4732
  0
LINE
  8
0
 10
1.09344
 20
99.4732
 11
0.956131
 21
99.3442
  0
LINE
  8
0
 10
0.956131
 20
99.3442
 11
0.803726
 21
99.2335
  0
LINE
  8
0
 10
0.803726
 20
99.2335
 11
0.638657
 21
99.1428
  0
LINE
  8
0
 10
0.638657
 20
99.1428
 11
0.463516
 21
99.0734
  0
LINE
  8
0
 10
0.463516
 20
99.0734
 11
0.281067
 21
99.0266
  0
LINE
  8
0
 10
0.281067
 20
99.0266
 11
0.0941772
 21
99.003
  0
LINE
  8
0
 10
0.0941772
 20
99.003
 11
-0.0941772
 21
99.003
  0
LINE
  8
0
 10
18.4369
 20
31.5886
 11
19.0451
 21
31.7447
  0
LINE
  8
0
 10
19.0451
 20
31.7447
 11
19.6289
 21
31.9759
  0
LINE
  8
0
 10
19.6289
 20
31.9759
 11
20.1791
 21
32.2784
  0
LINE
  8
0
 10
20.1791
 20
32.2784
 11
20.6871
 21
32.6474
  0
LINE
  8
0
 10
20.6871
 20
32.6474
 11
21.1448
 21
33.0773
  0
LINE
  8
0
 10
21.1448
 20
33.0773
 11
21.5451
 21
33.5611
  0
LINE
  8
0
 10
21.5451
 20
33.5611
 11
21.8815
 21
34.0912
  0
LINE
  8
0
 10
21.8815
 20
34.0912
 11
22.1489
 21
34.6594
  0
LINE
  8
0
 10
22.1489
 20
34.6594
 11
22.3429
 21
35.2566
  0
LINE
  8
0
 10
22.3429
 20
35.2566
 11
22.4606
 21
35.8733
  0
LINE
  8
0
 10
22.4606
 20
35.8733
 11
22.5
 21
36.5
  0
LINE
  8
0
 10
22.5
 20
36.5
 11
22.5
 21
71.5
  0
LINE
  8
0
 10
22.5
 20
71.5
 11
22.4606
 21
72.1267
  0
LINE
  8
0
 10
22.4606
 20
72.1267
 11
22.3429
 21
72.7434
  0
LINE
  8
0
 10
22.3429
 20
72.7434
 11
22.1489
 21
73.3406
  0
LINE
  8
0
 10
22.1489
 20
73.3406
 11
21.8815
 21
73.9088
  0
LINE
  8
0
 10
21.8815
 20
73.9088
 11
21.5451
 21
74.4389
  0
LINE
  8
0
 10
21.5451
 20
74.4389
 11
21.1448
 21
74.9227
  0
LINE
  8
0
 10
21.1448
 20
74.9227
 11
20.6871
 21
75.3526
  0
LINE
  8
0
 10
20.6871
 20
75.3526
 11
20.1791
 21
75.7216
  0
LINE
  8
0
 10
20.1791
 20
75.7216
 11
19.6289
 21
76.0241
  0
LINE
  8
0
 10
19.6289
 20
76.0241
 11
19.0451
 21
76.2553
  0
LINE
  8
0
 10
19.0451
 20
76.2553
 11
18.4369
 21
76.4114
  0
LINE
  8
0
 10
18.4369
 20
76.4114
 11
17.8139
 21
76.4901
  0
LINE
  8
0
 10
17.8139
 20
76.4901
 11
-17.8139
 21
76.4901
  0
LINE
  8
0
 10
-17.8139
 20
76.4901
 11
-18.4369
 21
76.4114
  0
LINE
  8
0
 10
-18.4369
 20
76.4114
 11
-19.0451
 21
76.2553
  0
LINE
  8
0
 10
-19.0451
 20
76.2553
 11
-19.6289
 21
76.0241
  0
LINE
  8
0
 10
-19.6289
 20
76.0241
 11
-20.1791
 21
75.7216
  0
LINE
  8
0
 10
-20.1791
 20
75.7216
 11
-20.6871
 21
75.3526
  0
LINE
  8
0
 10
-20.6871
 20
75.3526
 11
-21.1448
 21
74.9227
  0
LINE
  8
0
 10
-21.1448
 20
74.9227
 11
-21.5451
 21
74.4389
  0
LINE
  8
0
 10
-21.5451
 20
74.4389
 11
-21.8815
 21
73.9088
  0
LINE
  8
0
 10
-21.8815
 20
73.9088
 11
-22.1489
 21
73.3406
  0
LINE
  8
0
 10
-22.1489
 20
73.3406
 11
-22.3429
 21
72.7434
  0
LINE
  8
0
 10
-22.3429
 20
72.7434
 11
-22.4606
 21
72.1267
  0
LINE
  8
0
 10
-22.4606
 20
72.1267
 11
-22.5
 21
71.5
  0
LINE
  8
0
 10
-22.5
 20
71.5
 11
-22.5
 21
36.5
  0
LINE
  8
0
 10
-22.5
 20
36.5
 11
-22.4606
 21
35.8733
  0
LINE
  8
0
 10
-22.4606
 20
35.8733
 11
-22.3429
 21
35.2566
  0
LINE
  8
0
 10
-22.3429
 20
35.2566
 11
-22.1489
 21
34.6594
  0
LINE
  8
0
 10
-22.1489
 20
34.6594
 11
-21.8815
 21
34.0912
  0
LINE
  8
0
 10
-21.8815
 20
34.0912
 11
-21.5451
 21
33.5611
  0
LINE
  8
0
 10
-21.5451
 20
33.5611
 11
-21.1448
 21
33.0773
  0
LINE
  8
0
 10
-21.1448
 20
33.0773
 11
-20.6871
 21
32.6474
  0
LINE
  8
0
 10
-20.6871
 20
32.6474
 11
-20.1791
 21
32.2784
  0
LINE
  8
0
 10
-20.1791
 20
32.2784
 11
-19.6289
 21
31.9759
  0
LINE
  8
0
 10
-19.6289
 20
31.9759
 11
-19.0451
 21
31.7447
  0
LINE
  8
0
 10
-19.0451
 20
31.7447
 11
-18.4369
 21
31.5886
  0
LINE
  8
0
 10
-18.4369
 20
31.5886
 11
-17.8139
 21
31.5099
  0
LINE
  8
0
 10
-17.8139
 20
31.5099
 11
17.8139
 21
31.5099
  0
LINE
  8
0
 10
17.8139
 20
31.5099
 11
18.4369
 21
31.5886
  0
LINE
  8
0
 10
-0.0941772
 20
70.503
 11
-0.281067
 21
70.5266
  0
LINE
  8
0
 10
-0.281067
 20
70.5266
 11
-0.463516
 21
70.5734
  0
LINE
  8
0
 10
-0.463516
 20
70.5734
 11
-0.638657
 21
70.6428
  0
LINE
  8
0
 10
-0.638657
 20
70.6428
 11
-0.803726
 21
70.7335
  0
LINE
  8
0
 10
-0.803726
 20
70.7335
 11
-0.956131
 21
70.8442
  0
LINE
  8
0
 10
-0.956131
 20
70.8442
 11
-1.09344
 21
70.9732
  0
LINE
  8
0
 10
-1.09344
 20
70.9732
 11
-1.21352
 21
71.1183
  0
LINE
  8
0
 10
-1.21352
 20
71.1183
 11
-1.31445
 21
71.2774
  0
LINE
  8
0
 10
-1.31445
 20
71.2774
 11
-1.39465
 21
71.4478
  0
LINE
  8
0
 10
-1.39465
 20
71.4478
 11
-1.45287
 21
71.627
  0
LINE
  8
0
 10
-1.45287
 20
71.627
 11
-1.48816
 21
71.812
  0
LINE
  8
0
 10
-1.48816
 20
71.812
 11
-1.5
 21
72
  0
LINE
  8
0
 10
-1.5
 20
72
 11
-1.48816
 21
72.188
  0
LINE
  8
0
 10
-1.48816
 20
72.188
 11
-1.45287
 21
72.373
  0
LINE
  8
0
 10
-1.45287
 20
72.373
 11
-1.39465
 21
72.5522
  0
LINE
  8
0
 10
-1.39465
 20
72.5522
 11
-1.31445
 21
72.7226
  0
LINE
  8
0
 10
-1.31445
 20
72.7226
 11
-1.21352
 21
72.8817
  0
LINE
  8
0
 10
-1.21352
 20
72.8817
 11
-1.09344
 21
73.0268
  0
LINE
  8
0
 10
-1.09344
 20
73.0268
 11
-0.956131
 21
73.1558
  0
LINE
  8
0
 10
-0.956131
 20
73.1558
 11
-0.803726
 21
73.2665
  0
LINE
  8
0
 10
-0.803726
 20
73.2665
 11
-0.638657
 21
73.3572
  0
LINE
  8
0
 10
-0.638657
 20
73.3572
 11
-0.463516
 21
73.4266
  0
LINE
  8
0
 10
-0.463516
 20
73.4266
 11
-0.281067
 21
73.4734
  0
LINE
  8
0
 10
-0.281067
 20
73.4734
 11
-0.0941772
 21
73.497
  0
LINE
  8
0
 10
-0.0941772
 20
73.497
 11
0.0941772
 21
73.497
  0
LINE
  8
0
 10
0.0941772
 20
73.497
 11
0.281067
 21
73.4734
  0
LINE
  8
0
 10
0.281067
 20
73.4734
 11
0.463516
 21
73.4266
  0
LINE
  8
0
 10
0.463516
 20
73.4266
 11
0.638657
 21
73.3572
  0
LINE
  8
0
 10
0.638657
 20
73.3572
 11
0.803726
 21
73.2665
  0
LINE
  8
0
 10
0.803726
 20
73.2665
 11
0.956131
 21
73.1558
  0
LINE
  8
0
 10
0.956131
 20
73.1558
 11
1.09344
 21
73.0268
  0
LINE
  8
0
 10
1.09344
 20
73.0268
 11
1.21352
 21
72.8817
  0
LINE
  8
0
 10
1.21352
 20
72.8817
 11
1.31445
 21
72.7226
  0
LINE
  8
0
 10
1.31445
 20
72.7226
 11
1.39465
 21
72.5522
  0
LINE
  8
0
 10
1.39465
 20
72.5522
 11
1.45287
 21
72.373
  0
LINE
  8
0
 10
1.45287
 20
72.373
 11
1.48816
 21
72.188
  0
LINE
  8
0
 10
1.48816
 20
72.188
 11
1.5
 21
72
  0
LINE
  8
0
 10
1.5
 20
72
 11
1.48816
 21
71.812
  0
LINE
  8
0
 10
1.48816
 20
71.812
 11
1.45287
 21
71.627
  0
LINE
  8
0
 10
1.45287
 20
71.627
 11
1.39465
 21
71.4478
  0
LINE
  8
0
 10
1.39465
 20
71.4478
 11
1.31445
 21
71.2774
  0
LINE
  8
0
 10
1.31445
 20
71.2774
 11
1.21352
 21
71.1183
  0
LINE
  8
0
 10
1.21352
 20
71.1183
 11
1.09344
 21
70.9732
  0
LINE
  8
0
 10
1.09344
 20
70.9732
 11
0.956131
 21
70.8442
  0
LINE
  8
0
 10
0.956131
 20
70.8442
 11
0.803726
 21
70.7335
  0
LINE
  8
0
 10
0.803726
 20
70.7335
 11
0.638657
 21
70.6428
  0
LINE
  8
0
 10
0.638657
 20
70.6428
 11
0.463516
 21
70.5734
  0
LINE
  8
0
 10
0.463516
 20
70.5734
 11
0.281067
 21
70.5266
  0
LINE
  8
0
 10
0.281067
 20
70.5266
 11
0.0941772
 21
70.503
  0
LINE
  8
0
 10
0.0941772
 20
70.503
 11
-0.0941772
 21
70.503
  0
LINE
  8
0
 10
14.8116
 20
66.0059
 11
14.4379
 21
66.0531
  0
LINE
  8
0
 10
14.4379
 20
66.0531
 11
14.0729
 21
66.1468
  0
LINE
  8
0
 10
14.0729
 20
66.1468
 11
13.7227
 21
66.2855
  0
LINE
  8
0
 10
13.7227
 20
66.2855
 11
13.3925
 21
66.467
  0
LINE
  8
0
 10
13.3925
 20
66.467
 11
13.0877
 21
66.6884
  0
LINE
  8
0
 10
13.0877
 20
66.6884
 11
12.8131
 21
66.9464
  0
LINE
  8
0
 10
12.8131
 20
66.9464
 11
12.5729
 21
67.2366
  0
LINE
  8
0
 10
12.5729
 20
67.2366
 11
12.3711
 21
67.5547
  0
LINE
  8
0
 10
12.3711
 20
67.5547
 11
12.2107
 21
67.8956
  0
LINE
  8
0
 10
12.2107
 20
67.8956
 11
12.0942
 21
68.2539
  0
LINE
  8
0
 10
12.0942
 20
68.2539
 11
12.0237
 21
68.624
  0
LINE
  8
0
 10
12.0237
 20
68.624
 11
12
 21
69
  0
LINE
  8
0
 10
12
 20
69
 11
12.0237
 21
69.376
  0
LINE
  8
0
 10
12.0237
 20
69.376
 11
12.0942
 21
69.7461
  0
LINE
  8
0
 10
12.0942
 20
69.7461
 11
12.2107
 21
70.1044
  0
LINE
  8
0
 10
12.2107
 20
70.1044
 11
12.3711
 21
70.4453
  0
LINE
  8
0
 10
12.3711
 20
70.4453
 11
12.5729
 21
70.7634
  0
LINE
  8
0
 10
12.5729
 20
70.7634
 11
12.8131
 21
71.0536
  0
LINE
  8
0
 10
12.8131
 20
71.0536
 11
13.0877
 21
71.3115
  0
LINE
  8
0
 10
13.0877
 20
71.3115
 11
13.3925
 21
71.533
  0
LINE
  8
0
 10
13.3925
 20
71.533
 11
13.7227
 21
71.7145
  0
LINE
  8
0
 10
13.7227
 20
71.7145
 11
14.0729
 21
71.8532
  0
LINE
  8
0
 10
14.0729
 20
71.8532
 11
14.4379
 21
71.9469
  0
LINE
  8
0
 10
14.4379
 20
71.9469
 11
14.8116
 21
71.9941
  0
LINE
  8
0
 10
14.8116
 20
71.9941
 11
15.1884
 21
71.9941
  0
LINE
  8
0
 10
15.1884
 20
71.9941
 11
15.5621
 21
71.9469
  0
LINE
  8
0
 10
15.5621
 20
71.9469
 11
15.927
 21
71.8532
  0
LINE
  8
0
 10
15.927
 20
71.8532
 11
16.2773
 21
71.7145
  0
LINE
  8
0
 10
16.2773
 20
71.7145
 11
16.6075
 21
71.533
  0
LINE
  8
0
 10
16.6075
 20
71.533
 11
16.9123
 21
71.3115
  0
LINE
  8
0
 10
16.9123
 20
71.3115
 11
17.1869
 21
71.0536
  0
LINE
  8
0
 10
17.1869
 20
71.0536
 11
17.427
 21
70.7634
  0
LINE
  8
0
 10
17.427
 20
70.7634
 11
17.6289
 21
70.4453
  0
LINE
  8
0
 10
17.6289
 20
70.4453
 11
17.7893
 21
70.1044
  0
LINE
  8
0
 10
17.7893
 20
70.1044
 11
17.9057
 21
69.7461
  0
LINE
  8
0
 10
17.9057
 20
69.7461
 11
17.9763
 21
69.376
  0
LINE
  8
0
 10
17.9763
 20
69.376
 11
18
 21
69
  0
LINE
  8
0
 10
18
 20
69
 11
17.9763
 21
68.624
  0
LINE
  8
0
 10
17.9763
 20
68.624
 11
17.9057
 21
68.2539
  0
LINE
  8
0
 10
17.9057
 20
68.2539
 11
17.7893
 21
67.8956
  0
LINE
  8
0
 10
17.7893
 20
67.8956
 11
17.6289
 21
67.5547
  0
LINE
  8
0
 10
17.6289
 20
67.5547
 11
17.427
 21
67.2366
  0
LINE
  8
0
 10
17.427
 20
67.2366
 11
17.1869
 21
66.9464
  0
LINE
  8
0
 10
17.1869
 20
66.9464
 11
16.9123
 21
66.6884
  0
LINE
  8
0
 10
16.9123
 20
66.6884
 11
16.6075
 21
66.467
  0
LINE
  8
0
 10
16.6075
 20
66.467
 11
16.2773
 21
66.2855
  0
LINE
  8
0
 10
16.2773
 20
66.2855
 11
15.927
 21
66.1468
  0
LINE
  8
0
 10
15.927
 20
66.1468
 11
15.5621
 21
66.0531
  0
LINE
  8
0
 10
15.5621
 20
66.0531
 11
15.1884
 21
66.0059
  0
LINE
  8
0
 10
15.1884
 20
66.0059
 11
14.8116
 21
66.0059
  0
LINE
  8
0
 10
-15.1884
 20
66.0059
 11
-15.5621
 21
66.0531
  0
LINE
  8
0
 10
-15.5621
 20
66.0531
 11
-15.927
 21
66.1468
  0
LINE
  8
0
 10
-15.927
 20
66.1468
 11
-16.2773
 21
66.2855
  0
LINE
  8
0
 10
-16.2773
 20
66.2855
 11
-16.6075
 21
66.467
  0
LINE
  8
0
 10
-16.6075
 20
66.467
 11
-16.9123
 21
66.6884
  0
LINE
  8
0
 10
-16.9123
 20
66.6884
 11
-17.1869
 21
66.9464
  0
LINE
  8
0
 10
-17.1869
 20
66.9464
 11
-17.427
 21
67.2366
  0
LINE
  8
0
 10
-17.427
 20
67.2366
 11
-17.6289
 21
67.5547
  0
LINE
  8
0
 10
-17.6289
 20
67.5547
 11
-17.7893
 21
67.8956
  0
LINE
  8
0
 10
-17.7893
 20
67.8956
 11
-17.9057
 21
68.2539
  0
LINE
  8
0
 10
-17.9057
 20
68.2539
 11
-17.9763
 21
68.624
  0
LINE
  8
0
 10
-17.9763
 20
68.624
 11
-18
 21
69
  0
LINE
  8
0
 10
-18
 20
69
 11
-17.9763
 21
69.376
  0
LINE
  8
0
 10
-17.9763
 20
69.376
 11
-17.9057
 21
69.7461
  0
LINE
  8
0
 10
-17.9057
 20
69.7461
 11
-17.7893
 21
70.1044
  0
LINE
  8
0
 10
-17.7893
 20
70.1044
 11
-17.6289
 21
70.4453
  0
LINE
  8
0
 10
-17.6289
 20
70.4453
 11
-17.427
 21
70.7634
  0
LINE
  8
0
 10
-17.427
 20
70.7634
 11
-17.1869
 21
71.0536
  0
LINE
  8
0
 10
-17.1869
 20
71.0536
 11
-16.9123
 21
71.3115
  0
LINE
  8
0
 10
-16.9123
 20
71.3115
 11
-16.6075
 21
71.533
  0
LINE
  8
0
 10
-16.6075
 20
71.533
 11
-16.2773
 21
71.7145
  0
LINE
  8
0
 10
-16.2773
 20
71.7145
 11
-15.927
 21
71.8532
  0
LINE
  8
0
 10
-15.927
 20
71.8532
 11
-15.5621
 21
71.9469
  0
LINE
  8
0
 10
-15.5621
 20
71.9469
 11
-15.1884
 21
71.9941
  0
LINE
  8
0
 10
-15.1884
 20
71.9941
 11
-14.8116
 21
71.9941
  0
LINE
  8
0
 10
-14.8116
 20
71.9941
 11
-14.4379
 21
71.9469
  0
LINE
  8
0
 10
-14.4379
 20
71.9469
 11
-14.0729
 21
71.8532
  0
LINE
  8
0
 10
-14.0729
 20
71.8532
 11
-13.7227
 21
71.7145
  0
LINE
  8
0
 10
-13.7227
 20
71.7145
 11
-13.3925
 21
71.533
  0
LINE
  8
0
 10
-13.3925
 20
71.533
 11
-13.0877
 21
71.3115
  0
LINE
  8
0
 10
-13.0877
 20
71.3115
 11
-12.8131
 21
71.0536
  0
LINE
  8
0
 10
-12.8131
 20
71.0536
 11
-12.5729
 21
70.7634
  0
LINE
  8
0
 10
-12.5729
 20
70.7634
 11
-12.3711
 21
70.4453
  0
LINE
  8
0
 10
-12.3711
 20
70.4453
 11
-12.2107
 21
70.1044
  0
LINE
  8
0
 10
-12.2107
 20
70.1044
 11
-12.0942
 21
69.7461
  0
LINE
  8
0
 10
-12.0942
 20
69.7461
 11
-12.0237
 21
69.376
  0
LINE
  8
0
 10
-12.0237
 20
69.376
 11
-12
 21
69
  0
LINE
  8
0
 10
-12
 20
69
 11
-12.0237
 21
68.624
  0
LINE
  8
0
 10
-12.0237
 20
68.624
 11
-12.0942
 21
68.2539
  0
LINE
  8
0
 10
-12.0942
 20
68.2539
 11
-12.2107
 21
67.8956
  0
LINE
  8
0
 10
-12.2107
 20
67.8956
 11
-12.3711
 21
67.5547
  0
LINE
  8
0
 10
-12.3711
 20
67.5547
 11
-12.5729
 21
67.2366
  0
LINE
  8
0
 10
-12.5729
 20
67.2366
 11
-12.8131
 21
66.9464
  0
LINE
  8
0
 10
-12.8131
 20
66.9464
 11
-13.0877
 21
66.6884
  0
LINE
  8
0
 10
-13.0877
 20
66.6884
 11
-13.3925
 21
66.467
  0
LINE
  8
0
 10
-13.3925
 20
66.467
 11
-13.7227
 21
66.2855
  0
LINE
  8
0
 10
-13.7227
 20
66.2855
 11
-14.0729
 21
66.1468
  0
LINE
  8
0
 10
-14.0729
 20
66.1468
 11
-14.4379
 21
66.0531
  0
LINE
  8
0
 10
-14.4379
 20
66.0531
 11
-14.8116
 21
66.0059
  0
LINE
  8
0
 10
-14.8116
 20
66.0059
 11
-15.1884
 21
66.0059
  0
LINE
  8
0
 10
-0.847672
 20
40.5266
 11
-2.52963
 21
40.7391
  0
LINE
  8
0
 10
-2.52963
 20
40.7391
 11
-4.17172
 21
41.1608
  0
LINE
  8
0
 10
-4.17172
 20
41.1608
 11
-5.74802
 21
41.7848
  0
LINE
  8
0
 10
-5.74802
 20
41.7848
 11
-7.23366
 21
42.6016
  0
LINE
  8
0
 10
-7.23366
 20
42.6016
 11
-8.60521
 21
43.5981
  0
LINE
  8
0
 10
-8.60521
 20
43.5981
 11
-9.84106
 21
44.7586
  0
LINE
  8
0
 10
-9.84106
 20
44.7586
 11
-10.9217
 21
46.0649
  0
LINE
  8
0
 10
-10.9217
 20
46.0649
 11
-11.8301
 21
47.4963
  0
LINE
  8
0
 10
-11.8301
 20
47.4963
 11
-12.552
 21
49.0303
  0
LINE
  8
0
 10
-12.552
 20
49.0303
 11
-13.0759
 21
50.6427
  0
LINE
  8
0
 10
-13.0759
 20
50.6427
 11
-13.3935
 21
52.308
  0
LINE
  8
0
 10
-13.3935
 20
52.308
 11
-13.5
 21
54
  0
LINE
  8
0
 10
-13.5
 20
54
 11
-13.3935
 21
55.692
  0
LINE
  8
0
 10
-13.3935
 20
55.692
 11
-13.0759
 21
57.3573
  0
LINE
  8
0
 10
-13.0759
 20
57.3573
 11
-12.552
 21
58.9697
  0
LINE
  8
0
 10
-12.552
 20
58.9697
 11
-11.8301
 21
60.5037
  0
LINE
  8
0
 10
-11.8301
 20
60.5037
 11
-10.9217
 21
61.9351
  0
LINE
  8
0
 10
-10.9217
 20
61.9351
 11
-9.84106
 21
63.2414
  0
LINE
  8
0
 10
-9.84106
 20
63.2414
 11
-8.60521
 21
64.4019
  0
LINE
  8
0
 10
-8.60521
 20
64.4019
 11
-7.23366
 21
65.3984
  0
LINE
  8
0
 10
-7.23366
 20
65.3984
 11
-5.74802
 21
66.2152
  0
LINE
  8
0
 10
-5.74802
 20
66.2152
 11
-4.17172
 21
66.8392
  0
LINE
  8
0
 10
-4.17172
 20
66.8392
 11
-2.52963
 21
67.2609
  0
LINE
  8
0
 10
-2.52963
 20
67.2609
 11
-0.847672
 21
67.4734
  0
LINE
  8
0
 10
-0.847672
 20
67.4734
 11
0.847672
 21
67.4734
  0
LINE
  8
0
 10
0.847672
 20
67.4734
 11
2.52963
 21
67.2609
  0
LINE
  8
0
 10
2.52963
 20
67.2609
 11
4.17172
 21
66.8392
  0
LINE
  8
0
 10
4.17172
 20
66.8392
 11
5.74802
 21
66.2152
  0
LINE
  8
0
 10
5.74802
 20
66.2152
 11
7.23366
 21
65.3984
  0
LINE
  8
0
 10
7.23366
 20
65.3984
 11
8.60521
 21
64.4019
  0
LINE
  8
0
 10
8.60521
 20
64.4019
 11
9.84106
 21
63.2414
  0
LINE
  8
0
 10
9.84106
 20
63.2414
 11
10.9217
 21
61.9351
  0
LINE
  8
0
 10
10.9217
 20
61.9351
 11
11.8301
 21
60.5037
  0
LINE
  8
0
 10
11.8301
 20
60.5037
 11
12.552
 21
58.9697
  0
LINE
  8
0
 10
12.552
 20
58.9697
 11
13.0759
 21
57.3573
  0
LINE
  8
0
 10
13.0759
 20
57.3573
 11
13.3935
 21
55.692
  0
LINE
  8
0
 10
13.3935
 20
55.692
 11
13.5
 21
54
  0
LINE
  8
0
 10
13.5
 20
54
 11
13.3935
 21
52.308
  0
LINE
  8
0
 10
13.3935
 20
52.308
 11
13.0759
 21
50.6427
  0
LINE
  8
0
 10
13.0759
 20
50.6427
 11
12.552
 21
49.0303
  0
LINE
  8
0
 10
12.552
 20
49.0303
 11
11.8301
 21
47.4963
  0
LINE
  8
0
 10
11.8301
 20
47.4963
 11
10.9217
 21
46.0649
  0
LINE
  8
0
 10
10.9217
 20
46.0649
 11
9.84106
 21
44.7586
  0
LINE
  8
0
 10
9.84106
 20
44.7586
 11
8.60521
 21
43.5981
  0
LINE
  8
0
 10
8.60521
 20
43.5981
 11
7.23366
 21
42.6016
  0
LINE
  8
0
 10
7.23366
 20
42.6016
 11
5.74802
 21
41.7848
  0
LINE
  8
0
 10
5.74802
 20
41.7848
 11
4.17172
 21
41.1608
  0
LINE
  8
0
 10
4.17172
 20
41.1608
 11
2.52963
 21
40.7391
  0
LINE
  8
0
 10
2.52963
 20
40.7391
 11
0.847672
 21
40.5266
  0
LINE
  8
0
 10
0.847672
 20
40.5266
 11
-0.847672
 21
40.5266
  0
LINE
  8
0
 10
1.87381
 20
44.1771
 11
3.09016
 21
44.4894
  0
LINE
  8
0
 10
3.09016
 20
44.4894
 11
4.25778
 21
44.9517
  0
LINE
  8
0
 10
4.25778
 20
44.9517
 11
5.35826
 21
45.5567
  0
LINE
  8
0
 10
5.35826
 20
45.5567
 11
6.37424
 21
46.2949
  0
LINE
  8
0
 10
6.37424
 20
46.2949
 11
7.28967
 21
47.1545
  0
LINE
  8
0
 10
7.28967
 20
47.1545
 11
8.09016
 21
48.1222
  0
LINE
  8
0
 10
8.09016
 20
48.1222
 11
8.76306
 21
49.1825
  0
LINE
  8
0
 10
8.76306
 20
49.1825
 11
9.29776
 21
50.3188
  0
LINE
  8
0
 10
9.29776
 20
50.3188
 11
9.68582
 21
51.5131
  0
LINE
  8
0
 10
9.68582
 20
51.5131
 11
9.92114
 21
52.7467
  0
LINE
  8
0
 10
9.92114
 20
52.7467
 11
10
 21
54
  0
LINE
  8
0
 10
10
 20
54
 11
9.92114
 21
55.2533
  0
LINE
  8
0
 10
9.92114
 20
55.2533
 11
9.68582
 21
56.4869
  0
LINE
  8
0
 10
9.68582
 20
56.4869
 11
9.29776
 21
57.6812
  0
LINE
  8
0
 10
9.29776
 20
57.6812
 11
8.76306
 21
58.8175
  0
LINE
  8
0
 10
8.76306
 20
58.8175
 11
8.09016
 21
59.8778
  0
LINE
  8
0
 10
8.09016
 20
59.8778
 11
7.28967
 21
60.8455
  0
LINE
  8
0
 10
7.28967
 20
60.8455
 11
6.37424
 21
61.7051
  0
LINE
  8
0
 10
6.37424
 20
61.7051
 11
5.35826
 21
62.4433
  0
LINE
  8
0
 10
5.35826
 20
62.4433
 11
4.25778
 21
63.0483
  0
LINE
  8
0
 10
4.25778
 20
63.0483
 11
3.09016
 21
63.5106
  0
LINE
  8
0
 10
3.09016
 20
63.5106
 11
1.87381
 21
63.8229
  0
LINE
  8
0
 10
1.87381
 20
63.8229
 11
0.627899
 21
63.9803
  0
LINE
  8
0
 10
0.627899
 20
63.9803
 11
-0.627899
 21
63.9803
  0
LINE
  8
0
 10
-0.627899
 20
63.9803
 11
-1.87381
 21
63.8229
  0
LINE
  8
0
 10
-1.87381
 20
63.8229
 11
-3.09016
 21
63.5106
  0
LINE
  8
0
 10
-3.09016
 20
63.5106
 11
-4.25778
 21
63.0483
  0
LINE
  8
0
 10
-4.25778
 20
63.0483
 11
-5.35826
 21
62.4433
  0
LINE
  8
0
 10
-5.35826
 20
62.4433
 11
-6.37424
 21
61.7051
  0
LINE
  8
0
 10
-6.37424
 20
61.7051
 11
-7.28967
 21
60.8455
  0
LINE
  8
0
 10
-7.28967
 20
60.8455
 11
-8.09016
 21
59.8778
  0
LINE
  8
0
 10
-8.09016
 20
59.8778
 11
-8.76306
 21
58.8175
  0
LINE
  8
0
 10
-8.76306
 20
58.8175
 11
-9.29776
 21
57.6812
  0
LINE
  8
0
 10
-9.29776
 20
57.6812
 11
-9.68582
 21
56.4869
  0
LINE
  8
0
 10
-9.68582
 20
56.4869
 11
-9.92114
 21
55.2533
  0
LINE
  8
0
 10
-9.92114
 20
55.2533
 11
-10
 21
54
  0
LINE
  8
0
 10
-10
 20
54
 11
-9.92114
 21
52.7467
  0
LINE
  8
0
 10
-9.92114
 20
52.7467
 11
-9.68582
 21
51.5131
  0
LINE
  8
0
 10
-9.68582
 20
51.5131
 11
-9.29776
 21
50.3188
  0
LINE
  8
0
 10
-9.29776
 20
50.3188
 11
-8.76306
 21
49.1825
  0
LINE
  8
0
 10
-8.76306
 20
49.1825
 11
-8.09016
 21
48.1222
  0
LINE
  8
0
 10
-8.09016
 20
48.1222
 11
-7.28967
 21
47.1545
  0
LINE
  8
0
 10
-7.28967
 20
47.1545
 11
-6.37424
 21
46.2949
  0
LINE
  8
0
 10
-6.37424
 20
46.2949
 11
-5.35826
 21
45.5567
  0
LINE
  8
0
 10
-5.35826
 20
45.5567
 11
-4.25778
 21
44.9517
  0
LINE
  8
0
 10
-4.25778
 20
44.9517
 11
-3.09016
 21
44.4894
  0
LINE
  8
0
 10
-3.09016
 20
44.4894
 11
-1.87381
 21
44.1771
  0
LINE
  8
0
 10
-1.87381
 20
44.1771
 11
-0.627899
 21
44.0197
  0
LINE
  8
0
 10
-0.627899
 20
44.0197
 11
0.627899
 21
44.0197
  0
LINE
  8
0
 10
0.627899
 20
44.0197
 11
1.87381
 21
44.1771
  0
LINE
  8
0
 10
-0.0941772
 20
60.003
 11
-0.281067
 21
60.0266
  0
LINE
  8
0
 10
-0.281067
 20
60.0266
 11
-0.463516
 21
60.0734
  0
LINE
  8
0
 10
-0.463516
 20
60.0734
 11
-0.638657
 21
60.1427
  0
LINE
  8
0
 10
-0.638657
 20
60.1427
 11
-0.803726
 21
60.2335
  0
LINE
  8
0
 10
-0.803726
 20
60.2335
 11
-0.956131
 21
60.3442
  0
LINE
  8
0
 10
-0.956131
 20
60.3442
 11
-1.09344
 21
60.4732
  0
LINE
  8
0
 10
-1.09344
 20
60.4732
 11
-1.21352
 21
60.6183
  0
LINE
  8
0
 10
-1.21352
 20
60.6183
 11
-1.31445
 21
60.7774
  0
LINE
  8
0
 10
-1.31445
 20
60.7774
 11
-1.39465
 21
60.9478
  0
LINE
  8
0
 10
-1.39465
 20
60.9478
 11
-1.45287
 21
61.127
  0
LINE
  8
0
 10
-1.45287
 20
61.127
 11
-1.48816
 21
61.312
  0
LINE
  8
0
 10
-1.48816
 20
61.312
 11
-1.5
 21
61.5
  0
LINE
  8
0
 10
-1.5
 20
61.5
 11
-1.48816
 21
61.688
  0
LINE
  8
0
 10
-1.48816
 20
61.688
 11
-1.45287
 21
61.873
  0
LINE
  8
0
 10
-1.45287
 20
61.873
 11
-1.39465
 21
62.0522
  0
LINE
  8
0
 10
-1.39465
 20
62.0522
 11
-1.31445
 21
62.2226
  0
LINE
  8
0
 10
-1.31445
 20
62.2226
 11
-1.21352
 21
62.3817
  0
LINE
  8
0
 10
-1.21352
 20
62.3817
 11
-1.09344
 21
62.5268
  0
LINE
  8
0
 10
-1.09344
 20
62.5268
 11
-0.956131
 21
62.6558
  0
LINE
  8
0
 10
-0.956131
 20
62.6558
 11
-0.803726
 21
62.7665
  0
LINE
  8
0
 10
-0.803726
 20
62.7665
 11
-0.638657
 21
62.8572
  0
LINE
  8
0
 10
-0.638657
 20
62.8572
 11
-0.463516
 21
62.9266
  0
LINE
  8
0
 10
-0.463516
 20
62.9266
 11
-0.281067
 21
62.9734
  0
LINE
  8
0
 10
-0.281067
 20
62.9734
 11
-0.0941772
 21
62.997
  0
LINE
  8
0
 10
-0.0941772
 20
62.997
 11
0.0941772
 21
62.997
  0
LINE
  8
0
 10
0.0941772
 20
62.997
 11
0.281067
 21
62.9734
  0
LINE
  8
0
 10
0.281067
 20
62.9734
 11
0.463516
 21
62.9266
  0
LINE
  8
0
 10
0.463516
 20
62.9266
 11
0.638657
 21
62.8572
  0
LINE
  8
0
 10
0.638657
 20
62.8572
 11
0.803726
 21
62.7665
  0
LINE
  8
0
 10
0.803726
 20
62.7665
 11
0.956131
 21
62.6558
  0
LINE
  8
0
 10
0.956131
 20
62.6558
 11
1.09344
 21
62.5268
  0
LINE
  8
0
 10
1.09344
 20
62.5268
 11
1.21352
 21
62.3817
  0
LINE
  8
0
 10
1.21352
 20
62.3817
 11
1.31445
 21
62.2226
  0
LINE
  8
0
 10
1.31445
 20
62.2226
 11
1.39465
 21
62.0522
  0
LINE
  8
0
 10
1.39465
 20
62.0522
 11
1.45287
 21
61.873
  0
LINE
  8
0
 10
1.45287
 20
61.873
 11
1.48816
 21
61.688
  0
LINE
  8
0
 10
1.48816
 20
61.688
 11
1.5
 21
61.5
  0
LINE
  8
0
 10
1.5
 20
61.5
 11
1.48816
 21
61.312
  0
LINE
  8
0
 10
1.48816
 20
61.312
 11
1.45287
 21
61.127
  0
LINE
  8
0
 10
1.45287
 20
61.127
 11
1.39465
 21
60.9478
  0
LINE
  8
0
 10
1.39465
 20
60.9478
 11
1.31445
 21
60.7774
  0
LINE
  8
0
 10
1.31445
 20
60.7774
 11
1.21352
 21
60.6183
  0
LINE
  8
0
 10
1.21352
 20
60.6183
 11
1.09344
 21
60.4732
  0
LINE
  8
0
 10
1.09344
 20
60.4732
 11
0.956131
 21
60.3442
  0
LINE
  8
0
 10
0.956131
 20
60.3442
 11
0.803726
 21
60.2335
  0
LINE
  8
0
 10
0.803726
 20
60.2335
 11
0.638657
 21
60.1427
  0
LINE
  8
0
 10
0.638657
 20
60.1427
 11
0.463516
 21
60.0734
  0
LINE
  8
0
 10
0.463516
 20
60.0734
 11
0.281067
 21
60.0266
  0
LINE
  8
0
 10
0.281067
 20
60.0266
 11
0.0941772
 21
60.003
  0
LINE
  8
0
 10
0.0941772
 20
60.003
 11
-0.0941772
 21
60.003
  0
LINE
  8
0
 10
-0.18837
 20
51.0059
 11
-0.562134
 21
51.0531
  0
LINE
  8
0
 10
-0.562134
 20
51.0531
 11
-0.927048
 21
51.1468
  0
LINE
  8
0
 10
-0.927048
 20
51.1468
 11
-1.27733
 21
51.2855
  0
LINE
  8
0
 10
-1.27733
 20
51.2855
 11
-1.60747
 21
51.467
  0
LINE
  8
0
 10
-1.60747
 20
51.467
 11
-1.91226
 21
51.6885
  0
LINE
  8
0
 10
-1.91226
 20
51.6885
 11
-2.1869
 21
51.9464
  0
LINE
  8
0
 10
-2.1869
 20
51.9464
 11
-2.42705
 21
52.2366
  0
LINE
  8
0
 10
-2.42705
 20
52.2366
 11
-2.62891
 21
52.5547
  0
LINE
  8
0
 10
-2.62891
 20
52.5547
 11
-2.78932
 21
52.8956
  0
LINE
  8
0
 10
-2.78932
 20
52.8956
 11
-2.90575
 21
53.2539
  0
LINE
  8
0
 10
-2.90575
 20
53.2539
 11
-2.97633
 21
53.624
  0
LINE
  8
0
 10
-2.97633
 20
53.624
 11
-3
 21
54
  0
LINE
  8
0
 10
-3
 20
54
 11
-2.97633
 21
54.376
  0
LINE
  8
0
 10
-2.97633
 20
54.376
 11
-2.90575
 21
54.7461
  0
LINE
  8
0
 10
-2.90575
 20
54.7461
 11
-2.78932
 21
55.1044
  0
LINE
  8
0
 10
-2.78932
 20
55.1044
 11
-2.62891
 21
55.4453
  0
LINE
  8
0
 10
-2.62891
 20
55.4453
 11
-2.42705
 21
55.7634
  0
LINE
  8
0
 10
-2.42705
 20
55.7634
 11
-2.1869
 21
56.0536
  0
LINE
  8
0
 10
-2.1869
 20
56.0536
 11
-1.91226
 21
56.3115
  0
LINE
  8
0
 10
-1.91226
 20
56.3115
 11
-1.60747
 21
56.533
  0
LINE
  8
0
 10
-1.60747
 20
56.533
 11
-1.27733
 21
56.7145
  0
LINE
  8
0
 10
-1.27733
 20
56.7145
 11
-0.927048
 21
56.8532
  0
LINE
  8
0
 10
-0.927048
 20
56.8532
 11
-0.562134
 21
56.9469
  0
LINE
  8
0
 10
-0.562134
 20
56.9469
 11
-0.18837
 21
56.9941
  0
LINE
  8
0
 10
-0.18837
 20
56.9941
 11
0.18837
 21
56.9941
  0
LINE
  8
0
 10
0.18837
 20
56.9941
 11
0.562134
 21
56.9469
  0
LINE
  8
0
 10
0.562134
 20
56.9469
 11
0.927048
 21
56.8532
  0
LINE
  8
0
 10
0.927048
 20
56.8532
 11
1.27733
 21
56.7145
  0
LINE
  8
0
 10
1.27733
 20
56.7145
 11
1.60747
 21
56.533
  0
LINE
  8
0
 10
1.60747
 20
56.533
 11
1.91226
 21
56.3115
  0
LINE
  8
0
 10
1.91226
 20
56.3115
 11
2.1869
 21
56.0536
  0
LINE
  8
0
 10
2.1869
 20
56.0536
 11
2.42705
 21
55.7634
  0
LINE
  8
0
 10
2.42705
 20
55.7634
 11
2.62891
 21
55.4453
  0
LINE
  8
0
 10
2.62891
 20
55.4453
 11
2.78932
 21
55.1044
  0
LINE
  8
0
 10
2.78932
 20
55.1044
 11
2.90575
 21
54.7461
  0
LINE
  8
0
 10
2.90575
 20
54.7461
 11
2.97633
 21
54.376
  0
LINE
  8
0
 10
2.97633
 20
54.376
 11
3
 21
54
  0
LINE
  8
0
 10
3
 20
54
 11
2.97633
 21
53.624
  0
LINE
  8
0
 10
2.97633
 20
53.624
 11
2.90575
 21
53.2539
  0
LINE
  8
0
 10
2.90575
 20
53.2539
 11
2.78932
 21
52.8956
  0
LINE
  8
0
 10
2.78932
 20
52.8956
 11
2.62891
 21
52.5547
  0
LINE
  8
0
 10
2.62891
 20
52.5547
 11
2.42705
 21
52.2366
  0
LINE
  8
0
 10
2.42705
 20
52.2366
 11
2.1869
 21
51.9464
  0
LINE
  8
0
 10
2.1869
 20
51.9464
 11
1.91226
 21
51.6885
  0
LINE
  8
0
 10
1.91226
 20
51.6885
 11
1.60747
 21
51.467
  0
LINE
  8
0
 10
1.60747
 20
51.467
 11
1.27733
 21
51.2855
  0
LINE
  8
0
 10
1.27733
 20
51.2855
 11
0.927048
 21
51.1468
  0
LINE
  8
0
 10
0.927048
 20
51.1468
 11
0.562134
 21
51.0531
  0
LINE
  8
0
 10
0.562134
 20
51.0531
 11
0.18837
 21
51.0059
  0
LINE
  8
0
 10
0.18837
 20
51.0059
 11
-0.18837
 21
51.0059
  0
LINE
  8
0
 10
-7.61929
 20
52.1038
 11
-7.85602
 21
52.1337
  0
LINE
  8
0
 10
-7.85602
 20
52.1337
 11
-8.08713
 21
52.193
  0
LINE
  8
0
 10
-8.08713
 20
52.193
 11
-8.30898
 21
52.2808
  0
LINE
  8
0
 10
-8.30898
 20
52.2808
 11
-8.51807
 21
52.3958
  0
LINE
  8
0
 10
-8.51807
 20
52.3958
 11
-8.71111
 21
52.536
  0
LINE
  8
0
 10
-8.71111
 20
52.536
 11
-8.88504
 21
52.6994
  0
LINE
  8
0
 10
-8.88504
 20
52.6994
 11
-9.03712
 21
52.8832
  0
LINE
  8
0
 10
-9.03712
 20
52.8832
 11
-9.16498
 21
53.0847
  0
LINE
  8
0
 10
-9.16498
 20
53.0847
 11
-9.26657
 21
53.3006
  0
LINE
  8
0
 10
-9.26657
 20
53.3006
 11
-9.3403
 21
53.5275
  0
LINE
  8
0
 10
-9.3403
 20
53.5275
 11
-9.38501
 21
53.7619
  0
LINE
  8
0
 10
-9.38501
 20
53.7619
 11
-9.39999
 21
54
  0
LINE
  8
0
 10
-9.39999
 20
54
 11
-9.38501
 21
54.2381
  0
LINE
  8
0
 10
-9.38501
 20
54.2381
 11
-9.3403
 21
54.4725
  0
LINE
  8
0
 10
-9.3403
 20
54.4725
 11
-9.26657
 21
54.6994
  0
LINE
  8
0
 10
-9.26657
 20
54.6994
 11
-9.16498
 21
54.9153
  0
LINE
  8
0
 10
-9.16498
 20
54.9153
 11
-9.03712
 21
55.1168
  0
LINE
  8
0
 10
-9.03712
 20
55.1168
 11
-8.88504
 21
55.3006
  0
LINE
  8
0
 10
-8.88504
 20
55.3006
 11
-8.71111
 21
55.464
  0
LINE
  8
0
 10
-8.71111
 20
55.464
 11
-8.51807
 21
55.6042
  0
LINE
  8
0
 10
-8.51807
 20
55.6042
 11
-8.30898
 21
55.7192
  0
LINE
  8
0
 10
-8.30898
 20
55.7192
 11
-8.08713
 21
55.807
  0
LINE
  8
0
 10
-8.08713
 20
55.807
 11
-7.85602
 21
55.8663
  0
LINE
  8
0
 10
-7.85602
 20
55.8663
 11
-7.61929
 21
55.8962
  0
LINE
  8
0
 10
-7.61929
 20
55.8962
 11
-7.38069
 21
55.8962
  0
LINE
  8
0
 10
-7.38069
 20
55.8962
 11
-7.14397
 21
55.8663
  0
LINE
  8
0
 10
-7.14397
 20
55.8663
 11
-6.91286
 21
55.807
  0
LINE
  8
0
 10
-6.91286
 20
55.807
 11
-6.69101
 21
55.7192
  0
LINE
  8
0
 10
-6.69101
 20
55.7192
 11
-6.48192
 21
55.6042
  0
LINE
  8
0
 10
-6.48192
 20
55.6042
 11
-6.28888
 21
55.464
  0
LINE
  8
0
 10
-6.28888
 20
55.464
 11
-6.11494
 21
55.3006
  0
LINE
  8
0
 10
-6.11494
 20
55.3006
 11
-5.96286
 21
55.1168
  0
LINE
  8
0
 10
-5.96286
 20
55.1168
 11
-5.83501
 21
54.9153
  0
LINE
  8
0
 10
-5.83501
 20
54.9153
 11
-5.73341
 21
54.6994
  0
LINE
  8
0
 10
-5.73341
 20
54.6994
 11
-5.65968
 21
54.4725
  0
LINE
  8
0
 10
-5.65968
 20
54.4725
 11
-5.61497
 21
54.2381
  0
LINE
  8
0
 10
-5.61497
 20
54.2381
 11
-5.59999
 21
54
  0
LINE
  8
0
 10
-5.59999
 20
54
 11
-5.61497
 21
53.7619
  0
LINE
  8
0
 10
-5.61497
 20
53.7619
 11
-5.65968
 21
53.5275
  0
LINE
  8
0
 10
-5.65968
 20
53.5275
 11
-5.73341
 21
53.3006
  0
LINE
  8
0
 10
-5.73341
 20
53.3006
 11
-5.83501
 21
53.0847
  0
LINE
  8
0
 10
-5.83501
 20
53.0847
 11
-5.96286
 21
52.8832
  0
LINE
  8
0
 10
-5.96286
 20
52.8832
 11
-6.11494
 21
52.6994
  0
LINE
  8
0
 10
-6.11494
 20
52.6994
 11
-6.28888
 21
52.536
  0
LINE
  8
0
 10
-6.28888
 20
52.536
 11
-6.48192
 21
52.3958
  0
LINE
  8
0
 10
-6.48192
 20
52.3958
 11
-6.69101
 21
52.2808
  0
LINE
  8
0
 10
-6.69101
 20
52.2808
 11
-6.91286
 21
52.193
  0
LINE
  8
0
 10
-6.91286
 20
52.193
 11
-7.14397
 21
52.1337
  0
LINE
  8
0
 10
-7.14397
 20
52.1337
 11
-7.38069
 21
52.1038
  0
LINE
  8
0
 10
-7.38069
 20
52.1038
 11
-7.61929
 21
52.1038
  0
LINE
  8
0
 10
7.38069
 20
52.1038
 11
7.14397
 21
52.1337
  0
LINE
  8
0
 10
7.14397
 20
52.1337
 11
6.91286
 21
52.193
  0
LINE
  8
0
 10
6.91286
 20
52.193
 11
6.69101
 21
52.2808
  0
LINE
  8
0
 10
6.69101
 20
52.2808
 11
6.48192
 21
52.3958
  0
LINE
  8
0
 10
6.48192
 20
52.3958
 11
6.28888
 21
52.536
  0
LINE
  8
0
 10
6.28888
 20
52.536
 11
6.11494
 21
52.6994
  0
LINE
  8
0
 10
6.11494
 20
52.6994
 11
5.96286
 21
52.8832
  0
LINE
  8
0
 10
5.96286
 20
52.8832
 11
5.83501
 21
53.0847
  0
LINE
  8
0
 10
5.83501
 20
53.0847
 11
5.73341
 21
53.3006
  0
LINE
  8
0
 10
5.73341
 20
53.3006
 11
5.65968
 21
53.5275
  0
LINE
  8
0
 10
5.65968
 20
53.5275
 11
5.61497
 21
53.7619
  0
LINE
  8
0
 10
5.61497
 20
53.7619
 11
5.59999
 21
54
  0
LINE
  8
0
 10
5.59999
 20
54
 11
5.61497
 21
54.2381
  0
LINE
  8
0
 10
5.61497
 20
54.2381
 11
5.65968
 21
54.4725
  0
LINE
  8
0
 10
5.65968
 20
54.4725
 11
5.73341
 21
54.6994
  0
LINE
  8
0
 10
5.73341
 20
54.6994
 11
5.83501
 21
54.9153
  0
LINE
  8
0
 10
5.83501
 20
54.9153
 11
5.96286
 21
55.1168
  0
LINE
  8
0
 10
5.96286
 20
55.1168
 11
6.11494
 21
55.3006
  0
LINE
  8
0
 10
6.11494
 20
55.3006
 11
6.28888
 21
55.464
  0
LINE
  8
0
 10
6.28888
 20
55.464
 11
6.48192
 21
55.6042
  0
LINE
  8
0
 10
6.48192
 20
55.6042
 11
6.69101
 21
55.7192
  0
LINE
  8
0
 10
6.69101
 20
55.7192
 11
6.91286
 21
55.807
  0
LINE
  8
0
 10
6.91286
 20
55.807
 11
7.14397
 21
55.8663
  0
LINE
  8
0
 10
7.14397
 20
55.8663
 11
7.38069
 21
55.8962
  0
LINE
  8
0
 10
7.38069
 20
55.8962
 11
7.61929
 21
55.8962
  0
LINE
  8
0
 10
7.61929
 20
55.8962
 11
7.85602
 21
55.8663
  0
LINE
  8
0
 10
7.85602
 20
55.8663
 11
8.08713
 21
55.807
  0
LINE
  8
0
 10
8.08713
 20
55.807
 11
8.30898
 21
55.7192
  0
LINE
  8
0
 10
8.30898
 20
55.7192
 11
8.51807
 21
55.6042
  0
LINE
  8
0
 10
8.51807
 20
55.6042
 11
8.71111
 21
55.464
  0
LINE
  8
0
 10
8.71111
 20
55.464
 11
8.88504
 21
55.3006
  0
LINE
  8
0
 10
8.88504
 20
55.3006
 11
9.03712
 21
55.1168
  0
LINE
  8
0
 10
9.03712
 20
55.1168
 11
9.16498
 21
54.9153
  0
LINE
  8
0
 10
9.16498
 20
54.9153
 11
9.26657
 21
54.6994
  0
LINE
  8
0
 10
9.26657
 20
54.6994
 11
9.3403
 21
54.4725
  0
LINE
  8
0
 10
9.3403
 20
54.4725
 11
9.38501
 21
54.2381
  0
LINE
  8
0
 10
9.38501
 20
54.2381
 11
9.39999
 21
54
  0
LINE
  8
0
 10
9.39999
 20
54
 11
9.38501
 21
53.7619
  0
LINE
  8
0
 10
9.38501
 20
53.7619
 11
9.3403
 21
53.5275
  0
LINE
  8
0
 10
9.3403
 20
53.5275
 11
9.26657
 21
53.3006
  0
LINE
  8
0
 10
9.26657
 20
53.3006
 11
9.16498
 21
53.0847
  0
LINE
  8
0
 10
9.16498
 20
53.0847
 11
9.03712
 21
52.8832
  0
LINE
  8
0
 10
9.03712
 20
52.8832
 11
8.88504
 21
52.6994
  0
LINE
  8
0
 10
8.88504
 20
52.6994
 11
8.71111
 21
52.536
  0
LINE
  8
0
 10
8.71111
 20
52.536
 11
8.51807
 21
52.3958
  0
LINE
  8
0
 10
8.51807
 20
52.3958
 11
8.30898
 21
52.2808
  0
LINE
  8
0
 10
8.30898
 20
52.2808
 11
8.08713
 21
52.193
  0
LINE
  8
0
 10
8.08713
 20
52.193
 11
7.85602
 21
52.1337
  0
LINE
  8
0
 10
7.85602
 20
52.1337
 11
7.61929
 21
52.1038
  0
LINE
  8
0
 10
7.61929
 20
52.1038
 11
7.38069
 21
52.1038
  0
LINE
  8
0
 10
-0.0941772
 20
45.003
 11
-0.281067
 21
45.0266
  0
LINE
  8
0
 10
-0.281067
 20
45.0266
 11
-0.463516
 21
45.0734
  0
LINE
  8
0
 10
-0.463516
 20
45.0734
 11
-0.638657
 21
45.1428
  0
LINE
  8
0
 10
-0.638657
 20
45.1428
 11
-0.803726
 21
45.2335
  0
LINE
  8
0
 10
-0.803726
 20
45.2335
 11
-0.956131
 21
45.3442
  0
LINE
  8
0
 10
-0.956131
 20
45.3442
 11
-1.09344
 21
45.4732
  0
LINE
  8
0
 10
-1.09344
 20
45.4732
 11
-1.21352
 21
45.6183
  0
LINE
  8
0
 10
-1.21352
 20
45.6183
 11
-1.31445
 21
45.7774
  0
LINE
  8
0
 10
-1.31445
 20
45.7774
 11
-1.39465
 21
45.9478
  0
LINE
  8
0
 10
-1.39465
 20
45.9478
 11
-1.45287
 21
46.127
  0
LINE
  8
0
 10
-1.45287
 20
46.127
 11
-1.48816
 21
46.312
  0
LINE
  8
0
 10
-1.48816
 20
46.312
 11
-1.5
 21
46.5
  0
LINE
  8
0
 10
-1.5
 20
46.5
 11
-1.48816
 21
46.688
  0
LINE
  8
0
 10
-1.48816
 20
46.688
 11
-1.45287
 21
46.873
  0
LINE
  8
0
 10
-1.45287
 20
46.873
 11
-1.39465
 21
47.0522
  0
LINE
  8
0
 10
-1.39465
 20
47.0522
 11
-1.31445
 21
47.2226
  0
LINE
  8
0
 10
-1.31445
 20
47.2226
 11
-1.21352
 21
47.3817
  0
LINE
  8
0
 10
-1.21352
 20
47.3817
 11
-1.09344
 21
47.5268
  0
LINE
  8
0
 10
-1.09344
 20
47.5268
 11
-0.956131
 21
47.6558
  0
LINE
  8
0
 10
-0.956131
 20
47.6558
 11
-0.803726
 21
47.7665
  0
LINE
  8
0
 10
-0.803726
 20
47.7665
 11
-0.638657
 21
47.8573
  0
LINE
  8
0
 10
-0.638657
 20
47.8573
 11
-0.463516
 21
47.9266
  0
LINE
  8
0
 10
-0.463516
 20
47.9266
 11
-0.281067
 21
47.9734
  0
LINE
  8
0
 10
-0.281067
 20
47.9734
 11
-0.0941772
 21
47.997
  0
LINE
  8
0
 10
-0.0941772
 20
47.997
 11
0.0941772
 21
47.997
  0
LINE
  8
0
 10
0.0941772
 20
47.997
 11
0.281067
 21
47.9734
  0
LINE
  8
0
 10
0.281067
 20
47.9734
 11
0.463516
 21
47.9266
  0
LINE
  8
0
 10
0.463516
 20
47.9266
 11
0.638657
 21
47.8573
  0
LINE
  8
0
 10
0.638657
 20
47.8573
 11
0.803726
 21
47.7665
  0
LINE
  8
0
 10
0.803726
 20
47.7665
 11
0.956131
 21
47.6558
  0
LINE
  8
0
 10
0.956131
 20
47.6558
 11
1.09344
 21
47.5268
  0
LINE
  8
0
 10
1.09344
 20
47.5268
 11
1.21352
 21
47.3817
  0
LINE
  8
0
 10
1.21352
 20
47.3817
 11
1.31445
 21
47.2226
  0
LINE
  8
0
 10
1.31445
 20
47.2226
 11
1.39465
 21
47.0522
  0
LINE
  8
0
 10
1.39465
 20
47.0522
 11
1.45287
 21
46.873
  0
LINE
  8
0
 10
1.45287
 20
46.873
 11
1.48816
 21
46.688
  0
LINE
  8
0
 10
1.48816
 20
46.688
 11
1.5
 21
46.5
  0
LINE
  8
0
 10
1.5
 20
46.5
 11
1.48816
 21
46.312
  0
LINE
  8
0
 10
1.48816
 20
46.312
 11
1.45287
 21
46.127
  0
LINE
  8
0
 10
1.45287
 20
46.127
 11
1.39465
 21
45.9478
  0
LINE
  8
0
 10
1.39465
 20
45.9478
 11
1.31445
 21
45.7774
  0
LINE
  8
0
 10
1.31445
 20
45.7774
 11
1.21352
 21
45.6183
  0
LINE
  8
0
 10
1.21352
 20
45.6183
 11
1.09344
 21
45.4732
  0
LINE
  8
0
 10
1.09344
 20
45.4732
 11
0.956131
 21
45.3442
  0
LINE
  8
0
 10
0.956131
 20
45.3442
 11
0.803726
 21
45.2335
  0
LINE
  8
0
 10
0.803726
 20
45.2335
 11
0.638657
 21
45.1428
  0
LINE
  8
0
 10
0.638657
 20
45.1428
 11
0.463516
 21
45.0734
  0
LINE
  8
0
 10
0.463516
 20
45.0734
 11
0.281067
 21
45.0266
  0
LINE
  8
0
 10
0.281067
 20
45.0266
 11
0.0941772
 21
45.003
  0
LINE
  8
0
 10
0.0941772
 20
45.003
 11
-0.0941772
 21
45.003
  0
LINE
  8
0
 10
17.7498
 20
52.521
 11
17.5665
 21
52.564
  0
LINE
  8
0
 10
17.5665
 20
52.564
 11
17.3899
 21
52.6297
  0
LINE
  8
0
 10
17.3899
 20
52.6297
 11
17.2229
 21
52.717
  0
LINE
  8
0
 10
17.2229
 20
52.717
 11
17.0683
 21
52.8245
  0
LINE
  8
0
 10
17.0683
 20
52.8245
 11
16.9283
 21
52.9505
  0
LINE
  8
0
 10
16.9283
 20
52.9505
 11
16.8052
 21
53.0931
  0
LINE
  8
0
 10
16.8052
 20
53.0931
 11
16.701
 21
53.25
  0
LINE
  8
0
 10
16.701
 20
53.25
 11
16.6172
 21
53.4187
  0
LINE
  8
0
 10
16.6172
 20
53.4187
 11
16.5553
 21
53.5966
  0
LINE
  8
0
 10
16.5553
 20
53.5966
 11
16.5161
 21
53.7809
  0
LINE
  8
0
 10
16.5161
 20
53.7809
 11
16.5003
 21
53.9686
  0
LINE
  8
0
 10
16.5003
 20
53.9686
 11
16.5082
 21
54.1568
  0
LINE
  8
0
 10
16.5082
 20
54.1568
 11
16.5396
 21
54.3425
  0
LINE
  8
0
 10
16.5396
 20
54.3425
 11
16.5941
 21
54.5229
  0
LINE
  8
0
 10
16.5941
 20
54.5229
 11
16.6707
 21
54.6949
  0
LINE
  8
0
 10
16.6707
 20
54.6949
 11
16.7683
 21
54.8561
  0
LINE
  8
0
 10
16.7683
 20
54.8561
 11
16.8853
 21
55.0037
  0
LINE
  8
0
 10
16.8853
 20
55.0037
 11
17.0199
 21
55.1355
  0
LINE
  8
0
 10
17.0199
 20
55.1355
 11
17.1699
 21
55.2494
  0
LINE
  8
0
 10
17.1699
 20
55.2494
 11
17.333
 21
55.3436
  0
LINE
  8
0
 10
17.333
 20
55.3436
 11
17.5067
 21
55.4165
  0
LINE
  8
0
 10
17.5067
 20
55.4165
 11
17.6881
 21
55.4672
  0
LINE
  8
0
 10
17.6881
 20
55.4672
 11
17.8745
 21
55.4947
  0
LINE
  8
0
 10
17.8745
 20
55.4947
 11
18.0628
 21
55.4987
  0
LINE
  8
0
 10
18.0628
 20
55.4987
 11
18.2502
 21
55.479
  0
LINE
  8
0
 10
18.2502
 20
55.479
 11
18.4335
 21
55.436
  0
LINE
  8
0
 10
18.4335
 20
55.436
 11
18.6101
 21
55.3703
  0
LINE
  8
0
 10
18.6101
 20
55.3703
 11
18.777
 21
55.283
  0
LINE
  8
0
 10
18.777
 20
55.283
 11
18.9317
 21
55.1755
  0
LINE
  8
0
 10
18.9317
 20
55.1755
 11
19.0717
 21
55.0495
  0
LINE
  8
0
 10
19.0717
 20
55.0495
 11
19.1948
 21
54.9069
  0
LINE
  8
0
 10
19.1948
 20
54.9069
 11
19.299
 21
54.75
  0
LINE
  8
0
 10
19.299
 20
54.75
 11
19.3828
 21
54.5813
  0
LINE
  8
0
 10
19.3828
 20
54.5813
 11
19.4447
 21
54.4034
  0
LINE
  8
0
 10
19.4447
 20
54.4034
 11
19.4839
 21
54.2191
  0
LINE
  8
0
 10
19.4839
 20
54.2191
 11
19.4997
 21
54.0314
  0
LINE
  8
0
 10
19.4997
 20
54.0314
 11
19.4918
 21
53.8432
  0
LINE
  8
0
 10
19.4918
 20
53.8432
 11
19.4604
 21
53.6575
  0
LINE
  8
0
 10
19.4604
 20
53.6575
 11
19.4059
 21
53.4771
  0
LINE
  8
0
 10
19.4059
 20
53.4771
 11
19.3293
 21
53.3051
  0
LINE
  8
0
 10
19.3293
 20
53.3051
 11
19.2317
 21
53.1439
  0
LINE
  8
0
 10
19.2317
 20
53.1439
 11
19.1147
 21
52.9963
  0
LINE
  8
0
 10
19.1147
 20
52.9963
 11
18.9801
 21
52.8645
  0
LINE
  8
0
 10
18.9801
 20
52.8645
 11
18.8301
 21
52.7506
  0
LINE
  8
0
 10
18.8301
 20
52.7506
 11
18.6669
 21
52.6564
  0
LINE
  8
0
 10
18.6669
 20
52.6564
 11
18.4933
 21
52.5835
  0
LINE
  8
0
 10
18.4933
 20
52.5835
 11
18.3119
 21
52.5328
  0
LINE
  8
0
 10
18.3119
 20
52.5328
 11
18.1255
 21
52.5053
  0
LINE
  8
0
 10
18.1255
 20
52.5053
 11
17.9372
 21
52.5013
  0
LINE
  8
0
 10
17.9372
 20
52.5013
 11
17.7498
 21
52.521
  0
LINE
  8
0
 10
-18.2502
 20
52.521
 11
-18.4335
 21
52.564
  0
LINE
  8
0
 10
-18.4335
 20
52.564
 11
-18.6101
 21
52.6297
  0
LINE
  8
0
 10
-18.6101
 20
52.6297
 11
-18.777
 21
52.717
  0
LINE
  8
0
 10
-18.777
 20
52.717
 11
-18.9317
 21
52.8245
  0
LINE
  8
0
 10
-18.9317
 20
52.8245
 11
-19.0717
 21
52.9505
  0
LINE
  8
0
 10
-19.0717
 20
52.9505
 11
-19.1948
 21
53.0931
  0
LINE
  8
0
 10
-19.1948
 20
53.0931
 11
-19.299
 21
53.25
  0
LINE
  8
0
 10
-19.299
 20
53.25
 11
-19.3828
 21
53.4187
  0
LINE
  8
0
 10
-19.3828
 20
53.4187
 11
-19.4447
 21
53.5966
  0
LINE
  8
0
 10
-19.4447
 20
53.5966
 11
-19.4839
 21
53.7809
  0
LINE
  8
0
 10
-19.4839
 20
53.7809
 11
-19.4997
 21
53.9686
  0
LINE
  8
0
 10
-19.4997
 20
53.9686
 11
-19.4918
 21
54.1568
  0
LINE
  8
0
 10
-19.4918
 20
54.1568
 11
-19.4604
 21
54.3425
  0
LINE
  8
0
 10
-19.4604
 20
54.3425
 11
-19.4059
 21
54.5229
  0
LINE
  8
0
 10
-19.4059
 20
54.5229
 11
-19.3293
 21
54.6949
  0
LINE
  8
0
 10
-19.3293
 20
54.6949
 11
-19.2317
 21
54.8561
  0
LINE
  8
0
 10
-19.2317
 20
54.8561
 11
-19.1147
 21
55.0037
  0
LINE
  8
0
 10
-19.1147
 20
55.0037
 11
-18.9801
 21
55.1355
  0
LINE
  8
0
 10
-18.9801
 20
55.1355
 11
-18.8301
 21
55.2494
  0
LINE
  8
0
 10
-18.8301
 20
55.2494
 11
-18.6669
 21
55.3436
  0
LINE
  8
0
 10
-18.6669
 20
55.3436
 11
-18.4933
 21
55.4165
  0
LINE
  8
0
 10
-18.4933
 20
55.4165
 11
-18.3119
 21
55.4672
  0
LINE
  8
0
 10
-18.3119
 20
55.4672
 11
-18.1255
 21
55.4947
  0
LINE
  8
0
 10
-18.1255
 20
55.4947
 11
-17.9372
 21
55.4987
  0
LINE
  8
0
 10
-17.9372
 20
55.4987
 11
-17.7498
 21
55.479
  0
LINE
  8
0
 10
-17.7498
 20
55.479
 11
-17.5665
 21
55.436
  0
LINE
  8
0
 10
-17.5665
 20
55.436
 11
-17.3899
 21
55.3703
  0
LINE
  8
0
 10
-17.3899
 20
55.3703
 11
-17.2229
 21
55.283
  0
LINE
  8
0
 10
-17.2229
 20
55.283
 11
-17.0683
 21
55.1755
  0
LINE
  8
0
 10
-17.0683
 20
55.1755
 11
-16.9283
 21
55.0495
  0
LINE
  8
0
 10
-16.9283
 20
55.0495
 11
-16.8052
 21
54.9069
  0
LINE
  8
0
 10
-16.8052
 20
54.9069
 11
-16.701
 21
54.75
  0
LINE
  8
0
 10
-16.701
 20
54.75
 11
-16.6172
 21
54.5813
  0
LINE
  8
0
 10
-16.6172
 20
54.5813
 11
-16.5553
 21
54.4034
  0
LINE
  8
0
 10
-16.5553
 20
54.4034
 11
-16.5161
 21
54.2191
  0
LINE
  8
0
 10
-16.5161
 20
54.2191
 11
-16.5003
 21
54.0314
  0
LINE
  8
0
 10
-16.5003
 20
54.0314
 11
-16.5082
 21
53.8432
  0
LINE
  8
0
 10
-16.5082
 20
53.8432
 11
-16.5396
 21
53.6575
  0
LINE
  8
0
 10
-16.5396
 20
53.6575
 11
-16.5941
 21
53.4771
  0
LINE
  8
0
 10
-16.5941
 20
53.4771
 11
-16.6707
 21
53.3051
  0
LINE
  8
0
 10
-16.6707
 20
53.3051
 11
-16.7683
 21
53.1439
  0
LINE
  8
0
 10
-16.7683
 20
53.1439
 11
-16.8853
 21
52.9963
  0
LINE
  8
0
 10
-16.8853
 20
52.9963
 11
-17.0199
 21
52.8645
  0
LINE
  8
0
 10
-17.0199
 20
52.8645
 11
-17.1699
 21
52.7506
  0
LINE
  8
0
 10
-17.1699
 20
52.7506
 11
-17.333
 21
52.6564
  0
LINE
  8
0
 10
-17.333
 20
52.6564
 11
-17.5067
 21
52.5835
  0
LINE
  8
0
 10
-17.5067
 20
52.5835
 11
-17.6881
 21
52.5328
  0
LINE
  8
0
 10
-17.6881
 20
52.5328
 11
-17.8745
 21
52.5053
  0
LINE
  8
0
 10
-17.8745
 20
52.5053
 11
-18.0628
 21
52.5013
  0
LINE
  8
0
 10
-18.0628
 20
52.5013
 11
-18.2502
 21
52.521
  0
LINE
  8
0
 10
-15.1884
 20
36.0059
 11
-15.5621
 21
36.0531
  0
LINE
  8
0
 10
-15.5621
 20
36.0531
 11
-15.927
 21
36.1468
  0
LINE
  8
0
 10
-15.927
 20
36.1468
 11
-16.2773
 21
36.2855
  0
LINE
  8
0
 10
-16.2773
 20
36.2855
 11
-16.6075
 21
36.467
  0
LINE
  8
0
 10
-16.6075
 20
36.467
 11
-16.9123
 21
36.6885
  0
LINE
  8
0
 10
-16.9123
 20
36.6885
 11
-17.1869
 21
36.9464
  0
LINE
  8
0
 10
-17.1869
 20
36.9464
 11
-17.427
 21
37.2366
  0
LINE
  8
0
 10
-17.427
 20
37.2366
 11
-17.6289
 21
37.5547
  0
LINE
  8
0
 10
-17.6289
 20
37.5547
 11
-17.7893
 21
37.8956
  0
LINE
  8
0
 10
-17.7893
 20
37.8956
 11
-17.9057
 21
38.2539
  0
LINE
  8
0
 10
-17.9057
 20
38.2539
 11
-17.9763
 21
38.624
  0
LINE
  8
0
 10
-17.9763
 20
38.624
 11
-18
 21
39
  0
LINE
  8
0
 10
-18
 20
39
 11
-17.9763
 21
39.376
  0
LINE
  8
0
 10
-17.9763
 20
39.376
 11
-17.9057
 21
39.7461
  0
LINE
  8
0
 10
-17.9057
 20
39.7461
 11
-17.7893
 21
40.1044
  0
LINE
  8
0
 10
-17.7893
 20
40.1044
 11
-17.6289
 21
40.4453
  0
LINE
  8
0
 10
-17.6289
 20
40.4453
 11
-17.427
 21
40.7634
  0
LINE
  8
0
 10
-17.427
 20
40.7634
 11
-17.1869
 21
41.0536
  0
LINE
  8
0
 10
-17.1869
 20
41.0536
 11
-16.9123
 21
41.3116
  0
LINE
  8
0
 10
-16.9123
 20
41.3116
 11
-16.6075
 21
41.533
  0
LINE
  8
0
 10
-16.6075
 20
41.533
 11
-16.2773
 21
41.7145
  0
LINE
  8
0
 10
-16.2773
 20
41.7145
 11
-15.927
 21
41.8532
  0
LINE
  8
0
 10
-15.927
 20
41.8532
 11
-15.5621
 21
41.9469
  0
LINE
  8
0
 10
-15.5621
 20
41.9469
 11
-15.1884
 21
41.9941
  0
LINE
  8
0
 10
-15.1884
 20
41.9941
 11
-14.8116
 21
41.9941
  0
LINE
  8
0
 10
-14.8116
 20
41.9941
 11
-14.4379
 21
41.9469
  0
LINE
  8
0
 10
-14.4379
 20
41.9469
 11
-14.0729
 21
41.8532
  0
LINE
  8
0
 10
-14.0729
 20
41.8532
 11
-13.7227
 21
41.7145
  0
LINE
  8
0
 10
-13.7227
 20
41.7145
 11
-13.3925
 21
41.533
  0
LINE
  8
0
 10
-13.3925
 20
41.533
 11
-13.0877
 21
41.3116
  0
LINE
  8
0
 10
-13.0877
 20
41.3116
 11
-12.8131
 21
41.0536
  0
LINE
  8
0
 10
-12.8131
 20
41.0536
 11
-12.5729
 21
40.7634
  0
LINE
  8
0
 10
-12.5729
 20
40.7634
 11
-12.3711
 21
40.4453
  0
LINE
  8
0
 10
-12.3711
 20
40.4453
 11
-12.2107
 21
40.1044
  0
LINE
  8
0
 10
-12.2107
 20
40.1044
 11
-12.0942
 21
39.7461
  0
LINE
  8
0
 10
-12.0942
 20
39.7461
 11
-12.0237
 21
39.376
  0
LINE
  8
0
 10
-12.0237
 20
39.376
 11
-12
 21
39
  0
LINE
  8
0
 10
-12
 20
39
 11
-12.0237
 21
38.624
  0
LINE
  8
0
 10
-12.0237
 20
38.624
 11
-12.0942
 21
38.2539
  0
LINE
  8
0
 10
-12.0942
 20
38.2539
 11
-12.2107
 21
37.8956
  0
LINE
  8
0
 10
-12.2107
 20
37.8956
 11
-12.3711
 21
37.5547
  0
LINE
  8
0
 10
-12.3711
 20
37.5547
 11
-12.5729
 21
37.2366
  0
LINE
  8
0
 10
-12.5729
 20
37.2366
 11
-12.8131
 21
36.9464
  0
LINE
  8
0
 10
-12.8131
 20
36.9464
 11
-13.0877
 21
36.6885
  0
LINE
  8
0
 10
-13.0877
 20
36.6885
 11
-13.3925
 21
36.467
  0
LINE
  8
0
 10
-13.3925
 20
36.467
 11
-13.7227
 21
36.2855
  0
LINE
  8
0
 10
-13.7227
 20
36.2855
 11
-14.0729
 21
36.1468
  0
LINE
  8
0
 10
-14.0729
 20
36.1468
 11
-14.4379
 21
36.0531
  0
LINE
  8
0
 10
-14.4379
 20
36.0531
 11
-14.8116
 21
36.0059
  0
LINE
  8
0
 10
-14.8116
 20
36.0059
 11
-15.1884
 21
36.0059
  0
LINE
  8
0
 10
14.8116
 20
36.0059
 11
14.4379
 21
36.0531
  0
LINE
  8
0
 10
14.4379
 20
36.0531
 11
14.0729
 21
36.1468
  0
LINE
  8
0
 10
14.0729
 20
36.1468
 11
13.7227
 21
36.2855
  0
LINE
  8
0
 10
13.7227
 20
36.2855
 11
13.3925
 21
36.467
  0
LINE
  8
0
 10
13.3925
 20
36.467
 11
13.0877
 21
36.6885
  0
LINE
  8
0
 10
13.0877
 20
36.6885
 11
12.8131
 21
36.9464
  0
LINE
  8
0
 10
12.8131
 20
36.9464
 11
12.5729
 21
37.2366
  0
LINE
  8
0
 10
12.5729
 20
37.2366
 11
12.3711
 21
37.5547
  0
LINE
  8
0
 10
12.3711
 20
37.5547
 11
12.2107
 21
37.8956
  0
LINE
  8
0
 10
12.2107
 20
37.8956
 11
12.0942
 21
38.2539
  0
LINE
  8
0
 10
12.0942
 20
38.2539
 11
12.0237
 21
38.624
  0
LINE
  8
0
 10
12.0237
 20
38.624
 11
12
 21
39
  0
LINE
  8
0
 10
12
 20
39
 11
12.0237
 21
39.376
  0
LINE
  8
0
 10
12.0237
 20
39.376
 11
12.0942
 21
39.7461
  0
LINE
  8
0
 10
12.0942
 20
39.7461
 11
12.2107
 21
40.1044
  0
LINE
  8
0
 10
12.2107
 20
40.1044
 11
12.3711
 21
40.4453
  0
LINE
  8
0
 10
12.3711
 20
40.4453
 11
12.5729
 21
40.7634
  0
LINE
  8
0
 10
12.5729
 20
40.7634
 11
12.8131
 21
41.0536
  0
LINE
  8
0
 10
12.8131
 20
41.0536
 11
13.0877
 21
41.3116
  0
LINE
  8
0
 10
13.0877
 20
41.3116
 11
13.3925
 21
41.533
  0
LINE
  8
0
 10
13.3925
 20
41.533
 11
13.7227
 21
41.7145
  0
LINE
  8
0
 10
13.7227
 20
41.7145
 11
14.0729
 21
41.8532
  0
LINE
  8
0
 10
14.0729
 20
41.8532
 11
14.4379
 21
41.9469
  0
LINE
  8
0
 10
14.4379
 20
41.9469
 11
14.8116
 21
41.9941
  0
LINE
  8
0
 10
14.8116
 20
41.9941
 11
15.1884
 21
41.9941
  0
LINE
  8
0
 10
15.1884
 20
41.9941
 11
15.5621
 21
41.9469
  0
LINE
  8
0
 10
15.5621
 20
41.9469
 11
15.927
 21
41.8532
  0
LINE
  8
0
 10
15.927
 20
41.8532
 11
16.2773
 21
41.7145
  0
LINE
  8
0
 10
16.2773
 20
41.7145
 11
16.6075
 21
41.533
  0
LINE
  8
0
 10
16.6075
 20
41.533
 11
16.9123
 21
41.3116
  0
LINE
  8
0
 10
16.9123
 20
41.3116
 11
17.1869
 21
41.0536
  0
LINE
  8
0
 10
17.1869
 20
41.0536
 11
17.427
 21
40.7634
  0
LINE
  8
0
 10
17.427
 20
40.7634
 11
17.6289
 21
40.4453
  0
LINE
  8
0
 10
17.6289
 20
40.4453
 11
17.7893
 21
40.1044
  0
LINE
  8
0
 10
17.7893
 20
40.1044
 11
17.9057
 21
39.7461
  0
LINE
  8
0
 10
17.9057
 20
39.7461
 11
17.9763
 21
39.376
  0
LINE
  8
0
 10
17.9763
 20
39.376
 11
18
 21
39
  0
LINE
  8
0
 10
18
 20
39
 11
17.9763
 21
38.624
  0
LINE
  8
0
 10
17.9763
 20
38.624
 11
17.9057
 21
38.2539
  0
LINE
  8
0
 10
17.9057
 20
38.2539
 11
17.7893
 21
37.8956
  0
LINE
  8
0
 10
17.7893
 20
37.8956
 11
17.6289
 21
37.5547
  0
LINE
  8
0
 10
17.6289
 20
37.5547
 11
17.427
 21
37.2366
  0
LINE
  8
0
 10
17.427
 20
37.2366
 11
17.1869
 21
36.9464
  0
LINE
  8
0
 10
17.1869
 20
36.9464
 11
16.9123
 21
36.6885
  0
LINE
  8
0
 10
16.9123
 20
36.6885
 11
16.6075
 21
36.467
  0
LINE
  8
0
 10
16.6075
 20
36.467
 11
16.2773
 21
36.2855
  0
LINE
  8
0
 10
16.2773
 20
36.2855
 11
15.927
 21
36.1468
  0
LINE
  8
0
 10
15.927
 20
36.1468
 11
15.5621
 21
36.0531
  0
LINE
  8
0
 10
15.5621
 20
36.0531
 11
15.1884
 21
36.0059
  0
LINE
  8
0
 10
15.1884
 20
36.0059
 11
14.8116
 21
36.0059
  0
LINE
  8
0
 10
-0.0941772
 20
34.503
 11
-0.281067
 21
34.5266
  0
LINE
  8
0
 10
-0.281067
 20
34.5266
 11
-0.463516
 21
34.5734
  0
LINE
  8
0
 10
-0.463516
 20
34.5734
 11
-0.638657
 21
34.6428
  0
LINE
  8
0
 10
-0.638657
 20
34.6428
 11
-0.803726
 21
34.7335
  0
LINE
  8
0
 10
-0.803726
 20
34.7335
 11
-0.956131
 21
34.8442
  0
LINE
  8
0
 10
-0.956131
 20
34.8442
 11
-1.09344
 21
34.9732
  0
LINE
  8
0
 10
-1.09344
 20
34.9732
 11
-1.21352
 21
35.1183
  0
LINE
  8
0
 10
-1.21352
 20
35.1183
 11
-1.31445
 21
35.2774
  0
LINE
  8
0
 10
-1.31445
 20
35.2774
 11
-1.39465
 21
35.4478
  0
LINE
  8
0
 10
-1.39465
 20
35.4478
 11
-1.45287
 21
35.627
  0
LINE
  8
0
 10
-1.45287
 20
35.627
 11
-1.48816
 21
35.812
  0
LINE
  8
0
 10
-1.48816
 20
35.812
 11
-1.5
 21
36
  0
LINE
  8
0
 10
-1.5
 20
36
 11
-1.48816
 21
36.188
  0
LINE
  8
0
 10
-1.48816
 20
36.188
 11
-1.45287
 21
36.373
  0
LINE
  8
0
 10
-1.45287
 20
36.373
 11
-1.39465
 21
36.5522
  0
LINE
  8
0
 10
-1.39465
 20
36.5522
 11
-1.31445
 21
36.7226
  0
LINE
  8
0
 10
-1.31445
 20
36.7226
 11
-1.21352
 21
36.8817
  0
LINE
  8
0
 10
-1.21352
 20
36.8817
 11
-1.09344
 21
37.0268
  0
LINE
  8
0
 10
-1.09344
 20
37.0268
 11
-0.956131
 21
37.1558
  0
LINE
  8
0
 10
-0.956131
 20
37.1558
 11
-0.803726
 21
37.2665
  0
LINE
  8
0
 10
-0.803726
 20
37.2665
 11
-0.638657
 21
37.3572
  0
LINE
  8
0
 10
-0.638657
 20
37.3572
 11
-0.463516
 21
37.4266
  0
LINE
  8
0
 10
-0.463516
 20
37.4266
 11
-0.281067
 21
37.4734
  0
LINE
  8
0
 10
-0.281067
 20
37.4734
 11
-0.0941772
 21
37.497
  0
LINE
  8
0
 10
-0.0941772
 20
37.497
 11
0.0941772
 21
37.497
  0
LINE
  8
0
 10
0.0941772
 20
37.497
 11
0.281067
 21
37.4734
  0
LINE
  8
0
 10
0.281067
 20
37.4734
 11
0.463516
 21
37.4266
  0
LINE
  8
0
 10
0.463516
 20
37.4266
 11
0.638657
 21
37.3572
  0
LINE
  8
0
 10
0.638657
 20
37.3572
 11
0.803726
 21
37.2665
  0
LINE
  8
0
 10
0.803726
 20
37.2665
 11
0.956131
 21
37.1558
  0
LINE
  8
0
 10
0.956131
 20
37.1558
 11
1.09344
 21
37.0268
  0
LINE
  8
0
 10
1.09344
 20
37.0268
 11
1.21352
 21
36.8817
  0
LINE
  8
0
 10
1.21352
 20
36.8817
 11
1.31445
 21
36.7226
  0
LINE
  8
0
 10
1.31445
 20
36.7226
 11
1.39465
 21
36.5522
  0
LINE
  8
0
 10
1.39465
 20
36.5522
 11
1.45287
 21
36.373
  0
LINE
  8
0
 10
1.45287
 20
36.373
 11
1.48816
 21
36.188
  0
LINE
  8
0
 10
1.48816
 20
36.188
 11
1.5
 21
36
  0
LINE
  8
0
 10
1.5
 20
36
 11
1.48816
 21
35.812
  0
LINE
  8
0
 10
1.48816
 20
35.812
 11
1.45287
 21
35.627
  0
LINE
  8
0
 10
1.45287
 20
35.627
 11
1.39465
 21
35.4478
  0
LINE
  8
0
 10
1.39465
 20
35.4478
 11
1.31445
 21
35.2774
  0
LINE
  8
0
 10
1.31445
 20
35.2774
 11
1.21352
 21
35.1183
  0
LINE
  8
0
 10
1.21352
 20
35.1183
 11
1.09344
 21
34.9732
  0
LINE
  8
0
 10
1.09344
 20
34.9732
 11
0.956131
 21
34.8442
  0
LINE
  8
0
 10
0.956131
 20
34.8442
 11
0.803726
 21
34.7335
  0
LINE
  8
0
 10
0.803726
 20
34.7335
 11
0.638657
 21
34.6428
  0
LINE
  8
0
 10
0.638657
 20
34.6428
 11
0.463516
 21
34.5734
  0
LINE
  8
0
 10
0.463516
 20
34.5734
 11
0.281067
 21
34.5266
  0
LINE
  8
0
 10
0.281067
 20
34.5266
 11
0.0941772
 21
34.503
  0
LINE
  8
0
 10
0.0941772
 20
34.503
 11
-0.0941772
 21
34.503
  0
LINE
  8
0
 10
18.4369
 20
-22.4114
 11
19.0451
 21
-22.2553
  0
LINE
  8
0
 10
19.0451
 20
-22.2553
 11
19.6289
 21
-22.0241
  0
LINE
  8
0
 10
19.6289
 20
-22.0241
 11
20.1791
 21
-21.7216
  0
LINE
  8
0
 10
20.1791
 20
-21.7216
 11
20.6871
 21
-21.3526
  0
LINE
  8
0
 10
20.6871
 20
-21.3526
 11
21.1448
 21
-20.9227
  0
LINE
  8
0
 10
21.1448
 20
-20.9227
 11
21.5451
 21
-20.4389
  0
LINE
  8
0
 10
21.5451
 20
-20.4389
 11
21.8815
 21
-19.9088
  0
LINE
  8
0
 10
21.8815
 20
-19.9088
 11
22.1489
 21
-19.3406
  0
LINE
  8
0
 10
22.1489
 20
-19.3406
 11
22.3429
 21
-18.7434
  0
LINE
  8
0
 10
22.3429
 20
-18.7434
 11
22.4606
 21
-18.1267
  0
LINE
  8
0
 10
22.4606
 20
-18.1267
 11
22.5
 21
-17.5
  0
LINE
  8
0
 10
22.5
 20
-17.5
 11
22.5
 21
17.5
  0
LINE
  8
0
 10
22.5
 20
17.5
 11
22.4606
 21
18.1267
  0
LINE
  8
0
 10
22.4606
 20
18.1267
 11
22.3429
 21
18.7434
  0
LINE
  8
0
 10
22.3429
 20
18.7434
 11
22.1489
 21
19.3406
  0
LINE
  8
0
 10
22.1489
 20
19.3406
 11
21.8815
 21
19.9088
  0
LINE
  8
0
 10
21.8815
 20
19.9088
 11
21.5451
 21
20.4389
  0
LINE
  8
0
 10
21.5451
 20
20.4389
 11
21.1448
 21
20.9227
  0
LINE
  8
0
 10
21.1448
 20
20.9227
 11
20.6871
 21
21.3526
  0
LINE
  8
0
 10
20.6871
 20
21.3526
 11
20.1791
 21
21.7216
  0
LINE
  8
0
 10
20.1791
 20
21.7216
 11
19.6289
 21
22.0241
  0
LINE
  8
0
 10
19.6289
 20
22.0241
 11
19.0451
 21
22.2553
  0
LINE
  8
0
 10
19.0451
 20
22.2553
 11
18.4369
 21
22.4114
  0
LINE
  8
0
 10
18.4369
 20
22.4114
 11
17.8139
 21
22.4901
  0
LINE
  8
0
 10
17.8139
 20
22.4901
 11
-17.8139
 21
22.4901
  0
LINE
  8
0
 10
-17.8139
 20
22.4901
 11
-18.4369
 21
22.4114
  0
LINE
  8
0
 10
-18.4369
 20
22.4114
 11
-19.0451
 21
22.2553
  0
LINE
  8
0
 10
-19.0451
 20
22.2553
 11
-19.6289
 21
22.0241
  0
LINE
  8
0
 10
-19.6289
 20
22.0241
 11
-20.1791
 21
21.7216
  0
LINE
  8
0
 10
-20.1791
 20
21.7216
 11
-20.6871
 21
21.3526
  0
LINE
  8
0
 10
-20.6871
 20
21.3526
 11
-21.1448
 21
20.9227
  0
LINE
  8
0
 10
-21.1448
 20
20.9227
 11
-21.5451
 21
20.4389
  0
LINE
  8
0
 10
-21.5451
 20
20.4389
 11
-21.8815
 21
19.9088
  0
LINE
  8
0
 10
-21.8815
 20
19.9088
 11
-22.1489
 21
19.3406
  0
LINE
  8
0
 10
-22.1489
 20
19.3406
 11
-22.3429
 21
18.7434
  0
LINE
  8
0
 10
-22.3429
 20
18.7434
 11
-22.4606
 21
18.1267
  0
LINE
  8
0
 10
-22.4606
 20
18.1267
 11
-22.5
 21
17.5
  0
LINE
  8
0
 10
-22.5
 20
17.5
 11
-22.5
 21
-17.5
  0
LINE
  8
0
 10
-22.5
 20
-17.5
 11
-22.4606
 21
-18.1267
  0
LINE
  8
0
 10
-22.4606
 20
-18.1267
 11
-22.3429
 21
-18.7434
  0
LINE
  8
0
 10
-22.3429
 20
-18.7434
 11
-22.1489
 21
-19.3406
  0
LINE
  8
0
 10
-22.1489
 20
-19.3406
 11
-21.8815
 21
-19.9088
  0
LINE
  8
0
 10
-21.8815
 20
-19.9088
 11
-21.5451
 21
-20.4389
  0
LINE
  8
0
 10
-21.5451
 20
-20.4389
 11
-21.1448
 21
-20.9227
  0
LINE
  8
0
 10
-21.1448
 20
-20.9227
 11
-20.6871
 21
-21.3526
  0
LINE
  8
0
 10
-20.6871
 20
-21.3526
 11
-20.1791
 21
-21.7216
  0
LINE
  8
0
 10
-20.1791
 20
-21.7216
 11
-19.6289
 21
-22.0241
  0
LINE
  8
0
 10
-19.6289
 20
-22.0241
 11
-19.0451
 21
-22.2553
  0
LINE
  8
0
 10
-19.0451
 20
-22.2553
 11
-18.4369
 21
-22.4114
  0
LINE
  8
0
 10
-18.4369
 20
-22.4114
 11
-17.8139
 21
-22.4901
  0
LINE
  8
0
 10
-17.8139
 20
-22.4901
 11
17.8139
 21
-22.4901
  0
LINE
  8
0
 10
17.8139
 20
-22.4901
 11
18.4369
 21
-22.4114
  0
LINE
  8
0
 10
-1.58675
 20
15.2517
 11
-3.17349
 21
18
  0
LINE
  8
0
 10
-3.17349
 20
18
 11
-1.58675
 21
20.7483
  0
LINE
  8
0
 10
-1.58675
 20
20.7483
 11
1.58675
 21
20.7483
  0
LINE
  8
0
 10
1.58675
 20
20.7483
 11
3.17349
 21
18
  0
LINE
  8
0
 10
3.17349
 20
18
 11
1.58675
 21
15.2517
  0
LINE
  8
0
 10
1.58675
 20
15.2517
 11
-1.58675
 21
15.2517
  0
LINE
  8
0
 10
14.8116
 20
12.0059
 11
14.4379
 21
12.0531
  0
LINE
  8
0
 10
14.4379
 20
12.0531
 11
14.0729
 21
12.1468
  0
LINE
  8
0
 10
14.0729
 20
12.1468
 11
13.7227
 21
12.2855
  0
LINE
  8
0
 10
13.7227
 20
12.2855
 11
13.3925
 21
12.467
  0
LINE
  8
0
 10
13.3925
 20
12.467
 11
13.0877
 21
12.6884
  0
LINE
  8
0
 10
13.0877
 20
12.6884
 11
12.8131
 21
12.9464
  0
LINE
  8
0
 10
12.8131
 20
12.9464
 11
12.5729
 21
13.2366
  0
LINE
  8
0
 10
12.5729
 20
13.2366
 11
12.3711
 21
13.5547
  0
LINE
  8
0
 10
12.3711
 20
13.5547
 11
12.2107
 21
13.8956
  0
LINE
  8
0
 10
12.2107
 20
13.8956
 11
12.0942
 21
14.2539
  0
LINE
  8
0
 10
12.0942
 20
14.2539
 11
12.0237
 21
14.624
  0
LINE
  8
0
 10
12.0237
 20
14.624
 11
12
 21
15
  0
LINE
  8
0
 10
12
 20
15
 11
12.0237
 21
15.376
  0
LINE
  8
0
 10
12.0237
 20
15.376
 11
12.0942
 21
15.7461
  0
LINE
  8
0
 10
12.0942
 20
15.7461
 11
12.2107
 21
16.1044
  0
LINE
  8
0
 10
12.2107
 20
16.1044
 11
12.3711
 21
16.4453
  0
LINE
  8
0
 10
12.3711
 20
16.4453
 11
12.5729
 21
16.7634
  0
LINE
  8
0
 10
12.5729
 20
16.7634
 11
12.8131
 21
17.0536
  0
LINE
  8
0
 10
12.8131
 20
17.0536
 11
13.0877
 21
17.3115
  0
LINE
  8
0
 10
13.0877
 20
17.3115
 11
13.3925
 21
17.533
  0
LINE
  8
0
 10
13.3925
 20
17.533
 11
13.7227
 21
17.7145
  0
LINE
  8
0
 10
13.7227
 20
17.7145
 11
14.0729
 21
17.8532
  0
LINE
  8
0
 10
14.0729
 20
17.8532
 11
14.4379
 21
17.9469
  0
LINE
  8
0
 10
14.4379
 20
17.9469
 11
14.8116
 21
17.9941
  0
LINE
  8
0
 10
14.8116
 20
17.9941
 11
15.1884
 21
17.9941
  0
LINE
  8
0
 10
15.1884
 20
17.9941
 11
15.5621
 21
17.9469
  0
LINE
  8
0
 10
15.5621
 20
17.9469
 11
15.927
 21
17.8532
  0
LINE
  8
0
 10
15.927
 20
17.8532
 11
16.2773
 21
17.7145
  0
LINE
  8
0
 10
16.2773
 20
17.7145
 11
16.6075
 21
17.533
  0
LINE
  8
0
 10
16.6075
 20
17.533
 11
16.9123
 21
17.3115
  0
LINE
  8
0
 10
16.9123
 20
17.3115
 11
17.1869
 21
17.0536
  0
LINE
  8
0
 10
17.1869
 20
17.0536
 11
17.427
 21
16.7634
  0
LINE
  8
0
 10
17.427
 20
16.7634
 11
17.6289
 21
16.4453
  0
LINE
  8
0
 10
17.6289
 20
16.4453
 11
17.7893
 21
16.1044
  0
LINE
  8
0
 10
17.7893
 20
16.1044
 11
17.9057
 21
15.7461
  0
LINE
  8
0
 10
17.9057
 20
15.7461
 11
17.9763
 21
15.376
  0
LINE
  8
0
 10
17.9763
 20
15.376
 11
18
 21
15
  0
LINE
  8
0
 10
18
 20
15
 11
17.9763
 21
14.624
  0
LINE
  8
0
 10
17.9763
 20
14.624
 11
17.9057
 21
14.2539
  0
LINE
  8
0
 10
17.9057
 20
14.2539
 11
17.7893
 21
13.8956
  0
LINE
  8
0
 10
17.7893
 20
13.8956
 11
17.6289
 21
13.5547
  0
LINE
  8
0
 10
17.6289
 20
13.5547
 11
17.427
 21
13.2366
  0
LINE
  8
0
 10
17.427
 20
13.2366
 11
17.1869
 21
12.9464
  0
LINE
  8
0
 10
17.1869
 20
12.9464
 11
16.9123
 21
12.6884
  0
LINE
  8
0
 10
16.9123
 20
12.6884
 11
16.6075
 21
12.467
  0
LINE
  8
0
 10
16.6075
 20
12.467
 11
16.2773
 21
12.2855
  0
LINE
  8
0
 10
16.2773
 20
12.2855
 11
15.927
 21
12.1468
  0
LINE
  8
0
 10
15.927
 20
12.1468
 11
15.5621
 21
12.0531
  0
LINE
  8
0
 10
15.5621
 20
12.0531
 11
15.1884
 21
12.0059
  0
LINE
  8
0
 10
15.1884
 20
12.0059
 11
14.8116
 21
12.0059
  0
LINE
  8
0
 10
-15.1884
 20
12.0059
 11
-15.5621
 21
12.0531
  0
LINE
  8
0
 10
-15.5621
 20
12.0531
 11
-15.927
 21
12.1468
  0
LINE
  8
0
 10
-15.927
 20
12.1468
 11
-16.2773
 21
12.2855
  0
LINE
  8
0
 10
-16.2773
 20
12.2855
 11
-16.6075
 21
12.467
  0
LINE
  8
0
 10
-16.6075
 20
12.467
 11
-16.9123
 21
12.6884
  0
LINE
  8
0
 10
-16.9123
 20
12.6884
 11
-17.1869
 21
12.9464
  0
LINE
  8
0
 10
-17.1869
 20
12.9464
 11
-17.427
 21
13.2366
  0
LINE
  8
0
 10
-17.427
 20
13.2366
 11
-17.6289
 21
13.5547
  0
LINE
  8
0
 10
-17.6289
 20
13.5547
 11
-17.7893
 21
13.8956
  0
LINE
  8
0
 10
-17.7893
 20
13.8956
 11
-17.9057
 21
14.2539
  0
LINE
  8
0
 10
-17.9057
 20
14.2539
 11
-17.9763
 21
14.624
  0
LINE
  8
0
 10
-17.9763
 20
14.624
 11
-18
 21
15
  0
LINE
  8
0
 10
-18
 20
15
 11
-17.9763
 21
15.376
  0
LINE
  8
0
 10
-17.9763
 20
15.376
 11
-17.9057
 21
15.7461
  0
LINE
  8
0
 10
-17.9057
 20
15.7461
 11
-17.7893
 21
16.1044
  0
LINE
  8
0
 10
-17.7893
 20
16.1044
 11
-17.6289
 21
16.4453
  0
LINE
  8
0
 10
-17.6289
 20
16.4453
 11
-17.427
 21
16.7634
  0
LINE
  8
0
 10
-17.427
 20
16.7634
 11
-17.1869
 21
17.0536
  0
LINE
  8
0
 10
-17.1869
 20
17.0536
 11
-16.9123
 21
17.3115
  0
LINE
  8
0
 10
-16.9123
 20
17.3115
 11
-16.6075
 21
17.533
  0
LINE
  8
0
 10
-16.6075
 20
17.533
 11
-16.2773
 21
17.7145
  0
LINE
  8
0
 10
-16.2773
 20
17.7145
 11
-15.927
 21
17.8532
  0
LINE
  8
0
 10
-15.927
 20
17.8532
 11
-15.5621
 21
17.9469
  0
LINE
  8
0
 10
-15.5621
 20
17.9469
 11
-15.1884
 21
17.9941
  0
LINE
  8
0
 10
-15.1884
 20
17.9941
 11
-14.8116
 21
17.9941
  0
LINE
  8
0
 10
-14.8116
 20
17.9941
 11
-14.4379
 21
17.9469
  0
LINE
  8
0
 10
-14.4379
 20
17.9469
 11
-14.0729
 21
17.8532
  0
LINE
  8
0
 10
-14.0729
 20
17.8532
 11
-13.7227
 21
17.7145
  0
LINE
  8
0
 10
-13.7227
 20
17.7145
 11
-13.3925
 21
17.533
  0
LINE
  8
0
 10
-13.3925
 20
17.533
 11
-13.0877
 21
17.3115
  0
LINE
  8
0
 10
-13.0877
 20
17.3115
 11
-12.8131
 21
17.0536
  0
LINE
  8
0
 10
-12.8131
 20
17.0536
 11
-12.5729
 21
16.7634
  0
LINE
  8
0
 10
-12.5729
 20
16.7634
 11
-12.3711
 21
16.4453
  0
LINE
  8
0
 10
-12.3711
 20
16.4453
 11
-12.2107
 21
16.1044
  0
LINE
  8
0
 10
-12.2107
 20
16.1044
 11
-12.0942
 21
15.7461
  0
LINE
  8
0
 10
-12.0942
 20
15.7461
 11
-12.0237
 21
15.376
  0
LINE
  8
0
 10
-12.0237
 20
15.376
 11
-12
 21
15
  0
LINE
  8
0
 10
-12
 20
15
 11
-12.0237
 21
14.624
  0
LINE
  8
0
 10
-12.0237
 20
14.624
 11
-12.0942
 21
14.2539
  0
LINE
  8
0
 10
-12.0942
 20
14.2539
 11
-12.2107
 21
13.8956
  0
LINE
  8
0
 10
-12.2107
 20
13.8956
 11
-12.3711
 21
13.5547
  0
LINE
  8
0
 10
-12.3711
 20
13.5547
 11
-12.5729
 21
13.2366
  0
LINE
  8
0
 10
-12.5729
 20
13.2366
 11
-12.8131
 21
12.9464
  0
LINE
  8
0
 10
-12.8131
 20
12.9464
 11
-13.0877
 21
12.6884
  0
LINE
  8
0
 10
-13.0877
 20
12.6884
 11
-13.3925
 21
12.467
  0
LINE
  8
0
 10
-13.3925
 20
12.467
 11
-13.7227
 21
12.2855
  0
LINE
  8
0
 10
-13.7227
 20
12.2855
 11
-14.0729
 21
12.1468
  0
LINE
  8
0
 10
-14.0729
 20
12.1468
 11
-14.4379
 21
12.0531
  0
LINE
  8
0
 10
-14.4379
 20
12.0531
 11
-14.8116
 21
12.0059
  0
LINE
  8
0
 10
-14.8116
 20
12.0059
 11
-15.1884
 21
12.0059
  0
LINE
  8
0
 10
-0.76918
 20
-12.2258
 11
-2.29541
 21
-12.033
  0
LINE
  8
0
 10
-2.29541
 20
-12.033
 11
-3.78545
 21
-11.6504
  0
LINE
  8
0
 10
-3.78545
 20
-11.6504
 11
-5.21579
 21
-11.0841
  0
LINE
  8
0
 10
-5.21579
 20
-11.0841
 11
-6.56387
 21
-10.343
  0
LINE
  8
0
 10
-6.56387
 20
-10.343
 11
-7.80844
 21
-9.43878
  0
LINE
  8
0
 10
-7.80844
 20
-9.43878
 11
-8.92986
 21
-8.3857
  0
LINE
  8
0
 10
-8.92986
 20
-8.3857
 11
-9.91045
 21
-7.20036
  0
LINE
  8
0
 10
-9.91045
 20
-7.20036
 11
-10.7348
 21
-5.90147
  0
LINE
  8
0
 10
-10.7348
 20
-5.90147
 11
-11.3898
 21
-4.50952
  0
LINE
  8
0
 10
-11.3898
 20
-4.50952
 11
-11.8651
 21
-3.04645
  0
LINE
  8
0
 10
-11.8651
 20
-3.04645
 11
-12.1534
 21
-1.53532
  0
LINE
  8
0
 10
-12.1534
 20
-1.53532
 11
-12.25
 21
0
  0
LINE
  8
0
 10
-12.25
 20
0
 11
-12.1534
 21
1.53532
  0
LINE
  8
0
 10
-12.1534
 20
1.53532
 11
-11.8651
 21
3.04645
  0
LINE
  8
0
 10
-11.8651
 20
3.04645
 11
-11.3898
 21
4.50952
  0
LINE
  8
0
 10
-11.3898
 20
4.50952
 11
-10.7348
 21
5.90147
  0
LINE
  8
0
 10
-10.7348
 20
5.90147
 11
-9.91045
 21
7.20036
  0
LINE
  8
0
 10
-9.91045
 20
7.20036
 11
-8.92986
 21
8.3857
  0
LINE
  8
0
 10
-8.92986
 20
8.3857
 11
-7.80844
 21
9.43878
  0
LINE
  8
0
 10
-7.80844
 20
9.43878
 11
-6.56387
 21
10.343
  0
LINE
  8
0
 10
-6.56387
 20
10.343
 11
-5.21579
 21
11.0841
  0
LINE
  8
0
 10
-5.21579
 20
11.0841
 11
-3.78545
 21
11.6504
  0
LINE
  8
0
 10
-3.78545
 20
11.6504
 11
-2.29541
 21
12.033
  0
LINE
  8
0
 10
-2.29541
 20
12.033
 11
-0.76918
 21
12.2258
  0
LINE
  8
0
 10
-0.76918
 20
12.2258
 11
0.76918
 21
12.2258
  0
LINE
  8
0
 10
0.76918
 20
12.2258
 11
2.29541
 21
12.033
  0
LINE
  8
0
 10
2.29541
 20
12.033
 11
3.78545
 21
11.6504
  0
LINE
  8
0
 10
3.78545
 20
11.6504
 11
5.21579
 21
11.0841
  0
LINE
  8
0
 10
5.21579
 20
11.0841
 11
6.56387
 21
10.343
  0
LINE
  8
0
 10
6.56387
 20
10.343
 11
7.80844
 21
9.43878
  0
LINE
  8
0
 10
7.80844
 20
9.43878
 11
8.92986
 21
8.3857
  0
LINE
  8
0
 10
8.92986
 20
8.3857
 11
9.91045
 21
7.20036
  0
LINE
  8
0
 10
9.91045
 20
7.20036
 11
10.7348
 21
5.90147
  0
LINE
  8
0
 10
10.7348
 20
5.90147
 11
11.3898
 21
4.50952
  0
LINE
  8
0
 10
11.3898
 20
4.50952
 11
11.8651
 21
3.04645
  0
LINE
  8
0
 10
11.8651
 20
3.04645
 11
12.1534
 21
1.53532
  0
LINE
  8
0
 10
12.1534
 20
1.53532
 11
12.25
 21
0
  0
LINE
  8
0
 10
12.25
 20
0
 11
12.1534
 21
-1.53532
  0
LINE
  8
0
 10
12.1534
 20
-1.53532
 11
11.8651
 21
-3.04645
  0
LINE
  8
0
 10
11.8651
 20
-3.04645
 11
11.3898
 21
-4.50952
  0
LINE
  8
0
 10
11.3898
 20
-4.50952
 11
10.7348
 21
-5.90147
  0
LINE
  8
0
 10
10.7348
 20
-5.90147
 11
9.91045
 21
-7.20036
  0
LINE
  8
0
 10
9.91045
 20
-7.20036
 11
8.92986
 21
-8.3857
  0
LINE
  8
0
 10
8.92986
 20
-8.3857
 11
7.80844
 21
-9.43878
  0
LINE
  8
0
 10
7.80844
 20
-9.43878
 11
6.56387
 21
-10.343
  0
LINE
  8
0
 10
6.56387
 20
-10.343
 11
5.21579
 21
-11.0841
  0
LINE
  8
0
 10
5.21579
 20
-11.0841
 11
3.78545
 21
-11.6504
  0
LINE
  8
0
 10
3.78545
 20
-11.6504
 11
2.29541
 21
-12.033
  0
LINE
  8
0
 10
2.29541
 20
-12.033
 11
0.76918
 21
-12.2258
  0
LINE
  8
0
 10
0.76918
 20
-12.2258
 11
-0.76918
 21
-12.2258
  0
LINE
  8
0
 10
2.10803
 20
-11.0507
 11
3.47644
 21
-10.6994
  0
LINE
  8
0
 10
3.47644
 20
-10.6994
 11
4.79001
 21
-10.1793
  0
LINE
  8
0
 10
4.79001
 20
-10.1793
 11
6.02805
 21
-9.49869
  0
LINE
  8
0
 10
6.02805
 20
-9.49869
 11
7.17101
 21
-8.66827
  0
LINE
  8
0
 10
7.17101
 20
-8.66827
 11
8.20088
 21
-7.70114
  0
LINE
  8
0
 10
8.20088
 20
-7.70114
 11
9.10144
 21
-6.61258
  0
LINE
  8
0
 10
9.10144
 20
-6.61258
 11
9.85844
 21
-5.41972
  0
LINE
  8
0
 10
9.85844
 20
-5.41972
 11
10.46
 21
-4.14139
  0
LINE
  8
0
 10
10.46
 20
-4.14139
 11
10.8965
 21
-2.79776
  0
LINE
  8
0
 10
10.8965
 20
-2.79776
 11
11.1613
 21
-1.40999
  0
LINE
  8
0
 10
11.1613
 20
-1.40999
 11
11.25
 21
0
  0
LINE
  8
0
 10
11.25
 20
0
 11
11.1613
 21
1.40999
  0
LINE
  8
0
 10
11.1613
 20
1.40999
 11
10.8965
 21
2.79776
  0
LINE
  8
0
 10
10.8965
 20
2.79776
 11
10.46
 21
4.14139
  0
LINE
  8
0
 10
10.46
 20
4.14139
 11
9.85844
 21
5.41972
  0
LINE
  8
0
 10
9.85844
 20
5.41972
 11
9.10144
 21
6.61258
  0
LINE
  8
0
 10
9.10144
 20
6.61258
 11
8.20088
 21
7.70114
  0
LINE
  8
0
 10
8.20088
 20
7.70114
 11
7.17101
 21
8.66827
  0
LINE
  8
0
 10
7.17101
 20
8.66827
 11
6.02805
 21
9.49869
  0
LINE
  8
0
 10
6.02805
 20
9.49869
 11
4.79001
 21
10.1793
  0
LINE
  8
0
 10
4.79001
 20
10.1793
 11
3.47644
 21
10.6994
  0
LINE
  8
0
 10
3.47644
 20
10.6994
 11
2.10803
 21
11.0507
  0
LINE
  8
0
 10
2.10803
 20
11.0507
 11
0.70639
 21
11.2278
  0
LINE
  8
0
 10
0.70639
 20
11.2278
 11
-0.70639
 21
11.2278
  0
LINE
  8
0
 10
-0.70639
 20
11.2278
 11
-2.10803
 21
11.0507
  0
LINE
  8
0
 10
-2.10803
 20
11.0507
 11
-3.47644
 21
10.6994
  0
LINE
  8
0
 10
-3.47644
 20
10.6994
 11
-4.79001
 21
10.1793
  0
LINE
  8
0
 10
-4.79001
 20
10.1793
 11
-6.02805
 21
9.49869
  0
LINE
  8
0
 10
-6.02805
 20
9.49869
 11
-7.17101
 21
8.66827
  0
LINE
  8
0
 10
-7.17101
 20
8.66827
 11
-8.20088
 21
7.70114
  0
LINE
  8
0
 10
-8.20088
 20
7.70114
 11
-9.10144
 21
6.61258
  0
LINE
  8
0
 10
-9.10144
 20
6.61258
 11
-9.85844
 21
5.41972
  0
LINE
  8
0
 10
-9.85844
 20
5.41972
 11
-10.46
 21
4.14139
  0
LINE
  8
0
 10
-10.46
 20
4.14139
 11
-10.8965
 21
2.79776
  0
LINE
  8
0
 10
-10.8965
 20
2.79776
 11
-11.1613
 21
1.40999
  0
LINE
  8
0
 10
-11.1613
 20
1.40999
 11
-11.25
 21
0
  0
LINE
  8
0
 10
-11.25
 20
0
 11
-11.1613
 21
-1.40999
  0
LINE
  8
0
 10
-11.1613
 20
-1.40999
 11
-10.8965
 21
-2.79776
  0
LINE
  8
0
 10
-10.8965
 20
-2.79776
 11
-10.46
 21
-4.14139
  0
LINE
  8
0
 10
-10.46
 20
-4.14139
 11
-9.85844
 21
-5.41972
  0
LINE
  8
0
 10
-9.85844
 20
-5.41972
 11
-9.10144
 21
-6.61258
  0
LINE
  8
0
 10
-9.10144
 20
-6.61258
 11
-8.20088
 21
-7.70114
  0
LINE
  8
0
 10
-8.20088
 20
-7.70114
 11
-7.17101
 21
-8.66827
  0
LINE
  8
0
 10
-7.17101
 20
-8.66827
 11
-6.02805
 21
-9.49869
  0
LINE
  8
0
 10
-6.02805
 20
-9.49869
 11
-4.79001
 21
-10.1793
  0
LINE
  8
0
 10
-4.79001
 20
-10.1793
 11
-3.47644
 21
-10.6994
  0
LINE
  8
0
 10
-3.47644
 20
-10.6994
 11
-2.10803
 21
-11.0507
  0
LINE
  8
0
 10
-2.10803
 20
-11.0507
 11
-0.70639
 21
-11.2278
  0
LINE
  8
0
 10
-0.70639
 20
-11.2278
 11
0.70639
 21
-11.2278
  0
LINE
  8
0
 10
0.70639
 20
-11.2278
 11
2.10803
 21
-11.0507
  0
LINE
  8
0
 10
-1.58675
 20
4.75168
 11
-3.17349
 21
7.5
  0
LINE
  8
0
 10
-3.17349
 20
7.5
 11
-1.58675
 21
10.2483
  0
LINE
  8
0
 10
-1.58675
 20
10.2483
 11
1.58675
 21
10.2483
  0
LINE
  8
0
 10
1.58675
 20
10.2483
 11
3.17349
 21
7.5
  0
LINE
  8
0
 10
3.17349
 20
7.5
 11
1.58675
 21
4.75168
  0
LINE
  8
0
 10
1.58675
 20
4.75168
 11
-1.58675
 21
4.75168
  0
LINE
  8
0
 10
-0.18837
 20
-2.99408
 11
-0.562134
 21
-2.94685
  0
LINE
  8
0
 10
-0.562134
 20
-2.94685
 11
-0.927048
 21
-2.85316
  0
LINE
  8
0
 10
-0.927048
 20
-2.85316
 11
-1.27733
 21
-2.71448
  0
LINE
  8
0
 10
-1.27733
 20
-2.71448
 11
-1.60747
 21
-2.53297
  0
LINE
  8
0
 10
-1.60747
 20
-2.53297
 11
-1.91226
 21
-2.31154
  0
LINE
  8
0
 10
-1.91226
 20
-2.31154
 11
-2.1869
 21
-2.05363
  0
LINE
  8
0
 10
-2.1869
 20
-2.05363
 11
-2.42705
 21
-1.76335
  0
LINE
  8
0
 10
-2.42705
 20
-1.76335
 11
-2.62891
 21
-1.44525
  0
LINE
  8
0
 10
-2.62891
 20
-1.44525
 11
-2.78932
 21
-1.10437
  0
LINE
  8
0
 10
-2.78932
 20
-1.10437
 11
-2.90575
 21
-0.746063
  0
LINE
  8
0
 10
-2.90575
 20
-0.746063
 11
-2.97633
 21
-0.375992
  0
LINE
  8
0
 10
-2.97633
 20
-0.375992
 11
-3
 21
0
  0
LINE
  8
0
 10
-3
 20
0
 11
-2.97633
 21
0.375992
  0
LINE
  8
0
 10
-2.97633
 20
0.375992
 11
-2.90575
 21
0.746063
  0
LINE
  8
0
 10
-2.90575
 20
0.746063
 11
-2.78932
 21
1.10437
  0
LINE
  8
0
 10
-2.78932
 20
1.10437
 11
-2.62891
 21
1.44525
  0
LINE
  8
0
 10
-2.62891
 20
1.44525
 11
-2.42705
 21
1.76335
  0
LINE
  8
0
 10
-2.42705
 20
1.76335
 11
-2.1869
 21
2.05363
  0
LINE
  8
0
 10
-2.1869
 20
2.05363
 11
-1.91226
 21
2.31154
  0
LINE
  8
0
 10
-1.91226
 20
2.31154
 11
-1.60747
 21
2.53297
  0
LINE
  8
0
 10
-1.60747
 20
2.53297
 11
-1.27733
 21
2.71448
  0
LINE
  8
0
 10
-1.27733
 20
2.71448
 11
-0.927048
 21
2.85316
  0
LINE
  8
0
 10
-0.927048
 20
2.85316
 11
-0.562134
 21
2.94685
  0
LINE
  8
0
 10
-0.562134
 20
2.94685
 11
-0.18837
 21
2.99408
  0
LINE
  8
0
 10
-0.18837
 20
2.99408
 11
0.18837
 21
2.99408
  0
LINE
  8
0
 10
0.18837
 20
2.99408
 11
0.562134
 21
2.94685
  0
LINE
  8
0
 10
0.562134
 20
2.94685
 11
0.927048
 21
2.85316
  0
LINE
  8
0
 10
0.927048
 20
2.85316
 11
1.27733
 21
2.71448
  0
LINE
  8
0
 10
1.27733
 20
2.71448
 11
1.60747
 21
2.53297
  0
LINE
  8
0
 10
1.60747
 20
2.53297
 11
1.91226
 21
2.31154
  0
LINE
  8
0
 10
1.91226
 20
2.31154
 11
2.1869
 21
2.05363
  0
LINE
  8
0
 10
2.1869
 20
2.05363
 11
2.42705
 21
1.76335
  0
LINE
  8
0
 10
2.42705
 20
1.76335
 11
2.62891
 21
1.44525
  0
LINE
  8
0
 10
2.62891
 20
1.44525
 11
2.78932
 21
1.10437
  0
LINE
  8
0
 10
2.78932
 20
1.10437
 11
2.90575
 21
0.746063
  0
LINE
  8
0
 10
2.90575
 20
0.746063
 11
2.97633
 21
0.375992
  0
LINE
  8
0
 10
2.97633
 20
0.375992
 11
3
 21
0
  0
LINE
  8
0
 10
3
 20
0
 11
2.97633
 21
-0.375992
  0
LINE
  8
0
 10
2.97633
 20
-0.375992
 11
2.90575
 21
-0.746063
  0
LINE
  8
0
 10
2.90575
 20
-0.746063
 11
2.78932
 21
-1.10437
  0
LINE
  8
0
 10
2.78932
 20
-1.10437
 11
2.62891
 21
-1.44525
  0
LINE
  8
0
 10
2.62891
 20
-1.44525
 11
2.42705
 21
-1.76335
  0
LINE
  8
0
 10
2.42705
 20
-1.76335
 11
2.1869
 21
-2.05363
  0
LINE
  8
0
 10
2.1869
 20
-2.05363
 11
1.91226
 21
-2.31154
  0
LINE
  8
0
 10
1.91226
 20
-2.31154
 11
1.60747
 21
-2.53297
  0
LINE
  8
0
 10
1.60747
 20
-2.53297
 11
1.27733
 21
-2.71448
  0
LINE
  8
0
 10
1.27733
 20
-2.71448
 11
0.927048
 21
-2.85316
  0
LINE
  8
0
 10
0.927048
 20
-2.85316
 11
0.562134
 21
-2.94685
  0
LINE
  8
0
 10
0.562134
 20
-2.94685
 11
0.18837
 21
-2.99408
  0
LINE
  8
0
 10
0.18837
 20
-2.99408
 11
-0.18837
 21
-2.99408
  0
LINE
  8
0
 10
7.38069
 20
-1.89624
 11
7.14397
 21
-1.86633
  0
LINE
  8
0
 10
7.14397
 20
-1.86633
 11
6.91286
 21
-1.80701
  0
LINE
  8
0
 10
6.91286
 20
-1.80701
 11
6.69101
 21
-1.71916
  0
LINE
  8
0
 10
6.69101
 20
-1.71916
 11
6.48192
 21
-1.60422
  0
LINE
  8
0
 10
6.48192
 20
-1.60422
 11
6.28888
 21
-1.46397
  0
LINE
  8
0
 10
6.28888
 20
-1.46397
 11
6.11494
 21
-1.30063
  0
LINE
  8
0
 10
6.11494
 20
-1.30063
 11
5.96286
 21
-1.11679
  0
LINE
  8
0
 10
5.96286
 20
-1.11679
 11
5.83501
 21
-0.915329
  0
LINE
  8
0
 10
5.83501
 20
-0.915329
 11
5.73341
 21
-0.699432
  0
LINE
  8
0
 10
5.73341
 20
-0.699432
 11
5.65968
 21
-0.472504
  0
LINE
  8
0
 10
5.65968
 20
-0.472504
 11
5.61497
 21
-0.238129
  0
LINE
  8
0
 10
5.61497
 20
-0.238129
 11
5.59999
 21
0
  0
LINE
  8
0
 10
5.59999
 20
0
 11
5.61497
 21
0.238129
  0
LINE
  8
0
 10
5.61497
 20
0.238129
 11
5.65968
 21
0.472504
  0
LINE
  8
0
 10
5.65968
 20
0.472504
 11
5.73341
 21
0.699432
  0
LINE
  8
0
 10
5.73341
 20
0.699432
 11
5.83501
 21
0.915329
  0
LINE
  8
0
 10
5.83501
 20
0.915329
 11
5.96286
 21
1.11679
  0
LINE
  8
0
 10
5.96286
 20
1.11679
 11
6.11494
 21
1.30063
  0
LINE
  8
0
 10
6.11494
 20
1.30063
 11
6.28888
 21
1.46397
  0
LINE
  8
0
 10
6.28888
 20
1.46397
 11
6.48192
 21
1.60422
  0
LINE
  8
0
 10
6.48192
 20
1.60422
 11
6.69101
 21
1.71916
  0
LINE
  8
0
 10
6.69101
 20
1.71916
 11
6.91286
 21
1.80701
  0
LINE
  8
0
 10
6.91286
 20
1.80701
 11
7.14397
 21
1.86633
  0
LINE
  8
0
 10
7.14397
 20
1.86633
 11
7.38069
 21
1.89624
  0
LINE
  8
0
 10
7.38069
 20
1.89624
 11
7.61929
 21
1.89624
  0
LINE
  8
0
 10
7.61929
 20
1.89624
 11
7.85602
 21
1.86633
  0
LINE
  8
0
 10
7.85602
 20
1.86633
 11
8.08713
 21
1.80701
  0
LINE
  8
0
 10
8.08713
 20
1.80701
 11
8.30898
 21
1.71916
  0
LINE
  8
0
 10
8.30898
 20
1.71916
 11
8.51807
 21
1.60422
  0
LINE
  8
0
 10
8.51807
 20
1.60422
 11
8.71111
 21
1.46397
  0
LINE
  8
0
 10
8.71111
 20
1.46397
 11
8.88504
 21
1.30063
  0
LINE
  8
0
 10
8.88504
 20
1.30063
 11
9.03712
 21
1.11679
  0
LINE
  8
0
 10
9.03712
 20
1.11679
 11
9.16498
 21
0.915329
  0
LINE
  8
0
 10
9.16498
 20
0.915329
 11
9.26657
 21
0.699432
  0
LINE
  8
0
 10
9.26657
 20
0.699432
 11
9.3403
 21
0.472504
  0
LINE
  8
0
 10
9.3403
 20
0.472504
 11
9.38501
 21
0.238129
  0
LINE
  8
0
 10
9.38501
 20
0.238129
 11
9.39999
 21
0
  0
LINE
  8
0
 10
9.39999
 20
0
 11
9.38501
 21
-0.238129
  0
LINE
  8
0
 10
9.38501
 20
-0.238129
 11
9.3403
 21
-0.472504
  0
LINE
  8
0
 10
9.3403
 20
-0.472504
 11
9.26657
 21
-0.699432
  0
LINE
  8
0
 10
9.26657
 20
-0.699432
 11
9.16498
 21
-0.915329
  0
LINE
  8
0
 10
9.16498
 20
-0.915329
 11
9.03712
 21
-1.11679
  0
LINE
  8
0
 10
9.03712
 20
-1.11679
 11
8.88504
 21
-1.30063
  0
LINE
  8
0
 10
8.88504
 20
-1.30063
 11
8.71111
 21
-1.46397
  0
LINE
  8
0
 10
8.71111
 20
-1.46397
 11
8.51807
 21
-1.60422
  0
LINE
  8
0
 10
8.51807
 20
-1.60422
 11
8.30898
 21
-1.71916
  0
LINE
  8
0
 10
8.30898
 20
-1.71916
 11
8.08713
 21
-1.80701
  0
LINE
  8
0
 10
8.08713
 20
-1.80701
 11
7.85602
 21
-1.86633
  0
LINE
  8
0
 10
7.85602
 20
-1.86633
 11
7.61929
 21
-1.89624
  0
LINE
  8
0
 10
7.61929
 20
-1.89624
 11
7.38069
 21
-1.89624
  0
LINE
  8
0
 10
-7.61929
 20
-1.89624
 11
-7.85602
 21
-1.86633
  0
LINE
  8
0
 10
-7.85602
 20
-1.86633
 11
-8.08713
 21
-1.80701
  0
LINE
  8
0
 10
-8.08713
 20
-1.80701
 11
-8.30898
 21
-1.71916
  0
LINE
  8
0
 10
-8.30898
 20
-1.71916
 11
-8.51807
 21
-1.60422
  0
LINE
  8
0
 10
-8.51807
 20
-1.60422
 11
-8.71111
 21
-1.46397
  0
LINE
  8
0
 10
-8.71111
 20
-1.46397
 11
-8.88504
 21
-1.30063
  0
LINE
  8
0
 10
-8.88504
 20
-1.30063
 11
-9.03712
 21
-1.11679
  0
LINE
  8
0
 10
-9.03712
 20
-1.11679
 11
-9.16498
 21
-0.915329
  0
LINE
  8
0
 10
-9.16498
 20
-0.915329
 11
-9.26657
 21
-0.699432
  0
LINE
  8
0
 10
-9.26657
 20
-0.699432
 11
-9.3403
 21
-0.472504
  0
LINE
  8
0
 10
-9.3403
 20
-0.472504
 11
-9.38501
 21
-0.238129
  0
LINE
  8
0
 10
-9.38501
 20
-0.238129
 11
-9.39999
 21
0
  0
LINE
  8
0
 10
-9.39999
 20
0
 11
-9.38501
 21
0.238129
  0
LINE
  8
0
 10
-9.38501
 20
0.238129
 11
-9.3403
 21
0.472504
  0
LINE
  8
0
 10
-9.3403
 20
0.472504
 11
-9.26657
 21
0.699432
  0
LINE
  8
0
 10
-9.26657
 20
0.699432
 11
-9.16498
 21
0.915329
  0
LINE
  8
0
 10
-9.16498
 20
0.915329
 11
-9.03712
 21
1.11679
  0
LINE
  8
0
 10
-9.03712
 20
1.11679
 11
-8.88504
 21
1.30063
  0
LINE
  8
0
 10
-8.88504
 20
1.30063
 11
-8.71111
 21
1.46397
  0
LINE
  8
0
 10
-8.71111
 20
1.46397
 11
-8.51807
 21
1.60422
  0
LINE
  8
0
 10
-8.51807
 20
1.60422
 11
-8.30898
 21
1.71916
  0
LINE
  8
0
 10
-8.30898
 20
1.71916
 11
-8.08713
 21
1.80701
  0
LINE
  8
0
 10
-8.08713
 20
1.80701
 11
-7.85602
 21
1.86633
  0
LINE
  8
0
 10
-7.85602
 20
1.86633
 11
-7.61929
 21
1.89624
  0
LINE
  8
0
 10
-7.61929
 20
1.89624
 11
-7.38069
 21
1.89624
  0
LINE
  8
0
 10
-7.38069
 20
1.89624
 11
-7.14397
 21
1.86633
  0
LINE
  8
0
 10
-7.14397
 20
1.86633
 11
-6.91286
 21
1.80701
  0
LINE
  8
0
 10
-6.91286
 20
1.80701
 11
-6.69101
 21
1.71916
  0
LINE
  8
0
 10
-6.69101
 20
1.71916
 11
-6.48192
 21
1.60422
  0
LINE
  8
0
 10
-6.48192
 20
1.60422
 11
-6.28888
 21
1.46397
  0
LINE
  8
0
 10
-6.28888
 20
1.46397
 11
-6.11494
 21
1.30063
  0
LINE
  8
0
 10
-6.11494
 20
1.30063
 11
-5.96286
 21
1.11679
  0
LINE
  8
0
 10
-5.96286
 20
1.11679
 11
-5.83501
 21
0.915329
  0
LINE
  8
0
 10
-5.83501
 20
0.915329
 11
-5.73341
 21
0.699432
  0
LINE
  8
0
 10
-5.73341
 20
0.699432
 11
-5.65968
 21
0.472504
  0
LINE
  8
0
 10
-5.65968
 20
0.472504
 11
-5.61497
 21
0.238129
  0
LINE
  8
0
 10
-5.61497
 20
0.238129
 11
-5.59999
 21
0
  0
LINE
  8
0
 10
-5.59999
 20
0
 11
-5.61497
 21
-0.238129
  0
LINE
  8
0
 10
-5.61497
 20
-0.238129
 11
-5.65968
 21
-0.472504
  0
LINE
  8
0
 10
-5.65968
 20
-0.472504
 11
-5.73341
 21
-0.699432
  0
LINE
  8
0
 10
-5.73341
 20
-0.699432
 11
-5.83501
 21
-0.915329
  0
LINE
  8
0
 10
-5.83501
 20
-0.915329
 11
-5.96286
 21
-1.11679
  0
LINE
  8
0
 10
-5.96286
 20
-1.11679
 11
-6.11494
 21
-1.30063
  0
LINE
  8
0
 10
-6.11494
 20
-1.30063
 11
-6.28888
 21
-1.46397
  0
LINE
  8
0
 10
-6.28888
 20
-1.46397
 11
-6.48192
 21
-1.60422
  0
LINE
  8
0
 10
-6.48192
 20
-1.60422
 11
-6.69101
 21
-1.71916
  0
LINE
  8
0
 10
-6.69101
 20
-1.71916
 11
-6.91286
 21
-1.80701
  0
LINE
  8
0
 10
-6.91286
 20
-1.80701
 11
-7.14397
 21
-1.86633
  0
LINE
  8
0
 10
-7.14397
 20
-1.86633
 11
-7.38069
 21
-1.89624
  0
LINE
  8
0
 10
-7.38069
 20
-1.89624
 11
-7.61929
 21
-1.89624
  0
LINE
  8
0
 10
-0.0941772
 20
-8.99704
 11
-0.281067
 21
-8.97342
  0
LINE
  8
0
 10
-0.281067
 20
-8.97342
 11
-0.463516
 21
-8.92657
  0
LINE
  8
0
 10
-0.463516
 20
-8.92657
 11
-0.638657
 21
-8.85724
  0
LINE
  8
0
 10
-0.638657
 20
-8.85724
 11
-0.803726
 21
-8.76648
  0
LINE
  8
0
 10
-0.803726
 20
-8.76648
 11
-0.956131
 21
-8.65576
  0
LINE
  8
0
 10
-0.956131
 20
-8.65576
 11
-1.09344
 21
-8.52681
  0
LINE
  8
0
 10
-1.09344
 20
-8.52681
 11
-1.21352
 21
-8.38167
  0
LINE
  8
0
 10
-1.21352
 20
-8.38167
 11
-1.31445
 21
-8.22263
  0
LINE
  8
0
 10
-1.31445
 20
-8.22263
 11
-1.39465
 21
-8.05219
  0
LINE
  8
0
 10
-1.39465
 20
-8.05219
 11
-1.45287
 21
-7.87303
  0
LINE
  8
0
 10
-1.45287
 20
-7.87303
 11
-1.48816
 21
-7.68799
  0
LINE
  8
0
 10
-1.48816
 20
-7.68799
 11
-1.5
 21
-7.5
  0
LINE
  8
0
 10
-1.5
 20
-7.5
 11
-1.48816
 21
-7.312
  0
LINE
  8
0
 10
-1.48816
 20
-7.312
 11
-1.45287
 21
-7.12695
  0
LINE
  8
0
 10
-1.45287
 20
-7.12695
 11
-1.39465
 21
-6.9478
  0
LINE
  8
0
 10
-1.39465
 20
-6.9478
 11
-1.31445
 21
-6.77736
  0
LINE
  8
0
 10
-1.31445
 20
-6.77736
 11
-1.21352
 21
-6.61832
  0
LINE
  8
0
 10
-1.21352
 20
-6.61832
 11
-1.09344
 21
-6.47318
  0
LINE
  8
0
 10
-1.09344
 20
-6.47318
 11
-0.956131
 21
-6.34422
  0
LINE
  8
0
 10
-0.956131
 20
-6.34422
 11
-0.803726
 21
-6.23351
  0
LINE
  8
0
 10
-0.803726
 20
-6.23351
 11
-0.638657
 21
-6.14275
  0
LINE
  8
0
 10
-0.638657
 20
-6.14275
 11
-0.463516
 21
-6.07341
  0
LINE
  8
0
 10
-0.463516
 20
-6.07341
 11
-0.281067
 21
-6.02657
  0
LINE
  8
0
 10
-0.281067
 20
-6.02657
 11
-0.0941772
 21
-6.00296
  0
LINE
  8
0
 10
-0.0941772
 20
-6.00296
 11
0.0941772
 21
-6.00296
  0
LINE
  8
0
 10
0.0941772
 20
-6.00296
 11
0.281067
 21
-6.02657
  0
LINE
  8
0
 10
0.281067
 20
-6.02657
 11
0.463516
 21
-6.07341
  0
LINE
  8
0
 10
0.463516
 20
-6.07341
 11
0.638657
 21
-6.14275
  0
LINE
  8
0
 10
0.638657
 20
-6.14275
 11
0.803726
 21
-6.23351
  0
LINE
  8
0
 10
0.803726
 20
-6.23351
 11
0.956131
 21
-6.34422
  0
LINE
  8
0
 10
0.956131
 20
-6.34422
 11
1.09344
 21
-6.47318
  0
LINE
  8
0
 10
1.09344
 20
-6.47318
 11
1.21352
 21
-6.61832
  0
LINE
  8
0
 10
1.21352
 20
-6.61832
 11
1.31445
 21
-6.77736
  0
LINE
  8
0
 10
1.31445
 20
-6.77736
 11
1.39465
 21
-6.9478
  0
LINE
  8
0
 10
1.39465
 20
-6.9478
 11
1.45287
 21
-7.12695
  0
LINE
  8
0
 10
1.45287
 20
-7.12695
 11
1.48816
 21
-7.312
  0
LINE
  8
0
 10
1.48816
 20
-7.312
 11
1.5
 21
-7.5
  0
LINE
  8
0
 10
1.5
 20
-7.5
 11
1.48816
 21
-7.68799
  0
LINE
  8
0
 10
1.48816
 20
-7.68799
 11
1.45287
 21
-7.87303
  0
LINE
  8
0
 10
1.45287
 20
-7.87303
 11
1.39465
 21
-8.05219
  0
LINE
  8
0
 10
1.39465
 20
-8.05219
 11
1.31445
 21
-8.22263
  0
LINE
  8
0
 10
1.31445
 20
-8.22263
 11
1.21352
 21
-8.38167
  0
LINE
  8
0
 10
1.21352
 20
-8.38167
 11
1.09344
 21
-8.52681
  0
LINE
  8
0
 10
1.09344
 20
-8.52681
 11
0.956131
 21
-8.65576
  0
LINE
  8
0
 10
0.956131
 20
-8.65576
 11
0.803726
 21
-8.76648
  0
LINE
  8
0
 10
0.803726
 20
-8.76648
 11
0.638657
 21
-8.85724
  0
LINE
  8
0
 10
0.638657
 20
-8.85724
 11
0.463516
 21
-8.92657
  0
LINE
  8
0
 10
0.463516
 20
-8.92657
 11
0.281067
 21
-8.97342
  0
LINE
  8
0
 10
0.281067
 20
-8.97342
 11
0.0941772
 21
-8.99704
  0
LINE
  8
0
 10
0.0941772
 20
-8.99704
 11
-0.0941772
 21
-8.99704
  0
LINE
  8
0
 10
-18.2502
 20
-1.47899
 11
-18.4335
 21
-1.43597
  0
LINE
  8
0
 10
-18.4335
 20
-1.43597
 11
-18.6101
 21
-1.37032
  0
LINE
  8
0
 10
-18.6101
 20
-1.37032
 11
-18.777
 21
-1.28304
  0
LINE
  8
0
 10
-18.777
 20
-1.28304
 11
-18.9317
 21
-1.17554
  0
LINE
  8
0
 10
-18.9317
 20
-1.17554
 11
-19.0717
 21
-1.04948
  0
LINE
  8
0
 10
-19.0717
 20
-1.04948
 11
-19.1948
 21
-0.906891
  0
LINE
  8
0
 10
-19.1948
 20
-0.906891
 11
-19.299
 21
-0.75
  0
LINE
  8
0
 10
-19.299
 20
-0.75
 11
-19.3828
 21
-0.581268
  0
LINE
  8
0
 10
-19.3828
 20
-0.581268
 11
-19.4447
 21
-0.403366
  0
LINE
  8
0
 10
-19.4447
 20
-0.403366
 11
-19.4839
 21
-0.219116
  0
LINE
  8
0
 10
-19.4839
 20
-0.219116
 11
-19.4997
 21
-0.0314026
  0
LINE
  8
0
 10
-19.4997
 20
-0.0314026
 11
-19.4918
 21
0.156784
  0
LINE
  8
0
 10
-19.4918
 20
0.156784
 11
-19.4604
 21
0.342514
  0
LINE
  8
0
 10
-19.4604
 20
0.342514
 11
-19.4059
 21
0.522858
  0
LINE
  8
0
 10
-19.4059
 20
0.522858
 11
-19.3293
 21
0.694931
  0
LINE
  8
0
 10
-19.3293
 20
0.694931
 11
-19.2317
 21
0.856064
  0
LINE
  8
0
 10
-19.2317
 20
0.856064
 11
-19.1147
 21
1.00369
  0
LINE
  8
0
 10
-19.1147
 20
1.00369
 11
-18.9801
 21
1.13548
  0
LINE
  8
0
 10
-18.9801
 20
1.13548
 11
-18.8301
 21
1.24937
  0
LINE
  8
0
 10
-18.8301
 20
1.24937
 11
-18.6669
 21
1.34357
  0
LINE
  8
0
 10
-18.6669
 20
1.34357
 11
-18.4933
 21
1.41655
  0
LINE
  8
0
 10
-18.4933
 20
1.41655
 11
-18.3119
 21
1.46721
  0
LINE
  8
0
 10
-18.3119
 20
1.46721
 11
-18.1255
 21
1.49474
  0
LINE
  8
0
 10
-18.1255
 20
1.49474
 11
-17.9372
 21
1.49867
  0
LINE
  8
0
 10
-17.9372
 20
1.49867
 11
-17.7498
 21
1.47899
  0
LINE
  8
0
 10
-17.7498
 20
1.47899
 11
-17.5665
 21
1.43597
  0
LINE
  8
0
 10
-17.5665
 20
1.43597
 11
-17.3899
 21
1.37032
  0
LINE
  8
0
 10
-17.3899
 20
1.37032
 11
-17.2229
 21
1.28304
  0
LINE
  8
0
 10
-17.2229
 20
1.28304
 11
-17.0683
 21
1.17554
  0
LINE
  8
0
 10
-17.0683
 20
1.17554
 11
-16.9283
 21
1.04948
  0
LINE
  8
0
 10
-16.9283
 20
1.04948
 11
-16.8052
 21
0.906891
  0
LINE
  8
0
 10
-16.8052
 20
0.906891
 11
-16.701
 21
0.75
  0
LINE
  8
0
 10
-16.701
 20
0.75
 11
-16.6172
 21
0.581268
  0
LINE
  8
0
 10
-16.6172
 20
0.581268
 11
-16.5553
 21
0.403366
  0
LINE
  8
0
 10
-16.5553
 20
0.403366
 11
-16.5161
 21
0.219116
  0
LINE
  8
0
 10
-16.5161
 20
0.219116
 11
-16.5003
 21
0.0314026
  0
LINE
  8
0
 10
-16.5003
 20
0.0314026
 11
-16.5082
 21
-0.156784
  0
LINE
  8
0
 10
-16.5082
 20
-0.156784
 11
-16.5396
 21
-0.342514
  0
LINE
  8
0
 10
-16.5396
 20
-0.342514
 11
-16.5941
 21
-0.522858
  0
LINE
  8
0
 10
-16.5941
 20
-0.522858
 11
-16.6707
 21
-0.694931
  0
LINE
  8
0
 10
-16.6707
 20
-0.694931
 11
-16.7683
 21
-0.856064
  0
LINE
  8
0
 10
-16.7683
 20
-0.856064
 11
-16.8853
 21
-1.00369
  0
LINE
  8
0
 10
-16.8853
 20
-1.00369
 11
-17.0199
 21
-1.13548
  0
LINE
  8
0
 10
-17.0199
 20
-1.13548
 11
-17.1699
 21
-1.24937
  0
LINE
  8
0
 10
-17.1699
 20
-1.24937
 11
-17.333
 21
-1.34357
  0
LINE
  8
0
 10
-17.333
 20
-1.34357
 11
-17.5067
 21
-1.41655
  0
LINE
  8
0
 10
-17.5067
 20
-1.41655
 11
-17.6881
 21
-1.46721
  0
LINE
  8
0
 10
-17.6881
 20
-1.46721
 11
-17.8745
 21
-1.49474
  0
LINE
  8
0
 10
-17.8745
 20
-1.49474
 11
-18.0628
 21
-1.49867
  0
LINE
  8
0
 10
-18.0628
 20
-1.49867
 11
-18.2502
 21
-1.47899
  0
LINE
  8
0
 10
17.7498
 20
-1.47899
 11
17.5665
 21
-1.43597
  0
LINE
  8
0
 10
17.5665
 20
-1.43597
 11
17.3899
 21
-1.37032
  0
LINE
  8
0
 10
17.3899
 20
-1.37032
 11
17.2229
 21
-1.28304
  0
LINE
  8
0
 10
17.2229
 20
-1.28304
 11
17.0683
 21
-1.17554
  0
LINE
  8
0
 10
17.0683
 20
-1.17554
 11
16.9283
 21
-1.04948
  0
LINE
  8
0
 10
16.9283
 20
-1.04948
 11
16.8052
 21
-0.906891
  0
LINE
  8
0
 10
16.8052
 20
-0.906891
 11
16.701
 21
-0.75
  0
LINE
  8
0
 10
16.701
 20
-0.75
 11
16.6172
 21
-0.581268
  0
LINE
  8
0
 10
16.6172
 20
-0.581268
 11
16.5553
 21
-0.403366
  0
LINE
  8
0
 10
16.5553
 20
-0.403366
 11
16.5161
 21
-0.219116
  0
LINE
  8
0
 10
16.5161
 20
-0.219116
 11
16.5003
 21
-0.0314026
  0
LINE
  8
0
 10
16.5003
 20
-0.0314026
 11
16.5082
 21
0.156784
  0
LINE
  8
0
 10
16.5082
 20
0.156784
 11
16.5396
 21
0.342514
  0
LINE
  8
0
 10
16.5396
 20
0.342514
 11
16.5941
 21
0.522858
  0
LINE
  8
0
 10
16.5941
 20
0.522858
 11
16.6707
 21
0.694931
  0
LINE
  8
0
 10
16.6707
 20
0.694931
 11
16.7683
 21
0.856064
  0
LINE
  8
0
 10
16.7683
 20
0.856064
 11
16.8853
 21
1.00369
  0
LINE
  8
0
 10
16.8853
 20
1.00369
 11
17.0199
 21
1.13548
  0
LINE
  8
0
 10
17.0199
 20
1.13548
 11
17.1699
 21
1.24937
  0
LINE
  8
0
 10
17.1699
 20
1.24937
 11
17.333
 21
1.34357
  0
LINE
  8
0
 10
17.333
 20
1.34357
 11
17.5067
 21
1.41655
  0
LINE
  8
0
 10
17.5067
 20
1.41655
 11
17.6881
 21
1.46721
  0
LINE
  8
0
 10
17.6881
 20
1.46721
 11
17.8745
 21
1.49474
  0
LINE
  8
0
 10
17.8745
 20
1.49474
 11
18.0628
 21
1.49867
  0
LINE
  8
0
 10
18.0628
 20
1.49867
 11
18.2502
 21
1.47899
  0
LINE
  8
0
 10
18.2502
 20
1.47899
 11
18.4335
 21
1.43597
  0
LINE
  8
0
 10
18.4335
 20
1.43597
 11
18.6101
 21
1.37032
  0
LINE
  8
0
 10
18.6101
 20
1.37032
 11
18.777
 21
1.28304
  0
LINE
  8
0
 10
18.777
 20
1.28304
 11
18.9317
 21
1.17554
  0
LINE
  8
0
 10
18.9317
 20
1.17554
 11
19.0717
 21
1.04948
  0
LINE
  8
0
 10
19.0717
 20
1.04948
 11
19.1948
 21
0.906891
  0
LINE
  8
0
 10
19.1948
 20
0.906891
 11
19.299
 21
0.75
  0
LINE
  8
0
 10
19.299
 20
0.75
 11
19.3828
 21
0.581268
  0
LINE
  8
0
 10
19.3828
 20
0.581268
 11
19.4447
 21
0.403366
  0
LINE
  8
0
 10
19.4447
 20
0.403366
 11
19.4839
 21
0.219116
  0
LINE
  8
0
 10
19.4839
 20
0.219116
 11
19.4997
 21
0.0314026
  0
LINE
  8
0
 10
19.4997
 20
0.0314026
 11
19.4918
 21
-0.156784
  0
LINE
  8
0
 10
19.4918
 20
-0.156784
 11
19.4604
 21
-0.342514
  0
LINE
  8
0
 10
19.4604
 20
-0.342514
 11
19.4059
 21
-0.522858
  0
LINE
  8
0
 10
19.4059
 20
-0.522858
 11
19.3293
 21
-0.694931
  0
LINE
  8
0
 10
19.3293
 20
-0.694931
 11
19.2317
 21
-0.856064
  0
LINE
  8
0
 10
19.2317
 20
-0.856064
 11
19.1147
 21
-1.00369
  0
LINE
  8
0
 10
19.1147
 20
-1.00369
 11
18.9801
 21
-1.13548
  0
LINE
  8
0
 10
18.9801
 20
-1.13548
 11
18.8301
 21
-1.24937
  0
LINE
  8
0
 10
18.8301
 20
-1.24937
 11
18.6669
 21
-1.34357
  0
LINE
  8
0
 10
18.6669
 20
-1.34357
 11
18.4933
 21
-1.41655
  0
LINE
  8
0
 10
18.4933
 20
-1.41655
 11
18.3119
 21
-1.46721
  0
LINE
  8
0
 10
18.3119
 20
-1.46721
 11
18.1255
 21
-1.49474
  0
LINE
  8
0
 10
18.1255
 20
-1.49474
 11
17.9372
 21
-1.49867
  0
LINE
  8
0
 10
17.9372
 20
-1.49867
 11
17.7498
 21
-1.47899
  0
LINE
  8
0
 10
-15.1884
 20
-17.9941
 11
-15.5621
 21
-17.9469
  0
LINE
  8
0
 10
-15.5621
 20
-17.9469
 11
-15.927
 21
-17.8532
  0
LINE
  8
0
 10
-15.927
 20
-17.8532
 11
-16.2773
 21
-17.7145
  0
LINE
  8
0
 10
-16.2773
 20
-17.7145
 11
-16.6075
 21
-17.533
  0
LINE
  8
0
 10
-16.6075
 20
-17.533
 11
-16.9123
 21
-17.3115
  0
LINE
  8
0
 10
-16.9123
 20
-17.3115
 11
-17.1869
 21
-17.0536
  0
LINE
  8
0
 10
-17.1869
 20
-17.0536
 11
-17.427
 21
-16.7634
  0
LINE
  8
0
 10
-17.427
 20
-16.7634
 11
-17.6289
 21
-16.4453
  0
LINE
  8
0
 10
-17.6289
 20
-16.4453
 11
-17.7893
 21
-16.1044
  0
LINE
  8
0
 10
-17.7893
 20
-16.1044
 11
-17.9057
 21
-15.7461
  0
LINE
  8
0
 10
-17.9057
 20
-15.7461
 11
-17.9763
 21
-15.376
  0
LINE
  8
0
 10
-17.9763
 20
-15.376
 11
-18
 21
-15
  0
LINE
  8
0
 10
-18
 20
-15
 11
-17.9763
 21
-14.624
  0
LINE
  8
0
 10
-17.9763
 20
-14.624
 11
-17.9057
 21
-14.2539
  0
LINE
  8
0
 10
-17.9057
 20
-14.2539
 11
-17.7893
 21
-13.8956
  0
LINE
  8
0
 10
-17.7893
 20
-13.8956
 11
-17.6289
 21
-13.5547
  0
LINE
  8
0
 10
-17.6289
 20
-13.5547
 11
-17.427
 21
-13.2366
  0
LINE
  8
0
 10
-17.427
 20
-13.2366
 11
-17.1869
 21
-12.9464
  0
LINE
  8
0
 10
-17.1869
 20
-12.9464
 11
-16.9123
 21
-12.6884
  0
LINE
  8
0
 10
-16.9123
 20
-12.6884
 11
-16.6075
 21
-12.467
  0
LINE
  8
0
 10
-16.6075
 20
-12.467
 11
-16.2773
 21
-12.2855
  0
LINE
  8
0
 10
-16.2773
 20
-12.2855
 11
-15.927
 21
-12.1468
  0
LINE
  8
0
 10
-15.927
 20
-12.1468
 11
-15.5621
 21
-12.0531
  0
LINE
  8
0
 10
-15.5621
 20
-12.0531
 11
-15.1884
 21
-12.0059
  0
LINE
  8
0
 10
-15.1884
 20
-12.0059
 11
-14.8116
 21
-12.0059
  0
LINE
  8
0
 10
-14.8116
 20
-12.0059
 11
-14.4379
 21
-12.0531
  0
LINE
  8
0
 10
-14.4379
 20
-12.0531
 11
-14.0729
 21
-12.1468
  0
LINE
  8
0
 10
-14.0729
 20
-12.1468
 11
-13.7227
 21
-12.2855
  0
LINE
  8
0
 10
-13.7227
 20
-12.2855
 11
-13.3925
 21
-12.467
  0
LINE
  8
0
 10
-13.3925
 20
-12.467
 11
-13.0877
 21
-12.6884
  0
LINE
  8
0
 10
-13.0877
 20
-12.6884
 11
-12.8131
 21
-12.9464
  0
LINE
  8
0
 10
-12.8131
 20
-12.9464
 11
-12.5729
 21
-13.2366
  0
LINE
  8
0
 10
-12.5729
 20
-13.2366
 11
-12.3711
 21
-13.5547
  0
LINE
  8
0
 10
-12.3711
 20
-13.5547
 11
-12.2107
 21
-13.8956
  0
LINE
  8
0
 10
-12.2107
 20
-13.8956
 11
-12.0942
 21
-14.2539
  0
LINE
  8
0
 10
-12.0942
 20
-14.2539
 11
-12.0237
 21
-14.624
  0
LINE
  8
0
 10
-12.0237
 20
-14.624
 11
-12
 21
-15
  0
LINE
  8
0
 10
-12
 20
-15
 11
-12.0237
 21
-15.376
  0
LINE
  8
0
 10
-12.0237
 20
-15.376
 11
-12.0942
 21
-15.7461
  0
LINE
  8
0
 10
-12.0942
 20
-15.7461
 11
-12.2107
 21
-16.1044
  0
LINE
  8
0
 10
-12.2107
 20
-16.1044
 11
-12.3711
 21
-16.4453
  0
LINE
  8
0
 10
-12.3711
 20
-16.4453
 11
-12.5729
 21
-16.7634
  0
LINE
  8
0
 10
-12.5729
 20
-16.7634
 11
-12.8131
 21
-17.0536
  0
LINE
  8
0
 10
-12.8131
 20
-17.0536
 11
-13.0877
 21
-17.3115
  0
LINE
  8
0
 10
-13.0877
 20
-17.3115
 11
-13.3925
 21
-17.533
  0
LINE
  8
0
 10
-13.3925
 20
-17.533
 11
-13.7227
 21
-17.7145
  0
LINE
  8
0
 10
-13.7227
 20
-17.7145
 11
-14.0729
 21
-17.8532
  0
LINE
  8
0
 10
-14.0729
 20
-17.8532
 11
-14.4379
 21
-17.9469
  0
LINE
  8
0
 10
-14.4379
 20
-17.9469
 11
-14.8116
 21
-17.9941
  0
LINE
  8
0
 10
-14.8116
 20
-17.9941
 11
-15.1884
 21
-17.9941
  0
LINE
  8
0
 10
14.8116
 20
-17.9941
 11
14.4379
 21
-17.9469
  0
LINE
  8
0
 10
14.4379
 20
-17.9469
 11
14.0729
 21
-17.8532
  0
LINE
  8
0
 10
14.0729
 20
-17.8532
 11
13.7227
 21
-17.7145
  0
LINE
  8
0
 10
13.7227
 20
-17.7145
 11
13.3925
 21
-17.533
  0
LINE
  8
0
 10
13.3925
 20
-17.533
 11
13.0877
 21
-17.3115
  0
LINE
  8
0
 10
13.0877
 20
-17.3115
 11
12.8131
 21
-17.0536
  0
LINE
  8
0
 10
12.8131
 20
-17.0536
 11
12.5729
 21
-16.7634
  0
LINE
  8
0
 10
12.5729
 20
-16.7634
 11
12.3711
 21
-16.4453
  0
LINE
  8
0
 10
12.3711
 20
-16.4453
 11
12.2107
 21
-16.1044
  0
LINE
  8
0
 10
12.2107
 20
-16.1044
 11
12.0942
 21
-15.7461
  0
LINE
  8
0
 10
12.0942
 20
-15.7461
 11
12.0237
 21
-15.376
  0
LINE
  8
0
 10
12.0237
 20
-15.376
 11
12
 21
-15
  0
LINE
  8
0
 10
12
 20
-15
 11
12.0237
 21
-14.624
  0
LINE
  8
0
 10
12.0237
 20
-14.624
 11
12.0942
 21
-14.2539
  0
LINE
  8
0
 10
12.0942
 20
-14.2539
 11
12.2107
 21
-13.8956
  0
LINE
  8
0
 10
12.2107
 20
-13.8956
 11
12.3711
 21
-13.5547
  0
LINE
  8
0
 10
12.3711
 20
-13.5547
 11
12.5729
 21
-13.2366
  0
LINE
  8
0
 10
12.5729
 20
-13.2366
 11
12.8131
 21
-12.9464
  0
LINE
  8
0
 10
12.8131
 20
-12.9464
 11
13.0877
 21
-12.6884
  0
LINE
  8
0
 10
13.0877
 20
-12.6884
 11
13.3925
 21
-12.467
  0
LINE
  8
0
 10
13.3925
 20
-12.467
 11
13.7227
 21
-12.2855
  0
LINE
  8
0
 10
13.7227
 20
-12.2855
 11
14.0729
 21
-12.1468
  0
LINE
  8
0
 10
14.0729
 20
-12.1468
 11
14.4379
 21
-12.0531
  0
LINE
  8
0
 10
14.4379
 20
-12.0531
 11
14.8116
 21
-12.0059
  0
LINE
  8
0
 10
14.8116
 20
-12.0059
 11
15.1884
 21
-12.0059
  0
LINE
  8
0
 10
15.1884
 20
-12.0059
 11
15.5621
 21
-12.0531
  0
LINE
  8
0
 10
15.5621
 20
-12.0531
 11
15.927
 21
-12.1468
  0
LINE
  8
0
 10
15.927
 20
-12.1468
 11
16.2773
 21
-12.2855
  0
LINE
  8
0
 10
16.2773
 20
-12.2855
 11
16.6075
 21
-12.467
  0
LINE
  8
0
 10
16.6075
 20
-12.467
 11
16.9123
 21
-12.6884
  0
LINE
  8
0
 10
16.9123
 20
-12.6884
 11
17.1869
 21
-12.9464
  0
LINE
  8
0
 10
17.1869
 20
-12.9464
 11
17.427
 21
-13.2366
  0
LINE
  8
0
 10
17.427
 20
-13.2366
 11
17.6289
 21
-13.5547
  0
LINE
  8
0
 10
17.6289
 20
-13.5547
 11
17.7893
 21
-13.8956
  0
LINE
  8
0
 10
17.7893
 20
-13.8956
 11
17.9057
 21
-14.2539
  0
LINE
  8
0
 10
17.9057
 20
-14.2539
 11
17.9763
 21
-14.624
  0
LINE
  8
0
 10
17.9763
 20
-14.624
 11
18
 21
-15
  0
LINE
  8
0
 10
18
 20
-15
 11
17.9763
 21
-15.376
  0
LINE
  8
0
 10
17.9763
 20
-15.376
 11
17.9057
 21
-15.7461
  0
LINE
  8
0
 10
17.9057
 20
-15.7461
 11
17.7893
 21
-16.1044
  0
LINE
  8
0
 10
17.7893
 20
-16.1044
 11
17.6289
 21
-16.4453
  0
LINE
  8
0
 10
17.6289
 20
-16.4453
 11
17.427
 21
-16.7634
  0
LINE
  8
0
 10
17.427
 20
-16.7634
 11
17.1869
 21
-17.0536
  0
LINE
  8
0
 10
17.1869
 20
-17.0536
 11
16.9123
 21
-17.3115
  0
LINE
  8
0
 10
16.9123
 20
-17.3115
 11
16.6075
 21
-17.533
  0
LINE
  8
0
 10
16.6075
 20
-17.533
 11
16.2773
 21
-17.7145
  0
LINE
  8
0
 10
16.2773
 20
-17.7145
 11
15.927
 21
-17.8532
  0
LINE
  8
0
 10
15.927
 20
-17.8532
 11
15.5621
 21
-17.9469
  0
LINE
  8
0
 10
15.5621
 20
-17.9469
 11
15.1884
 21
-17.9941
  0
LINE
  8
0
 10
15.1884
 20
-17.9941
 11
14.8116
 21
-17.9941
  0
LINE
  8
0
 10
-1.58675
 20
-20.7483
 11
-3.17349
 21
-18
  0
LINE
  8
0
 10
-3.17349
 20
-18
 11
-1.58675
 21
-15.2517
  0
LINE
  8
0
 10
-1.58675
 20
-15.2517
 11
1.58675
 21
-15.2517
  0
LINE
  8
0
 10
1.58675
 20
-15.2517
 11
3.17349
 21
-18
  0
LINE
  8
0
 10
3.17349
 20
-18
 11
1.58675
 21
-20.7483
  0
LINE
  8
0
 10
1.58675
 20
-20.7483
 11
-1.58675
 21
-20.7483
  0
ENDSEC
  0
SECTION
  2
OBJECTS
  0
DICTIONARY
  0
ENDSEC
  0
EOF
