  0
SECTION
  2
BLOCKS
  0
ENDSEC
  0
SECTION
  2
ENTITIES
  0
LINE
  8
0
 10
-141
 20
962.941
 11
-140.687
 21
962.647
  0
LINE
  8
0
 10
-140.687
 20
962.647
 11
-140.179
 21
962.278
  0
LINE
  8
0
 10
-140.179
 20
962.278
 11
-139.629
 21
961.976
  0
LINE
  8
0
 10
-139.629
 20
961.976
 11
-139.045
 21
961.745
  0
LINE
  8
0
 10
-139.045
 20
961.745
 11
-138.437
 21
961.589
  0
LINE
  8
0
 10
-138.437
 20
961.589
 11
-137.814
 21
961.51
  0
LINE
  8
0
 10
-137.814
 20
961.51
 11
137.814
 21
961.51
  0
LINE
  8
0
 10
137.814
 20
961.51
 11
138.437
 21
961.589
  0
LINE
  8
0
 10
138.437
 20
961.589
 11
139.045
 21
961.745
  0
LINE
  8
0
 10
139.045
 20
961.745
 11
139.629
 21
961.976
  0
LINE
  8
0
 10
139.629
 20
961.976
 11
140.179
 21
962.278
  0
LINE
  8
0
 10
140.179
 20
962.278
 11
140.687
 21
962.647
  0
LINE
  8
0
 10
140.687
 20
962.647
 11
141.145
 21
963.077
  0
LINE
  8
0
 10
141.145
 20
963.077
 11
141.545
 21
963.561
  0
LINE
  8
0
 10
141.545
 20
963.561
 11
141.882
 21
964.091
  0
LINE
  8
0
 10
141.882
 20
964.091
 11
142.149
 21
964.659
  0
LINE
  8
0
 10
142.149
 20
964.659
 11
142.343
 21
965.257
  0
LINE
  8
0
 10
142.343
 20
965.257
 11
142.461
 21
965.873
  0
LINE
  8
0
 10
142.461
 20
965.873
 11
142.5
 21
966.5
  0
LINE
  8
0
 10
142.5
 20
966.5
 11
142.5
 21
1121.5
  0
LINE
  8
0
 10
142.5
 20
1121.5
 11
142.461
 21
1122.13
  0
LINE
  8
0
 10
142.461
 20
1122.13
 11
142.343
 21
1122.74
  0
LINE
  8
0
 10
142.343
 20
1122.74
 11
142.149
 21
1123.34
  0
LINE
  8
0
 10
142.149
 20
1123.34
 11
141.882
 21
1123.91
  0
LINE
  8
0
 10
141.882
 20
1123.91
 11
141.545
 21
1124.44
  0
LINE
  8
0
 10
141.545
 20
1124.44
 11
141.145
 21
1124.92
  0
LINE
  8
0
 10
141.145
 20
1124.92
 11
140.687
 21
1125.35
  0
LINE
  8
0
 10
140.687
 20
1125.35
 11
140.179
 21
1125.72
  0
LINE
  8
0
 10
140.179
 20
1125.72
 11
139.629
 21
1126.02
  0
LINE
  8
0
 10
139.629
 20
1126.02
 11
139.045
 21
1126.26
  0
LINE
  8
0
 10
139.045
 20
1126.26
 11
138.437
 21
1126.41
  0
LINE
  8
0
 10
138.437
 20
1126.41
 11
137.814
 21
1126.49
  0
LINE
  8
0
 10
137.814
 20
1126.49
 11
-137.814
 21
1126.49
  0
LINE
  8
0
 10
-137.814
 20
1126.49
 11
-138.437
 21
1126.41
  0
LINE
  8
0
 10
-138.437
 20
1126.41
 11
-139.045
 21
1126.26
  0
LINE
  8
0
 10
-139.045
 20
1126.26
 11
-139.629
 21
1126.02
  0
LINE
  8
0
 10
-139.629
 20
1126.02
 11
-140.179
 21
1125.72
  0
LINE
  8
0
 10
-140.179
 20
1125.72
 11
-140.687
 21
1125.35
  0
LINE
  8
0
 10
-140.687
 20
1125.35
 11
-141
 21
1125.06
  0
LINE
  8
0
 10
-141
 20
1125.06
 11
-141
 21
1126.49
  0
LINE
  8
0
 10
-141
 20
1126.49
 11
-144
 21
1126.49
  0
LINE
  8
0
 10
-144
 20
1126.49
 11
-144
 21
961.51
  0
LINE
  8
0
 10
-144
 20
961.51
 11
-141
 21
961.51
  0
LINE
  8
0
 10
-141
 20
961.51
 11
-141
 21
962.941
  0
LINE
  8
0
 10
-137.251
 20
963.008
 11
-137.75
 21
963.071
  0
LINE
  8
0
 10
-137.75
 20
963.071
 11
-138.236
 21
963.196
  0
LINE
  8
0
 10
-138.236
 20
963.196
 11
-138.703
 21
963.381
  0
LINE
  8
0
 10
-138.703
 20
963.381
 11
-139.143
 21
963.623
  0
LINE
  8
0
 10
-139.143
 20
963.623
 11
-139.55
 21
963.918
  0
LINE
  8
0
 10
-139.55
 20
963.918
 11
-139.916
 21
964.262
  0
LINE
  8
0
 10
-139.916
 20
964.262
 11
-140.236
 21
964.649
  0
LINE
  8
0
 10
-140.236
 20
964.649
 11
-140.505
 21
965.073
  0
LINE
  8
0
 10
-140.505
 20
965.073
 11
-140.719
 21
965.528
  0
LINE
  8
0
 10
-140.719
 20
965.528
 11
-140.874
 21
966.005
  0
LINE
  8
0
 10
-140.874
 20
966.005
 11
-140.968
 21
966.499
  0
LINE
  8
0
 10
-140.968
 20
966.499
 11
-141
 21
967
  0
LINE
  8
0
 10
-141
 20
967
 11
-141
 21
1121
  0
LINE
  8
0
 10
-141
 20
1121
 11
-140.968
 21
1121.5
  0
LINE
  8
0
 10
-140.968
 20
1121.5
 11
-140.874
 21
1121.99
  0
LINE
  8
0
 10
-140.874
 20
1121.99
 11
-140.719
 21
1122.47
  0
LINE
  8
0
 10
-140.719
 20
1122.47
 11
-140.505
 21
1122.93
  0
LINE
  8
0
 10
-140.505
 20
1122.93
 11
-140.236
 21
1123.35
  0
LINE
  8
0
 10
-140.236
 20
1123.35
 11
-139.916
 21
1123.74
  0
LINE
  8
0
 10
-139.916
 20
1123.74
 11
-139.55
 21
1124.08
  0
LINE
  8
0
 10
-139.55
 20
1124.08
 11
-139.143
 21
1124.38
  0
LINE
  8
0
 10
-139.143
 20
1124.38
 11
-138.703
 21
1124.62
  0
LINE
  8
0
 10
-138.703
 20
1124.62
 11
-138.236
 21
1124.8
  0
LINE
  8
0
 10
-138.236
 20
1124.8
 11
-137.75
 21
1124.93
  0
LINE
  8
0
 10
-137.75
 20
1124.93
 11
-137.251
 21
1124.99
  0
LINE
  8
0
 10
-137.251
 20
1124.99
 11
137.251
 21
1124.99
  0
LINE
  8
0
 10
137.251
 20
1124.99
 11
137.75
 21
1124.93
  0
LINE
  8
0
 10
137.75
 20
1124.93
 11
138.236
 21
1124.8
  0
LINE
  8
0
 10
138.236
 20
1124.8
 11
138.703
 21
1124.62
  0
LINE
  8
0
 10
138.703
 20
1124.62
 11
139.143
 21
1124.38
  0
LINE
  8
0
 10
139.143
 20
1124.38
 11
139.55
 21
1124.08
  0
LINE
  8
0
 10
139.55
 20
1124.08
 11
139.916
 21
1123.74
  0
LINE
  8
0
 10
139.916
 20
1123.74
 11
140.236
 21
1123.35
  0
LINE
  8
0
 10
140.236
 20
1123.35
 11
140.505
 21
1122.93
  0
LINE
  8
0
 10
140.505
 20
1122.93
 11
140.719
 21
1122.47
  0
LINE
  8
0
 10
140.719
 20
1122.47
 11
140.874
 21
1121.99
  0
LINE
  8
0
 10
140.874
 20
1121.99
 11
140.968
 21
1121.5
  0
LINE
  8
0
 10
140.968
 20
1121.5
 11
141
 21
1121
  0
LINE
  8
0
 10
141
 20
1121
 11
141
 21
967
  0
LINE
  8
0
 10
141
 20
967
 11
140.968
 21
966.499
  0
LINE
  8
0
 10
140.968
 20
966.499
 11
140.874
 21
966.005
  0
LINE
  8
0
 10
140.874
 20
966.005
 11
140.719
 21
965.528
  0
LINE
  8
0
 10
140.719
 20
965.528
 11
140.505
 21
965.073
  0
LINE
  8
0
 10
140.505
 20
965.073
 11
140.236
 21
964.649
  0
LINE
  8
0
 10
140.236
 20
964.649
 11
139.916
 21
964.262
  0
LINE
  8
0
 10
139.916
 20
964.262
 11
139.55
 21
963.918
  0
LINE
  8
0
 10
139.55
 20
963.918
 11
139.143
 21
963.623
  0
LINE
  8
0
 10
139.143
 20
963.623
 11
138.703
 21
963.381
  0
LINE
  8
0
 10
138.703
 20
963.381
 11
138.236
 21
963.196
  0
LINE
  8
0
 10
138.236
 20
963.196
 11
137.75
 21
963.071
  0
LINE
  8
0
 10
137.75
 20
963.071
 11
137.251
 21
963.008
  0
LINE
  8
0
 10
137.251
 20
963.008
 11
-137.251
 21
963.008
  0
LINE
  8
0
 10
-141
 20
788.941
 11
-140.687
 21
788.647
  0
LINE
  8
0
 10
-140.687
 20
788.647
 11
-140.179
 21
788.278
  0
LINE
  8
0
 10
-140.179
 20
788.278
 11
-139.629
 21
787.976
  0
LINE
  8
0
 10
-139.629
 20
787.976
 11
-139.045
 21
787.745
  0
LINE
  8
0
 10
-139.045
 20
787.745
 11
-138.437
 21
787.589
  0
LINE
  8
0
 10
-138.437
 20
787.589
 11
-137.814
 21
787.51
  0
LINE
  8
0
 10
-137.814
 20
787.51
 11
137.814
 21
787.51
  0
LINE
  8
0
 10
137.814
 20
787.51
 11
138.437
 21
787.589
  0
LINE
  8
0
 10
138.437
 20
787.589
 11
139.045
 21
787.745
  0
LINE
  8
0
 10
139.045
 20
787.745
 11
139.629
 21
787.976
  0
LINE
  8
0
 10
139.629
 20
787.976
 11
140.179
 21
788.278
  0
LINE
  8
0
 10
140.179
 20
788.278
 11
140.687
 21
788.647
  0
LINE
  8
0
 10
140.687
 20
788.647
 11
141.145
 21
789.077
  0
LINE
  8
0
 10
141.145
 20
789.077
 11
141.545
 21
789.561
  0
LINE
  8
0
 10
141.545
 20
789.561
 11
141.882
 21
790.091
  0
LINE
  8
0
 10
141.882
 20
790.091
 11
142.149
 21
790.659
  0
LINE
  8
0
 10
142.149
 20
790.659
 11
142.343
 21
791.257
  0
LINE
  8
0
 10
142.343
 20
791.257
 11
142.461
 21
791.873
  0
LINE
  8
0
 10
142.461
 20
791.873
 11
142.5
 21
792.5
  0
LINE
  8
0
 10
142.5
 20
792.5
 11
142.5
 21
947.5
  0
LINE
  8
0
 10
142.5
 20
947.5
 11
142.461
 21
948.127
  0
LINE
  8
0
 10
142.461
 20
948.127
 11
142.343
 21
948.743
  0
LINE
  8
0
 10
142.343
 20
948.743
 11
142.149
 21
949.341
  0
LINE
  8
0
 10
142.149
 20
949.341
 11
141.882
 21
949.909
  0
LINE
  8
0
 10
141.882
 20
949.909
 11
141.545
 21
950.439
  0
LINE
  8
0
 10
141.545
 20
950.439
 11
141.145
 21
950.923
  0
LINE
  8
0
 10
141.145
 20
950.923
 11
140.687
 21
951.353
  0
LINE
  8
0
 10
140.687
 20
951.353
 11
140.179
 21
951.722
  0
LINE
  8
0
 10
140.179
 20
951.722
 11
139.629
 21
952.024
  0
LINE
  8
0
 10
139.629
 20
952.024
 11
139.045
 21
952.255
  0
LINE
  8
0
 10
139.045
 20
952.255
 11
138.437
 21
952.411
  0
LINE
  8
0
 10
138.437
 20
952.411
 11
137.814
 21
952.49
  0
LINE
  8
0
 10
137.814
 20
952.49
 11
-137.814
 21
952.49
  0
LINE
  8
0
 10
-137.814
 20
952.49
 11
-138.437
 21
952.411
  0
LINE
  8
0
 10
-138.437
 20
952.411
 11
-139.045
 21
952.255
  0
LINE
  8
0
 10
-139.045
 20
952.255
 11
-139.629
 21
952.024
  0
LINE
  8
0
 10
-139.629
 20
952.024
 11
-140.179
 21
951.722
  0
LINE
  8
0
 10
-140.179
 20
951.722
 11
-140.687
 21
951.353
  0
LINE
  8
0
 10
-140.687
 20
951.353
 11
-141
 21
951.059
  0
LINE
  8
0
 10
-141
 20
951.059
 11
-141
 21
952.49
  0
LINE
  8
0
 10
-141
 20
952.49
 11
-144
 21
952.49
  0
LINE
  8
0
 10
-144
 20
952.49
 11
-144
 21
787.51
  0
LINE
  8
0
 10
-144
 20
787.51
 11
-141
 21
787.51
  0
LINE
  8
0
 10
-141
 20
787.51
 11
-141
 21
788.941
  0
LINE
  8
0
 10
-137.243
 20
789.135
 11
-137.726
 21
789.196
  0
LINE
  8
0
 10
-137.726
 20
789.196
 11
-138.197
 21
789.317
  0
LINE
  8
0
 10
-138.197
 20
789.317
 11
-138.649
 21
789.496
  0
LINE
  8
0
 10
-138.649
 20
789.496
 11
-139.075
 21
789.73
  0
LINE
  8
0
 10
-139.075
 20
789.73
 11
-139.469
 21
790.016
  0
LINE
  8
0
 10
-139.469
 20
790.016
 11
-139.823
 21
790.349
  0
LINE
  8
0
 10
-139.823
 20
790.349
 11
-140.133
 21
790.724
  0
LINE
  8
0
 10
-140.133
 20
790.724
 11
-140.394
 21
791.134
  0
LINE
  8
0
 10
-140.394
 20
791.134
 11
-140.601
 21
791.574
  0
LINE
  8
0
 10
-140.601
 20
791.574
 11
-140.751
 21
792.037
  0
LINE
  8
0
 10
-140.751
 20
792.037
 11
-140.842
 21
792.515
  0
LINE
  8
0
 10
-140.842
 20
792.515
 11
-140.873
 21
793
  0
LINE
  8
0
 10
-140.873
 20
793
 11
-140.873
 21
947
  0
LINE
  8
0
 10
-140.873
 20
947
 11
-140.842
 21
947.485
  0
LINE
  8
0
 10
-140.842
 20
947.485
 11
-140.751
 21
947.963
  0
LINE
  8
0
 10
-140.751
 20
947.963
 11
-140.601
 21
948.426
  0
LINE
  8
0
 10
-140.601
 20
948.426
 11
-140.394
 21
948.866
  0
LINE
  8
0
 10
-140.394
 20
948.866
 11
-140.133
 21
949.276
  0
LINE
  8
0
 10
-140.133
 20
949.276
 11
-139.823
 21
949.651
  0
LINE
  8
0
 10
-139.823
 20
949.651
 11
-139.469
 21
949.984
  0
LINE
  8
0
 10
-139.469
 20
949.984
 11
-139.075
 21
950.27
  0
LINE
  8
0
 10
-139.075
 20
950.27
 11
-138.649
 21
950.504
  0
LINE
  8
0
 10
-138.649
 20
950.504
 11
-138.197
 21
950.683
  0
LINE
  8
0
 10
-138.197
 20
950.683
 11
-137.726
 21
950.804
  0
LINE
  8
0
 10
-137.726
 20
950.804
 11
-137.243
 21
950.865
  0
LINE
  8
0
 10
-137.243
 20
950.865
 11
137.243
 21
950.865
  0
LINE
  8
0
 10
137.243
 20
950.865
 11
137.726
 21
950.804
  0
LINE
  8
0
 10
137.726
 20
950.804
 11
138.197
 21
950.683
  0
LINE
  8
0
 10
138.197
 20
950.683
 11
138.649
 21
950.504
  0
LINE
  8
0
 10
138.649
 20
950.504
 11
139.075
 21
950.27
  0
LINE
  8
0
 10
139.075
 20
950.27
 11
139.469
 21
949.984
  0
LINE
  8
0
 10
139.469
 20
949.984
 11
139.823
 21
949.651
  0
LINE
  8
0
 10
139.823
 20
949.651
 11
140.133
 21
949.276
  0
LINE
  8
0
 10
140.133
 20
949.276
 11
140.394
 21
948.866
  0
LINE
  8
0
 10
140.394
 20
948.866
 11
140.601
 21
948.426
  0
LINE
  8
0
 10
140.601
 20
948.426
 11
140.751
 21
947.963
  0
LINE
  8
0
 10
140.751
 20
947.963
 11
140.842
 21
947.485
  0
LINE
  8
0
 10
140.842
 20
947.485
 11
140.873
 21
947
  0
LINE
  8
0
 10
140.873
 20
947
 11
140.873
 21
793
  0
LINE
  8
0
 10
140.873
 20
793
 11
140.842
 21
792.515
  0
LINE
  8
0
 10
140.842
 20
792.515
 11
140.751
 21
792.037
  0
LINE
  8
0
 10
140.751
 20
792.037
 11
140.601
 21
791.574
  0
LINE
  8
0
 10
140.601
 20
791.574
 11
140.394
 21
791.134
  0
LINE
  8
0
 10
140.394
 20
791.134
 11
140.133
 21
790.724
  0
LINE
  8
0
 10
140.133
 20
790.724
 11
139.823
 21
790.349
  0
LINE
  8
0
 10
139.823
 20
790.349
 11
139.469
 21
790.016
  0
LINE
  8
0
 10
139.469
 20
790.016
 11
139.075
 21
789.73
  0
LINE
  8
0
 10
139.075
 20
789.73
 11
138.649
 21
789.496
  0
LINE
  8
0
 10
138.649
 20
789.496
 11
138.197
 21
789.317
  0
LINE
  8
0
 10
138.197
 20
789.317
 11
137.726
 21
789.196
  0
LINE
  8
0
 10
137.726
 20
789.196
 11
137.243
 21
789.135
  0
LINE
  8
0
 10
137.243
 20
789.135
 11
-137.243
 21
789.135
  0
LINE
  8
0
 10
138.437
 20
613.589
 11
139.045
 21
613.745
  0
LINE
  8
0
 10
139.045
 20
613.745
 11
139.629
 21
613.976
  0
LINE
  8
0
 10
139.629
 20
613.976
 11
140.179
 21
614.278
  0
LINE
  8
0
 10
140.179
 20
614.278
 11
140.687
 21
614.647
  0
LINE
  8
0
 10
140.687
 20
614.647
 11
141.145
 21
615.077
  0
LINE
  8
0
 10
141.145
 20
615.077
 11
141.545
 21
615.561
  0
LINE
  8
0
 10
141.545
 20
615.561
 11
141.882
 21
616.091
  0
LINE
  8
0
 10
141.882
 20
616.091
 11
142.149
 21
616.659
  0
LINE
  8
0
 10
142.149
 20
616.659
 11
142.343
 21
617.257
  0
LINE
  8
0
 10
142.343
 20
617.257
 11
142.461
 21
617.873
  0
LINE
  8
0
 10
142.461
 20
617.873
 11
142.5
 21
618.5
  0
LINE
  8
0
 10
142.5
 20
618.5
 11
142.5
 21
773.5
  0
LINE
  8
0
 10
142.5
 20
773.5
 11
142.461
 21
774.127
  0
LINE
  8
0
 10
142.461
 20
774.127
 11
142.343
 21
774.743
  0
LINE
  8
0
 10
142.343
 20
774.743
 11
142.149
 21
775.341
  0
LINE
  8
0
 10
142.149
 20
775.341
 11
141.882
 21
775.909
  0
LINE
  8
0
 10
141.882
 20
775.909
 11
141.545
 21
776.439
  0
LINE
  8
0
 10
141.545
 20
776.439
 11
141.145
 21
776.923
  0
LINE
  8
0
 10
141.145
 20
776.923
 11
140.687
 21
777.353
  0
LINE
  8
0
 10
140.687
 20
777.353
 11
140.179
 21
777.722
  0
LINE
  8
0
 10
140.179
 20
777.722
 11
139.629
 21
778.024
  0
LINE
  8
0
 10
139.629
 20
778.024
 11
139.045
 21
778.255
  0
LINE
  8
0
 10
139.045
 20
778.255
 11
138.437
 21
778.411
  0
LINE
  8
0
 10
138.437
 20
778.411
 11
137.814
 21
778.49
  0
LINE
  8
0
 10
137.814
 20
778.49
 11
-137.814
 21
778.49
  0
LINE
  8
0
 10
-137.814
 20
778.49
 11
-138.437
 21
778.411
  0
LINE
  8
0
 10
-138.437
 20
778.411
 11
-139.045
 21
778.255
  0
LINE
  8
0
 10
-139.045
 20
778.255
 11
-139.629
 21
778.024
  0
LINE
  8
0
 10
-139.629
 20
778.024
 11
-140.179
 21
777.722
  0
LINE
  8
0
 10
-140.179
 20
777.722
 11
-140.687
 21
777.353
  0
LINE
  8
0
 10
-140.687
 20
777.353
 11
-141
 21
777.059
  0
LINE
  8
0
 10
-141
 20
777.059
 11
-141
 21
778.115
  0
LINE
  8
0
 10
-141
 20
778.115
 11
-144
 21
778.115
  0
LINE
  8
0
 10
-144
 20
778.115
 11
-144
 21
613.885
  0
LINE
  8
0
 10
-144
 20
613.885
 11
-141
 21
613.885
  0
LINE
  8
0
 10
-141
 20
613.885
 11
-141
 21
614.941
  0
LINE
  8
0
 10
-141
 20
614.941
 11
-140.687
 21
614.647
  0
LINE
  8
0
 10
-140.687
 20
614.647
 11
-140.179
 21
614.278
  0
LINE
  8
0
 10
-140.179
 20
614.278
 11
-139.629
 21
613.976
  0
LINE
  8
0
 10
-139.629
 20
613.976
 11
-139.045
 21
613.745
  0
LINE
  8
0
 10
-139.045
 20
613.745
 11
-138.437
 21
613.589
  0
LINE
  8
0
 10
-138.437
 20
613.589
 11
-137.814
 21
613.51
  0
LINE
  8
0
 10
-137.814
 20
613.51
 11
137.814
 21
613.51
  0
LINE
  8
0
 10
137.814
 20
613.51
 11
138.437
 21
613.589
  0
LINE
  8
0
 10
-135.151
 20
768.605
 11
-135.45
 21
768.643
  0
LINE
  8
0
 10
-135.45
 20
768.643
 11
-135.742
 21
768.717
  0
LINE
  8
0
 10
-135.742
 20
768.717
 11
-136.022
 21
768.828
  0
LINE
  8
0
 10
-136.022
 20
768.828
 11
-136.286
 21
768.974
  0
LINE
  8
0
 10
-136.286
 20
768.974
 11
-136.53
 21
769.151
  0
LINE
  8
0
 10
-136.53
 20
769.151
 11
-136.75
 21
769.357
  0
LINE
  8
0
 10
-136.75
 20
769.357
 11
-136.942
 21
769.589
  0
LINE
  8
0
 10
-136.942
 20
769.589
 11
-137.103
 21
769.844
  0
LINE
  8
0
 10
-137.103
 20
769.844
 11
-137.231
 21
770.117
  0
LINE
  8
0
 10
-137.231
 20
770.117
 11
-137.325
 21
770.403
  0
LINE
  8
0
 10
-137.325
 20
770.403
 11
-137.381
 21
770.699
  0
LINE
  8
0
 10
-137.381
 20
770.699
 11
-137.4
 21
771
  0
LINE
  8
0
 10
-137.4
 20
771
 11
-137.381
 21
771.301
  0
LINE
  8
0
 10
-137.381
 20
771.301
 11
-137.325
 21
771.597
  0
LINE
  8
0
 10
-137.325
 20
771.597
 11
-137.231
 21
771.883
  0
LINE
  8
0
 10
-137.231
 20
771.883
 11
-137.103
 21
772.156
  0
LINE
  8
0
 10
-137.103
 20
772.156
 11
-136.942
 21
772.411
  0
LINE
  8
0
 10
-136.942
 20
772.411
 11
-136.75
 21
772.643
  0
LINE
  8
0
 10
-136.75
 20
772.643
 11
-136.53
 21
772.849
  0
LINE
  8
0
 10
-136.53
 20
772.849
 11
-136.286
 21
773.026
  0
LINE
  8
0
 10
-136.286
 20
773.026
 11
-136.022
 21
773.172
  0
LINE
  8
0
 10
-136.022
 20
773.172
 11
-135.742
 21
773.283
  0
LINE
  8
0
 10
-135.742
 20
773.283
 11
-135.45
 21
773.357
  0
LINE
  8
0
 10
-135.45
 20
773.357
 11
-135.151
 21
773.395
  0
LINE
  8
0
 10
-135.151
 20
773.395
 11
-134.849
 21
773.395
  0
LINE
  8
0
 10
-134.849
 20
773.395
 11
-134.55
 21
773.357
  0
LINE
  8
0
 10
-134.55
 20
773.357
 11
-134.258
 21
773.283
  0
LINE
  8
0
 10
-134.258
 20
773.283
 11
-133.978
 21
773.172
  0
LINE
  8
0
 10
-133.978
 20
773.172
 11
-133.714
 21
773.026
  0
LINE
  8
0
 10
-133.714
 20
773.026
 11
-133.47
 21
772.849
  0
LINE
  8
0
 10
-133.47
 20
772.849
 11
-133.25
 21
772.643
  0
LINE
  8
0
 10
-133.25
 20
772.643
 11
-133.058
 21
772.411
  0
LINE
  8
0
 10
-133.058
 20
772.411
 11
-132.897
 21
772.156
  0
LINE
  8
0
 10
-132.897
 20
772.156
 11
-132.769
 21
771.883
  0
LINE
  8
0
 10
-132.769
 20
771.883
 11
-132.675
 21
771.597
  0
LINE
  8
0
 10
-132.675
 20
771.597
 11
-132.619
 21
771.301
  0
LINE
  8
0
 10
-132.619
 20
771.301
 11
-132.6
 21
771
  0
LINE
  8
0
 10
-132.6
 20
771
 11
-132.619
 21
770.699
  0
LINE
  8
0
 10
-132.619
 20
770.699
 11
-132.675
 21
770.403
  0
LINE
  8
0
 10
-132.675
 20
770.403
 11
-132.769
 21
770.117
  0
LINE
  8
0
 10
-132.769
 20
770.117
 11
-132.897
 21
769.844
  0
LINE
  8
0
 10
-132.897
 20
769.844
 11
-133.058
 21
769.589
  0
LINE
  8
0
 10
-133.058
 20
769.589
 11
-133.25
 21
769.357
  0
LINE
  8
0
 10
-133.25
 20
769.357
 11
-133.47
 21
769.151
  0
LINE
  8
0
 10
-133.47
 20
769.151
 11
-133.714
 21
768.974
  0
LINE
  8
0
 10
-133.714
 20
768.974
 11
-133.978
 21
768.828
  0
LINE
  8
0
 10
-133.978
 20
768.828
 11
-134.258
 21
768.717
  0
LINE
  8
0
 10
-134.258
 20
768.717
 11
-134.55
 21
768.643
  0
LINE
  8
0
 10
-134.55
 20
768.643
 11
-134.849
 21
768.605
  0
LINE
  8
0
 10
-134.849
 20
768.605
 11
-135.151
 21
768.605
  0
LINE
  8
0
 10
134.849
 20
768.605
 11
134.55
 21
768.643
  0
LINE
  8
0
 10
134.55
 20
768.643
 11
134.258
 21
768.717
  0
LINE
  8
0
 10
134.258
 20
768.717
 11
133.978
 21
768.828
  0
LINE
  8
0
 10
133.978
 20
768.828
 11
133.714
 21
768.974
  0
LINE
  8
0
 10
133.714
 20
768.974
 11
133.47
 21
769.151
  0
LINE
  8
0
 10
133.47
 20
769.151
 11
133.25
 21
769.357
  0
LINE
  8
0
 10
133.25
 20
769.357
 11
133.058
 21
769.589
  0
LINE
  8
0
 10
133.058
 20
769.589
 11
132.897
 21
769.844
  0
LINE
  8
0
 10
132.897
 20
769.844
 11
132.769
 21
770.117
  0
LINE
  8
0
 10
132.769
 20
770.117
 11
132.675
 21
770.403
  0
LINE
  8
0
 10
132.675
 20
770.403
 11
132.619
 21
770.699
  0
LINE
  8
0
 10
132.619
 20
770.699
 11
132.6
 21
771
  0
LINE
  8
0
 10
132.6
 20
771
 11
132.619
 21
771.301
  0
LINE
  8
0
 10
132.619
 20
771.301
 11
132.675
 21
771.597
  0
LINE
  8
0
 10
132.675
 20
771.597
 11
132.769
 21
771.883
  0
LINE
  8
0
 10
132.769
 20
771.883
 11
132.897
 21
772.156
  0
LINE
  8
0
 10
132.897
 20
772.156
 11
133.058
 21
772.411
  0
LINE
  8
0
 10
133.058
 20
772.411
 11
133.25
 21
772.643
  0
LINE
  8
0
 10
133.25
 20
772.643
 11
133.47
 21
772.849
  0
LINE
  8
0
 10
133.47
 20
772.849
 11
133.714
 21
773.026
  0
LINE
  8
0
 10
133.714
 20
773.026
 11
133.978
 21
773.172
  0
LINE
  8
0
 10
133.978
 20
773.172
 11
134.258
 21
773.283
  0
LINE
  8
0
 10
134.258
 20
773.283
 11
134.55
 21
773.357
  0
LINE
  8
0
 10
134.55
 20
773.357
 11
134.849
 21
773.395
  0
LINE
  8
0
 10
134.849
 20
773.395
 11
135.151
 21
773.395
  0
LINE
  8
0
 10
135.151
 20
773.395
 11
135.45
 21
773.357
  0
LINE
  8
0
 10
135.45
 20
773.357
 11
135.742
 21
773.283
  0
LINE
  8
0
 10
135.742
 20
773.283
 11
136.022
 21
773.172
  0
LINE
  8
0
 10
136.022
 20
773.172
 11
136.286
 21
773.026
  0
LINE
  8
0
 10
136.286
 20
773.026
 11
136.53
 21
772.849
  0
LINE
  8
0
 10
136.53
 20
772.849
 11
136.75
 21
772.643
  0
LINE
  8
0
 10
136.75
 20
772.643
 11
136.942
 21
772.411
  0
LINE
  8
0
 10
136.942
 20
772.411
 11
137.103
 21
772.156
  0
LINE
  8
0
 10
137.103
 20
772.156
 11
137.231
 21
771.883
  0
LINE
  8
0
 10
137.231
 20
771.883
 11
137.325
 21
771.597
  0
LINE
  8
0
 10
137.325
 20
771.597
 11
137.381
 21
771.301
  0
LINE
  8
0
 10
137.381
 20
771.301
 11
137.4
 21
771
  0
LINE
  8
0
 10
137.4
 20
771
 11
137.381
 21
770.699
  0
LINE
  8
0
 10
137.381
 20
770.699
 11
137.325
 21
770.403
  0
LINE
  8
0
 10
137.325
 20
770.403
 11
137.231
 21
770.117
  0
LINE
  8
0
 10
137.231
 20
770.117
 11
137.103
 21
769.844
  0
LINE
  8
0
 10
137.103
 20
769.844
 11
136.942
 21
769.589
  0
LINE
  8
0
 10
136.942
 20
769.589
 11
136.75
 21
769.357
  0
LINE
  8
0
 10
136.75
 20
769.357
 11
136.53
 21
769.151
  0
LINE
  8
0
 10
136.53
 20
769.151
 11
136.286
 21
768.974
  0
LINE
  8
0
 10
136.286
 20
768.974
 11
136.022
 21
768.828
  0
LINE
  8
0
 10
136.022
 20
768.828
 11
135.742
 21
768.717
  0
LINE
  8
0
 10
135.742
 20
768.717
 11
135.45
 21
768.643
  0
LINE
  8
0
 10
135.45
 20
768.643
 11
135.151
 21
768.605
  0
LINE
  8
0
 10
135.151
 20
768.605
 11
134.849
 21
768.605
  0
LINE
  8
0
 10
134.849
 20
618.605
 11
134.55
 21
618.643
  0
LINE
  8
0
 10
134.55
 20
618.643
 11
134.258
 21
618.717
  0
LINE
  8
0
 10
134.258
 20
618.717
 11
133.978
 21
618.828
  0
LINE
  8
0
 10
133.978
 20
618.828
 11
133.714
 21
618.974
  0
LINE
  8
0
 10
133.714
 20
618.974
 11
133.47
 21
619.151
  0
LINE
  8
0
 10
133.47
 20
619.151
 11
133.25
 21
619.357
  0
LINE
  8
0
 10
133.25
 20
619.357
 11
133.058
 21
619.589
  0
LINE
  8
0
 10
133.058
 20
619.589
 11
132.897
 21
619.844
  0
LINE
  8
0
 10
132.897
 20
619.844
 11
132.769
 21
620.117
  0
LINE
  8
0
 10
132.769
 20
620.117
 11
132.675
 21
620.403
  0
LINE
  8
0
 10
132.675
 20
620.403
 11
132.619
 21
620.699
  0
LINE
  8
0
 10
132.619
 20
620.699
 11
132.6
 21
621
  0
LINE
  8
0
 10
132.6
 20
621
 11
132.619
 21
621.301
  0
LINE
  8
0
 10
132.619
 20
621.301
 11
132.675
 21
621.597
  0
LINE
  8
0
 10
132.675
 20
621.597
 11
132.769
 21
621.883
  0
LINE
  8
0
 10
132.769
 20
621.883
 11
132.897
 21
622.156
  0
LINE
  8
0
 10
132.897
 20
622.156
 11
133.058
 21
622.411
  0
LINE
  8
0
 10
133.058
 20
622.411
 11
133.25
 21
622.643
  0
LINE
  8
0
 10
133.25
 20
622.643
 11
133.47
 21
622.849
  0
LINE
  8
0
 10
133.47
 20
622.849
 11
133.714
 21
623.026
  0
LINE
  8
0
 10
133.714
 20
623.026
 11
133.978
 21
623.172
  0
LINE
  8
0
 10
133.978
 20
623.172
 11
134.258
 21
623.283
  0
LINE
  8
0
 10
134.258
 20
623.283
 11
134.55
 21
623.357
  0
LINE
  8
0
 10
134.55
 20
623.357
 11
134.849
 21
623.395
  0
LINE
  8
0
 10
134.849
 20
623.395
 11
135.151
 21
623.395
  0
LINE
  8
0
 10
135.151
 20
623.395
 11
135.45
 21
623.357
  0
LINE
  8
0
 10
135.45
 20
623.357
 11
135.742
 21
623.283
  0
LINE
  8
0
 10
135.742
 20
623.283
 11
136.022
 21
623.172
  0
LINE
  8
0
 10
136.022
 20
623.172
 11
136.286
 21
623.026
  0
LINE
  8
0
 10
136.286
 20
623.026
 11
136.53
 21
622.849
  0
LINE
  8
0
 10
136.53
 20
622.849
 11
136.75
 21
622.643
  0
LINE
  8
0
 10
136.75
 20
622.643
 11
136.942
 21
622.411
  0
LINE
  8
0
 10
136.942
 20
622.411
 11
137.103
 21
622.156
  0
LINE
  8
0
 10
137.103
 20
622.156
 11
137.231
 21
621.883
  0
LINE
  8
0
 10
137.231
 20
621.883
 11
137.325
 21
621.597
  0
LINE
  8
0
 10
137.325
 20
621.597
 11
137.381
 21
621.301
  0
LINE
  8
0
 10
137.381
 20
621.301
 11
137.4
 21
621
  0
LINE
  8
0
 10
137.4
 20
621
 11
137.381
 21
620.699
  0
LINE
  8
0
 10
137.381
 20
620.699
 11
137.325
 21
620.403
  0
LINE
  8
0
 10
137.325
 20
620.403
 11
137.231
 21
620.117
  0
LINE
  8
0
 10
137.231
 20
620.117
 11
137.103
 21
619.844
  0
LINE
  8
0
 10
137.103
 20
619.844
 11
136.942
 21
619.589
  0
LINE
  8
0
 10
136.942
 20
619.589
 11
136.75
 21
619.357
  0
LINE
  8
0
 10
136.75
 20
619.357
 11
136.53
 21
619.151
  0
LINE
  8
0
 10
136.53
 20
619.151
 11
136.286
 21
618.974
  0
LINE
  8
0
 10
136.286
 20
618.974
 11
136.022
 21
618.828
  0
LINE
  8
0
 10
136.022
 20
618.828
 11
135.742
 21
618.717
  0
LINE
  8
0
 10
135.742
 20
618.717
 11
135.45
 21
618.643
  0
LINE
  8
0
 10
135.45
 20
618.643
 11
135.151
 21
618.605
  0
LINE
  8
0
 10
135.151
 20
618.605
 11
134.849
 21
618.605
  0
LINE
  8
0
 10
-135.151
 20
618.605
 11
-135.45
 21
618.643
  0
LINE
  8
0
 10
-135.45
 20
618.643
 11
-135.742
 21
618.717
  0
LINE
  8
0
 10
-135.742
 20
618.717
 11
-136.022
 21
618.828
  0
LINE
  8
0
 10
-136.022
 20
618.828
 11
-136.286
 21
618.974
  0
LINE
  8
0
 10
-136.286
 20
618.974
 11
-136.53
 21
619.151
  0
LINE
  8
0
 10
-136.53
 20
619.151
 11
-136.75
 21
619.357
  0
LINE
  8
0
 10
-136.75
 20
619.357
 11
-136.942
 21
619.589
  0
LINE
  8
0
 10
-136.942
 20
619.589
 11
-137.103
 21
619.844
  0
LINE
  8
0
 10
-137.103
 20
619.844
 11
-137.231
 21
620.117
  0
LINE
  8
0
 10
-137.231
 20
620.117
 11
-137.325
 21
620.403
  0
LINE
  8
0
 10
-137.325
 20
620.403
 11
-137.381
 21
620.699
  0
LINE
  8
0
 10
-137.381
 20
620.699
 11
-137.4
 21
621
  0
LINE
  8
0
 10
-137.4
 20
621
 11
-137.381
 21
621.301
  0
LINE
  8
0
 10
-137.381
 20
621.301
 11
-137.325
 21
621.597
  0
LINE
  8
0
 10
-137.325
 20
621.597
 11
-137.231
 21
621.883
  0
LINE
  8
0
 10
-137.231
 20
621.883
 11
-137.103
 21
622.156
  0
LINE
  8
0
 10
-137.103
 20
622.156
 11
-136.942
 21
622.411
  0
LINE
  8
0
 10
-136.942
 20
622.411
 11
-136.75
 21
622.643
  0
LINE
  8
0
 10
-136.75
 20
622.643
 11
-136.53
 21
622.849
  0
LINE
  8
0
 10
-136.53
 20
622.849
 11
-136.286
 21
623.026
  0
LINE
  8
0
 10
-136.286
 20
623.026
 11
-136.022
 21
623.172
  0
LINE
  8
0
 10
-136.022
 20
623.172
 11
-135.742
 21
623.283
  0
LINE
  8
0
 10
-135.742
 20
623.283
 11
-135.45
 21
623.357
  0
LINE
  8
0
 10
-135.45
 20
623.357
 11
-135.151
 21
623.395
  0
LINE
  8
0
 10
-135.151
 20
623.395
 11
-134.849
 21
623.395
  0
LINE
  8
0
 10
-134.849
 20
623.395
 11
-134.55
 21
623.357
  0
LINE
  8
0
 10
-134.55
 20
623.357
 11
-134.258
 21
623.283
  0
LINE
  8
0
 10
-134.258
 20
623.283
 11
-133.978
 21
623.172
  0
LINE
  8
0
 10
-133.978
 20
623.172
 11
-133.714
 21
623.026
  0
LINE
  8
0
 10
-133.714
 20
623.026
 11
-133.47
 21
622.849
  0
LINE
  8
0
 10
-133.47
 20
622.849
 11
-133.25
 21
622.643
  0
LINE
  8
0
 10
-133.25
 20
622.643
 11
-133.058
 21
622.411
  0
LINE
  8
0
 10
-133.058
 20
622.411
 11
-132.897
 21
622.156
  0
LINE
  8
0
 10
-132.897
 20
622.156
 11
-132.769
 21
621.883
  0
LINE
  8
0
 10
-132.769
 20
621.883
 11
-132.675
 21
621.597
  0
LINE
  8
0
 10
-132.675
 20
621.597
 11
-132.619
 21
621.301
  0
LINE
  8
0
 10
-132.619
 20
621.301
 11
-132.6
 21
621
  0
LINE
  8
0
 10
-132.6
 20
621
 11
-132.619
 21
620.699
  0
LINE
  8
0
 10
-132.619
 20
620.699
 11
-132.675
 21
620.403
  0
LINE
  8
0
 10
-132.675
 20
620.403
 11
-132.769
 21
620.117
  0
LINE
  8
0
 10
-132.769
 20
620.117
 11
-132.897
 21
619.844
  0
LINE
  8
0
 10
-132.897
 20
619.844
 11
-133.058
 21
619.589
  0
LINE
  8
0
 10
-133.058
 20
619.589
 11
-133.25
 21
619.357
  0
LINE
  8
0
 10
-133.25
 20
619.357
 11
-133.47
 21
619.151
  0
LINE
  8
0
 10
-133.47
 20
619.151
 11
-133.714
 21
618.974
  0
LINE
  8
0
 10
-133.714
 20
618.974
 11
-133.978
 21
618.828
  0
LINE
  8
0
 10
-133.978
 20
618.828
 11
-134.258
 21
618.717
  0
LINE
  8
0
 10
-134.258
 20
618.717
 11
-134.55
 21
618.643
  0
LINE
  8
0
 10
-134.55
 20
618.643
 11
-134.849
 21
618.605
  0
LINE
  8
0
 10
-134.849
 20
618.605
 11
-135.151
 21
618.605
  0
LINE
  8
0
 10
138.437
 20
439.589
 11
139.045
 21
439.745
  0
LINE
  8
0
 10
139.045
 20
439.745
 11
139.629
 21
439.976
  0
LINE
  8
0
 10
139.629
 20
439.976
 11
140.179
 21
440.278
  0
LINE
  8
0
 10
140.179
 20
440.278
 11
140.687
 21
440.647
  0
LINE
  8
0
 10
140.687
 20
440.647
 11
141.145
 21
441.077
  0
LINE
  8
0
 10
141.145
 20
441.077
 11
141.545
 21
441.561
  0
LINE
  8
0
 10
141.545
 20
441.561
 11
141.882
 21
442.091
  0
LINE
  8
0
 10
141.882
 20
442.091
 11
142.149
 21
442.659
  0
LINE
  8
0
 10
142.149
 20
442.659
 11
142.343
 21
443.257
  0
LINE
  8
0
 10
142.343
 20
443.257
 11
142.461
 21
443.873
  0
LINE
  8
0
 10
142.461
 20
443.873
 11
142.5
 21
444.5
  0
LINE
  8
0
 10
142.5
 20
444.5
 11
142.5
 21
599.5
  0
LINE
  8
0
 10
142.5
 20
599.5
 11
142.461
 21
600.127
  0
LINE
  8
0
 10
142.461
 20
600.127
 11
142.343
 21
600.743
  0
LINE
  8
0
 10
142.343
 20
600.743
 11
142.149
 21
601.341
  0
LINE
  8
0
 10
142.149
 20
601.341
 11
141.882
 21
601.909
  0
LINE
  8
0
 10
141.882
 20
601.909
 11
141.545
 21
602.439
  0
LINE
  8
0
 10
141.545
 20
602.439
 11
141.145
 21
602.923
  0
LINE
  8
0
 10
141.145
 20
602.923
 11
140.687
 21
603.353
  0
LINE
  8
0
 10
140.687
 20
603.353
 11
140.179
 21
603.722
  0
LINE
  8
0
 10
140.179
 20
603.722
 11
139.629
 21
604.024
  0
LINE
  8
0
 10
139.629
 20
604.024
 11
139.045
 21
604.255
  0
LINE
  8
0
 10
139.045
 20
604.255
 11
138.437
 21
604.411
  0
LINE
  8
0
 10
138.437
 20
604.411
 11
137.814
 21
604.49
  0
LINE
  8
0
 10
137.814
 20
604.49
 11
-137.814
 21
604.49
  0
LINE
  8
0
 10
-137.814
 20
604.49
 11
-138.437
 21
604.411
  0
LINE
  8
0
 10
-138.437
 20
604.411
 11
-139.045
 21
604.255
  0
LINE
  8
0
 10
-139.045
 20
604.255
 11
-139.629
 21
604.024
  0
LINE
  8
0
 10
-139.629
 20
604.024
 11
-140.179
 21
603.722
  0
LINE
  8
0
 10
-140.179
 20
603.722
 11
-140.687
 21
603.353
  0
LINE
  8
0
 10
-140.687
 20
603.353
 11
-141.145
 21
602.923
  0
LINE
  8
0
 10
-141.145
 20
602.923
 11
-141.545
 21
602.439
  0
LINE
  8
0
 10
-141.545
 20
602.439
 11
-141.882
 21
601.909
  0
LINE
  8
0
 10
-141.882
 20
601.909
 11
-142.149
 21
601.341
  0
LINE
  8
0
 10
-142.149
 20
601.341
 11
-142.343
 21
600.743
  0
LINE
  8
0
 10
-142.343
 20
600.743
 11
-142.4
 21
600.444
  0
LINE
  8
0
 10
-142.4
 20
600.444
 11
-144
 21
600.444
  0
LINE
  8
0
 10
-144
 20
600.444
 11
-144
 21
443.556
  0
LINE
  8
0
 10
-144
 20
443.556
 11
-142.4
 21
443.556
  0
LINE
  8
0
 10
-142.4
 20
443.556
 11
-142.343
 21
443.257
  0
LINE
  8
0
 10
-142.343
 20
443.257
 11
-142.149
 21
442.659
  0
LINE
  8
0
 10
-142.149
 20
442.659
 11
-141.882
 21
442.091
  0
LINE
  8
0
 10
-141.882
 20
442.091
 11
-141.545
 21
441.561
  0
LINE
  8
0
 10
-141.545
 20
441.561
 11
-141.145
 21
441.077
  0
LINE
  8
0
 10
-141.145
 20
441.077
 11
-140.687
 21
440.647
  0
LINE
  8
0
 10
-140.687
 20
440.647
 11
-140.179
 21
440.278
  0
LINE
  8
0
 10
-140.179
 20
440.278
 11
-139.629
 21
439.976
  0
LINE
  8
0
 10
-139.629
 20
439.976
 11
-139.045
 21
439.745
  0
LINE
  8
0
 10
-139.045
 20
439.745
 11
-138.437
 21
439.589
  0
LINE
  8
0
 10
-138.437
 20
439.589
 11
-137.814
 21
439.51
  0
LINE
  8
0
 10
-137.814
 20
439.51
 11
137.814
 21
439.51
  0
LINE
  8
0
 10
137.814
 20
439.51
 11
138.437
 21
439.589
  0
LINE
  8
0
 10
-135.113
 20
595.204
 11
-135.337
 21
595.232
  0
LINE
  8
0
 10
-135.337
 20
595.232
 11
-135.556
 21
595.288
  0
LINE
  8
0
 10
-135.556
 20
595.288
 11
-135.766
 21
595.371
  0
LINE
  8
0
 10
-135.766
 20
595.371
 11
-135.964
 21
595.48
  0
LINE
  8
0
 10
-135.964
 20
595.48
 11
-136.147
 21
595.613
  0
LINE
  8
0
 10
-136.147
 20
595.613
 11
-136.312
 21
595.768
  0
LINE
  8
0
 10
-136.312
 20
595.768
 11
-136.456
 21
595.942
  0
LINE
  8
0
 10
-136.456
 20
595.942
 11
-136.577
 21
596.133
  0
LINE
  8
0
 10
-136.577
 20
596.133
 11
-136.674
 21
596.337
  0
LINE
  8
0
 10
-136.674
 20
596.337
 11
-136.743
 21
596.552
  0
LINE
  8
0
 10
-136.743
 20
596.552
 11
-136.786
 21
596.774
  0
LINE
  8
0
 10
-136.786
 20
596.774
 11
-136.8
 21
597
  0
LINE
  8
0
 10
-136.8
 20
597
 11
-136.786
 21
597.226
  0
LINE
  8
0
 10
-136.786
 20
597.226
 11
-136.743
 21
597.448
  0
LINE
  8
0
 10
-136.743
 20
597.448
 11
-136.674
 21
597.663
  0
LINE
  8
0
 10
-136.674
 20
597.663
 11
-136.577
 21
597.867
  0
LINE
  8
0
 10
-136.577
 20
597.867
 11
-136.456
 21
598.058
  0
LINE
  8
0
 10
-136.456
 20
598.058
 11
-136.312
 21
598.232
  0
LINE
  8
0
 10
-136.312
 20
598.232
 11
-136.147
 21
598.387
  0
LINE
  8
0
 10
-136.147
 20
598.387
 11
-135.964
 21
598.52
  0
LINE
  8
0
 10
-135.964
 20
598.52
 11
-135.766
 21
598.629
  0
LINE
  8
0
 10
-135.766
 20
598.629
 11
-135.556
 21
598.712
  0
LINE
  8
0
 10
-135.556
 20
598.712
 11
-135.337
 21
598.768
  0
LINE
  8
0
 10
-135.337
 20
598.768
 11
-135.113
 21
598.796
  0
LINE
  8
0
 10
-135.113
 20
598.796
 11
-134.887
 21
598.796
  0
LINE
  8
0
 10
-134.887
 20
598.796
 11
-134.663
 21
598.768
  0
LINE
  8
0
 10
-134.663
 20
598.768
 11
-134.444
 21
598.712
  0
LINE
  8
0
 10
-134.444
 20
598.712
 11
-134.234
 21
598.629
  0
LINE
  8
0
 10
-134.234
 20
598.629
 11
-134.036
 21
598.52
  0
LINE
  8
0
 10
-134.036
 20
598.52
 11
-133.853
 21
598.387
  0
LINE
  8
0
 10
-133.853
 20
598.387
 11
-133.688
 21
598.232
  0
LINE
  8
0
 10
-133.688
 20
598.232
 11
-133.544
 21
598.058
  0
LINE
  8
0
 10
-133.544
 20
598.058
 11
-133.423
 21
597.867
  0
LINE
  8
0
 10
-133.423
 20
597.867
 11
-133.326
 21
597.663
  0
LINE
  8
0
 10
-133.326
 20
597.663
 11
-133.257
 21
597.448
  0
LINE
  8
0
 10
-133.257
 20
597.448
 11
-133.214
 21
597.226
  0
LINE
  8
0
 10
-133.214
 20
597.226
 11
-133.2
 21
597
  0
LINE
  8
0
 10
-133.2
 20
597
 11
-133.214
 21
596.774
  0
LINE
  8
0
 10
-133.214
 20
596.774
 11
-133.257
 21
596.552
  0
LINE
  8
0
 10
-133.257
 20
596.552
 11
-133.326
 21
596.337
  0
LINE
  8
0
 10
-133.326
 20
596.337
 11
-133.423
 21
596.133
  0
LINE
  8
0
 10
-133.423
 20
596.133
 11
-133.544
 21
595.942
  0
LINE
  8
0
 10
-133.544
 20
595.942
 11
-133.688
 21
595.768
  0
LINE
  8
0
 10
-133.688
 20
595.768
 11
-133.853
 21
595.613
  0
LINE
  8
0
 10
-133.853
 20
595.613
 11
-134.036
 21
595.48
  0
LINE
  8
0
 10
-134.036
 20
595.48
 11
-134.234
 21
595.371
  0
LINE
  8
0
 10
-134.234
 20
595.371
 11
-134.444
 21
595.288
  0
LINE
  8
0
 10
-134.444
 20
595.288
 11
-134.663
 21
595.232
  0
LINE
  8
0
 10
-134.663
 20
595.232
 11
-134.887
 21
595.204
  0
LINE
  8
0
 10
-134.887
 20
595.204
 11
-135.113
 21
595.204
  0
LINE
  8
0
 10
134.887
 20
595.204
 11
134.663
 21
595.232
  0
LINE
  8
0
 10
134.663
 20
595.232
 11
134.444
 21
595.288
  0
LINE
  8
0
 10
134.444
 20
595.288
 11
134.234
 21
595.371
  0
LINE
  8
0
 10
134.234
 20
595.371
 11
134.036
 21
595.48
  0
LINE
  8
0
 10
134.036
 20
595.48
 11
133.853
 21
595.613
  0
LINE
  8
0
 10
133.853
 20
595.613
 11
133.688
 21
595.768
  0
LINE
  8
0
 10
133.688
 20
595.768
 11
133.544
 21
595.942
  0
LINE
  8
0
 10
133.544
 20
595.942
 11
133.423
 21
596.133
  0
LINE
  8
0
 10
133.423
 20
596.133
 11
133.326
 21
596.337
  0
LINE
  8
0
 10
133.326
 20
596.337
 11
133.257
 21
596.552
  0
LINE
  8
0
 10
133.257
 20
596.552
 11
133.214
 21
596.774
  0
LINE
  8
0
 10
133.214
 20
596.774
 11
133.2
 21
597
  0
LINE
  8
0
 10
133.2
 20
597
 11
133.214
 21
597.226
  0
LINE
  8
0
 10
133.214
 20
597.226
 11
133.257
 21
597.448
  0
LINE
  8
0
 10
133.257
 20
597.448
 11
133.326
 21
597.663
  0
LINE
  8
0
 10
133.326
 20
597.663
 11
133.423
 21
597.867
  0
LINE
  8
0
 10
133.423
 20
597.867
 11
133.544
 21
598.058
  0
LINE
  8
0
 10
133.544
 20
598.058
 11
133.688
 21
598.232
  0
LINE
  8
0
 10
133.688
 20
598.232
 11
133.853
 21
598.387
  0
LINE
  8
0
 10
133.853
 20
598.387
 11
134.036
 21
598.52
  0
LINE
  8
0
 10
134.036
 20
598.52
 11
134.234
 21
598.629
  0
LINE
  8
0
 10
134.234
 20
598.629
 11
134.444
 21
598.712
  0
LINE
  8
0
 10
134.444
 20
598.712
 11
134.663
 21
598.768
  0
LINE
  8
0
 10
134.663
 20
598.768
 11
134.887
 21
598.796
  0
LINE
  8
0
 10
134.887
 20
598.796
 11
135.113
 21
598.796
  0
LINE
  8
0
 10
135.113
 20
598.796
 11
135.337
 21
598.768
  0
LINE
  8
0
 10
135.337
 20
598.768
 11
135.556
 21
598.712
  0
LINE
  8
0
 10
135.556
 20
598.712
 11
135.766
 21
598.629
  0
LINE
  8
0
 10
135.766
 20
598.629
 11
135.964
 21
598.52
  0
LINE
  8
0
 10
135.964
 20
598.52
 11
136.147
 21
598.387
  0
LINE
  8
0
 10
136.147
 20
598.387
 11
136.312
 21
598.232
  0
LINE
  8
0
 10
136.312
 20
598.232
 11
136.456
 21
598.058
  0
LINE
  8
0
 10
136.456
 20
598.058
 11
136.577
 21
597.867
  0
LINE
  8
0
 10
136.577
 20
597.867
 11
136.674
 21
597.663
  0
LINE
  8
0
 10
136.674
 20
597.663
 11
136.743
 21
597.448
  0
LINE
  8
0
 10
136.743
 20
597.448
 11
136.786
 21
597.226
  0
LINE
  8
0
 10
136.786
 20
597.226
 11
136.8
 21
597
  0
LINE
  8
0
 10
136.8
 20
597
 11
136.786
 21
596.774
  0
LINE
  8
0
 10
136.786
 20
596.774
 11
136.743
 21
596.552
  0
LINE
  8
0
 10
136.743
 20
596.552
 11
136.674
 21
596.337
  0
LINE
  8
0
 10
136.674
 20
596.337
 11
136.577
 21
596.133
  0
LINE
  8
0
 10
136.577
 20
596.133
 11
136.456
 21
595.942
  0
LINE
  8
0
 10
136.456
 20
595.942
 11
136.312
 21
595.768
  0
LINE
  8
0
 10
136.312
 20
595.768
 11
136.147
 21
595.613
  0
LINE
  8
0
 10
136.147
 20
595.613
 11
135.964
 21
595.48
  0
LINE
  8
0
 10
135.964
 20
595.48
 11
135.766
 21
595.371
  0
LINE
  8
0
 10
135.766
 20
595.371
 11
135.556
 21
595.288
  0
LINE
  8
0
 10
135.556
 20
595.288
 11
135.337
 21
595.232
  0
LINE
  8
0
 10
135.337
 20
595.232
 11
135.113
 21
595.204
  0
LINE
  8
0
 10
135.113
 20
595.204
 11
134.887
 21
595.204
  0
LINE
  8
0
 10
-135.113
 20
445.204
 11
-135.337
 21
445.232
  0
LINE
  8
0
 10
-135.337
 20
445.232
 11
-135.556
 21
445.288
  0
LINE
  8
0
 10
-135.556
 20
445.288
 11
-135.766
 21
445.371
  0
LINE
  8
0
 10
-135.766
 20
445.371
 11
-135.964
 21
445.48
  0
LINE
  8
0
 10
-135.964
 20
445.48
 11
-136.147
 21
445.613
  0
LINE
  8
0
 10
-136.147
 20
445.613
 11
-136.312
 21
445.768
  0
LINE
  8
0
 10
-136.312
 20
445.768
 11
-136.456
 21
445.942
  0
LINE
  8
0
 10
-136.456
 20
445.942
 11
-136.577
 21
446.133
  0
LINE
  8
0
 10
-136.577
 20
446.133
 11
-136.674
 21
446.337
  0
LINE
  8
0
 10
-136.674
 20
446.337
 11
-136.743
 21
446.552
  0
LINE
  8
0
 10
-136.743
 20
446.552
 11
-136.786
 21
446.774
  0
LINE
  8
0
 10
-136.786
 20
446.774
 11
-136.8
 21
447
  0
LINE
  8
0
 10
-136.8
 20
447
 11
-136.786
 21
447.226
  0
LINE
  8
0
 10
-136.786
 20
447.226
 11
-136.743
 21
447.448
  0
LINE
  8
0
 10
-136.743
 20
447.448
 11
-136.674
 21
447.663
  0
LINE
  8
0
 10
-136.674
 20
447.663
 11
-136.577
 21
447.867
  0
LINE
  8
0
 10
-136.577
 20
447.867
 11
-136.456
 21
448.058
  0
LINE
  8
0
 10
-136.456
 20
448.058
 11
-136.312
 21
448.232
  0
LINE
  8
0
 10
-136.312
 20
448.232
 11
-136.147
 21
448.387
  0
LINE
  8
0
 10
-136.147
 20
448.387
 11
-135.964
 21
448.52
  0
LINE
  8
0
 10
-135.964
 20
448.52
 11
-135.766
 21
448.629
  0
LINE
  8
0
 10
-135.766
 20
448.629
 11
-135.556
 21
448.712
  0
LINE
  8
0
 10
-135.556
 20
448.712
 11
-135.337
 21
448.768
  0
LINE
  8
0
 10
-135.337
 20
448.768
 11
-135.113
 21
448.796
  0
LINE
  8
0
 10
-135.113
 20
448.796
 11
-134.887
 21
448.796
  0
LINE
  8
0
 10
-134.887
 20
448.796
 11
-134.663
 21
448.768
  0
LINE
  8
0
 10
-134.663
 20
448.768
 11
-134.444
 21
448.712
  0
LINE
  8
0
 10
-134.444
 20
448.712
 11
-134.234
 21
448.629
  0
LINE
  8
0
 10
-134.234
 20
448.629
 11
-134.036
 21
448.52
  0
LINE
  8
0
 10
-134.036
 20
448.52
 11
-133.853
 21
448.387
  0
LINE
  8
0
 10
-133.853
 20
448.387
 11
-133.688
 21
448.232
  0
LINE
  8
0
 10
-133.688
 20
448.232
 11
-133.544
 21
448.058
  0
LINE
  8
0
 10
-133.544
 20
448.058
 11
-133.423
 21
447.867
  0
LINE
  8
0
 10
-133.423
 20
447.867
 11
-133.326
 21
447.663
  0
LINE
  8
0
 10
-133.326
 20
447.663
 11
-133.257
 21
447.448
  0
LINE
  8
0
 10
-133.257
 20
447.448
 11
-133.214
 21
447.226
  0
LINE
  8
0
 10
-133.214
 20
447.226
 11
-133.2
 21
447
  0
LINE
  8
0
 10
-133.2
 20
447
 11
-133.214
 21
446.774
  0
LINE
  8
0
 10
-133.214
 20
446.774
 11
-133.257
 21
446.552
  0
LINE
  8
0
 10
-133.257
 20
446.552
 11
-133.326
 21
446.337
  0
LINE
  8
0
 10
-133.326
 20
446.337
 11
-133.423
 21
446.133
  0
LINE
  8
0
 10
-133.423
 20
446.133
 11
-133.544
 21
445.942
  0
LINE
  8
0
 10
-133.544
 20
445.942
 11
-133.688
 21
445.768
  0
LINE
  8
0
 10
-133.688
 20
445.768
 11
-133.853
 21
445.613
  0
LINE
  8
0
 10
-133.853
 20
445.613
 11
-134.036
 21
445.48
  0
LINE
  8
0
 10
-134.036
 20
445.48
 11
-134.234
 21
445.371
  0
LINE
  8
0
 10
-134.234
 20
445.371
 11
-134.444
 21
445.288
  0
LINE
  8
0
 10
-134.444
 20
445.288
 11
-134.663
 21
445.232
  0
LINE
  8
0
 10
-134.663
 20
445.232
 11
-134.887
 21
445.204
  0
LINE
  8
0
 10
-134.887
 20
445.204
 11
-135.113
 21
445.204
  0
LINE
  8
0
 10
134.887
 20
445.204
 11
134.663
 21
445.232
  0
LINE
  8
0
 10
134.663
 20
445.232
 11
134.444
 21
445.288
  0
LINE
  8
0
 10
134.444
 20
445.288
 11
134.234
 21
445.371
  0
LINE
  8
0
 10
134.234
 20
445.371
 11
134.036
 21
445.48
  0
LINE
  8
0
 10
134.036
 20
445.48
 11
133.853
 21
445.613
  0
LINE
  8
0
 10
133.853
 20
445.613
 11
133.688
 21
445.768
  0
LINE
  8
0
 10
133.688
 20
445.768
 11
133.544
 21
445.942
  0
LINE
  8
0
 10
133.544
 20
445.942
 11
133.423
 21
446.133
  0
LINE
  8
0
 10
133.423
 20
446.133
 11
133.326
 21
446.337
  0
LINE
  8
0
 10
133.326
 20
446.337
 11
133.257
 21
446.552
  0
LINE
  8
0
 10
133.257
 20
446.552
 11
133.214
 21
446.774
  0
LINE
  8
0
 10
133.214
 20
446.774
 11
133.2
 21
447
  0
LINE
  8
0
 10
133.2
 20
447
 11
133.214
 21
447.226
  0
LINE
  8
0
 10
133.214
 20
447.226
 11
133.257
 21
447.448
  0
LINE
  8
0
 10
133.257
 20
447.448
 11
133.326
 21
447.663
  0
LINE
  8
0
 10
133.326
 20
447.663
 11
133.423
 21
447.867
  0
LINE
  8
0
 10
133.423
 20
447.867
 11
133.544
 21
448.058
  0
LINE
  8
0
 10
133.544
 20
448.058
 11
133.688
 21
448.232
  0
LINE
  8
0
 10
133.688
 20
448.232
 11
133.853
 21
448.387
  0
LINE
  8
0
 10
133.853
 20
448.387
 11
134.036
 21
448.52
  0
LINE
  8
0
 10
134.036
 20
448.52
 11
134.234
 21
448.629
  0
LINE
  8
0
 10
134.234
 20
448.629
 11
134.444
 21
448.712
  0
LINE
  8
0
 10
134.444
 20
448.712
 11
134.663
 21
448.768
  0
LINE
  8
0
 10
134.663
 20
448.768
 11
134.887
 21
448.796
  0
LINE
  8
0
 10
134.887
 20
448.796
 11
135.113
 21
448.796
  0
LINE
  8
0
 10
135.113
 20
448.796
 11
135.337
 21
448.768
  0
LINE
  8
0
 10
135.337
 20
448.768
 11
135.556
 21
448.712
  0
LINE
  8
0
 10
135.556
 20
448.712
 11
135.766
 21
448.629
  0
LINE
  8
0
 10
135.766
 20
448.629
 11
135.964
 21
448.52
  0
LINE
  8
0
 10
135.964
 20
448.52
 11
136.147
 21
448.387
  0
LINE
  8
0
 10
136.147
 20
448.387
 11
136.312
 21
448.232
  0
LINE
  8
0
 10
136.312
 20
448.232
 11
136.456
 21
448.058
  0
LINE
  8
0
 10
136.456
 20
448.058
 11
136.577
 21
447.867
  0
LINE
  8
0
 10
136.577
 20
447.867
 11
136.674
 21
447.663
  0
LINE
  8
0
 10
136.674
 20
447.663
 11
136.743
 21
447.448
  0
LINE
  8
0
 10
136.743
 20
447.448
 11
136.786
 21
447.226
  0
LINE
  8
0
 10
136.786
 20
447.226
 11
136.8
 21
447
  0
LINE
  8
0
 10
136.8
 20
447
 11
136.786
 21
446.774
  0
LINE
  8
0
 10
136.786
 20
446.774
 11
136.743
 21
446.552
  0
LINE
  8
0
 10
136.743
 20
446.552
 11
136.674
 21
446.337
  0
LINE
  8
0
 10
136.674
 20
446.337
 11
136.577
 21
446.133
  0
LINE
  8
0
 10
136.577
 20
446.133
 11
136.456
 21
445.942
  0
LINE
  8
0
 10
136.456
 20
445.942
 11
136.312
 21
445.768
  0
LINE
  8
0
 10
136.312
 20
445.768
 11
136.147
 21
445.613
  0
LINE
  8
0
 10
136.147
 20
445.613
 11
135.964
 21
445.48
  0
LINE
  8
0
 10
135.964
 20
445.48
 11
135.766
 21
445.371
  0
LINE
  8
0
 10
135.766
 20
445.371
 11
135.556
 21
445.288
  0
LINE
  8
0
 10
135.556
 20
445.288
 11
135.337
 21
445.232
  0
LINE
  8
0
 10
135.337
 20
445.232
 11
135.113
 21
445.204
  0
LINE
  8
0
 10
135.113
 20
445.204
 11
134.887
 21
445.204
  0
ENDSEC
  0
SECTION
  2
OBJECTS
  0
DICTIONARY
  0
ENDSEC
  0
EOF
