<?xml version="1.0" standalone="no"?>
<!DOCTYPE svg PUBLIC "-//W3C//DTD SVG 1.1//EN" "http://www.w3.org/Graphics/SVG/1.1/DTD/svg11.dtd">
<svg width="74mm" height="74mm" viewBox="-37 -37 74 74" xmlns="http://www.w3.org/2000/svg" version="1.1">
<title>OpenSCAD Model</title>
<path d="
M 32.9369,36.9114 L 33.5451,36.7553 L 34.1289,36.5241 L 34.6791,36.2216 L 35.1871,35.8526 L 35.6448,35.4227
 L 36.0451,34.9389 L 36.3815,34.4088 L 36.6489,33.8406 L 36.8429,33.2434 L 36.9606,32.6267 L 37,32
 L 37,-32 L 36.9606,-32.6267 L 36.8429,-33.2434 L 36.6489,-33.8406 L 36.3815,-34.4088 L 36.0451,-34.9389
 L 35.6448,-35.4227 L 35.1871,-35.8526 L 34.6791,-36.2216 L 34.1289,-36.5241 L 33.5451,-36.7553 L 32.9369,-36.9114
 L 32.3139,-36.9901 L -32.3139,-36.9901 L -32.9369,-36.9114 L -33.5451,-36.7553 L -34.1289,-36.5241 L -34.6791,-36.2216
 L -35.1871,-35.8526 L -35.6448,-35.4227 L -36.0451,-34.9389 L -36.3815,-34.4088 L -36.6489,-33.8406 L -36.8429,-33.2434
 L -36.9606,-32.6267 L -37,-32 L -37,32 L -36.9606,32.6267 L -36.8429,33.2434 L -36.6489,33.8406
 L -36.3815,34.4088 L -36.0451,34.9389 L -35.6448,35.4227 L -35.1871,35.8526 L -34.6791,36.2216 L -34.1289,36.5241
 L -33.5451,36.7553 L -32.9369,36.9114 L -32.3139,36.9901 L 32.3139,36.9901 z
M 28.1527,-24.203 L 27.9595,-24.2274 L 27.771,-24.2759 L 27.59,-24.3475 L 27.4195,-24.4413 L 27.262,-24.5557
 L 27.1201,-24.6889 L 26.996,-24.8389 L 26.8917,-25.0033 L 26.8088,-25.1794 L 26.7487,-25.3645 L 26.7122,-25.5557
 L 26.7,-25.75 L 26.7122,-25.9443 L 26.7487,-26.1355 L 26.8088,-26.3206 L 26.8917,-26.4967 L 26.996,-26.6611
 L 27.1201,-26.811 L 27.262,-26.9443 L 27.4195,-27.0587 L 27.59,-27.1525 L 27.771,-27.2241 L 27.9595,-27.2725
 L 28.1527,-27.2969 L 28.3473,-27.2969 L 28.5404,-27.2725 L 28.729,-27.2241 L 28.91,-27.1525 L 29.0805,-27.0587
 L 29.238,-26.9443 L 29.3799,-26.811 L 29.504,-26.6611 L 29.6083,-26.4967 L 29.6911,-26.3206 L 29.7513,-26.1355
 L 29.7878,-25.9443 L 29.8,-25.75 L 29.7878,-25.5557 L 29.7513,-25.3645 L 29.6911,-25.1794 L 29.6083,-25.0033
 L 29.504,-24.8389 L 29.3799,-24.6889 L 29.238,-24.5557 L 29.0805,-24.4413 L 28.91,-24.3475 L 28.729,-24.2759
 L 28.5404,-24.2274 L 28.3473,-24.203 z
M -28.3473,-24.203 L -28.5404,-24.2274 L -28.729,-24.2759 L -28.91,-24.3475 L -29.0805,-24.4413 L -29.238,-24.5557
 L -29.3799,-24.6889 L -29.504,-24.8389 L -29.6083,-25.0033 L -29.6911,-25.1794 L -29.7513,-25.3645 L -29.7878,-25.5557
 L -29.8,-25.75 L -29.7878,-25.9443 L -29.7513,-26.1355 L -29.6911,-26.3206 L -29.6083,-26.4967 L -29.504,-26.6611
 L -29.3799,-26.811 L -29.238,-26.9443 L -29.0805,-27.0587 L -28.91,-27.1525 L -28.729,-27.2241 L -28.5404,-27.2725
 L -28.3473,-27.2969 L -28.1527,-27.2969 L -27.9595,-27.2725 L -27.771,-27.2241 L -27.59,-27.1525 L -27.4195,-27.0587
 L -27.262,-26.9443 L -27.1201,-26.811 L -26.996,-26.6611 L -26.8917,-26.4967 L -26.8088,-26.3206 L -26.7487,-26.1355
 L -26.7122,-25.9443 L -26.7,-25.75 L -26.7122,-25.5557 L -26.7487,-25.3645 L -26.8088,-25.1794 L -26.8917,-25.0033
 L -26.996,-24.8389 L -27.1201,-24.6889 L -27.262,-24.5557 L -27.4195,-24.4413 L -27.59,-24.3475 L -27.771,-24.2759
 L -27.9595,-24.2274 L -28.1527,-24.203 z
M -28.3473,12.2969 L -28.5404,12.2725 L -28.729,12.2241 L -28.91,12.1525 L -29.0805,12.0587 L -29.238,11.9443
 L -29.3799,11.811 L -29.504,11.6611 L -29.6083,11.4967 L -29.6911,11.3206 L -29.7513,11.1355 L -29.7878,10.9443
 L -29.8,10.75 L -29.7878,10.5557 L -29.7513,10.3645 L -29.6911,10.1794 L -29.6083,10.0033 L -29.504,9.83893
 L -29.3799,9.68895 L -29.238,9.55569 L -29.0805,9.44128 L -28.91,9.34752 L -28.729,9.27585 L -28.5404,9.22745
 L -28.3473,9.20305 L -28.1527,9.20305 L -27.9595,9.22745 L -27.771,9.27585 L -27.59,9.34752 L -27.4195,9.44128
 L -27.262,9.55569 L -27.1201,9.68895 L -26.996,9.83893 L -26.8917,10.0033 L -26.8088,10.1794 L -26.7487,10.3645
 L -26.7122,10.5557 L -26.7,10.75 L -26.7122,10.9443 L -26.7487,11.1355 L -26.8088,11.3206 L -26.8917,11.4967
 L -26.996,11.6611 L -27.1201,11.811 L -27.262,11.9443 L -27.4195,12.0587 L -27.59,12.1525 L -27.771,12.2241
 L -27.9595,12.2725 L -28.1527,12.2969 z
M 28.1527,12.2969 L 27.9595,12.2725 L 27.771,12.2241 L 27.59,12.1525 L 27.4195,12.0587 L 27.262,11.9443
 L 27.1201,11.811 L 26.996,11.6611 L 26.8917,11.4967 L 26.8088,11.3206 L 26.7487,11.1355 L 26.7122,10.9443
 L 26.7,10.75 L 26.7122,10.5557 L 26.7487,10.3645 L 26.8088,10.1794 L 26.8917,10.0033 L 26.996,9.83893
 L 27.1201,9.68895 L 27.262,9.55569 L 27.4195,9.44128 L 27.59,9.34752 L 27.771,9.27585 L 27.9595,9.22745
 L 28.1527,9.20305 L 28.3473,9.20305 L 28.5404,9.22745 L 28.729,9.27585 L 28.91,9.34752 L 29.0805,9.44128
 L 29.238,9.55569 L 29.3799,9.68895 L 29.504,9.83893 L 29.6083,10.0033 L 29.6911,10.1794 L 29.7513,10.3645
 L 29.7878,10.5557 L 29.8,10.75 L 29.7878,10.9443 L 29.7513,11.1355 L 29.6911,11.3206 L 29.6083,11.4967
 L 29.504,11.6611 L 29.3799,11.811 L 29.238,11.9443 L 29.0805,12.0587 L 28.91,12.1525 L 28.729,12.2241
 L 28.5404,12.2725 L 28.3473,12.2969 z
M 29.8116,32.9941 L 29.4379,32.9469 L 29.0729,32.8532 L 28.7227,32.7145 L 28.3925,32.533 L 28.0877,32.3115
 L 27.8131,32.0536 L 27.5729,31.7634 L 27.3711,31.4453 L 27.2107,31.1044 L 27.0942,30.7461 L 27.0237,30.376
 L 27,30 L 27.0237,29.624 L 27.0942,29.2539 L 27.2107,28.8956 L 27.3711,28.5547 L 27.5729,28.2366
 L 27.8131,27.9464 L 28.0877,27.6884 L 28.3925,27.467 L 28.7227,27.2855 L 29.0729,27.1468 L 29.4379,27.0531
 L 29.8116,27.0059 L 30.1884,27.0059 L 30.5621,27.0531 L 30.927,27.1468 L 31.2773,27.2855 L 31.6075,27.467
 L 31.9123,27.6884 L 32.1869,27.9464 L 32.427,28.2366 L 32.6289,28.5547 L 32.7893,28.8956 L 32.9057,29.2539
 L 32.9763,29.624 L 33,30 L 32.9763,30.376 L 32.9057,30.7461 L 32.7893,31.1044 L 32.6289,31.4453
 L 32.427,31.7634 L 32.1869,32.0536 L 31.9123,32.3115 L 31.6075,32.533 L 31.2773,32.7145 L 30.927,32.8532
 L 30.5621,32.9469 L 30.1884,32.9941 z
M 14.8116,32.9941 L 14.4379,32.9469 L 14.0729,32.8532 L 13.7227,32.7145 L 13.3925,32.533 L 13.0877,32.3115
 L 12.8131,32.0536 L 12.5729,31.7634 L 12.3711,31.4453 L 12.2107,31.1044 L 12.0942,30.7461 L 12.0237,30.376
 L 12,30 L 12.0237,29.624 L 12.0942,29.2539 L 12.2107,28.8956 L 12.3711,28.5547 L 12.5729,28.2366
 L 12.8131,27.9464 L 13.0877,27.6884 L 13.3925,27.467 L 13.7227,27.2855 L 14.0729,27.1468 L 14.4379,27.0531
 L 14.8116,27.0059 L 15.1884,27.0059 L 15.5621,27.0531 L 15.927,27.1468 L 16.2773,27.2855 L 16.6075,27.467
 L 16.9123,27.6884 L 17.1869,27.9464 L 17.427,28.2366 L 17.6289,28.5547 L 17.7893,28.8956 L 17.9057,29.2539
 L 17.9763,29.624 L 18,30 L 17.9763,30.376 L 17.9057,30.7461 L 17.7893,31.1044 L 17.6289,31.4453
 L 17.427,31.7634 L 17.1869,32.0536 L 16.9123,32.3115 L 16.6075,32.533 L 16.2773,32.7145 L 15.927,32.8532
 L 15.5621,32.9469 L 15.1884,32.9941 z
M -15.1884,32.9941 L -15.5621,32.9469 L -15.927,32.8532 L -16.2773,32.7145 L -16.6075,32.533 L -16.9123,32.3115
 L -17.1869,32.0536 L -17.427,31.7634 L -17.6289,31.4453 L -17.7893,31.1044 L -17.9057,30.7461 L -17.9763,30.376
 L -18,30 L -17.9763,29.624 L -17.9057,29.2539 L -17.7893,28.8956 L -17.6289,28.5547 L -17.427,28.2366
 L -17.1869,27.9464 L -16.9123,27.6884 L -16.6075,27.467 L -16.2773,27.2855 L -15.927,27.1468 L -15.5621,27.0531
 L -15.1884,27.0059 L -14.8116,27.0059 L -14.4379,27.0531 L -14.0729,27.1468 L -13.7227,27.2855 L -13.3925,27.467
 L -13.0877,27.6884 L -12.8131,27.9464 L -12.5729,28.2366 L -12.3711,28.5547 L -12.2107,28.8956 L -12.0942,29.2539
 L -12.0237,29.624 L -12,30 L -12.0237,30.376 L -12.0942,30.7461 L -12.2107,31.1044 L -12.3711,31.4453
 L -12.5729,31.7634 L -12.8131,32.0536 L -13.0877,32.3115 L -13.3925,32.533 L -13.7227,32.7145 L -14.0729,32.8532
 L -14.4379,32.9469 L -14.8116,32.9941 z
M -0.18837,32.9941 L -0.562134,32.9469 L -0.927048,32.8532 L -1.27733,32.7145 L -1.60747,32.533 L -1.91226,32.3115
 L -2.1869,32.0536 L -2.42705,31.7634 L -2.62891,31.4453 L -2.78932,31.1044 L -2.90575,30.7461 L -2.97633,30.376
 L -3,30 L -2.97633,29.624 L -2.90575,29.2539 L -2.78932,28.8956 L -2.62891,28.5547 L -2.42705,28.2366
 L -2.1869,27.9464 L -1.91226,27.6884 L -1.60747,27.467 L -1.27733,27.2855 L -0.927048,27.1468 L -0.562134,27.0531
 L -0.18837,27.0059 L 0.18837,27.0059 L 0.562134,27.0531 L 0.927048,27.1468 L 1.27733,27.2855 L 1.60747,27.467
 L 1.91226,27.6884 L 2.1869,27.9464 L 2.42705,28.2366 L 2.62891,28.5547 L 2.78932,28.8956 L 2.90575,29.2539
 L 2.97633,29.624 L 3,30 L 2.97633,30.376 L 2.90575,30.7461 L 2.78932,31.1044 L 2.62891,31.4453
 L 2.42705,31.7634 L 2.1869,32.0536 L 1.91226,32.3115 L 1.60747,32.533 L 1.27733,32.7145 L 0.927048,32.8532
 L 0.562134,32.9469 L 0.18837,32.9941 z
M -30.1884,32.9941 L -30.5621,32.9469 L -30.927,32.8532 L -31.2773,32.7145 L -31.6075,32.533 L -31.9123,32.3115
 L -32.1869,32.0536 L -32.427,31.7634 L -32.6289,31.4453 L -32.7893,31.1044 L -32.9057,30.7461 L -32.9763,30.376
 L -33,30 L -32.9763,29.624 L -32.9057,29.2539 L -32.7893,28.8956 L -32.6289,28.5547 L -32.427,28.2366
 L -32.1869,27.9464 L -31.9123,27.6884 L -31.6075,27.467 L -31.2773,27.2855 L -30.927,27.1468 L -30.5621,27.0531
 L -30.1884,27.0059 L -29.8116,27.0059 L -29.4379,27.0531 L -29.0729,27.1468 L -28.7227,27.2855 L -28.3925,27.467
 L -28.0877,27.6884 L -27.8131,27.9464 L -27.5729,28.2366 L -27.3711,28.5547 L -27.2107,28.8956 L -27.0942,29.2539
 L -27.0237,29.624 L -27,30 L -27.0237,30.376 L -27.0942,30.7461 L -27.2107,31.1044 L -27.3711,31.4453
 L -27.5729,31.7634 L -27.8131,32.0536 L -28.0877,32.3115 L -28.3925,32.533 L -28.7227,32.7145 L -29.0729,32.8532
 L -29.4379,32.9469 L -29.8116,32.9941 z
" stroke="black" fill="lightgray" stroke-width="0.5"/>
</svg>
