<?xml version="1.0" standalone="no"?>
<!DOCTYPE svg PUBLIC "-//W3C//DTD SVG 1.1//EN" "http://www.w3.org/Graphics/SVG/1.1/DTD/svg11.dtd">
<svg width="286mm" height="55mm" viewBox="-143 -75 286 55" xmlns="http://www.w3.org/2000/svg" version="1.1">
<title>OpenSCAD Model</title>
<path d="
M 138.437,-51.8386 L 139.045,-51.9947 L 139.629,-52.2259 L 140.179,-52.5284 L 140.687,-52.8974 L 141.145,-53.3273
 L 141.545,-53.8111 L 141.882,-54.3412 L 142.149,-54.9094 L 142.343,-55.5066 L 142.461,-56.1233 L 142.5,-56.75
 L 142.5,-69.25 L 142.461,-69.8767 L 142.343,-70.4934 L 142.149,-71.0906 L 141.882,-71.6588 L 141.545,-72.1889
 L 141.145,-72.6727 L 140.687,-73.1026 L 140.179,-73.4716 L 139.629,-73.7741 L 139.045,-74.0053 L 138.437,-74.1614
 L 137.814,-74.2401 L -137.814,-74.2401 L -138.437,-74.1614 L -139.045,-74.0053 L -139.629,-73.7741 L -140.179,-73.4716
 L -140.687,-73.1026 L -141.145,-72.6727 L -141.545,-72.1889 L -141.882,-71.6588 L -142.149,-71.0906 L -142.343,-70.4934
 L -142.461,-69.8767 L -142.5,-69.25 L -142.5,-56.75 L -142.461,-56.1233 L -142.343,-55.5066 L -142.149,-54.9094
 L -141.882,-54.3412 L -141.545,-53.8111 L -141.145,-53.3273 L -140.687,-52.8974 L -140.179,-52.5284 L -139.629,-52.2259
 L -139.045,-51.9947 L -138.437,-51.8386 L -137.814,-51.7599 L 137.814,-51.7599 z
M -137.493,-53.1382 L -137.975,-53.1991 L -138.446,-53.3199 L -138.898,-53.4988 L -139.323,-53.7329 L -139.716,-54.0185
 L -140.071,-54.3512 L -140.38,-54.7256 L -140.641,-55.1359 L -140.848,-55.5756 L -140.998,-56.0377 L -141.089,-56.515
 L -141.119,-57 L -141.119,-69 L -141.089,-69.485 L -140.998,-69.9623 L -140.848,-70.4244 L -140.641,-70.8641
 L -140.38,-71.2744 L -140.071,-71.6488 L -139.716,-71.9815 L -139.323,-72.2671 L -138.898,-72.5012 L -138.446,-72.6801
 L -137.975,-72.8009 L -137.493,-72.8618 L 137.493,-72.8618 L 137.975,-72.8009 L 138.446,-72.6801 L 138.898,-72.5012
 L 139.323,-72.2671 L 139.716,-71.9815 L 140.071,-71.6488 L 140.38,-71.2744 L 140.641,-70.8641 L 140.848,-70.4244
 L 140.998,-69.9623 L 141.089,-69.485 L 141.119,-69 L 141.119,-57 L 141.089,-56.515 L 140.998,-56.0377
 L 140.848,-55.5756 L 140.641,-55.1359 L 140.38,-54.7256 L 140.071,-54.3512 L 139.716,-54.0185 L 139.323,-53.7329
 L 138.898,-53.4988 L 138.446,-53.3199 L 137.975,-53.1991 L 137.493,-53.1382 z
M 138.437,-20.3386 L 139.045,-20.4947 L 139.629,-20.7259 L 140.179,-21.0284 L 140.687,-21.3974 L 141.145,-21.8273
 L 141.545,-22.3111 L 141.882,-22.8412 L 142.149,-23.4094 L 142.343,-24.0066 L 142.461,-24.6233 L 142.5,-25.25
 L 142.5,-37.75 L 142.461,-38.3767 L 142.343,-38.9934 L 142.149,-39.5906 L 141.882,-40.1588 L 141.545,-40.6889
 L 141.145,-41.1727 L 140.687,-41.6026 L 140.179,-41.9716 L 139.629,-42.2741 L 139.045,-42.5053 L 138.437,-42.6614
 L 137.814,-42.7401 L -137.814,-42.7401 L -138.437,-42.6614 L -139.045,-42.5053 L -139.629,-42.2741 L -140.179,-41.9716
 L -140.687,-41.6026 L -141.145,-41.1727 L -141.545,-40.6889 L -141.882,-40.1588 L -142.149,-39.5906 L -142.343,-38.9934
 L -142.461,-38.3767 L -142.5,-37.75 L -142.5,-25.25 L -142.461,-24.6233 L -142.343,-24.0066 L -142.149,-23.4094
 L -141.882,-22.8412 L -141.545,-22.3111 L -141.145,-21.8273 L -140.687,-21.3974 L -140.179,-21.0284 L -139.629,-20.7259
 L -139.045,-20.4947 L -138.437,-20.3386 L -137.814,-20.2599 L 137.814,-20.2599 z
M -135.113,-33.4536 L -135.337,-33.4819 L -135.556,-33.5381 L -135.766,-33.6213 L -135.964,-33.7302 L -136.147,-33.8631
 L -136.312,-34.0178 L -136.456,-34.192 L -136.577,-34.3828 L -136.674,-34.5874 L -136.743,-34.8024 L -136.786,-35.0244
 L -136.8,-35.25 L -136.786,-35.4756 L -136.743,-35.6976 L -136.674,-35.9126 L -136.577,-36.1171 L -136.456,-36.308
 L -136.312,-36.4822 L -136.147,-36.6369 L -135.964,-36.7698 L -135.766,-36.8787 L -135.556,-36.9619 L -135.337,-37.0181
 L -135.113,-37.0464 L -134.887,-37.0464 L -134.663,-37.0181 L -134.444,-36.9619 L -134.234,-36.8787 L -134.036,-36.7698
 L -133.853,-36.6369 L -133.688,-36.4822 L -133.544,-36.308 L -133.423,-36.1171 L -133.326,-35.9126 L -133.257,-35.6976
 L -133.214,-35.4756 L -133.2,-35.25 L -133.214,-35.0244 L -133.257,-34.8024 L -133.326,-34.5874 L -133.423,-34.3828
 L -133.544,-34.192 L -133.688,-34.0178 L -133.853,-33.8631 L -134.036,-33.7302 L -134.234,-33.6213 L -134.444,-33.5381
 L -134.663,-33.4819 L -134.887,-33.4536 z
M 134.887,-33.4536 L 134.663,-33.4819 L 134.444,-33.5381 L 134.234,-33.6213 L 134.036,-33.7302 L 133.853,-33.8631
 L 133.688,-34.0178 L 133.544,-34.192 L 133.423,-34.3828 L 133.326,-34.5874 L 133.257,-34.8024 L 133.214,-35.0244
 L 133.2,-35.25 L 133.214,-35.4756 L 133.257,-35.6976 L 133.326,-35.9126 L 133.423,-36.1171 L 133.544,-36.308
 L 133.688,-36.4822 L 133.853,-36.6369 L 134.036,-36.7698 L 134.234,-36.8787 L 134.444,-36.9619 L 134.663,-37.0181
 L 134.887,-37.0464 L 135.113,-37.0464 L 135.337,-37.0181 L 135.556,-36.9619 L 135.766,-36.8787 L 135.964,-36.7698
 L 136.147,-36.6369 L 136.312,-36.4822 L 136.456,-36.308 L 136.577,-36.1171 L 136.674,-35.9126 L 136.743,-35.6976
 L 136.786,-35.4756 L 136.8,-35.25 L 136.786,-35.0244 L 136.743,-34.8024 L 136.674,-34.5874 L 136.577,-34.3828
 L 136.456,-34.192 L 136.312,-34.0178 L 136.147,-33.8631 L 135.964,-33.7302 L 135.766,-33.6213 L 135.556,-33.5381
 L 135.337,-33.4819 L 135.113,-33.4536 z
M 134.887,-25.9536 L 134.663,-25.9819 L 134.444,-26.0381 L 134.234,-26.1213 L 134.036,-26.2302 L 133.853,-26.3631
 L 133.688,-26.5178 L 133.544,-26.692 L 133.423,-26.8829 L 133.326,-27.0874 L 133.257,-27.3024 L 133.214,-27.5244
 L 133.2,-27.75 L 133.214,-27.9756 L 133.257,-28.1976 L 133.326,-28.4126 L 133.423,-28.6172 L 133.544,-28.808
 L 133.688,-28.9822 L 133.853,-29.1369 L 134.036,-29.2698 L 134.234,-29.3787 L 134.444,-29.4619 L 134.663,-29.5181
 L 134.887,-29.5464 L 135.113,-29.5464 L 135.337,-29.5181 L 135.556,-29.4619 L 135.766,-29.3787 L 135.964,-29.2698
 L 136.147,-29.1369 L 136.312,-28.9822 L 136.456,-28.808 L 136.577,-28.6172 L 136.674,-28.4126 L 136.743,-28.1976
 L 136.786,-27.9756 L 136.8,-27.75 L 136.786,-27.5244 L 136.743,-27.3024 L 136.674,-27.0874 L 136.577,-26.8829
 L 136.456,-26.692 L 136.312,-26.5178 L 136.147,-26.3631 L 135.964,-26.2302 L 135.766,-26.1213 L 135.556,-26.0381
 L 135.337,-25.9819 L 135.113,-25.9536 z
M -135.113,-25.9536 L -135.337,-25.9819 L -135.556,-26.0381 L -135.766,-26.1213 L -135.964,-26.2302 L -136.147,-26.3631
 L -136.312,-26.5178 L -136.456,-26.692 L -136.577,-26.8829 L -136.674,-27.0874 L -136.743,-27.3024 L -136.786,-27.5244
 L -136.8,-27.75 L -136.786,-27.9756 L -136.743,-28.1976 L -136.674,-28.4126 L -136.577,-28.6172 L -136.456,-28.808
 L -136.312,-28.9822 L -136.147,-29.1369 L -135.964,-29.2698 L -135.766,-29.3787 L -135.556,-29.4619 L -135.337,-29.5181
 L -135.113,-29.5464 L -134.887,-29.5464 L -134.663,-29.5181 L -134.444,-29.4619 L -134.234,-29.3787 L -134.036,-29.2698
 L -133.853,-29.1369 L -133.688,-28.9822 L -133.544,-28.808 L -133.423,-28.6172 L -133.326,-28.4126 L -133.257,-28.1976
 L -133.214,-27.9756 L -133.2,-27.75 L -133.214,-27.5244 L -133.257,-27.3024 L -133.326,-27.0874 L -133.423,-26.8829
 L -133.544,-26.692 L -133.688,-26.5178 L -133.853,-26.3631 L -134.036,-26.2302 L -134.234,-26.1213 L -134.444,-26.0381
 L -134.663,-25.9819 L -134.887,-25.9536 z
" stroke="black" fill="lightgray" stroke-width="0.5"/>
</svg>
