  0
SECTION
  2
BLOCKS
  0
ENDSEC
  0
SECTION
  2
ENTITIES
  0
LINE
  8
0
 10
-133.5
 20
2122.44
 11
-133.187
 21
2122.15
  0
LINE
  8
0
 10
-133.187
 20
2122.15
 11
-132.679
 21
2121.78
  0
LINE
  8
0
 10
-132.679
 20
2121.78
 11
-132.129
 21
2121.48
  0
LINE
  8
0
 10
-132.129
 20
2121.48
 11
-131.545
 21
2121.24
  0
LINE
  8
0
 10
-131.545
 20
2121.24
 11
-130.937
 21
2121.09
  0
LINE
  8
0
 10
-130.937
 20
2121.09
 11
-130.314
 21
2121.01
  0
LINE
  8
0
 10
-130.314
 20
2121.01
 11
130.314
 21
2121.01
  0
LINE
  8
0
 10
130.314
 20
2121.01
 11
130.937
 21
2121.09
  0
LINE
  8
0
 10
130.937
 20
2121.09
 11
131.545
 21
2121.24
  0
LINE
  8
0
 10
131.545
 20
2121.24
 11
132.129
 21
2121.48
  0
LINE
  8
0
 10
132.129
 20
2121.48
 11
132.679
 21
2121.78
  0
LINE
  8
0
 10
132.679
 20
2121.78
 11
133.187
 21
2122.15
  0
LINE
  8
0
 10
133.187
 20
2122.15
 11
133.645
 21
2122.58
  0
LINE
  8
0
 10
133.645
 20
2122.58
 11
134.045
 21
2123.06
  0
LINE
  8
0
 10
134.045
 20
2123.06
 11
134.382
 21
2123.59
  0
LINE
  8
0
 10
134.382
 20
2123.59
 11
134.649
 21
2124.16
  0
LINE
  8
0
 10
134.649
 20
2124.16
 11
134.843
 21
2124.76
  0
LINE
  8
0
 10
134.843
 20
2124.76
 11
134.961
 21
2125.37
  0
LINE
  8
0
 10
134.961
 20
2125.37
 11
135
 21
2126
  0
LINE
  8
0
 10
135
 20
2126
 11
135
 21
2356
  0
LINE
  8
0
 10
135
 20
2356
 11
134.961
 21
2356.63
  0
LINE
  8
0
 10
134.961
 20
2356.63
 11
134.843
 21
2357.24
  0
LINE
  8
0
 10
134.843
 20
2357.24
 11
134.649
 21
2357.84
  0
LINE
  8
0
 10
134.649
 20
2357.84
 11
134.382
 21
2358.41
  0
LINE
  8
0
 10
134.382
 20
2358.41
 11
134.045
 21
2358.94
  0
LINE
  8
0
 10
134.045
 20
2358.94
 11
133.645
 21
2359.42
  0
LINE
  8
0
 10
133.645
 20
2359.42
 11
133.187
 21
2359.85
  0
LINE
  8
0
 10
133.187
 20
2359.85
 11
132.679
 21
2360.22
  0
LINE
  8
0
 10
132.679
 20
2360.22
 11
132.129
 21
2360.52
  0
LINE
  8
0
 10
132.129
 20
2360.52
 11
131.545
 21
2360.76
  0
LINE
  8
0
 10
131.545
 20
2360.76
 11
130.937
 21
2360.91
  0
LINE
  8
0
 10
130.937
 20
2360.91
 11
130.314
 21
2360.99
  0
LINE
  8
0
 10
130.314
 20
2360.99
 11
-130.314
 21
2360.99
  0
LINE
  8
0
 10
-130.314
 20
2360.99
 11
-130.937
 21
2360.91
  0
LINE
  8
0
 10
-130.937
 20
2360.91
 11
-131.545
 21
2360.76
  0
LINE
  8
0
 10
-131.545
 20
2360.76
 11
-132.129
 21
2360.52
  0
LINE
  8
0
 10
-132.129
 20
2360.52
 11
-132.679
 21
2360.22
  0
LINE
  8
0
 10
-132.679
 20
2360.22
 11
-133.187
 21
2359.85
  0
LINE
  8
0
 10
-133.187
 20
2359.85
 11
-133.5
 21
2359.56
  0
LINE
  8
0
 10
-133.5
 20
2359.56
 11
-133.5
 21
2360.99
  0
LINE
  8
0
 10
-133.5
 20
2360.99
 11
-136.5
 21
2360.99
  0
LINE
  8
0
 10
-136.5
 20
2360.99
 11
-136.5
 21
2121.01
  0
LINE
  8
0
 10
-136.5
 20
2121.01
 11
-133.5
 21
2121.01
  0
LINE
  8
0
 10
-133.5
 20
2121.01
 11
-133.5
 21
2122.44
  0
LINE
  8
0
 10
-129.751
 20
2122.51
 11
-130.25
 21
2122.57
  0
LINE
  8
0
 10
-130.25
 20
2122.57
 11
-130.736
 21
2122.7
  0
LINE
  8
0
 10
-130.736
 20
2122.7
 11
-131.203
 21
2122.88
  0
LINE
  8
0
 10
-131.203
 20
2122.88
 11
-131.643
 21
2123.12
  0
LINE
  8
0
 10
-131.643
 20
2123.12
 11
-132.05
 21
2123.42
  0
LINE
  8
0
 10
-132.05
 20
2123.42
 11
-132.416
 21
2123.76
  0
LINE
  8
0
 10
-132.416
 20
2123.76
 11
-132.736
 21
2124.15
  0
LINE
  8
0
 10
-132.736
 20
2124.15
 11
-133.005
 21
2124.57
  0
LINE
  8
0
 10
-133.005
 20
2124.57
 11
-133.219
 21
2125.03
  0
LINE
  8
0
 10
-133.219
 20
2125.03
 11
-133.374
 21
2125.51
  0
LINE
  8
0
 10
-133.374
 20
2125.51
 11
-133.468
 21
2126
  0
LINE
  8
0
 10
-133.468
 20
2126
 11
-133.5
 21
2126.5
  0
LINE
  8
0
 10
-133.5
 20
2126.5
 11
-133.5
 21
2355.5
  0
LINE
  8
0
 10
-133.5
 20
2355.5
 11
-133.468
 21
2356
  0
LINE
  8
0
 10
-133.468
 20
2356
 11
-133.374
 21
2356.49
  0
LINE
  8
0
 10
-133.374
 20
2356.49
 11
-133.219
 21
2356.97
  0
LINE
  8
0
 10
-133.219
 20
2356.97
 11
-133.005
 21
2357.43
  0
LINE
  8
0
 10
-133.005
 20
2357.43
 11
-132.736
 21
2357.85
  0
LINE
  8
0
 10
-132.736
 20
2357.85
 11
-132.416
 21
2358.24
  0
LINE
  8
0
 10
-132.416
 20
2358.24
 11
-132.05
 21
2358.58
  0
LINE
  8
0
 10
-132.05
 20
2358.58
 11
-131.643
 21
2358.88
  0
LINE
  8
0
 10
-131.643
 20
2358.88
 11
-131.203
 21
2359.12
  0
LINE
  8
0
 10
-131.203
 20
2359.12
 11
-130.736
 21
2359.3
  0
LINE
  8
0
 10
-130.736
 20
2359.3
 11
-130.25
 21
2359.43
  0
LINE
  8
0
 10
-130.25
 20
2359.43
 11
-129.751
 21
2359.49
  0
LINE
  8
0
 10
-129.751
 20
2359.49
 11
129.751
 21
2359.49
  0
LINE
  8
0
 10
129.751
 20
2359.49
 11
130.25
 21
2359.43
  0
LINE
  8
0
 10
130.25
 20
2359.43
 11
130.736
 21
2359.3
  0
LINE
  8
0
 10
130.736
 20
2359.3
 11
131.203
 21
2359.12
  0
LINE
  8
0
 10
131.203
 20
2359.12
 11
131.643
 21
2358.88
  0
LINE
  8
0
 10
131.643
 20
2358.88
 11
132.05
 21
2358.58
  0
LINE
  8
0
 10
132.05
 20
2358.58
 11
132.416
 21
2358.24
  0
LINE
  8
0
 10
132.416
 20
2358.24
 11
132.736
 21
2357.85
  0
LINE
  8
0
 10
132.736
 20
2357.85
 11
133.005
 21
2357.43
  0
LINE
  8
0
 10
133.005
 20
2357.43
 11
133.219
 21
2356.97
  0
LINE
  8
0
 10
133.219
 20
2356.97
 11
133.374
 21
2356.49
  0
LINE
  8
0
 10
133.374
 20
2356.49
 11
133.468
 21
2356
  0
LINE
  8
0
 10
133.468
 20
2356
 11
133.5
 21
2355.5
  0
LINE
  8
0
 10
133.5
 20
2355.5
 11
133.5
 21
2126.5
  0
LINE
  8
0
 10
133.5
 20
2126.5
 11
133.468
 21
2126
  0
LINE
  8
0
 10
133.468
 20
2126
 11
133.374
 21
2125.51
  0
LINE
  8
0
 10
133.374
 20
2125.51
 11
133.219
 21
2125.03
  0
LINE
  8
0
 10
133.219
 20
2125.03
 11
133.005
 21
2124.57
  0
LINE
  8
0
 10
133.005
 20
2124.57
 11
132.736
 21
2124.15
  0
LINE
  8
0
 10
132.736
 20
2124.15
 11
132.416
 21
2123.76
  0
LINE
  8
0
 10
132.416
 20
2123.76
 11
132.05
 21
2123.42
  0
LINE
  8
0
 10
132.05
 20
2123.42
 11
131.643
 21
2123.12
  0
LINE
  8
0
 10
131.643
 20
2123.12
 11
131.203
 21
2122.88
  0
LINE
  8
0
 10
131.203
 20
2122.88
 11
130.736
 21
2122.7
  0
LINE
  8
0
 10
130.736
 20
2122.7
 11
130.25
 21
2122.57
  0
LINE
  8
0
 10
130.25
 20
2122.57
 11
129.751
 21
2122.51
  0
LINE
  8
0
 10
129.751
 20
2122.51
 11
-129.751
 21
2122.51
  0
LINE
  8
0
 10
-133.5
 20
1873.44
 11
-133.187
 21
1873.15
  0
LINE
  8
0
 10
-133.187
 20
1873.15
 11
-132.679
 21
1872.78
  0
LINE
  8
0
 10
-132.679
 20
1872.78
 11
-132.129
 21
1872.48
  0
LINE
  8
0
 10
-132.129
 20
1872.48
 11
-131.545
 21
1872.24
  0
LINE
  8
0
 10
-131.545
 20
1872.24
 11
-130.937
 21
1872.09
  0
LINE
  8
0
 10
-130.937
 20
1872.09
 11
-130.314
 21
1872.01
  0
LINE
  8
0
 10
-130.314
 20
1872.01
 11
130.314
 21
1872.01
  0
LINE
  8
0
 10
130.314
 20
1872.01
 11
130.937
 21
1872.09
  0
LINE
  8
0
 10
130.937
 20
1872.09
 11
131.545
 21
1872.24
  0
LINE
  8
0
 10
131.545
 20
1872.24
 11
132.129
 21
1872.48
  0
LINE
  8
0
 10
132.129
 20
1872.48
 11
132.679
 21
1872.78
  0
LINE
  8
0
 10
132.679
 20
1872.78
 11
133.187
 21
1873.15
  0
LINE
  8
0
 10
133.187
 20
1873.15
 11
133.645
 21
1873.58
  0
LINE
  8
0
 10
133.645
 20
1873.58
 11
134.045
 21
1874.06
  0
LINE
  8
0
 10
134.045
 20
1874.06
 11
134.382
 21
1874.59
  0
LINE
  8
0
 10
134.382
 20
1874.59
 11
134.649
 21
1875.16
  0
LINE
  8
0
 10
134.649
 20
1875.16
 11
134.843
 21
1875.76
  0
LINE
  8
0
 10
134.843
 20
1875.76
 11
134.961
 21
1876.37
  0
LINE
  8
0
 10
134.961
 20
1876.37
 11
135
 21
1877
  0
LINE
  8
0
 10
135
 20
1877
 11
135
 21
2107
  0
LINE
  8
0
 10
135
 20
2107
 11
134.961
 21
2107.63
  0
LINE
  8
0
 10
134.961
 20
2107.63
 11
134.843
 21
2108.24
  0
LINE
  8
0
 10
134.843
 20
2108.24
 11
134.649
 21
2108.84
  0
LINE
  8
0
 10
134.649
 20
2108.84
 11
134.382
 21
2109.41
  0
LINE
  8
0
 10
134.382
 20
2109.41
 11
134.045
 21
2109.94
  0
LINE
  8
0
 10
134.045
 20
2109.94
 11
133.645
 21
2110.42
  0
LINE
  8
0
 10
133.645
 20
2110.42
 11
133.187
 21
2110.85
  0
LINE
  8
0
 10
133.187
 20
2110.85
 11
132.679
 21
2111.22
  0
LINE
  8
0
 10
132.679
 20
2111.22
 11
132.129
 21
2111.52
  0
LINE
  8
0
 10
132.129
 20
2111.52
 11
131.545
 21
2111.76
  0
LINE
  8
0
 10
131.545
 20
2111.76
 11
130.937
 21
2111.91
  0
LINE
  8
0
 10
130.937
 20
2111.91
 11
130.314
 21
2111.99
  0
LINE
  8
0
 10
130.314
 20
2111.99
 11
-130.314
 21
2111.99
  0
LINE
  8
0
 10
-130.314
 20
2111.99
 11
-130.937
 21
2111.91
  0
LINE
  8
0
 10
-130.937
 20
2111.91
 11
-131.545
 21
2111.76
  0
LINE
  8
0
 10
-131.545
 20
2111.76
 11
-132.129
 21
2111.52
  0
LINE
  8
0
 10
-132.129
 20
2111.52
 11
-132.679
 21
2111.22
  0
LINE
  8
0
 10
-132.679
 20
2111.22
 11
-133.187
 21
2110.85
  0
LINE
  8
0
 10
-133.187
 20
2110.85
 11
-133.5
 21
2110.56
  0
LINE
  8
0
 10
-133.5
 20
2110.56
 11
-133.5
 21
2111.99
  0
LINE
  8
0
 10
-133.5
 20
2111.99
 11
-136.5
 21
2111.99
  0
LINE
  8
0
 10
-136.5
 20
2111.99
 11
-136.5
 21
1872.01
  0
LINE
  8
0
 10
-136.5
 20
1872.01
 11
-133.5
 21
1872.01
  0
LINE
  8
0
 10
-133.5
 20
1872.01
 11
-133.5
 21
1873.44
  0
LINE
  8
0
 10
-129.751
 20
1873.51
 11
-130.25
 21
1873.57
  0
LINE
  8
0
 10
-130.25
 20
1873.57
 11
-130.736
 21
1873.7
  0
LINE
  8
0
 10
-130.736
 20
1873.7
 11
-131.203
 21
1873.88
  0
LINE
  8
0
 10
-131.203
 20
1873.88
 11
-131.643
 21
1874.12
  0
LINE
  8
0
 10
-131.643
 20
1874.12
 11
-132.05
 21
1874.42
  0
LINE
  8
0
 10
-132.05
 20
1874.42
 11
-132.416
 21
1874.76
  0
LINE
  8
0
 10
-132.416
 20
1874.76
 11
-132.736
 21
1875.15
  0
LINE
  8
0
 10
-132.736
 20
1875.15
 11
-133.005
 21
1875.57
  0
LINE
  8
0
 10
-133.005
 20
1875.57
 11
-133.219
 21
1876.03
  0
LINE
  8
0
 10
-133.219
 20
1876.03
 11
-133.374
 21
1876.51
  0
LINE
  8
0
 10
-133.374
 20
1876.51
 11
-133.468
 21
1877
  0
LINE
  8
0
 10
-133.468
 20
1877
 11
-133.5
 21
1877.5
  0
LINE
  8
0
 10
-133.5
 20
1877.5
 11
-133.5
 21
2106.5
  0
LINE
  8
0
 10
-133.5
 20
2106.5
 11
-133.468
 21
2107
  0
LINE
  8
0
 10
-133.468
 20
2107
 11
-133.374
 21
2107.49
  0
LINE
  8
0
 10
-133.374
 20
2107.49
 11
-133.219
 21
2107.97
  0
LINE
  8
0
 10
-133.219
 20
2107.97
 11
-133.005
 21
2108.43
  0
LINE
  8
0
 10
-133.005
 20
2108.43
 11
-132.736
 21
2108.85
  0
LINE
  8
0
 10
-132.736
 20
2108.85
 11
-132.416
 21
2109.24
  0
LINE
  8
0
 10
-132.416
 20
2109.24
 11
-132.05
 21
2109.58
  0
LINE
  8
0
 10
-132.05
 20
2109.58
 11
-131.643
 21
2109.88
  0
LINE
  8
0
 10
-131.643
 20
2109.88
 11
-131.203
 21
2110.12
  0
LINE
  8
0
 10
-131.203
 20
2110.12
 11
-130.736
 21
2110.3
  0
LINE
  8
0
 10
-130.736
 20
2110.3
 11
-130.25
 21
2110.43
  0
LINE
  8
0
 10
-130.25
 20
2110.43
 11
-129.751
 21
2110.49
  0
LINE
  8
0
 10
-129.751
 20
2110.49
 11
129.751
 21
2110.49
  0
LINE
  8
0
 10
129.751
 20
2110.49
 11
130.25
 21
2110.43
  0
LINE
  8
0
 10
130.25
 20
2110.43
 11
130.736
 21
2110.3
  0
LINE
  8
0
 10
130.736
 20
2110.3
 11
131.203
 21
2110.12
  0
LINE
  8
0
 10
131.203
 20
2110.12
 11
131.643
 21
2109.88
  0
LINE
  8
0
 10
131.643
 20
2109.88
 11
132.05
 21
2109.58
  0
LINE
  8
0
 10
132.05
 20
2109.58
 11
132.416
 21
2109.24
  0
LINE
  8
0
 10
132.416
 20
2109.24
 11
132.736
 21
2108.85
  0
LINE
  8
0
 10
132.736
 20
2108.85
 11
133.005
 21
2108.43
  0
LINE
  8
0
 10
133.005
 20
2108.43
 11
133.219
 21
2107.97
  0
LINE
  8
0
 10
133.219
 20
2107.97
 11
133.374
 21
2107.49
  0
LINE
  8
0
 10
133.374
 20
2107.49
 11
133.468
 21
2107
  0
LINE
  8
0
 10
133.468
 20
2107
 11
133.5
 21
2106.5
  0
LINE
  8
0
 10
133.5
 20
2106.5
 11
133.5
 21
1877.5
  0
LINE
  8
0
 10
133.5
 20
1877.5
 11
133.468
 21
1877
  0
LINE
  8
0
 10
133.468
 20
1877
 11
133.374
 21
1876.51
  0
LINE
  8
0
 10
133.374
 20
1876.51
 11
133.219
 21
1876.03
  0
LINE
  8
0
 10
133.219
 20
1876.03
 11
133.005
 21
1875.57
  0
LINE
  8
0
 10
133.005
 20
1875.57
 11
132.736
 21
1875.15
  0
LINE
  8
0
 10
132.736
 20
1875.15
 11
132.416
 21
1874.76
  0
LINE
  8
0
 10
132.416
 20
1874.76
 11
132.05
 21
1874.42
  0
LINE
  8
0
 10
132.05
 20
1874.42
 11
131.643
 21
1874.12
  0
LINE
  8
0
 10
131.643
 20
1874.12
 11
131.203
 21
1873.88
  0
LINE
  8
0
 10
131.203
 20
1873.88
 11
130.736
 21
1873.7
  0
LINE
  8
0
 10
130.736
 20
1873.7
 11
130.25
 21
1873.57
  0
LINE
  8
0
 10
130.25
 20
1873.57
 11
129.751
 21
1873.51
  0
LINE
  8
0
 10
129.751
 20
1873.51
 11
-129.751
 21
1873.51
  0
LINE
  8
0
 10
-133.5
 20
1624.44
 11
-133.187
 21
1624.15
  0
LINE
  8
0
 10
-133.187
 20
1624.15
 11
-132.679
 21
1623.78
  0
LINE
  8
0
 10
-132.679
 20
1623.78
 11
-132.129
 21
1623.48
  0
LINE
  8
0
 10
-132.129
 20
1623.48
 11
-131.545
 21
1623.24
  0
LINE
  8
0
 10
-131.545
 20
1623.24
 11
-130.937
 21
1623.09
  0
LINE
  8
0
 10
-130.937
 20
1623.09
 11
-130.314
 21
1623.01
  0
LINE
  8
0
 10
-130.314
 20
1623.01
 11
130.314
 21
1623.01
  0
LINE
  8
0
 10
130.314
 20
1623.01
 11
130.937
 21
1623.09
  0
LINE
  8
0
 10
130.937
 20
1623.09
 11
131.545
 21
1623.24
  0
LINE
  8
0
 10
131.545
 20
1623.24
 11
132.129
 21
1623.48
  0
LINE
  8
0
 10
132.129
 20
1623.48
 11
132.679
 21
1623.78
  0
LINE
  8
0
 10
132.679
 20
1623.78
 11
133.187
 21
1624.15
  0
LINE
  8
0
 10
133.187
 20
1624.15
 11
133.645
 21
1624.58
  0
LINE
  8
0
 10
133.645
 20
1624.58
 11
134.045
 21
1625.06
  0
LINE
  8
0
 10
134.045
 20
1625.06
 11
134.382
 21
1625.59
  0
LINE
  8
0
 10
134.382
 20
1625.59
 11
134.649
 21
1626.16
  0
LINE
  8
0
 10
134.649
 20
1626.16
 11
134.843
 21
1626.76
  0
LINE
  8
0
 10
134.843
 20
1626.76
 11
134.961
 21
1627.37
  0
LINE
  8
0
 10
134.961
 20
1627.37
 11
135
 21
1628
  0
LINE
  8
0
 10
135
 20
1628
 11
135
 21
1858
  0
LINE
  8
0
 10
135
 20
1858
 11
134.961
 21
1858.63
  0
LINE
  8
0
 10
134.961
 20
1858.63
 11
134.843
 21
1859.24
  0
LINE
  8
0
 10
134.843
 20
1859.24
 11
134.649
 21
1859.84
  0
LINE
  8
0
 10
134.649
 20
1859.84
 11
134.382
 21
1860.41
  0
LINE
  8
0
 10
134.382
 20
1860.41
 11
134.045
 21
1860.94
  0
LINE
  8
0
 10
134.045
 20
1860.94
 11
133.645
 21
1861.42
  0
LINE
  8
0
 10
133.645
 20
1861.42
 11
133.187
 21
1861.85
  0
LINE
  8
0
 10
133.187
 20
1861.85
 11
132.679
 21
1862.22
  0
LINE
  8
0
 10
132.679
 20
1862.22
 11
132.129
 21
1862.52
  0
LINE
  8
0
 10
132.129
 20
1862.52
 11
131.545
 21
1862.76
  0
LINE
  8
0
 10
131.545
 20
1862.76
 11
130.937
 21
1862.91
  0
LINE
  8
0
 10
130.937
 20
1862.91
 11
130.314
 21
1862.99
  0
LINE
  8
0
 10
130.314
 20
1862.99
 11
-130.314
 21
1862.99
  0
LINE
  8
0
 10
-130.314
 20
1862.99
 11
-130.937
 21
1862.91
  0
LINE
  8
0
 10
-130.937
 20
1862.91
 11
-131.545
 21
1862.76
  0
LINE
  8
0
 10
-131.545
 20
1862.76
 11
-132.129
 21
1862.52
  0
LINE
  8
0
 10
-132.129
 20
1862.52
 11
-132.679
 21
1862.22
  0
LINE
  8
0
 10
-132.679
 20
1862.22
 11
-133.187
 21
1861.85
  0
LINE
  8
0
 10
-133.187
 20
1861.85
 11
-133.5
 21
1861.56
  0
LINE
  8
0
 10
-133.5
 20
1861.56
 11
-133.5
 21
1862.99
  0
LINE
  8
0
 10
-133.5
 20
1862.99
 11
-136.5
 21
1862.99
  0
LINE
  8
0
 10
-136.5
 20
1862.99
 11
-136.5
 21
1623.01
  0
LINE
  8
0
 10
-136.5
 20
1623.01
 11
-133.5
 21
1623.01
  0
LINE
  8
0
 10
-133.5
 20
1623.01
 11
-133.5
 21
1624.44
  0
LINE
  8
0
 10
-129.751
 20
1624.51
 11
-130.25
 21
1624.57
  0
LINE
  8
0
 10
-130.25
 20
1624.57
 11
-130.736
 21
1624.7
  0
LINE
  8
0
 10
-130.736
 20
1624.7
 11
-131.203
 21
1624.88
  0
LINE
  8
0
 10
-131.203
 20
1624.88
 11
-131.643
 21
1625.12
  0
LINE
  8
0
 10
-131.643
 20
1625.12
 11
-132.05
 21
1625.42
  0
LINE
  8
0
 10
-132.05
 20
1625.42
 11
-132.416
 21
1625.76
  0
LINE
  8
0
 10
-132.416
 20
1625.76
 11
-132.736
 21
1626.15
  0
LINE
  8
0
 10
-132.736
 20
1626.15
 11
-133.005
 21
1626.57
  0
LINE
  8
0
 10
-133.005
 20
1626.57
 11
-133.219
 21
1627.03
  0
LINE
  8
0
 10
-133.219
 20
1627.03
 11
-133.374
 21
1627.51
  0
LINE
  8
0
 10
-133.374
 20
1627.51
 11
-133.468
 21
1628
  0
LINE
  8
0
 10
-133.468
 20
1628
 11
-133.5
 21
1628.5
  0
LINE
  8
0
 10
-133.5
 20
1628.5
 11
-133.5
 21
1857.5
  0
LINE
  8
0
 10
-133.5
 20
1857.5
 11
-133.468
 21
1858
  0
LINE
  8
0
 10
-133.468
 20
1858
 11
-133.374
 21
1858.49
  0
LINE
  8
0
 10
-133.374
 20
1858.49
 11
-133.219
 21
1858.97
  0
LINE
  8
0
 10
-133.219
 20
1858.97
 11
-133.005
 21
1859.43
  0
LINE
  8
0
 10
-133.005
 20
1859.43
 11
-132.736
 21
1859.85
  0
LINE
  8
0
 10
-132.736
 20
1859.85
 11
-132.416
 21
1860.24
  0
LINE
  8
0
 10
-132.416
 20
1860.24
 11
-132.05
 21
1860.58
  0
LINE
  8
0
 10
-132.05
 20
1860.58
 11
-131.643
 21
1860.88
  0
LINE
  8
0
 10
-131.643
 20
1860.88
 11
-131.203
 21
1861.12
  0
LINE
  8
0
 10
-131.203
 20
1861.12
 11
-130.736
 21
1861.3
  0
LINE
  8
0
 10
-130.736
 20
1861.3
 11
-130.25
 21
1861.43
  0
LINE
  8
0
 10
-130.25
 20
1861.43
 11
-129.751
 21
1861.49
  0
LINE
  8
0
 10
-129.751
 20
1861.49
 11
129.751
 21
1861.49
  0
LINE
  8
0
 10
129.751
 20
1861.49
 11
130.25
 21
1861.43
  0
LINE
  8
0
 10
130.25
 20
1861.43
 11
130.736
 21
1861.3
  0
LINE
  8
0
 10
130.736
 20
1861.3
 11
131.203
 21
1861.12
  0
LINE
  8
0
 10
131.203
 20
1861.12
 11
131.643
 21
1860.88
  0
LINE
  8
0
 10
131.643
 20
1860.88
 11
132.05
 21
1860.58
  0
LINE
  8
0
 10
132.05
 20
1860.58
 11
132.416
 21
1860.24
  0
LINE
  8
0
 10
132.416
 20
1860.24
 11
132.736
 21
1859.85
  0
LINE
  8
0
 10
132.736
 20
1859.85
 11
133.005
 21
1859.43
  0
LINE
  8
0
 10
133.005
 20
1859.43
 11
133.219
 21
1858.97
  0
LINE
  8
0
 10
133.219
 20
1858.97
 11
133.374
 21
1858.49
  0
LINE
  8
0
 10
133.374
 20
1858.49
 11
133.468
 21
1858
  0
LINE
  8
0
 10
133.468
 20
1858
 11
133.5
 21
1857.5
  0
LINE
  8
0
 10
133.5
 20
1857.5
 11
133.5
 21
1628.5
  0
LINE
  8
0
 10
133.5
 20
1628.5
 11
133.468
 21
1628
  0
LINE
  8
0
 10
133.468
 20
1628
 11
133.374
 21
1627.51
  0
LINE
  8
0
 10
133.374
 20
1627.51
 11
133.219
 21
1627.03
  0
LINE
  8
0
 10
133.219
 20
1627.03
 11
133.005
 21
1626.57
  0
LINE
  8
0
 10
133.005
 20
1626.57
 11
132.736
 21
1626.15
  0
LINE
  8
0
 10
132.736
 20
1626.15
 11
132.416
 21
1625.76
  0
LINE
  8
0
 10
132.416
 20
1625.76
 11
132.05
 21
1625.42
  0
LINE
  8
0
 10
132.05
 20
1625.42
 11
131.643
 21
1625.12
  0
LINE
  8
0
 10
131.643
 20
1625.12
 11
131.203
 21
1624.88
  0
LINE
  8
0
 10
131.203
 20
1624.88
 11
130.736
 21
1624.7
  0
LINE
  8
0
 10
130.736
 20
1624.7
 11
130.25
 21
1624.57
  0
LINE
  8
0
 10
130.25
 20
1624.57
 11
129.751
 21
1624.51
  0
LINE
  8
0
 10
129.751
 20
1624.51
 11
-129.751
 21
1624.51
  0
LINE
  8
0
 10
130.937
 20
1374.09
 11
131.545
 21
1374.24
  0
LINE
  8
0
 10
131.545
 20
1374.24
 11
132.129
 21
1374.48
  0
LINE
  8
0
 10
132.129
 20
1374.48
 11
132.679
 21
1374.78
  0
LINE
  8
0
 10
132.679
 20
1374.78
 11
133.187
 21
1375.15
  0
LINE
  8
0
 10
133.187
 20
1375.15
 11
133.645
 21
1375.58
  0
LINE
  8
0
 10
133.645
 20
1375.58
 11
134.045
 21
1376.06
  0
LINE
  8
0
 10
134.045
 20
1376.06
 11
134.382
 21
1376.59
  0
LINE
  8
0
 10
134.382
 20
1376.59
 11
134.649
 21
1377.16
  0
LINE
  8
0
 10
134.649
 20
1377.16
 11
134.843
 21
1377.76
  0
LINE
  8
0
 10
134.843
 20
1377.76
 11
134.961
 21
1378.37
  0
LINE
  8
0
 10
134.961
 20
1378.37
 11
135
 21
1379
  0
LINE
  8
0
 10
135
 20
1379
 11
135
 21
1609
  0
LINE
  8
0
 10
135
 20
1609
 11
134.961
 21
1609.63
  0
LINE
  8
0
 10
134.961
 20
1609.63
 11
134.843
 21
1610.24
  0
LINE
  8
0
 10
134.843
 20
1610.24
 11
134.649
 21
1610.84
  0
LINE
  8
0
 10
134.649
 20
1610.84
 11
134.382
 21
1611.41
  0
LINE
  8
0
 10
134.382
 20
1611.41
 11
134.045
 21
1611.94
  0
LINE
  8
0
 10
134.045
 20
1611.94
 11
133.645
 21
1612.42
  0
LINE
  8
0
 10
133.645
 20
1612.42
 11
133.187
 21
1612.85
  0
LINE
  8
0
 10
133.187
 20
1612.85
 11
132.679
 21
1613.22
  0
LINE
  8
0
 10
132.679
 20
1613.22
 11
132.129
 21
1613.52
  0
LINE
  8
0
 10
132.129
 20
1613.52
 11
131.545
 21
1613.76
  0
LINE
  8
0
 10
131.545
 20
1613.76
 11
130.937
 21
1613.91
  0
LINE
  8
0
 10
130.937
 20
1613.91
 11
130.314
 21
1613.99
  0
LINE
  8
0
 10
130.314
 20
1613.99
 11
-130.314
 21
1613.99
  0
LINE
  8
0
 10
-130.314
 20
1613.99
 11
-130.937
 21
1613.91
  0
LINE
  8
0
 10
-130.937
 20
1613.91
 11
-131.545
 21
1613.76
  0
LINE
  8
0
 10
-131.545
 20
1613.76
 11
-132.129
 21
1613.52
  0
LINE
  8
0
 10
-132.129
 20
1613.52
 11
-132.679
 21
1613.22
  0
LINE
  8
0
 10
-132.679
 20
1613.22
 11
-133.187
 21
1612.85
  0
LINE
  8
0
 10
-133.187
 20
1612.85
 11
-133.5
 21
1612.56
  0
LINE
  8
0
 10
-133.5
 20
1612.56
 11
-133.5
 21
1613.98
  0
LINE
  8
0
 10
-133.5
 20
1613.98
 11
-136.5
 21
1613.98
  0
LINE
  8
0
 10
-136.5
 20
1613.98
 11
-136.5
 21
1374.02
  0
LINE
  8
0
 10
-136.5
 20
1374.02
 11
-133.5
 21
1374.02
  0
LINE
  8
0
 10
-133.5
 20
1374.02
 11
-133.5
 21
1375.44
  0
LINE
  8
0
 10
-133.5
 20
1375.44
 11
-133.187
 21
1375.15
  0
LINE
  8
0
 10
-133.187
 20
1375.15
 11
-132.679
 21
1374.78
  0
LINE
  8
0
 10
-132.679
 20
1374.78
 11
-132.129
 21
1374.48
  0
LINE
  8
0
 10
-132.129
 20
1374.48
 11
-131.545
 21
1374.24
  0
LINE
  8
0
 10
-131.545
 20
1374.24
 11
-130.937
 21
1374.09
  0
LINE
  8
0
 10
-130.937
 20
1374.09
 11
-130.314
 21
1374.01
  0
LINE
  8
0
 10
-130.314
 20
1374.01
 11
130.314
 21
1374.01
  0
LINE
  8
0
 10
130.314
 20
1374.01
 11
130.937
 21
1374.09
  0
LINE
  8
0
 10
-129.695
 20
1376.39
 11
-130.083
 21
1376.44
  0
LINE
  8
0
 10
-130.083
 20
1376.44
 11
-130.462
 21
1376.54
  0
LINE
  8
0
 10
-130.462
 20
1376.54
 11
-130.825
 21
1376.68
  0
LINE
  8
0
 10
-130.825
 20
1376.68
 11
-131.168
 21
1376.87
  0
LINE
  8
0
 10
-131.168
 20
1376.87
 11
-131.484
 21
1377.1
  0
LINE
  8
0
 10
-131.484
 20
1377.1
 11
-131.769
 21
1377.37
  0
LINE
  8
0
 10
-131.769
 20
1377.37
 11
-132.018
 21
1377.67
  0
LINE
  8
0
 10
-132.018
 20
1377.67
 11
-132.228
 21
1378
  0
LINE
  8
0
 10
-132.228
 20
1378
 11
-132.394
 21
1378.35
  0
LINE
  8
0
 10
-132.394
 20
1378.35
 11
-132.515
 21
1378.73
  0
LINE
  8
0
 10
-132.515
 20
1378.73
 11
-132.588
 21
1379.11
  0
LINE
  8
0
 10
-132.588
 20
1379.11
 11
-132.613
 21
1379.5
  0
LINE
  8
0
 10
-132.613
 20
1379.5
 11
-132.613
 21
1608.5
  0
LINE
  8
0
 10
-132.613
 20
1608.5
 11
-132.588
 21
1608.89
  0
LINE
  8
0
 10
-132.588
 20
1608.89
 11
-132.515
 21
1609.27
  0
LINE
  8
0
 10
-132.515
 20
1609.27
 11
-132.394
 21
1609.65
  0
LINE
  8
0
 10
-132.394
 20
1609.65
 11
-132.228
 21
1610
  0
LINE
  8
0
 10
-132.228
 20
1610
 11
-132.018
 21
1610.33
  0
LINE
  8
0
 10
-132.018
 20
1610.33
 11
-131.769
 21
1610.63
  0
LINE
  8
0
 10
-131.769
 20
1610.63
 11
-131.484
 21
1610.9
  0
LINE
  8
0
 10
-131.484
 20
1610.9
 11
-131.168
 21
1611.13
  0
LINE
  8
0
 10
-131.168
 20
1611.13
 11
-130.825
 21
1611.32
  0
LINE
  8
0
 10
-130.825
 20
1611.32
 11
-130.462
 21
1611.46
  0
LINE
  8
0
 10
-130.462
 20
1611.46
 11
-130.083
 21
1611.56
  0
LINE
  8
0
 10
-130.083
 20
1611.56
 11
-129.695
 21
1611.61
  0
LINE
  8
0
 10
-129.695
 20
1611.61
 11
129.695
 21
1611.61
  0
LINE
  8
0
 10
129.695
 20
1611.61
 11
130.083
 21
1611.56
  0
LINE
  8
0
 10
130.083
 20
1611.56
 11
130.462
 21
1611.46
  0
LINE
  8
0
 10
130.462
 20
1611.46
 11
130.825
 21
1611.32
  0
LINE
  8
0
 10
130.825
 20
1611.32
 11
131.168
 21
1611.13
  0
LINE
  8
0
 10
131.168
 20
1611.13
 11
131.484
 21
1610.9
  0
LINE
  8
0
 10
131.484
 20
1610.9
 11
131.769
 21
1610.63
  0
LINE
  8
0
 10
131.769
 20
1610.63
 11
132.018
 21
1610.33
  0
LINE
  8
0
 10
132.018
 20
1610.33
 11
132.228
 21
1610
  0
LINE
  8
0
 10
132.228
 20
1610
 11
132.394
 21
1609.65
  0
LINE
  8
0
 10
132.394
 20
1609.65
 11
132.515
 21
1609.27
  0
LINE
  8
0
 10
132.515
 20
1609.27
 11
132.588
 21
1608.89
  0
LINE
  8
0
 10
132.588
 20
1608.89
 11
132.613
 21
1608.5
  0
LINE
  8
0
 10
132.613
 20
1608.5
 11
132.613
 21
1379.5
  0
LINE
  8
0
 10
132.613
 20
1379.5
 11
132.588
 21
1379.11
  0
LINE
  8
0
 10
132.588
 20
1379.11
 11
132.515
 21
1378.73
  0
LINE
  8
0
 10
132.515
 20
1378.73
 11
132.394
 21
1378.35
  0
LINE
  8
0
 10
132.394
 20
1378.35
 11
132.228
 21
1378
  0
LINE
  8
0
 10
132.228
 20
1378
 11
132.018
 21
1377.67
  0
LINE
  8
0
 10
132.018
 20
1377.67
 11
131.769
 21
1377.37
  0
LINE
  8
0
 10
131.769
 20
1377.37
 11
131.484
 21
1377.1
  0
LINE
  8
0
 10
131.484
 20
1377.1
 11
131.168
 21
1376.87
  0
LINE
  8
0
 10
131.168
 20
1376.87
 11
130.825
 21
1376.68
  0
LINE
  8
0
 10
130.825
 20
1376.68
 11
130.462
 21
1376.54
  0
LINE
  8
0
 10
130.462
 20
1376.54
 11
130.083
 21
1376.44
  0
LINE
  8
0
 10
130.083
 20
1376.44
 11
129.695
 21
1376.39
  0
LINE
  8
0
 10
129.695
 20
1376.39
 11
-129.695
 21
1376.39
  0
LINE
  8
0
 10
130.937
 20
1125.09
 11
131.545
 21
1125.24
  0
LINE
  8
0
 10
131.545
 20
1125.24
 11
132.129
 21
1125.48
  0
LINE
  8
0
 10
132.129
 20
1125.48
 11
132.679
 21
1125.78
  0
LINE
  8
0
 10
132.679
 20
1125.78
 11
133.187
 21
1126.15
  0
LINE
  8
0
 10
133.187
 20
1126.15
 11
133.645
 21
1126.58
  0
LINE
  8
0
 10
133.645
 20
1126.58
 11
134.045
 21
1127.06
  0
LINE
  8
0
 10
134.045
 20
1127.06
 11
134.382
 21
1127.59
  0
LINE
  8
0
 10
134.382
 20
1127.59
 11
134.649
 21
1128.16
  0
LINE
  8
0
 10
134.649
 20
1128.16
 11
134.843
 21
1128.76
  0
LINE
  8
0
 10
134.843
 20
1128.76
 11
134.961
 21
1129.37
  0
LINE
  8
0
 10
134.961
 20
1129.37
 11
135
 21
1130
  0
LINE
  8
0
 10
135
 20
1130
 11
135
 21
1360
  0
LINE
  8
0
 10
135
 20
1360
 11
134.961
 21
1360.63
  0
LINE
  8
0
 10
134.961
 20
1360.63
 11
134.843
 21
1361.24
  0
LINE
  8
0
 10
134.843
 20
1361.24
 11
134.649
 21
1361.84
  0
LINE
  8
0
 10
134.649
 20
1361.84
 11
134.382
 21
1362.41
  0
LINE
  8
0
 10
134.382
 20
1362.41
 11
134.045
 21
1362.94
  0
LINE
  8
0
 10
134.045
 20
1362.94
 11
133.645
 21
1363.42
  0
LINE
  8
0
 10
133.645
 20
1363.42
 11
133.187
 21
1363.85
  0
LINE
  8
0
 10
133.187
 20
1363.85
 11
132.679
 21
1364.22
  0
LINE
  8
0
 10
132.679
 20
1364.22
 11
132.129
 21
1364.52
  0
LINE
  8
0
 10
132.129
 20
1364.52
 11
131.545
 21
1364.76
  0
LINE
  8
0
 10
131.545
 20
1364.76
 11
130.937
 21
1364.91
  0
LINE
  8
0
 10
130.937
 20
1364.91
 11
130.314
 21
1364.99
  0
LINE
  8
0
 10
130.314
 20
1364.99
 11
-130.314
 21
1364.99
  0
LINE
  8
0
 10
-130.314
 20
1364.99
 11
-130.937
 21
1364.91
  0
LINE
  8
0
 10
-130.937
 20
1364.91
 11
-131.545
 21
1364.76
  0
LINE
  8
0
 10
-131.545
 20
1364.76
 11
-132.129
 21
1364.52
  0
LINE
  8
0
 10
-132.129
 20
1364.52
 11
-132.679
 21
1364.22
  0
LINE
  8
0
 10
-132.679
 20
1364.22
 11
-133.187
 21
1363.85
  0
LINE
  8
0
 10
-133.187
 20
1363.85
 11
-133.5
 21
1363.56
  0
LINE
  8
0
 10
-133.5
 20
1363.56
 11
-133.5
 21
1363.65
  0
LINE
  8
0
 10
-133.5
 20
1363.65
 11
-136.5
 21
1363.65
  0
LINE
  8
0
 10
-136.5
 20
1363.65
 11
-136.5
 21
1126.35
  0
LINE
  8
0
 10
-136.5
 20
1126.35
 11
-133.5
 21
1126.35
  0
LINE
  8
0
 10
-133.5
 20
1126.35
 11
-133.5
 21
1126.44
  0
LINE
  8
0
 10
-133.5
 20
1126.44
 11
-133.187
 21
1126.15
  0
LINE
  8
0
 10
-133.187
 20
1126.15
 11
-132.679
 21
1125.78
  0
LINE
  8
0
 10
-132.679
 20
1125.78
 11
-132.129
 21
1125.48
  0
LINE
  8
0
 10
-132.129
 20
1125.48
 11
-131.545
 21
1125.24
  0
LINE
  8
0
 10
-131.545
 20
1125.24
 11
-130.937
 21
1125.09
  0
LINE
  8
0
 10
-130.937
 20
1125.09
 11
-130.314
 21
1125.01
  0
LINE
  8
0
 10
-130.314
 20
1125.01
 11
130.314
 21
1125.01
  0
LINE
  8
0
 10
130.314
 20
1125.01
 11
130.937
 21
1125.09
  0
LINE
  8
0
 10
-127.634
 20
1355.37
 11
-127.9
 21
1355.4
  0
LINE
  8
0
 10
-127.9
 20
1355.4
 11
-128.16
 21
1355.47
  0
LINE
  8
0
 10
-128.16
 20
1355.47
 11
-128.409
 21
1355.57
  0
LINE
  8
0
 10
-128.409
 20
1355.57
 11
-128.644
 21
1355.7
  0
LINE
  8
0
 10
-128.644
 20
1355.7
 11
-128.861
 21
1355.85
  0
LINE
  8
0
 10
-128.861
 20
1355.85
 11
-129.057
 21
1356.04
  0
LINE
  8
0
 10
-129.057
 20
1356.04
 11
-129.227
 21
1356.24
  0
LINE
  8
0
 10
-129.227
 20
1356.24
 11
-129.371
 21
1356.47
  0
LINE
  8
0
 10
-129.371
 20
1356.47
 11
-129.485
 21
1356.71
  0
LINE
  8
0
 10
-129.485
 20
1356.71
 11
-129.568
 21
1356.97
  0
LINE
  8
0
 10
-129.568
 20
1356.97
 11
-129.618
 21
1357.23
  0
LINE
  8
0
 10
-129.618
 20
1357.23
 11
-129.635
 21
1357.5
  0
LINE
  8
0
 10
-129.635
 20
1357.5
 11
-129.618
 21
1357.77
  0
LINE
  8
0
 10
-129.618
 20
1357.77
 11
-129.568
 21
1358.03
  0
LINE
  8
0
 10
-129.568
 20
1358.03
 11
-129.485
 21
1358.29
  0
LINE
  8
0
 10
-129.485
 20
1358.29
 11
-129.371
 21
1358.53
  0
LINE
  8
0
 10
-129.371
 20
1358.53
 11
-129.227
 21
1358.76
  0
LINE
  8
0
 10
-129.227
 20
1358.76
 11
-129.057
 21
1358.96
  0
LINE
  8
0
 10
-129.057
 20
1358.96
 11
-128.861
 21
1359.15
  0
LINE
  8
0
 10
-128.861
 20
1359.15
 11
-128.644
 21
1359.3
  0
LINE
  8
0
 10
-128.644
 20
1359.3
 11
-128.409
 21
1359.43
  0
LINE
  8
0
 10
-128.409
 20
1359.43
 11
-128.16
 21
1359.53
  0
LINE
  8
0
 10
-128.16
 20
1359.53
 11
-127.9
 21
1359.6
  0
LINE
  8
0
 10
-127.9
 20
1359.6
 11
-127.634
 21
1359.63
  0
LINE
  8
0
 10
-127.634
 20
1359.63
 11
-127.366
 21
1359.63
  0
LINE
  8
0
 10
-127.366
 20
1359.63
 11
-127.1
 21
1359.6
  0
LINE
  8
0
 10
-127.1
 20
1359.6
 11
-126.84
 21
1359.53
  0
LINE
  8
0
 10
-126.84
 20
1359.53
 11
-126.591
 21
1359.43
  0
LINE
  8
0
 10
-126.591
 20
1359.43
 11
-126.356
 21
1359.3
  0
LINE
  8
0
 10
-126.356
 20
1359.3
 11
-126.139
 21
1359.15
  0
LINE
  8
0
 10
-126.139
 20
1359.15
 11
-125.943
 21
1358.96
  0
LINE
  8
0
 10
-125.943
 20
1358.96
 11
-125.773
 21
1358.76
  0
LINE
  8
0
 10
-125.773
 20
1358.76
 11
-125.629
 21
1358.53
  0
LINE
  8
0
 10
-125.629
 20
1358.53
 11
-125.515
 21
1358.29
  0
LINE
  8
0
 10
-125.515
 20
1358.29
 11
-125.432
 21
1358.03
  0
LINE
  8
0
 10
-125.432
 20
1358.03
 11
-125.382
 21
1357.77
  0
LINE
  8
0
 10
-125.382
 20
1357.77
 11
-125.365
 21
1357.5
  0
LINE
  8
0
 10
-125.365
 20
1357.5
 11
-125.382
 21
1357.23
  0
LINE
  8
0
 10
-125.382
 20
1357.23
 11
-125.432
 21
1356.97
  0
LINE
  8
0
 10
-125.432
 20
1356.97
 11
-125.515
 21
1356.71
  0
LINE
  8
0
 10
-125.515
 20
1356.71
 11
-125.629
 21
1356.47
  0
LINE
  8
0
 10
-125.629
 20
1356.47
 11
-125.773
 21
1356.24
  0
LINE
  8
0
 10
-125.773
 20
1356.24
 11
-125.943
 21
1356.04
  0
LINE
  8
0
 10
-125.943
 20
1356.04
 11
-126.139
 21
1355.85
  0
LINE
  8
0
 10
-126.139
 20
1355.85
 11
-126.356
 21
1355.7
  0
LINE
  8
0
 10
-126.356
 20
1355.7
 11
-126.591
 21
1355.57
  0
LINE
  8
0
 10
-126.591
 20
1355.57
 11
-126.84
 21
1355.47
  0
LINE
  8
0
 10
-126.84
 20
1355.47
 11
-127.1
 21
1355.4
  0
LINE
  8
0
 10
-127.1
 20
1355.4
 11
-127.366
 21
1355.37
  0
LINE
  8
0
 10
-127.366
 20
1355.37
 11
-127.634
 21
1355.37
  0
LINE
  8
0
 10
127.366
 20
1355.37
 11
127.1
 21
1355.4
  0
LINE
  8
0
 10
127.1
 20
1355.4
 11
126.84
 21
1355.47
  0
LINE
  8
0
 10
126.84
 20
1355.47
 11
126.591
 21
1355.57
  0
LINE
  8
0
 10
126.591
 20
1355.57
 11
126.356
 21
1355.7
  0
LINE
  8
0
 10
126.356
 20
1355.7
 11
126.139
 21
1355.85
  0
LINE
  8
0
 10
126.139
 20
1355.85
 11
125.943
 21
1356.04
  0
LINE
  8
0
 10
125.943
 20
1356.04
 11
125.773
 21
1356.24
  0
LINE
  8
0
 10
125.773
 20
1356.24
 11
125.629
 21
1356.47
  0
LINE
  8
0
 10
125.629
 20
1356.47
 11
125.515
 21
1356.71
  0
LINE
  8
0
 10
125.515
 20
1356.71
 11
125.432
 21
1356.97
  0
LINE
  8
0
 10
125.432
 20
1356.97
 11
125.382
 21
1357.23
  0
LINE
  8
0
 10
125.382
 20
1357.23
 11
125.365
 21
1357.5
  0
LINE
  8
0
 10
125.365
 20
1357.5
 11
125.382
 21
1357.77
  0
LINE
  8
0
 10
125.382
 20
1357.77
 11
125.432
 21
1358.03
  0
LINE
  8
0
 10
125.432
 20
1358.03
 11
125.515
 21
1358.29
  0
LINE
  8
0
 10
125.515
 20
1358.29
 11
125.629
 21
1358.53
  0
LINE
  8
0
 10
125.629
 20
1358.53
 11
125.773
 21
1358.76
  0
LINE
  8
0
 10
125.773
 20
1358.76
 11
125.943
 21
1358.96
  0
LINE
  8
0
 10
125.943
 20
1358.96
 11
126.139
 21
1359.15
  0
LINE
  8
0
 10
126.139
 20
1359.15
 11
126.356
 21
1359.3
  0
LINE
  8
0
 10
126.356
 20
1359.3
 11
126.591
 21
1359.43
  0
LINE
  8
0
 10
126.591
 20
1359.43
 11
126.84
 21
1359.53
  0
LINE
  8
0
 10
126.84
 20
1359.53
 11
127.1
 21
1359.6
  0
LINE
  8
0
 10
127.1
 20
1359.6
 11
127.366
 21
1359.63
  0
LINE
  8
0
 10
127.366
 20
1359.63
 11
127.634
 21
1359.63
  0
LINE
  8
0
 10
127.634
 20
1359.63
 11
127.9
 21
1359.6
  0
LINE
  8
0
 10
127.9
 20
1359.6
 11
128.16
 21
1359.53
  0
LINE
  8
0
 10
128.16
 20
1359.53
 11
128.409
 21
1359.43
  0
LINE
  8
0
 10
128.409
 20
1359.43
 11
128.644
 21
1359.3
  0
LINE
  8
0
 10
128.644
 20
1359.3
 11
128.861
 21
1359.15
  0
LINE
  8
0
 10
128.861
 20
1359.15
 11
129.057
 21
1358.96
  0
LINE
  8
0
 10
129.057
 20
1358.96
 11
129.227
 21
1358.76
  0
LINE
  8
0
 10
129.227
 20
1358.76
 11
129.371
 21
1358.53
  0
LINE
  8
0
 10
129.371
 20
1358.53
 11
129.485
 21
1358.29
  0
LINE
  8
0
 10
129.485
 20
1358.29
 11
129.568
 21
1358.03
  0
LINE
  8
0
 10
129.568
 20
1358.03
 11
129.618
 21
1357.77
  0
LINE
  8
0
 10
129.618
 20
1357.77
 11
129.635
 21
1357.5
  0
LINE
  8
0
 10
129.635
 20
1357.5
 11
129.618
 21
1357.23
  0
LINE
  8
0
 10
129.618
 20
1357.23
 11
129.568
 21
1356.97
  0
LINE
  8
0
 10
129.568
 20
1356.97
 11
129.485
 21
1356.71
  0
LINE
  8
0
 10
129.485
 20
1356.71
 11
129.371
 21
1356.47
  0
LINE
  8
0
 10
129.371
 20
1356.47
 11
129.227
 21
1356.24
  0
LINE
  8
0
 10
129.227
 20
1356.24
 11
129.057
 21
1356.04
  0
LINE
  8
0
 10
129.057
 20
1356.04
 11
128.861
 21
1355.85
  0
LINE
  8
0
 10
128.861
 20
1355.85
 11
128.644
 21
1355.7
  0
LINE
  8
0
 10
128.644
 20
1355.7
 11
128.409
 21
1355.57
  0
LINE
  8
0
 10
128.409
 20
1355.57
 11
128.16
 21
1355.47
  0
LINE
  8
0
 10
128.16
 20
1355.47
 11
127.9
 21
1355.4
  0
LINE
  8
0
 10
127.9
 20
1355.4
 11
127.634
 21
1355.37
  0
LINE
  8
0
 10
127.634
 20
1355.37
 11
127.366
 21
1355.37
  0
LINE
  8
0
 10
-127.634
 20
1130.37
 11
-127.9
 21
1130.4
  0
LINE
  8
0
 10
-127.9
 20
1130.4
 11
-128.16
 21
1130.47
  0
LINE
  8
0
 10
-128.16
 20
1130.47
 11
-128.409
 21
1130.57
  0
LINE
  8
0
 10
-128.409
 20
1130.57
 11
-128.644
 21
1130.7
  0
LINE
  8
0
 10
-128.644
 20
1130.7
 11
-128.861
 21
1130.85
  0
LINE
  8
0
 10
-128.861
 20
1130.85
 11
-129.057
 21
1131.04
  0
LINE
  8
0
 10
-129.057
 20
1131.04
 11
-129.227
 21
1131.24
  0
LINE
  8
0
 10
-129.227
 20
1131.24
 11
-129.371
 21
1131.47
  0
LINE
  8
0
 10
-129.371
 20
1131.47
 11
-129.485
 21
1131.71
  0
LINE
  8
0
 10
-129.485
 20
1131.71
 11
-129.568
 21
1131.97
  0
LINE
  8
0
 10
-129.568
 20
1131.97
 11
-129.618
 21
1132.23
  0
LINE
  8
0
 10
-129.618
 20
1132.23
 11
-129.635
 21
1132.5
  0
LINE
  8
0
 10
-129.635
 20
1132.5
 11
-129.618
 21
1132.77
  0
LINE
  8
0
 10
-129.618
 20
1132.77
 11
-129.568
 21
1133.03
  0
LINE
  8
0
 10
-129.568
 20
1133.03
 11
-129.485
 21
1133.29
  0
LINE
  8
0
 10
-129.485
 20
1133.29
 11
-129.371
 21
1133.53
  0
LINE
  8
0
 10
-129.371
 20
1133.53
 11
-129.227
 21
1133.76
  0
LINE
  8
0
 10
-129.227
 20
1133.76
 11
-129.057
 21
1133.96
  0
LINE
  8
0
 10
-129.057
 20
1133.96
 11
-128.861
 21
1134.15
  0
LINE
  8
0
 10
-128.861
 20
1134.15
 11
-128.644
 21
1134.3
  0
LINE
  8
0
 10
-128.644
 20
1134.3
 11
-128.409
 21
1134.43
  0
LINE
  8
0
 10
-128.409
 20
1134.43
 11
-128.16
 21
1134.53
  0
LINE
  8
0
 10
-128.16
 20
1134.53
 11
-127.9
 21
1134.6
  0
LINE
  8
0
 10
-127.9
 20
1134.6
 11
-127.634
 21
1134.63
  0
LINE
  8
0
 10
-127.634
 20
1134.63
 11
-127.366
 21
1134.63
  0
LINE
  8
0
 10
-127.366
 20
1134.63
 11
-127.1
 21
1134.6
  0
LINE
  8
0
 10
-127.1
 20
1134.6
 11
-126.84
 21
1134.53
  0
LINE
  8
0
 10
-126.84
 20
1134.53
 11
-126.591
 21
1134.43
  0
LINE
  8
0
 10
-126.591
 20
1134.43
 11
-126.356
 21
1134.3
  0
LINE
  8
0
 10
-126.356
 20
1134.3
 11
-126.139
 21
1134.15
  0
LINE
  8
0
 10
-126.139
 20
1134.15
 11
-125.943
 21
1133.96
  0
LINE
  8
0
 10
-125.943
 20
1133.96
 11
-125.773
 21
1133.76
  0
LINE
  8
0
 10
-125.773
 20
1133.76
 11
-125.629
 21
1133.53
  0
LINE
  8
0
 10
-125.629
 20
1133.53
 11
-125.515
 21
1133.29
  0
LINE
  8
0
 10
-125.515
 20
1133.29
 11
-125.432
 21
1133.03
  0
LINE
  8
0
 10
-125.432
 20
1133.03
 11
-125.382
 21
1132.77
  0
LINE
  8
0
 10
-125.382
 20
1132.77
 11
-125.365
 21
1132.5
  0
LINE
  8
0
 10
-125.365
 20
1132.5
 11
-125.382
 21
1132.23
  0
LINE
  8
0
 10
-125.382
 20
1132.23
 11
-125.432
 21
1131.97
  0
LINE
  8
0
 10
-125.432
 20
1131.97
 11
-125.515
 21
1131.71
  0
LINE
  8
0
 10
-125.515
 20
1131.71
 11
-125.629
 21
1131.47
  0
LINE
  8
0
 10
-125.629
 20
1131.47
 11
-125.773
 21
1131.24
  0
LINE
  8
0
 10
-125.773
 20
1131.24
 11
-125.943
 21
1131.04
  0
LINE
  8
0
 10
-125.943
 20
1131.04
 11
-126.139
 21
1130.85
  0
LINE
  8
0
 10
-126.139
 20
1130.85
 11
-126.356
 21
1130.7
  0
LINE
  8
0
 10
-126.356
 20
1130.7
 11
-126.591
 21
1130.57
  0
LINE
  8
0
 10
-126.591
 20
1130.57
 11
-126.84
 21
1130.47
  0
LINE
  8
0
 10
-126.84
 20
1130.47
 11
-127.1
 21
1130.4
  0
LINE
  8
0
 10
-127.1
 20
1130.4
 11
-127.366
 21
1130.37
  0
LINE
  8
0
 10
-127.366
 20
1130.37
 11
-127.634
 21
1130.37
  0
LINE
  8
0
 10
127.366
 20
1130.37
 11
127.1
 21
1130.4
  0
LINE
  8
0
 10
127.1
 20
1130.4
 11
126.84
 21
1130.47
  0
LINE
  8
0
 10
126.84
 20
1130.47
 11
126.591
 21
1130.57
  0
LINE
  8
0
 10
126.591
 20
1130.57
 11
126.356
 21
1130.7
  0
LINE
  8
0
 10
126.356
 20
1130.7
 11
126.139
 21
1130.85
  0
LINE
  8
0
 10
126.139
 20
1130.85
 11
125.943
 21
1131.04
  0
LINE
  8
0
 10
125.943
 20
1131.04
 11
125.773
 21
1131.24
  0
LINE
  8
0
 10
125.773
 20
1131.24
 11
125.629
 21
1131.47
  0
LINE
  8
0
 10
125.629
 20
1131.47
 11
125.515
 21
1131.71
  0
LINE
  8
0
 10
125.515
 20
1131.71
 11
125.432
 21
1131.97
  0
LINE
  8
0
 10
125.432
 20
1131.97
 11
125.382
 21
1132.23
  0
LINE
  8
0
 10
125.382
 20
1132.23
 11
125.365
 21
1132.5
  0
LINE
  8
0
 10
125.365
 20
1132.5
 11
125.382
 21
1132.77
  0
LINE
  8
0
 10
125.382
 20
1132.77
 11
125.432
 21
1133.03
  0
LINE
  8
0
 10
125.432
 20
1133.03
 11
125.515
 21
1133.29
  0
LINE
  8
0
 10
125.515
 20
1133.29
 11
125.629
 21
1133.53
  0
LINE
  8
0
 10
125.629
 20
1133.53
 11
125.773
 21
1133.76
  0
LINE
  8
0
 10
125.773
 20
1133.76
 11
125.943
 21
1133.96
  0
LINE
  8
0
 10
125.943
 20
1133.96
 11
126.139
 21
1134.15
  0
LINE
  8
0
 10
126.139
 20
1134.15
 11
126.356
 21
1134.3
  0
LINE
  8
0
 10
126.356
 20
1134.3
 11
126.591
 21
1134.43
  0
LINE
  8
0
 10
126.591
 20
1134.43
 11
126.84
 21
1134.53
  0
LINE
  8
0
 10
126.84
 20
1134.53
 11
127.1
 21
1134.6
  0
LINE
  8
0
 10
127.1
 20
1134.6
 11
127.366
 21
1134.63
  0
LINE
  8
0
 10
127.366
 20
1134.63
 11
127.634
 21
1134.63
  0
LINE
  8
0
 10
127.634
 20
1134.63
 11
127.9
 21
1134.6
  0
LINE
  8
0
 10
127.9
 20
1134.6
 11
128.16
 21
1134.53
  0
LINE
  8
0
 10
128.16
 20
1134.53
 11
128.409
 21
1134.43
  0
LINE
  8
0
 10
128.409
 20
1134.43
 11
128.644
 21
1134.3
  0
LINE
  8
0
 10
128.644
 20
1134.3
 11
128.861
 21
1134.15
  0
LINE
  8
0
 10
128.861
 20
1134.15
 11
129.057
 21
1133.96
  0
LINE
  8
0
 10
129.057
 20
1133.96
 11
129.227
 21
1133.76
  0
LINE
  8
0
 10
129.227
 20
1133.76
 11
129.371
 21
1133.53
  0
LINE
  8
0
 10
129.371
 20
1133.53
 11
129.485
 21
1133.29
  0
LINE
  8
0
 10
129.485
 20
1133.29
 11
129.568
 21
1133.03
  0
LINE
  8
0
 10
129.568
 20
1133.03
 11
129.618
 21
1132.77
  0
LINE
  8
0
 10
129.618
 20
1132.77
 11
129.635
 21
1132.5
  0
LINE
  8
0
 10
129.635
 20
1132.5
 11
129.618
 21
1132.23
  0
LINE
  8
0
 10
129.618
 20
1132.23
 11
129.568
 21
1131.97
  0
LINE
  8
0
 10
129.568
 20
1131.97
 11
129.485
 21
1131.71
  0
LINE
  8
0
 10
129.485
 20
1131.71
 11
129.371
 21
1131.47
  0
LINE
  8
0
 10
129.371
 20
1131.47
 11
129.227
 21
1131.24
  0
LINE
  8
0
 10
129.227
 20
1131.24
 11
129.057
 21
1131.04
  0
LINE
  8
0
 10
129.057
 20
1131.04
 11
128.861
 21
1130.85
  0
LINE
  8
0
 10
128.861
 20
1130.85
 11
128.644
 21
1130.7
  0
LINE
  8
0
 10
128.644
 20
1130.7
 11
128.409
 21
1130.57
  0
LINE
  8
0
 10
128.409
 20
1130.57
 11
128.16
 21
1130.47
  0
LINE
  8
0
 10
128.16
 20
1130.47
 11
127.9
 21
1130.4
  0
LINE
  8
0
 10
127.9
 20
1130.4
 11
127.634
 21
1130.37
  0
LINE
  8
0
 10
127.634
 20
1130.37
 11
127.366
 21
1130.37
  0
ENDSEC
  0
SECTION
  2
OBJECTS
  0
DICTIONARY
  0
ENDSEC
  0
EOF
