<?xml version="1.0" standalone="no"?>
<!DOCTYPE svg PUBLIC "-//W3C//DTD SVG 1.1//EN" "http://www.w3.org/Graphics/SVG/1.1/DTD/svg11.dtd">
<svg width="256mm" height="267mm" viewBox="-128 -444 256 267" xmlns="http://www.w3.org/2000/svg" version="1.1">
<title>OpenSCAD Model</title>
<path d="
M 123.437,-384.089 L 124.045,-384.245 L 124.629,-384.476 L 125.179,-384.778 L 125.687,-385.147 L 126.145,-385.577
 L 126.545,-386.061 L 126.882,-386.591 L 127.149,-387.159 L 127.343,-387.757 L 127.461,-388.373 L 127.5,-389
 L 127.5,-439 L 127.461,-439.627 L 127.343,-440.243 L 127.149,-440.841 L 126.882,-441.409 L 126.545,-441.939
 L 126.145,-442.423 L 125.687,-442.853 L 125.179,-443.222 L 124.629,-443.524 L 124.045,-443.755 L 123.437,-443.911
 L 122.814,-443.99 L -122.814,-443.99 L -123.437,-443.911 L -124.045,-443.755 L -124.629,-443.524 L -125.179,-443.222
 L -125.687,-442.853 L -126.145,-442.423 L -126.545,-441.939 L -126.882,-441.409 L -127.149,-440.841 L -127.343,-440.243
 L -127.461,-439.627 L -127.5,-439 L -127.5,-389 L -127.461,-388.373 L -127.343,-387.757 L -127.149,-387.159
 L -126.882,-386.591 L -126.545,-386.061 L -126.145,-385.577 L -125.687,-385.147 L -125.179,-384.778 L -124.629,-384.476
 L -124.045,-384.245 L -123.437,-384.089 L -122.814,-384.01 L 122.814,-384.01 z
M -122.548,-384.509 L -123.14,-384.584 L -123.718,-384.732 L -124.272,-384.952 L -124.795,-385.239 L -125.278,-385.59
 L -125.713,-385.998 L -126.093,-386.458 L -126.412,-386.962 L -126.666,-387.501 L -126.851,-388.069 L -126.963,-388.655
 L -127,-389.25 L -127,-438.75 L -126.963,-439.345 L -126.851,-439.931 L -126.666,-440.499 L -126.412,-441.038
 L -126.093,-441.542 L -125.713,-442.002 L -125.278,-442.41 L -124.795,-442.761 L -124.272,-443.048 L -123.718,-443.268
 L -123.14,-443.416 L -122.548,-443.491 L 122.548,-443.491 L 123.14,-443.416 L 123.718,-443.268 L 124.272,-443.048
 L 124.795,-442.761 L 125.278,-442.41 L 125.713,-442.002 L 126.093,-441.542 L 126.412,-441.038 L 126.666,-440.499
 L 126.851,-439.931 L 126.963,-439.345 L 127,-438.75 L 127,-389.25 L 126.963,-388.655 L 126.851,-388.069
 L 126.666,-387.501 L 126.412,-386.962 L 126.093,-386.458 L 125.713,-385.998 L 125.278,-385.59 L 124.795,-385.239
 L 124.272,-384.952 L 123.718,-384.732 L 123.14,-384.584 L 122.548,-384.509 z
M 123.437,-315.089 L 124.045,-315.245 L 124.629,-315.476 L 125.179,-315.778 L 125.687,-316.147 L 126.145,-316.577
 L 126.545,-317.061 L 126.882,-317.591 L 127.149,-318.159 L 127.343,-318.757 L 127.461,-319.373 L 127.5,-320
 L 127.5,-370 L 127.461,-370.627 L 127.343,-371.243 L 127.149,-371.841 L 126.882,-372.409 L 126.545,-372.939
 L 126.145,-373.423 L 125.687,-373.853 L 125.179,-374.222 L 124.629,-374.524 L 124.045,-374.755 L 123.437,-374.911
 L 122.814,-374.99 L -122.814,-374.99 L -123.437,-374.911 L -124.045,-374.755 L -124.629,-374.524 L -125.179,-374.222
 L -125.687,-373.853 L -126.145,-373.423 L -126.545,-372.939 L -126.882,-372.409 L -127.149,-371.841 L -127.343,-371.243
 L -127.461,-370.627 L -127.5,-370 L -127.5,-320 L -127.461,-319.373 L -127.343,-318.757 L -127.149,-318.159
 L -126.882,-317.591 L -126.545,-317.061 L -126.145,-316.577 L -125.687,-316.147 L -125.179,-315.778 L -124.629,-315.476
 L -124.045,-315.245 L -123.437,-315.089 L -122.814,-315.01 L 122.814,-315.01 z
M -122.548,-315.509 L -123.14,-315.584 L -123.718,-315.732 L -124.272,-315.952 L -124.795,-316.239 L -125.278,-316.59
 L -125.713,-316.998 L -126.093,-317.458 L -126.412,-317.962 L -126.666,-318.501 L -126.851,-319.069 L -126.963,-319.655
 L -127,-320.25 L -127,-369.75 L -126.963,-370.345 L -126.851,-370.931 L -126.666,-371.499 L -126.412,-372.038
 L -126.093,-372.542 L -125.713,-373.002 L -125.278,-373.41 L -124.795,-373.761 L -124.272,-374.048 L -123.718,-374.268
 L -123.14,-374.416 L -122.548,-374.491 L 122.548,-374.491 L 123.14,-374.416 L 123.718,-374.268 L 124.272,-374.048
 L 124.795,-373.761 L 125.278,-373.41 L 125.713,-373.002 L 126.093,-372.542 L 126.412,-372.038 L 126.666,-371.499
 L 126.851,-370.931 L 126.963,-370.345 L 127,-369.75 L 127,-320.25 L 126.963,-319.655 L 126.851,-319.069
 L 126.666,-318.501 L 126.412,-317.962 L 126.093,-317.458 L 125.713,-316.998 L 125.278,-316.59 L 124.795,-316.239
 L 124.272,-315.952 L 123.718,-315.732 L 123.14,-315.584 L 122.548,-315.509 z
M 123.437,-246.089 L 124.045,-246.245 L 124.629,-246.476 L 125.179,-246.778 L 125.687,-247.147 L 126.145,-247.577
 L 126.545,-248.061 L 126.882,-248.591 L 127.149,-249.159 L 127.343,-249.757 L 127.461,-250.373 L 127.5,-251
 L 127.5,-301 L 127.461,-301.627 L 127.343,-302.243 L 127.149,-302.841 L 126.882,-303.409 L 126.545,-303.939
 L 126.145,-304.423 L 125.687,-304.853 L 125.179,-305.222 L 124.629,-305.524 L 124.045,-305.755 L 123.437,-305.911
 L 122.814,-305.99 L -122.814,-305.99 L -123.437,-305.911 L -124.045,-305.755 L -124.629,-305.524 L -125.179,-305.222
 L -125.687,-304.853 L -126.145,-304.423 L -126.545,-303.939 L -126.882,-303.409 L -127.149,-302.841 L -127.343,-302.243
 L -127.461,-301.627 L -127.5,-301 L -127.5,-251 L -127.461,-250.373 L -127.343,-249.757 L -127.149,-249.159
 L -126.882,-248.591 L -126.545,-248.061 L -126.145,-247.577 L -125.687,-247.147 L -125.179,-246.778 L -124.629,-246.476
 L -124.045,-246.245 L -123.437,-246.089 L -122.814,-246.01 L 122.814,-246.01 z
M -122.493,-247.388 L -122.975,-247.449 L -123.446,-247.57 L -123.898,-247.749 L -124.323,-247.983 L -124.716,-248.269
 L -125.071,-248.601 L -125.38,-248.976 L -125.641,-249.386 L -125.848,-249.826 L -125.998,-250.288 L -126.089,-250.765
 L -126.119,-251.25 L -126.119,-300.75 L -126.089,-301.235 L -125.998,-301.712 L -125.848,-302.174 L -125.641,-302.614
 L -125.38,-303.024 L -125.071,-303.399 L -124.716,-303.731 L -124.323,-304.017 L -123.898,-304.251 L -123.446,-304.43
 L -122.975,-304.551 L -122.493,-304.612 L 122.493,-304.612 L 122.975,-304.551 L 123.446,-304.43 L 123.898,-304.251
 L 124.323,-304.017 L 124.716,-303.731 L 125.071,-303.399 L 125.38,-303.024 L 125.641,-302.614 L 125.848,-302.174
 L 125.998,-301.712 L 126.089,-301.235 L 126.119,-300.75 L 126.119,-251.25 L 126.089,-250.765 L 125.998,-250.288
 L 125.848,-249.826 L 125.641,-249.386 L 125.38,-248.976 L 125.071,-248.601 L 124.716,-248.269 L 124.323,-247.983
 L 123.898,-247.749 L 123.446,-247.57 L 122.975,-247.449 L 122.493,-247.388 z
M 123.437,-177.089 L 124.045,-177.245 L 124.629,-177.476 L 125.179,-177.778 L 125.687,-178.147 L 126.145,-178.577
 L 126.545,-179.061 L 126.882,-179.591 L 127.149,-180.159 L 127.343,-180.757 L 127.461,-181.373 L 127.5,-182
 L 127.5,-232 L 127.461,-232.627 L 127.343,-233.243 L 127.149,-233.841 L 126.882,-234.409 L 126.545,-234.939
 L 126.145,-235.423 L 125.687,-235.853 L 125.179,-236.222 L 124.629,-236.524 L 124.045,-236.755 L 123.437,-236.911
 L 122.814,-236.99 L -122.814,-236.99 L -123.437,-236.911 L -124.045,-236.755 L -124.629,-236.524 L -125.179,-236.222
 L -125.687,-235.853 L -126.145,-235.423 L -126.545,-234.939 L -126.882,-234.409 L -127.149,-233.841 L -127.343,-233.243
 L -127.461,-232.627 L -127.5,-232 L -127.5,-182 L -127.461,-181.373 L -127.343,-180.757 L -127.149,-180.159
 L -126.882,-179.591 L -126.545,-179.061 L -126.145,-178.577 L -125.687,-178.147 L -125.179,-177.778 L -124.629,-177.476
 L -124.045,-177.245 L -123.437,-177.089 L -122.814,-177.01 L 122.814,-177.01 z
M -120.113,-227.704 L -120.337,-227.732 L -120.556,-227.788 L -120.766,-227.871 L -120.964,-227.98 L -121.147,-228.113
 L -121.312,-228.268 L -121.456,-228.442 L -121.577,-228.633 L -121.674,-228.837 L -121.743,-229.052 L -121.786,-229.274
 L -121.8,-229.5 L -121.786,-229.726 L -121.743,-229.948 L -121.674,-230.163 L -121.577,-230.367 L -121.456,-230.558
 L -121.312,-230.732 L -121.147,-230.887 L -120.964,-231.02 L -120.766,-231.129 L -120.556,-231.212 L -120.337,-231.268
 L -120.113,-231.296 L -119.887,-231.296 L -119.663,-231.268 L -119.444,-231.212 L -119.234,-231.129 L -119.036,-231.02
 L -118.853,-230.887 L -118.688,-230.732 L -118.544,-230.558 L -118.423,-230.367 L -118.326,-230.163 L -118.257,-229.948
 L -118.214,-229.726 L -118.2,-229.5 L -118.214,-229.274 L -118.257,-229.052 L -118.326,-228.837 L -118.423,-228.633
 L -118.544,-228.442 L -118.688,-228.268 L -118.853,-228.113 L -119.036,-227.98 L -119.234,-227.871 L -119.444,-227.788
 L -119.663,-227.732 L -119.887,-227.704 z
M 119.887,-227.704 L 119.663,-227.732 L 119.444,-227.788 L 119.234,-227.871 L 119.036,-227.98 L 118.853,-228.113
 L 118.688,-228.268 L 118.544,-228.442 L 118.423,-228.633 L 118.326,-228.837 L 118.257,-229.052 L 118.214,-229.274
 L 118.2,-229.5 L 118.214,-229.726 L 118.257,-229.948 L 118.326,-230.163 L 118.423,-230.367 L 118.544,-230.558
 L 118.688,-230.732 L 118.853,-230.887 L 119.036,-231.02 L 119.234,-231.129 L 119.444,-231.212 L 119.663,-231.268
 L 119.887,-231.296 L 120.113,-231.296 L 120.337,-231.268 L 120.556,-231.212 L 120.766,-231.129 L 120.964,-231.02
 L 121.147,-230.887 L 121.312,-230.732 L 121.456,-230.558 L 121.577,-230.367 L 121.674,-230.163 L 121.743,-229.948
 L 121.786,-229.726 L 121.8,-229.5 L 121.786,-229.274 L 121.743,-229.052 L 121.674,-228.837 L 121.577,-228.633
 L 121.456,-228.442 L 121.312,-228.268 L 121.147,-228.113 L 120.964,-227.98 L 120.766,-227.871 L 120.556,-227.788
 L 120.337,-227.732 L 120.113,-227.704 z
M 119.887,-182.704 L 119.663,-182.732 L 119.444,-182.788 L 119.234,-182.871 L 119.036,-182.98 L 118.853,-183.113
 L 118.688,-183.268 L 118.544,-183.442 L 118.423,-183.633 L 118.326,-183.837 L 118.257,-184.052 L 118.214,-184.274
 L 118.2,-184.5 L 118.214,-184.726 L 118.257,-184.948 L 118.326,-185.163 L 118.423,-185.367 L 118.544,-185.558
 L 118.688,-185.732 L 118.853,-185.887 L 119.036,-186.02 L 119.234,-186.129 L 119.444,-186.212 L 119.663,-186.268
 L 119.887,-186.296 L 120.113,-186.296 L 120.337,-186.268 L 120.556,-186.212 L 120.766,-186.129 L 120.964,-186.02
 L 121.147,-185.887 L 121.312,-185.732 L 121.456,-185.558 L 121.577,-185.367 L 121.674,-185.163 L 121.743,-184.948
 L 121.786,-184.726 L 121.8,-184.5 L 121.786,-184.274 L 121.743,-184.052 L 121.674,-183.837 L 121.577,-183.633
 L 121.456,-183.442 L 121.312,-183.268 L 121.147,-183.113 L 120.964,-182.98 L 120.766,-182.871 L 120.556,-182.788
 L 120.337,-182.732 L 120.113,-182.704 z
M -120.113,-182.704 L -120.337,-182.732 L -120.556,-182.788 L -120.766,-182.871 L -120.964,-182.98 L -121.147,-183.113
 L -121.312,-183.268 L -121.456,-183.442 L -121.577,-183.633 L -121.674,-183.837 L -121.743,-184.052 L -121.786,-184.274
 L -121.8,-184.5 L -121.786,-184.726 L -121.743,-184.948 L -121.674,-185.163 L -121.577,-185.367 L -121.456,-185.558
 L -121.312,-185.732 L -121.147,-185.887 L -120.964,-186.02 L -120.766,-186.129 L -120.556,-186.212 L -120.337,-186.268
 L -120.113,-186.296 L -119.887,-186.296 L -119.663,-186.268 L -119.444,-186.212 L -119.234,-186.129 L -119.036,-186.02
 L -118.853,-185.887 L -118.688,-185.732 L -118.544,-185.558 L -118.423,-185.367 L -118.326,-185.163 L -118.257,-184.948
 L -118.214,-184.726 L -118.2,-184.5 L -118.214,-184.274 L -118.257,-184.052 L -118.326,-183.837 L -118.423,-183.633
 L -118.544,-183.442 L -118.688,-183.268 L -118.853,-183.113 L -119.036,-182.98 L -119.234,-182.871 L -119.444,-182.788
 L -119.663,-182.732 L -119.887,-182.704 z
" stroke="black" fill="lightgray" stroke-width="0.5"/>
</svg>
