<?xml version="1.0" standalone="no"?>
<!DOCTYPE svg PUBLIC "-//W3C//DTD SVG 1.1//EN" "http://www.w3.org/Graphics/SVG/1.1/DTD/svg11.dtd">
<svg width="240mm" height="568mm" viewBox="-120 -1076 240 568" xmlns="http://www.w3.org/2000/svg" version="1.1">
<title>OpenSCAD Model</title>
<path d="
M 115.937,-940.589 L 116.545,-940.745 L 117.129,-940.976 L 117.679,-941.278 L 118.187,-941.647 L 118.645,-942.077
 L 119.045,-942.561 L 119.382,-943.091 L 119.649,-943.659 L 119.843,-944.257 L 119.961,-944.873 L 120,-945.5
 L 120,-1070.5 L 119.961,-1071.13 L 119.843,-1071.74 L 119.649,-1072.34 L 119.382,-1072.91 L 119.045,-1073.44
 L 118.645,-1073.92 L 118.187,-1074.35 L 117.679,-1074.72 L 117.129,-1075.02 L 116.545,-1075.26 L 115.937,-1075.41
 L 115.314,-1075.49 L -115.314,-1075.49 L -115.937,-1075.41 L -116.545,-1075.26 L -117.129,-1075.02 L -117.679,-1074.72
 L -118.187,-1074.35 L -118.645,-1073.92 L -119.045,-1073.44 L -119.382,-1072.91 L -119.649,-1072.34 L -119.843,-1071.74
 L -119.961,-1071.13 L -120,-1070.5 L -120,-945.5 L -119.961,-944.873 L -119.843,-944.257 L -119.649,-943.659
 L -119.382,-943.091 L -119.045,-942.561 L -118.645,-942.077 L -118.187,-941.647 L -117.679,-941.278 L -117.129,-940.976
 L -116.545,-940.745 L -115.937,-940.589 L -115.314,-940.51 L 115.314,-940.51 z
M -115.048,-941.009 L -115.64,-941.084 L -116.218,-941.232 L -116.772,-941.452 L -117.295,-941.739 L -117.778,-942.09
 L -118.213,-942.498 L -118.593,-942.958 L -118.912,-943.462 L -119.166,-944.001 L -119.351,-944.569 L -119.463,-945.155
 L -119.5,-945.75 L -119.5,-1070.25 L -119.463,-1070.85 L -119.351,-1071.43 L -119.166,-1072 L -118.912,-1072.54
 L -118.593,-1073.04 L -118.213,-1073.5 L -117.778,-1073.91 L -117.295,-1074.26 L -116.772,-1074.55 L -116.218,-1074.77
 L -115.64,-1074.92 L -115.048,-1074.99 L 115.048,-1074.99 L 115.64,-1074.92 L 116.218,-1074.77 L 116.772,-1074.55
 L 117.295,-1074.26 L 117.778,-1073.91 L 118.213,-1073.5 L 118.593,-1073.04 L 118.912,-1072.54 L 119.166,-1072
 L 119.351,-1071.43 L 119.463,-1070.85 L 119.5,-1070.25 L 119.5,-945.75 L 119.463,-945.155 L 119.351,-944.569
 L 119.166,-944.001 L 118.912,-943.462 L 118.593,-942.958 L 118.213,-942.498 L 117.778,-942.09 L 117.295,-941.739
 L 116.772,-941.452 L 116.218,-941.232 L 115.64,-941.084 L 115.048,-941.009 z
M 115.937,-796.589 L 116.545,-796.745 L 117.129,-796.976 L 117.679,-797.278 L 118.187,-797.647 L 118.645,-798.077
 L 119.045,-798.561 L 119.382,-799.091 L 119.649,-799.659 L 119.843,-800.257 L 119.961,-800.873 L 120,-801.5
 L 120,-926.5 L 119.961,-927.127 L 119.843,-927.743 L 119.649,-928.341 L 119.382,-928.909 L 119.045,-929.439
 L 118.645,-929.923 L 118.187,-930.353 L 117.679,-930.722 L 117.129,-931.024 L 116.545,-931.255 L 115.937,-931.411
 L 115.314,-931.49 L -115.314,-931.49 L -115.937,-931.411 L -116.545,-931.255 L -117.129,-931.024 L -117.679,-930.722
 L -118.187,-930.353 L -118.645,-929.923 L -119.045,-929.439 L -119.382,-928.909 L -119.649,-928.341 L -119.843,-927.743
 L -119.961,-927.127 L -120,-926.5 L -120,-801.5 L -119.961,-800.873 L -119.843,-800.257 L -119.649,-799.659
 L -119.382,-799.091 L -119.045,-798.561 L -118.645,-798.077 L -118.187,-797.647 L -117.679,-797.278 L -117.129,-796.976
 L -116.545,-796.745 L -115.937,-796.589 L -115.314,-796.51 L 115.314,-796.51 z
M -115.048,-797.009 L -115.64,-797.084 L -116.218,-797.232 L -116.772,-797.452 L -117.295,-797.739 L -117.778,-798.09
 L -118.213,-798.498 L -118.593,-798.958 L -118.912,-799.462 L -119.166,-800.001 L -119.351,-800.569 L -119.463,-801.155
 L -119.5,-801.75 L -119.5,-926.25 L -119.463,-926.845 L -119.351,-927.431 L -119.166,-927.999 L -118.912,-928.538
 L -118.593,-929.042 L -118.213,-929.502 L -117.778,-929.91 L -117.295,-930.261 L -116.772,-930.548 L -116.218,-930.768
 L -115.64,-930.916 L -115.048,-930.991 L 115.048,-930.991 L 115.64,-930.916 L 116.218,-930.768 L 116.772,-930.548
 L 117.295,-930.261 L 117.778,-929.91 L 118.213,-929.502 L 118.593,-929.042 L 118.912,-928.538 L 119.166,-927.999
 L 119.351,-927.431 L 119.463,-926.845 L 119.5,-926.25 L 119.5,-801.75 L 119.463,-801.155 L 119.351,-800.569
 L 119.166,-800.001 L 118.912,-799.462 L 118.593,-798.958 L 118.213,-798.498 L 117.778,-798.09 L 117.295,-797.739
 L 116.772,-797.452 L 116.218,-797.232 L 115.64,-797.084 L 115.048,-797.009 z
M 115.937,-652.589 L 116.545,-652.745 L 117.129,-652.976 L 117.679,-653.278 L 118.187,-653.647 L 118.645,-654.077
 L 119.045,-654.561 L 119.382,-655.091 L 119.649,-655.659 L 119.843,-656.257 L 119.961,-656.873 L 120,-657.5
 L 120,-782.5 L 119.961,-783.127 L 119.843,-783.743 L 119.649,-784.341 L 119.382,-784.909 L 119.045,-785.439
 L 118.645,-785.923 L 118.187,-786.353 L 117.679,-786.722 L 117.129,-787.024 L 116.545,-787.255 L 115.937,-787.411
 L 115.314,-787.49 L -115.314,-787.49 L -115.937,-787.411 L -116.545,-787.255 L -117.129,-787.024 L -117.679,-786.722
 L -118.187,-786.353 L -118.645,-785.923 L -119.045,-785.439 L -119.382,-784.909 L -119.649,-784.341 L -119.843,-783.743
 L -119.961,-783.127 L -120,-782.5 L -120,-657.5 L -119.961,-656.873 L -119.843,-656.257 L -119.649,-655.659
 L -119.382,-655.091 L -119.045,-654.561 L -118.645,-654.077 L -118.187,-653.647 L -117.679,-653.278 L -117.129,-652.976
 L -116.545,-652.745 L -115.937,-652.589 L -115.314,-652.51 L 115.314,-652.51 z
M -115.037,-653.181 L -115.608,-653.253 L -116.165,-653.396 L -116.699,-653.607 L -117.203,-653.884 L -117.668,-654.222
 L -118.088,-654.616 L -118.454,-655.059 L -118.762,-655.544 L -119.007,-656.065 L -119.185,-656.611 L -119.292,-657.176
 L -119.328,-657.75 L -119.328,-782.25 L -119.292,-782.824 L -119.185,-783.389 L -119.007,-783.935 L -118.762,-784.456
 L -118.454,-784.941 L -118.088,-785.384 L -117.668,-785.778 L -117.203,-786.116 L -116.699,-786.393 L -116.165,-786.604
 L -115.608,-786.747 L -115.037,-786.819 L 115.037,-786.819 L 115.608,-786.747 L 116.165,-786.604 L 116.699,-786.393
 L 117.203,-786.116 L 117.668,-785.778 L 118.088,-785.384 L 118.454,-784.941 L 118.762,-784.456 L 119.007,-783.935
 L 119.185,-783.389 L 119.292,-782.824 L 119.328,-782.25 L 119.328,-657.75 L 119.292,-657.176 L 119.185,-656.611
 L 119.007,-656.065 L 118.762,-655.544 L 118.454,-655.059 L 118.088,-654.616 L 117.668,-654.222 L 117.203,-653.884
 L 116.699,-653.607 L 116.165,-653.396 L 115.608,-653.253 L 115.037,-653.181 z
M 115.937,-508.589 L 116.545,-508.745 L 117.129,-508.976 L 117.679,-509.278 L 118.187,-509.647 L 118.645,-510.077
 L 119.045,-510.561 L 119.382,-511.091 L 119.649,-511.659 L 119.843,-512.257 L 119.961,-512.873 L 120,-513.5
 L 120,-638.5 L 119.961,-639.127 L 119.843,-639.743 L 119.649,-640.341 L 119.382,-640.909 L 119.045,-641.439
 L 118.645,-641.923 L 118.187,-642.353 L 117.679,-642.722 L 117.129,-643.024 L 116.545,-643.255 L 115.937,-643.411
 L 115.314,-643.49 L -115.314,-643.49 L -115.937,-643.411 L -116.545,-643.255 L -117.129,-643.024 L -117.679,-642.722
 L -118.187,-642.353 L -118.645,-641.923 L -119.045,-641.439 L -119.382,-640.909 L -119.649,-640.341 L -119.843,-639.743
 L -119.961,-639.127 L -120,-638.5 L -120,-513.5 L -119.961,-512.873 L -119.843,-512.257 L -119.649,-511.659
 L -119.382,-511.091 L -119.045,-510.561 L -118.645,-510.077 L -118.187,-509.647 L -117.679,-509.278 L -117.129,-508.976
 L -116.545,-508.745 L -115.937,-508.589 L -115.314,-508.51 L 115.314,-508.51 z
M -114.882,-511.645 L -115.145,-511.678 L -115.402,-511.744 L -115.648,-511.841 L -115.88,-511.969 L -116.095,-512.125
 L -116.288,-512.306 L -116.457,-512.51 L -116.599,-512.734 L -116.711,-512.973 L -116.793,-513.225 L -116.843,-513.486
 L -116.86,-513.75 L -116.86,-638.25 L -116.843,-638.514 L -116.793,-638.775 L -116.711,-639.027 L -116.599,-639.266
 L -116.457,-639.49 L -116.288,-639.694 L -116.095,-639.875 L -115.88,-640.031 L -115.648,-640.159 L -115.402,-640.256
 L -115.145,-640.322 L -114.882,-640.355 L 114.882,-640.355 L 115.145,-640.322 L 115.402,-640.256 L 115.648,-640.159
 L 115.88,-640.031 L 116.095,-639.875 L 116.288,-639.694 L 116.457,-639.49 L 116.599,-639.266 L 116.711,-639.027
 L 116.793,-638.775 L 116.843,-638.514 L 116.86,-638.25 L 116.86,-513.75 L 116.843,-513.486 L 116.793,-513.225
 L 116.711,-512.973 L 116.599,-512.734 L 116.457,-512.51 L 116.288,-512.306 L 116.095,-512.125 L 115.88,-511.969
 L 115.648,-511.841 L 115.402,-511.744 L 115.145,-511.678 L 114.882,-511.645 z
" stroke="black" fill="lightgray" stroke-width="0.5"/>
</svg>
