<?xml version="1.0" standalone="no"?>
<!DOCTYPE svg PUBLIC "-//W3C//DTD SVG 1.1//EN" "http://www.w3.org/Graphics/SVG/1.1/DTD/svg11.dtd">
<svg width="24mm" height="186mm" viewBox="-12 -174 24 186" xmlns="http://www.w3.org/2000/svg" version="1.1">
<title>OpenSCAD Model</title>
<path d="
M 2.10803,-150.949 L 3.47644,-151.301 L 4.79001,-151.821 L 6.02805,-152.501 L 7.17101,-153.332 L 8.20088,-154.299
 L 9.10144,-155.387 L 9.85844,-156.58 L 10.46,-157.859 L 10.8965,-159.202 L 11.1613,-160.59 L 11.25,-162
 L 9,-162 L 8.98816,-161.812 L 8.95287,-161.627 L 8.89465,-161.448 L 8.81445,-161.277 L 8.71352,-161.118
 L 8.59344,-160.973 L 8.45613,-160.844 L 8.30373,-160.734 L 8.13866,-160.643 L 7.96352,-160.573 L 7.78107,-160.527
 L 7.59418,-160.503 L 7.40581,-160.503 L 7.21892,-160.527 L 7.03647,-160.573 L 6.86133,-160.643 L 6.69626,-160.734
 L 6.54385,-160.844 L 6.40654,-160.973 L 6.28647,-161.118 L 6.18553,-161.277 L 6.10533,-161.448 L 6.04712,-161.627
 L 6.01183,-161.812 L 6,-162 L 3,-162 L 2.97633,-161.624 L 2.90575,-161.254 L 2.78932,-160.896
 L 2.62891,-160.555 L 2.42705,-160.237 L 2.1869,-159.946 L 1.91226,-159.688 L 1.60747,-159.467 L 1.27733,-159.286
 L 0.927048,-159.147 L 0.562134,-159.053 L 0.18837,-159.006 L -0.18837,-159.006 L -0.562134,-159.053 L -0.927048,-159.147
 L -1.27733,-159.286 L -1.60747,-159.467 L -1.91226,-159.688 L -2.1869,-159.946 L -2.42705,-160.237 L -2.62891,-160.555
 L -2.78932,-160.896 L -2.90575,-161.254 L -2.97633,-161.624 L -3,-162 L -2.97633,-162.376 L -2.90575,-162.746
 L -2.78932,-163.104 L -2.62891,-163.445 L -2.42705,-163.763 L -2.1869,-164.054 L -1.91226,-164.312 L -1.60747,-164.533
 L -1.27733,-164.714 L -0.927048,-164.853 L -0.562134,-164.947 L -0.18837,-164.994 L 0,-164.994 L 0,-173.228
 L -0.70639,-173.228 L -2.10803,-173.051 L -3.47644,-172.699 L -4.79001,-172.179 L -6.02805,-171.499 L -7.17101,-170.668
 L -8.20088,-169.701 L -9.10144,-168.613 L -9.85844,-167.42 L -10.46,-166.141 L -10.8965,-164.798 L -11.1613,-163.41
 L -11.25,-162 L -11.1613,-160.59 L -10.8965,-159.202 L -10.46,-157.859 L -9.85844,-156.58 L -9.10144,-155.387
 L -8.20088,-154.299 L -7.17101,-153.332 L -6.02805,-152.501 L -4.79001,-151.821 L -3.47644,-151.301 L -2.10803,-150.949
 L -0.70639,-150.772 L 0.70639,-150.772 z
M -7.59418,-160.503 L -7.78107,-160.527 L -7.96352,-160.573 L -8.13866,-160.643 L -8.30373,-160.734 L -8.45613,-160.844
 L -8.59344,-160.973 L -8.71352,-161.118 L -8.81445,-161.277 L -8.89465,-161.448 L -8.95287,-161.627 L -8.98816,-161.812
 L -9,-162 L -8.98816,-162.188 L -8.95287,-162.373 L -8.89465,-162.552 L -8.81445,-162.723 L -8.71352,-162.882
 L -8.59344,-163.027 L -8.45613,-163.156 L -8.30373,-163.266 L -8.13866,-163.357 L -7.96352,-163.427 L -7.78107,-163.473
 L -7.59418,-163.497 L -7.40581,-163.497 L -7.21892,-163.473 L -7.03647,-163.427 L -6.86133,-163.357 L -6.69626,-163.266
 L -6.54385,-163.156 L -6.40654,-163.027 L -6.28647,-162.882 L -6.18553,-162.723 L -6.10533,-162.552 L -6.04712,-162.373
 L -6.01183,-162.188 L -6,-162 L -6.01183,-161.812 L -6.04712,-161.627 L -6.10533,-161.448 L -6.18553,-161.277
 L -6.28647,-161.118 L -6.40654,-160.973 L -6.54385,-160.844 L -6.69626,-160.734 L -6.86133,-160.643 L -7.03647,-160.573
 L -7.21892,-160.527 L -7.40581,-160.503 z
M 1.87381,-98.1771 L 3.09016,-98.4894 L 4.25778,-98.9517 L 5.35826,-99.5567 L 6.37424,-100.295 L 7.28967,-101.155
 L 8.09016,-102.122 L 8.76306,-103.182 L 9.29776,-104.319 L 9.68582,-105.513 L 9.92114,-106.747 L 10,-108
 L 9,-108 L 8.98816,-107.812 L 8.95287,-107.627 L 8.89465,-107.448 L 8.81445,-107.277 L 8.71352,-107.118
 L 8.59344,-106.973 L 8.45613,-106.844 L 8.30373,-106.734 L 8.13866,-106.643 L 7.96352,-106.573 L 7.78107,-106.527
 L 7.59418,-106.503 L 7.40581,-106.503 L 7.21892,-106.527 L 7.03647,-106.573 L 6.86133,-106.643 L 6.69626,-106.734
 L 6.54385,-106.844 L 6.40654,-106.973 L 6.28647,-107.118 L 6.18553,-107.277 L 6.10533,-107.448 L 6.04712,-107.627
 L 6.01183,-107.812 L 6,-108 L 3,-108 L 2.97633,-107.624 L 2.90575,-107.254 L 2.78932,-106.896
 L 2.62891,-106.555 L 2.42705,-106.237 L 2.1869,-105.946 L 1.91226,-105.688 L 1.60747,-105.467 L 1.27733,-105.286
 L 0.927048,-105.147 L 0.562134,-105.053 L 0.18837,-105.006 L -0.18837,-105.006 L -0.562134,-105.053 L -0.927048,-105.147
 L -1.27733,-105.286 L -1.60747,-105.467 L -1.91226,-105.688 L -2.1869,-105.946 L -2.42705,-106.237 L -2.62891,-106.555
 L -2.78932,-106.896 L -2.90575,-107.254 L -2.97633,-107.624 L -3,-108 L -2.97633,-108.376 L -2.90575,-108.746
 L -2.78932,-109.104 L -2.62891,-109.445 L -2.42705,-109.763 L -2.1869,-110.054 L -1.91226,-110.312 L -1.60747,-110.533
 L -1.27733,-110.714 L -0.927048,-110.853 L -0.562134,-110.947 L -0.18837,-110.994 L 0,-110.994 L 0,-117.98
 L -0.627899,-117.98 L -1.87381,-117.823 L -3.09016,-117.511 L -4.25778,-117.048 L -5.35826,-116.443 L -6.37424,-115.705
 L -7.28967,-114.845 L -8.09016,-113.878 L -8.76306,-112.818 L -9.29776,-111.681 L -9.68582,-110.487 L -9.92114,-109.253
 L -10,-108 L -9.92114,-106.747 L -9.68582,-105.513 L -9.29776,-104.319 L -8.76306,-103.182 L -8.09016,-102.122
 L -7.28967,-101.155 L -6.37424,-100.295 L -5.35826,-99.5567 L -4.25778,-98.9517 L -3.09016,-98.4894 L -1.87381,-98.1771
 L -0.627899,-98.0197 L 0.627899,-98.0197 z
M -7.59418,-106.503 L -7.78107,-106.527 L -7.96352,-106.573 L -8.13866,-106.643 L -8.30373,-106.734 L -8.45613,-106.844
 L -8.59344,-106.973 L -8.71352,-107.118 L -8.81445,-107.277 L -8.89465,-107.448 L -8.95287,-107.627 L -8.98816,-107.812
 L -9,-108 L -8.98816,-108.188 L -8.95287,-108.373 L -8.89465,-108.552 L -8.81445,-108.723 L -8.71352,-108.882
 L -8.59344,-109.027 L -8.45613,-109.156 L -8.30373,-109.266 L -8.13866,-109.357 L -7.96352,-109.427 L -7.78107,-109.473
 L -7.59418,-109.497 L -7.40581,-109.497 L -7.21892,-109.473 L -7.03647,-109.427 L -6.86133,-109.357 L -6.69626,-109.266
 L -6.54385,-109.156 L -6.40654,-109.027 L -6.28647,-108.882 L -6.18553,-108.723 L -6.10533,-108.552 L -6.04712,-108.373
 L -6.01183,-108.188 L -6,-108 L -6.01183,-107.812 L -6.04712,-107.627 L -6.10533,-107.448 L -6.18553,-107.277
 L -6.28647,-107.118 L -6.40654,-106.973 L -6.54385,-106.844 L -6.69626,-106.734 L -6.86133,-106.643 L -7.03647,-106.573
 L -7.21892,-106.527 L -7.40581,-106.503 z
M 1.87381,-44.1771 L 3.09016,-44.4894 L 4.25778,-44.9517 L 5.35826,-45.5567 L 6.37424,-46.2949 L 7.28967,-47.1545
 L 8.09016,-48.1222 L 8.76306,-49.1825 L 9.29776,-50.3188 L 9.68582,-51.5131 L 9.92114,-52.7467 L 10,-54
 L 9.92114,-55.2533 L 9.68582,-56.4869 L 9.29776,-57.6812 L 8.76306,-58.8175 L 8.09016,-59.8778 L 7.28967,-60.8455
 L 6.37424,-61.7051 L 5.35826,-62.4433 L 4.25778,-63.0483 L 3.09016,-63.5106 L 1.87381,-63.8229 L 0.627899,-63.9803
 L -0.627899,-63.9803 L -1.87381,-63.8229 L -3.09016,-63.5106 L -4.25778,-63.0483 L -5.35826,-62.4433 L -6.37424,-61.7051
 L -7.28967,-60.8455 L -8.09016,-59.8778 L -8.76306,-58.8175 L -9.29776,-57.6812 L -9.68582,-56.4869 L -9.92114,-55.2533
 L -10,-54 L -9.92114,-52.7467 L -9.68582,-51.5131 L -9.29776,-50.3188 L -8.76306,-49.1825 L -8.09016,-48.1222
 L -7.28967,-47.1545 L -6.37424,-46.2949 L -5.35826,-45.5567 L -4.25778,-44.9517 L -3.09016,-44.4894 L -1.87381,-44.1771
 L -0.627899,-44.0197 L 0.627899,-44.0197 z
M -0.18837,-51.0059 L -0.562134,-51.0531 L -0.927048,-51.1468 L -1.27733,-51.2855 L -1.60747,-51.467 L -1.91226,-51.6885
 L -2.1869,-51.9464 L -2.42705,-52.2366 L -2.62891,-52.5547 L -2.78932,-52.8956 L -2.90575,-53.2539 L -2.97633,-53.624
 L -3,-54 L -2.97633,-54.376 L -2.90575,-54.7461 L -2.78932,-55.1044 L -2.62891,-55.4453 L -2.42705,-55.7634
 L -2.1869,-56.0536 L -1.91226,-56.3115 L -1.60747,-56.533 L -1.27733,-56.7145 L -0.927048,-56.8532 L -0.562134,-56.9469
 L -0.18837,-56.9941 L 0.18837,-56.9941 L 0.562134,-56.9469 L 0.927048,-56.8532 L 1.27733,-56.7145 L 1.60747,-56.533
 L 1.91226,-56.3115 L 2.1869,-56.0536 L 2.42705,-55.7634 L 2.62891,-55.4453 L 2.78932,-55.1044 L 2.90575,-54.7461
 L 2.97633,-54.376 L 3,-54 L 2.97633,-53.624 L 2.90575,-53.2539 L 2.78932,-52.8956 L 2.62891,-52.5547
 L 2.42705,-52.2366 L 2.1869,-51.9464 L 1.91226,-51.6885 L 1.60747,-51.467 L 1.27733,-51.2855 L 0.927048,-51.1468
 L 0.562134,-51.0531 L 0.18837,-51.0059 z
M 7.38069,-52.1038 L 7.14397,-52.1337 L 6.91286,-52.193 L 6.69101,-52.2808 L 6.48192,-52.3958 L 6.28888,-52.536
 L 6.11494,-52.6994 L 5.96286,-52.8832 L 5.83501,-53.0847 L 5.73341,-53.3006 L 5.65968,-53.5275 L 5.61497,-53.7619
 L 5.59999,-54 L 5.61497,-54.2381 L 5.65968,-54.4725 L 5.73341,-54.6994 L 5.83501,-54.9153 L 5.96286,-55.1168
 L 6.11494,-55.3006 L 6.28888,-55.464 L 6.48192,-55.6042 L 6.69101,-55.7192 L 6.91286,-55.807 L 7.14397,-55.8663
 L 7.38069,-55.8962 L 7.61929,-55.8962 L 7.85602,-55.8663 L 8.08713,-55.807 L 8.30898,-55.7192 L 8.51807,-55.6042
 L 8.71111,-55.464 L 8.88504,-55.3006 L 9.03712,-55.1168 L 9.16498,-54.9153 L 9.26657,-54.6994 L 9.3403,-54.4725
 L 9.38501,-54.2381 L 9.39999,-54 L 9.38501,-53.7619 L 9.3403,-53.5275 L 9.26657,-53.3006 L 9.16498,-53.0847
 L 9.03712,-52.8832 L 8.88504,-52.6994 L 8.71111,-52.536 L 8.51807,-52.3958 L 8.30898,-52.2808 L 8.08713,-52.193
 L 7.85602,-52.1337 L 7.61929,-52.1038 z
M -7.61929,-52.1038 L -7.85602,-52.1337 L -8.08713,-52.193 L -8.30898,-52.2808 L -8.51807,-52.3958 L -8.71111,-52.536
 L -8.88504,-52.6994 L -9.03712,-52.8832 L -9.16498,-53.0847 L -9.26657,-53.3006 L -9.3403,-53.5275 L -9.38501,-53.7619
 L -9.39999,-54 L -9.38501,-54.2381 L -9.3403,-54.4725 L -9.26657,-54.6994 L -9.16498,-54.9153 L -9.03712,-55.1168
 L -8.88504,-55.3006 L -8.71111,-55.464 L -8.51807,-55.6042 L -8.30898,-55.7192 L -8.08713,-55.807 L -7.85602,-55.8663
 L -7.61929,-55.8962 L -7.38069,-55.8962 L -7.14397,-55.8663 L -6.91286,-55.807 L -6.69101,-55.7192 L -6.48192,-55.6042
 L -6.28888,-55.464 L -6.11494,-55.3006 L -5.96286,-55.1168 L -5.83501,-54.9153 L -5.73341,-54.6994 L -5.65968,-54.4725
 L -5.61497,-54.2381 L -5.59999,-54 L -5.61497,-53.7619 L -5.65968,-53.5275 L -5.73341,-53.3006 L -5.83501,-53.0847
 L -5.96286,-52.8832 L -6.11494,-52.6994 L -6.28888,-52.536 L -6.48192,-52.3958 L -6.69101,-52.2808 L -6.91286,-52.193
 L -7.14397,-52.1337 L -7.38069,-52.1038 z
M 2.10803,11.0507 L 3.47644,10.6994 L 4.79001,10.1793 L 6.02805,9.49869 L 7.17101,8.66827 L 8.20088,7.70114
 L 9.10144,6.61258 L 9.85844,5.41972 L 10.46,4.14139 L 10.8965,2.79776 L 11.1613,1.40999 L 11.25,-0
 L 11.1613,-1.40999 L 10.8965,-2.79776 L 10.46,-4.14139 L 9.85844,-5.41972 L 9.10144,-6.61258 L 8.20088,-7.70114
 L 7.17101,-8.66827 L 6.02805,-9.49869 L 4.79001,-10.1793 L 3.47644,-10.6994 L 2.10803,-11.0507 L 0.70639,-11.2278
 L -0.70639,-11.2278 L -2.10803,-11.0507 L -3.47644,-10.6994 L -4.79001,-10.1793 L -6.02805,-9.49869 L -7.17101,-8.66827
 L -8.20088,-7.70114 L -9.10144,-6.61258 L -9.85844,-5.41972 L -10.46,-4.14139 L -10.8965,-2.79776 L -11.1613,-1.40999
 L -11.25,-0 L -11.1613,1.40999 L -10.8965,2.79776 L -10.46,4.14139 L -9.85844,5.41972 L -9.10144,6.61258
 L -8.20088,7.70114 L -7.17101,8.66827 L -6.02805,9.49869 L -4.79001,10.1793 L -3.47644,10.6994 L -2.10803,11.0507
 L -0.70639,11.2278 L 0.70639,11.2278 z
M -0.18837,2.99408 L -0.562134,2.94685 L -0.927048,2.85316 L -1.27733,2.71448 L -1.60747,2.53297 L -1.91226,2.31154
 L -2.1869,2.05363 L -2.42705,1.76335 L -2.62891,1.44525 L -2.78932,1.10437 L -2.90575,0.746063 L -2.97633,0.375992
 L -3,-0 L -2.97633,-0.375992 L -2.90575,-0.746063 L -2.78932,-1.10437 L -2.62891,-1.44525 L -2.42705,-1.76335
 L -2.1869,-2.05363 L -1.91226,-2.31154 L -1.60747,-2.53297 L -1.27733,-2.71448 L -0.927048,-2.85316 L -0.562134,-2.94685
 L -0.18837,-2.99408 L 0.18837,-2.99408 L 0.562134,-2.94685 L 0.927048,-2.85316 L 1.27733,-2.71448 L 1.60747,-2.53297
 L 1.91226,-2.31154 L 2.1869,-2.05363 L 2.42705,-1.76335 L 2.62891,-1.44525 L 2.78932,-1.10437 L 2.90575,-0.746063
 L 2.97633,-0.375992 L 3,-0 L 2.97633,0.375992 L 2.90575,0.746063 L 2.78932,1.10437 L 2.62891,1.44525
 L 2.42705,1.76335 L 2.1869,2.05363 L 1.91226,2.31154 L 1.60747,2.53297 L 1.27733,2.71448 L 0.927048,2.85316
 L 0.562134,2.94685 L 0.18837,2.99408 z
M 7.38069,1.89624 L 7.14397,1.86633 L 6.91286,1.80701 L 6.69101,1.71916 L 6.48192,1.60422 L 6.28888,1.46397
 L 6.11494,1.30063 L 5.96286,1.11679 L 5.83501,0.915329 L 5.73341,0.699432 L 5.65968,0.472504 L 5.61497,0.238129
 L 5.59999,-0 L 5.61497,-0.238129 L 5.65968,-0.472504 L 5.73341,-0.699432 L 5.83501,-0.915329 L 5.96286,-1.11679
 L 6.11494,-1.30063 L 6.28888,-1.46397 L 6.48192,-1.60422 L 6.69101,-1.71916 L 6.91286,-1.80701 L 7.14397,-1.86633
 L 7.38069,-1.89624 L 7.61929,-1.89624 L 7.85602,-1.86633 L 8.08713,-1.80701 L 8.30898,-1.71916 L 8.51807,-1.60422
 L 8.71111,-1.46397 L 8.88504,-1.30063 L 9.03712,-1.11679 L 9.16498,-0.915329 L 9.26657,-0.699432 L 9.3403,-0.472504
 L 9.38501,-0.238129 L 9.39999,-0 L 9.38501,0.238129 L 9.3403,0.472504 L 9.26657,0.699432 L 9.16498,0.915329
 L 9.03712,1.11679 L 8.88504,1.30063 L 8.71111,1.46397 L 8.51807,1.60422 L 8.30898,1.71916 L 8.08713,1.80701
 L 7.85602,1.86633 L 7.61929,1.89624 z
M -7.61929,1.89624 L -7.85602,1.86633 L -8.08713,1.80701 L -8.30898,1.71916 L -8.51807,1.60422 L -8.71111,1.46397
 L -8.88504,1.30063 L -9.03712,1.11679 L -9.16498,0.915329 L -9.26657,0.699432 L -9.3403,0.472504 L -9.38501,0.238129
 L -9.39999,-0 L -9.38501,-0.238129 L -9.3403,-0.472504 L -9.26657,-0.699432 L -9.16498,-0.915329 L -9.03712,-1.11679
 L -8.88504,-1.30063 L -8.71111,-1.46397 L -8.51807,-1.60422 L -8.30898,-1.71916 L -8.08713,-1.80701 L -7.85602,-1.86633
 L -7.61929,-1.89624 L -7.38069,-1.89624 L -7.14397,-1.86633 L -6.91286,-1.80701 L -6.69101,-1.71916 L -6.48192,-1.60422
 L -6.28888,-1.46397 L -6.11494,-1.30063 L -5.96286,-1.11679 L -5.83501,-0.915329 L -5.73341,-0.699432 L -5.65968,-0.472504
 L -5.61497,-0.238129 L -5.59999,-0 L -5.61497,0.238129 L -5.65968,0.472504 L -5.73341,0.699432 L -5.83501,0.915329
 L -5.96286,1.11679 L -6.11494,1.30063 L -6.28888,1.46397 L -6.48192,1.60422 L -6.69101,1.71916 L -6.91286,1.80701
 L -7.14397,1.86633 L -7.38069,1.89624 z
" stroke="black" fill="lightgray" stroke-width="0.5"/>
</svg>
