<?xml version="1.0" standalone="no"?>
<!DOCTYPE svg PUBLIC "-//W3C//DTD SVG 1.1//EN" "http://www.w3.org/Graphics/SVG/1.1/DTD/svg11.dtd">
<svg width="300mm" height="532mm" viewBox="-150 -1049 300 532" xmlns="http://www.w3.org/2000/svg" version="1.1">
<title>OpenSCAD Model</title>
<path d="
M 145.937,-1003.59 L 146.545,-1003.74 L 147.129,-1003.98 L 147.679,-1004.28 L 148.187,-1004.65 L 148.645,-1005.08
 L 149.045,-1005.56 L 149.382,-1006.09 L 149.649,-1006.66 L 149.843,-1007.26 L 149.961,-1007.87 L 150,-1008.5
 L 150,-1043.5 L 149.961,-1044.13 L 149.843,-1044.74 L 149.649,-1045.34 L 149.382,-1045.91 L 149.045,-1046.44
 L 148.645,-1046.92 L 148.187,-1047.35 L 147.679,-1047.72 L 147.129,-1048.02 L 146.545,-1048.26 L 145.937,-1048.41
 L 145.314,-1048.49 L -145.314,-1048.49 L -145.937,-1048.41 L -146.545,-1048.26 L -147.129,-1048.02 L -147.679,-1047.72
 L -148.187,-1047.35 L -148.645,-1046.92 L -149.045,-1046.44 L -149.382,-1045.91 L -149.649,-1045.34 L -149.843,-1044.74
 L -149.961,-1044.13 L -150,-1043.5 L -150,-1008.5 L -149.961,-1007.87 L -149.843,-1007.26 L -149.649,-1006.66
 L -149.382,-1006.09 L -149.045,-1005.56 L -148.645,-1005.08 L -148.187,-1004.65 L -147.679,-1004.28 L -147.129,-1003.98
 L -146.545,-1003.74 L -145.937,-1003.59 L -145.314,-1003.51 L 145.314,-1003.51 z
M -145.048,-1004.01 L -145.64,-1004.08 L -146.218,-1004.23 L -146.772,-1004.45 L -147.295,-1004.74 L -147.778,-1005.09
 L -148.213,-1005.5 L -148.593,-1005.96 L -148.912,-1006.46 L -149.166,-1007 L -149.351,-1007.57 L -149.463,-1008.15
 L -149.5,-1008.75 L -149.5,-1043.25 L -149.463,-1043.85 L -149.351,-1044.43 L -149.166,-1045 L -148.912,-1045.54
 L -148.593,-1046.04 L -148.213,-1046.5 L -147.778,-1046.91 L -147.295,-1047.26 L -146.772,-1047.55 L -146.218,-1047.77
 L -145.64,-1047.92 L -145.048,-1047.99 L 145.048,-1047.99 L 145.64,-1047.92 L 146.218,-1047.77 L 146.772,-1047.55
 L 147.295,-1047.26 L 147.778,-1046.91 L 148.213,-1046.5 L 148.593,-1046.04 L 148.912,-1045.54 L 149.166,-1045
 L 149.351,-1044.43 L 149.463,-1043.85 L 149.5,-1043.25 L 149.5,-1008.75 L 149.463,-1008.15 L 149.351,-1007.57
 L 149.166,-1007 L 148.912,-1006.46 L 148.593,-1005.96 L 148.213,-1005.5 L 147.778,-1005.09 L 147.295,-1004.74
 L 146.772,-1004.45 L 146.218,-1004.23 L 145.64,-1004.08 L 145.048,-1004.01 z
M 145.937,-949.589 L 146.545,-949.745 L 147.129,-949.976 L 147.679,-950.278 L 148.187,-950.647 L 148.645,-951.077
 L 149.045,-951.561 L 149.382,-952.091 L 149.649,-952.659 L 149.843,-953.257 L 149.961,-953.873 L 150,-954.5
 L 150,-989.5 L 149.961,-990.127 L 149.843,-990.743 L 149.649,-991.341 L 149.382,-991.909 L 149.045,-992.439
 L 148.645,-992.923 L 148.187,-993.353 L 147.679,-993.722 L 147.129,-994.024 L 146.545,-994.255 L 145.937,-994.411
 L 145.314,-994.49 L -145.314,-994.49 L -145.937,-994.411 L -146.545,-994.255 L -147.129,-994.024 L -147.679,-993.722
 L -148.187,-993.353 L -148.645,-992.923 L -149.045,-992.439 L -149.382,-991.909 L -149.649,-991.341 L -149.843,-990.743
 L -149.961,-990.127 L -150,-989.5 L -150,-954.5 L -149.961,-953.873 L -149.843,-953.257 L -149.649,-952.659
 L -149.382,-952.091 L -149.045,-951.561 L -148.645,-951.077 L -148.187,-950.647 L -147.679,-950.278 L -147.129,-949.976
 L -146.545,-949.745 L -145.937,-949.589 L -145.314,-949.51 L 145.314,-949.51 z
M -145.048,-950.009 L -145.64,-950.084 L -146.218,-950.232 L -146.772,-950.452 L -147.295,-950.739 L -147.778,-951.09
 L -148.213,-951.498 L -148.593,-951.958 L -148.912,-952.462 L -149.166,-953.001 L -149.351,-953.569 L -149.463,-954.155
 L -149.5,-954.75 L -149.5,-989.25 L -149.463,-989.845 L -149.351,-990.431 L -149.166,-990.999 L -148.912,-991.538
 L -148.593,-992.042 L -148.213,-992.502 L -147.778,-992.91 L -147.295,-993.261 L -146.772,-993.548 L -146.218,-993.768
 L -145.64,-993.916 L -145.048,-993.991 L 145.048,-993.991 L 145.64,-993.916 L 146.218,-993.768 L 146.772,-993.548
 L 147.295,-993.261 L 147.778,-992.91 L 148.213,-992.502 L 148.593,-992.042 L 148.912,-991.538 L 149.166,-990.999
 L 149.351,-990.431 L 149.463,-989.845 L 149.5,-989.25 L 149.5,-954.75 L 149.463,-954.155 L 149.351,-953.569
 L 149.166,-953.001 L 148.912,-952.462 L 148.593,-951.958 L 148.213,-951.498 L 147.778,-951.09 L 147.295,-950.739
 L 146.772,-950.452 L 146.218,-950.232 L 145.64,-950.084 L 145.048,-950.009 z
M 145.937,-895.589 L 146.545,-895.745 L 147.129,-895.976 L 147.679,-896.278 L 148.187,-896.647 L 148.645,-897.077
 L 149.045,-897.561 L 149.382,-898.091 L 149.649,-898.659 L 149.843,-899.257 L 149.961,-899.873 L 150,-900.5
 L 150,-935.5 L 149.961,-936.127 L 149.843,-936.743 L 149.649,-937.341 L 149.382,-937.909 L 149.045,-938.439
 L 148.645,-938.923 L 148.187,-939.353 L 147.679,-939.722 L 147.129,-940.024 L 146.545,-940.255 L 145.937,-940.411
 L 145.314,-940.49 L -145.314,-940.49 L -145.937,-940.411 L -146.545,-940.255 L -147.129,-940.024 L -147.679,-939.722
 L -148.187,-939.353 L -148.645,-938.923 L -149.045,-938.439 L -149.382,-937.909 L -149.649,-937.341 L -149.843,-936.743
 L -149.961,-936.127 L -150,-935.5 L -150,-900.5 L -149.961,-899.873 L -149.843,-899.257 L -149.649,-898.659
 L -149.382,-898.091 L -149.045,-897.561 L -148.645,-897.077 L -148.187,-896.647 L -147.679,-896.278 L -147.129,-895.976
 L -146.545,-895.745 L -145.937,-895.589 L -145.314,-895.51 L 145.314,-895.51 z
M -145.048,-896.009 L -145.64,-896.084 L -146.218,-896.232 L -146.772,-896.452 L -147.295,-896.739 L -147.778,-897.09
 L -148.213,-897.498 L -148.593,-897.958 L -148.912,-898.462 L -149.166,-899.001 L -149.351,-899.569 L -149.463,-900.155
 L -149.5,-900.75 L -149.5,-935.25 L -149.463,-935.845 L -149.351,-936.431 L -149.166,-936.999 L -148.912,-937.538
 L -148.593,-938.042 L -148.213,-938.502 L -147.778,-938.91 L -147.295,-939.261 L -146.772,-939.548 L -146.218,-939.768
 L -145.64,-939.916 L -145.048,-939.991 L 145.048,-939.991 L 145.64,-939.916 L 146.218,-939.768 L 146.772,-939.548
 L 147.295,-939.261 L 147.778,-938.91 L 148.213,-938.502 L 148.593,-938.042 L 148.912,-937.538 L 149.166,-936.999
 L 149.351,-936.431 L 149.463,-935.845 L 149.5,-935.25 L 149.5,-900.75 L 149.463,-900.155 L 149.351,-899.569
 L 149.166,-899.001 L 148.912,-898.462 L 148.593,-897.958 L 148.213,-897.498 L 147.778,-897.09 L 147.295,-896.739
 L 146.772,-896.452 L 146.218,-896.232 L 145.64,-896.084 L 145.048,-896.009 z
M 145.937,-841.589 L 146.545,-841.745 L 147.129,-841.976 L 147.679,-842.278 L 148.187,-842.647 L 148.645,-843.077
 L 149.045,-843.561 L 149.382,-844.091 L 149.649,-844.659 L 149.843,-845.257 L 149.961,-845.873 L 150,-846.5
 L 150,-881.5 L 149.961,-882.127 L 149.843,-882.743 L 149.649,-883.341 L 149.382,-883.909 L 149.045,-884.439
 L 148.645,-884.923 L 148.187,-885.353 L 147.679,-885.722 L 147.129,-886.024 L 146.545,-886.255 L 145.937,-886.411
 L 145.314,-886.49 L -145.314,-886.49 L -145.937,-886.411 L -146.545,-886.255 L -147.129,-886.024 L -147.679,-885.722
 L -148.187,-885.353 L -148.645,-884.923 L -149.045,-884.439 L -149.382,-883.909 L -149.649,-883.341 L -149.843,-882.743
 L -149.961,-882.127 L -150,-881.5 L -150,-846.5 L -149.961,-845.873 L -149.843,-845.257 L -149.649,-844.659
 L -149.382,-844.091 L -149.045,-843.561 L -148.645,-843.077 L -148.187,-842.647 L -147.679,-842.278 L -147.129,-841.976
 L -146.545,-841.745 L -145.937,-841.589 L -145.314,-841.51 L 145.314,-841.51 z
M -145.048,-842.009 L -145.64,-842.084 L -146.218,-842.232 L -146.772,-842.452 L -147.295,-842.739 L -147.778,-843.09
 L -148.213,-843.498 L -148.593,-843.958 L -148.912,-844.462 L -149.166,-845.001 L -149.351,-845.569 L -149.463,-846.155
 L -149.5,-846.75 L -149.5,-881.25 L -149.463,-881.845 L -149.351,-882.431 L -149.166,-882.999 L -148.912,-883.538
 L -148.593,-884.042 L -148.213,-884.502 L -147.778,-884.91 L -147.295,-885.261 L -146.772,-885.548 L -146.218,-885.768
 L -145.64,-885.916 L -145.048,-885.991 L 145.048,-885.991 L 145.64,-885.916 L 146.218,-885.768 L 146.772,-885.548
 L 147.295,-885.261 L 147.778,-884.91 L 148.213,-884.502 L 148.593,-884.042 L 148.912,-883.538 L 149.166,-882.999
 L 149.351,-882.431 L 149.463,-881.845 L 149.5,-881.25 L 149.5,-846.75 L 149.463,-846.155 L 149.351,-845.569
 L 149.166,-845.001 L 148.912,-844.462 L 148.593,-843.958 L 148.213,-843.498 L 147.778,-843.09 L 147.295,-842.739
 L 146.772,-842.452 L 146.218,-842.232 L 145.64,-842.084 L 145.048,-842.009 z
M 145.937,-787.589 L 146.545,-787.745 L 147.129,-787.976 L 147.679,-788.278 L 148.187,-788.647 L 148.645,-789.077
 L 149.045,-789.561 L 149.382,-790.091 L 149.649,-790.659 L 149.843,-791.257 L 149.961,-791.873 L 150,-792.5
 L 150,-827.5 L 149.961,-828.127 L 149.843,-828.743 L 149.649,-829.341 L 149.382,-829.909 L 149.045,-830.439
 L 148.645,-830.923 L 148.187,-831.353 L 147.679,-831.722 L 147.129,-832.024 L 146.545,-832.255 L 145.937,-832.411
 L 145.314,-832.49 L -145.314,-832.49 L -145.937,-832.411 L -146.545,-832.255 L -147.129,-832.024 L -147.679,-831.722
 L -148.187,-831.353 L -148.645,-830.923 L -149.045,-830.439 L -149.382,-829.909 L -149.649,-829.341 L -149.843,-828.743
 L -149.961,-828.127 L -150,-827.5 L -150,-792.5 L -149.961,-791.873 L -149.843,-791.257 L -149.649,-790.659
 L -149.382,-790.091 L -149.045,-789.561 L -148.645,-789.077 L -148.187,-788.647 L -147.679,-788.278 L -147.129,-787.976
 L -146.545,-787.745 L -145.937,-787.589 L -145.314,-787.51 L 145.314,-787.51 z
M -145.048,-788.009 L -145.64,-788.084 L -146.218,-788.232 L -146.772,-788.452 L -147.295,-788.739 L -147.778,-789.09
 L -148.213,-789.498 L -148.593,-789.958 L -148.912,-790.462 L -149.166,-791.001 L -149.351,-791.569 L -149.463,-792.155
 L -149.5,-792.75 L -149.5,-827.25 L -149.463,-827.845 L -149.351,-828.431 L -149.166,-828.999 L -148.912,-829.538
 L -148.593,-830.042 L -148.213,-830.502 L -147.778,-830.91 L -147.295,-831.261 L -146.772,-831.548 L -146.218,-831.768
 L -145.64,-831.916 L -145.048,-831.991 L 145.048,-831.991 L 145.64,-831.916 L 146.218,-831.768 L 146.772,-831.548
 L 147.295,-831.261 L 147.778,-830.91 L 148.213,-830.502 L 148.593,-830.042 L 148.912,-829.538 L 149.166,-828.999
 L 149.351,-828.431 L 149.463,-827.845 L 149.5,-827.25 L 149.5,-792.75 L 149.463,-792.155 L 149.351,-791.569
 L 149.166,-791.001 L 148.912,-790.462 L 148.593,-789.958 L 148.213,-789.498 L 147.778,-789.09 L 147.295,-788.739
 L 146.772,-788.452 L 146.218,-788.232 L 145.64,-788.084 L 145.048,-788.009 z
M 145.937,-733.589 L 146.545,-733.745 L 147.129,-733.976 L 147.679,-734.278 L 148.187,-734.647 L 148.645,-735.077
 L 149.045,-735.561 L 149.382,-736.091 L 149.649,-736.659 L 149.843,-737.257 L 149.961,-737.873 L 150,-738.5
 L 150,-773.5 L 149.961,-774.127 L 149.843,-774.743 L 149.649,-775.341 L 149.382,-775.909 L 149.045,-776.439
 L 148.645,-776.923 L 148.187,-777.353 L 147.679,-777.722 L 147.129,-778.024 L 146.545,-778.255 L 145.937,-778.411
 L 145.314,-778.49 L -145.314,-778.49 L -145.937,-778.411 L -146.545,-778.255 L -147.129,-778.024 L -147.679,-777.722
 L -148.187,-777.353 L -148.645,-776.923 L -149.045,-776.439 L -149.382,-775.909 L -149.649,-775.341 L -149.843,-774.743
 L -149.961,-774.127 L -150,-773.5 L -150,-738.5 L -149.961,-737.873 L -149.843,-737.257 L -149.649,-736.659
 L -149.382,-736.091 L -149.045,-735.561 L -148.645,-735.077 L -148.187,-734.647 L -147.679,-734.278 L -147.129,-733.976
 L -146.545,-733.745 L -145.937,-733.589 L -145.314,-733.51 L 145.314,-733.51 z
M -145.048,-734.009 L -145.64,-734.084 L -146.218,-734.232 L -146.772,-734.452 L -147.295,-734.739 L -147.778,-735.09
 L -148.213,-735.498 L -148.593,-735.958 L -148.912,-736.462 L -149.166,-737.001 L -149.351,-737.569 L -149.463,-738.155
 L -149.5,-738.75 L -149.5,-773.25 L -149.463,-773.845 L -149.351,-774.431 L -149.166,-774.999 L -148.912,-775.538
 L -148.593,-776.042 L -148.213,-776.502 L -147.778,-776.91 L -147.295,-777.261 L -146.772,-777.548 L -146.218,-777.768
 L -145.64,-777.916 L -145.048,-777.991 L 145.048,-777.991 L 145.64,-777.916 L 146.218,-777.768 L 146.772,-777.548
 L 147.295,-777.261 L 147.778,-776.91 L 148.213,-776.502 L 148.593,-776.042 L 148.912,-775.538 L 149.166,-774.999
 L 149.351,-774.431 L 149.463,-773.845 L 149.5,-773.25 L 149.5,-738.75 L 149.463,-738.155 L 149.351,-737.569
 L 149.166,-737.001 L 148.912,-736.462 L 148.593,-735.958 L 148.213,-735.498 L 147.778,-735.09 L 147.295,-734.739
 L 146.772,-734.452 L 146.218,-734.232 L 145.64,-734.084 L 145.048,-734.009 z
M 145.937,-679.589 L 146.545,-679.745 L 147.129,-679.976 L 147.679,-680.278 L 148.187,-680.647 L 148.645,-681.077
 L 149.045,-681.561 L 149.382,-682.091 L 149.649,-682.659 L 149.843,-683.257 L 149.961,-683.873 L 150,-684.5
 L 150,-719.5 L 149.961,-720.127 L 149.843,-720.743 L 149.649,-721.341 L 149.382,-721.909 L 149.045,-722.439
 L 148.645,-722.923 L 148.187,-723.353 L 147.679,-723.722 L 147.129,-724.024 L 146.545,-724.255 L 145.937,-724.411
 L 145.314,-724.49 L -145.314,-724.49 L -145.937,-724.411 L -146.545,-724.255 L -147.129,-724.024 L -147.679,-723.722
 L -148.187,-723.353 L -148.645,-722.923 L -149.045,-722.439 L -149.382,-721.909 L -149.649,-721.341 L -149.843,-720.743
 L -149.961,-720.127 L -150,-719.5 L -150,-684.5 L -149.961,-683.873 L -149.843,-683.257 L -149.649,-682.659
 L -149.382,-682.091 L -149.045,-681.561 L -148.645,-681.077 L -148.187,-680.647 L -147.679,-680.278 L -147.129,-679.976
 L -146.545,-679.745 L -145.937,-679.589 L -145.314,-679.51 L 145.314,-679.51 z
M -145.048,-680.009 L -145.64,-680.084 L -146.218,-680.232 L -146.772,-680.452 L -147.295,-680.739 L -147.778,-681.09
 L -148.213,-681.498 L -148.593,-681.958 L -148.912,-682.462 L -149.166,-683.001 L -149.351,-683.569 L -149.463,-684.155
 L -149.5,-684.75 L -149.5,-719.25 L -149.463,-719.845 L -149.351,-720.431 L -149.166,-720.999 L -148.912,-721.538
 L -148.593,-722.042 L -148.213,-722.502 L -147.778,-722.91 L -147.295,-723.261 L -146.772,-723.548 L -146.218,-723.768
 L -145.64,-723.916 L -145.048,-723.991 L 145.048,-723.991 L 145.64,-723.916 L 146.218,-723.768 L 146.772,-723.548
 L 147.295,-723.261 L 147.778,-722.91 L 148.213,-722.502 L 148.593,-722.042 L 148.912,-721.538 L 149.166,-720.999
 L 149.351,-720.431 L 149.463,-719.845 L 149.5,-719.25 L 149.5,-684.75 L 149.463,-684.155 L 149.351,-683.569
 L 149.166,-683.001 L 148.912,-682.462 L 148.593,-681.958 L 148.213,-681.498 L 147.778,-681.09 L 147.295,-680.739
 L 146.772,-680.452 L 146.218,-680.232 L 145.64,-680.084 L 145.048,-680.009 z
M 145.937,-625.589 L 146.545,-625.745 L 147.129,-625.976 L 147.679,-626.278 L 148.187,-626.647 L 148.645,-627.077
 L 149.045,-627.561 L 149.382,-628.091 L 149.649,-628.659 L 149.843,-629.257 L 149.961,-629.873 L 150,-630.5
 L 150,-665.5 L 149.961,-666.127 L 149.843,-666.743 L 149.649,-667.341 L 149.382,-667.909 L 149.045,-668.439
 L 148.645,-668.923 L 148.187,-669.353 L 147.679,-669.722 L 147.129,-670.024 L 146.545,-670.255 L 145.937,-670.411
 L 145.314,-670.49 L -145.314,-670.49 L -145.937,-670.411 L -146.545,-670.255 L -147.129,-670.024 L -147.679,-669.722
 L -148.187,-669.353 L -148.645,-668.923 L -149.045,-668.439 L -149.382,-667.909 L -149.649,-667.341 L -149.843,-666.743
 L -149.961,-666.127 L -150,-665.5 L -150,-630.5 L -149.961,-629.873 L -149.843,-629.257 L -149.649,-628.659
 L -149.382,-628.091 L -149.045,-627.561 L -148.645,-627.077 L -148.187,-626.647 L -147.679,-626.278 L -147.129,-625.976
 L -146.545,-625.745 L -145.937,-625.589 L -145.314,-625.51 L 145.314,-625.51 z
M -145.048,-626.009 L -145.64,-626.084 L -146.218,-626.232 L -146.772,-626.452 L -147.295,-626.739 L -147.778,-627.09
 L -148.213,-627.498 L -148.593,-627.958 L -148.912,-628.462 L -149.166,-629.001 L -149.351,-629.569 L -149.463,-630.155
 L -149.5,-630.75 L -149.5,-665.25 L -149.463,-665.845 L -149.351,-666.431 L -149.166,-666.999 L -148.912,-667.538
 L -148.593,-668.042 L -148.213,-668.502 L -147.778,-668.91 L -147.295,-669.261 L -146.772,-669.548 L -146.218,-669.768
 L -145.64,-669.916 L -145.048,-669.991 L 145.048,-669.991 L 145.64,-669.916 L 146.218,-669.768 L 146.772,-669.548
 L 147.295,-669.261 L 147.778,-668.91 L 148.213,-668.502 L 148.593,-668.042 L 148.912,-667.538 L 149.166,-666.999
 L 149.351,-666.431 L 149.463,-665.845 L 149.5,-665.25 L 149.5,-630.75 L 149.463,-630.155 L 149.351,-629.569
 L 149.166,-629.001 L 148.912,-628.462 L 148.593,-627.958 L 148.213,-627.498 L 147.778,-627.09 L 147.295,-626.739
 L 146.772,-626.452 L 146.218,-626.232 L 145.64,-626.084 L 145.048,-626.009 z
M 145.937,-571.589 L 146.545,-571.745 L 147.129,-571.976 L 147.679,-572.278 L 148.187,-572.647 L 148.645,-573.077
 L 149.045,-573.561 L 149.382,-574.091 L 149.649,-574.659 L 149.843,-575.257 L 149.961,-575.873 L 150,-576.5
 L 150,-611.5 L 149.961,-612.127 L 149.843,-612.743 L 149.649,-613.341 L 149.382,-613.909 L 149.045,-614.439
 L 148.645,-614.923 L 148.187,-615.353 L 147.679,-615.722 L 147.129,-616.024 L 146.545,-616.255 L 145.937,-616.411
 L 145.314,-616.49 L -145.314,-616.49 L -145.937,-616.411 L -146.545,-616.255 L -147.129,-616.024 L -147.679,-615.722
 L -148.187,-615.353 L -148.645,-614.923 L -149.045,-614.439 L -149.382,-613.909 L -149.649,-613.341 L -149.843,-612.743
 L -149.961,-612.127 L -150,-611.5 L -150,-576.5 L -149.961,-575.873 L -149.843,-575.257 L -149.649,-574.659
 L -149.382,-574.091 L -149.045,-573.561 L -148.645,-573.077 L -148.187,-572.647 L -147.679,-572.278 L -147.129,-571.976
 L -146.545,-571.745 L -145.937,-571.589 L -145.314,-571.51 L 145.314,-571.51 z
M -145.037,-572.181 L -145.608,-572.253 L -146.165,-572.396 L -146.699,-572.607 L -147.203,-572.884 L -147.668,-573.222
 L -148.088,-573.616 L -148.454,-574.059 L -148.762,-574.544 L -149.007,-575.065 L -149.185,-575.611 L -149.292,-576.176
 L -149.328,-576.75 L -149.328,-611.25 L -149.292,-611.824 L -149.185,-612.389 L -149.007,-612.935 L -148.762,-613.456
 L -148.454,-613.941 L -148.088,-614.384 L -147.668,-614.778 L -147.203,-615.116 L -146.699,-615.393 L -146.165,-615.604
 L -145.608,-615.747 L -145.037,-615.819 L 145.037,-615.819 L 145.608,-615.747 L 146.165,-615.604 L 146.699,-615.393
 L 147.203,-615.116 L 147.668,-614.778 L 148.088,-614.384 L 148.454,-613.941 L 148.762,-613.456 L 149.007,-612.935
 L 149.185,-612.389 L 149.292,-611.824 L 149.328,-611.25 L 149.328,-576.75 L 149.292,-576.176 L 149.185,-575.611
 L 149.007,-575.065 L 148.762,-574.544 L 148.454,-574.059 L 148.088,-573.616 L 147.668,-573.222 L 147.203,-572.884
 L 146.699,-572.607 L 146.165,-572.396 L 145.608,-572.253 L 145.037,-572.181 z
M 145.937,-517.589 L 146.545,-517.745 L 147.129,-517.976 L 147.679,-518.278 L 148.187,-518.647 L 148.645,-519.077
 L 149.045,-519.561 L 149.382,-520.091 L 149.649,-520.659 L 149.843,-521.257 L 149.961,-521.873 L 150,-522.5
 L 150,-557.5 L 149.961,-558.127 L 149.843,-558.743 L 149.649,-559.341 L 149.382,-559.909 L 149.045,-560.439
 L 148.645,-560.923 L 148.187,-561.353 L 147.679,-561.722 L 147.129,-562.024 L 146.545,-562.255 L 145.937,-562.411
 L 145.314,-562.49 L -145.314,-562.49 L -145.937,-562.411 L -146.545,-562.255 L -147.129,-562.024 L -147.679,-561.722
 L -148.187,-561.353 L -148.645,-560.923 L -149.045,-560.439 L -149.382,-559.909 L -149.649,-559.341 L -149.843,-558.743
 L -149.961,-558.127 L -150,-557.5 L -150,-522.5 L -149.961,-521.873 L -149.843,-521.257 L -149.649,-520.659
 L -149.382,-520.091 L -149.045,-519.561 L -148.645,-519.077 L -148.187,-518.647 L -147.679,-518.278 L -147.129,-517.976
 L -146.545,-517.745 L -145.937,-517.589 L -145.314,-517.51 L 145.314,-517.51 z
M -144.882,-520.645 L -145.145,-520.678 L -145.402,-520.744 L -145.648,-520.841 L -145.88,-520.969 L -146.095,-521.125
 L -146.288,-521.306 L -146.457,-521.51 L -146.599,-521.734 L -146.711,-521.973 L -146.793,-522.225 L -146.843,-522.486
 L -146.86,-522.75 L -146.86,-557.25 L -146.843,-557.514 L -146.793,-557.775 L -146.711,-558.027 L -146.599,-558.266
 L -146.457,-558.49 L -146.288,-558.694 L -146.095,-558.875 L -145.88,-559.031 L -145.648,-559.159 L -145.402,-559.256
 L -145.145,-559.322 L -144.882,-559.355 L 144.882,-559.355 L 145.145,-559.322 L 145.402,-559.256 L 145.648,-559.159
 L 145.88,-559.031 L 146.095,-558.875 L 146.288,-558.694 L 146.457,-558.49 L 146.599,-558.266 L 146.711,-558.027
 L 146.793,-557.775 L 146.843,-557.514 L 146.86,-557.25 L 146.86,-522.75 L 146.843,-522.486 L 146.793,-522.225
 L 146.711,-521.973 L 146.599,-521.734 L 146.457,-521.51 L 146.288,-521.306 L 146.095,-521.125 L 145.88,-520.969
 L 145.648,-520.841 L 145.402,-520.744 L 145.145,-520.678 L 144.882,-520.645 z
" stroke="black" fill="lightgray" stroke-width="0.5"/>
</svg>
