<?xml version="1.0" standalone="no"?>
<!DOCTYPE svg PUBLIC "-//W3C//DTD SVG 1.1//EN" "http://www.w3.org/Graphics/SVG/1.1/DTD/svg11.dtd">
<svg width="256mm" height="460mm" viewBox="-128 -815 256 460" xmlns="http://www.w3.org/2000/svg" version="1.1">
<title>OpenSCAD Model</title>
<path d="
M 123.437,-589.589 L 124.045,-589.745 L 124.629,-589.976 L 125.179,-590.278 L 125.687,-590.647 L 126.145,-591.077
 L 126.545,-591.561 L 126.882,-592.091 L 127.149,-592.659 L 127.343,-593.257 L 127.461,-593.873 L 127.5,-594.5
 L 127.5,-809.5 L 127.461,-810.127 L 127.343,-810.743 L 127.149,-811.341 L 126.882,-811.909 L 126.545,-812.439
 L 126.145,-812.923 L 125.687,-813.353 L 125.179,-813.722 L 124.629,-814.024 L 124.045,-814.255 L 123.437,-814.411
 L 122.814,-814.49 L -122.814,-814.49 L -123.437,-814.411 L -124.045,-814.255 L -124.629,-814.024 L -125.179,-813.722
 L -125.687,-813.353 L -126.145,-812.923 L -126.545,-812.439 L -126.882,-811.909 L -127.149,-811.341 L -127.343,-810.743
 L -127.461,-810.127 L -127.5,-809.5 L -127.5,-594.5 L -127.461,-593.873 L -127.343,-593.257 L -127.149,-592.659
 L -126.882,-592.091 L -126.545,-591.561 L -126.145,-591.077 L -125.687,-590.647 L -125.179,-590.278 L -124.629,-589.976
 L -124.045,-589.745 L -123.437,-589.589 L -122.814,-589.51 L 122.814,-589.51 z
M -122.537,-590.181 L -123.108,-590.253 L -123.665,-590.396 L -124.199,-590.607 L -124.703,-590.884 L -125.168,-591.222
 L -125.588,-591.616 L -125.954,-592.059 L -126.262,-592.544 L -126.507,-593.065 L -126.685,-593.611 L -126.792,-594.176
 L -126.828,-594.75 L -126.828,-809.25 L -126.792,-809.824 L -126.685,-810.389 L -126.507,-810.935 L -126.262,-811.456
 L -125.954,-811.941 L -125.588,-812.384 L -125.168,-812.778 L -124.703,-813.116 L -124.199,-813.393 L -123.665,-813.604
 L -123.108,-813.747 L -122.537,-813.819 L 122.537,-813.819 L 123.108,-813.747 L 123.665,-813.604 L 124.199,-813.393
 L 124.703,-813.116 L 125.168,-812.778 L 125.588,-812.384 L 125.954,-811.941 L 126.262,-811.456 L 126.507,-810.935
 L 126.685,-810.389 L 126.792,-809.824 L 126.828,-809.25 L 126.828,-594.75 L 126.792,-594.176 L 126.685,-593.611
 L 126.507,-593.065 L 126.262,-592.544 L 125.954,-592.059 L 125.588,-591.616 L 125.168,-591.222 L 124.703,-590.884
 L 124.199,-590.607 L 123.665,-590.396 L 123.108,-590.253 L 122.537,-590.181 z
M 123.437,-355.589 L 124.045,-355.745 L 124.629,-355.976 L 125.179,-356.278 L 125.687,-356.647 L 126.145,-357.077
 L 126.545,-357.561 L 126.882,-358.091 L 127.149,-358.659 L 127.343,-359.257 L 127.461,-359.873 L 127.5,-360.5
 L 127.5,-575.5 L 127.461,-576.127 L 127.343,-576.743 L 127.149,-577.341 L 126.882,-577.909 L 126.545,-578.439
 L 126.145,-578.923 L 125.687,-579.353 L 125.179,-579.722 L 124.629,-580.024 L 124.045,-580.255 L 123.437,-580.411
 L 122.814,-580.49 L -122.814,-580.49 L -123.437,-580.411 L -124.045,-580.255 L -124.629,-580.024 L -125.179,-579.722
 L -125.687,-579.353 L -126.145,-578.923 L -126.545,-578.439 L -126.882,-577.909 L -127.149,-577.341 L -127.343,-576.743
 L -127.461,-576.127 L -127.5,-575.5 L -127.5,-360.5 L -127.461,-359.873 L -127.343,-359.257 L -127.149,-358.659
 L -126.882,-358.091 L -126.545,-357.561 L -126.145,-357.077 L -125.687,-356.647 L -125.179,-356.278 L -124.629,-355.976
 L -124.045,-355.745 L -123.437,-355.589 L -122.814,-355.51 L 122.814,-355.51 z
M -122.382,-358.645 L -122.645,-358.678 L -122.902,-358.744 L -123.148,-358.841 L -123.38,-358.969 L -123.595,-359.124
 L -123.788,-359.306 L -123.957,-359.51 L -124.099,-359.734 L -124.211,-359.973 L -124.293,-360.225 L -124.343,-360.486
 L -124.36,-360.75 L -124.36,-575.25 L -124.343,-575.514 L -124.293,-575.775 L -124.211,-576.027 L -124.099,-576.266
 L -123.957,-576.49 L -123.788,-576.694 L -123.595,-576.876 L -123.38,-577.031 L -123.148,-577.159 L -122.902,-577.256
 L -122.645,-577.322 L -122.382,-577.355 L 122.382,-577.355 L 122.645,-577.322 L 122.902,-577.256 L 123.148,-577.159
 L 123.38,-577.031 L 123.595,-576.876 L 123.788,-576.694 L 123.957,-576.49 L 124.099,-576.266 L 124.211,-576.027
 L 124.293,-575.775 L 124.343,-575.514 L 124.36,-575.25 L 124.36,-360.75 L 124.343,-360.486 L 124.293,-360.225
 L 124.211,-359.973 L 124.099,-359.734 L 123.957,-359.51 L 123.788,-359.306 L 123.595,-359.124 L 123.38,-358.969
 L 123.148,-358.841 L 122.902,-358.744 L 122.645,-358.678 L 122.382,-358.645 z
" stroke="black" fill="lightgray" stroke-width="0.5"/>
</svg>
