  0
SECTION
  2
BLOCKS
  0
ENDSEC
  0
SECTION
  2
ENTITIES
  0
LINE
  8
0
 10
115.937
 20
315.089
 11
116.545
 21
315.245
  0
LINE
  8
0
 10
116.545
 20
315.245
 11
117.129
 21
315.476
  0
LINE
  8
0
 10
117.129
 20
315.476
 11
117.679
 21
315.778
  0
LINE
  8
0
 10
117.679
 20
315.778
 11
118.187
 21
316.147
  0
LINE
  8
0
 10
118.187
 20
316.147
 11
118.645
 21
316.577
  0
LINE
  8
0
 10
118.645
 20
316.577
 11
119.045
 21
317.061
  0
LINE
  8
0
 10
119.045
 20
317.061
 11
119.382
 21
317.591
  0
LINE
  8
0
 10
119.382
 20
317.591
 11
119.649
 21
318.159
  0
LINE
  8
0
 10
119.649
 20
318.159
 11
119.843
 21
318.757
  0
LINE
  8
0
 10
119.843
 20
318.757
 11
119.961
 21
319.373
  0
LINE
  8
0
 10
119.961
 20
319.373
 11
120
 21
320
  0
LINE
  8
0
 10
120
 20
320
 11
120
 21
370
  0
LINE
  8
0
 10
120
 20
370
 11
119.961
 21
370.627
  0
LINE
  8
0
 10
119.961
 20
370.627
 11
119.843
 21
371.243
  0
LINE
  8
0
 10
119.843
 20
371.243
 11
119.649
 21
371.841
  0
LINE
  8
0
 10
119.649
 20
371.841
 11
119.382
 21
372.409
  0
LINE
  8
0
 10
119.382
 20
372.409
 11
119.045
 21
372.939
  0
LINE
  8
0
 10
119.045
 20
372.939
 11
118.645
 21
373.423
  0
LINE
  8
0
 10
118.645
 20
373.423
 11
118.187
 21
373.853
  0
LINE
  8
0
 10
118.187
 20
373.853
 11
117.679
 21
374.222
  0
LINE
  8
0
 10
117.679
 20
374.222
 11
117.129
 21
374.524
  0
LINE
  8
0
 10
117.129
 20
374.524
 11
116.545
 21
374.755
  0
LINE
  8
0
 10
116.545
 20
374.755
 11
115.937
 21
374.911
  0
LINE
  8
0
 10
115.937
 20
374.911
 11
115.314
 21
374.99
  0
LINE
  8
0
 10
115.314
 20
374.99
 11
-115.314
 21
374.99
  0
LINE
  8
0
 10
-115.314
 20
374.99
 11
-115.937
 21
374.911
  0
LINE
  8
0
 10
-115.937
 20
374.911
 11
-116.545
 21
374.755
  0
LINE
  8
0
 10
-116.545
 20
374.755
 11
-117.129
 21
374.524
  0
LINE
  8
0
 10
-117.129
 20
374.524
 11
-117.679
 21
374.222
  0
LINE
  8
0
 10
-117.679
 20
374.222
 11
-118.187
 21
373.853
  0
LINE
  8
0
 10
-118.187
 20
373.853
 11
-118.645
 21
373.423
  0
LINE
  8
0
 10
-118.645
 20
373.423
 11
-119.045
 21
372.939
  0
LINE
  8
0
 10
-119.045
 20
372.939
 11
-119.382
 21
372.409
  0
LINE
  8
0
 10
-119.382
 20
372.409
 11
-119.649
 21
371.841
  0
LINE
  8
0
 10
-119.649
 20
371.841
 11
-119.843
 21
371.243
  0
LINE
  8
0
 10
-119.843
 20
371.243
 11
-119.961
 21
370.627
  0
LINE
  8
0
 10
-119.961
 20
370.627
 11
-120
 21
370
  0
LINE
  8
0
 10
-120
 20
370
 11
-120
 21
320
  0
LINE
  8
0
 10
-120
 20
320
 11
-119.961
 21
319.373
  0
LINE
  8
0
 10
-119.961
 20
319.373
 11
-119.843
 21
318.757
  0
LINE
  8
0
 10
-119.843
 20
318.757
 11
-119.649
 21
318.159
  0
LINE
  8
0
 10
-119.649
 20
318.159
 11
-119.382
 21
317.591
  0
LINE
  8
0
 10
-119.382
 20
317.591
 11
-119.045
 21
317.061
  0
LINE
  8
0
 10
-119.045
 20
317.061
 11
-118.645
 21
316.577
  0
LINE
  8
0
 10
-118.645
 20
316.577
 11
-118.187
 21
316.147
  0
LINE
  8
0
 10
-118.187
 20
316.147
 11
-117.679
 21
315.778
  0
LINE
  8
0
 10
-117.679
 20
315.778
 11
-117.129
 21
315.476
  0
LINE
  8
0
 10
-117.129
 20
315.476
 11
-116.545
 21
315.245
  0
LINE
  8
0
 10
-116.545
 20
315.245
 11
-115.937
 21
315.089
  0
LINE
  8
0
 10
-115.937
 20
315.089
 11
-115.314
 21
315.01
  0
LINE
  8
0
 10
-115.314
 20
315.01
 11
115.314
 21
315.01
  0
LINE
  8
0
 10
115.314
 20
315.01
 11
115.937
 21
315.089
  0
LINE
  8
0
 10
-115.048
 20
315.509
 11
-115.64
 21
315.584
  0
LINE
  8
0
 10
-115.64
 20
315.584
 11
-116.218
 21
315.732
  0
LINE
  8
0
 10
-116.218
 20
315.732
 11
-116.772
 21
315.952
  0
LINE
  8
0
 10
-116.772
 20
315.952
 11
-117.295
 21
316.239
  0
LINE
  8
0
 10
-117.295
 20
316.239
 11
-117.778
 21
316.59
  0
LINE
  8
0
 10
-117.778
 20
316.59
 11
-118.213
 21
316.998
  0
LINE
  8
0
 10
-118.213
 20
316.998
 11
-118.593
 21
317.458
  0
LINE
  8
0
 10
-118.593
 20
317.458
 11
-118.912
 21
317.962
  0
LINE
  8
0
 10
-118.912
 20
317.962
 11
-119.166
 21
318.501
  0
LINE
  8
0
 10
-119.166
 20
318.501
 11
-119.351
 21
319.069
  0
LINE
  8
0
 10
-119.351
 20
319.069
 11
-119.463
 21
319.655
  0
LINE
  8
0
 10
-119.463
 20
319.655
 11
-119.5
 21
320.25
  0
LINE
  8
0
 10
-119.5
 20
320.25
 11
-119.5
 21
369.75
  0
LINE
  8
0
 10
-119.5
 20
369.75
 11
-119.463
 21
370.345
  0
LINE
  8
0
 10
-119.463
 20
370.345
 11
-119.351
 21
370.931
  0
LINE
  8
0
 10
-119.351
 20
370.931
 11
-119.166
 21
371.499
  0
LINE
  8
0
 10
-119.166
 20
371.499
 11
-118.912
 21
372.038
  0
LINE
  8
0
 10
-118.912
 20
372.038
 11
-118.593
 21
372.542
  0
LINE
  8
0
 10
-118.593
 20
372.542
 11
-118.213
 21
373.002
  0
LINE
  8
0
 10
-118.213
 20
373.002
 11
-117.778
 21
373.41
  0
LINE
  8
0
 10
-117.778
 20
373.41
 11
-117.295
 21
373.761
  0
LINE
  8
0
 10
-117.295
 20
373.761
 11
-116.772
 21
374.048
  0
LINE
  8
0
 10
-116.772
 20
374.048
 11
-116.218
 21
374.268
  0
LINE
  8
0
 10
-116.218
 20
374.268
 11
-115.64
 21
374.416
  0
LINE
  8
0
 10
-115.64
 20
374.416
 11
-115.048
 21
374.491
  0
LINE
  8
0
 10
-115.048
 20
374.491
 11
115.048
 21
374.491
  0
LINE
  8
0
 10
115.048
 20
374.491
 11
115.64
 21
374.416
  0
LINE
  8
0
 10
115.64
 20
374.416
 11
116.218
 21
374.268
  0
LINE
  8
0
 10
116.218
 20
374.268
 11
116.772
 21
374.048
  0
LINE
  8
0
 10
116.772
 20
374.048
 11
117.295
 21
373.761
  0
LINE
  8
0
 10
117.295
 20
373.761
 11
117.778
 21
373.41
  0
LINE
  8
0
 10
117.778
 20
373.41
 11
118.213
 21
373.002
  0
LINE
  8
0
 10
118.213
 20
373.002
 11
118.593
 21
372.542
  0
LINE
  8
0
 10
118.593
 20
372.542
 11
118.912
 21
372.038
  0
LINE
  8
0
 10
118.912
 20
372.038
 11
119.166
 21
371.499
  0
LINE
  8
0
 10
119.166
 20
371.499
 11
119.351
 21
370.931
  0
LINE
  8
0
 10
119.351
 20
370.931
 11
119.463
 21
370.345
  0
LINE
  8
0
 10
119.463
 20
370.345
 11
119.5
 21
369.75
  0
LINE
  8
0
 10
119.5
 20
369.75
 11
119.5
 21
320.25
  0
LINE
  8
0
 10
119.5
 20
320.25
 11
119.463
 21
319.655
  0
LINE
  8
0
 10
119.463
 20
319.655
 11
119.351
 21
319.069
  0
LINE
  8
0
 10
119.351
 20
319.069
 11
119.166
 21
318.501
  0
LINE
  8
0
 10
119.166
 20
318.501
 11
118.912
 21
317.962
  0
LINE
  8
0
 10
118.912
 20
317.962
 11
118.593
 21
317.458
  0
LINE
  8
0
 10
118.593
 20
317.458
 11
118.213
 21
316.998
  0
LINE
  8
0
 10
118.213
 20
316.998
 11
117.778
 21
316.59
  0
LINE
  8
0
 10
117.778
 20
316.59
 11
117.295
 21
316.239
  0
LINE
  8
0
 10
117.295
 20
316.239
 11
116.772
 21
315.952
  0
LINE
  8
0
 10
116.772
 20
315.952
 11
116.218
 21
315.732
  0
LINE
  8
0
 10
116.218
 20
315.732
 11
115.64
 21
315.584
  0
LINE
  8
0
 10
115.64
 20
315.584
 11
115.048
 21
315.509
  0
LINE
  8
0
 10
115.048
 20
315.509
 11
-115.048
 21
315.509
  0
LINE
  8
0
 10
115.937
 20
246.089
 11
116.545
 21
246.245
  0
LINE
  8
0
 10
116.545
 20
246.245
 11
117.129
 21
246.476
  0
LINE
  8
0
 10
117.129
 20
246.476
 11
117.679
 21
246.778
  0
LINE
  8
0
 10
117.679
 20
246.778
 11
118.187
 21
247.147
  0
LINE
  8
0
 10
118.187
 20
247.147
 11
118.645
 21
247.577
  0
LINE
  8
0
 10
118.645
 20
247.577
 11
119.045
 21
248.061
  0
LINE
  8
0
 10
119.045
 20
248.061
 11
119.382
 21
248.591
  0
LINE
  8
0
 10
119.382
 20
248.591
 11
119.649
 21
249.159
  0
LINE
  8
0
 10
119.649
 20
249.159
 11
119.843
 21
249.757
  0
LINE
  8
0
 10
119.843
 20
249.757
 11
119.961
 21
250.373
  0
LINE
  8
0
 10
119.961
 20
250.373
 11
120
 21
251
  0
LINE
  8
0
 10
120
 20
251
 11
120
 21
301
  0
LINE
  8
0
 10
120
 20
301
 11
119.961
 21
301.627
  0
LINE
  8
0
 10
119.961
 20
301.627
 11
119.843
 21
302.243
  0
LINE
  8
0
 10
119.843
 20
302.243
 11
119.649
 21
302.841
  0
LINE
  8
0
 10
119.649
 20
302.841
 11
119.382
 21
303.409
  0
LINE
  8
0
 10
119.382
 20
303.409
 11
119.045
 21
303.939
  0
LINE
  8
0
 10
119.045
 20
303.939
 11
118.645
 21
304.423
  0
LINE
  8
0
 10
118.645
 20
304.423
 11
118.187
 21
304.853
  0
LINE
  8
0
 10
118.187
 20
304.853
 11
117.679
 21
305.222
  0
LINE
  8
0
 10
117.679
 20
305.222
 11
117.129
 21
305.524
  0
LINE
  8
0
 10
117.129
 20
305.524
 11
116.545
 21
305.755
  0
LINE
  8
0
 10
116.545
 20
305.755
 11
115.937
 21
305.911
  0
LINE
  8
0
 10
115.937
 20
305.911
 11
115.314
 21
305.99
  0
LINE
  8
0
 10
115.314
 20
305.99
 11
-115.314
 21
305.99
  0
LINE
  8
0
 10
-115.314
 20
305.99
 11
-115.937
 21
305.911
  0
LINE
  8
0
 10
-115.937
 20
305.911
 11
-116.545
 21
305.755
  0
LINE
  8
0
 10
-116.545
 20
305.755
 11
-117.129
 21
305.524
  0
LINE
  8
0
 10
-117.129
 20
305.524
 11
-117.679
 21
305.222
  0
LINE
  8
0
 10
-117.679
 20
305.222
 11
-118.187
 21
304.853
  0
LINE
  8
0
 10
-118.187
 20
304.853
 11
-118.645
 21
304.423
  0
LINE
  8
0
 10
-118.645
 20
304.423
 11
-119.045
 21
303.939
  0
LINE
  8
0
 10
-119.045
 20
303.939
 11
-119.382
 21
303.409
  0
LINE
  8
0
 10
-119.382
 20
303.409
 11
-119.649
 21
302.841
  0
LINE
  8
0
 10
-119.649
 20
302.841
 11
-119.843
 21
302.243
  0
LINE
  8
0
 10
-119.843
 20
302.243
 11
-119.961
 21
301.627
  0
LINE
  8
0
 10
-119.961
 20
301.627
 11
-120
 21
301
  0
LINE
  8
0
 10
-120
 20
301
 11
-120
 21
251
  0
LINE
  8
0
 10
-120
 20
251
 11
-119.961
 21
250.373
  0
LINE
  8
0
 10
-119.961
 20
250.373
 11
-119.843
 21
249.757
  0
LINE
  8
0
 10
-119.843
 20
249.757
 11
-119.649
 21
249.159
  0
LINE
  8
0
 10
-119.649
 20
249.159
 11
-119.382
 21
248.591
  0
LINE
  8
0
 10
-119.382
 20
248.591
 11
-119.045
 21
248.061
  0
LINE
  8
0
 10
-119.045
 20
248.061
 11
-118.645
 21
247.577
  0
LINE
  8
0
 10
-118.645
 20
247.577
 11
-118.187
 21
247.147
  0
LINE
  8
0
 10
-118.187
 20
247.147
 11
-117.679
 21
246.778
  0
LINE
  8
0
 10
-117.679
 20
246.778
 11
-117.129
 21
246.476
  0
LINE
  8
0
 10
-117.129
 20
246.476
 11
-116.545
 21
246.245
  0
LINE
  8
0
 10
-116.545
 20
246.245
 11
-115.937
 21
246.089
  0
LINE
  8
0
 10
-115.937
 20
246.089
 11
-115.314
 21
246.01
  0
LINE
  8
0
 10
-115.314
 20
246.01
 11
115.314
 21
246.01
  0
LINE
  8
0
 10
115.314
 20
246.01
 11
115.937
 21
246.089
  0
LINE
  8
0
 10
-115.037
 20
246.681
 11
-115.608
 21
246.753
  0
LINE
  8
0
 10
-115.608
 20
246.753
 11
-116.165
 21
246.896
  0
LINE
  8
0
 10
-116.165
 20
246.896
 11
-116.699
 21
247.107
  0
LINE
  8
0
 10
-116.699
 20
247.107
 11
-117.203
 21
247.384
  0
LINE
  8
0
 10
-117.203
 20
247.384
 11
-117.668
 21
247.722
  0
LINE
  8
0
 10
-117.668
 20
247.722
 11
-118.088
 21
248.116
  0
LINE
  8
0
 10
-118.088
 20
248.116
 11
-118.454
 21
248.559
  0
LINE
  8
0
 10
-118.454
 20
248.559
 11
-118.762
 21
249.044
  0
LINE
  8
0
 10
-118.762
 20
249.044
 11
-119.007
 21
249.565
  0
LINE
  8
0
 10
-119.007
 20
249.565
 11
-119.185
 21
250.111
  0
LINE
  8
0
 10
-119.185
 20
250.111
 11
-119.292
 21
250.676
  0
LINE
  8
0
 10
-119.292
 20
250.676
 11
-119.328
 21
251.25
  0
LINE
  8
0
 10
-119.328
 20
251.25
 11
-119.328
 21
300.75
  0
LINE
  8
0
 10
-119.328
 20
300.75
 11
-119.292
 21
301.324
  0
LINE
  8
0
 10
-119.292
 20
301.324
 11
-119.185
 21
301.889
  0
LINE
  8
0
 10
-119.185
 20
301.889
 11
-119.007
 21
302.435
  0
LINE
  8
0
 10
-119.007
 20
302.435
 11
-118.762
 21
302.956
  0
LINE
  8
0
 10
-118.762
 20
302.956
 11
-118.454
 21
303.441
  0
LINE
  8
0
 10
-118.454
 20
303.441
 11
-118.088
 21
303.884
  0
LINE
  8
0
 10
-118.088
 20
303.884
 11
-117.668
 21
304.278
  0
LINE
  8
0
 10
-117.668
 20
304.278
 11
-117.203
 21
304.616
  0
LINE
  8
0
 10
-117.203
 20
304.616
 11
-116.699
 21
304.893
  0
LINE
  8
0
 10
-116.699
 20
304.893
 11
-116.165
 21
305.104
  0
LINE
  8
0
 10
-116.165
 20
305.104
 11
-115.608
 21
305.247
  0
LINE
  8
0
 10
-115.608
 20
305.247
 11
-115.037
 21
305.319
  0
LINE
  8
0
 10
-115.037
 20
305.319
 11
115.037
 21
305.319
  0
LINE
  8
0
 10
115.037
 20
305.319
 11
115.608
 21
305.247
  0
LINE
  8
0
 10
115.608
 20
305.247
 11
116.165
 21
305.104
  0
LINE
  8
0
 10
116.165
 20
305.104
 11
116.699
 21
304.893
  0
LINE
  8
0
 10
116.699
 20
304.893
 11
117.203
 21
304.616
  0
LINE
  8
0
 10
117.203
 20
304.616
 11
117.668
 21
304.278
  0
LINE
  8
0
 10
117.668
 20
304.278
 11
118.088
 21
303.884
  0
LINE
  8
0
 10
118.088
 20
303.884
 11
118.454
 21
303.441
  0
LINE
  8
0
 10
118.454
 20
303.441
 11
118.762
 21
302.956
  0
LINE
  8
0
 10
118.762
 20
302.956
 11
119.007
 21
302.435
  0
LINE
  8
0
 10
119.007
 20
302.435
 11
119.185
 21
301.889
  0
LINE
  8
0
 10
119.185
 20
301.889
 11
119.292
 21
301.324
  0
LINE
  8
0
 10
119.292
 20
301.324
 11
119.328
 21
300.75
  0
LINE
  8
0
 10
119.328
 20
300.75
 11
119.328
 21
251.25
  0
LINE
  8
0
 10
119.328
 20
251.25
 11
119.292
 21
250.676
  0
LINE
  8
0
 10
119.292
 20
250.676
 11
119.185
 21
250.111
  0
LINE
  8
0
 10
119.185
 20
250.111
 11
119.007
 21
249.565
  0
LINE
  8
0
 10
119.007
 20
249.565
 11
118.762
 21
249.044
  0
LINE
  8
0
 10
118.762
 20
249.044
 11
118.454
 21
248.559
  0
LINE
  8
0
 10
118.454
 20
248.559
 11
118.088
 21
248.116
  0
LINE
  8
0
 10
118.088
 20
248.116
 11
117.668
 21
247.722
  0
LINE
  8
0
 10
117.668
 20
247.722
 11
117.203
 21
247.384
  0
LINE
  8
0
 10
117.203
 20
247.384
 11
116.699
 21
247.107
  0
LINE
  8
0
 10
116.699
 20
247.107
 11
116.165
 21
246.896
  0
LINE
  8
0
 10
116.165
 20
246.896
 11
115.608
 21
246.753
  0
LINE
  8
0
 10
115.608
 20
246.753
 11
115.037
 21
246.681
  0
LINE
  8
0
 10
115.037
 20
246.681
 11
-115.037
 21
246.681
  0
LINE
  8
0
 10
115.937
 20
177.089
 11
116.545
 21
177.245
  0
LINE
  8
0
 10
116.545
 20
177.245
 11
117.129
 21
177.476
  0
LINE
  8
0
 10
117.129
 20
177.476
 11
117.679
 21
177.778
  0
LINE
  8
0
 10
117.679
 20
177.778
 11
118.187
 21
178.147
  0
LINE
  8
0
 10
118.187
 20
178.147
 11
118.645
 21
178.577
  0
LINE
  8
0
 10
118.645
 20
178.577
 11
119.045
 21
179.061
  0
LINE
  8
0
 10
119.045
 20
179.061
 11
119.382
 21
179.591
  0
LINE
  8
0
 10
119.382
 20
179.591
 11
119.649
 21
180.159
  0
LINE
  8
0
 10
119.649
 20
180.159
 11
119.843
 21
180.757
  0
LINE
  8
0
 10
119.843
 20
180.757
 11
119.961
 21
181.373
  0
LINE
  8
0
 10
119.961
 20
181.373
 11
120
 21
182
  0
LINE
  8
0
 10
120
 20
182
 11
120
 21
232
  0
LINE
  8
0
 10
120
 20
232
 11
119.961
 21
232.627
  0
LINE
  8
0
 10
119.961
 20
232.627
 11
119.843
 21
233.243
  0
LINE
  8
0
 10
119.843
 20
233.243
 11
119.649
 21
233.841
  0
LINE
  8
0
 10
119.649
 20
233.841
 11
119.382
 21
234.409
  0
LINE
  8
0
 10
119.382
 20
234.409
 11
119.045
 21
234.939
  0
LINE
  8
0
 10
119.045
 20
234.939
 11
118.645
 21
235.423
  0
LINE
  8
0
 10
118.645
 20
235.423
 11
118.187
 21
235.853
  0
LINE
  8
0
 10
118.187
 20
235.853
 11
117.679
 21
236.222
  0
LINE
  8
0
 10
117.679
 20
236.222
 11
117.129
 21
236.524
  0
LINE
  8
0
 10
117.129
 20
236.524
 11
116.545
 21
236.755
  0
LINE
  8
0
 10
116.545
 20
236.755
 11
115.937
 21
236.911
  0
LINE
  8
0
 10
115.937
 20
236.911
 11
115.314
 21
236.99
  0
LINE
  8
0
 10
115.314
 20
236.99
 11
-115.314
 21
236.99
  0
LINE
  8
0
 10
-115.314
 20
236.99
 11
-115.937
 21
236.911
  0
LINE
  8
0
 10
-115.937
 20
236.911
 11
-116.545
 21
236.755
  0
LINE
  8
0
 10
-116.545
 20
236.755
 11
-117.129
 21
236.524
  0
LINE
  8
0
 10
-117.129
 20
236.524
 11
-117.679
 21
236.222
  0
LINE
  8
0
 10
-117.679
 20
236.222
 11
-118.187
 21
235.853
  0
LINE
  8
0
 10
-118.187
 20
235.853
 11
-118.645
 21
235.423
  0
LINE
  8
0
 10
-118.645
 20
235.423
 11
-119.045
 21
234.939
  0
LINE
  8
0
 10
-119.045
 20
234.939
 11
-119.382
 21
234.409
  0
LINE
  8
0
 10
-119.382
 20
234.409
 11
-119.649
 21
233.841
  0
LINE
  8
0
 10
-119.649
 20
233.841
 11
-119.843
 21
233.243
  0
LINE
  8
0
 10
-119.843
 20
233.243
 11
-119.961
 21
232.627
  0
LINE
  8
0
 10
-119.961
 20
232.627
 11
-120
 21
232
  0
LINE
  8
0
 10
-120
 20
232
 11
-120
 21
182
  0
LINE
  8
0
 10
-120
 20
182
 11
-119.961
 21
181.373
  0
LINE
  8
0
 10
-119.961
 20
181.373
 11
-119.843
 21
180.757
  0
LINE
  8
0
 10
-119.843
 20
180.757
 11
-119.649
 21
180.159
  0
LINE
  8
0
 10
-119.649
 20
180.159
 11
-119.382
 21
179.591
  0
LINE
  8
0
 10
-119.382
 20
179.591
 11
-119.045
 21
179.061
  0
LINE
  8
0
 10
-119.045
 20
179.061
 11
-118.645
 21
178.577
  0
LINE
  8
0
 10
-118.645
 20
178.577
 11
-118.187
 21
178.147
  0
LINE
  8
0
 10
-118.187
 20
178.147
 11
-117.679
 21
177.778
  0
LINE
  8
0
 10
-117.679
 20
177.778
 11
-117.129
 21
177.476
  0
LINE
  8
0
 10
-117.129
 20
177.476
 11
-116.545
 21
177.245
  0
LINE
  8
0
 10
-116.545
 20
177.245
 11
-115.937
 21
177.089
  0
LINE
  8
0
 10
-115.937
 20
177.089
 11
-115.314
 21
177.01
  0
LINE
  8
0
 10
-115.314
 20
177.01
 11
115.314
 21
177.01
  0
LINE
  8
0
 10
115.314
 20
177.01
 11
115.937
 21
177.089
  0
LINE
  8
0
 10
-114.882
 20
180.145
 11
-115.145
 21
180.178
  0
LINE
  8
0
 10
-115.145
 20
180.178
 11
-115.402
 21
180.244
  0
LINE
  8
0
 10
-115.402
 20
180.244
 11
-115.648
 21
180.341
  0
LINE
  8
0
 10
-115.648
 20
180.341
 11
-115.88
 21
180.469
  0
LINE
  8
0
 10
-115.88
 20
180.469
 11
-116.095
 21
180.625
  0
LINE
  8
0
 10
-116.095
 20
180.625
 11
-116.288
 21
180.806
  0
LINE
  8
0
 10
-116.288
 20
180.806
 11
-116.457
 21
181.01
  0
LINE
  8
0
 10
-116.457
 20
181.01
 11
-116.599
 21
181.234
  0
LINE
  8
0
 10
-116.599
 20
181.234
 11
-116.711
 21
181.473
  0
LINE
  8
0
 10
-116.711
 20
181.473
 11
-116.793
 21
181.725
  0
LINE
  8
0
 10
-116.793
 20
181.725
 11
-116.843
 21
181.986
  0
LINE
  8
0
 10
-116.843
 20
181.986
 11
-116.86
 21
182.25
  0
LINE
  8
0
 10
-116.86
 20
182.25
 11
-116.86
 21
231.75
  0
LINE
  8
0
 10
-116.86
 20
231.75
 11
-116.843
 21
232.014
  0
LINE
  8
0
 10
-116.843
 20
232.014
 11
-116.793
 21
232.275
  0
LINE
  8
0
 10
-116.793
 20
232.275
 11
-116.711
 21
232.527
  0
LINE
  8
0
 10
-116.711
 20
232.527
 11
-116.599
 21
232.766
  0
LINE
  8
0
 10
-116.599
 20
232.766
 11
-116.457
 21
232.99
  0
LINE
  8
0
 10
-116.457
 20
232.99
 11
-116.288
 21
233.194
  0
LINE
  8
0
 10
-116.288
 20
233.194
 11
-116.095
 21
233.375
  0
LINE
  8
0
 10
-116.095
 20
233.375
 11
-115.88
 21
233.531
  0
LINE
  8
0
 10
-115.88
 20
233.531
 11
-115.648
 21
233.659
  0
LINE
  8
0
 10
-115.648
 20
233.659
 11
-115.402
 21
233.756
  0
LINE
  8
0
 10
-115.402
 20
233.756
 11
-115.145
 21
233.822
  0
LINE
  8
0
 10
-115.145
 20
233.822
 11
-114.882
 21
233.855
  0
LINE
  8
0
 10
-114.882
 20
233.855
 11
114.882
 21
233.855
  0
LINE
  8
0
 10
114.882
 20
233.855
 11
115.145
 21
233.822
  0
LINE
  8
0
 10
115.145
 20
233.822
 11
115.402
 21
233.756
  0
LINE
  8
0
 10
115.402
 20
233.756
 11
115.648
 21
233.659
  0
LINE
  8
0
 10
115.648
 20
233.659
 11
115.88
 21
233.531
  0
LINE
  8
0
 10
115.88
 20
233.531
 11
116.095
 21
233.375
  0
LINE
  8
0
 10
116.095
 20
233.375
 11
116.288
 21
233.194
  0
LINE
  8
0
 10
116.288
 20
233.194
 11
116.457
 21
232.99
  0
LINE
  8
0
 10
116.457
 20
232.99
 11
116.599
 21
232.766
  0
LINE
  8
0
 10
116.599
 20
232.766
 11
116.711
 21
232.527
  0
LINE
  8
0
 10
116.711
 20
232.527
 11
116.793
 21
232.275
  0
LINE
  8
0
 10
116.793
 20
232.275
 11
116.843
 21
232.014
  0
LINE
  8
0
 10
116.843
 20
232.014
 11
116.86
 21
231.75
  0
LINE
  8
0
 10
116.86
 20
231.75
 11
116.86
 21
182.25
  0
LINE
  8
0
 10
116.86
 20
182.25
 11
116.843
 21
181.986
  0
LINE
  8
0
 10
116.843
 20
181.986
 11
116.793
 21
181.725
  0
LINE
  8
0
 10
116.793
 20
181.725
 11
116.711
 21
181.473
  0
LINE
  8
0
 10
116.711
 20
181.473
 11
116.599
 21
181.234
  0
LINE
  8
0
 10
116.599
 20
181.234
 11
116.457
 21
181.01
  0
LINE
  8
0
 10
116.457
 20
181.01
 11
116.288
 21
180.806
  0
LINE
  8
0
 10
116.288
 20
180.806
 11
116.095
 21
180.625
  0
LINE
  8
0
 10
116.095
 20
180.625
 11
115.88
 21
180.469
  0
LINE
  8
0
 10
115.88
 20
180.469
 11
115.648
 21
180.341
  0
LINE
  8
0
 10
115.648
 20
180.341
 11
115.402
 21
180.244
  0
LINE
  8
0
 10
115.402
 20
180.244
 11
115.145
 21
180.178
  0
LINE
  8
0
 10
115.145
 20
180.178
 11
114.882
 21
180.145
  0
LINE
  8
0
 10
114.882
 20
180.145
 11
-114.882
 21
180.145
  0
ENDSEC
  0
SECTION
  2
OBJECTS
  0
DICTIONARY
  0
ENDSEC
  0
EOF
