<?xml version="1.0" standalone="no"?>
<!DOCTYPE svg PUBLIC "-//W3C//DTD SVG 1.1//EN" "http://www.w3.org/Graphics/SVG/1.1/DTD/svg11.dtd">
<svg width="240mm" height="198mm" viewBox="-120 -375 240 198" xmlns="http://www.w3.org/2000/svg" version="1.1">
<title>OpenSCAD Model</title>
<path d="
M 115.937,-315.089 L 116.545,-315.245 L 117.129,-315.476 L 117.679,-315.778 L 118.187,-316.147 L 118.645,-316.577
 L 119.045,-317.061 L 119.382,-317.591 L 119.649,-318.159 L 119.843,-318.757 L 119.961,-319.373 L 120,-320
 L 120,-370 L 119.961,-370.627 L 119.843,-371.243 L 119.649,-371.841 L 119.382,-372.409 L 119.045,-372.939
 L 118.645,-373.423 L 118.187,-373.853 L 117.679,-374.222 L 117.129,-374.524 L 116.545,-374.755 L 115.937,-374.911
 L 115.314,-374.99 L -115.314,-374.99 L -115.937,-374.911 L -116.545,-374.755 L -117.129,-374.524 L -117.679,-374.222
 L -118.187,-373.853 L -118.645,-373.423 L -119.045,-372.939 L -119.382,-372.409 L -119.649,-371.841 L -119.843,-371.243
 L -119.961,-370.627 L -120,-370 L -120,-320 L -119.961,-319.373 L -119.843,-318.757 L -119.649,-318.159
 L -119.382,-317.591 L -119.045,-317.061 L -118.645,-316.577 L -118.187,-316.147 L -117.679,-315.778 L -117.129,-315.476
 L -116.545,-315.245 L -115.937,-315.089 L -115.314,-315.01 L 115.314,-315.01 z
M -115.048,-315.509 L -115.64,-315.584 L -116.218,-315.732 L -116.772,-315.952 L -117.295,-316.239 L -117.778,-316.59
 L -118.213,-316.998 L -118.593,-317.458 L -118.912,-317.962 L -119.166,-318.501 L -119.351,-319.069 L -119.463,-319.655
 L -119.5,-320.25 L -119.5,-369.75 L -119.463,-370.345 L -119.351,-370.931 L -119.166,-371.499 L -118.912,-372.038
 L -118.593,-372.542 L -118.213,-373.002 L -117.778,-373.41 L -117.295,-373.761 L -116.772,-374.048 L -116.218,-374.268
 L -115.64,-374.416 L -115.048,-374.491 L 115.048,-374.491 L 115.64,-374.416 L 116.218,-374.268 L 116.772,-374.048
 L 117.295,-373.761 L 117.778,-373.41 L 118.213,-373.002 L 118.593,-372.542 L 118.912,-372.038 L 119.166,-371.499
 L 119.351,-370.931 L 119.463,-370.345 L 119.5,-369.75 L 119.5,-320.25 L 119.463,-319.655 L 119.351,-319.069
 L 119.166,-318.501 L 118.912,-317.962 L 118.593,-317.458 L 118.213,-316.998 L 117.778,-316.59 L 117.295,-316.239
 L 116.772,-315.952 L 116.218,-315.732 L 115.64,-315.584 L 115.048,-315.509 z
M 115.937,-246.089 L 116.545,-246.245 L 117.129,-246.476 L 117.679,-246.778 L 118.187,-247.147 L 118.645,-247.577
 L 119.045,-248.061 L 119.382,-248.591 L 119.649,-249.159 L 119.843,-249.757 L 119.961,-250.373 L 120,-251
 L 120,-301 L 119.961,-301.627 L 119.843,-302.243 L 119.649,-302.841 L 119.382,-303.409 L 119.045,-303.939
 L 118.645,-304.423 L 118.187,-304.853 L 117.679,-305.222 L 117.129,-305.524 L 116.545,-305.755 L 115.937,-305.911
 L 115.314,-305.99 L -115.314,-305.99 L -115.937,-305.911 L -116.545,-305.755 L -117.129,-305.524 L -117.679,-305.222
 L -118.187,-304.853 L -118.645,-304.423 L -119.045,-303.939 L -119.382,-303.409 L -119.649,-302.841 L -119.843,-302.243
 L -119.961,-301.627 L -120,-301 L -120,-251 L -119.961,-250.373 L -119.843,-249.757 L -119.649,-249.159
 L -119.382,-248.591 L -119.045,-248.061 L -118.645,-247.577 L -118.187,-247.147 L -117.679,-246.778 L -117.129,-246.476
 L -116.545,-246.245 L -115.937,-246.089 L -115.314,-246.01 L 115.314,-246.01 z
M -115.037,-246.681 L -115.608,-246.753 L -116.165,-246.896 L -116.699,-247.107 L -117.203,-247.384 L -117.668,-247.722
 L -118.088,-248.116 L -118.454,-248.559 L -118.762,-249.044 L -119.007,-249.565 L -119.185,-250.111 L -119.292,-250.676
 L -119.328,-251.25 L -119.328,-300.75 L -119.292,-301.324 L -119.185,-301.889 L -119.007,-302.435 L -118.762,-302.956
 L -118.454,-303.441 L -118.088,-303.884 L -117.668,-304.278 L -117.203,-304.616 L -116.699,-304.893 L -116.165,-305.104
 L -115.608,-305.247 L -115.037,-305.319 L 115.037,-305.319 L 115.608,-305.247 L 116.165,-305.104 L 116.699,-304.893
 L 117.203,-304.616 L 117.668,-304.278 L 118.088,-303.884 L 118.454,-303.441 L 118.762,-302.956 L 119.007,-302.435
 L 119.185,-301.889 L 119.292,-301.324 L 119.328,-300.75 L 119.328,-251.25 L 119.292,-250.676 L 119.185,-250.111
 L 119.007,-249.565 L 118.762,-249.044 L 118.454,-248.559 L 118.088,-248.116 L 117.668,-247.722 L 117.203,-247.384
 L 116.699,-247.107 L 116.165,-246.896 L 115.608,-246.753 L 115.037,-246.681 z
M 115.937,-177.089 L 116.545,-177.245 L 117.129,-177.476 L 117.679,-177.778 L 118.187,-178.147 L 118.645,-178.577
 L 119.045,-179.061 L 119.382,-179.591 L 119.649,-180.159 L 119.843,-180.757 L 119.961,-181.373 L 120,-182
 L 120,-232 L 119.961,-232.627 L 119.843,-233.243 L 119.649,-233.841 L 119.382,-234.409 L 119.045,-234.939
 L 118.645,-235.423 L 118.187,-235.853 L 117.679,-236.222 L 117.129,-236.524 L 116.545,-236.755 L 115.937,-236.911
 L 115.314,-236.99 L -115.314,-236.99 L -115.937,-236.911 L -116.545,-236.755 L -117.129,-236.524 L -117.679,-236.222
 L -118.187,-235.853 L -118.645,-235.423 L -119.045,-234.939 L -119.382,-234.409 L -119.649,-233.841 L -119.843,-233.243
 L -119.961,-232.627 L -120,-232 L -120,-182 L -119.961,-181.373 L -119.843,-180.757 L -119.649,-180.159
 L -119.382,-179.591 L -119.045,-179.061 L -118.645,-178.577 L -118.187,-178.147 L -117.679,-177.778 L -117.129,-177.476
 L -116.545,-177.245 L -115.937,-177.089 L -115.314,-177.01 L 115.314,-177.01 z
M -114.882,-180.145 L -115.145,-180.178 L -115.402,-180.244 L -115.648,-180.341 L -115.88,-180.469 L -116.095,-180.625
 L -116.288,-180.806 L -116.457,-181.01 L -116.599,-181.234 L -116.711,-181.473 L -116.793,-181.725 L -116.843,-181.986
 L -116.86,-182.25 L -116.86,-231.75 L -116.843,-232.014 L -116.793,-232.275 L -116.711,-232.527 L -116.599,-232.766
 L -116.457,-232.99 L -116.288,-233.194 L -116.095,-233.375 L -115.88,-233.531 L -115.648,-233.659 L -115.402,-233.756
 L -115.145,-233.822 L -114.882,-233.855 L 114.882,-233.855 L 115.145,-233.822 L 115.402,-233.756 L 115.648,-233.659
 L 115.88,-233.531 L 116.095,-233.375 L 116.288,-233.194 L 116.457,-232.99 L 116.599,-232.766 L 116.711,-232.527
 L 116.793,-232.275 L 116.843,-232.014 L 116.86,-231.75 L 116.86,-182.25 L 116.843,-181.986 L 116.793,-181.725
 L 116.711,-181.473 L 116.599,-181.234 L 116.457,-181.01 L 116.288,-180.806 L 116.095,-180.625 L 115.88,-180.469
 L 115.648,-180.341 L 115.402,-180.244 L 115.145,-180.178 L 114.882,-180.145 z
" stroke="black" fill="lightgray" stroke-width="0.5"/>
</svg>
