<?xml version="1.0" standalone="no"?>
<!DOCTYPE svg PUBLIC "-//W3C//DTD SVG 1.1//EN" "http://www.w3.org/Graphics/SVG/1.1/DTD/svg11.dtd">
<svg width="302mm" height="688mm" viewBox="-152 -1301 302 688" xmlns="http://www.w3.org/2000/svg" version="1.1">
<title>OpenSCAD Model</title>
<path d="
M -148.5,-1136.94 L -148.187,-1136.65 L -147.679,-1136.28 L -147.129,-1135.98 L -146.545,-1135.74 L -145.937,-1135.59
 L -145.314,-1135.51 L 145.314,-1135.51 L 145.937,-1135.59 L 146.545,-1135.74 L 147.129,-1135.98 L 147.679,-1136.28
 L 148.187,-1136.65 L 148.645,-1137.08 L 149.045,-1137.56 L 149.382,-1138.09 L 149.649,-1138.66 L 149.843,-1139.26
 L 149.961,-1139.87 L 150,-1140.5 L 150,-1295.5 L 149.961,-1296.13 L 149.843,-1296.74 L 149.649,-1297.34
 L 149.382,-1297.91 L 149.045,-1298.44 L 148.645,-1298.92 L 148.187,-1299.35 L 147.679,-1299.72 L 147.129,-1300.02
 L 146.545,-1300.26 L 145.937,-1300.41 L 145.314,-1300.49 L -145.314,-1300.49 L -145.937,-1300.41 L -146.545,-1300.26
 L -147.129,-1300.02 L -147.679,-1299.72 L -148.187,-1299.35 L -148.5,-1299.06 L -148.5,-1300.49 L -151.5,-1300.49
 L -151.5,-1135.51 L -148.5,-1135.51 z
M -144.751,-1137.01 L -145.25,-1137.07 L -145.736,-1137.2 L -146.203,-1137.38 L -146.643,-1137.62 L -147.05,-1137.92
 L -147.416,-1138.26 L -147.736,-1138.65 L -148.005,-1139.07 L -148.219,-1139.53 L -148.374,-1140.01 L -148.468,-1140.5
 L -148.5,-1141 L -148.5,-1295 L -148.468,-1295.5 L -148.374,-1295.99 L -148.219,-1296.47 L -148.005,-1296.93
 L -147.736,-1297.35 L -147.416,-1297.74 L -147.05,-1298.08 L -146.643,-1298.38 L -146.203,-1298.62 L -145.736,-1298.8
 L -145.25,-1298.93 L -144.751,-1298.99 L 144.751,-1298.99 L 145.25,-1298.93 L 145.736,-1298.8 L 146.203,-1298.62
 L 146.643,-1298.38 L 147.05,-1298.08 L 147.416,-1297.74 L 147.736,-1297.35 L 148.005,-1296.93 L 148.219,-1296.47
 L 148.374,-1295.99 L 148.468,-1295.5 L 148.5,-1295 L 148.5,-1141 L 148.468,-1140.5 L 148.374,-1140.01
 L 148.219,-1139.53 L 148.005,-1139.07 L 147.736,-1138.65 L 147.416,-1138.26 L 147.05,-1137.92 L 146.643,-1137.62
 L 146.203,-1137.38 L 145.736,-1137.2 L 145.25,-1137.07 L 144.751,-1137.01 z
M -148.5,-962.941 L -148.187,-962.647 L -147.679,-962.278 L -147.129,-961.976 L -146.545,-961.745 L -145.937,-961.589
 L -145.314,-961.51 L 145.314,-961.51 L 145.937,-961.589 L 146.545,-961.745 L 147.129,-961.976 L 147.679,-962.278
 L 148.187,-962.647 L 148.645,-963.077 L 149.045,-963.561 L 149.382,-964.091 L 149.649,-964.659 L 149.843,-965.257
 L 149.961,-965.873 L 150,-966.5 L 150,-1121.5 L 149.961,-1122.13 L 149.843,-1122.74 L 149.649,-1123.34
 L 149.382,-1123.91 L 149.045,-1124.44 L 148.645,-1124.92 L 148.187,-1125.35 L 147.679,-1125.72 L 147.129,-1126.02
 L 146.545,-1126.26 L 145.937,-1126.41 L 145.314,-1126.49 L -145.314,-1126.49 L -145.937,-1126.41 L -146.545,-1126.26
 L -147.129,-1126.02 L -147.679,-1125.72 L -148.187,-1125.35 L -148.5,-1125.06 L -148.5,-1126.49 L -151.5,-1126.49
 L -151.5,-961.51 L -148.5,-961.51 z
M -144.751,-963.008 L -145.25,-963.071 L -145.736,-963.196 L -146.203,-963.381 L -146.643,-963.623 L -147.05,-963.918
 L -147.416,-964.262 L -147.736,-964.649 L -148.005,-965.073 L -148.219,-965.528 L -148.374,-966.005 L -148.468,-966.499
 L -148.5,-967 L -148.5,-1121 L -148.468,-1121.5 L -148.374,-1121.99 L -148.219,-1122.47 L -148.005,-1122.93
 L -147.736,-1123.35 L -147.416,-1123.74 L -147.05,-1124.08 L -146.643,-1124.38 L -146.203,-1124.62 L -145.736,-1124.8
 L -145.25,-1124.93 L -144.751,-1124.99 L 144.751,-1124.99 L 145.25,-1124.93 L 145.736,-1124.8 L 146.203,-1124.62
 L 146.643,-1124.38 L 147.05,-1124.08 L 147.416,-1123.74 L 147.736,-1123.35 L 148.005,-1122.93 L 148.219,-1122.47
 L 148.374,-1121.99 L 148.468,-1121.5 L 148.5,-1121 L 148.5,-967 L 148.468,-966.499 L 148.374,-966.005
 L 148.219,-965.528 L 148.005,-965.073 L 147.736,-964.649 L 147.416,-964.262 L 147.05,-963.918 L 146.643,-963.623
 L 146.203,-963.381 L 145.736,-963.196 L 145.25,-963.071 L 144.751,-963.008 z
M 145.937,-787.589 L 146.545,-787.745 L 147.129,-787.976 L 147.679,-788.278 L 148.187,-788.647 L 148.645,-789.077
 L 149.045,-789.561 L 149.382,-790.091 L 149.649,-790.659 L 149.843,-791.257 L 149.961,-791.873 L 150,-792.5
 L 150,-947.5 L 149.961,-948.127 L 149.843,-948.743 L 149.649,-949.341 L 149.382,-949.909 L 149.045,-950.439
 L 148.645,-950.923 L 148.187,-951.353 L 147.679,-951.722 L 147.129,-952.024 L 146.545,-952.255 L 145.937,-952.411
 L 145.314,-952.49 L -145.314,-952.49 L -145.937,-952.411 L -146.545,-952.255 L -147.129,-952.024 L -147.679,-951.722
 L -148.187,-951.353 L -148.5,-951.059 L -148.5,-952.479 L -151.5,-952.479 L -151.5,-787.521 L -148.5,-787.521
 L -148.5,-788.941 L -148.187,-788.647 L -147.679,-788.278 L -147.129,-787.976 L -146.545,-787.745 L -145.937,-787.589
 L -145.314,-787.51 L 145.314,-787.51 z
M -144.695,-789.893 L -145.083,-789.942 L -145.462,-790.039 L -145.825,-790.183 L -146.168,-790.372 L -146.484,-790.601
 L -146.769,-790.869 L -147.018,-791.17 L -147.228,-791.5 L -147.394,-791.854 L -147.515,-792.226 L -147.588,-792.61
 L -147.613,-793 L -147.613,-947 L -147.588,-947.39 L -147.515,-947.774 L -147.394,-948.146 L -147.228,-948.5
 L -147.018,-948.83 L -146.769,-949.131 L -146.484,-949.399 L -146.168,-949.628 L -145.825,-949.817 L -145.462,-949.961
 L -145.083,-950.058 L -144.695,-950.107 L 144.695,-950.107 L 145.083,-950.058 L 145.462,-949.961 L 145.825,-949.817
 L 146.168,-949.628 L 146.484,-949.399 L 146.769,-949.131 L 147.018,-948.83 L 147.228,-948.5 L 147.394,-948.146
 L 147.515,-947.774 L 147.588,-947.39 L 147.613,-947 L 147.613,-793 L 147.588,-792.61 L 147.515,-792.226
 L 147.394,-791.854 L 147.228,-791.5 L 147.018,-791.17 L 146.769,-790.869 L 146.484,-790.601 L 146.168,-790.372
 L 145.825,-790.183 L 145.462,-790.039 L 145.083,-789.942 L 144.695,-789.893 z
M 145.937,-613.589 L 146.545,-613.745 L 147.129,-613.976 L 147.679,-614.278 L 148.187,-614.647 L 148.645,-615.077
 L 149.045,-615.561 L 149.382,-616.091 L 149.649,-616.659 L 149.843,-617.257 L 149.961,-617.873 L 150,-618.5
 L 150,-773.5 L 149.961,-774.127 L 149.843,-774.743 L 149.649,-775.341 L 149.382,-775.909 L 149.045,-776.439
 L 148.645,-776.923 L 148.187,-777.353 L 147.679,-777.722 L 147.129,-778.024 L 146.545,-778.255 L 145.937,-778.411
 L 145.314,-778.49 L -145.314,-778.49 L -145.937,-778.411 L -146.545,-778.255 L -147.129,-778.024 L -147.679,-777.722
 L -148.187,-777.353 L -148.5,-777.059 L -148.5,-777.153 L -151.5,-777.153 L -151.5,-614.847 L -148.5,-614.847
 L -148.5,-614.941 L -148.187,-614.647 L -147.679,-614.278 L -147.129,-613.976 L -146.545,-613.745 L -145.937,-613.589
 L -145.314,-613.51 L 145.314,-613.51 z
M -142.634,-768.869 L -142.9,-768.903 L -143.16,-768.969 L -143.409,-769.068 L -143.644,-769.197 L -143.861,-769.355
 L -144.057,-769.538 L -144.227,-769.745 L -144.371,-769.971 L -144.485,-770.214 L -144.568,-770.469 L -144.618,-770.732
 L -144.635,-771 L -144.618,-771.268 L -144.568,-771.531 L -144.485,-771.786 L -144.371,-772.029 L -144.227,-772.255
 L -144.057,-772.462 L -143.861,-772.645 L -143.644,-772.803 L -143.409,-772.932 L -143.16,-773.031 L -142.9,-773.097
 L -142.634,-773.131 L -142.366,-773.131 L -142.1,-773.097 L -141.84,-773.031 L -141.591,-772.932 L -141.356,-772.803
 L -141.139,-772.645 L -140.943,-772.462 L -140.773,-772.255 L -140.629,-772.029 L -140.515,-771.786 L -140.432,-771.531
 L -140.382,-771.268 L -140.365,-771 L -140.382,-770.732 L -140.432,-770.469 L -140.515,-770.214 L -140.629,-769.971
 L -140.773,-769.745 L -140.943,-769.538 L -141.139,-769.355 L -141.356,-769.197 L -141.591,-769.068 L -141.84,-768.969
 L -142.1,-768.903 L -142.366,-768.869 z
M 142.366,-768.869 L 142.1,-768.903 L 141.84,-768.969 L 141.591,-769.068 L 141.356,-769.197 L 141.139,-769.355
 L 140.943,-769.538 L 140.773,-769.745 L 140.629,-769.971 L 140.515,-770.214 L 140.432,-770.469 L 140.382,-770.732
 L 140.365,-771 L 140.382,-771.268 L 140.432,-771.531 L 140.515,-771.786 L 140.629,-772.029 L 140.773,-772.255
 L 140.943,-772.462 L 141.139,-772.645 L 141.356,-772.803 L 141.591,-772.932 L 141.84,-773.031 L 142.1,-773.097
 L 142.366,-773.131 L 142.634,-773.131 L 142.9,-773.097 L 143.16,-773.031 L 143.409,-772.932 L 143.644,-772.803
 L 143.861,-772.645 L 144.057,-772.462 L 144.227,-772.255 L 144.371,-772.029 L 144.485,-771.786 L 144.568,-771.531
 L 144.618,-771.268 L 144.635,-771 L 144.618,-770.732 L 144.568,-770.469 L 144.485,-770.214 L 144.371,-769.971
 L 144.227,-769.745 L 144.057,-769.538 L 143.861,-769.355 L 143.644,-769.197 L 143.409,-769.068 L 143.16,-768.969
 L 142.9,-768.903 L 142.634,-768.869 z
M -142.634,-618.869 L -142.9,-618.903 L -143.16,-618.969 L -143.409,-619.068 L -143.644,-619.197 L -143.861,-619.355
 L -144.057,-619.538 L -144.227,-619.745 L -144.371,-619.971 L -144.485,-620.214 L -144.568,-620.469 L -144.618,-620.732
 L -144.635,-621 L -144.618,-621.268 L -144.568,-621.531 L -144.485,-621.786 L -144.371,-622.029 L -144.227,-622.255
 L -144.057,-622.462 L -143.861,-622.645 L -143.644,-622.803 L -143.409,-622.932 L -143.16,-623.031 L -142.9,-623.097
 L -142.634,-623.131 L -142.366,-623.131 L -142.1,-623.097 L -141.84,-623.031 L -141.591,-622.932 L -141.356,-622.803
 L -141.139,-622.645 L -140.943,-622.462 L -140.773,-622.255 L -140.629,-622.029 L -140.515,-621.786 L -140.432,-621.531
 L -140.382,-621.268 L -140.365,-621 L -140.382,-620.732 L -140.432,-620.469 L -140.515,-620.214 L -140.629,-619.971
 L -140.773,-619.745 L -140.943,-619.538 L -141.139,-619.355 L -141.356,-619.197 L -141.591,-619.068 L -141.84,-618.969
 L -142.1,-618.903 L -142.366,-618.869 z
M 142.366,-618.869 L 142.1,-618.903 L 141.84,-618.969 L 141.591,-619.068 L 141.356,-619.197 L 141.139,-619.355
 L 140.943,-619.538 L 140.773,-619.745 L 140.629,-619.971 L 140.515,-620.214 L 140.432,-620.469 L 140.382,-620.732
 L 140.365,-621 L 140.382,-621.268 L 140.432,-621.531 L 140.515,-621.786 L 140.629,-622.029 L 140.773,-622.255
 L 140.943,-622.462 L 141.139,-622.645 L 141.356,-622.803 L 141.591,-622.932 L 141.84,-623.031 L 142.1,-623.097
 L 142.366,-623.131 L 142.634,-623.131 L 142.9,-623.097 L 143.16,-623.031 L 143.409,-622.932 L 143.644,-622.803
 L 143.861,-622.645 L 144.057,-622.462 L 144.227,-622.255 L 144.371,-622.029 L 144.485,-621.786 L 144.568,-621.531
 L 144.618,-621.268 L 144.635,-621 L 144.618,-620.732 L 144.568,-620.469 L 144.485,-620.214 L 144.371,-619.971
 L 144.227,-619.745 L 144.057,-619.538 L 143.861,-619.355 L 143.644,-619.197 L 143.409,-619.068 L 143.16,-618.969
 L 142.9,-618.903 L 142.634,-618.869 z
" stroke="black" fill="lightgray" stroke-width="0.5"/>
</svg>
