  0
SECTION
  2
BLOCKS
  0
ENDSEC
  0
SECTION
  2
ENTITIES
  0
LINE
  8
0
 10
-133.5
 20
1739.94
 11
-133.187
 21
1739.65
  0
LINE
  8
0
 10
-133.187
 20
1739.65
 11
-132.679
 21
1739.28
  0
LINE
  8
0
 10
-132.679
 20
1739.28
 11
-132.129
 21
1738.98
  0
LINE
  8
0
 10
-132.129
 20
1738.98
 11
-131.545
 21
1738.74
  0
LINE
  8
0
 10
-131.545
 20
1738.74
 11
-130.937
 21
1738.59
  0
LINE
  8
0
 10
-130.937
 20
1738.59
 11
-130.314
 21
1738.51
  0
LINE
  8
0
 10
-130.314
 20
1738.51
 11
130.314
 21
1738.51
  0
LINE
  8
0
 10
130.314
 20
1738.51
 11
130.937
 21
1738.59
  0
LINE
  8
0
 10
130.937
 20
1738.59
 11
131.545
 21
1738.74
  0
LINE
  8
0
 10
131.545
 20
1738.74
 11
132.129
 21
1738.98
  0
LINE
  8
0
 10
132.129
 20
1738.98
 11
132.679
 21
1739.28
  0
LINE
  8
0
 10
132.679
 20
1739.28
 11
133.187
 21
1739.65
  0
LINE
  8
0
 10
133.187
 20
1739.65
 11
133.645
 21
1740.08
  0
LINE
  8
0
 10
133.645
 20
1740.08
 11
134.045
 21
1740.56
  0
LINE
  8
0
 10
134.045
 20
1740.56
 11
134.382
 21
1741.09
  0
LINE
  8
0
 10
134.382
 20
1741.09
 11
134.649
 21
1741.66
  0
LINE
  8
0
 10
134.649
 20
1741.66
 11
134.843
 21
1742.26
  0
LINE
  8
0
 10
134.843
 20
1742.26
 11
134.961
 21
1742.87
  0
LINE
  8
0
 10
134.961
 20
1742.87
 11
135
 21
1743.5
  0
LINE
  8
0
 10
135
 20
1743.5
 11
135
 21
1928.5
  0
LINE
  8
0
 10
135
 20
1928.5
 11
134.961
 21
1929.13
  0
LINE
  8
0
 10
134.961
 20
1929.13
 11
134.843
 21
1929.74
  0
LINE
  8
0
 10
134.843
 20
1929.74
 11
134.649
 21
1930.34
  0
LINE
  8
0
 10
134.649
 20
1930.34
 11
134.382
 21
1930.91
  0
LINE
  8
0
 10
134.382
 20
1930.91
 11
134.045
 21
1931.44
  0
LINE
  8
0
 10
134.045
 20
1931.44
 11
133.645
 21
1931.92
  0
LINE
  8
0
 10
133.645
 20
1931.92
 11
133.187
 21
1932.35
  0
LINE
  8
0
 10
133.187
 20
1932.35
 11
132.679
 21
1932.72
  0
LINE
  8
0
 10
132.679
 20
1932.72
 11
132.129
 21
1933.02
  0
LINE
  8
0
 10
132.129
 20
1933.02
 11
131.545
 21
1933.26
  0
LINE
  8
0
 10
131.545
 20
1933.26
 11
130.937
 21
1933.41
  0
LINE
  8
0
 10
130.937
 20
1933.41
 11
130.314
 21
1933.49
  0
LINE
  8
0
 10
130.314
 20
1933.49
 11
-130.314
 21
1933.49
  0
LINE
  8
0
 10
-130.314
 20
1933.49
 11
-130.937
 21
1933.41
  0
LINE
  8
0
 10
-130.937
 20
1933.41
 11
-131.545
 21
1933.26
  0
LINE
  8
0
 10
-131.545
 20
1933.26
 11
-132.129
 21
1933.02
  0
LINE
  8
0
 10
-132.129
 20
1933.02
 11
-132.679
 21
1932.72
  0
LINE
  8
0
 10
-132.679
 20
1932.72
 11
-133.187
 21
1932.35
  0
LINE
  8
0
 10
-133.187
 20
1932.35
 11
-133.5
 21
1932.06
  0
LINE
  8
0
 10
-133.5
 20
1932.06
 11
-133.5
 21
1933.49
  0
LINE
  8
0
 10
-133.5
 20
1933.49
 11
-136.5
 21
1933.49
  0
LINE
  8
0
 10
-136.5
 20
1933.49
 11
-136.5
 21
1738.51
  0
LINE
  8
0
 10
-136.5
 20
1738.51
 11
-133.5
 21
1738.51
  0
LINE
  8
0
 10
-133.5
 20
1738.51
 11
-133.5
 21
1739.94
  0
LINE
  8
0
 10
-129.751
 20
1740.01
 11
-130.25
 21
1740.07
  0
LINE
  8
0
 10
-130.25
 20
1740.07
 11
-130.736
 21
1740.2
  0
LINE
  8
0
 10
-130.736
 20
1740.2
 11
-131.203
 21
1740.38
  0
LINE
  8
0
 10
-131.203
 20
1740.38
 11
-131.643
 21
1740.62
  0
LINE
  8
0
 10
-131.643
 20
1740.62
 11
-132.05
 21
1740.92
  0
LINE
  8
0
 10
-132.05
 20
1740.92
 11
-132.416
 21
1741.26
  0
LINE
  8
0
 10
-132.416
 20
1741.26
 11
-132.736
 21
1741.65
  0
LINE
  8
0
 10
-132.736
 20
1741.65
 11
-133.005
 21
1742.07
  0
LINE
  8
0
 10
-133.005
 20
1742.07
 11
-133.219
 21
1742.53
  0
LINE
  8
0
 10
-133.219
 20
1742.53
 11
-133.374
 21
1743.01
  0
LINE
  8
0
 10
-133.374
 20
1743.01
 11
-133.468
 21
1743.5
  0
LINE
  8
0
 10
-133.468
 20
1743.5
 11
-133.5
 21
1744
  0
LINE
  8
0
 10
-133.5
 20
1744
 11
-133.5
 21
1928
  0
LINE
  8
0
 10
-133.5
 20
1928
 11
-133.468
 21
1928.5
  0
LINE
  8
0
 10
-133.468
 20
1928.5
 11
-133.374
 21
1928.99
  0
LINE
  8
0
 10
-133.374
 20
1928.99
 11
-133.219
 21
1929.47
  0
LINE
  8
0
 10
-133.219
 20
1929.47
 11
-133.005
 21
1929.93
  0
LINE
  8
0
 10
-133.005
 20
1929.93
 11
-132.736
 21
1930.35
  0
LINE
  8
0
 10
-132.736
 20
1930.35
 11
-132.416
 21
1930.74
  0
LINE
  8
0
 10
-132.416
 20
1930.74
 11
-132.05
 21
1931.08
  0
LINE
  8
0
 10
-132.05
 20
1931.08
 11
-131.643
 21
1931.38
  0
LINE
  8
0
 10
-131.643
 20
1931.38
 11
-131.203
 21
1931.62
  0
LINE
  8
0
 10
-131.203
 20
1931.62
 11
-130.736
 21
1931.8
  0
LINE
  8
0
 10
-130.736
 20
1931.8
 11
-130.25
 21
1931.93
  0
LINE
  8
0
 10
-130.25
 20
1931.93
 11
-129.751
 21
1931.99
  0
LINE
  8
0
 10
-129.751
 20
1931.99
 11
129.751
 21
1931.99
  0
LINE
  8
0
 10
129.751
 20
1931.99
 11
130.25
 21
1931.93
  0
LINE
  8
0
 10
130.25
 20
1931.93
 11
130.736
 21
1931.8
  0
LINE
  8
0
 10
130.736
 20
1931.8
 11
131.203
 21
1931.62
  0
LINE
  8
0
 10
131.203
 20
1931.62
 11
131.643
 21
1931.38
  0
LINE
  8
0
 10
131.643
 20
1931.38
 11
132.05
 21
1931.08
  0
LINE
  8
0
 10
132.05
 20
1931.08
 11
132.416
 21
1930.74
  0
LINE
  8
0
 10
132.416
 20
1930.74
 11
132.736
 21
1930.35
  0
LINE
  8
0
 10
132.736
 20
1930.35
 11
133.005
 21
1929.93
  0
LINE
  8
0
 10
133.005
 20
1929.93
 11
133.219
 21
1929.47
  0
LINE
  8
0
 10
133.219
 20
1929.47
 11
133.374
 21
1928.99
  0
LINE
  8
0
 10
133.374
 20
1928.99
 11
133.468
 21
1928.5
  0
LINE
  8
0
 10
133.468
 20
1928.5
 11
133.5
 21
1928
  0
LINE
  8
0
 10
133.5
 20
1928
 11
133.5
 21
1744
  0
LINE
  8
0
 10
133.5
 20
1744
 11
133.468
 21
1743.5
  0
LINE
  8
0
 10
133.468
 20
1743.5
 11
133.374
 21
1743.01
  0
LINE
  8
0
 10
133.374
 20
1743.01
 11
133.219
 21
1742.53
  0
LINE
  8
0
 10
133.219
 20
1742.53
 11
133.005
 21
1742.07
  0
LINE
  8
0
 10
133.005
 20
1742.07
 11
132.736
 21
1741.65
  0
LINE
  8
0
 10
132.736
 20
1741.65
 11
132.416
 21
1741.26
  0
LINE
  8
0
 10
132.416
 20
1741.26
 11
132.05
 21
1740.92
  0
LINE
  8
0
 10
132.05
 20
1740.92
 11
131.643
 21
1740.62
  0
LINE
  8
0
 10
131.643
 20
1740.62
 11
131.203
 21
1740.38
  0
LINE
  8
0
 10
131.203
 20
1740.38
 11
130.736
 21
1740.2
  0
LINE
  8
0
 10
130.736
 20
1740.2
 11
130.25
 21
1740.07
  0
LINE
  8
0
 10
130.25
 20
1740.07
 11
129.751
 21
1740.01
  0
LINE
  8
0
 10
129.751
 20
1740.01
 11
-129.751
 21
1740.01
  0
LINE
  8
0
 10
-133.5
 20
1535.94
 11
-133.187
 21
1535.65
  0
LINE
  8
0
 10
-133.187
 20
1535.65
 11
-132.679
 21
1535.28
  0
LINE
  8
0
 10
-132.679
 20
1535.28
 11
-132.129
 21
1534.98
  0
LINE
  8
0
 10
-132.129
 20
1534.98
 11
-131.545
 21
1534.74
  0
LINE
  8
0
 10
-131.545
 20
1534.74
 11
-130.937
 21
1534.59
  0
LINE
  8
0
 10
-130.937
 20
1534.59
 11
-130.314
 21
1534.51
  0
LINE
  8
0
 10
-130.314
 20
1534.51
 11
130.314
 21
1534.51
  0
LINE
  8
0
 10
130.314
 20
1534.51
 11
130.937
 21
1534.59
  0
LINE
  8
0
 10
130.937
 20
1534.59
 11
131.545
 21
1534.74
  0
LINE
  8
0
 10
131.545
 20
1534.74
 11
132.129
 21
1534.98
  0
LINE
  8
0
 10
132.129
 20
1534.98
 11
132.679
 21
1535.28
  0
LINE
  8
0
 10
132.679
 20
1535.28
 11
133.187
 21
1535.65
  0
LINE
  8
0
 10
133.187
 20
1535.65
 11
133.645
 21
1536.08
  0
LINE
  8
0
 10
133.645
 20
1536.08
 11
134.045
 21
1536.56
  0
LINE
  8
0
 10
134.045
 20
1536.56
 11
134.382
 21
1537.09
  0
LINE
  8
0
 10
134.382
 20
1537.09
 11
134.649
 21
1537.66
  0
LINE
  8
0
 10
134.649
 20
1537.66
 11
134.843
 21
1538.26
  0
LINE
  8
0
 10
134.843
 20
1538.26
 11
134.961
 21
1538.87
  0
LINE
  8
0
 10
134.961
 20
1538.87
 11
135
 21
1539.5
  0
LINE
  8
0
 10
135
 20
1539.5
 11
135
 21
1724.5
  0
LINE
  8
0
 10
135
 20
1724.5
 11
134.961
 21
1725.13
  0
LINE
  8
0
 10
134.961
 20
1725.13
 11
134.843
 21
1725.74
  0
LINE
  8
0
 10
134.843
 20
1725.74
 11
134.649
 21
1726.34
  0
LINE
  8
0
 10
134.649
 20
1726.34
 11
134.382
 21
1726.91
  0
LINE
  8
0
 10
134.382
 20
1726.91
 11
134.045
 21
1727.44
  0
LINE
  8
0
 10
134.045
 20
1727.44
 11
133.645
 21
1727.92
  0
LINE
  8
0
 10
133.645
 20
1727.92
 11
133.187
 21
1728.35
  0
LINE
  8
0
 10
133.187
 20
1728.35
 11
132.679
 21
1728.72
  0
LINE
  8
0
 10
132.679
 20
1728.72
 11
132.129
 21
1729.02
  0
LINE
  8
0
 10
132.129
 20
1729.02
 11
131.545
 21
1729.26
  0
LINE
  8
0
 10
131.545
 20
1729.26
 11
130.937
 21
1729.41
  0
LINE
  8
0
 10
130.937
 20
1729.41
 11
130.314
 21
1729.49
  0
LINE
  8
0
 10
130.314
 20
1729.49
 11
-130.314
 21
1729.49
  0
LINE
  8
0
 10
-130.314
 20
1729.49
 11
-130.937
 21
1729.41
  0
LINE
  8
0
 10
-130.937
 20
1729.41
 11
-131.545
 21
1729.26
  0
LINE
  8
0
 10
-131.545
 20
1729.26
 11
-132.129
 21
1729.02
  0
LINE
  8
0
 10
-132.129
 20
1729.02
 11
-132.679
 21
1728.72
  0
LINE
  8
0
 10
-132.679
 20
1728.72
 11
-133.187
 21
1728.35
  0
LINE
  8
0
 10
-133.187
 20
1728.35
 11
-133.5
 21
1728.06
  0
LINE
  8
0
 10
-133.5
 20
1728.06
 11
-133.5
 21
1729.49
  0
LINE
  8
0
 10
-133.5
 20
1729.49
 11
-136.5
 21
1729.49
  0
LINE
  8
0
 10
-136.5
 20
1729.49
 11
-136.5
 21
1534.51
  0
LINE
  8
0
 10
-136.5
 20
1534.51
 11
-133.5
 21
1534.51
  0
LINE
  8
0
 10
-133.5
 20
1534.51
 11
-133.5
 21
1535.94
  0
LINE
  8
0
 10
-129.751
 20
1536.01
 11
-130.25
 21
1536.07
  0
LINE
  8
0
 10
-130.25
 20
1536.07
 11
-130.736
 21
1536.2
  0
LINE
  8
0
 10
-130.736
 20
1536.2
 11
-131.203
 21
1536.38
  0
LINE
  8
0
 10
-131.203
 20
1536.38
 11
-131.643
 21
1536.62
  0
LINE
  8
0
 10
-131.643
 20
1536.62
 11
-132.05
 21
1536.92
  0
LINE
  8
0
 10
-132.05
 20
1536.92
 11
-132.416
 21
1537.26
  0
LINE
  8
0
 10
-132.416
 20
1537.26
 11
-132.736
 21
1537.65
  0
LINE
  8
0
 10
-132.736
 20
1537.65
 11
-133.005
 21
1538.07
  0
LINE
  8
0
 10
-133.005
 20
1538.07
 11
-133.219
 21
1538.53
  0
LINE
  8
0
 10
-133.219
 20
1538.53
 11
-133.374
 21
1539.01
  0
LINE
  8
0
 10
-133.374
 20
1539.01
 11
-133.468
 21
1539.5
  0
LINE
  8
0
 10
-133.468
 20
1539.5
 11
-133.5
 21
1540
  0
LINE
  8
0
 10
-133.5
 20
1540
 11
-133.5
 21
1724
  0
LINE
  8
0
 10
-133.5
 20
1724
 11
-133.468
 21
1724.5
  0
LINE
  8
0
 10
-133.468
 20
1724.5
 11
-133.374
 21
1724.99
  0
LINE
  8
0
 10
-133.374
 20
1724.99
 11
-133.219
 21
1725.47
  0
LINE
  8
0
 10
-133.219
 20
1725.47
 11
-133.005
 21
1725.93
  0
LINE
  8
0
 10
-133.005
 20
1725.93
 11
-132.736
 21
1726.35
  0
LINE
  8
0
 10
-132.736
 20
1726.35
 11
-132.416
 21
1726.74
  0
LINE
  8
0
 10
-132.416
 20
1726.74
 11
-132.05
 21
1727.08
  0
LINE
  8
0
 10
-132.05
 20
1727.08
 11
-131.643
 21
1727.38
  0
LINE
  8
0
 10
-131.643
 20
1727.38
 11
-131.203
 21
1727.62
  0
LINE
  8
0
 10
-131.203
 20
1727.62
 11
-130.736
 21
1727.8
  0
LINE
  8
0
 10
-130.736
 20
1727.8
 11
-130.25
 21
1727.93
  0
LINE
  8
0
 10
-130.25
 20
1727.93
 11
-129.751
 21
1727.99
  0
LINE
  8
0
 10
-129.751
 20
1727.99
 11
129.751
 21
1727.99
  0
LINE
  8
0
 10
129.751
 20
1727.99
 11
130.25
 21
1727.93
  0
LINE
  8
0
 10
130.25
 20
1727.93
 11
130.736
 21
1727.8
  0
LINE
  8
0
 10
130.736
 20
1727.8
 11
131.203
 21
1727.62
  0
LINE
  8
0
 10
131.203
 20
1727.62
 11
131.643
 21
1727.38
  0
LINE
  8
0
 10
131.643
 20
1727.38
 11
132.05
 21
1727.08
  0
LINE
  8
0
 10
132.05
 20
1727.08
 11
132.416
 21
1726.74
  0
LINE
  8
0
 10
132.416
 20
1726.74
 11
132.736
 21
1726.35
  0
LINE
  8
0
 10
132.736
 20
1726.35
 11
133.005
 21
1725.93
  0
LINE
  8
0
 10
133.005
 20
1725.93
 11
133.219
 21
1725.47
  0
LINE
  8
0
 10
133.219
 20
1725.47
 11
133.374
 21
1724.99
  0
LINE
  8
0
 10
133.374
 20
1724.99
 11
133.468
 21
1724.5
  0
LINE
  8
0
 10
133.468
 20
1724.5
 11
133.5
 21
1724
  0
LINE
  8
0
 10
133.5
 20
1724
 11
133.5
 21
1540
  0
LINE
  8
0
 10
133.5
 20
1540
 11
133.468
 21
1539.5
  0
LINE
  8
0
 10
133.468
 20
1539.5
 11
133.374
 21
1539.01
  0
LINE
  8
0
 10
133.374
 20
1539.01
 11
133.219
 21
1538.53
  0
LINE
  8
0
 10
133.219
 20
1538.53
 11
133.005
 21
1538.07
  0
LINE
  8
0
 10
133.005
 20
1538.07
 11
132.736
 21
1537.65
  0
LINE
  8
0
 10
132.736
 20
1537.65
 11
132.416
 21
1537.26
  0
LINE
  8
0
 10
132.416
 20
1537.26
 11
132.05
 21
1536.92
  0
LINE
  8
0
 10
132.05
 20
1536.92
 11
131.643
 21
1536.62
  0
LINE
  8
0
 10
131.643
 20
1536.62
 11
131.203
 21
1536.38
  0
LINE
  8
0
 10
131.203
 20
1536.38
 11
130.736
 21
1536.2
  0
LINE
  8
0
 10
130.736
 20
1536.2
 11
130.25
 21
1536.07
  0
LINE
  8
0
 10
130.25
 20
1536.07
 11
129.751
 21
1536.01
  0
LINE
  8
0
 10
129.751
 20
1536.01
 11
-129.751
 21
1536.01
  0
LINE
  8
0
 10
-133.5
 20
1331.94
 11
-133.187
 21
1331.65
  0
LINE
  8
0
 10
-133.187
 20
1331.65
 11
-132.679
 21
1331.28
  0
LINE
  8
0
 10
-132.679
 20
1331.28
 11
-132.129
 21
1330.98
  0
LINE
  8
0
 10
-132.129
 20
1330.98
 11
-131.545
 21
1330.74
  0
LINE
  8
0
 10
-131.545
 20
1330.74
 11
-130.937
 21
1330.59
  0
LINE
  8
0
 10
-130.937
 20
1330.59
 11
-130.314
 21
1330.51
  0
LINE
  8
0
 10
-130.314
 20
1330.51
 11
130.314
 21
1330.51
  0
LINE
  8
0
 10
130.314
 20
1330.51
 11
130.937
 21
1330.59
  0
LINE
  8
0
 10
130.937
 20
1330.59
 11
131.545
 21
1330.74
  0
LINE
  8
0
 10
131.545
 20
1330.74
 11
132.129
 21
1330.98
  0
LINE
  8
0
 10
132.129
 20
1330.98
 11
132.679
 21
1331.28
  0
LINE
  8
0
 10
132.679
 20
1331.28
 11
133.187
 21
1331.65
  0
LINE
  8
0
 10
133.187
 20
1331.65
 11
133.645
 21
1332.08
  0
LINE
  8
0
 10
133.645
 20
1332.08
 11
134.045
 21
1332.56
  0
LINE
  8
0
 10
134.045
 20
1332.56
 11
134.382
 21
1333.09
  0
LINE
  8
0
 10
134.382
 20
1333.09
 11
134.649
 21
1333.66
  0
LINE
  8
0
 10
134.649
 20
1333.66
 11
134.843
 21
1334.26
  0
LINE
  8
0
 10
134.843
 20
1334.26
 11
134.961
 21
1334.87
  0
LINE
  8
0
 10
134.961
 20
1334.87
 11
135
 21
1335.5
  0
LINE
  8
0
 10
135
 20
1335.5
 11
135
 21
1520.5
  0
LINE
  8
0
 10
135
 20
1520.5
 11
134.961
 21
1521.13
  0
LINE
  8
0
 10
134.961
 20
1521.13
 11
134.843
 21
1521.74
  0
LINE
  8
0
 10
134.843
 20
1521.74
 11
134.649
 21
1522.34
  0
LINE
  8
0
 10
134.649
 20
1522.34
 11
134.382
 21
1522.91
  0
LINE
  8
0
 10
134.382
 20
1522.91
 11
134.045
 21
1523.44
  0
LINE
  8
0
 10
134.045
 20
1523.44
 11
133.645
 21
1523.92
  0
LINE
  8
0
 10
133.645
 20
1523.92
 11
133.187
 21
1524.35
  0
LINE
  8
0
 10
133.187
 20
1524.35
 11
132.679
 21
1524.72
  0
LINE
  8
0
 10
132.679
 20
1524.72
 11
132.129
 21
1525.02
  0
LINE
  8
0
 10
132.129
 20
1525.02
 11
131.545
 21
1525.26
  0
LINE
  8
0
 10
131.545
 20
1525.26
 11
130.937
 21
1525.41
  0
LINE
  8
0
 10
130.937
 20
1525.41
 11
130.314
 21
1525.49
  0
LINE
  8
0
 10
130.314
 20
1525.49
 11
-130.314
 21
1525.49
  0
LINE
  8
0
 10
-130.314
 20
1525.49
 11
-130.937
 21
1525.41
  0
LINE
  8
0
 10
-130.937
 20
1525.41
 11
-131.545
 21
1525.26
  0
LINE
  8
0
 10
-131.545
 20
1525.26
 11
-132.129
 21
1525.02
  0
LINE
  8
0
 10
-132.129
 20
1525.02
 11
-132.679
 21
1524.72
  0
LINE
  8
0
 10
-132.679
 20
1524.72
 11
-133.187
 21
1524.35
  0
LINE
  8
0
 10
-133.187
 20
1524.35
 11
-133.5
 21
1524.06
  0
LINE
  8
0
 10
-133.5
 20
1524.06
 11
-133.5
 21
1525.49
  0
LINE
  8
0
 10
-133.5
 20
1525.49
 11
-136.5
 21
1525.49
  0
LINE
  8
0
 10
-136.5
 20
1525.49
 11
-136.5
 21
1330.51
  0
LINE
  8
0
 10
-136.5
 20
1330.51
 11
-133.5
 21
1330.51
  0
LINE
  8
0
 10
-133.5
 20
1330.51
 11
-133.5
 21
1331.94
  0
LINE
  8
0
 10
-129.751
 20
1332.01
 11
-130.25
 21
1332.07
  0
LINE
  8
0
 10
-130.25
 20
1332.07
 11
-130.736
 21
1332.2
  0
LINE
  8
0
 10
-130.736
 20
1332.2
 11
-131.203
 21
1332.38
  0
LINE
  8
0
 10
-131.203
 20
1332.38
 11
-131.643
 21
1332.62
  0
LINE
  8
0
 10
-131.643
 20
1332.62
 11
-132.05
 21
1332.92
  0
LINE
  8
0
 10
-132.05
 20
1332.92
 11
-132.416
 21
1333.26
  0
LINE
  8
0
 10
-132.416
 20
1333.26
 11
-132.736
 21
1333.65
  0
LINE
  8
0
 10
-132.736
 20
1333.65
 11
-133.005
 21
1334.07
  0
LINE
  8
0
 10
-133.005
 20
1334.07
 11
-133.219
 21
1334.53
  0
LINE
  8
0
 10
-133.219
 20
1334.53
 11
-133.374
 21
1335.01
  0
LINE
  8
0
 10
-133.374
 20
1335.01
 11
-133.468
 21
1335.5
  0
LINE
  8
0
 10
-133.468
 20
1335.5
 11
-133.5
 21
1336
  0
LINE
  8
0
 10
-133.5
 20
1336
 11
-133.5
 21
1520
  0
LINE
  8
0
 10
-133.5
 20
1520
 11
-133.468
 21
1520.5
  0
LINE
  8
0
 10
-133.468
 20
1520.5
 11
-133.374
 21
1520.99
  0
LINE
  8
0
 10
-133.374
 20
1520.99
 11
-133.219
 21
1521.47
  0
LINE
  8
0
 10
-133.219
 20
1521.47
 11
-133.005
 21
1521.93
  0
LINE
  8
0
 10
-133.005
 20
1521.93
 11
-132.736
 21
1522.35
  0
LINE
  8
0
 10
-132.736
 20
1522.35
 11
-132.416
 21
1522.74
  0
LINE
  8
0
 10
-132.416
 20
1522.74
 11
-132.05
 21
1523.08
  0
LINE
  8
0
 10
-132.05
 20
1523.08
 11
-131.643
 21
1523.38
  0
LINE
  8
0
 10
-131.643
 20
1523.38
 11
-131.203
 21
1523.62
  0
LINE
  8
0
 10
-131.203
 20
1523.62
 11
-130.736
 21
1523.8
  0
LINE
  8
0
 10
-130.736
 20
1523.8
 11
-130.25
 21
1523.93
  0
LINE
  8
0
 10
-130.25
 20
1523.93
 11
-129.751
 21
1523.99
  0
LINE
  8
0
 10
-129.751
 20
1523.99
 11
129.751
 21
1523.99
  0
LINE
  8
0
 10
129.751
 20
1523.99
 11
130.25
 21
1523.93
  0
LINE
  8
0
 10
130.25
 20
1523.93
 11
130.736
 21
1523.8
  0
LINE
  8
0
 10
130.736
 20
1523.8
 11
131.203
 21
1523.62
  0
LINE
  8
0
 10
131.203
 20
1523.62
 11
131.643
 21
1523.38
  0
LINE
  8
0
 10
131.643
 20
1523.38
 11
132.05
 21
1523.08
  0
LINE
  8
0
 10
132.05
 20
1523.08
 11
132.416
 21
1522.74
  0
LINE
  8
0
 10
132.416
 20
1522.74
 11
132.736
 21
1522.35
  0
LINE
  8
0
 10
132.736
 20
1522.35
 11
133.005
 21
1521.93
  0
LINE
  8
0
 10
133.005
 20
1521.93
 11
133.219
 21
1521.47
  0
LINE
  8
0
 10
133.219
 20
1521.47
 11
133.374
 21
1520.99
  0
LINE
  8
0
 10
133.374
 20
1520.99
 11
133.468
 21
1520.5
  0
LINE
  8
0
 10
133.468
 20
1520.5
 11
133.5
 21
1520
  0
LINE
  8
0
 10
133.5
 20
1520
 11
133.5
 21
1336
  0
LINE
  8
0
 10
133.5
 20
1336
 11
133.468
 21
1335.5
  0
LINE
  8
0
 10
133.468
 20
1335.5
 11
133.374
 21
1335.01
  0
LINE
  8
0
 10
133.374
 20
1335.01
 11
133.219
 21
1334.53
  0
LINE
  8
0
 10
133.219
 20
1334.53
 11
133.005
 21
1334.07
  0
LINE
  8
0
 10
133.005
 20
1334.07
 11
132.736
 21
1333.65
  0
LINE
  8
0
 10
132.736
 20
1333.65
 11
132.416
 21
1333.26
  0
LINE
  8
0
 10
132.416
 20
1333.26
 11
132.05
 21
1332.92
  0
LINE
  8
0
 10
132.05
 20
1332.92
 11
131.643
 21
1332.62
  0
LINE
  8
0
 10
131.643
 20
1332.62
 11
131.203
 21
1332.38
  0
LINE
  8
0
 10
131.203
 20
1332.38
 11
130.736
 21
1332.2
  0
LINE
  8
0
 10
130.736
 20
1332.2
 11
130.25
 21
1332.07
  0
LINE
  8
0
 10
130.25
 20
1332.07
 11
129.751
 21
1332.01
  0
LINE
  8
0
 10
129.751
 20
1332.01
 11
-129.751
 21
1332.01
  0
LINE
  8
0
 10
130.937
 20
1126.59
 11
131.545
 21
1126.74
  0
LINE
  8
0
 10
131.545
 20
1126.74
 11
132.129
 21
1126.98
  0
LINE
  8
0
 10
132.129
 20
1126.98
 11
132.679
 21
1127.28
  0
LINE
  8
0
 10
132.679
 20
1127.28
 11
133.187
 21
1127.65
  0
LINE
  8
0
 10
133.187
 20
1127.65
 11
133.645
 21
1128.08
  0
LINE
  8
0
 10
133.645
 20
1128.08
 11
134.045
 21
1128.56
  0
LINE
  8
0
 10
134.045
 20
1128.56
 11
134.382
 21
1129.09
  0
LINE
  8
0
 10
134.382
 20
1129.09
 11
134.649
 21
1129.66
  0
LINE
  8
0
 10
134.649
 20
1129.66
 11
134.843
 21
1130.26
  0
LINE
  8
0
 10
134.843
 20
1130.26
 11
134.961
 21
1130.87
  0
LINE
  8
0
 10
134.961
 20
1130.87
 11
135
 21
1131.5
  0
LINE
  8
0
 10
135
 20
1131.5
 11
135
 21
1316.5
  0
LINE
  8
0
 10
135
 20
1316.5
 11
134.961
 21
1317.13
  0
LINE
  8
0
 10
134.961
 20
1317.13
 11
134.843
 21
1317.74
  0
LINE
  8
0
 10
134.843
 20
1317.74
 11
134.649
 21
1318.34
  0
LINE
  8
0
 10
134.649
 20
1318.34
 11
134.382
 21
1318.91
  0
LINE
  8
0
 10
134.382
 20
1318.91
 11
134.045
 21
1319.44
  0
LINE
  8
0
 10
134.045
 20
1319.44
 11
133.645
 21
1319.92
  0
LINE
  8
0
 10
133.645
 20
1319.92
 11
133.187
 21
1320.35
  0
LINE
  8
0
 10
133.187
 20
1320.35
 11
132.679
 21
1320.72
  0
LINE
  8
0
 10
132.679
 20
1320.72
 11
132.129
 21
1321.02
  0
LINE
  8
0
 10
132.129
 20
1321.02
 11
131.545
 21
1321.26
  0
LINE
  8
0
 10
131.545
 20
1321.26
 11
130.937
 21
1321.41
  0
LINE
  8
0
 10
130.937
 20
1321.41
 11
130.314
 21
1321.49
  0
LINE
  8
0
 10
130.314
 20
1321.49
 11
-130.314
 21
1321.49
  0
LINE
  8
0
 10
-130.314
 20
1321.49
 11
-130.937
 21
1321.41
  0
LINE
  8
0
 10
-130.937
 20
1321.41
 11
-131.545
 21
1321.26
  0
LINE
  8
0
 10
-131.545
 20
1321.26
 11
-132.129
 21
1321.02
  0
LINE
  8
0
 10
-132.129
 20
1321.02
 11
-132.679
 21
1320.72
  0
LINE
  8
0
 10
-132.679
 20
1320.72
 11
-133.187
 21
1320.35
  0
LINE
  8
0
 10
-133.187
 20
1320.35
 11
-133.5
 21
1320.06
  0
LINE
  8
0
 10
-133.5
 20
1320.06
 11
-133.5
 21
1321.48
  0
LINE
  8
0
 10
-133.5
 20
1321.48
 11
-136.5
 21
1321.48
  0
LINE
  8
0
 10
-136.5
 20
1321.48
 11
-136.5
 21
1126.52
  0
LINE
  8
0
 10
-136.5
 20
1126.52
 11
-133.5
 21
1126.52
  0
LINE
  8
0
 10
-133.5
 20
1126.52
 11
-133.5
 21
1127.94
  0
LINE
  8
0
 10
-133.5
 20
1127.94
 11
-133.187
 21
1127.65
  0
LINE
  8
0
 10
-133.187
 20
1127.65
 11
-132.679
 21
1127.28
  0
LINE
  8
0
 10
-132.679
 20
1127.28
 11
-132.129
 21
1126.98
  0
LINE
  8
0
 10
-132.129
 20
1126.98
 11
-131.545
 21
1126.74
  0
LINE
  8
0
 10
-131.545
 20
1126.74
 11
-130.937
 21
1126.59
  0
LINE
  8
0
 10
-130.937
 20
1126.59
 11
-130.314
 21
1126.51
  0
LINE
  8
0
 10
-130.314
 20
1126.51
 11
130.314
 21
1126.51
  0
LINE
  8
0
 10
130.314
 20
1126.51
 11
130.937
 21
1126.59
  0
LINE
  8
0
 10
-129.695
 20
1128.89
 11
-130.083
 21
1128.94
  0
LINE
  8
0
 10
-130.083
 20
1128.94
 11
-130.462
 21
1129.04
  0
LINE
  8
0
 10
-130.462
 20
1129.04
 11
-130.825
 21
1129.18
  0
LINE
  8
0
 10
-130.825
 20
1129.18
 11
-131.168
 21
1129.37
  0
LINE
  8
0
 10
-131.168
 20
1129.37
 11
-131.484
 21
1129.6
  0
LINE
  8
0
 10
-131.484
 20
1129.6
 11
-131.769
 21
1129.87
  0
LINE
  8
0
 10
-131.769
 20
1129.87
 11
-132.018
 21
1130.17
  0
LINE
  8
0
 10
-132.018
 20
1130.17
 11
-132.228
 21
1130.5
  0
LINE
  8
0
 10
-132.228
 20
1130.5
 11
-132.394
 21
1130.85
  0
LINE
  8
0
 10
-132.394
 20
1130.85
 11
-132.515
 21
1131.23
  0
LINE
  8
0
 10
-132.515
 20
1131.23
 11
-132.588
 21
1131.61
  0
LINE
  8
0
 10
-132.588
 20
1131.61
 11
-132.613
 21
1132
  0
LINE
  8
0
 10
-132.613
 20
1132
 11
-132.613
 21
1316
  0
LINE
  8
0
 10
-132.613
 20
1316
 11
-132.588
 21
1316.39
  0
LINE
  8
0
 10
-132.588
 20
1316.39
 11
-132.515
 21
1316.77
  0
LINE
  8
0
 10
-132.515
 20
1316.77
 11
-132.394
 21
1317.15
  0
LINE
  8
0
 10
-132.394
 20
1317.15
 11
-132.228
 21
1317.5
  0
LINE
  8
0
 10
-132.228
 20
1317.5
 11
-132.018
 21
1317.83
  0
LINE
  8
0
 10
-132.018
 20
1317.83
 11
-131.769
 21
1318.13
  0
LINE
  8
0
 10
-131.769
 20
1318.13
 11
-131.484
 21
1318.4
  0
LINE
  8
0
 10
-131.484
 20
1318.4
 11
-131.168
 21
1318.63
  0
LINE
  8
0
 10
-131.168
 20
1318.63
 11
-130.825
 21
1318.82
  0
LINE
  8
0
 10
-130.825
 20
1318.82
 11
-130.462
 21
1318.96
  0
LINE
  8
0
 10
-130.462
 20
1318.96
 11
-130.083
 21
1319.06
  0
LINE
  8
0
 10
-130.083
 20
1319.06
 11
-129.695
 21
1319.11
  0
LINE
  8
0
 10
-129.695
 20
1319.11
 11
129.695
 21
1319.11
  0
LINE
  8
0
 10
129.695
 20
1319.11
 11
130.083
 21
1319.06
  0
LINE
  8
0
 10
130.083
 20
1319.06
 11
130.462
 21
1318.96
  0
LINE
  8
0
 10
130.462
 20
1318.96
 11
130.825
 21
1318.82
  0
LINE
  8
0
 10
130.825
 20
1318.82
 11
131.168
 21
1318.63
  0
LINE
  8
0
 10
131.168
 20
1318.63
 11
131.484
 21
1318.4
  0
LINE
  8
0
 10
131.484
 20
1318.4
 11
131.769
 21
1318.13
  0
LINE
  8
0
 10
131.769
 20
1318.13
 11
132.018
 21
1317.83
  0
LINE
  8
0
 10
132.018
 20
1317.83
 11
132.228
 21
1317.5
  0
LINE
  8
0
 10
132.228
 20
1317.5
 11
132.394
 21
1317.15
  0
LINE
  8
0
 10
132.394
 20
1317.15
 11
132.515
 21
1316.77
  0
LINE
  8
0
 10
132.515
 20
1316.77
 11
132.588
 21
1316.39
  0
LINE
  8
0
 10
132.588
 20
1316.39
 11
132.613
 21
1316
  0
LINE
  8
0
 10
132.613
 20
1316
 11
132.613
 21
1132
  0
LINE
  8
0
 10
132.613
 20
1132
 11
132.588
 21
1131.61
  0
LINE
  8
0
 10
132.588
 20
1131.61
 11
132.515
 21
1131.23
  0
LINE
  8
0
 10
132.515
 20
1131.23
 11
132.394
 21
1130.85
  0
LINE
  8
0
 10
132.394
 20
1130.85
 11
132.228
 21
1130.5
  0
LINE
  8
0
 10
132.228
 20
1130.5
 11
132.018
 21
1130.17
  0
LINE
  8
0
 10
132.018
 20
1130.17
 11
131.769
 21
1129.87
  0
LINE
  8
0
 10
131.769
 20
1129.87
 11
131.484
 21
1129.6
  0
LINE
  8
0
 10
131.484
 20
1129.6
 11
131.168
 21
1129.37
  0
LINE
  8
0
 10
131.168
 20
1129.37
 11
130.825
 21
1129.18
  0
LINE
  8
0
 10
130.825
 20
1129.18
 11
130.462
 21
1129.04
  0
LINE
  8
0
 10
130.462
 20
1129.04
 11
130.083
 21
1128.94
  0
LINE
  8
0
 10
130.083
 20
1128.94
 11
129.695
 21
1128.89
  0
LINE
  8
0
 10
129.695
 20
1128.89
 11
-129.695
 21
1128.89
  0
LINE
  8
0
 10
130.937
 20
922.589
 11
131.545
 21
922.745
  0
LINE
  8
0
 10
131.545
 20
922.745
 11
132.129
 21
922.976
  0
LINE
  8
0
 10
132.129
 20
922.976
 11
132.679
 21
923.278
  0
LINE
  8
0
 10
132.679
 20
923.278
 11
133.187
 21
923.647
  0
LINE
  8
0
 10
133.187
 20
923.647
 11
133.645
 21
924.077
  0
LINE
  8
0
 10
133.645
 20
924.077
 11
134.045
 21
924.561
  0
LINE
  8
0
 10
134.045
 20
924.561
 11
134.382
 21
925.091
  0
LINE
  8
0
 10
134.382
 20
925.091
 11
134.649
 21
925.659
  0
LINE
  8
0
 10
134.649
 20
925.659
 11
134.843
 21
926.257
  0
LINE
  8
0
 10
134.843
 20
926.257
 11
134.961
 21
926.873
  0
LINE
  8
0
 10
134.961
 20
926.873
 11
135
 21
927.5
  0
LINE
  8
0
 10
135
 20
927.5
 11
135
 21
1112.5
  0
LINE
  8
0
 10
135
 20
1112.5
 11
134.961
 21
1113.13
  0
LINE
  8
0
 10
134.961
 20
1113.13
 11
134.843
 21
1113.74
  0
LINE
  8
0
 10
134.843
 20
1113.74
 11
134.649
 21
1114.34
  0
LINE
  8
0
 10
134.649
 20
1114.34
 11
134.382
 21
1114.91
  0
LINE
  8
0
 10
134.382
 20
1114.91
 11
134.045
 21
1115.44
  0
LINE
  8
0
 10
134.045
 20
1115.44
 11
133.645
 21
1115.92
  0
LINE
  8
0
 10
133.645
 20
1115.92
 11
133.187
 21
1116.35
  0
LINE
  8
0
 10
133.187
 20
1116.35
 11
132.679
 21
1116.72
  0
LINE
  8
0
 10
132.679
 20
1116.72
 11
132.129
 21
1117.02
  0
LINE
  8
0
 10
132.129
 20
1117.02
 11
131.545
 21
1117.26
  0
LINE
  8
0
 10
131.545
 20
1117.26
 11
130.937
 21
1117.41
  0
LINE
  8
0
 10
130.937
 20
1117.41
 11
130.314
 21
1117.49
  0
LINE
  8
0
 10
130.314
 20
1117.49
 11
-130.314
 21
1117.49
  0
LINE
  8
0
 10
-130.314
 20
1117.49
 11
-130.937
 21
1117.41
  0
LINE
  8
0
 10
-130.937
 20
1117.41
 11
-131.545
 21
1117.26
  0
LINE
  8
0
 10
-131.545
 20
1117.26
 11
-132.129
 21
1117.02
  0
LINE
  8
0
 10
-132.129
 20
1117.02
 11
-132.679
 21
1116.72
  0
LINE
  8
0
 10
-132.679
 20
1116.72
 11
-133.187
 21
1116.35
  0
LINE
  8
0
 10
-133.187
 20
1116.35
 11
-133.5
 21
1116.06
  0
LINE
  8
0
 10
-133.5
 20
1116.06
 11
-133.5
 21
1116.15
  0
LINE
  8
0
 10
-133.5
 20
1116.15
 11
-136.5
 21
1116.15
  0
LINE
  8
0
 10
-136.5
 20
1116.15
 11
-136.5
 21
923.847
  0
LINE
  8
0
 10
-136.5
 20
923.847
 11
-133.5
 21
923.847
  0
LINE
  8
0
 10
-133.5
 20
923.847
 11
-133.5
 21
923.941
  0
LINE
  8
0
 10
-133.5
 20
923.941
 11
-133.187
 21
923.647
  0
LINE
  8
0
 10
-133.187
 20
923.647
 11
-132.679
 21
923.278
  0
LINE
  8
0
 10
-132.679
 20
923.278
 11
-132.129
 21
922.976
  0
LINE
  8
0
 10
-132.129
 20
922.976
 11
-131.545
 21
922.745
  0
LINE
  8
0
 10
-131.545
 20
922.745
 11
-130.937
 21
922.589
  0
LINE
  8
0
 10
-130.937
 20
922.589
 11
-130.314
 21
922.51
  0
LINE
  8
0
 10
-130.314
 20
922.51
 11
130.314
 21
922.51
  0
LINE
  8
0
 10
130.314
 20
922.51
 11
130.937
 21
922.589
  0
LINE
  8
0
 10
-127.634
 20
1107.87
 11
-127.9
 21
1107.9
  0
LINE
  8
0
 10
-127.9
 20
1107.9
 11
-128.16
 21
1107.97
  0
LINE
  8
0
 10
-128.16
 20
1107.97
 11
-128.409
 21
1108.07
  0
LINE
  8
0
 10
-128.409
 20
1108.07
 11
-128.644
 21
1108.2
  0
LINE
  8
0
 10
-128.644
 20
1108.2
 11
-128.861
 21
1108.35
  0
LINE
  8
0
 10
-128.861
 20
1108.35
 11
-129.057
 21
1108.54
  0
LINE
  8
0
 10
-129.057
 20
1108.54
 11
-129.227
 21
1108.74
  0
LINE
  8
0
 10
-129.227
 20
1108.74
 11
-129.371
 21
1108.97
  0
LINE
  8
0
 10
-129.371
 20
1108.97
 11
-129.485
 21
1109.21
  0
LINE
  8
0
 10
-129.485
 20
1109.21
 11
-129.568
 21
1109.47
  0
LINE
  8
0
 10
-129.568
 20
1109.47
 11
-129.618
 21
1109.73
  0
LINE
  8
0
 10
-129.618
 20
1109.73
 11
-129.635
 21
1110
  0
LINE
  8
0
 10
-129.635
 20
1110
 11
-129.618
 21
1110.27
  0
LINE
  8
0
 10
-129.618
 20
1110.27
 11
-129.568
 21
1110.53
  0
LINE
  8
0
 10
-129.568
 20
1110.53
 11
-129.485
 21
1110.79
  0
LINE
  8
0
 10
-129.485
 20
1110.79
 11
-129.371
 21
1111.03
  0
LINE
  8
0
 10
-129.371
 20
1111.03
 11
-129.227
 21
1111.26
  0
LINE
  8
0
 10
-129.227
 20
1111.26
 11
-129.057
 21
1111.46
  0
LINE
  8
0
 10
-129.057
 20
1111.46
 11
-128.861
 21
1111.65
  0
LINE
  8
0
 10
-128.861
 20
1111.65
 11
-128.644
 21
1111.8
  0
LINE
  8
0
 10
-128.644
 20
1111.8
 11
-128.409
 21
1111.93
  0
LINE
  8
0
 10
-128.409
 20
1111.93
 11
-128.16
 21
1112.03
  0
LINE
  8
0
 10
-128.16
 20
1112.03
 11
-127.9
 21
1112.1
  0
LINE
  8
0
 10
-127.9
 20
1112.1
 11
-127.634
 21
1112.13
  0
LINE
  8
0
 10
-127.634
 20
1112.13
 11
-127.366
 21
1112.13
  0
LINE
  8
0
 10
-127.366
 20
1112.13
 11
-127.1
 21
1112.1
  0
LINE
  8
0
 10
-127.1
 20
1112.1
 11
-126.84
 21
1112.03
  0
LINE
  8
0
 10
-126.84
 20
1112.03
 11
-126.591
 21
1111.93
  0
LINE
  8
0
 10
-126.591
 20
1111.93
 11
-126.356
 21
1111.8
  0
LINE
  8
0
 10
-126.356
 20
1111.8
 11
-126.139
 21
1111.65
  0
LINE
  8
0
 10
-126.139
 20
1111.65
 11
-125.943
 21
1111.46
  0
LINE
  8
0
 10
-125.943
 20
1111.46
 11
-125.773
 21
1111.26
  0
LINE
  8
0
 10
-125.773
 20
1111.26
 11
-125.629
 21
1111.03
  0
LINE
  8
0
 10
-125.629
 20
1111.03
 11
-125.515
 21
1110.79
  0
LINE
  8
0
 10
-125.515
 20
1110.79
 11
-125.432
 21
1110.53
  0
LINE
  8
0
 10
-125.432
 20
1110.53
 11
-125.382
 21
1110.27
  0
LINE
  8
0
 10
-125.382
 20
1110.27
 11
-125.365
 21
1110
  0
LINE
  8
0
 10
-125.365
 20
1110
 11
-125.382
 21
1109.73
  0
LINE
  8
0
 10
-125.382
 20
1109.73
 11
-125.432
 21
1109.47
  0
LINE
  8
0
 10
-125.432
 20
1109.47
 11
-125.515
 21
1109.21
  0
LINE
  8
0
 10
-125.515
 20
1109.21
 11
-125.629
 21
1108.97
  0
LINE
  8
0
 10
-125.629
 20
1108.97
 11
-125.773
 21
1108.74
  0
LINE
  8
0
 10
-125.773
 20
1108.74
 11
-125.943
 21
1108.54
  0
LINE
  8
0
 10
-125.943
 20
1108.54
 11
-126.139
 21
1108.35
  0
LINE
  8
0
 10
-126.139
 20
1108.35
 11
-126.356
 21
1108.2
  0
LINE
  8
0
 10
-126.356
 20
1108.2
 11
-126.591
 21
1108.07
  0
LINE
  8
0
 10
-126.591
 20
1108.07
 11
-126.84
 21
1107.97
  0
LINE
  8
0
 10
-126.84
 20
1107.97
 11
-127.1
 21
1107.9
  0
LINE
  8
0
 10
-127.1
 20
1107.9
 11
-127.366
 21
1107.87
  0
LINE
  8
0
 10
-127.366
 20
1107.87
 11
-127.634
 21
1107.87
  0
LINE
  8
0
 10
127.366
 20
1107.87
 11
127.1
 21
1107.9
  0
LINE
  8
0
 10
127.1
 20
1107.9
 11
126.84
 21
1107.97
  0
LINE
  8
0
 10
126.84
 20
1107.97
 11
126.591
 21
1108.07
  0
LINE
  8
0
 10
126.591
 20
1108.07
 11
126.356
 21
1108.2
  0
LINE
  8
0
 10
126.356
 20
1108.2
 11
126.139
 21
1108.35
  0
LINE
  8
0
 10
126.139
 20
1108.35
 11
125.943
 21
1108.54
  0
LINE
  8
0
 10
125.943
 20
1108.54
 11
125.773
 21
1108.74
  0
LINE
  8
0
 10
125.773
 20
1108.74
 11
125.629
 21
1108.97
  0
LINE
  8
0
 10
125.629
 20
1108.97
 11
125.515
 21
1109.21
  0
LINE
  8
0
 10
125.515
 20
1109.21
 11
125.432
 21
1109.47
  0
LINE
  8
0
 10
125.432
 20
1109.47
 11
125.382
 21
1109.73
  0
LINE
  8
0
 10
125.382
 20
1109.73
 11
125.365
 21
1110
  0
LINE
  8
0
 10
125.365
 20
1110
 11
125.382
 21
1110.27
  0
LINE
  8
0
 10
125.382
 20
1110.27
 11
125.432
 21
1110.53
  0
LINE
  8
0
 10
125.432
 20
1110.53
 11
125.515
 21
1110.79
  0
LINE
  8
0
 10
125.515
 20
1110.79
 11
125.629
 21
1111.03
  0
LINE
  8
0
 10
125.629
 20
1111.03
 11
125.773
 21
1111.26
  0
LINE
  8
0
 10
125.773
 20
1111.26
 11
125.943
 21
1111.46
  0
LINE
  8
0
 10
125.943
 20
1111.46
 11
126.139
 21
1111.65
  0
LINE
  8
0
 10
126.139
 20
1111.65
 11
126.356
 21
1111.8
  0
LINE
  8
0
 10
126.356
 20
1111.8
 11
126.591
 21
1111.93
  0
LINE
  8
0
 10
126.591
 20
1111.93
 11
126.84
 21
1112.03
  0
LINE
  8
0
 10
126.84
 20
1112.03
 11
127.1
 21
1112.1
  0
LINE
  8
0
 10
127.1
 20
1112.1
 11
127.366
 21
1112.13
  0
LINE
  8
0
 10
127.366
 20
1112.13
 11
127.634
 21
1112.13
  0
LINE
  8
0
 10
127.634
 20
1112.13
 11
127.9
 21
1112.1
  0
LINE
  8
0
 10
127.9
 20
1112.1
 11
128.16
 21
1112.03
  0
LINE
  8
0
 10
128.16
 20
1112.03
 11
128.409
 21
1111.93
  0
LINE
  8
0
 10
128.409
 20
1111.93
 11
128.644
 21
1111.8
  0
LINE
  8
0
 10
128.644
 20
1111.8
 11
128.861
 21
1111.65
  0
LINE
  8
0
 10
128.861
 20
1111.65
 11
129.057
 21
1111.46
  0
LINE
  8
0
 10
129.057
 20
1111.46
 11
129.227
 21
1111.26
  0
LINE
  8
0
 10
129.227
 20
1111.26
 11
129.371
 21
1111.03
  0
LINE
  8
0
 10
129.371
 20
1111.03
 11
129.485
 21
1110.79
  0
LINE
  8
0
 10
129.485
 20
1110.79
 11
129.568
 21
1110.53
  0
LINE
  8
0
 10
129.568
 20
1110.53
 11
129.618
 21
1110.27
  0
LINE
  8
0
 10
129.618
 20
1110.27
 11
129.635
 21
1110
  0
LINE
  8
0
 10
129.635
 20
1110
 11
129.618
 21
1109.73
  0
LINE
  8
0
 10
129.618
 20
1109.73
 11
129.568
 21
1109.47
  0
LINE
  8
0
 10
129.568
 20
1109.47
 11
129.485
 21
1109.21
  0
LINE
  8
0
 10
129.485
 20
1109.21
 11
129.371
 21
1108.97
  0
LINE
  8
0
 10
129.371
 20
1108.97
 11
129.227
 21
1108.74
  0
LINE
  8
0
 10
129.227
 20
1108.74
 11
129.057
 21
1108.54
  0
LINE
  8
0
 10
129.057
 20
1108.54
 11
128.861
 21
1108.35
  0
LINE
  8
0
 10
128.861
 20
1108.35
 11
128.644
 21
1108.2
  0
LINE
  8
0
 10
128.644
 20
1108.2
 11
128.409
 21
1108.07
  0
LINE
  8
0
 10
128.409
 20
1108.07
 11
128.16
 21
1107.97
  0
LINE
  8
0
 10
128.16
 20
1107.97
 11
127.9
 21
1107.9
  0
LINE
  8
0
 10
127.9
 20
1107.9
 11
127.634
 21
1107.87
  0
LINE
  8
0
 10
127.634
 20
1107.87
 11
127.366
 21
1107.87
  0
LINE
  8
0
 10
-127.634
 20
927.869
 11
-127.9
 21
927.903
  0
LINE
  8
0
 10
-127.9
 20
927.903
 11
-128.16
 21
927.969
  0
LINE
  8
0
 10
-128.16
 20
927.969
 11
-128.409
 21
928.068
  0
LINE
  8
0
 10
-128.409
 20
928.068
 11
-128.644
 21
928.197
  0
LINE
  8
0
 10
-128.644
 20
928.197
 11
-128.861
 21
928.355
  0
LINE
  8
0
 10
-128.861
 20
928.355
 11
-129.057
 21
928.538
  0
LINE
  8
0
 10
-129.057
 20
928.538
 11
-129.227
 21
928.745
  0
LINE
  8
0
 10
-129.227
 20
928.745
 11
-129.371
 21
928.971
  0
LINE
  8
0
 10
-129.371
 20
928.971
 11
-129.485
 21
929.214
  0
LINE
  8
0
 10
-129.485
 20
929.214
 11
-129.568
 21
929.469
  0
LINE
  8
0
 10
-129.568
 20
929.469
 11
-129.618
 21
929.732
  0
LINE
  8
0
 10
-129.618
 20
929.732
 11
-129.635
 21
930
  0
LINE
  8
0
 10
-129.635
 20
930
 11
-129.618
 21
930.268
  0
LINE
  8
0
 10
-129.618
 20
930.268
 11
-129.568
 21
930.531
  0
LINE
  8
0
 10
-129.568
 20
930.531
 11
-129.485
 21
930.786
  0
LINE
  8
0
 10
-129.485
 20
930.786
 11
-129.371
 21
931.029
  0
LINE
  8
0
 10
-129.371
 20
931.029
 11
-129.227
 21
931.255
  0
LINE
  8
0
 10
-129.227
 20
931.255
 11
-129.057
 21
931.462
  0
LINE
  8
0
 10
-129.057
 20
931.462
 11
-128.861
 21
931.645
  0
LINE
  8
0
 10
-128.861
 20
931.645
 11
-128.644
 21
931.803
  0
LINE
  8
0
 10
-128.644
 20
931.803
 11
-128.409
 21
931.932
  0
LINE
  8
0
 10
-128.409
 20
931.932
 11
-128.16
 21
932.031
  0
LINE
  8
0
 10
-128.16
 20
932.031
 11
-127.9
 21
932.097
  0
LINE
  8
0
 10
-127.9
 20
932.097
 11
-127.634
 21
932.131
  0
LINE
  8
0
 10
-127.634
 20
932.131
 11
-127.366
 21
932.131
  0
LINE
  8
0
 10
-127.366
 20
932.131
 11
-127.1
 21
932.097
  0
LINE
  8
0
 10
-127.1
 20
932.097
 11
-126.84
 21
932.031
  0
LINE
  8
0
 10
-126.84
 20
932.031
 11
-126.591
 21
931.932
  0
LINE
  8
0
 10
-126.591
 20
931.932
 11
-126.356
 21
931.803
  0
LINE
  8
0
 10
-126.356
 20
931.803
 11
-126.139
 21
931.645
  0
LINE
  8
0
 10
-126.139
 20
931.645
 11
-125.943
 21
931.462
  0
LINE
  8
0
 10
-125.943
 20
931.462
 11
-125.773
 21
931.255
  0
LINE
  8
0
 10
-125.773
 20
931.255
 11
-125.629
 21
931.029
  0
LINE
  8
0
 10
-125.629
 20
931.029
 11
-125.515
 21
930.786
  0
LINE
  8
0
 10
-125.515
 20
930.786
 11
-125.432
 21
930.531
  0
LINE
  8
0
 10
-125.432
 20
930.531
 11
-125.382
 21
930.268
  0
LINE
  8
0
 10
-125.382
 20
930.268
 11
-125.365
 21
930
  0
LINE
  8
0
 10
-125.365
 20
930
 11
-125.382
 21
929.732
  0
LINE
  8
0
 10
-125.382
 20
929.732
 11
-125.432
 21
929.469
  0
LINE
  8
0
 10
-125.432
 20
929.469
 11
-125.515
 21
929.214
  0
LINE
  8
0
 10
-125.515
 20
929.214
 11
-125.629
 21
928.971
  0
LINE
  8
0
 10
-125.629
 20
928.971
 11
-125.773
 21
928.745
  0
LINE
  8
0
 10
-125.773
 20
928.745
 11
-125.943
 21
928.538
  0
LINE
  8
0
 10
-125.943
 20
928.538
 11
-126.139
 21
928.355
  0
LINE
  8
0
 10
-126.139
 20
928.355
 11
-126.356
 21
928.197
  0
LINE
  8
0
 10
-126.356
 20
928.197
 11
-126.591
 21
928.068
  0
LINE
  8
0
 10
-126.591
 20
928.068
 11
-126.84
 21
927.969
  0
LINE
  8
0
 10
-126.84
 20
927.969
 11
-127.1
 21
927.903
  0
LINE
  8
0
 10
-127.1
 20
927.903
 11
-127.366
 21
927.869
  0
LINE
  8
0
 10
-127.366
 20
927.869
 11
-127.634
 21
927.869
  0
LINE
  8
0
 10
127.366
 20
927.869
 11
127.1
 21
927.903
  0
LINE
  8
0
 10
127.1
 20
927.903
 11
126.84
 21
927.969
  0
LINE
  8
0
 10
126.84
 20
927.969
 11
126.591
 21
928.068
  0
LINE
  8
0
 10
126.591
 20
928.068
 11
126.356
 21
928.197
  0
LINE
  8
0
 10
126.356
 20
928.197
 11
126.139
 21
928.355
  0
LINE
  8
0
 10
126.139
 20
928.355
 11
125.943
 21
928.538
  0
LINE
  8
0
 10
125.943
 20
928.538
 11
125.773
 21
928.745
  0
LINE
  8
0
 10
125.773
 20
928.745
 11
125.629
 21
928.971
  0
LINE
  8
0
 10
125.629
 20
928.971
 11
125.515
 21
929.214
  0
LINE
  8
0
 10
125.515
 20
929.214
 11
125.432
 21
929.469
  0
LINE
  8
0
 10
125.432
 20
929.469
 11
125.382
 21
929.732
  0
LINE
  8
0
 10
125.382
 20
929.732
 11
125.365
 21
930
  0
LINE
  8
0
 10
125.365
 20
930
 11
125.382
 21
930.268
  0
LINE
  8
0
 10
125.382
 20
930.268
 11
125.432
 21
930.531
  0
LINE
  8
0
 10
125.432
 20
930.531
 11
125.515
 21
930.786
  0
LINE
  8
0
 10
125.515
 20
930.786
 11
125.629
 21
931.029
  0
LINE
  8
0
 10
125.629
 20
931.029
 11
125.773
 21
931.255
  0
LINE
  8
0
 10
125.773
 20
931.255
 11
125.943
 21
931.462
  0
LINE
  8
0
 10
125.943
 20
931.462
 11
126.139
 21
931.645
  0
LINE
  8
0
 10
126.139
 20
931.645
 11
126.356
 21
931.803
  0
LINE
  8
0
 10
126.356
 20
931.803
 11
126.591
 21
931.932
  0
LINE
  8
0
 10
126.591
 20
931.932
 11
126.84
 21
932.031
  0
LINE
  8
0
 10
126.84
 20
932.031
 11
127.1
 21
932.097
  0
LINE
  8
0
 10
127.1
 20
932.097
 11
127.366
 21
932.131
  0
LINE
  8
0
 10
127.366
 20
932.131
 11
127.634
 21
932.131
  0
LINE
  8
0
 10
127.634
 20
932.131
 11
127.9
 21
932.097
  0
LINE
  8
0
 10
127.9
 20
932.097
 11
128.16
 21
932.031
  0
LINE
  8
0
 10
128.16
 20
932.031
 11
128.409
 21
931.932
  0
LINE
  8
0
 10
128.409
 20
931.932
 11
128.644
 21
931.803
  0
LINE
  8
0
 10
128.644
 20
931.803
 11
128.861
 21
931.645
  0
LINE
  8
0
 10
128.861
 20
931.645
 11
129.057
 21
931.462
  0
LINE
  8
0
 10
129.057
 20
931.462
 11
129.227
 21
931.255
  0
LINE
  8
0
 10
129.227
 20
931.255
 11
129.371
 21
931.029
  0
LINE
  8
0
 10
129.371
 20
931.029
 11
129.485
 21
930.786
  0
LINE
  8
0
 10
129.485
 20
930.786
 11
129.568
 21
930.531
  0
LINE
  8
0
 10
129.568
 20
930.531
 11
129.618
 21
930.268
  0
LINE
  8
0
 10
129.618
 20
930.268
 11
129.635
 21
930
  0
LINE
  8
0
 10
129.635
 20
930
 11
129.618
 21
929.732
  0
LINE
  8
0
 10
129.618
 20
929.732
 11
129.568
 21
929.469
  0
LINE
  8
0
 10
129.568
 20
929.469
 11
129.485
 21
929.214
  0
LINE
  8
0
 10
129.485
 20
929.214
 11
129.371
 21
928.971
  0
LINE
  8
0
 10
129.371
 20
928.971
 11
129.227
 21
928.745
  0
LINE
  8
0
 10
129.227
 20
928.745
 11
129.057
 21
928.538
  0
LINE
  8
0
 10
129.057
 20
928.538
 11
128.861
 21
928.355
  0
LINE
  8
0
 10
128.861
 20
928.355
 11
128.644
 21
928.197
  0
LINE
  8
0
 10
128.644
 20
928.197
 11
128.409
 21
928.068
  0
LINE
  8
0
 10
128.409
 20
928.068
 11
128.16
 21
927.969
  0
LINE
  8
0
 10
128.16
 20
927.969
 11
127.9
 21
927.903
  0
LINE
  8
0
 10
127.9
 20
927.903
 11
127.634
 21
927.869
  0
LINE
  8
0
 10
127.634
 20
927.869
 11
127.366
 21
927.869
  0
ENDSEC
  0
SECTION
  2
OBJECTS
  0
DICTIONARY
  0
ENDSEC
  0
EOF
