  0
SECTION
  2
BLOCKS
  0
ENDSEC
  0
SECTION
  2
ENTITIES
  0
LINE
  8
0
 10
138.437
 20
378.089
 11
139.045
 21
378.245
  0
LINE
  8
0
 10
139.045
 20
378.245
 11
139.629
 21
378.476
  0
LINE
  8
0
 10
139.629
 20
378.476
 11
140.179
 21
378.778
  0
LINE
  8
0
 10
140.179
 20
378.778
 11
140.687
 21
379.147
  0
LINE
  8
0
 10
140.687
 20
379.147
 11
141.145
 21
379.577
  0
LINE
  8
0
 10
141.145
 20
379.577
 11
141.545
 21
380.061
  0
LINE
  8
0
 10
141.545
 20
380.061
 11
141.882
 21
380.591
  0
LINE
  8
0
 10
141.882
 20
380.591
 11
142.149
 21
381.159
  0
LINE
  8
0
 10
142.149
 20
381.159
 11
142.343
 21
381.757
  0
LINE
  8
0
 10
142.343
 20
381.757
 11
142.461
 21
382.373
  0
LINE
  8
0
 10
142.461
 20
382.373
 11
142.5
 21
383
  0
LINE
  8
0
 10
142.5
 20
383
 11
142.5
 21
613
  0
LINE
  8
0
 10
142.5
 20
613
 11
142.461
 21
613.627
  0
LINE
  8
0
 10
142.461
 20
613.627
 11
142.343
 21
614.243
  0
LINE
  8
0
 10
142.343
 20
614.243
 11
142.149
 21
614.841
  0
LINE
  8
0
 10
142.149
 20
614.841
 11
141.882
 21
615.409
  0
LINE
  8
0
 10
141.882
 20
615.409
 11
141.545
 21
615.939
  0
LINE
  8
0
 10
141.545
 20
615.939
 11
141.145
 21
616.423
  0
LINE
  8
0
 10
141.145
 20
616.423
 11
140.687
 21
616.853
  0
LINE
  8
0
 10
140.687
 20
616.853
 11
140.179
 21
617.222
  0
LINE
  8
0
 10
140.179
 20
617.222
 11
139.629
 21
617.524
  0
LINE
  8
0
 10
139.629
 20
617.524
 11
139.045
 21
617.755
  0
LINE
  8
0
 10
139.045
 20
617.755
 11
138.437
 21
617.911
  0
LINE
  8
0
 10
138.437
 20
617.911
 11
137.814
 21
617.99
  0
LINE
  8
0
 10
137.814
 20
617.99
 11
-137.814
 21
617.99
  0
LINE
  8
0
 10
-137.814
 20
617.99
 11
-138.437
 21
617.911
  0
LINE
  8
0
 10
-138.437
 20
617.911
 11
-139.045
 21
617.755
  0
LINE
  8
0
 10
-139.045
 20
617.755
 11
-139.629
 21
617.524
  0
LINE
  8
0
 10
-139.629
 20
617.524
 11
-140.179
 21
617.222
  0
LINE
  8
0
 10
-140.179
 20
617.222
 11
-140.687
 21
616.853
  0
LINE
  8
0
 10
-140.687
 20
616.853
 11
-141
 21
616.559
  0
LINE
  8
0
 10
-141
 20
616.559
 11
-141
 21
617.615
  0
LINE
  8
0
 10
-141
 20
617.615
 11
-144
 21
617.615
  0
LINE
  8
0
 10
-144
 20
617.615
 11
-144
 21
378.385
  0
LINE
  8
0
 10
-144
 20
378.385
 11
-141
 21
378.385
  0
LINE
  8
0
 10
-141
 20
378.385
 11
-141
 21
379.441
  0
LINE
  8
0
 10
-141
 20
379.441
 11
-140.687
 21
379.147
  0
LINE
  8
0
 10
-140.687
 20
379.147
 11
-140.179
 21
378.778
  0
LINE
  8
0
 10
-140.179
 20
378.778
 11
-139.629
 21
378.476
  0
LINE
  8
0
 10
-139.629
 20
378.476
 11
-139.045
 21
378.245
  0
LINE
  8
0
 10
-139.045
 20
378.245
 11
-138.437
 21
378.089
  0
LINE
  8
0
 10
-138.437
 20
378.089
 11
-137.814
 21
378.01
  0
LINE
  8
0
 10
-137.814
 20
378.01
 11
137.814
 21
378.01
  0
LINE
  8
0
 10
137.814
 20
378.01
 11
138.437
 21
378.089
  0
LINE
  8
0
 10
-135.151
 20
608.105
 11
-135.45
 21
608.143
  0
LINE
  8
0
 10
-135.45
 20
608.143
 11
-135.742
 21
608.217
  0
LINE
  8
0
 10
-135.742
 20
608.217
 11
-136.022
 21
608.328
  0
LINE
  8
0
 10
-136.022
 20
608.328
 11
-136.286
 21
608.474
  0
LINE
  8
0
 10
-136.286
 20
608.474
 11
-136.53
 21
608.651
  0
LINE
  8
0
 10
-136.53
 20
608.651
 11
-136.75
 21
608.857
  0
LINE
  8
0
 10
-136.75
 20
608.857
 11
-136.942
 21
609.089
  0
LINE
  8
0
 10
-136.942
 20
609.089
 11
-137.103
 21
609.344
  0
LINE
  8
0
 10
-137.103
 20
609.344
 11
-137.231
 21
609.617
  0
LINE
  8
0
 10
-137.231
 20
609.617
 11
-137.325
 21
609.903
  0
LINE
  8
0
 10
-137.325
 20
609.903
 11
-137.381
 21
610.199
  0
LINE
  8
0
 10
-137.381
 20
610.199
 11
-137.4
 21
610.5
  0
LINE
  8
0
 10
-137.4
 20
610.5
 11
-137.381
 21
610.801
  0
LINE
  8
0
 10
-137.381
 20
610.801
 11
-137.325
 21
611.097
  0
LINE
  8
0
 10
-137.325
 20
611.097
 11
-137.231
 21
611.383
  0
LINE
  8
0
 10
-137.231
 20
611.383
 11
-137.103
 21
611.656
  0
LINE
  8
0
 10
-137.103
 20
611.656
 11
-136.942
 21
611.911
  0
LINE
  8
0
 10
-136.942
 20
611.911
 11
-136.75
 21
612.143
  0
LINE
  8
0
 10
-136.75
 20
612.143
 11
-136.53
 21
612.349
  0
LINE
  8
0
 10
-136.53
 20
612.349
 11
-136.286
 21
612.526
  0
LINE
  8
0
 10
-136.286
 20
612.526
 11
-136.022
 21
612.672
  0
LINE
  8
0
 10
-136.022
 20
612.672
 11
-135.742
 21
612.783
  0
LINE
  8
0
 10
-135.742
 20
612.783
 11
-135.45
 21
612.857
  0
LINE
  8
0
 10
-135.45
 20
612.857
 11
-135.151
 21
612.895
  0
LINE
  8
0
 10
-135.151
 20
612.895
 11
-134.849
 21
612.895
  0
LINE
  8
0
 10
-134.849
 20
612.895
 11
-134.55
 21
612.857
  0
LINE
  8
0
 10
-134.55
 20
612.857
 11
-134.258
 21
612.783
  0
LINE
  8
0
 10
-134.258
 20
612.783
 11
-133.978
 21
612.672
  0
LINE
  8
0
 10
-133.978
 20
612.672
 11
-133.714
 21
612.526
  0
LINE
  8
0
 10
-133.714
 20
612.526
 11
-133.47
 21
612.349
  0
LINE
  8
0
 10
-133.47
 20
612.349
 11
-133.25
 21
612.143
  0
LINE
  8
0
 10
-133.25
 20
612.143
 11
-133.058
 21
611.911
  0
LINE
  8
0
 10
-133.058
 20
611.911
 11
-132.897
 21
611.656
  0
LINE
  8
0
 10
-132.897
 20
611.656
 11
-132.769
 21
611.383
  0
LINE
  8
0
 10
-132.769
 20
611.383
 11
-132.675
 21
611.097
  0
LINE
  8
0
 10
-132.675
 20
611.097
 11
-132.619
 21
610.801
  0
LINE
  8
0
 10
-132.619
 20
610.801
 11
-132.6
 21
610.5
  0
LINE
  8
0
 10
-132.6
 20
610.5
 11
-132.619
 21
610.199
  0
LINE
  8
0
 10
-132.619
 20
610.199
 11
-132.675
 21
609.903
  0
LINE
  8
0
 10
-132.675
 20
609.903
 11
-132.769
 21
609.617
  0
LINE
  8
0
 10
-132.769
 20
609.617
 11
-132.897
 21
609.344
  0
LINE
  8
0
 10
-132.897
 20
609.344
 11
-133.058
 21
609.089
  0
LINE
  8
0
 10
-133.058
 20
609.089
 11
-133.25
 21
608.857
  0
LINE
  8
0
 10
-133.25
 20
608.857
 11
-133.47
 21
608.651
  0
LINE
  8
0
 10
-133.47
 20
608.651
 11
-133.714
 21
608.474
  0
LINE
  8
0
 10
-133.714
 20
608.474
 11
-133.978
 21
608.328
  0
LINE
  8
0
 10
-133.978
 20
608.328
 11
-134.258
 21
608.217
  0
LINE
  8
0
 10
-134.258
 20
608.217
 11
-134.55
 21
608.143
  0
LINE
  8
0
 10
-134.55
 20
608.143
 11
-134.849
 21
608.105
  0
LINE
  8
0
 10
-134.849
 20
608.105
 11
-135.151
 21
608.105
  0
LINE
  8
0
 10
134.849
 20
608.105
 11
134.55
 21
608.143
  0
LINE
  8
0
 10
134.55
 20
608.143
 11
134.258
 21
608.217
  0
LINE
  8
0
 10
134.258
 20
608.217
 11
133.978
 21
608.328
  0
LINE
  8
0
 10
133.978
 20
608.328
 11
133.714
 21
608.474
  0
LINE
  8
0
 10
133.714
 20
608.474
 11
133.47
 21
608.651
  0
LINE
  8
0
 10
133.47
 20
608.651
 11
133.25
 21
608.857
  0
LINE
  8
0
 10
133.25
 20
608.857
 11
133.058
 21
609.089
  0
LINE
  8
0
 10
133.058
 20
609.089
 11
132.897
 21
609.344
  0
LINE
  8
0
 10
132.897
 20
609.344
 11
132.769
 21
609.617
  0
LINE
  8
0
 10
132.769
 20
609.617
 11
132.675
 21
609.903
  0
LINE
  8
0
 10
132.675
 20
609.903
 11
132.619
 21
610.199
  0
LINE
  8
0
 10
132.619
 20
610.199
 11
132.6
 21
610.5
  0
LINE
  8
0
 10
132.6
 20
610.5
 11
132.619
 21
610.801
  0
LINE
  8
0
 10
132.619
 20
610.801
 11
132.675
 21
611.097
  0
LINE
  8
0
 10
132.675
 20
611.097
 11
132.769
 21
611.383
  0
LINE
  8
0
 10
132.769
 20
611.383
 11
132.897
 21
611.656
  0
LINE
  8
0
 10
132.897
 20
611.656
 11
133.058
 21
611.911
  0
LINE
  8
0
 10
133.058
 20
611.911
 11
133.25
 21
612.143
  0
LINE
  8
0
 10
133.25
 20
612.143
 11
133.47
 21
612.349
  0
LINE
  8
0
 10
133.47
 20
612.349
 11
133.714
 21
612.526
  0
LINE
  8
0
 10
133.714
 20
612.526
 11
133.978
 21
612.672
  0
LINE
  8
0
 10
133.978
 20
612.672
 11
134.258
 21
612.783
  0
LINE
  8
0
 10
134.258
 20
612.783
 11
134.55
 21
612.857
  0
LINE
  8
0
 10
134.55
 20
612.857
 11
134.849
 21
612.895
  0
LINE
  8
0
 10
134.849
 20
612.895
 11
135.151
 21
612.895
  0
LINE
  8
0
 10
135.151
 20
612.895
 11
135.45
 21
612.857
  0
LINE
  8
0
 10
135.45
 20
612.857
 11
135.742
 21
612.783
  0
LINE
  8
0
 10
135.742
 20
612.783
 11
136.022
 21
612.672
  0
LINE
  8
0
 10
136.022
 20
612.672
 11
136.286
 21
612.526
  0
LINE
  8
0
 10
136.286
 20
612.526
 11
136.53
 21
612.349
  0
LINE
  8
0
 10
136.53
 20
612.349
 11
136.75
 21
612.143
  0
LINE
  8
0
 10
136.75
 20
612.143
 11
136.942
 21
611.911
  0
LINE
  8
0
 10
136.942
 20
611.911
 11
137.103
 21
611.656
  0
LINE
  8
0
 10
137.103
 20
611.656
 11
137.231
 21
611.383
  0
LINE
  8
0
 10
137.231
 20
611.383
 11
137.325
 21
611.097
  0
LINE
  8
0
 10
137.325
 20
611.097
 11
137.381
 21
610.801
  0
LINE
  8
0
 10
137.381
 20
610.801
 11
137.4
 21
610.5
  0
LINE
  8
0
 10
137.4
 20
610.5
 11
137.381
 21
610.199
  0
LINE
  8
0
 10
137.381
 20
610.199
 11
137.325
 21
609.903
  0
LINE
  8
0
 10
137.325
 20
609.903
 11
137.231
 21
609.617
  0
LINE
  8
0
 10
137.231
 20
609.617
 11
137.103
 21
609.344
  0
LINE
  8
0
 10
137.103
 20
609.344
 11
136.942
 21
609.089
  0
LINE
  8
0
 10
136.942
 20
609.089
 11
136.75
 21
608.857
  0
LINE
  8
0
 10
136.75
 20
608.857
 11
136.53
 21
608.651
  0
LINE
  8
0
 10
136.53
 20
608.651
 11
136.286
 21
608.474
  0
LINE
  8
0
 10
136.286
 20
608.474
 11
136.022
 21
608.328
  0
LINE
  8
0
 10
136.022
 20
608.328
 11
135.742
 21
608.217
  0
LINE
  8
0
 10
135.742
 20
608.217
 11
135.45
 21
608.143
  0
LINE
  8
0
 10
135.45
 20
608.143
 11
135.151
 21
608.105
  0
LINE
  8
0
 10
135.151
 20
608.105
 11
134.849
 21
608.105
  0
LINE
  8
0
 10
134.849
 20
383.105
 11
134.55
 21
383.143
  0
LINE
  8
0
 10
134.55
 20
383.143
 11
134.258
 21
383.217
  0
LINE
  8
0
 10
134.258
 20
383.217
 11
133.978
 21
383.328
  0
LINE
  8
0
 10
133.978
 20
383.328
 11
133.714
 21
383.474
  0
LINE
  8
0
 10
133.714
 20
383.474
 11
133.47
 21
383.651
  0
LINE
  8
0
 10
133.47
 20
383.651
 11
133.25
 21
383.857
  0
LINE
  8
0
 10
133.25
 20
383.857
 11
133.058
 21
384.089
  0
LINE
  8
0
 10
133.058
 20
384.089
 11
132.897
 21
384.344
  0
LINE
  8
0
 10
132.897
 20
384.344
 11
132.769
 21
384.617
  0
LINE
  8
0
 10
132.769
 20
384.617
 11
132.675
 21
384.903
  0
LINE
  8
0
 10
132.675
 20
384.903
 11
132.619
 21
385.199
  0
LINE
  8
0
 10
132.619
 20
385.199
 11
132.6
 21
385.5
  0
LINE
  8
0
 10
132.6
 20
385.5
 11
132.619
 21
385.801
  0
LINE
  8
0
 10
132.619
 20
385.801
 11
132.675
 21
386.097
  0
LINE
  8
0
 10
132.675
 20
386.097
 11
132.769
 21
386.383
  0
LINE
  8
0
 10
132.769
 20
386.383
 11
132.897
 21
386.656
  0
LINE
  8
0
 10
132.897
 20
386.656
 11
133.058
 21
386.911
  0
LINE
  8
0
 10
133.058
 20
386.911
 11
133.25
 21
387.143
  0
LINE
  8
0
 10
133.25
 20
387.143
 11
133.47
 21
387.349
  0
LINE
  8
0
 10
133.47
 20
387.349
 11
133.714
 21
387.526
  0
LINE
  8
0
 10
133.714
 20
387.526
 11
133.978
 21
387.672
  0
LINE
  8
0
 10
133.978
 20
387.672
 11
134.258
 21
387.783
  0
LINE
  8
0
 10
134.258
 20
387.783
 11
134.55
 21
387.857
  0
LINE
  8
0
 10
134.55
 20
387.857
 11
134.849
 21
387.895
  0
LINE
  8
0
 10
134.849
 20
387.895
 11
135.151
 21
387.895
  0
LINE
  8
0
 10
135.151
 20
387.895
 11
135.45
 21
387.857
  0
LINE
  8
0
 10
135.45
 20
387.857
 11
135.742
 21
387.783
  0
LINE
  8
0
 10
135.742
 20
387.783
 11
136.022
 21
387.672
  0
LINE
  8
0
 10
136.022
 20
387.672
 11
136.286
 21
387.526
  0
LINE
  8
0
 10
136.286
 20
387.526
 11
136.53
 21
387.349
  0
LINE
  8
0
 10
136.53
 20
387.349
 11
136.75
 21
387.143
  0
LINE
  8
0
 10
136.75
 20
387.143
 11
136.942
 21
386.911
  0
LINE
  8
0
 10
136.942
 20
386.911
 11
137.103
 21
386.656
  0
LINE
  8
0
 10
137.103
 20
386.656
 11
137.231
 21
386.383
  0
LINE
  8
0
 10
137.231
 20
386.383
 11
137.325
 21
386.097
  0
LINE
  8
0
 10
137.325
 20
386.097
 11
137.381
 21
385.801
  0
LINE
  8
0
 10
137.381
 20
385.801
 11
137.4
 21
385.5
  0
LINE
  8
0
 10
137.4
 20
385.5
 11
137.381
 21
385.199
  0
LINE
  8
0
 10
137.381
 20
385.199
 11
137.325
 21
384.903
  0
LINE
  8
0
 10
137.325
 20
384.903
 11
137.231
 21
384.617
  0
LINE
  8
0
 10
137.231
 20
384.617
 11
137.103
 21
384.344
  0
LINE
  8
0
 10
137.103
 20
384.344
 11
136.942
 21
384.089
  0
LINE
  8
0
 10
136.942
 20
384.089
 11
136.75
 21
383.857
  0
LINE
  8
0
 10
136.75
 20
383.857
 11
136.53
 21
383.651
  0
LINE
  8
0
 10
136.53
 20
383.651
 11
136.286
 21
383.474
  0
LINE
  8
0
 10
136.286
 20
383.474
 11
136.022
 21
383.328
  0
LINE
  8
0
 10
136.022
 20
383.328
 11
135.742
 21
383.217
  0
LINE
  8
0
 10
135.742
 20
383.217
 11
135.45
 21
383.143
  0
LINE
  8
0
 10
135.45
 20
383.143
 11
135.151
 21
383.105
  0
LINE
  8
0
 10
135.151
 20
383.105
 11
134.849
 21
383.105
  0
LINE
  8
0
 10
-135.151
 20
383.105
 11
-135.45
 21
383.143
  0
LINE
  8
0
 10
-135.45
 20
383.143
 11
-135.742
 21
383.217
  0
LINE
  8
0
 10
-135.742
 20
383.217
 11
-136.022
 21
383.328
  0
LINE
  8
0
 10
-136.022
 20
383.328
 11
-136.286
 21
383.474
  0
LINE
  8
0
 10
-136.286
 20
383.474
 11
-136.53
 21
383.651
  0
LINE
  8
0
 10
-136.53
 20
383.651
 11
-136.75
 21
383.857
  0
LINE
  8
0
 10
-136.75
 20
383.857
 11
-136.942
 21
384.089
  0
LINE
  8
0
 10
-136.942
 20
384.089
 11
-137.103
 21
384.344
  0
LINE
  8
0
 10
-137.103
 20
384.344
 11
-137.231
 21
384.617
  0
LINE
  8
0
 10
-137.231
 20
384.617
 11
-137.325
 21
384.903
  0
LINE
  8
0
 10
-137.325
 20
384.903
 11
-137.381
 21
385.199
  0
LINE
  8
0
 10
-137.381
 20
385.199
 11
-137.4
 21
385.5
  0
LINE
  8
0
 10
-137.4
 20
385.5
 11
-137.381
 21
385.801
  0
LINE
  8
0
 10
-137.381
 20
385.801
 11
-137.325
 21
386.097
  0
LINE
  8
0
 10
-137.325
 20
386.097
 11
-137.231
 21
386.383
  0
LINE
  8
0
 10
-137.231
 20
386.383
 11
-137.103
 21
386.656
  0
LINE
  8
0
 10
-137.103
 20
386.656
 11
-136.942
 21
386.911
  0
LINE
  8
0
 10
-136.942
 20
386.911
 11
-136.75
 21
387.143
  0
LINE
  8
0
 10
-136.75
 20
387.143
 11
-136.53
 21
387.349
  0
LINE
  8
0
 10
-136.53
 20
387.349
 11
-136.286
 21
387.526
  0
LINE
  8
0
 10
-136.286
 20
387.526
 11
-136.022
 21
387.672
  0
LINE
  8
0
 10
-136.022
 20
387.672
 11
-135.742
 21
387.783
  0
LINE
  8
0
 10
-135.742
 20
387.783
 11
-135.45
 21
387.857
  0
LINE
  8
0
 10
-135.45
 20
387.857
 11
-135.151
 21
387.895
  0
LINE
  8
0
 10
-135.151
 20
387.895
 11
-134.849
 21
387.895
  0
LINE
  8
0
 10
-134.849
 20
387.895
 11
-134.55
 21
387.857
  0
LINE
  8
0
 10
-134.55
 20
387.857
 11
-134.258
 21
387.783
  0
LINE
  8
0
 10
-134.258
 20
387.783
 11
-133.978
 21
387.672
  0
LINE
  8
0
 10
-133.978
 20
387.672
 11
-133.714
 21
387.526
  0
LINE
  8
0
 10
-133.714
 20
387.526
 11
-133.47
 21
387.349
  0
LINE
  8
0
 10
-133.47
 20
387.349
 11
-133.25
 21
387.143
  0
LINE
  8
0
 10
-133.25
 20
387.143
 11
-133.058
 21
386.911
  0
LINE
  8
0
 10
-133.058
 20
386.911
 11
-132.897
 21
386.656
  0
LINE
  8
0
 10
-132.897
 20
386.656
 11
-132.769
 21
386.383
  0
LINE
  8
0
 10
-132.769
 20
386.383
 11
-132.675
 21
386.097
  0
LINE
  8
0
 10
-132.675
 20
386.097
 11
-132.619
 21
385.801
  0
LINE
  8
0
 10
-132.619
 20
385.801
 11
-132.6
 21
385.5
  0
LINE
  8
0
 10
-132.6
 20
385.5
 11
-132.619
 21
385.199
  0
LINE
  8
0
 10
-132.619
 20
385.199
 11
-132.675
 21
384.903
  0
LINE
  8
0
 10
-132.675
 20
384.903
 11
-132.769
 21
384.617
  0
LINE
  8
0
 10
-132.769
 20
384.617
 11
-132.897
 21
384.344
  0
LINE
  8
0
 10
-132.897
 20
384.344
 11
-133.058
 21
384.089
  0
LINE
  8
0
 10
-133.058
 20
384.089
 11
-133.25
 21
383.857
  0
LINE
  8
0
 10
-133.25
 20
383.857
 11
-133.47
 21
383.651
  0
LINE
  8
0
 10
-133.47
 20
383.651
 11
-133.714
 21
383.474
  0
LINE
  8
0
 10
-133.714
 20
383.474
 11
-133.978
 21
383.328
  0
LINE
  8
0
 10
-133.978
 20
383.328
 11
-134.258
 21
383.217
  0
LINE
  8
0
 10
-134.258
 20
383.217
 11
-134.55
 21
383.143
  0
LINE
  8
0
 10
-134.55
 20
383.143
 11
-134.849
 21
383.105
  0
LINE
  8
0
 10
-134.849
 20
383.105
 11
-135.151
 21
383.105
  0
LINE
  8
0
 10
138.437
 20
129.089
 11
139.045
 21
129.245
  0
LINE
  8
0
 10
139.045
 20
129.245
 11
139.629
 21
129.476
  0
LINE
  8
0
 10
139.629
 20
129.476
 11
140.179
 21
129.778
  0
LINE
  8
0
 10
140.179
 20
129.778
 11
140.687
 21
130.147
  0
LINE
  8
0
 10
140.687
 20
130.147
 11
141.145
 21
130.577
  0
LINE
  8
0
 10
141.145
 20
130.577
 11
141.545
 21
131.061
  0
LINE
  8
0
 10
141.545
 20
131.061
 11
141.882
 21
131.591
  0
LINE
  8
0
 10
141.882
 20
131.591
 11
142.149
 21
132.159
  0
LINE
  8
0
 10
142.149
 20
132.159
 11
142.343
 21
132.757
  0
LINE
  8
0
 10
142.343
 20
132.757
 11
142.461
 21
133.373
  0
LINE
  8
0
 10
142.461
 20
133.373
 11
142.5
 21
134
  0
LINE
  8
0
 10
142.5
 20
134
 11
142.5
 21
364
  0
LINE
  8
0
 10
142.5
 20
364
 11
142.461
 21
364.627
  0
LINE
  8
0
 10
142.461
 20
364.627
 11
142.343
 21
365.243
  0
LINE
  8
0
 10
142.343
 20
365.243
 11
142.149
 21
365.841
  0
LINE
  8
0
 10
142.149
 20
365.841
 11
141.882
 21
366.409
  0
LINE
  8
0
 10
141.882
 20
366.409
 11
141.545
 21
366.939
  0
LINE
  8
0
 10
141.545
 20
366.939
 11
141.145
 21
367.423
  0
LINE
  8
0
 10
141.145
 20
367.423
 11
140.687
 21
367.853
  0
LINE
  8
0
 10
140.687
 20
367.853
 11
140.179
 21
368.222
  0
LINE
  8
0
 10
140.179
 20
368.222
 11
139.629
 21
368.524
  0
LINE
  8
0
 10
139.629
 20
368.524
 11
139.045
 21
368.755
  0
LINE
  8
0
 10
139.045
 20
368.755
 11
138.437
 21
368.911
  0
LINE
  8
0
 10
138.437
 20
368.911
 11
137.814
 21
368.99
  0
LINE
  8
0
 10
137.814
 20
368.99
 11
-137.814
 21
368.99
  0
LINE
  8
0
 10
-137.814
 20
368.99
 11
-138.437
 21
368.911
  0
LINE
  8
0
 10
-138.437
 20
368.911
 11
-139.045
 21
368.755
  0
LINE
  8
0
 10
-139.045
 20
368.755
 11
-139.629
 21
368.524
  0
LINE
  8
0
 10
-139.629
 20
368.524
 11
-140.179
 21
368.222
  0
LINE
  8
0
 10
-140.179
 20
368.222
 11
-140.687
 21
367.853
  0
LINE
  8
0
 10
-140.687
 20
367.853
 11
-141.145
 21
367.423
  0
LINE
  8
0
 10
-141.145
 20
367.423
 11
-141.545
 21
366.939
  0
LINE
  8
0
 10
-141.545
 20
366.939
 11
-141.882
 21
366.409
  0
LINE
  8
0
 10
-141.882
 20
366.409
 11
-142.149
 21
365.841
  0
LINE
  8
0
 10
-142.149
 20
365.841
 11
-142.343
 21
365.243
  0
LINE
  8
0
 10
-142.343
 20
365.243
 11
-142.4
 21
364.944
  0
LINE
  8
0
 10
-142.4
 20
364.944
 11
-144
 21
364.944
  0
LINE
  8
0
 10
-144
 20
364.944
 11
-144
 21
133.056
  0
LINE
  8
0
 10
-144
 20
133.056
 11
-142.4
 21
133.056
  0
LINE
  8
0
 10
-142.4
 20
133.056
 11
-142.343
 21
132.757
  0
LINE
  8
0
 10
-142.343
 20
132.757
 11
-142.149
 21
132.159
  0
LINE
  8
0
 10
-142.149
 20
132.159
 11
-141.882
 21
131.591
  0
LINE
  8
0
 10
-141.882
 20
131.591
 11
-141.545
 21
131.061
  0
LINE
  8
0
 10
-141.545
 20
131.061
 11
-141.145
 21
130.577
  0
LINE
  8
0
 10
-141.145
 20
130.577
 11
-140.687
 21
130.147
  0
LINE
  8
0
 10
-140.687
 20
130.147
 11
-140.179
 21
129.778
  0
LINE
  8
0
 10
-140.179
 20
129.778
 11
-139.629
 21
129.476
  0
LINE
  8
0
 10
-139.629
 20
129.476
 11
-139.045
 21
129.245
  0
LINE
  8
0
 10
-139.045
 20
129.245
 11
-138.437
 21
129.089
  0
LINE
  8
0
 10
-138.437
 20
129.089
 11
-137.814
 21
129.01
  0
LINE
  8
0
 10
-137.814
 20
129.01
 11
137.814
 21
129.01
  0
LINE
  8
0
 10
137.814
 20
129.01
 11
138.437
 21
129.089
  0
LINE
  8
0
 10
134.887
 20
359.704
 11
134.663
 21
359.732
  0
LINE
  8
0
 10
134.663
 20
359.732
 11
134.444
 21
359.788
  0
LINE
  8
0
 10
134.444
 20
359.788
 11
134.234
 21
359.871
  0
LINE
  8
0
 10
134.234
 20
359.871
 11
134.036
 21
359.98
  0
LINE
  8
0
 10
134.036
 20
359.98
 11
133.853
 21
360.113
  0
LINE
  8
0
 10
133.853
 20
360.113
 11
133.688
 21
360.268
  0
LINE
  8
0
 10
133.688
 20
360.268
 11
133.544
 21
360.442
  0
LINE
  8
0
 10
133.544
 20
360.442
 11
133.423
 21
360.633
  0
LINE
  8
0
 10
133.423
 20
360.633
 11
133.326
 21
360.837
  0
LINE
  8
0
 10
133.326
 20
360.837
 11
133.257
 21
361.052
  0
LINE
  8
0
 10
133.257
 20
361.052
 11
133.214
 21
361.274
  0
LINE
  8
0
 10
133.214
 20
361.274
 11
133.2
 21
361.5
  0
LINE
  8
0
 10
133.2
 20
361.5
 11
133.214
 21
361.726
  0
LINE
  8
0
 10
133.214
 20
361.726
 11
133.257
 21
361.948
  0
LINE
  8
0
 10
133.257
 20
361.948
 11
133.326
 21
362.163
  0
LINE
  8
0
 10
133.326
 20
362.163
 11
133.423
 21
362.367
  0
LINE
  8
0
 10
133.423
 20
362.367
 11
133.544
 21
362.558
  0
LINE
  8
0
 10
133.544
 20
362.558
 11
133.688
 21
362.732
  0
LINE
  8
0
 10
133.688
 20
362.732
 11
133.853
 21
362.887
  0
LINE
  8
0
 10
133.853
 20
362.887
 11
134.036
 21
363.02
  0
LINE
  8
0
 10
134.036
 20
363.02
 11
134.234
 21
363.129
  0
LINE
  8
0
 10
134.234
 20
363.129
 11
134.444
 21
363.212
  0
LINE
  8
0
 10
134.444
 20
363.212
 11
134.663
 21
363.268
  0
LINE
  8
0
 10
134.663
 20
363.268
 11
134.887
 21
363.296
  0
LINE
  8
0
 10
134.887
 20
363.296
 11
135.113
 21
363.296
  0
LINE
  8
0
 10
135.113
 20
363.296
 11
135.337
 21
363.268
  0
LINE
  8
0
 10
135.337
 20
363.268
 11
135.556
 21
363.212
  0
LINE
  8
0
 10
135.556
 20
363.212
 11
135.766
 21
363.129
  0
LINE
  8
0
 10
135.766
 20
363.129
 11
135.964
 21
363.02
  0
LINE
  8
0
 10
135.964
 20
363.02
 11
136.147
 21
362.887
  0
LINE
  8
0
 10
136.147
 20
362.887
 11
136.312
 21
362.732
  0
LINE
  8
0
 10
136.312
 20
362.732
 11
136.456
 21
362.558
  0
LINE
  8
0
 10
136.456
 20
362.558
 11
136.577
 21
362.367
  0
LINE
  8
0
 10
136.577
 20
362.367
 11
136.674
 21
362.163
  0
LINE
  8
0
 10
136.674
 20
362.163
 11
136.743
 21
361.948
  0
LINE
  8
0
 10
136.743
 20
361.948
 11
136.786
 21
361.726
  0
LINE
  8
0
 10
136.786
 20
361.726
 11
136.8
 21
361.5
  0
LINE
  8
0
 10
136.8
 20
361.5
 11
136.786
 21
361.274
  0
LINE
  8
0
 10
136.786
 20
361.274
 11
136.743
 21
361.052
  0
LINE
  8
0
 10
136.743
 20
361.052
 11
136.674
 21
360.837
  0
LINE
  8
0
 10
136.674
 20
360.837
 11
136.577
 21
360.633
  0
LINE
  8
0
 10
136.577
 20
360.633
 11
136.456
 21
360.442
  0
LINE
  8
0
 10
136.456
 20
360.442
 11
136.312
 21
360.268
  0
LINE
  8
0
 10
136.312
 20
360.268
 11
136.147
 21
360.113
  0
LINE
  8
0
 10
136.147
 20
360.113
 11
135.964
 21
359.98
  0
LINE
  8
0
 10
135.964
 20
359.98
 11
135.766
 21
359.871
  0
LINE
  8
0
 10
135.766
 20
359.871
 11
135.556
 21
359.788
  0
LINE
  8
0
 10
135.556
 20
359.788
 11
135.337
 21
359.732
  0
LINE
  8
0
 10
135.337
 20
359.732
 11
135.113
 21
359.704
  0
LINE
  8
0
 10
135.113
 20
359.704
 11
134.887
 21
359.704
  0
LINE
  8
0
 10
-135.113
 20
359.704
 11
-135.337
 21
359.732
  0
LINE
  8
0
 10
-135.337
 20
359.732
 11
-135.556
 21
359.788
  0
LINE
  8
0
 10
-135.556
 20
359.788
 11
-135.766
 21
359.871
  0
LINE
  8
0
 10
-135.766
 20
359.871
 11
-135.964
 21
359.98
  0
LINE
  8
0
 10
-135.964
 20
359.98
 11
-136.147
 21
360.113
  0
LINE
  8
0
 10
-136.147
 20
360.113
 11
-136.312
 21
360.268
  0
LINE
  8
0
 10
-136.312
 20
360.268
 11
-136.456
 21
360.442
  0
LINE
  8
0
 10
-136.456
 20
360.442
 11
-136.577
 21
360.633
  0
LINE
  8
0
 10
-136.577
 20
360.633
 11
-136.674
 21
360.837
  0
LINE
  8
0
 10
-136.674
 20
360.837
 11
-136.743
 21
361.052
  0
LINE
  8
0
 10
-136.743
 20
361.052
 11
-136.786
 21
361.274
  0
LINE
  8
0
 10
-136.786
 20
361.274
 11
-136.8
 21
361.5
  0
LINE
  8
0
 10
-136.8
 20
361.5
 11
-136.786
 21
361.726
  0
LINE
  8
0
 10
-136.786
 20
361.726
 11
-136.743
 21
361.948
  0
LINE
  8
0
 10
-136.743
 20
361.948
 11
-136.674
 21
362.163
  0
LINE
  8
0
 10
-136.674
 20
362.163
 11
-136.577
 21
362.367
  0
LINE
  8
0
 10
-136.577
 20
362.367
 11
-136.456
 21
362.558
  0
LINE
  8
0
 10
-136.456
 20
362.558
 11
-136.312
 21
362.732
  0
LINE
  8
0
 10
-136.312
 20
362.732
 11
-136.147
 21
362.887
  0
LINE
  8
0
 10
-136.147
 20
362.887
 11
-135.964
 21
363.02
  0
LINE
  8
0
 10
-135.964
 20
363.02
 11
-135.766
 21
363.129
  0
LINE
  8
0
 10
-135.766
 20
363.129
 11
-135.556
 21
363.212
  0
LINE
  8
0
 10
-135.556
 20
363.212
 11
-135.337
 21
363.268
  0
LINE
  8
0
 10
-135.337
 20
363.268
 11
-135.113
 21
363.296
  0
LINE
  8
0
 10
-135.113
 20
363.296
 11
-134.887
 21
363.296
  0
LINE
  8
0
 10
-134.887
 20
363.296
 11
-134.663
 21
363.268
  0
LINE
  8
0
 10
-134.663
 20
363.268
 11
-134.444
 21
363.212
  0
LINE
  8
0
 10
-134.444
 20
363.212
 11
-134.234
 21
363.129
  0
LINE
  8
0
 10
-134.234
 20
363.129
 11
-134.036
 21
363.02
  0
LINE
  8
0
 10
-134.036
 20
363.02
 11
-133.853
 21
362.887
  0
LINE
  8
0
 10
-133.853
 20
362.887
 11
-133.688
 21
362.732
  0
LINE
  8
0
 10
-133.688
 20
362.732
 11
-133.544
 21
362.558
  0
LINE
  8
0
 10
-133.544
 20
362.558
 11
-133.423
 21
362.367
  0
LINE
  8
0
 10
-133.423
 20
362.367
 11
-133.326
 21
362.163
  0
LINE
  8
0
 10
-133.326
 20
362.163
 11
-133.257
 21
361.948
  0
LINE
  8
0
 10
-133.257
 20
361.948
 11
-133.214
 21
361.726
  0
LINE
  8
0
 10
-133.214
 20
361.726
 11
-133.2
 21
361.5
  0
LINE
  8
0
 10
-133.2
 20
361.5
 11
-133.214
 21
361.274
  0
LINE
  8
0
 10
-133.214
 20
361.274
 11
-133.257
 21
361.052
  0
LINE
  8
0
 10
-133.257
 20
361.052
 11
-133.326
 21
360.837
  0
LINE
  8
0
 10
-133.326
 20
360.837
 11
-133.423
 21
360.633
  0
LINE
  8
0
 10
-133.423
 20
360.633
 11
-133.544
 21
360.442
  0
LINE
  8
0
 10
-133.544
 20
360.442
 11
-133.688
 21
360.268
  0
LINE
  8
0
 10
-133.688
 20
360.268
 11
-133.853
 21
360.113
  0
LINE
  8
0
 10
-133.853
 20
360.113
 11
-134.036
 21
359.98
  0
LINE
  8
0
 10
-134.036
 20
359.98
 11
-134.234
 21
359.871
  0
LINE
  8
0
 10
-134.234
 20
359.871
 11
-134.444
 21
359.788
  0
LINE
  8
0
 10
-134.444
 20
359.788
 11
-134.663
 21
359.732
  0
LINE
  8
0
 10
-134.663
 20
359.732
 11
-134.887
 21
359.704
  0
LINE
  8
0
 10
-134.887
 20
359.704
 11
-135.113
 21
359.704
  0
LINE
  8
0
 10
134.887
 20
134.704
 11
134.663
 21
134.732
  0
LINE
  8
0
 10
134.663
 20
134.732
 11
134.444
 21
134.788
  0
LINE
  8
0
 10
134.444
 20
134.788
 11
134.234
 21
134.871
  0
LINE
  8
0
 10
134.234
 20
134.871
 11
134.036
 21
134.98
  0
LINE
  8
0
 10
134.036
 20
134.98
 11
133.853
 21
135.113
  0
LINE
  8
0
 10
133.853
 20
135.113
 11
133.688
 21
135.268
  0
LINE
  8
0
 10
133.688
 20
135.268
 11
133.544
 21
135.442
  0
LINE
  8
0
 10
133.544
 20
135.442
 11
133.423
 21
135.633
  0
LINE
  8
0
 10
133.423
 20
135.633
 11
133.326
 21
135.837
  0
LINE
  8
0
 10
133.326
 20
135.837
 11
133.257
 21
136.052
  0
LINE
  8
0
 10
133.257
 20
136.052
 11
133.214
 21
136.274
  0
LINE
  8
0
 10
133.214
 20
136.274
 11
133.2
 21
136.5
  0
LINE
  8
0
 10
133.2
 20
136.5
 11
133.214
 21
136.726
  0
LINE
  8
0
 10
133.214
 20
136.726
 11
133.257
 21
136.948
  0
LINE
  8
0
 10
133.257
 20
136.948
 11
133.326
 21
137.163
  0
LINE
  8
0
 10
133.326
 20
137.163
 11
133.423
 21
137.367
  0
LINE
  8
0
 10
133.423
 20
137.367
 11
133.544
 21
137.558
  0
LINE
  8
0
 10
133.544
 20
137.558
 11
133.688
 21
137.732
  0
LINE
  8
0
 10
133.688
 20
137.732
 11
133.853
 21
137.887
  0
LINE
  8
0
 10
133.853
 20
137.887
 11
134.036
 21
138.02
  0
LINE
  8
0
 10
134.036
 20
138.02
 11
134.234
 21
138.129
  0
LINE
  8
0
 10
134.234
 20
138.129
 11
134.444
 21
138.212
  0
LINE
  8
0
 10
134.444
 20
138.212
 11
134.663
 21
138.268
  0
LINE
  8
0
 10
134.663
 20
138.268
 11
134.887
 21
138.296
  0
LINE
  8
0
 10
134.887
 20
138.296
 11
135.113
 21
138.296
  0
LINE
  8
0
 10
135.113
 20
138.296
 11
135.337
 21
138.268
  0
LINE
  8
0
 10
135.337
 20
138.268
 11
135.556
 21
138.212
  0
LINE
  8
0
 10
135.556
 20
138.212
 11
135.766
 21
138.129
  0
LINE
  8
0
 10
135.766
 20
138.129
 11
135.964
 21
138.02
  0
LINE
  8
0
 10
135.964
 20
138.02
 11
136.147
 21
137.887
  0
LINE
  8
0
 10
136.147
 20
137.887
 11
136.312
 21
137.732
  0
LINE
  8
0
 10
136.312
 20
137.732
 11
136.456
 21
137.558
  0
LINE
  8
0
 10
136.456
 20
137.558
 11
136.577
 21
137.367
  0
LINE
  8
0
 10
136.577
 20
137.367
 11
136.674
 21
137.163
  0
LINE
  8
0
 10
136.674
 20
137.163
 11
136.743
 21
136.948
  0
LINE
  8
0
 10
136.743
 20
136.948
 11
136.786
 21
136.726
  0
LINE
  8
0
 10
136.786
 20
136.726
 11
136.8
 21
136.5
  0
LINE
  8
0
 10
136.8
 20
136.5
 11
136.786
 21
136.274
  0
LINE
  8
0
 10
136.786
 20
136.274
 11
136.743
 21
136.052
  0
LINE
  8
0
 10
136.743
 20
136.052
 11
136.674
 21
135.837
  0
LINE
  8
0
 10
136.674
 20
135.837
 11
136.577
 21
135.633
  0
LINE
  8
0
 10
136.577
 20
135.633
 11
136.456
 21
135.442
  0
LINE
  8
0
 10
136.456
 20
135.442
 11
136.312
 21
135.268
  0
LINE
  8
0
 10
136.312
 20
135.268
 11
136.147
 21
135.113
  0
LINE
  8
0
 10
136.147
 20
135.113
 11
135.964
 21
134.98
  0
LINE
  8
0
 10
135.964
 20
134.98
 11
135.766
 21
134.871
  0
LINE
  8
0
 10
135.766
 20
134.871
 11
135.556
 21
134.788
  0
LINE
  8
0
 10
135.556
 20
134.788
 11
135.337
 21
134.732
  0
LINE
  8
0
 10
135.337
 20
134.732
 11
135.113
 21
134.704
  0
LINE
  8
0
 10
135.113
 20
134.704
 11
134.887
 21
134.704
  0
LINE
  8
0
 10
-135.113
 20
134.704
 11
-135.337
 21
134.732
  0
LINE
  8
0
 10
-135.337
 20
134.732
 11
-135.556
 21
134.788
  0
LINE
  8
0
 10
-135.556
 20
134.788
 11
-135.766
 21
134.871
  0
LINE
  8
0
 10
-135.766
 20
134.871
 11
-135.964
 21
134.98
  0
LINE
  8
0
 10
-135.964
 20
134.98
 11
-136.147
 21
135.113
  0
LINE
  8
0
 10
-136.147
 20
135.113
 11
-136.312
 21
135.268
  0
LINE
  8
0
 10
-136.312
 20
135.268
 11
-136.456
 21
135.442
  0
LINE
  8
0
 10
-136.456
 20
135.442
 11
-136.577
 21
135.633
  0
LINE
  8
0
 10
-136.577
 20
135.633
 11
-136.674
 21
135.837
  0
LINE
  8
0
 10
-136.674
 20
135.837
 11
-136.743
 21
136.052
  0
LINE
  8
0
 10
-136.743
 20
136.052
 11
-136.786
 21
136.274
  0
LINE
  8
0
 10
-136.786
 20
136.274
 11
-136.8
 21
136.5
  0
LINE
  8
0
 10
-136.8
 20
136.5
 11
-136.786
 21
136.726
  0
LINE
  8
0
 10
-136.786
 20
136.726
 11
-136.743
 21
136.948
  0
LINE
  8
0
 10
-136.743
 20
136.948
 11
-136.674
 21
137.163
  0
LINE
  8
0
 10
-136.674
 20
137.163
 11
-136.577
 21
137.367
  0
LINE
  8
0
 10
-136.577
 20
137.367
 11
-136.456
 21
137.558
  0
LINE
  8
0
 10
-136.456
 20
137.558
 11
-136.312
 21
137.732
  0
LINE
  8
0
 10
-136.312
 20
137.732
 11
-136.147
 21
137.887
  0
LINE
  8
0
 10
-136.147
 20
137.887
 11
-135.964
 21
138.02
  0
LINE
  8
0
 10
-135.964
 20
138.02
 11
-135.766
 21
138.129
  0
LINE
  8
0
 10
-135.766
 20
138.129
 11
-135.556
 21
138.212
  0
LINE
  8
0
 10
-135.556
 20
138.212
 11
-135.337
 21
138.268
  0
LINE
  8
0
 10
-135.337
 20
138.268
 11
-135.113
 21
138.296
  0
LINE
  8
0
 10
-135.113
 20
138.296
 11
-134.887
 21
138.296
  0
LINE
  8
0
 10
-134.887
 20
138.296
 11
-134.663
 21
138.268
  0
LINE
  8
0
 10
-134.663
 20
138.268
 11
-134.444
 21
138.212
  0
LINE
  8
0
 10
-134.444
 20
138.212
 11
-134.234
 21
138.129
  0
LINE
  8
0
 10
-134.234
 20
138.129
 11
-134.036
 21
138.02
  0
LINE
  8
0
 10
-134.036
 20
138.02
 11
-133.853
 21
137.887
  0
LINE
  8
0
 10
-133.853
 20
137.887
 11
-133.688
 21
137.732
  0
LINE
  8
0
 10
-133.688
 20
137.732
 11
-133.544
 21
137.558
  0
LINE
  8
0
 10
-133.544
 20
137.558
 11
-133.423
 21
137.367
  0
LINE
  8
0
 10
-133.423
 20
137.367
 11
-133.326
 21
137.163
  0
LINE
  8
0
 10
-133.326
 20
137.163
 11
-133.257
 21
136.948
  0
LINE
  8
0
 10
-133.257
 20
136.948
 11
-133.214
 21
136.726
  0
LINE
  8
0
 10
-133.214
 20
136.726
 11
-133.2
 21
136.5
  0
LINE
  8
0
 10
-133.2
 20
136.5
 11
-133.214
 21
136.274
  0
LINE
  8
0
 10
-133.214
 20
136.274
 11
-133.257
 21
136.052
  0
LINE
  8
0
 10
-133.257
 20
136.052
 11
-133.326
 21
135.837
  0
LINE
  8
0
 10
-133.326
 20
135.837
 11
-133.423
 21
135.633
  0
LINE
  8
0
 10
-133.423
 20
135.633
 11
-133.544
 21
135.442
  0
LINE
  8
0
 10
-133.544
 20
135.442
 11
-133.688
 21
135.268
  0
LINE
  8
0
 10
-133.688
 20
135.268
 11
-133.853
 21
135.113
  0
LINE
  8
0
 10
-133.853
 20
135.113
 11
-134.036
 21
134.98
  0
LINE
  8
0
 10
-134.036
 20
134.98
 11
-134.234
 21
134.871
  0
LINE
  8
0
 10
-134.234
 20
134.871
 11
-134.444
 21
134.788
  0
LINE
  8
0
 10
-134.444
 20
134.788
 11
-134.663
 21
134.732
  0
LINE
  8
0
 10
-134.663
 20
134.732
 11
-134.887
 21
134.704
  0
LINE
  8
0
 10
-134.887
 20
134.704
 11
-135.113
 21
134.704
  0
ENDSEC
  0
SECTION
  2
OBJECTS
  0
DICTIONARY
  0
ENDSEC
  0
EOF
