<?xml version="1.0" standalone="no"?>
<!DOCTYPE svg PUBLIC "-//W3C//DTD SVG 1.1//EN" "http://www.w3.org/Graphics/SVG/1.1/DTD/svg11.dtd">
<svg width="272mm" height="867mm" viewBox="-137 -1419 272 867" xmlns="http://www.w3.org/2000/svg" version="1.1">
<title>OpenSCAD Model</title>
<path d="
M -133.5,-1210.44 L -133.187,-1210.15 L -132.679,-1209.78 L -132.129,-1209.48 L -131.545,-1209.24 L -130.937,-1209.09
 L -130.314,-1209.01 L 130.314,-1209.01 L 130.937,-1209.09 L 131.545,-1209.24 L 132.129,-1209.48 L 132.679,-1209.78
 L 133.187,-1210.15 L 133.645,-1210.58 L 134.045,-1211.06 L 134.382,-1211.59 L 134.649,-1212.16 L 134.843,-1212.76
 L 134.961,-1213.37 L 135,-1214 L 135,-1414 L 134.961,-1414.63 L 134.843,-1415.24 L 134.649,-1415.84
 L 134.382,-1416.41 L 134.045,-1416.94 L 133.645,-1417.42 L 133.187,-1417.85 L 132.679,-1418.22 L 132.129,-1418.52
 L 131.545,-1418.76 L 130.937,-1418.91 L 130.314,-1418.99 L -130.314,-1418.99 L -130.937,-1418.91 L -131.545,-1418.76
 L -132.129,-1418.52 L -132.679,-1418.22 L -133.187,-1417.85 L -133.5,-1417.56 L -133.5,-1418.99 L -136.5,-1418.99
 L -136.5,-1209.01 L -133.5,-1209.01 z
M -129.751,-1210.51 L -130.25,-1210.57 L -130.736,-1210.7 L -131.203,-1210.88 L -131.643,-1211.12 L -132.05,-1211.42
 L -132.416,-1211.76 L -132.736,-1212.15 L -133.005,-1212.57 L -133.219,-1213.03 L -133.374,-1213.51 L -133.468,-1214
 L -133.5,-1214.5 L -133.5,-1413.5 L -133.468,-1414 L -133.374,-1414.49 L -133.219,-1414.97 L -133.005,-1415.43
 L -132.736,-1415.85 L -132.416,-1416.24 L -132.05,-1416.58 L -131.643,-1416.88 L -131.203,-1417.12 L -130.736,-1417.3
 L -130.25,-1417.43 L -129.751,-1417.49 L 129.751,-1417.49 L 130.25,-1417.43 L 130.736,-1417.3 L 131.203,-1417.12
 L 131.643,-1416.88 L 132.05,-1416.58 L 132.416,-1416.24 L 132.736,-1415.85 L 133.005,-1415.43 L 133.219,-1414.97
 L 133.374,-1414.49 L 133.468,-1414 L 133.5,-1413.5 L 133.5,-1214.5 L 133.468,-1214 L 133.374,-1213.51
 L 133.219,-1213.03 L 133.005,-1212.57 L 132.736,-1212.15 L 132.416,-1211.76 L 132.05,-1211.42 L 131.643,-1211.12
 L 131.203,-1210.88 L 130.736,-1210.7 L 130.25,-1210.57 L 129.751,-1210.51 z
M -133.5,-991.441 L -133.187,-991.147 L -132.679,-990.778 L -132.129,-990.476 L -131.545,-990.245 L -130.937,-990.089
 L -130.314,-990.01 L 130.314,-990.01 L 130.937,-990.089 L 131.545,-990.245 L 132.129,-990.476 L 132.679,-990.778
 L 133.187,-991.147 L 133.645,-991.577 L 134.045,-992.061 L 134.382,-992.591 L 134.649,-993.159 L 134.843,-993.757
 L 134.961,-994.373 L 135,-995 L 135,-1195 L 134.961,-1195.63 L 134.843,-1196.24 L 134.649,-1196.84
 L 134.382,-1197.41 L 134.045,-1197.94 L 133.645,-1198.42 L 133.187,-1198.85 L 132.679,-1199.22 L 132.129,-1199.52
 L 131.545,-1199.76 L 130.937,-1199.91 L 130.314,-1199.99 L -130.314,-1199.99 L -130.937,-1199.91 L -131.545,-1199.76
 L -132.129,-1199.52 L -132.679,-1199.22 L -133.187,-1198.85 L -133.5,-1198.56 L -133.5,-1199.99 L -136.5,-1199.99
 L -136.5,-990.01 L -133.5,-990.01 z
M -129.743,-991.635 L -130.226,-991.696 L -130.697,-991.817 L -131.149,-991.996 L -131.575,-992.23 L -131.969,-992.516
 L -132.323,-992.849 L -132.633,-993.224 L -132.894,-993.634 L -133.101,-994.074 L -133.251,-994.537 L -133.342,-995.015
 L -133.373,-995.5 L -133.373,-1194.5 L -133.342,-1194.99 L -133.251,-1195.46 L -133.101,-1195.93 L -132.894,-1196.37
 L -132.633,-1196.78 L -132.323,-1197.15 L -131.969,-1197.48 L -131.575,-1197.77 L -131.149,-1198 L -130.697,-1198.18
 L -130.226,-1198.3 L -129.743,-1198.36 L 129.743,-1198.36 L 130.226,-1198.3 L 130.697,-1198.18 L 131.149,-1198
 L 131.575,-1197.77 L 131.969,-1197.48 L 132.323,-1197.15 L 132.633,-1196.78 L 132.894,-1196.37 L 133.101,-1195.93
 L 133.251,-1195.46 L 133.342,-1194.99 L 133.373,-1194.5 L 133.373,-995.5 L 133.342,-995.015 L 133.251,-994.537
 L 133.101,-994.074 L 132.894,-993.634 L 132.633,-993.224 L 132.323,-992.849 L 131.969,-992.516 L 131.575,-992.23
 L 131.149,-991.996 L 130.697,-991.817 L 130.226,-991.696 L 129.743,-991.635 z
M 130.937,-771.089 L 131.545,-771.245 L 132.129,-771.476 L 132.679,-771.778 L 133.187,-772.147 L 133.645,-772.577
 L 134.045,-773.061 L 134.382,-773.591 L 134.649,-774.159 L 134.843,-774.757 L 134.961,-775.373 L 135,-776
 L 135,-976 L 134.961,-976.627 L 134.843,-977.243 L 134.649,-977.841 L 134.382,-978.409 L 134.045,-978.939
 L 133.645,-979.423 L 133.187,-979.853 L 132.679,-980.222 L 132.129,-980.524 L 131.545,-980.755 L 130.937,-980.911
 L 130.314,-980.99 L -130.314,-980.99 L -130.937,-980.911 L -131.545,-980.755 L -132.129,-980.524 L -132.679,-980.222
 L -133.187,-979.853 L -133.5,-979.559 L -133.5,-980.615 L -136.5,-980.615 L -136.5,-771.385 L -133.5,-771.385
 L -133.5,-772.441 L -133.187,-772.147 L -132.679,-771.778 L -132.129,-771.476 L -131.545,-771.245 L -130.937,-771.089
 L -130.314,-771.01 L 130.314,-771.01 z
M -127.651,-971.105 L -127.95,-971.143 L -128.242,-971.217 L -128.522,-971.328 L -128.786,-971.474 L -129.03,-971.651
 L -129.25,-971.857 L -129.442,-972.089 L -129.603,-972.344 L -129.731,-972.617 L -129.825,-972.903 L -129.881,-973.199
 L -129.9,-973.5 L -129.881,-973.801 L -129.825,-974.097 L -129.731,-974.383 L -129.603,-974.656 L -129.442,-974.911
 L -129.25,-975.143 L -129.03,-975.349 L -128.786,-975.526 L -128.522,-975.672 L -128.242,-975.783 L -127.95,-975.857
 L -127.651,-975.895 L -127.349,-975.895 L -127.05,-975.857 L -126.758,-975.783 L -126.478,-975.672 L -126.214,-975.526
 L -125.97,-975.349 L -125.75,-975.143 L -125.558,-974.911 L -125.397,-974.656 L -125.269,-974.383 L -125.175,-974.097
 L -125.119,-973.801 L -125.1,-973.5 L -125.119,-973.199 L -125.175,-972.903 L -125.269,-972.617 L -125.397,-972.344
 L -125.558,-972.089 L -125.75,-971.857 L -125.97,-971.651 L -126.214,-971.474 L -126.478,-971.328 L -126.758,-971.217
 L -127.05,-971.143 L -127.349,-971.105 z
M 127.349,-971.105 L 127.05,-971.143 L 126.758,-971.217 L 126.478,-971.328 L 126.214,-971.474 L 125.97,-971.651
 L 125.75,-971.857 L 125.558,-972.089 L 125.397,-972.344 L 125.269,-972.617 L 125.175,-972.903 L 125.119,-973.199
 L 125.1,-973.5 L 125.119,-973.801 L 125.175,-974.097 L 125.269,-974.383 L 125.397,-974.656 L 125.558,-974.911
 L 125.75,-975.143 L 125.97,-975.349 L 126.214,-975.526 L 126.478,-975.672 L 126.758,-975.783 L 127.05,-975.857
 L 127.349,-975.895 L 127.651,-975.895 L 127.95,-975.857 L 128.242,-975.783 L 128.522,-975.672 L 128.786,-975.526
 L 129.03,-975.349 L 129.25,-975.143 L 129.442,-974.911 L 129.603,-974.656 L 129.731,-974.383 L 129.825,-974.097
 L 129.881,-973.801 L 129.9,-973.5 L 129.881,-973.199 L 129.825,-972.903 L 129.731,-972.617 L 129.603,-972.344
 L 129.442,-972.089 L 129.25,-971.857 L 129.03,-971.651 L 128.786,-971.474 L 128.522,-971.328 L 128.242,-971.217
 L 127.95,-971.143 L 127.651,-971.105 z
M 127.349,-776.105 L 127.05,-776.143 L 126.758,-776.217 L 126.478,-776.328 L 126.214,-776.474 L 125.97,-776.651
 L 125.75,-776.857 L 125.558,-777.089 L 125.397,-777.344 L 125.269,-777.617 L 125.175,-777.903 L 125.119,-778.199
 L 125.1,-778.5 L 125.119,-778.801 L 125.175,-779.097 L 125.269,-779.383 L 125.397,-779.656 L 125.558,-779.911
 L 125.75,-780.143 L 125.97,-780.349 L 126.214,-780.526 L 126.478,-780.672 L 126.758,-780.783 L 127.05,-780.857
 L 127.349,-780.895 L 127.651,-780.895 L 127.95,-780.857 L 128.242,-780.783 L 128.522,-780.672 L 128.786,-780.526
 L 129.03,-780.349 L 129.25,-780.143 L 129.442,-779.911 L 129.603,-779.656 L 129.731,-779.383 L 129.825,-779.097
 L 129.881,-778.801 L 129.9,-778.5 L 129.881,-778.199 L 129.825,-777.903 L 129.731,-777.617 L 129.603,-777.344
 L 129.442,-777.089 L 129.25,-776.857 L 129.03,-776.651 L 128.786,-776.474 L 128.522,-776.328 L 128.242,-776.217
 L 127.95,-776.143 L 127.651,-776.105 z
M -127.651,-776.105 L -127.95,-776.143 L -128.242,-776.217 L -128.522,-776.328 L -128.786,-776.474 L -129.03,-776.651
 L -129.25,-776.857 L -129.442,-777.089 L -129.603,-777.344 L -129.731,-777.617 L -129.825,-777.903 L -129.881,-778.199
 L -129.9,-778.5 L -129.881,-778.801 L -129.825,-779.097 L -129.731,-779.383 L -129.603,-779.656 L -129.442,-779.911
 L -129.25,-780.143 L -129.03,-780.349 L -128.786,-780.526 L -128.522,-780.672 L -128.242,-780.783 L -127.95,-780.857
 L -127.651,-780.895 L -127.349,-780.895 L -127.05,-780.857 L -126.758,-780.783 L -126.478,-780.672 L -126.214,-780.526
 L -125.97,-780.349 L -125.75,-780.143 L -125.558,-779.911 L -125.397,-779.656 L -125.269,-779.383 L -125.175,-779.097
 L -125.119,-778.801 L -125.1,-778.5 L -125.119,-778.199 L -125.175,-777.903 L -125.269,-777.617 L -125.397,-777.344
 L -125.558,-777.089 L -125.75,-776.857 L -125.97,-776.651 L -126.214,-776.474 L -126.478,-776.328 L -126.758,-776.217
 L -127.05,-776.143 L -127.349,-776.105 z
M 130.937,-552.089 L 131.545,-552.245 L 132.129,-552.476 L 132.679,-552.778 L 133.187,-553.147 L 133.645,-553.577
 L 134.045,-554.061 L 134.382,-554.591 L 134.649,-555.159 L 134.843,-555.757 L 134.961,-556.373 L 135,-557
 L 135,-757 L 134.961,-757.627 L 134.843,-758.243 L 134.649,-758.841 L 134.382,-759.409 L 134.045,-759.939
 L 133.645,-760.423 L 133.187,-760.853 L 132.679,-761.222 L 132.129,-761.524 L 131.545,-761.755 L 130.937,-761.911
 L 130.314,-761.99 L -130.314,-761.99 L -130.937,-761.911 L -131.545,-761.755 L -132.129,-761.524 L -132.679,-761.222
 L -133.187,-760.853 L -133.645,-760.423 L -134.045,-759.939 L -134.382,-759.409 L -134.649,-758.841 L -134.843,-758.243
 L -134.9,-757.944 L -136.5,-757.944 L -136.5,-556.056 L -134.9,-556.056 L -134.843,-555.757 L -134.649,-555.159
 L -134.382,-554.591 L -134.045,-554.061 L -133.645,-553.577 L -133.187,-553.147 L -132.679,-552.778 L -132.129,-552.476
 L -131.545,-552.245 L -130.937,-552.089 L -130.314,-552.01 L 130.314,-552.01 z
M -127.613,-752.704 L -127.837,-752.732 L -128.056,-752.788 L -128.266,-752.871 L -128.464,-752.98 L -128.647,-753.113
 L -128.812,-753.268 L -128.956,-753.442 L -129.077,-753.633 L -129.174,-753.837 L -129.243,-754.052 L -129.286,-754.274
 L -129.3,-754.5 L -129.286,-754.726 L -129.243,-754.948 L -129.174,-755.163 L -129.077,-755.367 L -128.956,-755.558
 L -128.812,-755.732 L -128.647,-755.887 L -128.464,-756.02 L -128.266,-756.129 L -128.056,-756.212 L -127.837,-756.268
 L -127.613,-756.296 L -127.387,-756.296 L -127.163,-756.268 L -126.944,-756.212 L -126.734,-756.129 L -126.536,-756.02
 L -126.353,-755.887 L -126.188,-755.732 L -126.044,-755.558 L -125.923,-755.367 L -125.826,-755.163 L -125.757,-754.948
 L -125.714,-754.726 L -125.7,-754.5 L -125.714,-754.274 L -125.757,-754.052 L -125.826,-753.837 L -125.923,-753.633
 L -126.044,-753.442 L -126.188,-753.268 L -126.353,-753.113 L -126.536,-752.98 L -126.734,-752.871 L -126.944,-752.788
 L -127.163,-752.732 L -127.387,-752.704 z
M 127.387,-752.704 L 127.163,-752.732 L 126.944,-752.788 L 126.734,-752.871 L 126.536,-752.98 L 126.353,-753.113
 L 126.188,-753.268 L 126.044,-753.442 L 125.923,-753.633 L 125.826,-753.837 L 125.757,-754.052 L 125.714,-754.274
 L 125.7,-754.5 L 125.714,-754.726 L 125.757,-754.948 L 125.826,-755.163 L 125.923,-755.367 L 126.044,-755.558
 L 126.188,-755.732 L 126.353,-755.887 L 126.536,-756.02 L 126.734,-756.129 L 126.944,-756.212 L 127.163,-756.268
 L 127.387,-756.296 L 127.613,-756.296 L 127.837,-756.268 L 128.056,-756.212 L 128.266,-756.129 L 128.464,-756.02
 L 128.647,-755.887 L 128.812,-755.732 L 128.956,-755.558 L 129.077,-755.367 L 129.174,-755.163 L 129.243,-754.948
 L 129.286,-754.726 L 129.3,-754.5 L 129.286,-754.274 L 129.243,-754.052 L 129.174,-753.837 L 129.077,-753.633
 L 128.956,-753.442 L 128.812,-753.268 L 128.647,-753.113 L 128.464,-752.98 L 128.266,-752.871 L 128.056,-752.788
 L 127.837,-752.732 L 127.613,-752.704 z
M -127.613,-557.704 L -127.837,-557.732 L -128.056,-557.788 L -128.266,-557.871 L -128.464,-557.98 L -128.647,-558.113
 L -128.812,-558.268 L -128.956,-558.442 L -129.077,-558.633 L -129.174,-558.837 L -129.243,-559.052 L -129.286,-559.274
 L -129.3,-559.5 L -129.286,-559.726 L -129.243,-559.948 L -129.174,-560.163 L -129.077,-560.367 L -128.956,-560.558
 L -128.812,-560.732 L -128.647,-560.887 L -128.464,-561.02 L -128.266,-561.129 L -128.056,-561.212 L -127.837,-561.268
 L -127.613,-561.296 L -127.387,-561.296 L -127.163,-561.268 L -126.944,-561.212 L -126.734,-561.129 L -126.536,-561.02
 L -126.353,-560.887 L -126.188,-560.732 L -126.044,-560.558 L -125.923,-560.367 L -125.826,-560.163 L -125.757,-559.948
 L -125.714,-559.726 L -125.7,-559.5 L -125.714,-559.274 L -125.757,-559.052 L -125.826,-558.837 L -125.923,-558.633
 L -126.044,-558.442 L -126.188,-558.268 L -126.353,-558.113 L -126.536,-557.98 L -126.734,-557.871 L -126.944,-557.788
 L -127.163,-557.732 L -127.387,-557.704 z
M 127.387,-557.704 L 127.163,-557.732 L 126.944,-557.788 L 126.734,-557.871 L 126.536,-557.98 L 126.353,-558.113
 L 126.188,-558.268 L 126.044,-558.442 L 125.923,-558.633 L 125.826,-558.837 L 125.757,-559.052 L 125.714,-559.274
 L 125.7,-559.5 L 125.714,-559.726 L 125.757,-559.948 L 125.826,-560.163 L 125.923,-560.367 L 126.044,-560.558
 L 126.188,-560.732 L 126.353,-560.887 L 126.536,-561.02 L 126.734,-561.129 L 126.944,-561.212 L 127.163,-561.268
 L 127.387,-561.296 L 127.613,-561.296 L 127.837,-561.268 L 128.056,-561.212 L 128.266,-561.129 L 128.464,-561.02
 L 128.647,-560.887 L 128.812,-560.732 L 128.956,-560.558 L 129.077,-560.367 L 129.174,-560.163 L 129.243,-559.948
 L 129.286,-559.726 L 129.3,-559.5 L 129.286,-559.274 L 129.243,-559.052 L 129.174,-558.837 L 129.077,-558.633
 L 128.956,-558.442 L 128.812,-558.268 L 128.647,-558.113 L 128.464,-557.98 L 128.266,-557.871 L 128.056,-557.788
 L 127.837,-557.732 L 127.613,-557.704 z
" stroke="black" fill="lightgray" stroke-width="0.5"/>
</svg>
