<?xml version="1.0" standalone="no"?>
<!DOCTYPE svg PUBLIC "-//W3C//DTD SVG 1.1//EN" "http://www.w3.org/Graphics/SVG/1.1/DTD/svg11.dtd">
<svg width="272mm" height="808mm" viewBox="-137 -1526 272 808" xmlns="http://www.w3.org/2000/svg" version="1.1">
<title>OpenSCAD Model</title>
<path d="
M -133.5,-1331.94 L -133.187,-1331.65 L -132.679,-1331.28 L -132.129,-1330.98 L -131.545,-1330.74 L -130.937,-1330.59
 L -130.314,-1330.51 L 130.314,-1330.51 L 130.937,-1330.59 L 131.545,-1330.74 L 132.129,-1330.98 L 132.679,-1331.28
 L 133.187,-1331.65 L 133.645,-1332.08 L 134.045,-1332.56 L 134.382,-1333.09 L 134.649,-1333.66 L 134.843,-1334.26
 L 134.961,-1334.87 L 135,-1335.5 L 135,-1520.5 L 134.961,-1521.13 L 134.843,-1521.74 L 134.649,-1522.34
 L 134.382,-1522.91 L 134.045,-1523.44 L 133.645,-1523.92 L 133.187,-1524.35 L 132.679,-1524.72 L 132.129,-1525.02
 L 131.545,-1525.26 L 130.937,-1525.41 L 130.314,-1525.49 L -130.314,-1525.49 L -130.937,-1525.41 L -131.545,-1525.26
 L -132.129,-1525.02 L -132.679,-1524.72 L -133.187,-1524.35 L -133.5,-1524.06 L -133.5,-1525.49 L -136.5,-1525.49
 L -136.5,-1330.51 L -133.5,-1330.51 z
M -129.751,-1332.01 L -130.25,-1332.07 L -130.736,-1332.2 L -131.203,-1332.38 L -131.643,-1332.62 L -132.05,-1332.92
 L -132.416,-1333.26 L -132.736,-1333.65 L -133.005,-1334.07 L -133.219,-1334.53 L -133.374,-1335.01 L -133.468,-1335.5
 L -133.5,-1336 L -133.5,-1520 L -133.468,-1520.5 L -133.374,-1520.99 L -133.219,-1521.47 L -133.005,-1521.93
 L -132.736,-1522.35 L -132.416,-1522.74 L -132.05,-1523.08 L -131.643,-1523.38 L -131.203,-1523.62 L -130.736,-1523.8
 L -130.25,-1523.93 L -129.751,-1523.99 L 129.751,-1523.99 L 130.25,-1523.93 L 130.736,-1523.8 L 131.203,-1523.62
 L 131.643,-1523.38 L 132.05,-1523.08 L 132.416,-1522.74 L 132.736,-1522.35 L 133.005,-1521.93 L 133.219,-1521.47
 L 133.374,-1520.99 L 133.468,-1520.5 L 133.5,-1520 L 133.5,-1336 L 133.468,-1335.5 L 133.374,-1335.01
 L 133.219,-1334.53 L 133.005,-1334.07 L 132.736,-1333.65 L 132.416,-1333.26 L 132.05,-1332.92 L 131.643,-1332.62
 L 131.203,-1332.38 L 130.736,-1332.2 L 130.25,-1332.07 L 129.751,-1332.01 z
M -133.5,-1127.94 L -133.187,-1127.65 L -132.679,-1127.28 L -132.129,-1126.98 L -131.545,-1126.74 L -130.937,-1126.59
 L -130.314,-1126.51 L 130.314,-1126.51 L 130.937,-1126.59 L 131.545,-1126.74 L 132.129,-1126.98 L 132.679,-1127.28
 L 133.187,-1127.65 L 133.645,-1128.08 L 134.045,-1128.56 L 134.382,-1129.09 L 134.649,-1129.66 L 134.843,-1130.26
 L 134.961,-1130.87 L 135,-1131.5 L 135,-1316.5 L 134.961,-1317.13 L 134.843,-1317.74 L 134.649,-1318.34
 L 134.382,-1318.91 L 134.045,-1319.44 L 133.645,-1319.92 L 133.187,-1320.35 L 132.679,-1320.72 L 132.129,-1321.02
 L 131.545,-1321.26 L 130.937,-1321.41 L 130.314,-1321.49 L -130.314,-1321.49 L -130.937,-1321.41 L -131.545,-1321.26
 L -132.129,-1321.02 L -132.679,-1320.72 L -133.187,-1320.35 L -133.5,-1320.06 L -133.5,-1321.49 L -136.5,-1321.49
 L -136.5,-1126.51 L -133.5,-1126.51 z
M -129.751,-1128.01 L -130.25,-1128.07 L -130.736,-1128.2 L -131.203,-1128.38 L -131.643,-1128.62 L -132.05,-1128.92
 L -132.416,-1129.26 L -132.736,-1129.65 L -133.005,-1130.07 L -133.219,-1130.53 L -133.374,-1131.01 L -133.468,-1131.5
 L -133.5,-1132 L -133.5,-1316 L -133.468,-1316.5 L -133.374,-1316.99 L -133.219,-1317.47 L -133.005,-1317.93
 L -132.736,-1318.35 L -132.416,-1318.74 L -132.05,-1319.08 L -131.643,-1319.38 L -131.203,-1319.62 L -130.736,-1319.8
 L -130.25,-1319.93 L -129.751,-1319.99 L 129.751,-1319.99 L 130.25,-1319.93 L 130.736,-1319.8 L 131.203,-1319.62
 L 131.643,-1319.38 L 132.05,-1319.08 L 132.416,-1318.74 L 132.736,-1318.35 L 133.005,-1317.93 L 133.219,-1317.47
 L 133.374,-1316.99 L 133.468,-1316.5 L 133.5,-1316 L 133.5,-1132 L 133.468,-1131.5 L 133.374,-1131.01
 L 133.219,-1130.53 L 133.005,-1130.07 L 132.736,-1129.65 L 132.416,-1129.26 L 132.05,-1128.92 L 131.643,-1128.62
 L 131.203,-1128.38 L 130.736,-1128.2 L 130.25,-1128.07 L 129.751,-1128.01 z
M 130.937,-922.589 L 131.545,-922.745 L 132.129,-922.976 L 132.679,-923.278 L 133.187,-923.647 L 133.645,-924.077
 L 134.045,-924.561 L 134.382,-925.091 L 134.649,-925.659 L 134.843,-926.257 L 134.961,-926.873 L 135,-927.5
 L 135,-1112.5 L 134.961,-1113.13 L 134.843,-1113.74 L 134.649,-1114.34 L 134.382,-1114.91 L 134.045,-1115.44
 L 133.645,-1115.92 L 133.187,-1116.35 L 132.679,-1116.72 L 132.129,-1117.02 L 131.545,-1117.26 L 130.937,-1117.41
 L 130.314,-1117.49 L -130.314,-1117.49 L -130.937,-1117.41 L -131.545,-1117.26 L -132.129,-1117.02 L -132.679,-1116.72
 L -133.187,-1116.35 L -133.5,-1116.06 L -133.5,-1117.48 L -136.5,-1117.48 L -136.5,-922.521 L -133.5,-922.521
 L -133.5,-923.941 L -133.187,-923.647 L -132.679,-923.278 L -132.129,-922.976 L -131.545,-922.745 L -130.937,-922.589
 L -130.314,-922.51 L 130.314,-922.51 z
M -129.695,-924.893 L -130.083,-924.942 L -130.462,-925.039 L -130.825,-925.183 L -131.168,-925.372 L -131.484,-925.601
 L -131.769,-925.869 L -132.018,-926.17 L -132.228,-926.5 L -132.394,-926.854 L -132.515,-927.226 L -132.588,-927.61
 L -132.613,-928 L -132.613,-1112 L -132.588,-1112.39 L -132.515,-1112.77 L -132.394,-1113.15 L -132.228,-1113.5
 L -132.018,-1113.83 L -131.769,-1114.13 L -131.484,-1114.4 L -131.168,-1114.63 L -130.825,-1114.82 L -130.462,-1114.96
 L -130.083,-1115.06 L -129.695,-1115.11 L 129.695,-1115.11 L 130.083,-1115.06 L 130.462,-1114.96 L 130.825,-1114.82
 L 131.168,-1114.63 L 131.484,-1114.4 L 131.769,-1114.13 L 132.018,-1113.83 L 132.228,-1113.5 L 132.394,-1113.15
 L 132.515,-1112.77 L 132.588,-1112.39 L 132.613,-1112 L 132.613,-928 L 132.588,-927.61 L 132.515,-927.226
 L 132.394,-926.854 L 132.228,-926.5 L 132.018,-926.17 L 131.769,-925.869 L 131.484,-925.601 L 131.168,-925.372
 L 130.825,-925.183 L 130.462,-925.039 L 130.083,-924.942 L 129.695,-924.893 z
M 130.937,-718.589 L 131.545,-718.745 L 132.129,-718.976 L 132.679,-719.278 L 133.187,-719.647 L 133.645,-720.077
 L 134.045,-720.561 L 134.382,-721.091 L 134.649,-721.659 L 134.843,-722.257 L 134.961,-722.873 L 135,-723.5
 L 135,-908.5 L 134.961,-909.127 L 134.843,-909.743 L 134.649,-910.341 L 134.382,-910.909 L 134.045,-911.439
 L 133.645,-911.923 L 133.187,-912.353 L 132.679,-912.722 L 132.129,-913.024 L 131.545,-913.255 L 130.937,-913.411
 L 130.314,-913.49 L -130.314,-913.49 L -130.937,-913.411 L -131.545,-913.255 L -132.129,-913.024 L -132.679,-912.722
 L -133.187,-912.353 L -133.5,-912.059 L -133.5,-912.153 L -136.5,-912.153 L -136.5,-719.847 L -133.5,-719.847
 L -133.5,-719.941 L -133.187,-719.647 L -132.679,-719.278 L -132.129,-718.976 L -131.545,-718.745 L -130.937,-718.589
 L -130.314,-718.51 L 130.314,-718.51 z
M -127.634,-903.869 L -127.9,-903.903 L -128.16,-903.969 L -128.409,-904.068 L -128.644,-904.197 L -128.861,-904.355
 L -129.057,-904.538 L -129.227,-904.745 L -129.371,-904.971 L -129.485,-905.214 L -129.568,-905.469 L -129.618,-905.732
 L -129.635,-906 L -129.618,-906.268 L -129.568,-906.531 L -129.485,-906.786 L -129.371,-907.029 L -129.227,-907.255
 L -129.057,-907.462 L -128.861,-907.645 L -128.644,-907.803 L -128.409,-907.932 L -128.16,-908.031 L -127.9,-908.097
 L -127.634,-908.131 L -127.366,-908.131 L -127.1,-908.097 L -126.84,-908.031 L -126.591,-907.932 L -126.356,-907.803
 L -126.139,-907.645 L -125.943,-907.462 L -125.773,-907.255 L -125.629,-907.029 L -125.515,-906.786 L -125.432,-906.531
 L -125.382,-906.268 L -125.365,-906 L -125.382,-905.732 L -125.432,-905.469 L -125.515,-905.214 L -125.629,-904.971
 L -125.773,-904.745 L -125.943,-904.538 L -126.139,-904.355 L -126.356,-904.197 L -126.591,-904.068 L -126.84,-903.969
 L -127.1,-903.903 L -127.366,-903.869 z
M 127.366,-903.869 L 127.1,-903.903 L 126.84,-903.969 L 126.591,-904.068 L 126.356,-904.197 L 126.139,-904.355
 L 125.943,-904.538 L 125.773,-904.745 L 125.629,-904.971 L 125.515,-905.214 L 125.432,-905.469 L 125.382,-905.732
 L 125.365,-906 L 125.382,-906.268 L 125.432,-906.531 L 125.515,-906.786 L 125.629,-907.029 L 125.773,-907.255
 L 125.943,-907.462 L 126.139,-907.645 L 126.356,-907.803 L 126.591,-907.932 L 126.84,-908.031 L 127.1,-908.097
 L 127.366,-908.131 L 127.634,-908.131 L 127.9,-908.097 L 128.16,-908.031 L 128.409,-907.932 L 128.644,-907.803
 L 128.861,-907.645 L 129.057,-907.462 L 129.227,-907.255 L 129.371,-907.029 L 129.485,-906.786 L 129.568,-906.531
 L 129.618,-906.268 L 129.635,-906 L 129.618,-905.732 L 129.568,-905.469 L 129.485,-905.214 L 129.371,-904.971
 L 129.227,-904.745 L 129.057,-904.538 L 128.861,-904.355 L 128.644,-904.197 L 128.409,-904.068 L 128.16,-903.969
 L 127.9,-903.903 L 127.634,-903.869 z
M -127.634,-723.869 L -127.9,-723.903 L -128.16,-723.969 L -128.409,-724.068 L -128.644,-724.197 L -128.861,-724.355
 L -129.057,-724.538 L -129.227,-724.745 L -129.371,-724.971 L -129.485,-725.214 L -129.568,-725.469 L -129.618,-725.732
 L -129.635,-726 L -129.618,-726.268 L -129.568,-726.531 L -129.485,-726.786 L -129.371,-727.029 L -129.227,-727.255
 L -129.057,-727.462 L -128.861,-727.645 L -128.644,-727.803 L -128.409,-727.932 L -128.16,-728.031 L -127.9,-728.097
 L -127.634,-728.131 L -127.366,-728.131 L -127.1,-728.097 L -126.84,-728.031 L -126.591,-727.932 L -126.356,-727.803
 L -126.139,-727.645 L -125.943,-727.462 L -125.773,-727.255 L -125.629,-727.029 L -125.515,-726.786 L -125.432,-726.531
 L -125.382,-726.268 L -125.365,-726 L -125.382,-725.732 L -125.432,-725.469 L -125.515,-725.214 L -125.629,-724.971
 L -125.773,-724.745 L -125.943,-724.538 L -126.139,-724.355 L -126.356,-724.197 L -126.591,-724.068 L -126.84,-723.969
 L -127.1,-723.903 L -127.366,-723.869 z
M 127.366,-723.869 L 127.1,-723.903 L 126.84,-723.969 L 126.591,-724.068 L 126.356,-724.197 L 126.139,-724.355
 L 125.943,-724.538 L 125.773,-724.745 L 125.629,-724.971 L 125.515,-725.214 L 125.432,-725.469 L 125.382,-725.732
 L 125.365,-726 L 125.382,-726.268 L 125.432,-726.531 L 125.515,-726.786 L 125.629,-727.029 L 125.773,-727.255
 L 125.943,-727.462 L 126.139,-727.645 L 126.356,-727.803 L 126.591,-727.932 L 126.84,-728.031 L 127.1,-728.097
 L 127.366,-728.131 L 127.634,-728.131 L 127.9,-728.097 L 128.16,-728.031 L 128.409,-727.932 L 128.644,-727.803
 L 128.861,-727.645 L 129.057,-727.462 L 129.227,-727.255 L 129.371,-727.029 L 129.485,-726.786 L 129.568,-726.531
 L 129.618,-726.268 L 129.635,-726 L 129.618,-725.732 L 129.568,-725.469 L 129.485,-725.214 L 129.371,-724.971
 L 129.227,-724.745 L 129.057,-724.538 L 128.861,-724.355 L 128.644,-724.197 L 128.409,-724.068 L 128.16,-723.969
 L 127.9,-723.903 L 127.634,-723.869 z
" stroke="black" fill="lightgray" stroke-width="0.5"/>
</svg>
