<?xml version="1.0" standalone="no"?>
<!DOCTYPE svg PUBLIC "-//W3C//DTD SVG 1.1//EN" "http://www.w3.org/Graphics/SVG/1.1/DTD/svg11.dtd">
<svg width="38mm" height="38mm" viewBox="-19 -129 38 38" xmlns="http://www.w3.org/2000/svg" version="1.1">
<title>OpenSCAD Model</title>
<path d="
M 0.887695,-91.1763 L 0.986237,-91.1812 L 1.08476,-91.1867 L 1.12541,-91.1891 L 1.23318,-91.2378 L 1.27948,-91.3365
 L 1.29042,-91.4461 L 1.31479,-91.5539 L 1.35219,-91.6591 L 1.40218,-91.7609 L 1.49728,-91.8686 L 1.61375,-91.9516
 L 1.7459,-92.0084 L 1.88789,-92.0379 L 2.0329,-92.0386 L 2.17398,-92.0104 L 2.30516,-91.9535 L 2.42058,-91.8679
 L 2.49048,-91.7787 L 2.54893,-91.6836 L 2.59529,-91.5833 L 2.62883,-91.4783 L 2.69449,-91.3914 L 2.81017,-91.3662
 L 2.85045,-91.3722 L 2.94794,-91.3874 L 3.04535,-91.4031 L 3.08553,-91.4098 L 3.18762,-91.4695 L 3.22334,-91.5725
 L 3.22276,-91.6826 L 3.23573,-91.7924 L 3.26192,-91.9009 L 3.30101,-92.0073 L 3.38432,-92.1244 L 3.4915,-92.2191
 L 3.61696,-92.2895 L 3.7551,-92.3336 L 3.89925,-92.3495 L 4.0425,-92.3362 L 4.17891,-92.2933 L 4.30264,-92.2202
 L 4.38147,-92.1389 L 4.44955,-92.0504 L 4.50613,-91.9554 L 4.55048,-91.8546 L 4.62486,-91.775 L 4.74254,-91.762
 L 4.78195,-91.7722 L 4.87733,-91.7975 L 4.97258,-91.8233 L 5.01183,-91.8342 L 5.10713,-91.9042 L 5.13188,-92.0103
 L 5.11978,-92.1199 L 5.12122,-92.2304 L 5.13593,-92.341 L 5.16367,-92.451 L 5.2343,-92.5761 L 5.33098,-92.6815
 L 5.44841,-92.7646 L 5.58118,-92.8229 L 5.72287,-92.8538 L 5.86671,-92.8555 L 6.00688,-92.8271 L 6.13756,-92.7674
 L 6.22447,-92.6947 L 6.30142,-92.6138 L 6.36763,-92.5253 L 6.42226,-92.4296 L 6.50456,-92.3582 L 6.62294,-92.3577
 L 6.66109,-92.3719 L 6.7533,-92.4071 L 6.84532,-92.4427 L 6.88322,-92.4576 L 6.97067,-92.5372 L 6.98421,-92.6453
 L 6.96072,-92.753 L 6.95059,-92.863 L 6.95366,-92.9746 L 6.96976,-93.0869 L 7.02692,-93.2187 L 7.11206,-93.3336
 L 7.22015,-93.4285 L 7.3461,-93.5004 L 7.48378,-93.5459 L 7.62666,-93.5627 L 7.76903,-93.5491 L 7.90523,-93.5033
 L 7.99927,-93.4401 L 8.08426,-93.3678 L 8.15935,-93.2866 L 8.22368,-93.1972 L 8.31299,-93.1348 L 8.43079,-93.1466
 L 8.46722,-93.1648 L 8.55525,-93.2094 L 8.64305,-93.2544 L 8.6792,-93.2731 L 8.75786,-93.3615 L 8.75999,-93.4704
 L 8.7254,-93.5751 L 8.70383,-93.6834 L 8.69521,-93.7947 L 8.69948,-93.908 L 8.74255,-94.0451 L 8.81522,-94.1683
 L 8.9128,-94.274 L 9.03053,-94.3587 L 9.16272,-94.4183 L 9.30304,-94.45 L 9.44606,-94.4513 L 9.5863,-94.42
 L 9.68642,-94.367 L 9.77852,-94.3039 L 9.86168,-94.2311 L 9.93501,-94.1488 L 10.0303,-94.0961 L 10.1463,-94.1202
 L 10.1806,-94.1421 L 10.2635,-94.1956 L 10.3461,-94.2496 L 10.3801,-94.272 L 10.4491,-94.3681 L 10.4398,-94.4767
 L 10.3945,-94.5771 L 10.3617,-94.6826 L 10.3415,-94.7924 L 10.3339,-94.9055 L 10.3624,-95.0464 L 10.4218,-95.1765
 L 10.5078,-95.2918 L 10.616,-95.3883 L 10.7413,-95.4614 L 10.8775,-95.5076 L 11.0196,-95.5238 L 11.1623,-95.5074
 L 11.2675,-95.4651 L 11.3656,-95.412 L 11.4559,-95.3483 L 11.5375,-95.2742 L 11.6378,-95.2317 L 11.7506,-95.2677
 L 11.7824,-95.2931 L 11.8593,-95.355 L 11.9358,-95.4173 L 11.9673,-95.4432 L 12.0258,-95.5459 L 12.0053,-95.653
 L 11.9497,-95.7481 L 11.906,-95.8496 L 11.8745,-95.9567 L 11.8551,-96.0684 L 11.8687,-96.2114 L 11.9142,-96.347
 L 11.9876,-96.4707 L 12.0852,-96.578 L 12.2021,-96.6638 L 12.3328,-96.724 L 12.4724,-96.755 L 12.6161,-96.7536
 L 12.725,-96.7225 L 12.8282,-96.68 L 12.9247,-96.626 L 13.0135,-96.5608 L 13.1178,-96.5291 L 13.2262,-96.5767
 L 13.2552,-96.6053 L 13.3251,-96.6749 L 13.3947,-96.7448 L 13.4233,-96.7738 L 13.4708,-96.8821 L 13.4392,-96.9865
 L 13.3739,-97.0752 L 13.3199,-97.1716 L 13.2773,-97.2748 L 13.2464,-97.3839 L 13.245,-97.5276 L 13.276,-97.6672
 L 13.3362,-97.7979 L 13.422,-97.9148 L 13.5293,-98.0124 L 13.653,-98.0858 L 13.7886,-98.1313 L 13.9316,-98.1449
 L 14.0432,-98.1254 L 14.1503,-98.0939 L 14.2519,-98.0503 L 14.347,-97.9947 L 14.454,-97.9741 L 14.5568,-98.0327
 L 14.5827,-98.0642 L 14.645,-98.1407 L 14.7069,-98.2176 L 14.7323,-98.2494 L 14.7682,-98.3621 L 14.7258,-98.4625
 L 14.6517,-98.544 L 14.5879,-98.6342 L 14.5347,-98.7324 L 14.4926,-98.8377 L 14.4762,-98.9804 L 14.4924,-99.1225
 L 14.5386,-99.2587 L 14.6117,-99.384 L 14.7082,-99.4922 L 14.8235,-99.5782 L 14.9536,-99.6376 L 15.0945,-99.6661
 L 15.2075,-99.6584 L 15.3173,-99.6382 L 15.4229,-99.6055 L 15.5233,-99.5602 L 15.6319,-99.5508 L 15.728,-99.6199
 L 15.7504,-99.6539 L 15.8044,-99.7365 L 15.8579,-99.8194 L 15.8798,-99.8537 L 15.9038,-99.9695 L 15.8512,-100.065
 L 15.7689,-100.138 L 15.696,-100.221 L 15.6329,-100.313 L 15.58,-100.414 L 15.5487,-100.554 L 15.55,-100.697
 L 15.5817,-100.837 L 15.6413,-100.969 L 15.726,-101.087 L 15.8317,-101.185 L 15.9549,-101.257 L 16.092,-101.301
 L 16.2052,-101.305 L 16.3165,-101.296 L 16.4249,-101.275 L 16.5296,-101.24 L 16.6385,-101.242 L 16.7269,-101.321
 L 16.7456,-101.357 L 16.7906,-101.445 L 16.8352,-101.533 L 16.8534,-101.569 L 16.8651,-101.687 L 16.8028,-101.776
 L 16.7133,-101.841 L 16.6322,-101.916 L 16.5598,-102.001 L 16.4967,-102.095 L 16.4509,-102.231 L 16.4373,-102.373
 L 16.4541,-102.516 L 16.4996,-102.654 L 16.5715,-102.78 L 16.6664,-102.888 L 16.7813,-102.973 L 16.9131,-103.03
 L 17.0253,-103.046 L 17.1369,-103.049 L 17.247,-103.039 L 17.3547,-103.016 L 17.4628,-103.029 L 17.5424,-103.117
 L 17.5573,-103.155 L 17.5929,-103.247 L 17.6281,-103.339 L 17.6423,-103.377 L 17.6417,-103.495 L 17.5704,-103.578
 L 17.4747,-103.632 L 17.3861,-103.698 L 17.3053,-103.775 L 17.2326,-103.862 L 17.1729,-103.993 L 17.1445,-104.133
 L 17.1462,-104.277 L 17.1771,-104.419 L 17.2354,-104.552 L 17.3185,-104.669 L 17.4239,-104.766 L 17.549,-104.836
 L 17.6589,-104.864 L 17.7696,-104.879 L 17.8801,-104.88 L 17.9897,-104.868 L 18.0958,-104.893 L 18.1658,-104.988
 L 18.1767,-105.027 L 18.2025,-105.123 L 18.2278,-105.218 L 18.238,-105.257 L 18.225,-105.375 L 18.1454,-105.45
 L 18.0446,-105.494 L 17.9496,-105.55 L 17.8611,-105.618 L 17.7798,-105.697 L 17.7067,-105.821 L 17.6638,-105.958
 L 17.6505,-106.101 L 17.6664,-106.245 L 17.7105,-106.383 L 17.7809,-106.508 L 17.8756,-106.616 L 17.9927,-106.699
 L 18.0991,-106.738 L 18.2076,-106.764 L 18.3173,-106.777 L 18.4275,-106.777 L 18.5305,-106.812 L 18.5902,-106.914
 L 18.5969,-106.955 L 18.6126,-107.052 L 18.6278,-107.15 L 18.6338,-107.19 L 18.6086,-107.305 L 18.5217,-107.371
 L 18.4167,-107.405 L 18.3164,-107.451 L 18.2213,-107.509 L 18.1321,-107.579 L 18.0465,-107.695 L 17.9896,-107.826
 L 17.9614,-107.967 L 17.9621,-108.112 L 17.9916,-108.254 L 18.0484,-108.386 L 18.1314,-108.503 L 18.2391,-108.598
 L 18.3409,-108.648 L 18.4461,-108.685 L 18.5539,-108.71 L 18.6635,-108.721 L 18.7622,-108.767 L 18.8109,-108.875
 L 18.8133,-108.915 L 18.8188,-109.014 L 18.8237,-109.112 L 18.8255,-109.153 L 18.7883,-109.265 L 18.695,-109.322
 L 18.5871,-109.344 L 18.4825,-109.379 L 18.3818,-109.428 L 18.2858,-109.488 L 18.1886,-109.594 L 18.1183,-109.718
 L 18.0755,-109.856 L 18.0611,-110 L 18.0755,-110.144 L 18.1183,-110.282 L 18.1886,-110.406 L 18.2858,-110.512
 L 18.3818,-110.572 L 18.4825,-110.62 L 18.5871,-110.656 L 18.695,-110.678 L 18.7883,-110.735 L 18.8255,-110.847
 L 18.8237,-110.888 L 18.8188,-110.986 L 18.8133,-111.085 L 18.8109,-111.125 L 18.7622,-111.233 L 18.6635,-111.279
 L 18.5539,-111.29 L 18.4461,-111.315 L 18.3409,-111.352 L 18.2391,-111.402 L 18.1314,-111.497 L 18.0484,-111.614
 L 17.9916,-111.746 L 17.9621,-111.888 L 17.9614,-112.033 L 17.9896,-112.174 L 18.0465,-112.305 L 18.1321,-112.421
 L 18.2213,-112.49 L 18.3164,-112.549 L 18.4167,-112.595 L 18.5217,-112.629 L 18.6086,-112.694 L 18.6338,-112.81
 L 18.6278,-112.85 L 18.6126,-112.948 L 18.5969,-113.045 L 18.5902,-113.086 L 18.5305,-113.188 L 18.4275,-113.223
 L 18.3174,-113.223 L 18.2076,-113.236 L 18.0991,-113.262 L 17.9927,-113.301 L 17.8756,-113.384 L 17.7809,-113.492
 L 17.7105,-113.617 L 17.6664,-113.755 L 17.6505,-113.899 L 17.6638,-114.042 L 17.7067,-114.179 L 17.7798,-114.303
 L 17.8611,-114.381 L 17.9496,-114.45 L 18.0446,-114.506 L 18.1454,-114.55 L 18.225,-114.625 L 18.238,-114.743
 L 18.2278,-114.782 L 18.2025,-114.877 L 18.1767,-114.973 L 18.1658,-115.012 L 18.0958,-115.107 L 17.9897,-115.132
 L 17.8801,-115.12 L 17.7696,-115.121 L 17.659,-115.136 L 17.549,-115.164 L 17.4239,-115.234 L 17.3185,-115.331
 L 17.2354,-115.448 L 17.1771,-115.581 L 17.1462,-115.723 L 17.1445,-115.867 L 17.1729,-116.007 L 17.2326,-116.138
 L 17.3053,-116.224 L 17.3862,-116.301 L 17.4747,-116.368 L 17.5704,-116.422 L 17.6418,-116.505 L 17.6423,-116.623
 L 17.6281,-116.661 L 17.5929,-116.753 L 17.5573,-116.845 L 17.5424,-116.883 L 17.4628,-116.971 L 17.3547,-116.984
 L 17.247,-116.961 L 17.137,-116.951 L 17.0254,-116.954 L 16.9131,-116.97 L 16.7813,-117.027 L 16.6664,-117.112
 L 16.5715,-117.22 L 16.4996,-117.346 L 16.4541,-117.484 L 16.4373,-117.627 L 16.4509,-117.769 L 16.4967,-117.905
 L 16.5599,-117.999 L 16.6322,-118.084 L 16.7134,-118.159 L 16.8028,-118.224 L 16.8652,-118.313 L 16.8534,-118.431
 L 16.8352,-118.467 L 16.7906,-118.555 L 16.7456,-118.643 L 16.7269,-118.679 L 16.6385,-118.758 L 16.5296,-118.76
 L 16.4249,-118.725 L 16.3166,-118.704 L 16.2053,-118.695 L 16.092,-118.699 L 15.9549,-118.743 L 15.8317,-118.815
 L 15.726,-118.913 L 15.6413,-119.031 L 15.5817,-119.163 L 15.55,-119.303 L 15.5487,-119.446 L 15.58,-119.586
 L 15.633,-119.686 L 15.6961,-119.779 L 15.7689,-119.862 L 15.8512,-119.935 L 15.9039,-120.03 L 15.8798,-120.146
 L 15.8579,-120.181 L 15.8044,-120.263 L 15.7504,-120.346 L 15.728,-120.38 L 15.6319,-120.449 L 15.5233,-120.44
 L 15.4229,-120.394 L 15.3174,-120.362 L 15.2076,-120.341 L 15.0945,-120.334 L 14.9536,-120.362 L 14.8235,-120.422
 L 14.7082,-120.508 L 14.6117,-120.616 L 14.5386,-120.741 L 14.4924,-120.878 L 14.4762,-121.02 L 14.4926,-121.162
 L 14.5349,-121.267 L 14.588,-121.366 L 14.6517,-121.456 L 14.7258,-121.537 L 14.7683,-121.638 L 14.7323,-121.751
 L 14.7069,-121.782 L 14.645,-121.859 L 14.5827,-121.936 L 14.5568,-121.967 L 14.4541,-122.026 L 14.347,-122.005
 L 14.2519,-121.95 L 14.1504,-121.906 L 14.0433,-121.874 L 13.9316,-121.855 L 13.7886,-121.869 L 13.653,-121.914
 L 13.5293,-121.988 L 13.422,-122.085 L 13.3362,-122.202 L 13.276,-122.333 L 13.245,-122.472 L 13.2464,-122.616
 L 13.2775,-122.725 L 13.32,-122.828 L 13.374,-122.925 L 13.4392,-123.014 L 13.4709,-123.118 L 13.4233,-123.226
 L 13.3947,-123.255 L 13.3251,-123.325 L 13.2552,-123.395 L 13.2262,-123.423 L 13.1179,-123.471 L 13.0135,-123.439
 L 12.9248,-123.374 L 12.8284,-123.32 L 12.7252,-123.277 L 12.6161,-123.246 L 12.4724,-123.245 L 12.3328,-123.276
 L 12.2021,-123.336 L 12.0852,-123.422 L 11.9876,-123.529 L 11.9142,-123.653 L 11.8687,-123.789 L 11.8551,-123.932
 L 11.8746,-124.043 L 11.9061,-124.15 L 11.9497,-124.252 L 12.0053,-124.347 L 12.0259,-124.454 L 11.9673,-124.557
 L 11.9358,-124.583 L 11.8593,-124.645 L 11.7824,-124.707 L 11.7506,-124.732 L 11.6379,-124.768 L 11.5375,-124.726
 L 11.456,-124.652 L 11.3658,-124.588 L 11.2676,-124.535 L 11.1623,-124.493 L 11.0196,-124.476 L 10.8775,-124.492
 L 10.7413,-124.539 L 10.616,-124.612 L 10.5078,-124.708 L 10.4218,-124.824 L 10.3624,-124.954 L 10.3339,-125.094
 L 10.3416,-125.208 L 10.3618,-125.317 L 10.3945,-125.423 L 10.4398,-125.523 L 10.4492,-125.632 L 10.3801,-125.728
 L 10.3461,-125.75 L 10.2635,-125.804 L 10.1806,-125.858 L 10.1463,-125.88 L 10.0305,-125.904 L 9.93501,-125.851
 L 9.86171,-125.769 L 9.77866,-125.696 L 9.68657,-125.633 L 9.5863,-125.58 L 9.44606,-125.549 L 9.30304,-125.55
 L 9.16272,-125.582 L 9.03053,-125.641 L 8.9128,-125.726 L 8.81522,-125.832 L 8.74255,-125.955 L 8.69948,-126.092
 L 8.69536,-126.205 L 8.70395,-126.316 L 8.72545,-126.425 L 8.75999,-126.53 L 8.75798,-126.638 L 8.6792,-126.727
 L 8.64305,-126.746 L 8.55525,-126.791 L 8.46722,-126.835 L 8.43079,-126.853 L 8.31311,-126.865 L 8.22368,-126.803
 L 8.15939,-126.713 L 8.0844,-126.632 L 7.99942,-126.56 L 7.90523,-126.497 L 7.76903,-126.451 L 7.62666,-126.437
 L 7.48378,-126.454 L 7.3461,-126.5 L 7.22015,-126.571 L 7.11206,-126.666 L 7.02692,-126.781 L 6.96976,-126.913
 L 6.95381,-127.025 L 6.95073,-127.137 L 6.96077,-127.247 L 6.98421,-127.355 L 6.97081,-127.463 L 6.88322,-127.542
 L 6.84532,-127.557 L 6.7533,-127.593 L 6.66109,-127.628 L 6.62294,-127.642 L 6.50468,-127.642 L 6.42226,-127.57
 L 6.36768,-127.475 L 6.30157,-127.386 L 6.22462,-127.305 L 6.13756,-127.233 L 6.00688,-127.173 L 5.86671,-127.144
 L 5.72287,-127.146 L 5.58118,-127.177 L 5.44841,-127.235 L 5.33098,-127.319 L 5.2343,-127.424 L 5.16367,-127.549
 L 5.13609,-127.659 L 5.12137,-127.77 L 5.11984,-127.88 L 5.13188,-127.99 L 5.10725,-128.096 L 5.01183,-128.166
 L 4.97258,-128.177 L 4.87733,-128.202 L 4.78195,-128.228 L 4.74254,-128.238 L 4.62498,-128.225 L 4.55048,-128.145
 L 4.5062,-128.045 L 4.44971,-127.95 L 4.38164,-127.861 L 4.30264,-127.78 L 4.17891,-127.707 L 4.0425,-127.664
 L 3.89925,-127.651 L 3.7551,-127.666 L 3.61696,-127.711 L 3.4915,-127.781 L 3.38432,-127.876 L 3.30101,-127.993
 L 3.26208,-128.099 L 3.23589,-128.208 L 3.22281,-128.317 L 3.22334,-128.428 L 3.18776,-128.53 L 3.08553,-128.59
 L 3.04535,-128.597 L 2.94794,-128.613 L 2.85045,-128.628 L 2.81017,-128.634 L 2.69463,-128.609 L 2.62883,-128.522
 L 2.59534,-128.417 L 2.54909,-128.316 L 2.49065,-128.221 L 2.42058,-128.132 L 2.30516,-128.047 L 2.17398,-127.99
 L 2.0329,-127.961 L 1.88789,-127.962 L 1.7459,-127.992 L 1.61375,-128.048 L 1.49728,-128.131 L 1.40218,-128.239
 L 1.35236,-128.341 L 1.31494,-128.446 L 1.29047,-128.554 L 1.27948,-128.664 L 1.23332,-128.762 L 1.12541,-128.811
 L 1.08476,-128.813 L 0.986237,-128.819 L 0.887695,-128.824 L 0.847,-128.825 L 0.734741,-128.788 L 0.678375,-128.695
 L 0.656052,-128.587 L 0.620544,-128.482 L 0.572357,-128.382 L 0.511993,-128.286 L 0.406158,-128.189 L 0.281647,-128.118
 L 0.144287,-128.076 L 0,-128.061 L -0.144287,-128.076 L -0.281647,-128.118 L -0.406158,-128.189 L -0.511993,-128.286
 L -0.572189,-128.382 L -0.620392,-128.482 L -0.655991,-128.587 L -0.678375,-128.695 L -0.734589,-128.788 L -0.847,-128.825
 L -0.887695,-128.824 L -0.986237,-128.819 L -1.08476,-128.813 L -1.12541,-128.811 L -1.23318,-128.762 L -1.27948,-128.664
 L -1.29042,-128.554 L -1.31479,-128.446 L -1.35219,-128.341 L -1.40218,-128.239 L -1.49728,-128.131 L -1.61375,-128.048
 L -1.7459,-127.992 L -1.88789,-127.962 L -2.0329,-127.961 L -2.17398,-127.99 L -2.30516,-128.047 L -2.42058,-128.132
 L -2.49048,-128.221 L -2.54893,-128.316 L -2.59529,-128.417 L -2.62883,-128.522 L -2.69449,-128.609 L -2.81017,-128.634
 L -2.85045,-128.628 L -2.94794,-128.613 L -3.04535,-128.597 L -3.08553,-128.59 L -3.18762,-128.531 L -3.22334,-128.428
 L -3.22276,-128.317 L -3.23573,-128.208 L -3.26192,-128.099 L -3.30101,-127.993 L -3.38432,-127.876 L -3.4915,-127.781
 L -3.61696,-127.711 L -3.7551,-127.666 L -3.89925,-127.651 L -4.0425,-127.664 L -4.17891,-127.707 L -4.30264,-127.78
 L -4.38147,-127.861 L -4.44955,-127.95 L -4.50613,-128.045 L -4.55048,-128.145 L -4.62486,-128.225 L -4.74254,-128.238
 L -4.78195,-128.228 L -4.87733,-128.202 L -4.97258,-128.177 L -5.01183,-128.166 L -5.10713,-128.096 L -5.13188,-127.99
 L -5.11978,-127.88 L -5.12122,-127.77 L -5.13593,-127.659 L -5.16367,-127.549 L -5.2343,-127.424 L -5.33098,-127.319
 L -5.44841,-127.235 L -5.58118,-127.177 L -5.72287,-127.146 L -5.86671,-127.144 L -6.00688,-127.173 L -6.13756,-127.233
 L -6.22447,-127.305 L -6.30142,-127.386 L -6.36763,-127.475 L -6.42226,-127.57 L -6.50456,-127.642 L -6.62294,-127.642
 L -6.66109,-127.628 L -6.7533,-127.593 L -6.84532,-127.557 L -6.88322,-127.542 L -6.97067,-127.463 L -6.98421,-127.355
 L -6.96072,-127.247 L -6.95059,-127.137 L -6.95366,-127.025 L -6.96976,-126.913 L -7.02692,-126.781 L -7.11206,-126.666
 L -7.22015,-126.571 L -7.3461,-126.5 L -7.48378,-126.454 L -7.62666,-126.437 L -7.76903,-126.451 L -7.90523,-126.497
 L -7.99927,-126.56 L -8.08426,-126.632 L -8.15935,-126.713 L -8.22368,-126.803 L -8.31299,-126.865 L -8.43079,-126.853
 L -8.46722,-126.835 L -8.55525,-126.791 L -8.64305,-126.746 L -8.6792,-126.727 L -8.75786,-126.639 L -8.75999,-126.53
 L -8.7254,-126.425 L -8.70383,-126.317 L -8.69521,-126.205 L -8.69948,-126.092 L -8.74255,-125.955 L -8.81522,-125.832
 L -8.9128,-125.726 L -9.03053,-125.641 L -9.16272,-125.582 L -9.30304,-125.55 L -9.44606,-125.549 L -9.5863,-125.58
 L -9.68642,-125.633 L -9.77852,-125.696 L -9.86168,-125.769 L -9.93501,-125.851 L -10.0303,-125.904 L -10.1463,-125.88
 L -10.1806,-125.858 L -10.2635,-125.804 L -10.3461,-125.75 L -10.3801,-125.728 L -10.4491,-125.632 L -10.4398,-125.523
 L -10.3945,-125.423 L -10.3617,-125.317 L -10.3415,-125.208 L -10.3339,-125.094 L -10.3624,-124.954 L -10.4218,-124.824
 L -10.5078,-124.708 L -10.616,-124.612 L -10.7413,-124.539 L -10.8775,-124.492 L -11.0196,-124.476 L -11.1623,-124.493
 L -11.2675,-124.535 L -11.3656,-124.588 L -11.4559,-124.652 L -11.5375,-124.726 L -11.6378,-124.768 L -11.7506,-124.732
 L -11.7824,-124.707 L -11.8593,-124.645 L -11.9358,-124.583 L -11.9673,-124.557 L -12.0258,-124.454 L -12.0053,-124.347
 L -11.9497,-124.252 L -11.906,-124.15 L -11.8745,-124.043 L -11.8551,-123.932 L -11.8687,-123.789 L -11.9142,-123.653
 L -11.9876,-123.529 L -12.0852,-123.422 L -12.2021,-123.336 L -12.3328,-123.276 L -12.4724,-123.245 L -12.6161,-123.246
 L -12.725,-123.277 L -12.8282,-123.32 L -12.9247,-123.374 L -13.0135,-123.439 L -13.1178,-123.471 L -13.2262,-123.423
 L -13.2552,-123.395 L -13.3251,-123.325 L -13.3947,-123.255 L -13.4233,-123.226 L -13.4708,-123.118 L -13.4392,-123.014
 L -13.3739,-122.925 L -13.3199,-122.828 L -13.2773,-122.725 L -13.2464,-122.616 L -13.245,-122.472 L -13.276,-122.333
 L -13.3362,-122.202 L -13.422,-122.085 L -13.5293,-121.988 L -13.653,-121.914 L -13.7886,-121.869 L -13.9316,-121.855
 L -14.0432,-121.875 L -14.1503,-121.906 L -14.2519,-121.95 L -14.347,-122.005 L -14.454,-122.026 L -14.5568,-121.967
 L -14.5827,-121.936 L -14.645,-121.859 L -14.7069,-121.782 L -14.7323,-121.751 L -14.7682,-121.638 L -14.7258,-121.537
 L -14.6517,-121.456 L -14.5879,-121.366 L -14.5347,-121.268 L -14.4926,-121.162 L -14.4762,-121.02 L -14.4924,-120.878
 L -14.5386,-120.741 L -14.6117,-120.616 L -14.7082,-120.508 L -14.8235,-120.422 L -14.9536,-120.362 L -15.0945,-120.334
 L -15.2075,-120.342 L -15.3173,-120.362 L -15.4229,-120.395 L -15.5233,-120.44 L -15.6319,-120.449 L -15.728,-120.38
 L -15.7504,-120.346 L -15.8044,-120.263 L -15.8579,-120.181 L -15.8798,-120.146 L -15.9038,-120.03 L -15.8512,-119.935
 L -15.7689,-119.862 L -15.696,-119.779 L -15.6329,-119.687 L -15.58,-119.586 L -15.5487,-119.446 L -15.55,-119.303
 L -15.5817,-119.163 L -15.6413,-119.031 L -15.726,-118.913 L -15.8317,-118.815 L -15.9549,-118.743 L -16.092,-118.699
 L -16.2052,-118.695 L -16.3165,-118.704 L -16.4249,-118.725 L -16.5296,-118.76 L -16.6385,-118.758 L -16.7269,-118.679
 L -16.7456,-118.643 L -16.7906,-118.555 L -16.8352,-118.467 L -16.8534,-118.431 L -16.8651,-118.313 L -16.8028,-118.224
 L -16.7133,-118.159 L -16.6322,-118.084 L -16.5598,-117.999 L -16.4967,-117.905 L -16.4509,-117.769 L -16.4373,-117.627
 L -16.4541,-117.484 L -16.4996,-117.346 L -16.5715,-117.22 L -16.6664,-117.112 L -16.7813,-117.027 L -16.9131,-116.97
 L -17.0253,-116.954 L -17.1369,-116.951 L -17.247,-116.961 L -17.3547,-116.984 L -17.4628,-116.971 L -17.5424,-116.883
 L -17.5573,-116.845 L -17.5929,-116.753 L -17.6281,-116.661 L -17.6423,-116.623 L -17.6417,-116.505 L -17.5704,-116.422
 L -17.4747,-116.368 L -17.3861,-116.302 L -17.3053,-116.225 L -17.2326,-116.138 L -17.1729,-116.007 L -17.1445,-115.867
 L -17.1462,-115.723 L -17.1771,-115.581 L -17.2354,-115.448 L -17.3185,-115.331 L -17.4239,-115.234 L -17.549,-115.164
 L -17.6589,-115.136 L -17.7696,-115.121 L -17.8801,-115.12 L -17.9897,-115.132 L -18.0958,-115.107 L -18.1658,-115.012
 L -18.1767,-114.973 L -18.2025,-114.877 L -18.2278,-114.782 L -18.238,-114.743 L -18.225,-114.625 L -18.1454,-114.55
 L -18.0446,-114.506 L -17.9496,-114.45 L -17.8611,-114.382 L -17.7798,-114.303 L -17.7067,-114.179 L -17.6638,-114.042
 L -17.6505,-113.899 L -17.6664,-113.755 L -17.7105,-113.617 L -17.7809,-113.492 L -17.8756,-113.384 L -17.9927,-113.301
 L -18.0991,-113.262 L -18.2076,-113.236 L -18.3173,-113.223 L -18.4275,-113.223 L -18.5305,-113.188 L -18.5902,-113.086
 L -18.5969,-113.045 L -18.6126,-112.948 L -18.6278,-112.85 L -18.6338,-112.81 L -18.6086,-112.695 L -18.5217,-112.629
 L -18.4167,-112.595 L -18.3164,-112.549 L -18.2213,-112.491 L -18.1321,-112.421 L -18.0465,-112.305 L -17.9896,-112.174
 L -17.9614,-112.033 L -17.9621,-111.888 L -17.9916,-111.746 L -18.0484,-111.614 L -18.1314,-111.497 L -18.2391,-111.402
 L -18.3409,-111.352 L -18.4461,-111.315 L -18.5539,-111.29 L -18.6635,-111.279 L -18.7622,-111.233 L -18.8109,-111.125
 L -18.8133,-111.085 L -18.8188,-110.986 L -18.8237,-110.888 L -18.8255,-110.847 L -18.7883,-110.735 L -18.695,-110.678
 L -18.5871,-110.656 L -18.4825,-110.621 L -18.3818,-110.572 L -18.2858,-110.512 L -18.1886,-110.406 L -18.1183,-110.282
 L -18.0755,-110.144 L -18.0611,-110 L -18.0755,-109.856 L -18.1183,-109.718 L -18.1886,-109.594 L -18.2858,-109.488
 L -18.3818,-109.428 L -18.4825,-109.38 L -18.5871,-109.344 L -18.695,-109.322 L -18.7883,-109.265 L -18.8255,-109.153
 L -18.8237,-109.112 L -18.8188,-109.014 L -18.8133,-108.915 L -18.8109,-108.875 L -18.7622,-108.767 L -18.6635,-108.721
 L -18.5539,-108.71 L -18.4461,-108.685 L -18.3409,-108.648 L -18.2391,-108.598 L -18.1314,-108.503 L -18.0484,-108.386
 L -17.9916,-108.254 L -17.9621,-108.112 L -17.9614,-107.967 L -17.9896,-107.826 L -18.0465,-107.695 L -18.1321,-107.579
 L -18.2213,-107.51 L -18.3164,-107.451 L -18.4167,-107.405 L -18.5217,-107.371 L -18.6086,-107.306 L -18.6338,-107.19
 L -18.6278,-107.15 L -18.6126,-107.052 L -18.5969,-106.955 L -18.5902,-106.914 L -18.5305,-106.812 L -18.4275,-106.777
 L -18.3174,-106.777 L -18.2076,-106.764 L -18.0991,-106.738 L -17.9927,-106.699 L -17.8756,-106.616 L -17.7809,-106.508
 L -17.7105,-106.383 L -17.6664,-106.245 L -17.6505,-106.101 L -17.6638,-105.958 L -17.7067,-105.821 L -17.7798,-105.697
 L -17.8611,-105.619 L -17.9496,-105.55 L -18.0446,-105.494 L -18.1454,-105.45 L -18.225,-105.375 L -18.238,-105.257
 L -18.2278,-105.218 L -18.2025,-105.123 L -18.1767,-105.027 L -18.1658,-104.988 L -18.0958,-104.893 L -17.9897,-104.868
 L -17.8801,-104.88 L -17.7696,-104.879 L -17.659,-104.864 L -17.549,-104.836 L -17.4239,-104.766 L -17.3185,-104.669
 L -17.2354,-104.552 L -17.1771,-104.419 L -17.1462,-104.277 L -17.1445,-104.133 L -17.1729,-103.993 L -17.2326,-103.862
 L -17.3053,-103.776 L -17.3862,-103.699 L -17.4747,-103.632 L -17.5704,-103.578 L -17.6418,-103.495 L -17.6423,-103.377
 L -17.6281,-103.339 L -17.5929,-103.247 L -17.5573,-103.155 L -17.5424,-103.117 L -17.4628,-103.029 L -17.3547,-103.016
 L -17.247,-103.039 L -17.137,-103.049 L -17.0254,-103.046 L -16.9131,-103.03 L -16.7813,-102.973 L -16.6664,-102.888
 L -16.5715,-102.78 L -16.4996,-102.654 L -16.4541,-102.516 L -16.4373,-102.373 L -16.4509,-102.231 L -16.4967,-102.095
 L -16.5599,-102.001 L -16.6322,-101.916 L -16.7134,-101.841 L -16.8028,-101.776 L -16.8652,-101.687 L -16.8534,-101.569
 L -16.8352,-101.533 L -16.7906,-101.445 L -16.7456,-101.357 L -16.7269,-101.321 L -16.6385,-101.242 L -16.5296,-101.24
 L -16.4249,-101.275 L -16.3166,-101.296 L -16.2053,-101.305 L -16.092,-101.301 L -15.9549,-101.257 L -15.8317,-101.185
 L -15.726,-101.087 L -15.6413,-100.969 L -15.5817,-100.837 L -15.55,-100.697 L -15.5487,-100.554 L -15.58,-100.414
 L -15.633,-100.314 L -15.6961,-100.221 L -15.7689,-100.138 L -15.8512,-100.065 L -15.9039,-99.9697 L -15.8798,-99.8537
 L -15.8579,-99.8194 L -15.8044,-99.7365 L -15.7504,-99.6539 L -15.728,-99.6199 L -15.6319,-99.5509 L -15.5233,-99.5602
 L -15.4229,-99.6055 L -15.3174,-99.6383 L -15.2076,-99.6585 L -15.0945,-99.6661 L -14.9536,-99.6376 L -14.8235,-99.5782
 L -14.7082,-99.4922 L -14.6117,-99.384 L -14.5386,-99.2587 L -14.4924,-99.1225 L -14.4762,-98.9804 L -14.4926,-98.8377
 L -14.5349,-98.7325 L -14.588,-98.6344 L -14.6517,-98.5441 L -14.7258,-98.4625 L -14.7683,-98.3622 L -14.7323,-98.2494
 L -14.7069,-98.2176 L -14.645,-98.1407 L -14.5827,-98.0642 L -14.5568,-98.0327 L -14.4541,-97.9742 L -14.347,-97.9947
 L -14.2519,-98.0503 L -14.1504,-98.094 L -14.0433,-98.1255 L -13.9316,-98.1449 L -13.7886,-98.1313 L -13.653,-98.0858
 L -13.5293,-98.0124 L -13.422,-97.9148 L -13.3362,-97.7979 L -13.276,-97.6672 L -13.245,-97.5276 L -13.2464,-97.3839
 L -13.2775,-97.275 L -13.32,-97.1718 L -13.374,-97.0753 L -13.4392,-96.9865 L -13.4709,-96.8822 L -13.4233,-96.7738
 L -13.3947,-96.7448 L -13.3251,-96.6749 L -13.2552,-96.6053 L -13.2262,-96.5767 L -13.1179,-96.5292 L -13.0135,-96.5608
 L -12.9248,-96.6261 L -12.8284,-96.6801 L -12.7252,-96.7227 L -12.6161,-96.7536 L -12.4724,-96.755 L -12.3328,-96.724
 L -12.2021,-96.6638 L -12.0852,-96.578 L -11.9876,-96.4707 L -11.9142,-96.347 L -11.8687,-96.2114 L -11.8551,-96.0684
 L -11.8746,-95.9568 L -11.9061,-95.8497 L -11.9497,-95.7481 L -12.0053,-95.653 L -12.0259,-95.546 L -11.9673,-95.4432
 L -11.9358,-95.4173 L -11.8593,-95.355 L -11.7824,-95.2931 L -11.7506,-95.2677 L -11.6379,-95.2318 L -11.5375,-95.2742
 L -11.456,-95.3483 L -11.3658,-95.4121 L -11.2676,-95.4653 L -11.1623,-95.5074 L -11.0196,-95.5238 L -10.8775,-95.5076
 L -10.7413,-95.4614 L -10.616,-95.3883 L -10.5078,-95.2918 L -10.4218,-95.1765 L -10.3624,-95.0464 L -10.3339,-94.9055
 L -10.3416,-94.7925 L -10.3618,-94.6827 L -10.3945,-94.5771 L -10.4398,-94.4767 L -10.4492,-94.3681 L -10.3801,-94.272
 L -10.3461,-94.2496 L -10.2635,-94.1956 L -10.1806,-94.1421 L -10.1463,-94.1202 L -10.0305,-94.0962 L -9.93501,-94.1488
 L -9.86171,-94.2311 L -9.77866,-94.304 L -9.68657,-94.3671 L -9.5863,-94.42 L -9.44606,-94.4513 L -9.30304,-94.45
 L -9.16272,-94.4183 L -9.03053,-94.3587 L -8.9128,-94.274 L -8.81522,-94.1683 L -8.74255,-94.0451 L -8.69948,-93.908
 L -8.69536,-93.7948 L -8.70395,-93.6835 L -8.72545,-93.5751 L -8.75999,-93.4704 L -8.75798,-93.3615 L -8.6792,-93.2731
 L -8.64305,-93.2544 L -8.55525,-93.2094 L -8.46722,-93.1648 L -8.43079,-93.1466 L -8.31311,-93.1349 L -8.22368,-93.1972
 L -8.15939,-93.2867 L -8.0844,-93.3678 L -7.99942,-93.4402 L -7.90523,-93.5033 L -7.76903,-93.5491 L -7.62666,-93.5627
 L -7.48378,-93.5459 L -7.3461,-93.5004 L -7.22015,-93.4285 L -7.11206,-93.3336 L -7.02692,-93.2187 L -6.96976,-93.0869
 L -6.95381,-92.9747 L -6.95073,-92.8631 L -6.96077,-92.753 L -6.98421,-92.6453 L -6.97081,-92.5372 L -6.88322,-92.4576
 L -6.84532,-92.4427 L -6.7533,-92.4071 L -6.66109,-92.3719 L -6.62294,-92.3577 L -6.50468,-92.3583 L -6.42226,-92.4296
 L -6.36768,-92.5253 L -6.30157,-92.6139 L -6.22462,-92.6947 L -6.13756,-92.7674 L -6.00688,-92.8271 L -5.86671,-92.8555
 L -5.72287,-92.8538 L -5.58118,-92.8229 L -5.44841,-92.7646 L -5.33098,-92.6815 L -5.2343,-92.5761 L -5.16367,-92.451
 L -5.13609,-92.3411 L -5.12137,-92.2304 L -5.11984,-92.1199 L -5.13188,-92.0103 L -5.10725,-91.9042 L -5.01183,-91.8342
 L -4.97258,-91.8233 L -4.87733,-91.7975 L -4.78195,-91.7722 L -4.74254,-91.762 L -4.62498,-91.775 L -4.55048,-91.8546
 L -4.5062,-91.9554 L -4.44971,-92.0504 L -4.38164,-92.1389 L -4.30264,-92.2202 L -4.17891,-92.2933 L -4.0425,-92.3362
 L -3.89925,-92.3495 L -3.7551,-92.3336 L -3.61696,-92.2895 L -3.4915,-92.2191 L -3.38432,-92.1244 L -3.30101,-92.0073
 L -3.26208,-91.9009 L -3.23589,-91.7924 L -3.22281,-91.6827 L -3.22334,-91.5725 L -3.18776,-91.4695 L -3.08553,-91.4098
 L -3.04535,-91.4031 L -2.94794,-91.3874 L -2.85045,-91.3722 L -2.81017,-91.3662 L -2.69463,-91.3914 L -2.62883,-91.4783
 L -2.59534,-91.5833 L -2.54909,-91.6836 L -2.49065,-91.7787 L -2.42058,-91.8679 L -2.30516,-91.9535 L -2.17398,-92.0104
 L -2.0329,-92.0386 L -1.88789,-92.0379 L -1.7459,-92.0084 L -1.61375,-91.9516 L -1.49728,-91.8686 L -1.40218,-91.7609
 L -1.35236,-91.6591 L -1.31494,-91.5539 L -1.29047,-91.4461 L -1.27948,-91.3365 L -1.23332,-91.2378 L -1.12541,-91.1891
 L -1.08476,-91.1867 L -0.986237,-91.1812 L -0.887695,-91.1763 L -0.847,-91.1745 L -0.734741,-91.2117 L -0.678375,-91.305
 L -0.656052,-91.4129 L -0.620544,-91.5175 L -0.572357,-91.6182 L -0.511993,-91.7142 L -0.406158,-91.8114 L -0.281647,-91.8817
 L -0.144287,-91.9245 L 0,-91.9389 L 0.144287,-91.9245 L 0.281647,-91.8817 L 0.406158,-91.8114 L 0.511993,-91.7142
 L 0.572189,-91.6182 L 0.620392,-91.5175 L 0.655991,-91.4129 L 0.678375,-91.305 L 0.734589,-91.2117 L 0.847,-91.1745
 z
M -0.0941772,-108.503 L -0.281067,-108.527 L -0.463516,-108.573 L -0.638657,-108.643 L -0.803726,-108.734 L -0.956131,-108.844
 L -1.09344,-108.973 L -1.21352,-109.118 L -1.31445,-109.277 L -1.39465,-109.448 L -1.45287,-109.627 L -1.48816,-109.812
 L -1.5,-110 L -1.48816,-110.188 L -1.45287,-110.373 L -1.39465,-110.552 L -1.31445,-110.723 L -1.21352,-110.882
 L -1.09344,-111.027 L -0.956131,-111.156 L -0.803726,-111.266 L -0.638657,-111.357 L -0.463516,-111.427 L -0.281067,-111.473
 L -0.0941772,-111.497 L 0.0941772,-111.497 L 0.281067,-111.473 L 0.463516,-111.427 L 0.638657,-111.357 L 0.803726,-111.266
 L 0.956131,-111.156 L 1.09344,-111.027 L 1.21352,-110.882 L 1.31445,-110.723 L 1.39465,-110.552 L 1.45287,-110.373
 L 1.48816,-110.188 L 1.5,-110 L 1.48816,-109.812 L 1.45287,-109.627 L 1.39465,-109.448 L 1.31445,-109.277
 L 1.21352,-109.118 L 1.09344,-108.973 L 0.956131,-108.844 L 0.803726,-108.734 L 0.638657,-108.643 L 0.463516,-108.573
 L 0.281067,-108.527 L 0.0941772,-108.503 z
" stroke="black" fill="lightgray" stroke-width="0.5"/>
</svg>
