  0
SECTION
  2
BLOCKS
  0
ENDSEC
  0
SECTION
  2
ENTITIES
  0
LINE
  8
0
 10
-148.5
 20
194.941
 11
-148.187
 21
194.647
  0
LINE
  8
0
 10
-148.187
 20
194.647
 11
-147.679
 21
194.278
  0
LINE
  8
0
 10
-147.679
 20
194.278
 11
-147.129
 21
193.976
  0
LINE
  8
0
 10
-147.129
 20
193.976
 11
-146.545
 21
193.745
  0
LINE
  8
0
 10
-146.545
 20
193.745
 11
-145.937
 21
193.589
  0
LINE
  8
0
 10
-145.937
 20
193.589
 11
-145.314
 21
193.51
  0
LINE
  8
0
 10
-145.314
 20
193.51
 11
145.314
 21
193.51
  0
LINE
  8
0
 10
145.314
 20
193.51
 11
145.937
 21
193.589
  0
LINE
  8
0
 10
145.937
 20
193.589
 11
146.545
 21
193.745
  0
LINE
  8
0
 10
146.545
 20
193.745
 11
147.129
 21
193.976
  0
LINE
  8
0
 10
147.129
 20
193.976
 11
147.679
 21
194.278
  0
LINE
  8
0
 10
147.679
 20
194.278
 11
148.187
 21
194.647
  0
LINE
  8
0
 10
148.187
 20
194.647
 11
148.645
 21
195.077
  0
LINE
  8
0
 10
148.645
 20
195.077
 11
149.045
 21
195.561
  0
LINE
  8
0
 10
149.045
 20
195.561
 11
149.382
 21
196.091
  0
LINE
  8
0
 10
149.382
 20
196.091
 11
149.649
 21
196.659
  0
LINE
  8
0
 10
149.649
 20
196.659
 11
149.843
 21
197.257
  0
LINE
  8
0
 10
149.843
 20
197.257
 11
149.961
 21
197.873
  0
LINE
  8
0
 10
149.961
 20
197.873
 11
150
 21
198.5
  0
LINE
  8
0
 10
150
 20
198.5
 11
150
 21
233.5
  0
LINE
  8
0
 10
150
 20
233.5
 11
149.961
 21
234.127
  0
LINE
  8
0
 10
149.961
 20
234.127
 11
149.843
 21
234.743
  0
LINE
  8
0
 10
149.843
 20
234.743
 11
149.649
 21
235.341
  0
LINE
  8
0
 10
149.649
 20
235.341
 11
149.382
 21
235.909
  0
LINE
  8
0
 10
149.382
 20
235.909
 11
149.045
 21
236.439
  0
LINE
  8
0
 10
149.045
 20
236.439
 11
148.645
 21
236.923
  0
LINE
  8
0
 10
148.645
 20
236.923
 11
148.187
 21
237.353
  0
LINE
  8
0
 10
148.187
 20
237.353
 11
147.679
 21
237.722
  0
LINE
  8
0
 10
147.679
 20
237.722
 11
147.129
 21
238.024
  0
LINE
  8
0
 10
147.129
 20
238.024
 11
146.545
 21
238.255
  0
LINE
  8
0
 10
146.545
 20
238.255
 11
145.937
 21
238.411
  0
LINE
  8
0
 10
145.937
 20
238.411
 11
145.314
 21
238.49
  0
LINE
  8
0
 10
145.314
 20
238.49
 11
-145.314
 21
238.49
  0
LINE
  8
0
 10
-145.314
 20
238.49
 11
-145.937
 21
238.411
  0
LINE
  8
0
 10
-145.937
 20
238.411
 11
-146.545
 21
238.255
  0
LINE
  8
0
 10
-146.545
 20
238.255
 11
-147.129
 21
238.024
  0
LINE
  8
0
 10
-147.129
 20
238.024
 11
-147.679
 21
237.722
  0
LINE
  8
0
 10
-147.679
 20
237.722
 11
-148.187
 21
237.353
  0
LINE
  8
0
 10
-148.187
 20
237.353
 11
-148.5
 21
237.059
  0
LINE
  8
0
 10
-148.5
 20
237.059
 11
-148.5
 21
238.49
  0
LINE
  8
0
 10
-148.5
 20
238.49
 11
-151.5
 21
238.49
  0
LINE
  8
0
 10
-151.5
 20
238.49
 11
-151.5
 21
193.51
  0
LINE
  8
0
 10
-151.5
 20
193.51
 11
-148.5
 21
193.51
  0
LINE
  8
0
 10
-148.5
 20
193.51
 11
-148.5
 21
194.941
  0
LINE
  8
0
 10
-144.743
 20
195.135
 11
-145.226
 21
195.196
  0
LINE
  8
0
 10
-145.226
 20
195.196
 11
-145.697
 21
195.317
  0
LINE
  8
0
 10
-145.697
 20
195.317
 11
-146.149
 21
195.496
  0
LINE
  8
0
 10
-146.149
 20
195.496
 11
-146.575
 21
195.73
  0
LINE
  8
0
 10
-146.575
 20
195.73
 11
-146.969
 21
196.016
  0
LINE
  8
0
 10
-146.969
 20
196.016
 11
-147.323
 21
196.349
  0
LINE
  8
0
 10
-147.323
 20
196.349
 11
-147.633
 21
196.724
  0
LINE
  8
0
 10
-147.633
 20
196.724
 11
-147.894
 21
197.134
  0
LINE
  8
0
 10
-147.894
 20
197.134
 11
-148.101
 21
197.574
  0
LINE
  8
0
 10
-148.101
 20
197.574
 11
-148.251
 21
198.037
  0
LINE
  8
0
 10
-148.251
 20
198.037
 11
-148.342
 21
198.515
  0
LINE
  8
0
 10
-148.342
 20
198.515
 11
-148.373
 21
199
  0
LINE
  8
0
 10
-148.373
 20
199
 11
-148.373
 21
233
  0
LINE
  8
0
 10
-148.373
 20
233
 11
-148.342
 21
233.485
  0
LINE
  8
0
 10
-148.342
 20
233.485
 11
-148.251
 21
233.963
  0
LINE
  8
0
 10
-148.251
 20
233.963
 11
-148.101
 21
234.426
  0
LINE
  8
0
 10
-148.101
 20
234.426
 11
-147.894
 21
234.866
  0
LINE
  8
0
 10
-147.894
 20
234.866
 11
-147.633
 21
235.276
  0
LINE
  8
0
 10
-147.633
 20
235.276
 11
-147.323
 21
235.651
  0
LINE
  8
0
 10
-147.323
 20
235.651
 11
-146.969
 21
235.984
  0
LINE
  8
0
 10
-146.969
 20
235.984
 11
-146.575
 21
236.27
  0
LINE
  8
0
 10
-146.575
 20
236.27
 11
-146.149
 21
236.504
  0
LINE
  8
0
 10
-146.149
 20
236.504
 11
-145.697
 21
236.683
  0
LINE
  8
0
 10
-145.697
 20
236.683
 11
-145.226
 21
236.804
  0
LINE
  8
0
 10
-145.226
 20
236.804
 11
-144.743
 21
236.865
  0
LINE
  8
0
 10
-144.743
 20
236.865
 11
144.743
 21
236.865
  0
LINE
  8
0
 10
144.743
 20
236.865
 11
145.226
 21
236.804
  0
LINE
  8
0
 10
145.226
 20
236.804
 11
145.697
 21
236.683
  0
LINE
  8
0
 10
145.697
 20
236.683
 11
146.149
 21
236.504
  0
LINE
  8
0
 10
146.149
 20
236.504
 11
146.575
 21
236.27
  0
LINE
  8
0
 10
146.575
 20
236.27
 11
146.969
 21
235.984
  0
LINE
  8
0
 10
146.969
 20
235.984
 11
147.323
 21
235.651
  0
LINE
  8
0
 10
147.323
 20
235.651
 11
147.633
 21
235.276
  0
LINE
  8
0
 10
147.633
 20
235.276
 11
147.894
 21
234.866
  0
LINE
  8
0
 10
147.894
 20
234.866
 11
148.101
 21
234.426
  0
LINE
  8
0
 10
148.101
 20
234.426
 11
148.251
 21
233.963
  0
LINE
  8
0
 10
148.251
 20
233.963
 11
148.342
 21
233.485
  0
LINE
  8
0
 10
148.342
 20
233.485
 11
148.373
 21
233
  0
LINE
  8
0
 10
148.373
 20
233
 11
148.373
 21
199
  0
LINE
  8
0
 10
148.373
 20
199
 11
148.342
 21
198.515
  0
LINE
  8
0
 10
148.342
 20
198.515
 11
148.251
 21
198.037
  0
LINE
  8
0
 10
148.251
 20
198.037
 11
148.101
 21
197.574
  0
LINE
  8
0
 10
148.101
 20
197.574
 11
147.894
 21
197.134
  0
LINE
  8
0
 10
147.894
 20
197.134
 11
147.633
 21
196.724
  0
LINE
  8
0
 10
147.633
 20
196.724
 11
147.323
 21
196.349
  0
LINE
  8
0
 10
147.323
 20
196.349
 11
146.969
 21
196.016
  0
LINE
  8
0
 10
146.969
 20
196.016
 11
146.575
 21
195.73
  0
LINE
  8
0
 10
146.575
 20
195.73
 11
146.149
 21
195.496
  0
LINE
  8
0
 10
146.149
 20
195.496
 11
145.697
 21
195.317
  0
LINE
  8
0
 10
145.697
 20
195.317
 11
145.226
 21
195.196
  0
LINE
  8
0
 10
145.226
 20
195.196
 11
144.743
 21
195.135
  0
LINE
  8
0
 10
144.743
 20
195.135
 11
-144.743
 21
195.135
  0
LINE
  8
0
 10
145.937
 20
139.589
 11
146.545
 21
139.745
  0
LINE
  8
0
 10
146.545
 20
139.745
 11
147.129
 21
139.976
  0
LINE
  8
0
 10
147.129
 20
139.976
 11
147.679
 21
140.278
  0
LINE
  8
0
 10
147.679
 20
140.278
 11
148.187
 21
140.647
  0
LINE
  8
0
 10
148.187
 20
140.647
 11
148.645
 21
141.077
  0
LINE
  8
0
 10
148.645
 20
141.077
 11
149.045
 21
141.561
  0
LINE
  8
0
 10
149.045
 20
141.561
 11
149.382
 21
142.091
  0
LINE
  8
0
 10
149.382
 20
142.091
 11
149.649
 21
142.659
  0
LINE
  8
0
 10
149.649
 20
142.659
 11
149.843
 21
143.257
  0
LINE
  8
0
 10
149.843
 20
143.257
 11
149.961
 21
143.873
  0
LINE
  8
0
 10
149.961
 20
143.873
 11
150
 21
144.5
  0
LINE
  8
0
 10
150
 20
144.5
 11
150
 21
179.5
  0
LINE
  8
0
 10
150
 20
179.5
 11
149.961
 21
180.127
  0
LINE
  8
0
 10
149.961
 20
180.127
 11
149.843
 21
180.743
  0
LINE
  8
0
 10
149.843
 20
180.743
 11
149.649
 21
181.341
  0
LINE
  8
0
 10
149.649
 20
181.341
 11
149.382
 21
181.909
  0
LINE
  8
0
 10
149.382
 20
181.909
 11
149.045
 21
182.439
  0
LINE
  8
0
 10
149.045
 20
182.439
 11
148.645
 21
182.923
  0
LINE
  8
0
 10
148.645
 20
182.923
 11
148.187
 21
183.353
  0
LINE
  8
0
 10
148.187
 20
183.353
 11
147.679
 21
183.722
  0
LINE
  8
0
 10
147.679
 20
183.722
 11
147.129
 21
184.024
  0
LINE
  8
0
 10
147.129
 20
184.024
 11
146.545
 21
184.255
  0
LINE
  8
0
 10
146.545
 20
184.255
 11
145.937
 21
184.411
  0
LINE
  8
0
 10
145.937
 20
184.411
 11
145.314
 21
184.49
  0
LINE
  8
0
 10
145.314
 20
184.49
 11
-145.314
 21
184.49
  0
LINE
  8
0
 10
-145.314
 20
184.49
 11
-145.937
 21
184.411
  0
LINE
  8
0
 10
-145.937
 20
184.411
 11
-146.545
 21
184.255
  0
LINE
  8
0
 10
-146.545
 20
184.255
 11
-147.129
 21
184.024
  0
LINE
  8
0
 10
-147.129
 20
184.024
 11
-147.679
 21
183.722
  0
LINE
  8
0
 10
-147.679
 20
183.722
 11
-148.187
 21
183.353
  0
LINE
  8
0
 10
-148.187
 20
183.353
 11
-148.5
 21
183.059
  0
LINE
  8
0
 10
-148.5
 20
183.059
 11
-148.5
 21
184.115
  0
LINE
  8
0
 10
-148.5
 20
184.115
 11
-151.5
 21
184.115
  0
LINE
  8
0
 10
-151.5
 20
184.115
 11
-151.5
 21
139.885
  0
LINE
  8
0
 10
-151.5
 20
139.885
 11
-148.5
 21
139.885
  0
LINE
  8
0
 10
-148.5
 20
139.885
 11
-148.5
 21
140.941
  0
LINE
  8
0
 10
-148.5
 20
140.941
 11
-148.187
 21
140.647
  0
LINE
  8
0
 10
-148.187
 20
140.647
 11
-147.679
 21
140.278
  0
LINE
  8
0
 10
-147.679
 20
140.278
 11
-147.129
 21
139.976
  0
LINE
  8
0
 10
-147.129
 20
139.976
 11
-146.545
 21
139.745
  0
LINE
  8
0
 10
-146.545
 20
139.745
 11
-145.937
 21
139.589
  0
LINE
  8
0
 10
-145.937
 20
139.589
 11
-145.314
 21
139.51
  0
LINE
  8
0
 10
-145.314
 20
139.51
 11
145.314
 21
139.51
  0
LINE
  8
0
 10
145.314
 20
139.51
 11
145.937
 21
139.589
  0
LINE
  8
0
 10
142.349
 20
174.605
 11
142.05
 21
174.643
  0
LINE
  8
0
 10
142.05
 20
174.643
 11
141.758
 21
174.717
  0
LINE
  8
0
 10
141.758
 20
174.717
 11
141.478
 21
174.828
  0
LINE
  8
0
 10
141.478
 20
174.828
 11
141.214
 21
174.974
  0
LINE
  8
0
 10
141.214
 20
174.974
 11
140.97
 21
175.151
  0
LINE
  8
0
 10
140.97
 20
175.151
 11
140.75
 21
175.357
  0
LINE
  8
0
 10
140.75
 20
175.357
 11
140.558
 21
175.589
  0
LINE
  8
0
 10
140.558
 20
175.589
 11
140.397
 21
175.844
  0
LINE
  8
0
 10
140.397
 20
175.844
 11
140.269
 21
176.117
  0
LINE
  8
0
 10
140.269
 20
176.117
 11
140.175
 21
176.403
  0
LINE
  8
0
 10
140.175
 20
176.403
 11
140.119
 21
176.699
  0
LINE
  8
0
 10
140.119
 20
176.699
 11
140.1
 21
177
  0
LINE
  8
0
 10
140.1
 20
177
 11
140.119
 21
177.301
  0
LINE
  8
0
 10
140.119
 20
177.301
 11
140.175
 21
177.597
  0
LINE
  8
0
 10
140.175
 20
177.597
 11
140.269
 21
177.883
  0
LINE
  8
0
 10
140.269
 20
177.883
 11
140.397
 21
178.156
  0
LINE
  8
0
 10
140.397
 20
178.156
 11
140.558
 21
178.411
  0
LINE
  8
0
 10
140.558
 20
178.411
 11
140.75
 21
178.643
  0
LINE
  8
0
 10
140.75
 20
178.643
 11
140.97
 21
178.849
  0
LINE
  8
0
 10
140.97
 20
178.849
 11
141.214
 21
179.026
  0
LINE
  8
0
 10
141.214
 20
179.026
 11
141.478
 21
179.172
  0
LINE
  8
0
 10
141.478
 20
179.172
 11
141.758
 21
179.283
  0
LINE
  8
0
 10
141.758
 20
179.283
 11
142.05
 21
179.357
  0
LINE
  8
0
 10
142.05
 20
179.357
 11
142.349
 21
179.395
  0
LINE
  8
0
 10
142.349
 20
179.395
 11
142.651
 21
179.395
  0
LINE
  8
0
 10
142.651
 20
179.395
 11
142.95
 21
179.357
  0
LINE
  8
0
 10
142.95
 20
179.357
 11
143.242
 21
179.283
  0
LINE
  8
0
 10
143.242
 20
179.283
 11
143.522
 21
179.172
  0
LINE
  8
0
 10
143.522
 20
179.172
 11
143.786
 21
179.026
  0
LINE
  8
0
 10
143.786
 20
179.026
 11
144.03
 21
178.849
  0
LINE
  8
0
 10
144.03
 20
178.849
 11
144.25
 21
178.643
  0
LINE
  8
0
 10
144.25
 20
178.643
 11
144.442
 21
178.411
  0
LINE
  8
0
 10
144.442
 20
178.411
 11
144.603
 21
178.156
  0
LINE
  8
0
 10
144.603
 20
178.156
 11
144.731
 21
177.883
  0
LINE
  8
0
 10
144.731
 20
177.883
 11
144.825
 21
177.597
  0
LINE
  8
0
 10
144.825
 20
177.597
 11
144.881
 21
177.301
  0
LINE
  8
0
 10
144.881
 20
177.301
 11
144.9
 21
177
  0
LINE
  8
0
 10
144.9
 20
177
 11
144.881
 21
176.699
  0
LINE
  8
0
 10
144.881
 20
176.699
 11
144.825
 21
176.403
  0
LINE
  8
0
 10
144.825
 20
176.403
 11
144.731
 21
176.117
  0
LINE
  8
0
 10
144.731
 20
176.117
 11
144.603
 21
175.844
  0
LINE
  8
0
 10
144.603
 20
175.844
 11
144.442
 21
175.589
  0
LINE
  8
0
 10
144.442
 20
175.589
 11
144.25
 21
175.357
  0
LINE
  8
0
 10
144.25
 20
175.357
 11
144.03
 21
175.151
  0
LINE
  8
0
 10
144.03
 20
175.151
 11
143.786
 21
174.974
  0
LINE
  8
0
 10
143.786
 20
174.974
 11
143.522
 21
174.828
  0
LINE
  8
0
 10
143.522
 20
174.828
 11
143.242
 21
174.717
  0
LINE
  8
0
 10
143.242
 20
174.717
 11
142.95
 21
174.643
  0
LINE
  8
0
 10
142.95
 20
174.643
 11
142.651
 21
174.605
  0
LINE
  8
0
 10
142.651
 20
174.605
 11
142.349
 21
174.605
  0
LINE
  8
0
 10
-142.651
 20
174.605
 11
-142.95
 21
174.643
  0
LINE
  8
0
 10
-142.95
 20
174.643
 11
-143.242
 21
174.717
  0
LINE
  8
0
 10
-143.242
 20
174.717
 11
-143.522
 21
174.828
  0
LINE
  8
0
 10
-143.522
 20
174.828
 11
-143.786
 21
174.974
  0
LINE
  8
0
 10
-143.786
 20
174.974
 11
-144.03
 21
175.151
  0
LINE
  8
0
 10
-144.03
 20
175.151
 11
-144.25
 21
175.357
  0
LINE
  8
0
 10
-144.25
 20
175.357
 11
-144.442
 21
175.589
  0
LINE
  8
0
 10
-144.442
 20
175.589
 11
-144.603
 21
175.844
  0
LINE
  8
0
 10
-144.603
 20
175.844
 11
-144.731
 21
176.117
  0
LINE
  8
0
 10
-144.731
 20
176.117
 11
-144.825
 21
176.403
  0
LINE
  8
0
 10
-144.825
 20
176.403
 11
-144.881
 21
176.699
  0
LINE
  8
0
 10
-144.881
 20
176.699
 11
-144.9
 21
177
  0
LINE
  8
0
 10
-144.9
 20
177
 11
-144.881
 21
177.301
  0
LINE
  8
0
 10
-144.881
 20
177.301
 11
-144.825
 21
177.597
  0
LINE
  8
0
 10
-144.825
 20
177.597
 11
-144.731
 21
177.883
  0
LINE
  8
0
 10
-144.731
 20
177.883
 11
-144.603
 21
178.156
  0
LINE
  8
0
 10
-144.603
 20
178.156
 11
-144.442
 21
178.411
  0
LINE
  8
0
 10
-144.442
 20
178.411
 11
-144.25
 21
178.643
  0
LINE
  8
0
 10
-144.25
 20
178.643
 11
-144.03
 21
178.849
  0
LINE
  8
0
 10
-144.03
 20
178.849
 11
-143.786
 21
179.026
  0
LINE
  8
0
 10
-143.786
 20
179.026
 11
-143.522
 21
179.172
  0
LINE
  8
0
 10
-143.522
 20
179.172
 11
-143.242
 21
179.283
  0
LINE
  8
0
 10
-143.242
 20
179.283
 11
-142.95
 21
179.357
  0
LINE
  8
0
 10
-142.95
 20
179.357
 11
-142.651
 21
179.395
  0
LINE
  8
0
 10
-142.651
 20
179.395
 11
-142.349
 21
179.395
  0
LINE
  8
0
 10
-142.349
 20
179.395
 11
-142.05
 21
179.357
  0
LINE
  8
0
 10
-142.05
 20
179.357
 11
-141.758
 21
179.283
  0
LINE
  8
0
 10
-141.758
 20
179.283
 11
-141.478
 21
179.172
  0
LINE
  8
0
 10
-141.478
 20
179.172
 11
-141.214
 21
179.026
  0
LINE
  8
0
 10
-141.214
 20
179.026
 11
-140.97
 21
178.849
  0
LINE
  8
0
 10
-140.97
 20
178.849
 11
-140.75
 21
178.643
  0
LINE
  8
0
 10
-140.75
 20
178.643
 11
-140.558
 21
178.411
  0
LINE
  8
0
 10
-140.558
 20
178.411
 11
-140.397
 21
178.156
  0
LINE
  8
0
 10
-140.397
 20
178.156
 11
-140.269
 21
177.883
  0
LINE
  8
0
 10
-140.269
 20
177.883
 11
-140.175
 21
177.597
  0
LINE
  8
0
 10
-140.175
 20
177.597
 11
-140.119
 21
177.301
  0
LINE
  8
0
 10
-140.119
 20
177.301
 11
-140.1
 21
177
  0
LINE
  8
0
 10
-140.1
 20
177
 11
-140.119
 21
176.699
  0
LINE
  8
0
 10
-140.119
 20
176.699
 11
-140.175
 21
176.403
  0
LINE
  8
0
 10
-140.175
 20
176.403
 11
-140.269
 21
176.117
  0
LINE
  8
0
 10
-140.269
 20
176.117
 11
-140.397
 21
175.844
  0
LINE
  8
0
 10
-140.397
 20
175.844
 11
-140.558
 21
175.589
  0
LINE
  8
0
 10
-140.558
 20
175.589
 11
-140.75
 21
175.357
  0
LINE
  8
0
 10
-140.75
 20
175.357
 11
-140.97
 21
175.151
  0
LINE
  8
0
 10
-140.97
 20
175.151
 11
-141.214
 21
174.974
  0
LINE
  8
0
 10
-141.214
 20
174.974
 11
-141.478
 21
174.828
  0
LINE
  8
0
 10
-141.478
 20
174.828
 11
-141.758
 21
174.717
  0
LINE
  8
0
 10
-141.758
 20
174.717
 11
-142.05
 21
174.643
  0
LINE
  8
0
 10
-142.05
 20
174.643
 11
-142.349
 21
174.605
  0
LINE
  8
0
 10
-142.349
 20
174.605
 11
-142.651
 21
174.605
  0
LINE
  8
0
 10
142.349
 20
144.605
 11
142.05
 21
144.643
  0
LINE
  8
0
 10
142.05
 20
144.643
 11
141.758
 21
144.717
  0
LINE
  8
0
 10
141.758
 20
144.717
 11
141.478
 21
144.828
  0
LINE
  8
0
 10
141.478
 20
144.828
 11
141.214
 21
144.974
  0
LINE
  8
0
 10
141.214
 20
144.974
 11
140.97
 21
145.151
  0
LINE
  8
0
 10
140.97
 20
145.151
 11
140.75
 21
145.357
  0
LINE
  8
0
 10
140.75
 20
145.357
 11
140.558
 21
145.589
  0
LINE
  8
0
 10
140.558
 20
145.589
 11
140.397
 21
145.844
  0
LINE
  8
0
 10
140.397
 20
145.844
 11
140.269
 21
146.117
  0
LINE
  8
0
 10
140.269
 20
146.117
 11
140.175
 21
146.403
  0
LINE
  8
0
 10
140.175
 20
146.403
 11
140.119
 21
146.699
  0
LINE
  8
0
 10
140.119
 20
146.699
 11
140.1
 21
147
  0
LINE
  8
0
 10
140.1
 20
147
 11
140.119
 21
147.301
  0
LINE
  8
0
 10
140.119
 20
147.301
 11
140.175
 21
147.597
  0
LINE
  8
0
 10
140.175
 20
147.597
 11
140.269
 21
147.883
  0
LINE
  8
0
 10
140.269
 20
147.883
 11
140.397
 21
148.156
  0
LINE
  8
0
 10
140.397
 20
148.156
 11
140.558
 21
148.411
  0
LINE
  8
0
 10
140.558
 20
148.411
 11
140.75
 21
148.643
  0
LINE
  8
0
 10
140.75
 20
148.643
 11
140.97
 21
148.849
  0
LINE
  8
0
 10
140.97
 20
148.849
 11
141.214
 21
149.026
  0
LINE
  8
0
 10
141.214
 20
149.026
 11
141.478
 21
149.172
  0
LINE
  8
0
 10
141.478
 20
149.172
 11
141.758
 21
149.283
  0
LINE
  8
0
 10
141.758
 20
149.283
 11
142.05
 21
149.357
  0
LINE
  8
0
 10
142.05
 20
149.357
 11
142.349
 21
149.395
  0
LINE
  8
0
 10
142.349
 20
149.395
 11
142.651
 21
149.395
  0
LINE
  8
0
 10
142.651
 20
149.395
 11
142.95
 21
149.357
  0
LINE
  8
0
 10
142.95
 20
149.357
 11
143.242
 21
149.283
  0
LINE
  8
0
 10
143.242
 20
149.283
 11
143.522
 21
149.172
  0
LINE
  8
0
 10
143.522
 20
149.172
 11
143.786
 21
149.026
  0
LINE
  8
0
 10
143.786
 20
149.026
 11
144.03
 21
148.849
  0
LINE
  8
0
 10
144.03
 20
148.849
 11
144.25
 21
148.643
  0
LINE
  8
0
 10
144.25
 20
148.643
 11
144.442
 21
148.411
  0
LINE
  8
0
 10
144.442
 20
148.411
 11
144.603
 21
148.156
  0
LINE
  8
0
 10
144.603
 20
148.156
 11
144.731
 21
147.883
  0
LINE
  8
0
 10
144.731
 20
147.883
 11
144.825
 21
147.597
  0
LINE
  8
0
 10
144.825
 20
147.597
 11
144.881
 21
147.301
  0
LINE
  8
0
 10
144.881
 20
147.301
 11
144.9
 21
147
  0
LINE
  8
0
 10
144.9
 20
147
 11
144.881
 21
146.699
  0
LINE
  8
0
 10
144.881
 20
146.699
 11
144.825
 21
146.403
  0
LINE
  8
0
 10
144.825
 20
146.403
 11
144.731
 21
146.117
  0
LINE
  8
0
 10
144.731
 20
146.117
 11
144.603
 21
145.844
  0
LINE
  8
0
 10
144.603
 20
145.844
 11
144.442
 21
145.589
  0
LINE
  8
0
 10
144.442
 20
145.589
 11
144.25
 21
145.357
  0
LINE
  8
0
 10
144.25
 20
145.357
 11
144.03
 21
145.151
  0
LINE
  8
0
 10
144.03
 20
145.151
 11
143.786
 21
144.974
  0
LINE
  8
0
 10
143.786
 20
144.974
 11
143.522
 21
144.828
  0
LINE
  8
0
 10
143.522
 20
144.828
 11
143.242
 21
144.717
  0
LINE
  8
0
 10
143.242
 20
144.717
 11
142.95
 21
144.643
  0
LINE
  8
0
 10
142.95
 20
144.643
 11
142.651
 21
144.605
  0
LINE
  8
0
 10
142.651
 20
144.605
 11
142.349
 21
144.605
  0
LINE
  8
0
 10
-142.651
 20
144.605
 11
-142.95
 21
144.643
  0
LINE
  8
0
 10
-142.95
 20
144.643
 11
-143.242
 21
144.717
  0
LINE
  8
0
 10
-143.242
 20
144.717
 11
-143.522
 21
144.828
  0
LINE
  8
0
 10
-143.522
 20
144.828
 11
-143.786
 21
144.974
  0
LINE
  8
0
 10
-143.786
 20
144.974
 11
-144.03
 21
145.151
  0
LINE
  8
0
 10
-144.03
 20
145.151
 11
-144.25
 21
145.357
  0
LINE
  8
0
 10
-144.25
 20
145.357
 11
-144.442
 21
145.589
  0
LINE
  8
0
 10
-144.442
 20
145.589
 11
-144.603
 21
145.844
  0
LINE
  8
0
 10
-144.603
 20
145.844
 11
-144.731
 21
146.117
  0
LINE
  8
0
 10
-144.731
 20
146.117
 11
-144.825
 21
146.403
  0
LINE
  8
0
 10
-144.825
 20
146.403
 11
-144.881
 21
146.699
  0
LINE
  8
0
 10
-144.881
 20
146.699
 11
-144.9
 21
147
  0
LINE
  8
0
 10
-144.9
 20
147
 11
-144.881
 21
147.301
  0
LINE
  8
0
 10
-144.881
 20
147.301
 11
-144.825
 21
147.597
  0
LINE
  8
0
 10
-144.825
 20
147.597
 11
-144.731
 21
147.883
  0
LINE
  8
0
 10
-144.731
 20
147.883
 11
-144.603
 21
148.156
  0
LINE
  8
0
 10
-144.603
 20
148.156
 11
-144.442
 21
148.411
  0
LINE
  8
0
 10
-144.442
 20
148.411
 11
-144.25
 21
148.643
  0
LINE
  8
0
 10
-144.25
 20
148.643
 11
-144.03
 21
148.849
  0
LINE
  8
0
 10
-144.03
 20
148.849
 11
-143.786
 21
149.026
  0
LINE
  8
0
 10
-143.786
 20
149.026
 11
-143.522
 21
149.172
  0
LINE
  8
0
 10
-143.522
 20
149.172
 11
-143.242
 21
149.283
  0
LINE
  8
0
 10
-143.242
 20
149.283
 11
-142.95
 21
149.357
  0
LINE
  8
0
 10
-142.95
 20
149.357
 11
-142.651
 21
149.395
  0
LINE
  8
0
 10
-142.651
 20
149.395
 11
-142.349
 21
149.395
  0
LINE
  8
0
 10
-142.349
 20
149.395
 11
-142.05
 21
149.357
  0
LINE
  8
0
 10
-142.05
 20
149.357
 11
-141.758
 21
149.283
  0
LINE
  8
0
 10
-141.758
 20
149.283
 11
-141.478
 21
149.172
  0
LINE
  8
0
 10
-141.478
 20
149.172
 11
-141.214
 21
149.026
  0
LINE
  8
0
 10
-141.214
 20
149.026
 11
-140.97
 21
148.849
  0
LINE
  8
0
 10
-140.97
 20
148.849
 11
-140.75
 21
148.643
  0
LINE
  8
0
 10
-140.75
 20
148.643
 11
-140.558
 21
148.411
  0
LINE
  8
0
 10
-140.558
 20
148.411
 11
-140.397
 21
148.156
  0
LINE
  8
0
 10
-140.397
 20
148.156
 11
-140.269
 21
147.883
  0
LINE
  8
0
 10
-140.269
 20
147.883
 11
-140.175
 21
147.597
  0
LINE
  8
0
 10
-140.175
 20
147.597
 11
-140.119
 21
147.301
  0
LINE
  8
0
 10
-140.119
 20
147.301
 11
-140.1
 21
147
  0
LINE
  8
0
 10
-140.1
 20
147
 11
-140.119
 21
146.699
  0
LINE
  8
0
 10
-140.119
 20
146.699
 11
-140.175
 21
146.403
  0
LINE
  8
0
 10
-140.175
 20
146.403
 11
-140.269
 21
146.117
  0
LINE
  8
0
 10
-140.269
 20
146.117
 11
-140.397
 21
145.844
  0
LINE
  8
0
 10
-140.397
 20
145.844
 11
-140.558
 21
145.589
  0
LINE
  8
0
 10
-140.558
 20
145.589
 11
-140.75
 21
145.357
  0
LINE
  8
0
 10
-140.75
 20
145.357
 11
-140.97
 21
145.151
  0
LINE
  8
0
 10
-140.97
 20
145.151
 11
-141.214
 21
144.974
  0
LINE
  8
0
 10
-141.214
 20
144.974
 11
-141.478
 21
144.828
  0
LINE
  8
0
 10
-141.478
 20
144.828
 11
-141.758
 21
144.717
  0
LINE
  8
0
 10
-141.758
 20
144.717
 11
-142.05
 21
144.643
  0
LINE
  8
0
 10
-142.05
 20
144.643
 11
-142.349
 21
144.605
  0
LINE
  8
0
 10
-142.349
 20
144.605
 11
-142.651
 21
144.605
  0
LINE
  8
0
 10
145.937
 20
85.5886
 11
146.545
 21
85.7447
  0
LINE
  8
0
 10
146.545
 20
85.7447
 11
147.129
 21
85.9759
  0
LINE
  8
0
 10
147.129
 20
85.9759
 11
147.679
 21
86.2784
  0
LINE
  8
0
 10
147.679
 20
86.2784
 11
148.187
 21
86.6474
  0
LINE
  8
0
 10
148.187
 20
86.6474
 11
148.645
 21
87.0773
  0
LINE
  8
0
 10
148.645
 20
87.0773
 11
149.045
 21
87.5611
  0
LINE
  8
0
 10
149.045
 20
87.5611
 11
149.382
 21
88.0912
  0
LINE
  8
0
 10
149.382
 20
88.0912
 11
149.649
 21
88.6594
  0
LINE
  8
0
 10
149.649
 20
88.6594
 11
149.843
 21
89.2566
  0
LINE
  8
0
 10
149.843
 20
89.2566
 11
149.961
 21
89.8733
  0
LINE
  8
0
 10
149.961
 20
89.8733
 11
150
 21
90.5
  0
LINE
  8
0
 10
150
 20
90.5
 11
150
 21
125.5
  0
LINE
  8
0
 10
150
 20
125.5
 11
149.961
 21
126.127
  0
LINE
  8
0
 10
149.961
 20
126.127
 11
149.843
 21
126.743
  0
LINE
  8
0
 10
149.843
 20
126.743
 11
149.649
 21
127.341
  0
LINE
  8
0
 10
149.649
 20
127.341
 11
149.382
 21
127.909
  0
LINE
  8
0
 10
149.382
 20
127.909
 11
149.045
 21
128.439
  0
LINE
  8
0
 10
149.045
 20
128.439
 11
148.645
 21
128.923
  0
LINE
  8
0
 10
148.645
 20
128.923
 11
148.187
 21
129.353
  0
LINE
  8
0
 10
148.187
 20
129.353
 11
147.679
 21
129.722
  0
LINE
  8
0
 10
147.679
 20
129.722
 11
147.129
 21
130.024
  0
LINE
  8
0
 10
147.129
 20
130.024
 11
146.545
 21
130.255
  0
LINE
  8
0
 10
146.545
 20
130.255
 11
145.937
 21
130.411
  0
LINE
  8
0
 10
145.937
 20
130.411
 11
145.314
 21
130.49
  0
LINE
  8
0
 10
145.314
 20
130.49
 11
-145.314
 21
130.49
  0
LINE
  8
0
 10
-145.314
 20
130.49
 11
-145.937
 21
130.411
  0
LINE
  8
0
 10
-145.937
 20
130.411
 11
-146.545
 21
130.255
  0
LINE
  8
0
 10
-146.545
 20
130.255
 11
-147.129
 21
130.024
  0
LINE
  8
0
 10
-147.129
 20
130.024
 11
-147.679
 21
129.722
  0
LINE
  8
0
 10
-147.679
 20
129.722
 11
-148.187
 21
129.353
  0
LINE
  8
0
 10
-148.187
 20
129.353
 11
-148.645
 21
128.923
  0
LINE
  8
0
 10
-148.645
 20
128.923
 11
-149.045
 21
128.439
  0
LINE
  8
0
 10
-149.045
 20
128.439
 11
-149.382
 21
127.909
  0
LINE
  8
0
 10
-149.382
 20
127.909
 11
-149.649
 21
127.341
  0
LINE
  8
0
 10
-149.649
 20
127.341
 11
-149.843
 21
126.743
  0
LINE
  8
0
 10
-149.843
 20
126.743
 11
-149.9
 21
126.444
  0
LINE
  8
0
 10
-149.9
 20
126.444
 11
-151.5
 21
126.444
  0
LINE
  8
0
 10
-151.5
 20
126.444
 11
-151.5
 21
89.5558
  0
LINE
  8
0
 10
-151.5
 20
89.5558
 11
-149.9
 21
89.5558
  0
LINE
  8
0
 10
-149.9
 20
89.5558
 11
-149.843
 21
89.2566
  0
LINE
  8
0
 10
-149.843
 20
89.2566
 11
-149.649
 21
88.6594
  0
LINE
  8
0
 10
-149.649
 20
88.6594
 11
-149.382
 21
88.0912
  0
LINE
  8
0
 10
-149.382
 20
88.0912
 11
-149.045
 21
87.5611
  0
LINE
  8
0
 10
-149.045
 20
87.5611
 11
-148.645
 21
87.0773
  0
LINE
  8
0
 10
-148.645
 20
87.0773
 11
-148.187
 21
86.6474
  0
LINE
  8
0
 10
-148.187
 20
86.6474
 11
-147.679
 21
86.2784
  0
LINE
  8
0
 10
-147.679
 20
86.2784
 11
-147.129
 21
85.9759
  0
LINE
  8
0
 10
-147.129
 20
85.9759
 11
-146.545
 21
85.7447
  0
LINE
  8
0
 10
-146.545
 20
85.7447
 11
-145.937
 21
85.5886
  0
LINE
  8
0
 10
-145.937
 20
85.5886
 11
-145.314
 21
85.5099
  0
LINE
  8
0
 10
-145.314
 20
85.5099
 11
145.314
 21
85.5099
  0
LINE
  8
0
 10
145.314
 20
85.5099
 11
145.937
 21
85.5886
  0
LINE
  8
0
 10
142.387
 20
121.204
 11
142.163
 21
121.232
  0
LINE
  8
0
 10
142.163
 20
121.232
 11
141.944
 21
121.288
  0
LINE
  8
0
 10
141.944
 20
121.288
 11
141.734
 21
121.371
  0
LINE
  8
0
 10
141.734
 20
121.371
 11
141.536
 21
121.48
  0
LINE
  8
0
 10
141.536
 20
121.48
 11
141.353
 21
121.613
  0
LINE
  8
0
 10
141.353
 20
121.613
 11
141.188
 21
121.768
  0
LINE
  8
0
 10
141.188
 20
121.768
 11
141.044
 21
121.942
  0
LINE
  8
0
 10
141.044
 20
121.942
 11
140.923
 21
122.133
  0
LINE
  8
0
 10
140.923
 20
122.133
 11
140.826
 21
122.337
  0
LINE
  8
0
 10
140.826
 20
122.337
 11
140.757
 21
122.552
  0
LINE
  8
0
 10
140.757
 20
122.552
 11
140.714
 21
122.774
  0
LINE
  8
0
 10
140.714
 20
122.774
 11
140.7
 21
123
  0
LINE
  8
0
 10
140.7
 20
123
 11
140.714
 21
123.226
  0
LINE
  8
0
 10
140.714
 20
123.226
 11
140.757
 21
123.448
  0
LINE
  8
0
 10
140.757
 20
123.448
 11
140.826
 21
123.663
  0
LINE
  8
0
 10
140.826
 20
123.663
 11
140.923
 21
123.867
  0
LINE
  8
0
 10
140.923
 20
123.867
 11
141.044
 21
124.058
  0
LINE
  8
0
 10
141.044
 20
124.058
 11
141.188
 21
124.232
  0
LINE
  8
0
 10
141.188
 20
124.232
 11
141.353
 21
124.387
  0
LINE
  8
0
 10
141.353
 20
124.387
 11
141.536
 21
124.52
  0
LINE
  8
0
 10
141.536
 20
124.52
 11
141.734
 21
124.629
  0
LINE
  8
0
 10
141.734
 20
124.629
 11
141.944
 21
124.712
  0
LINE
  8
0
 10
141.944
 20
124.712
 11
142.163
 21
124.768
  0
LINE
  8
0
 10
142.163
 20
124.768
 11
142.387
 21
124.796
  0
LINE
  8
0
 10
142.387
 20
124.796
 11
142.613
 21
124.796
  0
LINE
  8
0
 10
142.613
 20
124.796
 11
142.837
 21
124.768
  0
LINE
  8
0
 10
142.837
 20
124.768
 11
143.056
 21
124.712
  0
LINE
  8
0
 10
143.056
 20
124.712
 11
143.266
 21
124.629
  0
LINE
  8
0
 10
143.266
 20
124.629
 11
143.464
 21
124.52
  0
LINE
  8
0
 10
143.464
 20
124.52
 11
143.647
 21
124.387
  0
LINE
  8
0
 10
143.647
 20
124.387
 11
143.812
 21
124.232
  0
LINE
  8
0
 10
143.812
 20
124.232
 11
143.956
 21
124.058
  0
LINE
  8
0
 10
143.956
 20
124.058
 11
144.077
 21
123.867
  0
LINE
  8
0
 10
144.077
 20
123.867
 11
144.174
 21
123.663
  0
LINE
  8
0
 10
144.174
 20
123.663
 11
144.243
 21
123.448
  0
LINE
  8
0
 10
144.243
 20
123.448
 11
144.286
 21
123.226
  0
LINE
  8
0
 10
144.286
 20
123.226
 11
144.3
 21
123
  0
LINE
  8
0
 10
144.3
 20
123
 11
144.286
 21
122.774
  0
LINE
  8
0
 10
144.286
 20
122.774
 11
144.243
 21
122.552
  0
LINE
  8
0
 10
144.243
 20
122.552
 11
144.174
 21
122.337
  0
LINE
  8
0
 10
144.174
 20
122.337
 11
144.077
 21
122.133
  0
LINE
  8
0
 10
144.077
 20
122.133
 11
143.956
 21
121.942
  0
LINE
  8
0
 10
143.956
 20
121.942
 11
143.812
 21
121.768
  0
LINE
  8
0
 10
143.812
 20
121.768
 11
143.647
 21
121.613
  0
LINE
  8
0
 10
143.647
 20
121.613
 11
143.464
 21
121.48
  0
LINE
  8
0
 10
143.464
 20
121.48
 11
143.266
 21
121.371
  0
LINE
  8
0
 10
143.266
 20
121.371
 11
143.056
 21
121.288
  0
LINE
  8
0
 10
143.056
 20
121.288
 11
142.837
 21
121.232
  0
LINE
  8
0
 10
142.837
 20
121.232
 11
142.613
 21
121.204
  0
LINE
  8
0
 10
142.613
 20
121.204
 11
142.387
 21
121.204
  0
LINE
  8
0
 10
-142.613
 20
121.204
 11
-142.837
 21
121.232
  0
LINE
  8
0
 10
-142.837
 20
121.232
 11
-143.056
 21
121.288
  0
LINE
  8
0
 10
-143.056
 20
121.288
 11
-143.266
 21
121.371
  0
LINE
  8
0
 10
-143.266
 20
121.371
 11
-143.464
 21
121.48
  0
LINE
  8
0
 10
-143.464
 20
121.48
 11
-143.647
 21
121.613
  0
LINE
  8
0
 10
-143.647
 20
121.613
 11
-143.812
 21
121.768
  0
LINE
  8
0
 10
-143.812
 20
121.768
 11
-143.956
 21
121.942
  0
LINE
  8
0
 10
-143.956
 20
121.942
 11
-144.077
 21
122.133
  0
LINE
  8
0
 10
-144.077
 20
122.133
 11
-144.174
 21
122.337
  0
LINE
  8
0
 10
-144.174
 20
122.337
 11
-144.243
 21
122.552
  0
LINE
  8
0
 10
-144.243
 20
122.552
 11
-144.286
 21
122.774
  0
LINE
  8
0
 10
-144.286
 20
122.774
 11
-144.3
 21
123
  0
LINE
  8
0
 10
-144.3
 20
123
 11
-144.286
 21
123.226
  0
LINE
  8
0
 10
-144.286
 20
123.226
 11
-144.243
 21
123.448
  0
LINE
  8
0
 10
-144.243
 20
123.448
 11
-144.174
 21
123.663
  0
LINE
  8
0
 10
-144.174
 20
123.663
 11
-144.077
 21
123.867
  0
LINE
  8
0
 10
-144.077
 20
123.867
 11
-143.956
 21
124.058
  0
LINE
  8
0
 10
-143.956
 20
124.058
 11
-143.812
 21
124.232
  0
LINE
  8
0
 10
-143.812
 20
124.232
 11
-143.647
 21
124.387
  0
LINE
  8
0
 10
-143.647
 20
124.387
 11
-143.464
 21
124.52
  0
LINE
  8
0
 10
-143.464
 20
124.52
 11
-143.266
 21
124.629
  0
LINE
  8
0
 10
-143.266
 20
124.629
 11
-143.056
 21
124.712
  0
LINE
  8
0
 10
-143.056
 20
124.712
 11
-142.837
 21
124.768
  0
LINE
  8
0
 10
-142.837
 20
124.768
 11
-142.613
 21
124.796
  0
LINE
  8
0
 10
-142.613
 20
124.796
 11
-142.387
 21
124.796
  0
LINE
  8
0
 10
-142.387
 20
124.796
 11
-142.163
 21
124.768
  0
LINE
  8
0
 10
-142.163
 20
124.768
 11
-141.944
 21
124.712
  0
LINE
  8
0
 10
-141.944
 20
124.712
 11
-141.734
 21
124.629
  0
LINE
  8
0
 10
-141.734
 20
124.629
 11
-141.536
 21
124.52
  0
LINE
  8
0
 10
-141.536
 20
124.52
 11
-141.353
 21
124.387
  0
LINE
  8
0
 10
-141.353
 20
124.387
 11
-141.188
 21
124.232
  0
LINE
  8
0
 10
-141.188
 20
124.232
 11
-141.044
 21
124.058
  0
LINE
  8
0
 10
-141.044
 20
124.058
 11
-140.923
 21
123.867
  0
LINE
  8
0
 10
-140.923
 20
123.867
 11
-140.826
 21
123.663
  0
LINE
  8
0
 10
-140.826
 20
123.663
 11
-140.757
 21
123.448
  0
LINE
  8
0
 10
-140.757
 20
123.448
 11
-140.714
 21
123.226
  0
LINE
  8
0
 10
-140.714
 20
123.226
 11
-140.7
 21
123
  0
LINE
  8
0
 10
-140.7
 20
123
 11
-140.714
 21
122.774
  0
LINE
  8
0
 10
-140.714
 20
122.774
 11
-140.757
 21
122.552
  0
LINE
  8
0
 10
-140.757
 20
122.552
 11
-140.826
 21
122.337
  0
LINE
  8
0
 10
-140.826
 20
122.337
 11
-140.923
 21
122.133
  0
LINE
  8
0
 10
-140.923
 20
122.133
 11
-141.044
 21
121.942
  0
LINE
  8
0
 10
-141.044
 20
121.942
 11
-141.188
 21
121.768
  0
LINE
  8
0
 10
-141.188
 20
121.768
 11
-141.353
 21
121.613
  0
LINE
  8
0
 10
-141.353
 20
121.613
 11
-141.536
 21
121.48
  0
LINE
  8
0
 10
-141.536
 20
121.48
 11
-141.734
 21
121.371
  0
LINE
  8
0
 10
-141.734
 20
121.371
 11
-141.944
 21
121.288
  0
LINE
  8
0
 10
-141.944
 20
121.288
 11
-142.163
 21
121.232
  0
LINE
  8
0
 10
-142.163
 20
121.232
 11
-142.387
 21
121.204
  0
LINE
  8
0
 10
-142.387
 20
121.204
 11
-142.613
 21
121.204
  0
LINE
  8
0
 10
-142.613
 20
91.2036
 11
-142.837
 21
91.2319
  0
LINE
  8
0
 10
-142.837
 20
91.2319
 11
-143.056
 21
91.2881
  0
LINE
  8
0
 10
-143.056
 20
91.2881
 11
-143.266
 21
91.3713
  0
LINE
  8
0
 10
-143.266
 20
91.3713
 11
-143.464
 21
91.4802
  0
LINE
  8
0
 10
-143.464
 20
91.4802
 11
-143.647
 21
91.6131
  0
LINE
  8
0
 10
-143.647
 20
91.6131
 11
-143.812
 21
91.7678
  0
LINE
  8
0
 10
-143.812
 20
91.7678
 11
-143.956
 21
91.942
  0
LINE
  8
0
 10
-143.956
 20
91.942
 11
-144.077
 21
92.1329
  0
LINE
  8
0
 10
-144.077
 20
92.1329
 11
-144.174
 21
92.3374
  0
LINE
  8
0
 10
-144.174
 20
92.3374
 11
-144.243
 21
92.5524
  0
LINE
  8
0
 10
-144.243
 20
92.5524
 11
-144.286
 21
92.7744
  0
LINE
  8
0
 10
-144.286
 20
92.7744
 11
-144.3
 21
93
  0
LINE
  8
0
 10
-144.3
 20
93
 11
-144.286
 21
93.2256
  0
LINE
  8
0
 10
-144.286
 20
93.2256
 11
-144.243
 21
93.4476
  0
LINE
  8
0
 10
-144.243
 20
93.4476
 11
-144.174
 21
93.6626
  0
LINE
  8
0
 10
-144.174
 20
93.6626
 11
-144.077
 21
93.8672
  0
LINE
  8
0
 10
-144.077
 20
93.8672
 11
-143.956
 21
94.058
  0
LINE
  8
0
 10
-143.956
 20
94.058
 11
-143.812
 21
94.2322
  0
LINE
  8
0
 10
-143.812
 20
94.2322
 11
-143.647
 21
94.3869
  0
LINE
  8
0
 10
-143.647
 20
94.3869
 11
-143.464
 21
94.5198
  0
LINE
  8
0
 10
-143.464
 20
94.5198
 11
-143.266
 21
94.6287
  0
LINE
  8
0
 10
-143.266
 20
94.6287
 11
-143.056
 21
94.7119
  0
LINE
  8
0
 10
-143.056
 20
94.7119
 11
-142.837
 21
94.7681
  0
LINE
  8
0
 10
-142.837
 20
94.7681
 11
-142.613
 21
94.7964
  0
LINE
  8
0
 10
-142.613
 20
94.7964
 11
-142.387
 21
94.7964
  0
LINE
  8
0
 10
-142.387
 20
94.7964
 11
-142.163
 21
94.7681
  0
LINE
  8
0
 10
-142.163
 20
94.7681
 11
-141.944
 21
94.7119
  0
LINE
  8
0
 10
-141.944
 20
94.7119
 11
-141.734
 21
94.6287
  0
LINE
  8
0
 10
-141.734
 20
94.6287
 11
-141.536
 21
94.5198
  0
LINE
  8
0
 10
-141.536
 20
94.5198
 11
-141.353
 21
94.3869
  0
LINE
  8
0
 10
-141.353
 20
94.3869
 11
-141.188
 21
94.2322
  0
LINE
  8
0
 10
-141.188
 20
94.2322
 11
-141.044
 21
94.058
  0
LINE
  8
0
 10
-141.044
 20
94.058
 11
-140.923
 21
93.8672
  0
LINE
  8
0
 10
-140.923
 20
93.8672
 11
-140.826
 21
93.6626
  0
LINE
  8
0
 10
-140.826
 20
93.6626
 11
-140.757
 21
93.4476
  0
LINE
  8
0
 10
-140.757
 20
93.4476
 11
-140.714
 21
93.2256
  0
LINE
  8
0
 10
-140.714
 20
93.2256
 11
-140.7
 21
93
  0
LINE
  8
0
 10
-140.7
 20
93
 11
-140.714
 21
92.7744
  0
LINE
  8
0
 10
-140.714
 20
92.7744
 11
-140.757
 21
92.5524
  0
LINE
  8
0
 10
-140.757
 20
92.5524
 11
-140.826
 21
92.3374
  0
LINE
  8
0
 10
-140.826
 20
92.3374
 11
-140.923
 21
92.1329
  0
LINE
  8
0
 10
-140.923
 20
92.1329
 11
-141.044
 21
91.942
  0
LINE
  8
0
 10
-141.044
 20
91.942
 11
-141.188
 21
91.7678
  0
LINE
  8
0
 10
-141.188
 20
91.7678
 11
-141.353
 21
91.6131
  0
LINE
  8
0
 10
-141.353
 20
91.6131
 11
-141.536
 21
91.4802
  0
LINE
  8
0
 10
-141.536
 20
91.4802
 11
-141.734
 21
91.3713
  0
LINE
  8
0
 10
-141.734
 20
91.3713
 11
-141.944
 21
91.2881
  0
LINE
  8
0
 10
-141.944
 20
91.2881
 11
-142.163
 21
91.2319
  0
LINE
  8
0
 10
-142.163
 20
91.2319
 11
-142.387
 21
91.2036
  0
LINE
  8
0
 10
-142.387
 20
91.2036
 11
-142.613
 21
91.2036
  0
LINE
  8
0
 10
142.387
 20
91.2036
 11
142.163
 21
91.2319
  0
LINE
  8
0
 10
142.163
 20
91.2319
 11
141.944
 21
91.2881
  0
LINE
  8
0
 10
141.944
 20
91.2881
 11
141.734
 21
91.3713
  0
LINE
  8
0
 10
141.734
 20
91.3713
 11
141.536
 21
91.4802
  0
LINE
  8
0
 10
141.536
 20
91.4802
 11
141.353
 21
91.6131
  0
LINE
  8
0
 10
141.353
 20
91.6131
 11
141.188
 21
91.7678
  0
LINE
  8
0
 10
141.188
 20
91.7678
 11
141.044
 21
91.942
  0
LINE
  8
0
 10
141.044
 20
91.942
 11
140.923
 21
92.1329
  0
LINE
  8
0
 10
140.923
 20
92.1329
 11
140.826
 21
92.3374
  0
LINE
  8
0
 10
140.826
 20
92.3374
 11
140.757
 21
92.5524
  0
LINE
  8
0
 10
140.757
 20
92.5524
 11
140.714
 21
92.7744
  0
LINE
  8
0
 10
140.714
 20
92.7744
 11
140.7
 21
93
  0
LINE
  8
0
 10
140.7
 20
93
 11
140.714
 21
93.2256
  0
LINE
  8
0
 10
140.714
 20
93.2256
 11
140.757
 21
93.4476
  0
LINE
  8
0
 10
140.757
 20
93.4476
 11
140.826
 21
93.6626
  0
LINE
  8
0
 10
140.826
 20
93.6626
 11
140.923
 21
93.8672
  0
LINE
  8
0
 10
140.923
 20
93.8672
 11
141.044
 21
94.058
  0
LINE
  8
0
 10
141.044
 20
94.058
 11
141.188
 21
94.2322
  0
LINE
  8
0
 10
141.188
 20
94.2322
 11
141.353
 21
94.3869
  0
LINE
  8
0
 10
141.353
 20
94.3869
 11
141.536
 21
94.5198
  0
LINE
  8
0
 10
141.536
 20
94.5198
 11
141.734
 21
94.6287
  0
LINE
  8
0
 10
141.734
 20
94.6287
 11
141.944
 21
94.7119
  0
LINE
  8
0
 10
141.944
 20
94.7119
 11
142.163
 21
94.7681
  0
LINE
  8
0
 10
142.163
 20
94.7681
 11
142.387
 21
94.7964
  0
LINE
  8
0
 10
142.387
 20
94.7964
 11
142.613
 21
94.7964
  0
LINE
  8
0
 10
142.613
 20
94.7964
 11
142.837
 21
94.7681
  0
LINE
  8
0
 10
142.837
 20
94.7681
 11
143.056
 21
94.7119
  0
LINE
  8
0
 10
143.056
 20
94.7119
 11
143.266
 21
94.6287
  0
LINE
  8
0
 10
143.266
 20
94.6287
 11
143.464
 21
94.5198
  0
LINE
  8
0
 10
143.464
 20
94.5198
 11
143.647
 21
94.3869
  0
LINE
  8
0
 10
143.647
 20
94.3869
 11
143.812
 21
94.2322
  0
LINE
  8
0
 10
143.812
 20
94.2322
 11
143.956
 21
94.058
  0
LINE
  8
0
 10
143.956
 20
94.058
 11
144.077
 21
93.8672
  0
LINE
  8
0
 10
144.077
 20
93.8672
 11
144.174
 21
93.6626
  0
LINE
  8
0
 10
144.174
 20
93.6626
 11
144.243
 21
93.4476
  0
LINE
  8
0
 10
144.243
 20
93.4476
 11
144.286
 21
93.2256
  0
LINE
  8
0
 10
144.286
 20
93.2256
 11
144.3
 21
93
  0
LINE
  8
0
 10
144.3
 20
93
 11
144.286
 21
92.7744
  0
LINE
  8
0
 10
144.286
 20
92.7744
 11
144.243
 21
92.5524
  0
LINE
  8
0
 10
144.243
 20
92.5524
 11
144.174
 21
92.3374
  0
LINE
  8
0
 10
144.174
 20
92.3374
 11
144.077
 21
92.1329
  0
LINE
  8
0
 10
144.077
 20
92.1329
 11
143.956
 21
91.942
  0
LINE
  8
0
 10
143.956
 20
91.942
 11
143.812
 21
91.7678
  0
LINE
  8
0
 10
143.812
 20
91.7678
 11
143.647
 21
91.6131
  0
LINE
  8
0
 10
143.647
 20
91.6131
 11
143.464
 21
91.4802
  0
LINE
  8
0
 10
143.464
 20
91.4802
 11
143.266
 21
91.3713
  0
LINE
  8
0
 10
143.266
 20
91.3713
 11
143.056
 21
91.2881
  0
LINE
  8
0
 10
143.056
 20
91.2881
 11
142.837
 21
91.2319
  0
LINE
  8
0
 10
142.837
 20
91.2319
 11
142.613
 21
91.2036
  0
LINE
  8
0
 10
142.613
 20
91.2036
 11
142.387
 21
91.2036
  0
ENDSEC
  0
SECTION
  2
OBJECTS
  0
DICTIONARY
  0
ENDSEC
  0
EOF
