<?xml version="1.0" standalone="no"?>
<!DOCTYPE svg PUBLIC "-//W3C//DTD SVG 1.1//EN" "http://www.w3.org/Graphics/SVG/1.1/DTD/svg11.dtd">
<svg width="242mm" height="147mm" viewBox="-122 -288 242 147" xmlns="http://www.w3.org/2000/svg" version="1.1">
<title>OpenSCAD Model</title>
<path d="
M -118.5,-259.441 L -118.187,-259.147 L -117.679,-258.778 L -117.129,-258.476 L -116.545,-258.245 L -115.937,-258.089
 L -115.314,-258.01 L 115.314,-258.01 L 115.937,-258.089 L 116.545,-258.245 L 117.129,-258.476 L 117.679,-258.778
 L 118.187,-259.147 L 118.645,-259.577 L 119.045,-260.061 L 119.382,-260.591 L 119.649,-261.159 L 119.843,-261.757
 L 119.961,-262.373 L 120,-263 L 120,-283 L 119.961,-283.627 L 119.843,-284.243 L 119.649,-284.841
 L 119.382,-285.409 L 119.045,-285.939 L 118.645,-286.423 L 118.187,-286.853 L 117.679,-287.222 L 117.129,-287.524
 L 116.545,-287.755 L 115.937,-287.911 L 115.314,-287.99 L -115.314,-287.99 L -115.937,-287.911 L -116.545,-287.755
 L -117.129,-287.524 L -117.679,-287.222 L -118.187,-286.853 L -118.5,-286.559 L -118.5,-287.99 L -121.5,-287.99
 L -121.5,-258.01 L -118.5,-258.01 z
M -114.751,-259.508 L -115.25,-259.571 L -115.736,-259.696 L -116.203,-259.881 L -116.643,-260.123 L -117.05,-260.418
 L -117.416,-260.762 L -117.736,-261.149 L -118.005,-261.573 L -118.219,-262.028 L -118.374,-262.505 L -118.468,-262.999
 L -118.5,-263.5 L -118.5,-282.5 L -118.468,-283.001 L -118.374,-283.495 L -118.219,-283.972 L -118.005,-284.427
 L -117.736,-284.851 L -117.416,-285.238 L -117.05,-285.582 L -116.643,-285.877 L -116.203,-286.119 L -115.736,-286.304
 L -115.25,-286.429 L -114.751,-286.492 L 114.751,-286.492 L 115.25,-286.429 L 115.736,-286.304 L 116.203,-286.119
 L 116.643,-285.877 L 117.05,-285.582 L 117.416,-285.238 L 117.736,-284.851 L 118.005,-284.427 L 118.219,-283.972
 L 118.374,-283.495 L 118.468,-283.001 L 118.5,-282.5 L 118.5,-263.5 L 118.468,-262.999 L 118.374,-262.505
 L 118.219,-262.028 L 118.005,-261.573 L 117.736,-261.149 L 117.416,-260.762 L 117.05,-260.418 L 116.643,-260.123
 L 116.203,-259.881 L 115.736,-259.696 L 115.25,-259.571 L 114.751,-259.508 z
M -118.5,-220.441 L -118.187,-220.147 L -117.679,-219.778 L -117.129,-219.476 L -116.545,-219.245 L -115.937,-219.089
 L -115.314,-219.01 L 115.314,-219.01 L 115.937,-219.089 L 116.545,-219.245 L 117.129,-219.476 L 117.679,-219.778
 L 118.187,-220.147 L 118.645,-220.577 L 119.045,-221.061 L 119.382,-221.591 L 119.649,-222.159 L 119.843,-222.757
 L 119.961,-223.373 L 120,-224 L 120,-244 L 119.961,-244.627 L 119.843,-245.243 L 119.649,-245.841
 L 119.382,-246.409 L 119.045,-246.939 L 118.645,-247.423 L 118.187,-247.853 L 117.679,-248.222 L 117.129,-248.524
 L 116.545,-248.755 L 115.937,-248.911 L 115.314,-248.99 L -115.314,-248.99 L -115.937,-248.911 L -116.545,-248.755
 L -117.129,-248.524 L -117.679,-248.222 L -118.187,-247.853 L -118.5,-247.559 L -118.5,-248.99 L -121.5,-248.99
 L -121.5,-219.01 L -118.5,-219.01 z
M -114.751,-220.508 L -115.25,-220.571 L -115.736,-220.696 L -116.203,-220.881 L -116.643,-221.123 L -117.05,-221.418
 L -117.416,-221.762 L -117.736,-222.149 L -118.005,-222.573 L -118.219,-223.028 L -118.374,-223.505 L -118.468,-223.999
 L -118.5,-224.5 L -118.5,-243.5 L -118.468,-244.001 L -118.374,-244.495 L -118.219,-244.972 L -118.005,-245.427
 L -117.736,-245.851 L -117.416,-246.238 L -117.05,-246.582 L -116.643,-246.877 L -116.203,-247.119 L -115.736,-247.304
 L -115.25,-247.429 L -114.751,-247.492 L 114.751,-247.492 L 115.25,-247.429 L 115.736,-247.304 L 116.203,-247.119
 L 116.643,-246.877 L 117.05,-246.582 L 117.416,-246.238 L 117.736,-245.851 L 118.005,-245.427 L 118.219,-244.972
 L 118.374,-244.495 L 118.468,-244.001 L 118.5,-243.5 L 118.5,-224.5 L 118.468,-223.999 L 118.374,-223.505
 L 118.219,-223.028 L 118.005,-222.573 L 117.736,-222.149 L 117.416,-221.762 L 117.05,-221.418 L 116.643,-221.123
 L 116.203,-220.881 L 115.736,-220.696 L 115.25,-220.571 L 114.751,-220.508 z
M 115.937,-180.089 L 116.545,-180.245 L 117.129,-180.476 L 117.679,-180.778 L 118.187,-181.147 L 118.645,-181.577
 L 119.045,-182.061 L 119.382,-182.591 L 119.649,-183.159 L 119.843,-183.757 L 119.961,-184.373 L 120,-185
 L 120,-205 L 119.961,-205.627 L 119.843,-206.243 L 119.649,-206.841 L 119.382,-207.409 L 119.045,-207.939
 L 118.645,-208.423 L 118.187,-208.853 L 117.679,-209.222 L 117.129,-209.524 L 116.545,-209.755 L 115.937,-209.911
 L 115.314,-209.99 L -115.314,-209.99 L -115.937,-209.911 L -116.545,-209.755 L -117.129,-209.524 L -117.679,-209.222
 L -118.187,-208.853 L -118.5,-208.559 L -118.5,-209.979 L -121.5,-209.979 L -121.5,-180.021 L -118.5,-180.021
 L -118.5,-181.441 L -118.187,-181.147 L -117.679,-180.778 L -117.129,-180.476 L -116.545,-180.245 L -115.937,-180.089
 L -115.314,-180.01 L 115.314,-180.01 z
M -114.695,-182.393 L -115.083,-182.442 L -115.462,-182.539 L -115.825,-182.683 L -116.168,-182.872 L -116.484,-183.101
 L -116.769,-183.369 L -117.018,-183.67 L -117.228,-184 L -117.394,-184.354 L -117.515,-184.726 L -117.588,-185.11
 L -117.613,-185.5 L -117.613,-204.5 L -117.588,-204.89 L -117.515,-205.274 L -117.394,-205.646 L -117.228,-206
 L -117.018,-206.33 L -116.769,-206.631 L -116.484,-206.899 L -116.168,-207.128 L -115.825,-207.317 L -115.462,-207.461
 L -115.083,-207.558 L -114.695,-207.607 L 114.695,-207.607 L 115.083,-207.558 L 115.462,-207.461 L 115.825,-207.317
 L 116.168,-207.128 L 116.484,-206.899 L 116.769,-206.631 L 117.018,-206.33 L 117.228,-206 L 117.394,-205.646
 L 117.515,-205.274 L 117.588,-204.89 L 117.613,-204.5 L 117.613,-185.5 L 117.588,-185.11 L 117.515,-184.726
 L 117.394,-184.354 L 117.228,-184 L 117.018,-183.67 L 116.769,-183.369 L 116.484,-183.101 L 116.168,-182.872
 L 115.825,-182.683 L 115.462,-182.539 L 115.083,-182.442 L 114.695,-182.393 z
M 115.937,-141.089 L 116.545,-141.245 L 117.129,-141.476 L 117.679,-141.778 L 118.187,-142.147 L 118.645,-142.577
 L 119.045,-143.061 L 119.382,-143.591 L 119.649,-144.159 L 119.843,-144.757 L 119.961,-145.373 L 120,-146
 L 120,-166 L 119.961,-166.627 L 119.843,-167.243 L 119.649,-167.841 L 119.382,-168.409 L 119.045,-168.939
 L 118.645,-169.423 L 118.187,-169.853 L 117.679,-170.222 L 117.129,-170.524 L 116.545,-170.755 L 115.937,-170.911
 L 115.314,-170.99 L -115.314,-170.99 L -115.937,-170.911 L -116.545,-170.755 L -117.129,-170.524 L -117.679,-170.222
 L -118.187,-169.853 L -118.5,-169.559 L -118.5,-169.653 L -121.5,-169.653 L -121.5,-142.347 L -118.5,-142.347
 L -118.5,-142.441 L -118.187,-142.147 L -117.679,-141.778 L -117.129,-141.476 L -116.545,-141.245 L -115.937,-141.089
 L -115.314,-141.01 L 115.314,-141.01 z
M -112.634,-161.369 L -112.9,-161.403 L -113.16,-161.469 L -113.409,-161.568 L -113.644,-161.697 L -113.861,-161.855
 L -114.057,-162.038 L -114.227,-162.245 L -114.371,-162.471 L -114.485,-162.714 L -114.568,-162.969 L -114.618,-163.232
 L -114.635,-163.5 L -114.618,-163.768 L -114.568,-164.031 L -114.485,-164.286 L -114.371,-164.529 L -114.227,-164.755
 L -114.057,-164.962 L -113.861,-165.145 L -113.644,-165.303 L -113.409,-165.432 L -113.16,-165.531 L -112.9,-165.597
 L -112.634,-165.631 L -112.366,-165.631 L -112.1,-165.597 L -111.84,-165.531 L -111.591,-165.432 L -111.356,-165.303
 L -111.139,-165.145 L -110.943,-164.962 L -110.773,-164.755 L -110.629,-164.529 L -110.515,-164.286 L -110.432,-164.031
 L -110.382,-163.768 L -110.365,-163.5 L -110.382,-163.232 L -110.432,-162.969 L -110.515,-162.714 L -110.629,-162.471
 L -110.773,-162.245 L -110.943,-162.038 L -111.139,-161.855 L -111.356,-161.697 L -111.591,-161.568 L -111.84,-161.469
 L -112.1,-161.403 L -112.366,-161.369 z
M 112.366,-161.369 L 112.1,-161.403 L 111.84,-161.469 L 111.591,-161.568 L 111.356,-161.697 L 111.139,-161.855
 L 110.943,-162.038 L 110.773,-162.245 L 110.629,-162.471 L 110.515,-162.714 L 110.432,-162.969 L 110.382,-163.232
 L 110.365,-163.5 L 110.382,-163.768 L 110.432,-164.031 L 110.515,-164.286 L 110.629,-164.529 L 110.773,-164.755
 L 110.943,-164.962 L 111.139,-165.145 L 111.356,-165.303 L 111.591,-165.432 L 111.84,-165.531 L 112.1,-165.597
 L 112.366,-165.631 L 112.634,-165.631 L 112.9,-165.597 L 113.16,-165.531 L 113.409,-165.432 L 113.644,-165.303
 L 113.861,-165.145 L 114.057,-164.962 L 114.227,-164.755 L 114.371,-164.529 L 114.485,-164.286 L 114.568,-164.031
 L 114.618,-163.768 L 114.635,-163.5 L 114.618,-163.232 L 114.568,-162.969 L 114.485,-162.714 L 114.371,-162.471
 L 114.227,-162.245 L 114.057,-162.038 L 113.861,-161.855 L 113.644,-161.697 L 113.409,-161.568 L 113.16,-161.469
 L 112.9,-161.403 L 112.634,-161.369 z
M -112.634,-146.369 L -112.9,-146.403 L -113.16,-146.469 L -113.409,-146.568 L -113.644,-146.697 L -113.861,-146.855
 L -114.057,-147.038 L -114.227,-147.245 L -114.371,-147.471 L -114.485,-147.714 L -114.568,-147.969 L -114.618,-148.232
 L -114.635,-148.5 L -114.618,-148.768 L -114.568,-149.031 L -114.485,-149.286 L -114.371,-149.529 L -114.227,-149.755
 L -114.057,-149.962 L -113.861,-150.145 L -113.644,-150.303 L -113.409,-150.432 L -113.16,-150.531 L -112.9,-150.597
 L -112.634,-150.631 L -112.366,-150.631 L -112.1,-150.597 L -111.84,-150.531 L -111.591,-150.432 L -111.356,-150.303
 L -111.139,-150.145 L -110.943,-149.962 L -110.773,-149.755 L -110.629,-149.529 L -110.515,-149.286 L -110.432,-149.031
 L -110.382,-148.768 L -110.365,-148.5 L -110.382,-148.232 L -110.432,-147.969 L -110.515,-147.714 L -110.629,-147.471
 L -110.773,-147.245 L -110.943,-147.038 L -111.139,-146.855 L -111.356,-146.697 L -111.591,-146.568 L -111.84,-146.469
 L -112.1,-146.403 L -112.366,-146.369 z
M 112.366,-146.369 L 112.1,-146.403 L 111.84,-146.469 L 111.591,-146.568 L 111.356,-146.697 L 111.139,-146.855
 L 110.943,-147.038 L 110.773,-147.245 L 110.629,-147.471 L 110.515,-147.714 L 110.432,-147.969 L 110.382,-148.232
 L 110.365,-148.5 L 110.382,-148.768 L 110.432,-149.031 L 110.515,-149.286 L 110.629,-149.529 L 110.773,-149.755
 L 110.943,-149.962 L 111.139,-150.145 L 111.356,-150.303 L 111.591,-150.432 L 111.84,-150.531 L 112.1,-150.597
 L 112.366,-150.631 L 112.634,-150.631 L 112.9,-150.597 L 113.16,-150.531 L 113.409,-150.432 L 113.644,-150.303
 L 113.861,-150.145 L 114.057,-149.962 L 114.227,-149.755 L 114.371,-149.529 L 114.485,-149.286 L 114.568,-149.031
 L 114.618,-148.768 L 114.635,-148.5 L 114.618,-148.232 L 114.568,-147.969 L 114.485,-147.714 L 114.371,-147.471
 L 114.227,-147.245 L 114.057,-147.038 L 113.861,-146.855 L 113.644,-146.697 L 113.409,-146.568 L 113.16,-146.469
 L 112.9,-146.403 L 112.634,-146.369 z
" stroke="black" fill="lightgray" stroke-width="0.5"/>
</svg>
