<?xml version="1.0" standalone="no"?>
<!DOCTYPE svg PUBLIC "-//W3C//DTD SVG 1.1//EN" "http://www.w3.org/Graphics/SVG/1.1/DTD/svg11.dtd">
<svg width="302mm" height="400mm" viewBox="-152 -506 302 400" xmlns="http://www.w3.org/2000/svg" version="1.1">
<title>OpenSCAD Model</title>
<path d="
M 145.937,-310.589 L 146.545,-310.745 L 147.129,-310.976 L 147.679,-311.278 L 148.187,-311.647 L 148.645,-312.077
 L 149.045,-312.561 L 149.382,-313.091 L 149.649,-313.659 L 149.843,-314.257 L 149.961,-314.873 L 150,-315.5
 L 150,-500.5 L 149.961,-501.127 L 149.843,-501.743 L 149.649,-502.341 L 149.382,-502.909 L 149.045,-503.439
 L 148.645,-503.923 L 148.187,-504.353 L 147.679,-504.722 L 147.129,-505.024 L 146.545,-505.255 L 145.937,-505.411
 L 145.314,-505.49 L -145.314,-505.49 L -145.937,-505.411 L -146.545,-505.255 L -147.129,-505.024 L -147.679,-504.722
 L -148.187,-504.353 L -148.5,-504.059 L -148.5,-505.115 L -151.5,-505.115 L -151.5,-310.885 L -148.5,-310.885
 L -148.5,-311.941 L -148.187,-311.647 L -147.679,-311.278 L -147.129,-310.976 L -146.545,-310.745 L -145.937,-310.589
 L -145.314,-310.51 L 145.314,-310.51 z
M -142.651,-495.605 L -142.95,-495.643 L -143.242,-495.717 L -143.522,-495.828 L -143.786,-495.974 L -144.03,-496.151
 L -144.25,-496.357 L -144.442,-496.589 L -144.603,-496.844 L -144.731,-497.117 L -144.825,-497.403 L -144.881,-497.699
 L -144.9,-498 L -144.881,-498.301 L -144.825,-498.597 L -144.731,-498.883 L -144.603,-499.156 L -144.442,-499.411
 L -144.25,-499.643 L -144.03,-499.849 L -143.786,-500.026 L -143.522,-500.172 L -143.242,-500.283 L -142.95,-500.357
 L -142.651,-500.395 L -142.349,-500.395 L -142.05,-500.357 L -141.758,-500.283 L -141.478,-500.172 L -141.214,-500.026
 L -140.97,-499.849 L -140.75,-499.643 L -140.558,-499.411 L -140.397,-499.156 L -140.269,-498.883 L -140.175,-498.597
 L -140.119,-498.301 L -140.1,-498 L -140.119,-497.699 L -140.175,-497.403 L -140.269,-497.117 L -140.397,-496.844
 L -140.558,-496.589 L -140.75,-496.357 L -140.97,-496.151 L -141.214,-495.974 L -141.478,-495.828 L -141.758,-495.717
 L -142.05,-495.643 L -142.349,-495.605 z
M 142.349,-495.605 L 142.05,-495.643 L 141.758,-495.717 L 141.478,-495.828 L 141.214,-495.974 L 140.97,-496.151
 L 140.75,-496.357 L 140.558,-496.589 L 140.397,-496.844 L 140.269,-497.117 L 140.175,-497.403 L 140.119,-497.699
 L 140.1,-498 L 140.119,-498.301 L 140.175,-498.597 L 140.269,-498.883 L 140.397,-499.156 L 140.558,-499.411
 L 140.75,-499.643 L 140.97,-499.849 L 141.214,-500.026 L 141.478,-500.172 L 141.758,-500.283 L 142.05,-500.357
 L 142.349,-500.395 L 142.651,-500.395 L 142.95,-500.357 L 143.242,-500.283 L 143.522,-500.172 L 143.786,-500.026
 L 144.03,-499.849 L 144.25,-499.643 L 144.442,-499.411 L 144.603,-499.156 L 144.731,-498.883 L 144.825,-498.597
 L 144.881,-498.301 L 144.9,-498 L 144.881,-497.699 L 144.825,-497.403 L 144.731,-497.117 L 144.603,-496.844
 L 144.442,-496.589 L 144.25,-496.357 L 144.03,-496.151 L 143.786,-495.974 L 143.522,-495.828 L 143.242,-495.717
 L 142.95,-495.643 L 142.651,-495.605 z
M 142.349,-315.605 L 142.05,-315.643 L 141.758,-315.717 L 141.478,-315.828 L 141.214,-315.974 L 140.97,-316.151
 L 140.75,-316.357 L 140.558,-316.589 L 140.397,-316.844 L 140.269,-317.117 L 140.175,-317.403 L 140.119,-317.699
 L 140.1,-318 L 140.119,-318.301 L 140.175,-318.597 L 140.269,-318.883 L 140.397,-319.156 L 140.558,-319.411
 L 140.75,-319.643 L 140.97,-319.849 L 141.214,-320.026 L 141.478,-320.172 L 141.758,-320.283 L 142.05,-320.357
 L 142.349,-320.395 L 142.651,-320.395 L 142.95,-320.357 L 143.242,-320.283 L 143.522,-320.172 L 143.786,-320.026
 L 144.03,-319.849 L 144.25,-319.643 L 144.442,-319.411 L 144.603,-319.156 L 144.731,-318.883 L 144.825,-318.597
 L 144.881,-318.301 L 144.9,-318 L 144.881,-317.699 L 144.825,-317.403 L 144.731,-317.117 L 144.603,-316.844
 L 144.442,-316.589 L 144.25,-316.357 L 144.03,-316.151 L 143.786,-315.974 L 143.522,-315.828 L 143.242,-315.717
 L 142.95,-315.643 L 142.651,-315.605 z
M -142.651,-315.605 L -142.95,-315.643 L -143.242,-315.717 L -143.522,-315.828 L -143.786,-315.974 L -144.03,-316.151
 L -144.25,-316.357 L -144.442,-316.589 L -144.603,-316.844 L -144.731,-317.117 L -144.825,-317.403 L -144.881,-317.699
 L -144.9,-318 L -144.881,-318.301 L -144.825,-318.597 L -144.731,-318.883 L -144.603,-319.156 L -144.442,-319.411
 L -144.25,-319.643 L -144.03,-319.849 L -143.786,-320.026 L -143.522,-320.172 L -143.242,-320.283 L -142.95,-320.357
 L -142.651,-320.395 L -142.349,-320.395 L -142.05,-320.357 L -141.758,-320.283 L -141.478,-320.172 L -141.214,-320.026
 L -140.97,-319.849 L -140.75,-319.643 L -140.558,-319.411 L -140.397,-319.156 L -140.269,-318.883 L -140.175,-318.597
 L -140.119,-318.301 L -140.1,-318 L -140.119,-317.699 L -140.175,-317.403 L -140.269,-317.117 L -140.397,-316.844
 L -140.558,-316.589 L -140.75,-316.357 L -140.97,-316.151 L -141.214,-315.974 L -141.478,-315.828 L -141.758,-315.717
 L -142.05,-315.643 L -142.349,-315.605 z
M 145.937,-106.589 L 146.545,-106.745 L 147.129,-106.976 L 147.679,-107.278 L 148.187,-107.647 L 148.645,-108.077
 L 149.045,-108.561 L 149.382,-109.091 L 149.649,-109.659 L 149.843,-110.257 L 149.961,-110.873 L 150,-111.5
 L 150,-296.5 L 149.961,-297.127 L 149.843,-297.743 L 149.649,-298.341 L 149.382,-298.909 L 149.045,-299.439
 L 148.645,-299.923 L 148.187,-300.353 L 147.679,-300.722 L 147.129,-301.024 L 146.545,-301.255 L 145.937,-301.411
 L 145.314,-301.49 L -145.314,-301.49 L -145.937,-301.411 L -146.545,-301.255 L -147.129,-301.024 L -147.679,-300.722
 L -148.187,-300.353 L -148.645,-299.923 L -149.045,-299.439 L -149.382,-298.909 L -149.649,-298.341 L -149.843,-297.743
 L -149.9,-297.444 L -151.5,-297.444 L -151.5,-110.556 L -149.9,-110.556 L -149.843,-110.257 L -149.649,-109.659
 L -149.382,-109.091 L -149.045,-108.561 L -148.645,-108.077 L -148.187,-107.647 L -147.679,-107.278 L -147.129,-106.976
 L -146.545,-106.745 L -145.937,-106.589 L -145.314,-106.51 L 145.314,-106.51 z
M 142.387,-292.204 L 142.163,-292.232 L 141.944,-292.288 L 141.734,-292.371 L 141.536,-292.48 L 141.353,-292.613
 L 141.188,-292.768 L 141.044,-292.942 L 140.923,-293.133 L 140.826,-293.337 L 140.757,-293.552 L 140.714,-293.774
 L 140.7,-294 L 140.714,-294.226 L 140.757,-294.448 L 140.826,-294.663 L 140.923,-294.867 L 141.044,-295.058
 L 141.188,-295.232 L 141.353,-295.387 L 141.536,-295.52 L 141.734,-295.629 L 141.944,-295.712 L 142.163,-295.768
 L 142.387,-295.796 L 142.613,-295.796 L 142.837,-295.768 L 143.056,-295.712 L 143.266,-295.629 L 143.464,-295.52
 L 143.647,-295.387 L 143.812,-295.232 L 143.956,-295.058 L 144.077,-294.867 L 144.174,-294.663 L 144.243,-294.448
 L 144.286,-294.226 L 144.3,-294 L 144.286,-293.774 L 144.243,-293.552 L 144.174,-293.337 L 144.077,-293.133
 L 143.956,-292.942 L 143.812,-292.768 L 143.647,-292.613 L 143.464,-292.48 L 143.266,-292.371 L 143.056,-292.288
 L 142.837,-292.232 L 142.613,-292.204 z
M -142.613,-292.204 L -142.837,-292.232 L -143.056,-292.288 L -143.266,-292.371 L -143.464,-292.48 L -143.647,-292.613
 L -143.812,-292.768 L -143.956,-292.942 L -144.077,-293.133 L -144.174,-293.337 L -144.243,-293.552 L -144.286,-293.774
 L -144.3,-294 L -144.286,-294.226 L -144.243,-294.448 L -144.174,-294.663 L -144.077,-294.867 L -143.956,-295.058
 L -143.812,-295.232 L -143.647,-295.387 L -143.464,-295.52 L -143.266,-295.629 L -143.056,-295.712 L -142.837,-295.768
 L -142.613,-295.796 L -142.387,-295.796 L -142.163,-295.768 L -141.944,-295.712 L -141.734,-295.629 L -141.536,-295.52
 L -141.353,-295.387 L -141.188,-295.232 L -141.044,-295.058 L -140.923,-294.867 L -140.826,-294.663 L -140.757,-294.448
 L -140.714,-294.226 L -140.7,-294 L -140.714,-293.774 L -140.757,-293.552 L -140.826,-293.337 L -140.923,-293.133
 L -141.044,-292.942 L -141.188,-292.768 L -141.353,-292.613 L -141.536,-292.48 L -141.734,-292.371 L -141.944,-292.288
 L -142.163,-292.232 L -142.387,-292.204 z
M 142.387,-112.204 L 142.163,-112.232 L 141.944,-112.288 L 141.734,-112.371 L 141.536,-112.48 L 141.353,-112.613
 L 141.188,-112.768 L 141.044,-112.942 L 140.923,-113.133 L 140.826,-113.337 L 140.757,-113.552 L 140.714,-113.774
 L 140.7,-114 L 140.714,-114.226 L 140.757,-114.448 L 140.826,-114.663 L 140.923,-114.867 L 141.044,-115.058
 L 141.188,-115.232 L 141.353,-115.387 L 141.536,-115.52 L 141.734,-115.629 L 141.944,-115.712 L 142.163,-115.768
 L 142.387,-115.796 L 142.613,-115.796 L 142.837,-115.768 L 143.056,-115.712 L 143.266,-115.629 L 143.464,-115.52
 L 143.647,-115.387 L 143.812,-115.232 L 143.956,-115.058 L 144.077,-114.867 L 144.174,-114.663 L 144.243,-114.448
 L 144.286,-114.226 L 144.3,-114 L 144.286,-113.774 L 144.243,-113.552 L 144.174,-113.337 L 144.077,-113.133
 L 143.956,-112.942 L 143.812,-112.768 L 143.647,-112.613 L 143.464,-112.48 L 143.266,-112.371 L 143.056,-112.288
 L 142.837,-112.232 L 142.613,-112.204 z
M -142.613,-112.204 L -142.837,-112.232 L -143.056,-112.288 L -143.266,-112.371 L -143.464,-112.48 L -143.647,-112.613
 L -143.812,-112.768 L -143.956,-112.942 L -144.077,-113.133 L -144.174,-113.337 L -144.243,-113.552 L -144.286,-113.774
 L -144.3,-114 L -144.286,-114.226 L -144.243,-114.448 L -144.174,-114.663 L -144.077,-114.867 L -143.956,-115.058
 L -143.812,-115.232 L -143.647,-115.387 L -143.464,-115.52 L -143.266,-115.629 L -143.056,-115.712 L -142.837,-115.768
 L -142.613,-115.796 L -142.387,-115.796 L -142.163,-115.768 L -141.944,-115.712 L -141.734,-115.629 L -141.536,-115.52
 L -141.353,-115.387 L -141.188,-115.232 L -141.044,-115.058 L -140.923,-114.867 L -140.826,-114.663 L -140.757,-114.448
 L -140.714,-114.226 L -140.7,-114 L -140.714,-113.774 L -140.757,-113.552 L -140.826,-113.337 L -140.923,-113.133
 L -141.044,-112.942 L -141.188,-112.768 L -141.353,-112.613 L -141.536,-112.48 L -141.734,-112.371 L -141.944,-112.288
 L -142.163,-112.232 L -142.387,-112.204 z
" stroke="black" fill="lightgray" stroke-width="0.5"/>
</svg>
