<?xml version="1.0" standalone="no"?>
<!DOCTYPE svg PUBLIC "-//W3C//DTD SVG 1.1//EN" "http://www.w3.org/Graphics/SVG/1.1/DTD/svg11.dtd">
<svg width="287mm" height="288mm" viewBox="-144 -540 287 288" xmlns="http://www.w3.org/2000/svg" version="1.1">
<title>OpenSCAD Model</title>
<path d="
M -141,-451.441 L -140.687,-451.147 L -140.179,-450.778 L -139.629,-450.476 L -139.045,-450.245 L -138.437,-450.089
 L -137.814,-450.01 L 137.814,-450.01 L 138.437,-450.089 L 139.045,-450.245 L 139.629,-450.476 L 140.179,-450.778
 L 140.687,-451.147 L 141.145,-451.577 L 141.545,-452.061 L 141.882,-452.591 L 142.149,-453.159 L 142.343,-453.757
 L 142.461,-454.373 L 142.5,-455 L 142.5,-535 L 142.461,-535.627 L 142.343,-536.243 L 142.149,-536.841
 L 141.882,-537.409 L 141.545,-537.939 L 141.145,-538.423 L 140.687,-538.853 L 140.179,-539.222 L 139.629,-539.524
 L 139.045,-539.755 L 138.437,-539.911 L 137.814,-539.99 L -137.814,-539.99 L -138.437,-539.911 L -139.045,-539.755
 L -139.629,-539.524 L -140.179,-539.222 L -140.687,-538.853 L -141,-538.559 L -141,-539.99 L -144,-539.99
 L -144,-450.01 L -141,-450.01 z
M -137.251,-451.508 L -137.75,-451.571 L -138.236,-451.696 L -138.703,-451.881 L -139.143,-452.123 L -139.55,-452.418
 L -139.916,-452.762 L -140.236,-453.149 L -140.505,-453.573 L -140.719,-454.028 L -140.874,-454.505 L -140.968,-454.999
 L -141,-455.5 L -141,-534.5 L -140.968,-535.001 L -140.874,-535.495 L -140.719,-535.972 L -140.505,-536.427
 L -140.236,-536.851 L -139.916,-537.238 L -139.55,-537.582 L -139.143,-537.877 L -138.703,-538.119 L -138.236,-538.304
 L -137.75,-538.429 L -137.251,-538.492 L 137.251,-538.492 L 137.75,-538.429 L 138.236,-538.304 L 138.703,-538.119
 L 139.143,-537.877 L 139.55,-537.582 L 139.916,-537.238 L 140.236,-536.851 L 140.505,-536.427 L 140.719,-535.972
 L 140.874,-535.495 L 140.968,-535.001 L 141,-534.5 L 141,-455.5 L 140.968,-454.999 L 140.874,-454.505
 L 140.719,-454.028 L 140.505,-453.573 L 140.236,-453.149 L 139.916,-452.762 L 139.55,-452.418 L 139.143,-452.123
 L 138.703,-451.881 L 138.236,-451.696 L 137.75,-451.571 L 137.251,-451.508 z
M 138.437,-351.089 L 139.045,-351.245 L 139.629,-351.476 L 140.179,-351.778 L 140.687,-352.147 L 141.145,-352.577
 L 141.545,-353.061 L 141.882,-353.591 L 142.149,-354.159 L 142.343,-354.757 L 142.461,-355.373 L 142.5,-356
 L 142.5,-436 L 142.461,-436.627 L 142.343,-437.243 L 142.149,-437.841 L 141.882,-438.409 L 141.545,-438.939
 L 141.145,-439.423 L 140.687,-439.853 L 140.179,-440.222 L 139.629,-440.524 L 139.045,-440.755 L 138.437,-440.911
 L 137.814,-440.99 L -137.814,-440.99 L -138.437,-440.911 L -139.045,-440.755 L -139.629,-440.524 L -140.179,-440.222
 L -140.687,-439.853 L -141,-439.559 L -141,-440.979 L -144,-440.979 L -144,-351.021 L -141,-351.021
 L -141,-352.441 L -140.687,-352.147 L -140.179,-351.778 L -139.629,-351.476 L -139.045,-351.245 L -138.437,-351.089
 L -137.814,-351.01 L 137.814,-351.01 z
M -137.195,-353.393 L -137.583,-353.442 L -137.962,-353.539 L -138.325,-353.683 L -138.668,-353.872 L -138.984,-354.101
 L -139.269,-354.369 L -139.518,-354.67 L -139.728,-355 L -139.894,-355.354 L -140.015,-355.726 L -140.088,-356.11
 L -140.113,-356.5 L -140.113,-435.5 L -140.088,-435.89 L -140.015,-436.274 L -139.894,-436.646 L -139.728,-437
 L -139.518,-437.33 L -139.269,-437.631 L -138.984,-437.899 L -138.668,-438.128 L -138.325,-438.317 L -137.962,-438.461
 L -137.583,-438.558 L -137.195,-438.607 L 137.195,-438.607 L 137.583,-438.558 L 137.962,-438.461 L 138.325,-438.317
 L 138.668,-438.128 L 138.984,-437.899 L 139.269,-437.631 L 139.518,-437.33 L 139.728,-437 L 139.894,-436.646
 L 140.015,-436.274 L 140.088,-435.89 L 140.113,-435.5 L 140.113,-356.5 L 140.088,-356.11 L 140.015,-355.726
 L 139.894,-355.354 L 139.728,-355 L 139.518,-354.67 L 139.269,-354.369 L 138.984,-354.101 L 138.668,-353.872
 L 138.325,-353.683 L 137.962,-353.539 L 137.583,-353.442 L 137.195,-353.393 z
M 138.437,-252.089 L 139.045,-252.245 L 139.629,-252.476 L 140.179,-252.778 L 140.687,-253.147 L 141.145,-253.577
 L 141.545,-254.061 L 141.882,-254.591 L 142.149,-255.159 L 142.343,-255.757 L 142.461,-256.373 L 142.5,-257
 L 142.5,-337 L 142.461,-337.627 L 142.343,-338.243 L 142.149,-338.841 L 141.882,-339.409 L 141.545,-339.939
 L 141.145,-340.423 L 140.687,-340.853 L 140.179,-341.222 L 139.629,-341.524 L 139.045,-341.755 L 138.437,-341.911
 L 137.814,-341.99 L -137.814,-341.99 L -138.437,-341.911 L -139.045,-341.755 L -139.629,-341.524 L -140.179,-341.222
 L -140.687,-340.853 L -141,-340.559 L -141,-340.653 L -144,-340.653 L -144,-253.347 L -141,-253.347
 L -141,-253.441 L -140.687,-253.147 L -140.179,-252.778 L -139.629,-252.476 L -139.045,-252.245 L -138.437,-252.089
 L -137.814,-252.01 L 137.814,-252.01 z
M 134.866,-332.369 L 134.6,-332.403 L 134.34,-332.469 L 134.091,-332.568 L 133.856,-332.697 L 133.639,-332.855
 L 133.443,-333.038 L 133.273,-333.245 L 133.129,-333.471 L 133.015,-333.714 L 132.932,-333.969 L 132.882,-334.232
 L 132.865,-334.5 L 132.882,-334.768 L 132.932,-335.031 L 133.015,-335.286 L 133.129,-335.529 L 133.273,-335.755
 L 133.443,-335.962 L 133.639,-336.145 L 133.856,-336.303 L 134.091,-336.432 L 134.34,-336.531 L 134.6,-336.597
 L 134.866,-336.631 L 135.134,-336.631 L 135.4,-336.597 L 135.66,-336.531 L 135.909,-336.432 L 136.144,-336.303
 L 136.361,-336.145 L 136.557,-335.962 L 136.727,-335.755 L 136.871,-335.529 L 136.985,-335.286 L 137.068,-335.031
 L 137.118,-334.768 L 137.135,-334.5 L 137.118,-334.232 L 137.068,-333.969 L 136.985,-333.714 L 136.871,-333.471
 L 136.727,-333.245 L 136.557,-333.038 L 136.361,-332.855 L 136.144,-332.697 L 135.909,-332.568 L 135.66,-332.469
 L 135.4,-332.403 L 135.134,-332.369 z
M -135.134,-332.369 L -135.4,-332.403 L -135.66,-332.469 L -135.909,-332.568 L -136.144,-332.697 L -136.361,-332.855
 L -136.557,-333.038 L -136.727,-333.245 L -136.871,-333.471 L -136.985,-333.714 L -137.068,-333.969 L -137.118,-334.232
 L -137.135,-334.5 L -137.118,-334.768 L -137.068,-335.031 L -136.985,-335.286 L -136.871,-335.529 L -136.727,-335.755
 L -136.557,-335.962 L -136.361,-336.145 L -136.144,-336.303 L -135.909,-336.432 L -135.66,-336.531 L -135.4,-336.597
 L -135.134,-336.631 L -134.866,-336.631 L -134.6,-336.597 L -134.34,-336.531 L -134.091,-336.432 L -133.856,-336.303
 L -133.639,-336.145 L -133.443,-335.962 L -133.273,-335.755 L -133.129,-335.529 L -133.015,-335.286 L -132.932,-335.031
 L -132.882,-334.768 L -132.865,-334.5 L -132.882,-334.232 L -132.932,-333.969 L -133.015,-333.714 L -133.129,-333.471
 L -133.273,-333.245 L -133.443,-333.038 L -133.639,-332.855 L -133.856,-332.697 L -134.091,-332.568 L -134.34,-332.469
 L -134.6,-332.403 L -134.866,-332.369 z
M 134.866,-257.369 L 134.6,-257.403 L 134.34,-257.469 L 134.091,-257.568 L 133.856,-257.697 L 133.639,-257.855
 L 133.443,-258.038 L 133.273,-258.245 L 133.129,-258.471 L 133.015,-258.714 L 132.932,-258.969 L 132.882,-259.232
 L 132.865,-259.5 L 132.882,-259.768 L 132.932,-260.031 L 133.015,-260.286 L 133.129,-260.529 L 133.273,-260.755
 L 133.443,-260.962 L 133.639,-261.145 L 133.856,-261.303 L 134.091,-261.432 L 134.34,-261.531 L 134.6,-261.597
 L 134.866,-261.631 L 135.134,-261.631 L 135.4,-261.597 L 135.66,-261.531 L 135.909,-261.432 L 136.144,-261.303
 L 136.361,-261.145 L 136.557,-260.962 L 136.727,-260.755 L 136.871,-260.529 L 136.985,-260.286 L 137.068,-260.031
 L 137.118,-259.768 L 137.135,-259.5 L 137.118,-259.232 L 137.068,-258.969 L 136.985,-258.714 L 136.871,-258.471
 L 136.727,-258.245 L 136.557,-258.038 L 136.361,-257.855 L 136.144,-257.697 L 135.909,-257.568 L 135.66,-257.469
 L 135.4,-257.403 L 135.134,-257.369 z
M -135.134,-257.369 L -135.4,-257.403 L -135.66,-257.469 L -135.909,-257.568 L -136.144,-257.697 L -136.361,-257.855
 L -136.557,-258.038 L -136.727,-258.245 L -136.871,-258.471 L -136.985,-258.714 L -137.068,-258.969 L -137.118,-259.232
 L -137.135,-259.5 L -137.118,-259.768 L -137.068,-260.031 L -136.985,-260.286 L -136.871,-260.529 L -136.727,-260.755
 L -136.557,-260.962 L -136.361,-261.145 L -136.144,-261.303 L -135.909,-261.432 L -135.66,-261.531 L -135.4,-261.597
 L -135.134,-261.631 L -134.866,-261.631 L -134.6,-261.597 L -134.34,-261.531 L -134.091,-261.432 L -133.856,-261.303
 L -133.639,-261.145 L -133.443,-260.962 L -133.273,-260.755 L -133.129,-260.529 L -133.015,-260.286 L -132.932,-260.031
 L -132.882,-259.768 L -132.865,-259.5 L -132.882,-259.232 L -132.932,-258.969 L -133.015,-258.714 L -133.129,-258.471
 L -133.273,-258.245 L -133.443,-258.038 L -133.639,-257.855 L -133.856,-257.697 L -134.091,-257.568 L -134.34,-257.469
 L -134.6,-257.403 L -134.866,-257.369 z
" stroke="black" fill="lightgray" stroke-width="0.5"/>
</svg>
