  0
SECTION
  2
BLOCKS
  0
ENDSEC
  0
SECTION
  2
ENTITIES
  0
LINE
  8
0
 10
145.937
 20
402.089
 11
146.545
 21
402.245
  0
LINE
  8
0
 10
146.545
 20
402.245
 11
147.129
 21
402.476
  0
LINE
  8
0
 10
147.129
 20
402.476
 11
147.679
 21
402.778
  0
LINE
  8
0
 10
147.679
 20
402.778
 11
148.187
 21
403.147
  0
LINE
  8
0
 10
148.187
 20
403.147
 11
148.645
 21
403.577
  0
LINE
  8
0
 10
148.645
 20
403.577
 11
149.045
 21
404.061
  0
LINE
  8
0
 10
149.045
 20
404.061
 11
149.382
 21
404.591
  0
LINE
  8
0
 10
149.382
 20
404.591
 11
149.649
 21
405.159
  0
LINE
  8
0
 10
149.649
 20
405.159
 11
149.843
 21
405.757
  0
LINE
  8
0
 10
149.843
 20
405.757
 11
149.961
 21
406.373
  0
LINE
  8
0
 10
149.961
 20
406.373
 11
150
 21
407
  0
LINE
  8
0
 10
150
 20
407
 11
150
 21
547
  0
LINE
  8
0
 10
150
 20
547
 11
149.961
 21
547.627
  0
LINE
  8
0
 10
149.961
 20
547.627
 11
149.843
 21
548.243
  0
LINE
  8
0
 10
149.843
 20
548.243
 11
149.649
 21
548.841
  0
LINE
  8
0
 10
149.649
 20
548.841
 11
149.382
 21
549.409
  0
LINE
  8
0
 10
149.382
 20
549.409
 11
149.045
 21
549.939
  0
LINE
  8
0
 10
149.045
 20
549.939
 11
148.645
 21
550.423
  0
LINE
  8
0
 10
148.645
 20
550.423
 11
148.187
 21
550.853
  0
LINE
  8
0
 10
148.187
 20
550.853
 11
147.679
 21
551.222
  0
LINE
  8
0
 10
147.679
 20
551.222
 11
147.129
 21
551.524
  0
LINE
  8
0
 10
147.129
 20
551.524
 11
146.545
 21
551.755
  0
LINE
  8
0
 10
146.545
 20
551.755
 11
145.937
 21
551.911
  0
LINE
  8
0
 10
145.937
 20
551.911
 11
145.314
 21
551.99
  0
LINE
  8
0
 10
145.314
 20
551.99
 11
-145.314
 21
551.99
  0
LINE
  8
0
 10
-145.314
 20
551.99
 11
-145.937
 21
551.911
  0
LINE
  8
0
 10
-145.937
 20
551.911
 11
-146.545
 21
551.755
  0
LINE
  8
0
 10
-146.545
 20
551.755
 11
-147.129
 21
551.524
  0
LINE
  8
0
 10
-147.129
 20
551.524
 11
-147.679
 21
551.222
  0
LINE
  8
0
 10
-147.679
 20
551.222
 11
-148.187
 21
550.853
  0
LINE
  8
0
 10
-148.187
 20
550.853
 11
-148.645
 21
550.423
  0
LINE
  8
0
 10
-148.645
 20
550.423
 11
-149.045
 21
549.939
  0
LINE
  8
0
 10
-149.045
 20
549.939
 11
-149.382
 21
549.409
  0
LINE
  8
0
 10
-149.382
 20
549.409
 11
-149.649
 21
548.841
  0
LINE
  8
0
 10
-149.649
 20
548.841
 11
-149.843
 21
548.243
  0
LINE
  8
0
 10
-149.843
 20
548.243
 11
-149.961
 21
547.627
  0
LINE
  8
0
 10
-149.961
 20
547.627
 11
-150
 21
547
  0
LINE
  8
0
 10
-150
 20
547
 11
-150
 21
407
  0
LINE
  8
0
 10
-150
 20
407
 11
-149.961
 21
406.373
  0
LINE
  8
0
 10
-149.961
 20
406.373
 11
-149.843
 21
405.757
  0
LINE
  8
0
 10
-149.843
 20
405.757
 11
-149.649
 21
405.159
  0
LINE
  8
0
 10
-149.649
 20
405.159
 11
-149.382
 21
404.591
  0
LINE
  8
0
 10
-149.382
 20
404.591
 11
-149.045
 21
404.061
  0
LINE
  8
0
 10
-149.045
 20
404.061
 11
-148.645
 21
403.577
  0
LINE
  8
0
 10
-148.645
 20
403.577
 11
-148.187
 21
403.147
  0
LINE
  8
0
 10
-148.187
 20
403.147
 11
-147.679
 21
402.778
  0
LINE
  8
0
 10
-147.679
 20
402.778
 11
-147.129
 21
402.476
  0
LINE
  8
0
 10
-147.129
 20
402.476
 11
-146.545
 21
402.245
  0
LINE
  8
0
 10
-146.545
 20
402.245
 11
-145.937
 21
402.089
  0
LINE
  8
0
 10
-145.937
 20
402.089
 11
-145.314
 21
402.01
  0
LINE
  8
0
 10
-145.314
 20
402.01
 11
145.314
 21
402.01
  0
LINE
  8
0
 10
145.314
 20
402.01
 11
145.937
 21
402.089
  0
LINE
  8
0
 10
-145.037
 20
402.681
 11
-145.608
 21
402.753
  0
LINE
  8
0
 10
-145.608
 20
402.753
 11
-146.165
 21
402.896
  0
LINE
  8
0
 10
-146.165
 20
402.896
 11
-146.699
 21
403.107
  0
LINE
  8
0
 10
-146.699
 20
403.107
 11
-147.203
 21
403.384
  0
LINE
  8
0
 10
-147.203
 20
403.384
 11
-147.668
 21
403.722
  0
LINE
  8
0
 10
-147.668
 20
403.722
 11
-148.088
 21
404.116
  0
LINE
  8
0
 10
-148.088
 20
404.116
 11
-148.454
 21
404.559
  0
LINE
  8
0
 10
-148.454
 20
404.559
 11
-148.762
 21
405.044
  0
LINE
  8
0
 10
-148.762
 20
405.044
 11
-149.007
 21
405.565
  0
LINE
  8
0
 10
-149.007
 20
405.565
 11
-149.185
 21
406.111
  0
LINE
  8
0
 10
-149.185
 20
406.111
 11
-149.292
 21
406.676
  0
LINE
  8
0
 10
-149.292
 20
406.676
 11
-149.328
 21
407.25
  0
LINE
  8
0
 10
-149.328
 20
407.25
 11
-149.328
 21
546.75
  0
LINE
  8
0
 10
-149.328
 20
546.75
 11
-149.292
 21
547.324
  0
LINE
  8
0
 10
-149.292
 20
547.324
 11
-149.185
 21
547.889
  0
LINE
  8
0
 10
-149.185
 20
547.889
 11
-149.007
 21
548.435
  0
LINE
  8
0
 10
-149.007
 20
548.435
 11
-148.762
 21
548.956
  0
LINE
  8
0
 10
-148.762
 20
548.956
 11
-148.454
 21
549.441
  0
LINE
  8
0
 10
-148.454
 20
549.441
 11
-148.088
 21
549.884
  0
LINE
  8
0
 10
-148.088
 20
549.884
 11
-147.668
 21
550.278
  0
LINE
  8
0
 10
-147.668
 20
550.278
 11
-147.203
 21
550.616
  0
LINE
  8
0
 10
-147.203
 20
550.616
 11
-146.699
 21
550.893
  0
LINE
  8
0
 10
-146.699
 20
550.893
 11
-146.165
 21
551.104
  0
LINE
  8
0
 10
-146.165
 20
551.104
 11
-145.608
 21
551.247
  0
LINE
  8
0
 10
-145.608
 20
551.247
 11
-145.037
 21
551.319
  0
LINE
  8
0
 10
-145.037
 20
551.319
 11
145.037
 21
551.319
  0
LINE
  8
0
 10
145.037
 20
551.319
 11
145.608
 21
551.247
  0
LINE
  8
0
 10
145.608
 20
551.247
 11
146.165
 21
551.104
  0
LINE
  8
0
 10
146.165
 20
551.104
 11
146.699
 21
550.893
  0
LINE
  8
0
 10
146.699
 20
550.893
 11
147.203
 21
550.616
  0
LINE
  8
0
 10
147.203
 20
550.616
 11
147.668
 21
550.278
  0
LINE
  8
0
 10
147.668
 20
550.278
 11
148.088
 21
549.884
  0
LINE
  8
0
 10
148.088
 20
549.884
 11
148.454
 21
549.441
  0
LINE
  8
0
 10
148.454
 20
549.441
 11
148.762
 21
548.956
  0
LINE
  8
0
 10
148.762
 20
548.956
 11
149.007
 21
548.435
  0
LINE
  8
0
 10
149.007
 20
548.435
 11
149.185
 21
547.889
  0
LINE
  8
0
 10
149.185
 20
547.889
 11
149.292
 21
547.324
  0
LINE
  8
0
 10
149.292
 20
547.324
 11
149.328
 21
546.75
  0
LINE
  8
0
 10
149.328
 20
546.75
 11
149.328
 21
407.25
  0
LINE
  8
0
 10
149.328
 20
407.25
 11
149.292
 21
406.676
  0
LINE
  8
0
 10
149.292
 20
406.676
 11
149.185
 21
406.111
  0
LINE
  8
0
 10
149.185
 20
406.111
 11
149.007
 21
405.565
  0
LINE
  8
0
 10
149.007
 20
405.565
 11
148.762
 21
405.044
  0
LINE
  8
0
 10
148.762
 20
405.044
 11
148.454
 21
404.559
  0
LINE
  8
0
 10
148.454
 20
404.559
 11
148.088
 21
404.116
  0
LINE
  8
0
 10
148.088
 20
404.116
 11
147.668
 21
403.722
  0
LINE
  8
0
 10
147.668
 20
403.722
 11
147.203
 21
403.384
  0
LINE
  8
0
 10
147.203
 20
403.384
 11
146.699
 21
403.107
  0
LINE
  8
0
 10
146.699
 20
403.107
 11
146.165
 21
402.896
  0
LINE
  8
0
 10
146.165
 20
402.896
 11
145.608
 21
402.753
  0
LINE
  8
0
 10
145.608
 20
402.753
 11
145.037
 21
402.681
  0
LINE
  8
0
 10
145.037
 20
402.681
 11
-145.037
 21
402.681
  0
LINE
  8
0
 10
145.937
 20
243.089
 11
146.545
 21
243.245
  0
LINE
  8
0
 10
146.545
 20
243.245
 11
147.129
 21
243.476
  0
LINE
  8
0
 10
147.129
 20
243.476
 11
147.679
 21
243.778
  0
LINE
  8
0
 10
147.679
 20
243.778
 11
148.187
 21
244.147
  0
LINE
  8
0
 10
148.187
 20
244.147
 11
148.645
 21
244.577
  0
LINE
  8
0
 10
148.645
 20
244.577
 11
149.045
 21
245.061
  0
LINE
  8
0
 10
149.045
 20
245.061
 11
149.382
 21
245.591
  0
LINE
  8
0
 10
149.382
 20
245.591
 11
149.649
 21
246.159
  0
LINE
  8
0
 10
149.649
 20
246.159
 11
149.843
 21
246.757
  0
LINE
  8
0
 10
149.843
 20
246.757
 11
149.961
 21
247.373
  0
LINE
  8
0
 10
149.961
 20
247.373
 11
150
 21
248
  0
LINE
  8
0
 10
150
 20
248
 11
150
 21
388
  0
LINE
  8
0
 10
150
 20
388
 11
149.961
 21
388.627
  0
LINE
  8
0
 10
149.961
 20
388.627
 11
149.843
 21
389.243
  0
LINE
  8
0
 10
149.843
 20
389.243
 11
149.649
 21
389.841
  0
LINE
  8
0
 10
149.649
 20
389.841
 11
149.382
 21
390.409
  0
LINE
  8
0
 10
149.382
 20
390.409
 11
149.045
 21
390.939
  0
LINE
  8
0
 10
149.045
 20
390.939
 11
148.645
 21
391.423
  0
LINE
  8
0
 10
148.645
 20
391.423
 11
148.187
 21
391.853
  0
LINE
  8
0
 10
148.187
 20
391.853
 11
147.679
 21
392.222
  0
LINE
  8
0
 10
147.679
 20
392.222
 11
147.129
 21
392.524
  0
LINE
  8
0
 10
147.129
 20
392.524
 11
146.545
 21
392.755
  0
LINE
  8
0
 10
146.545
 20
392.755
 11
145.937
 21
392.911
  0
LINE
  8
0
 10
145.937
 20
392.911
 11
145.314
 21
392.99
  0
LINE
  8
0
 10
145.314
 20
392.99
 11
-145.314
 21
392.99
  0
LINE
  8
0
 10
-145.314
 20
392.99
 11
-145.937
 21
392.911
  0
LINE
  8
0
 10
-145.937
 20
392.911
 11
-146.545
 21
392.755
  0
LINE
  8
0
 10
-146.545
 20
392.755
 11
-147.129
 21
392.524
  0
LINE
  8
0
 10
-147.129
 20
392.524
 11
-147.679
 21
392.222
  0
LINE
  8
0
 10
-147.679
 20
392.222
 11
-148.187
 21
391.853
  0
LINE
  8
0
 10
-148.187
 20
391.853
 11
-148.645
 21
391.423
  0
LINE
  8
0
 10
-148.645
 20
391.423
 11
-149.045
 21
390.939
  0
LINE
  8
0
 10
-149.045
 20
390.939
 11
-149.382
 21
390.409
  0
LINE
  8
0
 10
-149.382
 20
390.409
 11
-149.649
 21
389.841
  0
LINE
  8
0
 10
-149.649
 20
389.841
 11
-149.843
 21
389.243
  0
LINE
  8
0
 10
-149.843
 20
389.243
 11
-149.961
 21
388.627
  0
LINE
  8
0
 10
-149.961
 20
388.627
 11
-150
 21
388
  0
LINE
  8
0
 10
-150
 20
388
 11
-150
 21
248
  0
LINE
  8
0
 10
-150
 20
248
 11
-149.961
 21
247.373
  0
LINE
  8
0
 10
-149.961
 20
247.373
 11
-149.843
 21
246.757
  0
LINE
  8
0
 10
-149.843
 20
246.757
 11
-149.649
 21
246.159
  0
LINE
  8
0
 10
-149.649
 20
246.159
 11
-149.382
 21
245.591
  0
LINE
  8
0
 10
-149.382
 20
245.591
 11
-149.045
 21
245.061
  0
LINE
  8
0
 10
-149.045
 20
245.061
 11
-148.645
 21
244.577
  0
LINE
  8
0
 10
-148.645
 20
244.577
 11
-148.187
 21
244.147
  0
LINE
  8
0
 10
-148.187
 20
244.147
 11
-147.679
 21
243.778
  0
LINE
  8
0
 10
-147.679
 20
243.778
 11
-147.129
 21
243.476
  0
LINE
  8
0
 10
-147.129
 20
243.476
 11
-146.545
 21
243.245
  0
LINE
  8
0
 10
-146.545
 20
243.245
 11
-145.937
 21
243.089
  0
LINE
  8
0
 10
-145.937
 20
243.089
 11
-145.314
 21
243.01
  0
LINE
  8
0
 10
-145.314
 20
243.01
 11
145.314
 21
243.01
  0
LINE
  8
0
 10
145.314
 20
243.01
 11
145.937
 21
243.089
  0
LINE
  8
0
 10
-144.882
 20
246.145
 11
-145.145
 21
246.178
  0
LINE
  8
0
 10
-145.145
 20
246.178
 11
-145.402
 21
246.244
  0
LINE
  8
0
 10
-145.402
 20
246.244
 11
-145.648
 21
246.341
  0
LINE
  8
0
 10
-145.648
 20
246.341
 11
-145.88
 21
246.469
  0
LINE
  8
0
 10
-145.88
 20
246.469
 11
-146.095
 21
246.624
  0
LINE
  8
0
 10
-146.095
 20
246.624
 11
-146.288
 21
246.806
  0
LINE
  8
0
 10
-146.288
 20
246.806
 11
-146.457
 21
247.01
  0
LINE
  8
0
 10
-146.457
 20
247.01
 11
-146.599
 21
247.234
  0
LINE
  8
0
 10
-146.599
 20
247.234
 11
-146.711
 21
247.473
  0
LINE
  8
0
 10
-146.711
 20
247.473
 11
-146.793
 21
247.725
  0
LINE
  8
0
 10
-146.793
 20
247.725
 11
-146.843
 21
247.986
  0
LINE
  8
0
 10
-146.843
 20
247.986
 11
-146.86
 21
248.25
  0
LINE
  8
0
 10
-146.86
 20
248.25
 11
-146.86
 21
387.75
  0
LINE
  8
0
 10
-146.86
 20
387.75
 11
-146.843
 21
388.014
  0
LINE
  8
0
 10
-146.843
 20
388.014
 11
-146.793
 21
388.275
  0
LINE
  8
0
 10
-146.793
 20
388.275
 11
-146.711
 21
388.527
  0
LINE
  8
0
 10
-146.711
 20
388.527
 11
-146.599
 21
388.766
  0
LINE
  8
0
 10
-146.599
 20
388.766
 11
-146.457
 21
388.99
  0
LINE
  8
0
 10
-146.457
 20
388.99
 11
-146.288
 21
389.194
  0
LINE
  8
0
 10
-146.288
 20
389.194
 11
-146.095
 21
389.376
  0
LINE
  8
0
 10
-146.095
 20
389.376
 11
-145.88
 21
389.531
  0
LINE
  8
0
 10
-145.88
 20
389.531
 11
-145.648
 21
389.659
  0
LINE
  8
0
 10
-145.648
 20
389.659
 11
-145.402
 21
389.756
  0
LINE
  8
0
 10
-145.402
 20
389.756
 11
-145.145
 21
389.822
  0
LINE
  8
0
 10
-145.145
 20
389.822
 11
-144.882
 21
389.855
  0
LINE
  8
0
 10
-144.882
 20
389.855
 11
144.882
 21
389.855
  0
LINE
  8
0
 10
144.882
 20
389.855
 11
145.145
 21
389.822
  0
LINE
  8
0
 10
145.145
 20
389.822
 11
145.402
 21
389.756
  0
LINE
  8
0
 10
145.402
 20
389.756
 11
145.648
 21
389.659
  0
LINE
  8
0
 10
145.648
 20
389.659
 11
145.88
 21
389.531
  0
LINE
  8
0
 10
145.88
 20
389.531
 11
146.095
 21
389.376
  0
LINE
  8
0
 10
146.095
 20
389.376
 11
146.288
 21
389.194
  0
LINE
  8
0
 10
146.288
 20
389.194
 11
146.457
 21
388.99
  0
LINE
  8
0
 10
146.457
 20
388.99
 11
146.599
 21
388.766
  0
LINE
  8
0
 10
146.599
 20
388.766
 11
146.711
 21
388.527
  0
LINE
  8
0
 10
146.711
 20
388.527
 11
146.793
 21
388.275
  0
LINE
  8
0
 10
146.793
 20
388.275
 11
146.843
 21
388.014
  0
LINE
  8
0
 10
146.843
 20
388.014
 11
146.86
 21
387.75
  0
LINE
  8
0
 10
146.86
 20
387.75
 11
146.86
 21
248.25
  0
LINE
  8
0
 10
146.86
 20
248.25
 11
146.843
 21
247.986
  0
LINE
  8
0
 10
146.843
 20
247.986
 11
146.793
 21
247.725
  0
LINE
  8
0
 10
146.793
 20
247.725
 11
146.711
 21
247.473
  0
LINE
  8
0
 10
146.711
 20
247.473
 11
146.599
 21
247.234
  0
LINE
  8
0
 10
146.599
 20
247.234
 11
146.457
 21
247.01
  0
LINE
  8
0
 10
146.457
 20
247.01
 11
146.288
 21
246.806
  0
LINE
  8
0
 10
146.288
 20
246.806
 11
146.095
 21
246.624
  0
LINE
  8
0
 10
146.095
 20
246.624
 11
145.88
 21
246.469
  0
LINE
  8
0
 10
145.88
 20
246.469
 11
145.648
 21
246.341
  0
LINE
  8
0
 10
145.648
 20
246.341
 11
145.402
 21
246.244
  0
LINE
  8
0
 10
145.402
 20
246.244
 11
145.145
 21
246.178
  0
LINE
  8
0
 10
145.145
 20
246.178
 11
144.882
 21
246.145
  0
LINE
  8
0
 10
144.882
 20
246.145
 11
-144.882
 21
246.145
  0
ENDSEC
  0
SECTION
  2
OBJECTS
  0
DICTIONARY
  0
ENDSEC
  0
EOF
