<?xml version="1.0" standalone="no"?>
<!DOCTYPE svg PUBLIC "-//W3C//DTD SVG 1.1//EN" "http://www.w3.org/Graphics/SVG/1.1/DTD/svg11.dtd">
<svg width="287mm" height="100mm" viewBox="-144 -185 287 100" xmlns="http://www.w3.org/2000/svg" version="1.1">
<title>OpenSCAD Model</title>
<path d="
M 138.437,-139.589 L 139.045,-139.745 L 139.629,-139.976 L 140.179,-140.278 L 140.687,-140.647 L 141.145,-141.077
 L 141.545,-141.561 L 141.882,-142.091 L 142.149,-142.659 L 142.343,-143.257 L 142.461,-143.873 L 142.5,-144.5
 L 142.5,-179.5 L 142.461,-180.127 L 142.343,-180.743 L 142.149,-181.341 L 141.882,-181.909 L 141.545,-182.439
 L 141.145,-182.923 L 140.687,-183.353 L 140.179,-183.722 L 139.629,-184.024 L 139.045,-184.255 L 138.437,-184.411
 L 137.814,-184.49 L -137.814,-184.49 L -138.437,-184.411 L -139.045,-184.255 L -139.629,-184.024 L -140.179,-183.722
 L -140.687,-183.353 L -141,-183.059 L -141,-184.479 L -144,-184.479 L -144,-139.521 L -141,-139.521
 L -141,-140.941 L -140.687,-140.647 L -140.179,-140.278 L -139.629,-139.976 L -139.045,-139.745 L -138.437,-139.589
 L -137.814,-139.51 L 137.814,-139.51 z
M -137.195,-141.893 L -137.583,-141.942 L -137.962,-142.039 L -138.325,-142.183 L -138.668,-142.372 L -138.984,-142.601
 L -139.269,-142.869 L -139.518,-143.17 L -139.728,-143.5 L -139.894,-143.854 L -140.015,-144.226 L -140.088,-144.61
 L -140.113,-145 L -140.113,-179 L -140.088,-179.39 L -140.015,-179.774 L -139.894,-180.146 L -139.728,-180.5
 L -139.518,-180.83 L -139.269,-181.131 L -138.984,-181.399 L -138.668,-181.628 L -138.325,-181.817 L -137.962,-181.961
 L -137.583,-182.058 L -137.195,-182.107 L 137.195,-182.107 L 137.583,-182.058 L 137.962,-181.961 L 138.325,-181.817
 L 138.668,-181.628 L 138.984,-181.399 L 139.269,-181.131 L 139.518,-180.83 L 139.728,-180.5 L 139.894,-180.146
 L 140.015,-179.774 L 140.088,-179.39 L 140.113,-179 L 140.113,-145 L 140.088,-144.61 L 140.015,-144.226
 L 139.894,-143.854 L 139.728,-143.5 L 139.518,-143.17 L 139.269,-142.869 L 138.984,-142.601 L 138.668,-142.372
 L 138.325,-142.183 L 137.962,-142.039 L 137.583,-141.942 L 137.195,-141.893 z
M 138.437,-85.5886 L 139.045,-85.7447 L 139.629,-85.9759 L 140.179,-86.2784 L 140.687,-86.6474 L 141.145,-87.0773
 L 141.545,-87.5611 L 141.882,-88.0912 L 142.149,-88.6594 L 142.343,-89.2566 L 142.461,-89.8733 L 142.5,-90.5
 L 142.5,-125.5 L 142.461,-126.127 L 142.343,-126.743 L 142.149,-127.341 L 141.882,-127.909 L 141.545,-128.439
 L 141.145,-128.923 L 140.687,-129.353 L 140.179,-129.722 L 139.629,-130.024 L 139.045,-130.255 L 138.437,-130.411
 L 137.814,-130.49 L -137.814,-130.49 L -138.437,-130.411 L -139.045,-130.255 L -139.629,-130.024 L -140.179,-129.722
 L -140.687,-129.353 L -141,-129.059 L -141,-129.153 L -144,-129.153 L -144,-86.8474 L -141,-86.8474
 L -141,-86.9413 L -140.687,-86.6474 L -140.179,-86.2784 L -139.629,-85.9759 L -139.045,-85.7447 L -138.437,-85.5886
 L -137.814,-85.5099 L 137.814,-85.5099 z
M 134.866,-120.869 L 134.6,-120.903 L 134.34,-120.969 L 134.091,-121.068 L 133.856,-121.197 L 133.639,-121.355
 L 133.443,-121.538 L 133.273,-121.745 L 133.129,-121.971 L 133.015,-122.214 L 132.932,-122.469 L 132.882,-122.732
 L 132.865,-123 L 132.882,-123.268 L 132.932,-123.531 L 133.015,-123.786 L 133.129,-124.029 L 133.273,-124.255
 L 133.443,-124.462 L 133.639,-124.645 L 133.856,-124.803 L 134.091,-124.932 L 134.34,-125.031 L 134.6,-125.097
 L 134.866,-125.131 L 135.134,-125.131 L 135.4,-125.097 L 135.66,-125.031 L 135.909,-124.932 L 136.144,-124.803
 L 136.361,-124.645 L 136.557,-124.462 L 136.727,-124.255 L 136.871,-124.029 L 136.985,-123.786 L 137.068,-123.531
 L 137.118,-123.268 L 137.135,-123 L 137.118,-122.732 L 137.068,-122.469 L 136.985,-122.214 L 136.871,-121.971
 L 136.727,-121.745 L 136.557,-121.538 L 136.361,-121.355 L 136.144,-121.197 L 135.909,-121.068 L 135.66,-120.969
 L 135.4,-120.903 L 135.134,-120.869 z
M -135.134,-120.869 L -135.4,-120.903 L -135.66,-120.969 L -135.909,-121.068 L -136.144,-121.197 L -136.361,-121.355
 L -136.557,-121.538 L -136.727,-121.745 L -136.871,-121.971 L -136.985,-122.214 L -137.068,-122.469 L -137.118,-122.732
 L -137.135,-123 L -137.118,-123.268 L -137.068,-123.531 L -136.985,-123.786 L -136.871,-124.029 L -136.727,-124.255
 L -136.557,-124.462 L -136.361,-124.645 L -136.144,-124.803 L -135.909,-124.932 L -135.66,-125.031 L -135.4,-125.097
 L -135.134,-125.131 L -134.866,-125.131 L -134.6,-125.097 L -134.34,-125.031 L -134.091,-124.932 L -133.856,-124.803
 L -133.639,-124.645 L -133.443,-124.462 L -133.273,-124.255 L -133.129,-124.029 L -133.015,-123.786 L -132.932,-123.531
 L -132.882,-123.268 L -132.865,-123 L -132.882,-122.732 L -132.932,-122.469 L -133.015,-122.214 L -133.129,-121.971
 L -133.273,-121.745 L -133.443,-121.538 L -133.639,-121.355 L -133.856,-121.197 L -134.091,-121.068 L -134.34,-120.969
 L -134.6,-120.903 L -134.866,-120.869 z
M 134.866,-90.8689 L 134.6,-90.9025 L 134.34,-90.9692 L 134.091,-91.0679 L 133.856,-91.1971 L 133.639,-91.3547
 L 133.443,-91.5383 L 133.273,-91.7449 L 133.129,-91.9713 L 133.015,-92.214 L 132.932,-92.469 L 132.882,-92.7324
 L 132.865,-93 L 132.882,-93.2676 L 132.932,-93.531 L 133.015,-93.7861 L 133.129,-94.0287 L 133.273,-94.2551
 L 133.443,-94.4617 L 133.639,-94.6453 L 133.856,-94.8029 L 134.091,-94.9321 L 134.34,-95.0308 L 134.6,-95.0975
 L 134.866,-95.1311 L 135.134,-95.1311 L 135.4,-95.0975 L 135.66,-95.0308 L 135.909,-94.9321 L 136.144,-94.8029
 L 136.361,-94.6453 L 136.557,-94.4617 L 136.727,-94.2551 L 136.871,-94.0287 L 136.985,-93.7861 L 137.068,-93.531
 L 137.118,-93.2676 L 137.135,-93 L 137.118,-92.7324 L 137.068,-92.469 L 136.985,-92.214 L 136.871,-91.9713
 L 136.727,-91.7449 L 136.557,-91.5383 L 136.361,-91.3547 L 136.144,-91.1971 L 135.909,-91.0679 L 135.66,-90.9692
 L 135.4,-90.9025 L 135.134,-90.8689 z
M -135.134,-90.8689 L -135.4,-90.9025 L -135.66,-90.9692 L -135.909,-91.0679 L -136.144,-91.1971 L -136.361,-91.3547
 L -136.557,-91.5383 L -136.727,-91.7449 L -136.871,-91.9713 L -136.985,-92.214 L -137.068,-92.469 L -137.118,-92.7324
 L -137.135,-93 L -137.118,-93.2676 L -137.068,-93.531 L -136.985,-93.7861 L -136.871,-94.0287 L -136.727,-94.2551
 L -136.557,-94.4617 L -136.361,-94.6453 L -136.144,-94.8029 L -135.909,-94.9321 L -135.66,-95.0308 L -135.4,-95.0975
 L -135.134,-95.1311 L -134.866,-95.1311 L -134.6,-95.0975 L -134.34,-95.0308 L -134.091,-94.9321 L -133.856,-94.8029
 L -133.639,-94.6453 L -133.443,-94.4617 L -133.273,-94.2551 L -133.129,-94.0287 L -133.015,-93.7861 L -132.932,-93.531
 L -132.882,-93.2676 L -132.865,-93 L -132.882,-92.7324 L -132.932,-92.469 L -133.015,-92.214 L -133.129,-91.9713
 L -133.273,-91.7449 L -133.443,-91.5383 L -133.639,-91.3547 L -133.856,-91.1971 L -134.091,-91.0679 L -134.34,-90.9692
 L -134.6,-90.9025 L -134.866,-90.8689 z
" stroke="black" fill="lightgray" stroke-width="0.5"/>
</svg>
