  0
SECTION
  2
BLOCKS
  0
ENDSEC
  0
SECTION
  2
ENTITIES
  0
LINE
  8
0
 10
115.937
 20
220.589
 11
116.545
 21
220.745
  0
LINE
  8
0
 10
116.545
 20
220.745
 11
117.129
 21
220.976
  0
LINE
  8
0
 10
117.129
 20
220.976
 11
117.679
 21
221.278
  0
LINE
  8
0
 10
117.679
 20
221.278
 11
118.187
 21
221.647
  0
LINE
  8
0
 10
118.187
 20
221.647
 11
118.645
 21
222.077
  0
LINE
  8
0
 10
118.645
 20
222.077
 11
119.045
 21
222.561
  0
LINE
  8
0
 10
119.045
 20
222.561
 11
119.382
 21
223.091
  0
LINE
  8
0
 10
119.382
 20
223.091
 11
119.649
 21
223.659
  0
LINE
  8
0
 10
119.649
 20
223.659
 11
119.843
 21
224.257
  0
LINE
  8
0
 10
119.843
 20
224.257
 11
119.961
 21
224.873
  0
LINE
  8
0
 10
119.961
 20
224.873
 11
120
 21
225.5
  0
LINE
  8
0
 10
120
 20
225.5
 11
120
 21
350.5
  0
LINE
  8
0
 10
120
 20
350.5
 11
119.961
 21
351.127
  0
LINE
  8
0
 10
119.961
 20
351.127
 11
119.843
 21
351.743
  0
LINE
  8
0
 10
119.843
 20
351.743
 11
119.649
 21
352.341
  0
LINE
  8
0
 10
119.649
 20
352.341
 11
119.382
 21
352.909
  0
LINE
  8
0
 10
119.382
 20
352.909
 11
119.045
 21
353.439
  0
LINE
  8
0
 10
119.045
 20
353.439
 11
118.645
 21
353.923
  0
LINE
  8
0
 10
118.645
 20
353.923
 11
118.187
 21
354.353
  0
LINE
  8
0
 10
118.187
 20
354.353
 11
117.679
 21
354.722
  0
LINE
  8
0
 10
117.679
 20
354.722
 11
117.129
 21
355.024
  0
LINE
  8
0
 10
117.129
 20
355.024
 11
116.545
 21
355.255
  0
LINE
  8
0
 10
116.545
 20
355.255
 11
115.937
 21
355.411
  0
LINE
  8
0
 10
115.937
 20
355.411
 11
115.314
 21
355.49
  0
LINE
  8
0
 10
115.314
 20
355.49
 11
-115.314
 21
355.49
  0
LINE
  8
0
 10
-115.314
 20
355.49
 11
-115.937
 21
355.411
  0
LINE
  8
0
 10
-115.937
 20
355.411
 11
-116.545
 21
355.255
  0
LINE
  8
0
 10
-116.545
 20
355.255
 11
-117.129
 21
355.024
  0
LINE
  8
0
 10
-117.129
 20
355.024
 11
-117.679
 21
354.722
  0
LINE
  8
0
 10
-117.679
 20
354.722
 11
-118.187
 21
354.353
  0
LINE
  8
0
 10
-118.187
 20
354.353
 11
-118.645
 21
353.923
  0
LINE
  8
0
 10
-118.645
 20
353.923
 11
-119.045
 21
353.439
  0
LINE
  8
0
 10
-119.045
 20
353.439
 11
-119.382
 21
352.909
  0
LINE
  8
0
 10
-119.382
 20
352.909
 11
-119.649
 21
352.341
  0
LINE
  8
0
 10
-119.649
 20
352.341
 11
-119.843
 21
351.743
  0
LINE
  8
0
 10
-119.843
 20
351.743
 11
-119.961
 21
351.127
  0
LINE
  8
0
 10
-119.961
 20
351.127
 11
-120
 21
350.5
  0
LINE
  8
0
 10
-120
 20
350.5
 11
-120
 21
225.5
  0
LINE
  8
0
 10
-120
 20
225.5
 11
-119.961
 21
224.873
  0
LINE
  8
0
 10
-119.961
 20
224.873
 11
-119.843
 21
224.257
  0
LINE
  8
0
 10
-119.843
 20
224.257
 11
-119.649
 21
223.659
  0
LINE
  8
0
 10
-119.649
 20
223.659
 11
-119.382
 21
223.091
  0
LINE
  8
0
 10
-119.382
 20
223.091
 11
-119.045
 21
222.561
  0
LINE
  8
0
 10
-119.045
 20
222.561
 11
-118.645
 21
222.077
  0
LINE
  8
0
 10
-118.645
 20
222.077
 11
-118.187
 21
221.647
  0
LINE
  8
0
 10
-118.187
 20
221.647
 11
-117.679
 21
221.278
  0
LINE
  8
0
 10
-117.679
 20
221.278
 11
-117.129
 21
220.976
  0
LINE
  8
0
 10
-117.129
 20
220.976
 11
-116.545
 21
220.745
  0
LINE
  8
0
 10
-116.545
 20
220.745
 11
-115.937
 21
220.589
  0
LINE
  8
0
 10
-115.937
 20
220.589
 11
-115.314
 21
220.51
  0
LINE
  8
0
 10
-115.314
 20
220.51
 11
115.314
 21
220.51
  0
LINE
  8
0
 10
115.314
 20
220.51
 11
115.937
 21
220.589
  0
LINE
  8
0
 10
-114.993
 20
221.888
 11
-115.475
 21
221.949
  0
LINE
  8
0
 10
-115.475
 20
221.949
 11
-115.946
 21
222.07
  0
LINE
  8
0
 10
-115.946
 20
222.07
 11
-116.398
 21
222.249
  0
LINE
  8
0
 10
-116.398
 20
222.249
 11
-116.823
 21
222.483
  0
LINE
  8
0
 10
-116.823
 20
222.483
 11
-117.216
 21
222.769
  0
LINE
  8
0
 10
-117.216
 20
222.769
 11
-117.571
 21
223.101
  0
LINE
  8
0
 10
-117.571
 20
223.101
 11
-117.88
 21
223.476
  0
LINE
  8
0
 10
-117.88
 20
223.476
 11
-118.141
 21
223.886
  0
LINE
  8
0
 10
-118.141
 20
223.886
 11
-118.348
 21
224.326
  0
LINE
  8
0
 10
-118.348
 20
224.326
 11
-118.498
 21
224.788
  0
LINE
  8
0
 10
-118.498
 20
224.788
 11
-118.589
 21
225.265
  0
LINE
  8
0
 10
-118.589
 20
225.265
 11
-118.619
 21
225.75
  0
LINE
  8
0
 10
-118.619
 20
225.75
 11
-118.619
 21
350.25
  0
LINE
  8
0
 10
-118.619
 20
350.25
 11
-118.589
 21
350.735
  0
LINE
  8
0
 10
-118.589
 20
350.735
 11
-118.498
 21
351.212
  0
LINE
  8
0
 10
-118.498
 20
351.212
 11
-118.348
 21
351.674
  0
LINE
  8
0
 10
-118.348
 20
351.674
 11
-118.141
 21
352.114
  0
LINE
  8
0
 10
-118.141
 20
352.114
 11
-117.88
 21
352.524
  0
LINE
  8
0
 10
-117.88
 20
352.524
 11
-117.571
 21
352.899
  0
LINE
  8
0
 10
-117.571
 20
352.899
 11
-117.216
 21
353.231
  0
LINE
  8
0
 10
-117.216
 20
353.231
 11
-116.823
 21
353.517
  0
LINE
  8
0
 10
-116.823
 20
353.517
 11
-116.398
 21
353.751
  0
LINE
  8
0
 10
-116.398
 20
353.751
 11
-115.946
 21
353.93
  0
LINE
  8
0
 10
-115.946
 20
353.93
 11
-115.475
 21
354.051
  0
LINE
  8
0
 10
-115.475
 20
354.051
 11
-114.993
 21
354.112
  0
LINE
  8
0
 10
-114.993
 20
354.112
 11
114.993
 21
354.112
  0
LINE
  8
0
 10
114.993
 20
354.112
 11
115.475
 21
354.051
  0
LINE
  8
0
 10
115.475
 20
354.051
 11
115.946
 21
353.93
  0
LINE
  8
0
 10
115.946
 20
353.93
 11
116.398
 21
353.751
  0
LINE
  8
0
 10
116.398
 20
353.751
 11
116.823
 21
353.517
  0
LINE
  8
0
 10
116.823
 20
353.517
 11
117.216
 21
353.231
  0
LINE
  8
0
 10
117.216
 20
353.231
 11
117.571
 21
352.899
  0
LINE
  8
0
 10
117.571
 20
352.899
 11
117.88
 21
352.524
  0
LINE
  8
0
 10
117.88
 20
352.524
 11
118.141
 21
352.114
  0
LINE
  8
0
 10
118.141
 20
352.114
 11
118.348
 21
351.674
  0
LINE
  8
0
 10
118.348
 20
351.674
 11
118.498
 21
351.212
  0
LINE
  8
0
 10
118.498
 20
351.212
 11
118.589
 21
350.735
  0
LINE
  8
0
 10
118.589
 20
350.735
 11
118.619
 21
350.25
  0
LINE
  8
0
 10
118.619
 20
350.25
 11
118.619
 21
225.75
  0
LINE
  8
0
 10
118.619
 20
225.75
 11
118.589
 21
225.265
  0
LINE
  8
0
 10
118.589
 20
225.265
 11
118.498
 21
224.788
  0
LINE
  8
0
 10
118.498
 20
224.788
 11
118.348
 21
224.326
  0
LINE
  8
0
 10
118.348
 20
224.326
 11
118.141
 21
223.886
  0
LINE
  8
0
 10
118.141
 20
223.886
 11
117.88
 21
223.476
  0
LINE
  8
0
 10
117.88
 20
223.476
 11
117.571
 21
223.101
  0
LINE
  8
0
 10
117.571
 20
223.101
 11
117.216
 21
222.769
  0
LINE
  8
0
 10
117.216
 20
222.769
 11
116.823
 21
222.483
  0
LINE
  8
0
 10
116.823
 20
222.483
 11
116.398
 21
222.249
  0
LINE
  8
0
 10
116.398
 20
222.249
 11
115.946
 21
222.07
  0
LINE
  8
0
 10
115.946
 20
222.07
 11
115.475
 21
221.949
  0
LINE
  8
0
 10
115.475
 20
221.949
 11
114.993
 21
221.888
  0
LINE
  8
0
 10
114.993
 20
221.888
 11
-114.993
 21
221.888
  0
LINE
  8
0
 10
115.937
 20
76.5886
 11
116.545
 21
76.7447
  0
LINE
  8
0
 10
116.545
 20
76.7447
 11
117.129
 21
76.9759
  0
LINE
  8
0
 10
117.129
 20
76.9759
 11
117.679
 21
77.2784
  0
LINE
  8
0
 10
117.679
 20
77.2784
 11
118.187
 21
77.6474
  0
LINE
  8
0
 10
118.187
 20
77.6474
 11
118.645
 21
78.0773
  0
LINE
  8
0
 10
118.645
 20
78.0773
 11
119.045
 21
78.5611
  0
LINE
  8
0
 10
119.045
 20
78.5611
 11
119.382
 21
79.0912
  0
LINE
  8
0
 10
119.382
 20
79.0912
 11
119.649
 21
79.6594
  0
LINE
  8
0
 10
119.649
 20
79.6594
 11
119.843
 21
80.2566
  0
LINE
  8
0
 10
119.843
 20
80.2566
 11
119.961
 21
80.8733
  0
LINE
  8
0
 10
119.961
 20
80.8733
 11
120
 21
81.5
  0
LINE
  8
0
 10
120
 20
81.5
 11
120
 21
206.5
  0
LINE
  8
0
 10
120
 20
206.5
 11
119.961
 21
207.127
  0
LINE
  8
0
 10
119.961
 20
207.127
 11
119.843
 21
207.743
  0
LINE
  8
0
 10
119.843
 20
207.743
 11
119.649
 21
208.341
  0
LINE
  8
0
 10
119.649
 20
208.341
 11
119.382
 21
208.909
  0
LINE
  8
0
 10
119.382
 20
208.909
 11
119.045
 21
209.439
  0
LINE
  8
0
 10
119.045
 20
209.439
 11
118.645
 21
209.923
  0
LINE
  8
0
 10
118.645
 20
209.923
 11
118.187
 21
210.353
  0
LINE
  8
0
 10
118.187
 20
210.353
 11
117.679
 21
210.722
  0
LINE
  8
0
 10
117.679
 20
210.722
 11
117.129
 21
211.024
  0
LINE
  8
0
 10
117.129
 20
211.024
 11
116.545
 21
211.255
  0
LINE
  8
0
 10
116.545
 20
211.255
 11
115.937
 21
211.411
  0
LINE
  8
0
 10
115.937
 20
211.411
 11
115.314
 21
211.49
  0
LINE
  8
0
 10
115.314
 20
211.49
 11
-115.314
 21
211.49
  0
LINE
  8
0
 10
-115.314
 20
211.49
 11
-115.937
 21
211.411
  0
LINE
  8
0
 10
-115.937
 20
211.411
 11
-116.545
 21
211.255
  0
LINE
  8
0
 10
-116.545
 20
211.255
 11
-117.129
 21
211.024
  0
LINE
  8
0
 10
-117.129
 20
211.024
 11
-117.679
 21
210.722
  0
LINE
  8
0
 10
-117.679
 20
210.722
 11
-118.187
 21
210.353
  0
LINE
  8
0
 10
-118.187
 20
210.353
 11
-118.645
 21
209.923
  0
LINE
  8
0
 10
-118.645
 20
209.923
 11
-119.045
 21
209.439
  0
LINE
  8
0
 10
-119.045
 20
209.439
 11
-119.382
 21
208.909
  0
LINE
  8
0
 10
-119.382
 20
208.909
 11
-119.649
 21
208.341
  0
LINE
  8
0
 10
-119.649
 20
208.341
 11
-119.843
 21
207.743
  0
LINE
  8
0
 10
-119.843
 20
207.743
 11
-119.961
 21
207.127
  0
LINE
  8
0
 10
-119.961
 20
207.127
 11
-120
 21
206.5
  0
LINE
  8
0
 10
-120
 20
206.5
 11
-120
 21
81.5
  0
LINE
  8
0
 10
-120
 20
81.5
 11
-119.961
 21
80.8733
  0
LINE
  8
0
 10
-119.961
 20
80.8733
 11
-119.843
 21
80.2566
  0
LINE
  8
0
 10
-119.843
 20
80.2566
 11
-119.649
 21
79.6594
  0
LINE
  8
0
 10
-119.649
 20
79.6594
 11
-119.382
 21
79.0912
  0
LINE
  8
0
 10
-119.382
 20
79.0912
 11
-119.045
 21
78.5611
  0
LINE
  8
0
 10
-119.045
 20
78.5611
 11
-118.645
 21
78.0773
  0
LINE
  8
0
 10
-118.645
 20
78.0773
 11
-118.187
 21
77.6474
  0
LINE
  8
0
 10
-118.187
 20
77.6474
 11
-117.679
 21
77.2784
  0
LINE
  8
0
 10
-117.679
 20
77.2784
 11
-117.129
 21
76.9759
  0
LINE
  8
0
 10
-117.129
 20
76.9759
 11
-116.545
 21
76.7447
  0
LINE
  8
0
 10
-116.545
 20
76.7447
 11
-115.937
 21
76.5886
  0
LINE
  8
0
 10
-115.937
 20
76.5886
 11
-115.314
 21
76.5099
  0
LINE
  8
0
 10
-115.314
 20
76.5099
 11
115.314
 21
76.5099
  0
LINE
  8
0
 10
115.314
 20
76.5099
 11
115.937
 21
76.5886
  0
LINE
  8
0
 10
-112.613
 20
202.204
 11
-112.837
 21
202.232
  0
LINE
  8
0
 10
-112.837
 20
202.232
 11
-113.056
 21
202.288
  0
LINE
  8
0
 10
-113.056
 20
202.288
 11
-113.266
 21
202.371
  0
LINE
  8
0
 10
-113.266
 20
202.371
 11
-113.464
 21
202.48
  0
LINE
  8
0
 10
-113.464
 20
202.48
 11
-113.647
 21
202.613
  0
LINE
  8
0
 10
-113.647
 20
202.613
 11
-113.812
 21
202.768
  0
LINE
  8
0
 10
-113.812
 20
202.768
 11
-113.956
 21
202.942
  0
LINE
  8
0
 10
-113.956
 20
202.942
 11
-114.077
 21
203.133
  0
LINE
  8
0
 10
-114.077
 20
203.133
 11
-114.174
 21
203.337
  0
LINE
  8
0
 10
-114.174
 20
203.337
 11
-114.243
 21
203.552
  0
LINE
  8
0
 10
-114.243
 20
203.552
 11
-114.286
 21
203.774
  0
LINE
  8
0
 10
-114.286
 20
203.774
 11
-114.3
 21
204
  0
LINE
  8
0
 10
-114.3
 20
204
 11
-114.286
 21
204.226
  0
LINE
  8
0
 10
-114.286
 20
204.226
 11
-114.243
 21
204.448
  0
LINE
  8
0
 10
-114.243
 20
204.448
 11
-114.174
 21
204.663
  0
LINE
  8
0
 10
-114.174
 20
204.663
 11
-114.077
 21
204.867
  0
LINE
  8
0
 10
-114.077
 20
204.867
 11
-113.956
 21
205.058
  0
LINE
  8
0
 10
-113.956
 20
205.058
 11
-113.812
 21
205.232
  0
LINE
  8
0
 10
-113.812
 20
205.232
 11
-113.647
 21
205.387
  0
LINE
  8
0
 10
-113.647
 20
205.387
 11
-113.464
 21
205.52
  0
LINE
  8
0
 10
-113.464
 20
205.52
 11
-113.266
 21
205.629
  0
LINE
  8
0
 10
-113.266
 20
205.629
 11
-113.056
 21
205.712
  0
LINE
  8
0
 10
-113.056
 20
205.712
 11
-112.837
 21
205.768
  0
LINE
  8
0
 10
-112.837
 20
205.768
 11
-112.613
 21
205.796
  0
LINE
  8
0
 10
-112.613
 20
205.796
 11
-112.387
 21
205.796
  0
LINE
  8
0
 10
-112.387
 20
205.796
 11
-112.163
 21
205.768
  0
LINE
  8
0
 10
-112.163
 20
205.768
 11
-111.944
 21
205.712
  0
LINE
  8
0
 10
-111.944
 20
205.712
 11
-111.734
 21
205.629
  0
LINE
  8
0
 10
-111.734
 20
205.629
 11
-111.536
 21
205.52
  0
LINE
  8
0
 10
-111.536
 20
205.52
 11
-111.353
 21
205.387
  0
LINE
  8
0
 10
-111.353
 20
205.387
 11
-111.188
 21
205.232
  0
LINE
  8
0
 10
-111.188
 20
205.232
 11
-111.044
 21
205.058
  0
LINE
  8
0
 10
-111.044
 20
205.058
 11
-110.923
 21
204.867
  0
LINE
  8
0
 10
-110.923
 20
204.867
 11
-110.826
 21
204.663
  0
LINE
  8
0
 10
-110.826
 20
204.663
 11
-110.757
 21
204.448
  0
LINE
  8
0
 10
-110.757
 20
204.448
 11
-110.714
 21
204.226
  0
LINE
  8
0
 10
-110.714
 20
204.226
 11
-110.7
 21
204
  0
LINE
  8
0
 10
-110.7
 20
204
 11
-110.714
 21
203.774
  0
LINE
  8
0
 10
-110.714
 20
203.774
 11
-110.757
 21
203.552
  0
LINE
  8
0
 10
-110.757
 20
203.552
 11
-110.826
 21
203.337
  0
LINE
  8
0
 10
-110.826
 20
203.337
 11
-110.923
 21
203.133
  0
LINE
  8
0
 10
-110.923
 20
203.133
 11
-111.044
 21
202.942
  0
LINE
  8
0
 10
-111.044
 20
202.942
 11
-111.188
 21
202.768
  0
LINE
  8
0
 10
-111.188
 20
202.768
 11
-111.353
 21
202.613
  0
LINE
  8
0
 10
-111.353
 20
202.613
 11
-111.536
 21
202.48
  0
LINE
  8
0
 10
-111.536
 20
202.48
 11
-111.734
 21
202.371
  0
LINE
  8
0
 10
-111.734
 20
202.371
 11
-111.944
 21
202.288
  0
LINE
  8
0
 10
-111.944
 20
202.288
 11
-112.163
 21
202.232
  0
LINE
  8
0
 10
-112.163
 20
202.232
 11
-112.387
 21
202.204
  0
LINE
  8
0
 10
-112.387
 20
202.204
 11
-112.613
 21
202.204
  0
LINE
  8
0
 10
112.387
 20
202.204
 11
112.163
 21
202.232
  0
LINE
  8
0
 10
112.163
 20
202.232
 11
111.944
 21
202.288
  0
LINE
  8
0
 10
111.944
 20
202.288
 11
111.734
 21
202.371
  0
LINE
  8
0
 10
111.734
 20
202.371
 11
111.536
 21
202.48
  0
LINE
  8
0
 10
111.536
 20
202.48
 11
111.353
 21
202.613
  0
LINE
  8
0
 10
111.353
 20
202.613
 11
111.188
 21
202.768
  0
LINE
  8
0
 10
111.188
 20
202.768
 11
111.044
 21
202.942
  0
LINE
  8
0
 10
111.044
 20
202.942
 11
110.923
 21
203.133
  0
LINE
  8
0
 10
110.923
 20
203.133
 11
110.826
 21
203.337
  0
LINE
  8
0
 10
110.826
 20
203.337
 11
110.757
 21
203.552
  0
LINE
  8
0
 10
110.757
 20
203.552
 11
110.714
 21
203.774
  0
LINE
  8
0
 10
110.714
 20
203.774
 11
110.7
 21
204
  0
LINE
  8
0
 10
110.7
 20
204
 11
110.714
 21
204.226
  0
LINE
  8
0
 10
110.714
 20
204.226
 11
110.757
 21
204.448
  0
LINE
  8
0
 10
110.757
 20
204.448
 11
110.826
 21
204.663
  0
LINE
  8
0
 10
110.826
 20
204.663
 11
110.923
 21
204.867
  0
LINE
  8
0
 10
110.923
 20
204.867
 11
111.044
 21
205.058
  0
LINE
  8
0
 10
111.044
 20
205.058
 11
111.188
 21
205.232
  0
LINE
  8
0
 10
111.188
 20
205.232
 11
111.353
 21
205.387
  0
LINE
  8
0
 10
111.353
 20
205.387
 11
111.536
 21
205.52
  0
LINE
  8
0
 10
111.536
 20
205.52
 11
111.734
 21
205.629
  0
LINE
  8
0
 10
111.734
 20
205.629
 11
111.944
 21
205.712
  0
LINE
  8
0
 10
111.944
 20
205.712
 11
112.163
 21
205.768
  0
LINE
  8
0
 10
112.163
 20
205.768
 11
112.387
 21
205.796
  0
LINE
  8
0
 10
112.387
 20
205.796
 11
112.613
 21
205.796
  0
LINE
  8
0
 10
112.613
 20
205.796
 11
112.837
 21
205.768
  0
LINE
  8
0
 10
112.837
 20
205.768
 11
113.056
 21
205.712
  0
LINE
  8
0
 10
113.056
 20
205.712
 11
113.266
 21
205.629
  0
LINE
  8
0
 10
113.266
 20
205.629
 11
113.464
 21
205.52
  0
LINE
  8
0
 10
113.464
 20
205.52
 11
113.647
 21
205.387
  0
LINE
  8
0
 10
113.647
 20
205.387
 11
113.812
 21
205.232
  0
LINE
  8
0
 10
113.812
 20
205.232
 11
113.956
 21
205.058
  0
LINE
  8
0
 10
113.956
 20
205.058
 11
114.077
 21
204.867
  0
LINE
  8
0
 10
114.077
 20
204.867
 11
114.174
 21
204.663
  0
LINE
  8
0
 10
114.174
 20
204.663
 11
114.243
 21
204.448
  0
LINE
  8
0
 10
114.243
 20
204.448
 11
114.286
 21
204.226
  0
LINE
  8
0
 10
114.286
 20
204.226
 11
114.3
 21
204
  0
LINE
  8
0
 10
114.3
 20
204
 11
114.286
 21
203.774
  0
LINE
  8
0
 10
114.286
 20
203.774
 11
114.243
 21
203.552
  0
LINE
  8
0
 10
114.243
 20
203.552
 11
114.174
 21
203.337
  0
LINE
  8
0
 10
114.174
 20
203.337
 11
114.077
 21
203.133
  0
LINE
  8
0
 10
114.077
 20
203.133
 11
113.956
 21
202.942
  0
LINE
  8
0
 10
113.956
 20
202.942
 11
113.812
 21
202.768
  0
LINE
  8
0
 10
113.812
 20
202.768
 11
113.647
 21
202.613
  0
LINE
  8
0
 10
113.647
 20
202.613
 11
113.464
 21
202.48
  0
LINE
  8
0
 10
113.464
 20
202.48
 11
113.266
 21
202.371
  0
LINE
  8
0
 10
113.266
 20
202.371
 11
113.056
 21
202.288
  0
LINE
  8
0
 10
113.056
 20
202.288
 11
112.837
 21
202.232
  0
LINE
  8
0
 10
112.837
 20
202.232
 11
112.613
 21
202.204
  0
LINE
  8
0
 10
112.613
 20
202.204
 11
112.387
 21
202.204
  0
LINE
  8
0
 10
-112.613
 20
82.2036
 11
-112.837
 21
82.2319
  0
LINE
  8
0
 10
-112.837
 20
82.2319
 11
-113.056
 21
82.2881
  0
LINE
  8
0
 10
-113.056
 20
82.2881
 11
-113.266
 21
82.3713
  0
LINE
  8
0
 10
-113.266
 20
82.3713
 11
-113.464
 21
82.4802
  0
LINE
  8
0
 10
-113.464
 20
82.4802
 11
-113.647
 21
82.6131
  0
LINE
  8
0
 10
-113.647
 20
82.6131
 11
-113.812
 21
82.7678
  0
LINE
  8
0
 10
-113.812
 20
82.7678
 11
-113.956
 21
82.942
  0
LINE
  8
0
 10
-113.956
 20
82.942
 11
-114.077
 21
83.1328
  0
LINE
  8
0
 10
-114.077
 20
83.1328
 11
-114.174
 21
83.3374
  0
LINE
  8
0
 10
-114.174
 20
83.3374
 11
-114.243
 21
83.5524
  0
LINE
  8
0
 10
-114.243
 20
83.5524
 11
-114.286
 21
83.7744
  0
LINE
  8
0
 10
-114.286
 20
83.7744
 11
-114.3
 21
84
  0
LINE
  8
0
 10
-114.3
 20
84
 11
-114.286
 21
84.2256
  0
LINE
  8
0
 10
-114.286
 20
84.2256
 11
-114.243
 21
84.4476
  0
LINE
  8
0
 10
-114.243
 20
84.4476
 11
-114.174
 21
84.6626
  0
LINE
  8
0
 10
-114.174
 20
84.6626
 11
-114.077
 21
84.8672
  0
LINE
  8
0
 10
-114.077
 20
84.8672
 11
-113.956
 21
85.058
  0
LINE
  8
0
 10
-113.956
 20
85.058
 11
-113.812
 21
85.2322
  0
LINE
  8
0
 10
-113.812
 20
85.2322
 11
-113.647
 21
85.3869
  0
LINE
  8
0
 10
-113.647
 20
85.3869
 11
-113.464
 21
85.5198
  0
LINE
  8
0
 10
-113.464
 20
85.5198
 11
-113.266
 21
85.6287
  0
LINE
  8
0
 10
-113.266
 20
85.6287
 11
-113.056
 21
85.7119
  0
LINE
  8
0
 10
-113.056
 20
85.7119
 11
-112.837
 21
85.7681
  0
LINE
  8
0
 10
-112.837
 20
85.7681
 11
-112.613
 21
85.7964
  0
LINE
  8
0
 10
-112.613
 20
85.7964
 11
-112.387
 21
85.7964
  0
LINE
  8
0
 10
-112.387
 20
85.7964
 11
-112.163
 21
85.7681
  0
LINE
  8
0
 10
-112.163
 20
85.7681
 11
-111.944
 21
85.7119
  0
LINE
  8
0
 10
-111.944
 20
85.7119
 11
-111.734
 21
85.6287
  0
LINE
  8
0
 10
-111.734
 20
85.6287
 11
-111.536
 21
85.5198
  0
LINE
  8
0
 10
-111.536
 20
85.5198
 11
-111.353
 21
85.3869
  0
LINE
  8
0
 10
-111.353
 20
85.3869
 11
-111.188
 21
85.2322
  0
LINE
  8
0
 10
-111.188
 20
85.2322
 11
-111.044
 21
85.058
  0
LINE
  8
0
 10
-111.044
 20
85.058
 11
-110.923
 21
84.8672
  0
LINE
  8
0
 10
-110.923
 20
84.8672
 11
-110.826
 21
84.6626
  0
LINE
  8
0
 10
-110.826
 20
84.6626
 11
-110.757
 21
84.4476
  0
LINE
  8
0
 10
-110.757
 20
84.4476
 11
-110.714
 21
84.2256
  0
LINE
  8
0
 10
-110.714
 20
84.2256
 11
-110.7
 21
84
  0
LINE
  8
0
 10
-110.7
 20
84
 11
-110.714
 21
83.7744
  0
LINE
  8
0
 10
-110.714
 20
83.7744
 11
-110.757
 21
83.5524
  0
LINE
  8
0
 10
-110.757
 20
83.5524
 11
-110.826
 21
83.3374
  0
LINE
  8
0
 10
-110.826
 20
83.3374
 11
-110.923
 21
83.1328
  0
LINE
  8
0
 10
-110.923
 20
83.1328
 11
-111.044
 21
82.942
  0
LINE
  8
0
 10
-111.044
 20
82.942
 11
-111.188
 21
82.7678
  0
LINE
  8
0
 10
-111.188
 20
82.7678
 11
-111.353
 21
82.6131
  0
LINE
  8
0
 10
-111.353
 20
82.6131
 11
-111.536
 21
82.4802
  0
LINE
  8
0
 10
-111.536
 20
82.4802
 11
-111.734
 21
82.3713
  0
LINE
  8
0
 10
-111.734
 20
82.3713
 11
-111.944
 21
82.2881
  0
LINE
  8
0
 10
-111.944
 20
82.2881
 11
-112.163
 21
82.2319
  0
LINE
  8
0
 10
-112.163
 20
82.2319
 11
-112.387
 21
82.2036
  0
LINE
  8
0
 10
-112.387
 20
82.2036
 11
-112.613
 21
82.2036
  0
LINE
  8
0
 10
112.387
 20
82.2036
 11
112.163
 21
82.2319
  0
LINE
  8
0
 10
112.163
 20
82.2319
 11
111.944
 21
82.2881
  0
LINE
  8
0
 10
111.944
 20
82.2881
 11
111.734
 21
82.3713
  0
LINE
  8
0
 10
111.734
 20
82.3713
 11
111.536
 21
82.4802
  0
LINE
  8
0
 10
111.536
 20
82.4802
 11
111.353
 21
82.6131
  0
LINE
  8
0
 10
111.353
 20
82.6131
 11
111.188
 21
82.7678
  0
LINE
  8
0
 10
111.188
 20
82.7678
 11
111.044
 21
82.942
  0
LINE
  8
0
 10
111.044
 20
82.942
 11
110.923
 21
83.1328
  0
LINE
  8
0
 10
110.923
 20
83.1328
 11
110.826
 21
83.3374
  0
LINE
  8
0
 10
110.826
 20
83.3374
 11
110.757
 21
83.5524
  0
LINE
  8
0
 10
110.757
 20
83.5524
 11
110.714
 21
83.7744
  0
LINE
  8
0
 10
110.714
 20
83.7744
 11
110.7
 21
84
  0
LINE
  8
0
 10
110.7
 20
84
 11
110.714
 21
84.2256
  0
LINE
  8
0
 10
110.714
 20
84.2256
 11
110.757
 21
84.4476
  0
LINE
  8
0
 10
110.757
 20
84.4476
 11
110.826
 21
84.6626
  0
LINE
  8
0
 10
110.826
 20
84.6626
 11
110.923
 21
84.8672
  0
LINE
  8
0
 10
110.923
 20
84.8672
 11
111.044
 21
85.058
  0
LINE
  8
0
 10
111.044
 20
85.058
 11
111.188
 21
85.2322
  0
LINE
  8
0
 10
111.188
 20
85.2322
 11
111.353
 21
85.3869
  0
LINE
  8
0
 10
111.353
 20
85.3869
 11
111.536
 21
85.5198
  0
LINE
  8
0
 10
111.536
 20
85.5198
 11
111.734
 21
85.6287
  0
LINE
  8
0
 10
111.734
 20
85.6287
 11
111.944
 21
85.7119
  0
LINE
  8
0
 10
111.944
 20
85.7119
 11
112.163
 21
85.7681
  0
LINE
  8
0
 10
112.163
 20
85.7681
 11
112.387
 21
85.7964
  0
LINE
  8
0
 10
112.387
 20
85.7964
 11
112.613
 21
85.7964
  0
LINE
  8
0
 10
112.613
 20
85.7964
 11
112.837
 21
85.7681
  0
LINE
  8
0
 10
112.837
 20
85.7681
 11
113.056
 21
85.7119
  0
LINE
  8
0
 10
113.056
 20
85.7119
 11
113.266
 21
85.6287
  0
LINE
  8
0
 10
113.266
 20
85.6287
 11
113.464
 21
85.5198
  0
LINE
  8
0
 10
113.464
 20
85.5198
 11
113.647
 21
85.3869
  0
LINE
  8
0
 10
113.647
 20
85.3869
 11
113.812
 21
85.2322
  0
LINE
  8
0
 10
113.812
 20
85.2322
 11
113.956
 21
85.058
  0
LINE
  8
0
 10
113.956
 20
85.058
 11
114.077
 21
84.8672
  0
LINE
  8
0
 10
114.077
 20
84.8672
 11
114.174
 21
84.6626
  0
LINE
  8
0
 10
114.174
 20
84.6626
 11
114.243
 21
84.4476
  0
LINE
  8
0
 10
114.243
 20
84.4476
 11
114.286
 21
84.2256
  0
LINE
  8
0
 10
114.286
 20
84.2256
 11
114.3
 21
84
  0
LINE
  8
0
 10
114.3
 20
84
 11
114.286
 21
83.7744
  0
LINE
  8
0
 10
114.286
 20
83.7744
 11
114.243
 21
83.5524
  0
LINE
  8
0
 10
114.243
 20
83.5524
 11
114.174
 21
83.3374
  0
LINE
  8
0
 10
114.174
 20
83.3374
 11
114.077
 21
83.1328
  0
LINE
  8
0
 10
114.077
 20
83.1328
 11
113.956
 21
82.942
  0
LINE
  8
0
 10
113.956
 20
82.942
 11
113.812
 21
82.7678
  0
LINE
  8
0
 10
113.812
 20
82.7678
 11
113.647
 21
82.6131
  0
LINE
  8
0
 10
113.647
 20
82.6131
 11
113.464
 21
82.4802
  0
LINE
  8
0
 10
113.464
 20
82.4802
 11
113.266
 21
82.3713
  0
LINE
  8
0
 10
113.266
 20
82.3713
 11
113.056
 21
82.2881
  0
LINE
  8
0
 10
113.056
 20
82.2881
 11
112.837
 21
82.2319
  0
LINE
  8
0
 10
112.837
 20
82.2319
 11
112.613
 21
82.2036
  0
LINE
  8
0
 10
112.613
 20
82.2036
 11
112.387
 21
82.2036
  0
ENDSEC
  0
SECTION
  2
OBJECTS
  0
DICTIONARY
  0
ENDSEC
  0
EOF
