<?xml version="1.0" standalone="no"?>
<!DOCTYPE svg PUBLIC "-//W3C//DTD SVG 1.1//EN" "http://www.w3.org/Graphics/SVG/1.1/DTD/svg11.dtd">
<svg width="287mm" height="568mm" viewBox="-144 -932 287 568" xmlns="http://www.w3.org/2000/svg" version="1.1">
<title>OpenSCAD Model</title>
<path d="
M -141,-797.941 L -140.687,-797.647 L -140.179,-797.278 L -139.629,-796.976 L -139.045,-796.745 L -138.437,-796.589
 L -137.814,-796.51 L 137.814,-796.51 L 138.437,-796.589 L 139.045,-796.745 L 139.629,-796.976 L 140.179,-797.278
 L 140.687,-797.647 L 141.145,-798.077 L 141.545,-798.561 L 141.882,-799.091 L 142.149,-799.659 L 142.343,-800.257
 L 142.461,-800.873 L 142.5,-801.5 L 142.5,-926.5 L 142.461,-927.127 L 142.343,-927.743 L 142.149,-928.341
 L 141.882,-928.909 L 141.545,-929.439 L 141.145,-929.923 L 140.687,-930.353 L 140.179,-930.722 L 139.629,-931.024
 L 139.045,-931.255 L 138.437,-931.411 L 137.814,-931.49 L -137.814,-931.49 L -138.437,-931.411 L -139.045,-931.255
 L -139.629,-931.024 L -140.179,-930.722 L -140.687,-930.353 L -141,-930.059 L -141,-931.49 L -144,-931.49
 L -144,-796.51 L -141,-796.51 z
M -137.251,-798.008 L -137.75,-798.071 L -138.236,-798.196 L -138.703,-798.381 L -139.143,-798.623 L -139.55,-798.918
 L -139.916,-799.262 L -140.236,-799.649 L -140.505,-800.073 L -140.719,-800.528 L -140.874,-801.005 L -140.968,-801.499
 L -141,-802 L -141,-926 L -140.968,-926.501 L -140.874,-926.995 L -140.719,-927.472 L -140.505,-927.927
 L -140.236,-928.351 L -139.916,-928.738 L -139.55,-929.082 L -139.143,-929.377 L -138.703,-929.619 L -138.236,-929.804
 L -137.75,-929.929 L -137.251,-929.992 L 137.251,-929.992 L 137.75,-929.929 L 138.236,-929.804 L 138.703,-929.619
 L 139.143,-929.377 L 139.55,-929.082 L 139.916,-928.738 L 140.236,-928.351 L 140.505,-927.927 L 140.719,-927.472
 L 140.874,-926.995 L 140.968,-926.501 L 141,-926 L 141,-802 L 140.968,-801.499 L 140.874,-801.005
 L 140.719,-800.528 L 140.505,-800.073 L 140.236,-799.649 L 139.916,-799.262 L 139.55,-798.918 L 139.143,-798.623
 L 138.703,-798.381 L 138.236,-798.196 L 137.75,-798.071 L 137.251,-798.008 z
M -141,-653.941 L -140.687,-653.647 L -140.179,-653.278 L -139.629,-652.976 L -139.045,-652.745 L -138.437,-652.589
 L -137.814,-652.51 L 137.814,-652.51 L 138.437,-652.589 L 139.045,-652.745 L 139.629,-652.976 L 140.179,-653.278
 L 140.687,-653.647 L 141.145,-654.077 L 141.545,-654.561 L 141.882,-655.091 L 142.149,-655.659 L 142.343,-656.257
 L 142.461,-656.873 L 142.5,-657.5 L 142.5,-782.5 L 142.461,-783.127 L 142.343,-783.743 L 142.149,-784.341
 L 141.882,-784.909 L 141.545,-785.439 L 141.145,-785.923 L 140.687,-786.353 L 140.179,-786.722 L 139.629,-787.024
 L 139.045,-787.255 L 138.437,-787.411 L 137.814,-787.49 L -137.814,-787.49 L -138.437,-787.411 L -139.045,-787.255
 L -139.629,-787.024 L -140.179,-786.722 L -140.687,-786.353 L -141,-786.059 L -141,-787.49 L -144,-787.49
 L -144,-652.51 L -141,-652.51 z
M -137.243,-654.135 L -137.726,-654.196 L -138.197,-654.317 L -138.649,-654.496 L -139.075,-654.73 L -139.469,-655.016
 L -139.823,-655.349 L -140.133,-655.724 L -140.394,-656.134 L -140.601,-656.574 L -140.751,-657.037 L -140.842,-657.515
 L -140.873,-658 L -140.873,-782 L -140.842,-782.485 L -140.751,-782.963 L -140.601,-783.426 L -140.394,-783.866
 L -140.133,-784.276 L -139.823,-784.651 L -139.469,-784.984 L -139.075,-785.27 L -138.649,-785.504 L -138.197,-785.683
 L -137.726,-785.804 L -137.243,-785.865 L 137.243,-785.865 L 137.726,-785.804 L 138.197,-785.683 L 138.649,-785.504
 L 139.075,-785.27 L 139.469,-784.984 L 139.823,-784.651 L 140.133,-784.276 L 140.394,-783.866 L 140.601,-783.426
 L 140.751,-782.963 L 140.842,-782.485 L 140.873,-782 L 140.873,-658 L 140.842,-657.515 L 140.751,-657.037
 L 140.601,-656.574 L 140.394,-656.134 L 140.133,-655.724 L 139.823,-655.349 L 139.469,-655.016 L 139.075,-654.73
 L 138.649,-654.496 L 138.197,-654.317 L 137.726,-654.196 L 137.243,-654.135 z
M 138.437,-508.589 L 139.045,-508.745 L 139.629,-508.976 L 140.179,-509.278 L 140.687,-509.647 L 141.145,-510.077
 L 141.545,-510.561 L 141.882,-511.091 L 142.149,-511.659 L 142.343,-512.257 L 142.461,-512.873 L 142.5,-513.5
 L 142.5,-638.5 L 142.461,-639.127 L 142.343,-639.743 L 142.149,-640.341 L 141.882,-640.909 L 141.545,-641.439
 L 141.145,-641.923 L 140.687,-642.353 L 140.179,-642.722 L 139.629,-643.024 L 139.045,-643.255 L 138.437,-643.411
 L 137.814,-643.49 L -137.814,-643.49 L -138.437,-643.411 L -139.045,-643.255 L -139.629,-643.024 L -140.179,-642.722
 L -140.687,-642.353 L -141,-642.059 L -141,-643.115 L -144,-643.115 L -144,-508.885 L -141,-508.885
 L -141,-509.941 L -140.687,-509.647 L -140.179,-509.278 L -139.629,-508.976 L -139.045,-508.745 L -138.437,-508.589
 L -137.814,-508.51 L 137.814,-508.51 z
M -135.151,-633.605 L -135.45,-633.643 L -135.742,-633.717 L -136.022,-633.828 L -136.286,-633.974 L -136.53,-634.151
 L -136.75,-634.357 L -136.942,-634.589 L -137.103,-634.844 L -137.231,-635.117 L -137.325,-635.403 L -137.381,-635.699
 L -137.4,-636 L -137.381,-636.301 L -137.325,-636.597 L -137.231,-636.883 L -137.103,-637.156 L -136.942,-637.411
 L -136.75,-637.643 L -136.53,-637.849 L -136.286,-638.026 L -136.022,-638.172 L -135.742,-638.283 L -135.45,-638.357
 L -135.151,-638.395 L -134.849,-638.395 L -134.55,-638.357 L -134.258,-638.283 L -133.978,-638.172 L -133.714,-638.026
 L -133.47,-637.849 L -133.25,-637.643 L -133.058,-637.411 L -132.897,-637.156 L -132.769,-636.883 L -132.675,-636.597
 L -132.619,-636.301 L -132.6,-636 L -132.619,-635.699 L -132.675,-635.403 L -132.769,-635.117 L -132.897,-634.844
 L -133.058,-634.589 L -133.25,-634.357 L -133.47,-634.151 L -133.714,-633.974 L -133.978,-633.828 L -134.258,-633.717
 L -134.55,-633.643 L -134.849,-633.605 z
M 134.849,-633.605 L 134.55,-633.643 L 134.258,-633.717 L 133.978,-633.828 L 133.714,-633.974 L 133.47,-634.151
 L 133.25,-634.357 L 133.058,-634.589 L 132.897,-634.844 L 132.769,-635.117 L 132.675,-635.403 L 132.619,-635.699
 L 132.6,-636 L 132.619,-636.301 L 132.675,-636.597 L 132.769,-636.883 L 132.897,-637.156 L 133.058,-637.411
 L 133.25,-637.643 L 133.47,-637.849 L 133.714,-638.026 L 133.978,-638.172 L 134.258,-638.283 L 134.55,-638.357
 L 134.849,-638.395 L 135.151,-638.395 L 135.45,-638.357 L 135.742,-638.283 L 136.022,-638.172 L 136.286,-638.026
 L 136.53,-637.849 L 136.75,-637.643 L 136.942,-637.411 L 137.103,-637.156 L 137.231,-636.883 L 137.325,-636.597
 L 137.381,-636.301 L 137.4,-636 L 137.381,-635.699 L 137.325,-635.403 L 137.231,-635.117 L 137.103,-634.844
 L 136.942,-634.589 L 136.75,-634.357 L 136.53,-634.151 L 136.286,-633.974 L 136.022,-633.828 L 135.742,-633.717
 L 135.45,-633.643 L 135.151,-633.605 z
M 134.849,-513.605 L 134.55,-513.643 L 134.258,-513.717 L 133.978,-513.828 L 133.714,-513.974 L 133.47,-514.151
 L 133.25,-514.357 L 133.058,-514.589 L 132.897,-514.844 L 132.769,-515.117 L 132.675,-515.403 L 132.619,-515.699
 L 132.6,-516 L 132.619,-516.301 L 132.675,-516.597 L 132.769,-516.883 L 132.897,-517.156 L 133.058,-517.411
 L 133.25,-517.643 L 133.47,-517.849 L 133.714,-518.026 L 133.978,-518.172 L 134.258,-518.283 L 134.55,-518.357
 L 134.849,-518.395 L 135.151,-518.395 L 135.45,-518.357 L 135.742,-518.283 L 136.022,-518.172 L 136.286,-518.026
 L 136.53,-517.849 L 136.75,-517.643 L 136.942,-517.411 L 137.103,-517.156 L 137.231,-516.883 L 137.325,-516.597
 L 137.381,-516.301 L 137.4,-516 L 137.381,-515.699 L 137.325,-515.403 L 137.231,-515.117 L 137.103,-514.844
 L 136.942,-514.589 L 136.75,-514.357 L 136.53,-514.151 L 136.286,-513.974 L 136.022,-513.828 L 135.742,-513.717
 L 135.45,-513.643 L 135.151,-513.605 z
M -135.151,-513.605 L -135.45,-513.643 L -135.742,-513.717 L -136.022,-513.828 L -136.286,-513.974 L -136.53,-514.151
 L -136.75,-514.357 L -136.942,-514.589 L -137.103,-514.844 L -137.231,-515.117 L -137.325,-515.403 L -137.381,-515.699
 L -137.4,-516 L -137.381,-516.301 L -137.325,-516.597 L -137.231,-516.883 L -137.103,-517.156 L -136.942,-517.411
 L -136.75,-517.643 L -136.53,-517.849 L -136.286,-518.026 L -136.022,-518.172 L -135.742,-518.283 L -135.45,-518.357
 L -135.151,-518.395 L -134.849,-518.395 L -134.55,-518.357 L -134.258,-518.283 L -133.978,-518.172 L -133.714,-518.026
 L -133.47,-517.849 L -133.25,-517.643 L -133.058,-517.411 L -132.897,-517.156 L -132.769,-516.883 L -132.675,-516.597
 L -132.619,-516.301 L -132.6,-516 L -132.619,-515.699 L -132.675,-515.403 L -132.769,-515.117 L -132.897,-514.844
 L -133.058,-514.589 L -133.25,-514.357 L -133.47,-514.151 L -133.714,-513.974 L -133.978,-513.828 L -134.258,-513.717
 L -134.55,-513.643 L -134.849,-513.605 z
M 138.437,-364.589 L 139.045,-364.745 L 139.629,-364.976 L 140.179,-365.278 L 140.687,-365.647 L 141.145,-366.077
 L 141.545,-366.561 L 141.882,-367.091 L 142.149,-367.659 L 142.343,-368.257 L 142.461,-368.873 L 142.5,-369.5
 L 142.5,-494.5 L 142.461,-495.127 L 142.343,-495.743 L 142.149,-496.341 L 141.882,-496.909 L 141.545,-497.439
 L 141.145,-497.923 L 140.687,-498.353 L 140.179,-498.722 L 139.629,-499.024 L 139.045,-499.255 L 138.437,-499.411
 L 137.814,-499.49 L -137.814,-499.49 L -138.437,-499.411 L -139.045,-499.255 L -139.629,-499.024 L -140.179,-498.722
 L -140.687,-498.353 L -141.145,-497.923 L -141.545,-497.439 L -141.882,-496.909 L -142.149,-496.341 L -142.343,-495.743
 L -142.4,-495.444 L -144,-495.444 L -144,-368.556 L -142.4,-368.556 L -142.343,-368.257 L -142.149,-367.659
 L -141.882,-367.091 L -141.545,-366.561 L -141.145,-366.077 L -140.687,-365.647 L -140.179,-365.278 L -139.629,-364.976
 L -139.045,-364.745 L -138.437,-364.589 L -137.814,-364.51 L 137.814,-364.51 z
M 134.887,-490.204 L 134.663,-490.232 L 134.444,-490.288 L 134.234,-490.371 L 134.036,-490.48 L 133.853,-490.613
 L 133.688,-490.768 L 133.544,-490.942 L 133.423,-491.133 L 133.326,-491.337 L 133.257,-491.552 L 133.214,-491.774
 L 133.2,-492 L 133.214,-492.226 L 133.257,-492.448 L 133.326,-492.663 L 133.423,-492.867 L 133.544,-493.058
 L 133.688,-493.232 L 133.853,-493.387 L 134.036,-493.52 L 134.234,-493.629 L 134.444,-493.712 L 134.663,-493.768
 L 134.887,-493.796 L 135.113,-493.796 L 135.337,-493.768 L 135.556,-493.712 L 135.766,-493.629 L 135.964,-493.52
 L 136.147,-493.387 L 136.312,-493.232 L 136.456,-493.058 L 136.577,-492.867 L 136.674,-492.663 L 136.743,-492.448
 L 136.786,-492.226 L 136.8,-492 L 136.786,-491.774 L 136.743,-491.552 L 136.674,-491.337 L 136.577,-491.133
 L 136.456,-490.942 L 136.312,-490.768 L 136.147,-490.613 L 135.964,-490.48 L 135.766,-490.371 L 135.556,-490.288
 L 135.337,-490.232 L 135.113,-490.204 z
M -135.113,-490.204 L -135.337,-490.232 L -135.556,-490.288 L -135.766,-490.371 L -135.964,-490.48 L -136.147,-490.613
 L -136.312,-490.768 L -136.456,-490.942 L -136.577,-491.133 L -136.674,-491.337 L -136.743,-491.552 L -136.786,-491.774
 L -136.8,-492 L -136.786,-492.226 L -136.743,-492.448 L -136.674,-492.663 L -136.577,-492.867 L -136.456,-493.058
 L -136.312,-493.232 L -136.147,-493.387 L -135.964,-493.52 L -135.766,-493.629 L -135.556,-493.712 L -135.337,-493.768
 L -135.113,-493.796 L -134.887,-493.796 L -134.663,-493.768 L -134.444,-493.712 L -134.234,-493.629 L -134.036,-493.52
 L -133.853,-493.387 L -133.688,-493.232 L -133.544,-493.058 L -133.423,-492.867 L -133.326,-492.663 L -133.257,-492.448
 L -133.214,-492.226 L -133.2,-492 L -133.214,-491.774 L -133.257,-491.552 L -133.326,-491.337 L -133.423,-491.133
 L -133.544,-490.942 L -133.688,-490.768 L -133.853,-490.613 L -134.036,-490.48 L -134.234,-490.371 L -134.444,-490.288
 L -134.663,-490.232 L -134.887,-490.204 z
M -135.113,-370.204 L -135.337,-370.232 L -135.556,-370.288 L -135.766,-370.371 L -135.964,-370.48 L -136.147,-370.613
 L -136.312,-370.768 L -136.456,-370.942 L -136.577,-371.133 L -136.674,-371.337 L -136.743,-371.552 L -136.786,-371.774
 L -136.8,-372 L -136.786,-372.226 L -136.743,-372.448 L -136.674,-372.663 L -136.577,-372.867 L -136.456,-373.058
 L -136.312,-373.232 L -136.147,-373.387 L -135.964,-373.52 L -135.766,-373.629 L -135.556,-373.712 L -135.337,-373.768
 L -135.113,-373.796 L -134.887,-373.796 L -134.663,-373.768 L -134.444,-373.712 L -134.234,-373.629 L -134.036,-373.52
 L -133.853,-373.387 L -133.688,-373.232 L -133.544,-373.058 L -133.423,-372.867 L -133.326,-372.663 L -133.257,-372.448
 L -133.214,-372.226 L -133.2,-372 L -133.214,-371.774 L -133.257,-371.552 L -133.326,-371.337 L -133.423,-371.133
 L -133.544,-370.942 L -133.688,-370.768 L -133.853,-370.613 L -134.036,-370.48 L -134.234,-370.371 L -134.444,-370.288
 L -134.663,-370.232 L -134.887,-370.204 z
M 134.887,-370.204 L 134.663,-370.232 L 134.444,-370.288 L 134.234,-370.371 L 134.036,-370.48 L 133.853,-370.613
 L 133.688,-370.768 L 133.544,-370.942 L 133.423,-371.133 L 133.326,-371.337 L 133.257,-371.552 L 133.214,-371.774
 L 133.2,-372 L 133.214,-372.226 L 133.257,-372.448 L 133.326,-372.663 L 133.423,-372.867 L 133.544,-373.058
 L 133.688,-373.232 L 133.853,-373.387 L 134.036,-373.52 L 134.234,-373.629 L 134.444,-373.712 L 134.663,-373.768
 L 134.887,-373.796 L 135.113,-373.796 L 135.337,-373.768 L 135.556,-373.712 L 135.766,-373.629 L 135.964,-373.52
 L 136.147,-373.387 L 136.312,-373.232 L 136.456,-373.058 L 136.577,-372.867 L 136.674,-372.663 L 136.743,-372.448
 L 136.786,-372.226 L 136.8,-372 L 136.786,-371.774 L 136.743,-371.552 L 136.674,-371.337 L 136.577,-371.133
 L 136.456,-370.942 L 136.312,-370.768 L 136.147,-370.613 L 135.964,-370.48 L 135.766,-370.371 L 135.556,-370.288
 L 135.337,-370.232 L 135.113,-370.204 z
" stroke="black" fill="lightgray" stroke-width="0.5"/>
</svg>
