  0
SECTION
  2
BLOCKS
  0
ENDSEC
  0
SECTION
  2
ENTITIES
  0
LINE
  8
0
 10
-141
 20
797.941
 11
-140.687
 21
797.647
  0
LINE
  8
0
 10
-140.687
 20
797.647
 11
-140.179
 21
797.278
  0
LINE
  8
0
 10
-140.179
 20
797.278
 11
-139.629
 21
796.976
  0
LINE
  8
0
 10
-139.629
 20
796.976
 11
-139.045
 21
796.745
  0
LINE
  8
0
 10
-139.045
 20
796.745
 11
-138.437
 21
796.589
  0
LINE
  8
0
 10
-138.437
 20
796.589
 11
-137.814
 21
796.51
  0
LINE
  8
0
 10
-137.814
 20
796.51
 11
137.814
 21
796.51
  0
LINE
  8
0
 10
137.814
 20
796.51
 11
138.437
 21
796.589
  0
LINE
  8
0
 10
138.437
 20
796.589
 11
139.045
 21
796.745
  0
LINE
  8
0
 10
139.045
 20
796.745
 11
139.629
 21
796.976
  0
LINE
  8
0
 10
139.629
 20
796.976
 11
140.179
 21
797.278
  0
LINE
  8
0
 10
140.179
 20
797.278
 11
140.687
 21
797.647
  0
LINE
  8
0
 10
140.687
 20
797.647
 11
141.145
 21
798.077
  0
LINE
  8
0
 10
141.145
 20
798.077
 11
141.545
 21
798.561
  0
LINE
  8
0
 10
141.545
 20
798.561
 11
141.882
 21
799.091
  0
LINE
  8
0
 10
141.882
 20
799.091
 11
142.149
 21
799.659
  0
LINE
  8
0
 10
142.149
 20
799.659
 11
142.343
 21
800.257
  0
LINE
  8
0
 10
142.343
 20
800.257
 11
142.461
 21
800.873
  0
LINE
  8
0
 10
142.461
 20
800.873
 11
142.5
 21
801.5
  0
LINE
  8
0
 10
142.5
 20
801.5
 11
142.5
 21
926.5
  0
LINE
  8
0
 10
142.5
 20
926.5
 11
142.461
 21
927.127
  0
LINE
  8
0
 10
142.461
 20
927.127
 11
142.343
 21
927.743
  0
LINE
  8
0
 10
142.343
 20
927.743
 11
142.149
 21
928.341
  0
LINE
  8
0
 10
142.149
 20
928.341
 11
141.882
 21
928.909
  0
LINE
  8
0
 10
141.882
 20
928.909
 11
141.545
 21
929.439
  0
LINE
  8
0
 10
141.545
 20
929.439
 11
141.145
 21
929.923
  0
LINE
  8
0
 10
141.145
 20
929.923
 11
140.687
 21
930.353
  0
LINE
  8
0
 10
140.687
 20
930.353
 11
140.179
 21
930.722
  0
LINE
  8
0
 10
140.179
 20
930.722
 11
139.629
 21
931.024
  0
LINE
  8
0
 10
139.629
 20
931.024
 11
139.045
 21
931.255
  0
LINE
  8
0
 10
139.045
 20
931.255
 11
138.437
 21
931.411
  0
LINE
  8
0
 10
138.437
 20
931.411
 11
137.814
 21
931.49
  0
LINE
  8
0
 10
137.814
 20
931.49
 11
-137.814
 21
931.49
  0
LINE
  8
0
 10
-137.814
 20
931.49
 11
-138.437
 21
931.411
  0
LINE
  8
0
 10
-138.437
 20
931.411
 11
-139.045
 21
931.255
  0
LINE
  8
0
 10
-139.045
 20
931.255
 11
-139.629
 21
931.024
  0
LINE
  8
0
 10
-139.629
 20
931.024
 11
-140.179
 21
930.722
  0
LINE
  8
0
 10
-140.179
 20
930.722
 11
-140.687
 21
930.353
  0
LINE
  8
0
 10
-140.687
 20
930.353
 11
-141
 21
930.059
  0
LINE
  8
0
 10
-141
 20
930.059
 11
-141
 21
931.49
  0
LINE
  8
0
 10
-141
 20
931.49
 11
-144
 21
931.49
  0
LINE
  8
0
 10
-144
 20
931.49
 11
-144
 21
796.51
  0
LINE
  8
0
 10
-144
 20
796.51
 11
-141
 21
796.51
  0
LINE
  8
0
 10
-141
 20
796.51
 11
-141
 21
797.941
  0
LINE
  8
0
 10
-137.251
 20
798.008
 11
-137.75
 21
798.071
  0
LINE
  8
0
 10
-137.75
 20
798.071
 11
-138.236
 21
798.196
  0
LINE
  8
0
 10
-138.236
 20
798.196
 11
-138.703
 21
798.381
  0
LINE
  8
0
 10
-138.703
 20
798.381
 11
-139.143
 21
798.623
  0
LINE
  8
0
 10
-139.143
 20
798.623
 11
-139.55
 21
798.918
  0
LINE
  8
0
 10
-139.55
 20
798.918
 11
-139.916
 21
799.262
  0
LINE
  8
0
 10
-139.916
 20
799.262
 11
-140.236
 21
799.649
  0
LINE
  8
0
 10
-140.236
 20
799.649
 11
-140.505
 21
800.073
  0
LINE
  8
0
 10
-140.505
 20
800.073
 11
-140.719
 21
800.528
  0
LINE
  8
0
 10
-140.719
 20
800.528
 11
-140.874
 21
801.005
  0
LINE
  8
0
 10
-140.874
 20
801.005
 11
-140.968
 21
801.499
  0
LINE
  8
0
 10
-140.968
 20
801.499
 11
-141
 21
802
  0
LINE
  8
0
 10
-141
 20
802
 11
-141
 21
926
  0
LINE
  8
0
 10
-141
 20
926
 11
-140.968
 21
926.501
  0
LINE
  8
0
 10
-140.968
 20
926.501
 11
-140.874
 21
926.995
  0
LINE
  8
0
 10
-140.874
 20
926.995
 11
-140.719
 21
927.472
  0
LINE
  8
0
 10
-140.719
 20
927.472
 11
-140.505
 21
927.927
  0
LINE
  8
0
 10
-140.505
 20
927.927
 11
-140.236
 21
928.351
  0
LINE
  8
0
 10
-140.236
 20
928.351
 11
-139.916
 21
928.738
  0
LINE
  8
0
 10
-139.916
 20
928.738
 11
-139.55
 21
929.082
  0
LINE
  8
0
 10
-139.55
 20
929.082
 11
-139.143
 21
929.377
  0
LINE
  8
0
 10
-139.143
 20
929.377
 11
-138.703
 21
929.619
  0
LINE
  8
0
 10
-138.703
 20
929.619
 11
-138.236
 21
929.804
  0
LINE
  8
0
 10
-138.236
 20
929.804
 11
-137.75
 21
929.929
  0
LINE
  8
0
 10
-137.75
 20
929.929
 11
-137.251
 21
929.992
  0
LINE
  8
0
 10
-137.251
 20
929.992
 11
137.251
 21
929.992
  0
LINE
  8
0
 10
137.251
 20
929.992
 11
137.75
 21
929.929
  0
LINE
  8
0
 10
137.75
 20
929.929
 11
138.236
 21
929.804
  0
LINE
  8
0
 10
138.236
 20
929.804
 11
138.703
 21
929.619
  0
LINE
  8
0
 10
138.703
 20
929.619
 11
139.143
 21
929.377
  0
LINE
  8
0
 10
139.143
 20
929.377
 11
139.55
 21
929.082
  0
LINE
  8
0
 10
139.55
 20
929.082
 11
139.916
 21
928.738
  0
LINE
  8
0
 10
139.916
 20
928.738
 11
140.236
 21
928.351
  0
LINE
  8
0
 10
140.236
 20
928.351
 11
140.505
 21
927.927
  0
LINE
  8
0
 10
140.505
 20
927.927
 11
140.719
 21
927.472
  0
LINE
  8
0
 10
140.719
 20
927.472
 11
140.874
 21
926.995
  0
LINE
  8
0
 10
140.874
 20
926.995
 11
140.968
 21
926.501
  0
LINE
  8
0
 10
140.968
 20
926.501
 11
141
 21
926
  0
LINE
  8
0
 10
141
 20
926
 11
141
 21
802
  0
LINE
  8
0
 10
141
 20
802
 11
140.968
 21
801.499
  0
LINE
  8
0
 10
140.968
 20
801.499
 11
140.874
 21
801.005
  0
LINE
  8
0
 10
140.874
 20
801.005
 11
140.719
 21
800.528
  0
LINE
  8
0
 10
140.719
 20
800.528
 11
140.505
 21
800.073
  0
LINE
  8
0
 10
140.505
 20
800.073
 11
140.236
 21
799.649
  0
LINE
  8
0
 10
140.236
 20
799.649
 11
139.916
 21
799.262
  0
LINE
  8
0
 10
139.916
 20
799.262
 11
139.55
 21
798.918
  0
LINE
  8
0
 10
139.55
 20
798.918
 11
139.143
 21
798.623
  0
LINE
  8
0
 10
139.143
 20
798.623
 11
138.703
 21
798.381
  0
LINE
  8
0
 10
138.703
 20
798.381
 11
138.236
 21
798.196
  0
LINE
  8
0
 10
138.236
 20
798.196
 11
137.75
 21
798.071
  0
LINE
  8
0
 10
137.75
 20
798.071
 11
137.251
 21
798.008
  0
LINE
  8
0
 10
137.251
 20
798.008
 11
-137.251
 21
798.008
  0
LINE
  8
0
 10
-141
 20
653.941
 11
-140.687
 21
653.647
  0
LINE
  8
0
 10
-140.687
 20
653.647
 11
-140.179
 21
653.278
  0
LINE
  8
0
 10
-140.179
 20
653.278
 11
-139.629
 21
652.976
  0
LINE
  8
0
 10
-139.629
 20
652.976
 11
-139.045
 21
652.745
  0
LINE
  8
0
 10
-139.045
 20
652.745
 11
-138.437
 21
652.589
  0
LINE
  8
0
 10
-138.437
 20
652.589
 11
-137.814
 21
652.51
  0
LINE
  8
0
 10
-137.814
 20
652.51
 11
137.814
 21
652.51
  0
LINE
  8
0
 10
137.814
 20
652.51
 11
138.437
 21
652.589
  0
LINE
  8
0
 10
138.437
 20
652.589
 11
139.045
 21
652.745
  0
LINE
  8
0
 10
139.045
 20
652.745
 11
139.629
 21
652.976
  0
LINE
  8
0
 10
139.629
 20
652.976
 11
140.179
 21
653.278
  0
LINE
  8
0
 10
140.179
 20
653.278
 11
140.687
 21
653.647
  0
LINE
  8
0
 10
140.687
 20
653.647
 11
141.145
 21
654.077
  0
LINE
  8
0
 10
141.145
 20
654.077
 11
141.545
 21
654.561
  0
LINE
  8
0
 10
141.545
 20
654.561
 11
141.882
 21
655.091
  0
LINE
  8
0
 10
141.882
 20
655.091
 11
142.149
 21
655.659
  0
LINE
  8
0
 10
142.149
 20
655.659
 11
142.343
 21
656.257
  0
LINE
  8
0
 10
142.343
 20
656.257
 11
142.461
 21
656.873
  0
LINE
  8
0
 10
142.461
 20
656.873
 11
142.5
 21
657.5
  0
LINE
  8
0
 10
142.5
 20
657.5
 11
142.5
 21
782.5
  0
LINE
  8
0
 10
142.5
 20
782.5
 11
142.461
 21
783.127
  0
LINE
  8
0
 10
142.461
 20
783.127
 11
142.343
 21
783.743
  0
LINE
  8
0
 10
142.343
 20
783.743
 11
142.149
 21
784.341
  0
LINE
  8
0
 10
142.149
 20
784.341
 11
141.882
 21
784.909
  0
LINE
  8
0
 10
141.882
 20
784.909
 11
141.545
 21
785.439
  0
LINE
  8
0
 10
141.545
 20
785.439
 11
141.145
 21
785.923
  0
LINE
  8
0
 10
141.145
 20
785.923
 11
140.687
 21
786.353
  0
LINE
  8
0
 10
140.687
 20
786.353
 11
140.179
 21
786.722
  0
LINE
  8
0
 10
140.179
 20
786.722
 11
139.629
 21
787.024
  0
LINE
  8
0
 10
139.629
 20
787.024
 11
139.045
 21
787.255
  0
LINE
  8
0
 10
139.045
 20
787.255
 11
138.437
 21
787.411
  0
LINE
  8
0
 10
138.437
 20
787.411
 11
137.814
 21
787.49
  0
LINE
  8
0
 10
137.814
 20
787.49
 11
-137.814
 21
787.49
  0
LINE
  8
0
 10
-137.814
 20
787.49
 11
-138.437
 21
787.411
  0
LINE
  8
0
 10
-138.437
 20
787.411
 11
-139.045
 21
787.255
  0
LINE
  8
0
 10
-139.045
 20
787.255
 11
-139.629
 21
787.024
  0
LINE
  8
0
 10
-139.629
 20
787.024
 11
-140.179
 21
786.722
  0
LINE
  8
0
 10
-140.179
 20
786.722
 11
-140.687
 21
786.353
  0
LINE
  8
0
 10
-140.687
 20
786.353
 11
-141
 21
786.059
  0
LINE
  8
0
 10
-141
 20
786.059
 11
-141
 21
787.49
  0
LINE
  8
0
 10
-141
 20
787.49
 11
-144
 21
787.49
  0
LINE
  8
0
 10
-144
 20
787.49
 11
-144
 21
652.51
  0
LINE
  8
0
 10
-144
 20
652.51
 11
-141
 21
652.51
  0
LINE
  8
0
 10
-141
 20
652.51
 11
-141
 21
653.941
  0
LINE
  8
0
 10
-137.243
 20
654.135
 11
-137.726
 21
654.196
  0
LINE
  8
0
 10
-137.726
 20
654.196
 11
-138.197
 21
654.317
  0
LINE
  8
0
 10
-138.197
 20
654.317
 11
-138.649
 21
654.496
  0
LINE
  8
0
 10
-138.649
 20
654.496
 11
-139.075
 21
654.73
  0
LINE
  8
0
 10
-139.075
 20
654.73
 11
-139.469
 21
655.016
  0
LINE
  8
0
 10
-139.469
 20
655.016
 11
-139.823
 21
655.349
  0
LINE
  8
0
 10
-139.823
 20
655.349
 11
-140.133
 21
655.724
  0
LINE
  8
0
 10
-140.133
 20
655.724
 11
-140.394
 21
656.134
  0
LINE
  8
0
 10
-140.394
 20
656.134
 11
-140.601
 21
656.574
  0
LINE
  8
0
 10
-140.601
 20
656.574
 11
-140.751
 21
657.037
  0
LINE
  8
0
 10
-140.751
 20
657.037
 11
-140.842
 21
657.515
  0
LINE
  8
0
 10
-140.842
 20
657.515
 11
-140.873
 21
658
  0
LINE
  8
0
 10
-140.873
 20
658
 11
-140.873
 21
782
  0
LINE
  8
0
 10
-140.873
 20
782
 11
-140.842
 21
782.485
  0
LINE
  8
0
 10
-140.842
 20
782.485
 11
-140.751
 21
782.963
  0
LINE
  8
0
 10
-140.751
 20
782.963
 11
-140.601
 21
783.426
  0
LINE
  8
0
 10
-140.601
 20
783.426
 11
-140.394
 21
783.866
  0
LINE
  8
0
 10
-140.394
 20
783.866
 11
-140.133
 21
784.276
  0
LINE
  8
0
 10
-140.133
 20
784.276
 11
-139.823
 21
784.651
  0
LINE
  8
0
 10
-139.823
 20
784.651
 11
-139.469
 21
784.984
  0
LINE
  8
0
 10
-139.469
 20
784.984
 11
-139.075
 21
785.27
  0
LINE
  8
0
 10
-139.075
 20
785.27
 11
-138.649
 21
785.504
  0
LINE
  8
0
 10
-138.649
 20
785.504
 11
-138.197
 21
785.683
  0
LINE
  8
0
 10
-138.197
 20
785.683
 11
-137.726
 21
785.804
  0
LINE
  8
0
 10
-137.726
 20
785.804
 11
-137.243
 21
785.865
  0
LINE
  8
0
 10
-137.243
 20
785.865
 11
137.243
 21
785.865
  0
LINE
  8
0
 10
137.243
 20
785.865
 11
137.726
 21
785.804
  0
LINE
  8
0
 10
137.726
 20
785.804
 11
138.197
 21
785.683
  0
LINE
  8
0
 10
138.197
 20
785.683
 11
138.649
 21
785.504
  0
LINE
  8
0
 10
138.649
 20
785.504
 11
139.075
 21
785.27
  0
LINE
  8
0
 10
139.075
 20
785.27
 11
139.469
 21
784.984
  0
LINE
  8
0
 10
139.469
 20
784.984
 11
139.823
 21
784.651
  0
LINE
  8
0
 10
139.823
 20
784.651
 11
140.133
 21
784.276
  0
LINE
  8
0
 10
140.133
 20
784.276
 11
140.394
 21
783.866
  0
LINE
  8
0
 10
140.394
 20
783.866
 11
140.601
 21
783.426
  0
LINE
  8
0
 10
140.601
 20
783.426
 11
140.751
 21
782.963
  0
LINE
  8
0
 10
140.751
 20
782.963
 11
140.842
 21
782.485
  0
LINE
  8
0
 10
140.842
 20
782.485
 11
140.873
 21
782
  0
LINE
  8
0
 10
140.873
 20
782
 11
140.873
 21
658
  0
LINE
  8
0
 10
140.873
 20
658
 11
140.842
 21
657.515
  0
LINE
  8
0
 10
140.842
 20
657.515
 11
140.751
 21
657.037
  0
LINE
  8
0
 10
140.751
 20
657.037
 11
140.601
 21
656.574
  0
LINE
  8
0
 10
140.601
 20
656.574
 11
140.394
 21
656.134
  0
LINE
  8
0
 10
140.394
 20
656.134
 11
140.133
 21
655.724
  0
LINE
  8
0
 10
140.133
 20
655.724
 11
139.823
 21
655.349
  0
LINE
  8
0
 10
139.823
 20
655.349
 11
139.469
 21
655.016
  0
LINE
  8
0
 10
139.469
 20
655.016
 11
139.075
 21
654.73
  0
LINE
  8
0
 10
139.075
 20
654.73
 11
138.649
 21
654.496
  0
LINE
  8
0
 10
138.649
 20
654.496
 11
138.197
 21
654.317
  0
LINE
  8
0
 10
138.197
 20
654.317
 11
137.726
 21
654.196
  0
LINE
  8
0
 10
137.726
 20
654.196
 11
137.243
 21
654.135
  0
LINE
  8
0
 10
137.243
 20
654.135
 11
-137.243
 21
654.135
  0
LINE
  8
0
 10
138.437
 20
508.589
 11
139.045
 21
508.745
  0
LINE
  8
0
 10
139.045
 20
508.745
 11
139.629
 21
508.976
  0
LINE
  8
0
 10
139.629
 20
508.976
 11
140.179
 21
509.278
  0
LINE
  8
0
 10
140.179
 20
509.278
 11
140.687
 21
509.647
  0
LINE
  8
0
 10
140.687
 20
509.647
 11
141.145
 21
510.077
  0
LINE
  8
0
 10
141.145
 20
510.077
 11
141.545
 21
510.561
  0
LINE
  8
0
 10
141.545
 20
510.561
 11
141.882
 21
511.091
  0
LINE
  8
0
 10
141.882
 20
511.091
 11
142.149
 21
511.659
  0
LINE
  8
0
 10
142.149
 20
511.659
 11
142.343
 21
512.257
  0
LINE
  8
0
 10
142.343
 20
512.257
 11
142.461
 21
512.873
  0
LINE
  8
0
 10
142.461
 20
512.873
 11
142.5
 21
513.5
  0
LINE
  8
0
 10
142.5
 20
513.5
 11
142.5
 21
638.5
  0
LINE
  8
0
 10
142.5
 20
638.5
 11
142.461
 21
639.127
  0
LINE
  8
0
 10
142.461
 20
639.127
 11
142.343
 21
639.743
  0
LINE
  8
0
 10
142.343
 20
639.743
 11
142.149
 21
640.341
  0
LINE
  8
0
 10
142.149
 20
640.341
 11
141.882
 21
640.909
  0
LINE
  8
0
 10
141.882
 20
640.909
 11
141.545
 21
641.439
  0
LINE
  8
0
 10
141.545
 20
641.439
 11
141.145
 21
641.923
  0
LINE
  8
0
 10
141.145
 20
641.923
 11
140.687
 21
642.353
  0
LINE
  8
0
 10
140.687
 20
642.353
 11
140.179
 21
642.722
  0
LINE
  8
0
 10
140.179
 20
642.722
 11
139.629
 21
643.024
  0
LINE
  8
0
 10
139.629
 20
643.024
 11
139.045
 21
643.255
  0
LINE
  8
0
 10
139.045
 20
643.255
 11
138.437
 21
643.411
  0
LINE
  8
0
 10
138.437
 20
643.411
 11
137.814
 21
643.49
  0
LINE
  8
0
 10
137.814
 20
643.49
 11
-137.814
 21
643.49
  0
LINE
  8
0
 10
-137.814
 20
643.49
 11
-138.437
 21
643.411
  0
LINE
  8
0
 10
-138.437
 20
643.411
 11
-139.045
 21
643.255
  0
LINE
  8
0
 10
-139.045
 20
643.255
 11
-139.629
 21
643.024
  0
LINE
  8
0
 10
-139.629
 20
643.024
 11
-140.179
 21
642.722
  0
LINE
  8
0
 10
-140.179
 20
642.722
 11
-140.687
 21
642.353
  0
LINE
  8
0
 10
-140.687
 20
642.353
 11
-141
 21
642.059
  0
LINE
  8
0
 10
-141
 20
642.059
 11
-141
 21
643.115
  0
LINE
  8
0
 10
-141
 20
643.115
 11
-144
 21
643.115
  0
LINE
  8
0
 10
-144
 20
643.115
 11
-144
 21
508.885
  0
LINE
  8
0
 10
-144
 20
508.885
 11
-141
 21
508.885
  0
LINE
  8
0
 10
-141
 20
508.885
 11
-141
 21
509.941
  0
LINE
  8
0
 10
-141
 20
509.941
 11
-140.687
 21
509.647
  0
LINE
  8
0
 10
-140.687
 20
509.647
 11
-140.179
 21
509.278
  0
LINE
  8
0
 10
-140.179
 20
509.278
 11
-139.629
 21
508.976
  0
LINE
  8
0
 10
-139.629
 20
508.976
 11
-139.045
 21
508.745
  0
LINE
  8
0
 10
-139.045
 20
508.745
 11
-138.437
 21
508.589
  0
LINE
  8
0
 10
-138.437
 20
508.589
 11
-137.814
 21
508.51
  0
LINE
  8
0
 10
-137.814
 20
508.51
 11
137.814
 21
508.51
  0
LINE
  8
0
 10
137.814
 20
508.51
 11
138.437
 21
508.589
  0
LINE
  8
0
 10
-135.151
 20
633.605
 11
-135.45
 21
633.643
  0
LINE
  8
0
 10
-135.45
 20
633.643
 11
-135.742
 21
633.717
  0
LINE
  8
0
 10
-135.742
 20
633.717
 11
-136.022
 21
633.828
  0
LINE
  8
0
 10
-136.022
 20
633.828
 11
-136.286
 21
633.974
  0
LINE
  8
0
 10
-136.286
 20
633.974
 11
-136.53
 21
634.151
  0
LINE
  8
0
 10
-136.53
 20
634.151
 11
-136.75
 21
634.357
  0
LINE
  8
0
 10
-136.75
 20
634.357
 11
-136.942
 21
634.589
  0
LINE
  8
0
 10
-136.942
 20
634.589
 11
-137.103
 21
634.844
  0
LINE
  8
0
 10
-137.103
 20
634.844
 11
-137.231
 21
635.117
  0
LINE
  8
0
 10
-137.231
 20
635.117
 11
-137.325
 21
635.403
  0
LINE
  8
0
 10
-137.325
 20
635.403
 11
-137.381
 21
635.699
  0
LINE
  8
0
 10
-137.381
 20
635.699
 11
-137.4
 21
636
  0
LINE
  8
0
 10
-137.4
 20
636
 11
-137.381
 21
636.301
  0
LINE
  8
0
 10
-137.381
 20
636.301
 11
-137.325
 21
636.597
  0
LINE
  8
0
 10
-137.325
 20
636.597
 11
-137.231
 21
636.883
  0
LINE
  8
0
 10
-137.231
 20
636.883
 11
-137.103
 21
637.156
  0
LINE
  8
0
 10
-137.103
 20
637.156
 11
-136.942
 21
637.411
  0
LINE
  8
0
 10
-136.942
 20
637.411
 11
-136.75
 21
637.643
  0
LINE
  8
0
 10
-136.75
 20
637.643
 11
-136.53
 21
637.849
  0
LINE
  8
0
 10
-136.53
 20
637.849
 11
-136.286
 21
638.026
  0
LINE
  8
0
 10
-136.286
 20
638.026
 11
-136.022
 21
638.172
  0
LINE
  8
0
 10
-136.022
 20
638.172
 11
-135.742
 21
638.283
  0
LINE
  8
0
 10
-135.742
 20
638.283
 11
-135.45
 21
638.357
  0
LINE
  8
0
 10
-135.45
 20
638.357
 11
-135.151
 21
638.395
  0
LINE
  8
0
 10
-135.151
 20
638.395
 11
-134.849
 21
638.395
  0
LINE
  8
0
 10
-134.849
 20
638.395
 11
-134.55
 21
638.357
  0
LINE
  8
0
 10
-134.55
 20
638.357
 11
-134.258
 21
638.283
  0
LINE
  8
0
 10
-134.258
 20
638.283
 11
-133.978
 21
638.172
  0
LINE
  8
0
 10
-133.978
 20
638.172
 11
-133.714
 21
638.026
  0
LINE
  8
0
 10
-133.714
 20
638.026
 11
-133.47
 21
637.849
  0
LINE
  8
0
 10
-133.47
 20
637.849
 11
-133.25
 21
637.643
  0
LINE
  8
0
 10
-133.25
 20
637.643
 11
-133.058
 21
637.411
  0
LINE
  8
0
 10
-133.058
 20
637.411
 11
-132.897
 21
637.156
  0
LINE
  8
0
 10
-132.897
 20
637.156
 11
-132.769
 21
636.883
  0
LINE
  8
0
 10
-132.769
 20
636.883
 11
-132.675
 21
636.597
  0
LINE
  8
0
 10
-132.675
 20
636.597
 11
-132.619
 21
636.301
  0
LINE
  8
0
 10
-132.619
 20
636.301
 11
-132.6
 21
636
  0
LINE
  8
0
 10
-132.6
 20
636
 11
-132.619
 21
635.699
  0
LINE
  8
0
 10
-132.619
 20
635.699
 11
-132.675
 21
635.403
  0
LINE
  8
0
 10
-132.675
 20
635.403
 11
-132.769
 21
635.117
  0
LINE
  8
0
 10
-132.769
 20
635.117
 11
-132.897
 21
634.844
  0
LINE
  8
0
 10
-132.897
 20
634.844
 11
-133.058
 21
634.589
  0
LINE
  8
0
 10
-133.058
 20
634.589
 11
-133.25
 21
634.357
  0
LINE
  8
0
 10
-133.25
 20
634.357
 11
-133.47
 21
634.151
  0
LINE
  8
0
 10
-133.47
 20
634.151
 11
-133.714
 21
633.974
  0
LINE
  8
0
 10
-133.714
 20
633.974
 11
-133.978
 21
633.828
  0
LINE
  8
0
 10
-133.978
 20
633.828
 11
-134.258
 21
633.717
  0
LINE
  8
0
 10
-134.258
 20
633.717
 11
-134.55
 21
633.643
  0
LINE
  8
0
 10
-134.55
 20
633.643
 11
-134.849
 21
633.605
  0
LINE
  8
0
 10
-134.849
 20
633.605
 11
-135.151
 21
633.605
  0
LINE
  8
0
 10
134.849
 20
633.605
 11
134.55
 21
633.643
  0
LINE
  8
0
 10
134.55
 20
633.643
 11
134.258
 21
633.717
  0
LINE
  8
0
 10
134.258
 20
633.717
 11
133.978
 21
633.828
  0
LINE
  8
0
 10
133.978
 20
633.828
 11
133.714
 21
633.974
  0
LINE
  8
0
 10
133.714
 20
633.974
 11
133.47
 21
634.151
  0
LINE
  8
0
 10
133.47
 20
634.151
 11
133.25
 21
634.357
  0
LINE
  8
0
 10
133.25
 20
634.357
 11
133.058
 21
634.589
  0
LINE
  8
0
 10
133.058
 20
634.589
 11
132.897
 21
634.844
  0
LINE
  8
0
 10
132.897
 20
634.844
 11
132.769
 21
635.117
  0
LINE
  8
0
 10
132.769
 20
635.117
 11
132.675
 21
635.403
  0
LINE
  8
0
 10
132.675
 20
635.403
 11
132.619
 21
635.699
  0
LINE
  8
0
 10
132.619
 20
635.699
 11
132.6
 21
636
  0
LINE
  8
0
 10
132.6
 20
636
 11
132.619
 21
636.301
  0
LINE
  8
0
 10
132.619
 20
636.301
 11
132.675
 21
636.597
  0
LINE
  8
0
 10
132.675
 20
636.597
 11
132.769
 21
636.883
  0
LINE
  8
0
 10
132.769
 20
636.883
 11
132.897
 21
637.156
  0
LINE
  8
0
 10
132.897
 20
637.156
 11
133.058
 21
637.411
  0
LINE
  8
0
 10
133.058
 20
637.411
 11
133.25
 21
637.643
  0
LINE
  8
0
 10
133.25
 20
637.643
 11
133.47
 21
637.849
  0
LINE
  8
0
 10
133.47
 20
637.849
 11
133.714
 21
638.026
  0
LINE
  8
0
 10
133.714
 20
638.026
 11
133.978
 21
638.172
  0
LINE
  8
0
 10
133.978
 20
638.172
 11
134.258
 21
638.283
  0
LINE
  8
0
 10
134.258
 20
638.283
 11
134.55
 21
638.357
  0
LINE
  8
0
 10
134.55
 20
638.357
 11
134.849
 21
638.395
  0
LINE
  8
0
 10
134.849
 20
638.395
 11
135.151
 21
638.395
  0
LINE
  8
0
 10
135.151
 20
638.395
 11
135.45
 21
638.357
  0
LINE
  8
0
 10
135.45
 20
638.357
 11
135.742
 21
638.283
  0
LINE
  8
0
 10
135.742
 20
638.283
 11
136.022
 21
638.172
  0
LINE
  8
0
 10
136.022
 20
638.172
 11
136.286
 21
638.026
  0
LINE
  8
0
 10
136.286
 20
638.026
 11
136.53
 21
637.849
  0
LINE
  8
0
 10
136.53
 20
637.849
 11
136.75
 21
637.643
  0
LINE
  8
0
 10
136.75
 20
637.643
 11
136.942
 21
637.411
  0
LINE
  8
0
 10
136.942
 20
637.411
 11
137.103
 21
637.156
  0
LINE
  8
0
 10
137.103
 20
637.156
 11
137.231
 21
636.883
  0
LINE
  8
0
 10
137.231
 20
636.883
 11
137.325
 21
636.597
  0
LINE
  8
0
 10
137.325
 20
636.597
 11
137.381
 21
636.301
  0
LINE
  8
0
 10
137.381
 20
636.301
 11
137.4
 21
636
  0
LINE
  8
0
 10
137.4
 20
636
 11
137.381
 21
635.699
  0
LINE
  8
0
 10
137.381
 20
635.699
 11
137.325
 21
635.403
  0
LINE
  8
0
 10
137.325
 20
635.403
 11
137.231
 21
635.117
  0
LINE
  8
0
 10
137.231
 20
635.117
 11
137.103
 21
634.844
  0
LINE
  8
0
 10
137.103
 20
634.844
 11
136.942
 21
634.589
  0
LINE
  8
0
 10
136.942
 20
634.589
 11
136.75
 21
634.357
  0
LINE
  8
0
 10
136.75
 20
634.357
 11
136.53
 21
634.151
  0
LINE
  8
0
 10
136.53
 20
634.151
 11
136.286
 21
633.974
  0
LINE
  8
0
 10
136.286
 20
633.974
 11
136.022
 21
633.828
  0
LINE
  8
0
 10
136.022
 20
633.828
 11
135.742
 21
633.717
  0
LINE
  8
0
 10
135.742
 20
633.717
 11
135.45
 21
633.643
  0
LINE
  8
0
 10
135.45
 20
633.643
 11
135.151
 21
633.605
  0
LINE
  8
0
 10
135.151
 20
633.605
 11
134.849
 21
633.605
  0
LINE
  8
0
 10
134.849
 20
513.605
 11
134.55
 21
513.643
  0
LINE
  8
0
 10
134.55
 20
513.643
 11
134.258
 21
513.717
  0
LINE
  8
0
 10
134.258
 20
513.717
 11
133.978
 21
513.828
  0
LINE
  8
0
 10
133.978
 20
513.828
 11
133.714
 21
513.974
  0
LINE
  8
0
 10
133.714
 20
513.974
 11
133.47
 21
514.151
  0
LINE
  8
0
 10
133.47
 20
514.151
 11
133.25
 21
514.357
  0
LINE
  8
0
 10
133.25
 20
514.357
 11
133.058
 21
514.589
  0
LINE
  8
0
 10
133.058
 20
514.589
 11
132.897
 21
514.844
  0
LINE
  8
0
 10
132.897
 20
514.844
 11
132.769
 21
515.117
  0
LINE
  8
0
 10
132.769
 20
515.117
 11
132.675
 21
515.403
  0
LINE
  8
0
 10
132.675
 20
515.403
 11
132.619
 21
515.699
  0
LINE
  8
0
 10
132.619
 20
515.699
 11
132.6
 21
516
  0
LINE
  8
0
 10
132.6
 20
516
 11
132.619
 21
516.301
  0
LINE
  8
0
 10
132.619
 20
516.301
 11
132.675
 21
516.597
  0
LINE
  8
0
 10
132.675
 20
516.597
 11
132.769
 21
516.883
  0
LINE
  8
0
 10
132.769
 20
516.883
 11
132.897
 21
517.156
  0
LINE
  8
0
 10
132.897
 20
517.156
 11
133.058
 21
517.411
  0
LINE
  8
0
 10
133.058
 20
517.411
 11
133.25
 21
517.643
  0
LINE
  8
0
 10
133.25
 20
517.643
 11
133.47
 21
517.849
  0
LINE
  8
0
 10
133.47
 20
517.849
 11
133.714
 21
518.026
  0
LINE
  8
0
 10
133.714
 20
518.026
 11
133.978
 21
518.172
  0
LINE
  8
0
 10
133.978
 20
518.172
 11
134.258
 21
518.283
  0
LINE
  8
0
 10
134.258
 20
518.283
 11
134.55
 21
518.357
  0
LINE
  8
0
 10
134.55
 20
518.357
 11
134.849
 21
518.395
  0
LINE
  8
0
 10
134.849
 20
518.395
 11
135.151
 21
518.395
  0
LINE
  8
0
 10
135.151
 20
518.395
 11
135.45
 21
518.357
  0
LINE
  8
0
 10
135.45
 20
518.357
 11
135.742
 21
518.283
  0
LINE
  8
0
 10
135.742
 20
518.283
 11
136.022
 21
518.172
  0
LINE
  8
0
 10
136.022
 20
518.172
 11
136.286
 21
518.026
  0
LINE
  8
0
 10
136.286
 20
518.026
 11
136.53
 21
517.849
  0
LINE
  8
0
 10
136.53
 20
517.849
 11
136.75
 21
517.643
  0
LINE
  8
0
 10
136.75
 20
517.643
 11
136.942
 21
517.411
  0
LINE
  8
0
 10
136.942
 20
517.411
 11
137.103
 21
517.156
  0
LINE
  8
0
 10
137.103
 20
517.156
 11
137.231
 21
516.883
  0
LINE
  8
0
 10
137.231
 20
516.883
 11
137.325
 21
516.597
  0
LINE
  8
0
 10
137.325
 20
516.597
 11
137.381
 21
516.301
  0
LINE
  8
0
 10
137.381
 20
516.301
 11
137.4
 21
516
  0
LINE
  8
0
 10
137.4
 20
516
 11
137.381
 21
515.699
  0
LINE
  8
0
 10
137.381
 20
515.699
 11
137.325
 21
515.403
  0
LINE
  8
0
 10
137.325
 20
515.403
 11
137.231
 21
515.117
  0
LINE
  8
0
 10
137.231
 20
515.117
 11
137.103
 21
514.844
  0
LINE
  8
0
 10
137.103
 20
514.844
 11
136.942
 21
514.589
  0
LINE
  8
0
 10
136.942
 20
514.589
 11
136.75
 21
514.357
  0
LINE
  8
0
 10
136.75
 20
514.357
 11
136.53
 21
514.151
  0
LINE
  8
0
 10
136.53
 20
514.151
 11
136.286
 21
513.974
  0
LINE
  8
0
 10
136.286
 20
513.974
 11
136.022
 21
513.828
  0
LINE
  8
0
 10
136.022
 20
513.828
 11
135.742
 21
513.717
  0
LINE
  8
0
 10
135.742
 20
513.717
 11
135.45
 21
513.643
  0
LINE
  8
0
 10
135.45
 20
513.643
 11
135.151
 21
513.605
  0
LINE
  8
0
 10
135.151
 20
513.605
 11
134.849
 21
513.605
  0
LINE
  8
0
 10
-135.151
 20
513.605
 11
-135.45
 21
513.643
  0
LINE
  8
0
 10
-135.45
 20
513.643
 11
-135.742
 21
513.717
  0
LINE
  8
0
 10
-135.742
 20
513.717
 11
-136.022
 21
513.828
  0
LINE
  8
0
 10
-136.022
 20
513.828
 11
-136.286
 21
513.974
  0
LINE
  8
0
 10
-136.286
 20
513.974
 11
-136.53
 21
514.151
  0
LINE
  8
0
 10
-136.53
 20
514.151
 11
-136.75
 21
514.357
  0
LINE
  8
0
 10
-136.75
 20
514.357
 11
-136.942
 21
514.589
  0
LINE
  8
0
 10
-136.942
 20
514.589
 11
-137.103
 21
514.844
  0
LINE
  8
0
 10
-137.103
 20
514.844
 11
-137.231
 21
515.117
  0
LINE
  8
0
 10
-137.231
 20
515.117
 11
-137.325
 21
515.403
  0
LINE
  8
0
 10
-137.325
 20
515.403
 11
-137.381
 21
515.699
  0
LINE
  8
0
 10
-137.381
 20
515.699
 11
-137.4
 21
516
  0
LINE
  8
0
 10
-137.4
 20
516
 11
-137.381
 21
516.301
  0
LINE
  8
0
 10
-137.381
 20
516.301
 11
-137.325
 21
516.597
  0
LINE
  8
0
 10
-137.325
 20
516.597
 11
-137.231
 21
516.883
  0
LINE
  8
0
 10
-137.231
 20
516.883
 11
-137.103
 21
517.156
  0
LINE
  8
0
 10
-137.103
 20
517.156
 11
-136.942
 21
517.411
  0
LINE
  8
0
 10
-136.942
 20
517.411
 11
-136.75
 21
517.643
  0
LINE
  8
0
 10
-136.75
 20
517.643
 11
-136.53
 21
517.849
  0
LINE
  8
0
 10
-136.53
 20
517.849
 11
-136.286
 21
518.026
  0
LINE
  8
0
 10
-136.286
 20
518.026
 11
-136.022
 21
518.172
  0
LINE
  8
0
 10
-136.022
 20
518.172
 11
-135.742
 21
518.283
  0
LINE
  8
0
 10
-135.742
 20
518.283
 11
-135.45
 21
518.357
  0
LINE
  8
0
 10
-135.45
 20
518.357
 11
-135.151
 21
518.395
  0
LINE
  8
0
 10
-135.151
 20
518.395
 11
-134.849
 21
518.395
  0
LINE
  8
0
 10
-134.849
 20
518.395
 11
-134.55
 21
518.357
  0
LINE
  8
0
 10
-134.55
 20
518.357
 11
-134.258
 21
518.283
  0
LINE
  8
0
 10
-134.258
 20
518.283
 11
-133.978
 21
518.172
  0
LINE
  8
0
 10
-133.978
 20
518.172
 11
-133.714
 21
518.026
  0
LINE
  8
0
 10
-133.714
 20
518.026
 11
-133.47
 21
517.849
  0
LINE
  8
0
 10
-133.47
 20
517.849
 11
-133.25
 21
517.643
  0
LINE
  8
0
 10
-133.25
 20
517.643
 11
-133.058
 21
517.411
  0
LINE
  8
0
 10
-133.058
 20
517.411
 11
-132.897
 21
517.156
  0
LINE
  8
0
 10
-132.897
 20
517.156
 11
-132.769
 21
516.883
  0
LINE
  8
0
 10
-132.769
 20
516.883
 11
-132.675
 21
516.597
  0
LINE
  8
0
 10
-132.675
 20
516.597
 11
-132.619
 21
516.301
  0
LINE
  8
0
 10
-132.619
 20
516.301
 11
-132.6
 21
516
  0
LINE
  8
0
 10
-132.6
 20
516
 11
-132.619
 21
515.699
  0
LINE
  8
0
 10
-132.619
 20
515.699
 11
-132.675
 21
515.403
  0
LINE
  8
0
 10
-132.675
 20
515.403
 11
-132.769
 21
515.117
  0
LINE
  8
0
 10
-132.769
 20
515.117
 11
-132.897
 21
514.844
  0
LINE
  8
0
 10
-132.897
 20
514.844
 11
-133.058
 21
514.589
  0
LINE
  8
0
 10
-133.058
 20
514.589
 11
-133.25
 21
514.357
  0
LINE
  8
0
 10
-133.25
 20
514.357
 11
-133.47
 21
514.151
  0
LINE
  8
0
 10
-133.47
 20
514.151
 11
-133.714
 21
513.974
  0
LINE
  8
0
 10
-133.714
 20
513.974
 11
-133.978
 21
513.828
  0
LINE
  8
0
 10
-133.978
 20
513.828
 11
-134.258
 21
513.717
  0
LINE
  8
0
 10
-134.258
 20
513.717
 11
-134.55
 21
513.643
  0
LINE
  8
0
 10
-134.55
 20
513.643
 11
-134.849
 21
513.605
  0
LINE
  8
0
 10
-134.849
 20
513.605
 11
-135.151
 21
513.605
  0
LINE
  8
0
 10
138.437
 20
364.589
 11
139.045
 21
364.745
  0
LINE
  8
0
 10
139.045
 20
364.745
 11
139.629
 21
364.976
  0
LINE
  8
0
 10
139.629
 20
364.976
 11
140.179
 21
365.278
  0
LINE
  8
0
 10
140.179
 20
365.278
 11
140.687
 21
365.647
  0
LINE
  8
0
 10
140.687
 20
365.647
 11
141.145
 21
366.077
  0
LINE
  8
0
 10
141.145
 20
366.077
 11
141.545
 21
366.561
  0
LINE
  8
0
 10
141.545
 20
366.561
 11
141.882
 21
367.091
  0
LINE
  8
0
 10
141.882
 20
367.091
 11
142.149
 21
367.659
  0
LINE
  8
0
 10
142.149
 20
367.659
 11
142.343
 21
368.257
  0
LINE
  8
0
 10
142.343
 20
368.257
 11
142.461
 21
368.873
  0
LINE
  8
0
 10
142.461
 20
368.873
 11
142.5
 21
369.5
  0
LINE
  8
0
 10
142.5
 20
369.5
 11
142.5
 21
494.5
  0
LINE
  8
0
 10
142.5
 20
494.5
 11
142.461
 21
495.127
  0
LINE
  8
0
 10
142.461
 20
495.127
 11
142.343
 21
495.743
  0
LINE
  8
0
 10
142.343
 20
495.743
 11
142.149
 21
496.341
  0
LINE
  8
0
 10
142.149
 20
496.341
 11
141.882
 21
496.909
  0
LINE
  8
0
 10
141.882
 20
496.909
 11
141.545
 21
497.439
  0
LINE
  8
0
 10
141.545
 20
497.439
 11
141.145
 21
497.923
  0
LINE
  8
0
 10
141.145
 20
497.923
 11
140.687
 21
498.353
  0
LINE
  8
0
 10
140.687
 20
498.353
 11
140.179
 21
498.722
  0
LINE
  8
0
 10
140.179
 20
498.722
 11
139.629
 21
499.024
  0
LINE
  8
0
 10
139.629
 20
499.024
 11
139.045
 21
499.255
  0
LINE
  8
0
 10
139.045
 20
499.255
 11
138.437
 21
499.411
  0
LINE
  8
0
 10
138.437
 20
499.411
 11
137.814
 21
499.49
  0
LINE
  8
0
 10
137.814
 20
499.49
 11
-137.814
 21
499.49
  0
LINE
  8
0
 10
-137.814
 20
499.49
 11
-138.437
 21
499.411
  0
LINE
  8
0
 10
-138.437
 20
499.411
 11
-139.045
 21
499.255
  0
LINE
  8
0
 10
-139.045
 20
499.255
 11
-139.629
 21
499.024
  0
LINE
  8
0
 10
-139.629
 20
499.024
 11
-140.179
 21
498.722
  0
LINE
  8
0
 10
-140.179
 20
498.722
 11
-140.687
 21
498.353
  0
LINE
  8
0
 10
-140.687
 20
498.353
 11
-141.145
 21
497.923
  0
LINE
  8
0
 10
-141.145
 20
497.923
 11
-141.545
 21
497.439
  0
LINE
  8
0
 10
-141.545
 20
497.439
 11
-141.882
 21
496.909
  0
LINE
  8
0
 10
-141.882
 20
496.909
 11
-142.149
 21
496.341
  0
LINE
  8
0
 10
-142.149
 20
496.341
 11
-142.343
 21
495.743
  0
LINE
  8
0
 10
-142.343
 20
495.743
 11
-142.4
 21
495.444
  0
LINE
  8
0
 10
-142.4
 20
495.444
 11
-144
 21
495.444
  0
LINE
  8
0
 10
-144
 20
495.444
 11
-144
 21
368.556
  0
LINE
  8
0
 10
-144
 20
368.556
 11
-142.4
 21
368.556
  0
LINE
  8
0
 10
-142.4
 20
368.556
 11
-142.343
 21
368.257
  0
LINE
  8
0
 10
-142.343
 20
368.257
 11
-142.149
 21
367.659
  0
LINE
  8
0
 10
-142.149
 20
367.659
 11
-141.882
 21
367.091
  0
LINE
  8
0
 10
-141.882
 20
367.091
 11
-141.545
 21
366.561
  0
LINE
  8
0
 10
-141.545
 20
366.561
 11
-141.145
 21
366.077
  0
LINE
  8
0
 10
-141.145
 20
366.077
 11
-140.687
 21
365.647
  0
LINE
  8
0
 10
-140.687
 20
365.647
 11
-140.179
 21
365.278
  0
LINE
  8
0
 10
-140.179
 20
365.278
 11
-139.629
 21
364.976
  0
LINE
  8
0
 10
-139.629
 20
364.976
 11
-139.045
 21
364.745
  0
LINE
  8
0
 10
-139.045
 20
364.745
 11
-138.437
 21
364.589
  0
LINE
  8
0
 10
-138.437
 20
364.589
 11
-137.814
 21
364.51
  0
LINE
  8
0
 10
-137.814
 20
364.51
 11
137.814
 21
364.51
  0
LINE
  8
0
 10
137.814
 20
364.51
 11
138.437
 21
364.589
  0
LINE
  8
0
 10
134.887
 20
490.204
 11
134.663
 21
490.232
  0
LINE
  8
0
 10
134.663
 20
490.232
 11
134.444
 21
490.288
  0
LINE
  8
0
 10
134.444
 20
490.288
 11
134.234
 21
490.371
  0
LINE
  8
0
 10
134.234
 20
490.371
 11
134.036
 21
490.48
  0
LINE
  8
0
 10
134.036
 20
490.48
 11
133.853
 21
490.613
  0
LINE
  8
0
 10
133.853
 20
490.613
 11
133.688
 21
490.768
  0
LINE
  8
0
 10
133.688
 20
490.768
 11
133.544
 21
490.942
  0
LINE
  8
0
 10
133.544
 20
490.942
 11
133.423
 21
491.133
  0
LINE
  8
0
 10
133.423
 20
491.133
 11
133.326
 21
491.337
  0
LINE
  8
0
 10
133.326
 20
491.337
 11
133.257
 21
491.552
  0
LINE
  8
0
 10
133.257
 20
491.552
 11
133.214
 21
491.774
  0
LINE
  8
0
 10
133.214
 20
491.774
 11
133.2
 21
492
  0
LINE
  8
0
 10
133.2
 20
492
 11
133.214
 21
492.226
  0
LINE
  8
0
 10
133.214
 20
492.226
 11
133.257
 21
492.448
  0
LINE
  8
0
 10
133.257
 20
492.448
 11
133.326
 21
492.663
  0
LINE
  8
0
 10
133.326
 20
492.663
 11
133.423
 21
492.867
  0
LINE
  8
0
 10
133.423
 20
492.867
 11
133.544
 21
493.058
  0
LINE
  8
0
 10
133.544
 20
493.058
 11
133.688
 21
493.232
  0
LINE
  8
0
 10
133.688
 20
493.232
 11
133.853
 21
493.387
  0
LINE
  8
0
 10
133.853
 20
493.387
 11
134.036
 21
493.52
  0
LINE
  8
0
 10
134.036
 20
493.52
 11
134.234
 21
493.629
  0
LINE
  8
0
 10
134.234
 20
493.629
 11
134.444
 21
493.712
  0
LINE
  8
0
 10
134.444
 20
493.712
 11
134.663
 21
493.768
  0
LINE
  8
0
 10
134.663
 20
493.768
 11
134.887
 21
493.796
  0
LINE
  8
0
 10
134.887
 20
493.796
 11
135.113
 21
493.796
  0
LINE
  8
0
 10
135.113
 20
493.796
 11
135.337
 21
493.768
  0
LINE
  8
0
 10
135.337
 20
493.768
 11
135.556
 21
493.712
  0
LINE
  8
0
 10
135.556
 20
493.712
 11
135.766
 21
493.629
  0
LINE
  8
0
 10
135.766
 20
493.629
 11
135.964
 21
493.52
  0
LINE
  8
0
 10
135.964
 20
493.52
 11
136.147
 21
493.387
  0
LINE
  8
0
 10
136.147
 20
493.387
 11
136.312
 21
493.232
  0
LINE
  8
0
 10
136.312
 20
493.232
 11
136.456
 21
493.058
  0
LINE
  8
0
 10
136.456
 20
493.058
 11
136.577
 21
492.867
  0
LINE
  8
0
 10
136.577
 20
492.867
 11
136.674
 21
492.663
  0
LINE
  8
0
 10
136.674
 20
492.663
 11
136.743
 21
492.448
  0
LINE
  8
0
 10
136.743
 20
492.448
 11
136.786
 21
492.226
  0
LINE
  8
0
 10
136.786
 20
492.226
 11
136.8
 21
492
  0
LINE
  8
0
 10
136.8
 20
492
 11
136.786
 21
491.774
  0
LINE
  8
0
 10
136.786
 20
491.774
 11
136.743
 21
491.552
  0
LINE
  8
0
 10
136.743
 20
491.552
 11
136.674
 21
491.337
  0
LINE
  8
0
 10
136.674
 20
491.337
 11
136.577
 21
491.133
  0
LINE
  8
0
 10
136.577
 20
491.133
 11
136.456
 21
490.942
  0
LINE
  8
0
 10
136.456
 20
490.942
 11
136.312
 21
490.768
  0
LINE
  8
0
 10
136.312
 20
490.768
 11
136.147
 21
490.613
  0
LINE
  8
0
 10
136.147
 20
490.613
 11
135.964
 21
490.48
  0
LINE
  8
0
 10
135.964
 20
490.48
 11
135.766
 21
490.371
  0
LINE
  8
0
 10
135.766
 20
490.371
 11
135.556
 21
490.288
  0
LINE
  8
0
 10
135.556
 20
490.288
 11
135.337
 21
490.232
  0
LINE
  8
0
 10
135.337
 20
490.232
 11
135.113
 21
490.204
  0
LINE
  8
0
 10
135.113
 20
490.204
 11
134.887
 21
490.204
  0
LINE
  8
0
 10
-135.113
 20
490.204
 11
-135.337
 21
490.232
  0
LINE
  8
0
 10
-135.337
 20
490.232
 11
-135.556
 21
490.288
  0
LINE
  8
0
 10
-135.556
 20
490.288
 11
-135.766
 21
490.371
  0
LINE
  8
0
 10
-135.766
 20
490.371
 11
-135.964
 21
490.48
  0
LINE
  8
0
 10
-135.964
 20
490.48
 11
-136.147
 21
490.613
  0
LINE
  8
0
 10
-136.147
 20
490.613
 11
-136.312
 21
490.768
  0
LINE
  8
0
 10
-136.312
 20
490.768
 11
-136.456
 21
490.942
  0
LINE
  8
0
 10
-136.456
 20
490.942
 11
-136.577
 21
491.133
  0
LINE
  8
0
 10
-136.577
 20
491.133
 11
-136.674
 21
491.337
  0
LINE
  8
0
 10
-136.674
 20
491.337
 11
-136.743
 21
491.552
  0
LINE
  8
0
 10
-136.743
 20
491.552
 11
-136.786
 21
491.774
  0
LINE
  8
0
 10
-136.786
 20
491.774
 11
-136.8
 21
492
  0
LINE
  8
0
 10
-136.8
 20
492
 11
-136.786
 21
492.226
  0
LINE
  8
0
 10
-136.786
 20
492.226
 11
-136.743
 21
492.448
  0
LINE
  8
0
 10
-136.743
 20
492.448
 11
-136.674
 21
492.663
  0
LINE
  8
0
 10
-136.674
 20
492.663
 11
-136.577
 21
492.867
  0
LINE
  8
0
 10
-136.577
 20
492.867
 11
-136.456
 21
493.058
  0
LINE
  8
0
 10
-136.456
 20
493.058
 11
-136.312
 21
493.232
  0
LINE
  8
0
 10
-136.312
 20
493.232
 11
-136.147
 21
493.387
  0
LINE
  8
0
 10
-136.147
 20
493.387
 11
-135.964
 21
493.52
  0
LINE
  8
0
 10
-135.964
 20
493.52
 11
-135.766
 21
493.629
  0
LINE
  8
0
 10
-135.766
 20
493.629
 11
-135.556
 21
493.712
  0
LINE
  8
0
 10
-135.556
 20
493.712
 11
-135.337
 21
493.768
  0
LINE
  8
0
 10
-135.337
 20
493.768
 11
-135.113
 21
493.796
  0
LINE
  8
0
 10
-135.113
 20
493.796
 11
-134.887
 21
493.796
  0
LINE
  8
0
 10
-134.887
 20
493.796
 11
-134.663
 21
493.768
  0
LINE
  8
0
 10
-134.663
 20
493.768
 11
-134.444
 21
493.712
  0
LINE
  8
0
 10
-134.444
 20
493.712
 11
-134.234
 21
493.629
  0
LINE
  8
0
 10
-134.234
 20
493.629
 11
-134.036
 21
493.52
  0
LINE
  8
0
 10
-134.036
 20
493.52
 11
-133.853
 21
493.387
  0
LINE
  8
0
 10
-133.853
 20
493.387
 11
-133.688
 21
493.232
  0
LINE
  8
0
 10
-133.688
 20
493.232
 11
-133.544
 21
493.058
  0
LINE
  8
0
 10
-133.544
 20
493.058
 11
-133.423
 21
492.867
  0
LINE
  8
0
 10
-133.423
 20
492.867
 11
-133.326
 21
492.663
  0
LINE
  8
0
 10
-133.326
 20
492.663
 11
-133.257
 21
492.448
  0
LINE
  8
0
 10
-133.257
 20
492.448
 11
-133.214
 21
492.226
  0
LINE
  8
0
 10
-133.214
 20
492.226
 11
-133.2
 21
492
  0
LINE
  8
0
 10
-133.2
 20
492
 11
-133.214
 21
491.774
  0
LINE
  8
0
 10
-133.214
 20
491.774
 11
-133.257
 21
491.552
  0
LINE
  8
0
 10
-133.257
 20
491.552
 11
-133.326
 21
491.337
  0
LINE
  8
0
 10
-133.326
 20
491.337
 11
-133.423
 21
491.133
  0
LINE
  8
0
 10
-133.423
 20
491.133
 11
-133.544
 21
490.942
  0
LINE
  8
0
 10
-133.544
 20
490.942
 11
-133.688
 21
490.768
  0
LINE
  8
0
 10
-133.688
 20
490.768
 11
-133.853
 21
490.613
  0
LINE
  8
0
 10
-133.853
 20
490.613
 11
-134.036
 21
490.48
  0
LINE
  8
0
 10
-134.036
 20
490.48
 11
-134.234
 21
490.371
  0
LINE
  8
0
 10
-134.234
 20
490.371
 11
-134.444
 21
490.288
  0
LINE
  8
0
 10
-134.444
 20
490.288
 11
-134.663
 21
490.232
  0
LINE
  8
0
 10
-134.663
 20
490.232
 11
-134.887
 21
490.204
  0
LINE
  8
0
 10
-134.887
 20
490.204
 11
-135.113
 21
490.204
  0
LINE
  8
0
 10
-135.113
 20
370.204
 11
-135.337
 21
370.232
  0
LINE
  8
0
 10
-135.337
 20
370.232
 11
-135.556
 21
370.288
  0
LINE
  8
0
 10
-135.556
 20
370.288
 11
-135.766
 21
370.371
  0
LINE
  8
0
 10
-135.766
 20
370.371
 11
-135.964
 21
370.48
  0
LINE
  8
0
 10
-135.964
 20
370.48
 11
-136.147
 21
370.613
  0
LINE
  8
0
 10
-136.147
 20
370.613
 11
-136.312
 21
370.768
  0
LINE
  8
0
 10
-136.312
 20
370.768
 11
-136.456
 21
370.942
  0
LINE
  8
0
 10
-136.456
 20
370.942
 11
-136.577
 21
371.133
  0
LINE
  8
0
 10
-136.577
 20
371.133
 11
-136.674
 21
371.337
  0
LINE
  8
0
 10
-136.674
 20
371.337
 11
-136.743
 21
371.552
  0
LINE
  8
0
 10
-136.743
 20
371.552
 11
-136.786
 21
371.774
  0
LINE
  8
0
 10
-136.786
 20
371.774
 11
-136.8
 21
372
  0
LINE
  8
0
 10
-136.8
 20
372
 11
-136.786
 21
372.226
  0
LINE
  8
0
 10
-136.786
 20
372.226
 11
-136.743
 21
372.448
  0
LINE
  8
0
 10
-136.743
 20
372.448
 11
-136.674
 21
372.663
  0
LINE
  8
0
 10
-136.674
 20
372.663
 11
-136.577
 21
372.867
  0
LINE
  8
0
 10
-136.577
 20
372.867
 11
-136.456
 21
373.058
  0
LINE
  8
0
 10
-136.456
 20
373.058
 11
-136.312
 21
373.232
  0
LINE
  8
0
 10
-136.312
 20
373.232
 11
-136.147
 21
373.387
  0
LINE
  8
0
 10
-136.147
 20
373.387
 11
-135.964
 21
373.52
  0
LINE
  8
0
 10
-135.964
 20
373.52
 11
-135.766
 21
373.629
  0
LINE
  8
0
 10
-135.766
 20
373.629
 11
-135.556
 21
373.712
  0
LINE
  8
0
 10
-135.556
 20
373.712
 11
-135.337
 21
373.768
  0
LINE
  8
0
 10
-135.337
 20
373.768
 11
-135.113
 21
373.796
  0
LINE
  8
0
 10
-135.113
 20
373.796
 11
-134.887
 21
373.796
  0
LINE
  8
0
 10
-134.887
 20
373.796
 11
-134.663
 21
373.768
  0
LINE
  8
0
 10
-134.663
 20
373.768
 11
-134.444
 21
373.712
  0
LINE
  8
0
 10
-134.444
 20
373.712
 11
-134.234
 21
373.629
  0
LINE
  8
0
 10
-134.234
 20
373.629
 11
-134.036
 21
373.52
  0
LINE
  8
0
 10
-134.036
 20
373.52
 11
-133.853
 21
373.387
  0
LINE
  8
0
 10
-133.853
 20
373.387
 11
-133.688
 21
373.232
  0
LINE
  8
0
 10
-133.688
 20
373.232
 11
-133.544
 21
373.058
  0
LINE
  8
0
 10
-133.544
 20
373.058
 11
-133.423
 21
372.867
  0
LINE
  8
0
 10
-133.423
 20
372.867
 11
-133.326
 21
372.663
  0
LINE
  8
0
 10
-133.326
 20
372.663
 11
-133.257
 21
372.448
  0
LINE
  8
0
 10
-133.257
 20
372.448
 11
-133.214
 21
372.226
  0
LINE
  8
0
 10
-133.214
 20
372.226
 11
-133.2
 21
372
  0
LINE
  8
0
 10
-133.2
 20
372
 11
-133.214
 21
371.774
  0
LINE
  8
0
 10
-133.214
 20
371.774
 11
-133.257
 21
371.552
  0
LINE
  8
0
 10
-133.257
 20
371.552
 11
-133.326
 21
371.337
  0
LINE
  8
0
 10
-133.326
 20
371.337
 11
-133.423
 21
371.133
  0
LINE
  8
0
 10
-133.423
 20
371.133
 11
-133.544
 21
370.942
  0
LINE
  8
0
 10
-133.544
 20
370.942
 11
-133.688
 21
370.768
  0
LINE
  8
0
 10
-133.688
 20
370.768
 11
-133.853
 21
370.613
  0
LINE
  8
0
 10
-133.853
 20
370.613
 11
-134.036
 21
370.48
  0
LINE
  8
0
 10
-134.036
 20
370.48
 11
-134.234
 21
370.371
  0
LINE
  8
0
 10
-134.234
 20
370.371
 11
-134.444
 21
370.288
  0
LINE
  8
0
 10
-134.444
 20
370.288
 11
-134.663
 21
370.232
  0
LINE
  8
0
 10
-134.663
 20
370.232
 11
-134.887
 21
370.204
  0
LINE
  8
0
 10
-134.887
 20
370.204
 11
-135.113
 21
370.204
  0
LINE
  8
0
 10
134.887
 20
370.204
 11
134.663
 21
370.232
  0
LINE
  8
0
 10
134.663
 20
370.232
 11
134.444
 21
370.288
  0
LINE
  8
0
 10
134.444
 20
370.288
 11
134.234
 21
370.371
  0
LINE
  8
0
 10
134.234
 20
370.371
 11
134.036
 21
370.48
  0
LINE
  8
0
 10
134.036
 20
370.48
 11
133.853
 21
370.613
  0
LINE
  8
0
 10
133.853
 20
370.613
 11
133.688
 21
370.768
  0
LINE
  8
0
 10
133.688
 20
370.768
 11
133.544
 21
370.942
  0
LINE
  8
0
 10
133.544
 20
370.942
 11
133.423
 21
371.133
  0
LINE
  8
0
 10
133.423
 20
371.133
 11
133.326
 21
371.337
  0
LINE
  8
0
 10
133.326
 20
371.337
 11
133.257
 21
371.552
  0
LINE
  8
0
 10
133.257
 20
371.552
 11
133.214
 21
371.774
  0
LINE
  8
0
 10
133.214
 20
371.774
 11
133.2
 21
372
  0
LINE
  8
0
 10
133.2
 20
372
 11
133.214
 21
372.226
  0
LINE
  8
0
 10
133.214
 20
372.226
 11
133.257
 21
372.448
  0
LINE
  8
0
 10
133.257
 20
372.448
 11
133.326
 21
372.663
  0
LINE
  8
0
 10
133.326
 20
372.663
 11
133.423
 21
372.867
  0
LINE
  8
0
 10
133.423
 20
372.867
 11
133.544
 21
373.058
  0
LINE
  8
0
 10
133.544
 20
373.058
 11
133.688
 21
373.232
  0
LINE
  8
0
 10
133.688
 20
373.232
 11
133.853
 21
373.387
  0
LINE
  8
0
 10
133.853
 20
373.387
 11
134.036
 21
373.52
  0
LINE
  8
0
 10
134.036
 20
373.52
 11
134.234
 21
373.629
  0
LINE
  8
0
 10
134.234
 20
373.629
 11
134.444
 21
373.712
  0
LINE
  8
0
 10
134.444
 20
373.712
 11
134.663
 21
373.768
  0
LINE
  8
0
 10
134.663
 20
373.768
 11
134.887
 21
373.796
  0
LINE
  8
0
 10
134.887
 20
373.796
 11
135.113
 21
373.796
  0
LINE
  8
0
 10
135.113
 20
373.796
 11
135.337
 21
373.768
  0
LINE
  8
0
 10
135.337
 20
373.768
 11
135.556
 21
373.712
  0
LINE
  8
0
 10
135.556
 20
373.712
 11
135.766
 21
373.629
  0
LINE
  8
0
 10
135.766
 20
373.629
 11
135.964
 21
373.52
  0
LINE
  8
0
 10
135.964
 20
373.52
 11
136.147
 21
373.387
  0
LINE
  8
0
 10
136.147
 20
373.387
 11
136.312
 21
373.232
  0
LINE
  8
0
 10
136.312
 20
373.232
 11
136.456
 21
373.058
  0
LINE
  8
0
 10
136.456
 20
373.058
 11
136.577
 21
372.867
  0
LINE
  8
0
 10
136.577
 20
372.867
 11
136.674
 21
372.663
  0
LINE
  8
0
 10
136.674
 20
372.663
 11
136.743
 21
372.448
  0
LINE
  8
0
 10
136.743
 20
372.448
 11
136.786
 21
372.226
  0
LINE
  8
0
 10
136.786
 20
372.226
 11
136.8
 21
372
  0
LINE
  8
0
 10
136.8
 20
372
 11
136.786
 21
371.774
  0
LINE
  8
0
 10
136.786
 20
371.774
 11
136.743
 21
371.552
  0
LINE
  8
0
 10
136.743
 20
371.552
 11
136.674
 21
371.337
  0
LINE
  8
0
 10
136.674
 20
371.337
 11
136.577
 21
371.133
  0
LINE
  8
0
 10
136.577
 20
371.133
 11
136.456
 21
370.942
  0
LINE
  8
0
 10
136.456
 20
370.942
 11
136.312
 21
370.768
  0
LINE
  8
0
 10
136.312
 20
370.768
 11
136.147
 21
370.613
  0
LINE
  8
0
 10
136.147
 20
370.613
 11
135.964
 21
370.48
  0
LINE
  8
0
 10
135.964
 20
370.48
 11
135.766
 21
370.371
  0
LINE
  8
0
 10
135.766
 20
370.371
 11
135.556
 21
370.288
  0
LINE
  8
0
 10
135.556
 20
370.288
 11
135.337
 21
370.232
  0
LINE
  8
0
 10
135.337
 20
370.232
 11
135.113
 21
370.204
  0
LINE
  8
0
 10
135.113
 20
370.204
 11
134.887
 21
370.204
  0
ENDSEC
  0
SECTION
  2
OBJECTS
  0
DICTIONARY
  0
ENDSEC
  0
EOF
