  0
SECTION
  2
BLOCKS
  0
ENDSEC
  0
SECTION
  2
ENTITIES
  0
LINE
  8
0
 10
130.937
 20
63.0886
 11
131.545
 21
63.2447
  0
LINE
  8
0
 10
131.545
 20
63.2447
 11
132.129
 21
63.4759
  0
LINE
  8
0
 10
132.129
 20
63.4759
 11
132.679
 21
63.7784
  0
LINE
  8
0
 10
132.679
 20
63.7784
 11
133.187
 21
64.1474
  0
LINE
  8
0
 10
133.187
 20
64.1474
 11
133.645
 21
64.5773
  0
LINE
  8
0
 10
133.645
 20
64.5773
 11
134.045
 21
65.0611
  0
LINE
  8
0
 10
134.045
 20
65.0611
 11
134.382
 21
65.5912
  0
LINE
  8
0
 10
134.382
 20
65.5912
 11
134.649
 21
66.1594
  0
LINE
  8
0
 10
134.649
 20
66.1594
 11
134.843
 21
66.7566
  0
LINE
  8
0
 10
134.843
 20
66.7566
 11
134.961
 21
67.3733
  0
LINE
  8
0
 10
134.961
 20
67.3733
 11
135
 21
68
  0
LINE
  8
0
 10
135
 20
68
 11
135
 21
88
  0
LINE
  8
0
 10
135
 20
88
 11
134.961
 21
88.6267
  0
LINE
  8
0
 10
134.961
 20
88.6267
 11
134.843
 21
89.2434
  0
LINE
  8
0
 10
134.843
 20
89.2434
 11
134.649
 21
89.8406
  0
LINE
  8
0
 10
134.649
 20
89.8406
 11
134.382
 21
90.4088
  0
LINE
  8
0
 10
134.382
 20
90.4088
 11
134.045
 21
90.9389
  0
LINE
  8
0
 10
134.045
 20
90.9389
 11
133.645
 21
91.4227
  0
LINE
  8
0
 10
133.645
 20
91.4227
 11
133.187
 21
91.8526
  0
LINE
  8
0
 10
133.187
 20
91.8526
 11
132.679
 21
92.2216
  0
LINE
  8
0
 10
132.679
 20
92.2216
 11
132.129
 21
92.5241
  0
LINE
  8
0
 10
132.129
 20
92.5241
 11
131.545
 21
92.7553
  0
LINE
  8
0
 10
131.545
 20
92.7553
 11
130.937
 21
92.9114
  0
LINE
  8
0
 10
130.937
 20
92.9114
 11
130.314
 21
92.9901
  0
LINE
  8
0
 10
130.314
 20
92.9901
 11
-130.314
 21
92.9901
  0
LINE
  8
0
 10
-130.314
 20
92.9901
 11
-130.937
 21
92.9114
  0
LINE
  8
0
 10
-130.937
 20
92.9114
 11
-131.545
 21
92.7553
  0
LINE
  8
0
 10
-131.545
 20
92.7553
 11
-132.129
 21
92.5241
  0
LINE
  8
0
 10
-132.129
 20
92.5241
 11
-132.679
 21
92.2216
  0
LINE
  8
0
 10
-132.679
 20
92.2216
 11
-133.187
 21
91.8526
  0
LINE
  8
0
 10
-133.187
 20
91.8526
 11
-133.5
 21
91.5587
  0
LINE
  8
0
 10
-133.5
 20
91.5587
 11
-133.5
 21
92.6148
  0
LINE
  8
0
 10
-133.5
 20
92.6148
 11
-136.5
 21
92.6148
  0
LINE
  8
0
 10
-136.5
 20
92.6148
 11
-136.5
 21
63.3852
  0
LINE
  8
0
 10
-136.5
 20
63.3852
 11
-133.5
 21
63.3852
  0
LINE
  8
0
 10
-133.5
 20
63.3852
 11
-133.5
 21
64.4413
  0
LINE
  8
0
 10
-133.5
 20
64.4413
 11
-133.187
 21
64.1474
  0
LINE
  8
0
 10
-133.187
 20
64.1474
 11
-132.679
 21
63.7784
  0
LINE
  8
0
 10
-132.679
 20
63.7784
 11
-132.129
 21
63.4759
  0
LINE
  8
0
 10
-132.129
 20
63.4759
 11
-131.545
 21
63.2447
  0
LINE
  8
0
 10
-131.545
 20
63.2447
 11
-130.937
 21
63.0886
  0
LINE
  8
0
 10
-130.937
 20
63.0886
 11
-130.314
 21
63.0099
  0
LINE
  8
0
 10
-130.314
 20
63.0099
 11
130.314
 21
63.0099
  0
LINE
  8
0
 10
130.314
 20
63.0099
 11
130.937
 21
63.0886
  0
LINE
  8
0
 10
127.349
 20
83.1047
 11
127.05
 21
83.1425
  0
LINE
  8
0
 10
127.05
 20
83.1425
 11
126.758
 21
83.2175
  0
LINE
  8
0
 10
126.758
 20
83.2175
 11
126.478
 21
83.3284
  0
LINE
  8
0
 10
126.478
 20
83.3284
 11
126.214
 21
83.4736
  0
LINE
  8
0
 10
126.214
 20
83.4736
 11
125.97
 21
83.6508
  0
LINE
  8
0
 10
125.97
 20
83.6508
 11
125.75
 21
83.8571
  0
LINE
  8
0
 10
125.75
 20
83.8571
 11
125.558
 21
84.0893
  0
LINE
  8
0
 10
125.558
 20
84.0893
 11
125.397
 21
84.3438
  0
LINE
  8
0
 10
125.397
 20
84.3438
 11
125.269
 21
84.6165
  0
LINE
  8
0
 10
125.269
 20
84.6165
 11
125.175
 21
84.9031
  0
LINE
  8
0
 10
125.175
 20
84.9031
 11
125.119
 21
85.1992
  0
LINE
  8
0
 10
125.119
 20
85.1992
 11
125.1
 21
85.5
  0
LINE
  8
0
 10
125.1
 20
85.5
 11
125.119
 21
85.8008
  0
LINE
  8
0
 10
125.119
 20
85.8008
 11
125.175
 21
86.0968
  0
LINE
  8
0
 10
125.175
 20
86.0968
 11
125.269
 21
86.3835
  0
LINE
  8
0
 10
125.269
 20
86.3835
 11
125.397
 21
86.6562
  0
LINE
  8
0
 10
125.397
 20
86.6562
 11
125.558
 21
86.9107
  0
LINE
  8
0
 10
125.558
 20
86.9107
 11
125.75
 21
87.1429
  0
LINE
  8
0
 10
125.75
 20
87.1429
 11
125.97
 21
87.3492
  0
LINE
  8
0
 10
125.97
 20
87.3492
 11
126.214
 21
87.5264
  0
LINE
  8
0
 10
126.214
 20
87.5264
 11
126.478
 21
87.6716
  0
LINE
  8
0
 10
126.478
 20
87.6716
 11
126.758
 21
87.7825
  0
LINE
  8
0
 10
126.758
 20
87.7825
 11
127.05
 21
87.8575
  0
LINE
  8
0
 10
127.05
 20
87.8575
 11
127.349
 21
87.8953
  0
LINE
  8
0
 10
127.349
 20
87.8953
 11
127.651
 21
87.8953
  0
LINE
  8
0
 10
127.651
 20
87.8953
 11
127.95
 21
87.8575
  0
LINE
  8
0
 10
127.95
 20
87.8575
 11
128.242
 21
87.7825
  0
LINE
  8
0
 10
128.242
 20
87.7825
 11
128.522
 21
87.6716
  0
LINE
  8
0
 10
128.522
 20
87.6716
 11
128.786
 21
87.5264
  0
LINE
  8
0
 10
128.786
 20
87.5264
 11
129.03
 21
87.3492
  0
LINE
  8
0
 10
129.03
 20
87.3492
 11
129.25
 21
87.1429
  0
LINE
  8
0
 10
129.25
 20
87.1429
 11
129.442
 21
86.9107
  0
LINE
  8
0
 10
129.442
 20
86.9107
 11
129.603
 21
86.6562
  0
LINE
  8
0
 10
129.603
 20
86.6562
 11
129.731
 21
86.3835
  0
LINE
  8
0
 10
129.731
 20
86.3835
 11
129.825
 21
86.0968
  0
LINE
  8
0
 10
129.825
 20
86.0968
 11
129.881
 21
85.8008
  0
LINE
  8
0
 10
129.881
 20
85.8008
 11
129.9
 21
85.5
  0
LINE
  8
0
 10
129.9
 20
85.5
 11
129.881
 21
85.1992
  0
LINE
  8
0
 10
129.881
 20
85.1992
 11
129.825
 21
84.9031
  0
LINE
  8
0
 10
129.825
 20
84.9031
 11
129.731
 21
84.6165
  0
LINE
  8
0
 10
129.731
 20
84.6165
 11
129.603
 21
84.3438
  0
LINE
  8
0
 10
129.603
 20
84.3438
 11
129.442
 21
84.0893
  0
LINE
  8
0
 10
129.442
 20
84.0893
 11
129.25
 21
83.8571
  0
LINE
  8
0
 10
129.25
 20
83.8571
 11
129.03
 21
83.6508
  0
LINE
  8
0
 10
129.03
 20
83.6508
 11
128.786
 21
83.4736
  0
LINE
  8
0
 10
128.786
 20
83.4736
 11
128.522
 21
83.3284
  0
LINE
  8
0
 10
128.522
 20
83.3284
 11
128.242
 21
83.2175
  0
LINE
  8
0
 10
128.242
 20
83.2175
 11
127.95
 21
83.1425
  0
LINE
  8
0
 10
127.95
 20
83.1425
 11
127.651
 21
83.1047
  0
LINE
  8
0
 10
127.651
 20
83.1047
 11
127.349
 21
83.1047
  0
LINE
  8
0
 10
-127.651
 20
83.1047
 11
-127.95
 21
83.1425
  0
LINE
  8
0
 10
-127.95
 20
83.1425
 11
-128.242
 21
83.2175
  0
LINE
  8
0
 10
-128.242
 20
83.2175
 11
-128.522
 21
83.3284
  0
LINE
  8
0
 10
-128.522
 20
83.3284
 11
-128.786
 21
83.4736
  0
LINE
  8
0
 10
-128.786
 20
83.4736
 11
-129.03
 21
83.6508
  0
LINE
  8
0
 10
-129.03
 20
83.6508
 11
-129.25
 21
83.8571
  0
LINE
  8
0
 10
-129.25
 20
83.8571
 11
-129.442
 21
84.0893
  0
LINE
  8
0
 10
-129.442
 20
84.0893
 11
-129.603
 21
84.3438
  0
LINE
  8
0
 10
-129.603
 20
84.3438
 11
-129.731
 21
84.6165
  0
LINE
  8
0
 10
-129.731
 20
84.6165
 11
-129.825
 21
84.9031
  0
LINE
  8
0
 10
-129.825
 20
84.9031
 11
-129.881
 21
85.1992
  0
LINE
  8
0
 10
-129.881
 20
85.1992
 11
-129.9
 21
85.5
  0
LINE
  8
0
 10
-129.9
 20
85.5
 11
-129.881
 21
85.8008
  0
LINE
  8
0
 10
-129.881
 20
85.8008
 11
-129.825
 21
86.0968
  0
LINE
  8
0
 10
-129.825
 20
86.0968
 11
-129.731
 21
86.3835
  0
LINE
  8
0
 10
-129.731
 20
86.3835
 11
-129.603
 21
86.6562
  0
LINE
  8
0
 10
-129.603
 20
86.6562
 11
-129.442
 21
86.9107
  0
LINE
  8
0
 10
-129.442
 20
86.9107
 11
-129.25
 21
87.1429
  0
LINE
  8
0
 10
-129.25
 20
87.1429
 11
-129.03
 21
87.3492
  0
LINE
  8
0
 10
-129.03
 20
87.3492
 11
-128.786
 21
87.5264
  0
LINE
  8
0
 10
-128.786
 20
87.5264
 11
-128.522
 21
87.6716
  0
LINE
  8
0
 10
-128.522
 20
87.6716
 11
-128.242
 21
87.7825
  0
LINE
  8
0
 10
-128.242
 20
87.7825
 11
-127.95
 21
87.8575
  0
LINE
  8
0
 10
-127.95
 20
87.8575
 11
-127.651
 21
87.8953
  0
LINE
  8
0
 10
-127.651
 20
87.8953
 11
-127.349
 21
87.8953
  0
LINE
  8
0
 10
-127.349
 20
87.8953
 11
-127.05
 21
87.8575
  0
LINE
  8
0
 10
-127.05
 20
87.8575
 11
-126.758
 21
87.7825
  0
LINE
  8
0
 10
-126.758
 20
87.7825
 11
-126.478
 21
87.6716
  0
LINE
  8
0
 10
-126.478
 20
87.6716
 11
-126.214
 21
87.5264
  0
LINE
  8
0
 10
-126.214
 20
87.5264
 11
-125.97
 21
87.3492
  0
LINE
  8
0
 10
-125.97
 20
87.3492
 11
-125.75
 21
87.1429
  0
LINE
  8
0
 10
-125.75
 20
87.1429
 11
-125.558
 21
86.9107
  0
LINE
  8
0
 10
-125.558
 20
86.9107
 11
-125.397
 21
86.6562
  0
LINE
  8
0
 10
-125.397
 20
86.6562
 11
-125.269
 21
86.3835
  0
LINE
  8
0
 10
-125.269
 20
86.3835
 11
-125.175
 21
86.0968
  0
LINE
  8
0
 10
-125.175
 20
86.0968
 11
-125.119
 21
85.8008
  0
LINE
  8
0
 10
-125.119
 20
85.8008
 11
-125.1
 21
85.5
  0
LINE
  8
0
 10
-125.1
 20
85.5
 11
-125.119
 21
85.1992
  0
LINE
  8
0
 10
-125.119
 20
85.1992
 11
-125.175
 21
84.9031
  0
LINE
  8
0
 10
-125.175
 20
84.9031
 11
-125.269
 21
84.6165
  0
LINE
  8
0
 10
-125.269
 20
84.6165
 11
-125.397
 21
84.3438
  0
LINE
  8
0
 10
-125.397
 20
84.3438
 11
-125.558
 21
84.0893
  0
LINE
  8
0
 10
-125.558
 20
84.0893
 11
-125.75
 21
83.8571
  0
LINE
  8
0
 10
-125.75
 20
83.8571
 11
-125.97
 21
83.6508
  0
LINE
  8
0
 10
-125.97
 20
83.6508
 11
-126.214
 21
83.4736
  0
LINE
  8
0
 10
-126.214
 20
83.4736
 11
-126.478
 21
83.3284
  0
LINE
  8
0
 10
-126.478
 20
83.3284
 11
-126.758
 21
83.2175
  0
LINE
  8
0
 10
-126.758
 20
83.2175
 11
-127.05
 21
83.1425
  0
LINE
  8
0
 10
-127.05
 20
83.1425
 11
-127.349
 21
83.1047
  0
LINE
  8
0
 10
-127.349
 20
83.1047
 11
-127.651
 21
83.1047
  0
LINE
  8
0
 10
127.349
 20
68.1047
 11
127.05
 21
68.1425
  0
LINE
  8
0
 10
127.05
 20
68.1425
 11
126.758
 21
68.2175
  0
LINE
  8
0
 10
126.758
 20
68.2175
 11
126.478
 21
68.3284
  0
LINE
  8
0
 10
126.478
 20
68.3284
 11
126.214
 21
68.4736
  0
LINE
  8
0
 10
126.214
 20
68.4736
 11
125.97
 21
68.6508
  0
LINE
  8
0
 10
125.97
 20
68.6508
 11
125.75
 21
68.8571
  0
LINE
  8
0
 10
125.75
 20
68.8571
 11
125.558
 21
69.0893
  0
LINE
  8
0
 10
125.558
 20
69.0893
 11
125.397
 21
69.3438
  0
LINE
  8
0
 10
125.397
 20
69.3438
 11
125.269
 21
69.6165
  0
LINE
  8
0
 10
125.269
 20
69.6165
 11
125.175
 21
69.9032
  0
LINE
  8
0
 10
125.175
 20
69.9032
 11
125.119
 21
70.1992
  0
LINE
  8
0
 10
125.119
 20
70.1992
 11
125.1
 21
70.5
  0
LINE
  8
0
 10
125.1
 20
70.5
 11
125.119
 21
70.8008
  0
LINE
  8
0
 10
125.119
 20
70.8008
 11
125.175
 21
71.0969
  0
LINE
  8
0
 10
125.175
 20
71.0969
 11
125.269
 21
71.3835
  0
LINE
  8
0
 10
125.269
 20
71.3835
 11
125.397
 21
71.6562
  0
LINE
  8
0
 10
125.397
 20
71.6562
 11
125.558
 21
71.9107
  0
LINE
  8
0
 10
125.558
 20
71.9107
 11
125.75
 21
72.1429
  0
LINE
  8
0
 10
125.75
 20
72.1429
 11
125.97
 21
72.3492
  0
LINE
  8
0
 10
125.97
 20
72.3492
 11
126.214
 21
72.5264
  0
LINE
  8
0
 10
126.214
 20
72.5264
 11
126.478
 21
72.6716
  0
LINE
  8
0
 10
126.478
 20
72.6716
 11
126.758
 21
72.7825
  0
LINE
  8
0
 10
126.758
 20
72.7825
 11
127.05
 21
72.8575
  0
LINE
  8
0
 10
127.05
 20
72.8575
 11
127.349
 21
72.8953
  0
LINE
  8
0
 10
127.349
 20
72.8953
 11
127.651
 21
72.8953
  0
LINE
  8
0
 10
127.651
 20
72.8953
 11
127.95
 21
72.8575
  0
LINE
  8
0
 10
127.95
 20
72.8575
 11
128.242
 21
72.7825
  0
LINE
  8
0
 10
128.242
 20
72.7825
 11
128.522
 21
72.6716
  0
LINE
  8
0
 10
128.522
 20
72.6716
 11
128.786
 21
72.5264
  0
LINE
  8
0
 10
128.786
 20
72.5264
 11
129.03
 21
72.3492
  0
LINE
  8
0
 10
129.03
 20
72.3492
 11
129.25
 21
72.1429
  0
LINE
  8
0
 10
129.25
 20
72.1429
 11
129.442
 21
71.9107
  0
LINE
  8
0
 10
129.442
 20
71.9107
 11
129.603
 21
71.6562
  0
LINE
  8
0
 10
129.603
 20
71.6562
 11
129.731
 21
71.3835
  0
LINE
  8
0
 10
129.731
 20
71.3835
 11
129.825
 21
71.0969
  0
LINE
  8
0
 10
129.825
 20
71.0969
 11
129.881
 21
70.8008
  0
LINE
  8
0
 10
129.881
 20
70.8008
 11
129.9
 21
70.5
  0
LINE
  8
0
 10
129.9
 20
70.5
 11
129.881
 21
70.1992
  0
LINE
  8
0
 10
129.881
 20
70.1992
 11
129.825
 21
69.9032
  0
LINE
  8
0
 10
129.825
 20
69.9032
 11
129.731
 21
69.6165
  0
LINE
  8
0
 10
129.731
 20
69.6165
 11
129.603
 21
69.3438
  0
LINE
  8
0
 10
129.603
 20
69.3438
 11
129.442
 21
69.0893
  0
LINE
  8
0
 10
129.442
 20
69.0893
 11
129.25
 21
68.8571
  0
LINE
  8
0
 10
129.25
 20
68.8571
 11
129.03
 21
68.6508
  0
LINE
  8
0
 10
129.03
 20
68.6508
 11
128.786
 21
68.4736
  0
LINE
  8
0
 10
128.786
 20
68.4736
 11
128.522
 21
68.3284
  0
LINE
  8
0
 10
128.522
 20
68.3284
 11
128.242
 21
68.2175
  0
LINE
  8
0
 10
128.242
 20
68.2175
 11
127.95
 21
68.1425
  0
LINE
  8
0
 10
127.95
 20
68.1425
 11
127.651
 21
68.1047
  0
LINE
  8
0
 10
127.651
 20
68.1047
 11
127.349
 21
68.1047
  0
LINE
  8
0
 10
-127.651
 20
68.1047
 11
-127.95
 21
68.1425
  0
LINE
  8
0
 10
-127.95
 20
68.1425
 11
-128.242
 21
68.2175
  0
LINE
  8
0
 10
-128.242
 20
68.2175
 11
-128.522
 21
68.3284
  0
LINE
  8
0
 10
-128.522
 20
68.3284
 11
-128.786
 21
68.4736
  0
LINE
  8
0
 10
-128.786
 20
68.4736
 11
-129.03
 21
68.6508
  0
LINE
  8
0
 10
-129.03
 20
68.6508
 11
-129.25
 21
68.8571
  0
LINE
  8
0
 10
-129.25
 20
68.8571
 11
-129.442
 21
69.0893
  0
LINE
  8
0
 10
-129.442
 20
69.0893
 11
-129.603
 21
69.3438
  0
LINE
  8
0
 10
-129.603
 20
69.3438
 11
-129.731
 21
69.6165
  0
LINE
  8
0
 10
-129.731
 20
69.6165
 11
-129.825
 21
69.9032
  0
LINE
  8
0
 10
-129.825
 20
69.9032
 11
-129.881
 21
70.1992
  0
LINE
  8
0
 10
-129.881
 20
70.1992
 11
-129.9
 21
70.5
  0
LINE
  8
0
 10
-129.9
 20
70.5
 11
-129.881
 21
70.8008
  0
LINE
  8
0
 10
-129.881
 20
70.8008
 11
-129.825
 21
71.0969
  0
LINE
  8
0
 10
-129.825
 20
71.0969
 11
-129.731
 21
71.3835
  0
LINE
  8
0
 10
-129.731
 20
71.3835
 11
-129.603
 21
71.6562
  0
LINE
  8
0
 10
-129.603
 20
71.6562
 11
-129.442
 21
71.9107
  0
LINE
  8
0
 10
-129.442
 20
71.9107
 11
-129.25
 21
72.1429
  0
LINE
  8
0
 10
-129.25
 20
72.1429
 11
-129.03
 21
72.3492
  0
LINE
  8
0
 10
-129.03
 20
72.3492
 11
-128.786
 21
72.5264
  0
LINE
  8
0
 10
-128.786
 20
72.5264
 11
-128.522
 21
72.6716
  0
LINE
  8
0
 10
-128.522
 20
72.6716
 11
-128.242
 21
72.7825
  0
LINE
  8
0
 10
-128.242
 20
72.7825
 11
-127.95
 21
72.8575
  0
LINE
  8
0
 10
-127.95
 20
72.8575
 11
-127.651
 21
72.8953
  0
LINE
  8
0
 10
-127.651
 20
72.8953
 11
-127.349
 21
72.8953
  0
LINE
  8
0
 10
-127.349
 20
72.8953
 11
-127.05
 21
72.8575
  0
LINE
  8
0
 10
-127.05
 20
72.8575
 11
-126.758
 21
72.7825
  0
LINE
  8
0
 10
-126.758
 20
72.7825
 11
-126.478
 21
72.6716
  0
LINE
  8
0
 10
-126.478
 20
72.6716
 11
-126.214
 21
72.5264
  0
LINE
  8
0
 10
-126.214
 20
72.5264
 11
-125.97
 21
72.3492
  0
LINE
  8
0
 10
-125.97
 20
72.3492
 11
-125.75
 21
72.1429
  0
LINE
  8
0
 10
-125.75
 20
72.1429
 11
-125.558
 21
71.9107
  0
LINE
  8
0
 10
-125.558
 20
71.9107
 11
-125.397
 21
71.6562
  0
LINE
  8
0
 10
-125.397
 20
71.6562
 11
-125.269
 21
71.3835
  0
LINE
  8
0
 10
-125.269
 20
71.3835
 11
-125.175
 21
71.0969
  0
LINE
  8
0
 10
-125.175
 20
71.0969
 11
-125.119
 21
70.8008
  0
LINE
  8
0
 10
-125.119
 20
70.8008
 11
-125.1
 21
70.5
  0
LINE
  8
0
 10
-125.1
 20
70.5
 11
-125.119
 21
70.1992
  0
LINE
  8
0
 10
-125.119
 20
70.1992
 11
-125.175
 21
69.9032
  0
LINE
  8
0
 10
-125.175
 20
69.9032
 11
-125.269
 21
69.6165
  0
LINE
  8
0
 10
-125.269
 20
69.6165
 11
-125.397
 21
69.3438
  0
LINE
  8
0
 10
-125.397
 20
69.3438
 11
-125.558
 21
69.0893
  0
LINE
  8
0
 10
-125.558
 20
69.0893
 11
-125.75
 21
68.8571
  0
LINE
  8
0
 10
-125.75
 20
68.8571
 11
-125.97
 21
68.6508
  0
LINE
  8
0
 10
-125.97
 20
68.6508
 11
-126.214
 21
68.4736
  0
LINE
  8
0
 10
-126.214
 20
68.4736
 11
-126.478
 21
68.3284
  0
LINE
  8
0
 10
-126.478
 20
68.3284
 11
-126.758
 21
68.2175
  0
LINE
  8
0
 10
-126.758
 20
68.2175
 11
-127.05
 21
68.1425
  0
LINE
  8
0
 10
-127.05
 20
68.1425
 11
-127.349
 21
68.1047
  0
LINE
  8
0
 10
-127.349
 20
68.1047
 11
-127.651
 21
68.1047
  0
LINE
  8
0
 10
130.937
 20
24.0886
 11
131.545
 21
24.2447
  0
LINE
  8
0
 10
131.545
 20
24.2447
 11
132.129
 21
24.4759
  0
LINE
  8
0
 10
132.129
 20
24.4759
 11
132.679
 21
24.7784
  0
LINE
  8
0
 10
132.679
 20
24.7784
 11
133.187
 21
25.1474
  0
LINE
  8
0
 10
133.187
 20
25.1474
 11
133.645
 21
25.5773
  0
LINE
  8
0
 10
133.645
 20
25.5773
 11
134.045
 21
26.0611
  0
LINE
  8
0
 10
134.045
 20
26.0611
 11
134.382
 21
26.5912
  0
LINE
  8
0
 10
134.382
 20
26.5912
 11
134.649
 21
27.1594
  0
LINE
  8
0
 10
134.649
 20
27.1594
 11
134.843
 21
27.7566
  0
LINE
  8
0
 10
134.843
 20
27.7566
 11
134.961
 21
28.3733
  0
LINE
  8
0
 10
134.961
 20
28.3733
 11
135
 21
29
  0
LINE
  8
0
 10
135
 20
29
 11
135
 21
49
  0
LINE
  8
0
 10
135
 20
49
 11
134.961
 21
49.6267
  0
LINE
  8
0
 10
134.961
 20
49.6267
 11
134.843
 21
50.2434
  0
LINE
  8
0
 10
134.843
 20
50.2434
 11
134.649
 21
50.8406
  0
LINE
  8
0
 10
134.649
 20
50.8406
 11
134.382
 21
51.4088
  0
LINE
  8
0
 10
134.382
 20
51.4088
 11
134.045
 21
51.9389
  0
LINE
  8
0
 10
134.045
 20
51.9389
 11
133.645
 21
52.4227
  0
LINE
  8
0
 10
133.645
 20
52.4227
 11
133.187
 21
52.8526
  0
LINE
  8
0
 10
133.187
 20
52.8526
 11
132.679
 21
53.2216
  0
LINE
  8
0
 10
132.679
 20
53.2216
 11
132.129
 21
53.5241
  0
LINE
  8
0
 10
132.129
 20
53.5241
 11
131.545
 21
53.7553
  0
LINE
  8
0
 10
131.545
 20
53.7553
 11
130.937
 21
53.9114
  0
LINE
  8
0
 10
130.937
 20
53.9114
 11
130.314
 21
53.9901
  0
LINE
  8
0
 10
130.314
 20
53.9901
 11
-130.314
 21
53.9901
  0
LINE
  8
0
 10
-130.314
 20
53.9901
 11
-130.937
 21
53.9114
  0
LINE
  8
0
 10
-130.937
 20
53.9114
 11
-131.545
 21
53.7553
  0
LINE
  8
0
 10
-131.545
 20
53.7553
 11
-132.129
 21
53.5241
  0
LINE
  8
0
 10
-132.129
 20
53.5241
 11
-132.679
 21
53.2216
  0
LINE
  8
0
 10
-132.679
 20
53.2216
 11
-133.187
 21
52.8526
  0
LINE
  8
0
 10
-133.187
 20
52.8526
 11
-133.645
 21
52.4227
  0
LINE
  8
0
 10
-133.645
 20
52.4227
 11
-134.045
 21
51.9389
  0
LINE
  8
0
 10
-134.045
 20
51.9389
 11
-134.382
 21
51.4088
  0
LINE
  8
0
 10
-134.382
 20
51.4088
 11
-134.649
 21
50.8406
  0
LINE
  8
0
 10
-134.649
 20
50.8406
 11
-134.843
 21
50.2434
  0
LINE
  8
0
 10
-134.843
 20
50.2434
 11
-134.9
 21
49.9442
  0
LINE
  8
0
 10
-134.9
 20
49.9442
 11
-136.5
 21
49.9442
  0
LINE
  8
0
 10
-136.5
 20
49.9442
 11
-136.5
 21
28.0558
  0
LINE
  8
0
 10
-136.5
 20
28.0558
 11
-134.9
 21
28.0558
  0
LINE
  8
0
 10
-134.9
 20
28.0558
 11
-134.843
 21
27.7566
  0
LINE
  8
0
 10
-134.843
 20
27.7566
 11
-134.649
 21
27.1594
  0
LINE
  8
0
 10
-134.649
 20
27.1594
 11
-134.382
 21
26.5912
  0
LINE
  8
0
 10
-134.382
 20
26.5912
 11
-134.045
 21
26.0611
  0
LINE
  8
0
 10
-134.045
 20
26.0611
 11
-133.645
 21
25.5773
  0
LINE
  8
0
 10
-133.645
 20
25.5773
 11
-133.187
 21
25.1474
  0
LINE
  8
0
 10
-133.187
 20
25.1474
 11
-132.679
 21
24.7784
  0
LINE
  8
0
 10
-132.679
 20
24.7784
 11
-132.129
 21
24.4759
  0
LINE
  8
0
 10
-132.129
 20
24.4759
 11
-131.545
 21
24.2447
  0
LINE
  8
0
 10
-131.545
 20
24.2447
 11
-130.937
 21
24.0886
  0
LINE
  8
0
 10
-130.937
 20
24.0886
 11
-130.314
 21
24.0099
  0
LINE
  8
0
 10
-130.314
 20
24.0099
 11
130.314
 21
24.0099
  0
LINE
  8
0
 10
130.314
 20
24.0099
 11
130.937
 21
24.0886
  0
LINE
  8
0
 10
127.387
 20
44.7036
 11
127.163
 21
44.7319
  0
LINE
  8
0
 10
127.163
 20
44.7319
 11
126.944
 21
44.7881
  0
LINE
  8
0
 10
126.944
 20
44.7881
 11
126.734
 21
44.8713
  0
LINE
  8
0
 10
126.734
 20
44.8713
 11
126.536
 21
44.9802
  0
LINE
  8
0
 10
126.536
 20
44.9802
 11
126.353
 21
45.1131
  0
LINE
  8
0
 10
126.353
 20
45.1131
 11
126.188
 21
45.2678
  0
LINE
  8
0
 10
126.188
 20
45.2678
 11
126.044
 21
45.442
  0
LINE
  8
0
 10
126.044
 20
45.442
 11
125.923
 21
45.6328
  0
LINE
  8
0
 10
125.923
 20
45.6328
 11
125.826
 21
45.8374
  0
LINE
  8
0
 10
125.826
 20
45.8374
 11
125.757
 21
46.0524
  0
LINE
  8
0
 10
125.757
 20
46.0524
 11
125.714
 21
46.2744
  0
LINE
  8
0
 10
125.714
 20
46.2744
 11
125.7
 21
46.5
  0
LINE
  8
0
 10
125.7
 20
46.5
 11
125.714
 21
46.7256
  0
LINE
  8
0
 10
125.714
 20
46.7256
 11
125.757
 21
46.9476
  0
LINE
  8
0
 10
125.757
 20
46.9476
 11
125.826
 21
47.1626
  0
LINE
  8
0
 10
125.826
 20
47.1626
 11
125.923
 21
47.3671
  0
LINE
  8
0
 10
125.923
 20
47.3671
 11
126.044
 21
47.558
  0
LINE
  8
0
 10
126.044
 20
47.558
 11
126.188
 21
47.7322
  0
LINE
  8
0
 10
126.188
 20
47.7322
 11
126.353
 21
47.8869
  0
LINE
  8
0
 10
126.353
 20
47.8869
 11
126.536
 21
48.0198
  0
LINE
  8
0
 10
126.536
 20
48.0198
 11
126.734
 21
48.1287
  0
LINE
  8
0
 10
126.734
 20
48.1287
 11
126.944
 21
48.2119
  0
LINE
  8
0
 10
126.944
 20
48.2119
 11
127.163
 21
48.2681
  0
LINE
  8
0
 10
127.163
 20
48.2681
 11
127.387
 21
48.2964
  0
LINE
  8
0
 10
127.387
 20
48.2964
 11
127.613
 21
48.2964
  0
LINE
  8
0
 10
127.613
 20
48.2964
 11
127.837
 21
48.2681
  0
LINE
  8
0
 10
127.837
 20
48.2681
 11
128.056
 21
48.2119
  0
LINE
  8
0
 10
128.056
 20
48.2119
 11
128.266
 21
48.1287
  0
LINE
  8
0
 10
128.266
 20
48.1287
 11
128.464
 21
48.0198
  0
LINE
  8
0
 10
128.464
 20
48.0198
 11
128.647
 21
47.8869
  0
LINE
  8
0
 10
128.647
 20
47.8869
 11
128.812
 21
47.7322
  0
LINE
  8
0
 10
128.812
 20
47.7322
 11
128.956
 21
47.558
  0
LINE
  8
0
 10
128.956
 20
47.558
 11
129.077
 21
47.3671
  0
LINE
  8
0
 10
129.077
 20
47.3671
 11
129.174
 21
47.1626
  0
LINE
  8
0
 10
129.174
 20
47.1626
 11
129.243
 21
46.9476
  0
LINE
  8
0
 10
129.243
 20
46.9476
 11
129.286
 21
46.7256
  0
LINE
  8
0
 10
129.286
 20
46.7256
 11
129.3
 21
46.5
  0
LINE
  8
0
 10
129.3
 20
46.5
 11
129.286
 21
46.2744
  0
LINE
  8
0
 10
129.286
 20
46.2744
 11
129.243
 21
46.0524
  0
LINE
  8
0
 10
129.243
 20
46.0524
 11
129.174
 21
45.8374
  0
LINE
  8
0
 10
129.174
 20
45.8374
 11
129.077
 21
45.6328
  0
LINE
  8
0
 10
129.077
 20
45.6328
 11
128.956
 21
45.442
  0
LINE
  8
0
 10
128.956
 20
45.442
 11
128.812
 21
45.2678
  0
LINE
  8
0
 10
128.812
 20
45.2678
 11
128.647
 21
45.1131
  0
LINE
  8
0
 10
128.647
 20
45.1131
 11
128.464
 21
44.9802
  0
LINE
  8
0
 10
128.464
 20
44.9802
 11
128.266
 21
44.8713
  0
LINE
  8
0
 10
128.266
 20
44.8713
 11
128.056
 21
44.7881
  0
LINE
  8
0
 10
128.056
 20
44.7881
 11
127.837
 21
44.7319
  0
LINE
  8
0
 10
127.837
 20
44.7319
 11
127.613
 21
44.7036
  0
LINE
  8
0
 10
127.613
 20
44.7036
 11
127.387
 21
44.7036
  0
LINE
  8
0
 10
-127.613
 20
44.7036
 11
-127.837
 21
44.7319
  0
LINE
  8
0
 10
-127.837
 20
44.7319
 11
-128.056
 21
44.7881
  0
LINE
  8
0
 10
-128.056
 20
44.7881
 11
-128.266
 21
44.8713
  0
LINE
  8
0
 10
-128.266
 20
44.8713
 11
-128.464
 21
44.9802
  0
LINE
  8
0
 10
-128.464
 20
44.9802
 11
-128.647
 21
45.1131
  0
LINE
  8
0
 10
-128.647
 20
45.1131
 11
-128.812
 21
45.2678
  0
LINE
  8
0
 10
-128.812
 20
45.2678
 11
-128.956
 21
45.442
  0
LINE
  8
0
 10
-128.956
 20
45.442
 11
-129.077
 21
45.6328
  0
LINE
  8
0
 10
-129.077
 20
45.6328
 11
-129.174
 21
45.8374
  0
LINE
  8
0
 10
-129.174
 20
45.8374
 11
-129.243
 21
46.0524
  0
LINE
  8
0
 10
-129.243
 20
46.0524
 11
-129.286
 21
46.2744
  0
LINE
  8
0
 10
-129.286
 20
46.2744
 11
-129.3
 21
46.5
  0
LINE
  8
0
 10
-129.3
 20
46.5
 11
-129.286
 21
46.7256
  0
LINE
  8
0
 10
-129.286
 20
46.7256
 11
-129.243
 21
46.9476
  0
LINE
  8
0
 10
-129.243
 20
46.9476
 11
-129.174
 21
47.1626
  0
LINE
  8
0
 10
-129.174
 20
47.1626
 11
-129.077
 21
47.3671
  0
LINE
  8
0
 10
-129.077
 20
47.3671
 11
-128.956
 21
47.558
  0
LINE
  8
0
 10
-128.956
 20
47.558
 11
-128.812
 21
47.7322
  0
LINE
  8
0
 10
-128.812
 20
47.7322
 11
-128.647
 21
47.8869
  0
LINE
  8
0
 10
-128.647
 20
47.8869
 11
-128.464
 21
48.0198
  0
LINE
  8
0
 10
-128.464
 20
48.0198
 11
-128.266
 21
48.1287
  0
LINE
  8
0
 10
-128.266
 20
48.1287
 11
-128.056
 21
48.2119
  0
LINE
  8
0
 10
-128.056
 20
48.2119
 11
-127.837
 21
48.2681
  0
LINE
  8
0
 10
-127.837
 20
48.2681
 11
-127.613
 21
48.2964
  0
LINE
  8
0
 10
-127.613
 20
48.2964
 11
-127.387
 21
48.2964
  0
LINE
  8
0
 10
-127.387
 20
48.2964
 11
-127.163
 21
48.2681
  0
LINE
  8
0
 10
-127.163
 20
48.2681
 11
-126.944
 21
48.2119
  0
LINE
  8
0
 10
-126.944
 20
48.2119
 11
-126.734
 21
48.1287
  0
LINE
  8
0
 10
-126.734
 20
48.1287
 11
-126.536
 21
48.0198
  0
LINE
  8
0
 10
-126.536
 20
48.0198
 11
-126.353
 21
47.8869
  0
LINE
  8
0
 10
-126.353
 20
47.8869
 11
-126.188
 21
47.7322
  0
LINE
  8
0
 10
-126.188
 20
47.7322
 11
-126.044
 21
47.558
  0
LINE
  8
0
 10
-126.044
 20
47.558
 11
-125.923
 21
47.3671
  0
LINE
  8
0
 10
-125.923
 20
47.3671
 11
-125.826
 21
47.1626
  0
LINE
  8
0
 10
-125.826
 20
47.1626
 11
-125.757
 21
46.9476
  0
LINE
  8
0
 10
-125.757
 20
46.9476
 11
-125.714
 21
46.7256
  0
LINE
  8
0
 10
-125.714
 20
46.7256
 11
-125.7
 21
46.5
  0
LINE
  8
0
 10
-125.7
 20
46.5
 11
-125.714
 21
46.2744
  0
LINE
  8
0
 10
-125.714
 20
46.2744
 11
-125.757
 21
46.0524
  0
LINE
  8
0
 10
-125.757
 20
46.0524
 11
-125.826
 21
45.8374
  0
LINE
  8
0
 10
-125.826
 20
45.8374
 11
-125.923
 21
45.6328
  0
LINE
  8
0
 10
-125.923
 20
45.6328
 11
-126.044
 21
45.442
  0
LINE
  8
0
 10
-126.044
 20
45.442
 11
-126.188
 21
45.2678
  0
LINE
  8
0
 10
-126.188
 20
45.2678
 11
-126.353
 21
45.1131
  0
LINE
  8
0
 10
-126.353
 20
45.1131
 11
-126.536
 21
44.9802
  0
LINE
  8
0
 10
-126.536
 20
44.9802
 11
-126.734
 21
44.8713
  0
LINE
  8
0
 10
-126.734
 20
44.8713
 11
-126.944
 21
44.7881
  0
LINE
  8
0
 10
-126.944
 20
44.7881
 11
-127.163
 21
44.7319
  0
LINE
  8
0
 10
-127.163
 20
44.7319
 11
-127.387
 21
44.7036
  0
LINE
  8
0
 10
-127.387
 20
44.7036
 11
-127.613
 21
44.7036
  0
LINE
  8
0
 10
-127.613
 20
29.7036
 11
-127.837
 21
29.7319
  0
LINE
  8
0
 10
-127.837
 20
29.7319
 11
-128.056
 21
29.7881
  0
LINE
  8
0
 10
-128.056
 20
29.7881
 11
-128.266
 21
29.8713
  0
LINE
  8
0
 10
-128.266
 20
29.8713
 11
-128.464
 21
29.9802
  0
LINE
  8
0
 10
-128.464
 20
29.9802
 11
-128.647
 21
30.1131
  0
LINE
  8
0
 10
-128.647
 20
30.1131
 11
-128.812
 21
30.2678
  0
LINE
  8
0
 10
-128.812
 20
30.2678
 11
-128.956
 21
30.442
  0
LINE
  8
0
 10
-128.956
 20
30.442
 11
-129.077
 21
30.6329
  0
LINE
  8
0
 10
-129.077
 20
30.6329
 11
-129.174
 21
30.8374
  0
LINE
  8
0
 10
-129.174
 20
30.8374
 11
-129.243
 21
31.0524
  0
LINE
  8
0
 10
-129.243
 20
31.0524
 11
-129.286
 21
31.2744
  0
LINE
  8
0
 10
-129.286
 20
31.2744
 11
-129.3
 21
31.5
  0
LINE
  8
0
 10
-129.3
 20
31.5
 11
-129.286
 21
31.7256
  0
LINE
  8
0
 10
-129.286
 20
31.7256
 11
-129.243
 21
31.9476
  0
LINE
  8
0
 10
-129.243
 20
31.9476
 11
-129.174
 21
32.1626
  0
LINE
  8
0
 10
-129.174
 20
32.1626
 11
-129.077
 21
32.3672
  0
LINE
  8
0
 10
-129.077
 20
32.3672
 11
-128.956
 21
32.558
  0
LINE
  8
0
 10
-128.956
 20
32.558
 11
-128.812
 21
32.7322
  0
LINE
  8
0
 10
-128.812
 20
32.7322
 11
-128.647
 21
32.8869
  0
LINE
  8
0
 10
-128.647
 20
32.8869
 11
-128.464
 21
33.0198
  0
LINE
  8
0
 10
-128.464
 20
33.0198
 11
-128.266
 21
33.1287
  0
LINE
  8
0
 10
-128.266
 20
33.1287
 11
-128.056
 21
33.2119
  0
LINE
  8
0
 10
-128.056
 20
33.2119
 11
-127.837
 21
33.2681
  0
LINE
  8
0
 10
-127.837
 20
33.2681
 11
-127.613
 21
33.2964
  0
LINE
  8
0
 10
-127.613
 20
33.2964
 11
-127.387
 21
33.2964
  0
LINE
  8
0
 10
-127.387
 20
33.2964
 11
-127.163
 21
33.2681
  0
LINE
  8
0
 10
-127.163
 20
33.2681
 11
-126.944
 21
33.2119
  0
LINE
  8
0
 10
-126.944
 20
33.2119
 11
-126.734
 21
33.1287
  0
LINE
  8
0
 10
-126.734
 20
33.1287
 11
-126.536
 21
33.0198
  0
LINE
  8
0
 10
-126.536
 20
33.0198
 11
-126.353
 21
32.8869
  0
LINE
  8
0
 10
-126.353
 20
32.8869
 11
-126.188
 21
32.7322
  0
LINE
  8
0
 10
-126.188
 20
32.7322
 11
-126.044
 21
32.558
  0
LINE
  8
0
 10
-126.044
 20
32.558
 11
-125.923
 21
32.3672
  0
LINE
  8
0
 10
-125.923
 20
32.3672
 11
-125.826
 21
32.1626
  0
LINE
  8
0
 10
-125.826
 20
32.1626
 11
-125.757
 21
31.9476
  0
LINE
  8
0
 10
-125.757
 20
31.9476
 11
-125.714
 21
31.7256
  0
LINE
  8
0
 10
-125.714
 20
31.7256
 11
-125.7
 21
31.5
  0
LINE
  8
0
 10
-125.7
 20
31.5
 11
-125.714
 21
31.2744
  0
LINE
  8
0
 10
-125.714
 20
31.2744
 11
-125.757
 21
31.0524
  0
LINE
  8
0
 10
-125.757
 20
31.0524
 11
-125.826
 21
30.8374
  0
LINE
  8
0
 10
-125.826
 20
30.8374
 11
-125.923
 21
30.6329
  0
LINE
  8
0
 10
-125.923
 20
30.6329
 11
-126.044
 21
30.442
  0
LINE
  8
0
 10
-126.044
 20
30.442
 11
-126.188
 21
30.2678
  0
LINE
  8
0
 10
-126.188
 20
30.2678
 11
-126.353
 21
30.1131
  0
LINE
  8
0
 10
-126.353
 20
30.1131
 11
-126.536
 21
29.9802
  0
LINE
  8
0
 10
-126.536
 20
29.9802
 11
-126.734
 21
29.8713
  0
LINE
  8
0
 10
-126.734
 20
29.8713
 11
-126.944
 21
29.7881
  0
LINE
  8
0
 10
-126.944
 20
29.7881
 11
-127.163
 21
29.7319
  0
LINE
  8
0
 10
-127.163
 20
29.7319
 11
-127.387
 21
29.7036
  0
LINE
  8
0
 10
-127.387
 20
29.7036
 11
-127.613
 21
29.7036
  0
LINE
  8
0
 10
127.387
 20
29.7036
 11
127.163
 21
29.7319
  0
LINE
  8
0
 10
127.163
 20
29.7319
 11
126.944
 21
29.7881
  0
LINE
  8
0
 10
126.944
 20
29.7881
 11
126.734
 21
29.8713
  0
LINE
  8
0
 10
126.734
 20
29.8713
 11
126.536
 21
29.9802
  0
LINE
  8
0
 10
126.536
 20
29.9802
 11
126.353
 21
30.1131
  0
LINE
  8
0
 10
126.353
 20
30.1131
 11
126.188
 21
30.2678
  0
LINE
  8
0
 10
126.188
 20
30.2678
 11
126.044
 21
30.442
  0
LINE
  8
0
 10
126.044
 20
30.442
 11
125.923
 21
30.6329
  0
LINE
  8
0
 10
125.923
 20
30.6329
 11
125.826
 21
30.8374
  0
LINE
  8
0
 10
125.826
 20
30.8374
 11
125.757
 21
31.0524
  0
LINE
  8
0
 10
125.757
 20
31.0524
 11
125.714
 21
31.2744
  0
LINE
  8
0
 10
125.714
 20
31.2744
 11
125.7
 21
31.5
  0
LINE
  8
0
 10
125.7
 20
31.5
 11
125.714
 21
31.7256
  0
LINE
  8
0
 10
125.714
 20
31.7256
 11
125.757
 21
31.9476
  0
LINE
  8
0
 10
125.757
 20
31.9476
 11
125.826
 21
32.1626
  0
LINE
  8
0
 10
125.826
 20
32.1626
 11
125.923
 21
32.3672
  0
LINE
  8
0
 10
125.923
 20
32.3672
 11
126.044
 21
32.558
  0
LINE
  8
0
 10
126.044
 20
32.558
 11
126.188
 21
32.7322
  0
LINE
  8
0
 10
126.188
 20
32.7322
 11
126.353
 21
32.8869
  0
LINE
  8
0
 10
126.353
 20
32.8869
 11
126.536
 21
33.0198
  0
LINE
  8
0
 10
126.536
 20
33.0198
 11
126.734
 21
33.1287
  0
LINE
  8
0
 10
126.734
 20
33.1287
 11
126.944
 21
33.2119
  0
LINE
  8
0
 10
126.944
 20
33.2119
 11
127.163
 21
33.2681
  0
LINE
  8
0
 10
127.163
 20
33.2681
 11
127.387
 21
33.2964
  0
LINE
  8
0
 10
127.387
 20
33.2964
 11
127.613
 21
33.2964
  0
LINE
  8
0
 10
127.613
 20
33.2964
 11
127.837
 21
33.2681
  0
LINE
  8
0
 10
127.837
 20
33.2681
 11
128.056
 21
33.2119
  0
LINE
  8
0
 10
128.056
 20
33.2119
 11
128.266
 21
33.1287
  0
LINE
  8
0
 10
128.266
 20
33.1287
 11
128.464
 21
33.0198
  0
LINE
  8
0
 10
128.464
 20
33.0198
 11
128.647
 21
32.8869
  0
LINE
  8
0
 10
128.647
 20
32.8869
 11
128.812
 21
32.7322
  0
LINE
  8
0
 10
128.812
 20
32.7322
 11
128.956
 21
32.558
  0
LINE
  8
0
 10
128.956
 20
32.558
 11
129.077
 21
32.3672
  0
LINE
  8
0
 10
129.077
 20
32.3672
 11
129.174
 21
32.1626
  0
LINE
  8
0
 10
129.174
 20
32.1626
 11
129.243
 21
31.9476
  0
LINE
  8
0
 10
129.243
 20
31.9476
 11
129.286
 21
31.7256
  0
LINE
  8
0
 10
129.286
 20
31.7256
 11
129.3
 21
31.5
  0
LINE
  8
0
 10
129.3
 20
31.5
 11
129.286
 21
31.2744
  0
LINE
  8
0
 10
129.286
 20
31.2744
 11
129.243
 21
31.0524
  0
LINE
  8
0
 10
129.243
 20
31.0524
 11
129.174
 21
30.8374
  0
LINE
  8
0
 10
129.174
 20
30.8374
 11
129.077
 21
30.6329
  0
LINE
  8
0
 10
129.077
 20
30.6329
 11
128.956
 21
30.442
  0
LINE
  8
0
 10
128.956
 20
30.442
 11
128.812
 21
30.2678
  0
LINE
  8
0
 10
128.812
 20
30.2678
 11
128.647
 21
30.1131
  0
LINE
  8
0
 10
128.647
 20
30.1131
 11
128.464
 21
29.9802
  0
LINE
  8
0
 10
128.464
 20
29.9802
 11
128.266
 21
29.8713
  0
LINE
  8
0
 10
128.266
 20
29.8713
 11
128.056
 21
29.7881
  0
LINE
  8
0
 10
128.056
 20
29.7881
 11
127.837
 21
29.7319
  0
LINE
  8
0
 10
127.837
 20
29.7319
 11
127.613
 21
29.7036
  0
LINE
  8
0
 10
127.613
 20
29.7036
 11
127.387
 21
29.7036
  0
ENDSEC
  0
SECTION
  2
OBJECTS
  0
DICTIONARY
  0
ENDSEC
  0
EOF
