<?xml version="1.0" standalone="no"?>
<!DOCTYPE svg PUBLIC "-//W3C//DTD SVG 1.1//EN" "http://www.w3.org/Graphics/SVG/1.1/DTD/svg11.dtd">
<svg width="272mm" height="69mm" viewBox="-137 -93 272 69" xmlns="http://www.w3.org/2000/svg" version="1.1">
<title>OpenSCAD Model</title>
<path d="
M 130.937,-63.0886 L 131.545,-63.2447 L 132.129,-63.4759 L 132.679,-63.7784 L 133.187,-64.1474 L 133.645,-64.5773
 L 134.045,-65.0611 L 134.382,-65.5912 L 134.649,-66.1594 L 134.843,-66.7566 L 134.961,-67.3733 L 135,-68
 L 135,-88 L 134.961,-88.6267 L 134.843,-89.2434 L 134.649,-89.8406 L 134.382,-90.4088 L 134.045,-90.9389
 L 133.645,-91.4227 L 133.187,-91.8526 L 132.679,-92.2216 L 132.129,-92.5241 L 131.545,-92.7553 L 130.937,-92.9114
 L 130.314,-92.9901 L -130.314,-92.9901 L -130.937,-92.9114 L -131.545,-92.7553 L -132.129,-92.5241 L -132.679,-92.2216
 L -133.187,-91.8526 L -133.5,-91.5587 L -133.5,-92.6148 L -136.5,-92.6148 L -136.5,-63.3852 L -133.5,-63.3852
 L -133.5,-64.4413 L -133.187,-64.1474 L -132.679,-63.7784 L -132.129,-63.4759 L -131.545,-63.2447 L -130.937,-63.0886
 L -130.314,-63.0099 L 130.314,-63.0099 z
M 127.349,-83.1047 L 127.05,-83.1425 L 126.758,-83.2175 L 126.478,-83.3284 L 126.214,-83.4736 L 125.97,-83.6508
 L 125.75,-83.8571 L 125.558,-84.0893 L 125.397,-84.3438 L 125.269,-84.6165 L 125.175,-84.9031 L 125.119,-85.1992
 L 125.1,-85.5 L 125.119,-85.8008 L 125.175,-86.0968 L 125.269,-86.3835 L 125.397,-86.6562 L 125.558,-86.9107
 L 125.75,-87.1429 L 125.97,-87.3492 L 126.214,-87.5264 L 126.478,-87.6716 L 126.758,-87.7825 L 127.05,-87.8575
 L 127.349,-87.8953 L 127.651,-87.8953 L 127.95,-87.8575 L 128.242,-87.7825 L 128.522,-87.6716 L 128.786,-87.5264
 L 129.03,-87.3492 L 129.25,-87.1429 L 129.442,-86.9107 L 129.603,-86.6562 L 129.731,-86.3835 L 129.825,-86.0968
 L 129.881,-85.8008 L 129.9,-85.5 L 129.881,-85.1992 L 129.825,-84.9031 L 129.731,-84.6165 L 129.603,-84.3438
 L 129.442,-84.0893 L 129.25,-83.8571 L 129.03,-83.6508 L 128.786,-83.4736 L 128.522,-83.3284 L 128.242,-83.2175
 L 127.95,-83.1425 L 127.651,-83.1047 z
M -127.651,-83.1047 L -127.95,-83.1425 L -128.242,-83.2175 L -128.522,-83.3284 L -128.786,-83.4736 L -129.03,-83.6508
 L -129.25,-83.8571 L -129.442,-84.0893 L -129.603,-84.3438 L -129.731,-84.6165 L -129.825,-84.9031 L -129.881,-85.1992
 L -129.9,-85.5 L -129.881,-85.8008 L -129.825,-86.0968 L -129.731,-86.3835 L -129.603,-86.6562 L -129.442,-86.9107
 L -129.25,-87.1429 L -129.03,-87.3492 L -128.786,-87.5264 L -128.522,-87.6716 L -128.242,-87.7825 L -127.95,-87.8575
 L -127.651,-87.8953 L -127.349,-87.8953 L -127.05,-87.8575 L -126.758,-87.7825 L -126.478,-87.6716 L -126.214,-87.5264
 L -125.97,-87.3492 L -125.75,-87.1429 L -125.558,-86.9107 L -125.397,-86.6562 L -125.269,-86.3835 L -125.175,-86.0968
 L -125.119,-85.8008 L -125.1,-85.5 L -125.119,-85.1992 L -125.175,-84.9031 L -125.269,-84.6165 L -125.397,-84.3438
 L -125.558,-84.0893 L -125.75,-83.8571 L -125.97,-83.6508 L -126.214,-83.4736 L -126.478,-83.3284 L -126.758,-83.2175
 L -127.05,-83.1425 L -127.349,-83.1047 z
M 127.349,-68.1047 L 127.05,-68.1425 L 126.758,-68.2175 L 126.478,-68.3284 L 126.214,-68.4736 L 125.97,-68.6508
 L 125.75,-68.8571 L 125.558,-69.0893 L 125.397,-69.3438 L 125.269,-69.6165 L 125.175,-69.9032 L 125.119,-70.1992
 L 125.1,-70.5 L 125.119,-70.8008 L 125.175,-71.0969 L 125.269,-71.3835 L 125.397,-71.6562 L 125.558,-71.9107
 L 125.75,-72.1429 L 125.97,-72.3492 L 126.214,-72.5264 L 126.478,-72.6716 L 126.758,-72.7825 L 127.05,-72.8575
 L 127.349,-72.8953 L 127.651,-72.8953 L 127.95,-72.8575 L 128.242,-72.7825 L 128.522,-72.6716 L 128.786,-72.5264
 L 129.03,-72.3492 L 129.25,-72.1429 L 129.442,-71.9107 L 129.603,-71.6562 L 129.731,-71.3835 L 129.825,-71.0969
 L 129.881,-70.8008 L 129.9,-70.5 L 129.881,-70.1992 L 129.825,-69.9032 L 129.731,-69.6165 L 129.603,-69.3438
 L 129.442,-69.0893 L 129.25,-68.8571 L 129.03,-68.6508 L 128.786,-68.4736 L 128.522,-68.3284 L 128.242,-68.2175
 L 127.95,-68.1425 L 127.651,-68.1047 z
M -127.651,-68.1047 L -127.95,-68.1425 L -128.242,-68.2175 L -128.522,-68.3284 L -128.786,-68.4736 L -129.03,-68.6508
 L -129.25,-68.8571 L -129.442,-69.0893 L -129.603,-69.3438 L -129.731,-69.6165 L -129.825,-69.9032 L -129.881,-70.1992
 L -129.9,-70.5 L -129.881,-70.8008 L -129.825,-71.0969 L -129.731,-71.3835 L -129.603,-71.6562 L -129.442,-71.9107
 L -129.25,-72.1429 L -129.03,-72.3492 L -128.786,-72.5264 L -128.522,-72.6716 L -128.242,-72.7825 L -127.95,-72.8575
 L -127.651,-72.8953 L -127.349,-72.8953 L -127.05,-72.8575 L -126.758,-72.7825 L -126.478,-72.6716 L -126.214,-72.5264
 L -125.97,-72.3492 L -125.75,-72.1429 L -125.558,-71.9107 L -125.397,-71.6562 L -125.269,-71.3835 L -125.175,-71.0969
 L -125.119,-70.8008 L -125.1,-70.5 L -125.119,-70.1992 L -125.175,-69.9032 L -125.269,-69.6165 L -125.397,-69.3438
 L -125.558,-69.0893 L -125.75,-68.8571 L -125.97,-68.6508 L -126.214,-68.4736 L -126.478,-68.3284 L -126.758,-68.2175
 L -127.05,-68.1425 L -127.349,-68.1047 z
M 130.937,-24.0886 L 131.545,-24.2447 L 132.129,-24.4759 L 132.679,-24.7784 L 133.187,-25.1474 L 133.645,-25.5773
 L 134.045,-26.0611 L 134.382,-26.5912 L 134.649,-27.1594 L 134.843,-27.7566 L 134.961,-28.3733 L 135,-29
 L 135,-49 L 134.961,-49.6267 L 134.843,-50.2434 L 134.649,-50.8406 L 134.382,-51.4088 L 134.045,-51.9389
 L 133.645,-52.4227 L 133.187,-52.8526 L 132.679,-53.2216 L 132.129,-53.5241 L 131.545,-53.7553 L 130.937,-53.9114
 L 130.314,-53.9901 L -130.314,-53.9901 L -130.937,-53.9114 L -131.545,-53.7553 L -132.129,-53.5241 L -132.679,-53.2216
 L -133.187,-52.8526 L -133.645,-52.4227 L -134.045,-51.9389 L -134.382,-51.4088 L -134.649,-50.8406 L -134.843,-50.2434
 L -134.9,-49.9442 L -136.5,-49.9442 L -136.5,-28.0558 L -134.9,-28.0558 L -134.843,-27.7566 L -134.649,-27.1594
 L -134.382,-26.5912 L -134.045,-26.0611 L -133.645,-25.5773 L -133.187,-25.1474 L -132.679,-24.7784 L -132.129,-24.4759
 L -131.545,-24.2447 L -130.937,-24.0886 L -130.314,-24.0099 L 130.314,-24.0099 z
M 127.387,-44.7036 L 127.163,-44.7319 L 126.944,-44.7881 L 126.734,-44.8713 L 126.536,-44.9802 L 126.353,-45.1131
 L 126.188,-45.2678 L 126.044,-45.442 L 125.923,-45.6328 L 125.826,-45.8374 L 125.757,-46.0524 L 125.714,-46.2744
 L 125.7,-46.5 L 125.714,-46.7256 L 125.757,-46.9476 L 125.826,-47.1626 L 125.923,-47.3671 L 126.044,-47.558
 L 126.188,-47.7322 L 126.353,-47.8869 L 126.536,-48.0198 L 126.734,-48.1287 L 126.944,-48.2119 L 127.163,-48.2681
 L 127.387,-48.2964 L 127.613,-48.2964 L 127.837,-48.2681 L 128.056,-48.2119 L 128.266,-48.1287 L 128.464,-48.0198
 L 128.647,-47.8869 L 128.812,-47.7322 L 128.956,-47.558 L 129.077,-47.3671 L 129.174,-47.1626 L 129.243,-46.9476
 L 129.286,-46.7256 L 129.3,-46.5 L 129.286,-46.2744 L 129.243,-46.0524 L 129.174,-45.8374 L 129.077,-45.6328
 L 128.956,-45.442 L 128.812,-45.2678 L 128.647,-45.1131 L 128.464,-44.9802 L 128.266,-44.8713 L 128.056,-44.7881
 L 127.837,-44.7319 L 127.613,-44.7036 z
M -127.613,-44.7036 L -127.837,-44.7319 L -128.056,-44.7881 L -128.266,-44.8713 L -128.464,-44.9802 L -128.647,-45.1131
 L -128.812,-45.2678 L -128.956,-45.442 L -129.077,-45.6328 L -129.174,-45.8374 L -129.243,-46.0524 L -129.286,-46.2744
 L -129.3,-46.5 L -129.286,-46.7256 L -129.243,-46.9476 L -129.174,-47.1626 L -129.077,-47.3671 L -128.956,-47.558
 L -128.812,-47.7322 L -128.647,-47.8869 L -128.464,-48.0198 L -128.266,-48.1287 L -128.056,-48.2119 L -127.837,-48.2681
 L -127.613,-48.2964 L -127.387,-48.2964 L -127.163,-48.2681 L -126.944,-48.2119 L -126.734,-48.1287 L -126.536,-48.0198
 L -126.353,-47.8869 L -126.188,-47.7322 L -126.044,-47.558 L -125.923,-47.3671 L -125.826,-47.1626 L -125.757,-46.9476
 L -125.714,-46.7256 L -125.7,-46.5 L -125.714,-46.2744 L -125.757,-46.0524 L -125.826,-45.8374 L -125.923,-45.6328
 L -126.044,-45.442 L -126.188,-45.2678 L -126.353,-45.1131 L -126.536,-44.9802 L -126.734,-44.8713 L -126.944,-44.7881
 L -127.163,-44.7319 L -127.387,-44.7036 z
M -127.613,-29.7036 L -127.837,-29.7319 L -128.056,-29.7881 L -128.266,-29.8713 L -128.464,-29.9802 L -128.647,-30.1131
 L -128.812,-30.2678 L -128.956,-30.442 L -129.077,-30.6329 L -129.174,-30.8374 L -129.243,-31.0524 L -129.286,-31.2744
 L -129.3,-31.5 L -129.286,-31.7256 L -129.243,-31.9476 L -129.174,-32.1626 L -129.077,-32.3672 L -128.956,-32.558
 L -128.812,-32.7322 L -128.647,-32.8869 L -128.464,-33.0198 L -128.266,-33.1287 L -128.056,-33.2119 L -127.837,-33.2681
 L -127.613,-33.2964 L -127.387,-33.2964 L -127.163,-33.2681 L -126.944,-33.2119 L -126.734,-33.1287 L -126.536,-33.0198
 L -126.353,-32.8869 L -126.188,-32.7322 L -126.044,-32.558 L -125.923,-32.3672 L -125.826,-32.1626 L -125.757,-31.9476
 L -125.714,-31.7256 L -125.7,-31.5 L -125.714,-31.2744 L -125.757,-31.0524 L -125.826,-30.8374 L -125.923,-30.6329
 L -126.044,-30.442 L -126.188,-30.2678 L -126.353,-30.1131 L -126.536,-29.9802 L -126.734,-29.8713 L -126.944,-29.7881
 L -127.163,-29.7319 L -127.387,-29.7036 z
M 127.387,-29.7036 L 127.163,-29.7319 L 126.944,-29.7881 L 126.734,-29.8713 L 126.536,-29.9802 L 126.353,-30.1131
 L 126.188,-30.2678 L 126.044,-30.442 L 125.923,-30.6329 L 125.826,-30.8374 L 125.757,-31.0524 L 125.714,-31.2744
 L 125.7,-31.5 L 125.714,-31.7256 L 125.757,-31.9476 L 125.826,-32.1626 L 125.923,-32.3672 L 126.044,-32.558
 L 126.188,-32.7322 L 126.353,-32.8869 L 126.536,-33.0198 L 126.734,-33.1287 L 126.944,-33.2119 L 127.163,-33.2681
 L 127.387,-33.2964 L 127.613,-33.2964 L 127.837,-33.2681 L 128.056,-33.2119 L 128.266,-33.1287 L 128.464,-33.0198
 L 128.647,-32.8869 L 128.812,-32.7322 L 128.956,-32.558 L 129.077,-32.3672 L 129.174,-32.1626 L 129.243,-31.9476
 L 129.286,-31.7256 L 129.3,-31.5 L 129.286,-31.2744 L 129.243,-31.0524 L 129.174,-30.8374 L 129.077,-30.6329
 L 128.956,-30.442 L 128.812,-30.2678 L 128.647,-30.1131 L 128.464,-29.9802 L 128.266,-29.8713 L 128.056,-29.7881
 L 127.837,-29.7319 L 127.613,-29.7036 z
" stroke="black" fill="lightgray" stroke-width="0.5"/>
</svg>
