  0
SECTION
  2
BLOCKS
  0
ENDSEC
  0
SECTION
  2
ENTITIES
  0
LINE
  8
0
 10
-148.5
 20
259.441
 11
-148.187
 21
259.147
  0
LINE
  8
0
 10
-148.187
 20
259.147
 11
-147.679
 21
258.778
  0
LINE
  8
0
 10
-147.679
 20
258.778
 11
-147.129
 21
258.476
  0
LINE
  8
0
 10
-147.129
 20
258.476
 11
-146.545
 21
258.245
  0
LINE
  8
0
 10
-146.545
 20
258.245
 11
-145.937
 21
258.089
  0
LINE
  8
0
 10
-145.937
 20
258.089
 11
-145.314
 21
258.01
  0
LINE
  8
0
 10
-145.314
 20
258.01
 11
145.314
 21
258.01
  0
LINE
  8
0
 10
145.314
 20
258.01
 11
145.937
 21
258.089
  0
LINE
  8
0
 10
145.937
 20
258.089
 11
146.545
 21
258.245
  0
LINE
  8
0
 10
146.545
 20
258.245
 11
147.129
 21
258.476
  0
LINE
  8
0
 10
147.129
 20
258.476
 11
147.679
 21
258.778
  0
LINE
  8
0
 10
147.679
 20
258.778
 11
148.187
 21
259.147
  0
LINE
  8
0
 10
148.187
 20
259.147
 11
148.645
 21
259.577
  0
LINE
  8
0
 10
148.645
 20
259.577
 11
149.045
 21
260.061
  0
LINE
  8
0
 10
149.045
 20
260.061
 11
149.382
 21
260.591
  0
LINE
  8
0
 10
149.382
 20
260.591
 11
149.649
 21
261.159
  0
LINE
  8
0
 10
149.649
 20
261.159
 11
149.843
 21
261.757
  0
LINE
  8
0
 10
149.843
 20
261.757
 11
149.961
 21
262.373
  0
LINE
  8
0
 10
149.961
 20
262.373
 11
150
 21
263
  0
LINE
  8
0
 10
150
 20
263
 11
150
 21
283
  0
LINE
  8
0
 10
150
 20
283
 11
149.961
 21
283.627
  0
LINE
  8
0
 10
149.961
 20
283.627
 11
149.843
 21
284.243
  0
LINE
  8
0
 10
149.843
 20
284.243
 11
149.649
 21
284.841
  0
LINE
  8
0
 10
149.649
 20
284.841
 11
149.382
 21
285.409
  0
LINE
  8
0
 10
149.382
 20
285.409
 11
149.045
 21
285.939
  0
LINE
  8
0
 10
149.045
 20
285.939
 11
148.645
 21
286.423
  0
LINE
  8
0
 10
148.645
 20
286.423
 11
148.187
 21
286.853
  0
LINE
  8
0
 10
148.187
 20
286.853
 11
147.679
 21
287.222
  0
LINE
  8
0
 10
147.679
 20
287.222
 11
147.129
 21
287.524
  0
LINE
  8
0
 10
147.129
 20
287.524
 11
146.545
 21
287.755
  0
LINE
  8
0
 10
146.545
 20
287.755
 11
145.937
 21
287.911
  0
LINE
  8
0
 10
145.937
 20
287.911
 11
145.314
 21
287.99
  0
LINE
  8
0
 10
145.314
 20
287.99
 11
-145.314
 21
287.99
  0
LINE
  8
0
 10
-145.314
 20
287.99
 11
-145.937
 21
287.911
  0
LINE
  8
0
 10
-145.937
 20
287.911
 11
-146.545
 21
287.755
  0
LINE
  8
0
 10
-146.545
 20
287.755
 11
-147.129
 21
287.524
  0
LINE
  8
0
 10
-147.129
 20
287.524
 11
-147.679
 21
287.222
  0
LINE
  8
0
 10
-147.679
 20
287.222
 11
-148.187
 21
286.853
  0
LINE
  8
0
 10
-148.187
 20
286.853
 11
-148.5
 21
286.559
  0
LINE
  8
0
 10
-148.5
 20
286.559
 11
-148.5
 21
287.99
  0
LINE
  8
0
 10
-148.5
 20
287.99
 11
-151.5
 21
287.99
  0
LINE
  8
0
 10
-151.5
 20
287.99
 11
-151.5
 21
258.01
  0
LINE
  8
0
 10
-151.5
 20
258.01
 11
-148.5
 21
258.01
  0
LINE
  8
0
 10
-148.5
 20
258.01
 11
-148.5
 21
259.441
  0
LINE
  8
0
 10
-144.751
 20
259.508
 11
-145.25
 21
259.571
  0
LINE
  8
0
 10
-145.25
 20
259.571
 11
-145.736
 21
259.696
  0
LINE
  8
0
 10
-145.736
 20
259.696
 11
-146.203
 21
259.881
  0
LINE
  8
0
 10
-146.203
 20
259.881
 11
-146.643
 21
260.123
  0
LINE
  8
0
 10
-146.643
 20
260.123
 11
-147.05
 21
260.418
  0
LINE
  8
0
 10
-147.05
 20
260.418
 11
-147.416
 21
260.762
  0
LINE
  8
0
 10
-147.416
 20
260.762
 11
-147.736
 21
261.149
  0
LINE
  8
0
 10
-147.736
 20
261.149
 11
-148.005
 21
261.573
  0
LINE
  8
0
 10
-148.005
 20
261.573
 11
-148.219
 21
262.028
  0
LINE
  8
0
 10
-148.219
 20
262.028
 11
-148.374
 21
262.505
  0
LINE
  8
0
 10
-148.374
 20
262.505
 11
-148.468
 21
262.999
  0
LINE
  8
0
 10
-148.468
 20
262.999
 11
-148.5
 21
263.5
  0
LINE
  8
0
 10
-148.5
 20
263.5
 11
-148.5
 21
282.5
  0
LINE
  8
0
 10
-148.5
 20
282.5
 11
-148.468
 21
283.001
  0
LINE
  8
0
 10
-148.468
 20
283.001
 11
-148.374
 21
283.495
  0
LINE
  8
0
 10
-148.374
 20
283.495
 11
-148.219
 21
283.972
  0
LINE
  8
0
 10
-148.219
 20
283.972
 11
-148.005
 21
284.427
  0
LINE
  8
0
 10
-148.005
 20
284.427
 11
-147.736
 21
284.851
  0
LINE
  8
0
 10
-147.736
 20
284.851
 11
-147.416
 21
285.238
  0
LINE
  8
0
 10
-147.416
 20
285.238
 11
-147.05
 21
285.582
  0
LINE
  8
0
 10
-147.05
 20
285.582
 11
-146.643
 21
285.877
  0
LINE
  8
0
 10
-146.643
 20
285.877
 11
-146.203
 21
286.119
  0
LINE
  8
0
 10
-146.203
 20
286.119
 11
-145.736
 21
286.304
  0
LINE
  8
0
 10
-145.736
 20
286.304
 11
-145.25
 21
286.429
  0
LINE
  8
0
 10
-145.25
 20
286.429
 11
-144.751
 21
286.492
  0
LINE
  8
0
 10
-144.751
 20
286.492
 11
144.751
 21
286.492
  0
LINE
  8
0
 10
144.751
 20
286.492
 11
145.25
 21
286.429
  0
LINE
  8
0
 10
145.25
 20
286.429
 11
145.736
 21
286.304
  0
LINE
  8
0
 10
145.736
 20
286.304
 11
146.203
 21
286.119
  0
LINE
  8
0
 10
146.203
 20
286.119
 11
146.643
 21
285.877
  0
LINE
  8
0
 10
146.643
 20
285.877
 11
147.05
 21
285.582
  0
LINE
  8
0
 10
147.05
 20
285.582
 11
147.416
 21
285.238
  0
LINE
  8
0
 10
147.416
 20
285.238
 11
147.736
 21
284.851
  0
LINE
  8
0
 10
147.736
 20
284.851
 11
148.005
 21
284.427
  0
LINE
  8
0
 10
148.005
 20
284.427
 11
148.219
 21
283.972
  0
LINE
  8
0
 10
148.219
 20
283.972
 11
148.374
 21
283.495
  0
LINE
  8
0
 10
148.374
 20
283.495
 11
148.468
 21
283.001
  0
LINE
  8
0
 10
148.468
 20
283.001
 11
148.5
 21
282.5
  0
LINE
  8
0
 10
148.5
 20
282.5
 11
148.5
 21
263.5
  0
LINE
  8
0
 10
148.5
 20
263.5
 11
148.468
 21
262.999
  0
LINE
  8
0
 10
148.468
 20
262.999
 11
148.374
 21
262.505
  0
LINE
  8
0
 10
148.374
 20
262.505
 11
148.219
 21
262.028
  0
LINE
  8
0
 10
148.219
 20
262.028
 11
148.005
 21
261.573
  0
LINE
  8
0
 10
148.005
 20
261.573
 11
147.736
 21
261.149
  0
LINE
  8
0
 10
147.736
 20
261.149
 11
147.416
 21
260.762
  0
LINE
  8
0
 10
147.416
 20
260.762
 11
147.05
 21
260.418
  0
LINE
  8
0
 10
147.05
 20
260.418
 11
146.643
 21
260.123
  0
LINE
  8
0
 10
146.643
 20
260.123
 11
146.203
 21
259.881
  0
LINE
  8
0
 10
146.203
 20
259.881
 11
145.736
 21
259.696
  0
LINE
  8
0
 10
145.736
 20
259.696
 11
145.25
 21
259.571
  0
LINE
  8
0
 10
145.25
 20
259.571
 11
144.751
 21
259.508
  0
LINE
  8
0
 10
144.751
 20
259.508
 11
-144.751
 21
259.508
  0
LINE
  8
0
 10
-148.5
 20
220.441
 11
-148.187
 21
220.147
  0
LINE
  8
0
 10
-148.187
 20
220.147
 11
-147.679
 21
219.778
  0
LINE
  8
0
 10
-147.679
 20
219.778
 11
-147.129
 21
219.476
  0
LINE
  8
0
 10
-147.129
 20
219.476
 11
-146.545
 21
219.245
  0
LINE
  8
0
 10
-146.545
 20
219.245
 11
-145.937
 21
219.089
  0
LINE
  8
0
 10
-145.937
 20
219.089
 11
-145.314
 21
219.01
  0
LINE
  8
0
 10
-145.314
 20
219.01
 11
145.314
 21
219.01
  0
LINE
  8
0
 10
145.314
 20
219.01
 11
145.937
 21
219.089
  0
LINE
  8
0
 10
145.937
 20
219.089
 11
146.545
 21
219.245
  0
LINE
  8
0
 10
146.545
 20
219.245
 11
147.129
 21
219.476
  0
LINE
  8
0
 10
147.129
 20
219.476
 11
147.679
 21
219.778
  0
LINE
  8
0
 10
147.679
 20
219.778
 11
148.187
 21
220.147
  0
LINE
  8
0
 10
148.187
 20
220.147
 11
148.645
 21
220.577
  0
LINE
  8
0
 10
148.645
 20
220.577
 11
149.045
 21
221.061
  0
LINE
  8
0
 10
149.045
 20
221.061
 11
149.382
 21
221.591
  0
LINE
  8
0
 10
149.382
 20
221.591
 11
149.649
 21
222.159
  0
LINE
  8
0
 10
149.649
 20
222.159
 11
149.843
 21
222.757
  0
LINE
  8
0
 10
149.843
 20
222.757
 11
149.961
 21
223.373
  0
LINE
  8
0
 10
149.961
 20
223.373
 11
150
 21
224
  0
LINE
  8
0
 10
150
 20
224
 11
150
 21
244
  0
LINE
  8
0
 10
150
 20
244
 11
149.961
 21
244.627
  0
LINE
  8
0
 10
149.961
 20
244.627
 11
149.843
 21
245.243
  0
LINE
  8
0
 10
149.843
 20
245.243
 11
149.649
 21
245.841
  0
LINE
  8
0
 10
149.649
 20
245.841
 11
149.382
 21
246.409
  0
LINE
  8
0
 10
149.382
 20
246.409
 11
149.045
 21
246.939
  0
LINE
  8
0
 10
149.045
 20
246.939
 11
148.645
 21
247.423
  0
LINE
  8
0
 10
148.645
 20
247.423
 11
148.187
 21
247.853
  0
LINE
  8
0
 10
148.187
 20
247.853
 11
147.679
 21
248.222
  0
LINE
  8
0
 10
147.679
 20
248.222
 11
147.129
 21
248.524
  0
LINE
  8
0
 10
147.129
 20
248.524
 11
146.545
 21
248.755
  0
LINE
  8
0
 10
146.545
 20
248.755
 11
145.937
 21
248.911
  0
LINE
  8
0
 10
145.937
 20
248.911
 11
145.314
 21
248.99
  0
LINE
  8
0
 10
145.314
 20
248.99
 11
-145.314
 21
248.99
  0
LINE
  8
0
 10
-145.314
 20
248.99
 11
-145.937
 21
248.911
  0
LINE
  8
0
 10
-145.937
 20
248.911
 11
-146.545
 21
248.755
  0
LINE
  8
0
 10
-146.545
 20
248.755
 11
-147.129
 21
248.524
  0
LINE
  8
0
 10
-147.129
 20
248.524
 11
-147.679
 21
248.222
  0
LINE
  8
0
 10
-147.679
 20
248.222
 11
-148.187
 21
247.853
  0
LINE
  8
0
 10
-148.187
 20
247.853
 11
-148.5
 21
247.559
  0
LINE
  8
0
 10
-148.5
 20
247.559
 11
-148.5
 21
248.99
  0
LINE
  8
0
 10
-148.5
 20
248.99
 11
-151.5
 21
248.99
  0
LINE
  8
0
 10
-151.5
 20
248.99
 11
-151.5
 21
219.01
  0
LINE
  8
0
 10
-151.5
 20
219.01
 11
-148.5
 21
219.01
  0
LINE
  8
0
 10
-148.5
 20
219.01
 11
-148.5
 21
220.441
  0
LINE
  8
0
 10
-144.751
 20
220.508
 11
-145.25
 21
220.571
  0
LINE
  8
0
 10
-145.25
 20
220.571
 11
-145.736
 21
220.696
  0
LINE
  8
0
 10
-145.736
 20
220.696
 11
-146.203
 21
220.881
  0
LINE
  8
0
 10
-146.203
 20
220.881
 11
-146.643
 21
221.123
  0
LINE
  8
0
 10
-146.643
 20
221.123
 11
-147.05
 21
221.418
  0
LINE
  8
0
 10
-147.05
 20
221.418
 11
-147.416
 21
221.762
  0
LINE
  8
0
 10
-147.416
 20
221.762
 11
-147.736
 21
222.149
  0
LINE
  8
0
 10
-147.736
 20
222.149
 11
-148.005
 21
222.573
  0
LINE
  8
0
 10
-148.005
 20
222.573
 11
-148.219
 21
223.028
  0
LINE
  8
0
 10
-148.219
 20
223.028
 11
-148.374
 21
223.505
  0
LINE
  8
0
 10
-148.374
 20
223.505
 11
-148.468
 21
223.999
  0
LINE
  8
0
 10
-148.468
 20
223.999
 11
-148.5
 21
224.5
  0
LINE
  8
0
 10
-148.5
 20
224.5
 11
-148.5
 21
243.5
  0
LINE
  8
0
 10
-148.5
 20
243.5
 11
-148.468
 21
244.001
  0
LINE
  8
0
 10
-148.468
 20
244.001
 11
-148.374
 21
244.495
  0
LINE
  8
0
 10
-148.374
 20
244.495
 11
-148.219
 21
244.972
  0
LINE
  8
0
 10
-148.219
 20
244.972
 11
-148.005
 21
245.427
  0
LINE
  8
0
 10
-148.005
 20
245.427
 11
-147.736
 21
245.851
  0
LINE
  8
0
 10
-147.736
 20
245.851
 11
-147.416
 21
246.238
  0
LINE
  8
0
 10
-147.416
 20
246.238
 11
-147.05
 21
246.582
  0
LINE
  8
0
 10
-147.05
 20
246.582
 11
-146.643
 21
246.877
  0
LINE
  8
0
 10
-146.643
 20
246.877
 11
-146.203
 21
247.119
  0
LINE
  8
0
 10
-146.203
 20
247.119
 11
-145.736
 21
247.304
  0
LINE
  8
0
 10
-145.736
 20
247.304
 11
-145.25
 21
247.429
  0
LINE
  8
0
 10
-145.25
 20
247.429
 11
-144.751
 21
247.492
  0
LINE
  8
0
 10
-144.751
 20
247.492
 11
144.751
 21
247.492
  0
LINE
  8
0
 10
144.751
 20
247.492
 11
145.25
 21
247.429
  0
LINE
  8
0
 10
145.25
 20
247.429
 11
145.736
 21
247.304
  0
LINE
  8
0
 10
145.736
 20
247.304
 11
146.203
 21
247.119
  0
LINE
  8
0
 10
146.203
 20
247.119
 11
146.643
 21
246.877
  0
LINE
  8
0
 10
146.643
 20
246.877
 11
147.05
 21
246.582
  0
LINE
  8
0
 10
147.05
 20
246.582
 11
147.416
 21
246.238
  0
LINE
  8
0
 10
147.416
 20
246.238
 11
147.736
 21
245.851
  0
LINE
  8
0
 10
147.736
 20
245.851
 11
148.005
 21
245.427
  0
LINE
  8
0
 10
148.005
 20
245.427
 11
148.219
 21
244.972
  0
LINE
  8
0
 10
148.219
 20
244.972
 11
148.374
 21
244.495
  0
LINE
  8
0
 10
148.374
 20
244.495
 11
148.468
 21
244.001
  0
LINE
  8
0
 10
148.468
 20
244.001
 11
148.5
 21
243.5
  0
LINE
  8
0
 10
148.5
 20
243.5
 11
148.5
 21
224.5
  0
LINE
  8
0
 10
148.5
 20
224.5
 11
148.468
 21
223.999
  0
LINE
  8
0
 10
148.468
 20
223.999
 11
148.374
 21
223.505
  0
LINE
  8
0
 10
148.374
 20
223.505
 11
148.219
 21
223.028
  0
LINE
  8
0
 10
148.219
 20
223.028
 11
148.005
 21
222.573
  0
LINE
  8
0
 10
148.005
 20
222.573
 11
147.736
 21
222.149
  0
LINE
  8
0
 10
147.736
 20
222.149
 11
147.416
 21
221.762
  0
LINE
  8
0
 10
147.416
 20
221.762
 11
147.05
 21
221.418
  0
LINE
  8
0
 10
147.05
 20
221.418
 11
146.643
 21
221.123
  0
LINE
  8
0
 10
146.643
 20
221.123
 11
146.203
 21
220.881
  0
LINE
  8
0
 10
146.203
 20
220.881
 11
145.736
 21
220.696
  0
LINE
  8
0
 10
145.736
 20
220.696
 11
145.25
 21
220.571
  0
LINE
  8
0
 10
145.25
 20
220.571
 11
144.751
 21
220.508
  0
LINE
  8
0
 10
144.751
 20
220.508
 11
-144.751
 21
220.508
  0
LINE
  8
0
 10
145.937
 20
180.089
 11
146.545
 21
180.245
  0
LINE
  8
0
 10
146.545
 20
180.245
 11
147.129
 21
180.476
  0
LINE
  8
0
 10
147.129
 20
180.476
 11
147.679
 21
180.778
  0
LINE
  8
0
 10
147.679
 20
180.778
 11
148.187
 21
181.147
  0
LINE
  8
0
 10
148.187
 20
181.147
 11
148.645
 21
181.577
  0
LINE
  8
0
 10
148.645
 20
181.577
 11
149.045
 21
182.061
  0
LINE
  8
0
 10
149.045
 20
182.061
 11
149.382
 21
182.591
  0
LINE
  8
0
 10
149.382
 20
182.591
 11
149.649
 21
183.159
  0
LINE
  8
0
 10
149.649
 20
183.159
 11
149.843
 21
183.757
  0
LINE
  8
0
 10
149.843
 20
183.757
 11
149.961
 21
184.373
  0
LINE
  8
0
 10
149.961
 20
184.373
 11
150
 21
185
  0
LINE
  8
0
 10
150
 20
185
 11
150
 21
205
  0
LINE
  8
0
 10
150
 20
205
 11
149.961
 21
205.627
  0
LINE
  8
0
 10
149.961
 20
205.627
 11
149.843
 21
206.243
  0
LINE
  8
0
 10
149.843
 20
206.243
 11
149.649
 21
206.841
  0
LINE
  8
0
 10
149.649
 20
206.841
 11
149.382
 21
207.409
  0
LINE
  8
0
 10
149.382
 20
207.409
 11
149.045
 21
207.939
  0
LINE
  8
0
 10
149.045
 20
207.939
 11
148.645
 21
208.423
  0
LINE
  8
0
 10
148.645
 20
208.423
 11
148.187
 21
208.853
  0
LINE
  8
0
 10
148.187
 20
208.853
 11
147.679
 21
209.222
  0
LINE
  8
0
 10
147.679
 20
209.222
 11
147.129
 21
209.524
  0
LINE
  8
0
 10
147.129
 20
209.524
 11
146.545
 21
209.755
  0
LINE
  8
0
 10
146.545
 20
209.755
 11
145.937
 21
209.911
  0
LINE
  8
0
 10
145.937
 20
209.911
 11
145.314
 21
209.99
  0
LINE
  8
0
 10
145.314
 20
209.99
 11
-145.314
 21
209.99
  0
LINE
  8
0
 10
-145.314
 20
209.99
 11
-145.937
 21
209.911
  0
LINE
  8
0
 10
-145.937
 20
209.911
 11
-146.545
 21
209.755
  0
LINE
  8
0
 10
-146.545
 20
209.755
 11
-147.129
 21
209.524
  0
LINE
  8
0
 10
-147.129
 20
209.524
 11
-147.679
 21
209.222
  0
LINE
  8
0
 10
-147.679
 20
209.222
 11
-148.187
 21
208.853
  0
LINE
  8
0
 10
-148.187
 20
208.853
 11
-148.5
 21
208.559
  0
LINE
  8
0
 10
-148.5
 20
208.559
 11
-148.5
 21
209.979
  0
LINE
  8
0
 10
-148.5
 20
209.979
 11
-151.5
 21
209.979
  0
LINE
  8
0
 10
-151.5
 20
209.979
 11
-151.5
 21
180.021
  0
LINE
  8
0
 10
-151.5
 20
180.021
 11
-148.5
 21
180.021
  0
LINE
  8
0
 10
-148.5
 20
180.021
 11
-148.5
 21
181.441
  0
LINE
  8
0
 10
-148.5
 20
181.441
 11
-148.187
 21
181.147
  0
LINE
  8
0
 10
-148.187
 20
181.147
 11
-147.679
 21
180.778
  0
LINE
  8
0
 10
-147.679
 20
180.778
 11
-147.129
 21
180.476
  0
LINE
  8
0
 10
-147.129
 20
180.476
 11
-146.545
 21
180.245
  0
LINE
  8
0
 10
-146.545
 20
180.245
 11
-145.937
 21
180.089
  0
LINE
  8
0
 10
-145.937
 20
180.089
 11
-145.314
 21
180.01
  0
LINE
  8
0
 10
-145.314
 20
180.01
 11
145.314
 21
180.01
  0
LINE
  8
0
 10
145.314
 20
180.01
 11
145.937
 21
180.089
  0
LINE
  8
0
 10
-144.695
 20
182.393
 11
-145.083
 21
182.442
  0
LINE
  8
0
 10
-145.083
 20
182.442
 11
-145.462
 21
182.539
  0
LINE
  8
0
 10
-145.462
 20
182.539
 11
-145.825
 21
182.683
  0
LINE
  8
0
 10
-145.825
 20
182.683
 11
-146.168
 21
182.872
  0
LINE
  8
0
 10
-146.168
 20
182.872
 11
-146.484
 21
183.101
  0
LINE
  8
0
 10
-146.484
 20
183.101
 11
-146.769
 21
183.369
  0
LINE
  8
0
 10
-146.769
 20
183.369
 11
-147.018
 21
183.67
  0
LINE
  8
0
 10
-147.018
 20
183.67
 11
-147.228
 21
184
  0
LINE
  8
0
 10
-147.228
 20
184
 11
-147.394
 21
184.354
  0
LINE
  8
0
 10
-147.394
 20
184.354
 11
-147.515
 21
184.726
  0
LINE
  8
0
 10
-147.515
 20
184.726
 11
-147.588
 21
185.11
  0
LINE
  8
0
 10
-147.588
 20
185.11
 11
-147.613
 21
185.5
  0
LINE
  8
0
 10
-147.613
 20
185.5
 11
-147.613
 21
204.5
  0
LINE
  8
0
 10
-147.613
 20
204.5
 11
-147.588
 21
204.89
  0
LINE
  8
0
 10
-147.588
 20
204.89
 11
-147.515
 21
205.274
  0
LINE
  8
0
 10
-147.515
 20
205.274
 11
-147.394
 21
205.646
  0
LINE
  8
0
 10
-147.394
 20
205.646
 11
-147.228
 21
206
  0
LINE
  8
0
 10
-147.228
 20
206
 11
-147.018
 21
206.33
  0
LINE
  8
0
 10
-147.018
 20
206.33
 11
-146.769
 21
206.631
  0
LINE
  8
0
 10
-146.769
 20
206.631
 11
-146.484
 21
206.899
  0
LINE
  8
0
 10
-146.484
 20
206.899
 11
-146.168
 21
207.128
  0
LINE
  8
0
 10
-146.168
 20
207.128
 11
-145.825
 21
207.317
  0
LINE
  8
0
 10
-145.825
 20
207.317
 11
-145.462
 21
207.461
  0
LINE
  8
0
 10
-145.462
 20
207.461
 11
-145.083
 21
207.558
  0
LINE
  8
0
 10
-145.083
 20
207.558
 11
-144.695
 21
207.607
  0
LINE
  8
0
 10
-144.695
 20
207.607
 11
144.695
 21
207.607
  0
LINE
  8
0
 10
144.695
 20
207.607
 11
145.083
 21
207.558
  0
LINE
  8
0
 10
145.083
 20
207.558
 11
145.462
 21
207.461
  0
LINE
  8
0
 10
145.462
 20
207.461
 11
145.825
 21
207.317
  0
LINE
  8
0
 10
145.825
 20
207.317
 11
146.168
 21
207.128
  0
LINE
  8
0
 10
146.168
 20
207.128
 11
146.484
 21
206.899
  0
LINE
  8
0
 10
146.484
 20
206.899
 11
146.769
 21
206.631
  0
LINE
  8
0
 10
146.769
 20
206.631
 11
147.018
 21
206.33
  0
LINE
  8
0
 10
147.018
 20
206.33
 11
147.228
 21
206
  0
LINE
  8
0
 10
147.228
 20
206
 11
147.394
 21
205.646
  0
LINE
  8
0
 10
147.394
 20
205.646
 11
147.515
 21
205.274
  0
LINE
  8
0
 10
147.515
 20
205.274
 11
147.588
 21
204.89
  0
LINE
  8
0
 10
147.588
 20
204.89
 11
147.613
 21
204.5
  0
LINE
  8
0
 10
147.613
 20
204.5
 11
147.613
 21
185.5
  0
LINE
  8
0
 10
147.613
 20
185.5
 11
147.588
 21
185.11
  0
LINE
  8
0
 10
147.588
 20
185.11
 11
147.515
 21
184.726
  0
LINE
  8
0
 10
147.515
 20
184.726
 11
147.394
 21
184.354
  0
LINE
  8
0
 10
147.394
 20
184.354
 11
147.228
 21
184
  0
LINE
  8
0
 10
147.228
 20
184
 11
147.018
 21
183.67
  0
LINE
  8
0
 10
147.018
 20
183.67
 11
146.769
 21
183.369
  0
LINE
  8
0
 10
146.769
 20
183.369
 11
146.484
 21
183.101
  0
LINE
  8
0
 10
146.484
 20
183.101
 11
146.168
 21
182.872
  0
LINE
  8
0
 10
146.168
 20
182.872
 11
145.825
 21
182.683
  0
LINE
  8
0
 10
145.825
 20
182.683
 11
145.462
 21
182.539
  0
LINE
  8
0
 10
145.462
 20
182.539
 11
145.083
 21
182.442
  0
LINE
  8
0
 10
145.083
 20
182.442
 11
144.695
 21
182.393
  0
LINE
  8
0
 10
144.695
 20
182.393
 11
-144.695
 21
182.393
  0
LINE
  8
0
 10
145.937
 20
141.089
 11
146.545
 21
141.245
  0
LINE
  8
0
 10
146.545
 20
141.245
 11
147.129
 21
141.476
  0
LINE
  8
0
 10
147.129
 20
141.476
 11
147.679
 21
141.778
  0
LINE
  8
0
 10
147.679
 20
141.778
 11
148.187
 21
142.147
  0
LINE
  8
0
 10
148.187
 20
142.147
 11
148.645
 21
142.577
  0
LINE
  8
0
 10
148.645
 20
142.577
 11
149.045
 21
143.061
  0
LINE
  8
0
 10
149.045
 20
143.061
 11
149.382
 21
143.591
  0
LINE
  8
0
 10
149.382
 20
143.591
 11
149.649
 21
144.159
  0
LINE
  8
0
 10
149.649
 20
144.159
 11
149.843
 21
144.757
  0
LINE
  8
0
 10
149.843
 20
144.757
 11
149.961
 21
145.373
  0
LINE
  8
0
 10
149.961
 20
145.373
 11
150
 21
146
  0
LINE
  8
0
 10
150
 20
146
 11
150
 21
166
  0
LINE
  8
0
 10
150
 20
166
 11
149.961
 21
166.627
  0
LINE
  8
0
 10
149.961
 20
166.627
 11
149.843
 21
167.243
  0
LINE
  8
0
 10
149.843
 20
167.243
 11
149.649
 21
167.841
  0
LINE
  8
0
 10
149.649
 20
167.841
 11
149.382
 21
168.409
  0
LINE
  8
0
 10
149.382
 20
168.409
 11
149.045
 21
168.939
  0
LINE
  8
0
 10
149.045
 20
168.939
 11
148.645
 21
169.423
  0
LINE
  8
0
 10
148.645
 20
169.423
 11
148.187
 21
169.853
  0
LINE
  8
0
 10
148.187
 20
169.853
 11
147.679
 21
170.222
  0
LINE
  8
0
 10
147.679
 20
170.222
 11
147.129
 21
170.524
  0
LINE
  8
0
 10
147.129
 20
170.524
 11
146.545
 21
170.755
  0
LINE
  8
0
 10
146.545
 20
170.755
 11
145.937
 21
170.911
  0
LINE
  8
0
 10
145.937
 20
170.911
 11
145.314
 21
170.99
  0
LINE
  8
0
 10
145.314
 20
170.99
 11
-145.314
 21
170.99
  0
LINE
  8
0
 10
-145.314
 20
170.99
 11
-145.937
 21
170.911
  0
LINE
  8
0
 10
-145.937
 20
170.911
 11
-146.545
 21
170.755
  0
LINE
  8
0
 10
-146.545
 20
170.755
 11
-147.129
 21
170.524
  0
LINE
  8
0
 10
-147.129
 20
170.524
 11
-147.679
 21
170.222
  0
LINE
  8
0
 10
-147.679
 20
170.222
 11
-148.187
 21
169.853
  0
LINE
  8
0
 10
-148.187
 20
169.853
 11
-148.5
 21
169.559
  0
LINE
  8
0
 10
-148.5
 20
169.559
 11
-148.5
 21
169.653
  0
LINE
  8
0
 10
-148.5
 20
169.653
 11
-151.5
 21
169.653
  0
LINE
  8
0
 10
-151.5
 20
169.653
 11
-151.5
 21
142.347
  0
LINE
  8
0
 10
-151.5
 20
142.347
 11
-148.5
 21
142.347
  0
LINE
  8
0
 10
-148.5
 20
142.347
 11
-148.5
 21
142.441
  0
LINE
  8
0
 10
-148.5
 20
142.441
 11
-148.187
 21
142.147
  0
LINE
  8
0
 10
-148.187
 20
142.147
 11
-147.679
 21
141.778
  0
LINE
  8
0
 10
-147.679
 20
141.778
 11
-147.129
 21
141.476
  0
LINE
  8
0
 10
-147.129
 20
141.476
 11
-146.545
 21
141.245
  0
LINE
  8
0
 10
-146.545
 20
141.245
 11
-145.937
 21
141.089
  0
LINE
  8
0
 10
-145.937
 20
141.089
 11
-145.314
 21
141.01
  0
LINE
  8
0
 10
-145.314
 20
141.01
 11
145.314
 21
141.01
  0
LINE
  8
0
 10
145.314
 20
141.01
 11
145.937
 21
141.089
  0
LINE
  8
0
 10
-142.634
 20
161.369
 11
-142.9
 21
161.403
  0
LINE
  8
0
 10
-142.9
 20
161.403
 11
-143.16
 21
161.469
  0
LINE
  8
0
 10
-143.16
 20
161.469
 11
-143.409
 21
161.568
  0
LINE
  8
0
 10
-143.409
 20
161.568
 11
-143.644
 21
161.697
  0
LINE
  8
0
 10
-143.644
 20
161.697
 11
-143.861
 21
161.855
  0
LINE
  8
0
 10
-143.861
 20
161.855
 11
-144.057
 21
162.038
  0
LINE
  8
0
 10
-144.057
 20
162.038
 11
-144.227
 21
162.245
  0
LINE
  8
0
 10
-144.227
 20
162.245
 11
-144.371
 21
162.471
  0
LINE
  8
0
 10
-144.371
 20
162.471
 11
-144.485
 21
162.714
  0
LINE
  8
0
 10
-144.485
 20
162.714
 11
-144.568
 21
162.969
  0
LINE
  8
0
 10
-144.568
 20
162.969
 11
-144.618
 21
163.232
  0
LINE
  8
0
 10
-144.618
 20
163.232
 11
-144.635
 21
163.5
  0
LINE
  8
0
 10
-144.635
 20
163.5
 11
-144.618
 21
163.768
  0
LINE
  8
0
 10
-144.618
 20
163.768
 11
-144.568
 21
164.031
  0
LINE
  8
0
 10
-144.568
 20
164.031
 11
-144.485
 21
164.286
  0
LINE
  8
0
 10
-144.485
 20
164.286
 11
-144.371
 21
164.529
  0
LINE
  8
0
 10
-144.371
 20
164.529
 11
-144.227
 21
164.755
  0
LINE
  8
0
 10
-144.227
 20
164.755
 11
-144.057
 21
164.962
  0
LINE
  8
0
 10
-144.057
 20
164.962
 11
-143.861
 21
165.145
  0
LINE
  8
0
 10
-143.861
 20
165.145
 11
-143.644
 21
165.303
  0
LINE
  8
0
 10
-143.644
 20
165.303
 11
-143.409
 21
165.432
  0
LINE
  8
0
 10
-143.409
 20
165.432
 11
-143.16
 21
165.531
  0
LINE
  8
0
 10
-143.16
 20
165.531
 11
-142.9
 21
165.597
  0
LINE
  8
0
 10
-142.9
 20
165.597
 11
-142.634
 21
165.631
  0
LINE
  8
0
 10
-142.634
 20
165.631
 11
-142.366
 21
165.631
  0
LINE
  8
0
 10
-142.366
 20
165.631
 11
-142.1
 21
165.597
  0
LINE
  8
0
 10
-142.1
 20
165.597
 11
-141.84
 21
165.531
  0
LINE
  8
0
 10
-141.84
 20
165.531
 11
-141.591
 21
165.432
  0
LINE
  8
0
 10
-141.591
 20
165.432
 11
-141.356
 21
165.303
  0
LINE
  8
0
 10
-141.356
 20
165.303
 11
-141.139
 21
165.145
  0
LINE
  8
0
 10
-141.139
 20
165.145
 11
-140.943
 21
164.962
  0
LINE
  8
0
 10
-140.943
 20
164.962
 11
-140.773
 21
164.755
  0
LINE
  8
0
 10
-140.773
 20
164.755
 11
-140.629
 21
164.529
  0
LINE
  8
0
 10
-140.629
 20
164.529
 11
-140.515
 21
164.286
  0
LINE
  8
0
 10
-140.515
 20
164.286
 11
-140.432
 21
164.031
  0
LINE
  8
0
 10
-140.432
 20
164.031
 11
-140.382
 21
163.768
  0
LINE
  8
0
 10
-140.382
 20
163.768
 11
-140.365
 21
163.5
  0
LINE
  8
0
 10
-140.365
 20
163.5
 11
-140.382
 21
163.232
  0
LINE
  8
0
 10
-140.382
 20
163.232
 11
-140.432
 21
162.969
  0
LINE
  8
0
 10
-140.432
 20
162.969
 11
-140.515
 21
162.714
  0
LINE
  8
0
 10
-140.515
 20
162.714
 11
-140.629
 21
162.471
  0
LINE
  8
0
 10
-140.629
 20
162.471
 11
-140.773
 21
162.245
  0
LINE
  8
0
 10
-140.773
 20
162.245
 11
-140.943
 21
162.038
  0
LINE
  8
0
 10
-140.943
 20
162.038
 11
-141.139
 21
161.855
  0
LINE
  8
0
 10
-141.139
 20
161.855
 11
-141.356
 21
161.697
  0
LINE
  8
0
 10
-141.356
 20
161.697
 11
-141.591
 21
161.568
  0
LINE
  8
0
 10
-141.591
 20
161.568
 11
-141.84
 21
161.469
  0
LINE
  8
0
 10
-141.84
 20
161.469
 11
-142.1
 21
161.403
  0
LINE
  8
0
 10
-142.1
 20
161.403
 11
-142.366
 21
161.369
  0
LINE
  8
0
 10
-142.366
 20
161.369
 11
-142.634
 21
161.369
  0
LINE
  8
0
 10
142.366
 20
161.369
 11
142.1
 21
161.403
  0
LINE
  8
0
 10
142.1
 20
161.403
 11
141.84
 21
161.469
  0
LINE
  8
0
 10
141.84
 20
161.469
 11
141.591
 21
161.568
  0
LINE
  8
0
 10
141.591
 20
161.568
 11
141.356
 21
161.697
  0
LINE
  8
0
 10
141.356
 20
161.697
 11
141.139
 21
161.855
  0
LINE
  8
0
 10
141.139
 20
161.855
 11
140.943
 21
162.038
  0
LINE
  8
0
 10
140.943
 20
162.038
 11
140.773
 21
162.245
  0
LINE
  8
0
 10
140.773
 20
162.245
 11
140.629
 21
162.471
  0
LINE
  8
0
 10
140.629
 20
162.471
 11
140.515
 21
162.714
  0
LINE
  8
0
 10
140.515
 20
162.714
 11
140.432
 21
162.969
  0
LINE
  8
0
 10
140.432
 20
162.969
 11
140.382
 21
163.232
  0
LINE
  8
0
 10
140.382
 20
163.232
 11
140.365
 21
163.5
  0
LINE
  8
0
 10
140.365
 20
163.5
 11
140.382
 21
163.768
  0
LINE
  8
0
 10
140.382
 20
163.768
 11
140.432
 21
164.031
  0
LINE
  8
0
 10
140.432
 20
164.031
 11
140.515
 21
164.286
  0
LINE
  8
0
 10
140.515
 20
164.286
 11
140.629
 21
164.529
  0
LINE
  8
0
 10
140.629
 20
164.529
 11
140.773
 21
164.755
  0
LINE
  8
0
 10
140.773
 20
164.755
 11
140.943
 21
164.962
  0
LINE
  8
0
 10
140.943
 20
164.962
 11
141.139
 21
165.145
  0
LINE
  8
0
 10
141.139
 20
165.145
 11
141.356
 21
165.303
  0
LINE
  8
0
 10
141.356
 20
165.303
 11
141.591
 21
165.432
  0
LINE
  8
0
 10
141.591
 20
165.432
 11
141.84
 21
165.531
  0
LINE
  8
0
 10
141.84
 20
165.531
 11
142.1
 21
165.597
  0
LINE
  8
0
 10
142.1
 20
165.597
 11
142.366
 21
165.631
  0
LINE
  8
0
 10
142.366
 20
165.631
 11
142.634
 21
165.631
  0
LINE
  8
0
 10
142.634
 20
165.631
 11
142.9
 21
165.597
  0
LINE
  8
0
 10
142.9
 20
165.597
 11
143.16
 21
165.531
  0
LINE
  8
0
 10
143.16
 20
165.531
 11
143.409
 21
165.432
  0
LINE
  8
0
 10
143.409
 20
165.432
 11
143.644
 21
165.303
  0
LINE
  8
0
 10
143.644
 20
165.303
 11
143.861
 21
165.145
  0
LINE
  8
0
 10
143.861
 20
165.145
 11
144.057
 21
164.962
  0
LINE
  8
0
 10
144.057
 20
164.962
 11
144.227
 21
164.755
  0
LINE
  8
0
 10
144.227
 20
164.755
 11
144.371
 21
164.529
  0
LINE
  8
0
 10
144.371
 20
164.529
 11
144.485
 21
164.286
  0
LINE
  8
0
 10
144.485
 20
164.286
 11
144.568
 21
164.031
  0
LINE
  8
0
 10
144.568
 20
164.031
 11
144.618
 21
163.768
  0
LINE
  8
0
 10
144.618
 20
163.768
 11
144.635
 21
163.5
  0
LINE
  8
0
 10
144.635
 20
163.5
 11
144.618
 21
163.232
  0
LINE
  8
0
 10
144.618
 20
163.232
 11
144.568
 21
162.969
  0
LINE
  8
0
 10
144.568
 20
162.969
 11
144.485
 21
162.714
  0
LINE
  8
0
 10
144.485
 20
162.714
 11
144.371
 21
162.471
  0
LINE
  8
0
 10
144.371
 20
162.471
 11
144.227
 21
162.245
  0
LINE
  8
0
 10
144.227
 20
162.245
 11
144.057
 21
162.038
  0
LINE
  8
0
 10
144.057
 20
162.038
 11
143.861
 21
161.855
  0
LINE
  8
0
 10
143.861
 20
161.855
 11
143.644
 21
161.697
  0
LINE
  8
0
 10
143.644
 20
161.697
 11
143.409
 21
161.568
  0
LINE
  8
0
 10
143.409
 20
161.568
 11
143.16
 21
161.469
  0
LINE
  8
0
 10
143.16
 20
161.469
 11
142.9
 21
161.403
  0
LINE
  8
0
 10
142.9
 20
161.403
 11
142.634
 21
161.369
  0
LINE
  8
0
 10
142.634
 20
161.369
 11
142.366
 21
161.369
  0
LINE
  8
0
 10
-142.634
 20
146.369
 11
-142.9
 21
146.403
  0
LINE
  8
0
 10
-142.9
 20
146.403
 11
-143.16
 21
146.469
  0
LINE
  8
0
 10
-143.16
 20
146.469
 11
-143.409
 21
146.568
  0
LINE
  8
0
 10
-143.409
 20
146.568
 11
-143.644
 21
146.697
  0
LINE
  8
0
 10
-143.644
 20
146.697
 11
-143.861
 21
146.855
  0
LINE
  8
0
 10
-143.861
 20
146.855
 11
-144.057
 21
147.038
  0
LINE
  8
0
 10
-144.057
 20
147.038
 11
-144.227
 21
147.245
  0
LINE
  8
0
 10
-144.227
 20
147.245
 11
-144.371
 21
147.471
  0
LINE
  8
0
 10
-144.371
 20
147.471
 11
-144.485
 21
147.714
  0
LINE
  8
0
 10
-144.485
 20
147.714
 11
-144.568
 21
147.969
  0
LINE
  8
0
 10
-144.568
 20
147.969
 11
-144.618
 21
148.232
  0
LINE
  8
0
 10
-144.618
 20
148.232
 11
-144.635
 21
148.5
  0
LINE
  8
0
 10
-144.635
 20
148.5
 11
-144.618
 21
148.768
  0
LINE
  8
0
 10
-144.618
 20
148.768
 11
-144.568
 21
149.031
  0
LINE
  8
0
 10
-144.568
 20
149.031
 11
-144.485
 21
149.286
  0
LINE
  8
0
 10
-144.485
 20
149.286
 11
-144.371
 21
149.529
  0
LINE
  8
0
 10
-144.371
 20
149.529
 11
-144.227
 21
149.755
  0
LINE
  8
0
 10
-144.227
 20
149.755
 11
-144.057
 21
149.962
  0
LINE
  8
0
 10
-144.057
 20
149.962
 11
-143.861
 21
150.145
  0
LINE
  8
0
 10
-143.861
 20
150.145
 11
-143.644
 21
150.303
  0
LINE
  8
0
 10
-143.644
 20
150.303
 11
-143.409
 21
150.432
  0
LINE
  8
0
 10
-143.409
 20
150.432
 11
-143.16
 21
150.531
  0
LINE
  8
0
 10
-143.16
 20
150.531
 11
-142.9
 21
150.597
  0
LINE
  8
0
 10
-142.9
 20
150.597
 11
-142.634
 21
150.631
  0
LINE
  8
0
 10
-142.634
 20
150.631
 11
-142.366
 21
150.631
  0
LINE
  8
0
 10
-142.366
 20
150.631
 11
-142.1
 21
150.597
  0
LINE
  8
0
 10
-142.1
 20
150.597
 11
-141.84
 21
150.531
  0
LINE
  8
0
 10
-141.84
 20
150.531
 11
-141.591
 21
150.432
  0
LINE
  8
0
 10
-141.591
 20
150.432
 11
-141.356
 21
150.303
  0
LINE
  8
0
 10
-141.356
 20
150.303
 11
-141.139
 21
150.145
  0
LINE
  8
0
 10
-141.139
 20
150.145
 11
-140.943
 21
149.962
  0
LINE
  8
0
 10
-140.943
 20
149.962
 11
-140.773
 21
149.755
  0
LINE
  8
0
 10
-140.773
 20
149.755
 11
-140.629
 21
149.529
  0
LINE
  8
0
 10
-140.629
 20
149.529
 11
-140.515
 21
149.286
  0
LINE
  8
0
 10
-140.515
 20
149.286
 11
-140.432
 21
149.031
  0
LINE
  8
0
 10
-140.432
 20
149.031
 11
-140.382
 21
148.768
  0
LINE
  8
0
 10
-140.382
 20
148.768
 11
-140.365
 21
148.5
  0
LINE
  8
0
 10
-140.365
 20
148.5
 11
-140.382
 21
148.232
  0
LINE
  8
0
 10
-140.382
 20
148.232
 11
-140.432
 21
147.969
  0
LINE
  8
0
 10
-140.432
 20
147.969
 11
-140.515
 21
147.714
  0
LINE
  8
0
 10
-140.515
 20
147.714
 11
-140.629
 21
147.471
  0
LINE
  8
0
 10
-140.629
 20
147.471
 11
-140.773
 21
147.245
  0
LINE
  8
0
 10
-140.773
 20
147.245
 11
-140.943
 21
147.038
  0
LINE
  8
0
 10
-140.943
 20
147.038
 11
-141.139
 21
146.855
  0
LINE
  8
0
 10
-141.139
 20
146.855
 11
-141.356
 21
146.697
  0
LINE
  8
0
 10
-141.356
 20
146.697
 11
-141.591
 21
146.568
  0
LINE
  8
0
 10
-141.591
 20
146.568
 11
-141.84
 21
146.469
  0
LINE
  8
0
 10
-141.84
 20
146.469
 11
-142.1
 21
146.403
  0
LINE
  8
0
 10
-142.1
 20
146.403
 11
-142.366
 21
146.369
  0
LINE
  8
0
 10
-142.366
 20
146.369
 11
-142.634
 21
146.369
  0
LINE
  8
0
 10
142.366
 20
146.369
 11
142.1
 21
146.403
  0
LINE
  8
0
 10
142.1
 20
146.403
 11
141.84
 21
146.469
  0
LINE
  8
0
 10
141.84
 20
146.469
 11
141.591
 21
146.568
  0
LINE
  8
0
 10
141.591
 20
146.568
 11
141.356
 21
146.697
  0
LINE
  8
0
 10
141.356
 20
146.697
 11
141.139
 21
146.855
  0
LINE
  8
0
 10
141.139
 20
146.855
 11
140.943
 21
147.038
  0
LINE
  8
0
 10
140.943
 20
147.038
 11
140.773
 21
147.245
  0
LINE
  8
0
 10
140.773
 20
147.245
 11
140.629
 21
147.471
  0
LINE
  8
0
 10
140.629
 20
147.471
 11
140.515
 21
147.714
  0
LINE
  8
0
 10
140.515
 20
147.714
 11
140.432
 21
147.969
  0
LINE
  8
0
 10
140.432
 20
147.969
 11
140.382
 21
148.232
  0
LINE
  8
0
 10
140.382
 20
148.232
 11
140.365
 21
148.5
  0
LINE
  8
0
 10
140.365
 20
148.5
 11
140.382
 21
148.768
  0
LINE
  8
0
 10
140.382
 20
148.768
 11
140.432
 21
149.031
  0
LINE
  8
0
 10
140.432
 20
149.031
 11
140.515
 21
149.286
  0
LINE
  8
0
 10
140.515
 20
149.286
 11
140.629
 21
149.529
  0
LINE
  8
0
 10
140.629
 20
149.529
 11
140.773
 21
149.755
  0
LINE
  8
0
 10
140.773
 20
149.755
 11
140.943
 21
149.962
  0
LINE
  8
0
 10
140.943
 20
149.962
 11
141.139
 21
150.145
  0
LINE
  8
0
 10
141.139
 20
150.145
 11
141.356
 21
150.303
  0
LINE
  8
0
 10
141.356
 20
150.303
 11
141.591
 21
150.432
  0
LINE
  8
0
 10
141.591
 20
150.432
 11
141.84
 21
150.531
  0
LINE
  8
0
 10
141.84
 20
150.531
 11
142.1
 21
150.597
  0
LINE
  8
0
 10
142.1
 20
150.597
 11
142.366
 21
150.631
  0
LINE
  8
0
 10
142.366
 20
150.631
 11
142.634
 21
150.631
  0
LINE
  8
0
 10
142.634
 20
150.631
 11
142.9
 21
150.597
  0
LINE
  8
0
 10
142.9
 20
150.597
 11
143.16
 21
150.531
  0
LINE
  8
0
 10
143.16
 20
150.531
 11
143.409
 21
150.432
  0
LINE
  8
0
 10
143.409
 20
150.432
 11
143.644
 21
150.303
  0
LINE
  8
0
 10
143.644
 20
150.303
 11
143.861
 21
150.145
  0
LINE
  8
0
 10
143.861
 20
150.145
 11
144.057
 21
149.962
  0
LINE
  8
0
 10
144.057
 20
149.962
 11
144.227
 21
149.755
  0
LINE
  8
0
 10
144.227
 20
149.755
 11
144.371
 21
149.529
  0
LINE
  8
0
 10
144.371
 20
149.529
 11
144.485
 21
149.286
  0
LINE
  8
0
 10
144.485
 20
149.286
 11
144.568
 21
149.031
  0
LINE
  8
0
 10
144.568
 20
149.031
 11
144.618
 21
148.768
  0
LINE
  8
0
 10
144.618
 20
148.768
 11
144.635
 21
148.5
  0
LINE
  8
0
 10
144.635
 20
148.5
 11
144.618
 21
148.232
  0
LINE
  8
0
 10
144.618
 20
148.232
 11
144.568
 21
147.969
  0
LINE
  8
0
 10
144.568
 20
147.969
 11
144.485
 21
147.714
  0
LINE
  8
0
 10
144.485
 20
147.714
 11
144.371
 21
147.471
  0
LINE
  8
0
 10
144.371
 20
147.471
 11
144.227
 21
147.245
  0
LINE
  8
0
 10
144.227
 20
147.245
 11
144.057
 21
147.038
  0
LINE
  8
0
 10
144.057
 20
147.038
 11
143.861
 21
146.855
  0
LINE
  8
0
 10
143.861
 20
146.855
 11
143.644
 21
146.697
  0
LINE
  8
0
 10
143.644
 20
146.697
 11
143.409
 21
146.568
  0
LINE
  8
0
 10
143.409
 20
146.568
 11
143.16
 21
146.469
  0
LINE
  8
0
 10
143.16
 20
146.469
 11
142.9
 21
146.403
  0
LINE
  8
0
 10
142.9
 20
146.403
 11
142.634
 21
146.369
  0
LINE
  8
0
 10
142.634
 20
146.369
 11
142.366
 21
146.369
  0
ENDSEC
  0
SECTION
  2
OBJECTS
  0
DICTIONARY
  0
ENDSEC
  0
EOF
