<?xml version="1.0" standalone="no"?>
<!DOCTYPE svg PUBLIC "-//W3C//DTD SVG 1.1//EN" "http://www.w3.org/Graphics/SVG/1.1/DTD/svg11.dtd">
<svg width="242mm" height="149mm" viewBox="-122 -295 242 149" xmlns="http://www.w3.org/2000/svg" version="1.1">
<title>OpenSCAD Model</title>
<path d="
M -118.5,-273.691 L -118.187,-273.397 L -117.679,-273.028 L -117.129,-272.726 L -116.545,-272.495 L -115.937,-272.339
 L -115.314,-272.26 L 115.314,-272.26 L 115.937,-272.339 L 116.545,-272.495 L 117.129,-272.726 L 117.679,-273.028
 L 118.187,-273.397 L 118.645,-273.827 L 119.045,-274.311 L 119.382,-274.841 L 119.649,-275.409 L 119.843,-276.007
 L 119.961,-276.623 L 120,-277.25 L 120,-289.75 L 119.961,-290.377 L 119.843,-290.993 L 119.649,-291.591
 L 119.382,-292.159 L 119.045,-292.689 L 118.645,-293.173 L 118.187,-293.603 L 117.679,-293.972 L 117.129,-294.274
 L 116.545,-294.505 L 115.937,-294.661 L 115.314,-294.74 L -115.314,-294.74 L -115.937,-294.661 L -116.545,-294.505
 L -117.129,-294.274 L -117.679,-293.972 L -118.187,-293.603 L -118.5,-293.309 L -118.5,-294.74 L -121.5,-294.74
 L -121.5,-272.26 L -118.5,-272.26 z
M -114.751,-273.758 L -115.25,-273.821 L -115.736,-273.946 L -116.203,-274.131 L -116.643,-274.373 L -117.05,-274.668
 L -117.416,-275.012 L -117.736,-275.399 L -118.005,-275.823 L -118.219,-276.278 L -118.374,-276.755 L -118.468,-277.249
 L -118.5,-277.75 L -118.5,-289.25 L -118.468,-289.751 L -118.374,-290.245 L -118.219,-290.722 L -118.005,-291.177
 L -117.736,-291.601 L -117.416,-291.988 L -117.05,-292.332 L -116.643,-292.627 L -116.203,-292.869 L -115.736,-293.054
 L -115.25,-293.179 L -114.751,-293.242 L 114.751,-293.242 L 115.25,-293.179 L 115.736,-293.054 L 116.203,-292.869
 L 116.643,-292.627 L 117.05,-292.332 L 117.416,-291.988 L 117.736,-291.601 L 118.005,-291.177 L 118.219,-290.722
 L 118.374,-290.245 L 118.468,-289.751 L 118.5,-289.25 L 118.5,-277.75 L 118.468,-277.249 L 118.374,-276.755
 L 118.219,-276.278 L 118.005,-275.823 L 117.736,-275.399 L 117.416,-275.012 L 117.05,-274.668 L 116.643,-274.373
 L 116.203,-274.131 L 115.736,-273.946 L 115.25,-273.821 L 114.751,-273.758 z
M -118.5,-242.191 L -118.187,-241.897 L -117.679,-241.528 L -117.129,-241.226 L -116.545,-240.995 L -115.937,-240.839
 L -115.314,-240.76 L 115.314,-240.76 L 115.937,-240.839 L 116.545,-240.995 L 117.129,-241.226 L 117.679,-241.528
 L 118.187,-241.897 L 118.645,-242.327 L 119.045,-242.811 L 119.382,-243.341 L 119.649,-243.909 L 119.843,-244.507
 L 119.961,-245.123 L 120,-245.75 L 120,-258.25 L 119.961,-258.877 L 119.843,-259.493 L 119.649,-260.091
 L 119.382,-260.659 L 119.045,-261.189 L 118.645,-261.673 L 118.187,-262.103 L 117.679,-262.472 L 117.129,-262.774
 L 116.545,-263.005 L 115.937,-263.161 L 115.314,-263.24 L -115.314,-263.24 L -115.937,-263.161 L -116.545,-263.005
 L -117.129,-262.774 L -117.679,-262.472 L -118.187,-262.103 L -118.5,-261.809 L -118.5,-263.24 L -121.5,-263.24
 L -121.5,-240.76 L -118.5,-240.76 z
M -114.751,-242.258 L -115.25,-242.321 L -115.736,-242.446 L -116.203,-242.631 L -116.643,-242.873 L -117.05,-243.168
 L -117.416,-243.512 L -117.736,-243.899 L -118.005,-244.323 L -118.219,-244.778 L -118.374,-245.255 L -118.468,-245.749
 L -118.5,-246.25 L -118.5,-257.75 L -118.468,-258.251 L -118.374,-258.745 L -118.219,-259.222 L -118.005,-259.677
 L -117.736,-260.101 L -117.416,-260.488 L -117.05,-260.832 L -116.643,-261.127 L -116.203,-261.369 L -115.736,-261.554
 L -115.25,-261.679 L -114.751,-261.742 L 114.751,-261.742 L 115.25,-261.679 L 115.736,-261.554 L 116.203,-261.369
 L 116.643,-261.127 L 117.05,-260.832 L 117.416,-260.488 L 117.736,-260.101 L 118.005,-259.677 L 118.219,-259.222
 L 118.374,-258.745 L 118.468,-258.251 L 118.5,-257.75 L 118.5,-246.25 L 118.468,-245.749 L 118.374,-245.255
 L 118.219,-244.778 L 118.005,-244.323 L 117.736,-243.899 L 117.416,-243.512 L 117.05,-243.168 L 116.643,-242.873
 L 116.203,-242.631 L 115.736,-242.446 L 115.25,-242.321 L 114.751,-242.258 z
M -118.5,-210.691 L -118.187,-210.397 L -117.679,-210.028 L -117.129,-209.726 L -116.545,-209.495 L -115.937,-209.339
 L -115.314,-209.26 L 115.314,-209.26 L 115.937,-209.339 L 116.545,-209.495 L 117.129,-209.726 L 117.679,-210.028
 L 118.187,-210.397 L 118.645,-210.827 L 119.045,-211.311 L 119.382,-211.841 L 119.649,-212.409 L 119.843,-213.007
 L 119.961,-213.623 L 120,-214.25 L 120,-226.75 L 119.961,-227.377 L 119.843,-227.993 L 119.649,-228.591
 L 119.382,-229.159 L 119.045,-229.689 L 118.645,-230.173 L 118.187,-230.603 L 117.679,-230.972 L 117.129,-231.274
 L 116.545,-231.505 L 115.937,-231.661 L 115.314,-231.74 L -115.314,-231.74 L -115.937,-231.661 L -116.545,-231.505
 L -117.129,-231.274 L -117.679,-230.972 L -118.187,-230.603 L -118.5,-230.309 L -118.5,-231.74 L -121.5,-231.74
 L -121.5,-209.26 L -118.5,-209.26 z
M -114.751,-210.758 L -115.25,-210.821 L -115.736,-210.946 L -116.203,-211.131 L -116.643,-211.373 L -117.05,-211.668
 L -117.416,-212.012 L -117.736,-212.399 L -118.005,-212.823 L -118.219,-213.278 L -118.374,-213.755 L -118.468,-214.249
 L -118.5,-214.75 L -118.5,-226.25 L -118.468,-226.751 L -118.374,-227.245 L -118.219,-227.722 L -118.005,-228.177
 L -117.736,-228.601 L -117.416,-228.988 L -117.05,-229.332 L -116.643,-229.627 L -116.203,-229.869 L -115.736,-230.054
 L -115.25,-230.179 L -114.751,-230.242 L 114.751,-230.242 L 115.25,-230.179 L 115.736,-230.054 L 116.203,-229.869
 L 116.643,-229.627 L 117.05,-229.332 L 117.416,-228.988 L 117.736,-228.601 L 118.005,-228.177 L 118.219,-227.722
 L 118.374,-227.245 L 118.468,-226.751 L 118.5,-226.25 L 118.5,-214.75 L 118.468,-214.249 L 118.374,-213.755
 L 118.219,-213.278 L 118.005,-212.823 L 117.736,-212.399 L 117.416,-212.012 L 117.05,-211.668 L 116.643,-211.373
 L 116.203,-211.131 L 115.736,-210.946 L 115.25,-210.821 L 114.751,-210.758 z
M 115.937,-177.839 L 116.545,-177.995 L 117.129,-178.226 L 117.679,-178.528 L 118.187,-178.897 L 118.645,-179.327
 L 119.045,-179.811 L 119.382,-180.341 L 119.649,-180.909 L 119.843,-181.507 L 119.961,-182.123 L 120,-182.75
 L 120,-195.25 L 119.961,-195.877 L 119.843,-196.493 L 119.649,-197.091 L 119.382,-197.659 L 119.045,-198.189
 L 118.645,-198.673 L 118.187,-199.103 L 117.679,-199.472 L 117.129,-199.774 L 116.545,-200.005 L 115.937,-200.161
 L 115.314,-200.24 L -115.314,-200.24 L -115.937,-200.161 L -116.545,-200.005 L -117.129,-199.774 L -117.679,-199.472
 L -118.187,-199.103 L -118.5,-198.809 L -118.5,-200.229 L -121.5,-200.229 L -121.5,-177.771 L -118.5,-177.771
 L -118.5,-179.191 L -118.187,-178.897 L -117.679,-178.528 L -117.129,-178.226 L -116.545,-177.995 L -115.937,-177.839
 L -115.314,-177.76 L 115.314,-177.76 z
M -114.695,-180.143 L -115.083,-180.192 L -115.462,-180.289 L -115.825,-180.433 L -116.168,-180.622 L -116.484,-180.851
 L -116.769,-181.119 L -117.018,-181.42 L -117.228,-181.75 L -117.394,-182.104 L -117.515,-182.476 L -117.588,-182.86
 L -117.613,-183.25 L -117.613,-194.75 L -117.588,-195.14 L -117.515,-195.524 L -117.394,-195.896 L -117.228,-196.25
 L -117.018,-196.58 L -116.769,-196.881 L -116.484,-197.149 L -116.168,-197.378 L -115.825,-197.567 L -115.462,-197.711
 L -115.083,-197.808 L -114.695,-197.857 L 114.695,-197.857 L 115.083,-197.808 L 115.462,-197.711 L 115.825,-197.567
 L 116.168,-197.378 L 116.484,-197.149 L 116.769,-196.881 L 117.018,-196.58 L 117.228,-196.25 L 117.394,-195.896
 L 117.515,-195.524 L 117.588,-195.14 L 117.613,-194.75 L 117.613,-183.25 L 117.588,-182.86 L 117.515,-182.476
 L 117.394,-182.104 L 117.228,-181.75 L 117.018,-181.42 L 116.769,-181.119 L 116.484,-180.851 L 116.168,-180.622
 L 115.825,-180.433 L 115.462,-180.289 L 115.083,-180.192 L 114.695,-180.143 z
M 115.937,-146.339 L 116.545,-146.495 L 117.129,-146.726 L 117.679,-147.028 L 118.187,-147.397 L 118.645,-147.827
 L 119.045,-148.311 L 119.382,-148.841 L 119.649,-149.409 L 119.843,-150.007 L 119.961,-150.623 L 120,-151.25
 L 120,-163.75 L 119.961,-164.377 L 119.843,-164.993 L 119.649,-165.591 L 119.382,-166.159 L 119.045,-166.689
 L 118.645,-167.173 L 118.187,-167.603 L 117.679,-167.972 L 117.129,-168.274 L 116.545,-168.505 L 115.937,-168.661
 L 115.314,-168.74 L -115.314,-168.74 L -115.937,-168.661 L -116.545,-168.505 L -117.129,-168.274 L -117.679,-167.972
 L -118.187,-167.603 L -118.5,-167.309 L -118.5,-167.403 L -121.5,-167.403 L -121.5,-147.597 L -118.5,-147.597
 L -118.5,-147.691 L -118.187,-147.397 L -117.679,-147.028 L -117.129,-146.726 L -116.545,-146.495 L -115.937,-146.339
 L -115.314,-146.26 L 115.314,-146.26 z
M -112.634,-159.119 L -112.9,-159.153 L -113.16,-159.219 L -113.409,-159.318 L -113.644,-159.447 L -113.861,-159.605
 L -114.057,-159.788 L -114.227,-159.995 L -114.371,-160.221 L -114.485,-160.464 L -114.568,-160.719 L -114.618,-160.982
 L -114.635,-161.25 L -114.618,-161.518 L -114.568,-161.781 L -114.485,-162.036 L -114.371,-162.279 L -114.227,-162.505
 L -114.057,-162.712 L -113.861,-162.895 L -113.644,-163.053 L -113.409,-163.182 L -113.16,-163.281 L -112.9,-163.347
 L -112.634,-163.381 L -112.366,-163.381 L -112.1,-163.347 L -111.84,-163.281 L -111.591,-163.182 L -111.356,-163.053
 L -111.139,-162.895 L -110.943,-162.712 L -110.773,-162.505 L -110.629,-162.279 L -110.515,-162.036 L -110.432,-161.781
 L -110.382,-161.518 L -110.365,-161.25 L -110.382,-160.982 L -110.432,-160.719 L -110.515,-160.464 L -110.629,-160.221
 L -110.773,-159.995 L -110.943,-159.788 L -111.139,-159.605 L -111.356,-159.447 L -111.591,-159.318 L -111.84,-159.219
 L -112.1,-159.153 L -112.366,-159.119 z
M 112.366,-159.119 L 112.1,-159.153 L 111.84,-159.219 L 111.591,-159.318 L 111.356,-159.447 L 111.139,-159.605
 L 110.943,-159.788 L 110.773,-159.995 L 110.629,-160.221 L 110.515,-160.464 L 110.432,-160.719 L 110.382,-160.982
 L 110.365,-161.25 L 110.382,-161.518 L 110.432,-161.781 L 110.515,-162.036 L 110.629,-162.279 L 110.773,-162.505
 L 110.943,-162.712 L 111.139,-162.895 L 111.356,-163.053 L 111.591,-163.182 L 111.84,-163.281 L 112.1,-163.347
 L 112.366,-163.381 L 112.634,-163.381 L 112.9,-163.347 L 113.16,-163.281 L 113.409,-163.182 L 113.644,-163.053
 L 113.861,-162.895 L 114.057,-162.712 L 114.227,-162.505 L 114.371,-162.279 L 114.485,-162.036 L 114.568,-161.781
 L 114.618,-161.518 L 114.635,-161.25 L 114.618,-160.982 L 114.568,-160.719 L 114.485,-160.464 L 114.371,-160.221
 L 114.227,-159.995 L 114.057,-159.788 L 113.861,-159.605 L 113.644,-159.447 L 113.409,-159.318 L 113.16,-159.219
 L 112.9,-159.153 L 112.634,-159.119 z
M -112.634,-151.619 L -112.9,-151.653 L -113.16,-151.719 L -113.409,-151.818 L -113.644,-151.947 L -113.861,-152.105
 L -114.057,-152.288 L -114.227,-152.495 L -114.371,-152.721 L -114.485,-152.964 L -114.568,-153.219 L -114.618,-153.482
 L -114.635,-153.75 L -114.618,-154.018 L -114.568,-154.281 L -114.485,-154.536 L -114.371,-154.779 L -114.227,-155.005
 L -114.057,-155.212 L -113.861,-155.395 L -113.644,-155.553 L -113.409,-155.682 L -113.16,-155.781 L -112.9,-155.847
 L -112.634,-155.881 L -112.366,-155.881 L -112.1,-155.847 L -111.84,-155.781 L -111.591,-155.682 L -111.356,-155.553
 L -111.139,-155.395 L -110.943,-155.212 L -110.773,-155.005 L -110.629,-154.779 L -110.515,-154.536 L -110.432,-154.281
 L -110.382,-154.018 L -110.365,-153.75 L -110.382,-153.482 L -110.432,-153.219 L -110.515,-152.964 L -110.629,-152.721
 L -110.773,-152.495 L -110.943,-152.288 L -111.139,-152.105 L -111.356,-151.947 L -111.591,-151.818 L -111.84,-151.719
 L -112.1,-151.653 L -112.366,-151.619 z
M 112.366,-151.619 L 112.1,-151.653 L 111.84,-151.719 L 111.591,-151.818 L 111.356,-151.947 L 111.139,-152.105
 L 110.943,-152.288 L 110.773,-152.495 L 110.629,-152.721 L 110.515,-152.964 L 110.432,-153.219 L 110.382,-153.482
 L 110.365,-153.75 L 110.382,-154.018 L 110.432,-154.281 L 110.515,-154.536 L 110.629,-154.779 L 110.773,-155.005
 L 110.943,-155.212 L 111.139,-155.395 L 111.356,-155.553 L 111.591,-155.682 L 111.84,-155.781 L 112.1,-155.847
 L 112.366,-155.881 L 112.634,-155.881 L 112.9,-155.847 L 113.16,-155.781 L 113.409,-155.682 L 113.644,-155.553
 L 113.861,-155.395 L 114.057,-155.212 L 114.227,-155.005 L 114.371,-154.779 L 114.485,-154.536 L 114.568,-154.281
 L 114.618,-154.018 L 114.635,-153.75 L 114.618,-153.482 L 114.568,-153.219 L 114.485,-152.964 L 114.371,-152.721
 L 114.227,-152.495 L 114.057,-152.288 L 113.861,-152.105 L 113.644,-151.947 L 113.409,-151.818 L 113.16,-151.719
 L 112.9,-151.653 L 112.634,-151.619 z
" stroke="black" fill="lightgray" stroke-width="0.5"/>
</svg>
