<?xml version="1.0" standalone="no"?>
<!DOCTYPE svg PUBLIC "-//W3C//DTD SVG 1.1//EN" "http://www.w3.org/Graphics/SVG/1.1/DTD/svg11.dtd">
<svg width="302mm" height="580mm" viewBox="-152 -731 302 580" xmlns="http://www.w3.org/2000/svg" version="1.1">
<title>OpenSCAD Model</title>
<path d="
M 145.937,-445.589 L 146.545,-445.745 L 147.129,-445.976 L 147.679,-446.278 L 148.187,-446.647 L 148.645,-447.077
 L 149.045,-447.561 L 149.382,-448.091 L 149.649,-448.659 L 149.843,-449.257 L 149.961,-449.873 L 150,-450.5
 L 150,-725.5 L 149.961,-726.127 L 149.843,-726.743 L 149.649,-727.341 L 149.382,-727.909 L 149.045,-728.439
 L 148.645,-728.923 L 148.187,-729.353 L 147.679,-729.722 L 147.129,-730.024 L 146.545,-730.255 L 145.937,-730.411
 L 145.314,-730.49 L -145.314,-730.49 L -145.937,-730.411 L -146.545,-730.255 L -147.129,-730.024 L -147.679,-729.722
 L -148.187,-729.353 L -148.5,-729.059 L -148.5,-730.115 L -151.5,-730.115 L -151.5,-445.885 L -148.5,-445.885
 L -148.5,-446.941 L -148.187,-446.647 L -147.679,-446.278 L -147.129,-445.976 L -146.545,-445.745 L -145.937,-445.589
 L -145.314,-445.51 L 145.314,-445.51 z
M 142.349,-720.605 L 142.05,-720.643 L 141.758,-720.717 L 141.478,-720.828 L 141.214,-720.974 L 140.97,-721.151
 L 140.75,-721.357 L 140.558,-721.589 L 140.397,-721.844 L 140.269,-722.117 L 140.175,-722.403 L 140.119,-722.699
 L 140.1,-723 L 140.119,-723.301 L 140.175,-723.597 L 140.269,-723.883 L 140.397,-724.156 L 140.558,-724.411
 L 140.75,-724.643 L 140.97,-724.849 L 141.214,-725.026 L 141.478,-725.172 L 141.758,-725.283 L 142.05,-725.357
 L 142.349,-725.395 L 142.651,-725.395 L 142.95,-725.357 L 143.242,-725.283 L 143.522,-725.172 L 143.786,-725.026
 L 144.03,-724.849 L 144.25,-724.643 L 144.442,-724.411 L 144.603,-724.156 L 144.731,-723.883 L 144.825,-723.597
 L 144.881,-723.301 L 144.9,-723 L 144.881,-722.699 L 144.825,-722.403 L 144.731,-722.117 L 144.603,-721.844
 L 144.442,-721.589 L 144.25,-721.357 L 144.03,-721.151 L 143.786,-720.974 L 143.522,-720.828 L 143.242,-720.717
 L 142.95,-720.643 L 142.651,-720.605 z
M -142.651,-720.605 L -142.95,-720.643 L -143.242,-720.717 L -143.522,-720.828 L -143.786,-720.974 L -144.03,-721.151
 L -144.25,-721.357 L -144.442,-721.589 L -144.603,-721.844 L -144.731,-722.117 L -144.825,-722.403 L -144.881,-722.699
 L -144.9,-723 L -144.881,-723.301 L -144.825,-723.597 L -144.731,-723.883 L -144.603,-724.156 L -144.442,-724.411
 L -144.25,-724.643 L -144.03,-724.849 L -143.786,-725.026 L -143.522,-725.172 L -143.242,-725.283 L -142.95,-725.357
 L -142.651,-725.395 L -142.349,-725.395 L -142.05,-725.357 L -141.758,-725.283 L -141.478,-725.172 L -141.214,-725.026
 L -140.97,-724.849 L -140.75,-724.643 L -140.558,-724.411 L -140.397,-724.156 L -140.269,-723.883 L -140.175,-723.597
 L -140.119,-723.301 L -140.1,-723 L -140.119,-722.699 L -140.175,-722.403 L -140.269,-722.117 L -140.397,-721.844
 L -140.558,-721.589 L -140.75,-721.357 L -140.97,-721.151 L -141.214,-720.974 L -141.478,-720.828 L -141.758,-720.717
 L -142.05,-720.643 L -142.349,-720.605 z
M 142.349,-450.605 L 142.05,-450.643 L 141.758,-450.717 L 141.478,-450.828 L 141.214,-450.974 L 140.97,-451.151
 L 140.75,-451.357 L 140.558,-451.589 L 140.397,-451.844 L 140.269,-452.117 L 140.175,-452.403 L 140.119,-452.699
 L 140.1,-453 L 140.119,-453.301 L 140.175,-453.597 L 140.269,-453.883 L 140.397,-454.156 L 140.558,-454.411
 L 140.75,-454.643 L 140.97,-454.849 L 141.214,-455.026 L 141.478,-455.172 L 141.758,-455.283 L 142.05,-455.357
 L 142.349,-455.395 L 142.651,-455.395 L 142.95,-455.357 L 143.242,-455.283 L 143.522,-455.172 L 143.786,-455.026
 L 144.03,-454.849 L 144.25,-454.643 L 144.442,-454.411 L 144.603,-454.156 L 144.731,-453.883 L 144.825,-453.597
 L 144.881,-453.301 L 144.9,-453 L 144.881,-452.699 L 144.825,-452.403 L 144.731,-452.117 L 144.603,-451.844
 L 144.442,-451.589 L 144.25,-451.357 L 144.03,-451.151 L 143.786,-450.974 L 143.522,-450.828 L 143.242,-450.717
 L 142.95,-450.643 L 142.651,-450.605 z
M -142.651,-450.605 L -142.95,-450.643 L -143.242,-450.717 L -143.522,-450.828 L -143.786,-450.974 L -144.03,-451.151
 L -144.25,-451.357 L -144.442,-451.589 L -144.603,-451.844 L -144.731,-452.117 L -144.825,-452.403 L -144.881,-452.699
 L -144.9,-453 L -144.881,-453.301 L -144.825,-453.597 L -144.731,-453.883 L -144.603,-454.156 L -144.442,-454.411
 L -144.25,-454.643 L -144.03,-454.849 L -143.786,-455.026 L -143.522,-455.172 L -143.242,-455.283 L -142.95,-455.357
 L -142.651,-455.395 L -142.349,-455.395 L -142.05,-455.357 L -141.758,-455.283 L -141.478,-455.172 L -141.214,-455.026
 L -140.97,-454.849 L -140.75,-454.643 L -140.558,-454.411 L -140.397,-454.156 L -140.269,-453.883 L -140.175,-453.597
 L -140.119,-453.301 L -140.1,-453 L -140.119,-452.699 L -140.175,-452.403 L -140.269,-452.117 L -140.397,-451.844
 L -140.558,-451.589 L -140.75,-451.357 L -140.97,-451.151 L -141.214,-450.974 L -141.478,-450.828 L -141.758,-450.717
 L -142.05,-450.643 L -142.349,-450.605 z
M 145.937,-151.589 L 146.545,-151.745 L 147.129,-151.976 L 147.679,-152.278 L 148.187,-152.647 L 148.645,-153.077
 L 149.045,-153.561 L 149.382,-154.091 L 149.649,-154.659 L 149.843,-155.257 L 149.961,-155.873 L 150,-156.5
 L 150,-431.5 L 149.961,-432.127 L 149.843,-432.743 L 149.649,-433.341 L 149.382,-433.909 L 149.045,-434.439
 L 148.645,-434.923 L 148.187,-435.353 L 147.679,-435.722 L 147.129,-436.024 L 146.545,-436.255 L 145.937,-436.411
 L 145.314,-436.49 L -145.314,-436.49 L -145.937,-436.411 L -146.545,-436.255 L -147.129,-436.024 L -147.679,-435.722
 L -148.187,-435.353 L -148.645,-434.923 L -149.045,-434.439 L -149.382,-433.909 L -149.649,-433.341 L -149.843,-432.743
 L -149.9,-432.444 L -151.5,-432.444 L -151.5,-155.556 L -149.9,-155.556 L -149.843,-155.257 L -149.649,-154.659
 L -149.382,-154.091 L -149.045,-153.561 L -148.645,-153.077 L -148.187,-152.647 L -147.679,-152.278 L -147.129,-151.976
 L -146.545,-151.745 L -145.937,-151.589 L -145.314,-151.51 L 145.314,-151.51 z
M -142.613,-427.204 L -142.837,-427.232 L -143.056,-427.288 L -143.266,-427.371 L -143.464,-427.48 L -143.647,-427.613
 L -143.812,-427.768 L -143.956,-427.942 L -144.077,-428.133 L -144.174,-428.337 L -144.243,-428.552 L -144.286,-428.774
 L -144.3,-429 L -144.286,-429.226 L -144.243,-429.448 L -144.174,-429.663 L -144.077,-429.867 L -143.956,-430.058
 L -143.812,-430.232 L -143.647,-430.387 L -143.464,-430.52 L -143.266,-430.629 L -143.056,-430.712 L -142.837,-430.768
 L -142.613,-430.796 L -142.387,-430.796 L -142.163,-430.768 L -141.944,-430.712 L -141.734,-430.629 L -141.536,-430.52
 L -141.353,-430.387 L -141.188,-430.232 L -141.044,-430.058 L -140.923,-429.867 L -140.826,-429.663 L -140.757,-429.448
 L -140.714,-429.226 L -140.7,-429 L -140.714,-428.774 L -140.757,-428.552 L -140.826,-428.337 L -140.923,-428.133
 L -141.044,-427.942 L -141.188,-427.768 L -141.353,-427.613 L -141.536,-427.48 L -141.734,-427.371 L -141.944,-427.288
 L -142.163,-427.232 L -142.387,-427.204 z
M 142.387,-427.204 L 142.163,-427.232 L 141.944,-427.288 L 141.734,-427.371 L 141.536,-427.48 L 141.353,-427.613
 L 141.188,-427.768 L 141.044,-427.942 L 140.923,-428.133 L 140.826,-428.337 L 140.757,-428.552 L 140.714,-428.774
 L 140.7,-429 L 140.714,-429.226 L 140.757,-429.448 L 140.826,-429.663 L 140.923,-429.867 L 141.044,-430.058
 L 141.188,-430.232 L 141.353,-430.387 L 141.536,-430.52 L 141.734,-430.629 L 141.944,-430.712 L 142.163,-430.768
 L 142.387,-430.796 L 142.613,-430.796 L 142.837,-430.768 L 143.056,-430.712 L 143.266,-430.629 L 143.464,-430.52
 L 143.647,-430.387 L 143.812,-430.232 L 143.956,-430.058 L 144.077,-429.867 L 144.174,-429.663 L 144.243,-429.448
 L 144.286,-429.226 L 144.3,-429 L 144.286,-428.774 L 144.243,-428.552 L 144.174,-428.337 L 144.077,-428.133
 L 143.956,-427.942 L 143.812,-427.768 L 143.647,-427.613 L 143.464,-427.48 L 143.266,-427.371 L 143.056,-427.288
 L 142.837,-427.232 L 142.613,-427.204 z
M 142.387,-157.204 L 142.163,-157.232 L 141.944,-157.288 L 141.734,-157.371 L 141.536,-157.48 L 141.353,-157.613
 L 141.188,-157.768 L 141.044,-157.942 L 140.923,-158.133 L 140.826,-158.337 L 140.757,-158.552 L 140.714,-158.774
 L 140.7,-159 L 140.714,-159.226 L 140.757,-159.448 L 140.826,-159.663 L 140.923,-159.867 L 141.044,-160.058
 L 141.188,-160.232 L 141.353,-160.387 L 141.536,-160.52 L 141.734,-160.629 L 141.944,-160.712 L 142.163,-160.768
 L 142.387,-160.796 L 142.613,-160.796 L 142.837,-160.768 L 143.056,-160.712 L 143.266,-160.629 L 143.464,-160.52
 L 143.647,-160.387 L 143.812,-160.232 L 143.956,-160.058 L 144.077,-159.867 L 144.174,-159.663 L 144.243,-159.448
 L 144.286,-159.226 L 144.3,-159 L 144.286,-158.774 L 144.243,-158.552 L 144.174,-158.337 L 144.077,-158.133
 L 143.956,-157.942 L 143.812,-157.768 L 143.647,-157.613 L 143.464,-157.48 L 143.266,-157.371 L 143.056,-157.288
 L 142.837,-157.232 L 142.613,-157.204 z
M -142.613,-157.204 L -142.837,-157.232 L -143.056,-157.288 L -143.266,-157.371 L -143.464,-157.48 L -143.647,-157.613
 L -143.812,-157.768 L -143.956,-157.942 L -144.077,-158.133 L -144.174,-158.337 L -144.243,-158.552 L -144.286,-158.774
 L -144.3,-159 L -144.286,-159.226 L -144.243,-159.448 L -144.174,-159.663 L -144.077,-159.867 L -143.956,-160.058
 L -143.812,-160.232 L -143.647,-160.387 L -143.464,-160.52 L -143.266,-160.629 L -143.056,-160.712 L -142.837,-160.768
 L -142.613,-160.796 L -142.387,-160.796 L -142.163,-160.768 L -141.944,-160.712 L -141.734,-160.629 L -141.536,-160.52
 L -141.353,-160.387 L -141.188,-160.232 L -141.044,-160.058 L -140.923,-159.867 L -140.826,-159.663 L -140.757,-159.448
 L -140.714,-159.226 L -140.7,-159 L -140.714,-158.774 L -140.757,-158.552 L -140.826,-158.337 L -140.923,-158.133
 L -141.044,-157.942 L -141.188,-157.768 L -141.353,-157.613 L -141.536,-157.48 L -141.734,-157.371 L -141.944,-157.288
 L -142.163,-157.232 L -142.387,-157.204 z
" stroke="black" fill="lightgray" stroke-width="0.5"/>
</svg>
