<?xml version="1.0" standalone="no"?>
<!DOCTYPE svg PUBLIC "-//W3C//DTD SVG 1.1//EN" "http://www.w3.org/Graphics/SVG/1.1/DTD/svg11.dtd">
<svg width="272mm" height="862mm" viewBox="-137 -1475 272 862" xmlns="http://www.w3.org/2000/svg" version="1.1">
<title>OpenSCAD Model</title>
<path d="
M -133.5,-1310.94 L -133.187,-1310.65 L -132.679,-1310.28 L -132.129,-1309.98 L -131.545,-1309.74 L -130.937,-1309.59
 L -130.314,-1309.51 L 130.314,-1309.51 L 130.937,-1309.59 L 131.545,-1309.74 L 132.129,-1309.98 L 132.679,-1310.28
 L 133.187,-1310.65 L 133.645,-1311.08 L 134.045,-1311.56 L 134.382,-1312.09 L 134.649,-1312.66 L 134.843,-1313.26
 L 134.961,-1313.87 L 135,-1314.5 L 135,-1469.5 L 134.961,-1470.13 L 134.843,-1470.74 L 134.649,-1471.34
 L 134.382,-1471.91 L 134.045,-1472.44 L 133.645,-1472.92 L 133.187,-1473.35 L 132.679,-1473.72 L 132.129,-1474.02
 L 131.545,-1474.26 L 130.937,-1474.41 L 130.314,-1474.49 L -130.314,-1474.49 L -130.937,-1474.41 L -131.545,-1474.26
 L -132.129,-1474.02 L -132.679,-1473.72 L -133.187,-1473.35 L -133.5,-1473.06 L -133.5,-1474.49 L -136.5,-1474.49
 L -136.5,-1309.51 L -133.5,-1309.51 z
M -129.751,-1311.01 L -130.25,-1311.07 L -130.736,-1311.2 L -131.203,-1311.38 L -131.643,-1311.62 L -132.05,-1311.92
 L -132.416,-1312.26 L -132.736,-1312.65 L -133.005,-1313.07 L -133.219,-1313.53 L -133.374,-1314.01 L -133.468,-1314.5
 L -133.5,-1315 L -133.5,-1469 L -133.468,-1469.5 L -133.374,-1469.99 L -133.219,-1470.47 L -133.005,-1470.93
 L -132.736,-1471.35 L -132.416,-1471.74 L -132.05,-1472.08 L -131.643,-1472.38 L -131.203,-1472.62 L -130.736,-1472.8
 L -130.25,-1472.93 L -129.751,-1472.99 L 129.751,-1472.99 L 130.25,-1472.93 L 130.736,-1472.8 L 131.203,-1472.62
 L 131.643,-1472.38 L 132.05,-1472.08 L 132.416,-1471.74 L 132.736,-1471.35 L 133.005,-1470.93 L 133.219,-1470.47
 L 133.374,-1469.99 L 133.468,-1469.5 L 133.5,-1469 L 133.5,-1315 L 133.468,-1314.5 L 133.374,-1314.01
 L 133.219,-1313.53 L 133.005,-1313.07 L 132.736,-1312.65 L 132.416,-1312.26 L 132.05,-1311.92 L 131.643,-1311.62
 L 131.203,-1311.38 L 130.736,-1311.2 L 130.25,-1311.07 L 129.751,-1311.01 z
M -133.5,-1136.94 L -133.187,-1136.65 L -132.679,-1136.28 L -132.129,-1135.98 L -131.545,-1135.74 L -130.937,-1135.59
 L -130.314,-1135.51 L 130.314,-1135.51 L 130.937,-1135.59 L 131.545,-1135.74 L 132.129,-1135.98 L 132.679,-1136.28
 L 133.187,-1136.65 L 133.645,-1137.08 L 134.045,-1137.56 L 134.382,-1138.09 L 134.649,-1138.66 L 134.843,-1139.26
 L 134.961,-1139.87 L 135,-1140.5 L 135,-1295.5 L 134.961,-1296.13 L 134.843,-1296.74 L 134.649,-1297.34
 L 134.382,-1297.91 L 134.045,-1298.44 L 133.645,-1298.92 L 133.187,-1299.35 L 132.679,-1299.72 L 132.129,-1300.02
 L 131.545,-1300.26 L 130.937,-1300.41 L 130.314,-1300.49 L -130.314,-1300.49 L -130.937,-1300.41 L -131.545,-1300.26
 L -132.129,-1300.02 L -132.679,-1299.72 L -133.187,-1299.35 L -133.5,-1299.06 L -133.5,-1300.49 L -136.5,-1300.49
 L -136.5,-1135.51 L -133.5,-1135.51 z
M -129.751,-1137.01 L -130.25,-1137.07 L -130.736,-1137.2 L -131.203,-1137.38 L -131.643,-1137.62 L -132.05,-1137.92
 L -132.416,-1138.26 L -132.736,-1138.65 L -133.005,-1139.07 L -133.219,-1139.53 L -133.374,-1140.01 L -133.468,-1140.5
 L -133.5,-1141 L -133.5,-1295 L -133.468,-1295.5 L -133.374,-1295.99 L -133.219,-1296.47 L -133.005,-1296.93
 L -132.736,-1297.35 L -132.416,-1297.74 L -132.05,-1298.08 L -131.643,-1298.38 L -131.203,-1298.62 L -130.736,-1298.8
 L -130.25,-1298.93 L -129.751,-1298.99 L 129.751,-1298.99 L 130.25,-1298.93 L 130.736,-1298.8 L 131.203,-1298.62
 L 131.643,-1298.38 L 132.05,-1298.08 L 132.416,-1297.74 L 132.736,-1297.35 L 133.005,-1296.93 L 133.219,-1296.47
 L 133.374,-1295.99 L 133.468,-1295.5 L 133.5,-1295 L 133.5,-1141 L 133.468,-1140.5 L 133.374,-1140.01
 L 133.219,-1139.53 L 133.005,-1139.07 L 132.736,-1138.65 L 132.416,-1138.26 L 132.05,-1137.92 L 131.643,-1137.62
 L 131.203,-1137.38 L 130.736,-1137.2 L 130.25,-1137.07 L 129.751,-1137.01 z
M -133.5,-962.941 L -133.187,-962.647 L -132.679,-962.278 L -132.129,-961.976 L -131.545,-961.745 L -130.937,-961.589
 L -130.314,-961.51 L 130.314,-961.51 L 130.937,-961.589 L 131.545,-961.745 L 132.129,-961.976 L 132.679,-962.278
 L 133.187,-962.647 L 133.645,-963.077 L 134.045,-963.561 L 134.382,-964.091 L 134.649,-964.659 L 134.843,-965.257
 L 134.961,-965.873 L 135,-966.5 L 135,-1121.5 L 134.961,-1122.13 L 134.843,-1122.74 L 134.649,-1123.34
 L 134.382,-1123.91 L 134.045,-1124.44 L 133.645,-1124.92 L 133.187,-1125.35 L 132.679,-1125.72 L 132.129,-1126.02
 L 131.545,-1126.26 L 130.937,-1126.41 L 130.314,-1126.49 L -130.314,-1126.49 L -130.937,-1126.41 L -131.545,-1126.26
 L -132.129,-1126.02 L -132.679,-1125.72 L -133.187,-1125.35 L -133.5,-1125.06 L -133.5,-1126.49 L -136.5,-1126.49
 L -136.5,-961.51 L -133.5,-961.51 z
M -129.743,-963.135 L -130.226,-963.196 L -130.697,-963.317 L -131.149,-963.496 L -131.575,-963.73 L -131.969,-964.016
 L -132.323,-964.349 L -132.633,-964.724 L -132.894,-965.134 L -133.101,-965.574 L -133.251,-966.037 L -133.342,-966.515
 L -133.373,-967 L -133.373,-1121 L -133.342,-1121.49 L -133.251,-1121.96 L -133.101,-1122.43 L -132.894,-1122.87
 L -132.633,-1123.28 L -132.323,-1123.65 L -131.969,-1123.98 L -131.575,-1124.27 L -131.149,-1124.5 L -130.697,-1124.68
 L -130.226,-1124.8 L -129.743,-1124.86 L 129.743,-1124.86 L 130.226,-1124.8 L 130.697,-1124.68 L 131.149,-1124.5
 L 131.575,-1124.27 L 131.969,-1123.98 L 132.323,-1123.65 L 132.633,-1123.28 L 132.894,-1122.87 L 133.101,-1122.43
 L 133.251,-1121.96 L 133.342,-1121.49 L 133.373,-1121 L 133.373,-967 L 133.342,-966.515 L 133.251,-966.037
 L 133.101,-965.574 L 132.894,-965.134 L 132.633,-964.724 L 132.323,-964.349 L 131.969,-964.016 L 131.575,-963.73
 L 131.149,-963.496 L 130.697,-963.317 L 130.226,-963.196 L 129.743,-963.135 z
M 130.937,-787.589 L 131.545,-787.745 L 132.129,-787.976 L 132.679,-788.278 L 133.187,-788.647 L 133.645,-789.077
 L 134.045,-789.561 L 134.382,-790.091 L 134.649,-790.659 L 134.843,-791.257 L 134.961,-791.873 L 135,-792.5
 L 135,-947.5 L 134.961,-948.127 L 134.843,-948.743 L 134.649,-949.341 L 134.382,-949.909 L 134.045,-950.439
 L 133.645,-950.923 L 133.187,-951.353 L 132.679,-951.722 L 132.129,-952.024 L 131.545,-952.255 L 130.937,-952.411
 L 130.314,-952.49 L -130.314,-952.49 L -130.937,-952.411 L -131.545,-952.255 L -132.129,-952.024 L -132.679,-951.722
 L -133.187,-951.353 L -133.5,-951.059 L -133.5,-952.115 L -136.5,-952.115 L -136.5,-787.885 L -133.5,-787.885
 L -133.5,-788.941 L -133.187,-788.647 L -132.679,-788.278 L -132.129,-787.976 L -131.545,-787.745 L -130.937,-787.589
 L -130.314,-787.51 L 130.314,-787.51 z
M -127.651,-942.605 L -127.95,-942.643 L -128.242,-942.717 L -128.522,-942.828 L -128.786,-942.974 L -129.03,-943.151
 L -129.25,-943.357 L -129.442,-943.589 L -129.603,-943.844 L -129.731,-944.117 L -129.825,-944.403 L -129.881,-944.699
 L -129.9,-945 L -129.881,-945.301 L -129.825,-945.597 L -129.731,-945.883 L -129.603,-946.156 L -129.442,-946.411
 L -129.25,-946.643 L -129.03,-946.849 L -128.786,-947.026 L -128.522,-947.172 L -128.242,-947.283 L -127.95,-947.357
 L -127.651,-947.395 L -127.349,-947.395 L -127.05,-947.357 L -126.758,-947.283 L -126.478,-947.172 L -126.214,-947.026
 L -125.97,-946.849 L -125.75,-946.643 L -125.558,-946.411 L -125.397,-946.156 L -125.269,-945.883 L -125.175,-945.597
 L -125.119,-945.301 L -125.1,-945 L -125.119,-944.699 L -125.175,-944.403 L -125.269,-944.117 L -125.397,-943.844
 L -125.558,-943.589 L -125.75,-943.357 L -125.97,-943.151 L -126.214,-942.974 L -126.478,-942.828 L -126.758,-942.717
 L -127.05,-942.643 L -127.349,-942.605 z
M 127.349,-942.605 L 127.05,-942.643 L 126.758,-942.717 L 126.478,-942.828 L 126.214,-942.974 L 125.97,-943.151
 L 125.75,-943.357 L 125.558,-943.589 L 125.397,-943.844 L 125.269,-944.117 L 125.175,-944.403 L 125.119,-944.699
 L 125.1,-945 L 125.119,-945.301 L 125.175,-945.597 L 125.269,-945.883 L 125.397,-946.156 L 125.558,-946.411
 L 125.75,-946.643 L 125.97,-946.849 L 126.214,-947.026 L 126.478,-947.172 L 126.758,-947.283 L 127.05,-947.357
 L 127.349,-947.395 L 127.651,-947.395 L 127.95,-947.357 L 128.242,-947.283 L 128.522,-947.172 L 128.786,-947.026
 L 129.03,-946.849 L 129.25,-946.643 L 129.442,-946.411 L 129.603,-946.156 L 129.731,-945.883 L 129.825,-945.597
 L 129.881,-945.301 L 129.9,-945 L 129.881,-944.699 L 129.825,-944.403 L 129.731,-944.117 L 129.603,-943.844
 L 129.442,-943.589 L 129.25,-943.357 L 129.03,-943.151 L 128.786,-942.974 L 128.522,-942.828 L 128.242,-942.717
 L 127.95,-942.643 L 127.651,-942.605 z
M -127.651,-792.605 L -127.95,-792.643 L -128.242,-792.717 L -128.522,-792.828 L -128.786,-792.974 L -129.03,-793.151
 L -129.25,-793.357 L -129.442,-793.589 L -129.603,-793.844 L -129.731,-794.117 L -129.825,-794.403 L -129.881,-794.699
 L -129.9,-795 L -129.881,-795.301 L -129.825,-795.597 L -129.731,-795.883 L -129.603,-796.156 L -129.442,-796.411
 L -129.25,-796.643 L -129.03,-796.849 L -128.786,-797.026 L -128.522,-797.172 L -128.242,-797.283 L -127.95,-797.357
 L -127.651,-797.395 L -127.349,-797.395 L -127.05,-797.357 L -126.758,-797.283 L -126.478,-797.172 L -126.214,-797.026
 L -125.97,-796.849 L -125.75,-796.643 L -125.558,-796.411 L -125.397,-796.156 L -125.269,-795.883 L -125.175,-795.597
 L -125.119,-795.301 L -125.1,-795 L -125.119,-794.699 L -125.175,-794.403 L -125.269,-794.117 L -125.397,-793.844
 L -125.558,-793.589 L -125.75,-793.357 L -125.97,-793.151 L -126.214,-792.974 L -126.478,-792.828 L -126.758,-792.717
 L -127.05,-792.643 L -127.349,-792.605 z
M 127.349,-792.605 L 127.05,-792.643 L 126.758,-792.717 L 126.478,-792.828 L 126.214,-792.974 L 125.97,-793.151
 L 125.75,-793.357 L 125.558,-793.589 L 125.397,-793.844 L 125.269,-794.117 L 125.175,-794.403 L 125.119,-794.699
 L 125.1,-795 L 125.119,-795.301 L 125.175,-795.597 L 125.269,-795.883 L 125.397,-796.156 L 125.558,-796.411
 L 125.75,-796.643 L 125.97,-796.849 L 126.214,-797.026 L 126.478,-797.172 L 126.758,-797.283 L 127.05,-797.357
 L 127.349,-797.395 L 127.651,-797.395 L 127.95,-797.357 L 128.242,-797.283 L 128.522,-797.172 L 128.786,-797.026
 L 129.03,-796.849 L 129.25,-796.643 L 129.442,-796.411 L 129.603,-796.156 L 129.731,-795.883 L 129.825,-795.597
 L 129.881,-795.301 L 129.9,-795 L 129.881,-794.699 L 129.825,-794.403 L 129.731,-794.117 L 129.603,-793.844
 L 129.442,-793.589 L 129.25,-793.357 L 129.03,-793.151 L 128.786,-792.974 L 128.522,-792.828 L 128.242,-792.717
 L 127.95,-792.643 L 127.651,-792.605 z
M 130.937,-613.589 L 131.545,-613.745 L 132.129,-613.976 L 132.679,-614.278 L 133.187,-614.647 L 133.645,-615.077
 L 134.045,-615.561 L 134.382,-616.091 L 134.649,-616.659 L 134.843,-617.257 L 134.961,-617.873 L 135,-618.5
 L 135,-773.5 L 134.961,-774.127 L 134.843,-774.743 L 134.649,-775.341 L 134.382,-775.909 L 134.045,-776.439
 L 133.645,-776.923 L 133.187,-777.353 L 132.679,-777.722 L 132.129,-778.024 L 131.545,-778.255 L 130.937,-778.411
 L 130.314,-778.49 L -130.314,-778.49 L -130.937,-778.411 L -131.545,-778.255 L -132.129,-778.024 L -132.679,-777.722
 L -133.187,-777.353 L -133.645,-776.923 L -134.045,-776.439 L -134.382,-775.909 L -134.649,-775.341 L -134.843,-774.743
 L -134.9,-774.444 L -136.5,-774.444 L -136.5,-617.556 L -134.9,-617.556 L -134.843,-617.257 L -134.649,-616.659
 L -134.382,-616.091 L -134.045,-615.561 L -133.645,-615.077 L -133.187,-614.647 L -132.679,-614.278 L -132.129,-613.976
 L -131.545,-613.745 L -130.937,-613.589 L -130.314,-613.51 L 130.314,-613.51 z
M -127.613,-769.204 L -127.837,-769.232 L -128.056,-769.288 L -128.266,-769.371 L -128.464,-769.48 L -128.647,-769.613
 L -128.812,-769.768 L -128.956,-769.942 L -129.077,-770.133 L -129.174,-770.337 L -129.243,-770.552 L -129.286,-770.774
 L -129.3,-771 L -129.286,-771.226 L -129.243,-771.448 L -129.174,-771.663 L -129.077,-771.867 L -128.956,-772.058
 L -128.812,-772.232 L -128.647,-772.387 L -128.464,-772.52 L -128.266,-772.629 L -128.056,-772.712 L -127.837,-772.768
 L -127.613,-772.796 L -127.387,-772.796 L -127.163,-772.768 L -126.944,-772.712 L -126.734,-772.629 L -126.536,-772.52
 L -126.353,-772.387 L -126.188,-772.232 L -126.044,-772.058 L -125.923,-771.867 L -125.826,-771.663 L -125.757,-771.448
 L -125.714,-771.226 L -125.7,-771 L -125.714,-770.774 L -125.757,-770.552 L -125.826,-770.337 L -125.923,-770.133
 L -126.044,-769.942 L -126.188,-769.768 L -126.353,-769.613 L -126.536,-769.48 L -126.734,-769.371 L -126.944,-769.288
 L -127.163,-769.232 L -127.387,-769.204 z
M 127.387,-769.204 L 127.163,-769.232 L 126.944,-769.288 L 126.734,-769.371 L 126.536,-769.48 L 126.353,-769.613
 L 126.188,-769.768 L 126.044,-769.942 L 125.923,-770.133 L 125.826,-770.337 L 125.757,-770.552 L 125.714,-770.774
 L 125.7,-771 L 125.714,-771.226 L 125.757,-771.448 L 125.826,-771.663 L 125.923,-771.867 L 126.044,-772.058
 L 126.188,-772.232 L 126.353,-772.387 L 126.536,-772.52 L 126.734,-772.629 L 126.944,-772.712 L 127.163,-772.768
 L 127.387,-772.796 L 127.613,-772.796 L 127.837,-772.768 L 128.056,-772.712 L 128.266,-772.629 L 128.464,-772.52
 L 128.647,-772.387 L 128.812,-772.232 L 128.956,-772.058 L 129.077,-771.867 L 129.174,-771.663 L 129.243,-771.448
 L 129.286,-771.226 L 129.3,-771 L 129.286,-770.774 L 129.243,-770.552 L 129.174,-770.337 L 129.077,-770.133
 L 128.956,-769.942 L 128.812,-769.768 L 128.647,-769.613 L 128.464,-769.48 L 128.266,-769.371 L 128.056,-769.288
 L 127.837,-769.232 L 127.613,-769.204 z
M -127.613,-619.204 L -127.837,-619.232 L -128.056,-619.288 L -128.266,-619.371 L -128.464,-619.48 L -128.647,-619.613
 L -128.812,-619.768 L -128.956,-619.942 L -129.077,-620.133 L -129.174,-620.337 L -129.243,-620.552 L -129.286,-620.774
 L -129.3,-621 L -129.286,-621.226 L -129.243,-621.448 L -129.174,-621.663 L -129.077,-621.867 L -128.956,-622.058
 L -128.812,-622.232 L -128.647,-622.387 L -128.464,-622.52 L -128.266,-622.629 L -128.056,-622.712 L -127.837,-622.768
 L -127.613,-622.796 L -127.387,-622.796 L -127.163,-622.768 L -126.944,-622.712 L -126.734,-622.629 L -126.536,-622.52
 L -126.353,-622.387 L -126.188,-622.232 L -126.044,-622.058 L -125.923,-621.867 L -125.826,-621.663 L -125.757,-621.448
 L -125.714,-621.226 L -125.7,-621 L -125.714,-620.774 L -125.757,-620.552 L -125.826,-620.337 L -125.923,-620.133
 L -126.044,-619.942 L -126.188,-619.768 L -126.353,-619.613 L -126.536,-619.48 L -126.734,-619.371 L -126.944,-619.288
 L -127.163,-619.232 L -127.387,-619.204 z
M 127.387,-619.204 L 127.163,-619.232 L 126.944,-619.288 L 126.734,-619.371 L 126.536,-619.48 L 126.353,-619.613
 L 126.188,-619.768 L 126.044,-619.942 L 125.923,-620.133 L 125.826,-620.337 L 125.757,-620.552 L 125.714,-620.774
 L 125.7,-621 L 125.714,-621.226 L 125.757,-621.448 L 125.826,-621.663 L 125.923,-621.867 L 126.044,-622.058
 L 126.188,-622.232 L 126.353,-622.387 L 126.536,-622.52 L 126.734,-622.629 L 126.944,-622.712 L 127.163,-622.768
 L 127.387,-622.796 L 127.613,-622.796 L 127.837,-622.768 L 128.056,-622.712 L 128.266,-622.629 L 128.464,-622.52
 L 128.647,-622.387 L 128.812,-622.232 L 128.956,-622.058 L 129.077,-621.867 L 129.174,-621.663 L 129.243,-621.448
 L 129.286,-621.226 L 129.3,-621 L 129.286,-620.774 L 129.243,-620.552 L 129.174,-620.337 L 129.077,-620.133
 L 128.956,-619.942 L 128.812,-619.768 L 128.647,-619.613 L 128.464,-619.48 L 128.266,-619.371 L 128.056,-619.288
 L 127.837,-619.232 L 127.613,-619.204 z
" stroke="black" fill="lightgray" stroke-width="0.5"/>
</svg>
