<?xml version="1.0" standalone="no"?>
<!DOCTYPE svg PUBLIC "-//W3C//DTD SVG 1.1//EN" "http://www.w3.org/Graphics/SVG/1.1/DTD/svg11.dtd">
<svg width="287mm" height="189mm" viewBox="-144 -342 287 189" xmlns="http://www.w3.org/2000/svg" version="1.1">
<title>OpenSCAD Model</title>
<path d="
M 138.437,-252.089 L 139.045,-252.245 L 139.629,-252.476 L 140.179,-252.778 L 140.687,-253.147 L 141.145,-253.577
 L 141.545,-254.061 L 141.882,-254.591 L 142.149,-255.159 L 142.343,-255.757 L 142.461,-256.373 L 142.5,-257
 L 142.5,-337 L 142.461,-337.627 L 142.343,-338.243 L 142.149,-338.841 L 141.882,-339.409 L 141.545,-339.939
 L 141.145,-340.423 L 140.687,-340.853 L 140.179,-341.222 L 139.629,-341.524 L 139.045,-341.755 L 138.437,-341.911
 L 137.814,-341.99 L -137.814,-341.99 L -138.437,-341.911 L -139.045,-341.755 L -139.629,-341.524 L -140.179,-341.222
 L -140.687,-340.853 L -141,-340.559 L -141,-341.979 L -144,-341.979 L -144,-252.021 L -141,-252.021
 L -141,-253.441 L -140.687,-253.147 L -140.179,-252.778 L -139.629,-252.476 L -139.045,-252.245 L -138.437,-252.089
 L -137.814,-252.01 L 137.814,-252.01 z
M -137.195,-254.393 L -137.583,-254.442 L -137.962,-254.539 L -138.325,-254.683 L -138.668,-254.872 L -138.984,-255.101
 L -139.269,-255.369 L -139.518,-255.67 L -139.728,-256 L -139.894,-256.354 L -140.015,-256.726 L -140.088,-257.11
 L -140.113,-257.5 L -140.113,-336.5 L -140.088,-336.89 L -140.015,-337.274 L -139.894,-337.646 L -139.728,-338
 L -139.518,-338.33 L -139.269,-338.631 L -138.984,-338.899 L -138.668,-339.128 L -138.325,-339.317 L -137.962,-339.461
 L -137.583,-339.558 L -137.195,-339.607 L 137.195,-339.607 L 137.583,-339.558 L 137.962,-339.461 L 138.325,-339.317
 L 138.668,-339.128 L 138.984,-338.899 L 139.269,-338.631 L 139.518,-338.33 L 139.728,-338 L 139.894,-337.646
 L 140.015,-337.274 L 140.088,-336.89 L 140.113,-336.5 L 140.113,-257.5 L 140.088,-257.11 L 140.015,-256.726
 L 139.894,-256.354 L 139.728,-256 L 139.518,-255.67 L 139.269,-255.369 L 138.984,-255.101 L 138.668,-254.872
 L 138.325,-254.683 L 137.962,-254.539 L 137.583,-254.442 L 137.195,-254.393 z
M 138.437,-153.089 L 139.045,-153.245 L 139.629,-153.476 L 140.179,-153.778 L 140.687,-154.147 L 141.145,-154.577
 L 141.545,-155.061 L 141.882,-155.591 L 142.149,-156.159 L 142.343,-156.757 L 142.461,-157.373 L 142.5,-158
 L 142.5,-238 L 142.461,-238.627 L 142.343,-239.243 L 142.149,-239.841 L 141.882,-240.409 L 141.545,-240.939
 L 141.145,-241.423 L 140.687,-241.853 L 140.179,-242.222 L 139.629,-242.524 L 139.045,-242.755 L 138.437,-242.911
 L 137.814,-242.99 L -137.814,-242.99 L -138.437,-242.911 L -139.045,-242.755 L -139.629,-242.524 L -140.179,-242.222
 L -140.687,-241.853 L -141,-241.559 L -141,-241.653 L -144,-241.653 L -144,-154.347 L -141,-154.347
 L -141,-154.441 L -140.687,-154.147 L -140.179,-153.778 L -139.629,-153.476 L -139.045,-153.245 L -138.437,-153.089
 L -137.814,-153.01 L 137.814,-153.01 z
M 134.866,-233.369 L 134.6,-233.403 L 134.34,-233.469 L 134.091,-233.568 L 133.856,-233.697 L 133.639,-233.855
 L 133.443,-234.038 L 133.273,-234.245 L 133.129,-234.471 L 133.015,-234.714 L 132.932,-234.969 L 132.882,-235.232
 L 132.865,-235.5 L 132.882,-235.768 L 132.932,-236.031 L 133.015,-236.286 L 133.129,-236.529 L 133.273,-236.755
 L 133.443,-236.962 L 133.639,-237.145 L 133.856,-237.303 L 134.091,-237.432 L 134.34,-237.531 L 134.6,-237.597
 L 134.866,-237.631 L 135.134,-237.631 L 135.4,-237.597 L 135.66,-237.531 L 135.909,-237.432 L 136.144,-237.303
 L 136.361,-237.145 L 136.557,-236.962 L 136.727,-236.755 L 136.871,-236.529 L 136.985,-236.286 L 137.068,-236.031
 L 137.118,-235.768 L 137.135,-235.5 L 137.118,-235.232 L 137.068,-234.969 L 136.985,-234.714 L 136.871,-234.471
 L 136.727,-234.245 L 136.557,-234.038 L 136.361,-233.855 L 136.144,-233.697 L 135.909,-233.568 L 135.66,-233.469
 L 135.4,-233.403 L 135.134,-233.369 z
M -135.134,-233.369 L -135.4,-233.403 L -135.66,-233.469 L -135.909,-233.568 L -136.144,-233.697 L -136.361,-233.855
 L -136.557,-234.038 L -136.727,-234.245 L -136.871,-234.471 L -136.985,-234.714 L -137.068,-234.969 L -137.118,-235.232
 L -137.135,-235.5 L -137.118,-235.768 L -137.068,-236.031 L -136.985,-236.286 L -136.871,-236.529 L -136.727,-236.755
 L -136.557,-236.962 L -136.361,-237.145 L -136.144,-237.303 L -135.909,-237.432 L -135.66,-237.531 L -135.4,-237.597
 L -135.134,-237.631 L -134.866,-237.631 L -134.6,-237.597 L -134.34,-237.531 L -134.091,-237.432 L -133.856,-237.303
 L -133.639,-237.145 L -133.443,-236.962 L -133.273,-236.755 L -133.129,-236.529 L -133.015,-236.286 L -132.932,-236.031
 L -132.882,-235.768 L -132.865,-235.5 L -132.882,-235.232 L -132.932,-234.969 L -133.015,-234.714 L -133.129,-234.471
 L -133.273,-234.245 L -133.443,-234.038 L -133.639,-233.855 L -133.856,-233.697 L -134.091,-233.568 L -134.34,-233.469
 L -134.6,-233.403 L -134.866,-233.369 z
M 134.866,-158.369 L 134.6,-158.403 L 134.34,-158.469 L 134.091,-158.568 L 133.856,-158.697 L 133.639,-158.855
 L 133.443,-159.038 L 133.273,-159.245 L 133.129,-159.471 L 133.015,-159.714 L 132.932,-159.969 L 132.882,-160.232
 L 132.865,-160.5 L 132.882,-160.768 L 132.932,-161.031 L 133.015,-161.286 L 133.129,-161.529 L 133.273,-161.755
 L 133.443,-161.962 L 133.639,-162.145 L 133.856,-162.303 L 134.091,-162.432 L 134.34,-162.531 L 134.6,-162.597
 L 134.866,-162.631 L 135.134,-162.631 L 135.4,-162.597 L 135.66,-162.531 L 135.909,-162.432 L 136.144,-162.303
 L 136.361,-162.145 L 136.557,-161.962 L 136.727,-161.755 L 136.871,-161.529 L 136.985,-161.286 L 137.068,-161.031
 L 137.118,-160.768 L 137.135,-160.5 L 137.118,-160.232 L 137.068,-159.969 L 136.985,-159.714 L 136.871,-159.471
 L 136.727,-159.245 L 136.557,-159.038 L 136.361,-158.855 L 136.144,-158.697 L 135.909,-158.568 L 135.66,-158.469
 L 135.4,-158.403 L 135.134,-158.369 z
M -135.134,-158.369 L -135.4,-158.403 L -135.66,-158.469 L -135.909,-158.568 L -136.144,-158.697 L -136.361,-158.855
 L -136.557,-159.038 L -136.727,-159.245 L -136.871,-159.471 L -136.985,-159.714 L -137.068,-159.969 L -137.118,-160.232
 L -137.135,-160.5 L -137.118,-160.768 L -137.068,-161.031 L -136.985,-161.286 L -136.871,-161.529 L -136.727,-161.755
 L -136.557,-161.962 L -136.361,-162.145 L -136.144,-162.303 L -135.909,-162.432 L -135.66,-162.531 L -135.4,-162.597
 L -135.134,-162.631 L -134.866,-162.631 L -134.6,-162.597 L -134.34,-162.531 L -134.091,-162.432 L -133.856,-162.303
 L -133.639,-162.145 L -133.443,-161.962 L -133.273,-161.755 L -133.129,-161.529 L -133.015,-161.286 L -132.932,-161.031
 L -132.882,-160.768 L -132.865,-160.5 L -132.882,-160.232 L -132.932,-159.969 L -133.015,-159.714 L -133.129,-159.471
 L -133.273,-159.245 L -133.443,-159.038 L -133.639,-158.855 L -133.856,-158.697 L -134.091,-158.568 L -134.34,-158.469
 L -134.6,-158.403 L -134.866,-158.369 z
" stroke="black" fill="lightgray" stroke-width="0.5"/>
</svg>
