<?xml version="1.0" standalone="no"?>
<!DOCTYPE svg PUBLIC "-//W3C//DTD SVG 1.1//EN" "http://www.w3.org/Graphics/SVG/1.1/DTD/svg11.dtd">
<svg width="26mm" height="26mm" viewBox="-13 -123 26 26" xmlns="http://www.w3.org/2000/svg" version="1.1">
<title>OpenSCAD Model</title>
<path d="
M 0.881302,-97.5528 L 0.979034,-97.5601 L 1.07671,-97.5681 L 1.11101,-97.5713 L 1.21602,-97.6255 L 1.25708,-97.7265
 L 1.26227,-97.8365 L 1.28096,-97.9454 L 1.31281,-98.0524 L 1.35741,-98.1567 L 1.44673,-98.2692 L 1.55872,-98.3582
 L 1.6877,-98.4219 L 1.82796,-98.4587 L 1.97273,-98.467 L 2.11508,-98.4463 L 2.24907,-98.3963 L 2.3688,-98.3169
 L 2.44327,-98.2315 L 2.50664,-98.1396 L 2.55817,-98.0418 L 2.59717,-97.9387 L 2.66728,-97.8553 L 2.78404,-97.8362
 L 2.81763,-97.8439 L 2.91301,-97.8664 L 3.00822,-97.8896 L 3.04161,-97.8981 L 3.13686,-97.9681 L 3.16162,-98.0742
 L 3.14952,-98.1837 L 3.15094,-98.2942 L 3.16565,-98.4049 L 3.19341,-98.5148 L 3.26402,-98.64 L 3.3607,-98.7453
 L 3.47813,-98.8284 L 3.6109,-98.8868 L 3.75259,-98.9176 L 3.89644,-98.9194 L 4.03661,-98.891 L 4.16728,-98.8313
 L 4.2542,-98.7586 L 4.33116,-98.6777 L 4.39735,-98.5892 L 4.452,-98.4935 L 4.53429,-98.4221 L 4.6526,-98.4215
 L 4.68457,-98.4343 L 4.77527,-98.4715 L 4.86566,-98.5093 L 4.89732,-98.5229 L 4.98044,-98.6069 L 4.9883,-98.7156
 L 4.95921,-98.8219 L 4.94334,-98.9313 L 4.94055,-99.0429 L 4.95076,-99.1558 L 5.00095,-99.2904 L 5.07996,-99.4096
 L 5.18292,-99.5101 L 5.30495,-99.5885 L 5.44006,-99.6411 L 5.58186,-99.6654 L 5.72475,-99.6592 L 5.86316,-99.6207
 L 5.96037,-99.5625 L 6.04903,-99.4946 L 6.12827,-99.4176 L 6.19719,-99.3316 L 6.28964,-99.274 L 6.4066,-99.2919
 L 6.43617,-99.3096 L 6.51994,-99.3604 L 6.6033,-99.412 L 6.63245,-99.4303 L 6.7014,-99.5263 L 6.69214,-99.6349
 L 6.64679,-99.7353 L 6.61401,-99.8409 L 6.59381,-99.9506 L 6.58621,-100.064 L 6.61473,-100.205 L 6.6741,-100.335
 L 6.7601,-100.45 L 6.86835,-100.547 L 6.99358,-100.62 L 7.12982,-100.666 L 7.27193,-100.682 L 7.41466,-100.666
 L 7.51978,-100.623 L 7.61795,-100.57 L 7.70827,-100.507 L 7.78981,-100.432 L 7.89012,-100.39 L 8.00284,-100.426
 L 8.02928,-100.448 L 8.10406,-100.511 L 8.17833,-100.575 L 8.20425,-100.598 L 8.25734,-100.704 L 8.23122,-100.809
 L 8.17072,-100.901 L 8.12183,-101.001 L 8.08469,-101.106 L 8.05949,-101.216 L 8.06563,-101.36 L 8.10393,-101.498
 L 8.17082,-101.625 L 8.26263,-101.737 L 8.37488,-101.829 L 8.50224,-101.896 L 8.64003,-101.934 L 8.78358,-101.941
 L 8.89401,-101.915 L 8.9993,-101.878 L 9.09848,-101.829 L 9.1906,-101.769 L 9.29633,-101.743 L 9.40202,-101.796
 L 9.4247,-101.822 L 9.48863,-101.896 L 9.552,-101.971 L 9.57405,-101.997 L 9.60997,-102.11 L 9.5676,-102.21
 L 9.49344,-102.292 L 9.42964,-102.382 L 9.37651,-102.48 L 9.33434,-102.585 L 9.31793,-102.728 L 9.3342,-102.87
 L 9.38034,-103.006 L 9.45348,-103.132 L 9.54997,-103.24 L 9.6653,-103.326 L 9.79541,-103.385 L 9.93622,-103.414
 L 10.0493,-103.406 L 10.1591,-103.386 L 10.2646,-103.353 L 10.3651,-103.308 L 10.4736,-103.298 L 10.5697,-103.368
 L 10.588,-103.397 L 10.6396,-103.48 L 10.6904,-103.564 L 10.7081,-103.593 L 10.726,-103.71 L 10.6684,-103.803
 L 10.5824,-103.872 L 10.5053,-103.951 L 10.4374,-104.039 L 10.3793,-104.137 L 10.3408,-104.275 L 10.3346,-104.418
 L 10.3589,-104.56 L 10.4115,-104.695 L 10.4899,-104.817 L 10.5904,-104.92 L 10.7096,-104.999 L 10.8442,-105.049
 L 10.9571,-105.059 L 11.0687,-105.057 L 11.1781,-105.041 L 11.2844,-105.012 L 11.393,-105.019 L 11.4771,-105.103
 L 11.4907,-105.134 L 11.5285,-105.225 L 11.5657,-105.315 L 11.5785,-105.347 L 11.5778,-105.466 L 11.5065,-105.548
 L 11.4108,-105.603 L 11.3223,-105.669 L 11.2414,-105.746 L 11.1687,-105.833 L 11.109,-105.963 L 11.0806,-106.104
 L 11.0824,-106.247 L 11.1132,-106.389 L 11.1716,-106.522 L 11.2547,-106.639 L 11.36,-106.736 L 11.4852,-106.807
 L 11.5951,-106.834 L 11.7057,-106.849 L 11.8163,-106.85 L 11.9258,-106.838 L 12.0319,-106.863 L 12.1019,-106.958
 L 12.1104,-106.992 L 12.1336,-107.087 L 12.1561,-107.182 L 12.1638,-107.216 L 12.1446,-107.333 L 12.0613,-107.403
 L 11.9582,-107.442 L 11.8604,-107.493 L 11.7685,-107.557 L 11.6831,-107.631 L 11.6037,-107.751 L 11.5537,-107.885
 L 11.533,-108.027 L 11.5413,-108.172 L 11.5781,-108.312 L 11.6418,-108.441 L 11.7308,-108.553 L 11.8433,-108.643
 L 11.9476,-108.687 L 12.0546,-108.719 L 12.1635,-108.738 L 12.2735,-108.743 L 12.3745,-108.784 L 12.4287,-108.889
 L 12.4319,-108.923 L 12.4399,-109.021 L 12.4472,-109.119 L 12.4495,-109.153 L 12.4124,-109.265 L 12.3191,-109.322
 L 12.2112,-109.344 L 12.1066,-109.379 L 12.0059,-109.428 L 11.9099,-109.488 L 11.8127,-109.594 L 11.7423,-109.718
 L 11.6996,-109.856 L 11.6852,-110 L 11.6996,-110.144 L 11.7423,-110.282 L 11.8127,-110.406 L 11.9099,-110.512
 L 12.0059,-110.572 L 12.1066,-110.62 L 12.2112,-110.656 L 12.3191,-110.678 L 12.4124,-110.735 L 12.4495,-110.847
 L 12.4472,-110.881 L 12.4399,-110.979 L 12.4319,-111.077 L 12.4287,-111.111 L 12.3745,-111.216 L 12.2735,-111.257
 L 12.1635,-111.262 L 12.0546,-111.281 L 11.9476,-111.313 L 11.8433,-111.357 L 11.7308,-111.447 L 11.6418,-111.559
 L 11.5781,-111.688 L 11.5413,-111.828 L 11.533,-111.973 L 11.5537,-112.115 L 11.6037,-112.249 L 11.6831,-112.369
 L 11.7685,-112.443 L 11.8604,-112.507 L 11.9582,-112.558 L 12.0613,-112.597 L 12.1447,-112.667 L 12.1638,-112.784
 L 12.1561,-112.818 L 12.1336,-112.913 L 12.1104,-113.008 L 12.1019,-113.042 L 12.0319,-113.137 L 11.9258,-113.162
 L 11.8163,-113.15 L 11.7058,-113.151 L 11.5951,-113.166 L 11.4852,-113.193 L 11.36,-113.264 L 11.2547,-113.361
 L 11.1716,-113.478 L 11.1132,-113.611 L 11.0824,-113.753 L 11.0806,-113.896 L 11.109,-114.037 L 11.1687,-114.167
 L 11.2414,-114.254 L 11.3223,-114.331 L 11.4108,-114.397 L 11.5065,-114.452 L 11.5779,-114.534 L 11.5785,-114.653
 L 11.5657,-114.685 L 11.5285,-114.775 L 11.4907,-114.866 L 11.4771,-114.897 L 11.3931,-114.98 L 11.2844,-114.988
 L 11.1781,-114.959 L 11.0687,-114.943 L 10.9571,-114.941 L 10.8442,-114.951 L 10.7096,-115.001 L 10.5904,-115.08
 L 10.4899,-115.183 L 10.4115,-115.305 L 10.3589,-115.44 L 10.3346,-115.582 L 10.3408,-115.725 L 10.3793,-115.863
 L 10.4375,-115.96 L 10.5054,-116.049 L 10.5824,-116.128 L 10.6684,-116.197 L 10.726,-116.29 L 10.7081,-116.407
 L 10.6904,-116.436 L 10.6396,-116.52 L 10.588,-116.603 L 10.5697,-116.632 L 10.4737,-116.701 L 10.3651,-116.692
 L 10.2647,-116.647 L 10.1591,-116.614 L 10.0494,-116.594 L 9.93622,-116.586 L 9.79541,-116.615 L 9.6653,-116.674
 L 9.54997,-116.76 L 9.45348,-116.868 L 9.38034,-116.994 L 9.3342,-117.13 L 9.31793,-117.272 L 9.33434,-117.415
 L 9.37662,-117.52 L 9.42973,-117.618 L 9.49347,-117.708 L 9.5676,-117.79 L 9.61005,-117.89 L 9.57405,-118.003
 L 9.552,-118.029 L 9.48863,-118.104 L 9.4247,-118.178 L 9.40202,-118.204 L 9.29643,-118.257 L 9.1906,-118.231
 L 9.09851,-118.171 L 8.99942,-118.122 L 8.89413,-118.085 L 8.78358,-118.059 L 8.64003,-118.066 L 8.50224,-118.104
 L 8.37488,-118.171 L 8.26263,-118.263 L 8.17082,-118.375 L 8.10393,-118.502 L 8.06563,-118.64 L 8.05949,-118.784
 L 8.08481,-118.894 L 8.12193,-118.999 L 8.17075,-119.098 L 8.23122,-119.191 L 8.25745,-119.296 L 8.20425,-119.402
 L 8.17833,-119.425 L 8.10406,-119.489 L 8.02928,-119.552 L 8.00284,-119.574 L 7.89024,-119.61 L 7.78981,-119.568
 L 7.70831,-119.493 L 7.61809,-119.43 L 7.51991,-119.377 L 7.41466,-119.334 L 7.27193,-119.318 L 7.12982,-119.334
 L 6.99358,-119.38 L 6.86835,-119.453 L 6.7601,-119.55 L 6.6741,-119.665 L 6.61473,-119.795 L 6.58621,-119.936
 L 6.59395,-120.049 L 6.61414,-120.159 L 6.64684,-120.265 L 6.69214,-120.365 L 6.70151,-120.474 L 6.63245,-120.57
 L 6.6033,-120.588 L 6.51994,-120.64 L 6.43617,-120.69 L 6.4066,-120.708 L 6.28976,-120.726 L 6.19719,-120.668
 L 6.12831,-120.582 L 6.04916,-120.505 L 5.96053,-120.437 L 5.86316,-120.379 L 5.72475,-120.341 L 5.58186,-120.335
 L 5.44006,-120.359 L 5.30495,-120.412 L 5.18292,-120.49 L 5.07996,-120.59 L 5.00095,-120.71 L 4.95076,-120.844
 L 4.9407,-120.957 L 4.94348,-121.069 L 4.95926,-121.178 L 4.9883,-121.284 L 4.98058,-121.393 L 4.89732,-121.477
 L 4.86566,-121.491 L 4.77527,-121.529 L 4.68457,-121.566 L 4.6526,-121.578 L 4.53441,-121.578 L 4.452,-121.507
 L 4.3974,-121.411 L 4.3313,-121.322 L 4.25436,-121.241 L 4.16728,-121.169 L 4.03661,-121.109 L 3.89644,-121.081
 L 3.75259,-121.082 L 3.6109,-121.113 L 3.47813,-121.172 L 3.3607,-121.255 L 3.26402,-121.36 L 3.19341,-121.485
 L 3.16582,-121.595 L 3.15109,-121.706 L 3.14957,-121.816 L 3.16162,-121.926 L 3.13699,-122.032 L 3.04161,-122.102
 L 3.00822,-122.11 L 2.91301,-122.134 L 2.81763,-122.156 L 2.78404,-122.164 L 2.66742,-122.145 L 2.59717,-122.061
 L 2.55823,-121.958 L 2.50679,-121.86 L 2.44344,-121.769 L 2.3688,-121.683 L 2.24907,-121.604 L 2.11508,-121.554
 L 1.97273,-121.533 L 1.82796,-121.541 L 1.6877,-121.578 L 1.55872,-121.642 L 1.44673,-121.731 L 1.35741,-121.843
 L 1.31297,-121.948 L 1.28111,-122.055 L 1.26231,-122.163 L 1.25708,-122.274 L 1.21616,-122.374 L 1.11101,-122.429
 L 1.07671,-122.432 L 0.979034,-122.44 L 0.881302,-122.447 L 0.846939,-122.45 L 0.734741,-122.412 L 0.678375,-122.319
 L 0.656052,-122.211 L 0.620544,-122.107 L 0.572357,-122.006 L 0.511993,-121.91 L 0.406158,-121.813 L 0.281647,-121.742
 L 0.144287,-121.7 L 0,-121.685 L -0.144287,-121.7 L -0.281647,-121.742 L -0.406158,-121.813 L -0.511993,-121.91
 L -0.572189,-122.006 L -0.620392,-122.107 L -0.655991,-122.211 L -0.678375,-122.319 L -0.734589,-122.412 L -0.846939,-122.45
 L -0.881302,-122.447 L -0.979034,-122.44 L -1.07671,-122.432 L -1.11101,-122.429 L -1.21602,-122.375 L -1.25708,-122.274
 L -1.26227,-122.163 L -1.28096,-122.055 L -1.31281,-121.948 L -1.35741,-121.843 L -1.44673,-121.731 L -1.55872,-121.642
 L -1.6877,-121.578 L -1.82796,-121.541 L -1.97273,-121.533 L -2.11508,-121.554 L -2.24907,-121.604 L -2.3688,-121.683
 L -2.44327,-121.769 L -2.50664,-121.86 L -2.55817,-121.958 L -2.59717,-122.061 L -2.66728,-122.145 L -2.78404,-122.164
 L -2.81763,-122.156 L -2.91301,-122.134 L -3.00822,-122.11 L -3.04161,-122.102 L -3.13686,-122.032 L -3.16162,-121.926
 L -3.14952,-121.816 L -3.15094,-121.706 L -3.16565,-121.595 L -3.19341,-121.485 L -3.26402,-121.36 L -3.3607,-121.255
 L -3.47813,-121.172 L -3.6109,-121.113 L -3.75259,-121.082 L -3.89644,-121.081 L -4.03661,-121.109 L -4.16728,-121.169
 L -4.2542,-121.241 L -4.33116,-121.322 L -4.39735,-121.411 L -4.452,-121.507 L -4.53429,-121.578 L -4.6526,-121.578
 L -4.68457,-121.566 L -4.77527,-121.529 L -4.86566,-121.491 L -4.89732,-121.477 L -4.98044,-121.393 L -4.9883,-121.284
 L -4.95921,-121.178 L -4.94334,-121.069 L -4.94055,-120.957 L -4.95076,-120.844 L -5.00095,-120.71 L -5.07996,-120.59
 L -5.18292,-120.49 L -5.30495,-120.412 L -5.44006,-120.359 L -5.58186,-120.335 L -5.72475,-120.341 L -5.86316,-120.379
 L -5.96037,-120.438 L -6.04903,-120.505 L -6.12827,-120.582 L -6.19719,-120.668 L -6.28964,-120.726 L -6.4066,-120.708
 L -6.43617,-120.69 L -6.51994,-120.64 L -6.6033,-120.588 L -6.63245,-120.57 L -6.7014,-120.474 L -6.69214,-120.365
 L -6.64679,-120.265 L -6.61401,-120.159 L -6.59381,-120.049 L -6.58621,-119.936 L -6.61473,-119.795 L -6.6741,-119.665
 L -6.7601,-119.55 L -6.86835,-119.453 L -6.99358,-119.38 L -7.12982,-119.334 L -7.27193,-119.318 L -7.41466,-119.334
 L -7.51978,-119.377 L -7.61795,-119.43 L -7.70827,-119.493 L -7.78981,-119.568 L -7.89012,-119.61 L -8.00284,-119.574
 L -8.02928,-119.552 L -8.10406,-119.489 L -8.17833,-119.425 L -8.20425,-119.402 L -8.25734,-119.296 L -8.23122,-119.191
 L -8.17072,-119.099 L -8.12183,-118.999 L -8.08469,-118.894 L -8.05949,-118.784 L -8.06563,-118.64 L -8.10393,-118.502
 L -8.17082,-118.375 L -8.26263,-118.263 L -8.37488,-118.171 L -8.50224,-118.104 L -8.64003,-118.066 L -8.78358,-118.059
 L -8.89401,-118.085 L -8.9993,-118.122 L -9.09848,-118.171 L -9.1906,-118.231 L -9.29633,-118.257 L -9.40202,-118.204
 L -9.4247,-118.178 L -9.48863,-118.104 L -9.552,-118.029 L -9.57405,-118.003 L -9.60997,-117.89 L -9.5676,-117.79
 L -9.49344,-117.708 L -9.42964,-117.618 L -9.37651,-117.52 L -9.33434,-117.415 L -9.31793,-117.272 L -9.3342,-117.13
 L -9.38034,-116.994 L -9.45348,-116.868 L -9.54997,-116.76 L -9.6653,-116.674 L -9.79541,-116.615 L -9.93622,-116.586
 L -10.0493,-116.594 L -10.1591,-116.614 L -10.2646,-116.647 L -10.3651,-116.692 L -10.4736,-116.702 L -10.5697,-116.632
 L -10.588,-116.603 L -10.6396,-116.52 L -10.6904,-116.436 L -10.7081,-116.407 L -10.726,-116.29 L -10.6684,-116.197
 L -10.5824,-116.128 L -10.5053,-116.049 L -10.4374,-115.961 L -10.3793,-115.863 L -10.3408,-115.725 L -10.3346,-115.582
 L -10.3589,-115.44 L -10.4115,-115.305 L -10.4899,-115.183 L -10.5904,-115.08 L -10.7096,-115.001 L -10.8442,-114.951
 L -10.9571,-114.941 L -11.0687,-114.943 L -11.1781,-114.959 L -11.2844,-114.988 L -11.393,-114.981 L -11.4771,-114.897
 L -11.4907,-114.866 L -11.5285,-114.775 L -11.5657,-114.685 L -11.5785,-114.653 L -11.5778,-114.534 L -11.5065,-114.452
 L -11.4108,-114.397 L -11.3223,-114.331 L -11.2414,-114.254 L -11.1687,-114.167 L -11.109,-114.037 L -11.0806,-113.896
 L -11.0824,-113.753 L -11.1132,-113.611 L -11.1716,-113.478 L -11.2547,-113.361 L -11.36,-113.264 L -11.4852,-113.193
 L -11.5951,-113.166 L -11.7057,-113.151 L -11.8163,-113.15 L -11.9258,-113.162 L -12.0319,-113.137 L -12.1019,-113.042
 L -12.1104,-113.008 L -12.1336,-112.913 L -12.1561,-112.818 L -12.1638,-112.784 L -12.1446,-112.667 L -12.0613,-112.597
 L -11.9582,-112.558 L -11.8604,-112.507 L -11.7685,-112.443 L -11.6831,-112.369 L -11.6037,-112.249 L -11.5537,-112.115
 L -11.533,-111.973 L -11.5413,-111.828 L -11.5781,-111.688 L -11.6418,-111.559 L -11.7308,-111.447 L -11.8433,-111.357
 L -11.9476,-111.313 L -12.0546,-111.281 L -12.1635,-111.262 L -12.2735,-111.257 L -12.3745,-111.216 L -12.4287,-111.111
 L -12.4319,-111.077 L -12.4399,-110.979 L -12.4472,-110.881 L -12.4495,-110.847 L -12.4124,-110.735 L -12.3191,-110.678
 L -12.2112,-110.656 L -12.1066,-110.621 L -12.0059,-110.572 L -11.9099,-110.512 L -11.8127,-110.406 L -11.7423,-110.282
 L -11.6996,-110.144 L -11.6852,-110 L -11.6996,-109.856 L -11.7423,-109.718 L -11.8127,-109.594 L -11.9099,-109.488
 L -12.0059,-109.428 L -12.1066,-109.38 L -12.2112,-109.344 L -12.3191,-109.322 L -12.4124,-109.265 L -12.4495,-109.153
 L -12.4472,-109.119 L -12.4399,-109.021 L -12.4319,-108.923 L -12.4287,-108.889 L -12.3745,-108.784 L -12.2735,-108.743
 L -12.1635,-108.738 L -12.0546,-108.719 L -11.9476,-108.687 L -11.8433,-108.643 L -11.7308,-108.553 L -11.6418,-108.441
 L -11.5781,-108.312 L -11.5413,-108.172 L -11.533,-108.027 L -11.5537,-107.885 L -11.6037,-107.751 L -11.6831,-107.631
 L -11.7685,-107.557 L -11.8604,-107.493 L -11.9582,-107.442 L -12.0613,-107.403 L -12.1447,-107.333 L -12.1638,-107.216
 L -12.1561,-107.182 L -12.1336,-107.087 L -12.1104,-106.992 L -12.1019,-106.958 L -12.0319,-106.863 L -11.9258,-106.838
 L -11.8163,-106.85 L -11.7058,-106.849 L -11.5951,-106.834 L -11.4852,-106.807 L -11.36,-106.736 L -11.2547,-106.639
 L -11.1716,-106.522 L -11.1132,-106.389 L -11.0824,-106.247 L -11.0806,-106.104 L -11.109,-105.963 L -11.1687,-105.833
 L -11.2414,-105.746 L -11.3223,-105.669 L -11.4108,-105.603 L -11.5065,-105.548 L -11.5779,-105.466 L -11.5785,-105.347
 L -11.5657,-105.315 L -11.5285,-105.225 L -11.4907,-105.134 L -11.4771,-105.103 L -11.3931,-105.02 L -11.2844,-105.012
 L -11.1781,-105.041 L -11.0687,-105.057 L -10.9571,-105.059 L -10.8442,-105.049 L -10.7096,-104.999 L -10.5904,-104.92
 L -10.4899,-104.817 L -10.4115,-104.695 L -10.3589,-104.56 L -10.3346,-104.418 L -10.3408,-104.275 L -10.3793,-104.137
 L -10.4375,-104.04 L -10.5054,-103.951 L -10.5824,-103.872 L -10.6684,-103.803 L -10.726,-103.71 L -10.7081,-103.593
 L -10.6904,-103.564 L -10.6396,-103.48 L -10.588,-103.397 L -10.5697,-103.368 L -10.4737,-103.299 L -10.3651,-103.308
 L -10.2647,-103.353 L -10.1591,-103.386 L -10.0494,-103.406 L -9.93622,-103.414 L -9.79541,-103.385 L -9.6653,-103.326
 L -9.54997,-103.24 L -9.45348,-103.132 L -9.38034,-103.006 L -9.3342,-102.87 L -9.31793,-102.728 L -9.33434,-102.585
 L -9.37662,-102.48 L -9.42973,-102.382 L -9.49347,-102.292 L -9.5676,-102.21 L -9.61005,-102.11 L -9.57405,-101.997
 L -9.552,-101.971 L -9.48863,-101.896 L -9.4247,-101.822 L -9.40202,-101.796 L -9.29643,-101.743 L -9.1906,-101.769
 L -9.09851,-101.829 L -8.99942,-101.878 L -8.89413,-101.915 L -8.78358,-101.941 L -8.64003,-101.934 L -8.50224,-101.896
 L -8.37488,-101.829 L -8.26263,-101.737 L -8.17082,-101.625 L -8.10393,-101.498 L -8.06563,-101.36 L -8.05949,-101.216
 L -8.08481,-101.106 L -8.12193,-101.001 L -8.17075,-100.902 L -8.23122,-100.809 L -8.25745,-100.704 L -8.20425,-100.598
 L -8.17833,-100.575 L -8.10406,-100.511 L -8.02928,-100.448 L -8.00284,-100.426 L -7.89024,-100.39 L -7.78981,-100.432
 L -7.70831,-100.507 L -7.61809,-100.57 L -7.51991,-100.623 L -7.41466,-100.666 L -7.27193,-100.682 L -7.12982,-100.666
 L -6.99358,-100.62 L -6.86835,-100.547 L -6.7601,-100.45 L -6.6741,-100.335 L -6.61473,-100.205 L -6.58621,-100.064
 L -6.59395,-99.9507 L -6.61414,-99.8409 L -6.64684,-99.7354 L -6.69214,-99.6349 L -6.70151,-99.5264 L -6.63245,-99.4303
 L -6.6033,-99.412 L -6.51994,-99.3604 L -6.43617,-99.3096 L -6.4066,-99.2919 L -6.28976,-99.274 L -6.19719,-99.3316
 L -6.12831,-99.4176 L -6.04916,-99.4947 L -5.96053,-99.5626 L -5.86316,-99.6207 L -5.72475,-99.6592 L -5.58186,-99.6654
 L -5.44006,-99.6411 L -5.30495,-99.5885 L -5.18292,-99.5101 L -5.07996,-99.4096 L -5.00095,-99.2904 L -4.95076,-99.1558
 L -4.9407,-99.0429 L -4.94348,-98.9313 L -4.95926,-98.8219 L -4.9883,-98.7156 L -4.98058,-98.607 L -4.89732,-98.5229
 L -4.86566,-98.5093 L -4.77527,-98.4715 L -4.68457,-98.4343 L -4.6526,-98.4215 L -4.53441,-98.4222 L -4.452,-98.4935
 L -4.3974,-98.5892 L -4.3313,-98.6777 L -4.25436,-98.7586 L -4.16728,-98.8313 L -4.03661,-98.891 L -3.89644,-98.9194
 L -3.75259,-98.9176 L -3.6109,-98.8868 L -3.47813,-98.8284 L -3.3607,-98.7453 L -3.26402,-98.64 L -3.19341,-98.5148
 L -3.16582,-98.4049 L -3.15109,-98.2943 L -3.14957,-98.1837 L -3.16162,-98.0742 L -3.13699,-97.9681 L -3.04161,-97.8981
 L -3.00822,-97.8896 L -2.91301,-97.8664 L -2.81763,-97.8439 L -2.78404,-97.8362 L -2.66742,-97.8554 L -2.59717,-97.9387
 L -2.55823,-98.0418 L -2.50679,-98.1396 L -2.44344,-98.2315 L -2.3688,-98.3169 L -2.24907,-98.3963 L -2.11508,-98.4463
 L -1.97273,-98.467 L -1.82796,-98.4587 L -1.6877,-98.4219 L -1.55872,-98.3582 L -1.44673,-98.2692 L -1.35741,-98.1567
 L -1.31297,-98.0524 L -1.28111,-97.9454 L -1.26231,-97.8365 L -1.25708,-97.7265 L -1.21616,-97.6255 L -1.11101,-97.5713
 L -1.07671,-97.5681 L -0.979034,-97.5601 L -0.881302,-97.5528 L -0.846939,-97.5505 L -0.734741,-97.5876 L -0.678375,-97.6809
 L -0.656052,-97.7888 L -0.620544,-97.8934 L -0.572357,-97.9941 L -0.511993,-98.0901 L -0.406158,-98.1873 L -0.281647,-98.2577
 L -0.144287,-98.3004 L 0,-98.3148 L 0.144287,-98.3004 L 0.281647,-98.2577 L 0.406158,-98.1873 L 0.511993,-98.0901
 L 0.572189,-97.9941 L 0.620392,-97.8934 L 0.655991,-97.7888 L 0.678375,-97.6809 L 0.734589,-97.5876 L 0.846939,-97.5505
 z
M -0.109879,-108.253 L -0.327911,-108.281 L -0.540771,-108.336 L -0.745102,-108.417 L -0.937683,-108.522 L -1.11548,-108.652
 L -1.27568,-108.802 L -1.41577,-108.971 L -1.53352,-109.157 L -1.62711,-109.356 L -1.69501,-109.565 L -1.73619,-109.781
 L -1.75,-110 L -1.73619,-110.219 L -1.69501,-110.435 L -1.62711,-110.644 L -1.53352,-110.843 L -1.43393,-111
 L 1.43393,-111 L 1.53352,-110.843 L 1.62711,-110.644 L 1.69501,-110.435 L 1.73619,-110.219 L 1.75,-110
 L 1.73619,-109.781 L 1.69501,-109.565 L 1.62711,-109.356 L 1.53352,-109.157 L 1.41577,-108.971 L 1.27568,-108.802
 L 1.11548,-108.652 L 0.937683,-108.522 L 0.745102,-108.417 L 0.540771,-108.336 L 0.327911,-108.281 L 0.109879,-108.253
 z
" stroke="black" fill="lightgray" stroke-width="0.5"/>
</svg>
