<?xml version="1.0" standalone="no"?>
<!DOCTYPE svg PUBLIC "-//W3C//DTD SVG 1.1//EN" "http://www.w3.org/Graphics/SVG/1.1/DTD/svg11.dtd">
<svg width="300mm" height="627mm" viewBox="-150 -1029 300 627" xmlns="http://www.w3.org/2000/svg" version="1.1">
<title>OpenSCAD Model</title>
<path d="
M 145.937,-879.089 L 146.545,-879.245 L 147.129,-879.476 L 147.679,-879.778 L 148.187,-880.147 L 148.645,-880.577
 L 149.045,-881.061 L 149.382,-881.591 L 149.649,-882.159 L 149.843,-882.757 L 149.961,-883.373 L 150,-884
 L 150,-1024 L 149.961,-1024.63 L 149.843,-1025.24 L 149.649,-1025.84 L 149.382,-1026.41 L 149.045,-1026.94
 L 148.645,-1027.42 L 148.187,-1027.85 L 147.679,-1028.22 L 147.129,-1028.52 L 146.545,-1028.76 L 145.937,-1028.91
 L 145.314,-1028.99 L -145.314,-1028.99 L -145.937,-1028.91 L -146.545,-1028.76 L -147.129,-1028.52 L -147.679,-1028.22
 L -148.187,-1027.85 L -148.645,-1027.42 L -149.045,-1026.94 L -149.382,-1026.41 L -149.649,-1025.84 L -149.843,-1025.24
 L -149.961,-1024.63 L -150,-1024 L -150,-884 L -149.961,-883.373 L -149.843,-882.757 L -149.649,-882.159
 L -149.382,-881.591 L -149.045,-881.061 L -148.645,-880.577 L -148.187,-880.147 L -147.679,-879.778 L -147.129,-879.476
 L -146.545,-879.245 L -145.937,-879.089 L -145.314,-879.01 L 145.314,-879.01 z
M -145.048,-879.509 L -145.64,-879.584 L -146.218,-879.732 L -146.772,-879.952 L -147.295,-880.239 L -147.778,-880.59
 L -148.213,-880.998 L -148.593,-881.458 L -148.912,-881.962 L -149.166,-882.501 L -149.351,-883.069 L -149.463,-883.655
 L -149.5,-884.25 L -149.5,-1023.75 L -149.463,-1024.35 L -149.351,-1024.93 L -149.166,-1025.5 L -148.912,-1026.04
 L -148.593,-1026.54 L -148.213,-1027 L -147.778,-1027.41 L -147.295,-1027.76 L -146.772,-1028.05 L -146.218,-1028.27
 L -145.64,-1028.42 L -145.048,-1028.49 L 145.048,-1028.49 L 145.64,-1028.42 L 146.218,-1028.27 L 146.772,-1028.05
 L 147.295,-1027.76 L 147.778,-1027.41 L 148.213,-1027 L 148.593,-1026.54 L 148.912,-1026.04 L 149.166,-1025.5
 L 149.351,-1024.93 L 149.463,-1024.35 L 149.5,-1023.75 L 149.5,-884.25 L 149.463,-883.655 L 149.351,-883.069
 L 149.166,-882.501 L 148.912,-881.962 L 148.593,-881.458 L 148.213,-880.998 L 147.778,-880.59 L 147.295,-880.239
 L 146.772,-879.952 L 146.218,-879.732 L 145.64,-879.584 L 145.048,-879.509 z
M 145.937,-720.089 L 146.545,-720.245 L 147.129,-720.476 L 147.679,-720.778 L 148.187,-721.147 L 148.645,-721.577
 L 149.045,-722.061 L 149.382,-722.591 L 149.649,-723.159 L 149.843,-723.757 L 149.961,-724.373 L 150,-725
 L 150,-865 L 149.961,-865.627 L 149.843,-866.243 L 149.649,-866.841 L 149.382,-867.409 L 149.045,-867.939
 L 148.645,-868.423 L 148.187,-868.853 L 147.679,-869.222 L 147.129,-869.524 L 146.545,-869.755 L 145.937,-869.911
 L 145.314,-869.99 L -145.314,-869.99 L -145.937,-869.911 L -146.545,-869.755 L -147.129,-869.524 L -147.679,-869.222
 L -148.187,-868.853 L -148.645,-868.423 L -149.045,-867.939 L -149.382,-867.409 L -149.649,-866.841 L -149.843,-866.243
 L -149.961,-865.627 L -150,-865 L -150,-725 L -149.961,-724.373 L -149.843,-723.757 L -149.649,-723.159
 L -149.382,-722.591 L -149.045,-722.061 L -148.645,-721.577 L -148.187,-721.147 L -147.679,-720.778 L -147.129,-720.476
 L -146.545,-720.245 L -145.937,-720.089 L -145.314,-720.01 L 145.314,-720.01 z
M -145.048,-720.509 L -145.64,-720.584 L -146.218,-720.732 L -146.772,-720.952 L -147.295,-721.239 L -147.778,-721.59
 L -148.213,-721.998 L -148.593,-722.458 L -148.912,-722.962 L -149.166,-723.501 L -149.351,-724.069 L -149.463,-724.655
 L -149.5,-725.25 L -149.5,-864.75 L -149.463,-865.345 L -149.351,-865.931 L -149.166,-866.499 L -148.912,-867.038
 L -148.593,-867.542 L -148.213,-868.002 L -147.778,-868.41 L -147.295,-868.761 L -146.772,-869.048 L -146.218,-869.268
 L -145.64,-869.416 L -145.048,-869.491 L 145.048,-869.491 L 145.64,-869.416 L 146.218,-869.268 L 146.772,-869.048
 L 147.295,-868.761 L 147.778,-868.41 L 148.213,-868.002 L 148.593,-867.542 L 148.912,-867.038 L 149.166,-866.499
 L 149.351,-865.931 L 149.463,-865.345 L 149.5,-864.75 L 149.5,-725.25 L 149.463,-724.655 L 149.351,-724.069
 L 149.166,-723.501 L 148.912,-722.962 L 148.593,-722.458 L 148.213,-721.998 L 147.778,-721.59 L 147.295,-721.239
 L 146.772,-720.952 L 146.218,-720.732 L 145.64,-720.584 L 145.048,-720.509 z
M 145.937,-561.089 L 146.545,-561.245 L 147.129,-561.476 L 147.679,-561.778 L 148.187,-562.147 L 148.645,-562.577
 L 149.045,-563.061 L 149.382,-563.591 L 149.649,-564.159 L 149.843,-564.757 L 149.961,-565.373 L 150,-566
 L 150,-706 L 149.961,-706.627 L 149.843,-707.243 L 149.649,-707.841 L 149.382,-708.409 L 149.045,-708.939
 L 148.645,-709.423 L 148.187,-709.853 L 147.679,-710.222 L 147.129,-710.524 L 146.545,-710.755 L 145.937,-710.911
 L 145.314,-710.99 L -145.314,-710.99 L -145.937,-710.911 L -146.545,-710.755 L -147.129,-710.524 L -147.679,-710.222
 L -148.187,-709.853 L -148.645,-709.423 L -149.045,-708.939 L -149.382,-708.409 L -149.649,-707.841 L -149.843,-707.243
 L -149.961,-706.627 L -150,-706 L -150,-566 L -149.961,-565.373 L -149.843,-564.757 L -149.649,-564.159
 L -149.382,-563.591 L -149.045,-563.061 L -148.645,-562.577 L -148.187,-562.147 L -147.679,-561.778 L -147.129,-561.476
 L -146.545,-561.245 L -145.937,-561.089 L -145.314,-561.01 L 145.314,-561.01 z
M -144.993,-562.388 L -145.475,-562.449 L -145.946,-562.57 L -146.398,-562.749 L -146.823,-562.983 L -147.216,-563.269
 L -147.571,-563.601 L -147.88,-563.976 L -148.141,-564.386 L -148.348,-564.826 L -148.498,-565.288 L -148.589,-565.765
 L -148.619,-566.25 L -148.619,-705.75 L -148.589,-706.235 L -148.498,-706.712 L -148.348,-707.174 L -148.141,-707.614
 L -147.88,-708.024 L -147.571,-708.399 L -147.216,-708.731 L -146.823,-709.017 L -146.398,-709.251 L -145.946,-709.43
 L -145.475,-709.551 L -144.993,-709.612 L 144.993,-709.612 L 145.475,-709.551 L 145.946,-709.43 L 146.398,-709.251
 L 146.823,-709.017 L 147.216,-708.731 L 147.571,-708.399 L 147.88,-708.024 L 148.141,-707.614 L 148.348,-707.174
 L 148.498,-706.712 L 148.589,-706.235 L 148.619,-705.75 L 148.619,-566.25 L 148.589,-565.765 L 148.498,-565.288
 L 148.348,-564.826 L 148.141,-564.386 L 147.88,-563.976 L 147.571,-563.601 L 147.216,-563.269 L 146.823,-562.983
 L 146.398,-562.749 L 145.946,-562.57 L 145.475,-562.449 L 144.993,-562.388 z
M 145.937,-402.089 L 146.545,-402.245 L 147.129,-402.476 L 147.679,-402.778 L 148.187,-403.147 L 148.645,-403.577
 L 149.045,-404.061 L 149.382,-404.591 L 149.649,-405.159 L 149.843,-405.757 L 149.961,-406.373 L 150,-407
 L 150,-547 L 149.961,-547.627 L 149.843,-548.243 L 149.649,-548.841 L 149.382,-549.409 L 149.045,-549.939
 L 148.645,-550.423 L 148.187,-550.853 L 147.679,-551.222 L 147.129,-551.524 L 146.545,-551.755 L 145.937,-551.911
 L 145.314,-551.99 L -145.314,-551.99 L -145.937,-551.911 L -146.545,-551.755 L -147.129,-551.524 L -147.679,-551.222
 L -148.187,-550.853 L -148.645,-550.423 L -149.045,-549.939 L -149.382,-549.409 L -149.649,-548.841 L -149.843,-548.243
 L -149.961,-547.627 L -150,-547 L -150,-407 L -149.961,-406.373 L -149.843,-405.757 L -149.649,-405.159
 L -149.382,-404.591 L -149.045,-404.061 L -148.645,-403.577 L -148.187,-403.147 L -147.679,-402.778 L -147.129,-402.476
 L -146.545,-402.245 L -145.937,-402.089 L -145.314,-402.01 L 145.314,-402.01 z
M 142.387,-542.704 L 142.163,-542.732 L 141.944,-542.788 L 141.734,-542.871 L 141.536,-542.98 L 141.353,-543.113
 L 141.188,-543.268 L 141.044,-543.442 L 140.923,-543.633 L 140.826,-543.837 L 140.757,-544.052 L 140.714,-544.274
 L 140.7,-544.5 L 140.714,-544.726 L 140.757,-544.948 L 140.826,-545.163 L 140.923,-545.367 L 141.044,-545.558
 L 141.188,-545.732 L 141.353,-545.887 L 141.536,-546.02 L 141.734,-546.129 L 141.944,-546.212 L 142.163,-546.268
 L 142.387,-546.296 L 142.613,-546.296 L 142.837,-546.268 L 143.056,-546.212 L 143.266,-546.129 L 143.464,-546.02
 L 143.647,-545.887 L 143.812,-545.732 L 143.956,-545.558 L 144.077,-545.367 L 144.174,-545.163 L 144.243,-544.948
 L 144.286,-544.726 L 144.3,-544.5 L 144.286,-544.274 L 144.243,-544.052 L 144.174,-543.837 L 144.077,-543.633
 L 143.956,-543.442 L 143.812,-543.268 L 143.647,-543.113 L 143.464,-542.98 L 143.266,-542.871 L 143.056,-542.788
 L 142.837,-542.732 L 142.613,-542.704 z
M -142.613,-542.704 L -142.837,-542.732 L -143.056,-542.788 L -143.266,-542.871 L -143.464,-542.98 L -143.647,-543.113
 L -143.812,-543.268 L -143.956,-543.442 L -144.077,-543.633 L -144.174,-543.837 L -144.243,-544.052 L -144.286,-544.274
 L -144.3,-544.5 L -144.286,-544.726 L -144.243,-544.948 L -144.174,-545.163 L -144.077,-545.367 L -143.956,-545.558
 L -143.812,-545.732 L -143.647,-545.887 L -143.464,-546.02 L -143.266,-546.129 L -143.056,-546.212 L -142.837,-546.268
 L -142.613,-546.296 L -142.387,-546.296 L -142.163,-546.268 L -141.944,-546.212 L -141.734,-546.129 L -141.536,-546.02
 L -141.353,-545.887 L -141.188,-545.732 L -141.044,-545.558 L -140.923,-545.367 L -140.826,-545.163 L -140.757,-544.948
 L -140.714,-544.726 L -140.7,-544.5 L -140.714,-544.274 L -140.757,-544.052 L -140.826,-543.837 L -140.923,-543.633
 L -141.044,-543.442 L -141.188,-543.268 L -141.353,-543.113 L -141.536,-542.98 L -141.734,-542.871 L -141.944,-542.788
 L -142.163,-542.732 L -142.387,-542.704 z
M -142.613,-407.704 L -142.837,-407.732 L -143.056,-407.788 L -143.266,-407.871 L -143.464,-407.98 L -143.647,-408.113
 L -143.812,-408.268 L -143.956,-408.442 L -144.077,-408.633 L -144.174,-408.837 L -144.243,-409.052 L -144.286,-409.274
 L -144.3,-409.5 L -144.286,-409.726 L -144.243,-409.948 L -144.174,-410.163 L -144.077,-410.367 L -143.956,-410.558
 L -143.812,-410.732 L -143.647,-410.887 L -143.464,-411.02 L -143.266,-411.129 L -143.056,-411.212 L -142.837,-411.268
 L -142.613,-411.296 L -142.387,-411.296 L -142.163,-411.268 L -141.944,-411.212 L -141.734,-411.129 L -141.536,-411.02
 L -141.353,-410.887 L -141.188,-410.732 L -141.044,-410.558 L -140.923,-410.367 L -140.826,-410.163 L -140.757,-409.948
 L -140.714,-409.726 L -140.7,-409.5 L -140.714,-409.274 L -140.757,-409.052 L -140.826,-408.837 L -140.923,-408.633
 L -141.044,-408.442 L -141.188,-408.268 L -141.353,-408.113 L -141.536,-407.98 L -141.734,-407.871 L -141.944,-407.788
 L -142.163,-407.732 L -142.387,-407.704 z
M 142.387,-407.704 L 142.163,-407.732 L 141.944,-407.788 L 141.734,-407.871 L 141.536,-407.98 L 141.353,-408.113
 L 141.188,-408.268 L 141.044,-408.442 L 140.923,-408.633 L 140.826,-408.837 L 140.757,-409.052 L 140.714,-409.274
 L 140.7,-409.5 L 140.714,-409.726 L 140.757,-409.948 L 140.826,-410.163 L 140.923,-410.367 L 141.044,-410.558
 L 141.188,-410.732 L 141.353,-410.887 L 141.536,-411.02 L 141.734,-411.129 L 141.944,-411.212 L 142.163,-411.268
 L 142.387,-411.296 L 142.613,-411.296 L 142.837,-411.268 L 143.056,-411.212 L 143.266,-411.129 L 143.464,-411.02
 L 143.647,-410.887 L 143.812,-410.732 L 143.956,-410.558 L 144.077,-410.367 L 144.174,-410.163 L 144.243,-409.948
 L 144.286,-409.726 L 144.3,-409.5 L 144.286,-409.274 L 144.243,-409.052 L 144.174,-408.837 L 144.077,-408.633
 L 143.956,-408.442 L 143.812,-408.268 L 143.647,-408.113 L 143.464,-407.98 L 143.266,-407.871 L 143.056,-407.788
 L 142.837,-407.732 L 142.613,-407.704 z
" stroke="black" fill="lightgray" stroke-width="0.5"/>
</svg>
