<?xml version="1.0" standalone="no"?>
<!DOCTYPE svg PUBLIC "-//W3C//DTD SVG 1.1//EN" "http://www.w3.org/Graphics/SVG/1.1/DTD/svg11.dtd">
<svg width="256mm" height="336mm" viewBox="-128 -651 256 336" xmlns="http://www.w3.org/2000/svg" version="1.1">
<title>OpenSCAD Model</title>
<path d="
M 123.437,-591.089 L 124.045,-591.245 L 124.629,-591.476 L 125.179,-591.778 L 125.687,-592.147 L 126.145,-592.577
 L 126.545,-593.061 L 126.882,-593.591 L 127.149,-594.159 L 127.343,-594.757 L 127.461,-595.373 L 127.5,-596
 L 127.5,-646 L 127.461,-646.627 L 127.343,-647.243 L 127.149,-647.841 L 126.882,-648.409 L 126.545,-648.939
 L 126.145,-649.423 L 125.687,-649.853 L 125.179,-650.222 L 124.629,-650.524 L 124.045,-650.755 L 123.437,-650.911
 L 122.814,-650.99 L -122.814,-650.99 L -123.437,-650.911 L -124.045,-650.755 L -124.629,-650.524 L -125.179,-650.222
 L -125.687,-649.853 L -126.145,-649.423 L -126.545,-648.939 L -126.882,-648.409 L -127.149,-647.841 L -127.343,-647.243
 L -127.461,-646.627 L -127.5,-646 L -127.5,-596 L -127.461,-595.373 L -127.343,-594.757 L -127.149,-594.159
 L -126.882,-593.591 L -126.545,-593.061 L -126.145,-592.577 L -125.687,-592.147 L -125.179,-591.778 L -124.629,-591.476
 L -124.045,-591.245 L -123.437,-591.089 L -122.814,-591.01 L 122.814,-591.01 z
M -122.548,-591.509 L -123.14,-591.584 L -123.718,-591.732 L -124.272,-591.952 L -124.795,-592.239 L -125.278,-592.59
 L -125.713,-592.998 L -126.093,-593.458 L -126.412,-593.962 L -126.666,-594.501 L -126.851,-595.069 L -126.963,-595.655
 L -127,-596.25 L -127,-645.75 L -126.963,-646.345 L -126.851,-646.931 L -126.666,-647.499 L -126.412,-648.038
 L -126.093,-648.542 L -125.713,-649.002 L -125.278,-649.41 L -124.795,-649.761 L -124.272,-650.048 L -123.718,-650.268
 L -123.14,-650.416 L -122.548,-650.491 L 122.548,-650.491 L 123.14,-650.416 L 123.718,-650.268 L 124.272,-650.048
 L 124.795,-649.761 L 125.278,-649.41 L 125.713,-649.002 L 126.093,-648.542 L 126.412,-648.038 L 126.666,-647.499
 L 126.851,-646.931 L 126.963,-646.345 L 127,-645.75 L 127,-596.25 L 126.963,-595.655 L 126.851,-595.069
 L 126.666,-594.501 L 126.412,-593.962 L 126.093,-593.458 L 125.713,-592.998 L 125.278,-592.59 L 124.795,-592.239
 L 124.272,-591.952 L 123.718,-591.732 L 123.14,-591.584 L 122.548,-591.509 z
M 123.437,-522.089 L 124.045,-522.245 L 124.629,-522.476 L 125.179,-522.778 L 125.687,-523.147 L 126.145,-523.577
 L 126.545,-524.061 L 126.882,-524.591 L 127.149,-525.159 L 127.343,-525.757 L 127.461,-526.373 L 127.5,-527
 L 127.5,-577 L 127.461,-577.627 L 127.343,-578.243 L 127.149,-578.841 L 126.882,-579.409 L 126.545,-579.939
 L 126.145,-580.423 L 125.687,-580.853 L 125.179,-581.222 L 124.629,-581.524 L 124.045,-581.755 L 123.437,-581.911
 L 122.814,-581.99 L -122.814,-581.99 L -123.437,-581.911 L -124.045,-581.755 L -124.629,-581.524 L -125.179,-581.222
 L -125.687,-580.853 L -126.145,-580.423 L -126.545,-579.939 L -126.882,-579.409 L -127.149,-578.841 L -127.343,-578.243
 L -127.461,-577.627 L -127.5,-577 L -127.5,-527 L -127.461,-526.373 L -127.343,-525.757 L -127.149,-525.159
 L -126.882,-524.591 L -126.545,-524.061 L -126.145,-523.577 L -125.687,-523.147 L -125.179,-522.778 L -124.629,-522.476
 L -124.045,-522.245 L -123.437,-522.089 L -122.814,-522.01 L 122.814,-522.01 z
M -122.548,-522.509 L -123.14,-522.584 L -123.718,-522.732 L -124.272,-522.952 L -124.795,-523.239 L -125.278,-523.59
 L -125.713,-523.998 L -126.093,-524.458 L -126.412,-524.962 L -126.666,-525.501 L -126.851,-526.069 L -126.963,-526.655
 L -127,-527.25 L -127,-576.75 L -126.963,-577.345 L -126.851,-577.931 L -126.666,-578.499 L -126.412,-579.038
 L -126.093,-579.542 L -125.713,-580.002 L -125.278,-580.41 L -124.795,-580.761 L -124.272,-581.048 L -123.718,-581.268
 L -123.14,-581.416 L -122.548,-581.491 L 122.548,-581.491 L 123.14,-581.416 L 123.718,-581.268 L 124.272,-581.048
 L 124.795,-580.761 L 125.278,-580.41 L 125.713,-580.002 L 126.093,-579.542 L 126.412,-579.038 L 126.666,-578.499
 L 126.851,-577.931 L 126.963,-577.345 L 127,-576.75 L 127,-527.25 L 126.963,-526.655 L 126.851,-526.069
 L 126.666,-525.501 L 126.412,-524.962 L 126.093,-524.458 L 125.713,-523.998 L 125.278,-523.59 L 124.795,-523.239
 L 124.272,-522.952 L 123.718,-522.732 L 123.14,-522.584 L 122.548,-522.509 z
M 123.437,-453.089 L 124.045,-453.245 L 124.629,-453.476 L 125.179,-453.778 L 125.687,-454.147 L 126.145,-454.577
 L 126.545,-455.061 L 126.882,-455.591 L 127.149,-456.159 L 127.343,-456.757 L 127.461,-457.373 L 127.5,-458
 L 127.5,-508 L 127.461,-508.627 L 127.343,-509.243 L 127.149,-509.841 L 126.882,-510.409 L 126.545,-510.939
 L 126.145,-511.423 L 125.687,-511.853 L 125.179,-512.222 L 124.629,-512.524 L 124.045,-512.755 L 123.437,-512.911
 L 122.814,-512.99 L -122.814,-512.99 L -123.437,-512.911 L -124.045,-512.755 L -124.629,-512.524 L -125.179,-512.222
 L -125.687,-511.853 L -126.145,-511.423 L -126.545,-510.939 L -126.882,-510.409 L -127.149,-509.841 L -127.343,-509.243
 L -127.461,-508.627 L -127.5,-508 L -127.5,-458 L -127.461,-457.373 L -127.343,-456.757 L -127.149,-456.159
 L -126.882,-455.591 L -126.545,-455.061 L -126.145,-454.577 L -125.687,-454.147 L -125.179,-453.778 L -124.629,-453.476
 L -124.045,-453.245 L -123.437,-453.089 L -122.814,-453.01 L 122.814,-453.01 z
M -122.548,-453.509 L -123.14,-453.584 L -123.718,-453.732 L -124.272,-453.952 L -124.795,-454.239 L -125.278,-454.59
 L -125.713,-454.998 L -126.093,-455.458 L -126.412,-455.962 L -126.666,-456.501 L -126.851,-457.069 L -126.963,-457.655
 L -127,-458.25 L -127,-507.75 L -126.963,-508.345 L -126.851,-508.931 L -126.666,-509.499 L -126.412,-510.038
 L -126.093,-510.542 L -125.713,-511.002 L -125.278,-511.41 L -124.795,-511.761 L -124.272,-512.048 L -123.718,-512.268
 L -123.14,-512.416 L -122.548,-512.491 L 122.548,-512.491 L 123.14,-512.416 L 123.718,-512.268 L 124.272,-512.048
 L 124.795,-511.761 L 125.278,-511.41 L 125.713,-511.002 L 126.093,-510.542 L 126.412,-510.038 L 126.666,-509.499
 L 126.851,-508.931 L 126.963,-508.345 L 127,-507.75 L 127,-458.25 L 126.963,-457.655 L 126.851,-457.069
 L 126.666,-456.501 L 126.412,-455.962 L 126.093,-455.458 L 125.713,-454.998 L 125.278,-454.59 L 124.795,-454.239
 L 124.272,-453.952 L 123.718,-453.732 L 123.14,-453.584 L 122.548,-453.509 z
M 123.437,-384.089 L 124.045,-384.245 L 124.629,-384.476 L 125.179,-384.778 L 125.687,-385.147 L 126.145,-385.577
 L 126.545,-386.061 L 126.882,-386.591 L 127.149,-387.159 L 127.343,-387.757 L 127.461,-388.373 L 127.5,-389
 L 127.5,-439 L 127.461,-439.627 L 127.343,-440.243 L 127.149,-440.841 L 126.882,-441.409 L 126.545,-441.939
 L 126.145,-442.423 L 125.687,-442.853 L 125.179,-443.222 L 124.629,-443.524 L 124.045,-443.755 L 123.437,-443.911
 L 122.814,-443.99 L -122.814,-443.99 L -123.437,-443.911 L -124.045,-443.755 L -124.629,-443.524 L -125.179,-443.222
 L -125.687,-442.853 L -126.145,-442.423 L -126.545,-441.939 L -126.882,-441.409 L -127.149,-440.841 L -127.343,-440.243
 L -127.461,-439.627 L -127.5,-439 L -127.5,-389 L -127.461,-388.373 L -127.343,-387.757 L -127.149,-387.159
 L -126.882,-386.591 L -126.545,-386.061 L -126.145,-385.577 L -125.687,-385.147 L -125.179,-384.778 L -124.629,-384.476
 L -124.045,-384.245 L -123.437,-384.089 L -122.814,-384.01 L 122.814,-384.01 z
M -122.537,-384.681 L -123.108,-384.753 L -123.665,-384.896 L -124.199,-385.107 L -124.703,-385.384 L -125.168,-385.722
 L -125.588,-386.116 L -125.954,-386.559 L -126.262,-387.044 L -126.507,-387.565 L -126.685,-388.111 L -126.792,-388.676
 L -126.828,-389.25 L -126.828,-438.75 L -126.792,-439.324 L -126.685,-439.889 L -126.507,-440.435 L -126.262,-440.956
 L -125.954,-441.441 L -125.588,-441.884 L -125.168,-442.278 L -124.703,-442.616 L -124.199,-442.893 L -123.665,-443.104
 L -123.108,-443.247 L -122.537,-443.319 L 122.537,-443.319 L 123.108,-443.247 L 123.665,-443.104 L 124.199,-442.893
 L 124.703,-442.616 L 125.168,-442.278 L 125.588,-441.884 L 125.954,-441.441 L 126.262,-440.956 L 126.507,-440.435
 L 126.685,-439.889 L 126.792,-439.324 L 126.828,-438.75 L 126.828,-389.25 L 126.792,-388.676 L 126.685,-388.111
 L 126.507,-387.565 L 126.262,-387.044 L 125.954,-386.559 L 125.588,-386.116 L 125.168,-385.722 L 124.703,-385.384
 L 124.199,-385.107 L 123.665,-384.896 L 123.108,-384.753 L 122.537,-384.681 z
M 123.437,-315.089 L 124.045,-315.245 L 124.629,-315.476 L 125.179,-315.778 L 125.687,-316.147 L 126.145,-316.577
 L 126.545,-317.061 L 126.882,-317.591 L 127.149,-318.159 L 127.343,-318.757 L 127.461,-319.373 L 127.5,-320
 L 127.5,-370 L 127.461,-370.627 L 127.343,-371.243 L 127.149,-371.841 L 126.882,-372.409 L 126.545,-372.939
 L 126.145,-373.423 L 125.687,-373.853 L 125.179,-374.222 L 124.629,-374.524 L 124.045,-374.755 L 123.437,-374.911
 L 122.814,-374.99 L -122.814,-374.99 L -123.437,-374.911 L -124.045,-374.755 L -124.629,-374.524 L -125.179,-374.222
 L -125.687,-373.853 L -126.145,-373.423 L -126.545,-372.939 L -126.882,-372.409 L -127.149,-371.841 L -127.343,-371.243
 L -127.461,-370.627 L -127.5,-370 L -127.5,-320 L -127.461,-319.373 L -127.343,-318.757 L -127.149,-318.159
 L -126.882,-317.591 L -126.545,-317.061 L -126.145,-316.577 L -125.687,-316.147 L -125.179,-315.778 L -124.629,-315.476
 L -124.045,-315.245 L -123.437,-315.089 L -122.814,-315.01 L 122.814,-315.01 z
M -122.382,-318.145 L -122.645,-318.178 L -122.902,-318.244 L -123.148,-318.341 L -123.38,-318.469 L -123.595,-318.625
 L -123.788,-318.806 L -123.957,-319.01 L -124.099,-319.234 L -124.211,-319.473 L -124.293,-319.725 L -124.343,-319.986
 L -124.36,-320.25 L -124.36,-369.75 L -124.343,-370.014 L -124.293,-370.275 L -124.211,-370.527 L -124.099,-370.766
 L -123.957,-370.99 L -123.788,-371.194 L -123.595,-371.375 L -123.38,-371.531 L -123.148,-371.659 L -122.902,-371.756
 L -122.645,-371.822 L -122.382,-371.855 L 122.382,-371.855 L 122.645,-371.822 L 122.902,-371.756 L 123.148,-371.659
 L 123.38,-371.531 L 123.595,-371.375 L 123.788,-371.194 L 123.957,-370.99 L 124.099,-370.766 L 124.211,-370.527
 L 124.293,-370.275 L 124.343,-370.014 L 124.36,-369.75 L 124.36,-320.25 L 124.343,-319.986 L 124.293,-319.725
 L 124.211,-319.473 L 124.099,-319.234 L 123.957,-319.01 L 123.788,-318.806 L 123.595,-318.625 L 123.38,-318.469
 L 123.148,-318.341 L 122.902,-318.244 L 122.645,-318.178 L 122.382,-318.145 z
" stroke="black" fill="lightgray" stroke-width="0.5"/>
</svg>
