<?xml version="1.0" standalone="no"?>
<!DOCTYPE svg PUBLIC "-//W3C//DTD SVG 1.1//EN" "http://www.w3.org/Graphics/SVG/1.1/DTD/svg11.dtd">
<svg width="226mm" height="580mm" viewBox="-113 -731 226 580" xmlns="http://www.w3.org/2000/svg" version="1.1">
<title>OpenSCAD Model</title>
<path d="
M 108.437,-445.589 L 109.045,-445.745 L 109.629,-445.976 L 110.179,-446.278 L 110.687,-446.647 L 111.145,-447.077
 L 111.545,-447.561 L 111.882,-448.091 L 112.149,-448.659 L 112.343,-449.257 L 112.461,-449.873 L 112.5,-450.5
 L 112.5,-725.5 L 112.461,-726.127 L 112.343,-726.743 L 112.149,-727.341 L 111.882,-727.909 L 111.545,-728.439
 L 111.145,-728.923 L 110.687,-729.353 L 110.179,-729.722 L 109.629,-730.024 L 109.045,-730.255 L 108.437,-730.411
 L 107.814,-730.49 L -107.814,-730.49 L -108.437,-730.411 L -109.045,-730.255 L -109.629,-730.024 L -110.179,-729.722
 L -110.687,-729.353 L -111.145,-728.923 L -111.545,-728.439 L -111.882,-727.909 L -112.149,-727.341 L -112.343,-726.743
 L -112.461,-726.127 L -112.5,-725.5 L -112.5,-450.5 L -112.461,-449.873 L -112.343,-449.257 L -112.149,-448.659
 L -111.882,-448.091 L -111.545,-447.561 L -111.145,-447.077 L -110.687,-446.647 L -110.179,-446.278 L -109.629,-445.976
 L -109.045,-445.745 L -108.437,-445.589 L -107.814,-445.51 L 107.814,-445.51 z
M -105.151,-720.605 L -105.45,-720.643 L -105.742,-720.717 L -106.022,-720.828 L -106.286,-720.974 L -106.53,-721.151
 L -106.75,-721.357 L -106.942,-721.589 L -107.103,-721.844 L -107.231,-722.117 L -107.325,-722.403 L -107.381,-722.699
 L -107.4,-723 L -107.381,-723.301 L -107.325,-723.597 L -107.231,-723.883 L -107.103,-724.156 L -106.942,-724.411
 L -106.75,-724.643 L -106.53,-724.849 L -106.286,-725.026 L -106.022,-725.172 L -105.742,-725.283 L -105.45,-725.357
 L -105.151,-725.395 L -104.849,-725.395 L -104.55,-725.357 L -104.258,-725.283 L -103.978,-725.172 L -103.714,-725.026
 L -103.47,-724.849 L -103.25,-724.643 L -103.058,-724.411 L -102.897,-724.156 L -102.769,-723.883 L -102.675,-723.597
 L -102.619,-723.301 L -102.6,-723 L -102.619,-722.699 L -102.675,-722.403 L -102.769,-722.117 L -102.897,-721.844
 L -103.058,-721.589 L -103.25,-721.357 L -103.47,-721.151 L -103.714,-720.974 L -103.978,-720.828 L -104.258,-720.717
 L -104.55,-720.643 L -104.849,-720.605 z
M 104.849,-720.605 L 104.55,-720.643 L 104.258,-720.717 L 103.978,-720.828 L 103.714,-720.974 L 103.47,-721.151
 L 103.25,-721.357 L 103.058,-721.589 L 102.897,-721.844 L 102.769,-722.117 L 102.675,-722.403 L 102.619,-722.699
 L 102.6,-723 L 102.619,-723.301 L 102.675,-723.597 L 102.769,-723.883 L 102.897,-724.156 L 103.058,-724.411
 L 103.25,-724.643 L 103.47,-724.849 L 103.714,-725.026 L 103.978,-725.172 L 104.258,-725.283 L 104.55,-725.357
 L 104.849,-725.395 L 105.151,-725.395 L 105.45,-725.357 L 105.742,-725.283 L 106.022,-725.172 L 106.286,-725.026
 L 106.53,-724.849 L 106.75,-724.643 L 106.942,-724.411 L 107.103,-724.156 L 107.231,-723.883 L 107.325,-723.597
 L 107.381,-723.301 L 107.4,-723 L 107.381,-722.699 L 107.325,-722.403 L 107.231,-722.117 L 107.103,-721.844
 L 106.942,-721.589 L 106.75,-721.357 L 106.53,-721.151 L 106.286,-720.974 L 106.022,-720.828 L 105.742,-720.717
 L 105.45,-720.643 L 105.151,-720.605 z
M 104.849,-450.605 L 104.55,-450.643 L 104.258,-450.717 L 103.978,-450.828 L 103.714,-450.974 L 103.47,-451.151
 L 103.25,-451.357 L 103.058,-451.589 L 102.897,-451.844 L 102.769,-452.117 L 102.675,-452.403 L 102.619,-452.699
 L 102.6,-453 L 102.619,-453.301 L 102.675,-453.597 L 102.769,-453.883 L 102.897,-454.156 L 103.058,-454.411
 L 103.25,-454.643 L 103.47,-454.849 L 103.714,-455.026 L 103.978,-455.172 L 104.258,-455.283 L 104.55,-455.357
 L 104.849,-455.395 L 105.151,-455.395 L 105.45,-455.357 L 105.742,-455.283 L 106.022,-455.172 L 106.286,-455.026
 L 106.53,-454.849 L 106.75,-454.643 L 106.942,-454.411 L 107.103,-454.156 L 107.231,-453.883 L 107.325,-453.597
 L 107.381,-453.301 L 107.4,-453 L 107.381,-452.699 L 107.325,-452.403 L 107.231,-452.117 L 107.103,-451.844
 L 106.942,-451.589 L 106.75,-451.357 L 106.53,-451.151 L 106.286,-450.974 L 106.022,-450.828 L 105.742,-450.717
 L 105.45,-450.643 L 105.151,-450.605 z
M -105.151,-450.605 L -105.45,-450.643 L -105.742,-450.717 L -106.022,-450.828 L -106.286,-450.974 L -106.53,-451.151
 L -106.75,-451.357 L -106.942,-451.589 L -107.103,-451.844 L -107.231,-452.117 L -107.325,-452.403 L -107.381,-452.699
 L -107.4,-453 L -107.381,-453.301 L -107.325,-453.597 L -107.231,-453.883 L -107.103,-454.156 L -106.942,-454.411
 L -106.75,-454.643 L -106.53,-454.849 L -106.286,-455.026 L -106.022,-455.172 L -105.742,-455.283 L -105.45,-455.357
 L -105.151,-455.395 L -104.849,-455.395 L -104.55,-455.357 L -104.258,-455.283 L -103.978,-455.172 L -103.714,-455.026
 L -103.47,-454.849 L -103.25,-454.643 L -103.058,-454.411 L -102.897,-454.156 L -102.769,-453.883 L -102.675,-453.597
 L -102.619,-453.301 L -102.6,-453 L -102.619,-452.699 L -102.675,-452.403 L -102.769,-452.117 L -102.897,-451.844
 L -103.058,-451.589 L -103.25,-451.357 L -103.47,-451.151 L -103.714,-450.974 L -103.978,-450.828 L -104.258,-450.717
 L -104.55,-450.643 L -104.849,-450.605 z
M 108.437,-151.589 L 109.045,-151.745 L 109.629,-151.976 L 110.179,-152.278 L 110.687,-152.647 L 111.145,-153.077
 L 111.545,-153.561 L 111.882,-154.091 L 112.149,-154.659 L 112.343,-155.257 L 112.461,-155.873 L 112.5,-156.5
 L 112.5,-431.5 L 112.461,-432.127 L 112.343,-432.743 L 112.149,-433.341 L 111.882,-433.909 L 111.545,-434.439
 L 111.145,-434.923 L 110.687,-435.353 L 110.179,-435.722 L 109.629,-436.024 L 109.045,-436.255 L 108.437,-436.411
 L 107.814,-436.49 L -107.814,-436.49 L -108.437,-436.411 L -109.045,-436.255 L -109.629,-436.024 L -110.179,-435.722
 L -110.687,-435.353 L -111.145,-434.923 L -111.545,-434.439 L -111.882,-433.909 L -112.149,-433.341 L -112.343,-432.743
 L -112.461,-432.127 L -112.5,-431.5 L -112.5,-156.5 L -112.461,-155.873 L -112.343,-155.257 L -112.149,-154.659
 L -111.882,-154.091 L -111.545,-153.561 L -111.145,-153.077 L -110.687,-152.647 L -110.179,-152.278 L -109.629,-151.976
 L -109.045,-151.745 L -108.437,-151.589 L -107.814,-151.51 L 107.814,-151.51 z
M 104.887,-427.204 L 104.663,-427.232 L 104.444,-427.288 L 104.234,-427.371 L 104.036,-427.48 L 103.853,-427.613
 L 103.688,-427.768 L 103.544,-427.942 L 103.423,-428.133 L 103.326,-428.337 L 103.257,-428.552 L 103.214,-428.774
 L 103.2,-429 L 103.214,-429.226 L 103.257,-429.448 L 103.326,-429.663 L 103.423,-429.867 L 103.544,-430.058
 L 103.688,-430.232 L 103.853,-430.387 L 104.036,-430.52 L 104.234,-430.629 L 104.444,-430.712 L 104.663,-430.768
 L 104.887,-430.796 L 105.113,-430.796 L 105.337,-430.768 L 105.556,-430.712 L 105.766,-430.629 L 105.964,-430.52
 L 106.147,-430.387 L 106.312,-430.232 L 106.456,-430.058 L 106.577,-429.867 L 106.674,-429.663 L 106.743,-429.448
 L 106.786,-429.226 L 106.8,-429 L 106.786,-428.774 L 106.743,-428.552 L 106.674,-428.337 L 106.577,-428.133
 L 106.456,-427.942 L 106.312,-427.768 L 106.147,-427.613 L 105.964,-427.48 L 105.766,-427.371 L 105.556,-427.288
 L 105.337,-427.232 L 105.113,-427.204 z
M -105.113,-427.204 L -105.337,-427.232 L -105.556,-427.288 L -105.766,-427.371 L -105.964,-427.48 L -106.147,-427.613
 L -106.312,-427.768 L -106.456,-427.942 L -106.577,-428.133 L -106.674,-428.337 L -106.743,-428.552 L -106.786,-428.774
 L -106.8,-429 L -106.786,-429.226 L -106.743,-429.448 L -106.674,-429.663 L -106.577,-429.867 L -106.456,-430.058
 L -106.312,-430.232 L -106.147,-430.387 L -105.964,-430.52 L -105.766,-430.629 L -105.556,-430.712 L -105.337,-430.768
 L -105.113,-430.796 L -104.887,-430.796 L -104.663,-430.768 L -104.444,-430.712 L -104.234,-430.629 L -104.036,-430.52
 L -103.853,-430.387 L -103.688,-430.232 L -103.544,-430.058 L -103.423,-429.867 L -103.326,-429.663 L -103.257,-429.448
 L -103.214,-429.226 L -103.2,-429 L -103.214,-428.774 L -103.257,-428.552 L -103.326,-428.337 L -103.423,-428.133
 L -103.544,-427.942 L -103.688,-427.768 L -103.853,-427.613 L -104.036,-427.48 L -104.234,-427.371 L -104.444,-427.288
 L -104.663,-427.232 L -104.887,-427.204 z
M -105.113,-157.204 L -105.337,-157.232 L -105.556,-157.288 L -105.766,-157.371 L -105.964,-157.48 L -106.147,-157.613
 L -106.312,-157.768 L -106.456,-157.942 L -106.577,-158.133 L -106.674,-158.337 L -106.743,-158.552 L -106.786,-158.774
 L -106.8,-159 L -106.786,-159.226 L -106.743,-159.448 L -106.674,-159.663 L -106.577,-159.867 L -106.456,-160.058
 L -106.312,-160.232 L -106.147,-160.387 L -105.964,-160.52 L -105.766,-160.629 L -105.556,-160.712 L -105.337,-160.768
 L -105.113,-160.796 L -104.887,-160.796 L -104.663,-160.768 L -104.444,-160.712 L -104.234,-160.629 L -104.036,-160.52
 L -103.853,-160.387 L -103.688,-160.232 L -103.544,-160.058 L -103.423,-159.867 L -103.326,-159.663 L -103.257,-159.448
 L -103.214,-159.226 L -103.2,-159 L -103.214,-158.774 L -103.257,-158.552 L -103.326,-158.337 L -103.423,-158.133
 L -103.544,-157.942 L -103.688,-157.768 L -103.853,-157.613 L -104.036,-157.48 L -104.234,-157.371 L -104.444,-157.288
 L -104.663,-157.232 L -104.887,-157.204 z
M 104.887,-157.204 L 104.663,-157.232 L 104.444,-157.288 L 104.234,-157.371 L 104.036,-157.48 L 103.853,-157.613
 L 103.688,-157.768 L 103.544,-157.942 L 103.423,-158.133 L 103.326,-158.337 L 103.257,-158.552 L 103.214,-158.774
 L 103.2,-159 L 103.214,-159.226 L 103.257,-159.448 L 103.326,-159.663 L 103.423,-159.867 L 103.544,-160.058
 L 103.688,-160.232 L 103.853,-160.387 L 104.036,-160.52 L 104.234,-160.629 L 104.444,-160.712 L 104.663,-160.768
 L 104.887,-160.796 L 105.113,-160.796 L 105.337,-160.768 L 105.556,-160.712 L 105.766,-160.629 L 105.964,-160.52
 L 106.147,-160.387 L 106.312,-160.232 L 106.456,-160.058 L 106.577,-159.867 L 106.674,-159.663 L 106.743,-159.448
 L 106.786,-159.226 L 106.8,-159 L 106.786,-158.774 L 106.743,-158.552 L 106.674,-158.337 L 106.577,-158.133
 L 106.456,-157.942 L 106.312,-157.768 L 106.147,-157.613 L 105.964,-157.48 L 105.766,-157.371 L 105.556,-157.288
 L 105.337,-157.232 L 105.113,-157.204 z
" stroke="black" fill="lightgray" stroke-width="0.5"/>
</svg>
