  0
SECTION
  2
BLOCKS
  0
ENDSEC
  0
SECTION
  2
ENTITIES
  0
LINE
  8
0
 10
108.437
 20
2503.59
 11
109.045
 21
2503.74
  0
LINE
  8
0
 10
109.045
 20
2503.74
 11
109.629
 21
2503.98
  0
LINE
  8
0
 10
109.629
 20
2503.98
 11
110.179
 21
2504.28
  0
LINE
  8
0
 10
110.179
 20
2504.28
 11
110.687
 21
2504.65
  0
LINE
  8
0
 10
110.687
 20
2504.65
 11
111.145
 21
2505.08
  0
LINE
  8
0
 10
111.145
 20
2505.08
 11
111.545
 21
2505.56
  0
LINE
  8
0
 10
111.545
 20
2505.56
 11
111.882
 21
2506.09
  0
LINE
  8
0
 10
111.882
 20
2506.09
 11
112.149
 21
2506.66
  0
LINE
  8
0
 10
112.149
 20
2506.66
 11
112.343
 21
2507.26
  0
LINE
  8
0
 10
112.343
 20
2507.26
 11
112.461
 21
2507.87
  0
LINE
  8
0
 10
112.461
 20
2507.87
 11
112.5
 21
2508.5
  0
LINE
  8
0
 10
112.5
 20
2508.5
 11
112.5
 21
2783.5
  0
LINE
  8
0
 10
112.5
 20
2783.5
 11
112.461
 21
2784.13
  0
LINE
  8
0
 10
112.461
 20
2784.13
 11
112.343
 21
2784.74
  0
LINE
  8
0
 10
112.343
 20
2784.74
 11
112.149
 21
2785.34
  0
LINE
  8
0
 10
112.149
 20
2785.34
 11
111.882
 21
2785.91
  0
LINE
  8
0
 10
111.882
 20
2785.91
 11
111.545
 21
2786.44
  0
LINE
  8
0
 10
111.545
 20
2786.44
 11
111.145
 21
2786.92
  0
LINE
  8
0
 10
111.145
 20
2786.92
 11
110.687
 21
2787.35
  0
LINE
  8
0
 10
110.687
 20
2787.35
 11
110.179
 21
2787.72
  0
LINE
  8
0
 10
110.179
 20
2787.72
 11
109.629
 21
2788.02
  0
LINE
  8
0
 10
109.629
 20
2788.02
 11
109.045
 21
2788.26
  0
LINE
  8
0
 10
109.045
 20
2788.26
 11
108.437
 21
2788.41
  0
LINE
  8
0
 10
108.437
 20
2788.41
 11
107.814
 21
2788.49
  0
LINE
  8
0
 10
107.814
 20
2788.49
 11
-107.814
 21
2788.49
  0
LINE
  8
0
 10
-107.814
 20
2788.49
 11
-108.437
 21
2788.41
  0
LINE
  8
0
 10
-108.437
 20
2788.41
 11
-109.045
 21
2788.26
  0
LINE
  8
0
 10
-109.045
 20
2788.26
 11
-109.629
 21
2788.02
  0
LINE
  8
0
 10
-109.629
 20
2788.02
 11
-110.179
 21
2787.72
  0
LINE
  8
0
 10
-110.179
 20
2787.72
 11
-110.687
 21
2787.35
  0
LINE
  8
0
 10
-110.687
 20
2787.35
 11
-111.145
 21
2786.92
  0
LINE
  8
0
 10
-111.145
 20
2786.92
 11
-111.545
 21
2786.44
  0
LINE
  8
0
 10
-111.545
 20
2786.44
 11
-111.882
 21
2785.91
  0
LINE
  8
0
 10
-111.882
 20
2785.91
 11
-112.149
 21
2785.34
  0
LINE
  8
0
 10
-112.149
 20
2785.34
 11
-112.343
 21
2784.74
  0
LINE
  8
0
 10
-112.343
 20
2784.74
 11
-112.461
 21
2784.13
  0
LINE
  8
0
 10
-112.461
 20
2784.13
 11
-112.5
 21
2783.5
  0
LINE
  8
0
 10
-112.5
 20
2783.5
 11
-112.5
 21
2508.5
  0
LINE
  8
0
 10
-112.5
 20
2508.5
 11
-112.461
 21
2507.87
  0
LINE
  8
0
 10
-112.461
 20
2507.87
 11
-112.343
 21
2507.26
  0
LINE
  8
0
 10
-112.343
 20
2507.26
 11
-112.149
 21
2506.66
  0
LINE
  8
0
 10
-112.149
 20
2506.66
 11
-111.882
 21
2506.09
  0
LINE
  8
0
 10
-111.882
 20
2506.09
 11
-111.545
 21
2505.56
  0
LINE
  8
0
 10
-111.545
 20
2505.56
 11
-111.145
 21
2505.08
  0
LINE
  8
0
 10
-111.145
 20
2505.08
 11
-110.687
 21
2504.65
  0
LINE
  8
0
 10
-110.687
 20
2504.65
 11
-110.179
 21
2504.28
  0
LINE
  8
0
 10
-110.179
 20
2504.28
 11
-109.629
 21
2503.98
  0
LINE
  8
0
 10
-109.629
 20
2503.98
 11
-109.045
 21
2503.74
  0
LINE
  8
0
 10
-109.045
 20
2503.74
 11
-108.437
 21
2503.59
  0
LINE
  8
0
 10
-108.437
 20
2503.59
 11
-107.814
 21
2503.51
  0
LINE
  8
0
 10
-107.814
 20
2503.51
 11
107.814
 21
2503.51
  0
LINE
  8
0
 10
107.814
 20
2503.51
 11
108.437
 21
2503.59
  0
LINE
  8
0
 10
-107.251
 20
2505.01
 11
-107.75
 21
2505.07
  0
LINE
  8
0
 10
-107.75
 20
2505.07
 11
-108.236
 21
2505.2
  0
LINE
  8
0
 10
-108.236
 20
2505.2
 11
-108.703
 21
2505.38
  0
LINE
  8
0
 10
-108.703
 20
2505.38
 11
-109.143
 21
2505.62
  0
LINE
  8
0
 10
-109.143
 20
2505.62
 11
-109.55
 21
2505.92
  0
LINE
  8
0
 10
-109.55
 20
2505.92
 11
-109.916
 21
2506.26
  0
LINE
  8
0
 10
-109.916
 20
2506.26
 11
-110.236
 21
2506.65
  0
LINE
  8
0
 10
-110.236
 20
2506.65
 11
-110.505
 21
2507.07
  0
LINE
  8
0
 10
-110.505
 20
2507.07
 11
-110.719
 21
2507.53
  0
LINE
  8
0
 10
-110.719
 20
2507.53
 11
-110.874
 21
2508.01
  0
LINE
  8
0
 10
-110.874
 20
2508.01
 11
-110.968
 21
2508.5
  0
LINE
  8
0
 10
-110.968
 20
2508.5
 11
-111
 21
2509
  0
LINE
  8
0
 10
-111
 20
2509
 11
-111
 21
2783
  0
LINE
  8
0
 10
-111
 20
2783
 11
-110.968
 21
2783.5
  0
LINE
  8
0
 10
-110.968
 20
2783.5
 11
-110.874
 21
2783.99
  0
LINE
  8
0
 10
-110.874
 20
2783.99
 11
-110.719
 21
2784.47
  0
LINE
  8
0
 10
-110.719
 20
2784.47
 11
-110.505
 21
2784.93
  0
LINE
  8
0
 10
-110.505
 20
2784.93
 11
-110.236
 21
2785.35
  0
LINE
  8
0
 10
-110.236
 20
2785.35
 11
-109.916
 21
2785.74
  0
LINE
  8
0
 10
-109.916
 20
2785.74
 11
-109.55
 21
2786.08
  0
LINE
  8
0
 10
-109.55
 20
2786.08
 11
-109.143
 21
2786.38
  0
LINE
  8
0
 10
-109.143
 20
2786.38
 11
-108.703
 21
2786.62
  0
LINE
  8
0
 10
-108.703
 20
2786.62
 11
-108.236
 21
2786.8
  0
LINE
  8
0
 10
-108.236
 20
2786.8
 11
-107.75
 21
2786.93
  0
LINE
  8
0
 10
-107.75
 20
2786.93
 11
-107.251
 21
2786.99
  0
LINE
  8
0
 10
-107.251
 20
2786.99
 11
107.251
 21
2786.99
  0
LINE
  8
0
 10
107.251
 20
2786.99
 11
107.75
 21
2786.93
  0
LINE
  8
0
 10
107.75
 20
2786.93
 11
108.236
 21
2786.8
  0
LINE
  8
0
 10
108.236
 20
2786.8
 11
108.703
 21
2786.62
  0
LINE
  8
0
 10
108.703
 20
2786.62
 11
109.143
 21
2786.38
  0
LINE
  8
0
 10
109.143
 20
2786.38
 11
109.55
 21
2786.08
  0
LINE
  8
0
 10
109.55
 20
2786.08
 11
109.916
 21
2785.74
  0
LINE
  8
0
 10
109.916
 20
2785.74
 11
110.236
 21
2785.35
  0
LINE
  8
0
 10
110.236
 20
2785.35
 11
110.505
 21
2784.93
  0
LINE
  8
0
 10
110.505
 20
2784.93
 11
110.719
 21
2784.47
  0
LINE
  8
0
 10
110.719
 20
2784.47
 11
110.874
 21
2783.99
  0
LINE
  8
0
 10
110.874
 20
2783.99
 11
110.968
 21
2783.5
  0
LINE
  8
0
 10
110.968
 20
2783.5
 11
111
 21
2783
  0
LINE
  8
0
 10
111
 20
2783
 11
111
 21
2509
  0
LINE
  8
0
 10
111
 20
2509
 11
110.968
 21
2508.5
  0
LINE
  8
0
 10
110.968
 20
2508.5
 11
110.874
 21
2508.01
  0
LINE
  8
0
 10
110.874
 20
2508.01
 11
110.719
 21
2507.53
  0
LINE
  8
0
 10
110.719
 20
2507.53
 11
110.505
 21
2507.07
  0
LINE
  8
0
 10
110.505
 20
2507.07
 11
110.236
 21
2506.65
  0
LINE
  8
0
 10
110.236
 20
2506.65
 11
109.916
 21
2506.26
  0
LINE
  8
0
 10
109.916
 20
2506.26
 11
109.55
 21
2505.92
  0
LINE
  8
0
 10
109.55
 20
2505.92
 11
109.143
 21
2505.62
  0
LINE
  8
0
 10
109.143
 20
2505.62
 11
108.703
 21
2505.38
  0
LINE
  8
0
 10
108.703
 20
2505.38
 11
108.236
 21
2505.2
  0
LINE
  8
0
 10
108.236
 20
2505.2
 11
107.75
 21
2505.07
  0
LINE
  8
0
 10
107.75
 20
2505.07
 11
107.251
 21
2505.01
  0
LINE
  8
0
 10
107.251
 20
2505.01
 11
-107.251
 21
2505.01
  0
LINE
  8
0
 10
108.437
 20
2209.59
 11
109.045
 21
2209.74
  0
LINE
  8
0
 10
109.045
 20
2209.74
 11
109.629
 21
2209.98
  0
LINE
  8
0
 10
109.629
 20
2209.98
 11
110.179
 21
2210.28
  0
LINE
  8
0
 10
110.179
 20
2210.28
 11
110.687
 21
2210.65
  0
LINE
  8
0
 10
110.687
 20
2210.65
 11
111.145
 21
2211.08
  0
LINE
  8
0
 10
111.145
 20
2211.08
 11
111.545
 21
2211.56
  0
LINE
  8
0
 10
111.545
 20
2211.56
 11
111.882
 21
2212.09
  0
LINE
  8
0
 10
111.882
 20
2212.09
 11
112.149
 21
2212.66
  0
LINE
  8
0
 10
112.149
 20
2212.66
 11
112.343
 21
2213.26
  0
LINE
  8
0
 10
112.343
 20
2213.26
 11
112.461
 21
2213.87
  0
LINE
  8
0
 10
112.461
 20
2213.87
 11
112.5
 21
2214.5
  0
LINE
  8
0
 10
112.5
 20
2214.5
 11
112.5
 21
2489.5
  0
LINE
  8
0
 10
112.5
 20
2489.5
 11
112.461
 21
2490.13
  0
LINE
  8
0
 10
112.461
 20
2490.13
 11
112.343
 21
2490.74
  0
LINE
  8
0
 10
112.343
 20
2490.74
 11
112.149
 21
2491.34
  0
LINE
  8
0
 10
112.149
 20
2491.34
 11
111.882
 21
2491.91
  0
LINE
  8
0
 10
111.882
 20
2491.91
 11
111.545
 21
2492.44
  0
LINE
  8
0
 10
111.545
 20
2492.44
 11
111.145
 21
2492.92
  0
LINE
  8
0
 10
111.145
 20
2492.92
 11
110.687
 21
2493.35
  0
LINE
  8
0
 10
110.687
 20
2493.35
 11
110.179
 21
2493.72
  0
LINE
  8
0
 10
110.179
 20
2493.72
 11
109.629
 21
2494.02
  0
LINE
  8
0
 10
109.629
 20
2494.02
 11
109.045
 21
2494.26
  0
LINE
  8
0
 10
109.045
 20
2494.26
 11
108.437
 21
2494.41
  0
LINE
  8
0
 10
108.437
 20
2494.41
 11
107.814
 21
2494.49
  0
LINE
  8
0
 10
107.814
 20
2494.49
 11
-107.814
 21
2494.49
  0
LINE
  8
0
 10
-107.814
 20
2494.49
 11
-108.437
 21
2494.41
  0
LINE
  8
0
 10
-108.437
 20
2494.41
 11
-109.045
 21
2494.26
  0
LINE
  8
0
 10
-109.045
 20
2494.26
 11
-109.629
 21
2494.02
  0
LINE
  8
0
 10
-109.629
 20
2494.02
 11
-110.179
 21
2493.72
  0
LINE
  8
0
 10
-110.179
 20
2493.72
 11
-110.687
 21
2493.35
  0
LINE
  8
0
 10
-110.687
 20
2493.35
 11
-111.145
 21
2492.92
  0
LINE
  8
0
 10
-111.145
 20
2492.92
 11
-111.545
 21
2492.44
  0
LINE
  8
0
 10
-111.545
 20
2492.44
 11
-111.882
 21
2491.91
  0
LINE
  8
0
 10
-111.882
 20
2491.91
 11
-112.149
 21
2491.34
  0
LINE
  8
0
 10
-112.149
 20
2491.34
 11
-112.343
 21
2490.74
  0
LINE
  8
0
 10
-112.343
 20
2490.74
 11
-112.461
 21
2490.13
  0
LINE
  8
0
 10
-112.461
 20
2490.13
 11
-112.5
 21
2489.5
  0
LINE
  8
0
 10
-112.5
 20
2489.5
 11
-112.5
 21
2214.5
  0
LINE
  8
0
 10
-112.5
 20
2214.5
 11
-112.461
 21
2213.87
  0
LINE
  8
0
 10
-112.461
 20
2213.87
 11
-112.343
 21
2213.26
  0
LINE
  8
0
 10
-112.343
 20
2213.26
 11
-112.149
 21
2212.66
  0
LINE
  8
0
 10
-112.149
 20
2212.66
 11
-111.882
 21
2212.09
  0
LINE
  8
0
 10
-111.882
 20
2212.09
 11
-111.545
 21
2211.56
  0
LINE
  8
0
 10
-111.545
 20
2211.56
 11
-111.145
 21
2211.08
  0
LINE
  8
0
 10
-111.145
 20
2211.08
 11
-110.687
 21
2210.65
  0
LINE
  8
0
 10
-110.687
 20
2210.65
 11
-110.179
 21
2210.28
  0
LINE
  8
0
 10
-110.179
 20
2210.28
 11
-109.629
 21
2209.98
  0
LINE
  8
0
 10
-109.629
 20
2209.98
 11
-109.045
 21
2209.74
  0
LINE
  8
0
 10
-109.045
 20
2209.74
 11
-108.437
 21
2209.59
  0
LINE
  8
0
 10
-108.437
 20
2209.59
 11
-107.814
 21
2209.51
  0
LINE
  8
0
 10
-107.814
 20
2209.51
 11
107.814
 21
2209.51
  0
LINE
  8
0
 10
107.814
 20
2209.51
 11
108.437
 21
2209.59
  0
LINE
  8
0
 10
-107.251
 20
2211.01
 11
-107.75
 21
2211.07
  0
LINE
  8
0
 10
-107.75
 20
2211.07
 11
-108.236
 21
2211.2
  0
LINE
  8
0
 10
-108.236
 20
2211.2
 11
-108.703
 21
2211.38
  0
LINE
  8
0
 10
-108.703
 20
2211.38
 11
-109.143
 21
2211.62
  0
LINE
  8
0
 10
-109.143
 20
2211.62
 11
-109.55
 21
2211.92
  0
LINE
  8
0
 10
-109.55
 20
2211.92
 11
-109.916
 21
2212.26
  0
LINE
  8
0
 10
-109.916
 20
2212.26
 11
-110.236
 21
2212.65
  0
LINE
  8
0
 10
-110.236
 20
2212.65
 11
-110.505
 21
2213.07
  0
LINE
  8
0
 10
-110.505
 20
2213.07
 11
-110.719
 21
2213.53
  0
LINE
  8
0
 10
-110.719
 20
2213.53
 11
-110.874
 21
2214.01
  0
LINE
  8
0
 10
-110.874
 20
2214.01
 11
-110.968
 21
2214.5
  0
LINE
  8
0
 10
-110.968
 20
2214.5
 11
-111
 21
2215
  0
LINE
  8
0
 10
-111
 20
2215
 11
-111
 21
2489
  0
LINE
  8
0
 10
-111
 20
2489
 11
-110.968
 21
2489.5
  0
LINE
  8
0
 10
-110.968
 20
2489.5
 11
-110.874
 21
2489.99
  0
LINE
  8
0
 10
-110.874
 20
2489.99
 11
-110.719
 21
2490.47
  0
LINE
  8
0
 10
-110.719
 20
2490.47
 11
-110.505
 21
2490.93
  0
LINE
  8
0
 10
-110.505
 20
2490.93
 11
-110.236
 21
2491.35
  0
LINE
  8
0
 10
-110.236
 20
2491.35
 11
-109.916
 21
2491.74
  0
LINE
  8
0
 10
-109.916
 20
2491.74
 11
-109.55
 21
2492.08
  0
LINE
  8
0
 10
-109.55
 20
2492.08
 11
-109.143
 21
2492.38
  0
LINE
  8
0
 10
-109.143
 20
2492.38
 11
-108.703
 21
2492.62
  0
LINE
  8
0
 10
-108.703
 20
2492.62
 11
-108.236
 21
2492.8
  0
LINE
  8
0
 10
-108.236
 20
2492.8
 11
-107.75
 21
2492.93
  0
LINE
  8
0
 10
-107.75
 20
2492.93
 11
-107.251
 21
2492.99
  0
LINE
  8
0
 10
-107.251
 20
2492.99
 11
107.251
 21
2492.99
  0
LINE
  8
0
 10
107.251
 20
2492.99
 11
107.75
 21
2492.93
  0
LINE
  8
0
 10
107.75
 20
2492.93
 11
108.236
 21
2492.8
  0
LINE
  8
0
 10
108.236
 20
2492.8
 11
108.703
 21
2492.62
  0
LINE
  8
0
 10
108.703
 20
2492.62
 11
109.143
 21
2492.38
  0
LINE
  8
0
 10
109.143
 20
2492.38
 11
109.55
 21
2492.08
  0
LINE
  8
0
 10
109.55
 20
2492.08
 11
109.916
 21
2491.74
  0
LINE
  8
0
 10
109.916
 20
2491.74
 11
110.236
 21
2491.35
  0
LINE
  8
0
 10
110.236
 20
2491.35
 11
110.505
 21
2490.93
  0
LINE
  8
0
 10
110.505
 20
2490.93
 11
110.719
 21
2490.47
  0
LINE
  8
0
 10
110.719
 20
2490.47
 11
110.874
 21
2489.99
  0
LINE
  8
0
 10
110.874
 20
2489.99
 11
110.968
 21
2489.5
  0
LINE
  8
0
 10
110.968
 20
2489.5
 11
111
 21
2489
  0
LINE
  8
0
 10
111
 20
2489
 11
111
 21
2215
  0
LINE
  8
0
 10
111
 20
2215
 11
110.968
 21
2214.5
  0
LINE
  8
0
 10
110.968
 20
2214.5
 11
110.874
 21
2214.01
  0
LINE
  8
0
 10
110.874
 20
2214.01
 11
110.719
 21
2213.53
  0
LINE
  8
0
 10
110.719
 20
2213.53
 11
110.505
 21
2213.07
  0
LINE
  8
0
 10
110.505
 20
2213.07
 11
110.236
 21
2212.65
  0
LINE
  8
0
 10
110.236
 20
2212.65
 11
109.916
 21
2212.26
  0
LINE
  8
0
 10
109.916
 20
2212.26
 11
109.55
 21
2211.92
  0
LINE
  8
0
 10
109.55
 20
2211.92
 11
109.143
 21
2211.62
  0
LINE
  8
0
 10
109.143
 20
2211.62
 11
108.703
 21
2211.38
  0
LINE
  8
0
 10
108.703
 20
2211.38
 11
108.236
 21
2211.2
  0
LINE
  8
0
 10
108.236
 20
2211.2
 11
107.75
 21
2211.07
  0
LINE
  8
0
 10
107.75
 20
2211.07
 11
107.251
 21
2211.01
  0
LINE
  8
0
 10
107.251
 20
2211.01
 11
-107.251
 21
2211.01
  0
LINE
  8
0
 10
108.437
 20
1915.59
 11
109.045
 21
1915.74
  0
LINE
  8
0
 10
109.045
 20
1915.74
 11
109.629
 21
1915.98
  0
LINE
  8
0
 10
109.629
 20
1915.98
 11
110.179
 21
1916.28
  0
LINE
  8
0
 10
110.179
 20
1916.28
 11
110.687
 21
1916.65
  0
LINE
  8
0
 10
110.687
 20
1916.65
 11
111.145
 21
1917.08
  0
LINE
  8
0
 10
111.145
 20
1917.08
 11
111.545
 21
1917.56
  0
LINE
  8
0
 10
111.545
 20
1917.56
 11
111.882
 21
1918.09
  0
LINE
  8
0
 10
111.882
 20
1918.09
 11
112.149
 21
1918.66
  0
LINE
  8
0
 10
112.149
 20
1918.66
 11
112.343
 21
1919.26
  0
LINE
  8
0
 10
112.343
 20
1919.26
 11
112.461
 21
1919.87
  0
LINE
  8
0
 10
112.461
 20
1919.87
 11
112.5
 21
1920.5
  0
LINE
  8
0
 10
112.5
 20
1920.5
 11
112.5
 21
2195.5
  0
LINE
  8
0
 10
112.5
 20
2195.5
 11
112.461
 21
2196.13
  0
LINE
  8
0
 10
112.461
 20
2196.13
 11
112.343
 21
2196.74
  0
LINE
  8
0
 10
112.343
 20
2196.74
 11
112.149
 21
2197.34
  0
LINE
  8
0
 10
112.149
 20
2197.34
 11
111.882
 21
2197.91
  0
LINE
  8
0
 10
111.882
 20
2197.91
 11
111.545
 21
2198.44
  0
LINE
  8
0
 10
111.545
 20
2198.44
 11
111.145
 21
2198.92
  0
LINE
  8
0
 10
111.145
 20
2198.92
 11
110.687
 21
2199.35
  0
LINE
  8
0
 10
110.687
 20
2199.35
 11
110.179
 21
2199.72
  0
LINE
  8
0
 10
110.179
 20
2199.72
 11
109.629
 21
2200.02
  0
LINE
  8
0
 10
109.629
 20
2200.02
 11
109.045
 21
2200.26
  0
LINE
  8
0
 10
109.045
 20
2200.26
 11
108.437
 21
2200.41
  0
LINE
  8
0
 10
108.437
 20
2200.41
 11
107.814
 21
2200.49
  0
LINE
  8
0
 10
107.814
 20
2200.49
 11
-107.814
 21
2200.49
  0
LINE
  8
0
 10
-107.814
 20
2200.49
 11
-108.437
 21
2200.41
  0
LINE
  8
0
 10
-108.437
 20
2200.41
 11
-109.045
 21
2200.26
  0
LINE
  8
0
 10
-109.045
 20
2200.26
 11
-109.629
 21
2200.02
  0
LINE
  8
0
 10
-109.629
 20
2200.02
 11
-110.179
 21
2199.72
  0
LINE
  8
0
 10
-110.179
 20
2199.72
 11
-110.687
 21
2199.35
  0
LINE
  8
0
 10
-110.687
 20
2199.35
 11
-111.145
 21
2198.92
  0
LINE
  8
0
 10
-111.145
 20
2198.92
 11
-111.545
 21
2198.44
  0
LINE
  8
0
 10
-111.545
 20
2198.44
 11
-111.882
 21
2197.91
  0
LINE
  8
0
 10
-111.882
 20
2197.91
 11
-112.149
 21
2197.34
  0
LINE
  8
0
 10
-112.149
 20
2197.34
 11
-112.343
 21
2196.74
  0
LINE
  8
0
 10
-112.343
 20
2196.74
 11
-112.461
 21
2196.13
  0
LINE
  8
0
 10
-112.461
 20
2196.13
 11
-112.5
 21
2195.5
  0
LINE
  8
0
 10
-112.5
 20
2195.5
 11
-112.5
 21
1920.5
  0
LINE
  8
0
 10
-112.5
 20
1920.5
 11
-112.461
 21
1919.87
  0
LINE
  8
0
 10
-112.461
 20
1919.87
 11
-112.343
 21
1919.26
  0
LINE
  8
0
 10
-112.343
 20
1919.26
 11
-112.149
 21
1918.66
  0
LINE
  8
0
 10
-112.149
 20
1918.66
 11
-111.882
 21
1918.09
  0
LINE
  8
0
 10
-111.882
 20
1918.09
 11
-111.545
 21
1917.56
  0
LINE
  8
0
 10
-111.545
 20
1917.56
 11
-111.145
 21
1917.08
  0
LINE
  8
0
 10
-111.145
 20
1917.08
 11
-110.687
 21
1916.65
  0
LINE
  8
0
 10
-110.687
 20
1916.65
 11
-110.179
 21
1916.28
  0
LINE
  8
0
 10
-110.179
 20
1916.28
 11
-109.629
 21
1915.98
  0
LINE
  8
0
 10
-109.629
 20
1915.98
 11
-109.045
 21
1915.74
  0
LINE
  8
0
 10
-109.045
 20
1915.74
 11
-108.437
 21
1915.59
  0
LINE
  8
0
 10
-108.437
 20
1915.59
 11
-107.814
 21
1915.51
  0
LINE
  8
0
 10
-107.814
 20
1915.51
 11
107.814
 21
1915.51
  0
LINE
  8
0
 10
107.814
 20
1915.51
 11
108.437
 21
1915.59
  0
LINE
  8
0
 10
-107.251
 20
1917.01
 11
-107.75
 21
1917.07
  0
LINE
  8
0
 10
-107.75
 20
1917.07
 11
-108.236
 21
1917.2
  0
LINE
  8
0
 10
-108.236
 20
1917.2
 11
-108.703
 21
1917.38
  0
LINE
  8
0
 10
-108.703
 20
1917.38
 11
-109.143
 21
1917.62
  0
LINE
  8
0
 10
-109.143
 20
1917.62
 11
-109.55
 21
1917.92
  0
LINE
  8
0
 10
-109.55
 20
1917.92
 11
-109.916
 21
1918.26
  0
LINE
  8
0
 10
-109.916
 20
1918.26
 11
-110.236
 21
1918.65
  0
LINE
  8
0
 10
-110.236
 20
1918.65
 11
-110.505
 21
1919.07
  0
LINE
  8
0
 10
-110.505
 20
1919.07
 11
-110.719
 21
1919.53
  0
LINE
  8
0
 10
-110.719
 20
1919.53
 11
-110.874
 21
1920.01
  0
LINE
  8
0
 10
-110.874
 20
1920.01
 11
-110.968
 21
1920.5
  0
LINE
  8
0
 10
-110.968
 20
1920.5
 11
-111
 21
1921
  0
LINE
  8
0
 10
-111
 20
1921
 11
-111
 21
2195
  0
LINE
  8
0
 10
-111
 20
2195
 11
-110.968
 21
2195.5
  0
LINE
  8
0
 10
-110.968
 20
2195.5
 11
-110.874
 21
2195.99
  0
LINE
  8
0
 10
-110.874
 20
2195.99
 11
-110.719
 21
2196.47
  0
LINE
  8
0
 10
-110.719
 20
2196.47
 11
-110.505
 21
2196.93
  0
LINE
  8
0
 10
-110.505
 20
2196.93
 11
-110.236
 21
2197.35
  0
LINE
  8
0
 10
-110.236
 20
2197.35
 11
-109.916
 21
2197.74
  0
LINE
  8
0
 10
-109.916
 20
2197.74
 11
-109.55
 21
2198.08
  0
LINE
  8
0
 10
-109.55
 20
2198.08
 11
-109.143
 21
2198.38
  0
LINE
  8
0
 10
-109.143
 20
2198.38
 11
-108.703
 21
2198.62
  0
LINE
  8
0
 10
-108.703
 20
2198.62
 11
-108.236
 21
2198.8
  0
LINE
  8
0
 10
-108.236
 20
2198.8
 11
-107.75
 21
2198.93
  0
LINE
  8
0
 10
-107.75
 20
2198.93
 11
-107.251
 21
2198.99
  0
LINE
  8
0
 10
-107.251
 20
2198.99
 11
107.251
 21
2198.99
  0
LINE
  8
0
 10
107.251
 20
2198.99
 11
107.75
 21
2198.93
  0
LINE
  8
0
 10
107.75
 20
2198.93
 11
108.236
 21
2198.8
  0
LINE
  8
0
 10
108.236
 20
2198.8
 11
108.703
 21
2198.62
  0
LINE
  8
0
 10
108.703
 20
2198.62
 11
109.143
 21
2198.38
  0
LINE
  8
0
 10
109.143
 20
2198.38
 11
109.55
 21
2198.08
  0
LINE
  8
0
 10
109.55
 20
2198.08
 11
109.916
 21
2197.74
  0
LINE
  8
0
 10
109.916
 20
2197.74
 11
110.236
 21
2197.35
  0
LINE
  8
0
 10
110.236
 20
2197.35
 11
110.505
 21
2196.93
  0
LINE
  8
0
 10
110.505
 20
2196.93
 11
110.719
 21
2196.47
  0
LINE
  8
0
 10
110.719
 20
2196.47
 11
110.874
 21
2195.99
  0
LINE
  8
0
 10
110.874
 20
2195.99
 11
110.968
 21
2195.5
  0
LINE
  8
0
 10
110.968
 20
2195.5
 11
111
 21
2195
  0
LINE
  8
0
 10
111
 20
2195
 11
111
 21
1921
  0
LINE
  8
0
 10
111
 20
1921
 11
110.968
 21
1920.5
  0
LINE
  8
0
 10
110.968
 20
1920.5
 11
110.874
 21
1920.01
  0
LINE
  8
0
 10
110.874
 20
1920.01
 11
110.719
 21
1919.53
  0
LINE
  8
0
 10
110.719
 20
1919.53
 11
110.505
 21
1919.07
  0
LINE
  8
0
 10
110.505
 20
1919.07
 11
110.236
 21
1918.65
  0
LINE
  8
0
 10
110.236
 20
1918.65
 11
109.916
 21
1918.26
  0
LINE
  8
0
 10
109.916
 20
1918.26
 11
109.55
 21
1917.92
  0
LINE
  8
0
 10
109.55
 20
1917.92
 11
109.143
 21
1917.62
  0
LINE
  8
0
 10
109.143
 20
1917.62
 11
108.703
 21
1917.38
  0
LINE
  8
0
 10
108.703
 20
1917.38
 11
108.236
 21
1917.2
  0
LINE
  8
0
 10
108.236
 20
1917.2
 11
107.75
 21
1917.07
  0
LINE
  8
0
 10
107.75
 20
1917.07
 11
107.251
 21
1917.01
  0
LINE
  8
0
 10
107.251
 20
1917.01
 11
-107.251
 21
1917.01
  0
LINE
  8
0
 10
108.437
 20
1621.59
 11
109.045
 21
1621.74
  0
LINE
  8
0
 10
109.045
 20
1621.74
 11
109.629
 21
1621.98
  0
LINE
  8
0
 10
109.629
 20
1621.98
 11
110.179
 21
1622.28
  0
LINE
  8
0
 10
110.179
 20
1622.28
 11
110.687
 21
1622.65
  0
LINE
  8
0
 10
110.687
 20
1622.65
 11
111.145
 21
1623.08
  0
LINE
  8
0
 10
111.145
 20
1623.08
 11
111.545
 21
1623.56
  0
LINE
  8
0
 10
111.545
 20
1623.56
 11
111.882
 21
1624.09
  0
LINE
  8
0
 10
111.882
 20
1624.09
 11
112.149
 21
1624.66
  0
LINE
  8
0
 10
112.149
 20
1624.66
 11
112.343
 21
1625.26
  0
LINE
  8
0
 10
112.343
 20
1625.26
 11
112.461
 21
1625.87
  0
LINE
  8
0
 10
112.461
 20
1625.87
 11
112.5
 21
1626.5
  0
LINE
  8
0
 10
112.5
 20
1626.5
 11
112.5
 21
1901.5
  0
LINE
  8
0
 10
112.5
 20
1901.5
 11
112.461
 21
1902.13
  0
LINE
  8
0
 10
112.461
 20
1902.13
 11
112.343
 21
1902.74
  0
LINE
  8
0
 10
112.343
 20
1902.74
 11
112.149
 21
1903.34
  0
LINE
  8
0
 10
112.149
 20
1903.34
 11
111.882
 21
1903.91
  0
LINE
  8
0
 10
111.882
 20
1903.91
 11
111.545
 21
1904.44
  0
LINE
  8
0
 10
111.545
 20
1904.44
 11
111.145
 21
1904.92
  0
LINE
  8
0
 10
111.145
 20
1904.92
 11
110.687
 21
1905.35
  0
LINE
  8
0
 10
110.687
 20
1905.35
 11
110.179
 21
1905.72
  0
LINE
  8
0
 10
110.179
 20
1905.72
 11
109.629
 21
1906.02
  0
LINE
  8
0
 10
109.629
 20
1906.02
 11
109.045
 21
1906.26
  0
LINE
  8
0
 10
109.045
 20
1906.26
 11
108.437
 21
1906.41
  0
LINE
  8
0
 10
108.437
 20
1906.41
 11
107.814
 21
1906.49
  0
LINE
  8
0
 10
107.814
 20
1906.49
 11
-107.814
 21
1906.49
  0
LINE
  8
0
 10
-107.814
 20
1906.49
 11
-108.437
 21
1906.41
  0
LINE
  8
0
 10
-108.437
 20
1906.41
 11
-109.045
 21
1906.26
  0
LINE
  8
0
 10
-109.045
 20
1906.26
 11
-109.629
 21
1906.02
  0
LINE
  8
0
 10
-109.629
 20
1906.02
 11
-110.179
 21
1905.72
  0
LINE
  8
0
 10
-110.179
 20
1905.72
 11
-110.687
 21
1905.35
  0
LINE
  8
0
 10
-110.687
 20
1905.35
 11
-111.145
 21
1904.92
  0
LINE
  8
0
 10
-111.145
 20
1904.92
 11
-111.545
 21
1904.44
  0
LINE
  8
0
 10
-111.545
 20
1904.44
 11
-111.882
 21
1903.91
  0
LINE
  8
0
 10
-111.882
 20
1903.91
 11
-112.149
 21
1903.34
  0
LINE
  8
0
 10
-112.149
 20
1903.34
 11
-112.343
 21
1902.74
  0
LINE
  8
0
 10
-112.343
 20
1902.74
 11
-112.461
 21
1902.13
  0
LINE
  8
0
 10
-112.461
 20
1902.13
 11
-112.5
 21
1901.5
  0
LINE
  8
0
 10
-112.5
 20
1901.5
 11
-112.5
 21
1626.5
  0
LINE
  8
0
 10
-112.5
 20
1626.5
 11
-112.461
 21
1625.87
  0
LINE
  8
0
 10
-112.461
 20
1625.87
 11
-112.343
 21
1625.26
  0
LINE
  8
0
 10
-112.343
 20
1625.26
 11
-112.149
 21
1624.66
  0
LINE
  8
0
 10
-112.149
 20
1624.66
 11
-111.882
 21
1624.09
  0
LINE
  8
0
 10
-111.882
 20
1624.09
 11
-111.545
 21
1623.56
  0
LINE
  8
0
 10
-111.545
 20
1623.56
 11
-111.145
 21
1623.08
  0
LINE
  8
0
 10
-111.145
 20
1623.08
 11
-110.687
 21
1622.65
  0
LINE
  8
0
 10
-110.687
 20
1622.65
 11
-110.179
 21
1622.28
  0
LINE
  8
0
 10
-110.179
 20
1622.28
 11
-109.629
 21
1621.98
  0
LINE
  8
0
 10
-109.629
 20
1621.98
 11
-109.045
 21
1621.74
  0
LINE
  8
0
 10
-109.045
 20
1621.74
 11
-108.437
 21
1621.59
  0
LINE
  8
0
 10
-108.437
 20
1621.59
 11
-107.814
 21
1621.51
  0
LINE
  8
0
 10
-107.814
 20
1621.51
 11
107.814
 21
1621.51
  0
LINE
  8
0
 10
107.814
 20
1621.51
 11
108.437
 21
1621.59
  0
LINE
  8
0
 10
-107.195
 20
1623.89
 11
-107.583
 21
1623.94
  0
LINE
  8
0
 10
-107.583
 20
1623.94
 11
-107.962
 21
1624.04
  0
LINE
  8
0
 10
-107.962
 20
1624.04
 11
-108.325
 21
1624.18
  0
LINE
  8
0
 10
-108.325
 20
1624.18
 11
-108.668
 21
1624.37
  0
LINE
  8
0
 10
-108.668
 20
1624.37
 11
-108.984
 21
1624.6
  0
LINE
  8
0
 10
-108.984
 20
1624.6
 11
-109.269
 21
1624.87
  0
LINE
  8
0
 10
-109.269
 20
1624.87
 11
-109.518
 21
1625.17
  0
LINE
  8
0
 10
-109.518
 20
1625.17
 11
-109.728
 21
1625.5
  0
LINE
  8
0
 10
-109.728
 20
1625.5
 11
-109.894
 21
1625.85
  0
LINE
  8
0
 10
-109.894
 20
1625.85
 11
-110.015
 21
1626.23
  0
LINE
  8
0
 10
-110.015
 20
1626.23
 11
-110.088
 21
1626.61
  0
LINE
  8
0
 10
-110.088
 20
1626.61
 11
-110.113
 21
1627
  0
LINE
  8
0
 10
-110.113
 20
1627
 11
-110.113
 21
1901
  0
LINE
  8
0
 10
-110.113
 20
1901
 11
-110.088
 21
1901.39
  0
LINE
  8
0
 10
-110.088
 20
1901.39
 11
-110.015
 21
1901.77
  0
LINE
  8
0
 10
-110.015
 20
1901.77
 11
-109.894
 21
1902.15
  0
LINE
  8
0
 10
-109.894
 20
1902.15
 11
-109.728
 21
1902.5
  0
LINE
  8
0
 10
-109.728
 20
1902.5
 11
-109.518
 21
1902.83
  0
LINE
  8
0
 10
-109.518
 20
1902.83
 11
-109.269
 21
1903.13
  0
LINE
  8
0
 10
-109.269
 20
1903.13
 11
-108.984
 21
1903.4
  0
LINE
  8
0
 10
-108.984
 20
1903.4
 11
-108.668
 21
1903.63
  0
LINE
  8
0
 10
-108.668
 20
1903.63
 11
-108.325
 21
1903.82
  0
LINE
  8
0
 10
-108.325
 20
1903.82
 11
-107.962
 21
1903.96
  0
LINE
  8
0
 10
-107.962
 20
1903.96
 11
-107.583
 21
1904.06
  0
LINE
  8
0
 10
-107.583
 20
1904.06
 11
-107.195
 21
1904.11
  0
LINE
  8
0
 10
-107.195
 20
1904.11
 11
107.195
 21
1904.11
  0
LINE
  8
0
 10
107.195
 20
1904.11
 11
107.583
 21
1904.06
  0
LINE
  8
0
 10
107.583
 20
1904.06
 11
107.962
 21
1903.96
  0
LINE
  8
0
 10
107.962
 20
1903.96
 11
108.325
 21
1903.82
  0
LINE
  8
0
 10
108.325
 20
1903.82
 11
108.668
 21
1903.63
  0
LINE
  8
0
 10
108.668
 20
1903.63
 11
108.984
 21
1903.4
  0
LINE
  8
0
 10
108.984
 20
1903.4
 11
109.269
 21
1903.13
  0
LINE
  8
0
 10
109.269
 20
1903.13
 11
109.518
 21
1902.83
  0
LINE
  8
0
 10
109.518
 20
1902.83
 11
109.728
 21
1902.5
  0
LINE
  8
0
 10
109.728
 20
1902.5
 11
109.894
 21
1902.15
  0
LINE
  8
0
 10
109.894
 20
1902.15
 11
110.015
 21
1901.77
  0
LINE
  8
0
 10
110.015
 20
1901.77
 11
110.088
 21
1901.39
  0
LINE
  8
0
 10
110.088
 20
1901.39
 11
110.113
 21
1901
  0
LINE
  8
0
 10
110.113
 20
1901
 11
110.113
 21
1627
  0
LINE
  8
0
 10
110.113
 20
1627
 11
110.088
 21
1626.61
  0
LINE
  8
0
 10
110.088
 20
1626.61
 11
110.015
 21
1626.23
  0
LINE
  8
0
 10
110.015
 20
1626.23
 11
109.894
 21
1625.85
  0
LINE
  8
0
 10
109.894
 20
1625.85
 11
109.728
 21
1625.5
  0
LINE
  8
0
 10
109.728
 20
1625.5
 11
109.518
 21
1625.17
  0
LINE
  8
0
 10
109.518
 20
1625.17
 11
109.269
 21
1624.87
  0
LINE
  8
0
 10
109.269
 20
1624.87
 11
108.984
 21
1624.6
  0
LINE
  8
0
 10
108.984
 20
1624.6
 11
108.668
 21
1624.37
  0
LINE
  8
0
 10
108.668
 20
1624.37
 11
108.325
 21
1624.18
  0
LINE
  8
0
 10
108.325
 20
1624.18
 11
107.962
 21
1624.04
  0
LINE
  8
0
 10
107.962
 20
1624.04
 11
107.583
 21
1623.94
  0
LINE
  8
0
 10
107.583
 20
1623.94
 11
107.195
 21
1623.89
  0
LINE
  8
0
 10
107.195
 20
1623.89
 11
-107.195
 21
1623.89
  0
LINE
  8
0
 10
108.437
 20
1327.59
 11
109.045
 21
1327.74
  0
LINE
  8
0
 10
109.045
 20
1327.74
 11
109.629
 21
1327.98
  0
LINE
  8
0
 10
109.629
 20
1327.98
 11
110.179
 21
1328.28
  0
LINE
  8
0
 10
110.179
 20
1328.28
 11
110.687
 21
1328.65
  0
LINE
  8
0
 10
110.687
 20
1328.65
 11
111.145
 21
1329.08
  0
LINE
  8
0
 10
111.145
 20
1329.08
 11
111.545
 21
1329.56
  0
LINE
  8
0
 10
111.545
 20
1329.56
 11
111.882
 21
1330.09
  0
LINE
  8
0
 10
111.882
 20
1330.09
 11
112.149
 21
1330.66
  0
LINE
  8
0
 10
112.149
 20
1330.66
 11
112.343
 21
1331.26
  0
LINE
  8
0
 10
112.343
 20
1331.26
 11
112.461
 21
1331.87
  0
LINE
  8
0
 10
112.461
 20
1331.87
 11
112.5
 21
1332.5
  0
LINE
  8
0
 10
112.5
 20
1332.5
 11
112.5
 21
1607.5
  0
LINE
  8
0
 10
112.5
 20
1607.5
 11
112.461
 21
1608.13
  0
LINE
  8
0
 10
112.461
 20
1608.13
 11
112.343
 21
1608.74
  0
LINE
  8
0
 10
112.343
 20
1608.74
 11
112.149
 21
1609.34
  0
LINE
  8
0
 10
112.149
 20
1609.34
 11
111.882
 21
1609.91
  0
LINE
  8
0
 10
111.882
 20
1609.91
 11
111.545
 21
1610.44
  0
LINE
  8
0
 10
111.545
 20
1610.44
 11
111.145
 21
1610.92
  0
LINE
  8
0
 10
111.145
 20
1610.92
 11
110.687
 21
1611.35
  0
LINE
  8
0
 10
110.687
 20
1611.35
 11
110.179
 21
1611.72
  0
LINE
  8
0
 10
110.179
 20
1611.72
 11
109.629
 21
1612.02
  0
LINE
  8
0
 10
109.629
 20
1612.02
 11
109.045
 21
1612.26
  0
LINE
  8
0
 10
109.045
 20
1612.26
 11
108.437
 21
1612.41
  0
LINE
  8
0
 10
108.437
 20
1612.41
 11
107.814
 21
1612.49
  0
LINE
  8
0
 10
107.814
 20
1612.49
 11
-107.814
 21
1612.49
  0
LINE
  8
0
 10
-107.814
 20
1612.49
 11
-108.437
 21
1612.41
  0
LINE
  8
0
 10
-108.437
 20
1612.41
 11
-109.045
 21
1612.26
  0
LINE
  8
0
 10
-109.045
 20
1612.26
 11
-109.629
 21
1612.02
  0
LINE
  8
0
 10
-109.629
 20
1612.02
 11
-110.179
 21
1611.72
  0
LINE
  8
0
 10
-110.179
 20
1611.72
 11
-110.687
 21
1611.35
  0
LINE
  8
0
 10
-110.687
 20
1611.35
 11
-111.145
 21
1610.92
  0
LINE
  8
0
 10
-111.145
 20
1610.92
 11
-111.545
 21
1610.44
  0
LINE
  8
0
 10
-111.545
 20
1610.44
 11
-111.882
 21
1609.91
  0
LINE
  8
0
 10
-111.882
 20
1609.91
 11
-112.149
 21
1609.34
  0
LINE
  8
0
 10
-112.149
 20
1609.34
 11
-112.343
 21
1608.74
  0
LINE
  8
0
 10
-112.343
 20
1608.74
 11
-112.461
 21
1608.13
  0
LINE
  8
0
 10
-112.461
 20
1608.13
 11
-112.5
 21
1607.5
  0
LINE
  8
0
 10
-112.5
 20
1607.5
 11
-112.5
 21
1332.5
  0
LINE
  8
0
 10
-112.5
 20
1332.5
 11
-112.461
 21
1331.87
  0
LINE
  8
0
 10
-112.461
 20
1331.87
 11
-112.343
 21
1331.26
  0
LINE
  8
0
 10
-112.343
 20
1331.26
 11
-112.149
 21
1330.66
  0
LINE
  8
0
 10
-112.149
 20
1330.66
 11
-111.882
 21
1330.09
  0
LINE
  8
0
 10
-111.882
 20
1330.09
 11
-111.545
 21
1329.56
  0
LINE
  8
0
 10
-111.545
 20
1329.56
 11
-111.145
 21
1329.08
  0
LINE
  8
0
 10
-111.145
 20
1329.08
 11
-110.687
 21
1328.65
  0
LINE
  8
0
 10
-110.687
 20
1328.65
 11
-110.179
 21
1328.28
  0
LINE
  8
0
 10
-110.179
 20
1328.28
 11
-109.629
 21
1327.98
  0
LINE
  8
0
 10
-109.629
 20
1327.98
 11
-109.045
 21
1327.74
  0
LINE
  8
0
 10
-109.045
 20
1327.74
 11
-108.437
 21
1327.59
  0
LINE
  8
0
 10
-108.437
 20
1327.59
 11
-107.814
 21
1327.51
  0
LINE
  8
0
 10
-107.814
 20
1327.51
 11
107.814
 21
1327.51
  0
LINE
  8
0
 10
107.814
 20
1327.51
 11
108.437
 21
1327.59
  0
LINE
  8
0
 10
104.866
 20
1602.87
 11
104.6
 21
1602.9
  0
LINE
  8
0
 10
104.6
 20
1602.9
 11
104.34
 21
1602.97
  0
LINE
  8
0
 10
104.34
 20
1602.97
 11
104.091
 21
1603.07
  0
LINE
  8
0
 10
104.091
 20
1603.07
 11
103.856
 21
1603.2
  0
LINE
  8
0
 10
103.856
 20
1603.2
 11
103.639
 21
1603.35
  0
LINE
  8
0
 10
103.639
 20
1603.35
 11
103.443
 21
1603.54
  0
LINE
  8
0
 10
103.443
 20
1603.54
 11
103.273
 21
1603.74
  0
LINE
  8
0
 10
103.273
 20
1603.74
 11
103.129
 21
1603.97
  0
LINE
  8
0
 10
103.129
 20
1603.97
 11
103.015
 21
1604.21
  0
LINE
  8
0
 10
103.015
 20
1604.21
 11
102.932
 21
1604.47
  0
LINE
  8
0
 10
102.932
 20
1604.47
 11
102.882
 21
1604.73
  0
LINE
  8
0
 10
102.882
 20
1604.73
 11
102.865
 21
1605
  0
LINE
  8
0
 10
102.865
 20
1605
 11
102.882
 21
1605.27
  0
LINE
  8
0
 10
102.882
 20
1605.27
 11
102.932
 21
1605.53
  0
LINE
  8
0
 10
102.932
 20
1605.53
 11
103.015
 21
1605.79
  0
LINE
  8
0
 10
103.015
 20
1605.79
 11
103.129
 21
1606.03
  0
LINE
  8
0
 10
103.129
 20
1606.03
 11
103.273
 21
1606.26
  0
LINE
  8
0
 10
103.273
 20
1606.26
 11
103.443
 21
1606.46
  0
LINE
  8
0
 10
103.443
 20
1606.46
 11
103.639
 21
1606.65
  0
LINE
  8
0
 10
103.639
 20
1606.65
 11
103.856
 21
1606.8
  0
LINE
  8
0
 10
103.856
 20
1606.8
 11
104.091
 21
1606.93
  0
LINE
  8
0
 10
104.091
 20
1606.93
 11
104.34
 21
1607.03
  0
LINE
  8
0
 10
104.34
 20
1607.03
 11
104.6
 21
1607.1
  0
LINE
  8
0
 10
104.6
 20
1607.1
 11
104.866
 21
1607.13
  0
LINE
  8
0
 10
104.866
 20
1607.13
 11
105.134
 21
1607.13
  0
LINE
  8
0
 10
105.134
 20
1607.13
 11
105.4
 21
1607.1
  0
LINE
  8
0
 10
105.4
 20
1607.1
 11
105.66
 21
1607.03
  0
LINE
  8
0
 10
105.66
 20
1607.03
 11
105.909
 21
1606.93
  0
LINE
  8
0
 10
105.909
 20
1606.93
 11
106.144
 21
1606.8
  0
LINE
  8
0
 10
106.144
 20
1606.8
 11
106.361
 21
1606.65
  0
LINE
  8
0
 10
106.361
 20
1606.65
 11
106.557
 21
1606.46
  0
LINE
  8
0
 10
106.557
 20
1606.46
 11
106.727
 21
1606.26
  0
LINE
  8
0
 10
106.727
 20
1606.26
 11
106.871
 21
1606.03
  0
LINE
  8
0
 10
106.871
 20
1606.03
 11
106.985
 21
1605.79
  0
LINE
  8
0
 10
106.985
 20
1605.79
 11
107.068
 21
1605.53
  0
LINE
  8
0
 10
107.068
 20
1605.53
 11
107.118
 21
1605.27
  0
LINE
  8
0
 10
107.118
 20
1605.27
 11
107.135
 21
1605
  0
LINE
  8
0
 10
107.135
 20
1605
 11
107.118
 21
1604.73
  0
LINE
  8
0
 10
107.118
 20
1604.73
 11
107.068
 21
1604.47
  0
LINE
  8
0
 10
107.068
 20
1604.47
 11
106.985
 21
1604.21
  0
LINE
  8
0
 10
106.985
 20
1604.21
 11
106.871
 21
1603.97
  0
LINE
  8
0
 10
106.871
 20
1603.97
 11
106.727
 21
1603.74
  0
LINE
  8
0
 10
106.727
 20
1603.74
 11
106.557
 21
1603.54
  0
LINE
  8
0
 10
106.557
 20
1603.54
 11
106.361
 21
1603.35
  0
LINE
  8
0
 10
106.361
 20
1603.35
 11
106.144
 21
1603.2
  0
LINE
  8
0
 10
106.144
 20
1603.2
 11
105.909
 21
1603.07
  0
LINE
  8
0
 10
105.909
 20
1603.07
 11
105.66
 21
1602.97
  0
LINE
  8
0
 10
105.66
 20
1602.97
 11
105.4
 21
1602.9
  0
LINE
  8
0
 10
105.4
 20
1602.9
 11
105.134
 21
1602.87
  0
LINE
  8
0
 10
105.134
 20
1602.87
 11
104.866
 21
1602.87
  0
LINE
  8
0
 10
-105.134
 20
1602.87
 11
-105.4
 21
1602.9
  0
LINE
  8
0
 10
-105.4
 20
1602.9
 11
-105.66
 21
1602.97
  0
LINE
  8
0
 10
-105.66
 20
1602.97
 11
-105.909
 21
1603.07
  0
LINE
  8
0
 10
-105.909
 20
1603.07
 11
-106.144
 21
1603.2
  0
LINE
  8
0
 10
-106.144
 20
1603.2
 11
-106.361
 21
1603.35
  0
LINE
  8
0
 10
-106.361
 20
1603.35
 11
-106.557
 21
1603.54
  0
LINE
  8
0
 10
-106.557
 20
1603.54
 11
-106.727
 21
1603.74
  0
LINE
  8
0
 10
-106.727
 20
1603.74
 11
-106.871
 21
1603.97
  0
LINE
  8
0
 10
-106.871
 20
1603.97
 11
-106.985
 21
1604.21
  0
LINE
  8
0
 10
-106.985
 20
1604.21
 11
-107.068
 21
1604.47
  0
LINE
  8
0
 10
-107.068
 20
1604.47
 11
-107.118
 21
1604.73
  0
LINE
  8
0
 10
-107.118
 20
1604.73
 11
-107.135
 21
1605
  0
LINE
  8
0
 10
-107.135
 20
1605
 11
-107.118
 21
1605.27
  0
LINE
  8
0
 10
-107.118
 20
1605.27
 11
-107.068
 21
1605.53
  0
LINE
  8
0
 10
-107.068
 20
1605.53
 11
-106.985
 21
1605.79
  0
LINE
  8
0
 10
-106.985
 20
1605.79
 11
-106.871
 21
1606.03
  0
LINE
  8
0
 10
-106.871
 20
1606.03
 11
-106.727
 21
1606.26
  0
LINE
  8
0
 10
-106.727
 20
1606.26
 11
-106.557
 21
1606.46
  0
LINE
  8
0
 10
-106.557
 20
1606.46
 11
-106.361
 21
1606.65
  0
LINE
  8
0
 10
-106.361
 20
1606.65
 11
-106.144
 21
1606.8
  0
LINE
  8
0
 10
-106.144
 20
1606.8
 11
-105.909
 21
1606.93
  0
LINE
  8
0
 10
-105.909
 20
1606.93
 11
-105.66
 21
1607.03
  0
LINE
  8
0
 10
-105.66
 20
1607.03
 11
-105.4
 21
1607.1
  0
LINE
  8
0
 10
-105.4
 20
1607.1
 11
-105.134
 21
1607.13
  0
LINE
  8
0
 10
-105.134
 20
1607.13
 11
-104.866
 21
1607.13
  0
LINE
  8
0
 10
-104.866
 20
1607.13
 11
-104.6
 21
1607.1
  0
LINE
  8
0
 10
-104.6
 20
1607.1
 11
-104.34
 21
1607.03
  0
LINE
  8
0
 10
-104.34
 20
1607.03
 11
-104.091
 21
1606.93
  0
LINE
  8
0
 10
-104.091
 20
1606.93
 11
-103.856
 21
1606.8
  0
LINE
  8
0
 10
-103.856
 20
1606.8
 11
-103.639
 21
1606.65
  0
LINE
  8
0
 10
-103.639
 20
1606.65
 11
-103.443
 21
1606.46
  0
LINE
  8
0
 10
-103.443
 20
1606.46
 11
-103.273
 21
1606.26
  0
LINE
  8
0
 10
-103.273
 20
1606.26
 11
-103.129
 21
1606.03
  0
LINE
  8
0
 10
-103.129
 20
1606.03
 11
-103.015
 21
1605.79
  0
LINE
  8
0
 10
-103.015
 20
1605.79
 11
-102.932
 21
1605.53
  0
LINE
  8
0
 10
-102.932
 20
1605.53
 11
-102.882
 21
1605.27
  0
LINE
  8
0
 10
-102.882
 20
1605.27
 11
-102.865
 21
1605
  0
LINE
  8
0
 10
-102.865
 20
1605
 11
-102.882
 21
1604.73
  0
LINE
  8
0
 10
-102.882
 20
1604.73
 11
-102.932
 21
1604.47
  0
LINE
  8
0
 10
-102.932
 20
1604.47
 11
-103.015
 21
1604.21
  0
LINE
  8
0
 10
-103.015
 20
1604.21
 11
-103.129
 21
1603.97
  0
LINE
  8
0
 10
-103.129
 20
1603.97
 11
-103.273
 21
1603.74
  0
LINE
  8
0
 10
-103.273
 20
1603.74
 11
-103.443
 21
1603.54
  0
LINE
  8
0
 10
-103.443
 20
1603.54
 11
-103.639
 21
1603.35
  0
LINE
  8
0
 10
-103.639
 20
1603.35
 11
-103.856
 21
1603.2
  0
LINE
  8
0
 10
-103.856
 20
1603.2
 11
-104.091
 21
1603.07
  0
LINE
  8
0
 10
-104.091
 20
1603.07
 11
-104.34
 21
1602.97
  0
LINE
  8
0
 10
-104.34
 20
1602.97
 11
-104.6
 21
1602.9
  0
LINE
  8
0
 10
-104.6
 20
1602.9
 11
-104.866
 21
1602.87
  0
LINE
  8
0
 10
-104.866
 20
1602.87
 11
-105.134
 21
1602.87
  0
LINE
  8
0
 10
104.866
 20
1332.87
 11
104.6
 21
1332.9
  0
LINE
  8
0
 10
104.6
 20
1332.9
 11
104.34
 21
1332.97
  0
LINE
  8
0
 10
104.34
 20
1332.97
 11
104.091
 21
1333.07
  0
LINE
  8
0
 10
104.091
 20
1333.07
 11
103.856
 21
1333.2
  0
LINE
  8
0
 10
103.856
 20
1333.2
 11
103.639
 21
1333.35
  0
LINE
  8
0
 10
103.639
 20
1333.35
 11
103.443
 21
1333.54
  0
LINE
  8
0
 10
103.443
 20
1333.54
 11
103.273
 21
1333.74
  0
LINE
  8
0
 10
103.273
 20
1333.74
 11
103.129
 21
1333.97
  0
LINE
  8
0
 10
103.129
 20
1333.97
 11
103.015
 21
1334.21
  0
LINE
  8
0
 10
103.015
 20
1334.21
 11
102.932
 21
1334.47
  0
LINE
  8
0
 10
102.932
 20
1334.47
 11
102.882
 21
1334.73
  0
LINE
  8
0
 10
102.882
 20
1334.73
 11
102.865
 21
1335
  0
LINE
  8
0
 10
102.865
 20
1335
 11
102.882
 21
1335.27
  0
LINE
  8
0
 10
102.882
 20
1335.27
 11
102.932
 21
1335.53
  0
LINE
  8
0
 10
102.932
 20
1335.53
 11
103.015
 21
1335.79
  0
LINE
  8
0
 10
103.015
 20
1335.79
 11
103.129
 21
1336.03
  0
LINE
  8
0
 10
103.129
 20
1336.03
 11
103.273
 21
1336.26
  0
LINE
  8
0
 10
103.273
 20
1336.26
 11
103.443
 21
1336.46
  0
LINE
  8
0
 10
103.443
 20
1336.46
 11
103.639
 21
1336.65
  0
LINE
  8
0
 10
103.639
 20
1336.65
 11
103.856
 21
1336.8
  0
LINE
  8
0
 10
103.856
 20
1336.8
 11
104.091
 21
1336.93
  0
LINE
  8
0
 10
104.091
 20
1336.93
 11
104.34
 21
1337.03
  0
LINE
  8
0
 10
104.34
 20
1337.03
 11
104.6
 21
1337.1
  0
LINE
  8
0
 10
104.6
 20
1337.1
 11
104.866
 21
1337.13
  0
LINE
  8
0
 10
104.866
 20
1337.13
 11
105.134
 21
1337.13
  0
LINE
  8
0
 10
105.134
 20
1337.13
 11
105.4
 21
1337.1
  0
LINE
  8
0
 10
105.4
 20
1337.1
 11
105.66
 21
1337.03
  0
LINE
  8
0
 10
105.66
 20
1337.03
 11
105.909
 21
1336.93
  0
LINE
  8
0
 10
105.909
 20
1336.93
 11
106.144
 21
1336.8
  0
LINE
  8
0
 10
106.144
 20
1336.8
 11
106.361
 21
1336.65
  0
LINE
  8
0
 10
106.361
 20
1336.65
 11
106.557
 21
1336.46
  0
LINE
  8
0
 10
106.557
 20
1336.46
 11
106.727
 21
1336.26
  0
LINE
  8
0
 10
106.727
 20
1336.26
 11
106.871
 21
1336.03
  0
LINE
  8
0
 10
106.871
 20
1336.03
 11
106.985
 21
1335.79
  0
LINE
  8
0
 10
106.985
 20
1335.79
 11
107.068
 21
1335.53
  0
LINE
  8
0
 10
107.068
 20
1335.53
 11
107.118
 21
1335.27
  0
LINE
  8
0
 10
107.118
 20
1335.27
 11
107.135
 21
1335
  0
LINE
  8
0
 10
107.135
 20
1335
 11
107.118
 21
1334.73
  0
LINE
  8
0
 10
107.118
 20
1334.73
 11
107.068
 21
1334.47
  0
LINE
  8
0
 10
107.068
 20
1334.47
 11
106.985
 21
1334.21
  0
LINE
  8
0
 10
106.985
 20
1334.21
 11
106.871
 21
1333.97
  0
LINE
  8
0
 10
106.871
 20
1333.97
 11
106.727
 21
1333.74
  0
LINE
  8
0
 10
106.727
 20
1333.74
 11
106.557
 21
1333.54
  0
LINE
  8
0
 10
106.557
 20
1333.54
 11
106.361
 21
1333.35
  0
LINE
  8
0
 10
106.361
 20
1333.35
 11
106.144
 21
1333.2
  0
LINE
  8
0
 10
106.144
 20
1333.2
 11
105.909
 21
1333.07
  0
LINE
  8
0
 10
105.909
 20
1333.07
 11
105.66
 21
1332.97
  0
LINE
  8
0
 10
105.66
 20
1332.97
 11
105.4
 21
1332.9
  0
LINE
  8
0
 10
105.4
 20
1332.9
 11
105.134
 21
1332.87
  0
LINE
  8
0
 10
105.134
 20
1332.87
 11
104.866
 21
1332.87
  0
LINE
  8
0
 10
-105.134
 20
1332.87
 11
-105.4
 21
1332.9
  0
LINE
  8
0
 10
-105.4
 20
1332.9
 11
-105.66
 21
1332.97
  0
LINE
  8
0
 10
-105.66
 20
1332.97
 11
-105.909
 21
1333.07
  0
LINE
  8
0
 10
-105.909
 20
1333.07
 11
-106.144
 21
1333.2
  0
LINE
  8
0
 10
-106.144
 20
1333.2
 11
-106.361
 21
1333.35
  0
LINE
  8
0
 10
-106.361
 20
1333.35
 11
-106.557
 21
1333.54
  0
LINE
  8
0
 10
-106.557
 20
1333.54
 11
-106.727
 21
1333.74
  0
LINE
  8
0
 10
-106.727
 20
1333.74
 11
-106.871
 21
1333.97
  0
LINE
  8
0
 10
-106.871
 20
1333.97
 11
-106.985
 21
1334.21
  0
LINE
  8
0
 10
-106.985
 20
1334.21
 11
-107.068
 21
1334.47
  0
LINE
  8
0
 10
-107.068
 20
1334.47
 11
-107.118
 21
1334.73
  0
LINE
  8
0
 10
-107.118
 20
1334.73
 11
-107.135
 21
1335
  0
LINE
  8
0
 10
-107.135
 20
1335
 11
-107.118
 21
1335.27
  0
LINE
  8
0
 10
-107.118
 20
1335.27
 11
-107.068
 21
1335.53
  0
LINE
  8
0
 10
-107.068
 20
1335.53
 11
-106.985
 21
1335.79
  0
LINE
  8
0
 10
-106.985
 20
1335.79
 11
-106.871
 21
1336.03
  0
LINE
  8
0
 10
-106.871
 20
1336.03
 11
-106.727
 21
1336.26
  0
LINE
  8
0
 10
-106.727
 20
1336.26
 11
-106.557
 21
1336.46
  0
LINE
  8
0
 10
-106.557
 20
1336.46
 11
-106.361
 21
1336.65
  0
LINE
  8
0
 10
-106.361
 20
1336.65
 11
-106.144
 21
1336.8
  0
LINE
  8
0
 10
-106.144
 20
1336.8
 11
-105.909
 21
1336.93
  0
LINE
  8
0
 10
-105.909
 20
1336.93
 11
-105.66
 21
1337.03
  0
LINE
  8
0
 10
-105.66
 20
1337.03
 11
-105.4
 21
1337.1
  0
LINE
  8
0
 10
-105.4
 20
1337.1
 11
-105.134
 21
1337.13
  0
LINE
  8
0
 10
-105.134
 20
1337.13
 11
-104.866
 21
1337.13
  0
LINE
  8
0
 10
-104.866
 20
1337.13
 11
-104.6
 21
1337.1
  0
LINE
  8
0
 10
-104.6
 20
1337.1
 11
-104.34
 21
1337.03
  0
LINE
  8
0
 10
-104.34
 20
1337.03
 11
-104.091
 21
1336.93
  0
LINE
  8
0
 10
-104.091
 20
1336.93
 11
-103.856
 21
1336.8
  0
LINE
  8
0
 10
-103.856
 20
1336.8
 11
-103.639
 21
1336.65
  0
LINE
  8
0
 10
-103.639
 20
1336.65
 11
-103.443
 21
1336.46
  0
LINE
  8
0
 10
-103.443
 20
1336.46
 11
-103.273
 21
1336.26
  0
LINE
  8
0
 10
-103.273
 20
1336.26
 11
-103.129
 21
1336.03
  0
LINE
  8
0
 10
-103.129
 20
1336.03
 11
-103.015
 21
1335.79
  0
LINE
  8
0
 10
-103.015
 20
1335.79
 11
-102.932
 21
1335.53
  0
LINE
  8
0
 10
-102.932
 20
1335.53
 11
-102.882
 21
1335.27
  0
LINE
  8
0
 10
-102.882
 20
1335.27
 11
-102.865
 21
1335
  0
LINE
  8
0
 10
-102.865
 20
1335
 11
-102.882
 21
1334.73
  0
LINE
  8
0
 10
-102.882
 20
1334.73
 11
-102.932
 21
1334.47
  0
LINE
  8
0
 10
-102.932
 20
1334.47
 11
-103.015
 21
1334.21
  0
LINE
  8
0
 10
-103.015
 20
1334.21
 11
-103.129
 21
1333.97
  0
LINE
  8
0
 10
-103.129
 20
1333.97
 11
-103.273
 21
1333.74
  0
LINE
  8
0
 10
-103.273
 20
1333.74
 11
-103.443
 21
1333.54
  0
LINE
  8
0
 10
-103.443
 20
1333.54
 11
-103.639
 21
1333.35
  0
LINE
  8
0
 10
-103.639
 20
1333.35
 11
-103.856
 21
1333.2
  0
LINE
  8
0
 10
-103.856
 20
1333.2
 11
-104.091
 21
1333.07
  0
LINE
  8
0
 10
-104.091
 20
1333.07
 11
-104.34
 21
1332.97
  0
LINE
  8
0
 10
-104.34
 20
1332.97
 11
-104.6
 21
1332.9
  0
LINE
  8
0
 10
-104.6
 20
1332.9
 11
-104.866
 21
1332.87
  0
LINE
  8
0
 10
-104.866
 20
1332.87
 11
-105.134
 21
1332.87
  0
ENDSEC
  0
SECTION
  2
OBJECTS
  0
DICTIONARY
  0
ENDSEC
  0
EOF
