<?xml version="1.0" standalone="no"?>
<!DOCTYPE svg PUBLIC "-//W3C//DTD SVG 1.1//EN" "http://www.w3.org/Graphics/SVG/1.1/DTD/svg11.dtd">
<svg width="300mm" height="369mm" viewBox="-150 -468 300 369" xmlns="http://www.w3.org/2000/svg" version="1.1">
<title>OpenSCAD Model</title>
<path d="
M 145.937,-288.089 L 146.545,-288.245 L 147.129,-288.476 L 147.679,-288.778 L 148.187,-289.147 L 148.645,-289.577
 L 149.045,-290.061 L 149.382,-290.591 L 149.649,-291.159 L 149.843,-291.757 L 149.961,-292.373 L 150,-293
 L 150,-463 L 149.961,-463.627 L 149.843,-464.243 L 149.649,-464.841 L 149.382,-465.409 L 149.045,-465.939
 L 148.645,-466.423 L 148.187,-466.853 L 147.679,-467.222 L 147.129,-467.524 L 146.545,-467.755 L 145.937,-467.911
 L 145.314,-467.99 L -145.314,-467.99 L -145.937,-467.911 L -146.545,-467.755 L -147.129,-467.524 L -147.679,-467.222
 L -148.187,-466.853 L -148.645,-466.423 L -149.045,-465.939 L -149.382,-465.409 L -149.649,-464.841 L -149.843,-464.243
 L -149.961,-463.627 L -150,-463 L -150,-293 L -149.961,-292.373 L -149.843,-291.757 L -149.649,-291.159
 L -149.382,-290.591 L -149.045,-290.061 L -148.645,-289.577 L -148.187,-289.147 L -147.679,-288.778 L -147.129,-288.476
 L -146.545,-288.245 L -145.937,-288.089 L -145.314,-288.01 L 145.314,-288.01 z
M -144.993,-289.388 L -145.475,-289.449 L -145.946,-289.57 L -146.398,-289.749 L -146.823,-289.983 L -147.216,-290.269
 L -147.571,-290.601 L -147.88,-290.976 L -148.141,-291.386 L -148.348,-291.826 L -148.498,-292.288 L -148.589,-292.765
 L -148.619,-293.25 L -148.619,-462.75 L -148.589,-463.235 L -148.498,-463.712 L -148.348,-464.174 L -148.141,-464.614
 L -147.88,-465.024 L -147.571,-465.399 L -147.216,-465.731 L -146.823,-466.017 L -146.398,-466.251 L -145.946,-466.43
 L -145.475,-466.551 L -144.993,-466.612 L 144.993,-466.612 L 145.475,-466.551 L 145.946,-466.43 L 146.398,-466.251
 L 146.823,-466.017 L 147.216,-465.731 L 147.571,-465.399 L 147.88,-465.024 L 148.141,-464.614 L 148.348,-464.174
 L 148.498,-463.712 L 148.589,-463.235 L 148.619,-462.75 L 148.619,-293.25 L 148.589,-292.765 L 148.498,-292.288
 L 148.348,-291.826 L 148.141,-291.386 L 147.88,-290.976 L 147.571,-290.601 L 147.216,-290.269 L 146.823,-289.983
 L 146.398,-289.749 L 145.946,-289.57 L 145.475,-289.449 L 144.993,-289.388 z
M 145.937,-99.0886 L 146.545,-99.2447 L 147.129,-99.4759 L 147.679,-99.7784 L 148.187,-100.147 L 148.645,-100.577
 L 149.045,-101.061 L 149.382,-101.591 L 149.649,-102.159 L 149.843,-102.757 L 149.961,-103.373 L 150,-104
 L 150,-274 L 149.961,-274.627 L 149.843,-275.243 L 149.649,-275.841 L 149.382,-276.409 L 149.045,-276.939
 L 148.645,-277.423 L 148.187,-277.853 L 147.679,-278.222 L 147.129,-278.524 L 146.545,-278.755 L 145.937,-278.911
 L 145.314,-278.99 L -145.314,-278.99 L -145.937,-278.911 L -146.545,-278.755 L -147.129,-278.524 L -147.679,-278.222
 L -148.187,-277.853 L -148.645,-277.423 L -149.045,-276.939 L -149.382,-276.409 L -149.649,-275.841 L -149.843,-275.243
 L -149.961,-274.627 L -150,-274 L -150,-104 L -149.961,-103.373 L -149.843,-102.757 L -149.649,-102.159
 L -149.382,-101.591 L -149.045,-101.061 L -148.645,-100.577 L -148.187,-100.147 L -147.679,-99.7784 L -147.129,-99.4759
 L -146.545,-99.2447 L -145.937,-99.0886 L -145.314,-99.0099 L 145.314,-99.0099 z
M -142.613,-269.704 L -142.837,-269.732 L -143.056,-269.788 L -143.266,-269.871 L -143.464,-269.98 L -143.647,-270.113
 L -143.812,-270.268 L -143.956,-270.442 L -144.077,-270.633 L -144.174,-270.837 L -144.243,-271.052 L -144.286,-271.274
 L -144.3,-271.5 L -144.286,-271.726 L -144.243,-271.948 L -144.174,-272.163 L -144.077,-272.367 L -143.956,-272.558
 L -143.812,-272.732 L -143.647,-272.887 L -143.464,-273.02 L -143.266,-273.129 L -143.056,-273.212 L -142.837,-273.268
 L -142.613,-273.296 L -142.387,-273.296 L -142.163,-273.268 L -141.944,-273.212 L -141.734,-273.129 L -141.536,-273.02
 L -141.353,-272.887 L -141.188,-272.732 L -141.044,-272.558 L -140.923,-272.367 L -140.826,-272.163 L -140.757,-271.948
 L -140.714,-271.726 L -140.7,-271.5 L -140.714,-271.274 L -140.757,-271.052 L -140.826,-270.837 L -140.923,-270.633
 L -141.044,-270.442 L -141.188,-270.268 L -141.353,-270.113 L -141.536,-269.98 L -141.734,-269.871 L -141.944,-269.788
 L -142.163,-269.732 L -142.387,-269.704 z
M 142.387,-269.704 L 142.163,-269.732 L 141.944,-269.788 L 141.734,-269.871 L 141.536,-269.98 L 141.353,-270.113
 L 141.188,-270.268 L 141.044,-270.442 L 140.923,-270.633 L 140.826,-270.837 L 140.757,-271.052 L 140.714,-271.274
 L 140.7,-271.5 L 140.714,-271.726 L 140.757,-271.948 L 140.826,-272.163 L 140.923,-272.367 L 141.044,-272.558
 L 141.188,-272.732 L 141.353,-272.887 L 141.536,-273.02 L 141.734,-273.129 L 141.944,-273.212 L 142.163,-273.268
 L 142.387,-273.296 L 142.613,-273.296 L 142.837,-273.268 L 143.056,-273.212 L 143.266,-273.129 L 143.464,-273.02
 L 143.647,-272.887 L 143.812,-272.732 L 143.956,-272.558 L 144.077,-272.367 L 144.174,-272.163 L 144.243,-271.948
 L 144.286,-271.726 L 144.3,-271.5 L 144.286,-271.274 L 144.243,-271.052 L 144.174,-270.837 L 144.077,-270.633
 L 143.956,-270.442 L 143.812,-270.268 L 143.647,-270.113 L 143.464,-269.98 L 143.266,-269.871 L 143.056,-269.788
 L 142.837,-269.732 L 142.613,-269.704 z
M -142.613,-104.704 L -142.837,-104.732 L -143.056,-104.788 L -143.266,-104.871 L -143.464,-104.98 L -143.647,-105.113
 L -143.812,-105.268 L -143.956,-105.442 L -144.077,-105.633 L -144.174,-105.837 L -144.243,-106.052 L -144.286,-106.274
 L -144.3,-106.5 L -144.286,-106.726 L -144.243,-106.948 L -144.174,-107.163 L -144.077,-107.367 L -143.956,-107.558
 L -143.812,-107.732 L -143.647,-107.887 L -143.464,-108.02 L -143.266,-108.129 L -143.056,-108.212 L -142.837,-108.268
 L -142.613,-108.296 L -142.387,-108.296 L -142.163,-108.268 L -141.944,-108.212 L -141.734,-108.129 L -141.536,-108.02
 L -141.353,-107.887 L -141.188,-107.732 L -141.044,-107.558 L -140.923,-107.367 L -140.826,-107.163 L -140.757,-106.948
 L -140.714,-106.726 L -140.7,-106.5 L -140.714,-106.274 L -140.757,-106.052 L -140.826,-105.837 L -140.923,-105.633
 L -141.044,-105.442 L -141.188,-105.268 L -141.353,-105.113 L -141.536,-104.98 L -141.734,-104.871 L -141.944,-104.788
 L -142.163,-104.732 L -142.387,-104.704 z
M 142.387,-104.704 L 142.163,-104.732 L 141.944,-104.788 L 141.734,-104.871 L 141.536,-104.98 L 141.353,-105.113
 L 141.188,-105.268 L 141.044,-105.442 L 140.923,-105.633 L 140.826,-105.837 L 140.757,-106.052 L 140.714,-106.274
 L 140.7,-106.5 L 140.714,-106.726 L 140.757,-106.948 L 140.826,-107.163 L 140.923,-107.367 L 141.044,-107.558
 L 141.188,-107.732 L 141.353,-107.887 L 141.536,-108.02 L 141.734,-108.129 L 141.944,-108.212 L 142.163,-108.268
 L 142.387,-108.296 L 142.613,-108.296 L 142.837,-108.268 L 143.056,-108.212 L 143.266,-108.129 L 143.464,-108.02
 L 143.647,-107.887 L 143.812,-107.732 L 143.956,-107.558 L 144.077,-107.367 L 144.174,-107.163 L 144.243,-106.948
 L 144.286,-106.726 L 144.3,-106.5 L 144.286,-106.274 L 144.243,-106.052 L 144.174,-105.837 L 144.077,-105.633
 L 143.956,-105.442 L 143.812,-105.268 L 143.647,-105.113 L 143.464,-104.98 L 143.266,-104.871 L 143.056,-104.788
 L 142.837,-104.732 L 142.613,-104.704 z
" stroke="black" fill="lightgray" stroke-width="0.5"/>
</svg>
