<?xml version="1.0" standalone="no"?>
<!DOCTYPE svg PUBLIC "-//W3C//DTD SVG 1.1//EN" "http://www.w3.org/Graphics/SVG/1.1/DTD/svg11.dtd">
<svg width="256mm" height="507mm" viewBox="-128 -963 256 507" xmlns="http://www.w3.org/2000/svg" version="1.1">
<title>OpenSCAD Model</title>
<path d="
M 123.437,-843.089 L 124.045,-843.245 L 124.629,-843.476 L 125.179,-843.778 L 125.687,-844.147 L 126.145,-844.577
 L 126.545,-845.061 L 126.882,-845.591 L 127.149,-846.159 L 127.343,-846.757 L 127.461,-847.373 L 127.5,-848
 L 127.5,-958 L 127.461,-958.627 L 127.343,-959.243 L 127.149,-959.841 L 126.882,-960.409 L 126.545,-960.939
 L 126.145,-961.423 L 125.687,-961.853 L 125.179,-962.222 L 124.629,-962.524 L 124.045,-962.755 L 123.437,-962.911
 L 122.814,-962.99 L -122.814,-962.99 L -123.437,-962.911 L -124.045,-962.755 L -124.629,-962.524 L -125.179,-962.222
 L -125.687,-961.853 L -126.145,-961.423 L -126.545,-960.939 L -126.882,-960.409 L -127.149,-959.841 L -127.343,-959.243
 L -127.461,-958.627 L -127.5,-958 L -127.5,-848 L -127.461,-847.373 L -127.343,-846.757 L -127.149,-846.159
 L -126.882,-845.591 L -126.545,-845.061 L -126.145,-844.577 L -125.687,-844.147 L -125.179,-843.778 L -124.629,-843.476
 L -124.045,-843.245 L -123.437,-843.089 L -122.814,-843.01 L 122.814,-843.01 z
M -122.548,-843.509 L -123.14,-843.584 L -123.718,-843.732 L -124.272,-843.952 L -124.795,-844.239 L -125.278,-844.59
 L -125.713,-844.998 L -126.093,-845.458 L -126.412,-845.962 L -126.666,-846.501 L -126.851,-847.069 L -126.963,-847.655
 L -127,-848.25 L -127,-957.75 L -126.963,-958.345 L -126.851,-958.931 L -126.666,-959.499 L -126.412,-960.038
 L -126.093,-960.542 L -125.713,-961.002 L -125.278,-961.41 L -124.795,-961.761 L -124.272,-962.048 L -123.718,-962.268
 L -123.14,-962.416 L -122.548,-962.491 L 122.548,-962.491 L 123.14,-962.416 L 123.718,-962.268 L 124.272,-962.048
 L 124.795,-961.761 L 125.278,-961.41 L 125.713,-961.002 L 126.093,-960.542 L 126.412,-960.038 L 126.666,-959.499
 L 126.851,-958.931 L 126.963,-958.345 L 127,-957.75 L 127,-848.25 L 126.963,-847.655 L 126.851,-847.069
 L 126.666,-846.501 L 126.412,-845.962 L 126.093,-845.458 L 125.713,-844.998 L 125.278,-844.59 L 124.795,-844.239
 L 124.272,-843.952 L 123.718,-843.732 L 123.14,-843.584 L 122.548,-843.509 z
M 123.437,-714.089 L 124.045,-714.245 L 124.629,-714.476 L 125.179,-714.778 L 125.687,-715.147 L 126.145,-715.577
 L 126.545,-716.061 L 126.882,-716.591 L 127.149,-717.159 L 127.343,-717.757 L 127.461,-718.373 L 127.5,-719
 L 127.5,-829 L 127.461,-829.627 L 127.343,-830.243 L 127.149,-830.841 L 126.882,-831.409 L 126.545,-831.939
 L 126.145,-832.423 L 125.687,-832.853 L 125.179,-833.222 L 124.629,-833.524 L 124.045,-833.755 L 123.437,-833.911
 L 122.814,-833.99 L -122.814,-833.99 L -123.437,-833.911 L -124.045,-833.755 L -124.629,-833.524 L -125.179,-833.222
 L -125.687,-832.853 L -126.145,-832.423 L -126.545,-831.939 L -126.882,-831.409 L -127.149,-830.841 L -127.343,-830.243
 L -127.461,-829.627 L -127.5,-829 L -127.5,-719 L -127.461,-718.373 L -127.343,-717.757 L -127.149,-717.159
 L -126.882,-716.591 L -126.545,-716.061 L -126.145,-715.577 L -125.687,-715.147 L -125.179,-714.778 L -124.629,-714.476
 L -124.045,-714.245 L -123.437,-714.089 L -122.814,-714.01 L 122.814,-714.01 z
M -122.548,-714.509 L -123.14,-714.584 L -123.718,-714.732 L -124.272,-714.952 L -124.795,-715.239 L -125.278,-715.59
 L -125.713,-715.998 L -126.093,-716.458 L -126.412,-716.962 L -126.666,-717.501 L -126.851,-718.069 L -126.963,-718.655
 L -127,-719.25 L -127,-828.75 L -126.963,-829.345 L -126.851,-829.931 L -126.666,-830.499 L -126.412,-831.038
 L -126.093,-831.542 L -125.713,-832.002 L -125.278,-832.41 L -124.795,-832.761 L -124.272,-833.048 L -123.718,-833.268
 L -123.14,-833.416 L -122.548,-833.491 L 122.548,-833.491 L 123.14,-833.416 L 123.718,-833.268 L 124.272,-833.048
 L 124.795,-832.761 L 125.278,-832.41 L 125.713,-832.002 L 126.093,-831.542 L 126.412,-831.038 L 126.666,-830.499
 L 126.851,-829.931 L 126.963,-829.345 L 127,-828.75 L 127,-719.25 L 126.963,-718.655 L 126.851,-718.069
 L 126.666,-717.501 L 126.412,-716.962 L 126.093,-716.458 L 125.713,-715.998 L 125.278,-715.59 L 124.795,-715.239
 L 124.272,-714.952 L 123.718,-714.732 L 123.14,-714.584 L 122.548,-714.509 z
M 123.437,-585.089 L 124.045,-585.245 L 124.629,-585.476 L 125.179,-585.778 L 125.687,-586.147 L 126.145,-586.577
 L 126.545,-587.061 L 126.882,-587.591 L 127.149,-588.159 L 127.343,-588.757 L 127.461,-589.373 L 127.5,-590
 L 127.5,-700 L 127.461,-700.627 L 127.343,-701.243 L 127.149,-701.841 L 126.882,-702.409 L 126.545,-702.939
 L 126.145,-703.423 L 125.687,-703.853 L 125.179,-704.222 L 124.629,-704.524 L 124.045,-704.755 L 123.437,-704.911
 L 122.814,-704.99 L -122.814,-704.99 L -123.437,-704.911 L -124.045,-704.755 L -124.629,-704.524 L -125.179,-704.222
 L -125.687,-703.853 L -126.145,-703.423 L -126.545,-702.939 L -126.882,-702.409 L -127.149,-701.841 L -127.343,-701.243
 L -127.461,-700.627 L -127.5,-700 L -127.5,-590 L -127.461,-589.373 L -127.343,-588.757 L -127.149,-588.159
 L -126.882,-587.591 L -126.545,-587.061 L -126.145,-586.577 L -125.687,-586.147 L -125.179,-585.778 L -124.629,-585.476
 L -124.045,-585.245 L -123.437,-585.089 L -122.814,-585.01 L 122.814,-585.01 z
M -122.537,-585.681 L -123.108,-585.753 L -123.665,-585.896 L -124.199,-586.107 L -124.703,-586.384 L -125.168,-586.722
 L -125.588,-587.116 L -125.954,-587.559 L -126.262,-588.044 L -126.507,-588.565 L -126.685,-589.111 L -126.792,-589.676
 L -126.828,-590.25 L -126.828,-699.75 L -126.792,-700.324 L -126.685,-700.889 L -126.507,-701.435 L -126.262,-701.956
 L -125.954,-702.441 L -125.588,-702.884 L -125.168,-703.278 L -124.703,-703.616 L -124.199,-703.893 L -123.665,-704.104
 L -123.108,-704.247 L -122.537,-704.319 L 122.537,-704.319 L 123.108,-704.247 L 123.665,-704.104 L 124.199,-703.893
 L 124.703,-703.616 L 125.168,-703.278 L 125.588,-702.884 L 125.954,-702.441 L 126.262,-701.956 L 126.507,-701.435
 L 126.685,-700.889 L 126.792,-700.324 L 126.828,-699.75 L 126.828,-590.25 L 126.792,-589.676 L 126.685,-589.111
 L 126.507,-588.565 L 126.262,-588.044 L 125.954,-587.559 L 125.588,-587.116 L 125.168,-586.722 L 124.703,-586.384
 L 124.199,-586.107 L 123.665,-585.896 L 123.108,-585.753 L 122.537,-585.681 z
M 123.437,-456.089 L 124.045,-456.245 L 124.629,-456.476 L 125.179,-456.778 L 125.687,-457.147 L 126.145,-457.577
 L 126.545,-458.061 L 126.882,-458.591 L 127.149,-459.159 L 127.343,-459.757 L 127.461,-460.373 L 127.5,-461
 L 127.5,-571 L 127.461,-571.627 L 127.343,-572.243 L 127.149,-572.841 L 126.882,-573.409 L 126.545,-573.939
 L 126.145,-574.423 L 125.687,-574.853 L 125.179,-575.222 L 124.629,-575.524 L 124.045,-575.755 L 123.437,-575.911
 L 122.814,-575.99 L -122.814,-575.99 L -123.437,-575.911 L -124.045,-575.755 L -124.629,-575.524 L -125.179,-575.222
 L -125.687,-574.853 L -126.145,-574.423 L -126.545,-573.939 L -126.882,-573.409 L -127.149,-572.841 L -127.343,-572.243
 L -127.461,-571.627 L -127.5,-571 L -127.5,-461 L -127.461,-460.373 L -127.343,-459.757 L -127.149,-459.159
 L -126.882,-458.591 L -126.545,-458.061 L -126.145,-457.577 L -125.687,-457.147 L -125.179,-456.778 L -124.629,-456.476
 L -124.045,-456.245 L -123.437,-456.089 L -122.814,-456.01 L 122.814,-456.01 z
M -122.382,-459.145 L -122.645,-459.178 L -122.902,-459.244 L -123.148,-459.341 L -123.38,-459.469 L -123.595,-459.625
 L -123.788,-459.806 L -123.957,-460.01 L -124.099,-460.234 L -124.211,-460.473 L -124.293,-460.725 L -124.343,-460.986
 L -124.36,-461.25 L -124.36,-570.75 L -124.343,-571.014 L -124.293,-571.275 L -124.211,-571.527 L -124.099,-571.766
 L -123.957,-571.99 L -123.788,-572.194 L -123.595,-572.375 L -123.38,-572.531 L -123.148,-572.659 L -122.902,-572.756
 L -122.645,-572.822 L -122.382,-572.855 L 122.382,-572.855 L 122.645,-572.822 L 122.902,-572.756 L 123.148,-572.659
 L 123.38,-572.531 L 123.595,-572.375 L 123.788,-572.194 L 123.957,-571.99 L 124.099,-571.766 L 124.211,-571.527
 L 124.293,-571.275 L 124.343,-571.014 L 124.36,-570.75 L 124.36,-461.25 L 124.343,-460.986 L 124.293,-460.725
 L 124.211,-460.473 L 124.099,-460.234 L 123.957,-460.01 L 123.788,-459.806 L 123.595,-459.625 L 123.38,-459.469
 L 123.148,-459.341 L 122.902,-459.244 L 122.645,-459.178 L 122.382,-459.145 z
" stroke="black" fill="lightgray" stroke-width="0.5"/>
</svg>
