  0
SECTION
  2
BLOCKS
  0
ENDSEC
  0
SECTION
  2
ENTITIES
  0
LINE
  8
0
 10
138.437
 20
220.589
 11
139.045
 21
220.745
  0
LINE
  8
0
 10
139.045
 20
220.745
 11
139.629
 21
220.976
  0
LINE
  8
0
 10
139.629
 20
220.976
 11
140.179
 21
221.278
  0
LINE
  8
0
 10
140.179
 20
221.278
 11
140.687
 21
221.647
  0
LINE
  8
0
 10
140.687
 20
221.647
 11
141.145
 21
222.077
  0
LINE
  8
0
 10
141.145
 20
222.077
 11
141.545
 21
222.561
  0
LINE
  8
0
 10
141.545
 20
222.561
 11
141.882
 21
223.091
  0
LINE
  8
0
 10
141.882
 20
223.091
 11
142.149
 21
223.659
  0
LINE
  8
0
 10
142.149
 20
223.659
 11
142.343
 21
224.257
  0
LINE
  8
0
 10
142.343
 20
224.257
 11
142.461
 21
224.873
  0
LINE
  8
0
 10
142.461
 20
224.873
 11
142.5
 21
225.5
  0
LINE
  8
0
 10
142.5
 20
225.5
 11
142.5
 21
350.5
  0
LINE
  8
0
 10
142.5
 20
350.5
 11
142.461
 21
351.127
  0
LINE
  8
0
 10
142.461
 20
351.127
 11
142.343
 21
351.743
  0
LINE
  8
0
 10
142.343
 20
351.743
 11
142.149
 21
352.341
  0
LINE
  8
0
 10
142.149
 20
352.341
 11
141.882
 21
352.909
  0
LINE
  8
0
 10
141.882
 20
352.909
 11
141.545
 21
353.439
  0
LINE
  8
0
 10
141.545
 20
353.439
 11
141.145
 21
353.923
  0
LINE
  8
0
 10
141.145
 20
353.923
 11
140.687
 21
354.353
  0
LINE
  8
0
 10
140.687
 20
354.353
 11
140.179
 21
354.722
  0
LINE
  8
0
 10
140.179
 20
354.722
 11
139.629
 21
355.024
  0
LINE
  8
0
 10
139.629
 20
355.024
 11
139.045
 21
355.255
  0
LINE
  8
0
 10
139.045
 20
355.255
 11
138.437
 21
355.411
  0
LINE
  8
0
 10
138.437
 20
355.411
 11
137.814
 21
355.49
  0
LINE
  8
0
 10
137.814
 20
355.49
 11
-137.814
 21
355.49
  0
LINE
  8
0
 10
-137.814
 20
355.49
 11
-138.437
 21
355.411
  0
LINE
  8
0
 10
-138.437
 20
355.411
 11
-139.045
 21
355.255
  0
LINE
  8
0
 10
-139.045
 20
355.255
 11
-139.629
 21
355.024
  0
LINE
  8
0
 10
-139.629
 20
355.024
 11
-140.179
 21
354.722
  0
LINE
  8
0
 10
-140.179
 20
354.722
 11
-140.687
 21
354.353
  0
LINE
  8
0
 10
-140.687
 20
354.353
 11
-141
 21
354.059
  0
LINE
  8
0
 10
-141
 20
354.059
 11
-141
 21
355.115
  0
LINE
  8
0
 10
-141
 20
355.115
 11
-144
 21
355.115
  0
LINE
  8
0
 10
-144
 20
355.115
 11
-144
 21
220.885
  0
LINE
  8
0
 10
-144
 20
220.885
 11
-141
 21
220.885
  0
LINE
  8
0
 10
-141
 20
220.885
 11
-141
 21
221.941
  0
LINE
  8
0
 10
-141
 20
221.941
 11
-140.687
 21
221.647
  0
LINE
  8
0
 10
-140.687
 20
221.647
 11
-140.179
 21
221.278
  0
LINE
  8
0
 10
-140.179
 20
221.278
 11
-139.629
 21
220.976
  0
LINE
  8
0
 10
-139.629
 20
220.976
 11
-139.045
 21
220.745
  0
LINE
  8
0
 10
-139.045
 20
220.745
 11
-138.437
 21
220.589
  0
LINE
  8
0
 10
-138.437
 20
220.589
 11
-137.814
 21
220.51
  0
LINE
  8
0
 10
-137.814
 20
220.51
 11
137.814
 21
220.51
  0
LINE
  8
0
 10
137.814
 20
220.51
 11
138.437
 21
220.589
  0
LINE
  8
0
 10
-135.151
 20
345.605
 11
-135.45
 21
345.643
  0
LINE
  8
0
 10
-135.45
 20
345.643
 11
-135.742
 21
345.717
  0
LINE
  8
0
 10
-135.742
 20
345.717
 11
-136.022
 21
345.828
  0
LINE
  8
0
 10
-136.022
 20
345.828
 11
-136.286
 21
345.974
  0
LINE
  8
0
 10
-136.286
 20
345.974
 11
-136.53
 21
346.151
  0
LINE
  8
0
 10
-136.53
 20
346.151
 11
-136.75
 21
346.357
  0
LINE
  8
0
 10
-136.75
 20
346.357
 11
-136.942
 21
346.589
  0
LINE
  8
0
 10
-136.942
 20
346.589
 11
-137.103
 21
346.844
  0
LINE
  8
0
 10
-137.103
 20
346.844
 11
-137.231
 21
347.117
  0
LINE
  8
0
 10
-137.231
 20
347.117
 11
-137.325
 21
347.403
  0
LINE
  8
0
 10
-137.325
 20
347.403
 11
-137.381
 21
347.699
  0
LINE
  8
0
 10
-137.381
 20
347.699
 11
-137.4
 21
348
  0
LINE
  8
0
 10
-137.4
 20
348
 11
-137.381
 21
348.301
  0
LINE
  8
0
 10
-137.381
 20
348.301
 11
-137.325
 21
348.597
  0
LINE
  8
0
 10
-137.325
 20
348.597
 11
-137.231
 21
348.883
  0
LINE
  8
0
 10
-137.231
 20
348.883
 11
-137.103
 21
349.156
  0
LINE
  8
0
 10
-137.103
 20
349.156
 11
-136.942
 21
349.411
  0
LINE
  8
0
 10
-136.942
 20
349.411
 11
-136.75
 21
349.643
  0
LINE
  8
0
 10
-136.75
 20
349.643
 11
-136.53
 21
349.849
  0
LINE
  8
0
 10
-136.53
 20
349.849
 11
-136.286
 21
350.026
  0
LINE
  8
0
 10
-136.286
 20
350.026
 11
-136.022
 21
350.172
  0
LINE
  8
0
 10
-136.022
 20
350.172
 11
-135.742
 21
350.283
  0
LINE
  8
0
 10
-135.742
 20
350.283
 11
-135.45
 21
350.357
  0
LINE
  8
0
 10
-135.45
 20
350.357
 11
-135.151
 21
350.395
  0
LINE
  8
0
 10
-135.151
 20
350.395
 11
-134.849
 21
350.395
  0
LINE
  8
0
 10
-134.849
 20
350.395
 11
-134.55
 21
350.357
  0
LINE
  8
0
 10
-134.55
 20
350.357
 11
-134.258
 21
350.283
  0
LINE
  8
0
 10
-134.258
 20
350.283
 11
-133.978
 21
350.172
  0
LINE
  8
0
 10
-133.978
 20
350.172
 11
-133.714
 21
350.026
  0
LINE
  8
0
 10
-133.714
 20
350.026
 11
-133.47
 21
349.849
  0
LINE
  8
0
 10
-133.47
 20
349.849
 11
-133.25
 21
349.643
  0
LINE
  8
0
 10
-133.25
 20
349.643
 11
-133.058
 21
349.411
  0
LINE
  8
0
 10
-133.058
 20
349.411
 11
-132.897
 21
349.156
  0
LINE
  8
0
 10
-132.897
 20
349.156
 11
-132.769
 21
348.883
  0
LINE
  8
0
 10
-132.769
 20
348.883
 11
-132.675
 21
348.597
  0
LINE
  8
0
 10
-132.675
 20
348.597
 11
-132.619
 21
348.301
  0
LINE
  8
0
 10
-132.619
 20
348.301
 11
-132.6
 21
348
  0
LINE
  8
0
 10
-132.6
 20
348
 11
-132.619
 21
347.699
  0
LINE
  8
0
 10
-132.619
 20
347.699
 11
-132.675
 21
347.403
  0
LINE
  8
0
 10
-132.675
 20
347.403
 11
-132.769
 21
347.117
  0
LINE
  8
0
 10
-132.769
 20
347.117
 11
-132.897
 21
346.844
  0
LINE
  8
0
 10
-132.897
 20
346.844
 11
-133.058
 21
346.589
  0
LINE
  8
0
 10
-133.058
 20
346.589
 11
-133.25
 21
346.357
  0
LINE
  8
0
 10
-133.25
 20
346.357
 11
-133.47
 21
346.151
  0
LINE
  8
0
 10
-133.47
 20
346.151
 11
-133.714
 21
345.974
  0
LINE
  8
0
 10
-133.714
 20
345.974
 11
-133.978
 21
345.828
  0
LINE
  8
0
 10
-133.978
 20
345.828
 11
-134.258
 21
345.717
  0
LINE
  8
0
 10
-134.258
 20
345.717
 11
-134.55
 21
345.643
  0
LINE
  8
0
 10
-134.55
 20
345.643
 11
-134.849
 21
345.605
  0
LINE
  8
0
 10
-134.849
 20
345.605
 11
-135.151
 21
345.605
  0
LINE
  8
0
 10
134.849
 20
345.605
 11
134.55
 21
345.643
  0
LINE
  8
0
 10
134.55
 20
345.643
 11
134.258
 21
345.717
  0
LINE
  8
0
 10
134.258
 20
345.717
 11
133.978
 21
345.828
  0
LINE
  8
0
 10
133.978
 20
345.828
 11
133.714
 21
345.974
  0
LINE
  8
0
 10
133.714
 20
345.974
 11
133.47
 21
346.151
  0
LINE
  8
0
 10
133.47
 20
346.151
 11
133.25
 21
346.357
  0
LINE
  8
0
 10
133.25
 20
346.357
 11
133.058
 21
346.589
  0
LINE
  8
0
 10
133.058
 20
346.589
 11
132.897
 21
346.844
  0
LINE
  8
0
 10
132.897
 20
346.844
 11
132.769
 21
347.117
  0
LINE
  8
0
 10
132.769
 20
347.117
 11
132.675
 21
347.403
  0
LINE
  8
0
 10
132.675
 20
347.403
 11
132.619
 21
347.699
  0
LINE
  8
0
 10
132.619
 20
347.699
 11
132.6
 21
348
  0
LINE
  8
0
 10
132.6
 20
348
 11
132.619
 21
348.301
  0
LINE
  8
0
 10
132.619
 20
348.301
 11
132.675
 21
348.597
  0
LINE
  8
0
 10
132.675
 20
348.597
 11
132.769
 21
348.883
  0
LINE
  8
0
 10
132.769
 20
348.883
 11
132.897
 21
349.156
  0
LINE
  8
0
 10
132.897
 20
349.156
 11
133.058
 21
349.411
  0
LINE
  8
0
 10
133.058
 20
349.411
 11
133.25
 21
349.643
  0
LINE
  8
0
 10
133.25
 20
349.643
 11
133.47
 21
349.849
  0
LINE
  8
0
 10
133.47
 20
349.849
 11
133.714
 21
350.026
  0
LINE
  8
0
 10
133.714
 20
350.026
 11
133.978
 21
350.172
  0
LINE
  8
0
 10
133.978
 20
350.172
 11
134.258
 21
350.283
  0
LINE
  8
0
 10
134.258
 20
350.283
 11
134.55
 21
350.357
  0
LINE
  8
0
 10
134.55
 20
350.357
 11
134.849
 21
350.395
  0
LINE
  8
0
 10
134.849
 20
350.395
 11
135.151
 21
350.395
  0
LINE
  8
0
 10
135.151
 20
350.395
 11
135.45
 21
350.357
  0
LINE
  8
0
 10
135.45
 20
350.357
 11
135.742
 21
350.283
  0
LINE
  8
0
 10
135.742
 20
350.283
 11
136.022
 21
350.172
  0
LINE
  8
0
 10
136.022
 20
350.172
 11
136.286
 21
350.026
  0
LINE
  8
0
 10
136.286
 20
350.026
 11
136.53
 21
349.849
  0
LINE
  8
0
 10
136.53
 20
349.849
 11
136.75
 21
349.643
  0
LINE
  8
0
 10
136.75
 20
349.643
 11
136.942
 21
349.411
  0
LINE
  8
0
 10
136.942
 20
349.411
 11
137.103
 21
349.156
  0
LINE
  8
0
 10
137.103
 20
349.156
 11
137.231
 21
348.883
  0
LINE
  8
0
 10
137.231
 20
348.883
 11
137.325
 21
348.597
  0
LINE
  8
0
 10
137.325
 20
348.597
 11
137.381
 21
348.301
  0
LINE
  8
0
 10
137.381
 20
348.301
 11
137.4
 21
348
  0
LINE
  8
0
 10
137.4
 20
348
 11
137.381
 21
347.699
  0
LINE
  8
0
 10
137.381
 20
347.699
 11
137.325
 21
347.403
  0
LINE
  8
0
 10
137.325
 20
347.403
 11
137.231
 21
347.117
  0
LINE
  8
0
 10
137.231
 20
347.117
 11
137.103
 21
346.844
  0
LINE
  8
0
 10
137.103
 20
346.844
 11
136.942
 21
346.589
  0
LINE
  8
0
 10
136.942
 20
346.589
 11
136.75
 21
346.357
  0
LINE
  8
0
 10
136.75
 20
346.357
 11
136.53
 21
346.151
  0
LINE
  8
0
 10
136.53
 20
346.151
 11
136.286
 21
345.974
  0
LINE
  8
0
 10
136.286
 20
345.974
 11
136.022
 21
345.828
  0
LINE
  8
0
 10
136.022
 20
345.828
 11
135.742
 21
345.717
  0
LINE
  8
0
 10
135.742
 20
345.717
 11
135.45
 21
345.643
  0
LINE
  8
0
 10
135.45
 20
345.643
 11
135.151
 21
345.605
  0
LINE
  8
0
 10
135.151
 20
345.605
 11
134.849
 21
345.605
  0
LINE
  8
0
 10
134.849
 20
225.605
 11
134.55
 21
225.643
  0
LINE
  8
0
 10
134.55
 20
225.643
 11
134.258
 21
225.717
  0
LINE
  8
0
 10
134.258
 20
225.717
 11
133.978
 21
225.828
  0
LINE
  8
0
 10
133.978
 20
225.828
 11
133.714
 21
225.974
  0
LINE
  8
0
 10
133.714
 20
225.974
 11
133.47
 21
226.151
  0
LINE
  8
0
 10
133.47
 20
226.151
 11
133.25
 21
226.357
  0
LINE
  8
0
 10
133.25
 20
226.357
 11
133.058
 21
226.589
  0
LINE
  8
0
 10
133.058
 20
226.589
 11
132.897
 21
226.844
  0
LINE
  8
0
 10
132.897
 20
226.844
 11
132.769
 21
227.117
  0
LINE
  8
0
 10
132.769
 20
227.117
 11
132.675
 21
227.403
  0
LINE
  8
0
 10
132.675
 20
227.403
 11
132.619
 21
227.699
  0
LINE
  8
0
 10
132.619
 20
227.699
 11
132.6
 21
228
  0
LINE
  8
0
 10
132.6
 20
228
 11
132.619
 21
228.301
  0
LINE
  8
0
 10
132.619
 20
228.301
 11
132.675
 21
228.597
  0
LINE
  8
0
 10
132.675
 20
228.597
 11
132.769
 21
228.883
  0
LINE
  8
0
 10
132.769
 20
228.883
 11
132.897
 21
229.156
  0
LINE
  8
0
 10
132.897
 20
229.156
 11
133.058
 21
229.411
  0
LINE
  8
0
 10
133.058
 20
229.411
 11
133.25
 21
229.643
  0
LINE
  8
0
 10
133.25
 20
229.643
 11
133.47
 21
229.849
  0
LINE
  8
0
 10
133.47
 20
229.849
 11
133.714
 21
230.026
  0
LINE
  8
0
 10
133.714
 20
230.026
 11
133.978
 21
230.172
  0
LINE
  8
0
 10
133.978
 20
230.172
 11
134.258
 21
230.283
  0
LINE
  8
0
 10
134.258
 20
230.283
 11
134.55
 21
230.357
  0
LINE
  8
0
 10
134.55
 20
230.357
 11
134.849
 21
230.395
  0
LINE
  8
0
 10
134.849
 20
230.395
 11
135.151
 21
230.395
  0
LINE
  8
0
 10
135.151
 20
230.395
 11
135.45
 21
230.357
  0
LINE
  8
0
 10
135.45
 20
230.357
 11
135.742
 21
230.283
  0
LINE
  8
0
 10
135.742
 20
230.283
 11
136.022
 21
230.172
  0
LINE
  8
0
 10
136.022
 20
230.172
 11
136.286
 21
230.026
  0
LINE
  8
0
 10
136.286
 20
230.026
 11
136.53
 21
229.849
  0
LINE
  8
0
 10
136.53
 20
229.849
 11
136.75
 21
229.643
  0
LINE
  8
0
 10
136.75
 20
229.643
 11
136.942
 21
229.411
  0
LINE
  8
0
 10
136.942
 20
229.411
 11
137.103
 21
229.156
  0
LINE
  8
0
 10
137.103
 20
229.156
 11
137.231
 21
228.883
  0
LINE
  8
0
 10
137.231
 20
228.883
 11
137.325
 21
228.597
  0
LINE
  8
0
 10
137.325
 20
228.597
 11
137.381
 21
228.301
  0
LINE
  8
0
 10
137.381
 20
228.301
 11
137.4
 21
228
  0
LINE
  8
0
 10
137.4
 20
228
 11
137.381
 21
227.699
  0
LINE
  8
0
 10
137.381
 20
227.699
 11
137.325
 21
227.403
  0
LINE
  8
0
 10
137.325
 20
227.403
 11
137.231
 21
227.117
  0
LINE
  8
0
 10
137.231
 20
227.117
 11
137.103
 21
226.844
  0
LINE
  8
0
 10
137.103
 20
226.844
 11
136.942
 21
226.589
  0
LINE
  8
0
 10
136.942
 20
226.589
 11
136.75
 21
226.357
  0
LINE
  8
0
 10
136.75
 20
226.357
 11
136.53
 21
226.151
  0
LINE
  8
0
 10
136.53
 20
226.151
 11
136.286
 21
225.974
  0
LINE
  8
0
 10
136.286
 20
225.974
 11
136.022
 21
225.828
  0
LINE
  8
0
 10
136.022
 20
225.828
 11
135.742
 21
225.717
  0
LINE
  8
0
 10
135.742
 20
225.717
 11
135.45
 21
225.643
  0
LINE
  8
0
 10
135.45
 20
225.643
 11
135.151
 21
225.605
  0
LINE
  8
0
 10
135.151
 20
225.605
 11
134.849
 21
225.605
  0
LINE
  8
0
 10
-135.151
 20
225.605
 11
-135.45
 21
225.643
  0
LINE
  8
0
 10
-135.45
 20
225.643
 11
-135.742
 21
225.717
  0
LINE
  8
0
 10
-135.742
 20
225.717
 11
-136.022
 21
225.828
  0
LINE
  8
0
 10
-136.022
 20
225.828
 11
-136.286
 21
225.974
  0
LINE
  8
0
 10
-136.286
 20
225.974
 11
-136.53
 21
226.151
  0
LINE
  8
0
 10
-136.53
 20
226.151
 11
-136.75
 21
226.357
  0
LINE
  8
0
 10
-136.75
 20
226.357
 11
-136.942
 21
226.589
  0
LINE
  8
0
 10
-136.942
 20
226.589
 11
-137.103
 21
226.844
  0
LINE
  8
0
 10
-137.103
 20
226.844
 11
-137.231
 21
227.117
  0
LINE
  8
0
 10
-137.231
 20
227.117
 11
-137.325
 21
227.403
  0
LINE
  8
0
 10
-137.325
 20
227.403
 11
-137.381
 21
227.699
  0
LINE
  8
0
 10
-137.381
 20
227.699
 11
-137.4
 21
228
  0
LINE
  8
0
 10
-137.4
 20
228
 11
-137.381
 21
228.301
  0
LINE
  8
0
 10
-137.381
 20
228.301
 11
-137.325
 21
228.597
  0
LINE
  8
0
 10
-137.325
 20
228.597
 11
-137.231
 21
228.883
  0
LINE
  8
0
 10
-137.231
 20
228.883
 11
-137.103
 21
229.156
  0
LINE
  8
0
 10
-137.103
 20
229.156
 11
-136.942
 21
229.411
  0
LINE
  8
0
 10
-136.942
 20
229.411
 11
-136.75
 21
229.643
  0
LINE
  8
0
 10
-136.75
 20
229.643
 11
-136.53
 21
229.849
  0
LINE
  8
0
 10
-136.53
 20
229.849
 11
-136.286
 21
230.026
  0
LINE
  8
0
 10
-136.286
 20
230.026
 11
-136.022
 21
230.172
  0
LINE
  8
0
 10
-136.022
 20
230.172
 11
-135.742
 21
230.283
  0
LINE
  8
0
 10
-135.742
 20
230.283
 11
-135.45
 21
230.357
  0
LINE
  8
0
 10
-135.45
 20
230.357
 11
-135.151
 21
230.395
  0
LINE
  8
0
 10
-135.151
 20
230.395
 11
-134.849
 21
230.395
  0
LINE
  8
0
 10
-134.849
 20
230.395
 11
-134.55
 21
230.357
  0
LINE
  8
0
 10
-134.55
 20
230.357
 11
-134.258
 21
230.283
  0
LINE
  8
0
 10
-134.258
 20
230.283
 11
-133.978
 21
230.172
  0
LINE
  8
0
 10
-133.978
 20
230.172
 11
-133.714
 21
230.026
  0
LINE
  8
0
 10
-133.714
 20
230.026
 11
-133.47
 21
229.849
  0
LINE
  8
0
 10
-133.47
 20
229.849
 11
-133.25
 21
229.643
  0
LINE
  8
0
 10
-133.25
 20
229.643
 11
-133.058
 21
229.411
  0
LINE
  8
0
 10
-133.058
 20
229.411
 11
-132.897
 21
229.156
  0
LINE
  8
0
 10
-132.897
 20
229.156
 11
-132.769
 21
228.883
  0
LINE
  8
0
 10
-132.769
 20
228.883
 11
-132.675
 21
228.597
  0
LINE
  8
0
 10
-132.675
 20
228.597
 11
-132.619
 21
228.301
  0
LINE
  8
0
 10
-132.619
 20
228.301
 11
-132.6
 21
228
  0
LINE
  8
0
 10
-132.6
 20
228
 11
-132.619
 21
227.699
  0
LINE
  8
0
 10
-132.619
 20
227.699
 11
-132.675
 21
227.403
  0
LINE
  8
0
 10
-132.675
 20
227.403
 11
-132.769
 21
227.117
  0
LINE
  8
0
 10
-132.769
 20
227.117
 11
-132.897
 21
226.844
  0
LINE
  8
0
 10
-132.897
 20
226.844
 11
-133.058
 21
226.589
  0
LINE
  8
0
 10
-133.058
 20
226.589
 11
-133.25
 21
226.357
  0
LINE
  8
0
 10
-133.25
 20
226.357
 11
-133.47
 21
226.151
  0
LINE
  8
0
 10
-133.47
 20
226.151
 11
-133.714
 21
225.974
  0
LINE
  8
0
 10
-133.714
 20
225.974
 11
-133.978
 21
225.828
  0
LINE
  8
0
 10
-133.978
 20
225.828
 11
-134.258
 21
225.717
  0
LINE
  8
0
 10
-134.258
 20
225.717
 11
-134.55
 21
225.643
  0
LINE
  8
0
 10
-134.55
 20
225.643
 11
-134.849
 21
225.605
  0
LINE
  8
0
 10
-134.849
 20
225.605
 11
-135.151
 21
225.605
  0
LINE
  8
0
 10
138.437
 20
76.5886
 11
139.045
 21
76.7447
  0
LINE
  8
0
 10
139.045
 20
76.7447
 11
139.629
 21
76.9759
  0
LINE
  8
0
 10
139.629
 20
76.9759
 11
140.179
 21
77.2784
  0
LINE
  8
0
 10
140.179
 20
77.2784
 11
140.687
 21
77.6474
  0
LINE
  8
0
 10
140.687
 20
77.6474
 11
141.145
 21
78.0773
  0
LINE
  8
0
 10
141.145
 20
78.0773
 11
141.545
 21
78.5611
  0
LINE
  8
0
 10
141.545
 20
78.5611
 11
141.882
 21
79.0912
  0
LINE
  8
0
 10
141.882
 20
79.0912
 11
142.149
 21
79.6594
  0
LINE
  8
0
 10
142.149
 20
79.6594
 11
142.343
 21
80.2566
  0
LINE
  8
0
 10
142.343
 20
80.2566
 11
142.461
 21
80.8733
  0
LINE
  8
0
 10
142.461
 20
80.8733
 11
142.5
 21
81.5
  0
LINE
  8
0
 10
142.5
 20
81.5
 11
142.5
 21
206.5
  0
LINE
  8
0
 10
142.5
 20
206.5
 11
142.461
 21
207.127
  0
LINE
  8
0
 10
142.461
 20
207.127
 11
142.343
 21
207.743
  0
LINE
  8
0
 10
142.343
 20
207.743
 11
142.149
 21
208.341
  0
LINE
  8
0
 10
142.149
 20
208.341
 11
141.882
 21
208.909
  0
LINE
  8
0
 10
141.882
 20
208.909
 11
141.545
 21
209.439
  0
LINE
  8
0
 10
141.545
 20
209.439
 11
141.145
 21
209.923
  0
LINE
  8
0
 10
141.145
 20
209.923
 11
140.687
 21
210.353
  0
LINE
  8
0
 10
140.687
 20
210.353
 11
140.179
 21
210.722
  0
LINE
  8
0
 10
140.179
 20
210.722
 11
139.629
 21
211.024
  0
LINE
  8
0
 10
139.629
 20
211.024
 11
139.045
 21
211.255
  0
LINE
  8
0
 10
139.045
 20
211.255
 11
138.437
 21
211.411
  0
LINE
  8
0
 10
138.437
 20
211.411
 11
137.814
 21
211.49
  0
LINE
  8
0
 10
137.814
 20
211.49
 11
-137.814
 21
211.49
  0
LINE
  8
0
 10
-137.814
 20
211.49
 11
-138.437
 21
211.411
  0
LINE
  8
0
 10
-138.437
 20
211.411
 11
-139.045
 21
211.255
  0
LINE
  8
0
 10
-139.045
 20
211.255
 11
-139.629
 21
211.024
  0
LINE
  8
0
 10
-139.629
 20
211.024
 11
-140.179
 21
210.722
  0
LINE
  8
0
 10
-140.179
 20
210.722
 11
-140.687
 21
210.353
  0
LINE
  8
0
 10
-140.687
 20
210.353
 11
-141.145
 21
209.923
  0
LINE
  8
0
 10
-141.145
 20
209.923
 11
-141.545
 21
209.439
  0
LINE
  8
0
 10
-141.545
 20
209.439
 11
-141.882
 21
208.909
  0
LINE
  8
0
 10
-141.882
 20
208.909
 11
-142.149
 21
208.341
  0
LINE
  8
0
 10
-142.149
 20
208.341
 11
-142.343
 21
207.743
  0
LINE
  8
0
 10
-142.343
 20
207.743
 11
-142.4
 21
207.444
  0
LINE
  8
0
 10
-142.4
 20
207.444
 11
-144
 21
207.444
  0
LINE
  8
0
 10
-144
 20
207.444
 11
-144
 21
80.5558
  0
LINE
  8
0
 10
-144
 20
80.5558
 11
-142.4
 21
80.5558
  0
LINE
  8
0
 10
-142.4
 20
80.5558
 11
-142.343
 21
80.2566
  0
LINE
  8
0
 10
-142.343
 20
80.2566
 11
-142.149
 21
79.6594
  0
LINE
  8
0
 10
-142.149
 20
79.6594
 11
-141.882
 21
79.0912
  0
LINE
  8
0
 10
-141.882
 20
79.0912
 11
-141.545
 21
78.5611
  0
LINE
  8
0
 10
-141.545
 20
78.5611
 11
-141.145
 21
78.0773
  0
LINE
  8
0
 10
-141.145
 20
78.0773
 11
-140.687
 21
77.6474
  0
LINE
  8
0
 10
-140.687
 20
77.6474
 11
-140.179
 21
77.2784
  0
LINE
  8
0
 10
-140.179
 20
77.2784
 11
-139.629
 21
76.9759
  0
LINE
  8
0
 10
-139.629
 20
76.9759
 11
-139.045
 21
76.7447
  0
LINE
  8
0
 10
-139.045
 20
76.7447
 11
-138.437
 21
76.5886
  0
LINE
  8
0
 10
-138.437
 20
76.5886
 11
-137.814
 21
76.5099
  0
LINE
  8
0
 10
-137.814
 20
76.5099
 11
137.814
 21
76.5099
  0
LINE
  8
0
 10
137.814
 20
76.5099
 11
138.437
 21
76.5886
  0
LINE
  8
0
 10
-135.113
 20
202.204
 11
-135.337
 21
202.232
  0
LINE
  8
0
 10
-135.337
 20
202.232
 11
-135.556
 21
202.288
  0
LINE
  8
0
 10
-135.556
 20
202.288
 11
-135.766
 21
202.371
  0
LINE
  8
0
 10
-135.766
 20
202.371
 11
-135.964
 21
202.48
  0
LINE
  8
0
 10
-135.964
 20
202.48
 11
-136.147
 21
202.613
  0
LINE
  8
0
 10
-136.147
 20
202.613
 11
-136.312
 21
202.768
  0
LINE
  8
0
 10
-136.312
 20
202.768
 11
-136.456
 21
202.942
  0
LINE
  8
0
 10
-136.456
 20
202.942
 11
-136.577
 21
203.133
  0
LINE
  8
0
 10
-136.577
 20
203.133
 11
-136.674
 21
203.337
  0
LINE
  8
0
 10
-136.674
 20
203.337
 11
-136.743
 21
203.552
  0
LINE
  8
0
 10
-136.743
 20
203.552
 11
-136.786
 21
203.774
  0
LINE
  8
0
 10
-136.786
 20
203.774
 11
-136.8
 21
204
  0
LINE
  8
0
 10
-136.8
 20
204
 11
-136.786
 21
204.226
  0
LINE
  8
0
 10
-136.786
 20
204.226
 11
-136.743
 21
204.448
  0
LINE
  8
0
 10
-136.743
 20
204.448
 11
-136.674
 21
204.663
  0
LINE
  8
0
 10
-136.674
 20
204.663
 11
-136.577
 21
204.867
  0
LINE
  8
0
 10
-136.577
 20
204.867
 11
-136.456
 21
205.058
  0
LINE
  8
0
 10
-136.456
 20
205.058
 11
-136.312
 21
205.232
  0
LINE
  8
0
 10
-136.312
 20
205.232
 11
-136.147
 21
205.387
  0
LINE
  8
0
 10
-136.147
 20
205.387
 11
-135.964
 21
205.52
  0
LINE
  8
0
 10
-135.964
 20
205.52
 11
-135.766
 21
205.629
  0
LINE
  8
0
 10
-135.766
 20
205.629
 11
-135.556
 21
205.712
  0
LINE
  8
0
 10
-135.556
 20
205.712
 11
-135.337
 21
205.768
  0
LINE
  8
0
 10
-135.337
 20
205.768
 11
-135.113
 21
205.796
  0
LINE
  8
0
 10
-135.113
 20
205.796
 11
-134.887
 21
205.796
  0
LINE
  8
0
 10
-134.887
 20
205.796
 11
-134.663
 21
205.768
  0
LINE
  8
0
 10
-134.663
 20
205.768
 11
-134.444
 21
205.712
  0
LINE
  8
0
 10
-134.444
 20
205.712
 11
-134.234
 21
205.629
  0
LINE
  8
0
 10
-134.234
 20
205.629
 11
-134.036
 21
205.52
  0
LINE
  8
0
 10
-134.036
 20
205.52
 11
-133.853
 21
205.387
  0
LINE
  8
0
 10
-133.853
 20
205.387
 11
-133.688
 21
205.232
  0
LINE
  8
0
 10
-133.688
 20
205.232
 11
-133.544
 21
205.058
  0
LINE
  8
0
 10
-133.544
 20
205.058
 11
-133.423
 21
204.867
  0
LINE
  8
0
 10
-133.423
 20
204.867
 11
-133.326
 21
204.663
  0
LINE
  8
0
 10
-133.326
 20
204.663
 11
-133.257
 21
204.448
  0
LINE
  8
0
 10
-133.257
 20
204.448
 11
-133.214
 21
204.226
  0
LINE
  8
0
 10
-133.214
 20
204.226
 11
-133.2
 21
204
  0
LINE
  8
0
 10
-133.2
 20
204
 11
-133.214
 21
203.774
  0
LINE
  8
0
 10
-133.214
 20
203.774
 11
-133.257
 21
203.552
  0
LINE
  8
0
 10
-133.257
 20
203.552
 11
-133.326
 21
203.337
  0
LINE
  8
0
 10
-133.326
 20
203.337
 11
-133.423
 21
203.133
  0
LINE
  8
0
 10
-133.423
 20
203.133
 11
-133.544
 21
202.942
  0
LINE
  8
0
 10
-133.544
 20
202.942
 11
-133.688
 21
202.768
  0
LINE
  8
0
 10
-133.688
 20
202.768
 11
-133.853
 21
202.613
  0
LINE
  8
0
 10
-133.853
 20
202.613
 11
-134.036
 21
202.48
  0
LINE
  8
0
 10
-134.036
 20
202.48
 11
-134.234
 21
202.371
  0
LINE
  8
0
 10
-134.234
 20
202.371
 11
-134.444
 21
202.288
  0
LINE
  8
0
 10
-134.444
 20
202.288
 11
-134.663
 21
202.232
  0
LINE
  8
0
 10
-134.663
 20
202.232
 11
-134.887
 21
202.204
  0
LINE
  8
0
 10
-134.887
 20
202.204
 11
-135.113
 21
202.204
  0
LINE
  8
0
 10
134.887
 20
202.204
 11
134.663
 21
202.232
  0
LINE
  8
0
 10
134.663
 20
202.232
 11
134.444
 21
202.288
  0
LINE
  8
0
 10
134.444
 20
202.288
 11
134.234
 21
202.371
  0
LINE
  8
0
 10
134.234
 20
202.371
 11
134.036
 21
202.48
  0
LINE
  8
0
 10
134.036
 20
202.48
 11
133.853
 21
202.613
  0
LINE
  8
0
 10
133.853
 20
202.613
 11
133.688
 21
202.768
  0
LINE
  8
0
 10
133.688
 20
202.768
 11
133.544
 21
202.942
  0
LINE
  8
0
 10
133.544
 20
202.942
 11
133.423
 21
203.133
  0
LINE
  8
0
 10
133.423
 20
203.133
 11
133.326
 21
203.337
  0
LINE
  8
0
 10
133.326
 20
203.337
 11
133.257
 21
203.552
  0
LINE
  8
0
 10
133.257
 20
203.552
 11
133.214
 21
203.774
  0
LINE
  8
0
 10
133.214
 20
203.774
 11
133.2
 21
204
  0
LINE
  8
0
 10
133.2
 20
204
 11
133.214
 21
204.226
  0
LINE
  8
0
 10
133.214
 20
204.226
 11
133.257
 21
204.448
  0
LINE
  8
0
 10
133.257
 20
204.448
 11
133.326
 21
204.663
  0
LINE
  8
0
 10
133.326
 20
204.663
 11
133.423
 21
204.867
  0
LINE
  8
0
 10
133.423
 20
204.867
 11
133.544
 21
205.058
  0
LINE
  8
0
 10
133.544
 20
205.058
 11
133.688
 21
205.232
  0
LINE
  8
0
 10
133.688
 20
205.232
 11
133.853
 21
205.387
  0
LINE
  8
0
 10
133.853
 20
205.387
 11
134.036
 21
205.52
  0
LINE
  8
0
 10
134.036
 20
205.52
 11
134.234
 21
205.629
  0
LINE
  8
0
 10
134.234
 20
205.629
 11
134.444
 21
205.712
  0
LINE
  8
0
 10
134.444
 20
205.712
 11
134.663
 21
205.768
  0
LINE
  8
0
 10
134.663
 20
205.768
 11
134.887
 21
205.796
  0
LINE
  8
0
 10
134.887
 20
205.796
 11
135.113
 21
205.796
  0
LINE
  8
0
 10
135.113
 20
205.796
 11
135.337
 21
205.768
  0
LINE
  8
0
 10
135.337
 20
205.768
 11
135.556
 21
205.712
  0
LINE
  8
0
 10
135.556
 20
205.712
 11
135.766
 21
205.629
  0
LINE
  8
0
 10
135.766
 20
205.629
 11
135.964
 21
205.52
  0
LINE
  8
0
 10
135.964
 20
205.52
 11
136.147
 21
205.387
  0
LINE
  8
0
 10
136.147
 20
205.387
 11
136.312
 21
205.232
  0
LINE
  8
0
 10
136.312
 20
205.232
 11
136.456
 21
205.058
  0
LINE
  8
0
 10
136.456
 20
205.058
 11
136.577
 21
204.867
  0
LINE
  8
0
 10
136.577
 20
204.867
 11
136.674
 21
204.663
  0
LINE
  8
0
 10
136.674
 20
204.663
 11
136.743
 21
204.448
  0
LINE
  8
0
 10
136.743
 20
204.448
 11
136.786
 21
204.226
  0
LINE
  8
0
 10
136.786
 20
204.226
 11
136.8
 21
204
  0
LINE
  8
0
 10
136.8
 20
204
 11
136.786
 21
203.774
  0
LINE
  8
0
 10
136.786
 20
203.774
 11
136.743
 21
203.552
  0
LINE
  8
0
 10
136.743
 20
203.552
 11
136.674
 21
203.337
  0
LINE
  8
0
 10
136.674
 20
203.337
 11
136.577
 21
203.133
  0
LINE
  8
0
 10
136.577
 20
203.133
 11
136.456
 21
202.942
  0
LINE
  8
0
 10
136.456
 20
202.942
 11
136.312
 21
202.768
  0
LINE
  8
0
 10
136.312
 20
202.768
 11
136.147
 21
202.613
  0
LINE
  8
0
 10
136.147
 20
202.613
 11
135.964
 21
202.48
  0
LINE
  8
0
 10
135.964
 20
202.48
 11
135.766
 21
202.371
  0
LINE
  8
0
 10
135.766
 20
202.371
 11
135.556
 21
202.288
  0
LINE
  8
0
 10
135.556
 20
202.288
 11
135.337
 21
202.232
  0
LINE
  8
0
 10
135.337
 20
202.232
 11
135.113
 21
202.204
  0
LINE
  8
0
 10
135.113
 20
202.204
 11
134.887
 21
202.204
  0
LINE
  8
0
 10
134.887
 20
82.2036
 11
134.663
 21
82.2319
  0
LINE
  8
0
 10
134.663
 20
82.2319
 11
134.444
 21
82.2881
  0
LINE
  8
0
 10
134.444
 20
82.2881
 11
134.234
 21
82.3713
  0
LINE
  8
0
 10
134.234
 20
82.3713
 11
134.036
 21
82.4802
  0
LINE
  8
0
 10
134.036
 20
82.4802
 11
133.853
 21
82.6131
  0
LINE
  8
0
 10
133.853
 20
82.6131
 11
133.688
 21
82.7678
  0
LINE
  8
0
 10
133.688
 20
82.7678
 11
133.544
 21
82.942
  0
LINE
  8
0
 10
133.544
 20
82.942
 11
133.423
 21
83.1328
  0
LINE
  8
0
 10
133.423
 20
83.1328
 11
133.326
 21
83.3374
  0
LINE
  8
0
 10
133.326
 20
83.3374
 11
133.257
 21
83.5524
  0
LINE
  8
0
 10
133.257
 20
83.5524
 11
133.214
 21
83.7744
  0
LINE
  8
0
 10
133.214
 20
83.7744
 11
133.2
 21
84
  0
LINE
  8
0
 10
133.2
 20
84
 11
133.214
 21
84.2256
  0
LINE
  8
0
 10
133.214
 20
84.2256
 11
133.257
 21
84.4476
  0
LINE
  8
0
 10
133.257
 20
84.4476
 11
133.326
 21
84.6626
  0
LINE
  8
0
 10
133.326
 20
84.6626
 11
133.423
 21
84.8672
  0
LINE
  8
0
 10
133.423
 20
84.8672
 11
133.544
 21
85.058
  0
LINE
  8
0
 10
133.544
 20
85.058
 11
133.688
 21
85.2322
  0
LINE
  8
0
 10
133.688
 20
85.2322
 11
133.853
 21
85.3869
  0
LINE
  8
0
 10
133.853
 20
85.3869
 11
134.036
 21
85.5198
  0
LINE
  8
0
 10
134.036
 20
85.5198
 11
134.234
 21
85.6287
  0
LINE
  8
0
 10
134.234
 20
85.6287
 11
134.444
 21
85.7119
  0
LINE
  8
0
 10
134.444
 20
85.7119
 11
134.663
 21
85.7681
  0
LINE
  8
0
 10
134.663
 20
85.7681
 11
134.887
 21
85.7964
  0
LINE
  8
0
 10
134.887
 20
85.7964
 11
135.113
 21
85.7964
  0
LINE
  8
0
 10
135.113
 20
85.7964
 11
135.337
 21
85.7681
  0
LINE
  8
0
 10
135.337
 20
85.7681
 11
135.556
 21
85.7119
  0
LINE
  8
0
 10
135.556
 20
85.7119
 11
135.766
 21
85.6287
  0
LINE
  8
0
 10
135.766
 20
85.6287
 11
135.964
 21
85.5198
  0
LINE
  8
0
 10
135.964
 20
85.5198
 11
136.147
 21
85.3869
  0
LINE
  8
0
 10
136.147
 20
85.3869
 11
136.312
 21
85.2322
  0
LINE
  8
0
 10
136.312
 20
85.2322
 11
136.456
 21
85.058
  0
LINE
  8
0
 10
136.456
 20
85.058
 11
136.577
 21
84.8672
  0
LINE
  8
0
 10
136.577
 20
84.8672
 11
136.674
 21
84.6626
  0
LINE
  8
0
 10
136.674
 20
84.6626
 11
136.743
 21
84.4476
  0
LINE
  8
0
 10
136.743
 20
84.4476
 11
136.786
 21
84.2256
  0
LINE
  8
0
 10
136.786
 20
84.2256
 11
136.8
 21
84
  0
LINE
  8
0
 10
136.8
 20
84
 11
136.786
 21
83.7744
  0
LINE
  8
0
 10
136.786
 20
83.7744
 11
136.743
 21
83.5524
  0
LINE
  8
0
 10
136.743
 20
83.5524
 11
136.674
 21
83.3374
  0
LINE
  8
0
 10
136.674
 20
83.3374
 11
136.577
 21
83.1328
  0
LINE
  8
0
 10
136.577
 20
83.1328
 11
136.456
 21
82.942
  0
LINE
  8
0
 10
136.456
 20
82.942
 11
136.312
 21
82.7678
  0
LINE
  8
0
 10
136.312
 20
82.7678
 11
136.147
 21
82.6131
  0
LINE
  8
0
 10
136.147
 20
82.6131
 11
135.964
 21
82.4802
  0
LINE
  8
0
 10
135.964
 20
82.4802
 11
135.766
 21
82.3713
  0
LINE
  8
0
 10
135.766
 20
82.3713
 11
135.556
 21
82.2881
  0
LINE
  8
0
 10
135.556
 20
82.2881
 11
135.337
 21
82.2319
  0
LINE
  8
0
 10
135.337
 20
82.2319
 11
135.113
 21
82.2036
  0
LINE
  8
0
 10
135.113
 20
82.2036
 11
134.887
 21
82.2036
  0
LINE
  8
0
 10
-135.113
 20
82.2036
 11
-135.337
 21
82.2319
  0
LINE
  8
0
 10
-135.337
 20
82.2319
 11
-135.556
 21
82.2881
  0
LINE
  8
0
 10
-135.556
 20
82.2881
 11
-135.766
 21
82.3713
  0
LINE
  8
0
 10
-135.766
 20
82.3713
 11
-135.964
 21
82.4802
  0
LINE
  8
0
 10
-135.964
 20
82.4802
 11
-136.147
 21
82.6131
  0
LINE
  8
0
 10
-136.147
 20
82.6131
 11
-136.312
 21
82.7678
  0
LINE
  8
0
 10
-136.312
 20
82.7678
 11
-136.456
 21
82.942
  0
LINE
  8
0
 10
-136.456
 20
82.942
 11
-136.577
 21
83.1328
  0
LINE
  8
0
 10
-136.577
 20
83.1328
 11
-136.674
 21
83.3374
  0
LINE
  8
0
 10
-136.674
 20
83.3374
 11
-136.743
 21
83.5524
  0
LINE
  8
0
 10
-136.743
 20
83.5524
 11
-136.786
 21
83.7744
  0
LINE
  8
0
 10
-136.786
 20
83.7744
 11
-136.8
 21
84
  0
LINE
  8
0
 10
-136.8
 20
84
 11
-136.786
 21
84.2256
  0
LINE
  8
0
 10
-136.786
 20
84.2256
 11
-136.743
 21
84.4476
  0
LINE
  8
0
 10
-136.743
 20
84.4476
 11
-136.674
 21
84.6626
  0
LINE
  8
0
 10
-136.674
 20
84.6626
 11
-136.577
 21
84.8672
  0
LINE
  8
0
 10
-136.577
 20
84.8672
 11
-136.456
 21
85.058
  0
LINE
  8
0
 10
-136.456
 20
85.058
 11
-136.312
 21
85.2322
  0
LINE
  8
0
 10
-136.312
 20
85.2322
 11
-136.147
 21
85.3869
  0
LINE
  8
0
 10
-136.147
 20
85.3869
 11
-135.964
 21
85.5198
  0
LINE
  8
0
 10
-135.964
 20
85.5198
 11
-135.766
 21
85.6287
  0
LINE
  8
0
 10
-135.766
 20
85.6287
 11
-135.556
 21
85.7119
  0
LINE
  8
0
 10
-135.556
 20
85.7119
 11
-135.337
 21
85.7681
  0
LINE
  8
0
 10
-135.337
 20
85.7681
 11
-135.113
 21
85.7964
  0
LINE
  8
0
 10
-135.113
 20
85.7964
 11
-134.887
 21
85.7964
  0
LINE
  8
0
 10
-134.887
 20
85.7964
 11
-134.663
 21
85.7681
  0
LINE
  8
0
 10
-134.663
 20
85.7681
 11
-134.444
 21
85.7119
  0
LINE
  8
0
 10
-134.444
 20
85.7119
 11
-134.234
 21
85.6287
  0
LINE
  8
0
 10
-134.234
 20
85.6287
 11
-134.036
 21
85.5198
  0
LINE
  8
0
 10
-134.036
 20
85.5198
 11
-133.853
 21
85.3869
  0
LINE
  8
0
 10
-133.853
 20
85.3869
 11
-133.688
 21
85.2322
  0
LINE
  8
0
 10
-133.688
 20
85.2322
 11
-133.544
 21
85.058
  0
LINE
  8
0
 10
-133.544
 20
85.058
 11
-133.423
 21
84.8672
  0
LINE
  8
0
 10
-133.423
 20
84.8672
 11
-133.326
 21
84.6626
  0
LINE
  8
0
 10
-133.326
 20
84.6626
 11
-133.257
 21
84.4476
  0
LINE
  8
0
 10
-133.257
 20
84.4476
 11
-133.214
 21
84.2256
  0
LINE
  8
0
 10
-133.214
 20
84.2256
 11
-133.2
 21
84
  0
LINE
  8
0
 10
-133.2
 20
84
 11
-133.214
 21
83.7744
  0
LINE
  8
0
 10
-133.214
 20
83.7744
 11
-133.257
 21
83.5524
  0
LINE
  8
0
 10
-133.257
 20
83.5524
 11
-133.326
 21
83.3374
  0
LINE
  8
0
 10
-133.326
 20
83.3374
 11
-133.423
 21
83.1328
  0
LINE
  8
0
 10
-133.423
 20
83.1328
 11
-133.544
 21
82.942
  0
LINE
  8
0
 10
-133.544
 20
82.942
 11
-133.688
 21
82.7678
  0
LINE
  8
0
 10
-133.688
 20
82.7678
 11
-133.853
 21
82.6131
  0
LINE
  8
0
 10
-133.853
 20
82.6131
 11
-134.036
 21
82.4802
  0
LINE
  8
0
 10
-134.036
 20
82.4802
 11
-134.234
 21
82.3713
  0
LINE
  8
0
 10
-134.234
 20
82.3713
 11
-134.444
 21
82.2881
  0
LINE
  8
0
 10
-134.444
 20
82.2881
 11
-134.663
 21
82.2319
  0
LINE
  8
0
 10
-134.663
 20
82.2319
 11
-134.887
 21
82.2036
  0
LINE
  8
0
 10
-134.887
 20
82.2036
 11
-135.113
 21
82.2036
  0
ENDSEC
  0
SECTION
  2
OBJECTS
  0
DICTIONARY
  0
ENDSEC
  0
EOF
