<?xml version="1.0" standalone="no"?>
<!DOCTYPE svg PUBLIC "-//W3C//DTD SVG 1.1//EN" "http://www.w3.org/Graphics/SVG/1.1/DTD/svg11.dtd">
<svg width="257mm" height="88mm" viewBox="-129 -176 257 88" xmlns="http://www.w3.org/2000/svg" version="1.1">
<title>OpenSCAD Model</title>
<path d="
M -126,-161.941 L -125.687,-161.647 L -125.179,-161.278 L -124.629,-160.976 L -124.045,-160.745 L -123.437,-160.589
 L -122.814,-160.51 L 122.814,-160.51 L 123.437,-160.589 L 124.045,-160.745 L 124.629,-160.976 L 125.179,-161.278
 L 125.687,-161.647 L 126.145,-162.077 L 126.545,-162.561 L 126.882,-163.091 L 127.149,-163.659 L 127.343,-164.257
 L 127.461,-164.873 L 127.5,-165.5 L 127.5,-170.5 L 127.461,-171.127 L 127.343,-171.743 L 127.149,-172.341
 L 126.882,-172.909 L 126.545,-173.439 L 126.145,-173.923 L 125.687,-174.353 L 125.179,-174.722 L 124.629,-175.024
 L 124.045,-175.255 L 123.437,-175.411 L 122.814,-175.49 L -122.814,-175.49 L -123.437,-175.411 L -124.045,-175.255
 L -124.629,-175.024 L -125.179,-174.722 L -125.687,-174.353 L -126,-174.059 L -126,-175.49 L -129,-175.49
 L -129,-160.51 L -126,-160.51 z
M -122.251,-162.008 L -122.75,-162.071 L -123.236,-162.196 L -123.703,-162.381 L -124.143,-162.623 L -124.55,-162.918
 L -124.916,-163.262 L -125.236,-163.649 L -125.505,-164.073 L -125.719,-164.528 L -125.874,-165.005 L -125.968,-165.499
 L -126,-166 L -126,-170 L -125.968,-170.501 L -125.874,-170.995 L -125.719,-171.472 L -125.505,-171.927
 L -125.236,-172.351 L -124.916,-172.738 L -124.55,-173.082 L -124.143,-173.377 L -123.703,-173.619 L -123.236,-173.804
 L -122.75,-173.929 L -122.251,-173.992 L 122.251,-173.992 L 122.75,-173.929 L 123.236,-173.804 L 123.703,-173.619
 L 124.143,-173.377 L 124.55,-173.082 L 124.916,-172.738 L 125.236,-172.351 L 125.505,-171.927 L 125.719,-171.472
 L 125.874,-170.995 L 125.968,-170.501 L 126,-170 L 126,-166 L 125.968,-165.499 L 125.874,-165.005
 L 125.719,-164.528 L 125.505,-164.073 L 125.236,-163.649 L 124.916,-163.262 L 124.55,-162.918 L 124.143,-162.623
 L 123.703,-162.381 L 123.236,-162.196 L 122.75,-162.071 L 122.251,-162.008 z
M -126,-137.941 L -125.687,-137.647 L -125.179,-137.278 L -124.629,-136.976 L -124.045,-136.745 L -123.437,-136.589
 L -122.814,-136.51 L 122.814,-136.51 L 123.437,-136.589 L 124.045,-136.745 L 124.629,-136.976 L 125.179,-137.278
 L 125.687,-137.647 L 126.145,-138.077 L 126.545,-138.561 L 126.882,-139.091 L 127.149,-139.659 L 127.343,-140.257
 L 127.461,-140.873 L 127.5,-141.5 L 127.5,-146.5 L 127.461,-147.127 L 127.343,-147.743 L 127.149,-148.341
 L 126.882,-148.909 L 126.545,-149.439 L 126.145,-149.923 L 125.687,-150.353 L 125.179,-150.722 L 124.629,-151.024
 L 124.045,-151.255 L 123.437,-151.411 L 122.814,-151.49 L -122.814,-151.49 L -123.437,-151.411 L -124.045,-151.255
 L -124.629,-151.024 L -125.179,-150.722 L -125.687,-150.353 L -126,-150.059 L -126,-151.49 L -129,-151.49
 L -129,-136.51 L -126,-136.51 z
M -122.251,-138.008 L -122.75,-138.071 L -123.236,-138.196 L -123.703,-138.381 L -124.143,-138.623 L -124.55,-138.918
 L -124.916,-139.262 L -125.236,-139.649 L -125.505,-140.073 L -125.719,-140.528 L -125.874,-141.005 L -125.968,-141.499
 L -126,-142 L -126,-146 L -125.968,-146.501 L -125.874,-146.995 L -125.719,-147.472 L -125.505,-147.927
 L -125.236,-148.351 L -124.916,-148.738 L -124.55,-149.082 L -124.143,-149.377 L -123.703,-149.619 L -123.236,-149.804
 L -122.75,-149.929 L -122.251,-149.992 L 122.251,-149.992 L 122.75,-149.929 L 123.236,-149.804 L 123.703,-149.619
 L 124.143,-149.377 L 124.55,-149.082 L 124.916,-148.738 L 125.236,-148.351 L 125.505,-147.927 L 125.719,-147.472
 L 125.874,-146.995 L 125.968,-146.501 L 126,-146 L 126,-142 L 125.968,-141.499 L 125.874,-141.005
 L 125.719,-140.528 L 125.505,-140.073 L 125.236,-139.649 L 124.916,-139.262 L 124.55,-138.918 L 124.143,-138.623
 L 123.703,-138.381 L 123.236,-138.196 L 122.75,-138.071 L 122.251,-138.008 z
M 123.437,-112.589 L 124.045,-112.745 L 124.629,-112.976 L 125.179,-113.278 L 125.687,-113.647 L 126.145,-114.077
 L 126.545,-114.561 L 126.882,-115.091 L 127.149,-115.659 L 127.343,-116.257 L 127.461,-116.873 L 127.5,-117.5
 L 127.5,-122.5 L 127.461,-123.127 L 127.343,-123.743 L 127.149,-124.341 L 126.882,-124.909 L 126.545,-125.439
 L 126.145,-125.923 L 125.687,-126.353 L 125.179,-126.722 L 124.629,-127.024 L 124.045,-127.255 L 123.437,-127.411
 L 122.814,-127.49 L -122.814,-127.49 L -123.437,-127.411 L -124.045,-127.255 L -124.629,-127.024 L -125.179,-126.722
 L -125.687,-126.353 L -126,-126.059 L -126,-127.479 L -129,-127.479 L -129,-112.521 L -126,-112.521
 L -126,-113.941 L -125.687,-113.647 L -125.179,-113.278 L -124.629,-112.976 L -124.045,-112.745 L -123.437,-112.589
 L -122.814,-112.51 L 122.814,-112.51 z
M -122.195,-114.893 L -122.583,-114.942 L -122.962,-115.039 L -123.325,-115.183 L -123.668,-115.372 L -123.984,-115.601
 L -124.269,-115.869 L -124.518,-116.17 L -124.728,-116.5 L -124.894,-116.854 L -125.015,-117.226 L -125.088,-117.61
 L -125.113,-118 L -125.113,-122 L -125.088,-122.39 L -125.015,-122.774 L -124.894,-123.146 L -124.728,-123.5
 L -124.518,-123.83 L -124.269,-124.131 L -123.984,-124.399 L -123.668,-124.628 L -123.325,-124.817 L -122.962,-124.961
 L -122.583,-125.058 L -122.195,-125.107 L 122.195,-125.107 L 122.583,-125.058 L 122.962,-124.961 L 123.325,-124.817
 L 123.668,-124.628 L 123.984,-124.399 L 124.269,-124.131 L 124.518,-123.83 L 124.728,-123.5 L 124.894,-123.146
 L 125.015,-122.774 L 125.088,-122.39 L 125.113,-122 L 125.113,-118 L 125.088,-117.61 L 125.015,-117.226
 L 124.894,-116.854 L 124.728,-116.5 L 124.518,-116.17 L 124.269,-115.869 L 123.984,-115.601 L 123.668,-115.372
 L 123.325,-115.183 L 122.962,-115.039 L 122.583,-114.942 L 122.195,-114.893 z
M 123.437,-88.5886 L 124.045,-88.7447 L 124.629,-88.9759 L 125.179,-89.2784 L 125.687,-89.6474 L 126.145,-90.0773
 L 126.545,-90.5611 L 126.882,-91.0912 L 127.149,-91.6594 L 127.343,-92.2566 L 127.461,-92.8733 L 127.5,-93.5
 L 127.5,-98.5 L 127.461,-99.1267 L 127.343,-99.7434 L 127.149,-100.341 L 126.882,-100.909 L 126.545,-101.439
 L 126.145,-101.923 L 125.687,-102.353 L 125.179,-102.722 L 124.629,-103.024 L 124.045,-103.255 L 123.437,-103.411
 L 122.814,-103.49 L -122.814,-103.49 L -123.437,-103.411 L -124.045,-103.255 L -124.629,-103.024 L -125.179,-102.722
 L -125.687,-102.353 L -126,-102.059 L -126,-102.153 L -129,-102.153 L -129,-89.8474 L -126,-89.8474
 L -126,-89.9413 L -125.687,-89.6474 L -125.179,-89.2784 L -124.629,-88.9759 L -124.045,-88.7447 L -123.437,-88.5886
 L -122.814,-88.5099 L 122.814,-88.5099 z
M -120.134,-93.8689 L -120.4,-93.9025 L -120.66,-93.9692 L -120.909,-94.0679 L -121.144,-94.1971 L -121.361,-94.3547
 L -121.557,-94.5383 L -121.727,-94.7449 L -121.871,-94.9713 L -121.985,-95.214 L -122.068,-95.469 L -122.118,-95.7324
 L -122.135,-96 L -122.118,-96.2676 L -122.068,-96.531 L -121.985,-96.786 L -121.871,-97.0287 L -121.727,-97.2551
 L -121.557,-97.4617 L -121.361,-97.6453 L -121.144,-97.8029 L -120.909,-97.9321 L -120.66,-98.0308 L -120.4,-98.0975
 L -120.134,-98.1311 L -119.866,-98.1311 L -119.6,-98.0975 L -119.34,-98.0308 L -119.091,-97.9321 L -118.856,-97.8029
 L -118.639,-97.6453 L -118.443,-97.4617 L -118.273,-97.2551 L -118.129,-97.0287 L -118.015,-96.786 L -117.932,-96.531
 L -117.882,-96.2676 L -117.865,-96 L -117.882,-95.7324 L -117.932,-95.469 L -118.015,-95.214 L -118.129,-94.9713
 L -118.273,-94.7449 L -118.443,-94.5383 L -118.639,-94.3547 L -118.856,-94.1971 L -119.091,-94.0679 L -119.34,-93.9692
 L -119.6,-93.9025 L -119.866,-93.8689 z
M 119.866,-93.8689 L 119.6,-93.9025 L 119.34,-93.9692 L 119.091,-94.0679 L 118.856,-94.1971 L 118.639,-94.3547
 L 118.443,-94.5383 L 118.273,-94.7449 L 118.129,-94.9713 L 118.015,-95.214 L 117.932,-95.469 L 117.882,-95.7324
 L 117.865,-96 L 117.882,-96.2676 L 117.932,-96.531 L 118.015,-96.786 L 118.129,-97.0287 L 118.273,-97.2551
 L 118.443,-97.4617 L 118.639,-97.6453 L 118.856,-97.8029 L 119.091,-97.9321 L 119.34,-98.0308 L 119.6,-98.0975
 L 119.866,-98.1311 L 120.134,-98.1311 L 120.4,-98.0975 L 120.66,-98.0308 L 120.909,-97.9321 L 121.144,-97.8029
 L 121.361,-97.6453 L 121.557,-97.4617 L 121.727,-97.2551 L 121.871,-97.0287 L 121.985,-96.786 L 122.068,-96.531
 L 122.118,-96.2676 L 122.135,-96 L 122.118,-95.7324 L 122.068,-95.469 L 121.985,-95.214 L 121.871,-94.9713
 L 121.727,-94.7449 L 121.557,-94.5383 L 121.361,-94.3547 L 121.144,-94.1971 L 120.909,-94.0679 L 120.66,-93.9692
 L 120.4,-93.9025 L 120.134,-93.8689 z
" stroke="black" fill="lightgray" stroke-width="0.5"/>
</svg>
