<?xml version="1.0" standalone="no"?>
<!DOCTYPE svg PUBLIC "-//W3C//DTD SVG 1.1//EN" "http://www.w3.org/Graphics/SVG/1.1/DTD/svg11.dtd">
<svg width="272mm" height="108mm" viewBox="-137 -210 272 108" xmlns="http://www.w3.org/2000/svg" version="1.1">
<title>OpenSCAD Model</title>
<path d="
M -133.5,-181.441 L -133.187,-181.147 L -132.679,-180.778 L -132.129,-180.476 L -131.545,-180.245 L -130.937,-180.089
 L -130.314,-180.01 L 130.314,-180.01 L 130.937,-180.089 L 131.545,-180.245 L 132.129,-180.476 L 132.679,-180.778
 L 133.187,-181.147 L 133.645,-181.577 L 134.045,-182.061 L 134.382,-182.591 L 134.649,-183.159 L 134.843,-183.757
 L 134.961,-184.373 L 135,-185 L 135,-205 L 134.961,-205.627 L 134.843,-206.243 L 134.649,-206.841
 L 134.382,-207.409 L 134.045,-207.939 L 133.645,-208.423 L 133.187,-208.853 L 132.679,-209.222 L 132.129,-209.524
 L 131.545,-209.755 L 130.937,-209.911 L 130.314,-209.99 L -130.314,-209.99 L -130.937,-209.911 L -131.545,-209.755
 L -132.129,-209.524 L -132.679,-209.222 L -133.187,-208.853 L -133.5,-208.559 L -133.5,-209.99 L -136.5,-209.99
 L -136.5,-180.01 L -133.5,-180.01 z
M -129.751,-181.508 L -130.25,-181.571 L -130.736,-181.696 L -131.203,-181.881 L -131.643,-182.123 L -132.05,-182.418
 L -132.416,-182.762 L -132.736,-183.149 L -133.005,-183.573 L -133.219,-184.028 L -133.374,-184.505 L -133.468,-184.999
 L -133.5,-185.5 L -133.5,-204.5 L -133.468,-205.001 L -133.374,-205.495 L -133.219,-205.972 L -133.005,-206.427
 L -132.736,-206.851 L -132.416,-207.238 L -132.05,-207.582 L -131.643,-207.877 L -131.203,-208.119 L -130.736,-208.304
 L -130.25,-208.429 L -129.751,-208.492 L 129.751,-208.492 L 130.25,-208.429 L 130.736,-208.304 L 131.203,-208.119
 L 131.643,-207.877 L 132.05,-207.582 L 132.416,-207.238 L 132.736,-206.851 L 133.005,-206.427 L 133.219,-205.972
 L 133.374,-205.495 L 133.468,-205.001 L 133.5,-204.5 L 133.5,-185.5 L 133.468,-184.999 L 133.374,-184.505
 L 133.219,-184.028 L 133.005,-183.573 L 132.736,-183.149 L 132.416,-182.762 L 132.05,-182.418 L 131.643,-182.123
 L 131.203,-181.881 L 130.736,-181.696 L 130.25,-181.571 L 129.751,-181.508 z
M 130.937,-141.089 L 131.545,-141.245 L 132.129,-141.476 L 132.679,-141.778 L 133.187,-142.147 L 133.645,-142.577
 L 134.045,-143.061 L 134.382,-143.591 L 134.649,-144.159 L 134.843,-144.757 L 134.961,-145.373 L 135,-146
 L 135,-166 L 134.961,-166.627 L 134.843,-167.243 L 134.649,-167.841 L 134.382,-168.409 L 134.045,-168.939
 L 133.645,-169.423 L 133.187,-169.853 L 132.679,-170.222 L 132.129,-170.524 L 131.545,-170.755 L 130.937,-170.911
 L 130.314,-170.99 L -130.314,-170.99 L -130.937,-170.911 L -131.545,-170.755 L -132.129,-170.524 L -132.679,-170.222
 L -133.187,-169.853 L -133.5,-169.559 L -133.5,-170.979 L -136.5,-170.979 L -136.5,-141.021 L -133.5,-141.021
 L -133.5,-142.441 L -133.187,-142.147 L -132.679,-141.778 L -132.129,-141.476 L -131.545,-141.245 L -130.937,-141.089
 L -130.314,-141.01 L 130.314,-141.01 z
M -129.695,-143.393 L -130.083,-143.442 L -130.462,-143.539 L -130.825,-143.683 L -131.168,-143.872 L -131.484,-144.101
 L -131.769,-144.369 L -132.018,-144.67 L -132.228,-145 L -132.394,-145.354 L -132.515,-145.726 L -132.588,-146.11
 L -132.613,-146.5 L -132.613,-165.5 L -132.588,-165.89 L -132.515,-166.274 L -132.394,-166.646 L -132.228,-167
 L -132.018,-167.33 L -131.769,-167.631 L -131.484,-167.899 L -131.168,-168.128 L -130.825,-168.317 L -130.462,-168.461
 L -130.083,-168.558 L -129.695,-168.607 L 129.695,-168.607 L 130.083,-168.558 L 130.462,-168.461 L 130.825,-168.317
 L 131.168,-168.128 L 131.484,-167.899 L 131.769,-167.631 L 132.018,-167.33 L 132.228,-167 L 132.394,-166.646
 L 132.515,-166.274 L 132.588,-165.89 L 132.613,-165.5 L 132.613,-146.5 L 132.588,-146.11 L 132.515,-145.726
 L 132.394,-145.354 L 132.228,-145 L 132.018,-144.67 L 131.769,-144.369 L 131.484,-144.101 L 131.168,-143.872
 L 130.825,-143.683 L 130.462,-143.539 L 130.083,-143.442 L 129.695,-143.393 z
M 130.937,-102.089 L 131.545,-102.245 L 132.129,-102.476 L 132.679,-102.778 L 133.187,-103.147 L 133.645,-103.577
 L 134.045,-104.061 L 134.382,-104.591 L 134.649,-105.159 L 134.843,-105.757 L 134.961,-106.373 L 135,-107
 L 135,-127 L 134.961,-127.627 L 134.843,-128.243 L 134.649,-128.841 L 134.382,-129.409 L 134.045,-129.939
 L 133.645,-130.423 L 133.187,-130.853 L 132.679,-131.222 L 132.129,-131.524 L 131.545,-131.755 L 130.937,-131.911
 L 130.314,-131.99 L -130.314,-131.99 L -130.937,-131.911 L -131.545,-131.755 L -132.129,-131.524 L -132.679,-131.222
 L -133.187,-130.853 L -133.5,-130.559 L -133.5,-130.653 L -136.5,-130.653 L -136.5,-103.347 L -133.5,-103.347
 L -133.5,-103.441 L -133.187,-103.147 L -132.679,-102.778 L -132.129,-102.476 L -131.545,-102.245 L -130.937,-102.089
 L -130.314,-102.01 L 130.314,-102.01 z
M 127.366,-122.369 L 127.1,-122.403 L 126.84,-122.469 L 126.591,-122.568 L 126.356,-122.697 L 126.139,-122.855
 L 125.943,-123.038 L 125.773,-123.245 L 125.629,-123.471 L 125.515,-123.714 L 125.432,-123.969 L 125.382,-124.232
 L 125.365,-124.5 L 125.382,-124.768 L 125.432,-125.031 L 125.515,-125.286 L 125.629,-125.529 L 125.773,-125.755
 L 125.943,-125.962 L 126.139,-126.145 L 126.356,-126.303 L 126.591,-126.432 L 126.84,-126.531 L 127.1,-126.597
 L 127.366,-126.631 L 127.634,-126.631 L 127.9,-126.597 L 128.16,-126.531 L 128.409,-126.432 L 128.644,-126.303
 L 128.861,-126.145 L 129.057,-125.962 L 129.227,-125.755 L 129.371,-125.529 L 129.485,-125.286 L 129.568,-125.031
 L 129.618,-124.768 L 129.635,-124.5 L 129.618,-124.232 L 129.568,-123.969 L 129.485,-123.714 L 129.371,-123.471
 L 129.227,-123.245 L 129.057,-123.038 L 128.861,-122.855 L 128.644,-122.697 L 128.409,-122.568 L 128.16,-122.469
 L 127.9,-122.403 L 127.634,-122.369 z
M -127.634,-122.369 L -127.9,-122.403 L -128.16,-122.469 L -128.409,-122.568 L -128.644,-122.697 L -128.861,-122.855
 L -129.057,-123.038 L -129.227,-123.245 L -129.371,-123.471 L -129.485,-123.714 L -129.568,-123.969 L -129.618,-124.232
 L -129.635,-124.5 L -129.618,-124.768 L -129.568,-125.031 L -129.485,-125.286 L -129.371,-125.529 L -129.227,-125.755
 L -129.057,-125.962 L -128.861,-126.145 L -128.644,-126.303 L -128.409,-126.432 L -128.16,-126.531 L -127.9,-126.597
 L -127.634,-126.631 L -127.366,-126.631 L -127.1,-126.597 L -126.84,-126.531 L -126.591,-126.432 L -126.356,-126.303
 L -126.139,-126.145 L -125.943,-125.962 L -125.773,-125.755 L -125.629,-125.529 L -125.515,-125.286 L -125.432,-125.031
 L -125.382,-124.768 L -125.365,-124.5 L -125.382,-124.232 L -125.432,-123.969 L -125.515,-123.714 L -125.629,-123.471
 L -125.773,-123.245 L -125.943,-123.038 L -126.139,-122.855 L -126.356,-122.697 L -126.591,-122.568 L -126.84,-122.469
 L -127.1,-122.403 L -127.366,-122.369 z
M 127.366,-107.369 L 127.1,-107.403 L 126.84,-107.469 L 126.591,-107.568 L 126.356,-107.697 L 126.139,-107.855
 L 125.943,-108.038 L 125.773,-108.245 L 125.629,-108.471 L 125.515,-108.714 L 125.432,-108.969 L 125.382,-109.232
 L 125.365,-109.5 L 125.382,-109.768 L 125.432,-110.031 L 125.515,-110.286 L 125.629,-110.529 L 125.773,-110.755
 L 125.943,-110.962 L 126.139,-111.145 L 126.356,-111.303 L 126.591,-111.432 L 126.84,-111.531 L 127.1,-111.597
 L 127.366,-111.631 L 127.634,-111.631 L 127.9,-111.597 L 128.16,-111.531 L 128.409,-111.432 L 128.644,-111.303
 L 128.861,-111.145 L 129.057,-110.962 L 129.227,-110.755 L 129.371,-110.529 L 129.485,-110.286 L 129.568,-110.031
 L 129.618,-109.768 L 129.635,-109.5 L 129.618,-109.232 L 129.568,-108.969 L 129.485,-108.714 L 129.371,-108.471
 L 129.227,-108.245 L 129.057,-108.038 L 128.861,-107.855 L 128.644,-107.697 L 128.409,-107.568 L 128.16,-107.469
 L 127.9,-107.403 L 127.634,-107.369 z
M -127.634,-107.369 L -127.9,-107.403 L -128.16,-107.469 L -128.409,-107.568 L -128.644,-107.697 L -128.861,-107.855
 L -129.057,-108.038 L -129.227,-108.245 L -129.371,-108.471 L -129.485,-108.714 L -129.568,-108.969 L -129.618,-109.232
 L -129.635,-109.5 L -129.618,-109.768 L -129.568,-110.031 L -129.485,-110.286 L -129.371,-110.529 L -129.227,-110.755
 L -129.057,-110.962 L -128.861,-111.145 L -128.644,-111.303 L -128.409,-111.432 L -128.16,-111.531 L -127.9,-111.597
 L -127.634,-111.631 L -127.366,-111.631 L -127.1,-111.597 L -126.84,-111.531 L -126.591,-111.432 L -126.356,-111.303
 L -126.139,-111.145 L -125.943,-110.962 L -125.773,-110.755 L -125.629,-110.529 L -125.515,-110.286 L -125.432,-110.031
 L -125.382,-109.768 L -125.365,-109.5 L -125.382,-109.232 L -125.432,-108.969 L -125.515,-108.714 L -125.629,-108.471
 L -125.773,-108.245 L -125.943,-108.038 L -126.139,-107.855 L -126.356,-107.697 L -126.591,-107.568 L -126.84,-107.469
 L -127.1,-107.403 L -127.366,-107.369 z
" stroke="black" fill="lightgray" stroke-width="0.5"/>
</svg>
