<?xml version="1.0" standalone="no"?>
<!DOCTYPE svg PUBLIC "-//W3C//DTD SVG 1.1//EN" "http://www.w3.org/Graphics/SVG/1.1/DTD/svg11.dtd">
<svg width="240mm" height="784mm" viewBox="-120 -1448 240 784" xmlns="http://www.w3.org/2000/svg" version="1.1">
<title>OpenSCAD Model</title>
<path d="
M 115.937,-1192.59 L 116.545,-1192.74 L 117.129,-1192.98 L 117.679,-1193.28 L 118.187,-1193.65 L 118.645,-1194.08
 L 119.045,-1194.56 L 119.382,-1195.09 L 119.649,-1195.66 L 119.843,-1196.26 L 119.961,-1196.87 L 120,-1197.5
 L 120,-1442.5 L 119.961,-1443.13 L 119.843,-1443.74 L 119.649,-1444.34 L 119.382,-1444.91 L 119.045,-1445.44
 L 118.645,-1445.92 L 118.187,-1446.35 L 117.679,-1446.72 L 117.129,-1447.02 L 116.545,-1447.26 L 115.937,-1447.41
 L 115.314,-1447.49 L -115.314,-1447.49 L -115.937,-1447.41 L -116.545,-1447.26 L -117.129,-1447.02 L -117.679,-1446.72
 L -118.187,-1446.35 L -118.645,-1445.92 L -119.045,-1445.44 L -119.382,-1444.91 L -119.649,-1444.34 L -119.843,-1443.74
 L -119.961,-1443.13 L -120,-1442.5 L -120,-1197.5 L -119.961,-1196.87 L -119.843,-1196.26 L -119.649,-1195.66
 L -119.382,-1195.09 L -119.045,-1194.56 L -118.645,-1194.08 L -118.187,-1193.65 L -117.679,-1193.28 L -117.129,-1192.98
 L -116.545,-1192.74 L -115.937,-1192.59 L -115.314,-1192.51 L 115.314,-1192.51 z
M -114.751,-1194.01 L -115.25,-1194.07 L -115.736,-1194.2 L -116.203,-1194.38 L -116.643,-1194.62 L -117.05,-1194.92
 L -117.416,-1195.26 L -117.736,-1195.65 L -118.005,-1196.07 L -118.219,-1196.53 L -118.374,-1197.01 L -118.468,-1197.5
 L -118.5,-1198 L -118.5,-1442 L -118.468,-1442.5 L -118.374,-1442.99 L -118.219,-1443.47 L -118.005,-1443.93
 L -117.736,-1444.35 L -117.416,-1444.74 L -117.05,-1445.08 L -116.643,-1445.38 L -116.203,-1445.62 L -115.736,-1445.8
 L -115.25,-1445.93 L -114.751,-1445.99 L 114.751,-1445.99 L 115.25,-1445.93 L 115.736,-1445.8 L 116.203,-1445.62
 L 116.643,-1445.38 L 117.05,-1445.08 L 117.416,-1444.74 L 117.736,-1444.35 L 118.005,-1443.93 L 118.219,-1443.47
 L 118.374,-1442.99 L 118.468,-1442.5 L 118.5,-1442 L 118.5,-1198 L 118.468,-1197.5 L 118.374,-1197.01
 L 118.219,-1196.53 L 118.005,-1196.07 L 117.736,-1195.65 L 117.416,-1195.26 L 117.05,-1194.92 L 116.643,-1194.62
 L 116.203,-1194.38 L 115.736,-1194.2 L 115.25,-1194.07 L 114.751,-1194.01 z
M 115.937,-928.589 L 116.545,-928.745 L 117.129,-928.976 L 117.679,-929.278 L 118.187,-929.647 L 118.645,-930.077
 L 119.045,-930.561 L 119.382,-931.091 L 119.649,-931.659 L 119.843,-932.257 L 119.961,-932.873 L 120,-933.5
 L 120,-1178.5 L 119.961,-1179.13 L 119.843,-1179.74 L 119.649,-1180.34 L 119.382,-1180.91 L 119.045,-1181.44
 L 118.645,-1181.92 L 118.187,-1182.35 L 117.679,-1182.72 L 117.129,-1183.02 L 116.545,-1183.26 L 115.937,-1183.41
 L 115.314,-1183.49 L -115.314,-1183.49 L -115.937,-1183.41 L -116.545,-1183.26 L -117.129,-1183.02 L -117.679,-1182.72
 L -118.187,-1182.35 L -118.645,-1181.92 L -119.045,-1181.44 L -119.382,-1180.91 L -119.649,-1180.34 L -119.843,-1179.74
 L -119.961,-1179.13 L -120,-1178.5 L -120,-933.5 L -119.961,-932.873 L -119.843,-932.257 L -119.649,-931.659
 L -119.382,-931.091 L -119.045,-930.561 L -118.645,-930.077 L -118.187,-929.647 L -117.679,-929.278 L -117.129,-928.976
 L -116.545,-928.745 L -115.937,-928.589 L -115.314,-928.51 L 115.314,-928.51 z
M -114.695,-930.893 L -115.083,-930.942 L -115.462,-931.039 L -115.825,-931.183 L -116.168,-931.372 L -116.484,-931.601
 L -116.769,-931.869 L -117.018,-932.17 L -117.228,-932.5 L -117.394,-932.854 L -117.515,-933.226 L -117.588,-933.61
 L -117.613,-934 L -117.613,-1178 L -117.588,-1178.39 L -117.515,-1178.77 L -117.394,-1179.15 L -117.228,-1179.5
 L -117.018,-1179.83 L -116.769,-1180.13 L -116.484,-1180.4 L -116.168,-1180.63 L -115.825,-1180.82 L -115.462,-1180.96
 L -115.083,-1181.06 L -114.695,-1181.11 L 114.695,-1181.11 L 115.083,-1181.06 L 115.462,-1180.96 L 115.825,-1180.82
 L 116.168,-1180.63 L 116.484,-1180.4 L 116.769,-1180.13 L 117.018,-1179.83 L 117.228,-1179.5 L 117.394,-1179.15
 L 117.515,-1178.77 L 117.588,-1178.39 L 117.613,-1178 L 117.613,-934 L 117.588,-933.61 L 117.515,-933.226
 L 117.394,-932.854 L 117.228,-932.5 L 117.018,-932.17 L 116.769,-931.869 L 116.484,-931.601 L 116.168,-931.372
 L 115.825,-931.183 L 115.462,-931.039 L 115.083,-930.942 L 114.695,-930.893 z
M 115.937,-664.589 L 116.545,-664.745 L 117.129,-664.976 L 117.679,-665.278 L 118.187,-665.647 L 118.645,-666.077
 L 119.045,-666.561 L 119.382,-667.091 L 119.649,-667.659 L 119.843,-668.257 L 119.961,-668.873 L 120,-669.5
 L 120,-914.5 L 119.961,-915.127 L 119.843,-915.743 L 119.649,-916.341 L 119.382,-916.909 L 119.045,-917.439
 L 118.645,-917.923 L 118.187,-918.353 L 117.679,-918.722 L 117.129,-919.024 L 116.545,-919.255 L 115.937,-919.411
 L 115.314,-919.49 L -115.314,-919.49 L -115.937,-919.411 L -116.545,-919.255 L -117.129,-919.024 L -117.679,-918.722
 L -118.187,-918.353 L -118.645,-917.923 L -119.045,-917.439 L -119.382,-916.909 L -119.649,-916.341 L -119.843,-915.743
 L -119.961,-915.127 L -120,-914.5 L -120,-669.5 L -119.961,-668.873 L -119.843,-668.257 L -119.649,-667.659
 L -119.382,-667.091 L -119.045,-666.561 L -118.645,-666.077 L -118.187,-665.647 L -117.679,-665.278 L -117.129,-664.976
 L -116.545,-664.745 L -115.937,-664.589 L -115.314,-664.51 L 115.314,-664.51 z
M 112.366,-909.869 L 112.1,-909.903 L 111.84,-909.969 L 111.591,-910.068 L 111.356,-910.197 L 111.139,-910.355
 L 110.943,-910.538 L 110.773,-910.745 L 110.629,-910.971 L 110.515,-911.214 L 110.432,-911.469 L 110.382,-911.732
 L 110.365,-912 L 110.382,-912.268 L 110.432,-912.531 L 110.515,-912.786 L 110.629,-913.029 L 110.773,-913.255
 L 110.943,-913.462 L 111.139,-913.645 L 111.356,-913.803 L 111.591,-913.932 L 111.84,-914.031 L 112.1,-914.097
 L 112.366,-914.131 L 112.634,-914.131 L 112.9,-914.097 L 113.16,-914.031 L 113.409,-913.932 L 113.644,-913.803
 L 113.861,-913.645 L 114.057,-913.462 L 114.227,-913.255 L 114.371,-913.029 L 114.485,-912.786 L 114.568,-912.531
 L 114.618,-912.268 L 114.635,-912 L 114.618,-911.732 L 114.568,-911.469 L 114.485,-911.214 L 114.371,-910.971
 L 114.227,-910.745 L 114.057,-910.538 L 113.861,-910.355 L 113.644,-910.197 L 113.409,-910.068 L 113.16,-909.969
 L 112.9,-909.903 L 112.634,-909.869 z
M -112.634,-909.869 L -112.9,-909.903 L -113.16,-909.969 L -113.409,-910.068 L -113.644,-910.197 L -113.861,-910.355
 L -114.057,-910.538 L -114.227,-910.745 L -114.371,-910.971 L -114.485,-911.214 L -114.568,-911.469 L -114.618,-911.732
 L -114.635,-912 L -114.618,-912.268 L -114.568,-912.531 L -114.485,-912.786 L -114.371,-913.029 L -114.227,-913.255
 L -114.057,-913.462 L -113.861,-913.645 L -113.644,-913.803 L -113.409,-913.932 L -113.16,-914.031 L -112.9,-914.097
 L -112.634,-914.131 L -112.366,-914.131 L -112.1,-914.097 L -111.84,-914.031 L -111.591,-913.932 L -111.356,-913.803
 L -111.139,-913.645 L -110.943,-913.462 L -110.773,-913.255 L -110.629,-913.029 L -110.515,-912.786 L -110.432,-912.531
 L -110.382,-912.268 L -110.365,-912 L -110.382,-911.732 L -110.432,-911.469 L -110.515,-911.214 L -110.629,-910.971
 L -110.773,-910.745 L -110.943,-910.538 L -111.139,-910.355 L -111.356,-910.197 L -111.591,-910.068 L -111.84,-909.969
 L -112.1,-909.903 L -112.366,-909.869 z
M 112.366,-669.869 L 112.1,-669.903 L 111.84,-669.969 L 111.591,-670.068 L 111.356,-670.197 L 111.139,-670.355
 L 110.943,-670.538 L 110.773,-670.745 L 110.629,-670.971 L 110.515,-671.214 L 110.432,-671.469 L 110.382,-671.732
 L 110.365,-672 L 110.382,-672.268 L 110.432,-672.531 L 110.515,-672.786 L 110.629,-673.029 L 110.773,-673.255
 L 110.943,-673.462 L 111.139,-673.645 L 111.356,-673.803 L 111.591,-673.932 L 111.84,-674.031 L 112.1,-674.097
 L 112.366,-674.131 L 112.634,-674.131 L 112.9,-674.097 L 113.16,-674.031 L 113.409,-673.932 L 113.644,-673.803
 L 113.861,-673.645 L 114.057,-673.462 L 114.227,-673.255 L 114.371,-673.029 L 114.485,-672.786 L 114.568,-672.531
 L 114.618,-672.268 L 114.635,-672 L 114.618,-671.732 L 114.568,-671.469 L 114.485,-671.214 L 114.371,-670.971
 L 114.227,-670.745 L 114.057,-670.538 L 113.861,-670.355 L 113.644,-670.197 L 113.409,-670.068 L 113.16,-669.969
 L 112.9,-669.903 L 112.634,-669.869 z
M -112.634,-669.869 L -112.9,-669.903 L -113.16,-669.969 L -113.409,-670.068 L -113.644,-670.197 L -113.861,-670.355
 L -114.057,-670.538 L -114.227,-670.745 L -114.371,-670.971 L -114.485,-671.214 L -114.568,-671.469 L -114.618,-671.732
 L -114.635,-672 L -114.618,-672.268 L -114.568,-672.531 L -114.485,-672.786 L -114.371,-673.029 L -114.227,-673.255
 L -114.057,-673.462 L -113.861,-673.645 L -113.644,-673.803 L -113.409,-673.932 L -113.16,-674.031 L -112.9,-674.097
 L -112.634,-674.131 L -112.366,-674.131 L -112.1,-674.097 L -111.84,-674.031 L -111.591,-673.932 L -111.356,-673.803
 L -111.139,-673.645 L -110.943,-673.462 L -110.773,-673.255 L -110.629,-673.029 L -110.515,-672.786 L -110.432,-672.531
 L -110.382,-672.268 L -110.365,-672 L -110.382,-671.732 L -110.432,-671.469 L -110.515,-671.214 L -110.629,-670.971
 L -110.773,-670.745 L -110.943,-670.538 L -111.139,-670.355 L -111.356,-670.197 L -111.591,-670.068 L -111.84,-669.969
 L -112.1,-669.903 L -112.366,-669.869 z
" stroke="black" fill="lightgray" stroke-width="0.5"/>
</svg>
