<?xml version="1.0" standalone="no"?>
<!DOCTYPE svg PUBLIC "-//W3C//DTD SVG 1.1//EN" "http://www.w3.org/Graphics/SVG/1.1/DTD/svg11.dtd">
<svg width="272mm" height="514mm" viewBox="-137 -953 272 514" xmlns="http://www.w3.org/2000/svg" version="1.1">
<title>OpenSCAD Model</title>
<path d="
M -133.5,-788.941 L -133.187,-788.647 L -132.679,-788.278 L -132.129,-787.976 L -131.545,-787.745 L -130.937,-787.589
 L -130.314,-787.51 L 130.314,-787.51 L 130.937,-787.589 L 131.545,-787.745 L 132.129,-787.976 L 132.679,-788.278
 L 133.187,-788.647 L 133.645,-789.077 L 134.045,-789.561 L 134.382,-790.091 L 134.649,-790.659 L 134.843,-791.257
 L 134.961,-791.873 L 135,-792.5 L 135,-947.5 L 134.961,-948.127 L 134.843,-948.743 L 134.649,-949.341
 L 134.382,-949.909 L 134.045,-950.439 L 133.645,-950.923 L 133.187,-951.353 L 132.679,-951.722 L 132.129,-952.024
 L 131.545,-952.255 L 130.937,-952.411 L 130.314,-952.49 L -130.314,-952.49 L -130.937,-952.411 L -131.545,-952.255
 L -132.129,-952.024 L -132.679,-951.722 L -133.187,-951.353 L -133.5,-951.059 L -133.5,-952.49 L -136.5,-952.49
 L -136.5,-787.51 L -133.5,-787.51 z
M -129.751,-789.008 L -130.25,-789.071 L -130.736,-789.196 L -131.203,-789.381 L -131.643,-789.623 L -132.05,-789.918
 L -132.416,-790.262 L -132.736,-790.649 L -133.005,-791.073 L -133.219,-791.528 L -133.374,-792.005 L -133.468,-792.499
 L -133.5,-793 L -133.5,-947 L -133.468,-947.501 L -133.374,-947.995 L -133.219,-948.472 L -133.005,-948.927
 L -132.736,-949.351 L -132.416,-949.738 L -132.05,-950.082 L -131.643,-950.377 L -131.203,-950.619 L -130.736,-950.804
 L -130.25,-950.929 L -129.751,-950.992 L 129.751,-950.992 L 130.25,-950.929 L 130.736,-950.804 L 131.203,-950.619
 L 131.643,-950.377 L 132.05,-950.082 L 132.416,-949.738 L 132.736,-949.351 L 133.005,-948.927 L 133.219,-948.472
 L 133.374,-947.995 L 133.468,-947.501 L 133.5,-947 L 133.5,-793 L 133.468,-792.499 L 133.374,-792.005
 L 133.219,-791.528 L 133.005,-791.073 L 132.736,-790.649 L 132.416,-790.262 L 132.05,-789.918 L 131.643,-789.623
 L 131.203,-789.381 L 130.736,-789.196 L 130.25,-789.071 L 129.751,-789.008 z
M 130.937,-613.589 L 131.545,-613.745 L 132.129,-613.976 L 132.679,-614.278 L 133.187,-614.647 L 133.645,-615.077
 L 134.045,-615.561 L 134.382,-616.091 L 134.649,-616.659 L 134.843,-617.257 L 134.961,-617.873 L 135,-618.5
 L 135,-773.5 L 134.961,-774.127 L 134.843,-774.743 L 134.649,-775.341 L 134.382,-775.909 L 134.045,-776.439
 L 133.645,-776.923 L 133.187,-777.353 L 132.679,-777.722 L 132.129,-778.024 L 131.545,-778.255 L 130.937,-778.411
 L 130.314,-778.49 L -130.314,-778.49 L -130.937,-778.411 L -131.545,-778.255 L -132.129,-778.024 L -132.679,-777.722
 L -133.187,-777.353 L -133.5,-777.059 L -133.5,-778.479 L -136.5,-778.479 L -136.5,-613.521 L -133.5,-613.521
 L -133.5,-614.941 L -133.187,-614.647 L -132.679,-614.278 L -132.129,-613.976 L -131.545,-613.745 L -130.937,-613.589
 L -130.314,-613.51 L 130.314,-613.51 z
M -129.695,-615.893 L -130.083,-615.942 L -130.462,-616.039 L -130.825,-616.183 L -131.168,-616.372 L -131.484,-616.601
 L -131.769,-616.869 L -132.018,-617.17 L -132.228,-617.5 L -132.394,-617.854 L -132.515,-618.226 L -132.588,-618.61
 L -132.613,-619 L -132.613,-773 L -132.588,-773.39 L -132.515,-773.774 L -132.394,-774.146 L -132.228,-774.5
 L -132.018,-774.83 L -131.769,-775.131 L -131.484,-775.399 L -131.168,-775.628 L -130.825,-775.817 L -130.462,-775.961
 L -130.083,-776.058 L -129.695,-776.107 L 129.695,-776.107 L 130.083,-776.058 L 130.462,-775.961 L 130.825,-775.817
 L 131.168,-775.628 L 131.484,-775.399 L 131.769,-775.131 L 132.018,-774.83 L 132.228,-774.5 L 132.394,-774.146
 L 132.515,-773.774 L 132.588,-773.39 L 132.613,-773 L 132.613,-619 L 132.588,-618.61 L 132.515,-618.226
 L 132.394,-617.854 L 132.228,-617.5 L 132.018,-617.17 L 131.769,-616.869 L 131.484,-616.601 L 131.168,-616.372
 L 130.825,-616.183 L 130.462,-616.039 L 130.083,-615.942 L 129.695,-615.893 z
M 130.937,-439.589 L 131.545,-439.745 L 132.129,-439.976 L 132.679,-440.278 L 133.187,-440.647 L 133.645,-441.077
 L 134.045,-441.561 L 134.382,-442.091 L 134.649,-442.659 L 134.843,-443.257 L 134.961,-443.873 L 135,-444.5
 L 135,-599.5 L 134.961,-600.127 L 134.843,-600.743 L 134.649,-601.341 L 134.382,-601.909 L 134.045,-602.439
 L 133.645,-602.923 L 133.187,-603.353 L 132.679,-603.722 L 132.129,-604.024 L 131.545,-604.255 L 130.937,-604.411
 L 130.314,-604.49 L -130.314,-604.49 L -130.937,-604.411 L -131.545,-604.255 L -132.129,-604.024 L -132.679,-603.722
 L -133.187,-603.353 L -133.5,-603.059 L -133.5,-603.153 L -136.5,-603.153 L -136.5,-440.847 L -133.5,-440.847
 L -133.5,-440.941 L -133.187,-440.647 L -132.679,-440.278 L -132.129,-439.976 L -131.545,-439.745 L -130.937,-439.589
 L -130.314,-439.51 L 130.314,-439.51 z
M 127.366,-594.869 L 127.1,-594.903 L 126.84,-594.969 L 126.591,-595.068 L 126.356,-595.197 L 126.139,-595.355
 L 125.943,-595.538 L 125.773,-595.745 L 125.629,-595.971 L 125.515,-596.214 L 125.432,-596.469 L 125.382,-596.732
 L 125.365,-597 L 125.382,-597.268 L 125.432,-597.531 L 125.515,-597.786 L 125.629,-598.029 L 125.773,-598.255
 L 125.943,-598.462 L 126.139,-598.645 L 126.356,-598.803 L 126.591,-598.932 L 126.84,-599.031 L 127.1,-599.097
 L 127.366,-599.131 L 127.634,-599.131 L 127.9,-599.097 L 128.16,-599.031 L 128.409,-598.932 L 128.644,-598.803
 L 128.861,-598.645 L 129.057,-598.462 L 129.227,-598.255 L 129.371,-598.029 L 129.485,-597.786 L 129.568,-597.531
 L 129.618,-597.268 L 129.635,-597 L 129.618,-596.732 L 129.568,-596.469 L 129.485,-596.214 L 129.371,-595.971
 L 129.227,-595.745 L 129.057,-595.538 L 128.861,-595.355 L 128.644,-595.197 L 128.409,-595.068 L 128.16,-594.969
 L 127.9,-594.903 L 127.634,-594.869 z
M -127.634,-594.869 L -127.9,-594.903 L -128.16,-594.969 L -128.409,-595.068 L -128.644,-595.197 L -128.861,-595.355
 L -129.057,-595.538 L -129.227,-595.745 L -129.371,-595.971 L -129.485,-596.214 L -129.568,-596.469 L -129.618,-596.732
 L -129.635,-597 L -129.618,-597.268 L -129.568,-597.531 L -129.485,-597.786 L -129.371,-598.029 L -129.227,-598.255
 L -129.057,-598.462 L -128.861,-598.645 L -128.644,-598.803 L -128.409,-598.932 L -128.16,-599.031 L -127.9,-599.097
 L -127.634,-599.131 L -127.366,-599.131 L -127.1,-599.097 L -126.84,-599.031 L -126.591,-598.932 L -126.356,-598.803
 L -126.139,-598.645 L -125.943,-598.462 L -125.773,-598.255 L -125.629,-598.029 L -125.515,-597.786 L -125.432,-597.531
 L -125.382,-597.268 L -125.365,-597 L -125.382,-596.732 L -125.432,-596.469 L -125.515,-596.214 L -125.629,-595.971
 L -125.773,-595.745 L -125.943,-595.538 L -126.139,-595.355 L -126.356,-595.197 L -126.591,-595.068 L -126.84,-594.969
 L -127.1,-594.903 L -127.366,-594.869 z
M 127.366,-444.869 L 127.1,-444.903 L 126.84,-444.969 L 126.591,-445.068 L 126.356,-445.197 L 126.139,-445.355
 L 125.943,-445.538 L 125.773,-445.745 L 125.629,-445.971 L 125.515,-446.214 L 125.432,-446.469 L 125.382,-446.732
 L 125.365,-447 L 125.382,-447.268 L 125.432,-447.531 L 125.515,-447.786 L 125.629,-448.029 L 125.773,-448.255
 L 125.943,-448.462 L 126.139,-448.645 L 126.356,-448.803 L 126.591,-448.932 L 126.84,-449.031 L 127.1,-449.097
 L 127.366,-449.131 L 127.634,-449.131 L 127.9,-449.097 L 128.16,-449.031 L 128.409,-448.932 L 128.644,-448.803
 L 128.861,-448.645 L 129.057,-448.462 L 129.227,-448.255 L 129.371,-448.029 L 129.485,-447.786 L 129.568,-447.531
 L 129.618,-447.268 L 129.635,-447 L 129.618,-446.732 L 129.568,-446.469 L 129.485,-446.214 L 129.371,-445.971
 L 129.227,-445.745 L 129.057,-445.538 L 128.861,-445.355 L 128.644,-445.197 L 128.409,-445.068 L 128.16,-444.969
 L 127.9,-444.903 L 127.634,-444.869 z
M -127.634,-444.869 L -127.9,-444.903 L -128.16,-444.969 L -128.409,-445.068 L -128.644,-445.197 L -128.861,-445.355
 L -129.057,-445.538 L -129.227,-445.745 L -129.371,-445.971 L -129.485,-446.214 L -129.568,-446.469 L -129.618,-446.732
 L -129.635,-447 L -129.618,-447.268 L -129.568,-447.531 L -129.485,-447.786 L -129.371,-448.029 L -129.227,-448.255
 L -129.057,-448.462 L -128.861,-448.645 L -128.644,-448.803 L -128.409,-448.932 L -128.16,-449.031 L -127.9,-449.097
 L -127.634,-449.131 L -127.366,-449.131 L -127.1,-449.097 L -126.84,-449.031 L -126.591,-448.932 L -126.356,-448.803
 L -126.139,-448.645 L -125.943,-448.462 L -125.773,-448.255 L -125.629,-448.029 L -125.515,-447.786 L -125.432,-447.531
 L -125.382,-447.268 L -125.365,-447 L -125.382,-446.732 L -125.432,-446.469 L -125.515,-446.214 L -125.629,-445.971
 L -125.773,-445.745 L -125.943,-445.538 L -126.139,-445.355 L -126.356,-445.197 L -126.591,-445.068 L -126.84,-444.969
 L -127.1,-444.903 L -127.366,-444.869 z
" stroke="black" fill="lightgray" stroke-width="0.5"/>
</svg>
