  0
SECTION
  2
BLOCKS
  0
ENDSEC
  0
SECTION
  2
ENTITIES
  0
LINE
  8
0
 10
130.937
 20
876.089
 11
131.545
 21
876.245
  0
LINE
  8
0
 10
131.545
 20
876.245
 11
132.129
 21
876.476
  0
LINE
  8
0
 10
132.129
 20
876.476
 11
132.679
 21
876.778
  0
LINE
  8
0
 10
132.679
 20
876.778
 11
133.187
 21
877.147
  0
LINE
  8
0
 10
133.187
 20
877.147
 11
133.645
 21
877.577
  0
LINE
  8
0
 10
133.645
 20
877.577
 11
134.045
 21
878.061
  0
LINE
  8
0
 10
134.045
 20
878.061
 11
134.382
 21
878.591
  0
LINE
  8
0
 10
134.382
 20
878.591
 11
134.649
 21
879.159
  0
LINE
  8
0
 10
134.649
 20
879.159
 11
134.843
 21
879.757
  0
LINE
  8
0
 10
134.843
 20
879.757
 11
134.961
 21
880.373
  0
LINE
  8
0
 10
134.961
 20
880.373
 11
135
 21
881
  0
LINE
  8
0
 10
135
 20
881
 11
135
 21
1111
  0
LINE
  8
0
 10
135
 20
1111
 11
134.961
 21
1111.63
  0
LINE
  8
0
 10
134.961
 20
1111.63
 11
134.843
 21
1112.24
  0
LINE
  8
0
 10
134.843
 20
1112.24
 11
134.649
 21
1112.84
  0
LINE
  8
0
 10
134.649
 20
1112.84
 11
134.382
 21
1113.41
  0
LINE
  8
0
 10
134.382
 20
1113.41
 11
134.045
 21
1113.94
  0
LINE
  8
0
 10
134.045
 20
1113.94
 11
133.645
 21
1114.42
  0
LINE
  8
0
 10
133.645
 20
1114.42
 11
133.187
 21
1114.85
  0
LINE
  8
0
 10
133.187
 20
1114.85
 11
132.679
 21
1115.22
  0
LINE
  8
0
 10
132.679
 20
1115.22
 11
132.129
 21
1115.52
  0
LINE
  8
0
 10
132.129
 20
1115.52
 11
131.545
 21
1115.76
  0
LINE
  8
0
 10
131.545
 20
1115.76
 11
130.937
 21
1115.91
  0
LINE
  8
0
 10
130.937
 20
1115.91
 11
130.314
 21
1115.99
  0
LINE
  8
0
 10
130.314
 20
1115.99
 11
-130.314
 21
1115.99
  0
LINE
  8
0
 10
-130.314
 20
1115.99
 11
-130.937
 21
1115.91
  0
LINE
  8
0
 10
-130.937
 20
1115.91
 11
-131.545
 21
1115.76
  0
LINE
  8
0
 10
-131.545
 20
1115.76
 11
-132.129
 21
1115.52
  0
LINE
  8
0
 10
-132.129
 20
1115.52
 11
-132.679
 21
1115.22
  0
LINE
  8
0
 10
-132.679
 20
1115.22
 11
-133.187
 21
1114.85
  0
LINE
  8
0
 10
-133.187
 20
1114.85
 11
-133.645
 21
1114.42
  0
LINE
  8
0
 10
-133.645
 20
1114.42
 11
-134.045
 21
1113.94
  0
LINE
  8
0
 10
-134.045
 20
1113.94
 11
-134.382
 21
1113.41
  0
LINE
  8
0
 10
-134.382
 20
1113.41
 11
-134.649
 21
1112.84
  0
LINE
  8
0
 10
-134.649
 20
1112.84
 11
-134.843
 21
1112.24
  0
LINE
  8
0
 10
-134.843
 20
1112.24
 11
-134.961
 21
1111.63
  0
LINE
  8
0
 10
-134.961
 20
1111.63
 11
-135
 21
1111
  0
LINE
  8
0
 10
-135
 20
1111
 11
-135
 21
881
  0
LINE
  8
0
 10
-135
 20
881
 11
-134.961
 21
880.373
  0
LINE
  8
0
 10
-134.961
 20
880.373
 11
-134.843
 21
879.757
  0
LINE
  8
0
 10
-134.843
 20
879.757
 11
-134.649
 21
879.159
  0
LINE
  8
0
 10
-134.649
 20
879.159
 11
-134.382
 21
878.591
  0
LINE
  8
0
 10
-134.382
 20
878.591
 11
-134.045
 21
878.061
  0
LINE
  8
0
 10
-134.045
 20
878.061
 11
-133.645
 21
877.577
  0
LINE
  8
0
 10
-133.645
 20
877.577
 11
-133.187
 21
877.147
  0
LINE
  8
0
 10
-133.187
 20
877.147
 11
-132.679
 21
876.778
  0
LINE
  8
0
 10
-132.679
 20
876.778
 11
-132.129
 21
876.476
  0
LINE
  8
0
 10
-132.129
 20
876.476
 11
-131.545
 21
876.245
  0
LINE
  8
0
 10
-131.545
 20
876.245
 11
-130.937
 21
876.089
  0
LINE
  8
0
 10
-130.937
 20
876.089
 11
-130.314
 21
876.01
  0
LINE
  8
0
 10
-130.314
 20
876.01
 11
130.314
 21
876.01
  0
LINE
  8
0
 10
130.314
 20
876.01
 11
130.937
 21
876.089
  0
LINE
  8
0
 10
-130.048
 20
876.509
 11
-130.64
 21
876.584
  0
LINE
  8
0
 10
-130.64
 20
876.584
 11
-131.218
 21
876.732
  0
LINE
  8
0
 10
-131.218
 20
876.732
 11
-131.772
 21
876.952
  0
LINE
  8
0
 10
-131.772
 20
876.952
 11
-132.295
 21
877.239
  0
LINE
  8
0
 10
-132.295
 20
877.239
 11
-132.778
 21
877.59
  0
LINE
  8
0
 10
-132.778
 20
877.59
 11
-133.213
 21
877.998
  0
LINE
  8
0
 10
-133.213
 20
877.998
 11
-133.593
 21
878.458
  0
LINE
  8
0
 10
-133.593
 20
878.458
 11
-133.912
 21
878.962
  0
LINE
  8
0
 10
-133.912
 20
878.962
 11
-134.166
 21
879.501
  0
LINE
  8
0
 10
-134.166
 20
879.501
 11
-134.351
 21
880.069
  0
LINE
  8
0
 10
-134.351
 20
880.069
 11
-134.463
 21
880.655
  0
LINE
  8
0
 10
-134.463
 20
880.655
 11
-134.5
 21
881.25
  0
LINE
  8
0
 10
-134.5
 20
881.25
 11
-134.5
 21
1110.75
  0
LINE
  8
0
 10
-134.5
 20
1110.75
 11
-134.463
 21
1111.35
  0
LINE
  8
0
 10
-134.463
 20
1111.35
 11
-134.351
 21
1111.93
  0
LINE
  8
0
 10
-134.351
 20
1111.93
 11
-134.166
 21
1112.5
  0
LINE
  8
0
 10
-134.166
 20
1112.5
 11
-133.912
 21
1113.04
  0
LINE
  8
0
 10
-133.912
 20
1113.04
 11
-133.593
 21
1113.54
  0
LINE
  8
0
 10
-133.593
 20
1113.54
 11
-133.213
 21
1114
  0
LINE
  8
0
 10
-133.213
 20
1114
 11
-132.778
 21
1114.41
  0
LINE
  8
0
 10
-132.778
 20
1114.41
 11
-132.295
 21
1114.76
  0
LINE
  8
0
 10
-132.295
 20
1114.76
 11
-131.772
 21
1115.05
  0
LINE
  8
0
 10
-131.772
 20
1115.05
 11
-131.218
 21
1115.27
  0
LINE
  8
0
 10
-131.218
 20
1115.27
 11
-130.64
 21
1115.42
  0
LINE
  8
0
 10
-130.64
 20
1115.42
 11
-130.048
 21
1115.49
  0
LINE
  8
0
 10
-130.048
 20
1115.49
 11
130.048
 21
1115.49
  0
LINE
  8
0
 10
130.048
 20
1115.49
 11
130.64
 21
1115.42
  0
LINE
  8
0
 10
130.64
 20
1115.42
 11
131.218
 21
1115.27
  0
LINE
  8
0
 10
131.218
 20
1115.27
 11
131.772
 21
1115.05
  0
LINE
  8
0
 10
131.772
 20
1115.05
 11
132.295
 21
1114.76
  0
LINE
  8
0
 10
132.295
 20
1114.76
 11
132.778
 21
1114.41
  0
LINE
  8
0
 10
132.778
 20
1114.41
 11
133.213
 21
1114
  0
LINE
  8
0
 10
133.213
 20
1114
 11
133.593
 21
1113.54
  0
LINE
  8
0
 10
133.593
 20
1113.54
 11
133.912
 21
1113.04
  0
LINE
  8
0
 10
133.912
 20
1113.04
 11
134.166
 21
1112.5
  0
LINE
  8
0
 10
134.166
 20
1112.5
 11
134.351
 21
1111.93
  0
LINE
  8
0
 10
134.351
 20
1111.93
 11
134.463
 21
1111.35
  0
LINE
  8
0
 10
134.463
 20
1111.35
 11
134.5
 21
1110.75
  0
LINE
  8
0
 10
134.5
 20
1110.75
 11
134.5
 21
881.25
  0
LINE
  8
0
 10
134.5
 20
881.25
 11
134.463
 21
880.655
  0
LINE
  8
0
 10
134.463
 20
880.655
 11
134.351
 21
880.069
  0
LINE
  8
0
 10
134.351
 20
880.069
 11
134.166
 21
879.501
  0
LINE
  8
0
 10
134.166
 20
879.501
 11
133.912
 21
878.962
  0
LINE
  8
0
 10
133.912
 20
878.962
 11
133.593
 21
878.458
  0
LINE
  8
0
 10
133.593
 20
878.458
 11
133.213
 21
877.998
  0
LINE
  8
0
 10
133.213
 20
877.998
 11
132.778
 21
877.59
  0
LINE
  8
0
 10
132.778
 20
877.59
 11
132.295
 21
877.239
  0
LINE
  8
0
 10
132.295
 20
877.239
 11
131.772
 21
876.952
  0
LINE
  8
0
 10
131.772
 20
876.952
 11
131.218
 21
876.732
  0
LINE
  8
0
 10
131.218
 20
876.732
 11
130.64
 21
876.584
  0
LINE
  8
0
 10
130.64
 20
876.584
 11
130.048
 21
876.509
  0
LINE
  8
0
 10
130.048
 20
876.509
 11
-130.048
 21
876.509
  0
LINE
  8
0
 10
130.937
 20
627.089
 11
131.545
 21
627.245
  0
LINE
  8
0
 10
131.545
 20
627.245
 11
132.129
 21
627.476
  0
LINE
  8
0
 10
132.129
 20
627.476
 11
132.679
 21
627.778
  0
LINE
  8
0
 10
132.679
 20
627.778
 11
133.187
 21
628.147
  0
LINE
  8
0
 10
133.187
 20
628.147
 11
133.645
 21
628.577
  0
LINE
  8
0
 10
133.645
 20
628.577
 11
134.045
 21
629.061
  0
LINE
  8
0
 10
134.045
 20
629.061
 11
134.382
 21
629.591
  0
LINE
  8
0
 10
134.382
 20
629.591
 11
134.649
 21
630.159
  0
LINE
  8
0
 10
134.649
 20
630.159
 11
134.843
 21
630.757
  0
LINE
  8
0
 10
134.843
 20
630.757
 11
134.961
 21
631.373
  0
LINE
  8
0
 10
134.961
 20
631.373
 11
135
 21
632
  0
LINE
  8
0
 10
135
 20
632
 11
135
 21
862
  0
LINE
  8
0
 10
135
 20
862
 11
134.961
 21
862.627
  0
LINE
  8
0
 10
134.961
 20
862.627
 11
134.843
 21
863.243
  0
LINE
  8
0
 10
134.843
 20
863.243
 11
134.649
 21
863.841
  0
LINE
  8
0
 10
134.649
 20
863.841
 11
134.382
 21
864.409
  0
LINE
  8
0
 10
134.382
 20
864.409
 11
134.045
 21
864.939
  0
LINE
  8
0
 10
134.045
 20
864.939
 11
133.645
 21
865.423
  0
LINE
  8
0
 10
133.645
 20
865.423
 11
133.187
 21
865.853
  0
LINE
  8
0
 10
133.187
 20
865.853
 11
132.679
 21
866.222
  0
LINE
  8
0
 10
132.679
 20
866.222
 11
132.129
 21
866.524
  0
LINE
  8
0
 10
132.129
 20
866.524
 11
131.545
 21
866.755
  0
LINE
  8
0
 10
131.545
 20
866.755
 11
130.937
 21
866.911
  0
LINE
  8
0
 10
130.937
 20
866.911
 11
130.314
 21
866.99
  0
LINE
  8
0
 10
130.314
 20
866.99
 11
-130.314
 21
866.99
  0
LINE
  8
0
 10
-130.314
 20
866.99
 11
-130.937
 21
866.911
  0
LINE
  8
0
 10
-130.937
 20
866.911
 11
-131.545
 21
866.755
  0
LINE
  8
0
 10
-131.545
 20
866.755
 11
-132.129
 21
866.524
  0
LINE
  8
0
 10
-132.129
 20
866.524
 11
-132.679
 21
866.222
  0
LINE
  8
0
 10
-132.679
 20
866.222
 11
-133.187
 21
865.853
  0
LINE
  8
0
 10
-133.187
 20
865.853
 11
-133.645
 21
865.423
  0
LINE
  8
0
 10
-133.645
 20
865.423
 11
-134.045
 21
864.939
  0
LINE
  8
0
 10
-134.045
 20
864.939
 11
-134.382
 21
864.409
  0
LINE
  8
0
 10
-134.382
 20
864.409
 11
-134.649
 21
863.841
  0
LINE
  8
0
 10
-134.649
 20
863.841
 11
-134.843
 21
863.243
  0
LINE
  8
0
 10
-134.843
 20
863.243
 11
-134.961
 21
862.627
  0
LINE
  8
0
 10
-134.961
 20
862.627
 11
-135
 21
862
  0
LINE
  8
0
 10
-135
 20
862
 11
-135
 21
632
  0
LINE
  8
0
 10
-135
 20
632
 11
-134.961
 21
631.373
  0
LINE
  8
0
 10
-134.961
 20
631.373
 11
-134.843
 21
630.757
  0
LINE
  8
0
 10
-134.843
 20
630.757
 11
-134.649
 21
630.159
  0
LINE
  8
0
 10
-134.649
 20
630.159
 11
-134.382
 21
629.591
  0
LINE
  8
0
 10
-134.382
 20
629.591
 11
-134.045
 21
629.061
  0
LINE
  8
0
 10
-134.045
 20
629.061
 11
-133.645
 21
628.577
  0
LINE
  8
0
 10
-133.645
 20
628.577
 11
-133.187
 21
628.147
  0
LINE
  8
0
 10
-133.187
 20
628.147
 11
-132.679
 21
627.778
  0
LINE
  8
0
 10
-132.679
 20
627.778
 11
-132.129
 21
627.476
  0
LINE
  8
0
 10
-132.129
 20
627.476
 11
-131.545
 21
627.245
  0
LINE
  8
0
 10
-131.545
 20
627.245
 11
-130.937
 21
627.089
  0
LINE
  8
0
 10
-130.937
 20
627.089
 11
-130.314
 21
627.01
  0
LINE
  8
0
 10
-130.314
 20
627.01
 11
130.314
 21
627.01
  0
LINE
  8
0
 10
130.314
 20
627.01
 11
130.937
 21
627.089
  0
LINE
  8
0
 10
-129.993
 20
628.388
 11
-130.475
 21
628.449
  0
LINE
  8
0
 10
-130.475
 20
628.449
 11
-130.946
 21
628.57
  0
LINE
  8
0
 10
-130.946
 20
628.57
 11
-131.398
 21
628.749
  0
LINE
  8
0
 10
-131.398
 20
628.749
 11
-131.823
 21
628.983
  0
LINE
  8
0
 10
-131.823
 20
628.983
 11
-132.216
 21
629.269
  0
LINE
  8
0
 10
-132.216
 20
629.269
 11
-132.571
 21
629.601
  0
LINE
  8
0
 10
-132.571
 20
629.601
 11
-132.88
 21
629.976
  0
LINE
  8
0
 10
-132.88
 20
629.976
 11
-133.141
 21
630.386
  0
LINE
  8
0
 10
-133.141
 20
630.386
 11
-133.348
 21
630.826
  0
LINE
  8
0
 10
-133.348
 20
630.826
 11
-133.498
 21
631.288
  0
LINE
  8
0
 10
-133.498
 20
631.288
 11
-133.589
 21
631.765
  0
LINE
  8
0
 10
-133.589
 20
631.765
 11
-133.619
 21
632.25
  0
LINE
  8
0
 10
-133.619
 20
632.25
 11
-133.619
 21
861.75
  0
LINE
  8
0
 10
-133.619
 20
861.75
 11
-133.589
 21
862.235
  0
LINE
  8
0
 10
-133.589
 20
862.235
 11
-133.498
 21
862.712
  0
LINE
  8
0
 10
-133.498
 20
862.712
 11
-133.348
 21
863.174
  0
LINE
  8
0
 10
-133.348
 20
863.174
 11
-133.141
 21
863.614
  0
LINE
  8
0
 10
-133.141
 20
863.614
 11
-132.88
 21
864.024
  0
LINE
  8
0
 10
-132.88
 20
864.024
 11
-132.571
 21
864.399
  0
LINE
  8
0
 10
-132.571
 20
864.399
 11
-132.216
 21
864.731
  0
LINE
  8
0
 10
-132.216
 20
864.731
 11
-131.823
 21
865.017
  0
LINE
  8
0
 10
-131.823
 20
865.017
 11
-131.398
 21
865.251
  0
LINE
  8
0
 10
-131.398
 20
865.251
 11
-130.946
 21
865.43
  0
LINE
  8
0
 10
-130.946
 20
865.43
 11
-130.475
 21
865.551
  0
LINE
  8
0
 10
-130.475
 20
865.551
 11
-129.993
 21
865.612
  0
LINE
  8
0
 10
-129.993
 20
865.612
 11
129.993
 21
865.612
  0
LINE
  8
0
 10
129.993
 20
865.612
 11
130.475
 21
865.551
  0
LINE
  8
0
 10
130.475
 20
865.551
 11
130.946
 21
865.43
  0
LINE
  8
0
 10
130.946
 20
865.43
 11
131.398
 21
865.251
  0
LINE
  8
0
 10
131.398
 20
865.251
 11
131.823
 21
865.017
  0
LINE
  8
0
 10
131.823
 20
865.017
 11
132.216
 21
864.731
  0
LINE
  8
0
 10
132.216
 20
864.731
 11
132.571
 21
864.399
  0
LINE
  8
0
 10
132.571
 20
864.399
 11
132.88
 21
864.024
  0
LINE
  8
0
 10
132.88
 20
864.024
 11
133.141
 21
863.614
  0
LINE
  8
0
 10
133.141
 20
863.614
 11
133.348
 21
863.174
  0
LINE
  8
0
 10
133.348
 20
863.174
 11
133.498
 21
862.712
  0
LINE
  8
0
 10
133.498
 20
862.712
 11
133.589
 21
862.235
  0
LINE
  8
0
 10
133.589
 20
862.235
 11
133.619
 21
861.75
  0
LINE
  8
0
 10
133.619
 20
861.75
 11
133.619
 21
632.25
  0
LINE
  8
0
 10
133.619
 20
632.25
 11
133.589
 21
631.765
  0
LINE
  8
0
 10
133.589
 20
631.765
 11
133.498
 21
631.288
  0
LINE
  8
0
 10
133.498
 20
631.288
 11
133.348
 21
630.826
  0
LINE
  8
0
 10
133.348
 20
630.826
 11
133.141
 21
630.386
  0
LINE
  8
0
 10
133.141
 20
630.386
 11
132.88
 21
629.976
  0
LINE
  8
0
 10
132.88
 20
629.976
 11
132.571
 21
629.601
  0
LINE
  8
0
 10
132.571
 20
629.601
 11
132.216
 21
629.269
  0
LINE
  8
0
 10
132.216
 20
629.269
 11
131.823
 21
628.983
  0
LINE
  8
0
 10
131.823
 20
628.983
 11
131.398
 21
628.749
  0
LINE
  8
0
 10
131.398
 20
628.749
 11
130.946
 21
628.57
  0
LINE
  8
0
 10
130.946
 20
628.57
 11
130.475
 21
628.449
  0
LINE
  8
0
 10
130.475
 20
628.449
 11
129.993
 21
628.388
  0
LINE
  8
0
 10
129.993
 20
628.388
 11
-129.993
 21
628.388
  0
LINE
  8
0
 10
130.937
 20
378.089
 11
131.545
 21
378.245
  0
LINE
  8
0
 10
131.545
 20
378.245
 11
132.129
 21
378.476
  0
LINE
  8
0
 10
132.129
 20
378.476
 11
132.679
 21
378.778
  0
LINE
  8
0
 10
132.679
 20
378.778
 11
133.187
 21
379.147
  0
LINE
  8
0
 10
133.187
 20
379.147
 11
133.645
 21
379.577
  0
LINE
  8
0
 10
133.645
 20
379.577
 11
134.045
 21
380.061
  0
LINE
  8
0
 10
134.045
 20
380.061
 11
134.382
 21
380.591
  0
LINE
  8
0
 10
134.382
 20
380.591
 11
134.649
 21
381.159
  0
LINE
  8
0
 10
134.649
 20
381.159
 11
134.843
 21
381.757
  0
LINE
  8
0
 10
134.843
 20
381.757
 11
134.961
 21
382.373
  0
LINE
  8
0
 10
134.961
 20
382.373
 11
135
 21
383
  0
LINE
  8
0
 10
135
 20
383
 11
135
 21
613
  0
LINE
  8
0
 10
135
 20
613
 11
134.961
 21
613.627
  0
LINE
  8
0
 10
134.961
 20
613.627
 11
134.843
 21
614.243
  0
LINE
  8
0
 10
134.843
 20
614.243
 11
134.649
 21
614.841
  0
LINE
  8
0
 10
134.649
 20
614.841
 11
134.382
 21
615.409
  0
LINE
  8
0
 10
134.382
 20
615.409
 11
134.045
 21
615.939
  0
LINE
  8
0
 10
134.045
 20
615.939
 11
133.645
 21
616.423
  0
LINE
  8
0
 10
133.645
 20
616.423
 11
133.187
 21
616.853
  0
LINE
  8
0
 10
133.187
 20
616.853
 11
132.679
 21
617.222
  0
LINE
  8
0
 10
132.679
 20
617.222
 11
132.129
 21
617.524
  0
LINE
  8
0
 10
132.129
 20
617.524
 11
131.545
 21
617.755
  0
LINE
  8
0
 10
131.545
 20
617.755
 11
130.937
 21
617.911
  0
LINE
  8
0
 10
130.937
 20
617.911
 11
130.314
 21
617.99
  0
LINE
  8
0
 10
130.314
 20
617.99
 11
-130.314
 21
617.99
  0
LINE
  8
0
 10
-130.314
 20
617.99
 11
-130.937
 21
617.911
  0
LINE
  8
0
 10
-130.937
 20
617.911
 11
-131.545
 21
617.755
  0
LINE
  8
0
 10
-131.545
 20
617.755
 11
-132.129
 21
617.524
  0
LINE
  8
0
 10
-132.129
 20
617.524
 11
-132.679
 21
617.222
  0
LINE
  8
0
 10
-132.679
 20
617.222
 11
-133.187
 21
616.853
  0
LINE
  8
0
 10
-133.187
 20
616.853
 11
-133.645
 21
616.423
  0
LINE
  8
0
 10
-133.645
 20
616.423
 11
-134.045
 21
615.939
  0
LINE
  8
0
 10
-134.045
 20
615.939
 11
-134.382
 21
615.409
  0
LINE
  8
0
 10
-134.382
 20
615.409
 11
-134.649
 21
614.841
  0
LINE
  8
0
 10
-134.649
 20
614.841
 11
-134.843
 21
614.243
  0
LINE
  8
0
 10
-134.843
 20
614.243
 11
-134.961
 21
613.627
  0
LINE
  8
0
 10
-134.961
 20
613.627
 11
-135
 21
613
  0
LINE
  8
0
 10
-135
 20
613
 11
-135
 21
383
  0
LINE
  8
0
 10
-135
 20
383
 11
-134.961
 21
382.373
  0
LINE
  8
0
 10
-134.961
 20
382.373
 11
-134.843
 21
381.757
  0
LINE
  8
0
 10
-134.843
 20
381.757
 11
-134.649
 21
381.159
  0
LINE
  8
0
 10
-134.649
 20
381.159
 11
-134.382
 21
380.591
  0
LINE
  8
0
 10
-134.382
 20
380.591
 11
-134.045
 21
380.061
  0
LINE
  8
0
 10
-134.045
 20
380.061
 11
-133.645
 21
379.577
  0
LINE
  8
0
 10
-133.645
 20
379.577
 11
-133.187
 21
379.147
  0
LINE
  8
0
 10
-133.187
 20
379.147
 11
-132.679
 21
378.778
  0
LINE
  8
0
 10
-132.679
 20
378.778
 11
-132.129
 21
378.476
  0
LINE
  8
0
 10
-132.129
 20
378.476
 11
-131.545
 21
378.245
  0
LINE
  8
0
 10
-131.545
 20
378.245
 11
-130.937
 21
378.089
  0
LINE
  8
0
 10
-130.937
 20
378.089
 11
-130.314
 21
378.01
  0
LINE
  8
0
 10
-130.314
 20
378.01
 11
130.314
 21
378.01
  0
LINE
  8
0
 10
130.314
 20
378.01
 11
130.937
 21
378.089
  0
LINE
  8
0
 10
127.387
 20
608.704
 11
127.163
 21
608.732
  0
LINE
  8
0
 10
127.163
 20
608.732
 11
126.944
 21
608.788
  0
LINE
  8
0
 10
126.944
 20
608.788
 11
126.734
 21
608.871
  0
LINE
  8
0
 10
126.734
 20
608.871
 11
126.536
 21
608.98
  0
LINE
  8
0
 10
126.536
 20
608.98
 11
126.353
 21
609.113
  0
LINE
  8
0
 10
126.353
 20
609.113
 11
126.188
 21
609.268
  0
LINE
  8
0
 10
126.188
 20
609.268
 11
126.044
 21
609.442
  0
LINE
  8
0
 10
126.044
 20
609.442
 11
125.923
 21
609.633
  0
LINE
  8
0
 10
125.923
 20
609.633
 11
125.826
 21
609.837
  0
LINE
  8
0
 10
125.826
 20
609.837
 11
125.757
 21
610.052
  0
LINE
  8
0
 10
125.757
 20
610.052
 11
125.714
 21
610.274
  0
LINE
  8
0
 10
125.714
 20
610.274
 11
125.7
 21
610.5
  0
LINE
  8
0
 10
125.7
 20
610.5
 11
125.714
 21
610.726
  0
LINE
  8
0
 10
125.714
 20
610.726
 11
125.757
 21
610.948
  0
LINE
  8
0
 10
125.757
 20
610.948
 11
125.826
 21
611.163
  0
LINE
  8
0
 10
125.826
 20
611.163
 11
125.923
 21
611.367
  0
LINE
  8
0
 10
125.923
 20
611.367
 11
126.044
 21
611.558
  0
LINE
  8
0
 10
126.044
 20
611.558
 11
126.188
 21
611.732
  0
LINE
  8
0
 10
126.188
 20
611.732
 11
126.353
 21
611.887
  0
LINE
  8
0
 10
126.353
 20
611.887
 11
126.536
 21
612.02
  0
LINE
  8
0
 10
126.536
 20
612.02
 11
126.734
 21
612.129
  0
LINE
  8
0
 10
126.734
 20
612.129
 11
126.944
 21
612.212
  0
LINE
  8
0
 10
126.944
 20
612.212
 11
127.163
 21
612.268
  0
LINE
  8
0
 10
127.163
 20
612.268
 11
127.387
 21
612.296
  0
LINE
  8
0
 10
127.387
 20
612.296
 11
127.613
 21
612.296
  0
LINE
  8
0
 10
127.613
 20
612.296
 11
127.837
 21
612.268
  0
LINE
  8
0
 10
127.837
 20
612.268
 11
128.056
 21
612.212
  0
LINE
  8
0
 10
128.056
 20
612.212
 11
128.266
 21
612.129
  0
LINE
  8
0
 10
128.266
 20
612.129
 11
128.464
 21
612.02
  0
LINE
  8
0
 10
128.464
 20
612.02
 11
128.647
 21
611.887
  0
LINE
  8
0
 10
128.647
 20
611.887
 11
128.812
 21
611.732
  0
LINE
  8
0
 10
128.812
 20
611.732
 11
128.956
 21
611.558
  0
LINE
  8
0
 10
128.956
 20
611.558
 11
129.077
 21
611.367
  0
LINE
  8
0
 10
129.077
 20
611.367
 11
129.174
 21
611.163
  0
LINE
  8
0
 10
129.174
 20
611.163
 11
129.243
 21
610.948
  0
LINE
  8
0
 10
129.243
 20
610.948
 11
129.286
 21
610.726
  0
LINE
  8
0
 10
129.286
 20
610.726
 11
129.3
 21
610.5
  0
LINE
  8
0
 10
129.3
 20
610.5
 11
129.286
 21
610.274
  0
LINE
  8
0
 10
129.286
 20
610.274
 11
129.243
 21
610.052
  0
LINE
  8
0
 10
129.243
 20
610.052
 11
129.174
 21
609.837
  0
LINE
  8
0
 10
129.174
 20
609.837
 11
129.077
 21
609.633
  0
LINE
  8
0
 10
129.077
 20
609.633
 11
128.956
 21
609.442
  0
LINE
  8
0
 10
128.956
 20
609.442
 11
128.812
 21
609.268
  0
LINE
  8
0
 10
128.812
 20
609.268
 11
128.647
 21
609.113
  0
LINE
  8
0
 10
128.647
 20
609.113
 11
128.464
 21
608.98
  0
LINE
  8
0
 10
128.464
 20
608.98
 11
128.266
 21
608.871
  0
LINE
  8
0
 10
128.266
 20
608.871
 11
128.056
 21
608.788
  0
LINE
  8
0
 10
128.056
 20
608.788
 11
127.837
 21
608.732
  0
LINE
  8
0
 10
127.837
 20
608.732
 11
127.613
 21
608.704
  0
LINE
  8
0
 10
127.613
 20
608.704
 11
127.387
 21
608.704
  0
LINE
  8
0
 10
-127.613
 20
608.704
 11
-127.837
 21
608.732
  0
LINE
  8
0
 10
-127.837
 20
608.732
 11
-128.056
 21
608.788
  0
LINE
  8
0
 10
-128.056
 20
608.788
 11
-128.266
 21
608.871
  0
LINE
  8
0
 10
-128.266
 20
608.871
 11
-128.464
 21
608.98
  0
LINE
  8
0
 10
-128.464
 20
608.98
 11
-128.647
 21
609.113
  0
LINE
  8
0
 10
-128.647
 20
609.113
 11
-128.812
 21
609.268
  0
LINE
  8
0
 10
-128.812
 20
609.268
 11
-128.956
 21
609.442
  0
LINE
  8
0
 10
-128.956
 20
609.442
 11
-129.077
 21
609.633
  0
LINE
  8
0
 10
-129.077
 20
609.633
 11
-129.174
 21
609.837
  0
LINE
  8
0
 10
-129.174
 20
609.837
 11
-129.243
 21
610.052
  0
LINE
  8
0
 10
-129.243
 20
610.052
 11
-129.286
 21
610.274
  0
LINE
  8
0
 10
-129.286
 20
610.274
 11
-129.3
 21
610.5
  0
LINE
  8
0
 10
-129.3
 20
610.5
 11
-129.286
 21
610.726
  0
LINE
  8
0
 10
-129.286
 20
610.726
 11
-129.243
 21
610.948
  0
LINE
  8
0
 10
-129.243
 20
610.948
 11
-129.174
 21
611.163
  0
LINE
  8
0
 10
-129.174
 20
611.163
 11
-129.077
 21
611.367
  0
LINE
  8
0
 10
-129.077
 20
611.367
 11
-128.956
 21
611.558
  0
LINE
  8
0
 10
-128.956
 20
611.558
 11
-128.812
 21
611.732
  0
LINE
  8
0
 10
-128.812
 20
611.732
 11
-128.647
 21
611.887
  0
LINE
  8
0
 10
-128.647
 20
611.887
 11
-128.464
 21
612.02
  0
LINE
  8
0
 10
-128.464
 20
612.02
 11
-128.266
 21
612.129
  0
LINE
  8
0
 10
-128.266
 20
612.129
 11
-128.056
 21
612.212
  0
LINE
  8
0
 10
-128.056
 20
612.212
 11
-127.837
 21
612.268
  0
LINE
  8
0
 10
-127.837
 20
612.268
 11
-127.613
 21
612.296
  0
LINE
  8
0
 10
-127.613
 20
612.296
 11
-127.387
 21
612.296
  0
LINE
  8
0
 10
-127.387
 20
612.296
 11
-127.163
 21
612.268
  0
LINE
  8
0
 10
-127.163
 20
612.268
 11
-126.944
 21
612.212
  0
LINE
  8
0
 10
-126.944
 20
612.212
 11
-126.734
 21
612.129
  0
LINE
  8
0
 10
-126.734
 20
612.129
 11
-126.536
 21
612.02
  0
LINE
  8
0
 10
-126.536
 20
612.02
 11
-126.353
 21
611.887
  0
LINE
  8
0
 10
-126.353
 20
611.887
 11
-126.188
 21
611.732
  0
LINE
  8
0
 10
-126.188
 20
611.732
 11
-126.044
 21
611.558
  0
LINE
  8
0
 10
-126.044
 20
611.558
 11
-125.923
 21
611.367
  0
LINE
  8
0
 10
-125.923
 20
611.367
 11
-125.826
 21
611.163
  0
LINE
  8
0
 10
-125.826
 20
611.163
 11
-125.757
 21
610.948
  0
LINE
  8
0
 10
-125.757
 20
610.948
 11
-125.714
 21
610.726
  0
LINE
  8
0
 10
-125.714
 20
610.726
 11
-125.7
 21
610.5
  0
LINE
  8
0
 10
-125.7
 20
610.5
 11
-125.714
 21
610.274
  0
LINE
  8
0
 10
-125.714
 20
610.274
 11
-125.757
 21
610.052
  0
LINE
  8
0
 10
-125.757
 20
610.052
 11
-125.826
 21
609.837
  0
LINE
  8
0
 10
-125.826
 20
609.837
 11
-125.923
 21
609.633
  0
LINE
  8
0
 10
-125.923
 20
609.633
 11
-126.044
 21
609.442
  0
LINE
  8
0
 10
-126.044
 20
609.442
 11
-126.188
 21
609.268
  0
LINE
  8
0
 10
-126.188
 20
609.268
 11
-126.353
 21
609.113
  0
LINE
  8
0
 10
-126.353
 20
609.113
 11
-126.536
 21
608.98
  0
LINE
  8
0
 10
-126.536
 20
608.98
 11
-126.734
 21
608.871
  0
LINE
  8
0
 10
-126.734
 20
608.871
 11
-126.944
 21
608.788
  0
LINE
  8
0
 10
-126.944
 20
608.788
 11
-127.163
 21
608.732
  0
LINE
  8
0
 10
-127.163
 20
608.732
 11
-127.387
 21
608.704
  0
LINE
  8
0
 10
-127.387
 20
608.704
 11
-127.613
 21
608.704
  0
LINE
  8
0
 10
-127.613
 20
383.704
 11
-127.837
 21
383.732
  0
LINE
  8
0
 10
-127.837
 20
383.732
 11
-128.056
 21
383.788
  0
LINE
  8
0
 10
-128.056
 20
383.788
 11
-128.266
 21
383.871
  0
LINE
  8
0
 10
-128.266
 20
383.871
 11
-128.464
 21
383.98
  0
LINE
  8
0
 10
-128.464
 20
383.98
 11
-128.647
 21
384.113
  0
LINE
  8
0
 10
-128.647
 20
384.113
 11
-128.812
 21
384.268
  0
LINE
  8
0
 10
-128.812
 20
384.268
 11
-128.956
 21
384.442
  0
LINE
  8
0
 10
-128.956
 20
384.442
 11
-129.077
 21
384.633
  0
LINE
  8
0
 10
-129.077
 20
384.633
 11
-129.174
 21
384.837
  0
LINE
  8
0
 10
-129.174
 20
384.837
 11
-129.243
 21
385.052
  0
LINE
  8
0
 10
-129.243
 20
385.052
 11
-129.286
 21
385.274
  0
LINE
  8
0
 10
-129.286
 20
385.274
 11
-129.3
 21
385.5
  0
LINE
  8
0
 10
-129.3
 20
385.5
 11
-129.286
 21
385.726
  0
LINE
  8
0
 10
-129.286
 20
385.726
 11
-129.243
 21
385.948
  0
LINE
  8
0
 10
-129.243
 20
385.948
 11
-129.174
 21
386.163
  0
LINE
  8
0
 10
-129.174
 20
386.163
 11
-129.077
 21
386.367
  0
LINE
  8
0
 10
-129.077
 20
386.367
 11
-128.956
 21
386.558
  0
LINE
  8
0
 10
-128.956
 20
386.558
 11
-128.812
 21
386.732
  0
LINE
  8
0
 10
-128.812
 20
386.732
 11
-128.647
 21
386.887
  0
LINE
  8
0
 10
-128.647
 20
386.887
 11
-128.464
 21
387.02
  0
LINE
  8
0
 10
-128.464
 20
387.02
 11
-128.266
 21
387.129
  0
LINE
  8
0
 10
-128.266
 20
387.129
 11
-128.056
 21
387.212
  0
LINE
  8
0
 10
-128.056
 20
387.212
 11
-127.837
 21
387.268
  0
LINE
  8
0
 10
-127.837
 20
387.268
 11
-127.613
 21
387.296
  0
LINE
  8
0
 10
-127.613
 20
387.296
 11
-127.387
 21
387.296
  0
LINE
  8
0
 10
-127.387
 20
387.296
 11
-127.163
 21
387.268
  0
LINE
  8
0
 10
-127.163
 20
387.268
 11
-126.944
 21
387.212
  0
LINE
  8
0
 10
-126.944
 20
387.212
 11
-126.734
 21
387.129
  0
LINE
  8
0
 10
-126.734
 20
387.129
 11
-126.536
 21
387.02
  0
LINE
  8
0
 10
-126.536
 20
387.02
 11
-126.353
 21
386.887
  0
LINE
  8
0
 10
-126.353
 20
386.887
 11
-126.188
 21
386.732
  0
LINE
  8
0
 10
-126.188
 20
386.732
 11
-126.044
 21
386.558
  0
LINE
  8
0
 10
-126.044
 20
386.558
 11
-125.923
 21
386.367
  0
LINE
  8
0
 10
-125.923
 20
386.367
 11
-125.826
 21
386.163
  0
LINE
  8
0
 10
-125.826
 20
386.163
 11
-125.757
 21
385.948
  0
LINE
  8
0
 10
-125.757
 20
385.948
 11
-125.714
 21
385.726
  0
LINE
  8
0
 10
-125.714
 20
385.726
 11
-125.7
 21
385.5
  0
LINE
  8
0
 10
-125.7
 20
385.5
 11
-125.714
 21
385.274
  0
LINE
  8
0
 10
-125.714
 20
385.274
 11
-125.757
 21
385.052
  0
LINE
  8
0
 10
-125.757
 20
385.052
 11
-125.826
 21
384.837
  0
LINE
  8
0
 10
-125.826
 20
384.837
 11
-125.923
 21
384.633
  0
LINE
  8
0
 10
-125.923
 20
384.633
 11
-126.044
 21
384.442
  0
LINE
  8
0
 10
-126.044
 20
384.442
 11
-126.188
 21
384.268
  0
LINE
  8
0
 10
-126.188
 20
384.268
 11
-126.353
 21
384.113
  0
LINE
  8
0
 10
-126.353
 20
384.113
 11
-126.536
 21
383.98
  0
LINE
  8
0
 10
-126.536
 20
383.98
 11
-126.734
 21
383.871
  0
LINE
  8
0
 10
-126.734
 20
383.871
 11
-126.944
 21
383.788
  0
LINE
  8
0
 10
-126.944
 20
383.788
 11
-127.163
 21
383.732
  0
LINE
  8
0
 10
-127.163
 20
383.732
 11
-127.387
 21
383.704
  0
LINE
  8
0
 10
-127.387
 20
383.704
 11
-127.613
 21
383.704
  0
LINE
  8
0
 10
127.387
 20
383.704
 11
127.163
 21
383.732
  0
LINE
  8
0
 10
127.163
 20
383.732
 11
126.944
 21
383.788
  0
LINE
  8
0
 10
126.944
 20
383.788
 11
126.734
 21
383.871
  0
LINE
  8
0
 10
126.734
 20
383.871
 11
126.536
 21
383.98
  0
LINE
  8
0
 10
126.536
 20
383.98
 11
126.353
 21
384.113
  0
LINE
  8
0
 10
126.353
 20
384.113
 11
126.188
 21
384.268
  0
LINE
  8
0
 10
126.188
 20
384.268
 11
126.044
 21
384.442
  0
LINE
  8
0
 10
126.044
 20
384.442
 11
125.923
 21
384.633
  0
LINE
  8
0
 10
125.923
 20
384.633
 11
125.826
 21
384.837
  0
LINE
  8
0
 10
125.826
 20
384.837
 11
125.757
 21
385.052
  0
LINE
  8
0
 10
125.757
 20
385.052
 11
125.714
 21
385.274
  0
LINE
  8
0
 10
125.714
 20
385.274
 11
125.7
 21
385.5
  0
LINE
  8
0
 10
125.7
 20
385.5
 11
125.714
 21
385.726
  0
LINE
  8
0
 10
125.714
 20
385.726
 11
125.757
 21
385.948
  0
LINE
  8
0
 10
125.757
 20
385.948
 11
125.826
 21
386.163
  0
LINE
  8
0
 10
125.826
 20
386.163
 11
125.923
 21
386.367
  0
LINE
  8
0
 10
125.923
 20
386.367
 11
126.044
 21
386.558
  0
LINE
  8
0
 10
126.044
 20
386.558
 11
126.188
 21
386.732
  0
LINE
  8
0
 10
126.188
 20
386.732
 11
126.353
 21
386.887
  0
LINE
  8
0
 10
126.353
 20
386.887
 11
126.536
 21
387.02
  0
LINE
  8
0
 10
126.536
 20
387.02
 11
126.734
 21
387.129
  0
LINE
  8
0
 10
126.734
 20
387.129
 11
126.944
 21
387.212
  0
LINE
  8
0
 10
126.944
 20
387.212
 11
127.163
 21
387.268
  0
LINE
  8
0
 10
127.163
 20
387.268
 11
127.387
 21
387.296
  0
LINE
  8
0
 10
127.387
 20
387.296
 11
127.613
 21
387.296
  0
LINE
  8
0
 10
127.613
 20
387.296
 11
127.837
 21
387.268
  0
LINE
  8
0
 10
127.837
 20
387.268
 11
128.056
 21
387.212
  0
LINE
  8
0
 10
128.056
 20
387.212
 11
128.266
 21
387.129
  0
LINE
  8
0
 10
128.266
 20
387.129
 11
128.464
 21
387.02
  0
LINE
  8
0
 10
128.464
 20
387.02
 11
128.647
 21
386.887
  0
LINE
  8
0
 10
128.647
 20
386.887
 11
128.812
 21
386.732
  0
LINE
  8
0
 10
128.812
 20
386.732
 11
128.956
 21
386.558
  0
LINE
  8
0
 10
128.956
 20
386.558
 11
129.077
 21
386.367
  0
LINE
  8
0
 10
129.077
 20
386.367
 11
129.174
 21
386.163
  0
LINE
  8
0
 10
129.174
 20
386.163
 11
129.243
 21
385.948
  0
LINE
  8
0
 10
129.243
 20
385.948
 11
129.286
 21
385.726
  0
LINE
  8
0
 10
129.286
 20
385.726
 11
129.3
 21
385.5
  0
LINE
  8
0
 10
129.3
 20
385.5
 11
129.286
 21
385.274
  0
LINE
  8
0
 10
129.286
 20
385.274
 11
129.243
 21
385.052
  0
LINE
  8
0
 10
129.243
 20
385.052
 11
129.174
 21
384.837
  0
LINE
  8
0
 10
129.174
 20
384.837
 11
129.077
 21
384.633
  0
LINE
  8
0
 10
129.077
 20
384.633
 11
128.956
 21
384.442
  0
LINE
  8
0
 10
128.956
 20
384.442
 11
128.812
 21
384.268
  0
LINE
  8
0
 10
128.812
 20
384.268
 11
128.647
 21
384.113
  0
LINE
  8
0
 10
128.647
 20
384.113
 11
128.464
 21
383.98
  0
LINE
  8
0
 10
128.464
 20
383.98
 11
128.266
 21
383.871
  0
LINE
  8
0
 10
128.266
 20
383.871
 11
128.056
 21
383.788
  0
LINE
  8
0
 10
128.056
 20
383.788
 11
127.837
 21
383.732
  0
LINE
  8
0
 10
127.837
 20
383.732
 11
127.613
 21
383.704
  0
LINE
  8
0
 10
127.613
 20
383.704
 11
127.387
 21
383.704
  0
ENDSEC
  0
SECTION
  2
OBJECTS
  0
DICTIONARY
  0
ENDSEC
  0
EOF
