  0
SECTION
  2
BLOCKS
  0
ENDSEC
  0
SECTION
  2
ENTITIES
  0
LINE
  8
0
 10
138.437
 20
961.589
 11
139.045
 21
961.745
  0
LINE
  8
0
 10
139.045
 20
961.745
 11
139.629
 21
961.976
  0
LINE
  8
0
 10
139.629
 20
961.976
 11
140.179
 21
962.278
  0
LINE
  8
0
 10
140.179
 20
962.278
 11
140.687
 21
962.647
  0
LINE
  8
0
 10
140.687
 20
962.647
 11
141.145
 21
963.077
  0
LINE
  8
0
 10
141.145
 20
963.077
 11
141.545
 21
963.561
  0
LINE
  8
0
 10
141.545
 20
963.561
 11
141.882
 21
964.091
  0
LINE
  8
0
 10
141.882
 20
964.091
 11
142.149
 21
964.659
  0
LINE
  8
0
 10
142.149
 20
964.659
 11
142.343
 21
965.257
  0
LINE
  8
0
 10
142.343
 20
965.257
 11
142.461
 21
965.873
  0
LINE
  8
0
 10
142.461
 20
965.873
 11
142.5
 21
966.5
  0
LINE
  8
0
 10
142.5
 20
966.5
 11
142.5
 21
1121.5
  0
LINE
  8
0
 10
142.5
 20
1121.5
 11
142.461
 21
1122.13
  0
LINE
  8
0
 10
142.461
 20
1122.13
 11
142.343
 21
1122.74
  0
LINE
  8
0
 10
142.343
 20
1122.74
 11
142.149
 21
1123.34
  0
LINE
  8
0
 10
142.149
 20
1123.34
 11
141.882
 21
1123.91
  0
LINE
  8
0
 10
141.882
 20
1123.91
 11
141.545
 21
1124.44
  0
LINE
  8
0
 10
141.545
 20
1124.44
 11
141.145
 21
1124.92
  0
LINE
  8
0
 10
141.145
 20
1124.92
 11
140.687
 21
1125.35
  0
LINE
  8
0
 10
140.687
 20
1125.35
 11
140.179
 21
1125.72
  0
LINE
  8
0
 10
140.179
 20
1125.72
 11
139.629
 21
1126.02
  0
LINE
  8
0
 10
139.629
 20
1126.02
 11
139.045
 21
1126.26
  0
LINE
  8
0
 10
139.045
 20
1126.26
 11
138.437
 21
1126.41
  0
LINE
  8
0
 10
138.437
 20
1126.41
 11
137.814
 21
1126.49
  0
LINE
  8
0
 10
137.814
 20
1126.49
 11
-137.814
 21
1126.49
  0
LINE
  8
0
 10
-137.814
 20
1126.49
 11
-138.437
 21
1126.41
  0
LINE
  8
0
 10
-138.437
 20
1126.41
 11
-139.045
 21
1126.26
  0
LINE
  8
0
 10
-139.045
 20
1126.26
 11
-139.629
 21
1126.02
  0
LINE
  8
0
 10
-139.629
 20
1126.02
 11
-140.179
 21
1125.72
  0
LINE
  8
0
 10
-140.179
 20
1125.72
 11
-140.687
 21
1125.35
  0
LINE
  8
0
 10
-140.687
 20
1125.35
 11
-141.145
 21
1124.92
  0
LINE
  8
0
 10
-141.145
 20
1124.92
 11
-141.545
 21
1124.44
  0
LINE
  8
0
 10
-141.545
 20
1124.44
 11
-141.882
 21
1123.91
  0
LINE
  8
0
 10
-141.882
 20
1123.91
 11
-142.149
 21
1123.34
  0
LINE
  8
0
 10
-142.149
 20
1123.34
 11
-142.343
 21
1122.74
  0
LINE
  8
0
 10
-142.343
 20
1122.74
 11
-142.461
 21
1122.13
  0
LINE
  8
0
 10
-142.461
 20
1122.13
 11
-142.5
 21
1121.5
  0
LINE
  8
0
 10
-142.5
 20
1121.5
 11
-142.5
 21
966.5
  0
LINE
  8
0
 10
-142.5
 20
966.5
 11
-142.461
 21
965.873
  0
LINE
  8
0
 10
-142.461
 20
965.873
 11
-142.343
 21
965.257
  0
LINE
  8
0
 10
-142.343
 20
965.257
 11
-142.149
 21
964.659
  0
LINE
  8
0
 10
-142.149
 20
964.659
 11
-141.882
 21
964.091
  0
LINE
  8
0
 10
-141.882
 20
964.091
 11
-141.545
 21
963.561
  0
LINE
  8
0
 10
-141.545
 20
963.561
 11
-141.145
 21
963.077
  0
LINE
  8
0
 10
-141.145
 20
963.077
 11
-140.687
 21
962.647
  0
LINE
  8
0
 10
-140.687
 20
962.647
 11
-140.179
 21
962.278
  0
LINE
  8
0
 10
-140.179
 20
962.278
 11
-139.629
 21
961.976
  0
LINE
  8
0
 10
-139.629
 20
961.976
 11
-139.045
 21
961.745
  0
LINE
  8
0
 10
-139.045
 20
961.745
 11
-138.437
 21
961.589
  0
LINE
  8
0
 10
-138.437
 20
961.589
 11
-137.814
 21
961.51
  0
LINE
  8
0
 10
-137.814
 20
961.51
 11
137.814
 21
961.51
  0
LINE
  8
0
 10
137.814
 20
961.51
 11
138.437
 21
961.589
  0
LINE
  8
0
 10
-137.548
 20
962.009
 11
-138.14
 21
962.084
  0
LINE
  8
0
 10
-138.14
 20
962.084
 11
-138.718
 21
962.232
  0
LINE
  8
0
 10
-138.718
 20
962.232
 11
-139.272
 21
962.452
  0
LINE
  8
0
 10
-139.272
 20
962.452
 11
-139.795
 21
962.739
  0
LINE
  8
0
 10
-139.795
 20
962.739
 11
-140.278
 21
963.09
  0
LINE
  8
0
 10
-140.278
 20
963.09
 11
-140.713
 21
963.498
  0
LINE
  8
0
 10
-140.713
 20
963.498
 11
-141.093
 21
963.958
  0
LINE
  8
0
 10
-141.093
 20
963.958
 11
-141.412
 21
964.462
  0
LINE
  8
0
 10
-141.412
 20
964.462
 11
-141.666
 21
965.001
  0
LINE
  8
0
 10
-141.666
 20
965.001
 11
-141.851
 21
965.569
  0
LINE
  8
0
 10
-141.851
 20
965.569
 11
-141.963
 21
966.155
  0
LINE
  8
0
 10
-141.963
 20
966.155
 11
-142
 21
966.75
  0
LINE
  8
0
 10
-142
 20
966.75
 11
-142
 21
1121.25
  0
LINE
  8
0
 10
-142
 20
1121.25
 11
-141.963
 21
1121.85
  0
LINE
  8
0
 10
-141.963
 20
1121.85
 11
-141.851
 21
1122.43
  0
LINE
  8
0
 10
-141.851
 20
1122.43
 11
-141.666
 21
1123
  0
LINE
  8
0
 10
-141.666
 20
1123
 11
-141.412
 21
1123.54
  0
LINE
  8
0
 10
-141.412
 20
1123.54
 11
-141.093
 21
1124.04
  0
LINE
  8
0
 10
-141.093
 20
1124.04
 11
-140.713
 21
1124.5
  0
LINE
  8
0
 10
-140.713
 20
1124.5
 11
-140.278
 21
1124.91
  0
LINE
  8
0
 10
-140.278
 20
1124.91
 11
-139.795
 21
1125.26
  0
LINE
  8
0
 10
-139.795
 20
1125.26
 11
-139.272
 21
1125.55
  0
LINE
  8
0
 10
-139.272
 20
1125.55
 11
-138.718
 21
1125.77
  0
LINE
  8
0
 10
-138.718
 20
1125.77
 11
-138.14
 21
1125.92
  0
LINE
  8
0
 10
-138.14
 20
1125.92
 11
-137.548
 21
1125.99
  0
LINE
  8
0
 10
-137.548
 20
1125.99
 11
137.548
 21
1125.99
  0
LINE
  8
0
 10
137.548
 20
1125.99
 11
138.14
 21
1125.92
  0
LINE
  8
0
 10
138.14
 20
1125.92
 11
138.718
 21
1125.77
  0
LINE
  8
0
 10
138.718
 20
1125.77
 11
139.272
 21
1125.55
  0
LINE
  8
0
 10
139.272
 20
1125.55
 11
139.795
 21
1125.26
  0
LINE
  8
0
 10
139.795
 20
1125.26
 11
140.278
 21
1124.91
  0
LINE
  8
0
 10
140.278
 20
1124.91
 11
140.713
 21
1124.5
  0
LINE
  8
0
 10
140.713
 20
1124.5
 11
141.093
 21
1124.04
  0
LINE
  8
0
 10
141.093
 20
1124.04
 11
141.412
 21
1123.54
  0
LINE
  8
0
 10
141.412
 20
1123.54
 11
141.666
 21
1123
  0
LINE
  8
0
 10
141.666
 20
1123
 11
141.851
 21
1122.43
  0
LINE
  8
0
 10
141.851
 20
1122.43
 11
141.963
 21
1121.85
  0
LINE
  8
0
 10
141.963
 20
1121.85
 11
142
 21
1121.25
  0
LINE
  8
0
 10
142
 20
1121.25
 11
142
 21
966.75
  0
LINE
  8
0
 10
142
 20
966.75
 11
141.963
 21
966.155
  0
LINE
  8
0
 10
141.963
 20
966.155
 11
141.851
 21
965.569
  0
LINE
  8
0
 10
141.851
 20
965.569
 11
141.666
 21
965.001
  0
LINE
  8
0
 10
141.666
 20
965.001
 11
141.412
 21
964.462
  0
LINE
  8
0
 10
141.412
 20
964.462
 11
141.093
 21
963.958
  0
LINE
  8
0
 10
141.093
 20
963.958
 11
140.713
 21
963.498
  0
LINE
  8
0
 10
140.713
 20
963.498
 11
140.278
 21
963.09
  0
LINE
  8
0
 10
140.278
 20
963.09
 11
139.795
 21
962.739
  0
LINE
  8
0
 10
139.795
 20
962.739
 11
139.272
 21
962.452
  0
LINE
  8
0
 10
139.272
 20
962.452
 11
138.718
 21
962.232
  0
LINE
  8
0
 10
138.718
 20
962.232
 11
138.14
 21
962.084
  0
LINE
  8
0
 10
138.14
 20
962.084
 11
137.548
 21
962.009
  0
LINE
  8
0
 10
137.548
 20
962.009
 11
-137.548
 21
962.009
  0
LINE
  8
0
 10
138.437
 20
787.589
 11
139.045
 21
787.745
  0
LINE
  8
0
 10
139.045
 20
787.745
 11
139.629
 21
787.976
  0
LINE
  8
0
 10
139.629
 20
787.976
 11
140.179
 21
788.278
  0
LINE
  8
0
 10
140.179
 20
788.278
 11
140.687
 21
788.647
  0
LINE
  8
0
 10
140.687
 20
788.647
 11
141.145
 21
789.077
  0
LINE
  8
0
 10
141.145
 20
789.077
 11
141.545
 21
789.561
  0
LINE
  8
0
 10
141.545
 20
789.561
 11
141.882
 21
790.091
  0
LINE
  8
0
 10
141.882
 20
790.091
 11
142.149
 21
790.659
  0
LINE
  8
0
 10
142.149
 20
790.659
 11
142.343
 21
791.257
  0
LINE
  8
0
 10
142.343
 20
791.257
 11
142.461
 21
791.873
  0
LINE
  8
0
 10
142.461
 20
791.873
 11
142.5
 21
792.5
  0
LINE
  8
0
 10
142.5
 20
792.5
 11
142.5
 21
947.5
  0
LINE
  8
0
 10
142.5
 20
947.5
 11
142.461
 21
948.127
  0
LINE
  8
0
 10
142.461
 20
948.127
 11
142.343
 21
948.743
  0
LINE
  8
0
 10
142.343
 20
948.743
 11
142.149
 21
949.341
  0
LINE
  8
0
 10
142.149
 20
949.341
 11
141.882
 21
949.909
  0
LINE
  8
0
 10
141.882
 20
949.909
 11
141.545
 21
950.439
  0
LINE
  8
0
 10
141.545
 20
950.439
 11
141.145
 21
950.923
  0
LINE
  8
0
 10
141.145
 20
950.923
 11
140.687
 21
951.353
  0
LINE
  8
0
 10
140.687
 20
951.353
 11
140.179
 21
951.722
  0
LINE
  8
0
 10
140.179
 20
951.722
 11
139.629
 21
952.024
  0
LINE
  8
0
 10
139.629
 20
952.024
 11
139.045
 21
952.255
  0
LINE
  8
0
 10
139.045
 20
952.255
 11
138.437
 21
952.411
  0
LINE
  8
0
 10
138.437
 20
952.411
 11
137.814
 21
952.49
  0
LINE
  8
0
 10
137.814
 20
952.49
 11
-137.814
 21
952.49
  0
LINE
  8
0
 10
-137.814
 20
952.49
 11
-138.437
 21
952.411
  0
LINE
  8
0
 10
-138.437
 20
952.411
 11
-139.045
 21
952.255
  0
LINE
  8
0
 10
-139.045
 20
952.255
 11
-139.629
 21
952.024
  0
LINE
  8
0
 10
-139.629
 20
952.024
 11
-140.179
 21
951.722
  0
LINE
  8
0
 10
-140.179
 20
951.722
 11
-140.687
 21
951.353
  0
LINE
  8
0
 10
-140.687
 20
951.353
 11
-141.145
 21
950.923
  0
LINE
  8
0
 10
-141.145
 20
950.923
 11
-141.545
 21
950.439
  0
LINE
  8
0
 10
-141.545
 20
950.439
 11
-141.882
 21
949.909
  0
LINE
  8
0
 10
-141.882
 20
949.909
 11
-142.149
 21
949.341
  0
LINE
  8
0
 10
-142.149
 20
949.341
 11
-142.343
 21
948.743
  0
LINE
  8
0
 10
-142.343
 20
948.743
 11
-142.461
 21
948.127
  0
LINE
  8
0
 10
-142.461
 20
948.127
 11
-142.5
 21
947.5
  0
LINE
  8
0
 10
-142.5
 20
947.5
 11
-142.5
 21
792.5
  0
LINE
  8
0
 10
-142.5
 20
792.5
 11
-142.461
 21
791.873
  0
LINE
  8
0
 10
-142.461
 20
791.873
 11
-142.343
 21
791.257
  0
LINE
  8
0
 10
-142.343
 20
791.257
 11
-142.149
 21
790.659
  0
LINE
  8
0
 10
-142.149
 20
790.659
 11
-141.882
 21
790.091
  0
LINE
  8
0
 10
-141.882
 20
790.091
 11
-141.545
 21
789.561
  0
LINE
  8
0
 10
-141.545
 20
789.561
 11
-141.145
 21
789.077
  0
LINE
  8
0
 10
-141.145
 20
789.077
 11
-140.687
 21
788.647
  0
LINE
  8
0
 10
-140.687
 20
788.647
 11
-140.179
 21
788.278
  0
LINE
  8
0
 10
-140.179
 20
788.278
 11
-139.629
 21
787.976
  0
LINE
  8
0
 10
-139.629
 20
787.976
 11
-139.045
 21
787.745
  0
LINE
  8
0
 10
-139.045
 20
787.745
 11
-138.437
 21
787.589
  0
LINE
  8
0
 10
-138.437
 20
787.589
 11
-137.814
 21
787.51
  0
LINE
  8
0
 10
-137.814
 20
787.51
 11
137.814
 21
787.51
  0
LINE
  8
0
 10
137.814
 20
787.51
 11
138.437
 21
787.589
  0
LINE
  8
0
 10
-137.548
 20
788.009
 11
-138.14
 21
788.084
  0
LINE
  8
0
 10
-138.14
 20
788.084
 11
-138.718
 21
788.232
  0
LINE
  8
0
 10
-138.718
 20
788.232
 11
-139.272
 21
788.452
  0
LINE
  8
0
 10
-139.272
 20
788.452
 11
-139.795
 21
788.739
  0
LINE
  8
0
 10
-139.795
 20
788.739
 11
-140.278
 21
789.09
  0
LINE
  8
0
 10
-140.278
 20
789.09
 11
-140.713
 21
789.498
  0
LINE
  8
0
 10
-140.713
 20
789.498
 11
-141.093
 21
789.958
  0
LINE
  8
0
 10
-141.093
 20
789.958
 11
-141.412
 21
790.462
  0
LINE
  8
0
 10
-141.412
 20
790.462
 11
-141.666
 21
791.001
  0
LINE
  8
0
 10
-141.666
 20
791.001
 11
-141.851
 21
791.569
  0
LINE
  8
0
 10
-141.851
 20
791.569
 11
-141.963
 21
792.155
  0
LINE
  8
0
 10
-141.963
 20
792.155
 11
-142
 21
792.75
  0
LINE
  8
0
 10
-142
 20
792.75
 11
-142
 21
947.25
  0
LINE
  8
0
 10
-142
 20
947.25
 11
-141.963
 21
947.845
  0
LINE
  8
0
 10
-141.963
 20
947.845
 11
-141.851
 21
948.431
  0
LINE
  8
0
 10
-141.851
 20
948.431
 11
-141.666
 21
948.999
  0
LINE
  8
0
 10
-141.666
 20
948.999
 11
-141.412
 21
949.538
  0
LINE
  8
0
 10
-141.412
 20
949.538
 11
-141.093
 21
950.042
  0
LINE
  8
0
 10
-141.093
 20
950.042
 11
-140.713
 21
950.502
  0
LINE
  8
0
 10
-140.713
 20
950.502
 11
-140.278
 21
950.91
  0
LINE
  8
0
 10
-140.278
 20
950.91
 11
-139.795
 21
951.261
  0
LINE
  8
0
 10
-139.795
 20
951.261
 11
-139.272
 21
951.548
  0
LINE
  8
0
 10
-139.272
 20
951.548
 11
-138.718
 21
951.768
  0
LINE
  8
0
 10
-138.718
 20
951.768
 11
-138.14
 21
951.916
  0
LINE
  8
0
 10
-138.14
 20
951.916
 11
-137.548
 21
951.991
  0
LINE
  8
0
 10
-137.548
 20
951.991
 11
137.548
 21
951.991
  0
LINE
  8
0
 10
137.548
 20
951.991
 11
138.14
 21
951.916
  0
LINE
  8
0
 10
138.14
 20
951.916
 11
138.718
 21
951.768
  0
LINE
  8
0
 10
138.718
 20
951.768
 11
139.272
 21
951.548
  0
LINE
  8
0
 10
139.272
 20
951.548
 11
139.795
 21
951.261
  0
LINE
  8
0
 10
139.795
 20
951.261
 11
140.278
 21
950.91
  0
LINE
  8
0
 10
140.278
 20
950.91
 11
140.713
 21
950.502
  0
LINE
  8
0
 10
140.713
 20
950.502
 11
141.093
 21
950.042
  0
LINE
  8
0
 10
141.093
 20
950.042
 11
141.412
 21
949.538
  0
LINE
  8
0
 10
141.412
 20
949.538
 11
141.666
 21
948.999
  0
LINE
  8
0
 10
141.666
 20
948.999
 11
141.851
 21
948.431
  0
LINE
  8
0
 10
141.851
 20
948.431
 11
141.963
 21
947.845
  0
LINE
  8
0
 10
141.963
 20
947.845
 11
142
 21
947.25
  0
LINE
  8
0
 10
142
 20
947.25
 11
142
 21
792.75
  0
LINE
  8
0
 10
142
 20
792.75
 11
141.963
 21
792.155
  0
LINE
  8
0
 10
141.963
 20
792.155
 11
141.851
 21
791.569
  0
LINE
  8
0
 10
141.851
 20
791.569
 11
141.666
 21
791.001
  0
LINE
  8
0
 10
141.666
 20
791.001
 11
141.412
 21
790.462
  0
LINE
  8
0
 10
141.412
 20
790.462
 11
141.093
 21
789.958
  0
LINE
  8
0
 10
141.093
 20
789.958
 11
140.713
 21
789.498
  0
LINE
  8
0
 10
140.713
 20
789.498
 11
140.278
 21
789.09
  0
LINE
  8
0
 10
140.278
 20
789.09
 11
139.795
 21
788.739
  0
LINE
  8
0
 10
139.795
 20
788.739
 11
139.272
 21
788.452
  0
LINE
  8
0
 10
139.272
 20
788.452
 11
138.718
 21
788.232
  0
LINE
  8
0
 10
138.718
 20
788.232
 11
138.14
 21
788.084
  0
LINE
  8
0
 10
138.14
 20
788.084
 11
137.548
 21
788.009
  0
LINE
  8
0
 10
137.548
 20
788.009
 11
-137.548
 21
788.009
  0
LINE
  8
0
 10
138.437
 20
613.589
 11
139.045
 21
613.745
  0
LINE
  8
0
 10
139.045
 20
613.745
 11
139.629
 21
613.976
  0
LINE
  8
0
 10
139.629
 20
613.976
 11
140.179
 21
614.278
  0
LINE
  8
0
 10
140.179
 20
614.278
 11
140.687
 21
614.647
  0
LINE
  8
0
 10
140.687
 20
614.647
 11
141.145
 21
615.077
  0
LINE
  8
0
 10
141.145
 20
615.077
 11
141.545
 21
615.561
  0
LINE
  8
0
 10
141.545
 20
615.561
 11
141.882
 21
616.091
  0
LINE
  8
0
 10
141.882
 20
616.091
 11
142.149
 21
616.659
  0
LINE
  8
0
 10
142.149
 20
616.659
 11
142.343
 21
617.257
  0
LINE
  8
0
 10
142.343
 20
617.257
 11
142.461
 21
617.873
  0
LINE
  8
0
 10
142.461
 20
617.873
 11
142.5
 21
618.5
  0
LINE
  8
0
 10
142.5
 20
618.5
 11
142.5
 21
773.5
  0
LINE
  8
0
 10
142.5
 20
773.5
 11
142.461
 21
774.127
  0
LINE
  8
0
 10
142.461
 20
774.127
 11
142.343
 21
774.743
  0
LINE
  8
0
 10
142.343
 20
774.743
 11
142.149
 21
775.341
  0
LINE
  8
0
 10
142.149
 20
775.341
 11
141.882
 21
775.909
  0
LINE
  8
0
 10
141.882
 20
775.909
 11
141.545
 21
776.439
  0
LINE
  8
0
 10
141.545
 20
776.439
 11
141.145
 21
776.923
  0
LINE
  8
0
 10
141.145
 20
776.923
 11
140.687
 21
777.353
  0
LINE
  8
0
 10
140.687
 20
777.353
 11
140.179
 21
777.722
  0
LINE
  8
0
 10
140.179
 20
777.722
 11
139.629
 21
778.024
  0
LINE
  8
0
 10
139.629
 20
778.024
 11
139.045
 21
778.255
  0
LINE
  8
0
 10
139.045
 20
778.255
 11
138.437
 21
778.411
  0
LINE
  8
0
 10
138.437
 20
778.411
 11
137.814
 21
778.49
  0
LINE
  8
0
 10
137.814
 20
778.49
 11
-137.814
 21
778.49
  0
LINE
  8
0
 10
-137.814
 20
778.49
 11
-138.437
 21
778.411
  0
LINE
  8
0
 10
-138.437
 20
778.411
 11
-139.045
 21
778.255
  0
LINE
  8
0
 10
-139.045
 20
778.255
 11
-139.629
 21
778.024
  0
LINE
  8
0
 10
-139.629
 20
778.024
 11
-140.179
 21
777.722
  0
LINE
  8
0
 10
-140.179
 20
777.722
 11
-140.687
 21
777.353
  0
LINE
  8
0
 10
-140.687
 20
777.353
 11
-141.145
 21
776.923
  0
LINE
  8
0
 10
-141.145
 20
776.923
 11
-141.545
 21
776.439
  0
LINE
  8
0
 10
-141.545
 20
776.439
 11
-141.882
 21
775.909
  0
LINE
  8
0
 10
-141.882
 20
775.909
 11
-142.149
 21
775.341
  0
LINE
  8
0
 10
-142.149
 20
775.341
 11
-142.343
 21
774.743
  0
LINE
  8
0
 10
-142.343
 20
774.743
 11
-142.461
 21
774.127
  0
LINE
  8
0
 10
-142.461
 20
774.127
 11
-142.5
 21
773.5
  0
LINE
  8
0
 10
-142.5
 20
773.5
 11
-142.5
 21
618.5
  0
LINE
  8
0
 10
-142.5
 20
618.5
 11
-142.461
 21
617.873
  0
LINE
  8
0
 10
-142.461
 20
617.873
 11
-142.343
 21
617.257
  0
LINE
  8
0
 10
-142.343
 20
617.257
 11
-142.149
 21
616.659
  0
LINE
  8
0
 10
-142.149
 20
616.659
 11
-141.882
 21
616.091
  0
LINE
  8
0
 10
-141.882
 20
616.091
 11
-141.545
 21
615.561
  0
LINE
  8
0
 10
-141.545
 20
615.561
 11
-141.145
 21
615.077
  0
LINE
  8
0
 10
-141.145
 20
615.077
 11
-140.687
 21
614.647
  0
LINE
  8
0
 10
-140.687
 20
614.647
 11
-140.179
 21
614.278
  0
LINE
  8
0
 10
-140.179
 20
614.278
 11
-139.629
 21
613.976
  0
LINE
  8
0
 10
-139.629
 20
613.976
 11
-139.045
 21
613.745
  0
LINE
  8
0
 10
-139.045
 20
613.745
 11
-138.437
 21
613.589
  0
LINE
  8
0
 10
-138.437
 20
613.589
 11
-137.814
 21
613.51
  0
LINE
  8
0
 10
-137.814
 20
613.51
 11
137.814
 21
613.51
  0
LINE
  8
0
 10
137.814
 20
613.51
 11
138.437
 21
613.589
  0
LINE
  8
0
 10
-137.493
 20
614.888
 11
-137.975
 21
614.949
  0
LINE
  8
0
 10
-137.975
 20
614.949
 11
-138.446
 21
615.07
  0
LINE
  8
0
 10
-138.446
 20
615.07
 11
-138.898
 21
615.249
  0
LINE
  8
0
 10
-138.898
 20
615.249
 11
-139.323
 21
615.483
  0
LINE
  8
0
 10
-139.323
 20
615.483
 11
-139.716
 21
615.769
  0
LINE
  8
0
 10
-139.716
 20
615.769
 11
-140.071
 21
616.101
  0
LINE
  8
0
 10
-140.071
 20
616.101
 11
-140.38
 21
616.476
  0
LINE
  8
0
 10
-140.38
 20
616.476
 11
-140.641
 21
616.886
  0
LINE
  8
0
 10
-140.641
 20
616.886
 11
-140.848
 21
617.326
  0
LINE
  8
0
 10
-140.848
 20
617.326
 11
-140.998
 21
617.788
  0
LINE
  8
0
 10
-140.998
 20
617.788
 11
-141.089
 21
618.265
  0
LINE
  8
0
 10
-141.089
 20
618.265
 11
-141.119
 21
618.75
  0
LINE
  8
0
 10
-141.119
 20
618.75
 11
-141.119
 21
773.25
  0
LINE
  8
0
 10
-141.119
 20
773.25
 11
-141.089
 21
773.735
  0
LINE
  8
0
 10
-141.089
 20
773.735
 11
-140.998
 21
774.212
  0
LINE
  8
0
 10
-140.998
 20
774.212
 11
-140.848
 21
774.674
  0
LINE
  8
0
 10
-140.848
 20
774.674
 11
-140.641
 21
775.114
  0
LINE
  8
0
 10
-140.641
 20
775.114
 11
-140.38
 21
775.524
  0
LINE
  8
0
 10
-140.38
 20
775.524
 11
-140.071
 21
775.899
  0
LINE
  8
0
 10
-140.071
 20
775.899
 11
-139.716
 21
776.231
  0
LINE
  8
0
 10
-139.716
 20
776.231
 11
-139.323
 21
776.517
  0
LINE
  8
0
 10
-139.323
 20
776.517
 11
-138.898
 21
776.751
  0
LINE
  8
0
 10
-138.898
 20
776.751
 11
-138.446
 21
776.93
  0
LINE
  8
0
 10
-138.446
 20
776.93
 11
-137.975
 21
777.051
  0
LINE
  8
0
 10
-137.975
 20
777.051
 11
-137.493
 21
777.112
  0
LINE
  8
0
 10
-137.493
 20
777.112
 11
137.493
 21
777.112
  0
LINE
  8
0
 10
137.493
 20
777.112
 11
137.975
 21
777.051
  0
LINE
  8
0
 10
137.975
 20
777.051
 11
138.446
 21
776.93
  0
LINE
  8
0
 10
138.446
 20
776.93
 11
138.898
 21
776.751
  0
LINE
  8
0
 10
138.898
 20
776.751
 11
139.323
 21
776.517
  0
LINE
  8
0
 10
139.323
 20
776.517
 11
139.716
 21
776.231
  0
LINE
  8
0
 10
139.716
 20
776.231
 11
140.071
 21
775.899
  0
LINE
  8
0
 10
140.071
 20
775.899
 11
140.38
 21
775.524
  0
LINE
  8
0
 10
140.38
 20
775.524
 11
140.641
 21
775.114
  0
LINE
  8
0
 10
140.641
 20
775.114
 11
140.848
 21
774.674
  0
LINE
  8
0
 10
140.848
 20
774.674
 11
140.998
 21
774.212
  0
LINE
  8
0
 10
140.998
 20
774.212
 11
141.089
 21
773.735
  0
LINE
  8
0
 10
141.089
 20
773.735
 11
141.119
 21
773.25
  0
LINE
  8
0
 10
141.119
 20
773.25
 11
141.119
 21
618.75
  0
LINE
  8
0
 10
141.119
 20
618.75
 11
141.089
 21
618.265
  0
LINE
  8
0
 10
141.089
 20
618.265
 11
140.998
 21
617.788
  0
LINE
  8
0
 10
140.998
 20
617.788
 11
140.848
 21
617.326
  0
LINE
  8
0
 10
140.848
 20
617.326
 11
140.641
 21
616.886
  0
LINE
  8
0
 10
140.641
 20
616.886
 11
140.38
 21
616.476
  0
LINE
  8
0
 10
140.38
 20
616.476
 11
140.071
 21
616.101
  0
LINE
  8
0
 10
140.071
 20
616.101
 11
139.716
 21
615.769
  0
LINE
  8
0
 10
139.716
 20
615.769
 11
139.323
 21
615.483
  0
LINE
  8
0
 10
139.323
 20
615.483
 11
138.898
 21
615.249
  0
LINE
  8
0
 10
138.898
 20
615.249
 11
138.446
 21
615.07
  0
LINE
  8
0
 10
138.446
 20
615.07
 11
137.975
 21
614.949
  0
LINE
  8
0
 10
137.975
 20
614.949
 11
137.493
 21
614.888
  0
LINE
  8
0
 10
137.493
 20
614.888
 11
-137.493
 21
614.888
  0
LINE
  8
0
 10
138.437
 20
439.589
 11
139.045
 21
439.745
  0
LINE
  8
0
 10
139.045
 20
439.745
 11
139.629
 21
439.976
  0
LINE
  8
0
 10
139.629
 20
439.976
 11
140.179
 21
440.278
  0
LINE
  8
0
 10
140.179
 20
440.278
 11
140.687
 21
440.647
  0
LINE
  8
0
 10
140.687
 20
440.647
 11
141.145
 21
441.077
  0
LINE
  8
0
 10
141.145
 20
441.077
 11
141.545
 21
441.561
  0
LINE
  8
0
 10
141.545
 20
441.561
 11
141.882
 21
442.091
  0
LINE
  8
0
 10
141.882
 20
442.091
 11
142.149
 21
442.659
  0
LINE
  8
0
 10
142.149
 20
442.659
 11
142.343
 21
443.257
  0
LINE
  8
0
 10
142.343
 20
443.257
 11
142.461
 21
443.873
  0
LINE
  8
0
 10
142.461
 20
443.873
 11
142.5
 21
444.5
  0
LINE
  8
0
 10
142.5
 20
444.5
 11
142.5
 21
599.5
  0
LINE
  8
0
 10
142.5
 20
599.5
 11
142.461
 21
600.127
  0
LINE
  8
0
 10
142.461
 20
600.127
 11
142.343
 21
600.743
  0
LINE
  8
0
 10
142.343
 20
600.743
 11
142.149
 21
601.341
  0
LINE
  8
0
 10
142.149
 20
601.341
 11
141.882
 21
601.909
  0
LINE
  8
0
 10
141.882
 20
601.909
 11
141.545
 21
602.439
  0
LINE
  8
0
 10
141.545
 20
602.439
 11
141.145
 21
602.923
  0
LINE
  8
0
 10
141.145
 20
602.923
 11
140.687
 21
603.353
  0
LINE
  8
0
 10
140.687
 20
603.353
 11
140.179
 21
603.722
  0
LINE
  8
0
 10
140.179
 20
603.722
 11
139.629
 21
604.024
  0
LINE
  8
0
 10
139.629
 20
604.024
 11
139.045
 21
604.255
  0
LINE
  8
0
 10
139.045
 20
604.255
 11
138.437
 21
604.411
  0
LINE
  8
0
 10
138.437
 20
604.411
 11
137.814
 21
604.49
  0
LINE
  8
0
 10
137.814
 20
604.49
 11
-137.814
 21
604.49
  0
LINE
  8
0
 10
-137.814
 20
604.49
 11
-138.437
 21
604.411
  0
LINE
  8
0
 10
-138.437
 20
604.411
 11
-139.045
 21
604.255
  0
LINE
  8
0
 10
-139.045
 20
604.255
 11
-139.629
 21
604.024
  0
LINE
  8
0
 10
-139.629
 20
604.024
 11
-140.179
 21
603.722
  0
LINE
  8
0
 10
-140.179
 20
603.722
 11
-140.687
 21
603.353
  0
LINE
  8
0
 10
-140.687
 20
603.353
 11
-141.145
 21
602.923
  0
LINE
  8
0
 10
-141.145
 20
602.923
 11
-141.545
 21
602.439
  0
LINE
  8
0
 10
-141.545
 20
602.439
 11
-141.882
 21
601.909
  0
LINE
  8
0
 10
-141.882
 20
601.909
 11
-142.149
 21
601.341
  0
LINE
  8
0
 10
-142.149
 20
601.341
 11
-142.343
 21
600.743
  0
LINE
  8
0
 10
-142.343
 20
600.743
 11
-142.461
 21
600.127
  0
LINE
  8
0
 10
-142.461
 20
600.127
 11
-142.5
 21
599.5
  0
LINE
  8
0
 10
-142.5
 20
599.5
 11
-142.5
 21
444.5
  0
LINE
  8
0
 10
-142.5
 20
444.5
 11
-142.461
 21
443.873
  0
LINE
  8
0
 10
-142.461
 20
443.873
 11
-142.343
 21
443.257
  0
LINE
  8
0
 10
-142.343
 20
443.257
 11
-142.149
 21
442.659
  0
LINE
  8
0
 10
-142.149
 20
442.659
 11
-141.882
 21
442.091
  0
LINE
  8
0
 10
-141.882
 20
442.091
 11
-141.545
 21
441.561
  0
LINE
  8
0
 10
-141.545
 20
441.561
 11
-141.145
 21
441.077
  0
LINE
  8
0
 10
-141.145
 20
441.077
 11
-140.687
 21
440.647
  0
LINE
  8
0
 10
-140.687
 20
440.647
 11
-140.179
 21
440.278
  0
LINE
  8
0
 10
-140.179
 20
440.278
 11
-139.629
 21
439.976
  0
LINE
  8
0
 10
-139.629
 20
439.976
 11
-139.045
 21
439.745
  0
LINE
  8
0
 10
-139.045
 20
439.745
 11
-138.437
 21
439.589
  0
LINE
  8
0
 10
-138.437
 20
439.589
 11
-137.814
 21
439.51
  0
LINE
  8
0
 10
-137.814
 20
439.51
 11
137.814
 21
439.51
  0
LINE
  8
0
 10
137.814
 20
439.51
 11
138.437
 21
439.589
  0
LINE
  8
0
 10
-135.113
 20
595.204
 11
-135.337
 21
595.232
  0
LINE
  8
0
 10
-135.337
 20
595.232
 11
-135.556
 21
595.288
  0
LINE
  8
0
 10
-135.556
 20
595.288
 11
-135.766
 21
595.371
  0
LINE
  8
0
 10
-135.766
 20
595.371
 11
-135.964
 21
595.48
  0
LINE
  8
0
 10
-135.964
 20
595.48
 11
-136.147
 21
595.613
  0
LINE
  8
0
 10
-136.147
 20
595.613
 11
-136.312
 21
595.768
  0
LINE
  8
0
 10
-136.312
 20
595.768
 11
-136.456
 21
595.942
  0
LINE
  8
0
 10
-136.456
 20
595.942
 11
-136.577
 21
596.133
  0
LINE
  8
0
 10
-136.577
 20
596.133
 11
-136.674
 21
596.337
  0
LINE
  8
0
 10
-136.674
 20
596.337
 11
-136.743
 21
596.552
  0
LINE
  8
0
 10
-136.743
 20
596.552
 11
-136.786
 21
596.774
  0
LINE
  8
0
 10
-136.786
 20
596.774
 11
-136.8
 21
597
  0
LINE
  8
0
 10
-136.8
 20
597
 11
-136.786
 21
597.226
  0
LINE
  8
0
 10
-136.786
 20
597.226
 11
-136.743
 21
597.448
  0
LINE
  8
0
 10
-136.743
 20
597.448
 11
-136.674
 21
597.663
  0
LINE
  8
0
 10
-136.674
 20
597.663
 11
-136.577
 21
597.867
  0
LINE
  8
0
 10
-136.577
 20
597.867
 11
-136.456
 21
598.058
  0
LINE
  8
0
 10
-136.456
 20
598.058
 11
-136.312
 21
598.232
  0
LINE
  8
0
 10
-136.312
 20
598.232
 11
-136.147
 21
598.387
  0
LINE
  8
0
 10
-136.147
 20
598.387
 11
-135.964
 21
598.52
  0
LINE
  8
0
 10
-135.964
 20
598.52
 11
-135.766
 21
598.629
  0
LINE
  8
0
 10
-135.766
 20
598.629
 11
-135.556
 21
598.712
  0
LINE
  8
0
 10
-135.556
 20
598.712
 11
-135.337
 21
598.768
  0
LINE
  8
0
 10
-135.337
 20
598.768
 11
-135.113
 21
598.796
  0
LINE
  8
0
 10
-135.113
 20
598.796
 11
-134.887
 21
598.796
  0
LINE
  8
0
 10
-134.887
 20
598.796
 11
-134.663
 21
598.768
  0
LINE
  8
0
 10
-134.663
 20
598.768
 11
-134.444
 21
598.712
  0
LINE
  8
0
 10
-134.444
 20
598.712
 11
-134.234
 21
598.629
  0
LINE
  8
0
 10
-134.234
 20
598.629
 11
-134.036
 21
598.52
  0
LINE
  8
0
 10
-134.036
 20
598.52
 11
-133.853
 21
598.387
  0
LINE
  8
0
 10
-133.853
 20
598.387
 11
-133.688
 21
598.232
  0
LINE
  8
0
 10
-133.688
 20
598.232
 11
-133.544
 21
598.058
  0
LINE
  8
0
 10
-133.544
 20
598.058
 11
-133.423
 21
597.867
  0
LINE
  8
0
 10
-133.423
 20
597.867
 11
-133.326
 21
597.663
  0
LINE
  8
0
 10
-133.326
 20
597.663
 11
-133.257
 21
597.448
  0
LINE
  8
0
 10
-133.257
 20
597.448
 11
-133.214
 21
597.226
  0
LINE
  8
0
 10
-133.214
 20
597.226
 11
-133.2
 21
597
  0
LINE
  8
0
 10
-133.2
 20
597
 11
-133.214
 21
596.774
  0
LINE
  8
0
 10
-133.214
 20
596.774
 11
-133.257
 21
596.552
  0
LINE
  8
0
 10
-133.257
 20
596.552
 11
-133.326
 21
596.337
  0
LINE
  8
0
 10
-133.326
 20
596.337
 11
-133.423
 21
596.133
  0
LINE
  8
0
 10
-133.423
 20
596.133
 11
-133.544
 21
595.942
  0
LINE
  8
0
 10
-133.544
 20
595.942
 11
-133.688
 21
595.768
  0
LINE
  8
0
 10
-133.688
 20
595.768
 11
-133.853
 21
595.613
  0
LINE
  8
0
 10
-133.853
 20
595.613
 11
-134.036
 21
595.48
  0
LINE
  8
0
 10
-134.036
 20
595.48
 11
-134.234
 21
595.371
  0
LINE
  8
0
 10
-134.234
 20
595.371
 11
-134.444
 21
595.288
  0
LINE
  8
0
 10
-134.444
 20
595.288
 11
-134.663
 21
595.232
  0
LINE
  8
0
 10
-134.663
 20
595.232
 11
-134.887
 21
595.204
  0
LINE
  8
0
 10
-134.887
 20
595.204
 11
-135.113
 21
595.204
  0
LINE
  8
0
 10
134.887
 20
595.204
 11
134.663
 21
595.232
  0
LINE
  8
0
 10
134.663
 20
595.232
 11
134.444
 21
595.288
  0
LINE
  8
0
 10
134.444
 20
595.288
 11
134.234
 21
595.371
  0
LINE
  8
0
 10
134.234
 20
595.371
 11
134.036
 21
595.48
  0
LINE
  8
0
 10
134.036
 20
595.48
 11
133.853
 21
595.613
  0
LINE
  8
0
 10
133.853
 20
595.613
 11
133.688
 21
595.768
  0
LINE
  8
0
 10
133.688
 20
595.768
 11
133.544
 21
595.942
  0
LINE
  8
0
 10
133.544
 20
595.942
 11
133.423
 21
596.133
  0
LINE
  8
0
 10
133.423
 20
596.133
 11
133.326
 21
596.337
  0
LINE
  8
0
 10
133.326
 20
596.337
 11
133.257
 21
596.552
  0
LINE
  8
0
 10
133.257
 20
596.552
 11
133.214
 21
596.774
  0
LINE
  8
0
 10
133.214
 20
596.774
 11
133.2
 21
597
  0
LINE
  8
0
 10
133.2
 20
597
 11
133.214
 21
597.226
  0
LINE
  8
0
 10
133.214
 20
597.226
 11
133.257
 21
597.448
  0
LINE
  8
0
 10
133.257
 20
597.448
 11
133.326
 21
597.663
  0
LINE
  8
0
 10
133.326
 20
597.663
 11
133.423
 21
597.867
  0
LINE
  8
0
 10
133.423
 20
597.867
 11
133.544
 21
598.058
  0
LINE
  8
0
 10
133.544
 20
598.058
 11
133.688
 21
598.232
  0
LINE
  8
0
 10
133.688
 20
598.232
 11
133.853
 21
598.387
  0
LINE
  8
0
 10
133.853
 20
598.387
 11
134.036
 21
598.52
  0
LINE
  8
0
 10
134.036
 20
598.52
 11
134.234
 21
598.629
  0
LINE
  8
0
 10
134.234
 20
598.629
 11
134.444
 21
598.712
  0
LINE
  8
0
 10
134.444
 20
598.712
 11
134.663
 21
598.768
  0
LINE
  8
0
 10
134.663
 20
598.768
 11
134.887
 21
598.796
  0
LINE
  8
0
 10
134.887
 20
598.796
 11
135.113
 21
598.796
  0
LINE
  8
0
 10
135.113
 20
598.796
 11
135.337
 21
598.768
  0
LINE
  8
0
 10
135.337
 20
598.768
 11
135.556
 21
598.712
  0
LINE
  8
0
 10
135.556
 20
598.712
 11
135.766
 21
598.629
  0
LINE
  8
0
 10
135.766
 20
598.629
 11
135.964
 21
598.52
  0
LINE
  8
0
 10
135.964
 20
598.52
 11
136.147
 21
598.387
  0
LINE
  8
0
 10
136.147
 20
598.387
 11
136.312
 21
598.232
  0
LINE
  8
0
 10
136.312
 20
598.232
 11
136.456
 21
598.058
  0
LINE
  8
0
 10
136.456
 20
598.058
 11
136.577
 21
597.867
  0
LINE
  8
0
 10
136.577
 20
597.867
 11
136.674
 21
597.663
  0
LINE
  8
0
 10
136.674
 20
597.663
 11
136.743
 21
597.448
  0
LINE
  8
0
 10
136.743
 20
597.448
 11
136.786
 21
597.226
  0
LINE
  8
0
 10
136.786
 20
597.226
 11
136.8
 21
597
  0
LINE
  8
0
 10
136.8
 20
597
 11
136.786
 21
596.774
  0
LINE
  8
0
 10
136.786
 20
596.774
 11
136.743
 21
596.552
  0
LINE
  8
0
 10
136.743
 20
596.552
 11
136.674
 21
596.337
  0
LINE
  8
0
 10
136.674
 20
596.337
 11
136.577
 21
596.133
  0
LINE
  8
0
 10
136.577
 20
596.133
 11
136.456
 21
595.942
  0
LINE
  8
0
 10
136.456
 20
595.942
 11
136.312
 21
595.768
  0
LINE
  8
0
 10
136.312
 20
595.768
 11
136.147
 21
595.613
  0
LINE
  8
0
 10
136.147
 20
595.613
 11
135.964
 21
595.48
  0
LINE
  8
0
 10
135.964
 20
595.48
 11
135.766
 21
595.371
  0
LINE
  8
0
 10
135.766
 20
595.371
 11
135.556
 21
595.288
  0
LINE
  8
0
 10
135.556
 20
595.288
 11
135.337
 21
595.232
  0
LINE
  8
0
 10
135.337
 20
595.232
 11
135.113
 21
595.204
  0
LINE
  8
0
 10
135.113
 20
595.204
 11
134.887
 21
595.204
  0
LINE
  8
0
 10
-135.113
 20
445.204
 11
-135.337
 21
445.232
  0
LINE
  8
0
 10
-135.337
 20
445.232
 11
-135.556
 21
445.288
  0
LINE
  8
0
 10
-135.556
 20
445.288
 11
-135.766
 21
445.371
  0
LINE
  8
0
 10
-135.766
 20
445.371
 11
-135.964
 21
445.48
  0
LINE
  8
0
 10
-135.964
 20
445.48
 11
-136.147
 21
445.613
  0
LINE
  8
0
 10
-136.147
 20
445.613
 11
-136.312
 21
445.768
  0
LINE
  8
0
 10
-136.312
 20
445.768
 11
-136.456
 21
445.942
  0
LINE
  8
0
 10
-136.456
 20
445.942
 11
-136.577
 21
446.133
  0
LINE
  8
0
 10
-136.577
 20
446.133
 11
-136.674
 21
446.337
  0
LINE
  8
0
 10
-136.674
 20
446.337
 11
-136.743
 21
446.552
  0
LINE
  8
0
 10
-136.743
 20
446.552
 11
-136.786
 21
446.774
  0
LINE
  8
0
 10
-136.786
 20
446.774
 11
-136.8
 21
447
  0
LINE
  8
0
 10
-136.8
 20
447
 11
-136.786
 21
447.226
  0
LINE
  8
0
 10
-136.786
 20
447.226
 11
-136.743
 21
447.448
  0
LINE
  8
0
 10
-136.743
 20
447.448
 11
-136.674
 21
447.663
  0
LINE
  8
0
 10
-136.674
 20
447.663
 11
-136.577
 21
447.867
  0
LINE
  8
0
 10
-136.577
 20
447.867
 11
-136.456
 21
448.058
  0
LINE
  8
0
 10
-136.456
 20
448.058
 11
-136.312
 21
448.232
  0
LINE
  8
0
 10
-136.312
 20
448.232
 11
-136.147
 21
448.387
  0
LINE
  8
0
 10
-136.147
 20
448.387
 11
-135.964
 21
448.52
  0
LINE
  8
0
 10
-135.964
 20
448.52
 11
-135.766
 21
448.629
  0
LINE
  8
0
 10
-135.766
 20
448.629
 11
-135.556
 21
448.712
  0
LINE
  8
0
 10
-135.556
 20
448.712
 11
-135.337
 21
448.768
  0
LINE
  8
0
 10
-135.337
 20
448.768
 11
-135.113
 21
448.796
  0
LINE
  8
0
 10
-135.113
 20
448.796
 11
-134.887
 21
448.796
  0
LINE
  8
0
 10
-134.887
 20
448.796
 11
-134.663
 21
448.768
  0
LINE
  8
0
 10
-134.663
 20
448.768
 11
-134.444
 21
448.712
  0
LINE
  8
0
 10
-134.444
 20
448.712
 11
-134.234
 21
448.629
  0
LINE
  8
0
 10
-134.234
 20
448.629
 11
-134.036
 21
448.52
  0
LINE
  8
0
 10
-134.036
 20
448.52
 11
-133.853
 21
448.387
  0
LINE
  8
0
 10
-133.853
 20
448.387
 11
-133.688
 21
448.232
  0
LINE
  8
0
 10
-133.688
 20
448.232
 11
-133.544
 21
448.058
  0
LINE
  8
0
 10
-133.544
 20
448.058
 11
-133.423
 21
447.867
  0
LINE
  8
0
 10
-133.423
 20
447.867
 11
-133.326
 21
447.663
  0
LINE
  8
0
 10
-133.326
 20
447.663
 11
-133.257
 21
447.448
  0
LINE
  8
0
 10
-133.257
 20
447.448
 11
-133.214
 21
447.226
  0
LINE
  8
0
 10
-133.214
 20
447.226
 11
-133.2
 21
447
  0
LINE
  8
0
 10
-133.2
 20
447
 11
-133.214
 21
446.774
  0
LINE
  8
0
 10
-133.214
 20
446.774
 11
-133.257
 21
446.552
  0
LINE
  8
0
 10
-133.257
 20
446.552
 11
-133.326
 21
446.337
  0
LINE
  8
0
 10
-133.326
 20
446.337
 11
-133.423
 21
446.133
  0
LINE
  8
0
 10
-133.423
 20
446.133
 11
-133.544
 21
445.942
  0
LINE
  8
0
 10
-133.544
 20
445.942
 11
-133.688
 21
445.768
  0
LINE
  8
0
 10
-133.688
 20
445.768
 11
-133.853
 21
445.613
  0
LINE
  8
0
 10
-133.853
 20
445.613
 11
-134.036
 21
445.48
  0
LINE
  8
0
 10
-134.036
 20
445.48
 11
-134.234
 21
445.371
  0
LINE
  8
0
 10
-134.234
 20
445.371
 11
-134.444
 21
445.288
  0
LINE
  8
0
 10
-134.444
 20
445.288
 11
-134.663
 21
445.232
  0
LINE
  8
0
 10
-134.663
 20
445.232
 11
-134.887
 21
445.204
  0
LINE
  8
0
 10
-134.887
 20
445.204
 11
-135.113
 21
445.204
  0
LINE
  8
0
 10
134.887
 20
445.204
 11
134.663
 21
445.232
  0
LINE
  8
0
 10
134.663
 20
445.232
 11
134.444
 21
445.288
  0
LINE
  8
0
 10
134.444
 20
445.288
 11
134.234
 21
445.371
  0
LINE
  8
0
 10
134.234
 20
445.371
 11
134.036
 21
445.48
  0
LINE
  8
0
 10
134.036
 20
445.48
 11
133.853
 21
445.613
  0
LINE
  8
0
 10
133.853
 20
445.613
 11
133.688
 21
445.768
  0
LINE
  8
0
 10
133.688
 20
445.768
 11
133.544
 21
445.942
  0
LINE
  8
0
 10
133.544
 20
445.942
 11
133.423
 21
446.133
  0
LINE
  8
0
 10
133.423
 20
446.133
 11
133.326
 21
446.337
  0
LINE
  8
0
 10
133.326
 20
446.337
 11
133.257
 21
446.552
  0
LINE
  8
0
 10
133.257
 20
446.552
 11
133.214
 21
446.774
  0
LINE
  8
0
 10
133.214
 20
446.774
 11
133.2
 21
447
  0
LINE
  8
0
 10
133.2
 20
447
 11
133.214
 21
447.226
  0
LINE
  8
0
 10
133.214
 20
447.226
 11
133.257
 21
447.448
  0
LINE
  8
0
 10
133.257
 20
447.448
 11
133.326
 21
447.663
  0
LINE
  8
0
 10
133.326
 20
447.663
 11
133.423
 21
447.867
  0
LINE
  8
0
 10
133.423
 20
447.867
 11
133.544
 21
448.058
  0
LINE
  8
0
 10
133.544
 20
448.058
 11
133.688
 21
448.232
  0
LINE
  8
0
 10
133.688
 20
448.232
 11
133.853
 21
448.387
  0
LINE
  8
0
 10
133.853
 20
448.387
 11
134.036
 21
448.52
  0
LINE
  8
0
 10
134.036
 20
448.52
 11
134.234
 21
448.629
  0
LINE
  8
0
 10
134.234
 20
448.629
 11
134.444
 21
448.712
  0
LINE
  8
0
 10
134.444
 20
448.712
 11
134.663
 21
448.768
  0
LINE
  8
0
 10
134.663
 20
448.768
 11
134.887
 21
448.796
  0
LINE
  8
0
 10
134.887
 20
448.796
 11
135.113
 21
448.796
  0
LINE
  8
0
 10
135.113
 20
448.796
 11
135.337
 21
448.768
  0
LINE
  8
0
 10
135.337
 20
448.768
 11
135.556
 21
448.712
  0
LINE
  8
0
 10
135.556
 20
448.712
 11
135.766
 21
448.629
  0
LINE
  8
0
 10
135.766
 20
448.629
 11
135.964
 21
448.52
  0
LINE
  8
0
 10
135.964
 20
448.52
 11
136.147
 21
448.387
  0
LINE
  8
0
 10
136.147
 20
448.387
 11
136.312
 21
448.232
  0
LINE
  8
0
 10
136.312
 20
448.232
 11
136.456
 21
448.058
  0
LINE
  8
0
 10
136.456
 20
448.058
 11
136.577
 21
447.867
  0
LINE
  8
0
 10
136.577
 20
447.867
 11
136.674
 21
447.663
  0
LINE
  8
0
 10
136.674
 20
447.663
 11
136.743
 21
447.448
  0
LINE
  8
0
 10
136.743
 20
447.448
 11
136.786
 21
447.226
  0
LINE
  8
0
 10
136.786
 20
447.226
 11
136.8
 21
447
  0
LINE
  8
0
 10
136.8
 20
447
 11
136.786
 21
446.774
  0
LINE
  8
0
 10
136.786
 20
446.774
 11
136.743
 21
446.552
  0
LINE
  8
0
 10
136.743
 20
446.552
 11
136.674
 21
446.337
  0
LINE
  8
0
 10
136.674
 20
446.337
 11
136.577
 21
446.133
  0
LINE
  8
0
 10
136.577
 20
446.133
 11
136.456
 21
445.942
  0
LINE
  8
0
 10
136.456
 20
445.942
 11
136.312
 21
445.768
  0
LINE
  8
0
 10
136.312
 20
445.768
 11
136.147
 21
445.613
  0
LINE
  8
0
 10
136.147
 20
445.613
 11
135.964
 21
445.48
  0
LINE
  8
0
 10
135.964
 20
445.48
 11
135.766
 21
445.371
  0
LINE
  8
0
 10
135.766
 20
445.371
 11
135.556
 21
445.288
  0
LINE
  8
0
 10
135.556
 20
445.288
 11
135.337
 21
445.232
  0
LINE
  8
0
 10
135.337
 20
445.232
 11
135.113
 21
445.204
  0
LINE
  8
0
 10
135.113
 20
445.204
 11
134.887
 21
445.204
  0
ENDSEC
  0
SECTION
  2
OBJECTS
  0
DICTIONARY
  0
ENDSEC
  0
EOF
