  0
SECTION
  2
BLOCKS
  0
ENDSEC
  0
SECTION
  2
ENTITIES
  0
LINE
  8
0
 10
-133.5
 20
1867.44
 11
-133.187
 21
1867.15
  0
LINE
  8
0
 10
-133.187
 20
1867.15
 11
-132.679
 21
1866.78
  0
LINE
  8
0
 10
-132.679
 20
1866.78
 11
-132.129
 21
1866.48
  0
LINE
  8
0
 10
-132.129
 20
1866.48
 11
-131.545
 21
1866.24
  0
LINE
  8
0
 10
-131.545
 20
1866.24
 11
-130.937
 21
1866.09
  0
LINE
  8
0
 10
-130.937
 20
1866.09
 11
-130.314
 21
1866.01
  0
LINE
  8
0
 10
-130.314
 20
1866.01
 11
130.314
 21
1866.01
  0
LINE
  8
0
 10
130.314
 20
1866.01
 11
130.937
 21
1866.09
  0
LINE
  8
0
 10
130.937
 20
1866.09
 11
131.545
 21
1866.24
  0
LINE
  8
0
 10
131.545
 20
1866.24
 11
132.129
 21
1866.48
  0
LINE
  8
0
 10
132.129
 20
1866.48
 11
132.679
 21
1866.78
  0
LINE
  8
0
 10
132.679
 20
1866.78
 11
133.187
 21
1867.15
  0
LINE
  8
0
 10
133.187
 20
1867.15
 11
133.645
 21
1867.58
  0
LINE
  8
0
 10
133.645
 20
1867.58
 11
134.045
 21
1868.06
  0
LINE
  8
0
 10
134.045
 20
1868.06
 11
134.382
 21
1868.59
  0
LINE
  8
0
 10
134.382
 20
1868.59
 11
134.649
 21
1869.16
  0
LINE
  8
0
 10
134.649
 20
1869.16
 11
134.843
 21
1869.76
  0
LINE
  8
0
 10
134.843
 20
1869.76
 11
134.961
 21
1870.37
  0
LINE
  8
0
 10
134.961
 20
1870.37
 11
135
 21
1871
  0
LINE
  8
0
 10
135
 20
1871
 11
135
 21
2071
  0
LINE
  8
0
 10
135
 20
2071
 11
134.961
 21
2071.63
  0
LINE
  8
0
 10
134.961
 20
2071.63
 11
134.843
 21
2072.24
  0
LINE
  8
0
 10
134.843
 20
2072.24
 11
134.649
 21
2072.84
  0
LINE
  8
0
 10
134.649
 20
2072.84
 11
134.382
 21
2073.41
  0
LINE
  8
0
 10
134.382
 20
2073.41
 11
134.045
 21
2073.94
  0
LINE
  8
0
 10
134.045
 20
2073.94
 11
133.645
 21
2074.42
  0
LINE
  8
0
 10
133.645
 20
2074.42
 11
133.187
 21
2074.85
  0
LINE
  8
0
 10
133.187
 20
2074.85
 11
132.679
 21
2075.22
  0
LINE
  8
0
 10
132.679
 20
2075.22
 11
132.129
 21
2075.52
  0
LINE
  8
0
 10
132.129
 20
2075.52
 11
131.545
 21
2075.76
  0
LINE
  8
0
 10
131.545
 20
2075.76
 11
130.937
 21
2075.91
  0
LINE
  8
0
 10
130.937
 20
2075.91
 11
130.314
 21
2075.99
  0
LINE
  8
0
 10
130.314
 20
2075.99
 11
-130.314
 21
2075.99
  0
LINE
  8
0
 10
-130.314
 20
2075.99
 11
-130.937
 21
2075.91
  0
LINE
  8
0
 10
-130.937
 20
2075.91
 11
-131.545
 21
2075.76
  0
LINE
  8
0
 10
-131.545
 20
2075.76
 11
-132.129
 21
2075.52
  0
LINE
  8
0
 10
-132.129
 20
2075.52
 11
-132.679
 21
2075.22
  0
LINE
  8
0
 10
-132.679
 20
2075.22
 11
-133.187
 21
2074.85
  0
LINE
  8
0
 10
-133.187
 20
2074.85
 11
-133.5
 21
2074.56
  0
LINE
  8
0
 10
-133.5
 20
2074.56
 11
-133.5
 21
2075.99
  0
LINE
  8
0
 10
-133.5
 20
2075.99
 11
-136.5
 21
2075.99
  0
LINE
  8
0
 10
-136.5
 20
2075.99
 11
-136.5
 21
1866.01
  0
LINE
  8
0
 10
-136.5
 20
1866.01
 11
-133.5
 21
1866.01
  0
LINE
  8
0
 10
-133.5
 20
1866.01
 11
-133.5
 21
1867.44
  0
LINE
  8
0
 10
-129.751
 20
1867.51
 11
-130.25
 21
1867.57
  0
LINE
  8
0
 10
-130.25
 20
1867.57
 11
-130.736
 21
1867.7
  0
LINE
  8
0
 10
-130.736
 20
1867.7
 11
-131.203
 21
1867.88
  0
LINE
  8
0
 10
-131.203
 20
1867.88
 11
-131.643
 21
1868.12
  0
LINE
  8
0
 10
-131.643
 20
1868.12
 11
-132.05
 21
1868.42
  0
LINE
  8
0
 10
-132.05
 20
1868.42
 11
-132.416
 21
1868.76
  0
LINE
  8
0
 10
-132.416
 20
1868.76
 11
-132.736
 21
1869.15
  0
LINE
  8
0
 10
-132.736
 20
1869.15
 11
-133.005
 21
1869.57
  0
LINE
  8
0
 10
-133.005
 20
1869.57
 11
-133.219
 21
1870.03
  0
LINE
  8
0
 10
-133.219
 20
1870.03
 11
-133.374
 21
1870.51
  0
LINE
  8
0
 10
-133.374
 20
1870.51
 11
-133.468
 21
1871
  0
LINE
  8
0
 10
-133.468
 20
1871
 11
-133.5
 21
1871.5
  0
LINE
  8
0
 10
-133.5
 20
1871.5
 11
-133.5
 21
2070.5
  0
LINE
  8
0
 10
-133.5
 20
2070.5
 11
-133.468
 21
2071
  0
LINE
  8
0
 10
-133.468
 20
2071
 11
-133.374
 21
2071.49
  0
LINE
  8
0
 10
-133.374
 20
2071.49
 11
-133.219
 21
2071.97
  0
LINE
  8
0
 10
-133.219
 20
2071.97
 11
-133.005
 21
2072.43
  0
LINE
  8
0
 10
-133.005
 20
2072.43
 11
-132.736
 21
2072.85
  0
LINE
  8
0
 10
-132.736
 20
2072.85
 11
-132.416
 21
2073.24
  0
LINE
  8
0
 10
-132.416
 20
2073.24
 11
-132.05
 21
2073.58
  0
LINE
  8
0
 10
-132.05
 20
2073.58
 11
-131.643
 21
2073.88
  0
LINE
  8
0
 10
-131.643
 20
2073.88
 11
-131.203
 21
2074.12
  0
LINE
  8
0
 10
-131.203
 20
2074.12
 11
-130.736
 21
2074.3
  0
LINE
  8
0
 10
-130.736
 20
2074.3
 11
-130.25
 21
2074.43
  0
LINE
  8
0
 10
-130.25
 20
2074.43
 11
-129.751
 21
2074.49
  0
LINE
  8
0
 10
-129.751
 20
2074.49
 11
129.751
 21
2074.49
  0
LINE
  8
0
 10
129.751
 20
2074.49
 11
130.25
 21
2074.43
  0
LINE
  8
0
 10
130.25
 20
2074.43
 11
130.736
 21
2074.3
  0
LINE
  8
0
 10
130.736
 20
2074.3
 11
131.203
 21
2074.12
  0
LINE
  8
0
 10
131.203
 20
2074.12
 11
131.643
 21
2073.88
  0
LINE
  8
0
 10
131.643
 20
2073.88
 11
132.05
 21
2073.58
  0
LINE
  8
0
 10
132.05
 20
2073.58
 11
132.416
 21
2073.24
  0
LINE
  8
0
 10
132.416
 20
2073.24
 11
132.736
 21
2072.85
  0
LINE
  8
0
 10
132.736
 20
2072.85
 11
133.005
 21
2072.43
  0
LINE
  8
0
 10
133.005
 20
2072.43
 11
133.219
 21
2071.97
  0
LINE
  8
0
 10
133.219
 20
2071.97
 11
133.374
 21
2071.49
  0
LINE
  8
0
 10
133.374
 20
2071.49
 11
133.468
 21
2071
  0
LINE
  8
0
 10
133.468
 20
2071
 11
133.5
 21
2070.5
  0
LINE
  8
0
 10
133.5
 20
2070.5
 11
133.5
 21
1871.5
  0
LINE
  8
0
 10
133.5
 20
1871.5
 11
133.468
 21
1871
  0
LINE
  8
0
 10
133.468
 20
1871
 11
133.374
 21
1870.51
  0
LINE
  8
0
 10
133.374
 20
1870.51
 11
133.219
 21
1870.03
  0
LINE
  8
0
 10
133.219
 20
1870.03
 11
133.005
 21
1869.57
  0
LINE
  8
0
 10
133.005
 20
1869.57
 11
132.736
 21
1869.15
  0
LINE
  8
0
 10
132.736
 20
1869.15
 11
132.416
 21
1868.76
  0
LINE
  8
0
 10
132.416
 20
1868.76
 11
132.05
 21
1868.42
  0
LINE
  8
0
 10
132.05
 20
1868.42
 11
131.643
 21
1868.12
  0
LINE
  8
0
 10
131.643
 20
1868.12
 11
131.203
 21
1867.88
  0
LINE
  8
0
 10
131.203
 20
1867.88
 11
130.736
 21
1867.7
  0
LINE
  8
0
 10
130.736
 20
1867.7
 11
130.25
 21
1867.57
  0
LINE
  8
0
 10
130.25
 20
1867.57
 11
129.751
 21
1867.51
  0
LINE
  8
0
 10
129.751
 20
1867.51
 11
-129.751
 21
1867.51
  0
LINE
  8
0
 10
-133.5
 20
1648.44
 11
-133.187
 21
1648.15
  0
LINE
  8
0
 10
-133.187
 20
1648.15
 11
-132.679
 21
1647.78
  0
LINE
  8
0
 10
-132.679
 20
1647.78
 11
-132.129
 21
1647.48
  0
LINE
  8
0
 10
-132.129
 20
1647.48
 11
-131.545
 21
1647.24
  0
LINE
  8
0
 10
-131.545
 20
1647.24
 11
-130.937
 21
1647.09
  0
LINE
  8
0
 10
-130.937
 20
1647.09
 11
-130.314
 21
1647.01
  0
LINE
  8
0
 10
-130.314
 20
1647.01
 11
130.314
 21
1647.01
  0
LINE
  8
0
 10
130.314
 20
1647.01
 11
130.937
 21
1647.09
  0
LINE
  8
0
 10
130.937
 20
1647.09
 11
131.545
 21
1647.24
  0
LINE
  8
0
 10
131.545
 20
1647.24
 11
132.129
 21
1647.48
  0
LINE
  8
0
 10
132.129
 20
1647.48
 11
132.679
 21
1647.78
  0
LINE
  8
0
 10
132.679
 20
1647.78
 11
133.187
 21
1648.15
  0
LINE
  8
0
 10
133.187
 20
1648.15
 11
133.645
 21
1648.58
  0
LINE
  8
0
 10
133.645
 20
1648.58
 11
134.045
 21
1649.06
  0
LINE
  8
0
 10
134.045
 20
1649.06
 11
134.382
 21
1649.59
  0
LINE
  8
0
 10
134.382
 20
1649.59
 11
134.649
 21
1650.16
  0
LINE
  8
0
 10
134.649
 20
1650.16
 11
134.843
 21
1650.76
  0
LINE
  8
0
 10
134.843
 20
1650.76
 11
134.961
 21
1651.37
  0
LINE
  8
0
 10
134.961
 20
1651.37
 11
135
 21
1652
  0
LINE
  8
0
 10
135
 20
1652
 11
135
 21
1852
  0
LINE
  8
0
 10
135
 20
1852
 11
134.961
 21
1852.63
  0
LINE
  8
0
 10
134.961
 20
1852.63
 11
134.843
 21
1853.24
  0
LINE
  8
0
 10
134.843
 20
1853.24
 11
134.649
 21
1853.84
  0
LINE
  8
0
 10
134.649
 20
1853.84
 11
134.382
 21
1854.41
  0
LINE
  8
0
 10
134.382
 20
1854.41
 11
134.045
 21
1854.94
  0
LINE
  8
0
 10
134.045
 20
1854.94
 11
133.645
 21
1855.42
  0
LINE
  8
0
 10
133.645
 20
1855.42
 11
133.187
 21
1855.85
  0
LINE
  8
0
 10
133.187
 20
1855.85
 11
132.679
 21
1856.22
  0
LINE
  8
0
 10
132.679
 20
1856.22
 11
132.129
 21
1856.52
  0
LINE
  8
0
 10
132.129
 20
1856.52
 11
131.545
 21
1856.76
  0
LINE
  8
0
 10
131.545
 20
1856.76
 11
130.937
 21
1856.91
  0
LINE
  8
0
 10
130.937
 20
1856.91
 11
130.314
 21
1856.99
  0
LINE
  8
0
 10
130.314
 20
1856.99
 11
-130.314
 21
1856.99
  0
LINE
  8
0
 10
-130.314
 20
1856.99
 11
-130.937
 21
1856.91
  0
LINE
  8
0
 10
-130.937
 20
1856.91
 11
-131.545
 21
1856.76
  0
LINE
  8
0
 10
-131.545
 20
1856.76
 11
-132.129
 21
1856.52
  0
LINE
  8
0
 10
-132.129
 20
1856.52
 11
-132.679
 21
1856.22
  0
LINE
  8
0
 10
-132.679
 20
1856.22
 11
-133.187
 21
1855.85
  0
LINE
  8
0
 10
-133.187
 20
1855.85
 11
-133.5
 21
1855.56
  0
LINE
  8
0
 10
-133.5
 20
1855.56
 11
-133.5
 21
1856.99
  0
LINE
  8
0
 10
-133.5
 20
1856.99
 11
-136.5
 21
1856.99
  0
LINE
  8
0
 10
-136.5
 20
1856.99
 11
-136.5
 21
1647.01
  0
LINE
  8
0
 10
-136.5
 20
1647.01
 11
-133.5
 21
1647.01
  0
LINE
  8
0
 10
-133.5
 20
1647.01
 11
-133.5
 21
1648.44
  0
LINE
  8
0
 10
-129.751
 20
1648.51
 11
-130.25
 21
1648.57
  0
LINE
  8
0
 10
-130.25
 20
1648.57
 11
-130.736
 21
1648.7
  0
LINE
  8
0
 10
-130.736
 20
1648.7
 11
-131.203
 21
1648.88
  0
LINE
  8
0
 10
-131.203
 20
1648.88
 11
-131.643
 21
1649.12
  0
LINE
  8
0
 10
-131.643
 20
1649.12
 11
-132.05
 21
1649.42
  0
LINE
  8
0
 10
-132.05
 20
1649.42
 11
-132.416
 21
1649.76
  0
LINE
  8
0
 10
-132.416
 20
1649.76
 11
-132.736
 21
1650.15
  0
LINE
  8
0
 10
-132.736
 20
1650.15
 11
-133.005
 21
1650.57
  0
LINE
  8
0
 10
-133.005
 20
1650.57
 11
-133.219
 21
1651.03
  0
LINE
  8
0
 10
-133.219
 20
1651.03
 11
-133.374
 21
1651.51
  0
LINE
  8
0
 10
-133.374
 20
1651.51
 11
-133.468
 21
1652
  0
LINE
  8
0
 10
-133.468
 20
1652
 11
-133.5
 21
1652.5
  0
LINE
  8
0
 10
-133.5
 20
1652.5
 11
-133.5
 21
1851.5
  0
LINE
  8
0
 10
-133.5
 20
1851.5
 11
-133.468
 21
1852
  0
LINE
  8
0
 10
-133.468
 20
1852
 11
-133.374
 21
1852.49
  0
LINE
  8
0
 10
-133.374
 20
1852.49
 11
-133.219
 21
1852.97
  0
LINE
  8
0
 10
-133.219
 20
1852.97
 11
-133.005
 21
1853.43
  0
LINE
  8
0
 10
-133.005
 20
1853.43
 11
-132.736
 21
1853.85
  0
LINE
  8
0
 10
-132.736
 20
1853.85
 11
-132.416
 21
1854.24
  0
LINE
  8
0
 10
-132.416
 20
1854.24
 11
-132.05
 21
1854.58
  0
LINE
  8
0
 10
-132.05
 20
1854.58
 11
-131.643
 21
1854.88
  0
LINE
  8
0
 10
-131.643
 20
1854.88
 11
-131.203
 21
1855.12
  0
LINE
  8
0
 10
-131.203
 20
1855.12
 11
-130.736
 21
1855.3
  0
LINE
  8
0
 10
-130.736
 20
1855.3
 11
-130.25
 21
1855.43
  0
LINE
  8
0
 10
-130.25
 20
1855.43
 11
-129.751
 21
1855.49
  0
LINE
  8
0
 10
-129.751
 20
1855.49
 11
129.751
 21
1855.49
  0
LINE
  8
0
 10
129.751
 20
1855.49
 11
130.25
 21
1855.43
  0
LINE
  8
0
 10
130.25
 20
1855.43
 11
130.736
 21
1855.3
  0
LINE
  8
0
 10
130.736
 20
1855.3
 11
131.203
 21
1855.12
  0
LINE
  8
0
 10
131.203
 20
1855.12
 11
131.643
 21
1854.88
  0
LINE
  8
0
 10
131.643
 20
1854.88
 11
132.05
 21
1854.58
  0
LINE
  8
0
 10
132.05
 20
1854.58
 11
132.416
 21
1854.24
  0
LINE
  8
0
 10
132.416
 20
1854.24
 11
132.736
 21
1853.85
  0
LINE
  8
0
 10
132.736
 20
1853.85
 11
133.005
 21
1853.43
  0
LINE
  8
0
 10
133.005
 20
1853.43
 11
133.219
 21
1852.97
  0
LINE
  8
0
 10
133.219
 20
1852.97
 11
133.374
 21
1852.49
  0
LINE
  8
0
 10
133.374
 20
1852.49
 11
133.468
 21
1852
  0
LINE
  8
0
 10
133.468
 20
1852
 11
133.5
 21
1851.5
  0
LINE
  8
0
 10
133.5
 20
1851.5
 11
133.5
 21
1652.5
  0
LINE
  8
0
 10
133.5
 20
1652.5
 11
133.468
 21
1652
  0
LINE
  8
0
 10
133.468
 20
1652
 11
133.374
 21
1651.51
  0
LINE
  8
0
 10
133.374
 20
1651.51
 11
133.219
 21
1651.03
  0
LINE
  8
0
 10
133.219
 20
1651.03
 11
133.005
 21
1650.57
  0
LINE
  8
0
 10
133.005
 20
1650.57
 11
132.736
 21
1650.15
  0
LINE
  8
0
 10
132.736
 20
1650.15
 11
132.416
 21
1649.76
  0
LINE
  8
0
 10
132.416
 20
1649.76
 11
132.05
 21
1649.42
  0
LINE
  8
0
 10
132.05
 20
1649.42
 11
131.643
 21
1649.12
  0
LINE
  8
0
 10
131.643
 20
1649.12
 11
131.203
 21
1648.88
  0
LINE
  8
0
 10
131.203
 20
1648.88
 11
130.736
 21
1648.7
  0
LINE
  8
0
 10
130.736
 20
1648.7
 11
130.25
 21
1648.57
  0
LINE
  8
0
 10
130.25
 20
1648.57
 11
129.751
 21
1648.51
  0
LINE
  8
0
 10
129.751
 20
1648.51
 11
-129.751
 21
1648.51
  0
LINE
  8
0
 10
-133.5
 20
1429.44
 11
-133.187
 21
1429.15
  0
LINE
  8
0
 10
-133.187
 20
1429.15
 11
-132.679
 21
1428.78
  0
LINE
  8
0
 10
-132.679
 20
1428.78
 11
-132.129
 21
1428.48
  0
LINE
  8
0
 10
-132.129
 20
1428.48
 11
-131.545
 21
1428.24
  0
LINE
  8
0
 10
-131.545
 20
1428.24
 11
-130.937
 21
1428.09
  0
LINE
  8
0
 10
-130.937
 20
1428.09
 11
-130.314
 21
1428.01
  0
LINE
  8
0
 10
-130.314
 20
1428.01
 11
130.314
 21
1428.01
  0
LINE
  8
0
 10
130.314
 20
1428.01
 11
130.937
 21
1428.09
  0
LINE
  8
0
 10
130.937
 20
1428.09
 11
131.545
 21
1428.24
  0
LINE
  8
0
 10
131.545
 20
1428.24
 11
132.129
 21
1428.48
  0
LINE
  8
0
 10
132.129
 20
1428.48
 11
132.679
 21
1428.78
  0
LINE
  8
0
 10
132.679
 20
1428.78
 11
133.187
 21
1429.15
  0
LINE
  8
0
 10
133.187
 20
1429.15
 11
133.645
 21
1429.58
  0
LINE
  8
0
 10
133.645
 20
1429.58
 11
134.045
 21
1430.06
  0
LINE
  8
0
 10
134.045
 20
1430.06
 11
134.382
 21
1430.59
  0
LINE
  8
0
 10
134.382
 20
1430.59
 11
134.649
 21
1431.16
  0
LINE
  8
0
 10
134.649
 20
1431.16
 11
134.843
 21
1431.76
  0
LINE
  8
0
 10
134.843
 20
1431.76
 11
134.961
 21
1432.37
  0
LINE
  8
0
 10
134.961
 20
1432.37
 11
135
 21
1433
  0
LINE
  8
0
 10
135
 20
1433
 11
135
 21
1633
  0
LINE
  8
0
 10
135
 20
1633
 11
134.961
 21
1633.63
  0
LINE
  8
0
 10
134.961
 20
1633.63
 11
134.843
 21
1634.24
  0
LINE
  8
0
 10
134.843
 20
1634.24
 11
134.649
 21
1634.84
  0
LINE
  8
0
 10
134.649
 20
1634.84
 11
134.382
 21
1635.41
  0
LINE
  8
0
 10
134.382
 20
1635.41
 11
134.045
 21
1635.94
  0
LINE
  8
0
 10
134.045
 20
1635.94
 11
133.645
 21
1636.42
  0
LINE
  8
0
 10
133.645
 20
1636.42
 11
133.187
 21
1636.85
  0
LINE
  8
0
 10
133.187
 20
1636.85
 11
132.679
 21
1637.22
  0
LINE
  8
0
 10
132.679
 20
1637.22
 11
132.129
 21
1637.52
  0
LINE
  8
0
 10
132.129
 20
1637.52
 11
131.545
 21
1637.76
  0
LINE
  8
0
 10
131.545
 20
1637.76
 11
130.937
 21
1637.91
  0
LINE
  8
0
 10
130.937
 20
1637.91
 11
130.314
 21
1637.99
  0
LINE
  8
0
 10
130.314
 20
1637.99
 11
-130.314
 21
1637.99
  0
LINE
  8
0
 10
-130.314
 20
1637.99
 11
-130.937
 21
1637.91
  0
LINE
  8
0
 10
-130.937
 20
1637.91
 11
-131.545
 21
1637.76
  0
LINE
  8
0
 10
-131.545
 20
1637.76
 11
-132.129
 21
1637.52
  0
LINE
  8
0
 10
-132.129
 20
1637.52
 11
-132.679
 21
1637.22
  0
LINE
  8
0
 10
-132.679
 20
1637.22
 11
-133.187
 21
1636.85
  0
LINE
  8
0
 10
-133.187
 20
1636.85
 11
-133.5
 21
1636.56
  0
LINE
  8
0
 10
-133.5
 20
1636.56
 11
-133.5
 21
1637.99
  0
LINE
  8
0
 10
-133.5
 20
1637.99
 11
-136.5
 21
1637.99
  0
LINE
  8
0
 10
-136.5
 20
1637.99
 11
-136.5
 21
1428.01
  0
LINE
  8
0
 10
-136.5
 20
1428.01
 11
-133.5
 21
1428.01
  0
LINE
  8
0
 10
-133.5
 20
1428.01
 11
-133.5
 21
1429.44
  0
LINE
  8
0
 10
-129.751
 20
1429.51
 11
-130.25
 21
1429.57
  0
LINE
  8
0
 10
-130.25
 20
1429.57
 11
-130.736
 21
1429.7
  0
LINE
  8
0
 10
-130.736
 20
1429.7
 11
-131.203
 21
1429.88
  0
LINE
  8
0
 10
-131.203
 20
1429.88
 11
-131.643
 21
1430.12
  0
LINE
  8
0
 10
-131.643
 20
1430.12
 11
-132.05
 21
1430.42
  0
LINE
  8
0
 10
-132.05
 20
1430.42
 11
-132.416
 21
1430.76
  0
LINE
  8
0
 10
-132.416
 20
1430.76
 11
-132.736
 21
1431.15
  0
LINE
  8
0
 10
-132.736
 20
1431.15
 11
-133.005
 21
1431.57
  0
LINE
  8
0
 10
-133.005
 20
1431.57
 11
-133.219
 21
1432.03
  0
LINE
  8
0
 10
-133.219
 20
1432.03
 11
-133.374
 21
1432.51
  0
LINE
  8
0
 10
-133.374
 20
1432.51
 11
-133.468
 21
1433
  0
LINE
  8
0
 10
-133.468
 20
1433
 11
-133.5
 21
1433.5
  0
LINE
  8
0
 10
-133.5
 20
1433.5
 11
-133.5
 21
1632.5
  0
LINE
  8
0
 10
-133.5
 20
1632.5
 11
-133.468
 21
1633
  0
LINE
  8
0
 10
-133.468
 20
1633
 11
-133.374
 21
1633.49
  0
LINE
  8
0
 10
-133.374
 20
1633.49
 11
-133.219
 21
1633.97
  0
LINE
  8
0
 10
-133.219
 20
1633.97
 11
-133.005
 21
1634.43
  0
LINE
  8
0
 10
-133.005
 20
1634.43
 11
-132.736
 21
1634.85
  0
LINE
  8
0
 10
-132.736
 20
1634.85
 11
-132.416
 21
1635.24
  0
LINE
  8
0
 10
-132.416
 20
1635.24
 11
-132.05
 21
1635.58
  0
LINE
  8
0
 10
-132.05
 20
1635.58
 11
-131.643
 21
1635.88
  0
LINE
  8
0
 10
-131.643
 20
1635.88
 11
-131.203
 21
1636.12
  0
LINE
  8
0
 10
-131.203
 20
1636.12
 11
-130.736
 21
1636.3
  0
LINE
  8
0
 10
-130.736
 20
1636.3
 11
-130.25
 21
1636.43
  0
LINE
  8
0
 10
-130.25
 20
1636.43
 11
-129.751
 21
1636.49
  0
LINE
  8
0
 10
-129.751
 20
1636.49
 11
129.751
 21
1636.49
  0
LINE
  8
0
 10
129.751
 20
1636.49
 11
130.25
 21
1636.43
  0
LINE
  8
0
 10
130.25
 20
1636.43
 11
130.736
 21
1636.3
  0
LINE
  8
0
 10
130.736
 20
1636.3
 11
131.203
 21
1636.12
  0
LINE
  8
0
 10
131.203
 20
1636.12
 11
131.643
 21
1635.88
  0
LINE
  8
0
 10
131.643
 20
1635.88
 11
132.05
 21
1635.58
  0
LINE
  8
0
 10
132.05
 20
1635.58
 11
132.416
 21
1635.24
  0
LINE
  8
0
 10
132.416
 20
1635.24
 11
132.736
 21
1634.85
  0
LINE
  8
0
 10
132.736
 20
1634.85
 11
133.005
 21
1634.43
  0
LINE
  8
0
 10
133.005
 20
1634.43
 11
133.219
 21
1633.97
  0
LINE
  8
0
 10
133.219
 20
1633.97
 11
133.374
 21
1633.49
  0
LINE
  8
0
 10
133.374
 20
1633.49
 11
133.468
 21
1633
  0
LINE
  8
0
 10
133.468
 20
1633
 11
133.5
 21
1632.5
  0
LINE
  8
0
 10
133.5
 20
1632.5
 11
133.5
 21
1433.5
  0
LINE
  8
0
 10
133.5
 20
1433.5
 11
133.468
 21
1433
  0
LINE
  8
0
 10
133.468
 20
1433
 11
133.374
 21
1432.51
  0
LINE
  8
0
 10
133.374
 20
1432.51
 11
133.219
 21
1432.03
  0
LINE
  8
0
 10
133.219
 20
1432.03
 11
133.005
 21
1431.57
  0
LINE
  8
0
 10
133.005
 20
1431.57
 11
132.736
 21
1431.15
  0
LINE
  8
0
 10
132.736
 20
1431.15
 11
132.416
 21
1430.76
  0
LINE
  8
0
 10
132.416
 20
1430.76
 11
132.05
 21
1430.42
  0
LINE
  8
0
 10
132.05
 20
1430.42
 11
131.643
 21
1430.12
  0
LINE
  8
0
 10
131.643
 20
1430.12
 11
131.203
 21
1429.88
  0
LINE
  8
0
 10
131.203
 20
1429.88
 11
130.736
 21
1429.7
  0
LINE
  8
0
 10
130.736
 20
1429.7
 11
130.25
 21
1429.57
  0
LINE
  8
0
 10
130.25
 20
1429.57
 11
129.751
 21
1429.51
  0
LINE
  8
0
 10
129.751
 20
1429.51
 11
-129.751
 21
1429.51
  0
LINE
  8
0
 10
130.937
 20
1209.09
 11
131.545
 21
1209.24
  0
LINE
  8
0
 10
131.545
 20
1209.24
 11
132.129
 21
1209.48
  0
LINE
  8
0
 10
132.129
 20
1209.48
 11
132.679
 21
1209.78
  0
LINE
  8
0
 10
132.679
 20
1209.78
 11
133.187
 21
1210.15
  0
LINE
  8
0
 10
133.187
 20
1210.15
 11
133.645
 21
1210.58
  0
LINE
  8
0
 10
133.645
 20
1210.58
 11
134.045
 21
1211.06
  0
LINE
  8
0
 10
134.045
 20
1211.06
 11
134.382
 21
1211.59
  0
LINE
  8
0
 10
134.382
 20
1211.59
 11
134.649
 21
1212.16
  0
LINE
  8
0
 10
134.649
 20
1212.16
 11
134.843
 21
1212.76
  0
LINE
  8
0
 10
134.843
 20
1212.76
 11
134.961
 21
1213.37
  0
LINE
  8
0
 10
134.961
 20
1213.37
 11
135
 21
1214
  0
LINE
  8
0
 10
135
 20
1214
 11
135
 21
1414
  0
LINE
  8
0
 10
135
 20
1414
 11
134.961
 21
1414.63
  0
LINE
  8
0
 10
134.961
 20
1414.63
 11
134.843
 21
1415.24
  0
LINE
  8
0
 10
134.843
 20
1415.24
 11
134.649
 21
1415.84
  0
LINE
  8
0
 10
134.649
 20
1415.84
 11
134.382
 21
1416.41
  0
LINE
  8
0
 10
134.382
 20
1416.41
 11
134.045
 21
1416.94
  0
LINE
  8
0
 10
134.045
 20
1416.94
 11
133.645
 21
1417.42
  0
LINE
  8
0
 10
133.645
 20
1417.42
 11
133.187
 21
1417.85
  0
LINE
  8
0
 10
133.187
 20
1417.85
 11
132.679
 21
1418.22
  0
LINE
  8
0
 10
132.679
 20
1418.22
 11
132.129
 21
1418.52
  0
LINE
  8
0
 10
132.129
 20
1418.52
 11
131.545
 21
1418.76
  0
LINE
  8
0
 10
131.545
 20
1418.76
 11
130.937
 21
1418.91
  0
LINE
  8
0
 10
130.937
 20
1418.91
 11
130.314
 21
1418.99
  0
LINE
  8
0
 10
130.314
 20
1418.99
 11
-130.314
 21
1418.99
  0
LINE
  8
0
 10
-130.314
 20
1418.99
 11
-130.937
 21
1418.91
  0
LINE
  8
0
 10
-130.937
 20
1418.91
 11
-131.545
 21
1418.76
  0
LINE
  8
0
 10
-131.545
 20
1418.76
 11
-132.129
 21
1418.52
  0
LINE
  8
0
 10
-132.129
 20
1418.52
 11
-132.679
 21
1418.22
  0
LINE
  8
0
 10
-132.679
 20
1418.22
 11
-133.187
 21
1417.85
  0
LINE
  8
0
 10
-133.187
 20
1417.85
 11
-133.5
 21
1417.56
  0
LINE
  8
0
 10
-133.5
 20
1417.56
 11
-133.5
 21
1418.98
  0
LINE
  8
0
 10
-133.5
 20
1418.98
 11
-136.5
 21
1418.98
  0
LINE
  8
0
 10
-136.5
 20
1418.98
 11
-136.5
 21
1209.02
  0
LINE
  8
0
 10
-136.5
 20
1209.02
 11
-133.5
 21
1209.02
  0
LINE
  8
0
 10
-133.5
 20
1209.02
 11
-133.5
 21
1210.44
  0
LINE
  8
0
 10
-133.5
 20
1210.44
 11
-133.187
 21
1210.15
  0
LINE
  8
0
 10
-133.187
 20
1210.15
 11
-132.679
 21
1209.78
  0
LINE
  8
0
 10
-132.679
 20
1209.78
 11
-132.129
 21
1209.48
  0
LINE
  8
0
 10
-132.129
 20
1209.48
 11
-131.545
 21
1209.24
  0
LINE
  8
0
 10
-131.545
 20
1209.24
 11
-130.937
 21
1209.09
  0
LINE
  8
0
 10
-130.937
 20
1209.09
 11
-130.314
 21
1209.01
  0
LINE
  8
0
 10
-130.314
 20
1209.01
 11
130.314
 21
1209.01
  0
LINE
  8
0
 10
130.314
 20
1209.01
 11
130.937
 21
1209.09
  0
LINE
  8
0
 10
-129.695
 20
1211.39
 11
-130.083
 21
1211.44
  0
LINE
  8
0
 10
-130.083
 20
1211.44
 11
-130.462
 21
1211.54
  0
LINE
  8
0
 10
-130.462
 20
1211.54
 11
-130.825
 21
1211.68
  0
LINE
  8
0
 10
-130.825
 20
1211.68
 11
-131.168
 21
1211.87
  0
LINE
  8
0
 10
-131.168
 20
1211.87
 11
-131.484
 21
1212.1
  0
LINE
  8
0
 10
-131.484
 20
1212.1
 11
-131.769
 21
1212.37
  0
LINE
  8
0
 10
-131.769
 20
1212.37
 11
-132.018
 21
1212.67
  0
LINE
  8
0
 10
-132.018
 20
1212.67
 11
-132.228
 21
1213
  0
LINE
  8
0
 10
-132.228
 20
1213
 11
-132.394
 21
1213.35
  0
LINE
  8
0
 10
-132.394
 20
1213.35
 11
-132.515
 21
1213.73
  0
LINE
  8
0
 10
-132.515
 20
1213.73
 11
-132.588
 21
1214.11
  0
LINE
  8
0
 10
-132.588
 20
1214.11
 11
-132.613
 21
1214.5
  0
LINE
  8
0
 10
-132.613
 20
1214.5
 11
-132.613
 21
1413.5
  0
LINE
  8
0
 10
-132.613
 20
1413.5
 11
-132.588
 21
1413.89
  0
LINE
  8
0
 10
-132.588
 20
1413.89
 11
-132.515
 21
1414.27
  0
LINE
  8
0
 10
-132.515
 20
1414.27
 11
-132.394
 21
1414.65
  0
LINE
  8
0
 10
-132.394
 20
1414.65
 11
-132.228
 21
1415
  0
LINE
  8
0
 10
-132.228
 20
1415
 11
-132.018
 21
1415.33
  0
LINE
  8
0
 10
-132.018
 20
1415.33
 11
-131.769
 21
1415.63
  0
LINE
  8
0
 10
-131.769
 20
1415.63
 11
-131.484
 21
1415.9
  0
LINE
  8
0
 10
-131.484
 20
1415.9
 11
-131.168
 21
1416.13
  0
LINE
  8
0
 10
-131.168
 20
1416.13
 11
-130.825
 21
1416.32
  0
LINE
  8
0
 10
-130.825
 20
1416.32
 11
-130.462
 21
1416.46
  0
LINE
  8
0
 10
-130.462
 20
1416.46
 11
-130.083
 21
1416.56
  0
LINE
  8
0
 10
-130.083
 20
1416.56
 11
-129.695
 21
1416.61
  0
LINE
  8
0
 10
-129.695
 20
1416.61
 11
129.695
 21
1416.61
  0
LINE
  8
0
 10
129.695
 20
1416.61
 11
130.083
 21
1416.56
  0
LINE
  8
0
 10
130.083
 20
1416.56
 11
130.462
 21
1416.46
  0
LINE
  8
0
 10
130.462
 20
1416.46
 11
130.825
 21
1416.32
  0
LINE
  8
0
 10
130.825
 20
1416.32
 11
131.168
 21
1416.13
  0
LINE
  8
0
 10
131.168
 20
1416.13
 11
131.484
 21
1415.9
  0
LINE
  8
0
 10
131.484
 20
1415.9
 11
131.769
 21
1415.63
  0
LINE
  8
0
 10
131.769
 20
1415.63
 11
132.018
 21
1415.33
  0
LINE
  8
0
 10
132.018
 20
1415.33
 11
132.228
 21
1415
  0
LINE
  8
0
 10
132.228
 20
1415
 11
132.394
 21
1414.65
  0
LINE
  8
0
 10
132.394
 20
1414.65
 11
132.515
 21
1414.27
  0
LINE
  8
0
 10
132.515
 20
1414.27
 11
132.588
 21
1413.89
  0
LINE
  8
0
 10
132.588
 20
1413.89
 11
132.613
 21
1413.5
  0
LINE
  8
0
 10
132.613
 20
1413.5
 11
132.613
 21
1214.5
  0
LINE
  8
0
 10
132.613
 20
1214.5
 11
132.588
 21
1214.11
  0
LINE
  8
0
 10
132.588
 20
1214.11
 11
132.515
 21
1213.73
  0
LINE
  8
0
 10
132.515
 20
1213.73
 11
132.394
 21
1213.35
  0
LINE
  8
0
 10
132.394
 20
1213.35
 11
132.228
 21
1213
  0
LINE
  8
0
 10
132.228
 20
1213
 11
132.018
 21
1212.67
  0
LINE
  8
0
 10
132.018
 20
1212.67
 11
131.769
 21
1212.37
  0
LINE
  8
0
 10
131.769
 20
1212.37
 11
131.484
 21
1212.1
  0
LINE
  8
0
 10
131.484
 20
1212.1
 11
131.168
 21
1211.87
  0
LINE
  8
0
 10
131.168
 20
1211.87
 11
130.825
 21
1211.68
  0
LINE
  8
0
 10
130.825
 20
1211.68
 11
130.462
 21
1211.54
  0
LINE
  8
0
 10
130.462
 20
1211.54
 11
130.083
 21
1211.44
  0
LINE
  8
0
 10
130.083
 20
1211.44
 11
129.695
 21
1211.39
  0
LINE
  8
0
 10
129.695
 20
1211.39
 11
-129.695
 21
1211.39
  0
LINE
  8
0
 10
130.937
 20
990.089
 11
131.545
 21
990.245
  0
LINE
  8
0
 10
131.545
 20
990.245
 11
132.129
 21
990.476
  0
LINE
  8
0
 10
132.129
 20
990.476
 11
132.679
 21
990.778
  0
LINE
  8
0
 10
132.679
 20
990.778
 11
133.187
 21
991.147
  0
LINE
  8
0
 10
133.187
 20
991.147
 11
133.645
 21
991.577
  0
LINE
  8
0
 10
133.645
 20
991.577
 11
134.045
 21
992.061
  0
LINE
  8
0
 10
134.045
 20
992.061
 11
134.382
 21
992.591
  0
LINE
  8
0
 10
134.382
 20
992.591
 11
134.649
 21
993.159
  0
LINE
  8
0
 10
134.649
 20
993.159
 11
134.843
 21
993.757
  0
LINE
  8
0
 10
134.843
 20
993.757
 11
134.961
 21
994.373
  0
LINE
  8
0
 10
134.961
 20
994.373
 11
135
 21
995
  0
LINE
  8
0
 10
135
 20
995
 11
135
 21
1195
  0
LINE
  8
0
 10
135
 20
1195
 11
134.961
 21
1195.63
  0
LINE
  8
0
 10
134.961
 20
1195.63
 11
134.843
 21
1196.24
  0
LINE
  8
0
 10
134.843
 20
1196.24
 11
134.649
 21
1196.84
  0
LINE
  8
0
 10
134.649
 20
1196.84
 11
134.382
 21
1197.41
  0
LINE
  8
0
 10
134.382
 20
1197.41
 11
134.045
 21
1197.94
  0
LINE
  8
0
 10
134.045
 20
1197.94
 11
133.645
 21
1198.42
  0
LINE
  8
0
 10
133.645
 20
1198.42
 11
133.187
 21
1198.85
  0
LINE
  8
0
 10
133.187
 20
1198.85
 11
132.679
 21
1199.22
  0
LINE
  8
0
 10
132.679
 20
1199.22
 11
132.129
 21
1199.52
  0
LINE
  8
0
 10
132.129
 20
1199.52
 11
131.545
 21
1199.76
  0
LINE
  8
0
 10
131.545
 20
1199.76
 11
130.937
 21
1199.91
  0
LINE
  8
0
 10
130.937
 20
1199.91
 11
130.314
 21
1199.99
  0
LINE
  8
0
 10
130.314
 20
1199.99
 11
-130.314
 21
1199.99
  0
LINE
  8
0
 10
-130.314
 20
1199.99
 11
-130.937
 21
1199.91
  0
LINE
  8
0
 10
-130.937
 20
1199.91
 11
-131.545
 21
1199.76
  0
LINE
  8
0
 10
-131.545
 20
1199.76
 11
-132.129
 21
1199.52
  0
LINE
  8
0
 10
-132.129
 20
1199.52
 11
-132.679
 21
1199.22
  0
LINE
  8
0
 10
-132.679
 20
1199.22
 11
-133.187
 21
1198.85
  0
LINE
  8
0
 10
-133.187
 20
1198.85
 11
-133.5
 21
1198.56
  0
LINE
  8
0
 10
-133.5
 20
1198.56
 11
-133.5
 21
1198.65
  0
LINE
  8
0
 10
-133.5
 20
1198.65
 11
-136.5
 21
1198.65
  0
LINE
  8
0
 10
-136.5
 20
1198.65
 11
-136.5
 21
991.347
  0
LINE
  8
0
 10
-136.5
 20
991.347
 11
-133.5
 21
991.347
  0
LINE
  8
0
 10
-133.5
 20
991.347
 11
-133.5
 21
991.441
  0
LINE
  8
0
 10
-133.5
 20
991.441
 11
-133.187
 21
991.147
  0
LINE
  8
0
 10
-133.187
 20
991.147
 11
-132.679
 21
990.778
  0
LINE
  8
0
 10
-132.679
 20
990.778
 11
-132.129
 21
990.476
  0
LINE
  8
0
 10
-132.129
 20
990.476
 11
-131.545
 21
990.245
  0
LINE
  8
0
 10
-131.545
 20
990.245
 11
-130.937
 21
990.089
  0
LINE
  8
0
 10
-130.937
 20
990.089
 11
-130.314
 21
990.01
  0
LINE
  8
0
 10
-130.314
 20
990.01
 11
130.314
 21
990.01
  0
LINE
  8
0
 10
130.314
 20
990.01
 11
130.937
 21
990.089
  0
LINE
  8
0
 10
-127.634
 20
1190.37
 11
-127.9
 21
1190.4
  0
LINE
  8
0
 10
-127.9
 20
1190.4
 11
-128.16
 21
1190.47
  0
LINE
  8
0
 10
-128.16
 20
1190.47
 11
-128.409
 21
1190.57
  0
LINE
  8
0
 10
-128.409
 20
1190.57
 11
-128.644
 21
1190.7
  0
LINE
  8
0
 10
-128.644
 20
1190.7
 11
-128.861
 21
1190.85
  0
LINE
  8
0
 10
-128.861
 20
1190.85
 11
-129.057
 21
1191.04
  0
LINE
  8
0
 10
-129.057
 20
1191.04
 11
-129.227
 21
1191.24
  0
LINE
  8
0
 10
-129.227
 20
1191.24
 11
-129.371
 21
1191.47
  0
LINE
  8
0
 10
-129.371
 20
1191.47
 11
-129.485
 21
1191.71
  0
LINE
  8
0
 10
-129.485
 20
1191.71
 11
-129.568
 21
1191.97
  0
LINE
  8
0
 10
-129.568
 20
1191.97
 11
-129.618
 21
1192.23
  0
LINE
  8
0
 10
-129.618
 20
1192.23
 11
-129.635
 21
1192.5
  0
LINE
  8
0
 10
-129.635
 20
1192.5
 11
-129.618
 21
1192.77
  0
LINE
  8
0
 10
-129.618
 20
1192.77
 11
-129.568
 21
1193.03
  0
LINE
  8
0
 10
-129.568
 20
1193.03
 11
-129.485
 21
1193.29
  0
LINE
  8
0
 10
-129.485
 20
1193.29
 11
-129.371
 21
1193.53
  0
LINE
  8
0
 10
-129.371
 20
1193.53
 11
-129.227
 21
1193.76
  0
LINE
  8
0
 10
-129.227
 20
1193.76
 11
-129.057
 21
1193.96
  0
LINE
  8
0
 10
-129.057
 20
1193.96
 11
-128.861
 21
1194.15
  0
LINE
  8
0
 10
-128.861
 20
1194.15
 11
-128.644
 21
1194.3
  0
LINE
  8
0
 10
-128.644
 20
1194.3
 11
-128.409
 21
1194.43
  0
LINE
  8
0
 10
-128.409
 20
1194.43
 11
-128.16
 21
1194.53
  0
LINE
  8
0
 10
-128.16
 20
1194.53
 11
-127.9
 21
1194.6
  0
LINE
  8
0
 10
-127.9
 20
1194.6
 11
-127.634
 21
1194.63
  0
LINE
  8
0
 10
-127.634
 20
1194.63
 11
-127.366
 21
1194.63
  0
LINE
  8
0
 10
-127.366
 20
1194.63
 11
-127.1
 21
1194.6
  0
LINE
  8
0
 10
-127.1
 20
1194.6
 11
-126.84
 21
1194.53
  0
LINE
  8
0
 10
-126.84
 20
1194.53
 11
-126.591
 21
1194.43
  0
LINE
  8
0
 10
-126.591
 20
1194.43
 11
-126.356
 21
1194.3
  0
LINE
  8
0
 10
-126.356
 20
1194.3
 11
-126.139
 21
1194.15
  0
LINE
  8
0
 10
-126.139
 20
1194.15
 11
-125.943
 21
1193.96
  0
LINE
  8
0
 10
-125.943
 20
1193.96
 11
-125.773
 21
1193.76
  0
LINE
  8
0
 10
-125.773
 20
1193.76
 11
-125.629
 21
1193.53
  0
LINE
  8
0
 10
-125.629
 20
1193.53
 11
-125.515
 21
1193.29
  0
LINE
  8
0
 10
-125.515
 20
1193.29
 11
-125.432
 21
1193.03
  0
LINE
  8
0
 10
-125.432
 20
1193.03
 11
-125.382
 21
1192.77
  0
LINE
  8
0
 10
-125.382
 20
1192.77
 11
-125.365
 21
1192.5
  0
LINE
  8
0
 10
-125.365
 20
1192.5
 11
-125.382
 21
1192.23
  0
LINE
  8
0
 10
-125.382
 20
1192.23
 11
-125.432
 21
1191.97
  0
LINE
  8
0
 10
-125.432
 20
1191.97
 11
-125.515
 21
1191.71
  0
LINE
  8
0
 10
-125.515
 20
1191.71
 11
-125.629
 21
1191.47
  0
LINE
  8
0
 10
-125.629
 20
1191.47
 11
-125.773
 21
1191.24
  0
LINE
  8
0
 10
-125.773
 20
1191.24
 11
-125.943
 21
1191.04
  0
LINE
  8
0
 10
-125.943
 20
1191.04
 11
-126.139
 21
1190.85
  0
LINE
  8
0
 10
-126.139
 20
1190.85
 11
-126.356
 21
1190.7
  0
LINE
  8
0
 10
-126.356
 20
1190.7
 11
-126.591
 21
1190.57
  0
LINE
  8
0
 10
-126.591
 20
1190.57
 11
-126.84
 21
1190.47
  0
LINE
  8
0
 10
-126.84
 20
1190.47
 11
-127.1
 21
1190.4
  0
LINE
  8
0
 10
-127.1
 20
1190.4
 11
-127.366
 21
1190.37
  0
LINE
  8
0
 10
-127.366
 20
1190.37
 11
-127.634
 21
1190.37
  0
LINE
  8
0
 10
127.366
 20
1190.37
 11
127.1
 21
1190.4
  0
LINE
  8
0
 10
127.1
 20
1190.4
 11
126.84
 21
1190.47
  0
LINE
  8
0
 10
126.84
 20
1190.47
 11
126.591
 21
1190.57
  0
LINE
  8
0
 10
126.591
 20
1190.57
 11
126.356
 21
1190.7
  0
LINE
  8
0
 10
126.356
 20
1190.7
 11
126.139
 21
1190.85
  0
LINE
  8
0
 10
126.139
 20
1190.85
 11
125.943
 21
1191.04
  0
LINE
  8
0
 10
125.943
 20
1191.04
 11
125.773
 21
1191.24
  0
LINE
  8
0
 10
125.773
 20
1191.24
 11
125.629
 21
1191.47
  0
LINE
  8
0
 10
125.629
 20
1191.47
 11
125.515
 21
1191.71
  0
LINE
  8
0
 10
125.515
 20
1191.71
 11
125.432
 21
1191.97
  0
LINE
  8
0
 10
125.432
 20
1191.97
 11
125.382
 21
1192.23
  0
LINE
  8
0
 10
125.382
 20
1192.23
 11
125.365
 21
1192.5
  0
LINE
  8
0
 10
125.365
 20
1192.5
 11
125.382
 21
1192.77
  0
LINE
  8
0
 10
125.382
 20
1192.77
 11
125.432
 21
1193.03
  0
LINE
  8
0
 10
125.432
 20
1193.03
 11
125.515
 21
1193.29
  0
LINE
  8
0
 10
125.515
 20
1193.29
 11
125.629
 21
1193.53
  0
LINE
  8
0
 10
125.629
 20
1193.53
 11
125.773
 21
1193.76
  0
LINE
  8
0
 10
125.773
 20
1193.76
 11
125.943
 21
1193.96
  0
LINE
  8
0
 10
125.943
 20
1193.96
 11
126.139
 21
1194.15
  0
LINE
  8
0
 10
126.139
 20
1194.15
 11
126.356
 21
1194.3
  0
LINE
  8
0
 10
126.356
 20
1194.3
 11
126.591
 21
1194.43
  0
LINE
  8
0
 10
126.591
 20
1194.43
 11
126.84
 21
1194.53
  0
LINE
  8
0
 10
126.84
 20
1194.53
 11
127.1
 21
1194.6
  0
LINE
  8
0
 10
127.1
 20
1194.6
 11
127.366
 21
1194.63
  0
LINE
  8
0
 10
127.366
 20
1194.63
 11
127.634
 21
1194.63
  0
LINE
  8
0
 10
127.634
 20
1194.63
 11
127.9
 21
1194.6
  0
LINE
  8
0
 10
127.9
 20
1194.6
 11
128.16
 21
1194.53
  0
LINE
  8
0
 10
128.16
 20
1194.53
 11
128.409
 21
1194.43
  0
LINE
  8
0
 10
128.409
 20
1194.43
 11
128.644
 21
1194.3
  0
LINE
  8
0
 10
128.644
 20
1194.3
 11
128.861
 21
1194.15
  0
LINE
  8
0
 10
128.861
 20
1194.15
 11
129.057
 21
1193.96
  0
LINE
  8
0
 10
129.057
 20
1193.96
 11
129.227
 21
1193.76
  0
LINE
  8
0
 10
129.227
 20
1193.76
 11
129.371
 21
1193.53
  0
LINE
  8
0
 10
129.371
 20
1193.53
 11
129.485
 21
1193.29
  0
LINE
  8
0
 10
129.485
 20
1193.29
 11
129.568
 21
1193.03
  0
LINE
  8
0
 10
129.568
 20
1193.03
 11
129.618
 21
1192.77
  0
LINE
  8
0
 10
129.618
 20
1192.77
 11
129.635
 21
1192.5
  0
LINE
  8
0
 10
129.635
 20
1192.5
 11
129.618
 21
1192.23
  0
LINE
  8
0
 10
129.618
 20
1192.23
 11
129.568
 21
1191.97
  0
LINE
  8
0
 10
129.568
 20
1191.97
 11
129.485
 21
1191.71
  0
LINE
  8
0
 10
129.485
 20
1191.71
 11
129.371
 21
1191.47
  0
LINE
  8
0
 10
129.371
 20
1191.47
 11
129.227
 21
1191.24
  0
LINE
  8
0
 10
129.227
 20
1191.24
 11
129.057
 21
1191.04
  0
LINE
  8
0
 10
129.057
 20
1191.04
 11
128.861
 21
1190.85
  0
LINE
  8
0
 10
128.861
 20
1190.85
 11
128.644
 21
1190.7
  0
LINE
  8
0
 10
128.644
 20
1190.7
 11
128.409
 21
1190.57
  0
LINE
  8
0
 10
128.409
 20
1190.57
 11
128.16
 21
1190.47
  0
LINE
  8
0
 10
128.16
 20
1190.47
 11
127.9
 21
1190.4
  0
LINE
  8
0
 10
127.9
 20
1190.4
 11
127.634
 21
1190.37
  0
LINE
  8
0
 10
127.634
 20
1190.37
 11
127.366
 21
1190.37
  0
LINE
  8
0
 10
-127.634
 20
995.369
 11
-127.9
 21
995.403
  0
LINE
  8
0
 10
-127.9
 20
995.403
 11
-128.16
 21
995.469
  0
LINE
  8
0
 10
-128.16
 20
995.469
 11
-128.409
 21
995.568
  0
LINE
  8
0
 10
-128.409
 20
995.568
 11
-128.644
 21
995.697
  0
LINE
  8
0
 10
-128.644
 20
995.697
 11
-128.861
 21
995.855
  0
LINE
  8
0
 10
-128.861
 20
995.855
 11
-129.057
 21
996.038
  0
LINE
  8
0
 10
-129.057
 20
996.038
 11
-129.227
 21
996.245
  0
LINE
  8
0
 10
-129.227
 20
996.245
 11
-129.371
 21
996.471
  0
LINE
  8
0
 10
-129.371
 20
996.471
 11
-129.485
 21
996.714
  0
LINE
  8
0
 10
-129.485
 20
996.714
 11
-129.568
 21
996.969
  0
LINE
  8
0
 10
-129.568
 20
996.969
 11
-129.618
 21
997.232
  0
LINE
  8
0
 10
-129.618
 20
997.232
 11
-129.635
 21
997.5
  0
LINE
  8
0
 10
-129.635
 20
997.5
 11
-129.618
 21
997.768
  0
LINE
  8
0
 10
-129.618
 20
997.768
 11
-129.568
 21
998.031
  0
LINE
  8
0
 10
-129.568
 20
998.031
 11
-129.485
 21
998.286
  0
LINE
  8
0
 10
-129.485
 20
998.286
 11
-129.371
 21
998.529
  0
LINE
  8
0
 10
-129.371
 20
998.529
 11
-129.227
 21
998.755
  0
LINE
  8
0
 10
-129.227
 20
998.755
 11
-129.057
 21
998.962
  0
LINE
  8
0
 10
-129.057
 20
998.962
 11
-128.861
 21
999.145
  0
LINE
  8
0
 10
-128.861
 20
999.145
 11
-128.644
 21
999.303
  0
LINE
  8
0
 10
-128.644
 20
999.303
 11
-128.409
 21
999.432
  0
LINE
  8
0
 10
-128.409
 20
999.432
 11
-128.16
 21
999.531
  0
LINE
  8
0
 10
-128.16
 20
999.531
 11
-127.9
 21
999.597
  0
LINE
  8
0
 10
-127.9
 20
999.597
 11
-127.634
 21
999.631
  0
LINE
  8
0
 10
-127.634
 20
999.631
 11
-127.366
 21
999.631
  0
LINE
  8
0
 10
-127.366
 20
999.631
 11
-127.1
 21
999.597
  0
LINE
  8
0
 10
-127.1
 20
999.597
 11
-126.84
 21
999.531
  0
LINE
  8
0
 10
-126.84
 20
999.531
 11
-126.591
 21
999.432
  0
LINE
  8
0
 10
-126.591
 20
999.432
 11
-126.356
 21
999.303
  0
LINE
  8
0
 10
-126.356
 20
999.303
 11
-126.139
 21
999.145
  0
LINE
  8
0
 10
-126.139
 20
999.145
 11
-125.943
 21
998.962
  0
LINE
  8
0
 10
-125.943
 20
998.962
 11
-125.773
 21
998.755
  0
LINE
  8
0
 10
-125.773
 20
998.755
 11
-125.629
 21
998.529
  0
LINE
  8
0
 10
-125.629
 20
998.529
 11
-125.515
 21
998.286
  0
LINE
  8
0
 10
-125.515
 20
998.286
 11
-125.432
 21
998.031
  0
LINE
  8
0
 10
-125.432
 20
998.031
 11
-125.382
 21
997.768
  0
LINE
  8
0
 10
-125.382
 20
997.768
 11
-125.365
 21
997.5
  0
LINE
  8
0
 10
-125.365
 20
997.5
 11
-125.382
 21
997.232
  0
LINE
  8
0
 10
-125.382
 20
997.232
 11
-125.432
 21
996.969
  0
LINE
  8
0
 10
-125.432
 20
996.969
 11
-125.515
 21
996.714
  0
LINE
  8
0
 10
-125.515
 20
996.714
 11
-125.629
 21
996.471
  0
LINE
  8
0
 10
-125.629
 20
996.471
 11
-125.773
 21
996.245
  0
LINE
  8
0
 10
-125.773
 20
996.245
 11
-125.943
 21
996.038
  0
LINE
  8
0
 10
-125.943
 20
996.038
 11
-126.139
 21
995.855
  0
LINE
  8
0
 10
-126.139
 20
995.855
 11
-126.356
 21
995.697
  0
LINE
  8
0
 10
-126.356
 20
995.697
 11
-126.591
 21
995.568
  0
LINE
  8
0
 10
-126.591
 20
995.568
 11
-126.84
 21
995.469
  0
LINE
  8
0
 10
-126.84
 20
995.469
 11
-127.1
 21
995.403
  0
LINE
  8
0
 10
-127.1
 20
995.403
 11
-127.366
 21
995.369
  0
LINE
  8
0
 10
-127.366
 20
995.369
 11
-127.634
 21
995.369
  0
LINE
  8
0
 10
127.366
 20
995.369
 11
127.1
 21
995.403
  0
LINE
  8
0
 10
127.1
 20
995.403
 11
126.84
 21
995.469
  0
LINE
  8
0
 10
126.84
 20
995.469
 11
126.591
 21
995.568
  0
LINE
  8
0
 10
126.591
 20
995.568
 11
126.356
 21
995.697
  0
LINE
  8
0
 10
126.356
 20
995.697
 11
126.139
 21
995.855
  0
LINE
  8
0
 10
126.139
 20
995.855
 11
125.943
 21
996.038
  0
LINE
  8
0
 10
125.943
 20
996.038
 11
125.773
 21
996.245
  0
LINE
  8
0
 10
125.773
 20
996.245
 11
125.629
 21
996.471
  0
LINE
  8
0
 10
125.629
 20
996.471
 11
125.515
 21
996.714
  0
LINE
  8
0
 10
125.515
 20
996.714
 11
125.432
 21
996.969
  0
LINE
  8
0
 10
125.432
 20
996.969
 11
125.382
 21
997.232
  0
LINE
  8
0
 10
125.382
 20
997.232
 11
125.365
 21
997.5
  0
LINE
  8
0
 10
125.365
 20
997.5
 11
125.382
 21
997.768
  0
LINE
  8
0
 10
125.382
 20
997.768
 11
125.432
 21
998.031
  0
LINE
  8
0
 10
125.432
 20
998.031
 11
125.515
 21
998.286
  0
LINE
  8
0
 10
125.515
 20
998.286
 11
125.629
 21
998.529
  0
LINE
  8
0
 10
125.629
 20
998.529
 11
125.773
 21
998.755
  0
LINE
  8
0
 10
125.773
 20
998.755
 11
125.943
 21
998.962
  0
LINE
  8
0
 10
125.943
 20
998.962
 11
126.139
 21
999.145
  0
LINE
  8
0
 10
126.139
 20
999.145
 11
126.356
 21
999.303
  0
LINE
  8
0
 10
126.356
 20
999.303
 11
126.591
 21
999.432
  0
LINE
  8
0
 10
126.591
 20
999.432
 11
126.84
 21
999.531
  0
LINE
  8
0
 10
126.84
 20
999.531
 11
127.1
 21
999.597
  0
LINE
  8
0
 10
127.1
 20
999.597
 11
127.366
 21
999.631
  0
LINE
  8
0
 10
127.366
 20
999.631
 11
127.634
 21
999.631
  0
LINE
  8
0
 10
127.634
 20
999.631
 11
127.9
 21
999.597
  0
LINE
  8
0
 10
127.9
 20
999.597
 11
128.16
 21
999.531
  0
LINE
  8
0
 10
128.16
 20
999.531
 11
128.409
 21
999.432
  0
LINE
  8
0
 10
128.409
 20
999.432
 11
128.644
 21
999.303
  0
LINE
  8
0
 10
128.644
 20
999.303
 11
128.861
 21
999.145
  0
LINE
  8
0
 10
128.861
 20
999.145
 11
129.057
 21
998.962
  0
LINE
  8
0
 10
129.057
 20
998.962
 11
129.227
 21
998.755
  0
LINE
  8
0
 10
129.227
 20
998.755
 11
129.371
 21
998.529
  0
LINE
  8
0
 10
129.371
 20
998.529
 11
129.485
 21
998.286
  0
LINE
  8
0
 10
129.485
 20
998.286
 11
129.568
 21
998.031
  0
LINE
  8
0
 10
129.568
 20
998.031
 11
129.618
 21
997.768
  0
LINE
  8
0
 10
129.618
 20
997.768
 11
129.635
 21
997.5
  0
LINE
  8
0
 10
129.635
 20
997.5
 11
129.618
 21
997.232
  0
LINE
  8
0
 10
129.618
 20
997.232
 11
129.568
 21
996.969
  0
LINE
  8
0
 10
129.568
 20
996.969
 11
129.485
 21
996.714
  0
LINE
  8
0
 10
129.485
 20
996.714
 11
129.371
 21
996.471
  0
LINE
  8
0
 10
129.371
 20
996.471
 11
129.227
 21
996.245
  0
LINE
  8
0
 10
129.227
 20
996.245
 11
129.057
 21
996.038
  0
LINE
  8
0
 10
129.057
 20
996.038
 11
128.861
 21
995.855
  0
LINE
  8
0
 10
128.861
 20
995.855
 11
128.644
 21
995.697
  0
LINE
  8
0
 10
128.644
 20
995.697
 11
128.409
 21
995.568
  0
LINE
  8
0
 10
128.409
 20
995.568
 11
128.16
 21
995.469
  0
LINE
  8
0
 10
128.16
 20
995.469
 11
127.9
 21
995.403
  0
LINE
  8
0
 10
127.9
 20
995.403
 11
127.634
 21
995.369
  0
LINE
  8
0
 10
127.634
 20
995.369
 11
127.366
 21
995.369
  0
ENDSEC
  0
SECTION
  2
OBJECTS
  0
DICTIONARY
  0
ENDSEC
  0
EOF
