<?xml version="1.0" standalone="no"?>
<!DOCTYPE svg PUBLIC "-//W3C//DTD SVG 1.1//EN" "http://www.w3.org/Graphics/SVG/1.1/DTD/svg11.dtd">
<svg width="242mm" height="514mm" viewBox="-122 -779 242 514" xmlns="http://www.w3.org/2000/svg" version="1.1">
<title>OpenSCAD Model</title>
<path d="
M -118.5,-614.941 L -118.187,-614.647 L -117.679,-614.278 L -117.129,-613.976 L -116.545,-613.745 L -115.937,-613.589
 L -115.314,-613.51 L 115.314,-613.51 L 115.937,-613.589 L 116.545,-613.745 L 117.129,-613.976 L 117.679,-614.278
 L 118.187,-614.647 L 118.645,-615.077 L 119.045,-615.561 L 119.382,-616.091 L 119.649,-616.659 L 119.843,-617.257
 L 119.961,-617.873 L 120,-618.5 L 120,-773.5 L 119.961,-774.127 L 119.843,-774.743 L 119.649,-775.341
 L 119.382,-775.909 L 119.045,-776.439 L 118.645,-776.923 L 118.187,-777.353 L 117.679,-777.722 L 117.129,-778.024
 L 116.545,-778.255 L 115.937,-778.411 L 115.314,-778.49 L -115.314,-778.49 L -115.937,-778.411 L -116.545,-778.255
 L -117.129,-778.024 L -117.679,-777.722 L -118.187,-777.353 L -118.5,-777.059 L -118.5,-778.49 L -121.5,-778.49
 L -121.5,-613.51 L -118.5,-613.51 z
M -114.743,-615.135 L -115.226,-615.196 L -115.697,-615.317 L -116.149,-615.496 L -116.575,-615.73 L -116.969,-616.016
 L -117.323,-616.349 L -117.633,-616.724 L -117.894,-617.134 L -118.101,-617.574 L -118.251,-618.037 L -118.342,-618.515
 L -118.373,-619 L -118.373,-773 L -118.342,-773.485 L -118.251,-773.963 L -118.101,-774.426 L -117.894,-774.866
 L -117.633,-775.276 L -117.323,-775.651 L -116.969,-775.984 L -116.575,-776.27 L -116.149,-776.504 L -115.697,-776.683
 L -115.226,-776.804 L -114.743,-776.865 L 114.743,-776.865 L 115.226,-776.804 L 115.697,-776.683 L 116.149,-776.504
 L 116.575,-776.27 L 116.969,-775.984 L 117.323,-775.651 L 117.633,-775.276 L 117.894,-774.866 L 118.101,-774.426
 L 118.251,-773.963 L 118.342,-773.485 L 118.373,-773 L 118.373,-619 L 118.342,-618.515 L 118.251,-618.037
 L 118.101,-617.574 L 117.894,-617.134 L 117.633,-616.724 L 117.323,-616.349 L 116.969,-616.016 L 116.575,-615.73
 L 116.149,-615.496 L 115.697,-615.317 L 115.226,-615.196 L 114.743,-615.135 z
M 115.937,-439.589 L 116.545,-439.745 L 117.129,-439.976 L 117.679,-440.278 L 118.187,-440.647 L 118.645,-441.077
 L 119.045,-441.561 L 119.382,-442.091 L 119.649,-442.659 L 119.843,-443.257 L 119.961,-443.873 L 120,-444.5
 L 120,-599.5 L 119.961,-600.127 L 119.843,-600.743 L 119.649,-601.341 L 119.382,-601.909 L 119.045,-602.439
 L 118.645,-602.923 L 118.187,-603.353 L 117.679,-603.722 L 117.129,-604.024 L 116.545,-604.255 L 115.937,-604.411
 L 115.314,-604.49 L -115.314,-604.49 L -115.937,-604.411 L -116.545,-604.255 L -117.129,-604.024 L -117.679,-603.722
 L -118.187,-603.353 L -118.5,-603.059 L -118.5,-604.115 L -121.5,-604.115 L -121.5,-439.885 L -118.5,-439.885
 L -118.5,-440.941 L -118.187,-440.647 L -117.679,-440.278 L -117.129,-439.976 L -116.545,-439.745 L -115.937,-439.589
 L -115.314,-439.51 L 115.314,-439.51 z
M -112.651,-594.605 L -112.95,-594.643 L -113.242,-594.717 L -113.522,-594.828 L -113.786,-594.974 L -114.03,-595.151
 L -114.25,-595.357 L -114.442,-595.589 L -114.603,-595.844 L -114.731,-596.117 L -114.825,-596.403 L -114.881,-596.699
 L -114.9,-597 L -114.881,-597.301 L -114.825,-597.597 L -114.731,-597.883 L -114.603,-598.156 L -114.442,-598.411
 L -114.25,-598.643 L -114.03,-598.849 L -113.786,-599.026 L -113.522,-599.172 L -113.242,-599.283 L -112.95,-599.357
 L -112.651,-599.395 L -112.349,-599.395 L -112.05,-599.357 L -111.758,-599.283 L -111.478,-599.172 L -111.214,-599.026
 L -110.97,-598.849 L -110.75,-598.643 L -110.558,-598.411 L -110.397,-598.156 L -110.269,-597.883 L -110.175,-597.597
 L -110.119,-597.301 L -110.1,-597 L -110.119,-596.699 L -110.175,-596.403 L -110.269,-596.117 L -110.397,-595.844
 L -110.558,-595.589 L -110.75,-595.357 L -110.97,-595.151 L -111.214,-594.974 L -111.478,-594.828 L -111.758,-594.717
 L -112.05,-594.643 L -112.349,-594.605 z
M 112.349,-594.605 L 112.05,-594.643 L 111.758,-594.717 L 111.478,-594.828 L 111.214,-594.974 L 110.97,-595.151
 L 110.75,-595.357 L 110.558,-595.589 L 110.397,-595.844 L 110.269,-596.117 L 110.175,-596.403 L 110.119,-596.699
 L 110.1,-597 L 110.119,-597.301 L 110.175,-597.597 L 110.269,-597.883 L 110.397,-598.156 L 110.558,-598.411
 L 110.75,-598.643 L 110.97,-598.849 L 111.214,-599.026 L 111.478,-599.172 L 111.758,-599.283 L 112.05,-599.357
 L 112.349,-599.395 L 112.651,-599.395 L 112.95,-599.357 L 113.242,-599.283 L 113.522,-599.172 L 113.786,-599.026
 L 114.03,-598.849 L 114.25,-598.643 L 114.442,-598.411 L 114.603,-598.156 L 114.731,-597.883 L 114.825,-597.597
 L 114.881,-597.301 L 114.9,-597 L 114.881,-596.699 L 114.825,-596.403 L 114.731,-596.117 L 114.603,-595.844
 L 114.442,-595.589 L 114.25,-595.357 L 114.03,-595.151 L 113.786,-594.974 L 113.522,-594.828 L 113.242,-594.717
 L 112.95,-594.643 L 112.651,-594.605 z
M 112.349,-444.605 L 112.05,-444.643 L 111.758,-444.717 L 111.478,-444.828 L 111.214,-444.974 L 110.97,-445.151
 L 110.75,-445.357 L 110.558,-445.589 L 110.397,-445.844 L 110.269,-446.117 L 110.175,-446.403 L 110.119,-446.699
 L 110.1,-447 L 110.119,-447.301 L 110.175,-447.597 L 110.269,-447.883 L 110.397,-448.156 L 110.558,-448.411
 L 110.75,-448.643 L 110.97,-448.849 L 111.214,-449.026 L 111.478,-449.172 L 111.758,-449.283 L 112.05,-449.357
 L 112.349,-449.395 L 112.651,-449.395 L 112.95,-449.357 L 113.242,-449.283 L 113.522,-449.172 L 113.786,-449.026
 L 114.03,-448.849 L 114.25,-448.643 L 114.442,-448.411 L 114.603,-448.156 L 114.731,-447.883 L 114.825,-447.597
 L 114.881,-447.301 L 114.9,-447 L 114.881,-446.699 L 114.825,-446.403 L 114.731,-446.117 L 114.603,-445.844
 L 114.442,-445.589 L 114.25,-445.357 L 114.03,-445.151 L 113.786,-444.974 L 113.522,-444.828 L 113.242,-444.717
 L 112.95,-444.643 L 112.651,-444.605 z
M -112.651,-444.605 L -112.95,-444.643 L -113.242,-444.717 L -113.522,-444.828 L -113.786,-444.974 L -114.03,-445.151
 L -114.25,-445.357 L -114.442,-445.589 L -114.603,-445.844 L -114.731,-446.117 L -114.825,-446.403 L -114.881,-446.699
 L -114.9,-447 L -114.881,-447.301 L -114.825,-447.597 L -114.731,-447.883 L -114.603,-448.156 L -114.442,-448.411
 L -114.25,-448.643 L -114.03,-448.849 L -113.786,-449.026 L -113.522,-449.172 L -113.242,-449.283 L -112.95,-449.357
 L -112.651,-449.395 L -112.349,-449.395 L -112.05,-449.357 L -111.758,-449.283 L -111.478,-449.172 L -111.214,-449.026
 L -110.97,-448.849 L -110.75,-448.643 L -110.558,-448.411 L -110.397,-448.156 L -110.269,-447.883 L -110.175,-447.597
 L -110.119,-447.301 L -110.1,-447 L -110.119,-446.699 L -110.175,-446.403 L -110.269,-446.117 L -110.397,-445.844
 L -110.558,-445.589 L -110.75,-445.357 L -110.97,-445.151 L -111.214,-444.974 L -111.478,-444.828 L -111.758,-444.717
 L -112.05,-444.643 L -112.349,-444.605 z
M 115.937,-265.589 L 116.545,-265.745 L 117.129,-265.976 L 117.679,-266.278 L 118.187,-266.647 L 118.645,-267.077
 L 119.045,-267.561 L 119.382,-268.091 L 119.649,-268.659 L 119.843,-269.257 L 119.961,-269.873 L 120,-270.5
 L 120,-425.5 L 119.961,-426.127 L 119.843,-426.743 L 119.649,-427.341 L 119.382,-427.909 L 119.045,-428.439
 L 118.645,-428.923 L 118.187,-429.353 L 117.679,-429.722 L 117.129,-430.024 L 116.545,-430.255 L 115.937,-430.411
 L 115.314,-430.49 L -115.314,-430.49 L -115.937,-430.411 L -116.545,-430.255 L -117.129,-430.024 L -117.679,-429.722
 L -118.187,-429.353 L -118.645,-428.923 L -119.045,-428.439 L -119.382,-427.909 L -119.649,-427.341 L -119.843,-426.743
 L -119.9,-426.444 L -121.5,-426.444 L -121.5,-269.556 L -119.9,-269.556 L -119.843,-269.257 L -119.649,-268.659
 L -119.382,-268.091 L -119.045,-267.561 L -118.645,-267.077 L -118.187,-266.647 L -117.679,-266.278 L -117.129,-265.976
 L -116.545,-265.745 L -115.937,-265.589 L -115.314,-265.51 L 115.314,-265.51 z
M 112.387,-421.204 L 112.163,-421.232 L 111.944,-421.288 L 111.734,-421.371 L 111.536,-421.48 L 111.353,-421.613
 L 111.188,-421.768 L 111.044,-421.942 L 110.923,-422.133 L 110.826,-422.337 L 110.757,-422.552 L 110.714,-422.774
 L 110.7,-423 L 110.714,-423.226 L 110.757,-423.448 L 110.826,-423.663 L 110.923,-423.867 L 111.044,-424.058
 L 111.188,-424.232 L 111.353,-424.387 L 111.536,-424.52 L 111.734,-424.629 L 111.944,-424.712 L 112.163,-424.768
 L 112.387,-424.796 L 112.613,-424.796 L 112.837,-424.768 L 113.056,-424.712 L 113.266,-424.629 L 113.464,-424.52
 L 113.647,-424.387 L 113.812,-424.232 L 113.956,-424.058 L 114.077,-423.867 L 114.174,-423.663 L 114.243,-423.448
 L 114.286,-423.226 L 114.3,-423 L 114.286,-422.774 L 114.243,-422.552 L 114.174,-422.337 L 114.077,-422.133
 L 113.956,-421.942 L 113.812,-421.768 L 113.647,-421.613 L 113.464,-421.48 L 113.266,-421.371 L 113.056,-421.288
 L 112.837,-421.232 L 112.613,-421.204 z
M -112.613,-421.204 L -112.837,-421.232 L -113.056,-421.288 L -113.266,-421.371 L -113.464,-421.48 L -113.647,-421.613
 L -113.812,-421.768 L -113.956,-421.942 L -114.077,-422.133 L -114.174,-422.337 L -114.243,-422.552 L -114.286,-422.774
 L -114.3,-423 L -114.286,-423.226 L -114.243,-423.448 L -114.174,-423.663 L -114.077,-423.867 L -113.956,-424.058
 L -113.812,-424.232 L -113.647,-424.387 L -113.464,-424.52 L -113.266,-424.629 L -113.056,-424.712 L -112.837,-424.768
 L -112.613,-424.796 L -112.387,-424.796 L -112.163,-424.768 L -111.944,-424.712 L -111.734,-424.629 L -111.536,-424.52
 L -111.353,-424.387 L -111.188,-424.232 L -111.044,-424.058 L -110.923,-423.867 L -110.826,-423.663 L -110.757,-423.448
 L -110.714,-423.226 L -110.7,-423 L -110.714,-422.774 L -110.757,-422.552 L -110.826,-422.337 L -110.923,-422.133
 L -111.044,-421.942 L -111.188,-421.768 L -111.353,-421.613 L -111.536,-421.48 L -111.734,-421.371 L -111.944,-421.288
 L -112.163,-421.232 L -112.387,-421.204 z
M 112.387,-271.204 L 112.163,-271.232 L 111.944,-271.288 L 111.734,-271.371 L 111.536,-271.48 L 111.353,-271.613
 L 111.188,-271.768 L 111.044,-271.942 L 110.923,-272.133 L 110.826,-272.337 L 110.757,-272.552 L 110.714,-272.774
 L 110.7,-273 L 110.714,-273.226 L 110.757,-273.448 L 110.826,-273.663 L 110.923,-273.867 L 111.044,-274.058
 L 111.188,-274.232 L 111.353,-274.387 L 111.536,-274.52 L 111.734,-274.629 L 111.944,-274.712 L 112.163,-274.768
 L 112.387,-274.796 L 112.613,-274.796 L 112.837,-274.768 L 113.056,-274.712 L 113.266,-274.629 L 113.464,-274.52
 L 113.647,-274.387 L 113.812,-274.232 L 113.956,-274.058 L 114.077,-273.867 L 114.174,-273.663 L 114.243,-273.448
 L 114.286,-273.226 L 114.3,-273 L 114.286,-272.774 L 114.243,-272.552 L 114.174,-272.337 L 114.077,-272.133
 L 113.956,-271.942 L 113.812,-271.768 L 113.647,-271.613 L 113.464,-271.48 L 113.266,-271.371 L 113.056,-271.288
 L 112.837,-271.232 L 112.613,-271.204 z
M -112.613,-271.204 L -112.837,-271.232 L -113.056,-271.288 L -113.266,-271.371 L -113.464,-271.48 L -113.647,-271.613
 L -113.812,-271.768 L -113.956,-271.942 L -114.077,-272.133 L -114.174,-272.337 L -114.243,-272.552 L -114.286,-272.774
 L -114.3,-273 L -114.286,-273.226 L -114.243,-273.448 L -114.174,-273.663 L -114.077,-273.867 L -113.956,-274.058
 L -113.812,-274.232 L -113.647,-274.387 L -113.464,-274.52 L -113.266,-274.629 L -113.056,-274.712 L -112.837,-274.768
 L -112.613,-274.796 L -112.387,-274.796 L -112.163,-274.768 L -111.944,-274.712 L -111.734,-274.629 L -111.536,-274.52
 L -111.353,-274.387 L -111.188,-274.232 L -111.044,-274.058 L -110.923,-273.867 L -110.826,-273.663 L -110.757,-273.448
 L -110.714,-273.226 L -110.7,-273 L -110.714,-272.774 L -110.757,-272.552 L -110.826,-272.337 L -110.923,-272.133
 L -111.044,-271.942 L -111.188,-271.768 L -111.353,-271.613 L -111.536,-271.48 L -111.734,-271.371 L -111.944,-271.288
 L -112.163,-271.232 L -112.387,-271.204 z
" stroke="black" fill="lightgray" stroke-width="0.5"/>
</svg>
