<?xml version="1.0" standalone="no"?>
<!DOCTYPE svg PUBLIC "-//W3C//DTD SVG 1.1//EN" "http://www.w3.org/Graphics/SVG/1.1/DTD/svg11.dtd">
<svg width="10mm" height="120mm" viewBox="-5 -225 10 120" xmlns="http://www.w3.org/2000/svg" version="1.1">
<title>OpenSCAD Model</title>
<path d="
M 0.850662,-215.236 L 0.944031,-215.254 L 1.03702,-215.273 L 1.04059,-215.274 L 1.13014,-215.352 L 1.1465,-215.459
 L 1.12584,-215.568 L 1.11859,-215.678 L 1.12457,-215.789 L 1.14362,-215.901 L 1.20421,-216.031 L 1.29231,-216.144
 L 1.40286,-216.236 L 1.53064,-216.305 L 1.66948,-216.347 L 1.81274,-216.36 L 1.95471,-216.342 L 2.08968,-216.293
 L 2.18201,-216.227 L 2.26508,-216.153 L 2.33803,-216.07 L 2.39999,-215.979 L 2.48764,-215.914 L 2.60576,-215.923
 L 2.60886,-215.925 L 2.68837,-215.977 L 2.76685,-216.03 L 2.76984,-216.032 L 2.82297,-216.138 L 2.79684,-216.244
 L 2.73634,-216.336 L 2.68745,-216.435 L 2.65031,-216.54 L 2.62512,-216.651 L 2.63126,-216.794 L 2.66956,-216.932
 L 2.73645,-217.059 L 2.82826,-217.172 L 2.94051,-217.264 L 3.06787,-217.33 L 3.20566,-217.369 L 3.34921,-217.375
 L 3.45964,-217.35 L 3.56493,-217.312 L 3.66411,-217.264 L 3.75623,-217.203 L 3.86195,-217.177 L 3.96776,-217.23
 L 3.96988,-217.233 L 4.02344,-217.312 L 4.07544,-217.391 L 4.07739,-217.394 L 4.08603,-217.512 L 4.02139,-217.6
 L 3.93025,-217.662 L 3.84717,-217.735 L 3.77258,-217.818 L 3.70699,-217.91 L 3.65771,-218.045 L 3.64037,-218.187
 L 3.65343,-218.331 L 3.69531,-218.469 L 3.76387,-218.597 L 3.85593,-218.708 L 3.96858,-218.796 L 4.09886,-218.856
 L 4.21059,-218.875 L 4.32205,-218.881 L 4.43236,-218.874 L 4.5406,-218.854 L 4.64833,-218.87 L 4.72571,-218.959
 L 4.72652,-218.963 L 4.74597,-219.056 L 4.7636,-219.149 L 4.76421,-219.153 L 4.72704,-219.265 L 4.63373,-219.322
 L 4.52583,-219.344 L 4.42119,-219.379 L 4.3205,-219.428 L 4.2245,-219.488 L 4.12733,-219.594 L 4.05698,-219.718
 L 4.01422,-219.856 L 3.99979,-220 L 4.01422,-220.144 L 4.05698,-220.282 L 4.12733,-220.406 L 4.2245,-220.512
 L 4.3205,-220.572 L 4.42119,-220.62 L 4.52583,-220.656 L 4.63373,-220.678 L 4.72704,-220.735 L 4.76421,-220.847
 L 4.7636,-220.851 L 4.74597,-220.944 L 4.72652,-221.037 L 4.72571,-221.041 L 4.64838,-221.13 L 4.5406,-221.146
 L 4.43237,-221.126 L 4.32211,-221.119 L 4.21065,-221.125 L 4.09886,-221.144 L 3.96858,-221.204 L 3.85593,-221.292
 L 3.76387,-221.403 L 3.69531,-221.531 L 3.65343,-221.669 L 3.64037,-221.813 L 3.65771,-221.955 L 3.70699,-222.09
 L 3.77264,-222.182 L 3.84723,-222.265 L 3.93028,-222.338 L 4.02139,-222.4 L 4.08609,-222.488 L 4.07739,-222.606
 L 4.07544,-222.609 L 4.02344,-222.688 L 3.96988,-222.767 L 3.96776,-222.77 L 3.86205,-222.823 L 3.75623,-222.797
 L 3.66414,-222.736 L 3.56505,-222.687 L 3.45976,-222.65 L 3.34921,-222.625 L 3.20566,-222.631 L 3.06787,-222.67
 L 2.94051,-222.736 L 2.82826,-222.828 L 2.73645,-222.941 L 2.66956,-223.068 L 2.63126,-223.206 L 2.62512,-223.349
 L 2.65044,-223.46 L 2.68756,-223.565 L 2.73637,-223.664 L 2.79684,-223.756 L 2.82307,-223.862 L 2.76984,-223.968
 L 2.76685,-223.97 L 2.68837,-224.023 L 2.60886,-224.075 L 2.60576,-224.077 L 2.48776,-224.086 L 2.39999,-224.021
 L 2.33807,-223.93 L 2.26523,-223.847 L 2.18217,-223.773 L 2.08968,-223.707 L 1.95471,-223.658 L 1.81274,-223.64
 L 1.66948,-223.653 L 1.53064,-223.695 L 1.40286,-223.764 L 1.29231,-223.856 L 1.20421,-223.969 L 1.14362,-224.099
 L 1.12474,-224.211 L 1.11874,-224.322 L 1.12589,-224.432 L 1.1465,-224.541 L 1.13026,-224.648 L 1.04059,-224.726
 L 1.03702,-224.727 L 0.944031,-224.746 L 0.850662,-224.764 L 0.847046,-224.764 L 0.734741,-224.727 L 0.678375,-224.634
 L 0.656052,-224.526 L 0.620544,-224.421 L 0.572357,-224.32 L 0.511993,-224.225 L 0.406158,-224.127 L 0.281647,-224.057
 L 0.144287,-224.014 L 0,-224 L -0.144287,-224.014 L -0.281647,-224.057 L -0.406158,-224.127 L -0.511993,-224.225
 L -0.572189,-224.32 L -0.620392,-224.421 L -0.655991,-224.526 L -0.678375,-224.634 L -0.734589,-224.727 L -0.847046,-224.764
 L -0.850662,-224.764 L -0.944031,-224.746 L -1.03702,-224.727 L -1.04059,-224.726 L -1.13014,-224.648 L -1.1465,-224.541
 L -1.12584,-224.432 L -1.11859,-224.322 L -1.12457,-224.211 L -1.14362,-224.099 L -1.20421,-223.969 L -1.29231,-223.856
 L -1.40286,-223.764 L -1.53064,-223.695 L -1.66948,-223.653 L -1.81274,-223.64 L -1.95471,-223.658 L -2.08968,-223.707
 L -2.18201,-223.773 L -2.26508,-223.847 L -2.33803,-223.93 L -2.39999,-224.021 L -2.48764,-224.086 L -2.60576,-224.077
 L -2.60886,-224.075 L -2.68837,-224.023 L -2.76685,-223.97 L -2.76984,-223.968 L -2.82297,-223.862 L -2.79684,-223.756
 L -2.73634,-223.664 L -2.68745,-223.565 L -2.65031,-223.46 L -2.62512,-223.349 L -2.63126,-223.206 L -2.66956,-223.068
 L -2.73645,-222.941 L -2.82826,-222.828 L -2.94051,-222.736 L -3.06787,-222.67 L -3.20566,-222.631 L -3.34921,-222.625
 L -3.45964,-222.65 L -3.56493,-222.688 L -3.66411,-222.736 L -3.75623,-222.797 L -3.86195,-222.823 L -3.96776,-222.77
 L -3.96988,-222.767 L -4.02344,-222.688 L -4.07544,-222.609 L -4.07739,-222.606 L -4.08603,-222.488 L -4.02139,-222.4
 L -3.93025,-222.338 L -3.84717,-222.265 L -3.77258,-222.182 L -3.70699,-222.09 L -3.65771,-221.955 L -3.64037,-221.813
 L -3.65343,-221.669 L -3.69531,-221.531 L -3.76387,-221.403 L -3.85593,-221.292 L -3.96858,-221.204 L -4.09886,-221.144
 L -4.21059,-221.125 L -4.32205,-221.119 L -4.43236,-221.126 L -4.5406,-221.146 L -4.64833,-221.13 L -4.72571,-221.041
 L -4.72652,-221.037 L -4.74597,-220.944 L -4.7636,-220.851 L -4.76421,-220.847 L -4.72704,-220.735 L -4.63373,-220.678
 L -4.52583,-220.656 L -4.42119,-220.621 L -4.3205,-220.572 L -4.2245,-220.512 L -4.12733,-220.406 L -4.05698,-220.282
 L -4.01422,-220.144 L -3.99979,-220 L -4.01422,-219.856 L -4.05698,-219.718 L -4.12733,-219.594 L -4.2245,-219.488
 L -4.3205,-219.428 L -4.42119,-219.38 L -4.52583,-219.344 L -4.63373,-219.322 L -4.72704,-219.265 L -4.76421,-219.153
 L -4.7636,-219.149 L -4.74597,-219.056 L -4.72652,-218.963 L -4.72571,-218.959 L -4.64838,-218.87 L -4.5406,-218.854
 L -4.43237,-218.874 L -4.32211,-218.881 L -4.21065,-218.875 L -4.09886,-218.856 L -3.96858,-218.796 L -3.85593,-218.708
 L -3.76387,-218.597 L -3.69531,-218.469 L -3.65343,-218.331 L -3.64037,-218.187 L -3.65771,-218.045 L -3.70699,-217.91
 L -3.77264,-217.818 L -3.84723,-217.735 L -3.93028,-217.662 L -4.02139,-217.6 L -4.08609,-217.512 L -4.07739,-217.394
 L -4.07544,-217.391 L -4.02344,-217.312 L -3.96988,-217.233 L -3.96776,-217.23 L -3.86205,-217.177 L -3.75623,-217.203
 L -3.66414,-217.264 L -3.56505,-217.313 L -3.45976,-217.35 L -3.34921,-217.375 L -3.20566,-217.369 L -3.06787,-217.33
 L -2.94051,-217.264 L -2.82826,-217.172 L -2.73645,-217.059 L -2.66956,-216.932 L -2.63126,-216.794 L -2.62512,-216.651
 L -2.65044,-216.54 L -2.68756,-216.435 L -2.73637,-216.336 L -2.79684,-216.244 L -2.82307,-216.138 L -2.76984,-216.032
 L -2.76685,-216.03 L -2.68837,-215.977 L -2.60886,-215.925 L -2.60576,-215.923 L -2.48776,-215.914 L -2.39999,-215.979
 L -2.33807,-216.07 L -2.26523,-216.153 L -2.18217,-216.227 L -2.08968,-216.293 L -1.95471,-216.342 L -1.81274,-216.36
 L -1.66948,-216.347 L -1.53064,-216.305 L -1.40286,-216.236 L -1.29231,-216.144 L -1.20421,-216.031 L -1.14362,-215.901
 L -1.12474,-215.789 L -1.11874,-215.678 L -1.12589,-215.568 L -1.1465,-215.459 L -1.13026,-215.352 L -1.04059,-215.274
 L -1.03702,-215.273 L -0.944031,-215.254 L -0.850662,-215.236 L -0.847046,-215.236 L -0.734741,-215.273 L -0.678375,-215.366
 L -0.656052,-215.474 L -0.620544,-215.579 L -0.572357,-215.68 L -0.511993,-215.775 L -0.406158,-215.873 L -0.281647,-215.943
 L -0.144287,-215.986 L 0,-216 L 0.144287,-215.986 L 0.281647,-215.943 L 0.406158,-215.873 L 0.511993,-215.775
 L 0.572189,-215.68 L 0.620392,-215.579 L 0.655991,-215.474 L 0.678375,-215.366 L 0.734589,-215.273 L 0.847046,-215.236
 z
M -0.156967,-217.505 L -0.468445,-217.544 L -0.772537,-217.622 L -1.06444,-217.738 L -1.33955,-217.889 L -1.59355,-218.074
 L -1.82242,-218.289 L -2.02254,-218.531 L -2.19077,-218.796 L -2.32443,-219.08 L -2.42145,-219.378 L -2.48029,-219.687
 L -2.5,-220 L -2.48029,-220.313 L -2.42145,-220.622 L -2.32443,-220.92 L -2.19077,-221.204 L -2.02254,-221.469
 L -1.82242,-221.711 L -1.59355,-221.926 L -1.33955,-222.111 L -1.06444,-222.262 L -0.772537,-222.378 L -0.468445,-222.456
 L -0.156967,-222.495 L 0.156967,-222.495 L 0.468445,-222.456 L 0.772537,-222.378 L 1.06444,-222.262 L 1.33955,-222.111
 L 1.59355,-221.926 L 1.82242,-221.711 L 2.02254,-221.469 L 2.19077,-221.204 L 2.32443,-220.92 L 2.42145,-220.622
 L 2.48029,-220.313 L 2.5,-220 L 2.48029,-219.687 L 2.42145,-219.378 L 2.32443,-219.08 L 2.19077,-218.796
 L 2.02254,-218.531 L 1.82242,-218.289 L 1.59355,-218.074 L 1.33955,-217.889 L 1.06444,-217.738 L 0.772537,-217.622
 L 0.468445,-217.544 L 0.156967,-217.505 z
M 0.850662,-105.236 L 0.944031,-105.254 L 1.03702,-105.273 L 1.04059,-105.274 L 1.13014,-105.352 L 1.1465,-105.459
 L 1.12584,-105.568 L 1.11859,-105.678 L 1.12457,-105.789 L 1.14362,-105.901 L 1.20421,-106.031 L 1.29231,-106.144
 L 1.40286,-106.236 L 1.53064,-106.305 L 1.66948,-106.347 L 1.81274,-106.36 L 1.95471,-106.342 L 2.08968,-106.293
 L 2.18201,-106.227 L 2.26508,-106.153 L 2.33803,-106.07 L 2.39999,-105.979 L 2.48764,-105.914 L 2.60576,-105.923
 L 2.60886,-105.925 L 2.68837,-105.977 L 2.76685,-106.03 L 2.76984,-106.032 L 2.82297,-106.138 L 2.79684,-106.244
 L 2.73634,-106.336 L 2.68745,-106.435 L 2.65031,-106.54 L 2.62512,-106.651 L 2.63126,-106.794 L 2.66956,-106.932
 L 2.73645,-107.059 L 2.82826,-107.172 L 2.94051,-107.264 L 3.06787,-107.33 L 3.20566,-107.369 L 3.34921,-107.375
 L 3.45964,-107.35 L 3.56493,-107.312 L 3.66411,-107.264 L 3.75623,-107.203 L 3.86195,-107.177 L 3.96776,-107.23
 L 3.96988,-107.233 L 4.02344,-107.312 L 4.07544,-107.391 L 4.07739,-107.394 L 4.08603,-107.512 L 4.02139,-107.6
 L 3.93025,-107.662 L 3.84717,-107.735 L 3.77258,-107.818 L 3.70699,-107.91 L 3.65771,-108.045 L 3.64037,-108.187
 L 3.65343,-108.331 L 3.69531,-108.469 L 3.76387,-108.597 L 3.85593,-108.708 L 3.96858,-108.796 L 4.09886,-108.856
 L 4.21059,-108.875 L 4.32205,-108.881 L 4.43236,-108.874 L 4.5406,-108.854 L 4.64833,-108.87 L 4.72571,-108.959
 L 4.72652,-108.963 L 4.74597,-109.056 L 4.7636,-109.149 L 4.76421,-109.153 L 4.72704,-109.265 L 4.63373,-109.322
 L 4.52583,-109.344 L 4.42119,-109.379 L 4.3205,-109.428 L 4.2245,-109.488 L 4.12733,-109.594 L 4.05698,-109.718
 L 4.01422,-109.856 L 3.99979,-110 L 4.01422,-110.144 L 4.05698,-110.282 L 4.12733,-110.406 L 4.2245,-110.512
 L 4.3205,-110.572 L 4.42119,-110.62 L 4.52583,-110.656 L 4.63373,-110.678 L 4.72704,-110.735 L 4.76421,-110.847
 L 4.7636,-110.851 L 4.74597,-110.944 L 4.72652,-111.037 L 4.72571,-111.041 L 4.64838,-111.13 L 4.5406,-111.146
 L 4.43237,-111.126 L 4.32211,-111.119 L 4.21065,-111.125 L 4.09886,-111.144 L 3.96858,-111.204 L 3.85593,-111.292
 L 3.76387,-111.403 L 3.69531,-111.531 L 3.65343,-111.669 L 3.64037,-111.813 L 3.65771,-111.955 L 3.70699,-112.09
 L 3.77264,-112.182 L 3.84723,-112.265 L 3.93028,-112.338 L 4.02139,-112.4 L 4.08609,-112.488 L 4.07739,-112.606
 L 4.07544,-112.609 L 4.02344,-112.688 L 3.96988,-112.767 L 3.96776,-112.77 L 3.86205,-112.823 L 3.75623,-112.797
 L 3.66414,-112.736 L 3.56505,-112.687 L 3.45976,-112.65 L 3.34921,-112.625 L 3.20566,-112.631 L 3.06787,-112.67
 L 2.94051,-112.736 L 2.82826,-112.828 L 2.73645,-112.941 L 2.66956,-113.068 L 2.63126,-113.206 L 2.62512,-113.349
 L 2.65044,-113.46 L 2.68756,-113.565 L 2.73637,-113.664 L 2.79684,-113.756 L 2.82307,-113.862 L 2.76984,-113.968
 L 2.76685,-113.97 L 2.68837,-114.023 L 2.60886,-114.075 L 2.60576,-114.077 L 2.48776,-114.086 L 2.39999,-114.021
 L 2.33807,-113.93 L 2.26523,-113.847 L 2.18217,-113.773 L 2.08968,-113.707 L 1.95471,-113.658 L 1.81274,-113.64
 L 1.66948,-113.653 L 1.53064,-113.695 L 1.40286,-113.764 L 1.29231,-113.856 L 1.20421,-113.969 L 1.14362,-114.099
 L 1.12474,-114.211 L 1.11874,-114.322 L 1.12589,-114.432 L 1.1465,-114.541 L 1.13026,-114.648 L 1.04059,-114.726
 L 1.03702,-114.727 L 0.944031,-114.746 L 0.850662,-114.764 L 0.847046,-114.764 L 0.734741,-114.727 L 0.678375,-114.634
 L 0.656052,-114.526 L 0.620544,-114.421 L 0.572357,-114.32 L 0.511993,-114.225 L 0.406158,-114.127 L 0.281647,-114.057
 L 0.144287,-114.014 L 0,-114 L -0.144287,-114.014 L -0.281647,-114.057 L -0.406158,-114.127 L -0.511993,-114.225
 L -0.572189,-114.32 L -0.620392,-114.421 L -0.655991,-114.526 L -0.678375,-114.634 L -0.734589,-114.727 L -0.847046,-114.764
 L -0.850662,-114.764 L -0.944031,-114.746 L -1.03702,-114.727 L -1.04059,-114.726 L -1.13014,-114.648 L -1.1465,-114.541
 L -1.12584,-114.432 L -1.11859,-114.322 L -1.12457,-114.211 L -1.14362,-114.099 L -1.20421,-113.969 L -1.29231,-113.856
 L -1.40286,-113.764 L -1.53064,-113.695 L -1.66948,-113.653 L -1.81274,-113.64 L -1.95471,-113.658 L -2.08968,-113.707
 L -2.18201,-113.773 L -2.26508,-113.847 L -2.33803,-113.93 L -2.39999,-114.021 L -2.48764,-114.086 L -2.60576,-114.077
 L -2.60886,-114.075 L -2.68837,-114.023 L -2.76685,-113.97 L -2.76984,-113.968 L -2.82297,-113.862 L -2.79684,-113.756
 L -2.73634,-113.664 L -2.68745,-113.565 L -2.65031,-113.46 L -2.62512,-113.349 L -2.63126,-113.206 L -2.66956,-113.068
 L -2.73645,-112.941 L -2.82826,-112.828 L -2.94051,-112.736 L -3.06787,-112.67 L -3.20566,-112.631 L -3.34921,-112.625
 L -3.45964,-112.65 L -3.56493,-112.688 L -3.66411,-112.736 L -3.75623,-112.797 L -3.86195,-112.823 L -3.96776,-112.77
 L -3.96988,-112.767 L -4.02344,-112.688 L -4.07544,-112.609 L -4.07739,-112.606 L -4.08603,-112.488 L -4.02139,-112.4
 L -3.93025,-112.338 L -3.84717,-112.265 L -3.77258,-112.182 L -3.70699,-112.09 L -3.65771,-111.955 L -3.64037,-111.813
 L -3.65343,-111.669 L -3.69531,-111.531 L -3.76387,-111.403 L -3.85593,-111.292 L -3.96858,-111.204 L -4.09886,-111.144
 L -4.21059,-111.125 L -4.32205,-111.119 L -4.43236,-111.126 L -4.5406,-111.146 L -4.64833,-111.13 L -4.72571,-111.041
 L -4.72652,-111.037 L -4.74597,-110.944 L -4.7636,-110.851 L -4.76421,-110.847 L -4.72704,-110.735 L -4.63373,-110.678
 L -4.52583,-110.656 L -4.42119,-110.621 L -4.3205,-110.572 L -4.2245,-110.512 L -4.12733,-110.406 L -4.05698,-110.282
 L -4.01422,-110.144 L -3.99979,-110 L -4.01422,-109.856 L -4.05698,-109.718 L -4.12733,-109.594 L -4.2245,-109.488
 L -4.3205,-109.428 L -4.42119,-109.38 L -4.52583,-109.344 L -4.63373,-109.322 L -4.72704,-109.265 L -4.76421,-109.153
 L -4.7636,-109.149 L -4.74597,-109.056 L -4.72652,-108.963 L -4.72571,-108.959 L -4.64838,-108.87 L -4.5406,-108.854
 L -4.43237,-108.874 L -4.32211,-108.881 L -4.21065,-108.875 L -4.09886,-108.856 L -3.96858,-108.796 L -3.85593,-108.708
 L -3.76387,-108.597 L -3.69531,-108.469 L -3.65343,-108.331 L -3.64037,-108.187 L -3.65771,-108.045 L -3.70699,-107.91
 L -3.77264,-107.818 L -3.84723,-107.735 L -3.93028,-107.662 L -4.02139,-107.6 L -4.08609,-107.512 L -4.07739,-107.394
 L -4.07544,-107.391 L -4.02344,-107.312 L -3.96988,-107.233 L -3.96776,-107.23 L -3.86205,-107.177 L -3.75623,-107.203
 L -3.66414,-107.264 L -3.56505,-107.313 L -3.45976,-107.35 L -3.34921,-107.375 L -3.20566,-107.369 L -3.06787,-107.33
 L -2.94051,-107.264 L -2.82826,-107.172 L -2.73645,-107.059 L -2.66956,-106.932 L -2.63126,-106.794 L -2.62512,-106.651
 L -2.65044,-106.54 L -2.68756,-106.435 L -2.73637,-106.336 L -2.79684,-106.244 L -2.82307,-106.138 L -2.76984,-106.032
 L -2.76685,-106.03 L -2.68837,-105.977 L -2.60886,-105.925 L -2.60576,-105.923 L -2.48776,-105.914 L -2.39999,-105.979
 L -2.33807,-106.07 L -2.26523,-106.153 L -2.18217,-106.227 L -2.08968,-106.293 L -1.95471,-106.342 L -1.81274,-106.36
 L -1.66948,-106.347 L -1.53064,-106.305 L -1.40286,-106.236 L -1.29231,-106.144 L -1.20421,-106.031 L -1.14362,-105.901
 L -1.12474,-105.789 L -1.11874,-105.678 L -1.12589,-105.568 L -1.1465,-105.459 L -1.13026,-105.352 L -1.04059,-105.274
 L -1.03702,-105.273 L -0.944031,-105.254 L -0.850662,-105.236 L -0.847046,-105.236 L -0.734741,-105.273 L -0.678375,-105.366
 L -0.656052,-105.474 L -0.620544,-105.579 L -0.572357,-105.68 L -0.511993,-105.775 L -0.406158,-105.873 L -0.281647,-105.943
 L -0.144287,-105.986 L 0,-106 L 0.144287,-105.986 L 0.281647,-105.943 L 0.406158,-105.873 L 0.511993,-105.775
 L 0.572189,-105.68 L 0.620392,-105.579 L 0.655991,-105.474 L 0.678375,-105.366 L 0.734589,-105.273 L 0.847046,-105.236
 z
M -0.0627899,-109.002 L -0.187378,-109.018 L -0.309006,-109.049 L -0.425766,-109.095 L -0.535812,-109.156 L -0.637421,-109.229
 L -0.728958,-109.315 L -0.809006,-109.412 L -0.876297,-109.518 L -0.929764,-109.632 L -0.968582,-109.751 L -0.992111,-109.875
 L -1,-110 L -0.992111,-110.125 L -0.968582,-110.249 L -0.929764,-110.368 L -0.876297,-110.482 L -0.809006,-110.588
 L -0.728958,-110.685 L -0.637421,-110.771 L -0.535812,-110.844 L -0.425766,-110.905 L -0.309006,-110.951 L -0.187378,-110.982
 L -0.0627899,-110.998 L 0.0627899,-110.998 L 0.187378,-110.982 L 0.309006,-110.951 L 0.425766,-110.905 L 0.535812,-110.844
 L 0.637421,-110.771 L 0.728958,-110.685 L 0.809006,-110.588 L 0.876297,-110.482 L 0.929764,-110.368 L 0.968582,-110.249
 L 0.992111,-110.125 L 1,-110 L 0.992111,-109.875 L 0.968582,-109.751 L 0.929764,-109.632 L 0.876297,-109.518
 L 0.809006,-109.412 L 0.728958,-109.315 L 0.637421,-109.229 L 0.535812,-109.156 L 0.425766,-109.095 L 0.309006,-109.049
 L 0.187378,-109.018 L 0.0627899,-109.002 z
" stroke="black" fill="lightgray" stroke-width="0.5"/>
</svg>
