<?xml version="1.0" standalone="no"?>
<!DOCTYPE svg PUBLIC "-//W3C//DTD SVG 1.1//EN" "http://www.w3.org/Graphics/SVG/1.1/DTD/svg11.dtd">
<svg width="270mm" height="987mm" viewBox="-135 -1863 270 987" xmlns="http://www.w3.org/2000/svg" version="1.1">
<title>OpenSCAD Model</title>
<path d="
M 130.937,-1623.09 L 131.545,-1623.24 L 132.129,-1623.48 L 132.679,-1623.78 L 133.187,-1624.15 L 133.645,-1624.58
 L 134.045,-1625.06 L 134.382,-1625.59 L 134.649,-1626.16 L 134.843,-1626.76 L 134.961,-1627.37 L 135,-1628
 L 135,-1858 L 134.961,-1858.63 L 134.843,-1859.24 L 134.649,-1859.84 L 134.382,-1860.41 L 134.045,-1860.94
 L 133.645,-1861.42 L 133.187,-1861.85 L 132.679,-1862.22 L 132.129,-1862.52 L 131.545,-1862.76 L 130.937,-1862.91
 L 130.314,-1862.99 L -130.314,-1862.99 L -130.937,-1862.91 L -131.545,-1862.76 L -132.129,-1862.52 L -132.679,-1862.22
 L -133.187,-1861.85 L -133.645,-1861.42 L -134.045,-1860.94 L -134.382,-1860.41 L -134.649,-1859.84 L -134.843,-1859.24
 L -134.961,-1858.63 L -135,-1858 L -135,-1628 L -134.961,-1627.37 L -134.843,-1626.76 L -134.649,-1626.16
 L -134.382,-1625.59 L -134.045,-1625.06 L -133.645,-1624.58 L -133.187,-1624.15 L -132.679,-1623.78 L -132.129,-1623.48
 L -131.545,-1623.24 L -130.937,-1623.09 L -130.314,-1623.01 L 130.314,-1623.01 z
M -130.048,-1623.51 L -130.64,-1623.58 L -131.218,-1623.73 L -131.772,-1623.95 L -132.295,-1624.24 L -132.778,-1624.59
 L -133.213,-1625 L -133.593,-1625.46 L -133.912,-1625.96 L -134.166,-1626.5 L -134.351,-1627.07 L -134.463,-1627.65
 L -134.5,-1628.25 L -134.5,-1857.75 L -134.463,-1858.35 L -134.351,-1858.93 L -134.166,-1859.5 L -133.912,-1860.04
 L -133.593,-1860.54 L -133.213,-1861 L -132.778,-1861.41 L -132.295,-1861.76 L -131.772,-1862.05 L -131.218,-1862.27
 L -130.64,-1862.42 L -130.048,-1862.49 L 130.048,-1862.49 L 130.64,-1862.42 L 131.218,-1862.27 L 131.772,-1862.05
 L 132.295,-1861.76 L 132.778,-1861.41 L 133.213,-1861 L 133.593,-1860.54 L 133.912,-1860.04 L 134.166,-1859.5
 L 134.351,-1858.93 L 134.463,-1858.35 L 134.5,-1857.75 L 134.5,-1628.25 L 134.463,-1627.65 L 134.351,-1627.07
 L 134.166,-1626.5 L 133.912,-1625.96 L 133.593,-1625.46 L 133.213,-1625 L 132.778,-1624.59 L 132.295,-1624.24
 L 131.772,-1623.95 L 131.218,-1623.73 L 130.64,-1623.58 L 130.048,-1623.51 z
M 130.937,-1374.09 L 131.545,-1374.24 L 132.129,-1374.48 L 132.679,-1374.78 L 133.187,-1375.15 L 133.645,-1375.58
 L 134.045,-1376.06 L 134.382,-1376.59 L 134.649,-1377.16 L 134.843,-1377.76 L 134.961,-1378.37 L 135,-1379
 L 135,-1609 L 134.961,-1609.63 L 134.843,-1610.24 L 134.649,-1610.84 L 134.382,-1611.41 L 134.045,-1611.94
 L 133.645,-1612.42 L 133.187,-1612.85 L 132.679,-1613.22 L 132.129,-1613.52 L 131.545,-1613.76 L 130.937,-1613.91
 L 130.314,-1613.99 L -130.314,-1613.99 L -130.937,-1613.91 L -131.545,-1613.76 L -132.129,-1613.52 L -132.679,-1613.22
 L -133.187,-1612.85 L -133.645,-1612.42 L -134.045,-1611.94 L -134.382,-1611.41 L -134.649,-1610.84 L -134.843,-1610.24
 L -134.961,-1609.63 L -135,-1609 L -135,-1379 L -134.961,-1378.37 L -134.843,-1377.76 L -134.649,-1377.16
 L -134.382,-1376.59 L -134.045,-1376.06 L -133.645,-1375.58 L -133.187,-1375.15 L -132.679,-1374.78 L -132.129,-1374.48
 L -131.545,-1374.24 L -130.937,-1374.09 L -130.314,-1374.01 L 130.314,-1374.01 z
M -130.048,-1374.51 L -130.64,-1374.58 L -131.218,-1374.73 L -131.772,-1374.95 L -132.295,-1375.24 L -132.778,-1375.59
 L -133.213,-1376 L -133.593,-1376.46 L -133.912,-1376.96 L -134.166,-1377.5 L -134.351,-1378.07 L -134.463,-1378.65
 L -134.5,-1379.25 L -134.5,-1608.75 L -134.463,-1609.35 L -134.351,-1609.93 L -134.166,-1610.5 L -133.912,-1611.04
 L -133.593,-1611.54 L -133.213,-1612 L -132.778,-1612.41 L -132.295,-1612.76 L -131.772,-1613.05 L -131.218,-1613.27
 L -130.64,-1613.42 L -130.048,-1613.49 L 130.048,-1613.49 L 130.64,-1613.42 L 131.218,-1613.27 L 131.772,-1613.05
 L 132.295,-1612.76 L 132.778,-1612.41 L 133.213,-1612 L 133.593,-1611.54 L 133.912,-1611.04 L 134.166,-1610.5
 L 134.351,-1609.93 L 134.463,-1609.35 L 134.5,-1608.75 L 134.5,-1379.25 L 134.463,-1378.65 L 134.351,-1378.07
 L 134.166,-1377.5 L 133.912,-1376.96 L 133.593,-1376.46 L 133.213,-1376 L 132.778,-1375.59 L 132.295,-1375.24
 L 131.772,-1374.95 L 131.218,-1374.73 L 130.64,-1374.58 L 130.048,-1374.51 z
M 130.937,-1125.09 L 131.545,-1125.24 L 132.129,-1125.48 L 132.679,-1125.78 L 133.187,-1126.15 L 133.645,-1126.58
 L 134.045,-1127.06 L 134.382,-1127.59 L 134.649,-1128.16 L 134.843,-1128.76 L 134.961,-1129.37 L 135,-1130
 L 135,-1360 L 134.961,-1360.63 L 134.843,-1361.24 L 134.649,-1361.84 L 134.382,-1362.41 L 134.045,-1362.94
 L 133.645,-1363.42 L 133.187,-1363.85 L 132.679,-1364.22 L 132.129,-1364.52 L 131.545,-1364.76 L 130.937,-1364.91
 L 130.314,-1364.99 L -130.314,-1364.99 L -130.937,-1364.91 L -131.545,-1364.76 L -132.129,-1364.52 L -132.679,-1364.22
 L -133.187,-1363.85 L -133.645,-1363.42 L -134.045,-1362.94 L -134.382,-1362.41 L -134.649,-1361.84 L -134.843,-1361.24
 L -134.961,-1360.63 L -135,-1360 L -135,-1130 L -134.961,-1129.37 L -134.843,-1128.76 L -134.649,-1128.16
 L -134.382,-1127.59 L -134.045,-1127.06 L -133.645,-1126.58 L -133.187,-1126.15 L -132.679,-1125.78 L -132.129,-1125.48
 L -131.545,-1125.24 L -130.937,-1125.09 L -130.314,-1125.01 L 130.314,-1125.01 z
M -130.037,-1125.68 L -130.608,-1125.75 L -131.165,-1125.9 L -131.699,-1126.11 L -132.203,-1126.38 L -132.668,-1126.72
 L -133.088,-1127.12 L -133.454,-1127.56 L -133.762,-1128.04 L -134.007,-1128.56 L -134.185,-1129.11 L -134.292,-1129.68
 L -134.328,-1130.25 L -134.328,-1359.75 L -134.292,-1360.32 L -134.185,-1360.89 L -134.007,-1361.44 L -133.762,-1361.96
 L -133.454,-1362.44 L -133.088,-1362.88 L -132.668,-1363.28 L -132.203,-1363.62 L -131.699,-1363.89 L -131.165,-1364.1
 L -130.608,-1364.25 L -130.037,-1364.32 L 130.037,-1364.32 L 130.608,-1364.25 L 131.165,-1364.1 L 131.699,-1363.89
 L 132.203,-1363.62 L 132.668,-1363.28 L 133.088,-1362.88 L 133.454,-1362.44 L 133.762,-1361.96 L 134.007,-1361.44
 L 134.185,-1360.89 L 134.292,-1360.32 L 134.328,-1359.75 L 134.328,-1130.25 L 134.292,-1129.68 L 134.185,-1129.11
 L 134.007,-1128.56 L 133.762,-1128.04 L 133.454,-1127.56 L 133.088,-1127.12 L 132.668,-1126.72 L 132.203,-1126.38
 L 131.699,-1126.11 L 131.165,-1125.9 L 130.608,-1125.75 L 130.037,-1125.68 z
M 130.937,-876.089 L 131.545,-876.245 L 132.129,-876.476 L 132.679,-876.778 L 133.187,-877.147 L 133.645,-877.577
 L 134.045,-878.061 L 134.382,-878.591 L 134.649,-879.159 L 134.843,-879.757 L 134.961,-880.373 L 135,-881
 L 135,-1111 L 134.961,-1111.63 L 134.843,-1112.24 L 134.649,-1112.84 L 134.382,-1113.41 L 134.045,-1113.94
 L 133.645,-1114.42 L 133.187,-1114.85 L 132.679,-1115.22 L 132.129,-1115.52 L 131.545,-1115.76 L 130.937,-1115.91
 L 130.314,-1115.99 L -130.314,-1115.99 L -130.937,-1115.91 L -131.545,-1115.76 L -132.129,-1115.52 L -132.679,-1115.22
 L -133.187,-1114.85 L -133.645,-1114.42 L -134.045,-1113.94 L -134.382,-1113.41 L -134.649,-1112.84 L -134.843,-1112.24
 L -134.961,-1111.63 L -135,-1111 L -135,-881 L -134.961,-880.373 L -134.843,-879.757 L -134.649,-879.159
 L -134.382,-878.591 L -134.045,-878.061 L -133.645,-877.577 L -133.187,-877.147 L -132.679,-876.778 L -132.129,-876.476
 L -131.545,-876.245 L -130.937,-876.089 L -130.314,-876.01 L 130.314,-876.01 z
M -129.882,-879.145 L -130.145,-879.178 L -130.402,-879.244 L -130.648,-879.341 L -130.88,-879.469 L -131.095,-879.624
 L -131.288,-879.806 L -131.457,-880.01 L -131.599,-880.234 L -131.711,-880.473 L -131.793,-880.725 L -131.843,-880.986
 L -131.86,-881.25 L -131.86,-1110.75 L -131.843,-1111.01 L -131.793,-1111.27 L -131.711,-1111.53 L -131.599,-1111.77
 L -131.457,-1111.99 L -131.288,-1112.19 L -131.095,-1112.38 L -130.88,-1112.53 L -130.648,-1112.66 L -130.402,-1112.76
 L -130.145,-1112.82 L -129.882,-1112.86 L 129.882,-1112.86 L 130.145,-1112.82 L 130.402,-1112.76 L 130.648,-1112.66
 L 130.88,-1112.53 L 131.095,-1112.38 L 131.288,-1112.19 L 131.457,-1111.99 L 131.599,-1111.77 L 131.711,-1111.53
 L 131.793,-1111.27 L 131.843,-1111.01 L 131.86,-1110.75 L 131.86,-881.25 L 131.843,-880.986 L 131.793,-880.725
 L 131.711,-880.473 L 131.599,-880.234 L 131.457,-880.01 L 131.288,-879.806 L 131.095,-879.624 L 130.88,-879.469
 L 130.648,-879.341 L 130.402,-879.244 L 130.145,-879.178 L 129.882,-879.145 z
" stroke="black" fill="lightgray" stroke-width="0.5"/>
</svg>
