<?xml version="1.0" standalone="no"?>
<!DOCTYPE svg PUBLIC "-//W3C//DTD SVG 1.1//EN" "http://www.w3.org/Graphics/SVG/1.1/DTD/svg11.dtd">
<svg width="302mm" height="2602mm" viewBox="-152 -5129 302 2602" xmlns="http://www.w3.org/2000/svg" version="1.1">
<title>OpenSCAD Model</title>
<path d="
M 145.937,-4963.59 L 146.545,-4963.74 L 147.129,-4963.98 L 147.679,-4964.28 L 148.187,-4964.65 L 148.645,-4965.08
 L 149.045,-4965.56 L 149.382,-4966.09 L 149.649,-4966.66 L 149.843,-4967.26 L 149.961,-4967.87 L 150,-4968.5
 L 150,-5123.5 L 149.961,-5124.13 L 149.843,-5124.74 L 149.649,-5125.34 L 149.382,-5125.91 L 149.045,-5126.44
 L 148.645,-5126.92 L 148.187,-5127.35 L 147.679,-5127.72 L 147.129,-5128.02 L 146.545,-5128.26 L 145.937,-5128.41
 L 145.314,-5128.49 L -145.314,-5128.49 L -145.937,-5128.41 L -146.545,-5128.26 L -147.129,-5128.02 L -147.679,-5127.72
 L -148.187,-5127.35 L -148.645,-5126.92 L -149.045,-5126.44 L -149.382,-5125.91 L -149.649,-5125.34 L -149.843,-5124.74
 L -149.961,-5124.13 L -150,-5123.5 L -150,-4968.5 L -149.961,-4967.87 L -149.843,-4967.26 L -149.649,-4966.66
 L -149.382,-4966.09 L -149.045,-4965.56 L -148.645,-4965.08 L -148.187,-4964.65 L -147.679,-4964.28 L -147.129,-4963.98
 L -146.545,-4963.74 L -145.937,-4963.59 L -145.314,-4963.51 L 145.314,-4963.51 z
M -144.751,-4965.01 L -145.25,-4965.07 L -145.736,-4965.2 L -146.203,-4965.38 L -146.643,-4965.62 L -147.05,-4965.92
 L -147.416,-4966.26 L -147.736,-4966.65 L -148.005,-4967.07 L -148.219,-4967.53 L -148.374,-4968.01 L -148.468,-4968.5
 L -148.5,-4969 L -148.5,-5123 L -148.468,-5123.5 L -148.374,-5123.99 L -148.219,-5124.47 L -148.005,-5124.93
 L -147.736,-5125.35 L -147.416,-5125.74 L -147.05,-5126.08 L -146.643,-5126.38 L -146.203,-5126.62 L -145.736,-5126.8
 L -145.25,-5126.93 L -144.751,-5126.99 L 144.751,-5126.99 L 145.25,-5126.93 L 145.736,-5126.8 L 146.203,-5126.62
 L 146.643,-5126.38 L 147.05,-5126.08 L 147.416,-5125.74 L 147.736,-5125.35 L 148.005,-5124.93 L 148.219,-5124.47
 L 148.374,-5123.99 L 148.468,-5123.5 L 148.5,-5123 L 148.5,-4969 L 148.468,-4968.5 L 148.374,-4968.01
 L 148.219,-4967.53 L 148.005,-4967.07 L 147.736,-4966.65 L 147.416,-4966.26 L 147.05,-4965.92 L 146.643,-4965.62
 L 146.203,-4965.38 L 145.736,-4965.2 L 145.25,-4965.07 L 144.751,-4965.01 z
M 145.937,-4789.59 L 146.545,-4789.74 L 147.129,-4789.98 L 147.679,-4790.28 L 148.187,-4790.65 L 148.645,-4791.08
 L 149.045,-4791.56 L 149.382,-4792.09 L 149.649,-4792.66 L 149.843,-4793.26 L 149.961,-4793.87 L 150,-4794.5
 L 150,-4949.5 L 149.961,-4950.13 L 149.843,-4950.74 L 149.649,-4951.34 L 149.382,-4951.91 L 149.045,-4952.44
 L 148.645,-4952.92 L 148.187,-4953.35 L 147.679,-4953.72 L 147.129,-4954.02 L 146.545,-4954.26 L 145.937,-4954.41
 L 145.314,-4954.49 L -145.314,-4954.49 L -145.937,-4954.41 L -146.545,-4954.26 L -147.129,-4954.02 L -147.679,-4953.72
 L -148.187,-4953.35 L -148.645,-4952.92 L -149.045,-4952.44 L -149.382,-4951.91 L -149.649,-4951.34 L -149.843,-4950.74
 L -149.961,-4950.13 L -150,-4949.5 L -150,-4794.5 L -149.961,-4793.87 L -149.843,-4793.26 L -149.649,-4792.66
 L -149.382,-4792.09 L -149.045,-4791.56 L -148.645,-4791.08 L -148.187,-4790.65 L -147.679,-4790.28 L -147.129,-4789.98
 L -146.545,-4789.74 L -145.937,-4789.59 L -145.314,-4789.51 L 145.314,-4789.51 z
M -144.751,-4791.01 L -145.25,-4791.07 L -145.736,-4791.2 L -146.203,-4791.38 L -146.643,-4791.62 L -147.05,-4791.92
 L -147.416,-4792.26 L -147.736,-4792.65 L -148.005,-4793.07 L -148.219,-4793.53 L -148.374,-4794.01 L -148.468,-4794.5
 L -148.5,-4795 L -148.5,-4949 L -148.468,-4949.5 L -148.374,-4949.99 L -148.219,-4950.47 L -148.005,-4950.93
 L -147.736,-4951.35 L -147.416,-4951.74 L -147.05,-4952.08 L -146.643,-4952.38 L -146.203,-4952.62 L -145.736,-4952.8
 L -145.25,-4952.93 L -144.751,-4952.99 L 144.751,-4952.99 L 145.25,-4952.93 L 145.736,-4952.8 L 146.203,-4952.62
 L 146.643,-4952.38 L 147.05,-4952.08 L 147.416,-4951.74 L 147.736,-4951.35 L 148.005,-4950.93 L 148.219,-4950.47
 L 148.374,-4949.99 L 148.468,-4949.5 L 148.5,-4949 L 148.5,-4795 L 148.468,-4794.5 L 148.374,-4794.01
 L 148.219,-4793.53 L 148.005,-4793.07 L 147.736,-4792.65 L 147.416,-4792.26 L 147.05,-4791.92 L 146.643,-4791.62
 L 146.203,-4791.38 L 145.736,-4791.2 L 145.25,-4791.07 L 144.751,-4791.01 z
M 145.937,-4615.59 L 146.545,-4615.74 L 147.129,-4615.98 L 147.679,-4616.28 L 148.187,-4616.65 L 148.645,-4617.08
 L 149.045,-4617.56 L 149.382,-4618.09 L 149.649,-4618.66 L 149.843,-4619.26 L 149.961,-4619.87 L 150,-4620.5
 L 150,-4775.5 L 149.961,-4776.13 L 149.843,-4776.74 L 149.649,-4777.34 L 149.382,-4777.91 L 149.045,-4778.44
 L 148.645,-4778.92 L 148.187,-4779.35 L 147.679,-4779.72 L 147.129,-4780.02 L 146.545,-4780.26 L 145.937,-4780.41
 L 145.314,-4780.49 L -145.314,-4780.49 L -145.937,-4780.41 L -146.545,-4780.26 L -147.129,-4780.02 L -147.679,-4779.72
 L -148.187,-4779.35 L -148.645,-4778.92 L -149.045,-4778.44 L -149.382,-4777.91 L -149.649,-4777.34 L -149.843,-4776.74
 L -149.961,-4776.13 L -150,-4775.5 L -150,-4620.5 L -149.961,-4619.87 L -149.843,-4619.26 L -149.649,-4618.66
 L -149.382,-4618.09 L -149.045,-4617.56 L -148.645,-4617.08 L -148.187,-4616.65 L -147.679,-4616.28 L -147.129,-4615.98
 L -146.545,-4615.74 L -145.937,-4615.59 L -145.314,-4615.51 L 145.314,-4615.51 z
M -144.751,-4617.01 L -145.25,-4617.07 L -145.736,-4617.2 L -146.203,-4617.38 L -146.643,-4617.62 L -147.05,-4617.92
 L -147.416,-4618.26 L -147.736,-4618.65 L -148.005,-4619.07 L -148.219,-4619.53 L -148.374,-4620.01 L -148.468,-4620.5
 L -148.5,-4621 L -148.5,-4775 L -148.468,-4775.5 L -148.374,-4775.99 L -148.219,-4776.47 L -148.005,-4776.93
 L -147.736,-4777.35 L -147.416,-4777.74 L -147.05,-4778.08 L -146.643,-4778.38 L -146.203,-4778.62 L -145.736,-4778.8
 L -145.25,-4778.93 L -144.751,-4778.99 L 144.751,-4778.99 L 145.25,-4778.93 L 145.736,-4778.8 L 146.203,-4778.62
 L 146.643,-4778.38 L 147.05,-4778.08 L 147.416,-4777.74 L 147.736,-4777.35 L 148.005,-4776.93 L 148.219,-4776.47
 L 148.374,-4775.99 L 148.468,-4775.5 L 148.5,-4775 L 148.5,-4621 L 148.468,-4620.5 L 148.374,-4620.01
 L 148.219,-4619.53 L 148.005,-4619.07 L 147.736,-4618.65 L 147.416,-4618.26 L 147.05,-4617.92 L 146.643,-4617.62
 L 146.203,-4617.38 L 145.736,-4617.2 L 145.25,-4617.07 L 144.751,-4617.01 z
M 145.937,-4441.59 L 146.545,-4441.74 L 147.129,-4441.98 L 147.679,-4442.28 L 148.187,-4442.65 L 148.645,-4443.08
 L 149.045,-4443.56 L 149.382,-4444.09 L 149.649,-4444.66 L 149.843,-4445.26 L 149.961,-4445.87 L 150,-4446.5
 L 150,-4601.5 L 149.961,-4602.13 L 149.843,-4602.74 L 149.649,-4603.34 L 149.382,-4603.91 L 149.045,-4604.44
 L 148.645,-4604.92 L 148.187,-4605.35 L 147.679,-4605.72 L 147.129,-4606.02 L 146.545,-4606.26 L 145.937,-4606.41
 L 145.314,-4606.49 L -145.314,-4606.49 L -145.937,-4606.41 L -146.545,-4606.26 L -147.129,-4606.02 L -147.679,-4605.72
 L -148.187,-4605.35 L -148.645,-4604.92 L -149.045,-4604.44 L -149.382,-4603.91 L -149.649,-4603.34 L -149.843,-4602.74
 L -149.961,-4602.13 L -150,-4601.5 L -150,-4446.5 L -149.961,-4445.87 L -149.843,-4445.26 L -149.649,-4444.66
 L -149.382,-4444.09 L -149.045,-4443.56 L -148.645,-4443.08 L -148.187,-4442.65 L -147.679,-4442.28 L -147.129,-4441.98
 L -146.545,-4441.74 L -145.937,-4441.59 L -145.314,-4441.51 L 145.314,-4441.51 z
M -144.751,-4443.01 L -145.25,-4443.07 L -145.736,-4443.2 L -146.203,-4443.38 L -146.643,-4443.62 L -147.05,-4443.92
 L -147.416,-4444.26 L -147.736,-4444.65 L -148.005,-4445.07 L -148.219,-4445.53 L -148.374,-4446.01 L -148.468,-4446.5
 L -148.5,-4447 L -148.5,-4601 L -148.468,-4601.5 L -148.374,-4601.99 L -148.219,-4602.47 L -148.005,-4602.93
 L -147.736,-4603.35 L -147.416,-4603.74 L -147.05,-4604.08 L -146.643,-4604.38 L -146.203,-4604.62 L -145.736,-4604.8
 L -145.25,-4604.93 L -144.751,-4604.99 L 144.751,-4604.99 L 145.25,-4604.93 L 145.736,-4604.8 L 146.203,-4604.62
 L 146.643,-4604.38 L 147.05,-4604.08 L 147.416,-4603.74 L 147.736,-4603.35 L 148.005,-4602.93 L 148.219,-4602.47
 L 148.374,-4601.99 L 148.468,-4601.5 L 148.5,-4601 L 148.5,-4447 L 148.468,-4446.5 L 148.374,-4446.01
 L 148.219,-4445.53 L 148.005,-4445.07 L 147.736,-4444.65 L 147.416,-4444.26 L 147.05,-4443.92 L 146.643,-4443.62
 L 146.203,-4443.38 L 145.736,-4443.2 L 145.25,-4443.07 L 144.751,-4443.01 z
M 145.937,-4267.59 L 146.545,-4267.74 L 147.129,-4267.98 L 147.679,-4268.28 L 148.187,-4268.65 L 148.645,-4269.08
 L 149.045,-4269.56 L 149.382,-4270.09 L 149.649,-4270.66 L 149.843,-4271.26 L 149.961,-4271.87 L 150,-4272.5
 L 150,-4427.5 L 149.961,-4428.13 L 149.843,-4428.74 L 149.649,-4429.34 L 149.382,-4429.91 L 149.045,-4430.44
 L 148.645,-4430.92 L 148.187,-4431.35 L 147.679,-4431.72 L 147.129,-4432.02 L 146.545,-4432.26 L 145.937,-4432.41
 L 145.314,-4432.49 L -145.314,-4432.49 L -145.937,-4432.41 L -146.545,-4432.26 L -147.129,-4432.02 L -147.679,-4431.72
 L -148.187,-4431.35 L -148.645,-4430.92 L -149.045,-4430.44 L -149.382,-4429.91 L -149.649,-4429.34 L -149.843,-4428.74
 L -149.961,-4428.13 L -150,-4427.5 L -150,-4272.5 L -149.961,-4271.87 L -149.843,-4271.26 L -149.649,-4270.66
 L -149.382,-4270.09 L -149.045,-4269.56 L -148.645,-4269.08 L -148.187,-4268.65 L -147.679,-4268.28 L -147.129,-4267.98
 L -146.545,-4267.74 L -145.937,-4267.59 L -145.314,-4267.51 L 145.314,-4267.51 z
M -144.751,-4269.01 L -145.25,-4269.07 L -145.736,-4269.2 L -146.203,-4269.38 L -146.643,-4269.62 L -147.05,-4269.92
 L -147.416,-4270.26 L -147.736,-4270.65 L -148.005,-4271.07 L -148.219,-4271.53 L -148.374,-4272.01 L -148.468,-4272.5
 L -148.5,-4273 L -148.5,-4427 L -148.468,-4427.5 L -148.374,-4427.99 L -148.219,-4428.47 L -148.005,-4428.93
 L -147.736,-4429.35 L -147.416,-4429.74 L -147.05,-4430.08 L -146.643,-4430.38 L -146.203,-4430.62 L -145.736,-4430.8
 L -145.25,-4430.93 L -144.751,-4430.99 L 144.751,-4430.99 L 145.25,-4430.93 L 145.736,-4430.8 L 146.203,-4430.62
 L 146.643,-4430.38 L 147.05,-4430.08 L 147.416,-4429.74 L 147.736,-4429.35 L 148.005,-4428.93 L 148.219,-4428.47
 L 148.374,-4427.99 L 148.468,-4427.5 L 148.5,-4427 L 148.5,-4273 L 148.468,-4272.5 L 148.374,-4272.01
 L 148.219,-4271.53 L 148.005,-4271.07 L 147.736,-4270.65 L 147.416,-4270.26 L 147.05,-4269.92 L 146.643,-4269.62
 L 146.203,-4269.38 L 145.736,-4269.2 L 145.25,-4269.07 L 144.751,-4269.01 z
M 145.937,-4093.59 L 146.545,-4093.74 L 147.129,-4093.98 L 147.679,-4094.28 L 148.187,-4094.65 L 148.645,-4095.08
 L 149.045,-4095.56 L 149.382,-4096.09 L 149.649,-4096.66 L 149.843,-4097.26 L 149.961,-4097.87 L 150,-4098.5
 L 150,-4253.5 L 149.961,-4254.13 L 149.843,-4254.74 L 149.649,-4255.34 L 149.382,-4255.91 L 149.045,-4256.44
 L 148.645,-4256.92 L 148.187,-4257.35 L 147.679,-4257.72 L 147.129,-4258.02 L 146.545,-4258.26 L 145.937,-4258.41
 L 145.314,-4258.49 L -145.314,-4258.49 L -145.937,-4258.41 L -146.545,-4258.26 L -147.129,-4258.02 L -147.679,-4257.72
 L -148.187,-4257.35 L -148.5,-4257.06 L -151.5,-4257.06 L -151.5,-4094.94 L -148.5,-4094.94 L -148.187,-4094.65
 L -147.679,-4094.28 L -147.129,-4093.98 L -146.545,-4093.74 L -145.937,-4093.59 L -145.314,-4093.51 L 145.314,-4093.51
 z
M -144.751,-4095.01 L -145.25,-4095.07 L -145.736,-4095.2 L -146.203,-4095.38 L -146.643,-4095.62 L -147.05,-4095.92
 L -147.416,-4096.26 L -147.736,-4096.65 L -148.005,-4097.07 L -148.219,-4097.53 L -148.374,-4098.01 L -148.468,-4098.5
 L -148.5,-4099 L -148.5,-4253 L -148.468,-4253.5 L -148.374,-4253.99 L -148.219,-4254.47 L -148.005,-4254.93
 L -147.736,-4255.35 L -147.416,-4255.74 L -147.05,-4256.08 L -146.643,-4256.38 L -146.203,-4256.62 L -145.736,-4256.8
 L -145.25,-4256.93 L -144.751,-4256.99 L 144.751,-4256.99 L 145.25,-4256.93 L 145.736,-4256.8 L 146.203,-4256.62
 L 146.643,-4256.38 L 147.05,-4256.08 L 147.416,-4255.74 L 147.736,-4255.35 L 148.005,-4254.93 L 148.219,-4254.47
 L 148.374,-4253.99 L 148.468,-4253.5 L 148.5,-4253 L 148.5,-4099 L 148.468,-4098.5 L 148.374,-4098.01
 L 148.219,-4097.53 L 148.005,-4097.07 L 147.736,-4096.65 L 147.416,-4096.26 L 147.05,-4095.92 L 146.643,-4095.62
 L 146.203,-4095.38 L 145.736,-4095.2 L 145.25,-4095.07 L 144.751,-4095.01 z
M 145.937,-3919.59 L 146.545,-3919.74 L 147.129,-3919.98 L 147.679,-3920.28 L 148.187,-3920.65 L 148.645,-3921.08
 L 149.045,-3921.56 L 149.382,-3922.09 L 149.649,-3922.66 L 149.843,-3923.26 L 149.961,-3923.87 L 150,-3924.5
 L 150,-4079.5 L 149.961,-4080.13 L 149.843,-4080.74 L 149.649,-4081.34 L 149.382,-4081.91 L 149.045,-4082.44
 L 148.645,-4082.92 L 148.187,-4083.35 L 147.679,-4083.72 L 147.129,-4084.02 L 146.545,-4084.26 L 145.937,-4084.41
 L 145.314,-4084.49 L -145.314,-4084.49 L -145.937,-4084.41 L -146.545,-4084.26 L -147.129,-4084.02 L -147.679,-4083.72
 L -148.187,-4083.35 L -148.5,-4083.06 L -148.5,-4084.47 L -151.5,-4084.47 L -151.5,-3919.53 L -148.5,-3919.53
 L -148.5,-3920.94 L -148.187,-3920.65 L -147.679,-3920.28 L -147.129,-3919.98 L -146.545,-3919.74 L -145.937,-3919.59
 L -145.314,-3919.51 L 145.314,-3919.51 z
M -144.751,-3921.01 L -145.25,-3921.07 L -145.736,-3921.2 L -146.203,-3921.38 L -146.643,-3921.62 L -147.05,-3921.92
 L -147.416,-3922.26 L -147.736,-3922.65 L -148.005,-3923.07 L -148.219,-3923.53 L -148.374,-3924.01 L -148.468,-3924.5
 L -148.5,-3925 L -148.5,-4079 L -148.468,-4079.5 L -148.374,-4079.99 L -148.219,-4080.47 L -148.005,-4080.93
 L -147.736,-4081.35 L -147.416,-4081.74 L -147.05,-4082.08 L -146.643,-4082.38 L -146.203,-4082.62 L -145.736,-4082.8
 L -145.25,-4082.93 L -144.751,-4082.99 L 144.751,-4082.99 L 145.25,-4082.93 L 145.736,-4082.8 L 146.203,-4082.62
 L 146.643,-4082.38 L 147.05,-4082.08 L 147.416,-4081.74 L 147.736,-4081.35 L 148.005,-4080.93 L 148.219,-4080.47
 L 148.374,-4079.99 L 148.468,-4079.5 L 148.5,-4079 L 148.5,-3925 L 148.468,-3924.5 L 148.374,-3924.01
 L 148.219,-3923.53 L 148.005,-3923.07 L 147.736,-3922.65 L 147.416,-3922.26 L 147.05,-3921.92 L 146.643,-3921.62
 L 146.203,-3921.38 L 145.736,-3921.2 L 145.25,-3921.07 L 144.751,-3921.01 z
M -148.5,-3746.94 L -148.187,-3746.65 L -147.679,-3746.28 L -147.129,-3745.98 L -146.545,-3745.74 L -145.937,-3745.59
 L -145.314,-3745.51 L 145.314,-3745.51 L 145.937,-3745.59 L 146.545,-3745.74 L 147.129,-3745.98 L 147.679,-3746.28
 L 148.187,-3746.65 L 148.645,-3747.08 L 149.045,-3747.56 L 149.382,-3748.09 L 149.649,-3748.66 L 149.843,-3749.26
 L 149.961,-3749.87 L 150,-3750.5 L 150,-3905.5 L 149.961,-3906.13 L 149.843,-3906.74 L 149.649,-3907.34
 L 149.382,-3907.91 L 149.045,-3908.44 L 148.645,-3908.92 L 148.187,-3909.35 L 147.679,-3909.72 L 147.129,-3910.02
 L 146.545,-3910.26 L 145.937,-3910.41 L 145.314,-3910.49 L -145.314,-3910.49 L -145.937,-3910.41 L -146.545,-3910.26
 L -147.129,-3910.02 L -147.679,-3909.72 L -148.187,-3909.35 L -148.5,-3909.06 L -148.5,-3910.49 L -151.5,-3910.49
 L -151.5,-3905.99 L -148.374,-3905.99 L -148.374,-3905.99 L -148.219,-3906.47 L -148.005,-3906.93 L -147.736,-3907.35
 L -147.416,-3907.74 L -147.05,-3908.08 L -146.643,-3908.38 L -146.203,-3908.62 L -145.736,-3908.8 L -145.25,-3908.93
 L -144.751,-3908.99 L 144.751,-3908.99 L 145.25,-3908.93 L 145.736,-3908.8 L 146.203,-3908.62 L 146.643,-3908.38
 L 147.05,-3908.08 L 147.416,-3907.74 L 147.736,-3907.35 L 148.005,-3906.93 L 148.219,-3906.47 L 148.374,-3905.99
 L 148.468,-3905.5 L 148.5,-3905 L 148.5,-3751 L 148.468,-3750.5 L 148.374,-3750.01 L 148.219,-3749.53
 L 148.005,-3749.07 L 147.736,-3748.65 L 147.416,-3748.26 L 147.05,-3747.92 L 146.643,-3747.62 L 146.203,-3747.38
 L 145.736,-3747.2 L 145.25,-3747.07 L 144.751,-3747.01 L -144.751,-3747.01 L -145.25,-3747.07 L -145.736,-3747.2
 L -146.203,-3747.38 L -146.643,-3747.62 L -147.05,-3747.92 L -147.416,-3748.26 L -147.736,-3748.65 L -148.005,-3749.07
 L -148.219,-3749.53 L -148.374,-3750.01 L -148.374,-3750.01 L -151.5,-3750.01 L -151.5,-3745.51 L -148.5,-3745.51
 z
M -148.5,-3900.01 L -151.5,-3900.01 L -151.5,-3890.99 L -148.5,-3890.99 z
M -148.5,-3885.01 L -151.5,-3885.01 L -151.5,-3875.99 L -148.5,-3875.99 z
M -148.5,-3870.01 L -151.5,-3870.01 L -151.5,-3860.99 L -148.5,-3860.99 z
M -148.5,-3855.01 L -151.5,-3855.01 L -151.5,-3845.99 L -148.5,-3845.99 z
M -148.5,-3840.01 L -151.5,-3840.01 L -151.5,-3830.99 L -148.5,-3830.99 z
M -148.5,-3825.01 L -151.5,-3825.01 L -151.5,-3815.99 L -148.5,-3815.99 z
M -148.5,-3810.01 L -151.5,-3810.01 L -151.5,-3800.99 L -148.5,-3800.99 z
M -148.5,-3795.01 L -151.5,-3795.01 L -151.5,-3785.99 L -148.5,-3785.99 z
M -148.5,-3780.01 L -151.5,-3780.01 L -151.5,-3770.99 L -148.5,-3770.99 z
M -148.5,-3765.01 L -151.5,-3765.01 L -151.5,-3755.99 L -148.5,-3755.99 z
M -148.5,-3572.94 L -148.187,-3572.65 L -147.679,-3572.28 L -147.129,-3571.98 L -146.545,-3571.74 L -145.937,-3571.59
 L -145.314,-3571.51 L 145.314,-3571.51 L 145.937,-3571.59 L 146.545,-3571.74 L 147.129,-3571.98 L 147.679,-3572.28
 L 148.187,-3572.65 L 148.645,-3573.08 L 149.045,-3573.56 L 149.382,-3574.09 L 149.649,-3574.66 L 149.843,-3575.26
 L 149.961,-3575.87 L 150,-3576.5 L 150,-3731.5 L 149.961,-3732.13 L 149.843,-3732.74 L 149.649,-3733.34
 L 149.382,-3733.91 L 149.045,-3734.44 L 148.645,-3734.92 L 148.187,-3735.35 L 147.679,-3735.72 L 147.129,-3736.02
 L 146.545,-3736.26 L 145.937,-3736.41 L 145.314,-3736.49 L -145.314,-3736.49 L -145.937,-3736.41 L -146.545,-3736.26
 L -147.129,-3736.02 L -147.679,-3735.72 L -148.187,-3735.35 L -148.5,-3735.06 L -148.5,-3736.49 L -151.5,-3736.49
 L -151.5,-3571.51 L -148.5,-3571.51 z
M -144.751,-3573.01 L -145.25,-3573.07 L -145.736,-3573.2 L -146.203,-3573.38 L -146.643,-3573.62 L -147.05,-3573.92
 L -147.416,-3574.26 L -147.736,-3574.65 L -148.005,-3575.07 L -148.219,-3575.53 L -148.374,-3576.01 L -148.468,-3576.5
 L -148.5,-3577 L -148.5,-3731 L -148.468,-3731.5 L -148.374,-3731.99 L -148.219,-3732.47 L -148.005,-3732.93
 L -147.736,-3733.35 L -147.416,-3733.74 L -147.05,-3734.08 L -146.643,-3734.38 L -146.203,-3734.62 L -145.736,-3734.8
 L -145.25,-3734.93 L -144.751,-3734.99 L 144.751,-3734.99 L 145.25,-3734.93 L 145.736,-3734.8 L 146.203,-3734.62
 L 146.643,-3734.38 L 147.05,-3734.08 L 147.416,-3733.74 L 147.736,-3733.35 L 148.005,-3732.93 L 148.219,-3732.47
 L 148.374,-3731.99 L 148.468,-3731.5 L 148.5,-3731 L 148.5,-3577 L 148.468,-3576.5 L 148.374,-3576.01
 L 148.219,-3575.53 L 148.005,-3575.07 L 147.736,-3574.65 L 147.416,-3574.26 L 147.05,-3573.92 L 146.643,-3573.62
 L 146.203,-3573.38 L 145.736,-3573.2 L 145.25,-3573.07 L 144.751,-3573.01 z
M -148.5,-3398.94 L -148.187,-3398.65 L -147.679,-3398.28 L -147.129,-3397.98 L -146.545,-3397.74 L -145.937,-3397.59
 L -145.314,-3397.51 L 145.314,-3397.51 L 145.937,-3397.59 L 146.545,-3397.74 L 147.129,-3397.98 L 147.679,-3398.28
 L 148.187,-3398.65 L 148.645,-3399.08 L 149.045,-3399.56 L 149.382,-3400.09 L 149.649,-3400.66 L 149.843,-3401.26
 L 149.961,-3401.87 L 150,-3402.5 L 150,-3557.5 L 149.961,-3558.13 L 149.843,-3558.74 L 149.649,-3559.34
 L 149.382,-3559.91 L 149.045,-3560.44 L 148.645,-3560.92 L 148.187,-3561.35 L 147.679,-3561.72 L 147.129,-3562.02
 L 146.545,-3562.26 L 145.937,-3562.41 L 145.314,-3562.49 L -145.314,-3562.49 L -145.937,-3562.41 L -146.545,-3562.26
 L -147.129,-3562.02 L -147.679,-3561.72 L -148.187,-3561.35 L -148.5,-3561.06 L -148.5,-3562.49 L -151.5,-3562.49
 L -151.5,-3397.51 L -148.5,-3397.51 z
M -144.751,-3399.01 L -145.25,-3399.07 L -145.736,-3399.2 L -146.203,-3399.38 L -146.643,-3399.62 L -147.05,-3399.92
 L -147.416,-3400.26 L -147.736,-3400.65 L -148.005,-3401.07 L -148.219,-3401.53 L -148.374,-3402.01 L -148.468,-3402.5
 L -148.5,-3403 L -148.5,-3557 L -148.468,-3557.5 L -148.374,-3557.99 L -148.219,-3558.47 L -148.005,-3558.93
 L -147.736,-3559.35 L -147.416,-3559.74 L -147.05,-3560.08 L -146.643,-3560.38 L -146.203,-3560.62 L -145.736,-3560.8
 L -145.25,-3560.93 L -144.751,-3560.99 L 144.751,-3560.99 L 145.25,-3560.93 L 145.736,-3560.8 L 146.203,-3560.62
 L 146.643,-3560.38 L 147.05,-3560.08 L 147.416,-3559.74 L 147.736,-3559.35 L 148.005,-3558.93 L 148.219,-3558.47
 L 148.374,-3557.99 L 148.468,-3557.5 L 148.5,-3557 L 148.5,-3403 L 148.468,-3402.5 L 148.374,-3402.01
 L 148.219,-3401.53 L 148.005,-3401.07 L 147.736,-3400.65 L 147.416,-3400.26 L 147.05,-3399.92 L 146.643,-3399.62
 L 146.203,-3399.38 L 145.736,-3399.2 L 145.25,-3399.07 L 144.751,-3399.01 z
M -148.5,-3224.94 L -148.187,-3224.65 L -147.679,-3224.28 L -147.129,-3223.98 L -146.545,-3223.74 L -145.937,-3223.59
 L -145.314,-3223.51 L 145.314,-3223.51 L 145.937,-3223.59 L 146.545,-3223.74 L 147.129,-3223.98 L 147.679,-3224.28
 L 148.187,-3224.65 L 148.645,-3225.08 L 149.045,-3225.56 L 149.382,-3226.09 L 149.649,-3226.66 L 149.843,-3227.26
 L 149.961,-3227.87 L 150,-3228.5 L 150,-3383.5 L 149.961,-3384.13 L 149.843,-3384.74 L 149.649,-3385.34
 L 149.382,-3385.91 L 149.045,-3386.44 L 148.645,-3386.92 L 148.187,-3387.35 L 147.679,-3387.72 L 147.129,-3388.02
 L 146.545,-3388.26 L 145.937,-3388.41 L 145.314,-3388.49 L -145.314,-3388.49 L -145.937,-3388.41 L -146.545,-3388.26
 L -147.129,-3388.02 L -147.679,-3387.72 L -148.187,-3387.35 L -148.5,-3387.06 L -148.5,-3388.49 L -151.5,-3388.49
 L -151.5,-3223.51 L -148.5,-3223.51 z
M -144.751,-3225.01 L -145.25,-3225.07 L -145.736,-3225.2 L -146.203,-3225.38 L -146.643,-3225.62 L -147.05,-3225.92
 L -147.416,-3226.26 L -147.736,-3226.65 L -148.005,-3227.07 L -148.219,-3227.53 L -148.374,-3228.01 L -148.468,-3228.5
 L -148.5,-3229 L -148.5,-3383 L -148.468,-3383.5 L -148.374,-3383.99 L -148.219,-3384.47 L -148.005,-3384.93
 L -147.736,-3385.35 L -147.416,-3385.74 L -147.05,-3386.08 L -146.643,-3386.38 L -146.203,-3386.62 L -145.736,-3386.8
 L -145.25,-3386.93 L -144.751,-3386.99 L 144.751,-3386.99 L 145.25,-3386.93 L 145.736,-3386.8 L 146.203,-3386.62
 L 146.643,-3386.38 L 147.05,-3386.08 L 147.416,-3385.74 L 147.736,-3385.35 L 148.005,-3384.93 L 148.219,-3384.47
 L 148.374,-3383.99 L 148.468,-3383.5 L 148.5,-3383 L 148.5,-3229 L 148.468,-3228.5 L 148.374,-3228.01
 L 148.219,-3227.53 L 148.005,-3227.07 L 147.736,-3226.65 L 147.416,-3226.26 L 147.05,-3225.92 L 146.643,-3225.62
 L 146.203,-3225.38 L 145.736,-3225.2 L 145.25,-3225.07 L 144.751,-3225.01 z
M -148.5,-3050.94 L -148.187,-3050.65 L -147.679,-3050.28 L -147.129,-3049.98 L -146.545,-3049.74 L -145.937,-3049.59
 L -145.314,-3049.51 L 145.314,-3049.51 L 145.937,-3049.59 L 146.545,-3049.74 L 147.129,-3049.98 L 147.679,-3050.28
 L 148.187,-3050.65 L 148.645,-3051.08 L 149.045,-3051.56 L 149.382,-3052.09 L 149.649,-3052.66 L 149.843,-3053.26
 L 149.961,-3053.87 L 150,-3054.5 L 150,-3209.5 L 149.961,-3210.13 L 149.843,-3210.74 L 149.649,-3211.34
 L 149.382,-3211.91 L 149.045,-3212.44 L 148.645,-3212.92 L 148.187,-3213.35 L 147.679,-3213.72 L 147.129,-3214.02
 L 146.545,-3214.26 L 145.937,-3214.41 L 145.314,-3214.49 L -145.314,-3214.49 L -145.937,-3214.41 L -146.545,-3214.26
 L -147.129,-3214.02 L -147.679,-3213.72 L -148.187,-3213.35 L -148.5,-3213.06 L -148.5,-3214.49 L -151.5,-3214.49
 L -151.5,-3049.51 L -148.5,-3049.51 z
M -144.751,-3051.01 L -145.25,-3051.07 L -145.736,-3051.2 L -146.203,-3051.38 L -146.643,-3051.62 L -147.05,-3051.92
 L -147.416,-3052.26 L -147.736,-3052.65 L -148.005,-3053.07 L -148.219,-3053.53 L -148.374,-3054.01 L -148.468,-3054.5
 L -148.5,-3055 L -148.5,-3209 L -148.468,-3209.5 L -148.374,-3209.99 L -148.219,-3210.47 L -148.005,-3210.93
 L -147.736,-3211.35 L -147.416,-3211.74 L -147.05,-3212.08 L -146.643,-3212.38 L -146.203,-3212.62 L -145.736,-3212.8
 L -145.25,-3212.93 L -144.751,-3212.99 L 144.751,-3212.99 L 145.25,-3212.93 L 145.736,-3212.8 L 146.203,-3212.62
 L 146.643,-3212.38 L 147.05,-3212.08 L 147.416,-3211.74 L 147.736,-3211.35 L 148.005,-3210.93 L 148.219,-3210.47
 L 148.374,-3209.99 L 148.468,-3209.5 L 148.5,-3209 L 148.5,-3055 L 148.468,-3054.5 L 148.374,-3054.01
 L 148.219,-3053.53 L 148.005,-3053.07 L 147.736,-3052.65 L 147.416,-3052.26 L 147.05,-3051.92 L 146.643,-3051.62
 L 146.203,-3051.38 L 145.736,-3051.2 L 145.25,-3051.07 L 144.751,-3051.01 z
M -148.5,-2876.94 L -148.187,-2876.65 L -147.679,-2876.28 L -147.129,-2875.98 L -146.545,-2875.74 L -145.937,-2875.59
 L -145.314,-2875.51 L 145.314,-2875.51 L 145.937,-2875.59 L 146.545,-2875.74 L 147.129,-2875.98 L 147.679,-2876.28
 L 148.187,-2876.65 L 148.645,-2877.08 L 149.045,-2877.56 L 149.382,-2878.09 L 149.649,-2878.66 L 149.843,-2879.26
 L 149.961,-2879.87 L 150,-2880.5 L 150,-3035.5 L 149.961,-3036.13 L 149.843,-3036.74 L 149.649,-3037.34
 L 149.382,-3037.91 L 149.045,-3038.44 L 148.645,-3038.92 L 148.187,-3039.35 L 147.679,-3039.72 L 147.129,-3040.02
 L 146.545,-3040.26 L 145.937,-3040.41 L 145.314,-3040.49 L -145.314,-3040.49 L -145.937,-3040.41 L -146.545,-3040.26
 L -147.129,-3040.02 L -147.679,-3039.72 L -148.187,-3039.35 L -148.5,-3039.06 L -148.5,-3040.49 L -151.5,-3040.49
 L -151.5,-2875.51 L -148.5,-2875.51 z
M -144.751,-2877.01 L -145.25,-2877.07 L -145.736,-2877.2 L -146.203,-2877.38 L -146.643,-2877.62 L -147.05,-2877.92
 L -147.416,-2878.26 L -147.736,-2878.65 L -148.005,-2879.07 L -148.219,-2879.53 L -148.374,-2880.01 L -148.468,-2880.5
 L -148.5,-2881 L -148.5,-3035 L -148.468,-3035.5 L -148.374,-3035.99 L -148.219,-3036.47 L -148.005,-3036.93
 L -147.736,-3037.35 L -147.416,-3037.74 L -147.05,-3038.08 L -146.643,-3038.38 L -146.203,-3038.62 L -145.736,-3038.8
 L -145.25,-3038.93 L -144.751,-3038.99 L 144.751,-3038.99 L 145.25,-3038.93 L 145.736,-3038.8 L 146.203,-3038.62
 L 146.643,-3038.38 L 147.05,-3038.08 L 147.416,-3037.74 L 147.736,-3037.35 L 148.005,-3036.93 L 148.219,-3036.47
 L 148.374,-3035.99 L 148.468,-3035.5 L 148.5,-3035 L 148.5,-2881 L 148.468,-2880.5 L 148.374,-2880.01
 L 148.219,-2879.53 L 148.005,-2879.07 L 147.736,-2878.65 L 147.416,-2878.26 L 147.05,-2877.92 L 146.643,-2877.62
 L 146.203,-2877.38 L 145.736,-2877.2 L 145.25,-2877.07 L 144.751,-2877.01 z
M 145.937,-2701.59 L 146.545,-2701.74 L 147.129,-2701.98 L 147.679,-2702.28 L 148.187,-2702.65 L 148.645,-2703.08
 L 149.045,-2703.56 L 149.382,-2704.09 L 149.649,-2704.66 L 149.843,-2705.26 L 149.961,-2705.87 L 150,-2706.5
 L 150,-2861.5 L 149.961,-2862.13 L 149.843,-2862.74 L 149.649,-2863.34 L 149.382,-2863.91 L 149.045,-2864.44
 L 148.645,-2864.92 L 148.187,-2865.35 L 147.679,-2865.72 L 147.129,-2866.02 L 146.545,-2866.26 L 145.937,-2866.41
 L 145.314,-2866.49 L -145.314,-2866.49 L -145.937,-2866.41 L -146.545,-2866.26 L -147.129,-2866.02 L -147.679,-2865.72
 L -148.187,-2865.35 L -148.5,-2865.06 L -148.5,-2866.48 L -151.5,-2866.48 L -151.5,-2701.52 L -148.5,-2701.52
 L -148.5,-2702.94 L -148.187,-2702.65 L -147.679,-2702.28 L -147.129,-2701.98 L -146.545,-2701.74 L -145.937,-2701.59
 L -145.314,-2701.51 L 145.314,-2701.51 z
M -144.695,-2703.89 L -145.083,-2703.94 L -145.462,-2704.04 L -145.825,-2704.18 L -146.168,-2704.37 L -146.484,-2704.6
 L -146.769,-2704.87 L -147.018,-2705.17 L -147.228,-2705.5 L -147.394,-2705.85 L -147.515,-2706.23 L -147.588,-2706.61
 L -147.613,-2707 L -147.613,-2861 L -147.588,-2861.39 L -147.515,-2861.77 L -147.394,-2862.15 L -147.228,-2862.5
 L -147.018,-2862.83 L -146.769,-2863.13 L -146.484,-2863.4 L -146.168,-2863.63 L -145.825,-2863.82 L -145.462,-2863.96
 L -145.083,-2864.06 L -144.695,-2864.11 L 144.695,-2864.11 L 145.083,-2864.06 L 145.462,-2863.96 L 145.825,-2863.82
 L 146.168,-2863.63 L 146.484,-2863.4 L 146.769,-2863.13 L 147.018,-2862.83 L 147.228,-2862.5 L 147.394,-2862.15
 L 147.515,-2861.77 L 147.588,-2861.39 L 147.613,-2861 L 147.613,-2707 L 147.588,-2706.61 L 147.515,-2706.23
 L 147.394,-2705.85 L 147.228,-2705.5 L 147.018,-2705.17 L 146.769,-2704.87 L 146.484,-2704.6 L 146.168,-2704.37
 L 145.825,-2704.18 L 145.462,-2704.04 L 145.083,-2703.94 L 144.695,-2703.89 z
M 145.937,-2527.59 L 146.545,-2527.74 L 147.129,-2527.98 L 147.679,-2528.28 L 148.187,-2528.65 L 148.645,-2529.08
 L 149.045,-2529.56 L 149.382,-2530.09 L 149.649,-2530.66 L 149.843,-2531.26 L 149.961,-2531.87 L 150,-2532.5
 L 150,-2687.5 L 149.961,-2688.13 L 149.843,-2688.74 L 149.649,-2689.34 L 149.382,-2689.91 L 149.045,-2690.44
 L 148.645,-2690.92 L 148.187,-2691.35 L 147.679,-2691.72 L 147.129,-2692.02 L 146.545,-2692.26 L 145.937,-2692.41
 L 145.314,-2692.49 L -145.314,-2692.49 L -145.937,-2692.41 L -146.545,-2692.26 L -147.129,-2692.02 L -147.679,-2691.72
 L -148.187,-2691.35 L -148.5,-2691.06 L -148.5,-2691.15 L -151.5,-2691.15 L -151.5,-2528.85 L -148.5,-2528.85
 L -148.5,-2528.94 L -148.187,-2528.65 L -147.679,-2528.28 L -147.129,-2527.98 L -146.545,-2527.74 L -145.937,-2527.59
 L -145.314,-2527.51 L 145.314,-2527.51 z
M -142.634,-2682.87 L -142.9,-2682.9 L -143.16,-2682.97 L -143.409,-2683.07 L -143.644,-2683.2 L -143.861,-2683.35
 L -144.057,-2683.54 L -144.227,-2683.74 L -144.371,-2683.97 L -144.485,-2684.21 L -144.568,-2684.47 L -144.618,-2684.73
 L -144.635,-2685 L -144.618,-2685.27 L -144.568,-2685.53 L -144.485,-2685.79 L -144.371,-2686.03 L -144.227,-2686.26
 L -144.057,-2686.46 L -143.861,-2686.65 L -143.644,-2686.8 L -143.409,-2686.93 L -143.16,-2687.03 L -142.9,-2687.1
 L -142.634,-2687.13 L -142.366,-2687.13 L -142.1,-2687.1 L -141.84,-2687.03 L -141.591,-2686.93 L -141.356,-2686.8
 L -141.139,-2686.65 L -140.943,-2686.46 L -140.773,-2686.26 L -140.629,-2686.03 L -140.515,-2685.79 L -140.432,-2685.53
 L -140.382,-2685.27 L -140.365,-2685 L -140.382,-2684.73 L -140.432,-2684.47 L -140.515,-2684.21 L -140.629,-2683.97
 L -140.773,-2683.74 L -140.943,-2683.54 L -141.139,-2683.35 L -141.356,-2683.2 L -141.591,-2683.07 L -141.84,-2682.97
 L -142.1,-2682.9 L -142.366,-2682.87 z
M 142.366,-2682.87 L 142.1,-2682.9 L 141.84,-2682.97 L 141.591,-2683.07 L 141.356,-2683.2 L 141.139,-2683.35
 L 140.943,-2683.54 L 140.773,-2683.74 L 140.629,-2683.97 L 140.515,-2684.21 L 140.432,-2684.47 L 140.382,-2684.73
 L 140.365,-2685 L 140.382,-2685.27 L 140.432,-2685.53 L 140.515,-2685.79 L 140.629,-2686.03 L 140.773,-2686.26
 L 140.943,-2686.46 L 141.139,-2686.65 L 141.356,-2686.8 L 141.591,-2686.93 L 141.84,-2687.03 L 142.1,-2687.1
 L 142.366,-2687.13 L 142.634,-2687.13 L 142.9,-2687.1 L 143.16,-2687.03 L 143.409,-2686.93 L 143.644,-2686.8
 L 143.861,-2686.65 L 144.057,-2686.46 L 144.227,-2686.26 L 144.371,-2686.03 L 144.485,-2685.79 L 144.568,-2685.53
 L 144.618,-2685.27 L 144.635,-2685 L 144.618,-2684.73 L 144.568,-2684.47 L 144.485,-2684.21 L 144.371,-2683.97
 L 144.227,-2683.74 L 144.057,-2683.54 L 143.861,-2683.35 L 143.644,-2683.2 L 143.409,-2683.07 L 143.16,-2682.97
 L 142.9,-2682.9 L 142.634,-2682.87 z
M -142.634,-2532.87 L -142.9,-2532.9 L -143.16,-2532.97 L -143.409,-2533.07 L -143.644,-2533.2 L -143.861,-2533.35
 L -144.057,-2533.54 L -144.227,-2533.74 L -144.371,-2533.97 L -144.485,-2534.21 L -144.568,-2534.47 L -144.618,-2534.73
 L -144.635,-2535 L -144.618,-2535.27 L -144.568,-2535.53 L -144.485,-2535.79 L -144.371,-2536.03 L -144.227,-2536.26
 L -144.057,-2536.46 L -143.861,-2536.65 L -143.644,-2536.8 L -143.409,-2536.93 L -143.16,-2537.03 L -142.9,-2537.1
 L -142.634,-2537.13 L -142.366,-2537.13 L -142.1,-2537.1 L -141.84,-2537.03 L -141.591,-2536.93 L -141.356,-2536.8
 L -141.139,-2536.65 L -140.943,-2536.46 L -140.773,-2536.26 L -140.629,-2536.03 L -140.515,-2535.79 L -140.432,-2535.53
 L -140.382,-2535.27 L -140.365,-2535 L -140.382,-2534.73 L -140.432,-2534.47 L -140.515,-2534.21 L -140.629,-2533.97
 L -140.773,-2533.74 L -140.943,-2533.54 L -141.139,-2533.35 L -141.356,-2533.2 L -141.591,-2533.07 L -141.84,-2532.97
 L -142.1,-2532.9 L -142.366,-2532.87 z
M 142.366,-2532.87 L 142.1,-2532.9 L 141.84,-2532.97 L 141.591,-2533.07 L 141.356,-2533.2 L 141.139,-2533.35
 L 140.943,-2533.54 L 140.773,-2533.74 L 140.629,-2533.97 L 140.515,-2534.21 L 140.432,-2534.47 L 140.382,-2534.73
 L 140.365,-2535 L 140.382,-2535.27 L 140.432,-2535.53 L 140.515,-2535.79 L 140.629,-2536.03 L 140.773,-2536.26
 L 140.943,-2536.46 L 141.139,-2536.65 L 141.356,-2536.8 L 141.591,-2536.93 L 141.84,-2537.03 L 142.1,-2537.1
 L 142.366,-2537.13 L 142.634,-2537.13 L 142.9,-2537.1 L 143.16,-2537.03 L 143.409,-2536.93 L 143.644,-2536.8
 L 143.861,-2536.65 L 144.057,-2536.46 L 144.227,-2536.26 L 144.371,-2536.03 L 144.485,-2535.79 L 144.568,-2535.53
 L 144.618,-2535.27 L 144.635,-2535 L 144.618,-2534.73 L 144.568,-2534.47 L 144.485,-2534.21 L 144.371,-2533.97
 L 144.227,-2533.74 L 144.057,-2533.54 L 143.861,-2533.35 L 143.644,-2533.2 L 143.409,-2533.07 L 143.16,-2532.97
 L 142.9,-2532.9 L 142.634,-2532.87 z
" stroke="black" fill="lightgray" stroke-width="0.5"/>
</svg>
