<?xml version="1.0" standalone="no"?>
<!DOCTYPE svg PUBLIC "-//W3C//DTD SVG 1.1//EN" "http://www.w3.org/Graphics/SVG/1.1/DTD/svg11.dtd">
<svg width="270mm" height="558mm" viewBox="-135 -1035 270 558" xmlns="http://www.w3.org/2000/svg" version="1.1">
<title>OpenSCAD Model</title>
<path d="
M 130.937,-855.089 L 131.545,-855.245 L 132.129,-855.476 L 132.679,-855.778 L 133.187,-856.147 L 133.645,-856.577
 L 134.045,-857.061 L 134.382,-857.591 L 134.649,-858.159 L 134.843,-858.757 L 134.961,-859.373 L 135,-860
 L 135,-1030 L 134.961,-1030.63 L 134.843,-1031.24 L 134.649,-1031.84 L 134.382,-1032.41 L 134.045,-1032.94
 L 133.645,-1033.42 L 133.187,-1033.85 L 132.679,-1034.22 L 132.129,-1034.52 L 131.545,-1034.76 L 130.937,-1034.91
 L 130.314,-1034.99 L -130.314,-1034.99 L -130.937,-1034.91 L -131.545,-1034.76 L -132.129,-1034.52 L -132.679,-1034.22
 L -133.187,-1033.85 L -133.645,-1033.42 L -134.045,-1032.94 L -134.382,-1032.41 L -134.649,-1031.84 L -134.843,-1031.24
 L -134.961,-1030.63 L -135,-1030 L -135,-860 L -134.961,-859.373 L -134.843,-858.757 L -134.649,-858.159
 L -134.382,-857.591 L -134.045,-857.061 L -133.645,-856.577 L -133.187,-856.147 L -132.679,-855.778 L -132.129,-855.476
 L -131.545,-855.245 L -130.937,-855.089 L -130.314,-855.01 L 130.314,-855.01 z
M -130.048,-855.509 L -130.64,-855.584 L -131.218,-855.732 L -131.772,-855.952 L -132.295,-856.239 L -132.778,-856.59
 L -133.213,-856.998 L -133.593,-857.458 L -133.912,-857.962 L -134.166,-858.501 L -134.351,-859.069 L -134.463,-859.655
 L -134.5,-860.25 L -134.5,-1029.75 L -134.463,-1030.35 L -134.351,-1030.93 L -134.166,-1031.5 L -133.912,-1032.04
 L -133.593,-1032.54 L -133.213,-1033 L -132.778,-1033.41 L -132.295,-1033.76 L -131.772,-1034.05 L -131.218,-1034.27
 L -130.64,-1034.42 L -130.048,-1034.49 L 130.048,-1034.49 L 130.64,-1034.42 L 131.218,-1034.27 L 131.772,-1034.05
 L 132.295,-1033.76 L 132.778,-1033.41 L 133.213,-1033 L 133.593,-1032.54 L 133.912,-1032.04 L 134.166,-1031.5
 L 134.351,-1030.93 L 134.463,-1030.35 L 134.5,-1029.75 L 134.5,-860.25 L 134.463,-859.655 L 134.351,-859.069
 L 134.166,-858.501 L 133.912,-857.962 L 133.593,-857.458 L 133.213,-856.998 L 132.778,-856.59 L 132.295,-856.239
 L 131.772,-855.952 L 131.218,-855.732 L 130.64,-855.584 L 130.048,-855.509 z
M 130.937,-666.089 L 131.545,-666.245 L 132.129,-666.476 L 132.679,-666.778 L 133.187,-667.147 L 133.645,-667.577
 L 134.045,-668.061 L 134.382,-668.591 L 134.649,-669.159 L 134.843,-669.757 L 134.961,-670.373 L 135,-671
 L 135,-841 L 134.961,-841.627 L 134.843,-842.243 L 134.649,-842.841 L 134.382,-843.409 L 134.045,-843.939
 L 133.645,-844.423 L 133.187,-844.853 L 132.679,-845.222 L 132.129,-845.524 L 131.545,-845.755 L 130.937,-845.911
 L 130.314,-845.99 L -130.314,-845.99 L -130.937,-845.911 L -131.545,-845.755 L -132.129,-845.524 L -132.679,-845.222
 L -133.187,-844.853 L -133.645,-844.423 L -134.045,-843.939 L -134.382,-843.409 L -134.649,-842.841 L -134.843,-842.243
 L -134.961,-841.627 L -135,-841 L -135,-671 L -134.961,-670.373 L -134.843,-669.757 L -134.649,-669.159
 L -134.382,-668.591 L -134.045,-668.061 L -133.645,-667.577 L -133.187,-667.147 L -132.679,-666.778 L -132.129,-666.476
 L -131.545,-666.245 L -130.937,-666.089 L -130.314,-666.01 L 130.314,-666.01 z
M -130.037,-666.681 L -130.608,-666.753 L -131.165,-666.896 L -131.699,-667.107 L -132.203,-667.384 L -132.668,-667.722
 L -133.088,-668.116 L -133.454,-668.559 L -133.762,-669.044 L -134.007,-669.565 L -134.185,-670.111 L -134.292,-670.676
 L -134.328,-671.25 L -134.328,-840.75 L -134.292,-841.324 L -134.185,-841.889 L -134.007,-842.435 L -133.762,-842.956
 L -133.454,-843.441 L -133.088,-843.884 L -132.668,-844.278 L -132.203,-844.616 L -131.699,-844.893 L -131.165,-845.104
 L -130.608,-845.247 L -130.037,-845.319 L 130.037,-845.319 L 130.608,-845.247 L 131.165,-845.104 L 131.699,-844.893
 L 132.203,-844.616 L 132.668,-844.278 L 133.088,-843.884 L 133.454,-843.441 L 133.762,-842.956 L 134.007,-842.435
 L 134.185,-841.889 L 134.292,-841.324 L 134.328,-840.75 L 134.328,-671.25 L 134.292,-670.676 L 134.185,-670.111
 L 134.007,-669.565 L 133.762,-669.044 L 133.454,-668.559 L 133.088,-668.116 L 132.668,-667.722 L 132.203,-667.384
 L 131.699,-667.107 L 131.165,-666.896 L 130.608,-666.753 L 130.037,-666.681 z
M 130.937,-477.089 L 131.545,-477.245 L 132.129,-477.476 L 132.679,-477.778 L 133.187,-478.147 L 133.645,-478.577
 L 134.045,-479.061 L 134.382,-479.591 L 134.649,-480.159 L 134.843,-480.757 L 134.961,-481.373 L 135,-482
 L 135,-652 L 134.961,-652.627 L 134.843,-653.243 L 134.649,-653.841 L 134.382,-654.409 L 134.045,-654.939
 L 133.645,-655.423 L 133.187,-655.853 L 132.679,-656.222 L 132.129,-656.524 L 131.545,-656.755 L 130.937,-656.911
 L 130.314,-656.99 L -130.314,-656.99 L -130.937,-656.911 L -131.545,-656.755 L -132.129,-656.524 L -132.679,-656.222
 L -133.187,-655.853 L -133.645,-655.423 L -134.045,-654.939 L -134.382,-654.409 L -134.649,-653.841 L -134.843,-653.243
 L -134.961,-652.627 L -135,-652 L -135,-482 L -134.961,-481.373 L -134.843,-480.757 L -134.649,-480.159
 L -134.382,-479.591 L -134.045,-479.061 L -133.645,-478.577 L -133.187,-478.147 L -132.679,-477.778 L -132.129,-477.476
 L -131.545,-477.245 L -130.937,-477.089 L -130.314,-477.01 L 130.314,-477.01 z
M -129.882,-480.145 L -130.145,-480.178 L -130.402,-480.244 L -130.648,-480.341 L -130.88,-480.469 L -131.095,-480.624
 L -131.288,-480.806 L -131.457,-481.01 L -131.599,-481.234 L -131.711,-481.473 L -131.793,-481.725 L -131.843,-481.986
 L -131.86,-482.25 L -131.86,-651.75 L -131.843,-652.014 L -131.793,-652.275 L -131.711,-652.527 L -131.599,-652.766
 L -131.457,-652.99 L -131.288,-653.194 L -131.095,-653.376 L -130.88,-653.531 L -130.648,-653.659 L -130.402,-653.756
 L -130.145,-653.822 L -129.882,-653.855 L 129.882,-653.855 L 130.145,-653.822 L 130.402,-653.756 L 130.648,-653.659
 L 130.88,-653.531 L 131.095,-653.376 L 131.288,-653.194 L 131.457,-652.99 L 131.599,-652.766 L 131.711,-652.527
 L 131.793,-652.275 L 131.843,-652.014 L 131.86,-651.75 L 131.86,-482.25 L 131.843,-481.986 L 131.793,-481.725
 L 131.711,-481.473 L 131.599,-481.234 L 131.457,-481.01 L 131.288,-480.806 L 131.095,-480.624 L 130.88,-480.469
 L 130.648,-480.341 L 130.402,-480.244 L 130.145,-480.178 L 129.882,-480.145 z
" stroke="black" fill="lightgray" stroke-width="0.5"/>
</svg>
