  0
SECTION
  2
BLOCKS
  0
ENDSEC
  0
SECTION
  2
ENTITIES
  0
LINE
  8
0
 10
-126
 20
1136.94
 11
-125.687
 21
1136.65
  0
LINE
  8
0
 10
-125.687
 20
1136.65
 11
-125.179
 21
1136.28
  0
LINE
  8
0
 10
-125.179
 20
1136.28
 11
-124.629
 21
1135.98
  0
LINE
  8
0
 10
-124.629
 20
1135.98
 11
-124.045
 21
1135.74
  0
LINE
  8
0
 10
-124.045
 20
1135.74
 11
-123.437
 21
1135.59
  0
LINE
  8
0
 10
-123.437
 20
1135.59
 11
-122.814
 21
1135.51
  0
LINE
  8
0
 10
-122.814
 20
1135.51
 11
122.814
 21
1135.51
  0
LINE
  8
0
 10
122.814
 20
1135.51
 11
123.437
 21
1135.59
  0
LINE
  8
0
 10
123.437
 20
1135.59
 11
124.045
 21
1135.74
  0
LINE
  8
0
 10
124.045
 20
1135.74
 11
124.629
 21
1135.98
  0
LINE
  8
0
 10
124.629
 20
1135.98
 11
125.179
 21
1136.28
  0
LINE
  8
0
 10
125.179
 20
1136.28
 11
125.687
 21
1136.65
  0
LINE
  8
0
 10
125.687
 20
1136.65
 11
126.145
 21
1137.08
  0
LINE
  8
0
 10
126.145
 20
1137.08
 11
126.545
 21
1137.56
  0
LINE
  8
0
 10
126.545
 20
1137.56
 11
126.882
 21
1138.09
  0
LINE
  8
0
 10
126.882
 20
1138.09
 11
127.149
 21
1138.66
  0
LINE
  8
0
 10
127.149
 20
1138.66
 11
127.343
 21
1139.26
  0
LINE
  8
0
 10
127.343
 20
1139.26
 11
127.461
 21
1139.87
  0
LINE
  8
0
 10
127.461
 20
1139.87
 11
127.5
 21
1140.5
  0
LINE
  8
0
 10
127.5
 20
1140.5
 11
127.5
 21
1295.5
  0
LINE
  8
0
 10
127.5
 20
1295.5
 11
127.461
 21
1296.13
  0
LINE
  8
0
 10
127.461
 20
1296.13
 11
127.343
 21
1296.74
  0
LINE
  8
0
 10
127.343
 20
1296.74
 11
127.149
 21
1297.34
  0
LINE
  8
0
 10
127.149
 20
1297.34
 11
126.882
 21
1297.91
  0
LINE
  8
0
 10
126.882
 20
1297.91
 11
126.545
 21
1298.44
  0
LINE
  8
0
 10
126.545
 20
1298.44
 11
126.145
 21
1298.92
  0
LINE
  8
0
 10
126.145
 20
1298.92
 11
125.687
 21
1299.35
  0
LINE
  8
0
 10
125.687
 20
1299.35
 11
125.179
 21
1299.72
  0
LINE
  8
0
 10
125.179
 20
1299.72
 11
124.629
 21
1300.02
  0
LINE
  8
0
 10
124.629
 20
1300.02
 11
124.045
 21
1300.26
  0
LINE
  8
0
 10
124.045
 20
1300.26
 11
123.437
 21
1300.41
  0
LINE
  8
0
 10
123.437
 20
1300.41
 11
122.814
 21
1300.49
  0
LINE
  8
0
 10
122.814
 20
1300.49
 11
-122.814
 21
1300.49
  0
LINE
  8
0
 10
-122.814
 20
1300.49
 11
-123.437
 21
1300.41
  0
LINE
  8
0
 10
-123.437
 20
1300.41
 11
-124.045
 21
1300.26
  0
LINE
  8
0
 10
-124.045
 20
1300.26
 11
-124.629
 21
1300.02
  0
LINE
  8
0
 10
-124.629
 20
1300.02
 11
-125.179
 21
1299.72
  0
LINE
  8
0
 10
-125.179
 20
1299.72
 11
-125.687
 21
1299.35
  0
LINE
  8
0
 10
-125.687
 20
1299.35
 11
-126
 21
1299.06
  0
LINE
  8
0
 10
-126
 20
1299.06
 11
-126
 21
1300.49
  0
LINE
  8
0
 10
-126
 20
1300.49
 11
-129
 21
1300.49
  0
LINE
  8
0
 10
-129
 20
1300.49
 11
-129
 21
1135.51
  0
LINE
  8
0
 10
-129
 20
1135.51
 11
-126
 21
1135.51
  0
LINE
  8
0
 10
-126
 20
1135.51
 11
-126
 21
1136.94
  0
LINE
  8
0
 10
-122.251
 20
1137.01
 11
-122.75
 21
1137.07
  0
LINE
  8
0
 10
-122.75
 20
1137.07
 11
-123.236
 21
1137.2
  0
LINE
  8
0
 10
-123.236
 20
1137.2
 11
-123.703
 21
1137.38
  0
LINE
  8
0
 10
-123.703
 20
1137.38
 11
-124.143
 21
1137.62
  0
LINE
  8
0
 10
-124.143
 20
1137.62
 11
-124.55
 21
1137.92
  0
LINE
  8
0
 10
-124.55
 20
1137.92
 11
-124.916
 21
1138.26
  0
LINE
  8
0
 10
-124.916
 20
1138.26
 11
-125.236
 21
1138.65
  0
LINE
  8
0
 10
-125.236
 20
1138.65
 11
-125.505
 21
1139.07
  0
LINE
  8
0
 10
-125.505
 20
1139.07
 11
-125.719
 21
1139.53
  0
LINE
  8
0
 10
-125.719
 20
1139.53
 11
-125.874
 21
1140.01
  0
LINE
  8
0
 10
-125.874
 20
1140.01
 11
-125.968
 21
1140.5
  0
LINE
  8
0
 10
-125.968
 20
1140.5
 11
-126
 21
1141
  0
LINE
  8
0
 10
-126
 20
1141
 11
-126
 21
1295
  0
LINE
  8
0
 10
-126
 20
1295
 11
-125.968
 21
1295.5
  0
LINE
  8
0
 10
-125.968
 20
1295.5
 11
-125.874
 21
1295.99
  0
LINE
  8
0
 10
-125.874
 20
1295.99
 11
-125.719
 21
1296.47
  0
LINE
  8
0
 10
-125.719
 20
1296.47
 11
-125.505
 21
1296.93
  0
LINE
  8
0
 10
-125.505
 20
1296.93
 11
-125.236
 21
1297.35
  0
LINE
  8
0
 10
-125.236
 20
1297.35
 11
-124.916
 21
1297.74
  0
LINE
  8
0
 10
-124.916
 20
1297.74
 11
-124.55
 21
1298.08
  0
LINE
  8
0
 10
-124.55
 20
1298.08
 11
-124.143
 21
1298.38
  0
LINE
  8
0
 10
-124.143
 20
1298.38
 11
-123.703
 21
1298.62
  0
LINE
  8
0
 10
-123.703
 20
1298.62
 11
-123.236
 21
1298.8
  0
LINE
  8
0
 10
-123.236
 20
1298.8
 11
-122.75
 21
1298.93
  0
LINE
  8
0
 10
-122.75
 20
1298.93
 11
-122.251
 21
1298.99
  0
LINE
  8
0
 10
-122.251
 20
1298.99
 11
122.251
 21
1298.99
  0
LINE
  8
0
 10
122.251
 20
1298.99
 11
122.75
 21
1298.93
  0
LINE
  8
0
 10
122.75
 20
1298.93
 11
123.236
 21
1298.8
  0
LINE
  8
0
 10
123.236
 20
1298.8
 11
123.703
 21
1298.62
  0
LINE
  8
0
 10
123.703
 20
1298.62
 11
124.143
 21
1298.38
  0
LINE
  8
0
 10
124.143
 20
1298.38
 11
124.55
 21
1298.08
  0
LINE
  8
0
 10
124.55
 20
1298.08
 11
124.916
 21
1297.74
  0
LINE
  8
0
 10
124.916
 20
1297.74
 11
125.236
 21
1297.35
  0
LINE
  8
0
 10
125.236
 20
1297.35
 11
125.505
 21
1296.93
  0
LINE
  8
0
 10
125.505
 20
1296.93
 11
125.719
 21
1296.47
  0
LINE
  8
0
 10
125.719
 20
1296.47
 11
125.874
 21
1295.99
  0
LINE
  8
0
 10
125.874
 20
1295.99
 11
125.968
 21
1295.5
  0
LINE
  8
0
 10
125.968
 20
1295.5
 11
126
 21
1295
  0
LINE
  8
0
 10
126
 20
1295
 11
126
 21
1141
  0
LINE
  8
0
 10
126
 20
1141
 11
125.968
 21
1140.5
  0
LINE
  8
0
 10
125.968
 20
1140.5
 11
125.874
 21
1140.01
  0
LINE
  8
0
 10
125.874
 20
1140.01
 11
125.719
 21
1139.53
  0
LINE
  8
0
 10
125.719
 20
1139.53
 11
125.505
 21
1139.07
  0
LINE
  8
0
 10
125.505
 20
1139.07
 11
125.236
 21
1138.65
  0
LINE
  8
0
 10
125.236
 20
1138.65
 11
124.916
 21
1138.26
  0
LINE
  8
0
 10
124.916
 20
1138.26
 11
124.55
 21
1137.92
  0
LINE
  8
0
 10
124.55
 20
1137.92
 11
124.143
 21
1137.62
  0
LINE
  8
0
 10
124.143
 20
1137.62
 11
123.703
 21
1137.38
  0
LINE
  8
0
 10
123.703
 20
1137.38
 11
123.236
 21
1137.2
  0
LINE
  8
0
 10
123.236
 20
1137.2
 11
122.75
 21
1137.07
  0
LINE
  8
0
 10
122.75
 20
1137.07
 11
122.251
 21
1137.01
  0
LINE
  8
0
 10
122.251
 20
1137.01
 11
-122.251
 21
1137.01
  0
LINE
  8
0
 10
-126
 20
962.941
 11
-125.687
 21
962.647
  0
LINE
  8
0
 10
-125.687
 20
962.647
 11
-125.179
 21
962.278
  0
LINE
  8
0
 10
-125.179
 20
962.278
 11
-124.629
 21
961.976
  0
LINE
  8
0
 10
-124.629
 20
961.976
 11
-124.045
 21
961.745
  0
LINE
  8
0
 10
-124.045
 20
961.745
 11
-123.437
 21
961.589
  0
LINE
  8
0
 10
-123.437
 20
961.589
 11
-122.814
 21
961.51
  0
LINE
  8
0
 10
-122.814
 20
961.51
 11
122.814
 21
961.51
  0
LINE
  8
0
 10
122.814
 20
961.51
 11
123.437
 21
961.589
  0
LINE
  8
0
 10
123.437
 20
961.589
 11
124.045
 21
961.745
  0
LINE
  8
0
 10
124.045
 20
961.745
 11
124.629
 21
961.976
  0
LINE
  8
0
 10
124.629
 20
961.976
 11
125.179
 21
962.278
  0
LINE
  8
0
 10
125.179
 20
962.278
 11
125.687
 21
962.647
  0
LINE
  8
0
 10
125.687
 20
962.647
 11
126.145
 21
963.077
  0
LINE
  8
0
 10
126.145
 20
963.077
 11
126.545
 21
963.561
  0
LINE
  8
0
 10
126.545
 20
963.561
 11
126.882
 21
964.091
  0
LINE
  8
0
 10
126.882
 20
964.091
 11
127.149
 21
964.659
  0
LINE
  8
0
 10
127.149
 20
964.659
 11
127.343
 21
965.257
  0
LINE
  8
0
 10
127.343
 20
965.257
 11
127.461
 21
965.873
  0
LINE
  8
0
 10
127.461
 20
965.873
 11
127.5
 21
966.5
  0
LINE
  8
0
 10
127.5
 20
966.5
 11
127.5
 21
1121.5
  0
LINE
  8
0
 10
127.5
 20
1121.5
 11
127.461
 21
1122.13
  0
LINE
  8
0
 10
127.461
 20
1122.13
 11
127.343
 21
1122.74
  0
LINE
  8
0
 10
127.343
 20
1122.74
 11
127.149
 21
1123.34
  0
LINE
  8
0
 10
127.149
 20
1123.34
 11
126.882
 21
1123.91
  0
LINE
  8
0
 10
126.882
 20
1123.91
 11
126.545
 21
1124.44
  0
LINE
  8
0
 10
126.545
 20
1124.44
 11
126.145
 21
1124.92
  0
LINE
  8
0
 10
126.145
 20
1124.92
 11
125.687
 21
1125.35
  0
LINE
  8
0
 10
125.687
 20
1125.35
 11
125.179
 21
1125.72
  0
LINE
  8
0
 10
125.179
 20
1125.72
 11
124.629
 21
1126.02
  0
LINE
  8
0
 10
124.629
 20
1126.02
 11
124.045
 21
1126.26
  0
LINE
  8
0
 10
124.045
 20
1126.26
 11
123.437
 21
1126.41
  0
LINE
  8
0
 10
123.437
 20
1126.41
 11
122.814
 21
1126.49
  0
LINE
  8
0
 10
122.814
 20
1126.49
 11
-122.814
 21
1126.49
  0
LINE
  8
0
 10
-122.814
 20
1126.49
 11
-123.437
 21
1126.41
  0
LINE
  8
0
 10
-123.437
 20
1126.41
 11
-124.045
 21
1126.26
  0
LINE
  8
0
 10
-124.045
 20
1126.26
 11
-124.629
 21
1126.02
  0
LINE
  8
0
 10
-124.629
 20
1126.02
 11
-125.179
 21
1125.72
  0
LINE
  8
0
 10
-125.179
 20
1125.72
 11
-125.687
 21
1125.35
  0
LINE
  8
0
 10
-125.687
 20
1125.35
 11
-126
 21
1125.06
  0
LINE
  8
0
 10
-126
 20
1125.06
 11
-126
 21
1126.49
  0
LINE
  8
0
 10
-126
 20
1126.49
 11
-129
 21
1126.49
  0
LINE
  8
0
 10
-129
 20
1126.49
 11
-129
 21
961.51
  0
LINE
  8
0
 10
-129
 20
961.51
 11
-126
 21
961.51
  0
LINE
  8
0
 10
-126
 20
961.51
 11
-126
 21
962.941
  0
LINE
  8
0
 10
-122.251
 20
963.008
 11
-122.75
 21
963.071
  0
LINE
  8
0
 10
-122.75
 20
963.071
 11
-123.236
 21
963.196
  0
LINE
  8
0
 10
-123.236
 20
963.196
 11
-123.703
 21
963.381
  0
LINE
  8
0
 10
-123.703
 20
963.381
 11
-124.143
 21
963.623
  0
LINE
  8
0
 10
-124.143
 20
963.623
 11
-124.55
 21
963.918
  0
LINE
  8
0
 10
-124.55
 20
963.918
 11
-124.916
 21
964.262
  0
LINE
  8
0
 10
-124.916
 20
964.262
 11
-125.236
 21
964.649
  0
LINE
  8
0
 10
-125.236
 20
964.649
 11
-125.505
 21
965.073
  0
LINE
  8
0
 10
-125.505
 20
965.073
 11
-125.719
 21
965.528
  0
LINE
  8
0
 10
-125.719
 20
965.528
 11
-125.874
 21
966.005
  0
LINE
  8
0
 10
-125.874
 20
966.005
 11
-125.968
 21
966.499
  0
LINE
  8
0
 10
-125.968
 20
966.499
 11
-126
 21
967
  0
LINE
  8
0
 10
-126
 20
967
 11
-126
 21
1121
  0
LINE
  8
0
 10
-126
 20
1121
 11
-125.968
 21
1121.5
  0
LINE
  8
0
 10
-125.968
 20
1121.5
 11
-125.874
 21
1121.99
  0
LINE
  8
0
 10
-125.874
 20
1121.99
 11
-125.719
 21
1122.47
  0
LINE
  8
0
 10
-125.719
 20
1122.47
 11
-125.505
 21
1122.93
  0
LINE
  8
0
 10
-125.505
 20
1122.93
 11
-125.236
 21
1123.35
  0
LINE
  8
0
 10
-125.236
 20
1123.35
 11
-124.916
 21
1123.74
  0
LINE
  8
0
 10
-124.916
 20
1123.74
 11
-124.55
 21
1124.08
  0
LINE
  8
0
 10
-124.55
 20
1124.08
 11
-124.143
 21
1124.38
  0
LINE
  8
0
 10
-124.143
 20
1124.38
 11
-123.703
 21
1124.62
  0
LINE
  8
0
 10
-123.703
 20
1124.62
 11
-123.236
 21
1124.8
  0
LINE
  8
0
 10
-123.236
 20
1124.8
 11
-122.75
 21
1124.93
  0
LINE
  8
0
 10
-122.75
 20
1124.93
 11
-122.251
 21
1124.99
  0
LINE
  8
0
 10
-122.251
 20
1124.99
 11
122.251
 21
1124.99
  0
LINE
  8
0
 10
122.251
 20
1124.99
 11
122.75
 21
1124.93
  0
LINE
  8
0
 10
122.75
 20
1124.93
 11
123.236
 21
1124.8
  0
LINE
  8
0
 10
123.236
 20
1124.8
 11
123.703
 21
1124.62
  0
LINE
  8
0
 10
123.703
 20
1124.62
 11
124.143
 21
1124.38
  0
LINE
  8
0
 10
124.143
 20
1124.38
 11
124.55
 21
1124.08
  0
LINE
  8
0
 10
124.55
 20
1124.08
 11
124.916
 21
1123.74
  0
LINE
  8
0
 10
124.916
 20
1123.74
 11
125.236
 21
1123.35
  0
LINE
  8
0
 10
125.236
 20
1123.35
 11
125.505
 21
1122.93
  0
LINE
  8
0
 10
125.505
 20
1122.93
 11
125.719
 21
1122.47
  0
LINE
  8
0
 10
125.719
 20
1122.47
 11
125.874
 21
1121.99
  0
LINE
  8
0
 10
125.874
 20
1121.99
 11
125.968
 21
1121.5
  0
LINE
  8
0
 10
125.968
 20
1121.5
 11
126
 21
1121
  0
LINE
  8
0
 10
126
 20
1121
 11
126
 21
967
  0
LINE
  8
0
 10
126
 20
967
 11
125.968
 21
966.499
  0
LINE
  8
0
 10
125.968
 20
966.499
 11
125.874
 21
966.005
  0
LINE
  8
0
 10
125.874
 20
966.005
 11
125.719
 21
965.528
  0
LINE
  8
0
 10
125.719
 20
965.528
 11
125.505
 21
965.073
  0
LINE
  8
0
 10
125.505
 20
965.073
 11
125.236
 21
964.649
  0
LINE
  8
0
 10
125.236
 20
964.649
 11
124.916
 21
964.262
  0
LINE
  8
0
 10
124.916
 20
964.262
 11
124.55
 21
963.918
  0
LINE
  8
0
 10
124.55
 20
963.918
 11
124.143
 21
963.623
  0
LINE
  8
0
 10
124.143
 20
963.623
 11
123.703
 21
963.381
  0
LINE
  8
0
 10
123.703
 20
963.381
 11
123.236
 21
963.196
  0
LINE
  8
0
 10
123.236
 20
963.196
 11
122.75
 21
963.071
  0
LINE
  8
0
 10
122.75
 20
963.071
 11
122.251
 21
963.008
  0
LINE
  8
0
 10
122.251
 20
963.008
 11
-122.251
 21
963.008
  0
LINE
  8
0
 10
123.437
 20
787.589
 11
124.045
 21
787.745
  0
LINE
  8
0
 10
124.045
 20
787.745
 11
124.629
 21
787.976
  0
LINE
  8
0
 10
124.629
 20
787.976
 11
125.179
 21
788.278
  0
LINE
  8
0
 10
125.179
 20
788.278
 11
125.687
 21
788.647
  0
LINE
  8
0
 10
125.687
 20
788.647
 11
126.145
 21
789.077
  0
LINE
  8
0
 10
126.145
 20
789.077
 11
126.545
 21
789.561
  0
LINE
  8
0
 10
126.545
 20
789.561
 11
126.882
 21
790.091
  0
LINE
  8
0
 10
126.882
 20
790.091
 11
127.149
 21
790.659
  0
LINE
  8
0
 10
127.149
 20
790.659
 11
127.343
 21
791.257
  0
LINE
  8
0
 10
127.343
 20
791.257
 11
127.461
 21
791.873
  0
LINE
  8
0
 10
127.461
 20
791.873
 11
127.5
 21
792.5
  0
LINE
  8
0
 10
127.5
 20
792.5
 11
127.5
 21
947.5
  0
LINE
  8
0
 10
127.5
 20
947.5
 11
127.461
 21
948.127
  0
LINE
  8
0
 10
127.461
 20
948.127
 11
127.343
 21
948.743
  0
LINE
  8
0
 10
127.343
 20
948.743
 11
127.149
 21
949.341
  0
LINE
  8
0
 10
127.149
 20
949.341
 11
126.882
 21
949.909
  0
LINE
  8
0
 10
126.882
 20
949.909
 11
126.545
 21
950.439
  0
LINE
  8
0
 10
126.545
 20
950.439
 11
126.145
 21
950.923
  0
LINE
  8
0
 10
126.145
 20
950.923
 11
125.687
 21
951.353
  0
LINE
  8
0
 10
125.687
 20
951.353
 11
125.179
 21
951.722
  0
LINE
  8
0
 10
125.179
 20
951.722
 11
124.629
 21
952.024
  0
LINE
  8
0
 10
124.629
 20
952.024
 11
124.045
 21
952.255
  0
LINE
  8
0
 10
124.045
 20
952.255
 11
123.437
 21
952.411
  0
LINE
  8
0
 10
123.437
 20
952.411
 11
122.814
 21
952.49
  0
LINE
  8
0
 10
122.814
 20
952.49
 11
-122.814
 21
952.49
  0
LINE
  8
0
 10
-122.814
 20
952.49
 11
-123.437
 21
952.411
  0
LINE
  8
0
 10
-123.437
 20
952.411
 11
-124.045
 21
952.255
  0
LINE
  8
0
 10
-124.045
 20
952.255
 11
-124.629
 21
952.024
  0
LINE
  8
0
 10
-124.629
 20
952.024
 11
-125.179
 21
951.722
  0
LINE
  8
0
 10
-125.179
 20
951.722
 11
-125.687
 21
951.353
  0
LINE
  8
0
 10
-125.687
 20
951.353
 11
-126
 21
951.059
  0
LINE
  8
0
 10
-126
 20
951.059
 11
-126
 21
952.479
  0
LINE
  8
0
 10
-126
 20
952.479
 11
-129
 21
952.479
  0
LINE
  8
0
 10
-129
 20
952.479
 11
-129
 21
787.521
  0
LINE
  8
0
 10
-129
 20
787.521
 11
-126
 21
787.521
  0
LINE
  8
0
 10
-126
 20
787.521
 11
-126
 21
788.941
  0
LINE
  8
0
 10
-126
 20
788.941
 11
-125.687
 21
788.647
  0
LINE
  8
0
 10
-125.687
 20
788.647
 11
-125.179
 21
788.278
  0
LINE
  8
0
 10
-125.179
 20
788.278
 11
-124.629
 21
787.976
  0
LINE
  8
0
 10
-124.629
 20
787.976
 11
-124.045
 21
787.745
  0
LINE
  8
0
 10
-124.045
 20
787.745
 11
-123.437
 21
787.589
  0
LINE
  8
0
 10
-123.437
 20
787.589
 11
-122.814
 21
787.51
  0
LINE
  8
0
 10
-122.814
 20
787.51
 11
122.814
 21
787.51
  0
LINE
  8
0
 10
122.814
 20
787.51
 11
123.437
 21
787.589
  0
LINE
  8
0
 10
-122.195
 20
789.893
 11
-122.583
 21
789.942
  0
LINE
  8
0
 10
-122.583
 20
789.942
 11
-122.962
 21
790.039
  0
LINE
  8
0
 10
-122.962
 20
790.039
 11
-123.325
 21
790.183
  0
LINE
  8
0
 10
-123.325
 20
790.183
 11
-123.668
 21
790.372
  0
LINE
  8
0
 10
-123.668
 20
790.372
 11
-123.984
 21
790.601
  0
LINE
  8
0
 10
-123.984
 20
790.601
 11
-124.269
 21
790.869
  0
LINE
  8
0
 10
-124.269
 20
790.869
 11
-124.518
 21
791.17
  0
LINE
  8
0
 10
-124.518
 20
791.17
 11
-124.728
 21
791.5
  0
LINE
  8
0
 10
-124.728
 20
791.5
 11
-124.894
 21
791.854
  0
LINE
  8
0
 10
-124.894
 20
791.854
 11
-125.015
 21
792.226
  0
LINE
  8
0
 10
-125.015
 20
792.226
 11
-125.088
 21
792.61
  0
LINE
  8
0
 10
-125.088
 20
792.61
 11
-125.113
 21
793
  0
LINE
  8
0
 10
-125.113
 20
793
 11
-125.113
 21
947
  0
LINE
  8
0
 10
-125.113
 20
947
 11
-125.088
 21
947.39
  0
LINE
  8
0
 10
-125.088
 20
947.39
 11
-125.015
 21
947.774
  0
LINE
  8
0
 10
-125.015
 20
947.774
 11
-124.894
 21
948.146
  0
LINE
  8
0
 10
-124.894
 20
948.146
 11
-124.728
 21
948.5
  0
LINE
  8
0
 10
-124.728
 20
948.5
 11
-124.518
 21
948.83
  0
LINE
  8
0
 10
-124.518
 20
948.83
 11
-124.269
 21
949.131
  0
LINE
  8
0
 10
-124.269
 20
949.131
 11
-123.984
 21
949.399
  0
LINE
  8
0
 10
-123.984
 20
949.399
 11
-123.668
 21
949.628
  0
LINE
  8
0
 10
-123.668
 20
949.628
 11
-123.325
 21
949.817
  0
LINE
  8
0
 10
-123.325
 20
949.817
 11
-122.962
 21
949.961
  0
LINE
  8
0
 10
-122.962
 20
949.961
 11
-122.583
 21
950.058
  0
LINE
  8
0
 10
-122.583
 20
950.058
 11
-122.195
 21
950.107
  0
LINE
  8
0
 10
-122.195
 20
950.107
 11
122.195
 21
950.107
  0
LINE
  8
0
 10
122.195
 20
950.107
 11
122.583
 21
950.058
  0
LINE
  8
0
 10
122.583
 20
950.058
 11
122.962
 21
949.961
  0
LINE
  8
0
 10
122.962
 20
949.961
 11
123.325
 21
949.817
  0
LINE
  8
0
 10
123.325
 20
949.817
 11
123.668
 21
949.628
  0
LINE
  8
0
 10
123.668
 20
949.628
 11
123.984
 21
949.399
  0
LINE
  8
0
 10
123.984
 20
949.399
 11
124.269
 21
949.131
  0
LINE
  8
0
 10
124.269
 20
949.131
 11
124.518
 21
948.83
  0
LINE
  8
0
 10
124.518
 20
948.83
 11
124.728
 21
948.5
  0
LINE
  8
0
 10
124.728
 20
948.5
 11
124.894
 21
948.146
  0
LINE
  8
0
 10
124.894
 20
948.146
 11
125.015
 21
947.774
  0
LINE
  8
0
 10
125.015
 20
947.774
 11
125.088
 21
947.39
  0
LINE
  8
0
 10
125.088
 20
947.39
 11
125.113
 21
947
  0
LINE
  8
0
 10
125.113
 20
947
 11
125.113
 21
793
  0
LINE
  8
0
 10
125.113
 20
793
 11
125.088
 21
792.61
  0
LINE
  8
0
 10
125.088
 20
792.61
 11
125.015
 21
792.226
  0
LINE
  8
0
 10
125.015
 20
792.226
 11
124.894
 21
791.854
  0
LINE
  8
0
 10
124.894
 20
791.854
 11
124.728
 21
791.5
  0
LINE
  8
0
 10
124.728
 20
791.5
 11
124.518
 21
791.17
  0
LINE
  8
0
 10
124.518
 20
791.17
 11
124.269
 21
790.869
  0
LINE
  8
0
 10
124.269
 20
790.869
 11
123.984
 21
790.601
  0
LINE
  8
0
 10
123.984
 20
790.601
 11
123.668
 21
790.372
  0
LINE
  8
0
 10
123.668
 20
790.372
 11
123.325
 21
790.183
  0
LINE
  8
0
 10
123.325
 20
790.183
 11
122.962
 21
790.039
  0
LINE
  8
0
 10
122.962
 20
790.039
 11
122.583
 21
789.942
  0
LINE
  8
0
 10
122.583
 20
789.942
 11
122.195
 21
789.893
  0
LINE
  8
0
 10
122.195
 20
789.893
 11
-122.195
 21
789.893
  0
LINE
  8
0
 10
123.437
 20
613.589
 11
124.045
 21
613.745
  0
LINE
  8
0
 10
124.045
 20
613.745
 11
124.629
 21
613.976
  0
LINE
  8
0
 10
124.629
 20
613.976
 11
125.179
 21
614.278
  0
LINE
  8
0
 10
125.179
 20
614.278
 11
125.687
 21
614.647
  0
LINE
  8
0
 10
125.687
 20
614.647
 11
126.145
 21
615.077
  0
LINE
  8
0
 10
126.145
 20
615.077
 11
126.545
 21
615.561
  0
LINE
  8
0
 10
126.545
 20
615.561
 11
126.882
 21
616.091
  0
LINE
  8
0
 10
126.882
 20
616.091
 11
127.149
 21
616.659
  0
LINE
  8
0
 10
127.149
 20
616.659
 11
127.343
 21
617.257
  0
LINE
  8
0
 10
127.343
 20
617.257
 11
127.461
 21
617.873
  0
LINE
  8
0
 10
127.461
 20
617.873
 11
127.5
 21
618.5
  0
LINE
  8
0
 10
127.5
 20
618.5
 11
127.5
 21
773.5
  0
LINE
  8
0
 10
127.5
 20
773.5
 11
127.461
 21
774.127
  0
LINE
  8
0
 10
127.461
 20
774.127
 11
127.343
 21
774.743
  0
LINE
  8
0
 10
127.343
 20
774.743
 11
127.149
 21
775.341
  0
LINE
  8
0
 10
127.149
 20
775.341
 11
126.882
 21
775.909
  0
LINE
  8
0
 10
126.882
 20
775.909
 11
126.545
 21
776.439
  0
LINE
  8
0
 10
126.545
 20
776.439
 11
126.145
 21
776.923
  0
LINE
  8
0
 10
126.145
 20
776.923
 11
125.687
 21
777.353
  0
LINE
  8
0
 10
125.687
 20
777.353
 11
125.179
 21
777.722
  0
LINE
  8
0
 10
125.179
 20
777.722
 11
124.629
 21
778.024
  0
LINE
  8
0
 10
124.629
 20
778.024
 11
124.045
 21
778.255
  0
LINE
  8
0
 10
124.045
 20
778.255
 11
123.437
 21
778.411
  0
LINE
  8
0
 10
123.437
 20
778.411
 11
122.814
 21
778.49
  0
LINE
  8
0
 10
122.814
 20
778.49
 11
-122.814
 21
778.49
  0
LINE
  8
0
 10
-122.814
 20
778.49
 11
-123.437
 21
778.411
  0
LINE
  8
0
 10
-123.437
 20
778.411
 11
-124.045
 21
778.255
  0
LINE
  8
0
 10
-124.045
 20
778.255
 11
-124.629
 21
778.024
  0
LINE
  8
0
 10
-124.629
 20
778.024
 11
-125.179
 21
777.722
  0
LINE
  8
0
 10
-125.179
 20
777.722
 11
-125.687
 21
777.353
  0
LINE
  8
0
 10
-125.687
 20
777.353
 11
-126
 21
777.059
  0
LINE
  8
0
 10
-126
 20
777.059
 11
-126
 21
777.153
  0
LINE
  8
0
 10
-126
 20
777.153
 11
-129
 21
777.153
  0
LINE
  8
0
 10
-129
 20
777.153
 11
-129
 21
614.847
  0
LINE
  8
0
 10
-129
 20
614.847
 11
-126
 21
614.847
  0
LINE
  8
0
 10
-126
 20
614.847
 11
-126
 21
614.941
  0
LINE
  8
0
 10
-126
 20
614.941
 11
-125.687
 21
614.647
  0
LINE
  8
0
 10
-125.687
 20
614.647
 11
-125.179
 21
614.278
  0
LINE
  8
0
 10
-125.179
 20
614.278
 11
-124.629
 21
613.976
  0
LINE
  8
0
 10
-124.629
 20
613.976
 11
-124.045
 21
613.745
  0
LINE
  8
0
 10
-124.045
 20
613.745
 11
-123.437
 21
613.589
  0
LINE
  8
0
 10
-123.437
 20
613.589
 11
-122.814
 21
613.51
  0
LINE
  8
0
 10
-122.814
 20
613.51
 11
122.814
 21
613.51
  0
LINE
  8
0
 10
122.814
 20
613.51
 11
123.437
 21
613.589
  0
LINE
  8
0
 10
-120.134
 20
768.869
 11
-120.4
 21
768.903
  0
LINE
  8
0
 10
-120.4
 20
768.903
 11
-120.66
 21
768.969
  0
LINE
  8
0
 10
-120.66
 20
768.969
 11
-120.909
 21
769.068
  0
LINE
  8
0
 10
-120.909
 20
769.068
 11
-121.144
 21
769.197
  0
LINE
  8
0
 10
-121.144
 20
769.197
 11
-121.361
 21
769.355
  0
LINE
  8
0
 10
-121.361
 20
769.355
 11
-121.557
 21
769.538
  0
LINE
  8
0
 10
-121.557
 20
769.538
 11
-121.727
 21
769.745
  0
LINE
  8
0
 10
-121.727
 20
769.745
 11
-121.871
 21
769.971
  0
LINE
  8
0
 10
-121.871
 20
769.971
 11
-121.985
 21
770.214
  0
LINE
  8
0
 10
-121.985
 20
770.214
 11
-122.068
 21
770.469
  0
LINE
  8
0
 10
-122.068
 20
770.469
 11
-122.118
 21
770.732
  0
LINE
  8
0
 10
-122.118
 20
770.732
 11
-122.135
 21
771
  0
LINE
  8
0
 10
-122.135
 20
771
 11
-122.118
 21
771.268
  0
LINE
  8
0
 10
-122.118
 20
771.268
 11
-122.068
 21
771.531
  0
LINE
  8
0
 10
-122.068
 20
771.531
 11
-121.985
 21
771.786
  0
LINE
  8
0
 10
-121.985
 20
771.786
 11
-121.871
 21
772.029
  0
LINE
  8
0
 10
-121.871
 20
772.029
 11
-121.727
 21
772.255
  0
LINE
  8
0
 10
-121.727
 20
772.255
 11
-121.557
 21
772.462
  0
LINE
  8
0
 10
-121.557
 20
772.462
 11
-121.361
 21
772.645
  0
LINE
  8
0
 10
-121.361
 20
772.645
 11
-121.144
 21
772.803
  0
LINE
  8
0
 10
-121.144
 20
772.803
 11
-120.909
 21
772.932
  0
LINE
  8
0
 10
-120.909
 20
772.932
 11
-120.66
 21
773.031
  0
LINE
  8
0
 10
-120.66
 20
773.031
 11
-120.4
 21
773.097
  0
LINE
  8
0
 10
-120.4
 20
773.097
 11
-120.134
 21
773.131
  0
LINE
  8
0
 10
-120.134
 20
773.131
 11
-119.866
 21
773.131
  0
LINE
  8
0
 10
-119.866
 20
773.131
 11
-119.6
 21
773.097
  0
LINE
  8
0
 10
-119.6
 20
773.097
 11
-119.34
 21
773.031
  0
LINE
  8
0
 10
-119.34
 20
773.031
 11
-119.091
 21
772.932
  0
LINE
  8
0
 10
-119.091
 20
772.932
 11
-118.856
 21
772.803
  0
LINE
  8
0
 10
-118.856
 20
772.803
 11
-118.639
 21
772.645
  0
LINE
  8
0
 10
-118.639
 20
772.645
 11
-118.443
 21
772.462
  0
LINE
  8
0
 10
-118.443
 20
772.462
 11
-118.273
 21
772.255
  0
LINE
  8
0
 10
-118.273
 20
772.255
 11
-118.129
 21
772.029
  0
LINE
  8
0
 10
-118.129
 20
772.029
 11
-118.015
 21
771.786
  0
LINE
  8
0
 10
-118.015
 20
771.786
 11
-117.932
 21
771.531
  0
LINE
  8
0
 10
-117.932
 20
771.531
 11
-117.882
 21
771.268
  0
LINE
  8
0
 10
-117.882
 20
771.268
 11
-117.865
 21
771
  0
LINE
  8
0
 10
-117.865
 20
771
 11
-117.882
 21
770.732
  0
LINE
  8
0
 10
-117.882
 20
770.732
 11
-117.932
 21
770.469
  0
LINE
  8
0
 10
-117.932
 20
770.469
 11
-118.015
 21
770.214
  0
LINE
  8
0
 10
-118.015
 20
770.214
 11
-118.129
 21
769.971
  0
LINE
  8
0
 10
-118.129
 20
769.971
 11
-118.273
 21
769.745
  0
LINE
  8
0
 10
-118.273
 20
769.745
 11
-118.443
 21
769.538
  0
LINE
  8
0
 10
-118.443
 20
769.538
 11
-118.639
 21
769.355
  0
LINE
  8
0
 10
-118.639
 20
769.355
 11
-118.856
 21
769.197
  0
LINE
  8
0
 10
-118.856
 20
769.197
 11
-119.091
 21
769.068
  0
LINE
  8
0
 10
-119.091
 20
769.068
 11
-119.34
 21
768.969
  0
LINE
  8
0
 10
-119.34
 20
768.969
 11
-119.6
 21
768.903
  0
LINE
  8
0
 10
-119.6
 20
768.903
 11
-119.866
 21
768.869
  0
LINE
  8
0
 10
-119.866
 20
768.869
 11
-120.134
 21
768.869
  0
LINE
  8
0
 10
119.866
 20
768.869
 11
119.6
 21
768.903
  0
LINE
  8
0
 10
119.6
 20
768.903
 11
119.34
 21
768.969
  0
LINE
  8
0
 10
119.34
 20
768.969
 11
119.091
 21
769.068
  0
LINE
  8
0
 10
119.091
 20
769.068
 11
118.856
 21
769.197
  0
LINE
  8
0
 10
118.856
 20
769.197
 11
118.639
 21
769.355
  0
LINE
  8
0
 10
118.639
 20
769.355
 11
118.443
 21
769.538
  0
LINE
  8
0
 10
118.443
 20
769.538
 11
118.273
 21
769.745
  0
LINE
  8
0
 10
118.273
 20
769.745
 11
118.129
 21
769.971
  0
LINE
  8
0
 10
118.129
 20
769.971
 11
118.015
 21
770.214
  0
LINE
  8
0
 10
118.015
 20
770.214
 11
117.932
 21
770.469
  0
LINE
  8
0
 10
117.932
 20
770.469
 11
117.882
 21
770.732
  0
LINE
  8
0
 10
117.882
 20
770.732
 11
117.865
 21
771
  0
LINE
  8
0
 10
117.865
 20
771
 11
117.882
 21
771.268
  0
LINE
  8
0
 10
117.882
 20
771.268
 11
117.932
 21
771.531
  0
LINE
  8
0
 10
117.932
 20
771.531
 11
118.015
 21
771.786
  0
LINE
  8
0
 10
118.015
 20
771.786
 11
118.129
 21
772.029
  0
LINE
  8
0
 10
118.129
 20
772.029
 11
118.273
 21
772.255
  0
LINE
  8
0
 10
118.273
 20
772.255
 11
118.443
 21
772.462
  0
LINE
  8
0
 10
118.443
 20
772.462
 11
118.639
 21
772.645
  0
LINE
  8
0
 10
118.639
 20
772.645
 11
118.856
 21
772.803
  0
LINE
  8
0
 10
118.856
 20
772.803
 11
119.091
 21
772.932
  0
LINE
  8
0
 10
119.091
 20
772.932
 11
119.34
 21
773.031
  0
LINE
  8
0
 10
119.34
 20
773.031
 11
119.6
 21
773.097
  0
LINE
  8
0
 10
119.6
 20
773.097
 11
119.866
 21
773.131
  0
LINE
  8
0
 10
119.866
 20
773.131
 11
120.134
 21
773.131
  0
LINE
  8
0
 10
120.134
 20
773.131
 11
120.4
 21
773.097
  0
LINE
  8
0
 10
120.4
 20
773.097
 11
120.66
 21
773.031
  0
LINE
  8
0
 10
120.66
 20
773.031
 11
120.909
 21
772.932
  0
LINE
  8
0
 10
120.909
 20
772.932
 11
121.144
 21
772.803
  0
LINE
  8
0
 10
121.144
 20
772.803
 11
121.361
 21
772.645
  0
LINE
  8
0
 10
121.361
 20
772.645
 11
121.557
 21
772.462
  0
LINE
  8
0
 10
121.557
 20
772.462
 11
121.727
 21
772.255
  0
LINE
  8
0
 10
121.727
 20
772.255
 11
121.871
 21
772.029
  0
LINE
  8
0
 10
121.871
 20
772.029
 11
121.985
 21
771.786
  0
LINE
  8
0
 10
121.985
 20
771.786
 11
122.068
 21
771.531
  0
LINE
  8
0
 10
122.068
 20
771.531
 11
122.118
 21
771.268
  0
LINE
  8
0
 10
122.118
 20
771.268
 11
122.135
 21
771
  0
LINE
  8
0
 10
122.135
 20
771
 11
122.118
 21
770.732
  0
LINE
  8
0
 10
122.118
 20
770.732
 11
122.068
 21
770.469
  0
LINE
  8
0
 10
122.068
 20
770.469
 11
121.985
 21
770.214
  0
LINE
  8
0
 10
121.985
 20
770.214
 11
121.871
 21
769.971
  0
LINE
  8
0
 10
121.871
 20
769.971
 11
121.727
 21
769.745
  0
LINE
  8
0
 10
121.727
 20
769.745
 11
121.557
 21
769.538
  0
LINE
  8
0
 10
121.557
 20
769.538
 11
121.361
 21
769.355
  0
LINE
  8
0
 10
121.361
 20
769.355
 11
121.144
 21
769.197
  0
LINE
  8
0
 10
121.144
 20
769.197
 11
120.909
 21
769.068
  0
LINE
  8
0
 10
120.909
 20
769.068
 11
120.66
 21
768.969
  0
LINE
  8
0
 10
120.66
 20
768.969
 11
120.4
 21
768.903
  0
LINE
  8
0
 10
120.4
 20
768.903
 11
120.134
 21
768.869
  0
LINE
  8
0
 10
120.134
 20
768.869
 11
119.866
 21
768.869
  0
LINE
  8
0
 10
-120.134
 20
618.869
 11
-120.4
 21
618.903
  0
LINE
  8
0
 10
-120.4
 20
618.903
 11
-120.66
 21
618.969
  0
LINE
  8
0
 10
-120.66
 20
618.969
 11
-120.909
 21
619.068
  0
LINE
  8
0
 10
-120.909
 20
619.068
 11
-121.144
 21
619.197
  0
LINE
  8
0
 10
-121.144
 20
619.197
 11
-121.361
 21
619.355
  0
LINE
  8
0
 10
-121.361
 20
619.355
 11
-121.557
 21
619.538
  0
LINE
  8
0
 10
-121.557
 20
619.538
 11
-121.727
 21
619.745
  0
LINE
  8
0
 10
-121.727
 20
619.745
 11
-121.871
 21
619.971
  0
LINE
  8
0
 10
-121.871
 20
619.971
 11
-121.985
 21
620.214
  0
LINE
  8
0
 10
-121.985
 20
620.214
 11
-122.068
 21
620.469
  0
LINE
  8
0
 10
-122.068
 20
620.469
 11
-122.118
 21
620.732
  0
LINE
  8
0
 10
-122.118
 20
620.732
 11
-122.135
 21
621
  0
LINE
  8
0
 10
-122.135
 20
621
 11
-122.118
 21
621.268
  0
LINE
  8
0
 10
-122.118
 20
621.268
 11
-122.068
 21
621.531
  0
LINE
  8
0
 10
-122.068
 20
621.531
 11
-121.985
 21
621.786
  0
LINE
  8
0
 10
-121.985
 20
621.786
 11
-121.871
 21
622.029
  0
LINE
  8
0
 10
-121.871
 20
622.029
 11
-121.727
 21
622.255
  0
LINE
  8
0
 10
-121.727
 20
622.255
 11
-121.557
 21
622.462
  0
LINE
  8
0
 10
-121.557
 20
622.462
 11
-121.361
 21
622.645
  0
LINE
  8
0
 10
-121.361
 20
622.645
 11
-121.144
 21
622.803
  0
LINE
  8
0
 10
-121.144
 20
622.803
 11
-120.909
 21
622.932
  0
LINE
  8
0
 10
-120.909
 20
622.932
 11
-120.66
 21
623.031
  0
LINE
  8
0
 10
-120.66
 20
623.031
 11
-120.4
 21
623.097
  0
LINE
  8
0
 10
-120.4
 20
623.097
 11
-120.134
 21
623.131
  0
LINE
  8
0
 10
-120.134
 20
623.131
 11
-119.866
 21
623.131
  0
LINE
  8
0
 10
-119.866
 20
623.131
 11
-119.6
 21
623.097
  0
LINE
  8
0
 10
-119.6
 20
623.097
 11
-119.34
 21
623.031
  0
LINE
  8
0
 10
-119.34
 20
623.031
 11
-119.091
 21
622.932
  0
LINE
  8
0
 10
-119.091
 20
622.932
 11
-118.856
 21
622.803
  0
LINE
  8
0
 10
-118.856
 20
622.803
 11
-118.639
 21
622.645
  0
LINE
  8
0
 10
-118.639
 20
622.645
 11
-118.443
 21
622.462
  0
LINE
  8
0
 10
-118.443
 20
622.462
 11
-118.273
 21
622.255
  0
LINE
  8
0
 10
-118.273
 20
622.255
 11
-118.129
 21
622.029
  0
LINE
  8
0
 10
-118.129
 20
622.029
 11
-118.015
 21
621.786
  0
LINE
  8
0
 10
-118.015
 20
621.786
 11
-117.932
 21
621.531
  0
LINE
  8
0
 10
-117.932
 20
621.531
 11
-117.882
 21
621.268
  0
LINE
  8
0
 10
-117.882
 20
621.268
 11
-117.865
 21
621
  0
LINE
  8
0
 10
-117.865
 20
621
 11
-117.882
 21
620.732
  0
LINE
  8
0
 10
-117.882
 20
620.732
 11
-117.932
 21
620.469
  0
LINE
  8
0
 10
-117.932
 20
620.469
 11
-118.015
 21
620.214
  0
LINE
  8
0
 10
-118.015
 20
620.214
 11
-118.129
 21
619.971
  0
LINE
  8
0
 10
-118.129
 20
619.971
 11
-118.273
 21
619.745
  0
LINE
  8
0
 10
-118.273
 20
619.745
 11
-118.443
 21
619.538
  0
LINE
  8
0
 10
-118.443
 20
619.538
 11
-118.639
 21
619.355
  0
LINE
  8
0
 10
-118.639
 20
619.355
 11
-118.856
 21
619.197
  0
LINE
  8
0
 10
-118.856
 20
619.197
 11
-119.091
 21
619.068
  0
LINE
  8
0
 10
-119.091
 20
619.068
 11
-119.34
 21
618.969
  0
LINE
  8
0
 10
-119.34
 20
618.969
 11
-119.6
 21
618.903
  0
LINE
  8
0
 10
-119.6
 20
618.903
 11
-119.866
 21
618.869
  0
LINE
  8
0
 10
-119.866
 20
618.869
 11
-120.134
 21
618.869
  0
LINE
  8
0
 10
119.866
 20
618.869
 11
119.6
 21
618.903
  0
LINE
  8
0
 10
119.6
 20
618.903
 11
119.34
 21
618.969
  0
LINE
  8
0
 10
119.34
 20
618.969
 11
119.091
 21
619.068
  0
LINE
  8
0
 10
119.091
 20
619.068
 11
118.856
 21
619.197
  0
LINE
  8
0
 10
118.856
 20
619.197
 11
118.639
 21
619.355
  0
LINE
  8
0
 10
118.639
 20
619.355
 11
118.443
 21
619.538
  0
LINE
  8
0
 10
118.443
 20
619.538
 11
118.273
 21
619.745
  0
LINE
  8
0
 10
118.273
 20
619.745
 11
118.129
 21
619.971
  0
LINE
  8
0
 10
118.129
 20
619.971
 11
118.015
 21
620.214
  0
LINE
  8
0
 10
118.015
 20
620.214
 11
117.932
 21
620.469
  0
LINE
  8
0
 10
117.932
 20
620.469
 11
117.882
 21
620.732
  0
LINE
  8
0
 10
117.882
 20
620.732
 11
117.865
 21
621
  0
LINE
  8
0
 10
117.865
 20
621
 11
117.882
 21
621.268
  0
LINE
  8
0
 10
117.882
 20
621.268
 11
117.932
 21
621.531
  0
LINE
  8
0
 10
117.932
 20
621.531
 11
118.015
 21
621.786
  0
LINE
  8
0
 10
118.015
 20
621.786
 11
118.129
 21
622.029
  0
LINE
  8
0
 10
118.129
 20
622.029
 11
118.273
 21
622.255
  0
LINE
  8
0
 10
118.273
 20
622.255
 11
118.443
 21
622.462
  0
LINE
  8
0
 10
118.443
 20
622.462
 11
118.639
 21
622.645
  0
LINE
  8
0
 10
118.639
 20
622.645
 11
118.856
 21
622.803
  0
LINE
  8
0
 10
118.856
 20
622.803
 11
119.091
 21
622.932
  0
LINE
  8
0
 10
119.091
 20
622.932
 11
119.34
 21
623.031
  0
LINE
  8
0
 10
119.34
 20
623.031
 11
119.6
 21
623.097
  0
LINE
  8
0
 10
119.6
 20
623.097
 11
119.866
 21
623.131
  0
LINE
  8
0
 10
119.866
 20
623.131
 11
120.134
 21
623.131
  0
LINE
  8
0
 10
120.134
 20
623.131
 11
120.4
 21
623.097
  0
LINE
  8
0
 10
120.4
 20
623.097
 11
120.66
 21
623.031
  0
LINE
  8
0
 10
120.66
 20
623.031
 11
120.909
 21
622.932
  0
LINE
  8
0
 10
120.909
 20
622.932
 11
121.144
 21
622.803
  0
LINE
  8
0
 10
121.144
 20
622.803
 11
121.361
 21
622.645
  0
LINE
  8
0
 10
121.361
 20
622.645
 11
121.557
 21
622.462
  0
LINE
  8
0
 10
121.557
 20
622.462
 11
121.727
 21
622.255
  0
LINE
  8
0
 10
121.727
 20
622.255
 11
121.871
 21
622.029
  0
LINE
  8
0
 10
121.871
 20
622.029
 11
121.985
 21
621.786
  0
LINE
  8
0
 10
121.985
 20
621.786
 11
122.068
 21
621.531
  0
LINE
  8
0
 10
122.068
 20
621.531
 11
122.118
 21
621.268
  0
LINE
  8
0
 10
122.118
 20
621.268
 11
122.135
 21
621
  0
LINE
  8
0
 10
122.135
 20
621
 11
122.118
 21
620.732
  0
LINE
  8
0
 10
122.118
 20
620.732
 11
122.068
 21
620.469
  0
LINE
  8
0
 10
122.068
 20
620.469
 11
121.985
 21
620.214
  0
LINE
  8
0
 10
121.985
 20
620.214
 11
121.871
 21
619.971
  0
LINE
  8
0
 10
121.871
 20
619.971
 11
121.727
 21
619.745
  0
LINE
  8
0
 10
121.727
 20
619.745
 11
121.557
 21
619.538
  0
LINE
  8
0
 10
121.557
 20
619.538
 11
121.361
 21
619.355
  0
LINE
  8
0
 10
121.361
 20
619.355
 11
121.144
 21
619.197
  0
LINE
  8
0
 10
121.144
 20
619.197
 11
120.909
 21
619.068
  0
LINE
  8
0
 10
120.909
 20
619.068
 11
120.66
 21
618.969
  0
LINE
  8
0
 10
120.66
 20
618.969
 11
120.4
 21
618.903
  0
LINE
  8
0
 10
120.4
 20
618.903
 11
120.134
 21
618.869
  0
LINE
  8
0
 10
120.134
 20
618.869
 11
119.866
 21
618.869
  0
ENDSEC
  0
SECTION
  2
OBJECTS
  0
DICTIONARY
  0
ENDSEC
  0
EOF
