  0
SECTION
  2
BLOCKS
  0
ENDSEC
  0
SECTION
  2
ENTITIES
  0
LINE
  8
0
 10
123.437
 20
355.589
 11
124.045
 21
355.745
  0
LINE
  8
0
 10
124.045
 20
355.745
 11
124.629
 21
355.976
  0
LINE
  8
0
 10
124.629
 20
355.976
 11
125.179
 21
356.278
  0
LINE
  8
0
 10
125.179
 20
356.278
 11
125.687
 21
356.647
  0
LINE
  8
0
 10
125.687
 20
356.647
 11
126.145
 21
357.077
  0
LINE
  8
0
 10
126.145
 20
357.077
 11
126.545
 21
357.561
  0
LINE
  8
0
 10
126.545
 20
357.561
 11
126.882
 21
358.091
  0
LINE
  8
0
 10
126.882
 20
358.091
 11
127.149
 21
358.659
  0
LINE
  8
0
 10
127.149
 20
358.659
 11
127.343
 21
359.257
  0
LINE
  8
0
 10
127.343
 20
359.257
 11
127.461
 21
359.873
  0
LINE
  8
0
 10
127.461
 20
359.873
 11
127.5
 21
360.5
  0
LINE
  8
0
 10
127.5
 20
360.5
 11
127.5
 21
575.5
  0
LINE
  8
0
 10
127.5
 20
575.5
 11
127.461
 21
576.127
  0
LINE
  8
0
 10
127.461
 20
576.127
 11
127.343
 21
576.743
  0
LINE
  8
0
 10
127.343
 20
576.743
 11
127.149
 21
577.341
  0
LINE
  8
0
 10
127.149
 20
577.341
 11
126.882
 21
577.909
  0
LINE
  8
0
 10
126.882
 20
577.909
 11
126.545
 21
578.439
  0
LINE
  8
0
 10
126.545
 20
578.439
 11
126.145
 21
578.923
  0
LINE
  8
0
 10
126.145
 20
578.923
 11
125.687
 21
579.353
  0
LINE
  8
0
 10
125.687
 20
579.353
 11
125.179
 21
579.722
  0
LINE
  8
0
 10
125.179
 20
579.722
 11
124.629
 21
580.024
  0
LINE
  8
0
 10
124.629
 20
580.024
 11
124.045
 21
580.255
  0
LINE
  8
0
 10
124.045
 20
580.255
 11
123.437
 21
580.411
  0
LINE
  8
0
 10
123.437
 20
580.411
 11
122.814
 21
580.49
  0
LINE
  8
0
 10
122.814
 20
580.49
 11
-122.814
 21
580.49
  0
LINE
  8
0
 10
-122.814
 20
580.49
 11
-123.437
 21
580.411
  0
LINE
  8
0
 10
-123.437
 20
580.411
 11
-124.045
 21
580.255
  0
LINE
  8
0
 10
-124.045
 20
580.255
 11
-124.629
 21
580.024
  0
LINE
  8
0
 10
-124.629
 20
580.024
 11
-125.179
 21
579.722
  0
LINE
  8
0
 10
-125.179
 20
579.722
 11
-125.687
 21
579.353
  0
LINE
  8
0
 10
-125.687
 20
579.353
 11
-126
 21
579.059
  0
LINE
  8
0
 10
-126
 20
579.059
 11
-126
 21
580.115
  0
LINE
  8
0
 10
-126
 20
580.115
 11
-129
 21
580.115
  0
LINE
  8
0
 10
-129
 20
580.115
 11
-129
 21
355.885
  0
LINE
  8
0
 10
-129
 20
355.885
 11
-126
 21
355.885
  0
LINE
  8
0
 10
-126
 20
355.885
 11
-126
 21
356.941
  0
LINE
  8
0
 10
-126
 20
356.941
 11
-125.687
 21
356.647
  0
LINE
  8
0
 10
-125.687
 20
356.647
 11
-125.179
 21
356.278
  0
LINE
  8
0
 10
-125.179
 20
356.278
 11
-124.629
 21
355.976
  0
LINE
  8
0
 10
-124.629
 20
355.976
 11
-124.045
 21
355.745
  0
LINE
  8
0
 10
-124.045
 20
355.745
 11
-123.437
 21
355.589
  0
LINE
  8
0
 10
-123.437
 20
355.589
 11
-122.814
 21
355.51
  0
LINE
  8
0
 10
-122.814
 20
355.51
 11
122.814
 21
355.51
  0
LINE
  8
0
 10
122.814
 20
355.51
 11
123.437
 21
355.589
  0
LINE
  8
0
 10
119.849
 20
570.605
 11
119.55
 21
570.643
  0
LINE
  8
0
 10
119.55
 20
570.643
 11
119.258
 21
570.717
  0
LINE
  8
0
 10
119.258
 20
570.717
 11
118.978
 21
570.828
  0
LINE
  8
0
 10
118.978
 20
570.828
 11
118.714
 21
570.974
  0
LINE
  8
0
 10
118.714
 20
570.974
 11
118.47
 21
571.151
  0
LINE
  8
0
 10
118.47
 20
571.151
 11
118.25
 21
571.357
  0
LINE
  8
0
 10
118.25
 20
571.357
 11
118.058
 21
571.589
  0
LINE
  8
0
 10
118.058
 20
571.589
 11
117.897
 21
571.844
  0
LINE
  8
0
 10
117.897
 20
571.844
 11
117.769
 21
572.117
  0
LINE
  8
0
 10
117.769
 20
572.117
 11
117.675
 21
572.403
  0
LINE
  8
0
 10
117.675
 20
572.403
 11
117.619
 21
572.699
  0
LINE
  8
0
 10
117.619
 20
572.699
 11
117.6
 21
573
  0
LINE
  8
0
 10
117.6
 20
573
 11
117.619
 21
573.301
  0
LINE
  8
0
 10
117.619
 20
573.301
 11
117.675
 21
573.597
  0
LINE
  8
0
 10
117.675
 20
573.597
 11
117.769
 21
573.883
  0
LINE
  8
0
 10
117.769
 20
573.883
 11
117.897
 21
574.156
  0
LINE
  8
0
 10
117.897
 20
574.156
 11
118.058
 21
574.411
  0
LINE
  8
0
 10
118.058
 20
574.411
 11
118.25
 21
574.643
  0
LINE
  8
0
 10
118.25
 20
574.643
 11
118.47
 21
574.849
  0
LINE
  8
0
 10
118.47
 20
574.849
 11
118.714
 21
575.026
  0
LINE
  8
0
 10
118.714
 20
575.026
 11
118.978
 21
575.172
  0
LINE
  8
0
 10
118.978
 20
575.172
 11
119.258
 21
575.283
  0
LINE
  8
0
 10
119.258
 20
575.283
 11
119.55
 21
575.357
  0
LINE
  8
0
 10
119.55
 20
575.357
 11
119.849
 21
575.395
  0
LINE
  8
0
 10
119.849
 20
575.395
 11
120.151
 21
575.395
  0
LINE
  8
0
 10
120.151
 20
575.395
 11
120.45
 21
575.357
  0
LINE
  8
0
 10
120.45
 20
575.357
 11
120.742
 21
575.283
  0
LINE
  8
0
 10
120.742
 20
575.283
 11
121.022
 21
575.172
  0
LINE
  8
0
 10
121.022
 20
575.172
 11
121.286
 21
575.026
  0
LINE
  8
0
 10
121.286
 20
575.026
 11
121.53
 21
574.849
  0
LINE
  8
0
 10
121.53
 20
574.849
 11
121.75
 21
574.643
  0
LINE
  8
0
 10
121.75
 20
574.643
 11
121.942
 21
574.411
  0
LINE
  8
0
 10
121.942
 20
574.411
 11
122.103
 21
574.156
  0
LINE
  8
0
 10
122.103
 20
574.156
 11
122.231
 21
573.883
  0
LINE
  8
0
 10
122.231
 20
573.883
 11
122.325
 21
573.597
  0
LINE
  8
0
 10
122.325
 20
573.597
 11
122.381
 21
573.301
  0
LINE
  8
0
 10
122.381
 20
573.301
 11
122.4
 21
573
  0
LINE
  8
0
 10
122.4
 20
573
 11
122.381
 21
572.699
  0
LINE
  8
0
 10
122.381
 20
572.699
 11
122.325
 21
572.403
  0
LINE
  8
0
 10
122.325
 20
572.403
 11
122.231
 21
572.117
  0
LINE
  8
0
 10
122.231
 20
572.117
 11
122.103
 21
571.844
  0
LINE
  8
0
 10
122.103
 20
571.844
 11
121.942
 21
571.589
  0
LINE
  8
0
 10
121.942
 20
571.589
 11
121.75
 21
571.357
  0
LINE
  8
0
 10
121.75
 20
571.357
 11
121.53
 21
571.151
  0
LINE
  8
0
 10
121.53
 20
571.151
 11
121.286
 21
570.974
  0
LINE
  8
0
 10
121.286
 20
570.974
 11
121.022
 21
570.828
  0
LINE
  8
0
 10
121.022
 20
570.828
 11
120.742
 21
570.717
  0
LINE
  8
0
 10
120.742
 20
570.717
 11
120.45
 21
570.643
  0
LINE
  8
0
 10
120.45
 20
570.643
 11
120.151
 21
570.605
  0
LINE
  8
0
 10
120.151
 20
570.605
 11
119.849
 21
570.605
  0
LINE
  8
0
 10
-120.151
 20
570.605
 11
-120.45
 21
570.643
  0
LINE
  8
0
 10
-120.45
 20
570.643
 11
-120.742
 21
570.717
  0
LINE
  8
0
 10
-120.742
 20
570.717
 11
-121.022
 21
570.828
  0
LINE
  8
0
 10
-121.022
 20
570.828
 11
-121.286
 21
570.974
  0
LINE
  8
0
 10
-121.286
 20
570.974
 11
-121.53
 21
571.151
  0
LINE
  8
0
 10
-121.53
 20
571.151
 11
-121.75
 21
571.357
  0
LINE
  8
0
 10
-121.75
 20
571.357
 11
-121.942
 21
571.589
  0
LINE
  8
0
 10
-121.942
 20
571.589
 11
-122.103
 21
571.844
  0
LINE
  8
0
 10
-122.103
 20
571.844
 11
-122.231
 21
572.117
  0
LINE
  8
0
 10
-122.231
 20
572.117
 11
-122.325
 21
572.403
  0
LINE
  8
0
 10
-122.325
 20
572.403
 11
-122.381
 21
572.699
  0
LINE
  8
0
 10
-122.381
 20
572.699
 11
-122.4
 21
573
  0
LINE
  8
0
 10
-122.4
 20
573
 11
-122.381
 21
573.301
  0
LINE
  8
0
 10
-122.381
 20
573.301
 11
-122.325
 21
573.597
  0
LINE
  8
0
 10
-122.325
 20
573.597
 11
-122.231
 21
573.883
  0
LINE
  8
0
 10
-122.231
 20
573.883
 11
-122.103
 21
574.156
  0
LINE
  8
0
 10
-122.103
 20
574.156
 11
-121.942
 21
574.411
  0
LINE
  8
0
 10
-121.942
 20
574.411
 11
-121.75
 21
574.643
  0
LINE
  8
0
 10
-121.75
 20
574.643
 11
-121.53
 21
574.849
  0
LINE
  8
0
 10
-121.53
 20
574.849
 11
-121.286
 21
575.026
  0
LINE
  8
0
 10
-121.286
 20
575.026
 11
-121.022
 21
575.172
  0
LINE
  8
0
 10
-121.022
 20
575.172
 11
-120.742
 21
575.283
  0
LINE
  8
0
 10
-120.742
 20
575.283
 11
-120.45
 21
575.357
  0
LINE
  8
0
 10
-120.45
 20
575.357
 11
-120.151
 21
575.395
  0
LINE
  8
0
 10
-120.151
 20
575.395
 11
-119.849
 21
575.395
  0
LINE
  8
0
 10
-119.849
 20
575.395
 11
-119.55
 21
575.357
  0
LINE
  8
0
 10
-119.55
 20
575.357
 11
-119.258
 21
575.283
  0
LINE
  8
0
 10
-119.258
 20
575.283
 11
-118.978
 21
575.172
  0
LINE
  8
0
 10
-118.978
 20
575.172
 11
-118.714
 21
575.026
  0
LINE
  8
0
 10
-118.714
 20
575.026
 11
-118.47
 21
574.849
  0
LINE
  8
0
 10
-118.47
 20
574.849
 11
-118.25
 21
574.643
  0
LINE
  8
0
 10
-118.25
 20
574.643
 11
-118.058
 21
574.411
  0
LINE
  8
0
 10
-118.058
 20
574.411
 11
-117.897
 21
574.156
  0
LINE
  8
0
 10
-117.897
 20
574.156
 11
-117.769
 21
573.883
  0
LINE
  8
0
 10
-117.769
 20
573.883
 11
-117.675
 21
573.597
  0
LINE
  8
0
 10
-117.675
 20
573.597
 11
-117.619
 21
573.301
  0
LINE
  8
0
 10
-117.619
 20
573.301
 11
-117.6
 21
573
  0
LINE
  8
0
 10
-117.6
 20
573
 11
-117.619
 21
572.699
  0
LINE
  8
0
 10
-117.619
 20
572.699
 11
-117.675
 21
572.403
  0
LINE
  8
0
 10
-117.675
 20
572.403
 11
-117.769
 21
572.117
  0
LINE
  8
0
 10
-117.769
 20
572.117
 11
-117.897
 21
571.844
  0
LINE
  8
0
 10
-117.897
 20
571.844
 11
-118.058
 21
571.589
  0
LINE
  8
0
 10
-118.058
 20
571.589
 11
-118.25
 21
571.357
  0
LINE
  8
0
 10
-118.25
 20
571.357
 11
-118.47
 21
571.151
  0
LINE
  8
0
 10
-118.47
 20
571.151
 11
-118.714
 21
570.974
  0
LINE
  8
0
 10
-118.714
 20
570.974
 11
-118.978
 21
570.828
  0
LINE
  8
0
 10
-118.978
 20
570.828
 11
-119.258
 21
570.717
  0
LINE
  8
0
 10
-119.258
 20
570.717
 11
-119.55
 21
570.643
  0
LINE
  8
0
 10
-119.55
 20
570.643
 11
-119.849
 21
570.605
  0
LINE
  8
0
 10
-119.849
 20
570.605
 11
-120.151
 21
570.605
  0
LINE
  8
0
 10
119.849
 20
360.605
 11
119.55
 21
360.643
  0
LINE
  8
0
 10
119.55
 20
360.643
 11
119.258
 21
360.717
  0
LINE
  8
0
 10
119.258
 20
360.717
 11
118.978
 21
360.828
  0
LINE
  8
0
 10
118.978
 20
360.828
 11
118.714
 21
360.974
  0
LINE
  8
0
 10
118.714
 20
360.974
 11
118.47
 21
361.151
  0
LINE
  8
0
 10
118.47
 20
361.151
 11
118.25
 21
361.357
  0
LINE
  8
0
 10
118.25
 20
361.357
 11
118.058
 21
361.589
  0
LINE
  8
0
 10
118.058
 20
361.589
 11
117.897
 21
361.844
  0
LINE
  8
0
 10
117.897
 20
361.844
 11
117.769
 21
362.117
  0
LINE
  8
0
 10
117.769
 20
362.117
 11
117.675
 21
362.403
  0
LINE
  8
0
 10
117.675
 20
362.403
 11
117.619
 21
362.699
  0
LINE
  8
0
 10
117.619
 20
362.699
 11
117.6
 21
363
  0
LINE
  8
0
 10
117.6
 20
363
 11
117.619
 21
363.301
  0
LINE
  8
0
 10
117.619
 20
363.301
 11
117.675
 21
363.597
  0
LINE
  8
0
 10
117.675
 20
363.597
 11
117.769
 21
363.883
  0
LINE
  8
0
 10
117.769
 20
363.883
 11
117.897
 21
364.156
  0
LINE
  8
0
 10
117.897
 20
364.156
 11
118.058
 21
364.411
  0
LINE
  8
0
 10
118.058
 20
364.411
 11
118.25
 21
364.643
  0
LINE
  8
0
 10
118.25
 20
364.643
 11
118.47
 21
364.849
  0
LINE
  8
0
 10
118.47
 20
364.849
 11
118.714
 21
365.026
  0
LINE
  8
0
 10
118.714
 20
365.026
 11
118.978
 21
365.172
  0
LINE
  8
0
 10
118.978
 20
365.172
 11
119.258
 21
365.283
  0
LINE
  8
0
 10
119.258
 20
365.283
 11
119.55
 21
365.357
  0
LINE
  8
0
 10
119.55
 20
365.357
 11
119.849
 21
365.395
  0
LINE
  8
0
 10
119.849
 20
365.395
 11
120.151
 21
365.395
  0
LINE
  8
0
 10
120.151
 20
365.395
 11
120.45
 21
365.357
  0
LINE
  8
0
 10
120.45
 20
365.357
 11
120.742
 21
365.283
  0
LINE
  8
0
 10
120.742
 20
365.283
 11
121.022
 21
365.172
  0
LINE
  8
0
 10
121.022
 20
365.172
 11
121.286
 21
365.026
  0
LINE
  8
0
 10
121.286
 20
365.026
 11
121.53
 21
364.849
  0
LINE
  8
0
 10
121.53
 20
364.849
 11
121.75
 21
364.643
  0
LINE
  8
0
 10
121.75
 20
364.643
 11
121.942
 21
364.411
  0
LINE
  8
0
 10
121.942
 20
364.411
 11
122.103
 21
364.156
  0
LINE
  8
0
 10
122.103
 20
364.156
 11
122.231
 21
363.883
  0
LINE
  8
0
 10
122.231
 20
363.883
 11
122.325
 21
363.597
  0
LINE
  8
0
 10
122.325
 20
363.597
 11
122.381
 21
363.301
  0
LINE
  8
0
 10
122.381
 20
363.301
 11
122.4
 21
363
  0
LINE
  8
0
 10
122.4
 20
363
 11
122.381
 21
362.699
  0
LINE
  8
0
 10
122.381
 20
362.699
 11
122.325
 21
362.403
  0
LINE
  8
0
 10
122.325
 20
362.403
 11
122.231
 21
362.117
  0
LINE
  8
0
 10
122.231
 20
362.117
 11
122.103
 21
361.844
  0
LINE
  8
0
 10
122.103
 20
361.844
 11
121.942
 21
361.589
  0
LINE
  8
0
 10
121.942
 20
361.589
 11
121.75
 21
361.357
  0
LINE
  8
0
 10
121.75
 20
361.357
 11
121.53
 21
361.151
  0
LINE
  8
0
 10
121.53
 20
361.151
 11
121.286
 21
360.974
  0
LINE
  8
0
 10
121.286
 20
360.974
 11
121.022
 21
360.828
  0
LINE
  8
0
 10
121.022
 20
360.828
 11
120.742
 21
360.717
  0
LINE
  8
0
 10
120.742
 20
360.717
 11
120.45
 21
360.643
  0
LINE
  8
0
 10
120.45
 20
360.643
 11
120.151
 21
360.605
  0
LINE
  8
0
 10
120.151
 20
360.605
 11
119.849
 21
360.605
  0
LINE
  8
0
 10
-120.151
 20
360.605
 11
-120.45
 21
360.643
  0
LINE
  8
0
 10
-120.45
 20
360.643
 11
-120.742
 21
360.717
  0
LINE
  8
0
 10
-120.742
 20
360.717
 11
-121.022
 21
360.828
  0
LINE
  8
0
 10
-121.022
 20
360.828
 11
-121.286
 21
360.974
  0
LINE
  8
0
 10
-121.286
 20
360.974
 11
-121.53
 21
361.151
  0
LINE
  8
0
 10
-121.53
 20
361.151
 11
-121.75
 21
361.357
  0
LINE
  8
0
 10
-121.75
 20
361.357
 11
-121.942
 21
361.589
  0
LINE
  8
0
 10
-121.942
 20
361.589
 11
-122.103
 21
361.844
  0
LINE
  8
0
 10
-122.103
 20
361.844
 11
-122.231
 21
362.117
  0
LINE
  8
0
 10
-122.231
 20
362.117
 11
-122.325
 21
362.403
  0
LINE
  8
0
 10
-122.325
 20
362.403
 11
-122.381
 21
362.699
  0
LINE
  8
0
 10
-122.381
 20
362.699
 11
-122.4
 21
363
  0
LINE
  8
0
 10
-122.4
 20
363
 11
-122.381
 21
363.301
  0
LINE
  8
0
 10
-122.381
 20
363.301
 11
-122.325
 21
363.597
  0
LINE
  8
0
 10
-122.325
 20
363.597
 11
-122.231
 21
363.883
  0
LINE
  8
0
 10
-122.231
 20
363.883
 11
-122.103
 21
364.156
  0
LINE
  8
0
 10
-122.103
 20
364.156
 11
-121.942
 21
364.411
  0
LINE
  8
0
 10
-121.942
 20
364.411
 11
-121.75
 21
364.643
  0
LINE
  8
0
 10
-121.75
 20
364.643
 11
-121.53
 21
364.849
  0
LINE
  8
0
 10
-121.53
 20
364.849
 11
-121.286
 21
365.026
  0
LINE
  8
0
 10
-121.286
 20
365.026
 11
-121.022
 21
365.172
  0
LINE
  8
0
 10
-121.022
 20
365.172
 11
-120.742
 21
365.283
  0
LINE
  8
0
 10
-120.742
 20
365.283
 11
-120.45
 21
365.357
  0
LINE
  8
0
 10
-120.45
 20
365.357
 11
-120.151
 21
365.395
  0
LINE
  8
0
 10
-120.151
 20
365.395
 11
-119.849
 21
365.395
  0
LINE
  8
0
 10
-119.849
 20
365.395
 11
-119.55
 21
365.357
  0
LINE
  8
0
 10
-119.55
 20
365.357
 11
-119.258
 21
365.283
  0
LINE
  8
0
 10
-119.258
 20
365.283
 11
-118.978
 21
365.172
  0
LINE
  8
0
 10
-118.978
 20
365.172
 11
-118.714
 21
365.026
  0
LINE
  8
0
 10
-118.714
 20
365.026
 11
-118.47
 21
364.849
  0
LINE
  8
0
 10
-118.47
 20
364.849
 11
-118.25
 21
364.643
  0
LINE
  8
0
 10
-118.25
 20
364.643
 11
-118.058
 21
364.411
  0
LINE
  8
0
 10
-118.058
 20
364.411
 11
-117.897
 21
364.156
  0
LINE
  8
0
 10
-117.897
 20
364.156
 11
-117.769
 21
363.883
  0
LINE
  8
0
 10
-117.769
 20
363.883
 11
-117.675
 21
363.597
  0
LINE
  8
0
 10
-117.675
 20
363.597
 11
-117.619
 21
363.301
  0
LINE
  8
0
 10
-117.619
 20
363.301
 11
-117.6
 21
363
  0
LINE
  8
0
 10
-117.6
 20
363
 11
-117.619
 21
362.699
  0
LINE
  8
0
 10
-117.619
 20
362.699
 11
-117.675
 21
362.403
  0
LINE
  8
0
 10
-117.675
 20
362.403
 11
-117.769
 21
362.117
  0
LINE
  8
0
 10
-117.769
 20
362.117
 11
-117.897
 21
361.844
  0
LINE
  8
0
 10
-117.897
 20
361.844
 11
-118.058
 21
361.589
  0
LINE
  8
0
 10
-118.058
 20
361.589
 11
-118.25
 21
361.357
  0
LINE
  8
0
 10
-118.25
 20
361.357
 11
-118.47
 21
361.151
  0
LINE
  8
0
 10
-118.47
 20
361.151
 11
-118.714
 21
360.974
  0
LINE
  8
0
 10
-118.714
 20
360.974
 11
-118.978
 21
360.828
  0
LINE
  8
0
 10
-118.978
 20
360.828
 11
-119.258
 21
360.717
  0
LINE
  8
0
 10
-119.258
 20
360.717
 11
-119.55
 21
360.643
  0
LINE
  8
0
 10
-119.55
 20
360.643
 11
-119.849
 21
360.605
  0
LINE
  8
0
 10
-119.849
 20
360.605
 11
-120.151
 21
360.605
  0
LINE
  8
0
 10
123.437
 20
121.589
 11
124.045
 21
121.745
  0
LINE
  8
0
 10
124.045
 20
121.745
 11
124.629
 21
121.976
  0
LINE
  8
0
 10
124.629
 20
121.976
 11
125.179
 21
122.278
  0
LINE
  8
0
 10
125.179
 20
122.278
 11
125.687
 21
122.647
  0
LINE
  8
0
 10
125.687
 20
122.647
 11
126.145
 21
123.077
  0
LINE
  8
0
 10
126.145
 20
123.077
 11
126.545
 21
123.561
  0
LINE
  8
0
 10
126.545
 20
123.561
 11
126.882
 21
124.091
  0
LINE
  8
0
 10
126.882
 20
124.091
 11
127.149
 21
124.659
  0
LINE
  8
0
 10
127.149
 20
124.659
 11
127.343
 21
125.257
  0
LINE
  8
0
 10
127.343
 20
125.257
 11
127.461
 21
125.873
  0
LINE
  8
0
 10
127.461
 20
125.873
 11
127.5
 21
126.5
  0
LINE
  8
0
 10
127.5
 20
126.5
 11
127.5
 21
341.5
  0
LINE
  8
0
 10
127.5
 20
341.5
 11
127.461
 21
342.127
  0
LINE
  8
0
 10
127.461
 20
342.127
 11
127.343
 21
342.743
  0
LINE
  8
0
 10
127.343
 20
342.743
 11
127.149
 21
343.341
  0
LINE
  8
0
 10
127.149
 20
343.341
 11
126.882
 21
343.909
  0
LINE
  8
0
 10
126.882
 20
343.909
 11
126.545
 21
344.439
  0
LINE
  8
0
 10
126.545
 20
344.439
 11
126.145
 21
344.923
  0
LINE
  8
0
 10
126.145
 20
344.923
 11
125.687
 21
345.353
  0
LINE
  8
0
 10
125.687
 20
345.353
 11
125.179
 21
345.722
  0
LINE
  8
0
 10
125.179
 20
345.722
 11
124.629
 21
346.024
  0
LINE
  8
0
 10
124.629
 20
346.024
 11
124.045
 21
346.255
  0
LINE
  8
0
 10
124.045
 20
346.255
 11
123.437
 21
346.411
  0
LINE
  8
0
 10
123.437
 20
346.411
 11
122.814
 21
346.49
  0
LINE
  8
0
 10
122.814
 20
346.49
 11
-122.814
 21
346.49
  0
LINE
  8
0
 10
-122.814
 20
346.49
 11
-123.437
 21
346.411
  0
LINE
  8
0
 10
-123.437
 20
346.411
 11
-124.045
 21
346.255
  0
LINE
  8
0
 10
-124.045
 20
346.255
 11
-124.629
 21
346.024
  0
LINE
  8
0
 10
-124.629
 20
346.024
 11
-125.179
 21
345.722
  0
LINE
  8
0
 10
-125.179
 20
345.722
 11
-125.687
 21
345.353
  0
LINE
  8
0
 10
-125.687
 20
345.353
 11
-126.145
 21
344.923
  0
LINE
  8
0
 10
-126.145
 20
344.923
 11
-126.545
 21
344.439
  0
LINE
  8
0
 10
-126.545
 20
344.439
 11
-126.882
 21
343.909
  0
LINE
  8
0
 10
-126.882
 20
343.909
 11
-127.149
 21
343.341
  0
LINE
  8
0
 10
-127.149
 20
343.341
 11
-127.343
 21
342.743
  0
LINE
  8
0
 10
-127.343
 20
342.743
 11
-127.4
 21
342.444
  0
LINE
  8
0
 10
-127.4
 20
342.444
 11
-129
 21
342.444
  0
LINE
  8
0
 10
-129
 20
342.444
 11
-129
 21
125.556
  0
LINE
  8
0
 10
-129
 20
125.556
 11
-127.4
 21
125.556
  0
LINE
  8
0
 10
-127.4
 20
125.556
 11
-127.343
 21
125.257
  0
LINE
  8
0
 10
-127.343
 20
125.257
 11
-127.149
 21
124.659
  0
LINE
  8
0
 10
-127.149
 20
124.659
 11
-126.882
 21
124.091
  0
LINE
  8
0
 10
-126.882
 20
124.091
 11
-126.545
 21
123.561
  0
LINE
  8
0
 10
-126.545
 20
123.561
 11
-126.145
 21
123.077
  0
LINE
  8
0
 10
-126.145
 20
123.077
 11
-125.687
 21
122.647
  0
LINE
  8
0
 10
-125.687
 20
122.647
 11
-125.179
 21
122.278
  0
LINE
  8
0
 10
-125.179
 20
122.278
 11
-124.629
 21
121.976
  0
LINE
  8
0
 10
-124.629
 20
121.976
 11
-124.045
 21
121.745
  0
LINE
  8
0
 10
-124.045
 20
121.745
 11
-123.437
 21
121.589
  0
LINE
  8
0
 10
-123.437
 20
121.589
 11
-122.814
 21
121.51
  0
LINE
  8
0
 10
-122.814
 20
121.51
 11
122.814
 21
121.51
  0
LINE
  8
0
 10
122.814
 20
121.51
 11
123.437
 21
121.589
  0
LINE
  8
0
 10
-120.113
 20
337.204
 11
-120.337
 21
337.232
  0
LINE
  8
0
 10
-120.337
 20
337.232
 11
-120.556
 21
337.288
  0
LINE
  8
0
 10
-120.556
 20
337.288
 11
-120.766
 21
337.371
  0
LINE
  8
0
 10
-120.766
 20
337.371
 11
-120.964
 21
337.48
  0
LINE
  8
0
 10
-120.964
 20
337.48
 11
-121.147
 21
337.613
  0
LINE
  8
0
 10
-121.147
 20
337.613
 11
-121.312
 21
337.768
  0
LINE
  8
0
 10
-121.312
 20
337.768
 11
-121.456
 21
337.942
  0
LINE
  8
0
 10
-121.456
 20
337.942
 11
-121.577
 21
338.133
  0
LINE
  8
0
 10
-121.577
 20
338.133
 11
-121.674
 21
338.337
  0
LINE
  8
0
 10
-121.674
 20
338.337
 11
-121.743
 21
338.552
  0
LINE
  8
0
 10
-121.743
 20
338.552
 11
-121.786
 21
338.774
  0
LINE
  8
0
 10
-121.786
 20
338.774
 11
-121.8
 21
339
  0
LINE
  8
0
 10
-121.8
 20
339
 11
-121.786
 21
339.226
  0
LINE
  8
0
 10
-121.786
 20
339.226
 11
-121.743
 21
339.448
  0
LINE
  8
0
 10
-121.743
 20
339.448
 11
-121.674
 21
339.663
  0
LINE
  8
0
 10
-121.674
 20
339.663
 11
-121.577
 21
339.867
  0
LINE
  8
0
 10
-121.577
 20
339.867
 11
-121.456
 21
340.058
  0
LINE
  8
0
 10
-121.456
 20
340.058
 11
-121.312
 21
340.232
  0
LINE
  8
0
 10
-121.312
 20
340.232
 11
-121.147
 21
340.387
  0
LINE
  8
0
 10
-121.147
 20
340.387
 11
-120.964
 21
340.52
  0
LINE
  8
0
 10
-120.964
 20
340.52
 11
-120.766
 21
340.629
  0
LINE
  8
0
 10
-120.766
 20
340.629
 11
-120.556
 21
340.712
  0
LINE
  8
0
 10
-120.556
 20
340.712
 11
-120.337
 21
340.768
  0
LINE
  8
0
 10
-120.337
 20
340.768
 11
-120.113
 21
340.796
  0
LINE
  8
0
 10
-120.113
 20
340.796
 11
-119.887
 21
340.796
  0
LINE
  8
0
 10
-119.887
 20
340.796
 11
-119.663
 21
340.768
  0
LINE
  8
0
 10
-119.663
 20
340.768
 11
-119.444
 21
340.712
  0
LINE
  8
0
 10
-119.444
 20
340.712
 11
-119.234
 21
340.629
  0
LINE
  8
0
 10
-119.234
 20
340.629
 11
-119.036
 21
340.52
  0
LINE
  8
0
 10
-119.036
 20
340.52
 11
-118.853
 21
340.387
  0
LINE
  8
0
 10
-118.853
 20
340.387
 11
-118.688
 21
340.232
  0
LINE
  8
0
 10
-118.688
 20
340.232
 11
-118.544
 21
340.058
  0
LINE
  8
0
 10
-118.544
 20
340.058
 11
-118.423
 21
339.867
  0
LINE
  8
0
 10
-118.423
 20
339.867
 11
-118.326
 21
339.663
  0
LINE
  8
0
 10
-118.326
 20
339.663
 11
-118.257
 21
339.448
  0
LINE
  8
0
 10
-118.257
 20
339.448
 11
-118.214
 21
339.226
  0
LINE
  8
0
 10
-118.214
 20
339.226
 11
-118.2
 21
339
  0
LINE
  8
0
 10
-118.2
 20
339
 11
-118.214
 21
338.774
  0
LINE
  8
0
 10
-118.214
 20
338.774
 11
-118.257
 21
338.552
  0
LINE
  8
0
 10
-118.257
 20
338.552
 11
-118.326
 21
338.337
  0
LINE
  8
0
 10
-118.326
 20
338.337
 11
-118.423
 21
338.133
  0
LINE
  8
0
 10
-118.423
 20
338.133
 11
-118.544
 21
337.942
  0
LINE
  8
0
 10
-118.544
 20
337.942
 11
-118.688
 21
337.768
  0
LINE
  8
0
 10
-118.688
 20
337.768
 11
-118.853
 21
337.613
  0
LINE
  8
0
 10
-118.853
 20
337.613
 11
-119.036
 21
337.48
  0
LINE
  8
0
 10
-119.036
 20
337.48
 11
-119.234
 21
337.371
  0
LINE
  8
0
 10
-119.234
 20
337.371
 11
-119.444
 21
337.288
  0
LINE
  8
0
 10
-119.444
 20
337.288
 11
-119.663
 21
337.232
  0
LINE
  8
0
 10
-119.663
 20
337.232
 11
-119.887
 21
337.204
  0
LINE
  8
0
 10
-119.887
 20
337.204
 11
-120.113
 21
337.204
  0
LINE
  8
0
 10
119.887
 20
337.204
 11
119.663
 21
337.232
  0
LINE
  8
0
 10
119.663
 20
337.232
 11
119.444
 21
337.288
  0
LINE
  8
0
 10
119.444
 20
337.288
 11
119.234
 21
337.371
  0
LINE
  8
0
 10
119.234
 20
337.371
 11
119.036
 21
337.48
  0
LINE
  8
0
 10
119.036
 20
337.48
 11
118.853
 21
337.613
  0
LINE
  8
0
 10
118.853
 20
337.613
 11
118.688
 21
337.768
  0
LINE
  8
0
 10
118.688
 20
337.768
 11
118.544
 21
337.942
  0
LINE
  8
0
 10
118.544
 20
337.942
 11
118.423
 21
338.133
  0
LINE
  8
0
 10
118.423
 20
338.133
 11
118.326
 21
338.337
  0
LINE
  8
0
 10
118.326
 20
338.337
 11
118.257
 21
338.552
  0
LINE
  8
0
 10
118.257
 20
338.552
 11
118.214
 21
338.774
  0
LINE
  8
0
 10
118.214
 20
338.774
 11
118.2
 21
339
  0
LINE
  8
0
 10
118.2
 20
339
 11
118.214
 21
339.226
  0
LINE
  8
0
 10
118.214
 20
339.226
 11
118.257
 21
339.448
  0
LINE
  8
0
 10
118.257
 20
339.448
 11
118.326
 21
339.663
  0
LINE
  8
0
 10
118.326
 20
339.663
 11
118.423
 21
339.867
  0
LINE
  8
0
 10
118.423
 20
339.867
 11
118.544
 21
340.058
  0
LINE
  8
0
 10
118.544
 20
340.058
 11
118.688
 21
340.232
  0
LINE
  8
0
 10
118.688
 20
340.232
 11
118.853
 21
340.387
  0
LINE
  8
0
 10
118.853
 20
340.387
 11
119.036
 21
340.52
  0
LINE
  8
0
 10
119.036
 20
340.52
 11
119.234
 21
340.629
  0
LINE
  8
0
 10
119.234
 20
340.629
 11
119.444
 21
340.712
  0
LINE
  8
0
 10
119.444
 20
340.712
 11
119.663
 21
340.768
  0
LINE
  8
0
 10
119.663
 20
340.768
 11
119.887
 21
340.796
  0
LINE
  8
0
 10
119.887
 20
340.796
 11
120.113
 21
340.796
  0
LINE
  8
0
 10
120.113
 20
340.796
 11
120.337
 21
340.768
  0
LINE
  8
0
 10
120.337
 20
340.768
 11
120.556
 21
340.712
  0
LINE
  8
0
 10
120.556
 20
340.712
 11
120.766
 21
340.629
  0
LINE
  8
0
 10
120.766
 20
340.629
 11
120.964
 21
340.52
  0
LINE
  8
0
 10
120.964
 20
340.52
 11
121.147
 21
340.387
  0
LINE
  8
0
 10
121.147
 20
340.387
 11
121.312
 21
340.232
  0
LINE
  8
0
 10
121.312
 20
340.232
 11
121.456
 21
340.058
  0
LINE
  8
0
 10
121.456
 20
340.058
 11
121.577
 21
339.867
  0
LINE
  8
0
 10
121.577
 20
339.867
 11
121.674
 21
339.663
  0
LINE
  8
0
 10
121.674
 20
339.663
 11
121.743
 21
339.448
  0
LINE
  8
0
 10
121.743
 20
339.448
 11
121.786
 21
339.226
  0
LINE
  8
0
 10
121.786
 20
339.226
 11
121.8
 21
339
  0
LINE
  8
0
 10
121.8
 20
339
 11
121.786
 21
338.774
  0
LINE
  8
0
 10
121.786
 20
338.774
 11
121.743
 21
338.552
  0
LINE
  8
0
 10
121.743
 20
338.552
 11
121.674
 21
338.337
  0
LINE
  8
0
 10
121.674
 20
338.337
 11
121.577
 21
338.133
  0
LINE
  8
0
 10
121.577
 20
338.133
 11
121.456
 21
337.942
  0
LINE
  8
0
 10
121.456
 20
337.942
 11
121.312
 21
337.768
  0
LINE
  8
0
 10
121.312
 20
337.768
 11
121.147
 21
337.613
  0
LINE
  8
0
 10
121.147
 20
337.613
 11
120.964
 21
337.48
  0
LINE
  8
0
 10
120.964
 20
337.48
 11
120.766
 21
337.371
  0
LINE
  8
0
 10
120.766
 20
337.371
 11
120.556
 21
337.288
  0
LINE
  8
0
 10
120.556
 20
337.288
 11
120.337
 21
337.232
  0
LINE
  8
0
 10
120.337
 20
337.232
 11
120.113
 21
337.204
  0
LINE
  8
0
 10
120.113
 20
337.204
 11
119.887
 21
337.204
  0
LINE
  8
0
 10
119.887
 20
127.204
 11
119.663
 21
127.232
  0
LINE
  8
0
 10
119.663
 20
127.232
 11
119.444
 21
127.288
  0
LINE
  8
0
 10
119.444
 20
127.288
 11
119.234
 21
127.371
  0
LINE
  8
0
 10
119.234
 20
127.371
 11
119.036
 21
127.48
  0
LINE
  8
0
 10
119.036
 20
127.48
 11
118.853
 21
127.613
  0
LINE
  8
0
 10
118.853
 20
127.613
 11
118.688
 21
127.768
  0
LINE
  8
0
 10
118.688
 20
127.768
 11
118.544
 21
127.942
  0
LINE
  8
0
 10
118.544
 20
127.942
 11
118.423
 21
128.133
  0
LINE
  8
0
 10
118.423
 20
128.133
 11
118.326
 21
128.337
  0
LINE
  8
0
 10
118.326
 20
128.337
 11
118.257
 21
128.552
  0
LINE
  8
0
 10
118.257
 20
128.552
 11
118.214
 21
128.774
  0
LINE
  8
0
 10
118.214
 20
128.774
 11
118.2
 21
129
  0
LINE
  8
0
 10
118.2
 20
129
 11
118.214
 21
129.226
  0
LINE
  8
0
 10
118.214
 20
129.226
 11
118.257
 21
129.448
  0
LINE
  8
0
 10
118.257
 20
129.448
 11
118.326
 21
129.663
  0
LINE
  8
0
 10
118.326
 20
129.663
 11
118.423
 21
129.867
  0
LINE
  8
0
 10
118.423
 20
129.867
 11
118.544
 21
130.058
  0
LINE
  8
0
 10
118.544
 20
130.058
 11
118.688
 21
130.232
  0
LINE
  8
0
 10
118.688
 20
130.232
 11
118.853
 21
130.387
  0
LINE
  8
0
 10
118.853
 20
130.387
 11
119.036
 21
130.52
  0
LINE
  8
0
 10
119.036
 20
130.52
 11
119.234
 21
130.629
  0
LINE
  8
0
 10
119.234
 20
130.629
 11
119.444
 21
130.712
  0
LINE
  8
0
 10
119.444
 20
130.712
 11
119.663
 21
130.768
  0
LINE
  8
0
 10
119.663
 20
130.768
 11
119.887
 21
130.796
  0
LINE
  8
0
 10
119.887
 20
130.796
 11
120.113
 21
130.796
  0
LINE
  8
0
 10
120.113
 20
130.796
 11
120.337
 21
130.768
  0
LINE
  8
0
 10
120.337
 20
130.768
 11
120.556
 21
130.712
  0
LINE
  8
0
 10
120.556
 20
130.712
 11
120.766
 21
130.629
  0
LINE
  8
0
 10
120.766
 20
130.629
 11
120.964
 21
130.52
  0
LINE
  8
0
 10
120.964
 20
130.52
 11
121.147
 21
130.387
  0
LINE
  8
0
 10
121.147
 20
130.387
 11
121.312
 21
130.232
  0
LINE
  8
0
 10
121.312
 20
130.232
 11
121.456
 21
130.058
  0
LINE
  8
0
 10
121.456
 20
130.058
 11
121.577
 21
129.867
  0
LINE
  8
0
 10
121.577
 20
129.867
 11
121.674
 21
129.663
  0
LINE
  8
0
 10
121.674
 20
129.663
 11
121.743
 21
129.448
  0
LINE
  8
0
 10
121.743
 20
129.448
 11
121.786
 21
129.226
  0
LINE
  8
0
 10
121.786
 20
129.226
 11
121.8
 21
129
  0
LINE
  8
0
 10
121.8
 20
129
 11
121.786
 21
128.774
  0
LINE
  8
0
 10
121.786
 20
128.774
 11
121.743
 21
128.552
  0
LINE
  8
0
 10
121.743
 20
128.552
 11
121.674
 21
128.337
  0
LINE
  8
0
 10
121.674
 20
128.337
 11
121.577
 21
128.133
  0
LINE
  8
0
 10
121.577
 20
128.133
 11
121.456
 21
127.942
  0
LINE
  8
0
 10
121.456
 20
127.942
 11
121.312
 21
127.768
  0
LINE
  8
0
 10
121.312
 20
127.768
 11
121.147
 21
127.613
  0
LINE
  8
0
 10
121.147
 20
127.613
 11
120.964
 21
127.48
  0
LINE
  8
0
 10
120.964
 20
127.48
 11
120.766
 21
127.371
  0
LINE
  8
0
 10
120.766
 20
127.371
 11
120.556
 21
127.288
  0
LINE
  8
0
 10
120.556
 20
127.288
 11
120.337
 21
127.232
  0
LINE
  8
0
 10
120.337
 20
127.232
 11
120.113
 21
127.204
  0
LINE
  8
0
 10
120.113
 20
127.204
 11
119.887
 21
127.204
  0
LINE
  8
0
 10
-120.113
 20
127.204
 11
-120.337
 21
127.232
  0
LINE
  8
0
 10
-120.337
 20
127.232
 11
-120.556
 21
127.288
  0
LINE
  8
0
 10
-120.556
 20
127.288
 11
-120.766
 21
127.371
  0
LINE
  8
0
 10
-120.766
 20
127.371
 11
-120.964
 21
127.48
  0
LINE
  8
0
 10
-120.964
 20
127.48
 11
-121.147
 21
127.613
  0
LINE
  8
0
 10
-121.147
 20
127.613
 11
-121.312
 21
127.768
  0
LINE
  8
0
 10
-121.312
 20
127.768
 11
-121.456
 21
127.942
  0
LINE
  8
0
 10
-121.456
 20
127.942
 11
-121.577
 21
128.133
  0
LINE
  8
0
 10
-121.577
 20
128.133
 11
-121.674
 21
128.337
  0
LINE
  8
0
 10
-121.674
 20
128.337
 11
-121.743
 21
128.552
  0
LINE
  8
0
 10
-121.743
 20
128.552
 11
-121.786
 21
128.774
  0
LINE
  8
0
 10
-121.786
 20
128.774
 11
-121.8
 21
129
  0
LINE
  8
0
 10
-121.8
 20
129
 11
-121.786
 21
129.226
  0
LINE
  8
0
 10
-121.786
 20
129.226
 11
-121.743
 21
129.448
  0
LINE
  8
0
 10
-121.743
 20
129.448
 11
-121.674
 21
129.663
  0
LINE
  8
0
 10
-121.674
 20
129.663
 11
-121.577
 21
129.867
  0
LINE
  8
0
 10
-121.577
 20
129.867
 11
-121.456
 21
130.058
  0
LINE
  8
0
 10
-121.456
 20
130.058
 11
-121.312
 21
130.232
  0
LINE
  8
0
 10
-121.312
 20
130.232
 11
-121.147
 21
130.387
  0
LINE
  8
0
 10
-121.147
 20
130.387
 11
-120.964
 21
130.52
  0
LINE
  8
0
 10
-120.964
 20
130.52
 11
-120.766
 21
130.629
  0
LINE
  8
0
 10
-120.766
 20
130.629
 11
-120.556
 21
130.712
  0
LINE
  8
0
 10
-120.556
 20
130.712
 11
-120.337
 21
130.768
  0
LINE
  8
0
 10
-120.337
 20
130.768
 11
-120.113
 21
130.796
  0
LINE
  8
0
 10
-120.113
 20
130.796
 11
-119.887
 21
130.796
  0
LINE
  8
0
 10
-119.887
 20
130.796
 11
-119.663
 21
130.768
  0
LINE
  8
0
 10
-119.663
 20
130.768
 11
-119.444
 21
130.712
  0
LINE
  8
0
 10
-119.444
 20
130.712
 11
-119.234
 21
130.629
  0
LINE
  8
0
 10
-119.234
 20
130.629
 11
-119.036
 21
130.52
  0
LINE
  8
0
 10
-119.036
 20
130.52
 11
-118.853
 21
130.387
  0
LINE
  8
0
 10
-118.853
 20
130.387
 11
-118.688
 21
130.232
  0
LINE
  8
0
 10
-118.688
 20
130.232
 11
-118.544
 21
130.058
  0
LINE
  8
0
 10
-118.544
 20
130.058
 11
-118.423
 21
129.867
  0
LINE
  8
0
 10
-118.423
 20
129.867
 11
-118.326
 21
129.663
  0
LINE
  8
0
 10
-118.326
 20
129.663
 11
-118.257
 21
129.448
  0
LINE
  8
0
 10
-118.257
 20
129.448
 11
-118.214
 21
129.226
  0
LINE
  8
0
 10
-118.214
 20
129.226
 11
-118.2
 21
129
  0
LINE
  8
0
 10
-118.2
 20
129
 11
-118.214
 21
128.774
  0
LINE
  8
0
 10
-118.214
 20
128.774
 11
-118.257
 21
128.552
  0
LINE
  8
0
 10
-118.257
 20
128.552
 11
-118.326
 21
128.337
  0
LINE
  8
0
 10
-118.326
 20
128.337
 11
-118.423
 21
128.133
  0
LINE
  8
0
 10
-118.423
 20
128.133
 11
-118.544
 21
127.942
  0
LINE
  8
0
 10
-118.544
 20
127.942
 11
-118.688
 21
127.768
  0
LINE
  8
0
 10
-118.688
 20
127.768
 11
-118.853
 21
127.613
  0
LINE
  8
0
 10
-118.853
 20
127.613
 11
-119.036
 21
127.48
  0
LINE
  8
0
 10
-119.036
 20
127.48
 11
-119.234
 21
127.371
  0
LINE
  8
0
 10
-119.234
 20
127.371
 11
-119.444
 21
127.288
  0
LINE
  8
0
 10
-119.444
 20
127.288
 11
-119.663
 21
127.232
  0
LINE
  8
0
 10
-119.663
 20
127.232
 11
-119.887
 21
127.204
  0
LINE
  8
0
 10
-119.887
 20
127.204
 11
-120.113
 21
127.204
  0
ENDSEC
  0
SECTION
  2
OBJECTS
  0
DICTIONARY
  0
ENDSEC
  0
EOF
