<?xml version="1.0" standalone="no"?>
<!DOCTYPE svg PUBLIC "-//W3C//DTD SVG 1.1//EN" "http://www.w3.org/Graphics/SVG/1.1/DTD/svg11.dtd">
<svg width="302mm" height="309mm" viewBox="-152 -552 302 309" xmlns="http://www.w3.org/2000/svg" version="1.1">
<title>OpenSCAD Model</title>
<path d="
M 145.937,-402.089 L 146.545,-402.245 L 147.129,-402.476 L 147.679,-402.778 L 148.187,-403.147 L 148.645,-403.577
 L 149.045,-404.061 L 149.382,-404.591 L 149.649,-405.159 L 149.843,-405.757 L 149.961,-406.373 L 150,-407
 L 150,-547 L 149.961,-547.627 L 149.843,-548.243 L 149.649,-548.841 L 149.382,-549.409 L 149.045,-549.939
 L 148.645,-550.423 L 148.187,-550.853 L 147.679,-551.222 L 147.129,-551.524 L 146.545,-551.755 L 145.937,-551.911
 L 145.314,-551.99 L -145.314,-551.99 L -145.937,-551.911 L -146.545,-551.755 L -147.129,-551.524 L -147.679,-551.222
 L -148.187,-550.853 L -148.5,-550.559 L -148.5,-551.979 L -151.5,-551.979 L -151.5,-402.021 L -148.5,-402.021
 L -148.5,-403.441 L -148.187,-403.147 L -147.679,-402.778 L -147.129,-402.476 L -146.545,-402.245 L -145.937,-402.089
 L -145.314,-402.01 L 145.314,-402.01 z
M -144.695,-404.393 L -145.083,-404.442 L -145.462,-404.539 L -145.825,-404.683 L -146.168,-404.872 L -146.484,-405.101
 L -146.769,-405.369 L -147.018,-405.67 L -147.228,-406 L -147.394,-406.354 L -147.515,-406.726 L -147.588,-407.11
 L -147.613,-407.5 L -147.613,-546.5 L -147.588,-546.89 L -147.515,-547.274 L -147.394,-547.646 L -147.228,-548
 L -147.018,-548.33 L -146.769,-548.631 L -146.484,-548.899 L -146.168,-549.128 L -145.825,-549.317 L -145.462,-549.461
 L -145.083,-549.558 L -144.695,-549.607 L 144.695,-549.607 L 145.083,-549.558 L 145.462,-549.461 L 145.825,-549.317
 L 146.168,-549.128 L 146.484,-548.899 L 146.769,-548.631 L 147.018,-548.33 L 147.228,-548 L 147.394,-547.646
 L 147.515,-547.274 L 147.588,-546.89 L 147.613,-546.5 L 147.613,-407.5 L 147.588,-407.11 L 147.515,-406.726
 L 147.394,-406.354 L 147.228,-406 L 147.018,-405.67 L 146.769,-405.369 L 146.484,-405.101 L 146.168,-404.872
 L 145.825,-404.683 L 145.462,-404.539 L 145.083,-404.442 L 144.695,-404.393 z
M 145.937,-243.089 L 146.545,-243.245 L 147.129,-243.476 L 147.679,-243.778 L 148.187,-244.147 L 148.645,-244.577
 L 149.045,-245.061 L 149.382,-245.591 L 149.649,-246.159 L 149.843,-246.757 L 149.961,-247.373 L 150,-248
 L 150,-388 L 149.961,-388.627 L 149.843,-389.243 L 149.649,-389.841 L 149.382,-390.409 L 149.045,-390.939
 L 148.645,-391.423 L 148.187,-391.853 L 147.679,-392.222 L 147.129,-392.524 L 146.545,-392.755 L 145.937,-392.911
 L 145.314,-392.99 L -145.314,-392.99 L -145.937,-392.911 L -146.545,-392.755 L -147.129,-392.524 L -147.679,-392.222
 L -148.187,-391.853 L -148.5,-391.559 L -148.5,-391.653 L -151.5,-391.653 L -151.5,-244.347 L -148.5,-244.347
 L -148.5,-244.441 L -148.187,-244.147 L -147.679,-243.778 L -147.129,-243.476 L -146.545,-243.245 L -145.937,-243.089
 L -145.314,-243.01 L 145.314,-243.01 z
M 142.366,-383.369 L 142.1,-383.403 L 141.84,-383.469 L 141.591,-383.568 L 141.356,-383.697 L 141.139,-383.855
 L 140.943,-384.038 L 140.773,-384.245 L 140.629,-384.471 L 140.515,-384.714 L 140.432,-384.969 L 140.382,-385.232
 L 140.365,-385.5 L 140.382,-385.768 L 140.432,-386.031 L 140.515,-386.286 L 140.629,-386.529 L 140.773,-386.755
 L 140.943,-386.962 L 141.139,-387.145 L 141.356,-387.303 L 141.591,-387.432 L 141.84,-387.531 L 142.1,-387.597
 L 142.366,-387.631 L 142.634,-387.631 L 142.9,-387.597 L 143.16,-387.531 L 143.409,-387.432 L 143.644,-387.303
 L 143.861,-387.145 L 144.057,-386.962 L 144.227,-386.755 L 144.371,-386.529 L 144.485,-386.286 L 144.568,-386.031
 L 144.618,-385.768 L 144.635,-385.5 L 144.618,-385.232 L 144.568,-384.969 L 144.485,-384.714 L 144.371,-384.471
 L 144.227,-384.245 L 144.057,-384.038 L 143.861,-383.855 L 143.644,-383.697 L 143.409,-383.568 L 143.16,-383.469
 L 142.9,-383.403 L 142.634,-383.369 z
M -142.634,-383.369 L -142.9,-383.403 L -143.16,-383.469 L -143.409,-383.568 L -143.644,-383.697 L -143.861,-383.855
 L -144.057,-384.038 L -144.227,-384.245 L -144.371,-384.471 L -144.485,-384.714 L -144.568,-384.969 L -144.618,-385.232
 L -144.635,-385.5 L -144.618,-385.768 L -144.568,-386.031 L -144.485,-386.286 L -144.371,-386.529 L -144.227,-386.755
 L -144.057,-386.962 L -143.861,-387.145 L -143.644,-387.303 L -143.409,-387.432 L -143.16,-387.531 L -142.9,-387.597
 L -142.634,-387.631 L -142.366,-387.631 L -142.1,-387.597 L -141.84,-387.531 L -141.591,-387.432 L -141.356,-387.303
 L -141.139,-387.145 L -140.943,-386.962 L -140.773,-386.755 L -140.629,-386.529 L -140.515,-386.286 L -140.432,-386.031
 L -140.382,-385.768 L -140.365,-385.5 L -140.382,-385.232 L -140.432,-384.969 L -140.515,-384.714 L -140.629,-384.471
 L -140.773,-384.245 L -140.943,-384.038 L -141.139,-383.855 L -141.356,-383.697 L -141.591,-383.568 L -141.84,-383.469
 L -142.1,-383.403 L -142.366,-383.369 z
M 142.366,-248.369 L 142.1,-248.403 L 141.84,-248.469 L 141.591,-248.568 L 141.356,-248.697 L 141.139,-248.855
 L 140.943,-249.038 L 140.773,-249.245 L 140.629,-249.471 L 140.515,-249.714 L 140.432,-249.969 L 140.382,-250.232
 L 140.365,-250.5 L 140.382,-250.768 L 140.432,-251.031 L 140.515,-251.286 L 140.629,-251.529 L 140.773,-251.755
 L 140.943,-251.962 L 141.139,-252.145 L 141.356,-252.303 L 141.591,-252.432 L 141.84,-252.531 L 142.1,-252.597
 L 142.366,-252.631 L 142.634,-252.631 L 142.9,-252.597 L 143.16,-252.531 L 143.409,-252.432 L 143.644,-252.303
 L 143.861,-252.145 L 144.057,-251.962 L 144.227,-251.755 L 144.371,-251.529 L 144.485,-251.286 L 144.568,-251.031
 L 144.618,-250.768 L 144.635,-250.5 L 144.618,-250.232 L 144.568,-249.969 L 144.485,-249.714 L 144.371,-249.471
 L 144.227,-249.245 L 144.057,-249.038 L 143.861,-248.855 L 143.644,-248.697 L 143.409,-248.568 L 143.16,-248.469
 L 142.9,-248.403 L 142.634,-248.369 z
M -142.634,-248.369 L -142.9,-248.403 L -143.16,-248.469 L -143.409,-248.568 L -143.644,-248.697 L -143.861,-248.855
 L -144.057,-249.038 L -144.227,-249.245 L -144.371,-249.471 L -144.485,-249.714 L -144.568,-249.969 L -144.618,-250.232
 L -144.635,-250.5 L -144.618,-250.768 L -144.568,-251.031 L -144.485,-251.286 L -144.371,-251.529 L -144.227,-251.755
 L -144.057,-251.962 L -143.861,-252.145 L -143.644,-252.303 L -143.409,-252.432 L -143.16,-252.531 L -142.9,-252.597
 L -142.634,-252.631 L -142.366,-252.631 L -142.1,-252.597 L -141.84,-252.531 L -141.591,-252.432 L -141.356,-252.303
 L -141.139,-252.145 L -140.943,-251.962 L -140.773,-251.755 L -140.629,-251.529 L -140.515,-251.286 L -140.432,-251.031
 L -140.382,-250.768 L -140.365,-250.5 L -140.382,-250.232 L -140.432,-249.969 L -140.515,-249.714 L -140.629,-249.471
 L -140.773,-249.245 L -140.943,-249.038 L -141.139,-248.855 L -141.356,-248.697 L -141.591,-248.568 L -141.84,-248.469
 L -142.1,-248.403 L -142.366,-248.369 z
" stroke="black" fill="lightgray" stroke-width="0.5"/>
</svg>
