  0
SECTION
  2
BLOCKS
  0
ENDSEC
  0
SECTION
  2
ENTITIES
  0
LINE
  8
0
 10
145.937
 20
378.089
 11
146.545
 21
378.245
  0
LINE
  8
0
 10
146.545
 20
378.245
 11
147.129
 21
378.476
  0
LINE
  8
0
 10
147.129
 20
378.476
 11
147.679
 21
378.778
  0
LINE
  8
0
 10
147.679
 20
378.778
 11
148.187
 21
379.147
  0
LINE
  8
0
 10
148.187
 20
379.147
 11
148.645
 21
379.577
  0
LINE
  8
0
 10
148.645
 20
379.577
 11
149.045
 21
380.061
  0
LINE
  8
0
 10
149.045
 20
380.061
 11
149.382
 21
380.591
  0
LINE
  8
0
 10
149.382
 20
380.591
 11
149.649
 21
381.159
  0
LINE
  8
0
 10
149.649
 20
381.159
 11
149.843
 21
381.757
  0
LINE
  8
0
 10
149.843
 20
381.757
 11
149.961
 21
382.373
  0
LINE
  8
0
 10
149.961
 20
382.373
 11
150
 21
383
  0
LINE
  8
0
 10
150
 20
383
 11
150
 21
613
  0
LINE
  8
0
 10
150
 20
613
 11
149.961
 21
613.627
  0
LINE
  8
0
 10
149.961
 20
613.627
 11
149.843
 21
614.243
  0
LINE
  8
0
 10
149.843
 20
614.243
 11
149.649
 21
614.841
  0
LINE
  8
0
 10
149.649
 20
614.841
 11
149.382
 21
615.409
  0
LINE
  8
0
 10
149.382
 20
615.409
 11
149.045
 21
615.939
  0
LINE
  8
0
 10
149.045
 20
615.939
 11
148.645
 21
616.423
  0
LINE
  8
0
 10
148.645
 20
616.423
 11
148.187
 21
616.853
  0
LINE
  8
0
 10
148.187
 20
616.853
 11
147.679
 21
617.222
  0
LINE
  8
0
 10
147.679
 20
617.222
 11
147.129
 21
617.524
  0
LINE
  8
0
 10
147.129
 20
617.524
 11
146.545
 21
617.755
  0
LINE
  8
0
 10
146.545
 20
617.755
 11
145.937
 21
617.911
  0
LINE
  8
0
 10
145.937
 20
617.911
 11
145.314
 21
617.99
  0
LINE
  8
0
 10
145.314
 20
617.99
 11
-145.314
 21
617.99
  0
LINE
  8
0
 10
-145.314
 20
617.99
 11
-145.937
 21
617.911
  0
LINE
  8
0
 10
-145.937
 20
617.911
 11
-146.545
 21
617.755
  0
LINE
  8
0
 10
-146.545
 20
617.755
 11
-147.129
 21
617.524
  0
LINE
  8
0
 10
-147.129
 20
617.524
 11
-147.679
 21
617.222
  0
LINE
  8
0
 10
-147.679
 20
617.222
 11
-148.187
 21
616.853
  0
LINE
  8
0
 10
-148.187
 20
616.853
 11
-148.645
 21
616.423
  0
LINE
  8
0
 10
-148.645
 20
616.423
 11
-149.045
 21
615.939
  0
LINE
  8
0
 10
-149.045
 20
615.939
 11
-149.382
 21
615.409
  0
LINE
  8
0
 10
-149.382
 20
615.409
 11
-149.649
 21
614.841
  0
LINE
  8
0
 10
-149.649
 20
614.841
 11
-149.843
 21
614.243
  0
LINE
  8
0
 10
-149.843
 20
614.243
 11
-149.961
 21
613.627
  0
LINE
  8
0
 10
-149.961
 20
613.627
 11
-150
 21
613
  0
LINE
  8
0
 10
-150
 20
613
 11
-150
 21
383
  0
LINE
  8
0
 10
-150
 20
383
 11
-149.961
 21
382.373
  0
LINE
  8
0
 10
-149.961
 20
382.373
 11
-149.843
 21
381.757
  0
LINE
  8
0
 10
-149.843
 20
381.757
 11
-149.649
 21
381.159
  0
LINE
  8
0
 10
-149.649
 20
381.159
 11
-149.382
 21
380.591
  0
LINE
  8
0
 10
-149.382
 20
380.591
 11
-149.045
 21
380.061
  0
LINE
  8
0
 10
-149.045
 20
380.061
 11
-148.645
 21
379.577
  0
LINE
  8
0
 10
-148.645
 20
379.577
 11
-148.187
 21
379.147
  0
LINE
  8
0
 10
-148.187
 20
379.147
 11
-147.679
 21
378.778
  0
LINE
  8
0
 10
-147.679
 20
378.778
 11
-147.129
 21
378.476
  0
LINE
  8
0
 10
-147.129
 20
378.476
 11
-146.545
 21
378.245
  0
LINE
  8
0
 10
-146.545
 20
378.245
 11
-145.937
 21
378.089
  0
LINE
  8
0
 10
-145.937
 20
378.089
 11
-145.314
 21
378.01
  0
LINE
  8
0
 10
-145.314
 20
378.01
 11
145.314
 21
378.01
  0
LINE
  8
0
 10
145.314
 20
378.01
 11
145.937
 21
378.089
  0
LINE
  8
0
 10
-144.993
 20
379.388
 11
-145.475
 21
379.449
  0
LINE
  8
0
 10
-145.475
 20
379.449
 11
-145.946
 21
379.57
  0
LINE
  8
0
 10
-145.946
 20
379.57
 11
-146.398
 21
379.749
  0
LINE
  8
0
 10
-146.398
 20
379.749
 11
-146.823
 21
379.983
  0
LINE
  8
0
 10
-146.823
 20
379.983
 11
-147.216
 21
380.269
  0
LINE
  8
0
 10
-147.216
 20
380.269
 11
-147.571
 21
380.601
  0
LINE
  8
0
 10
-147.571
 20
380.601
 11
-147.88
 21
380.976
  0
LINE
  8
0
 10
-147.88
 20
380.976
 11
-148.141
 21
381.386
  0
LINE
  8
0
 10
-148.141
 20
381.386
 11
-148.348
 21
381.826
  0
LINE
  8
0
 10
-148.348
 20
381.826
 11
-148.498
 21
382.288
  0
LINE
  8
0
 10
-148.498
 20
382.288
 11
-148.589
 21
382.765
  0
LINE
  8
0
 10
-148.589
 20
382.765
 11
-148.619
 21
383.25
  0
LINE
  8
0
 10
-148.619
 20
383.25
 11
-148.619
 21
612.75
  0
LINE
  8
0
 10
-148.619
 20
612.75
 11
-148.589
 21
613.235
  0
LINE
  8
0
 10
-148.589
 20
613.235
 11
-148.498
 21
613.712
  0
LINE
  8
0
 10
-148.498
 20
613.712
 11
-148.348
 21
614.174
  0
LINE
  8
0
 10
-148.348
 20
614.174
 11
-148.141
 21
614.614
  0
LINE
  8
0
 10
-148.141
 20
614.614
 11
-147.88
 21
615.024
  0
LINE
  8
0
 10
-147.88
 20
615.024
 11
-147.571
 21
615.399
  0
LINE
  8
0
 10
-147.571
 20
615.399
 11
-147.216
 21
615.731
  0
LINE
  8
0
 10
-147.216
 20
615.731
 11
-146.823
 21
616.017
  0
LINE
  8
0
 10
-146.823
 20
616.017
 11
-146.398
 21
616.251
  0
LINE
  8
0
 10
-146.398
 20
616.251
 11
-145.946
 21
616.43
  0
LINE
  8
0
 10
-145.946
 20
616.43
 11
-145.475
 21
616.551
  0
LINE
  8
0
 10
-145.475
 20
616.551
 11
-144.993
 21
616.612
  0
LINE
  8
0
 10
-144.993
 20
616.612
 11
144.993
 21
616.612
  0
LINE
  8
0
 10
144.993
 20
616.612
 11
145.475
 21
616.551
  0
LINE
  8
0
 10
145.475
 20
616.551
 11
145.946
 21
616.43
  0
LINE
  8
0
 10
145.946
 20
616.43
 11
146.398
 21
616.251
  0
LINE
  8
0
 10
146.398
 20
616.251
 11
146.823
 21
616.017
  0
LINE
  8
0
 10
146.823
 20
616.017
 11
147.216
 21
615.731
  0
LINE
  8
0
 10
147.216
 20
615.731
 11
147.571
 21
615.399
  0
LINE
  8
0
 10
147.571
 20
615.399
 11
147.88
 21
615.024
  0
LINE
  8
0
 10
147.88
 20
615.024
 11
148.141
 21
614.614
  0
LINE
  8
0
 10
148.141
 20
614.614
 11
148.348
 21
614.174
  0
LINE
  8
0
 10
148.348
 20
614.174
 11
148.498
 21
613.712
  0
LINE
  8
0
 10
148.498
 20
613.712
 11
148.589
 21
613.235
  0
LINE
  8
0
 10
148.589
 20
613.235
 11
148.619
 21
612.75
  0
LINE
  8
0
 10
148.619
 20
612.75
 11
148.619
 21
383.25
  0
LINE
  8
0
 10
148.619
 20
383.25
 11
148.589
 21
382.765
  0
LINE
  8
0
 10
148.589
 20
382.765
 11
148.498
 21
382.288
  0
LINE
  8
0
 10
148.498
 20
382.288
 11
148.348
 21
381.826
  0
LINE
  8
0
 10
148.348
 20
381.826
 11
148.141
 21
381.386
  0
LINE
  8
0
 10
148.141
 20
381.386
 11
147.88
 21
380.976
  0
LINE
  8
0
 10
147.88
 20
380.976
 11
147.571
 21
380.601
  0
LINE
  8
0
 10
147.571
 20
380.601
 11
147.216
 21
380.269
  0
LINE
  8
0
 10
147.216
 20
380.269
 11
146.823
 21
379.983
  0
LINE
  8
0
 10
146.823
 20
379.983
 11
146.398
 21
379.749
  0
LINE
  8
0
 10
146.398
 20
379.749
 11
145.946
 21
379.57
  0
LINE
  8
0
 10
145.946
 20
379.57
 11
145.475
 21
379.449
  0
LINE
  8
0
 10
145.475
 20
379.449
 11
144.993
 21
379.388
  0
LINE
  8
0
 10
144.993
 20
379.388
 11
-144.993
 21
379.388
  0
LINE
  8
0
 10
145.937
 20
129.089
 11
146.545
 21
129.245
  0
LINE
  8
0
 10
146.545
 20
129.245
 11
147.129
 21
129.476
  0
LINE
  8
0
 10
147.129
 20
129.476
 11
147.679
 21
129.778
  0
LINE
  8
0
 10
147.679
 20
129.778
 11
148.187
 21
130.147
  0
LINE
  8
0
 10
148.187
 20
130.147
 11
148.645
 21
130.577
  0
LINE
  8
0
 10
148.645
 20
130.577
 11
149.045
 21
131.061
  0
LINE
  8
0
 10
149.045
 20
131.061
 11
149.382
 21
131.591
  0
LINE
  8
0
 10
149.382
 20
131.591
 11
149.649
 21
132.159
  0
LINE
  8
0
 10
149.649
 20
132.159
 11
149.843
 21
132.757
  0
LINE
  8
0
 10
149.843
 20
132.757
 11
149.961
 21
133.373
  0
LINE
  8
0
 10
149.961
 20
133.373
 11
150
 21
134
  0
LINE
  8
0
 10
150
 20
134
 11
150
 21
364
  0
LINE
  8
0
 10
150
 20
364
 11
149.961
 21
364.627
  0
LINE
  8
0
 10
149.961
 20
364.627
 11
149.843
 21
365.243
  0
LINE
  8
0
 10
149.843
 20
365.243
 11
149.649
 21
365.841
  0
LINE
  8
0
 10
149.649
 20
365.841
 11
149.382
 21
366.409
  0
LINE
  8
0
 10
149.382
 20
366.409
 11
149.045
 21
366.939
  0
LINE
  8
0
 10
149.045
 20
366.939
 11
148.645
 21
367.423
  0
LINE
  8
0
 10
148.645
 20
367.423
 11
148.187
 21
367.853
  0
LINE
  8
0
 10
148.187
 20
367.853
 11
147.679
 21
368.222
  0
LINE
  8
0
 10
147.679
 20
368.222
 11
147.129
 21
368.524
  0
LINE
  8
0
 10
147.129
 20
368.524
 11
146.545
 21
368.755
  0
LINE
  8
0
 10
146.545
 20
368.755
 11
145.937
 21
368.911
  0
LINE
  8
0
 10
145.937
 20
368.911
 11
145.314
 21
368.99
  0
LINE
  8
0
 10
145.314
 20
368.99
 11
-145.314
 21
368.99
  0
LINE
  8
0
 10
-145.314
 20
368.99
 11
-145.937
 21
368.911
  0
LINE
  8
0
 10
-145.937
 20
368.911
 11
-146.545
 21
368.755
  0
LINE
  8
0
 10
-146.545
 20
368.755
 11
-147.129
 21
368.524
  0
LINE
  8
0
 10
-147.129
 20
368.524
 11
-147.679
 21
368.222
  0
LINE
  8
0
 10
-147.679
 20
368.222
 11
-148.187
 21
367.853
  0
LINE
  8
0
 10
-148.187
 20
367.853
 11
-148.645
 21
367.423
  0
LINE
  8
0
 10
-148.645
 20
367.423
 11
-149.045
 21
366.939
  0
LINE
  8
0
 10
-149.045
 20
366.939
 11
-149.382
 21
366.409
  0
LINE
  8
0
 10
-149.382
 20
366.409
 11
-149.649
 21
365.841
  0
LINE
  8
0
 10
-149.649
 20
365.841
 11
-149.843
 21
365.243
  0
LINE
  8
0
 10
-149.843
 20
365.243
 11
-149.961
 21
364.627
  0
LINE
  8
0
 10
-149.961
 20
364.627
 11
-150
 21
364
  0
LINE
  8
0
 10
-150
 20
364
 11
-150
 21
134
  0
LINE
  8
0
 10
-150
 20
134
 11
-149.961
 21
133.373
  0
LINE
  8
0
 10
-149.961
 20
133.373
 11
-149.843
 21
132.757
  0
LINE
  8
0
 10
-149.843
 20
132.757
 11
-149.649
 21
132.159
  0
LINE
  8
0
 10
-149.649
 20
132.159
 11
-149.382
 21
131.591
  0
LINE
  8
0
 10
-149.382
 20
131.591
 11
-149.045
 21
131.061
  0
LINE
  8
0
 10
-149.045
 20
131.061
 11
-148.645
 21
130.577
  0
LINE
  8
0
 10
-148.645
 20
130.577
 11
-148.187
 21
130.147
  0
LINE
  8
0
 10
-148.187
 20
130.147
 11
-147.679
 21
129.778
  0
LINE
  8
0
 10
-147.679
 20
129.778
 11
-147.129
 21
129.476
  0
LINE
  8
0
 10
-147.129
 20
129.476
 11
-146.545
 21
129.245
  0
LINE
  8
0
 10
-146.545
 20
129.245
 11
-145.937
 21
129.089
  0
LINE
  8
0
 10
-145.937
 20
129.089
 11
-145.314
 21
129.01
  0
LINE
  8
0
 10
-145.314
 20
129.01
 11
145.314
 21
129.01
  0
LINE
  8
0
 10
145.314
 20
129.01
 11
145.937
 21
129.089
  0
LINE
  8
0
 10
142.387
 20
359.704
 11
142.163
 21
359.732
  0
LINE
  8
0
 10
142.163
 20
359.732
 11
141.944
 21
359.788
  0
LINE
  8
0
 10
141.944
 20
359.788
 11
141.734
 21
359.871
  0
LINE
  8
0
 10
141.734
 20
359.871
 11
141.536
 21
359.98
  0
LINE
  8
0
 10
141.536
 20
359.98
 11
141.353
 21
360.113
  0
LINE
  8
0
 10
141.353
 20
360.113
 11
141.188
 21
360.268
  0
LINE
  8
0
 10
141.188
 20
360.268
 11
141.044
 21
360.442
  0
LINE
  8
0
 10
141.044
 20
360.442
 11
140.923
 21
360.633
  0
LINE
  8
0
 10
140.923
 20
360.633
 11
140.826
 21
360.837
  0
LINE
  8
0
 10
140.826
 20
360.837
 11
140.757
 21
361.052
  0
LINE
  8
0
 10
140.757
 20
361.052
 11
140.714
 21
361.274
  0
LINE
  8
0
 10
140.714
 20
361.274
 11
140.7
 21
361.5
  0
LINE
  8
0
 10
140.7
 20
361.5
 11
140.714
 21
361.726
  0
LINE
  8
0
 10
140.714
 20
361.726
 11
140.757
 21
361.948
  0
LINE
  8
0
 10
140.757
 20
361.948
 11
140.826
 21
362.163
  0
LINE
  8
0
 10
140.826
 20
362.163
 11
140.923
 21
362.367
  0
LINE
  8
0
 10
140.923
 20
362.367
 11
141.044
 21
362.558
  0
LINE
  8
0
 10
141.044
 20
362.558
 11
141.188
 21
362.732
  0
LINE
  8
0
 10
141.188
 20
362.732
 11
141.353
 21
362.887
  0
LINE
  8
0
 10
141.353
 20
362.887
 11
141.536
 21
363.02
  0
LINE
  8
0
 10
141.536
 20
363.02
 11
141.734
 21
363.129
  0
LINE
  8
0
 10
141.734
 20
363.129
 11
141.944
 21
363.212
  0
LINE
  8
0
 10
141.944
 20
363.212
 11
142.163
 21
363.268
  0
LINE
  8
0
 10
142.163
 20
363.268
 11
142.387
 21
363.296
  0
LINE
  8
0
 10
142.387
 20
363.296
 11
142.613
 21
363.296
  0
LINE
  8
0
 10
142.613
 20
363.296
 11
142.837
 21
363.268
  0
LINE
  8
0
 10
142.837
 20
363.268
 11
143.056
 21
363.212
  0
LINE
  8
0
 10
143.056
 20
363.212
 11
143.266
 21
363.129
  0
LINE
  8
0
 10
143.266
 20
363.129
 11
143.464
 21
363.02
  0
LINE
  8
0
 10
143.464
 20
363.02
 11
143.647
 21
362.887
  0
LINE
  8
0
 10
143.647
 20
362.887
 11
143.812
 21
362.732
  0
LINE
  8
0
 10
143.812
 20
362.732
 11
143.956
 21
362.558
  0
LINE
  8
0
 10
143.956
 20
362.558
 11
144.077
 21
362.367
  0
LINE
  8
0
 10
144.077
 20
362.367
 11
144.174
 21
362.163
  0
LINE
  8
0
 10
144.174
 20
362.163
 11
144.243
 21
361.948
  0
LINE
  8
0
 10
144.243
 20
361.948
 11
144.286
 21
361.726
  0
LINE
  8
0
 10
144.286
 20
361.726
 11
144.3
 21
361.5
  0
LINE
  8
0
 10
144.3
 20
361.5
 11
144.286
 21
361.274
  0
LINE
  8
0
 10
144.286
 20
361.274
 11
144.243
 21
361.052
  0
LINE
  8
0
 10
144.243
 20
361.052
 11
144.174
 21
360.837
  0
LINE
  8
0
 10
144.174
 20
360.837
 11
144.077
 21
360.633
  0
LINE
  8
0
 10
144.077
 20
360.633
 11
143.956
 21
360.442
  0
LINE
  8
0
 10
143.956
 20
360.442
 11
143.812
 21
360.268
  0
LINE
  8
0
 10
143.812
 20
360.268
 11
143.647
 21
360.113
  0
LINE
  8
0
 10
143.647
 20
360.113
 11
143.464
 21
359.98
  0
LINE
  8
0
 10
143.464
 20
359.98
 11
143.266
 21
359.871
  0
LINE
  8
0
 10
143.266
 20
359.871
 11
143.056
 21
359.788
  0
LINE
  8
0
 10
143.056
 20
359.788
 11
142.837
 21
359.732
  0
LINE
  8
0
 10
142.837
 20
359.732
 11
142.613
 21
359.704
  0
LINE
  8
0
 10
142.613
 20
359.704
 11
142.387
 21
359.704
  0
LINE
  8
0
 10
-142.613
 20
359.704
 11
-142.837
 21
359.732
  0
LINE
  8
0
 10
-142.837
 20
359.732
 11
-143.056
 21
359.788
  0
LINE
  8
0
 10
-143.056
 20
359.788
 11
-143.266
 21
359.871
  0
LINE
  8
0
 10
-143.266
 20
359.871
 11
-143.464
 21
359.98
  0
LINE
  8
0
 10
-143.464
 20
359.98
 11
-143.647
 21
360.113
  0
LINE
  8
0
 10
-143.647
 20
360.113
 11
-143.812
 21
360.268
  0
LINE
  8
0
 10
-143.812
 20
360.268
 11
-143.956
 21
360.442
  0
LINE
  8
0
 10
-143.956
 20
360.442
 11
-144.077
 21
360.633
  0
LINE
  8
0
 10
-144.077
 20
360.633
 11
-144.174
 21
360.837
  0
LINE
  8
0
 10
-144.174
 20
360.837
 11
-144.243
 21
361.052
  0
LINE
  8
0
 10
-144.243
 20
361.052
 11
-144.286
 21
361.274
  0
LINE
  8
0
 10
-144.286
 20
361.274
 11
-144.3
 21
361.5
  0
LINE
  8
0
 10
-144.3
 20
361.5
 11
-144.286
 21
361.726
  0
LINE
  8
0
 10
-144.286
 20
361.726
 11
-144.243
 21
361.948
  0
LINE
  8
0
 10
-144.243
 20
361.948
 11
-144.174
 21
362.163
  0
LINE
  8
0
 10
-144.174
 20
362.163
 11
-144.077
 21
362.367
  0
LINE
  8
0
 10
-144.077
 20
362.367
 11
-143.956
 21
362.558
  0
LINE
  8
0
 10
-143.956
 20
362.558
 11
-143.812
 21
362.732
  0
LINE
  8
0
 10
-143.812
 20
362.732
 11
-143.647
 21
362.887
  0
LINE
  8
0
 10
-143.647
 20
362.887
 11
-143.464
 21
363.02
  0
LINE
  8
0
 10
-143.464
 20
363.02
 11
-143.266
 21
363.129
  0
LINE
  8
0
 10
-143.266
 20
363.129
 11
-143.056
 21
363.212
  0
LINE
  8
0
 10
-143.056
 20
363.212
 11
-142.837
 21
363.268
  0
LINE
  8
0
 10
-142.837
 20
363.268
 11
-142.613
 21
363.296
  0
LINE
  8
0
 10
-142.613
 20
363.296
 11
-142.387
 21
363.296
  0
LINE
  8
0
 10
-142.387
 20
363.296
 11
-142.163
 21
363.268
  0
LINE
  8
0
 10
-142.163
 20
363.268
 11
-141.944
 21
363.212
  0
LINE
  8
0
 10
-141.944
 20
363.212
 11
-141.734
 21
363.129
  0
LINE
  8
0
 10
-141.734
 20
363.129
 11
-141.536
 21
363.02
  0
LINE
  8
0
 10
-141.536
 20
363.02
 11
-141.353
 21
362.887
  0
LINE
  8
0
 10
-141.353
 20
362.887
 11
-141.188
 21
362.732
  0
LINE
  8
0
 10
-141.188
 20
362.732
 11
-141.044
 21
362.558
  0
LINE
  8
0
 10
-141.044
 20
362.558
 11
-140.923
 21
362.367
  0
LINE
  8
0
 10
-140.923
 20
362.367
 11
-140.826
 21
362.163
  0
LINE
  8
0
 10
-140.826
 20
362.163
 11
-140.757
 21
361.948
  0
LINE
  8
0
 10
-140.757
 20
361.948
 11
-140.714
 21
361.726
  0
LINE
  8
0
 10
-140.714
 20
361.726
 11
-140.7
 21
361.5
  0
LINE
  8
0
 10
-140.7
 20
361.5
 11
-140.714
 21
361.274
  0
LINE
  8
0
 10
-140.714
 20
361.274
 11
-140.757
 21
361.052
  0
LINE
  8
0
 10
-140.757
 20
361.052
 11
-140.826
 21
360.837
  0
LINE
  8
0
 10
-140.826
 20
360.837
 11
-140.923
 21
360.633
  0
LINE
  8
0
 10
-140.923
 20
360.633
 11
-141.044
 21
360.442
  0
LINE
  8
0
 10
-141.044
 20
360.442
 11
-141.188
 21
360.268
  0
LINE
  8
0
 10
-141.188
 20
360.268
 11
-141.353
 21
360.113
  0
LINE
  8
0
 10
-141.353
 20
360.113
 11
-141.536
 21
359.98
  0
LINE
  8
0
 10
-141.536
 20
359.98
 11
-141.734
 21
359.871
  0
LINE
  8
0
 10
-141.734
 20
359.871
 11
-141.944
 21
359.788
  0
LINE
  8
0
 10
-141.944
 20
359.788
 11
-142.163
 21
359.732
  0
LINE
  8
0
 10
-142.163
 20
359.732
 11
-142.387
 21
359.704
  0
LINE
  8
0
 10
-142.387
 20
359.704
 11
-142.613
 21
359.704
  0
LINE
  8
0
 10
-142.613
 20
134.704
 11
-142.837
 21
134.732
  0
LINE
  8
0
 10
-142.837
 20
134.732
 11
-143.056
 21
134.788
  0
LINE
  8
0
 10
-143.056
 20
134.788
 11
-143.266
 21
134.871
  0
LINE
  8
0
 10
-143.266
 20
134.871
 11
-143.464
 21
134.98
  0
LINE
  8
0
 10
-143.464
 20
134.98
 11
-143.647
 21
135.113
  0
LINE
  8
0
 10
-143.647
 20
135.113
 11
-143.812
 21
135.268
  0
LINE
  8
0
 10
-143.812
 20
135.268
 11
-143.956
 21
135.442
  0
LINE
  8
0
 10
-143.956
 20
135.442
 11
-144.077
 21
135.633
  0
LINE
  8
0
 10
-144.077
 20
135.633
 11
-144.174
 21
135.837
  0
LINE
  8
0
 10
-144.174
 20
135.837
 11
-144.243
 21
136.052
  0
LINE
  8
0
 10
-144.243
 20
136.052
 11
-144.286
 21
136.274
  0
LINE
  8
0
 10
-144.286
 20
136.274
 11
-144.3
 21
136.5
  0
LINE
  8
0
 10
-144.3
 20
136.5
 11
-144.286
 21
136.726
  0
LINE
  8
0
 10
-144.286
 20
136.726
 11
-144.243
 21
136.948
  0
LINE
  8
0
 10
-144.243
 20
136.948
 11
-144.174
 21
137.163
  0
LINE
  8
0
 10
-144.174
 20
137.163
 11
-144.077
 21
137.367
  0
LINE
  8
0
 10
-144.077
 20
137.367
 11
-143.956
 21
137.558
  0
LINE
  8
0
 10
-143.956
 20
137.558
 11
-143.812
 21
137.732
  0
LINE
  8
0
 10
-143.812
 20
137.732
 11
-143.647
 21
137.887
  0
LINE
  8
0
 10
-143.647
 20
137.887
 11
-143.464
 21
138.02
  0
LINE
  8
0
 10
-143.464
 20
138.02
 11
-143.266
 21
138.129
  0
LINE
  8
0
 10
-143.266
 20
138.129
 11
-143.056
 21
138.212
  0
LINE
  8
0
 10
-143.056
 20
138.212
 11
-142.837
 21
138.268
  0
LINE
  8
0
 10
-142.837
 20
138.268
 11
-142.613
 21
138.296
  0
LINE
  8
0
 10
-142.613
 20
138.296
 11
-142.387
 21
138.296
  0
LINE
  8
0
 10
-142.387
 20
138.296
 11
-142.163
 21
138.268
  0
LINE
  8
0
 10
-142.163
 20
138.268
 11
-141.944
 21
138.212
  0
LINE
  8
0
 10
-141.944
 20
138.212
 11
-141.734
 21
138.129
  0
LINE
  8
0
 10
-141.734
 20
138.129
 11
-141.536
 21
138.02
  0
LINE
  8
0
 10
-141.536
 20
138.02
 11
-141.353
 21
137.887
  0
LINE
  8
0
 10
-141.353
 20
137.887
 11
-141.188
 21
137.732
  0
LINE
  8
0
 10
-141.188
 20
137.732
 11
-141.044
 21
137.558
  0
LINE
  8
0
 10
-141.044
 20
137.558
 11
-140.923
 21
137.367
  0
LINE
  8
0
 10
-140.923
 20
137.367
 11
-140.826
 21
137.163
  0
LINE
  8
0
 10
-140.826
 20
137.163
 11
-140.757
 21
136.948
  0
LINE
  8
0
 10
-140.757
 20
136.948
 11
-140.714
 21
136.726
  0
LINE
  8
0
 10
-140.714
 20
136.726
 11
-140.7
 21
136.5
  0
LINE
  8
0
 10
-140.7
 20
136.5
 11
-140.714
 21
136.274
  0
LINE
  8
0
 10
-140.714
 20
136.274
 11
-140.757
 21
136.052
  0
LINE
  8
0
 10
-140.757
 20
136.052
 11
-140.826
 21
135.837
  0
LINE
  8
0
 10
-140.826
 20
135.837
 11
-140.923
 21
135.633
  0
LINE
  8
0
 10
-140.923
 20
135.633
 11
-141.044
 21
135.442
  0
LINE
  8
0
 10
-141.044
 20
135.442
 11
-141.188
 21
135.268
  0
LINE
  8
0
 10
-141.188
 20
135.268
 11
-141.353
 21
135.113
  0
LINE
  8
0
 10
-141.353
 20
135.113
 11
-141.536
 21
134.98
  0
LINE
  8
0
 10
-141.536
 20
134.98
 11
-141.734
 21
134.871
  0
LINE
  8
0
 10
-141.734
 20
134.871
 11
-141.944
 21
134.788
  0
LINE
  8
0
 10
-141.944
 20
134.788
 11
-142.163
 21
134.732
  0
LINE
  8
0
 10
-142.163
 20
134.732
 11
-142.387
 21
134.704
  0
LINE
  8
0
 10
-142.387
 20
134.704
 11
-142.613
 21
134.704
  0
LINE
  8
0
 10
142.387
 20
134.704
 11
142.163
 21
134.732
  0
LINE
  8
0
 10
142.163
 20
134.732
 11
141.944
 21
134.788
  0
LINE
  8
0
 10
141.944
 20
134.788
 11
141.734
 21
134.871
  0
LINE
  8
0
 10
141.734
 20
134.871
 11
141.536
 21
134.98
  0
LINE
  8
0
 10
141.536
 20
134.98
 11
141.353
 21
135.113
  0
LINE
  8
0
 10
141.353
 20
135.113
 11
141.188
 21
135.268
  0
LINE
  8
0
 10
141.188
 20
135.268
 11
141.044
 21
135.442
  0
LINE
  8
0
 10
141.044
 20
135.442
 11
140.923
 21
135.633
  0
LINE
  8
0
 10
140.923
 20
135.633
 11
140.826
 21
135.837
  0
LINE
  8
0
 10
140.826
 20
135.837
 11
140.757
 21
136.052
  0
LINE
  8
0
 10
140.757
 20
136.052
 11
140.714
 21
136.274
  0
LINE
  8
0
 10
140.714
 20
136.274
 11
140.7
 21
136.5
  0
LINE
  8
0
 10
140.7
 20
136.5
 11
140.714
 21
136.726
  0
LINE
  8
0
 10
140.714
 20
136.726
 11
140.757
 21
136.948
  0
LINE
  8
0
 10
140.757
 20
136.948
 11
140.826
 21
137.163
  0
LINE
  8
0
 10
140.826
 20
137.163
 11
140.923
 21
137.367
  0
LINE
  8
0
 10
140.923
 20
137.367
 11
141.044
 21
137.558
  0
LINE
  8
0
 10
141.044
 20
137.558
 11
141.188
 21
137.732
  0
LINE
  8
0
 10
141.188
 20
137.732
 11
141.353
 21
137.887
  0
LINE
  8
0
 10
141.353
 20
137.887
 11
141.536
 21
138.02
  0
LINE
  8
0
 10
141.536
 20
138.02
 11
141.734
 21
138.129
  0
LINE
  8
0
 10
141.734
 20
138.129
 11
141.944
 21
138.212
  0
LINE
  8
0
 10
141.944
 20
138.212
 11
142.163
 21
138.268
  0
LINE
  8
0
 10
142.163
 20
138.268
 11
142.387
 21
138.296
  0
LINE
  8
0
 10
142.387
 20
138.296
 11
142.613
 21
138.296
  0
LINE
  8
0
 10
142.613
 20
138.296
 11
142.837
 21
138.268
  0
LINE
  8
0
 10
142.837
 20
138.268
 11
143.056
 21
138.212
  0
LINE
  8
0
 10
143.056
 20
138.212
 11
143.266
 21
138.129
  0
LINE
  8
0
 10
143.266
 20
138.129
 11
143.464
 21
138.02
  0
LINE
  8
0
 10
143.464
 20
138.02
 11
143.647
 21
137.887
  0
LINE
  8
0
 10
143.647
 20
137.887
 11
143.812
 21
137.732
  0
LINE
  8
0
 10
143.812
 20
137.732
 11
143.956
 21
137.558
  0
LINE
  8
0
 10
143.956
 20
137.558
 11
144.077
 21
137.367
  0
LINE
  8
0
 10
144.077
 20
137.367
 11
144.174
 21
137.163
  0
LINE
  8
0
 10
144.174
 20
137.163
 11
144.243
 21
136.948
  0
LINE
  8
0
 10
144.243
 20
136.948
 11
144.286
 21
136.726
  0
LINE
  8
0
 10
144.286
 20
136.726
 11
144.3
 21
136.5
  0
LINE
  8
0
 10
144.3
 20
136.5
 11
144.286
 21
136.274
  0
LINE
  8
0
 10
144.286
 20
136.274
 11
144.243
 21
136.052
  0
LINE
  8
0
 10
144.243
 20
136.052
 11
144.174
 21
135.837
  0
LINE
  8
0
 10
144.174
 20
135.837
 11
144.077
 21
135.633
  0
LINE
  8
0
 10
144.077
 20
135.633
 11
143.956
 21
135.442
  0
LINE
  8
0
 10
143.956
 20
135.442
 11
143.812
 21
135.268
  0
LINE
  8
0
 10
143.812
 20
135.268
 11
143.647
 21
135.113
  0
LINE
  8
0
 10
143.647
 20
135.113
 11
143.464
 21
134.98
  0
LINE
  8
0
 10
143.464
 20
134.98
 11
143.266
 21
134.871
  0
LINE
  8
0
 10
143.266
 20
134.871
 11
143.056
 21
134.788
  0
LINE
  8
0
 10
143.056
 20
134.788
 11
142.837
 21
134.732
  0
LINE
  8
0
 10
142.837
 20
134.732
 11
142.613
 21
134.704
  0
LINE
  8
0
 10
142.613
 20
134.704
 11
142.387
 21
134.704
  0
ENDSEC
  0
SECTION
  2
OBJECTS
  0
DICTIONARY
  0
ENDSEC
  0
EOF
