<?xml version="1.0" standalone="no"?>
<!DOCTYPE svg PUBLIC "-//W3C//DTD SVG 1.1//EN" "http://www.w3.org/Graphics/SVG/1.1/DTD/svg11.dtd">
<svg width="74mm" height="152mm" viewBox="-52 -130 74 152" xmlns="http://www.w3.org/2000/svg" version="1.1">
<title>OpenSCAD Model</title>
<path d="
M 17.9369,-86.0886 L 18.5451,-86.2447 L 19.1289,-86.4759 L 19.6791,-86.7784 L 20.1871,-87.1474 L 20.6448,-87.5773
 L 21.0451,-88.0611 L 21.3815,-88.5912 L 21.6489,-89.1594 L 21.8429,-89.7566 L 21.9606,-90.3733 L 22,-91
 L 22,-125 L 21.9606,-125.627 L 21.8429,-126.243 L 21.6489,-126.841 L 21.3815,-127.409 L 21.0451,-127.939
 L 20.6448,-128.423 L 20.1871,-128.853 L 19.6791,-129.222 L 19.1289,-129.524 L 18.5451,-129.755 L 17.9369,-129.911
 L 17.3139,-129.99 L -47.3139,-129.99 L -47.9369,-129.911 L -48.5451,-129.755 L -49.1289,-129.524 L -49.6791,-129.222
 L -50.1871,-128.853 L -50.6448,-128.423 L -51.0451,-127.939 L -51.3815,-127.409 L -51.6489,-126.841 L -51.8429,-126.243
 L -51.9606,-125.627 L -52,-125 L -52,-91 L -51.9606,-90.3733 L -51.8429,-89.7566 L -51.6489,-89.1594
 L -51.3815,-88.5912 L -51.0451,-88.0611 L -50.6448,-87.5773 L -50.1871,-87.1474 L -49.6791,-86.7784 L -49.1289,-86.4759
 L -48.5451,-86.2447 L -47.9369,-86.0886 L -47.3139,-86.0099 L 17.3139,-86.0099 z
M -0.113022,-124.204 L -0.33728,-124.232 L -0.556229,-124.288 L -0.766388,-124.371 L -0.964478,-124.48 L -1.14735,-124.613
 L -1.31213,-124.768 L -1.45622,-124.942 L -1.57735,-125.133 L -1.67358,-125.337 L -1.74344,-125.552 L -1.7858,-125.774
 L -1.79999,-126 L -1.7858,-126.226 L -1.74344,-126.448 L -1.67358,-126.663 L -1.57735,-126.867 L -1.45622,-127.058
 L -1.31213,-127.232 L -1.14735,-127.387 L -0.964478,-127.52 L -0.766388,-127.629 L -0.556229,-127.712 L -0.33728,-127.768
 L -0.113022,-127.796 L 0.113022,-127.796 L 0.33728,-127.768 L 0.556229,-127.712 L 0.766388,-127.629 L 0.964478,-127.52
 L 1.14735,-127.387 L 1.31213,-127.232 L 1.45622,-127.058 L 1.57735,-126.867 L 1.67358,-126.663 L 1.74344,-126.448
 L 1.7858,-126.226 L 1.79999,-126 L 1.7858,-125.774 L 1.74344,-125.552 L 1.67358,-125.337 L 1.57735,-125.133
 L 1.45622,-124.942 L 1.31213,-124.768 L 1.14735,-124.613 L 0.964478,-124.48 L 0.766388,-124.371 L 0.556229,-124.288
 L 0.33728,-124.232 L 0.113022,-124.204 z
M 14.8116,-120.006 L 14.4379,-120.053 L 14.0729,-120.147 L 13.7227,-120.286 L 13.3925,-120.467 L 13.0877,-120.688
 L 12.8131,-120.946 L 12.5729,-121.237 L 12.3711,-121.555 L 12.2107,-121.896 L 12.0942,-122.254 L 12.0237,-122.624
 L 12,-123 L 12.0237,-123.376 L 12.0942,-123.746 L 12.2107,-124.104 L 12.3711,-124.445 L 12.5729,-124.763
 L 12.8131,-125.054 L 13.0877,-125.312 L 13.3925,-125.533 L 13.7227,-125.714 L 14.0729,-125.853 L 14.4379,-125.947
 L 14.8116,-125.994 L 15.1884,-125.994 L 15.5621,-125.947 L 15.927,-125.853 L 16.2773,-125.714 L 16.6075,-125.533
 L 16.9123,-125.312 L 17.1869,-125.054 L 17.427,-124.763 L 17.6289,-124.445 L 17.7893,-124.104 L 17.9057,-123.746
 L 17.9763,-123.376 L 18,-123 L 17.9763,-122.624 L 17.9057,-122.254 L 17.7893,-121.896 L 17.6289,-121.555
 L 17.427,-121.237 L 17.1869,-120.946 L 16.9123,-120.688 L 16.6075,-120.467 L 16.2773,-120.286 L 15.927,-120.147
 L 15.5621,-120.053 L 15.1884,-120.006 z
M -15.1884,-120.006 L -15.5621,-120.053 L -15.927,-120.147 L -16.2773,-120.286 L -16.6075,-120.467 L -16.9123,-120.688
 L -17.1869,-120.946 L -17.427,-121.237 L -17.6289,-121.555 L -17.7893,-121.896 L -17.9057,-122.254 L -17.9763,-122.624
 L -18,-123 L -17.9763,-123.376 L -17.9057,-123.746 L -17.7893,-124.104 L -17.6289,-124.445 L -17.427,-124.763
 L -17.1869,-125.054 L -16.9123,-125.312 L -16.6075,-125.533 L -16.2773,-125.714 L -15.927,-125.853 L -15.5621,-125.947
 L -15.1884,-125.994 L -14.8116,-125.994 L -14.4379,-125.947 L -14.0729,-125.853 L -13.7227,-125.714 L -13.3925,-125.533
 L -13.0877,-125.312 L -12.8131,-125.054 L -12.5729,-124.763 L -12.3711,-124.445 L -12.2107,-124.104 L -12.0942,-123.746
 L -12.0237,-123.376 L -12,-123 L -12.0237,-122.624 L -12.0942,-122.254 L -12.2107,-121.896 L -12.3711,-121.555
 L -12.5729,-121.237 L -12.8131,-120.946 L -13.0877,-120.688 L -13.3925,-120.467 L -13.7227,-120.286 L -14.0729,-120.147
 L -14.4379,-120.053 L -14.8116,-120.006 z
M -30.1884,-120.006 L -30.5621,-120.053 L -30.927,-120.147 L -31.2773,-120.286 L -31.6075,-120.467 L -31.9123,-120.688
 L -32.1869,-120.946 L -32.427,-121.237 L -32.6289,-121.555 L -32.7893,-121.896 L -32.9057,-122.254 L -32.9763,-122.624
 L -33,-123 L -32.9763,-123.376 L -32.9057,-123.746 L -32.7893,-124.104 L -32.6289,-124.445 L -32.427,-124.763
 L -32.1869,-125.054 L -31.9123,-125.312 L -31.6075,-125.533 L -31.2773,-125.714 L -30.927,-125.853 L -30.5621,-125.947
 L -30.1884,-125.994 L -29.8116,-125.994 L -29.4379,-125.947 L -29.0729,-125.853 L -28.7227,-125.714 L -28.3925,-125.533
 L -28.0877,-125.312 L -27.8131,-125.054 L -27.5729,-124.763 L -27.3711,-124.445 L -27.2107,-124.104 L -27.0942,-123.746
 L -27.0237,-123.376 L -27,-123 L -27.0237,-122.624 L -27.0942,-122.254 L -27.2107,-121.896 L -27.3711,-121.555
 L -27.5729,-121.237 L -27.8131,-120.946 L -28.0877,-120.688 L -28.3925,-120.467 L -28.7227,-120.286 L -29.0729,-120.147
 L -29.4379,-120.053 L -29.8116,-120.006 z
M -45.1884,-120.006 L -45.5621,-120.053 L -45.927,-120.147 L -46.2773,-120.286 L -46.6075,-120.467 L -46.9123,-120.688
 L -47.1869,-120.946 L -47.427,-121.237 L -47.6289,-121.555 L -47.7893,-121.896 L -47.9057,-122.254 L -47.9763,-122.624
 L -48,-123 L -47.9763,-123.376 L -47.9057,-123.746 L -47.7893,-124.104 L -47.6289,-124.445 L -47.427,-124.763
 L -47.1869,-125.054 L -46.9123,-125.312 L -46.6075,-125.533 L -46.2773,-125.714 L -45.927,-125.853 L -45.5621,-125.947
 L -45.1884,-125.994 L -44.8116,-125.994 L -44.4379,-125.947 L -44.0729,-125.853 L -43.7227,-125.714 L -43.3925,-125.533
 L -43.0877,-125.312 L -42.8131,-125.054 L -42.5729,-124.763 L -42.3711,-124.445 L -42.2107,-124.104 L -42.0942,-123.746
 L -42.0237,-123.376 L -42,-123 L -42.0237,-122.624 L -42.0942,-122.254 L -42.2107,-121.896 L -42.3711,-121.555
 L -42.5729,-121.237 L -42.8131,-120.946 L -43.0877,-120.688 L -43.3925,-120.467 L -43.7227,-120.286 L -44.0729,-120.147
 L -44.4379,-120.053 L -44.8116,-120.006 z
M -37.5942,-121.503 L -37.7811,-121.527 L -37.9635,-121.573 L -38.1387,-121.643 L -38.3037,-121.734 L -38.4561,-121.844
 L -38.5934,-121.973 L -38.7135,-122.118 L -38.8145,-122.277 L -38.8947,-122.448 L -38.9529,-122.627 L -38.9882,-122.812
 L -39,-123 L -38.9882,-123.188 L -38.9529,-123.373 L -38.8947,-123.552 L -38.8145,-123.723 L -38.7135,-123.882
 L -38.5934,-124.027 L -38.4561,-124.156 L -38.3037,-124.266 L -38.1387,-124.357 L -37.9635,-124.427 L -37.7811,-124.473
 L -37.5942,-124.497 L -37.4058,-124.497 L -37.2189,-124.473 L -37.0365,-124.427 L -36.8613,-124.357 L -36.6963,-124.266
 L -36.5439,-124.156 L -36.4065,-124.027 L -36.2865,-123.882 L -36.1855,-123.723 L -36.1053,-123.552 L -36.0471,-123.373
 L -36.0118,-123.188 L -36,-123 L -36.0118,-122.812 L -36.0471,-122.627 L -36.1053,-122.448 L -36.1855,-122.277
 L -36.2865,-122.118 L -36.4065,-121.973 L -36.5439,-121.844 L -36.6963,-121.734 L -36.8613,-121.643 L -37.0365,-121.573
 L -37.2189,-121.527 L -37.4058,-121.503 z
M -22.5942,-121.503 L -22.7811,-121.527 L -22.9635,-121.573 L -23.1387,-121.643 L -23.3037,-121.734 L -23.4561,-121.844
 L -23.5934,-121.973 L -23.7135,-122.118 L -23.8145,-122.277 L -23.8947,-122.448 L -23.9529,-122.627 L -23.9882,-122.812
 L -24,-123 L -23.9882,-123.188 L -23.9529,-123.373 L -23.8947,-123.552 L -23.8145,-123.723 L -23.7135,-123.882
 L -23.5934,-124.027 L -23.4561,-124.156 L -23.3037,-124.266 L -23.1387,-124.357 L -22.9635,-124.427 L -22.7811,-124.473
 L -22.5942,-124.497 L -22.4058,-124.497 L -22.2189,-124.473 L -22.0365,-124.427 L -21.8613,-124.357 L -21.6963,-124.266
 L -21.5439,-124.156 L -21.4065,-124.027 L -21.2865,-123.882 L -21.1855,-123.723 L -21.1053,-123.552 L -21.0471,-123.373
 L -21.0118,-123.188 L -21,-123 L -21.0118,-122.812 L -21.0471,-122.627 L -21.1053,-122.448 L -21.1855,-122.277
 L -21.2865,-122.118 L -21.4065,-121.973 L -21.5439,-121.844 L -21.6963,-121.734 L -21.8613,-121.643 L -22.0365,-121.573
 L -22.2189,-121.527 L -22.4058,-121.503 z
M -0.753479,-96.0237 L -2.24857,-96.2126 L -3.70819,-96.5873 L -5.10934,-97.1421 L -5.30566,-97.25 L -32.25,-97.25
 L -32.25,-118.75 L -5.30566,-118.75 L -5.10934,-118.858 L -3.70819,-119.413 L -2.24857,-119.787 L -0.753479,-119.976
 L 0.753479,-119.976 L 2.24857,-119.787 L 3.70819,-119.413 L 5.10934,-118.858 L 5.30566,-118.75 L 10.25,-118.75
 L 10.25,-114.2 L 10.5157,-113.781 L 11.1573,-112.417 L 11.5017,-111.358 L 11.5017,-114.337 L 14.25,-115.923
 L 16.9983,-114.337 L 16.9983,-111.163 L 14.25,-109.577 L 11.5794,-111.118 L 11.623,-110.984 L 11.9054,-109.504
 L 12,-108 L 11.9054,-106.496 L 11.623,-105.016 L 11.5794,-104.882 L 14.25,-106.423 L 16.9983,-104.837
 L 16.9983,-101.663 L 14.25,-100.077 L 11.5017,-101.663 L 11.5017,-104.642 L 11.1573,-103.583 L 10.5157,-102.219
 L 10.25,-101.8 L 10.25,-97.25 L 5.30566,-97.25 L 5.10934,-97.1421 L 3.70819,-96.5873 L 2.24857,-96.2126
 L 0.753479,-96.0237 z
M -45.0942,-114.003 L -45.2811,-114.027 L -45.4635,-114.073 L -45.6387,-114.143 L -45.8037,-114.234 L -45.9561,-114.344
 L -46.0934,-114.473 L -46.2135,-114.618 L -46.3145,-114.777 L -46.3947,-114.948 L -46.4529,-115.127 L -46.4882,-115.312
 L -46.5,-115.5 L -46.4882,-115.688 L -46.4529,-115.873 L -46.3947,-116.052 L -46.3145,-116.223 L -46.2135,-116.382
 L -46.0934,-116.527 L -45.9561,-116.656 L -45.8037,-116.766 L -45.6387,-116.857 L -45.4635,-116.927 L -45.2811,-116.973
 L -45.0942,-116.997 L -44.9058,-116.997 L -44.7189,-116.973 L -44.5365,-116.927 L -44.3613,-116.857 L -44.1963,-116.766
 L -44.0439,-116.656 L -43.9065,-116.527 L -43.7865,-116.382 L -43.6855,-116.223 L -43.6053,-116.052 L -43.5471,-115.873
 L -43.5118,-115.688 L -43.5,-115.5 L -43.5118,-115.312 L -43.5471,-115.127 L -43.6053,-114.948 L -43.6855,-114.777
 L -43.7865,-114.618 L -43.9065,-114.473 L -44.0439,-114.344 L -44.1963,-114.234 L -44.3613,-114.143 L -44.5365,-114.073
 L -44.7189,-114.027 L -44.9058,-114.003 z
M -38.9983,-111.163 L -38.9983,-114.337 L -36.25,-115.923 L -33.5017,-114.337 L -33.5017,-111.163 L -36.25,-109.577
 z
M -45.1884,-105.006 L -45.5621,-105.053 L -45.927,-105.147 L -46.2773,-105.286 L -46.6075,-105.467 L -46.9123,-105.688
 L -47.1869,-105.946 L -47.427,-106.237 L -47.6289,-106.555 L -47.7893,-106.896 L -47.9057,-107.254 L -47.9763,-107.624
 L -48,-108 L -47.9763,-108.376 L -47.9057,-108.746 L -47.7893,-109.104 L -47.6289,-109.445 L -47.427,-109.763
 L -47.1869,-110.054 L -46.9123,-110.312 L -46.6075,-110.533 L -46.2773,-110.714 L -45.927,-110.853 L -45.5621,-110.947
 L -45.1884,-110.994 L -44.8116,-110.994 L -44.4379,-110.947 L -44.0729,-110.853 L -43.7227,-110.714 L -43.3925,-110.533
 L -43.0877,-110.312 L -42.8131,-110.054 L -42.5729,-109.763 L -42.3711,-109.445 L -42.2107,-109.104 L -42.0942,-108.746
 L -42.0237,-108.376 L -42,-108 L -42.0237,-107.624 L -42.0942,-107.254 L -42.2107,-106.896 L -42.3711,-106.555
 L -42.5729,-106.237 L -42.8131,-105.946 L -43.0877,-105.688 L -43.3925,-105.467 L -43.7227,-105.286 L -44.0729,-105.147
 L -44.4379,-105.053 L -44.8116,-105.006 z
M -38.9983,-101.663 L -38.9983,-104.837 L -36.25,-106.423 L -33.5017,-104.837 L -33.5017,-101.663 L -36.25,-100.077
 z
M -45.0942,-99.003 L -45.2811,-99.0266 L -45.4635,-99.0734 L -45.6387,-99.1428 L -45.8037,-99.2335 L -45.9561,-99.3442
 L -46.0934,-99.4732 L -46.2135,-99.6183 L -46.3145,-99.7774 L -46.3947,-99.9478 L -46.4529,-100.127 L -46.4882,-100.312
 L -46.5,-100.5 L -46.4882,-100.688 L -46.4529,-100.873 L -46.3947,-101.052 L -46.3145,-101.223 L -46.2135,-101.382
 L -46.0934,-101.527 L -45.9561,-101.656 L -45.8037,-101.766 L -45.6387,-101.857 L -45.4635,-101.927 L -45.2811,-101.973
 L -45.0942,-101.997 L -44.9058,-101.997 L -44.7189,-101.973 L -44.5365,-101.927 L -44.3613,-101.857 L -44.1963,-101.766
 L -44.0439,-101.656 L -43.9065,-101.527 L -43.7865,-101.382 L -43.6855,-101.223 L -43.6053,-101.052 L -43.5471,-100.873
 L -43.5118,-100.688 L -43.5,-100.5 L -43.5118,-100.312 L -43.5471,-100.127 L -43.6053,-99.9478 L -43.6855,-99.7774
 L -43.7865,-99.6183 L -43.9065,-99.4732 L -44.0439,-99.3442 L -44.1963,-99.2335 L -44.3613,-99.1428 L -44.5365,-99.0734
 L -44.7189,-99.0266 L -44.9058,-99.003 z
M -30.1884,-90.0059 L -30.5621,-90.0531 L -30.927,-90.1468 L -31.2773,-90.2855 L -31.6075,-90.467 L -31.9123,-90.6885
 L -32.1869,-90.9464 L -32.427,-91.2366 L -32.6289,-91.5547 L -32.7893,-91.8956 L -32.9057,-92.2539 L -32.9763,-92.624
 L -33,-93 L -32.9763,-93.376 L -32.9057,-93.7461 L -32.7893,-94.1044 L -32.6289,-94.4453 L -32.427,-94.7634
 L -32.1869,-95.0536 L -31.9123,-95.3116 L -31.6075,-95.533 L -31.2773,-95.7145 L -30.927,-95.8532 L -30.5621,-95.9469
 L -30.1884,-95.9941 L -29.8116,-95.9941 L -29.4379,-95.9469 L -29.0729,-95.8532 L -28.7227,-95.7145 L -28.3925,-95.533
 L -28.0877,-95.3116 L -27.8131,-95.0536 L -27.5729,-94.7634 L -27.3711,-94.4453 L -27.2107,-94.1044 L -27.0942,-93.7461
 L -27.0237,-93.376 L -27,-93 L -27.0237,-92.624 L -27.0942,-92.2539 L -27.2107,-91.8956 L -27.3711,-91.5547
 L -27.5729,-91.2366 L -27.8131,-90.9464 L -28.0877,-90.6885 L -28.3925,-90.467 L -28.7227,-90.2855 L -29.0729,-90.1468
 L -29.4379,-90.0531 L -29.8116,-90.0059 z
M 14.8116,-90.0059 L 14.4379,-90.0531 L 14.0729,-90.1468 L 13.7227,-90.2855 L 13.3925,-90.467 L 13.0877,-90.6885
 L 12.8131,-90.9464 L 12.5729,-91.2366 L 12.3711,-91.5547 L 12.2107,-91.8956 L 12.0942,-92.2539 L 12.0237,-92.624
 L 12,-93 L 12.0237,-93.376 L 12.0942,-93.7461 L 12.2107,-94.1044 L 12.3711,-94.4453 L 12.5729,-94.7634
 L 12.8131,-95.0536 L 13.0877,-95.3116 L 13.3925,-95.533 L 13.7227,-95.7145 L 14.0729,-95.8532 L 14.4379,-95.9469
 L 14.8116,-95.9941 L 15.1884,-95.9941 L 15.5621,-95.9469 L 15.927,-95.8532 L 16.2773,-95.7145 L 16.6075,-95.533
 L 16.9123,-95.3116 L 17.1869,-95.0536 L 17.427,-94.7634 L 17.6289,-94.4453 L 17.7893,-94.1044 L 17.9057,-93.7461
 L 17.9763,-93.376 L 18,-93 L 17.9763,-92.624 L 17.9057,-92.2539 L 17.7893,-91.8956 L 17.6289,-91.5547
 L 17.427,-91.2366 L 17.1869,-90.9464 L 16.9123,-90.6885 L 16.6075,-90.467 L 16.2773,-90.2855 L 15.927,-90.1468
 L 15.5621,-90.0531 L 15.1884,-90.0059 z
M -45.1884,-90.0059 L -45.5621,-90.0531 L -45.927,-90.1468 L -46.2773,-90.2855 L -46.6075,-90.467 L -46.9123,-90.6885
 L -47.1869,-90.9464 L -47.427,-91.2366 L -47.6289,-91.5547 L -47.7893,-91.8956 L -47.9057,-92.2539 L -47.9763,-92.624
 L -48,-93 L -47.9763,-93.376 L -47.9057,-93.7461 L -47.7893,-94.1044 L -47.6289,-94.4453 L -47.427,-94.7634
 L -47.1869,-95.0536 L -46.9123,-95.3116 L -46.6075,-95.533 L -46.2773,-95.7145 L -45.927,-95.8532 L -45.5621,-95.9469
 L -45.1884,-95.9941 L -44.8116,-95.9941 L -44.4379,-95.9469 L -44.0729,-95.8532 L -43.7227,-95.7145 L -43.3925,-95.533
 L -43.0877,-95.3116 L -42.8131,-95.0536 L -42.5729,-94.7634 L -42.3711,-94.4453 L -42.2107,-94.1044 L -42.0942,-93.7461
 L -42.0237,-93.376 L -42,-93 L -42.0237,-92.624 L -42.0942,-92.2539 L -42.2107,-91.8956 L -42.3711,-91.5547
 L -42.5729,-91.2366 L -42.8131,-90.9464 L -43.0877,-90.6885 L -43.3925,-90.467 L -43.7227,-90.2855 L -44.0729,-90.1468
 L -44.4379,-90.0531 L -44.8116,-90.0059 z
M -15.1884,-90.0059 L -15.5621,-90.0531 L -15.927,-90.1468 L -16.2773,-90.2855 L -16.6075,-90.467 L -16.9123,-90.6885
 L -17.1869,-90.9464 L -17.427,-91.2366 L -17.6289,-91.5547 L -17.7893,-91.8956 L -17.9057,-92.2539 L -17.9763,-92.624
 L -18,-93 L -17.9763,-93.376 L -17.9057,-93.7461 L -17.7893,-94.1044 L -17.6289,-94.4453 L -17.427,-94.7634
 L -17.1869,-95.0536 L -16.9123,-95.3116 L -16.6075,-95.533 L -16.2773,-95.7145 L -15.927,-95.8532 L -15.5621,-95.9469
 L -15.1884,-95.9941 L -14.8116,-95.9941 L -14.4379,-95.9469 L -14.0729,-95.8532 L -13.7227,-95.7145 L -13.3925,-95.533
 L -13.0877,-95.3116 L -12.8131,-95.0536 L -12.5729,-94.7634 L -12.3711,-94.4453 L -12.2107,-94.1044 L -12.0942,-93.7461
 L -12.0237,-93.376 L -12,-93 L -12.0237,-92.624 L -12.0942,-92.2539 L -12.2107,-91.8956 L -12.3711,-91.5547
 L -12.5729,-91.2366 L -12.8131,-90.9464 L -13.0877,-90.6885 L -13.3925,-90.467 L -13.7227,-90.2855 L -14.0729,-90.1468
 L -14.4379,-90.0531 L -14.8116,-90.0059 z
M -37.5942,-91.503 L -37.7811,-91.5266 L -37.9635,-91.5734 L -38.1387,-91.6428 L -38.3037,-91.7335 L -38.4561,-91.8442
 L -38.5934,-91.9732 L -38.7135,-92.1183 L -38.8145,-92.2774 L -38.8947,-92.4478 L -38.9529,-92.627 L -38.9882,-92.812
 L -39,-93 L -38.9882,-93.188 L -38.9529,-93.373 L -38.8947,-93.5522 L -38.8145,-93.7226 L -38.7135,-93.8817
 L -38.5934,-94.0268 L -38.4561,-94.1558 L -38.3037,-94.2665 L -38.1387,-94.3573 L -37.9635,-94.4266 L -37.7811,-94.4734
 L -37.5942,-94.4971 L -37.4058,-94.4971 L -37.2189,-94.4734 L -37.0365,-94.4266 L -36.8613,-94.3573 L -36.6963,-94.2665
 L -36.5439,-94.1558 L -36.4065,-94.0268 L -36.2865,-93.8817 L -36.1855,-93.7226 L -36.1053,-93.5522 L -36.0471,-93.373
 L -36.0118,-93.188 L -36,-93 L -36.0118,-92.812 L -36.0471,-92.627 L -36.1053,-92.4478 L -36.1855,-92.2774
 L -36.2865,-92.1183 L -36.4065,-91.9732 L -36.5439,-91.8442 L -36.6963,-91.7335 L -36.8613,-91.6428 L -37.0365,-91.5734
 L -37.2189,-91.5266 L -37.4058,-91.503 z
M -22.5942,-91.503 L -22.7811,-91.5266 L -22.9635,-91.5734 L -23.1387,-91.6428 L -23.3037,-91.7335 L -23.4561,-91.8442
 L -23.5934,-91.9732 L -23.7135,-92.1183 L -23.8145,-92.2774 L -23.8947,-92.4478 L -23.9529,-92.627 L -23.9882,-92.812
 L -24,-93 L -23.9882,-93.188 L -23.9529,-93.373 L -23.8947,-93.5522 L -23.8145,-93.7226 L -23.7135,-93.8817
 L -23.5934,-94.0268 L -23.4561,-94.1558 L -23.3037,-94.2665 L -23.1387,-94.3573 L -22.9635,-94.4266 L -22.7811,-94.4734
 L -22.5942,-94.4971 L -22.4058,-94.4971 L -22.2189,-94.4734 L -22.0365,-94.4266 L -21.8613,-94.3573 L -21.6963,-94.2665
 L -21.5439,-94.1558 L -21.4065,-94.0268 L -21.2865,-93.8817 L -21.1855,-93.7226 L -21.1053,-93.5522 L -21.0471,-93.373
 L -21.0118,-93.188 L -21,-93 L -21.0118,-92.812 L -21.0471,-92.627 L -21.1053,-92.4478 L -21.1855,-92.2774
 L -21.2865,-92.1183 L -21.4065,-91.9732 L -21.5439,-91.8442 L -21.6963,-91.7335 L -21.8613,-91.6428 L -22.0365,-91.5734
 L -22.2189,-91.5266 L -22.4058,-91.503 z
M -0.113022,-88.2036 L -0.33728,-88.2319 L -0.556229,-88.2881 L -0.766388,-88.3713 L -0.964478,-88.4802 L -1.14735,-88.6131
 L -1.31213,-88.7678 L -1.45622,-88.942 L -1.57735,-89.1328 L -1.67358,-89.3374 L -1.74344,-89.5524 L -1.7858,-89.7744
 L -1.79999,-90 L -1.7858,-90.2256 L -1.74344,-90.4476 L -1.67358,-90.6626 L -1.57735,-90.8672 L -1.45622,-91.058
 L -1.31213,-91.2322 L -1.14735,-91.3869 L -0.964478,-91.5198 L -0.766388,-91.6287 L -0.556229,-91.7119 L -0.33728,-91.7681
 L -0.113022,-91.7964 L 0.113022,-91.7964 L 0.33728,-91.7681 L 0.556229,-91.7119 L 0.766388,-91.6287 L 0.964478,-91.5198
 L 1.14735,-91.3869 L 1.31213,-91.2322 L 1.45622,-91.058 L 1.57735,-90.8672 L 1.67358,-90.6626 L 1.74344,-90.4476
 L 1.7858,-90.2256 L 1.79999,-90 L 1.7858,-89.7744 L 1.74344,-89.5524 L 1.67358,-89.3374 L 1.57735,-89.1328
 L 1.45622,-88.942 L 1.31213,-88.7678 L 1.14735,-88.6131 L 0.964478,-88.4802 L 0.766388,-88.3713 L 0.556229,-88.2881
 L 0.33728,-88.2319 L 0.113022,-88.2036 z
M 17.9369,-32.0886 L 18.5451,-32.2447 L 19.1289,-32.4759 L 19.6791,-32.7784 L 20.1871,-33.1474 L 20.6448,-33.5773
 L 21.0451,-34.0611 L 21.3815,-34.5912 L 21.6489,-35.1594 L 21.8429,-35.7566 L 21.9606,-36.3733 L 22,-37
 L 22,-71 L 21.9606,-71.6267 L 21.8429,-72.2434 L 21.6489,-72.8406 L 21.3815,-73.4088 L 21.0451,-73.9389
 L 20.6448,-74.4227 L 20.1871,-74.8526 L 19.6791,-75.2216 L 19.1289,-75.5241 L 18.5451,-75.7553 L 17.9369,-75.9114
 L 17.3139,-75.9901 L -47.3139,-75.9901 L -47.9369,-75.9114 L -48.5451,-75.7553 L -49.1289,-75.5241 L -49.6791,-75.2216
 L -50.1871,-74.8526 L -50.6448,-74.4227 L -51.0451,-73.9389 L -51.3815,-73.4088 L -51.6489,-72.8406 L -51.8429,-72.2434
 L -51.9606,-71.6267 L -52,-71 L -52,-37 L -51.9606,-36.3733 L -51.8429,-35.7566 L -51.6489,-35.1594
 L -51.3815,-34.5912 L -51.0451,-34.0611 L -50.6448,-33.5773 L -50.1871,-33.1474 L -49.6791,-32.7784 L -49.1289,-32.4759
 L -48.5451,-32.2447 L -47.9369,-32.0886 L -47.3139,-32.0099 L 17.3139,-32.0099 z
M -0.113022,-70.2036 L -0.33728,-70.2319 L -0.556229,-70.2881 L -0.766388,-70.3713 L -0.964478,-70.4802 L -1.14735,-70.6131
 L -1.31213,-70.7678 L -1.45622,-70.942 L -1.57735,-71.1328 L -1.67358,-71.3374 L -1.74344,-71.5524 L -1.7858,-71.7744
 L -1.79999,-72 L -1.7858,-72.2256 L -1.74344,-72.4476 L -1.67358,-72.6626 L -1.57735,-72.8672 L -1.45622,-73.058
 L -1.31213,-73.2322 L -1.14735,-73.3869 L -0.964478,-73.5198 L -0.766388,-73.6287 L -0.556229,-73.7119 L -0.33728,-73.7681
 L -0.113022,-73.7964 L 0.113022,-73.7964 L 0.33728,-73.7681 L 0.556229,-73.7119 L 0.766388,-73.6287 L 0.964478,-73.5198
 L 1.14735,-73.3869 L 1.31213,-73.2322 L 1.45622,-73.058 L 1.57735,-72.8672 L 1.67358,-72.6626 L 1.74344,-72.4476
 L 1.7858,-72.2256 L 1.79999,-72 L 1.7858,-71.7744 L 1.74344,-71.5524 L 1.67358,-71.3374 L 1.57735,-71.1328
 L 1.45622,-70.942 L 1.31213,-70.7678 L 1.14735,-70.6131 L 0.964478,-70.4802 L 0.766388,-70.3713 L 0.556229,-70.2881
 L 0.33728,-70.2319 L 0.113022,-70.2036 z
M 14.8116,-66.0059 L 14.4379,-66.0531 L 14.0729,-66.1468 L 13.7227,-66.2855 L 13.3925,-66.467 L 13.0877,-66.6884
 L 12.8131,-66.9464 L 12.5729,-67.2366 L 12.3711,-67.5547 L 12.2107,-67.8956 L 12.0942,-68.2539 L 12.0237,-68.624
 L 12,-69 L 12.0237,-69.376 L 12.0942,-69.7461 L 12.2107,-70.1044 L 12.3711,-70.4453 L 12.5729,-70.7634
 L 12.8131,-71.0536 L 13.0877,-71.3115 L 13.3925,-71.533 L 13.7227,-71.7145 L 14.0729,-71.8532 L 14.4379,-71.9469
 L 14.8116,-71.9941 L 15.1884,-71.9941 L 15.5621,-71.9469 L 15.927,-71.8532 L 16.2773,-71.7145 L 16.6075,-71.533
 L 16.9123,-71.3115 L 17.1869,-71.0536 L 17.427,-70.7634 L 17.6289,-70.4453 L 17.7893,-70.1044 L 17.9057,-69.7461
 L 17.9763,-69.376 L 18,-69 L 17.9763,-68.624 L 17.9057,-68.2539 L 17.7893,-67.8956 L 17.6289,-67.5547
 L 17.427,-67.2366 L 17.1869,-66.9464 L 16.9123,-66.6884 L 16.6075,-66.467 L 16.2773,-66.2855 L 15.927,-66.1468
 L 15.5621,-66.0531 L 15.1884,-66.0059 z
M -15.1884,-66.0059 L -15.5621,-66.0531 L -15.927,-66.1468 L -16.2773,-66.2855 L -16.6075,-66.467 L -16.9123,-66.6884
 L -17.1869,-66.9464 L -17.427,-67.2366 L -17.6289,-67.5547 L -17.7893,-67.8956 L -17.9057,-68.2539 L -17.9763,-68.624
 L -18,-69 L -17.9763,-69.376 L -17.9057,-69.7461 L -17.7893,-70.1044 L -17.6289,-70.4453 L -17.427,-70.7634
 L -17.1869,-71.0536 L -16.9123,-71.3115 L -16.6075,-71.533 L -16.2773,-71.7145 L -15.927,-71.8532 L -15.5621,-71.9469
 L -15.1884,-71.9941 L -14.8116,-71.9941 L -14.4379,-71.9469 L -14.0729,-71.8532 L -13.7227,-71.7145 L -13.3925,-71.533
 L -13.0877,-71.3115 L -12.8131,-71.0536 L -12.5729,-70.7634 L -12.3711,-70.4453 L -12.2107,-70.1044 L -12.0942,-69.7461
 L -12.0237,-69.376 L -12,-69 L -12.0237,-68.624 L -12.0942,-68.2539 L -12.2107,-67.8956 L -12.3711,-67.5547
 L -12.5729,-67.2366 L -12.8131,-66.9464 L -13.0877,-66.6884 L -13.3925,-66.467 L -13.7227,-66.2855 L -14.0729,-66.1468
 L -14.4379,-66.0531 L -14.8116,-66.0059 z
M -30.1884,-66.0059 L -30.5621,-66.0531 L -30.927,-66.1468 L -31.2773,-66.2855 L -31.6075,-66.467 L -31.9123,-66.6884
 L -32.1869,-66.9464 L -32.427,-67.2366 L -32.6289,-67.5547 L -32.7893,-67.8956 L -32.9057,-68.2539 L -32.9763,-68.624
 L -33,-69 L -32.9763,-69.376 L -32.9057,-69.7461 L -32.7893,-70.1044 L -32.6289,-70.4453 L -32.427,-70.7634
 L -32.1869,-71.0536 L -31.9123,-71.3115 L -31.6075,-71.533 L -31.2773,-71.7145 L -30.927,-71.8532 L -30.5621,-71.9469
 L -30.1884,-71.9941 L -29.8116,-71.9941 L -29.4379,-71.9469 L -29.0729,-71.8532 L -28.7227,-71.7145 L -28.3925,-71.533
 L -28.0877,-71.3115 L -27.8131,-71.0536 L -27.5729,-70.7634 L -27.3711,-70.4453 L -27.2107,-70.1044 L -27.0942,-69.7461
 L -27.0237,-69.376 L -27,-69 L -27.0237,-68.624 L -27.0942,-68.2539 L -27.2107,-67.8956 L -27.3711,-67.5547
 L -27.5729,-67.2366 L -27.8131,-66.9464 L -28.0877,-66.6884 L -28.3925,-66.467 L -28.7227,-66.2855 L -29.0729,-66.1468
 L -29.4379,-66.0531 L -29.8116,-66.0059 z
M -45.1884,-66.0059 L -45.5621,-66.0531 L -45.927,-66.1468 L -46.2773,-66.2855 L -46.6075,-66.467 L -46.9123,-66.6884
 L -47.1869,-66.9464 L -47.427,-67.2366 L -47.6289,-67.5547 L -47.7893,-67.8956 L -47.9057,-68.2539 L -47.9763,-68.624
 L -48,-69 L -47.9763,-69.376 L -47.9057,-69.7461 L -47.7893,-70.1044 L -47.6289,-70.4453 L -47.427,-70.7634
 L -47.1869,-71.0536 L -46.9123,-71.3115 L -46.6075,-71.533 L -46.2773,-71.7145 L -45.927,-71.8532 L -45.5621,-71.9469
 L -45.1884,-71.9941 L -44.8116,-71.9941 L -44.4379,-71.9469 L -44.0729,-71.8532 L -43.7227,-71.7145 L -43.3925,-71.533
 L -43.0877,-71.3115 L -42.8131,-71.0536 L -42.5729,-70.7634 L -42.3711,-70.4453 L -42.2107,-70.1044 L -42.0942,-69.7461
 L -42.0237,-69.376 L -42,-69 L -42.0237,-68.624 L -42.0942,-68.2539 L -42.2107,-67.8956 L -42.3711,-67.5547
 L -42.5729,-67.2366 L -42.8131,-66.9464 L -43.0877,-66.6884 L -43.3925,-66.467 L -43.7227,-66.2855 L -44.0729,-66.1468
 L -44.4379,-66.0531 L -44.8116,-66.0059 z
M -37.5942,-67.5029 L -37.7811,-67.5266 L -37.9635,-67.5734 L -38.1387,-67.6427 L -38.3037,-67.7335 L -38.4561,-67.8442
 L -38.5934,-67.9732 L -38.7135,-68.1183 L -38.8145,-68.2774 L -38.8947,-68.4478 L -38.9529,-68.627 L -38.9882,-68.812
 L -39,-69 L -38.9882,-69.188 L -38.9529,-69.373 L -38.8947,-69.5522 L -38.8145,-69.7226 L -38.7135,-69.8817
 L -38.5934,-70.0268 L -38.4561,-70.1558 L -38.3037,-70.2665 L -38.1387,-70.3572 L -37.9635,-70.4266 L -37.7811,-70.4734
 L -37.5942,-70.497 L -37.4058,-70.497 L -37.2189,-70.4734 L -37.0365,-70.4266 L -36.8613,-70.3572 L -36.6963,-70.2665
 L -36.5439,-70.1558 L -36.4065,-70.0268 L -36.2865,-69.8817 L -36.1855,-69.7226 L -36.1053,-69.5522 L -36.0471,-69.373
 L -36.0118,-69.188 L -36,-69 L -36.0118,-68.812 L -36.0471,-68.627 L -36.1053,-68.4478 L -36.1855,-68.2774
 L -36.2865,-68.1183 L -36.4065,-67.9732 L -36.5439,-67.8442 L -36.6963,-67.7335 L -36.8613,-67.6427 L -37.0365,-67.5734
 L -37.2189,-67.5266 L -37.4058,-67.5029 z
M -22.5942,-67.5029 L -22.7811,-67.5266 L -22.9635,-67.5734 L -23.1387,-67.6427 L -23.3037,-67.7335 L -23.4561,-67.8442
 L -23.5934,-67.9732 L -23.7135,-68.1183 L -23.8145,-68.2774 L -23.8947,-68.4478 L -23.9529,-68.627 L -23.9882,-68.812
 L -24,-69 L -23.9882,-69.188 L -23.9529,-69.373 L -23.8947,-69.5522 L -23.8145,-69.7226 L -23.7135,-69.8817
 L -23.5934,-70.0268 L -23.4561,-70.1558 L -23.3037,-70.2665 L -23.1387,-70.3572 L -22.9635,-70.4266 L -22.7811,-70.4734
 L -22.5942,-70.497 L -22.4058,-70.497 L -22.2189,-70.4734 L -22.0365,-70.4266 L -21.8613,-70.3572 L -21.6963,-70.2665
 L -21.5439,-70.1558 L -21.4065,-70.0268 L -21.2865,-69.8817 L -21.1855,-69.7226 L -21.1053,-69.5522 L -21.0471,-69.373
 L -21.0118,-69.188 L -21,-69 L -21.0118,-68.812 L -21.0471,-68.627 L -21.1053,-68.4478 L -21.1855,-68.2774
 L -21.2865,-68.1183 L -21.4065,-67.9732 L -21.5439,-67.8442 L -21.6963,-67.7335 L -21.8613,-67.6427 L -22.0365,-67.5734
 L -22.2189,-67.5266 L -22.4058,-67.5029 z
M -0.753479,-42.0237 L -2.24857,-42.2126 L -3.70819,-42.5873 L -5.10934,-43.1421 L -5.30566,-43.25 L -32.25,-43.25
 L -32.25,-64.75 L -5.30566,-64.75 L -5.10934,-64.8579 L -3.70819,-65.4127 L -2.24857,-65.7874 L -0.753479,-65.9763
 L 0.753479,-65.9763 L 2.24857,-65.7874 L 3.70819,-65.4127 L 5.10934,-64.8579 L 5.30566,-64.75 L 10.25,-64.75
 L 10.25,-60.1997 L 10.5157,-59.781 L 11.1573,-58.4175 L 11.5017,-57.3577 L 11.5017,-60.3367 L 14.25,-61.9235
 L 16.9983,-60.3367 L 16.9983,-57.1633 L 14.25,-55.5765 L 11.5794,-57.1183 L 11.623,-56.9843 L 11.9054,-55.504
 L 12,-54 L 11.9054,-52.496 L 11.623,-51.0157 L 11.5794,-50.8816 L 14.25,-52.4235 L 16.9983,-50.8367
 L 16.9983,-47.6633 L 14.25,-46.0765 L 11.5017,-47.6633 L 11.5017,-50.6423 L 11.1573,-49.5825 L 10.5157,-48.219
 L 10.25,-47.8003 L 10.25,-43.25 L 5.30566,-43.25 L 5.10934,-43.1421 L 3.70819,-42.5873 L 2.24857,-42.2126
 L 0.753479,-42.0237 z
M -45.0942,-60.0029 L -45.2811,-60.0266 L -45.4635,-60.0734 L -45.6387,-60.1427 L -45.8037,-60.2335 L -45.9561,-60.3442
 L -46.0934,-60.4732 L -46.2135,-60.6183 L -46.3145,-60.7774 L -46.3947,-60.9478 L -46.4529,-61.127 L -46.4882,-61.312
 L -46.5,-61.5 L -46.4882,-61.688 L -46.4529,-61.873 L -46.3947,-62.0522 L -46.3145,-62.2226 L -46.2135,-62.3817
 L -46.0934,-62.5268 L -45.9561,-62.6558 L -45.8037,-62.7665 L -45.6387,-62.8572 L -45.4635,-62.9266 L -45.2811,-62.9734
 L -45.0942,-62.997 L -44.9058,-62.997 L -44.7189,-62.9734 L -44.5365,-62.9266 L -44.3613,-62.8572 L -44.1963,-62.7665
 L -44.0439,-62.6558 L -43.9065,-62.5268 L -43.7865,-62.3817 L -43.6855,-62.2226 L -43.6053,-62.0522 L -43.5471,-61.873
 L -43.5118,-61.688 L -43.5,-61.5 L -43.5118,-61.312 L -43.5471,-61.127 L -43.6053,-60.9478 L -43.6855,-60.7774
 L -43.7865,-60.6183 L -43.9065,-60.4732 L -44.0439,-60.3442 L -44.1963,-60.2335 L -44.3613,-60.1427 L -44.5365,-60.0734
 L -44.7189,-60.0266 L -44.9058,-60.0029 z
M -38.9983,-57.1633 L -38.9983,-60.3367 L -36.25,-61.9235 L -33.5017,-60.3367 L -33.5017,-57.1633 L -36.25,-55.5765
 z
M -45.1884,-51.0059 L -45.5621,-51.0531 L -45.927,-51.1468 L -46.2773,-51.2855 L -46.6075,-51.467 L -46.9123,-51.6885
 L -47.1869,-51.9464 L -47.427,-52.2366 L -47.6289,-52.5547 L -47.7893,-52.8956 L -47.9057,-53.2539 L -47.9763,-53.624
 L -48,-54 L -47.9763,-54.376 L -47.9057,-54.7461 L -47.7893,-55.1044 L -47.6289,-55.4453 L -47.427,-55.7634
 L -47.1869,-56.0536 L -46.9123,-56.3115 L -46.6075,-56.533 L -46.2773,-56.7145 L -45.927,-56.8532 L -45.5621,-56.9469
 L -45.1884,-56.9941 L -44.8116,-56.9941 L -44.4379,-56.9469 L -44.0729,-56.8532 L -43.7227,-56.7145 L -43.3925,-56.533
 L -43.0877,-56.3115 L -42.8131,-56.0536 L -42.5729,-55.7634 L -42.3711,-55.4453 L -42.2107,-55.1044 L -42.0942,-54.7461
 L -42.0237,-54.376 L -42,-54 L -42.0237,-53.624 L -42.0942,-53.2539 L -42.2107,-52.8956 L -42.3711,-52.5547
 L -42.5729,-52.2366 L -42.8131,-51.9464 L -43.0877,-51.6885 L -43.3925,-51.467 L -43.7227,-51.2855 L -44.0729,-51.1468
 L -44.4379,-51.0531 L -44.8116,-51.0059 z
M -38.9983,-47.6633 L -38.9983,-50.8367 L -36.25,-52.4235 L -33.5017,-50.8367 L -33.5017,-47.6633 L -36.25,-46.0765
 z
M -45.0942,-45.003 L -45.2811,-45.0266 L -45.4635,-45.0734 L -45.6387,-45.1428 L -45.8037,-45.2335 L -45.9561,-45.3442
 L -46.0934,-45.4732 L -46.2135,-45.6183 L -46.3145,-45.7774 L -46.3947,-45.9478 L -46.4529,-46.127 L -46.4882,-46.312
 L -46.5,-46.5 L -46.4882,-46.688 L -46.4529,-46.873 L -46.3947,-47.0522 L -46.3145,-47.2226 L -46.2135,-47.3817
 L -46.0934,-47.5268 L -45.9561,-47.6558 L -45.8037,-47.7665 L -45.6387,-47.8573 L -45.4635,-47.9266 L -45.2811,-47.9734
 L -45.0942,-47.9971 L -44.9058,-47.9971 L -44.7189,-47.9734 L -44.5365,-47.9266 L -44.3613,-47.8573 L -44.1963,-47.7665
 L -44.0439,-47.6558 L -43.9065,-47.5268 L -43.7865,-47.3817 L -43.6855,-47.2226 L -43.6053,-47.0522 L -43.5471,-46.873
 L -43.5118,-46.688 L -43.5,-46.5 L -43.5118,-46.312 L -43.5471,-46.127 L -43.6053,-45.9478 L -43.6855,-45.7774
 L -43.7865,-45.6183 L -43.9065,-45.4732 L -44.0439,-45.3442 L -44.1963,-45.2335 L -44.3613,-45.1428 L -44.5365,-45.0734
 L -44.7189,-45.0266 L -44.9058,-45.003 z
M 14.8116,-36.0059 L 14.4379,-36.0531 L 14.0729,-36.1468 L 13.7227,-36.2855 L 13.3925,-36.467 L 13.0877,-36.6885
 L 12.8131,-36.9464 L 12.5729,-37.2366 L 12.3711,-37.5547 L 12.2107,-37.8956 L 12.0942,-38.2539 L 12.0237,-38.624
 L 12,-39 L 12.0237,-39.376 L 12.0942,-39.7461 L 12.2107,-40.1044 L 12.3711,-40.4453 L 12.5729,-40.7634
 L 12.8131,-41.0536 L 13.0877,-41.3116 L 13.3925,-41.533 L 13.7227,-41.7145 L 14.0729,-41.8532 L 14.4379,-41.9469
 L 14.8116,-41.9941 L 15.1884,-41.9941 L 15.5621,-41.9469 L 15.927,-41.8532 L 16.2773,-41.7145 L 16.6075,-41.533
 L 16.9123,-41.3116 L 17.1869,-41.0536 L 17.427,-40.7634 L 17.6289,-40.4453 L 17.7893,-40.1044 L 17.9057,-39.7461
 L 17.9763,-39.376 L 18,-39 L 17.9763,-38.624 L 17.9057,-38.2539 L 17.7893,-37.8956 L 17.6289,-37.5547
 L 17.427,-37.2366 L 17.1869,-36.9464 L 16.9123,-36.6885 L 16.6075,-36.467 L 16.2773,-36.2855 L 15.927,-36.1468
 L 15.5621,-36.0531 L 15.1884,-36.0059 z
M -30.1884,-36.0059 L -30.5621,-36.0531 L -30.927,-36.1468 L -31.2773,-36.2855 L -31.6075,-36.467 L -31.9123,-36.6885
 L -32.1869,-36.9464 L -32.427,-37.2366 L -32.6289,-37.5547 L -32.7893,-37.8956 L -32.9057,-38.2539 L -32.9763,-38.624
 L -33,-39 L -32.9763,-39.376 L -32.9057,-39.7461 L -32.7893,-40.1044 L -32.6289,-40.4453 L -32.427,-40.7634
 L -32.1869,-41.0536 L -31.9123,-41.3116 L -31.6075,-41.533 L -31.2773,-41.7145 L -30.927,-41.8532 L -30.5621,-41.9469
 L -30.1884,-41.9941 L -29.8116,-41.9941 L -29.4379,-41.9469 L -29.0729,-41.8532 L -28.7227,-41.7145 L -28.3925,-41.533
 L -28.0877,-41.3116 L -27.8131,-41.0536 L -27.5729,-40.7634 L -27.3711,-40.4453 L -27.2107,-40.1044 L -27.0942,-39.7461
 L -27.0237,-39.376 L -27,-39 L -27.0237,-38.624 L -27.0942,-38.2539 L -27.2107,-37.8956 L -27.3711,-37.5547
 L -27.5729,-37.2366 L -27.8131,-36.9464 L -28.0877,-36.6885 L -28.3925,-36.467 L -28.7227,-36.2855 L -29.0729,-36.1468
 L -29.4379,-36.0531 L -29.8116,-36.0059 z
M -45.1884,-36.0059 L -45.5621,-36.0531 L -45.927,-36.1468 L -46.2773,-36.2855 L -46.6075,-36.467 L -46.9123,-36.6885
 L -47.1869,-36.9464 L -47.427,-37.2366 L -47.6289,-37.5547 L -47.7893,-37.8956 L -47.9057,-38.2539 L -47.9763,-38.624
 L -48,-39 L -47.9763,-39.376 L -47.9057,-39.7461 L -47.7893,-40.1044 L -47.6289,-40.4453 L -47.427,-40.7634
 L -47.1869,-41.0536 L -46.9123,-41.3116 L -46.6075,-41.533 L -46.2773,-41.7145 L -45.927,-41.8532 L -45.5621,-41.9469
 L -45.1884,-41.9941 L -44.8116,-41.9941 L -44.4379,-41.9469 L -44.0729,-41.8532 L -43.7227,-41.7145 L -43.3925,-41.533
 L -43.0877,-41.3116 L -42.8131,-41.0536 L -42.5729,-40.7634 L -42.3711,-40.4453 L -42.2107,-40.1044 L -42.0942,-39.7461
 L -42.0237,-39.376 L -42,-39 L -42.0237,-38.624 L -42.0942,-38.2539 L -42.2107,-37.8956 L -42.3711,-37.5547
 L -42.5729,-37.2366 L -42.8131,-36.9464 L -43.0877,-36.6885 L -43.3925,-36.467 L -43.7227,-36.2855 L -44.0729,-36.1468
 L -44.4379,-36.0531 L -44.8116,-36.0059 z
M -15.1884,-36.0059 L -15.5621,-36.0531 L -15.927,-36.1468 L -16.2773,-36.2855 L -16.6075,-36.467 L -16.9123,-36.6885
 L -17.1869,-36.9464 L -17.427,-37.2366 L -17.6289,-37.5547 L -17.7893,-37.8956 L -17.9057,-38.2539 L -17.9763,-38.624
 L -18,-39 L -17.9763,-39.376 L -17.9057,-39.7461 L -17.7893,-40.1044 L -17.6289,-40.4453 L -17.427,-40.7634
 L -17.1869,-41.0536 L -16.9123,-41.3116 L -16.6075,-41.533 L -16.2773,-41.7145 L -15.927,-41.8532 L -15.5621,-41.9469
 L -15.1884,-41.9941 L -14.8116,-41.9941 L -14.4379,-41.9469 L -14.0729,-41.8532 L -13.7227,-41.7145 L -13.3925,-41.533
 L -13.0877,-41.3116 L -12.8131,-41.0536 L -12.5729,-40.7634 L -12.3711,-40.4453 L -12.2107,-40.1044 L -12.0942,-39.7461
 L -12.0237,-39.376 L -12,-39 L -12.0237,-38.624 L -12.0942,-38.2539 L -12.2107,-37.8956 L -12.3711,-37.5547
 L -12.5729,-37.2366 L -12.8131,-36.9464 L -13.0877,-36.6885 L -13.3925,-36.467 L -13.7227,-36.2855 L -14.0729,-36.1468
 L -14.4379,-36.0531 L -14.8116,-36.0059 z
M -37.5942,-37.503 L -37.7811,-37.5266 L -37.9635,-37.5734 L -38.1387,-37.6428 L -38.3037,-37.7335 L -38.4561,-37.8442
 L -38.5934,-37.9732 L -38.7135,-38.1183 L -38.8145,-38.2774 L -38.8947,-38.4478 L -38.9529,-38.627 L -38.9882,-38.812
 L -39,-39 L -38.9882,-39.188 L -38.9529,-39.373 L -38.8947,-39.5522 L -38.8145,-39.7226 L -38.7135,-39.8817
 L -38.5934,-40.0268 L -38.4561,-40.1558 L -38.3037,-40.2665 L -38.1387,-40.3573 L -37.9635,-40.4266 L -37.7811,-40.4734
 L -37.5942,-40.4971 L -37.4058,-40.4971 L -37.2189,-40.4734 L -37.0365,-40.4266 L -36.8613,-40.3573 L -36.6963,-40.2665
 L -36.5439,-40.1558 L -36.4065,-40.0268 L -36.2865,-39.8817 L -36.1855,-39.7226 L -36.1053,-39.5522 L -36.0471,-39.373
 L -36.0118,-39.188 L -36,-39 L -36.0118,-38.812 L -36.0471,-38.627 L -36.1053,-38.4478 L -36.1855,-38.2774
 L -36.2865,-38.1183 L -36.4065,-37.9732 L -36.5439,-37.8442 L -36.6963,-37.7335 L -36.8613,-37.6428 L -37.0365,-37.5734
 L -37.2189,-37.5266 L -37.4058,-37.503 z
M -22.5942,-37.503 L -22.7811,-37.5266 L -22.9635,-37.5734 L -23.1387,-37.6428 L -23.3037,-37.7335 L -23.4561,-37.8442
 L -23.5934,-37.9732 L -23.7135,-38.1183 L -23.8145,-38.2774 L -23.8947,-38.4478 L -23.9529,-38.627 L -23.9882,-38.812
 L -24,-39 L -23.9882,-39.188 L -23.9529,-39.373 L -23.8947,-39.5522 L -23.8145,-39.7226 L -23.7135,-39.8817
 L -23.5934,-40.0268 L -23.4561,-40.1558 L -23.3037,-40.2665 L -23.1387,-40.3573 L -22.9635,-40.4266 L -22.7811,-40.4734
 L -22.5942,-40.4971 L -22.4058,-40.4971 L -22.2189,-40.4734 L -22.0365,-40.4266 L -21.8613,-40.3573 L -21.6963,-40.2665
 L -21.5439,-40.1558 L -21.4065,-40.0268 L -21.2865,-39.8817 L -21.1855,-39.7226 L -21.1053,-39.5522 L -21.0471,-39.373
 L -21.0118,-39.188 L -21,-39 L -21.0118,-38.812 L -21.0471,-38.627 L -21.1053,-38.4478 L -21.1855,-38.2774
 L -21.2865,-38.1183 L -21.4065,-37.9732 L -21.5439,-37.8442 L -21.6963,-37.7335 L -21.8613,-37.6428 L -22.0365,-37.5734
 L -22.2189,-37.5266 L -22.4058,-37.503 z
M -0.113022,-34.2036 L -0.33728,-34.2319 L -0.556229,-34.2881 L -0.766388,-34.3713 L -0.964478,-34.4802 L -1.14735,-34.6131
 L -1.31213,-34.7678 L -1.45622,-34.942 L -1.57735,-35.1328 L -1.67358,-35.3374 L -1.74344,-35.5524 L -1.7858,-35.7744
 L -1.79999,-36 L -1.7858,-36.2256 L -1.74344,-36.4476 L -1.67358,-36.6626 L -1.57735,-36.8672 L -1.45622,-37.058
 L -1.31213,-37.2322 L -1.14735,-37.3869 L -0.964478,-37.5198 L -0.766388,-37.6287 L -0.556229,-37.7119 L -0.33728,-37.7681
 L -0.113022,-37.7964 L 0.113022,-37.7964 L 0.33728,-37.7681 L 0.556229,-37.7119 L 0.766388,-37.6287 L 0.964478,-37.5198
 L 1.14735,-37.3869 L 1.31213,-37.2322 L 1.45622,-37.058 L 1.57735,-36.8672 L 1.67358,-36.6626 L 1.74344,-36.4476
 L 1.7858,-36.2256 L 1.79999,-36 L 1.7858,-35.7744 L 1.74344,-35.5524 L 1.67358,-35.3374 L 1.57735,-35.1328
 L 1.45622,-34.942 L 1.31213,-34.7678 L 1.14735,-34.6131 L 0.964478,-34.4802 L 0.766388,-34.3713 L 0.556229,-34.2881
 L 0.33728,-34.2319 L 0.113022,-34.2036 z
M 17.9369,21.9114 L 18.5451,21.7553 L 19.1289,21.5241 L 19.6791,21.2216 L 20.1871,20.8526 L 20.6448,20.4227
 L 21.0451,19.9389 L 21.3815,19.4088 L 21.6489,18.8406 L 21.8429,18.2434 L 21.9606,17.6267 L 22,17
 L 22,-17 L 21.9606,-17.6267 L 21.8429,-18.2434 L 21.6489,-18.8406 L 21.3815,-19.4088 L 21.0451,-19.9389
 L 20.6448,-20.4227 L 20.1871,-20.8526 L 19.6791,-21.2216 L 19.1289,-21.5241 L 18.5451,-21.7553 L 17.9369,-21.9114
 L 17.3139,-21.9901 L -47.3139,-21.9901 L -47.9369,-21.9114 L -48.5451,-21.7553 L -49.1289,-21.5241 L -49.6791,-21.2216
 L -50.1871,-20.8526 L -50.6448,-20.4227 L -51.0451,-19.9389 L -51.3815,-19.4088 L -51.6489,-18.8406 L -51.8429,-18.2434
 L -51.9606,-17.6267 L -52,-17 L -52,17 L -51.9606,17.6267 L -51.8429,18.2434 L -51.6489,18.8406
 L -51.3815,19.4088 L -51.0451,19.9389 L -50.6448,20.4227 L -50.1871,20.8526 L -49.6791,21.2216 L -49.1289,21.5241
 L -48.5451,21.7553 L -47.9369,21.9114 L -47.3139,21.9901 L 17.3139,21.9901 z
M -0.113022,-16.2036 L -0.33728,-16.2319 L -0.556229,-16.2881 L -0.766388,-16.3713 L -0.964478,-16.4802 L -1.14735,-16.6131
 L -1.31213,-16.7678 L -1.45622,-16.942 L -1.57735,-17.1328 L -1.67358,-17.3374 L -1.74344,-17.5524 L -1.7858,-17.7744
 L -1.79999,-18 L -1.7858,-18.2256 L -1.74344,-18.4476 L -1.67358,-18.6626 L -1.57735,-18.8672 L -1.45622,-19.058
 L -1.31213,-19.2322 L -1.14735,-19.3869 L -0.964478,-19.5198 L -0.766388,-19.6287 L -0.556229,-19.7119 L -0.33728,-19.7681
 L -0.113022,-19.7964 L 0.113022,-19.7964 L 0.33728,-19.7681 L 0.556229,-19.7119 L 0.766388,-19.6287 L 0.964478,-19.5198
 L 1.14735,-19.3869 L 1.31213,-19.2322 L 1.45622,-19.058 L 1.57735,-18.8672 L 1.67358,-18.6626 L 1.74344,-18.4476
 L 1.7858,-18.2256 L 1.79999,-18 L 1.7858,-17.7744 L 1.74344,-17.5524 L 1.67358,-17.3374 L 1.57735,-17.1328
 L 1.45622,-16.942 L 1.31213,-16.7678 L 1.14735,-16.6131 L 0.964478,-16.4802 L 0.766388,-16.3713 L 0.556229,-16.2881
 L 0.33728,-16.2319 L 0.113022,-16.2036 z
M -45.1884,-12.0059 L -45.5621,-12.0531 L -45.927,-12.1468 L -46.2773,-12.2855 L -46.6075,-12.467 L -46.9123,-12.6884
 L -47.1869,-12.9464 L -47.427,-13.2366 L -47.6289,-13.5547 L -47.7893,-13.8956 L -47.9057,-14.2539 L -47.9763,-14.624
 L -48,-15 L -47.9763,-15.376 L -47.9057,-15.7461 L -47.7893,-16.1044 L -47.6289,-16.4453 L -47.427,-16.7634
 L -47.1869,-17.0536 L -46.9123,-17.3115 L -46.6075,-17.533 L -46.2773,-17.7145 L -45.927,-17.8532 L -45.5621,-17.9469
 L -45.1884,-17.9941 L -44.8116,-17.9941 L -44.4379,-17.9469 L -44.0729,-17.8532 L -43.7227,-17.7145 L -43.3925,-17.533
 L -43.0877,-17.3115 L -42.8131,-17.0536 L -42.5729,-16.7634 L -42.3711,-16.4453 L -42.2107,-16.1044 L -42.0942,-15.7461
 L -42.0237,-15.376 L -42,-15 L -42.0237,-14.624 L -42.0942,-14.2539 L -42.2107,-13.8956 L -42.3711,-13.5547
 L -42.5729,-13.2366 L -42.8131,-12.9464 L -43.0877,-12.6884 L -43.3925,-12.467 L -43.7227,-12.2855 L -44.0729,-12.1468
 L -44.4379,-12.0531 L -44.8116,-12.0059 z
M -15.1884,-12.0059 L -15.5621,-12.0531 L -15.927,-12.1468 L -16.2773,-12.2855 L -16.6075,-12.467 L -16.9123,-12.6884
 L -17.1869,-12.9464 L -17.427,-13.2366 L -17.6289,-13.5547 L -17.7893,-13.8956 L -17.9057,-14.2539 L -17.9763,-14.624
 L -18,-15 L -17.9763,-15.376 L -17.9057,-15.7461 L -17.7893,-16.1044 L -17.6289,-16.4453 L -17.427,-16.7634
 L -17.1869,-17.0536 L -16.9123,-17.3115 L -16.6075,-17.533 L -16.2773,-17.7145 L -15.927,-17.8532 L -15.5621,-17.9469
 L -15.1884,-17.9941 L -14.8116,-17.9941 L -14.4379,-17.9469 L -14.0729,-17.8532 L -13.7227,-17.7145 L -13.3925,-17.533
 L -13.0877,-17.3115 L -12.8131,-17.0536 L -12.5729,-16.7634 L -12.3711,-16.4453 L -12.2107,-16.1044 L -12.0942,-15.7461
 L -12.0237,-15.376 L -12,-15 L -12.0237,-14.624 L -12.0942,-14.2539 L -12.2107,-13.8956 L -12.3711,-13.5547
 L -12.5729,-13.2366 L -12.8131,-12.9464 L -13.0877,-12.6884 L -13.3925,-12.467 L -13.7227,-12.2855 L -14.0729,-12.1468
 L -14.4379,-12.0531 L -14.8116,-12.0059 z
M -30.1884,-12.0059 L -30.5621,-12.0531 L -30.927,-12.1468 L -31.2773,-12.2855 L -31.6075,-12.467 L -31.9123,-12.6884
 L -32.1869,-12.9464 L -32.427,-13.2366 L -32.6289,-13.5547 L -32.7893,-13.8956 L -32.9057,-14.2539 L -32.9763,-14.624
 L -33,-15 L -32.9763,-15.376 L -32.9057,-15.7461 L -32.7893,-16.1044 L -32.6289,-16.4453 L -32.427,-16.7634
 L -32.1869,-17.0536 L -31.9123,-17.3115 L -31.6075,-17.533 L -31.2773,-17.7145 L -30.927,-17.8532 L -30.5621,-17.9469
 L -30.1884,-17.9941 L -29.8116,-17.9941 L -29.4379,-17.9469 L -29.0729,-17.8532 L -28.7227,-17.7145 L -28.3925,-17.533
 L -28.0877,-17.3115 L -27.8131,-17.0536 L -27.5729,-16.7634 L -27.3711,-16.4453 L -27.2107,-16.1044 L -27.0942,-15.7461
 L -27.0237,-15.376 L -27,-15 L -27.0237,-14.624 L -27.0942,-14.2539 L -27.2107,-13.8956 L -27.3711,-13.5547
 L -27.5729,-13.2366 L -27.8131,-12.9464 L -28.0877,-12.6884 L -28.3925,-12.467 L -28.7227,-12.2855 L -29.0729,-12.1468
 L -29.4379,-12.0531 L -29.8116,-12.0059 z
M 14.8116,-12.0059 L 14.4379,-12.0531 L 14.0729,-12.1468 L 13.7227,-12.2855 L 13.3925,-12.467 L 13.0877,-12.6884
 L 12.8131,-12.9464 L 12.5729,-13.2366 L 12.3711,-13.5547 L 12.2107,-13.8956 L 12.0942,-14.2539 L 12.0237,-14.624
 L 12,-15 L 12.0237,-15.376 L 12.0942,-15.7461 L 12.2107,-16.1044 L 12.3711,-16.4453 L 12.5729,-16.7634
 L 12.8131,-17.0536 L 13.0877,-17.3115 L 13.3925,-17.533 L 13.7227,-17.7145 L 14.0729,-17.8532 L 14.4379,-17.9469
 L 14.8116,-17.9941 L 15.1884,-17.9941 L 15.5621,-17.9469 L 15.927,-17.8532 L 16.2773,-17.7145 L 16.6075,-17.533
 L 16.9123,-17.3115 L 17.1869,-17.0536 L 17.427,-16.7634 L 17.6289,-16.4453 L 17.7893,-16.1044 L 17.9057,-15.7461
 L 17.9763,-15.376 L 18,-15 L 17.9763,-14.624 L 17.9057,-14.2539 L 17.7893,-13.8956 L 17.6289,-13.5547
 L 17.427,-13.2366 L 17.1869,-12.9464 L 16.9123,-12.6884 L 16.6075,-12.467 L 16.2773,-12.2855 L 15.927,-12.1468
 L 15.5621,-12.0531 L 15.1884,-12.0059 z
M -37.5942,-13.5029 L -37.7811,-13.5266 L -37.9635,-13.5734 L -38.1387,-13.6427 L -38.3037,-13.7335 L -38.4561,-13.8442
 L -38.5934,-13.9732 L -38.7135,-14.1183 L -38.8145,-14.2774 L -38.8947,-14.4478 L -38.9529,-14.627 L -38.9882,-14.812
 L -39,-15 L -38.9882,-15.188 L -38.9529,-15.373 L -38.8947,-15.5522 L -38.8145,-15.7226 L -38.7135,-15.8817
 L -38.5934,-16.0268 L -38.4561,-16.1558 L -38.3037,-16.2665 L -38.1387,-16.3572 L -37.9635,-16.4266 L -37.7811,-16.4734
 L -37.5942,-16.497 L -37.4058,-16.497 L -37.2189,-16.4734 L -37.0365,-16.4266 L -36.8613,-16.3572 L -36.6963,-16.2665
 L -36.5439,-16.1558 L -36.4065,-16.0268 L -36.2865,-15.8817 L -36.1855,-15.7226 L -36.1053,-15.5522 L -36.0471,-15.373
 L -36.0118,-15.188 L -36,-15 L -36.0118,-14.812 L -36.0471,-14.627 L -36.1053,-14.4478 L -36.1855,-14.2774
 L -36.2865,-14.1183 L -36.4065,-13.9732 L -36.5439,-13.8442 L -36.6963,-13.7335 L -36.8613,-13.6427 L -37.0365,-13.5734
 L -37.2189,-13.5266 L -37.4058,-13.5029 z
M -22.5942,-13.5029 L -22.7811,-13.5266 L -22.9635,-13.5734 L -23.1387,-13.6427 L -23.3037,-13.7335 L -23.4561,-13.8442
 L -23.5934,-13.9732 L -23.7135,-14.1183 L -23.8145,-14.2774 L -23.8947,-14.4478 L -23.9529,-14.627 L -23.9882,-14.812
 L -24,-15 L -23.9882,-15.188 L -23.9529,-15.373 L -23.8947,-15.5522 L -23.8145,-15.7226 L -23.7135,-15.8817
 L -23.5934,-16.0268 L -23.4561,-16.1558 L -23.3037,-16.2665 L -23.1387,-16.3572 L -22.9635,-16.4266 L -22.7811,-16.4734
 L -22.5942,-16.497 L -22.4058,-16.497 L -22.2189,-16.4734 L -22.0365,-16.4266 L -21.8613,-16.3572 L -21.6963,-16.2665
 L -21.5439,-16.1558 L -21.4065,-16.0268 L -21.2865,-15.8817 L -21.1855,-15.7226 L -21.1053,-15.5522 L -21.0471,-15.373
 L -21.0118,-15.188 L -21,-15 L -21.0118,-14.812 L -21.0471,-14.627 L -21.1053,-14.4478 L -21.1855,-14.2774
 L -21.2865,-14.1183 L -21.4065,-13.9732 L -21.5439,-13.8442 L -21.6963,-13.7335 L -21.8613,-13.6427 L -22.0365,-13.5734
 L -22.2189,-13.5266 L -22.4058,-13.5029 z
M -0.753479,11.9763 L -2.24857,11.7874 L -3.70819,11.4127 L -5.10934,10.8579 L -5.30566,10.75 L -32.25,10.75
 L -32.25,1.75 L -36.25,1.75 L -36.25,-1.75 L -32.25,-1.75 L -32.25,-10.75 L -5.30566,-10.75
 L -5.10934,-10.8579 L -3.70819,-11.4127 L -2.24857,-11.7874 L -0.753479,-11.9763 L 0.753479,-11.9763 L 2.24857,-11.7874
 L 3.70819,-11.4127 L 5.10934,-10.8579 L 5.30566,-10.75 L 10.25,-10.75 L 10.25,-6.19968 L 10.5157,-5.78104
 L 11.1573,-4.41748 L 11.623,-2.98427 L 11.8584,-1.75 L 14.25,-1.75 L 14.25,1.75 L 11.8584,1.75
 L 11.623,2.98427 L 11.1573,4.41748 L 10.5157,5.78104 L 10.25,6.19968 L 10.25,10.75 L 5.30566,10.75
 L 5.10934,10.8579 L 3.70819,11.4127 L 2.24857,11.7874 L 0.753479,11.9763 z
M -45.0942,-6.00294 L -45.2811,-6.02657 L -45.4635,-6.07341 L -45.6387,-6.14275 L -45.8037,-6.23351 L -45.9561,-6.34422
 L -46.0934,-6.47318 L -46.2135,-6.61832 L -46.3145,-6.77736 L -46.3947,-6.9478 L -46.4529,-7.12695 L -46.4882,-7.312
 L -46.5,-7.5 L -46.4882,-7.68799 L -46.4529,-7.87303 L -46.3947,-8.05219 L -46.3145,-8.22263 L -46.2135,-8.38167
 L -46.0934,-8.52681 L -45.9561,-8.65576 L -45.8037,-8.76648 L -45.6387,-8.85724 L -45.4635,-8.92657 L -45.2811,-8.97342
 L -45.0942,-8.99704 L -44.9058,-8.99704 L -44.7189,-8.97342 L -44.5365,-8.92657 L -44.3613,-8.85724 L -44.1963,-8.76648
 L -44.0439,-8.65576 L -43.9065,-8.52681 L -43.7865,-8.38167 L -43.6855,-8.22263 L -43.6053,-8.05219 L -43.5471,-7.87303
 L -43.5118,-7.68799 L -43.5,-7.5 L -43.5118,-7.312 L -43.5471,-7.12695 L -43.6053,-6.9478 L -43.6855,-6.77736
 L -43.7865,-6.61832 L -43.9065,-6.47318 L -44.0439,-6.34422 L -44.1963,-6.23351 L -44.3613,-6.14275 L -44.5365,-6.07341
 L -44.7189,-6.02657 L -44.9058,-6.00294 z
M 13.9498,-2.9752 L 13.7297,-3.02682 L 13.5179,-3.10561 L 13.3176,-3.21034 L 13.1319,-3.33934 L 12.9639,-3.4906
 L 12.8162,-3.66171 L 12.6911,-3.84999 L 12.5906,-4.05246 L 12.5163,-4.26593 L 12.4693,-4.48705 L 12.4504,-4.7123
 L 12.4599,-4.93814 L 12.4976,-5.16103 L 12.5629,-5.37743 L 12.6548,-5.58392 L 12.7719,-5.77728 L 12.9123,-5.95442
 L 13.0738,-6.11258 L 13.2539,-6.24925 L 13.4496,-6.36227 L 13.658,-6.44987 L 13.8757,-6.51065 L 14.0994,-6.54369
 L 14.3254,-6.54842 L 14.5502,-6.52478 L 14.7702,-6.47316 L 14.9821,-6.39438 L 15.1824,-6.28964 L 15.3681,-6.16064
 L 15.536,-6.00938 L 15.6837,-5.83827 L 15.8088,-5.64999 L 15.9093,-5.44753 L 15.9837,-5.23405 L 16.0307,-5.01294
 L 16.0496,-4.78769 L 16.0401,-4.56184 L 16.0024,-4.33896 L 15.9371,-4.12256 L 15.8452,-3.91606 L 15.7281,-3.7227
 L 15.5876,-3.54556 L 15.4261,-3.38741 L 15.2461,-3.25073 L 15.0503,-3.13771 L 14.8419,-3.05011 L 14.6242,-2.98933
 L 14.4006,-2.9563 L 14.1746,-2.95157 z
M -36.5502,-2.9752 L -36.7702,-3.02682 L -36.9821,-3.10561 L -37.1824,-3.21034 L -37.3681,-3.33934 L -37.536,-3.4906
 L -37.6837,-3.66171 L -37.8088,-3.84999 L -37.9093,-4.05246 L -37.9837,-4.26593 L -38.0307,-4.48705 L -38.0496,-4.7123
 L -38.0401,-4.93814 L -38.0024,-5.16103 L -37.9371,-5.37743 L -37.8452,-5.58392 L -37.7281,-5.77728 L -37.5877,-5.95442
 L -37.4261,-6.11258 L -37.2461,-6.24925 L -37.0503,-6.36227 L -36.8419,-6.44987 L -36.6242,-6.51065 L -36.4006,-6.54369
 L -36.1746,-6.54842 L -35.9498,-6.52478 L -35.7297,-6.47316 L -35.5179,-6.39438 L -35.3176,-6.28964 L -35.1319,-6.16064
 L -34.9639,-6.00938 L -34.8162,-5.83827 L -34.6911,-5.64999 L -34.5906,-5.44753 L -34.5163,-5.23405 L -34.4693,-5.01294
 L -34.4504,-4.78769 L -34.4599,-4.56184 L -34.4976,-4.33896 L -34.5629,-4.12256 L -34.6548,-3.91606 L -34.7719,-3.7227
 L -34.9123,-3.54556 L -35.0738,-3.38741 L -35.2539,-3.25073 L -35.4496,-3.13771 L -35.658,-3.05011 L -35.8757,-2.98933
 L -36.0994,-2.9563 L -36.3254,-2.95157 z
M -45.1884,2.99408 L -45.5621,2.94685 L -45.927,2.85316 L -46.2773,2.71448 L -46.6075,2.53297 L -46.9123,2.31154
 L -47.1869,2.05363 L -47.427,1.76335 L -47.6289,1.44525 L -47.7893,1.10437 L -47.9057,0.746063 L -47.9763,0.375992
 L -48,-0 L -47.9763,-0.375992 L -47.9057,-0.746063 L -47.7893,-1.10437 L -47.6289,-1.44525 L -47.427,-1.76335
 L -47.1869,-2.05363 L -46.9123,-2.31154 L -46.6075,-2.53297 L -46.2773,-2.71448 L -45.927,-2.85316 L -45.5621,-2.94685
 L -45.1884,-2.99408 L -44.8116,-2.99408 L -44.4379,-2.94685 L -44.0729,-2.85316 L -43.7227,-2.71448 L -43.3925,-2.53297
 L -43.0877,-2.31154 L -42.8131,-2.05363 L -42.5729,-1.76335 L -42.3711,-1.44525 L -42.2107,-1.10437 L -42.0942,-0.746063
 L -42.0237,-0.375992 L -42,-0 L -42.0237,0.375992 L -42.0942,0.746063 L -42.2107,1.10437 L -42.3711,1.44525
 L -42.5729,1.76335 L -42.8131,2.05363 L -43.0877,2.31154 L -43.3925,2.53297 L -43.7227,2.71448 L -44.0729,2.85316
 L -44.4379,2.94685 L -44.8116,2.99408 z
M 13.9498,6.52478 L 13.7297,6.47316 L 13.5179,6.39438 L 13.3176,6.28964 L 13.1319,6.16064 L 12.9639,6.00938
 L 12.8162,5.83827 L 12.6911,5.64999 L 12.5906,5.44753 L 12.5163,5.23405 L 12.4693,5.01294 L 12.4504,4.78769
 L 12.4599,4.56184 L 12.4976,4.33896 L 12.5629,4.12256 L 12.6548,3.91606 L 12.7719,3.7227 L 12.9123,3.54556
 L 13.0738,3.38741 L 13.2539,3.25073 L 13.4496,3.13771 L 13.658,3.05011 L 13.8757,2.98933 L 14.0994,2.9563
 L 14.3254,2.95157 L 14.5502,2.9752 L 14.7702,3.02682 L 14.9821,3.10561 L 15.1824,3.21034 L 15.3681,3.33934
 L 15.536,3.4906 L 15.6837,3.66171 L 15.8088,3.84999 L 15.9093,4.05246 L 15.9837,4.26593 L 16.0307,4.48705
 L 16.0496,4.7123 L 16.0401,4.93814 L 16.0024,5.16103 L 15.9371,5.37743 L 15.8452,5.58392 L 15.7281,5.77728
 L 15.5876,5.95442 L 15.4261,6.11258 L 15.2461,6.24925 L 15.0503,6.36227 L 14.8419,6.44987 L 14.6242,6.51065
 L 14.4006,6.54369 L 14.1746,6.54842 z
M -36.5502,6.52478 L -36.7702,6.47316 L -36.9821,6.39438 L -37.1824,6.28964 L -37.3681,6.16064 L -37.536,6.00938
 L -37.6837,5.83827 L -37.8088,5.64999 L -37.9093,5.44753 L -37.9837,5.23405 L -38.0307,5.01294 L -38.0496,4.78769
 L -38.0401,4.56184 L -38.0024,4.33896 L -37.9371,4.12256 L -37.8452,3.91606 L -37.7281,3.7227 L -37.5877,3.54556
 L -37.4261,3.38741 L -37.2461,3.25073 L -37.0503,3.13771 L -36.8419,3.05011 L -36.6242,2.98933 L -36.4006,2.9563
 L -36.1746,2.95157 L -35.9498,2.9752 L -35.7297,3.02682 L -35.5179,3.10561 L -35.3176,3.21034 L -35.1319,3.33934
 L -34.9639,3.4906 L -34.8162,3.66171 L -34.6911,3.84999 L -34.5906,4.05246 L -34.5163,4.26593 L -34.4693,4.48705
 L -34.4504,4.7123 L -34.4599,4.93814 L -34.4976,5.16103 L -34.5629,5.37743 L -34.6548,5.58392 L -34.7719,5.77728
 L -34.9123,5.95442 L -35.0738,6.11258 L -35.2539,6.24925 L -35.4496,6.36227 L -35.658,6.44987 L -35.8757,6.51065
 L -36.0994,6.54369 L -36.3254,6.54842 z
M -45.0942,8.99704 L -45.2811,8.97342 L -45.4635,8.92657 L -45.6387,8.85724 L -45.8037,8.76648 L -45.9561,8.65576
 L -46.0934,8.52681 L -46.2135,8.38167 L -46.3145,8.22263 L -46.3947,8.05219 L -46.4529,7.87303 L -46.4882,7.68799
 L -46.5,7.5 L -46.4882,7.312 L -46.4529,7.12695 L -46.3947,6.9478 L -46.3145,6.77736 L -46.2135,6.61832
 L -46.0934,6.47318 L -45.9561,6.34422 L -45.8037,6.23351 L -45.6387,6.14275 L -45.4635,6.07341 L -45.2811,6.02657
 L -45.0942,6.00294 L -44.9058,6.00294 L -44.7189,6.02657 L -44.5365,6.07341 L -44.3613,6.14275 L -44.1963,6.23351
 L -44.0439,6.34422 L -43.9065,6.47318 L -43.7865,6.61832 L -43.6855,6.77736 L -43.6053,6.9478 L -43.5471,7.12695
 L -43.5118,7.312 L -43.5,7.5 L -43.5118,7.68799 L -43.5471,7.87303 L -43.6053,8.05219 L -43.6855,8.22263
 L -43.7865,8.38167 L -43.9065,8.52681 L -44.0439,8.65576 L -44.1963,8.76648 L -44.3613,8.85724 L -44.5365,8.92657
 L -44.7189,8.97342 L -44.9058,8.99704 z
M 14.8116,17.9941 L 14.4379,17.9469 L 14.0729,17.8532 L 13.7227,17.7145 L 13.3925,17.533 L 13.0877,17.3115
 L 12.8131,17.0536 L 12.5729,16.7634 L 12.3711,16.4453 L 12.2107,16.1044 L 12.0942,15.7461 L 12.0237,15.376
 L 12,15 L 12.0237,14.624 L 12.0942,14.2539 L 12.2107,13.8956 L 12.3711,13.5547 L 12.5729,13.2366
 L 12.8131,12.9464 L 13.0877,12.6884 L 13.3925,12.467 L 13.7227,12.2855 L 14.0729,12.1468 L 14.4379,12.0531
 L 14.8116,12.0059 L 15.1884,12.0059 L 15.5621,12.0531 L 15.927,12.1468 L 16.2773,12.2855 L 16.6075,12.467
 L 16.9123,12.6884 L 17.1869,12.9464 L 17.427,13.2366 L 17.6289,13.5547 L 17.7893,13.8956 L 17.9057,14.2539
 L 17.9763,14.624 L 18,15 L 17.9763,15.376 L 17.9057,15.7461 L 17.7893,16.1044 L 17.6289,16.4453
 L 17.427,16.7634 L 17.1869,17.0536 L 16.9123,17.3115 L 16.6075,17.533 L 16.2773,17.7145 L 15.927,17.8532
 L 15.5621,17.9469 L 15.1884,17.9941 z
M -45.1884,17.9941 L -45.5621,17.9469 L -45.927,17.8532 L -46.2773,17.7145 L -46.6075,17.533 L -46.9123,17.3115
 L -47.1869,17.0536 L -47.427,16.7634 L -47.6289,16.4453 L -47.7893,16.1044 L -47.9057,15.7461 L -47.9763,15.376
 L -48,15 L -47.9763,14.624 L -47.9057,14.2539 L -47.7893,13.8956 L -47.6289,13.5547 L -47.427,13.2366
 L -47.1869,12.9464 L -46.9123,12.6884 L -46.6075,12.467 L -46.2773,12.2855 L -45.927,12.1468 L -45.5621,12.0531
 L -45.1884,12.0059 L -44.8116,12.0059 L -44.4379,12.0531 L -44.0729,12.1468 L -43.7227,12.2855 L -43.3925,12.467
 L -43.0877,12.6884 L -42.8131,12.9464 L -42.5729,13.2366 L -42.3711,13.5547 L -42.2107,13.8956 L -42.0942,14.2539
 L -42.0237,14.624 L -42,15 L -42.0237,15.376 L -42.0942,15.7461 L -42.2107,16.1044 L -42.3711,16.4453
 L -42.5729,16.7634 L -42.8131,17.0536 L -43.0877,17.3115 L -43.3925,17.533 L -43.7227,17.7145 L -44.0729,17.8532
 L -44.4379,17.9469 L -44.8116,17.9941 z
M -15.1884,17.9941 L -15.5621,17.9469 L -15.927,17.8532 L -16.2773,17.7145 L -16.6075,17.533 L -16.9123,17.3115
 L -17.1869,17.0536 L -17.427,16.7634 L -17.6289,16.4453 L -17.7893,16.1044 L -17.9057,15.7461 L -17.9763,15.376
 L -18,15 L -17.9763,14.624 L -17.9057,14.2539 L -17.7893,13.8956 L -17.6289,13.5547 L -17.427,13.2366
 L -17.1869,12.9464 L -16.9123,12.6884 L -16.6075,12.467 L -16.2773,12.2855 L -15.927,12.1468 L -15.5621,12.0531
 L -15.1884,12.0059 L -14.8116,12.0059 L -14.4379,12.0531 L -14.0729,12.1468 L -13.7227,12.2855 L -13.3925,12.467
 L -13.0877,12.6884 L -12.8131,12.9464 L -12.5729,13.2366 L -12.3711,13.5547 L -12.2107,13.8956 L -12.0942,14.2539
 L -12.0237,14.624 L -12,15 L -12.0237,15.376 L -12.0942,15.7461 L -12.2107,16.1044 L -12.3711,16.4453
 L -12.5729,16.7634 L -12.8131,17.0536 L -13.0877,17.3115 L -13.3925,17.533 L -13.7227,17.7145 L -14.0729,17.8532
 L -14.4379,17.9469 L -14.8116,17.9941 z
M -30.1884,17.9941 L -30.5621,17.9469 L -30.927,17.8532 L -31.2773,17.7145 L -31.6075,17.533 L -31.9123,17.3115
 L -32.1869,17.0536 L -32.427,16.7634 L -32.6289,16.4453 L -32.7893,16.1044 L -32.9057,15.7461 L -32.9763,15.376
 L -33,15 L -32.9763,14.624 L -32.9057,14.2539 L -32.7893,13.8956 L -32.6289,13.5547 L -32.427,13.2366
 L -32.1869,12.9464 L -31.9123,12.6884 L -31.6075,12.467 L -31.2773,12.2855 L -30.927,12.1468 L -30.5621,12.0531
 L -30.1884,12.0059 L -29.8116,12.0059 L -29.4379,12.0531 L -29.0729,12.1468 L -28.7227,12.2855 L -28.3925,12.467
 L -28.0877,12.6884 L -27.8131,12.9464 L -27.5729,13.2366 L -27.3711,13.5547 L -27.2107,13.8956 L -27.0942,14.2539
 L -27.0237,14.624 L -27,15 L -27.0237,15.376 L -27.0942,15.7461 L -27.2107,16.1044 L -27.3711,16.4453
 L -27.5729,16.7634 L -27.8131,17.0536 L -28.0877,17.3115 L -28.3925,17.533 L -28.7227,17.7145 L -29.0729,17.8532
 L -29.4379,17.9469 L -29.8116,17.9941 z
M -22.5942,16.497 L -22.7811,16.4734 L -22.9635,16.4266 L -23.1387,16.3572 L -23.3037,16.2665 L -23.4561,16.1558
 L -23.5934,16.0268 L -23.7135,15.8817 L -23.8145,15.7226 L -23.8947,15.5522 L -23.9529,15.373 L -23.9882,15.188
 L -24,15 L -23.9882,14.812 L -23.9529,14.627 L -23.8947,14.4478 L -23.8145,14.2774 L -23.7135,14.1183
 L -23.5934,13.9732 L -23.4561,13.8442 L -23.3037,13.7335 L -23.1387,13.6427 L -22.9635,13.5734 L -22.7811,13.5266
 L -22.5942,13.5029 L -22.4058,13.5029 L -22.2189,13.5266 L -22.0365,13.5734 L -21.8613,13.6427 L -21.6963,13.7335
 L -21.5439,13.8442 L -21.4065,13.9732 L -21.2865,14.1183 L -21.1855,14.2774 L -21.1053,14.4478 L -21.0471,14.627
 L -21.0118,14.812 L -21,15 L -21.0118,15.188 L -21.0471,15.373 L -21.1053,15.5522 L -21.1855,15.7226
 L -21.2865,15.8817 L -21.4065,16.0268 L -21.5439,16.1558 L -21.6963,16.2665 L -21.8613,16.3572 L -22.0365,16.4266
 L -22.2189,16.4734 L -22.4058,16.497 z
M -37.5942,16.497 L -37.7811,16.4734 L -37.9635,16.4266 L -38.1387,16.3572 L -38.3037,16.2665 L -38.4561,16.1558
 L -38.5934,16.0268 L -38.7135,15.8817 L -38.8145,15.7226 L -38.8947,15.5522 L -38.9529,15.373 L -38.9882,15.188
 L -39,15 L -38.9882,14.812 L -38.9529,14.627 L -38.8947,14.4478 L -38.8145,14.2774 L -38.7135,14.1183
 L -38.5934,13.9732 L -38.4561,13.8442 L -38.3037,13.7335 L -38.1387,13.6427 L -37.9635,13.5734 L -37.7811,13.5266
 L -37.5942,13.5029 L -37.4058,13.5029 L -37.2189,13.5266 L -37.0365,13.5734 L -36.8613,13.6427 L -36.6963,13.7335
 L -36.5439,13.8442 L -36.4065,13.9732 L -36.2865,14.1183 L -36.1855,14.2774 L -36.1053,14.4478 L -36.0471,14.627
 L -36.0118,14.812 L -36,15 L -36.0118,15.188 L -36.0471,15.373 L -36.1053,15.5522 L -36.1855,15.7226
 L -36.2865,15.8817 L -36.4065,16.0268 L -36.5439,16.1558 L -36.6963,16.2665 L -36.8613,16.3572 L -37.0365,16.4266
 L -37.2189,16.4734 L -37.4058,16.497 z
M -0.113022,19.7964 L -0.33728,19.7681 L -0.556229,19.7119 L -0.766388,19.6287 L -0.964478,19.5198 L -1.14735,19.3869
 L -1.31213,19.2322 L -1.45622,19.058 L -1.57735,18.8672 L -1.67358,18.6626 L -1.74344,18.4476 L -1.7858,18.2256
 L -1.79999,18 L -1.7858,17.7744 L -1.74344,17.5524 L -1.67358,17.3374 L -1.57735,17.1328 L -1.45622,16.942
 L -1.31213,16.7678 L -1.14735,16.6131 L -0.964478,16.4802 L -0.766388,16.3713 L -0.556229,16.2881 L -0.33728,16.2319
 L -0.113022,16.2036 L 0.113022,16.2036 L 0.33728,16.2319 L 0.556229,16.2881 L 0.766388,16.3713 L 0.964478,16.4802
 L 1.14735,16.6131 L 1.31213,16.7678 L 1.45622,16.942 L 1.57735,17.1328 L 1.67358,17.3374 L 1.74344,17.5524
 L 1.7858,17.7744 L 1.79999,18 L 1.7858,18.2256 L 1.74344,18.4476 L 1.67358,18.6626 L 1.57735,18.8672
 L 1.45622,19.058 L 1.31213,19.2322 L 1.14735,19.3869 L 0.964478,19.5198 L 0.766388,19.6287 L 0.556229,19.7119
 L 0.33728,19.7681 L 0.113022,19.7964 z
" stroke="black" fill="lightgray" stroke-width="0.5"/>
</svg>
