<?xml version="1.0" standalone="no"?>
<!DOCTYPE svg PUBLIC "-//W3C//DTD SVG 1.1//EN" "http://www.w3.org/Graphics/SVG/1.1/DTD/svg11.dtd">
<svg width="257mm" height="387mm" viewBox="-129 -639 257 387" xmlns="http://www.w3.org/2000/svg" version="1.1">
<title>OpenSCAD Model</title>
<path d="
M -126,-550.441 L -125.687,-550.147 L -125.179,-549.778 L -124.629,-549.476 L -124.045,-549.245 L -123.437,-549.089
 L -122.814,-549.01 L 122.814,-549.01 L 123.437,-549.089 L 124.045,-549.245 L 124.629,-549.476 L 125.179,-549.778
 L 125.687,-550.147 L 126.145,-550.577 L 126.545,-551.061 L 126.882,-551.591 L 127.149,-552.159 L 127.343,-552.757
 L 127.461,-553.373 L 127.5,-554 L 127.5,-634 L 127.461,-634.627 L 127.343,-635.243 L 127.149,-635.841
 L 126.882,-636.409 L 126.545,-636.939 L 126.145,-637.423 L 125.687,-637.853 L 125.179,-638.222 L 124.629,-638.524
 L 124.045,-638.755 L 123.437,-638.911 L 122.814,-638.99 L -122.814,-638.99 L -123.437,-638.911 L -124.045,-638.755
 L -124.629,-638.524 L -125.179,-638.222 L -125.687,-637.853 L -126,-637.559 L -126,-638.99 L -129,-638.99
 L -129,-549.01 L -126,-549.01 z
M -122.251,-550.508 L -122.75,-550.571 L -123.236,-550.696 L -123.703,-550.881 L -124.143,-551.123 L -124.55,-551.418
 L -124.916,-551.762 L -125.236,-552.149 L -125.505,-552.573 L -125.719,-553.028 L -125.874,-553.505 L -125.968,-553.999
 L -126,-554.5 L -126,-633.5 L -125.968,-634.001 L -125.874,-634.495 L -125.719,-634.972 L -125.505,-635.427
 L -125.236,-635.851 L -124.916,-636.238 L -124.55,-636.582 L -124.143,-636.877 L -123.703,-637.119 L -123.236,-637.304
 L -122.75,-637.429 L -122.251,-637.492 L 122.251,-637.492 L 122.75,-637.429 L 123.236,-637.304 L 123.703,-637.119
 L 124.143,-636.877 L 124.55,-636.582 L 124.916,-636.238 L 125.236,-635.851 L 125.505,-635.427 L 125.719,-634.972
 L 125.874,-634.495 L 125.968,-634.001 L 126,-633.5 L 126,-554.5 L 125.968,-553.999 L 125.874,-553.505
 L 125.719,-553.028 L 125.505,-552.573 L 125.236,-552.149 L 124.916,-551.762 L 124.55,-551.418 L 124.143,-551.123
 L 123.703,-550.881 L 123.236,-550.696 L 122.75,-550.571 L 122.251,-550.508 z
M -126,-451.441 L -125.687,-451.147 L -125.179,-450.778 L -124.629,-450.476 L -124.045,-450.245 L -123.437,-450.089
 L -122.814,-450.01 L 122.814,-450.01 L 123.437,-450.089 L 124.045,-450.245 L 124.629,-450.476 L 125.179,-450.778
 L 125.687,-451.147 L 126.145,-451.577 L 126.545,-452.061 L 126.882,-452.591 L 127.149,-453.159 L 127.343,-453.757
 L 127.461,-454.373 L 127.5,-455 L 127.5,-535 L 127.461,-535.627 L 127.343,-536.243 L 127.149,-536.841
 L 126.882,-537.409 L 126.545,-537.939 L 126.145,-538.423 L 125.687,-538.853 L 125.179,-539.222 L 124.629,-539.524
 L 124.045,-539.755 L 123.437,-539.911 L 122.814,-539.99 L -122.814,-539.99 L -123.437,-539.911 L -124.045,-539.755
 L -124.629,-539.524 L -125.179,-539.222 L -125.687,-538.853 L -126,-538.559 L -126,-539.99 L -129,-539.99
 L -129,-450.01 L -126,-450.01 z
M -122.243,-451.635 L -122.726,-451.696 L -123.197,-451.817 L -123.649,-451.996 L -124.075,-452.23 L -124.469,-452.516
 L -124.823,-452.849 L -125.133,-453.224 L -125.394,-453.634 L -125.601,-454.074 L -125.751,-454.537 L -125.842,-455.015
 L -125.873,-455.5 L -125.873,-534.5 L -125.842,-534.985 L -125.751,-535.463 L -125.601,-535.926 L -125.394,-536.366
 L -125.133,-536.776 L -124.823,-537.151 L -124.469,-537.484 L -124.075,-537.77 L -123.649,-538.004 L -123.197,-538.183
 L -122.726,-538.304 L -122.243,-538.365 L 122.243,-538.365 L 122.726,-538.304 L 123.197,-538.183 L 123.649,-538.004
 L 124.075,-537.77 L 124.469,-537.484 L 124.823,-537.151 L 125.133,-536.776 L 125.394,-536.366 L 125.601,-535.926
 L 125.751,-535.463 L 125.842,-534.985 L 125.873,-534.5 L 125.873,-455.5 L 125.842,-455.015 L 125.751,-454.537
 L 125.601,-454.074 L 125.394,-453.634 L 125.133,-453.224 L 124.823,-452.849 L 124.469,-452.516 L 124.075,-452.23
 L 123.649,-451.996 L 123.197,-451.817 L 122.726,-451.696 L 122.243,-451.635 z
M 123.437,-351.089 L 124.045,-351.245 L 124.629,-351.476 L 125.179,-351.778 L 125.687,-352.147 L 126.145,-352.577
 L 126.545,-353.061 L 126.882,-353.591 L 127.149,-354.159 L 127.343,-354.757 L 127.461,-355.373 L 127.5,-356
 L 127.5,-436 L 127.461,-436.627 L 127.343,-437.243 L 127.149,-437.841 L 126.882,-438.409 L 126.545,-438.939
 L 126.145,-439.423 L 125.687,-439.853 L 125.179,-440.222 L 124.629,-440.524 L 124.045,-440.755 L 123.437,-440.911
 L 122.814,-440.99 L -122.814,-440.99 L -123.437,-440.911 L -124.045,-440.755 L -124.629,-440.524 L -125.179,-440.222
 L -125.687,-439.853 L -126,-439.559 L -126,-440.615 L -129,-440.615 L -129,-351.385 L -126,-351.385
 L -126,-352.441 L -125.687,-352.147 L -125.179,-351.778 L -124.629,-351.476 L -124.045,-351.245 L -123.437,-351.089
 L -122.814,-351.01 L 122.814,-351.01 z
M -120.151,-431.105 L -120.45,-431.143 L -120.742,-431.217 L -121.022,-431.328 L -121.286,-431.474 L -121.53,-431.651
 L -121.75,-431.857 L -121.942,-432.089 L -122.103,-432.344 L -122.231,-432.617 L -122.325,-432.903 L -122.381,-433.199
 L -122.4,-433.5 L -122.381,-433.801 L -122.325,-434.097 L -122.231,-434.383 L -122.103,-434.656 L -121.942,-434.911
 L -121.75,-435.143 L -121.53,-435.349 L -121.286,-435.526 L -121.022,-435.672 L -120.742,-435.783 L -120.45,-435.857
 L -120.151,-435.895 L -119.849,-435.895 L -119.55,-435.857 L -119.258,-435.783 L -118.978,-435.672 L -118.714,-435.526
 L -118.47,-435.349 L -118.25,-435.143 L -118.058,-434.911 L -117.897,-434.656 L -117.769,-434.383 L -117.675,-434.097
 L -117.619,-433.801 L -117.6,-433.5 L -117.619,-433.199 L -117.675,-432.903 L -117.769,-432.617 L -117.897,-432.344
 L -118.058,-432.089 L -118.25,-431.857 L -118.47,-431.651 L -118.714,-431.474 L -118.978,-431.328 L -119.258,-431.217
 L -119.55,-431.143 L -119.849,-431.105 z
M 119.849,-431.105 L 119.55,-431.143 L 119.258,-431.217 L 118.978,-431.328 L 118.714,-431.474 L 118.47,-431.651
 L 118.25,-431.857 L 118.058,-432.089 L 117.897,-432.344 L 117.769,-432.617 L 117.675,-432.903 L 117.619,-433.199
 L 117.6,-433.5 L 117.619,-433.801 L 117.675,-434.097 L 117.769,-434.383 L 117.897,-434.656 L 118.058,-434.911
 L 118.25,-435.143 L 118.47,-435.349 L 118.714,-435.526 L 118.978,-435.672 L 119.258,-435.783 L 119.55,-435.857
 L 119.849,-435.895 L 120.151,-435.895 L 120.45,-435.857 L 120.742,-435.783 L 121.022,-435.672 L 121.286,-435.526
 L 121.53,-435.349 L 121.75,-435.143 L 121.942,-434.911 L 122.103,-434.656 L 122.231,-434.383 L 122.325,-434.097
 L 122.381,-433.801 L 122.4,-433.5 L 122.381,-433.199 L 122.325,-432.903 L 122.231,-432.617 L 122.103,-432.344
 L 121.942,-432.089 L 121.75,-431.857 L 121.53,-431.651 L 121.286,-431.474 L 121.022,-431.328 L 120.742,-431.217
 L 120.45,-431.143 L 120.151,-431.105 z
M 119.849,-356.105 L 119.55,-356.143 L 119.258,-356.217 L 118.978,-356.328 L 118.714,-356.474 L 118.47,-356.651
 L 118.25,-356.857 L 118.058,-357.089 L 117.897,-357.344 L 117.769,-357.617 L 117.675,-357.903 L 117.619,-358.199
 L 117.6,-358.5 L 117.619,-358.801 L 117.675,-359.097 L 117.769,-359.383 L 117.897,-359.656 L 118.058,-359.911
 L 118.25,-360.143 L 118.47,-360.349 L 118.714,-360.526 L 118.978,-360.672 L 119.258,-360.783 L 119.55,-360.857
 L 119.849,-360.895 L 120.151,-360.895 L 120.45,-360.857 L 120.742,-360.783 L 121.022,-360.672 L 121.286,-360.526
 L 121.53,-360.349 L 121.75,-360.143 L 121.942,-359.911 L 122.103,-359.656 L 122.231,-359.383 L 122.325,-359.097
 L 122.381,-358.801 L 122.4,-358.5 L 122.381,-358.199 L 122.325,-357.903 L 122.231,-357.617 L 122.103,-357.344
 L 121.942,-357.089 L 121.75,-356.857 L 121.53,-356.651 L 121.286,-356.474 L 121.022,-356.328 L 120.742,-356.217
 L 120.45,-356.143 L 120.151,-356.105 z
M -120.151,-356.105 L -120.45,-356.143 L -120.742,-356.217 L -121.022,-356.328 L -121.286,-356.474 L -121.53,-356.651
 L -121.75,-356.857 L -121.942,-357.089 L -122.103,-357.344 L -122.231,-357.617 L -122.325,-357.903 L -122.381,-358.199
 L -122.4,-358.5 L -122.381,-358.801 L -122.325,-359.097 L -122.231,-359.383 L -122.103,-359.656 L -121.942,-359.911
 L -121.75,-360.143 L -121.53,-360.349 L -121.286,-360.526 L -121.022,-360.672 L -120.742,-360.783 L -120.45,-360.857
 L -120.151,-360.895 L -119.849,-360.895 L -119.55,-360.857 L -119.258,-360.783 L -118.978,-360.672 L -118.714,-360.526
 L -118.47,-360.349 L -118.25,-360.143 L -118.058,-359.911 L -117.897,-359.656 L -117.769,-359.383 L -117.675,-359.097
 L -117.619,-358.801 L -117.6,-358.5 L -117.619,-358.199 L -117.675,-357.903 L -117.769,-357.617 L -117.897,-357.344
 L -118.058,-357.089 L -118.25,-356.857 L -118.47,-356.651 L -118.714,-356.474 L -118.978,-356.328 L -119.258,-356.217
 L -119.55,-356.143 L -119.849,-356.105 z
M 123.437,-252.089 L 124.045,-252.245 L 124.629,-252.476 L 125.179,-252.778 L 125.687,-253.147 L 126.145,-253.577
 L 126.545,-254.061 L 126.882,-254.591 L 127.149,-255.159 L 127.343,-255.757 L 127.461,-256.373 L 127.5,-257
 L 127.5,-337 L 127.461,-337.627 L 127.343,-338.243 L 127.149,-338.841 L 126.882,-339.409 L 126.545,-339.939
 L 126.145,-340.423 L 125.687,-340.853 L 125.179,-341.222 L 124.629,-341.524 L 124.045,-341.755 L 123.437,-341.911
 L 122.814,-341.99 L -122.814,-341.99 L -123.437,-341.911 L -124.045,-341.755 L -124.629,-341.524 L -125.179,-341.222
 L -125.687,-340.853 L -126.145,-340.423 L -126.545,-339.939 L -126.882,-339.409 L -127.149,-338.841 L -127.343,-338.243
 L -127.4,-337.944 L -129,-337.944 L -129,-256.056 L -127.4,-256.056 L -127.343,-255.757 L -127.149,-255.159
 L -126.882,-254.591 L -126.545,-254.061 L -126.145,-253.577 L -125.687,-253.147 L -125.179,-252.778 L -124.629,-252.476
 L -124.045,-252.245 L -123.437,-252.089 L -122.814,-252.01 L 122.814,-252.01 z
M -120.113,-332.704 L -120.337,-332.732 L -120.556,-332.788 L -120.766,-332.871 L -120.964,-332.98 L -121.147,-333.113
 L -121.312,-333.268 L -121.456,-333.442 L -121.577,-333.633 L -121.674,-333.837 L -121.743,-334.052 L -121.786,-334.274
 L -121.8,-334.5 L -121.786,-334.726 L -121.743,-334.948 L -121.674,-335.163 L -121.577,-335.367 L -121.456,-335.558
 L -121.312,-335.732 L -121.147,-335.887 L -120.964,-336.02 L -120.766,-336.129 L -120.556,-336.212 L -120.337,-336.268
 L -120.113,-336.296 L -119.887,-336.296 L -119.663,-336.268 L -119.444,-336.212 L -119.234,-336.129 L -119.036,-336.02
 L -118.853,-335.887 L -118.688,-335.732 L -118.544,-335.558 L -118.423,-335.367 L -118.326,-335.163 L -118.257,-334.948
 L -118.214,-334.726 L -118.2,-334.5 L -118.214,-334.274 L -118.257,-334.052 L -118.326,-333.837 L -118.423,-333.633
 L -118.544,-333.442 L -118.688,-333.268 L -118.853,-333.113 L -119.036,-332.98 L -119.234,-332.871 L -119.444,-332.788
 L -119.663,-332.732 L -119.887,-332.704 z
M 119.887,-332.704 L 119.663,-332.732 L 119.444,-332.788 L 119.234,-332.871 L 119.036,-332.98 L 118.853,-333.113
 L 118.688,-333.268 L 118.544,-333.442 L 118.423,-333.633 L 118.326,-333.837 L 118.257,-334.052 L 118.214,-334.274
 L 118.2,-334.5 L 118.214,-334.726 L 118.257,-334.948 L 118.326,-335.163 L 118.423,-335.367 L 118.544,-335.558
 L 118.688,-335.732 L 118.853,-335.887 L 119.036,-336.02 L 119.234,-336.129 L 119.444,-336.212 L 119.663,-336.268
 L 119.887,-336.296 L 120.113,-336.296 L 120.337,-336.268 L 120.556,-336.212 L 120.766,-336.129 L 120.964,-336.02
 L 121.147,-335.887 L 121.312,-335.732 L 121.456,-335.558 L 121.577,-335.367 L 121.674,-335.163 L 121.743,-334.948
 L 121.786,-334.726 L 121.8,-334.5 L 121.786,-334.274 L 121.743,-334.052 L 121.674,-333.837 L 121.577,-333.633
 L 121.456,-333.442 L 121.312,-333.268 L 121.147,-333.113 L 120.964,-332.98 L 120.766,-332.871 L 120.556,-332.788
 L 120.337,-332.732 L 120.113,-332.704 z
M -120.113,-257.704 L -120.337,-257.732 L -120.556,-257.788 L -120.766,-257.871 L -120.964,-257.98 L -121.147,-258.113
 L -121.312,-258.268 L -121.456,-258.442 L -121.577,-258.633 L -121.674,-258.837 L -121.743,-259.052 L -121.786,-259.274
 L -121.8,-259.5 L -121.786,-259.726 L -121.743,-259.948 L -121.674,-260.163 L -121.577,-260.367 L -121.456,-260.558
 L -121.312,-260.732 L -121.147,-260.887 L -120.964,-261.02 L -120.766,-261.129 L -120.556,-261.212 L -120.337,-261.268
 L -120.113,-261.296 L -119.887,-261.296 L -119.663,-261.268 L -119.444,-261.212 L -119.234,-261.129 L -119.036,-261.02
 L -118.853,-260.887 L -118.688,-260.732 L -118.544,-260.558 L -118.423,-260.367 L -118.326,-260.163 L -118.257,-259.948
 L -118.214,-259.726 L -118.2,-259.5 L -118.214,-259.274 L -118.257,-259.052 L -118.326,-258.837 L -118.423,-258.633
 L -118.544,-258.442 L -118.688,-258.268 L -118.853,-258.113 L -119.036,-257.98 L -119.234,-257.871 L -119.444,-257.788
 L -119.663,-257.732 L -119.887,-257.704 z
M 119.887,-257.704 L 119.663,-257.732 L 119.444,-257.788 L 119.234,-257.871 L 119.036,-257.98 L 118.853,-258.113
 L 118.688,-258.268 L 118.544,-258.442 L 118.423,-258.633 L 118.326,-258.837 L 118.257,-259.052 L 118.214,-259.274
 L 118.2,-259.5 L 118.214,-259.726 L 118.257,-259.948 L 118.326,-260.163 L 118.423,-260.367 L 118.544,-260.558
 L 118.688,-260.732 L 118.853,-260.887 L 119.036,-261.02 L 119.234,-261.129 L 119.444,-261.212 L 119.663,-261.268
 L 119.887,-261.296 L 120.113,-261.296 L 120.337,-261.268 L 120.556,-261.212 L 120.766,-261.129 L 120.964,-261.02
 L 121.147,-260.887 L 121.312,-260.732 L 121.456,-260.558 L 121.577,-260.367 L 121.674,-260.163 L 121.743,-259.948
 L 121.786,-259.726 L 121.8,-259.5 L 121.786,-259.274 L 121.743,-259.052 L 121.674,-258.837 L 121.577,-258.633
 L 121.456,-258.442 L 121.312,-258.268 L 121.147,-258.113 L 120.964,-257.98 L 120.766,-257.871 L 120.556,-257.788
 L 120.337,-257.732 L 120.113,-257.704 z
" stroke="black" fill="lightgray" stroke-width="0.5"/>
</svg>
