<?xml version="1.0" standalone="no"?>
<!DOCTYPE svg PUBLIC "-//W3C//DTD SVG 1.1//EN" "http://www.w3.org/Graphics/SVG/1.1/DTD/svg11.dtd">
<svg width="256mm" height="288mm" viewBox="-128 -441 256 288" xmlns="http://www.w3.org/2000/svg" version="1.1">
<title>OpenSCAD Model</title>
<path d="
M 123.437,-351.089 L 124.045,-351.245 L 124.629,-351.476 L 125.179,-351.778 L 125.687,-352.147 L 126.145,-352.577
 L 126.545,-353.061 L 126.882,-353.591 L 127.149,-354.159 L 127.343,-354.757 L 127.461,-355.373 L 127.5,-356
 L 127.5,-436 L 127.461,-436.627 L 127.343,-437.243 L 127.149,-437.841 L 126.882,-438.409 L 126.545,-438.939
 L 126.145,-439.423 L 125.687,-439.853 L 125.179,-440.222 L 124.629,-440.524 L 124.045,-440.755 L 123.437,-440.911
 L 122.814,-440.99 L -122.814,-440.99 L -123.437,-440.911 L -124.045,-440.755 L -124.629,-440.524 L -125.179,-440.222
 L -125.687,-439.853 L -126.145,-439.423 L -126.545,-438.939 L -126.882,-438.409 L -127.149,-437.841 L -127.343,-437.243
 L -127.461,-436.627 L -127.5,-436 L -127.5,-356 L -127.461,-355.373 L -127.343,-354.757 L -127.149,-354.159
 L -126.882,-353.591 L -126.545,-353.061 L -126.145,-352.577 L -125.687,-352.147 L -125.179,-351.778 L -124.629,-351.476
 L -124.045,-351.245 L -123.437,-351.089 L -122.814,-351.01 L 122.814,-351.01 z
M -122.548,-351.509 L -123.14,-351.584 L -123.718,-351.732 L -124.272,-351.952 L -124.795,-352.239 L -125.278,-352.59
 L -125.713,-352.998 L -126.093,-353.458 L -126.412,-353.962 L -126.666,-354.501 L -126.851,-355.069 L -126.963,-355.655
 L -127,-356.25 L -127,-435.75 L -126.963,-436.345 L -126.851,-436.931 L -126.666,-437.499 L -126.412,-438.038
 L -126.093,-438.542 L -125.713,-439.002 L -125.278,-439.41 L -124.795,-439.761 L -124.272,-440.048 L -123.718,-440.268
 L -123.14,-440.416 L -122.548,-440.491 L 122.548,-440.491 L 123.14,-440.416 L 123.718,-440.268 L 124.272,-440.048
 L 124.795,-439.761 L 125.278,-439.41 L 125.713,-439.002 L 126.093,-438.542 L 126.412,-438.038 L 126.666,-437.499
 L 126.851,-436.931 L 126.963,-436.345 L 127,-435.75 L 127,-356.25 L 126.963,-355.655 L 126.851,-355.069
 L 126.666,-354.501 L 126.412,-353.962 L 126.093,-353.458 L 125.713,-352.998 L 125.278,-352.59 L 124.795,-352.239
 L 124.272,-351.952 L 123.718,-351.732 L 123.14,-351.584 L 122.548,-351.509 z
M 123.437,-252.089 L 124.045,-252.245 L 124.629,-252.476 L 125.179,-252.778 L 125.687,-253.147 L 126.145,-253.577
 L 126.545,-254.061 L 126.882,-254.591 L 127.149,-255.159 L 127.343,-255.757 L 127.461,-256.373 L 127.5,-257
 L 127.5,-337 L 127.461,-337.627 L 127.343,-338.243 L 127.149,-338.841 L 126.882,-339.409 L 126.545,-339.939
 L 126.145,-340.423 L 125.687,-340.853 L 125.179,-341.222 L 124.629,-341.524 L 124.045,-341.755 L 123.437,-341.911
 L 122.814,-341.99 L -122.814,-341.99 L -123.437,-341.911 L -124.045,-341.755 L -124.629,-341.524 L -125.179,-341.222
 L -125.687,-340.853 L -126.145,-340.423 L -126.545,-339.939 L -126.882,-339.409 L -127.149,-338.841 L -127.343,-338.243
 L -127.461,-337.627 L -127.5,-337 L -127.5,-257 L -127.461,-256.373 L -127.343,-255.757 L -127.149,-255.159
 L -126.882,-254.591 L -126.545,-254.061 L -126.145,-253.577 L -125.687,-253.147 L -125.179,-252.778 L -124.629,-252.476
 L -124.045,-252.245 L -123.437,-252.089 L -122.814,-252.01 L 122.814,-252.01 z
M -122.493,-253.388 L -122.975,-253.449 L -123.446,-253.57 L -123.898,-253.749 L -124.323,-253.983 L -124.716,-254.269
 L -125.071,-254.601 L -125.38,-254.976 L -125.641,-255.386 L -125.848,-255.826 L -125.998,-256.288 L -126.089,-256.765
 L -126.119,-257.25 L -126.119,-336.75 L -126.089,-337.235 L -125.998,-337.712 L -125.848,-338.174 L -125.641,-338.614
 L -125.38,-339.024 L -125.071,-339.399 L -124.716,-339.731 L -124.323,-340.017 L -123.898,-340.251 L -123.446,-340.43
 L -122.975,-340.551 L -122.493,-340.612 L 122.493,-340.612 L 122.975,-340.551 L 123.446,-340.43 L 123.898,-340.251
 L 124.323,-340.017 L 124.716,-339.731 L 125.071,-339.399 L 125.38,-339.024 L 125.641,-338.614 L 125.848,-338.174
 L 125.998,-337.712 L 126.089,-337.235 L 126.119,-336.75 L 126.119,-257.25 L 126.089,-256.765 L 125.998,-256.288
 L 125.848,-255.826 L 125.641,-255.386 L 125.38,-254.976 L 125.071,-254.601 L 124.716,-254.269 L 124.323,-253.983
 L 123.898,-253.749 L 123.446,-253.57 L 122.975,-253.449 L 122.493,-253.388 z
M 123.437,-153.089 L 124.045,-153.245 L 124.629,-153.476 L 125.179,-153.778 L 125.687,-154.147 L 126.145,-154.577
 L 126.545,-155.061 L 126.882,-155.591 L 127.149,-156.159 L 127.343,-156.757 L 127.461,-157.373 L 127.5,-158
 L 127.5,-238 L 127.461,-238.627 L 127.343,-239.243 L 127.149,-239.841 L 126.882,-240.409 L 126.545,-240.939
 L 126.145,-241.423 L 125.687,-241.853 L 125.179,-242.222 L 124.629,-242.524 L 124.045,-242.755 L 123.437,-242.911
 L 122.814,-242.99 L -122.814,-242.99 L -123.437,-242.911 L -124.045,-242.755 L -124.629,-242.524 L -125.179,-242.222
 L -125.687,-241.853 L -126.145,-241.423 L -126.545,-240.939 L -126.882,-240.409 L -127.149,-239.841 L -127.343,-239.243
 L -127.461,-238.627 L -127.5,-238 L -127.5,-158 L -127.461,-157.373 L -127.343,-156.757 L -127.149,-156.159
 L -126.882,-155.591 L -126.545,-155.061 L -126.145,-154.577 L -125.687,-154.147 L -125.179,-153.778 L -124.629,-153.476
 L -124.045,-153.245 L -123.437,-153.089 L -122.814,-153.01 L 122.814,-153.01 z
M -120.113,-233.704 L -120.337,-233.732 L -120.556,-233.788 L -120.766,-233.871 L -120.964,-233.98 L -121.147,-234.113
 L -121.312,-234.268 L -121.456,-234.442 L -121.577,-234.633 L -121.674,-234.837 L -121.743,-235.052 L -121.786,-235.274
 L -121.8,-235.5 L -121.786,-235.726 L -121.743,-235.948 L -121.674,-236.163 L -121.577,-236.367 L -121.456,-236.558
 L -121.312,-236.732 L -121.147,-236.887 L -120.964,-237.02 L -120.766,-237.129 L -120.556,-237.212 L -120.337,-237.268
 L -120.113,-237.296 L -119.887,-237.296 L -119.663,-237.268 L -119.444,-237.212 L -119.234,-237.129 L -119.036,-237.02
 L -118.853,-236.887 L -118.688,-236.732 L -118.544,-236.558 L -118.423,-236.367 L -118.326,-236.163 L -118.257,-235.948
 L -118.214,-235.726 L -118.2,-235.5 L -118.214,-235.274 L -118.257,-235.052 L -118.326,-234.837 L -118.423,-234.633
 L -118.544,-234.442 L -118.688,-234.268 L -118.853,-234.113 L -119.036,-233.98 L -119.234,-233.871 L -119.444,-233.788
 L -119.663,-233.732 L -119.887,-233.704 z
M 119.887,-233.704 L 119.663,-233.732 L 119.444,-233.788 L 119.234,-233.871 L 119.036,-233.98 L 118.853,-234.113
 L 118.688,-234.268 L 118.544,-234.442 L 118.423,-234.633 L 118.326,-234.837 L 118.257,-235.052 L 118.214,-235.274
 L 118.2,-235.5 L 118.214,-235.726 L 118.257,-235.948 L 118.326,-236.163 L 118.423,-236.367 L 118.544,-236.558
 L 118.688,-236.732 L 118.853,-236.887 L 119.036,-237.02 L 119.234,-237.129 L 119.444,-237.212 L 119.663,-237.268
 L 119.887,-237.296 L 120.113,-237.296 L 120.337,-237.268 L 120.556,-237.212 L 120.766,-237.129 L 120.964,-237.02
 L 121.147,-236.887 L 121.312,-236.732 L 121.456,-236.558 L 121.577,-236.367 L 121.674,-236.163 L 121.743,-235.948
 L 121.786,-235.726 L 121.8,-235.5 L 121.786,-235.274 L 121.743,-235.052 L 121.674,-234.837 L 121.577,-234.633
 L 121.456,-234.442 L 121.312,-234.268 L 121.147,-234.113 L 120.964,-233.98 L 120.766,-233.871 L 120.556,-233.788
 L 120.337,-233.732 L 120.113,-233.704 z
M 119.887,-158.704 L 119.663,-158.732 L 119.444,-158.788 L 119.234,-158.871 L 119.036,-158.98 L 118.853,-159.113
 L 118.688,-159.268 L 118.544,-159.442 L 118.423,-159.633 L 118.326,-159.837 L 118.257,-160.052 L 118.214,-160.274
 L 118.2,-160.5 L 118.214,-160.726 L 118.257,-160.948 L 118.326,-161.163 L 118.423,-161.367 L 118.544,-161.558
 L 118.688,-161.732 L 118.853,-161.887 L 119.036,-162.02 L 119.234,-162.129 L 119.444,-162.212 L 119.663,-162.268
 L 119.887,-162.296 L 120.113,-162.296 L 120.337,-162.268 L 120.556,-162.212 L 120.766,-162.129 L 120.964,-162.02
 L 121.147,-161.887 L 121.312,-161.732 L 121.456,-161.558 L 121.577,-161.367 L 121.674,-161.163 L 121.743,-160.948
 L 121.786,-160.726 L 121.8,-160.5 L 121.786,-160.274 L 121.743,-160.052 L 121.674,-159.837 L 121.577,-159.633
 L 121.456,-159.442 L 121.312,-159.268 L 121.147,-159.113 L 120.964,-158.98 L 120.766,-158.871 L 120.556,-158.788
 L 120.337,-158.732 L 120.113,-158.704 z
M -120.113,-158.704 L -120.337,-158.732 L -120.556,-158.788 L -120.766,-158.871 L -120.964,-158.98 L -121.147,-159.113
 L -121.312,-159.268 L -121.456,-159.442 L -121.577,-159.633 L -121.674,-159.837 L -121.743,-160.052 L -121.786,-160.274
 L -121.8,-160.5 L -121.786,-160.726 L -121.743,-160.948 L -121.674,-161.163 L -121.577,-161.367 L -121.456,-161.558
 L -121.312,-161.732 L -121.147,-161.887 L -120.964,-162.02 L -120.766,-162.129 L -120.556,-162.212 L -120.337,-162.268
 L -120.113,-162.296 L -119.887,-162.296 L -119.663,-162.268 L -119.444,-162.212 L -119.234,-162.129 L -119.036,-162.02
 L -118.853,-161.887 L -118.688,-161.732 L -118.544,-161.558 L -118.423,-161.367 L -118.326,-161.163 L -118.257,-160.948
 L -118.214,-160.726 L -118.2,-160.5 L -118.214,-160.274 L -118.257,-160.052 L -118.326,-159.837 L -118.423,-159.633
 L -118.544,-159.442 L -118.688,-159.268 L -118.853,-159.113 L -119.036,-158.98 L -119.234,-158.871 L -119.444,-158.788
 L -119.663,-158.732 L -119.887,-158.704 z
" stroke="black" fill="lightgray" stroke-width="0.5"/>
</svg>
