<?xml version="1.0" standalone="no"?>
<!DOCTYPE svg PUBLIC "-//W3C//DTD SVG 1.1//EN" "http://www.w3.org/Graphics/SVG/1.1/DTD/svg11.dtd">
<svg width="242mm" height="486mm" viewBox="-122 -936 242 486" xmlns="http://www.w3.org/2000/svg" version="1.1">
<title>OpenSCAD Model</title>
<path d="
M -118.5,-847.441 L -118.187,-847.147 L -117.679,-846.778 L -117.129,-846.476 L -116.545,-846.245 L -115.937,-846.089
 L -115.314,-846.01 L 115.314,-846.01 L 115.937,-846.089 L 116.545,-846.245 L 117.129,-846.476 L 117.679,-846.778
 L 118.187,-847.147 L 118.645,-847.577 L 119.045,-848.061 L 119.382,-848.591 L 119.649,-849.159 L 119.843,-849.757
 L 119.961,-850.373 L 120,-851 L 120,-931 L 119.961,-931.627 L 119.843,-932.243 L 119.649,-932.841
 L 119.382,-933.409 L 119.045,-933.939 L 118.645,-934.423 L 118.187,-934.853 L 117.679,-935.222 L 117.129,-935.524
 L 116.545,-935.755 L 115.937,-935.911 L 115.314,-935.99 L -115.314,-935.99 L -115.937,-935.911 L -116.545,-935.755
 L -117.129,-935.524 L -117.679,-935.222 L -118.187,-934.853 L -118.5,-934.559 L -118.5,-935.99 L -121.5,-935.99
 L -121.5,-846.01 L -118.5,-846.01 z
M -114.751,-847.508 L -115.25,-847.571 L -115.736,-847.696 L -116.203,-847.881 L -116.643,-848.123 L -117.05,-848.418
 L -117.416,-848.762 L -117.736,-849.149 L -118.005,-849.573 L -118.219,-850.028 L -118.374,-850.505 L -118.468,-850.999
 L -118.5,-851.5 L -118.5,-930.5 L -118.468,-931.001 L -118.374,-931.495 L -118.219,-931.972 L -118.005,-932.427
 L -117.736,-932.851 L -117.416,-933.238 L -117.05,-933.582 L -116.643,-933.877 L -116.203,-934.119 L -115.736,-934.304
 L -115.25,-934.429 L -114.751,-934.492 L 114.751,-934.492 L 115.25,-934.429 L 115.736,-934.304 L 116.203,-934.119
 L 116.643,-933.877 L 117.05,-933.582 L 117.416,-933.238 L 117.736,-932.851 L 118.005,-932.427 L 118.219,-931.972
 L 118.374,-931.495 L 118.468,-931.001 L 118.5,-930.5 L 118.5,-851.5 L 118.468,-850.999 L 118.374,-850.505
 L 118.219,-850.028 L 118.005,-849.573 L 117.736,-849.149 L 117.416,-848.762 L 117.05,-848.418 L 116.643,-848.123
 L 116.203,-847.881 L 115.736,-847.696 L 115.25,-847.571 L 114.751,-847.508 z
M -118.5,-748.441 L -118.187,-748.147 L -117.679,-747.778 L -117.129,-747.476 L -116.545,-747.245 L -115.937,-747.089
 L -115.314,-747.01 L 115.314,-747.01 L 115.937,-747.089 L 116.545,-747.245 L 117.129,-747.476 L 117.679,-747.778
 L 118.187,-748.147 L 118.645,-748.577 L 119.045,-749.061 L 119.382,-749.591 L 119.649,-750.159 L 119.843,-750.757
 L 119.961,-751.373 L 120,-752 L 120,-832 L 119.961,-832.627 L 119.843,-833.243 L 119.649,-833.841
 L 119.382,-834.409 L 119.045,-834.939 L 118.645,-835.423 L 118.187,-835.853 L 117.679,-836.222 L 117.129,-836.524
 L 116.545,-836.755 L 115.937,-836.911 L 115.314,-836.99 L -115.314,-836.99 L -115.937,-836.911 L -116.545,-836.755
 L -117.129,-836.524 L -117.679,-836.222 L -118.187,-835.853 L -118.5,-835.559 L -118.5,-836.99 L -121.5,-836.99
 L -121.5,-747.01 L -118.5,-747.01 z
M -114.751,-748.508 L -115.25,-748.571 L -115.736,-748.696 L -116.203,-748.881 L -116.643,-749.123 L -117.05,-749.418
 L -117.416,-749.762 L -117.736,-750.149 L -118.005,-750.573 L -118.219,-751.028 L -118.374,-751.505 L -118.468,-751.999
 L -118.5,-752.5 L -118.5,-831.5 L -118.468,-832.001 L -118.374,-832.495 L -118.219,-832.972 L -118.005,-833.427
 L -117.736,-833.851 L -117.416,-834.238 L -117.05,-834.582 L -116.643,-834.877 L -116.203,-835.119 L -115.736,-835.304
 L -115.25,-835.429 L -114.751,-835.492 L 114.751,-835.492 L 115.25,-835.429 L 115.736,-835.304 L 116.203,-835.119
 L 116.643,-834.877 L 117.05,-834.582 L 117.416,-834.238 L 117.736,-833.851 L 118.005,-833.427 L 118.219,-832.972
 L 118.374,-832.495 L 118.468,-832.001 L 118.5,-831.5 L 118.5,-752.5 L 118.468,-751.999 L 118.374,-751.505
 L 118.219,-751.028 L 118.005,-750.573 L 117.736,-750.149 L 117.416,-749.762 L 117.05,-749.418 L 116.643,-749.123
 L 116.203,-748.881 L 115.736,-748.696 L 115.25,-748.571 L 114.751,-748.508 z
M -118.5,-649.441 L -118.187,-649.147 L -117.679,-648.778 L -117.129,-648.476 L -116.545,-648.245 L -115.937,-648.089
 L -115.314,-648.01 L 115.314,-648.01 L 115.937,-648.089 L 116.545,-648.245 L 117.129,-648.476 L 117.679,-648.778
 L 118.187,-649.147 L 118.645,-649.577 L 119.045,-650.061 L 119.382,-650.591 L 119.649,-651.159 L 119.843,-651.757
 L 119.961,-652.373 L 120,-653 L 120,-733 L 119.961,-733.627 L 119.843,-734.243 L 119.649,-734.841
 L 119.382,-735.409 L 119.045,-735.939 L 118.645,-736.423 L 118.187,-736.853 L 117.679,-737.222 L 117.129,-737.524
 L 116.545,-737.755 L 115.937,-737.911 L 115.314,-737.99 L -115.314,-737.99 L -115.937,-737.911 L -116.545,-737.755
 L -117.129,-737.524 L -117.679,-737.222 L -118.187,-736.853 L -118.5,-736.559 L -118.5,-737.99 L -121.5,-737.99
 L -121.5,-648.01 L -118.5,-648.01 z
M -114.751,-649.508 L -115.25,-649.571 L -115.736,-649.696 L -116.203,-649.881 L -116.643,-650.123 L -117.05,-650.418
 L -117.416,-650.762 L -117.736,-651.149 L -118.005,-651.573 L -118.219,-652.028 L -118.374,-652.505 L -118.468,-652.999
 L -118.5,-653.5 L -118.5,-732.5 L -118.468,-733.001 L -118.374,-733.495 L -118.219,-733.972 L -118.005,-734.427
 L -117.736,-734.851 L -117.416,-735.238 L -117.05,-735.582 L -116.643,-735.877 L -116.203,-736.119 L -115.736,-736.304
 L -115.25,-736.429 L -114.751,-736.492 L 114.751,-736.492 L 115.25,-736.429 L 115.736,-736.304 L 116.203,-736.119
 L 116.643,-735.877 L 117.05,-735.582 L 117.416,-735.238 L 117.736,-734.851 L 118.005,-734.427 L 118.219,-733.972
 L 118.374,-733.495 L 118.468,-733.001 L 118.5,-732.5 L 118.5,-653.5 L 118.468,-652.999 L 118.374,-652.505
 L 118.219,-652.028 L 118.005,-651.573 L 117.736,-651.149 L 117.416,-650.762 L 117.05,-650.418 L 116.643,-650.123
 L 116.203,-649.881 L 115.736,-649.696 L 115.25,-649.571 L 114.751,-649.508 z
M 115.937,-549.089 L 116.545,-549.245 L 117.129,-549.476 L 117.679,-549.778 L 118.187,-550.147 L 118.645,-550.577
 L 119.045,-551.061 L 119.382,-551.591 L 119.649,-552.159 L 119.843,-552.757 L 119.961,-553.373 L 120,-554
 L 120,-634 L 119.961,-634.627 L 119.843,-635.243 L 119.649,-635.841 L 119.382,-636.409 L 119.045,-636.939
 L 118.645,-637.423 L 118.187,-637.853 L 117.679,-638.222 L 117.129,-638.524 L 116.545,-638.755 L 115.937,-638.911
 L 115.314,-638.99 L -115.314,-638.99 L -115.937,-638.911 L -116.545,-638.755 L -117.129,-638.524 L -117.679,-638.222
 L -118.187,-637.853 L -118.5,-637.559 L -118.5,-638.979 L -121.5,-638.979 L -121.5,-549.021 L -118.5,-549.021
 L -118.5,-550.441 L -118.187,-550.147 L -117.679,-549.778 L -117.129,-549.476 L -116.545,-549.245 L -115.937,-549.089
 L -115.314,-549.01 L 115.314,-549.01 z
M -114.695,-551.393 L -115.083,-551.442 L -115.462,-551.539 L -115.825,-551.683 L -116.168,-551.872 L -116.484,-552.101
 L -116.769,-552.369 L -117.018,-552.67 L -117.228,-553 L -117.394,-553.354 L -117.515,-553.726 L -117.588,-554.11
 L -117.613,-554.5 L -117.613,-633.5 L -117.588,-633.89 L -117.515,-634.274 L -117.394,-634.646 L -117.228,-635
 L -117.018,-635.33 L -116.769,-635.631 L -116.484,-635.899 L -116.168,-636.128 L -115.825,-636.317 L -115.462,-636.461
 L -115.083,-636.558 L -114.695,-636.607 L 114.695,-636.607 L 115.083,-636.558 L 115.462,-636.461 L 115.825,-636.317
 L 116.168,-636.128 L 116.484,-635.899 L 116.769,-635.631 L 117.018,-635.33 L 117.228,-635 L 117.394,-634.646
 L 117.515,-634.274 L 117.588,-633.89 L 117.613,-633.5 L 117.613,-554.5 L 117.588,-554.11 L 117.515,-553.726
 L 117.394,-553.354 L 117.228,-553 L 117.018,-552.67 L 116.769,-552.369 L 116.484,-552.101 L 116.168,-551.872
 L 115.825,-551.683 L 115.462,-551.539 L 115.083,-551.442 L 114.695,-551.393 z
M 115.937,-450.089 L 116.545,-450.245 L 117.129,-450.476 L 117.679,-450.778 L 118.187,-451.147 L 118.645,-451.577
 L 119.045,-452.061 L 119.382,-452.591 L 119.649,-453.159 L 119.843,-453.757 L 119.961,-454.373 L 120,-455
 L 120,-535 L 119.961,-535.627 L 119.843,-536.243 L 119.649,-536.841 L 119.382,-537.409 L 119.045,-537.939
 L 118.645,-538.423 L 118.187,-538.853 L 117.679,-539.222 L 117.129,-539.524 L 116.545,-539.755 L 115.937,-539.911
 L 115.314,-539.99 L -115.314,-539.99 L -115.937,-539.911 L -116.545,-539.755 L -117.129,-539.524 L -117.679,-539.222
 L -118.187,-538.853 L -118.5,-538.559 L -118.5,-538.653 L -121.5,-538.653 L -121.5,-451.347 L -118.5,-451.347
 L -118.5,-451.441 L -118.187,-451.147 L -117.679,-450.778 L -117.129,-450.476 L -116.545,-450.245 L -115.937,-450.089
 L -115.314,-450.01 L 115.314,-450.01 z
M -112.634,-530.369 L -112.9,-530.403 L -113.16,-530.469 L -113.409,-530.568 L -113.644,-530.697 L -113.861,-530.855
 L -114.057,-531.038 L -114.227,-531.245 L -114.371,-531.471 L -114.485,-531.714 L -114.568,-531.969 L -114.618,-532.232
 L -114.635,-532.5 L -114.618,-532.768 L -114.568,-533.031 L -114.485,-533.286 L -114.371,-533.529 L -114.227,-533.755
 L -114.057,-533.962 L -113.861,-534.145 L -113.644,-534.303 L -113.409,-534.432 L -113.16,-534.531 L -112.9,-534.597
 L -112.634,-534.631 L -112.366,-534.631 L -112.1,-534.597 L -111.84,-534.531 L -111.591,-534.432 L -111.356,-534.303
 L -111.139,-534.145 L -110.943,-533.962 L -110.773,-533.755 L -110.629,-533.529 L -110.515,-533.286 L -110.432,-533.031
 L -110.382,-532.768 L -110.365,-532.5 L -110.382,-532.232 L -110.432,-531.969 L -110.515,-531.714 L -110.629,-531.471
 L -110.773,-531.245 L -110.943,-531.038 L -111.139,-530.855 L -111.356,-530.697 L -111.591,-530.568 L -111.84,-530.469
 L -112.1,-530.403 L -112.366,-530.369 z
M 112.366,-530.369 L 112.1,-530.403 L 111.84,-530.469 L 111.591,-530.568 L 111.356,-530.697 L 111.139,-530.855
 L 110.943,-531.038 L 110.773,-531.245 L 110.629,-531.471 L 110.515,-531.714 L 110.432,-531.969 L 110.382,-532.232
 L 110.365,-532.5 L 110.382,-532.768 L 110.432,-533.031 L 110.515,-533.286 L 110.629,-533.529 L 110.773,-533.755
 L 110.943,-533.962 L 111.139,-534.145 L 111.356,-534.303 L 111.591,-534.432 L 111.84,-534.531 L 112.1,-534.597
 L 112.366,-534.631 L 112.634,-534.631 L 112.9,-534.597 L 113.16,-534.531 L 113.409,-534.432 L 113.644,-534.303
 L 113.861,-534.145 L 114.057,-533.962 L 114.227,-533.755 L 114.371,-533.529 L 114.485,-533.286 L 114.568,-533.031
 L 114.618,-532.768 L 114.635,-532.5 L 114.618,-532.232 L 114.568,-531.969 L 114.485,-531.714 L 114.371,-531.471
 L 114.227,-531.245 L 114.057,-531.038 L 113.861,-530.855 L 113.644,-530.697 L 113.409,-530.568 L 113.16,-530.469
 L 112.9,-530.403 L 112.634,-530.369 z
M -112.634,-455.369 L -112.9,-455.403 L -113.16,-455.469 L -113.409,-455.568 L -113.644,-455.697 L -113.861,-455.855
 L -114.057,-456.038 L -114.227,-456.245 L -114.371,-456.471 L -114.485,-456.714 L -114.568,-456.969 L -114.618,-457.232
 L -114.635,-457.5 L -114.618,-457.768 L -114.568,-458.031 L -114.485,-458.286 L -114.371,-458.529 L -114.227,-458.755
 L -114.057,-458.962 L -113.861,-459.145 L -113.644,-459.303 L -113.409,-459.432 L -113.16,-459.531 L -112.9,-459.597
 L -112.634,-459.631 L -112.366,-459.631 L -112.1,-459.597 L -111.84,-459.531 L -111.591,-459.432 L -111.356,-459.303
 L -111.139,-459.145 L -110.943,-458.962 L -110.773,-458.755 L -110.629,-458.529 L -110.515,-458.286 L -110.432,-458.031
 L -110.382,-457.768 L -110.365,-457.5 L -110.382,-457.232 L -110.432,-456.969 L -110.515,-456.714 L -110.629,-456.471
 L -110.773,-456.245 L -110.943,-456.038 L -111.139,-455.855 L -111.356,-455.697 L -111.591,-455.568 L -111.84,-455.469
 L -112.1,-455.403 L -112.366,-455.369 z
M 112.366,-455.369 L 112.1,-455.403 L 111.84,-455.469 L 111.591,-455.568 L 111.356,-455.697 L 111.139,-455.855
 L 110.943,-456.038 L 110.773,-456.245 L 110.629,-456.471 L 110.515,-456.714 L 110.432,-456.969 L 110.382,-457.232
 L 110.365,-457.5 L 110.382,-457.768 L 110.432,-458.031 L 110.515,-458.286 L 110.629,-458.529 L 110.773,-458.755
 L 110.943,-458.962 L 111.139,-459.145 L 111.356,-459.303 L 111.591,-459.432 L 111.84,-459.531 L 112.1,-459.597
 L 112.366,-459.631 L 112.634,-459.631 L 112.9,-459.597 L 113.16,-459.531 L 113.409,-459.432 L 113.644,-459.303
 L 113.861,-459.145 L 114.057,-458.962 L 114.227,-458.755 L 114.371,-458.529 L 114.485,-458.286 L 114.568,-458.031
 L 114.618,-457.768 L 114.635,-457.5 L 114.618,-457.232 L 114.568,-456.969 L 114.485,-456.714 L 114.371,-456.471
 L 114.227,-456.245 L 114.057,-456.038 L 113.861,-455.855 L 113.644,-455.697 L 113.409,-455.568 L 113.16,-455.469
 L 112.9,-455.403 L 112.634,-455.369 z
" stroke="black" fill="lightgray" stroke-width="0.5"/>
</svg>
