<?xml version="1.0" standalone="no"?>
<!DOCTYPE svg PUBLIC "-//W3C//DTD SVG 1.1//EN" "http://www.w3.org/Graphics/SVG/1.1/DTD/svg11.dtd">
<svg width="240mm" height="928mm" viewBox="-120 -1517 240 928" xmlns="http://www.w3.org/2000/svg" version="1.1">
<title>OpenSCAD Model</title>
<path d="
M 115.937,-1291.59 L 116.545,-1291.74 L 117.129,-1291.98 L 117.679,-1292.28 L 118.187,-1292.65 L 118.645,-1293.08
 L 119.045,-1293.56 L 119.382,-1294.09 L 119.649,-1294.66 L 119.843,-1295.26 L 119.961,-1295.87 L 120,-1296.5
 L 120,-1511.5 L 119.961,-1512.13 L 119.843,-1512.74 L 119.649,-1513.34 L 119.382,-1513.91 L 119.045,-1514.44
 L 118.645,-1514.92 L 118.187,-1515.35 L 117.679,-1515.72 L 117.129,-1516.02 L 116.545,-1516.26 L 115.937,-1516.41
 L 115.314,-1516.49 L -115.314,-1516.49 L -115.937,-1516.41 L -116.545,-1516.26 L -117.129,-1516.02 L -117.679,-1515.72
 L -118.187,-1515.35 L -118.645,-1514.92 L -119.045,-1514.44 L -119.382,-1513.91 L -119.649,-1513.34 L -119.843,-1512.74
 L -119.961,-1512.13 L -120,-1511.5 L -120,-1296.5 L -119.961,-1295.87 L -119.843,-1295.26 L -119.649,-1294.66
 L -119.382,-1294.09 L -119.045,-1293.56 L -118.645,-1293.08 L -118.187,-1292.65 L -117.679,-1292.28 L -117.129,-1291.98
 L -116.545,-1291.74 L -115.937,-1291.59 L -115.314,-1291.51 L 115.314,-1291.51 z
M -115.048,-1292.01 L -115.64,-1292.08 L -116.218,-1292.23 L -116.772,-1292.45 L -117.295,-1292.74 L -117.778,-1293.09
 L -118.213,-1293.5 L -118.593,-1293.96 L -118.912,-1294.46 L -119.166,-1295 L -119.351,-1295.57 L -119.463,-1296.15
 L -119.5,-1296.75 L -119.5,-1511.25 L -119.463,-1511.85 L -119.351,-1512.43 L -119.166,-1513 L -118.912,-1513.54
 L -118.593,-1514.04 L -118.213,-1514.5 L -117.778,-1514.91 L -117.295,-1515.26 L -116.772,-1515.55 L -116.218,-1515.77
 L -115.64,-1515.92 L -115.048,-1515.99 L 115.048,-1515.99 L 115.64,-1515.92 L 116.218,-1515.77 L 116.772,-1515.55
 L 117.295,-1515.26 L 117.778,-1514.91 L 118.213,-1514.5 L 118.593,-1514.04 L 118.912,-1513.54 L 119.166,-1513
 L 119.351,-1512.43 L 119.463,-1511.85 L 119.5,-1511.25 L 119.5,-1296.75 L 119.463,-1296.15 L 119.351,-1295.57
 L 119.166,-1295 L 118.912,-1294.46 L 118.593,-1293.96 L 118.213,-1293.5 L 117.778,-1293.09 L 117.295,-1292.74
 L 116.772,-1292.45 L 116.218,-1292.23 L 115.64,-1292.08 L 115.048,-1292.01 z
M 115.937,-1057.59 L 116.545,-1057.74 L 117.129,-1057.98 L 117.679,-1058.28 L 118.187,-1058.65 L 118.645,-1059.08
 L 119.045,-1059.56 L 119.382,-1060.09 L 119.649,-1060.66 L 119.843,-1061.26 L 119.961,-1061.87 L 120,-1062.5
 L 120,-1277.5 L 119.961,-1278.13 L 119.843,-1278.74 L 119.649,-1279.34 L 119.382,-1279.91 L 119.045,-1280.44
 L 118.645,-1280.92 L 118.187,-1281.35 L 117.679,-1281.72 L 117.129,-1282.02 L 116.545,-1282.26 L 115.937,-1282.41
 L 115.314,-1282.49 L -115.314,-1282.49 L -115.937,-1282.41 L -116.545,-1282.26 L -117.129,-1282.02 L -117.679,-1281.72
 L -118.187,-1281.35 L -118.645,-1280.92 L -119.045,-1280.44 L -119.382,-1279.91 L -119.649,-1279.34 L -119.843,-1278.74
 L -119.961,-1278.13 L -120,-1277.5 L -120,-1062.5 L -119.961,-1061.87 L -119.843,-1061.26 L -119.649,-1060.66
 L -119.382,-1060.09 L -119.045,-1059.56 L -118.645,-1059.08 L -118.187,-1058.65 L -117.679,-1058.28 L -117.129,-1057.98
 L -116.545,-1057.74 L -115.937,-1057.59 L -115.314,-1057.51 L 115.314,-1057.51 z
M -115.048,-1058.01 L -115.64,-1058.08 L -116.218,-1058.23 L -116.772,-1058.45 L -117.295,-1058.74 L -117.778,-1059.09
 L -118.213,-1059.5 L -118.593,-1059.96 L -118.912,-1060.46 L -119.166,-1061 L -119.351,-1061.57 L -119.463,-1062.15
 L -119.5,-1062.75 L -119.5,-1277.25 L -119.463,-1277.85 L -119.351,-1278.43 L -119.166,-1279 L -118.912,-1279.54
 L -118.593,-1280.04 L -118.213,-1280.5 L -117.778,-1280.91 L -117.295,-1281.26 L -116.772,-1281.55 L -116.218,-1281.77
 L -115.64,-1281.92 L -115.048,-1281.99 L 115.048,-1281.99 L 115.64,-1281.92 L 116.218,-1281.77 L 116.772,-1281.55
 L 117.295,-1281.26 L 117.778,-1280.91 L 118.213,-1280.5 L 118.593,-1280.04 L 118.912,-1279.54 L 119.166,-1279
 L 119.351,-1278.43 L 119.463,-1277.85 L 119.5,-1277.25 L 119.5,-1062.75 L 119.463,-1062.15 L 119.351,-1061.57
 L 119.166,-1061 L 118.912,-1060.46 L 118.593,-1059.96 L 118.213,-1059.5 L 117.778,-1059.09 L 117.295,-1058.74
 L 116.772,-1058.45 L 116.218,-1058.23 L 115.64,-1058.08 L 115.048,-1058.01 z
M 115.937,-823.589 L 116.545,-823.745 L 117.129,-823.976 L 117.679,-824.278 L 118.187,-824.647 L 118.645,-825.077
 L 119.045,-825.561 L 119.382,-826.091 L 119.649,-826.659 L 119.843,-827.257 L 119.961,-827.873 L 120,-828.5
 L 120,-1043.5 L 119.961,-1044.13 L 119.843,-1044.74 L 119.649,-1045.34 L 119.382,-1045.91 L 119.045,-1046.44
 L 118.645,-1046.92 L 118.187,-1047.35 L 117.679,-1047.72 L 117.129,-1048.02 L 116.545,-1048.26 L 115.937,-1048.41
 L 115.314,-1048.49 L -115.314,-1048.49 L -115.937,-1048.41 L -116.545,-1048.26 L -117.129,-1048.02 L -117.679,-1047.72
 L -118.187,-1047.35 L -118.645,-1046.92 L -119.045,-1046.44 L -119.382,-1045.91 L -119.649,-1045.34 L -119.843,-1044.74
 L -119.961,-1044.13 L -120,-1043.5 L -120,-828.5 L -119.961,-827.873 L -119.843,-827.257 L -119.649,-826.659
 L -119.382,-826.091 L -119.045,-825.561 L -118.645,-825.077 L -118.187,-824.647 L -117.679,-824.278 L -117.129,-823.976
 L -116.545,-823.745 L -115.937,-823.589 L -115.314,-823.51 L 115.314,-823.51 z
M -114.993,-824.888 L -115.475,-824.949 L -115.946,-825.07 L -116.398,-825.249 L -116.823,-825.483 L -117.216,-825.769
 L -117.571,-826.101 L -117.88,-826.476 L -118.141,-826.886 L -118.348,-827.326 L -118.498,-827.788 L -118.589,-828.265
 L -118.619,-828.75 L -118.619,-1043.25 L -118.589,-1043.73 L -118.498,-1044.21 L -118.348,-1044.67 L -118.141,-1045.11
 L -117.88,-1045.52 L -117.571,-1045.9 L -117.216,-1046.23 L -116.823,-1046.52 L -116.398,-1046.75 L -115.946,-1046.93
 L -115.475,-1047.05 L -114.993,-1047.11 L 114.993,-1047.11 L 115.475,-1047.05 L 115.946,-1046.93 L 116.398,-1046.75
 L 116.823,-1046.52 L 117.216,-1046.23 L 117.571,-1045.9 L 117.88,-1045.52 L 118.141,-1045.11 L 118.348,-1044.67
 L 118.498,-1044.21 L 118.589,-1043.73 L 118.619,-1043.25 L 118.619,-828.75 L 118.589,-828.265 L 118.498,-827.788
 L 118.348,-827.326 L 118.141,-826.886 L 117.88,-826.476 L 117.571,-826.101 L 117.216,-825.769 L 116.823,-825.483
 L 116.398,-825.249 L 115.946,-825.07 L 115.475,-824.949 L 114.993,-824.888 z
M 115.937,-589.589 L 116.545,-589.745 L 117.129,-589.976 L 117.679,-590.278 L 118.187,-590.647 L 118.645,-591.077
 L 119.045,-591.561 L 119.382,-592.091 L 119.649,-592.659 L 119.843,-593.257 L 119.961,-593.873 L 120,-594.5
 L 120,-809.5 L 119.961,-810.127 L 119.843,-810.743 L 119.649,-811.341 L 119.382,-811.909 L 119.045,-812.439
 L 118.645,-812.923 L 118.187,-813.353 L 117.679,-813.722 L 117.129,-814.024 L 116.545,-814.255 L 115.937,-814.411
 L 115.314,-814.49 L -115.314,-814.49 L -115.937,-814.411 L -116.545,-814.255 L -117.129,-814.024 L -117.679,-813.722
 L -118.187,-813.353 L -118.645,-812.923 L -119.045,-812.439 L -119.382,-811.909 L -119.649,-811.341 L -119.843,-810.743
 L -119.961,-810.127 L -120,-809.5 L -120,-594.5 L -119.961,-593.873 L -119.843,-593.257 L -119.649,-592.659
 L -119.382,-592.091 L -119.045,-591.561 L -118.645,-591.077 L -118.187,-590.647 L -117.679,-590.278 L -117.129,-589.976
 L -116.545,-589.745 L -115.937,-589.589 L -115.314,-589.51 L 115.314,-589.51 z
M 112.387,-805.204 L 112.163,-805.232 L 111.944,-805.288 L 111.734,-805.371 L 111.536,-805.48 L 111.353,-805.613
 L 111.188,-805.768 L 111.044,-805.942 L 110.923,-806.133 L 110.826,-806.337 L 110.757,-806.552 L 110.714,-806.774
 L 110.7,-807 L 110.714,-807.226 L 110.757,-807.448 L 110.826,-807.663 L 110.923,-807.867 L 111.044,-808.058
 L 111.188,-808.232 L 111.353,-808.387 L 111.536,-808.52 L 111.734,-808.629 L 111.944,-808.712 L 112.163,-808.768
 L 112.387,-808.796 L 112.613,-808.796 L 112.837,-808.768 L 113.056,-808.712 L 113.266,-808.629 L 113.464,-808.52
 L 113.647,-808.387 L 113.812,-808.232 L 113.956,-808.058 L 114.077,-807.867 L 114.174,-807.663 L 114.243,-807.448
 L 114.286,-807.226 L 114.3,-807 L 114.286,-806.774 L 114.243,-806.552 L 114.174,-806.337 L 114.077,-806.133
 L 113.956,-805.942 L 113.812,-805.768 L 113.647,-805.613 L 113.464,-805.48 L 113.266,-805.371 L 113.056,-805.288
 L 112.837,-805.232 L 112.613,-805.204 z
M -112.613,-805.204 L -112.837,-805.232 L -113.056,-805.288 L -113.266,-805.371 L -113.464,-805.48 L -113.647,-805.613
 L -113.812,-805.768 L -113.956,-805.942 L -114.077,-806.133 L -114.174,-806.337 L -114.243,-806.552 L -114.286,-806.774
 L -114.3,-807 L -114.286,-807.226 L -114.243,-807.448 L -114.174,-807.663 L -114.077,-807.867 L -113.956,-808.058
 L -113.812,-808.232 L -113.647,-808.387 L -113.464,-808.52 L -113.266,-808.629 L -113.056,-808.712 L -112.837,-808.768
 L -112.613,-808.796 L -112.387,-808.796 L -112.163,-808.768 L -111.944,-808.712 L -111.734,-808.629 L -111.536,-808.52
 L -111.353,-808.387 L -111.188,-808.232 L -111.044,-808.058 L -110.923,-807.867 L -110.826,-807.663 L -110.757,-807.448
 L -110.714,-807.226 L -110.7,-807 L -110.714,-806.774 L -110.757,-806.552 L -110.826,-806.337 L -110.923,-806.133
 L -111.044,-805.942 L -111.188,-805.768 L -111.353,-805.613 L -111.536,-805.48 L -111.734,-805.371 L -111.944,-805.288
 L -112.163,-805.232 L -112.387,-805.204 z
M -112.613,-595.204 L -112.837,-595.232 L -113.056,-595.288 L -113.266,-595.371 L -113.464,-595.48 L -113.647,-595.613
 L -113.812,-595.768 L -113.956,-595.942 L -114.077,-596.133 L -114.174,-596.337 L -114.243,-596.552 L -114.286,-596.774
 L -114.3,-597 L -114.286,-597.226 L -114.243,-597.448 L -114.174,-597.663 L -114.077,-597.867 L -113.956,-598.058
 L -113.812,-598.232 L -113.647,-598.387 L -113.464,-598.52 L -113.266,-598.629 L -113.056,-598.712 L -112.837,-598.768
 L -112.613,-598.796 L -112.387,-598.796 L -112.163,-598.768 L -111.944,-598.712 L -111.734,-598.629 L -111.536,-598.52
 L -111.353,-598.387 L -111.188,-598.232 L -111.044,-598.058 L -110.923,-597.867 L -110.826,-597.663 L -110.757,-597.448
 L -110.714,-597.226 L -110.7,-597 L -110.714,-596.774 L -110.757,-596.552 L -110.826,-596.337 L -110.923,-596.133
 L -111.044,-595.942 L -111.188,-595.768 L -111.353,-595.613 L -111.536,-595.48 L -111.734,-595.371 L -111.944,-595.288
 L -112.163,-595.232 L -112.387,-595.204 z
M 112.387,-595.204 L 112.163,-595.232 L 111.944,-595.288 L 111.734,-595.371 L 111.536,-595.48 L 111.353,-595.613
 L 111.188,-595.768 L 111.044,-595.942 L 110.923,-596.133 L 110.826,-596.337 L 110.757,-596.552 L 110.714,-596.774
 L 110.7,-597 L 110.714,-597.226 L 110.757,-597.448 L 110.826,-597.663 L 110.923,-597.867 L 111.044,-598.058
 L 111.188,-598.232 L 111.353,-598.387 L 111.536,-598.52 L 111.734,-598.629 L 111.944,-598.712 L 112.163,-598.768
 L 112.387,-598.796 L 112.613,-598.796 L 112.837,-598.768 L 113.056,-598.712 L 113.266,-598.629 L 113.464,-598.52
 L 113.647,-598.387 L 113.812,-598.232 L 113.956,-598.058 L 114.077,-597.867 L 114.174,-597.663 L 114.243,-597.448
 L 114.286,-597.226 L 114.3,-597 L 114.286,-596.774 L 114.243,-596.552 L 114.174,-596.337 L 114.077,-596.133
 L 113.956,-595.942 L 113.812,-595.768 L 113.647,-595.613 L 113.464,-595.48 L 113.266,-595.371 L 113.056,-595.288
 L 112.837,-595.232 L 112.613,-595.204 z
" stroke="black" fill="lightgray" stroke-width="0.5"/>
</svg>
