<?xml version="1.0" standalone="no"?>
<!DOCTYPE svg PUBLIC "-//W3C//DTD SVG 1.1//EN" "http://www.w3.org/Graphics/SVG/1.1/DTD/svg11.dtd">
<svg width="256mm" height="507mm" viewBox="-128 -834 256 507" xmlns="http://www.w3.org/2000/svg" version="1.1">
<title>OpenSCAD Model</title>
<path d="
M 123.437,-714.089 L 124.045,-714.245 L 124.629,-714.476 L 125.179,-714.778 L 125.687,-715.147 L 126.145,-715.577
 L 126.545,-716.061 L 126.882,-716.591 L 127.149,-717.159 L 127.343,-717.757 L 127.461,-718.373 L 127.5,-719
 L 127.5,-829 L 127.461,-829.627 L 127.343,-830.243 L 127.149,-830.841 L 126.882,-831.409 L 126.545,-831.939
 L 126.145,-832.423 L 125.687,-832.853 L 125.179,-833.222 L 124.629,-833.524 L 124.045,-833.755 L 123.437,-833.911
 L 122.814,-833.99 L -122.814,-833.99 L -123.437,-833.911 L -124.045,-833.755 L -124.629,-833.524 L -125.179,-833.222
 L -125.687,-832.853 L -126.145,-832.423 L -126.545,-831.939 L -126.882,-831.409 L -127.149,-830.841 L -127.343,-830.243
 L -127.461,-829.627 L -127.5,-829 L -127.5,-719 L -127.461,-718.373 L -127.343,-717.757 L -127.149,-717.159
 L -126.882,-716.591 L -126.545,-716.061 L -126.145,-715.577 L -125.687,-715.147 L -125.179,-714.778 L -124.629,-714.476
 L -124.045,-714.245 L -123.437,-714.089 L -122.814,-714.01 L 122.814,-714.01 z
M -122.548,-714.509 L -123.14,-714.584 L -123.718,-714.732 L -124.272,-714.952 L -124.795,-715.239 L -125.278,-715.59
 L -125.713,-715.998 L -126.093,-716.458 L -126.412,-716.962 L -126.666,-717.501 L -126.851,-718.069 L -126.963,-718.655
 L -127,-719.25 L -127,-828.75 L -126.963,-829.345 L -126.851,-829.931 L -126.666,-830.499 L -126.412,-831.038
 L -126.093,-831.542 L -125.713,-832.002 L -125.278,-832.41 L -124.795,-832.761 L -124.272,-833.048 L -123.718,-833.268
 L -123.14,-833.416 L -122.548,-833.491 L 122.548,-833.491 L 123.14,-833.416 L 123.718,-833.268 L 124.272,-833.048
 L 124.795,-832.761 L 125.278,-832.41 L 125.713,-832.002 L 126.093,-831.542 L 126.412,-831.038 L 126.666,-830.499
 L 126.851,-829.931 L 126.963,-829.345 L 127,-828.75 L 127,-719.25 L 126.963,-718.655 L 126.851,-718.069
 L 126.666,-717.501 L 126.412,-716.962 L 126.093,-716.458 L 125.713,-715.998 L 125.278,-715.59 L 124.795,-715.239
 L 124.272,-714.952 L 123.718,-714.732 L 123.14,-714.584 L 122.548,-714.509 z
M 123.437,-585.089 L 124.045,-585.245 L 124.629,-585.476 L 125.179,-585.778 L 125.687,-586.147 L 126.145,-586.577
 L 126.545,-587.061 L 126.882,-587.591 L 127.149,-588.159 L 127.343,-588.757 L 127.461,-589.373 L 127.5,-590
 L 127.5,-700 L 127.461,-700.627 L 127.343,-701.243 L 127.149,-701.841 L 126.882,-702.409 L 126.545,-702.939
 L 126.145,-703.423 L 125.687,-703.853 L 125.179,-704.222 L 124.629,-704.524 L 124.045,-704.755 L 123.437,-704.911
 L 122.814,-704.99 L -122.814,-704.99 L -123.437,-704.911 L -124.045,-704.755 L -124.629,-704.524 L -125.179,-704.222
 L -125.687,-703.853 L -126.145,-703.423 L -126.545,-702.939 L -126.882,-702.409 L -127.149,-701.841 L -127.343,-701.243
 L -127.461,-700.627 L -127.5,-700 L -127.5,-590 L -127.461,-589.373 L -127.343,-588.757 L -127.149,-588.159
 L -126.882,-587.591 L -126.545,-587.061 L -126.145,-586.577 L -125.687,-586.147 L -125.179,-585.778 L -124.629,-585.476
 L -124.045,-585.245 L -123.437,-585.089 L -122.814,-585.01 L 122.814,-585.01 z
M -122.548,-585.509 L -123.14,-585.584 L -123.718,-585.732 L -124.272,-585.952 L -124.795,-586.239 L -125.278,-586.59
 L -125.713,-586.998 L -126.093,-587.458 L -126.412,-587.962 L -126.666,-588.501 L -126.851,-589.069 L -126.963,-589.655
 L -127,-590.25 L -127,-699.75 L -126.963,-700.345 L -126.851,-700.931 L -126.666,-701.499 L -126.412,-702.038
 L -126.093,-702.542 L -125.713,-703.002 L -125.278,-703.41 L -124.795,-703.761 L -124.272,-704.048 L -123.718,-704.268
 L -123.14,-704.416 L -122.548,-704.491 L 122.548,-704.491 L 123.14,-704.416 L 123.718,-704.268 L 124.272,-704.048
 L 124.795,-703.761 L 125.278,-703.41 L 125.713,-703.002 L 126.093,-702.542 L 126.412,-702.038 L 126.666,-701.499
 L 126.851,-700.931 L 126.963,-700.345 L 127,-699.75 L 127,-590.25 L 126.963,-589.655 L 126.851,-589.069
 L 126.666,-588.501 L 126.412,-587.962 L 126.093,-587.458 L 125.713,-586.998 L 125.278,-586.59 L 124.795,-586.239
 L 124.272,-585.952 L 123.718,-585.732 L 123.14,-585.584 L 122.548,-585.509 z
M 123.437,-456.089 L 124.045,-456.245 L 124.629,-456.476 L 125.179,-456.778 L 125.687,-457.147 L 126.145,-457.577
 L 126.545,-458.061 L 126.882,-458.591 L 127.149,-459.159 L 127.343,-459.757 L 127.461,-460.373 L 127.5,-461
 L 127.5,-571 L 127.461,-571.627 L 127.343,-572.243 L 127.149,-572.841 L 126.882,-573.409 L 126.545,-573.939
 L 126.145,-574.423 L 125.687,-574.853 L 125.179,-575.222 L 124.629,-575.524 L 124.045,-575.755 L 123.437,-575.911
 L 122.814,-575.99 L -122.814,-575.99 L -123.437,-575.911 L -124.045,-575.755 L -124.629,-575.524 L -125.179,-575.222
 L -125.687,-574.853 L -126.145,-574.423 L -126.545,-573.939 L -126.882,-573.409 L -127.149,-572.841 L -127.343,-572.243
 L -127.461,-571.627 L -127.5,-571 L -127.5,-461 L -127.461,-460.373 L -127.343,-459.757 L -127.149,-459.159
 L -126.882,-458.591 L -126.545,-458.061 L -126.145,-457.577 L -125.687,-457.147 L -125.179,-456.778 L -124.629,-456.476
 L -124.045,-456.245 L -123.437,-456.089 L -122.814,-456.01 L 122.814,-456.01 z
M -122.493,-457.388 L -122.975,-457.449 L -123.446,-457.57 L -123.898,-457.749 L -124.323,-457.983 L -124.716,-458.269
 L -125.071,-458.601 L -125.38,-458.976 L -125.641,-459.386 L -125.848,-459.826 L -125.998,-460.288 L -126.089,-460.765
 L -126.119,-461.25 L -126.119,-570.75 L -126.089,-571.235 L -125.998,-571.712 L -125.848,-572.174 L -125.641,-572.614
 L -125.38,-573.024 L -125.071,-573.399 L -124.716,-573.731 L -124.323,-574.017 L -123.898,-574.251 L -123.446,-574.43
 L -122.975,-574.551 L -122.493,-574.612 L 122.493,-574.612 L 122.975,-574.551 L 123.446,-574.43 L 123.898,-574.251
 L 124.323,-574.017 L 124.716,-573.731 L 125.071,-573.399 L 125.38,-573.024 L 125.641,-572.614 L 125.848,-572.174
 L 125.998,-571.712 L 126.089,-571.235 L 126.119,-570.75 L 126.119,-461.25 L 126.089,-460.765 L 125.998,-460.288
 L 125.848,-459.826 L 125.641,-459.386 L 125.38,-458.976 L 125.071,-458.601 L 124.716,-458.269 L 124.323,-457.983
 L 123.898,-457.749 L 123.446,-457.57 L 122.975,-457.449 L 122.493,-457.388 z
M 123.437,-327.089 L 124.045,-327.245 L 124.629,-327.476 L 125.179,-327.778 L 125.687,-328.147 L 126.145,-328.577
 L 126.545,-329.061 L 126.882,-329.591 L 127.149,-330.159 L 127.343,-330.757 L 127.461,-331.373 L 127.5,-332
 L 127.5,-442 L 127.461,-442.627 L 127.343,-443.243 L 127.149,-443.841 L 126.882,-444.409 L 126.545,-444.939
 L 126.145,-445.423 L 125.687,-445.853 L 125.179,-446.222 L 124.629,-446.524 L 124.045,-446.755 L 123.437,-446.911
 L 122.814,-446.99 L -122.814,-446.99 L -123.437,-446.911 L -124.045,-446.755 L -124.629,-446.524 L -125.179,-446.222
 L -125.687,-445.853 L -126.145,-445.423 L -126.545,-444.939 L -126.882,-444.409 L -127.149,-443.841 L -127.343,-443.243
 L -127.461,-442.627 L -127.5,-442 L -127.5,-332 L -127.461,-331.373 L -127.343,-330.757 L -127.149,-330.159
 L -126.882,-329.591 L -126.545,-329.061 L -126.145,-328.577 L -125.687,-328.147 L -125.179,-327.778 L -124.629,-327.476
 L -124.045,-327.245 L -123.437,-327.089 L -122.814,-327.01 L 122.814,-327.01 z
M 119.887,-437.704 L 119.663,-437.732 L 119.444,-437.788 L 119.234,-437.871 L 119.036,-437.98 L 118.853,-438.113
 L 118.688,-438.268 L 118.544,-438.442 L 118.423,-438.633 L 118.326,-438.837 L 118.257,-439.052 L 118.214,-439.274
 L 118.2,-439.5 L 118.214,-439.726 L 118.257,-439.948 L 118.326,-440.163 L 118.423,-440.367 L 118.544,-440.558
 L 118.688,-440.732 L 118.853,-440.887 L 119.036,-441.02 L 119.234,-441.129 L 119.444,-441.212 L 119.663,-441.268
 L 119.887,-441.296 L 120.113,-441.296 L 120.337,-441.268 L 120.556,-441.212 L 120.766,-441.129 L 120.964,-441.02
 L 121.147,-440.887 L 121.312,-440.732 L 121.456,-440.558 L 121.577,-440.367 L 121.674,-440.163 L 121.743,-439.948
 L 121.786,-439.726 L 121.8,-439.5 L 121.786,-439.274 L 121.743,-439.052 L 121.674,-438.837 L 121.577,-438.633
 L 121.456,-438.442 L 121.312,-438.268 L 121.147,-438.113 L 120.964,-437.98 L 120.766,-437.871 L 120.556,-437.788
 L 120.337,-437.732 L 120.113,-437.704 z
M -120.113,-437.704 L -120.337,-437.732 L -120.556,-437.788 L -120.766,-437.871 L -120.964,-437.98 L -121.147,-438.113
 L -121.312,-438.268 L -121.456,-438.442 L -121.577,-438.633 L -121.674,-438.837 L -121.743,-439.052 L -121.786,-439.274
 L -121.8,-439.5 L -121.786,-439.726 L -121.743,-439.948 L -121.674,-440.163 L -121.577,-440.367 L -121.456,-440.558
 L -121.312,-440.732 L -121.147,-440.887 L -120.964,-441.02 L -120.766,-441.129 L -120.556,-441.212 L -120.337,-441.268
 L -120.113,-441.296 L -119.887,-441.296 L -119.663,-441.268 L -119.444,-441.212 L -119.234,-441.129 L -119.036,-441.02
 L -118.853,-440.887 L -118.688,-440.732 L -118.544,-440.558 L -118.423,-440.367 L -118.326,-440.163 L -118.257,-439.948
 L -118.214,-439.726 L -118.2,-439.5 L -118.214,-439.274 L -118.257,-439.052 L -118.326,-438.837 L -118.423,-438.633
 L -118.544,-438.442 L -118.688,-438.268 L -118.853,-438.113 L -119.036,-437.98 L -119.234,-437.871 L -119.444,-437.788
 L -119.663,-437.732 L -119.887,-437.704 z
M -120.113,-332.704 L -120.337,-332.732 L -120.556,-332.788 L -120.766,-332.871 L -120.964,-332.98 L -121.147,-333.113
 L -121.312,-333.268 L -121.456,-333.442 L -121.577,-333.633 L -121.674,-333.837 L -121.743,-334.052 L -121.786,-334.274
 L -121.8,-334.5 L -121.786,-334.726 L -121.743,-334.948 L -121.674,-335.163 L -121.577,-335.367 L -121.456,-335.558
 L -121.312,-335.732 L -121.147,-335.887 L -120.964,-336.02 L -120.766,-336.129 L -120.556,-336.212 L -120.337,-336.268
 L -120.113,-336.296 L -119.887,-336.296 L -119.663,-336.268 L -119.444,-336.212 L -119.234,-336.129 L -119.036,-336.02
 L -118.853,-335.887 L -118.688,-335.732 L -118.544,-335.558 L -118.423,-335.367 L -118.326,-335.163 L -118.257,-334.948
 L -118.214,-334.726 L -118.2,-334.5 L -118.214,-334.274 L -118.257,-334.052 L -118.326,-333.837 L -118.423,-333.633
 L -118.544,-333.442 L -118.688,-333.268 L -118.853,-333.113 L -119.036,-332.98 L -119.234,-332.871 L -119.444,-332.788
 L -119.663,-332.732 L -119.887,-332.704 z
M 119.887,-332.704 L 119.663,-332.732 L 119.444,-332.788 L 119.234,-332.871 L 119.036,-332.98 L 118.853,-333.113
 L 118.688,-333.268 L 118.544,-333.442 L 118.423,-333.633 L 118.326,-333.837 L 118.257,-334.052 L 118.214,-334.274
 L 118.2,-334.5 L 118.214,-334.726 L 118.257,-334.948 L 118.326,-335.163 L 118.423,-335.367 L 118.544,-335.558
 L 118.688,-335.732 L 118.853,-335.887 L 119.036,-336.02 L 119.234,-336.129 L 119.444,-336.212 L 119.663,-336.268
 L 119.887,-336.296 L 120.113,-336.296 L 120.337,-336.268 L 120.556,-336.212 L 120.766,-336.129 L 120.964,-336.02
 L 121.147,-335.887 L 121.312,-335.732 L 121.456,-335.558 L 121.577,-335.367 L 121.674,-335.163 L 121.743,-334.948
 L 121.786,-334.726 L 121.8,-334.5 L 121.786,-334.274 L 121.743,-334.052 L 121.674,-333.837 L 121.577,-333.633
 L 121.456,-333.442 L 121.312,-333.268 L 121.147,-333.113 L 120.964,-332.98 L 120.766,-332.871 L 120.556,-332.788
 L 120.337,-332.732 L 120.113,-332.704 z
" stroke="black" fill="lightgray" stroke-width="0.5"/>
</svg>
