<?xml version="1.0" standalone="no"?>
<!DOCTYPE svg PUBLIC "-//W3C//DTD SVG 1.1//EN" "http://www.w3.org/Graphics/SVG/1.1/DTD/svg11.dtd">
<svg width="240mm" height="874mm" viewBox="-120 -1613 240 874" xmlns="http://www.w3.org/2000/svg" version="1.1">
<title>OpenSCAD Model</title>
<path d="
M 115.937,-1327.59 L 116.545,-1327.74 L 117.129,-1327.98 L 117.679,-1328.28 L 118.187,-1328.65 L 118.645,-1329.08
 L 119.045,-1329.56 L 119.382,-1330.09 L 119.649,-1330.66 L 119.843,-1331.26 L 119.961,-1331.87 L 120,-1332.5
 L 120,-1607.5 L 119.961,-1608.13 L 119.843,-1608.74 L 119.649,-1609.34 L 119.382,-1609.91 L 119.045,-1610.44
 L 118.645,-1610.92 L 118.187,-1611.35 L 117.679,-1611.72 L 117.129,-1612.02 L 116.545,-1612.26 L 115.937,-1612.41
 L 115.314,-1612.49 L -115.314,-1612.49 L -115.937,-1612.41 L -116.545,-1612.26 L -117.129,-1612.02 L -117.679,-1611.72
 L -118.187,-1611.35 L -118.645,-1610.92 L -119.045,-1610.44 L -119.382,-1609.91 L -119.649,-1609.34 L -119.843,-1608.74
 L -119.961,-1608.13 L -120,-1607.5 L -120,-1332.5 L -119.961,-1331.87 L -119.843,-1331.26 L -119.649,-1330.66
 L -119.382,-1330.09 L -119.045,-1329.56 L -118.645,-1329.08 L -118.187,-1328.65 L -117.679,-1328.28 L -117.129,-1327.98
 L -116.545,-1327.74 L -115.937,-1327.59 L -115.314,-1327.51 L 115.314,-1327.51 z
M -114.751,-1329.01 L -115.25,-1329.07 L -115.736,-1329.2 L -116.203,-1329.38 L -116.643,-1329.62 L -117.05,-1329.92
 L -117.416,-1330.26 L -117.736,-1330.65 L -118.005,-1331.07 L -118.219,-1331.53 L -118.374,-1332.01 L -118.468,-1332.5
 L -118.5,-1333 L -118.5,-1607 L -118.468,-1607.5 L -118.374,-1607.99 L -118.219,-1608.47 L -118.005,-1608.93
 L -117.736,-1609.35 L -117.416,-1609.74 L -117.05,-1610.08 L -116.643,-1610.38 L -116.203,-1610.62 L -115.736,-1610.8
 L -115.25,-1610.93 L -114.751,-1610.99 L 114.751,-1610.99 L 115.25,-1610.93 L 115.736,-1610.8 L 116.203,-1610.62
 L 116.643,-1610.38 L 117.05,-1610.08 L 117.416,-1609.74 L 117.736,-1609.35 L 118.005,-1608.93 L 118.219,-1608.47
 L 118.374,-1607.99 L 118.468,-1607.5 L 118.5,-1607 L 118.5,-1333 L 118.468,-1332.5 L 118.374,-1332.01
 L 118.219,-1331.53 L 118.005,-1331.07 L 117.736,-1330.65 L 117.416,-1330.26 L 117.05,-1329.92 L 116.643,-1329.62
 L 116.203,-1329.38 L 115.736,-1329.2 L 115.25,-1329.07 L 114.751,-1329.01 z
M 115.937,-1033.59 L 116.545,-1033.74 L 117.129,-1033.98 L 117.679,-1034.28 L 118.187,-1034.65 L 118.645,-1035.08
 L 119.045,-1035.56 L 119.382,-1036.09 L 119.649,-1036.66 L 119.843,-1037.26 L 119.961,-1037.87 L 120,-1038.5
 L 120,-1313.5 L 119.961,-1314.13 L 119.843,-1314.74 L 119.649,-1315.34 L 119.382,-1315.91 L 119.045,-1316.44
 L 118.645,-1316.92 L 118.187,-1317.35 L 117.679,-1317.72 L 117.129,-1318.02 L 116.545,-1318.26 L 115.937,-1318.41
 L 115.314,-1318.49 L -115.314,-1318.49 L -115.937,-1318.41 L -116.545,-1318.26 L -117.129,-1318.02 L -117.679,-1317.72
 L -118.187,-1317.35 L -118.645,-1316.92 L -119.045,-1316.44 L -119.382,-1315.91 L -119.649,-1315.34 L -119.843,-1314.74
 L -119.961,-1314.13 L -120,-1313.5 L -120,-1038.5 L -119.961,-1037.87 L -119.843,-1037.26 L -119.649,-1036.66
 L -119.382,-1036.09 L -119.045,-1035.56 L -118.645,-1035.08 L -118.187,-1034.65 L -117.679,-1034.28 L -117.129,-1033.98
 L -116.545,-1033.74 L -115.937,-1033.59 L -115.314,-1033.51 L 115.314,-1033.51 z
M -114.695,-1035.89 L -115.083,-1035.94 L -115.462,-1036.04 L -115.825,-1036.18 L -116.168,-1036.37 L -116.484,-1036.6
 L -116.769,-1036.87 L -117.018,-1037.17 L -117.228,-1037.5 L -117.394,-1037.85 L -117.515,-1038.23 L -117.588,-1038.61
 L -117.613,-1039 L -117.613,-1313 L -117.588,-1313.39 L -117.515,-1313.77 L -117.394,-1314.15 L -117.228,-1314.5
 L -117.018,-1314.83 L -116.769,-1315.13 L -116.484,-1315.4 L -116.168,-1315.63 L -115.825,-1315.82 L -115.462,-1315.96
 L -115.083,-1316.06 L -114.695,-1316.11 L 114.695,-1316.11 L 115.083,-1316.06 L 115.462,-1315.96 L 115.825,-1315.82
 L 116.168,-1315.63 L 116.484,-1315.4 L 116.769,-1315.13 L 117.018,-1314.83 L 117.228,-1314.5 L 117.394,-1314.15
 L 117.515,-1313.77 L 117.588,-1313.39 L 117.613,-1313 L 117.613,-1039 L 117.588,-1038.61 L 117.515,-1038.23
 L 117.394,-1037.85 L 117.228,-1037.5 L 117.018,-1037.17 L 116.769,-1036.87 L 116.484,-1036.6 L 116.168,-1036.37
 L 115.825,-1036.18 L 115.462,-1036.04 L 115.083,-1035.94 L 114.695,-1035.89 z
M 115.937,-739.589 L 116.545,-739.745 L 117.129,-739.976 L 117.679,-740.278 L 118.187,-740.647 L 118.645,-741.077
 L 119.045,-741.561 L 119.382,-742.091 L 119.649,-742.659 L 119.843,-743.257 L 119.961,-743.873 L 120,-744.5
 L 120,-1019.5 L 119.961,-1020.13 L 119.843,-1020.74 L 119.649,-1021.34 L 119.382,-1021.91 L 119.045,-1022.44
 L 118.645,-1022.92 L 118.187,-1023.35 L 117.679,-1023.72 L 117.129,-1024.02 L 116.545,-1024.26 L 115.937,-1024.41
 L 115.314,-1024.49 L -115.314,-1024.49 L -115.937,-1024.41 L -116.545,-1024.26 L -117.129,-1024.02 L -117.679,-1023.72
 L -118.187,-1023.35 L -118.645,-1022.92 L -119.045,-1022.44 L -119.382,-1021.91 L -119.649,-1021.34 L -119.843,-1020.74
 L -119.961,-1020.13 L -120,-1019.5 L -120,-744.5 L -119.961,-743.873 L -119.843,-743.257 L -119.649,-742.659
 L -119.382,-742.091 L -119.045,-741.561 L -118.645,-741.077 L -118.187,-740.647 L -117.679,-740.278 L -117.129,-739.976
 L -116.545,-739.745 L -115.937,-739.589 L -115.314,-739.51 L 115.314,-739.51 z
M 112.366,-1014.87 L 112.1,-1014.9 L 111.84,-1014.97 L 111.591,-1015.07 L 111.356,-1015.2 L 111.139,-1015.35
 L 110.943,-1015.54 L 110.773,-1015.74 L 110.629,-1015.97 L 110.515,-1016.21 L 110.432,-1016.47 L 110.382,-1016.73
 L 110.365,-1017 L 110.382,-1017.27 L 110.432,-1017.53 L 110.515,-1017.79 L 110.629,-1018.03 L 110.773,-1018.26
 L 110.943,-1018.46 L 111.139,-1018.65 L 111.356,-1018.8 L 111.591,-1018.93 L 111.84,-1019.03 L 112.1,-1019.1
 L 112.366,-1019.13 L 112.634,-1019.13 L 112.9,-1019.1 L 113.16,-1019.03 L 113.409,-1018.93 L 113.644,-1018.8
 L 113.861,-1018.65 L 114.057,-1018.46 L 114.227,-1018.26 L 114.371,-1018.03 L 114.485,-1017.79 L 114.568,-1017.53
 L 114.618,-1017.27 L 114.635,-1017 L 114.618,-1016.73 L 114.568,-1016.47 L 114.485,-1016.21 L 114.371,-1015.97
 L 114.227,-1015.74 L 114.057,-1015.54 L 113.861,-1015.35 L 113.644,-1015.2 L 113.409,-1015.07 L 113.16,-1014.97
 L 112.9,-1014.9 L 112.634,-1014.87 z
M -112.634,-1014.87 L -112.9,-1014.9 L -113.16,-1014.97 L -113.409,-1015.07 L -113.644,-1015.2 L -113.861,-1015.35
 L -114.057,-1015.54 L -114.227,-1015.74 L -114.371,-1015.97 L -114.485,-1016.21 L -114.568,-1016.47 L -114.618,-1016.73
 L -114.635,-1017 L -114.618,-1017.27 L -114.568,-1017.53 L -114.485,-1017.79 L -114.371,-1018.03 L -114.227,-1018.26
 L -114.057,-1018.46 L -113.861,-1018.65 L -113.644,-1018.8 L -113.409,-1018.93 L -113.16,-1019.03 L -112.9,-1019.1
 L -112.634,-1019.13 L -112.366,-1019.13 L -112.1,-1019.1 L -111.84,-1019.03 L -111.591,-1018.93 L -111.356,-1018.8
 L -111.139,-1018.65 L -110.943,-1018.46 L -110.773,-1018.26 L -110.629,-1018.03 L -110.515,-1017.79 L -110.432,-1017.53
 L -110.382,-1017.27 L -110.365,-1017 L -110.382,-1016.73 L -110.432,-1016.47 L -110.515,-1016.21 L -110.629,-1015.97
 L -110.773,-1015.74 L -110.943,-1015.54 L -111.139,-1015.35 L -111.356,-1015.2 L -111.591,-1015.07 L -111.84,-1014.97
 L -112.1,-1014.9 L -112.366,-1014.87 z
M 112.366,-744.869 L 112.1,-744.903 L 111.84,-744.969 L 111.591,-745.068 L 111.356,-745.197 L 111.139,-745.355
 L 110.943,-745.538 L 110.773,-745.745 L 110.629,-745.971 L 110.515,-746.214 L 110.432,-746.469 L 110.382,-746.732
 L 110.365,-747 L 110.382,-747.268 L 110.432,-747.531 L 110.515,-747.786 L 110.629,-748.029 L 110.773,-748.255
 L 110.943,-748.462 L 111.139,-748.645 L 111.356,-748.803 L 111.591,-748.932 L 111.84,-749.031 L 112.1,-749.097
 L 112.366,-749.131 L 112.634,-749.131 L 112.9,-749.097 L 113.16,-749.031 L 113.409,-748.932 L 113.644,-748.803
 L 113.861,-748.645 L 114.057,-748.462 L 114.227,-748.255 L 114.371,-748.029 L 114.485,-747.786 L 114.568,-747.531
 L 114.618,-747.268 L 114.635,-747 L 114.618,-746.732 L 114.568,-746.469 L 114.485,-746.214 L 114.371,-745.971
 L 114.227,-745.745 L 114.057,-745.538 L 113.861,-745.355 L 113.644,-745.197 L 113.409,-745.068 L 113.16,-744.969
 L 112.9,-744.903 L 112.634,-744.869 z
M -112.634,-744.869 L -112.9,-744.903 L -113.16,-744.969 L -113.409,-745.068 L -113.644,-745.197 L -113.861,-745.355
 L -114.057,-745.538 L -114.227,-745.745 L -114.371,-745.971 L -114.485,-746.214 L -114.568,-746.469 L -114.618,-746.732
 L -114.635,-747 L -114.618,-747.268 L -114.568,-747.531 L -114.485,-747.786 L -114.371,-748.029 L -114.227,-748.255
 L -114.057,-748.462 L -113.861,-748.645 L -113.644,-748.803 L -113.409,-748.932 L -113.16,-749.031 L -112.9,-749.097
 L -112.634,-749.131 L -112.366,-749.131 L -112.1,-749.097 L -111.84,-749.031 L -111.591,-748.932 L -111.356,-748.803
 L -111.139,-748.645 L -110.943,-748.462 L -110.773,-748.255 L -110.629,-748.029 L -110.515,-747.786 L -110.432,-747.531
 L -110.382,-747.268 L -110.365,-747 L -110.382,-746.732 L -110.432,-746.469 L -110.515,-746.214 L -110.629,-745.971
 L -110.773,-745.745 L -110.943,-745.538 L -111.139,-745.355 L -111.356,-745.197 L -111.591,-745.068 L -111.84,-744.969
 L -112.1,-744.903 L -112.366,-744.869 z
" stroke="black" fill="lightgray" stroke-width="0.5"/>
</svg>
