  0
SECTION
  2
BLOCKS
  0
ENDSEC
  0
SECTION
  2
ENTITIES
  0
LINE
  8
0
 10
-141
 20
302.941
 11
-140.687
 21
302.647
  0
LINE
  8
0
 10
-140.687
 20
302.647
 11
-140.179
 21
302.278
  0
LINE
  8
0
 10
-140.179
 20
302.278
 11
-139.629
 21
301.976
  0
LINE
  8
0
 10
-139.629
 20
301.976
 11
-139.045
 21
301.745
  0
LINE
  8
0
 10
-139.045
 20
301.745
 11
-138.437
 21
301.589
  0
LINE
  8
0
 10
-138.437
 20
301.589
 11
-137.814
 21
301.51
  0
LINE
  8
0
 10
-137.814
 20
301.51
 11
137.814
 21
301.51
  0
LINE
  8
0
 10
137.814
 20
301.51
 11
138.437
 21
301.589
  0
LINE
  8
0
 10
138.437
 20
301.589
 11
139.045
 21
301.745
  0
LINE
  8
0
 10
139.045
 20
301.745
 11
139.629
 21
301.976
  0
LINE
  8
0
 10
139.629
 20
301.976
 11
140.179
 21
302.278
  0
LINE
  8
0
 10
140.179
 20
302.278
 11
140.687
 21
302.647
  0
LINE
  8
0
 10
140.687
 20
302.647
 11
141.145
 21
303.077
  0
LINE
  8
0
 10
141.145
 20
303.077
 11
141.545
 21
303.561
  0
LINE
  8
0
 10
141.545
 20
303.561
 11
141.882
 21
304.091
  0
LINE
  8
0
 10
141.882
 20
304.091
 11
142.149
 21
304.659
  0
LINE
  8
0
 10
142.149
 20
304.659
 11
142.343
 21
305.257
  0
LINE
  8
0
 10
142.343
 20
305.257
 11
142.461
 21
305.873
  0
LINE
  8
0
 10
142.461
 20
305.873
 11
142.5
 21
306.5
  0
LINE
  8
0
 10
142.5
 20
306.5
 11
142.5
 21
341.5
  0
LINE
  8
0
 10
142.5
 20
341.5
 11
142.461
 21
342.127
  0
LINE
  8
0
 10
142.461
 20
342.127
 11
142.343
 21
342.743
  0
LINE
  8
0
 10
142.343
 20
342.743
 11
142.149
 21
343.341
  0
LINE
  8
0
 10
142.149
 20
343.341
 11
141.882
 21
343.909
  0
LINE
  8
0
 10
141.882
 20
343.909
 11
141.545
 21
344.439
  0
LINE
  8
0
 10
141.545
 20
344.439
 11
141.145
 21
344.923
  0
LINE
  8
0
 10
141.145
 20
344.923
 11
140.687
 21
345.353
  0
LINE
  8
0
 10
140.687
 20
345.353
 11
140.179
 21
345.722
  0
LINE
  8
0
 10
140.179
 20
345.722
 11
139.629
 21
346.024
  0
LINE
  8
0
 10
139.629
 20
346.024
 11
139.045
 21
346.255
  0
LINE
  8
0
 10
139.045
 20
346.255
 11
138.437
 21
346.411
  0
LINE
  8
0
 10
138.437
 20
346.411
 11
137.814
 21
346.49
  0
LINE
  8
0
 10
137.814
 20
346.49
 11
-137.814
 21
346.49
  0
LINE
  8
0
 10
-137.814
 20
346.49
 11
-138.437
 21
346.411
  0
LINE
  8
0
 10
-138.437
 20
346.411
 11
-139.045
 21
346.255
  0
LINE
  8
0
 10
-139.045
 20
346.255
 11
-139.629
 21
346.024
  0
LINE
  8
0
 10
-139.629
 20
346.024
 11
-140.179
 21
345.722
  0
LINE
  8
0
 10
-140.179
 20
345.722
 11
-140.687
 21
345.353
  0
LINE
  8
0
 10
-140.687
 20
345.353
 11
-141
 21
345.059
  0
LINE
  8
0
 10
-141
 20
345.059
 11
-141
 21
346.49
  0
LINE
  8
0
 10
-141
 20
346.49
 11
-144
 21
346.49
  0
LINE
  8
0
 10
-144
 20
346.49
 11
-144
 21
301.51
  0
LINE
  8
0
 10
-144
 20
301.51
 11
-141
 21
301.51
  0
LINE
  8
0
 10
-141
 20
301.51
 11
-141
 21
302.941
  0
LINE
  8
0
 10
-137.251
 20
303.008
 11
-137.75
 21
303.071
  0
LINE
  8
0
 10
-137.75
 20
303.071
 11
-138.236
 21
303.196
  0
LINE
  8
0
 10
-138.236
 20
303.196
 11
-138.703
 21
303.381
  0
LINE
  8
0
 10
-138.703
 20
303.381
 11
-139.143
 21
303.623
  0
LINE
  8
0
 10
-139.143
 20
303.623
 11
-139.55
 21
303.918
  0
LINE
  8
0
 10
-139.55
 20
303.918
 11
-139.916
 21
304.262
  0
LINE
  8
0
 10
-139.916
 20
304.262
 11
-140.236
 21
304.649
  0
LINE
  8
0
 10
-140.236
 20
304.649
 11
-140.505
 21
305.073
  0
LINE
  8
0
 10
-140.505
 20
305.073
 11
-140.719
 21
305.528
  0
LINE
  8
0
 10
-140.719
 20
305.528
 11
-140.874
 21
306.005
  0
LINE
  8
0
 10
-140.874
 20
306.005
 11
-140.968
 21
306.499
  0
LINE
  8
0
 10
-140.968
 20
306.499
 11
-141
 21
307
  0
LINE
  8
0
 10
-141
 20
307
 11
-141
 21
341
  0
LINE
  8
0
 10
-141
 20
341
 11
-140.968
 21
341.501
  0
LINE
  8
0
 10
-140.968
 20
341.501
 11
-140.874
 21
341.995
  0
LINE
  8
0
 10
-140.874
 20
341.995
 11
-140.719
 21
342.472
  0
LINE
  8
0
 10
-140.719
 20
342.472
 11
-140.505
 21
342.927
  0
LINE
  8
0
 10
-140.505
 20
342.927
 11
-140.236
 21
343.351
  0
LINE
  8
0
 10
-140.236
 20
343.351
 11
-139.916
 21
343.738
  0
LINE
  8
0
 10
-139.916
 20
343.738
 11
-139.55
 21
344.082
  0
LINE
  8
0
 10
-139.55
 20
344.082
 11
-139.143
 21
344.377
  0
LINE
  8
0
 10
-139.143
 20
344.377
 11
-138.703
 21
344.619
  0
LINE
  8
0
 10
-138.703
 20
344.619
 11
-138.236
 21
344.804
  0
LINE
  8
0
 10
-138.236
 20
344.804
 11
-137.75
 21
344.929
  0
LINE
  8
0
 10
-137.75
 20
344.929
 11
-137.251
 21
344.992
  0
LINE
  8
0
 10
-137.251
 20
344.992
 11
137.251
 21
344.992
  0
LINE
  8
0
 10
137.251
 20
344.992
 11
137.75
 21
344.929
  0
LINE
  8
0
 10
137.75
 20
344.929
 11
138.236
 21
344.804
  0
LINE
  8
0
 10
138.236
 20
344.804
 11
138.703
 21
344.619
  0
LINE
  8
0
 10
138.703
 20
344.619
 11
139.143
 21
344.377
  0
LINE
  8
0
 10
139.143
 20
344.377
 11
139.55
 21
344.082
  0
LINE
  8
0
 10
139.55
 20
344.082
 11
139.916
 21
343.738
  0
LINE
  8
0
 10
139.916
 20
343.738
 11
140.236
 21
343.351
  0
LINE
  8
0
 10
140.236
 20
343.351
 11
140.505
 21
342.927
  0
LINE
  8
0
 10
140.505
 20
342.927
 11
140.719
 21
342.472
  0
LINE
  8
0
 10
140.719
 20
342.472
 11
140.874
 21
341.995
  0
LINE
  8
0
 10
140.874
 20
341.995
 11
140.968
 21
341.501
  0
LINE
  8
0
 10
140.968
 20
341.501
 11
141
 21
341
  0
LINE
  8
0
 10
141
 20
341
 11
141
 21
307
  0
LINE
  8
0
 10
141
 20
307
 11
140.968
 21
306.499
  0
LINE
  8
0
 10
140.968
 20
306.499
 11
140.874
 21
306.005
  0
LINE
  8
0
 10
140.874
 20
306.005
 11
140.719
 21
305.528
  0
LINE
  8
0
 10
140.719
 20
305.528
 11
140.505
 21
305.073
  0
LINE
  8
0
 10
140.505
 20
305.073
 11
140.236
 21
304.649
  0
LINE
  8
0
 10
140.236
 20
304.649
 11
139.916
 21
304.262
  0
LINE
  8
0
 10
139.916
 20
304.262
 11
139.55
 21
303.918
  0
LINE
  8
0
 10
139.55
 20
303.918
 11
139.143
 21
303.623
  0
LINE
  8
0
 10
139.143
 20
303.623
 11
138.703
 21
303.381
  0
LINE
  8
0
 10
138.703
 20
303.381
 11
138.236
 21
303.196
  0
LINE
  8
0
 10
138.236
 20
303.196
 11
137.75
 21
303.071
  0
LINE
  8
0
 10
137.75
 20
303.071
 11
137.251
 21
303.008
  0
LINE
  8
0
 10
137.251
 20
303.008
 11
-137.251
 21
303.008
  0
LINE
  8
0
 10
-141
 20
248.941
 11
-140.687
 21
248.647
  0
LINE
  8
0
 10
-140.687
 20
248.647
 11
-140.179
 21
248.278
  0
LINE
  8
0
 10
-140.179
 20
248.278
 11
-139.629
 21
247.976
  0
LINE
  8
0
 10
-139.629
 20
247.976
 11
-139.045
 21
247.745
  0
LINE
  8
0
 10
-139.045
 20
247.745
 11
-138.437
 21
247.589
  0
LINE
  8
0
 10
-138.437
 20
247.589
 11
-137.814
 21
247.51
  0
LINE
  8
0
 10
-137.814
 20
247.51
 11
137.814
 21
247.51
  0
LINE
  8
0
 10
137.814
 20
247.51
 11
138.437
 21
247.589
  0
LINE
  8
0
 10
138.437
 20
247.589
 11
139.045
 21
247.745
  0
LINE
  8
0
 10
139.045
 20
247.745
 11
139.629
 21
247.976
  0
LINE
  8
0
 10
139.629
 20
247.976
 11
140.179
 21
248.278
  0
LINE
  8
0
 10
140.179
 20
248.278
 11
140.687
 21
248.647
  0
LINE
  8
0
 10
140.687
 20
248.647
 11
141.145
 21
249.077
  0
LINE
  8
0
 10
141.145
 20
249.077
 11
141.545
 21
249.561
  0
LINE
  8
0
 10
141.545
 20
249.561
 11
141.882
 21
250.091
  0
LINE
  8
0
 10
141.882
 20
250.091
 11
142.149
 21
250.659
  0
LINE
  8
0
 10
142.149
 20
250.659
 11
142.343
 21
251.257
  0
LINE
  8
0
 10
142.343
 20
251.257
 11
142.461
 21
251.873
  0
LINE
  8
0
 10
142.461
 20
251.873
 11
142.5
 21
252.5
  0
LINE
  8
0
 10
142.5
 20
252.5
 11
142.5
 21
287.5
  0
LINE
  8
0
 10
142.5
 20
287.5
 11
142.461
 21
288.127
  0
LINE
  8
0
 10
142.461
 20
288.127
 11
142.343
 21
288.743
  0
LINE
  8
0
 10
142.343
 20
288.743
 11
142.149
 21
289.341
  0
LINE
  8
0
 10
142.149
 20
289.341
 11
141.882
 21
289.909
  0
LINE
  8
0
 10
141.882
 20
289.909
 11
141.545
 21
290.439
  0
LINE
  8
0
 10
141.545
 20
290.439
 11
141.145
 21
290.923
  0
LINE
  8
0
 10
141.145
 20
290.923
 11
140.687
 21
291.353
  0
LINE
  8
0
 10
140.687
 20
291.353
 11
140.179
 21
291.722
  0
LINE
  8
0
 10
140.179
 20
291.722
 11
139.629
 21
292.024
  0
LINE
  8
0
 10
139.629
 20
292.024
 11
139.045
 21
292.255
  0
LINE
  8
0
 10
139.045
 20
292.255
 11
138.437
 21
292.411
  0
LINE
  8
0
 10
138.437
 20
292.411
 11
137.814
 21
292.49
  0
LINE
  8
0
 10
137.814
 20
292.49
 11
-137.814
 21
292.49
  0
LINE
  8
0
 10
-137.814
 20
292.49
 11
-138.437
 21
292.411
  0
LINE
  8
0
 10
-138.437
 20
292.411
 11
-139.045
 21
292.255
  0
LINE
  8
0
 10
-139.045
 20
292.255
 11
-139.629
 21
292.024
  0
LINE
  8
0
 10
-139.629
 20
292.024
 11
-140.179
 21
291.722
  0
LINE
  8
0
 10
-140.179
 20
291.722
 11
-140.687
 21
291.353
  0
LINE
  8
0
 10
-140.687
 20
291.353
 11
-141
 21
291.059
  0
LINE
  8
0
 10
-141
 20
291.059
 11
-141
 21
292.49
  0
LINE
  8
0
 10
-141
 20
292.49
 11
-144
 21
292.49
  0
LINE
  8
0
 10
-144
 20
292.49
 11
-144
 21
247.51
  0
LINE
  8
0
 10
-144
 20
247.51
 11
-141
 21
247.51
  0
LINE
  8
0
 10
-141
 20
247.51
 11
-141
 21
248.941
  0
LINE
  8
0
 10
-137.243
 20
249.135
 11
-137.726
 21
249.196
  0
LINE
  8
0
 10
-137.726
 20
249.196
 11
-138.197
 21
249.317
  0
LINE
  8
0
 10
-138.197
 20
249.317
 11
-138.649
 21
249.496
  0
LINE
  8
0
 10
-138.649
 20
249.496
 11
-139.075
 21
249.73
  0
LINE
  8
0
 10
-139.075
 20
249.73
 11
-139.469
 21
250.016
  0
LINE
  8
0
 10
-139.469
 20
250.016
 11
-139.823
 21
250.349
  0
LINE
  8
0
 10
-139.823
 20
250.349
 11
-140.133
 21
250.724
  0
LINE
  8
0
 10
-140.133
 20
250.724
 11
-140.394
 21
251.134
  0
LINE
  8
0
 10
-140.394
 20
251.134
 11
-140.601
 21
251.574
  0
LINE
  8
0
 10
-140.601
 20
251.574
 11
-140.751
 21
252.037
  0
LINE
  8
0
 10
-140.751
 20
252.037
 11
-140.842
 21
252.515
  0
LINE
  8
0
 10
-140.842
 20
252.515
 11
-140.873
 21
253
  0
LINE
  8
0
 10
-140.873
 20
253
 11
-140.873
 21
287
  0
LINE
  8
0
 10
-140.873
 20
287
 11
-140.842
 21
287.485
  0
LINE
  8
0
 10
-140.842
 20
287.485
 11
-140.751
 21
287.963
  0
LINE
  8
0
 10
-140.751
 20
287.963
 11
-140.601
 21
288.426
  0
LINE
  8
0
 10
-140.601
 20
288.426
 11
-140.394
 21
288.866
  0
LINE
  8
0
 10
-140.394
 20
288.866
 11
-140.133
 21
289.276
  0
LINE
  8
0
 10
-140.133
 20
289.276
 11
-139.823
 21
289.651
  0
LINE
  8
0
 10
-139.823
 20
289.651
 11
-139.469
 21
289.984
  0
LINE
  8
0
 10
-139.469
 20
289.984
 11
-139.075
 21
290.27
  0
LINE
  8
0
 10
-139.075
 20
290.27
 11
-138.649
 21
290.504
  0
LINE
  8
0
 10
-138.649
 20
290.504
 11
-138.197
 21
290.683
  0
LINE
  8
0
 10
-138.197
 20
290.683
 11
-137.726
 21
290.804
  0
LINE
  8
0
 10
-137.726
 20
290.804
 11
-137.243
 21
290.865
  0
LINE
  8
0
 10
-137.243
 20
290.865
 11
137.243
 21
290.865
  0
LINE
  8
0
 10
137.243
 20
290.865
 11
137.726
 21
290.804
  0
LINE
  8
0
 10
137.726
 20
290.804
 11
138.197
 21
290.683
  0
LINE
  8
0
 10
138.197
 20
290.683
 11
138.649
 21
290.504
  0
LINE
  8
0
 10
138.649
 20
290.504
 11
139.075
 21
290.27
  0
LINE
  8
0
 10
139.075
 20
290.27
 11
139.469
 21
289.984
  0
LINE
  8
0
 10
139.469
 20
289.984
 11
139.823
 21
289.651
  0
LINE
  8
0
 10
139.823
 20
289.651
 11
140.133
 21
289.276
  0
LINE
  8
0
 10
140.133
 20
289.276
 11
140.394
 21
288.866
  0
LINE
  8
0
 10
140.394
 20
288.866
 11
140.601
 21
288.426
  0
LINE
  8
0
 10
140.601
 20
288.426
 11
140.751
 21
287.963
  0
LINE
  8
0
 10
140.751
 20
287.963
 11
140.842
 21
287.485
  0
LINE
  8
0
 10
140.842
 20
287.485
 11
140.873
 21
287
  0
LINE
  8
0
 10
140.873
 20
287
 11
140.873
 21
253
  0
LINE
  8
0
 10
140.873
 20
253
 11
140.842
 21
252.515
  0
LINE
  8
0
 10
140.842
 20
252.515
 11
140.751
 21
252.037
  0
LINE
  8
0
 10
140.751
 20
252.037
 11
140.601
 21
251.574
  0
LINE
  8
0
 10
140.601
 20
251.574
 11
140.394
 21
251.134
  0
LINE
  8
0
 10
140.394
 20
251.134
 11
140.133
 21
250.724
  0
LINE
  8
0
 10
140.133
 20
250.724
 11
139.823
 21
250.349
  0
LINE
  8
0
 10
139.823
 20
250.349
 11
139.469
 21
250.016
  0
LINE
  8
0
 10
139.469
 20
250.016
 11
139.075
 21
249.73
  0
LINE
  8
0
 10
139.075
 20
249.73
 11
138.649
 21
249.496
  0
LINE
  8
0
 10
138.649
 20
249.496
 11
138.197
 21
249.317
  0
LINE
  8
0
 10
138.197
 20
249.317
 11
137.726
 21
249.196
  0
LINE
  8
0
 10
137.726
 20
249.196
 11
137.243
 21
249.135
  0
LINE
  8
0
 10
137.243
 20
249.135
 11
-137.243
 21
249.135
  0
LINE
  8
0
 10
138.437
 20
193.589
 11
139.045
 21
193.745
  0
LINE
  8
0
 10
139.045
 20
193.745
 11
139.629
 21
193.976
  0
LINE
  8
0
 10
139.629
 20
193.976
 11
140.179
 21
194.278
  0
LINE
  8
0
 10
140.179
 20
194.278
 11
140.687
 21
194.647
  0
LINE
  8
0
 10
140.687
 20
194.647
 11
141.145
 21
195.077
  0
LINE
  8
0
 10
141.145
 20
195.077
 11
141.545
 21
195.561
  0
LINE
  8
0
 10
141.545
 20
195.561
 11
141.882
 21
196.091
  0
LINE
  8
0
 10
141.882
 20
196.091
 11
142.149
 21
196.659
  0
LINE
  8
0
 10
142.149
 20
196.659
 11
142.343
 21
197.257
  0
LINE
  8
0
 10
142.343
 20
197.257
 11
142.461
 21
197.873
  0
LINE
  8
0
 10
142.461
 20
197.873
 11
142.5
 21
198.5
  0
LINE
  8
0
 10
142.5
 20
198.5
 11
142.5
 21
233.5
  0
LINE
  8
0
 10
142.5
 20
233.5
 11
142.461
 21
234.127
  0
LINE
  8
0
 10
142.461
 20
234.127
 11
142.343
 21
234.743
  0
LINE
  8
0
 10
142.343
 20
234.743
 11
142.149
 21
235.341
  0
LINE
  8
0
 10
142.149
 20
235.341
 11
141.882
 21
235.909
  0
LINE
  8
0
 10
141.882
 20
235.909
 11
141.545
 21
236.439
  0
LINE
  8
0
 10
141.545
 20
236.439
 11
141.145
 21
236.923
  0
LINE
  8
0
 10
141.145
 20
236.923
 11
140.687
 21
237.353
  0
LINE
  8
0
 10
140.687
 20
237.353
 11
140.179
 21
237.722
  0
LINE
  8
0
 10
140.179
 20
237.722
 11
139.629
 21
238.024
  0
LINE
  8
0
 10
139.629
 20
238.024
 11
139.045
 21
238.255
  0
LINE
  8
0
 10
139.045
 20
238.255
 11
138.437
 21
238.411
  0
LINE
  8
0
 10
138.437
 20
238.411
 11
137.814
 21
238.49
  0
LINE
  8
0
 10
137.814
 20
238.49
 11
-137.814
 21
238.49
  0
LINE
  8
0
 10
-137.814
 20
238.49
 11
-138.437
 21
238.411
  0
LINE
  8
0
 10
-138.437
 20
238.411
 11
-139.045
 21
238.255
  0
LINE
  8
0
 10
-139.045
 20
238.255
 11
-139.629
 21
238.024
  0
LINE
  8
0
 10
-139.629
 20
238.024
 11
-140.179
 21
237.722
  0
LINE
  8
0
 10
-140.179
 20
237.722
 11
-140.687
 21
237.353
  0
LINE
  8
0
 10
-140.687
 20
237.353
 11
-141
 21
237.059
  0
LINE
  8
0
 10
-141
 20
237.059
 11
-141
 21
238.115
  0
LINE
  8
0
 10
-141
 20
238.115
 11
-144
 21
238.115
  0
LINE
  8
0
 10
-144
 20
238.115
 11
-144
 21
193.885
  0
LINE
  8
0
 10
-144
 20
193.885
 11
-141
 21
193.885
  0
LINE
  8
0
 10
-141
 20
193.885
 11
-141
 21
194.941
  0
LINE
  8
0
 10
-141
 20
194.941
 11
-140.687
 21
194.647
  0
LINE
  8
0
 10
-140.687
 20
194.647
 11
-140.179
 21
194.278
  0
LINE
  8
0
 10
-140.179
 20
194.278
 11
-139.629
 21
193.976
  0
LINE
  8
0
 10
-139.629
 20
193.976
 11
-139.045
 21
193.745
  0
LINE
  8
0
 10
-139.045
 20
193.745
 11
-138.437
 21
193.589
  0
LINE
  8
0
 10
-138.437
 20
193.589
 11
-137.814
 21
193.51
  0
LINE
  8
0
 10
-137.814
 20
193.51
 11
137.814
 21
193.51
  0
LINE
  8
0
 10
137.814
 20
193.51
 11
138.437
 21
193.589
  0
LINE
  8
0
 10
134.849
 20
228.605
 11
134.55
 21
228.643
  0
LINE
  8
0
 10
134.55
 20
228.643
 11
134.258
 21
228.717
  0
LINE
  8
0
 10
134.258
 20
228.717
 11
133.978
 21
228.828
  0
LINE
  8
0
 10
133.978
 20
228.828
 11
133.714
 21
228.974
  0
LINE
  8
0
 10
133.714
 20
228.974
 11
133.47
 21
229.151
  0
LINE
  8
0
 10
133.47
 20
229.151
 11
133.25
 21
229.357
  0
LINE
  8
0
 10
133.25
 20
229.357
 11
133.058
 21
229.589
  0
LINE
  8
0
 10
133.058
 20
229.589
 11
132.897
 21
229.844
  0
LINE
  8
0
 10
132.897
 20
229.844
 11
132.769
 21
230.117
  0
LINE
  8
0
 10
132.769
 20
230.117
 11
132.675
 21
230.403
  0
LINE
  8
0
 10
132.675
 20
230.403
 11
132.619
 21
230.699
  0
LINE
  8
0
 10
132.619
 20
230.699
 11
132.6
 21
231
  0
LINE
  8
0
 10
132.6
 20
231
 11
132.619
 21
231.301
  0
LINE
  8
0
 10
132.619
 20
231.301
 11
132.675
 21
231.597
  0
LINE
  8
0
 10
132.675
 20
231.597
 11
132.769
 21
231.883
  0
LINE
  8
0
 10
132.769
 20
231.883
 11
132.897
 21
232.156
  0
LINE
  8
0
 10
132.897
 20
232.156
 11
133.058
 21
232.411
  0
LINE
  8
0
 10
133.058
 20
232.411
 11
133.25
 21
232.643
  0
LINE
  8
0
 10
133.25
 20
232.643
 11
133.47
 21
232.849
  0
LINE
  8
0
 10
133.47
 20
232.849
 11
133.714
 21
233.026
  0
LINE
  8
0
 10
133.714
 20
233.026
 11
133.978
 21
233.172
  0
LINE
  8
0
 10
133.978
 20
233.172
 11
134.258
 21
233.283
  0
LINE
  8
0
 10
134.258
 20
233.283
 11
134.55
 21
233.357
  0
LINE
  8
0
 10
134.55
 20
233.357
 11
134.849
 21
233.395
  0
LINE
  8
0
 10
134.849
 20
233.395
 11
135.151
 21
233.395
  0
LINE
  8
0
 10
135.151
 20
233.395
 11
135.45
 21
233.357
  0
LINE
  8
0
 10
135.45
 20
233.357
 11
135.742
 21
233.283
  0
LINE
  8
0
 10
135.742
 20
233.283
 11
136.022
 21
233.172
  0
LINE
  8
0
 10
136.022
 20
233.172
 11
136.286
 21
233.026
  0
LINE
  8
0
 10
136.286
 20
233.026
 11
136.53
 21
232.849
  0
LINE
  8
0
 10
136.53
 20
232.849
 11
136.75
 21
232.643
  0
LINE
  8
0
 10
136.75
 20
232.643
 11
136.942
 21
232.411
  0
LINE
  8
0
 10
136.942
 20
232.411
 11
137.103
 21
232.156
  0
LINE
  8
0
 10
137.103
 20
232.156
 11
137.231
 21
231.883
  0
LINE
  8
0
 10
137.231
 20
231.883
 11
137.325
 21
231.597
  0
LINE
  8
0
 10
137.325
 20
231.597
 11
137.381
 21
231.301
  0
LINE
  8
0
 10
137.381
 20
231.301
 11
137.4
 21
231
  0
LINE
  8
0
 10
137.4
 20
231
 11
137.381
 21
230.699
  0
LINE
  8
0
 10
137.381
 20
230.699
 11
137.325
 21
230.403
  0
LINE
  8
0
 10
137.325
 20
230.403
 11
137.231
 21
230.117
  0
LINE
  8
0
 10
137.231
 20
230.117
 11
137.103
 21
229.844
  0
LINE
  8
0
 10
137.103
 20
229.844
 11
136.942
 21
229.589
  0
LINE
  8
0
 10
136.942
 20
229.589
 11
136.75
 21
229.357
  0
LINE
  8
0
 10
136.75
 20
229.357
 11
136.53
 21
229.151
  0
LINE
  8
0
 10
136.53
 20
229.151
 11
136.286
 21
228.974
  0
LINE
  8
0
 10
136.286
 20
228.974
 11
136.022
 21
228.828
  0
LINE
  8
0
 10
136.022
 20
228.828
 11
135.742
 21
228.717
  0
LINE
  8
0
 10
135.742
 20
228.717
 11
135.45
 21
228.643
  0
LINE
  8
0
 10
135.45
 20
228.643
 11
135.151
 21
228.605
  0
LINE
  8
0
 10
135.151
 20
228.605
 11
134.849
 21
228.605
  0
LINE
  8
0
 10
-135.151
 20
228.605
 11
-135.45
 21
228.643
  0
LINE
  8
0
 10
-135.45
 20
228.643
 11
-135.742
 21
228.717
  0
LINE
  8
0
 10
-135.742
 20
228.717
 11
-136.022
 21
228.828
  0
LINE
  8
0
 10
-136.022
 20
228.828
 11
-136.286
 21
228.974
  0
LINE
  8
0
 10
-136.286
 20
228.974
 11
-136.53
 21
229.151
  0
LINE
  8
0
 10
-136.53
 20
229.151
 11
-136.75
 21
229.357
  0
LINE
  8
0
 10
-136.75
 20
229.357
 11
-136.942
 21
229.589
  0
LINE
  8
0
 10
-136.942
 20
229.589
 11
-137.103
 21
229.844
  0
LINE
  8
0
 10
-137.103
 20
229.844
 11
-137.231
 21
230.117
  0
LINE
  8
0
 10
-137.231
 20
230.117
 11
-137.325
 21
230.403
  0
LINE
  8
0
 10
-137.325
 20
230.403
 11
-137.381
 21
230.699
  0
LINE
  8
0
 10
-137.381
 20
230.699
 11
-137.4
 21
231
  0
LINE
  8
0
 10
-137.4
 20
231
 11
-137.381
 21
231.301
  0
LINE
  8
0
 10
-137.381
 20
231.301
 11
-137.325
 21
231.597
  0
LINE
  8
0
 10
-137.325
 20
231.597
 11
-137.231
 21
231.883
  0
LINE
  8
0
 10
-137.231
 20
231.883
 11
-137.103
 21
232.156
  0
LINE
  8
0
 10
-137.103
 20
232.156
 11
-136.942
 21
232.411
  0
LINE
  8
0
 10
-136.942
 20
232.411
 11
-136.75
 21
232.643
  0
LINE
  8
0
 10
-136.75
 20
232.643
 11
-136.53
 21
232.849
  0
LINE
  8
0
 10
-136.53
 20
232.849
 11
-136.286
 21
233.026
  0
LINE
  8
0
 10
-136.286
 20
233.026
 11
-136.022
 21
233.172
  0
LINE
  8
0
 10
-136.022
 20
233.172
 11
-135.742
 21
233.283
  0
LINE
  8
0
 10
-135.742
 20
233.283
 11
-135.45
 21
233.357
  0
LINE
  8
0
 10
-135.45
 20
233.357
 11
-135.151
 21
233.395
  0
LINE
  8
0
 10
-135.151
 20
233.395
 11
-134.849
 21
233.395
  0
LINE
  8
0
 10
-134.849
 20
233.395
 11
-134.55
 21
233.357
  0
LINE
  8
0
 10
-134.55
 20
233.357
 11
-134.258
 21
233.283
  0
LINE
  8
0
 10
-134.258
 20
233.283
 11
-133.978
 21
233.172
  0
LINE
  8
0
 10
-133.978
 20
233.172
 11
-133.714
 21
233.026
  0
LINE
  8
0
 10
-133.714
 20
233.026
 11
-133.47
 21
232.849
  0
LINE
  8
0
 10
-133.47
 20
232.849
 11
-133.25
 21
232.643
  0
LINE
  8
0
 10
-133.25
 20
232.643
 11
-133.058
 21
232.411
  0
LINE
  8
0
 10
-133.058
 20
232.411
 11
-132.897
 21
232.156
  0
LINE
  8
0
 10
-132.897
 20
232.156
 11
-132.769
 21
231.883
  0
LINE
  8
0
 10
-132.769
 20
231.883
 11
-132.675
 21
231.597
  0
LINE
  8
0
 10
-132.675
 20
231.597
 11
-132.619
 21
231.301
  0
LINE
  8
0
 10
-132.619
 20
231.301
 11
-132.6
 21
231
  0
LINE
  8
0
 10
-132.6
 20
231
 11
-132.619
 21
230.699
  0
LINE
  8
0
 10
-132.619
 20
230.699
 11
-132.675
 21
230.403
  0
LINE
  8
0
 10
-132.675
 20
230.403
 11
-132.769
 21
230.117
  0
LINE
  8
0
 10
-132.769
 20
230.117
 11
-132.897
 21
229.844
  0
LINE
  8
0
 10
-132.897
 20
229.844
 11
-133.058
 21
229.589
  0
LINE
  8
0
 10
-133.058
 20
229.589
 11
-133.25
 21
229.357
  0
LINE
  8
0
 10
-133.25
 20
229.357
 11
-133.47
 21
229.151
  0
LINE
  8
0
 10
-133.47
 20
229.151
 11
-133.714
 21
228.974
  0
LINE
  8
0
 10
-133.714
 20
228.974
 11
-133.978
 21
228.828
  0
LINE
  8
0
 10
-133.978
 20
228.828
 11
-134.258
 21
228.717
  0
LINE
  8
0
 10
-134.258
 20
228.717
 11
-134.55
 21
228.643
  0
LINE
  8
0
 10
-134.55
 20
228.643
 11
-134.849
 21
228.605
  0
LINE
  8
0
 10
-134.849
 20
228.605
 11
-135.151
 21
228.605
  0
LINE
  8
0
 10
-135.151
 20
198.605
 11
-135.45
 21
198.643
  0
LINE
  8
0
 10
-135.45
 20
198.643
 11
-135.742
 21
198.717
  0
LINE
  8
0
 10
-135.742
 20
198.717
 11
-136.022
 21
198.828
  0
LINE
  8
0
 10
-136.022
 20
198.828
 11
-136.286
 21
198.974
  0
LINE
  8
0
 10
-136.286
 20
198.974
 11
-136.53
 21
199.151
  0
LINE
  8
0
 10
-136.53
 20
199.151
 11
-136.75
 21
199.357
  0
LINE
  8
0
 10
-136.75
 20
199.357
 11
-136.942
 21
199.589
  0
LINE
  8
0
 10
-136.942
 20
199.589
 11
-137.103
 21
199.844
  0
LINE
  8
0
 10
-137.103
 20
199.844
 11
-137.231
 21
200.117
  0
LINE
  8
0
 10
-137.231
 20
200.117
 11
-137.325
 21
200.403
  0
LINE
  8
0
 10
-137.325
 20
200.403
 11
-137.381
 21
200.699
  0
LINE
  8
0
 10
-137.381
 20
200.699
 11
-137.4
 21
201
  0
LINE
  8
0
 10
-137.4
 20
201
 11
-137.381
 21
201.301
  0
LINE
  8
0
 10
-137.381
 20
201.301
 11
-137.325
 21
201.597
  0
LINE
  8
0
 10
-137.325
 20
201.597
 11
-137.231
 21
201.883
  0
LINE
  8
0
 10
-137.231
 20
201.883
 11
-137.103
 21
202.156
  0
LINE
  8
0
 10
-137.103
 20
202.156
 11
-136.942
 21
202.411
  0
LINE
  8
0
 10
-136.942
 20
202.411
 11
-136.75
 21
202.643
  0
LINE
  8
0
 10
-136.75
 20
202.643
 11
-136.53
 21
202.849
  0
LINE
  8
0
 10
-136.53
 20
202.849
 11
-136.286
 21
203.026
  0
LINE
  8
0
 10
-136.286
 20
203.026
 11
-136.022
 21
203.172
  0
LINE
  8
0
 10
-136.022
 20
203.172
 11
-135.742
 21
203.283
  0
LINE
  8
0
 10
-135.742
 20
203.283
 11
-135.45
 21
203.357
  0
LINE
  8
0
 10
-135.45
 20
203.357
 11
-135.151
 21
203.395
  0
LINE
  8
0
 10
-135.151
 20
203.395
 11
-134.849
 21
203.395
  0
LINE
  8
0
 10
-134.849
 20
203.395
 11
-134.55
 21
203.357
  0
LINE
  8
0
 10
-134.55
 20
203.357
 11
-134.258
 21
203.283
  0
LINE
  8
0
 10
-134.258
 20
203.283
 11
-133.978
 21
203.172
  0
LINE
  8
0
 10
-133.978
 20
203.172
 11
-133.714
 21
203.026
  0
LINE
  8
0
 10
-133.714
 20
203.026
 11
-133.47
 21
202.849
  0
LINE
  8
0
 10
-133.47
 20
202.849
 11
-133.25
 21
202.643
  0
LINE
  8
0
 10
-133.25
 20
202.643
 11
-133.058
 21
202.411
  0
LINE
  8
0
 10
-133.058
 20
202.411
 11
-132.897
 21
202.156
  0
LINE
  8
0
 10
-132.897
 20
202.156
 11
-132.769
 21
201.883
  0
LINE
  8
0
 10
-132.769
 20
201.883
 11
-132.675
 21
201.597
  0
LINE
  8
0
 10
-132.675
 20
201.597
 11
-132.619
 21
201.301
  0
LINE
  8
0
 10
-132.619
 20
201.301
 11
-132.6
 21
201
  0
LINE
  8
0
 10
-132.6
 20
201
 11
-132.619
 21
200.699
  0
LINE
  8
0
 10
-132.619
 20
200.699
 11
-132.675
 21
200.403
  0
LINE
  8
0
 10
-132.675
 20
200.403
 11
-132.769
 21
200.117
  0
LINE
  8
0
 10
-132.769
 20
200.117
 11
-132.897
 21
199.844
  0
LINE
  8
0
 10
-132.897
 20
199.844
 11
-133.058
 21
199.589
  0
LINE
  8
0
 10
-133.058
 20
199.589
 11
-133.25
 21
199.357
  0
LINE
  8
0
 10
-133.25
 20
199.357
 11
-133.47
 21
199.151
  0
LINE
  8
0
 10
-133.47
 20
199.151
 11
-133.714
 21
198.974
  0
LINE
  8
0
 10
-133.714
 20
198.974
 11
-133.978
 21
198.828
  0
LINE
  8
0
 10
-133.978
 20
198.828
 11
-134.258
 21
198.717
  0
LINE
  8
0
 10
-134.258
 20
198.717
 11
-134.55
 21
198.643
  0
LINE
  8
0
 10
-134.55
 20
198.643
 11
-134.849
 21
198.605
  0
LINE
  8
0
 10
-134.849
 20
198.605
 11
-135.151
 21
198.605
  0
LINE
  8
0
 10
134.849
 20
198.605
 11
134.55
 21
198.643
  0
LINE
  8
0
 10
134.55
 20
198.643
 11
134.258
 21
198.717
  0
LINE
  8
0
 10
134.258
 20
198.717
 11
133.978
 21
198.828
  0
LINE
  8
0
 10
133.978
 20
198.828
 11
133.714
 21
198.974
  0
LINE
  8
0
 10
133.714
 20
198.974
 11
133.47
 21
199.151
  0
LINE
  8
0
 10
133.47
 20
199.151
 11
133.25
 21
199.357
  0
LINE
  8
0
 10
133.25
 20
199.357
 11
133.058
 21
199.589
  0
LINE
  8
0
 10
133.058
 20
199.589
 11
132.897
 21
199.844
  0
LINE
  8
0
 10
132.897
 20
199.844
 11
132.769
 21
200.117
  0
LINE
  8
0
 10
132.769
 20
200.117
 11
132.675
 21
200.403
  0
LINE
  8
0
 10
132.675
 20
200.403
 11
132.619
 21
200.699
  0
LINE
  8
0
 10
132.619
 20
200.699
 11
132.6
 21
201
  0
LINE
  8
0
 10
132.6
 20
201
 11
132.619
 21
201.301
  0
LINE
  8
0
 10
132.619
 20
201.301
 11
132.675
 21
201.597
  0
LINE
  8
0
 10
132.675
 20
201.597
 11
132.769
 21
201.883
  0
LINE
  8
0
 10
132.769
 20
201.883
 11
132.897
 21
202.156
  0
LINE
  8
0
 10
132.897
 20
202.156
 11
133.058
 21
202.411
  0
LINE
  8
0
 10
133.058
 20
202.411
 11
133.25
 21
202.643
  0
LINE
  8
0
 10
133.25
 20
202.643
 11
133.47
 21
202.849
  0
LINE
  8
0
 10
133.47
 20
202.849
 11
133.714
 21
203.026
  0
LINE
  8
0
 10
133.714
 20
203.026
 11
133.978
 21
203.172
  0
LINE
  8
0
 10
133.978
 20
203.172
 11
134.258
 21
203.283
  0
LINE
  8
0
 10
134.258
 20
203.283
 11
134.55
 21
203.357
  0
LINE
  8
0
 10
134.55
 20
203.357
 11
134.849
 21
203.395
  0
LINE
  8
0
 10
134.849
 20
203.395
 11
135.151
 21
203.395
  0
LINE
  8
0
 10
135.151
 20
203.395
 11
135.45
 21
203.357
  0
LINE
  8
0
 10
135.45
 20
203.357
 11
135.742
 21
203.283
  0
LINE
  8
0
 10
135.742
 20
203.283
 11
136.022
 21
203.172
  0
LINE
  8
0
 10
136.022
 20
203.172
 11
136.286
 21
203.026
  0
LINE
  8
0
 10
136.286
 20
203.026
 11
136.53
 21
202.849
  0
LINE
  8
0
 10
136.53
 20
202.849
 11
136.75
 21
202.643
  0
LINE
  8
0
 10
136.75
 20
202.643
 11
136.942
 21
202.411
  0
LINE
  8
0
 10
136.942
 20
202.411
 11
137.103
 21
202.156
  0
LINE
  8
0
 10
137.103
 20
202.156
 11
137.231
 21
201.883
  0
LINE
  8
0
 10
137.231
 20
201.883
 11
137.325
 21
201.597
  0
LINE
  8
0
 10
137.325
 20
201.597
 11
137.381
 21
201.301
  0
LINE
  8
0
 10
137.381
 20
201.301
 11
137.4
 21
201
  0
LINE
  8
0
 10
137.4
 20
201
 11
137.381
 21
200.699
  0
LINE
  8
0
 10
137.381
 20
200.699
 11
137.325
 21
200.403
  0
LINE
  8
0
 10
137.325
 20
200.403
 11
137.231
 21
200.117
  0
LINE
  8
0
 10
137.231
 20
200.117
 11
137.103
 21
199.844
  0
LINE
  8
0
 10
137.103
 20
199.844
 11
136.942
 21
199.589
  0
LINE
  8
0
 10
136.942
 20
199.589
 11
136.75
 21
199.357
  0
LINE
  8
0
 10
136.75
 20
199.357
 11
136.53
 21
199.151
  0
LINE
  8
0
 10
136.53
 20
199.151
 11
136.286
 21
198.974
  0
LINE
  8
0
 10
136.286
 20
198.974
 11
136.022
 21
198.828
  0
LINE
  8
0
 10
136.022
 20
198.828
 11
135.742
 21
198.717
  0
LINE
  8
0
 10
135.742
 20
198.717
 11
135.45
 21
198.643
  0
LINE
  8
0
 10
135.45
 20
198.643
 11
135.151
 21
198.605
  0
LINE
  8
0
 10
135.151
 20
198.605
 11
134.849
 21
198.605
  0
LINE
  8
0
 10
138.437
 20
139.589
 11
139.045
 21
139.745
  0
LINE
  8
0
 10
139.045
 20
139.745
 11
139.629
 21
139.976
  0
LINE
  8
0
 10
139.629
 20
139.976
 11
140.179
 21
140.278
  0
LINE
  8
0
 10
140.179
 20
140.278
 11
140.687
 21
140.647
  0
LINE
  8
0
 10
140.687
 20
140.647
 11
141.145
 21
141.077
  0
LINE
  8
0
 10
141.145
 20
141.077
 11
141.545
 21
141.561
  0
LINE
  8
0
 10
141.545
 20
141.561
 11
141.882
 21
142.091
  0
LINE
  8
0
 10
141.882
 20
142.091
 11
142.149
 21
142.659
  0
LINE
  8
0
 10
142.149
 20
142.659
 11
142.343
 21
143.257
  0
LINE
  8
0
 10
142.343
 20
143.257
 11
142.461
 21
143.873
  0
LINE
  8
0
 10
142.461
 20
143.873
 11
142.5
 21
144.5
  0
LINE
  8
0
 10
142.5
 20
144.5
 11
142.5
 21
179.5
  0
LINE
  8
0
 10
142.5
 20
179.5
 11
142.461
 21
180.127
  0
LINE
  8
0
 10
142.461
 20
180.127
 11
142.343
 21
180.743
  0
LINE
  8
0
 10
142.343
 20
180.743
 11
142.149
 21
181.341
  0
LINE
  8
0
 10
142.149
 20
181.341
 11
141.882
 21
181.909
  0
LINE
  8
0
 10
141.882
 20
181.909
 11
141.545
 21
182.439
  0
LINE
  8
0
 10
141.545
 20
182.439
 11
141.145
 21
182.923
  0
LINE
  8
0
 10
141.145
 20
182.923
 11
140.687
 21
183.353
  0
LINE
  8
0
 10
140.687
 20
183.353
 11
140.179
 21
183.722
  0
LINE
  8
0
 10
140.179
 20
183.722
 11
139.629
 21
184.024
  0
LINE
  8
0
 10
139.629
 20
184.024
 11
139.045
 21
184.255
  0
LINE
  8
0
 10
139.045
 20
184.255
 11
138.437
 21
184.411
  0
LINE
  8
0
 10
138.437
 20
184.411
 11
137.814
 21
184.49
  0
LINE
  8
0
 10
137.814
 20
184.49
 11
-137.814
 21
184.49
  0
LINE
  8
0
 10
-137.814
 20
184.49
 11
-138.437
 21
184.411
  0
LINE
  8
0
 10
-138.437
 20
184.411
 11
-139.045
 21
184.255
  0
LINE
  8
0
 10
-139.045
 20
184.255
 11
-139.629
 21
184.024
  0
LINE
  8
0
 10
-139.629
 20
184.024
 11
-140.179
 21
183.722
  0
LINE
  8
0
 10
-140.179
 20
183.722
 11
-140.687
 21
183.353
  0
LINE
  8
0
 10
-140.687
 20
183.353
 11
-141.145
 21
182.923
  0
LINE
  8
0
 10
-141.145
 20
182.923
 11
-141.545
 21
182.439
  0
LINE
  8
0
 10
-141.545
 20
182.439
 11
-141.882
 21
181.909
  0
LINE
  8
0
 10
-141.882
 20
181.909
 11
-142.149
 21
181.341
  0
LINE
  8
0
 10
-142.149
 20
181.341
 11
-142.343
 21
180.743
  0
LINE
  8
0
 10
-142.343
 20
180.743
 11
-142.4
 21
180.444
  0
LINE
  8
0
 10
-142.4
 20
180.444
 11
-144
 21
180.444
  0
LINE
  8
0
 10
-144
 20
180.444
 11
-144
 21
143.556
  0
LINE
  8
0
 10
-144
 20
143.556
 11
-142.4
 21
143.556
  0
LINE
  8
0
 10
-142.4
 20
143.556
 11
-142.343
 21
143.257
  0
LINE
  8
0
 10
-142.343
 20
143.257
 11
-142.149
 21
142.659
  0
LINE
  8
0
 10
-142.149
 20
142.659
 11
-141.882
 21
142.091
  0
LINE
  8
0
 10
-141.882
 20
142.091
 11
-141.545
 21
141.561
  0
LINE
  8
0
 10
-141.545
 20
141.561
 11
-141.145
 21
141.077
  0
LINE
  8
0
 10
-141.145
 20
141.077
 11
-140.687
 21
140.647
  0
LINE
  8
0
 10
-140.687
 20
140.647
 11
-140.179
 21
140.278
  0
LINE
  8
0
 10
-140.179
 20
140.278
 11
-139.629
 21
139.976
  0
LINE
  8
0
 10
-139.629
 20
139.976
 11
-139.045
 21
139.745
  0
LINE
  8
0
 10
-139.045
 20
139.745
 11
-138.437
 21
139.589
  0
LINE
  8
0
 10
-138.437
 20
139.589
 11
-137.814
 21
139.51
  0
LINE
  8
0
 10
-137.814
 20
139.51
 11
137.814
 21
139.51
  0
LINE
  8
0
 10
137.814
 20
139.51
 11
138.437
 21
139.589
  0
LINE
  8
0
 10
-135.113
 20
175.204
 11
-135.337
 21
175.232
  0
LINE
  8
0
 10
-135.337
 20
175.232
 11
-135.556
 21
175.288
  0
LINE
  8
0
 10
-135.556
 20
175.288
 11
-135.766
 21
175.371
  0
LINE
  8
0
 10
-135.766
 20
175.371
 11
-135.964
 21
175.48
  0
LINE
  8
0
 10
-135.964
 20
175.48
 11
-136.147
 21
175.613
  0
LINE
  8
0
 10
-136.147
 20
175.613
 11
-136.312
 21
175.768
  0
LINE
  8
0
 10
-136.312
 20
175.768
 11
-136.456
 21
175.942
  0
LINE
  8
0
 10
-136.456
 20
175.942
 11
-136.577
 21
176.133
  0
LINE
  8
0
 10
-136.577
 20
176.133
 11
-136.674
 21
176.337
  0
LINE
  8
0
 10
-136.674
 20
176.337
 11
-136.743
 21
176.552
  0
LINE
  8
0
 10
-136.743
 20
176.552
 11
-136.786
 21
176.774
  0
LINE
  8
0
 10
-136.786
 20
176.774
 11
-136.8
 21
177
  0
LINE
  8
0
 10
-136.8
 20
177
 11
-136.786
 21
177.226
  0
LINE
  8
0
 10
-136.786
 20
177.226
 11
-136.743
 21
177.448
  0
LINE
  8
0
 10
-136.743
 20
177.448
 11
-136.674
 21
177.663
  0
LINE
  8
0
 10
-136.674
 20
177.663
 11
-136.577
 21
177.867
  0
LINE
  8
0
 10
-136.577
 20
177.867
 11
-136.456
 21
178.058
  0
LINE
  8
0
 10
-136.456
 20
178.058
 11
-136.312
 21
178.232
  0
LINE
  8
0
 10
-136.312
 20
178.232
 11
-136.147
 21
178.387
  0
LINE
  8
0
 10
-136.147
 20
178.387
 11
-135.964
 21
178.52
  0
LINE
  8
0
 10
-135.964
 20
178.52
 11
-135.766
 21
178.629
  0
LINE
  8
0
 10
-135.766
 20
178.629
 11
-135.556
 21
178.712
  0
LINE
  8
0
 10
-135.556
 20
178.712
 11
-135.337
 21
178.768
  0
LINE
  8
0
 10
-135.337
 20
178.768
 11
-135.113
 21
178.796
  0
LINE
  8
0
 10
-135.113
 20
178.796
 11
-134.887
 21
178.796
  0
LINE
  8
0
 10
-134.887
 20
178.796
 11
-134.663
 21
178.768
  0
LINE
  8
0
 10
-134.663
 20
178.768
 11
-134.444
 21
178.712
  0
LINE
  8
0
 10
-134.444
 20
178.712
 11
-134.234
 21
178.629
  0
LINE
  8
0
 10
-134.234
 20
178.629
 11
-134.036
 21
178.52
  0
LINE
  8
0
 10
-134.036
 20
178.52
 11
-133.853
 21
178.387
  0
LINE
  8
0
 10
-133.853
 20
178.387
 11
-133.688
 21
178.232
  0
LINE
  8
0
 10
-133.688
 20
178.232
 11
-133.544
 21
178.058
  0
LINE
  8
0
 10
-133.544
 20
178.058
 11
-133.423
 21
177.867
  0
LINE
  8
0
 10
-133.423
 20
177.867
 11
-133.326
 21
177.663
  0
LINE
  8
0
 10
-133.326
 20
177.663
 11
-133.257
 21
177.448
  0
LINE
  8
0
 10
-133.257
 20
177.448
 11
-133.214
 21
177.226
  0
LINE
  8
0
 10
-133.214
 20
177.226
 11
-133.2
 21
177
  0
LINE
  8
0
 10
-133.2
 20
177
 11
-133.214
 21
176.774
  0
LINE
  8
0
 10
-133.214
 20
176.774
 11
-133.257
 21
176.552
  0
LINE
  8
0
 10
-133.257
 20
176.552
 11
-133.326
 21
176.337
  0
LINE
  8
0
 10
-133.326
 20
176.337
 11
-133.423
 21
176.133
  0
LINE
  8
0
 10
-133.423
 20
176.133
 11
-133.544
 21
175.942
  0
LINE
  8
0
 10
-133.544
 20
175.942
 11
-133.688
 21
175.768
  0
LINE
  8
0
 10
-133.688
 20
175.768
 11
-133.853
 21
175.613
  0
LINE
  8
0
 10
-133.853
 20
175.613
 11
-134.036
 21
175.48
  0
LINE
  8
0
 10
-134.036
 20
175.48
 11
-134.234
 21
175.371
  0
LINE
  8
0
 10
-134.234
 20
175.371
 11
-134.444
 21
175.288
  0
LINE
  8
0
 10
-134.444
 20
175.288
 11
-134.663
 21
175.232
  0
LINE
  8
0
 10
-134.663
 20
175.232
 11
-134.887
 21
175.204
  0
LINE
  8
0
 10
-134.887
 20
175.204
 11
-135.113
 21
175.204
  0
LINE
  8
0
 10
134.887
 20
175.204
 11
134.663
 21
175.232
  0
LINE
  8
0
 10
134.663
 20
175.232
 11
134.444
 21
175.288
  0
LINE
  8
0
 10
134.444
 20
175.288
 11
134.234
 21
175.371
  0
LINE
  8
0
 10
134.234
 20
175.371
 11
134.036
 21
175.48
  0
LINE
  8
0
 10
134.036
 20
175.48
 11
133.853
 21
175.613
  0
LINE
  8
0
 10
133.853
 20
175.613
 11
133.688
 21
175.768
  0
LINE
  8
0
 10
133.688
 20
175.768
 11
133.544
 21
175.942
  0
LINE
  8
0
 10
133.544
 20
175.942
 11
133.423
 21
176.133
  0
LINE
  8
0
 10
133.423
 20
176.133
 11
133.326
 21
176.337
  0
LINE
  8
0
 10
133.326
 20
176.337
 11
133.257
 21
176.552
  0
LINE
  8
0
 10
133.257
 20
176.552
 11
133.214
 21
176.774
  0
LINE
  8
0
 10
133.214
 20
176.774
 11
133.2
 21
177
  0
LINE
  8
0
 10
133.2
 20
177
 11
133.214
 21
177.226
  0
LINE
  8
0
 10
133.214
 20
177.226
 11
133.257
 21
177.448
  0
LINE
  8
0
 10
133.257
 20
177.448
 11
133.326
 21
177.663
  0
LINE
  8
0
 10
133.326
 20
177.663
 11
133.423
 21
177.867
  0
LINE
  8
0
 10
133.423
 20
177.867
 11
133.544
 21
178.058
  0
LINE
  8
0
 10
133.544
 20
178.058
 11
133.688
 21
178.232
  0
LINE
  8
0
 10
133.688
 20
178.232
 11
133.853
 21
178.387
  0
LINE
  8
0
 10
133.853
 20
178.387
 11
134.036
 21
178.52
  0
LINE
  8
0
 10
134.036
 20
178.52
 11
134.234
 21
178.629
  0
LINE
  8
0
 10
134.234
 20
178.629
 11
134.444
 21
178.712
  0
LINE
  8
0
 10
134.444
 20
178.712
 11
134.663
 21
178.768
  0
LINE
  8
0
 10
134.663
 20
178.768
 11
134.887
 21
178.796
  0
LINE
  8
0
 10
134.887
 20
178.796
 11
135.113
 21
178.796
  0
LINE
  8
0
 10
135.113
 20
178.796
 11
135.337
 21
178.768
  0
LINE
  8
0
 10
135.337
 20
178.768
 11
135.556
 21
178.712
  0
LINE
  8
0
 10
135.556
 20
178.712
 11
135.766
 21
178.629
  0
LINE
  8
0
 10
135.766
 20
178.629
 11
135.964
 21
178.52
  0
LINE
  8
0
 10
135.964
 20
178.52
 11
136.147
 21
178.387
  0
LINE
  8
0
 10
136.147
 20
178.387
 11
136.312
 21
178.232
  0
LINE
  8
0
 10
136.312
 20
178.232
 11
136.456
 21
178.058
  0
LINE
  8
0
 10
136.456
 20
178.058
 11
136.577
 21
177.867
  0
LINE
  8
0
 10
136.577
 20
177.867
 11
136.674
 21
177.663
  0
LINE
  8
0
 10
136.674
 20
177.663
 11
136.743
 21
177.448
  0
LINE
  8
0
 10
136.743
 20
177.448
 11
136.786
 21
177.226
  0
LINE
  8
0
 10
136.786
 20
177.226
 11
136.8
 21
177
  0
LINE
  8
0
 10
136.8
 20
177
 11
136.786
 21
176.774
  0
LINE
  8
0
 10
136.786
 20
176.774
 11
136.743
 21
176.552
  0
LINE
  8
0
 10
136.743
 20
176.552
 11
136.674
 21
176.337
  0
LINE
  8
0
 10
136.674
 20
176.337
 11
136.577
 21
176.133
  0
LINE
  8
0
 10
136.577
 20
176.133
 11
136.456
 21
175.942
  0
LINE
  8
0
 10
136.456
 20
175.942
 11
136.312
 21
175.768
  0
LINE
  8
0
 10
136.312
 20
175.768
 11
136.147
 21
175.613
  0
LINE
  8
0
 10
136.147
 20
175.613
 11
135.964
 21
175.48
  0
LINE
  8
0
 10
135.964
 20
175.48
 11
135.766
 21
175.371
  0
LINE
  8
0
 10
135.766
 20
175.371
 11
135.556
 21
175.288
  0
LINE
  8
0
 10
135.556
 20
175.288
 11
135.337
 21
175.232
  0
LINE
  8
0
 10
135.337
 20
175.232
 11
135.113
 21
175.204
  0
LINE
  8
0
 10
135.113
 20
175.204
 11
134.887
 21
175.204
  0
LINE
  8
0
 10
134.887
 20
145.204
 11
134.663
 21
145.232
  0
LINE
  8
0
 10
134.663
 20
145.232
 11
134.444
 21
145.288
  0
LINE
  8
0
 10
134.444
 20
145.288
 11
134.234
 21
145.371
  0
LINE
  8
0
 10
134.234
 20
145.371
 11
134.036
 21
145.48
  0
LINE
  8
0
 10
134.036
 20
145.48
 11
133.853
 21
145.613
  0
LINE
  8
0
 10
133.853
 20
145.613
 11
133.688
 21
145.768
  0
LINE
  8
0
 10
133.688
 20
145.768
 11
133.544
 21
145.942
  0
LINE
  8
0
 10
133.544
 20
145.942
 11
133.423
 21
146.133
  0
LINE
  8
0
 10
133.423
 20
146.133
 11
133.326
 21
146.337
  0
LINE
  8
0
 10
133.326
 20
146.337
 11
133.257
 21
146.552
  0
LINE
  8
0
 10
133.257
 20
146.552
 11
133.214
 21
146.774
  0
LINE
  8
0
 10
133.214
 20
146.774
 11
133.2
 21
147
  0
LINE
  8
0
 10
133.2
 20
147
 11
133.214
 21
147.226
  0
LINE
  8
0
 10
133.214
 20
147.226
 11
133.257
 21
147.448
  0
LINE
  8
0
 10
133.257
 20
147.448
 11
133.326
 21
147.663
  0
LINE
  8
0
 10
133.326
 20
147.663
 11
133.423
 21
147.867
  0
LINE
  8
0
 10
133.423
 20
147.867
 11
133.544
 21
148.058
  0
LINE
  8
0
 10
133.544
 20
148.058
 11
133.688
 21
148.232
  0
LINE
  8
0
 10
133.688
 20
148.232
 11
133.853
 21
148.387
  0
LINE
  8
0
 10
133.853
 20
148.387
 11
134.036
 21
148.52
  0
LINE
  8
0
 10
134.036
 20
148.52
 11
134.234
 21
148.629
  0
LINE
  8
0
 10
134.234
 20
148.629
 11
134.444
 21
148.712
  0
LINE
  8
0
 10
134.444
 20
148.712
 11
134.663
 21
148.768
  0
LINE
  8
0
 10
134.663
 20
148.768
 11
134.887
 21
148.796
  0
LINE
  8
0
 10
134.887
 20
148.796
 11
135.113
 21
148.796
  0
LINE
  8
0
 10
135.113
 20
148.796
 11
135.337
 21
148.768
  0
LINE
  8
0
 10
135.337
 20
148.768
 11
135.556
 21
148.712
  0
LINE
  8
0
 10
135.556
 20
148.712
 11
135.766
 21
148.629
  0
LINE
  8
0
 10
135.766
 20
148.629
 11
135.964
 21
148.52
  0
LINE
  8
0
 10
135.964
 20
148.52
 11
136.147
 21
148.387
  0
LINE
  8
0
 10
136.147
 20
148.387
 11
136.312
 21
148.232
  0
LINE
  8
0
 10
136.312
 20
148.232
 11
136.456
 21
148.058
  0
LINE
  8
0
 10
136.456
 20
148.058
 11
136.577
 21
147.867
  0
LINE
  8
0
 10
136.577
 20
147.867
 11
136.674
 21
147.663
  0
LINE
  8
0
 10
136.674
 20
147.663
 11
136.743
 21
147.448
  0
LINE
  8
0
 10
136.743
 20
147.448
 11
136.786
 21
147.226
  0
LINE
  8
0
 10
136.786
 20
147.226
 11
136.8
 21
147
  0
LINE
  8
0
 10
136.8
 20
147
 11
136.786
 21
146.774
  0
LINE
  8
0
 10
136.786
 20
146.774
 11
136.743
 21
146.552
  0
LINE
  8
0
 10
136.743
 20
146.552
 11
136.674
 21
146.337
  0
LINE
  8
0
 10
136.674
 20
146.337
 11
136.577
 21
146.133
  0
LINE
  8
0
 10
136.577
 20
146.133
 11
136.456
 21
145.942
  0
LINE
  8
0
 10
136.456
 20
145.942
 11
136.312
 21
145.768
  0
LINE
  8
0
 10
136.312
 20
145.768
 11
136.147
 21
145.613
  0
LINE
  8
0
 10
136.147
 20
145.613
 11
135.964
 21
145.48
  0
LINE
  8
0
 10
135.964
 20
145.48
 11
135.766
 21
145.371
  0
LINE
  8
0
 10
135.766
 20
145.371
 11
135.556
 21
145.288
  0
LINE
  8
0
 10
135.556
 20
145.288
 11
135.337
 21
145.232
  0
LINE
  8
0
 10
135.337
 20
145.232
 11
135.113
 21
145.204
  0
LINE
  8
0
 10
135.113
 20
145.204
 11
134.887
 21
145.204
  0
LINE
  8
0
 10
-135.113
 20
145.204
 11
-135.337
 21
145.232
  0
LINE
  8
0
 10
-135.337
 20
145.232
 11
-135.556
 21
145.288
  0
LINE
  8
0
 10
-135.556
 20
145.288
 11
-135.766
 21
145.371
  0
LINE
  8
0
 10
-135.766
 20
145.371
 11
-135.964
 21
145.48
  0
LINE
  8
0
 10
-135.964
 20
145.48
 11
-136.147
 21
145.613
  0
LINE
  8
0
 10
-136.147
 20
145.613
 11
-136.312
 21
145.768
  0
LINE
  8
0
 10
-136.312
 20
145.768
 11
-136.456
 21
145.942
  0
LINE
  8
0
 10
-136.456
 20
145.942
 11
-136.577
 21
146.133
  0
LINE
  8
0
 10
-136.577
 20
146.133
 11
-136.674
 21
146.337
  0
LINE
  8
0
 10
-136.674
 20
146.337
 11
-136.743
 21
146.552
  0
LINE
  8
0
 10
-136.743
 20
146.552
 11
-136.786
 21
146.774
  0
LINE
  8
0
 10
-136.786
 20
146.774
 11
-136.8
 21
147
  0
LINE
  8
0
 10
-136.8
 20
147
 11
-136.786
 21
147.226
  0
LINE
  8
0
 10
-136.786
 20
147.226
 11
-136.743
 21
147.448
  0
LINE
  8
0
 10
-136.743
 20
147.448
 11
-136.674
 21
147.663
  0
LINE
  8
0
 10
-136.674
 20
147.663
 11
-136.577
 21
147.867
  0
LINE
  8
0
 10
-136.577
 20
147.867
 11
-136.456
 21
148.058
  0
LINE
  8
0
 10
-136.456
 20
148.058
 11
-136.312
 21
148.232
  0
LINE
  8
0
 10
-136.312
 20
148.232
 11
-136.147
 21
148.387
  0
LINE
  8
0
 10
-136.147
 20
148.387
 11
-135.964
 21
148.52
  0
LINE
  8
0
 10
-135.964
 20
148.52
 11
-135.766
 21
148.629
  0
LINE
  8
0
 10
-135.766
 20
148.629
 11
-135.556
 21
148.712
  0
LINE
  8
0
 10
-135.556
 20
148.712
 11
-135.337
 21
148.768
  0
LINE
  8
0
 10
-135.337
 20
148.768
 11
-135.113
 21
148.796
  0
LINE
  8
0
 10
-135.113
 20
148.796
 11
-134.887
 21
148.796
  0
LINE
  8
0
 10
-134.887
 20
148.796
 11
-134.663
 21
148.768
  0
LINE
  8
0
 10
-134.663
 20
148.768
 11
-134.444
 21
148.712
  0
LINE
  8
0
 10
-134.444
 20
148.712
 11
-134.234
 21
148.629
  0
LINE
  8
0
 10
-134.234
 20
148.629
 11
-134.036
 21
148.52
  0
LINE
  8
0
 10
-134.036
 20
148.52
 11
-133.853
 21
148.387
  0
LINE
  8
0
 10
-133.853
 20
148.387
 11
-133.688
 21
148.232
  0
LINE
  8
0
 10
-133.688
 20
148.232
 11
-133.544
 21
148.058
  0
LINE
  8
0
 10
-133.544
 20
148.058
 11
-133.423
 21
147.867
  0
LINE
  8
0
 10
-133.423
 20
147.867
 11
-133.326
 21
147.663
  0
LINE
  8
0
 10
-133.326
 20
147.663
 11
-133.257
 21
147.448
  0
LINE
  8
0
 10
-133.257
 20
147.448
 11
-133.214
 21
147.226
  0
LINE
  8
0
 10
-133.214
 20
147.226
 11
-133.2
 21
147
  0
LINE
  8
0
 10
-133.2
 20
147
 11
-133.214
 21
146.774
  0
LINE
  8
0
 10
-133.214
 20
146.774
 11
-133.257
 21
146.552
  0
LINE
  8
0
 10
-133.257
 20
146.552
 11
-133.326
 21
146.337
  0
LINE
  8
0
 10
-133.326
 20
146.337
 11
-133.423
 21
146.133
  0
LINE
  8
0
 10
-133.423
 20
146.133
 11
-133.544
 21
145.942
  0
LINE
  8
0
 10
-133.544
 20
145.942
 11
-133.688
 21
145.768
  0
LINE
  8
0
 10
-133.688
 20
145.768
 11
-133.853
 21
145.613
  0
LINE
  8
0
 10
-133.853
 20
145.613
 11
-134.036
 21
145.48
  0
LINE
  8
0
 10
-134.036
 20
145.48
 11
-134.234
 21
145.371
  0
LINE
  8
0
 10
-134.234
 20
145.371
 11
-134.444
 21
145.288
  0
LINE
  8
0
 10
-134.444
 20
145.288
 11
-134.663
 21
145.232
  0
LINE
  8
0
 10
-134.663
 20
145.232
 11
-134.887
 21
145.204
  0
LINE
  8
0
 10
-134.887
 20
145.204
 11
-135.113
 21
145.204
  0
ENDSEC
  0
SECTION
  2
OBJECTS
  0
DICTIONARY
  0
ENDSEC
  0
EOF
