<?xml version="1.0" standalone="no"?>
<!DOCTYPE svg PUBLIC "-//W3C//DTD SVG 1.1//EN" "http://www.w3.org/Graphics/SVG/1.1/DTD/svg11.dtd">
<svg width="257mm" height="64mm" viewBox="-129 -104 257 64" xmlns="http://www.w3.org/2000/svg" version="1.1">
<title>OpenSCAD Model</title>
<path d="
M -126,-89.9413 L -125.687,-89.6474 L -125.179,-89.2784 L -124.629,-88.9759 L -124.045,-88.7447 L -123.437,-88.5886
 L -122.814,-88.5099 L 122.814,-88.5099 L 123.437,-88.5886 L 124.045,-88.7447 L 124.629,-88.9759 L 125.179,-89.2784
 L 125.687,-89.6474 L 126.145,-90.0773 L 126.545,-90.5611 L 126.882,-91.0912 L 127.149,-91.6594 L 127.343,-92.2566
 L 127.461,-92.8733 L 127.5,-93.5 L 127.5,-98.5 L 127.461,-99.1267 L 127.343,-99.7434 L 127.149,-100.341
 L 126.882,-100.909 L 126.545,-101.439 L 126.145,-101.923 L 125.687,-102.353 L 125.179,-102.722 L 124.629,-103.024
 L 124.045,-103.255 L 123.437,-103.411 L 122.814,-103.49 L -122.814,-103.49 L -123.437,-103.411 L -124.045,-103.255
 L -124.629,-103.024 L -125.179,-102.722 L -125.687,-102.353 L -126,-102.059 L -126,-103.49 L -129,-103.49
 L -129,-88.5099 L -126,-88.5099 z
M -122.243,-90.135 L -122.726,-90.196 L -123.197,-90.3169 L -123.649,-90.4959 L -124.075,-90.7302 L -124.469,-91.0161
 L -124.823,-91.349 L -125.133,-91.7237 L -125.394,-92.1344 L -125.601,-92.5744 L -125.751,-93.0369 L -125.842,-93.5146
 L -125.873,-94 L -125.873,-98 L -125.842,-98.4854 L -125.751,-98.9631 L -125.601,-99.4256 L -125.394,-99.8656
 L -125.133,-100.276 L -124.823,-100.651 L -124.469,-100.984 L -124.075,-101.27 L -123.649,-101.504 L -123.197,-101.683
 L -122.726,-101.804 L -122.243,-101.865 L 122.243,-101.865 L 122.726,-101.804 L 123.197,-101.683 L 123.649,-101.504
 L 124.075,-101.27 L 124.469,-100.984 L 124.823,-100.651 L 125.133,-100.276 L 125.394,-99.8656 L 125.601,-99.4256
 L 125.751,-98.9631 L 125.842,-98.4854 L 125.873,-98 L 125.873,-94 L 125.842,-93.5146 L 125.751,-93.0369
 L 125.601,-92.5744 L 125.394,-92.1344 L 125.133,-91.7237 L 124.823,-91.349 L 124.469,-91.0161 L 124.075,-90.7302
 L 123.649,-90.4959 L 123.197,-90.3169 L 122.726,-90.196 L 122.243,-90.135 z
M 123.437,-64.5886 L 124.045,-64.7447 L 124.629,-64.9759 L 125.179,-65.2784 L 125.687,-65.6474 L 126.145,-66.0773
 L 126.545,-66.5611 L 126.882,-67.0912 L 127.149,-67.6594 L 127.343,-68.2566 L 127.461,-68.8733 L 127.5,-69.5
 L 127.5,-74.5 L 127.461,-75.1267 L 127.343,-75.7434 L 127.149,-76.3406 L 126.882,-76.9088 L 126.545,-77.4389
 L 126.145,-77.9227 L 125.687,-78.3526 L 125.179,-78.7216 L 124.629,-79.0241 L 124.045,-79.2553 L 123.437,-79.4114
 L 122.814,-79.4901 L -122.814,-79.4901 L -123.437,-79.4114 L -124.045,-79.2553 L -124.629,-79.0241 L -125.179,-78.7216
 L -125.687,-78.3526 L -126,-78.0587 L -126,-79.1148 L -129,-79.1148 L -129,-64.8852 L -126,-64.8852
 L -126,-65.9413 L -125.687,-65.6474 L -125.179,-65.2784 L -124.629,-64.9759 L -124.045,-64.7447 L -123.437,-64.5886
 L -122.814,-64.5099 L 122.814,-64.5099 z
M 119.849,-69.6047 L 119.55,-69.6425 L 119.258,-69.7175 L 118.978,-69.8284 L 118.714,-69.9736 L 118.47,-70.1508
 L 118.25,-70.3571 L 118.058,-70.5893 L 117.897,-70.8438 L 117.769,-71.1165 L 117.675,-71.4032 L 117.619,-71.6992
 L 117.6,-72 L 117.619,-72.3008 L 117.675,-72.5968 L 117.769,-72.8835 L 117.897,-73.1562 L 118.058,-73.4107
 L 118.25,-73.6429 L 118.47,-73.8492 L 118.714,-74.0264 L 118.978,-74.1716 L 119.258,-74.2825 L 119.55,-74.3575
 L 119.849,-74.3953 L 120.151,-74.3953 L 120.45,-74.3575 L 120.742,-74.2825 L 121.022,-74.1716 L 121.286,-74.0264
 L 121.53,-73.8492 L 121.75,-73.6429 L 121.942,-73.4107 L 122.103,-73.1562 L 122.231,-72.8835 L 122.325,-72.5968
 L 122.381,-72.3008 L 122.4,-72 L 122.381,-71.6992 L 122.325,-71.4032 L 122.231,-71.1165 L 122.103,-70.8438
 L 121.942,-70.5893 L 121.75,-70.3571 L 121.53,-70.1508 L 121.286,-69.9736 L 121.022,-69.8284 L 120.742,-69.7175
 L 120.45,-69.6425 L 120.151,-69.6047 z
M -120.151,-69.6047 L -120.45,-69.6425 L -120.742,-69.7175 L -121.022,-69.8284 L -121.286,-69.9736 L -121.53,-70.1508
 L -121.75,-70.3571 L -121.942,-70.5893 L -122.103,-70.8438 L -122.231,-71.1165 L -122.325,-71.4032 L -122.381,-71.6992
 L -122.4,-72 L -122.381,-72.3008 L -122.325,-72.5968 L -122.231,-72.8835 L -122.103,-73.1562 L -121.942,-73.4107
 L -121.75,-73.6429 L -121.53,-73.8492 L -121.286,-74.0264 L -121.022,-74.1716 L -120.742,-74.2825 L -120.45,-74.3575
 L -120.151,-74.3953 L -119.849,-74.3953 L -119.55,-74.3575 L -119.258,-74.2825 L -118.978,-74.1716 L -118.714,-74.0264
 L -118.47,-73.8492 L -118.25,-73.6429 L -118.058,-73.4107 L -117.897,-73.1562 L -117.769,-72.8835 L -117.675,-72.5968
 L -117.619,-72.3008 L -117.6,-72 L -117.619,-71.6992 L -117.675,-71.4032 L -117.769,-71.1165 L -117.897,-70.8438
 L -118.058,-70.5893 L -118.25,-70.3571 L -118.47,-70.1508 L -118.714,-69.9736 L -118.978,-69.8284 L -119.258,-69.7175
 L -119.55,-69.6425 L -119.849,-69.6047 z
M 123.437,-40.5886 L 124.045,-40.7447 L 124.629,-40.9759 L 125.179,-41.2784 L 125.687,-41.6474 L 126.145,-42.0773
 L 126.545,-42.5611 L 126.882,-43.0912 L 127.149,-43.6594 L 127.343,-44.2566 L 127.461,-44.8733 L 127.5,-45.5
 L 127.5,-50.5 L 127.461,-51.1267 L 127.343,-51.7434 L 127.149,-52.3406 L 126.882,-52.9088 L 126.545,-53.4389
 L 126.145,-53.9227 L 125.687,-54.3526 L 125.179,-54.7216 L 124.629,-55.0241 L 124.045,-55.2553 L 123.437,-55.4114
 L 122.814,-55.4901 L -122.814,-55.4901 L -123.437,-55.4114 L -124.045,-55.2553 L -124.629,-55.0241 L -125.179,-54.7216
 L -125.687,-54.3526 L -126.145,-53.9227 L -126.545,-53.4389 L -126.882,-52.9088 L -127.149,-52.3406 L -127.343,-51.7434
 L -127.4,-51.4442 L -129,-51.4442 L -129,-44.5558 L -127.4,-44.5558 L -127.343,-44.2566 L -127.149,-43.6594
 L -126.882,-43.0912 L -126.545,-42.5611 L -126.145,-42.0773 L -125.687,-41.6474 L -125.179,-41.2784 L -124.629,-40.9759
 L -124.045,-40.7447 L -123.437,-40.5886 L -122.814,-40.5099 L 122.814,-40.5099 z
M 119.887,-46.2036 L 119.663,-46.2319 L 119.444,-46.2881 L 119.234,-46.3713 L 119.036,-46.4802 L 118.853,-46.6131
 L 118.688,-46.7678 L 118.544,-46.942 L 118.423,-47.1329 L 118.326,-47.3374 L 118.257,-47.5524 L 118.214,-47.7744
 L 118.2,-48 L 118.214,-48.2256 L 118.257,-48.4476 L 118.326,-48.6626 L 118.423,-48.8671 L 118.544,-49.058
 L 118.688,-49.2322 L 118.853,-49.3869 L 119.036,-49.5198 L 119.234,-49.6287 L 119.444,-49.7119 L 119.663,-49.7681
 L 119.887,-49.7964 L 120.113,-49.7964 L 120.337,-49.7681 L 120.556,-49.7119 L 120.766,-49.6287 L 120.964,-49.5198
 L 121.147,-49.3869 L 121.312,-49.2322 L 121.456,-49.058 L 121.577,-48.8671 L 121.674,-48.6626 L 121.743,-48.4476
 L 121.786,-48.2256 L 121.8,-48 L 121.786,-47.7744 L 121.743,-47.5524 L 121.674,-47.3374 L 121.577,-47.1329
 L 121.456,-46.942 L 121.312,-46.7678 L 121.147,-46.6131 L 120.964,-46.4802 L 120.766,-46.3713 L 120.556,-46.2881
 L 120.337,-46.2319 L 120.113,-46.2036 z
M -120.113,-46.2036 L -120.337,-46.2319 L -120.556,-46.2881 L -120.766,-46.3713 L -120.964,-46.4802 L -121.147,-46.6131
 L -121.312,-46.7678 L -121.456,-46.942 L -121.577,-47.1329 L -121.674,-47.3374 L -121.743,-47.5524 L -121.786,-47.7744
 L -121.8,-48 L -121.786,-48.2256 L -121.743,-48.4476 L -121.674,-48.6626 L -121.577,-48.8671 L -121.456,-49.058
 L -121.312,-49.2322 L -121.147,-49.3869 L -120.964,-49.5198 L -120.766,-49.6287 L -120.556,-49.7119 L -120.337,-49.7681
 L -120.113,-49.7964 L -119.887,-49.7964 L -119.663,-49.7681 L -119.444,-49.7119 L -119.234,-49.6287 L -119.036,-49.5198
 L -118.853,-49.3869 L -118.688,-49.2322 L -118.544,-49.058 L -118.423,-48.8671 L -118.326,-48.6626 L -118.257,-48.4476
 L -118.214,-48.2256 L -118.2,-48 L -118.214,-47.7744 L -118.257,-47.5524 L -118.326,-47.3374 L -118.423,-47.1329
 L -118.544,-46.942 L -118.688,-46.7678 L -118.853,-46.6131 L -119.036,-46.4802 L -119.234,-46.3713 L -119.444,-46.2881
 L -119.663,-46.2319 L -119.887,-46.2036 z
" stroke="black" fill="lightgray" stroke-width="0.5"/>
</svg>
