<?xml version="1.0" standalone="no"?>
<!DOCTYPE svg PUBLIC "-//W3C//DTD SVG 1.1//EN" "http://www.w3.org/Graphics/SVG/1.1/DTD/svg11.dtd">
<svg width="242mm" height="412mm" viewBox="-122 -710 242 412" xmlns="http://www.w3.org/2000/svg" version="1.1">
<title>OpenSCAD Model</title>
<path d="
M -118.5,-635.941 L -118.187,-635.647 L -117.679,-635.278 L -117.129,-634.976 L -116.545,-634.745 L -115.937,-634.589
 L -115.314,-634.51 L 115.314,-634.51 L 115.937,-634.589 L 116.545,-634.745 L 117.129,-634.976 L 117.679,-635.278
 L 118.187,-635.647 L 118.645,-636.077 L 119.045,-636.561 L 119.382,-637.091 L 119.649,-637.659 L 119.843,-638.257
 L 119.961,-638.873 L 120,-639.5 L 120,-704.5 L 119.961,-705.127 L 119.843,-705.743 L 119.649,-706.341
 L 119.382,-706.909 L 119.045,-707.439 L 118.645,-707.923 L 118.187,-708.353 L 117.679,-708.722 L 117.129,-709.024
 L 116.545,-709.255 L 115.937,-709.411 L 115.314,-709.49 L -115.314,-709.49 L -115.937,-709.411 L -116.545,-709.255
 L -117.129,-709.024 L -117.679,-708.722 L -118.187,-708.353 L -118.5,-708.059 L -118.5,-709.49 L -121.5,-709.49
 L -121.5,-634.51 L -118.5,-634.51 z
M -114.751,-636.008 L -115.25,-636.071 L -115.736,-636.196 L -116.203,-636.381 L -116.643,-636.623 L -117.05,-636.918
 L -117.416,-637.262 L -117.736,-637.649 L -118.005,-638.073 L -118.219,-638.528 L -118.374,-639.005 L -118.468,-639.499
 L -118.5,-640 L -118.5,-704 L -118.468,-704.501 L -118.374,-704.995 L -118.219,-705.472 L -118.005,-705.927
 L -117.736,-706.351 L -117.416,-706.738 L -117.05,-707.082 L -116.643,-707.377 L -116.203,-707.619 L -115.736,-707.804
 L -115.25,-707.929 L -114.751,-707.992 L 114.751,-707.992 L 115.25,-707.929 L 115.736,-707.804 L 116.203,-707.619
 L 116.643,-707.377 L 117.05,-707.082 L 117.416,-706.738 L 117.736,-706.351 L 118.005,-705.927 L 118.219,-705.472
 L 118.374,-704.995 L 118.468,-704.501 L 118.5,-704 L 118.5,-640 L 118.468,-639.499 L 118.374,-639.005
 L 118.219,-638.528 L 118.005,-638.073 L 117.736,-637.649 L 117.416,-637.262 L 117.05,-636.918 L 116.643,-636.623
 L 116.203,-636.381 L 115.736,-636.196 L 115.25,-636.071 L 114.751,-636.008 z
M -118.5,-551.941 L -118.187,-551.647 L -117.679,-551.278 L -117.129,-550.976 L -116.545,-550.745 L -115.937,-550.589
 L -115.314,-550.51 L 115.314,-550.51 L 115.937,-550.589 L 116.545,-550.745 L 117.129,-550.976 L 117.679,-551.278
 L 118.187,-551.647 L 118.645,-552.077 L 119.045,-552.561 L 119.382,-553.091 L 119.649,-553.659 L 119.843,-554.257
 L 119.961,-554.873 L 120,-555.5 L 120,-620.5 L 119.961,-621.127 L 119.843,-621.743 L 119.649,-622.341
 L 119.382,-622.909 L 119.045,-623.439 L 118.645,-623.923 L 118.187,-624.353 L 117.679,-624.722 L 117.129,-625.024
 L 116.545,-625.255 L 115.937,-625.411 L 115.314,-625.49 L -115.314,-625.49 L -115.937,-625.411 L -116.545,-625.255
 L -117.129,-625.024 L -117.679,-624.722 L -118.187,-624.353 L -118.5,-624.059 L -118.5,-625.49 L -121.5,-625.49
 L -121.5,-550.51 L -118.5,-550.51 z
M -114.751,-552.008 L -115.25,-552.071 L -115.736,-552.196 L -116.203,-552.381 L -116.643,-552.623 L -117.05,-552.918
 L -117.416,-553.262 L -117.736,-553.649 L -118.005,-554.073 L -118.219,-554.528 L -118.374,-555.005 L -118.468,-555.499
 L -118.5,-556 L -118.5,-620 L -118.468,-620.501 L -118.374,-620.995 L -118.219,-621.472 L -118.005,-621.927
 L -117.736,-622.351 L -117.416,-622.738 L -117.05,-623.082 L -116.643,-623.377 L -116.203,-623.619 L -115.736,-623.804
 L -115.25,-623.929 L -114.751,-623.992 L 114.751,-623.992 L 115.25,-623.929 L 115.736,-623.804 L 116.203,-623.619
 L 116.643,-623.377 L 117.05,-623.082 L 117.416,-622.738 L 117.736,-622.351 L 118.005,-621.927 L 118.219,-621.472
 L 118.374,-620.995 L 118.468,-620.501 L 118.5,-620 L 118.5,-556 L 118.468,-555.499 L 118.374,-555.005
 L 118.219,-554.528 L 118.005,-554.073 L 117.736,-553.649 L 117.416,-553.262 L 117.05,-552.918 L 116.643,-552.623
 L 116.203,-552.381 L 115.736,-552.196 L 115.25,-552.071 L 114.751,-552.008 z
M -118.5,-467.941 L -118.187,-467.647 L -117.679,-467.278 L -117.129,-466.976 L -116.545,-466.745 L -115.937,-466.589
 L -115.314,-466.51 L 115.314,-466.51 L 115.937,-466.589 L 116.545,-466.745 L 117.129,-466.976 L 117.679,-467.278
 L 118.187,-467.647 L 118.645,-468.077 L 119.045,-468.561 L 119.382,-469.091 L 119.649,-469.659 L 119.843,-470.257
 L 119.961,-470.873 L 120,-471.5 L 120,-536.5 L 119.961,-537.127 L 119.843,-537.743 L 119.649,-538.341
 L 119.382,-538.909 L 119.045,-539.439 L 118.645,-539.923 L 118.187,-540.353 L 117.679,-540.722 L 117.129,-541.024
 L 116.545,-541.255 L 115.937,-541.411 L 115.314,-541.49 L -115.314,-541.49 L -115.937,-541.411 L -116.545,-541.255
 L -117.129,-541.024 L -117.679,-540.722 L -118.187,-540.353 L -118.5,-540.059 L -118.5,-541.49 L -121.5,-541.49
 L -121.5,-466.51 L -118.5,-466.51 z
M -114.743,-468.135 L -115.226,-468.196 L -115.697,-468.317 L -116.149,-468.496 L -116.575,-468.73 L -116.969,-469.016
 L -117.323,-469.349 L -117.633,-469.724 L -117.894,-470.134 L -118.101,-470.574 L -118.251,-471.037 L -118.342,-471.515
 L -118.373,-472 L -118.373,-536 L -118.342,-536.485 L -118.251,-536.963 L -118.101,-537.426 L -117.894,-537.866
 L -117.633,-538.276 L -117.323,-538.651 L -116.969,-538.984 L -116.575,-539.27 L -116.149,-539.504 L -115.697,-539.683
 L -115.226,-539.804 L -114.743,-539.865 L 114.743,-539.865 L 115.226,-539.804 L 115.697,-539.683 L 116.149,-539.504
 L 116.575,-539.27 L 116.969,-538.984 L 117.323,-538.651 L 117.633,-538.276 L 117.894,-537.866 L 118.101,-537.426
 L 118.251,-536.963 L 118.342,-536.485 L 118.373,-536 L 118.373,-472 L 118.342,-471.515 L 118.251,-471.037
 L 118.101,-470.574 L 117.894,-470.134 L 117.633,-469.724 L 117.323,-469.349 L 116.969,-469.016 L 116.575,-468.73
 L 116.149,-468.496 L 115.697,-468.317 L 115.226,-468.196 L 114.743,-468.135 z
M 115.937,-382.589 L 116.545,-382.745 L 117.129,-382.976 L 117.679,-383.278 L 118.187,-383.647 L 118.645,-384.077
 L 119.045,-384.561 L 119.382,-385.091 L 119.649,-385.659 L 119.843,-386.257 L 119.961,-386.873 L 120,-387.5
 L 120,-452.5 L 119.961,-453.127 L 119.843,-453.743 L 119.649,-454.341 L 119.382,-454.909 L 119.045,-455.439
 L 118.645,-455.923 L 118.187,-456.353 L 117.679,-456.722 L 117.129,-457.024 L 116.545,-457.255 L 115.937,-457.411
 L 115.314,-457.49 L -115.314,-457.49 L -115.937,-457.411 L -116.545,-457.255 L -117.129,-457.024 L -117.679,-456.722
 L -118.187,-456.353 L -118.5,-456.059 L -118.5,-457.115 L -121.5,-457.115 L -121.5,-382.885 L -118.5,-382.885
 L -118.5,-383.941 L -118.187,-383.647 L -117.679,-383.278 L -117.129,-382.976 L -116.545,-382.745 L -115.937,-382.589
 L -115.314,-382.51 L 115.314,-382.51 z
M -112.651,-447.605 L -112.95,-447.643 L -113.242,-447.717 L -113.522,-447.828 L -113.786,-447.974 L -114.03,-448.151
 L -114.25,-448.357 L -114.442,-448.589 L -114.603,-448.844 L -114.731,-449.117 L -114.825,-449.403 L -114.881,-449.699
 L -114.9,-450 L -114.881,-450.301 L -114.825,-450.597 L -114.731,-450.883 L -114.603,-451.156 L -114.442,-451.411
 L -114.25,-451.643 L -114.03,-451.849 L -113.786,-452.026 L -113.522,-452.172 L -113.242,-452.283 L -112.95,-452.357
 L -112.651,-452.395 L -112.349,-452.395 L -112.05,-452.357 L -111.758,-452.283 L -111.478,-452.172 L -111.214,-452.026
 L -110.97,-451.849 L -110.75,-451.643 L -110.558,-451.411 L -110.397,-451.156 L -110.269,-450.883 L -110.175,-450.597
 L -110.119,-450.301 L -110.1,-450 L -110.119,-449.699 L -110.175,-449.403 L -110.269,-449.117 L -110.397,-448.844
 L -110.558,-448.589 L -110.75,-448.357 L -110.97,-448.151 L -111.214,-447.974 L -111.478,-447.828 L -111.758,-447.717
 L -112.05,-447.643 L -112.349,-447.605 z
M 112.349,-447.605 L 112.05,-447.643 L 111.758,-447.717 L 111.478,-447.828 L 111.214,-447.974 L 110.97,-448.151
 L 110.75,-448.357 L 110.558,-448.589 L 110.397,-448.844 L 110.269,-449.117 L 110.175,-449.403 L 110.119,-449.699
 L 110.1,-450 L 110.119,-450.301 L 110.175,-450.597 L 110.269,-450.883 L 110.397,-451.156 L 110.558,-451.411
 L 110.75,-451.643 L 110.97,-451.849 L 111.214,-452.026 L 111.478,-452.172 L 111.758,-452.283 L 112.05,-452.357
 L 112.349,-452.395 L 112.651,-452.395 L 112.95,-452.357 L 113.242,-452.283 L 113.522,-452.172 L 113.786,-452.026
 L 114.03,-451.849 L 114.25,-451.643 L 114.442,-451.411 L 114.603,-451.156 L 114.731,-450.883 L 114.825,-450.597
 L 114.881,-450.301 L 114.9,-450 L 114.881,-449.699 L 114.825,-449.403 L 114.731,-449.117 L 114.603,-448.844
 L 114.442,-448.589 L 114.25,-448.357 L 114.03,-448.151 L 113.786,-447.974 L 113.522,-447.828 L 113.242,-447.717
 L 112.95,-447.643 L 112.651,-447.605 z
M -112.651,-387.605 L -112.95,-387.643 L -113.242,-387.717 L -113.522,-387.828 L -113.786,-387.974 L -114.03,-388.151
 L -114.25,-388.357 L -114.442,-388.589 L -114.603,-388.844 L -114.731,-389.117 L -114.825,-389.403 L -114.881,-389.699
 L -114.9,-390 L -114.881,-390.301 L -114.825,-390.597 L -114.731,-390.883 L -114.603,-391.156 L -114.442,-391.411
 L -114.25,-391.643 L -114.03,-391.849 L -113.786,-392.026 L -113.522,-392.172 L -113.242,-392.283 L -112.95,-392.357
 L -112.651,-392.395 L -112.349,-392.395 L -112.05,-392.357 L -111.758,-392.283 L -111.478,-392.172 L -111.214,-392.026
 L -110.97,-391.849 L -110.75,-391.643 L -110.558,-391.411 L -110.397,-391.156 L -110.269,-390.883 L -110.175,-390.597
 L -110.119,-390.301 L -110.1,-390 L -110.119,-389.699 L -110.175,-389.403 L -110.269,-389.117 L -110.397,-388.844
 L -110.558,-388.589 L -110.75,-388.357 L -110.97,-388.151 L -111.214,-387.974 L -111.478,-387.828 L -111.758,-387.717
 L -112.05,-387.643 L -112.349,-387.605 z
M 112.349,-387.605 L 112.05,-387.643 L 111.758,-387.717 L 111.478,-387.828 L 111.214,-387.974 L 110.97,-388.151
 L 110.75,-388.357 L 110.558,-388.589 L 110.397,-388.844 L 110.269,-389.117 L 110.175,-389.403 L 110.119,-389.699
 L 110.1,-390 L 110.119,-390.301 L 110.175,-390.597 L 110.269,-390.883 L 110.397,-391.156 L 110.558,-391.411
 L 110.75,-391.643 L 110.97,-391.849 L 111.214,-392.026 L 111.478,-392.172 L 111.758,-392.283 L 112.05,-392.357
 L 112.349,-392.395 L 112.651,-392.395 L 112.95,-392.357 L 113.242,-392.283 L 113.522,-392.172 L 113.786,-392.026
 L 114.03,-391.849 L 114.25,-391.643 L 114.442,-391.411 L 114.603,-391.156 L 114.731,-390.883 L 114.825,-390.597
 L 114.881,-390.301 L 114.9,-390 L 114.881,-389.699 L 114.825,-389.403 L 114.731,-389.117 L 114.603,-388.844
 L 114.442,-388.589 L 114.25,-388.357 L 114.03,-388.151 L 113.786,-387.974 L 113.522,-387.828 L 113.242,-387.717
 L 112.95,-387.643 L 112.651,-387.605 z
M 115.937,-298.589 L 116.545,-298.745 L 117.129,-298.976 L 117.679,-299.278 L 118.187,-299.647 L 118.645,-300.077
 L 119.045,-300.561 L 119.382,-301.091 L 119.649,-301.659 L 119.843,-302.257 L 119.961,-302.873 L 120,-303.5
 L 120,-368.5 L 119.961,-369.127 L 119.843,-369.743 L 119.649,-370.341 L 119.382,-370.909 L 119.045,-371.439
 L 118.645,-371.923 L 118.187,-372.353 L 117.679,-372.722 L 117.129,-373.024 L 116.545,-373.255 L 115.937,-373.411
 L 115.314,-373.49 L -115.314,-373.49 L -115.937,-373.411 L -116.545,-373.255 L -117.129,-373.024 L -117.679,-372.722
 L -118.187,-372.353 L -118.645,-371.923 L -119.045,-371.439 L -119.382,-370.909 L -119.649,-370.341 L -119.843,-369.743
 L -119.9,-369.444 L -121.5,-369.444 L -121.5,-302.556 L -119.9,-302.556 L -119.843,-302.257 L -119.649,-301.659
 L -119.382,-301.091 L -119.045,-300.561 L -118.645,-300.077 L -118.187,-299.647 L -117.679,-299.278 L -117.129,-298.976
 L -116.545,-298.745 L -115.937,-298.589 L -115.314,-298.51 L 115.314,-298.51 z
M -112.613,-364.204 L -112.837,-364.232 L -113.056,-364.288 L -113.266,-364.371 L -113.464,-364.48 L -113.647,-364.613
 L -113.812,-364.768 L -113.956,-364.942 L -114.077,-365.133 L -114.174,-365.337 L -114.243,-365.552 L -114.286,-365.774
 L -114.3,-366 L -114.286,-366.226 L -114.243,-366.448 L -114.174,-366.663 L -114.077,-366.867 L -113.956,-367.058
 L -113.812,-367.232 L -113.647,-367.387 L -113.464,-367.52 L -113.266,-367.629 L -113.056,-367.712 L -112.837,-367.768
 L -112.613,-367.796 L -112.387,-367.796 L -112.163,-367.768 L -111.944,-367.712 L -111.734,-367.629 L -111.536,-367.52
 L -111.353,-367.387 L -111.188,-367.232 L -111.044,-367.058 L -110.923,-366.867 L -110.826,-366.663 L -110.757,-366.448
 L -110.714,-366.226 L -110.7,-366 L -110.714,-365.774 L -110.757,-365.552 L -110.826,-365.337 L -110.923,-365.133
 L -111.044,-364.942 L -111.188,-364.768 L -111.353,-364.613 L -111.536,-364.48 L -111.734,-364.371 L -111.944,-364.288
 L -112.163,-364.232 L -112.387,-364.204 z
M 112.387,-364.204 L 112.163,-364.232 L 111.944,-364.288 L 111.734,-364.371 L 111.536,-364.48 L 111.353,-364.613
 L 111.188,-364.768 L 111.044,-364.942 L 110.923,-365.133 L 110.826,-365.337 L 110.757,-365.552 L 110.714,-365.774
 L 110.7,-366 L 110.714,-366.226 L 110.757,-366.448 L 110.826,-366.663 L 110.923,-366.867 L 111.044,-367.058
 L 111.188,-367.232 L 111.353,-367.387 L 111.536,-367.52 L 111.734,-367.629 L 111.944,-367.712 L 112.163,-367.768
 L 112.387,-367.796 L 112.613,-367.796 L 112.837,-367.768 L 113.056,-367.712 L 113.266,-367.629 L 113.464,-367.52
 L 113.647,-367.387 L 113.812,-367.232 L 113.956,-367.058 L 114.077,-366.867 L 114.174,-366.663 L 114.243,-366.448
 L 114.286,-366.226 L 114.3,-366 L 114.286,-365.774 L 114.243,-365.552 L 114.174,-365.337 L 114.077,-365.133
 L 113.956,-364.942 L 113.812,-364.768 L 113.647,-364.613 L 113.464,-364.48 L 113.266,-364.371 L 113.056,-364.288
 L 112.837,-364.232 L 112.613,-364.204 z
M -112.613,-304.204 L -112.837,-304.232 L -113.056,-304.288 L -113.266,-304.371 L -113.464,-304.48 L -113.647,-304.613
 L -113.812,-304.768 L -113.956,-304.942 L -114.077,-305.133 L -114.174,-305.337 L -114.243,-305.552 L -114.286,-305.774
 L -114.3,-306 L -114.286,-306.226 L -114.243,-306.448 L -114.174,-306.663 L -114.077,-306.867 L -113.956,-307.058
 L -113.812,-307.232 L -113.647,-307.387 L -113.464,-307.52 L -113.266,-307.629 L -113.056,-307.712 L -112.837,-307.768
 L -112.613,-307.796 L -112.387,-307.796 L -112.163,-307.768 L -111.944,-307.712 L -111.734,-307.629 L -111.536,-307.52
 L -111.353,-307.387 L -111.188,-307.232 L -111.044,-307.058 L -110.923,-306.867 L -110.826,-306.663 L -110.757,-306.448
 L -110.714,-306.226 L -110.7,-306 L -110.714,-305.774 L -110.757,-305.552 L -110.826,-305.337 L -110.923,-305.133
 L -111.044,-304.942 L -111.188,-304.768 L -111.353,-304.613 L -111.536,-304.48 L -111.734,-304.371 L -111.944,-304.288
 L -112.163,-304.232 L -112.387,-304.204 z
M 112.387,-304.204 L 112.163,-304.232 L 111.944,-304.288 L 111.734,-304.371 L 111.536,-304.48 L 111.353,-304.613
 L 111.188,-304.768 L 111.044,-304.942 L 110.923,-305.133 L 110.826,-305.337 L 110.757,-305.552 L 110.714,-305.774
 L 110.7,-306 L 110.714,-306.226 L 110.757,-306.448 L 110.826,-306.663 L 110.923,-306.867 L 111.044,-307.058
 L 111.188,-307.232 L 111.353,-307.387 L 111.536,-307.52 L 111.734,-307.629 L 111.944,-307.712 L 112.163,-307.768
 L 112.387,-307.796 L 112.613,-307.796 L 112.837,-307.768 L 113.056,-307.712 L 113.266,-307.629 L 113.464,-307.52
 L 113.647,-307.387 L 113.812,-307.232 L 113.956,-307.058 L 114.077,-306.867 L 114.174,-306.663 L 114.243,-306.448
 L 114.286,-306.226 L 114.3,-306 L 114.286,-305.774 L 114.243,-305.552 L 114.174,-305.337 L 114.077,-305.133
 L 113.956,-304.942 L 113.812,-304.768 L 113.647,-304.613 L 113.464,-304.48 L 113.266,-304.371 L 113.056,-304.288
 L 112.837,-304.232 L 112.613,-304.204 z
" stroke="black" fill="lightgray" stroke-width="0.5"/>
</svg>
