  0
SECTION
  2
BLOCKS
  0
ENDSEC
  0
SECTION
  2
ENTITIES
  0
LINE
  8
0
 10
138.437
 20
940.589
 11
139.045
 21
940.745
  0
LINE
  8
0
 10
139.045
 20
940.745
 11
139.629
 21
940.976
  0
LINE
  8
0
 10
139.629
 20
940.976
 11
140.179
 21
941.278
  0
LINE
  8
0
 10
140.179
 20
941.278
 11
140.687
 21
941.647
  0
LINE
  8
0
 10
140.687
 20
941.647
 11
141.145
 21
942.077
  0
LINE
  8
0
 10
141.145
 20
942.077
 11
141.545
 21
942.561
  0
LINE
  8
0
 10
141.545
 20
942.561
 11
141.882
 21
943.091
  0
LINE
  8
0
 10
141.882
 20
943.091
 11
142.149
 21
943.659
  0
LINE
  8
0
 10
142.149
 20
943.659
 11
142.343
 21
944.257
  0
LINE
  8
0
 10
142.343
 20
944.257
 11
142.461
 21
944.873
  0
LINE
  8
0
 10
142.461
 20
944.873
 11
142.5
 21
945.5
  0
LINE
  8
0
 10
142.5
 20
945.5
 11
142.5
 21
1070.5
  0
LINE
  8
0
 10
142.5
 20
1070.5
 11
142.461
 21
1071.13
  0
LINE
  8
0
 10
142.461
 20
1071.13
 11
142.343
 21
1071.74
  0
LINE
  8
0
 10
142.343
 20
1071.74
 11
142.149
 21
1072.34
  0
LINE
  8
0
 10
142.149
 20
1072.34
 11
141.882
 21
1072.91
  0
LINE
  8
0
 10
141.882
 20
1072.91
 11
141.545
 21
1073.44
  0
LINE
  8
0
 10
141.545
 20
1073.44
 11
141.145
 21
1073.92
  0
LINE
  8
0
 10
141.145
 20
1073.92
 11
140.687
 21
1074.35
  0
LINE
  8
0
 10
140.687
 20
1074.35
 11
140.179
 21
1074.72
  0
LINE
  8
0
 10
140.179
 20
1074.72
 11
139.629
 21
1075.02
  0
LINE
  8
0
 10
139.629
 20
1075.02
 11
139.045
 21
1075.26
  0
LINE
  8
0
 10
139.045
 20
1075.26
 11
138.437
 21
1075.41
  0
LINE
  8
0
 10
138.437
 20
1075.41
 11
137.814
 21
1075.49
  0
LINE
  8
0
 10
137.814
 20
1075.49
 11
-137.814
 21
1075.49
  0
LINE
  8
0
 10
-137.814
 20
1075.49
 11
-138.437
 21
1075.41
  0
LINE
  8
0
 10
-138.437
 20
1075.41
 11
-139.045
 21
1075.26
  0
LINE
  8
0
 10
-139.045
 20
1075.26
 11
-139.629
 21
1075.02
  0
LINE
  8
0
 10
-139.629
 20
1075.02
 11
-140.179
 21
1074.72
  0
LINE
  8
0
 10
-140.179
 20
1074.72
 11
-140.687
 21
1074.35
  0
LINE
  8
0
 10
-140.687
 20
1074.35
 11
-141.145
 21
1073.92
  0
LINE
  8
0
 10
-141.145
 20
1073.92
 11
-141.545
 21
1073.44
  0
LINE
  8
0
 10
-141.545
 20
1073.44
 11
-141.882
 21
1072.91
  0
LINE
  8
0
 10
-141.882
 20
1072.91
 11
-142.149
 21
1072.34
  0
LINE
  8
0
 10
-142.149
 20
1072.34
 11
-142.343
 21
1071.74
  0
LINE
  8
0
 10
-142.343
 20
1071.74
 11
-142.461
 21
1071.13
  0
LINE
  8
0
 10
-142.461
 20
1071.13
 11
-142.5
 21
1070.5
  0
LINE
  8
0
 10
-142.5
 20
1070.5
 11
-142.5
 21
945.5
  0
LINE
  8
0
 10
-142.5
 20
945.5
 11
-142.461
 21
944.873
  0
LINE
  8
0
 10
-142.461
 20
944.873
 11
-142.343
 21
944.257
  0
LINE
  8
0
 10
-142.343
 20
944.257
 11
-142.149
 21
943.659
  0
LINE
  8
0
 10
-142.149
 20
943.659
 11
-141.882
 21
943.091
  0
LINE
  8
0
 10
-141.882
 20
943.091
 11
-141.545
 21
942.561
  0
LINE
  8
0
 10
-141.545
 20
942.561
 11
-141.145
 21
942.077
  0
LINE
  8
0
 10
-141.145
 20
942.077
 11
-140.687
 21
941.647
  0
LINE
  8
0
 10
-140.687
 20
941.647
 11
-140.179
 21
941.278
  0
LINE
  8
0
 10
-140.179
 20
941.278
 11
-139.629
 21
940.976
  0
LINE
  8
0
 10
-139.629
 20
940.976
 11
-139.045
 21
940.745
  0
LINE
  8
0
 10
-139.045
 20
940.745
 11
-138.437
 21
940.589
  0
LINE
  8
0
 10
-138.437
 20
940.589
 11
-137.814
 21
940.51
  0
LINE
  8
0
 10
-137.814
 20
940.51
 11
137.814
 21
940.51
  0
LINE
  8
0
 10
137.814
 20
940.51
 11
138.437
 21
940.589
  0
LINE
  8
0
 10
-137.548
 20
941.009
 11
-138.14
 21
941.084
  0
LINE
  8
0
 10
-138.14
 20
941.084
 11
-138.718
 21
941.232
  0
LINE
  8
0
 10
-138.718
 20
941.232
 11
-139.272
 21
941.452
  0
LINE
  8
0
 10
-139.272
 20
941.452
 11
-139.795
 21
941.739
  0
LINE
  8
0
 10
-139.795
 20
941.739
 11
-140.278
 21
942.09
  0
LINE
  8
0
 10
-140.278
 20
942.09
 11
-140.713
 21
942.498
  0
LINE
  8
0
 10
-140.713
 20
942.498
 11
-141.093
 21
942.958
  0
LINE
  8
0
 10
-141.093
 20
942.958
 11
-141.412
 21
943.462
  0
LINE
  8
0
 10
-141.412
 20
943.462
 11
-141.666
 21
944.001
  0
LINE
  8
0
 10
-141.666
 20
944.001
 11
-141.851
 21
944.569
  0
LINE
  8
0
 10
-141.851
 20
944.569
 11
-141.963
 21
945.155
  0
LINE
  8
0
 10
-141.963
 20
945.155
 11
-142
 21
945.75
  0
LINE
  8
0
 10
-142
 20
945.75
 11
-142
 21
1070.25
  0
LINE
  8
0
 10
-142
 20
1070.25
 11
-141.963
 21
1070.85
  0
LINE
  8
0
 10
-141.963
 20
1070.85
 11
-141.851
 21
1071.43
  0
LINE
  8
0
 10
-141.851
 20
1071.43
 11
-141.666
 21
1072
  0
LINE
  8
0
 10
-141.666
 20
1072
 11
-141.412
 21
1072.54
  0
LINE
  8
0
 10
-141.412
 20
1072.54
 11
-141.093
 21
1073.04
  0
LINE
  8
0
 10
-141.093
 20
1073.04
 11
-140.713
 21
1073.5
  0
LINE
  8
0
 10
-140.713
 20
1073.5
 11
-140.278
 21
1073.91
  0
LINE
  8
0
 10
-140.278
 20
1073.91
 11
-139.795
 21
1074.26
  0
LINE
  8
0
 10
-139.795
 20
1074.26
 11
-139.272
 21
1074.55
  0
LINE
  8
0
 10
-139.272
 20
1074.55
 11
-138.718
 21
1074.77
  0
LINE
  8
0
 10
-138.718
 20
1074.77
 11
-138.14
 21
1074.92
  0
LINE
  8
0
 10
-138.14
 20
1074.92
 11
-137.548
 21
1074.99
  0
LINE
  8
0
 10
-137.548
 20
1074.99
 11
137.548
 21
1074.99
  0
LINE
  8
0
 10
137.548
 20
1074.99
 11
138.14
 21
1074.92
  0
LINE
  8
0
 10
138.14
 20
1074.92
 11
138.718
 21
1074.77
  0
LINE
  8
0
 10
138.718
 20
1074.77
 11
139.272
 21
1074.55
  0
LINE
  8
0
 10
139.272
 20
1074.55
 11
139.795
 21
1074.26
  0
LINE
  8
0
 10
139.795
 20
1074.26
 11
140.278
 21
1073.91
  0
LINE
  8
0
 10
140.278
 20
1073.91
 11
140.713
 21
1073.5
  0
LINE
  8
0
 10
140.713
 20
1073.5
 11
141.093
 21
1073.04
  0
LINE
  8
0
 10
141.093
 20
1073.04
 11
141.412
 21
1072.54
  0
LINE
  8
0
 10
141.412
 20
1072.54
 11
141.666
 21
1072
  0
LINE
  8
0
 10
141.666
 20
1072
 11
141.851
 21
1071.43
  0
LINE
  8
0
 10
141.851
 20
1071.43
 11
141.963
 21
1070.85
  0
LINE
  8
0
 10
141.963
 20
1070.85
 11
142
 21
1070.25
  0
LINE
  8
0
 10
142
 20
1070.25
 11
142
 21
945.75
  0
LINE
  8
0
 10
142
 20
945.75
 11
141.963
 21
945.155
  0
LINE
  8
0
 10
141.963
 20
945.155
 11
141.851
 21
944.569
  0
LINE
  8
0
 10
141.851
 20
944.569
 11
141.666
 21
944.001
  0
LINE
  8
0
 10
141.666
 20
944.001
 11
141.412
 21
943.462
  0
LINE
  8
0
 10
141.412
 20
943.462
 11
141.093
 21
942.958
  0
LINE
  8
0
 10
141.093
 20
942.958
 11
140.713
 21
942.498
  0
LINE
  8
0
 10
140.713
 20
942.498
 11
140.278
 21
942.09
  0
LINE
  8
0
 10
140.278
 20
942.09
 11
139.795
 21
941.739
  0
LINE
  8
0
 10
139.795
 20
941.739
 11
139.272
 21
941.452
  0
LINE
  8
0
 10
139.272
 20
941.452
 11
138.718
 21
941.232
  0
LINE
  8
0
 10
138.718
 20
941.232
 11
138.14
 21
941.084
  0
LINE
  8
0
 10
138.14
 20
941.084
 11
137.548
 21
941.009
  0
LINE
  8
0
 10
137.548
 20
941.009
 11
-137.548
 21
941.009
  0
LINE
  8
0
 10
138.437
 20
796.589
 11
139.045
 21
796.745
  0
LINE
  8
0
 10
139.045
 20
796.745
 11
139.629
 21
796.976
  0
LINE
  8
0
 10
139.629
 20
796.976
 11
140.179
 21
797.278
  0
LINE
  8
0
 10
140.179
 20
797.278
 11
140.687
 21
797.647
  0
LINE
  8
0
 10
140.687
 20
797.647
 11
141.145
 21
798.077
  0
LINE
  8
0
 10
141.145
 20
798.077
 11
141.545
 21
798.561
  0
LINE
  8
0
 10
141.545
 20
798.561
 11
141.882
 21
799.091
  0
LINE
  8
0
 10
141.882
 20
799.091
 11
142.149
 21
799.659
  0
LINE
  8
0
 10
142.149
 20
799.659
 11
142.343
 21
800.257
  0
LINE
  8
0
 10
142.343
 20
800.257
 11
142.461
 21
800.873
  0
LINE
  8
0
 10
142.461
 20
800.873
 11
142.5
 21
801.5
  0
LINE
  8
0
 10
142.5
 20
801.5
 11
142.5
 21
926.5
  0
LINE
  8
0
 10
142.5
 20
926.5
 11
142.461
 21
927.127
  0
LINE
  8
0
 10
142.461
 20
927.127
 11
142.343
 21
927.743
  0
LINE
  8
0
 10
142.343
 20
927.743
 11
142.149
 21
928.341
  0
LINE
  8
0
 10
142.149
 20
928.341
 11
141.882
 21
928.909
  0
LINE
  8
0
 10
141.882
 20
928.909
 11
141.545
 21
929.439
  0
LINE
  8
0
 10
141.545
 20
929.439
 11
141.145
 21
929.923
  0
LINE
  8
0
 10
141.145
 20
929.923
 11
140.687
 21
930.353
  0
LINE
  8
0
 10
140.687
 20
930.353
 11
140.179
 21
930.722
  0
LINE
  8
0
 10
140.179
 20
930.722
 11
139.629
 21
931.024
  0
LINE
  8
0
 10
139.629
 20
931.024
 11
139.045
 21
931.255
  0
LINE
  8
0
 10
139.045
 20
931.255
 11
138.437
 21
931.411
  0
LINE
  8
0
 10
138.437
 20
931.411
 11
137.814
 21
931.49
  0
LINE
  8
0
 10
137.814
 20
931.49
 11
-137.814
 21
931.49
  0
LINE
  8
0
 10
-137.814
 20
931.49
 11
-138.437
 21
931.411
  0
LINE
  8
0
 10
-138.437
 20
931.411
 11
-139.045
 21
931.255
  0
LINE
  8
0
 10
-139.045
 20
931.255
 11
-139.629
 21
931.024
  0
LINE
  8
0
 10
-139.629
 20
931.024
 11
-140.179
 21
930.722
  0
LINE
  8
0
 10
-140.179
 20
930.722
 11
-140.687
 21
930.353
  0
LINE
  8
0
 10
-140.687
 20
930.353
 11
-141.145
 21
929.923
  0
LINE
  8
0
 10
-141.145
 20
929.923
 11
-141.545
 21
929.439
  0
LINE
  8
0
 10
-141.545
 20
929.439
 11
-141.882
 21
928.909
  0
LINE
  8
0
 10
-141.882
 20
928.909
 11
-142.149
 21
928.341
  0
LINE
  8
0
 10
-142.149
 20
928.341
 11
-142.343
 21
927.743
  0
LINE
  8
0
 10
-142.343
 20
927.743
 11
-142.461
 21
927.127
  0
LINE
  8
0
 10
-142.461
 20
927.127
 11
-142.5
 21
926.5
  0
LINE
  8
0
 10
-142.5
 20
926.5
 11
-142.5
 21
801.5
  0
LINE
  8
0
 10
-142.5
 20
801.5
 11
-142.461
 21
800.873
  0
LINE
  8
0
 10
-142.461
 20
800.873
 11
-142.343
 21
800.257
  0
LINE
  8
0
 10
-142.343
 20
800.257
 11
-142.149
 21
799.659
  0
LINE
  8
0
 10
-142.149
 20
799.659
 11
-141.882
 21
799.091
  0
LINE
  8
0
 10
-141.882
 20
799.091
 11
-141.545
 21
798.561
  0
LINE
  8
0
 10
-141.545
 20
798.561
 11
-141.145
 21
798.077
  0
LINE
  8
0
 10
-141.145
 20
798.077
 11
-140.687
 21
797.647
  0
LINE
  8
0
 10
-140.687
 20
797.647
 11
-140.179
 21
797.278
  0
LINE
  8
0
 10
-140.179
 20
797.278
 11
-139.629
 21
796.976
  0
LINE
  8
0
 10
-139.629
 20
796.976
 11
-139.045
 21
796.745
  0
LINE
  8
0
 10
-139.045
 20
796.745
 11
-138.437
 21
796.589
  0
LINE
  8
0
 10
-138.437
 20
796.589
 11
-137.814
 21
796.51
  0
LINE
  8
0
 10
-137.814
 20
796.51
 11
137.814
 21
796.51
  0
LINE
  8
0
 10
137.814
 20
796.51
 11
138.437
 21
796.589
  0
LINE
  8
0
 10
-137.548
 20
797.009
 11
-138.14
 21
797.084
  0
LINE
  8
0
 10
-138.14
 20
797.084
 11
-138.718
 21
797.232
  0
LINE
  8
0
 10
-138.718
 20
797.232
 11
-139.272
 21
797.452
  0
LINE
  8
0
 10
-139.272
 20
797.452
 11
-139.795
 21
797.739
  0
LINE
  8
0
 10
-139.795
 20
797.739
 11
-140.278
 21
798.09
  0
LINE
  8
0
 10
-140.278
 20
798.09
 11
-140.713
 21
798.498
  0
LINE
  8
0
 10
-140.713
 20
798.498
 11
-141.093
 21
798.958
  0
LINE
  8
0
 10
-141.093
 20
798.958
 11
-141.412
 21
799.462
  0
LINE
  8
0
 10
-141.412
 20
799.462
 11
-141.666
 21
800.001
  0
LINE
  8
0
 10
-141.666
 20
800.001
 11
-141.851
 21
800.569
  0
LINE
  8
0
 10
-141.851
 20
800.569
 11
-141.963
 21
801.155
  0
LINE
  8
0
 10
-141.963
 20
801.155
 11
-142
 21
801.75
  0
LINE
  8
0
 10
-142
 20
801.75
 11
-142
 21
926.25
  0
LINE
  8
0
 10
-142
 20
926.25
 11
-141.963
 21
926.845
  0
LINE
  8
0
 10
-141.963
 20
926.845
 11
-141.851
 21
927.431
  0
LINE
  8
0
 10
-141.851
 20
927.431
 11
-141.666
 21
927.999
  0
LINE
  8
0
 10
-141.666
 20
927.999
 11
-141.412
 21
928.538
  0
LINE
  8
0
 10
-141.412
 20
928.538
 11
-141.093
 21
929.042
  0
LINE
  8
0
 10
-141.093
 20
929.042
 11
-140.713
 21
929.502
  0
LINE
  8
0
 10
-140.713
 20
929.502
 11
-140.278
 21
929.91
  0
LINE
  8
0
 10
-140.278
 20
929.91
 11
-139.795
 21
930.261
  0
LINE
  8
0
 10
-139.795
 20
930.261
 11
-139.272
 21
930.548
  0
LINE
  8
0
 10
-139.272
 20
930.548
 11
-138.718
 21
930.768
  0
LINE
  8
0
 10
-138.718
 20
930.768
 11
-138.14
 21
930.916
  0
LINE
  8
0
 10
-138.14
 20
930.916
 11
-137.548
 21
930.991
  0
LINE
  8
0
 10
-137.548
 20
930.991
 11
137.548
 21
930.991
  0
LINE
  8
0
 10
137.548
 20
930.991
 11
138.14
 21
930.916
  0
LINE
  8
0
 10
138.14
 20
930.916
 11
138.718
 21
930.768
  0
LINE
  8
0
 10
138.718
 20
930.768
 11
139.272
 21
930.548
  0
LINE
  8
0
 10
139.272
 20
930.548
 11
139.795
 21
930.261
  0
LINE
  8
0
 10
139.795
 20
930.261
 11
140.278
 21
929.91
  0
LINE
  8
0
 10
140.278
 20
929.91
 11
140.713
 21
929.502
  0
LINE
  8
0
 10
140.713
 20
929.502
 11
141.093
 21
929.042
  0
LINE
  8
0
 10
141.093
 20
929.042
 11
141.412
 21
928.538
  0
LINE
  8
0
 10
141.412
 20
928.538
 11
141.666
 21
927.999
  0
LINE
  8
0
 10
141.666
 20
927.999
 11
141.851
 21
927.431
  0
LINE
  8
0
 10
141.851
 20
927.431
 11
141.963
 21
926.845
  0
LINE
  8
0
 10
141.963
 20
926.845
 11
142
 21
926.25
  0
LINE
  8
0
 10
142
 20
926.25
 11
142
 21
801.75
  0
LINE
  8
0
 10
142
 20
801.75
 11
141.963
 21
801.155
  0
LINE
  8
0
 10
141.963
 20
801.155
 11
141.851
 21
800.569
  0
LINE
  8
0
 10
141.851
 20
800.569
 11
141.666
 21
800.001
  0
LINE
  8
0
 10
141.666
 20
800.001
 11
141.412
 21
799.462
  0
LINE
  8
0
 10
141.412
 20
799.462
 11
141.093
 21
798.958
  0
LINE
  8
0
 10
141.093
 20
798.958
 11
140.713
 21
798.498
  0
LINE
  8
0
 10
140.713
 20
798.498
 11
140.278
 21
798.09
  0
LINE
  8
0
 10
140.278
 20
798.09
 11
139.795
 21
797.739
  0
LINE
  8
0
 10
139.795
 20
797.739
 11
139.272
 21
797.452
  0
LINE
  8
0
 10
139.272
 20
797.452
 11
138.718
 21
797.232
  0
LINE
  8
0
 10
138.718
 20
797.232
 11
138.14
 21
797.084
  0
LINE
  8
0
 10
138.14
 20
797.084
 11
137.548
 21
797.009
  0
LINE
  8
0
 10
137.548
 20
797.009
 11
-137.548
 21
797.009
  0
LINE
  8
0
 10
138.437
 20
652.589
 11
139.045
 21
652.745
  0
LINE
  8
0
 10
139.045
 20
652.745
 11
139.629
 21
652.976
  0
LINE
  8
0
 10
139.629
 20
652.976
 11
140.179
 21
653.278
  0
LINE
  8
0
 10
140.179
 20
653.278
 11
140.687
 21
653.647
  0
LINE
  8
0
 10
140.687
 20
653.647
 11
141.145
 21
654.077
  0
LINE
  8
0
 10
141.145
 20
654.077
 11
141.545
 21
654.561
  0
LINE
  8
0
 10
141.545
 20
654.561
 11
141.882
 21
655.091
  0
LINE
  8
0
 10
141.882
 20
655.091
 11
142.149
 21
655.659
  0
LINE
  8
0
 10
142.149
 20
655.659
 11
142.343
 21
656.257
  0
LINE
  8
0
 10
142.343
 20
656.257
 11
142.461
 21
656.873
  0
LINE
  8
0
 10
142.461
 20
656.873
 11
142.5
 21
657.5
  0
LINE
  8
0
 10
142.5
 20
657.5
 11
142.5
 21
782.5
  0
LINE
  8
0
 10
142.5
 20
782.5
 11
142.461
 21
783.127
  0
LINE
  8
0
 10
142.461
 20
783.127
 11
142.343
 21
783.743
  0
LINE
  8
0
 10
142.343
 20
783.743
 11
142.149
 21
784.341
  0
LINE
  8
0
 10
142.149
 20
784.341
 11
141.882
 21
784.909
  0
LINE
  8
0
 10
141.882
 20
784.909
 11
141.545
 21
785.439
  0
LINE
  8
0
 10
141.545
 20
785.439
 11
141.145
 21
785.923
  0
LINE
  8
0
 10
141.145
 20
785.923
 11
140.687
 21
786.353
  0
LINE
  8
0
 10
140.687
 20
786.353
 11
140.179
 21
786.722
  0
LINE
  8
0
 10
140.179
 20
786.722
 11
139.629
 21
787.024
  0
LINE
  8
0
 10
139.629
 20
787.024
 11
139.045
 21
787.255
  0
LINE
  8
0
 10
139.045
 20
787.255
 11
138.437
 21
787.411
  0
LINE
  8
0
 10
138.437
 20
787.411
 11
137.814
 21
787.49
  0
LINE
  8
0
 10
137.814
 20
787.49
 11
-137.814
 21
787.49
  0
LINE
  8
0
 10
-137.814
 20
787.49
 11
-138.437
 21
787.411
  0
LINE
  8
0
 10
-138.437
 20
787.411
 11
-139.045
 21
787.255
  0
LINE
  8
0
 10
-139.045
 20
787.255
 11
-139.629
 21
787.024
  0
LINE
  8
0
 10
-139.629
 20
787.024
 11
-140.179
 21
786.722
  0
LINE
  8
0
 10
-140.179
 20
786.722
 11
-140.687
 21
786.353
  0
LINE
  8
0
 10
-140.687
 20
786.353
 11
-141.145
 21
785.923
  0
LINE
  8
0
 10
-141.145
 20
785.923
 11
-141.545
 21
785.439
  0
LINE
  8
0
 10
-141.545
 20
785.439
 11
-141.882
 21
784.909
  0
LINE
  8
0
 10
-141.882
 20
784.909
 11
-142.149
 21
784.341
  0
LINE
  8
0
 10
-142.149
 20
784.341
 11
-142.343
 21
783.743
  0
LINE
  8
0
 10
-142.343
 20
783.743
 11
-142.461
 21
783.127
  0
LINE
  8
0
 10
-142.461
 20
783.127
 11
-142.5
 21
782.5
  0
LINE
  8
0
 10
-142.5
 20
782.5
 11
-142.5
 21
657.5
  0
LINE
  8
0
 10
-142.5
 20
657.5
 11
-142.461
 21
656.873
  0
LINE
  8
0
 10
-142.461
 20
656.873
 11
-142.343
 21
656.257
  0
LINE
  8
0
 10
-142.343
 20
656.257
 11
-142.149
 21
655.659
  0
LINE
  8
0
 10
-142.149
 20
655.659
 11
-141.882
 21
655.091
  0
LINE
  8
0
 10
-141.882
 20
655.091
 11
-141.545
 21
654.561
  0
LINE
  8
0
 10
-141.545
 20
654.561
 11
-141.145
 21
654.077
  0
LINE
  8
0
 10
-141.145
 20
654.077
 11
-140.687
 21
653.647
  0
LINE
  8
0
 10
-140.687
 20
653.647
 11
-140.179
 21
653.278
  0
LINE
  8
0
 10
-140.179
 20
653.278
 11
-139.629
 21
652.976
  0
LINE
  8
0
 10
-139.629
 20
652.976
 11
-139.045
 21
652.745
  0
LINE
  8
0
 10
-139.045
 20
652.745
 11
-138.437
 21
652.589
  0
LINE
  8
0
 10
-138.437
 20
652.589
 11
-137.814
 21
652.51
  0
LINE
  8
0
 10
-137.814
 20
652.51
 11
137.814
 21
652.51
  0
LINE
  8
0
 10
137.814
 20
652.51
 11
138.437
 21
652.589
  0
LINE
  8
0
 10
-137.537
 20
653.181
 11
-138.108
 21
653.253
  0
LINE
  8
0
 10
-138.108
 20
653.253
 11
-138.665
 21
653.396
  0
LINE
  8
0
 10
-138.665
 20
653.396
 11
-139.199
 21
653.607
  0
LINE
  8
0
 10
-139.199
 20
653.607
 11
-139.703
 21
653.884
  0
LINE
  8
0
 10
-139.703
 20
653.884
 11
-140.168
 21
654.222
  0
LINE
  8
0
 10
-140.168
 20
654.222
 11
-140.588
 21
654.616
  0
LINE
  8
0
 10
-140.588
 20
654.616
 11
-140.954
 21
655.059
  0
LINE
  8
0
 10
-140.954
 20
655.059
 11
-141.262
 21
655.544
  0
LINE
  8
0
 10
-141.262
 20
655.544
 11
-141.507
 21
656.065
  0
LINE
  8
0
 10
-141.507
 20
656.065
 11
-141.685
 21
656.611
  0
LINE
  8
0
 10
-141.685
 20
656.611
 11
-141.792
 21
657.176
  0
LINE
  8
0
 10
-141.792
 20
657.176
 11
-141.828
 21
657.75
  0
LINE
  8
0
 10
-141.828
 20
657.75
 11
-141.828
 21
782.25
  0
LINE
  8
0
 10
-141.828
 20
782.25
 11
-141.792
 21
782.824
  0
LINE
  8
0
 10
-141.792
 20
782.824
 11
-141.685
 21
783.389
  0
LINE
  8
0
 10
-141.685
 20
783.389
 11
-141.507
 21
783.935
  0
LINE
  8
0
 10
-141.507
 20
783.935
 11
-141.262
 21
784.456
  0
LINE
  8
0
 10
-141.262
 20
784.456
 11
-140.954
 21
784.941
  0
LINE
  8
0
 10
-140.954
 20
784.941
 11
-140.588
 21
785.384
  0
LINE
  8
0
 10
-140.588
 20
785.384
 11
-140.168
 21
785.778
  0
LINE
  8
0
 10
-140.168
 20
785.778
 11
-139.703
 21
786.116
  0
LINE
  8
0
 10
-139.703
 20
786.116
 11
-139.199
 21
786.393
  0
LINE
  8
0
 10
-139.199
 20
786.393
 11
-138.665
 21
786.604
  0
LINE
  8
0
 10
-138.665
 20
786.604
 11
-138.108
 21
786.747
  0
LINE
  8
0
 10
-138.108
 20
786.747
 11
-137.537
 21
786.819
  0
LINE
  8
0
 10
-137.537
 20
786.819
 11
137.537
 21
786.819
  0
LINE
  8
0
 10
137.537
 20
786.819
 11
138.108
 21
786.747
  0
LINE
  8
0
 10
138.108
 20
786.747
 11
138.665
 21
786.604
  0
LINE
  8
0
 10
138.665
 20
786.604
 11
139.199
 21
786.393
  0
LINE
  8
0
 10
139.199
 20
786.393
 11
139.703
 21
786.116
  0
LINE
  8
0
 10
139.703
 20
786.116
 11
140.168
 21
785.778
  0
LINE
  8
0
 10
140.168
 20
785.778
 11
140.588
 21
785.384
  0
LINE
  8
0
 10
140.588
 20
785.384
 11
140.954
 21
784.941
  0
LINE
  8
0
 10
140.954
 20
784.941
 11
141.262
 21
784.456
  0
LINE
  8
0
 10
141.262
 20
784.456
 11
141.507
 21
783.935
  0
LINE
  8
0
 10
141.507
 20
783.935
 11
141.685
 21
783.389
  0
LINE
  8
0
 10
141.685
 20
783.389
 11
141.792
 21
782.824
  0
LINE
  8
0
 10
141.792
 20
782.824
 11
141.828
 21
782.25
  0
LINE
  8
0
 10
141.828
 20
782.25
 11
141.828
 21
657.75
  0
LINE
  8
0
 10
141.828
 20
657.75
 11
141.792
 21
657.176
  0
LINE
  8
0
 10
141.792
 20
657.176
 11
141.685
 21
656.611
  0
LINE
  8
0
 10
141.685
 20
656.611
 11
141.507
 21
656.065
  0
LINE
  8
0
 10
141.507
 20
656.065
 11
141.262
 21
655.544
  0
LINE
  8
0
 10
141.262
 20
655.544
 11
140.954
 21
655.059
  0
LINE
  8
0
 10
140.954
 20
655.059
 11
140.588
 21
654.616
  0
LINE
  8
0
 10
140.588
 20
654.616
 11
140.168
 21
654.222
  0
LINE
  8
0
 10
140.168
 20
654.222
 11
139.703
 21
653.884
  0
LINE
  8
0
 10
139.703
 20
653.884
 11
139.199
 21
653.607
  0
LINE
  8
0
 10
139.199
 20
653.607
 11
138.665
 21
653.396
  0
LINE
  8
0
 10
138.665
 20
653.396
 11
138.108
 21
653.253
  0
LINE
  8
0
 10
138.108
 20
653.253
 11
137.537
 21
653.181
  0
LINE
  8
0
 10
137.537
 20
653.181
 11
-137.537
 21
653.181
  0
LINE
  8
0
 10
138.437
 20
508.589
 11
139.045
 21
508.745
  0
LINE
  8
0
 10
139.045
 20
508.745
 11
139.629
 21
508.976
  0
LINE
  8
0
 10
139.629
 20
508.976
 11
140.179
 21
509.278
  0
LINE
  8
0
 10
140.179
 20
509.278
 11
140.687
 21
509.647
  0
LINE
  8
0
 10
140.687
 20
509.647
 11
141.145
 21
510.077
  0
LINE
  8
0
 10
141.145
 20
510.077
 11
141.545
 21
510.561
  0
LINE
  8
0
 10
141.545
 20
510.561
 11
141.882
 21
511.091
  0
LINE
  8
0
 10
141.882
 20
511.091
 11
142.149
 21
511.659
  0
LINE
  8
0
 10
142.149
 20
511.659
 11
142.343
 21
512.257
  0
LINE
  8
0
 10
142.343
 20
512.257
 11
142.461
 21
512.873
  0
LINE
  8
0
 10
142.461
 20
512.873
 11
142.5
 21
513.5
  0
LINE
  8
0
 10
142.5
 20
513.5
 11
142.5
 21
638.5
  0
LINE
  8
0
 10
142.5
 20
638.5
 11
142.461
 21
639.127
  0
LINE
  8
0
 10
142.461
 20
639.127
 11
142.343
 21
639.743
  0
LINE
  8
0
 10
142.343
 20
639.743
 11
142.149
 21
640.341
  0
LINE
  8
0
 10
142.149
 20
640.341
 11
141.882
 21
640.909
  0
LINE
  8
0
 10
141.882
 20
640.909
 11
141.545
 21
641.439
  0
LINE
  8
0
 10
141.545
 20
641.439
 11
141.145
 21
641.923
  0
LINE
  8
0
 10
141.145
 20
641.923
 11
140.687
 21
642.353
  0
LINE
  8
0
 10
140.687
 20
642.353
 11
140.179
 21
642.722
  0
LINE
  8
0
 10
140.179
 20
642.722
 11
139.629
 21
643.024
  0
LINE
  8
0
 10
139.629
 20
643.024
 11
139.045
 21
643.255
  0
LINE
  8
0
 10
139.045
 20
643.255
 11
138.437
 21
643.411
  0
LINE
  8
0
 10
138.437
 20
643.411
 11
137.814
 21
643.49
  0
LINE
  8
0
 10
137.814
 20
643.49
 11
-137.814
 21
643.49
  0
LINE
  8
0
 10
-137.814
 20
643.49
 11
-138.437
 21
643.411
  0
LINE
  8
0
 10
-138.437
 20
643.411
 11
-139.045
 21
643.255
  0
LINE
  8
0
 10
-139.045
 20
643.255
 11
-139.629
 21
643.024
  0
LINE
  8
0
 10
-139.629
 20
643.024
 11
-140.179
 21
642.722
  0
LINE
  8
0
 10
-140.179
 20
642.722
 11
-140.687
 21
642.353
  0
LINE
  8
0
 10
-140.687
 20
642.353
 11
-141.145
 21
641.923
  0
LINE
  8
0
 10
-141.145
 20
641.923
 11
-141.545
 21
641.439
  0
LINE
  8
0
 10
-141.545
 20
641.439
 11
-141.882
 21
640.909
  0
LINE
  8
0
 10
-141.882
 20
640.909
 11
-142.149
 21
640.341
  0
LINE
  8
0
 10
-142.149
 20
640.341
 11
-142.343
 21
639.743
  0
LINE
  8
0
 10
-142.343
 20
639.743
 11
-142.461
 21
639.127
  0
LINE
  8
0
 10
-142.461
 20
639.127
 11
-142.5
 21
638.5
  0
LINE
  8
0
 10
-142.5
 20
638.5
 11
-142.5
 21
513.5
  0
LINE
  8
0
 10
-142.5
 20
513.5
 11
-142.461
 21
512.873
  0
LINE
  8
0
 10
-142.461
 20
512.873
 11
-142.343
 21
512.257
  0
LINE
  8
0
 10
-142.343
 20
512.257
 11
-142.149
 21
511.659
  0
LINE
  8
0
 10
-142.149
 20
511.659
 11
-141.882
 21
511.091
  0
LINE
  8
0
 10
-141.882
 20
511.091
 11
-141.545
 21
510.561
  0
LINE
  8
0
 10
-141.545
 20
510.561
 11
-141.145
 21
510.077
  0
LINE
  8
0
 10
-141.145
 20
510.077
 11
-140.687
 21
509.647
  0
LINE
  8
0
 10
-140.687
 20
509.647
 11
-140.179
 21
509.278
  0
LINE
  8
0
 10
-140.179
 20
509.278
 11
-139.629
 21
508.976
  0
LINE
  8
0
 10
-139.629
 20
508.976
 11
-139.045
 21
508.745
  0
LINE
  8
0
 10
-139.045
 20
508.745
 11
-138.437
 21
508.589
  0
LINE
  8
0
 10
-138.437
 20
508.589
 11
-137.814
 21
508.51
  0
LINE
  8
0
 10
-137.814
 20
508.51
 11
137.814
 21
508.51
  0
LINE
  8
0
 10
137.814
 20
508.51
 11
138.437
 21
508.589
  0
LINE
  8
0
 10
-137.382
 20
511.645
 11
-137.645
 21
511.678
  0
LINE
  8
0
 10
-137.645
 20
511.678
 11
-137.902
 21
511.744
  0
LINE
  8
0
 10
-137.902
 20
511.744
 11
-138.148
 21
511.841
  0
LINE
  8
0
 10
-138.148
 20
511.841
 11
-138.38
 21
511.969
  0
LINE
  8
0
 10
-138.38
 20
511.969
 11
-138.595
 21
512.125
  0
LINE
  8
0
 10
-138.595
 20
512.125
 11
-138.788
 21
512.306
  0
LINE
  8
0
 10
-138.788
 20
512.306
 11
-138.957
 21
512.51
  0
LINE
  8
0
 10
-138.957
 20
512.51
 11
-139.099
 21
512.734
  0
LINE
  8
0
 10
-139.099
 20
512.734
 11
-139.211
 21
512.973
  0
LINE
  8
0
 10
-139.211
 20
512.973
 11
-139.293
 21
513.225
  0
LINE
  8
0
 10
-139.293
 20
513.225
 11
-139.343
 21
513.486
  0
LINE
  8
0
 10
-139.343
 20
513.486
 11
-139.36
 21
513.75
  0
LINE
  8
0
 10
-139.36
 20
513.75
 11
-139.36
 21
638.25
  0
LINE
  8
0
 10
-139.36
 20
638.25
 11
-139.343
 21
638.514
  0
LINE
  8
0
 10
-139.343
 20
638.514
 11
-139.293
 21
638.775
  0
LINE
  8
0
 10
-139.293
 20
638.775
 11
-139.211
 21
639.027
  0
LINE
  8
0
 10
-139.211
 20
639.027
 11
-139.099
 21
639.266
  0
LINE
  8
0
 10
-139.099
 20
639.266
 11
-138.957
 21
639.49
  0
LINE
  8
0
 10
-138.957
 20
639.49
 11
-138.788
 21
639.694
  0
LINE
  8
0
 10
-138.788
 20
639.694
 11
-138.595
 21
639.875
  0
LINE
  8
0
 10
-138.595
 20
639.875
 11
-138.38
 21
640.031
  0
LINE
  8
0
 10
-138.38
 20
640.031
 11
-138.148
 21
640.159
  0
LINE
  8
0
 10
-138.148
 20
640.159
 11
-137.902
 21
640.256
  0
LINE
  8
0
 10
-137.902
 20
640.256
 11
-137.645
 21
640.322
  0
LINE
  8
0
 10
-137.645
 20
640.322
 11
-137.382
 21
640.355
  0
LINE
  8
0
 10
-137.382
 20
640.355
 11
137.382
 21
640.355
  0
LINE
  8
0
 10
137.382
 20
640.355
 11
137.645
 21
640.322
  0
LINE
  8
0
 10
137.645
 20
640.322
 11
137.902
 21
640.256
  0
LINE
  8
0
 10
137.902
 20
640.256
 11
138.148
 21
640.159
  0
LINE
  8
0
 10
138.148
 20
640.159
 11
138.38
 21
640.031
  0
LINE
  8
0
 10
138.38
 20
640.031
 11
138.595
 21
639.875
  0
LINE
  8
0
 10
138.595
 20
639.875
 11
138.788
 21
639.694
  0
LINE
  8
0
 10
138.788
 20
639.694
 11
138.957
 21
639.49
  0
LINE
  8
0
 10
138.957
 20
639.49
 11
139.099
 21
639.266
  0
LINE
  8
0
 10
139.099
 20
639.266
 11
139.211
 21
639.027
  0
LINE
  8
0
 10
139.211
 20
639.027
 11
139.293
 21
638.775
  0
LINE
  8
0
 10
139.293
 20
638.775
 11
139.343
 21
638.514
  0
LINE
  8
0
 10
139.343
 20
638.514
 11
139.36
 21
638.25
  0
LINE
  8
0
 10
139.36
 20
638.25
 11
139.36
 21
513.75
  0
LINE
  8
0
 10
139.36
 20
513.75
 11
139.343
 21
513.486
  0
LINE
  8
0
 10
139.343
 20
513.486
 11
139.293
 21
513.225
  0
LINE
  8
0
 10
139.293
 20
513.225
 11
139.211
 21
512.973
  0
LINE
  8
0
 10
139.211
 20
512.973
 11
139.099
 21
512.734
  0
LINE
  8
0
 10
139.099
 20
512.734
 11
138.957
 21
512.51
  0
LINE
  8
0
 10
138.957
 20
512.51
 11
138.788
 21
512.306
  0
LINE
  8
0
 10
138.788
 20
512.306
 11
138.595
 21
512.125
  0
LINE
  8
0
 10
138.595
 20
512.125
 11
138.38
 21
511.969
  0
LINE
  8
0
 10
138.38
 20
511.969
 11
138.148
 21
511.841
  0
LINE
  8
0
 10
138.148
 20
511.841
 11
137.902
 21
511.744
  0
LINE
  8
0
 10
137.902
 20
511.744
 11
137.645
 21
511.678
  0
LINE
  8
0
 10
137.645
 20
511.678
 11
137.382
 21
511.645
  0
LINE
  8
0
 10
137.382
 20
511.645
 11
-137.382
 21
511.645
  0
ENDSEC
  0
SECTION
  2
OBJECTS
  0
DICTIONARY
  0
ENDSEC
  0
EOF
