<?xml version="1.0" standalone="no"?>
<!DOCTYPE svg PUBLIC "-//W3C//DTD SVG 1.1//EN" "http://www.w3.org/Graphics/SVG/1.1/DTD/svg11.dtd">
<svg width="270mm" height="468mm" viewBox="-135 -711 270 468" xmlns="http://www.w3.org/2000/svg" version="1.1">
<title>OpenSCAD Model</title>
<path d="
M 130.937,-561.089 L 131.545,-561.245 L 132.129,-561.476 L 132.679,-561.778 L 133.187,-562.147 L 133.645,-562.577
 L 134.045,-563.061 L 134.382,-563.591 L 134.649,-564.159 L 134.843,-564.757 L 134.961,-565.373 L 135,-566
 L 135,-706 L 134.961,-706.627 L 134.843,-707.243 L 134.649,-707.841 L 134.382,-708.409 L 134.045,-708.939
 L 133.645,-709.423 L 133.187,-709.853 L 132.679,-710.222 L 132.129,-710.524 L 131.545,-710.755 L 130.937,-710.911
 L 130.314,-710.99 L -130.314,-710.99 L -130.937,-710.911 L -131.545,-710.755 L -132.129,-710.524 L -132.679,-710.222
 L -133.187,-709.853 L -133.645,-709.423 L -134.045,-708.939 L -134.382,-708.409 L -134.649,-707.841 L -134.843,-707.243
 L -134.961,-706.627 L -135,-706 L -135,-566 L -134.961,-565.373 L -134.843,-564.757 L -134.649,-564.159
 L -134.382,-563.591 L -134.045,-563.061 L -133.645,-562.577 L -133.187,-562.147 L -132.679,-561.778 L -132.129,-561.476
 L -131.545,-561.245 L -130.937,-561.089 L -130.314,-561.01 L 130.314,-561.01 z
M -130.048,-561.509 L -130.64,-561.584 L -131.218,-561.732 L -131.772,-561.952 L -132.295,-562.239 L -132.778,-562.59
 L -133.213,-562.998 L -133.593,-563.458 L -133.912,-563.962 L -134.166,-564.501 L -134.351,-565.069 L -134.463,-565.655
 L -134.5,-566.25 L -134.5,-705.75 L -134.463,-706.345 L -134.351,-706.931 L -134.166,-707.499 L -133.912,-708.038
 L -133.593,-708.542 L -133.213,-709.002 L -132.778,-709.41 L -132.295,-709.761 L -131.772,-710.048 L -131.218,-710.268
 L -130.64,-710.416 L -130.048,-710.491 L 130.048,-710.491 L 130.64,-710.416 L 131.218,-710.268 L 131.772,-710.048
 L 132.295,-709.761 L 132.778,-709.41 L 133.213,-709.002 L 133.593,-708.542 L 133.912,-708.038 L 134.166,-707.499
 L 134.351,-706.931 L 134.463,-706.345 L 134.5,-705.75 L 134.5,-566.25 L 134.463,-565.655 L 134.351,-565.069
 L 134.166,-564.501 L 133.912,-563.962 L 133.593,-563.458 L 133.213,-562.998 L 132.778,-562.59 L 132.295,-562.239
 L 131.772,-561.952 L 131.218,-561.732 L 130.64,-561.584 L 130.048,-561.509 z
M 130.937,-402.089 L 131.545,-402.245 L 132.129,-402.476 L 132.679,-402.778 L 133.187,-403.147 L 133.645,-403.577
 L 134.045,-404.061 L 134.382,-404.591 L 134.649,-405.159 L 134.843,-405.757 L 134.961,-406.373 L 135,-407
 L 135,-547 L 134.961,-547.627 L 134.843,-548.243 L 134.649,-548.841 L 134.382,-549.409 L 134.045,-549.939
 L 133.645,-550.423 L 133.187,-550.853 L 132.679,-551.222 L 132.129,-551.524 L 131.545,-551.755 L 130.937,-551.911
 L 130.314,-551.99 L -130.314,-551.99 L -130.937,-551.911 L -131.545,-551.755 L -132.129,-551.524 L -132.679,-551.222
 L -133.187,-550.853 L -133.645,-550.423 L -134.045,-549.939 L -134.382,-549.409 L -134.649,-548.841 L -134.843,-548.243
 L -134.961,-547.627 L -135,-547 L -135,-407 L -134.961,-406.373 L -134.843,-405.757 L -134.649,-405.159
 L -134.382,-404.591 L -134.045,-404.061 L -133.645,-403.577 L -133.187,-403.147 L -132.679,-402.778 L -132.129,-402.476
 L -131.545,-402.245 L -130.937,-402.089 L -130.314,-402.01 L 130.314,-402.01 z
M -129.993,-403.388 L -130.475,-403.449 L -130.946,-403.57 L -131.398,-403.749 L -131.823,-403.983 L -132.216,-404.269
 L -132.571,-404.601 L -132.88,-404.976 L -133.141,-405.386 L -133.348,-405.826 L -133.498,-406.288 L -133.589,-406.765
 L -133.619,-407.25 L -133.619,-546.75 L -133.589,-547.235 L -133.498,-547.712 L -133.348,-548.174 L -133.141,-548.614
 L -132.88,-549.024 L -132.571,-549.399 L -132.216,-549.731 L -131.823,-550.017 L -131.398,-550.251 L -130.946,-550.43
 L -130.475,-550.551 L -129.993,-550.612 L 129.993,-550.612 L 130.475,-550.551 L 130.946,-550.43 L 131.398,-550.251
 L 131.823,-550.017 L 132.216,-549.731 L 132.571,-549.399 L 132.88,-549.024 L 133.141,-548.614 L 133.348,-548.174
 L 133.498,-547.712 L 133.589,-547.235 L 133.619,-546.75 L 133.619,-407.25 L 133.589,-406.765 L 133.498,-406.288
 L 133.348,-405.826 L 133.141,-405.386 L 132.88,-404.976 L 132.571,-404.601 L 132.216,-404.269 L 131.823,-403.983
 L 131.398,-403.749 L 130.946,-403.57 L 130.475,-403.449 L 129.993,-403.388 z
M 130.937,-243.089 L 131.545,-243.245 L 132.129,-243.476 L 132.679,-243.778 L 133.187,-244.147 L 133.645,-244.577
 L 134.045,-245.061 L 134.382,-245.591 L 134.649,-246.159 L 134.843,-246.757 L 134.961,-247.373 L 135,-248
 L 135,-388 L 134.961,-388.627 L 134.843,-389.243 L 134.649,-389.841 L 134.382,-390.409 L 134.045,-390.939
 L 133.645,-391.423 L 133.187,-391.853 L 132.679,-392.222 L 132.129,-392.524 L 131.545,-392.755 L 130.937,-392.911
 L 130.314,-392.99 L -130.314,-392.99 L -130.937,-392.911 L -131.545,-392.755 L -132.129,-392.524 L -132.679,-392.222
 L -133.187,-391.853 L -133.645,-391.423 L -134.045,-390.939 L -134.382,-390.409 L -134.649,-389.841 L -134.843,-389.243
 L -134.961,-388.627 L -135,-388 L -135,-248 L -134.961,-247.373 L -134.843,-246.757 L -134.649,-246.159
 L -134.382,-245.591 L -134.045,-245.061 L -133.645,-244.577 L -133.187,-244.147 L -132.679,-243.778 L -132.129,-243.476
 L -131.545,-243.245 L -130.937,-243.089 L -130.314,-243.01 L 130.314,-243.01 z
M -127.613,-383.704 L -127.837,-383.732 L -128.056,-383.788 L -128.266,-383.871 L -128.464,-383.98 L -128.647,-384.113
 L -128.812,-384.268 L -128.956,-384.442 L -129.077,-384.633 L -129.174,-384.837 L -129.243,-385.052 L -129.286,-385.274
 L -129.3,-385.5 L -129.286,-385.726 L -129.243,-385.948 L -129.174,-386.163 L -129.077,-386.367 L -128.956,-386.558
 L -128.812,-386.732 L -128.647,-386.887 L -128.464,-387.02 L -128.266,-387.129 L -128.056,-387.212 L -127.837,-387.268
 L -127.613,-387.296 L -127.387,-387.296 L -127.163,-387.268 L -126.944,-387.212 L -126.734,-387.129 L -126.536,-387.02
 L -126.353,-386.887 L -126.188,-386.732 L -126.044,-386.558 L -125.923,-386.367 L -125.826,-386.163 L -125.757,-385.948
 L -125.714,-385.726 L -125.7,-385.5 L -125.714,-385.274 L -125.757,-385.052 L -125.826,-384.837 L -125.923,-384.633
 L -126.044,-384.442 L -126.188,-384.268 L -126.353,-384.113 L -126.536,-383.98 L -126.734,-383.871 L -126.944,-383.788
 L -127.163,-383.732 L -127.387,-383.704 z
M 127.387,-383.704 L 127.163,-383.732 L 126.944,-383.788 L 126.734,-383.871 L 126.536,-383.98 L 126.353,-384.113
 L 126.188,-384.268 L 126.044,-384.442 L 125.923,-384.633 L 125.826,-384.837 L 125.757,-385.052 L 125.714,-385.274
 L 125.7,-385.5 L 125.714,-385.726 L 125.757,-385.948 L 125.826,-386.163 L 125.923,-386.367 L 126.044,-386.558
 L 126.188,-386.732 L 126.353,-386.887 L 126.536,-387.02 L 126.734,-387.129 L 126.944,-387.212 L 127.163,-387.268
 L 127.387,-387.296 L 127.613,-387.296 L 127.837,-387.268 L 128.056,-387.212 L 128.266,-387.129 L 128.464,-387.02
 L 128.647,-386.887 L 128.812,-386.732 L 128.956,-386.558 L 129.077,-386.367 L 129.174,-386.163 L 129.243,-385.948
 L 129.286,-385.726 L 129.3,-385.5 L 129.286,-385.274 L 129.243,-385.052 L 129.174,-384.837 L 129.077,-384.633
 L 128.956,-384.442 L 128.812,-384.268 L 128.647,-384.113 L 128.464,-383.98 L 128.266,-383.871 L 128.056,-383.788
 L 127.837,-383.732 L 127.613,-383.704 z
M -127.613,-248.704 L -127.837,-248.732 L -128.056,-248.788 L -128.266,-248.871 L -128.464,-248.98 L -128.647,-249.113
 L -128.812,-249.268 L -128.956,-249.442 L -129.077,-249.633 L -129.174,-249.837 L -129.243,-250.052 L -129.286,-250.274
 L -129.3,-250.5 L -129.286,-250.726 L -129.243,-250.948 L -129.174,-251.163 L -129.077,-251.367 L -128.956,-251.558
 L -128.812,-251.732 L -128.647,-251.887 L -128.464,-252.02 L -128.266,-252.129 L -128.056,-252.212 L -127.837,-252.268
 L -127.613,-252.296 L -127.387,-252.296 L -127.163,-252.268 L -126.944,-252.212 L -126.734,-252.129 L -126.536,-252.02
 L -126.353,-251.887 L -126.188,-251.732 L -126.044,-251.558 L -125.923,-251.367 L -125.826,-251.163 L -125.757,-250.948
 L -125.714,-250.726 L -125.7,-250.5 L -125.714,-250.274 L -125.757,-250.052 L -125.826,-249.837 L -125.923,-249.633
 L -126.044,-249.442 L -126.188,-249.268 L -126.353,-249.113 L -126.536,-248.98 L -126.734,-248.871 L -126.944,-248.788
 L -127.163,-248.732 L -127.387,-248.704 z
M 127.387,-248.704 L 127.163,-248.732 L 126.944,-248.788 L 126.734,-248.871 L 126.536,-248.98 L 126.353,-249.113
 L 126.188,-249.268 L 126.044,-249.442 L 125.923,-249.633 L 125.826,-249.837 L 125.757,-250.052 L 125.714,-250.274
 L 125.7,-250.5 L 125.714,-250.726 L 125.757,-250.948 L 125.826,-251.163 L 125.923,-251.367 L 126.044,-251.558
 L 126.188,-251.732 L 126.353,-251.887 L 126.536,-252.02 L 126.734,-252.129 L 126.944,-252.212 L 127.163,-252.268
 L 127.387,-252.296 L 127.613,-252.296 L 127.837,-252.268 L 128.056,-252.212 L 128.266,-252.129 L 128.464,-252.02
 L 128.647,-251.887 L 128.812,-251.732 L 128.956,-251.558 L 129.077,-251.367 L 129.174,-251.163 L 129.243,-250.948
 L 129.286,-250.726 L 129.3,-250.5 L 129.286,-250.274 L 129.243,-250.052 L 129.174,-249.837 L 129.077,-249.633
 L 128.956,-249.442 L 128.812,-249.268 L 128.647,-249.113 L 128.464,-248.98 L 128.266,-248.871 L 128.056,-248.788
 L 127.837,-248.732 L 127.613,-248.704 z
" stroke="black" fill="lightgray" stroke-width="0.5"/>
</svg>
