<?xml version="1.0" standalone="no"?>
<!DOCTYPE svg PUBLIC "-//W3C//DTD SVG 1.1//EN" "http://www.w3.org/Graphics/SVG/1.1/DTD/svg11.dtd">
<svg width="240mm" height="244mm" viewBox="-120 -374 240 244" xmlns="http://www.w3.org/2000/svg" version="1.1">
<title>OpenSCAD Model</title>
<path d="
M 115.937,-298.589 L 116.545,-298.745 L 117.129,-298.976 L 117.679,-299.278 L 118.187,-299.647 L 118.645,-300.077
 L 119.045,-300.561 L 119.382,-301.091 L 119.649,-301.659 L 119.843,-302.257 L 119.961,-302.873 L 120,-303.5
 L 120,-368.5 L 119.961,-369.127 L 119.843,-369.743 L 119.649,-370.341 L 119.382,-370.909 L 119.045,-371.439
 L 118.645,-371.923 L 118.187,-372.353 L 117.679,-372.722 L 117.129,-373.024 L 116.545,-373.255 L 115.937,-373.411
 L 115.314,-373.49 L -115.314,-373.49 L -115.937,-373.411 L -116.545,-373.255 L -117.129,-373.024 L -117.679,-372.722
 L -118.187,-372.353 L -118.645,-371.923 L -119.045,-371.439 L -119.382,-370.909 L -119.649,-370.341 L -119.843,-369.743
 L -119.961,-369.127 L -120,-368.5 L -120,-303.5 L -119.961,-302.873 L -119.843,-302.257 L -119.649,-301.659
 L -119.382,-301.091 L -119.045,-300.561 L -118.645,-300.077 L -118.187,-299.647 L -117.679,-299.278 L -117.129,-298.976
 L -116.545,-298.745 L -115.937,-298.589 L -115.314,-298.51 L 115.314,-298.51 z
M -115.048,-299.009 L -115.64,-299.084 L -116.218,-299.232 L -116.772,-299.452 L -117.295,-299.739 L -117.778,-300.09
 L -118.213,-300.498 L -118.593,-300.958 L -118.912,-301.462 L -119.166,-302.001 L -119.351,-302.569 L -119.463,-303.155
 L -119.5,-303.75 L -119.5,-368.25 L -119.463,-368.845 L -119.351,-369.431 L -119.166,-369.999 L -118.912,-370.538
 L -118.593,-371.042 L -118.213,-371.502 L -117.778,-371.91 L -117.295,-372.261 L -116.772,-372.548 L -116.218,-372.768
 L -115.64,-372.916 L -115.048,-372.991 L 115.048,-372.991 L 115.64,-372.916 L 116.218,-372.768 L 116.772,-372.548
 L 117.295,-372.261 L 117.778,-371.91 L 118.213,-371.502 L 118.593,-371.042 L 118.912,-370.538 L 119.166,-369.999
 L 119.351,-369.431 L 119.463,-368.845 L 119.5,-368.25 L 119.5,-303.75 L 119.463,-303.155 L 119.351,-302.569
 L 119.166,-302.001 L 118.912,-301.462 L 118.593,-300.958 L 118.213,-300.498 L 117.778,-300.09 L 117.295,-299.739
 L 116.772,-299.452 L 116.218,-299.232 L 115.64,-299.084 L 115.048,-299.009 z
M 115.937,-214.589 L 116.545,-214.745 L 117.129,-214.976 L 117.679,-215.278 L 118.187,-215.647 L 118.645,-216.077
 L 119.045,-216.561 L 119.382,-217.091 L 119.649,-217.659 L 119.843,-218.257 L 119.961,-218.873 L 120,-219.5
 L 120,-284.5 L 119.961,-285.127 L 119.843,-285.743 L 119.649,-286.341 L 119.382,-286.909 L 119.045,-287.439
 L 118.645,-287.923 L 118.187,-288.353 L 117.679,-288.722 L 117.129,-289.024 L 116.545,-289.255 L 115.937,-289.411
 L 115.314,-289.49 L -115.314,-289.49 L -115.937,-289.411 L -116.545,-289.255 L -117.129,-289.024 L -117.679,-288.722
 L -118.187,-288.353 L -118.645,-287.923 L -119.045,-287.439 L -119.382,-286.909 L -119.649,-286.341 L -119.843,-285.743
 L -119.961,-285.127 L -120,-284.5 L -120,-219.5 L -119.961,-218.873 L -119.843,-218.257 L -119.649,-217.659
 L -119.382,-217.091 L -119.045,-216.561 L -118.645,-216.077 L -118.187,-215.647 L -117.679,-215.278 L -117.129,-214.976
 L -116.545,-214.745 L -115.937,-214.589 L -115.314,-214.51 L 115.314,-214.51 z
M -114.993,-215.888 L -115.475,-215.949 L -115.946,-216.07 L -116.398,-216.249 L -116.823,-216.483 L -117.216,-216.769
 L -117.571,-217.101 L -117.88,-217.476 L -118.141,-217.886 L -118.348,-218.326 L -118.498,-218.788 L -118.589,-219.265
 L -118.619,-219.75 L -118.619,-284.25 L -118.589,-284.735 L -118.498,-285.212 L -118.348,-285.674 L -118.141,-286.114
 L -117.88,-286.524 L -117.571,-286.899 L -117.216,-287.231 L -116.823,-287.517 L -116.398,-287.751 L -115.946,-287.93
 L -115.475,-288.051 L -114.993,-288.112 L 114.993,-288.112 L 115.475,-288.051 L 115.946,-287.93 L 116.398,-287.751
 L 116.823,-287.517 L 117.216,-287.231 L 117.571,-286.899 L 117.88,-286.524 L 118.141,-286.114 L 118.348,-285.674
 L 118.498,-285.212 L 118.589,-284.735 L 118.619,-284.25 L 118.619,-219.75 L 118.589,-219.265 L 118.498,-218.788
 L 118.348,-218.326 L 118.141,-217.886 L 117.88,-217.476 L 117.571,-217.101 L 117.216,-216.769 L 116.823,-216.483
 L 116.398,-216.249 L 115.946,-216.07 L 115.475,-215.949 L 114.993,-215.888 z
M 115.937,-130.589 L 116.545,-130.745 L 117.129,-130.976 L 117.679,-131.278 L 118.187,-131.647 L 118.645,-132.077
 L 119.045,-132.561 L 119.382,-133.091 L 119.649,-133.659 L 119.843,-134.257 L 119.961,-134.873 L 120,-135.5
 L 120,-200.5 L 119.961,-201.127 L 119.843,-201.743 L 119.649,-202.341 L 119.382,-202.909 L 119.045,-203.439
 L 118.645,-203.923 L 118.187,-204.353 L 117.679,-204.722 L 117.129,-205.024 L 116.545,-205.255 L 115.937,-205.411
 L 115.314,-205.49 L -115.314,-205.49 L -115.937,-205.411 L -116.545,-205.255 L -117.129,-205.024 L -117.679,-204.722
 L -118.187,-204.353 L -118.645,-203.923 L -119.045,-203.439 L -119.382,-202.909 L -119.649,-202.341 L -119.843,-201.743
 L -119.961,-201.127 L -120,-200.5 L -120,-135.5 L -119.961,-134.873 L -119.843,-134.257 L -119.649,-133.659
 L -119.382,-133.091 L -119.045,-132.561 L -118.645,-132.077 L -118.187,-131.647 L -117.679,-131.278 L -117.129,-130.976
 L -116.545,-130.745 L -115.937,-130.589 L -115.314,-130.51 L 115.314,-130.51 z
M -112.613,-196.204 L -112.837,-196.232 L -113.056,-196.288 L -113.266,-196.371 L -113.464,-196.48 L -113.647,-196.613
 L -113.812,-196.768 L -113.956,-196.942 L -114.077,-197.133 L -114.174,-197.337 L -114.243,-197.552 L -114.286,-197.774
 L -114.3,-198 L -114.286,-198.226 L -114.243,-198.448 L -114.174,-198.663 L -114.077,-198.867 L -113.956,-199.058
 L -113.812,-199.232 L -113.647,-199.387 L -113.464,-199.52 L -113.266,-199.629 L -113.056,-199.712 L -112.837,-199.768
 L -112.613,-199.796 L -112.387,-199.796 L -112.163,-199.768 L -111.944,-199.712 L -111.734,-199.629 L -111.536,-199.52
 L -111.353,-199.387 L -111.188,-199.232 L -111.044,-199.058 L -110.923,-198.867 L -110.826,-198.663 L -110.757,-198.448
 L -110.714,-198.226 L -110.7,-198 L -110.714,-197.774 L -110.757,-197.552 L -110.826,-197.337 L -110.923,-197.133
 L -111.044,-196.942 L -111.188,-196.768 L -111.353,-196.613 L -111.536,-196.48 L -111.734,-196.371 L -111.944,-196.288
 L -112.163,-196.232 L -112.387,-196.204 z
M 112.387,-196.204 L 112.163,-196.232 L 111.944,-196.288 L 111.734,-196.371 L 111.536,-196.48 L 111.353,-196.613
 L 111.188,-196.768 L 111.044,-196.942 L 110.923,-197.133 L 110.826,-197.337 L 110.757,-197.552 L 110.714,-197.774
 L 110.7,-198 L 110.714,-198.226 L 110.757,-198.448 L 110.826,-198.663 L 110.923,-198.867 L 111.044,-199.058
 L 111.188,-199.232 L 111.353,-199.387 L 111.536,-199.52 L 111.734,-199.629 L 111.944,-199.712 L 112.163,-199.768
 L 112.387,-199.796 L 112.613,-199.796 L 112.837,-199.768 L 113.056,-199.712 L 113.266,-199.629 L 113.464,-199.52
 L 113.647,-199.387 L 113.812,-199.232 L 113.956,-199.058 L 114.077,-198.867 L 114.174,-198.663 L 114.243,-198.448
 L 114.286,-198.226 L 114.3,-198 L 114.286,-197.774 L 114.243,-197.552 L 114.174,-197.337 L 114.077,-197.133
 L 113.956,-196.942 L 113.812,-196.768 L 113.647,-196.613 L 113.464,-196.48 L 113.266,-196.371 L 113.056,-196.288
 L 112.837,-196.232 L 112.613,-196.204 z
M 112.387,-136.204 L 112.163,-136.232 L 111.944,-136.288 L 111.734,-136.371 L 111.536,-136.48 L 111.353,-136.613
 L 111.188,-136.768 L 111.044,-136.942 L 110.923,-137.133 L 110.826,-137.337 L 110.757,-137.552 L 110.714,-137.774
 L 110.7,-138 L 110.714,-138.226 L 110.757,-138.448 L 110.826,-138.663 L 110.923,-138.867 L 111.044,-139.058
 L 111.188,-139.232 L 111.353,-139.387 L 111.536,-139.52 L 111.734,-139.629 L 111.944,-139.712 L 112.163,-139.768
 L 112.387,-139.796 L 112.613,-139.796 L 112.837,-139.768 L 113.056,-139.712 L 113.266,-139.629 L 113.464,-139.52
 L 113.647,-139.387 L 113.812,-139.232 L 113.956,-139.058 L 114.077,-138.867 L 114.174,-138.663 L 114.243,-138.448
 L 114.286,-138.226 L 114.3,-138 L 114.286,-137.774 L 114.243,-137.552 L 114.174,-137.337 L 114.077,-137.133
 L 113.956,-136.942 L 113.812,-136.768 L 113.647,-136.613 L 113.464,-136.48 L 113.266,-136.371 L 113.056,-136.288
 L 112.837,-136.232 L 112.613,-136.204 z
M -112.613,-136.204 L -112.837,-136.232 L -113.056,-136.288 L -113.266,-136.371 L -113.464,-136.48 L -113.647,-136.613
 L -113.812,-136.768 L -113.956,-136.942 L -114.077,-137.133 L -114.174,-137.337 L -114.243,-137.552 L -114.286,-137.774
 L -114.3,-138 L -114.286,-138.226 L -114.243,-138.448 L -114.174,-138.663 L -114.077,-138.867 L -113.956,-139.058
 L -113.812,-139.232 L -113.647,-139.387 L -113.464,-139.52 L -113.266,-139.629 L -113.056,-139.712 L -112.837,-139.768
 L -112.613,-139.796 L -112.387,-139.796 L -112.163,-139.768 L -111.944,-139.712 L -111.734,-139.629 L -111.536,-139.52
 L -111.353,-139.387 L -111.188,-139.232 L -111.044,-139.058 L -110.923,-138.867 L -110.826,-138.663 L -110.757,-138.448
 L -110.714,-138.226 L -110.7,-138 L -110.714,-137.774 L -110.757,-137.552 L -110.826,-137.337 L -110.923,-137.133
 L -111.044,-136.942 L -111.188,-136.768 L -111.353,-136.613 L -111.536,-136.48 L -111.734,-136.371 L -111.944,-136.288
 L -112.163,-136.232 L -112.387,-136.204 z
" stroke="black" fill="lightgray" stroke-width="0.5"/>
</svg>
