<?xml version="1.0" standalone="no"?>
<!DOCTYPE svg PUBLIC "-//W3C//DTD SVG 1.1//EN" "http://www.w3.org/Graphics/SVG/1.1/DTD/svg11.dtd">
<svg width="300mm" height="309mm" viewBox="-150 -393 300 309" xmlns="http://www.w3.org/2000/svg" version="1.1">
<title>OpenSCAD Model</title>
<path d="
M 145.937,-243.089 L 146.545,-243.245 L 147.129,-243.476 L 147.679,-243.778 L 148.187,-244.147 L 148.645,-244.577
 L 149.045,-245.061 L 149.382,-245.591 L 149.649,-246.159 L 149.843,-246.757 L 149.961,-247.373 L 150,-248
 L 150,-388 L 149.961,-388.627 L 149.843,-389.243 L 149.649,-389.841 L 149.382,-390.409 L 149.045,-390.939
 L 148.645,-391.423 L 148.187,-391.853 L 147.679,-392.222 L 147.129,-392.524 L 146.545,-392.755 L 145.937,-392.911
 L 145.314,-392.99 L -145.314,-392.99 L -145.937,-392.911 L -146.545,-392.755 L -147.129,-392.524 L -147.679,-392.222
 L -148.187,-391.853 L -148.645,-391.423 L -149.045,-390.939 L -149.382,-390.409 L -149.649,-389.841 L -149.843,-389.243
 L -149.961,-388.627 L -150,-388 L -150,-248 L -149.961,-247.373 L -149.843,-246.757 L -149.649,-246.159
 L -149.382,-245.591 L -149.045,-245.061 L -148.645,-244.577 L -148.187,-244.147 L -147.679,-243.778 L -147.129,-243.476
 L -146.545,-243.245 L -145.937,-243.089 L -145.314,-243.01 L 145.314,-243.01 z
M -144.993,-244.388 L -145.475,-244.449 L -145.946,-244.57 L -146.398,-244.749 L -146.823,-244.983 L -147.216,-245.269
 L -147.571,-245.601 L -147.88,-245.976 L -148.141,-246.386 L -148.348,-246.826 L -148.498,-247.288 L -148.589,-247.765
 L -148.619,-248.25 L -148.619,-387.75 L -148.589,-388.235 L -148.498,-388.712 L -148.348,-389.174 L -148.141,-389.614
 L -147.88,-390.024 L -147.571,-390.399 L -147.216,-390.731 L -146.823,-391.017 L -146.398,-391.251 L -145.946,-391.43
 L -145.475,-391.551 L -144.993,-391.612 L 144.993,-391.612 L 145.475,-391.551 L 145.946,-391.43 L 146.398,-391.251
 L 146.823,-391.017 L 147.216,-390.731 L 147.571,-390.399 L 147.88,-390.024 L 148.141,-389.614 L 148.348,-389.174
 L 148.498,-388.712 L 148.589,-388.235 L 148.619,-387.75 L 148.619,-248.25 L 148.589,-247.765 L 148.498,-247.288
 L 148.348,-246.826 L 148.141,-246.386 L 147.88,-245.976 L 147.571,-245.601 L 147.216,-245.269 L 146.823,-244.983
 L 146.398,-244.749 L 145.946,-244.57 L 145.475,-244.449 L 144.993,-244.388 z
M 145.937,-84.0886 L 146.545,-84.2447 L 147.129,-84.4759 L 147.679,-84.7784 L 148.187,-85.1474 L 148.645,-85.5773
 L 149.045,-86.0611 L 149.382,-86.5912 L 149.649,-87.1594 L 149.843,-87.7566 L 149.961,-88.3733 L 150,-89
 L 150,-229 L 149.961,-229.627 L 149.843,-230.243 L 149.649,-230.841 L 149.382,-231.409 L 149.045,-231.939
 L 148.645,-232.423 L 148.187,-232.853 L 147.679,-233.222 L 147.129,-233.524 L 146.545,-233.755 L 145.937,-233.911
 L 145.314,-233.99 L -145.314,-233.99 L -145.937,-233.911 L -146.545,-233.755 L -147.129,-233.524 L -147.679,-233.222
 L -148.187,-232.853 L -148.645,-232.423 L -149.045,-231.939 L -149.382,-231.409 L -149.649,-230.841 L -149.843,-230.243
 L -149.961,-229.627 L -150,-229 L -150,-89 L -149.961,-88.3733 L -149.843,-87.7566 L -149.649,-87.1594
 L -149.382,-86.5912 L -149.045,-86.0611 L -148.645,-85.5773 L -148.187,-85.1474 L -147.679,-84.7784 L -147.129,-84.4759
 L -146.545,-84.2447 L -145.937,-84.0886 L -145.314,-84.0099 L 145.314,-84.0099 z
M 142.387,-224.704 L 142.163,-224.732 L 141.944,-224.788 L 141.734,-224.871 L 141.536,-224.98 L 141.353,-225.113
 L 141.188,-225.268 L 141.044,-225.442 L 140.923,-225.633 L 140.826,-225.837 L 140.757,-226.052 L 140.714,-226.274
 L 140.7,-226.5 L 140.714,-226.726 L 140.757,-226.948 L 140.826,-227.163 L 140.923,-227.367 L 141.044,-227.558
 L 141.188,-227.732 L 141.353,-227.887 L 141.536,-228.02 L 141.734,-228.129 L 141.944,-228.212 L 142.163,-228.268
 L 142.387,-228.296 L 142.613,-228.296 L 142.837,-228.268 L 143.056,-228.212 L 143.266,-228.129 L 143.464,-228.02
 L 143.647,-227.887 L 143.812,-227.732 L 143.956,-227.558 L 144.077,-227.367 L 144.174,-227.163 L 144.243,-226.948
 L 144.286,-226.726 L 144.3,-226.5 L 144.286,-226.274 L 144.243,-226.052 L 144.174,-225.837 L 144.077,-225.633
 L 143.956,-225.442 L 143.812,-225.268 L 143.647,-225.113 L 143.464,-224.98 L 143.266,-224.871 L 143.056,-224.788
 L 142.837,-224.732 L 142.613,-224.704 z
M -142.613,-224.704 L -142.837,-224.732 L -143.056,-224.788 L -143.266,-224.871 L -143.464,-224.98 L -143.647,-225.113
 L -143.812,-225.268 L -143.956,-225.442 L -144.077,-225.633 L -144.174,-225.837 L -144.243,-226.052 L -144.286,-226.274
 L -144.3,-226.5 L -144.286,-226.726 L -144.243,-226.948 L -144.174,-227.163 L -144.077,-227.367 L -143.956,-227.558
 L -143.812,-227.732 L -143.647,-227.887 L -143.464,-228.02 L -143.266,-228.129 L -143.056,-228.212 L -142.837,-228.268
 L -142.613,-228.296 L -142.387,-228.296 L -142.163,-228.268 L -141.944,-228.212 L -141.734,-228.129 L -141.536,-228.02
 L -141.353,-227.887 L -141.188,-227.732 L -141.044,-227.558 L -140.923,-227.367 L -140.826,-227.163 L -140.757,-226.948
 L -140.714,-226.726 L -140.7,-226.5 L -140.714,-226.274 L -140.757,-226.052 L -140.826,-225.837 L -140.923,-225.633
 L -141.044,-225.442 L -141.188,-225.268 L -141.353,-225.113 L -141.536,-224.98 L -141.734,-224.871 L -141.944,-224.788
 L -142.163,-224.732 L -142.387,-224.704 z
M -142.613,-89.7036 L -142.837,-89.7319 L -143.056,-89.7881 L -143.266,-89.8713 L -143.464,-89.9802 L -143.647,-90.1131
 L -143.812,-90.2678 L -143.956,-90.442 L -144.077,-90.6328 L -144.174,-90.8374 L -144.243,-91.0524 L -144.286,-91.2744
 L -144.3,-91.5 L -144.286,-91.7256 L -144.243,-91.9476 L -144.174,-92.1626 L -144.077,-92.3672 L -143.956,-92.558
 L -143.812,-92.7322 L -143.647,-92.8869 L -143.464,-93.0198 L -143.266,-93.1287 L -143.056,-93.2119 L -142.837,-93.2681
 L -142.613,-93.2964 L -142.387,-93.2964 L -142.163,-93.2681 L -141.944,-93.2119 L -141.734,-93.1287 L -141.536,-93.0198
 L -141.353,-92.8869 L -141.188,-92.7322 L -141.044,-92.558 L -140.923,-92.3672 L -140.826,-92.1626 L -140.757,-91.9476
 L -140.714,-91.7256 L -140.7,-91.5 L -140.714,-91.2744 L -140.757,-91.0524 L -140.826,-90.8374 L -140.923,-90.6328
 L -141.044,-90.442 L -141.188,-90.2678 L -141.353,-90.1131 L -141.536,-89.9802 L -141.734,-89.8713 L -141.944,-89.7881
 L -142.163,-89.7319 L -142.387,-89.7036 z
M 142.387,-89.7036 L 142.163,-89.7319 L 141.944,-89.7881 L 141.734,-89.8713 L 141.536,-89.9802 L 141.353,-90.1131
 L 141.188,-90.2678 L 141.044,-90.442 L 140.923,-90.6328 L 140.826,-90.8374 L 140.757,-91.0524 L 140.714,-91.2744
 L 140.7,-91.5 L 140.714,-91.7256 L 140.757,-91.9476 L 140.826,-92.1626 L 140.923,-92.3672 L 141.044,-92.558
 L 141.188,-92.7322 L 141.353,-92.8869 L 141.536,-93.0198 L 141.734,-93.1287 L 141.944,-93.2119 L 142.163,-93.2681
 L 142.387,-93.2964 L 142.613,-93.2964 L 142.837,-93.2681 L 143.056,-93.2119 L 143.266,-93.1287 L 143.464,-93.0198
 L 143.647,-92.8869 L 143.812,-92.7322 L 143.956,-92.558 L 144.077,-92.3672 L 144.174,-92.1626 L 144.243,-91.9476
 L 144.286,-91.7256 L 144.3,-91.5 L 144.286,-91.2744 L 144.243,-91.0524 L 144.174,-90.8374 L 144.077,-90.6328
 L 143.956,-90.442 L 143.812,-90.2678 L 143.647,-90.1131 L 143.464,-89.9802 L 143.266,-89.8713 L 143.056,-89.7881
 L 142.837,-89.7319 L 142.613,-89.7036 z
" stroke="black" fill="lightgray" stroke-width="0.5"/>
</svg>
