  0
SECTION
  2
BLOCKS
  0
ENDSEC
  0
SECTION
  2
ENTITIES
  0
LINE
  8
0
 10
115.937
 20
214.589
 11
116.545
 21
214.745
  0
LINE
  8
0
 10
116.545
 20
214.745
 11
117.129
 21
214.976
  0
LINE
  8
0
 10
117.129
 20
214.976
 11
117.679
 21
215.278
  0
LINE
  8
0
 10
117.679
 20
215.278
 11
118.187
 21
215.647
  0
LINE
  8
0
 10
118.187
 20
215.647
 11
118.645
 21
216.077
  0
LINE
  8
0
 10
118.645
 20
216.077
 11
119.045
 21
216.561
  0
LINE
  8
0
 10
119.045
 20
216.561
 11
119.382
 21
217.091
  0
LINE
  8
0
 10
119.382
 20
217.091
 11
119.649
 21
217.659
  0
LINE
  8
0
 10
119.649
 20
217.659
 11
119.843
 21
218.257
  0
LINE
  8
0
 10
119.843
 20
218.257
 11
119.961
 21
218.873
  0
LINE
  8
0
 10
119.961
 20
218.873
 11
120
 21
219.5
  0
LINE
  8
0
 10
120
 20
219.5
 11
120
 21
284.5
  0
LINE
  8
0
 10
120
 20
284.5
 11
119.961
 21
285.127
  0
LINE
  8
0
 10
119.961
 20
285.127
 11
119.843
 21
285.743
  0
LINE
  8
0
 10
119.843
 20
285.743
 11
119.649
 21
286.341
  0
LINE
  8
0
 10
119.649
 20
286.341
 11
119.382
 21
286.909
  0
LINE
  8
0
 10
119.382
 20
286.909
 11
119.045
 21
287.439
  0
LINE
  8
0
 10
119.045
 20
287.439
 11
118.645
 21
287.923
  0
LINE
  8
0
 10
118.645
 20
287.923
 11
118.187
 21
288.353
  0
LINE
  8
0
 10
118.187
 20
288.353
 11
117.679
 21
288.722
  0
LINE
  8
0
 10
117.679
 20
288.722
 11
117.129
 21
289.024
  0
LINE
  8
0
 10
117.129
 20
289.024
 11
116.545
 21
289.255
  0
LINE
  8
0
 10
116.545
 20
289.255
 11
115.937
 21
289.411
  0
LINE
  8
0
 10
115.937
 20
289.411
 11
115.314
 21
289.49
  0
LINE
  8
0
 10
115.314
 20
289.49
 11
-115.314
 21
289.49
  0
LINE
  8
0
 10
-115.314
 20
289.49
 11
-115.937
 21
289.411
  0
LINE
  8
0
 10
-115.937
 20
289.411
 11
-116.545
 21
289.255
  0
LINE
  8
0
 10
-116.545
 20
289.255
 11
-117.129
 21
289.024
  0
LINE
  8
0
 10
-117.129
 20
289.024
 11
-117.679
 21
288.722
  0
LINE
  8
0
 10
-117.679
 20
288.722
 11
-118.187
 21
288.353
  0
LINE
  8
0
 10
-118.187
 20
288.353
 11
-118.645
 21
287.923
  0
LINE
  8
0
 10
-118.645
 20
287.923
 11
-119.045
 21
287.439
  0
LINE
  8
0
 10
-119.045
 20
287.439
 11
-119.382
 21
286.909
  0
LINE
  8
0
 10
-119.382
 20
286.909
 11
-119.649
 21
286.341
  0
LINE
  8
0
 10
-119.649
 20
286.341
 11
-119.843
 21
285.743
  0
LINE
  8
0
 10
-119.843
 20
285.743
 11
-119.961
 21
285.127
  0
LINE
  8
0
 10
-119.961
 20
285.127
 11
-120
 21
284.5
  0
LINE
  8
0
 10
-120
 20
284.5
 11
-120
 21
219.5
  0
LINE
  8
0
 10
-120
 20
219.5
 11
-119.961
 21
218.873
  0
LINE
  8
0
 10
-119.961
 20
218.873
 11
-119.843
 21
218.257
  0
LINE
  8
0
 10
-119.843
 20
218.257
 11
-119.649
 21
217.659
  0
LINE
  8
0
 10
-119.649
 20
217.659
 11
-119.382
 21
217.091
  0
LINE
  8
0
 10
-119.382
 20
217.091
 11
-119.045
 21
216.561
  0
LINE
  8
0
 10
-119.045
 20
216.561
 11
-118.645
 21
216.077
  0
LINE
  8
0
 10
-118.645
 20
216.077
 11
-118.187
 21
215.647
  0
LINE
  8
0
 10
-118.187
 20
215.647
 11
-117.679
 21
215.278
  0
LINE
  8
0
 10
-117.679
 20
215.278
 11
-117.129
 21
214.976
  0
LINE
  8
0
 10
-117.129
 20
214.976
 11
-116.545
 21
214.745
  0
LINE
  8
0
 10
-116.545
 20
214.745
 11
-115.937
 21
214.589
  0
LINE
  8
0
 10
-115.937
 20
214.589
 11
-115.314
 21
214.51
  0
LINE
  8
0
 10
-115.314
 20
214.51
 11
115.314
 21
214.51
  0
LINE
  8
0
 10
115.314
 20
214.51
 11
115.937
 21
214.589
  0
LINE
  8
0
 10
-115.037
 20
215.181
 11
-115.608
 21
215.253
  0
LINE
  8
0
 10
-115.608
 20
215.253
 11
-116.165
 21
215.396
  0
LINE
  8
0
 10
-116.165
 20
215.396
 11
-116.699
 21
215.607
  0
LINE
  8
0
 10
-116.699
 20
215.607
 11
-117.203
 21
215.884
  0
LINE
  8
0
 10
-117.203
 20
215.884
 11
-117.668
 21
216.222
  0
LINE
  8
0
 10
-117.668
 20
216.222
 11
-118.088
 21
216.616
  0
LINE
  8
0
 10
-118.088
 20
216.616
 11
-118.454
 21
217.059
  0
LINE
  8
0
 10
-118.454
 20
217.059
 11
-118.762
 21
217.544
  0
LINE
  8
0
 10
-118.762
 20
217.544
 11
-119.007
 21
218.065
  0
LINE
  8
0
 10
-119.007
 20
218.065
 11
-119.185
 21
218.611
  0
LINE
  8
0
 10
-119.185
 20
218.611
 11
-119.292
 21
219.176
  0
LINE
  8
0
 10
-119.292
 20
219.176
 11
-119.328
 21
219.75
  0
LINE
  8
0
 10
-119.328
 20
219.75
 11
-119.328
 21
284.25
  0
LINE
  8
0
 10
-119.328
 20
284.25
 11
-119.292
 21
284.824
  0
LINE
  8
0
 10
-119.292
 20
284.824
 11
-119.185
 21
285.389
  0
LINE
  8
0
 10
-119.185
 20
285.389
 11
-119.007
 21
285.935
  0
LINE
  8
0
 10
-119.007
 20
285.935
 11
-118.762
 21
286.456
  0
LINE
  8
0
 10
-118.762
 20
286.456
 11
-118.454
 21
286.941
  0
LINE
  8
0
 10
-118.454
 20
286.941
 11
-118.088
 21
287.384
  0
LINE
  8
0
 10
-118.088
 20
287.384
 11
-117.668
 21
287.778
  0
LINE
  8
0
 10
-117.668
 20
287.778
 11
-117.203
 21
288.116
  0
LINE
  8
0
 10
-117.203
 20
288.116
 11
-116.699
 21
288.393
  0
LINE
  8
0
 10
-116.699
 20
288.393
 11
-116.165
 21
288.604
  0
LINE
  8
0
 10
-116.165
 20
288.604
 11
-115.608
 21
288.747
  0
LINE
  8
0
 10
-115.608
 20
288.747
 11
-115.037
 21
288.819
  0
LINE
  8
0
 10
-115.037
 20
288.819
 11
115.037
 21
288.819
  0
LINE
  8
0
 10
115.037
 20
288.819
 11
115.608
 21
288.747
  0
LINE
  8
0
 10
115.608
 20
288.747
 11
116.165
 21
288.604
  0
LINE
  8
0
 10
116.165
 20
288.604
 11
116.699
 21
288.393
  0
LINE
  8
0
 10
116.699
 20
288.393
 11
117.203
 21
288.116
  0
LINE
  8
0
 10
117.203
 20
288.116
 11
117.668
 21
287.778
  0
LINE
  8
0
 10
117.668
 20
287.778
 11
118.088
 21
287.384
  0
LINE
  8
0
 10
118.088
 20
287.384
 11
118.454
 21
286.941
  0
LINE
  8
0
 10
118.454
 20
286.941
 11
118.762
 21
286.456
  0
LINE
  8
0
 10
118.762
 20
286.456
 11
119.007
 21
285.935
  0
LINE
  8
0
 10
119.007
 20
285.935
 11
119.185
 21
285.389
  0
LINE
  8
0
 10
119.185
 20
285.389
 11
119.292
 21
284.824
  0
LINE
  8
0
 10
119.292
 20
284.824
 11
119.328
 21
284.25
  0
LINE
  8
0
 10
119.328
 20
284.25
 11
119.328
 21
219.75
  0
LINE
  8
0
 10
119.328
 20
219.75
 11
119.292
 21
219.176
  0
LINE
  8
0
 10
119.292
 20
219.176
 11
119.185
 21
218.611
  0
LINE
  8
0
 10
119.185
 20
218.611
 11
119.007
 21
218.065
  0
LINE
  8
0
 10
119.007
 20
218.065
 11
118.762
 21
217.544
  0
LINE
  8
0
 10
118.762
 20
217.544
 11
118.454
 21
217.059
  0
LINE
  8
0
 10
118.454
 20
217.059
 11
118.088
 21
216.616
  0
LINE
  8
0
 10
118.088
 20
216.616
 11
117.668
 21
216.222
  0
LINE
  8
0
 10
117.668
 20
216.222
 11
117.203
 21
215.884
  0
LINE
  8
0
 10
117.203
 20
215.884
 11
116.699
 21
215.607
  0
LINE
  8
0
 10
116.699
 20
215.607
 11
116.165
 21
215.396
  0
LINE
  8
0
 10
116.165
 20
215.396
 11
115.608
 21
215.253
  0
LINE
  8
0
 10
115.608
 20
215.253
 11
115.037
 21
215.181
  0
LINE
  8
0
 10
115.037
 20
215.181
 11
-115.037
 21
215.181
  0
LINE
  8
0
 10
115.937
 20
130.589
 11
116.545
 21
130.745
  0
LINE
  8
0
 10
116.545
 20
130.745
 11
117.129
 21
130.976
  0
LINE
  8
0
 10
117.129
 20
130.976
 11
117.679
 21
131.278
  0
LINE
  8
0
 10
117.679
 20
131.278
 11
118.187
 21
131.647
  0
LINE
  8
0
 10
118.187
 20
131.647
 11
118.645
 21
132.077
  0
LINE
  8
0
 10
118.645
 20
132.077
 11
119.045
 21
132.561
  0
LINE
  8
0
 10
119.045
 20
132.561
 11
119.382
 21
133.091
  0
LINE
  8
0
 10
119.382
 20
133.091
 11
119.649
 21
133.659
  0
LINE
  8
0
 10
119.649
 20
133.659
 11
119.843
 21
134.257
  0
LINE
  8
0
 10
119.843
 20
134.257
 11
119.961
 21
134.873
  0
LINE
  8
0
 10
119.961
 20
134.873
 11
120
 21
135.5
  0
LINE
  8
0
 10
120
 20
135.5
 11
120
 21
200.5
  0
LINE
  8
0
 10
120
 20
200.5
 11
119.961
 21
201.127
  0
LINE
  8
0
 10
119.961
 20
201.127
 11
119.843
 21
201.743
  0
LINE
  8
0
 10
119.843
 20
201.743
 11
119.649
 21
202.341
  0
LINE
  8
0
 10
119.649
 20
202.341
 11
119.382
 21
202.909
  0
LINE
  8
0
 10
119.382
 20
202.909
 11
119.045
 21
203.439
  0
LINE
  8
0
 10
119.045
 20
203.439
 11
118.645
 21
203.923
  0
LINE
  8
0
 10
118.645
 20
203.923
 11
118.187
 21
204.353
  0
LINE
  8
0
 10
118.187
 20
204.353
 11
117.679
 21
204.722
  0
LINE
  8
0
 10
117.679
 20
204.722
 11
117.129
 21
205.024
  0
LINE
  8
0
 10
117.129
 20
205.024
 11
116.545
 21
205.255
  0
LINE
  8
0
 10
116.545
 20
205.255
 11
115.937
 21
205.411
  0
LINE
  8
0
 10
115.937
 20
205.411
 11
115.314
 21
205.49
  0
LINE
  8
0
 10
115.314
 20
205.49
 11
-115.314
 21
205.49
  0
LINE
  8
0
 10
-115.314
 20
205.49
 11
-115.937
 21
205.411
  0
LINE
  8
0
 10
-115.937
 20
205.411
 11
-116.545
 21
205.255
  0
LINE
  8
0
 10
-116.545
 20
205.255
 11
-117.129
 21
205.024
  0
LINE
  8
0
 10
-117.129
 20
205.024
 11
-117.679
 21
204.722
  0
LINE
  8
0
 10
-117.679
 20
204.722
 11
-118.187
 21
204.353
  0
LINE
  8
0
 10
-118.187
 20
204.353
 11
-118.645
 21
203.923
  0
LINE
  8
0
 10
-118.645
 20
203.923
 11
-119.045
 21
203.439
  0
LINE
  8
0
 10
-119.045
 20
203.439
 11
-119.382
 21
202.909
  0
LINE
  8
0
 10
-119.382
 20
202.909
 11
-119.649
 21
202.341
  0
LINE
  8
0
 10
-119.649
 20
202.341
 11
-119.843
 21
201.743
  0
LINE
  8
0
 10
-119.843
 20
201.743
 11
-119.961
 21
201.127
  0
LINE
  8
0
 10
-119.961
 20
201.127
 11
-120
 21
200.5
  0
LINE
  8
0
 10
-120
 20
200.5
 11
-120
 21
135.5
  0
LINE
  8
0
 10
-120
 20
135.5
 11
-119.961
 21
134.873
  0
LINE
  8
0
 10
-119.961
 20
134.873
 11
-119.843
 21
134.257
  0
LINE
  8
0
 10
-119.843
 20
134.257
 11
-119.649
 21
133.659
  0
LINE
  8
0
 10
-119.649
 20
133.659
 11
-119.382
 21
133.091
  0
LINE
  8
0
 10
-119.382
 20
133.091
 11
-119.045
 21
132.561
  0
LINE
  8
0
 10
-119.045
 20
132.561
 11
-118.645
 21
132.077
  0
LINE
  8
0
 10
-118.645
 20
132.077
 11
-118.187
 21
131.647
  0
LINE
  8
0
 10
-118.187
 20
131.647
 11
-117.679
 21
131.278
  0
LINE
  8
0
 10
-117.679
 20
131.278
 11
-117.129
 21
130.976
  0
LINE
  8
0
 10
-117.129
 20
130.976
 11
-116.545
 21
130.745
  0
LINE
  8
0
 10
-116.545
 20
130.745
 11
-115.937
 21
130.589
  0
LINE
  8
0
 10
-115.937
 20
130.589
 11
-115.314
 21
130.51
  0
LINE
  8
0
 10
-115.314
 20
130.51
 11
115.314
 21
130.51
  0
LINE
  8
0
 10
115.314
 20
130.51
 11
115.937
 21
130.589
  0
LINE
  8
0
 10
-114.882
 20
133.645
 11
-115.145
 21
133.678
  0
LINE
  8
0
 10
-115.145
 20
133.678
 11
-115.402
 21
133.744
  0
LINE
  8
0
 10
-115.402
 20
133.744
 11
-115.648
 21
133.841
  0
LINE
  8
0
 10
-115.648
 20
133.841
 11
-115.88
 21
133.969
  0
LINE
  8
0
 10
-115.88
 20
133.969
 11
-116.095
 21
134.125
  0
LINE
  8
0
 10
-116.095
 20
134.125
 11
-116.288
 21
134.306
  0
LINE
  8
0
 10
-116.288
 20
134.306
 11
-116.457
 21
134.51
  0
LINE
  8
0
 10
-116.457
 20
134.51
 11
-116.599
 21
134.734
  0
LINE
  8
0
 10
-116.599
 20
134.734
 11
-116.711
 21
134.973
  0
LINE
  8
0
 10
-116.711
 20
134.973
 11
-116.793
 21
135.225
  0
LINE
  8
0
 10
-116.793
 20
135.225
 11
-116.843
 21
135.486
  0
LINE
  8
0
 10
-116.843
 20
135.486
 11
-116.86
 21
135.75
  0
LINE
  8
0
 10
-116.86
 20
135.75
 11
-116.86
 21
200.25
  0
LINE
  8
0
 10
-116.86
 20
200.25
 11
-116.843
 21
200.514
  0
LINE
  8
0
 10
-116.843
 20
200.514
 11
-116.793
 21
200.775
  0
LINE
  8
0
 10
-116.793
 20
200.775
 11
-116.711
 21
201.027
  0
LINE
  8
0
 10
-116.711
 20
201.027
 11
-116.599
 21
201.266
  0
LINE
  8
0
 10
-116.599
 20
201.266
 11
-116.457
 21
201.49
  0
LINE
  8
0
 10
-116.457
 20
201.49
 11
-116.288
 21
201.694
  0
LINE
  8
0
 10
-116.288
 20
201.694
 11
-116.095
 21
201.875
  0
LINE
  8
0
 10
-116.095
 20
201.875
 11
-115.88
 21
202.031
  0
LINE
  8
0
 10
-115.88
 20
202.031
 11
-115.648
 21
202.159
  0
LINE
  8
0
 10
-115.648
 20
202.159
 11
-115.402
 21
202.256
  0
LINE
  8
0
 10
-115.402
 20
202.256
 11
-115.145
 21
202.322
  0
LINE
  8
0
 10
-115.145
 20
202.322
 11
-114.882
 21
202.355
  0
LINE
  8
0
 10
-114.882
 20
202.355
 11
114.882
 21
202.355
  0
LINE
  8
0
 10
114.882
 20
202.355
 11
115.145
 21
202.322
  0
LINE
  8
0
 10
115.145
 20
202.322
 11
115.402
 21
202.256
  0
LINE
  8
0
 10
115.402
 20
202.256
 11
115.648
 21
202.159
  0
LINE
  8
0
 10
115.648
 20
202.159
 11
115.88
 21
202.031
  0
LINE
  8
0
 10
115.88
 20
202.031
 11
116.095
 21
201.875
  0
LINE
  8
0
 10
116.095
 20
201.875
 11
116.288
 21
201.694
  0
LINE
  8
0
 10
116.288
 20
201.694
 11
116.457
 21
201.49
  0
LINE
  8
0
 10
116.457
 20
201.49
 11
116.599
 21
201.266
  0
LINE
  8
0
 10
116.599
 20
201.266
 11
116.711
 21
201.027
  0
LINE
  8
0
 10
116.711
 20
201.027
 11
116.793
 21
200.775
  0
LINE
  8
0
 10
116.793
 20
200.775
 11
116.843
 21
200.514
  0
LINE
  8
0
 10
116.843
 20
200.514
 11
116.86
 21
200.25
  0
LINE
  8
0
 10
116.86
 20
200.25
 11
116.86
 21
135.75
  0
LINE
  8
0
 10
116.86
 20
135.75
 11
116.843
 21
135.486
  0
LINE
  8
0
 10
116.843
 20
135.486
 11
116.793
 21
135.225
  0
LINE
  8
0
 10
116.793
 20
135.225
 11
116.711
 21
134.973
  0
LINE
  8
0
 10
116.711
 20
134.973
 11
116.599
 21
134.734
  0
LINE
  8
0
 10
116.599
 20
134.734
 11
116.457
 21
134.51
  0
LINE
  8
0
 10
116.457
 20
134.51
 11
116.288
 21
134.306
  0
LINE
  8
0
 10
116.288
 20
134.306
 11
116.095
 21
134.125
  0
LINE
  8
0
 10
116.095
 20
134.125
 11
115.88
 21
133.969
  0
LINE
  8
0
 10
115.88
 20
133.969
 11
115.648
 21
133.841
  0
LINE
  8
0
 10
115.648
 20
133.841
 11
115.402
 21
133.744
  0
LINE
  8
0
 10
115.402
 20
133.744
 11
115.145
 21
133.678
  0
LINE
  8
0
 10
115.145
 20
133.678
 11
114.882
 21
133.645
  0
LINE
  8
0
 10
114.882
 20
133.645
 11
-114.882
 21
133.645
  0
ENDSEC
  0
SECTION
  2
OBJECTS
  0
DICTIONARY
  0
ENDSEC
  0
EOF
