<?xml version="1.0" standalone="no"?>
<!DOCTYPE svg PUBLIC "-//W3C//DTD SVG 1.1//EN" "http://www.w3.org/Graphics/SVG/1.1/DTD/svg11.dtd">
<svg width="270mm" height="648mm" viewBox="-135 -1200 270 648" xmlns="http://www.w3.org/2000/svg" version="1.1">
<title>OpenSCAD Model</title>
<path d="
M 130.937,-990.089 L 131.545,-990.245 L 132.129,-990.476 L 132.679,-990.778 L 133.187,-991.147 L 133.645,-991.577
 L 134.045,-992.061 L 134.382,-992.591 L 134.649,-993.159 L 134.843,-993.757 L 134.961,-994.373 L 135,-995
 L 135,-1195 L 134.961,-1195.63 L 134.843,-1196.24 L 134.649,-1196.84 L 134.382,-1197.41 L 134.045,-1197.94
 L 133.645,-1198.42 L 133.187,-1198.85 L 132.679,-1199.22 L 132.129,-1199.52 L 131.545,-1199.76 L 130.937,-1199.91
 L 130.314,-1199.99 L -130.314,-1199.99 L -130.937,-1199.91 L -131.545,-1199.76 L -132.129,-1199.52 L -132.679,-1199.22
 L -133.187,-1198.85 L -133.645,-1198.42 L -134.045,-1197.94 L -134.382,-1197.41 L -134.649,-1196.84 L -134.843,-1196.24
 L -134.961,-1195.63 L -135,-1195 L -135,-995 L -134.961,-994.373 L -134.843,-993.757 L -134.649,-993.159
 L -134.382,-992.591 L -134.045,-992.061 L -133.645,-991.577 L -133.187,-991.147 L -132.679,-990.778 L -132.129,-990.476
 L -131.545,-990.245 L -130.937,-990.089 L -130.314,-990.01 L 130.314,-990.01 z
M -130.048,-990.509 L -130.64,-990.584 L -131.218,-990.732 L -131.772,-990.952 L -132.295,-991.239 L -132.778,-991.59
 L -133.213,-991.998 L -133.593,-992.458 L -133.912,-992.962 L -134.166,-993.501 L -134.351,-994.069 L -134.463,-994.655
 L -134.5,-995.25 L -134.5,-1194.75 L -134.463,-1195.35 L -134.351,-1195.93 L -134.166,-1196.5 L -133.912,-1197.04
 L -133.593,-1197.54 L -133.213,-1198 L -132.778,-1198.41 L -132.295,-1198.76 L -131.772,-1199.05 L -131.218,-1199.27
 L -130.64,-1199.42 L -130.048,-1199.49 L 130.048,-1199.49 L 130.64,-1199.42 L 131.218,-1199.27 L 131.772,-1199.05
 L 132.295,-1198.76 L 132.778,-1198.41 L 133.213,-1198 L 133.593,-1197.54 L 133.912,-1197.04 L 134.166,-1196.5
 L 134.351,-1195.93 L 134.463,-1195.35 L 134.5,-1194.75 L 134.5,-995.25 L 134.463,-994.655 L 134.351,-994.069
 L 134.166,-993.501 L 133.912,-992.962 L 133.593,-992.458 L 133.213,-991.998 L 132.778,-991.59 L 132.295,-991.239
 L 131.772,-990.952 L 131.218,-990.732 L 130.64,-990.584 L 130.048,-990.509 z
M 130.937,-771.089 L 131.545,-771.245 L 132.129,-771.476 L 132.679,-771.778 L 133.187,-772.147 L 133.645,-772.577
 L 134.045,-773.061 L 134.382,-773.591 L 134.649,-774.159 L 134.843,-774.757 L 134.961,-775.373 L 135,-776
 L 135,-976 L 134.961,-976.627 L 134.843,-977.243 L 134.649,-977.841 L 134.382,-978.409 L 134.045,-978.939
 L 133.645,-979.423 L 133.187,-979.853 L 132.679,-980.222 L 132.129,-980.524 L 131.545,-980.755 L 130.937,-980.911
 L 130.314,-980.99 L -130.314,-980.99 L -130.937,-980.911 L -131.545,-980.755 L -132.129,-980.524 L -132.679,-980.222
 L -133.187,-979.853 L -133.645,-979.423 L -134.045,-978.939 L -134.382,-978.409 L -134.649,-977.841 L -134.843,-977.243
 L -134.961,-976.627 L -135,-976 L -135,-776 L -134.961,-775.373 L -134.843,-774.757 L -134.649,-774.159
 L -134.382,-773.591 L -134.045,-773.061 L -133.645,-772.577 L -133.187,-772.147 L -132.679,-771.778 L -132.129,-771.476
 L -131.545,-771.245 L -130.937,-771.089 L -130.314,-771.01 L 130.314,-771.01 z
M -130.037,-771.681 L -130.608,-771.753 L -131.165,-771.896 L -131.699,-772.107 L -132.203,-772.384 L -132.668,-772.722
 L -133.088,-773.116 L -133.454,-773.559 L -133.762,-774.044 L -134.007,-774.565 L -134.185,-775.111 L -134.292,-775.676
 L -134.328,-776.25 L -134.328,-975.75 L -134.292,-976.324 L -134.185,-976.889 L -134.007,-977.435 L -133.762,-977.956
 L -133.454,-978.441 L -133.088,-978.884 L -132.668,-979.278 L -132.203,-979.616 L -131.699,-979.893 L -131.165,-980.104
 L -130.608,-980.247 L -130.037,-980.319 L 130.037,-980.319 L 130.608,-980.247 L 131.165,-980.104 L 131.699,-979.893
 L 132.203,-979.616 L 132.668,-979.278 L 133.088,-978.884 L 133.454,-978.441 L 133.762,-977.956 L 134.007,-977.435
 L 134.185,-976.889 L 134.292,-976.324 L 134.328,-975.75 L 134.328,-776.25 L 134.292,-775.676 L 134.185,-775.111
 L 134.007,-774.565 L 133.762,-774.044 L 133.454,-773.559 L 133.088,-773.116 L 132.668,-772.722 L 132.203,-772.384
 L 131.699,-772.107 L 131.165,-771.896 L 130.608,-771.753 L 130.037,-771.681 z
M 130.937,-552.089 L 131.545,-552.245 L 132.129,-552.476 L 132.679,-552.778 L 133.187,-553.147 L 133.645,-553.577
 L 134.045,-554.061 L 134.382,-554.591 L 134.649,-555.159 L 134.843,-555.757 L 134.961,-556.373 L 135,-557
 L 135,-757 L 134.961,-757.627 L 134.843,-758.243 L 134.649,-758.841 L 134.382,-759.409 L 134.045,-759.939
 L 133.645,-760.423 L 133.187,-760.853 L 132.679,-761.222 L 132.129,-761.524 L 131.545,-761.755 L 130.937,-761.911
 L 130.314,-761.99 L -130.314,-761.99 L -130.937,-761.911 L -131.545,-761.755 L -132.129,-761.524 L -132.679,-761.222
 L -133.187,-760.853 L -133.645,-760.423 L -134.045,-759.939 L -134.382,-759.409 L -134.649,-758.841 L -134.843,-758.243
 L -134.961,-757.627 L -135,-757 L -135,-557 L -134.961,-556.373 L -134.843,-555.757 L -134.649,-555.159
 L -134.382,-554.591 L -134.045,-554.061 L -133.645,-553.577 L -133.187,-553.147 L -132.679,-552.778 L -132.129,-552.476
 L -131.545,-552.245 L -130.937,-552.089 L -130.314,-552.01 L 130.314,-552.01 z
M -129.882,-555.145 L -130.145,-555.178 L -130.402,-555.244 L -130.648,-555.341 L -130.88,-555.469 L -131.095,-555.624
 L -131.288,-555.806 L -131.457,-556.01 L -131.599,-556.234 L -131.711,-556.473 L -131.793,-556.725 L -131.843,-556.986
 L -131.86,-557.25 L -131.86,-756.75 L -131.843,-757.014 L -131.793,-757.275 L -131.711,-757.527 L -131.599,-757.766
 L -131.457,-757.99 L -131.288,-758.194 L -131.095,-758.376 L -130.88,-758.531 L -130.648,-758.659 L -130.402,-758.756
 L -130.145,-758.822 L -129.882,-758.855 L 129.882,-758.855 L 130.145,-758.822 L 130.402,-758.756 L 130.648,-758.659
 L 130.88,-758.531 L 131.095,-758.376 L 131.288,-758.194 L 131.457,-757.99 L 131.599,-757.766 L 131.711,-757.527
 L 131.793,-757.275 L 131.843,-757.014 L 131.86,-756.75 L 131.86,-557.25 L 131.843,-556.986 L 131.793,-556.725
 L 131.711,-556.473 L 131.599,-556.234 L 131.457,-556.01 L 131.288,-555.806 L 131.095,-555.624 L 130.88,-555.469
 L 130.648,-555.341 L 130.402,-555.244 L 130.145,-555.178 L 129.882,-555.145 z
" stroke="black" fill="lightgray" stroke-width="0.5"/>
</svg>
