<?xml version="1.0" standalone="no"?>
<!DOCTYPE svg PUBLIC "-//W3C//DTD SVG 1.1//EN" "http://www.w3.org/Graphics/SVG/1.1/DTD/svg11.dtd">
<svg width="242mm" height="786mm" viewBox="-122 -1506 242 786" xmlns="http://www.w3.org/2000/svg" version="1.1">
<title>OpenSCAD Model</title>
<path d="
M -118.5,-1357.44 L -118.187,-1357.15 L -117.679,-1356.78 L -117.129,-1356.48 L -116.545,-1356.24 L -115.937,-1356.09
 L -115.314,-1356.01 L 115.314,-1356.01 L 115.937,-1356.09 L 116.545,-1356.24 L 117.129,-1356.48 L 117.679,-1356.78
 L 118.187,-1357.15 L 118.645,-1357.58 L 119.045,-1358.06 L 119.382,-1358.59 L 119.649,-1359.16 L 119.843,-1359.76
 L 119.961,-1360.37 L 120,-1361 L 120,-1501 L 119.961,-1501.63 L 119.843,-1502.24 L 119.649,-1502.84
 L 119.382,-1503.41 L 119.045,-1503.94 L 118.645,-1504.42 L 118.187,-1504.85 L 117.679,-1505.22 L 117.129,-1505.52
 L 116.545,-1505.76 L 115.937,-1505.91 L 115.314,-1505.99 L -115.314,-1505.99 L -115.937,-1505.91 L -116.545,-1505.76
 L -117.129,-1505.52 L -117.679,-1505.22 L -118.187,-1504.85 L -118.5,-1504.56 L -118.5,-1505.99 L -121.5,-1505.99
 L -121.5,-1356.01 L -118.5,-1356.01 z
M -114.751,-1357.51 L -115.25,-1357.57 L -115.736,-1357.7 L -116.203,-1357.88 L -116.643,-1358.12 L -117.05,-1358.42
 L -117.416,-1358.76 L -117.736,-1359.15 L -118.005,-1359.57 L -118.219,-1360.03 L -118.374,-1360.51 L -118.468,-1361
 L -118.5,-1361.5 L -118.5,-1500.5 L -118.468,-1501 L -118.374,-1501.49 L -118.219,-1501.97 L -118.005,-1502.43
 L -117.736,-1502.85 L -117.416,-1503.24 L -117.05,-1503.58 L -116.643,-1503.88 L -116.203,-1504.12 L -115.736,-1504.3
 L -115.25,-1504.43 L -114.751,-1504.49 L 114.751,-1504.49 L 115.25,-1504.43 L 115.736,-1504.3 L 116.203,-1504.12
 L 116.643,-1503.88 L 117.05,-1503.58 L 117.416,-1503.24 L 117.736,-1502.85 L 118.005,-1502.43 L 118.219,-1501.97
 L 118.374,-1501.49 L 118.468,-1501 L 118.5,-1500.5 L 118.5,-1361.5 L 118.468,-1361 L 118.374,-1360.51
 L 118.219,-1360.03 L 118.005,-1359.57 L 117.736,-1359.15 L 117.416,-1358.76 L 117.05,-1358.42 L 116.643,-1358.12
 L 116.203,-1357.88 L 115.736,-1357.7 L 115.25,-1357.57 L 114.751,-1357.51 z
M -118.5,-1198.44 L -118.187,-1198.15 L -117.679,-1197.78 L -117.129,-1197.48 L -116.545,-1197.24 L -115.937,-1197.09
 L -115.314,-1197.01 L 115.314,-1197.01 L 115.937,-1197.09 L 116.545,-1197.24 L 117.129,-1197.48 L 117.679,-1197.78
 L 118.187,-1198.15 L 118.645,-1198.58 L 119.045,-1199.06 L 119.382,-1199.59 L 119.649,-1200.16 L 119.843,-1200.76
 L 119.961,-1201.37 L 120,-1202 L 120,-1342 L 119.961,-1342.63 L 119.843,-1343.24 L 119.649,-1343.84
 L 119.382,-1344.41 L 119.045,-1344.94 L 118.645,-1345.42 L 118.187,-1345.85 L 117.679,-1346.22 L 117.129,-1346.52
 L 116.545,-1346.76 L 115.937,-1346.91 L 115.314,-1346.99 L -115.314,-1346.99 L -115.937,-1346.91 L -116.545,-1346.76
 L -117.129,-1346.52 L -117.679,-1346.22 L -118.187,-1345.85 L -118.5,-1345.56 L -118.5,-1346.99 L -121.5,-1346.99
 L -121.5,-1197.01 L -118.5,-1197.01 z
M -114.751,-1198.51 L -115.25,-1198.57 L -115.736,-1198.7 L -116.203,-1198.88 L -116.643,-1199.12 L -117.05,-1199.42
 L -117.416,-1199.76 L -117.736,-1200.15 L -118.005,-1200.57 L -118.219,-1201.03 L -118.374,-1201.51 L -118.468,-1202
 L -118.5,-1202.5 L -118.5,-1341.5 L -118.468,-1342 L -118.374,-1342.49 L -118.219,-1342.97 L -118.005,-1343.43
 L -117.736,-1343.85 L -117.416,-1344.24 L -117.05,-1344.58 L -116.643,-1344.88 L -116.203,-1345.12 L -115.736,-1345.3
 L -115.25,-1345.43 L -114.751,-1345.49 L 114.751,-1345.49 L 115.25,-1345.43 L 115.736,-1345.3 L 116.203,-1345.12
 L 116.643,-1344.88 L 117.05,-1344.58 L 117.416,-1344.24 L 117.736,-1343.85 L 118.005,-1343.43 L 118.219,-1342.97
 L 118.374,-1342.49 L 118.468,-1342 L 118.5,-1341.5 L 118.5,-1202.5 L 118.468,-1202 L 118.374,-1201.51
 L 118.219,-1201.03 L 118.005,-1200.57 L 117.736,-1200.15 L 117.416,-1199.76 L 117.05,-1199.42 L 116.643,-1199.12
 L 116.203,-1198.88 L 115.736,-1198.7 L 115.25,-1198.57 L 114.751,-1198.51 z
M -118.5,-1039.44 L -118.187,-1039.15 L -117.679,-1038.78 L -117.129,-1038.48 L -116.545,-1038.24 L -115.937,-1038.09
 L -115.314,-1038.01 L 115.314,-1038.01 L 115.937,-1038.09 L 116.545,-1038.24 L 117.129,-1038.48 L 117.679,-1038.78
 L 118.187,-1039.15 L 118.645,-1039.58 L 119.045,-1040.06 L 119.382,-1040.59 L 119.649,-1041.16 L 119.843,-1041.76
 L 119.961,-1042.37 L 120,-1043 L 120,-1183 L 119.961,-1183.63 L 119.843,-1184.24 L 119.649,-1184.84
 L 119.382,-1185.41 L 119.045,-1185.94 L 118.645,-1186.42 L 118.187,-1186.85 L 117.679,-1187.22 L 117.129,-1187.52
 L 116.545,-1187.76 L 115.937,-1187.91 L 115.314,-1187.99 L -115.314,-1187.99 L -115.937,-1187.91 L -116.545,-1187.76
 L -117.129,-1187.52 L -117.679,-1187.22 L -118.187,-1186.85 L -118.5,-1186.56 L -118.5,-1187.99 L -121.5,-1187.99
 L -121.5,-1038.01 L -118.5,-1038.01 z
M -114.751,-1039.51 L -115.25,-1039.57 L -115.736,-1039.7 L -116.203,-1039.88 L -116.643,-1040.12 L -117.05,-1040.42
 L -117.416,-1040.76 L -117.736,-1041.15 L -118.005,-1041.57 L -118.219,-1042.03 L -118.374,-1042.51 L -118.468,-1043
 L -118.5,-1043.5 L -118.5,-1182.5 L -118.468,-1183 L -118.374,-1183.49 L -118.219,-1183.97 L -118.005,-1184.43
 L -117.736,-1184.85 L -117.416,-1185.24 L -117.05,-1185.58 L -116.643,-1185.88 L -116.203,-1186.12 L -115.736,-1186.3
 L -115.25,-1186.43 L -114.751,-1186.49 L 114.751,-1186.49 L 115.25,-1186.43 L 115.736,-1186.3 L 116.203,-1186.12
 L 116.643,-1185.88 L 117.05,-1185.58 L 117.416,-1185.24 L 117.736,-1184.85 L 118.005,-1184.43 L 118.219,-1183.97
 L 118.374,-1183.49 L 118.468,-1183 L 118.5,-1182.5 L 118.5,-1043.5 L 118.468,-1043 L 118.374,-1042.51
 L 118.219,-1042.03 L 118.005,-1041.57 L 117.736,-1041.15 L 117.416,-1040.76 L 117.05,-1040.42 L 116.643,-1040.12
 L 116.203,-1039.88 L 115.736,-1039.7 L 115.25,-1039.57 L 114.751,-1039.51 z
M 115.937,-879.089 L 116.545,-879.245 L 117.129,-879.476 L 117.679,-879.778 L 118.187,-880.147 L 118.645,-880.577
 L 119.045,-881.061 L 119.382,-881.591 L 119.649,-882.159 L 119.843,-882.757 L 119.961,-883.373 L 120,-884
 L 120,-1024 L 119.961,-1024.63 L 119.843,-1025.24 L 119.649,-1025.84 L 119.382,-1026.41 L 119.045,-1026.94
 L 118.645,-1027.42 L 118.187,-1027.85 L 117.679,-1028.22 L 117.129,-1028.52 L 116.545,-1028.76 L 115.937,-1028.91
 L 115.314,-1028.99 L -115.314,-1028.99 L -115.937,-1028.91 L -116.545,-1028.76 L -117.129,-1028.52 L -117.679,-1028.22
 L -118.187,-1027.85 L -118.5,-1027.56 L -118.5,-1028.98 L -121.5,-1028.98 L -121.5,-879.021 L -118.5,-879.021
 L -118.5,-880.441 L -118.187,-880.147 L -117.679,-879.778 L -117.129,-879.476 L -116.545,-879.245 L -115.937,-879.089
 L -115.314,-879.01 L 115.314,-879.01 z
M -114.695,-881.393 L -115.083,-881.442 L -115.462,-881.539 L -115.825,-881.683 L -116.168,-881.872 L -116.484,-882.101
 L -116.769,-882.369 L -117.018,-882.67 L -117.228,-883 L -117.394,-883.354 L -117.515,-883.726 L -117.588,-884.11
 L -117.613,-884.5 L -117.613,-1023.5 L -117.588,-1023.89 L -117.515,-1024.27 L -117.394,-1024.65 L -117.228,-1025
 L -117.018,-1025.33 L -116.769,-1025.63 L -116.484,-1025.9 L -116.168,-1026.13 L -115.825,-1026.32 L -115.462,-1026.46
 L -115.083,-1026.56 L -114.695,-1026.61 L 114.695,-1026.61 L 115.083,-1026.56 L 115.462,-1026.46 L 115.825,-1026.32
 L 116.168,-1026.13 L 116.484,-1025.9 L 116.769,-1025.63 L 117.018,-1025.33 L 117.228,-1025 L 117.394,-1024.65
 L 117.515,-1024.27 L 117.588,-1023.89 L 117.613,-1023.5 L 117.613,-884.5 L 117.588,-884.11 L 117.515,-883.726
 L 117.394,-883.354 L 117.228,-883 L 117.018,-882.67 L 116.769,-882.369 L 116.484,-882.101 L 116.168,-881.872
 L 115.825,-881.683 L 115.462,-881.539 L 115.083,-881.442 L 114.695,-881.393 z
M 115.937,-720.089 L 116.545,-720.245 L 117.129,-720.476 L 117.679,-720.778 L 118.187,-721.147 L 118.645,-721.577
 L 119.045,-722.061 L 119.382,-722.591 L 119.649,-723.159 L 119.843,-723.757 L 119.961,-724.373 L 120,-725
 L 120,-865 L 119.961,-865.627 L 119.843,-866.243 L 119.649,-866.841 L 119.382,-867.409 L 119.045,-867.939
 L 118.645,-868.423 L 118.187,-868.853 L 117.679,-869.222 L 117.129,-869.524 L 116.545,-869.755 L 115.937,-869.911
 L 115.314,-869.99 L -115.314,-869.99 L -115.937,-869.911 L -116.545,-869.755 L -117.129,-869.524 L -117.679,-869.222
 L -118.187,-868.853 L -118.5,-868.559 L -118.5,-868.653 L -121.5,-868.653 L -121.5,-721.347 L -118.5,-721.347
 L -118.5,-721.441 L -118.187,-721.147 L -117.679,-720.778 L -117.129,-720.476 L -116.545,-720.245 L -115.937,-720.089
 L -115.314,-720.01 L 115.314,-720.01 z
M -112.634,-860.369 L -112.9,-860.403 L -113.16,-860.469 L -113.409,-860.568 L -113.644,-860.697 L -113.861,-860.855
 L -114.057,-861.038 L -114.227,-861.245 L -114.371,-861.471 L -114.485,-861.714 L -114.568,-861.969 L -114.618,-862.232
 L -114.635,-862.5 L -114.618,-862.768 L -114.568,-863.031 L -114.485,-863.286 L -114.371,-863.529 L -114.227,-863.755
 L -114.057,-863.962 L -113.861,-864.145 L -113.644,-864.303 L -113.409,-864.432 L -113.16,-864.531 L -112.9,-864.597
 L -112.634,-864.631 L -112.366,-864.631 L -112.1,-864.597 L -111.84,-864.531 L -111.591,-864.432 L -111.356,-864.303
 L -111.139,-864.145 L -110.943,-863.962 L -110.773,-863.755 L -110.629,-863.529 L -110.515,-863.286 L -110.432,-863.031
 L -110.382,-862.768 L -110.365,-862.5 L -110.382,-862.232 L -110.432,-861.969 L -110.515,-861.714 L -110.629,-861.471
 L -110.773,-861.245 L -110.943,-861.038 L -111.139,-860.855 L -111.356,-860.697 L -111.591,-860.568 L -111.84,-860.469
 L -112.1,-860.403 L -112.366,-860.369 z
M 112.366,-860.369 L 112.1,-860.403 L 111.84,-860.469 L 111.591,-860.568 L 111.356,-860.697 L 111.139,-860.855
 L 110.943,-861.038 L 110.773,-861.245 L 110.629,-861.471 L 110.515,-861.714 L 110.432,-861.969 L 110.382,-862.232
 L 110.365,-862.5 L 110.382,-862.768 L 110.432,-863.031 L 110.515,-863.286 L 110.629,-863.529 L 110.773,-863.755
 L 110.943,-863.962 L 111.139,-864.145 L 111.356,-864.303 L 111.591,-864.432 L 111.84,-864.531 L 112.1,-864.597
 L 112.366,-864.631 L 112.634,-864.631 L 112.9,-864.597 L 113.16,-864.531 L 113.409,-864.432 L 113.644,-864.303
 L 113.861,-864.145 L 114.057,-863.962 L 114.227,-863.755 L 114.371,-863.529 L 114.485,-863.286 L 114.568,-863.031
 L 114.618,-862.768 L 114.635,-862.5 L 114.618,-862.232 L 114.568,-861.969 L 114.485,-861.714 L 114.371,-861.471
 L 114.227,-861.245 L 114.057,-861.038 L 113.861,-860.855 L 113.644,-860.697 L 113.409,-860.568 L 113.16,-860.469
 L 112.9,-860.403 L 112.634,-860.369 z
M -112.634,-725.369 L -112.9,-725.403 L -113.16,-725.469 L -113.409,-725.568 L -113.644,-725.697 L -113.861,-725.855
 L -114.057,-726.038 L -114.227,-726.245 L -114.371,-726.471 L -114.485,-726.714 L -114.568,-726.969 L -114.618,-727.232
 L -114.635,-727.5 L -114.618,-727.768 L -114.568,-728.031 L -114.485,-728.286 L -114.371,-728.529 L -114.227,-728.755
 L -114.057,-728.962 L -113.861,-729.145 L -113.644,-729.303 L -113.409,-729.432 L -113.16,-729.531 L -112.9,-729.597
 L -112.634,-729.631 L -112.366,-729.631 L -112.1,-729.597 L -111.84,-729.531 L -111.591,-729.432 L -111.356,-729.303
 L -111.139,-729.145 L -110.943,-728.962 L -110.773,-728.755 L -110.629,-728.529 L -110.515,-728.286 L -110.432,-728.031
 L -110.382,-727.768 L -110.365,-727.5 L -110.382,-727.232 L -110.432,-726.969 L -110.515,-726.714 L -110.629,-726.471
 L -110.773,-726.245 L -110.943,-726.038 L -111.139,-725.855 L -111.356,-725.697 L -111.591,-725.568 L -111.84,-725.469
 L -112.1,-725.403 L -112.366,-725.369 z
M 112.366,-725.369 L 112.1,-725.403 L 111.84,-725.469 L 111.591,-725.568 L 111.356,-725.697 L 111.139,-725.855
 L 110.943,-726.038 L 110.773,-726.245 L 110.629,-726.471 L 110.515,-726.714 L 110.432,-726.969 L 110.382,-727.232
 L 110.365,-727.5 L 110.382,-727.768 L 110.432,-728.031 L 110.515,-728.286 L 110.629,-728.529 L 110.773,-728.755
 L 110.943,-728.962 L 111.139,-729.145 L 111.356,-729.303 L 111.591,-729.432 L 111.84,-729.531 L 112.1,-729.597
 L 112.366,-729.631 L 112.634,-729.631 L 112.9,-729.597 L 113.16,-729.531 L 113.409,-729.432 L 113.644,-729.303
 L 113.861,-729.145 L 114.057,-728.962 L 114.227,-728.755 L 114.371,-728.529 L 114.485,-728.286 L 114.568,-728.031
 L 114.618,-727.768 L 114.635,-727.5 L 114.618,-727.232 L 114.568,-726.969 L 114.485,-726.714 L 114.371,-726.471
 L 114.227,-726.245 L 114.057,-726.038 L 113.861,-725.855 L 113.644,-725.697 L 113.409,-725.568 L 113.16,-725.469
 L 112.9,-725.403 L 112.634,-725.369 z
" stroke="black" fill="lightgray" stroke-width="0.5"/>
</svg>
