  0
SECTION
  2
BLOCKS
  0
ENDSEC
  0
SECTION
  2
ENTITIES
  0
LINE
  8
0
 10
-148.5
 20
721.441
 11
-148.187
 21
721.147
  0
LINE
  8
0
 10
-148.187
 20
721.147
 11
-147.679
 21
720.778
  0
LINE
  8
0
 10
-147.679
 20
720.778
 11
-147.129
 21
720.476
  0
LINE
  8
0
 10
-147.129
 20
720.476
 11
-146.545
 21
720.245
  0
LINE
  8
0
 10
-146.545
 20
720.245
 11
-145.937
 21
720.089
  0
LINE
  8
0
 10
-145.937
 20
720.089
 11
-145.314
 21
720.01
  0
LINE
  8
0
 10
-145.314
 20
720.01
 11
145.314
 21
720.01
  0
LINE
  8
0
 10
145.314
 20
720.01
 11
145.937
 21
720.089
  0
LINE
  8
0
 10
145.937
 20
720.089
 11
146.545
 21
720.245
  0
LINE
  8
0
 10
146.545
 20
720.245
 11
147.129
 21
720.476
  0
LINE
  8
0
 10
147.129
 20
720.476
 11
147.679
 21
720.778
  0
LINE
  8
0
 10
147.679
 20
720.778
 11
148.187
 21
721.147
  0
LINE
  8
0
 10
148.187
 20
721.147
 11
148.645
 21
721.577
  0
LINE
  8
0
 10
148.645
 20
721.577
 11
149.045
 21
722.061
  0
LINE
  8
0
 10
149.045
 20
722.061
 11
149.382
 21
722.591
  0
LINE
  8
0
 10
149.382
 20
722.591
 11
149.649
 21
723.159
  0
LINE
  8
0
 10
149.649
 20
723.159
 11
149.843
 21
723.757
  0
LINE
  8
0
 10
149.843
 20
723.757
 11
149.961
 21
724.373
  0
LINE
  8
0
 10
149.961
 20
724.373
 11
150
 21
725
  0
LINE
  8
0
 10
150
 20
725
 11
150
 21
865
  0
LINE
  8
0
 10
150
 20
865
 11
149.961
 21
865.627
  0
LINE
  8
0
 10
149.961
 20
865.627
 11
149.843
 21
866.243
  0
LINE
  8
0
 10
149.843
 20
866.243
 11
149.649
 21
866.841
  0
LINE
  8
0
 10
149.649
 20
866.841
 11
149.382
 21
867.409
  0
LINE
  8
0
 10
149.382
 20
867.409
 11
149.045
 21
867.939
  0
LINE
  8
0
 10
149.045
 20
867.939
 11
148.645
 21
868.423
  0
LINE
  8
0
 10
148.645
 20
868.423
 11
148.187
 21
868.853
  0
LINE
  8
0
 10
148.187
 20
868.853
 11
147.679
 21
869.222
  0
LINE
  8
0
 10
147.679
 20
869.222
 11
147.129
 21
869.524
  0
LINE
  8
0
 10
147.129
 20
869.524
 11
146.545
 21
869.755
  0
LINE
  8
0
 10
146.545
 20
869.755
 11
145.937
 21
869.911
  0
LINE
  8
0
 10
145.937
 20
869.911
 11
145.314
 21
869.99
  0
LINE
  8
0
 10
145.314
 20
869.99
 11
-145.314
 21
869.99
  0
LINE
  8
0
 10
-145.314
 20
869.99
 11
-145.937
 21
869.911
  0
LINE
  8
0
 10
-145.937
 20
869.911
 11
-146.545
 21
869.755
  0
LINE
  8
0
 10
-146.545
 20
869.755
 11
-147.129
 21
869.524
  0
LINE
  8
0
 10
-147.129
 20
869.524
 11
-147.679
 21
869.222
  0
LINE
  8
0
 10
-147.679
 20
869.222
 11
-148.187
 21
868.853
  0
LINE
  8
0
 10
-148.187
 20
868.853
 11
-148.5
 21
868.559
  0
LINE
  8
0
 10
-148.5
 20
868.559
 11
-148.5
 21
869.99
  0
LINE
  8
0
 10
-148.5
 20
869.99
 11
-151.5
 21
869.99
  0
LINE
  8
0
 10
-151.5
 20
869.99
 11
-151.5
 21
720.01
  0
LINE
  8
0
 10
-151.5
 20
720.01
 11
-148.5
 21
720.01
  0
LINE
  8
0
 10
-148.5
 20
720.01
 11
-148.5
 21
721.441
  0
LINE
  8
0
 10
-144.751
 20
721.508
 11
-145.25
 21
721.571
  0
LINE
  8
0
 10
-145.25
 20
721.571
 11
-145.736
 21
721.696
  0
LINE
  8
0
 10
-145.736
 20
721.696
 11
-146.203
 21
721.881
  0
LINE
  8
0
 10
-146.203
 20
721.881
 11
-146.643
 21
722.123
  0
LINE
  8
0
 10
-146.643
 20
722.123
 11
-147.05
 21
722.418
  0
LINE
  8
0
 10
-147.05
 20
722.418
 11
-147.416
 21
722.762
  0
LINE
  8
0
 10
-147.416
 20
722.762
 11
-147.736
 21
723.149
  0
LINE
  8
0
 10
-147.736
 20
723.149
 11
-148.005
 21
723.573
  0
LINE
  8
0
 10
-148.005
 20
723.573
 11
-148.219
 21
724.028
  0
LINE
  8
0
 10
-148.219
 20
724.028
 11
-148.374
 21
724.505
  0
LINE
  8
0
 10
-148.374
 20
724.505
 11
-148.468
 21
724.999
  0
LINE
  8
0
 10
-148.468
 20
724.999
 11
-148.5
 21
725.5
  0
LINE
  8
0
 10
-148.5
 20
725.5
 11
-148.5
 21
864.5
  0
LINE
  8
0
 10
-148.5
 20
864.5
 11
-148.468
 21
865.001
  0
LINE
  8
0
 10
-148.468
 20
865.001
 11
-148.374
 21
865.495
  0
LINE
  8
0
 10
-148.374
 20
865.495
 11
-148.219
 21
865.972
  0
LINE
  8
0
 10
-148.219
 20
865.972
 11
-148.005
 21
866.427
  0
LINE
  8
0
 10
-148.005
 20
866.427
 11
-147.736
 21
866.851
  0
LINE
  8
0
 10
-147.736
 20
866.851
 11
-147.416
 21
867.238
  0
LINE
  8
0
 10
-147.416
 20
867.238
 11
-147.05
 21
867.582
  0
LINE
  8
0
 10
-147.05
 20
867.582
 11
-146.643
 21
867.877
  0
LINE
  8
0
 10
-146.643
 20
867.877
 11
-146.203
 21
868.119
  0
LINE
  8
0
 10
-146.203
 20
868.119
 11
-145.736
 21
868.304
  0
LINE
  8
0
 10
-145.736
 20
868.304
 11
-145.25
 21
868.429
  0
LINE
  8
0
 10
-145.25
 20
868.429
 11
-144.751
 21
868.492
  0
LINE
  8
0
 10
-144.751
 20
868.492
 11
144.751
 21
868.492
  0
LINE
  8
0
 10
144.751
 20
868.492
 11
145.25
 21
868.429
  0
LINE
  8
0
 10
145.25
 20
868.429
 11
145.736
 21
868.304
  0
LINE
  8
0
 10
145.736
 20
868.304
 11
146.203
 21
868.119
  0
LINE
  8
0
 10
146.203
 20
868.119
 11
146.643
 21
867.877
  0
LINE
  8
0
 10
146.643
 20
867.877
 11
147.05
 21
867.582
  0
LINE
  8
0
 10
147.05
 20
867.582
 11
147.416
 21
867.238
  0
LINE
  8
0
 10
147.416
 20
867.238
 11
147.736
 21
866.851
  0
LINE
  8
0
 10
147.736
 20
866.851
 11
148.005
 21
866.427
  0
LINE
  8
0
 10
148.005
 20
866.427
 11
148.219
 21
865.972
  0
LINE
  8
0
 10
148.219
 20
865.972
 11
148.374
 21
865.495
  0
LINE
  8
0
 10
148.374
 20
865.495
 11
148.468
 21
865.001
  0
LINE
  8
0
 10
148.468
 20
865.001
 11
148.5
 21
864.5
  0
LINE
  8
0
 10
148.5
 20
864.5
 11
148.5
 21
725.5
  0
LINE
  8
0
 10
148.5
 20
725.5
 11
148.468
 21
724.999
  0
LINE
  8
0
 10
148.468
 20
724.999
 11
148.374
 21
724.505
  0
LINE
  8
0
 10
148.374
 20
724.505
 11
148.219
 21
724.028
  0
LINE
  8
0
 10
148.219
 20
724.028
 11
148.005
 21
723.573
  0
LINE
  8
0
 10
148.005
 20
723.573
 11
147.736
 21
723.149
  0
LINE
  8
0
 10
147.736
 20
723.149
 11
147.416
 21
722.762
  0
LINE
  8
0
 10
147.416
 20
722.762
 11
147.05
 21
722.418
  0
LINE
  8
0
 10
147.05
 20
722.418
 11
146.643
 21
722.123
  0
LINE
  8
0
 10
146.643
 20
722.123
 11
146.203
 21
721.881
  0
LINE
  8
0
 10
146.203
 20
721.881
 11
145.736
 21
721.696
  0
LINE
  8
0
 10
145.736
 20
721.696
 11
145.25
 21
721.571
  0
LINE
  8
0
 10
145.25
 20
721.571
 11
144.751
 21
721.508
  0
LINE
  8
0
 10
144.751
 20
721.508
 11
-144.751
 21
721.508
  0
LINE
  8
0
 10
145.937
 20
561.089
 11
146.545
 21
561.245
  0
LINE
  8
0
 10
146.545
 20
561.245
 11
147.129
 21
561.476
  0
LINE
  8
0
 10
147.129
 20
561.476
 11
147.679
 21
561.778
  0
LINE
  8
0
 10
147.679
 20
561.778
 11
148.187
 21
562.147
  0
LINE
  8
0
 10
148.187
 20
562.147
 11
148.645
 21
562.577
  0
LINE
  8
0
 10
148.645
 20
562.577
 11
149.045
 21
563.061
  0
LINE
  8
0
 10
149.045
 20
563.061
 11
149.382
 21
563.591
  0
LINE
  8
0
 10
149.382
 20
563.591
 11
149.649
 21
564.159
  0
LINE
  8
0
 10
149.649
 20
564.159
 11
149.843
 21
564.757
  0
LINE
  8
0
 10
149.843
 20
564.757
 11
149.961
 21
565.373
  0
LINE
  8
0
 10
149.961
 20
565.373
 11
150
 21
566
  0
LINE
  8
0
 10
150
 20
566
 11
150
 21
706
  0
LINE
  8
0
 10
150
 20
706
 11
149.961
 21
706.627
  0
LINE
  8
0
 10
149.961
 20
706.627
 11
149.843
 21
707.243
  0
LINE
  8
0
 10
149.843
 20
707.243
 11
149.649
 21
707.841
  0
LINE
  8
0
 10
149.649
 20
707.841
 11
149.382
 21
708.409
  0
LINE
  8
0
 10
149.382
 20
708.409
 11
149.045
 21
708.939
  0
LINE
  8
0
 10
149.045
 20
708.939
 11
148.645
 21
709.423
  0
LINE
  8
0
 10
148.645
 20
709.423
 11
148.187
 21
709.853
  0
LINE
  8
0
 10
148.187
 20
709.853
 11
147.679
 21
710.222
  0
LINE
  8
0
 10
147.679
 20
710.222
 11
147.129
 21
710.524
  0
LINE
  8
0
 10
147.129
 20
710.524
 11
146.545
 21
710.755
  0
LINE
  8
0
 10
146.545
 20
710.755
 11
145.937
 21
710.911
  0
LINE
  8
0
 10
145.937
 20
710.911
 11
145.314
 21
710.99
  0
LINE
  8
0
 10
145.314
 20
710.99
 11
-145.314
 21
710.99
  0
LINE
  8
0
 10
-145.314
 20
710.99
 11
-145.937
 21
710.911
  0
LINE
  8
0
 10
-145.937
 20
710.911
 11
-146.545
 21
710.755
  0
LINE
  8
0
 10
-146.545
 20
710.755
 11
-147.129
 21
710.524
  0
LINE
  8
0
 10
-147.129
 20
710.524
 11
-147.679
 21
710.222
  0
LINE
  8
0
 10
-147.679
 20
710.222
 11
-148.187
 21
709.853
  0
LINE
  8
0
 10
-148.187
 20
709.853
 11
-148.5
 21
709.559
  0
LINE
  8
0
 10
-148.5
 20
709.559
 11
-148.5
 21
710.979
  0
LINE
  8
0
 10
-148.5
 20
710.979
 11
-151.5
 21
710.979
  0
LINE
  8
0
 10
-151.5
 20
710.979
 11
-151.5
 21
561.021
  0
LINE
  8
0
 10
-151.5
 20
561.021
 11
-148.5
 21
561.021
  0
LINE
  8
0
 10
-148.5
 20
561.021
 11
-148.5
 21
562.441
  0
LINE
  8
0
 10
-148.5
 20
562.441
 11
-148.187
 21
562.147
  0
LINE
  8
0
 10
-148.187
 20
562.147
 11
-147.679
 21
561.778
  0
LINE
  8
0
 10
-147.679
 20
561.778
 11
-147.129
 21
561.476
  0
LINE
  8
0
 10
-147.129
 20
561.476
 11
-146.545
 21
561.245
  0
LINE
  8
0
 10
-146.545
 20
561.245
 11
-145.937
 21
561.089
  0
LINE
  8
0
 10
-145.937
 20
561.089
 11
-145.314
 21
561.01
  0
LINE
  8
0
 10
-145.314
 20
561.01
 11
145.314
 21
561.01
  0
LINE
  8
0
 10
145.314
 20
561.01
 11
145.937
 21
561.089
  0
LINE
  8
0
 10
-144.695
 20
563.393
 11
-145.083
 21
563.442
  0
LINE
  8
0
 10
-145.083
 20
563.442
 11
-145.462
 21
563.539
  0
LINE
  8
0
 10
-145.462
 20
563.539
 11
-145.825
 21
563.683
  0
LINE
  8
0
 10
-145.825
 20
563.683
 11
-146.168
 21
563.872
  0
LINE
  8
0
 10
-146.168
 20
563.872
 11
-146.484
 21
564.101
  0
LINE
  8
0
 10
-146.484
 20
564.101
 11
-146.769
 21
564.369
  0
LINE
  8
0
 10
-146.769
 20
564.369
 11
-147.018
 21
564.67
  0
LINE
  8
0
 10
-147.018
 20
564.67
 11
-147.228
 21
565
  0
LINE
  8
0
 10
-147.228
 20
565
 11
-147.394
 21
565.354
  0
LINE
  8
0
 10
-147.394
 20
565.354
 11
-147.515
 21
565.726
  0
LINE
  8
0
 10
-147.515
 20
565.726
 11
-147.588
 21
566.11
  0
LINE
  8
0
 10
-147.588
 20
566.11
 11
-147.613
 21
566.5
  0
LINE
  8
0
 10
-147.613
 20
566.5
 11
-147.613
 21
705.5
  0
LINE
  8
0
 10
-147.613
 20
705.5
 11
-147.588
 21
705.89
  0
LINE
  8
0
 10
-147.588
 20
705.89
 11
-147.515
 21
706.274
  0
LINE
  8
0
 10
-147.515
 20
706.274
 11
-147.394
 21
706.646
  0
LINE
  8
0
 10
-147.394
 20
706.646
 11
-147.228
 21
707
  0
LINE
  8
0
 10
-147.228
 20
707
 11
-147.018
 21
707.33
  0
LINE
  8
0
 10
-147.018
 20
707.33
 11
-146.769
 21
707.631
  0
LINE
  8
0
 10
-146.769
 20
707.631
 11
-146.484
 21
707.899
  0
LINE
  8
0
 10
-146.484
 20
707.899
 11
-146.168
 21
708.128
  0
LINE
  8
0
 10
-146.168
 20
708.128
 11
-145.825
 21
708.317
  0
LINE
  8
0
 10
-145.825
 20
708.317
 11
-145.462
 21
708.461
  0
LINE
  8
0
 10
-145.462
 20
708.461
 11
-145.083
 21
708.558
  0
LINE
  8
0
 10
-145.083
 20
708.558
 11
-144.695
 21
708.607
  0
LINE
  8
0
 10
-144.695
 20
708.607
 11
144.695
 21
708.607
  0
LINE
  8
0
 10
144.695
 20
708.607
 11
145.083
 21
708.558
  0
LINE
  8
0
 10
145.083
 20
708.558
 11
145.462
 21
708.461
  0
LINE
  8
0
 10
145.462
 20
708.461
 11
145.825
 21
708.317
  0
LINE
  8
0
 10
145.825
 20
708.317
 11
146.168
 21
708.128
  0
LINE
  8
0
 10
146.168
 20
708.128
 11
146.484
 21
707.899
  0
LINE
  8
0
 10
146.484
 20
707.899
 11
146.769
 21
707.631
  0
LINE
  8
0
 10
146.769
 20
707.631
 11
147.018
 21
707.33
  0
LINE
  8
0
 10
147.018
 20
707.33
 11
147.228
 21
707
  0
LINE
  8
0
 10
147.228
 20
707
 11
147.394
 21
706.646
  0
LINE
  8
0
 10
147.394
 20
706.646
 11
147.515
 21
706.274
  0
LINE
  8
0
 10
147.515
 20
706.274
 11
147.588
 21
705.89
  0
LINE
  8
0
 10
147.588
 20
705.89
 11
147.613
 21
705.5
  0
LINE
  8
0
 10
147.613
 20
705.5
 11
147.613
 21
566.5
  0
LINE
  8
0
 10
147.613
 20
566.5
 11
147.588
 21
566.11
  0
LINE
  8
0
 10
147.588
 20
566.11
 11
147.515
 21
565.726
  0
LINE
  8
0
 10
147.515
 20
565.726
 11
147.394
 21
565.354
  0
LINE
  8
0
 10
147.394
 20
565.354
 11
147.228
 21
565
  0
LINE
  8
0
 10
147.228
 20
565
 11
147.018
 21
564.67
  0
LINE
  8
0
 10
147.018
 20
564.67
 11
146.769
 21
564.369
  0
LINE
  8
0
 10
146.769
 20
564.369
 11
146.484
 21
564.101
  0
LINE
  8
0
 10
146.484
 20
564.101
 11
146.168
 21
563.872
  0
LINE
  8
0
 10
146.168
 20
563.872
 11
145.825
 21
563.683
  0
LINE
  8
0
 10
145.825
 20
563.683
 11
145.462
 21
563.539
  0
LINE
  8
0
 10
145.462
 20
563.539
 11
145.083
 21
563.442
  0
LINE
  8
0
 10
145.083
 20
563.442
 11
144.695
 21
563.393
  0
LINE
  8
0
 10
144.695
 20
563.393
 11
-144.695
 21
563.393
  0
LINE
  8
0
 10
145.937
 20
402.089
 11
146.545
 21
402.245
  0
LINE
  8
0
 10
146.545
 20
402.245
 11
147.129
 21
402.476
  0
LINE
  8
0
 10
147.129
 20
402.476
 11
147.679
 21
402.778
  0
LINE
  8
0
 10
147.679
 20
402.778
 11
148.187
 21
403.147
  0
LINE
  8
0
 10
148.187
 20
403.147
 11
148.645
 21
403.577
  0
LINE
  8
0
 10
148.645
 20
403.577
 11
149.045
 21
404.061
  0
LINE
  8
0
 10
149.045
 20
404.061
 11
149.382
 21
404.591
  0
LINE
  8
0
 10
149.382
 20
404.591
 11
149.649
 21
405.159
  0
LINE
  8
0
 10
149.649
 20
405.159
 11
149.843
 21
405.757
  0
LINE
  8
0
 10
149.843
 20
405.757
 11
149.961
 21
406.373
  0
LINE
  8
0
 10
149.961
 20
406.373
 11
150
 21
407
  0
LINE
  8
0
 10
150
 20
407
 11
150
 21
547
  0
LINE
  8
0
 10
150
 20
547
 11
149.961
 21
547.627
  0
LINE
  8
0
 10
149.961
 20
547.627
 11
149.843
 21
548.243
  0
LINE
  8
0
 10
149.843
 20
548.243
 11
149.649
 21
548.841
  0
LINE
  8
0
 10
149.649
 20
548.841
 11
149.382
 21
549.409
  0
LINE
  8
0
 10
149.382
 20
549.409
 11
149.045
 21
549.939
  0
LINE
  8
0
 10
149.045
 20
549.939
 11
148.645
 21
550.423
  0
LINE
  8
0
 10
148.645
 20
550.423
 11
148.187
 21
550.853
  0
LINE
  8
0
 10
148.187
 20
550.853
 11
147.679
 21
551.222
  0
LINE
  8
0
 10
147.679
 20
551.222
 11
147.129
 21
551.524
  0
LINE
  8
0
 10
147.129
 20
551.524
 11
146.545
 21
551.755
  0
LINE
  8
0
 10
146.545
 20
551.755
 11
145.937
 21
551.911
  0
LINE
  8
0
 10
145.937
 20
551.911
 11
145.314
 21
551.99
  0
LINE
  8
0
 10
145.314
 20
551.99
 11
-145.314
 21
551.99
  0
LINE
  8
0
 10
-145.314
 20
551.99
 11
-145.937
 21
551.911
  0
LINE
  8
0
 10
-145.937
 20
551.911
 11
-146.545
 21
551.755
  0
LINE
  8
0
 10
-146.545
 20
551.755
 11
-147.129
 21
551.524
  0
LINE
  8
0
 10
-147.129
 20
551.524
 11
-147.679
 21
551.222
  0
LINE
  8
0
 10
-147.679
 20
551.222
 11
-148.187
 21
550.853
  0
LINE
  8
0
 10
-148.187
 20
550.853
 11
-148.5
 21
550.559
  0
LINE
  8
0
 10
-148.5
 20
550.559
 11
-148.5
 21
550.653
  0
LINE
  8
0
 10
-148.5
 20
550.653
 11
-151.5
 21
550.653
  0
LINE
  8
0
 10
-151.5
 20
550.653
 11
-151.5
 21
403.347
  0
LINE
  8
0
 10
-151.5
 20
403.347
 11
-148.5
 21
403.347
  0
LINE
  8
0
 10
-148.5
 20
403.347
 11
-148.5
 21
403.441
  0
LINE
  8
0
 10
-148.5
 20
403.441
 11
-148.187
 21
403.147
  0
LINE
  8
0
 10
-148.187
 20
403.147
 11
-147.679
 21
402.778
  0
LINE
  8
0
 10
-147.679
 20
402.778
 11
-147.129
 21
402.476
  0
LINE
  8
0
 10
-147.129
 20
402.476
 11
-146.545
 21
402.245
  0
LINE
  8
0
 10
-146.545
 20
402.245
 11
-145.937
 21
402.089
  0
LINE
  8
0
 10
-145.937
 20
402.089
 11
-145.314
 21
402.01
  0
LINE
  8
0
 10
-145.314
 20
402.01
 11
145.314
 21
402.01
  0
LINE
  8
0
 10
145.314
 20
402.01
 11
145.937
 21
402.089
  0
LINE
  8
0
 10
142.366
 20
542.369
 11
142.1
 21
542.403
  0
LINE
  8
0
 10
142.1
 20
542.403
 11
141.84
 21
542.469
  0
LINE
  8
0
 10
141.84
 20
542.469
 11
141.591
 21
542.568
  0
LINE
  8
0
 10
141.591
 20
542.568
 11
141.356
 21
542.697
  0
LINE
  8
0
 10
141.356
 20
542.697
 11
141.139
 21
542.855
  0
LINE
  8
0
 10
141.139
 20
542.855
 11
140.943
 21
543.038
  0
LINE
  8
0
 10
140.943
 20
543.038
 11
140.773
 21
543.245
  0
LINE
  8
0
 10
140.773
 20
543.245
 11
140.629
 21
543.471
  0
LINE
  8
0
 10
140.629
 20
543.471
 11
140.515
 21
543.714
  0
LINE
  8
0
 10
140.515
 20
543.714
 11
140.432
 21
543.969
  0
LINE
  8
0
 10
140.432
 20
543.969
 11
140.382
 21
544.232
  0
LINE
  8
0
 10
140.382
 20
544.232
 11
140.365
 21
544.5
  0
LINE
  8
0
 10
140.365
 20
544.5
 11
140.382
 21
544.768
  0
LINE
  8
0
 10
140.382
 20
544.768
 11
140.432
 21
545.031
  0
LINE
  8
0
 10
140.432
 20
545.031
 11
140.515
 21
545.286
  0
LINE
  8
0
 10
140.515
 20
545.286
 11
140.629
 21
545.529
  0
LINE
  8
0
 10
140.629
 20
545.529
 11
140.773
 21
545.755
  0
LINE
  8
0
 10
140.773
 20
545.755
 11
140.943
 21
545.962
  0
LINE
  8
0
 10
140.943
 20
545.962
 11
141.139
 21
546.145
  0
LINE
  8
0
 10
141.139
 20
546.145
 11
141.356
 21
546.303
  0
LINE
  8
0
 10
141.356
 20
546.303
 11
141.591
 21
546.432
  0
LINE
  8
0
 10
141.591
 20
546.432
 11
141.84
 21
546.531
  0
LINE
  8
0
 10
141.84
 20
546.531
 11
142.1
 21
546.597
  0
LINE
  8
0
 10
142.1
 20
546.597
 11
142.366
 21
546.631
  0
LINE
  8
0
 10
142.366
 20
546.631
 11
142.634
 21
546.631
  0
LINE
  8
0
 10
142.634
 20
546.631
 11
142.9
 21
546.597
  0
LINE
  8
0
 10
142.9
 20
546.597
 11
143.16
 21
546.531
  0
LINE
  8
0
 10
143.16
 20
546.531
 11
143.409
 21
546.432
  0
LINE
  8
0
 10
143.409
 20
546.432
 11
143.644
 21
546.303
  0
LINE
  8
0
 10
143.644
 20
546.303
 11
143.861
 21
546.145
  0
LINE
  8
0
 10
143.861
 20
546.145
 11
144.057
 21
545.962
  0
LINE
  8
0
 10
144.057
 20
545.962
 11
144.227
 21
545.755
  0
LINE
  8
0
 10
144.227
 20
545.755
 11
144.371
 21
545.529
  0
LINE
  8
0
 10
144.371
 20
545.529
 11
144.485
 21
545.286
  0
LINE
  8
0
 10
144.485
 20
545.286
 11
144.568
 21
545.031
  0
LINE
  8
0
 10
144.568
 20
545.031
 11
144.618
 21
544.768
  0
LINE
  8
0
 10
144.618
 20
544.768
 11
144.635
 21
544.5
  0
LINE
  8
0
 10
144.635
 20
544.5
 11
144.618
 21
544.232
  0
LINE
  8
0
 10
144.618
 20
544.232
 11
144.568
 21
543.969
  0
LINE
  8
0
 10
144.568
 20
543.969
 11
144.485
 21
543.714
  0
LINE
  8
0
 10
144.485
 20
543.714
 11
144.371
 21
543.471
  0
LINE
  8
0
 10
144.371
 20
543.471
 11
144.227
 21
543.245
  0
LINE
  8
0
 10
144.227
 20
543.245
 11
144.057
 21
543.038
  0
LINE
  8
0
 10
144.057
 20
543.038
 11
143.861
 21
542.855
  0
LINE
  8
0
 10
143.861
 20
542.855
 11
143.644
 21
542.697
  0
LINE
  8
0
 10
143.644
 20
542.697
 11
143.409
 21
542.568
  0
LINE
  8
0
 10
143.409
 20
542.568
 11
143.16
 21
542.469
  0
LINE
  8
0
 10
143.16
 20
542.469
 11
142.9
 21
542.403
  0
LINE
  8
0
 10
142.9
 20
542.403
 11
142.634
 21
542.369
  0
LINE
  8
0
 10
142.634
 20
542.369
 11
142.366
 21
542.369
  0
LINE
  8
0
 10
-142.634
 20
542.369
 11
-142.9
 21
542.403
  0
LINE
  8
0
 10
-142.9
 20
542.403
 11
-143.16
 21
542.469
  0
LINE
  8
0
 10
-143.16
 20
542.469
 11
-143.409
 21
542.568
  0
LINE
  8
0
 10
-143.409
 20
542.568
 11
-143.644
 21
542.697
  0
LINE
  8
0
 10
-143.644
 20
542.697
 11
-143.861
 21
542.855
  0
LINE
  8
0
 10
-143.861
 20
542.855
 11
-144.057
 21
543.038
  0
LINE
  8
0
 10
-144.057
 20
543.038
 11
-144.227
 21
543.245
  0
LINE
  8
0
 10
-144.227
 20
543.245
 11
-144.371
 21
543.471
  0
LINE
  8
0
 10
-144.371
 20
543.471
 11
-144.485
 21
543.714
  0
LINE
  8
0
 10
-144.485
 20
543.714
 11
-144.568
 21
543.969
  0
LINE
  8
0
 10
-144.568
 20
543.969
 11
-144.618
 21
544.232
  0
LINE
  8
0
 10
-144.618
 20
544.232
 11
-144.635
 21
544.5
  0
LINE
  8
0
 10
-144.635
 20
544.5
 11
-144.618
 21
544.768
  0
LINE
  8
0
 10
-144.618
 20
544.768
 11
-144.568
 21
545.031
  0
LINE
  8
0
 10
-144.568
 20
545.031
 11
-144.485
 21
545.286
  0
LINE
  8
0
 10
-144.485
 20
545.286
 11
-144.371
 21
545.529
  0
LINE
  8
0
 10
-144.371
 20
545.529
 11
-144.227
 21
545.755
  0
LINE
  8
0
 10
-144.227
 20
545.755
 11
-144.057
 21
545.962
  0
LINE
  8
0
 10
-144.057
 20
545.962
 11
-143.861
 21
546.145
  0
LINE
  8
0
 10
-143.861
 20
546.145
 11
-143.644
 21
546.303
  0
LINE
  8
0
 10
-143.644
 20
546.303
 11
-143.409
 21
546.432
  0
LINE
  8
0
 10
-143.409
 20
546.432
 11
-143.16
 21
546.531
  0
LINE
  8
0
 10
-143.16
 20
546.531
 11
-142.9
 21
546.597
  0
LINE
  8
0
 10
-142.9
 20
546.597
 11
-142.634
 21
546.631
  0
LINE
  8
0
 10
-142.634
 20
546.631
 11
-142.366
 21
546.631
  0
LINE
  8
0
 10
-142.366
 20
546.631
 11
-142.1
 21
546.597
  0
LINE
  8
0
 10
-142.1
 20
546.597
 11
-141.84
 21
546.531
  0
LINE
  8
0
 10
-141.84
 20
546.531
 11
-141.591
 21
546.432
  0
LINE
  8
0
 10
-141.591
 20
546.432
 11
-141.356
 21
546.303
  0
LINE
  8
0
 10
-141.356
 20
546.303
 11
-141.139
 21
546.145
  0
LINE
  8
0
 10
-141.139
 20
546.145
 11
-140.943
 21
545.962
  0
LINE
  8
0
 10
-140.943
 20
545.962
 11
-140.773
 21
545.755
  0
LINE
  8
0
 10
-140.773
 20
545.755
 11
-140.629
 21
545.529
  0
LINE
  8
0
 10
-140.629
 20
545.529
 11
-140.515
 21
545.286
  0
LINE
  8
0
 10
-140.515
 20
545.286
 11
-140.432
 21
545.031
  0
LINE
  8
0
 10
-140.432
 20
545.031
 11
-140.382
 21
544.768
  0
LINE
  8
0
 10
-140.382
 20
544.768
 11
-140.365
 21
544.5
  0
LINE
  8
0
 10
-140.365
 20
544.5
 11
-140.382
 21
544.232
  0
LINE
  8
0
 10
-140.382
 20
544.232
 11
-140.432
 21
543.969
  0
LINE
  8
0
 10
-140.432
 20
543.969
 11
-140.515
 21
543.714
  0
LINE
  8
0
 10
-140.515
 20
543.714
 11
-140.629
 21
543.471
  0
LINE
  8
0
 10
-140.629
 20
543.471
 11
-140.773
 21
543.245
  0
LINE
  8
0
 10
-140.773
 20
543.245
 11
-140.943
 21
543.038
  0
LINE
  8
0
 10
-140.943
 20
543.038
 11
-141.139
 21
542.855
  0
LINE
  8
0
 10
-141.139
 20
542.855
 11
-141.356
 21
542.697
  0
LINE
  8
0
 10
-141.356
 20
542.697
 11
-141.591
 21
542.568
  0
LINE
  8
0
 10
-141.591
 20
542.568
 11
-141.84
 21
542.469
  0
LINE
  8
0
 10
-141.84
 20
542.469
 11
-142.1
 21
542.403
  0
LINE
  8
0
 10
-142.1
 20
542.403
 11
-142.366
 21
542.369
  0
LINE
  8
0
 10
-142.366
 20
542.369
 11
-142.634
 21
542.369
  0
LINE
  8
0
 10
142.366
 20
407.369
 11
142.1
 21
407.403
  0
LINE
  8
0
 10
142.1
 20
407.403
 11
141.84
 21
407.469
  0
LINE
  8
0
 10
141.84
 20
407.469
 11
141.591
 21
407.568
  0
LINE
  8
0
 10
141.591
 20
407.568
 11
141.356
 21
407.697
  0
LINE
  8
0
 10
141.356
 20
407.697
 11
141.139
 21
407.855
  0
LINE
  8
0
 10
141.139
 20
407.855
 11
140.943
 21
408.038
  0
LINE
  8
0
 10
140.943
 20
408.038
 11
140.773
 21
408.245
  0
LINE
  8
0
 10
140.773
 20
408.245
 11
140.629
 21
408.471
  0
LINE
  8
0
 10
140.629
 20
408.471
 11
140.515
 21
408.714
  0
LINE
  8
0
 10
140.515
 20
408.714
 11
140.432
 21
408.969
  0
LINE
  8
0
 10
140.432
 20
408.969
 11
140.382
 21
409.232
  0
LINE
  8
0
 10
140.382
 20
409.232
 11
140.365
 21
409.5
  0
LINE
  8
0
 10
140.365
 20
409.5
 11
140.382
 21
409.768
  0
LINE
  8
0
 10
140.382
 20
409.768
 11
140.432
 21
410.031
  0
LINE
  8
0
 10
140.432
 20
410.031
 11
140.515
 21
410.286
  0
LINE
  8
0
 10
140.515
 20
410.286
 11
140.629
 21
410.529
  0
LINE
  8
0
 10
140.629
 20
410.529
 11
140.773
 21
410.755
  0
LINE
  8
0
 10
140.773
 20
410.755
 11
140.943
 21
410.962
  0
LINE
  8
0
 10
140.943
 20
410.962
 11
141.139
 21
411.145
  0
LINE
  8
0
 10
141.139
 20
411.145
 11
141.356
 21
411.303
  0
LINE
  8
0
 10
141.356
 20
411.303
 11
141.591
 21
411.432
  0
LINE
  8
0
 10
141.591
 20
411.432
 11
141.84
 21
411.531
  0
LINE
  8
0
 10
141.84
 20
411.531
 11
142.1
 21
411.597
  0
LINE
  8
0
 10
142.1
 20
411.597
 11
142.366
 21
411.631
  0
LINE
  8
0
 10
142.366
 20
411.631
 11
142.634
 21
411.631
  0
LINE
  8
0
 10
142.634
 20
411.631
 11
142.9
 21
411.597
  0
LINE
  8
0
 10
142.9
 20
411.597
 11
143.16
 21
411.531
  0
LINE
  8
0
 10
143.16
 20
411.531
 11
143.409
 21
411.432
  0
LINE
  8
0
 10
143.409
 20
411.432
 11
143.644
 21
411.303
  0
LINE
  8
0
 10
143.644
 20
411.303
 11
143.861
 21
411.145
  0
LINE
  8
0
 10
143.861
 20
411.145
 11
144.057
 21
410.962
  0
LINE
  8
0
 10
144.057
 20
410.962
 11
144.227
 21
410.755
  0
LINE
  8
0
 10
144.227
 20
410.755
 11
144.371
 21
410.529
  0
LINE
  8
0
 10
144.371
 20
410.529
 11
144.485
 21
410.286
  0
LINE
  8
0
 10
144.485
 20
410.286
 11
144.568
 21
410.031
  0
LINE
  8
0
 10
144.568
 20
410.031
 11
144.618
 21
409.768
  0
LINE
  8
0
 10
144.618
 20
409.768
 11
144.635
 21
409.5
  0
LINE
  8
0
 10
144.635
 20
409.5
 11
144.618
 21
409.232
  0
LINE
  8
0
 10
144.618
 20
409.232
 11
144.568
 21
408.969
  0
LINE
  8
0
 10
144.568
 20
408.969
 11
144.485
 21
408.714
  0
LINE
  8
0
 10
144.485
 20
408.714
 11
144.371
 21
408.471
  0
LINE
  8
0
 10
144.371
 20
408.471
 11
144.227
 21
408.245
  0
LINE
  8
0
 10
144.227
 20
408.245
 11
144.057
 21
408.038
  0
LINE
  8
0
 10
144.057
 20
408.038
 11
143.861
 21
407.855
  0
LINE
  8
0
 10
143.861
 20
407.855
 11
143.644
 21
407.697
  0
LINE
  8
0
 10
143.644
 20
407.697
 11
143.409
 21
407.568
  0
LINE
  8
0
 10
143.409
 20
407.568
 11
143.16
 21
407.469
  0
LINE
  8
0
 10
143.16
 20
407.469
 11
142.9
 21
407.403
  0
LINE
  8
0
 10
142.9
 20
407.403
 11
142.634
 21
407.369
  0
LINE
  8
0
 10
142.634
 20
407.369
 11
142.366
 21
407.369
  0
LINE
  8
0
 10
-142.634
 20
407.369
 11
-142.9
 21
407.403
  0
LINE
  8
0
 10
-142.9
 20
407.403
 11
-143.16
 21
407.469
  0
LINE
  8
0
 10
-143.16
 20
407.469
 11
-143.409
 21
407.568
  0
LINE
  8
0
 10
-143.409
 20
407.568
 11
-143.644
 21
407.697
  0
LINE
  8
0
 10
-143.644
 20
407.697
 11
-143.861
 21
407.855
  0
LINE
  8
0
 10
-143.861
 20
407.855
 11
-144.057
 21
408.038
  0
LINE
  8
0
 10
-144.057
 20
408.038
 11
-144.227
 21
408.245
  0
LINE
  8
0
 10
-144.227
 20
408.245
 11
-144.371
 21
408.471
  0
LINE
  8
0
 10
-144.371
 20
408.471
 11
-144.485
 21
408.714
  0
LINE
  8
0
 10
-144.485
 20
408.714
 11
-144.568
 21
408.969
  0
LINE
  8
0
 10
-144.568
 20
408.969
 11
-144.618
 21
409.232
  0
LINE
  8
0
 10
-144.618
 20
409.232
 11
-144.635
 21
409.5
  0
LINE
  8
0
 10
-144.635
 20
409.5
 11
-144.618
 21
409.768
  0
LINE
  8
0
 10
-144.618
 20
409.768
 11
-144.568
 21
410.031
  0
LINE
  8
0
 10
-144.568
 20
410.031
 11
-144.485
 21
410.286
  0
LINE
  8
0
 10
-144.485
 20
410.286
 11
-144.371
 21
410.529
  0
LINE
  8
0
 10
-144.371
 20
410.529
 11
-144.227
 21
410.755
  0
LINE
  8
0
 10
-144.227
 20
410.755
 11
-144.057
 21
410.962
  0
LINE
  8
0
 10
-144.057
 20
410.962
 11
-143.861
 21
411.145
  0
LINE
  8
0
 10
-143.861
 20
411.145
 11
-143.644
 21
411.303
  0
LINE
  8
0
 10
-143.644
 20
411.303
 11
-143.409
 21
411.432
  0
LINE
  8
0
 10
-143.409
 20
411.432
 11
-143.16
 21
411.531
  0
LINE
  8
0
 10
-143.16
 20
411.531
 11
-142.9
 21
411.597
  0
LINE
  8
0
 10
-142.9
 20
411.597
 11
-142.634
 21
411.631
  0
LINE
  8
0
 10
-142.634
 20
411.631
 11
-142.366
 21
411.631
  0
LINE
  8
0
 10
-142.366
 20
411.631
 11
-142.1
 21
411.597
  0
LINE
  8
0
 10
-142.1
 20
411.597
 11
-141.84
 21
411.531
  0
LINE
  8
0
 10
-141.84
 20
411.531
 11
-141.591
 21
411.432
  0
LINE
  8
0
 10
-141.591
 20
411.432
 11
-141.356
 21
411.303
  0
LINE
  8
0
 10
-141.356
 20
411.303
 11
-141.139
 21
411.145
  0
LINE
  8
0
 10
-141.139
 20
411.145
 11
-140.943
 21
410.962
  0
LINE
  8
0
 10
-140.943
 20
410.962
 11
-140.773
 21
410.755
  0
LINE
  8
0
 10
-140.773
 20
410.755
 11
-140.629
 21
410.529
  0
LINE
  8
0
 10
-140.629
 20
410.529
 11
-140.515
 21
410.286
  0
LINE
  8
0
 10
-140.515
 20
410.286
 11
-140.432
 21
410.031
  0
LINE
  8
0
 10
-140.432
 20
410.031
 11
-140.382
 21
409.768
  0
LINE
  8
0
 10
-140.382
 20
409.768
 11
-140.365
 21
409.5
  0
LINE
  8
0
 10
-140.365
 20
409.5
 11
-140.382
 21
409.232
  0
LINE
  8
0
 10
-140.382
 20
409.232
 11
-140.432
 21
408.969
  0
LINE
  8
0
 10
-140.432
 20
408.969
 11
-140.515
 21
408.714
  0
LINE
  8
0
 10
-140.515
 20
408.714
 11
-140.629
 21
408.471
  0
LINE
  8
0
 10
-140.629
 20
408.471
 11
-140.773
 21
408.245
  0
LINE
  8
0
 10
-140.773
 20
408.245
 11
-140.943
 21
408.038
  0
LINE
  8
0
 10
-140.943
 20
408.038
 11
-141.139
 21
407.855
  0
LINE
  8
0
 10
-141.139
 20
407.855
 11
-141.356
 21
407.697
  0
LINE
  8
0
 10
-141.356
 20
407.697
 11
-141.591
 21
407.568
  0
LINE
  8
0
 10
-141.591
 20
407.568
 11
-141.84
 21
407.469
  0
LINE
  8
0
 10
-141.84
 20
407.469
 11
-142.1
 21
407.403
  0
LINE
  8
0
 10
-142.1
 20
407.403
 11
-142.366
 21
407.369
  0
LINE
  8
0
 10
-142.366
 20
407.369
 11
-142.634
 21
407.369
  0
ENDSEC
  0
SECTION
  2
OBJECTS
  0
DICTIONARY
  0
ENDSEC
  0
EOF
