<?xml version="1.0" standalone="no"?>
<!DOCTYPE svg PUBLIC "-//W3C//DTD SVG 1.1//EN" "http://www.w3.org/Graphics/SVG/1.1/DTD/svg11.dtd">
<svg width="240mm" height="918mm" viewBox="-120 -1695 240 918" xmlns="http://www.w3.org/2000/svg" version="1.1">
<title>OpenSCAD Model</title>
<path d="
M 115.937,-1395.09 L 116.545,-1395.24 L 117.129,-1395.48 L 117.679,-1395.78 L 118.187,-1396.15 L 118.645,-1396.58
 L 119.045,-1397.06 L 119.382,-1397.59 L 119.649,-1398.16 L 119.843,-1398.76 L 119.961,-1399.37 L 120,-1400
 L 120,-1690 L 119.961,-1690.63 L 119.843,-1691.24 L 119.649,-1691.84 L 119.382,-1692.41 L 119.045,-1692.94
 L 118.645,-1693.42 L 118.187,-1693.85 L 117.679,-1694.22 L 117.129,-1694.52 L 116.545,-1694.76 L 115.937,-1694.91
 L 115.314,-1694.99 L -115.314,-1694.99 L -115.937,-1694.91 L -116.545,-1694.76 L -117.129,-1694.52 L -117.679,-1694.22
 L -118.187,-1693.85 L -118.645,-1693.42 L -119.045,-1692.94 L -119.382,-1692.41 L -119.649,-1691.84 L -119.843,-1691.24
 L -119.961,-1690.63 L -120,-1690 L -120,-1400 L -119.961,-1399.37 L -119.843,-1398.76 L -119.649,-1398.16
 L -119.382,-1397.59 L -119.045,-1397.06 L -118.645,-1396.58 L -118.187,-1396.15 L -117.679,-1395.78 L -117.129,-1395.48
 L -116.545,-1395.24 L -115.937,-1395.09 L -115.314,-1395.01 L 115.314,-1395.01 z
M -114.751,-1396.51 L -115.25,-1396.57 L -115.736,-1396.7 L -116.203,-1396.88 L -116.643,-1397.12 L -117.05,-1397.42
 L -117.416,-1397.76 L -117.736,-1398.15 L -118.005,-1398.57 L -118.219,-1399.03 L -118.374,-1399.51 L -118.468,-1400
 L -118.5,-1400.5 L -118.5,-1689.5 L -118.468,-1690 L -118.374,-1690.49 L -118.219,-1690.97 L -118.005,-1691.43
 L -117.736,-1691.85 L -117.416,-1692.24 L -117.05,-1692.58 L -116.643,-1692.88 L -116.203,-1693.12 L -115.736,-1693.3
 L -115.25,-1693.43 L -114.751,-1693.49 L 114.751,-1693.49 L 115.25,-1693.43 L 115.736,-1693.3 L 116.203,-1693.12
 L 116.643,-1692.88 L 117.05,-1692.58 L 117.416,-1692.24 L 117.736,-1691.85 L 118.005,-1691.43 L 118.219,-1690.97
 L 118.374,-1690.49 L 118.468,-1690 L 118.5,-1689.5 L 118.5,-1400.5 L 118.468,-1400 L 118.374,-1399.51
 L 118.219,-1399.03 L 118.005,-1398.57 L 117.736,-1398.15 L 117.416,-1397.76 L 117.05,-1397.42 L 116.643,-1397.12
 L 116.203,-1396.88 L 115.736,-1396.7 L 115.25,-1396.57 L 114.751,-1396.51 z
M 115.937,-1086.09 L 116.545,-1086.24 L 117.129,-1086.48 L 117.679,-1086.78 L 118.187,-1087.15 L 118.645,-1087.58
 L 119.045,-1088.06 L 119.382,-1088.59 L 119.649,-1089.16 L 119.843,-1089.76 L 119.961,-1090.37 L 120,-1091
 L 120,-1381 L 119.961,-1381.63 L 119.843,-1382.24 L 119.649,-1382.84 L 119.382,-1383.41 L 119.045,-1383.94
 L 118.645,-1384.42 L 118.187,-1384.85 L 117.679,-1385.22 L 117.129,-1385.52 L 116.545,-1385.76 L 115.937,-1385.91
 L 115.314,-1385.99 L -115.314,-1385.99 L -115.937,-1385.91 L -116.545,-1385.76 L -117.129,-1385.52 L -117.679,-1385.22
 L -118.187,-1384.85 L -118.645,-1384.42 L -119.045,-1383.94 L -119.382,-1383.41 L -119.649,-1382.84 L -119.843,-1382.24
 L -119.961,-1381.63 L -120,-1381 L -120,-1091 L -119.961,-1090.37 L -119.843,-1089.76 L -119.649,-1089.16
 L -119.382,-1088.59 L -119.045,-1088.06 L -118.645,-1087.58 L -118.187,-1087.15 L -117.679,-1086.78 L -117.129,-1086.48
 L -116.545,-1086.24 L -115.937,-1086.09 L -115.314,-1086.01 L 115.314,-1086.01 z
M -114.695,-1088.39 L -115.083,-1088.44 L -115.462,-1088.54 L -115.825,-1088.68 L -116.168,-1088.87 L -116.484,-1089.1
 L -116.769,-1089.37 L -117.018,-1089.67 L -117.228,-1090 L -117.394,-1090.35 L -117.515,-1090.73 L -117.588,-1091.11
 L -117.613,-1091.5 L -117.613,-1380.5 L -117.588,-1380.89 L -117.515,-1381.27 L -117.394,-1381.65 L -117.228,-1382
 L -117.018,-1382.33 L -116.769,-1382.63 L -116.484,-1382.9 L -116.168,-1383.13 L -115.825,-1383.32 L -115.462,-1383.46
 L -115.083,-1383.56 L -114.695,-1383.61 L 114.695,-1383.61 L 115.083,-1383.56 L 115.462,-1383.46 L 115.825,-1383.32
 L 116.168,-1383.13 L 116.484,-1382.9 L 116.769,-1382.63 L 117.018,-1382.33 L 117.228,-1382 L 117.394,-1381.65
 L 117.515,-1381.27 L 117.588,-1380.89 L 117.613,-1380.5 L 117.613,-1091.5 L 117.588,-1091.11 L 117.515,-1090.73
 L 117.394,-1090.35 L 117.228,-1090 L 117.018,-1089.67 L 116.769,-1089.37 L 116.484,-1089.1 L 116.168,-1088.87
 L 115.825,-1088.68 L 115.462,-1088.54 L 115.083,-1088.44 L 114.695,-1088.39 z
M 115.937,-777.089 L 116.545,-777.245 L 117.129,-777.476 L 117.679,-777.778 L 118.187,-778.147 L 118.645,-778.577
 L 119.045,-779.061 L 119.382,-779.591 L 119.649,-780.159 L 119.843,-780.757 L 119.961,-781.373 L 120,-782
 L 120,-1072 L 119.961,-1072.63 L 119.843,-1073.24 L 119.649,-1073.84 L 119.382,-1074.41 L 119.045,-1074.94
 L 118.645,-1075.42 L 118.187,-1075.85 L 117.679,-1076.22 L 117.129,-1076.52 L 116.545,-1076.76 L 115.937,-1076.91
 L 115.314,-1076.99 L -115.314,-1076.99 L -115.937,-1076.91 L -116.545,-1076.76 L -117.129,-1076.52 L -117.679,-1076.22
 L -118.187,-1075.85 L -118.645,-1075.42 L -119.045,-1074.94 L -119.382,-1074.41 L -119.649,-1073.84 L -119.843,-1073.24
 L -119.961,-1072.63 L -120,-1072 L -120,-782 L -119.961,-781.373 L -119.843,-780.757 L -119.649,-780.159
 L -119.382,-779.591 L -119.045,-779.061 L -118.645,-778.577 L -118.187,-778.147 L -117.679,-777.778 L -117.129,-777.476
 L -116.545,-777.245 L -115.937,-777.089 L -115.314,-777.01 L 115.314,-777.01 z
M 112.366,-1067.37 L 112.1,-1067.4 L 111.84,-1067.47 L 111.591,-1067.57 L 111.356,-1067.7 L 111.139,-1067.85
 L 110.943,-1068.04 L 110.773,-1068.24 L 110.629,-1068.47 L 110.515,-1068.71 L 110.432,-1068.97 L 110.382,-1069.23
 L 110.365,-1069.5 L 110.382,-1069.77 L 110.432,-1070.03 L 110.515,-1070.29 L 110.629,-1070.53 L 110.773,-1070.76
 L 110.943,-1070.96 L 111.139,-1071.15 L 111.356,-1071.3 L 111.591,-1071.43 L 111.84,-1071.53 L 112.1,-1071.6
 L 112.366,-1071.63 L 112.634,-1071.63 L 112.9,-1071.6 L 113.16,-1071.53 L 113.409,-1071.43 L 113.644,-1071.3
 L 113.861,-1071.15 L 114.057,-1070.96 L 114.227,-1070.76 L 114.371,-1070.53 L 114.485,-1070.29 L 114.568,-1070.03
 L 114.618,-1069.77 L 114.635,-1069.5 L 114.618,-1069.23 L 114.568,-1068.97 L 114.485,-1068.71 L 114.371,-1068.47
 L 114.227,-1068.24 L 114.057,-1068.04 L 113.861,-1067.85 L 113.644,-1067.7 L 113.409,-1067.57 L 113.16,-1067.47
 L 112.9,-1067.4 L 112.634,-1067.37 z
M -112.634,-1067.37 L -112.9,-1067.4 L -113.16,-1067.47 L -113.409,-1067.57 L -113.644,-1067.7 L -113.861,-1067.85
 L -114.057,-1068.04 L -114.227,-1068.24 L -114.371,-1068.47 L -114.485,-1068.71 L -114.568,-1068.97 L -114.618,-1069.23
 L -114.635,-1069.5 L -114.618,-1069.77 L -114.568,-1070.03 L -114.485,-1070.29 L -114.371,-1070.53 L -114.227,-1070.76
 L -114.057,-1070.96 L -113.861,-1071.15 L -113.644,-1071.3 L -113.409,-1071.43 L -113.16,-1071.53 L -112.9,-1071.6
 L -112.634,-1071.63 L -112.366,-1071.63 L -112.1,-1071.6 L -111.84,-1071.53 L -111.591,-1071.43 L -111.356,-1071.3
 L -111.139,-1071.15 L -110.943,-1070.96 L -110.773,-1070.76 L -110.629,-1070.53 L -110.515,-1070.29 L -110.432,-1070.03
 L -110.382,-1069.77 L -110.365,-1069.5 L -110.382,-1069.23 L -110.432,-1068.97 L -110.515,-1068.71 L -110.629,-1068.47
 L -110.773,-1068.24 L -110.943,-1068.04 L -111.139,-1067.85 L -111.356,-1067.7 L -111.591,-1067.57 L -111.84,-1067.47
 L -112.1,-1067.4 L -112.366,-1067.37 z
M 112.366,-782.369 L 112.1,-782.403 L 111.84,-782.469 L 111.591,-782.568 L 111.356,-782.697 L 111.139,-782.855
 L 110.943,-783.038 L 110.773,-783.245 L 110.629,-783.471 L 110.515,-783.714 L 110.432,-783.969 L 110.382,-784.232
 L 110.365,-784.5 L 110.382,-784.768 L 110.432,-785.031 L 110.515,-785.286 L 110.629,-785.529 L 110.773,-785.755
 L 110.943,-785.962 L 111.139,-786.145 L 111.356,-786.303 L 111.591,-786.432 L 111.84,-786.531 L 112.1,-786.597
 L 112.366,-786.631 L 112.634,-786.631 L 112.9,-786.597 L 113.16,-786.531 L 113.409,-786.432 L 113.644,-786.303
 L 113.861,-786.145 L 114.057,-785.962 L 114.227,-785.755 L 114.371,-785.529 L 114.485,-785.286 L 114.568,-785.031
 L 114.618,-784.768 L 114.635,-784.5 L 114.618,-784.232 L 114.568,-783.969 L 114.485,-783.714 L 114.371,-783.471
 L 114.227,-783.245 L 114.057,-783.038 L 113.861,-782.855 L 113.644,-782.697 L 113.409,-782.568 L 113.16,-782.469
 L 112.9,-782.403 L 112.634,-782.369 z
M -112.634,-782.369 L -112.9,-782.403 L -113.16,-782.469 L -113.409,-782.568 L -113.644,-782.697 L -113.861,-782.855
 L -114.057,-783.038 L -114.227,-783.245 L -114.371,-783.471 L -114.485,-783.714 L -114.568,-783.969 L -114.618,-784.232
 L -114.635,-784.5 L -114.618,-784.768 L -114.568,-785.031 L -114.485,-785.286 L -114.371,-785.529 L -114.227,-785.755
 L -114.057,-785.962 L -113.861,-786.145 L -113.644,-786.303 L -113.409,-786.432 L -113.16,-786.531 L -112.9,-786.597
 L -112.634,-786.631 L -112.366,-786.631 L -112.1,-786.597 L -111.84,-786.531 L -111.591,-786.432 L -111.356,-786.303
 L -111.139,-786.145 L -110.943,-785.962 L -110.773,-785.755 L -110.629,-785.529 L -110.515,-785.286 L -110.432,-785.031
 L -110.382,-784.768 L -110.365,-784.5 L -110.382,-784.232 L -110.432,-783.969 L -110.515,-783.714 L -110.629,-783.471
 L -110.773,-783.245 L -110.943,-783.038 L -111.139,-782.855 L -111.356,-782.697 L -111.591,-782.568 L -111.84,-782.469
 L -112.1,-782.403 L -112.366,-782.369 z
" stroke="black" fill="lightgray" stroke-width="0.5"/>
</svg>
