<?xml version="1.0" standalone="no"?>
<!DOCTYPE svg PUBLIC "-//W3C//DTD SVG 1.1//EN" "http://www.w3.org/Graphics/SVG/1.1/DTD/svg11.dtd">
<svg width="257mm" height="334mm" viewBox="-129 -623 257 334" xmlns="http://www.w3.org/2000/svg" version="1.1">
<title>OpenSCAD Model</title>
<path d="
M -126,-518.941 L -125.687,-518.647 L -125.179,-518.278 L -124.629,-517.976 L -124.045,-517.745 L -123.437,-517.589
 L -122.814,-517.51 L 122.814,-517.51 L 123.437,-517.589 L 124.045,-517.745 L 124.629,-517.976 L 125.179,-518.278
 L 125.687,-518.647 L 126.145,-519.077 L 126.545,-519.561 L 126.882,-520.091 L 127.149,-520.659 L 127.343,-521.257
 L 127.461,-521.873 L 127.5,-522.5 L 127.5,-617.5 L 127.461,-618.127 L 127.343,-618.743 L 127.149,-619.341
 L 126.882,-619.909 L 126.545,-620.439 L 126.145,-620.923 L 125.687,-621.353 L 125.179,-621.722 L 124.629,-622.024
 L 124.045,-622.255 L 123.437,-622.411 L 122.814,-622.49 L -122.814,-622.49 L -123.437,-622.411 L -124.045,-622.255
 L -124.629,-622.024 L -125.179,-621.722 L -125.687,-621.353 L -126,-621.059 L -126,-622.49 L -129,-622.49
 L -129,-517.51 L -126,-517.51 z
M -122.251,-519.008 L -122.75,-519.071 L -123.236,-519.196 L -123.703,-519.381 L -124.143,-519.623 L -124.55,-519.918
 L -124.916,-520.262 L -125.236,-520.649 L -125.505,-521.073 L -125.719,-521.528 L -125.874,-522.005 L -125.968,-522.499
 L -126,-523 L -126,-617 L -125.968,-617.501 L -125.874,-617.995 L -125.719,-618.472 L -125.505,-618.927
 L -125.236,-619.351 L -124.916,-619.738 L -124.55,-620.082 L -124.143,-620.377 L -123.703,-620.619 L -123.236,-620.804
 L -122.75,-620.929 L -122.251,-620.992 L 122.251,-620.992 L 122.75,-620.929 L 123.236,-620.804 L 123.703,-620.619
 L 124.143,-620.377 L 124.55,-620.082 L 124.916,-619.738 L 125.236,-619.351 L 125.505,-618.927 L 125.719,-618.472
 L 125.874,-617.995 L 125.968,-617.501 L 126,-617 L 126,-523 L 125.968,-522.499 L 125.874,-522.005
 L 125.719,-521.528 L 125.505,-521.073 L 125.236,-520.649 L 124.916,-520.262 L 124.55,-519.918 L 124.143,-519.623
 L 123.703,-519.381 L 123.236,-519.196 L 122.75,-519.071 L 122.251,-519.008 z
M 123.437,-403.589 L 124.045,-403.745 L 124.629,-403.976 L 125.179,-404.278 L 125.687,-404.647 L 126.145,-405.077
 L 126.545,-405.561 L 126.882,-406.091 L 127.149,-406.659 L 127.343,-407.257 L 127.461,-407.873 L 127.5,-408.5
 L 127.5,-503.5 L 127.461,-504.127 L 127.343,-504.743 L 127.149,-505.341 L 126.882,-505.909 L 126.545,-506.439
 L 126.145,-506.923 L 125.687,-507.353 L 125.179,-507.722 L 124.629,-508.024 L 124.045,-508.255 L 123.437,-508.411
 L 122.814,-508.49 L -122.814,-508.49 L -123.437,-508.411 L -124.045,-508.255 L -124.629,-508.024 L -125.179,-507.722
 L -125.687,-507.353 L -126,-507.059 L -126,-508.479 L -129,-508.479 L -129,-403.521 L -126,-403.521
 L -126,-404.941 L -125.687,-404.647 L -125.179,-404.278 L -124.629,-403.976 L -124.045,-403.745 L -123.437,-403.589
 L -122.814,-403.51 L 122.814,-403.51 z
M -122.195,-405.893 L -122.583,-405.942 L -122.962,-406.039 L -123.325,-406.183 L -123.668,-406.372 L -123.984,-406.601
 L -124.269,-406.869 L -124.518,-407.17 L -124.728,-407.5 L -124.894,-407.854 L -125.015,-408.226 L -125.088,-408.61
 L -125.113,-409 L -125.113,-503 L -125.088,-503.39 L -125.015,-503.774 L -124.894,-504.146 L -124.728,-504.5
 L -124.518,-504.83 L -124.269,-505.131 L -123.984,-505.399 L -123.668,-505.628 L -123.325,-505.817 L -122.962,-505.961
 L -122.583,-506.058 L -122.195,-506.107 L 122.195,-506.107 L 122.583,-506.058 L 122.962,-505.961 L 123.325,-505.817
 L 123.668,-505.628 L 123.984,-505.399 L 124.269,-505.131 L 124.518,-504.83 L 124.728,-504.5 L 124.894,-504.146
 L 125.015,-503.774 L 125.088,-503.39 L 125.113,-503 L 125.113,-409 L 125.088,-408.61 L 125.015,-408.226
 L 124.894,-407.854 L 124.728,-407.5 L 124.518,-407.17 L 124.269,-406.869 L 123.984,-406.601 L 123.668,-406.372
 L 123.325,-406.183 L 122.962,-406.039 L 122.583,-405.942 L 122.195,-405.893 z
M 123.437,-289.589 L 124.045,-289.745 L 124.629,-289.976 L 125.179,-290.278 L 125.687,-290.647 L 126.145,-291.077
 L 126.545,-291.561 L 126.882,-292.091 L 127.149,-292.659 L 127.343,-293.257 L 127.461,-293.873 L 127.5,-294.5
 L 127.5,-389.5 L 127.461,-390.127 L 127.343,-390.743 L 127.149,-391.341 L 126.882,-391.909 L 126.545,-392.439
 L 126.145,-392.923 L 125.687,-393.353 L 125.179,-393.722 L 124.629,-394.024 L 124.045,-394.255 L 123.437,-394.411
 L 122.814,-394.49 L -122.814,-394.49 L -123.437,-394.411 L -124.045,-394.255 L -124.629,-394.024 L -125.179,-393.722
 L -125.687,-393.353 L -126,-393.059 L -126,-393.153 L -129,-393.153 L -129,-290.847 L -126,-290.847
 L -126,-290.941 L -125.687,-290.647 L -125.179,-290.278 L -124.629,-289.976 L -124.045,-289.745 L -123.437,-289.589
 L -122.814,-289.51 L 122.814,-289.51 z
M 119.866,-384.869 L 119.6,-384.903 L 119.34,-384.969 L 119.091,-385.068 L 118.856,-385.197 L 118.639,-385.355
 L 118.443,-385.538 L 118.273,-385.745 L 118.129,-385.971 L 118.015,-386.214 L 117.932,-386.469 L 117.882,-386.732
 L 117.865,-387 L 117.882,-387.268 L 117.932,-387.531 L 118.015,-387.786 L 118.129,-388.029 L 118.273,-388.255
 L 118.443,-388.462 L 118.639,-388.645 L 118.856,-388.803 L 119.091,-388.932 L 119.34,-389.031 L 119.6,-389.097
 L 119.866,-389.131 L 120.134,-389.131 L 120.4,-389.097 L 120.66,-389.031 L 120.909,-388.932 L 121.144,-388.803
 L 121.361,-388.645 L 121.557,-388.462 L 121.727,-388.255 L 121.871,-388.029 L 121.985,-387.786 L 122.068,-387.531
 L 122.118,-387.268 L 122.135,-387 L 122.118,-386.732 L 122.068,-386.469 L 121.985,-386.214 L 121.871,-385.971
 L 121.727,-385.745 L 121.557,-385.538 L 121.361,-385.355 L 121.144,-385.197 L 120.909,-385.068 L 120.66,-384.969
 L 120.4,-384.903 L 120.134,-384.869 z
M -120.134,-384.869 L -120.4,-384.903 L -120.66,-384.969 L -120.909,-385.068 L -121.144,-385.197 L -121.361,-385.355
 L -121.557,-385.538 L -121.727,-385.745 L -121.871,-385.971 L -121.985,-386.214 L -122.068,-386.469 L -122.118,-386.732
 L -122.135,-387 L -122.118,-387.268 L -122.068,-387.531 L -121.985,-387.786 L -121.871,-388.029 L -121.727,-388.255
 L -121.557,-388.462 L -121.361,-388.645 L -121.144,-388.803 L -120.909,-388.932 L -120.66,-389.031 L -120.4,-389.097
 L -120.134,-389.131 L -119.866,-389.131 L -119.6,-389.097 L -119.34,-389.031 L -119.091,-388.932 L -118.856,-388.803
 L -118.639,-388.645 L -118.443,-388.462 L -118.273,-388.255 L -118.129,-388.029 L -118.015,-387.786 L -117.932,-387.531
 L -117.882,-387.268 L -117.865,-387 L -117.882,-386.732 L -117.932,-386.469 L -118.015,-386.214 L -118.129,-385.971
 L -118.273,-385.745 L -118.443,-385.538 L -118.639,-385.355 L -118.856,-385.197 L -119.091,-385.068 L -119.34,-384.969
 L -119.6,-384.903 L -119.866,-384.869 z
M 119.866,-294.869 L 119.6,-294.903 L 119.34,-294.969 L 119.091,-295.068 L 118.856,-295.197 L 118.639,-295.355
 L 118.443,-295.538 L 118.273,-295.745 L 118.129,-295.971 L 118.015,-296.214 L 117.932,-296.469 L 117.882,-296.732
 L 117.865,-297 L 117.882,-297.268 L 117.932,-297.531 L 118.015,-297.786 L 118.129,-298.029 L 118.273,-298.255
 L 118.443,-298.462 L 118.639,-298.645 L 118.856,-298.803 L 119.091,-298.932 L 119.34,-299.031 L 119.6,-299.097
 L 119.866,-299.131 L 120.134,-299.131 L 120.4,-299.097 L 120.66,-299.031 L 120.909,-298.932 L 121.144,-298.803
 L 121.361,-298.645 L 121.557,-298.462 L 121.727,-298.255 L 121.871,-298.029 L 121.985,-297.786 L 122.068,-297.531
 L 122.118,-297.268 L 122.135,-297 L 122.118,-296.732 L 122.068,-296.469 L 121.985,-296.214 L 121.871,-295.971
 L 121.727,-295.745 L 121.557,-295.538 L 121.361,-295.355 L 121.144,-295.197 L 120.909,-295.068 L 120.66,-294.969
 L 120.4,-294.903 L 120.134,-294.869 z
M -120.134,-294.869 L -120.4,-294.903 L -120.66,-294.969 L -120.909,-295.068 L -121.144,-295.197 L -121.361,-295.355
 L -121.557,-295.538 L -121.727,-295.745 L -121.871,-295.971 L -121.985,-296.214 L -122.068,-296.469 L -122.118,-296.732
 L -122.135,-297 L -122.118,-297.268 L -122.068,-297.531 L -121.985,-297.786 L -121.871,-298.029 L -121.727,-298.255
 L -121.557,-298.462 L -121.361,-298.645 L -121.144,-298.803 L -120.909,-298.932 L -120.66,-299.031 L -120.4,-299.097
 L -120.134,-299.131 L -119.866,-299.131 L -119.6,-299.097 L -119.34,-299.031 L -119.091,-298.932 L -118.856,-298.803
 L -118.639,-298.645 L -118.443,-298.462 L -118.273,-298.255 L -118.129,-298.029 L -118.015,-297.786 L -117.932,-297.531
 L -117.882,-297.268 L -117.865,-297 L -117.882,-296.732 L -117.932,-296.469 L -118.015,-296.214 L -118.129,-295.971
 L -118.273,-295.745 L -118.443,-295.538 L -118.639,-295.355 L -118.856,-295.197 L -119.091,-295.068 L -119.34,-294.969
 L -119.6,-294.903 L -119.866,-294.869 z
" stroke="black" fill="lightgray" stroke-width="0.5"/>
</svg>
