  0
SECTION
  2
BLOCKS
  0
ENDSEC
  0
SECTION
  2
ENTITIES
  0
LINE
  8
0
 10
123.437
 20
333.089
 11
124.045
 21
333.245
  0
LINE
  8
0
 10
124.045
 20
333.245
 11
124.629
 21
333.476
  0
LINE
  8
0
 10
124.629
 20
333.476
 11
125.179
 21
333.778
  0
LINE
  8
0
 10
125.179
 20
333.778
 11
125.687
 21
334.147
  0
LINE
  8
0
 10
125.687
 20
334.147
 11
126.145
 21
334.577
  0
LINE
  8
0
 10
126.145
 20
334.577
 11
126.545
 21
335.061
  0
LINE
  8
0
 10
126.545
 20
335.061
 11
126.882
 21
335.591
  0
LINE
  8
0
 10
126.882
 20
335.591
 11
127.149
 21
336.159
  0
LINE
  8
0
 10
127.149
 20
336.159
 11
127.343
 21
336.757
  0
LINE
  8
0
 10
127.343
 20
336.757
 11
127.461
 21
337.373
  0
LINE
  8
0
 10
127.461
 20
337.373
 11
127.5
 21
338
  0
LINE
  8
0
 10
127.5
 20
338
 11
127.5
 21
538
  0
LINE
  8
0
 10
127.5
 20
538
 11
127.461
 21
538.627
  0
LINE
  8
0
 10
127.461
 20
538.627
 11
127.343
 21
539.243
  0
LINE
  8
0
 10
127.343
 20
539.243
 11
127.149
 21
539.841
  0
LINE
  8
0
 10
127.149
 20
539.841
 11
126.882
 21
540.409
  0
LINE
  8
0
 10
126.882
 20
540.409
 11
126.545
 21
540.939
  0
LINE
  8
0
 10
126.545
 20
540.939
 11
126.145
 21
541.423
  0
LINE
  8
0
 10
126.145
 20
541.423
 11
125.687
 21
541.853
  0
LINE
  8
0
 10
125.687
 20
541.853
 11
125.179
 21
542.222
  0
LINE
  8
0
 10
125.179
 20
542.222
 11
124.629
 21
542.524
  0
LINE
  8
0
 10
124.629
 20
542.524
 11
124.045
 21
542.755
  0
LINE
  8
0
 10
124.045
 20
542.755
 11
123.437
 21
542.911
  0
LINE
  8
0
 10
123.437
 20
542.911
 11
122.814
 21
542.99
  0
LINE
  8
0
 10
122.814
 20
542.99
 11
-122.814
 21
542.99
  0
LINE
  8
0
 10
-122.814
 20
542.99
 11
-123.437
 21
542.911
  0
LINE
  8
0
 10
-123.437
 20
542.911
 11
-124.045
 21
542.755
  0
LINE
  8
0
 10
-124.045
 20
542.755
 11
-124.629
 21
542.524
  0
LINE
  8
0
 10
-124.629
 20
542.524
 11
-125.179
 21
542.222
  0
LINE
  8
0
 10
-125.179
 20
542.222
 11
-125.687
 21
541.853
  0
LINE
  8
0
 10
-125.687
 20
541.853
 11
-126
 21
541.559
  0
LINE
  8
0
 10
-126
 20
541.559
 11
-126
 21
542.615
  0
LINE
  8
0
 10
-126
 20
542.615
 11
-129
 21
542.615
  0
LINE
  8
0
 10
-129
 20
542.615
 11
-129
 21
333.385
  0
LINE
  8
0
 10
-129
 20
333.385
 11
-126
 21
333.385
  0
LINE
  8
0
 10
-126
 20
333.385
 11
-126
 21
334.441
  0
LINE
  8
0
 10
-126
 20
334.441
 11
-125.687
 21
334.147
  0
LINE
  8
0
 10
-125.687
 20
334.147
 11
-125.179
 21
333.778
  0
LINE
  8
0
 10
-125.179
 20
333.778
 11
-124.629
 21
333.476
  0
LINE
  8
0
 10
-124.629
 20
333.476
 11
-124.045
 21
333.245
  0
LINE
  8
0
 10
-124.045
 20
333.245
 11
-123.437
 21
333.089
  0
LINE
  8
0
 10
-123.437
 20
333.089
 11
-122.814
 21
333.01
  0
LINE
  8
0
 10
-122.814
 20
333.01
 11
122.814
 21
333.01
  0
LINE
  8
0
 10
122.814
 20
333.01
 11
123.437
 21
333.089
  0
LINE
  8
0
 10
119.849
 20
533.105
 11
119.55
 21
533.143
  0
LINE
  8
0
 10
119.55
 20
533.143
 11
119.258
 21
533.217
  0
LINE
  8
0
 10
119.258
 20
533.217
 11
118.978
 21
533.328
  0
LINE
  8
0
 10
118.978
 20
533.328
 11
118.714
 21
533.474
  0
LINE
  8
0
 10
118.714
 20
533.474
 11
118.47
 21
533.651
  0
LINE
  8
0
 10
118.47
 20
533.651
 11
118.25
 21
533.857
  0
LINE
  8
0
 10
118.25
 20
533.857
 11
118.058
 21
534.089
  0
LINE
  8
0
 10
118.058
 20
534.089
 11
117.897
 21
534.344
  0
LINE
  8
0
 10
117.897
 20
534.344
 11
117.769
 21
534.617
  0
LINE
  8
0
 10
117.769
 20
534.617
 11
117.675
 21
534.903
  0
LINE
  8
0
 10
117.675
 20
534.903
 11
117.619
 21
535.199
  0
LINE
  8
0
 10
117.619
 20
535.199
 11
117.6
 21
535.5
  0
LINE
  8
0
 10
117.6
 20
535.5
 11
117.619
 21
535.801
  0
LINE
  8
0
 10
117.619
 20
535.801
 11
117.675
 21
536.097
  0
LINE
  8
0
 10
117.675
 20
536.097
 11
117.769
 21
536.383
  0
LINE
  8
0
 10
117.769
 20
536.383
 11
117.897
 21
536.656
  0
LINE
  8
0
 10
117.897
 20
536.656
 11
118.058
 21
536.911
  0
LINE
  8
0
 10
118.058
 20
536.911
 11
118.25
 21
537.143
  0
LINE
  8
0
 10
118.25
 20
537.143
 11
118.47
 21
537.349
  0
LINE
  8
0
 10
118.47
 20
537.349
 11
118.714
 21
537.526
  0
LINE
  8
0
 10
118.714
 20
537.526
 11
118.978
 21
537.672
  0
LINE
  8
0
 10
118.978
 20
537.672
 11
119.258
 21
537.783
  0
LINE
  8
0
 10
119.258
 20
537.783
 11
119.55
 21
537.857
  0
LINE
  8
0
 10
119.55
 20
537.857
 11
119.849
 21
537.895
  0
LINE
  8
0
 10
119.849
 20
537.895
 11
120.151
 21
537.895
  0
LINE
  8
0
 10
120.151
 20
537.895
 11
120.45
 21
537.857
  0
LINE
  8
0
 10
120.45
 20
537.857
 11
120.742
 21
537.783
  0
LINE
  8
0
 10
120.742
 20
537.783
 11
121.022
 21
537.672
  0
LINE
  8
0
 10
121.022
 20
537.672
 11
121.286
 21
537.526
  0
LINE
  8
0
 10
121.286
 20
537.526
 11
121.53
 21
537.349
  0
LINE
  8
0
 10
121.53
 20
537.349
 11
121.75
 21
537.143
  0
LINE
  8
0
 10
121.75
 20
537.143
 11
121.942
 21
536.911
  0
LINE
  8
0
 10
121.942
 20
536.911
 11
122.103
 21
536.656
  0
LINE
  8
0
 10
122.103
 20
536.656
 11
122.231
 21
536.383
  0
LINE
  8
0
 10
122.231
 20
536.383
 11
122.325
 21
536.097
  0
LINE
  8
0
 10
122.325
 20
536.097
 11
122.381
 21
535.801
  0
LINE
  8
0
 10
122.381
 20
535.801
 11
122.4
 21
535.5
  0
LINE
  8
0
 10
122.4
 20
535.5
 11
122.381
 21
535.199
  0
LINE
  8
0
 10
122.381
 20
535.199
 11
122.325
 21
534.903
  0
LINE
  8
0
 10
122.325
 20
534.903
 11
122.231
 21
534.617
  0
LINE
  8
0
 10
122.231
 20
534.617
 11
122.103
 21
534.344
  0
LINE
  8
0
 10
122.103
 20
534.344
 11
121.942
 21
534.089
  0
LINE
  8
0
 10
121.942
 20
534.089
 11
121.75
 21
533.857
  0
LINE
  8
0
 10
121.75
 20
533.857
 11
121.53
 21
533.651
  0
LINE
  8
0
 10
121.53
 20
533.651
 11
121.286
 21
533.474
  0
LINE
  8
0
 10
121.286
 20
533.474
 11
121.022
 21
533.328
  0
LINE
  8
0
 10
121.022
 20
533.328
 11
120.742
 21
533.217
  0
LINE
  8
0
 10
120.742
 20
533.217
 11
120.45
 21
533.143
  0
LINE
  8
0
 10
120.45
 20
533.143
 11
120.151
 21
533.105
  0
LINE
  8
0
 10
120.151
 20
533.105
 11
119.849
 21
533.105
  0
LINE
  8
0
 10
-120.151
 20
533.105
 11
-120.45
 21
533.143
  0
LINE
  8
0
 10
-120.45
 20
533.143
 11
-120.742
 21
533.217
  0
LINE
  8
0
 10
-120.742
 20
533.217
 11
-121.022
 21
533.328
  0
LINE
  8
0
 10
-121.022
 20
533.328
 11
-121.286
 21
533.474
  0
LINE
  8
0
 10
-121.286
 20
533.474
 11
-121.53
 21
533.651
  0
LINE
  8
0
 10
-121.53
 20
533.651
 11
-121.75
 21
533.857
  0
LINE
  8
0
 10
-121.75
 20
533.857
 11
-121.942
 21
534.089
  0
LINE
  8
0
 10
-121.942
 20
534.089
 11
-122.103
 21
534.344
  0
LINE
  8
0
 10
-122.103
 20
534.344
 11
-122.231
 21
534.617
  0
LINE
  8
0
 10
-122.231
 20
534.617
 11
-122.325
 21
534.903
  0
LINE
  8
0
 10
-122.325
 20
534.903
 11
-122.381
 21
535.199
  0
LINE
  8
0
 10
-122.381
 20
535.199
 11
-122.4
 21
535.5
  0
LINE
  8
0
 10
-122.4
 20
535.5
 11
-122.381
 21
535.801
  0
LINE
  8
0
 10
-122.381
 20
535.801
 11
-122.325
 21
536.097
  0
LINE
  8
0
 10
-122.325
 20
536.097
 11
-122.231
 21
536.383
  0
LINE
  8
0
 10
-122.231
 20
536.383
 11
-122.103
 21
536.656
  0
LINE
  8
0
 10
-122.103
 20
536.656
 11
-121.942
 21
536.911
  0
LINE
  8
0
 10
-121.942
 20
536.911
 11
-121.75
 21
537.143
  0
LINE
  8
0
 10
-121.75
 20
537.143
 11
-121.53
 21
537.349
  0
LINE
  8
0
 10
-121.53
 20
537.349
 11
-121.286
 21
537.526
  0
LINE
  8
0
 10
-121.286
 20
537.526
 11
-121.022
 21
537.672
  0
LINE
  8
0
 10
-121.022
 20
537.672
 11
-120.742
 21
537.783
  0
LINE
  8
0
 10
-120.742
 20
537.783
 11
-120.45
 21
537.857
  0
LINE
  8
0
 10
-120.45
 20
537.857
 11
-120.151
 21
537.895
  0
LINE
  8
0
 10
-120.151
 20
537.895
 11
-119.849
 21
537.895
  0
LINE
  8
0
 10
-119.849
 20
537.895
 11
-119.55
 21
537.857
  0
LINE
  8
0
 10
-119.55
 20
537.857
 11
-119.258
 21
537.783
  0
LINE
  8
0
 10
-119.258
 20
537.783
 11
-118.978
 21
537.672
  0
LINE
  8
0
 10
-118.978
 20
537.672
 11
-118.714
 21
537.526
  0
LINE
  8
0
 10
-118.714
 20
537.526
 11
-118.47
 21
537.349
  0
LINE
  8
0
 10
-118.47
 20
537.349
 11
-118.25
 21
537.143
  0
LINE
  8
0
 10
-118.25
 20
537.143
 11
-118.058
 21
536.911
  0
LINE
  8
0
 10
-118.058
 20
536.911
 11
-117.897
 21
536.656
  0
LINE
  8
0
 10
-117.897
 20
536.656
 11
-117.769
 21
536.383
  0
LINE
  8
0
 10
-117.769
 20
536.383
 11
-117.675
 21
536.097
  0
LINE
  8
0
 10
-117.675
 20
536.097
 11
-117.619
 21
535.801
  0
LINE
  8
0
 10
-117.619
 20
535.801
 11
-117.6
 21
535.5
  0
LINE
  8
0
 10
-117.6
 20
535.5
 11
-117.619
 21
535.199
  0
LINE
  8
0
 10
-117.619
 20
535.199
 11
-117.675
 21
534.903
  0
LINE
  8
0
 10
-117.675
 20
534.903
 11
-117.769
 21
534.617
  0
LINE
  8
0
 10
-117.769
 20
534.617
 11
-117.897
 21
534.344
  0
LINE
  8
0
 10
-117.897
 20
534.344
 11
-118.058
 21
534.089
  0
LINE
  8
0
 10
-118.058
 20
534.089
 11
-118.25
 21
533.857
  0
LINE
  8
0
 10
-118.25
 20
533.857
 11
-118.47
 21
533.651
  0
LINE
  8
0
 10
-118.47
 20
533.651
 11
-118.714
 21
533.474
  0
LINE
  8
0
 10
-118.714
 20
533.474
 11
-118.978
 21
533.328
  0
LINE
  8
0
 10
-118.978
 20
533.328
 11
-119.258
 21
533.217
  0
LINE
  8
0
 10
-119.258
 20
533.217
 11
-119.55
 21
533.143
  0
LINE
  8
0
 10
-119.55
 20
533.143
 11
-119.849
 21
533.105
  0
LINE
  8
0
 10
-119.849
 20
533.105
 11
-120.151
 21
533.105
  0
LINE
  8
0
 10
119.849
 20
338.105
 11
119.55
 21
338.143
  0
LINE
  8
0
 10
119.55
 20
338.143
 11
119.258
 21
338.217
  0
LINE
  8
0
 10
119.258
 20
338.217
 11
118.978
 21
338.328
  0
LINE
  8
0
 10
118.978
 20
338.328
 11
118.714
 21
338.474
  0
LINE
  8
0
 10
118.714
 20
338.474
 11
118.47
 21
338.651
  0
LINE
  8
0
 10
118.47
 20
338.651
 11
118.25
 21
338.857
  0
LINE
  8
0
 10
118.25
 20
338.857
 11
118.058
 21
339.089
  0
LINE
  8
0
 10
118.058
 20
339.089
 11
117.897
 21
339.344
  0
LINE
  8
0
 10
117.897
 20
339.344
 11
117.769
 21
339.617
  0
LINE
  8
0
 10
117.769
 20
339.617
 11
117.675
 21
339.903
  0
LINE
  8
0
 10
117.675
 20
339.903
 11
117.619
 21
340.199
  0
LINE
  8
0
 10
117.619
 20
340.199
 11
117.6
 21
340.5
  0
LINE
  8
0
 10
117.6
 20
340.5
 11
117.619
 21
340.801
  0
LINE
  8
0
 10
117.619
 20
340.801
 11
117.675
 21
341.097
  0
LINE
  8
0
 10
117.675
 20
341.097
 11
117.769
 21
341.383
  0
LINE
  8
0
 10
117.769
 20
341.383
 11
117.897
 21
341.656
  0
LINE
  8
0
 10
117.897
 20
341.656
 11
118.058
 21
341.911
  0
LINE
  8
0
 10
118.058
 20
341.911
 11
118.25
 21
342.143
  0
LINE
  8
0
 10
118.25
 20
342.143
 11
118.47
 21
342.349
  0
LINE
  8
0
 10
118.47
 20
342.349
 11
118.714
 21
342.526
  0
LINE
  8
0
 10
118.714
 20
342.526
 11
118.978
 21
342.672
  0
LINE
  8
0
 10
118.978
 20
342.672
 11
119.258
 21
342.783
  0
LINE
  8
0
 10
119.258
 20
342.783
 11
119.55
 21
342.857
  0
LINE
  8
0
 10
119.55
 20
342.857
 11
119.849
 21
342.895
  0
LINE
  8
0
 10
119.849
 20
342.895
 11
120.151
 21
342.895
  0
LINE
  8
0
 10
120.151
 20
342.895
 11
120.45
 21
342.857
  0
LINE
  8
0
 10
120.45
 20
342.857
 11
120.742
 21
342.783
  0
LINE
  8
0
 10
120.742
 20
342.783
 11
121.022
 21
342.672
  0
LINE
  8
0
 10
121.022
 20
342.672
 11
121.286
 21
342.526
  0
LINE
  8
0
 10
121.286
 20
342.526
 11
121.53
 21
342.349
  0
LINE
  8
0
 10
121.53
 20
342.349
 11
121.75
 21
342.143
  0
LINE
  8
0
 10
121.75
 20
342.143
 11
121.942
 21
341.911
  0
LINE
  8
0
 10
121.942
 20
341.911
 11
122.103
 21
341.656
  0
LINE
  8
0
 10
122.103
 20
341.656
 11
122.231
 21
341.383
  0
LINE
  8
0
 10
122.231
 20
341.383
 11
122.325
 21
341.097
  0
LINE
  8
0
 10
122.325
 20
341.097
 11
122.381
 21
340.801
  0
LINE
  8
0
 10
122.381
 20
340.801
 11
122.4
 21
340.5
  0
LINE
  8
0
 10
122.4
 20
340.5
 11
122.381
 21
340.199
  0
LINE
  8
0
 10
122.381
 20
340.199
 11
122.325
 21
339.903
  0
LINE
  8
0
 10
122.325
 20
339.903
 11
122.231
 21
339.617
  0
LINE
  8
0
 10
122.231
 20
339.617
 11
122.103
 21
339.344
  0
LINE
  8
0
 10
122.103
 20
339.344
 11
121.942
 21
339.089
  0
LINE
  8
0
 10
121.942
 20
339.089
 11
121.75
 21
338.857
  0
LINE
  8
0
 10
121.75
 20
338.857
 11
121.53
 21
338.651
  0
LINE
  8
0
 10
121.53
 20
338.651
 11
121.286
 21
338.474
  0
LINE
  8
0
 10
121.286
 20
338.474
 11
121.022
 21
338.328
  0
LINE
  8
0
 10
121.022
 20
338.328
 11
120.742
 21
338.217
  0
LINE
  8
0
 10
120.742
 20
338.217
 11
120.45
 21
338.143
  0
LINE
  8
0
 10
120.45
 20
338.143
 11
120.151
 21
338.105
  0
LINE
  8
0
 10
120.151
 20
338.105
 11
119.849
 21
338.105
  0
LINE
  8
0
 10
-120.151
 20
338.105
 11
-120.45
 21
338.143
  0
LINE
  8
0
 10
-120.45
 20
338.143
 11
-120.742
 21
338.217
  0
LINE
  8
0
 10
-120.742
 20
338.217
 11
-121.022
 21
338.328
  0
LINE
  8
0
 10
-121.022
 20
338.328
 11
-121.286
 21
338.474
  0
LINE
  8
0
 10
-121.286
 20
338.474
 11
-121.53
 21
338.651
  0
LINE
  8
0
 10
-121.53
 20
338.651
 11
-121.75
 21
338.857
  0
LINE
  8
0
 10
-121.75
 20
338.857
 11
-121.942
 21
339.089
  0
LINE
  8
0
 10
-121.942
 20
339.089
 11
-122.103
 21
339.344
  0
LINE
  8
0
 10
-122.103
 20
339.344
 11
-122.231
 21
339.617
  0
LINE
  8
0
 10
-122.231
 20
339.617
 11
-122.325
 21
339.903
  0
LINE
  8
0
 10
-122.325
 20
339.903
 11
-122.381
 21
340.199
  0
LINE
  8
0
 10
-122.381
 20
340.199
 11
-122.4
 21
340.5
  0
LINE
  8
0
 10
-122.4
 20
340.5
 11
-122.381
 21
340.801
  0
LINE
  8
0
 10
-122.381
 20
340.801
 11
-122.325
 21
341.097
  0
LINE
  8
0
 10
-122.325
 20
341.097
 11
-122.231
 21
341.383
  0
LINE
  8
0
 10
-122.231
 20
341.383
 11
-122.103
 21
341.656
  0
LINE
  8
0
 10
-122.103
 20
341.656
 11
-121.942
 21
341.911
  0
LINE
  8
0
 10
-121.942
 20
341.911
 11
-121.75
 21
342.143
  0
LINE
  8
0
 10
-121.75
 20
342.143
 11
-121.53
 21
342.349
  0
LINE
  8
0
 10
-121.53
 20
342.349
 11
-121.286
 21
342.526
  0
LINE
  8
0
 10
-121.286
 20
342.526
 11
-121.022
 21
342.672
  0
LINE
  8
0
 10
-121.022
 20
342.672
 11
-120.742
 21
342.783
  0
LINE
  8
0
 10
-120.742
 20
342.783
 11
-120.45
 21
342.857
  0
LINE
  8
0
 10
-120.45
 20
342.857
 11
-120.151
 21
342.895
  0
LINE
  8
0
 10
-120.151
 20
342.895
 11
-119.849
 21
342.895
  0
LINE
  8
0
 10
-119.849
 20
342.895
 11
-119.55
 21
342.857
  0
LINE
  8
0
 10
-119.55
 20
342.857
 11
-119.258
 21
342.783
  0
LINE
  8
0
 10
-119.258
 20
342.783
 11
-118.978
 21
342.672
  0
LINE
  8
0
 10
-118.978
 20
342.672
 11
-118.714
 21
342.526
  0
LINE
  8
0
 10
-118.714
 20
342.526
 11
-118.47
 21
342.349
  0
LINE
  8
0
 10
-118.47
 20
342.349
 11
-118.25
 21
342.143
  0
LINE
  8
0
 10
-118.25
 20
342.143
 11
-118.058
 21
341.911
  0
LINE
  8
0
 10
-118.058
 20
341.911
 11
-117.897
 21
341.656
  0
LINE
  8
0
 10
-117.897
 20
341.656
 11
-117.769
 21
341.383
  0
LINE
  8
0
 10
-117.769
 20
341.383
 11
-117.675
 21
341.097
  0
LINE
  8
0
 10
-117.675
 20
341.097
 11
-117.619
 21
340.801
  0
LINE
  8
0
 10
-117.619
 20
340.801
 11
-117.6
 21
340.5
  0
LINE
  8
0
 10
-117.6
 20
340.5
 11
-117.619
 21
340.199
  0
LINE
  8
0
 10
-117.619
 20
340.199
 11
-117.675
 21
339.903
  0
LINE
  8
0
 10
-117.675
 20
339.903
 11
-117.769
 21
339.617
  0
LINE
  8
0
 10
-117.769
 20
339.617
 11
-117.897
 21
339.344
  0
LINE
  8
0
 10
-117.897
 20
339.344
 11
-118.058
 21
339.089
  0
LINE
  8
0
 10
-118.058
 20
339.089
 11
-118.25
 21
338.857
  0
LINE
  8
0
 10
-118.25
 20
338.857
 11
-118.47
 21
338.651
  0
LINE
  8
0
 10
-118.47
 20
338.651
 11
-118.714
 21
338.474
  0
LINE
  8
0
 10
-118.714
 20
338.474
 11
-118.978
 21
338.328
  0
LINE
  8
0
 10
-118.978
 20
338.328
 11
-119.258
 21
338.217
  0
LINE
  8
0
 10
-119.258
 20
338.217
 11
-119.55
 21
338.143
  0
LINE
  8
0
 10
-119.55
 20
338.143
 11
-119.849
 21
338.105
  0
LINE
  8
0
 10
-119.849
 20
338.105
 11
-120.151
 21
338.105
  0
LINE
  8
0
 10
123.437
 20
114.089
 11
124.045
 21
114.245
  0
LINE
  8
0
 10
124.045
 20
114.245
 11
124.629
 21
114.476
  0
LINE
  8
0
 10
124.629
 20
114.476
 11
125.179
 21
114.778
  0
LINE
  8
0
 10
125.179
 20
114.778
 11
125.687
 21
115.147
  0
LINE
  8
0
 10
125.687
 20
115.147
 11
126.145
 21
115.577
  0
LINE
  8
0
 10
126.145
 20
115.577
 11
126.545
 21
116.061
  0
LINE
  8
0
 10
126.545
 20
116.061
 11
126.882
 21
116.591
  0
LINE
  8
0
 10
126.882
 20
116.591
 11
127.149
 21
117.159
  0
LINE
  8
0
 10
127.149
 20
117.159
 11
127.343
 21
117.757
  0
LINE
  8
0
 10
127.343
 20
117.757
 11
127.461
 21
118.373
  0
LINE
  8
0
 10
127.461
 20
118.373
 11
127.5
 21
119
  0
LINE
  8
0
 10
127.5
 20
119
 11
127.5
 21
319
  0
LINE
  8
0
 10
127.5
 20
319
 11
127.461
 21
319.627
  0
LINE
  8
0
 10
127.461
 20
319.627
 11
127.343
 21
320.243
  0
LINE
  8
0
 10
127.343
 20
320.243
 11
127.149
 21
320.841
  0
LINE
  8
0
 10
127.149
 20
320.841
 11
126.882
 21
321.409
  0
LINE
  8
0
 10
126.882
 20
321.409
 11
126.545
 21
321.939
  0
LINE
  8
0
 10
126.545
 20
321.939
 11
126.145
 21
322.423
  0
LINE
  8
0
 10
126.145
 20
322.423
 11
125.687
 21
322.853
  0
LINE
  8
0
 10
125.687
 20
322.853
 11
125.179
 21
323.222
  0
LINE
  8
0
 10
125.179
 20
323.222
 11
124.629
 21
323.524
  0
LINE
  8
0
 10
124.629
 20
323.524
 11
124.045
 21
323.755
  0
LINE
  8
0
 10
124.045
 20
323.755
 11
123.437
 21
323.911
  0
LINE
  8
0
 10
123.437
 20
323.911
 11
122.814
 21
323.99
  0
LINE
  8
0
 10
122.814
 20
323.99
 11
-122.814
 21
323.99
  0
LINE
  8
0
 10
-122.814
 20
323.99
 11
-123.437
 21
323.911
  0
LINE
  8
0
 10
-123.437
 20
323.911
 11
-124.045
 21
323.755
  0
LINE
  8
0
 10
-124.045
 20
323.755
 11
-124.629
 21
323.524
  0
LINE
  8
0
 10
-124.629
 20
323.524
 11
-125.179
 21
323.222
  0
LINE
  8
0
 10
-125.179
 20
323.222
 11
-125.687
 21
322.853
  0
LINE
  8
0
 10
-125.687
 20
322.853
 11
-126.145
 21
322.423
  0
LINE
  8
0
 10
-126.145
 20
322.423
 11
-126.545
 21
321.939
  0
LINE
  8
0
 10
-126.545
 20
321.939
 11
-126.882
 21
321.409
  0
LINE
  8
0
 10
-126.882
 20
321.409
 11
-127.149
 21
320.841
  0
LINE
  8
0
 10
-127.149
 20
320.841
 11
-127.343
 21
320.243
  0
LINE
  8
0
 10
-127.343
 20
320.243
 11
-127.4
 21
319.944
  0
LINE
  8
0
 10
-127.4
 20
319.944
 11
-129
 21
319.944
  0
LINE
  8
0
 10
-129
 20
319.944
 11
-129
 21
118.056
  0
LINE
  8
0
 10
-129
 20
118.056
 11
-127.4
 21
118.056
  0
LINE
  8
0
 10
-127.4
 20
118.056
 11
-127.343
 21
117.757
  0
LINE
  8
0
 10
-127.343
 20
117.757
 11
-127.149
 21
117.159
  0
LINE
  8
0
 10
-127.149
 20
117.159
 11
-126.882
 21
116.591
  0
LINE
  8
0
 10
-126.882
 20
116.591
 11
-126.545
 21
116.061
  0
LINE
  8
0
 10
-126.545
 20
116.061
 11
-126.145
 21
115.577
  0
LINE
  8
0
 10
-126.145
 20
115.577
 11
-125.687
 21
115.147
  0
LINE
  8
0
 10
-125.687
 20
115.147
 11
-125.179
 21
114.778
  0
LINE
  8
0
 10
-125.179
 20
114.778
 11
-124.629
 21
114.476
  0
LINE
  8
0
 10
-124.629
 20
114.476
 11
-124.045
 21
114.245
  0
LINE
  8
0
 10
-124.045
 20
114.245
 11
-123.437
 21
114.089
  0
LINE
  8
0
 10
-123.437
 20
114.089
 11
-122.814
 21
114.01
  0
LINE
  8
0
 10
-122.814
 20
114.01
 11
122.814
 21
114.01
  0
LINE
  8
0
 10
122.814
 20
114.01
 11
123.437
 21
114.089
  0
LINE
  8
0
 10
119.887
 20
314.704
 11
119.663
 21
314.732
  0
LINE
  8
0
 10
119.663
 20
314.732
 11
119.444
 21
314.788
  0
LINE
  8
0
 10
119.444
 20
314.788
 11
119.234
 21
314.871
  0
LINE
  8
0
 10
119.234
 20
314.871
 11
119.036
 21
314.98
  0
LINE
  8
0
 10
119.036
 20
314.98
 11
118.853
 21
315.113
  0
LINE
  8
0
 10
118.853
 20
315.113
 11
118.688
 21
315.268
  0
LINE
  8
0
 10
118.688
 20
315.268
 11
118.544
 21
315.442
  0
LINE
  8
0
 10
118.544
 20
315.442
 11
118.423
 21
315.633
  0
LINE
  8
0
 10
118.423
 20
315.633
 11
118.326
 21
315.837
  0
LINE
  8
0
 10
118.326
 20
315.837
 11
118.257
 21
316.052
  0
LINE
  8
0
 10
118.257
 20
316.052
 11
118.214
 21
316.274
  0
LINE
  8
0
 10
118.214
 20
316.274
 11
118.2
 21
316.5
  0
LINE
  8
0
 10
118.2
 20
316.5
 11
118.214
 21
316.726
  0
LINE
  8
0
 10
118.214
 20
316.726
 11
118.257
 21
316.948
  0
LINE
  8
0
 10
118.257
 20
316.948
 11
118.326
 21
317.163
  0
LINE
  8
0
 10
118.326
 20
317.163
 11
118.423
 21
317.367
  0
LINE
  8
0
 10
118.423
 20
317.367
 11
118.544
 21
317.558
  0
LINE
  8
0
 10
118.544
 20
317.558
 11
118.688
 21
317.732
  0
LINE
  8
0
 10
118.688
 20
317.732
 11
118.853
 21
317.887
  0
LINE
  8
0
 10
118.853
 20
317.887
 11
119.036
 21
318.02
  0
LINE
  8
0
 10
119.036
 20
318.02
 11
119.234
 21
318.129
  0
LINE
  8
0
 10
119.234
 20
318.129
 11
119.444
 21
318.212
  0
LINE
  8
0
 10
119.444
 20
318.212
 11
119.663
 21
318.268
  0
LINE
  8
0
 10
119.663
 20
318.268
 11
119.887
 21
318.296
  0
LINE
  8
0
 10
119.887
 20
318.296
 11
120.113
 21
318.296
  0
LINE
  8
0
 10
120.113
 20
318.296
 11
120.337
 21
318.268
  0
LINE
  8
0
 10
120.337
 20
318.268
 11
120.556
 21
318.212
  0
LINE
  8
0
 10
120.556
 20
318.212
 11
120.766
 21
318.129
  0
LINE
  8
0
 10
120.766
 20
318.129
 11
120.964
 21
318.02
  0
LINE
  8
0
 10
120.964
 20
318.02
 11
121.147
 21
317.887
  0
LINE
  8
0
 10
121.147
 20
317.887
 11
121.312
 21
317.732
  0
LINE
  8
0
 10
121.312
 20
317.732
 11
121.456
 21
317.558
  0
LINE
  8
0
 10
121.456
 20
317.558
 11
121.577
 21
317.367
  0
LINE
  8
0
 10
121.577
 20
317.367
 11
121.674
 21
317.163
  0
LINE
  8
0
 10
121.674
 20
317.163
 11
121.743
 21
316.948
  0
LINE
  8
0
 10
121.743
 20
316.948
 11
121.786
 21
316.726
  0
LINE
  8
0
 10
121.786
 20
316.726
 11
121.8
 21
316.5
  0
LINE
  8
0
 10
121.8
 20
316.5
 11
121.786
 21
316.274
  0
LINE
  8
0
 10
121.786
 20
316.274
 11
121.743
 21
316.052
  0
LINE
  8
0
 10
121.743
 20
316.052
 11
121.674
 21
315.837
  0
LINE
  8
0
 10
121.674
 20
315.837
 11
121.577
 21
315.633
  0
LINE
  8
0
 10
121.577
 20
315.633
 11
121.456
 21
315.442
  0
LINE
  8
0
 10
121.456
 20
315.442
 11
121.312
 21
315.268
  0
LINE
  8
0
 10
121.312
 20
315.268
 11
121.147
 21
315.113
  0
LINE
  8
0
 10
121.147
 20
315.113
 11
120.964
 21
314.98
  0
LINE
  8
0
 10
120.964
 20
314.98
 11
120.766
 21
314.871
  0
LINE
  8
0
 10
120.766
 20
314.871
 11
120.556
 21
314.788
  0
LINE
  8
0
 10
120.556
 20
314.788
 11
120.337
 21
314.732
  0
LINE
  8
0
 10
120.337
 20
314.732
 11
120.113
 21
314.704
  0
LINE
  8
0
 10
120.113
 20
314.704
 11
119.887
 21
314.704
  0
LINE
  8
0
 10
-120.113
 20
314.704
 11
-120.337
 21
314.732
  0
LINE
  8
0
 10
-120.337
 20
314.732
 11
-120.556
 21
314.788
  0
LINE
  8
0
 10
-120.556
 20
314.788
 11
-120.766
 21
314.871
  0
LINE
  8
0
 10
-120.766
 20
314.871
 11
-120.964
 21
314.98
  0
LINE
  8
0
 10
-120.964
 20
314.98
 11
-121.147
 21
315.113
  0
LINE
  8
0
 10
-121.147
 20
315.113
 11
-121.312
 21
315.268
  0
LINE
  8
0
 10
-121.312
 20
315.268
 11
-121.456
 21
315.442
  0
LINE
  8
0
 10
-121.456
 20
315.442
 11
-121.577
 21
315.633
  0
LINE
  8
0
 10
-121.577
 20
315.633
 11
-121.674
 21
315.837
  0
LINE
  8
0
 10
-121.674
 20
315.837
 11
-121.743
 21
316.052
  0
LINE
  8
0
 10
-121.743
 20
316.052
 11
-121.786
 21
316.274
  0
LINE
  8
0
 10
-121.786
 20
316.274
 11
-121.8
 21
316.5
  0
LINE
  8
0
 10
-121.8
 20
316.5
 11
-121.786
 21
316.726
  0
LINE
  8
0
 10
-121.786
 20
316.726
 11
-121.743
 21
316.948
  0
LINE
  8
0
 10
-121.743
 20
316.948
 11
-121.674
 21
317.163
  0
LINE
  8
0
 10
-121.674
 20
317.163
 11
-121.577
 21
317.367
  0
LINE
  8
0
 10
-121.577
 20
317.367
 11
-121.456
 21
317.558
  0
LINE
  8
0
 10
-121.456
 20
317.558
 11
-121.312
 21
317.732
  0
LINE
  8
0
 10
-121.312
 20
317.732
 11
-121.147
 21
317.887
  0
LINE
  8
0
 10
-121.147
 20
317.887
 11
-120.964
 21
318.02
  0
LINE
  8
0
 10
-120.964
 20
318.02
 11
-120.766
 21
318.129
  0
LINE
  8
0
 10
-120.766
 20
318.129
 11
-120.556
 21
318.212
  0
LINE
  8
0
 10
-120.556
 20
318.212
 11
-120.337
 21
318.268
  0
LINE
  8
0
 10
-120.337
 20
318.268
 11
-120.113
 21
318.296
  0
LINE
  8
0
 10
-120.113
 20
318.296
 11
-119.887
 21
318.296
  0
LINE
  8
0
 10
-119.887
 20
318.296
 11
-119.663
 21
318.268
  0
LINE
  8
0
 10
-119.663
 20
318.268
 11
-119.444
 21
318.212
  0
LINE
  8
0
 10
-119.444
 20
318.212
 11
-119.234
 21
318.129
  0
LINE
  8
0
 10
-119.234
 20
318.129
 11
-119.036
 21
318.02
  0
LINE
  8
0
 10
-119.036
 20
318.02
 11
-118.853
 21
317.887
  0
LINE
  8
0
 10
-118.853
 20
317.887
 11
-118.688
 21
317.732
  0
LINE
  8
0
 10
-118.688
 20
317.732
 11
-118.544
 21
317.558
  0
LINE
  8
0
 10
-118.544
 20
317.558
 11
-118.423
 21
317.367
  0
LINE
  8
0
 10
-118.423
 20
317.367
 11
-118.326
 21
317.163
  0
LINE
  8
0
 10
-118.326
 20
317.163
 11
-118.257
 21
316.948
  0
LINE
  8
0
 10
-118.257
 20
316.948
 11
-118.214
 21
316.726
  0
LINE
  8
0
 10
-118.214
 20
316.726
 11
-118.2
 21
316.5
  0
LINE
  8
0
 10
-118.2
 20
316.5
 11
-118.214
 21
316.274
  0
LINE
  8
0
 10
-118.214
 20
316.274
 11
-118.257
 21
316.052
  0
LINE
  8
0
 10
-118.257
 20
316.052
 11
-118.326
 21
315.837
  0
LINE
  8
0
 10
-118.326
 20
315.837
 11
-118.423
 21
315.633
  0
LINE
  8
0
 10
-118.423
 20
315.633
 11
-118.544
 21
315.442
  0
LINE
  8
0
 10
-118.544
 20
315.442
 11
-118.688
 21
315.268
  0
LINE
  8
0
 10
-118.688
 20
315.268
 11
-118.853
 21
315.113
  0
LINE
  8
0
 10
-118.853
 20
315.113
 11
-119.036
 21
314.98
  0
LINE
  8
0
 10
-119.036
 20
314.98
 11
-119.234
 21
314.871
  0
LINE
  8
0
 10
-119.234
 20
314.871
 11
-119.444
 21
314.788
  0
LINE
  8
0
 10
-119.444
 20
314.788
 11
-119.663
 21
314.732
  0
LINE
  8
0
 10
-119.663
 20
314.732
 11
-119.887
 21
314.704
  0
LINE
  8
0
 10
-119.887
 20
314.704
 11
-120.113
 21
314.704
  0
LINE
  8
0
 10
119.887
 20
119.704
 11
119.663
 21
119.732
  0
LINE
  8
0
 10
119.663
 20
119.732
 11
119.444
 21
119.788
  0
LINE
  8
0
 10
119.444
 20
119.788
 11
119.234
 21
119.871
  0
LINE
  8
0
 10
119.234
 20
119.871
 11
119.036
 21
119.98
  0
LINE
  8
0
 10
119.036
 20
119.98
 11
118.853
 21
120.113
  0
LINE
  8
0
 10
118.853
 20
120.113
 11
118.688
 21
120.268
  0
LINE
  8
0
 10
118.688
 20
120.268
 11
118.544
 21
120.442
  0
LINE
  8
0
 10
118.544
 20
120.442
 11
118.423
 21
120.633
  0
LINE
  8
0
 10
118.423
 20
120.633
 11
118.326
 21
120.837
  0
LINE
  8
0
 10
118.326
 20
120.837
 11
118.257
 21
121.052
  0
LINE
  8
0
 10
118.257
 20
121.052
 11
118.214
 21
121.274
  0
LINE
  8
0
 10
118.214
 20
121.274
 11
118.2
 21
121.5
  0
LINE
  8
0
 10
118.2
 20
121.5
 11
118.214
 21
121.726
  0
LINE
  8
0
 10
118.214
 20
121.726
 11
118.257
 21
121.948
  0
LINE
  8
0
 10
118.257
 20
121.948
 11
118.326
 21
122.163
  0
LINE
  8
0
 10
118.326
 20
122.163
 11
118.423
 21
122.367
  0
LINE
  8
0
 10
118.423
 20
122.367
 11
118.544
 21
122.558
  0
LINE
  8
0
 10
118.544
 20
122.558
 11
118.688
 21
122.732
  0
LINE
  8
0
 10
118.688
 20
122.732
 11
118.853
 21
122.887
  0
LINE
  8
0
 10
118.853
 20
122.887
 11
119.036
 21
123.02
  0
LINE
  8
0
 10
119.036
 20
123.02
 11
119.234
 21
123.129
  0
LINE
  8
0
 10
119.234
 20
123.129
 11
119.444
 21
123.212
  0
LINE
  8
0
 10
119.444
 20
123.212
 11
119.663
 21
123.268
  0
LINE
  8
0
 10
119.663
 20
123.268
 11
119.887
 21
123.296
  0
LINE
  8
0
 10
119.887
 20
123.296
 11
120.113
 21
123.296
  0
LINE
  8
0
 10
120.113
 20
123.296
 11
120.337
 21
123.268
  0
LINE
  8
0
 10
120.337
 20
123.268
 11
120.556
 21
123.212
  0
LINE
  8
0
 10
120.556
 20
123.212
 11
120.766
 21
123.129
  0
LINE
  8
0
 10
120.766
 20
123.129
 11
120.964
 21
123.02
  0
LINE
  8
0
 10
120.964
 20
123.02
 11
121.147
 21
122.887
  0
LINE
  8
0
 10
121.147
 20
122.887
 11
121.312
 21
122.732
  0
LINE
  8
0
 10
121.312
 20
122.732
 11
121.456
 21
122.558
  0
LINE
  8
0
 10
121.456
 20
122.558
 11
121.577
 21
122.367
  0
LINE
  8
0
 10
121.577
 20
122.367
 11
121.674
 21
122.163
  0
LINE
  8
0
 10
121.674
 20
122.163
 11
121.743
 21
121.948
  0
LINE
  8
0
 10
121.743
 20
121.948
 11
121.786
 21
121.726
  0
LINE
  8
0
 10
121.786
 20
121.726
 11
121.8
 21
121.5
  0
LINE
  8
0
 10
121.8
 20
121.5
 11
121.786
 21
121.274
  0
LINE
  8
0
 10
121.786
 20
121.274
 11
121.743
 21
121.052
  0
LINE
  8
0
 10
121.743
 20
121.052
 11
121.674
 21
120.837
  0
LINE
  8
0
 10
121.674
 20
120.837
 11
121.577
 21
120.633
  0
LINE
  8
0
 10
121.577
 20
120.633
 11
121.456
 21
120.442
  0
LINE
  8
0
 10
121.456
 20
120.442
 11
121.312
 21
120.268
  0
LINE
  8
0
 10
121.312
 20
120.268
 11
121.147
 21
120.113
  0
LINE
  8
0
 10
121.147
 20
120.113
 11
120.964
 21
119.98
  0
LINE
  8
0
 10
120.964
 20
119.98
 11
120.766
 21
119.871
  0
LINE
  8
0
 10
120.766
 20
119.871
 11
120.556
 21
119.788
  0
LINE
  8
0
 10
120.556
 20
119.788
 11
120.337
 21
119.732
  0
LINE
  8
0
 10
120.337
 20
119.732
 11
120.113
 21
119.704
  0
LINE
  8
0
 10
120.113
 20
119.704
 11
119.887
 21
119.704
  0
LINE
  8
0
 10
-120.113
 20
119.704
 11
-120.337
 21
119.732
  0
LINE
  8
0
 10
-120.337
 20
119.732
 11
-120.556
 21
119.788
  0
LINE
  8
0
 10
-120.556
 20
119.788
 11
-120.766
 21
119.871
  0
LINE
  8
0
 10
-120.766
 20
119.871
 11
-120.964
 21
119.98
  0
LINE
  8
0
 10
-120.964
 20
119.98
 11
-121.147
 21
120.113
  0
LINE
  8
0
 10
-121.147
 20
120.113
 11
-121.312
 21
120.268
  0
LINE
  8
0
 10
-121.312
 20
120.268
 11
-121.456
 21
120.442
  0
LINE
  8
0
 10
-121.456
 20
120.442
 11
-121.577
 21
120.633
  0
LINE
  8
0
 10
-121.577
 20
120.633
 11
-121.674
 21
120.837
  0
LINE
  8
0
 10
-121.674
 20
120.837
 11
-121.743
 21
121.052
  0
LINE
  8
0
 10
-121.743
 20
121.052
 11
-121.786
 21
121.274
  0
LINE
  8
0
 10
-121.786
 20
121.274
 11
-121.8
 21
121.5
  0
LINE
  8
0
 10
-121.8
 20
121.5
 11
-121.786
 21
121.726
  0
LINE
  8
0
 10
-121.786
 20
121.726
 11
-121.743
 21
121.948
  0
LINE
  8
0
 10
-121.743
 20
121.948
 11
-121.674
 21
122.163
  0
LINE
  8
0
 10
-121.674
 20
122.163
 11
-121.577
 21
122.367
  0
LINE
  8
0
 10
-121.577
 20
122.367
 11
-121.456
 21
122.558
  0
LINE
  8
0
 10
-121.456
 20
122.558
 11
-121.312
 21
122.732
  0
LINE
  8
0
 10
-121.312
 20
122.732
 11
-121.147
 21
122.887
  0
LINE
  8
0
 10
-121.147
 20
122.887
 11
-120.964
 21
123.02
  0
LINE
  8
0
 10
-120.964
 20
123.02
 11
-120.766
 21
123.129
  0
LINE
  8
0
 10
-120.766
 20
123.129
 11
-120.556
 21
123.212
  0
LINE
  8
0
 10
-120.556
 20
123.212
 11
-120.337
 21
123.268
  0
LINE
  8
0
 10
-120.337
 20
123.268
 11
-120.113
 21
123.296
  0
LINE
  8
0
 10
-120.113
 20
123.296
 11
-119.887
 21
123.296
  0
LINE
  8
0
 10
-119.887
 20
123.296
 11
-119.663
 21
123.268
  0
LINE
  8
0
 10
-119.663
 20
123.268
 11
-119.444
 21
123.212
  0
LINE
  8
0
 10
-119.444
 20
123.212
 11
-119.234
 21
123.129
  0
LINE
  8
0
 10
-119.234
 20
123.129
 11
-119.036
 21
123.02
  0
LINE
  8
0
 10
-119.036
 20
123.02
 11
-118.853
 21
122.887
  0
LINE
  8
0
 10
-118.853
 20
122.887
 11
-118.688
 21
122.732
  0
LINE
  8
0
 10
-118.688
 20
122.732
 11
-118.544
 21
122.558
  0
LINE
  8
0
 10
-118.544
 20
122.558
 11
-118.423
 21
122.367
  0
LINE
  8
0
 10
-118.423
 20
122.367
 11
-118.326
 21
122.163
  0
LINE
  8
0
 10
-118.326
 20
122.163
 11
-118.257
 21
121.948
  0
LINE
  8
0
 10
-118.257
 20
121.948
 11
-118.214
 21
121.726
  0
LINE
  8
0
 10
-118.214
 20
121.726
 11
-118.2
 21
121.5
  0
LINE
  8
0
 10
-118.2
 20
121.5
 11
-118.214
 21
121.274
  0
LINE
  8
0
 10
-118.214
 20
121.274
 11
-118.257
 21
121.052
  0
LINE
  8
0
 10
-118.257
 20
121.052
 11
-118.326
 21
120.837
  0
LINE
  8
0
 10
-118.326
 20
120.837
 11
-118.423
 21
120.633
  0
LINE
  8
0
 10
-118.423
 20
120.633
 11
-118.544
 21
120.442
  0
LINE
  8
0
 10
-118.544
 20
120.442
 11
-118.688
 21
120.268
  0
LINE
  8
0
 10
-118.688
 20
120.268
 11
-118.853
 21
120.113
  0
LINE
  8
0
 10
-118.853
 20
120.113
 11
-119.036
 21
119.98
  0
LINE
  8
0
 10
-119.036
 20
119.98
 11
-119.234
 21
119.871
  0
LINE
  8
0
 10
-119.234
 20
119.871
 11
-119.444
 21
119.788
  0
LINE
  8
0
 10
-119.444
 20
119.788
 11
-119.663
 21
119.732
  0
LINE
  8
0
 10
-119.663
 20
119.732
 11
-119.887
 21
119.704
  0
LINE
  8
0
 10
-119.887
 20
119.704
 11
-120.113
 21
119.704
  0
ENDSEC
  0
SECTION
  2
OBJECTS
  0
DICTIONARY
  0
ENDSEC
  0
EOF
