<?xml version="1.0" standalone="no"?>
<!DOCTYPE svg PUBLIC "-//W3C//DTD SVG 1.1//EN" "http://www.w3.org/Graphics/SVG/1.1/DTD/svg11.dtd">
<svg width="257mm" height="429mm" viewBox="-129 -543 257 429" xmlns="http://www.w3.org/2000/svg" version="1.1">
<title>OpenSCAD Model</title>
<path d="
M 123.437,-333.089 L 124.045,-333.245 L 124.629,-333.476 L 125.179,-333.778 L 125.687,-334.147 L 126.145,-334.577
 L 126.545,-335.061 L 126.882,-335.591 L 127.149,-336.159 L 127.343,-336.757 L 127.461,-337.373 L 127.5,-338
 L 127.5,-538 L 127.461,-538.627 L 127.343,-539.243 L 127.149,-539.841 L 126.882,-540.409 L 126.545,-540.939
 L 126.145,-541.423 L 125.687,-541.853 L 125.179,-542.222 L 124.629,-542.524 L 124.045,-542.755 L 123.437,-542.911
 L 122.814,-542.99 L -122.814,-542.99 L -123.437,-542.911 L -124.045,-542.755 L -124.629,-542.524 L -125.179,-542.222
 L -125.687,-541.853 L -126,-541.559 L -126,-542.615 L -129,-542.615 L -129,-333.385 L -126,-333.385
 L -126,-334.441 L -125.687,-334.147 L -125.179,-333.778 L -124.629,-333.476 L -124.045,-333.245 L -123.437,-333.089
 L -122.814,-333.01 L 122.814,-333.01 z
M 119.849,-533.105 L 119.55,-533.143 L 119.258,-533.217 L 118.978,-533.328 L 118.714,-533.474 L 118.47,-533.651
 L 118.25,-533.857 L 118.058,-534.089 L 117.897,-534.344 L 117.769,-534.617 L 117.675,-534.903 L 117.619,-535.199
 L 117.6,-535.5 L 117.619,-535.801 L 117.675,-536.097 L 117.769,-536.383 L 117.897,-536.656 L 118.058,-536.911
 L 118.25,-537.143 L 118.47,-537.349 L 118.714,-537.526 L 118.978,-537.672 L 119.258,-537.783 L 119.55,-537.857
 L 119.849,-537.895 L 120.151,-537.895 L 120.45,-537.857 L 120.742,-537.783 L 121.022,-537.672 L 121.286,-537.526
 L 121.53,-537.349 L 121.75,-537.143 L 121.942,-536.911 L 122.103,-536.656 L 122.231,-536.383 L 122.325,-536.097
 L 122.381,-535.801 L 122.4,-535.5 L 122.381,-535.199 L 122.325,-534.903 L 122.231,-534.617 L 122.103,-534.344
 L 121.942,-534.089 L 121.75,-533.857 L 121.53,-533.651 L 121.286,-533.474 L 121.022,-533.328 L 120.742,-533.217
 L 120.45,-533.143 L 120.151,-533.105 z
M -120.151,-533.105 L -120.45,-533.143 L -120.742,-533.217 L -121.022,-533.328 L -121.286,-533.474 L -121.53,-533.651
 L -121.75,-533.857 L -121.942,-534.089 L -122.103,-534.344 L -122.231,-534.617 L -122.325,-534.903 L -122.381,-535.199
 L -122.4,-535.5 L -122.381,-535.801 L -122.325,-536.097 L -122.231,-536.383 L -122.103,-536.656 L -121.942,-536.911
 L -121.75,-537.143 L -121.53,-537.349 L -121.286,-537.526 L -121.022,-537.672 L -120.742,-537.783 L -120.45,-537.857
 L -120.151,-537.895 L -119.849,-537.895 L -119.55,-537.857 L -119.258,-537.783 L -118.978,-537.672 L -118.714,-537.526
 L -118.47,-537.349 L -118.25,-537.143 L -118.058,-536.911 L -117.897,-536.656 L -117.769,-536.383 L -117.675,-536.097
 L -117.619,-535.801 L -117.6,-535.5 L -117.619,-535.199 L -117.675,-534.903 L -117.769,-534.617 L -117.897,-534.344
 L -118.058,-534.089 L -118.25,-533.857 L -118.47,-533.651 L -118.714,-533.474 L -118.978,-533.328 L -119.258,-533.217
 L -119.55,-533.143 L -119.849,-533.105 z
M 119.849,-338.105 L 119.55,-338.143 L 119.258,-338.217 L 118.978,-338.328 L 118.714,-338.474 L 118.47,-338.651
 L 118.25,-338.857 L 118.058,-339.089 L 117.897,-339.344 L 117.769,-339.617 L 117.675,-339.903 L 117.619,-340.199
 L 117.6,-340.5 L 117.619,-340.801 L 117.675,-341.097 L 117.769,-341.383 L 117.897,-341.656 L 118.058,-341.911
 L 118.25,-342.143 L 118.47,-342.349 L 118.714,-342.526 L 118.978,-342.672 L 119.258,-342.783 L 119.55,-342.857
 L 119.849,-342.895 L 120.151,-342.895 L 120.45,-342.857 L 120.742,-342.783 L 121.022,-342.672 L 121.286,-342.526
 L 121.53,-342.349 L 121.75,-342.143 L 121.942,-341.911 L 122.103,-341.656 L 122.231,-341.383 L 122.325,-341.097
 L 122.381,-340.801 L 122.4,-340.5 L 122.381,-340.199 L 122.325,-339.903 L 122.231,-339.617 L 122.103,-339.344
 L 121.942,-339.089 L 121.75,-338.857 L 121.53,-338.651 L 121.286,-338.474 L 121.022,-338.328 L 120.742,-338.217
 L 120.45,-338.143 L 120.151,-338.105 z
M -120.151,-338.105 L -120.45,-338.143 L -120.742,-338.217 L -121.022,-338.328 L -121.286,-338.474 L -121.53,-338.651
 L -121.75,-338.857 L -121.942,-339.089 L -122.103,-339.344 L -122.231,-339.617 L -122.325,-339.903 L -122.381,-340.199
 L -122.4,-340.5 L -122.381,-340.801 L -122.325,-341.097 L -122.231,-341.383 L -122.103,-341.656 L -121.942,-341.911
 L -121.75,-342.143 L -121.53,-342.349 L -121.286,-342.526 L -121.022,-342.672 L -120.742,-342.783 L -120.45,-342.857
 L -120.151,-342.895 L -119.849,-342.895 L -119.55,-342.857 L -119.258,-342.783 L -118.978,-342.672 L -118.714,-342.526
 L -118.47,-342.349 L -118.25,-342.143 L -118.058,-341.911 L -117.897,-341.656 L -117.769,-341.383 L -117.675,-341.097
 L -117.619,-340.801 L -117.6,-340.5 L -117.619,-340.199 L -117.675,-339.903 L -117.769,-339.617 L -117.897,-339.344
 L -118.058,-339.089 L -118.25,-338.857 L -118.47,-338.651 L -118.714,-338.474 L -118.978,-338.328 L -119.258,-338.217
 L -119.55,-338.143 L -119.849,-338.105 z
M 123.437,-114.089 L 124.045,-114.245 L 124.629,-114.476 L 125.179,-114.778 L 125.687,-115.147 L 126.145,-115.577
 L 126.545,-116.061 L 126.882,-116.591 L 127.149,-117.159 L 127.343,-117.757 L 127.461,-118.373 L 127.5,-119
 L 127.5,-319 L 127.461,-319.627 L 127.343,-320.243 L 127.149,-320.841 L 126.882,-321.409 L 126.545,-321.939
 L 126.145,-322.423 L 125.687,-322.853 L 125.179,-323.222 L 124.629,-323.524 L 124.045,-323.755 L 123.437,-323.911
 L 122.814,-323.99 L -122.814,-323.99 L -123.437,-323.911 L -124.045,-323.755 L -124.629,-323.524 L -125.179,-323.222
 L -125.687,-322.853 L -126.145,-322.423 L -126.545,-321.939 L -126.882,-321.409 L -127.149,-320.841 L -127.343,-320.243
 L -127.4,-319.944 L -129,-319.944 L -129,-118.056 L -127.4,-118.056 L -127.343,-117.757 L -127.149,-117.159
 L -126.882,-116.591 L -126.545,-116.061 L -126.145,-115.577 L -125.687,-115.147 L -125.179,-114.778 L -124.629,-114.476
 L -124.045,-114.245 L -123.437,-114.089 L -122.814,-114.01 L 122.814,-114.01 z
M 119.887,-314.704 L 119.663,-314.732 L 119.444,-314.788 L 119.234,-314.871 L 119.036,-314.98 L 118.853,-315.113
 L 118.688,-315.268 L 118.544,-315.442 L 118.423,-315.633 L 118.326,-315.837 L 118.257,-316.052 L 118.214,-316.274
 L 118.2,-316.5 L 118.214,-316.726 L 118.257,-316.948 L 118.326,-317.163 L 118.423,-317.367 L 118.544,-317.558
 L 118.688,-317.732 L 118.853,-317.887 L 119.036,-318.02 L 119.234,-318.129 L 119.444,-318.212 L 119.663,-318.268
 L 119.887,-318.296 L 120.113,-318.296 L 120.337,-318.268 L 120.556,-318.212 L 120.766,-318.129 L 120.964,-318.02
 L 121.147,-317.887 L 121.312,-317.732 L 121.456,-317.558 L 121.577,-317.367 L 121.674,-317.163 L 121.743,-316.948
 L 121.786,-316.726 L 121.8,-316.5 L 121.786,-316.274 L 121.743,-316.052 L 121.674,-315.837 L 121.577,-315.633
 L 121.456,-315.442 L 121.312,-315.268 L 121.147,-315.113 L 120.964,-314.98 L 120.766,-314.871 L 120.556,-314.788
 L 120.337,-314.732 L 120.113,-314.704 z
M -120.113,-314.704 L -120.337,-314.732 L -120.556,-314.788 L -120.766,-314.871 L -120.964,-314.98 L -121.147,-315.113
 L -121.312,-315.268 L -121.456,-315.442 L -121.577,-315.633 L -121.674,-315.837 L -121.743,-316.052 L -121.786,-316.274
 L -121.8,-316.5 L -121.786,-316.726 L -121.743,-316.948 L -121.674,-317.163 L -121.577,-317.367 L -121.456,-317.558
 L -121.312,-317.732 L -121.147,-317.887 L -120.964,-318.02 L -120.766,-318.129 L -120.556,-318.212 L -120.337,-318.268
 L -120.113,-318.296 L -119.887,-318.296 L -119.663,-318.268 L -119.444,-318.212 L -119.234,-318.129 L -119.036,-318.02
 L -118.853,-317.887 L -118.688,-317.732 L -118.544,-317.558 L -118.423,-317.367 L -118.326,-317.163 L -118.257,-316.948
 L -118.214,-316.726 L -118.2,-316.5 L -118.214,-316.274 L -118.257,-316.052 L -118.326,-315.837 L -118.423,-315.633
 L -118.544,-315.442 L -118.688,-315.268 L -118.853,-315.113 L -119.036,-314.98 L -119.234,-314.871 L -119.444,-314.788
 L -119.663,-314.732 L -119.887,-314.704 z
M 119.887,-119.704 L 119.663,-119.732 L 119.444,-119.788 L 119.234,-119.871 L 119.036,-119.98 L 118.853,-120.113
 L 118.688,-120.268 L 118.544,-120.442 L 118.423,-120.633 L 118.326,-120.837 L 118.257,-121.052 L 118.214,-121.274
 L 118.2,-121.5 L 118.214,-121.726 L 118.257,-121.948 L 118.326,-122.163 L 118.423,-122.367 L 118.544,-122.558
 L 118.688,-122.732 L 118.853,-122.887 L 119.036,-123.02 L 119.234,-123.129 L 119.444,-123.212 L 119.663,-123.268
 L 119.887,-123.296 L 120.113,-123.296 L 120.337,-123.268 L 120.556,-123.212 L 120.766,-123.129 L 120.964,-123.02
 L 121.147,-122.887 L 121.312,-122.732 L 121.456,-122.558 L 121.577,-122.367 L 121.674,-122.163 L 121.743,-121.948
 L 121.786,-121.726 L 121.8,-121.5 L 121.786,-121.274 L 121.743,-121.052 L 121.674,-120.837 L 121.577,-120.633
 L 121.456,-120.442 L 121.312,-120.268 L 121.147,-120.113 L 120.964,-119.98 L 120.766,-119.871 L 120.556,-119.788
 L 120.337,-119.732 L 120.113,-119.704 z
M -120.113,-119.704 L -120.337,-119.732 L -120.556,-119.788 L -120.766,-119.871 L -120.964,-119.98 L -121.147,-120.113
 L -121.312,-120.268 L -121.456,-120.442 L -121.577,-120.633 L -121.674,-120.837 L -121.743,-121.052 L -121.786,-121.274
 L -121.8,-121.5 L -121.786,-121.726 L -121.743,-121.948 L -121.674,-122.163 L -121.577,-122.367 L -121.456,-122.558
 L -121.312,-122.732 L -121.147,-122.887 L -120.964,-123.02 L -120.766,-123.129 L -120.556,-123.212 L -120.337,-123.268
 L -120.113,-123.296 L -119.887,-123.296 L -119.663,-123.268 L -119.444,-123.212 L -119.234,-123.129 L -119.036,-123.02
 L -118.853,-122.887 L -118.688,-122.732 L -118.544,-122.558 L -118.423,-122.367 L -118.326,-122.163 L -118.257,-121.948
 L -118.214,-121.726 L -118.2,-121.5 L -118.214,-121.274 L -118.257,-121.052 L -118.326,-120.837 L -118.423,-120.633
 L -118.544,-120.442 L -118.688,-120.268 L -118.853,-120.113 L -119.036,-119.98 L -119.234,-119.871 L -119.444,-119.788
 L -119.663,-119.732 L -119.887,-119.704 z
" stroke="black" fill="lightgray" stroke-width="0.5"/>
</svg>
