  0
SECTION
  2
BLOCKS
  0
ENDSEC
  0
SECTION
  2
ENTITIES
  0
LINE
  8
0
 10
115.937
 20
175.589
 11
116.545
 21
175.745
  0
LINE
  8
0
 10
116.545
 20
175.745
 11
117.129
 21
175.976
  0
LINE
  8
0
 10
117.129
 20
175.976
 11
117.679
 21
176.278
  0
LINE
  8
0
 10
117.679
 20
176.278
 11
118.187
 21
176.647
  0
LINE
  8
0
 10
118.187
 20
176.647
 11
118.645
 21
177.077
  0
LINE
  8
0
 10
118.645
 20
177.077
 11
119.045
 21
177.561
  0
LINE
  8
0
 10
119.045
 20
177.561
 11
119.382
 21
178.091
  0
LINE
  8
0
 10
119.382
 20
178.091
 11
119.649
 21
178.659
  0
LINE
  8
0
 10
119.649
 20
178.659
 11
119.843
 21
179.257
  0
LINE
  8
0
 10
119.843
 20
179.257
 11
119.961
 21
179.873
  0
LINE
  8
0
 10
119.961
 20
179.873
 11
120
 21
180.5
  0
LINE
  8
0
 10
120
 20
180.5
 11
120
 21
275.5
  0
LINE
  8
0
 10
120
 20
275.5
 11
119.961
 21
276.127
  0
LINE
  8
0
 10
119.961
 20
276.127
 11
119.843
 21
276.743
  0
LINE
  8
0
 10
119.843
 20
276.743
 11
119.649
 21
277.341
  0
LINE
  8
0
 10
119.649
 20
277.341
 11
119.382
 21
277.909
  0
LINE
  8
0
 10
119.382
 20
277.909
 11
119.045
 21
278.439
  0
LINE
  8
0
 10
119.045
 20
278.439
 11
118.645
 21
278.923
  0
LINE
  8
0
 10
118.645
 20
278.923
 11
118.187
 21
279.353
  0
LINE
  8
0
 10
118.187
 20
279.353
 11
117.679
 21
279.722
  0
LINE
  8
0
 10
117.679
 20
279.722
 11
117.129
 21
280.024
  0
LINE
  8
0
 10
117.129
 20
280.024
 11
116.545
 21
280.255
  0
LINE
  8
0
 10
116.545
 20
280.255
 11
115.937
 21
280.411
  0
LINE
  8
0
 10
115.937
 20
280.411
 11
115.314
 21
280.49
  0
LINE
  8
0
 10
115.314
 20
280.49
 11
-115.314
 21
280.49
  0
LINE
  8
0
 10
-115.314
 20
280.49
 11
-115.937
 21
280.411
  0
LINE
  8
0
 10
-115.937
 20
280.411
 11
-116.545
 21
280.255
  0
LINE
  8
0
 10
-116.545
 20
280.255
 11
-117.129
 21
280.024
  0
LINE
  8
0
 10
-117.129
 20
280.024
 11
-117.679
 21
279.722
  0
LINE
  8
0
 10
-117.679
 20
279.722
 11
-118.187
 21
279.353
  0
LINE
  8
0
 10
-118.187
 20
279.353
 11
-118.645
 21
278.923
  0
LINE
  8
0
 10
-118.645
 20
278.923
 11
-119.045
 21
278.439
  0
LINE
  8
0
 10
-119.045
 20
278.439
 11
-119.382
 21
277.909
  0
LINE
  8
0
 10
-119.382
 20
277.909
 11
-119.649
 21
277.341
  0
LINE
  8
0
 10
-119.649
 20
277.341
 11
-119.843
 21
276.743
  0
LINE
  8
0
 10
-119.843
 20
276.743
 11
-119.961
 21
276.127
  0
LINE
  8
0
 10
-119.961
 20
276.127
 11
-120
 21
275.5
  0
LINE
  8
0
 10
-120
 20
275.5
 11
-120
 21
180.5
  0
LINE
  8
0
 10
-120
 20
180.5
 11
-119.961
 21
179.873
  0
LINE
  8
0
 10
-119.961
 20
179.873
 11
-119.843
 21
179.257
  0
LINE
  8
0
 10
-119.843
 20
179.257
 11
-119.649
 21
178.659
  0
LINE
  8
0
 10
-119.649
 20
178.659
 11
-119.382
 21
178.091
  0
LINE
  8
0
 10
-119.382
 20
178.091
 11
-119.045
 21
177.561
  0
LINE
  8
0
 10
-119.045
 20
177.561
 11
-118.645
 21
177.077
  0
LINE
  8
0
 10
-118.645
 20
177.077
 11
-118.187
 21
176.647
  0
LINE
  8
0
 10
-118.187
 20
176.647
 11
-117.679
 21
176.278
  0
LINE
  8
0
 10
-117.679
 20
176.278
 11
-117.129
 21
175.976
  0
LINE
  8
0
 10
-117.129
 20
175.976
 11
-116.545
 21
175.745
  0
LINE
  8
0
 10
-116.545
 20
175.745
 11
-115.937
 21
175.589
  0
LINE
  8
0
 10
-115.937
 20
175.589
 11
-115.314
 21
175.51
  0
LINE
  8
0
 10
-115.314
 20
175.51
 11
115.314
 21
175.51
  0
LINE
  8
0
 10
115.314
 20
175.51
 11
115.937
 21
175.589
  0
LINE
  8
0
 10
-114.993
 20
176.888
 11
-115.475
 21
176.949
  0
LINE
  8
0
 10
-115.475
 20
176.949
 11
-115.946
 21
177.07
  0
LINE
  8
0
 10
-115.946
 20
177.07
 11
-116.398
 21
177.249
  0
LINE
  8
0
 10
-116.398
 20
177.249
 11
-116.823
 21
177.483
  0
LINE
  8
0
 10
-116.823
 20
177.483
 11
-117.216
 21
177.769
  0
LINE
  8
0
 10
-117.216
 20
177.769
 11
-117.571
 21
178.101
  0
LINE
  8
0
 10
-117.571
 20
178.101
 11
-117.88
 21
178.476
  0
LINE
  8
0
 10
-117.88
 20
178.476
 11
-118.141
 21
178.886
  0
LINE
  8
0
 10
-118.141
 20
178.886
 11
-118.348
 21
179.326
  0
LINE
  8
0
 10
-118.348
 20
179.326
 11
-118.498
 21
179.788
  0
LINE
  8
0
 10
-118.498
 20
179.788
 11
-118.589
 21
180.265
  0
LINE
  8
0
 10
-118.589
 20
180.265
 11
-118.619
 21
180.75
  0
LINE
  8
0
 10
-118.619
 20
180.75
 11
-118.619
 21
275.25
  0
LINE
  8
0
 10
-118.619
 20
275.25
 11
-118.589
 21
275.735
  0
LINE
  8
0
 10
-118.589
 20
275.735
 11
-118.498
 21
276.212
  0
LINE
  8
0
 10
-118.498
 20
276.212
 11
-118.348
 21
276.674
  0
LINE
  8
0
 10
-118.348
 20
276.674
 11
-118.141
 21
277.114
  0
LINE
  8
0
 10
-118.141
 20
277.114
 11
-117.88
 21
277.524
  0
LINE
  8
0
 10
-117.88
 20
277.524
 11
-117.571
 21
277.899
  0
LINE
  8
0
 10
-117.571
 20
277.899
 11
-117.216
 21
278.231
  0
LINE
  8
0
 10
-117.216
 20
278.231
 11
-116.823
 21
278.517
  0
LINE
  8
0
 10
-116.823
 20
278.517
 11
-116.398
 21
278.751
  0
LINE
  8
0
 10
-116.398
 20
278.751
 11
-115.946
 21
278.93
  0
LINE
  8
0
 10
-115.946
 20
278.93
 11
-115.475
 21
279.051
  0
LINE
  8
0
 10
-115.475
 20
279.051
 11
-114.993
 21
279.112
  0
LINE
  8
0
 10
-114.993
 20
279.112
 11
114.993
 21
279.112
  0
LINE
  8
0
 10
114.993
 20
279.112
 11
115.475
 21
279.051
  0
LINE
  8
0
 10
115.475
 20
279.051
 11
115.946
 21
278.93
  0
LINE
  8
0
 10
115.946
 20
278.93
 11
116.398
 21
278.751
  0
LINE
  8
0
 10
116.398
 20
278.751
 11
116.823
 21
278.517
  0
LINE
  8
0
 10
116.823
 20
278.517
 11
117.216
 21
278.231
  0
LINE
  8
0
 10
117.216
 20
278.231
 11
117.571
 21
277.899
  0
LINE
  8
0
 10
117.571
 20
277.899
 11
117.88
 21
277.524
  0
LINE
  8
0
 10
117.88
 20
277.524
 11
118.141
 21
277.114
  0
LINE
  8
0
 10
118.141
 20
277.114
 11
118.348
 21
276.674
  0
LINE
  8
0
 10
118.348
 20
276.674
 11
118.498
 21
276.212
  0
LINE
  8
0
 10
118.498
 20
276.212
 11
118.589
 21
275.735
  0
LINE
  8
0
 10
118.589
 20
275.735
 11
118.619
 21
275.25
  0
LINE
  8
0
 10
118.619
 20
275.25
 11
118.619
 21
180.75
  0
LINE
  8
0
 10
118.619
 20
180.75
 11
118.589
 21
180.265
  0
LINE
  8
0
 10
118.589
 20
180.265
 11
118.498
 21
179.788
  0
LINE
  8
0
 10
118.498
 20
179.788
 11
118.348
 21
179.326
  0
LINE
  8
0
 10
118.348
 20
179.326
 11
118.141
 21
178.886
  0
LINE
  8
0
 10
118.141
 20
178.886
 11
117.88
 21
178.476
  0
LINE
  8
0
 10
117.88
 20
178.476
 11
117.571
 21
178.101
  0
LINE
  8
0
 10
117.571
 20
178.101
 11
117.216
 21
177.769
  0
LINE
  8
0
 10
117.216
 20
177.769
 11
116.823
 21
177.483
  0
LINE
  8
0
 10
116.823
 20
177.483
 11
116.398
 21
177.249
  0
LINE
  8
0
 10
116.398
 20
177.249
 11
115.946
 21
177.07
  0
LINE
  8
0
 10
115.946
 20
177.07
 11
115.475
 21
176.949
  0
LINE
  8
0
 10
115.475
 20
176.949
 11
114.993
 21
176.888
  0
LINE
  8
0
 10
114.993
 20
176.888
 11
-114.993
 21
176.888
  0
LINE
  8
0
 10
115.937
 20
61.5886
 11
116.545
 21
61.7447
  0
LINE
  8
0
 10
116.545
 20
61.7447
 11
117.129
 21
61.9759
  0
LINE
  8
0
 10
117.129
 20
61.9759
 11
117.679
 21
62.2784
  0
LINE
  8
0
 10
117.679
 20
62.2784
 11
118.187
 21
62.6474
  0
LINE
  8
0
 10
118.187
 20
62.6474
 11
118.645
 21
63.0773
  0
LINE
  8
0
 10
118.645
 20
63.0773
 11
119.045
 21
63.5611
  0
LINE
  8
0
 10
119.045
 20
63.5611
 11
119.382
 21
64.0912
  0
LINE
  8
0
 10
119.382
 20
64.0912
 11
119.649
 21
64.6594
  0
LINE
  8
0
 10
119.649
 20
64.6594
 11
119.843
 21
65.2566
  0
LINE
  8
0
 10
119.843
 20
65.2566
 11
119.961
 21
65.8733
  0
LINE
  8
0
 10
119.961
 20
65.8733
 11
120
 21
66.5
  0
LINE
  8
0
 10
120
 20
66.5
 11
120
 21
161.5
  0
LINE
  8
0
 10
120
 20
161.5
 11
119.961
 21
162.127
  0
LINE
  8
0
 10
119.961
 20
162.127
 11
119.843
 21
162.743
  0
LINE
  8
0
 10
119.843
 20
162.743
 11
119.649
 21
163.341
  0
LINE
  8
0
 10
119.649
 20
163.341
 11
119.382
 21
163.909
  0
LINE
  8
0
 10
119.382
 20
163.909
 11
119.045
 21
164.439
  0
LINE
  8
0
 10
119.045
 20
164.439
 11
118.645
 21
164.923
  0
LINE
  8
0
 10
118.645
 20
164.923
 11
118.187
 21
165.353
  0
LINE
  8
0
 10
118.187
 20
165.353
 11
117.679
 21
165.722
  0
LINE
  8
0
 10
117.679
 20
165.722
 11
117.129
 21
166.024
  0
LINE
  8
0
 10
117.129
 20
166.024
 11
116.545
 21
166.255
  0
LINE
  8
0
 10
116.545
 20
166.255
 11
115.937
 21
166.411
  0
LINE
  8
0
 10
115.937
 20
166.411
 11
115.314
 21
166.49
  0
LINE
  8
0
 10
115.314
 20
166.49
 11
-115.314
 21
166.49
  0
LINE
  8
0
 10
-115.314
 20
166.49
 11
-115.937
 21
166.411
  0
LINE
  8
0
 10
-115.937
 20
166.411
 11
-116.545
 21
166.255
  0
LINE
  8
0
 10
-116.545
 20
166.255
 11
-117.129
 21
166.024
  0
LINE
  8
0
 10
-117.129
 20
166.024
 11
-117.679
 21
165.722
  0
LINE
  8
0
 10
-117.679
 20
165.722
 11
-118.187
 21
165.353
  0
LINE
  8
0
 10
-118.187
 20
165.353
 11
-118.645
 21
164.923
  0
LINE
  8
0
 10
-118.645
 20
164.923
 11
-119.045
 21
164.439
  0
LINE
  8
0
 10
-119.045
 20
164.439
 11
-119.382
 21
163.909
  0
LINE
  8
0
 10
-119.382
 20
163.909
 11
-119.649
 21
163.341
  0
LINE
  8
0
 10
-119.649
 20
163.341
 11
-119.843
 21
162.743
  0
LINE
  8
0
 10
-119.843
 20
162.743
 11
-119.961
 21
162.127
  0
LINE
  8
0
 10
-119.961
 20
162.127
 11
-120
 21
161.5
  0
LINE
  8
0
 10
-120
 20
161.5
 11
-120
 21
66.5
  0
LINE
  8
0
 10
-120
 20
66.5
 11
-119.961
 21
65.8733
  0
LINE
  8
0
 10
-119.961
 20
65.8733
 11
-119.843
 21
65.2566
  0
LINE
  8
0
 10
-119.843
 20
65.2566
 11
-119.649
 21
64.6594
  0
LINE
  8
0
 10
-119.649
 20
64.6594
 11
-119.382
 21
64.0912
  0
LINE
  8
0
 10
-119.382
 20
64.0912
 11
-119.045
 21
63.5611
  0
LINE
  8
0
 10
-119.045
 20
63.5611
 11
-118.645
 21
63.0773
  0
LINE
  8
0
 10
-118.645
 20
63.0773
 11
-118.187
 21
62.6474
  0
LINE
  8
0
 10
-118.187
 20
62.6474
 11
-117.679
 21
62.2784
  0
LINE
  8
0
 10
-117.679
 20
62.2784
 11
-117.129
 21
61.9759
  0
LINE
  8
0
 10
-117.129
 20
61.9759
 11
-116.545
 21
61.7447
  0
LINE
  8
0
 10
-116.545
 20
61.7447
 11
-115.937
 21
61.5886
  0
LINE
  8
0
 10
-115.937
 20
61.5886
 11
-115.314
 21
61.5099
  0
LINE
  8
0
 10
-115.314
 20
61.5099
 11
115.314
 21
61.5099
  0
LINE
  8
0
 10
115.314
 20
61.5099
 11
115.937
 21
61.5886
  0
LINE
  8
0
 10
112.387
 20
157.204
 11
112.163
 21
157.232
  0
LINE
  8
0
 10
112.163
 20
157.232
 11
111.944
 21
157.288
  0
LINE
  8
0
 10
111.944
 20
157.288
 11
111.734
 21
157.371
  0
LINE
  8
0
 10
111.734
 20
157.371
 11
111.536
 21
157.48
  0
LINE
  8
0
 10
111.536
 20
157.48
 11
111.353
 21
157.613
  0
LINE
  8
0
 10
111.353
 20
157.613
 11
111.188
 21
157.768
  0
LINE
  8
0
 10
111.188
 20
157.768
 11
111.044
 21
157.942
  0
LINE
  8
0
 10
111.044
 20
157.942
 11
110.923
 21
158.133
  0
LINE
  8
0
 10
110.923
 20
158.133
 11
110.826
 21
158.337
  0
LINE
  8
0
 10
110.826
 20
158.337
 11
110.757
 21
158.552
  0
LINE
  8
0
 10
110.757
 20
158.552
 11
110.714
 21
158.774
  0
LINE
  8
0
 10
110.714
 20
158.774
 11
110.7
 21
159
  0
LINE
  8
0
 10
110.7
 20
159
 11
110.714
 21
159.226
  0
LINE
  8
0
 10
110.714
 20
159.226
 11
110.757
 21
159.448
  0
LINE
  8
0
 10
110.757
 20
159.448
 11
110.826
 21
159.663
  0
LINE
  8
0
 10
110.826
 20
159.663
 11
110.923
 21
159.867
  0
LINE
  8
0
 10
110.923
 20
159.867
 11
111.044
 21
160.058
  0
LINE
  8
0
 10
111.044
 20
160.058
 11
111.188
 21
160.232
  0
LINE
  8
0
 10
111.188
 20
160.232
 11
111.353
 21
160.387
  0
LINE
  8
0
 10
111.353
 20
160.387
 11
111.536
 21
160.52
  0
LINE
  8
0
 10
111.536
 20
160.52
 11
111.734
 21
160.629
  0
LINE
  8
0
 10
111.734
 20
160.629
 11
111.944
 21
160.712
  0
LINE
  8
0
 10
111.944
 20
160.712
 11
112.163
 21
160.768
  0
LINE
  8
0
 10
112.163
 20
160.768
 11
112.387
 21
160.796
  0
LINE
  8
0
 10
112.387
 20
160.796
 11
112.613
 21
160.796
  0
LINE
  8
0
 10
112.613
 20
160.796
 11
112.837
 21
160.768
  0
LINE
  8
0
 10
112.837
 20
160.768
 11
113.056
 21
160.712
  0
LINE
  8
0
 10
113.056
 20
160.712
 11
113.266
 21
160.629
  0
LINE
  8
0
 10
113.266
 20
160.629
 11
113.464
 21
160.52
  0
LINE
  8
0
 10
113.464
 20
160.52
 11
113.647
 21
160.387
  0
LINE
  8
0
 10
113.647
 20
160.387
 11
113.812
 21
160.232
  0
LINE
  8
0
 10
113.812
 20
160.232
 11
113.956
 21
160.058
  0
LINE
  8
0
 10
113.956
 20
160.058
 11
114.077
 21
159.867
  0
LINE
  8
0
 10
114.077
 20
159.867
 11
114.174
 21
159.663
  0
LINE
  8
0
 10
114.174
 20
159.663
 11
114.243
 21
159.448
  0
LINE
  8
0
 10
114.243
 20
159.448
 11
114.286
 21
159.226
  0
LINE
  8
0
 10
114.286
 20
159.226
 11
114.3
 21
159
  0
LINE
  8
0
 10
114.3
 20
159
 11
114.286
 21
158.774
  0
LINE
  8
0
 10
114.286
 20
158.774
 11
114.243
 21
158.552
  0
LINE
  8
0
 10
114.243
 20
158.552
 11
114.174
 21
158.337
  0
LINE
  8
0
 10
114.174
 20
158.337
 11
114.077
 21
158.133
  0
LINE
  8
0
 10
114.077
 20
158.133
 11
113.956
 21
157.942
  0
LINE
  8
0
 10
113.956
 20
157.942
 11
113.812
 21
157.768
  0
LINE
  8
0
 10
113.812
 20
157.768
 11
113.647
 21
157.613
  0
LINE
  8
0
 10
113.647
 20
157.613
 11
113.464
 21
157.48
  0
LINE
  8
0
 10
113.464
 20
157.48
 11
113.266
 21
157.371
  0
LINE
  8
0
 10
113.266
 20
157.371
 11
113.056
 21
157.288
  0
LINE
  8
0
 10
113.056
 20
157.288
 11
112.837
 21
157.232
  0
LINE
  8
0
 10
112.837
 20
157.232
 11
112.613
 21
157.204
  0
LINE
  8
0
 10
112.613
 20
157.204
 11
112.387
 21
157.204
  0
LINE
  8
0
 10
-112.613
 20
157.204
 11
-112.837
 21
157.232
  0
LINE
  8
0
 10
-112.837
 20
157.232
 11
-113.056
 21
157.288
  0
LINE
  8
0
 10
-113.056
 20
157.288
 11
-113.266
 21
157.371
  0
LINE
  8
0
 10
-113.266
 20
157.371
 11
-113.464
 21
157.48
  0
LINE
  8
0
 10
-113.464
 20
157.48
 11
-113.647
 21
157.613
  0
LINE
  8
0
 10
-113.647
 20
157.613
 11
-113.812
 21
157.768
  0
LINE
  8
0
 10
-113.812
 20
157.768
 11
-113.956
 21
157.942
  0
LINE
  8
0
 10
-113.956
 20
157.942
 11
-114.077
 21
158.133
  0
LINE
  8
0
 10
-114.077
 20
158.133
 11
-114.174
 21
158.337
  0
LINE
  8
0
 10
-114.174
 20
158.337
 11
-114.243
 21
158.552
  0
LINE
  8
0
 10
-114.243
 20
158.552
 11
-114.286
 21
158.774
  0
LINE
  8
0
 10
-114.286
 20
158.774
 11
-114.3
 21
159
  0
LINE
  8
0
 10
-114.3
 20
159
 11
-114.286
 21
159.226
  0
LINE
  8
0
 10
-114.286
 20
159.226
 11
-114.243
 21
159.448
  0
LINE
  8
0
 10
-114.243
 20
159.448
 11
-114.174
 21
159.663
  0
LINE
  8
0
 10
-114.174
 20
159.663
 11
-114.077
 21
159.867
  0
LINE
  8
0
 10
-114.077
 20
159.867
 11
-113.956
 21
160.058
  0
LINE
  8
0
 10
-113.956
 20
160.058
 11
-113.812
 21
160.232
  0
LINE
  8
0
 10
-113.812
 20
160.232
 11
-113.647
 21
160.387
  0
LINE
  8
0
 10
-113.647
 20
160.387
 11
-113.464
 21
160.52
  0
LINE
  8
0
 10
-113.464
 20
160.52
 11
-113.266
 21
160.629
  0
LINE
  8
0
 10
-113.266
 20
160.629
 11
-113.056
 21
160.712
  0
LINE
  8
0
 10
-113.056
 20
160.712
 11
-112.837
 21
160.768
  0
LINE
  8
0
 10
-112.837
 20
160.768
 11
-112.613
 21
160.796
  0
LINE
  8
0
 10
-112.613
 20
160.796
 11
-112.387
 21
160.796
  0
LINE
  8
0
 10
-112.387
 20
160.796
 11
-112.163
 21
160.768
  0
LINE
  8
0
 10
-112.163
 20
160.768
 11
-111.944
 21
160.712
  0
LINE
  8
0
 10
-111.944
 20
160.712
 11
-111.734
 21
160.629
  0
LINE
  8
0
 10
-111.734
 20
160.629
 11
-111.536
 21
160.52
  0
LINE
  8
0
 10
-111.536
 20
160.52
 11
-111.353
 21
160.387
  0
LINE
  8
0
 10
-111.353
 20
160.387
 11
-111.188
 21
160.232
  0
LINE
  8
0
 10
-111.188
 20
160.232
 11
-111.044
 21
160.058
  0
LINE
  8
0
 10
-111.044
 20
160.058
 11
-110.923
 21
159.867
  0
LINE
  8
0
 10
-110.923
 20
159.867
 11
-110.826
 21
159.663
  0
LINE
  8
0
 10
-110.826
 20
159.663
 11
-110.757
 21
159.448
  0
LINE
  8
0
 10
-110.757
 20
159.448
 11
-110.714
 21
159.226
  0
LINE
  8
0
 10
-110.714
 20
159.226
 11
-110.7
 21
159
  0
LINE
  8
0
 10
-110.7
 20
159
 11
-110.714
 21
158.774
  0
LINE
  8
0
 10
-110.714
 20
158.774
 11
-110.757
 21
158.552
  0
LINE
  8
0
 10
-110.757
 20
158.552
 11
-110.826
 21
158.337
  0
LINE
  8
0
 10
-110.826
 20
158.337
 11
-110.923
 21
158.133
  0
LINE
  8
0
 10
-110.923
 20
158.133
 11
-111.044
 21
157.942
  0
LINE
  8
0
 10
-111.044
 20
157.942
 11
-111.188
 21
157.768
  0
LINE
  8
0
 10
-111.188
 20
157.768
 11
-111.353
 21
157.613
  0
LINE
  8
0
 10
-111.353
 20
157.613
 11
-111.536
 21
157.48
  0
LINE
  8
0
 10
-111.536
 20
157.48
 11
-111.734
 21
157.371
  0
LINE
  8
0
 10
-111.734
 20
157.371
 11
-111.944
 21
157.288
  0
LINE
  8
0
 10
-111.944
 20
157.288
 11
-112.163
 21
157.232
  0
LINE
  8
0
 10
-112.163
 20
157.232
 11
-112.387
 21
157.204
  0
LINE
  8
0
 10
-112.387
 20
157.204
 11
-112.613
 21
157.204
  0
LINE
  8
0
 10
112.387
 20
67.2036
 11
112.163
 21
67.2319
  0
LINE
  8
0
 10
112.163
 20
67.2319
 11
111.944
 21
67.2881
  0
LINE
  8
0
 10
111.944
 20
67.2881
 11
111.734
 21
67.3713
  0
LINE
  8
0
 10
111.734
 20
67.3713
 11
111.536
 21
67.4802
  0
LINE
  8
0
 10
111.536
 20
67.4802
 11
111.353
 21
67.6131
  0
LINE
  8
0
 10
111.353
 20
67.6131
 11
111.188
 21
67.7678
  0
LINE
  8
0
 10
111.188
 20
67.7678
 11
111.044
 21
67.942
  0
LINE
  8
0
 10
111.044
 20
67.942
 11
110.923
 21
68.1328
  0
LINE
  8
0
 10
110.923
 20
68.1328
 11
110.826
 21
68.3374
  0
LINE
  8
0
 10
110.826
 20
68.3374
 11
110.757
 21
68.5524
  0
LINE
  8
0
 10
110.757
 20
68.5524
 11
110.714
 21
68.7744
  0
LINE
  8
0
 10
110.714
 20
68.7744
 11
110.7
 21
69
  0
LINE
  8
0
 10
110.7
 20
69
 11
110.714
 21
69.2256
  0
LINE
  8
0
 10
110.714
 20
69.2256
 11
110.757
 21
69.4476
  0
LINE
  8
0
 10
110.757
 20
69.4476
 11
110.826
 21
69.6626
  0
LINE
  8
0
 10
110.826
 20
69.6626
 11
110.923
 21
69.8672
  0
LINE
  8
0
 10
110.923
 20
69.8672
 11
111.044
 21
70.058
  0
LINE
  8
0
 10
111.044
 20
70.058
 11
111.188
 21
70.2322
  0
LINE
  8
0
 10
111.188
 20
70.2322
 11
111.353
 21
70.3869
  0
LINE
  8
0
 10
111.353
 20
70.3869
 11
111.536
 21
70.5198
  0
LINE
  8
0
 10
111.536
 20
70.5198
 11
111.734
 21
70.6287
  0
LINE
  8
0
 10
111.734
 20
70.6287
 11
111.944
 21
70.7119
  0
LINE
  8
0
 10
111.944
 20
70.7119
 11
112.163
 21
70.7681
  0
LINE
  8
0
 10
112.163
 20
70.7681
 11
112.387
 21
70.7964
  0
LINE
  8
0
 10
112.387
 20
70.7964
 11
112.613
 21
70.7964
  0
LINE
  8
0
 10
112.613
 20
70.7964
 11
112.837
 21
70.7681
  0
LINE
  8
0
 10
112.837
 20
70.7681
 11
113.056
 21
70.7119
  0
LINE
  8
0
 10
113.056
 20
70.7119
 11
113.266
 21
70.6287
  0
LINE
  8
0
 10
113.266
 20
70.6287
 11
113.464
 21
70.5198
  0
LINE
  8
0
 10
113.464
 20
70.5198
 11
113.647
 21
70.3869
  0
LINE
  8
0
 10
113.647
 20
70.3869
 11
113.812
 21
70.2322
  0
LINE
  8
0
 10
113.812
 20
70.2322
 11
113.956
 21
70.058
  0
LINE
  8
0
 10
113.956
 20
70.058
 11
114.077
 21
69.8672
  0
LINE
  8
0
 10
114.077
 20
69.8672
 11
114.174
 21
69.6626
  0
LINE
  8
0
 10
114.174
 20
69.6626
 11
114.243
 21
69.4476
  0
LINE
  8
0
 10
114.243
 20
69.4476
 11
114.286
 21
69.2256
  0
LINE
  8
0
 10
114.286
 20
69.2256
 11
114.3
 21
69
  0
LINE
  8
0
 10
114.3
 20
69
 11
114.286
 21
68.7744
  0
LINE
  8
0
 10
114.286
 20
68.7744
 11
114.243
 21
68.5524
  0
LINE
  8
0
 10
114.243
 20
68.5524
 11
114.174
 21
68.3374
  0
LINE
  8
0
 10
114.174
 20
68.3374
 11
114.077
 21
68.1328
  0
LINE
  8
0
 10
114.077
 20
68.1328
 11
113.956
 21
67.942
  0
LINE
  8
0
 10
113.956
 20
67.942
 11
113.812
 21
67.7678
  0
LINE
  8
0
 10
113.812
 20
67.7678
 11
113.647
 21
67.6131
  0
LINE
  8
0
 10
113.647
 20
67.6131
 11
113.464
 21
67.4802
  0
LINE
  8
0
 10
113.464
 20
67.4802
 11
113.266
 21
67.3713
  0
LINE
  8
0
 10
113.266
 20
67.3713
 11
113.056
 21
67.2881
  0
LINE
  8
0
 10
113.056
 20
67.2881
 11
112.837
 21
67.2319
  0
LINE
  8
0
 10
112.837
 20
67.2319
 11
112.613
 21
67.2036
  0
LINE
  8
0
 10
112.613
 20
67.2036
 11
112.387
 21
67.2036
  0
LINE
  8
0
 10
-112.613
 20
67.2036
 11
-112.837
 21
67.2319
  0
LINE
  8
0
 10
-112.837
 20
67.2319
 11
-113.056
 21
67.2881
  0
LINE
  8
0
 10
-113.056
 20
67.2881
 11
-113.266
 21
67.3713
  0
LINE
  8
0
 10
-113.266
 20
67.3713
 11
-113.464
 21
67.4802
  0
LINE
  8
0
 10
-113.464
 20
67.4802
 11
-113.647
 21
67.6131
  0
LINE
  8
0
 10
-113.647
 20
67.6131
 11
-113.812
 21
67.7678
  0
LINE
  8
0
 10
-113.812
 20
67.7678
 11
-113.956
 21
67.942
  0
LINE
  8
0
 10
-113.956
 20
67.942
 11
-114.077
 21
68.1328
  0
LINE
  8
0
 10
-114.077
 20
68.1328
 11
-114.174
 21
68.3374
  0
LINE
  8
0
 10
-114.174
 20
68.3374
 11
-114.243
 21
68.5524
  0
LINE
  8
0
 10
-114.243
 20
68.5524
 11
-114.286
 21
68.7744
  0
LINE
  8
0
 10
-114.286
 20
68.7744
 11
-114.3
 21
69
  0
LINE
  8
0
 10
-114.3
 20
69
 11
-114.286
 21
69.2256
  0
LINE
  8
0
 10
-114.286
 20
69.2256
 11
-114.243
 21
69.4476
  0
LINE
  8
0
 10
-114.243
 20
69.4476
 11
-114.174
 21
69.6626
  0
LINE
  8
0
 10
-114.174
 20
69.6626
 11
-114.077
 21
69.8672
  0
LINE
  8
0
 10
-114.077
 20
69.8672
 11
-113.956
 21
70.058
  0
LINE
  8
0
 10
-113.956
 20
70.058
 11
-113.812
 21
70.2322
  0
LINE
  8
0
 10
-113.812
 20
70.2322
 11
-113.647
 21
70.3869
  0
LINE
  8
0
 10
-113.647
 20
70.3869
 11
-113.464
 21
70.5198
  0
LINE
  8
0
 10
-113.464
 20
70.5198
 11
-113.266
 21
70.6287
  0
LINE
  8
0
 10
-113.266
 20
70.6287
 11
-113.056
 21
70.7119
  0
LINE
  8
0
 10
-113.056
 20
70.7119
 11
-112.837
 21
70.7681
  0
LINE
  8
0
 10
-112.837
 20
70.7681
 11
-112.613
 21
70.7964
  0
LINE
  8
0
 10
-112.613
 20
70.7964
 11
-112.387
 21
70.7964
  0
LINE
  8
0
 10
-112.387
 20
70.7964
 11
-112.163
 21
70.7681
  0
LINE
  8
0
 10
-112.163
 20
70.7681
 11
-111.944
 21
70.7119
  0
LINE
  8
0
 10
-111.944
 20
70.7119
 11
-111.734
 21
70.6287
  0
LINE
  8
0
 10
-111.734
 20
70.6287
 11
-111.536
 21
70.5198
  0
LINE
  8
0
 10
-111.536
 20
70.5198
 11
-111.353
 21
70.3869
  0
LINE
  8
0
 10
-111.353
 20
70.3869
 11
-111.188
 21
70.2322
  0
LINE
  8
0
 10
-111.188
 20
70.2322
 11
-111.044
 21
70.058
  0
LINE
  8
0
 10
-111.044
 20
70.058
 11
-110.923
 21
69.8672
  0
LINE
  8
0
 10
-110.923
 20
69.8672
 11
-110.826
 21
69.6626
  0
LINE
  8
0
 10
-110.826
 20
69.6626
 11
-110.757
 21
69.4476
  0
LINE
  8
0
 10
-110.757
 20
69.4476
 11
-110.714
 21
69.2256
  0
LINE
  8
0
 10
-110.714
 20
69.2256
 11
-110.7
 21
69
  0
LINE
  8
0
 10
-110.7
 20
69
 11
-110.714
 21
68.7744
  0
LINE
  8
0
 10
-110.714
 20
68.7744
 11
-110.757
 21
68.5524
  0
LINE
  8
0
 10
-110.757
 20
68.5524
 11
-110.826
 21
68.3374
  0
LINE
  8
0
 10
-110.826
 20
68.3374
 11
-110.923
 21
68.1328
  0
LINE
  8
0
 10
-110.923
 20
68.1328
 11
-111.044
 21
67.942
  0
LINE
  8
0
 10
-111.044
 20
67.942
 11
-111.188
 21
67.7678
  0
LINE
  8
0
 10
-111.188
 20
67.7678
 11
-111.353
 21
67.6131
  0
LINE
  8
0
 10
-111.353
 20
67.6131
 11
-111.536
 21
67.4802
  0
LINE
  8
0
 10
-111.536
 20
67.4802
 11
-111.734
 21
67.3713
  0
LINE
  8
0
 10
-111.734
 20
67.3713
 11
-111.944
 21
67.2881
  0
LINE
  8
0
 10
-111.944
 20
67.2881
 11
-112.163
 21
67.2319
  0
LINE
  8
0
 10
-112.163
 20
67.2319
 11
-112.387
 21
67.2036
  0
LINE
  8
0
 10
-112.387
 20
67.2036
 11
-112.613
 21
67.2036
  0
ENDSEC
  0
SECTION
  2
OBJECTS
  0
DICTIONARY
  0
ENDSEC
  0
EOF
