<?xml version="1.0" standalone="no"?>
<!DOCTYPE svg PUBLIC "-//W3C//DTD SVG 1.1//EN" "http://www.w3.org/Graphics/SVG/1.1/DTD/svg11.dtd">
<svg width="270mm" height="1107mm" viewBox="-135 -1809 270 1107" xmlns="http://www.w3.org/2000/svg" version="1.1">
<title>OpenSCAD Model</title>
<path d="
M 130.937,-1539.09 L 131.545,-1539.24 L 132.129,-1539.48 L 132.679,-1539.78 L 133.187,-1540.15 L 133.645,-1540.58
 L 134.045,-1541.06 L 134.382,-1541.59 L 134.649,-1542.16 L 134.843,-1542.76 L 134.961,-1543.37 L 135,-1544
 L 135,-1804 L 134.961,-1804.63 L 134.843,-1805.24 L 134.649,-1805.84 L 134.382,-1806.41 L 134.045,-1806.94
 L 133.645,-1807.42 L 133.187,-1807.85 L 132.679,-1808.22 L 132.129,-1808.52 L 131.545,-1808.76 L 130.937,-1808.91
 L 130.314,-1808.99 L -130.314,-1808.99 L -130.937,-1808.91 L -131.545,-1808.76 L -132.129,-1808.52 L -132.679,-1808.22
 L -133.187,-1807.85 L -133.645,-1807.42 L -134.045,-1806.94 L -134.382,-1806.41 L -134.649,-1805.84 L -134.843,-1805.24
 L -134.961,-1804.63 L -135,-1804 L -135,-1544 L -134.961,-1543.37 L -134.843,-1542.76 L -134.649,-1542.16
 L -134.382,-1541.59 L -134.045,-1541.06 L -133.645,-1540.58 L -133.187,-1540.15 L -132.679,-1539.78 L -132.129,-1539.48
 L -131.545,-1539.24 L -130.937,-1539.09 L -130.314,-1539.01 L 130.314,-1539.01 z
M -130.048,-1539.51 L -130.64,-1539.58 L -131.218,-1539.73 L -131.772,-1539.95 L -132.295,-1540.24 L -132.778,-1540.59
 L -133.213,-1541 L -133.593,-1541.46 L -133.912,-1541.96 L -134.166,-1542.5 L -134.351,-1543.07 L -134.463,-1543.65
 L -134.5,-1544.25 L -134.5,-1803.75 L -134.463,-1804.35 L -134.351,-1804.93 L -134.166,-1805.5 L -133.912,-1806.04
 L -133.593,-1806.54 L -133.213,-1807 L -132.778,-1807.41 L -132.295,-1807.76 L -131.772,-1808.05 L -131.218,-1808.27
 L -130.64,-1808.42 L -130.048,-1808.49 L 130.048,-1808.49 L 130.64,-1808.42 L 131.218,-1808.27 L 131.772,-1808.05
 L 132.295,-1807.76 L 132.778,-1807.41 L 133.213,-1807 L 133.593,-1806.54 L 133.912,-1806.04 L 134.166,-1805.5
 L 134.351,-1804.93 L 134.463,-1804.35 L 134.5,-1803.75 L 134.5,-1544.25 L 134.463,-1543.65 L 134.351,-1543.07
 L 134.166,-1542.5 L 133.912,-1541.96 L 133.593,-1541.46 L 133.213,-1541 L 132.778,-1540.59 L 132.295,-1540.24
 L 131.772,-1539.95 L 131.218,-1539.73 L 130.64,-1539.58 L 130.048,-1539.51 z
M 130.937,-1260.09 L 131.545,-1260.24 L 132.129,-1260.48 L 132.679,-1260.78 L 133.187,-1261.15 L 133.645,-1261.58
 L 134.045,-1262.06 L 134.382,-1262.59 L 134.649,-1263.16 L 134.843,-1263.76 L 134.961,-1264.37 L 135,-1265
 L 135,-1525 L 134.961,-1525.63 L 134.843,-1526.24 L 134.649,-1526.84 L 134.382,-1527.41 L 134.045,-1527.94
 L 133.645,-1528.42 L 133.187,-1528.85 L 132.679,-1529.22 L 132.129,-1529.52 L 131.545,-1529.76 L 130.937,-1529.91
 L 130.314,-1529.99 L -130.314,-1529.99 L -130.937,-1529.91 L -131.545,-1529.76 L -132.129,-1529.52 L -132.679,-1529.22
 L -133.187,-1528.85 L -133.645,-1528.42 L -134.045,-1527.94 L -134.382,-1527.41 L -134.649,-1526.84 L -134.843,-1526.24
 L -134.961,-1525.63 L -135,-1525 L -135,-1265 L -134.961,-1264.37 L -134.843,-1263.76 L -134.649,-1263.16
 L -134.382,-1262.59 L -134.045,-1262.06 L -133.645,-1261.58 L -133.187,-1261.15 L -132.679,-1260.78 L -132.129,-1260.48
 L -131.545,-1260.24 L -130.937,-1260.09 L -130.314,-1260.01 L 130.314,-1260.01 z
M -130.048,-1260.51 L -130.64,-1260.58 L -131.218,-1260.73 L -131.772,-1260.95 L -132.295,-1261.24 L -132.778,-1261.59
 L -133.213,-1262 L -133.593,-1262.46 L -133.912,-1262.96 L -134.166,-1263.5 L -134.351,-1264.07 L -134.463,-1264.65
 L -134.5,-1265.25 L -134.5,-1524.75 L -134.463,-1525.35 L -134.351,-1525.93 L -134.166,-1526.5 L -133.912,-1527.04
 L -133.593,-1527.54 L -133.213,-1528 L -132.778,-1528.41 L -132.295,-1528.76 L -131.772,-1529.05 L -131.218,-1529.27
 L -130.64,-1529.42 L -130.048,-1529.49 L 130.048,-1529.49 L 130.64,-1529.42 L 131.218,-1529.27 L 131.772,-1529.05
 L 132.295,-1528.76 L 132.778,-1528.41 L 133.213,-1528 L 133.593,-1527.54 L 133.912,-1527.04 L 134.166,-1526.5
 L 134.351,-1525.93 L 134.463,-1525.35 L 134.5,-1524.75 L 134.5,-1265.25 L 134.463,-1264.65 L 134.351,-1264.07
 L 134.166,-1263.5 L 133.912,-1262.96 L 133.593,-1262.46 L 133.213,-1262 L 132.778,-1261.59 L 132.295,-1261.24
 L 131.772,-1260.95 L 131.218,-1260.73 L 130.64,-1260.58 L 130.048,-1260.51 z
M 130.937,-981.089 L 131.545,-981.245 L 132.129,-981.476 L 132.679,-981.778 L 133.187,-982.147 L 133.645,-982.577
 L 134.045,-983.061 L 134.382,-983.591 L 134.649,-984.159 L 134.843,-984.757 L 134.961,-985.373 L 135,-986
 L 135,-1246 L 134.961,-1246.63 L 134.843,-1247.24 L 134.649,-1247.84 L 134.382,-1248.41 L 134.045,-1248.94
 L 133.645,-1249.42 L 133.187,-1249.85 L 132.679,-1250.22 L 132.129,-1250.52 L 131.545,-1250.76 L 130.937,-1250.91
 L 130.314,-1250.99 L -130.314,-1250.99 L -130.937,-1250.91 L -131.545,-1250.76 L -132.129,-1250.52 L -132.679,-1250.22
 L -133.187,-1249.85 L -133.645,-1249.42 L -134.045,-1248.94 L -134.382,-1248.41 L -134.649,-1247.84 L -134.843,-1247.24
 L -134.961,-1246.63 L -135,-1246 L -135,-986 L -134.961,-985.373 L -134.843,-984.757 L -134.649,-984.159
 L -134.382,-983.591 L -134.045,-983.061 L -133.645,-982.577 L -133.187,-982.147 L -132.679,-981.778 L -132.129,-981.476
 L -131.545,-981.245 L -130.937,-981.089 L -130.314,-981.01 L 130.314,-981.01 z
M -129.993,-982.388 L -130.475,-982.449 L -130.946,-982.57 L -131.398,-982.749 L -131.823,-982.983 L -132.216,-983.269
 L -132.571,-983.601 L -132.88,-983.976 L -133.141,-984.386 L -133.348,-984.826 L -133.498,-985.288 L -133.589,-985.765
 L -133.619,-986.25 L -133.619,-1245.75 L -133.589,-1246.23 L -133.498,-1246.71 L -133.348,-1247.17 L -133.141,-1247.61
 L -132.88,-1248.02 L -132.571,-1248.4 L -132.216,-1248.73 L -131.823,-1249.02 L -131.398,-1249.25 L -130.946,-1249.43
 L -130.475,-1249.55 L -129.993,-1249.61 L 129.993,-1249.61 L 130.475,-1249.55 L 130.946,-1249.43 L 131.398,-1249.25
 L 131.823,-1249.02 L 132.216,-1248.73 L 132.571,-1248.4 L 132.88,-1248.02 L 133.141,-1247.61 L 133.348,-1247.17
 L 133.498,-1246.71 L 133.589,-1246.23 L 133.619,-1245.75 L 133.619,-986.25 L 133.589,-985.765 L 133.498,-985.288
 L 133.348,-984.826 L 133.141,-984.386 L 132.88,-983.976 L 132.571,-983.601 L 132.216,-983.269 L 131.823,-982.983
 L 131.398,-982.749 L 130.946,-982.57 L 130.475,-982.449 L 129.993,-982.388 z
M 130.937,-702.089 L 131.545,-702.245 L 132.129,-702.476 L 132.679,-702.778 L 133.187,-703.147 L 133.645,-703.577
 L 134.045,-704.061 L 134.382,-704.591 L 134.649,-705.159 L 134.843,-705.757 L 134.961,-706.373 L 135,-707
 L 135,-967 L 134.961,-967.627 L 134.843,-968.243 L 134.649,-968.841 L 134.382,-969.409 L 134.045,-969.939
 L 133.645,-970.423 L 133.187,-970.853 L 132.679,-971.222 L 132.129,-971.524 L 131.545,-971.755 L 130.937,-971.911
 L 130.314,-971.99 L -130.314,-971.99 L -130.937,-971.911 L -131.545,-971.755 L -132.129,-971.524 L -132.679,-971.222
 L -133.187,-970.853 L -133.645,-970.423 L -134.045,-969.939 L -134.382,-969.409 L -134.649,-968.841 L -134.843,-968.243
 L -134.961,-967.627 L -135,-967 L -135,-707 L -134.961,-706.373 L -134.843,-705.757 L -134.649,-705.159
 L -134.382,-704.591 L -134.045,-704.061 L -133.645,-703.577 L -133.187,-703.147 L -132.679,-702.778 L -132.129,-702.476
 L -131.545,-702.245 L -130.937,-702.089 L -130.314,-702.01 L 130.314,-702.01 z
M 127.387,-962.704 L 127.163,-962.732 L 126.944,-962.788 L 126.734,-962.871 L 126.536,-962.98 L 126.353,-963.113
 L 126.188,-963.268 L 126.044,-963.442 L 125.923,-963.633 L 125.826,-963.837 L 125.757,-964.052 L 125.714,-964.274
 L 125.7,-964.5 L 125.714,-964.726 L 125.757,-964.948 L 125.826,-965.163 L 125.923,-965.367 L 126.044,-965.558
 L 126.188,-965.732 L 126.353,-965.887 L 126.536,-966.02 L 126.734,-966.129 L 126.944,-966.212 L 127.163,-966.268
 L 127.387,-966.296 L 127.613,-966.296 L 127.837,-966.268 L 128.056,-966.212 L 128.266,-966.129 L 128.464,-966.02
 L 128.647,-965.887 L 128.812,-965.732 L 128.956,-965.558 L 129.077,-965.367 L 129.174,-965.163 L 129.243,-964.948
 L 129.286,-964.726 L 129.3,-964.5 L 129.286,-964.274 L 129.243,-964.052 L 129.174,-963.837 L 129.077,-963.633
 L 128.956,-963.442 L 128.812,-963.268 L 128.647,-963.113 L 128.464,-962.98 L 128.266,-962.871 L 128.056,-962.788
 L 127.837,-962.732 L 127.613,-962.704 z
M -127.613,-962.704 L -127.837,-962.732 L -128.056,-962.788 L -128.266,-962.871 L -128.464,-962.98 L -128.647,-963.113
 L -128.812,-963.268 L -128.956,-963.442 L -129.077,-963.633 L -129.174,-963.837 L -129.243,-964.052 L -129.286,-964.274
 L -129.3,-964.5 L -129.286,-964.726 L -129.243,-964.948 L -129.174,-965.163 L -129.077,-965.367 L -128.956,-965.558
 L -128.812,-965.732 L -128.647,-965.887 L -128.464,-966.02 L -128.266,-966.129 L -128.056,-966.212 L -127.837,-966.268
 L -127.613,-966.296 L -127.387,-966.296 L -127.163,-966.268 L -126.944,-966.212 L -126.734,-966.129 L -126.536,-966.02
 L -126.353,-965.887 L -126.188,-965.732 L -126.044,-965.558 L -125.923,-965.367 L -125.826,-965.163 L -125.757,-964.948
 L -125.714,-964.726 L -125.7,-964.5 L -125.714,-964.274 L -125.757,-964.052 L -125.826,-963.837 L -125.923,-963.633
 L -126.044,-963.442 L -126.188,-963.268 L -126.353,-963.113 L -126.536,-962.98 L -126.734,-962.871 L -126.944,-962.788
 L -127.163,-962.732 L -127.387,-962.704 z
M -127.613,-707.704 L -127.837,-707.732 L -128.056,-707.788 L -128.266,-707.871 L -128.464,-707.98 L -128.647,-708.113
 L -128.812,-708.268 L -128.956,-708.442 L -129.077,-708.633 L -129.174,-708.837 L -129.243,-709.052 L -129.286,-709.274
 L -129.3,-709.5 L -129.286,-709.726 L -129.243,-709.948 L -129.174,-710.163 L -129.077,-710.367 L -128.956,-710.558
 L -128.812,-710.732 L -128.647,-710.887 L -128.464,-711.02 L -128.266,-711.129 L -128.056,-711.212 L -127.837,-711.268
 L -127.613,-711.296 L -127.387,-711.296 L -127.163,-711.268 L -126.944,-711.212 L -126.734,-711.129 L -126.536,-711.02
 L -126.353,-710.887 L -126.188,-710.732 L -126.044,-710.558 L -125.923,-710.367 L -125.826,-710.163 L -125.757,-709.948
 L -125.714,-709.726 L -125.7,-709.5 L -125.714,-709.274 L -125.757,-709.052 L -125.826,-708.837 L -125.923,-708.633
 L -126.044,-708.442 L -126.188,-708.268 L -126.353,-708.113 L -126.536,-707.98 L -126.734,-707.871 L -126.944,-707.788
 L -127.163,-707.732 L -127.387,-707.704 z
M 127.387,-707.704 L 127.163,-707.732 L 126.944,-707.788 L 126.734,-707.871 L 126.536,-707.98 L 126.353,-708.113
 L 126.188,-708.268 L 126.044,-708.442 L 125.923,-708.633 L 125.826,-708.837 L 125.757,-709.052 L 125.714,-709.274
 L 125.7,-709.5 L 125.714,-709.726 L 125.757,-709.948 L 125.826,-710.163 L 125.923,-710.367 L 126.044,-710.558
 L 126.188,-710.732 L 126.353,-710.887 L 126.536,-711.02 L 126.734,-711.129 L 126.944,-711.212 L 127.163,-711.268
 L 127.387,-711.296 L 127.613,-711.296 L 127.837,-711.268 L 128.056,-711.212 L 128.266,-711.129 L 128.464,-711.02
 L 128.647,-710.887 L 128.812,-710.732 L 128.956,-710.558 L 129.077,-710.367 L 129.174,-710.163 L 129.243,-709.948
 L 129.286,-709.726 L 129.3,-709.5 L 129.286,-709.274 L 129.243,-709.052 L 129.174,-708.837 L 129.077,-708.633
 L 128.956,-708.442 L 128.812,-708.268 L 128.647,-708.113 L 128.464,-707.98 L 128.266,-707.871 L 128.056,-707.788
 L 127.837,-707.732 L 127.613,-707.704 z
" stroke="black" fill="lightgray" stroke-width="0.5"/>
</svg>
