<?xml version="1.0" standalone="no"?>
<!DOCTYPE svg PUBLIC "-//W3C//DTD SVG 1.1//EN" "http://www.w3.org/Graphics/SVG/1.1/DTD/svg11.dtd">
<svg width="302mm" height="1386mm" viewBox="-152 -2646 302 1386" xmlns="http://www.w3.org/2000/svg" version="1.1">
<title>OpenSCAD Model</title>
<path d="
M -148.5,-2377.44 L -148.187,-2377.15 L -147.679,-2376.78 L -147.129,-2376.48 L -146.545,-2376.24 L -145.937,-2376.09
 L -145.314,-2376.01 L 145.314,-2376.01 L 145.937,-2376.09 L 146.545,-2376.24 L 147.129,-2376.48 L 147.679,-2376.78
 L 148.187,-2377.15 L 148.645,-2377.58 L 149.045,-2378.06 L 149.382,-2378.59 L 149.649,-2379.16 L 149.843,-2379.76
 L 149.961,-2380.37 L 150,-2381 L 150,-2641 L 149.961,-2641.63 L 149.843,-2642.24 L 149.649,-2642.84
 L 149.382,-2643.41 L 149.045,-2643.94 L 148.645,-2644.42 L 148.187,-2644.85 L 147.679,-2645.22 L 147.129,-2645.52
 L 146.545,-2645.76 L 145.937,-2645.91 L 145.314,-2645.99 L -145.314,-2645.99 L -145.937,-2645.91 L -146.545,-2645.76
 L -147.129,-2645.52 L -147.679,-2645.22 L -148.187,-2644.85 L -148.5,-2644.56 L -148.5,-2645.99 L -151.5,-2645.99
 L -151.5,-2376.01 L -148.5,-2376.01 z
M -144.751,-2377.51 L -145.25,-2377.57 L -145.736,-2377.7 L -146.203,-2377.88 L -146.643,-2378.12 L -147.05,-2378.42
 L -147.416,-2378.76 L -147.736,-2379.15 L -148.005,-2379.57 L -148.219,-2380.03 L -148.374,-2380.51 L -148.468,-2381
 L -148.5,-2381.5 L -148.5,-2640.5 L -148.468,-2641 L -148.374,-2641.49 L -148.219,-2641.97 L -148.005,-2642.43
 L -147.736,-2642.85 L -147.416,-2643.24 L -147.05,-2643.58 L -146.643,-2643.88 L -146.203,-2644.12 L -145.736,-2644.3
 L -145.25,-2644.43 L -144.751,-2644.49 L 144.751,-2644.49 L 145.25,-2644.43 L 145.736,-2644.3 L 146.203,-2644.12
 L 146.643,-2643.88 L 147.05,-2643.58 L 147.416,-2643.24 L 147.736,-2642.85 L 148.005,-2642.43 L 148.219,-2641.97
 L 148.374,-2641.49 L 148.468,-2641 L 148.5,-2640.5 L 148.5,-2381.5 L 148.468,-2381 L 148.374,-2380.51
 L 148.219,-2380.03 L 148.005,-2379.57 L 147.736,-2379.15 L 147.416,-2378.76 L 147.05,-2378.42 L 146.643,-2378.12
 L 146.203,-2377.88 L 145.736,-2377.7 L 145.25,-2377.57 L 144.751,-2377.51 z
M -148.5,-2098.44 L -148.187,-2098.15 L -147.679,-2097.78 L -147.129,-2097.48 L -146.545,-2097.24 L -145.937,-2097.09
 L -145.314,-2097.01 L 145.314,-2097.01 L 145.937,-2097.09 L 146.545,-2097.24 L 147.129,-2097.48 L 147.679,-2097.78
 L 148.187,-2098.15 L 148.645,-2098.58 L 149.045,-2099.06 L 149.382,-2099.59 L 149.649,-2100.16 L 149.843,-2100.76
 L 149.961,-2101.37 L 150,-2102 L 150,-2362 L 149.961,-2362.63 L 149.843,-2363.24 L 149.649,-2363.84
 L 149.382,-2364.41 L 149.045,-2364.94 L 148.645,-2365.42 L 148.187,-2365.85 L 147.679,-2366.22 L 147.129,-2366.52
 L 146.545,-2366.76 L 145.937,-2366.91 L 145.314,-2366.99 L -145.314,-2366.99 L -145.937,-2366.91 L -146.545,-2366.76
 L -147.129,-2366.52 L -147.679,-2366.22 L -148.187,-2365.85 L -148.5,-2365.56 L -148.5,-2366.99 L -151.5,-2366.99
 L -151.5,-2097.01 L -148.5,-2097.01 z
M -144.751,-2098.51 L -145.25,-2098.57 L -145.736,-2098.7 L -146.203,-2098.88 L -146.643,-2099.12 L -147.05,-2099.42
 L -147.416,-2099.76 L -147.736,-2100.15 L -148.005,-2100.57 L -148.219,-2101.03 L -148.374,-2101.51 L -148.468,-2102
 L -148.5,-2102.5 L -148.5,-2361.5 L -148.468,-2362 L -148.374,-2362.49 L -148.219,-2362.97 L -148.005,-2363.43
 L -147.736,-2363.85 L -147.416,-2364.24 L -147.05,-2364.58 L -146.643,-2364.88 L -146.203,-2365.12 L -145.736,-2365.3
 L -145.25,-2365.43 L -144.751,-2365.49 L 144.751,-2365.49 L 145.25,-2365.43 L 145.736,-2365.3 L 146.203,-2365.12
 L 146.643,-2364.88 L 147.05,-2364.58 L 147.416,-2364.24 L 147.736,-2363.85 L 148.005,-2363.43 L 148.219,-2362.97
 L 148.374,-2362.49 L 148.468,-2362 L 148.5,-2361.5 L 148.5,-2102.5 L 148.468,-2102 L 148.374,-2101.51
 L 148.219,-2101.03 L 148.005,-2100.57 L 147.736,-2100.15 L 147.416,-2099.76 L 147.05,-2099.42 L 146.643,-2099.12
 L 146.203,-2098.88 L 145.736,-2098.7 L 145.25,-2098.57 L 144.751,-2098.51 z
M -148.5,-1819.44 L -148.187,-1819.15 L -147.679,-1818.78 L -147.129,-1818.48 L -146.545,-1818.24 L -145.937,-1818.09
 L -145.314,-1818.01 L 145.314,-1818.01 L 145.937,-1818.09 L 146.545,-1818.24 L 147.129,-1818.48 L 147.679,-1818.78
 L 148.187,-1819.15 L 148.645,-1819.58 L 149.045,-1820.06 L 149.382,-1820.59 L 149.649,-1821.16 L 149.843,-1821.76
 L 149.961,-1822.37 L 150,-1823 L 150,-2083 L 149.961,-2083.63 L 149.843,-2084.24 L 149.649,-2084.84
 L 149.382,-2085.41 L 149.045,-2085.94 L 148.645,-2086.42 L 148.187,-2086.85 L 147.679,-2087.22 L 147.129,-2087.52
 L 146.545,-2087.76 L 145.937,-2087.91 L 145.314,-2087.99 L -145.314,-2087.99 L -145.937,-2087.91 L -146.545,-2087.76
 L -147.129,-2087.52 L -147.679,-2087.22 L -148.187,-2086.85 L -148.5,-2086.56 L -148.5,-2087.99 L -151.5,-2087.99
 L -151.5,-1818.01 L -148.5,-1818.01 z
M -144.751,-1819.51 L -145.25,-1819.57 L -145.736,-1819.7 L -146.203,-1819.88 L -146.643,-1820.12 L -147.05,-1820.42
 L -147.416,-1820.76 L -147.736,-1821.15 L -148.005,-1821.57 L -148.219,-1822.03 L -148.374,-1822.51 L -148.468,-1823
 L -148.5,-1823.5 L -148.5,-2082.5 L -148.468,-2083 L -148.374,-2083.49 L -148.219,-2083.97 L -148.005,-2084.43
 L -147.736,-2084.85 L -147.416,-2085.24 L -147.05,-2085.58 L -146.643,-2085.88 L -146.203,-2086.12 L -145.736,-2086.3
 L -145.25,-2086.43 L -144.751,-2086.49 L 144.751,-2086.49 L 145.25,-2086.43 L 145.736,-2086.3 L 146.203,-2086.12
 L 146.643,-2085.88 L 147.05,-2085.58 L 147.416,-2085.24 L 147.736,-2084.85 L 148.005,-2084.43 L 148.219,-2083.97
 L 148.374,-2083.49 L 148.468,-2083 L 148.5,-2082.5 L 148.5,-1823.5 L 148.468,-1823 L 148.374,-1822.51
 L 148.219,-1822.03 L 148.005,-1821.57 L 147.736,-1821.15 L 147.416,-1820.76 L 147.05,-1820.42 L 146.643,-1820.12
 L 146.203,-1819.88 L 145.736,-1819.7 L 145.25,-1819.57 L 144.751,-1819.51 z
M 145.937,-1539.09 L 146.545,-1539.24 L 147.129,-1539.48 L 147.679,-1539.78 L 148.187,-1540.15 L 148.645,-1540.58
 L 149.045,-1541.06 L 149.382,-1541.59 L 149.649,-1542.16 L 149.843,-1542.76 L 149.961,-1543.37 L 150,-1544
 L 150,-1804 L 149.961,-1804.63 L 149.843,-1805.24 L 149.649,-1805.84 L 149.382,-1806.41 L 149.045,-1806.94
 L 148.645,-1807.42 L 148.187,-1807.85 L 147.679,-1808.22 L 147.129,-1808.52 L 146.545,-1808.76 L 145.937,-1808.91
 L 145.314,-1808.99 L -145.314,-1808.99 L -145.937,-1808.91 L -146.545,-1808.76 L -147.129,-1808.52 L -147.679,-1808.22
 L -148.187,-1807.85 L -148.5,-1807.56 L -148.5,-1808.98 L -151.5,-1808.98 L -151.5,-1539.02 L -148.5,-1539.02
 L -148.5,-1540.44 L -148.187,-1540.15 L -147.679,-1539.78 L -147.129,-1539.48 L -146.545,-1539.24 L -145.937,-1539.09
 L -145.314,-1539.01 L 145.314,-1539.01 z
M -144.695,-1541.39 L -145.083,-1541.44 L -145.462,-1541.54 L -145.825,-1541.68 L -146.168,-1541.87 L -146.484,-1542.1
 L -146.769,-1542.37 L -147.018,-1542.67 L -147.228,-1543 L -147.394,-1543.35 L -147.515,-1543.73 L -147.588,-1544.11
 L -147.613,-1544.5 L -147.613,-1803.5 L -147.588,-1803.89 L -147.515,-1804.27 L -147.394,-1804.65 L -147.228,-1805
 L -147.018,-1805.33 L -146.769,-1805.63 L -146.484,-1805.9 L -146.168,-1806.13 L -145.825,-1806.32 L -145.462,-1806.46
 L -145.083,-1806.56 L -144.695,-1806.61 L 144.695,-1806.61 L 145.083,-1806.56 L 145.462,-1806.46 L 145.825,-1806.32
 L 146.168,-1806.13 L 146.484,-1805.9 L 146.769,-1805.63 L 147.018,-1805.33 L 147.228,-1805 L 147.394,-1804.65
 L 147.515,-1804.27 L 147.588,-1803.89 L 147.613,-1803.5 L 147.613,-1544.5 L 147.588,-1544.11 L 147.515,-1543.73
 L 147.394,-1543.35 L 147.228,-1543 L 147.018,-1542.67 L 146.769,-1542.37 L 146.484,-1542.1 L 146.168,-1541.87
 L 145.825,-1541.68 L 145.462,-1541.54 L 145.083,-1541.44 L 144.695,-1541.39 z
M 145.937,-1260.09 L 146.545,-1260.24 L 147.129,-1260.48 L 147.679,-1260.78 L 148.187,-1261.15 L 148.645,-1261.58
 L 149.045,-1262.06 L 149.382,-1262.59 L 149.649,-1263.16 L 149.843,-1263.76 L 149.961,-1264.37 L 150,-1265
 L 150,-1525 L 149.961,-1525.63 L 149.843,-1526.24 L 149.649,-1526.84 L 149.382,-1527.41 L 149.045,-1527.94
 L 148.645,-1528.42 L 148.187,-1528.85 L 147.679,-1529.22 L 147.129,-1529.52 L 146.545,-1529.76 L 145.937,-1529.91
 L 145.314,-1529.99 L -145.314,-1529.99 L -145.937,-1529.91 L -146.545,-1529.76 L -147.129,-1529.52 L -147.679,-1529.22
 L -148.187,-1528.85 L -148.5,-1528.56 L -148.5,-1528.65 L -151.5,-1528.65 L -151.5,-1261.35 L -148.5,-1261.35
 L -148.5,-1261.44 L -148.187,-1261.15 L -147.679,-1260.78 L -147.129,-1260.48 L -146.545,-1260.24 L -145.937,-1260.09
 L -145.314,-1260.01 L 145.314,-1260.01 z
M -142.634,-1520.37 L -142.9,-1520.4 L -143.16,-1520.47 L -143.409,-1520.57 L -143.644,-1520.7 L -143.861,-1520.85
 L -144.057,-1521.04 L -144.227,-1521.24 L -144.371,-1521.47 L -144.485,-1521.71 L -144.568,-1521.97 L -144.618,-1522.23
 L -144.635,-1522.5 L -144.618,-1522.77 L -144.568,-1523.03 L -144.485,-1523.29 L -144.371,-1523.53 L -144.227,-1523.76
 L -144.057,-1523.96 L -143.861,-1524.15 L -143.644,-1524.3 L -143.409,-1524.43 L -143.16,-1524.53 L -142.9,-1524.6
 L -142.634,-1524.63 L -142.366,-1524.63 L -142.1,-1524.6 L -141.84,-1524.53 L -141.591,-1524.43 L -141.356,-1524.3
 L -141.139,-1524.15 L -140.943,-1523.96 L -140.773,-1523.76 L -140.629,-1523.53 L -140.515,-1523.29 L -140.432,-1523.03
 L -140.382,-1522.77 L -140.365,-1522.5 L -140.382,-1522.23 L -140.432,-1521.97 L -140.515,-1521.71 L -140.629,-1521.47
 L -140.773,-1521.24 L -140.943,-1521.04 L -141.139,-1520.85 L -141.356,-1520.7 L -141.591,-1520.57 L -141.84,-1520.47
 L -142.1,-1520.4 L -142.366,-1520.37 z
M 142.366,-1520.37 L 142.1,-1520.4 L 141.84,-1520.47 L 141.591,-1520.57 L 141.356,-1520.7 L 141.139,-1520.85
 L 140.943,-1521.04 L 140.773,-1521.24 L 140.629,-1521.47 L 140.515,-1521.71 L 140.432,-1521.97 L 140.382,-1522.23
 L 140.365,-1522.5 L 140.382,-1522.77 L 140.432,-1523.03 L 140.515,-1523.29 L 140.629,-1523.53 L 140.773,-1523.76
 L 140.943,-1523.96 L 141.139,-1524.15 L 141.356,-1524.3 L 141.591,-1524.43 L 141.84,-1524.53 L 142.1,-1524.6
 L 142.366,-1524.63 L 142.634,-1524.63 L 142.9,-1524.6 L 143.16,-1524.53 L 143.409,-1524.43 L 143.644,-1524.3
 L 143.861,-1524.15 L 144.057,-1523.96 L 144.227,-1523.76 L 144.371,-1523.53 L 144.485,-1523.29 L 144.568,-1523.03
 L 144.618,-1522.77 L 144.635,-1522.5 L 144.618,-1522.23 L 144.568,-1521.97 L 144.485,-1521.71 L 144.371,-1521.47
 L 144.227,-1521.24 L 144.057,-1521.04 L 143.861,-1520.85 L 143.644,-1520.7 L 143.409,-1520.57 L 143.16,-1520.47
 L 142.9,-1520.4 L 142.634,-1520.37 z
M -142.634,-1265.37 L -142.9,-1265.4 L -143.16,-1265.47 L -143.409,-1265.57 L -143.644,-1265.7 L -143.861,-1265.85
 L -144.057,-1266.04 L -144.227,-1266.24 L -144.371,-1266.47 L -144.485,-1266.71 L -144.568,-1266.97 L -144.618,-1267.23
 L -144.635,-1267.5 L -144.618,-1267.77 L -144.568,-1268.03 L -144.485,-1268.29 L -144.371,-1268.53 L -144.227,-1268.76
 L -144.057,-1268.96 L -143.861,-1269.15 L -143.644,-1269.3 L -143.409,-1269.43 L -143.16,-1269.53 L -142.9,-1269.6
 L -142.634,-1269.63 L -142.366,-1269.63 L -142.1,-1269.6 L -141.84,-1269.53 L -141.591,-1269.43 L -141.356,-1269.3
 L -141.139,-1269.15 L -140.943,-1268.96 L -140.773,-1268.76 L -140.629,-1268.53 L -140.515,-1268.29 L -140.432,-1268.03
 L -140.382,-1267.77 L -140.365,-1267.5 L -140.382,-1267.23 L -140.432,-1266.97 L -140.515,-1266.71 L -140.629,-1266.47
 L -140.773,-1266.24 L -140.943,-1266.04 L -141.139,-1265.85 L -141.356,-1265.7 L -141.591,-1265.57 L -141.84,-1265.47
 L -142.1,-1265.4 L -142.366,-1265.37 z
M 142.366,-1265.37 L 142.1,-1265.4 L 141.84,-1265.47 L 141.591,-1265.57 L 141.356,-1265.7 L 141.139,-1265.85
 L 140.943,-1266.04 L 140.773,-1266.24 L 140.629,-1266.47 L 140.515,-1266.71 L 140.432,-1266.97 L 140.382,-1267.23
 L 140.365,-1267.5 L 140.382,-1267.77 L 140.432,-1268.03 L 140.515,-1268.29 L 140.629,-1268.53 L 140.773,-1268.76
 L 140.943,-1268.96 L 141.139,-1269.15 L 141.356,-1269.3 L 141.591,-1269.43 L 141.84,-1269.53 L 142.1,-1269.6
 L 142.366,-1269.63 L 142.634,-1269.63 L 142.9,-1269.6 L 143.16,-1269.53 L 143.409,-1269.43 L 143.644,-1269.3
 L 143.861,-1269.15 L 144.057,-1268.96 L 144.227,-1268.76 L 144.371,-1268.53 L 144.485,-1268.29 L 144.568,-1268.03
 L 144.618,-1267.77 L 144.635,-1267.5 L 144.618,-1267.23 L 144.568,-1266.97 L 144.485,-1266.71 L 144.371,-1266.47
 L 144.227,-1266.24 L 144.057,-1266.04 L 143.861,-1265.85 L 143.644,-1265.7 L 143.409,-1265.57 L 143.16,-1265.47
 L 142.9,-1265.4 L 142.634,-1265.37 z
" stroke="black" fill="lightgray" stroke-width="0.5"/>
</svg>
