<?xml version="1.0" standalone="no"?>
<!DOCTYPE svg PUBLIC "-//W3C//DTD SVG 1.1//EN" "http://www.w3.org/Graphics/SVG/1.1/DTD/svg11.dtd">
<svg width="257mm" height="694mm" viewBox="-129 -1283 257 694" xmlns="http://www.w3.org/2000/svg" version="1.1">
<title>OpenSCAD Model</title>
<path d="
M -126,-1058.94 L -125.687,-1058.65 L -125.179,-1058.28 L -124.629,-1057.98 L -124.045,-1057.74 L -123.437,-1057.59
 L -122.814,-1057.51 L 122.814,-1057.51 L 123.437,-1057.59 L 124.045,-1057.74 L 124.629,-1057.98 L 125.179,-1058.28
 L 125.687,-1058.65 L 126.145,-1059.08 L 126.545,-1059.56 L 126.882,-1060.09 L 127.149,-1060.66 L 127.343,-1061.26
 L 127.461,-1061.87 L 127.5,-1062.5 L 127.5,-1277.5 L 127.461,-1278.13 L 127.343,-1278.74 L 127.149,-1279.34
 L 126.882,-1279.91 L 126.545,-1280.44 L 126.145,-1280.92 L 125.687,-1281.35 L 125.179,-1281.72 L 124.629,-1282.02
 L 124.045,-1282.26 L 123.437,-1282.41 L 122.814,-1282.49 L -122.814,-1282.49 L -123.437,-1282.41 L -124.045,-1282.26
 L -124.629,-1282.02 L -125.179,-1281.72 L -125.687,-1281.35 L -126,-1281.06 L -126,-1282.49 L -129,-1282.49
 L -129,-1057.51 L -126,-1057.51 z
M -122.251,-1059.01 L -122.75,-1059.07 L -123.236,-1059.2 L -123.703,-1059.38 L -124.143,-1059.62 L -124.55,-1059.92
 L -124.916,-1060.26 L -125.236,-1060.65 L -125.505,-1061.07 L -125.719,-1061.53 L -125.874,-1062.01 L -125.968,-1062.5
 L -126,-1063 L -126,-1277 L -125.968,-1277.5 L -125.874,-1277.99 L -125.719,-1278.47 L -125.505,-1278.93
 L -125.236,-1279.35 L -124.916,-1279.74 L -124.55,-1280.08 L -124.143,-1280.38 L -123.703,-1280.62 L -123.236,-1280.8
 L -122.75,-1280.93 L -122.251,-1280.99 L 122.251,-1280.99 L 122.75,-1280.93 L 123.236,-1280.8 L 123.703,-1280.62
 L 124.143,-1280.38 L 124.55,-1280.08 L 124.916,-1279.74 L 125.236,-1279.35 L 125.505,-1278.93 L 125.719,-1278.47
 L 125.874,-1277.99 L 125.968,-1277.5 L 126,-1277 L 126,-1063 L 125.968,-1062.5 L 125.874,-1062.01
 L 125.719,-1061.53 L 125.505,-1061.07 L 125.236,-1060.65 L 124.916,-1060.26 L 124.55,-1059.92 L 124.143,-1059.62
 L 123.703,-1059.38 L 123.236,-1059.2 L 122.75,-1059.07 L 122.251,-1059.01 z
M 123.437,-823.589 L 124.045,-823.745 L 124.629,-823.976 L 125.179,-824.278 L 125.687,-824.647 L 126.145,-825.077
 L 126.545,-825.561 L 126.882,-826.091 L 127.149,-826.659 L 127.343,-827.257 L 127.461,-827.873 L 127.5,-828.5
 L 127.5,-1043.5 L 127.461,-1044.13 L 127.343,-1044.74 L 127.149,-1045.34 L 126.882,-1045.91 L 126.545,-1046.44
 L 126.145,-1046.92 L 125.687,-1047.35 L 125.179,-1047.72 L 124.629,-1048.02 L 124.045,-1048.26 L 123.437,-1048.41
 L 122.814,-1048.49 L -122.814,-1048.49 L -123.437,-1048.41 L -124.045,-1048.26 L -124.629,-1048.02 L -125.179,-1047.72
 L -125.687,-1047.35 L -126,-1047.06 L -126,-1048.48 L -129,-1048.48 L -129,-823.521 L -126,-823.521
 L -126,-824.941 L -125.687,-824.647 L -125.179,-824.278 L -124.629,-823.976 L -124.045,-823.745 L -123.437,-823.589
 L -122.814,-823.51 L 122.814,-823.51 z
M -122.195,-825.893 L -122.583,-825.942 L -122.962,-826.039 L -123.325,-826.183 L -123.668,-826.372 L -123.984,-826.601
 L -124.269,-826.869 L -124.518,-827.17 L -124.728,-827.5 L -124.894,-827.854 L -125.015,-828.226 L -125.088,-828.61
 L -125.113,-829 L -125.113,-1043 L -125.088,-1043.39 L -125.015,-1043.77 L -124.894,-1044.15 L -124.728,-1044.5
 L -124.518,-1044.83 L -124.269,-1045.13 L -123.984,-1045.4 L -123.668,-1045.63 L -123.325,-1045.82 L -122.962,-1045.96
 L -122.583,-1046.06 L -122.195,-1046.11 L 122.195,-1046.11 L 122.583,-1046.06 L 122.962,-1045.96 L 123.325,-1045.82
 L 123.668,-1045.63 L 123.984,-1045.4 L 124.269,-1045.13 L 124.518,-1044.83 L 124.728,-1044.5 L 124.894,-1044.15
 L 125.015,-1043.77 L 125.088,-1043.39 L 125.113,-1043 L 125.113,-829 L 125.088,-828.61 L 125.015,-828.226
 L 124.894,-827.854 L 124.728,-827.5 L 124.518,-827.17 L 124.269,-826.869 L 123.984,-826.601 L 123.668,-826.372
 L 123.325,-826.183 L 122.962,-826.039 L 122.583,-825.942 L 122.195,-825.893 z
M 123.437,-589.589 L 124.045,-589.745 L 124.629,-589.976 L 125.179,-590.278 L 125.687,-590.647 L 126.145,-591.077
 L 126.545,-591.561 L 126.882,-592.091 L 127.149,-592.659 L 127.343,-593.257 L 127.461,-593.873 L 127.5,-594.5
 L 127.5,-809.5 L 127.461,-810.127 L 127.343,-810.743 L 127.149,-811.341 L 126.882,-811.909 L 126.545,-812.439
 L 126.145,-812.923 L 125.687,-813.353 L 125.179,-813.722 L 124.629,-814.024 L 124.045,-814.255 L 123.437,-814.411
 L 122.814,-814.49 L -122.814,-814.49 L -123.437,-814.411 L -124.045,-814.255 L -124.629,-814.024 L -125.179,-813.722
 L -125.687,-813.353 L -126,-813.059 L -126,-813.153 L -129,-813.153 L -129,-590.847 L -126,-590.847
 L -126,-590.941 L -125.687,-590.647 L -125.179,-590.278 L -124.629,-589.976 L -124.045,-589.745 L -123.437,-589.589
 L -122.814,-589.51 L 122.814,-589.51 z
M 119.866,-804.869 L 119.6,-804.903 L 119.34,-804.969 L 119.091,-805.068 L 118.856,-805.197 L 118.639,-805.355
 L 118.443,-805.538 L 118.273,-805.745 L 118.129,-805.971 L 118.015,-806.214 L 117.932,-806.469 L 117.882,-806.732
 L 117.865,-807 L 117.882,-807.268 L 117.932,-807.531 L 118.015,-807.786 L 118.129,-808.029 L 118.273,-808.255
 L 118.443,-808.462 L 118.639,-808.645 L 118.856,-808.803 L 119.091,-808.932 L 119.34,-809.031 L 119.6,-809.097
 L 119.866,-809.131 L 120.134,-809.131 L 120.4,-809.097 L 120.66,-809.031 L 120.909,-808.932 L 121.144,-808.803
 L 121.361,-808.645 L 121.557,-808.462 L 121.727,-808.255 L 121.871,-808.029 L 121.985,-807.786 L 122.068,-807.531
 L 122.118,-807.268 L 122.135,-807 L 122.118,-806.732 L 122.068,-806.469 L 121.985,-806.214 L 121.871,-805.971
 L 121.727,-805.745 L 121.557,-805.538 L 121.361,-805.355 L 121.144,-805.197 L 120.909,-805.068 L 120.66,-804.969
 L 120.4,-804.903 L 120.134,-804.869 z
M -120.134,-804.869 L -120.4,-804.903 L -120.66,-804.969 L -120.909,-805.068 L -121.144,-805.197 L -121.361,-805.355
 L -121.557,-805.538 L -121.727,-805.745 L -121.871,-805.971 L -121.985,-806.214 L -122.068,-806.469 L -122.118,-806.732
 L -122.135,-807 L -122.118,-807.268 L -122.068,-807.531 L -121.985,-807.786 L -121.871,-808.029 L -121.727,-808.255
 L -121.557,-808.462 L -121.361,-808.645 L -121.144,-808.803 L -120.909,-808.932 L -120.66,-809.031 L -120.4,-809.097
 L -120.134,-809.131 L -119.866,-809.131 L -119.6,-809.097 L -119.34,-809.031 L -119.091,-808.932 L -118.856,-808.803
 L -118.639,-808.645 L -118.443,-808.462 L -118.273,-808.255 L -118.129,-808.029 L -118.015,-807.786 L -117.932,-807.531
 L -117.882,-807.268 L -117.865,-807 L -117.882,-806.732 L -117.932,-806.469 L -118.015,-806.214 L -118.129,-805.971
 L -118.273,-805.745 L -118.443,-805.538 L -118.639,-805.355 L -118.856,-805.197 L -119.091,-805.068 L -119.34,-804.969
 L -119.6,-804.903 L -119.866,-804.869 z
M 119.866,-594.869 L 119.6,-594.903 L 119.34,-594.969 L 119.091,-595.068 L 118.856,-595.197 L 118.639,-595.355
 L 118.443,-595.538 L 118.273,-595.745 L 118.129,-595.971 L 118.015,-596.214 L 117.932,-596.469 L 117.882,-596.732
 L 117.865,-597 L 117.882,-597.268 L 117.932,-597.531 L 118.015,-597.786 L 118.129,-598.029 L 118.273,-598.255
 L 118.443,-598.462 L 118.639,-598.645 L 118.856,-598.803 L 119.091,-598.932 L 119.34,-599.031 L 119.6,-599.097
 L 119.866,-599.131 L 120.134,-599.131 L 120.4,-599.097 L 120.66,-599.031 L 120.909,-598.932 L 121.144,-598.803
 L 121.361,-598.645 L 121.557,-598.462 L 121.727,-598.255 L 121.871,-598.029 L 121.985,-597.786 L 122.068,-597.531
 L 122.118,-597.268 L 122.135,-597 L 122.118,-596.732 L 122.068,-596.469 L 121.985,-596.214 L 121.871,-595.971
 L 121.727,-595.745 L 121.557,-595.538 L 121.361,-595.355 L 121.144,-595.197 L 120.909,-595.068 L 120.66,-594.969
 L 120.4,-594.903 L 120.134,-594.869 z
M -120.134,-594.869 L -120.4,-594.903 L -120.66,-594.969 L -120.909,-595.068 L -121.144,-595.197 L -121.361,-595.355
 L -121.557,-595.538 L -121.727,-595.745 L -121.871,-595.971 L -121.985,-596.214 L -122.068,-596.469 L -122.118,-596.732
 L -122.135,-597 L -122.118,-597.268 L -122.068,-597.531 L -121.985,-597.786 L -121.871,-598.029 L -121.727,-598.255
 L -121.557,-598.462 L -121.361,-598.645 L -121.144,-598.803 L -120.909,-598.932 L -120.66,-599.031 L -120.4,-599.097
 L -120.134,-599.131 L -119.866,-599.131 L -119.6,-599.097 L -119.34,-599.031 L -119.091,-598.932 L -118.856,-598.803
 L -118.639,-598.645 L -118.443,-598.462 L -118.273,-598.255 L -118.129,-598.029 L -118.015,-597.786 L -117.932,-597.531
 L -117.882,-597.268 L -117.865,-597 L -117.882,-596.732 L -117.932,-596.469 L -118.015,-596.214 L -118.129,-595.971
 L -118.273,-595.745 L -118.443,-595.538 L -118.639,-595.355 L -118.856,-595.197 L -119.091,-595.068 L -119.34,-594.969
 L -119.6,-594.903 L -119.866,-594.869 z
" stroke="black" fill="lightgray" stroke-width="0.5"/>
</svg>
