<?xml version="1.0" standalone="no"?>
<!DOCTYPE svg PUBLIC "-//W3C//DTD SVG 1.1//EN" "http://www.w3.org/Graphics/SVG/1.1/DTD/svg11.dtd">
<svg width="287mm" height="309mm" viewBox="-144 -552 287 309" xmlns="http://www.w3.org/2000/svg" version="1.1">
<title>OpenSCAD Model</title>
<path d="
M 138.437,-402.089 L 139.045,-402.245 L 139.629,-402.476 L 140.179,-402.778 L 140.687,-403.147 L 141.145,-403.577
 L 141.545,-404.061 L 141.882,-404.591 L 142.149,-405.159 L 142.343,-405.757 L 142.461,-406.373 L 142.5,-407
 L 142.5,-547 L 142.461,-547.627 L 142.343,-548.243 L 142.149,-548.841 L 141.882,-549.409 L 141.545,-549.939
 L 141.145,-550.423 L 140.687,-550.853 L 140.179,-551.222 L 139.629,-551.524 L 139.045,-551.755 L 138.437,-551.911
 L 137.814,-551.99 L -137.814,-551.99 L -138.437,-551.911 L -139.045,-551.755 L -139.629,-551.524 L -140.179,-551.222
 L -140.687,-550.853 L -141,-550.559 L -141,-551.979 L -144,-551.979 L -144,-402.021 L -141,-402.021
 L -141,-403.441 L -140.687,-403.147 L -140.179,-402.778 L -139.629,-402.476 L -139.045,-402.245 L -138.437,-402.089
 L -137.814,-402.01 L 137.814,-402.01 z
M -137.195,-404.393 L -137.583,-404.442 L -137.962,-404.539 L -138.325,-404.683 L -138.668,-404.872 L -138.984,-405.101
 L -139.269,-405.369 L -139.518,-405.67 L -139.728,-406 L -139.894,-406.354 L -140.015,-406.726 L -140.088,-407.11
 L -140.113,-407.5 L -140.113,-546.5 L -140.088,-546.89 L -140.015,-547.274 L -139.894,-547.646 L -139.728,-548
 L -139.518,-548.33 L -139.269,-548.631 L -138.984,-548.899 L -138.668,-549.128 L -138.325,-549.317 L -137.962,-549.461
 L -137.583,-549.558 L -137.195,-549.607 L 137.195,-549.607 L 137.583,-549.558 L 137.962,-549.461 L 138.325,-549.317
 L 138.668,-549.128 L 138.984,-548.899 L 139.269,-548.631 L 139.518,-548.33 L 139.728,-548 L 139.894,-547.646
 L 140.015,-547.274 L 140.088,-546.89 L 140.113,-546.5 L 140.113,-407.5 L 140.088,-407.11 L 140.015,-406.726
 L 139.894,-406.354 L 139.728,-406 L 139.518,-405.67 L 139.269,-405.369 L 138.984,-405.101 L 138.668,-404.872
 L 138.325,-404.683 L 137.962,-404.539 L 137.583,-404.442 L 137.195,-404.393 z
M 138.437,-243.089 L 139.045,-243.245 L 139.629,-243.476 L 140.179,-243.778 L 140.687,-244.147 L 141.145,-244.577
 L 141.545,-245.061 L 141.882,-245.591 L 142.149,-246.159 L 142.343,-246.757 L 142.461,-247.373 L 142.5,-248
 L 142.5,-388 L 142.461,-388.627 L 142.343,-389.243 L 142.149,-389.841 L 141.882,-390.409 L 141.545,-390.939
 L 141.145,-391.423 L 140.687,-391.853 L 140.179,-392.222 L 139.629,-392.524 L 139.045,-392.755 L 138.437,-392.911
 L 137.814,-392.99 L -137.814,-392.99 L -138.437,-392.911 L -139.045,-392.755 L -139.629,-392.524 L -140.179,-392.222
 L -140.687,-391.853 L -141,-391.559 L -141,-391.653 L -144,-391.653 L -144,-244.347 L -141,-244.347
 L -141,-244.441 L -140.687,-244.147 L -140.179,-243.778 L -139.629,-243.476 L -139.045,-243.245 L -138.437,-243.089
 L -137.814,-243.01 L 137.814,-243.01 z
M 134.866,-383.369 L 134.6,-383.403 L 134.34,-383.469 L 134.091,-383.568 L 133.856,-383.697 L 133.639,-383.855
 L 133.443,-384.038 L 133.273,-384.245 L 133.129,-384.471 L 133.015,-384.714 L 132.932,-384.969 L 132.882,-385.232
 L 132.865,-385.5 L 132.882,-385.768 L 132.932,-386.031 L 133.015,-386.286 L 133.129,-386.529 L 133.273,-386.755
 L 133.443,-386.962 L 133.639,-387.145 L 133.856,-387.303 L 134.091,-387.432 L 134.34,-387.531 L 134.6,-387.597
 L 134.866,-387.631 L 135.134,-387.631 L 135.4,-387.597 L 135.66,-387.531 L 135.909,-387.432 L 136.144,-387.303
 L 136.361,-387.145 L 136.557,-386.962 L 136.727,-386.755 L 136.871,-386.529 L 136.985,-386.286 L 137.068,-386.031
 L 137.118,-385.768 L 137.135,-385.5 L 137.118,-385.232 L 137.068,-384.969 L 136.985,-384.714 L 136.871,-384.471
 L 136.727,-384.245 L 136.557,-384.038 L 136.361,-383.855 L 136.144,-383.697 L 135.909,-383.568 L 135.66,-383.469
 L 135.4,-383.403 L 135.134,-383.369 z
M -135.134,-383.369 L -135.4,-383.403 L -135.66,-383.469 L -135.909,-383.568 L -136.144,-383.697 L -136.361,-383.855
 L -136.557,-384.038 L -136.727,-384.245 L -136.871,-384.471 L -136.985,-384.714 L -137.068,-384.969 L -137.118,-385.232
 L -137.135,-385.5 L -137.118,-385.768 L -137.068,-386.031 L -136.985,-386.286 L -136.871,-386.529 L -136.727,-386.755
 L -136.557,-386.962 L -136.361,-387.145 L -136.144,-387.303 L -135.909,-387.432 L -135.66,-387.531 L -135.4,-387.597
 L -135.134,-387.631 L -134.866,-387.631 L -134.6,-387.597 L -134.34,-387.531 L -134.091,-387.432 L -133.856,-387.303
 L -133.639,-387.145 L -133.443,-386.962 L -133.273,-386.755 L -133.129,-386.529 L -133.015,-386.286 L -132.932,-386.031
 L -132.882,-385.768 L -132.865,-385.5 L -132.882,-385.232 L -132.932,-384.969 L -133.015,-384.714 L -133.129,-384.471
 L -133.273,-384.245 L -133.443,-384.038 L -133.639,-383.855 L -133.856,-383.697 L -134.091,-383.568 L -134.34,-383.469
 L -134.6,-383.403 L -134.866,-383.369 z
M 134.866,-248.369 L 134.6,-248.403 L 134.34,-248.469 L 134.091,-248.568 L 133.856,-248.697 L 133.639,-248.855
 L 133.443,-249.038 L 133.273,-249.245 L 133.129,-249.471 L 133.015,-249.714 L 132.932,-249.969 L 132.882,-250.232
 L 132.865,-250.5 L 132.882,-250.768 L 132.932,-251.031 L 133.015,-251.286 L 133.129,-251.529 L 133.273,-251.755
 L 133.443,-251.962 L 133.639,-252.145 L 133.856,-252.303 L 134.091,-252.432 L 134.34,-252.531 L 134.6,-252.597
 L 134.866,-252.631 L 135.134,-252.631 L 135.4,-252.597 L 135.66,-252.531 L 135.909,-252.432 L 136.144,-252.303
 L 136.361,-252.145 L 136.557,-251.962 L 136.727,-251.755 L 136.871,-251.529 L 136.985,-251.286 L 137.068,-251.031
 L 137.118,-250.768 L 137.135,-250.5 L 137.118,-250.232 L 137.068,-249.969 L 136.985,-249.714 L 136.871,-249.471
 L 136.727,-249.245 L 136.557,-249.038 L 136.361,-248.855 L 136.144,-248.697 L 135.909,-248.568 L 135.66,-248.469
 L 135.4,-248.403 L 135.134,-248.369 z
M -135.134,-248.369 L -135.4,-248.403 L -135.66,-248.469 L -135.909,-248.568 L -136.144,-248.697 L -136.361,-248.855
 L -136.557,-249.038 L -136.727,-249.245 L -136.871,-249.471 L -136.985,-249.714 L -137.068,-249.969 L -137.118,-250.232
 L -137.135,-250.5 L -137.118,-250.768 L -137.068,-251.031 L -136.985,-251.286 L -136.871,-251.529 L -136.727,-251.755
 L -136.557,-251.962 L -136.361,-252.145 L -136.144,-252.303 L -135.909,-252.432 L -135.66,-252.531 L -135.4,-252.597
 L -135.134,-252.631 L -134.866,-252.631 L -134.6,-252.597 L -134.34,-252.531 L -134.091,-252.432 L -133.856,-252.303
 L -133.639,-252.145 L -133.443,-251.962 L -133.273,-251.755 L -133.129,-251.529 L -133.015,-251.286 L -132.932,-251.031
 L -132.882,-250.768 L -132.865,-250.5 L -132.882,-250.232 L -132.932,-249.969 L -133.015,-249.714 L -133.129,-249.471
 L -133.273,-249.245 L -133.443,-249.038 L -133.639,-248.855 L -133.856,-248.697 L -134.091,-248.568 L -134.34,-248.469
 L -134.6,-248.403 L -134.866,-248.369 z
" stroke="black" fill="lightgray" stroke-width="0.5"/>
</svg>
