<?xml version="1.0" standalone="no"?>
<!DOCTYPE svg PUBLIC "-//W3C//DTD SVG 1.1//EN" "http://www.w3.org/Graphics/SVG/1.1/DTD/svg11.dtd">
<svg width="256mm" height="867mm" viewBox="-128 -1419 256 867" xmlns="http://www.w3.org/2000/svg" version="1.1">
<title>OpenSCAD Model</title>
<path d="
M 123.437,-1209.09 L 124.045,-1209.24 L 124.629,-1209.48 L 125.179,-1209.78 L 125.687,-1210.15 L 126.145,-1210.58
 L 126.545,-1211.06 L 126.882,-1211.59 L 127.149,-1212.16 L 127.343,-1212.76 L 127.461,-1213.37 L 127.5,-1214
 L 127.5,-1414 L 127.461,-1414.63 L 127.343,-1415.24 L 127.149,-1415.84 L 126.882,-1416.41 L 126.545,-1416.94
 L 126.145,-1417.42 L 125.687,-1417.85 L 125.179,-1418.22 L 124.629,-1418.52 L 124.045,-1418.76 L 123.437,-1418.91
 L 122.814,-1418.99 L -122.814,-1418.99 L -123.437,-1418.91 L -124.045,-1418.76 L -124.629,-1418.52 L -125.179,-1418.22
 L -125.687,-1417.85 L -126.145,-1417.42 L -126.545,-1416.94 L -126.882,-1416.41 L -127.149,-1415.84 L -127.343,-1415.24
 L -127.461,-1414.63 L -127.5,-1414 L -127.5,-1214 L -127.461,-1213.37 L -127.343,-1212.76 L -127.149,-1212.16
 L -126.882,-1211.59 L -126.545,-1211.06 L -126.145,-1210.58 L -125.687,-1210.15 L -125.179,-1209.78 L -124.629,-1209.48
 L -124.045,-1209.24 L -123.437,-1209.09 L -122.814,-1209.01 L 122.814,-1209.01 z
M -122.548,-1209.51 L -123.14,-1209.58 L -123.718,-1209.73 L -124.272,-1209.95 L -124.795,-1210.24 L -125.278,-1210.59
 L -125.713,-1211 L -126.093,-1211.46 L -126.412,-1211.96 L -126.666,-1212.5 L -126.851,-1213.07 L -126.963,-1213.65
 L -127,-1214.25 L -127,-1413.75 L -126.963,-1414.35 L -126.851,-1414.93 L -126.666,-1415.5 L -126.412,-1416.04
 L -126.093,-1416.54 L -125.713,-1417 L -125.278,-1417.41 L -124.795,-1417.76 L -124.272,-1418.05 L -123.718,-1418.27
 L -123.14,-1418.42 L -122.548,-1418.49 L 122.548,-1418.49 L 123.14,-1418.42 L 123.718,-1418.27 L 124.272,-1418.05
 L 124.795,-1417.76 L 125.278,-1417.41 L 125.713,-1417 L 126.093,-1416.54 L 126.412,-1416.04 L 126.666,-1415.5
 L 126.851,-1414.93 L 126.963,-1414.35 L 127,-1413.75 L 127,-1214.25 L 126.963,-1213.65 L 126.851,-1213.07
 L 126.666,-1212.5 L 126.412,-1211.96 L 126.093,-1211.46 L 125.713,-1211 L 125.278,-1210.59 L 124.795,-1210.24
 L 124.272,-1209.95 L 123.718,-1209.73 L 123.14,-1209.58 L 122.548,-1209.51 z
M 123.437,-990.089 L 124.045,-990.245 L 124.629,-990.476 L 125.179,-990.778 L 125.687,-991.147 L 126.145,-991.577
 L 126.545,-992.061 L 126.882,-992.591 L 127.149,-993.159 L 127.343,-993.757 L 127.461,-994.373 L 127.5,-995
 L 127.5,-1195 L 127.461,-1195.63 L 127.343,-1196.24 L 127.149,-1196.84 L 126.882,-1197.41 L 126.545,-1197.94
 L 126.145,-1198.42 L 125.687,-1198.85 L 125.179,-1199.22 L 124.629,-1199.52 L 124.045,-1199.76 L 123.437,-1199.91
 L 122.814,-1199.99 L -122.814,-1199.99 L -123.437,-1199.91 L -124.045,-1199.76 L -124.629,-1199.52 L -125.179,-1199.22
 L -125.687,-1198.85 L -126.145,-1198.42 L -126.545,-1197.94 L -126.882,-1197.41 L -127.149,-1196.84 L -127.343,-1196.24
 L -127.461,-1195.63 L -127.5,-1195 L -127.5,-995 L -127.461,-994.373 L -127.343,-993.757 L -127.149,-993.159
 L -126.882,-992.591 L -126.545,-992.061 L -126.145,-991.577 L -125.687,-991.147 L -125.179,-990.778 L -124.629,-990.476
 L -124.045,-990.245 L -123.437,-990.089 L -122.814,-990.01 L 122.814,-990.01 z
M -122.548,-990.509 L -123.14,-990.584 L -123.718,-990.732 L -124.272,-990.952 L -124.795,-991.239 L -125.278,-991.59
 L -125.713,-991.998 L -126.093,-992.458 L -126.412,-992.962 L -126.666,-993.501 L -126.851,-994.069 L -126.963,-994.655
 L -127,-995.25 L -127,-1194.75 L -126.963,-1195.35 L -126.851,-1195.93 L -126.666,-1196.5 L -126.412,-1197.04
 L -126.093,-1197.54 L -125.713,-1198 L -125.278,-1198.41 L -124.795,-1198.76 L -124.272,-1199.05 L -123.718,-1199.27
 L -123.14,-1199.42 L -122.548,-1199.49 L 122.548,-1199.49 L 123.14,-1199.42 L 123.718,-1199.27 L 124.272,-1199.05
 L 124.795,-1198.76 L 125.278,-1198.41 L 125.713,-1198 L 126.093,-1197.54 L 126.412,-1197.04 L 126.666,-1196.5
 L 126.851,-1195.93 L 126.963,-1195.35 L 127,-1194.75 L 127,-995.25 L 126.963,-994.655 L 126.851,-994.069
 L 126.666,-993.501 L 126.412,-992.962 L 126.093,-992.458 L 125.713,-991.998 L 125.278,-991.59 L 124.795,-991.239
 L 124.272,-990.952 L 123.718,-990.732 L 123.14,-990.584 L 122.548,-990.509 z
M 123.437,-771.089 L 124.045,-771.245 L 124.629,-771.476 L 125.179,-771.778 L 125.687,-772.147 L 126.145,-772.577
 L 126.545,-773.061 L 126.882,-773.591 L 127.149,-774.159 L 127.343,-774.757 L 127.461,-775.373 L 127.5,-776
 L 127.5,-976 L 127.461,-976.627 L 127.343,-977.243 L 127.149,-977.841 L 126.882,-978.409 L 126.545,-978.939
 L 126.145,-979.423 L 125.687,-979.853 L 125.179,-980.222 L 124.629,-980.524 L 124.045,-980.755 L 123.437,-980.911
 L 122.814,-980.99 L -122.814,-980.99 L -123.437,-980.911 L -124.045,-980.755 L -124.629,-980.524 L -125.179,-980.222
 L -125.687,-979.853 L -126.145,-979.423 L -126.545,-978.939 L -126.882,-978.409 L -127.149,-977.841 L -127.343,-977.243
 L -127.461,-976.627 L -127.5,-976 L -127.5,-776 L -127.461,-775.373 L -127.343,-774.757 L -127.149,-774.159
 L -126.882,-773.591 L -126.545,-773.061 L -126.145,-772.577 L -125.687,-772.147 L -125.179,-771.778 L -124.629,-771.476
 L -124.045,-771.245 L -123.437,-771.089 L -122.814,-771.01 L 122.814,-771.01 z
M -122.493,-772.388 L -122.975,-772.449 L -123.446,-772.57 L -123.898,-772.749 L -124.323,-772.983 L -124.716,-773.269
 L -125.071,-773.601 L -125.38,-773.976 L -125.641,-774.386 L -125.848,-774.826 L -125.998,-775.288 L -126.089,-775.765
 L -126.119,-776.25 L -126.119,-975.75 L -126.089,-976.235 L -125.998,-976.712 L -125.848,-977.174 L -125.641,-977.614
 L -125.38,-978.024 L -125.071,-978.399 L -124.716,-978.731 L -124.323,-979.017 L -123.898,-979.251 L -123.446,-979.43
 L -122.975,-979.551 L -122.493,-979.612 L 122.493,-979.612 L 122.975,-979.551 L 123.446,-979.43 L 123.898,-979.251
 L 124.323,-979.017 L 124.716,-978.731 L 125.071,-978.399 L 125.38,-978.024 L 125.641,-977.614 L 125.848,-977.174
 L 125.998,-976.712 L 126.089,-976.235 L 126.119,-975.75 L 126.119,-776.25 L 126.089,-775.765 L 125.998,-775.288
 L 125.848,-774.826 L 125.641,-774.386 L 125.38,-773.976 L 125.071,-773.601 L 124.716,-773.269 L 124.323,-772.983
 L 123.898,-772.749 L 123.446,-772.57 L 122.975,-772.449 L 122.493,-772.388 z
M 123.437,-552.089 L 124.045,-552.245 L 124.629,-552.476 L 125.179,-552.778 L 125.687,-553.147 L 126.145,-553.577
 L 126.545,-554.061 L 126.882,-554.591 L 127.149,-555.159 L 127.343,-555.757 L 127.461,-556.373 L 127.5,-557
 L 127.5,-757 L 127.461,-757.627 L 127.343,-758.243 L 127.149,-758.841 L 126.882,-759.409 L 126.545,-759.939
 L 126.145,-760.423 L 125.687,-760.853 L 125.179,-761.222 L 124.629,-761.524 L 124.045,-761.755 L 123.437,-761.911
 L 122.814,-761.99 L -122.814,-761.99 L -123.437,-761.911 L -124.045,-761.755 L -124.629,-761.524 L -125.179,-761.222
 L -125.687,-760.853 L -126.145,-760.423 L -126.545,-759.939 L -126.882,-759.409 L -127.149,-758.841 L -127.343,-758.243
 L -127.461,-757.627 L -127.5,-757 L -127.5,-557 L -127.461,-556.373 L -127.343,-555.757 L -127.149,-555.159
 L -126.882,-554.591 L -126.545,-554.061 L -126.145,-553.577 L -125.687,-553.147 L -125.179,-552.778 L -124.629,-552.476
 L -124.045,-552.245 L -123.437,-552.089 L -122.814,-552.01 L 122.814,-552.01 z
M 119.887,-752.704 L 119.663,-752.732 L 119.444,-752.788 L 119.234,-752.871 L 119.036,-752.98 L 118.853,-753.113
 L 118.688,-753.268 L 118.544,-753.442 L 118.423,-753.633 L 118.326,-753.837 L 118.257,-754.052 L 118.214,-754.274
 L 118.2,-754.5 L 118.214,-754.726 L 118.257,-754.948 L 118.326,-755.163 L 118.423,-755.367 L 118.544,-755.558
 L 118.688,-755.732 L 118.853,-755.887 L 119.036,-756.02 L 119.234,-756.129 L 119.444,-756.212 L 119.663,-756.268
 L 119.887,-756.296 L 120.113,-756.296 L 120.337,-756.268 L 120.556,-756.212 L 120.766,-756.129 L 120.964,-756.02
 L 121.147,-755.887 L 121.312,-755.732 L 121.456,-755.558 L 121.577,-755.367 L 121.674,-755.163 L 121.743,-754.948
 L 121.786,-754.726 L 121.8,-754.5 L 121.786,-754.274 L 121.743,-754.052 L 121.674,-753.837 L 121.577,-753.633
 L 121.456,-753.442 L 121.312,-753.268 L 121.147,-753.113 L 120.964,-752.98 L 120.766,-752.871 L 120.556,-752.788
 L 120.337,-752.732 L 120.113,-752.704 z
M -120.113,-752.704 L -120.337,-752.732 L -120.556,-752.788 L -120.766,-752.871 L -120.964,-752.98 L -121.147,-753.113
 L -121.312,-753.268 L -121.456,-753.442 L -121.577,-753.633 L -121.674,-753.837 L -121.743,-754.052 L -121.786,-754.274
 L -121.8,-754.5 L -121.786,-754.726 L -121.743,-754.948 L -121.674,-755.163 L -121.577,-755.367 L -121.456,-755.558
 L -121.312,-755.732 L -121.147,-755.887 L -120.964,-756.02 L -120.766,-756.129 L -120.556,-756.212 L -120.337,-756.268
 L -120.113,-756.296 L -119.887,-756.296 L -119.663,-756.268 L -119.444,-756.212 L -119.234,-756.129 L -119.036,-756.02
 L -118.853,-755.887 L -118.688,-755.732 L -118.544,-755.558 L -118.423,-755.367 L -118.326,-755.163 L -118.257,-754.948
 L -118.214,-754.726 L -118.2,-754.5 L -118.214,-754.274 L -118.257,-754.052 L -118.326,-753.837 L -118.423,-753.633
 L -118.544,-753.442 L -118.688,-753.268 L -118.853,-753.113 L -119.036,-752.98 L -119.234,-752.871 L -119.444,-752.788
 L -119.663,-752.732 L -119.887,-752.704 z
M -120.113,-557.704 L -120.337,-557.732 L -120.556,-557.788 L -120.766,-557.871 L -120.964,-557.98 L -121.147,-558.113
 L -121.312,-558.268 L -121.456,-558.442 L -121.577,-558.633 L -121.674,-558.837 L -121.743,-559.052 L -121.786,-559.274
 L -121.8,-559.5 L -121.786,-559.726 L -121.743,-559.948 L -121.674,-560.163 L -121.577,-560.367 L -121.456,-560.558
 L -121.312,-560.732 L -121.147,-560.887 L -120.964,-561.02 L -120.766,-561.129 L -120.556,-561.212 L -120.337,-561.268
 L -120.113,-561.296 L -119.887,-561.296 L -119.663,-561.268 L -119.444,-561.212 L -119.234,-561.129 L -119.036,-561.02
 L -118.853,-560.887 L -118.688,-560.732 L -118.544,-560.558 L -118.423,-560.367 L -118.326,-560.163 L -118.257,-559.948
 L -118.214,-559.726 L -118.2,-559.5 L -118.214,-559.274 L -118.257,-559.052 L -118.326,-558.837 L -118.423,-558.633
 L -118.544,-558.442 L -118.688,-558.268 L -118.853,-558.113 L -119.036,-557.98 L -119.234,-557.871 L -119.444,-557.788
 L -119.663,-557.732 L -119.887,-557.704 z
M 119.887,-557.704 L 119.663,-557.732 L 119.444,-557.788 L 119.234,-557.871 L 119.036,-557.98 L 118.853,-558.113
 L 118.688,-558.268 L 118.544,-558.442 L 118.423,-558.633 L 118.326,-558.837 L 118.257,-559.052 L 118.214,-559.274
 L 118.2,-559.5 L 118.214,-559.726 L 118.257,-559.948 L 118.326,-560.163 L 118.423,-560.367 L 118.544,-560.558
 L 118.688,-560.732 L 118.853,-560.887 L 119.036,-561.02 L 119.234,-561.129 L 119.444,-561.212 L 119.663,-561.268
 L 119.887,-561.296 L 120.113,-561.296 L 120.337,-561.268 L 120.556,-561.212 L 120.766,-561.129 L 120.964,-561.02
 L 121.147,-560.887 L 121.312,-560.732 L 121.456,-560.558 L 121.577,-560.367 L 121.674,-560.163 L 121.743,-559.948
 L 121.786,-559.726 L 121.8,-559.5 L 121.786,-559.274 L 121.743,-559.052 L 121.674,-558.837 L 121.577,-558.633
 L 121.456,-558.442 L 121.312,-558.268 L 121.147,-558.113 L 120.964,-557.98 L 120.766,-557.871 L 120.556,-557.788
 L 120.337,-557.732 L 120.113,-557.704 z
" stroke="black" fill="lightgray" stroke-width="0.5"/>
</svg>
