<?xml version="1.0" standalone="no"?>
<!DOCTYPE svg PUBLIC "-//W3C//DTD SVG 1.1//EN" "http://www.w3.org/Graphics/SVG/1.1/DTD/svg11.dtd">
<svg width="226mm" height="1107mm" viewBox="-113 -1809 226 1107" xmlns="http://www.w3.org/2000/svg" version="1.1">
<title>OpenSCAD Model</title>
<path d="
M 108.437,-1539.09 L 109.045,-1539.24 L 109.629,-1539.48 L 110.179,-1539.78 L 110.687,-1540.15 L 111.145,-1540.58
 L 111.545,-1541.06 L 111.882,-1541.59 L 112.149,-1542.16 L 112.343,-1542.76 L 112.461,-1543.37 L 112.5,-1544
 L 112.5,-1804 L 112.461,-1804.63 L 112.343,-1805.24 L 112.149,-1805.84 L 111.882,-1806.41 L 111.545,-1806.94
 L 111.145,-1807.42 L 110.687,-1807.85 L 110.179,-1808.22 L 109.629,-1808.52 L 109.045,-1808.76 L 108.437,-1808.91
 L 107.814,-1808.99 L -107.814,-1808.99 L -108.437,-1808.91 L -109.045,-1808.76 L -109.629,-1808.52 L -110.179,-1808.22
 L -110.687,-1807.85 L -111.145,-1807.42 L -111.545,-1806.94 L -111.882,-1806.41 L -112.149,-1805.84 L -112.343,-1805.24
 L -112.461,-1804.63 L -112.5,-1804 L -112.5,-1544 L -112.461,-1543.37 L -112.343,-1542.76 L -112.149,-1542.16
 L -111.882,-1541.59 L -111.545,-1541.06 L -111.145,-1540.58 L -110.687,-1540.15 L -110.179,-1539.78 L -109.629,-1539.48
 L -109.045,-1539.24 L -108.437,-1539.09 L -107.814,-1539.01 L 107.814,-1539.01 z
M -107.251,-1540.51 L -107.75,-1540.57 L -108.236,-1540.7 L -108.703,-1540.88 L -109.143,-1541.12 L -109.55,-1541.42
 L -109.916,-1541.76 L -110.236,-1542.15 L -110.505,-1542.57 L -110.719,-1543.03 L -110.874,-1543.51 L -110.968,-1544
 L -111,-1544.5 L -111,-1803.5 L -110.968,-1804 L -110.874,-1804.49 L -110.719,-1804.97 L -110.505,-1805.43
 L -110.236,-1805.85 L -109.916,-1806.24 L -109.55,-1806.58 L -109.143,-1806.88 L -108.703,-1807.12 L -108.236,-1807.3
 L -107.75,-1807.43 L -107.251,-1807.49 L 107.251,-1807.49 L 107.75,-1807.43 L 108.236,-1807.3 L 108.703,-1807.12
 L 109.143,-1806.88 L 109.55,-1806.58 L 109.916,-1806.24 L 110.236,-1805.85 L 110.505,-1805.43 L 110.719,-1804.97
 L 110.874,-1804.49 L 110.968,-1804 L 111,-1803.5 L 111,-1544.5 L 110.968,-1544 L 110.874,-1543.51
 L 110.719,-1543.03 L 110.505,-1542.57 L 110.236,-1542.15 L 109.916,-1541.76 L 109.55,-1541.42 L 109.143,-1541.12
 L 108.703,-1540.88 L 108.236,-1540.7 L 107.75,-1540.57 L 107.251,-1540.51 z
M 108.437,-1260.09 L 109.045,-1260.24 L 109.629,-1260.48 L 110.179,-1260.78 L 110.687,-1261.15 L 111.145,-1261.58
 L 111.545,-1262.06 L 111.882,-1262.59 L 112.149,-1263.16 L 112.343,-1263.76 L 112.461,-1264.37 L 112.5,-1265
 L 112.5,-1525 L 112.461,-1525.63 L 112.343,-1526.24 L 112.149,-1526.84 L 111.882,-1527.41 L 111.545,-1527.94
 L 111.145,-1528.42 L 110.687,-1528.85 L 110.179,-1529.22 L 109.629,-1529.52 L 109.045,-1529.76 L 108.437,-1529.91
 L 107.814,-1529.99 L -107.814,-1529.99 L -108.437,-1529.91 L -109.045,-1529.76 L -109.629,-1529.52 L -110.179,-1529.22
 L -110.687,-1528.85 L -111.145,-1528.42 L -111.545,-1527.94 L -111.882,-1527.41 L -112.149,-1526.84 L -112.343,-1526.24
 L -112.461,-1525.63 L -112.5,-1525 L -112.5,-1265 L -112.461,-1264.37 L -112.343,-1263.76 L -112.149,-1263.16
 L -111.882,-1262.59 L -111.545,-1262.06 L -111.145,-1261.58 L -110.687,-1261.15 L -110.179,-1260.78 L -109.629,-1260.48
 L -109.045,-1260.24 L -108.437,-1260.09 L -107.814,-1260.01 L 107.814,-1260.01 z
M -107.243,-1261.64 L -107.726,-1261.7 L -108.197,-1261.82 L -108.649,-1262 L -109.075,-1262.23 L -109.469,-1262.52
 L -109.823,-1262.85 L -110.133,-1263.22 L -110.394,-1263.63 L -110.601,-1264.07 L -110.751,-1264.54 L -110.842,-1265.01
 L -110.873,-1265.5 L -110.873,-1524.5 L -110.842,-1524.99 L -110.751,-1525.46 L -110.601,-1525.93 L -110.394,-1526.37
 L -110.133,-1526.78 L -109.823,-1527.15 L -109.469,-1527.48 L -109.075,-1527.77 L -108.649,-1528 L -108.197,-1528.18
 L -107.726,-1528.3 L -107.243,-1528.36 L 107.243,-1528.36 L 107.726,-1528.3 L 108.197,-1528.18 L 108.649,-1528
 L 109.075,-1527.77 L 109.469,-1527.48 L 109.823,-1527.15 L 110.133,-1526.78 L 110.394,-1526.37 L 110.601,-1525.93
 L 110.751,-1525.46 L 110.842,-1524.99 L 110.873,-1524.5 L 110.873,-1265.5 L 110.842,-1265.01 L 110.751,-1264.54
 L 110.601,-1264.07 L 110.394,-1263.63 L 110.133,-1263.22 L 109.823,-1262.85 L 109.469,-1262.52 L 109.075,-1262.23
 L 108.649,-1262 L 108.197,-1261.82 L 107.726,-1261.7 L 107.243,-1261.64 z
M 108.437,-981.089 L 109.045,-981.245 L 109.629,-981.476 L 110.179,-981.778 L 110.687,-982.147 L 111.145,-982.577
 L 111.545,-983.061 L 111.882,-983.591 L 112.149,-984.159 L 112.343,-984.757 L 112.461,-985.373 L 112.5,-986
 L 112.5,-1246 L 112.461,-1246.63 L 112.343,-1247.24 L 112.149,-1247.84 L 111.882,-1248.41 L 111.545,-1248.94
 L 111.145,-1249.42 L 110.687,-1249.85 L 110.179,-1250.22 L 109.629,-1250.52 L 109.045,-1250.76 L 108.437,-1250.91
 L 107.814,-1250.99 L -107.814,-1250.99 L -108.437,-1250.91 L -109.045,-1250.76 L -109.629,-1250.52 L -110.179,-1250.22
 L -110.687,-1249.85 L -111.145,-1249.42 L -111.545,-1248.94 L -111.882,-1248.41 L -112.149,-1247.84 L -112.343,-1247.24
 L -112.461,-1246.63 L -112.5,-1246 L -112.5,-986 L -112.461,-985.373 L -112.343,-984.757 L -112.149,-984.159
 L -111.882,-983.591 L -111.545,-983.061 L -111.145,-982.577 L -110.687,-982.147 L -110.179,-981.778 L -109.629,-981.476
 L -109.045,-981.245 L -108.437,-981.089 L -107.814,-981.01 L 107.814,-981.01 z
M 104.849,-1241.1 L 104.55,-1241.14 L 104.258,-1241.22 L 103.978,-1241.33 L 103.714,-1241.47 L 103.47,-1241.65
 L 103.25,-1241.86 L 103.058,-1242.09 L 102.897,-1242.34 L 102.769,-1242.62 L 102.675,-1242.9 L 102.619,-1243.2
 L 102.6,-1243.5 L 102.619,-1243.8 L 102.675,-1244.1 L 102.769,-1244.38 L 102.897,-1244.66 L 103.058,-1244.91
 L 103.25,-1245.14 L 103.47,-1245.35 L 103.714,-1245.53 L 103.978,-1245.67 L 104.258,-1245.78 L 104.55,-1245.86
 L 104.849,-1245.9 L 105.151,-1245.9 L 105.45,-1245.86 L 105.742,-1245.78 L 106.022,-1245.67 L 106.286,-1245.53
 L 106.53,-1245.35 L 106.75,-1245.14 L 106.942,-1244.91 L 107.103,-1244.66 L 107.231,-1244.38 L 107.325,-1244.1
 L 107.381,-1243.8 L 107.4,-1243.5 L 107.381,-1243.2 L 107.325,-1242.9 L 107.231,-1242.62 L 107.103,-1242.34
 L 106.942,-1242.09 L 106.75,-1241.86 L 106.53,-1241.65 L 106.286,-1241.47 L 106.022,-1241.33 L 105.742,-1241.22
 L 105.45,-1241.14 L 105.151,-1241.1 z
M -105.151,-1241.1 L -105.45,-1241.14 L -105.742,-1241.22 L -106.022,-1241.33 L -106.286,-1241.47 L -106.53,-1241.65
 L -106.75,-1241.86 L -106.942,-1242.09 L -107.103,-1242.34 L -107.231,-1242.62 L -107.325,-1242.9 L -107.381,-1243.2
 L -107.4,-1243.5 L -107.381,-1243.8 L -107.325,-1244.1 L -107.231,-1244.38 L -107.103,-1244.66 L -106.942,-1244.91
 L -106.75,-1245.14 L -106.53,-1245.35 L -106.286,-1245.53 L -106.022,-1245.67 L -105.742,-1245.78 L -105.45,-1245.86
 L -105.151,-1245.9 L -104.849,-1245.9 L -104.55,-1245.86 L -104.258,-1245.78 L -103.978,-1245.67 L -103.714,-1245.53
 L -103.47,-1245.35 L -103.25,-1245.14 L -103.058,-1244.91 L -102.897,-1244.66 L -102.769,-1244.38 L -102.675,-1244.1
 L -102.619,-1243.8 L -102.6,-1243.5 L -102.619,-1243.2 L -102.675,-1242.9 L -102.769,-1242.62 L -102.897,-1242.34
 L -103.058,-1242.09 L -103.25,-1241.86 L -103.47,-1241.65 L -103.714,-1241.47 L -103.978,-1241.33 L -104.258,-1241.22
 L -104.55,-1241.14 L -104.849,-1241.1 z
M 104.849,-986.105 L 104.55,-986.143 L 104.258,-986.217 L 103.978,-986.328 L 103.714,-986.474 L 103.47,-986.651
 L 103.25,-986.857 L 103.058,-987.089 L 102.897,-987.344 L 102.769,-987.617 L 102.675,-987.903 L 102.619,-988.199
 L 102.6,-988.5 L 102.619,-988.801 L 102.675,-989.097 L 102.769,-989.383 L 102.897,-989.656 L 103.058,-989.911
 L 103.25,-990.143 L 103.47,-990.349 L 103.714,-990.526 L 103.978,-990.672 L 104.258,-990.783 L 104.55,-990.857
 L 104.849,-990.895 L 105.151,-990.895 L 105.45,-990.857 L 105.742,-990.783 L 106.022,-990.672 L 106.286,-990.526
 L 106.53,-990.349 L 106.75,-990.143 L 106.942,-989.911 L 107.103,-989.656 L 107.231,-989.383 L 107.325,-989.097
 L 107.381,-988.801 L 107.4,-988.5 L 107.381,-988.199 L 107.325,-987.903 L 107.231,-987.617 L 107.103,-987.344
 L 106.942,-987.089 L 106.75,-986.857 L 106.53,-986.651 L 106.286,-986.474 L 106.022,-986.328 L 105.742,-986.217
 L 105.45,-986.143 L 105.151,-986.105 z
M -105.151,-986.105 L -105.45,-986.143 L -105.742,-986.217 L -106.022,-986.328 L -106.286,-986.474 L -106.53,-986.651
 L -106.75,-986.857 L -106.942,-987.089 L -107.103,-987.344 L -107.231,-987.617 L -107.325,-987.903 L -107.381,-988.199
 L -107.4,-988.5 L -107.381,-988.801 L -107.325,-989.097 L -107.231,-989.383 L -107.103,-989.656 L -106.942,-989.911
 L -106.75,-990.143 L -106.53,-990.349 L -106.286,-990.526 L -106.022,-990.672 L -105.742,-990.783 L -105.45,-990.857
 L -105.151,-990.895 L -104.849,-990.895 L -104.55,-990.857 L -104.258,-990.783 L -103.978,-990.672 L -103.714,-990.526
 L -103.47,-990.349 L -103.25,-990.143 L -103.058,-989.911 L -102.897,-989.656 L -102.769,-989.383 L -102.675,-989.097
 L -102.619,-988.801 L -102.6,-988.5 L -102.619,-988.199 L -102.675,-987.903 L -102.769,-987.617 L -102.897,-987.344
 L -103.058,-987.089 L -103.25,-986.857 L -103.47,-986.651 L -103.714,-986.474 L -103.978,-986.328 L -104.258,-986.217
 L -104.55,-986.143 L -104.849,-986.105 z
M 108.437,-702.089 L 109.045,-702.245 L 109.629,-702.476 L 110.179,-702.778 L 110.687,-703.147 L 111.145,-703.577
 L 111.545,-704.061 L 111.882,-704.591 L 112.149,-705.159 L 112.343,-705.757 L 112.461,-706.373 L 112.5,-707
 L 112.5,-967 L 112.461,-967.627 L 112.343,-968.243 L 112.149,-968.841 L 111.882,-969.409 L 111.545,-969.939
 L 111.145,-970.423 L 110.687,-970.853 L 110.179,-971.222 L 109.629,-971.524 L 109.045,-971.755 L 108.437,-971.911
 L 107.814,-971.99 L -107.814,-971.99 L -108.437,-971.911 L -109.045,-971.755 L -109.629,-971.524 L -110.179,-971.222
 L -110.687,-970.853 L -111.145,-970.423 L -111.545,-969.939 L -111.882,-969.409 L -112.149,-968.841 L -112.343,-968.243
 L -112.461,-967.627 L -112.5,-967 L -112.5,-707 L -112.461,-706.373 L -112.343,-705.757 L -112.149,-705.159
 L -111.882,-704.591 L -111.545,-704.061 L -111.145,-703.577 L -110.687,-703.147 L -110.179,-702.778 L -109.629,-702.476
 L -109.045,-702.245 L -108.437,-702.089 L -107.814,-702.01 L 107.814,-702.01 z
M 104.887,-962.704 L 104.663,-962.732 L 104.444,-962.788 L 104.234,-962.871 L 104.036,-962.98 L 103.853,-963.113
 L 103.688,-963.268 L 103.544,-963.442 L 103.423,-963.633 L 103.326,-963.837 L 103.257,-964.052 L 103.214,-964.274
 L 103.2,-964.5 L 103.214,-964.726 L 103.257,-964.948 L 103.326,-965.163 L 103.423,-965.367 L 103.544,-965.558
 L 103.688,-965.732 L 103.853,-965.887 L 104.036,-966.02 L 104.234,-966.129 L 104.444,-966.212 L 104.663,-966.268
 L 104.887,-966.296 L 105.113,-966.296 L 105.337,-966.268 L 105.556,-966.212 L 105.766,-966.129 L 105.964,-966.02
 L 106.147,-965.887 L 106.312,-965.732 L 106.456,-965.558 L 106.577,-965.367 L 106.674,-965.163 L 106.743,-964.948
 L 106.786,-964.726 L 106.8,-964.5 L 106.786,-964.274 L 106.743,-964.052 L 106.674,-963.837 L 106.577,-963.633
 L 106.456,-963.442 L 106.312,-963.268 L 106.147,-963.113 L 105.964,-962.98 L 105.766,-962.871 L 105.556,-962.788
 L 105.337,-962.732 L 105.113,-962.704 z
M -105.113,-962.704 L -105.337,-962.732 L -105.556,-962.788 L -105.766,-962.871 L -105.964,-962.98 L -106.147,-963.113
 L -106.312,-963.268 L -106.456,-963.442 L -106.577,-963.633 L -106.674,-963.837 L -106.743,-964.052 L -106.786,-964.274
 L -106.8,-964.5 L -106.786,-964.726 L -106.743,-964.948 L -106.674,-965.163 L -106.577,-965.367 L -106.456,-965.558
 L -106.312,-965.732 L -106.147,-965.887 L -105.964,-966.02 L -105.766,-966.129 L -105.556,-966.212 L -105.337,-966.268
 L -105.113,-966.296 L -104.887,-966.296 L -104.663,-966.268 L -104.444,-966.212 L -104.234,-966.129 L -104.036,-966.02
 L -103.853,-965.887 L -103.688,-965.732 L -103.544,-965.558 L -103.423,-965.367 L -103.326,-965.163 L -103.257,-964.948
 L -103.214,-964.726 L -103.2,-964.5 L -103.214,-964.274 L -103.257,-964.052 L -103.326,-963.837 L -103.423,-963.633
 L -103.544,-963.442 L -103.688,-963.268 L -103.853,-963.113 L -104.036,-962.98 L -104.234,-962.871 L -104.444,-962.788
 L -104.663,-962.732 L -104.887,-962.704 z
M -105.113,-707.704 L -105.337,-707.732 L -105.556,-707.788 L -105.766,-707.871 L -105.964,-707.98 L -106.147,-708.113
 L -106.312,-708.268 L -106.456,-708.442 L -106.577,-708.633 L -106.674,-708.837 L -106.743,-709.052 L -106.786,-709.274
 L -106.8,-709.5 L -106.786,-709.726 L -106.743,-709.948 L -106.674,-710.163 L -106.577,-710.367 L -106.456,-710.558
 L -106.312,-710.732 L -106.147,-710.887 L -105.964,-711.02 L -105.766,-711.129 L -105.556,-711.212 L -105.337,-711.268
 L -105.113,-711.296 L -104.887,-711.296 L -104.663,-711.268 L -104.444,-711.212 L -104.234,-711.129 L -104.036,-711.02
 L -103.853,-710.887 L -103.688,-710.732 L -103.544,-710.558 L -103.423,-710.367 L -103.326,-710.163 L -103.257,-709.948
 L -103.214,-709.726 L -103.2,-709.5 L -103.214,-709.274 L -103.257,-709.052 L -103.326,-708.837 L -103.423,-708.633
 L -103.544,-708.442 L -103.688,-708.268 L -103.853,-708.113 L -104.036,-707.98 L -104.234,-707.871 L -104.444,-707.788
 L -104.663,-707.732 L -104.887,-707.704 z
M 104.887,-707.704 L 104.663,-707.732 L 104.444,-707.788 L 104.234,-707.871 L 104.036,-707.98 L 103.853,-708.113
 L 103.688,-708.268 L 103.544,-708.442 L 103.423,-708.633 L 103.326,-708.837 L 103.257,-709.052 L 103.214,-709.274
 L 103.2,-709.5 L 103.214,-709.726 L 103.257,-709.948 L 103.326,-710.163 L 103.423,-710.367 L 103.544,-710.558
 L 103.688,-710.732 L 103.853,-710.887 L 104.036,-711.02 L 104.234,-711.129 L 104.444,-711.212 L 104.663,-711.268
 L 104.887,-711.296 L 105.113,-711.296 L 105.337,-711.268 L 105.556,-711.212 L 105.766,-711.129 L 105.964,-711.02
 L 106.147,-710.887 L 106.312,-710.732 L 106.456,-710.558 L 106.577,-710.367 L 106.674,-710.163 L 106.743,-709.948
 L 106.786,-709.726 L 106.8,-709.5 L 106.786,-709.274 L 106.743,-709.052 L 106.674,-708.837 L 106.577,-708.633
 L 106.456,-708.442 L 106.312,-708.268 L 106.147,-708.113 L 105.964,-707.98 L 105.766,-707.871 L 105.556,-707.788
 L 105.337,-707.732 L 105.113,-707.704 z
" stroke="black" fill="lightgray" stroke-width="0.5"/>
</svg>
