  0
SECTION
  2
BLOCKS
  0
ENDSEC
  0
SECTION
  2
ENTITIES
  0
LINE
  8
0
 10
-133.5
 20
877.441
 11
-133.187
 21
877.147
  0
LINE
  8
0
 10
-133.187
 20
877.147
 11
-132.679
 21
876.778
  0
LINE
  8
0
 10
-132.679
 20
876.778
 11
-132.129
 21
876.476
  0
LINE
  8
0
 10
-132.129
 20
876.476
 11
-131.545
 21
876.245
  0
LINE
  8
0
 10
-131.545
 20
876.245
 11
-130.937
 21
876.089
  0
LINE
  8
0
 10
-130.937
 20
876.089
 11
-130.314
 21
876.01
  0
LINE
  8
0
 10
-130.314
 20
876.01
 11
130.314
 21
876.01
  0
LINE
  8
0
 10
130.314
 20
876.01
 11
130.937
 21
876.089
  0
LINE
  8
0
 10
130.937
 20
876.089
 11
131.545
 21
876.245
  0
LINE
  8
0
 10
131.545
 20
876.245
 11
132.129
 21
876.476
  0
LINE
  8
0
 10
132.129
 20
876.476
 11
132.679
 21
876.778
  0
LINE
  8
0
 10
132.679
 20
876.778
 11
133.187
 21
877.147
  0
LINE
  8
0
 10
133.187
 20
877.147
 11
133.645
 21
877.577
  0
LINE
  8
0
 10
133.645
 20
877.577
 11
134.045
 21
878.061
  0
LINE
  8
0
 10
134.045
 20
878.061
 11
134.382
 21
878.591
  0
LINE
  8
0
 10
134.382
 20
878.591
 11
134.649
 21
879.159
  0
LINE
  8
0
 10
134.649
 20
879.159
 11
134.843
 21
879.757
  0
LINE
  8
0
 10
134.843
 20
879.757
 11
134.961
 21
880.373
  0
LINE
  8
0
 10
134.961
 20
880.373
 11
135
 21
881
  0
LINE
  8
0
 10
135
 20
881
 11
135
 21
1111
  0
LINE
  8
0
 10
135
 20
1111
 11
134.961
 21
1111.63
  0
LINE
  8
0
 10
134.961
 20
1111.63
 11
134.843
 21
1112.24
  0
LINE
  8
0
 10
134.843
 20
1112.24
 11
134.649
 21
1112.84
  0
LINE
  8
0
 10
134.649
 20
1112.84
 11
134.382
 21
1113.41
  0
LINE
  8
0
 10
134.382
 20
1113.41
 11
134.045
 21
1113.94
  0
LINE
  8
0
 10
134.045
 20
1113.94
 11
133.645
 21
1114.42
  0
LINE
  8
0
 10
133.645
 20
1114.42
 11
133.187
 21
1114.85
  0
LINE
  8
0
 10
133.187
 20
1114.85
 11
132.679
 21
1115.22
  0
LINE
  8
0
 10
132.679
 20
1115.22
 11
132.129
 21
1115.52
  0
LINE
  8
0
 10
132.129
 20
1115.52
 11
131.545
 21
1115.76
  0
LINE
  8
0
 10
131.545
 20
1115.76
 11
130.937
 21
1115.91
  0
LINE
  8
0
 10
130.937
 20
1115.91
 11
130.314
 21
1115.99
  0
LINE
  8
0
 10
130.314
 20
1115.99
 11
-130.314
 21
1115.99
  0
LINE
  8
0
 10
-130.314
 20
1115.99
 11
-130.937
 21
1115.91
  0
LINE
  8
0
 10
-130.937
 20
1115.91
 11
-131.545
 21
1115.76
  0
LINE
  8
0
 10
-131.545
 20
1115.76
 11
-132.129
 21
1115.52
  0
LINE
  8
0
 10
-132.129
 20
1115.52
 11
-132.679
 21
1115.22
  0
LINE
  8
0
 10
-132.679
 20
1115.22
 11
-133.187
 21
1114.85
  0
LINE
  8
0
 10
-133.187
 20
1114.85
 11
-133.5
 21
1114.56
  0
LINE
  8
0
 10
-133.5
 20
1114.56
 11
-133.5
 21
1115.99
  0
LINE
  8
0
 10
-133.5
 20
1115.99
 11
-136.5
 21
1115.99
  0
LINE
  8
0
 10
-136.5
 20
1115.99
 11
-136.5
 21
876.01
  0
LINE
  8
0
 10
-136.5
 20
876.01
 11
-133.5
 21
876.01
  0
LINE
  8
0
 10
-133.5
 20
876.01
 11
-133.5
 21
877.441
  0
LINE
  8
0
 10
-129.743
 20
877.635
 11
-130.226
 21
877.696
  0
LINE
  8
0
 10
-130.226
 20
877.696
 11
-130.697
 21
877.817
  0
LINE
  8
0
 10
-130.697
 20
877.817
 11
-131.149
 21
877.996
  0
LINE
  8
0
 10
-131.149
 20
877.996
 11
-131.575
 21
878.23
  0
LINE
  8
0
 10
-131.575
 20
878.23
 11
-131.969
 21
878.516
  0
LINE
  8
0
 10
-131.969
 20
878.516
 11
-132.323
 21
878.849
  0
LINE
  8
0
 10
-132.323
 20
878.849
 11
-132.633
 21
879.224
  0
LINE
  8
0
 10
-132.633
 20
879.224
 11
-132.894
 21
879.634
  0
LINE
  8
0
 10
-132.894
 20
879.634
 11
-133.101
 21
880.074
  0
LINE
  8
0
 10
-133.101
 20
880.074
 11
-133.251
 21
880.537
  0
LINE
  8
0
 10
-133.251
 20
880.537
 11
-133.342
 21
881.015
  0
LINE
  8
0
 10
-133.342
 20
881.015
 11
-133.373
 21
881.5
  0
LINE
  8
0
 10
-133.373
 20
881.5
 11
-133.373
 21
1110.5
  0
LINE
  8
0
 10
-133.373
 20
1110.5
 11
-133.342
 21
1110.99
  0
LINE
  8
0
 10
-133.342
 20
1110.99
 11
-133.251
 21
1111.46
  0
LINE
  8
0
 10
-133.251
 20
1111.46
 11
-133.101
 21
1111.93
  0
LINE
  8
0
 10
-133.101
 20
1111.93
 11
-132.894
 21
1112.37
  0
LINE
  8
0
 10
-132.894
 20
1112.37
 11
-132.633
 21
1112.78
  0
LINE
  8
0
 10
-132.633
 20
1112.78
 11
-132.323
 21
1113.15
  0
LINE
  8
0
 10
-132.323
 20
1113.15
 11
-131.969
 21
1113.48
  0
LINE
  8
0
 10
-131.969
 20
1113.48
 11
-131.575
 21
1113.77
  0
LINE
  8
0
 10
-131.575
 20
1113.77
 11
-131.149
 21
1114
  0
LINE
  8
0
 10
-131.149
 20
1114
 11
-130.697
 21
1114.18
  0
LINE
  8
0
 10
-130.697
 20
1114.18
 11
-130.226
 21
1114.3
  0
LINE
  8
0
 10
-130.226
 20
1114.3
 11
-129.743
 21
1114.36
  0
LINE
  8
0
 10
-129.743
 20
1114.36
 11
129.743
 21
1114.36
  0
LINE
  8
0
 10
129.743
 20
1114.36
 11
130.226
 21
1114.3
  0
LINE
  8
0
 10
130.226
 20
1114.3
 11
130.697
 21
1114.18
  0
LINE
  8
0
 10
130.697
 20
1114.18
 11
131.149
 21
1114
  0
LINE
  8
0
 10
131.149
 20
1114
 11
131.575
 21
1113.77
  0
LINE
  8
0
 10
131.575
 20
1113.77
 11
131.969
 21
1113.48
  0
LINE
  8
0
 10
131.969
 20
1113.48
 11
132.323
 21
1113.15
  0
LINE
  8
0
 10
132.323
 20
1113.15
 11
132.633
 21
1112.78
  0
LINE
  8
0
 10
132.633
 20
1112.78
 11
132.894
 21
1112.37
  0
LINE
  8
0
 10
132.894
 20
1112.37
 11
133.101
 21
1111.93
  0
LINE
  8
0
 10
133.101
 20
1111.93
 11
133.251
 21
1111.46
  0
LINE
  8
0
 10
133.251
 20
1111.46
 11
133.342
 21
1110.99
  0
LINE
  8
0
 10
133.342
 20
1110.99
 11
133.373
 21
1110.5
  0
LINE
  8
0
 10
133.373
 20
1110.5
 11
133.373
 21
881.5
  0
LINE
  8
0
 10
133.373
 20
881.5
 11
133.342
 21
881.015
  0
LINE
  8
0
 10
133.342
 20
881.015
 11
133.251
 21
880.537
  0
LINE
  8
0
 10
133.251
 20
880.537
 11
133.101
 21
880.074
  0
LINE
  8
0
 10
133.101
 20
880.074
 11
132.894
 21
879.634
  0
LINE
  8
0
 10
132.894
 20
879.634
 11
132.633
 21
879.224
  0
LINE
  8
0
 10
132.633
 20
879.224
 11
132.323
 21
878.849
  0
LINE
  8
0
 10
132.323
 20
878.849
 11
131.969
 21
878.516
  0
LINE
  8
0
 10
131.969
 20
878.516
 11
131.575
 21
878.23
  0
LINE
  8
0
 10
131.575
 20
878.23
 11
131.149
 21
877.996
  0
LINE
  8
0
 10
131.149
 20
877.996
 11
130.697
 21
877.817
  0
LINE
  8
0
 10
130.697
 20
877.817
 11
130.226
 21
877.696
  0
LINE
  8
0
 10
130.226
 20
877.696
 11
129.743
 21
877.635
  0
LINE
  8
0
 10
129.743
 20
877.635
 11
-129.743
 21
877.635
  0
LINE
  8
0
 10
130.937
 20
627.089
 11
131.545
 21
627.245
  0
LINE
  8
0
 10
131.545
 20
627.245
 11
132.129
 21
627.476
  0
LINE
  8
0
 10
132.129
 20
627.476
 11
132.679
 21
627.778
  0
LINE
  8
0
 10
132.679
 20
627.778
 11
133.187
 21
628.147
  0
LINE
  8
0
 10
133.187
 20
628.147
 11
133.645
 21
628.577
  0
LINE
  8
0
 10
133.645
 20
628.577
 11
134.045
 21
629.061
  0
LINE
  8
0
 10
134.045
 20
629.061
 11
134.382
 21
629.591
  0
LINE
  8
0
 10
134.382
 20
629.591
 11
134.649
 21
630.159
  0
LINE
  8
0
 10
134.649
 20
630.159
 11
134.843
 21
630.757
  0
LINE
  8
0
 10
134.843
 20
630.757
 11
134.961
 21
631.373
  0
LINE
  8
0
 10
134.961
 20
631.373
 11
135
 21
632
  0
LINE
  8
0
 10
135
 20
632
 11
135
 21
862
  0
LINE
  8
0
 10
135
 20
862
 11
134.961
 21
862.627
  0
LINE
  8
0
 10
134.961
 20
862.627
 11
134.843
 21
863.243
  0
LINE
  8
0
 10
134.843
 20
863.243
 11
134.649
 21
863.841
  0
LINE
  8
0
 10
134.649
 20
863.841
 11
134.382
 21
864.409
  0
LINE
  8
0
 10
134.382
 20
864.409
 11
134.045
 21
864.939
  0
LINE
  8
0
 10
134.045
 20
864.939
 11
133.645
 21
865.423
  0
LINE
  8
0
 10
133.645
 20
865.423
 11
133.187
 21
865.853
  0
LINE
  8
0
 10
133.187
 20
865.853
 11
132.679
 21
866.222
  0
LINE
  8
0
 10
132.679
 20
866.222
 11
132.129
 21
866.524
  0
LINE
  8
0
 10
132.129
 20
866.524
 11
131.545
 21
866.755
  0
LINE
  8
0
 10
131.545
 20
866.755
 11
130.937
 21
866.911
  0
LINE
  8
0
 10
130.937
 20
866.911
 11
130.314
 21
866.99
  0
LINE
  8
0
 10
130.314
 20
866.99
 11
-130.314
 21
866.99
  0
LINE
  8
0
 10
-130.314
 20
866.99
 11
-130.937
 21
866.911
  0
LINE
  8
0
 10
-130.937
 20
866.911
 11
-131.545
 21
866.755
  0
LINE
  8
0
 10
-131.545
 20
866.755
 11
-132.129
 21
866.524
  0
LINE
  8
0
 10
-132.129
 20
866.524
 11
-132.679
 21
866.222
  0
LINE
  8
0
 10
-132.679
 20
866.222
 11
-133.187
 21
865.853
  0
LINE
  8
0
 10
-133.187
 20
865.853
 11
-133.5
 21
865.559
  0
LINE
  8
0
 10
-133.5
 20
865.559
 11
-133.5
 21
866.615
  0
LINE
  8
0
 10
-133.5
 20
866.615
 11
-136.5
 21
866.615
  0
LINE
  8
0
 10
-136.5
 20
866.615
 11
-136.5
 21
627.385
  0
LINE
  8
0
 10
-136.5
 20
627.385
 11
-133.5
 21
627.385
  0
LINE
  8
0
 10
-133.5
 20
627.385
 11
-133.5
 21
628.441
  0
LINE
  8
0
 10
-133.5
 20
628.441
 11
-133.187
 21
628.147
  0
LINE
  8
0
 10
-133.187
 20
628.147
 11
-132.679
 21
627.778
  0
LINE
  8
0
 10
-132.679
 20
627.778
 11
-132.129
 21
627.476
  0
LINE
  8
0
 10
-132.129
 20
627.476
 11
-131.545
 21
627.245
  0
LINE
  8
0
 10
-131.545
 20
627.245
 11
-130.937
 21
627.089
  0
LINE
  8
0
 10
-130.937
 20
627.089
 11
-130.314
 21
627.01
  0
LINE
  8
0
 10
-130.314
 20
627.01
 11
130.314
 21
627.01
  0
LINE
  8
0
 10
130.314
 20
627.01
 11
130.937
 21
627.089
  0
LINE
  8
0
 10
127.349
 20
857.105
 11
127.05
 21
857.143
  0
LINE
  8
0
 10
127.05
 20
857.143
 11
126.758
 21
857.217
  0
LINE
  8
0
 10
126.758
 20
857.217
 11
126.478
 21
857.328
  0
LINE
  8
0
 10
126.478
 20
857.328
 11
126.214
 21
857.474
  0
LINE
  8
0
 10
126.214
 20
857.474
 11
125.97
 21
857.651
  0
LINE
  8
0
 10
125.97
 20
857.651
 11
125.75
 21
857.857
  0
LINE
  8
0
 10
125.75
 20
857.857
 11
125.558
 21
858.089
  0
LINE
  8
0
 10
125.558
 20
858.089
 11
125.397
 21
858.344
  0
LINE
  8
0
 10
125.397
 20
858.344
 11
125.269
 21
858.617
  0
LINE
  8
0
 10
125.269
 20
858.617
 11
125.175
 21
858.903
  0
LINE
  8
0
 10
125.175
 20
858.903
 11
125.119
 21
859.199
  0
LINE
  8
0
 10
125.119
 20
859.199
 11
125.1
 21
859.5
  0
LINE
  8
0
 10
125.1
 20
859.5
 11
125.119
 21
859.801
  0
LINE
  8
0
 10
125.119
 20
859.801
 11
125.175
 21
860.097
  0
LINE
  8
0
 10
125.175
 20
860.097
 11
125.269
 21
860.383
  0
LINE
  8
0
 10
125.269
 20
860.383
 11
125.397
 21
860.656
  0
LINE
  8
0
 10
125.397
 20
860.656
 11
125.558
 21
860.911
  0
LINE
  8
0
 10
125.558
 20
860.911
 11
125.75
 21
861.143
  0
LINE
  8
0
 10
125.75
 20
861.143
 11
125.97
 21
861.349
  0
LINE
  8
0
 10
125.97
 20
861.349
 11
126.214
 21
861.526
  0
LINE
  8
0
 10
126.214
 20
861.526
 11
126.478
 21
861.672
  0
LINE
  8
0
 10
126.478
 20
861.672
 11
126.758
 21
861.783
  0
LINE
  8
0
 10
126.758
 20
861.783
 11
127.05
 21
861.857
  0
LINE
  8
0
 10
127.05
 20
861.857
 11
127.349
 21
861.895
  0
LINE
  8
0
 10
127.349
 20
861.895
 11
127.651
 21
861.895
  0
LINE
  8
0
 10
127.651
 20
861.895
 11
127.95
 21
861.857
  0
LINE
  8
0
 10
127.95
 20
861.857
 11
128.242
 21
861.783
  0
LINE
  8
0
 10
128.242
 20
861.783
 11
128.522
 21
861.672
  0
LINE
  8
0
 10
128.522
 20
861.672
 11
128.786
 21
861.526
  0
LINE
  8
0
 10
128.786
 20
861.526
 11
129.03
 21
861.349
  0
LINE
  8
0
 10
129.03
 20
861.349
 11
129.25
 21
861.143
  0
LINE
  8
0
 10
129.25
 20
861.143
 11
129.442
 21
860.911
  0
LINE
  8
0
 10
129.442
 20
860.911
 11
129.603
 21
860.656
  0
LINE
  8
0
 10
129.603
 20
860.656
 11
129.731
 21
860.383
  0
LINE
  8
0
 10
129.731
 20
860.383
 11
129.825
 21
860.097
  0
LINE
  8
0
 10
129.825
 20
860.097
 11
129.881
 21
859.801
  0
LINE
  8
0
 10
129.881
 20
859.801
 11
129.9
 21
859.5
  0
LINE
  8
0
 10
129.9
 20
859.5
 11
129.881
 21
859.199
  0
LINE
  8
0
 10
129.881
 20
859.199
 11
129.825
 21
858.903
  0
LINE
  8
0
 10
129.825
 20
858.903
 11
129.731
 21
858.617
  0
LINE
  8
0
 10
129.731
 20
858.617
 11
129.603
 21
858.344
  0
LINE
  8
0
 10
129.603
 20
858.344
 11
129.442
 21
858.089
  0
LINE
  8
0
 10
129.442
 20
858.089
 11
129.25
 21
857.857
  0
LINE
  8
0
 10
129.25
 20
857.857
 11
129.03
 21
857.651
  0
LINE
  8
0
 10
129.03
 20
857.651
 11
128.786
 21
857.474
  0
LINE
  8
0
 10
128.786
 20
857.474
 11
128.522
 21
857.328
  0
LINE
  8
0
 10
128.522
 20
857.328
 11
128.242
 21
857.217
  0
LINE
  8
0
 10
128.242
 20
857.217
 11
127.95
 21
857.143
  0
LINE
  8
0
 10
127.95
 20
857.143
 11
127.651
 21
857.105
  0
LINE
  8
0
 10
127.651
 20
857.105
 11
127.349
 21
857.105
  0
LINE
  8
0
 10
-127.651
 20
857.105
 11
-127.95
 21
857.143
  0
LINE
  8
0
 10
-127.95
 20
857.143
 11
-128.242
 21
857.217
  0
LINE
  8
0
 10
-128.242
 20
857.217
 11
-128.522
 21
857.328
  0
LINE
  8
0
 10
-128.522
 20
857.328
 11
-128.786
 21
857.474
  0
LINE
  8
0
 10
-128.786
 20
857.474
 11
-129.03
 21
857.651
  0
LINE
  8
0
 10
-129.03
 20
857.651
 11
-129.25
 21
857.857
  0
LINE
  8
0
 10
-129.25
 20
857.857
 11
-129.442
 21
858.089
  0
LINE
  8
0
 10
-129.442
 20
858.089
 11
-129.603
 21
858.344
  0
LINE
  8
0
 10
-129.603
 20
858.344
 11
-129.731
 21
858.617
  0
LINE
  8
0
 10
-129.731
 20
858.617
 11
-129.825
 21
858.903
  0
LINE
  8
0
 10
-129.825
 20
858.903
 11
-129.881
 21
859.199
  0
LINE
  8
0
 10
-129.881
 20
859.199
 11
-129.9
 21
859.5
  0
LINE
  8
0
 10
-129.9
 20
859.5
 11
-129.881
 21
859.801
  0
LINE
  8
0
 10
-129.881
 20
859.801
 11
-129.825
 21
860.097
  0
LINE
  8
0
 10
-129.825
 20
860.097
 11
-129.731
 21
860.383
  0
LINE
  8
0
 10
-129.731
 20
860.383
 11
-129.603
 21
860.656
  0
LINE
  8
0
 10
-129.603
 20
860.656
 11
-129.442
 21
860.911
  0
LINE
  8
0
 10
-129.442
 20
860.911
 11
-129.25
 21
861.143
  0
LINE
  8
0
 10
-129.25
 20
861.143
 11
-129.03
 21
861.349
  0
LINE
  8
0
 10
-129.03
 20
861.349
 11
-128.786
 21
861.526
  0
LINE
  8
0
 10
-128.786
 20
861.526
 11
-128.522
 21
861.672
  0
LINE
  8
0
 10
-128.522
 20
861.672
 11
-128.242
 21
861.783
  0
LINE
  8
0
 10
-128.242
 20
861.783
 11
-127.95
 21
861.857
  0
LINE
  8
0
 10
-127.95
 20
861.857
 11
-127.651
 21
861.895
  0
LINE
  8
0
 10
-127.651
 20
861.895
 11
-127.349
 21
861.895
  0
LINE
  8
0
 10
-127.349
 20
861.895
 11
-127.05
 21
861.857
  0
LINE
  8
0
 10
-127.05
 20
861.857
 11
-126.758
 21
861.783
  0
LINE
  8
0
 10
-126.758
 20
861.783
 11
-126.478
 21
861.672
  0
LINE
  8
0
 10
-126.478
 20
861.672
 11
-126.214
 21
861.526
  0
LINE
  8
0
 10
-126.214
 20
861.526
 11
-125.97
 21
861.349
  0
LINE
  8
0
 10
-125.97
 20
861.349
 11
-125.75
 21
861.143
  0
LINE
  8
0
 10
-125.75
 20
861.143
 11
-125.558
 21
860.911
  0
LINE
  8
0
 10
-125.558
 20
860.911
 11
-125.397
 21
860.656
  0
LINE
  8
0
 10
-125.397
 20
860.656
 11
-125.269
 21
860.383
  0
LINE
  8
0
 10
-125.269
 20
860.383
 11
-125.175
 21
860.097
  0
LINE
  8
0
 10
-125.175
 20
860.097
 11
-125.119
 21
859.801
  0
LINE
  8
0
 10
-125.119
 20
859.801
 11
-125.1
 21
859.5
  0
LINE
  8
0
 10
-125.1
 20
859.5
 11
-125.119
 21
859.199
  0
LINE
  8
0
 10
-125.119
 20
859.199
 11
-125.175
 21
858.903
  0
LINE
  8
0
 10
-125.175
 20
858.903
 11
-125.269
 21
858.617
  0
LINE
  8
0
 10
-125.269
 20
858.617
 11
-125.397
 21
858.344
  0
LINE
  8
0
 10
-125.397
 20
858.344
 11
-125.558
 21
858.089
  0
LINE
  8
0
 10
-125.558
 20
858.089
 11
-125.75
 21
857.857
  0
LINE
  8
0
 10
-125.75
 20
857.857
 11
-125.97
 21
857.651
  0
LINE
  8
0
 10
-125.97
 20
857.651
 11
-126.214
 21
857.474
  0
LINE
  8
0
 10
-126.214
 20
857.474
 11
-126.478
 21
857.328
  0
LINE
  8
0
 10
-126.478
 20
857.328
 11
-126.758
 21
857.217
  0
LINE
  8
0
 10
-126.758
 20
857.217
 11
-127.05
 21
857.143
  0
LINE
  8
0
 10
-127.05
 20
857.143
 11
-127.349
 21
857.105
  0
LINE
  8
0
 10
-127.349
 20
857.105
 11
-127.651
 21
857.105
  0
LINE
  8
0
 10
127.349
 20
632.105
 11
127.05
 21
632.143
  0
LINE
  8
0
 10
127.05
 20
632.143
 11
126.758
 21
632.217
  0
LINE
  8
0
 10
126.758
 20
632.217
 11
126.478
 21
632.328
  0
LINE
  8
0
 10
126.478
 20
632.328
 11
126.214
 21
632.474
  0
LINE
  8
0
 10
126.214
 20
632.474
 11
125.97
 21
632.651
  0
LINE
  8
0
 10
125.97
 20
632.651
 11
125.75
 21
632.857
  0
LINE
  8
0
 10
125.75
 20
632.857
 11
125.558
 21
633.089
  0
LINE
  8
0
 10
125.558
 20
633.089
 11
125.397
 21
633.344
  0
LINE
  8
0
 10
125.397
 20
633.344
 11
125.269
 21
633.617
  0
LINE
  8
0
 10
125.269
 20
633.617
 11
125.175
 21
633.903
  0
LINE
  8
0
 10
125.175
 20
633.903
 11
125.119
 21
634.199
  0
LINE
  8
0
 10
125.119
 20
634.199
 11
125.1
 21
634.5
  0
LINE
  8
0
 10
125.1
 20
634.5
 11
125.119
 21
634.801
  0
LINE
  8
0
 10
125.119
 20
634.801
 11
125.175
 21
635.097
  0
LINE
  8
0
 10
125.175
 20
635.097
 11
125.269
 21
635.383
  0
LINE
  8
0
 10
125.269
 20
635.383
 11
125.397
 21
635.656
  0
LINE
  8
0
 10
125.397
 20
635.656
 11
125.558
 21
635.911
  0
LINE
  8
0
 10
125.558
 20
635.911
 11
125.75
 21
636.143
  0
LINE
  8
0
 10
125.75
 20
636.143
 11
125.97
 21
636.349
  0
LINE
  8
0
 10
125.97
 20
636.349
 11
126.214
 21
636.526
  0
LINE
  8
0
 10
126.214
 20
636.526
 11
126.478
 21
636.672
  0
LINE
  8
0
 10
126.478
 20
636.672
 11
126.758
 21
636.783
  0
LINE
  8
0
 10
126.758
 20
636.783
 11
127.05
 21
636.857
  0
LINE
  8
0
 10
127.05
 20
636.857
 11
127.349
 21
636.895
  0
LINE
  8
0
 10
127.349
 20
636.895
 11
127.651
 21
636.895
  0
LINE
  8
0
 10
127.651
 20
636.895
 11
127.95
 21
636.857
  0
LINE
  8
0
 10
127.95
 20
636.857
 11
128.242
 21
636.783
  0
LINE
  8
0
 10
128.242
 20
636.783
 11
128.522
 21
636.672
  0
LINE
  8
0
 10
128.522
 20
636.672
 11
128.786
 21
636.526
  0
LINE
  8
0
 10
128.786
 20
636.526
 11
129.03
 21
636.349
  0
LINE
  8
0
 10
129.03
 20
636.349
 11
129.25
 21
636.143
  0
LINE
  8
0
 10
129.25
 20
636.143
 11
129.442
 21
635.911
  0
LINE
  8
0
 10
129.442
 20
635.911
 11
129.603
 21
635.656
  0
LINE
  8
0
 10
129.603
 20
635.656
 11
129.731
 21
635.383
  0
LINE
  8
0
 10
129.731
 20
635.383
 11
129.825
 21
635.097
  0
LINE
  8
0
 10
129.825
 20
635.097
 11
129.881
 21
634.801
  0
LINE
  8
0
 10
129.881
 20
634.801
 11
129.9
 21
634.5
  0
LINE
  8
0
 10
129.9
 20
634.5
 11
129.881
 21
634.199
  0
LINE
  8
0
 10
129.881
 20
634.199
 11
129.825
 21
633.903
  0
LINE
  8
0
 10
129.825
 20
633.903
 11
129.731
 21
633.617
  0
LINE
  8
0
 10
129.731
 20
633.617
 11
129.603
 21
633.344
  0
LINE
  8
0
 10
129.603
 20
633.344
 11
129.442
 21
633.089
  0
LINE
  8
0
 10
129.442
 20
633.089
 11
129.25
 21
632.857
  0
LINE
  8
0
 10
129.25
 20
632.857
 11
129.03
 21
632.651
  0
LINE
  8
0
 10
129.03
 20
632.651
 11
128.786
 21
632.474
  0
LINE
  8
0
 10
128.786
 20
632.474
 11
128.522
 21
632.328
  0
LINE
  8
0
 10
128.522
 20
632.328
 11
128.242
 21
632.217
  0
LINE
  8
0
 10
128.242
 20
632.217
 11
127.95
 21
632.143
  0
LINE
  8
0
 10
127.95
 20
632.143
 11
127.651
 21
632.105
  0
LINE
  8
0
 10
127.651
 20
632.105
 11
127.349
 21
632.105
  0
LINE
  8
0
 10
-127.651
 20
632.105
 11
-127.95
 21
632.143
  0
LINE
  8
0
 10
-127.95
 20
632.143
 11
-128.242
 21
632.217
  0
LINE
  8
0
 10
-128.242
 20
632.217
 11
-128.522
 21
632.328
  0
LINE
  8
0
 10
-128.522
 20
632.328
 11
-128.786
 21
632.474
  0
LINE
  8
0
 10
-128.786
 20
632.474
 11
-129.03
 21
632.651
  0
LINE
  8
0
 10
-129.03
 20
632.651
 11
-129.25
 21
632.857
  0
LINE
  8
0
 10
-129.25
 20
632.857
 11
-129.442
 21
633.089
  0
LINE
  8
0
 10
-129.442
 20
633.089
 11
-129.603
 21
633.344
  0
LINE
  8
0
 10
-129.603
 20
633.344
 11
-129.731
 21
633.617
  0
LINE
  8
0
 10
-129.731
 20
633.617
 11
-129.825
 21
633.903
  0
LINE
  8
0
 10
-129.825
 20
633.903
 11
-129.881
 21
634.199
  0
LINE
  8
0
 10
-129.881
 20
634.199
 11
-129.9
 21
634.5
  0
LINE
  8
0
 10
-129.9
 20
634.5
 11
-129.881
 21
634.801
  0
LINE
  8
0
 10
-129.881
 20
634.801
 11
-129.825
 21
635.097
  0
LINE
  8
0
 10
-129.825
 20
635.097
 11
-129.731
 21
635.383
  0
LINE
  8
0
 10
-129.731
 20
635.383
 11
-129.603
 21
635.656
  0
LINE
  8
0
 10
-129.603
 20
635.656
 11
-129.442
 21
635.911
  0
LINE
  8
0
 10
-129.442
 20
635.911
 11
-129.25
 21
636.143
  0
LINE
  8
0
 10
-129.25
 20
636.143
 11
-129.03
 21
636.349
  0
LINE
  8
0
 10
-129.03
 20
636.349
 11
-128.786
 21
636.526
  0
LINE
  8
0
 10
-128.786
 20
636.526
 11
-128.522
 21
636.672
  0
LINE
  8
0
 10
-128.522
 20
636.672
 11
-128.242
 21
636.783
  0
LINE
  8
0
 10
-128.242
 20
636.783
 11
-127.95
 21
636.857
  0
LINE
  8
0
 10
-127.95
 20
636.857
 11
-127.651
 21
636.895
  0
LINE
  8
0
 10
-127.651
 20
636.895
 11
-127.349
 21
636.895
  0
LINE
  8
0
 10
-127.349
 20
636.895
 11
-127.05
 21
636.857
  0
LINE
  8
0
 10
-127.05
 20
636.857
 11
-126.758
 21
636.783
  0
LINE
  8
0
 10
-126.758
 20
636.783
 11
-126.478
 21
636.672
  0
LINE
  8
0
 10
-126.478
 20
636.672
 11
-126.214
 21
636.526
  0
LINE
  8
0
 10
-126.214
 20
636.526
 11
-125.97
 21
636.349
  0
LINE
  8
0
 10
-125.97
 20
636.349
 11
-125.75
 21
636.143
  0
LINE
  8
0
 10
-125.75
 20
636.143
 11
-125.558
 21
635.911
  0
LINE
  8
0
 10
-125.558
 20
635.911
 11
-125.397
 21
635.656
  0
LINE
  8
0
 10
-125.397
 20
635.656
 11
-125.269
 21
635.383
  0
LINE
  8
0
 10
-125.269
 20
635.383
 11
-125.175
 21
635.097
  0
LINE
  8
0
 10
-125.175
 20
635.097
 11
-125.119
 21
634.801
  0
LINE
  8
0
 10
-125.119
 20
634.801
 11
-125.1
 21
634.5
  0
LINE
  8
0
 10
-125.1
 20
634.5
 11
-125.119
 21
634.199
  0
LINE
  8
0
 10
-125.119
 20
634.199
 11
-125.175
 21
633.903
  0
LINE
  8
0
 10
-125.175
 20
633.903
 11
-125.269
 21
633.617
  0
LINE
  8
0
 10
-125.269
 20
633.617
 11
-125.397
 21
633.344
  0
LINE
  8
0
 10
-125.397
 20
633.344
 11
-125.558
 21
633.089
  0
LINE
  8
0
 10
-125.558
 20
633.089
 11
-125.75
 21
632.857
  0
LINE
  8
0
 10
-125.75
 20
632.857
 11
-125.97
 21
632.651
  0
LINE
  8
0
 10
-125.97
 20
632.651
 11
-126.214
 21
632.474
  0
LINE
  8
0
 10
-126.214
 20
632.474
 11
-126.478
 21
632.328
  0
LINE
  8
0
 10
-126.478
 20
632.328
 11
-126.758
 21
632.217
  0
LINE
  8
0
 10
-126.758
 20
632.217
 11
-127.05
 21
632.143
  0
LINE
  8
0
 10
-127.05
 20
632.143
 11
-127.349
 21
632.105
  0
LINE
  8
0
 10
-127.349
 20
632.105
 11
-127.651
 21
632.105
  0
LINE
  8
0
 10
130.937
 20
378.089
 11
131.545
 21
378.245
  0
LINE
  8
0
 10
131.545
 20
378.245
 11
132.129
 21
378.476
  0
LINE
  8
0
 10
132.129
 20
378.476
 11
132.679
 21
378.778
  0
LINE
  8
0
 10
132.679
 20
378.778
 11
133.187
 21
379.147
  0
LINE
  8
0
 10
133.187
 20
379.147
 11
133.645
 21
379.577
  0
LINE
  8
0
 10
133.645
 20
379.577
 11
134.045
 21
380.061
  0
LINE
  8
0
 10
134.045
 20
380.061
 11
134.382
 21
380.591
  0
LINE
  8
0
 10
134.382
 20
380.591
 11
134.649
 21
381.159
  0
LINE
  8
0
 10
134.649
 20
381.159
 11
134.843
 21
381.757
  0
LINE
  8
0
 10
134.843
 20
381.757
 11
134.961
 21
382.373
  0
LINE
  8
0
 10
134.961
 20
382.373
 11
135
 21
383
  0
LINE
  8
0
 10
135
 20
383
 11
135
 21
613
  0
LINE
  8
0
 10
135
 20
613
 11
134.961
 21
613.627
  0
LINE
  8
0
 10
134.961
 20
613.627
 11
134.843
 21
614.243
  0
LINE
  8
0
 10
134.843
 20
614.243
 11
134.649
 21
614.841
  0
LINE
  8
0
 10
134.649
 20
614.841
 11
134.382
 21
615.409
  0
LINE
  8
0
 10
134.382
 20
615.409
 11
134.045
 21
615.939
  0
LINE
  8
0
 10
134.045
 20
615.939
 11
133.645
 21
616.423
  0
LINE
  8
0
 10
133.645
 20
616.423
 11
133.187
 21
616.853
  0
LINE
  8
0
 10
133.187
 20
616.853
 11
132.679
 21
617.222
  0
LINE
  8
0
 10
132.679
 20
617.222
 11
132.129
 21
617.524
  0
LINE
  8
0
 10
132.129
 20
617.524
 11
131.545
 21
617.755
  0
LINE
  8
0
 10
131.545
 20
617.755
 11
130.937
 21
617.911
  0
LINE
  8
0
 10
130.937
 20
617.911
 11
130.314
 21
617.99
  0
LINE
  8
0
 10
130.314
 20
617.99
 11
-130.314
 21
617.99
  0
LINE
  8
0
 10
-130.314
 20
617.99
 11
-130.937
 21
617.911
  0
LINE
  8
0
 10
-130.937
 20
617.911
 11
-131.545
 21
617.755
  0
LINE
  8
0
 10
-131.545
 20
617.755
 11
-132.129
 21
617.524
  0
LINE
  8
0
 10
-132.129
 20
617.524
 11
-132.679
 21
617.222
  0
LINE
  8
0
 10
-132.679
 20
617.222
 11
-133.187
 21
616.853
  0
LINE
  8
0
 10
-133.187
 20
616.853
 11
-133.645
 21
616.423
  0
LINE
  8
0
 10
-133.645
 20
616.423
 11
-134.045
 21
615.939
  0
LINE
  8
0
 10
-134.045
 20
615.939
 11
-134.382
 21
615.409
  0
LINE
  8
0
 10
-134.382
 20
615.409
 11
-134.649
 21
614.841
  0
LINE
  8
0
 10
-134.649
 20
614.841
 11
-134.843
 21
614.243
  0
LINE
  8
0
 10
-134.843
 20
614.243
 11
-134.9
 21
613.944
  0
LINE
  8
0
 10
-134.9
 20
613.944
 11
-136.5
 21
613.944
  0
LINE
  8
0
 10
-136.5
 20
613.944
 11
-136.5
 21
382.056
  0
LINE
  8
0
 10
-136.5
 20
382.056
 11
-134.9
 21
382.056
  0
LINE
  8
0
 10
-134.9
 20
382.056
 11
-134.843
 21
381.757
  0
LINE
  8
0
 10
-134.843
 20
381.757
 11
-134.649
 21
381.159
  0
LINE
  8
0
 10
-134.649
 20
381.159
 11
-134.382
 21
380.591
  0
LINE
  8
0
 10
-134.382
 20
380.591
 11
-134.045
 21
380.061
  0
LINE
  8
0
 10
-134.045
 20
380.061
 11
-133.645
 21
379.577
  0
LINE
  8
0
 10
-133.645
 20
379.577
 11
-133.187
 21
379.147
  0
LINE
  8
0
 10
-133.187
 20
379.147
 11
-132.679
 21
378.778
  0
LINE
  8
0
 10
-132.679
 20
378.778
 11
-132.129
 21
378.476
  0
LINE
  8
0
 10
-132.129
 20
378.476
 11
-131.545
 21
378.245
  0
LINE
  8
0
 10
-131.545
 20
378.245
 11
-130.937
 21
378.089
  0
LINE
  8
0
 10
-130.937
 20
378.089
 11
-130.314
 21
378.01
  0
LINE
  8
0
 10
-130.314
 20
378.01
 11
130.314
 21
378.01
  0
LINE
  8
0
 10
130.314
 20
378.01
 11
130.937
 21
378.089
  0
LINE
  8
0
 10
-127.613
 20
608.704
 11
-127.837
 21
608.732
  0
LINE
  8
0
 10
-127.837
 20
608.732
 11
-128.056
 21
608.788
  0
LINE
  8
0
 10
-128.056
 20
608.788
 11
-128.266
 21
608.871
  0
LINE
  8
0
 10
-128.266
 20
608.871
 11
-128.464
 21
608.98
  0
LINE
  8
0
 10
-128.464
 20
608.98
 11
-128.647
 21
609.113
  0
LINE
  8
0
 10
-128.647
 20
609.113
 11
-128.812
 21
609.268
  0
LINE
  8
0
 10
-128.812
 20
609.268
 11
-128.956
 21
609.442
  0
LINE
  8
0
 10
-128.956
 20
609.442
 11
-129.077
 21
609.633
  0
LINE
  8
0
 10
-129.077
 20
609.633
 11
-129.174
 21
609.837
  0
LINE
  8
0
 10
-129.174
 20
609.837
 11
-129.243
 21
610.052
  0
LINE
  8
0
 10
-129.243
 20
610.052
 11
-129.286
 21
610.274
  0
LINE
  8
0
 10
-129.286
 20
610.274
 11
-129.3
 21
610.5
  0
LINE
  8
0
 10
-129.3
 20
610.5
 11
-129.286
 21
610.726
  0
LINE
  8
0
 10
-129.286
 20
610.726
 11
-129.243
 21
610.948
  0
LINE
  8
0
 10
-129.243
 20
610.948
 11
-129.174
 21
611.163
  0
LINE
  8
0
 10
-129.174
 20
611.163
 11
-129.077
 21
611.367
  0
LINE
  8
0
 10
-129.077
 20
611.367
 11
-128.956
 21
611.558
  0
LINE
  8
0
 10
-128.956
 20
611.558
 11
-128.812
 21
611.732
  0
LINE
  8
0
 10
-128.812
 20
611.732
 11
-128.647
 21
611.887
  0
LINE
  8
0
 10
-128.647
 20
611.887
 11
-128.464
 21
612.02
  0
LINE
  8
0
 10
-128.464
 20
612.02
 11
-128.266
 21
612.129
  0
LINE
  8
0
 10
-128.266
 20
612.129
 11
-128.056
 21
612.212
  0
LINE
  8
0
 10
-128.056
 20
612.212
 11
-127.837
 21
612.268
  0
LINE
  8
0
 10
-127.837
 20
612.268
 11
-127.613
 21
612.296
  0
LINE
  8
0
 10
-127.613
 20
612.296
 11
-127.387
 21
612.296
  0
LINE
  8
0
 10
-127.387
 20
612.296
 11
-127.163
 21
612.268
  0
LINE
  8
0
 10
-127.163
 20
612.268
 11
-126.944
 21
612.212
  0
LINE
  8
0
 10
-126.944
 20
612.212
 11
-126.734
 21
612.129
  0
LINE
  8
0
 10
-126.734
 20
612.129
 11
-126.536
 21
612.02
  0
LINE
  8
0
 10
-126.536
 20
612.02
 11
-126.353
 21
611.887
  0
LINE
  8
0
 10
-126.353
 20
611.887
 11
-126.188
 21
611.732
  0
LINE
  8
0
 10
-126.188
 20
611.732
 11
-126.044
 21
611.558
  0
LINE
  8
0
 10
-126.044
 20
611.558
 11
-125.923
 21
611.367
  0
LINE
  8
0
 10
-125.923
 20
611.367
 11
-125.826
 21
611.163
  0
LINE
  8
0
 10
-125.826
 20
611.163
 11
-125.757
 21
610.948
  0
LINE
  8
0
 10
-125.757
 20
610.948
 11
-125.714
 21
610.726
  0
LINE
  8
0
 10
-125.714
 20
610.726
 11
-125.7
 21
610.5
  0
LINE
  8
0
 10
-125.7
 20
610.5
 11
-125.714
 21
610.274
  0
LINE
  8
0
 10
-125.714
 20
610.274
 11
-125.757
 21
610.052
  0
LINE
  8
0
 10
-125.757
 20
610.052
 11
-125.826
 21
609.837
  0
LINE
  8
0
 10
-125.826
 20
609.837
 11
-125.923
 21
609.633
  0
LINE
  8
0
 10
-125.923
 20
609.633
 11
-126.044
 21
609.442
  0
LINE
  8
0
 10
-126.044
 20
609.442
 11
-126.188
 21
609.268
  0
LINE
  8
0
 10
-126.188
 20
609.268
 11
-126.353
 21
609.113
  0
LINE
  8
0
 10
-126.353
 20
609.113
 11
-126.536
 21
608.98
  0
LINE
  8
0
 10
-126.536
 20
608.98
 11
-126.734
 21
608.871
  0
LINE
  8
0
 10
-126.734
 20
608.871
 11
-126.944
 21
608.788
  0
LINE
  8
0
 10
-126.944
 20
608.788
 11
-127.163
 21
608.732
  0
LINE
  8
0
 10
-127.163
 20
608.732
 11
-127.387
 21
608.704
  0
LINE
  8
0
 10
-127.387
 20
608.704
 11
-127.613
 21
608.704
  0
LINE
  8
0
 10
127.387
 20
608.704
 11
127.163
 21
608.732
  0
LINE
  8
0
 10
127.163
 20
608.732
 11
126.944
 21
608.788
  0
LINE
  8
0
 10
126.944
 20
608.788
 11
126.734
 21
608.871
  0
LINE
  8
0
 10
126.734
 20
608.871
 11
126.536
 21
608.98
  0
LINE
  8
0
 10
126.536
 20
608.98
 11
126.353
 21
609.113
  0
LINE
  8
0
 10
126.353
 20
609.113
 11
126.188
 21
609.268
  0
LINE
  8
0
 10
126.188
 20
609.268
 11
126.044
 21
609.442
  0
LINE
  8
0
 10
126.044
 20
609.442
 11
125.923
 21
609.633
  0
LINE
  8
0
 10
125.923
 20
609.633
 11
125.826
 21
609.837
  0
LINE
  8
0
 10
125.826
 20
609.837
 11
125.757
 21
610.052
  0
LINE
  8
0
 10
125.757
 20
610.052
 11
125.714
 21
610.274
  0
LINE
  8
0
 10
125.714
 20
610.274
 11
125.7
 21
610.5
  0
LINE
  8
0
 10
125.7
 20
610.5
 11
125.714
 21
610.726
  0
LINE
  8
0
 10
125.714
 20
610.726
 11
125.757
 21
610.948
  0
LINE
  8
0
 10
125.757
 20
610.948
 11
125.826
 21
611.163
  0
LINE
  8
0
 10
125.826
 20
611.163
 11
125.923
 21
611.367
  0
LINE
  8
0
 10
125.923
 20
611.367
 11
126.044
 21
611.558
  0
LINE
  8
0
 10
126.044
 20
611.558
 11
126.188
 21
611.732
  0
LINE
  8
0
 10
126.188
 20
611.732
 11
126.353
 21
611.887
  0
LINE
  8
0
 10
126.353
 20
611.887
 11
126.536
 21
612.02
  0
LINE
  8
0
 10
126.536
 20
612.02
 11
126.734
 21
612.129
  0
LINE
  8
0
 10
126.734
 20
612.129
 11
126.944
 21
612.212
  0
LINE
  8
0
 10
126.944
 20
612.212
 11
127.163
 21
612.268
  0
LINE
  8
0
 10
127.163
 20
612.268
 11
127.387
 21
612.296
  0
LINE
  8
0
 10
127.387
 20
612.296
 11
127.613
 21
612.296
  0
LINE
  8
0
 10
127.613
 20
612.296
 11
127.837
 21
612.268
  0
LINE
  8
0
 10
127.837
 20
612.268
 11
128.056
 21
612.212
  0
LINE
  8
0
 10
128.056
 20
612.212
 11
128.266
 21
612.129
  0
LINE
  8
0
 10
128.266
 20
612.129
 11
128.464
 21
612.02
  0
LINE
  8
0
 10
128.464
 20
612.02
 11
128.647
 21
611.887
  0
LINE
  8
0
 10
128.647
 20
611.887
 11
128.812
 21
611.732
  0
LINE
  8
0
 10
128.812
 20
611.732
 11
128.956
 21
611.558
  0
LINE
  8
0
 10
128.956
 20
611.558
 11
129.077
 21
611.367
  0
LINE
  8
0
 10
129.077
 20
611.367
 11
129.174
 21
611.163
  0
LINE
  8
0
 10
129.174
 20
611.163
 11
129.243
 21
610.948
  0
LINE
  8
0
 10
129.243
 20
610.948
 11
129.286
 21
610.726
  0
LINE
  8
0
 10
129.286
 20
610.726
 11
129.3
 21
610.5
  0
LINE
  8
0
 10
129.3
 20
610.5
 11
129.286
 21
610.274
  0
LINE
  8
0
 10
129.286
 20
610.274
 11
129.243
 21
610.052
  0
LINE
  8
0
 10
129.243
 20
610.052
 11
129.174
 21
609.837
  0
LINE
  8
0
 10
129.174
 20
609.837
 11
129.077
 21
609.633
  0
LINE
  8
0
 10
129.077
 20
609.633
 11
128.956
 21
609.442
  0
LINE
  8
0
 10
128.956
 20
609.442
 11
128.812
 21
609.268
  0
LINE
  8
0
 10
128.812
 20
609.268
 11
128.647
 21
609.113
  0
LINE
  8
0
 10
128.647
 20
609.113
 11
128.464
 21
608.98
  0
LINE
  8
0
 10
128.464
 20
608.98
 11
128.266
 21
608.871
  0
LINE
  8
0
 10
128.266
 20
608.871
 11
128.056
 21
608.788
  0
LINE
  8
0
 10
128.056
 20
608.788
 11
127.837
 21
608.732
  0
LINE
  8
0
 10
127.837
 20
608.732
 11
127.613
 21
608.704
  0
LINE
  8
0
 10
127.613
 20
608.704
 11
127.387
 21
608.704
  0
LINE
  8
0
 10
127.387
 20
383.704
 11
127.163
 21
383.732
  0
LINE
  8
0
 10
127.163
 20
383.732
 11
126.944
 21
383.788
  0
LINE
  8
0
 10
126.944
 20
383.788
 11
126.734
 21
383.871
  0
LINE
  8
0
 10
126.734
 20
383.871
 11
126.536
 21
383.98
  0
LINE
  8
0
 10
126.536
 20
383.98
 11
126.353
 21
384.113
  0
LINE
  8
0
 10
126.353
 20
384.113
 11
126.188
 21
384.268
  0
LINE
  8
0
 10
126.188
 20
384.268
 11
126.044
 21
384.442
  0
LINE
  8
0
 10
126.044
 20
384.442
 11
125.923
 21
384.633
  0
LINE
  8
0
 10
125.923
 20
384.633
 11
125.826
 21
384.837
  0
LINE
  8
0
 10
125.826
 20
384.837
 11
125.757
 21
385.052
  0
LINE
  8
0
 10
125.757
 20
385.052
 11
125.714
 21
385.274
  0
LINE
  8
0
 10
125.714
 20
385.274
 11
125.7
 21
385.5
  0
LINE
  8
0
 10
125.7
 20
385.5
 11
125.714
 21
385.726
  0
LINE
  8
0
 10
125.714
 20
385.726
 11
125.757
 21
385.948
  0
LINE
  8
0
 10
125.757
 20
385.948
 11
125.826
 21
386.163
  0
LINE
  8
0
 10
125.826
 20
386.163
 11
125.923
 21
386.367
  0
LINE
  8
0
 10
125.923
 20
386.367
 11
126.044
 21
386.558
  0
LINE
  8
0
 10
126.044
 20
386.558
 11
126.188
 21
386.732
  0
LINE
  8
0
 10
126.188
 20
386.732
 11
126.353
 21
386.887
  0
LINE
  8
0
 10
126.353
 20
386.887
 11
126.536
 21
387.02
  0
LINE
  8
0
 10
126.536
 20
387.02
 11
126.734
 21
387.129
  0
LINE
  8
0
 10
126.734
 20
387.129
 11
126.944
 21
387.212
  0
LINE
  8
0
 10
126.944
 20
387.212
 11
127.163
 21
387.268
  0
LINE
  8
0
 10
127.163
 20
387.268
 11
127.387
 21
387.296
  0
LINE
  8
0
 10
127.387
 20
387.296
 11
127.613
 21
387.296
  0
LINE
  8
0
 10
127.613
 20
387.296
 11
127.837
 21
387.268
  0
LINE
  8
0
 10
127.837
 20
387.268
 11
128.056
 21
387.212
  0
LINE
  8
0
 10
128.056
 20
387.212
 11
128.266
 21
387.129
  0
LINE
  8
0
 10
128.266
 20
387.129
 11
128.464
 21
387.02
  0
LINE
  8
0
 10
128.464
 20
387.02
 11
128.647
 21
386.887
  0
LINE
  8
0
 10
128.647
 20
386.887
 11
128.812
 21
386.732
  0
LINE
  8
0
 10
128.812
 20
386.732
 11
128.956
 21
386.558
  0
LINE
  8
0
 10
128.956
 20
386.558
 11
129.077
 21
386.367
  0
LINE
  8
0
 10
129.077
 20
386.367
 11
129.174
 21
386.163
  0
LINE
  8
0
 10
129.174
 20
386.163
 11
129.243
 21
385.948
  0
LINE
  8
0
 10
129.243
 20
385.948
 11
129.286
 21
385.726
  0
LINE
  8
0
 10
129.286
 20
385.726
 11
129.3
 21
385.5
  0
LINE
  8
0
 10
129.3
 20
385.5
 11
129.286
 21
385.274
  0
LINE
  8
0
 10
129.286
 20
385.274
 11
129.243
 21
385.052
  0
LINE
  8
0
 10
129.243
 20
385.052
 11
129.174
 21
384.837
  0
LINE
  8
0
 10
129.174
 20
384.837
 11
129.077
 21
384.633
  0
LINE
  8
0
 10
129.077
 20
384.633
 11
128.956
 21
384.442
  0
LINE
  8
0
 10
128.956
 20
384.442
 11
128.812
 21
384.268
  0
LINE
  8
0
 10
128.812
 20
384.268
 11
128.647
 21
384.113
  0
LINE
  8
0
 10
128.647
 20
384.113
 11
128.464
 21
383.98
  0
LINE
  8
0
 10
128.464
 20
383.98
 11
128.266
 21
383.871
  0
LINE
  8
0
 10
128.266
 20
383.871
 11
128.056
 21
383.788
  0
LINE
  8
0
 10
128.056
 20
383.788
 11
127.837
 21
383.732
  0
LINE
  8
0
 10
127.837
 20
383.732
 11
127.613
 21
383.704
  0
LINE
  8
0
 10
127.613
 20
383.704
 11
127.387
 21
383.704
  0
LINE
  8
0
 10
-127.613
 20
383.704
 11
-127.837
 21
383.732
  0
LINE
  8
0
 10
-127.837
 20
383.732
 11
-128.056
 21
383.788
  0
LINE
  8
0
 10
-128.056
 20
383.788
 11
-128.266
 21
383.871
  0
LINE
  8
0
 10
-128.266
 20
383.871
 11
-128.464
 21
383.98
  0
LINE
  8
0
 10
-128.464
 20
383.98
 11
-128.647
 21
384.113
  0
LINE
  8
0
 10
-128.647
 20
384.113
 11
-128.812
 21
384.268
  0
LINE
  8
0
 10
-128.812
 20
384.268
 11
-128.956
 21
384.442
  0
LINE
  8
0
 10
-128.956
 20
384.442
 11
-129.077
 21
384.633
  0
LINE
  8
0
 10
-129.077
 20
384.633
 11
-129.174
 21
384.837
  0
LINE
  8
0
 10
-129.174
 20
384.837
 11
-129.243
 21
385.052
  0
LINE
  8
0
 10
-129.243
 20
385.052
 11
-129.286
 21
385.274
  0
LINE
  8
0
 10
-129.286
 20
385.274
 11
-129.3
 21
385.5
  0
LINE
  8
0
 10
-129.3
 20
385.5
 11
-129.286
 21
385.726
  0
LINE
  8
0
 10
-129.286
 20
385.726
 11
-129.243
 21
385.948
  0
LINE
  8
0
 10
-129.243
 20
385.948
 11
-129.174
 21
386.163
  0
LINE
  8
0
 10
-129.174
 20
386.163
 11
-129.077
 21
386.367
  0
LINE
  8
0
 10
-129.077
 20
386.367
 11
-128.956
 21
386.558
  0
LINE
  8
0
 10
-128.956
 20
386.558
 11
-128.812
 21
386.732
  0
LINE
  8
0
 10
-128.812
 20
386.732
 11
-128.647
 21
386.887
  0
LINE
  8
0
 10
-128.647
 20
386.887
 11
-128.464
 21
387.02
  0
LINE
  8
0
 10
-128.464
 20
387.02
 11
-128.266
 21
387.129
  0
LINE
  8
0
 10
-128.266
 20
387.129
 11
-128.056
 21
387.212
  0
LINE
  8
0
 10
-128.056
 20
387.212
 11
-127.837
 21
387.268
  0
LINE
  8
0
 10
-127.837
 20
387.268
 11
-127.613
 21
387.296
  0
LINE
  8
0
 10
-127.613
 20
387.296
 11
-127.387
 21
387.296
  0
LINE
  8
0
 10
-127.387
 20
387.296
 11
-127.163
 21
387.268
  0
LINE
  8
0
 10
-127.163
 20
387.268
 11
-126.944
 21
387.212
  0
LINE
  8
0
 10
-126.944
 20
387.212
 11
-126.734
 21
387.129
  0
LINE
  8
0
 10
-126.734
 20
387.129
 11
-126.536
 21
387.02
  0
LINE
  8
0
 10
-126.536
 20
387.02
 11
-126.353
 21
386.887
  0
LINE
  8
0
 10
-126.353
 20
386.887
 11
-126.188
 21
386.732
  0
LINE
  8
0
 10
-126.188
 20
386.732
 11
-126.044
 21
386.558
  0
LINE
  8
0
 10
-126.044
 20
386.558
 11
-125.923
 21
386.367
  0
LINE
  8
0
 10
-125.923
 20
386.367
 11
-125.826
 21
386.163
  0
LINE
  8
0
 10
-125.826
 20
386.163
 11
-125.757
 21
385.948
  0
LINE
  8
0
 10
-125.757
 20
385.948
 11
-125.714
 21
385.726
  0
LINE
  8
0
 10
-125.714
 20
385.726
 11
-125.7
 21
385.5
  0
LINE
  8
0
 10
-125.7
 20
385.5
 11
-125.714
 21
385.274
  0
LINE
  8
0
 10
-125.714
 20
385.274
 11
-125.757
 21
385.052
  0
LINE
  8
0
 10
-125.757
 20
385.052
 11
-125.826
 21
384.837
  0
LINE
  8
0
 10
-125.826
 20
384.837
 11
-125.923
 21
384.633
  0
LINE
  8
0
 10
-125.923
 20
384.633
 11
-126.044
 21
384.442
  0
LINE
  8
0
 10
-126.044
 20
384.442
 11
-126.188
 21
384.268
  0
LINE
  8
0
 10
-126.188
 20
384.268
 11
-126.353
 21
384.113
  0
LINE
  8
0
 10
-126.353
 20
384.113
 11
-126.536
 21
383.98
  0
LINE
  8
0
 10
-126.536
 20
383.98
 11
-126.734
 21
383.871
  0
LINE
  8
0
 10
-126.734
 20
383.871
 11
-126.944
 21
383.788
  0
LINE
  8
0
 10
-126.944
 20
383.788
 11
-127.163
 21
383.732
  0
LINE
  8
0
 10
-127.163
 20
383.732
 11
-127.387
 21
383.704
  0
LINE
  8
0
 10
-127.387
 20
383.704
 11
-127.613
 21
383.704
  0
ENDSEC
  0
SECTION
  2
OBJECTS
  0
DICTIONARY
  0
ENDSEC
  0
EOF
