<?xml version="1.0" standalone="no"?>
<!DOCTYPE svg PUBLIC "-//W3C//DTD SVG 1.1//EN" "http://www.w3.org/Graphics/SVG/1.1/DTD/svg11.dtd">
<svg width="272mm" height="429mm" viewBox="-137 -543 272 429" xmlns="http://www.w3.org/2000/svg" version="1.1">
<title>OpenSCAD Model</title>
<path d="
M 130.937,-333.089 L 131.545,-333.245 L 132.129,-333.476 L 132.679,-333.778 L 133.187,-334.147 L 133.645,-334.577
 L 134.045,-335.061 L 134.382,-335.591 L 134.649,-336.159 L 134.843,-336.757 L 134.961,-337.373 L 135,-338
 L 135,-538 L 134.961,-538.627 L 134.843,-539.243 L 134.649,-539.841 L 134.382,-540.409 L 134.045,-540.939
 L 133.645,-541.423 L 133.187,-541.853 L 132.679,-542.222 L 132.129,-542.524 L 131.545,-542.755 L 130.937,-542.911
 L 130.314,-542.99 L -130.314,-542.99 L -130.937,-542.911 L -131.545,-542.755 L -132.129,-542.524 L -132.679,-542.222
 L -133.187,-541.853 L -133.5,-541.559 L -133.5,-542.615 L -136.5,-542.615 L -136.5,-333.385 L -133.5,-333.385
 L -133.5,-334.441 L -133.187,-334.147 L -132.679,-333.778 L -132.129,-333.476 L -131.545,-333.245 L -130.937,-333.089
 L -130.314,-333.01 L 130.314,-333.01 z
M -127.651,-533.105 L -127.95,-533.143 L -128.242,-533.217 L -128.522,-533.328 L -128.786,-533.474 L -129.03,-533.651
 L -129.25,-533.857 L -129.442,-534.089 L -129.603,-534.344 L -129.731,-534.617 L -129.825,-534.903 L -129.881,-535.199
 L -129.9,-535.5 L -129.881,-535.801 L -129.825,-536.097 L -129.731,-536.383 L -129.603,-536.656 L -129.442,-536.911
 L -129.25,-537.143 L -129.03,-537.349 L -128.786,-537.526 L -128.522,-537.672 L -128.242,-537.783 L -127.95,-537.857
 L -127.651,-537.895 L -127.349,-537.895 L -127.05,-537.857 L -126.758,-537.783 L -126.478,-537.672 L -126.214,-537.526
 L -125.97,-537.349 L -125.75,-537.143 L -125.558,-536.911 L -125.397,-536.656 L -125.269,-536.383 L -125.175,-536.097
 L -125.119,-535.801 L -125.1,-535.5 L -125.119,-535.199 L -125.175,-534.903 L -125.269,-534.617 L -125.397,-534.344
 L -125.558,-534.089 L -125.75,-533.857 L -125.97,-533.651 L -126.214,-533.474 L -126.478,-533.328 L -126.758,-533.217
 L -127.05,-533.143 L -127.349,-533.105 z
M 127.349,-533.105 L 127.05,-533.143 L 126.758,-533.217 L 126.478,-533.328 L 126.214,-533.474 L 125.97,-533.651
 L 125.75,-533.857 L 125.558,-534.089 L 125.397,-534.344 L 125.269,-534.617 L 125.175,-534.903 L 125.119,-535.199
 L 125.1,-535.5 L 125.119,-535.801 L 125.175,-536.097 L 125.269,-536.383 L 125.397,-536.656 L 125.558,-536.911
 L 125.75,-537.143 L 125.97,-537.349 L 126.214,-537.526 L 126.478,-537.672 L 126.758,-537.783 L 127.05,-537.857
 L 127.349,-537.895 L 127.651,-537.895 L 127.95,-537.857 L 128.242,-537.783 L 128.522,-537.672 L 128.786,-537.526
 L 129.03,-537.349 L 129.25,-537.143 L 129.442,-536.911 L 129.603,-536.656 L 129.731,-536.383 L 129.825,-536.097
 L 129.881,-535.801 L 129.9,-535.5 L 129.881,-535.199 L 129.825,-534.903 L 129.731,-534.617 L 129.603,-534.344
 L 129.442,-534.089 L 129.25,-533.857 L 129.03,-533.651 L 128.786,-533.474 L 128.522,-533.328 L 128.242,-533.217
 L 127.95,-533.143 L 127.651,-533.105 z
M 127.349,-338.105 L 127.05,-338.143 L 126.758,-338.217 L 126.478,-338.328 L 126.214,-338.474 L 125.97,-338.651
 L 125.75,-338.857 L 125.558,-339.089 L 125.397,-339.344 L 125.269,-339.617 L 125.175,-339.903 L 125.119,-340.199
 L 125.1,-340.5 L 125.119,-340.801 L 125.175,-341.097 L 125.269,-341.383 L 125.397,-341.656 L 125.558,-341.911
 L 125.75,-342.143 L 125.97,-342.349 L 126.214,-342.526 L 126.478,-342.672 L 126.758,-342.783 L 127.05,-342.857
 L 127.349,-342.895 L 127.651,-342.895 L 127.95,-342.857 L 128.242,-342.783 L 128.522,-342.672 L 128.786,-342.526
 L 129.03,-342.349 L 129.25,-342.143 L 129.442,-341.911 L 129.603,-341.656 L 129.731,-341.383 L 129.825,-341.097
 L 129.881,-340.801 L 129.9,-340.5 L 129.881,-340.199 L 129.825,-339.903 L 129.731,-339.617 L 129.603,-339.344
 L 129.442,-339.089 L 129.25,-338.857 L 129.03,-338.651 L 128.786,-338.474 L 128.522,-338.328 L 128.242,-338.217
 L 127.95,-338.143 L 127.651,-338.105 z
M -127.651,-338.105 L -127.95,-338.143 L -128.242,-338.217 L -128.522,-338.328 L -128.786,-338.474 L -129.03,-338.651
 L -129.25,-338.857 L -129.442,-339.089 L -129.603,-339.344 L -129.731,-339.617 L -129.825,-339.903 L -129.881,-340.199
 L -129.9,-340.5 L -129.881,-340.801 L -129.825,-341.097 L -129.731,-341.383 L -129.603,-341.656 L -129.442,-341.911
 L -129.25,-342.143 L -129.03,-342.349 L -128.786,-342.526 L -128.522,-342.672 L -128.242,-342.783 L -127.95,-342.857
 L -127.651,-342.895 L -127.349,-342.895 L -127.05,-342.857 L -126.758,-342.783 L -126.478,-342.672 L -126.214,-342.526
 L -125.97,-342.349 L -125.75,-342.143 L -125.558,-341.911 L -125.397,-341.656 L -125.269,-341.383 L -125.175,-341.097
 L -125.119,-340.801 L -125.1,-340.5 L -125.119,-340.199 L -125.175,-339.903 L -125.269,-339.617 L -125.397,-339.344
 L -125.558,-339.089 L -125.75,-338.857 L -125.97,-338.651 L -126.214,-338.474 L -126.478,-338.328 L -126.758,-338.217
 L -127.05,-338.143 L -127.349,-338.105 z
M 130.937,-114.089 L 131.545,-114.245 L 132.129,-114.476 L 132.679,-114.778 L 133.187,-115.147 L 133.645,-115.577
 L 134.045,-116.061 L 134.382,-116.591 L 134.649,-117.159 L 134.843,-117.757 L 134.961,-118.373 L 135,-119
 L 135,-319 L 134.961,-319.627 L 134.843,-320.243 L 134.649,-320.841 L 134.382,-321.409 L 134.045,-321.939
 L 133.645,-322.423 L 133.187,-322.853 L 132.679,-323.222 L 132.129,-323.524 L 131.545,-323.755 L 130.937,-323.911
 L 130.314,-323.99 L -130.314,-323.99 L -130.937,-323.911 L -131.545,-323.755 L -132.129,-323.524 L -132.679,-323.222
 L -133.187,-322.853 L -133.645,-322.423 L -134.045,-321.939 L -134.382,-321.409 L -134.649,-320.841 L -134.843,-320.243
 L -134.9,-319.944 L -136.5,-319.944 L -136.5,-118.056 L -134.9,-118.056 L -134.843,-117.757 L -134.649,-117.159
 L -134.382,-116.591 L -134.045,-116.061 L -133.645,-115.577 L -133.187,-115.147 L -132.679,-114.778 L -132.129,-114.476
 L -131.545,-114.245 L -130.937,-114.089 L -130.314,-114.01 L 130.314,-114.01 z
M 127.387,-314.704 L 127.163,-314.732 L 126.944,-314.788 L 126.734,-314.871 L 126.536,-314.98 L 126.353,-315.113
 L 126.188,-315.268 L 126.044,-315.442 L 125.923,-315.633 L 125.826,-315.837 L 125.757,-316.052 L 125.714,-316.274
 L 125.7,-316.5 L 125.714,-316.726 L 125.757,-316.948 L 125.826,-317.163 L 125.923,-317.367 L 126.044,-317.558
 L 126.188,-317.732 L 126.353,-317.887 L 126.536,-318.02 L 126.734,-318.129 L 126.944,-318.212 L 127.163,-318.268
 L 127.387,-318.296 L 127.613,-318.296 L 127.837,-318.268 L 128.056,-318.212 L 128.266,-318.129 L 128.464,-318.02
 L 128.647,-317.887 L 128.812,-317.732 L 128.956,-317.558 L 129.077,-317.367 L 129.174,-317.163 L 129.243,-316.948
 L 129.286,-316.726 L 129.3,-316.5 L 129.286,-316.274 L 129.243,-316.052 L 129.174,-315.837 L 129.077,-315.633
 L 128.956,-315.442 L 128.812,-315.268 L 128.647,-315.113 L 128.464,-314.98 L 128.266,-314.871 L 128.056,-314.788
 L 127.837,-314.732 L 127.613,-314.704 z
M -127.613,-314.704 L -127.837,-314.732 L -128.056,-314.788 L -128.266,-314.871 L -128.464,-314.98 L -128.647,-315.113
 L -128.812,-315.268 L -128.956,-315.442 L -129.077,-315.633 L -129.174,-315.837 L -129.243,-316.052 L -129.286,-316.274
 L -129.3,-316.5 L -129.286,-316.726 L -129.243,-316.948 L -129.174,-317.163 L -129.077,-317.367 L -128.956,-317.558
 L -128.812,-317.732 L -128.647,-317.887 L -128.464,-318.02 L -128.266,-318.129 L -128.056,-318.212 L -127.837,-318.268
 L -127.613,-318.296 L -127.387,-318.296 L -127.163,-318.268 L -126.944,-318.212 L -126.734,-318.129 L -126.536,-318.02
 L -126.353,-317.887 L -126.188,-317.732 L -126.044,-317.558 L -125.923,-317.367 L -125.826,-317.163 L -125.757,-316.948
 L -125.714,-316.726 L -125.7,-316.5 L -125.714,-316.274 L -125.757,-316.052 L -125.826,-315.837 L -125.923,-315.633
 L -126.044,-315.442 L -126.188,-315.268 L -126.353,-315.113 L -126.536,-314.98 L -126.734,-314.871 L -126.944,-314.788
 L -127.163,-314.732 L -127.387,-314.704 z
M 127.387,-119.704 L 127.163,-119.732 L 126.944,-119.788 L 126.734,-119.871 L 126.536,-119.98 L 126.353,-120.113
 L 126.188,-120.268 L 126.044,-120.442 L 125.923,-120.633 L 125.826,-120.837 L 125.757,-121.052 L 125.714,-121.274
 L 125.7,-121.5 L 125.714,-121.726 L 125.757,-121.948 L 125.826,-122.163 L 125.923,-122.367 L 126.044,-122.558
 L 126.188,-122.732 L 126.353,-122.887 L 126.536,-123.02 L 126.734,-123.129 L 126.944,-123.212 L 127.163,-123.268
 L 127.387,-123.296 L 127.613,-123.296 L 127.837,-123.268 L 128.056,-123.212 L 128.266,-123.129 L 128.464,-123.02
 L 128.647,-122.887 L 128.812,-122.732 L 128.956,-122.558 L 129.077,-122.367 L 129.174,-122.163 L 129.243,-121.948
 L 129.286,-121.726 L 129.3,-121.5 L 129.286,-121.274 L 129.243,-121.052 L 129.174,-120.837 L 129.077,-120.633
 L 128.956,-120.442 L 128.812,-120.268 L 128.647,-120.113 L 128.464,-119.98 L 128.266,-119.871 L 128.056,-119.788
 L 127.837,-119.732 L 127.613,-119.704 z
M -127.613,-119.704 L -127.837,-119.732 L -128.056,-119.788 L -128.266,-119.871 L -128.464,-119.98 L -128.647,-120.113
 L -128.812,-120.268 L -128.956,-120.442 L -129.077,-120.633 L -129.174,-120.837 L -129.243,-121.052 L -129.286,-121.274
 L -129.3,-121.5 L -129.286,-121.726 L -129.243,-121.948 L -129.174,-122.163 L -129.077,-122.367 L -128.956,-122.558
 L -128.812,-122.732 L -128.647,-122.887 L -128.464,-123.02 L -128.266,-123.129 L -128.056,-123.212 L -127.837,-123.268
 L -127.613,-123.296 L -127.387,-123.296 L -127.163,-123.268 L -126.944,-123.212 L -126.734,-123.129 L -126.536,-123.02
 L -126.353,-122.887 L -126.188,-122.732 L -126.044,-122.558 L -125.923,-122.367 L -125.826,-122.163 L -125.757,-121.948
 L -125.714,-121.726 L -125.7,-121.5 L -125.714,-121.274 L -125.757,-121.052 L -125.826,-120.837 L -125.923,-120.633
 L -126.044,-120.442 L -126.188,-120.268 L -126.353,-120.113 L -126.536,-119.98 L -126.734,-119.871 L -126.944,-119.788
 L -127.163,-119.732 L -127.387,-119.704 z
" stroke="black" fill="lightgray" stroke-width="0.5"/>
</svg>
