<?xml version="1.0" standalone="no"?>
<!DOCTYPE svg PUBLIC "-//W3C//DTD SVG 1.1//EN" "http://www.w3.org/Graphics/SVG/1.1/DTD/svg11.dtd">
<svg width="272mm" height="220mm" viewBox="-137 -281 272 220" xmlns="http://www.w3.org/2000/svg" version="1.1">
<title>OpenSCAD Model</title>
<path d="
M 130.937,-175.589 L 131.545,-175.745 L 132.129,-175.976 L 132.679,-176.278 L 133.187,-176.647 L 133.645,-177.077
 L 134.045,-177.561 L 134.382,-178.091 L 134.649,-178.659 L 134.843,-179.257 L 134.961,-179.873 L 135,-180.5
 L 135,-275.5 L 134.961,-276.127 L 134.843,-276.743 L 134.649,-277.341 L 134.382,-277.909 L 134.045,-278.439
 L 133.645,-278.923 L 133.187,-279.353 L 132.679,-279.722 L 132.129,-280.024 L 131.545,-280.255 L 130.937,-280.411
 L 130.314,-280.49 L -130.314,-280.49 L -130.937,-280.411 L -131.545,-280.255 L -132.129,-280.024 L -132.679,-279.722
 L -133.187,-279.353 L -133.5,-279.059 L -133.5,-280.115 L -136.5,-280.115 L -136.5,-175.885 L -133.5,-175.885
 L -133.5,-176.941 L -133.187,-176.647 L -132.679,-176.278 L -132.129,-175.976 L -131.545,-175.745 L -130.937,-175.589
 L -130.314,-175.51 L 130.314,-175.51 z
M -127.651,-270.605 L -127.95,-270.643 L -128.242,-270.717 L -128.522,-270.828 L -128.786,-270.974 L -129.03,-271.151
 L -129.25,-271.357 L -129.442,-271.589 L -129.603,-271.844 L -129.731,-272.117 L -129.825,-272.403 L -129.881,-272.699
 L -129.9,-273 L -129.881,-273.301 L -129.825,-273.597 L -129.731,-273.883 L -129.603,-274.156 L -129.442,-274.411
 L -129.25,-274.643 L -129.03,-274.849 L -128.786,-275.026 L -128.522,-275.172 L -128.242,-275.283 L -127.95,-275.357
 L -127.651,-275.395 L -127.349,-275.395 L -127.05,-275.357 L -126.758,-275.283 L -126.478,-275.172 L -126.214,-275.026
 L -125.97,-274.849 L -125.75,-274.643 L -125.558,-274.411 L -125.397,-274.156 L -125.269,-273.883 L -125.175,-273.597
 L -125.119,-273.301 L -125.1,-273 L -125.119,-272.699 L -125.175,-272.403 L -125.269,-272.117 L -125.397,-271.844
 L -125.558,-271.589 L -125.75,-271.357 L -125.97,-271.151 L -126.214,-270.974 L -126.478,-270.828 L -126.758,-270.717
 L -127.05,-270.643 L -127.349,-270.605 z
M 127.349,-270.605 L 127.05,-270.643 L 126.758,-270.717 L 126.478,-270.828 L 126.214,-270.974 L 125.97,-271.151
 L 125.75,-271.357 L 125.558,-271.589 L 125.397,-271.844 L 125.269,-272.117 L 125.175,-272.403 L 125.119,-272.699
 L 125.1,-273 L 125.119,-273.301 L 125.175,-273.597 L 125.269,-273.883 L 125.397,-274.156 L 125.558,-274.411
 L 125.75,-274.643 L 125.97,-274.849 L 126.214,-275.026 L 126.478,-275.172 L 126.758,-275.283 L 127.05,-275.357
 L 127.349,-275.395 L 127.651,-275.395 L 127.95,-275.357 L 128.242,-275.283 L 128.522,-275.172 L 128.786,-275.026
 L 129.03,-274.849 L 129.25,-274.643 L 129.442,-274.411 L 129.603,-274.156 L 129.731,-273.883 L 129.825,-273.597
 L 129.881,-273.301 L 129.9,-273 L 129.881,-272.699 L 129.825,-272.403 L 129.731,-272.117 L 129.603,-271.844
 L 129.442,-271.589 L 129.25,-271.357 L 129.03,-271.151 L 128.786,-270.974 L 128.522,-270.828 L 128.242,-270.717
 L 127.95,-270.643 L 127.651,-270.605 z
M 127.349,-180.605 L 127.05,-180.643 L 126.758,-180.717 L 126.478,-180.828 L 126.214,-180.974 L 125.97,-181.151
 L 125.75,-181.357 L 125.558,-181.589 L 125.397,-181.844 L 125.269,-182.117 L 125.175,-182.403 L 125.119,-182.699
 L 125.1,-183 L 125.119,-183.301 L 125.175,-183.597 L 125.269,-183.883 L 125.397,-184.156 L 125.558,-184.411
 L 125.75,-184.643 L 125.97,-184.849 L 126.214,-185.026 L 126.478,-185.172 L 126.758,-185.283 L 127.05,-185.357
 L 127.349,-185.395 L 127.651,-185.395 L 127.95,-185.357 L 128.242,-185.283 L 128.522,-185.172 L 128.786,-185.026
 L 129.03,-184.849 L 129.25,-184.643 L 129.442,-184.411 L 129.603,-184.156 L 129.731,-183.883 L 129.825,-183.597
 L 129.881,-183.301 L 129.9,-183 L 129.881,-182.699 L 129.825,-182.403 L 129.731,-182.117 L 129.603,-181.844
 L 129.442,-181.589 L 129.25,-181.357 L 129.03,-181.151 L 128.786,-180.974 L 128.522,-180.828 L 128.242,-180.717
 L 127.95,-180.643 L 127.651,-180.605 z
M -127.651,-180.605 L -127.95,-180.643 L -128.242,-180.717 L -128.522,-180.828 L -128.786,-180.974 L -129.03,-181.151
 L -129.25,-181.357 L -129.442,-181.589 L -129.603,-181.844 L -129.731,-182.117 L -129.825,-182.403 L -129.881,-182.699
 L -129.9,-183 L -129.881,-183.301 L -129.825,-183.597 L -129.731,-183.883 L -129.603,-184.156 L -129.442,-184.411
 L -129.25,-184.643 L -129.03,-184.849 L -128.786,-185.026 L -128.522,-185.172 L -128.242,-185.283 L -127.95,-185.357
 L -127.651,-185.395 L -127.349,-185.395 L -127.05,-185.357 L -126.758,-185.283 L -126.478,-185.172 L -126.214,-185.026
 L -125.97,-184.849 L -125.75,-184.643 L -125.558,-184.411 L -125.397,-184.156 L -125.269,-183.883 L -125.175,-183.597
 L -125.119,-183.301 L -125.1,-183 L -125.119,-182.699 L -125.175,-182.403 L -125.269,-182.117 L -125.397,-181.844
 L -125.558,-181.589 L -125.75,-181.357 L -125.97,-181.151 L -126.214,-180.974 L -126.478,-180.828 L -126.758,-180.717
 L -127.05,-180.643 L -127.349,-180.605 z
M 130.937,-61.5886 L 131.545,-61.7447 L 132.129,-61.9759 L 132.679,-62.2784 L 133.187,-62.6474 L 133.645,-63.0773
 L 134.045,-63.5611 L 134.382,-64.0912 L 134.649,-64.6594 L 134.843,-65.2566 L 134.961,-65.8733 L 135,-66.5
 L 135,-161.5 L 134.961,-162.127 L 134.843,-162.743 L 134.649,-163.341 L 134.382,-163.909 L 134.045,-164.439
 L 133.645,-164.923 L 133.187,-165.353 L 132.679,-165.722 L 132.129,-166.024 L 131.545,-166.255 L 130.937,-166.411
 L 130.314,-166.49 L -130.314,-166.49 L -130.937,-166.411 L -131.545,-166.255 L -132.129,-166.024 L -132.679,-165.722
 L -133.187,-165.353 L -133.645,-164.923 L -134.045,-164.439 L -134.382,-163.909 L -134.649,-163.341 L -134.843,-162.743
 L -134.9,-162.444 L -136.5,-162.444 L -136.5,-65.5558 L -134.9,-65.5558 L -134.843,-65.2566 L -134.649,-64.6594
 L -134.382,-64.0912 L -134.045,-63.5611 L -133.645,-63.0773 L -133.187,-62.6474 L -132.679,-62.2784 L -132.129,-61.9759
 L -131.545,-61.7447 L -130.937,-61.5886 L -130.314,-61.5099 L 130.314,-61.5099 z
M 127.387,-157.204 L 127.163,-157.232 L 126.944,-157.288 L 126.734,-157.371 L 126.536,-157.48 L 126.353,-157.613
 L 126.188,-157.768 L 126.044,-157.942 L 125.923,-158.133 L 125.826,-158.337 L 125.757,-158.552 L 125.714,-158.774
 L 125.7,-159 L 125.714,-159.226 L 125.757,-159.448 L 125.826,-159.663 L 125.923,-159.867 L 126.044,-160.058
 L 126.188,-160.232 L 126.353,-160.387 L 126.536,-160.52 L 126.734,-160.629 L 126.944,-160.712 L 127.163,-160.768
 L 127.387,-160.796 L 127.613,-160.796 L 127.837,-160.768 L 128.056,-160.712 L 128.266,-160.629 L 128.464,-160.52
 L 128.647,-160.387 L 128.812,-160.232 L 128.956,-160.058 L 129.077,-159.867 L 129.174,-159.663 L 129.243,-159.448
 L 129.286,-159.226 L 129.3,-159 L 129.286,-158.774 L 129.243,-158.552 L 129.174,-158.337 L 129.077,-158.133
 L 128.956,-157.942 L 128.812,-157.768 L 128.647,-157.613 L 128.464,-157.48 L 128.266,-157.371 L 128.056,-157.288
 L 127.837,-157.232 L 127.613,-157.204 z
M -127.613,-157.204 L -127.837,-157.232 L -128.056,-157.288 L -128.266,-157.371 L -128.464,-157.48 L -128.647,-157.613
 L -128.812,-157.768 L -128.956,-157.942 L -129.077,-158.133 L -129.174,-158.337 L -129.243,-158.552 L -129.286,-158.774
 L -129.3,-159 L -129.286,-159.226 L -129.243,-159.448 L -129.174,-159.663 L -129.077,-159.867 L -128.956,-160.058
 L -128.812,-160.232 L -128.647,-160.387 L -128.464,-160.52 L -128.266,-160.629 L -128.056,-160.712 L -127.837,-160.768
 L -127.613,-160.796 L -127.387,-160.796 L -127.163,-160.768 L -126.944,-160.712 L -126.734,-160.629 L -126.536,-160.52
 L -126.353,-160.387 L -126.188,-160.232 L -126.044,-160.058 L -125.923,-159.867 L -125.826,-159.663 L -125.757,-159.448
 L -125.714,-159.226 L -125.7,-159 L -125.714,-158.774 L -125.757,-158.552 L -125.826,-158.337 L -125.923,-158.133
 L -126.044,-157.942 L -126.188,-157.768 L -126.353,-157.613 L -126.536,-157.48 L -126.734,-157.371 L -126.944,-157.288
 L -127.163,-157.232 L -127.387,-157.204 z
M 127.387,-67.2036 L 127.163,-67.2319 L 126.944,-67.2881 L 126.734,-67.3713 L 126.536,-67.4802 L 126.353,-67.6131
 L 126.188,-67.7678 L 126.044,-67.942 L 125.923,-68.1328 L 125.826,-68.3374 L 125.757,-68.5524 L 125.714,-68.7744
 L 125.7,-69 L 125.714,-69.2256 L 125.757,-69.4476 L 125.826,-69.6626 L 125.923,-69.8672 L 126.044,-70.058
 L 126.188,-70.2322 L 126.353,-70.3869 L 126.536,-70.5198 L 126.734,-70.6287 L 126.944,-70.7119 L 127.163,-70.7681
 L 127.387,-70.7964 L 127.613,-70.7964 L 127.837,-70.7681 L 128.056,-70.7119 L 128.266,-70.6287 L 128.464,-70.5198
 L 128.647,-70.3869 L 128.812,-70.2322 L 128.956,-70.058 L 129.077,-69.8672 L 129.174,-69.6626 L 129.243,-69.4476
 L 129.286,-69.2256 L 129.3,-69 L 129.286,-68.7744 L 129.243,-68.5524 L 129.174,-68.3374 L 129.077,-68.1328
 L 128.956,-67.942 L 128.812,-67.7678 L 128.647,-67.6131 L 128.464,-67.4802 L 128.266,-67.3713 L 128.056,-67.2881
 L 127.837,-67.2319 L 127.613,-67.2036 z
M -127.613,-67.2036 L -127.837,-67.2319 L -128.056,-67.2881 L -128.266,-67.3713 L -128.464,-67.4802 L -128.647,-67.6131
 L -128.812,-67.7678 L -128.956,-67.942 L -129.077,-68.1328 L -129.174,-68.3374 L -129.243,-68.5524 L -129.286,-68.7744
 L -129.3,-69 L -129.286,-69.2256 L -129.243,-69.4476 L -129.174,-69.6626 L -129.077,-69.8672 L -128.956,-70.058
 L -128.812,-70.2322 L -128.647,-70.3869 L -128.464,-70.5198 L -128.266,-70.6287 L -128.056,-70.7119 L -127.837,-70.7681
 L -127.613,-70.7964 L -127.387,-70.7964 L -127.163,-70.7681 L -126.944,-70.7119 L -126.734,-70.6287 L -126.536,-70.5198
 L -126.353,-70.3869 L -126.188,-70.2322 L -126.044,-70.058 L -125.923,-69.8672 L -125.826,-69.6626 L -125.757,-69.4476
 L -125.714,-69.2256 L -125.7,-69 L -125.714,-68.7744 L -125.757,-68.5524 L -125.826,-68.3374 L -125.923,-68.1328
 L -126.044,-67.942 L -126.188,-67.7678 L -126.353,-67.6131 L -126.536,-67.4802 L -126.734,-67.3713 L -126.944,-67.2881
 L -127.163,-67.2319 L -127.387,-67.2036 z
" stroke="black" fill="lightgray" stroke-width="0.5"/>
</svg>
