  0
SECTION
  2
BLOCKS
  0
ENDSEC
  0
SECTION
  2
ENTITIES
  0
LINE
  8
0
 10
115.937
 20
265.589
 11
116.545
 21
265.745
  0
LINE
  8
0
 10
116.545
 20
265.745
 11
117.129
 21
265.976
  0
LINE
  8
0
 10
117.129
 20
265.976
 11
117.679
 21
266.278
  0
LINE
  8
0
 10
117.679
 20
266.278
 11
118.187
 21
266.647
  0
LINE
  8
0
 10
118.187
 20
266.647
 11
118.645
 21
267.077
  0
LINE
  8
0
 10
118.645
 20
267.077
 11
119.045
 21
267.561
  0
LINE
  8
0
 10
119.045
 20
267.561
 11
119.382
 21
268.091
  0
LINE
  8
0
 10
119.382
 20
268.091
 11
119.649
 21
268.659
  0
LINE
  8
0
 10
119.649
 20
268.659
 11
119.843
 21
269.257
  0
LINE
  8
0
 10
119.843
 20
269.257
 11
119.961
 21
269.873
  0
LINE
  8
0
 10
119.961
 20
269.873
 11
120
 21
270.5
  0
LINE
  8
0
 10
120
 20
270.5
 11
120
 21
425.5
  0
LINE
  8
0
 10
120
 20
425.5
 11
119.961
 21
426.127
  0
LINE
  8
0
 10
119.961
 20
426.127
 11
119.843
 21
426.743
  0
LINE
  8
0
 10
119.843
 20
426.743
 11
119.649
 21
427.341
  0
LINE
  8
0
 10
119.649
 20
427.341
 11
119.382
 21
427.909
  0
LINE
  8
0
 10
119.382
 20
427.909
 11
119.045
 21
428.439
  0
LINE
  8
0
 10
119.045
 20
428.439
 11
118.645
 21
428.923
  0
LINE
  8
0
 10
118.645
 20
428.923
 11
118.187
 21
429.353
  0
LINE
  8
0
 10
118.187
 20
429.353
 11
117.679
 21
429.722
  0
LINE
  8
0
 10
117.679
 20
429.722
 11
117.129
 21
430.024
  0
LINE
  8
0
 10
117.129
 20
430.024
 11
116.545
 21
430.255
  0
LINE
  8
0
 10
116.545
 20
430.255
 11
115.937
 21
430.411
  0
LINE
  8
0
 10
115.937
 20
430.411
 11
115.314
 21
430.49
  0
LINE
  8
0
 10
115.314
 20
430.49
 11
-115.314
 21
430.49
  0
LINE
  8
0
 10
-115.314
 20
430.49
 11
-115.937
 21
430.411
  0
LINE
  8
0
 10
-115.937
 20
430.411
 11
-116.545
 21
430.255
  0
LINE
  8
0
 10
-116.545
 20
430.255
 11
-117.129
 21
430.024
  0
LINE
  8
0
 10
-117.129
 20
430.024
 11
-117.679
 21
429.722
  0
LINE
  8
0
 10
-117.679
 20
429.722
 11
-118.187
 21
429.353
  0
LINE
  8
0
 10
-118.187
 20
429.353
 11
-118.645
 21
428.923
  0
LINE
  8
0
 10
-118.645
 20
428.923
 11
-119.045
 21
428.439
  0
LINE
  8
0
 10
-119.045
 20
428.439
 11
-119.382
 21
427.909
  0
LINE
  8
0
 10
-119.382
 20
427.909
 11
-119.649
 21
427.341
  0
LINE
  8
0
 10
-119.649
 20
427.341
 11
-119.843
 21
426.743
  0
LINE
  8
0
 10
-119.843
 20
426.743
 11
-119.961
 21
426.127
  0
LINE
  8
0
 10
-119.961
 20
426.127
 11
-120
 21
425.5
  0
LINE
  8
0
 10
-120
 20
425.5
 11
-120
 21
270.5
  0
LINE
  8
0
 10
-120
 20
270.5
 11
-119.961
 21
269.873
  0
LINE
  8
0
 10
-119.961
 20
269.873
 11
-119.843
 21
269.257
  0
LINE
  8
0
 10
-119.843
 20
269.257
 11
-119.649
 21
268.659
  0
LINE
  8
0
 10
-119.649
 20
268.659
 11
-119.382
 21
268.091
  0
LINE
  8
0
 10
-119.382
 20
268.091
 11
-119.045
 21
267.561
  0
LINE
  8
0
 10
-119.045
 20
267.561
 11
-118.645
 21
267.077
  0
LINE
  8
0
 10
-118.645
 20
267.077
 11
-118.187
 21
266.647
  0
LINE
  8
0
 10
-118.187
 20
266.647
 11
-117.679
 21
266.278
  0
LINE
  8
0
 10
-117.679
 20
266.278
 11
-117.129
 21
265.976
  0
LINE
  8
0
 10
-117.129
 20
265.976
 11
-116.545
 21
265.745
  0
LINE
  8
0
 10
-116.545
 20
265.745
 11
-115.937
 21
265.589
  0
LINE
  8
0
 10
-115.937
 20
265.589
 11
-115.314
 21
265.51
  0
LINE
  8
0
 10
-115.314
 20
265.51
 11
115.314
 21
265.51
  0
LINE
  8
0
 10
115.314
 20
265.51
 11
115.937
 21
265.589
  0
LINE
  8
0
 10
-114.993
 20
266.888
 11
-115.475
 21
266.949
  0
LINE
  8
0
 10
-115.475
 20
266.949
 11
-115.946
 21
267.07
  0
LINE
  8
0
 10
-115.946
 20
267.07
 11
-116.398
 21
267.249
  0
LINE
  8
0
 10
-116.398
 20
267.249
 11
-116.823
 21
267.483
  0
LINE
  8
0
 10
-116.823
 20
267.483
 11
-117.216
 21
267.769
  0
LINE
  8
0
 10
-117.216
 20
267.769
 11
-117.571
 21
268.101
  0
LINE
  8
0
 10
-117.571
 20
268.101
 11
-117.88
 21
268.476
  0
LINE
  8
0
 10
-117.88
 20
268.476
 11
-118.141
 21
268.886
  0
LINE
  8
0
 10
-118.141
 20
268.886
 11
-118.348
 21
269.326
  0
LINE
  8
0
 10
-118.348
 20
269.326
 11
-118.498
 21
269.788
  0
LINE
  8
0
 10
-118.498
 20
269.788
 11
-118.589
 21
270.265
  0
LINE
  8
0
 10
-118.589
 20
270.265
 11
-118.619
 21
270.75
  0
LINE
  8
0
 10
-118.619
 20
270.75
 11
-118.619
 21
425.25
  0
LINE
  8
0
 10
-118.619
 20
425.25
 11
-118.589
 21
425.735
  0
LINE
  8
0
 10
-118.589
 20
425.735
 11
-118.498
 21
426.212
  0
LINE
  8
0
 10
-118.498
 20
426.212
 11
-118.348
 21
426.674
  0
LINE
  8
0
 10
-118.348
 20
426.674
 11
-118.141
 21
427.114
  0
LINE
  8
0
 10
-118.141
 20
427.114
 11
-117.88
 21
427.524
  0
LINE
  8
0
 10
-117.88
 20
427.524
 11
-117.571
 21
427.899
  0
LINE
  8
0
 10
-117.571
 20
427.899
 11
-117.216
 21
428.231
  0
LINE
  8
0
 10
-117.216
 20
428.231
 11
-116.823
 21
428.517
  0
LINE
  8
0
 10
-116.823
 20
428.517
 11
-116.398
 21
428.751
  0
LINE
  8
0
 10
-116.398
 20
428.751
 11
-115.946
 21
428.93
  0
LINE
  8
0
 10
-115.946
 20
428.93
 11
-115.475
 21
429.051
  0
LINE
  8
0
 10
-115.475
 20
429.051
 11
-114.993
 21
429.112
  0
LINE
  8
0
 10
-114.993
 20
429.112
 11
114.993
 21
429.112
  0
LINE
  8
0
 10
114.993
 20
429.112
 11
115.475
 21
429.051
  0
LINE
  8
0
 10
115.475
 20
429.051
 11
115.946
 21
428.93
  0
LINE
  8
0
 10
115.946
 20
428.93
 11
116.398
 21
428.751
  0
LINE
  8
0
 10
116.398
 20
428.751
 11
116.823
 21
428.517
  0
LINE
  8
0
 10
116.823
 20
428.517
 11
117.216
 21
428.231
  0
LINE
  8
0
 10
117.216
 20
428.231
 11
117.571
 21
427.899
  0
LINE
  8
0
 10
117.571
 20
427.899
 11
117.88
 21
427.524
  0
LINE
  8
0
 10
117.88
 20
427.524
 11
118.141
 21
427.114
  0
LINE
  8
0
 10
118.141
 20
427.114
 11
118.348
 21
426.674
  0
LINE
  8
0
 10
118.348
 20
426.674
 11
118.498
 21
426.212
  0
LINE
  8
0
 10
118.498
 20
426.212
 11
118.589
 21
425.735
  0
LINE
  8
0
 10
118.589
 20
425.735
 11
118.619
 21
425.25
  0
LINE
  8
0
 10
118.619
 20
425.25
 11
118.619
 21
270.75
  0
LINE
  8
0
 10
118.619
 20
270.75
 11
118.589
 21
270.265
  0
LINE
  8
0
 10
118.589
 20
270.265
 11
118.498
 21
269.788
  0
LINE
  8
0
 10
118.498
 20
269.788
 11
118.348
 21
269.326
  0
LINE
  8
0
 10
118.348
 20
269.326
 11
118.141
 21
268.886
  0
LINE
  8
0
 10
118.141
 20
268.886
 11
117.88
 21
268.476
  0
LINE
  8
0
 10
117.88
 20
268.476
 11
117.571
 21
268.101
  0
LINE
  8
0
 10
117.571
 20
268.101
 11
117.216
 21
267.769
  0
LINE
  8
0
 10
117.216
 20
267.769
 11
116.823
 21
267.483
  0
LINE
  8
0
 10
116.823
 20
267.483
 11
116.398
 21
267.249
  0
LINE
  8
0
 10
116.398
 20
267.249
 11
115.946
 21
267.07
  0
LINE
  8
0
 10
115.946
 20
267.07
 11
115.475
 21
266.949
  0
LINE
  8
0
 10
115.475
 20
266.949
 11
114.993
 21
266.888
  0
LINE
  8
0
 10
114.993
 20
266.888
 11
-114.993
 21
266.888
  0
LINE
  8
0
 10
115.937
 20
91.5886
 11
116.545
 21
91.7447
  0
LINE
  8
0
 10
116.545
 20
91.7447
 11
117.129
 21
91.9759
  0
LINE
  8
0
 10
117.129
 20
91.9759
 11
117.679
 21
92.2784
  0
LINE
  8
0
 10
117.679
 20
92.2784
 11
118.187
 21
92.6474
  0
LINE
  8
0
 10
118.187
 20
92.6474
 11
118.645
 21
93.0773
  0
LINE
  8
0
 10
118.645
 20
93.0773
 11
119.045
 21
93.5611
  0
LINE
  8
0
 10
119.045
 20
93.5611
 11
119.382
 21
94.0912
  0
LINE
  8
0
 10
119.382
 20
94.0912
 11
119.649
 21
94.6594
  0
LINE
  8
0
 10
119.649
 20
94.6594
 11
119.843
 21
95.2566
  0
LINE
  8
0
 10
119.843
 20
95.2566
 11
119.961
 21
95.8733
  0
LINE
  8
0
 10
119.961
 20
95.8733
 11
120
 21
96.5
  0
LINE
  8
0
 10
120
 20
96.5
 11
120
 21
251.5
  0
LINE
  8
0
 10
120
 20
251.5
 11
119.961
 21
252.127
  0
LINE
  8
0
 10
119.961
 20
252.127
 11
119.843
 21
252.743
  0
LINE
  8
0
 10
119.843
 20
252.743
 11
119.649
 21
253.341
  0
LINE
  8
0
 10
119.649
 20
253.341
 11
119.382
 21
253.909
  0
LINE
  8
0
 10
119.382
 20
253.909
 11
119.045
 21
254.439
  0
LINE
  8
0
 10
119.045
 20
254.439
 11
118.645
 21
254.923
  0
LINE
  8
0
 10
118.645
 20
254.923
 11
118.187
 21
255.353
  0
LINE
  8
0
 10
118.187
 20
255.353
 11
117.679
 21
255.722
  0
LINE
  8
0
 10
117.679
 20
255.722
 11
117.129
 21
256.024
  0
LINE
  8
0
 10
117.129
 20
256.024
 11
116.545
 21
256.255
  0
LINE
  8
0
 10
116.545
 20
256.255
 11
115.937
 21
256.411
  0
LINE
  8
0
 10
115.937
 20
256.411
 11
115.314
 21
256.49
  0
LINE
  8
0
 10
115.314
 20
256.49
 11
-115.314
 21
256.49
  0
LINE
  8
0
 10
-115.314
 20
256.49
 11
-115.937
 21
256.411
  0
LINE
  8
0
 10
-115.937
 20
256.411
 11
-116.545
 21
256.255
  0
LINE
  8
0
 10
-116.545
 20
256.255
 11
-117.129
 21
256.024
  0
LINE
  8
0
 10
-117.129
 20
256.024
 11
-117.679
 21
255.722
  0
LINE
  8
0
 10
-117.679
 20
255.722
 11
-118.187
 21
255.353
  0
LINE
  8
0
 10
-118.187
 20
255.353
 11
-118.645
 21
254.923
  0
LINE
  8
0
 10
-118.645
 20
254.923
 11
-119.045
 21
254.439
  0
LINE
  8
0
 10
-119.045
 20
254.439
 11
-119.382
 21
253.909
  0
LINE
  8
0
 10
-119.382
 20
253.909
 11
-119.649
 21
253.341
  0
LINE
  8
0
 10
-119.649
 20
253.341
 11
-119.843
 21
252.743
  0
LINE
  8
0
 10
-119.843
 20
252.743
 11
-119.961
 21
252.127
  0
LINE
  8
0
 10
-119.961
 20
252.127
 11
-120
 21
251.5
  0
LINE
  8
0
 10
-120
 20
251.5
 11
-120
 21
96.5
  0
LINE
  8
0
 10
-120
 20
96.5
 11
-119.961
 21
95.8733
  0
LINE
  8
0
 10
-119.961
 20
95.8733
 11
-119.843
 21
95.2566
  0
LINE
  8
0
 10
-119.843
 20
95.2566
 11
-119.649
 21
94.6594
  0
LINE
  8
0
 10
-119.649
 20
94.6594
 11
-119.382
 21
94.0912
  0
LINE
  8
0
 10
-119.382
 20
94.0912
 11
-119.045
 21
93.5611
  0
LINE
  8
0
 10
-119.045
 20
93.5611
 11
-118.645
 21
93.0773
  0
LINE
  8
0
 10
-118.645
 20
93.0773
 11
-118.187
 21
92.6474
  0
LINE
  8
0
 10
-118.187
 20
92.6474
 11
-117.679
 21
92.2784
  0
LINE
  8
0
 10
-117.679
 20
92.2784
 11
-117.129
 21
91.9759
  0
LINE
  8
0
 10
-117.129
 20
91.9759
 11
-116.545
 21
91.7447
  0
LINE
  8
0
 10
-116.545
 20
91.7447
 11
-115.937
 21
91.5886
  0
LINE
  8
0
 10
-115.937
 20
91.5886
 11
-115.314
 21
91.5099
  0
LINE
  8
0
 10
-115.314
 20
91.5099
 11
115.314
 21
91.5099
  0
LINE
  8
0
 10
115.314
 20
91.5099
 11
115.937
 21
91.5886
  0
LINE
  8
0
 10
112.387
 20
247.204
 11
112.163
 21
247.232
  0
LINE
  8
0
 10
112.163
 20
247.232
 11
111.944
 21
247.288
  0
LINE
  8
0
 10
111.944
 20
247.288
 11
111.734
 21
247.371
  0
LINE
  8
0
 10
111.734
 20
247.371
 11
111.536
 21
247.48
  0
LINE
  8
0
 10
111.536
 20
247.48
 11
111.353
 21
247.613
  0
LINE
  8
0
 10
111.353
 20
247.613
 11
111.188
 21
247.768
  0
LINE
  8
0
 10
111.188
 20
247.768
 11
111.044
 21
247.942
  0
LINE
  8
0
 10
111.044
 20
247.942
 11
110.923
 21
248.133
  0
LINE
  8
0
 10
110.923
 20
248.133
 11
110.826
 21
248.337
  0
LINE
  8
0
 10
110.826
 20
248.337
 11
110.757
 21
248.552
  0
LINE
  8
0
 10
110.757
 20
248.552
 11
110.714
 21
248.774
  0
LINE
  8
0
 10
110.714
 20
248.774
 11
110.7
 21
249
  0
LINE
  8
0
 10
110.7
 20
249
 11
110.714
 21
249.226
  0
LINE
  8
0
 10
110.714
 20
249.226
 11
110.757
 21
249.448
  0
LINE
  8
0
 10
110.757
 20
249.448
 11
110.826
 21
249.663
  0
LINE
  8
0
 10
110.826
 20
249.663
 11
110.923
 21
249.867
  0
LINE
  8
0
 10
110.923
 20
249.867
 11
111.044
 21
250.058
  0
LINE
  8
0
 10
111.044
 20
250.058
 11
111.188
 21
250.232
  0
LINE
  8
0
 10
111.188
 20
250.232
 11
111.353
 21
250.387
  0
LINE
  8
0
 10
111.353
 20
250.387
 11
111.536
 21
250.52
  0
LINE
  8
0
 10
111.536
 20
250.52
 11
111.734
 21
250.629
  0
LINE
  8
0
 10
111.734
 20
250.629
 11
111.944
 21
250.712
  0
LINE
  8
0
 10
111.944
 20
250.712
 11
112.163
 21
250.768
  0
LINE
  8
0
 10
112.163
 20
250.768
 11
112.387
 21
250.796
  0
LINE
  8
0
 10
112.387
 20
250.796
 11
112.613
 21
250.796
  0
LINE
  8
0
 10
112.613
 20
250.796
 11
112.837
 21
250.768
  0
LINE
  8
0
 10
112.837
 20
250.768
 11
113.056
 21
250.712
  0
LINE
  8
0
 10
113.056
 20
250.712
 11
113.266
 21
250.629
  0
LINE
  8
0
 10
113.266
 20
250.629
 11
113.464
 21
250.52
  0
LINE
  8
0
 10
113.464
 20
250.52
 11
113.647
 21
250.387
  0
LINE
  8
0
 10
113.647
 20
250.387
 11
113.812
 21
250.232
  0
LINE
  8
0
 10
113.812
 20
250.232
 11
113.956
 21
250.058
  0
LINE
  8
0
 10
113.956
 20
250.058
 11
114.077
 21
249.867
  0
LINE
  8
0
 10
114.077
 20
249.867
 11
114.174
 21
249.663
  0
LINE
  8
0
 10
114.174
 20
249.663
 11
114.243
 21
249.448
  0
LINE
  8
0
 10
114.243
 20
249.448
 11
114.286
 21
249.226
  0
LINE
  8
0
 10
114.286
 20
249.226
 11
114.3
 21
249
  0
LINE
  8
0
 10
114.3
 20
249
 11
114.286
 21
248.774
  0
LINE
  8
0
 10
114.286
 20
248.774
 11
114.243
 21
248.552
  0
LINE
  8
0
 10
114.243
 20
248.552
 11
114.174
 21
248.337
  0
LINE
  8
0
 10
114.174
 20
248.337
 11
114.077
 21
248.133
  0
LINE
  8
0
 10
114.077
 20
248.133
 11
113.956
 21
247.942
  0
LINE
  8
0
 10
113.956
 20
247.942
 11
113.812
 21
247.768
  0
LINE
  8
0
 10
113.812
 20
247.768
 11
113.647
 21
247.613
  0
LINE
  8
0
 10
113.647
 20
247.613
 11
113.464
 21
247.48
  0
LINE
  8
0
 10
113.464
 20
247.48
 11
113.266
 21
247.371
  0
LINE
  8
0
 10
113.266
 20
247.371
 11
113.056
 21
247.288
  0
LINE
  8
0
 10
113.056
 20
247.288
 11
112.837
 21
247.232
  0
LINE
  8
0
 10
112.837
 20
247.232
 11
112.613
 21
247.204
  0
LINE
  8
0
 10
112.613
 20
247.204
 11
112.387
 21
247.204
  0
LINE
  8
0
 10
-112.613
 20
247.204
 11
-112.837
 21
247.232
  0
LINE
  8
0
 10
-112.837
 20
247.232
 11
-113.056
 21
247.288
  0
LINE
  8
0
 10
-113.056
 20
247.288
 11
-113.266
 21
247.371
  0
LINE
  8
0
 10
-113.266
 20
247.371
 11
-113.464
 21
247.48
  0
LINE
  8
0
 10
-113.464
 20
247.48
 11
-113.647
 21
247.613
  0
LINE
  8
0
 10
-113.647
 20
247.613
 11
-113.812
 21
247.768
  0
LINE
  8
0
 10
-113.812
 20
247.768
 11
-113.956
 21
247.942
  0
LINE
  8
0
 10
-113.956
 20
247.942
 11
-114.077
 21
248.133
  0
LINE
  8
0
 10
-114.077
 20
248.133
 11
-114.174
 21
248.337
  0
LINE
  8
0
 10
-114.174
 20
248.337
 11
-114.243
 21
248.552
  0
LINE
  8
0
 10
-114.243
 20
248.552
 11
-114.286
 21
248.774
  0
LINE
  8
0
 10
-114.286
 20
248.774
 11
-114.3
 21
249
  0
LINE
  8
0
 10
-114.3
 20
249
 11
-114.286
 21
249.226
  0
LINE
  8
0
 10
-114.286
 20
249.226
 11
-114.243
 21
249.448
  0
LINE
  8
0
 10
-114.243
 20
249.448
 11
-114.174
 21
249.663
  0
LINE
  8
0
 10
-114.174
 20
249.663
 11
-114.077
 21
249.867
  0
LINE
  8
0
 10
-114.077
 20
249.867
 11
-113.956
 21
250.058
  0
LINE
  8
0
 10
-113.956
 20
250.058
 11
-113.812
 21
250.232
  0
LINE
  8
0
 10
-113.812
 20
250.232
 11
-113.647
 21
250.387
  0
LINE
  8
0
 10
-113.647
 20
250.387
 11
-113.464
 21
250.52
  0
LINE
  8
0
 10
-113.464
 20
250.52
 11
-113.266
 21
250.629
  0
LINE
  8
0
 10
-113.266
 20
250.629
 11
-113.056
 21
250.712
  0
LINE
  8
0
 10
-113.056
 20
250.712
 11
-112.837
 21
250.768
  0
LINE
  8
0
 10
-112.837
 20
250.768
 11
-112.613
 21
250.796
  0
LINE
  8
0
 10
-112.613
 20
250.796
 11
-112.387
 21
250.796
  0
LINE
  8
0
 10
-112.387
 20
250.796
 11
-112.163
 21
250.768
  0
LINE
  8
0
 10
-112.163
 20
250.768
 11
-111.944
 21
250.712
  0
LINE
  8
0
 10
-111.944
 20
250.712
 11
-111.734
 21
250.629
  0
LINE
  8
0
 10
-111.734
 20
250.629
 11
-111.536
 21
250.52
  0
LINE
  8
0
 10
-111.536
 20
250.52
 11
-111.353
 21
250.387
  0
LINE
  8
0
 10
-111.353
 20
250.387
 11
-111.188
 21
250.232
  0
LINE
  8
0
 10
-111.188
 20
250.232
 11
-111.044
 21
250.058
  0
LINE
  8
0
 10
-111.044
 20
250.058
 11
-110.923
 21
249.867
  0
LINE
  8
0
 10
-110.923
 20
249.867
 11
-110.826
 21
249.663
  0
LINE
  8
0
 10
-110.826
 20
249.663
 11
-110.757
 21
249.448
  0
LINE
  8
0
 10
-110.757
 20
249.448
 11
-110.714
 21
249.226
  0
LINE
  8
0
 10
-110.714
 20
249.226
 11
-110.7
 21
249
  0
LINE
  8
0
 10
-110.7
 20
249
 11
-110.714
 21
248.774
  0
LINE
  8
0
 10
-110.714
 20
248.774
 11
-110.757
 21
248.552
  0
LINE
  8
0
 10
-110.757
 20
248.552
 11
-110.826
 21
248.337
  0
LINE
  8
0
 10
-110.826
 20
248.337
 11
-110.923
 21
248.133
  0
LINE
  8
0
 10
-110.923
 20
248.133
 11
-111.044
 21
247.942
  0
LINE
  8
0
 10
-111.044
 20
247.942
 11
-111.188
 21
247.768
  0
LINE
  8
0
 10
-111.188
 20
247.768
 11
-111.353
 21
247.613
  0
LINE
  8
0
 10
-111.353
 20
247.613
 11
-111.536
 21
247.48
  0
LINE
  8
0
 10
-111.536
 20
247.48
 11
-111.734
 21
247.371
  0
LINE
  8
0
 10
-111.734
 20
247.371
 11
-111.944
 21
247.288
  0
LINE
  8
0
 10
-111.944
 20
247.288
 11
-112.163
 21
247.232
  0
LINE
  8
0
 10
-112.163
 20
247.232
 11
-112.387
 21
247.204
  0
LINE
  8
0
 10
-112.387
 20
247.204
 11
-112.613
 21
247.204
  0
LINE
  8
0
 10
-112.613
 20
97.2036
 11
-112.837
 21
97.2319
  0
LINE
  8
0
 10
-112.837
 20
97.2319
 11
-113.056
 21
97.2881
  0
LINE
  8
0
 10
-113.056
 20
97.2881
 11
-113.266
 21
97.3713
  0
LINE
  8
0
 10
-113.266
 20
97.3713
 11
-113.464
 21
97.4802
  0
LINE
  8
0
 10
-113.464
 20
97.4802
 11
-113.647
 21
97.6131
  0
LINE
  8
0
 10
-113.647
 20
97.6131
 11
-113.812
 21
97.7678
  0
LINE
  8
0
 10
-113.812
 20
97.7678
 11
-113.956
 21
97.942
  0
LINE
  8
0
 10
-113.956
 20
97.942
 11
-114.077
 21
98.1328
  0
LINE
  8
0
 10
-114.077
 20
98.1328
 11
-114.174
 21
98.3374
  0
LINE
  8
0
 10
-114.174
 20
98.3374
 11
-114.243
 21
98.5524
  0
LINE
  8
0
 10
-114.243
 20
98.5524
 11
-114.286
 21
98.7744
  0
LINE
  8
0
 10
-114.286
 20
98.7744
 11
-114.3
 21
99
  0
LINE
  8
0
 10
-114.3
 20
99
 11
-114.286
 21
99.2256
  0
LINE
  8
0
 10
-114.286
 20
99.2256
 11
-114.243
 21
99.4476
  0
LINE
  8
0
 10
-114.243
 20
99.4476
 11
-114.174
 21
99.6626
  0
LINE
  8
0
 10
-114.174
 20
99.6626
 11
-114.077
 21
99.8672
  0
LINE
  8
0
 10
-114.077
 20
99.8672
 11
-113.956
 21
100.058
  0
LINE
  8
0
 10
-113.956
 20
100.058
 11
-113.812
 21
100.232
  0
LINE
  8
0
 10
-113.812
 20
100.232
 11
-113.647
 21
100.387
  0
LINE
  8
0
 10
-113.647
 20
100.387
 11
-113.464
 21
100.52
  0
LINE
  8
0
 10
-113.464
 20
100.52
 11
-113.266
 21
100.629
  0
LINE
  8
0
 10
-113.266
 20
100.629
 11
-113.056
 21
100.712
  0
LINE
  8
0
 10
-113.056
 20
100.712
 11
-112.837
 21
100.768
  0
LINE
  8
0
 10
-112.837
 20
100.768
 11
-112.613
 21
100.796
  0
LINE
  8
0
 10
-112.613
 20
100.796
 11
-112.387
 21
100.796
  0
LINE
  8
0
 10
-112.387
 20
100.796
 11
-112.163
 21
100.768
  0
LINE
  8
0
 10
-112.163
 20
100.768
 11
-111.944
 21
100.712
  0
LINE
  8
0
 10
-111.944
 20
100.712
 11
-111.734
 21
100.629
  0
LINE
  8
0
 10
-111.734
 20
100.629
 11
-111.536
 21
100.52
  0
LINE
  8
0
 10
-111.536
 20
100.52
 11
-111.353
 21
100.387
  0
LINE
  8
0
 10
-111.353
 20
100.387
 11
-111.188
 21
100.232
  0
LINE
  8
0
 10
-111.188
 20
100.232
 11
-111.044
 21
100.058
  0
LINE
  8
0
 10
-111.044
 20
100.058
 11
-110.923
 21
99.8672
  0
LINE
  8
0
 10
-110.923
 20
99.8672
 11
-110.826
 21
99.6626
  0
LINE
  8
0
 10
-110.826
 20
99.6626
 11
-110.757
 21
99.4476
  0
LINE
  8
0
 10
-110.757
 20
99.4476
 11
-110.714
 21
99.2256
  0
LINE
  8
0
 10
-110.714
 20
99.2256
 11
-110.7
 21
99
  0
LINE
  8
0
 10
-110.7
 20
99
 11
-110.714
 21
98.7744
  0
LINE
  8
0
 10
-110.714
 20
98.7744
 11
-110.757
 21
98.5524
  0
LINE
  8
0
 10
-110.757
 20
98.5524
 11
-110.826
 21
98.3374
  0
LINE
  8
0
 10
-110.826
 20
98.3374
 11
-110.923
 21
98.1328
  0
LINE
  8
0
 10
-110.923
 20
98.1328
 11
-111.044
 21
97.942
  0
LINE
  8
0
 10
-111.044
 20
97.942
 11
-111.188
 21
97.7678
  0
LINE
  8
0
 10
-111.188
 20
97.7678
 11
-111.353
 21
97.6131
  0
LINE
  8
0
 10
-111.353
 20
97.6131
 11
-111.536
 21
97.4802
  0
LINE
  8
0
 10
-111.536
 20
97.4802
 11
-111.734
 21
97.3713
  0
LINE
  8
0
 10
-111.734
 20
97.3713
 11
-111.944
 21
97.2881
  0
LINE
  8
0
 10
-111.944
 20
97.2881
 11
-112.163
 21
97.2319
  0
LINE
  8
0
 10
-112.163
 20
97.2319
 11
-112.387
 21
97.2036
  0
LINE
  8
0
 10
-112.387
 20
97.2036
 11
-112.613
 21
97.2036
  0
LINE
  8
0
 10
112.387
 20
97.2036
 11
112.163
 21
97.2319
  0
LINE
  8
0
 10
112.163
 20
97.2319
 11
111.944
 21
97.2881
  0
LINE
  8
0
 10
111.944
 20
97.2881
 11
111.734
 21
97.3713
  0
LINE
  8
0
 10
111.734
 20
97.3713
 11
111.536
 21
97.4802
  0
LINE
  8
0
 10
111.536
 20
97.4802
 11
111.353
 21
97.6131
  0
LINE
  8
0
 10
111.353
 20
97.6131
 11
111.188
 21
97.7678
  0
LINE
  8
0
 10
111.188
 20
97.7678
 11
111.044
 21
97.942
  0
LINE
  8
0
 10
111.044
 20
97.942
 11
110.923
 21
98.1328
  0
LINE
  8
0
 10
110.923
 20
98.1328
 11
110.826
 21
98.3374
  0
LINE
  8
0
 10
110.826
 20
98.3374
 11
110.757
 21
98.5524
  0
LINE
  8
0
 10
110.757
 20
98.5524
 11
110.714
 21
98.7744
  0
LINE
  8
0
 10
110.714
 20
98.7744
 11
110.7
 21
99
  0
LINE
  8
0
 10
110.7
 20
99
 11
110.714
 21
99.2256
  0
LINE
  8
0
 10
110.714
 20
99.2256
 11
110.757
 21
99.4476
  0
LINE
  8
0
 10
110.757
 20
99.4476
 11
110.826
 21
99.6626
  0
LINE
  8
0
 10
110.826
 20
99.6626
 11
110.923
 21
99.8672
  0
LINE
  8
0
 10
110.923
 20
99.8672
 11
111.044
 21
100.058
  0
LINE
  8
0
 10
111.044
 20
100.058
 11
111.188
 21
100.232
  0
LINE
  8
0
 10
111.188
 20
100.232
 11
111.353
 21
100.387
  0
LINE
  8
0
 10
111.353
 20
100.387
 11
111.536
 21
100.52
  0
LINE
  8
0
 10
111.536
 20
100.52
 11
111.734
 21
100.629
  0
LINE
  8
0
 10
111.734
 20
100.629
 11
111.944
 21
100.712
  0
LINE
  8
0
 10
111.944
 20
100.712
 11
112.163
 21
100.768
  0
LINE
  8
0
 10
112.163
 20
100.768
 11
112.387
 21
100.796
  0
LINE
  8
0
 10
112.387
 20
100.796
 11
112.613
 21
100.796
  0
LINE
  8
0
 10
112.613
 20
100.796
 11
112.837
 21
100.768
  0
LINE
  8
0
 10
112.837
 20
100.768
 11
113.056
 21
100.712
  0
LINE
  8
0
 10
113.056
 20
100.712
 11
113.266
 21
100.629
  0
LINE
  8
0
 10
113.266
 20
100.629
 11
113.464
 21
100.52
  0
LINE
  8
0
 10
113.464
 20
100.52
 11
113.647
 21
100.387
  0
LINE
  8
0
 10
113.647
 20
100.387
 11
113.812
 21
100.232
  0
LINE
  8
0
 10
113.812
 20
100.232
 11
113.956
 21
100.058
  0
LINE
  8
0
 10
113.956
 20
100.058
 11
114.077
 21
99.8672
  0
LINE
  8
0
 10
114.077
 20
99.8672
 11
114.174
 21
99.6626
  0
LINE
  8
0
 10
114.174
 20
99.6626
 11
114.243
 21
99.4476
  0
LINE
  8
0
 10
114.243
 20
99.4476
 11
114.286
 21
99.2256
  0
LINE
  8
0
 10
114.286
 20
99.2256
 11
114.3
 21
99
  0
LINE
  8
0
 10
114.3
 20
99
 11
114.286
 21
98.7744
  0
LINE
  8
0
 10
114.286
 20
98.7744
 11
114.243
 21
98.5524
  0
LINE
  8
0
 10
114.243
 20
98.5524
 11
114.174
 21
98.3374
  0
LINE
  8
0
 10
114.174
 20
98.3374
 11
114.077
 21
98.1328
  0
LINE
  8
0
 10
114.077
 20
98.1328
 11
113.956
 21
97.942
  0
LINE
  8
0
 10
113.956
 20
97.942
 11
113.812
 21
97.7678
  0
LINE
  8
0
 10
113.812
 20
97.7678
 11
113.647
 21
97.6131
  0
LINE
  8
0
 10
113.647
 20
97.6131
 11
113.464
 21
97.4802
  0
LINE
  8
0
 10
113.464
 20
97.4802
 11
113.266
 21
97.3713
  0
LINE
  8
0
 10
113.266
 20
97.3713
 11
113.056
 21
97.2881
  0
LINE
  8
0
 10
113.056
 20
97.2881
 11
112.837
 21
97.2319
  0
LINE
  8
0
 10
112.837
 20
97.2319
 11
112.613
 21
97.2036
  0
LINE
  8
0
 10
112.613
 20
97.2036
 11
112.387
 21
97.2036
  0
ENDSEC
  0
SECTION
  2
OBJECTS
  0
DICTIONARY
  0
ENDSEC
  0
EOF
