  0
SECTION
  2
BLOCKS
  0
ENDSEC
  0
SECTION
  2
ENTITIES
  0
LINE
  8
0
 10
-126
 20
1739.94
 11
-125.687
 21
1739.65
  0
LINE
  8
0
 10
-125.687
 20
1739.65
 11
-125.179
 21
1739.28
  0
LINE
  8
0
 10
-125.179
 20
1739.28
 11
-124.629
 21
1738.98
  0
LINE
  8
0
 10
-124.629
 20
1738.98
 11
-124.045
 21
1738.74
  0
LINE
  8
0
 10
-124.045
 20
1738.74
 11
-123.437
 21
1738.59
  0
LINE
  8
0
 10
-123.437
 20
1738.59
 11
-122.814
 21
1738.51
  0
LINE
  8
0
 10
-122.814
 20
1738.51
 11
122.814
 21
1738.51
  0
LINE
  8
0
 10
122.814
 20
1738.51
 11
123.437
 21
1738.59
  0
LINE
  8
0
 10
123.437
 20
1738.59
 11
124.045
 21
1738.74
  0
LINE
  8
0
 10
124.045
 20
1738.74
 11
124.629
 21
1738.98
  0
LINE
  8
0
 10
124.629
 20
1738.98
 11
125.179
 21
1739.28
  0
LINE
  8
0
 10
125.179
 20
1739.28
 11
125.687
 21
1739.65
  0
LINE
  8
0
 10
125.687
 20
1739.65
 11
126.145
 21
1740.08
  0
LINE
  8
0
 10
126.145
 20
1740.08
 11
126.545
 21
1740.56
  0
LINE
  8
0
 10
126.545
 20
1740.56
 11
126.882
 21
1741.09
  0
LINE
  8
0
 10
126.882
 20
1741.09
 11
127.149
 21
1741.66
  0
LINE
  8
0
 10
127.149
 20
1741.66
 11
127.343
 21
1742.26
  0
LINE
  8
0
 10
127.343
 20
1742.26
 11
127.461
 21
1742.87
  0
LINE
  8
0
 10
127.461
 20
1742.87
 11
127.5
 21
1743.5
  0
LINE
  8
0
 10
127.5
 20
1743.5
 11
127.5
 21
1928.5
  0
LINE
  8
0
 10
127.5
 20
1928.5
 11
127.461
 21
1929.13
  0
LINE
  8
0
 10
127.461
 20
1929.13
 11
127.343
 21
1929.74
  0
LINE
  8
0
 10
127.343
 20
1929.74
 11
127.149
 21
1930.34
  0
LINE
  8
0
 10
127.149
 20
1930.34
 11
126.882
 21
1930.91
  0
LINE
  8
0
 10
126.882
 20
1930.91
 11
126.545
 21
1931.44
  0
LINE
  8
0
 10
126.545
 20
1931.44
 11
126.145
 21
1931.92
  0
LINE
  8
0
 10
126.145
 20
1931.92
 11
125.687
 21
1932.35
  0
LINE
  8
0
 10
125.687
 20
1932.35
 11
125.179
 21
1932.72
  0
LINE
  8
0
 10
125.179
 20
1932.72
 11
124.629
 21
1933.02
  0
LINE
  8
0
 10
124.629
 20
1933.02
 11
124.045
 21
1933.26
  0
LINE
  8
0
 10
124.045
 20
1933.26
 11
123.437
 21
1933.41
  0
LINE
  8
0
 10
123.437
 20
1933.41
 11
122.814
 21
1933.49
  0
LINE
  8
0
 10
122.814
 20
1933.49
 11
-122.814
 21
1933.49
  0
LINE
  8
0
 10
-122.814
 20
1933.49
 11
-123.437
 21
1933.41
  0
LINE
  8
0
 10
-123.437
 20
1933.41
 11
-124.045
 21
1933.26
  0
LINE
  8
0
 10
-124.045
 20
1933.26
 11
-124.629
 21
1933.02
  0
LINE
  8
0
 10
-124.629
 20
1933.02
 11
-125.179
 21
1932.72
  0
LINE
  8
0
 10
-125.179
 20
1932.72
 11
-125.687
 21
1932.35
  0
LINE
  8
0
 10
-125.687
 20
1932.35
 11
-126
 21
1932.06
  0
LINE
  8
0
 10
-126
 20
1932.06
 11
-126
 21
1933.49
  0
LINE
  8
0
 10
-126
 20
1933.49
 11
-129
 21
1933.49
  0
LINE
  8
0
 10
-129
 20
1933.49
 11
-129
 21
1738.51
  0
LINE
  8
0
 10
-129
 20
1738.51
 11
-126
 21
1738.51
  0
LINE
  8
0
 10
-126
 20
1738.51
 11
-126
 21
1739.94
  0
LINE
  8
0
 10
-122.251
 20
1740.01
 11
-122.75
 21
1740.07
  0
LINE
  8
0
 10
-122.75
 20
1740.07
 11
-123.236
 21
1740.2
  0
LINE
  8
0
 10
-123.236
 20
1740.2
 11
-123.703
 21
1740.38
  0
LINE
  8
0
 10
-123.703
 20
1740.38
 11
-124.143
 21
1740.62
  0
LINE
  8
0
 10
-124.143
 20
1740.62
 11
-124.55
 21
1740.92
  0
LINE
  8
0
 10
-124.55
 20
1740.92
 11
-124.916
 21
1741.26
  0
LINE
  8
0
 10
-124.916
 20
1741.26
 11
-125.236
 21
1741.65
  0
LINE
  8
0
 10
-125.236
 20
1741.65
 11
-125.505
 21
1742.07
  0
LINE
  8
0
 10
-125.505
 20
1742.07
 11
-125.719
 21
1742.53
  0
LINE
  8
0
 10
-125.719
 20
1742.53
 11
-125.874
 21
1743.01
  0
LINE
  8
0
 10
-125.874
 20
1743.01
 11
-125.968
 21
1743.5
  0
LINE
  8
0
 10
-125.968
 20
1743.5
 11
-126
 21
1744
  0
LINE
  8
0
 10
-126
 20
1744
 11
-126
 21
1928
  0
LINE
  8
0
 10
-126
 20
1928
 11
-125.968
 21
1928.5
  0
LINE
  8
0
 10
-125.968
 20
1928.5
 11
-125.874
 21
1928.99
  0
LINE
  8
0
 10
-125.874
 20
1928.99
 11
-125.719
 21
1929.47
  0
LINE
  8
0
 10
-125.719
 20
1929.47
 11
-125.505
 21
1929.93
  0
LINE
  8
0
 10
-125.505
 20
1929.93
 11
-125.236
 21
1930.35
  0
LINE
  8
0
 10
-125.236
 20
1930.35
 11
-124.916
 21
1930.74
  0
LINE
  8
0
 10
-124.916
 20
1930.74
 11
-124.55
 21
1931.08
  0
LINE
  8
0
 10
-124.55
 20
1931.08
 11
-124.143
 21
1931.38
  0
LINE
  8
0
 10
-124.143
 20
1931.38
 11
-123.703
 21
1931.62
  0
LINE
  8
0
 10
-123.703
 20
1931.62
 11
-123.236
 21
1931.8
  0
LINE
  8
0
 10
-123.236
 20
1931.8
 11
-122.75
 21
1931.93
  0
LINE
  8
0
 10
-122.75
 20
1931.93
 11
-122.251
 21
1931.99
  0
LINE
  8
0
 10
-122.251
 20
1931.99
 11
122.251
 21
1931.99
  0
LINE
  8
0
 10
122.251
 20
1931.99
 11
122.75
 21
1931.93
  0
LINE
  8
0
 10
122.75
 20
1931.93
 11
123.236
 21
1931.8
  0
LINE
  8
0
 10
123.236
 20
1931.8
 11
123.703
 21
1931.62
  0
LINE
  8
0
 10
123.703
 20
1931.62
 11
124.143
 21
1931.38
  0
LINE
  8
0
 10
124.143
 20
1931.38
 11
124.55
 21
1931.08
  0
LINE
  8
0
 10
124.55
 20
1931.08
 11
124.916
 21
1930.74
  0
LINE
  8
0
 10
124.916
 20
1930.74
 11
125.236
 21
1930.35
  0
LINE
  8
0
 10
125.236
 20
1930.35
 11
125.505
 21
1929.93
  0
LINE
  8
0
 10
125.505
 20
1929.93
 11
125.719
 21
1929.47
  0
LINE
  8
0
 10
125.719
 20
1929.47
 11
125.874
 21
1928.99
  0
LINE
  8
0
 10
125.874
 20
1928.99
 11
125.968
 21
1928.5
  0
LINE
  8
0
 10
125.968
 20
1928.5
 11
126
 21
1928
  0
LINE
  8
0
 10
126
 20
1928
 11
126
 21
1744
  0
LINE
  8
0
 10
126
 20
1744
 11
125.968
 21
1743.5
  0
LINE
  8
0
 10
125.968
 20
1743.5
 11
125.874
 21
1743.01
  0
LINE
  8
0
 10
125.874
 20
1743.01
 11
125.719
 21
1742.53
  0
LINE
  8
0
 10
125.719
 20
1742.53
 11
125.505
 21
1742.07
  0
LINE
  8
0
 10
125.505
 20
1742.07
 11
125.236
 21
1741.65
  0
LINE
  8
0
 10
125.236
 20
1741.65
 11
124.916
 21
1741.26
  0
LINE
  8
0
 10
124.916
 20
1741.26
 11
124.55
 21
1740.92
  0
LINE
  8
0
 10
124.55
 20
1740.92
 11
124.143
 21
1740.62
  0
LINE
  8
0
 10
124.143
 20
1740.62
 11
123.703
 21
1740.38
  0
LINE
  8
0
 10
123.703
 20
1740.38
 11
123.236
 21
1740.2
  0
LINE
  8
0
 10
123.236
 20
1740.2
 11
122.75
 21
1740.07
  0
LINE
  8
0
 10
122.75
 20
1740.07
 11
122.251
 21
1740.01
  0
LINE
  8
0
 10
122.251
 20
1740.01
 11
-122.251
 21
1740.01
  0
LINE
  8
0
 10
-126
 20
1535.94
 11
-125.687
 21
1535.65
  0
LINE
  8
0
 10
-125.687
 20
1535.65
 11
-125.179
 21
1535.28
  0
LINE
  8
0
 10
-125.179
 20
1535.28
 11
-124.629
 21
1534.98
  0
LINE
  8
0
 10
-124.629
 20
1534.98
 11
-124.045
 21
1534.74
  0
LINE
  8
0
 10
-124.045
 20
1534.74
 11
-123.437
 21
1534.59
  0
LINE
  8
0
 10
-123.437
 20
1534.59
 11
-122.814
 21
1534.51
  0
LINE
  8
0
 10
-122.814
 20
1534.51
 11
122.814
 21
1534.51
  0
LINE
  8
0
 10
122.814
 20
1534.51
 11
123.437
 21
1534.59
  0
LINE
  8
0
 10
123.437
 20
1534.59
 11
124.045
 21
1534.74
  0
LINE
  8
0
 10
124.045
 20
1534.74
 11
124.629
 21
1534.98
  0
LINE
  8
0
 10
124.629
 20
1534.98
 11
125.179
 21
1535.28
  0
LINE
  8
0
 10
125.179
 20
1535.28
 11
125.687
 21
1535.65
  0
LINE
  8
0
 10
125.687
 20
1535.65
 11
126.145
 21
1536.08
  0
LINE
  8
0
 10
126.145
 20
1536.08
 11
126.545
 21
1536.56
  0
LINE
  8
0
 10
126.545
 20
1536.56
 11
126.882
 21
1537.09
  0
LINE
  8
0
 10
126.882
 20
1537.09
 11
127.149
 21
1537.66
  0
LINE
  8
0
 10
127.149
 20
1537.66
 11
127.343
 21
1538.26
  0
LINE
  8
0
 10
127.343
 20
1538.26
 11
127.461
 21
1538.87
  0
LINE
  8
0
 10
127.461
 20
1538.87
 11
127.5
 21
1539.5
  0
LINE
  8
0
 10
127.5
 20
1539.5
 11
127.5
 21
1724.5
  0
LINE
  8
0
 10
127.5
 20
1724.5
 11
127.461
 21
1725.13
  0
LINE
  8
0
 10
127.461
 20
1725.13
 11
127.343
 21
1725.74
  0
LINE
  8
0
 10
127.343
 20
1725.74
 11
127.149
 21
1726.34
  0
LINE
  8
0
 10
127.149
 20
1726.34
 11
126.882
 21
1726.91
  0
LINE
  8
0
 10
126.882
 20
1726.91
 11
126.545
 21
1727.44
  0
LINE
  8
0
 10
126.545
 20
1727.44
 11
126.145
 21
1727.92
  0
LINE
  8
0
 10
126.145
 20
1727.92
 11
125.687
 21
1728.35
  0
LINE
  8
0
 10
125.687
 20
1728.35
 11
125.179
 21
1728.72
  0
LINE
  8
0
 10
125.179
 20
1728.72
 11
124.629
 21
1729.02
  0
LINE
  8
0
 10
124.629
 20
1729.02
 11
124.045
 21
1729.26
  0
LINE
  8
0
 10
124.045
 20
1729.26
 11
123.437
 21
1729.41
  0
LINE
  8
0
 10
123.437
 20
1729.41
 11
122.814
 21
1729.49
  0
LINE
  8
0
 10
122.814
 20
1729.49
 11
-122.814
 21
1729.49
  0
LINE
  8
0
 10
-122.814
 20
1729.49
 11
-123.437
 21
1729.41
  0
LINE
  8
0
 10
-123.437
 20
1729.41
 11
-124.045
 21
1729.26
  0
LINE
  8
0
 10
-124.045
 20
1729.26
 11
-124.629
 21
1729.02
  0
LINE
  8
0
 10
-124.629
 20
1729.02
 11
-125.179
 21
1728.72
  0
LINE
  8
0
 10
-125.179
 20
1728.72
 11
-125.687
 21
1728.35
  0
LINE
  8
0
 10
-125.687
 20
1728.35
 11
-126
 21
1728.06
  0
LINE
  8
0
 10
-126
 20
1728.06
 11
-126
 21
1729.49
  0
LINE
  8
0
 10
-126
 20
1729.49
 11
-129
 21
1729.49
  0
LINE
  8
0
 10
-129
 20
1729.49
 11
-129
 21
1534.51
  0
LINE
  8
0
 10
-129
 20
1534.51
 11
-126
 21
1534.51
  0
LINE
  8
0
 10
-126
 20
1534.51
 11
-126
 21
1535.94
  0
LINE
  8
0
 10
-122.251
 20
1536.01
 11
-122.75
 21
1536.07
  0
LINE
  8
0
 10
-122.75
 20
1536.07
 11
-123.236
 21
1536.2
  0
LINE
  8
0
 10
-123.236
 20
1536.2
 11
-123.703
 21
1536.38
  0
LINE
  8
0
 10
-123.703
 20
1536.38
 11
-124.143
 21
1536.62
  0
LINE
  8
0
 10
-124.143
 20
1536.62
 11
-124.55
 21
1536.92
  0
LINE
  8
0
 10
-124.55
 20
1536.92
 11
-124.916
 21
1537.26
  0
LINE
  8
0
 10
-124.916
 20
1537.26
 11
-125.236
 21
1537.65
  0
LINE
  8
0
 10
-125.236
 20
1537.65
 11
-125.505
 21
1538.07
  0
LINE
  8
0
 10
-125.505
 20
1538.07
 11
-125.719
 21
1538.53
  0
LINE
  8
0
 10
-125.719
 20
1538.53
 11
-125.874
 21
1539.01
  0
LINE
  8
0
 10
-125.874
 20
1539.01
 11
-125.968
 21
1539.5
  0
LINE
  8
0
 10
-125.968
 20
1539.5
 11
-126
 21
1540
  0
LINE
  8
0
 10
-126
 20
1540
 11
-126
 21
1724
  0
LINE
  8
0
 10
-126
 20
1724
 11
-125.968
 21
1724.5
  0
LINE
  8
0
 10
-125.968
 20
1724.5
 11
-125.874
 21
1724.99
  0
LINE
  8
0
 10
-125.874
 20
1724.99
 11
-125.719
 21
1725.47
  0
LINE
  8
0
 10
-125.719
 20
1725.47
 11
-125.505
 21
1725.93
  0
LINE
  8
0
 10
-125.505
 20
1725.93
 11
-125.236
 21
1726.35
  0
LINE
  8
0
 10
-125.236
 20
1726.35
 11
-124.916
 21
1726.74
  0
LINE
  8
0
 10
-124.916
 20
1726.74
 11
-124.55
 21
1727.08
  0
LINE
  8
0
 10
-124.55
 20
1727.08
 11
-124.143
 21
1727.38
  0
LINE
  8
0
 10
-124.143
 20
1727.38
 11
-123.703
 21
1727.62
  0
LINE
  8
0
 10
-123.703
 20
1727.62
 11
-123.236
 21
1727.8
  0
LINE
  8
0
 10
-123.236
 20
1727.8
 11
-122.75
 21
1727.93
  0
LINE
  8
0
 10
-122.75
 20
1727.93
 11
-122.251
 21
1727.99
  0
LINE
  8
0
 10
-122.251
 20
1727.99
 11
122.251
 21
1727.99
  0
LINE
  8
0
 10
122.251
 20
1727.99
 11
122.75
 21
1727.93
  0
LINE
  8
0
 10
122.75
 20
1727.93
 11
123.236
 21
1727.8
  0
LINE
  8
0
 10
123.236
 20
1727.8
 11
123.703
 21
1727.62
  0
LINE
  8
0
 10
123.703
 20
1727.62
 11
124.143
 21
1727.38
  0
LINE
  8
0
 10
124.143
 20
1727.38
 11
124.55
 21
1727.08
  0
LINE
  8
0
 10
124.55
 20
1727.08
 11
124.916
 21
1726.74
  0
LINE
  8
0
 10
124.916
 20
1726.74
 11
125.236
 21
1726.35
  0
LINE
  8
0
 10
125.236
 20
1726.35
 11
125.505
 21
1725.93
  0
LINE
  8
0
 10
125.505
 20
1725.93
 11
125.719
 21
1725.47
  0
LINE
  8
0
 10
125.719
 20
1725.47
 11
125.874
 21
1724.99
  0
LINE
  8
0
 10
125.874
 20
1724.99
 11
125.968
 21
1724.5
  0
LINE
  8
0
 10
125.968
 20
1724.5
 11
126
 21
1724
  0
LINE
  8
0
 10
126
 20
1724
 11
126
 21
1540
  0
LINE
  8
0
 10
126
 20
1540
 11
125.968
 21
1539.5
  0
LINE
  8
0
 10
125.968
 20
1539.5
 11
125.874
 21
1539.01
  0
LINE
  8
0
 10
125.874
 20
1539.01
 11
125.719
 21
1538.53
  0
LINE
  8
0
 10
125.719
 20
1538.53
 11
125.505
 21
1538.07
  0
LINE
  8
0
 10
125.505
 20
1538.07
 11
125.236
 21
1537.65
  0
LINE
  8
0
 10
125.236
 20
1537.65
 11
124.916
 21
1537.26
  0
LINE
  8
0
 10
124.916
 20
1537.26
 11
124.55
 21
1536.92
  0
LINE
  8
0
 10
124.55
 20
1536.92
 11
124.143
 21
1536.62
  0
LINE
  8
0
 10
124.143
 20
1536.62
 11
123.703
 21
1536.38
  0
LINE
  8
0
 10
123.703
 20
1536.38
 11
123.236
 21
1536.2
  0
LINE
  8
0
 10
123.236
 20
1536.2
 11
122.75
 21
1536.07
  0
LINE
  8
0
 10
122.75
 20
1536.07
 11
122.251
 21
1536.01
  0
LINE
  8
0
 10
122.251
 20
1536.01
 11
-122.251
 21
1536.01
  0
LINE
  8
0
 10
-126
 20
1331.94
 11
-125.687
 21
1331.65
  0
LINE
  8
0
 10
-125.687
 20
1331.65
 11
-125.179
 21
1331.28
  0
LINE
  8
0
 10
-125.179
 20
1331.28
 11
-124.629
 21
1330.98
  0
LINE
  8
0
 10
-124.629
 20
1330.98
 11
-124.045
 21
1330.74
  0
LINE
  8
0
 10
-124.045
 20
1330.74
 11
-123.437
 21
1330.59
  0
LINE
  8
0
 10
-123.437
 20
1330.59
 11
-122.814
 21
1330.51
  0
LINE
  8
0
 10
-122.814
 20
1330.51
 11
122.814
 21
1330.51
  0
LINE
  8
0
 10
122.814
 20
1330.51
 11
123.437
 21
1330.59
  0
LINE
  8
0
 10
123.437
 20
1330.59
 11
124.045
 21
1330.74
  0
LINE
  8
0
 10
124.045
 20
1330.74
 11
124.629
 21
1330.98
  0
LINE
  8
0
 10
124.629
 20
1330.98
 11
125.179
 21
1331.28
  0
LINE
  8
0
 10
125.179
 20
1331.28
 11
125.687
 21
1331.65
  0
LINE
  8
0
 10
125.687
 20
1331.65
 11
126.145
 21
1332.08
  0
LINE
  8
0
 10
126.145
 20
1332.08
 11
126.545
 21
1332.56
  0
LINE
  8
0
 10
126.545
 20
1332.56
 11
126.882
 21
1333.09
  0
LINE
  8
0
 10
126.882
 20
1333.09
 11
127.149
 21
1333.66
  0
LINE
  8
0
 10
127.149
 20
1333.66
 11
127.343
 21
1334.26
  0
LINE
  8
0
 10
127.343
 20
1334.26
 11
127.461
 21
1334.87
  0
LINE
  8
0
 10
127.461
 20
1334.87
 11
127.5
 21
1335.5
  0
LINE
  8
0
 10
127.5
 20
1335.5
 11
127.5
 21
1520.5
  0
LINE
  8
0
 10
127.5
 20
1520.5
 11
127.461
 21
1521.13
  0
LINE
  8
0
 10
127.461
 20
1521.13
 11
127.343
 21
1521.74
  0
LINE
  8
0
 10
127.343
 20
1521.74
 11
127.149
 21
1522.34
  0
LINE
  8
0
 10
127.149
 20
1522.34
 11
126.882
 21
1522.91
  0
LINE
  8
0
 10
126.882
 20
1522.91
 11
126.545
 21
1523.44
  0
LINE
  8
0
 10
126.545
 20
1523.44
 11
126.145
 21
1523.92
  0
LINE
  8
0
 10
126.145
 20
1523.92
 11
125.687
 21
1524.35
  0
LINE
  8
0
 10
125.687
 20
1524.35
 11
125.179
 21
1524.72
  0
LINE
  8
0
 10
125.179
 20
1524.72
 11
124.629
 21
1525.02
  0
LINE
  8
0
 10
124.629
 20
1525.02
 11
124.045
 21
1525.26
  0
LINE
  8
0
 10
124.045
 20
1525.26
 11
123.437
 21
1525.41
  0
LINE
  8
0
 10
123.437
 20
1525.41
 11
122.814
 21
1525.49
  0
LINE
  8
0
 10
122.814
 20
1525.49
 11
-122.814
 21
1525.49
  0
LINE
  8
0
 10
-122.814
 20
1525.49
 11
-123.437
 21
1525.41
  0
LINE
  8
0
 10
-123.437
 20
1525.41
 11
-124.045
 21
1525.26
  0
LINE
  8
0
 10
-124.045
 20
1525.26
 11
-124.629
 21
1525.02
  0
LINE
  8
0
 10
-124.629
 20
1525.02
 11
-125.179
 21
1524.72
  0
LINE
  8
0
 10
-125.179
 20
1524.72
 11
-125.687
 21
1524.35
  0
LINE
  8
0
 10
-125.687
 20
1524.35
 11
-126
 21
1524.06
  0
LINE
  8
0
 10
-126
 20
1524.06
 11
-126
 21
1525.49
  0
LINE
  8
0
 10
-126
 20
1525.49
 11
-129
 21
1525.49
  0
LINE
  8
0
 10
-129
 20
1525.49
 11
-129
 21
1330.51
  0
LINE
  8
0
 10
-129
 20
1330.51
 11
-126
 21
1330.51
  0
LINE
  8
0
 10
-126
 20
1330.51
 11
-126
 21
1331.94
  0
LINE
  8
0
 10
-122.251
 20
1332.01
 11
-122.75
 21
1332.07
  0
LINE
  8
0
 10
-122.75
 20
1332.07
 11
-123.236
 21
1332.2
  0
LINE
  8
0
 10
-123.236
 20
1332.2
 11
-123.703
 21
1332.38
  0
LINE
  8
0
 10
-123.703
 20
1332.38
 11
-124.143
 21
1332.62
  0
LINE
  8
0
 10
-124.143
 20
1332.62
 11
-124.55
 21
1332.92
  0
LINE
  8
0
 10
-124.55
 20
1332.92
 11
-124.916
 21
1333.26
  0
LINE
  8
0
 10
-124.916
 20
1333.26
 11
-125.236
 21
1333.65
  0
LINE
  8
0
 10
-125.236
 20
1333.65
 11
-125.505
 21
1334.07
  0
LINE
  8
0
 10
-125.505
 20
1334.07
 11
-125.719
 21
1334.53
  0
LINE
  8
0
 10
-125.719
 20
1334.53
 11
-125.874
 21
1335.01
  0
LINE
  8
0
 10
-125.874
 20
1335.01
 11
-125.968
 21
1335.5
  0
LINE
  8
0
 10
-125.968
 20
1335.5
 11
-126
 21
1336
  0
LINE
  8
0
 10
-126
 20
1336
 11
-126
 21
1520
  0
LINE
  8
0
 10
-126
 20
1520
 11
-125.968
 21
1520.5
  0
LINE
  8
0
 10
-125.968
 20
1520.5
 11
-125.874
 21
1520.99
  0
LINE
  8
0
 10
-125.874
 20
1520.99
 11
-125.719
 21
1521.47
  0
LINE
  8
0
 10
-125.719
 20
1521.47
 11
-125.505
 21
1521.93
  0
LINE
  8
0
 10
-125.505
 20
1521.93
 11
-125.236
 21
1522.35
  0
LINE
  8
0
 10
-125.236
 20
1522.35
 11
-124.916
 21
1522.74
  0
LINE
  8
0
 10
-124.916
 20
1522.74
 11
-124.55
 21
1523.08
  0
LINE
  8
0
 10
-124.55
 20
1523.08
 11
-124.143
 21
1523.38
  0
LINE
  8
0
 10
-124.143
 20
1523.38
 11
-123.703
 21
1523.62
  0
LINE
  8
0
 10
-123.703
 20
1523.62
 11
-123.236
 21
1523.8
  0
LINE
  8
0
 10
-123.236
 20
1523.8
 11
-122.75
 21
1523.93
  0
LINE
  8
0
 10
-122.75
 20
1523.93
 11
-122.251
 21
1523.99
  0
LINE
  8
0
 10
-122.251
 20
1523.99
 11
122.251
 21
1523.99
  0
LINE
  8
0
 10
122.251
 20
1523.99
 11
122.75
 21
1523.93
  0
LINE
  8
0
 10
122.75
 20
1523.93
 11
123.236
 21
1523.8
  0
LINE
  8
0
 10
123.236
 20
1523.8
 11
123.703
 21
1523.62
  0
LINE
  8
0
 10
123.703
 20
1523.62
 11
124.143
 21
1523.38
  0
LINE
  8
0
 10
124.143
 20
1523.38
 11
124.55
 21
1523.08
  0
LINE
  8
0
 10
124.55
 20
1523.08
 11
124.916
 21
1522.74
  0
LINE
  8
0
 10
124.916
 20
1522.74
 11
125.236
 21
1522.35
  0
LINE
  8
0
 10
125.236
 20
1522.35
 11
125.505
 21
1521.93
  0
LINE
  8
0
 10
125.505
 20
1521.93
 11
125.719
 21
1521.47
  0
LINE
  8
0
 10
125.719
 20
1521.47
 11
125.874
 21
1520.99
  0
LINE
  8
0
 10
125.874
 20
1520.99
 11
125.968
 21
1520.5
  0
LINE
  8
0
 10
125.968
 20
1520.5
 11
126
 21
1520
  0
LINE
  8
0
 10
126
 20
1520
 11
126
 21
1336
  0
LINE
  8
0
 10
126
 20
1336
 11
125.968
 21
1335.5
  0
LINE
  8
0
 10
125.968
 20
1335.5
 11
125.874
 21
1335.01
  0
LINE
  8
0
 10
125.874
 20
1335.01
 11
125.719
 21
1334.53
  0
LINE
  8
0
 10
125.719
 20
1334.53
 11
125.505
 21
1334.07
  0
LINE
  8
0
 10
125.505
 20
1334.07
 11
125.236
 21
1333.65
  0
LINE
  8
0
 10
125.236
 20
1333.65
 11
124.916
 21
1333.26
  0
LINE
  8
0
 10
124.916
 20
1333.26
 11
124.55
 21
1332.92
  0
LINE
  8
0
 10
124.55
 20
1332.92
 11
124.143
 21
1332.62
  0
LINE
  8
0
 10
124.143
 20
1332.62
 11
123.703
 21
1332.38
  0
LINE
  8
0
 10
123.703
 20
1332.38
 11
123.236
 21
1332.2
  0
LINE
  8
0
 10
123.236
 20
1332.2
 11
122.75
 21
1332.07
  0
LINE
  8
0
 10
122.75
 20
1332.07
 11
122.251
 21
1332.01
  0
LINE
  8
0
 10
122.251
 20
1332.01
 11
-122.251
 21
1332.01
  0
LINE
  8
0
 10
123.437
 20
1126.59
 11
124.045
 21
1126.74
  0
LINE
  8
0
 10
124.045
 20
1126.74
 11
124.629
 21
1126.98
  0
LINE
  8
0
 10
124.629
 20
1126.98
 11
125.179
 21
1127.28
  0
LINE
  8
0
 10
125.179
 20
1127.28
 11
125.687
 21
1127.65
  0
LINE
  8
0
 10
125.687
 20
1127.65
 11
126.145
 21
1128.08
  0
LINE
  8
0
 10
126.145
 20
1128.08
 11
126.545
 21
1128.56
  0
LINE
  8
0
 10
126.545
 20
1128.56
 11
126.882
 21
1129.09
  0
LINE
  8
0
 10
126.882
 20
1129.09
 11
127.149
 21
1129.66
  0
LINE
  8
0
 10
127.149
 20
1129.66
 11
127.343
 21
1130.26
  0
LINE
  8
0
 10
127.343
 20
1130.26
 11
127.461
 21
1130.87
  0
LINE
  8
0
 10
127.461
 20
1130.87
 11
127.5
 21
1131.5
  0
LINE
  8
0
 10
127.5
 20
1131.5
 11
127.5
 21
1316.5
  0
LINE
  8
0
 10
127.5
 20
1316.5
 11
127.461
 21
1317.13
  0
LINE
  8
0
 10
127.461
 20
1317.13
 11
127.343
 21
1317.74
  0
LINE
  8
0
 10
127.343
 20
1317.74
 11
127.149
 21
1318.34
  0
LINE
  8
0
 10
127.149
 20
1318.34
 11
126.882
 21
1318.91
  0
LINE
  8
0
 10
126.882
 20
1318.91
 11
126.545
 21
1319.44
  0
LINE
  8
0
 10
126.545
 20
1319.44
 11
126.145
 21
1319.92
  0
LINE
  8
0
 10
126.145
 20
1319.92
 11
125.687
 21
1320.35
  0
LINE
  8
0
 10
125.687
 20
1320.35
 11
125.179
 21
1320.72
  0
LINE
  8
0
 10
125.179
 20
1320.72
 11
124.629
 21
1321.02
  0
LINE
  8
0
 10
124.629
 20
1321.02
 11
124.045
 21
1321.26
  0
LINE
  8
0
 10
124.045
 20
1321.26
 11
123.437
 21
1321.41
  0
LINE
  8
0
 10
123.437
 20
1321.41
 11
122.814
 21
1321.49
  0
LINE
  8
0
 10
122.814
 20
1321.49
 11
-122.814
 21
1321.49
  0
LINE
  8
0
 10
-122.814
 20
1321.49
 11
-123.437
 21
1321.41
  0
LINE
  8
0
 10
-123.437
 20
1321.41
 11
-124.045
 21
1321.26
  0
LINE
  8
0
 10
-124.045
 20
1321.26
 11
-124.629
 21
1321.02
  0
LINE
  8
0
 10
-124.629
 20
1321.02
 11
-125.179
 21
1320.72
  0
LINE
  8
0
 10
-125.179
 20
1320.72
 11
-125.687
 21
1320.35
  0
LINE
  8
0
 10
-125.687
 20
1320.35
 11
-126
 21
1320.06
  0
LINE
  8
0
 10
-126
 20
1320.06
 11
-126
 21
1321.48
  0
LINE
  8
0
 10
-126
 20
1321.48
 11
-129
 21
1321.48
  0
LINE
  8
0
 10
-129
 20
1321.48
 11
-129
 21
1126.52
  0
LINE
  8
0
 10
-129
 20
1126.52
 11
-126
 21
1126.52
  0
LINE
  8
0
 10
-126
 20
1126.52
 11
-126
 21
1127.94
  0
LINE
  8
0
 10
-126
 20
1127.94
 11
-125.687
 21
1127.65
  0
LINE
  8
0
 10
-125.687
 20
1127.65
 11
-125.179
 21
1127.28
  0
LINE
  8
0
 10
-125.179
 20
1127.28
 11
-124.629
 21
1126.98
  0
LINE
  8
0
 10
-124.629
 20
1126.98
 11
-124.045
 21
1126.74
  0
LINE
  8
0
 10
-124.045
 20
1126.74
 11
-123.437
 21
1126.59
  0
LINE
  8
0
 10
-123.437
 20
1126.59
 11
-122.814
 21
1126.51
  0
LINE
  8
0
 10
-122.814
 20
1126.51
 11
122.814
 21
1126.51
  0
LINE
  8
0
 10
122.814
 20
1126.51
 11
123.437
 21
1126.59
  0
LINE
  8
0
 10
-122.195
 20
1128.89
 11
-122.583
 21
1128.94
  0
LINE
  8
0
 10
-122.583
 20
1128.94
 11
-122.962
 21
1129.04
  0
LINE
  8
0
 10
-122.962
 20
1129.04
 11
-123.325
 21
1129.18
  0
LINE
  8
0
 10
-123.325
 20
1129.18
 11
-123.668
 21
1129.37
  0
LINE
  8
0
 10
-123.668
 20
1129.37
 11
-123.984
 21
1129.6
  0
LINE
  8
0
 10
-123.984
 20
1129.6
 11
-124.269
 21
1129.87
  0
LINE
  8
0
 10
-124.269
 20
1129.87
 11
-124.518
 21
1130.17
  0
LINE
  8
0
 10
-124.518
 20
1130.17
 11
-124.728
 21
1130.5
  0
LINE
  8
0
 10
-124.728
 20
1130.5
 11
-124.894
 21
1130.85
  0
LINE
  8
0
 10
-124.894
 20
1130.85
 11
-125.015
 21
1131.23
  0
LINE
  8
0
 10
-125.015
 20
1131.23
 11
-125.088
 21
1131.61
  0
LINE
  8
0
 10
-125.088
 20
1131.61
 11
-125.113
 21
1132
  0
LINE
  8
0
 10
-125.113
 20
1132
 11
-125.113
 21
1316
  0
LINE
  8
0
 10
-125.113
 20
1316
 11
-125.088
 21
1316.39
  0
LINE
  8
0
 10
-125.088
 20
1316.39
 11
-125.015
 21
1316.77
  0
LINE
  8
0
 10
-125.015
 20
1316.77
 11
-124.894
 21
1317.15
  0
LINE
  8
0
 10
-124.894
 20
1317.15
 11
-124.728
 21
1317.5
  0
LINE
  8
0
 10
-124.728
 20
1317.5
 11
-124.518
 21
1317.83
  0
LINE
  8
0
 10
-124.518
 20
1317.83
 11
-124.269
 21
1318.13
  0
LINE
  8
0
 10
-124.269
 20
1318.13
 11
-123.984
 21
1318.4
  0
LINE
  8
0
 10
-123.984
 20
1318.4
 11
-123.668
 21
1318.63
  0
LINE
  8
0
 10
-123.668
 20
1318.63
 11
-123.325
 21
1318.82
  0
LINE
  8
0
 10
-123.325
 20
1318.82
 11
-122.962
 21
1318.96
  0
LINE
  8
0
 10
-122.962
 20
1318.96
 11
-122.583
 21
1319.06
  0
LINE
  8
0
 10
-122.583
 20
1319.06
 11
-122.195
 21
1319.11
  0
LINE
  8
0
 10
-122.195
 20
1319.11
 11
122.195
 21
1319.11
  0
LINE
  8
0
 10
122.195
 20
1319.11
 11
122.583
 21
1319.06
  0
LINE
  8
0
 10
122.583
 20
1319.06
 11
122.962
 21
1318.96
  0
LINE
  8
0
 10
122.962
 20
1318.96
 11
123.325
 21
1318.82
  0
LINE
  8
0
 10
123.325
 20
1318.82
 11
123.668
 21
1318.63
  0
LINE
  8
0
 10
123.668
 20
1318.63
 11
123.984
 21
1318.4
  0
LINE
  8
0
 10
123.984
 20
1318.4
 11
124.269
 21
1318.13
  0
LINE
  8
0
 10
124.269
 20
1318.13
 11
124.518
 21
1317.83
  0
LINE
  8
0
 10
124.518
 20
1317.83
 11
124.728
 21
1317.5
  0
LINE
  8
0
 10
124.728
 20
1317.5
 11
124.894
 21
1317.15
  0
LINE
  8
0
 10
124.894
 20
1317.15
 11
125.015
 21
1316.77
  0
LINE
  8
0
 10
125.015
 20
1316.77
 11
125.088
 21
1316.39
  0
LINE
  8
0
 10
125.088
 20
1316.39
 11
125.113
 21
1316
  0
LINE
  8
0
 10
125.113
 20
1316
 11
125.113
 21
1132
  0
LINE
  8
0
 10
125.113
 20
1132
 11
125.088
 21
1131.61
  0
LINE
  8
0
 10
125.088
 20
1131.61
 11
125.015
 21
1131.23
  0
LINE
  8
0
 10
125.015
 20
1131.23
 11
124.894
 21
1130.85
  0
LINE
  8
0
 10
124.894
 20
1130.85
 11
124.728
 21
1130.5
  0
LINE
  8
0
 10
124.728
 20
1130.5
 11
124.518
 21
1130.17
  0
LINE
  8
0
 10
124.518
 20
1130.17
 11
124.269
 21
1129.87
  0
LINE
  8
0
 10
124.269
 20
1129.87
 11
123.984
 21
1129.6
  0
LINE
  8
0
 10
123.984
 20
1129.6
 11
123.668
 21
1129.37
  0
LINE
  8
0
 10
123.668
 20
1129.37
 11
123.325
 21
1129.18
  0
LINE
  8
0
 10
123.325
 20
1129.18
 11
122.962
 21
1129.04
  0
LINE
  8
0
 10
122.962
 20
1129.04
 11
122.583
 21
1128.94
  0
LINE
  8
0
 10
122.583
 20
1128.94
 11
122.195
 21
1128.89
  0
LINE
  8
0
 10
122.195
 20
1128.89
 11
-122.195
 21
1128.89
  0
LINE
  8
0
 10
123.437
 20
922.589
 11
124.045
 21
922.745
  0
LINE
  8
0
 10
124.045
 20
922.745
 11
124.629
 21
922.976
  0
LINE
  8
0
 10
124.629
 20
922.976
 11
125.179
 21
923.278
  0
LINE
  8
0
 10
125.179
 20
923.278
 11
125.687
 21
923.647
  0
LINE
  8
0
 10
125.687
 20
923.647
 11
126.145
 21
924.077
  0
LINE
  8
0
 10
126.145
 20
924.077
 11
126.545
 21
924.561
  0
LINE
  8
0
 10
126.545
 20
924.561
 11
126.882
 21
925.091
  0
LINE
  8
0
 10
126.882
 20
925.091
 11
127.149
 21
925.659
  0
LINE
  8
0
 10
127.149
 20
925.659
 11
127.343
 21
926.257
  0
LINE
  8
0
 10
127.343
 20
926.257
 11
127.461
 21
926.873
  0
LINE
  8
0
 10
127.461
 20
926.873
 11
127.5
 21
927.5
  0
LINE
  8
0
 10
127.5
 20
927.5
 11
127.5
 21
1112.5
  0
LINE
  8
0
 10
127.5
 20
1112.5
 11
127.461
 21
1113.13
  0
LINE
  8
0
 10
127.461
 20
1113.13
 11
127.343
 21
1113.74
  0
LINE
  8
0
 10
127.343
 20
1113.74
 11
127.149
 21
1114.34
  0
LINE
  8
0
 10
127.149
 20
1114.34
 11
126.882
 21
1114.91
  0
LINE
  8
0
 10
126.882
 20
1114.91
 11
126.545
 21
1115.44
  0
LINE
  8
0
 10
126.545
 20
1115.44
 11
126.145
 21
1115.92
  0
LINE
  8
0
 10
126.145
 20
1115.92
 11
125.687
 21
1116.35
  0
LINE
  8
0
 10
125.687
 20
1116.35
 11
125.179
 21
1116.72
  0
LINE
  8
0
 10
125.179
 20
1116.72
 11
124.629
 21
1117.02
  0
LINE
  8
0
 10
124.629
 20
1117.02
 11
124.045
 21
1117.26
  0
LINE
  8
0
 10
124.045
 20
1117.26
 11
123.437
 21
1117.41
  0
LINE
  8
0
 10
123.437
 20
1117.41
 11
122.814
 21
1117.49
  0
LINE
  8
0
 10
122.814
 20
1117.49
 11
-122.814
 21
1117.49
  0
LINE
  8
0
 10
-122.814
 20
1117.49
 11
-123.437
 21
1117.41
  0
LINE
  8
0
 10
-123.437
 20
1117.41
 11
-124.045
 21
1117.26
  0
LINE
  8
0
 10
-124.045
 20
1117.26
 11
-124.629
 21
1117.02
  0
LINE
  8
0
 10
-124.629
 20
1117.02
 11
-125.179
 21
1116.72
  0
LINE
  8
0
 10
-125.179
 20
1116.72
 11
-125.687
 21
1116.35
  0
LINE
  8
0
 10
-125.687
 20
1116.35
 11
-126
 21
1116.06
  0
LINE
  8
0
 10
-126
 20
1116.06
 11
-126
 21
1116.15
  0
LINE
  8
0
 10
-126
 20
1116.15
 11
-129
 21
1116.15
  0
LINE
  8
0
 10
-129
 20
1116.15
 11
-129
 21
923.847
  0
LINE
  8
0
 10
-129
 20
923.847
 11
-126
 21
923.847
  0
LINE
  8
0
 10
-126
 20
923.847
 11
-126
 21
923.941
  0
LINE
  8
0
 10
-126
 20
923.941
 11
-125.687
 21
923.647
  0
LINE
  8
0
 10
-125.687
 20
923.647
 11
-125.179
 21
923.278
  0
LINE
  8
0
 10
-125.179
 20
923.278
 11
-124.629
 21
922.976
  0
LINE
  8
0
 10
-124.629
 20
922.976
 11
-124.045
 21
922.745
  0
LINE
  8
0
 10
-124.045
 20
922.745
 11
-123.437
 21
922.589
  0
LINE
  8
0
 10
-123.437
 20
922.589
 11
-122.814
 21
922.51
  0
LINE
  8
0
 10
-122.814
 20
922.51
 11
122.814
 21
922.51
  0
LINE
  8
0
 10
122.814
 20
922.51
 11
123.437
 21
922.589
  0
LINE
  8
0
 10
-120.134
 20
1107.87
 11
-120.4
 21
1107.9
  0
LINE
  8
0
 10
-120.4
 20
1107.9
 11
-120.66
 21
1107.97
  0
LINE
  8
0
 10
-120.66
 20
1107.97
 11
-120.909
 21
1108.07
  0
LINE
  8
0
 10
-120.909
 20
1108.07
 11
-121.144
 21
1108.2
  0
LINE
  8
0
 10
-121.144
 20
1108.2
 11
-121.361
 21
1108.35
  0
LINE
  8
0
 10
-121.361
 20
1108.35
 11
-121.557
 21
1108.54
  0
LINE
  8
0
 10
-121.557
 20
1108.54
 11
-121.727
 21
1108.74
  0
LINE
  8
0
 10
-121.727
 20
1108.74
 11
-121.871
 21
1108.97
  0
LINE
  8
0
 10
-121.871
 20
1108.97
 11
-121.985
 21
1109.21
  0
LINE
  8
0
 10
-121.985
 20
1109.21
 11
-122.068
 21
1109.47
  0
LINE
  8
0
 10
-122.068
 20
1109.47
 11
-122.118
 21
1109.73
  0
LINE
  8
0
 10
-122.118
 20
1109.73
 11
-122.135
 21
1110
  0
LINE
  8
0
 10
-122.135
 20
1110
 11
-122.118
 21
1110.27
  0
LINE
  8
0
 10
-122.118
 20
1110.27
 11
-122.068
 21
1110.53
  0
LINE
  8
0
 10
-122.068
 20
1110.53
 11
-121.985
 21
1110.79
  0
LINE
  8
0
 10
-121.985
 20
1110.79
 11
-121.871
 21
1111.03
  0
LINE
  8
0
 10
-121.871
 20
1111.03
 11
-121.727
 21
1111.26
  0
LINE
  8
0
 10
-121.727
 20
1111.26
 11
-121.557
 21
1111.46
  0
LINE
  8
0
 10
-121.557
 20
1111.46
 11
-121.361
 21
1111.65
  0
LINE
  8
0
 10
-121.361
 20
1111.65
 11
-121.144
 21
1111.8
  0
LINE
  8
0
 10
-121.144
 20
1111.8
 11
-120.909
 21
1111.93
  0
LINE
  8
0
 10
-120.909
 20
1111.93
 11
-120.66
 21
1112.03
  0
LINE
  8
0
 10
-120.66
 20
1112.03
 11
-120.4
 21
1112.1
  0
LINE
  8
0
 10
-120.4
 20
1112.1
 11
-120.134
 21
1112.13
  0
LINE
  8
0
 10
-120.134
 20
1112.13
 11
-119.866
 21
1112.13
  0
LINE
  8
0
 10
-119.866
 20
1112.13
 11
-119.6
 21
1112.1
  0
LINE
  8
0
 10
-119.6
 20
1112.1
 11
-119.34
 21
1112.03
  0
LINE
  8
0
 10
-119.34
 20
1112.03
 11
-119.091
 21
1111.93
  0
LINE
  8
0
 10
-119.091
 20
1111.93
 11
-118.856
 21
1111.8
  0
LINE
  8
0
 10
-118.856
 20
1111.8
 11
-118.639
 21
1111.65
  0
LINE
  8
0
 10
-118.639
 20
1111.65
 11
-118.443
 21
1111.46
  0
LINE
  8
0
 10
-118.443
 20
1111.46
 11
-118.273
 21
1111.26
  0
LINE
  8
0
 10
-118.273
 20
1111.26
 11
-118.129
 21
1111.03
  0
LINE
  8
0
 10
-118.129
 20
1111.03
 11
-118.015
 21
1110.79
  0
LINE
  8
0
 10
-118.015
 20
1110.79
 11
-117.932
 21
1110.53
  0
LINE
  8
0
 10
-117.932
 20
1110.53
 11
-117.882
 21
1110.27
  0
LINE
  8
0
 10
-117.882
 20
1110.27
 11
-117.865
 21
1110
  0
LINE
  8
0
 10
-117.865
 20
1110
 11
-117.882
 21
1109.73
  0
LINE
  8
0
 10
-117.882
 20
1109.73
 11
-117.932
 21
1109.47
  0
LINE
  8
0
 10
-117.932
 20
1109.47
 11
-118.015
 21
1109.21
  0
LINE
  8
0
 10
-118.015
 20
1109.21
 11
-118.129
 21
1108.97
  0
LINE
  8
0
 10
-118.129
 20
1108.97
 11
-118.273
 21
1108.74
  0
LINE
  8
0
 10
-118.273
 20
1108.74
 11
-118.443
 21
1108.54
  0
LINE
  8
0
 10
-118.443
 20
1108.54
 11
-118.639
 21
1108.35
  0
LINE
  8
0
 10
-118.639
 20
1108.35
 11
-118.856
 21
1108.2
  0
LINE
  8
0
 10
-118.856
 20
1108.2
 11
-119.091
 21
1108.07
  0
LINE
  8
0
 10
-119.091
 20
1108.07
 11
-119.34
 21
1107.97
  0
LINE
  8
0
 10
-119.34
 20
1107.97
 11
-119.6
 21
1107.9
  0
LINE
  8
0
 10
-119.6
 20
1107.9
 11
-119.866
 21
1107.87
  0
LINE
  8
0
 10
-119.866
 20
1107.87
 11
-120.134
 21
1107.87
  0
LINE
  8
0
 10
119.866
 20
1107.87
 11
119.6
 21
1107.9
  0
LINE
  8
0
 10
119.6
 20
1107.9
 11
119.34
 21
1107.97
  0
LINE
  8
0
 10
119.34
 20
1107.97
 11
119.091
 21
1108.07
  0
LINE
  8
0
 10
119.091
 20
1108.07
 11
118.856
 21
1108.2
  0
LINE
  8
0
 10
118.856
 20
1108.2
 11
118.639
 21
1108.35
  0
LINE
  8
0
 10
118.639
 20
1108.35
 11
118.443
 21
1108.54
  0
LINE
  8
0
 10
118.443
 20
1108.54
 11
118.273
 21
1108.74
  0
LINE
  8
0
 10
118.273
 20
1108.74
 11
118.129
 21
1108.97
  0
LINE
  8
0
 10
118.129
 20
1108.97
 11
118.015
 21
1109.21
  0
LINE
  8
0
 10
118.015
 20
1109.21
 11
117.932
 21
1109.47
  0
LINE
  8
0
 10
117.932
 20
1109.47
 11
117.882
 21
1109.73
  0
LINE
  8
0
 10
117.882
 20
1109.73
 11
117.865
 21
1110
  0
LINE
  8
0
 10
117.865
 20
1110
 11
117.882
 21
1110.27
  0
LINE
  8
0
 10
117.882
 20
1110.27
 11
117.932
 21
1110.53
  0
LINE
  8
0
 10
117.932
 20
1110.53
 11
118.015
 21
1110.79
  0
LINE
  8
0
 10
118.015
 20
1110.79
 11
118.129
 21
1111.03
  0
LINE
  8
0
 10
118.129
 20
1111.03
 11
118.273
 21
1111.26
  0
LINE
  8
0
 10
118.273
 20
1111.26
 11
118.443
 21
1111.46
  0
LINE
  8
0
 10
118.443
 20
1111.46
 11
118.639
 21
1111.65
  0
LINE
  8
0
 10
118.639
 20
1111.65
 11
118.856
 21
1111.8
  0
LINE
  8
0
 10
118.856
 20
1111.8
 11
119.091
 21
1111.93
  0
LINE
  8
0
 10
119.091
 20
1111.93
 11
119.34
 21
1112.03
  0
LINE
  8
0
 10
119.34
 20
1112.03
 11
119.6
 21
1112.1
  0
LINE
  8
0
 10
119.6
 20
1112.1
 11
119.866
 21
1112.13
  0
LINE
  8
0
 10
119.866
 20
1112.13
 11
120.134
 21
1112.13
  0
LINE
  8
0
 10
120.134
 20
1112.13
 11
120.4
 21
1112.1
  0
LINE
  8
0
 10
120.4
 20
1112.1
 11
120.66
 21
1112.03
  0
LINE
  8
0
 10
120.66
 20
1112.03
 11
120.909
 21
1111.93
  0
LINE
  8
0
 10
120.909
 20
1111.93
 11
121.144
 21
1111.8
  0
LINE
  8
0
 10
121.144
 20
1111.8
 11
121.361
 21
1111.65
  0
LINE
  8
0
 10
121.361
 20
1111.65
 11
121.557
 21
1111.46
  0
LINE
  8
0
 10
121.557
 20
1111.46
 11
121.727
 21
1111.26
  0
LINE
  8
0
 10
121.727
 20
1111.26
 11
121.871
 21
1111.03
  0
LINE
  8
0
 10
121.871
 20
1111.03
 11
121.985
 21
1110.79
  0
LINE
  8
0
 10
121.985
 20
1110.79
 11
122.068
 21
1110.53
  0
LINE
  8
0
 10
122.068
 20
1110.53
 11
122.118
 21
1110.27
  0
LINE
  8
0
 10
122.118
 20
1110.27
 11
122.135
 21
1110
  0
LINE
  8
0
 10
122.135
 20
1110
 11
122.118
 21
1109.73
  0
LINE
  8
0
 10
122.118
 20
1109.73
 11
122.068
 21
1109.47
  0
LINE
  8
0
 10
122.068
 20
1109.47
 11
121.985
 21
1109.21
  0
LINE
  8
0
 10
121.985
 20
1109.21
 11
121.871
 21
1108.97
  0
LINE
  8
0
 10
121.871
 20
1108.97
 11
121.727
 21
1108.74
  0
LINE
  8
0
 10
121.727
 20
1108.74
 11
121.557
 21
1108.54
  0
LINE
  8
0
 10
121.557
 20
1108.54
 11
121.361
 21
1108.35
  0
LINE
  8
0
 10
121.361
 20
1108.35
 11
121.144
 21
1108.2
  0
LINE
  8
0
 10
121.144
 20
1108.2
 11
120.909
 21
1108.07
  0
LINE
  8
0
 10
120.909
 20
1108.07
 11
120.66
 21
1107.97
  0
LINE
  8
0
 10
120.66
 20
1107.97
 11
120.4
 21
1107.9
  0
LINE
  8
0
 10
120.4
 20
1107.9
 11
120.134
 21
1107.87
  0
LINE
  8
0
 10
120.134
 20
1107.87
 11
119.866
 21
1107.87
  0
LINE
  8
0
 10
-120.134
 20
927.869
 11
-120.4
 21
927.903
  0
LINE
  8
0
 10
-120.4
 20
927.903
 11
-120.66
 21
927.969
  0
LINE
  8
0
 10
-120.66
 20
927.969
 11
-120.909
 21
928.068
  0
LINE
  8
0
 10
-120.909
 20
928.068
 11
-121.144
 21
928.197
  0
LINE
  8
0
 10
-121.144
 20
928.197
 11
-121.361
 21
928.355
  0
LINE
  8
0
 10
-121.361
 20
928.355
 11
-121.557
 21
928.538
  0
LINE
  8
0
 10
-121.557
 20
928.538
 11
-121.727
 21
928.745
  0
LINE
  8
0
 10
-121.727
 20
928.745
 11
-121.871
 21
928.971
  0
LINE
  8
0
 10
-121.871
 20
928.971
 11
-121.985
 21
929.214
  0
LINE
  8
0
 10
-121.985
 20
929.214
 11
-122.068
 21
929.469
  0
LINE
  8
0
 10
-122.068
 20
929.469
 11
-122.118
 21
929.732
  0
LINE
  8
0
 10
-122.118
 20
929.732
 11
-122.135
 21
930
  0
LINE
  8
0
 10
-122.135
 20
930
 11
-122.118
 21
930.268
  0
LINE
  8
0
 10
-122.118
 20
930.268
 11
-122.068
 21
930.531
  0
LINE
  8
0
 10
-122.068
 20
930.531
 11
-121.985
 21
930.786
  0
LINE
  8
0
 10
-121.985
 20
930.786
 11
-121.871
 21
931.029
  0
LINE
  8
0
 10
-121.871
 20
931.029
 11
-121.727
 21
931.255
  0
LINE
  8
0
 10
-121.727
 20
931.255
 11
-121.557
 21
931.462
  0
LINE
  8
0
 10
-121.557
 20
931.462
 11
-121.361
 21
931.645
  0
LINE
  8
0
 10
-121.361
 20
931.645
 11
-121.144
 21
931.803
  0
LINE
  8
0
 10
-121.144
 20
931.803
 11
-120.909
 21
931.932
  0
LINE
  8
0
 10
-120.909
 20
931.932
 11
-120.66
 21
932.031
  0
LINE
  8
0
 10
-120.66
 20
932.031
 11
-120.4
 21
932.097
  0
LINE
  8
0
 10
-120.4
 20
932.097
 11
-120.134
 21
932.131
  0
LINE
  8
0
 10
-120.134
 20
932.131
 11
-119.866
 21
932.131
  0
LINE
  8
0
 10
-119.866
 20
932.131
 11
-119.6
 21
932.097
  0
LINE
  8
0
 10
-119.6
 20
932.097
 11
-119.34
 21
932.031
  0
LINE
  8
0
 10
-119.34
 20
932.031
 11
-119.091
 21
931.932
  0
LINE
  8
0
 10
-119.091
 20
931.932
 11
-118.856
 21
931.803
  0
LINE
  8
0
 10
-118.856
 20
931.803
 11
-118.639
 21
931.645
  0
LINE
  8
0
 10
-118.639
 20
931.645
 11
-118.443
 21
931.462
  0
LINE
  8
0
 10
-118.443
 20
931.462
 11
-118.273
 21
931.255
  0
LINE
  8
0
 10
-118.273
 20
931.255
 11
-118.129
 21
931.029
  0
LINE
  8
0
 10
-118.129
 20
931.029
 11
-118.015
 21
930.786
  0
LINE
  8
0
 10
-118.015
 20
930.786
 11
-117.932
 21
930.531
  0
LINE
  8
0
 10
-117.932
 20
930.531
 11
-117.882
 21
930.268
  0
LINE
  8
0
 10
-117.882
 20
930.268
 11
-117.865
 21
930
  0
LINE
  8
0
 10
-117.865
 20
930
 11
-117.882
 21
929.732
  0
LINE
  8
0
 10
-117.882
 20
929.732
 11
-117.932
 21
929.469
  0
LINE
  8
0
 10
-117.932
 20
929.469
 11
-118.015
 21
929.214
  0
LINE
  8
0
 10
-118.015
 20
929.214
 11
-118.129
 21
928.971
  0
LINE
  8
0
 10
-118.129
 20
928.971
 11
-118.273
 21
928.745
  0
LINE
  8
0
 10
-118.273
 20
928.745
 11
-118.443
 21
928.538
  0
LINE
  8
0
 10
-118.443
 20
928.538
 11
-118.639
 21
928.355
  0
LINE
  8
0
 10
-118.639
 20
928.355
 11
-118.856
 21
928.197
  0
LINE
  8
0
 10
-118.856
 20
928.197
 11
-119.091
 21
928.068
  0
LINE
  8
0
 10
-119.091
 20
928.068
 11
-119.34
 21
927.969
  0
LINE
  8
0
 10
-119.34
 20
927.969
 11
-119.6
 21
927.903
  0
LINE
  8
0
 10
-119.6
 20
927.903
 11
-119.866
 21
927.869
  0
LINE
  8
0
 10
-119.866
 20
927.869
 11
-120.134
 21
927.869
  0
LINE
  8
0
 10
119.866
 20
927.869
 11
119.6
 21
927.903
  0
LINE
  8
0
 10
119.6
 20
927.903
 11
119.34
 21
927.969
  0
LINE
  8
0
 10
119.34
 20
927.969
 11
119.091
 21
928.068
  0
LINE
  8
0
 10
119.091
 20
928.068
 11
118.856
 21
928.197
  0
LINE
  8
0
 10
118.856
 20
928.197
 11
118.639
 21
928.355
  0
LINE
  8
0
 10
118.639
 20
928.355
 11
118.443
 21
928.538
  0
LINE
  8
0
 10
118.443
 20
928.538
 11
118.273
 21
928.745
  0
LINE
  8
0
 10
118.273
 20
928.745
 11
118.129
 21
928.971
  0
LINE
  8
0
 10
118.129
 20
928.971
 11
118.015
 21
929.214
  0
LINE
  8
0
 10
118.015
 20
929.214
 11
117.932
 21
929.469
  0
LINE
  8
0
 10
117.932
 20
929.469
 11
117.882
 21
929.732
  0
LINE
  8
0
 10
117.882
 20
929.732
 11
117.865
 21
930
  0
LINE
  8
0
 10
117.865
 20
930
 11
117.882
 21
930.268
  0
LINE
  8
0
 10
117.882
 20
930.268
 11
117.932
 21
930.531
  0
LINE
  8
0
 10
117.932
 20
930.531
 11
118.015
 21
930.786
  0
LINE
  8
0
 10
118.015
 20
930.786
 11
118.129
 21
931.029
  0
LINE
  8
0
 10
118.129
 20
931.029
 11
118.273
 21
931.255
  0
LINE
  8
0
 10
118.273
 20
931.255
 11
118.443
 21
931.462
  0
LINE
  8
0
 10
118.443
 20
931.462
 11
118.639
 21
931.645
  0
LINE
  8
0
 10
118.639
 20
931.645
 11
118.856
 21
931.803
  0
LINE
  8
0
 10
118.856
 20
931.803
 11
119.091
 21
931.932
  0
LINE
  8
0
 10
119.091
 20
931.932
 11
119.34
 21
932.031
  0
LINE
  8
0
 10
119.34
 20
932.031
 11
119.6
 21
932.097
  0
LINE
  8
0
 10
119.6
 20
932.097
 11
119.866
 21
932.131
  0
LINE
  8
0
 10
119.866
 20
932.131
 11
120.134
 21
932.131
  0
LINE
  8
0
 10
120.134
 20
932.131
 11
120.4
 21
932.097
  0
LINE
  8
0
 10
120.4
 20
932.097
 11
120.66
 21
932.031
  0
LINE
  8
0
 10
120.66
 20
932.031
 11
120.909
 21
931.932
  0
LINE
  8
0
 10
120.909
 20
931.932
 11
121.144
 21
931.803
  0
LINE
  8
0
 10
121.144
 20
931.803
 11
121.361
 21
931.645
  0
LINE
  8
0
 10
121.361
 20
931.645
 11
121.557
 21
931.462
  0
LINE
  8
0
 10
121.557
 20
931.462
 11
121.727
 21
931.255
  0
LINE
  8
0
 10
121.727
 20
931.255
 11
121.871
 21
931.029
  0
LINE
  8
0
 10
121.871
 20
931.029
 11
121.985
 21
930.786
  0
LINE
  8
0
 10
121.985
 20
930.786
 11
122.068
 21
930.531
  0
LINE
  8
0
 10
122.068
 20
930.531
 11
122.118
 21
930.268
  0
LINE
  8
0
 10
122.118
 20
930.268
 11
122.135
 21
930
  0
LINE
  8
0
 10
122.135
 20
930
 11
122.118
 21
929.732
  0
LINE
  8
0
 10
122.118
 20
929.732
 11
122.068
 21
929.469
  0
LINE
  8
0
 10
122.068
 20
929.469
 11
121.985
 21
929.214
  0
LINE
  8
0
 10
121.985
 20
929.214
 11
121.871
 21
928.971
  0
LINE
  8
0
 10
121.871
 20
928.971
 11
121.727
 21
928.745
  0
LINE
  8
0
 10
121.727
 20
928.745
 11
121.557
 21
928.538
  0
LINE
  8
0
 10
121.557
 20
928.538
 11
121.361
 21
928.355
  0
LINE
  8
0
 10
121.361
 20
928.355
 11
121.144
 21
928.197
  0
LINE
  8
0
 10
121.144
 20
928.197
 11
120.909
 21
928.068
  0
LINE
  8
0
 10
120.909
 20
928.068
 11
120.66
 21
927.969
  0
LINE
  8
0
 10
120.66
 20
927.969
 11
120.4
 21
927.903
  0
LINE
  8
0
 10
120.4
 20
927.903
 11
120.134
 21
927.869
  0
LINE
  8
0
 10
120.134
 20
927.869
 11
119.866
 21
927.869
  0
ENDSEC
  0
SECTION
  2
OBJECTS
  0
DICTIONARY
  0
ENDSEC
  0
EOF
