<?xml version="1.0" standalone="no"?>
<!DOCTYPE svg PUBLIC "-//W3C//DTD SVG 1.1//EN" "http://www.w3.org/Graphics/SVG/1.1/DTD/svg11.dtd">
<svg width="226mm" height="1536mm" viewBox="-113 -2931 226 1536" xmlns="http://www.w3.org/2000/svg" version="1.1">
<title>OpenSCAD Model</title>
<path d="
M 108.437,-2631.09 L 109.045,-2631.24 L 109.629,-2631.48 L 110.179,-2631.78 L 110.687,-2632.15 L 111.145,-2632.58
 L 111.545,-2633.06 L 111.882,-2633.59 L 112.149,-2634.16 L 112.343,-2634.76 L 112.461,-2635.37 L 112.5,-2636
 L 112.5,-2926 L 112.461,-2926.63 L 112.343,-2927.24 L 112.149,-2927.84 L 111.882,-2928.41 L 111.545,-2928.94
 L 111.145,-2929.42 L 110.687,-2929.85 L 110.179,-2930.22 L 109.629,-2930.52 L 109.045,-2930.76 L 108.437,-2930.91
 L 107.814,-2930.99 L -107.814,-2930.99 L -108.437,-2930.91 L -109.045,-2930.76 L -109.629,-2930.52 L -110.179,-2930.22
 L -110.687,-2929.85 L -111.145,-2929.42 L -111.545,-2928.94 L -111.882,-2928.41 L -112.149,-2927.84 L -112.343,-2927.24
 L -112.461,-2926.63 L -112.5,-2926 L -112.5,-2636 L -112.461,-2635.37 L -112.343,-2634.76 L -112.149,-2634.16
 L -111.882,-2633.59 L -111.545,-2633.06 L -111.145,-2632.58 L -110.687,-2632.15 L -110.179,-2631.78 L -109.629,-2631.48
 L -109.045,-2631.24 L -108.437,-2631.09 L -107.814,-2631.01 L 107.814,-2631.01 z
M -107.251,-2632.51 L -107.75,-2632.57 L -108.236,-2632.7 L -108.703,-2632.88 L -109.143,-2633.12 L -109.55,-2633.42
 L -109.916,-2633.76 L -110.236,-2634.15 L -110.505,-2634.57 L -110.719,-2635.03 L -110.874,-2635.51 L -110.968,-2636
 L -111,-2636.5 L -111,-2925.5 L -110.968,-2926 L -110.874,-2926.49 L -110.719,-2926.97 L -110.505,-2927.43
 L -110.236,-2927.85 L -109.916,-2928.24 L -109.55,-2928.58 L -109.143,-2928.88 L -108.703,-2929.12 L -108.236,-2929.3
 L -107.75,-2929.43 L -107.251,-2929.49 L 107.251,-2929.49 L 107.75,-2929.43 L 108.236,-2929.3 L 108.703,-2929.12
 L 109.143,-2928.88 L 109.55,-2928.58 L 109.916,-2928.24 L 110.236,-2927.85 L 110.505,-2927.43 L 110.719,-2926.97
 L 110.874,-2926.49 L 110.968,-2926 L 111,-2925.5 L 111,-2636.5 L 110.968,-2636 L 110.874,-2635.51
 L 110.719,-2635.03 L 110.505,-2634.57 L 110.236,-2634.15 L 109.916,-2633.76 L 109.55,-2633.42 L 109.143,-2633.12
 L 108.703,-2632.88 L 108.236,-2632.7 L 107.75,-2632.57 L 107.251,-2632.51 z
M 108.437,-2322.09 L 109.045,-2322.24 L 109.629,-2322.48 L 110.179,-2322.78 L 110.687,-2323.15 L 111.145,-2323.58
 L 111.545,-2324.06 L 111.882,-2324.59 L 112.149,-2325.16 L 112.343,-2325.76 L 112.461,-2326.37 L 112.5,-2327
 L 112.5,-2617 L 112.461,-2617.63 L 112.343,-2618.24 L 112.149,-2618.84 L 111.882,-2619.41 L 111.545,-2619.94
 L 111.145,-2620.42 L 110.687,-2620.85 L 110.179,-2621.22 L 109.629,-2621.52 L 109.045,-2621.76 L 108.437,-2621.91
 L 107.814,-2621.99 L -107.814,-2621.99 L -108.437,-2621.91 L -109.045,-2621.76 L -109.629,-2621.52 L -110.179,-2621.22
 L -110.687,-2620.85 L -111.145,-2620.42 L -111.545,-2619.94 L -111.882,-2619.41 L -112.149,-2618.84 L -112.343,-2618.24
 L -112.461,-2617.63 L -112.5,-2617 L -112.5,-2327 L -112.461,-2326.37 L -112.343,-2325.76 L -112.149,-2325.16
 L -111.882,-2324.59 L -111.545,-2324.06 L -111.145,-2323.58 L -110.687,-2323.15 L -110.179,-2322.78 L -109.629,-2322.48
 L -109.045,-2322.24 L -108.437,-2322.09 L -107.814,-2322.01 L 107.814,-2322.01 z
M -107.251,-2323.51 L -107.75,-2323.57 L -108.236,-2323.7 L -108.703,-2323.88 L -109.143,-2324.12 L -109.55,-2324.42
 L -109.916,-2324.76 L -110.236,-2325.15 L -110.505,-2325.57 L -110.719,-2326.03 L -110.874,-2326.51 L -110.968,-2327
 L -111,-2327.5 L -111,-2616.5 L -110.968,-2617 L -110.874,-2617.49 L -110.719,-2617.97 L -110.505,-2618.43
 L -110.236,-2618.85 L -109.916,-2619.24 L -109.55,-2619.58 L -109.143,-2619.88 L -108.703,-2620.12 L -108.236,-2620.3
 L -107.75,-2620.43 L -107.251,-2620.49 L 107.251,-2620.49 L 107.75,-2620.43 L 108.236,-2620.3 L 108.703,-2620.12
 L 109.143,-2619.88 L 109.55,-2619.58 L 109.916,-2619.24 L 110.236,-2618.85 L 110.505,-2618.43 L 110.719,-2617.97
 L 110.874,-2617.49 L 110.968,-2617 L 111,-2616.5 L 111,-2327.5 L 110.968,-2327 L 110.874,-2326.51
 L 110.719,-2326.03 L 110.505,-2325.57 L 110.236,-2325.15 L 109.916,-2324.76 L 109.55,-2324.42 L 109.143,-2324.12
 L 108.703,-2323.88 L 108.236,-2323.7 L 107.75,-2323.57 L 107.251,-2323.51 z
M 108.437,-2013.09 L 109.045,-2013.24 L 109.629,-2013.48 L 110.179,-2013.78 L 110.687,-2014.15 L 111.145,-2014.58
 L 111.545,-2015.06 L 111.882,-2015.59 L 112.149,-2016.16 L 112.343,-2016.76 L 112.461,-2017.37 L 112.5,-2018
 L 112.5,-2308 L 112.461,-2308.63 L 112.343,-2309.24 L 112.149,-2309.84 L 111.882,-2310.41 L 111.545,-2310.94
 L 111.145,-2311.42 L 110.687,-2311.85 L 110.179,-2312.22 L 109.629,-2312.52 L 109.045,-2312.76 L 108.437,-2312.91
 L 107.814,-2312.99 L -107.814,-2312.99 L -108.437,-2312.91 L -109.045,-2312.76 L -109.629,-2312.52 L -110.179,-2312.22
 L -110.687,-2311.85 L -111.145,-2311.42 L -111.545,-2310.94 L -111.882,-2310.41 L -112.149,-2309.84 L -112.343,-2309.24
 L -112.461,-2308.63 L -112.5,-2308 L -112.5,-2018 L -112.461,-2017.37 L -112.343,-2016.76 L -112.149,-2016.16
 L -111.882,-2015.59 L -111.545,-2015.06 L -111.145,-2014.58 L -110.687,-2014.15 L -110.179,-2013.78 L -109.629,-2013.48
 L -109.045,-2013.24 L -108.437,-2013.09 L -107.814,-2013.01 L 107.814,-2013.01 z
M -107.251,-2014.51 L -107.75,-2014.57 L -108.236,-2014.7 L -108.703,-2014.88 L -109.143,-2015.12 L -109.55,-2015.42
 L -109.916,-2015.76 L -110.236,-2016.15 L -110.505,-2016.57 L -110.719,-2017.03 L -110.874,-2017.51 L -110.968,-2018
 L -111,-2018.5 L -111,-2307.5 L -110.968,-2308 L -110.874,-2308.49 L -110.719,-2308.97 L -110.505,-2309.43
 L -110.236,-2309.85 L -109.916,-2310.24 L -109.55,-2310.58 L -109.143,-2310.88 L -108.703,-2311.12 L -108.236,-2311.3
 L -107.75,-2311.43 L -107.251,-2311.49 L 107.251,-2311.49 L 107.75,-2311.43 L 108.236,-2311.3 L 108.703,-2311.12
 L 109.143,-2310.88 L 109.55,-2310.58 L 109.916,-2310.24 L 110.236,-2309.85 L 110.505,-2309.43 L 110.719,-2308.97
 L 110.874,-2308.49 L 110.968,-2308 L 111,-2307.5 L 111,-2018.5 L 110.968,-2018 L 110.874,-2017.51
 L 110.719,-2017.03 L 110.505,-2016.57 L 110.236,-2016.15 L 109.916,-2015.76 L 109.55,-2015.42 L 109.143,-2015.12
 L 108.703,-2014.88 L 108.236,-2014.7 L 107.75,-2014.57 L 107.251,-2014.51 z
M 108.437,-1704.09 L 109.045,-1704.24 L 109.629,-1704.48 L 110.179,-1704.78 L 110.687,-1705.15 L 111.145,-1705.58
 L 111.545,-1706.06 L 111.882,-1706.59 L 112.149,-1707.16 L 112.343,-1707.76 L 112.461,-1708.37 L 112.5,-1709
 L 112.5,-1999 L 112.461,-1999.63 L 112.343,-2000.24 L 112.149,-2000.84 L 111.882,-2001.41 L 111.545,-2001.94
 L 111.145,-2002.42 L 110.687,-2002.85 L 110.179,-2003.22 L 109.629,-2003.52 L 109.045,-2003.76 L 108.437,-2003.91
 L 107.814,-2003.99 L -107.814,-2003.99 L -108.437,-2003.91 L -109.045,-2003.76 L -109.629,-2003.52 L -110.179,-2003.22
 L -110.687,-2002.85 L -111.145,-2002.42 L -111.545,-2001.94 L -111.882,-2001.41 L -112.149,-2000.84 L -112.343,-2000.24
 L -112.461,-1999.63 L -112.5,-1999 L -112.5,-1709 L -112.461,-1708.37 L -112.343,-1707.76 L -112.149,-1707.16
 L -111.882,-1706.59 L -111.545,-1706.06 L -111.145,-1705.58 L -110.687,-1705.15 L -110.179,-1704.78 L -109.629,-1704.48
 L -109.045,-1704.24 L -108.437,-1704.09 L -107.814,-1704.01 L 107.814,-1704.01 z
M -107.195,-1706.39 L -107.583,-1706.44 L -107.962,-1706.54 L -108.325,-1706.68 L -108.668,-1706.87 L -108.984,-1707.1
 L -109.269,-1707.37 L -109.518,-1707.67 L -109.728,-1708 L -109.894,-1708.35 L -110.015,-1708.73 L -110.088,-1709.11
 L -110.113,-1709.5 L -110.113,-1998.5 L -110.088,-1998.89 L -110.015,-1999.27 L -109.894,-1999.65 L -109.728,-2000
 L -109.518,-2000.33 L -109.269,-2000.63 L -108.984,-2000.9 L -108.668,-2001.13 L -108.325,-2001.32 L -107.962,-2001.46
 L -107.583,-2001.56 L -107.195,-2001.61 L 107.195,-2001.61 L 107.583,-2001.56 L 107.962,-2001.46 L 108.325,-2001.32
 L 108.668,-2001.13 L 108.984,-2000.9 L 109.269,-2000.63 L 109.518,-2000.33 L 109.728,-2000 L 109.894,-1999.65
 L 110.015,-1999.27 L 110.088,-1998.89 L 110.113,-1998.5 L 110.113,-1709.5 L 110.088,-1709.11 L 110.015,-1708.73
 L 109.894,-1708.35 L 109.728,-1708 L 109.518,-1707.67 L 109.269,-1707.37 L 108.984,-1707.1 L 108.668,-1706.87
 L 108.325,-1706.68 L 107.962,-1706.54 L 107.583,-1706.44 L 107.195,-1706.39 z
M 108.437,-1395.09 L 109.045,-1395.24 L 109.629,-1395.48 L 110.179,-1395.78 L 110.687,-1396.15 L 111.145,-1396.58
 L 111.545,-1397.06 L 111.882,-1397.59 L 112.149,-1398.16 L 112.343,-1398.76 L 112.461,-1399.37 L 112.5,-1400
 L 112.5,-1690 L 112.461,-1690.63 L 112.343,-1691.24 L 112.149,-1691.84 L 111.882,-1692.41 L 111.545,-1692.94
 L 111.145,-1693.42 L 110.687,-1693.85 L 110.179,-1694.22 L 109.629,-1694.52 L 109.045,-1694.76 L 108.437,-1694.91
 L 107.814,-1694.99 L -107.814,-1694.99 L -108.437,-1694.91 L -109.045,-1694.76 L -109.629,-1694.52 L -110.179,-1694.22
 L -110.687,-1693.85 L -111.145,-1693.42 L -111.545,-1692.94 L -111.882,-1692.41 L -112.149,-1691.84 L -112.343,-1691.24
 L -112.461,-1690.63 L -112.5,-1690 L -112.5,-1400 L -112.461,-1399.37 L -112.343,-1398.76 L -112.149,-1398.16
 L -111.882,-1397.59 L -111.545,-1397.06 L -111.145,-1396.58 L -110.687,-1396.15 L -110.179,-1395.78 L -109.629,-1395.48
 L -109.045,-1395.24 L -108.437,-1395.09 L -107.814,-1395.01 L 107.814,-1395.01 z
M 104.866,-1685.37 L 104.6,-1685.4 L 104.34,-1685.47 L 104.091,-1685.57 L 103.856,-1685.7 L 103.639,-1685.85
 L 103.443,-1686.04 L 103.273,-1686.24 L 103.129,-1686.47 L 103.015,-1686.71 L 102.932,-1686.97 L 102.882,-1687.23
 L 102.865,-1687.5 L 102.882,-1687.77 L 102.932,-1688.03 L 103.015,-1688.29 L 103.129,-1688.53 L 103.273,-1688.76
 L 103.443,-1688.96 L 103.639,-1689.15 L 103.856,-1689.3 L 104.091,-1689.43 L 104.34,-1689.53 L 104.6,-1689.6
 L 104.866,-1689.63 L 105.134,-1689.63 L 105.4,-1689.6 L 105.66,-1689.53 L 105.909,-1689.43 L 106.144,-1689.3
 L 106.361,-1689.15 L 106.557,-1688.96 L 106.727,-1688.76 L 106.871,-1688.53 L 106.985,-1688.29 L 107.068,-1688.03
 L 107.118,-1687.77 L 107.135,-1687.5 L 107.118,-1687.23 L 107.068,-1686.97 L 106.985,-1686.71 L 106.871,-1686.47
 L 106.727,-1686.24 L 106.557,-1686.04 L 106.361,-1685.85 L 106.144,-1685.7 L 105.909,-1685.57 L 105.66,-1685.47
 L 105.4,-1685.4 L 105.134,-1685.37 z
M -105.134,-1685.37 L -105.4,-1685.4 L -105.66,-1685.47 L -105.909,-1685.57 L -106.144,-1685.7 L -106.361,-1685.85
 L -106.557,-1686.04 L -106.727,-1686.24 L -106.871,-1686.47 L -106.985,-1686.71 L -107.068,-1686.97 L -107.118,-1687.23
 L -107.135,-1687.5 L -107.118,-1687.77 L -107.068,-1688.03 L -106.985,-1688.29 L -106.871,-1688.53 L -106.727,-1688.76
 L -106.557,-1688.96 L -106.361,-1689.15 L -106.144,-1689.3 L -105.909,-1689.43 L -105.66,-1689.53 L -105.4,-1689.6
 L -105.134,-1689.63 L -104.866,-1689.63 L -104.6,-1689.6 L -104.34,-1689.53 L -104.091,-1689.43 L -103.856,-1689.3
 L -103.639,-1689.15 L -103.443,-1688.96 L -103.273,-1688.76 L -103.129,-1688.53 L -103.015,-1688.29 L -102.932,-1688.03
 L -102.882,-1687.77 L -102.865,-1687.5 L -102.882,-1687.23 L -102.932,-1686.97 L -103.015,-1686.71 L -103.129,-1686.47
 L -103.273,-1686.24 L -103.443,-1686.04 L -103.639,-1685.85 L -103.856,-1685.7 L -104.091,-1685.57 L -104.34,-1685.47
 L -104.6,-1685.4 L -104.866,-1685.37 z
M 104.866,-1400.37 L 104.6,-1400.4 L 104.34,-1400.47 L 104.091,-1400.57 L 103.856,-1400.7 L 103.639,-1400.85
 L 103.443,-1401.04 L 103.273,-1401.24 L 103.129,-1401.47 L 103.015,-1401.71 L 102.932,-1401.97 L 102.882,-1402.23
 L 102.865,-1402.5 L 102.882,-1402.77 L 102.932,-1403.03 L 103.015,-1403.29 L 103.129,-1403.53 L 103.273,-1403.76
 L 103.443,-1403.96 L 103.639,-1404.15 L 103.856,-1404.3 L 104.091,-1404.43 L 104.34,-1404.53 L 104.6,-1404.6
 L 104.866,-1404.63 L 105.134,-1404.63 L 105.4,-1404.6 L 105.66,-1404.53 L 105.909,-1404.43 L 106.144,-1404.3
 L 106.361,-1404.15 L 106.557,-1403.96 L 106.727,-1403.76 L 106.871,-1403.53 L 106.985,-1403.29 L 107.068,-1403.03
 L 107.118,-1402.77 L 107.135,-1402.5 L 107.118,-1402.23 L 107.068,-1401.97 L 106.985,-1401.71 L 106.871,-1401.47
 L 106.727,-1401.24 L 106.557,-1401.04 L 106.361,-1400.85 L 106.144,-1400.7 L 105.909,-1400.57 L 105.66,-1400.47
 L 105.4,-1400.4 L 105.134,-1400.37 z
M -105.134,-1400.37 L -105.4,-1400.4 L -105.66,-1400.47 L -105.909,-1400.57 L -106.144,-1400.7 L -106.361,-1400.85
 L -106.557,-1401.04 L -106.727,-1401.24 L -106.871,-1401.47 L -106.985,-1401.71 L -107.068,-1401.97 L -107.118,-1402.23
 L -107.135,-1402.5 L -107.118,-1402.77 L -107.068,-1403.03 L -106.985,-1403.29 L -106.871,-1403.53 L -106.727,-1403.76
 L -106.557,-1403.96 L -106.361,-1404.15 L -106.144,-1404.3 L -105.909,-1404.43 L -105.66,-1404.53 L -105.4,-1404.6
 L -105.134,-1404.63 L -104.866,-1404.63 L -104.6,-1404.6 L -104.34,-1404.53 L -104.091,-1404.43 L -103.856,-1404.3
 L -103.639,-1404.15 L -103.443,-1403.96 L -103.273,-1403.76 L -103.129,-1403.53 L -103.015,-1403.29 L -102.932,-1403.03
 L -102.882,-1402.77 L -102.865,-1402.5 L -102.882,-1402.23 L -102.932,-1401.97 L -103.015,-1401.71 L -103.129,-1401.47
 L -103.273,-1401.24 L -103.443,-1401.04 L -103.639,-1400.85 L -103.856,-1400.7 L -104.091,-1400.57 L -104.34,-1400.47
 L -104.6,-1400.4 L -104.866,-1400.37 z
" stroke="black" fill="lightgray" stroke-width="0.5"/>
</svg>
