  0
SECTION
  2
BLOCKS
  0
ENDSEC
  0
SECTION
  2
ENTITIES
  0
LINE
  8
0
 10
-133.5
 20
242.191
 11
-133.187
 21
241.897
  0
LINE
  8
0
 10
-133.187
 20
241.897
 11
-132.679
 21
241.528
  0
LINE
  8
0
 10
-132.679
 20
241.528
 11
-132.129
 21
241.226
  0
LINE
  8
0
 10
-132.129
 20
241.226
 11
-131.545
 21
240.995
  0
LINE
  8
0
 10
-131.545
 20
240.995
 11
-130.937
 21
240.839
  0
LINE
  8
0
 10
-130.937
 20
240.839
 11
-130.314
 21
240.76
  0
LINE
  8
0
 10
-130.314
 20
240.76
 11
130.314
 21
240.76
  0
LINE
  8
0
 10
130.314
 20
240.76
 11
130.937
 21
240.839
  0
LINE
  8
0
 10
130.937
 20
240.839
 11
131.545
 21
240.995
  0
LINE
  8
0
 10
131.545
 20
240.995
 11
132.129
 21
241.226
  0
LINE
  8
0
 10
132.129
 20
241.226
 11
132.679
 21
241.528
  0
LINE
  8
0
 10
132.679
 20
241.528
 11
133.187
 21
241.897
  0
LINE
  8
0
 10
133.187
 20
241.897
 11
133.645
 21
242.327
  0
LINE
  8
0
 10
133.645
 20
242.327
 11
134.045
 21
242.811
  0
LINE
  8
0
 10
134.045
 20
242.811
 11
134.382
 21
243.341
  0
LINE
  8
0
 10
134.382
 20
243.341
 11
134.649
 21
243.909
  0
LINE
  8
0
 10
134.649
 20
243.909
 11
134.843
 21
244.507
  0
LINE
  8
0
 10
134.843
 20
244.507
 11
134.961
 21
245.123
  0
LINE
  8
0
 10
134.961
 20
245.123
 11
135
 21
245.75
  0
LINE
  8
0
 10
135
 20
245.75
 11
135
 21
258.25
  0
LINE
  8
0
 10
135
 20
258.25
 11
134.961
 21
258.877
  0
LINE
  8
0
 10
134.961
 20
258.877
 11
134.843
 21
259.493
  0
LINE
  8
0
 10
134.843
 20
259.493
 11
134.649
 21
260.091
  0
LINE
  8
0
 10
134.649
 20
260.091
 11
134.382
 21
260.659
  0
LINE
  8
0
 10
134.382
 20
260.659
 11
134.045
 21
261.189
  0
LINE
  8
0
 10
134.045
 20
261.189
 11
133.645
 21
261.673
  0
LINE
  8
0
 10
133.645
 20
261.673
 11
133.187
 21
262.103
  0
LINE
  8
0
 10
133.187
 20
262.103
 11
132.679
 21
262.472
  0
LINE
  8
0
 10
132.679
 20
262.472
 11
132.129
 21
262.774
  0
LINE
  8
0
 10
132.129
 20
262.774
 11
131.545
 21
263.005
  0
LINE
  8
0
 10
131.545
 20
263.005
 11
130.937
 21
263.161
  0
LINE
  8
0
 10
130.937
 20
263.161
 11
130.314
 21
263.24
  0
LINE
  8
0
 10
130.314
 20
263.24
 11
-130.314
 21
263.24
  0
LINE
  8
0
 10
-130.314
 20
263.24
 11
-130.937
 21
263.161
  0
LINE
  8
0
 10
-130.937
 20
263.161
 11
-131.545
 21
263.005
  0
LINE
  8
0
 10
-131.545
 20
263.005
 11
-132.129
 21
262.774
  0
LINE
  8
0
 10
-132.129
 20
262.774
 11
-132.679
 21
262.472
  0
LINE
  8
0
 10
-132.679
 20
262.472
 11
-133.187
 21
262.103
  0
LINE
  8
0
 10
-133.187
 20
262.103
 11
-133.5
 21
261.809
  0
LINE
  8
0
 10
-133.5
 20
261.809
 11
-133.5
 21
263.24
  0
LINE
  8
0
 10
-133.5
 20
263.24
 11
-136.5
 21
263.24
  0
LINE
  8
0
 10
-136.5
 20
263.24
 11
-136.5
 21
240.76
  0
LINE
  8
0
 10
-136.5
 20
240.76
 11
-133.5
 21
240.76
  0
LINE
  8
0
 10
-133.5
 20
240.76
 11
-133.5
 21
242.191
  0
LINE
  8
0
 10
-129.751
 20
242.258
 11
-130.25
 21
242.321
  0
LINE
  8
0
 10
-130.25
 20
242.321
 11
-130.736
 21
242.446
  0
LINE
  8
0
 10
-130.736
 20
242.446
 11
-131.203
 21
242.631
  0
LINE
  8
0
 10
-131.203
 20
242.631
 11
-131.643
 21
242.873
  0
LINE
  8
0
 10
-131.643
 20
242.873
 11
-132.05
 21
243.168
  0
LINE
  8
0
 10
-132.05
 20
243.168
 11
-132.416
 21
243.512
  0
LINE
  8
0
 10
-132.416
 20
243.512
 11
-132.736
 21
243.899
  0
LINE
  8
0
 10
-132.736
 20
243.899
 11
-133.005
 21
244.323
  0
LINE
  8
0
 10
-133.005
 20
244.323
 11
-133.219
 21
244.778
  0
LINE
  8
0
 10
-133.219
 20
244.778
 11
-133.374
 21
245.255
  0
LINE
  8
0
 10
-133.374
 20
245.255
 11
-133.468
 21
245.749
  0
LINE
  8
0
 10
-133.468
 20
245.749
 11
-133.5
 21
246.25
  0
LINE
  8
0
 10
-133.5
 20
246.25
 11
-133.5
 21
257.75
  0
LINE
  8
0
 10
-133.5
 20
257.75
 11
-133.468
 21
258.251
  0
LINE
  8
0
 10
-133.468
 20
258.251
 11
-133.374
 21
258.745
  0
LINE
  8
0
 10
-133.374
 20
258.745
 11
-133.219
 21
259.222
  0
LINE
  8
0
 10
-133.219
 20
259.222
 11
-133.005
 21
259.677
  0
LINE
  8
0
 10
-133.005
 20
259.677
 11
-132.736
 21
260.101
  0
LINE
  8
0
 10
-132.736
 20
260.101
 11
-132.416
 21
260.488
  0
LINE
  8
0
 10
-132.416
 20
260.488
 11
-132.05
 21
260.832
  0
LINE
  8
0
 10
-132.05
 20
260.832
 11
-131.643
 21
261.127
  0
LINE
  8
0
 10
-131.643
 20
261.127
 11
-131.203
 21
261.369
  0
LINE
  8
0
 10
-131.203
 20
261.369
 11
-130.736
 21
261.554
  0
LINE
  8
0
 10
-130.736
 20
261.554
 11
-130.25
 21
261.679
  0
LINE
  8
0
 10
-130.25
 20
261.679
 11
-129.751
 21
261.742
  0
LINE
  8
0
 10
-129.751
 20
261.742
 11
129.751
 21
261.742
  0
LINE
  8
0
 10
129.751
 20
261.742
 11
130.25
 21
261.679
  0
LINE
  8
0
 10
130.25
 20
261.679
 11
130.736
 21
261.554
  0
LINE
  8
0
 10
130.736
 20
261.554
 11
131.203
 21
261.369
  0
LINE
  8
0
 10
131.203
 20
261.369
 11
131.643
 21
261.127
  0
LINE
  8
0
 10
131.643
 20
261.127
 11
132.05
 21
260.832
  0
LINE
  8
0
 10
132.05
 20
260.832
 11
132.416
 21
260.488
  0
LINE
  8
0
 10
132.416
 20
260.488
 11
132.736
 21
260.101
  0
LINE
  8
0
 10
132.736
 20
260.101
 11
133.005
 21
259.677
  0
LINE
  8
0
 10
133.005
 20
259.677
 11
133.219
 21
259.222
  0
LINE
  8
0
 10
133.219
 20
259.222
 11
133.374
 21
258.745
  0
LINE
  8
0
 10
133.374
 20
258.745
 11
133.468
 21
258.251
  0
LINE
  8
0
 10
133.468
 20
258.251
 11
133.5
 21
257.75
  0
LINE
  8
0
 10
133.5
 20
257.75
 11
133.5
 21
246.25
  0
LINE
  8
0
 10
133.5
 20
246.25
 11
133.468
 21
245.749
  0
LINE
  8
0
 10
133.468
 20
245.749
 11
133.374
 21
245.255
  0
LINE
  8
0
 10
133.374
 20
245.255
 11
133.219
 21
244.778
  0
LINE
  8
0
 10
133.219
 20
244.778
 11
133.005
 21
244.323
  0
LINE
  8
0
 10
133.005
 20
244.323
 11
132.736
 21
243.899
  0
LINE
  8
0
 10
132.736
 20
243.899
 11
132.416
 21
243.512
  0
LINE
  8
0
 10
132.416
 20
243.512
 11
132.05
 21
243.168
  0
LINE
  8
0
 10
132.05
 20
243.168
 11
131.643
 21
242.873
  0
LINE
  8
0
 10
131.643
 20
242.873
 11
131.203
 21
242.631
  0
LINE
  8
0
 10
131.203
 20
242.631
 11
130.736
 21
242.446
  0
LINE
  8
0
 10
130.736
 20
242.446
 11
130.25
 21
242.321
  0
LINE
  8
0
 10
130.25
 20
242.321
 11
129.751
 21
242.258
  0
LINE
  8
0
 10
129.751
 20
242.258
 11
-129.751
 21
242.258
  0
LINE
  8
0
 10
-133.5
 20
210.691
 11
-133.187
 21
210.397
  0
LINE
  8
0
 10
-133.187
 20
210.397
 11
-132.679
 21
210.028
  0
LINE
  8
0
 10
-132.679
 20
210.028
 11
-132.129
 21
209.726
  0
LINE
  8
0
 10
-132.129
 20
209.726
 11
-131.545
 21
209.495
  0
LINE
  8
0
 10
-131.545
 20
209.495
 11
-130.937
 21
209.339
  0
LINE
  8
0
 10
-130.937
 20
209.339
 11
-130.314
 21
209.26
  0
LINE
  8
0
 10
-130.314
 20
209.26
 11
130.314
 21
209.26
  0
LINE
  8
0
 10
130.314
 20
209.26
 11
130.937
 21
209.339
  0
LINE
  8
0
 10
130.937
 20
209.339
 11
131.545
 21
209.495
  0
LINE
  8
0
 10
131.545
 20
209.495
 11
132.129
 21
209.726
  0
LINE
  8
0
 10
132.129
 20
209.726
 11
132.679
 21
210.028
  0
LINE
  8
0
 10
132.679
 20
210.028
 11
133.187
 21
210.397
  0
LINE
  8
0
 10
133.187
 20
210.397
 11
133.645
 21
210.827
  0
LINE
  8
0
 10
133.645
 20
210.827
 11
134.045
 21
211.311
  0
LINE
  8
0
 10
134.045
 20
211.311
 11
134.382
 21
211.841
  0
LINE
  8
0
 10
134.382
 20
211.841
 11
134.649
 21
212.409
  0
LINE
  8
0
 10
134.649
 20
212.409
 11
134.843
 21
213.007
  0
LINE
  8
0
 10
134.843
 20
213.007
 11
134.961
 21
213.623
  0
LINE
  8
0
 10
134.961
 20
213.623
 11
135
 21
214.25
  0
LINE
  8
0
 10
135
 20
214.25
 11
135
 21
226.75
  0
LINE
  8
0
 10
135
 20
226.75
 11
134.961
 21
227.377
  0
LINE
  8
0
 10
134.961
 20
227.377
 11
134.843
 21
227.993
  0
LINE
  8
0
 10
134.843
 20
227.993
 11
134.649
 21
228.591
  0
LINE
  8
0
 10
134.649
 20
228.591
 11
134.382
 21
229.159
  0
LINE
  8
0
 10
134.382
 20
229.159
 11
134.045
 21
229.689
  0
LINE
  8
0
 10
134.045
 20
229.689
 11
133.645
 21
230.173
  0
LINE
  8
0
 10
133.645
 20
230.173
 11
133.187
 21
230.603
  0
LINE
  8
0
 10
133.187
 20
230.603
 11
132.679
 21
230.972
  0
LINE
  8
0
 10
132.679
 20
230.972
 11
132.129
 21
231.274
  0
LINE
  8
0
 10
132.129
 20
231.274
 11
131.545
 21
231.505
  0
LINE
  8
0
 10
131.545
 20
231.505
 11
130.937
 21
231.661
  0
LINE
  8
0
 10
130.937
 20
231.661
 11
130.314
 21
231.74
  0
LINE
  8
0
 10
130.314
 20
231.74
 11
-130.314
 21
231.74
  0
LINE
  8
0
 10
-130.314
 20
231.74
 11
-130.937
 21
231.661
  0
LINE
  8
0
 10
-130.937
 20
231.661
 11
-131.545
 21
231.505
  0
LINE
  8
0
 10
-131.545
 20
231.505
 11
-132.129
 21
231.274
  0
LINE
  8
0
 10
-132.129
 20
231.274
 11
-132.679
 21
230.972
  0
LINE
  8
0
 10
-132.679
 20
230.972
 11
-133.187
 21
230.603
  0
LINE
  8
0
 10
-133.187
 20
230.603
 11
-133.5
 21
230.309
  0
LINE
  8
0
 10
-133.5
 20
230.309
 11
-133.5
 21
231.74
  0
LINE
  8
0
 10
-133.5
 20
231.74
 11
-136.5
 21
231.74
  0
LINE
  8
0
 10
-136.5
 20
231.74
 11
-136.5
 21
209.26
  0
LINE
  8
0
 10
-136.5
 20
209.26
 11
-133.5
 21
209.26
  0
LINE
  8
0
 10
-133.5
 20
209.26
 11
-133.5
 21
210.691
  0
LINE
  8
0
 10
-129.751
 20
210.758
 11
-130.25
 21
210.821
  0
LINE
  8
0
 10
-130.25
 20
210.821
 11
-130.736
 21
210.946
  0
LINE
  8
0
 10
-130.736
 20
210.946
 11
-131.203
 21
211.131
  0
LINE
  8
0
 10
-131.203
 20
211.131
 11
-131.643
 21
211.373
  0
LINE
  8
0
 10
-131.643
 20
211.373
 11
-132.05
 21
211.668
  0
LINE
  8
0
 10
-132.05
 20
211.668
 11
-132.416
 21
212.012
  0
LINE
  8
0
 10
-132.416
 20
212.012
 11
-132.736
 21
212.399
  0
LINE
  8
0
 10
-132.736
 20
212.399
 11
-133.005
 21
212.823
  0
LINE
  8
0
 10
-133.005
 20
212.823
 11
-133.219
 21
213.278
  0
LINE
  8
0
 10
-133.219
 20
213.278
 11
-133.374
 21
213.755
  0
LINE
  8
0
 10
-133.374
 20
213.755
 11
-133.468
 21
214.249
  0
LINE
  8
0
 10
-133.468
 20
214.249
 11
-133.5
 21
214.75
  0
LINE
  8
0
 10
-133.5
 20
214.75
 11
-133.5
 21
226.25
  0
LINE
  8
0
 10
-133.5
 20
226.25
 11
-133.468
 21
226.751
  0
LINE
  8
0
 10
-133.468
 20
226.751
 11
-133.374
 21
227.245
  0
LINE
  8
0
 10
-133.374
 20
227.245
 11
-133.219
 21
227.722
  0
LINE
  8
0
 10
-133.219
 20
227.722
 11
-133.005
 21
228.177
  0
LINE
  8
0
 10
-133.005
 20
228.177
 11
-132.736
 21
228.601
  0
LINE
  8
0
 10
-132.736
 20
228.601
 11
-132.416
 21
228.988
  0
LINE
  8
0
 10
-132.416
 20
228.988
 11
-132.05
 21
229.332
  0
LINE
  8
0
 10
-132.05
 20
229.332
 11
-131.643
 21
229.627
  0
LINE
  8
0
 10
-131.643
 20
229.627
 11
-131.203
 21
229.869
  0
LINE
  8
0
 10
-131.203
 20
229.869
 11
-130.736
 21
230.054
  0
LINE
  8
0
 10
-130.736
 20
230.054
 11
-130.25
 21
230.179
  0
LINE
  8
0
 10
-130.25
 20
230.179
 11
-129.751
 21
230.242
  0
LINE
  8
0
 10
-129.751
 20
230.242
 11
129.751
 21
230.242
  0
LINE
  8
0
 10
129.751
 20
230.242
 11
130.25
 21
230.179
  0
LINE
  8
0
 10
130.25
 20
230.179
 11
130.736
 21
230.054
  0
LINE
  8
0
 10
130.736
 20
230.054
 11
131.203
 21
229.869
  0
LINE
  8
0
 10
131.203
 20
229.869
 11
131.643
 21
229.627
  0
LINE
  8
0
 10
131.643
 20
229.627
 11
132.05
 21
229.332
  0
LINE
  8
0
 10
132.05
 20
229.332
 11
132.416
 21
228.988
  0
LINE
  8
0
 10
132.416
 20
228.988
 11
132.736
 21
228.601
  0
LINE
  8
0
 10
132.736
 20
228.601
 11
133.005
 21
228.177
  0
LINE
  8
0
 10
133.005
 20
228.177
 11
133.219
 21
227.722
  0
LINE
  8
0
 10
133.219
 20
227.722
 11
133.374
 21
227.245
  0
LINE
  8
0
 10
133.374
 20
227.245
 11
133.468
 21
226.751
  0
LINE
  8
0
 10
133.468
 20
226.751
 11
133.5
 21
226.25
  0
LINE
  8
0
 10
133.5
 20
226.25
 11
133.5
 21
214.75
  0
LINE
  8
0
 10
133.5
 20
214.75
 11
133.468
 21
214.249
  0
LINE
  8
0
 10
133.468
 20
214.249
 11
133.374
 21
213.755
  0
LINE
  8
0
 10
133.374
 20
213.755
 11
133.219
 21
213.278
  0
LINE
  8
0
 10
133.219
 20
213.278
 11
133.005
 21
212.823
  0
LINE
  8
0
 10
133.005
 20
212.823
 11
132.736
 21
212.399
  0
LINE
  8
0
 10
132.736
 20
212.399
 11
132.416
 21
212.012
  0
LINE
  8
0
 10
132.416
 20
212.012
 11
132.05
 21
211.668
  0
LINE
  8
0
 10
132.05
 20
211.668
 11
131.643
 21
211.373
  0
LINE
  8
0
 10
131.643
 20
211.373
 11
131.203
 21
211.131
  0
LINE
  8
0
 10
131.203
 20
211.131
 11
130.736
 21
210.946
  0
LINE
  8
0
 10
130.736
 20
210.946
 11
130.25
 21
210.821
  0
LINE
  8
0
 10
130.25
 20
210.821
 11
129.751
 21
210.758
  0
LINE
  8
0
 10
129.751
 20
210.758
 11
-129.751
 21
210.758
  0
LINE
  8
0
 10
-133.5
 20
179.191
 11
-133.187
 21
178.897
  0
LINE
  8
0
 10
-133.187
 20
178.897
 11
-132.679
 21
178.528
  0
LINE
  8
0
 10
-132.679
 20
178.528
 11
-132.129
 21
178.226
  0
LINE
  8
0
 10
-132.129
 20
178.226
 11
-131.545
 21
177.995
  0
LINE
  8
0
 10
-131.545
 20
177.995
 11
-130.937
 21
177.839
  0
LINE
  8
0
 10
-130.937
 20
177.839
 11
-130.314
 21
177.76
  0
LINE
  8
0
 10
-130.314
 20
177.76
 11
130.314
 21
177.76
  0
LINE
  8
0
 10
130.314
 20
177.76
 11
130.937
 21
177.839
  0
LINE
  8
0
 10
130.937
 20
177.839
 11
131.545
 21
177.995
  0
LINE
  8
0
 10
131.545
 20
177.995
 11
132.129
 21
178.226
  0
LINE
  8
0
 10
132.129
 20
178.226
 11
132.679
 21
178.528
  0
LINE
  8
0
 10
132.679
 20
178.528
 11
133.187
 21
178.897
  0
LINE
  8
0
 10
133.187
 20
178.897
 11
133.645
 21
179.327
  0
LINE
  8
0
 10
133.645
 20
179.327
 11
134.045
 21
179.811
  0
LINE
  8
0
 10
134.045
 20
179.811
 11
134.382
 21
180.341
  0
LINE
  8
0
 10
134.382
 20
180.341
 11
134.649
 21
180.909
  0
LINE
  8
0
 10
134.649
 20
180.909
 11
134.843
 21
181.507
  0
LINE
  8
0
 10
134.843
 20
181.507
 11
134.961
 21
182.123
  0
LINE
  8
0
 10
134.961
 20
182.123
 11
135
 21
182.75
  0
LINE
  8
0
 10
135
 20
182.75
 11
135
 21
195.25
  0
LINE
  8
0
 10
135
 20
195.25
 11
134.961
 21
195.877
  0
LINE
  8
0
 10
134.961
 20
195.877
 11
134.843
 21
196.493
  0
LINE
  8
0
 10
134.843
 20
196.493
 11
134.649
 21
197.091
  0
LINE
  8
0
 10
134.649
 20
197.091
 11
134.382
 21
197.659
  0
LINE
  8
0
 10
134.382
 20
197.659
 11
134.045
 21
198.189
  0
LINE
  8
0
 10
134.045
 20
198.189
 11
133.645
 21
198.673
  0
LINE
  8
0
 10
133.645
 20
198.673
 11
133.187
 21
199.103
  0
LINE
  8
0
 10
133.187
 20
199.103
 11
132.679
 21
199.472
  0
LINE
  8
0
 10
132.679
 20
199.472
 11
132.129
 21
199.774
  0
LINE
  8
0
 10
132.129
 20
199.774
 11
131.545
 21
200.005
  0
LINE
  8
0
 10
131.545
 20
200.005
 11
130.937
 21
200.161
  0
LINE
  8
0
 10
130.937
 20
200.161
 11
130.314
 21
200.24
  0
LINE
  8
0
 10
130.314
 20
200.24
 11
-130.314
 21
200.24
  0
LINE
  8
0
 10
-130.314
 20
200.24
 11
-130.937
 21
200.161
  0
LINE
  8
0
 10
-130.937
 20
200.161
 11
-131.545
 21
200.005
  0
LINE
  8
0
 10
-131.545
 20
200.005
 11
-132.129
 21
199.774
  0
LINE
  8
0
 10
-132.129
 20
199.774
 11
-132.679
 21
199.472
  0
LINE
  8
0
 10
-132.679
 20
199.472
 11
-133.187
 21
199.103
  0
LINE
  8
0
 10
-133.187
 20
199.103
 11
-133.5
 21
198.809
  0
LINE
  8
0
 10
-133.5
 20
198.809
 11
-133.5
 21
200.24
  0
LINE
  8
0
 10
-133.5
 20
200.24
 11
-136.5
 21
200.24
  0
LINE
  8
0
 10
-136.5
 20
200.24
 11
-136.5
 21
177.76
  0
LINE
  8
0
 10
-136.5
 20
177.76
 11
-133.5
 21
177.76
  0
LINE
  8
0
 10
-133.5
 20
177.76
 11
-133.5
 21
179.191
  0
LINE
  8
0
 10
-129.743
 20
179.385
 11
-130.226
 21
179.446
  0
LINE
  8
0
 10
-130.226
 20
179.446
 11
-130.697
 21
179.567
  0
LINE
  8
0
 10
-130.697
 20
179.567
 11
-131.149
 21
179.746
  0
LINE
  8
0
 10
-131.149
 20
179.746
 11
-131.575
 21
179.98
  0
LINE
  8
0
 10
-131.575
 20
179.98
 11
-131.969
 21
180.266
  0
LINE
  8
0
 10
-131.969
 20
180.266
 11
-132.323
 21
180.599
  0
LINE
  8
0
 10
-132.323
 20
180.599
 11
-132.633
 21
180.974
  0
LINE
  8
0
 10
-132.633
 20
180.974
 11
-132.894
 21
181.384
  0
LINE
  8
0
 10
-132.894
 20
181.384
 11
-133.101
 21
181.824
  0
LINE
  8
0
 10
-133.101
 20
181.824
 11
-133.251
 21
182.287
  0
LINE
  8
0
 10
-133.251
 20
182.287
 11
-133.342
 21
182.765
  0
LINE
  8
0
 10
-133.342
 20
182.765
 11
-133.373
 21
183.25
  0
LINE
  8
0
 10
-133.373
 20
183.25
 11
-133.373
 21
194.75
  0
LINE
  8
0
 10
-133.373
 20
194.75
 11
-133.342
 21
195.235
  0
LINE
  8
0
 10
-133.342
 20
195.235
 11
-133.251
 21
195.713
  0
LINE
  8
0
 10
-133.251
 20
195.713
 11
-133.101
 21
196.176
  0
LINE
  8
0
 10
-133.101
 20
196.176
 11
-132.894
 21
196.616
  0
LINE
  8
0
 10
-132.894
 20
196.616
 11
-132.633
 21
197.026
  0
LINE
  8
0
 10
-132.633
 20
197.026
 11
-132.323
 21
197.401
  0
LINE
  8
0
 10
-132.323
 20
197.401
 11
-131.969
 21
197.734
  0
LINE
  8
0
 10
-131.969
 20
197.734
 11
-131.575
 21
198.02
  0
LINE
  8
0
 10
-131.575
 20
198.02
 11
-131.149
 21
198.254
  0
LINE
  8
0
 10
-131.149
 20
198.254
 11
-130.697
 21
198.433
  0
LINE
  8
0
 10
-130.697
 20
198.433
 11
-130.226
 21
198.554
  0
LINE
  8
0
 10
-130.226
 20
198.554
 11
-129.743
 21
198.615
  0
LINE
  8
0
 10
-129.743
 20
198.615
 11
129.743
 21
198.615
  0
LINE
  8
0
 10
129.743
 20
198.615
 11
130.226
 21
198.554
  0
LINE
  8
0
 10
130.226
 20
198.554
 11
130.697
 21
198.433
  0
LINE
  8
0
 10
130.697
 20
198.433
 11
131.149
 21
198.254
  0
LINE
  8
0
 10
131.149
 20
198.254
 11
131.575
 21
198.02
  0
LINE
  8
0
 10
131.575
 20
198.02
 11
131.969
 21
197.734
  0
LINE
  8
0
 10
131.969
 20
197.734
 11
132.323
 21
197.401
  0
LINE
  8
0
 10
132.323
 20
197.401
 11
132.633
 21
197.026
  0
LINE
  8
0
 10
132.633
 20
197.026
 11
132.894
 21
196.616
  0
LINE
  8
0
 10
132.894
 20
196.616
 11
133.101
 21
196.176
  0
LINE
  8
0
 10
133.101
 20
196.176
 11
133.251
 21
195.713
  0
LINE
  8
0
 10
133.251
 20
195.713
 11
133.342
 21
195.235
  0
LINE
  8
0
 10
133.342
 20
195.235
 11
133.373
 21
194.75
  0
LINE
  8
0
 10
133.373
 20
194.75
 11
133.373
 21
183.25
  0
LINE
  8
0
 10
133.373
 20
183.25
 11
133.342
 21
182.765
  0
LINE
  8
0
 10
133.342
 20
182.765
 11
133.251
 21
182.287
  0
LINE
  8
0
 10
133.251
 20
182.287
 11
133.101
 21
181.824
  0
LINE
  8
0
 10
133.101
 20
181.824
 11
132.894
 21
181.384
  0
LINE
  8
0
 10
132.894
 20
181.384
 11
132.633
 21
180.974
  0
LINE
  8
0
 10
132.633
 20
180.974
 11
132.323
 21
180.599
  0
LINE
  8
0
 10
132.323
 20
180.599
 11
131.969
 21
180.266
  0
LINE
  8
0
 10
131.969
 20
180.266
 11
131.575
 21
179.98
  0
LINE
  8
0
 10
131.575
 20
179.98
 11
131.149
 21
179.746
  0
LINE
  8
0
 10
131.149
 20
179.746
 11
130.697
 21
179.567
  0
LINE
  8
0
 10
130.697
 20
179.567
 11
130.226
 21
179.446
  0
LINE
  8
0
 10
130.226
 20
179.446
 11
129.743
 21
179.385
  0
LINE
  8
0
 10
129.743
 20
179.385
 11
-129.743
 21
179.385
  0
LINE
  8
0
 10
130.937
 20
146.339
 11
131.545
 21
146.495
  0
LINE
  8
0
 10
131.545
 20
146.495
 11
132.129
 21
146.726
  0
LINE
  8
0
 10
132.129
 20
146.726
 11
132.679
 21
147.028
  0
LINE
  8
0
 10
132.679
 20
147.028
 11
133.187
 21
147.397
  0
LINE
  8
0
 10
133.187
 20
147.397
 11
133.645
 21
147.827
  0
LINE
  8
0
 10
133.645
 20
147.827
 11
134.045
 21
148.311
  0
LINE
  8
0
 10
134.045
 20
148.311
 11
134.382
 21
148.841
  0
LINE
  8
0
 10
134.382
 20
148.841
 11
134.649
 21
149.409
  0
LINE
  8
0
 10
134.649
 20
149.409
 11
134.843
 21
150.007
  0
LINE
  8
0
 10
134.843
 20
150.007
 11
134.961
 21
150.623
  0
LINE
  8
0
 10
134.961
 20
150.623
 11
135
 21
151.25
  0
LINE
  8
0
 10
135
 20
151.25
 11
135
 21
163.75
  0
LINE
  8
0
 10
135
 20
163.75
 11
134.961
 21
164.377
  0
LINE
  8
0
 10
134.961
 20
164.377
 11
134.843
 21
164.993
  0
LINE
  8
0
 10
134.843
 20
164.993
 11
134.649
 21
165.591
  0
LINE
  8
0
 10
134.649
 20
165.591
 11
134.382
 21
166.159
  0
LINE
  8
0
 10
134.382
 20
166.159
 11
134.045
 21
166.689
  0
LINE
  8
0
 10
134.045
 20
166.689
 11
133.645
 21
167.173
  0
LINE
  8
0
 10
133.645
 20
167.173
 11
133.187
 21
167.603
  0
LINE
  8
0
 10
133.187
 20
167.603
 11
132.679
 21
167.972
  0
LINE
  8
0
 10
132.679
 20
167.972
 11
132.129
 21
168.274
  0
LINE
  8
0
 10
132.129
 20
168.274
 11
131.545
 21
168.505
  0
LINE
  8
0
 10
131.545
 20
168.505
 11
130.937
 21
168.661
  0
LINE
  8
0
 10
130.937
 20
168.661
 11
130.314
 21
168.74
  0
LINE
  8
0
 10
130.314
 20
168.74
 11
-130.314
 21
168.74
  0
LINE
  8
0
 10
-130.314
 20
168.74
 11
-130.937
 21
168.661
  0
LINE
  8
0
 10
-130.937
 20
168.661
 11
-131.545
 21
168.505
  0
LINE
  8
0
 10
-131.545
 20
168.505
 11
-132.129
 21
168.274
  0
LINE
  8
0
 10
-132.129
 20
168.274
 11
-132.679
 21
167.972
  0
LINE
  8
0
 10
-132.679
 20
167.972
 11
-133.187
 21
167.603
  0
LINE
  8
0
 10
-133.187
 20
167.603
 11
-133.5
 21
167.309
  0
LINE
  8
0
 10
-133.5
 20
167.309
 11
-133.5
 21
168.365
  0
LINE
  8
0
 10
-133.5
 20
168.365
 11
-136.5
 21
168.365
  0
LINE
  8
0
 10
-136.5
 20
168.365
 11
-136.5
 21
146.635
  0
LINE
  8
0
 10
-136.5
 20
146.635
 11
-133.5
 21
146.635
  0
LINE
  8
0
 10
-133.5
 20
146.635
 11
-133.5
 21
147.691
  0
LINE
  8
0
 10
-133.5
 20
147.691
 11
-133.187
 21
147.397
  0
LINE
  8
0
 10
-133.187
 20
147.397
 11
-132.679
 21
147.028
  0
LINE
  8
0
 10
-132.679
 20
147.028
 11
-132.129
 21
146.726
  0
LINE
  8
0
 10
-132.129
 20
146.726
 11
-131.545
 21
146.495
  0
LINE
  8
0
 10
-131.545
 20
146.495
 11
-130.937
 21
146.339
  0
LINE
  8
0
 10
-130.937
 20
146.339
 11
-130.314
 21
146.26
  0
LINE
  8
0
 10
-130.314
 20
146.26
 11
130.314
 21
146.26
  0
LINE
  8
0
 10
130.314
 20
146.26
 11
130.937
 21
146.339
  0
LINE
  8
0
 10
127.349
 20
158.855
 11
127.05
 21
158.893
  0
LINE
  8
0
 10
127.05
 20
158.893
 11
126.758
 21
158.967
  0
LINE
  8
0
 10
126.758
 20
158.967
 11
126.478
 21
159.078
  0
LINE
  8
0
 10
126.478
 20
159.078
 11
126.214
 21
159.224
  0
LINE
  8
0
 10
126.214
 20
159.224
 11
125.97
 21
159.401
  0
LINE
  8
0
 10
125.97
 20
159.401
 11
125.75
 21
159.607
  0
LINE
  8
0
 10
125.75
 20
159.607
 11
125.558
 21
159.839
  0
LINE
  8
0
 10
125.558
 20
159.839
 11
125.397
 21
160.094
  0
LINE
  8
0
 10
125.397
 20
160.094
 11
125.269
 21
160.367
  0
LINE
  8
0
 10
125.269
 20
160.367
 11
125.175
 21
160.653
  0
LINE
  8
0
 10
125.175
 20
160.653
 11
125.119
 21
160.949
  0
LINE
  8
0
 10
125.119
 20
160.949
 11
125.1
 21
161.25
  0
LINE
  8
0
 10
125.1
 20
161.25
 11
125.119
 21
161.551
  0
LINE
  8
0
 10
125.119
 20
161.551
 11
125.175
 21
161.847
  0
LINE
  8
0
 10
125.175
 20
161.847
 11
125.269
 21
162.133
  0
LINE
  8
0
 10
125.269
 20
162.133
 11
125.397
 21
162.406
  0
LINE
  8
0
 10
125.397
 20
162.406
 11
125.558
 21
162.661
  0
LINE
  8
0
 10
125.558
 20
162.661
 11
125.75
 21
162.893
  0
LINE
  8
0
 10
125.75
 20
162.893
 11
125.97
 21
163.099
  0
LINE
  8
0
 10
125.97
 20
163.099
 11
126.214
 21
163.276
  0
LINE
  8
0
 10
126.214
 20
163.276
 11
126.478
 21
163.422
  0
LINE
  8
0
 10
126.478
 20
163.422
 11
126.758
 21
163.533
  0
LINE
  8
0
 10
126.758
 20
163.533
 11
127.05
 21
163.607
  0
LINE
  8
0
 10
127.05
 20
163.607
 11
127.349
 21
163.645
  0
LINE
  8
0
 10
127.349
 20
163.645
 11
127.651
 21
163.645
  0
LINE
  8
0
 10
127.651
 20
163.645
 11
127.95
 21
163.607
  0
LINE
  8
0
 10
127.95
 20
163.607
 11
128.242
 21
163.533
  0
LINE
  8
0
 10
128.242
 20
163.533
 11
128.522
 21
163.422
  0
LINE
  8
0
 10
128.522
 20
163.422
 11
128.786
 21
163.276
  0
LINE
  8
0
 10
128.786
 20
163.276
 11
129.03
 21
163.099
  0
LINE
  8
0
 10
129.03
 20
163.099
 11
129.25
 21
162.893
  0
LINE
  8
0
 10
129.25
 20
162.893
 11
129.442
 21
162.661
  0
LINE
  8
0
 10
129.442
 20
162.661
 11
129.603
 21
162.406
  0
LINE
  8
0
 10
129.603
 20
162.406
 11
129.731
 21
162.133
  0
LINE
  8
0
 10
129.731
 20
162.133
 11
129.825
 21
161.847
  0
LINE
  8
0
 10
129.825
 20
161.847
 11
129.881
 21
161.551
  0
LINE
  8
0
 10
129.881
 20
161.551
 11
129.9
 21
161.25
  0
LINE
  8
0
 10
129.9
 20
161.25
 11
129.881
 21
160.949
  0
LINE
  8
0
 10
129.881
 20
160.949
 11
129.825
 21
160.653
  0
LINE
  8
0
 10
129.825
 20
160.653
 11
129.731
 21
160.367
  0
LINE
  8
0
 10
129.731
 20
160.367
 11
129.603
 21
160.094
  0
LINE
  8
0
 10
129.603
 20
160.094
 11
129.442
 21
159.839
  0
LINE
  8
0
 10
129.442
 20
159.839
 11
129.25
 21
159.607
  0
LINE
  8
0
 10
129.25
 20
159.607
 11
129.03
 21
159.401
  0
LINE
  8
0
 10
129.03
 20
159.401
 11
128.786
 21
159.224
  0
LINE
  8
0
 10
128.786
 20
159.224
 11
128.522
 21
159.078
  0
LINE
  8
0
 10
128.522
 20
159.078
 11
128.242
 21
158.967
  0
LINE
  8
0
 10
128.242
 20
158.967
 11
127.95
 21
158.893
  0
LINE
  8
0
 10
127.95
 20
158.893
 11
127.651
 21
158.855
  0
LINE
  8
0
 10
127.651
 20
158.855
 11
127.349
 21
158.855
  0
LINE
  8
0
 10
-127.651
 20
158.855
 11
-127.95
 21
158.893
  0
LINE
  8
0
 10
-127.95
 20
158.893
 11
-128.242
 21
158.967
  0
LINE
  8
0
 10
-128.242
 20
158.967
 11
-128.522
 21
159.078
  0
LINE
  8
0
 10
-128.522
 20
159.078
 11
-128.786
 21
159.224
  0
LINE
  8
0
 10
-128.786
 20
159.224
 11
-129.03
 21
159.401
  0
LINE
  8
0
 10
-129.03
 20
159.401
 11
-129.25
 21
159.607
  0
LINE
  8
0
 10
-129.25
 20
159.607
 11
-129.442
 21
159.839
  0
LINE
  8
0
 10
-129.442
 20
159.839
 11
-129.603
 21
160.094
  0
LINE
  8
0
 10
-129.603
 20
160.094
 11
-129.731
 21
160.367
  0
LINE
  8
0
 10
-129.731
 20
160.367
 11
-129.825
 21
160.653
  0
LINE
  8
0
 10
-129.825
 20
160.653
 11
-129.881
 21
160.949
  0
LINE
  8
0
 10
-129.881
 20
160.949
 11
-129.9
 21
161.25
  0
LINE
  8
0
 10
-129.9
 20
161.25
 11
-129.881
 21
161.551
  0
LINE
  8
0
 10
-129.881
 20
161.551
 11
-129.825
 21
161.847
  0
LINE
  8
0
 10
-129.825
 20
161.847
 11
-129.731
 21
162.133
  0
LINE
  8
0
 10
-129.731
 20
162.133
 11
-129.603
 21
162.406
  0
LINE
  8
0
 10
-129.603
 20
162.406
 11
-129.442
 21
162.661
  0
LINE
  8
0
 10
-129.442
 20
162.661
 11
-129.25
 21
162.893
  0
LINE
  8
0
 10
-129.25
 20
162.893
 11
-129.03
 21
163.099
  0
LINE
  8
0
 10
-129.03
 20
163.099
 11
-128.786
 21
163.276
  0
LINE
  8
0
 10
-128.786
 20
163.276
 11
-128.522
 21
163.422
  0
LINE
  8
0
 10
-128.522
 20
163.422
 11
-128.242
 21
163.533
  0
LINE
  8
0
 10
-128.242
 20
163.533
 11
-127.95
 21
163.607
  0
LINE
  8
0
 10
-127.95
 20
163.607
 11
-127.651
 21
163.645
  0
LINE
  8
0
 10
-127.651
 20
163.645
 11
-127.349
 21
163.645
  0
LINE
  8
0
 10
-127.349
 20
163.645
 11
-127.05
 21
163.607
  0
LINE
  8
0
 10
-127.05
 20
163.607
 11
-126.758
 21
163.533
  0
LINE
  8
0
 10
-126.758
 20
163.533
 11
-126.478
 21
163.422
  0
LINE
  8
0
 10
-126.478
 20
163.422
 11
-126.214
 21
163.276
  0
LINE
  8
0
 10
-126.214
 20
163.276
 11
-125.97
 21
163.099
  0
LINE
  8
0
 10
-125.97
 20
163.099
 11
-125.75
 21
162.893
  0
LINE
  8
0
 10
-125.75
 20
162.893
 11
-125.558
 21
162.661
  0
LINE
  8
0
 10
-125.558
 20
162.661
 11
-125.397
 21
162.406
  0
LINE
  8
0
 10
-125.397
 20
162.406
 11
-125.269
 21
162.133
  0
LINE
  8
0
 10
-125.269
 20
162.133
 11
-125.175
 21
161.847
  0
LINE
  8
0
 10
-125.175
 20
161.847
 11
-125.119
 21
161.551
  0
LINE
  8
0
 10
-125.119
 20
161.551
 11
-125.1
 21
161.25
  0
LINE
  8
0
 10
-125.1
 20
161.25
 11
-125.119
 21
160.949
  0
LINE
  8
0
 10
-125.119
 20
160.949
 11
-125.175
 21
160.653
  0
LINE
  8
0
 10
-125.175
 20
160.653
 11
-125.269
 21
160.367
  0
LINE
  8
0
 10
-125.269
 20
160.367
 11
-125.397
 21
160.094
  0
LINE
  8
0
 10
-125.397
 20
160.094
 11
-125.558
 21
159.839
  0
LINE
  8
0
 10
-125.558
 20
159.839
 11
-125.75
 21
159.607
  0
LINE
  8
0
 10
-125.75
 20
159.607
 11
-125.97
 21
159.401
  0
LINE
  8
0
 10
-125.97
 20
159.401
 11
-126.214
 21
159.224
  0
LINE
  8
0
 10
-126.214
 20
159.224
 11
-126.478
 21
159.078
  0
LINE
  8
0
 10
-126.478
 20
159.078
 11
-126.758
 21
158.967
  0
LINE
  8
0
 10
-126.758
 20
158.967
 11
-127.05
 21
158.893
  0
LINE
  8
0
 10
-127.05
 20
158.893
 11
-127.349
 21
158.855
  0
LINE
  8
0
 10
-127.349
 20
158.855
 11
-127.651
 21
158.855
  0
LINE
  8
0
 10
-127.651
 20
151.355
 11
-127.95
 21
151.393
  0
LINE
  8
0
 10
-127.95
 20
151.393
 11
-128.242
 21
151.467
  0
LINE
  8
0
 10
-128.242
 20
151.467
 11
-128.522
 21
151.578
  0
LINE
  8
0
 10
-128.522
 20
151.578
 11
-128.786
 21
151.724
  0
LINE
  8
0
 10
-128.786
 20
151.724
 11
-129.03
 21
151.901
  0
LINE
  8
0
 10
-129.03
 20
151.901
 11
-129.25
 21
152.107
  0
LINE
  8
0
 10
-129.25
 20
152.107
 11
-129.442
 21
152.339
  0
LINE
  8
0
 10
-129.442
 20
152.339
 11
-129.603
 21
152.594
  0
LINE
  8
0
 10
-129.603
 20
152.594
 11
-129.731
 21
152.867
  0
LINE
  8
0
 10
-129.731
 20
152.867
 11
-129.825
 21
153.153
  0
LINE
  8
0
 10
-129.825
 20
153.153
 11
-129.881
 21
153.449
  0
LINE
  8
0
 10
-129.881
 20
153.449
 11
-129.9
 21
153.75
  0
LINE
  8
0
 10
-129.9
 20
153.75
 11
-129.881
 21
154.051
  0
LINE
  8
0
 10
-129.881
 20
154.051
 11
-129.825
 21
154.347
  0
LINE
  8
0
 10
-129.825
 20
154.347
 11
-129.731
 21
154.633
  0
LINE
  8
0
 10
-129.731
 20
154.633
 11
-129.603
 21
154.906
  0
LINE
  8
0
 10
-129.603
 20
154.906
 11
-129.442
 21
155.161
  0
LINE
  8
0
 10
-129.442
 20
155.161
 11
-129.25
 21
155.393
  0
LINE
  8
0
 10
-129.25
 20
155.393
 11
-129.03
 21
155.599
  0
LINE
  8
0
 10
-129.03
 20
155.599
 11
-128.786
 21
155.776
  0
LINE
  8
0
 10
-128.786
 20
155.776
 11
-128.522
 21
155.922
  0
LINE
  8
0
 10
-128.522
 20
155.922
 11
-128.242
 21
156.033
  0
LINE
  8
0
 10
-128.242
 20
156.033
 11
-127.95
 21
156.107
  0
LINE
  8
0
 10
-127.95
 20
156.107
 11
-127.651
 21
156.145
  0
LINE
  8
0
 10
-127.651
 20
156.145
 11
-127.349
 21
156.145
  0
LINE
  8
0
 10
-127.349
 20
156.145
 11
-127.05
 21
156.107
  0
LINE
  8
0
 10
-127.05
 20
156.107
 11
-126.758
 21
156.033
  0
LINE
  8
0
 10
-126.758
 20
156.033
 11
-126.478
 21
155.922
  0
LINE
  8
0
 10
-126.478
 20
155.922
 11
-126.214
 21
155.776
  0
LINE
  8
0
 10
-126.214
 20
155.776
 11
-125.97
 21
155.599
  0
LINE
  8
0
 10
-125.97
 20
155.599
 11
-125.75
 21
155.393
  0
LINE
  8
0
 10
-125.75
 20
155.393
 11
-125.558
 21
155.161
  0
LINE
  8
0
 10
-125.558
 20
155.161
 11
-125.397
 21
154.906
  0
LINE
  8
0
 10
-125.397
 20
154.906
 11
-125.269
 21
154.633
  0
LINE
  8
0
 10
-125.269
 20
154.633
 11
-125.175
 21
154.347
  0
LINE
  8
0
 10
-125.175
 20
154.347
 11
-125.119
 21
154.051
  0
LINE
  8
0
 10
-125.119
 20
154.051
 11
-125.1
 21
153.75
  0
LINE
  8
0
 10
-125.1
 20
153.75
 11
-125.119
 21
153.449
  0
LINE
  8
0
 10
-125.119
 20
153.449
 11
-125.175
 21
153.153
  0
LINE
  8
0
 10
-125.175
 20
153.153
 11
-125.269
 21
152.867
  0
LINE
  8
0
 10
-125.269
 20
152.867
 11
-125.397
 21
152.594
  0
LINE
  8
0
 10
-125.397
 20
152.594
 11
-125.558
 21
152.339
  0
LINE
  8
0
 10
-125.558
 20
152.339
 11
-125.75
 21
152.107
  0
LINE
  8
0
 10
-125.75
 20
152.107
 11
-125.97
 21
151.901
  0
LINE
  8
0
 10
-125.97
 20
151.901
 11
-126.214
 21
151.724
  0
LINE
  8
0
 10
-126.214
 20
151.724
 11
-126.478
 21
151.578
  0
LINE
  8
0
 10
-126.478
 20
151.578
 11
-126.758
 21
151.467
  0
LINE
  8
0
 10
-126.758
 20
151.467
 11
-127.05
 21
151.393
  0
LINE
  8
0
 10
-127.05
 20
151.393
 11
-127.349
 21
151.355
  0
LINE
  8
0
 10
-127.349
 20
151.355
 11
-127.651
 21
151.355
  0
LINE
  8
0
 10
127.349
 20
151.355
 11
127.05
 21
151.393
  0
LINE
  8
0
 10
127.05
 20
151.393
 11
126.758
 21
151.467
  0
LINE
  8
0
 10
126.758
 20
151.467
 11
126.478
 21
151.578
  0
LINE
  8
0
 10
126.478
 20
151.578
 11
126.214
 21
151.724
  0
LINE
  8
0
 10
126.214
 20
151.724
 11
125.97
 21
151.901
  0
LINE
  8
0
 10
125.97
 20
151.901
 11
125.75
 21
152.107
  0
LINE
  8
0
 10
125.75
 20
152.107
 11
125.558
 21
152.339
  0
LINE
  8
0
 10
125.558
 20
152.339
 11
125.397
 21
152.594
  0
LINE
  8
0
 10
125.397
 20
152.594
 11
125.269
 21
152.867
  0
LINE
  8
0
 10
125.269
 20
152.867
 11
125.175
 21
153.153
  0
LINE
  8
0
 10
125.175
 20
153.153
 11
125.119
 21
153.449
  0
LINE
  8
0
 10
125.119
 20
153.449
 11
125.1
 21
153.75
  0
LINE
  8
0
 10
125.1
 20
153.75
 11
125.119
 21
154.051
  0
LINE
  8
0
 10
125.119
 20
154.051
 11
125.175
 21
154.347
  0
LINE
  8
0
 10
125.175
 20
154.347
 11
125.269
 21
154.633
  0
LINE
  8
0
 10
125.269
 20
154.633
 11
125.397
 21
154.906
  0
LINE
  8
0
 10
125.397
 20
154.906
 11
125.558
 21
155.161
  0
LINE
  8
0
 10
125.558
 20
155.161
 11
125.75
 21
155.393
  0
LINE
  8
0
 10
125.75
 20
155.393
 11
125.97
 21
155.599
  0
LINE
  8
0
 10
125.97
 20
155.599
 11
126.214
 21
155.776
  0
LINE
  8
0
 10
126.214
 20
155.776
 11
126.478
 21
155.922
  0
LINE
  8
0
 10
126.478
 20
155.922
 11
126.758
 21
156.033
  0
LINE
  8
0
 10
126.758
 20
156.033
 11
127.05
 21
156.107
  0
LINE
  8
0
 10
127.05
 20
156.107
 11
127.349
 21
156.145
  0
LINE
  8
0
 10
127.349
 20
156.145
 11
127.651
 21
156.145
  0
LINE
  8
0
 10
127.651
 20
156.145
 11
127.95
 21
156.107
  0
LINE
  8
0
 10
127.95
 20
156.107
 11
128.242
 21
156.033
  0
LINE
  8
0
 10
128.242
 20
156.033
 11
128.522
 21
155.922
  0
LINE
  8
0
 10
128.522
 20
155.922
 11
128.786
 21
155.776
  0
LINE
  8
0
 10
128.786
 20
155.776
 11
129.03
 21
155.599
  0
LINE
  8
0
 10
129.03
 20
155.599
 11
129.25
 21
155.393
  0
LINE
  8
0
 10
129.25
 20
155.393
 11
129.442
 21
155.161
  0
LINE
  8
0
 10
129.442
 20
155.161
 11
129.603
 21
154.906
  0
LINE
  8
0
 10
129.603
 20
154.906
 11
129.731
 21
154.633
  0
LINE
  8
0
 10
129.731
 20
154.633
 11
129.825
 21
154.347
  0
LINE
  8
0
 10
129.825
 20
154.347
 11
129.881
 21
154.051
  0
LINE
  8
0
 10
129.881
 20
154.051
 11
129.9
 21
153.75
  0
LINE
  8
0
 10
129.9
 20
153.75
 11
129.881
 21
153.449
  0
LINE
  8
0
 10
129.881
 20
153.449
 11
129.825
 21
153.153
  0
LINE
  8
0
 10
129.825
 20
153.153
 11
129.731
 21
152.867
  0
LINE
  8
0
 10
129.731
 20
152.867
 11
129.603
 21
152.594
  0
LINE
  8
0
 10
129.603
 20
152.594
 11
129.442
 21
152.339
  0
LINE
  8
0
 10
129.442
 20
152.339
 11
129.25
 21
152.107
  0
LINE
  8
0
 10
129.25
 20
152.107
 11
129.03
 21
151.901
  0
LINE
  8
0
 10
129.03
 20
151.901
 11
128.786
 21
151.724
  0
LINE
  8
0
 10
128.786
 20
151.724
 11
128.522
 21
151.578
  0
LINE
  8
0
 10
128.522
 20
151.578
 11
128.242
 21
151.467
  0
LINE
  8
0
 10
128.242
 20
151.467
 11
127.95
 21
151.393
  0
LINE
  8
0
 10
127.95
 20
151.393
 11
127.651
 21
151.355
  0
LINE
  8
0
 10
127.651
 20
151.355
 11
127.349
 21
151.355
  0
LINE
  8
0
 10
130.937
 20
114.839
 11
131.545
 21
114.995
  0
LINE
  8
0
 10
131.545
 20
114.995
 11
132.129
 21
115.226
  0
LINE
  8
0
 10
132.129
 20
115.226
 11
132.679
 21
115.528
  0
LINE
  8
0
 10
132.679
 20
115.528
 11
133.187
 21
115.897
  0
LINE
  8
0
 10
133.187
 20
115.897
 11
133.645
 21
116.327
  0
LINE
  8
0
 10
133.645
 20
116.327
 11
134.045
 21
116.811
  0
LINE
  8
0
 10
134.045
 20
116.811
 11
134.382
 21
117.341
  0
LINE
  8
0
 10
134.382
 20
117.341
 11
134.649
 21
117.909
  0
LINE
  8
0
 10
134.649
 20
117.909
 11
134.843
 21
118.507
  0
LINE
  8
0
 10
134.843
 20
118.507
 11
134.961
 21
119.123
  0
LINE
  8
0
 10
134.961
 20
119.123
 11
135
 21
119.75
  0
LINE
  8
0
 10
135
 20
119.75
 11
135
 21
132.25
  0
LINE
  8
0
 10
135
 20
132.25
 11
134.961
 21
132.877
  0
LINE
  8
0
 10
134.961
 20
132.877
 11
134.843
 21
133.493
  0
LINE
  8
0
 10
134.843
 20
133.493
 11
134.649
 21
134.091
  0
LINE
  8
0
 10
134.649
 20
134.091
 11
134.382
 21
134.659
  0
LINE
  8
0
 10
134.382
 20
134.659
 11
134.045
 21
135.189
  0
LINE
  8
0
 10
134.045
 20
135.189
 11
133.645
 21
135.673
  0
LINE
  8
0
 10
133.645
 20
135.673
 11
133.187
 21
136.103
  0
LINE
  8
0
 10
133.187
 20
136.103
 11
132.679
 21
136.472
  0
LINE
  8
0
 10
132.679
 20
136.472
 11
132.129
 21
136.774
  0
LINE
  8
0
 10
132.129
 20
136.774
 11
131.545
 21
137.005
  0
LINE
  8
0
 10
131.545
 20
137.005
 11
130.937
 21
137.161
  0
LINE
  8
0
 10
130.937
 20
137.161
 11
130.314
 21
137.24
  0
LINE
  8
0
 10
130.314
 20
137.24
 11
-130.314
 21
137.24
  0
LINE
  8
0
 10
-130.314
 20
137.24
 11
-130.937
 21
137.161
  0
LINE
  8
0
 10
-130.937
 20
137.161
 11
-131.545
 21
137.005
  0
LINE
  8
0
 10
-131.545
 20
137.005
 11
-132.129
 21
136.774
  0
LINE
  8
0
 10
-132.129
 20
136.774
 11
-132.679
 21
136.472
  0
LINE
  8
0
 10
-132.679
 20
136.472
 11
-133.187
 21
136.103
  0
LINE
  8
0
 10
-133.187
 20
136.103
 11
-133.645
 21
135.673
  0
LINE
  8
0
 10
-133.645
 20
135.673
 11
-134.045
 21
135.189
  0
LINE
  8
0
 10
-134.045
 20
135.189
 11
-134.382
 21
134.659
  0
LINE
  8
0
 10
-134.382
 20
134.659
 11
-134.649
 21
134.091
  0
LINE
  8
0
 10
-134.649
 20
134.091
 11
-134.843
 21
133.493
  0
LINE
  8
0
 10
-134.843
 20
133.493
 11
-134.9
 21
133.194
  0
LINE
  8
0
 10
-134.9
 20
133.194
 11
-136.5
 21
133.194
  0
LINE
  8
0
 10
-136.5
 20
133.194
 11
-136.5
 21
118.806
  0
LINE
  8
0
 10
-136.5
 20
118.806
 11
-134.9
 21
118.806
  0
LINE
  8
0
 10
-134.9
 20
118.806
 11
-134.843
 21
118.507
  0
LINE
  8
0
 10
-134.843
 20
118.507
 11
-134.649
 21
117.909
  0
LINE
  8
0
 10
-134.649
 20
117.909
 11
-134.382
 21
117.341
  0
LINE
  8
0
 10
-134.382
 20
117.341
 11
-134.045
 21
116.811
  0
LINE
  8
0
 10
-134.045
 20
116.811
 11
-133.645
 21
116.327
  0
LINE
  8
0
 10
-133.645
 20
116.327
 11
-133.187
 21
115.897
  0
LINE
  8
0
 10
-133.187
 20
115.897
 11
-132.679
 21
115.528
  0
LINE
  8
0
 10
-132.679
 20
115.528
 11
-132.129
 21
115.226
  0
LINE
  8
0
 10
-132.129
 20
115.226
 11
-131.545
 21
114.995
  0
LINE
  8
0
 10
-131.545
 20
114.995
 11
-130.937
 21
114.839
  0
LINE
  8
0
 10
-130.937
 20
114.839
 11
-130.314
 21
114.76
  0
LINE
  8
0
 10
-130.314
 20
114.76
 11
130.314
 21
114.76
  0
LINE
  8
0
 10
130.314
 20
114.76
 11
130.937
 21
114.839
  0
LINE
  8
0
 10
-127.613
 20
127.954
 11
-127.837
 21
127.982
  0
LINE
  8
0
 10
-127.837
 20
127.982
 11
-128.056
 21
128.038
  0
LINE
  8
0
 10
-128.056
 20
128.038
 11
-128.266
 21
128.121
  0
LINE
  8
0
 10
-128.266
 20
128.121
 11
-128.464
 21
128.23
  0
LINE
  8
0
 10
-128.464
 20
128.23
 11
-128.647
 21
128.363
  0
LINE
  8
0
 10
-128.647
 20
128.363
 11
-128.812
 21
128.518
  0
LINE
  8
0
 10
-128.812
 20
128.518
 11
-128.956
 21
128.692
  0
LINE
  8
0
 10
-128.956
 20
128.692
 11
-129.077
 21
128.883
  0
LINE
  8
0
 10
-129.077
 20
128.883
 11
-129.174
 21
129.087
  0
LINE
  8
0
 10
-129.174
 20
129.087
 11
-129.243
 21
129.302
  0
LINE
  8
0
 10
-129.243
 20
129.302
 11
-129.286
 21
129.524
  0
LINE
  8
0
 10
-129.286
 20
129.524
 11
-129.3
 21
129.75
  0
LINE
  8
0
 10
-129.3
 20
129.75
 11
-129.286
 21
129.976
  0
LINE
  8
0
 10
-129.286
 20
129.976
 11
-129.243
 21
130.198
  0
LINE
  8
0
 10
-129.243
 20
130.198
 11
-129.174
 21
130.413
  0
LINE
  8
0
 10
-129.174
 20
130.413
 11
-129.077
 21
130.617
  0
LINE
  8
0
 10
-129.077
 20
130.617
 11
-128.956
 21
130.808
  0
LINE
  8
0
 10
-128.956
 20
130.808
 11
-128.812
 21
130.982
  0
LINE
  8
0
 10
-128.812
 20
130.982
 11
-128.647
 21
131.137
  0
LINE
  8
0
 10
-128.647
 20
131.137
 11
-128.464
 21
131.27
  0
LINE
  8
0
 10
-128.464
 20
131.27
 11
-128.266
 21
131.379
  0
LINE
  8
0
 10
-128.266
 20
131.379
 11
-128.056
 21
131.462
  0
LINE
  8
0
 10
-128.056
 20
131.462
 11
-127.837
 21
131.518
  0
LINE
  8
0
 10
-127.837
 20
131.518
 11
-127.613
 21
131.546
  0
LINE
  8
0
 10
-127.613
 20
131.546
 11
-127.387
 21
131.546
  0
LINE
  8
0
 10
-127.387
 20
131.546
 11
-127.163
 21
131.518
  0
LINE
  8
0
 10
-127.163
 20
131.518
 11
-126.944
 21
131.462
  0
LINE
  8
0
 10
-126.944
 20
131.462
 11
-126.734
 21
131.379
  0
LINE
  8
0
 10
-126.734
 20
131.379
 11
-126.536
 21
131.27
  0
LINE
  8
0
 10
-126.536
 20
131.27
 11
-126.353
 21
131.137
  0
LINE
  8
0
 10
-126.353
 20
131.137
 11
-126.188
 21
130.982
  0
LINE
  8
0
 10
-126.188
 20
130.982
 11
-126.044
 21
130.808
  0
LINE
  8
0
 10
-126.044
 20
130.808
 11
-125.923
 21
130.617
  0
LINE
  8
0
 10
-125.923
 20
130.617
 11
-125.826
 21
130.413
  0
LINE
  8
0
 10
-125.826
 20
130.413
 11
-125.757
 21
130.198
  0
LINE
  8
0
 10
-125.757
 20
130.198
 11
-125.714
 21
129.976
  0
LINE
  8
0
 10
-125.714
 20
129.976
 11
-125.7
 21
129.75
  0
LINE
  8
0
 10
-125.7
 20
129.75
 11
-125.714
 21
129.524
  0
LINE
  8
0
 10
-125.714
 20
129.524
 11
-125.757
 21
129.302
  0
LINE
  8
0
 10
-125.757
 20
129.302
 11
-125.826
 21
129.087
  0
LINE
  8
0
 10
-125.826
 20
129.087
 11
-125.923
 21
128.883
  0
LINE
  8
0
 10
-125.923
 20
128.883
 11
-126.044
 21
128.692
  0
LINE
  8
0
 10
-126.044
 20
128.692
 11
-126.188
 21
128.518
  0
LINE
  8
0
 10
-126.188
 20
128.518
 11
-126.353
 21
128.363
  0
LINE
  8
0
 10
-126.353
 20
128.363
 11
-126.536
 21
128.23
  0
LINE
  8
0
 10
-126.536
 20
128.23
 11
-126.734
 21
128.121
  0
LINE
  8
0
 10
-126.734
 20
128.121
 11
-126.944
 21
128.038
  0
LINE
  8
0
 10
-126.944
 20
128.038
 11
-127.163
 21
127.982
  0
LINE
  8
0
 10
-127.163
 20
127.982
 11
-127.387
 21
127.954
  0
LINE
  8
0
 10
-127.387
 20
127.954
 11
-127.613
 21
127.954
  0
LINE
  8
0
 10
127.387
 20
127.954
 11
127.163
 21
127.982
  0
LINE
  8
0
 10
127.163
 20
127.982
 11
126.944
 21
128.038
  0
LINE
  8
0
 10
126.944
 20
128.038
 11
126.734
 21
128.121
  0
LINE
  8
0
 10
126.734
 20
128.121
 11
126.536
 21
128.23
  0
LINE
  8
0
 10
126.536
 20
128.23
 11
126.353
 21
128.363
  0
LINE
  8
0
 10
126.353
 20
128.363
 11
126.188
 21
128.518
  0
LINE
  8
0
 10
126.188
 20
128.518
 11
126.044
 21
128.692
  0
LINE
  8
0
 10
126.044
 20
128.692
 11
125.923
 21
128.883
  0
LINE
  8
0
 10
125.923
 20
128.883
 11
125.826
 21
129.087
  0
LINE
  8
0
 10
125.826
 20
129.087
 11
125.757
 21
129.302
  0
LINE
  8
0
 10
125.757
 20
129.302
 11
125.714
 21
129.524
  0
LINE
  8
0
 10
125.714
 20
129.524
 11
125.7
 21
129.75
  0
LINE
  8
0
 10
125.7
 20
129.75
 11
125.714
 21
129.976
  0
LINE
  8
0
 10
125.714
 20
129.976
 11
125.757
 21
130.198
  0
LINE
  8
0
 10
125.757
 20
130.198
 11
125.826
 21
130.413
  0
LINE
  8
0
 10
125.826
 20
130.413
 11
125.923
 21
130.617
  0
LINE
  8
0
 10
125.923
 20
130.617
 11
126.044
 21
130.808
  0
LINE
  8
0
 10
126.044
 20
130.808
 11
126.188
 21
130.982
  0
LINE
  8
0
 10
126.188
 20
130.982
 11
126.353
 21
131.137
  0
LINE
  8
0
 10
126.353
 20
131.137
 11
126.536
 21
131.27
  0
LINE
  8
0
 10
126.536
 20
131.27
 11
126.734
 21
131.379
  0
LINE
  8
0
 10
126.734
 20
131.379
 11
126.944
 21
131.462
  0
LINE
  8
0
 10
126.944
 20
131.462
 11
127.163
 21
131.518
  0
LINE
  8
0
 10
127.163
 20
131.518
 11
127.387
 21
131.546
  0
LINE
  8
0
 10
127.387
 20
131.546
 11
127.613
 21
131.546
  0
LINE
  8
0
 10
127.613
 20
131.546
 11
127.837
 21
131.518
  0
LINE
  8
0
 10
127.837
 20
131.518
 11
128.056
 21
131.462
  0
LINE
  8
0
 10
128.056
 20
131.462
 11
128.266
 21
131.379
  0
LINE
  8
0
 10
128.266
 20
131.379
 11
128.464
 21
131.27
  0
LINE
  8
0
 10
128.464
 20
131.27
 11
128.647
 21
131.137
  0
LINE
  8
0
 10
128.647
 20
131.137
 11
128.812
 21
130.982
  0
LINE
  8
0
 10
128.812
 20
130.982
 11
128.956
 21
130.808
  0
LINE
  8
0
 10
128.956
 20
130.808
 11
129.077
 21
130.617
  0
LINE
  8
0
 10
129.077
 20
130.617
 11
129.174
 21
130.413
  0
LINE
  8
0
 10
129.174
 20
130.413
 11
129.243
 21
130.198
  0
LINE
  8
0
 10
129.243
 20
130.198
 11
129.286
 21
129.976
  0
LINE
  8
0
 10
129.286
 20
129.976
 11
129.3
 21
129.75
  0
LINE
  8
0
 10
129.3
 20
129.75
 11
129.286
 21
129.524
  0
LINE
  8
0
 10
129.286
 20
129.524
 11
129.243
 21
129.302
  0
LINE
  8
0
 10
129.243
 20
129.302
 11
129.174
 21
129.087
  0
LINE
  8
0
 10
129.174
 20
129.087
 11
129.077
 21
128.883
  0
LINE
  8
0
 10
129.077
 20
128.883
 11
128.956
 21
128.692
  0
LINE
  8
0
 10
128.956
 20
128.692
 11
128.812
 21
128.518
  0
LINE
  8
0
 10
128.812
 20
128.518
 11
128.647
 21
128.363
  0
LINE
  8
0
 10
128.647
 20
128.363
 11
128.464
 21
128.23
  0
LINE
  8
0
 10
128.464
 20
128.23
 11
128.266
 21
128.121
  0
LINE
  8
0
 10
128.266
 20
128.121
 11
128.056
 21
128.038
  0
LINE
  8
0
 10
128.056
 20
128.038
 11
127.837
 21
127.982
  0
LINE
  8
0
 10
127.837
 20
127.982
 11
127.613
 21
127.954
  0
LINE
  8
0
 10
127.613
 20
127.954
 11
127.387
 21
127.954
  0
LINE
  8
0
 10
127.387
 20
120.454
 11
127.163
 21
120.482
  0
LINE
  8
0
 10
127.163
 20
120.482
 11
126.944
 21
120.538
  0
LINE
  8
0
 10
126.944
 20
120.538
 11
126.734
 21
120.621
  0
LINE
  8
0
 10
126.734
 20
120.621
 11
126.536
 21
120.73
  0
LINE
  8
0
 10
126.536
 20
120.73
 11
126.353
 21
120.863
  0
LINE
  8
0
 10
126.353
 20
120.863
 11
126.188
 21
121.018
  0
LINE
  8
0
 10
126.188
 20
121.018
 11
126.044
 21
121.192
  0
LINE
  8
0
 10
126.044
 20
121.192
 11
125.923
 21
121.383
  0
LINE
  8
0
 10
125.923
 20
121.383
 11
125.826
 21
121.587
  0
LINE
  8
0
 10
125.826
 20
121.587
 11
125.757
 21
121.802
  0
LINE
  8
0
 10
125.757
 20
121.802
 11
125.714
 21
122.024
  0
LINE
  8
0
 10
125.714
 20
122.024
 11
125.7
 21
122.25
  0
LINE
  8
0
 10
125.7
 20
122.25
 11
125.714
 21
122.476
  0
LINE
  8
0
 10
125.714
 20
122.476
 11
125.757
 21
122.698
  0
LINE
  8
0
 10
125.757
 20
122.698
 11
125.826
 21
122.913
  0
LINE
  8
0
 10
125.826
 20
122.913
 11
125.923
 21
123.117
  0
LINE
  8
0
 10
125.923
 20
123.117
 11
126.044
 21
123.308
  0
LINE
  8
0
 10
126.044
 20
123.308
 11
126.188
 21
123.482
  0
LINE
  8
0
 10
126.188
 20
123.482
 11
126.353
 21
123.637
  0
LINE
  8
0
 10
126.353
 20
123.637
 11
126.536
 21
123.77
  0
LINE
  8
0
 10
126.536
 20
123.77
 11
126.734
 21
123.879
  0
LINE
  8
0
 10
126.734
 20
123.879
 11
126.944
 21
123.962
  0
LINE
  8
0
 10
126.944
 20
123.962
 11
127.163
 21
124.018
  0
LINE
  8
0
 10
127.163
 20
124.018
 11
127.387
 21
124.046
  0
LINE
  8
0
 10
127.387
 20
124.046
 11
127.613
 21
124.046
  0
LINE
  8
0
 10
127.613
 20
124.046
 11
127.837
 21
124.018
  0
LINE
  8
0
 10
127.837
 20
124.018
 11
128.056
 21
123.962
  0
LINE
  8
0
 10
128.056
 20
123.962
 11
128.266
 21
123.879
  0
LINE
  8
0
 10
128.266
 20
123.879
 11
128.464
 21
123.77
  0
LINE
  8
0
 10
128.464
 20
123.77
 11
128.647
 21
123.637
  0
LINE
  8
0
 10
128.647
 20
123.637
 11
128.812
 21
123.482
  0
LINE
  8
0
 10
128.812
 20
123.482
 11
128.956
 21
123.308
  0
LINE
  8
0
 10
128.956
 20
123.308
 11
129.077
 21
123.117
  0
LINE
  8
0
 10
129.077
 20
123.117
 11
129.174
 21
122.913
  0
LINE
  8
0
 10
129.174
 20
122.913
 11
129.243
 21
122.698
  0
LINE
  8
0
 10
129.243
 20
122.698
 11
129.286
 21
122.476
  0
LINE
  8
0
 10
129.286
 20
122.476
 11
129.3
 21
122.25
  0
LINE
  8
0
 10
129.3
 20
122.25
 11
129.286
 21
122.024
  0
LINE
  8
0
 10
129.286
 20
122.024
 11
129.243
 21
121.802
  0
LINE
  8
0
 10
129.243
 20
121.802
 11
129.174
 21
121.587
  0
LINE
  8
0
 10
129.174
 20
121.587
 11
129.077
 21
121.383
  0
LINE
  8
0
 10
129.077
 20
121.383
 11
128.956
 21
121.192
  0
LINE
  8
0
 10
128.956
 20
121.192
 11
128.812
 21
121.018
  0
LINE
  8
0
 10
128.812
 20
121.018
 11
128.647
 21
120.863
  0
LINE
  8
0
 10
128.647
 20
120.863
 11
128.464
 21
120.73
  0
LINE
  8
0
 10
128.464
 20
120.73
 11
128.266
 21
120.621
  0
LINE
  8
0
 10
128.266
 20
120.621
 11
128.056
 21
120.538
  0
LINE
  8
0
 10
128.056
 20
120.538
 11
127.837
 21
120.482
  0
LINE
  8
0
 10
127.837
 20
120.482
 11
127.613
 21
120.454
  0
LINE
  8
0
 10
127.613
 20
120.454
 11
127.387
 21
120.454
  0
LINE
  8
0
 10
-127.613
 20
120.454
 11
-127.837
 21
120.482
  0
LINE
  8
0
 10
-127.837
 20
120.482
 11
-128.056
 21
120.538
  0
LINE
  8
0
 10
-128.056
 20
120.538
 11
-128.266
 21
120.621
  0
LINE
  8
0
 10
-128.266
 20
120.621
 11
-128.464
 21
120.73
  0
LINE
  8
0
 10
-128.464
 20
120.73
 11
-128.647
 21
120.863
  0
LINE
  8
0
 10
-128.647
 20
120.863
 11
-128.812
 21
121.018
  0
LINE
  8
0
 10
-128.812
 20
121.018
 11
-128.956
 21
121.192
  0
LINE
  8
0
 10
-128.956
 20
121.192
 11
-129.077
 21
121.383
  0
LINE
  8
0
 10
-129.077
 20
121.383
 11
-129.174
 21
121.587
  0
LINE
  8
0
 10
-129.174
 20
121.587
 11
-129.243
 21
121.802
  0
LINE
  8
0
 10
-129.243
 20
121.802
 11
-129.286
 21
122.024
  0
LINE
  8
0
 10
-129.286
 20
122.024
 11
-129.3
 21
122.25
  0
LINE
  8
0
 10
-129.3
 20
122.25
 11
-129.286
 21
122.476
  0
LINE
  8
0
 10
-129.286
 20
122.476
 11
-129.243
 21
122.698
  0
LINE
  8
0
 10
-129.243
 20
122.698
 11
-129.174
 21
122.913
  0
LINE
  8
0
 10
-129.174
 20
122.913
 11
-129.077
 21
123.117
  0
LINE
  8
0
 10
-129.077
 20
123.117
 11
-128.956
 21
123.308
  0
LINE
  8
0
 10
-128.956
 20
123.308
 11
-128.812
 21
123.482
  0
LINE
  8
0
 10
-128.812
 20
123.482
 11
-128.647
 21
123.637
  0
LINE
  8
0
 10
-128.647
 20
123.637
 11
-128.464
 21
123.77
  0
LINE
  8
0
 10
-128.464
 20
123.77
 11
-128.266
 21
123.879
  0
LINE
  8
0
 10
-128.266
 20
123.879
 11
-128.056
 21
123.962
  0
LINE
  8
0
 10
-128.056
 20
123.962
 11
-127.837
 21
124.018
  0
LINE
  8
0
 10
-127.837
 20
124.018
 11
-127.613
 21
124.046
  0
LINE
  8
0
 10
-127.613
 20
124.046
 11
-127.387
 21
124.046
  0
LINE
  8
0
 10
-127.387
 20
124.046
 11
-127.163
 21
124.018
  0
LINE
  8
0
 10
-127.163
 20
124.018
 11
-126.944
 21
123.962
  0
LINE
  8
0
 10
-126.944
 20
123.962
 11
-126.734
 21
123.879
  0
LINE
  8
0
 10
-126.734
 20
123.879
 11
-126.536
 21
123.77
  0
LINE
  8
0
 10
-126.536
 20
123.77
 11
-126.353
 21
123.637
  0
LINE
  8
0
 10
-126.353
 20
123.637
 11
-126.188
 21
123.482
  0
LINE
  8
0
 10
-126.188
 20
123.482
 11
-126.044
 21
123.308
  0
LINE
  8
0
 10
-126.044
 20
123.308
 11
-125.923
 21
123.117
  0
LINE
  8
0
 10
-125.923
 20
123.117
 11
-125.826
 21
122.913
  0
LINE
  8
0
 10
-125.826
 20
122.913
 11
-125.757
 21
122.698
  0
LINE
  8
0
 10
-125.757
 20
122.698
 11
-125.714
 21
122.476
  0
LINE
  8
0
 10
-125.714
 20
122.476
 11
-125.7
 21
122.25
  0
LINE
  8
0
 10
-125.7
 20
122.25
 11
-125.714
 21
122.024
  0
LINE
  8
0
 10
-125.714
 20
122.024
 11
-125.757
 21
121.802
  0
LINE
  8
0
 10
-125.757
 20
121.802
 11
-125.826
 21
121.587
  0
LINE
  8
0
 10
-125.826
 20
121.587
 11
-125.923
 21
121.383
  0
LINE
  8
0
 10
-125.923
 20
121.383
 11
-126.044
 21
121.192
  0
LINE
  8
0
 10
-126.044
 20
121.192
 11
-126.188
 21
121.018
  0
LINE
  8
0
 10
-126.188
 20
121.018
 11
-126.353
 21
120.863
  0
LINE
  8
0
 10
-126.353
 20
120.863
 11
-126.536
 21
120.73
  0
LINE
  8
0
 10
-126.536
 20
120.73
 11
-126.734
 21
120.621
  0
LINE
  8
0
 10
-126.734
 20
120.621
 11
-126.944
 21
120.538
  0
LINE
  8
0
 10
-126.944
 20
120.538
 11
-127.163
 21
120.482
  0
LINE
  8
0
 10
-127.163
 20
120.482
 11
-127.387
 21
120.454
  0
LINE
  8
0
 10
-127.387
 20
120.454
 11
-127.613
 21
120.454
  0
ENDSEC
  0
SECTION
  2
OBJECTS
  0
DICTIONARY
  0
ENDSEC
  0
EOF
