<?xml version="1.0" standalone="no"?>
<!DOCTYPE svg PUBLIC "-//W3C//DTD SVG 1.1//EN" "http://www.w3.org/Graphics/SVG/1.1/DTD/svg11.dtd">
<svg width="270mm" height="267mm" viewBox="-135 -444 270 267" xmlns="http://www.w3.org/2000/svg" version="1.1">
<title>OpenSCAD Model</title>
<path d="
M 130.937,-384.089 L 131.545,-384.245 L 132.129,-384.476 L 132.679,-384.778 L 133.187,-385.147 L 133.645,-385.577
 L 134.045,-386.061 L 134.382,-386.591 L 134.649,-387.159 L 134.843,-387.757 L 134.961,-388.373 L 135,-389
 L 135,-439 L 134.961,-439.627 L 134.843,-440.243 L 134.649,-440.841 L 134.382,-441.409 L 134.045,-441.939
 L 133.645,-442.423 L 133.187,-442.853 L 132.679,-443.222 L 132.129,-443.524 L 131.545,-443.755 L 130.937,-443.911
 L 130.314,-443.99 L -130.314,-443.99 L -130.937,-443.911 L -131.545,-443.755 L -132.129,-443.524 L -132.679,-443.222
 L -133.187,-442.853 L -133.645,-442.423 L -134.045,-441.939 L -134.382,-441.409 L -134.649,-440.841 L -134.843,-440.243
 L -134.961,-439.627 L -135,-439 L -135,-389 L -134.961,-388.373 L -134.843,-387.757 L -134.649,-387.159
 L -134.382,-386.591 L -134.045,-386.061 L -133.645,-385.577 L -133.187,-385.147 L -132.679,-384.778 L -132.129,-384.476
 L -131.545,-384.245 L -130.937,-384.089 L -130.314,-384.01 L 130.314,-384.01 z
M -130.048,-384.509 L -130.64,-384.584 L -131.218,-384.732 L -131.772,-384.952 L -132.295,-385.239 L -132.778,-385.59
 L -133.213,-385.998 L -133.593,-386.458 L -133.912,-386.962 L -134.166,-387.501 L -134.351,-388.069 L -134.463,-388.655
 L -134.5,-389.25 L -134.5,-438.75 L -134.463,-439.345 L -134.351,-439.931 L -134.166,-440.499 L -133.912,-441.038
 L -133.593,-441.542 L -133.213,-442.002 L -132.778,-442.41 L -132.295,-442.761 L -131.772,-443.048 L -131.218,-443.268
 L -130.64,-443.416 L -130.048,-443.491 L 130.048,-443.491 L 130.64,-443.416 L 131.218,-443.268 L 131.772,-443.048
 L 132.295,-442.761 L 132.778,-442.41 L 133.213,-442.002 L 133.593,-441.542 L 133.912,-441.038 L 134.166,-440.499
 L 134.351,-439.931 L 134.463,-439.345 L 134.5,-438.75 L 134.5,-389.25 L 134.463,-388.655 L 134.351,-388.069
 L 134.166,-387.501 L 133.912,-386.962 L 133.593,-386.458 L 133.213,-385.998 L 132.778,-385.59 L 132.295,-385.239
 L 131.772,-384.952 L 131.218,-384.732 L 130.64,-384.584 L 130.048,-384.509 z
M 130.937,-315.089 L 131.545,-315.245 L 132.129,-315.476 L 132.679,-315.778 L 133.187,-316.147 L 133.645,-316.577
 L 134.045,-317.061 L 134.382,-317.591 L 134.649,-318.159 L 134.843,-318.757 L 134.961,-319.373 L 135,-320
 L 135,-370 L 134.961,-370.627 L 134.843,-371.243 L 134.649,-371.841 L 134.382,-372.409 L 134.045,-372.939
 L 133.645,-373.423 L 133.187,-373.853 L 132.679,-374.222 L 132.129,-374.524 L 131.545,-374.755 L 130.937,-374.911
 L 130.314,-374.99 L -130.314,-374.99 L -130.937,-374.911 L -131.545,-374.755 L -132.129,-374.524 L -132.679,-374.222
 L -133.187,-373.853 L -133.645,-373.423 L -134.045,-372.939 L -134.382,-372.409 L -134.649,-371.841 L -134.843,-371.243
 L -134.961,-370.627 L -135,-370 L -135,-320 L -134.961,-319.373 L -134.843,-318.757 L -134.649,-318.159
 L -134.382,-317.591 L -134.045,-317.061 L -133.645,-316.577 L -133.187,-316.147 L -132.679,-315.778 L -132.129,-315.476
 L -131.545,-315.245 L -130.937,-315.089 L -130.314,-315.01 L 130.314,-315.01 z
M -130.048,-315.509 L -130.64,-315.584 L -131.218,-315.732 L -131.772,-315.952 L -132.295,-316.239 L -132.778,-316.59
 L -133.213,-316.998 L -133.593,-317.458 L -133.912,-317.962 L -134.166,-318.501 L -134.351,-319.069 L -134.463,-319.655
 L -134.5,-320.25 L -134.5,-369.75 L -134.463,-370.345 L -134.351,-370.931 L -134.166,-371.499 L -133.912,-372.038
 L -133.593,-372.542 L -133.213,-373.002 L -132.778,-373.41 L -132.295,-373.761 L -131.772,-374.048 L -131.218,-374.268
 L -130.64,-374.416 L -130.048,-374.491 L 130.048,-374.491 L 130.64,-374.416 L 131.218,-374.268 L 131.772,-374.048
 L 132.295,-373.761 L 132.778,-373.41 L 133.213,-373.002 L 133.593,-372.542 L 133.912,-372.038 L 134.166,-371.499
 L 134.351,-370.931 L 134.463,-370.345 L 134.5,-369.75 L 134.5,-320.25 L 134.463,-319.655 L 134.351,-319.069
 L 134.166,-318.501 L 133.912,-317.962 L 133.593,-317.458 L 133.213,-316.998 L 132.778,-316.59 L 132.295,-316.239
 L 131.772,-315.952 L 131.218,-315.732 L 130.64,-315.584 L 130.048,-315.509 z
M 130.937,-246.089 L 131.545,-246.245 L 132.129,-246.476 L 132.679,-246.778 L 133.187,-247.147 L 133.645,-247.577
 L 134.045,-248.061 L 134.382,-248.591 L 134.649,-249.159 L 134.843,-249.757 L 134.961,-250.373 L 135,-251
 L 135,-301 L 134.961,-301.627 L 134.843,-302.243 L 134.649,-302.841 L 134.382,-303.409 L 134.045,-303.939
 L 133.645,-304.423 L 133.187,-304.853 L 132.679,-305.222 L 132.129,-305.524 L 131.545,-305.755 L 130.937,-305.911
 L 130.314,-305.99 L -130.314,-305.99 L -130.937,-305.911 L -131.545,-305.755 L -132.129,-305.524 L -132.679,-305.222
 L -133.187,-304.853 L -133.645,-304.423 L -134.045,-303.939 L -134.382,-303.409 L -134.649,-302.841 L -134.843,-302.243
 L -134.961,-301.627 L -135,-301 L -135,-251 L -134.961,-250.373 L -134.843,-249.757 L -134.649,-249.159
 L -134.382,-248.591 L -134.045,-248.061 L -133.645,-247.577 L -133.187,-247.147 L -132.679,-246.778 L -132.129,-246.476
 L -131.545,-246.245 L -130.937,-246.089 L -130.314,-246.01 L 130.314,-246.01 z
M -129.993,-247.388 L -130.475,-247.449 L -130.946,-247.57 L -131.398,-247.749 L -131.823,-247.983 L -132.216,-248.269
 L -132.571,-248.601 L -132.88,-248.976 L -133.141,-249.386 L -133.348,-249.826 L -133.498,-250.288 L -133.589,-250.765
 L -133.619,-251.25 L -133.619,-300.75 L -133.589,-301.235 L -133.498,-301.712 L -133.348,-302.174 L -133.141,-302.614
 L -132.88,-303.024 L -132.571,-303.399 L -132.216,-303.731 L -131.823,-304.017 L -131.398,-304.251 L -130.946,-304.43
 L -130.475,-304.551 L -129.993,-304.612 L 129.993,-304.612 L 130.475,-304.551 L 130.946,-304.43 L 131.398,-304.251
 L 131.823,-304.017 L 132.216,-303.731 L 132.571,-303.399 L 132.88,-303.024 L 133.141,-302.614 L 133.348,-302.174
 L 133.498,-301.712 L 133.589,-301.235 L 133.619,-300.75 L 133.619,-251.25 L 133.589,-250.765 L 133.498,-250.288
 L 133.348,-249.826 L 133.141,-249.386 L 132.88,-248.976 L 132.571,-248.601 L 132.216,-248.269 L 131.823,-247.983
 L 131.398,-247.749 L 130.946,-247.57 L 130.475,-247.449 L 129.993,-247.388 z
M 130.937,-177.089 L 131.545,-177.245 L 132.129,-177.476 L 132.679,-177.778 L 133.187,-178.147 L 133.645,-178.577
 L 134.045,-179.061 L 134.382,-179.591 L 134.649,-180.159 L 134.843,-180.757 L 134.961,-181.373 L 135,-182
 L 135,-232 L 134.961,-232.627 L 134.843,-233.243 L 134.649,-233.841 L 134.382,-234.409 L 134.045,-234.939
 L 133.645,-235.423 L 133.187,-235.853 L 132.679,-236.222 L 132.129,-236.524 L 131.545,-236.755 L 130.937,-236.911
 L 130.314,-236.99 L -130.314,-236.99 L -130.937,-236.911 L -131.545,-236.755 L -132.129,-236.524 L -132.679,-236.222
 L -133.187,-235.853 L -133.645,-235.423 L -134.045,-234.939 L -134.382,-234.409 L -134.649,-233.841 L -134.843,-233.243
 L -134.961,-232.627 L -135,-232 L -135,-182 L -134.961,-181.373 L -134.843,-180.757 L -134.649,-180.159
 L -134.382,-179.591 L -134.045,-179.061 L -133.645,-178.577 L -133.187,-178.147 L -132.679,-177.778 L -132.129,-177.476
 L -131.545,-177.245 L -130.937,-177.089 L -130.314,-177.01 L 130.314,-177.01 z
M -127.613,-227.704 L -127.837,-227.732 L -128.056,-227.788 L -128.266,-227.871 L -128.464,-227.98 L -128.647,-228.113
 L -128.812,-228.268 L -128.956,-228.442 L -129.077,-228.633 L -129.174,-228.837 L -129.243,-229.052 L -129.286,-229.274
 L -129.3,-229.5 L -129.286,-229.726 L -129.243,-229.948 L -129.174,-230.163 L -129.077,-230.367 L -128.956,-230.558
 L -128.812,-230.732 L -128.647,-230.887 L -128.464,-231.02 L -128.266,-231.129 L -128.056,-231.212 L -127.837,-231.268
 L -127.613,-231.296 L -127.387,-231.296 L -127.163,-231.268 L -126.944,-231.212 L -126.734,-231.129 L -126.536,-231.02
 L -126.353,-230.887 L -126.188,-230.732 L -126.044,-230.558 L -125.923,-230.367 L -125.826,-230.163 L -125.757,-229.948
 L -125.714,-229.726 L -125.7,-229.5 L -125.714,-229.274 L -125.757,-229.052 L -125.826,-228.837 L -125.923,-228.633
 L -126.044,-228.442 L -126.188,-228.268 L -126.353,-228.113 L -126.536,-227.98 L -126.734,-227.871 L -126.944,-227.788
 L -127.163,-227.732 L -127.387,-227.704 z
M 127.387,-227.704 L 127.163,-227.732 L 126.944,-227.788 L 126.734,-227.871 L 126.536,-227.98 L 126.353,-228.113
 L 126.188,-228.268 L 126.044,-228.442 L 125.923,-228.633 L 125.826,-228.837 L 125.757,-229.052 L 125.714,-229.274
 L 125.7,-229.5 L 125.714,-229.726 L 125.757,-229.948 L 125.826,-230.163 L 125.923,-230.367 L 126.044,-230.558
 L 126.188,-230.732 L 126.353,-230.887 L 126.536,-231.02 L 126.734,-231.129 L 126.944,-231.212 L 127.163,-231.268
 L 127.387,-231.296 L 127.613,-231.296 L 127.837,-231.268 L 128.056,-231.212 L 128.266,-231.129 L 128.464,-231.02
 L 128.647,-230.887 L 128.812,-230.732 L 128.956,-230.558 L 129.077,-230.367 L 129.174,-230.163 L 129.243,-229.948
 L 129.286,-229.726 L 129.3,-229.5 L 129.286,-229.274 L 129.243,-229.052 L 129.174,-228.837 L 129.077,-228.633
 L 128.956,-228.442 L 128.812,-228.268 L 128.647,-228.113 L 128.464,-227.98 L 128.266,-227.871 L 128.056,-227.788
 L 127.837,-227.732 L 127.613,-227.704 z
M 127.387,-182.704 L 127.163,-182.732 L 126.944,-182.788 L 126.734,-182.871 L 126.536,-182.98 L 126.353,-183.113
 L 126.188,-183.268 L 126.044,-183.442 L 125.923,-183.633 L 125.826,-183.837 L 125.757,-184.052 L 125.714,-184.274
 L 125.7,-184.5 L 125.714,-184.726 L 125.757,-184.948 L 125.826,-185.163 L 125.923,-185.367 L 126.044,-185.558
 L 126.188,-185.732 L 126.353,-185.887 L 126.536,-186.02 L 126.734,-186.129 L 126.944,-186.212 L 127.163,-186.268
 L 127.387,-186.296 L 127.613,-186.296 L 127.837,-186.268 L 128.056,-186.212 L 128.266,-186.129 L 128.464,-186.02
 L 128.647,-185.887 L 128.812,-185.732 L 128.956,-185.558 L 129.077,-185.367 L 129.174,-185.163 L 129.243,-184.948
 L 129.286,-184.726 L 129.3,-184.5 L 129.286,-184.274 L 129.243,-184.052 L 129.174,-183.837 L 129.077,-183.633
 L 128.956,-183.442 L 128.812,-183.268 L 128.647,-183.113 L 128.464,-182.98 L 128.266,-182.871 L 128.056,-182.788
 L 127.837,-182.732 L 127.613,-182.704 z
M -127.613,-182.704 L -127.837,-182.732 L -128.056,-182.788 L -128.266,-182.871 L -128.464,-182.98 L -128.647,-183.113
 L -128.812,-183.268 L -128.956,-183.442 L -129.077,-183.633 L -129.174,-183.837 L -129.243,-184.052 L -129.286,-184.274
 L -129.3,-184.5 L -129.286,-184.726 L -129.243,-184.948 L -129.174,-185.163 L -129.077,-185.367 L -128.956,-185.558
 L -128.812,-185.732 L -128.647,-185.887 L -128.464,-186.02 L -128.266,-186.129 L -128.056,-186.212 L -127.837,-186.268
 L -127.613,-186.296 L -127.387,-186.296 L -127.163,-186.268 L -126.944,-186.212 L -126.734,-186.129 L -126.536,-186.02
 L -126.353,-185.887 L -126.188,-185.732 L -126.044,-185.558 L -125.923,-185.367 L -125.826,-185.163 L -125.757,-184.948
 L -125.714,-184.726 L -125.7,-184.5 L -125.714,-184.274 L -125.757,-184.052 L -125.826,-183.837 L -125.923,-183.633
 L -126.044,-183.442 L -126.188,-183.268 L -126.353,-183.113 L -126.536,-182.98 L -126.734,-182.871 L -126.944,-182.788
 L -127.163,-182.732 L -127.387,-182.704 z
" stroke="black" fill="lightgray" stroke-width="0.5"/>
</svg>
