<?xml version="1.0" standalone="no"?>
<!DOCTYPE svg PUBLIC "-//W3C//DTD SVG 1.1//EN" "http://www.w3.org/Graphics/SVG/1.1/DTD/svg11.dtd">
<svg width="272mm" height="738mm" viewBox="-137 -1365 272 738" xmlns="http://www.w3.org/2000/svg" version="1.1">
<title>OpenSCAD Model</title>
<path d="
M -133.5,-1126.44 L -133.187,-1126.15 L -132.679,-1125.78 L -132.129,-1125.48 L -131.545,-1125.24 L -130.937,-1125.09
 L -130.314,-1125.01 L 130.314,-1125.01 L 130.937,-1125.09 L 131.545,-1125.24 L 132.129,-1125.48 L 132.679,-1125.78
 L 133.187,-1126.15 L 133.645,-1126.58 L 134.045,-1127.06 L 134.382,-1127.59 L 134.649,-1128.16 L 134.843,-1128.76
 L 134.961,-1129.37 L 135,-1130 L 135,-1360 L 134.961,-1360.63 L 134.843,-1361.24 L 134.649,-1361.84
 L 134.382,-1362.41 L 134.045,-1362.94 L 133.645,-1363.42 L 133.187,-1363.85 L 132.679,-1364.22 L 132.129,-1364.52
 L 131.545,-1364.76 L 130.937,-1364.91 L 130.314,-1364.99 L -130.314,-1364.99 L -130.937,-1364.91 L -131.545,-1364.76
 L -132.129,-1364.52 L -132.679,-1364.22 L -133.187,-1363.85 L -133.5,-1363.56 L -133.5,-1364.99 L -136.5,-1364.99
 L -136.5,-1125.01 L -133.5,-1125.01 z
M -129.751,-1126.51 L -130.25,-1126.57 L -130.736,-1126.7 L -131.203,-1126.88 L -131.643,-1127.12 L -132.05,-1127.42
 L -132.416,-1127.76 L -132.736,-1128.15 L -133.005,-1128.57 L -133.219,-1129.03 L -133.374,-1129.51 L -133.468,-1130
 L -133.5,-1130.5 L -133.5,-1359.5 L -133.468,-1360 L -133.374,-1360.49 L -133.219,-1360.97 L -133.005,-1361.43
 L -132.736,-1361.85 L -132.416,-1362.24 L -132.05,-1362.58 L -131.643,-1362.88 L -131.203,-1363.12 L -130.736,-1363.3
 L -130.25,-1363.43 L -129.751,-1363.49 L 129.751,-1363.49 L 130.25,-1363.43 L 130.736,-1363.3 L 131.203,-1363.12
 L 131.643,-1362.88 L 132.05,-1362.58 L 132.416,-1362.24 L 132.736,-1361.85 L 133.005,-1361.43 L 133.219,-1360.97
 L 133.374,-1360.49 L 133.468,-1360 L 133.5,-1359.5 L 133.5,-1130.5 L 133.468,-1130 L 133.374,-1129.51
 L 133.219,-1129.03 L 133.005,-1128.57 L 132.736,-1128.15 L 132.416,-1127.76 L 132.05,-1127.42 L 131.643,-1127.12
 L 131.203,-1126.88 L 130.736,-1126.7 L 130.25,-1126.57 L 129.751,-1126.51 z
M 130.937,-876.089 L 131.545,-876.245 L 132.129,-876.476 L 132.679,-876.778 L 133.187,-877.147 L 133.645,-877.577
 L 134.045,-878.061 L 134.382,-878.591 L 134.649,-879.159 L 134.843,-879.757 L 134.961,-880.373 L 135,-881
 L 135,-1111 L 134.961,-1111.63 L 134.843,-1112.24 L 134.649,-1112.84 L 134.382,-1113.41 L 134.045,-1113.94
 L 133.645,-1114.42 L 133.187,-1114.85 L 132.679,-1115.22 L 132.129,-1115.52 L 131.545,-1115.76 L 130.937,-1115.91
 L 130.314,-1115.99 L -130.314,-1115.99 L -130.937,-1115.91 L -131.545,-1115.76 L -132.129,-1115.52 L -132.679,-1115.22
 L -133.187,-1114.85 L -133.5,-1114.56 L -133.5,-1115.98 L -136.5,-1115.98 L -136.5,-876.021 L -133.5,-876.021
 L -133.5,-877.441 L -133.187,-877.147 L -132.679,-876.778 L -132.129,-876.476 L -131.545,-876.245 L -130.937,-876.089
 L -130.314,-876.01 L 130.314,-876.01 z
M -129.695,-878.393 L -130.083,-878.442 L -130.462,-878.539 L -130.825,-878.683 L -131.168,-878.872 L -131.484,-879.101
 L -131.769,-879.369 L -132.018,-879.67 L -132.228,-880 L -132.394,-880.354 L -132.515,-880.726 L -132.588,-881.11
 L -132.613,-881.5 L -132.613,-1110.5 L -132.588,-1110.89 L -132.515,-1111.27 L -132.394,-1111.65 L -132.228,-1112
 L -132.018,-1112.33 L -131.769,-1112.63 L -131.484,-1112.9 L -131.168,-1113.13 L -130.825,-1113.32 L -130.462,-1113.46
 L -130.083,-1113.56 L -129.695,-1113.61 L 129.695,-1113.61 L 130.083,-1113.56 L 130.462,-1113.46 L 130.825,-1113.32
 L 131.168,-1113.13 L 131.484,-1112.9 L 131.769,-1112.63 L 132.018,-1112.33 L 132.228,-1112 L 132.394,-1111.65
 L 132.515,-1111.27 L 132.588,-1110.89 L 132.613,-1110.5 L 132.613,-881.5 L 132.588,-881.11 L 132.515,-880.726
 L 132.394,-880.354 L 132.228,-880 L 132.018,-879.67 L 131.769,-879.369 L 131.484,-879.101 L 131.168,-878.872
 L 130.825,-878.683 L 130.462,-878.539 L 130.083,-878.442 L 129.695,-878.393 z
M 130.937,-627.089 L 131.545,-627.245 L 132.129,-627.476 L 132.679,-627.778 L 133.187,-628.147 L 133.645,-628.577
 L 134.045,-629.061 L 134.382,-629.591 L 134.649,-630.159 L 134.843,-630.757 L 134.961,-631.373 L 135,-632
 L 135,-862 L 134.961,-862.627 L 134.843,-863.243 L 134.649,-863.841 L 134.382,-864.409 L 134.045,-864.939
 L 133.645,-865.423 L 133.187,-865.853 L 132.679,-866.222 L 132.129,-866.524 L 131.545,-866.755 L 130.937,-866.911
 L 130.314,-866.99 L -130.314,-866.99 L -130.937,-866.911 L -131.545,-866.755 L -132.129,-866.524 L -132.679,-866.222
 L -133.187,-865.853 L -133.5,-865.559 L -133.5,-865.653 L -136.5,-865.653 L -136.5,-628.347 L -133.5,-628.347
 L -133.5,-628.441 L -133.187,-628.147 L -132.679,-627.778 L -132.129,-627.476 L -131.545,-627.245 L -130.937,-627.089
 L -130.314,-627.01 L 130.314,-627.01 z
M 127.366,-857.369 L 127.1,-857.403 L 126.84,-857.469 L 126.591,-857.568 L 126.356,-857.697 L 126.139,-857.855
 L 125.943,-858.038 L 125.773,-858.245 L 125.629,-858.471 L 125.515,-858.714 L 125.432,-858.969 L 125.382,-859.232
 L 125.365,-859.5 L 125.382,-859.768 L 125.432,-860.031 L 125.515,-860.286 L 125.629,-860.529 L 125.773,-860.755
 L 125.943,-860.962 L 126.139,-861.145 L 126.356,-861.303 L 126.591,-861.432 L 126.84,-861.531 L 127.1,-861.597
 L 127.366,-861.631 L 127.634,-861.631 L 127.9,-861.597 L 128.16,-861.531 L 128.409,-861.432 L 128.644,-861.303
 L 128.861,-861.145 L 129.057,-860.962 L 129.227,-860.755 L 129.371,-860.529 L 129.485,-860.286 L 129.568,-860.031
 L 129.618,-859.768 L 129.635,-859.5 L 129.618,-859.232 L 129.568,-858.969 L 129.485,-858.714 L 129.371,-858.471
 L 129.227,-858.245 L 129.057,-858.038 L 128.861,-857.855 L 128.644,-857.697 L 128.409,-857.568 L 128.16,-857.469
 L 127.9,-857.403 L 127.634,-857.369 z
M -127.634,-857.369 L -127.9,-857.403 L -128.16,-857.469 L -128.409,-857.568 L -128.644,-857.697 L -128.861,-857.855
 L -129.057,-858.038 L -129.227,-858.245 L -129.371,-858.471 L -129.485,-858.714 L -129.568,-858.969 L -129.618,-859.232
 L -129.635,-859.5 L -129.618,-859.768 L -129.568,-860.031 L -129.485,-860.286 L -129.371,-860.529 L -129.227,-860.755
 L -129.057,-860.962 L -128.861,-861.145 L -128.644,-861.303 L -128.409,-861.432 L -128.16,-861.531 L -127.9,-861.597
 L -127.634,-861.631 L -127.366,-861.631 L -127.1,-861.597 L -126.84,-861.531 L -126.591,-861.432 L -126.356,-861.303
 L -126.139,-861.145 L -125.943,-860.962 L -125.773,-860.755 L -125.629,-860.529 L -125.515,-860.286 L -125.432,-860.031
 L -125.382,-859.768 L -125.365,-859.5 L -125.382,-859.232 L -125.432,-858.969 L -125.515,-858.714 L -125.629,-858.471
 L -125.773,-858.245 L -125.943,-858.038 L -126.139,-857.855 L -126.356,-857.697 L -126.591,-857.568 L -126.84,-857.469
 L -127.1,-857.403 L -127.366,-857.369 z
M 127.366,-632.369 L 127.1,-632.403 L 126.84,-632.469 L 126.591,-632.568 L 126.356,-632.697 L 126.139,-632.855
 L 125.943,-633.038 L 125.773,-633.245 L 125.629,-633.471 L 125.515,-633.714 L 125.432,-633.969 L 125.382,-634.232
 L 125.365,-634.5 L 125.382,-634.768 L 125.432,-635.031 L 125.515,-635.286 L 125.629,-635.529 L 125.773,-635.755
 L 125.943,-635.962 L 126.139,-636.145 L 126.356,-636.303 L 126.591,-636.432 L 126.84,-636.531 L 127.1,-636.597
 L 127.366,-636.631 L 127.634,-636.631 L 127.9,-636.597 L 128.16,-636.531 L 128.409,-636.432 L 128.644,-636.303
 L 128.861,-636.145 L 129.057,-635.962 L 129.227,-635.755 L 129.371,-635.529 L 129.485,-635.286 L 129.568,-635.031
 L 129.618,-634.768 L 129.635,-634.5 L 129.618,-634.232 L 129.568,-633.969 L 129.485,-633.714 L 129.371,-633.471
 L 129.227,-633.245 L 129.057,-633.038 L 128.861,-632.855 L 128.644,-632.697 L 128.409,-632.568 L 128.16,-632.469
 L 127.9,-632.403 L 127.634,-632.369 z
M -127.634,-632.369 L -127.9,-632.403 L -128.16,-632.469 L -128.409,-632.568 L -128.644,-632.697 L -128.861,-632.855
 L -129.057,-633.038 L -129.227,-633.245 L -129.371,-633.471 L -129.485,-633.714 L -129.568,-633.969 L -129.618,-634.232
 L -129.635,-634.5 L -129.618,-634.768 L -129.568,-635.031 L -129.485,-635.286 L -129.371,-635.529 L -129.227,-635.755
 L -129.057,-635.962 L -128.861,-636.145 L -128.644,-636.303 L -128.409,-636.432 L -128.16,-636.531 L -127.9,-636.597
 L -127.634,-636.631 L -127.366,-636.631 L -127.1,-636.597 L -126.84,-636.531 L -126.591,-636.432 L -126.356,-636.303
 L -126.139,-636.145 L -125.943,-635.962 L -125.773,-635.755 L -125.629,-635.529 L -125.515,-635.286 L -125.432,-635.031
 L -125.382,-634.768 L -125.365,-634.5 L -125.382,-634.232 L -125.432,-633.969 L -125.515,-633.714 L -125.629,-633.471
 L -125.773,-633.245 L -125.943,-633.038 L -126.139,-632.855 L -126.356,-632.697 L -126.591,-632.568 L -126.84,-632.469
 L -127.1,-632.403 L -127.366,-632.369 z
" stroke="black" fill="lightgray" stroke-width="0.5"/>
</svg>
