  0
SECTION
  2
BLOCKS
  0
ENDSEC
  0
SECTION
  2
ENTITIES
  0
LINE
  8
0
 10
138.437
 20
1621.59
 11
139.045
 21
1621.74
  0
LINE
  8
0
 10
139.045
 20
1621.74
 11
139.629
 21
1621.98
  0
LINE
  8
0
 10
139.629
 20
1621.98
 11
140.179
 21
1622.28
  0
LINE
  8
0
 10
140.179
 20
1622.28
 11
140.687
 21
1622.65
  0
LINE
  8
0
 10
140.687
 20
1622.65
 11
141.145
 21
1623.08
  0
LINE
  8
0
 10
141.145
 20
1623.08
 11
141.545
 21
1623.56
  0
LINE
  8
0
 10
141.545
 20
1623.56
 11
141.882
 21
1624.09
  0
LINE
  8
0
 10
141.882
 20
1624.09
 11
142.149
 21
1624.66
  0
LINE
  8
0
 10
142.149
 20
1624.66
 11
142.343
 21
1625.26
  0
LINE
  8
0
 10
142.343
 20
1625.26
 11
142.461
 21
1625.87
  0
LINE
  8
0
 10
142.461
 20
1625.87
 11
142.5
 21
1626.5
  0
LINE
  8
0
 10
142.5
 20
1626.5
 11
142.5
 21
1901.5
  0
LINE
  8
0
 10
142.5
 20
1901.5
 11
142.461
 21
1902.13
  0
LINE
  8
0
 10
142.461
 20
1902.13
 11
142.343
 21
1902.74
  0
LINE
  8
0
 10
142.343
 20
1902.74
 11
142.149
 21
1903.34
  0
LINE
  8
0
 10
142.149
 20
1903.34
 11
141.882
 21
1903.91
  0
LINE
  8
0
 10
141.882
 20
1903.91
 11
141.545
 21
1904.44
  0
LINE
  8
0
 10
141.545
 20
1904.44
 11
141.145
 21
1904.92
  0
LINE
  8
0
 10
141.145
 20
1904.92
 11
140.687
 21
1905.35
  0
LINE
  8
0
 10
140.687
 20
1905.35
 11
140.179
 21
1905.72
  0
LINE
  8
0
 10
140.179
 20
1905.72
 11
139.629
 21
1906.02
  0
LINE
  8
0
 10
139.629
 20
1906.02
 11
139.045
 21
1906.26
  0
LINE
  8
0
 10
139.045
 20
1906.26
 11
138.437
 21
1906.41
  0
LINE
  8
0
 10
138.437
 20
1906.41
 11
137.814
 21
1906.49
  0
LINE
  8
0
 10
137.814
 20
1906.49
 11
-137.814
 21
1906.49
  0
LINE
  8
0
 10
-137.814
 20
1906.49
 11
-138.437
 21
1906.41
  0
LINE
  8
0
 10
-138.437
 20
1906.41
 11
-139.045
 21
1906.26
  0
LINE
  8
0
 10
-139.045
 20
1906.26
 11
-139.629
 21
1906.02
  0
LINE
  8
0
 10
-139.629
 20
1906.02
 11
-140.179
 21
1905.72
  0
LINE
  8
0
 10
-140.179
 20
1905.72
 11
-140.687
 21
1905.35
  0
LINE
  8
0
 10
-140.687
 20
1905.35
 11
-141.145
 21
1904.92
  0
LINE
  8
0
 10
-141.145
 20
1904.92
 11
-141.545
 21
1904.44
  0
LINE
  8
0
 10
-141.545
 20
1904.44
 11
-141.882
 21
1903.91
  0
LINE
  8
0
 10
-141.882
 20
1903.91
 11
-142.149
 21
1903.34
  0
LINE
  8
0
 10
-142.149
 20
1903.34
 11
-142.343
 21
1902.74
  0
LINE
  8
0
 10
-142.343
 20
1902.74
 11
-142.461
 21
1902.13
  0
LINE
  8
0
 10
-142.461
 20
1902.13
 11
-142.5
 21
1901.5
  0
LINE
  8
0
 10
-142.5
 20
1901.5
 11
-142.5
 21
1626.5
  0
LINE
  8
0
 10
-142.5
 20
1626.5
 11
-142.461
 21
1625.87
  0
LINE
  8
0
 10
-142.461
 20
1625.87
 11
-142.343
 21
1625.26
  0
LINE
  8
0
 10
-142.343
 20
1625.26
 11
-142.149
 21
1624.66
  0
LINE
  8
0
 10
-142.149
 20
1624.66
 11
-141.882
 21
1624.09
  0
LINE
  8
0
 10
-141.882
 20
1624.09
 11
-141.545
 21
1623.56
  0
LINE
  8
0
 10
-141.545
 20
1623.56
 11
-141.145
 21
1623.08
  0
LINE
  8
0
 10
-141.145
 20
1623.08
 11
-140.687
 21
1622.65
  0
LINE
  8
0
 10
-140.687
 20
1622.65
 11
-140.179
 21
1622.28
  0
LINE
  8
0
 10
-140.179
 20
1622.28
 11
-139.629
 21
1621.98
  0
LINE
  8
0
 10
-139.629
 20
1621.98
 11
-139.045
 21
1621.74
  0
LINE
  8
0
 10
-139.045
 20
1621.74
 11
-138.437
 21
1621.59
  0
LINE
  8
0
 10
-138.437
 20
1621.59
 11
-137.814
 21
1621.51
  0
LINE
  8
0
 10
-137.814
 20
1621.51
 11
137.814
 21
1621.51
  0
LINE
  8
0
 10
137.814
 20
1621.51
 11
138.437
 21
1621.59
  0
LINE
  8
0
 10
-137.548
 20
1622.01
 11
-138.14
 21
1622.08
  0
LINE
  8
0
 10
-138.14
 20
1622.08
 11
-138.718
 21
1622.23
  0
LINE
  8
0
 10
-138.718
 20
1622.23
 11
-139.272
 21
1622.45
  0
LINE
  8
0
 10
-139.272
 20
1622.45
 11
-139.795
 21
1622.74
  0
LINE
  8
0
 10
-139.795
 20
1622.74
 11
-140.278
 21
1623.09
  0
LINE
  8
0
 10
-140.278
 20
1623.09
 11
-140.713
 21
1623.5
  0
LINE
  8
0
 10
-140.713
 20
1623.5
 11
-141.093
 21
1623.96
  0
LINE
  8
0
 10
-141.093
 20
1623.96
 11
-141.412
 21
1624.46
  0
LINE
  8
0
 10
-141.412
 20
1624.46
 11
-141.666
 21
1625
  0
LINE
  8
0
 10
-141.666
 20
1625
 11
-141.851
 21
1625.57
  0
LINE
  8
0
 10
-141.851
 20
1625.57
 11
-141.963
 21
1626.15
  0
LINE
  8
0
 10
-141.963
 20
1626.15
 11
-142
 21
1626.75
  0
LINE
  8
0
 10
-142
 20
1626.75
 11
-142
 21
1901.25
  0
LINE
  8
0
 10
-142
 20
1901.25
 11
-141.963
 21
1901.85
  0
LINE
  8
0
 10
-141.963
 20
1901.85
 11
-141.851
 21
1902.43
  0
LINE
  8
0
 10
-141.851
 20
1902.43
 11
-141.666
 21
1903
  0
LINE
  8
0
 10
-141.666
 20
1903
 11
-141.412
 21
1903.54
  0
LINE
  8
0
 10
-141.412
 20
1903.54
 11
-141.093
 21
1904.04
  0
LINE
  8
0
 10
-141.093
 20
1904.04
 11
-140.713
 21
1904.5
  0
LINE
  8
0
 10
-140.713
 20
1904.5
 11
-140.278
 21
1904.91
  0
LINE
  8
0
 10
-140.278
 20
1904.91
 11
-139.795
 21
1905.26
  0
LINE
  8
0
 10
-139.795
 20
1905.26
 11
-139.272
 21
1905.55
  0
LINE
  8
0
 10
-139.272
 20
1905.55
 11
-138.718
 21
1905.77
  0
LINE
  8
0
 10
-138.718
 20
1905.77
 11
-138.14
 21
1905.92
  0
LINE
  8
0
 10
-138.14
 20
1905.92
 11
-137.548
 21
1905.99
  0
LINE
  8
0
 10
-137.548
 20
1905.99
 11
137.548
 21
1905.99
  0
LINE
  8
0
 10
137.548
 20
1905.99
 11
138.14
 21
1905.92
  0
LINE
  8
0
 10
138.14
 20
1905.92
 11
138.718
 21
1905.77
  0
LINE
  8
0
 10
138.718
 20
1905.77
 11
139.272
 21
1905.55
  0
LINE
  8
0
 10
139.272
 20
1905.55
 11
139.795
 21
1905.26
  0
LINE
  8
0
 10
139.795
 20
1905.26
 11
140.278
 21
1904.91
  0
LINE
  8
0
 10
140.278
 20
1904.91
 11
140.713
 21
1904.5
  0
LINE
  8
0
 10
140.713
 20
1904.5
 11
141.093
 21
1904.04
  0
LINE
  8
0
 10
141.093
 20
1904.04
 11
141.412
 21
1903.54
  0
LINE
  8
0
 10
141.412
 20
1903.54
 11
141.666
 21
1903
  0
LINE
  8
0
 10
141.666
 20
1903
 11
141.851
 21
1902.43
  0
LINE
  8
0
 10
141.851
 20
1902.43
 11
141.963
 21
1901.85
  0
LINE
  8
0
 10
141.963
 20
1901.85
 11
142
 21
1901.25
  0
LINE
  8
0
 10
142
 20
1901.25
 11
142
 21
1626.75
  0
LINE
  8
0
 10
142
 20
1626.75
 11
141.963
 21
1626.15
  0
LINE
  8
0
 10
141.963
 20
1626.15
 11
141.851
 21
1625.57
  0
LINE
  8
0
 10
141.851
 20
1625.57
 11
141.666
 21
1625
  0
LINE
  8
0
 10
141.666
 20
1625
 11
141.412
 21
1624.46
  0
LINE
  8
0
 10
141.412
 20
1624.46
 11
141.093
 21
1623.96
  0
LINE
  8
0
 10
141.093
 20
1623.96
 11
140.713
 21
1623.5
  0
LINE
  8
0
 10
140.713
 20
1623.5
 11
140.278
 21
1623.09
  0
LINE
  8
0
 10
140.278
 20
1623.09
 11
139.795
 21
1622.74
  0
LINE
  8
0
 10
139.795
 20
1622.74
 11
139.272
 21
1622.45
  0
LINE
  8
0
 10
139.272
 20
1622.45
 11
138.718
 21
1622.23
  0
LINE
  8
0
 10
138.718
 20
1622.23
 11
138.14
 21
1622.08
  0
LINE
  8
0
 10
138.14
 20
1622.08
 11
137.548
 21
1622.01
  0
LINE
  8
0
 10
137.548
 20
1622.01
 11
-137.548
 21
1622.01
  0
LINE
  8
0
 10
138.437
 20
1327.59
 11
139.045
 21
1327.74
  0
LINE
  8
0
 10
139.045
 20
1327.74
 11
139.629
 21
1327.98
  0
LINE
  8
0
 10
139.629
 20
1327.98
 11
140.179
 21
1328.28
  0
LINE
  8
0
 10
140.179
 20
1328.28
 11
140.687
 21
1328.65
  0
LINE
  8
0
 10
140.687
 20
1328.65
 11
141.145
 21
1329.08
  0
LINE
  8
0
 10
141.145
 20
1329.08
 11
141.545
 21
1329.56
  0
LINE
  8
0
 10
141.545
 20
1329.56
 11
141.882
 21
1330.09
  0
LINE
  8
0
 10
141.882
 20
1330.09
 11
142.149
 21
1330.66
  0
LINE
  8
0
 10
142.149
 20
1330.66
 11
142.343
 21
1331.26
  0
LINE
  8
0
 10
142.343
 20
1331.26
 11
142.461
 21
1331.87
  0
LINE
  8
0
 10
142.461
 20
1331.87
 11
142.5
 21
1332.5
  0
LINE
  8
0
 10
142.5
 20
1332.5
 11
142.5
 21
1607.5
  0
LINE
  8
0
 10
142.5
 20
1607.5
 11
142.461
 21
1608.13
  0
LINE
  8
0
 10
142.461
 20
1608.13
 11
142.343
 21
1608.74
  0
LINE
  8
0
 10
142.343
 20
1608.74
 11
142.149
 21
1609.34
  0
LINE
  8
0
 10
142.149
 20
1609.34
 11
141.882
 21
1609.91
  0
LINE
  8
0
 10
141.882
 20
1609.91
 11
141.545
 21
1610.44
  0
LINE
  8
0
 10
141.545
 20
1610.44
 11
141.145
 21
1610.92
  0
LINE
  8
0
 10
141.145
 20
1610.92
 11
140.687
 21
1611.35
  0
LINE
  8
0
 10
140.687
 20
1611.35
 11
140.179
 21
1611.72
  0
LINE
  8
0
 10
140.179
 20
1611.72
 11
139.629
 21
1612.02
  0
LINE
  8
0
 10
139.629
 20
1612.02
 11
139.045
 21
1612.26
  0
LINE
  8
0
 10
139.045
 20
1612.26
 11
138.437
 21
1612.41
  0
LINE
  8
0
 10
138.437
 20
1612.41
 11
137.814
 21
1612.49
  0
LINE
  8
0
 10
137.814
 20
1612.49
 11
-137.814
 21
1612.49
  0
LINE
  8
0
 10
-137.814
 20
1612.49
 11
-138.437
 21
1612.41
  0
LINE
  8
0
 10
-138.437
 20
1612.41
 11
-139.045
 21
1612.26
  0
LINE
  8
0
 10
-139.045
 20
1612.26
 11
-139.629
 21
1612.02
  0
LINE
  8
0
 10
-139.629
 20
1612.02
 11
-140.179
 21
1611.72
  0
LINE
  8
0
 10
-140.179
 20
1611.72
 11
-140.687
 21
1611.35
  0
LINE
  8
0
 10
-140.687
 20
1611.35
 11
-141.145
 21
1610.92
  0
LINE
  8
0
 10
-141.145
 20
1610.92
 11
-141.545
 21
1610.44
  0
LINE
  8
0
 10
-141.545
 20
1610.44
 11
-141.882
 21
1609.91
  0
LINE
  8
0
 10
-141.882
 20
1609.91
 11
-142.149
 21
1609.34
  0
LINE
  8
0
 10
-142.149
 20
1609.34
 11
-142.343
 21
1608.74
  0
LINE
  8
0
 10
-142.343
 20
1608.74
 11
-142.461
 21
1608.13
  0
LINE
  8
0
 10
-142.461
 20
1608.13
 11
-142.5
 21
1607.5
  0
LINE
  8
0
 10
-142.5
 20
1607.5
 11
-142.5
 21
1332.5
  0
LINE
  8
0
 10
-142.5
 20
1332.5
 11
-142.461
 21
1331.87
  0
LINE
  8
0
 10
-142.461
 20
1331.87
 11
-142.343
 21
1331.26
  0
LINE
  8
0
 10
-142.343
 20
1331.26
 11
-142.149
 21
1330.66
  0
LINE
  8
0
 10
-142.149
 20
1330.66
 11
-141.882
 21
1330.09
  0
LINE
  8
0
 10
-141.882
 20
1330.09
 11
-141.545
 21
1329.56
  0
LINE
  8
0
 10
-141.545
 20
1329.56
 11
-141.145
 21
1329.08
  0
LINE
  8
0
 10
-141.145
 20
1329.08
 11
-140.687
 21
1328.65
  0
LINE
  8
0
 10
-140.687
 20
1328.65
 11
-140.179
 21
1328.28
  0
LINE
  8
0
 10
-140.179
 20
1328.28
 11
-139.629
 21
1327.98
  0
LINE
  8
0
 10
-139.629
 20
1327.98
 11
-139.045
 21
1327.74
  0
LINE
  8
0
 10
-139.045
 20
1327.74
 11
-138.437
 21
1327.59
  0
LINE
  8
0
 10
-138.437
 20
1327.59
 11
-137.814
 21
1327.51
  0
LINE
  8
0
 10
-137.814
 20
1327.51
 11
137.814
 21
1327.51
  0
LINE
  8
0
 10
137.814
 20
1327.51
 11
138.437
 21
1327.59
  0
LINE
  8
0
 10
-137.548
 20
1328.01
 11
-138.14
 21
1328.08
  0
LINE
  8
0
 10
-138.14
 20
1328.08
 11
-138.718
 21
1328.23
  0
LINE
  8
0
 10
-138.718
 20
1328.23
 11
-139.272
 21
1328.45
  0
LINE
  8
0
 10
-139.272
 20
1328.45
 11
-139.795
 21
1328.74
  0
LINE
  8
0
 10
-139.795
 20
1328.74
 11
-140.278
 21
1329.09
  0
LINE
  8
0
 10
-140.278
 20
1329.09
 11
-140.713
 21
1329.5
  0
LINE
  8
0
 10
-140.713
 20
1329.5
 11
-141.093
 21
1329.96
  0
LINE
  8
0
 10
-141.093
 20
1329.96
 11
-141.412
 21
1330.46
  0
LINE
  8
0
 10
-141.412
 20
1330.46
 11
-141.666
 21
1331
  0
LINE
  8
0
 10
-141.666
 20
1331
 11
-141.851
 21
1331.57
  0
LINE
  8
0
 10
-141.851
 20
1331.57
 11
-141.963
 21
1332.15
  0
LINE
  8
0
 10
-141.963
 20
1332.15
 11
-142
 21
1332.75
  0
LINE
  8
0
 10
-142
 20
1332.75
 11
-142
 21
1607.25
  0
LINE
  8
0
 10
-142
 20
1607.25
 11
-141.963
 21
1607.85
  0
LINE
  8
0
 10
-141.963
 20
1607.85
 11
-141.851
 21
1608.43
  0
LINE
  8
0
 10
-141.851
 20
1608.43
 11
-141.666
 21
1609
  0
LINE
  8
0
 10
-141.666
 20
1609
 11
-141.412
 21
1609.54
  0
LINE
  8
0
 10
-141.412
 20
1609.54
 11
-141.093
 21
1610.04
  0
LINE
  8
0
 10
-141.093
 20
1610.04
 11
-140.713
 21
1610.5
  0
LINE
  8
0
 10
-140.713
 20
1610.5
 11
-140.278
 21
1610.91
  0
LINE
  8
0
 10
-140.278
 20
1610.91
 11
-139.795
 21
1611.26
  0
LINE
  8
0
 10
-139.795
 20
1611.26
 11
-139.272
 21
1611.55
  0
LINE
  8
0
 10
-139.272
 20
1611.55
 11
-138.718
 21
1611.77
  0
LINE
  8
0
 10
-138.718
 20
1611.77
 11
-138.14
 21
1611.92
  0
LINE
  8
0
 10
-138.14
 20
1611.92
 11
-137.548
 21
1611.99
  0
LINE
  8
0
 10
-137.548
 20
1611.99
 11
137.548
 21
1611.99
  0
LINE
  8
0
 10
137.548
 20
1611.99
 11
138.14
 21
1611.92
  0
LINE
  8
0
 10
138.14
 20
1611.92
 11
138.718
 21
1611.77
  0
LINE
  8
0
 10
138.718
 20
1611.77
 11
139.272
 21
1611.55
  0
LINE
  8
0
 10
139.272
 20
1611.55
 11
139.795
 21
1611.26
  0
LINE
  8
0
 10
139.795
 20
1611.26
 11
140.278
 21
1610.91
  0
LINE
  8
0
 10
140.278
 20
1610.91
 11
140.713
 21
1610.5
  0
LINE
  8
0
 10
140.713
 20
1610.5
 11
141.093
 21
1610.04
  0
LINE
  8
0
 10
141.093
 20
1610.04
 11
141.412
 21
1609.54
  0
LINE
  8
0
 10
141.412
 20
1609.54
 11
141.666
 21
1609
  0
LINE
  8
0
 10
141.666
 20
1609
 11
141.851
 21
1608.43
  0
LINE
  8
0
 10
141.851
 20
1608.43
 11
141.963
 21
1607.85
  0
LINE
  8
0
 10
141.963
 20
1607.85
 11
142
 21
1607.25
  0
LINE
  8
0
 10
142
 20
1607.25
 11
142
 21
1332.75
  0
LINE
  8
0
 10
142
 20
1332.75
 11
141.963
 21
1332.15
  0
LINE
  8
0
 10
141.963
 20
1332.15
 11
141.851
 21
1331.57
  0
LINE
  8
0
 10
141.851
 20
1331.57
 11
141.666
 21
1331
  0
LINE
  8
0
 10
141.666
 20
1331
 11
141.412
 21
1330.46
  0
LINE
  8
0
 10
141.412
 20
1330.46
 11
141.093
 21
1329.96
  0
LINE
  8
0
 10
141.093
 20
1329.96
 11
140.713
 21
1329.5
  0
LINE
  8
0
 10
140.713
 20
1329.5
 11
140.278
 21
1329.09
  0
LINE
  8
0
 10
140.278
 20
1329.09
 11
139.795
 21
1328.74
  0
LINE
  8
0
 10
139.795
 20
1328.74
 11
139.272
 21
1328.45
  0
LINE
  8
0
 10
139.272
 20
1328.45
 11
138.718
 21
1328.23
  0
LINE
  8
0
 10
138.718
 20
1328.23
 11
138.14
 21
1328.08
  0
LINE
  8
0
 10
138.14
 20
1328.08
 11
137.548
 21
1328.01
  0
LINE
  8
0
 10
137.548
 20
1328.01
 11
-137.548
 21
1328.01
  0
LINE
  8
0
 10
138.437
 20
1033.59
 11
139.045
 21
1033.74
  0
LINE
  8
0
 10
139.045
 20
1033.74
 11
139.629
 21
1033.98
  0
LINE
  8
0
 10
139.629
 20
1033.98
 11
140.179
 21
1034.28
  0
LINE
  8
0
 10
140.179
 20
1034.28
 11
140.687
 21
1034.65
  0
LINE
  8
0
 10
140.687
 20
1034.65
 11
141.145
 21
1035.08
  0
LINE
  8
0
 10
141.145
 20
1035.08
 11
141.545
 21
1035.56
  0
LINE
  8
0
 10
141.545
 20
1035.56
 11
141.882
 21
1036.09
  0
LINE
  8
0
 10
141.882
 20
1036.09
 11
142.149
 21
1036.66
  0
LINE
  8
0
 10
142.149
 20
1036.66
 11
142.343
 21
1037.26
  0
LINE
  8
0
 10
142.343
 20
1037.26
 11
142.461
 21
1037.87
  0
LINE
  8
0
 10
142.461
 20
1037.87
 11
142.5
 21
1038.5
  0
LINE
  8
0
 10
142.5
 20
1038.5
 11
142.5
 21
1313.5
  0
LINE
  8
0
 10
142.5
 20
1313.5
 11
142.461
 21
1314.13
  0
LINE
  8
0
 10
142.461
 20
1314.13
 11
142.343
 21
1314.74
  0
LINE
  8
0
 10
142.343
 20
1314.74
 11
142.149
 21
1315.34
  0
LINE
  8
0
 10
142.149
 20
1315.34
 11
141.882
 21
1315.91
  0
LINE
  8
0
 10
141.882
 20
1315.91
 11
141.545
 21
1316.44
  0
LINE
  8
0
 10
141.545
 20
1316.44
 11
141.145
 21
1316.92
  0
LINE
  8
0
 10
141.145
 20
1316.92
 11
140.687
 21
1317.35
  0
LINE
  8
0
 10
140.687
 20
1317.35
 11
140.179
 21
1317.72
  0
LINE
  8
0
 10
140.179
 20
1317.72
 11
139.629
 21
1318.02
  0
LINE
  8
0
 10
139.629
 20
1318.02
 11
139.045
 21
1318.26
  0
LINE
  8
0
 10
139.045
 20
1318.26
 11
138.437
 21
1318.41
  0
LINE
  8
0
 10
138.437
 20
1318.41
 11
137.814
 21
1318.49
  0
LINE
  8
0
 10
137.814
 20
1318.49
 11
-137.814
 21
1318.49
  0
LINE
  8
0
 10
-137.814
 20
1318.49
 11
-138.437
 21
1318.41
  0
LINE
  8
0
 10
-138.437
 20
1318.41
 11
-139.045
 21
1318.26
  0
LINE
  8
0
 10
-139.045
 20
1318.26
 11
-139.629
 21
1318.02
  0
LINE
  8
0
 10
-139.629
 20
1318.02
 11
-140.179
 21
1317.72
  0
LINE
  8
0
 10
-140.179
 20
1317.72
 11
-140.687
 21
1317.35
  0
LINE
  8
0
 10
-140.687
 20
1317.35
 11
-141.145
 21
1316.92
  0
LINE
  8
0
 10
-141.145
 20
1316.92
 11
-141.545
 21
1316.44
  0
LINE
  8
0
 10
-141.545
 20
1316.44
 11
-141.882
 21
1315.91
  0
LINE
  8
0
 10
-141.882
 20
1315.91
 11
-142.149
 21
1315.34
  0
LINE
  8
0
 10
-142.149
 20
1315.34
 11
-142.343
 21
1314.74
  0
LINE
  8
0
 10
-142.343
 20
1314.74
 11
-142.461
 21
1314.13
  0
LINE
  8
0
 10
-142.461
 20
1314.13
 11
-142.5
 21
1313.5
  0
LINE
  8
0
 10
-142.5
 20
1313.5
 11
-142.5
 21
1038.5
  0
LINE
  8
0
 10
-142.5
 20
1038.5
 11
-142.461
 21
1037.87
  0
LINE
  8
0
 10
-142.461
 20
1037.87
 11
-142.343
 21
1037.26
  0
LINE
  8
0
 10
-142.343
 20
1037.26
 11
-142.149
 21
1036.66
  0
LINE
  8
0
 10
-142.149
 20
1036.66
 11
-141.882
 21
1036.09
  0
LINE
  8
0
 10
-141.882
 20
1036.09
 11
-141.545
 21
1035.56
  0
LINE
  8
0
 10
-141.545
 20
1035.56
 11
-141.145
 21
1035.08
  0
LINE
  8
0
 10
-141.145
 20
1035.08
 11
-140.687
 21
1034.65
  0
LINE
  8
0
 10
-140.687
 20
1034.65
 11
-140.179
 21
1034.28
  0
LINE
  8
0
 10
-140.179
 20
1034.28
 11
-139.629
 21
1033.98
  0
LINE
  8
0
 10
-139.629
 20
1033.98
 11
-139.045
 21
1033.74
  0
LINE
  8
0
 10
-139.045
 20
1033.74
 11
-138.437
 21
1033.59
  0
LINE
  8
0
 10
-138.437
 20
1033.59
 11
-137.814
 21
1033.51
  0
LINE
  8
0
 10
-137.814
 20
1033.51
 11
137.814
 21
1033.51
  0
LINE
  8
0
 10
137.814
 20
1033.51
 11
138.437
 21
1033.59
  0
LINE
  8
0
 10
-137.493
 20
1034.89
 11
-137.975
 21
1034.95
  0
LINE
  8
0
 10
-137.975
 20
1034.95
 11
-138.446
 21
1035.07
  0
LINE
  8
0
 10
-138.446
 20
1035.07
 11
-138.898
 21
1035.25
  0
LINE
  8
0
 10
-138.898
 20
1035.25
 11
-139.323
 21
1035.48
  0
LINE
  8
0
 10
-139.323
 20
1035.48
 11
-139.716
 21
1035.77
  0
LINE
  8
0
 10
-139.716
 20
1035.77
 11
-140.071
 21
1036.1
  0
LINE
  8
0
 10
-140.071
 20
1036.1
 11
-140.38
 21
1036.48
  0
LINE
  8
0
 10
-140.38
 20
1036.48
 11
-140.641
 21
1036.89
  0
LINE
  8
0
 10
-140.641
 20
1036.89
 11
-140.848
 21
1037.33
  0
LINE
  8
0
 10
-140.848
 20
1037.33
 11
-140.998
 21
1037.79
  0
LINE
  8
0
 10
-140.998
 20
1037.79
 11
-141.089
 21
1038.27
  0
LINE
  8
0
 10
-141.089
 20
1038.27
 11
-141.119
 21
1038.75
  0
LINE
  8
0
 10
-141.119
 20
1038.75
 11
-141.119
 21
1313.25
  0
LINE
  8
0
 10
-141.119
 20
1313.25
 11
-141.089
 21
1313.73
  0
LINE
  8
0
 10
-141.089
 20
1313.73
 11
-140.998
 21
1314.21
  0
LINE
  8
0
 10
-140.998
 20
1314.21
 11
-140.848
 21
1314.67
  0
LINE
  8
0
 10
-140.848
 20
1314.67
 11
-140.641
 21
1315.11
  0
LINE
  8
0
 10
-140.641
 20
1315.11
 11
-140.38
 21
1315.52
  0
LINE
  8
0
 10
-140.38
 20
1315.52
 11
-140.071
 21
1315.9
  0
LINE
  8
0
 10
-140.071
 20
1315.9
 11
-139.716
 21
1316.23
  0
LINE
  8
0
 10
-139.716
 20
1316.23
 11
-139.323
 21
1316.52
  0
LINE
  8
0
 10
-139.323
 20
1316.52
 11
-138.898
 21
1316.75
  0
LINE
  8
0
 10
-138.898
 20
1316.75
 11
-138.446
 21
1316.93
  0
LINE
  8
0
 10
-138.446
 20
1316.93
 11
-137.975
 21
1317.05
  0
LINE
  8
0
 10
-137.975
 20
1317.05
 11
-137.493
 21
1317.11
  0
LINE
  8
0
 10
-137.493
 20
1317.11
 11
137.493
 21
1317.11
  0
LINE
  8
0
 10
137.493
 20
1317.11
 11
137.975
 21
1317.05
  0
LINE
  8
0
 10
137.975
 20
1317.05
 11
138.446
 21
1316.93
  0
LINE
  8
0
 10
138.446
 20
1316.93
 11
138.898
 21
1316.75
  0
LINE
  8
0
 10
138.898
 20
1316.75
 11
139.323
 21
1316.52
  0
LINE
  8
0
 10
139.323
 20
1316.52
 11
139.716
 21
1316.23
  0
LINE
  8
0
 10
139.716
 20
1316.23
 11
140.071
 21
1315.9
  0
LINE
  8
0
 10
140.071
 20
1315.9
 11
140.38
 21
1315.52
  0
LINE
  8
0
 10
140.38
 20
1315.52
 11
140.641
 21
1315.11
  0
LINE
  8
0
 10
140.641
 20
1315.11
 11
140.848
 21
1314.67
  0
LINE
  8
0
 10
140.848
 20
1314.67
 11
140.998
 21
1314.21
  0
LINE
  8
0
 10
140.998
 20
1314.21
 11
141.089
 21
1313.73
  0
LINE
  8
0
 10
141.089
 20
1313.73
 11
141.119
 21
1313.25
  0
LINE
  8
0
 10
141.119
 20
1313.25
 11
141.119
 21
1038.75
  0
LINE
  8
0
 10
141.119
 20
1038.75
 11
141.089
 21
1038.27
  0
LINE
  8
0
 10
141.089
 20
1038.27
 11
140.998
 21
1037.79
  0
LINE
  8
0
 10
140.998
 20
1037.79
 11
140.848
 21
1037.33
  0
LINE
  8
0
 10
140.848
 20
1037.33
 11
140.641
 21
1036.89
  0
LINE
  8
0
 10
140.641
 20
1036.89
 11
140.38
 21
1036.48
  0
LINE
  8
0
 10
140.38
 20
1036.48
 11
140.071
 21
1036.1
  0
LINE
  8
0
 10
140.071
 20
1036.1
 11
139.716
 21
1035.77
  0
LINE
  8
0
 10
139.716
 20
1035.77
 11
139.323
 21
1035.48
  0
LINE
  8
0
 10
139.323
 20
1035.48
 11
138.898
 21
1035.25
  0
LINE
  8
0
 10
138.898
 20
1035.25
 11
138.446
 21
1035.07
  0
LINE
  8
0
 10
138.446
 20
1035.07
 11
137.975
 21
1034.95
  0
LINE
  8
0
 10
137.975
 20
1034.95
 11
137.493
 21
1034.89
  0
LINE
  8
0
 10
137.493
 20
1034.89
 11
-137.493
 21
1034.89
  0
LINE
  8
0
 10
138.437
 20
739.589
 11
139.045
 21
739.745
  0
LINE
  8
0
 10
139.045
 20
739.745
 11
139.629
 21
739.976
  0
LINE
  8
0
 10
139.629
 20
739.976
 11
140.179
 21
740.278
  0
LINE
  8
0
 10
140.179
 20
740.278
 11
140.687
 21
740.647
  0
LINE
  8
0
 10
140.687
 20
740.647
 11
141.145
 21
741.077
  0
LINE
  8
0
 10
141.145
 20
741.077
 11
141.545
 21
741.561
  0
LINE
  8
0
 10
141.545
 20
741.561
 11
141.882
 21
742.091
  0
LINE
  8
0
 10
141.882
 20
742.091
 11
142.149
 21
742.659
  0
LINE
  8
0
 10
142.149
 20
742.659
 11
142.343
 21
743.257
  0
LINE
  8
0
 10
142.343
 20
743.257
 11
142.461
 21
743.873
  0
LINE
  8
0
 10
142.461
 20
743.873
 11
142.5
 21
744.5
  0
LINE
  8
0
 10
142.5
 20
744.5
 11
142.5
 21
1019.5
  0
LINE
  8
0
 10
142.5
 20
1019.5
 11
142.461
 21
1020.13
  0
LINE
  8
0
 10
142.461
 20
1020.13
 11
142.343
 21
1020.74
  0
LINE
  8
0
 10
142.343
 20
1020.74
 11
142.149
 21
1021.34
  0
LINE
  8
0
 10
142.149
 20
1021.34
 11
141.882
 21
1021.91
  0
LINE
  8
0
 10
141.882
 20
1021.91
 11
141.545
 21
1022.44
  0
LINE
  8
0
 10
141.545
 20
1022.44
 11
141.145
 21
1022.92
  0
LINE
  8
0
 10
141.145
 20
1022.92
 11
140.687
 21
1023.35
  0
LINE
  8
0
 10
140.687
 20
1023.35
 11
140.179
 21
1023.72
  0
LINE
  8
0
 10
140.179
 20
1023.72
 11
139.629
 21
1024.02
  0
LINE
  8
0
 10
139.629
 20
1024.02
 11
139.045
 21
1024.26
  0
LINE
  8
0
 10
139.045
 20
1024.26
 11
138.437
 21
1024.41
  0
LINE
  8
0
 10
138.437
 20
1024.41
 11
137.814
 21
1024.49
  0
LINE
  8
0
 10
137.814
 20
1024.49
 11
-137.814
 21
1024.49
  0
LINE
  8
0
 10
-137.814
 20
1024.49
 11
-138.437
 21
1024.41
  0
LINE
  8
0
 10
-138.437
 20
1024.41
 11
-139.045
 21
1024.26
  0
LINE
  8
0
 10
-139.045
 20
1024.26
 11
-139.629
 21
1024.02
  0
LINE
  8
0
 10
-139.629
 20
1024.02
 11
-140.179
 21
1023.72
  0
LINE
  8
0
 10
-140.179
 20
1023.72
 11
-140.687
 21
1023.35
  0
LINE
  8
0
 10
-140.687
 20
1023.35
 11
-141.145
 21
1022.92
  0
LINE
  8
0
 10
-141.145
 20
1022.92
 11
-141.545
 21
1022.44
  0
LINE
  8
0
 10
-141.545
 20
1022.44
 11
-141.882
 21
1021.91
  0
LINE
  8
0
 10
-141.882
 20
1021.91
 11
-142.149
 21
1021.34
  0
LINE
  8
0
 10
-142.149
 20
1021.34
 11
-142.343
 21
1020.74
  0
LINE
  8
0
 10
-142.343
 20
1020.74
 11
-142.461
 21
1020.13
  0
LINE
  8
0
 10
-142.461
 20
1020.13
 11
-142.5
 21
1019.5
  0
LINE
  8
0
 10
-142.5
 20
1019.5
 11
-142.5
 21
744.5
  0
LINE
  8
0
 10
-142.5
 20
744.5
 11
-142.461
 21
743.873
  0
LINE
  8
0
 10
-142.461
 20
743.873
 11
-142.343
 21
743.257
  0
LINE
  8
0
 10
-142.343
 20
743.257
 11
-142.149
 21
742.659
  0
LINE
  8
0
 10
-142.149
 20
742.659
 11
-141.882
 21
742.091
  0
LINE
  8
0
 10
-141.882
 20
742.091
 11
-141.545
 21
741.561
  0
LINE
  8
0
 10
-141.545
 20
741.561
 11
-141.145
 21
741.077
  0
LINE
  8
0
 10
-141.145
 20
741.077
 11
-140.687
 21
740.647
  0
LINE
  8
0
 10
-140.687
 20
740.647
 11
-140.179
 21
740.278
  0
LINE
  8
0
 10
-140.179
 20
740.278
 11
-139.629
 21
739.976
  0
LINE
  8
0
 10
-139.629
 20
739.976
 11
-139.045
 21
739.745
  0
LINE
  8
0
 10
-139.045
 20
739.745
 11
-138.437
 21
739.589
  0
LINE
  8
0
 10
-138.437
 20
739.589
 11
-137.814
 21
739.51
  0
LINE
  8
0
 10
-137.814
 20
739.51
 11
137.814
 21
739.51
  0
LINE
  8
0
 10
137.814
 20
739.51
 11
138.437
 21
739.589
  0
LINE
  8
0
 10
134.887
 20
1015.2
 11
134.663
 21
1015.23
  0
LINE
  8
0
 10
134.663
 20
1015.23
 11
134.444
 21
1015.29
  0
LINE
  8
0
 10
134.444
 20
1015.29
 11
134.234
 21
1015.37
  0
LINE
  8
0
 10
134.234
 20
1015.37
 11
134.036
 21
1015.48
  0
LINE
  8
0
 10
134.036
 20
1015.48
 11
133.853
 21
1015.61
  0
LINE
  8
0
 10
133.853
 20
1015.61
 11
133.688
 21
1015.77
  0
LINE
  8
0
 10
133.688
 20
1015.77
 11
133.544
 21
1015.94
  0
LINE
  8
0
 10
133.544
 20
1015.94
 11
133.423
 21
1016.13
  0
LINE
  8
0
 10
133.423
 20
1016.13
 11
133.326
 21
1016.34
  0
LINE
  8
0
 10
133.326
 20
1016.34
 11
133.257
 21
1016.55
  0
LINE
  8
0
 10
133.257
 20
1016.55
 11
133.214
 21
1016.77
  0
LINE
  8
0
 10
133.214
 20
1016.77
 11
133.2
 21
1017
  0
LINE
  8
0
 10
133.2
 20
1017
 11
133.214
 21
1017.23
  0
LINE
  8
0
 10
133.214
 20
1017.23
 11
133.257
 21
1017.45
  0
LINE
  8
0
 10
133.257
 20
1017.45
 11
133.326
 21
1017.66
  0
LINE
  8
0
 10
133.326
 20
1017.66
 11
133.423
 21
1017.87
  0
LINE
  8
0
 10
133.423
 20
1017.87
 11
133.544
 21
1018.06
  0
LINE
  8
0
 10
133.544
 20
1018.06
 11
133.688
 21
1018.23
  0
LINE
  8
0
 10
133.688
 20
1018.23
 11
133.853
 21
1018.39
  0
LINE
  8
0
 10
133.853
 20
1018.39
 11
134.036
 21
1018.52
  0
LINE
  8
0
 10
134.036
 20
1018.52
 11
134.234
 21
1018.63
  0
LINE
  8
0
 10
134.234
 20
1018.63
 11
134.444
 21
1018.71
  0
LINE
  8
0
 10
134.444
 20
1018.71
 11
134.663
 21
1018.77
  0
LINE
  8
0
 10
134.663
 20
1018.77
 11
134.887
 21
1018.8
  0
LINE
  8
0
 10
134.887
 20
1018.8
 11
135.113
 21
1018.8
  0
LINE
  8
0
 10
135.113
 20
1018.8
 11
135.337
 21
1018.77
  0
LINE
  8
0
 10
135.337
 20
1018.77
 11
135.556
 21
1018.71
  0
LINE
  8
0
 10
135.556
 20
1018.71
 11
135.766
 21
1018.63
  0
LINE
  8
0
 10
135.766
 20
1018.63
 11
135.964
 21
1018.52
  0
LINE
  8
0
 10
135.964
 20
1018.52
 11
136.147
 21
1018.39
  0
LINE
  8
0
 10
136.147
 20
1018.39
 11
136.312
 21
1018.23
  0
LINE
  8
0
 10
136.312
 20
1018.23
 11
136.456
 21
1018.06
  0
LINE
  8
0
 10
136.456
 20
1018.06
 11
136.577
 21
1017.87
  0
LINE
  8
0
 10
136.577
 20
1017.87
 11
136.674
 21
1017.66
  0
LINE
  8
0
 10
136.674
 20
1017.66
 11
136.743
 21
1017.45
  0
LINE
  8
0
 10
136.743
 20
1017.45
 11
136.786
 21
1017.23
  0
LINE
  8
0
 10
136.786
 20
1017.23
 11
136.8
 21
1017
  0
LINE
  8
0
 10
136.8
 20
1017
 11
136.786
 21
1016.77
  0
LINE
  8
0
 10
136.786
 20
1016.77
 11
136.743
 21
1016.55
  0
LINE
  8
0
 10
136.743
 20
1016.55
 11
136.674
 21
1016.34
  0
LINE
  8
0
 10
136.674
 20
1016.34
 11
136.577
 21
1016.13
  0
LINE
  8
0
 10
136.577
 20
1016.13
 11
136.456
 21
1015.94
  0
LINE
  8
0
 10
136.456
 20
1015.94
 11
136.312
 21
1015.77
  0
LINE
  8
0
 10
136.312
 20
1015.77
 11
136.147
 21
1015.61
  0
LINE
  8
0
 10
136.147
 20
1015.61
 11
135.964
 21
1015.48
  0
LINE
  8
0
 10
135.964
 20
1015.48
 11
135.766
 21
1015.37
  0
LINE
  8
0
 10
135.766
 20
1015.37
 11
135.556
 21
1015.29
  0
LINE
  8
0
 10
135.556
 20
1015.29
 11
135.337
 21
1015.23
  0
LINE
  8
0
 10
135.337
 20
1015.23
 11
135.113
 21
1015.2
  0
LINE
  8
0
 10
135.113
 20
1015.2
 11
134.887
 21
1015.2
  0
LINE
  8
0
 10
-135.113
 20
1015.2
 11
-135.337
 21
1015.23
  0
LINE
  8
0
 10
-135.337
 20
1015.23
 11
-135.556
 21
1015.29
  0
LINE
  8
0
 10
-135.556
 20
1015.29
 11
-135.766
 21
1015.37
  0
LINE
  8
0
 10
-135.766
 20
1015.37
 11
-135.964
 21
1015.48
  0
LINE
  8
0
 10
-135.964
 20
1015.48
 11
-136.147
 21
1015.61
  0
LINE
  8
0
 10
-136.147
 20
1015.61
 11
-136.312
 21
1015.77
  0
LINE
  8
0
 10
-136.312
 20
1015.77
 11
-136.456
 21
1015.94
  0
LINE
  8
0
 10
-136.456
 20
1015.94
 11
-136.577
 21
1016.13
  0
LINE
  8
0
 10
-136.577
 20
1016.13
 11
-136.674
 21
1016.34
  0
LINE
  8
0
 10
-136.674
 20
1016.34
 11
-136.743
 21
1016.55
  0
LINE
  8
0
 10
-136.743
 20
1016.55
 11
-136.786
 21
1016.77
  0
LINE
  8
0
 10
-136.786
 20
1016.77
 11
-136.8
 21
1017
  0
LINE
  8
0
 10
-136.8
 20
1017
 11
-136.786
 21
1017.23
  0
LINE
  8
0
 10
-136.786
 20
1017.23
 11
-136.743
 21
1017.45
  0
LINE
  8
0
 10
-136.743
 20
1017.45
 11
-136.674
 21
1017.66
  0
LINE
  8
0
 10
-136.674
 20
1017.66
 11
-136.577
 21
1017.87
  0
LINE
  8
0
 10
-136.577
 20
1017.87
 11
-136.456
 21
1018.06
  0
LINE
  8
0
 10
-136.456
 20
1018.06
 11
-136.312
 21
1018.23
  0
LINE
  8
0
 10
-136.312
 20
1018.23
 11
-136.147
 21
1018.39
  0
LINE
  8
0
 10
-136.147
 20
1018.39
 11
-135.964
 21
1018.52
  0
LINE
  8
0
 10
-135.964
 20
1018.52
 11
-135.766
 21
1018.63
  0
LINE
  8
0
 10
-135.766
 20
1018.63
 11
-135.556
 21
1018.71
  0
LINE
  8
0
 10
-135.556
 20
1018.71
 11
-135.337
 21
1018.77
  0
LINE
  8
0
 10
-135.337
 20
1018.77
 11
-135.113
 21
1018.8
  0
LINE
  8
0
 10
-135.113
 20
1018.8
 11
-134.887
 21
1018.8
  0
LINE
  8
0
 10
-134.887
 20
1018.8
 11
-134.663
 21
1018.77
  0
LINE
  8
0
 10
-134.663
 20
1018.77
 11
-134.444
 21
1018.71
  0
LINE
  8
0
 10
-134.444
 20
1018.71
 11
-134.234
 21
1018.63
  0
LINE
  8
0
 10
-134.234
 20
1018.63
 11
-134.036
 21
1018.52
  0
LINE
  8
0
 10
-134.036
 20
1018.52
 11
-133.853
 21
1018.39
  0
LINE
  8
0
 10
-133.853
 20
1018.39
 11
-133.688
 21
1018.23
  0
LINE
  8
0
 10
-133.688
 20
1018.23
 11
-133.544
 21
1018.06
  0
LINE
  8
0
 10
-133.544
 20
1018.06
 11
-133.423
 21
1017.87
  0
LINE
  8
0
 10
-133.423
 20
1017.87
 11
-133.326
 21
1017.66
  0
LINE
  8
0
 10
-133.326
 20
1017.66
 11
-133.257
 21
1017.45
  0
LINE
  8
0
 10
-133.257
 20
1017.45
 11
-133.214
 21
1017.23
  0
LINE
  8
0
 10
-133.214
 20
1017.23
 11
-133.2
 21
1017
  0
LINE
  8
0
 10
-133.2
 20
1017
 11
-133.214
 21
1016.77
  0
LINE
  8
0
 10
-133.214
 20
1016.77
 11
-133.257
 21
1016.55
  0
LINE
  8
0
 10
-133.257
 20
1016.55
 11
-133.326
 21
1016.34
  0
LINE
  8
0
 10
-133.326
 20
1016.34
 11
-133.423
 21
1016.13
  0
LINE
  8
0
 10
-133.423
 20
1016.13
 11
-133.544
 21
1015.94
  0
LINE
  8
0
 10
-133.544
 20
1015.94
 11
-133.688
 21
1015.77
  0
LINE
  8
0
 10
-133.688
 20
1015.77
 11
-133.853
 21
1015.61
  0
LINE
  8
0
 10
-133.853
 20
1015.61
 11
-134.036
 21
1015.48
  0
LINE
  8
0
 10
-134.036
 20
1015.48
 11
-134.234
 21
1015.37
  0
LINE
  8
0
 10
-134.234
 20
1015.37
 11
-134.444
 21
1015.29
  0
LINE
  8
0
 10
-134.444
 20
1015.29
 11
-134.663
 21
1015.23
  0
LINE
  8
0
 10
-134.663
 20
1015.23
 11
-134.887
 21
1015.2
  0
LINE
  8
0
 10
-134.887
 20
1015.2
 11
-135.113
 21
1015.2
  0
LINE
  8
0
 10
-135.113
 20
745.204
 11
-135.337
 21
745.232
  0
LINE
  8
0
 10
-135.337
 20
745.232
 11
-135.556
 21
745.288
  0
LINE
  8
0
 10
-135.556
 20
745.288
 11
-135.766
 21
745.371
  0
LINE
  8
0
 10
-135.766
 20
745.371
 11
-135.964
 21
745.48
  0
LINE
  8
0
 10
-135.964
 20
745.48
 11
-136.147
 21
745.613
  0
LINE
  8
0
 10
-136.147
 20
745.613
 11
-136.312
 21
745.768
  0
LINE
  8
0
 10
-136.312
 20
745.768
 11
-136.456
 21
745.942
  0
LINE
  8
0
 10
-136.456
 20
745.942
 11
-136.577
 21
746.133
  0
LINE
  8
0
 10
-136.577
 20
746.133
 11
-136.674
 21
746.337
  0
LINE
  8
0
 10
-136.674
 20
746.337
 11
-136.743
 21
746.552
  0
LINE
  8
0
 10
-136.743
 20
746.552
 11
-136.786
 21
746.774
  0
LINE
  8
0
 10
-136.786
 20
746.774
 11
-136.8
 21
747
  0
LINE
  8
0
 10
-136.8
 20
747
 11
-136.786
 21
747.226
  0
LINE
  8
0
 10
-136.786
 20
747.226
 11
-136.743
 21
747.448
  0
LINE
  8
0
 10
-136.743
 20
747.448
 11
-136.674
 21
747.663
  0
LINE
  8
0
 10
-136.674
 20
747.663
 11
-136.577
 21
747.867
  0
LINE
  8
0
 10
-136.577
 20
747.867
 11
-136.456
 21
748.058
  0
LINE
  8
0
 10
-136.456
 20
748.058
 11
-136.312
 21
748.232
  0
LINE
  8
0
 10
-136.312
 20
748.232
 11
-136.147
 21
748.387
  0
LINE
  8
0
 10
-136.147
 20
748.387
 11
-135.964
 21
748.52
  0
LINE
  8
0
 10
-135.964
 20
748.52
 11
-135.766
 21
748.629
  0
LINE
  8
0
 10
-135.766
 20
748.629
 11
-135.556
 21
748.712
  0
LINE
  8
0
 10
-135.556
 20
748.712
 11
-135.337
 21
748.768
  0
LINE
  8
0
 10
-135.337
 20
748.768
 11
-135.113
 21
748.796
  0
LINE
  8
0
 10
-135.113
 20
748.796
 11
-134.887
 21
748.796
  0
LINE
  8
0
 10
-134.887
 20
748.796
 11
-134.663
 21
748.768
  0
LINE
  8
0
 10
-134.663
 20
748.768
 11
-134.444
 21
748.712
  0
LINE
  8
0
 10
-134.444
 20
748.712
 11
-134.234
 21
748.629
  0
LINE
  8
0
 10
-134.234
 20
748.629
 11
-134.036
 21
748.52
  0
LINE
  8
0
 10
-134.036
 20
748.52
 11
-133.853
 21
748.387
  0
LINE
  8
0
 10
-133.853
 20
748.387
 11
-133.688
 21
748.232
  0
LINE
  8
0
 10
-133.688
 20
748.232
 11
-133.544
 21
748.058
  0
LINE
  8
0
 10
-133.544
 20
748.058
 11
-133.423
 21
747.867
  0
LINE
  8
0
 10
-133.423
 20
747.867
 11
-133.326
 21
747.663
  0
LINE
  8
0
 10
-133.326
 20
747.663
 11
-133.257
 21
747.448
  0
LINE
  8
0
 10
-133.257
 20
747.448
 11
-133.214
 21
747.226
  0
LINE
  8
0
 10
-133.214
 20
747.226
 11
-133.2
 21
747
  0
LINE
  8
0
 10
-133.2
 20
747
 11
-133.214
 21
746.774
  0
LINE
  8
0
 10
-133.214
 20
746.774
 11
-133.257
 21
746.552
  0
LINE
  8
0
 10
-133.257
 20
746.552
 11
-133.326
 21
746.337
  0
LINE
  8
0
 10
-133.326
 20
746.337
 11
-133.423
 21
746.133
  0
LINE
  8
0
 10
-133.423
 20
746.133
 11
-133.544
 21
745.942
  0
LINE
  8
0
 10
-133.544
 20
745.942
 11
-133.688
 21
745.768
  0
LINE
  8
0
 10
-133.688
 20
745.768
 11
-133.853
 21
745.613
  0
LINE
  8
0
 10
-133.853
 20
745.613
 11
-134.036
 21
745.48
  0
LINE
  8
0
 10
-134.036
 20
745.48
 11
-134.234
 21
745.371
  0
LINE
  8
0
 10
-134.234
 20
745.371
 11
-134.444
 21
745.288
  0
LINE
  8
0
 10
-134.444
 20
745.288
 11
-134.663
 21
745.232
  0
LINE
  8
0
 10
-134.663
 20
745.232
 11
-134.887
 21
745.204
  0
LINE
  8
0
 10
-134.887
 20
745.204
 11
-135.113
 21
745.204
  0
LINE
  8
0
 10
134.887
 20
745.204
 11
134.663
 21
745.232
  0
LINE
  8
0
 10
134.663
 20
745.232
 11
134.444
 21
745.288
  0
LINE
  8
0
 10
134.444
 20
745.288
 11
134.234
 21
745.371
  0
LINE
  8
0
 10
134.234
 20
745.371
 11
134.036
 21
745.48
  0
LINE
  8
0
 10
134.036
 20
745.48
 11
133.853
 21
745.613
  0
LINE
  8
0
 10
133.853
 20
745.613
 11
133.688
 21
745.768
  0
LINE
  8
0
 10
133.688
 20
745.768
 11
133.544
 21
745.942
  0
LINE
  8
0
 10
133.544
 20
745.942
 11
133.423
 21
746.133
  0
LINE
  8
0
 10
133.423
 20
746.133
 11
133.326
 21
746.337
  0
LINE
  8
0
 10
133.326
 20
746.337
 11
133.257
 21
746.552
  0
LINE
  8
0
 10
133.257
 20
746.552
 11
133.214
 21
746.774
  0
LINE
  8
0
 10
133.214
 20
746.774
 11
133.2
 21
747
  0
LINE
  8
0
 10
133.2
 20
747
 11
133.214
 21
747.226
  0
LINE
  8
0
 10
133.214
 20
747.226
 11
133.257
 21
747.448
  0
LINE
  8
0
 10
133.257
 20
747.448
 11
133.326
 21
747.663
  0
LINE
  8
0
 10
133.326
 20
747.663
 11
133.423
 21
747.867
  0
LINE
  8
0
 10
133.423
 20
747.867
 11
133.544
 21
748.058
  0
LINE
  8
0
 10
133.544
 20
748.058
 11
133.688
 21
748.232
  0
LINE
  8
0
 10
133.688
 20
748.232
 11
133.853
 21
748.387
  0
LINE
  8
0
 10
133.853
 20
748.387
 11
134.036
 21
748.52
  0
LINE
  8
0
 10
134.036
 20
748.52
 11
134.234
 21
748.629
  0
LINE
  8
0
 10
134.234
 20
748.629
 11
134.444
 21
748.712
  0
LINE
  8
0
 10
134.444
 20
748.712
 11
134.663
 21
748.768
  0
LINE
  8
0
 10
134.663
 20
748.768
 11
134.887
 21
748.796
  0
LINE
  8
0
 10
134.887
 20
748.796
 11
135.113
 21
748.796
  0
LINE
  8
0
 10
135.113
 20
748.796
 11
135.337
 21
748.768
  0
LINE
  8
0
 10
135.337
 20
748.768
 11
135.556
 21
748.712
  0
LINE
  8
0
 10
135.556
 20
748.712
 11
135.766
 21
748.629
  0
LINE
  8
0
 10
135.766
 20
748.629
 11
135.964
 21
748.52
  0
LINE
  8
0
 10
135.964
 20
748.52
 11
136.147
 21
748.387
  0
LINE
  8
0
 10
136.147
 20
748.387
 11
136.312
 21
748.232
  0
LINE
  8
0
 10
136.312
 20
748.232
 11
136.456
 21
748.058
  0
LINE
  8
0
 10
136.456
 20
748.058
 11
136.577
 21
747.867
  0
LINE
  8
0
 10
136.577
 20
747.867
 11
136.674
 21
747.663
  0
LINE
  8
0
 10
136.674
 20
747.663
 11
136.743
 21
747.448
  0
LINE
  8
0
 10
136.743
 20
747.448
 11
136.786
 21
747.226
  0
LINE
  8
0
 10
136.786
 20
747.226
 11
136.8
 21
747
  0
LINE
  8
0
 10
136.8
 20
747
 11
136.786
 21
746.774
  0
LINE
  8
0
 10
136.786
 20
746.774
 11
136.743
 21
746.552
  0
LINE
  8
0
 10
136.743
 20
746.552
 11
136.674
 21
746.337
  0
LINE
  8
0
 10
136.674
 20
746.337
 11
136.577
 21
746.133
  0
LINE
  8
0
 10
136.577
 20
746.133
 11
136.456
 21
745.942
  0
LINE
  8
0
 10
136.456
 20
745.942
 11
136.312
 21
745.768
  0
LINE
  8
0
 10
136.312
 20
745.768
 11
136.147
 21
745.613
  0
LINE
  8
0
 10
136.147
 20
745.613
 11
135.964
 21
745.48
  0
LINE
  8
0
 10
135.964
 20
745.48
 11
135.766
 21
745.371
  0
LINE
  8
0
 10
135.766
 20
745.371
 11
135.556
 21
745.288
  0
LINE
  8
0
 10
135.556
 20
745.288
 11
135.337
 21
745.232
  0
LINE
  8
0
 10
135.337
 20
745.232
 11
135.113
 21
745.204
  0
LINE
  8
0
 10
135.113
 20
745.204
 11
134.887
 21
745.204
  0
ENDSEC
  0
SECTION
  2
OBJECTS
  0
DICTIONARY
  0
ENDSEC
  0
EOF
