<?xml version="1.0" standalone="no"?>
<!DOCTYPE svg PUBLIC "-//W3C//DTD SVG 1.1//EN" "http://www.w3.org/Graphics/SVG/1.1/DTD/svg11.dtd">
<svg width="240mm" height="328mm" viewBox="-120 -626 240 328" xmlns="http://www.w3.org/2000/svg" version="1.1">
<title>OpenSCAD Model</title>
<path d="
M 115.937,-550.589 L 116.545,-550.745 L 117.129,-550.976 L 117.679,-551.278 L 118.187,-551.647 L 118.645,-552.077
 L 119.045,-552.561 L 119.382,-553.091 L 119.649,-553.659 L 119.843,-554.257 L 119.961,-554.873 L 120,-555.5
 L 120,-620.5 L 119.961,-621.127 L 119.843,-621.743 L 119.649,-622.341 L 119.382,-622.909 L 119.045,-623.439
 L 118.645,-623.923 L 118.187,-624.353 L 117.679,-624.722 L 117.129,-625.024 L 116.545,-625.255 L 115.937,-625.411
 L 115.314,-625.49 L -115.314,-625.49 L -115.937,-625.411 L -116.545,-625.255 L -117.129,-625.024 L -117.679,-624.722
 L -118.187,-624.353 L -118.645,-623.923 L -119.045,-623.439 L -119.382,-622.909 L -119.649,-622.341 L -119.843,-621.743
 L -119.961,-621.127 L -120,-620.5 L -120,-555.5 L -119.961,-554.873 L -119.843,-554.257 L -119.649,-553.659
 L -119.382,-553.091 L -119.045,-552.561 L -118.645,-552.077 L -118.187,-551.647 L -117.679,-551.278 L -117.129,-550.976
 L -116.545,-550.745 L -115.937,-550.589 L -115.314,-550.51 L 115.314,-550.51 z
M -115.048,-551.009 L -115.64,-551.084 L -116.218,-551.232 L -116.772,-551.452 L -117.295,-551.739 L -117.778,-552.09
 L -118.213,-552.498 L -118.593,-552.958 L -118.912,-553.462 L -119.166,-554.001 L -119.351,-554.569 L -119.463,-555.155
 L -119.5,-555.75 L -119.5,-620.25 L -119.463,-620.845 L -119.351,-621.431 L -119.166,-621.999 L -118.912,-622.538
 L -118.593,-623.042 L -118.213,-623.502 L -117.778,-623.91 L -117.295,-624.261 L -116.772,-624.548 L -116.218,-624.768
 L -115.64,-624.916 L -115.048,-624.991 L 115.048,-624.991 L 115.64,-624.916 L 116.218,-624.768 L 116.772,-624.548
 L 117.295,-624.261 L 117.778,-623.91 L 118.213,-623.502 L 118.593,-623.042 L 118.912,-622.538 L 119.166,-621.999
 L 119.351,-621.431 L 119.463,-620.845 L 119.5,-620.25 L 119.5,-555.75 L 119.463,-555.155 L 119.351,-554.569
 L 119.166,-554.001 L 118.912,-553.462 L 118.593,-552.958 L 118.213,-552.498 L 117.778,-552.09 L 117.295,-551.739
 L 116.772,-551.452 L 116.218,-551.232 L 115.64,-551.084 L 115.048,-551.009 z
M 115.937,-466.589 L 116.545,-466.745 L 117.129,-466.976 L 117.679,-467.278 L 118.187,-467.647 L 118.645,-468.077
 L 119.045,-468.561 L 119.382,-469.091 L 119.649,-469.659 L 119.843,-470.257 L 119.961,-470.873 L 120,-471.5
 L 120,-536.5 L 119.961,-537.127 L 119.843,-537.743 L 119.649,-538.341 L 119.382,-538.909 L 119.045,-539.439
 L 118.645,-539.923 L 118.187,-540.353 L 117.679,-540.722 L 117.129,-541.024 L 116.545,-541.255 L 115.937,-541.411
 L 115.314,-541.49 L -115.314,-541.49 L -115.937,-541.411 L -116.545,-541.255 L -117.129,-541.024 L -117.679,-540.722
 L -118.187,-540.353 L -118.645,-539.923 L -119.045,-539.439 L -119.382,-538.909 L -119.649,-538.341 L -119.843,-537.743
 L -119.961,-537.127 L -120,-536.5 L -120,-471.5 L -119.961,-470.873 L -119.843,-470.257 L -119.649,-469.659
 L -119.382,-469.091 L -119.045,-468.561 L -118.645,-468.077 L -118.187,-467.647 L -117.679,-467.278 L -117.129,-466.976
 L -116.545,-466.745 L -115.937,-466.589 L -115.314,-466.51 L 115.314,-466.51 z
M -115.048,-467.009 L -115.64,-467.084 L -116.218,-467.232 L -116.772,-467.452 L -117.295,-467.739 L -117.778,-468.09
 L -118.213,-468.498 L -118.593,-468.958 L -118.912,-469.462 L -119.166,-470.001 L -119.351,-470.569 L -119.463,-471.155
 L -119.5,-471.75 L -119.5,-536.25 L -119.463,-536.845 L -119.351,-537.431 L -119.166,-537.999 L -118.912,-538.538
 L -118.593,-539.042 L -118.213,-539.502 L -117.778,-539.91 L -117.295,-540.261 L -116.772,-540.548 L -116.218,-540.768
 L -115.64,-540.916 L -115.048,-540.991 L 115.048,-540.991 L 115.64,-540.916 L 116.218,-540.768 L 116.772,-540.548
 L 117.295,-540.261 L 117.778,-539.91 L 118.213,-539.502 L 118.593,-539.042 L 118.912,-538.538 L 119.166,-537.999
 L 119.351,-537.431 L 119.463,-536.845 L 119.5,-536.25 L 119.5,-471.75 L 119.463,-471.155 L 119.351,-470.569
 L 119.166,-470.001 L 118.912,-469.462 L 118.593,-468.958 L 118.213,-468.498 L 117.778,-468.09 L 117.295,-467.739
 L 116.772,-467.452 L 116.218,-467.232 L 115.64,-467.084 L 115.048,-467.009 z
M 115.937,-382.589 L 116.545,-382.745 L 117.129,-382.976 L 117.679,-383.278 L 118.187,-383.647 L 118.645,-384.077
 L 119.045,-384.561 L 119.382,-385.091 L 119.649,-385.659 L 119.843,-386.257 L 119.961,-386.873 L 120,-387.5
 L 120,-452.5 L 119.961,-453.127 L 119.843,-453.743 L 119.649,-454.341 L 119.382,-454.909 L 119.045,-455.439
 L 118.645,-455.923 L 118.187,-456.353 L 117.679,-456.722 L 117.129,-457.024 L 116.545,-457.255 L 115.937,-457.411
 L 115.314,-457.49 L -115.314,-457.49 L -115.937,-457.411 L -116.545,-457.255 L -117.129,-457.024 L -117.679,-456.722
 L -118.187,-456.353 L -118.645,-455.923 L -119.045,-455.439 L -119.382,-454.909 L -119.649,-454.341 L -119.843,-453.743
 L -119.961,-453.127 L -120,-452.5 L -120,-387.5 L -119.961,-386.873 L -119.843,-386.257 L -119.649,-385.659
 L -119.382,-385.091 L -119.045,-384.561 L -118.645,-384.077 L -118.187,-383.647 L -117.679,-383.278 L -117.129,-382.976
 L -116.545,-382.745 L -115.937,-382.589 L -115.314,-382.51 L 115.314,-382.51 z
M -115.037,-383.181 L -115.608,-383.253 L -116.165,-383.396 L -116.699,-383.607 L -117.203,-383.884 L -117.668,-384.222
 L -118.088,-384.616 L -118.454,-385.059 L -118.762,-385.544 L -119.007,-386.065 L -119.185,-386.611 L -119.292,-387.176
 L -119.328,-387.75 L -119.328,-452.25 L -119.292,-452.824 L -119.185,-453.389 L -119.007,-453.935 L -118.762,-454.456
 L -118.454,-454.941 L -118.088,-455.384 L -117.668,-455.778 L -117.203,-456.116 L -116.699,-456.393 L -116.165,-456.604
 L -115.608,-456.747 L -115.037,-456.819 L 115.037,-456.819 L 115.608,-456.747 L 116.165,-456.604 L 116.699,-456.393
 L 117.203,-456.116 L 117.668,-455.778 L 118.088,-455.384 L 118.454,-454.941 L 118.762,-454.456 L 119.007,-453.935
 L 119.185,-453.389 L 119.292,-452.824 L 119.328,-452.25 L 119.328,-387.75 L 119.292,-387.176 L 119.185,-386.611
 L 119.007,-386.065 L 118.762,-385.544 L 118.454,-385.059 L 118.088,-384.616 L 117.668,-384.222 L 117.203,-383.884
 L 116.699,-383.607 L 116.165,-383.396 L 115.608,-383.253 L 115.037,-383.181 z
M 115.937,-298.589 L 116.545,-298.745 L 117.129,-298.976 L 117.679,-299.278 L 118.187,-299.647 L 118.645,-300.077
 L 119.045,-300.561 L 119.382,-301.091 L 119.649,-301.659 L 119.843,-302.257 L 119.961,-302.873 L 120,-303.5
 L 120,-368.5 L 119.961,-369.127 L 119.843,-369.743 L 119.649,-370.341 L 119.382,-370.909 L 119.045,-371.439
 L 118.645,-371.923 L 118.187,-372.353 L 117.679,-372.722 L 117.129,-373.024 L 116.545,-373.255 L 115.937,-373.411
 L 115.314,-373.49 L -115.314,-373.49 L -115.937,-373.411 L -116.545,-373.255 L -117.129,-373.024 L -117.679,-372.722
 L -118.187,-372.353 L -118.645,-371.923 L -119.045,-371.439 L -119.382,-370.909 L -119.649,-370.341 L -119.843,-369.743
 L -119.961,-369.127 L -120,-368.5 L -120,-303.5 L -119.961,-302.873 L -119.843,-302.257 L -119.649,-301.659
 L -119.382,-301.091 L -119.045,-300.561 L -118.645,-300.077 L -118.187,-299.647 L -117.679,-299.278 L -117.129,-298.976
 L -116.545,-298.745 L -115.937,-298.589 L -115.314,-298.51 L 115.314,-298.51 z
M -114.882,-301.645 L -115.145,-301.678 L -115.402,-301.744 L -115.648,-301.841 L -115.88,-301.969 L -116.095,-302.125
 L -116.288,-302.306 L -116.457,-302.51 L -116.599,-302.734 L -116.711,-302.973 L -116.793,-303.225 L -116.843,-303.486
 L -116.86,-303.75 L -116.86,-368.25 L -116.843,-368.514 L -116.793,-368.775 L -116.711,-369.027 L -116.599,-369.266
 L -116.457,-369.49 L -116.288,-369.694 L -116.095,-369.875 L -115.88,-370.031 L -115.648,-370.159 L -115.402,-370.256
 L -115.145,-370.322 L -114.882,-370.355 L 114.882,-370.355 L 115.145,-370.322 L 115.402,-370.256 L 115.648,-370.159
 L 115.88,-370.031 L 116.095,-369.875 L 116.288,-369.694 L 116.457,-369.49 L 116.599,-369.266 L 116.711,-369.027
 L 116.793,-368.775 L 116.843,-368.514 L 116.86,-368.25 L 116.86,-303.75 L 116.843,-303.486 L 116.793,-303.225
 L 116.711,-302.973 L 116.599,-302.734 L 116.457,-302.51 L 116.288,-302.306 L 116.095,-302.125 L 115.88,-301.969
 L 115.648,-301.841 L 115.402,-301.744 L 115.145,-301.678 L 114.882,-301.645 z
" stroke="black" fill="lightgray" stroke-width="0.5"/>
</svg>
