  0
SECTION
  2
BLOCKS
  0
ENDSEC
  0
SECTION
  2
ENTITIES
  0
LINE
  8
0
 10
115.937
 20
652.589
 11
116.545
 21
652.745
  0
LINE
  8
0
 10
116.545
 20
652.745
 11
117.129
 21
652.976
  0
LINE
  8
0
 10
117.129
 20
652.976
 11
117.679
 21
653.278
  0
LINE
  8
0
 10
117.679
 20
653.278
 11
118.187
 21
653.647
  0
LINE
  8
0
 10
118.187
 20
653.647
 11
118.645
 21
654.077
  0
LINE
  8
0
 10
118.645
 20
654.077
 11
119.045
 21
654.561
  0
LINE
  8
0
 10
119.045
 20
654.561
 11
119.382
 21
655.091
  0
LINE
  8
0
 10
119.382
 20
655.091
 11
119.649
 21
655.659
  0
LINE
  8
0
 10
119.649
 20
655.659
 11
119.843
 21
656.257
  0
LINE
  8
0
 10
119.843
 20
656.257
 11
119.961
 21
656.873
  0
LINE
  8
0
 10
119.961
 20
656.873
 11
120
 21
657.5
  0
LINE
  8
0
 10
120
 20
657.5
 11
120
 21
782.5
  0
LINE
  8
0
 10
120
 20
782.5
 11
119.961
 21
783.127
  0
LINE
  8
0
 10
119.961
 20
783.127
 11
119.843
 21
783.743
  0
LINE
  8
0
 10
119.843
 20
783.743
 11
119.649
 21
784.341
  0
LINE
  8
0
 10
119.649
 20
784.341
 11
119.382
 21
784.909
  0
LINE
  8
0
 10
119.382
 20
784.909
 11
119.045
 21
785.439
  0
LINE
  8
0
 10
119.045
 20
785.439
 11
118.645
 21
785.923
  0
LINE
  8
0
 10
118.645
 20
785.923
 11
118.187
 21
786.353
  0
LINE
  8
0
 10
118.187
 20
786.353
 11
117.679
 21
786.722
  0
LINE
  8
0
 10
117.679
 20
786.722
 11
117.129
 21
787.024
  0
LINE
  8
0
 10
117.129
 20
787.024
 11
116.545
 21
787.255
  0
LINE
  8
0
 10
116.545
 20
787.255
 11
115.937
 21
787.411
  0
LINE
  8
0
 10
115.937
 20
787.411
 11
115.314
 21
787.49
  0
LINE
  8
0
 10
115.314
 20
787.49
 11
-115.314
 21
787.49
  0
LINE
  8
0
 10
-115.314
 20
787.49
 11
-115.937
 21
787.411
  0
LINE
  8
0
 10
-115.937
 20
787.411
 11
-116.545
 21
787.255
  0
LINE
  8
0
 10
-116.545
 20
787.255
 11
-117.129
 21
787.024
  0
LINE
  8
0
 10
-117.129
 20
787.024
 11
-117.679
 21
786.722
  0
LINE
  8
0
 10
-117.679
 20
786.722
 11
-118.187
 21
786.353
  0
LINE
  8
0
 10
-118.187
 20
786.353
 11
-118.645
 21
785.923
  0
LINE
  8
0
 10
-118.645
 20
785.923
 11
-119.045
 21
785.439
  0
LINE
  8
0
 10
-119.045
 20
785.439
 11
-119.382
 21
784.909
  0
LINE
  8
0
 10
-119.382
 20
784.909
 11
-119.649
 21
784.341
  0
LINE
  8
0
 10
-119.649
 20
784.341
 11
-119.843
 21
783.743
  0
LINE
  8
0
 10
-119.843
 20
783.743
 11
-119.961
 21
783.127
  0
LINE
  8
0
 10
-119.961
 20
783.127
 11
-120
 21
782.5
  0
LINE
  8
0
 10
-120
 20
782.5
 11
-120
 21
657.5
  0
LINE
  8
0
 10
-120
 20
657.5
 11
-119.961
 21
656.873
  0
LINE
  8
0
 10
-119.961
 20
656.873
 11
-119.843
 21
656.257
  0
LINE
  8
0
 10
-119.843
 20
656.257
 11
-119.649
 21
655.659
  0
LINE
  8
0
 10
-119.649
 20
655.659
 11
-119.382
 21
655.091
  0
LINE
  8
0
 10
-119.382
 20
655.091
 11
-119.045
 21
654.561
  0
LINE
  8
0
 10
-119.045
 20
654.561
 11
-118.645
 21
654.077
  0
LINE
  8
0
 10
-118.645
 20
654.077
 11
-118.187
 21
653.647
  0
LINE
  8
0
 10
-118.187
 20
653.647
 11
-117.679
 21
653.278
  0
LINE
  8
0
 10
-117.679
 20
653.278
 11
-117.129
 21
652.976
  0
LINE
  8
0
 10
-117.129
 20
652.976
 11
-116.545
 21
652.745
  0
LINE
  8
0
 10
-116.545
 20
652.745
 11
-115.937
 21
652.589
  0
LINE
  8
0
 10
-115.937
 20
652.589
 11
-115.314
 21
652.51
  0
LINE
  8
0
 10
-115.314
 20
652.51
 11
115.314
 21
652.51
  0
LINE
  8
0
 10
115.314
 20
652.51
 11
115.937
 21
652.589
  0
LINE
  8
0
 10
-115.048
 20
653.009
 11
-115.64
 21
653.084
  0
LINE
  8
0
 10
-115.64
 20
653.084
 11
-116.218
 21
653.232
  0
LINE
  8
0
 10
-116.218
 20
653.232
 11
-116.772
 21
653.452
  0
LINE
  8
0
 10
-116.772
 20
653.452
 11
-117.295
 21
653.739
  0
LINE
  8
0
 10
-117.295
 20
653.739
 11
-117.778
 21
654.09
  0
LINE
  8
0
 10
-117.778
 20
654.09
 11
-118.213
 21
654.498
  0
LINE
  8
0
 10
-118.213
 20
654.498
 11
-118.593
 21
654.958
  0
LINE
  8
0
 10
-118.593
 20
654.958
 11
-118.912
 21
655.462
  0
LINE
  8
0
 10
-118.912
 20
655.462
 11
-119.166
 21
656.001
  0
LINE
  8
0
 10
-119.166
 20
656.001
 11
-119.351
 21
656.569
  0
LINE
  8
0
 10
-119.351
 20
656.569
 11
-119.463
 21
657.155
  0
LINE
  8
0
 10
-119.463
 20
657.155
 11
-119.5
 21
657.75
  0
LINE
  8
0
 10
-119.5
 20
657.75
 11
-119.5
 21
782.25
  0
LINE
  8
0
 10
-119.5
 20
782.25
 11
-119.463
 21
782.845
  0
LINE
  8
0
 10
-119.463
 20
782.845
 11
-119.351
 21
783.431
  0
LINE
  8
0
 10
-119.351
 20
783.431
 11
-119.166
 21
783.999
  0
LINE
  8
0
 10
-119.166
 20
783.999
 11
-118.912
 21
784.538
  0
LINE
  8
0
 10
-118.912
 20
784.538
 11
-118.593
 21
785.042
  0
LINE
  8
0
 10
-118.593
 20
785.042
 11
-118.213
 21
785.502
  0
LINE
  8
0
 10
-118.213
 20
785.502
 11
-117.778
 21
785.91
  0
LINE
  8
0
 10
-117.778
 20
785.91
 11
-117.295
 21
786.261
  0
LINE
  8
0
 10
-117.295
 20
786.261
 11
-116.772
 21
786.548
  0
LINE
  8
0
 10
-116.772
 20
786.548
 11
-116.218
 21
786.768
  0
LINE
  8
0
 10
-116.218
 20
786.768
 11
-115.64
 21
786.916
  0
LINE
  8
0
 10
-115.64
 20
786.916
 11
-115.048
 21
786.991
  0
LINE
  8
0
 10
-115.048
 20
786.991
 11
115.048
 21
786.991
  0
LINE
  8
0
 10
115.048
 20
786.991
 11
115.64
 21
786.916
  0
LINE
  8
0
 10
115.64
 20
786.916
 11
116.218
 21
786.768
  0
LINE
  8
0
 10
116.218
 20
786.768
 11
116.772
 21
786.548
  0
LINE
  8
0
 10
116.772
 20
786.548
 11
117.295
 21
786.261
  0
LINE
  8
0
 10
117.295
 20
786.261
 11
117.778
 21
785.91
  0
LINE
  8
0
 10
117.778
 20
785.91
 11
118.213
 21
785.502
  0
LINE
  8
0
 10
118.213
 20
785.502
 11
118.593
 21
785.042
  0
LINE
  8
0
 10
118.593
 20
785.042
 11
118.912
 21
784.538
  0
LINE
  8
0
 10
118.912
 20
784.538
 11
119.166
 21
783.999
  0
LINE
  8
0
 10
119.166
 20
783.999
 11
119.351
 21
783.431
  0
LINE
  8
0
 10
119.351
 20
783.431
 11
119.463
 21
782.845
  0
LINE
  8
0
 10
119.463
 20
782.845
 11
119.5
 21
782.25
  0
LINE
  8
0
 10
119.5
 20
782.25
 11
119.5
 21
657.75
  0
LINE
  8
0
 10
119.5
 20
657.75
 11
119.463
 21
657.155
  0
LINE
  8
0
 10
119.463
 20
657.155
 11
119.351
 21
656.569
  0
LINE
  8
0
 10
119.351
 20
656.569
 11
119.166
 21
656.001
  0
LINE
  8
0
 10
119.166
 20
656.001
 11
118.912
 21
655.462
  0
LINE
  8
0
 10
118.912
 20
655.462
 11
118.593
 21
654.958
  0
LINE
  8
0
 10
118.593
 20
654.958
 11
118.213
 21
654.498
  0
LINE
  8
0
 10
118.213
 20
654.498
 11
117.778
 21
654.09
  0
LINE
  8
0
 10
117.778
 20
654.09
 11
117.295
 21
653.739
  0
LINE
  8
0
 10
117.295
 20
653.739
 11
116.772
 21
653.452
  0
LINE
  8
0
 10
116.772
 20
653.452
 11
116.218
 21
653.232
  0
LINE
  8
0
 10
116.218
 20
653.232
 11
115.64
 21
653.084
  0
LINE
  8
0
 10
115.64
 20
653.084
 11
115.048
 21
653.009
  0
LINE
  8
0
 10
115.048
 20
653.009
 11
-115.048
 21
653.009
  0
LINE
  8
0
 10
115.937
 20
508.589
 11
116.545
 21
508.745
  0
LINE
  8
0
 10
116.545
 20
508.745
 11
117.129
 21
508.976
  0
LINE
  8
0
 10
117.129
 20
508.976
 11
117.679
 21
509.278
  0
LINE
  8
0
 10
117.679
 20
509.278
 11
118.187
 21
509.647
  0
LINE
  8
0
 10
118.187
 20
509.647
 11
118.645
 21
510.077
  0
LINE
  8
0
 10
118.645
 20
510.077
 11
119.045
 21
510.561
  0
LINE
  8
0
 10
119.045
 20
510.561
 11
119.382
 21
511.091
  0
LINE
  8
0
 10
119.382
 20
511.091
 11
119.649
 21
511.659
  0
LINE
  8
0
 10
119.649
 20
511.659
 11
119.843
 21
512.257
  0
LINE
  8
0
 10
119.843
 20
512.257
 11
119.961
 21
512.873
  0
LINE
  8
0
 10
119.961
 20
512.873
 11
120
 21
513.5
  0
LINE
  8
0
 10
120
 20
513.5
 11
120
 21
638.5
  0
LINE
  8
0
 10
120
 20
638.5
 11
119.961
 21
639.127
  0
LINE
  8
0
 10
119.961
 20
639.127
 11
119.843
 21
639.743
  0
LINE
  8
0
 10
119.843
 20
639.743
 11
119.649
 21
640.341
  0
LINE
  8
0
 10
119.649
 20
640.341
 11
119.382
 21
640.909
  0
LINE
  8
0
 10
119.382
 20
640.909
 11
119.045
 21
641.439
  0
LINE
  8
0
 10
119.045
 20
641.439
 11
118.645
 21
641.923
  0
LINE
  8
0
 10
118.645
 20
641.923
 11
118.187
 21
642.353
  0
LINE
  8
0
 10
118.187
 20
642.353
 11
117.679
 21
642.722
  0
LINE
  8
0
 10
117.679
 20
642.722
 11
117.129
 21
643.024
  0
LINE
  8
0
 10
117.129
 20
643.024
 11
116.545
 21
643.255
  0
LINE
  8
0
 10
116.545
 20
643.255
 11
115.937
 21
643.411
  0
LINE
  8
0
 10
115.937
 20
643.411
 11
115.314
 21
643.49
  0
LINE
  8
0
 10
115.314
 20
643.49
 11
-115.314
 21
643.49
  0
LINE
  8
0
 10
-115.314
 20
643.49
 11
-115.937
 21
643.411
  0
LINE
  8
0
 10
-115.937
 20
643.411
 11
-116.545
 21
643.255
  0
LINE
  8
0
 10
-116.545
 20
643.255
 11
-117.129
 21
643.024
  0
LINE
  8
0
 10
-117.129
 20
643.024
 11
-117.679
 21
642.722
  0
LINE
  8
0
 10
-117.679
 20
642.722
 11
-118.187
 21
642.353
  0
LINE
  8
0
 10
-118.187
 20
642.353
 11
-118.645
 21
641.923
  0
LINE
  8
0
 10
-118.645
 20
641.923
 11
-119.045
 21
641.439
  0
LINE
  8
0
 10
-119.045
 20
641.439
 11
-119.382
 21
640.909
  0
LINE
  8
0
 10
-119.382
 20
640.909
 11
-119.649
 21
640.341
  0
LINE
  8
0
 10
-119.649
 20
640.341
 11
-119.843
 21
639.743
  0
LINE
  8
0
 10
-119.843
 20
639.743
 11
-119.961
 21
639.127
  0
LINE
  8
0
 10
-119.961
 20
639.127
 11
-120
 21
638.5
  0
LINE
  8
0
 10
-120
 20
638.5
 11
-120
 21
513.5
  0
LINE
  8
0
 10
-120
 20
513.5
 11
-119.961
 21
512.873
  0
LINE
  8
0
 10
-119.961
 20
512.873
 11
-119.843
 21
512.257
  0
LINE
  8
0
 10
-119.843
 20
512.257
 11
-119.649
 21
511.659
  0
LINE
  8
0
 10
-119.649
 20
511.659
 11
-119.382
 21
511.091
  0
LINE
  8
0
 10
-119.382
 20
511.091
 11
-119.045
 21
510.561
  0
LINE
  8
0
 10
-119.045
 20
510.561
 11
-118.645
 21
510.077
  0
LINE
  8
0
 10
-118.645
 20
510.077
 11
-118.187
 21
509.647
  0
LINE
  8
0
 10
-118.187
 20
509.647
 11
-117.679
 21
509.278
  0
LINE
  8
0
 10
-117.679
 20
509.278
 11
-117.129
 21
508.976
  0
LINE
  8
0
 10
-117.129
 20
508.976
 11
-116.545
 21
508.745
  0
LINE
  8
0
 10
-116.545
 20
508.745
 11
-115.937
 21
508.589
  0
LINE
  8
0
 10
-115.937
 20
508.589
 11
-115.314
 21
508.51
  0
LINE
  8
0
 10
-115.314
 20
508.51
 11
115.314
 21
508.51
  0
LINE
  8
0
 10
115.314
 20
508.51
 11
115.937
 21
508.589
  0
LINE
  8
0
 10
-115.037
 20
509.181
 11
-115.608
 21
509.253
  0
LINE
  8
0
 10
-115.608
 20
509.253
 11
-116.165
 21
509.396
  0
LINE
  8
0
 10
-116.165
 20
509.396
 11
-116.699
 21
509.607
  0
LINE
  8
0
 10
-116.699
 20
509.607
 11
-117.203
 21
509.884
  0
LINE
  8
0
 10
-117.203
 20
509.884
 11
-117.668
 21
510.222
  0
LINE
  8
0
 10
-117.668
 20
510.222
 11
-118.088
 21
510.616
  0
LINE
  8
0
 10
-118.088
 20
510.616
 11
-118.454
 21
511.059
  0
LINE
  8
0
 10
-118.454
 20
511.059
 11
-118.762
 21
511.544
  0
LINE
  8
0
 10
-118.762
 20
511.544
 11
-119.007
 21
512.065
  0
LINE
  8
0
 10
-119.007
 20
512.065
 11
-119.185
 21
512.611
  0
LINE
  8
0
 10
-119.185
 20
512.611
 11
-119.292
 21
513.176
  0
LINE
  8
0
 10
-119.292
 20
513.176
 11
-119.328
 21
513.75
  0
LINE
  8
0
 10
-119.328
 20
513.75
 11
-119.328
 21
638.25
  0
LINE
  8
0
 10
-119.328
 20
638.25
 11
-119.292
 21
638.824
  0
LINE
  8
0
 10
-119.292
 20
638.824
 11
-119.185
 21
639.389
  0
LINE
  8
0
 10
-119.185
 20
639.389
 11
-119.007
 21
639.935
  0
LINE
  8
0
 10
-119.007
 20
639.935
 11
-118.762
 21
640.456
  0
LINE
  8
0
 10
-118.762
 20
640.456
 11
-118.454
 21
640.941
  0
LINE
  8
0
 10
-118.454
 20
640.941
 11
-118.088
 21
641.384
  0
LINE
  8
0
 10
-118.088
 20
641.384
 11
-117.668
 21
641.778
  0
LINE
  8
0
 10
-117.668
 20
641.778
 11
-117.203
 21
642.116
  0
LINE
  8
0
 10
-117.203
 20
642.116
 11
-116.699
 21
642.393
  0
LINE
  8
0
 10
-116.699
 20
642.393
 11
-116.165
 21
642.604
  0
LINE
  8
0
 10
-116.165
 20
642.604
 11
-115.608
 21
642.747
  0
LINE
  8
0
 10
-115.608
 20
642.747
 11
-115.037
 21
642.819
  0
LINE
  8
0
 10
-115.037
 20
642.819
 11
115.037
 21
642.819
  0
LINE
  8
0
 10
115.037
 20
642.819
 11
115.608
 21
642.747
  0
LINE
  8
0
 10
115.608
 20
642.747
 11
116.165
 21
642.604
  0
LINE
  8
0
 10
116.165
 20
642.604
 11
116.699
 21
642.393
  0
LINE
  8
0
 10
116.699
 20
642.393
 11
117.203
 21
642.116
  0
LINE
  8
0
 10
117.203
 20
642.116
 11
117.668
 21
641.778
  0
LINE
  8
0
 10
117.668
 20
641.778
 11
118.088
 21
641.384
  0
LINE
  8
0
 10
118.088
 20
641.384
 11
118.454
 21
640.941
  0
LINE
  8
0
 10
118.454
 20
640.941
 11
118.762
 21
640.456
  0
LINE
  8
0
 10
118.762
 20
640.456
 11
119.007
 21
639.935
  0
LINE
  8
0
 10
119.007
 20
639.935
 11
119.185
 21
639.389
  0
LINE
  8
0
 10
119.185
 20
639.389
 11
119.292
 21
638.824
  0
LINE
  8
0
 10
119.292
 20
638.824
 11
119.328
 21
638.25
  0
LINE
  8
0
 10
119.328
 20
638.25
 11
119.328
 21
513.75
  0
LINE
  8
0
 10
119.328
 20
513.75
 11
119.292
 21
513.176
  0
LINE
  8
0
 10
119.292
 20
513.176
 11
119.185
 21
512.611
  0
LINE
  8
0
 10
119.185
 20
512.611
 11
119.007
 21
512.065
  0
LINE
  8
0
 10
119.007
 20
512.065
 11
118.762
 21
511.544
  0
LINE
  8
0
 10
118.762
 20
511.544
 11
118.454
 21
511.059
  0
LINE
  8
0
 10
118.454
 20
511.059
 11
118.088
 21
510.616
  0
LINE
  8
0
 10
118.088
 20
510.616
 11
117.668
 21
510.222
  0
LINE
  8
0
 10
117.668
 20
510.222
 11
117.203
 21
509.884
  0
LINE
  8
0
 10
117.203
 20
509.884
 11
116.699
 21
509.607
  0
LINE
  8
0
 10
116.699
 20
509.607
 11
116.165
 21
509.396
  0
LINE
  8
0
 10
116.165
 20
509.396
 11
115.608
 21
509.253
  0
LINE
  8
0
 10
115.608
 20
509.253
 11
115.037
 21
509.181
  0
LINE
  8
0
 10
115.037
 20
509.181
 11
-115.037
 21
509.181
  0
LINE
  8
0
 10
115.937
 20
364.589
 11
116.545
 21
364.745
  0
LINE
  8
0
 10
116.545
 20
364.745
 11
117.129
 21
364.976
  0
LINE
  8
0
 10
117.129
 20
364.976
 11
117.679
 21
365.278
  0
LINE
  8
0
 10
117.679
 20
365.278
 11
118.187
 21
365.647
  0
LINE
  8
0
 10
118.187
 20
365.647
 11
118.645
 21
366.077
  0
LINE
  8
0
 10
118.645
 20
366.077
 11
119.045
 21
366.561
  0
LINE
  8
0
 10
119.045
 20
366.561
 11
119.382
 21
367.091
  0
LINE
  8
0
 10
119.382
 20
367.091
 11
119.649
 21
367.659
  0
LINE
  8
0
 10
119.649
 20
367.659
 11
119.843
 21
368.257
  0
LINE
  8
0
 10
119.843
 20
368.257
 11
119.961
 21
368.873
  0
LINE
  8
0
 10
119.961
 20
368.873
 11
120
 21
369.5
  0
LINE
  8
0
 10
120
 20
369.5
 11
120
 21
494.5
  0
LINE
  8
0
 10
120
 20
494.5
 11
119.961
 21
495.127
  0
LINE
  8
0
 10
119.961
 20
495.127
 11
119.843
 21
495.743
  0
LINE
  8
0
 10
119.843
 20
495.743
 11
119.649
 21
496.341
  0
LINE
  8
0
 10
119.649
 20
496.341
 11
119.382
 21
496.909
  0
LINE
  8
0
 10
119.382
 20
496.909
 11
119.045
 21
497.439
  0
LINE
  8
0
 10
119.045
 20
497.439
 11
118.645
 21
497.923
  0
LINE
  8
0
 10
118.645
 20
497.923
 11
118.187
 21
498.353
  0
LINE
  8
0
 10
118.187
 20
498.353
 11
117.679
 21
498.722
  0
LINE
  8
0
 10
117.679
 20
498.722
 11
117.129
 21
499.024
  0
LINE
  8
0
 10
117.129
 20
499.024
 11
116.545
 21
499.255
  0
LINE
  8
0
 10
116.545
 20
499.255
 11
115.937
 21
499.411
  0
LINE
  8
0
 10
115.937
 20
499.411
 11
115.314
 21
499.49
  0
LINE
  8
0
 10
115.314
 20
499.49
 11
-115.314
 21
499.49
  0
LINE
  8
0
 10
-115.314
 20
499.49
 11
-115.937
 21
499.411
  0
LINE
  8
0
 10
-115.937
 20
499.411
 11
-116.545
 21
499.255
  0
LINE
  8
0
 10
-116.545
 20
499.255
 11
-117.129
 21
499.024
  0
LINE
  8
0
 10
-117.129
 20
499.024
 11
-117.679
 21
498.722
  0
LINE
  8
0
 10
-117.679
 20
498.722
 11
-118.187
 21
498.353
  0
LINE
  8
0
 10
-118.187
 20
498.353
 11
-118.645
 21
497.923
  0
LINE
  8
0
 10
-118.645
 20
497.923
 11
-119.045
 21
497.439
  0
LINE
  8
0
 10
-119.045
 20
497.439
 11
-119.382
 21
496.909
  0
LINE
  8
0
 10
-119.382
 20
496.909
 11
-119.649
 21
496.341
  0
LINE
  8
0
 10
-119.649
 20
496.341
 11
-119.843
 21
495.743
  0
LINE
  8
0
 10
-119.843
 20
495.743
 11
-119.961
 21
495.127
  0
LINE
  8
0
 10
-119.961
 20
495.127
 11
-120
 21
494.5
  0
LINE
  8
0
 10
-120
 20
494.5
 11
-120
 21
369.5
  0
LINE
  8
0
 10
-120
 20
369.5
 11
-119.961
 21
368.873
  0
LINE
  8
0
 10
-119.961
 20
368.873
 11
-119.843
 21
368.257
  0
LINE
  8
0
 10
-119.843
 20
368.257
 11
-119.649
 21
367.659
  0
LINE
  8
0
 10
-119.649
 20
367.659
 11
-119.382
 21
367.091
  0
LINE
  8
0
 10
-119.382
 20
367.091
 11
-119.045
 21
366.561
  0
LINE
  8
0
 10
-119.045
 20
366.561
 11
-118.645
 21
366.077
  0
LINE
  8
0
 10
-118.645
 20
366.077
 11
-118.187
 21
365.647
  0
LINE
  8
0
 10
-118.187
 20
365.647
 11
-117.679
 21
365.278
  0
LINE
  8
0
 10
-117.679
 20
365.278
 11
-117.129
 21
364.976
  0
LINE
  8
0
 10
-117.129
 20
364.976
 11
-116.545
 21
364.745
  0
LINE
  8
0
 10
-116.545
 20
364.745
 11
-115.937
 21
364.589
  0
LINE
  8
0
 10
-115.937
 20
364.589
 11
-115.314
 21
364.51
  0
LINE
  8
0
 10
-115.314
 20
364.51
 11
115.314
 21
364.51
  0
LINE
  8
0
 10
115.314
 20
364.51
 11
115.937
 21
364.589
  0
LINE
  8
0
 10
-114.882
 20
367.645
 11
-115.145
 21
367.678
  0
LINE
  8
0
 10
-115.145
 20
367.678
 11
-115.402
 21
367.744
  0
LINE
  8
0
 10
-115.402
 20
367.744
 11
-115.648
 21
367.841
  0
LINE
  8
0
 10
-115.648
 20
367.841
 11
-115.88
 21
367.969
  0
LINE
  8
0
 10
-115.88
 20
367.969
 11
-116.095
 21
368.125
  0
LINE
  8
0
 10
-116.095
 20
368.125
 11
-116.288
 21
368.306
  0
LINE
  8
0
 10
-116.288
 20
368.306
 11
-116.457
 21
368.51
  0
LINE
  8
0
 10
-116.457
 20
368.51
 11
-116.599
 21
368.734
  0
LINE
  8
0
 10
-116.599
 20
368.734
 11
-116.711
 21
368.973
  0
LINE
  8
0
 10
-116.711
 20
368.973
 11
-116.793
 21
369.225
  0
LINE
  8
0
 10
-116.793
 20
369.225
 11
-116.843
 21
369.486
  0
LINE
  8
0
 10
-116.843
 20
369.486
 11
-116.86
 21
369.75
  0
LINE
  8
0
 10
-116.86
 20
369.75
 11
-116.86
 21
494.25
  0
LINE
  8
0
 10
-116.86
 20
494.25
 11
-116.843
 21
494.514
  0
LINE
  8
0
 10
-116.843
 20
494.514
 11
-116.793
 21
494.775
  0
LINE
  8
0
 10
-116.793
 20
494.775
 11
-116.711
 21
495.027
  0
LINE
  8
0
 10
-116.711
 20
495.027
 11
-116.599
 21
495.266
  0
LINE
  8
0
 10
-116.599
 20
495.266
 11
-116.457
 21
495.49
  0
LINE
  8
0
 10
-116.457
 20
495.49
 11
-116.288
 21
495.694
  0
LINE
  8
0
 10
-116.288
 20
495.694
 11
-116.095
 21
495.875
  0
LINE
  8
0
 10
-116.095
 20
495.875
 11
-115.88
 21
496.031
  0
LINE
  8
0
 10
-115.88
 20
496.031
 11
-115.648
 21
496.159
  0
LINE
  8
0
 10
-115.648
 20
496.159
 11
-115.402
 21
496.256
  0
LINE
  8
0
 10
-115.402
 20
496.256
 11
-115.145
 21
496.322
  0
LINE
  8
0
 10
-115.145
 20
496.322
 11
-114.882
 21
496.355
  0
LINE
  8
0
 10
-114.882
 20
496.355
 11
114.882
 21
496.355
  0
LINE
  8
0
 10
114.882
 20
496.355
 11
115.145
 21
496.322
  0
LINE
  8
0
 10
115.145
 20
496.322
 11
115.402
 21
496.256
  0
LINE
  8
0
 10
115.402
 20
496.256
 11
115.648
 21
496.159
  0
LINE
  8
0
 10
115.648
 20
496.159
 11
115.88
 21
496.031
  0
LINE
  8
0
 10
115.88
 20
496.031
 11
116.095
 21
495.875
  0
LINE
  8
0
 10
116.095
 20
495.875
 11
116.288
 21
495.694
  0
LINE
  8
0
 10
116.288
 20
495.694
 11
116.457
 21
495.49
  0
LINE
  8
0
 10
116.457
 20
495.49
 11
116.599
 21
495.266
  0
LINE
  8
0
 10
116.599
 20
495.266
 11
116.711
 21
495.027
  0
LINE
  8
0
 10
116.711
 20
495.027
 11
116.793
 21
494.775
  0
LINE
  8
0
 10
116.793
 20
494.775
 11
116.843
 21
494.514
  0
LINE
  8
0
 10
116.843
 20
494.514
 11
116.86
 21
494.25
  0
LINE
  8
0
 10
116.86
 20
494.25
 11
116.86
 21
369.75
  0
LINE
  8
0
 10
116.86
 20
369.75
 11
116.843
 21
369.486
  0
LINE
  8
0
 10
116.843
 20
369.486
 11
116.793
 21
369.225
  0
LINE
  8
0
 10
116.793
 20
369.225
 11
116.711
 21
368.973
  0
LINE
  8
0
 10
116.711
 20
368.973
 11
116.599
 21
368.734
  0
LINE
  8
0
 10
116.599
 20
368.734
 11
116.457
 21
368.51
  0
LINE
  8
0
 10
116.457
 20
368.51
 11
116.288
 21
368.306
  0
LINE
  8
0
 10
116.288
 20
368.306
 11
116.095
 21
368.125
  0
LINE
  8
0
 10
116.095
 20
368.125
 11
115.88
 21
367.969
  0
LINE
  8
0
 10
115.88
 20
367.969
 11
115.648
 21
367.841
  0
LINE
  8
0
 10
115.648
 20
367.841
 11
115.402
 21
367.744
  0
LINE
  8
0
 10
115.402
 20
367.744
 11
115.145
 21
367.678
  0
LINE
  8
0
 10
115.145
 20
367.678
 11
114.882
 21
367.645
  0
LINE
  8
0
 10
114.882
 20
367.645
 11
-114.882
 21
367.645
  0
ENDSEC
  0
SECTION
  2
OBJECTS
  0
DICTIONARY
  0
ENDSEC
  0
EOF
