<?xml version="1.0" standalone="no"?>
<!DOCTYPE svg PUBLIC "-//W3C//DTD SVG 1.1//EN" "http://www.w3.org/Graphics/SVG/1.1/DTD/svg11.dtd">
<svg width="226mm" height="738mm" viewBox="-113 -1116 226 738" xmlns="http://www.w3.org/2000/svg" version="1.1">
<title>OpenSCAD Model</title>
<path d="
M 108.437,-876.089 L 109.045,-876.245 L 109.629,-876.476 L 110.179,-876.778 L 110.687,-877.147 L 111.145,-877.577
 L 111.545,-878.061 L 111.882,-878.591 L 112.149,-879.159 L 112.343,-879.757 L 112.461,-880.373 L 112.5,-881
 L 112.5,-1111 L 112.461,-1111.63 L 112.343,-1112.24 L 112.149,-1112.84 L 111.882,-1113.41 L 111.545,-1113.94
 L 111.145,-1114.42 L 110.687,-1114.85 L 110.179,-1115.22 L 109.629,-1115.52 L 109.045,-1115.76 L 108.437,-1115.91
 L 107.814,-1115.99 L -107.814,-1115.99 L -108.437,-1115.91 L -109.045,-1115.76 L -109.629,-1115.52 L -110.179,-1115.22
 L -110.687,-1114.85 L -111.145,-1114.42 L -111.545,-1113.94 L -111.882,-1113.41 L -112.149,-1112.84 L -112.343,-1112.24
 L -112.461,-1111.63 L -112.5,-1111 L -112.5,-881 L -112.461,-880.373 L -112.343,-879.757 L -112.149,-879.159
 L -111.882,-878.591 L -111.545,-878.061 L -111.145,-877.577 L -110.687,-877.147 L -110.179,-876.778 L -109.629,-876.476
 L -109.045,-876.245 L -108.437,-876.089 L -107.814,-876.01 L 107.814,-876.01 z
M -107.243,-877.635 L -107.726,-877.696 L -108.197,-877.817 L -108.649,-877.996 L -109.075,-878.23 L -109.469,-878.516
 L -109.823,-878.849 L -110.133,-879.224 L -110.394,-879.634 L -110.601,-880.074 L -110.751,-880.537 L -110.842,-881.015
 L -110.873,-881.5 L -110.873,-1110.5 L -110.842,-1110.99 L -110.751,-1111.46 L -110.601,-1111.93 L -110.394,-1112.37
 L -110.133,-1112.78 L -109.823,-1113.15 L -109.469,-1113.48 L -109.075,-1113.77 L -108.649,-1114 L -108.197,-1114.18
 L -107.726,-1114.3 L -107.243,-1114.36 L 107.243,-1114.36 L 107.726,-1114.3 L 108.197,-1114.18 L 108.649,-1114
 L 109.075,-1113.77 L 109.469,-1113.48 L 109.823,-1113.15 L 110.133,-1112.78 L 110.394,-1112.37 L 110.601,-1111.93
 L 110.751,-1111.46 L 110.842,-1110.99 L 110.873,-1110.5 L 110.873,-881.5 L 110.842,-881.015 L 110.751,-880.537
 L 110.601,-880.074 L 110.394,-879.634 L 110.133,-879.224 L 109.823,-878.849 L 109.469,-878.516 L 109.075,-878.23
 L 108.649,-877.996 L 108.197,-877.817 L 107.726,-877.696 L 107.243,-877.635 z
M 108.437,-627.089 L 109.045,-627.245 L 109.629,-627.476 L 110.179,-627.778 L 110.687,-628.147 L 111.145,-628.577
 L 111.545,-629.061 L 111.882,-629.591 L 112.149,-630.159 L 112.343,-630.757 L 112.461,-631.373 L 112.5,-632
 L 112.5,-862 L 112.461,-862.627 L 112.343,-863.243 L 112.149,-863.841 L 111.882,-864.409 L 111.545,-864.939
 L 111.145,-865.423 L 110.687,-865.853 L 110.179,-866.222 L 109.629,-866.524 L 109.045,-866.755 L 108.437,-866.911
 L 107.814,-866.99 L -107.814,-866.99 L -108.437,-866.911 L -109.045,-866.755 L -109.629,-866.524 L -110.179,-866.222
 L -110.687,-865.853 L -111.145,-865.423 L -111.545,-864.939 L -111.882,-864.409 L -112.149,-863.841 L -112.343,-863.243
 L -112.461,-862.627 L -112.5,-862 L -112.5,-632 L -112.461,-631.373 L -112.343,-630.757 L -112.149,-630.159
 L -111.882,-629.591 L -111.545,-629.061 L -111.145,-628.577 L -110.687,-628.147 L -110.179,-627.778 L -109.629,-627.476
 L -109.045,-627.245 L -108.437,-627.089 L -107.814,-627.01 L 107.814,-627.01 z
M -105.151,-857.105 L -105.45,-857.143 L -105.742,-857.217 L -106.022,-857.328 L -106.286,-857.474 L -106.53,-857.651
 L -106.75,-857.857 L -106.942,-858.089 L -107.103,-858.344 L -107.231,-858.617 L -107.325,-858.903 L -107.381,-859.199
 L -107.4,-859.5 L -107.381,-859.801 L -107.325,-860.097 L -107.231,-860.383 L -107.103,-860.656 L -106.942,-860.911
 L -106.75,-861.143 L -106.53,-861.349 L -106.286,-861.526 L -106.022,-861.672 L -105.742,-861.783 L -105.45,-861.857
 L -105.151,-861.895 L -104.849,-861.895 L -104.55,-861.857 L -104.258,-861.783 L -103.978,-861.672 L -103.714,-861.526
 L -103.47,-861.349 L -103.25,-861.143 L -103.058,-860.911 L -102.897,-860.656 L -102.769,-860.383 L -102.675,-860.097
 L -102.619,-859.801 L -102.6,-859.5 L -102.619,-859.199 L -102.675,-858.903 L -102.769,-858.617 L -102.897,-858.344
 L -103.058,-858.089 L -103.25,-857.857 L -103.47,-857.651 L -103.714,-857.474 L -103.978,-857.328 L -104.258,-857.217
 L -104.55,-857.143 L -104.849,-857.105 z
M 104.849,-857.105 L 104.55,-857.143 L 104.258,-857.217 L 103.978,-857.328 L 103.714,-857.474 L 103.47,-857.651
 L 103.25,-857.857 L 103.058,-858.089 L 102.897,-858.344 L 102.769,-858.617 L 102.675,-858.903 L 102.619,-859.199
 L 102.6,-859.5 L 102.619,-859.801 L 102.675,-860.097 L 102.769,-860.383 L 102.897,-860.656 L 103.058,-860.911
 L 103.25,-861.143 L 103.47,-861.349 L 103.714,-861.526 L 103.978,-861.672 L 104.258,-861.783 L 104.55,-861.857
 L 104.849,-861.895 L 105.151,-861.895 L 105.45,-861.857 L 105.742,-861.783 L 106.022,-861.672 L 106.286,-861.526
 L 106.53,-861.349 L 106.75,-861.143 L 106.942,-860.911 L 107.103,-860.656 L 107.231,-860.383 L 107.325,-860.097
 L 107.381,-859.801 L 107.4,-859.5 L 107.381,-859.199 L 107.325,-858.903 L 107.231,-858.617 L 107.103,-858.344
 L 106.942,-858.089 L 106.75,-857.857 L 106.53,-857.651 L 106.286,-857.474 L 106.022,-857.328 L 105.742,-857.217
 L 105.45,-857.143 L 105.151,-857.105 z
M 104.849,-632.105 L 104.55,-632.143 L 104.258,-632.217 L 103.978,-632.328 L 103.714,-632.474 L 103.47,-632.651
 L 103.25,-632.857 L 103.058,-633.089 L 102.897,-633.344 L 102.769,-633.617 L 102.675,-633.903 L 102.619,-634.199
 L 102.6,-634.5 L 102.619,-634.801 L 102.675,-635.097 L 102.769,-635.383 L 102.897,-635.656 L 103.058,-635.911
 L 103.25,-636.143 L 103.47,-636.349 L 103.714,-636.526 L 103.978,-636.672 L 104.258,-636.783 L 104.55,-636.857
 L 104.849,-636.895 L 105.151,-636.895 L 105.45,-636.857 L 105.742,-636.783 L 106.022,-636.672 L 106.286,-636.526
 L 106.53,-636.349 L 106.75,-636.143 L 106.942,-635.911 L 107.103,-635.656 L 107.231,-635.383 L 107.325,-635.097
 L 107.381,-634.801 L 107.4,-634.5 L 107.381,-634.199 L 107.325,-633.903 L 107.231,-633.617 L 107.103,-633.344
 L 106.942,-633.089 L 106.75,-632.857 L 106.53,-632.651 L 106.286,-632.474 L 106.022,-632.328 L 105.742,-632.217
 L 105.45,-632.143 L 105.151,-632.105 z
M -105.151,-632.105 L -105.45,-632.143 L -105.742,-632.217 L -106.022,-632.328 L -106.286,-632.474 L -106.53,-632.651
 L -106.75,-632.857 L -106.942,-633.089 L -107.103,-633.344 L -107.231,-633.617 L -107.325,-633.903 L -107.381,-634.199
 L -107.4,-634.5 L -107.381,-634.801 L -107.325,-635.097 L -107.231,-635.383 L -107.103,-635.656 L -106.942,-635.911
 L -106.75,-636.143 L -106.53,-636.349 L -106.286,-636.526 L -106.022,-636.672 L -105.742,-636.783 L -105.45,-636.857
 L -105.151,-636.895 L -104.849,-636.895 L -104.55,-636.857 L -104.258,-636.783 L -103.978,-636.672 L -103.714,-636.526
 L -103.47,-636.349 L -103.25,-636.143 L -103.058,-635.911 L -102.897,-635.656 L -102.769,-635.383 L -102.675,-635.097
 L -102.619,-634.801 L -102.6,-634.5 L -102.619,-634.199 L -102.675,-633.903 L -102.769,-633.617 L -102.897,-633.344
 L -103.058,-633.089 L -103.25,-632.857 L -103.47,-632.651 L -103.714,-632.474 L -103.978,-632.328 L -104.258,-632.217
 L -104.55,-632.143 L -104.849,-632.105 z
M 108.437,-378.089 L 109.045,-378.245 L 109.629,-378.476 L 110.179,-378.778 L 110.687,-379.147 L 111.145,-379.577
 L 111.545,-380.061 L 111.882,-380.591 L 112.149,-381.159 L 112.343,-381.757 L 112.461,-382.373 L 112.5,-383
 L 112.5,-613 L 112.461,-613.627 L 112.343,-614.243 L 112.149,-614.841 L 111.882,-615.409 L 111.545,-615.939
 L 111.145,-616.423 L 110.687,-616.853 L 110.179,-617.222 L 109.629,-617.524 L 109.045,-617.755 L 108.437,-617.911
 L 107.814,-617.99 L -107.814,-617.99 L -108.437,-617.911 L -109.045,-617.755 L -109.629,-617.524 L -110.179,-617.222
 L -110.687,-616.853 L -111.145,-616.423 L -111.545,-615.939 L -111.882,-615.409 L -112.149,-614.841 L -112.343,-614.243
 L -112.461,-613.627 L -112.5,-613 L -112.5,-383 L -112.461,-382.373 L -112.343,-381.757 L -112.149,-381.159
 L -111.882,-380.591 L -111.545,-380.061 L -111.145,-379.577 L -110.687,-379.147 L -110.179,-378.778 L -109.629,-378.476
 L -109.045,-378.245 L -108.437,-378.089 L -107.814,-378.01 L 107.814,-378.01 z
M 104.887,-608.704 L 104.663,-608.732 L 104.444,-608.788 L 104.234,-608.871 L 104.036,-608.98 L 103.853,-609.113
 L 103.688,-609.268 L 103.544,-609.442 L 103.423,-609.633 L 103.326,-609.837 L 103.257,-610.052 L 103.214,-610.274
 L 103.2,-610.5 L 103.214,-610.726 L 103.257,-610.948 L 103.326,-611.163 L 103.423,-611.367 L 103.544,-611.558
 L 103.688,-611.732 L 103.853,-611.887 L 104.036,-612.02 L 104.234,-612.129 L 104.444,-612.212 L 104.663,-612.268
 L 104.887,-612.296 L 105.113,-612.296 L 105.337,-612.268 L 105.556,-612.212 L 105.766,-612.129 L 105.964,-612.02
 L 106.147,-611.887 L 106.312,-611.732 L 106.456,-611.558 L 106.577,-611.367 L 106.674,-611.163 L 106.743,-610.948
 L 106.786,-610.726 L 106.8,-610.5 L 106.786,-610.274 L 106.743,-610.052 L 106.674,-609.837 L 106.577,-609.633
 L 106.456,-609.442 L 106.312,-609.268 L 106.147,-609.113 L 105.964,-608.98 L 105.766,-608.871 L 105.556,-608.788
 L 105.337,-608.732 L 105.113,-608.704 z
M -105.113,-608.704 L -105.337,-608.732 L -105.556,-608.788 L -105.766,-608.871 L -105.964,-608.98 L -106.147,-609.113
 L -106.312,-609.268 L -106.456,-609.442 L -106.577,-609.633 L -106.674,-609.837 L -106.743,-610.052 L -106.786,-610.274
 L -106.8,-610.5 L -106.786,-610.726 L -106.743,-610.948 L -106.674,-611.163 L -106.577,-611.367 L -106.456,-611.558
 L -106.312,-611.732 L -106.147,-611.887 L -105.964,-612.02 L -105.766,-612.129 L -105.556,-612.212 L -105.337,-612.268
 L -105.113,-612.296 L -104.887,-612.296 L -104.663,-612.268 L -104.444,-612.212 L -104.234,-612.129 L -104.036,-612.02
 L -103.853,-611.887 L -103.688,-611.732 L -103.544,-611.558 L -103.423,-611.367 L -103.326,-611.163 L -103.257,-610.948
 L -103.214,-610.726 L -103.2,-610.5 L -103.214,-610.274 L -103.257,-610.052 L -103.326,-609.837 L -103.423,-609.633
 L -103.544,-609.442 L -103.688,-609.268 L -103.853,-609.113 L -104.036,-608.98 L -104.234,-608.871 L -104.444,-608.788
 L -104.663,-608.732 L -104.887,-608.704 z
M -105.113,-383.704 L -105.337,-383.732 L -105.556,-383.788 L -105.766,-383.871 L -105.964,-383.98 L -106.147,-384.113
 L -106.312,-384.268 L -106.456,-384.442 L -106.577,-384.633 L -106.674,-384.837 L -106.743,-385.052 L -106.786,-385.274
 L -106.8,-385.5 L -106.786,-385.726 L -106.743,-385.948 L -106.674,-386.163 L -106.577,-386.367 L -106.456,-386.558
 L -106.312,-386.732 L -106.147,-386.887 L -105.964,-387.02 L -105.766,-387.129 L -105.556,-387.212 L -105.337,-387.268
 L -105.113,-387.296 L -104.887,-387.296 L -104.663,-387.268 L -104.444,-387.212 L -104.234,-387.129 L -104.036,-387.02
 L -103.853,-386.887 L -103.688,-386.732 L -103.544,-386.558 L -103.423,-386.367 L -103.326,-386.163 L -103.257,-385.948
 L -103.214,-385.726 L -103.2,-385.5 L -103.214,-385.274 L -103.257,-385.052 L -103.326,-384.837 L -103.423,-384.633
 L -103.544,-384.442 L -103.688,-384.268 L -103.853,-384.113 L -104.036,-383.98 L -104.234,-383.871 L -104.444,-383.788
 L -104.663,-383.732 L -104.887,-383.704 z
M 104.887,-383.704 L 104.663,-383.732 L 104.444,-383.788 L 104.234,-383.871 L 104.036,-383.98 L 103.853,-384.113
 L 103.688,-384.268 L 103.544,-384.442 L 103.423,-384.633 L 103.326,-384.837 L 103.257,-385.052 L 103.214,-385.274
 L 103.2,-385.5 L 103.214,-385.726 L 103.257,-385.948 L 103.326,-386.163 L 103.423,-386.367 L 103.544,-386.558
 L 103.688,-386.732 L 103.853,-386.887 L 104.036,-387.02 L 104.234,-387.129 L 104.444,-387.212 L 104.663,-387.268
 L 104.887,-387.296 L 105.113,-387.296 L 105.337,-387.268 L 105.556,-387.212 L 105.766,-387.129 L 105.964,-387.02
 L 106.147,-386.887 L 106.312,-386.732 L 106.456,-386.558 L 106.577,-386.367 L 106.674,-386.163 L 106.743,-385.948
 L 106.786,-385.726 L 106.8,-385.5 L 106.786,-385.274 L 106.743,-385.052 L 106.674,-384.837 L 106.577,-384.633
 L 106.456,-384.442 L 106.312,-384.268 L 106.147,-384.113 L 105.964,-383.98 L 105.766,-383.871 L 105.556,-383.788
 L 105.337,-383.732 L 105.113,-383.704 z
" stroke="black" fill="lightgray" stroke-width="0.5"/>
</svg>
