  0
SECTION
  2
BLOCKS
  0
ENDSEC
  0
SECTION
  2
ENTITIES
  0
LINE
  8
0
 10
108.437
 20
702.089
 11
109.045
 21
702.245
  0
LINE
  8
0
 10
109.045
 20
702.245
 11
109.629
 21
702.476
  0
LINE
  8
0
 10
109.629
 20
702.476
 11
110.179
 21
702.778
  0
LINE
  8
0
 10
110.179
 20
702.778
 11
110.687
 21
703.147
  0
LINE
  8
0
 10
110.687
 20
703.147
 11
111.145
 21
703.577
  0
LINE
  8
0
 10
111.145
 20
703.577
 11
111.545
 21
704.061
  0
LINE
  8
0
 10
111.545
 20
704.061
 11
111.882
 21
704.591
  0
LINE
  8
0
 10
111.882
 20
704.591
 11
112.149
 21
705.159
  0
LINE
  8
0
 10
112.149
 20
705.159
 11
112.343
 21
705.757
  0
LINE
  8
0
 10
112.343
 20
705.757
 11
112.461
 21
706.373
  0
LINE
  8
0
 10
112.461
 20
706.373
 11
112.5
 21
707
  0
LINE
  8
0
 10
112.5
 20
707
 11
112.5
 21
967
  0
LINE
  8
0
 10
112.5
 20
967
 11
112.461
 21
967.627
  0
LINE
  8
0
 10
112.461
 20
967.627
 11
112.343
 21
968.243
  0
LINE
  8
0
 10
112.343
 20
968.243
 11
112.149
 21
968.841
  0
LINE
  8
0
 10
112.149
 20
968.841
 11
111.882
 21
969.409
  0
LINE
  8
0
 10
111.882
 20
969.409
 11
111.545
 21
969.939
  0
LINE
  8
0
 10
111.545
 20
969.939
 11
111.145
 21
970.423
  0
LINE
  8
0
 10
111.145
 20
970.423
 11
110.687
 21
970.853
  0
LINE
  8
0
 10
110.687
 20
970.853
 11
110.179
 21
971.222
  0
LINE
  8
0
 10
110.179
 20
971.222
 11
109.629
 21
971.524
  0
LINE
  8
0
 10
109.629
 20
971.524
 11
109.045
 21
971.755
  0
LINE
  8
0
 10
109.045
 20
971.755
 11
108.437
 21
971.911
  0
LINE
  8
0
 10
108.437
 20
971.911
 11
107.814
 21
971.99
  0
LINE
  8
0
 10
107.814
 20
971.99
 11
-107.814
 21
971.99
  0
LINE
  8
0
 10
-107.814
 20
971.99
 11
-108.437
 21
971.911
  0
LINE
  8
0
 10
-108.437
 20
971.911
 11
-109.045
 21
971.755
  0
LINE
  8
0
 10
-109.045
 20
971.755
 11
-109.629
 21
971.524
  0
LINE
  8
0
 10
-109.629
 20
971.524
 11
-110.179
 21
971.222
  0
LINE
  8
0
 10
-110.179
 20
971.222
 11
-110.687
 21
970.853
  0
LINE
  8
0
 10
-110.687
 20
970.853
 11
-111.145
 21
970.423
  0
LINE
  8
0
 10
-111.145
 20
970.423
 11
-111.545
 21
969.939
  0
LINE
  8
0
 10
-111.545
 20
969.939
 11
-111.882
 21
969.409
  0
LINE
  8
0
 10
-111.882
 20
969.409
 11
-112.149
 21
968.841
  0
LINE
  8
0
 10
-112.149
 20
968.841
 11
-112.343
 21
968.243
  0
LINE
  8
0
 10
-112.343
 20
968.243
 11
-112.461
 21
967.627
  0
LINE
  8
0
 10
-112.461
 20
967.627
 11
-112.5
 21
967
  0
LINE
  8
0
 10
-112.5
 20
967
 11
-112.5
 21
707
  0
LINE
  8
0
 10
-112.5
 20
707
 11
-112.461
 21
706.373
  0
LINE
  8
0
 10
-112.461
 20
706.373
 11
-112.343
 21
705.757
  0
LINE
  8
0
 10
-112.343
 20
705.757
 11
-112.149
 21
705.159
  0
LINE
  8
0
 10
-112.149
 20
705.159
 11
-111.882
 21
704.591
  0
LINE
  8
0
 10
-111.882
 20
704.591
 11
-111.545
 21
704.061
  0
LINE
  8
0
 10
-111.545
 20
704.061
 11
-111.145
 21
703.577
  0
LINE
  8
0
 10
-111.145
 20
703.577
 11
-110.687
 21
703.147
  0
LINE
  8
0
 10
-110.687
 20
703.147
 11
-110.179
 21
702.778
  0
LINE
  8
0
 10
-110.179
 20
702.778
 11
-109.629
 21
702.476
  0
LINE
  8
0
 10
-109.629
 20
702.476
 11
-109.045
 21
702.245
  0
LINE
  8
0
 10
-109.045
 20
702.245
 11
-108.437
 21
702.089
  0
LINE
  8
0
 10
-108.437
 20
702.089
 11
-107.814
 21
702.01
  0
LINE
  8
0
 10
-107.814
 20
702.01
 11
107.814
 21
702.01
  0
LINE
  8
0
 10
107.814
 20
702.01
 11
108.437
 21
702.089
  0
LINE
  8
0
 10
-107.195
 20
704.393
 11
-107.583
 21
704.442
  0
LINE
  8
0
 10
-107.583
 20
704.442
 11
-107.962
 21
704.539
  0
LINE
  8
0
 10
-107.962
 20
704.539
 11
-108.325
 21
704.683
  0
LINE
  8
0
 10
-108.325
 20
704.683
 11
-108.668
 21
704.872
  0
LINE
  8
0
 10
-108.668
 20
704.872
 11
-108.984
 21
705.101
  0
LINE
  8
0
 10
-108.984
 20
705.101
 11
-109.269
 21
705.369
  0
LINE
  8
0
 10
-109.269
 20
705.369
 11
-109.518
 21
705.67
  0
LINE
  8
0
 10
-109.518
 20
705.67
 11
-109.728
 21
706
  0
LINE
  8
0
 10
-109.728
 20
706
 11
-109.894
 21
706.354
  0
LINE
  8
0
 10
-109.894
 20
706.354
 11
-110.015
 21
706.726
  0
LINE
  8
0
 10
-110.015
 20
706.726
 11
-110.088
 21
707.11
  0
LINE
  8
0
 10
-110.088
 20
707.11
 11
-110.113
 21
707.5
  0
LINE
  8
0
 10
-110.113
 20
707.5
 11
-110.113
 21
966.5
  0
LINE
  8
0
 10
-110.113
 20
966.5
 11
-110.088
 21
966.89
  0
LINE
  8
0
 10
-110.088
 20
966.89
 11
-110.015
 21
967.274
  0
LINE
  8
0
 10
-110.015
 20
967.274
 11
-109.894
 21
967.646
  0
LINE
  8
0
 10
-109.894
 20
967.646
 11
-109.728
 21
968
  0
LINE
  8
0
 10
-109.728
 20
968
 11
-109.518
 21
968.33
  0
LINE
  8
0
 10
-109.518
 20
968.33
 11
-109.269
 21
968.631
  0
LINE
  8
0
 10
-109.269
 20
968.631
 11
-108.984
 21
968.899
  0
LINE
  8
0
 10
-108.984
 20
968.899
 11
-108.668
 21
969.128
  0
LINE
  8
0
 10
-108.668
 20
969.128
 11
-108.325
 21
969.317
  0
LINE
  8
0
 10
-108.325
 20
969.317
 11
-107.962
 21
969.461
  0
LINE
  8
0
 10
-107.962
 20
969.461
 11
-107.583
 21
969.558
  0
LINE
  8
0
 10
-107.583
 20
969.558
 11
-107.195
 21
969.607
  0
LINE
  8
0
 10
-107.195
 20
969.607
 11
107.195
 21
969.607
  0
LINE
  8
0
 10
107.195
 20
969.607
 11
107.583
 21
969.558
  0
LINE
  8
0
 10
107.583
 20
969.558
 11
107.962
 21
969.461
  0
LINE
  8
0
 10
107.962
 20
969.461
 11
108.325
 21
969.317
  0
LINE
  8
0
 10
108.325
 20
969.317
 11
108.668
 21
969.128
  0
LINE
  8
0
 10
108.668
 20
969.128
 11
108.984
 21
968.899
  0
LINE
  8
0
 10
108.984
 20
968.899
 11
109.269
 21
968.631
  0
LINE
  8
0
 10
109.269
 20
968.631
 11
109.518
 21
968.33
  0
LINE
  8
0
 10
109.518
 20
968.33
 11
109.728
 21
968
  0
LINE
  8
0
 10
109.728
 20
968
 11
109.894
 21
967.646
  0
LINE
  8
0
 10
109.894
 20
967.646
 11
110.015
 21
967.274
  0
LINE
  8
0
 10
110.015
 20
967.274
 11
110.088
 21
966.89
  0
LINE
  8
0
 10
110.088
 20
966.89
 11
110.113
 21
966.5
  0
LINE
  8
0
 10
110.113
 20
966.5
 11
110.113
 21
707.5
  0
LINE
  8
0
 10
110.113
 20
707.5
 11
110.088
 21
707.11
  0
LINE
  8
0
 10
110.088
 20
707.11
 11
110.015
 21
706.726
  0
LINE
  8
0
 10
110.015
 20
706.726
 11
109.894
 21
706.354
  0
LINE
  8
0
 10
109.894
 20
706.354
 11
109.728
 21
706
  0
LINE
  8
0
 10
109.728
 20
706
 11
109.518
 21
705.67
  0
LINE
  8
0
 10
109.518
 20
705.67
 11
109.269
 21
705.369
  0
LINE
  8
0
 10
109.269
 20
705.369
 11
108.984
 21
705.101
  0
LINE
  8
0
 10
108.984
 20
705.101
 11
108.668
 21
704.872
  0
LINE
  8
0
 10
108.668
 20
704.872
 11
108.325
 21
704.683
  0
LINE
  8
0
 10
108.325
 20
704.683
 11
107.962
 21
704.539
  0
LINE
  8
0
 10
107.962
 20
704.539
 11
107.583
 21
704.442
  0
LINE
  8
0
 10
107.583
 20
704.442
 11
107.195
 21
704.393
  0
LINE
  8
0
 10
107.195
 20
704.393
 11
-107.195
 21
704.393
  0
LINE
  8
0
 10
108.437
 20
423.089
 11
109.045
 21
423.245
  0
LINE
  8
0
 10
109.045
 20
423.245
 11
109.629
 21
423.476
  0
LINE
  8
0
 10
109.629
 20
423.476
 11
110.179
 21
423.778
  0
LINE
  8
0
 10
110.179
 20
423.778
 11
110.687
 21
424.147
  0
LINE
  8
0
 10
110.687
 20
424.147
 11
111.145
 21
424.577
  0
LINE
  8
0
 10
111.145
 20
424.577
 11
111.545
 21
425.061
  0
LINE
  8
0
 10
111.545
 20
425.061
 11
111.882
 21
425.591
  0
LINE
  8
0
 10
111.882
 20
425.591
 11
112.149
 21
426.159
  0
LINE
  8
0
 10
112.149
 20
426.159
 11
112.343
 21
426.757
  0
LINE
  8
0
 10
112.343
 20
426.757
 11
112.461
 21
427.373
  0
LINE
  8
0
 10
112.461
 20
427.373
 11
112.5
 21
428
  0
LINE
  8
0
 10
112.5
 20
428
 11
112.5
 21
688
  0
LINE
  8
0
 10
112.5
 20
688
 11
112.461
 21
688.627
  0
LINE
  8
0
 10
112.461
 20
688.627
 11
112.343
 21
689.243
  0
LINE
  8
0
 10
112.343
 20
689.243
 11
112.149
 21
689.841
  0
LINE
  8
0
 10
112.149
 20
689.841
 11
111.882
 21
690.409
  0
LINE
  8
0
 10
111.882
 20
690.409
 11
111.545
 21
690.939
  0
LINE
  8
0
 10
111.545
 20
690.939
 11
111.145
 21
691.423
  0
LINE
  8
0
 10
111.145
 20
691.423
 11
110.687
 21
691.853
  0
LINE
  8
0
 10
110.687
 20
691.853
 11
110.179
 21
692.222
  0
LINE
  8
0
 10
110.179
 20
692.222
 11
109.629
 21
692.524
  0
LINE
  8
0
 10
109.629
 20
692.524
 11
109.045
 21
692.755
  0
LINE
  8
0
 10
109.045
 20
692.755
 11
108.437
 21
692.911
  0
LINE
  8
0
 10
108.437
 20
692.911
 11
107.814
 21
692.99
  0
LINE
  8
0
 10
107.814
 20
692.99
 11
-107.814
 21
692.99
  0
LINE
  8
0
 10
-107.814
 20
692.99
 11
-108.437
 21
692.911
  0
LINE
  8
0
 10
-108.437
 20
692.911
 11
-109.045
 21
692.755
  0
LINE
  8
0
 10
-109.045
 20
692.755
 11
-109.629
 21
692.524
  0
LINE
  8
0
 10
-109.629
 20
692.524
 11
-110.179
 21
692.222
  0
LINE
  8
0
 10
-110.179
 20
692.222
 11
-110.687
 21
691.853
  0
LINE
  8
0
 10
-110.687
 20
691.853
 11
-111.145
 21
691.423
  0
LINE
  8
0
 10
-111.145
 20
691.423
 11
-111.545
 21
690.939
  0
LINE
  8
0
 10
-111.545
 20
690.939
 11
-111.882
 21
690.409
  0
LINE
  8
0
 10
-111.882
 20
690.409
 11
-112.149
 21
689.841
  0
LINE
  8
0
 10
-112.149
 20
689.841
 11
-112.343
 21
689.243
  0
LINE
  8
0
 10
-112.343
 20
689.243
 11
-112.461
 21
688.627
  0
LINE
  8
0
 10
-112.461
 20
688.627
 11
-112.5
 21
688
  0
LINE
  8
0
 10
-112.5
 20
688
 11
-112.5
 21
428
  0
LINE
  8
0
 10
-112.5
 20
428
 11
-112.461
 21
427.373
  0
LINE
  8
0
 10
-112.461
 20
427.373
 11
-112.343
 21
426.757
  0
LINE
  8
0
 10
-112.343
 20
426.757
 11
-112.149
 21
426.159
  0
LINE
  8
0
 10
-112.149
 20
426.159
 11
-111.882
 21
425.591
  0
LINE
  8
0
 10
-111.882
 20
425.591
 11
-111.545
 21
425.061
  0
LINE
  8
0
 10
-111.545
 20
425.061
 11
-111.145
 21
424.577
  0
LINE
  8
0
 10
-111.145
 20
424.577
 11
-110.687
 21
424.147
  0
LINE
  8
0
 10
-110.687
 20
424.147
 11
-110.179
 21
423.778
  0
LINE
  8
0
 10
-110.179
 20
423.778
 11
-109.629
 21
423.476
  0
LINE
  8
0
 10
-109.629
 20
423.476
 11
-109.045
 21
423.245
  0
LINE
  8
0
 10
-109.045
 20
423.245
 11
-108.437
 21
423.089
  0
LINE
  8
0
 10
-108.437
 20
423.089
 11
-107.814
 21
423.01
  0
LINE
  8
0
 10
-107.814
 20
423.01
 11
107.814
 21
423.01
  0
LINE
  8
0
 10
107.814
 20
423.01
 11
108.437
 21
423.089
  0
LINE
  8
0
 10
104.866
 20
683.369
 11
104.6
 21
683.403
  0
LINE
  8
0
 10
104.6
 20
683.403
 11
104.34
 21
683.469
  0
LINE
  8
0
 10
104.34
 20
683.469
 11
104.091
 21
683.568
  0
LINE
  8
0
 10
104.091
 20
683.568
 11
103.856
 21
683.697
  0
LINE
  8
0
 10
103.856
 20
683.697
 11
103.639
 21
683.855
  0
LINE
  8
0
 10
103.639
 20
683.855
 11
103.443
 21
684.038
  0
LINE
  8
0
 10
103.443
 20
684.038
 11
103.273
 21
684.245
  0
LINE
  8
0
 10
103.273
 20
684.245
 11
103.129
 21
684.471
  0
LINE
  8
0
 10
103.129
 20
684.471
 11
103.015
 21
684.714
  0
LINE
  8
0
 10
103.015
 20
684.714
 11
102.932
 21
684.969
  0
LINE
  8
0
 10
102.932
 20
684.969
 11
102.882
 21
685.232
  0
LINE
  8
0
 10
102.882
 20
685.232
 11
102.865
 21
685.5
  0
LINE
  8
0
 10
102.865
 20
685.5
 11
102.882
 21
685.768
  0
LINE
  8
0
 10
102.882
 20
685.768
 11
102.932
 21
686.031
  0
LINE
  8
0
 10
102.932
 20
686.031
 11
103.015
 21
686.286
  0
LINE
  8
0
 10
103.015
 20
686.286
 11
103.129
 21
686.529
  0
LINE
  8
0
 10
103.129
 20
686.529
 11
103.273
 21
686.755
  0
LINE
  8
0
 10
103.273
 20
686.755
 11
103.443
 21
686.962
  0
LINE
  8
0
 10
103.443
 20
686.962
 11
103.639
 21
687.145
  0
LINE
  8
0
 10
103.639
 20
687.145
 11
103.856
 21
687.303
  0
LINE
  8
0
 10
103.856
 20
687.303
 11
104.091
 21
687.432
  0
LINE
  8
0
 10
104.091
 20
687.432
 11
104.34
 21
687.531
  0
LINE
  8
0
 10
104.34
 20
687.531
 11
104.6
 21
687.597
  0
LINE
  8
0
 10
104.6
 20
687.597
 11
104.866
 21
687.631
  0
LINE
  8
0
 10
104.866
 20
687.631
 11
105.134
 21
687.631
  0
LINE
  8
0
 10
105.134
 20
687.631
 11
105.4
 21
687.597
  0
LINE
  8
0
 10
105.4
 20
687.597
 11
105.66
 21
687.531
  0
LINE
  8
0
 10
105.66
 20
687.531
 11
105.909
 21
687.432
  0
LINE
  8
0
 10
105.909
 20
687.432
 11
106.144
 21
687.303
  0
LINE
  8
0
 10
106.144
 20
687.303
 11
106.361
 21
687.145
  0
LINE
  8
0
 10
106.361
 20
687.145
 11
106.557
 21
686.962
  0
LINE
  8
0
 10
106.557
 20
686.962
 11
106.727
 21
686.755
  0
LINE
  8
0
 10
106.727
 20
686.755
 11
106.871
 21
686.529
  0
LINE
  8
0
 10
106.871
 20
686.529
 11
106.985
 21
686.286
  0
LINE
  8
0
 10
106.985
 20
686.286
 11
107.068
 21
686.031
  0
LINE
  8
0
 10
107.068
 20
686.031
 11
107.118
 21
685.768
  0
LINE
  8
0
 10
107.118
 20
685.768
 11
107.135
 21
685.5
  0
LINE
  8
0
 10
107.135
 20
685.5
 11
107.118
 21
685.232
  0
LINE
  8
0
 10
107.118
 20
685.232
 11
107.068
 21
684.969
  0
LINE
  8
0
 10
107.068
 20
684.969
 11
106.985
 21
684.714
  0
LINE
  8
0
 10
106.985
 20
684.714
 11
106.871
 21
684.471
  0
LINE
  8
0
 10
106.871
 20
684.471
 11
106.727
 21
684.245
  0
LINE
  8
0
 10
106.727
 20
684.245
 11
106.557
 21
684.038
  0
LINE
  8
0
 10
106.557
 20
684.038
 11
106.361
 21
683.855
  0
LINE
  8
0
 10
106.361
 20
683.855
 11
106.144
 21
683.697
  0
LINE
  8
0
 10
106.144
 20
683.697
 11
105.909
 21
683.568
  0
LINE
  8
0
 10
105.909
 20
683.568
 11
105.66
 21
683.469
  0
LINE
  8
0
 10
105.66
 20
683.469
 11
105.4
 21
683.403
  0
LINE
  8
0
 10
105.4
 20
683.403
 11
105.134
 21
683.369
  0
LINE
  8
0
 10
105.134
 20
683.369
 11
104.866
 21
683.369
  0
LINE
  8
0
 10
-105.134
 20
683.369
 11
-105.4
 21
683.403
  0
LINE
  8
0
 10
-105.4
 20
683.403
 11
-105.66
 21
683.469
  0
LINE
  8
0
 10
-105.66
 20
683.469
 11
-105.909
 21
683.568
  0
LINE
  8
0
 10
-105.909
 20
683.568
 11
-106.144
 21
683.697
  0
LINE
  8
0
 10
-106.144
 20
683.697
 11
-106.361
 21
683.855
  0
LINE
  8
0
 10
-106.361
 20
683.855
 11
-106.557
 21
684.038
  0
LINE
  8
0
 10
-106.557
 20
684.038
 11
-106.727
 21
684.245
  0
LINE
  8
0
 10
-106.727
 20
684.245
 11
-106.871
 21
684.471
  0
LINE
  8
0
 10
-106.871
 20
684.471
 11
-106.985
 21
684.714
  0
LINE
  8
0
 10
-106.985
 20
684.714
 11
-107.068
 21
684.969
  0
LINE
  8
0
 10
-107.068
 20
684.969
 11
-107.118
 21
685.232
  0
LINE
  8
0
 10
-107.118
 20
685.232
 11
-107.135
 21
685.5
  0
LINE
  8
0
 10
-107.135
 20
685.5
 11
-107.118
 21
685.768
  0
LINE
  8
0
 10
-107.118
 20
685.768
 11
-107.068
 21
686.031
  0
LINE
  8
0
 10
-107.068
 20
686.031
 11
-106.985
 21
686.286
  0
LINE
  8
0
 10
-106.985
 20
686.286
 11
-106.871
 21
686.529
  0
LINE
  8
0
 10
-106.871
 20
686.529
 11
-106.727
 21
686.755
  0
LINE
  8
0
 10
-106.727
 20
686.755
 11
-106.557
 21
686.962
  0
LINE
  8
0
 10
-106.557
 20
686.962
 11
-106.361
 21
687.145
  0
LINE
  8
0
 10
-106.361
 20
687.145
 11
-106.144
 21
687.303
  0
LINE
  8
0
 10
-106.144
 20
687.303
 11
-105.909
 21
687.432
  0
LINE
  8
0
 10
-105.909
 20
687.432
 11
-105.66
 21
687.531
  0
LINE
  8
0
 10
-105.66
 20
687.531
 11
-105.4
 21
687.597
  0
LINE
  8
0
 10
-105.4
 20
687.597
 11
-105.134
 21
687.631
  0
LINE
  8
0
 10
-105.134
 20
687.631
 11
-104.866
 21
687.631
  0
LINE
  8
0
 10
-104.866
 20
687.631
 11
-104.6
 21
687.597
  0
LINE
  8
0
 10
-104.6
 20
687.597
 11
-104.34
 21
687.531
  0
LINE
  8
0
 10
-104.34
 20
687.531
 11
-104.091
 21
687.432
  0
LINE
  8
0
 10
-104.091
 20
687.432
 11
-103.856
 21
687.303
  0
LINE
  8
0
 10
-103.856
 20
687.303
 11
-103.639
 21
687.145
  0
LINE
  8
0
 10
-103.639
 20
687.145
 11
-103.443
 21
686.962
  0
LINE
  8
0
 10
-103.443
 20
686.962
 11
-103.273
 21
686.755
  0
LINE
  8
0
 10
-103.273
 20
686.755
 11
-103.129
 21
686.529
  0
LINE
  8
0
 10
-103.129
 20
686.529
 11
-103.015
 21
686.286
  0
LINE
  8
0
 10
-103.015
 20
686.286
 11
-102.932
 21
686.031
  0
LINE
  8
0
 10
-102.932
 20
686.031
 11
-102.882
 21
685.768
  0
LINE
  8
0
 10
-102.882
 20
685.768
 11
-102.865
 21
685.5
  0
LINE
  8
0
 10
-102.865
 20
685.5
 11
-102.882
 21
685.232
  0
LINE
  8
0
 10
-102.882
 20
685.232
 11
-102.932
 21
684.969
  0
LINE
  8
0
 10
-102.932
 20
684.969
 11
-103.015
 21
684.714
  0
LINE
  8
0
 10
-103.015
 20
684.714
 11
-103.129
 21
684.471
  0
LINE
  8
0
 10
-103.129
 20
684.471
 11
-103.273
 21
684.245
  0
LINE
  8
0
 10
-103.273
 20
684.245
 11
-103.443
 21
684.038
  0
LINE
  8
0
 10
-103.443
 20
684.038
 11
-103.639
 21
683.855
  0
LINE
  8
0
 10
-103.639
 20
683.855
 11
-103.856
 21
683.697
  0
LINE
  8
0
 10
-103.856
 20
683.697
 11
-104.091
 21
683.568
  0
LINE
  8
0
 10
-104.091
 20
683.568
 11
-104.34
 21
683.469
  0
LINE
  8
0
 10
-104.34
 20
683.469
 11
-104.6
 21
683.403
  0
LINE
  8
0
 10
-104.6
 20
683.403
 11
-104.866
 21
683.369
  0
LINE
  8
0
 10
-104.866
 20
683.369
 11
-105.134
 21
683.369
  0
LINE
  8
0
 10
104.866
 20
428.369
 11
104.6
 21
428.403
  0
LINE
  8
0
 10
104.6
 20
428.403
 11
104.34
 21
428.469
  0
LINE
  8
0
 10
104.34
 20
428.469
 11
104.091
 21
428.568
  0
LINE
  8
0
 10
104.091
 20
428.568
 11
103.856
 21
428.697
  0
LINE
  8
0
 10
103.856
 20
428.697
 11
103.639
 21
428.855
  0
LINE
  8
0
 10
103.639
 20
428.855
 11
103.443
 21
429.038
  0
LINE
  8
0
 10
103.443
 20
429.038
 11
103.273
 21
429.245
  0
LINE
  8
0
 10
103.273
 20
429.245
 11
103.129
 21
429.471
  0
LINE
  8
0
 10
103.129
 20
429.471
 11
103.015
 21
429.714
  0
LINE
  8
0
 10
103.015
 20
429.714
 11
102.932
 21
429.969
  0
LINE
  8
0
 10
102.932
 20
429.969
 11
102.882
 21
430.232
  0
LINE
  8
0
 10
102.882
 20
430.232
 11
102.865
 21
430.5
  0
LINE
  8
0
 10
102.865
 20
430.5
 11
102.882
 21
430.768
  0
LINE
  8
0
 10
102.882
 20
430.768
 11
102.932
 21
431.031
  0
LINE
  8
0
 10
102.932
 20
431.031
 11
103.015
 21
431.286
  0
LINE
  8
0
 10
103.015
 20
431.286
 11
103.129
 21
431.529
  0
LINE
  8
0
 10
103.129
 20
431.529
 11
103.273
 21
431.755
  0
LINE
  8
0
 10
103.273
 20
431.755
 11
103.443
 21
431.962
  0
LINE
  8
0
 10
103.443
 20
431.962
 11
103.639
 21
432.145
  0
LINE
  8
0
 10
103.639
 20
432.145
 11
103.856
 21
432.303
  0
LINE
  8
0
 10
103.856
 20
432.303
 11
104.091
 21
432.432
  0
LINE
  8
0
 10
104.091
 20
432.432
 11
104.34
 21
432.531
  0
LINE
  8
0
 10
104.34
 20
432.531
 11
104.6
 21
432.597
  0
LINE
  8
0
 10
104.6
 20
432.597
 11
104.866
 21
432.631
  0
LINE
  8
0
 10
104.866
 20
432.631
 11
105.134
 21
432.631
  0
LINE
  8
0
 10
105.134
 20
432.631
 11
105.4
 21
432.597
  0
LINE
  8
0
 10
105.4
 20
432.597
 11
105.66
 21
432.531
  0
LINE
  8
0
 10
105.66
 20
432.531
 11
105.909
 21
432.432
  0
LINE
  8
0
 10
105.909
 20
432.432
 11
106.144
 21
432.303
  0
LINE
  8
0
 10
106.144
 20
432.303
 11
106.361
 21
432.145
  0
LINE
  8
0
 10
106.361
 20
432.145
 11
106.557
 21
431.962
  0
LINE
  8
0
 10
106.557
 20
431.962
 11
106.727
 21
431.755
  0
LINE
  8
0
 10
106.727
 20
431.755
 11
106.871
 21
431.529
  0
LINE
  8
0
 10
106.871
 20
431.529
 11
106.985
 21
431.286
  0
LINE
  8
0
 10
106.985
 20
431.286
 11
107.068
 21
431.031
  0
LINE
  8
0
 10
107.068
 20
431.031
 11
107.118
 21
430.768
  0
LINE
  8
0
 10
107.118
 20
430.768
 11
107.135
 21
430.5
  0
LINE
  8
0
 10
107.135
 20
430.5
 11
107.118
 21
430.232
  0
LINE
  8
0
 10
107.118
 20
430.232
 11
107.068
 21
429.969
  0
LINE
  8
0
 10
107.068
 20
429.969
 11
106.985
 21
429.714
  0
LINE
  8
0
 10
106.985
 20
429.714
 11
106.871
 21
429.471
  0
LINE
  8
0
 10
106.871
 20
429.471
 11
106.727
 21
429.245
  0
LINE
  8
0
 10
106.727
 20
429.245
 11
106.557
 21
429.038
  0
LINE
  8
0
 10
106.557
 20
429.038
 11
106.361
 21
428.855
  0
LINE
  8
0
 10
106.361
 20
428.855
 11
106.144
 21
428.697
  0
LINE
  8
0
 10
106.144
 20
428.697
 11
105.909
 21
428.568
  0
LINE
  8
0
 10
105.909
 20
428.568
 11
105.66
 21
428.469
  0
LINE
  8
0
 10
105.66
 20
428.469
 11
105.4
 21
428.403
  0
LINE
  8
0
 10
105.4
 20
428.403
 11
105.134
 21
428.369
  0
LINE
  8
0
 10
105.134
 20
428.369
 11
104.866
 21
428.369
  0
LINE
  8
0
 10
-105.134
 20
428.369
 11
-105.4
 21
428.403
  0
LINE
  8
0
 10
-105.4
 20
428.403
 11
-105.66
 21
428.469
  0
LINE
  8
0
 10
-105.66
 20
428.469
 11
-105.909
 21
428.568
  0
LINE
  8
0
 10
-105.909
 20
428.568
 11
-106.144
 21
428.697
  0
LINE
  8
0
 10
-106.144
 20
428.697
 11
-106.361
 21
428.855
  0
LINE
  8
0
 10
-106.361
 20
428.855
 11
-106.557
 21
429.038
  0
LINE
  8
0
 10
-106.557
 20
429.038
 11
-106.727
 21
429.245
  0
LINE
  8
0
 10
-106.727
 20
429.245
 11
-106.871
 21
429.471
  0
LINE
  8
0
 10
-106.871
 20
429.471
 11
-106.985
 21
429.714
  0
LINE
  8
0
 10
-106.985
 20
429.714
 11
-107.068
 21
429.969
  0
LINE
  8
0
 10
-107.068
 20
429.969
 11
-107.118
 21
430.232
  0
LINE
  8
0
 10
-107.118
 20
430.232
 11
-107.135
 21
430.5
  0
LINE
  8
0
 10
-107.135
 20
430.5
 11
-107.118
 21
430.768
  0
LINE
  8
0
 10
-107.118
 20
430.768
 11
-107.068
 21
431.031
  0
LINE
  8
0
 10
-107.068
 20
431.031
 11
-106.985
 21
431.286
  0
LINE
  8
0
 10
-106.985
 20
431.286
 11
-106.871
 21
431.529
  0
LINE
  8
0
 10
-106.871
 20
431.529
 11
-106.727
 21
431.755
  0
LINE
  8
0
 10
-106.727
 20
431.755
 11
-106.557
 21
431.962
  0
LINE
  8
0
 10
-106.557
 20
431.962
 11
-106.361
 21
432.145
  0
LINE
  8
0
 10
-106.361
 20
432.145
 11
-106.144
 21
432.303
  0
LINE
  8
0
 10
-106.144
 20
432.303
 11
-105.909
 21
432.432
  0
LINE
  8
0
 10
-105.909
 20
432.432
 11
-105.66
 21
432.531
  0
LINE
  8
0
 10
-105.66
 20
432.531
 11
-105.4
 21
432.597
  0
LINE
  8
0
 10
-105.4
 20
432.597
 11
-105.134
 21
432.631
  0
LINE
  8
0
 10
-105.134
 20
432.631
 11
-104.866
 21
432.631
  0
LINE
  8
0
 10
-104.866
 20
432.631
 11
-104.6
 21
432.597
  0
LINE
  8
0
 10
-104.6
 20
432.597
 11
-104.34
 21
432.531
  0
LINE
  8
0
 10
-104.34
 20
432.531
 11
-104.091
 21
432.432
  0
LINE
  8
0
 10
-104.091
 20
432.432
 11
-103.856
 21
432.303
  0
LINE
  8
0
 10
-103.856
 20
432.303
 11
-103.639
 21
432.145
  0
LINE
  8
0
 10
-103.639
 20
432.145
 11
-103.443
 21
431.962
  0
LINE
  8
0
 10
-103.443
 20
431.962
 11
-103.273
 21
431.755
  0
LINE
  8
0
 10
-103.273
 20
431.755
 11
-103.129
 21
431.529
  0
LINE
  8
0
 10
-103.129
 20
431.529
 11
-103.015
 21
431.286
  0
LINE
  8
0
 10
-103.015
 20
431.286
 11
-102.932
 21
431.031
  0
LINE
  8
0
 10
-102.932
 20
431.031
 11
-102.882
 21
430.768
  0
LINE
  8
0
 10
-102.882
 20
430.768
 11
-102.865
 21
430.5
  0
LINE
  8
0
 10
-102.865
 20
430.5
 11
-102.882
 21
430.232
  0
LINE
  8
0
 10
-102.882
 20
430.232
 11
-102.932
 21
429.969
  0
LINE
  8
0
 10
-102.932
 20
429.969
 11
-103.015
 21
429.714
  0
LINE
  8
0
 10
-103.015
 20
429.714
 11
-103.129
 21
429.471
  0
LINE
  8
0
 10
-103.129
 20
429.471
 11
-103.273
 21
429.245
  0
LINE
  8
0
 10
-103.273
 20
429.245
 11
-103.443
 21
429.038
  0
LINE
  8
0
 10
-103.443
 20
429.038
 11
-103.639
 21
428.855
  0
LINE
  8
0
 10
-103.639
 20
428.855
 11
-103.856
 21
428.697
  0
LINE
  8
0
 10
-103.856
 20
428.697
 11
-104.091
 21
428.568
  0
LINE
  8
0
 10
-104.091
 20
428.568
 11
-104.34
 21
428.469
  0
LINE
  8
0
 10
-104.34
 20
428.469
 11
-104.6
 21
428.403
  0
LINE
  8
0
 10
-104.6
 20
428.403
 11
-104.866
 21
428.369
  0
LINE
  8
0
 10
-104.866
 20
428.369
 11
-105.134
 21
428.369
  0
ENDSEC
  0
SECTION
  2
OBJECTS
  0
DICTIONARY
  0
ENDSEC
  0
EOF
