<?xml version="1.0" standalone="no"?>
<!DOCTYPE svg PUBLIC "-//W3C//DTD SVG 1.1//EN" "http://www.w3.org/Graphics/SVG/1.1/DTD/svg11.dtd">
<svg width="226mm" height="549mm" viewBox="-113 -972 226 549" xmlns="http://www.w3.org/2000/svg" version="1.1">
<title>OpenSCAD Model</title>
<path d="
M 108.437,-702.089 L 109.045,-702.245 L 109.629,-702.476 L 110.179,-702.778 L 110.687,-703.147 L 111.145,-703.577
 L 111.545,-704.061 L 111.882,-704.591 L 112.149,-705.159 L 112.343,-705.757 L 112.461,-706.373 L 112.5,-707
 L 112.5,-967 L 112.461,-967.627 L 112.343,-968.243 L 112.149,-968.841 L 111.882,-969.409 L 111.545,-969.939
 L 111.145,-970.423 L 110.687,-970.853 L 110.179,-971.222 L 109.629,-971.524 L 109.045,-971.755 L 108.437,-971.911
 L 107.814,-971.99 L -107.814,-971.99 L -108.437,-971.911 L -109.045,-971.755 L -109.629,-971.524 L -110.179,-971.222
 L -110.687,-970.853 L -111.145,-970.423 L -111.545,-969.939 L -111.882,-969.409 L -112.149,-968.841 L -112.343,-968.243
 L -112.461,-967.627 L -112.5,-967 L -112.5,-707 L -112.461,-706.373 L -112.343,-705.757 L -112.149,-705.159
 L -111.882,-704.591 L -111.545,-704.061 L -111.145,-703.577 L -110.687,-703.147 L -110.179,-702.778 L -109.629,-702.476
 L -109.045,-702.245 L -108.437,-702.089 L -107.814,-702.01 L 107.814,-702.01 z
M -107.195,-704.393 L -107.583,-704.442 L -107.962,-704.539 L -108.325,-704.683 L -108.668,-704.872 L -108.984,-705.101
 L -109.269,-705.369 L -109.518,-705.67 L -109.728,-706 L -109.894,-706.354 L -110.015,-706.726 L -110.088,-707.11
 L -110.113,-707.5 L -110.113,-966.5 L -110.088,-966.89 L -110.015,-967.274 L -109.894,-967.646 L -109.728,-968
 L -109.518,-968.33 L -109.269,-968.631 L -108.984,-968.899 L -108.668,-969.128 L -108.325,-969.317 L -107.962,-969.461
 L -107.583,-969.558 L -107.195,-969.607 L 107.195,-969.607 L 107.583,-969.558 L 107.962,-969.461 L 108.325,-969.317
 L 108.668,-969.128 L 108.984,-968.899 L 109.269,-968.631 L 109.518,-968.33 L 109.728,-968 L 109.894,-967.646
 L 110.015,-967.274 L 110.088,-966.89 L 110.113,-966.5 L 110.113,-707.5 L 110.088,-707.11 L 110.015,-706.726
 L 109.894,-706.354 L 109.728,-706 L 109.518,-705.67 L 109.269,-705.369 L 108.984,-705.101 L 108.668,-704.872
 L 108.325,-704.683 L 107.962,-704.539 L 107.583,-704.442 L 107.195,-704.393 z
M 108.437,-423.089 L 109.045,-423.245 L 109.629,-423.476 L 110.179,-423.778 L 110.687,-424.147 L 111.145,-424.577
 L 111.545,-425.061 L 111.882,-425.591 L 112.149,-426.159 L 112.343,-426.757 L 112.461,-427.373 L 112.5,-428
 L 112.5,-688 L 112.461,-688.627 L 112.343,-689.243 L 112.149,-689.841 L 111.882,-690.409 L 111.545,-690.939
 L 111.145,-691.423 L 110.687,-691.853 L 110.179,-692.222 L 109.629,-692.524 L 109.045,-692.755 L 108.437,-692.911
 L 107.814,-692.99 L -107.814,-692.99 L -108.437,-692.911 L -109.045,-692.755 L -109.629,-692.524 L -110.179,-692.222
 L -110.687,-691.853 L -111.145,-691.423 L -111.545,-690.939 L -111.882,-690.409 L -112.149,-689.841 L -112.343,-689.243
 L -112.461,-688.627 L -112.5,-688 L -112.5,-428 L -112.461,-427.373 L -112.343,-426.757 L -112.149,-426.159
 L -111.882,-425.591 L -111.545,-425.061 L -111.145,-424.577 L -110.687,-424.147 L -110.179,-423.778 L -109.629,-423.476
 L -109.045,-423.245 L -108.437,-423.089 L -107.814,-423.01 L 107.814,-423.01 z
M 104.866,-683.369 L 104.6,-683.403 L 104.34,-683.469 L 104.091,-683.568 L 103.856,-683.697 L 103.639,-683.855
 L 103.443,-684.038 L 103.273,-684.245 L 103.129,-684.471 L 103.015,-684.714 L 102.932,-684.969 L 102.882,-685.232
 L 102.865,-685.5 L 102.882,-685.768 L 102.932,-686.031 L 103.015,-686.286 L 103.129,-686.529 L 103.273,-686.755
 L 103.443,-686.962 L 103.639,-687.145 L 103.856,-687.303 L 104.091,-687.432 L 104.34,-687.531 L 104.6,-687.597
 L 104.866,-687.631 L 105.134,-687.631 L 105.4,-687.597 L 105.66,-687.531 L 105.909,-687.432 L 106.144,-687.303
 L 106.361,-687.145 L 106.557,-686.962 L 106.727,-686.755 L 106.871,-686.529 L 106.985,-686.286 L 107.068,-686.031
 L 107.118,-685.768 L 107.135,-685.5 L 107.118,-685.232 L 107.068,-684.969 L 106.985,-684.714 L 106.871,-684.471
 L 106.727,-684.245 L 106.557,-684.038 L 106.361,-683.855 L 106.144,-683.697 L 105.909,-683.568 L 105.66,-683.469
 L 105.4,-683.403 L 105.134,-683.369 z
M -105.134,-683.369 L -105.4,-683.403 L -105.66,-683.469 L -105.909,-683.568 L -106.144,-683.697 L -106.361,-683.855
 L -106.557,-684.038 L -106.727,-684.245 L -106.871,-684.471 L -106.985,-684.714 L -107.068,-684.969 L -107.118,-685.232
 L -107.135,-685.5 L -107.118,-685.768 L -107.068,-686.031 L -106.985,-686.286 L -106.871,-686.529 L -106.727,-686.755
 L -106.557,-686.962 L -106.361,-687.145 L -106.144,-687.303 L -105.909,-687.432 L -105.66,-687.531 L -105.4,-687.597
 L -105.134,-687.631 L -104.866,-687.631 L -104.6,-687.597 L -104.34,-687.531 L -104.091,-687.432 L -103.856,-687.303
 L -103.639,-687.145 L -103.443,-686.962 L -103.273,-686.755 L -103.129,-686.529 L -103.015,-686.286 L -102.932,-686.031
 L -102.882,-685.768 L -102.865,-685.5 L -102.882,-685.232 L -102.932,-684.969 L -103.015,-684.714 L -103.129,-684.471
 L -103.273,-684.245 L -103.443,-684.038 L -103.639,-683.855 L -103.856,-683.697 L -104.091,-683.568 L -104.34,-683.469
 L -104.6,-683.403 L -104.866,-683.369 z
M 104.866,-428.369 L 104.6,-428.403 L 104.34,-428.469 L 104.091,-428.568 L 103.856,-428.697 L 103.639,-428.855
 L 103.443,-429.038 L 103.273,-429.245 L 103.129,-429.471 L 103.015,-429.714 L 102.932,-429.969 L 102.882,-430.232
 L 102.865,-430.5 L 102.882,-430.768 L 102.932,-431.031 L 103.015,-431.286 L 103.129,-431.529 L 103.273,-431.755
 L 103.443,-431.962 L 103.639,-432.145 L 103.856,-432.303 L 104.091,-432.432 L 104.34,-432.531 L 104.6,-432.597
 L 104.866,-432.631 L 105.134,-432.631 L 105.4,-432.597 L 105.66,-432.531 L 105.909,-432.432 L 106.144,-432.303
 L 106.361,-432.145 L 106.557,-431.962 L 106.727,-431.755 L 106.871,-431.529 L 106.985,-431.286 L 107.068,-431.031
 L 107.118,-430.768 L 107.135,-430.5 L 107.118,-430.232 L 107.068,-429.969 L 106.985,-429.714 L 106.871,-429.471
 L 106.727,-429.245 L 106.557,-429.038 L 106.361,-428.855 L 106.144,-428.697 L 105.909,-428.568 L 105.66,-428.469
 L 105.4,-428.403 L 105.134,-428.369 z
M -105.134,-428.369 L -105.4,-428.403 L -105.66,-428.469 L -105.909,-428.568 L -106.144,-428.697 L -106.361,-428.855
 L -106.557,-429.038 L -106.727,-429.245 L -106.871,-429.471 L -106.985,-429.714 L -107.068,-429.969 L -107.118,-430.232
 L -107.135,-430.5 L -107.118,-430.768 L -107.068,-431.031 L -106.985,-431.286 L -106.871,-431.529 L -106.727,-431.755
 L -106.557,-431.962 L -106.361,-432.145 L -106.144,-432.303 L -105.909,-432.432 L -105.66,-432.531 L -105.4,-432.597
 L -105.134,-432.631 L -104.866,-432.631 L -104.6,-432.597 L -104.34,-432.531 L -104.091,-432.432 L -103.856,-432.303
 L -103.639,-432.145 L -103.443,-431.962 L -103.273,-431.755 L -103.129,-431.529 L -103.015,-431.286 L -102.932,-431.031
 L -102.882,-430.768 L -102.865,-430.5 L -102.882,-430.232 L -102.932,-429.969 L -103.015,-429.714 L -103.129,-429.471
 L -103.273,-429.245 L -103.443,-429.038 L -103.639,-428.855 L -103.856,-428.697 L -104.091,-428.568 L -104.34,-428.469
 L -104.6,-428.403 L -104.866,-428.369 z
" stroke="black" fill="lightgray" stroke-width="0.5"/>
</svg>
