<?xml version="1.0" standalone="no"?>
<!DOCTYPE svg PUBLIC "-//W3C//DTD SVG 1.1//EN" "http://www.w3.org/Graphics/SVG/1.1/DTD/svg11.dtd">
<svg width="270mm" height="489mm" viewBox="-135 -618 270 489" xmlns="http://www.w3.org/2000/svg" version="1.1">
<title>OpenSCAD Model</title>
<path d="
M 130.937,-378.089 L 131.545,-378.245 L 132.129,-378.476 L 132.679,-378.778 L 133.187,-379.147 L 133.645,-379.577
 L 134.045,-380.061 L 134.382,-380.591 L 134.649,-381.159 L 134.843,-381.757 L 134.961,-382.373 L 135,-383
 L 135,-613 L 134.961,-613.627 L 134.843,-614.243 L 134.649,-614.841 L 134.382,-615.409 L 134.045,-615.939
 L 133.645,-616.423 L 133.187,-616.853 L 132.679,-617.222 L 132.129,-617.524 L 131.545,-617.755 L 130.937,-617.911
 L 130.314,-617.99 L -130.314,-617.99 L -130.937,-617.911 L -131.545,-617.755 L -132.129,-617.524 L -132.679,-617.222
 L -133.187,-616.853 L -133.645,-616.423 L -134.045,-615.939 L -134.382,-615.409 L -134.649,-614.841 L -134.843,-614.243
 L -134.961,-613.627 L -135,-613 L -135,-383 L -134.961,-382.373 L -134.843,-381.757 L -134.649,-381.159
 L -134.382,-380.591 L -134.045,-380.061 L -133.645,-379.577 L -133.187,-379.147 L -132.679,-378.778 L -132.129,-378.476
 L -131.545,-378.245 L -130.937,-378.089 L -130.314,-378.01 L 130.314,-378.01 z
M -129.993,-379.388 L -130.475,-379.449 L -130.946,-379.57 L -131.398,-379.749 L -131.823,-379.983 L -132.216,-380.269
 L -132.571,-380.601 L -132.88,-380.976 L -133.141,-381.386 L -133.348,-381.826 L -133.498,-382.288 L -133.589,-382.765
 L -133.619,-383.25 L -133.619,-612.75 L -133.589,-613.235 L -133.498,-613.712 L -133.348,-614.174 L -133.141,-614.614
 L -132.88,-615.024 L -132.571,-615.399 L -132.216,-615.731 L -131.823,-616.017 L -131.398,-616.251 L -130.946,-616.43
 L -130.475,-616.551 L -129.993,-616.612 L 129.993,-616.612 L 130.475,-616.551 L 130.946,-616.43 L 131.398,-616.251
 L 131.823,-616.017 L 132.216,-615.731 L 132.571,-615.399 L 132.88,-615.024 L 133.141,-614.614 L 133.348,-614.174
 L 133.498,-613.712 L 133.589,-613.235 L 133.619,-612.75 L 133.619,-383.25 L 133.589,-382.765 L 133.498,-382.288
 L 133.348,-381.826 L 133.141,-381.386 L 132.88,-380.976 L 132.571,-380.601 L 132.216,-380.269 L 131.823,-379.983
 L 131.398,-379.749 L 130.946,-379.57 L 130.475,-379.449 L 129.993,-379.388 z
M 130.937,-129.089 L 131.545,-129.245 L 132.129,-129.476 L 132.679,-129.778 L 133.187,-130.147 L 133.645,-130.577
 L 134.045,-131.061 L 134.382,-131.591 L 134.649,-132.159 L 134.843,-132.757 L 134.961,-133.373 L 135,-134
 L 135,-364 L 134.961,-364.627 L 134.843,-365.243 L 134.649,-365.841 L 134.382,-366.409 L 134.045,-366.939
 L 133.645,-367.423 L 133.187,-367.853 L 132.679,-368.222 L 132.129,-368.524 L 131.545,-368.755 L 130.937,-368.911
 L 130.314,-368.99 L -130.314,-368.99 L -130.937,-368.911 L -131.545,-368.755 L -132.129,-368.524 L -132.679,-368.222
 L -133.187,-367.853 L -133.645,-367.423 L -134.045,-366.939 L -134.382,-366.409 L -134.649,-365.841 L -134.843,-365.243
 L -134.961,-364.627 L -135,-364 L -135,-134 L -134.961,-133.373 L -134.843,-132.757 L -134.649,-132.159
 L -134.382,-131.591 L -134.045,-131.061 L -133.645,-130.577 L -133.187,-130.147 L -132.679,-129.778 L -132.129,-129.476
 L -131.545,-129.245 L -130.937,-129.089 L -130.314,-129.01 L 130.314,-129.01 z
M 127.387,-359.704 L 127.163,-359.732 L 126.944,-359.788 L 126.734,-359.871 L 126.536,-359.98 L 126.353,-360.113
 L 126.188,-360.268 L 126.044,-360.442 L 125.923,-360.633 L 125.826,-360.837 L 125.757,-361.052 L 125.714,-361.274
 L 125.7,-361.5 L 125.714,-361.726 L 125.757,-361.948 L 125.826,-362.163 L 125.923,-362.367 L 126.044,-362.558
 L 126.188,-362.732 L 126.353,-362.887 L 126.536,-363.02 L 126.734,-363.129 L 126.944,-363.212 L 127.163,-363.268
 L 127.387,-363.296 L 127.613,-363.296 L 127.837,-363.268 L 128.056,-363.212 L 128.266,-363.129 L 128.464,-363.02
 L 128.647,-362.887 L 128.812,-362.732 L 128.956,-362.558 L 129.077,-362.367 L 129.174,-362.163 L 129.243,-361.948
 L 129.286,-361.726 L 129.3,-361.5 L 129.286,-361.274 L 129.243,-361.052 L 129.174,-360.837 L 129.077,-360.633
 L 128.956,-360.442 L 128.812,-360.268 L 128.647,-360.113 L 128.464,-359.98 L 128.266,-359.871 L 128.056,-359.788
 L 127.837,-359.732 L 127.613,-359.704 z
M -127.613,-359.704 L -127.837,-359.732 L -128.056,-359.788 L -128.266,-359.871 L -128.464,-359.98 L -128.647,-360.113
 L -128.812,-360.268 L -128.956,-360.442 L -129.077,-360.633 L -129.174,-360.837 L -129.243,-361.052 L -129.286,-361.274
 L -129.3,-361.5 L -129.286,-361.726 L -129.243,-361.948 L -129.174,-362.163 L -129.077,-362.367 L -128.956,-362.558
 L -128.812,-362.732 L -128.647,-362.887 L -128.464,-363.02 L -128.266,-363.129 L -128.056,-363.212 L -127.837,-363.268
 L -127.613,-363.296 L -127.387,-363.296 L -127.163,-363.268 L -126.944,-363.212 L -126.734,-363.129 L -126.536,-363.02
 L -126.353,-362.887 L -126.188,-362.732 L -126.044,-362.558 L -125.923,-362.367 L -125.826,-362.163 L -125.757,-361.948
 L -125.714,-361.726 L -125.7,-361.5 L -125.714,-361.274 L -125.757,-361.052 L -125.826,-360.837 L -125.923,-360.633
 L -126.044,-360.442 L -126.188,-360.268 L -126.353,-360.113 L -126.536,-359.98 L -126.734,-359.871 L -126.944,-359.788
 L -127.163,-359.732 L -127.387,-359.704 z
M -127.613,-134.704 L -127.837,-134.732 L -128.056,-134.788 L -128.266,-134.871 L -128.464,-134.98 L -128.647,-135.113
 L -128.812,-135.268 L -128.956,-135.442 L -129.077,-135.633 L -129.174,-135.837 L -129.243,-136.052 L -129.286,-136.274
 L -129.3,-136.5 L -129.286,-136.726 L -129.243,-136.948 L -129.174,-137.163 L -129.077,-137.367 L -128.956,-137.558
 L -128.812,-137.732 L -128.647,-137.887 L -128.464,-138.02 L -128.266,-138.129 L -128.056,-138.212 L -127.837,-138.268
 L -127.613,-138.296 L -127.387,-138.296 L -127.163,-138.268 L -126.944,-138.212 L -126.734,-138.129 L -126.536,-138.02
 L -126.353,-137.887 L -126.188,-137.732 L -126.044,-137.558 L -125.923,-137.367 L -125.826,-137.163 L -125.757,-136.948
 L -125.714,-136.726 L -125.7,-136.5 L -125.714,-136.274 L -125.757,-136.052 L -125.826,-135.837 L -125.923,-135.633
 L -126.044,-135.442 L -126.188,-135.268 L -126.353,-135.113 L -126.536,-134.98 L -126.734,-134.871 L -126.944,-134.788
 L -127.163,-134.732 L -127.387,-134.704 z
M 127.387,-134.704 L 127.163,-134.732 L 126.944,-134.788 L 126.734,-134.871 L 126.536,-134.98 L 126.353,-135.113
 L 126.188,-135.268 L 126.044,-135.442 L 125.923,-135.633 L 125.826,-135.837 L 125.757,-136.052 L 125.714,-136.274
 L 125.7,-136.5 L 125.714,-136.726 L 125.757,-136.948 L 125.826,-137.163 L 125.923,-137.367 L 126.044,-137.558
 L 126.188,-137.732 L 126.353,-137.887 L 126.536,-138.02 L 126.734,-138.129 L 126.944,-138.212 L 127.163,-138.268
 L 127.387,-138.296 L 127.613,-138.296 L 127.837,-138.268 L 128.056,-138.212 L 128.266,-138.129 L 128.464,-138.02
 L 128.647,-137.887 L 128.812,-137.732 L 128.956,-137.558 L 129.077,-137.367 L 129.174,-137.163 L 129.243,-136.948
 L 129.286,-136.726 L 129.3,-136.5 L 129.286,-136.274 L 129.243,-136.052 L 129.174,-135.837 L 129.077,-135.633
 L 128.956,-135.442 L 128.812,-135.268 L 128.647,-135.113 L 128.464,-134.98 L 128.266,-134.871 L 128.056,-134.788
 L 127.837,-134.732 L 127.613,-134.704 z
" stroke="black" fill="lightgray" stroke-width="0.5"/>
</svg>
