  0
SECTION
  2
BLOCKS
  0
ENDSEC
  0
SECTION
  2
ENTITIES
  0
LINE
  8
0
 10
-141
 20
142.441
 11
-140.687
 21
142.147
  0
LINE
  8
0
 10
-140.687
 20
142.147
 11
-140.179
 21
141.778
  0
LINE
  8
0
 10
-140.179
 20
141.778
 11
-139.629
 21
141.476
  0
LINE
  8
0
 10
-139.629
 20
141.476
 11
-139.045
 21
141.245
  0
LINE
  8
0
 10
-139.045
 20
141.245
 11
-138.437
 21
141.089
  0
LINE
  8
0
 10
-138.437
 20
141.089
 11
-137.814
 21
141.01
  0
LINE
  8
0
 10
-137.814
 20
141.01
 11
137.814
 21
141.01
  0
LINE
  8
0
 10
137.814
 20
141.01
 11
138.437
 21
141.089
  0
LINE
  8
0
 10
138.437
 20
141.089
 11
139.045
 21
141.245
  0
LINE
  8
0
 10
139.045
 20
141.245
 11
139.629
 21
141.476
  0
LINE
  8
0
 10
139.629
 20
141.476
 11
140.179
 21
141.778
  0
LINE
  8
0
 10
140.179
 20
141.778
 11
140.687
 21
142.147
  0
LINE
  8
0
 10
140.687
 20
142.147
 11
141.145
 21
142.577
  0
LINE
  8
0
 10
141.145
 20
142.577
 11
141.545
 21
143.061
  0
LINE
  8
0
 10
141.545
 20
143.061
 11
141.882
 21
143.591
  0
LINE
  8
0
 10
141.882
 20
143.591
 11
142.149
 21
144.159
  0
LINE
  8
0
 10
142.149
 20
144.159
 11
142.343
 21
144.757
  0
LINE
  8
0
 10
142.343
 20
144.757
 11
142.461
 21
145.373
  0
LINE
  8
0
 10
142.461
 20
145.373
 11
142.5
 21
146
  0
LINE
  8
0
 10
142.5
 20
146
 11
142.5
 21
166
  0
LINE
  8
0
 10
142.5
 20
166
 11
142.461
 21
166.627
  0
LINE
  8
0
 10
142.461
 20
166.627
 11
142.343
 21
167.243
  0
LINE
  8
0
 10
142.343
 20
167.243
 11
142.149
 21
167.841
  0
LINE
  8
0
 10
142.149
 20
167.841
 11
141.882
 21
168.409
  0
LINE
  8
0
 10
141.882
 20
168.409
 11
141.545
 21
168.939
  0
LINE
  8
0
 10
141.545
 20
168.939
 11
141.145
 21
169.423
  0
LINE
  8
0
 10
141.145
 20
169.423
 11
140.687
 21
169.853
  0
LINE
  8
0
 10
140.687
 20
169.853
 11
140.179
 21
170.222
  0
LINE
  8
0
 10
140.179
 20
170.222
 11
139.629
 21
170.524
  0
LINE
  8
0
 10
139.629
 20
170.524
 11
139.045
 21
170.755
  0
LINE
  8
0
 10
139.045
 20
170.755
 11
138.437
 21
170.911
  0
LINE
  8
0
 10
138.437
 20
170.911
 11
137.814
 21
170.99
  0
LINE
  8
0
 10
137.814
 20
170.99
 11
-137.814
 21
170.99
  0
LINE
  8
0
 10
-137.814
 20
170.99
 11
-138.437
 21
170.911
  0
LINE
  8
0
 10
-138.437
 20
170.911
 11
-139.045
 21
170.755
  0
LINE
  8
0
 10
-139.045
 20
170.755
 11
-139.629
 21
170.524
  0
LINE
  8
0
 10
-139.629
 20
170.524
 11
-140.179
 21
170.222
  0
LINE
  8
0
 10
-140.179
 20
170.222
 11
-140.687
 21
169.853
  0
LINE
  8
0
 10
-140.687
 20
169.853
 11
-141
 21
169.559
  0
LINE
  8
0
 10
-141
 20
169.559
 11
-141
 21
170.99
  0
LINE
  8
0
 10
-141
 20
170.99
 11
-144
 21
170.99
  0
LINE
  8
0
 10
-144
 20
170.99
 11
-144
 21
141.01
  0
LINE
  8
0
 10
-144
 20
141.01
 11
-141
 21
141.01
  0
LINE
  8
0
 10
-141
 20
141.01
 11
-141
 21
142.441
  0
LINE
  8
0
 10
-137.243
 20
142.635
 11
-137.726
 21
142.696
  0
LINE
  8
0
 10
-137.726
 20
142.696
 11
-138.197
 21
142.817
  0
LINE
  8
0
 10
-138.197
 20
142.817
 11
-138.649
 21
142.996
  0
LINE
  8
0
 10
-138.649
 20
142.996
 11
-139.075
 21
143.23
  0
LINE
  8
0
 10
-139.075
 20
143.23
 11
-139.469
 21
143.516
  0
LINE
  8
0
 10
-139.469
 20
143.516
 11
-139.823
 21
143.849
  0
LINE
  8
0
 10
-139.823
 20
143.849
 11
-140.133
 21
144.224
  0
LINE
  8
0
 10
-140.133
 20
144.224
 11
-140.394
 21
144.634
  0
LINE
  8
0
 10
-140.394
 20
144.634
 11
-140.601
 21
145.074
  0
LINE
  8
0
 10
-140.601
 20
145.074
 11
-140.751
 21
145.537
  0
LINE
  8
0
 10
-140.751
 20
145.537
 11
-140.842
 21
146.015
  0
LINE
  8
0
 10
-140.842
 20
146.015
 11
-140.873
 21
146.5
  0
LINE
  8
0
 10
-140.873
 20
146.5
 11
-140.873
 21
165.5
  0
LINE
  8
0
 10
-140.873
 20
165.5
 11
-140.842
 21
165.985
  0
LINE
  8
0
 10
-140.842
 20
165.985
 11
-140.751
 21
166.463
  0
LINE
  8
0
 10
-140.751
 20
166.463
 11
-140.601
 21
166.926
  0
LINE
  8
0
 10
-140.601
 20
166.926
 11
-140.394
 21
167.366
  0
LINE
  8
0
 10
-140.394
 20
167.366
 11
-140.133
 21
167.776
  0
LINE
  8
0
 10
-140.133
 20
167.776
 11
-139.823
 21
168.151
  0
LINE
  8
0
 10
-139.823
 20
168.151
 11
-139.469
 21
168.484
  0
LINE
  8
0
 10
-139.469
 20
168.484
 11
-139.075
 21
168.77
  0
LINE
  8
0
 10
-139.075
 20
168.77
 11
-138.649
 21
169.004
  0
LINE
  8
0
 10
-138.649
 20
169.004
 11
-138.197
 21
169.183
  0
LINE
  8
0
 10
-138.197
 20
169.183
 11
-137.726
 21
169.304
  0
LINE
  8
0
 10
-137.726
 20
169.304
 11
-137.243
 21
169.365
  0
LINE
  8
0
 10
-137.243
 20
169.365
 11
137.243
 21
169.365
  0
LINE
  8
0
 10
137.243
 20
169.365
 11
137.726
 21
169.304
  0
LINE
  8
0
 10
137.726
 20
169.304
 11
138.197
 21
169.183
  0
LINE
  8
0
 10
138.197
 20
169.183
 11
138.649
 21
169.004
  0
LINE
  8
0
 10
138.649
 20
169.004
 11
139.075
 21
168.77
  0
LINE
  8
0
 10
139.075
 20
168.77
 11
139.469
 21
168.484
  0
LINE
  8
0
 10
139.469
 20
168.484
 11
139.823
 21
168.151
  0
LINE
  8
0
 10
139.823
 20
168.151
 11
140.133
 21
167.776
  0
LINE
  8
0
 10
140.133
 20
167.776
 11
140.394
 21
167.366
  0
LINE
  8
0
 10
140.394
 20
167.366
 11
140.601
 21
166.926
  0
LINE
  8
0
 10
140.601
 20
166.926
 11
140.751
 21
166.463
  0
LINE
  8
0
 10
140.751
 20
166.463
 11
140.842
 21
165.985
  0
LINE
  8
0
 10
140.842
 20
165.985
 11
140.873
 21
165.5
  0
LINE
  8
0
 10
140.873
 20
165.5
 11
140.873
 21
146.5
  0
LINE
  8
0
 10
140.873
 20
146.5
 11
140.842
 21
146.015
  0
LINE
  8
0
 10
140.842
 20
146.015
 11
140.751
 21
145.537
  0
LINE
  8
0
 10
140.751
 20
145.537
 11
140.601
 21
145.074
  0
LINE
  8
0
 10
140.601
 20
145.074
 11
140.394
 21
144.634
  0
LINE
  8
0
 10
140.394
 20
144.634
 11
140.133
 21
144.224
  0
LINE
  8
0
 10
140.133
 20
144.224
 11
139.823
 21
143.849
  0
LINE
  8
0
 10
139.823
 20
143.849
 11
139.469
 21
143.516
  0
LINE
  8
0
 10
139.469
 20
143.516
 11
139.075
 21
143.23
  0
LINE
  8
0
 10
139.075
 20
143.23
 11
138.649
 21
142.996
  0
LINE
  8
0
 10
138.649
 20
142.996
 11
138.197
 21
142.817
  0
LINE
  8
0
 10
138.197
 20
142.817
 11
137.726
 21
142.696
  0
LINE
  8
0
 10
137.726
 20
142.696
 11
137.243
 21
142.635
  0
LINE
  8
0
 10
137.243
 20
142.635
 11
-137.243
 21
142.635
  0
LINE
  8
0
 10
138.437
 20
102.089
 11
139.045
 21
102.245
  0
LINE
  8
0
 10
139.045
 20
102.245
 11
139.629
 21
102.476
  0
LINE
  8
0
 10
139.629
 20
102.476
 11
140.179
 21
102.778
  0
LINE
  8
0
 10
140.179
 20
102.778
 11
140.687
 21
103.147
  0
LINE
  8
0
 10
140.687
 20
103.147
 11
141.145
 21
103.577
  0
LINE
  8
0
 10
141.145
 20
103.577
 11
141.545
 21
104.061
  0
LINE
  8
0
 10
141.545
 20
104.061
 11
141.882
 21
104.591
  0
LINE
  8
0
 10
141.882
 20
104.591
 11
142.149
 21
105.159
  0
LINE
  8
0
 10
142.149
 20
105.159
 11
142.343
 21
105.757
  0
LINE
  8
0
 10
142.343
 20
105.757
 11
142.461
 21
106.373
  0
LINE
  8
0
 10
142.461
 20
106.373
 11
142.5
 21
107
  0
LINE
  8
0
 10
142.5
 20
107
 11
142.5
 21
127
  0
LINE
  8
0
 10
142.5
 20
127
 11
142.461
 21
127.627
  0
LINE
  8
0
 10
142.461
 20
127.627
 11
142.343
 21
128.243
  0
LINE
  8
0
 10
142.343
 20
128.243
 11
142.149
 21
128.841
  0
LINE
  8
0
 10
142.149
 20
128.841
 11
141.882
 21
129.409
  0
LINE
  8
0
 10
141.882
 20
129.409
 11
141.545
 21
129.939
  0
LINE
  8
0
 10
141.545
 20
129.939
 11
141.145
 21
130.423
  0
LINE
  8
0
 10
141.145
 20
130.423
 11
140.687
 21
130.853
  0
LINE
  8
0
 10
140.687
 20
130.853
 11
140.179
 21
131.222
  0
LINE
  8
0
 10
140.179
 20
131.222
 11
139.629
 21
131.524
  0
LINE
  8
0
 10
139.629
 20
131.524
 11
139.045
 21
131.755
  0
LINE
  8
0
 10
139.045
 20
131.755
 11
138.437
 21
131.911
  0
LINE
  8
0
 10
138.437
 20
131.911
 11
137.814
 21
131.99
  0
LINE
  8
0
 10
137.814
 20
131.99
 11
-137.814
 21
131.99
  0
LINE
  8
0
 10
-137.814
 20
131.99
 11
-138.437
 21
131.911
  0
LINE
  8
0
 10
-138.437
 20
131.911
 11
-139.045
 21
131.755
  0
LINE
  8
0
 10
-139.045
 20
131.755
 11
-139.629
 21
131.524
  0
LINE
  8
0
 10
-139.629
 20
131.524
 11
-140.179
 21
131.222
  0
LINE
  8
0
 10
-140.179
 20
131.222
 11
-140.687
 21
130.853
  0
LINE
  8
0
 10
-140.687
 20
130.853
 11
-141
 21
130.559
  0
LINE
  8
0
 10
-141
 20
130.559
 11
-141
 21
131.615
  0
LINE
  8
0
 10
-141
 20
131.615
 11
-144
 21
131.615
  0
LINE
  8
0
 10
-144
 20
131.615
 11
-144
 21
102.385
  0
LINE
  8
0
 10
-144
 20
102.385
 11
-141
 21
102.385
  0
LINE
  8
0
 10
-141
 20
102.385
 11
-141
 21
103.441
  0
LINE
  8
0
 10
-141
 20
103.441
 11
-140.687
 21
103.147
  0
LINE
  8
0
 10
-140.687
 20
103.147
 11
-140.179
 21
102.778
  0
LINE
  8
0
 10
-140.179
 20
102.778
 11
-139.629
 21
102.476
  0
LINE
  8
0
 10
-139.629
 20
102.476
 11
-139.045
 21
102.245
  0
LINE
  8
0
 10
-139.045
 20
102.245
 11
-138.437
 21
102.089
  0
LINE
  8
0
 10
-138.437
 20
102.089
 11
-137.814
 21
102.01
  0
LINE
  8
0
 10
-137.814
 20
102.01
 11
137.814
 21
102.01
  0
LINE
  8
0
 10
137.814
 20
102.01
 11
138.437
 21
102.089
  0
LINE
  8
0
 10
134.849
 20
122.105
 11
134.55
 21
122.143
  0
LINE
  8
0
 10
134.55
 20
122.143
 11
134.258
 21
122.217
  0
LINE
  8
0
 10
134.258
 20
122.217
 11
133.978
 21
122.328
  0
LINE
  8
0
 10
133.978
 20
122.328
 11
133.714
 21
122.474
  0
LINE
  8
0
 10
133.714
 20
122.474
 11
133.47
 21
122.651
  0
LINE
  8
0
 10
133.47
 20
122.651
 11
133.25
 21
122.857
  0
LINE
  8
0
 10
133.25
 20
122.857
 11
133.058
 21
123.089
  0
LINE
  8
0
 10
133.058
 20
123.089
 11
132.897
 21
123.344
  0
LINE
  8
0
 10
132.897
 20
123.344
 11
132.769
 21
123.617
  0
LINE
  8
0
 10
132.769
 20
123.617
 11
132.675
 21
123.903
  0
LINE
  8
0
 10
132.675
 20
123.903
 11
132.619
 21
124.199
  0
LINE
  8
0
 10
132.619
 20
124.199
 11
132.6
 21
124.5
  0
LINE
  8
0
 10
132.6
 20
124.5
 11
132.619
 21
124.801
  0
LINE
  8
0
 10
132.619
 20
124.801
 11
132.675
 21
125.097
  0
LINE
  8
0
 10
132.675
 20
125.097
 11
132.769
 21
125.383
  0
LINE
  8
0
 10
132.769
 20
125.383
 11
132.897
 21
125.656
  0
LINE
  8
0
 10
132.897
 20
125.656
 11
133.058
 21
125.911
  0
LINE
  8
0
 10
133.058
 20
125.911
 11
133.25
 21
126.143
  0
LINE
  8
0
 10
133.25
 20
126.143
 11
133.47
 21
126.349
  0
LINE
  8
0
 10
133.47
 20
126.349
 11
133.714
 21
126.526
  0
LINE
  8
0
 10
133.714
 20
126.526
 11
133.978
 21
126.672
  0
LINE
  8
0
 10
133.978
 20
126.672
 11
134.258
 21
126.783
  0
LINE
  8
0
 10
134.258
 20
126.783
 11
134.55
 21
126.857
  0
LINE
  8
0
 10
134.55
 20
126.857
 11
134.849
 21
126.895
  0
LINE
  8
0
 10
134.849
 20
126.895
 11
135.151
 21
126.895
  0
LINE
  8
0
 10
135.151
 20
126.895
 11
135.45
 21
126.857
  0
LINE
  8
0
 10
135.45
 20
126.857
 11
135.742
 21
126.783
  0
LINE
  8
0
 10
135.742
 20
126.783
 11
136.022
 21
126.672
  0
LINE
  8
0
 10
136.022
 20
126.672
 11
136.286
 21
126.526
  0
LINE
  8
0
 10
136.286
 20
126.526
 11
136.53
 21
126.349
  0
LINE
  8
0
 10
136.53
 20
126.349
 11
136.75
 21
126.143
  0
LINE
  8
0
 10
136.75
 20
126.143
 11
136.942
 21
125.911
  0
LINE
  8
0
 10
136.942
 20
125.911
 11
137.103
 21
125.656
  0
LINE
  8
0
 10
137.103
 20
125.656
 11
137.231
 21
125.383
  0
LINE
  8
0
 10
137.231
 20
125.383
 11
137.325
 21
125.097
  0
LINE
  8
0
 10
137.325
 20
125.097
 11
137.381
 21
124.801
  0
LINE
  8
0
 10
137.381
 20
124.801
 11
137.4
 21
124.5
  0
LINE
  8
0
 10
137.4
 20
124.5
 11
137.381
 21
124.199
  0
LINE
  8
0
 10
137.381
 20
124.199
 11
137.325
 21
123.903
  0
LINE
  8
0
 10
137.325
 20
123.903
 11
137.231
 21
123.617
  0
LINE
  8
0
 10
137.231
 20
123.617
 11
137.103
 21
123.344
  0
LINE
  8
0
 10
137.103
 20
123.344
 11
136.942
 21
123.089
  0
LINE
  8
0
 10
136.942
 20
123.089
 11
136.75
 21
122.857
  0
LINE
  8
0
 10
136.75
 20
122.857
 11
136.53
 21
122.651
  0
LINE
  8
0
 10
136.53
 20
122.651
 11
136.286
 21
122.474
  0
LINE
  8
0
 10
136.286
 20
122.474
 11
136.022
 21
122.328
  0
LINE
  8
0
 10
136.022
 20
122.328
 11
135.742
 21
122.217
  0
LINE
  8
0
 10
135.742
 20
122.217
 11
135.45
 21
122.143
  0
LINE
  8
0
 10
135.45
 20
122.143
 11
135.151
 21
122.105
  0
LINE
  8
0
 10
135.151
 20
122.105
 11
134.849
 21
122.105
  0
LINE
  8
0
 10
-135.151
 20
122.105
 11
-135.45
 21
122.143
  0
LINE
  8
0
 10
-135.45
 20
122.143
 11
-135.742
 21
122.217
  0
LINE
  8
0
 10
-135.742
 20
122.217
 11
-136.022
 21
122.328
  0
LINE
  8
0
 10
-136.022
 20
122.328
 11
-136.286
 21
122.474
  0
LINE
  8
0
 10
-136.286
 20
122.474
 11
-136.53
 21
122.651
  0
LINE
  8
0
 10
-136.53
 20
122.651
 11
-136.75
 21
122.857
  0
LINE
  8
0
 10
-136.75
 20
122.857
 11
-136.942
 21
123.089
  0
LINE
  8
0
 10
-136.942
 20
123.089
 11
-137.103
 21
123.344
  0
LINE
  8
0
 10
-137.103
 20
123.344
 11
-137.231
 21
123.617
  0
LINE
  8
0
 10
-137.231
 20
123.617
 11
-137.325
 21
123.903
  0
LINE
  8
0
 10
-137.325
 20
123.903
 11
-137.381
 21
124.199
  0
LINE
  8
0
 10
-137.381
 20
124.199
 11
-137.4
 21
124.5
  0
LINE
  8
0
 10
-137.4
 20
124.5
 11
-137.381
 21
124.801
  0
LINE
  8
0
 10
-137.381
 20
124.801
 11
-137.325
 21
125.097
  0
LINE
  8
0
 10
-137.325
 20
125.097
 11
-137.231
 21
125.383
  0
LINE
  8
0
 10
-137.231
 20
125.383
 11
-137.103
 21
125.656
  0
LINE
  8
0
 10
-137.103
 20
125.656
 11
-136.942
 21
125.911
  0
LINE
  8
0
 10
-136.942
 20
125.911
 11
-136.75
 21
126.143
  0
LINE
  8
0
 10
-136.75
 20
126.143
 11
-136.53
 21
126.349
  0
LINE
  8
0
 10
-136.53
 20
126.349
 11
-136.286
 21
126.526
  0
LINE
  8
0
 10
-136.286
 20
126.526
 11
-136.022
 21
126.672
  0
LINE
  8
0
 10
-136.022
 20
126.672
 11
-135.742
 21
126.783
  0
LINE
  8
0
 10
-135.742
 20
126.783
 11
-135.45
 21
126.857
  0
LINE
  8
0
 10
-135.45
 20
126.857
 11
-135.151
 21
126.895
  0
LINE
  8
0
 10
-135.151
 20
126.895
 11
-134.849
 21
126.895
  0
LINE
  8
0
 10
-134.849
 20
126.895
 11
-134.55
 21
126.857
  0
LINE
  8
0
 10
-134.55
 20
126.857
 11
-134.258
 21
126.783
  0
LINE
  8
0
 10
-134.258
 20
126.783
 11
-133.978
 21
126.672
  0
LINE
  8
0
 10
-133.978
 20
126.672
 11
-133.714
 21
126.526
  0
LINE
  8
0
 10
-133.714
 20
126.526
 11
-133.47
 21
126.349
  0
LINE
  8
0
 10
-133.47
 20
126.349
 11
-133.25
 21
126.143
  0
LINE
  8
0
 10
-133.25
 20
126.143
 11
-133.058
 21
125.911
  0
LINE
  8
0
 10
-133.058
 20
125.911
 11
-132.897
 21
125.656
  0
LINE
  8
0
 10
-132.897
 20
125.656
 11
-132.769
 21
125.383
  0
LINE
  8
0
 10
-132.769
 20
125.383
 11
-132.675
 21
125.097
  0
LINE
  8
0
 10
-132.675
 20
125.097
 11
-132.619
 21
124.801
  0
LINE
  8
0
 10
-132.619
 20
124.801
 11
-132.6
 21
124.5
  0
LINE
  8
0
 10
-132.6
 20
124.5
 11
-132.619
 21
124.199
  0
LINE
  8
0
 10
-132.619
 20
124.199
 11
-132.675
 21
123.903
  0
LINE
  8
0
 10
-132.675
 20
123.903
 11
-132.769
 21
123.617
  0
LINE
  8
0
 10
-132.769
 20
123.617
 11
-132.897
 21
123.344
  0
LINE
  8
0
 10
-132.897
 20
123.344
 11
-133.058
 21
123.089
  0
LINE
  8
0
 10
-133.058
 20
123.089
 11
-133.25
 21
122.857
  0
LINE
  8
0
 10
-133.25
 20
122.857
 11
-133.47
 21
122.651
  0
LINE
  8
0
 10
-133.47
 20
122.651
 11
-133.714
 21
122.474
  0
LINE
  8
0
 10
-133.714
 20
122.474
 11
-133.978
 21
122.328
  0
LINE
  8
0
 10
-133.978
 20
122.328
 11
-134.258
 21
122.217
  0
LINE
  8
0
 10
-134.258
 20
122.217
 11
-134.55
 21
122.143
  0
LINE
  8
0
 10
-134.55
 20
122.143
 11
-134.849
 21
122.105
  0
LINE
  8
0
 10
-134.849
 20
122.105
 11
-135.151
 21
122.105
  0
LINE
  8
0
 10
134.849
 20
107.105
 11
134.55
 21
107.143
  0
LINE
  8
0
 10
134.55
 20
107.143
 11
134.258
 21
107.217
  0
LINE
  8
0
 10
134.258
 20
107.217
 11
133.978
 21
107.328
  0
LINE
  8
0
 10
133.978
 20
107.328
 11
133.714
 21
107.474
  0
LINE
  8
0
 10
133.714
 20
107.474
 11
133.47
 21
107.651
  0
LINE
  8
0
 10
133.47
 20
107.651
 11
133.25
 21
107.857
  0
LINE
  8
0
 10
133.25
 20
107.857
 11
133.058
 21
108.089
  0
LINE
  8
0
 10
133.058
 20
108.089
 11
132.897
 21
108.344
  0
LINE
  8
0
 10
132.897
 20
108.344
 11
132.769
 21
108.617
  0
LINE
  8
0
 10
132.769
 20
108.617
 11
132.675
 21
108.903
  0
LINE
  8
0
 10
132.675
 20
108.903
 11
132.619
 21
109.199
  0
LINE
  8
0
 10
132.619
 20
109.199
 11
132.6
 21
109.5
  0
LINE
  8
0
 10
132.6
 20
109.5
 11
132.619
 21
109.801
  0
LINE
  8
0
 10
132.619
 20
109.801
 11
132.675
 21
110.097
  0
LINE
  8
0
 10
132.675
 20
110.097
 11
132.769
 21
110.383
  0
LINE
  8
0
 10
132.769
 20
110.383
 11
132.897
 21
110.656
  0
LINE
  8
0
 10
132.897
 20
110.656
 11
133.058
 21
110.911
  0
LINE
  8
0
 10
133.058
 20
110.911
 11
133.25
 21
111.143
  0
LINE
  8
0
 10
133.25
 20
111.143
 11
133.47
 21
111.349
  0
LINE
  8
0
 10
133.47
 20
111.349
 11
133.714
 21
111.526
  0
LINE
  8
0
 10
133.714
 20
111.526
 11
133.978
 21
111.672
  0
LINE
  8
0
 10
133.978
 20
111.672
 11
134.258
 21
111.783
  0
LINE
  8
0
 10
134.258
 20
111.783
 11
134.55
 21
111.857
  0
LINE
  8
0
 10
134.55
 20
111.857
 11
134.849
 21
111.895
  0
LINE
  8
0
 10
134.849
 20
111.895
 11
135.151
 21
111.895
  0
LINE
  8
0
 10
135.151
 20
111.895
 11
135.45
 21
111.857
  0
LINE
  8
0
 10
135.45
 20
111.857
 11
135.742
 21
111.783
  0
LINE
  8
0
 10
135.742
 20
111.783
 11
136.022
 21
111.672
  0
LINE
  8
0
 10
136.022
 20
111.672
 11
136.286
 21
111.526
  0
LINE
  8
0
 10
136.286
 20
111.526
 11
136.53
 21
111.349
  0
LINE
  8
0
 10
136.53
 20
111.349
 11
136.75
 21
111.143
  0
LINE
  8
0
 10
136.75
 20
111.143
 11
136.942
 21
110.911
  0
LINE
  8
0
 10
136.942
 20
110.911
 11
137.103
 21
110.656
  0
LINE
  8
0
 10
137.103
 20
110.656
 11
137.231
 21
110.383
  0
LINE
  8
0
 10
137.231
 20
110.383
 11
137.325
 21
110.097
  0
LINE
  8
0
 10
137.325
 20
110.097
 11
137.381
 21
109.801
  0
LINE
  8
0
 10
137.381
 20
109.801
 11
137.4
 21
109.5
  0
LINE
  8
0
 10
137.4
 20
109.5
 11
137.381
 21
109.199
  0
LINE
  8
0
 10
137.381
 20
109.199
 11
137.325
 21
108.903
  0
LINE
  8
0
 10
137.325
 20
108.903
 11
137.231
 21
108.617
  0
LINE
  8
0
 10
137.231
 20
108.617
 11
137.103
 21
108.344
  0
LINE
  8
0
 10
137.103
 20
108.344
 11
136.942
 21
108.089
  0
LINE
  8
0
 10
136.942
 20
108.089
 11
136.75
 21
107.857
  0
LINE
  8
0
 10
136.75
 20
107.857
 11
136.53
 21
107.651
  0
LINE
  8
0
 10
136.53
 20
107.651
 11
136.286
 21
107.474
  0
LINE
  8
0
 10
136.286
 20
107.474
 11
136.022
 21
107.328
  0
LINE
  8
0
 10
136.022
 20
107.328
 11
135.742
 21
107.217
  0
LINE
  8
0
 10
135.742
 20
107.217
 11
135.45
 21
107.143
  0
LINE
  8
0
 10
135.45
 20
107.143
 11
135.151
 21
107.105
  0
LINE
  8
0
 10
135.151
 20
107.105
 11
134.849
 21
107.105
  0
LINE
  8
0
 10
-135.151
 20
107.105
 11
-135.45
 21
107.143
  0
LINE
  8
0
 10
-135.45
 20
107.143
 11
-135.742
 21
107.217
  0
LINE
  8
0
 10
-135.742
 20
107.217
 11
-136.022
 21
107.328
  0
LINE
  8
0
 10
-136.022
 20
107.328
 11
-136.286
 21
107.474
  0
LINE
  8
0
 10
-136.286
 20
107.474
 11
-136.53
 21
107.651
  0
LINE
  8
0
 10
-136.53
 20
107.651
 11
-136.75
 21
107.857
  0
LINE
  8
0
 10
-136.75
 20
107.857
 11
-136.942
 21
108.089
  0
LINE
  8
0
 10
-136.942
 20
108.089
 11
-137.103
 21
108.344
  0
LINE
  8
0
 10
-137.103
 20
108.344
 11
-137.231
 21
108.617
  0
LINE
  8
0
 10
-137.231
 20
108.617
 11
-137.325
 21
108.903
  0
LINE
  8
0
 10
-137.325
 20
108.903
 11
-137.381
 21
109.199
  0
LINE
  8
0
 10
-137.381
 20
109.199
 11
-137.4
 21
109.5
  0
LINE
  8
0
 10
-137.4
 20
109.5
 11
-137.381
 21
109.801
  0
LINE
  8
0
 10
-137.381
 20
109.801
 11
-137.325
 21
110.097
  0
LINE
  8
0
 10
-137.325
 20
110.097
 11
-137.231
 21
110.383
  0
LINE
  8
0
 10
-137.231
 20
110.383
 11
-137.103
 21
110.656
  0
LINE
  8
0
 10
-137.103
 20
110.656
 11
-136.942
 21
110.911
  0
LINE
  8
0
 10
-136.942
 20
110.911
 11
-136.75
 21
111.143
  0
LINE
  8
0
 10
-136.75
 20
111.143
 11
-136.53
 21
111.349
  0
LINE
  8
0
 10
-136.53
 20
111.349
 11
-136.286
 21
111.526
  0
LINE
  8
0
 10
-136.286
 20
111.526
 11
-136.022
 21
111.672
  0
LINE
  8
0
 10
-136.022
 20
111.672
 11
-135.742
 21
111.783
  0
LINE
  8
0
 10
-135.742
 20
111.783
 11
-135.45
 21
111.857
  0
LINE
  8
0
 10
-135.45
 20
111.857
 11
-135.151
 21
111.895
  0
LINE
  8
0
 10
-135.151
 20
111.895
 11
-134.849
 21
111.895
  0
LINE
  8
0
 10
-134.849
 20
111.895
 11
-134.55
 21
111.857
  0
LINE
  8
0
 10
-134.55
 20
111.857
 11
-134.258
 21
111.783
  0
LINE
  8
0
 10
-134.258
 20
111.783
 11
-133.978
 21
111.672
  0
LINE
  8
0
 10
-133.978
 20
111.672
 11
-133.714
 21
111.526
  0
LINE
  8
0
 10
-133.714
 20
111.526
 11
-133.47
 21
111.349
  0
LINE
  8
0
 10
-133.47
 20
111.349
 11
-133.25
 21
111.143
  0
LINE
  8
0
 10
-133.25
 20
111.143
 11
-133.058
 21
110.911
  0
LINE
  8
0
 10
-133.058
 20
110.911
 11
-132.897
 21
110.656
  0
LINE
  8
0
 10
-132.897
 20
110.656
 11
-132.769
 21
110.383
  0
LINE
  8
0
 10
-132.769
 20
110.383
 11
-132.675
 21
110.097
  0
LINE
  8
0
 10
-132.675
 20
110.097
 11
-132.619
 21
109.801
  0
LINE
  8
0
 10
-132.619
 20
109.801
 11
-132.6
 21
109.5
  0
LINE
  8
0
 10
-132.6
 20
109.5
 11
-132.619
 21
109.199
  0
LINE
  8
0
 10
-132.619
 20
109.199
 11
-132.675
 21
108.903
  0
LINE
  8
0
 10
-132.675
 20
108.903
 11
-132.769
 21
108.617
  0
LINE
  8
0
 10
-132.769
 20
108.617
 11
-132.897
 21
108.344
  0
LINE
  8
0
 10
-132.897
 20
108.344
 11
-133.058
 21
108.089
  0
LINE
  8
0
 10
-133.058
 20
108.089
 11
-133.25
 21
107.857
  0
LINE
  8
0
 10
-133.25
 20
107.857
 11
-133.47
 21
107.651
  0
LINE
  8
0
 10
-133.47
 20
107.651
 11
-133.714
 21
107.474
  0
LINE
  8
0
 10
-133.714
 20
107.474
 11
-133.978
 21
107.328
  0
LINE
  8
0
 10
-133.978
 20
107.328
 11
-134.258
 21
107.217
  0
LINE
  8
0
 10
-134.258
 20
107.217
 11
-134.55
 21
107.143
  0
LINE
  8
0
 10
-134.55
 20
107.143
 11
-134.849
 21
107.105
  0
LINE
  8
0
 10
-134.849
 20
107.105
 11
-135.151
 21
107.105
  0
LINE
  8
0
 10
138.437
 20
63.0886
 11
139.045
 21
63.2447
  0
LINE
  8
0
 10
139.045
 20
63.2447
 11
139.629
 21
63.4759
  0
LINE
  8
0
 10
139.629
 20
63.4759
 11
140.179
 21
63.7784
  0
LINE
  8
0
 10
140.179
 20
63.7784
 11
140.687
 21
64.1474
  0
LINE
  8
0
 10
140.687
 20
64.1474
 11
141.145
 21
64.5773
  0
LINE
  8
0
 10
141.145
 20
64.5773
 11
141.545
 21
65.0611
  0
LINE
  8
0
 10
141.545
 20
65.0611
 11
141.882
 21
65.5912
  0
LINE
  8
0
 10
141.882
 20
65.5912
 11
142.149
 21
66.1594
  0
LINE
  8
0
 10
142.149
 20
66.1594
 11
142.343
 21
66.7566
  0
LINE
  8
0
 10
142.343
 20
66.7566
 11
142.461
 21
67.3733
  0
LINE
  8
0
 10
142.461
 20
67.3733
 11
142.5
 21
68
  0
LINE
  8
0
 10
142.5
 20
68
 11
142.5
 21
88
  0
LINE
  8
0
 10
142.5
 20
88
 11
142.461
 21
88.6267
  0
LINE
  8
0
 10
142.461
 20
88.6267
 11
142.343
 21
89.2434
  0
LINE
  8
0
 10
142.343
 20
89.2434
 11
142.149
 21
89.8406
  0
LINE
  8
0
 10
142.149
 20
89.8406
 11
141.882
 21
90.4088
  0
LINE
  8
0
 10
141.882
 20
90.4088
 11
141.545
 21
90.9389
  0
LINE
  8
0
 10
141.545
 20
90.9389
 11
141.145
 21
91.4227
  0
LINE
  8
0
 10
141.145
 20
91.4227
 11
140.687
 21
91.8526
  0
LINE
  8
0
 10
140.687
 20
91.8526
 11
140.179
 21
92.2216
  0
LINE
  8
0
 10
140.179
 20
92.2216
 11
139.629
 21
92.5241
  0
LINE
  8
0
 10
139.629
 20
92.5241
 11
139.045
 21
92.7553
  0
LINE
  8
0
 10
139.045
 20
92.7553
 11
138.437
 21
92.9114
  0
LINE
  8
0
 10
138.437
 20
92.9114
 11
137.814
 21
92.9901
  0
LINE
  8
0
 10
137.814
 20
92.9901
 11
-137.814
 21
92.9901
  0
LINE
  8
0
 10
-137.814
 20
92.9901
 11
-138.437
 21
92.9114
  0
LINE
  8
0
 10
-138.437
 20
92.9114
 11
-139.045
 21
92.7553
  0
LINE
  8
0
 10
-139.045
 20
92.7553
 11
-139.629
 21
92.5241
  0
LINE
  8
0
 10
-139.629
 20
92.5241
 11
-140.179
 21
92.2216
  0
LINE
  8
0
 10
-140.179
 20
92.2216
 11
-140.687
 21
91.8526
  0
LINE
  8
0
 10
-140.687
 20
91.8526
 11
-141.145
 21
91.4227
  0
LINE
  8
0
 10
-141.145
 20
91.4227
 11
-141.545
 21
90.9389
  0
LINE
  8
0
 10
-141.545
 20
90.9389
 11
-141.882
 21
90.4088
  0
LINE
  8
0
 10
-141.882
 20
90.4088
 11
-142.149
 21
89.8406
  0
LINE
  8
0
 10
-142.149
 20
89.8406
 11
-142.343
 21
89.2434
  0
LINE
  8
0
 10
-142.343
 20
89.2434
 11
-142.4
 21
88.9442
  0
LINE
  8
0
 10
-142.4
 20
88.9442
 11
-144
 21
88.9442
  0
LINE
  8
0
 10
-144
 20
88.9442
 11
-144
 21
67.0558
  0
LINE
  8
0
 10
-144
 20
67.0558
 11
-142.4
 21
67.0558
  0
LINE
  8
0
 10
-142.4
 20
67.0558
 11
-142.343
 21
66.7566
  0
LINE
  8
0
 10
-142.343
 20
66.7566
 11
-142.149
 21
66.1594
  0
LINE
  8
0
 10
-142.149
 20
66.1594
 11
-141.882
 21
65.5912
  0
LINE
  8
0
 10
-141.882
 20
65.5912
 11
-141.545
 21
65.0611
  0
LINE
  8
0
 10
-141.545
 20
65.0611
 11
-141.145
 21
64.5773
  0
LINE
  8
0
 10
-141.145
 20
64.5773
 11
-140.687
 21
64.1474
  0
LINE
  8
0
 10
-140.687
 20
64.1474
 11
-140.179
 21
63.7784
  0
LINE
  8
0
 10
-140.179
 20
63.7784
 11
-139.629
 21
63.4759
  0
LINE
  8
0
 10
-139.629
 20
63.4759
 11
-139.045
 21
63.2447
  0
LINE
  8
0
 10
-139.045
 20
63.2447
 11
-138.437
 21
63.0886
  0
LINE
  8
0
 10
-138.437
 20
63.0886
 11
-137.814
 21
63.0099
  0
LINE
  8
0
 10
-137.814
 20
63.0099
 11
137.814
 21
63.0099
  0
LINE
  8
0
 10
137.814
 20
63.0099
 11
138.437
 21
63.0886
  0
LINE
  8
0
 10
134.887
 20
83.7036
 11
134.663
 21
83.7319
  0
LINE
  8
0
 10
134.663
 20
83.7319
 11
134.444
 21
83.7881
  0
LINE
  8
0
 10
134.444
 20
83.7881
 11
134.234
 21
83.8713
  0
LINE
  8
0
 10
134.234
 20
83.8713
 11
134.036
 21
83.9802
  0
LINE
  8
0
 10
134.036
 20
83.9802
 11
133.853
 21
84.1131
  0
LINE
  8
0
 10
133.853
 20
84.1131
 11
133.688
 21
84.2678
  0
LINE
  8
0
 10
133.688
 20
84.2678
 11
133.544
 21
84.442
  0
LINE
  8
0
 10
133.544
 20
84.442
 11
133.423
 21
84.6328
  0
LINE
  8
0
 10
133.423
 20
84.6328
 11
133.326
 21
84.8374
  0
LINE
  8
0
 10
133.326
 20
84.8374
 11
133.257
 21
85.0524
  0
LINE
  8
0
 10
133.257
 20
85.0524
 11
133.214
 21
85.2744
  0
LINE
  8
0
 10
133.214
 20
85.2744
 11
133.2
 21
85.5
  0
LINE
  8
0
 10
133.2
 20
85.5
 11
133.214
 21
85.7256
  0
LINE
  8
0
 10
133.214
 20
85.7256
 11
133.257
 21
85.9476
  0
LINE
  8
0
 10
133.257
 20
85.9476
 11
133.326
 21
86.1626
  0
LINE
  8
0
 10
133.326
 20
86.1626
 11
133.423
 21
86.3671
  0
LINE
  8
0
 10
133.423
 20
86.3671
 11
133.544
 21
86.558
  0
LINE
  8
0
 10
133.544
 20
86.558
 11
133.688
 21
86.7322
  0
LINE
  8
0
 10
133.688
 20
86.7322
 11
133.853
 21
86.8869
  0
LINE
  8
0
 10
133.853
 20
86.8869
 11
134.036
 21
87.0198
  0
LINE
  8
0
 10
134.036
 20
87.0198
 11
134.234
 21
87.1287
  0
LINE
  8
0
 10
134.234
 20
87.1287
 11
134.444
 21
87.2119
  0
LINE
  8
0
 10
134.444
 20
87.2119
 11
134.663
 21
87.2681
  0
LINE
  8
0
 10
134.663
 20
87.2681
 11
134.887
 21
87.2964
  0
LINE
  8
0
 10
134.887
 20
87.2964
 11
135.113
 21
87.2964
  0
LINE
  8
0
 10
135.113
 20
87.2964
 11
135.337
 21
87.2681
  0
LINE
  8
0
 10
135.337
 20
87.2681
 11
135.556
 21
87.2119
  0
LINE
  8
0
 10
135.556
 20
87.2119
 11
135.766
 21
87.1287
  0
LINE
  8
0
 10
135.766
 20
87.1287
 11
135.964
 21
87.0198
  0
LINE
  8
0
 10
135.964
 20
87.0198
 11
136.147
 21
86.8869
  0
LINE
  8
0
 10
136.147
 20
86.8869
 11
136.312
 21
86.7322
  0
LINE
  8
0
 10
136.312
 20
86.7322
 11
136.456
 21
86.558
  0
LINE
  8
0
 10
136.456
 20
86.558
 11
136.577
 21
86.3671
  0
LINE
  8
0
 10
136.577
 20
86.3671
 11
136.674
 21
86.1626
  0
LINE
  8
0
 10
136.674
 20
86.1626
 11
136.743
 21
85.9476
  0
LINE
  8
0
 10
136.743
 20
85.9476
 11
136.786
 21
85.7256
  0
LINE
  8
0
 10
136.786
 20
85.7256
 11
136.8
 21
85.5
  0
LINE
  8
0
 10
136.8
 20
85.5
 11
136.786
 21
85.2744
  0
LINE
  8
0
 10
136.786
 20
85.2744
 11
136.743
 21
85.0524
  0
LINE
  8
0
 10
136.743
 20
85.0524
 11
136.674
 21
84.8374
  0
LINE
  8
0
 10
136.674
 20
84.8374
 11
136.577
 21
84.6328
  0
LINE
  8
0
 10
136.577
 20
84.6328
 11
136.456
 21
84.442
  0
LINE
  8
0
 10
136.456
 20
84.442
 11
136.312
 21
84.2678
  0
LINE
  8
0
 10
136.312
 20
84.2678
 11
136.147
 21
84.1131
  0
LINE
  8
0
 10
136.147
 20
84.1131
 11
135.964
 21
83.9802
  0
LINE
  8
0
 10
135.964
 20
83.9802
 11
135.766
 21
83.8713
  0
LINE
  8
0
 10
135.766
 20
83.8713
 11
135.556
 21
83.7881
  0
LINE
  8
0
 10
135.556
 20
83.7881
 11
135.337
 21
83.7319
  0
LINE
  8
0
 10
135.337
 20
83.7319
 11
135.113
 21
83.7036
  0
LINE
  8
0
 10
135.113
 20
83.7036
 11
134.887
 21
83.7036
  0
LINE
  8
0
 10
-135.113
 20
83.7036
 11
-135.337
 21
83.7319
  0
LINE
  8
0
 10
-135.337
 20
83.7319
 11
-135.556
 21
83.7881
  0
LINE
  8
0
 10
-135.556
 20
83.7881
 11
-135.766
 21
83.8713
  0
LINE
  8
0
 10
-135.766
 20
83.8713
 11
-135.964
 21
83.9802
  0
LINE
  8
0
 10
-135.964
 20
83.9802
 11
-136.147
 21
84.1131
  0
LINE
  8
0
 10
-136.147
 20
84.1131
 11
-136.312
 21
84.2678
  0
LINE
  8
0
 10
-136.312
 20
84.2678
 11
-136.456
 21
84.442
  0
LINE
  8
0
 10
-136.456
 20
84.442
 11
-136.577
 21
84.6328
  0
LINE
  8
0
 10
-136.577
 20
84.6328
 11
-136.674
 21
84.8374
  0
LINE
  8
0
 10
-136.674
 20
84.8374
 11
-136.743
 21
85.0524
  0
LINE
  8
0
 10
-136.743
 20
85.0524
 11
-136.786
 21
85.2744
  0
LINE
  8
0
 10
-136.786
 20
85.2744
 11
-136.8
 21
85.5
  0
LINE
  8
0
 10
-136.8
 20
85.5
 11
-136.786
 21
85.7256
  0
LINE
  8
0
 10
-136.786
 20
85.7256
 11
-136.743
 21
85.9476
  0
LINE
  8
0
 10
-136.743
 20
85.9476
 11
-136.674
 21
86.1626
  0
LINE
  8
0
 10
-136.674
 20
86.1626
 11
-136.577
 21
86.3671
  0
LINE
  8
0
 10
-136.577
 20
86.3671
 11
-136.456
 21
86.558
  0
LINE
  8
0
 10
-136.456
 20
86.558
 11
-136.312
 21
86.7322
  0
LINE
  8
0
 10
-136.312
 20
86.7322
 11
-136.147
 21
86.8869
  0
LINE
  8
0
 10
-136.147
 20
86.8869
 11
-135.964
 21
87.0198
  0
LINE
  8
0
 10
-135.964
 20
87.0198
 11
-135.766
 21
87.1287
  0
LINE
  8
0
 10
-135.766
 20
87.1287
 11
-135.556
 21
87.2119
  0
LINE
  8
0
 10
-135.556
 20
87.2119
 11
-135.337
 21
87.2681
  0
LINE
  8
0
 10
-135.337
 20
87.2681
 11
-135.113
 21
87.2964
  0
LINE
  8
0
 10
-135.113
 20
87.2964
 11
-134.887
 21
87.2964
  0
LINE
  8
0
 10
-134.887
 20
87.2964
 11
-134.663
 21
87.2681
  0
LINE
  8
0
 10
-134.663
 20
87.2681
 11
-134.444
 21
87.2119
  0
LINE
  8
0
 10
-134.444
 20
87.2119
 11
-134.234
 21
87.1287
  0
LINE
  8
0
 10
-134.234
 20
87.1287
 11
-134.036
 21
87.0198
  0
LINE
  8
0
 10
-134.036
 20
87.0198
 11
-133.853
 21
86.8869
  0
LINE
  8
0
 10
-133.853
 20
86.8869
 11
-133.688
 21
86.7322
  0
LINE
  8
0
 10
-133.688
 20
86.7322
 11
-133.544
 21
86.558
  0
LINE
  8
0
 10
-133.544
 20
86.558
 11
-133.423
 21
86.3671
  0
LINE
  8
0
 10
-133.423
 20
86.3671
 11
-133.326
 21
86.1626
  0
LINE
  8
0
 10
-133.326
 20
86.1626
 11
-133.257
 21
85.9476
  0
LINE
  8
0
 10
-133.257
 20
85.9476
 11
-133.214
 21
85.7256
  0
LINE
  8
0
 10
-133.214
 20
85.7256
 11
-133.2
 21
85.5
  0
LINE
  8
0
 10
-133.2
 20
85.5
 11
-133.214
 21
85.2744
  0
LINE
  8
0
 10
-133.214
 20
85.2744
 11
-133.257
 21
85.0524
  0
LINE
  8
0
 10
-133.257
 20
85.0524
 11
-133.326
 21
84.8374
  0
LINE
  8
0
 10
-133.326
 20
84.8374
 11
-133.423
 21
84.6328
  0
LINE
  8
0
 10
-133.423
 20
84.6328
 11
-133.544
 21
84.442
  0
LINE
  8
0
 10
-133.544
 20
84.442
 11
-133.688
 21
84.2678
  0
LINE
  8
0
 10
-133.688
 20
84.2678
 11
-133.853
 21
84.1131
  0
LINE
  8
0
 10
-133.853
 20
84.1131
 11
-134.036
 21
83.9802
  0
LINE
  8
0
 10
-134.036
 20
83.9802
 11
-134.234
 21
83.8713
  0
LINE
  8
0
 10
-134.234
 20
83.8713
 11
-134.444
 21
83.7881
  0
LINE
  8
0
 10
-134.444
 20
83.7881
 11
-134.663
 21
83.7319
  0
LINE
  8
0
 10
-134.663
 20
83.7319
 11
-134.887
 21
83.7036
  0
LINE
  8
0
 10
-134.887
 20
83.7036
 11
-135.113
 21
83.7036
  0
LINE
  8
0
 10
-135.113
 20
68.7036
 11
-135.337
 21
68.7319
  0
LINE
  8
0
 10
-135.337
 20
68.7319
 11
-135.556
 21
68.7881
  0
LINE
  8
0
 10
-135.556
 20
68.7881
 11
-135.766
 21
68.8713
  0
LINE
  8
0
 10
-135.766
 20
68.8713
 11
-135.964
 21
68.9802
  0
LINE
  8
0
 10
-135.964
 20
68.9802
 11
-136.147
 21
69.1131
  0
LINE
  8
0
 10
-136.147
 20
69.1131
 11
-136.312
 21
69.2678
  0
LINE
  8
0
 10
-136.312
 20
69.2678
 11
-136.456
 21
69.442
  0
LINE
  8
0
 10
-136.456
 20
69.442
 11
-136.577
 21
69.6329
  0
LINE
  8
0
 10
-136.577
 20
69.6329
 11
-136.674
 21
69.8374
  0
LINE
  8
0
 10
-136.674
 20
69.8374
 11
-136.743
 21
70.0524
  0
LINE
  8
0
 10
-136.743
 20
70.0524
 11
-136.786
 21
70.2744
  0
LINE
  8
0
 10
-136.786
 20
70.2744
 11
-136.8
 21
70.5
  0
LINE
  8
0
 10
-136.8
 20
70.5
 11
-136.786
 21
70.7256
  0
LINE
  8
0
 10
-136.786
 20
70.7256
 11
-136.743
 21
70.9476
  0
LINE
  8
0
 10
-136.743
 20
70.9476
 11
-136.674
 21
71.1626
  0
LINE
  8
0
 10
-136.674
 20
71.1626
 11
-136.577
 21
71.3672
  0
LINE
  8
0
 10
-136.577
 20
71.3672
 11
-136.456
 21
71.558
  0
LINE
  8
0
 10
-136.456
 20
71.558
 11
-136.312
 21
71.7322
  0
LINE
  8
0
 10
-136.312
 20
71.7322
 11
-136.147
 21
71.8869
  0
LINE
  8
0
 10
-136.147
 20
71.8869
 11
-135.964
 21
72.0198
  0
LINE
  8
0
 10
-135.964
 20
72.0198
 11
-135.766
 21
72.1287
  0
LINE
  8
0
 10
-135.766
 20
72.1287
 11
-135.556
 21
72.2119
  0
LINE
  8
0
 10
-135.556
 20
72.2119
 11
-135.337
 21
72.2681
  0
LINE
  8
0
 10
-135.337
 20
72.2681
 11
-135.113
 21
72.2964
  0
LINE
  8
0
 10
-135.113
 20
72.2964
 11
-134.887
 21
72.2964
  0
LINE
  8
0
 10
-134.887
 20
72.2964
 11
-134.663
 21
72.2681
  0
LINE
  8
0
 10
-134.663
 20
72.2681
 11
-134.444
 21
72.2119
  0
LINE
  8
0
 10
-134.444
 20
72.2119
 11
-134.234
 21
72.1287
  0
LINE
  8
0
 10
-134.234
 20
72.1287
 11
-134.036
 21
72.0198
  0
LINE
  8
0
 10
-134.036
 20
72.0198
 11
-133.853
 21
71.8869
  0
LINE
  8
0
 10
-133.853
 20
71.8869
 11
-133.688
 21
71.7322
  0
LINE
  8
0
 10
-133.688
 20
71.7322
 11
-133.544
 21
71.558
  0
LINE
  8
0
 10
-133.544
 20
71.558
 11
-133.423
 21
71.3672
  0
LINE
  8
0
 10
-133.423
 20
71.3672
 11
-133.326
 21
71.1626
  0
LINE
  8
0
 10
-133.326
 20
71.1626
 11
-133.257
 21
70.9476
  0
LINE
  8
0
 10
-133.257
 20
70.9476
 11
-133.214
 21
70.7256
  0
LINE
  8
0
 10
-133.214
 20
70.7256
 11
-133.2
 21
70.5
  0
LINE
  8
0
 10
-133.2
 20
70.5
 11
-133.214
 21
70.2744
  0
LINE
  8
0
 10
-133.214
 20
70.2744
 11
-133.257
 21
70.0524
  0
LINE
  8
0
 10
-133.257
 20
70.0524
 11
-133.326
 21
69.8374
  0
LINE
  8
0
 10
-133.326
 20
69.8374
 11
-133.423
 21
69.6329
  0
LINE
  8
0
 10
-133.423
 20
69.6329
 11
-133.544
 21
69.442
  0
LINE
  8
0
 10
-133.544
 20
69.442
 11
-133.688
 21
69.2678
  0
LINE
  8
0
 10
-133.688
 20
69.2678
 11
-133.853
 21
69.1131
  0
LINE
  8
0
 10
-133.853
 20
69.1131
 11
-134.036
 21
68.9802
  0
LINE
  8
0
 10
-134.036
 20
68.9802
 11
-134.234
 21
68.8713
  0
LINE
  8
0
 10
-134.234
 20
68.8713
 11
-134.444
 21
68.7881
  0
LINE
  8
0
 10
-134.444
 20
68.7881
 11
-134.663
 21
68.7319
  0
LINE
  8
0
 10
-134.663
 20
68.7319
 11
-134.887
 21
68.7036
  0
LINE
  8
0
 10
-134.887
 20
68.7036
 11
-135.113
 21
68.7036
  0
LINE
  8
0
 10
134.887
 20
68.7036
 11
134.663
 21
68.7319
  0
LINE
  8
0
 10
134.663
 20
68.7319
 11
134.444
 21
68.7881
  0
LINE
  8
0
 10
134.444
 20
68.7881
 11
134.234
 21
68.8713
  0
LINE
  8
0
 10
134.234
 20
68.8713
 11
134.036
 21
68.9802
  0
LINE
  8
0
 10
134.036
 20
68.9802
 11
133.853
 21
69.1131
  0
LINE
  8
0
 10
133.853
 20
69.1131
 11
133.688
 21
69.2678
  0
LINE
  8
0
 10
133.688
 20
69.2678
 11
133.544
 21
69.442
  0
LINE
  8
0
 10
133.544
 20
69.442
 11
133.423
 21
69.6329
  0
LINE
  8
0
 10
133.423
 20
69.6329
 11
133.326
 21
69.8374
  0
LINE
  8
0
 10
133.326
 20
69.8374
 11
133.257
 21
70.0524
  0
LINE
  8
0
 10
133.257
 20
70.0524
 11
133.214
 21
70.2744
  0
LINE
  8
0
 10
133.214
 20
70.2744
 11
133.2
 21
70.5
  0
LINE
  8
0
 10
133.2
 20
70.5
 11
133.214
 21
70.7256
  0
LINE
  8
0
 10
133.214
 20
70.7256
 11
133.257
 21
70.9476
  0
LINE
  8
0
 10
133.257
 20
70.9476
 11
133.326
 21
71.1626
  0
LINE
  8
0
 10
133.326
 20
71.1626
 11
133.423
 21
71.3672
  0
LINE
  8
0
 10
133.423
 20
71.3672
 11
133.544
 21
71.558
  0
LINE
  8
0
 10
133.544
 20
71.558
 11
133.688
 21
71.7322
  0
LINE
  8
0
 10
133.688
 20
71.7322
 11
133.853
 21
71.8869
  0
LINE
  8
0
 10
133.853
 20
71.8869
 11
134.036
 21
72.0198
  0
LINE
  8
0
 10
134.036
 20
72.0198
 11
134.234
 21
72.1287
  0
LINE
  8
0
 10
134.234
 20
72.1287
 11
134.444
 21
72.2119
  0
LINE
  8
0
 10
134.444
 20
72.2119
 11
134.663
 21
72.2681
  0
LINE
  8
0
 10
134.663
 20
72.2681
 11
134.887
 21
72.2964
  0
LINE
  8
0
 10
134.887
 20
72.2964
 11
135.113
 21
72.2964
  0
LINE
  8
0
 10
135.113
 20
72.2964
 11
135.337
 21
72.2681
  0
LINE
  8
0
 10
135.337
 20
72.2681
 11
135.556
 21
72.2119
  0
LINE
  8
0
 10
135.556
 20
72.2119
 11
135.766
 21
72.1287
  0
LINE
  8
0
 10
135.766
 20
72.1287
 11
135.964
 21
72.0198
  0
LINE
  8
0
 10
135.964
 20
72.0198
 11
136.147
 21
71.8869
  0
LINE
  8
0
 10
136.147
 20
71.8869
 11
136.312
 21
71.7322
  0
LINE
  8
0
 10
136.312
 20
71.7322
 11
136.456
 21
71.558
  0
LINE
  8
0
 10
136.456
 20
71.558
 11
136.577
 21
71.3672
  0
LINE
  8
0
 10
136.577
 20
71.3672
 11
136.674
 21
71.1626
  0
LINE
  8
0
 10
136.674
 20
71.1626
 11
136.743
 21
70.9476
  0
LINE
  8
0
 10
136.743
 20
70.9476
 11
136.786
 21
70.7256
  0
LINE
  8
0
 10
136.786
 20
70.7256
 11
136.8
 21
70.5
  0
LINE
  8
0
 10
136.8
 20
70.5
 11
136.786
 21
70.2744
  0
LINE
  8
0
 10
136.786
 20
70.2744
 11
136.743
 21
70.0524
  0
LINE
  8
0
 10
136.743
 20
70.0524
 11
136.674
 21
69.8374
  0
LINE
  8
0
 10
136.674
 20
69.8374
 11
136.577
 21
69.6329
  0
LINE
  8
0
 10
136.577
 20
69.6329
 11
136.456
 21
69.442
  0
LINE
  8
0
 10
136.456
 20
69.442
 11
136.312
 21
69.2678
  0
LINE
  8
0
 10
136.312
 20
69.2678
 11
136.147
 21
69.1131
  0
LINE
  8
0
 10
136.147
 20
69.1131
 11
135.964
 21
68.9802
  0
LINE
  8
0
 10
135.964
 20
68.9802
 11
135.766
 21
68.8713
  0
LINE
  8
0
 10
135.766
 20
68.8713
 11
135.556
 21
68.7881
  0
LINE
  8
0
 10
135.556
 20
68.7881
 11
135.337
 21
68.7319
  0
LINE
  8
0
 10
135.337
 20
68.7319
 11
135.113
 21
68.7036
  0
LINE
  8
0
 10
135.113
 20
68.7036
 11
134.887
 21
68.7036
  0
ENDSEC
  0
SECTION
  2
OBJECTS
  0
DICTIONARY
  0
ENDSEC
  0
EOF
