<?xml version="1.0" standalone="no"?>
<!DOCTYPE svg PUBLIC "-//W3C//DTD SVG 1.1//EN" "http://www.w3.org/Graphics/SVG/1.1/DTD/svg11.dtd">
<svg width="270mm" height="108mm" viewBox="-135 -171 270 108" xmlns="http://www.w3.org/2000/svg" version="1.1">
<title>OpenSCAD Model</title>
<path d="
M 130.937,-141.089 L 131.545,-141.245 L 132.129,-141.476 L 132.679,-141.778 L 133.187,-142.147 L 133.645,-142.577
 L 134.045,-143.061 L 134.382,-143.591 L 134.649,-144.159 L 134.843,-144.757 L 134.961,-145.373 L 135,-146
 L 135,-166 L 134.961,-166.627 L 134.843,-167.243 L 134.649,-167.841 L 134.382,-168.409 L 134.045,-168.939
 L 133.645,-169.423 L 133.187,-169.853 L 132.679,-170.222 L 132.129,-170.524 L 131.545,-170.755 L 130.937,-170.911
 L 130.314,-170.99 L -130.314,-170.99 L -130.937,-170.911 L -131.545,-170.755 L -132.129,-170.524 L -132.679,-170.222
 L -133.187,-169.853 L -133.645,-169.423 L -134.045,-168.939 L -134.382,-168.409 L -134.649,-167.841 L -134.843,-167.243
 L -134.961,-166.627 L -135,-166 L -135,-146 L -134.961,-145.373 L -134.843,-144.757 L -134.649,-144.159
 L -134.382,-143.591 L -134.045,-143.061 L -133.645,-142.577 L -133.187,-142.147 L -132.679,-141.778 L -132.129,-141.476
 L -131.545,-141.245 L -130.937,-141.089 L -130.314,-141.01 L 130.314,-141.01 z
M -130.048,-141.509 L -130.64,-141.584 L -131.218,-141.732 L -131.772,-141.952 L -132.295,-142.239 L -132.778,-142.59
 L -133.213,-142.998 L -133.593,-143.458 L -133.912,-143.962 L -134.166,-144.501 L -134.351,-145.069 L -134.463,-145.655
 L -134.5,-146.25 L -134.5,-165.75 L -134.463,-166.345 L -134.351,-166.931 L -134.166,-167.499 L -133.912,-168.038
 L -133.593,-168.542 L -133.213,-169.002 L -132.778,-169.41 L -132.295,-169.761 L -131.772,-170.048 L -131.218,-170.268
 L -130.64,-170.416 L -130.048,-170.491 L 130.048,-170.491 L 130.64,-170.416 L 131.218,-170.268 L 131.772,-170.048
 L 132.295,-169.761 L 132.778,-169.41 L 133.213,-169.002 L 133.593,-168.542 L 133.912,-168.038 L 134.166,-167.499
 L 134.351,-166.931 L 134.463,-166.345 L 134.5,-165.75 L 134.5,-146.25 L 134.463,-145.655 L 134.351,-145.069
 L 134.166,-144.501 L 133.912,-143.962 L 133.593,-143.458 L 133.213,-142.998 L 132.778,-142.59 L 132.295,-142.239
 L 131.772,-141.952 L 131.218,-141.732 L 130.64,-141.584 L 130.048,-141.509 z
M 130.937,-102.089 L 131.545,-102.245 L 132.129,-102.476 L 132.679,-102.778 L 133.187,-103.147 L 133.645,-103.577
 L 134.045,-104.061 L 134.382,-104.591 L 134.649,-105.159 L 134.843,-105.757 L 134.961,-106.373 L 135,-107
 L 135,-127 L 134.961,-127.627 L 134.843,-128.243 L 134.649,-128.841 L 134.382,-129.409 L 134.045,-129.939
 L 133.645,-130.423 L 133.187,-130.853 L 132.679,-131.222 L 132.129,-131.524 L 131.545,-131.755 L 130.937,-131.911
 L 130.314,-131.99 L -130.314,-131.99 L -130.937,-131.911 L -131.545,-131.755 L -132.129,-131.524 L -132.679,-131.222
 L -133.187,-130.853 L -133.645,-130.423 L -134.045,-129.939 L -134.382,-129.409 L -134.649,-128.841 L -134.843,-128.243
 L -134.961,-127.627 L -135,-127 L -135,-107 L -134.961,-106.373 L -134.843,-105.757 L -134.649,-105.159
 L -134.382,-104.591 L -134.045,-104.061 L -133.645,-103.577 L -133.187,-103.147 L -132.679,-102.778 L -132.129,-102.476
 L -131.545,-102.245 L -130.937,-102.089 L -130.314,-102.01 L 130.314,-102.01 z
M -129.993,-103.388 L -130.475,-103.449 L -130.946,-103.57 L -131.398,-103.749 L -131.823,-103.983 L -132.216,-104.269
 L -132.571,-104.601 L -132.88,-104.976 L -133.141,-105.386 L -133.348,-105.826 L -133.498,-106.288 L -133.589,-106.765
 L -133.619,-107.25 L -133.619,-126.75 L -133.589,-127.235 L -133.498,-127.712 L -133.348,-128.174 L -133.141,-128.614
 L -132.88,-129.024 L -132.571,-129.399 L -132.216,-129.731 L -131.823,-130.017 L -131.398,-130.251 L -130.946,-130.43
 L -130.475,-130.551 L -129.993,-130.612 L 129.993,-130.612 L 130.475,-130.551 L 130.946,-130.43 L 131.398,-130.251
 L 131.823,-130.017 L 132.216,-129.731 L 132.571,-129.399 L 132.88,-129.024 L 133.141,-128.614 L 133.348,-128.174
 L 133.498,-127.712 L 133.589,-127.235 L 133.619,-126.75 L 133.619,-107.25 L 133.589,-106.765 L 133.498,-106.288
 L 133.348,-105.826 L 133.141,-105.386 L 132.88,-104.976 L 132.571,-104.601 L 132.216,-104.269 L 131.823,-103.983
 L 131.398,-103.749 L 130.946,-103.57 L 130.475,-103.449 L 129.993,-103.388 z
M 130.937,-63.0886 L 131.545,-63.2447 L 132.129,-63.4759 L 132.679,-63.7784 L 133.187,-64.1474 L 133.645,-64.5773
 L 134.045,-65.0611 L 134.382,-65.5912 L 134.649,-66.1594 L 134.843,-66.7566 L 134.961,-67.3733 L 135,-68
 L 135,-88 L 134.961,-88.6267 L 134.843,-89.2434 L 134.649,-89.8406 L 134.382,-90.4088 L 134.045,-90.9389
 L 133.645,-91.4227 L 133.187,-91.8526 L 132.679,-92.2216 L 132.129,-92.5241 L 131.545,-92.7553 L 130.937,-92.9114
 L 130.314,-92.9901 L -130.314,-92.9901 L -130.937,-92.9114 L -131.545,-92.7553 L -132.129,-92.5241 L -132.679,-92.2216
 L -133.187,-91.8526 L -133.645,-91.4227 L -134.045,-90.9389 L -134.382,-90.4088 L -134.649,-89.8406 L -134.843,-89.2434
 L -134.961,-88.6267 L -135,-88 L -135,-68 L -134.961,-67.3733 L -134.843,-66.7566 L -134.649,-66.1594
 L -134.382,-65.5912 L -134.045,-65.0611 L -133.645,-64.5773 L -133.187,-64.1474 L -132.679,-63.7784 L -132.129,-63.4759
 L -131.545,-63.2447 L -130.937,-63.0886 L -130.314,-63.0099 L 130.314,-63.0099 z
M 127.387,-83.7036 L 127.163,-83.7319 L 126.944,-83.7881 L 126.734,-83.8713 L 126.536,-83.9802 L 126.353,-84.1131
 L 126.188,-84.2678 L 126.044,-84.442 L 125.923,-84.6328 L 125.826,-84.8374 L 125.757,-85.0524 L 125.714,-85.2744
 L 125.7,-85.5 L 125.714,-85.7256 L 125.757,-85.9476 L 125.826,-86.1626 L 125.923,-86.3671 L 126.044,-86.558
 L 126.188,-86.7322 L 126.353,-86.8869 L 126.536,-87.0198 L 126.734,-87.1287 L 126.944,-87.2119 L 127.163,-87.2681
 L 127.387,-87.2964 L 127.613,-87.2964 L 127.837,-87.2681 L 128.056,-87.2119 L 128.266,-87.1287 L 128.464,-87.0198
 L 128.647,-86.8869 L 128.812,-86.7322 L 128.956,-86.558 L 129.077,-86.3671 L 129.174,-86.1626 L 129.243,-85.9476
 L 129.286,-85.7256 L 129.3,-85.5 L 129.286,-85.2744 L 129.243,-85.0524 L 129.174,-84.8374 L 129.077,-84.6328
 L 128.956,-84.442 L 128.812,-84.2678 L 128.647,-84.1131 L 128.464,-83.9802 L 128.266,-83.8713 L 128.056,-83.7881
 L 127.837,-83.7319 L 127.613,-83.7036 z
M -127.613,-83.7036 L -127.837,-83.7319 L -128.056,-83.7881 L -128.266,-83.8713 L -128.464,-83.9802 L -128.647,-84.1131
 L -128.812,-84.2678 L -128.956,-84.442 L -129.077,-84.6328 L -129.174,-84.8374 L -129.243,-85.0524 L -129.286,-85.2744
 L -129.3,-85.5 L -129.286,-85.7256 L -129.243,-85.9476 L -129.174,-86.1626 L -129.077,-86.3671 L -128.956,-86.558
 L -128.812,-86.7322 L -128.647,-86.8869 L -128.464,-87.0198 L -128.266,-87.1287 L -128.056,-87.2119 L -127.837,-87.2681
 L -127.613,-87.2964 L -127.387,-87.2964 L -127.163,-87.2681 L -126.944,-87.2119 L -126.734,-87.1287 L -126.536,-87.0198
 L -126.353,-86.8869 L -126.188,-86.7322 L -126.044,-86.558 L -125.923,-86.3671 L -125.826,-86.1626 L -125.757,-85.9476
 L -125.714,-85.7256 L -125.7,-85.5 L -125.714,-85.2744 L -125.757,-85.0524 L -125.826,-84.8374 L -125.923,-84.6328
 L -126.044,-84.442 L -126.188,-84.2678 L -126.353,-84.1131 L -126.536,-83.9802 L -126.734,-83.8713 L -126.944,-83.7881
 L -127.163,-83.7319 L -127.387,-83.7036 z
M 127.387,-68.7036 L 127.163,-68.7319 L 126.944,-68.7881 L 126.734,-68.8713 L 126.536,-68.9802 L 126.353,-69.1131
 L 126.188,-69.2678 L 126.044,-69.442 L 125.923,-69.6329 L 125.826,-69.8374 L 125.757,-70.0524 L 125.714,-70.2744
 L 125.7,-70.5 L 125.714,-70.7256 L 125.757,-70.9476 L 125.826,-71.1626 L 125.923,-71.3672 L 126.044,-71.558
 L 126.188,-71.7322 L 126.353,-71.8869 L 126.536,-72.0198 L 126.734,-72.1287 L 126.944,-72.2119 L 127.163,-72.2681
 L 127.387,-72.2964 L 127.613,-72.2964 L 127.837,-72.2681 L 128.056,-72.2119 L 128.266,-72.1287 L 128.464,-72.0198
 L 128.647,-71.8869 L 128.812,-71.7322 L 128.956,-71.558 L 129.077,-71.3672 L 129.174,-71.1626 L 129.243,-70.9476
 L 129.286,-70.7256 L 129.3,-70.5 L 129.286,-70.2744 L 129.243,-70.0524 L 129.174,-69.8374 L 129.077,-69.6329
 L 128.956,-69.442 L 128.812,-69.2678 L 128.647,-69.1131 L 128.464,-68.9802 L 128.266,-68.8713 L 128.056,-68.7881
 L 127.837,-68.7319 L 127.613,-68.7036 z
M -127.613,-68.7036 L -127.837,-68.7319 L -128.056,-68.7881 L -128.266,-68.8713 L -128.464,-68.9802 L -128.647,-69.1131
 L -128.812,-69.2678 L -128.956,-69.442 L -129.077,-69.6329 L -129.174,-69.8374 L -129.243,-70.0524 L -129.286,-70.2744
 L -129.3,-70.5 L -129.286,-70.7256 L -129.243,-70.9476 L -129.174,-71.1626 L -129.077,-71.3672 L -128.956,-71.558
 L -128.812,-71.7322 L -128.647,-71.8869 L -128.464,-72.0198 L -128.266,-72.1287 L -128.056,-72.2119 L -127.837,-72.2681
 L -127.613,-72.2964 L -127.387,-72.2964 L -127.163,-72.2681 L -126.944,-72.2119 L -126.734,-72.1287 L -126.536,-72.0198
 L -126.353,-71.8869 L -126.188,-71.7322 L -126.044,-71.558 L -125.923,-71.3672 L -125.826,-71.1626 L -125.757,-70.9476
 L -125.714,-70.7256 L -125.7,-70.5 L -125.714,-70.2744 L -125.757,-70.0524 L -125.826,-69.8374 L -125.923,-69.6329
 L -126.044,-69.442 L -126.188,-69.2678 L -126.353,-69.1131 L -126.536,-68.9802 L -126.734,-68.8713 L -126.944,-68.7881
 L -127.163,-68.7319 L -127.387,-68.7036 z
" stroke="black" fill="lightgray" stroke-width="0.5"/>
</svg>
