<?xml version="1.0" standalone="no"?>
<!DOCTYPE svg PUBLIC "-//W3C//DTD SVG 1.1//EN" "http://www.w3.org/Graphics/SVG/1.1/DTD/svg11.dtd">
<svg width="88mm" height="81mm" viewBox="-14 -176 88 81" xmlns="http://www.w3.org/2000/svg" version="1.1">
<title>OpenSCAD Model</title>
<path d="
M 62.5765,-148.494 L 64.249,-148.923 L 65.8545,-149.559 L 67.3676,-150.391 L 68.7646,-151.405 L 70.0233,-152.587
 L 71.124,-153.918 L 72.0492,-155.376 L 72.7844,-156.938 L 73.318,-158.581 L 73.6416,-160.277 L 73.75,-162
 L 73.6416,-163.723 L 73.318,-165.419 L 72.7844,-167.062 L 72.0492,-168.624 L 71.124,-170.082 L 70.0233,-171.413
 L 68.7646,-172.595 L 67.3676,-173.609 L 65.8545,-174.441 L 64.249,-175.077 L 62.5765,-175.506 L 60.8634,-175.723
 L 59.1366,-175.723 L 57.4235,-175.506 L 55.751,-175.077 L 54.1455,-174.441 L 52.6324,-173.609 L 51.2354,-172.595
 L 49.9767,-171.413 L 48.876,-170.082 L 47.9508,-168.624 L 47.2156,-167.062 L 46.682,-165.419 L 46.3584,-163.723
 L 46.25,-162 L 46.3584,-160.277 L 46.682,-158.581 L 47.2156,-156.938 L 47.9508,-155.376 L 48.876,-153.918
 L 49.9767,-152.587 L 51.2354,-151.405 L 52.6324,-150.391 L 54.1455,-149.559 L 55.751,-148.923 L 57.4235,-148.494
 L 59.1366,-148.277 L 60.8634,-148.277 z
M 59.9058,-168.003 L 59.7189,-168.027 L 59.5365,-168.073 L 59.3613,-168.143 L 59.1963,-168.234 L 59.0439,-168.344
 L 58.9065,-168.473 L 58.7865,-168.618 L 58.6855,-168.777 L 58.6053,-168.948 L 58.5471,-169.127 L 58.5118,-169.312
 L 58.5,-169.5 L 58.5118,-169.688 L 58.5471,-169.873 L 58.6053,-170.052 L 58.6855,-170.223 L 58.7865,-170.382
 L 58.9065,-170.527 L 59.0439,-170.656 L 59.1963,-170.766 L 59.3613,-170.857 L 59.5365,-170.927 L 59.7189,-170.973
 L 59.9058,-170.997 L 60.0942,-170.997 L 60.2811,-170.973 L 60.4635,-170.927 L 60.6387,-170.857 L 60.8037,-170.766
 L 60.9561,-170.656 L 61.0934,-170.527 L 61.2135,-170.382 L 61.3145,-170.223 L 61.3947,-170.052 L 61.4529,-169.873
 L 61.4882,-169.688 L 61.5,-169.5 L 61.4882,-169.312 L 61.4529,-169.127 L 61.3947,-168.948 L 61.3145,-168.777
 L 61.2135,-168.618 L 61.0934,-168.473 L 60.9561,-168.344 L 60.8037,-168.234 L 60.6387,-168.143 L 60.4635,-168.073
 L 60.2811,-168.027 L 60.0942,-168.003 z
M 54.584,-165.507 L 54.3597,-165.535 L 54.1408,-165.591 L 53.9306,-165.674 L 53.7325,-165.783 L 53.5496,-165.916
 L 53.3849,-166.071 L 53.2408,-166.245 L 53.1196,-166.436 L 53.0234,-166.64 L 52.9536,-166.855 L 52.9112,-167.077
 L 52.897,-167.303 L 52.9112,-167.529 L 52.9536,-167.751 L 53.0234,-167.966 L 53.1196,-168.17 L 53.2408,-168.361
 L 53.3849,-168.535 L 53.5496,-168.69 L 53.7325,-168.823 L 53.9306,-168.932 L 54.1408,-169.015 L 54.3597,-169.071
 L 54.584,-169.099 L 54.81,-169.099 L 55.0343,-169.071 L 55.2532,-169.015 L 55.4634,-168.932 L 55.6615,-168.823
 L 55.8444,-168.69 L 56.0091,-168.535 L 56.1532,-168.361 L 56.2744,-168.17 L 56.3706,-167.966 L 56.4404,-167.751
 L 56.4828,-167.529 L 56.497,-167.303 L 56.4828,-167.077 L 56.4404,-166.855 L 56.3706,-166.64 L 56.2744,-166.436
 L 56.1532,-166.245 L 56.0091,-166.071 L 55.8444,-165.916 L 55.6615,-165.783 L 55.4634,-165.674 L 55.2532,-165.591
 L 55.0343,-165.535 L 54.81,-165.507 z
M 57.3,-160.125 L 57.3,-163.875 L 62.7,-163.875 L 62.7,-160.125 z
M 67.4058,-160.503 L 67.2189,-160.527 L 67.0365,-160.573 L 66.8613,-160.643 L 66.6963,-160.734 L 66.5439,-160.844
 L 66.4065,-160.973 L 66.2865,-161.118 L 66.1855,-161.277 L 66.1053,-161.448 L 66.0471,-161.627 L 66.0118,-161.812
 L 66,-162 L 66.0118,-162.188 L 66.0471,-162.373 L 66.1053,-162.552 L 66.1855,-162.723 L 66.2865,-162.882
 L 66.4065,-163.027 L 66.5439,-163.156 L 66.6963,-163.266 L 66.8613,-163.357 L 67.0365,-163.427 L 67.2189,-163.473
 L 67.4058,-163.497 L 67.5942,-163.497 L 67.7811,-163.473 L 67.9635,-163.427 L 68.1387,-163.357 L 68.3037,-163.266
 L 68.4561,-163.156 L 68.5934,-163.027 L 68.7135,-162.882 L 68.8145,-162.723 L 68.8947,-162.552 L 68.9529,-162.373
 L 68.9882,-162.188 L 69,-162 L 68.9882,-161.812 L 68.9529,-161.627 L 68.8947,-161.448 L 68.8145,-161.277
 L 68.7135,-161.118 L 68.5934,-160.973 L 68.4561,-160.844 L 68.3037,-160.734 L 68.1387,-160.643 L 67.9635,-160.573
 L 67.7811,-160.527 L 67.5942,-160.503 z
M 52.4058,-160.503 L 52.2189,-160.527 L 52.0365,-160.573 L 51.8613,-160.643 L 51.6963,-160.734 L 51.5439,-160.844
 L 51.4065,-160.973 L 51.2865,-161.118 L 51.1855,-161.277 L 51.1053,-161.448 L 51.0471,-161.627 L 51.0118,-161.812
 L 51,-162 L 51.0118,-162.188 L 51.0471,-162.373 L 51.1053,-162.552 L 51.1855,-162.723 L 51.2865,-162.882
 L 51.4065,-163.027 L 51.5439,-163.156 L 51.6963,-163.266 L 51.8613,-163.357 L 52.0365,-163.427 L 52.2189,-163.473
 L 52.4058,-163.497 L 52.5942,-163.497 L 52.7811,-163.473 L 52.9635,-163.427 L 53.1387,-163.357 L 53.3037,-163.266
 L 53.4561,-163.156 L 53.5934,-163.027 L 53.7135,-162.882 L 53.8145,-162.723 L 53.8947,-162.552 L 53.9529,-162.373
 L 53.9882,-162.188 L 54,-162 L 53.9882,-161.812 L 53.9529,-161.627 L 53.8947,-161.448 L 53.8145,-161.277
 L 53.7135,-161.118 L 53.5934,-160.973 L 53.4561,-160.844 L 53.3037,-160.734 L 53.1387,-160.643 L 52.9635,-160.573
 L 52.7811,-160.527 L 52.5942,-160.503 z
M 63.7162,-153.949 L 62.1295,-156.697 L 63.7162,-159.445 L 66.8897,-159.445 L 68.4765,-156.697 L 66.8897,-153.949
 z
M 59.9058,-153.003 L 59.7189,-153.027 L 59.5365,-153.073 L 59.3613,-153.143 L 59.1963,-153.234 L 59.0439,-153.344
 L 58.9065,-153.473 L 58.7865,-153.618 L 58.6855,-153.777 L 58.6053,-153.948 L 58.5471,-154.127 L 58.5118,-154.312
 L 58.5,-154.5 L 58.5118,-154.688 L 58.5471,-154.873 L 58.6053,-155.052 L 58.6855,-155.223 L 58.7865,-155.382
 L 58.9065,-155.527 L 59.0439,-155.656 L 59.1963,-155.766 L 59.3613,-155.857 L 59.5365,-155.927 L 59.7189,-155.973
 L 59.9058,-155.997 L 60.0942,-155.997 L 60.2811,-155.973 L 60.4635,-155.927 L 60.6387,-155.857 L 60.8037,-155.766
 L 60.9561,-155.656 L 61.0934,-155.527 L 61.2135,-155.382 L 61.3145,-155.223 L 61.3947,-155.052 L 61.4529,-154.873
 L 61.4882,-154.688 L 61.5,-154.5 L 61.4882,-154.312 L 61.4529,-154.127 L 61.3947,-153.948 L 61.3145,-153.777
 L 61.2135,-153.618 L 61.0934,-153.473 L 60.9561,-153.344 L 60.8037,-153.234 L 60.6387,-153.143 L 60.4635,-153.073
 L 60.2811,-153.027 L 60.0942,-153.003 z
M 2.57649,-148.494 L 4.24898,-148.923 L 5.85446,-149.559 L 7.36761,-150.391 L 8.76457,-151.405 L 10.0233,-152.587
 L 11.124,-153.918 L 12.0492,-155.376 L 12.7844,-156.938 L 13.318,-158.581 L 13.6416,-160.277 L 13.75,-162
 L 13.6416,-163.723 L 13.318,-165.419 L 12.7844,-167.062 L 12.0492,-168.624 L 11.124,-170.082 L 10.0233,-171.413
 L 8.76457,-172.595 L 7.36761,-173.609 L 5.85446,-174.441 L 4.24898,-175.077 L 2.57649,-175.506 L 0.863358,-175.723
 L -0.863358,-175.723 L -2.57649,-175.506 L -4.24898,-175.077 L -5.85446,-174.441 L -7.36761,-173.609 L -8.76457,-172.595
 L -10.0233,-171.413 L -11.124,-170.082 L -12.0492,-168.624 L -12.7844,-167.062 L -13.318,-165.419 L -13.6416,-163.723
 L -13.75,-162 L -13.6416,-160.277 L -13.318,-158.581 L -12.7844,-156.938 L -12.0492,-155.376 L -11.124,-153.918
 L -10.0233,-152.587 L -8.76457,-151.405 L -7.36761,-150.391 L -5.85446,-149.559 L -4.24898,-148.923 L -2.57649,-148.494
 L -0.863358,-148.277 L 0.863358,-148.277 z
M -0.0941772,-168.003 L -0.281067,-168.027 L -0.463516,-168.073 L -0.638657,-168.143 L -0.803726,-168.234 L -0.956131,-168.344
 L -1.09344,-168.473 L -1.21352,-168.618 L -1.31445,-168.777 L -1.39465,-168.948 L -1.45287,-169.127 L -1.48816,-169.312
 L -1.5,-169.5 L -1.48816,-169.688 L -1.45287,-169.873 L -1.39465,-170.052 L -1.31445,-170.223 L -1.21352,-170.382
 L -1.09344,-170.527 L -0.956131,-170.656 L -0.803726,-170.766 L -0.638657,-170.857 L -0.463516,-170.927 L -0.281067,-170.973
 L -0.0941772,-170.997 L 0.0941772,-170.997 L 0.281067,-170.973 L 0.463516,-170.927 L 0.638657,-170.857 L 0.803726,-170.766
 L 0.956131,-170.656 L 1.09344,-170.527 L 1.21352,-170.382 L 1.31445,-170.223 L 1.39465,-170.052 L 1.45287,-169.873
 L 1.48816,-169.688 L 1.5,-169.5 L 1.48816,-169.312 L 1.45287,-169.127 L 1.39465,-168.948 L 1.31445,-168.777
 L 1.21352,-168.618 L 1.09344,-168.473 L 0.956131,-168.344 L 0.803726,-168.234 L 0.638657,-168.143 L 0.463516,-168.073
 L 0.281067,-168.027 L 0.0941772,-168.003 z
M 5.18997,-165.507 L 4.96571,-165.535 L 4.74677,-165.591 L 4.53659,-165.674 L 4.3385,-165.783 L 4.15562,-165.916
 L 3.99084,-166.071 L 3.84676,-166.245 L 3.72565,-166.436 L 3.62939,-166.64 L 3.55954,-166.855 L 3.51718,-167.077
 L 3.50299,-167.303 L 3.51718,-167.529 L 3.55954,-167.751 L 3.62939,-167.966 L 3.72565,-168.17 L 3.84676,-168.361
 L 3.99084,-168.535 L 4.15562,-168.69 L 4.3385,-168.823 L 4.53659,-168.932 L 4.74677,-169.015 L 4.96571,-169.071
 L 5.18997,-169.099 L 5.41602,-169.099 L 5.64027,-169.071 L 5.85922,-169.015 L 6.0694,-168.932 L 6.26749,-168.823
 L 6.45035,-168.69 L 6.61514,-168.535 L 6.75922,-168.361 L 6.88034,-168.17 L 6.97659,-167.966 L 7.04645,-167.751
 L 7.08879,-167.529 L 7.103,-167.303 L 7.08879,-167.077 L 7.04645,-166.855 L 6.97659,-166.64 L 6.88034,-166.436
 L 6.75922,-166.245 L 6.61514,-166.071 L 6.45035,-165.916 L 6.26749,-165.783 L 6.0694,-165.674 L 5.85922,-165.591
 L 5.64027,-165.535 L 5.41602,-165.507 z
M -7.59418,-160.503 L -7.78107,-160.527 L -7.96352,-160.573 L -8.13866,-160.643 L -8.30373,-160.734 L -8.45613,-160.844
 L -8.59344,-160.973 L -8.71352,-161.118 L -8.81445,-161.277 L -8.89465,-161.448 L -8.95287,-161.627 L -8.98816,-161.812
 L -9,-162 L -8.98816,-162.188 L -8.95287,-162.373 L -8.89465,-162.552 L -8.81445,-162.723 L -8.71352,-162.882
 L -8.59344,-163.027 L -8.45613,-163.156 L -8.30373,-163.266 L -8.13866,-163.357 L -7.96352,-163.427 L -7.78107,-163.473
 L -7.59418,-163.497 L -7.40581,-163.497 L -7.21892,-163.473 L -7.03647,-163.427 L -6.86133,-163.357 L -6.69626,-163.266
 L -6.54385,-163.156 L -6.40654,-163.027 L -6.28647,-162.882 L -6.18553,-162.723 L -6.10533,-162.552 L -6.04712,-162.373
 L -6.01183,-162.188 L -6,-162 L -6.01183,-161.812 L -6.04712,-161.627 L -6.10533,-161.448 L -6.18553,-161.277
 L -6.28647,-161.118 L -6.40654,-160.973 L -6.54385,-160.844 L -6.69626,-160.734 L -6.86133,-160.643 L -7.03647,-160.573
 L -7.21892,-160.527 L -7.40581,-160.503 z
M 7.40581,-160.503 L 7.21892,-160.527 L 7.03647,-160.573 L 6.86133,-160.643 L 6.69626,-160.734 L 6.54385,-160.844
 L 6.40654,-160.973 L 6.28647,-161.118 L 6.18553,-161.277 L 6.10533,-161.448 L 6.04712,-161.627 L 6.01183,-161.812
 L 6,-162 L 6.01183,-162.188 L 6.04712,-162.373 L 6.10533,-162.552 L 6.18553,-162.723 L 6.28647,-162.882
 L 6.40654,-163.027 L 6.54385,-163.156 L 6.69626,-163.266 L 6.86133,-163.357 L 7.03647,-163.427 L 7.21892,-163.473
 L 7.40581,-163.497 L 7.59418,-163.497 L 7.78107,-163.473 L 7.96352,-163.427 L 8.13866,-163.357 L 8.30373,-163.266
 L 8.45613,-163.156 L 8.59344,-163.027 L 8.71352,-162.882 L 8.81445,-162.723 L 8.89465,-162.552 L 8.95287,-162.373
 L 8.98816,-162.188 L 9,-162 L 8.98816,-161.812 L 8.95287,-161.627 L 8.89465,-161.448 L 8.81445,-161.277
 L 8.71352,-161.118 L 8.59344,-160.973 L 8.45613,-160.844 L 8.30373,-160.734 L 8.13866,-160.643 L 7.96352,-160.573
 L 7.78107,-160.527 L 7.59418,-160.503 z
M -0.0627899,-161.002 L -0.187378,-161.018 L -0.309006,-161.049 L -0.425766,-161.095 L -0.535812,-161.156 L -0.637421,-161.229
 L -0.728958,-161.315 L -0.809006,-161.412 L -0.876297,-161.518 L -0.929764,-161.632 L -0.968582,-161.751 L -0.992111,-161.875
 L -1,-162 L -0.992111,-162.125 L -0.968582,-162.249 L -0.929764,-162.368 L -0.876297,-162.482 L -0.809006,-162.588
 L -0.728958,-162.685 L -0.637421,-162.771 L -0.535812,-162.844 L -0.425766,-162.905 L -0.309006,-162.951 L -0.187378,-162.982
 L -0.0627899,-162.998 L 0.0627899,-162.998 L 0.187378,-162.982 L 0.309006,-162.951 L 0.425766,-162.905 L 0.535812,-162.844
 L 0.637421,-162.771 L 0.728958,-162.685 L 0.809006,-162.588 L 0.876297,-162.482 L 0.929764,-162.368 L 0.968582,-162.249
 L 0.992111,-162.125 L 1,-162 L 0.992111,-161.875 L 0.968582,-161.751 L 0.929764,-161.632 L 0.876297,-161.518
 L 0.809006,-161.412 L 0.728958,-161.315 L 0.637421,-161.229 L 0.535812,-161.156 L 0.425766,-161.095 L 0.309006,-161.049
 L 0.187378,-161.018 L 0.0627899,-161.002 z
M -6.88974,-153.949 L -8.47649,-156.697 L -6.88974,-159.445 L -3.71625,-159.445 L -2.1295,-156.697 L -3.71625,-153.949
 z
M -0.0941772,-153.003 L -0.281067,-153.027 L -0.463516,-153.073 L -0.638657,-153.143 L -0.803726,-153.234 L -0.956131,-153.344
 L -1.09344,-153.473 L -1.21352,-153.618 L -1.31445,-153.777 L -1.39465,-153.948 L -1.45287,-154.127 L -1.48816,-154.312
 L -1.5,-154.5 L -1.48816,-154.688 L -1.45287,-154.873 L -1.39465,-155.052 L -1.31445,-155.223 L -1.21352,-155.382
 L -1.09344,-155.527 L -0.956131,-155.656 L -0.803726,-155.766 L -0.638657,-155.857 L -0.463516,-155.927 L -0.281067,-155.973
 L -0.0941772,-155.997 L 0.0941772,-155.997 L 0.281067,-155.973 L 0.463516,-155.927 L 0.638657,-155.857 L 0.803726,-155.766
 L 0.956131,-155.656 L 1.09344,-155.527 L 1.21352,-155.382 L 1.31445,-155.223 L 1.39465,-155.052 L 1.45287,-154.873
 L 1.48816,-154.688 L 1.5,-154.5 L 1.48816,-154.312 L 1.45287,-154.127 L 1.39465,-153.948 L 1.31445,-153.777
 L 1.21352,-153.618 L 1.09344,-153.473 L 0.956131,-153.344 L 0.803726,-153.234 L 0.638657,-153.143 L 0.463516,-153.073
 L 0.281067,-153.027 L 0.0941772,-153.003 z
M 2.34225,-95.7214 L 3.8627,-96.1118 L 5.32224,-96.6897 L 6.69783,-97.4459 L 7.96779,-98.3686 L 9.11211,-99.4432
 L 10.1127,-100.653 L 10.9538,-101.978 L 11.6222,-103.398 L 12.1073,-104.891 L 12.4014,-106.433 L 12.5,-108
 L 12.4014,-109.567 L 12.1073,-111.109 L 11.6222,-112.602 L 10.9538,-114.022 L 10.1127,-115.347 L 9.11211,-116.557
 L 7.96779,-117.631 L 6.69783,-118.554 L 5.32224,-119.31 L 3.8627,-119.888 L 2.34225,-120.279 L 0.784866,-120.475
 L -0.784866,-120.475 L -2.34225,-120.279 L -3.8627,-119.888 L -5.32224,-119.31 L -6.69783,-118.554 L -7.96779,-117.631
 L -9.11211,-116.557 L -10.1127,-115.347 L -10.9538,-114.022 L -11.6222,-112.602 L -12.1073,-111.109 L -12.4014,-109.567
 L -12.5,-108 L -12.4014,-106.433 L -12.1073,-104.891 L -11.6222,-103.398 L -10.9538,-101.978 L -10.1127,-100.653
 L -9.11211,-99.4432 L -7.96779,-98.3686 L -6.69783,-97.4459 L -5.32224,-96.6897 L -3.8627,-96.1118 L -2.34225,-95.7214
 L -0.784866,-95.5247 L 0.784866,-95.5247 z
M -0.0941772,-114.003 L -0.281067,-114.027 L -0.463516,-114.073 L -0.638657,-114.143 L -0.803726,-114.234 L -0.956131,-114.344
 L -1.09344,-114.473 L -1.21352,-114.618 L -1.31445,-114.777 L -1.39465,-114.948 L -1.45287,-115.127 L -1.48816,-115.312
 L -1.5,-115.5 L -1.48816,-115.688 L -1.45287,-115.873 L -1.39465,-116.052 L -1.31445,-116.223 L -1.21352,-116.382
 L -1.09344,-116.527 L -0.956131,-116.656 L -0.803726,-116.766 L -0.638657,-116.857 L -0.463516,-116.927 L -0.281067,-116.973
 L -0.0941772,-116.997 L 0.0941772,-116.997 L 0.281067,-116.973 L 0.463516,-116.927 L 0.638657,-116.857 L 0.803726,-116.766
 L 0.956131,-116.656 L 1.09344,-116.527 L 1.21352,-116.382 L 1.31445,-116.223 L 1.39465,-116.052 L 1.45287,-115.873
 L 1.48816,-115.688 L 1.5,-115.5 L 1.48816,-115.312 L 1.45287,-115.127 L 1.39465,-114.948 L 1.31445,-114.777
 L 1.21352,-114.618 L 1.09344,-114.473 L 0.956131,-114.344 L 0.803726,-114.234 L 0.638657,-114.143 L 0.463516,-114.073
 L 0.281067,-114.027 L 0.0941772,-114.003 z
M 5.18997,-111.507 L 4.96571,-111.535 L 4.74677,-111.591 L 4.53659,-111.674 L 4.3385,-111.783 L 4.15562,-111.916
 L 3.99084,-112.071 L 3.84676,-112.245 L 3.72565,-112.436 L 3.62939,-112.64 L 3.55954,-112.855 L 3.51718,-113.077
 L 3.50299,-113.303 L 3.51718,-113.529 L 3.55954,-113.751 L 3.62939,-113.966 L 3.72565,-114.17 L 3.84676,-114.361
 L 3.99084,-114.535 L 4.15562,-114.69 L 4.3385,-114.823 L 4.53659,-114.932 L 4.74677,-115.015 L 4.96571,-115.071
 L 5.18997,-115.099 L 5.41602,-115.099 L 5.64027,-115.071 L 5.85922,-115.015 L 6.0694,-114.932 L 6.26749,-114.823
 L 6.45035,-114.69 L 6.61514,-114.535 L 6.75922,-114.361 L 6.88034,-114.17 L 6.97659,-113.966 L 7.04645,-113.751
 L 7.08879,-113.529 L 7.103,-113.303 L 7.08879,-113.077 L 7.04645,-112.855 L 6.97659,-112.64 L 6.88034,-112.436
 L 6.75922,-112.245 L 6.61514,-112.071 L 6.45035,-111.916 L 6.26749,-111.783 L 6.0694,-111.674 L 5.85922,-111.591
 L 5.64027,-111.535 L 5.41602,-111.507 z
M -2.7,-106.125 L -2.7,-109.875 L 2.7,-109.875 L 2.7,-106.125 z
M -7.59418,-106.503 L -7.78107,-106.527 L -7.96352,-106.573 L -8.13866,-106.643 L -8.30373,-106.734 L -8.45613,-106.844
 L -8.59344,-106.973 L -8.71352,-107.118 L -8.81445,-107.277 L -8.89465,-107.448 L -8.95287,-107.627 L -8.98816,-107.812
 L -9,-108 L -8.98816,-108.188 L -8.95287,-108.373 L -8.89465,-108.552 L -8.81445,-108.723 L -8.71352,-108.882
 L -8.59344,-109.027 L -8.45613,-109.156 L -8.30373,-109.266 L -8.13866,-109.357 L -7.96352,-109.427 L -7.78107,-109.473
 L -7.59418,-109.497 L -7.40581,-109.497 L -7.21892,-109.473 L -7.03647,-109.427 L -6.86133,-109.357 L -6.69626,-109.266
 L -6.54385,-109.156 L -6.40654,-109.027 L -6.28647,-108.882 L -6.18553,-108.723 L -6.10533,-108.552 L -6.04712,-108.373
 L -6.01183,-108.188 L -6,-108 L -6.01183,-107.812 L -6.04712,-107.627 L -6.10533,-107.448 L -6.18553,-107.277
 L -6.28647,-107.118 L -6.40654,-106.973 L -6.54385,-106.844 L -6.69626,-106.734 L -6.86133,-106.643 L -7.03647,-106.573
 L -7.21892,-106.527 L -7.40581,-106.503 z
M 7.40581,-106.503 L 7.21892,-106.527 L 7.03647,-106.573 L 6.86133,-106.643 L 6.69626,-106.734 L 6.54385,-106.844
 L 6.40654,-106.973 L 6.28647,-107.118 L 6.18553,-107.277 L 6.10533,-107.448 L 6.04712,-107.627 L 6.01183,-107.812
 L 6,-108 L 6.01183,-108.188 L 6.04712,-108.373 L 6.10533,-108.552 L 6.18553,-108.723 L 6.28647,-108.882
 L 6.40654,-109.027 L 6.54385,-109.156 L 6.69626,-109.266 L 6.86133,-109.357 L 7.03647,-109.427 L 7.21892,-109.473
 L 7.40581,-109.497 L 7.59418,-109.497 L 7.78107,-109.473 L 7.96352,-109.427 L 8.13866,-109.357 L 8.30373,-109.266
 L 8.45613,-109.156 L 8.59344,-109.027 L 8.71352,-108.882 L 8.81445,-108.723 L 8.89465,-108.552 L 8.95287,-108.373
 L 8.98816,-108.188 L 9,-108 L 8.98816,-107.812 L 8.95287,-107.627 L 8.89465,-107.448 L 8.81445,-107.277
 L 8.71352,-107.118 L 8.59344,-106.973 L 8.45613,-106.844 L 8.30373,-106.734 L 8.13866,-106.643 L 7.96352,-106.573
 L 7.78107,-106.527 L 7.59418,-106.503 z
M -5.41602,-100.901 L -5.64027,-100.929 L -5.85922,-100.985 L -6.0694,-101.068 L -6.26749,-101.177 L -6.45035,-101.31
 L -6.61514,-101.465 L -6.75922,-101.639 L -6.88034,-101.83 L -6.97659,-102.034 L -7.04645,-102.249 L -7.08879,-102.471
 L -7.103,-102.697 L -7.08879,-102.923 L -7.04645,-103.145 L -6.97659,-103.36 L -6.88034,-103.564 L -6.75922,-103.755
 L -6.61514,-103.929 L -6.45035,-104.084 L -6.26749,-104.217 L -6.0694,-104.326 L -5.85922,-104.409 L -5.64027,-104.465
 L -5.41602,-104.493 L -5.18997,-104.493 L -4.96571,-104.465 L -4.74677,-104.409 L -4.53659,-104.326 L -4.3385,-104.217
 L -4.15562,-104.084 L -3.99084,-103.929 L -3.84676,-103.755 L -3.72565,-103.564 L -3.62939,-103.36 L -3.55954,-103.145
 L -3.51718,-102.923 L -3.50299,-102.697 L -3.51718,-102.471 L -3.55954,-102.249 L -3.62939,-102.034 L -3.72565,-101.83
 L -3.84676,-101.639 L -3.99084,-101.465 L -4.15562,-101.31 L -4.3385,-101.177 L -4.53659,-101.068 L -4.74677,-100.985
 L -4.96571,-100.929 L -5.18997,-100.901 z
M -0.0941772,-99.003 L -0.281067,-99.0266 L -0.463516,-99.0734 L -0.638657,-99.1428 L -0.803726,-99.2335 L -0.956131,-99.3442
 L -1.09344,-99.4732 L -1.21352,-99.6183 L -1.31445,-99.7774 L -1.39465,-99.9478 L -1.45287,-100.127 L -1.48816,-100.312
 L -1.5,-100.5 L -1.48816,-100.688 L -1.45287,-100.873 L -1.39465,-101.052 L -1.31445,-101.223 L -1.21352,-101.382
 L -1.09344,-101.527 L -0.956131,-101.656 L -0.803726,-101.766 L -0.638657,-101.857 L -0.463516,-101.927 L -0.281067,-101.973
 L -0.0941772,-101.997 L 0.0941772,-101.997 L 0.281067,-101.973 L 0.463516,-101.927 L 0.638657,-101.857 L 0.803726,-101.766
 L 0.956131,-101.656 L 1.09344,-101.527 L 1.21352,-101.382 L 1.31445,-101.223 L 1.39465,-101.052 L 1.45287,-100.873
 L 1.48816,-100.688 L 1.5,-100.5 L 1.48816,-100.312 L 1.45287,-100.127 L 1.39465,-99.9478 L 1.31445,-99.7774
 L 1.21352,-99.6183 L 1.09344,-99.4732 L 0.956131,-99.3442 L 0.803726,-99.2335 L 0.638657,-99.1428 L 0.463516,-99.0734
 L 0.281067,-99.0266 L 0.0941772,-99.003 z
M 62.3423,-95.7214 L 63.8627,-96.1118 L 65.3222,-96.6897 L 66.6978,-97.4459 L 67.9678,-98.3686 L 69.1121,-99.4432
 L 70.1127,-100.653 L 70.9538,-101.978 L 71.6222,-103.398 L 72.1073,-104.891 L 72.4014,-106.433 L 72.5,-108
 L 72.4014,-109.567 L 72.1073,-111.109 L 71.6222,-112.602 L 70.9538,-114.022 L 70.1127,-115.347 L 69.1121,-116.557
 L 67.9678,-117.631 L 66.6978,-118.554 L 65.3222,-119.31 L 63.8627,-119.888 L 62.3423,-120.279 L 60.7849,-120.475
 L 59.2151,-120.475 L 57.6577,-120.279 L 56.1373,-119.888 L 54.6777,-119.31 L 53.3022,-118.554 L 52.0322,-117.631
 L 50.8879,-116.557 L 49.8873,-115.347 L 49.0462,-114.022 L 48.3778,-112.602 L 47.8927,-111.109 L 47.5986,-109.567
 L 47.5,-108 L 47.5986,-106.433 L 47.8927,-104.891 L 48.3778,-103.398 L 49.0462,-101.978 L 49.8873,-100.653
 L 50.8879,-99.4432 L 52.0322,-98.3686 L 53.3022,-97.4459 L 54.6777,-96.6897 L 56.1373,-96.1118 L 57.6577,-95.7214
 L 59.2151,-95.5247 L 60.7849,-95.5247 z
M 59.9058,-114.003 L 59.7189,-114.027 L 59.5365,-114.073 L 59.3613,-114.143 L 59.1963,-114.234 L 59.0439,-114.344
 L 58.9065,-114.473 L 58.7865,-114.618 L 58.6855,-114.777 L 58.6053,-114.948 L 58.5471,-115.127 L 58.5118,-115.312
 L 58.5,-115.5 L 58.5118,-115.688 L 58.5471,-115.873 L 58.6053,-116.052 L 58.6855,-116.223 L 58.7865,-116.382
 L 58.9065,-116.527 L 59.0439,-116.656 L 59.1963,-116.766 L 59.3613,-116.857 L 59.5365,-116.927 L 59.7189,-116.973
 L 59.9058,-116.997 L 60.0942,-116.997 L 60.2811,-116.973 L 60.4635,-116.927 L 60.6387,-116.857 L 60.8037,-116.766
 L 60.9561,-116.656 L 61.0934,-116.527 L 61.2135,-116.382 L 61.3145,-116.223 L 61.3947,-116.052 L 61.4529,-115.873
 L 61.4882,-115.688 L 61.5,-115.5 L 61.4882,-115.312 L 61.4529,-115.127 L 61.3947,-114.948 L 61.3145,-114.777
 L 61.2135,-114.618 L 61.0934,-114.473 L 60.9561,-114.344 L 60.8037,-114.234 L 60.6387,-114.143 L 60.4635,-114.073
 L 60.2811,-114.027 L 60.0942,-114.003 z
M 54.584,-111.507 L 54.3597,-111.535 L 54.1408,-111.591 L 53.9306,-111.674 L 53.7325,-111.783 L 53.5496,-111.916
 L 53.3849,-112.071 L 53.2408,-112.245 L 53.1196,-112.436 L 53.0234,-112.64 L 52.9536,-112.855 L 52.9112,-113.077
 L 52.897,-113.303 L 52.9112,-113.529 L 52.9536,-113.751 L 53.0234,-113.966 L 53.1196,-114.17 L 53.2408,-114.361
 L 53.3849,-114.535 L 53.5496,-114.69 L 53.7325,-114.823 L 53.9306,-114.932 L 54.1408,-115.015 L 54.3597,-115.071
 L 54.584,-115.099 L 54.81,-115.099 L 55.0343,-115.071 L 55.2532,-115.015 L 55.4634,-114.932 L 55.6615,-114.823
 L 55.8444,-114.69 L 56.0091,-114.535 L 56.1532,-114.361 L 56.2744,-114.17 L 56.3706,-113.966 L 56.4404,-113.751
 L 56.4828,-113.529 L 56.497,-113.303 L 56.4828,-113.077 L 56.4404,-112.855 L 56.3706,-112.64 L 56.2744,-112.436
 L 56.1532,-112.245 L 56.0091,-112.071 L 55.8444,-111.916 L 55.6615,-111.783 L 55.4634,-111.674 L 55.2532,-111.591
 L 55.0343,-111.535 L 54.81,-111.507 z
M 57.3,-106.125 L 57.3,-109.875 L 62.7,-109.875 L 62.7,-106.125 z
M 52.4058,-106.503 L 52.2189,-106.527 L 52.0365,-106.573 L 51.8613,-106.643 L 51.6963,-106.734 L 51.5439,-106.844
 L 51.4065,-106.973 L 51.2865,-107.118 L 51.1855,-107.277 L 51.1053,-107.448 L 51.0471,-107.627 L 51.0118,-107.812
 L 51,-108 L 51.0118,-108.188 L 51.0471,-108.373 L 51.1053,-108.552 L 51.1855,-108.723 L 51.2865,-108.882
 L 51.4065,-109.027 L 51.5439,-109.156 L 51.6963,-109.266 L 51.8613,-109.357 L 52.0365,-109.427 L 52.2189,-109.473
 L 52.4058,-109.497 L 52.5942,-109.497 L 52.7811,-109.473 L 52.9635,-109.427 L 53.1387,-109.357 L 53.3037,-109.266
 L 53.4561,-109.156 L 53.5934,-109.027 L 53.7135,-108.882 L 53.8145,-108.723 L 53.8947,-108.552 L 53.9529,-108.373
 L 53.9882,-108.188 L 54,-108 L 53.9882,-107.812 L 53.9529,-107.627 L 53.8947,-107.448 L 53.8145,-107.277
 L 53.7135,-107.118 L 53.5934,-106.973 L 53.4561,-106.844 L 53.3037,-106.734 L 53.1387,-106.643 L 52.9635,-106.573
 L 52.7811,-106.527 L 52.5942,-106.503 z
M 67.4058,-106.503 L 67.2189,-106.527 L 67.0365,-106.573 L 66.8613,-106.643 L 66.6963,-106.734 L 66.5439,-106.844
 L 66.4065,-106.973 L 66.2865,-107.118 L 66.1855,-107.277 L 66.1053,-107.448 L 66.0471,-107.627 L 66.0118,-107.812
 L 66,-108 L 66.0118,-108.188 L 66.0471,-108.373 L 66.1053,-108.552 L 66.1855,-108.723 L 66.2865,-108.882
 L 66.4065,-109.027 L 66.5439,-109.156 L 66.6963,-109.266 L 66.8613,-109.357 L 67.0365,-109.427 L 67.2189,-109.473
 L 67.4058,-109.497 L 67.5942,-109.497 L 67.7811,-109.473 L 67.9635,-109.427 L 68.1387,-109.357 L 68.3037,-109.266
 L 68.4561,-109.156 L 68.5934,-109.027 L 68.7135,-108.882 L 68.8145,-108.723 L 68.8947,-108.552 L 68.9529,-108.373
 L 68.9882,-108.188 L 69,-108 L 68.9882,-107.812 L 68.9529,-107.627 L 68.8947,-107.448 L 68.8145,-107.277
 L 68.7135,-107.118 L 68.5934,-106.973 L 68.4561,-106.844 L 68.3037,-106.734 L 68.1387,-106.643 L 67.9635,-106.573
 L 67.7811,-106.527 L 67.5942,-106.503 z
M 65.19,-100.901 L 64.9657,-100.929 L 64.7468,-100.985 L 64.5366,-101.068 L 64.3385,-101.177 L 64.1556,-101.31
 L 63.9908,-101.465 L 63.8468,-101.639 L 63.7256,-101.83 L 63.6294,-102.034 L 63.5595,-102.249 L 63.5172,-102.471
 L 63.503,-102.697 L 63.5172,-102.923 L 63.5595,-103.145 L 63.6294,-103.36 L 63.7256,-103.564 L 63.8468,-103.755
 L 63.9908,-103.929 L 64.1556,-104.084 L 64.3385,-104.217 L 64.5366,-104.326 L 64.7468,-104.409 L 64.9657,-104.465
 L 65.19,-104.493 L 65.416,-104.493 L 65.6403,-104.465 L 65.8592,-104.409 L 66.0694,-104.326 L 66.2675,-104.217
 L 66.4504,-104.084 L 66.6151,-103.929 L 66.7592,-103.755 L 66.8803,-103.564 L 66.9766,-103.36 L 67.0464,-103.145
 L 67.0888,-102.923 L 67.103,-102.697 L 67.0888,-102.471 L 67.0464,-102.249 L 66.9766,-102.034 L 66.8803,-101.83
 L 66.7592,-101.639 L 66.6151,-101.465 L 66.4504,-101.31 L 66.2675,-101.177 L 66.0694,-101.068 L 65.8592,-100.985
 L 65.6403,-100.929 L 65.416,-100.901 z
M 59.9058,-99.003 L 59.7189,-99.0266 L 59.5365,-99.0734 L 59.3613,-99.1428 L 59.1963,-99.2335 L 59.0439,-99.3442
 L 58.9065,-99.4732 L 58.7865,-99.6183 L 58.6855,-99.7774 L 58.6053,-99.9478 L 58.5471,-100.127 L 58.5118,-100.312
 L 58.5,-100.5 L 58.5118,-100.688 L 58.5471,-100.873 L 58.6053,-101.052 L 58.6855,-101.223 L 58.7865,-101.382
 L 58.9065,-101.527 L 59.0439,-101.656 L 59.1963,-101.766 L 59.3613,-101.857 L 59.5365,-101.927 L 59.7189,-101.973
 L 59.9058,-101.997 L 60.0942,-101.997 L 60.2811,-101.973 L 60.4635,-101.927 L 60.6387,-101.857 L 60.8037,-101.766
 L 60.9561,-101.656 L 61.0934,-101.527 L 61.2135,-101.382 L 61.3145,-101.223 L 61.3947,-101.052 L 61.4529,-100.873
 L 61.4882,-100.688 L 61.5,-100.5 L 61.4882,-100.312 L 61.4529,-100.127 L 61.3947,-99.9478 L 61.3145,-99.7774
 L 61.2135,-99.6183 L 61.0934,-99.4732 L 60.9561,-99.3442 L 60.8037,-99.2335 L 60.6387,-99.1428 L 60.4635,-99.0734
 L 60.2811,-99.0266 L 60.0942,-99.003 z
" stroke="black" fill="lightgray" stroke-width="0.5"/>
</svg>
