<?xml version="1.0" standalone="no"?>
<!DOCTYPE svg PUBLIC "-//W3C//DTD SVG 1.1//EN" "http://www.w3.org/Graphics/SVG/1.1/DTD/svg11.dtd">
<svg width="256mm" height="580mm" viewBox="-128 -731 256 580" xmlns="http://www.w3.org/2000/svg" version="1.1">
<title>OpenSCAD Model</title>
<path d="
M 123.437,-445.589 L 124.045,-445.745 L 124.629,-445.976 L 125.179,-446.278 L 125.687,-446.647 L 126.145,-447.077
 L 126.545,-447.561 L 126.882,-448.091 L 127.149,-448.659 L 127.343,-449.257 L 127.461,-449.873 L 127.5,-450.5
 L 127.5,-725.5 L 127.461,-726.127 L 127.343,-726.743 L 127.149,-727.341 L 126.882,-727.909 L 126.545,-728.439
 L 126.145,-728.923 L 125.687,-729.353 L 125.179,-729.722 L 124.629,-730.024 L 124.045,-730.255 L 123.437,-730.411
 L 122.814,-730.49 L -122.814,-730.49 L -123.437,-730.411 L -124.045,-730.255 L -124.629,-730.024 L -125.179,-729.722
 L -125.687,-729.353 L -126.145,-728.923 L -126.545,-728.439 L -126.882,-727.909 L -127.149,-727.341 L -127.343,-726.743
 L -127.461,-726.127 L -127.5,-725.5 L -127.5,-450.5 L -127.461,-449.873 L -127.343,-449.257 L -127.149,-448.659
 L -126.882,-448.091 L -126.545,-447.561 L -126.145,-447.077 L -125.687,-446.647 L -125.179,-446.278 L -124.629,-445.976
 L -124.045,-445.745 L -123.437,-445.589 L -122.814,-445.51 L 122.814,-445.51 z
M 119.849,-720.605 L 119.55,-720.643 L 119.258,-720.717 L 118.978,-720.828 L 118.714,-720.974 L 118.47,-721.151
 L 118.25,-721.357 L 118.058,-721.589 L 117.897,-721.844 L 117.769,-722.117 L 117.675,-722.403 L 117.619,-722.699
 L 117.6,-723 L 117.619,-723.301 L 117.675,-723.597 L 117.769,-723.883 L 117.897,-724.156 L 118.058,-724.411
 L 118.25,-724.643 L 118.47,-724.849 L 118.714,-725.026 L 118.978,-725.172 L 119.258,-725.283 L 119.55,-725.357
 L 119.849,-725.395 L 120.151,-725.395 L 120.45,-725.357 L 120.742,-725.283 L 121.022,-725.172 L 121.286,-725.026
 L 121.53,-724.849 L 121.75,-724.643 L 121.942,-724.411 L 122.103,-724.156 L 122.231,-723.883 L 122.325,-723.597
 L 122.381,-723.301 L 122.4,-723 L 122.381,-722.699 L 122.325,-722.403 L 122.231,-722.117 L 122.103,-721.844
 L 121.942,-721.589 L 121.75,-721.357 L 121.53,-721.151 L 121.286,-720.974 L 121.022,-720.828 L 120.742,-720.717
 L 120.45,-720.643 L 120.151,-720.605 z
M -120.151,-720.605 L -120.45,-720.643 L -120.742,-720.717 L -121.022,-720.828 L -121.286,-720.974 L -121.53,-721.151
 L -121.75,-721.357 L -121.942,-721.589 L -122.103,-721.844 L -122.231,-722.117 L -122.325,-722.403 L -122.381,-722.699
 L -122.4,-723 L -122.381,-723.301 L -122.325,-723.597 L -122.231,-723.883 L -122.103,-724.156 L -121.942,-724.411
 L -121.75,-724.643 L -121.53,-724.849 L -121.286,-725.026 L -121.022,-725.172 L -120.742,-725.283 L -120.45,-725.357
 L -120.151,-725.395 L -119.849,-725.395 L -119.55,-725.357 L -119.258,-725.283 L -118.978,-725.172 L -118.714,-725.026
 L -118.47,-724.849 L -118.25,-724.643 L -118.058,-724.411 L -117.897,-724.156 L -117.769,-723.883 L -117.675,-723.597
 L -117.619,-723.301 L -117.6,-723 L -117.619,-722.699 L -117.675,-722.403 L -117.769,-722.117 L -117.897,-721.844
 L -118.058,-721.589 L -118.25,-721.357 L -118.47,-721.151 L -118.714,-720.974 L -118.978,-720.828 L -119.258,-720.717
 L -119.55,-720.643 L -119.849,-720.605 z
M 119.849,-450.605 L 119.55,-450.643 L 119.258,-450.717 L 118.978,-450.828 L 118.714,-450.974 L 118.47,-451.151
 L 118.25,-451.357 L 118.058,-451.589 L 117.897,-451.844 L 117.769,-452.117 L 117.675,-452.403 L 117.619,-452.699
 L 117.6,-453 L 117.619,-453.301 L 117.675,-453.597 L 117.769,-453.883 L 117.897,-454.156 L 118.058,-454.411
 L 118.25,-454.643 L 118.47,-454.849 L 118.714,-455.026 L 118.978,-455.172 L 119.258,-455.283 L 119.55,-455.357
 L 119.849,-455.395 L 120.151,-455.395 L 120.45,-455.357 L 120.742,-455.283 L 121.022,-455.172 L 121.286,-455.026
 L 121.53,-454.849 L 121.75,-454.643 L 121.942,-454.411 L 122.103,-454.156 L 122.231,-453.883 L 122.325,-453.597
 L 122.381,-453.301 L 122.4,-453 L 122.381,-452.699 L 122.325,-452.403 L 122.231,-452.117 L 122.103,-451.844
 L 121.942,-451.589 L 121.75,-451.357 L 121.53,-451.151 L 121.286,-450.974 L 121.022,-450.828 L 120.742,-450.717
 L 120.45,-450.643 L 120.151,-450.605 z
M -120.151,-450.605 L -120.45,-450.643 L -120.742,-450.717 L -121.022,-450.828 L -121.286,-450.974 L -121.53,-451.151
 L -121.75,-451.357 L -121.942,-451.589 L -122.103,-451.844 L -122.231,-452.117 L -122.325,-452.403 L -122.381,-452.699
 L -122.4,-453 L -122.381,-453.301 L -122.325,-453.597 L -122.231,-453.883 L -122.103,-454.156 L -121.942,-454.411
 L -121.75,-454.643 L -121.53,-454.849 L -121.286,-455.026 L -121.022,-455.172 L -120.742,-455.283 L -120.45,-455.357
 L -120.151,-455.395 L -119.849,-455.395 L -119.55,-455.357 L -119.258,-455.283 L -118.978,-455.172 L -118.714,-455.026
 L -118.47,-454.849 L -118.25,-454.643 L -118.058,-454.411 L -117.897,-454.156 L -117.769,-453.883 L -117.675,-453.597
 L -117.619,-453.301 L -117.6,-453 L -117.619,-452.699 L -117.675,-452.403 L -117.769,-452.117 L -117.897,-451.844
 L -118.058,-451.589 L -118.25,-451.357 L -118.47,-451.151 L -118.714,-450.974 L -118.978,-450.828 L -119.258,-450.717
 L -119.55,-450.643 L -119.849,-450.605 z
M 123.437,-151.589 L 124.045,-151.745 L 124.629,-151.976 L 125.179,-152.278 L 125.687,-152.647 L 126.145,-153.077
 L 126.545,-153.561 L 126.882,-154.091 L 127.149,-154.659 L 127.343,-155.257 L 127.461,-155.873 L 127.5,-156.5
 L 127.5,-431.5 L 127.461,-432.127 L 127.343,-432.743 L 127.149,-433.341 L 126.882,-433.909 L 126.545,-434.439
 L 126.145,-434.923 L 125.687,-435.353 L 125.179,-435.722 L 124.629,-436.024 L 124.045,-436.255 L 123.437,-436.411
 L 122.814,-436.49 L -122.814,-436.49 L -123.437,-436.411 L -124.045,-436.255 L -124.629,-436.024 L -125.179,-435.722
 L -125.687,-435.353 L -126.145,-434.923 L -126.545,-434.439 L -126.882,-433.909 L -127.149,-433.341 L -127.343,-432.743
 L -127.461,-432.127 L -127.5,-431.5 L -127.5,-156.5 L -127.461,-155.873 L -127.343,-155.257 L -127.149,-154.659
 L -126.882,-154.091 L -126.545,-153.561 L -126.145,-153.077 L -125.687,-152.647 L -125.179,-152.278 L -124.629,-151.976
 L -124.045,-151.745 L -123.437,-151.589 L -122.814,-151.51 L 122.814,-151.51 z
M 119.887,-427.204 L 119.663,-427.232 L 119.444,-427.288 L 119.234,-427.371 L 119.036,-427.48 L 118.853,-427.613
 L 118.688,-427.768 L 118.544,-427.942 L 118.423,-428.133 L 118.326,-428.337 L 118.257,-428.552 L 118.214,-428.774
 L 118.2,-429 L 118.214,-429.226 L 118.257,-429.448 L 118.326,-429.663 L 118.423,-429.867 L 118.544,-430.058
 L 118.688,-430.232 L 118.853,-430.387 L 119.036,-430.52 L 119.234,-430.629 L 119.444,-430.712 L 119.663,-430.768
 L 119.887,-430.796 L 120.113,-430.796 L 120.337,-430.768 L 120.556,-430.712 L 120.766,-430.629 L 120.964,-430.52
 L 121.147,-430.387 L 121.312,-430.232 L 121.456,-430.058 L 121.577,-429.867 L 121.674,-429.663 L 121.743,-429.448
 L 121.786,-429.226 L 121.8,-429 L 121.786,-428.774 L 121.743,-428.552 L 121.674,-428.337 L 121.577,-428.133
 L 121.456,-427.942 L 121.312,-427.768 L 121.147,-427.613 L 120.964,-427.48 L 120.766,-427.371 L 120.556,-427.288
 L 120.337,-427.232 L 120.113,-427.204 z
M -120.113,-427.204 L -120.337,-427.232 L -120.556,-427.288 L -120.766,-427.371 L -120.964,-427.48 L -121.147,-427.613
 L -121.312,-427.768 L -121.456,-427.942 L -121.577,-428.133 L -121.674,-428.337 L -121.743,-428.552 L -121.786,-428.774
 L -121.8,-429 L -121.786,-429.226 L -121.743,-429.448 L -121.674,-429.663 L -121.577,-429.867 L -121.456,-430.058
 L -121.312,-430.232 L -121.147,-430.387 L -120.964,-430.52 L -120.766,-430.629 L -120.556,-430.712 L -120.337,-430.768
 L -120.113,-430.796 L -119.887,-430.796 L -119.663,-430.768 L -119.444,-430.712 L -119.234,-430.629 L -119.036,-430.52
 L -118.853,-430.387 L -118.688,-430.232 L -118.544,-430.058 L -118.423,-429.867 L -118.326,-429.663 L -118.257,-429.448
 L -118.214,-429.226 L -118.2,-429 L -118.214,-428.774 L -118.257,-428.552 L -118.326,-428.337 L -118.423,-428.133
 L -118.544,-427.942 L -118.688,-427.768 L -118.853,-427.613 L -119.036,-427.48 L -119.234,-427.371 L -119.444,-427.288
 L -119.663,-427.232 L -119.887,-427.204 z
M -120.113,-157.204 L -120.337,-157.232 L -120.556,-157.288 L -120.766,-157.371 L -120.964,-157.48 L -121.147,-157.613
 L -121.312,-157.768 L -121.456,-157.942 L -121.577,-158.133 L -121.674,-158.337 L -121.743,-158.552 L -121.786,-158.774
 L -121.8,-159 L -121.786,-159.226 L -121.743,-159.448 L -121.674,-159.663 L -121.577,-159.867 L -121.456,-160.058
 L -121.312,-160.232 L -121.147,-160.387 L -120.964,-160.52 L -120.766,-160.629 L -120.556,-160.712 L -120.337,-160.768
 L -120.113,-160.796 L -119.887,-160.796 L -119.663,-160.768 L -119.444,-160.712 L -119.234,-160.629 L -119.036,-160.52
 L -118.853,-160.387 L -118.688,-160.232 L -118.544,-160.058 L -118.423,-159.867 L -118.326,-159.663 L -118.257,-159.448
 L -118.214,-159.226 L -118.2,-159 L -118.214,-158.774 L -118.257,-158.552 L -118.326,-158.337 L -118.423,-158.133
 L -118.544,-157.942 L -118.688,-157.768 L -118.853,-157.613 L -119.036,-157.48 L -119.234,-157.371 L -119.444,-157.288
 L -119.663,-157.232 L -119.887,-157.204 z
M 119.887,-157.204 L 119.663,-157.232 L 119.444,-157.288 L 119.234,-157.371 L 119.036,-157.48 L 118.853,-157.613
 L 118.688,-157.768 L 118.544,-157.942 L 118.423,-158.133 L 118.326,-158.337 L 118.257,-158.552 L 118.214,-158.774
 L 118.2,-159 L 118.214,-159.226 L 118.257,-159.448 L 118.326,-159.663 L 118.423,-159.867 L 118.544,-160.058
 L 118.688,-160.232 L 118.853,-160.387 L 119.036,-160.52 L 119.234,-160.629 L 119.444,-160.712 L 119.663,-160.768
 L 119.887,-160.796 L 120.113,-160.796 L 120.337,-160.768 L 120.556,-160.712 L 120.766,-160.629 L 120.964,-160.52
 L 121.147,-160.387 L 121.312,-160.232 L 121.456,-160.058 L 121.577,-159.867 L 121.674,-159.663 L 121.743,-159.448
 L 121.786,-159.226 L 121.8,-159 L 121.786,-158.774 L 121.743,-158.552 L 121.674,-158.337 L 121.577,-158.133
 L 121.456,-157.942 L 121.312,-157.768 L 121.147,-157.613 L 120.964,-157.48 L 120.766,-157.371 L 120.556,-157.288
 L 120.337,-157.232 L 120.113,-157.204 z
" stroke="black" fill="lightgray" stroke-width="0.5"/>
</svg>
