  0
SECTION
  2
BLOCKS
  0
ENDSEC
  0
SECTION
  2
ENTITIES
  0
LINE
  8
0
 10
123.437
 20
445.589
 11
124.045
 21
445.745
  0
LINE
  8
0
 10
124.045
 20
445.745
 11
124.629
 21
445.976
  0
LINE
  8
0
 10
124.629
 20
445.976
 11
125.179
 21
446.278
  0
LINE
  8
0
 10
125.179
 20
446.278
 11
125.687
 21
446.647
  0
LINE
  8
0
 10
125.687
 20
446.647
 11
126.145
 21
447.077
  0
LINE
  8
0
 10
126.145
 20
447.077
 11
126.545
 21
447.561
  0
LINE
  8
0
 10
126.545
 20
447.561
 11
126.882
 21
448.091
  0
LINE
  8
0
 10
126.882
 20
448.091
 11
127.149
 21
448.659
  0
LINE
  8
0
 10
127.149
 20
448.659
 11
127.343
 21
449.257
  0
LINE
  8
0
 10
127.343
 20
449.257
 11
127.461
 21
449.873
  0
LINE
  8
0
 10
127.461
 20
449.873
 11
127.5
 21
450.5
  0
LINE
  8
0
 10
127.5
 20
450.5
 11
127.5
 21
725.5
  0
LINE
  8
0
 10
127.5
 20
725.5
 11
127.461
 21
726.127
  0
LINE
  8
0
 10
127.461
 20
726.127
 11
127.343
 21
726.743
  0
LINE
  8
0
 10
127.343
 20
726.743
 11
127.149
 21
727.341
  0
LINE
  8
0
 10
127.149
 20
727.341
 11
126.882
 21
727.909
  0
LINE
  8
0
 10
126.882
 20
727.909
 11
126.545
 21
728.439
  0
LINE
  8
0
 10
126.545
 20
728.439
 11
126.145
 21
728.923
  0
LINE
  8
0
 10
126.145
 20
728.923
 11
125.687
 21
729.353
  0
LINE
  8
0
 10
125.687
 20
729.353
 11
125.179
 21
729.722
  0
LINE
  8
0
 10
125.179
 20
729.722
 11
124.629
 21
730.024
  0
LINE
  8
0
 10
124.629
 20
730.024
 11
124.045
 21
730.255
  0
LINE
  8
0
 10
124.045
 20
730.255
 11
123.437
 21
730.411
  0
LINE
  8
0
 10
123.437
 20
730.411
 11
122.814
 21
730.49
  0
LINE
  8
0
 10
122.814
 20
730.49
 11
-122.814
 21
730.49
  0
LINE
  8
0
 10
-122.814
 20
730.49
 11
-123.437
 21
730.411
  0
LINE
  8
0
 10
-123.437
 20
730.411
 11
-124.045
 21
730.255
  0
LINE
  8
0
 10
-124.045
 20
730.255
 11
-124.629
 21
730.024
  0
LINE
  8
0
 10
-124.629
 20
730.024
 11
-125.179
 21
729.722
  0
LINE
  8
0
 10
-125.179
 20
729.722
 11
-125.687
 21
729.353
  0
LINE
  8
0
 10
-125.687
 20
729.353
 11
-126.145
 21
728.923
  0
LINE
  8
0
 10
-126.145
 20
728.923
 11
-126.545
 21
728.439
  0
LINE
  8
0
 10
-126.545
 20
728.439
 11
-126.882
 21
727.909
  0
LINE
  8
0
 10
-126.882
 20
727.909
 11
-127.149
 21
727.341
  0
LINE
  8
0
 10
-127.149
 20
727.341
 11
-127.343
 21
726.743
  0
LINE
  8
0
 10
-127.343
 20
726.743
 11
-127.461
 21
726.127
  0
LINE
  8
0
 10
-127.461
 20
726.127
 11
-127.5
 21
725.5
  0
LINE
  8
0
 10
-127.5
 20
725.5
 11
-127.5
 21
450.5
  0
LINE
  8
0
 10
-127.5
 20
450.5
 11
-127.461
 21
449.873
  0
LINE
  8
0
 10
-127.461
 20
449.873
 11
-127.343
 21
449.257
  0
LINE
  8
0
 10
-127.343
 20
449.257
 11
-127.149
 21
448.659
  0
LINE
  8
0
 10
-127.149
 20
448.659
 11
-126.882
 21
448.091
  0
LINE
  8
0
 10
-126.882
 20
448.091
 11
-126.545
 21
447.561
  0
LINE
  8
0
 10
-126.545
 20
447.561
 11
-126.145
 21
447.077
  0
LINE
  8
0
 10
-126.145
 20
447.077
 11
-125.687
 21
446.647
  0
LINE
  8
0
 10
-125.687
 20
446.647
 11
-125.179
 21
446.278
  0
LINE
  8
0
 10
-125.179
 20
446.278
 11
-124.629
 21
445.976
  0
LINE
  8
0
 10
-124.629
 20
445.976
 11
-124.045
 21
445.745
  0
LINE
  8
0
 10
-124.045
 20
445.745
 11
-123.437
 21
445.589
  0
LINE
  8
0
 10
-123.437
 20
445.589
 11
-122.814
 21
445.51
  0
LINE
  8
0
 10
-122.814
 20
445.51
 11
122.814
 21
445.51
  0
LINE
  8
0
 10
122.814
 20
445.51
 11
123.437
 21
445.589
  0
LINE
  8
0
 10
119.849
 20
720.605
 11
119.55
 21
720.643
  0
LINE
  8
0
 10
119.55
 20
720.643
 11
119.258
 21
720.717
  0
LINE
  8
0
 10
119.258
 20
720.717
 11
118.978
 21
720.828
  0
LINE
  8
0
 10
118.978
 20
720.828
 11
118.714
 21
720.974
  0
LINE
  8
0
 10
118.714
 20
720.974
 11
118.47
 21
721.151
  0
LINE
  8
0
 10
118.47
 20
721.151
 11
118.25
 21
721.357
  0
LINE
  8
0
 10
118.25
 20
721.357
 11
118.058
 21
721.589
  0
LINE
  8
0
 10
118.058
 20
721.589
 11
117.897
 21
721.844
  0
LINE
  8
0
 10
117.897
 20
721.844
 11
117.769
 21
722.117
  0
LINE
  8
0
 10
117.769
 20
722.117
 11
117.675
 21
722.403
  0
LINE
  8
0
 10
117.675
 20
722.403
 11
117.619
 21
722.699
  0
LINE
  8
0
 10
117.619
 20
722.699
 11
117.6
 21
723
  0
LINE
  8
0
 10
117.6
 20
723
 11
117.619
 21
723.301
  0
LINE
  8
0
 10
117.619
 20
723.301
 11
117.675
 21
723.597
  0
LINE
  8
0
 10
117.675
 20
723.597
 11
117.769
 21
723.883
  0
LINE
  8
0
 10
117.769
 20
723.883
 11
117.897
 21
724.156
  0
LINE
  8
0
 10
117.897
 20
724.156
 11
118.058
 21
724.411
  0
LINE
  8
0
 10
118.058
 20
724.411
 11
118.25
 21
724.643
  0
LINE
  8
0
 10
118.25
 20
724.643
 11
118.47
 21
724.849
  0
LINE
  8
0
 10
118.47
 20
724.849
 11
118.714
 21
725.026
  0
LINE
  8
0
 10
118.714
 20
725.026
 11
118.978
 21
725.172
  0
LINE
  8
0
 10
118.978
 20
725.172
 11
119.258
 21
725.283
  0
LINE
  8
0
 10
119.258
 20
725.283
 11
119.55
 21
725.357
  0
LINE
  8
0
 10
119.55
 20
725.357
 11
119.849
 21
725.395
  0
LINE
  8
0
 10
119.849
 20
725.395
 11
120.151
 21
725.395
  0
LINE
  8
0
 10
120.151
 20
725.395
 11
120.45
 21
725.357
  0
LINE
  8
0
 10
120.45
 20
725.357
 11
120.742
 21
725.283
  0
LINE
  8
0
 10
120.742
 20
725.283
 11
121.022
 21
725.172
  0
LINE
  8
0
 10
121.022
 20
725.172
 11
121.286
 21
725.026
  0
LINE
  8
0
 10
121.286
 20
725.026
 11
121.53
 21
724.849
  0
LINE
  8
0
 10
121.53
 20
724.849
 11
121.75
 21
724.643
  0
LINE
  8
0
 10
121.75
 20
724.643
 11
121.942
 21
724.411
  0
LINE
  8
0
 10
121.942
 20
724.411
 11
122.103
 21
724.156
  0
LINE
  8
0
 10
122.103
 20
724.156
 11
122.231
 21
723.883
  0
LINE
  8
0
 10
122.231
 20
723.883
 11
122.325
 21
723.597
  0
LINE
  8
0
 10
122.325
 20
723.597
 11
122.381
 21
723.301
  0
LINE
  8
0
 10
122.381
 20
723.301
 11
122.4
 21
723
  0
LINE
  8
0
 10
122.4
 20
723
 11
122.381
 21
722.699
  0
LINE
  8
0
 10
122.381
 20
722.699
 11
122.325
 21
722.403
  0
LINE
  8
0
 10
122.325
 20
722.403
 11
122.231
 21
722.117
  0
LINE
  8
0
 10
122.231
 20
722.117
 11
122.103
 21
721.844
  0
LINE
  8
0
 10
122.103
 20
721.844
 11
121.942
 21
721.589
  0
LINE
  8
0
 10
121.942
 20
721.589
 11
121.75
 21
721.357
  0
LINE
  8
0
 10
121.75
 20
721.357
 11
121.53
 21
721.151
  0
LINE
  8
0
 10
121.53
 20
721.151
 11
121.286
 21
720.974
  0
LINE
  8
0
 10
121.286
 20
720.974
 11
121.022
 21
720.828
  0
LINE
  8
0
 10
121.022
 20
720.828
 11
120.742
 21
720.717
  0
LINE
  8
0
 10
120.742
 20
720.717
 11
120.45
 21
720.643
  0
LINE
  8
0
 10
120.45
 20
720.643
 11
120.151
 21
720.605
  0
LINE
  8
0
 10
120.151
 20
720.605
 11
119.849
 21
720.605
  0
LINE
  8
0
 10
-120.151
 20
720.605
 11
-120.45
 21
720.643
  0
LINE
  8
0
 10
-120.45
 20
720.643
 11
-120.742
 21
720.717
  0
LINE
  8
0
 10
-120.742
 20
720.717
 11
-121.022
 21
720.828
  0
LINE
  8
0
 10
-121.022
 20
720.828
 11
-121.286
 21
720.974
  0
LINE
  8
0
 10
-121.286
 20
720.974
 11
-121.53
 21
721.151
  0
LINE
  8
0
 10
-121.53
 20
721.151
 11
-121.75
 21
721.357
  0
LINE
  8
0
 10
-121.75
 20
721.357
 11
-121.942
 21
721.589
  0
LINE
  8
0
 10
-121.942
 20
721.589
 11
-122.103
 21
721.844
  0
LINE
  8
0
 10
-122.103
 20
721.844
 11
-122.231
 21
722.117
  0
LINE
  8
0
 10
-122.231
 20
722.117
 11
-122.325
 21
722.403
  0
LINE
  8
0
 10
-122.325
 20
722.403
 11
-122.381
 21
722.699
  0
LINE
  8
0
 10
-122.381
 20
722.699
 11
-122.4
 21
723
  0
LINE
  8
0
 10
-122.4
 20
723
 11
-122.381
 21
723.301
  0
LINE
  8
0
 10
-122.381
 20
723.301
 11
-122.325
 21
723.597
  0
LINE
  8
0
 10
-122.325
 20
723.597
 11
-122.231
 21
723.883
  0
LINE
  8
0
 10
-122.231
 20
723.883
 11
-122.103
 21
724.156
  0
LINE
  8
0
 10
-122.103
 20
724.156
 11
-121.942
 21
724.411
  0
LINE
  8
0
 10
-121.942
 20
724.411
 11
-121.75
 21
724.643
  0
LINE
  8
0
 10
-121.75
 20
724.643
 11
-121.53
 21
724.849
  0
LINE
  8
0
 10
-121.53
 20
724.849
 11
-121.286
 21
725.026
  0
LINE
  8
0
 10
-121.286
 20
725.026
 11
-121.022
 21
725.172
  0
LINE
  8
0
 10
-121.022
 20
725.172
 11
-120.742
 21
725.283
  0
LINE
  8
0
 10
-120.742
 20
725.283
 11
-120.45
 21
725.357
  0
LINE
  8
0
 10
-120.45
 20
725.357
 11
-120.151
 21
725.395
  0
LINE
  8
0
 10
-120.151
 20
725.395
 11
-119.849
 21
725.395
  0
LINE
  8
0
 10
-119.849
 20
725.395
 11
-119.55
 21
725.357
  0
LINE
  8
0
 10
-119.55
 20
725.357
 11
-119.258
 21
725.283
  0
LINE
  8
0
 10
-119.258
 20
725.283
 11
-118.978
 21
725.172
  0
LINE
  8
0
 10
-118.978
 20
725.172
 11
-118.714
 21
725.026
  0
LINE
  8
0
 10
-118.714
 20
725.026
 11
-118.47
 21
724.849
  0
LINE
  8
0
 10
-118.47
 20
724.849
 11
-118.25
 21
724.643
  0
LINE
  8
0
 10
-118.25
 20
724.643
 11
-118.058
 21
724.411
  0
LINE
  8
0
 10
-118.058
 20
724.411
 11
-117.897
 21
724.156
  0
LINE
  8
0
 10
-117.897
 20
724.156
 11
-117.769
 21
723.883
  0
LINE
  8
0
 10
-117.769
 20
723.883
 11
-117.675
 21
723.597
  0
LINE
  8
0
 10
-117.675
 20
723.597
 11
-117.619
 21
723.301
  0
LINE
  8
0
 10
-117.619
 20
723.301
 11
-117.6
 21
723
  0
LINE
  8
0
 10
-117.6
 20
723
 11
-117.619
 21
722.699
  0
LINE
  8
0
 10
-117.619
 20
722.699
 11
-117.675
 21
722.403
  0
LINE
  8
0
 10
-117.675
 20
722.403
 11
-117.769
 21
722.117
  0
LINE
  8
0
 10
-117.769
 20
722.117
 11
-117.897
 21
721.844
  0
LINE
  8
0
 10
-117.897
 20
721.844
 11
-118.058
 21
721.589
  0
LINE
  8
0
 10
-118.058
 20
721.589
 11
-118.25
 21
721.357
  0
LINE
  8
0
 10
-118.25
 20
721.357
 11
-118.47
 21
721.151
  0
LINE
  8
0
 10
-118.47
 20
721.151
 11
-118.714
 21
720.974
  0
LINE
  8
0
 10
-118.714
 20
720.974
 11
-118.978
 21
720.828
  0
LINE
  8
0
 10
-118.978
 20
720.828
 11
-119.258
 21
720.717
  0
LINE
  8
0
 10
-119.258
 20
720.717
 11
-119.55
 21
720.643
  0
LINE
  8
0
 10
-119.55
 20
720.643
 11
-119.849
 21
720.605
  0
LINE
  8
0
 10
-119.849
 20
720.605
 11
-120.151
 21
720.605
  0
LINE
  8
0
 10
119.849
 20
450.605
 11
119.55
 21
450.643
  0
LINE
  8
0
 10
119.55
 20
450.643
 11
119.258
 21
450.717
  0
LINE
  8
0
 10
119.258
 20
450.717
 11
118.978
 21
450.828
  0
LINE
  8
0
 10
118.978
 20
450.828
 11
118.714
 21
450.974
  0
LINE
  8
0
 10
118.714
 20
450.974
 11
118.47
 21
451.151
  0
LINE
  8
0
 10
118.47
 20
451.151
 11
118.25
 21
451.357
  0
LINE
  8
0
 10
118.25
 20
451.357
 11
118.058
 21
451.589
  0
LINE
  8
0
 10
118.058
 20
451.589
 11
117.897
 21
451.844
  0
LINE
  8
0
 10
117.897
 20
451.844
 11
117.769
 21
452.117
  0
LINE
  8
0
 10
117.769
 20
452.117
 11
117.675
 21
452.403
  0
LINE
  8
0
 10
117.675
 20
452.403
 11
117.619
 21
452.699
  0
LINE
  8
0
 10
117.619
 20
452.699
 11
117.6
 21
453
  0
LINE
  8
0
 10
117.6
 20
453
 11
117.619
 21
453.301
  0
LINE
  8
0
 10
117.619
 20
453.301
 11
117.675
 21
453.597
  0
LINE
  8
0
 10
117.675
 20
453.597
 11
117.769
 21
453.883
  0
LINE
  8
0
 10
117.769
 20
453.883
 11
117.897
 21
454.156
  0
LINE
  8
0
 10
117.897
 20
454.156
 11
118.058
 21
454.411
  0
LINE
  8
0
 10
118.058
 20
454.411
 11
118.25
 21
454.643
  0
LINE
  8
0
 10
118.25
 20
454.643
 11
118.47
 21
454.849
  0
LINE
  8
0
 10
118.47
 20
454.849
 11
118.714
 21
455.026
  0
LINE
  8
0
 10
118.714
 20
455.026
 11
118.978
 21
455.172
  0
LINE
  8
0
 10
118.978
 20
455.172
 11
119.258
 21
455.283
  0
LINE
  8
0
 10
119.258
 20
455.283
 11
119.55
 21
455.357
  0
LINE
  8
0
 10
119.55
 20
455.357
 11
119.849
 21
455.395
  0
LINE
  8
0
 10
119.849
 20
455.395
 11
120.151
 21
455.395
  0
LINE
  8
0
 10
120.151
 20
455.395
 11
120.45
 21
455.357
  0
LINE
  8
0
 10
120.45
 20
455.357
 11
120.742
 21
455.283
  0
LINE
  8
0
 10
120.742
 20
455.283
 11
121.022
 21
455.172
  0
LINE
  8
0
 10
121.022
 20
455.172
 11
121.286
 21
455.026
  0
LINE
  8
0
 10
121.286
 20
455.026
 11
121.53
 21
454.849
  0
LINE
  8
0
 10
121.53
 20
454.849
 11
121.75
 21
454.643
  0
LINE
  8
0
 10
121.75
 20
454.643
 11
121.942
 21
454.411
  0
LINE
  8
0
 10
121.942
 20
454.411
 11
122.103
 21
454.156
  0
LINE
  8
0
 10
122.103
 20
454.156
 11
122.231
 21
453.883
  0
LINE
  8
0
 10
122.231
 20
453.883
 11
122.325
 21
453.597
  0
LINE
  8
0
 10
122.325
 20
453.597
 11
122.381
 21
453.301
  0
LINE
  8
0
 10
122.381
 20
453.301
 11
122.4
 21
453
  0
LINE
  8
0
 10
122.4
 20
453
 11
122.381
 21
452.699
  0
LINE
  8
0
 10
122.381
 20
452.699
 11
122.325
 21
452.403
  0
LINE
  8
0
 10
122.325
 20
452.403
 11
122.231
 21
452.117
  0
LINE
  8
0
 10
122.231
 20
452.117
 11
122.103
 21
451.844
  0
LINE
  8
0
 10
122.103
 20
451.844
 11
121.942
 21
451.589
  0
LINE
  8
0
 10
121.942
 20
451.589
 11
121.75
 21
451.357
  0
LINE
  8
0
 10
121.75
 20
451.357
 11
121.53
 21
451.151
  0
LINE
  8
0
 10
121.53
 20
451.151
 11
121.286
 21
450.974
  0
LINE
  8
0
 10
121.286
 20
450.974
 11
121.022
 21
450.828
  0
LINE
  8
0
 10
121.022
 20
450.828
 11
120.742
 21
450.717
  0
LINE
  8
0
 10
120.742
 20
450.717
 11
120.45
 21
450.643
  0
LINE
  8
0
 10
120.45
 20
450.643
 11
120.151
 21
450.605
  0
LINE
  8
0
 10
120.151
 20
450.605
 11
119.849
 21
450.605
  0
LINE
  8
0
 10
-120.151
 20
450.605
 11
-120.45
 21
450.643
  0
LINE
  8
0
 10
-120.45
 20
450.643
 11
-120.742
 21
450.717
  0
LINE
  8
0
 10
-120.742
 20
450.717
 11
-121.022
 21
450.828
  0
LINE
  8
0
 10
-121.022
 20
450.828
 11
-121.286
 21
450.974
  0
LINE
  8
0
 10
-121.286
 20
450.974
 11
-121.53
 21
451.151
  0
LINE
  8
0
 10
-121.53
 20
451.151
 11
-121.75
 21
451.357
  0
LINE
  8
0
 10
-121.75
 20
451.357
 11
-121.942
 21
451.589
  0
LINE
  8
0
 10
-121.942
 20
451.589
 11
-122.103
 21
451.844
  0
LINE
  8
0
 10
-122.103
 20
451.844
 11
-122.231
 21
452.117
  0
LINE
  8
0
 10
-122.231
 20
452.117
 11
-122.325
 21
452.403
  0
LINE
  8
0
 10
-122.325
 20
452.403
 11
-122.381
 21
452.699
  0
LINE
  8
0
 10
-122.381
 20
452.699
 11
-122.4
 21
453
  0
LINE
  8
0
 10
-122.4
 20
453
 11
-122.381
 21
453.301
  0
LINE
  8
0
 10
-122.381
 20
453.301
 11
-122.325
 21
453.597
  0
LINE
  8
0
 10
-122.325
 20
453.597
 11
-122.231
 21
453.883
  0
LINE
  8
0
 10
-122.231
 20
453.883
 11
-122.103
 21
454.156
  0
LINE
  8
0
 10
-122.103
 20
454.156
 11
-121.942
 21
454.411
  0
LINE
  8
0
 10
-121.942
 20
454.411
 11
-121.75
 21
454.643
  0
LINE
  8
0
 10
-121.75
 20
454.643
 11
-121.53
 21
454.849
  0
LINE
  8
0
 10
-121.53
 20
454.849
 11
-121.286
 21
455.026
  0
LINE
  8
0
 10
-121.286
 20
455.026
 11
-121.022
 21
455.172
  0
LINE
  8
0
 10
-121.022
 20
455.172
 11
-120.742
 21
455.283
  0
LINE
  8
0
 10
-120.742
 20
455.283
 11
-120.45
 21
455.357
  0
LINE
  8
0
 10
-120.45
 20
455.357
 11
-120.151
 21
455.395
  0
LINE
  8
0
 10
-120.151
 20
455.395
 11
-119.849
 21
455.395
  0
LINE
  8
0
 10
-119.849
 20
455.395
 11
-119.55
 21
455.357
  0
LINE
  8
0
 10
-119.55
 20
455.357
 11
-119.258
 21
455.283
  0
LINE
  8
0
 10
-119.258
 20
455.283
 11
-118.978
 21
455.172
  0
LINE
  8
0
 10
-118.978
 20
455.172
 11
-118.714
 21
455.026
  0
LINE
  8
0
 10
-118.714
 20
455.026
 11
-118.47
 21
454.849
  0
LINE
  8
0
 10
-118.47
 20
454.849
 11
-118.25
 21
454.643
  0
LINE
  8
0
 10
-118.25
 20
454.643
 11
-118.058
 21
454.411
  0
LINE
  8
0
 10
-118.058
 20
454.411
 11
-117.897
 21
454.156
  0
LINE
  8
0
 10
-117.897
 20
454.156
 11
-117.769
 21
453.883
  0
LINE
  8
0
 10
-117.769
 20
453.883
 11
-117.675
 21
453.597
  0
LINE
  8
0
 10
-117.675
 20
453.597
 11
-117.619
 21
453.301
  0
LINE
  8
0
 10
-117.619
 20
453.301
 11
-117.6
 21
453
  0
LINE
  8
0
 10
-117.6
 20
453
 11
-117.619
 21
452.699
  0
LINE
  8
0
 10
-117.619
 20
452.699
 11
-117.675
 21
452.403
  0
LINE
  8
0
 10
-117.675
 20
452.403
 11
-117.769
 21
452.117
  0
LINE
  8
0
 10
-117.769
 20
452.117
 11
-117.897
 21
451.844
  0
LINE
  8
0
 10
-117.897
 20
451.844
 11
-118.058
 21
451.589
  0
LINE
  8
0
 10
-118.058
 20
451.589
 11
-118.25
 21
451.357
  0
LINE
  8
0
 10
-118.25
 20
451.357
 11
-118.47
 21
451.151
  0
LINE
  8
0
 10
-118.47
 20
451.151
 11
-118.714
 21
450.974
  0
LINE
  8
0
 10
-118.714
 20
450.974
 11
-118.978
 21
450.828
  0
LINE
  8
0
 10
-118.978
 20
450.828
 11
-119.258
 21
450.717
  0
LINE
  8
0
 10
-119.258
 20
450.717
 11
-119.55
 21
450.643
  0
LINE
  8
0
 10
-119.55
 20
450.643
 11
-119.849
 21
450.605
  0
LINE
  8
0
 10
-119.849
 20
450.605
 11
-120.151
 21
450.605
  0
LINE
  8
0
 10
123.437
 20
151.589
 11
124.045
 21
151.745
  0
LINE
  8
0
 10
124.045
 20
151.745
 11
124.629
 21
151.976
  0
LINE
  8
0
 10
124.629
 20
151.976
 11
125.179
 21
152.278
  0
LINE
  8
0
 10
125.179
 20
152.278
 11
125.687
 21
152.647
  0
LINE
  8
0
 10
125.687
 20
152.647
 11
126.145
 21
153.077
  0
LINE
  8
0
 10
126.145
 20
153.077
 11
126.545
 21
153.561
  0
LINE
  8
0
 10
126.545
 20
153.561
 11
126.882
 21
154.091
  0
LINE
  8
0
 10
126.882
 20
154.091
 11
127.149
 21
154.659
  0
LINE
  8
0
 10
127.149
 20
154.659
 11
127.343
 21
155.257
  0
LINE
  8
0
 10
127.343
 20
155.257
 11
127.461
 21
155.873
  0
LINE
  8
0
 10
127.461
 20
155.873
 11
127.5
 21
156.5
  0
LINE
  8
0
 10
127.5
 20
156.5
 11
127.5
 21
431.5
  0
LINE
  8
0
 10
127.5
 20
431.5
 11
127.461
 21
432.127
  0
LINE
  8
0
 10
127.461
 20
432.127
 11
127.343
 21
432.743
  0
LINE
  8
0
 10
127.343
 20
432.743
 11
127.149
 21
433.341
  0
LINE
  8
0
 10
127.149
 20
433.341
 11
126.882
 21
433.909
  0
LINE
  8
0
 10
126.882
 20
433.909
 11
126.545
 21
434.439
  0
LINE
  8
0
 10
126.545
 20
434.439
 11
126.145
 21
434.923
  0
LINE
  8
0
 10
126.145
 20
434.923
 11
125.687
 21
435.353
  0
LINE
  8
0
 10
125.687
 20
435.353
 11
125.179
 21
435.722
  0
LINE
  8
0
 10
125.179
 20
435.722
 11
124.629
 21
436.024
  0
LINE
  8
0
 10
124.629
 20
436.024
 11
124.045
 21
436.255
  0
LINE
  8
0
 10
124.045
 20
436.255
 11
123.437
 21
436.411
  0
LINE
  8
0
 10
123.437
 20
436.411
 11
122.814
 21
436.49
  0
LINE
  8
0
 10
122.814
 20
436.49
 11
-122.814
 21
436.49
  0
LINE
  8
0
 10
-122.814
 20
436.49
 11
-123.437
 21
436.411
  0
LINE
  8
0
 10
-123.437
 20
436.411
 11
-124.045
 21
436.255
  0
LINE
  8
0
 10
-124.045
 20
436.255
 11
-124.629
 21
436.024
  0
LINE
  8
0
 10
-124.629
 20
436.024
 11
-125.179
 21
435.722
  0
LINE
  8
0
 10
-125.179
 20
435.722
 11
-125.687
 21
435.353
  0
LINE
  8
0
 10
-125.687
 20
435.353
 11
-126.145
 21
434.923
  0
LINE
  8
0
 10
-126.145
 20
434.923
 11
-126.545
 21
434.439
  0
LINE
  8
0
 10
-126.545
 20
434.439
 11
-126.882
 21
433.909
  0
LINE
  8
0
 10
-126.882
 20
433.909
 11
-127.149
 21
433.341
  0
LINE
  8
0
 10
-127.149
 20
433.341
 11
-127.343
 21
432.743
  0
LINE
  8
0
 10
-127.343
 20
432.743
 11
-127.461
 21
432.127
  0
LINE
  8
0
 10
-127.461
 20
432.127
 11
-127.5
 21
431.5
  0
LINE
  8
0
 10
-127.5
 20
431.5
 11
-127.5
 21
156.5
  0
LINE
  8
0
 10
-127.5
 20
156.5
 11
-127.461
 21
155.873
  0
LINE
  8
0
 10
-127.461
 20
155.873
 11
-127.343
 21
155.257
  0
LINE
  8
0
 10
-127.343
 20
155.257
 11
-127.149
 21
154.659
  0
LINE
  8
0
 10
-127.149
 20
154.659
 11
-126.882
 21
154.091
  0
LINE
  8
0
 10
-126.882
 20
154.091
 11
-126.545
 21
153.561
  0
LINE
  8
0
 10
-126.545
 20
153.561
 11
-126.145
 21
153.077
  0
LINE
  8
0
 10
-126.145
 20
153.077
 11
-125.687
 21
152.647
  0
LINE
  8
0
 10
-125.687
 20
152.647
 11
-125.179
 21
152.278
  0
LINE
  8
0
 10
-125.179
 20
152.278
 11
-124.629
 21
151.976
  0
LINE
  8
0
 10
-124.629
 20
151.976
 11
-124.045
 21
151.745
  0
LINE
  8
0
 10
-124.045
 20
151.745
 11
-123.437
 21
151.589
  0
LINE
  8
0
 10
-123.437
 20
151.589
 11
-122.814
 21
151.51
  0
LINE
  8
0
 10
-122.814
 20
151.51
 11
122.814
 21
151.51
  0
LINE
  8
0
 10
122.814
 20
151.51
 11
123.437
 21
151.589
  0
LINE
  8
0
 10
119.887
 20
427.204
 11
119.663
 21
427.232
  0
LINE
  8
0
 10
119.663
 20
427.232
 11
119.444
 21
427.288
  0
LINE
  8
0
 10
119.444
 20
427.288
 11
119.234
 21
427.371
  0
LINE
  8
0
 10
119.234
 20
427.371
 11
119.036
 21
427.48
  0
LINE
  8
0
 10
119.036
 20
427.48
 11
118.853
 21
427.613
  0
LINE
  8
0
 10
118.853
 20
427.613
 11
118.688
 21
427.768
  0
LINE
  8
0
 10
118.688
 20
427.768
 11
118.544
 21
427.942
  0
LINE
  8
0
 10
118.544
 20
427.942
 11
118.423
 21
428.133
  0
LINE
  8
0
 10
118.423
 20
428.133
 11
118.326
 21
428.337
  0
LINE
  8
0
 10
118.326
 20
428.337
 11
118.257
 21
428.552
  0
LINE
  8
0
 10
118.257
 20
428.552
 11
118.214
 21
428.774
  0
LINE
  8
0
 10
118.214
 20
428.774
 11
118.2
 21
429
  0
LINE
  8
0
 10
118.2
 20
429
 11
118.214
 21
429.226
  0
LINE
  8
0
 10
118.214
 20
429.226
 11
118.257
 21
429.448
  0
LINE
  8
0
 10
118.257
 20
429.448
 11
118.326
 21
429.663
  0
LINE
  8
0
 10
118.326
 20
429.663
 11
118.423
 21
429.867
  0
LINE
  8
0
 10
118.423
 20
429.867
 11
118.544
 21
430.058
  0
LINE
  8
0
 10
118.544
 20
430.058
 11
118.688
 21
430.232
  0
LINE
  8
0
 10
118.688
 20
430.232
 11
118.853
 21
430.387
  0
LINE
  8
0
 10
118.853
 20
430.387
 11
119.036
 21
430.52
  0
LINE
  8
0
 10
119.036
 20
430.52
 11
119.234
 21
430.629
  0
LINE
  8
0
 10
119.234
 20
430.629
 11
119.444
 21
430.712
  0
LINE
  8
0
 10
119.444
 20
430.712
 11
119.663
 21
430.768
  0
LINE
  8
0
 10
119.663
 20
430.768
 11
119.887
 21
430.796
  0
LINE
  8
0
 10
119.887
 20
430.796
 11
120.113
 21
430.796
  0
LINE
  8
0
 10
120.113
 20
430.796
 11
120.337
 21
430.768
  0
LINE
  8
0
 10
120.337
 20
430.768
 11
120.556
 21
430.712
  0
LINE
  8
0
 10
120.556
 20
430.712
 11
120.766
 21
430.629
  0
LINE
  8
0
 10
120.766
 20
430.629
 11
120.964
 21
430.52
  0
LINE
  8
0
 10
120.964
 20
430.52
 11
121.147
 21
430.387
  0
LINE
  8
0
 10
121.147
 20
430.387
 11
121.312
 21
430.232
  0
LINE
  8
0
 10
121.312
 20
430.232
 11
121.456
 21
430.058
  0
LINE
  8
0
 10
121.456
 20
430.058
 11
121.577
 21
429.867
  0
LINE
  8
0
 10
121.577
 20
429.867
 11
121.674
 21
429.663
  0
LINE
  8
0
 10
121.674
 20
429.663
 11
121.743
 21
429.448
  0
LINE
  8
0
 10
121.743
 20
429.448
 11
121.786
 21
429.226
  0
LINE
  8
0
 10
121.786
 20
429.226
 11
121.8
 21
429
  0
LINE
  8
0
 10
121.8
 20
429
 11
121.786
 21
428.774
  0
LINE
  8
0
 10
121.786
 20
428.774
 11
121.743
 21
428.552
  0
LINE
  8
0
 10
121.743
 20
428.552
 11
121.674
 21
428.337
  0
LINE
  8
0
 10
121.674
 20
428.337
 11
121.577
 21
428.133
  0
LINE
  8
0
 10
121.577
 20
428.133
 11
121.456
 21
427.942
  0
LINE
  8
0
 10
121.456
 20
427.942
 11
121.312
 21
427.768
  0
LINE
  8
0
 10
121.312
 20
427.768
 11
121.147
 21
427.613
  0
LINE
  8
0
 10
121.147
 20
427.613
 11
120.964
 21
427.48
  0
LINE
  8
0
 10
120.964
 20
427.48
 11
120.766
 21
427.371
  0
LINE
  8
0
 10
120.766
 20
427.371
 11
120.556
 21
427.288
  0
LINE
  8
0
 10
120.556
 20
427.288
 11
120.337
 21
427.232
  0
LINE
  8
0
 10
120.337
 20
427.232
 11
120.113
 21
427.204
  0
LINE
  8
0
 10
120.113
 20
427.204
 11
119.887
 21
427.204
  0
LINE
  8
0
 10
-120.113
 20
427.204
 11
-120.337
 21
427.232
  0
LINE
  8
0
 10
-120.337
 20
427.232
 11
-120.556
 21
427.288
  0
LINE
  8
0
 10
-120.556
 20
427.288
 11
-120.766
 21
427.371
  0
LINE
  8
0
 10
-120.766
 20
427.371
 11
-120.964
 21
427.48
  0
LINE
  8
0
 10
-120.964
 20
427.48
 11
-121.147
 21
427.613
  0
LINE
  8
0
 10
-121.147
 20
427.613
 11
-121.312
 21
427.768
  0
LINE
  8
0
 10
-121.312
 20
427.768
 11
-121.456
 21
427.942
  0
LINE
  8
0
 10
-121.456
 20
427.942
 11
-121.577
 21
428.133
  0
LINE
  8
0
 10
-121.577
 20
428.133
 11
-121.674
 21
428.337
  0
LINE
  8
0
 10
-121.674
 20
428.337
 11
-121.743
 21
428.552
  0
LINE
  8
0
 10
-121.743
 20
428.552
 11
-121.786
 21
428.774
  0
LINE
  8
0
 10
-121.786
 20
428.774
 11
-121.8
 21
429
  0
LINE
  8
0
 10
-121.8
 20
429
 11
-121.786
 21
429.226
  0
LINE
  8
0
 10
-121.786
 20
429.226
 11
-121.743
 21
429.448
  0
LINE
  8
0
 10
-121.743
 20
429.448
 11
-121.674
 21
429.663
  0
LINE
  8
0
 10
-121.674
 20
429.663
 11
-121.577
 21
429.867
  0
LINE
  8
0
 10
-121.577
 20
429.867
 11
-121.456
 21
430.058
  0
LINE
  8
0
 10
-121.456
 20
430.058
 11
-121.312
 21
430.232
  0
LINE
  8
0
 10
-121.312
 20
430.232
 11
-121.147
 21
430.387
  0
LINE
  8
0
 10
-121.147
 20
430.387
 11
-120.964
 21
430.52
  0
LINE
  8
0
 10
-120.964
 20
430.52
 11
-120.766
 21
430.629
  0
LINE
  8
0
 10
-120.766
 20
430.629
 11
-120.556
 21
430.712
  0
LINE
  8
0
 10
-120.556
 20
430.712
 11
-120.337
 21
430.768
  0
LINE
  8
0
 10
-120.337
 20
430.768
 11
-120.113
 21
430.796
  0
LINE
  8
0
 10
-120.113
 20
430.796
 11
-119.887
 21
430.796
  0
LINE
  8
0
 10
-119.887
 20
430.796
 11
-119.663
 21
430.768
  0
LINE
  8
0
 10
-119.663
 20
430.768
 11
-119.444
 21
430.712
  0
LINE
  8
0
 10
-119.444
 20
430.712
 11
-119.234
 21
430.629
  0
LINE
  8
0
 10
-119.234
 20
430.629
 11
-119.036
 21
430.52
  0
LINE
  8
0
 10
-119.036
 20
430.52
 11
-118.853
 21
430.387
  0
LINE
  8
0
 10
-118.853
 20
430.387
 11
-118.688
 21
430.232
  0
LINE
  8
0
 10
-118.688
 20
430.232
 11
-118.544
 21
430.058
  0
LINE
  8
0
 10
-118.544
 20
430.058
 11
-118.423
 21
429.867
  0
LINE
  8
0
 10
-118.423
 20
429.867
 11
-118.326
 21
429.663
  0
LINE
  8
0
 10
-118.326
 20
429.663
 11
-118.257
 21
429.448
  0
LINE
  8
0
 10
-118.257
 20
429.448
 11
-118.214
 21
429.226
  0
LINE
  8
0
 10
-118.214
 20
429.226
 11
-118.2
 21
429
  0
LINE
  8
0
 10
-118.2
 20
429
 11
-118.214
 21
428.774
  0
LINE
  8
0
 10
-118.214
 20
428.774
 11
-118.257
 21
428.552
  0
LINE
  8
0
 10
-118.257
 20
428.552
 11
-118.326
 21
428.337
  0
LINE
  8
0
 10
-118.326
 20
428.337
 11
-118.423
 21
428.133
  0
LINE
  8
0
 10
-118.423
 20
428.133
 11
-118.544
 21
427.942
  0
LINE
  8
0
 10
-118.544
 20
427.942
 11
-118.688
 21
427.768
  0
LINE
  8
0
 10
-118.688
 20
427.768
 11
-118.853
 21
427.613
  0
LINE
  8
0
 10
-118.853
 20
427.613
 11
-119.036
 21
427.48
  0
LINE
  8
0
 10
-119.036
 20
427.48
 11
-119.234
 21
427.371
  0
LINE
  8
0
 10
-119.234
 20
427.371
 11
-119.444
 21
427.288
  0
LINE
  8
0
 10
-119.444
 20
427.288
 11
-119.663
 21
427.232
  0
LINE
  8
0
 10
-119.663
 20
427.232
 11
-119.887
 21
427.204
  0
LINE
  8
0
 10
-119.887
 20
427.204
 11
-120.113
 21
427.204
  0
LINE
  8
0
 10
-120.113
 20
157.204
 11
-120.337
 21
157.232
  0
LINE
  8
0
 10
-120.337
 20
157.232
 11
-120.556
 21
157.288
  0
LINE
  8
0
 10
-120.556
 20
157.288
 11
-120.766
 21
157.371
  0
LINE
  8
0
 10
-120.766
 20
157.371
 11
-120.964
 21
157.48
  0
LINE
  8
0
 10
-120.964
 20
157.48
 11
-121.147
 21
157.613
  0
LINE
  8
0
 10
-121.147
 20
157.613
 11
-121.312
 21
157.768
  0
LINE
  8
0
 10
-121.312
 20
157.768
 11
-121.456
 21
157.942
  0
LINE
  8
0
 10
-121.456
 20
157.942
 11
-121.577
 21
158.133
  0
LINE
  8
0
 10
-121.577
 20
158.133
 11
-121.674
 21
158.337
  0
LINE
  8
0
 10
-121.674
 20
158.337
 11
-121.743
 21
158.552
  0
LINE
  8
0
 10
-121.743
 20
158.552
 11
-121.786
 21
158.774
  0
LINE
  8
0
 10
-121.786
 20
158.774
 11
-121.8
 21
159
  0
LINE
  8
0
 10
-121.8
 20
159
 11
-121.786
 21
159.226
  0
LINE
  8
0
 10
-121.786
 20
159.226
 11
-121.743
 21
159.448
  0
LINE
  8
0
 10
-121.743
 20
159.448
 11
-121.674
 21
159.663
  0
LINE
  8
0
 10
-121.674
 20
159.663
 11
-121.577
 21
159.867
  0
LINE
  8
0
 10
-121.577
 20
159.867
 11
-121.456
 21
160.058
  0
LINE
  8
0
 10
-121.456
 20
160.058
 11
-121.312
 21
160.232
  0
LINE
  8
0
 10
-121.312
 20
160.232
 11
-121.147
 21
160.387
  0
LINE
  8
0
 10
-121.147
 20
160.387
 11
-120.964
 21
160.52
  0
LINE
  8
0
 10
-120.964
 20
160.52
 11
-120.766
 21
160.629
  0
LINE
  8
0
 10
-120.766
 20
160.629
 11
-120.556
 21
160.712
  0
LINE
  8
0
 10
-120.556
 20
160.712
 11
-120.337
 21
160.768
  0
LINE
  8
0
 10
-120.337
 20
160.768
 11
-120.113
 21
160.796
  0
LINE
  8
0
 10
-120.113
 20
160.796
 11
-119.887
 21
160.796
  0
LINE
  8
0
 10
-119.887
 20
160.796
 11
-119.663
 21
160.768
  0
LINE
  8
0
 10
-119.663
 20
160.768
 11
-119.444
 21
160.712
  0
LINE
  8
0
 10
-119.444
 20
160.712
 11
-119.234
 21
160.629
  0
LINE
  8
0
 10
-119.234
 20
160.629
 11
-119.036
 21
160.52
  0
LINE
  8
0
 10
-119.036
 20
160.52
 11
-118.853
 21
160.387
  0
LINE
  8
0
 10
-118.853
 20
160.387
 11
-118.688
 21
160.232
  0
LINE
  8
0
 10
-118.688
 20
160.232
 11
-118.544
 21
160.058
  0
LINE
  8
0
 10
-118.544
 20
160.058
 11
-118.423
 21
159.867
  0
LINE
  8
0
 10
-118.423
 20
159.867
 11
-118.326
 21
159.663
  0
LINE
  8
0
 10
-118.326
 20
159.663
 11
-118.257
 21
159.448
  0
LINE
  8
0
 10
-118.257
 20
159.448
 11
-118.214
 21
159.226
  0
LINE
  8
0
 10
-118.214
 20
159.226
 11
-118.2
 21
159
  0
LINE
  8
0
 10
-118.2
 20
159
 11
-118.214
 21
158.774
  0
LINE
  8
0
 10
-118.214
 20
158.774
 11
-118.257
 21
158.552
  0
LINE
  8
0
 10
-118.257
 20
158.552
 11
-118.326
 21
158.337
  0
LINE
  8
0
 10
-118.326
 20
158.337
 11
-118.423
 21
158.133
  0
LINE
  8
0
 10
-118.423
 20
158.133
 11
-118.544
 21
157.942
  0
LINE
  8
0
 10
-118.544
 20
157.942
 11
-118.688
 21
157.768
  0
LINE
  8
0
 10
-118.688
 20
157.768
 11
-118.853
 21
157.613
  0
LINE
  8
0
 10
-118.853
 20
157.613
 11
-119.036
 21
157.48
  0
LINE
  8
0
 10
-119.036
 20
157.48
 11
-119.234
 21
157.371
  0
LINE
  8
0
 10
-119.234
 20
157.371
 11
-119.444
 21
157.288
  0
LINE
  8
0
 10
-119.444
 20
157.288
 11
-119.663
 21
157.232
  0
LINE
  8
0
 10
-119.663
 20
157.232
 11
-119.887
 21
157.204
  0
LINE
  8
0
 10
-119.887
 20
157.204
 11
-120.113
 21
157.204
  0
LINE
  8
0
 10
119.887
 20
157.204
 11
119.663
 21
157.232
  0
LINE
  8
0
 10
119.663
 20
157.232
 11
119.444
 21
157.288
  0
LINE
  8
0
 10
119.444
 20
157.288
 11
119.234
 21
157.371
  0
LINE
  8
0
 10
119.234
 20
157.371
 11
119.036
 21
157.48
  0
LINE
  8
0
 10
119.036
 20
157.48
 11
118.853
 21
157.613
  0
LINE
  8
0
 10
118.853
 20
157.613
 11
118.688
 21
157.768
  0
LINE
  8
0
 10
118.688
 20
157.768
 11
118.544
 21
157.942
  0
LINE
  8
0
 10
118.544
 20
157.942
 11
118.423
 21
158.133
  0
LINE
  8
0
 10
118.423
 20
158.133
 11
118.326
 21
158.337
  0
LINE
  8
0
 10
118.326
 20
158.337
 11
118.257
 21
158.552
  0
LINE
  8
0
 10
118.257
 20
158.552
 11
118.214
 21
158.774
  0
LINE
  8
0
 10
118.214
 20
158.774
 11
118.2
 21
159
  0
LINE
  8
0
 10
118.2
 20
159
 11
118.214
 21
159.226
  0
LINE
  8
0
 10
118.214
 20
159.226
 11
118.257
 21
159.448
  0
LINE
  8
0
 10
118.257
 20
159.448
 11
118.326
 21
159.663
  0
LINE
  8
0
 10
118.326
 20
159.663
 11
118.423
 21
159.867
  0
LINE
  8
0
 10
118.423
 20
159.867
 11
118.544
 21
160.058
  0
LINE
  8
0
 10
118.544
 20
160.058
 11
118.688
 21
160.232
  0
LINE
  8
0
 10
118.688
 20
160.232
 11
118.853
 21
160.387
  0
LINE
  8
0
 10
118.853
 20
160.387
 11
119.036
 21
160.52
  0
LINE
  8
0
 10
119.036
 20
160.52
 11
119.234
 21
160.629
  0
LINE
  8
0
 10
119.234
 20
160.629
 11
119.444
 21
160.712
  0
LINE
  8
0
 10
119.444
 20
160.712
 11
119.663
 21
160.768
  0
LINE
  8
0
 10
119.663
 20
160.768
 11
119.887
 21
160.796
  0
LINE
  8
0
 10
119.887
 20
160.796
 11
120.113
 21
160.796
  0
LINE
  8
0
 10
120.113
 20
160.796
 11
120.337
 21
160.768
  0
LINE
  8
0
 10
120.337
 20
160.768
 11
120.556
 21
160.712
  0
LINE
  8
0
 10
120.556
 20
160.712
 11
120.766
 21
160.629
  0
LINE
  8
0
 10
120.766
 20
160.629
 11
120.964
 21
160.52
  0
LINE
  8
0
 10
120.964
 20
160.52
 11
121.147
 21
160.387
  0
LINE
  8
0
 10
121.147
 20
160.387
 11
121.312
 21
160.232
  0
LINE
  8
0
 10
121.312
 20
160.232
 11
121.456
 21
160.058
  0
LINE
  8
0
 10
121.456
 20
160.058
 11
121.577
 21
159.867
  0
LINE
  8
0
 10
121.577
 20
159.867
 11
121.674
 21
159.663
  0
LINE
  8
0
 10
121.674
 20
159.663
 11
121.743
 21
159.448
  0
LINE
  8
0
 10
121.743
 20
159.448
 11
121.786
 21
159.226
  0
LINE
  8
0
 10
121.786
 20
159.226
 11
121.8
 21
159
  0
LINE
  8
0
 10
121.8
 20
159
 11
121.786
 21
158.774
  0
LINE
  8
0
 10
121.786
 20
158.774
 11
121.743
 21
158.552
  0
LINE
  8
0
 10
121.743
 20
158.552
 11
121.674
 21
158.337
  0
LINE
  8
0
 10
121.674
 20
158.337
 11
121.577
 21
158.133
  0
LINE
  8
0
 10
121.577
 20
158.133
 11
121.456
 21
157.942
  0
LINE
  8
0
 10
121.456
 20
157.942
 11
121.312
 21
157.768
  0
LINE
  8
0
 10
121.312
 20
157.768
 11
121.147
 21
157.613
  0
LINE
  8
0
 10
121.147
 20
157.613
 11
120.964
 21
157.48
  0
LINE
  8
0
 10
120.964
 20
157.48
 11
120.766
 21
157.371
  0
LINE
  8
0
 10
120.766
 20
157.371
 11
120.556
 21
157.288
  0
LINE
  8
0
 10
120.556
 20
157.288
 11
120.337
 21
157.232
  0
LINE
  8
0
 10
120.337
 20
157.232
 11
120.113
 21
157.204
  0
LINE
  8
0
 10
120.113
 20
157.204
 11
119.887
 21
157.204
  0
ENDSEC
  0
SECTION
  2
OBJECTS
  0
DICTIONARY
  0
ENDSEC
  0
EOF
