<?xml version="1.0" standalone="no"?>
<!DOCTYPE svg PUBLIC "-//W3C//DTD SVG 1.1//EN" "http://www.w3.org/Graphics/SVG/1.1/DTD/svg11.dtd">
<svg width="286mm" height="378mm" viewBox="-143 -705 286 378" xmlns="http://www.w3.org/2000/svg" version="1.1">
<title>OpenSCAD Model</title>
<path d="
M 138.437,-585.089 L 139.045,-585.245 L 139.629,-585.476 L 140.179,-585.778 L 140.687,-586.147 L 141.145,-586.577
 L 141.545,-587.061 L 141.882,-587.591 L 142.149,-588.159 L 142.343,-588.757 L 142.461,-589.373 L 142.5,-590
 L 142.5,-700 L 142.461,-700.627 L 142.343,-701.243 L 142.149,-701.841 L 141.882,-702.409 L 141.545,-702.939
 L 141.145,-703.423 L 140.687,-703.853 L 140.179,-704.222 L 139.629,-704.524 L 139.045,-704.755 L 138.437,-704.911
 L 137.814,-704.99 L -137.814,-704.99 L -138.437,-704.911 L -139.045,-704.755 L -139.629,-704.524 L -140.179,-704.222
 L -140.687,-703.853 L -141.145,-703.423 L -141.545,-702.939 L -141.882,-702.409 L -142.149,-701.841 L -142.343,-701.243
 L -142.461,-700.627 L -142.5,-700 L -142.5,-590 L -142.461,-589.373 L -142.343,-588.757 L -142.149,-588.159
 L -141.882,-587.591 L -141.545,-587.061 L -141.145,-586.577 L -140.687,-586.147 L -140.179,-585.778 L -139.629,-585.476
 L -139.045,-585.245 L -138.437,-585.089 L -137.814,-585.01 L 137.814,-585.01 z
M -137.548,-585.509 L -138.14,-585.584 L -138.718,-585.732 L -139.272,-585.952 L -139.795,-586.239 L -140.278,-586.59
 L -140.713,-586.998 L -141.093,-587.458 L -141.412,-587.962 L -141.666,-588.501 L -141.851,-589.069 L -141.963,-589.655
 L -142,-590.25 L -142,-699.75 L -141.963,-700.345 L -141.851,-700.931 L -141.666,-701.499 L -141.412,-702.038
 L -141.093,-702.542 L -140.713,-703.002 L -140.278,-703.41 L -139.795,-703.761 L -139.272,-704.048 L -138.718,-704.268
 L -138.14,-704.416 L -137.548,-704.491 L 137.548,-704.491 L 138.14,-704.416 L 138.718,-704.268 L 139.272,-704.048
 L 139.795,-703.761 L 140.278,-703.41 L 140.713,-703.002 L 141.093,-702.542 L 141.412,-702.038 L 141.666,-701.499
 L 141.851,-700.931 L 141.963,-700.345 L 142,-699.75 L 142,-590.25 L 141.963,-589.655 L 141.851,-589.069
 L 141.666,-588.501 L 141.412,-587.962 L 141.093,-587.458 L 140.713,-586.998 L 140.278,-586.59 L 139.795,-586.239
 L 139.272,-585.952 L 138.718,-585.732 L 138.14,-585.584 L 137.548,-585.509 z
M 138.437,-456.089 L 139.045,-456.245 L 139.629,-456.476 L 140.179,-456.778 L 140.687,-457.147 L 141.145,-457.577
 L 141.545,-458.061 L 141.882,-458.591 L 142.149,-459.159 L 142.343,-459.757 L 142.461,-460.373 L 142.5,-461
 L 142.5,-571 L 142.461,-571.627 L 142.343,-572.243 L 142.149,-572.841 L 141.882,-573.409 L 141.545,-573.939
 L 141.145,-574.423 L 140.687,-574.853 L 140.179,-575.222 L 139.629,-575.524 L 139.045,-575.755 L 138.437,-575.911
 L 137.814,-575.99 L -137.814,-575.99 L -138.437,-575.911 L -139.045,-575.755 L -139.629,-575.524 L -140.179,-575.222
 L -140.687,-574.853 L -141.145,-574.423 L -141.545,-573.939 L -141.882,-573.409 L -142.149,-572.841 L -142.343,-572.243
 L -142.461,-571.627 L -142.5,-571 L -142.5,-461 L -142.461,-460.373 L -142.343,-459.757 L -142.149,-459.159
 L -141.882,-458.591 L -141.545,-458.061 L -141.145,-457.577 L -140.687,-457.147 L -140.179,-456.778 L -139.629,-456.476
 L -139.045,-456.245 L -138.437,-456.089 L -137.814,-456.01 L 137.814,-456.01 z
M -137.537,-456.681 L -138.108,-456.753 L -138.665,-456.896 L -139.199,-457.107 L -139.703,-457.384 L -140.168,-457.722
 L -140.588,-458.116 L -140.954,-458.559 L -141.262,-459.044 L -141.507,-459.565 L -141.685,-460.111 L -141.792,-460.676
 L -141.828,-461.25 L -141.828,-570.75 L -141.792,-571.324 L -141.685,-571.889 L -141.507,-572.435 L -141.262,-572.956
 L -140.954,-573.441 L -140.588,-573.884 L -140.168,-574.278 L -139.703,-574.616 L -139.199,-574.893 L -138.665,-575.104
 L -138.108,-575.247 L -137.537,-575.319 L 137.537,-575.319 L 138.108,-575.247 L 138.665,-575.104 L 139.199,-574.893
 L 139.703,-574.616 L 140.168,-574.278 L 140.588,-573.884 L 140.954,-573.441 L 141.262,-572.956 L 141.507,-572.435
 L 141.685,-571.889 L 141.792,-571.324 L 141.828,-570.75 L 141.828,-461.25 L 141.792,-460.676 L 141.685,-460.111
 L 141.507,-459.565 L 141.262,-459.044 L 140.954,-458.559 L 140.588,-458.116 L 140.168,-457.722 L 139.703,-457.384
 L 139.199,-457.107 L 138.665,-456.896 L 138.108,-456.753 L 137.537,-456.681 z
M 138.437,-327.089 L 139.045,-327.245 L 139.629,-327.476 L 140.179,-327.778 L 140.687,-328.147 L 141.145,-328.577
 L 141.545,-329.061 L 141.882,-329.591 L 142.149,-330.159 L 142.343,-330.757 L 142.461,-331.373 L 142.5,-332
 L 142.5,-442 L 142.461,-442.627 L 142.343,-443.243 L 142.149,-443.841 L 141.882,-444.409 L 141.545,-444.939
 L 141.145,-445.423 L 140.687,-445.853 L 140.179,-446.222 L 139.629,-446.524 L 139.045,-446.755 L 138.437,-446.911
 L 137.814,-446.99 L -137.814,-446.99 L -138.437,-446.911 L -139.045,-446.755 L -139.629,-446.524 L -140.179,-446.222
 L -140.687,-445.853 L -141.145,-445.423 L -141.545,-444.939 L -141.882,-444.409 L -142.149,-443.841 L -142.343,-443.243
 L -142.461,-442.627 L -142.5,-442 L -142.5,-332 L -142.461,-331.373 L -142.343,-330.757 L -142.149,-330.159
 L -141.882,-329.591 L -141.545,-329.061 L -141.145,-328.577 L -140.687,-328.147 L -140.179,-327.778 L -139.629,-327.476
 L -139.045,-327.245 L -138.437,-327.089 L -137.814,-327.01 L 137.814,-327.01 z
M -137.382,-330.145 L -137.645,-330.178 L -137.902,-330.244 L -138.148,-330.341 L -138.38,-330.469 L -138.595,-330.625
 L -138.788,-330.806 L -138.957,-331.01 L -139.099,-331.234 L -139.211,-331.473 L -139.293,-331.725 L -139.343,-331.986
 L -139.36,-332.25 L -139.36,-441.75 L -139.343,-442.014 L -139.293,-442.275 L -139.211,-442.527 L -139.099,-442.766
 L -138.957,-442.99 L -138.788,-443.194 L -138.595,-443.375 L -138.38,-443.531 L -138.148,-443.659 L -137.902,-443.756
 L -137.645,-443.822 L -137.382,-443.855 L 137.382,-443.855 L 137.645,-443.822 L 137.902,-443.756 L 138.148,-443.659
 L 138.38,-443.531 L 138.595,-443.375 L 138.788,-443.194 L 138.957,-442.99 L 139.099,-442.766 L 139.211,-442.527
 L 139.293,-442.275 L 139.343,-442.014 L 139.36,-441.75 L 139.36,-332.25 L 139.343,-331.986 L 139.293,-331.725
 L 139.211,-331.473 L 139.099,-331.234 L 138.957,-331.01 L 138.788,-330.806 L 138.595,-330.625 L 138.38,-330.469
 L 138.148,-330.341 L 137.902,-330.244 L 137.645,-330.178 L 137.382,-330.145 z
" stroke="black" fill="lightgray" stroke-width="0.5"/>
</svg>
