<?xml version="1.0" standalone="no"?>
<!DOCTYPE svg PUBLIC "-//W3C//DTD SVG 1.1//EN" "http://www.w3.org/Graphics/SVG/1.1/DTD/svg11.dtd">
<svg width="287mm" height="88mm" viewBox="-144 -176 287 88" xmlns="http://www.w3.org/2000/svg" version="1.1">
<title>OpenSCAD Model</title>
<path d="
M -141,-161.941 L -140.687,-161.647 L -140.179,-161.278 L -139.629,-160.976 L -139.045,-160.745 L -138.437,-160.589
 L -137.814,-160.51 L 137.814,-160.51 L 138.437,-160.589 L 139.045,-160.745 L 139.629,-160.976 L 140.179,-161.278
 L 140.687,-161.647 L 141.145,-162.077 L 141.545,-162.561 L 141.882,-163.091 L 142.149,-163.659 L 142.343,-164.257
 L 142.461,-164.873 L 142.5,-165.5 L 142.5,-170.5 L 142.461,-171.127 L 142.343,-171.743 L 142.149,-172.341
 L 141.882,-172.909 L 141.545,-173.439 L 141.145,-173.923 L 140.687,-174.353 L 140.179,-174.722 L 139.629,-175.024
 L 139.045,-175.255 L 138.437,-175.411 L 137.814,-175.49 L -137.814,-175.49 L -138.437,-175.411 L -139.045,-175.255
 L -139.629,-175.024 L -140.179,-174.722 L -140.687,-174.353 L -141,-174.059 L -141,-175.49 L -144,-175.49
 L -144,-160.51 L -141,-160.51 z
M -137.251,-162.008 L -137.75,-162.071 L -138.236,-162.196 L -138.703,-162.381 L -139.143,-162.623 L -139.55,-162.918
 L -139.916,-163.262 L -140.236,-163.649 L -140.505,-164.073 L -140.719,-164.528 L -140.874,-165.005 L -140.968,-165.499
 L -141,-166 L -141,-170 L -140.968,-170.501 L -140.874,-170.995 L -140.719,-171.472 L -140.505,-171.927
 L -140.236,-172.351 L -139.916,-172.738 L -139.55,-173.082 L -139.143,-173.377 L -138.703,-173.619 L -138.236,-173.804
 L -137.75,-173.929 L -137.251,-173.992 L 137.251,-173.992 L 137.75,-173.929 L 138.236,-173.804 L 138.703,-173.619
 L 139.143,-173.377 L 139.55,-173.082 L 139.916,-172.738 L 140.236,-172.351 L 140.505,-171.927 L 140.719,-171.472
 L 140.874,-170.995 L 140.968,-170.501 L 141,-170 L 141,-166 L 140.968,-165.499 L 140.874,-165.005
 L 140.719,-164.528 L 140.505,-164.073 L 140.236,-163.649 L 139.916,-163.262 L 139.55,-162.918 L 139.143,-162.623
 L 138.703,-162.381 L 138.236,-162.196 L 137.75,-162.071 L 137.251,-162.008 z
M -141,-137.941 L -140.687,-137.647 L -140.179,-137.278 L -139.629,-136.976 L -139.045,-136.745 L -138.437,-136.589
 L -137.814,-136.51 L 137.814,-136.51 L 138.437,-136.589 L 139.045,-136.745 L 139.629,-136.976 L 140.179,-137.278
 L 140.687,-137.647 L 141.145,-138.077 L 141.545,-138.561 L 141.882,-139.091 L 142.149,-139.659 L 142.343,-140.257
 L 142.461,-140.873 L 142.5,-141.5 L 142.5,-146.5 L 142.461,-147.127 L 142.343,-147.743 L 142.149,-148.341
 L 141.882,-148.909 L 141.545,-149.439 L 141.145,-149.923 L 140.687,-150.353 L 140.179,-150.722 L 139.629,-151.024
 L 139.045,-151.255 L 138.437,-151.411 L 137.814,-151.49 L -137.814,-151.49 L -138.437,-151.411 L -139.045,-151.255
 L -139.629,-151.024 L -140.179,-150.722 L -140.687,-150.353 L -141,-150.059 L -141,-151.49 L -144,-151.49
 L -144,-136.51 L -141,-136.51 z
M -137.251,-138.008 L -137.75,-138.071 L -138.236,-138.196 L -138.703,-138.381 L -139.143,-138.623 L -139.55,-138.918
 L -139.916,-139.262 L -140.236,-139.649 L -140.505,-140.073 L -140.719,-140.528 L -140.874,-141.005 L -140.968,-141.499
 L -141,-142 L -141,-146 L -140.968,-146.501 L -140.874,-146.995 L -140.719,-147.472 L -140.505,-147.927
 L -140.236,-148.351 L -139.916,-148.738 L -139.55,-149.082 L -139.143,-149.377 L -138.703,-149.619 L -138.236,-149.804
 L -137.75,-149.929 L -137.251,-149.992 L 137.251,-149.992 L 137.75,-149.929 L 138.236,-149.804 L 138.703,-149.619
 L 139.143,-149.377 L 139.55,-149.082 L 139.916,-148.738 L 140.236,-148.351 L 140.505,-147.927 L 140.719,-147.472
 L 140.874,-146.995 L 140.968,-146.501 L 141,-146 L 141,-142 L 140.968,-141.499 L 140.874,-141.005
 L 140.719,-140.528 L 140.505,-140.073 L 140.236,-139.649 L 139.916,-139.262 L 139.55,-138.918 L 139.143,-138.623
 L 138.703,-138.381 L 138.236,-138.196 L 137.75,-138.071 L 137.251,-138.008 z
M 138.437,-112.589 L 139.045,-112.745 L 139.629,-112.976 L 140.179,-113.278 L 140.687,-113.647 L 141.145,-114.077
 L 141.545,-114.561 L 141.882,-115.091 L 142.149,-115.659 L 142.343,-116.257 L 142.461,-116.873 L 142.5,-117.5
 L 142.5,-122.5 L 142.461,-123.127 L 142.343,-123.743 L 142.149,-124.341 L 141.882,-124.909 L 141.545,-125.439
 L 141.145,-125.923 L 140.687,-126.353 L 140.179,-126.722 L 139.629,-127.024 L 139.045,-127.255 L 138.437,-127.411
 L 137.814,-127.49 L -137.814,-127.49 L -138.437,-127.411 L -139.045,-127.255 L -139.629,-127.024 L -140.179,-126.722
 L -140.687,-126.353 L -141,-126.059 L -141,-127.479 L -144,-127.479 L -144,-112.521 L -141,-112.521
 L -141,-113.941 L -140.687,-113.647 L -140.179,-113.278 L -139.629,-112.976 L -139.045,-112.745 L -138.437,-112.589
 L -137.814,-112.51 L 137.814,-112.51 z
M -137.195,-114.893 L -137.583,-114.942 L -137.962,-115.039 L -138.325,-115.183 L -138.668,-115.372 L -138.984,-115.601
 L -139.269,-115.869 L -139.518,-116.17 L -139.728,-116.5 L -139.894,-116.854 L -140.015,-117.226 L -140.088,-117.61
 L -140.113,-118 L -140.113,-122 L -140.088,-122.39 L -140.015,-122.774 L -139.894,-123.146 L -139.728,-123.5
 L -139.518,-123.83 L -139.269,-124.131 L -138.984,-124.399 L -138.668,-124.628 L -138.325,-124.817 L -137.962,-124.961
 L -137.583,-125.058 L -137.195,-125.107 L 137.195,-125.107 L 137.583,-125.058 L 137.962,-124.961 L 138.325,-124.817
 L 138.668,-124.628 L 138.984,-124.399 L 139.269,-124.131 L 139.518,-123.83 L 139.728,-123.5 L 139.894,-123.146
 L 140.015,-122.774 L 140.088,-122.39 L 140.113,-122 L 140.113,-118 L 140.088,-117.61 L 140.015,-117.226
 L 139.894,-116.854 L 139.728,-116.5 L 139.518,-116.17 L 139.269,-115.869 L 138.984,-115.601 L 138.668,-115.372
 L 138.325,-115.183 L 137.962,-115.039 L 137.583,-114.942 L 137.195,-114.893 z
M 138.437,-88.5886 L 139.045,-88.7447 L 139.629,-88.9759 L 140.179,-89.2784 L 140.687,-89.6474 L 141.145,-90.0773
 L 141.545,-90.5611 L 141.882,-91.0912 L 142.149,-91.6594 L 142.343,-92.2566 L 142.461,-92.8733 L 142.5,-93.5
 L 142.5,-98.5 L 142.461,-99.1267 L 142.343,-99.7434 L 142.149,-100.341 L 141.882,-100.909 L 141.545,-101.439
 L 141.145,-101.923 L 140.687,-102.353 L 140.179,-102.722 L 139.629,-103.024 L 139.045,-103.255 L 138.437,-103.411
 L 137.814,-103.49 L -137.814,-103.49 L -138.437,-103.411 L -139.045,-103.255 L -139.629,-103.024 L -140.179,-102.722
 L -140.687,-102.353 L -141,-102.059 L -141,-102.153 L -144,-102.153 L -144,-89.8474 L -141,-89.8474
 L -141,-89.9413 L -140.687,-89.6474 L -140.179,-89.2784 L -139.629,-88.9759 L -139.045,-88.7447 L -138.437,-88.5886
 L -137.814,-88.5099 L 137.814,-88.5099 z
M -135.134,-93.8689 L -135.4,-93.9025 L -135.66,-93.9692 L -135.909,-94.0679 L -136.144,-94.1971 L -136.361,-94.3547
 L -136.557,-94.5383 L -136.727,-94.7449 L -136.871,-94.9713 L -136.985,-95.214 L -137.068,-95.469 L -137.118,-95.7324
 L -137.135,-96 L -137.118,-96.2676 L -137.068,-96.531 L -136.985,-96.786 L -136.871,-97.0287 L -136.727,-97.2551
 L -136.557,-97.4617 L -136.361,-97.6453 L -136.144,-97.8029 L -135.909,-97.9321 L -135.66,-98.0308 L -135.4,-98.0975
 L -135.134,-98.1311 L -134.866,-98.1311 L -134.6,-98.0975 L -134.34,-98.0308 L -134.091,-97.9321 L -133.856,-97.8029
 L -133.639,-97.6453 L -133.443,-97.4617 L -133.273,-97.2551 L -133.129,-97.0287 L -133.015,-96.786 L -132.932,-96.531
 L -132.882,-96.2676 L -132.865,-96 L -132.882,-95.7324 L -132.932,-95.469 L -133.015,-95.214 L -133.129,-94.9713
 L -133.273,-94.7449 L -133.443,-94.5383 L -133.639,-94.3547 L -133.856,-94.1971 L -134.091,-94.0679 L -134.34,-93.9692
 L -134.6,-93.9025 L -134.866,-93.8689 z
M 134.866,-93.8689 L 134.6,-93.9025 L 134.34,-93.9692 L 134.091,-94.0679 L 133.856,-94.1971 L 133.639,-94.3547
 L 133.443,-94.5383 L 133.273,-94.7449 L 133.129,-94.9713 L 133.015,-95.214 L 132.932,-95.469 L 132.882,-95.7324
 L 132.865,-96 L 132.882,-96.2676 L 132.932,-96.531 L 133.015,-96.786 L 133.129,-97.0287 L 133.273,-97.2551
 L 133.443,-97.4617 L 133.639,-97.6453 L 133.856,-97.8029 L 134.091,-97.9321 L 134.34,-98.0308 L 134.6,-98.0975
 L 134.866,-98.1311 L 135.134,-98.1311 L 135.4,-98.0975 L 135.66,-98.0308 L 135.909,-97.9321 L 136.144,-97.8029
 L 136.361,-97.6453 L 136.557,-97.4617 L 136.727,-97.2551 L 136.871,-97.0287 L 136.985,-96.786 L 137.068,-96.531
 L 137.118,-96.2676 L 137.135,-96 L 137.118,-95.7324 L 137.068,-95.469 L 136.985,-95.214 L 136.871,-94.9713
 L 136.727,-94.7449 L 136.557,-94.5383 L 136.361,-94.3547 L 136.144,-94.1971 L 135.909,-94.0679 L 135.66,-93.9692
 L 135.4,-93.9025 L 135.134,-93.8689 z
" stroke="black" fill="lightgray" stroke-width="0.5"/>
</svg>
