<?xml version="1.0" standalone="no"?>
<!DOCTYPE svg PUBLIC "-//W3C//DTD SVG 1.1//EN" "http://www.w3.org/Graphics/SVG/1.1/DTD/svg11.dtd">
<svg width="240mm" height="309mm" viewBox="-120 -552 240 309" xmlns="http://www.w3.org/2000/svg" version="1.1">
<title>OpenSCAD Model</title>
<path d="
M 115.937,-402.089 L 116.545,-402.245 L 117.129,-402.476 L 117.679,-402.778 L 118.187,-403.147 L 118.645,-403.577
 L 119.045,-404.061 L 119.382,-404.591 L 119.649,-405.159 L 119.843,-405.757 L 119.961,-406.373 L 120,-407
 L 120,-547 L 119.961,-547.627 L 119.843,-548.243 L 119.649,-548.841 L 119.382,-549.409 L 119.045,-549.939
 L 118.645,-550.423 L 118.187,-550.853 L 117.679,-551.222 L 117.129,-551.524 L 116.545,-551.755 L 115.937,-551.911
 L 115.314,-551.99 L -115.314,-551.99 L -115.937,-551.911 L -116.545,-551.755 L -117.129,-551.524 L -117.679,-551.222
 L -118.187,-550.853 L -118.645,-550.423 L -119.045,-549.939 L -119.382,-549.409 L -119.649,-548.841 L -119.843,-548.243
 L -119.961,-547.627 L -120,-547 L -120,-407 L -119.961,-406.373 L -119.843,-405.757 L -119.649,-405.159
 L -119.382,-404.591 L -119.045,-404.061 L -118.645,-403.577 L -118.187,-403.147 L -117.679,-402.778 L -117.129,-402.476
 L -116.545,-402.245 L -115.937,-402.089 L -115.314,-402.01 L 115.314,-402.01 z
M -115.037,-402.681 L -115.608,-402.753 L -116.165,-402.896 L -116.699,-403.107 L -117.203,-403.384 L -117.668,-403.722
 L -118.088,-404.116 L -118.454,-404.559 L -118.762,-405.044 L -119.007,-405.565 L -119.185,-406.111 L -119.292,-406.676
 L -119.328,-407.25 L -119.328,-546.75 L -119.292,-547.324 L -119.185,-547.889 L -119.007,-548.435 L -118.762,-548.956
 L -118.454,-549.441 L -118.088,-549.884 L -117.668,-550.278 L -117.203,-550.616 L -116.699,-550.893 L -116.165,-551.104
 L -115.608,-551.247 L -115.037,-551.319 L 115.037,-551.319 L 115.608,-551.247 L 116.165,-551.104 L 116.699,-550.893
 L 117.203,-550.616 L 117.668,-550.278 L 118.088,-549.884 L 118.454,-549.441 L 118.762,-548.956 L 119.007,-548.435
 L 119.185,-547.889 L 119.292,-547.324 L 119.328,-546.75 L 119.328,-407.25 L 119.292,-406.676 L 119.185,-406.111
 L 119.007,-405.565 L 118.762,-405.044 L 118.454,-404.559 L 118.088,-404.116 L 117.668,-403.722 L 117.203,-403.384
 L 116.699,-403.107 L 116.165,-402.896 L 115.608,-402.753 L 115.037,-402.681 z
M 115.937,-243.089 L 116.545,-243.245 L 117.129,-243.476 L 117.679,-243.778 L 118.187,-244.147 L 118.645,-244.577
 L 119.045,-245.061 L 119.382,-245.591 L 119.649,-246.159 L 119.843,-246.757 L 119.961,-247.373 L 120,-248
 L 120,-388 L 119.961,-388.627 L 119.843,-389.243 L 119.649,-389.841 L 119.382,-390.409 L 119.045,-390.939
 L 118.645,-391.423 L 118.187,-391.853 L 117.679,-392.222 L 117.129,-392.524 L 116.545,-392.755 L 115.937,-392.911
 L 115.314,-392.99 L -115.314,-392.99 L -115.937,-392.911 L -116.545,-392.755 L -117.129,-392.524 L -117.679,-392.222
 L -118.187,-391.853 L -118.645,-391.423 L -119.045,-390.939 L -119.382,-390.409 L -119.649,-389.841 L -119.843,-389.243
 L -119.961,-388.627 L -120,-388 L -120,-248 L -119.961,-247.373 L -119.843,-246.757 L -119.649,-246.159
 L -119.382,-245.591 L -119.045,-245.061 L -118.645,-244.577 L -118.187,-244.147 L -117.679,-243.778 L -117.129,-243.476
 L -116.545,-243.245 L -115.937,-243.089 L -115.314,-243.01 L 115.314,-243.01 z
M -114.882,-246.145 L -115.145,-246.178 L -115.402,-246.244 L -115.648,-246.341 L -115.88,-246.469 L -116.095,-246.624
 L -116.288,-246.806 L -116.457,-247.01 L -116.599,-247.234 L -116.711,-247.473 L -116.793,-247.725 L -116.843,-247.986
 L -116.86,-248.25 L -116.86,-387.75 L -116.843,-388.014 L -116.793,-388.275 L -116.711,-388.527 L -116.599,-388.766
 L -116.457,-388.99 L -116.288,-389.194 L -116.095,-389.376 L -115.88,-389.531 L -115.648,-389.659 L -115.402,-389.756
 L -115.145,-389.822 L -114.882,-389.855 L 114.882,-389.855 L 115.145,-389.822 L 115.402,-389.756 L 115.648,-389.659
 L 115.88,-389.531 L 116.095,-389.376 L 116.288,-389.194 L 116.457,-388.99 L 116.599,-388.766 L 116.711,-388.527
 L 116.793,-388.275 L 116.843,-388.014 L 116.86,-387.75 L 116.86,-248.25 L 116.843,-247.986 L 116.793,-247.725
 L 116.711,-247.473 L 116.599,-247.234 L 116.457,-247.01 L 116.288,-246.806 L 116.095,-246.624 L 115.88,-246.469
 L 115.648,-246.341 L 115.402,-246.244 L 115.145,-246.178 L 114.882,-246.145 z
" stroke="black" fill="lightgray" stroke-width="0.5"/>
</svg>
