<?xml version="1.0" standalone="no"?>
<!DOCTYPE svg PUBLIC "-//W3C//DTD SVG 1.1//EN" "http://www.w3.org/Graphics/SVG/1.1/DTD/svg11.dtd">
<svg width="270mm" height="1227mm" viewBox="-135 -2313 270 1227" xmlns="http://www.w3.org/2000/svg" version="1.1">
<title>OpenSCAD Model</title>
<path d="
M 130.937,-2013.09 L 131.545,-2013.24 L 132.129,-2013.48 L 132.679,-2013.78 L 133.187,-2014.15 L 133.645,-2014.58
 L 134.045,-2015.06 L 134.382,-2015.59 L 134.649,-2016.16 L 134.843,-2016.76 L 134.961,-2017.37 L 135,-2018
 L 135,-2308 L 134.961,-2308.63 L 134.843,-2309.24 L 134.649,-2309.84 L 134.382,-2310.41 L 134.045,-2310.94
 L 133.645,-2311.42 L 133.187,-2311.85 L 132.679,-2312.22 L 132.129,-2312.52 L 131.545,-2312.76 L 130.937,-2312.91
 L 130.314,-2312.99 L -130.314,-2312.99 L -130.937,-2312.91 L -131.545,-2312.76 L -132.129,-2312.52 L -132.679,-2312.22
 L -133.187,-2311.85 L -133.645,-2311.42 L -134.045,-2310.94 L -134.382,-2310.41 L -134.649,-2309.84 L -134.843,-2309.24
 L -134.961,-2308.63 L -135,-2308 L -135,-2018 L -134.961,-2017.37 L -134.843,-2016.76 L -134.649,-2016.16
 L -134.382,-2015.59 L -134.045,-2015.06 L -133.645,-2014.58 L -133.187,-2014.15 L -132.679,-2013.78 L -132.129,-2013.48
 L -131.545,-2013.24 L -130.937,-2013.09 L -130.314,-2013.01 L 130.314,-2013.01 z
M -129.751,-2014.51 L -130.25,-2014.57 L -130.736,-2014.7 L -131.203,-2014.88 L -131.643,-2015.12 L -132.05,-2015.42
 L -132.416,-2015.76 L -132.736,-2016.15 L -133.005,-2016.57 L -133.219,-2017.03 L -133.374,-2017.51 L -133.468,-2018
 L -133.5,-2018.5 L -133.5,-2307.5 L -133.468,-2308 L -133.374,-2308.49 L -133.219,-2308.97 L -133.005,-2309.43
 L -132.736,-2309.85 L -132.416,-2310.24 L -132.05,-2310.58 L -131.643,-2310.88 L -131.203,-2311.12 L -130.736,-2311.3
 L -130.25,-2311.43 L -129.751,-2311.49 L 129.751,-2311.49 L 130.25,-2311.43 L 130.736,-2311.3 L 131.203,-2311.12
 L 131.643,-2310.88 L 132.05,-2310.58 L 132.416,-2310.24 L 132.736,-2309.85 L 133.005,-2309.43 L 133.219,-2308.97
 L 133.374,-2308.49 L 133.468,-2308 L 133.5,-2307.5 L 133.5,-2018.5 L 133.468,-2018 L 133.374,-2017.51
 L 133.219,-2017.03 L 133.005,-2016.57 L 132.736,-2016.15 L 132.416,-2015.76 L 132.05,-2015.42 L 131.643,-2015.12
 L 131.203,-2014.88 L 130.736,-2014.7 L 130.25,-2014.57 L 129.751,-2014.51 z
M 130.937,-1704.09 L 131.545,-1704.24 L 132.129,-1704.48 L 132.679,-1704.78 L 133.187,-1705.15 L 133.645,-1705.58
 L 134.045,-1706.06 L 134.382,-1706.59 L 134.649,-1707.16 L 134.843,-1707.76 L 134.961,-1708.37 L 135,-1709
 L 135,-1999 L 134.961,-1999.63 L 134.843,-2000.24 L 134.649,-2000.84 L 134.382,-2001.41 L 134.045,-2001.94
 L 133.645,-2002.42 L 133.187,-2002.85 L 132.679,-2003.22 L 132.129,-2003.52 L 131.545,-2003.76 L 130.937,-2003.91
 L 130.314,-2003.99 L -130.314,-2003.99 L -130.937,-2003.91 L -131.545,-2003.76 L -132.129,-2003.52 L -132.679,-2003.22
 L -133.187,-2002.85 L -133.645,-2002.42 L -134.045,-2001.94 L -134.382,-2001.41 L -134.649,-2000.84 L -134.843,-2000.24
 L -134.961,-1999.63 L -135,-1999 L -135,-1709 L -134.961,-1708.37 L -134.843,-1707.76 L -134.649,-1707.16
 L -134.382,-1706.59 L -134.045,-1706.06 L -133.645,-1705.58 L -133.187,-1705.15 L -132.679,-1704.78 L -132.129,-1704.48
 L -131.545,-1704.24 L -130.937,-1704.09 L -130.314,-1704.01 L 130.314,-1704.01 z
M -129.751,-1705.51 L -130.25,-1705.57 L -130.736,-1705.7 L -131.203,-1705.88 L -131.643,-1706.12 L -132.05,-1706.42
 L -132.416,-1706.76 L -132.736,-1707.15 L -133.005,-1707.57 L -133.219,-1708.03 L -133.374,-1708.51 L -133.468,-1709
 L -133.5,-1709.5 L -133.5,-1998.5 L -133.468,-1999 L -133.374,-1999.49 L -133.219,-1999.97 L -133.005,-2000.43
 L -132.736,-2000.85 L -132.416,-2001.24 L -132.05,-2001.58 L -131.643,-2001.88 L -131.203,-2002.12 L -130.736,-2002.3
 L -130.25,-2002.43 L -129.751,-2002.49 L 129.751,-2002.49 L 130.25,-2002.43 L 130.736,-2002.3 L 131.203,-2002.12
 L 131.643,-2001.88 L 132.05,-2001.58 L 132.416,-2001.24 L 132.736,-2000.85 L 133.005,-2000.43 L 133.219,-1999.97
 L 133.374,-1999.49 L 133.468,-1999 L 133.5,-1998.5 L 133.5,-1709.5 L 133.468,-1709 L 133.374,-1708.51
 L 133.219,-1708.03 L 133.005,-1707.57 L 132.736,-1707.15 L 132.416,-1706.76 L 132.05,-1706.42 L 131.643,-1706.12
 L 131.203,-1705.88 L 130.736,-1705.7 L 130.25,-1705.57 L 129.751,-1705.51 z
M 130.937,-1395.09 L 131.545,-1395.24 L 132.129,-1395.48 L 132.679,-1395.78 L 133.187,-1396.15 L 133.645,-1396.58
 L 134.045,-1397.06 L 134.382,-1397.59 L 134.649,-1398.16 L 134.843,-1398.76 L 134.961,-1399.37 L 135,-1400
 L 135,-1690 L 134.961,-1690.63 L 134.843,-1691.24 L 134.649,-1691.84 L 134.382,-1692.41 L 134.045,-1692.94
 L 133.645,-1693.42 L 133.187,-1693.85 L 132.679,-1694.22 L 132.129,-1694.52 L 131.545,-1694.76 L 130.937,-1694.91
 L 130.314,-1694.99 L -130.314,-1694.99 L -130.937,-1694.91 L -131.545,-1694.76 L -132.129,-1694.52 L -132.679,-1694.22
 L -133.187,-1693.85 L -133.645,-1693.42 L -134.045,-1692.94 L -134.382,-1692.41 L -134.649,-1691.84 L -134.843,-1691.24
 L -134.961,-1690.63 L -135,-1690 L -135,-1400 L -134.961,-1399.37 L -134.843,-1398.76 L -134.649,-1398.16
 L -134.382,-1397.59 L -134.045,-1397.06 L -133.645,-1396.58 L -133.187,-1396.15 L -132.679,-1395.78 L -132.129,-1395.48
 L -131.545,-1395.24 L -130.937,-1395.09 L -130.314,-1395.01 L 130.314,-1395.01 z
M -129.695,-1397.39 L -130.083,-1397.44 L -130.462,-1397.54 L -130.825,-1397.68 L -131.168,-1397.87 L -131.484,-1398.1
 L -131.769,-1398.37 L -132.018,-1398.67 L -132.228,-1399 L -132.394,-1399.35 L -132.515,-1399.73 L -132.588,-1400.11
 L -132.613,-1400.5 L -132.613,-1689.5 L -132.588,-1689.89 L -132.515,-1690.27 L -132.394,-1690.65 L -132.228,-1691
 L -132.018,-1691.33 L -131.769,-1691.63 L -131.484,-1691.9 L -131.168,-1692.13 L -130.825,-1692.32 L -130.462,-1692.46
 L -130.083,-1692.56 L -129.695,-1692.61 L 129.695,-1692.61 L 130.083,-1692.56 L 130.462,-1692.46 L 130.825,-1692.32
 L 131.168,-1692.13 L 131.484,-1691.9 L 131.769,-1691.63 L 132.018,-1691.33 L 132.228,-1691 L 132.394,-1690.65
 L 132.515,-1690.27 L 132.588,-1689.89 L 132.613,-1689.5 L 132.613,-1400.5 L 132.588,-1400.11 L 132.515,-1399.73
 L 132.394,-1399.35 L 132.228,-1399 L 132.018,-1398.67 L 131.769,-1398.37 L 131.484,-1398.1 L 131.168,-1397.87
 L 130.825,-1397.68 L 130.462,-1397.54 L 130.083,-1397.44 L 129.695,-1397.39 z
M 130.937,-1086.09 L 131.545,-1086.24 L 132.129,-1086.48 L 132.679,-1086.78 L 133.187,-1087.15 L 133.645,-1087.58
 L 134.045,-1088.06 L 134.382,-1088.59 L 134.649,-1089.16 L 134.843,-1089.76 L 134.961,-1090.37 L 135,-1091
 L 135,-1381 L 134.961,-1381.63 L 134.843,-1382.24 L 134.649,-1382.84 L 134.382,-1383.41 L 134.045,-1383.94
 L 133.645,-1384.42 L 133.187,-1384.85 L 132.679,-1385.22 L 132.129,-1385.52 L 131.545,-1385.76 L 130.937,-1385.91
 L 130.314,-1385.99 L -130.314,-1385.99 L -130.937,-1385.91 L -131.545,-1385.76 L -132.129,-1385.52 L -132.679,-1385.22
 L -133.187,-1384.85 L -133.645,-1384.42 L -134.045,-1383.94 L -134.382,-1383.41 L -134.649,-1382.84 L -134.843,-1382.24
 L -134.961,-1381.63 L -135,-1381 L -135,-1091 L -134.961,-1090.37 L -134.843,-1089.76 L -134.649,-1089.16
 L -134.382,-1088.59 L -134.045,-1088.06 L -133.645,-1087.58 L -133.187,-1087.15 L -132.679,-1086.78 L -132.129,-1086.48
 L -131.545,-1086.24 L -130.937,-1086.09 L -130.314,-1086.01 L 130.314,-1086.01 z
M 127.366,-1376.37 L 127.1,-1376.4 L 126.84,-1376.47 L 126.591,-1376.57 L 126.356,-1376.7 L 126.139,-1376.85
 L 125.943,-1377.04 L 125.773,-1377.24 L 125.629,-1377.47 L 125.515,-1377.71 L 125.432,-1377.97 L 125.382,-1378.23
 L 125.365,-1378.5 L 125.382,-1378.77 L 125.432,-1379.03 L 125.515,-1379.29 L 125.629,-1379.53 L 125.773,-1379.76
 L 125.943,-1379.96 L 126.139,-1380.15 L 126.356,-1380.3 L 126.591,-1380.43 L 126.84,-1380.53 L 127.1,-1380.6
 L 127.366,-1380.63 L 127.634,-1380.63 L 127.9,-1380.6 L 128.16,-1380.53 L 128.409,-1380.43 L 128.644,-1380.3
 L 128.861,-1380.15 L 129.057,-1379.96 L 129.227,-1379.76 L 129.371,-1379.53 L 129.485,-1379.29 L 129.568,-1379.03
 L 129.618,-1378.77 L 129.635,-1378.5 L 129.618,-1378.23 L 129.568,-1377.97 L 129.485,-1377.71 L 129.371,-1377.47
 L 129.227,-1377.24 L 129.057,-1377.04 L 128.861,-1376.85 L 128.644,-1376.7 L 128.409,-1376.57 L 128.16,-1376.47
 L 127.9,-1376.4 L 127.634,-1376.37 z
M -127.634,-1376.37 L -127.9,-1376.4 L -128.16,-1376.47 L -128.409,-1376.57 L -128.644,-1376.7 L -128.861,-1376.85
 L -129.057,-1377.04 L -129.227,-1377.24 L -129.371,-1377.47 L -129.485,-1377.71 L -129.568,-1377.97 L -129.618,-1378.23
 L -129.635,-1378.5 L -129.618,-1378.77 L -129.568,-1379.03 L -129.485,-1379.29 L -129.371,-1379.53 L -129.227,-1379.76
 L -129.057,-1379.96 L -128.861,-1380.15 L -128.644,-1380.3 L -128.409,-1380.43 L -128.16,-1380.53 L -127.9,-1380.6
 L -127.634,-1380.63 L -127.366,-1380.63 L -127.1,-1380.6 L -126.84,-1380.53 L -126.591,-1380.43 L -126.356,-1380.3
 L -126.139,-1380.15 L -125.943,-1379.96 L -125.773,-1379.76 L -125.629,-1379.53 L -125.515,-1379.29 L -125.432,-1379.03
 L -125.382,-1378.77 L -125.365,-1378.5 L -125.382,-1378.23 L -125.432,-1377.97 L -125.515,-1377.71 L -125.629,-1377.47
 L -125.773,-1377.24 L -125.943,-1377.04 L -126.139,-1376.85 L -126.356,-1376.7 L -126.591,-1376.57 L -126.84,-1376.47
 L -127.1,-1376.4 L -127.366,-1376.37 z
M 127.366,-1091.37 L 127.1,-1091.4 L 126.84,-1091.47 L 126.591,-1091.57 L 126.356,-1091.7 L 126.139,-1091.85
 L 125.943,-1092.04 L 125.773,-1092.24 L 125.629,-1092.47 L 125.515,-1092.71 L 125.432,-1092.97 L 125.382,-1093.23
 L 125.365,-1093.5 L 125.382,-1093.77 L 125.432,-1094.03 L 125.515,-1094.29 L 125.629,-1094.53 L 125.773,-1094.76
 L 125.943,-1094.96 L 126.139,-1095.15 L 126.356,-1095.3 L 126.591,-1095.43 L 126.84,-1095.53 L 127.1,-1095.6
 L 127.366,-1095.63 L 127.634,-1095.63 L 127.9,-1095.6 L 128.16,-1095.53 L 128.409,-1095.43 L 128.644,-1095.3
 L 128.861,-1095.15 L 129.057,-1094.96 L 129.227,-1094.76 L 129.371,-1094.53 L 129.485,-1094.29 L 129.568,-1094.03
 L 129.618,-1093.77 L 129.635,-1093.5 L 129.618,-1093.23 L 129.568,-1092.97 L 129.485,-1092.71 L 129.371,-1092.47
 L 129.227,-1092.24 L 129.057,-1092.04 L 128.861,-1091.85 L 128.644,-1091.7 L 128.409,-1091.57 L 128.16,-1091.47
 L 127.9,-1091.4 L 127.634,-1091.37 z
M -127.634,-1091.37 L -127.9,-1091.4 L -128.16,-1091.47 L -128.409,-1091.57 L -128.644,-1091.7 L -128.861,-1091.85
 L -129.057,-1092.04 L -129.227,-1092.24 L -129.371,-1092.47 L -129.485,-1092.71 L -129.568,-1092.97 L -129.618,-1093.23
 L -129.635,-1093.5 L -129.618,-1093.77 L -129.568,-1094.03 L -129.485,-1094.29 L -129.371,-1094.53 L -129.227,-1094.76
 L -129.057,-1094.96 L -128.861,-1095.15 L -128.644,-1095.3 L -128.409,-1095.43 L -128.16,-1095.53 L -127.9,-1095.6
 L -127.634,-1095.63 L -127.366,-1095.63 L -127.1,-1095.6 L -126.84,-1095.53 L -126.591,-1095.43 L -126.356,-1095.3
 L -126.139,-1095.15 L -125.943,-1094.96 L -125.773,-1094.76 L -125.629,-1094.53 L -125.515,-1094.29 L -125.432,-1094.03
 L -125.382,-1093.77 L -125.365,-1093.5 L -125.382,-1093.23 L -125.432,-1092.97 L -125.515,-1092.71 L -125.629,-1092.47
 L -125.773,-1092.24 L -125.943,-1092.04 L -126.139,-1091.85 L -126.356,-1091.7 L -126.591,-1091.57 L -126.84,-1091.47
 L -127.1,-1091.4 L -127.366,-1091.37 z
" stroke="black" fill="lightgray" stroke-width="0.5"/>
</svg>
