<?xml version="1.0" standalone="no"?>
<!DOCTYPE svg PUBLIC "-//W3C//DTD SVG 1.1//EN" "http://www.w3.org/Graphics/SVG/1.1/DTD/svg11.dtd">
<svg width="242mm" height="648mm" viewBox="-122 -1200 242 648" xmlns="http://www.w3.org/2000/svg" version="1.1">
<title>OpenSCAD Model</title>
<path d="
M -118.5,-991.441 L -118.187,-991.147 L -117.679,-990.778 L -117.129,-990.476 L -116.545,-990.245 L -115.937,-990.089
 L -115.314,-990.01 L 115.314,-990.01 L 115.937,-990.089 L 116.545,-990.245 L 117.129,-990.476 L 117.679,-990.778
 L 118.187,-991.147 L 118.645,-991.577 L 119.045,-992.061 L 119.382,-992.591 L 119.649,-993.159 L 119.843,-993.757
 L 119.961,-994.373 L 120,-995 L 120,-1195 L 119.961,-1195.63 L 119.843,-1196.24 L 119.649,-1196.84
 L 119.382,-1197.41 L 119.045,-1197.94 L 118.645,-1198.42 L 118.187,-1198.85 L 117.679,-1199.22 L 117.129,-1199.52
 L 116.545,-1199.76 L 115.937,-1199.91 L 115.314,-1199.99 L -115.314,-1199.99 L -115.937,-1199.91 L -116.545,-1199.76
 L -117.129,-1199.52 L -117.679,-1199.22 L -118.187,-1198.85 L -118.5,-1198.56 L -118.5,-1199.99 L -121.5,-1199.99
 L -121.5,-990.01 L -118.5,-990.01 z
M -114.751,-991.508 L -115.25,-991.571 L -115.736,-991.696 L -116.203,-991.881 L -116.643,-992.123 L -117.05,-992.418
 L -117.416,-992.762 L -117.736,-993.149 L -118.005,-993.573 L -118.219,-994.028 L -118.374,-994.505 L -118.468,-994.999
 L -118.5,-995.5 L -118.5,-1194.5 L -118.468,-1195 L -118.374,-1195.49 L -118.219,-1195.97 L -118.005,-1196.43
 L -117.736,-1196.85 L -117.416,-1197.24 L -117.05,-1197.58 L -116.643,-1197.88 L -116.203,-1198.12 L -115.736,-1198.3
 L -115.25,-1198.43 L -114.751,-1198.49 L 114.751,-1198.49 L 115.25,-1198.43 L 115.736,-1198.3 L 116.203,-1198.12
 L 116.643,-1197.88 L 117.05,-1197.58 L 117.416,-1197.24 L 117.736,-1196.85 L 118.005,-1196.43 L 118.219,-1195.97
 L 118.374,-1195.49 L 118.468,-1195 L 118.5,-1194.5 L 118.5,-995.5 L 118.468,-994.999 L 118.374,-994.505
 L 118.219,-994.028 L 118.005,-993.573 L 117.736,-993.149 L 117.416,-992.762 L 117.05,-992.418 L 116.643,-992.123
 L 116.203,-991.881 L 115.736,-991.696 L 115.25,-991.571 L 114.751,-991.508 z
M 115.937,-771.089 L 116.545,-771.245 L 117.129,-771.476 L 117.679,-771.778 L 118.187,-772.147 L 118.645,-772.577
 L 119.045,-773.061 L 119.382,-773.591 L 119.649,-774.159 L 119.843,-774.757 L 119.961,-775.373 L 120,-776
 L 120,-976 L 119.961,-976.627 L 119.843,-977.243 L 119.649,-977.841 L 119.382,-978.409 L 119.045,-978.939
 L 118.645,-979.423 L 118.187,-979.853 L 117.679,-980.222 L 117.129,-980.524 L 116.545,-980.755 L 115.937,-980.911
 L 115.314,-980.99 L -115.314,-980.99 L -115.937,-980.911 L -116.545,-980.755 L -117.129,-980.524 L -117.679,-980.222
 L -118.187,-979.853 L -118.5,-979.559 L -118.5,-980.979 L -121.5,-980.979 L -121.5,-771.021 L -118.5,-771.021
 L -118.5,-772.441 L -118.187,-772.147 L -117.679,-771.778 L -117.129,-771.476 L -116.545,-771.245 L -115.937,-771.089
 L -115.314,-771.01 L 115.314,-771.01 z
M -114.695,-773.393 L -115.083,-773.442 L -115.462,-773.539 L -115.825,-773.683 L -116.168,-773.872 L -116.484,-774.101
 L -116.769,-774.369 L -117.018,-774.67 L -117.228,-775 L -117.394,-775.354 L -117.515,-775.726 L -117.588,-776.11
 L -117.613,-776.5 L -117.613,-975.5 L -117.588,-975.89 L -117.515,-976.274 L -117.394,-976.646 L -117.228,-977
 L -117.018,-977.33 L -116.769,-977.631 L -116.484,-977.899 L -116.168,-978.128 L -115.825,-978.317 L -115.462,-978.461
 L -115.083,-978.558 L -114.695,-978.607 L 114.695,-978.607 L 115.083,-978.558 L 115.462,-978.461 L 115.825,-978.317
 L 116.168,-978.128 L 116.484,-977.899 L 116.769,-977.631 L 117.018,-977.33 L 117.228,-977 L 117.394,-976.646
 L 117.515,-976.274 L 117.588,-975.89 L 117.613,-975.5 L 117.613,-776.5 L 117.588,-776.11 L 117.515,-775.726
 L 117.394,-775.354 L 117.228,-775 L 117.018,-774.67 L 116.769,-774.369 L 116.484,-774.101 L 116.168,-773.872
 L 115.825,-773.683 L 115.462,-773.539 L 115.083,-773.442 L 114.695,-773.393 z
M 115.937,-552.089 L 116.545,-552.245 L 117.129,-552.476 L 117.679,-552.778 L 118.187,-553.147 L 118.645,-553.577
 L 119.045,-554.061 L 119.382,-554.591 L 119.649,-555.159 L 119.843,-555.757 L 119.961,-556.373 L 120,-557
 L 120,-757 L 119.961,-757.627 L 119.843,-758.243 L 119.649,-758.841 L 119.382,-759.409 L 119.045,-759.939
 L 118.645,-760.423 L 118.187,-760.853 L 117.679,-761.222 L 117.129,-761.524 L 116.545,-761.755 L 115.937,-761.911
 L 115.314,-761.99 L -115.314,-761.99 L -115.937,-761.911 L -116.545,-761.755 L -117.129,-761.524 L -117.679,-761.222
 L -118.187,-760.853 L -118.5,-760.559 L -118.5,-760.653 L -121.5,-760.653 L -121.5,-553.347 L -118.5,-553.347
 L -118.5,-553.441 L -118.187,-553.147 L -117.679,-552.778 L -117.129,-552.476 L -116.545,-552.245 L -115.937,-552.089
 L -115.314,-552.01 L 115.314,-552.01 z
M 112.366,-752.369 L 112.1,-752.403 L 111.84,-752.469 L 111.591,-752.568 L 111.356,-752.697 L 111.139,-752.855
 L 110.943,-753.038 L 110.773,-753.245 L 110.629,-753.471 L 110.515,-753.714 L 110.432,-753.969 L 110.382,-754.232
 L 110.365,-754.5 L 110.382,-754.768 L 110.432,-755.031 L 110.515,-755.286 L 110.629,-755.529 L 110.773,-755.755
 L 110.943,-755.962 L 111.139,-756.145 L 111.356,-756.303 L 111.591,-756.432 L 111.84,-756.531 L 112.1,-756.597
 L 112.366,-756.631 L 112.634,-756.631 L 112.9,-756.597 L 113.16,-756.531 L 113.409,-756.432 L 113.644,-756.303
 L 113.861,-756.145 L 114.057,-755.962 L 114.227,-755.755 L 114.371,-755.529 L 114.485,-755.286 L 114.568,-755.031
 L 114.618,-754.768 L 114.635,-754.5 L 114.618,-754.232 L 114.568,-753.969 L 114.485,-753.714 L 114.371,-753.471
 L 114.227,-753.245 L 114.057,-753.038 L 113.861,-752.855 L 113.644,-752.697 L 113.409,-752.568 L 113.16,-752.469
 L 112.9,-752.403 L 112.634,-752.369 z
M -112.634,-752.369 L -112.9,-752.403 L -113.16,-752.469 L -113.409,-752.568 L -113.644,-752.697 L -113.861,-752.855
 L -114.057,-753.038 L -114.227,-753.245 L -114.371,-753.471 L -114.485,-753.714 L -114.568,-753.969 L -114.618,-754.232
 L -114.635,-754.5 L -114.618,-754.768 L -114.568,-755.031 L -114.485,-755.286 L -114.371,-755.529 L -114.227,-755.755
 L -114.057,-755.962 L -113.861,-756.145 L -113.644,-756.303 L -113.409,-756.432 L -113.16,-756.531 L -112.9,-756.597
 L -112.634,-756.631 L -112.366,-756.631 L -112.1,-756.597 L -111.84,-756.531 L -111.591,-756.432 L -111.356,-756.303
 L -111.139,-756.145 L -110.943,-755.962 L -110.773,-755.755 L -110.629,-755.529 L -110.515,-755.286 L -110.432,-755.031
 L -110.382,-754.768 L -110.365,-754.5 L -110.382,-754.232 L -110.432,-753.969 L -110.515,-753.714 L -110.629,-753.471
 L -110.773,-753.245 L -110.943,-753.038 L -111.139,-752.855 L -111.356,-752.697 L -111.591,-752.568 L -111.84,-752.469
 L -112.1,-752.403 L -112.366,-752.369 z
M 112.366,-557.369 L 112.1,-557.403 L 111.84,-557.469 L 111.591,-557.568 L 111.356,-557.697 L 111.139,-557.855
 L 110.943,-558.038 L 110.773,-558.245 L 110.629,-558.471 L 110.515,-558.714 L 110.432,-558.969 L 110.382,-559.232
 L 110.365,-559.5 L 110.382,-559.768 L 110.432,-560.031 L 110.515,-560.286 L 110.629,-560.529 L 110.773,-560.755
 L 110.943,-560.962 L 111.139,-561.145 L 111.356,-561.303 L 111.591,-561.432 L 111.84,-561.531 L 112.1,-561.597
 L 112.366,-561.631 L 112.634,-561.631 L 112.9,-561.597 L 113.16,-561.531 L 113.409,-561.432 L 113.644,-561.303
 L 113.861,-561.145 L 114.057,-560.962 L 114.227,-560.755 L 114.371,-560.529 L 114.485,-560.286 L 114.568,-560.031
 L 114.618,-559.768 L 114.635,-559.5 L 114.618,-559.232 L 114.568,-558.969 L 114.485,-558.714 L 114.371,-558.471
 L 114.227,-558.245 L 114.057,-558.038 L 113.861,-557.855 L 113.644,-557.697 L 113.409,-557.568 L 113.16,-557.469
 L 112.9,-557.403 L 112.634,-557.369 z
M -112.634,-557.369 L -112.9,-557.403 L -113.16,-557.469 L -113.409,-557.568 L -113.644,-557.697 L -113.861,-557.855
 L -114.057,-558.038 L -114.227,-558.245 L -114.371,-558.471 L -114.485,-558.714 L -114.568,-558.969 L -114.618,-559.232
 L -114.635,-559.5 L -114.618,-559.768 L -114.568,-560.031 L -114.485,-560.286 L -114.371,-560.529 L -114.227,-560.755
 L -114.057,-560.962 L -113.861,-561.145 L -113.644,-561.303 L -113.409,-561.432 L -113.16,-561.531 L -112.9,-561.597
 L -112.634,-561.631 L -112.366,-561.631 L -112.1,-561.597 L -111.84,-561.531 L -111.591,-561.432 L -111.356,-561.303
 L -111.139,-561.145 L -110.943,-560.962 L -110.773,-560.755 L -110.629,-560.529 L -110.515,-560.286 L -110.432,-560.031
 L -110.382,-559.768 L -110.365,-559.5 L -110.382,-559.232 L -110.432,-558.969 L -110.515,-558.714 L -110.629,-558.471
 L -110.773,-558.245 L -110.943,-558.038 L -111.139,-557.855 L -111.356,-557.697 L -111.591,-557.568 L -111.84,-557.469
 L -112.1,-557.403 L -112.366,-557.369 z
" stroke="black" fill="lightgray" stroke-width="0.5"/>
</svg>
