  0
SECTION
  2
BLOCKS
  0
ENDSEC
  0
SECTION
  2
ENTITIES
  0
LINE
  8
0
 10
115.937
 20
265.589
 11
116.545
 21
265.745
  0
LINE
  8
0
 10
116.545
 20
265.745
 11
117.129
 21
265.976
  0
LINE
  8
0
 10
117.129
 20
265.976
 11
117.679
 21
266.278
  0
LINE
  8
0
 10
117.679
 20
266.278
 11
118.187
 21
266.647
  0
LINE
  8
0
 10
118.187
 20
266.647
 11
118.645
 21
267.077
  0
LINE
  8
0
 10
118.645
 20
267.077
 11
119.045
 21
267.561
  0
LINE
  8
0
 10
119.045
 20
267.561
 11
119.382
 21
268.091
  0
LINE
  8
0
 10
119.382
 20
268.091
 11
119.649
 21
268.659
  0
LINE
  8
0
 10
119.649
 20
268.659
 11
119.843
 21
269.257
  0
LINE
  8
0
 10
119.843
 20
269.257
 11
119.961
 21
269.873
  0
LINE
  8
0
 10
119.961
 20
269.873
 11
120
 21
270.5
  0
LINE
  8
0
 10
120
 20
270.5
 11
120
 21
425.5
  0
LINE
  8
0
 10
120
 20
425.5
 11
119.961
 21
426.127
  0
LINE
  8
0
 10
119.961
 20
426.127
 11
119.843
 21
426.743
  0
LINE
  8
0
 10
119.843
 20
426.743
 11
119.649
 21
427.341
  0
LINE
  8
0
 10
119.649
 20
427.341
 11
119.382
 21
427.909
  0
LINE
  8
0
 10
119.382
 20
427.909
 11
119.045
 21
428.439
  0
LINE
  8
0
 10
119.045
 20
428.439
 11
118.645
 21
428.923
  0
LINE
  8
0
 10
118.645
 20
428.923
 11
118.187
 21
429.353
  0
LINE
  8
0
 10
118.187
 20
429.353
 11
117.679
 21
429.722
  0
LINE
  8
0
 10
117.679
 20
429.722
 11
117.129
 21
430.024
  0
LINE
  8
0
 10
117.129
 20
430.024
 11
116.545
 21
430.255
  0
LINE
  8
0
 10
116.545
 20
430.255
 11
115.937
 21
430.411
  0
LINE
  8
0
 10
115.937
 20
430.411
 11
115.314
 21
430.49
  0
LINE
  8
0
 10
115.314
 20
430.49
 11
-115.314
 21
430.49
  0
LINE
  8
0
 10
-115.314
 20
430.49
 11
-115.937
 21
430.411
  0
LINE
  8
0
 10
-115.937
 20
430.411
 11
-116.545
 21
430.255
  0
LINE
  8
0
 10
-116.545
 20
430.255
 11
-117.129
 21
430.024
  0
LINE
  8
0
 10
-117.129
 20
430.024
 11
-117.679
 21
429.722
  0
LINE
  8
0
 10
-117.679
 20
429.722
 11
-118.187
 21
429.353
  0
LINE
  8
0
 10
-118.187
 20
429.353
 11
-118.5
 21
429.059
  0
LINE
  8
0
 10
-118.5
 20
429.059
 11
-118.5
 21
430.115
  0
LINE
  8
0
 10
-118.5
 20
430.115
 11
-121.5
 21
430.115
  0
LINE
  8
0
 10
-121.5
 20
430.115
 11
-121.5
 21
265.885
  0
LINE
  8
0
 10
-121.5
 20
265.885
 11
-118.5
 21
265.885
  0
LINE
  8
0
 10
-118.5
 20
265.885
 11
-118.5
 21
266.941
  0
LINE
  8
0
 10
-118.5
 20
266.941
 11
-118.187
 21
266.647
  0
LINE
  8
0
 10
-118.187
 20
266.647
 11
-117.679
 21
266.278
  0
LINE
  8
0
 10
-117.679
 20
266.278
 11
-117.129
 21
265.976
  0
LINE
  8
0
 10
-117.129
 20
265.976
 11
-116.545
 21
265.745
  0
LINE
  8
0
 10
-116.545
 20
265.745
 11
-115.937
 21
265.589
  0
LINE
  8
0
 10
-115.937
 20
265.589
 11
-115.314
 21
265.51
  0
LINE
  8
0
 10
-115.314
 20
265.51
 11
115.314
 21
265.51
  0
LINE
  8
0
 10
115.314
 20
265.51
 11
115.937
 21
265.589
  0
LINE
  8
0
 10
112.349
 20
420.605
 11
112.05
 21
420.643
  0
LINE
  8
0
 10
112.05
 20
420.643
 11
111.758
 21
420.717
  0
LINE
  8
0
 10
111.758
 20
420.717
 11
111.478
 21
420.828
  0
LINE
  8
0
 10
111.478
 20
420.828
 11
111.214
 21
420.974
  0
LINE
  8
0
 10
111.214
 20
420.974
 11
110.97
 21
421.151
  0
LINE
  8
0
 10
110.97
 20
421.151
 11
110.75
 21
421.357
  0
LINE
  8
0
 10
110.75
 20
421.357
 11
110.558
 21
421.589
  0
LINE
  8
0
 10
110.558
 20
421.589
 11
110.397
 21
421.844
  0
LINE
  8
0
 10
110.397
 20
421.844
 11
110.269
 21
422.117
  0
LINE
  8
0
 10
110.269
 20
422.117
 11
110.175
 21
422.403
  0
LINE
  8
0
 10
110.175
 20
422.403
 11
110.119
 21
422.699
  0
LINE
  8
0
 10
110.119
 20
422.699
 11
110.1
 21
423
  0
LINE
  8
0
 10
110.1
 20
423
 11
110.119
 21
423.301
  0
LINE
  8
0
 10
110.119
 20
423.301
 11
110.175
 21
423.597
  0
LINE
  8
0
 10
110.175
 20
423.597
 11
110.269
 21
423.883
  0
LINE
  8
0
 10
110.269
 20
423.883
 11
110.397
 21
424.156
  0
LINE
  8
0
 10
110.397
 20
424.156
 11
110.558
 21
424.411
  0
LINE
  8
0
 10
110.558
 20
424.411
 11
110.75
 21
424.643
  0
LINE
  8
0
 10
110.75
 20
424.643
 11
110.97
 21
424.849
  0
LINE
  8
0
 10
110.97
 20
424.849
 11
111.214
 21
425.026
  0
LINE
  8
0
 10
111.214
 20
425.026
 11
111.478
 21
425.172
  0
LINE
  8
0
 10
111.478
 20
425.172
 11
111.758
 21
425.283
  0
LINE
  8
0
 10
111.758
 20
425.283
 11
112.05
 21
425.357
  0
LINE
  8
0
 10
112.05
 20
425.357
 11
112.349
 21
425.395
  0
LINE
  8
0
 10
112.349
 20
425.395
 11
112.651
 21
425.395
  0
LINE
  8
0
 10
112.651
 20
425.395
 11
112.95
 21
425.357
  0
LINE
  8
0
 10
112.95
 20
425.357
 11
113.242
 21
425.283
  0
LINE
  8
0
 10
113.242
 20
425.283
 11
113.522
 21
425.172
  0
LINE
  8
0
 10
113.522
 20
425.172
 11
113.786
 21
425.026
  0
LINE
  8
0
 10
113.786
 20
425.026
 11
114.03
 21
424.849
  0
LINE
  8
0
 10
114.03
 20
424.849
 11
114.25
 21
424.643
  0
LINE
  8
0
 10
114.25
 20
424.643
 11
114.442
 21
424.411
  0
LINE
  8
0
 10
114.442
 20
424.411
 11
114.603
 21
424.156
  0
LINE
  8
0
 10
114.603
 20
424.156
 11
114.731
 21
423.883
  0
LINE
  8
0
 10
114.731
 20
423.883
 11
114.825
 21
423.597
  0
LINE
  8
0
 10
114.825
 20
423.597
 11
114.881
 21
423.301
  0
LINE
  8
0
 10
114.881
 20
423.301
 11
114.9
 21
423
  0
LINE
  8
0
 10
114.9
 20
423
 11
114.881
 21
422.699
  0
LINE
  8
0
 10
114.881
 20
422.699
 11
114.825
 21
422.403
  0
LINE
  8
0
 10
114.825
 20
422.403
 11
114.731
 21
422.117
  0
LINE
  8
0
 10
114.731
 20
422.117
 11
114.603
 21
421.844
  0
LINE
  8
0
 10
114.603
 20
421.844
 11
114.442
 21
421.589
  0
LINE
  8
0
 10
114.442
 20
421.589
 11
114.25
 21
421.357
  0
LINE
  8
0
 10
114.25
 20
421.357
 11
114.03
 21
421.151
  0
LINE
  8
0
 10
114.03
 20
421.151
 11
113.786
 21
420.974
  0
LINE
  8
0
 10
113.786
 20
420.974
 11
113.522
 21
420.828
  0
LINE
  8
0
 10
113.522
 20
420.828
 11
113.242
 21
420.717
  0
LINE
  8
0
 10
113.242
 20
420.717
 11
112.95
 21
420.643
  0
LINE
  8
0
 10
112.95
 20
420.643
 11
112.651
 21
420.605
  0
LINE
  8
0
 10
112.651
 20
420.605
 11
112.349
 21
420.605
  0
LINE
  8
0
 10
-112.651
 20
420.605
 11
-112.95
 21
420.643
  0
LINE
  8
0
 10
-112.95
 20
420.643
 11
-113.242
 21
420.717
  0
LINE
  8
0
 10
-113.242
 20
420.717
 11
-113.522
 21
420.828
  0
LINE
  8
0
 10
-113.522
 20
420.828
 11
-113.786
 21
420.974
  0
LINE
  8
0
 10
-113.786
 20
420.974
 11
-114.03
 21
421.151
  0
LINE
  8
0
 10
-114.03
 20
421.151
 11
-114.25
 21
421.357
  0
LINE
  8
0
 10
-114.25
 20
421.357
 11
-114.442
 21
421.589
  0
LINE
  8
0
 10
-114.442
 20
421.589
 11
-114.603
 21
421.844
  0
LINE
  8
0
 10
-114.603
 20
421.844
 11
-114.731
 21
422.117
  0
LINE
  8
0
 10
-114.731
 20
422.117
 11
-114.825
 21
422.403
  0
LINE
  8
0
 10
-114.825
 20
422.403
 11
-114.881
 21
422.699
  0
LINE
  8
0
 10
-114.881
 20
422.699
 11
-114.9
 21
423
  0
LINE
  8
0
 10
-114.9
 20
423
 11
-114.881
 21
423.301
  0
LINE
  8
0
 10
-114.881
 20
423.301
 11
-114.825
 21
423.597
  0
LINE
  8
0
 10
-114.825
 20
423.597
 11
-114.731
 21
423.883
  0
LINE
  8
0
 10
-114.731
 20
423.883
 11
-114.603
 21
424.156
  0
LINE
  8
0
 10
-114.603
 20
424.156
 11
-114.442
 21
424.411
  0
LINE
  8
0
 10
-114.442
 20
424.411
 11
-114.25
 21
424.643
  0
LINE
  8
0
 10
-114.25
 20
424.643
 11
-114.03
 21
424.849
  0
LINE
  8
0
 10
-114.03
 20
424.849
 11
-113.786
 21
425.026
  0
LINE
  8
0
 10
-113.786
 20
425.026
 11
-113.522
 21
425.172
  0
LINE
  8
0
 10
-113.522
 20
425.172
 11
-113.242
 21
425.283
  0
LINE
  8
0
 10
-113.242
 20
425.283
 11
-112.95
 21
425.357
  0
LINE
  8
0
 10
-112.95
 20
425.357
 11
-112.651
 21
425.395
  0
LINE
  8
0
 10
-112.651
 20
425.395
 11
-112.349
 21
425.395
  0
LINE
  8
0
 10
-112.349
 20
425.395
 11
-112.05
 21
425.357
  0
LINE
  8
0
 10
-112.05
 20
425.357
 11
-111.758
 21
425.283
  0
LINE
  8
0
 10
-111.758
 20
425.283
 11
-111.478
 21
425.172
  0
LINE
  8
0
 10
-111.478
 20
425.172
 11
-111.214
 21
425.026
  0
LINE
  8
0
 10
-111.214
 20
425.026
 11
-110.97
 21
424.849
  0
LINE
  8
0
 10
-110.97
 20
424.849
 11
-110.75
 21
424.643
  0
LINE
  8
0
 10
-110.75
 20
424.643
 11
-110.558
 21
424.411
  0
LINE
  8
0
 10
-110.558
 20
424.411
 11
-110.397
 21
424.156
  0
LINE
  8
0
 10
-110.397
 20
424.156
 11
-110.269
 21
423.883
  0
LINE
  8
0
 10
-110.269
 20
423.883
 11
-110.175
 21
423.597
  0
LINE
  8
0
 10
-110.175
 20
423.597
 11
-110.119
 21
423.301
  0
LINE
  8
0
 10
-110.119
 20
423.301
 11
-110.1
 21
423
  0
LINE
  8
0
 10
-110.1
 20
423
 11
-110.119
 21
422.699
  0
LINE
  8
0
 10
-110.119
 20
422.699
 11
-110.175
 21
422.403
  0
LINE
  8
0
 10
-110.175
 20
422.403
 11
-110.269
 21
422.117
  0
LINE
  8
0
 10
-110.269
 20
422.117
 11
-110.397
 21
421.844
  0
LINE
  8
0
 10
-110.397
 20
421.844
 11
-110.558
 21
421.589
  0
LINE
  8
0
 10
-110.558
 20
421.589
 11
-110.75
 21
421.357
  0
LINE
  8
0
 10
-110.75
 20
421.357
 11
-110.97
 21
421.151
  0
LINE
  8
0
 10
-110.97
 20
421.151
 11
-111.214
 21
420.974
  0
LINE
  8
0
 10
-111.214
 20
420.974
 11
-111.478
 21
420.828
  0
LINE
  8
0
 10
-111.478
 20
420.828
 11
-111.758
 21
420.717
  0
LINE
  8
0
 10
-111.758
 20
420.717
 11
-112.05
 21
420.643
  0
LINE
  8
0
 10
-112.05
 20
420.643
 11
-112.349
 21
420.605
  0
LINE
  8
0
 10
-112.349
 20
420.605
 11
-112.651
 21
420.605
  0
LINE
  8
0
 10
112.349
 20
270.605
 11
112.05
 21
270.643
  0
LINE
  8
0
 10
112.05
 20
270.643
 11
111.758
 21
270.717
  0
LINE
  8
0
 10
111.758
 20
270.717
 11
111.478
 21
270.828
  0
LINE
  8
0
 10
111.478
 20
270.828
 11
111.214
 21
270.974
  0
LINE
  8
0
 10
111.214
 20
270.974
 11
110.97
 21
271.151
  0
LINE
  8
0
 10
110.97
 20
271.151
 11
110.75
 21
271.357
  0
LINE
  8
0
 10
110.75
 20
271.357
 11
110.558
 21
271.589
  0
LINE
  8
0
 10
110.558
 20
271.589
 11
110.397
 21
271.844
  0
LINE
  8
0
 10
110.397
 20
271.844
 11
110.269
 21
272.117
  0
LINE
  8
0
 10
110.269
 20
272.117
 11
110.175
 21
272.403
  0
LINE
  8
0
 10
110.175
 20
272.403
 11
110.119
 21
272.699
  0
LINE
  8
0
 10
110.119
 20
272.699
 11
110.1
 21
273
  0
LINE
  8
0
 10
110.1
 20
273
 11
110.119
 21
273.301
  0
LINE
  8
0
 10
110.119
 20
273.301
 11
110.175
 21
273.597
  0
LINE
  8
0
 10
110.175
 20
273.597
 11
110.269
 21
273.883
  0
LINE
  8
0
 10
110.269
 20
273.883
 11
110.397
 21
274.156
  0
LINE
  8
0
 10
110.397
 20
274.156
 11
110.558
 21
274.411
  0
LINE
  8
0
 10
110.558
 20
274.411
 11
110.75
 21
274.643
  0
LINE
  8
0
 10
110.75
 20
274.643
 11
110.97
 21
274.849
  0
LINE
  8
0
 10
110.97
 20
274.849
 11
111.214
 21
275.026
  0
LINE
  8
0
 10
111.214
 20
275.026
 11
111.478
 21
275.172
  0
LINE
  8
0
 10
111.478
 20
275.172
 11
111.758
 21
275.283
  0
LINE
  8
0
 10
111.758
 20
275.283
 11
112.05
 21
275.357
  0
LINE
  8
0
 10
112.05
 20
275.357
 11
112.349
 21
275.395
  0
LINE
  8
0
 10
112.349
 20
275.395
 11
112.651
 21
275.395
  0
LINE
  8
0
 10
112.651
 20
275.395
 11
112.95
 21
275.357
  0
LINE
  8
0
 10
112.95
 20
275.357
 11
113.242
 21
275.283
  0
LINE
  8
0
 10
113.242
 20
275.283
 11
113.522
 21
275.172
  0
LINE
  8
0
 10
113.522
 20
275.172
 11
113.786
 21
275.026
  0
LINE
  8
0
 10
113.786
 20
275.026
 11
114.03
 21
274.849
  0
LINE
  8
0
 10
114.03
 20
274.849
 11
114.25
 21
274.643
  0
LINE
  8
0
 10
114.25
 20
274.643
 11
114.442
 21
274.411
  0
LINE
  8
0
 10
114.442
 20
274.411
 11
114.603
 21
274.156
  0
LINE
  8
0
 10
114.603
 20
274.156
 11
114.731
 21
273.883
  0
LINE
  8
0
 10
114.731
 20
273.883
 11
114.825
 21
273.597
  0
LINE
  8
0
 10
114.825
 20
273.597
 11
114.881
 21
273.301
  0
LINE
  8
0
 10
114.881
 20
273.301
 11
114.9
 21
273
  0
LINE
  8
0
 10
114.9
 20
273
 11
114.881
 21
272.699
  0
LINE
  8
0
 10
114.881
 20
272.699
 11
114.825
 21
272.403
  0
LINE
  8
0
 10
114.825
 20
272.403
 11
114.731
 21
272.117
  0
LINE
  8
0
 10
114.731
 20
272.117
 11
114.603
 21
271.844
  0
LINE
  8
0
 10
114.603
 20
271.844
 11
114.442
 21
271.589
  0
LINE
  8
0
 10
114.442
 20
271.589
 11
114.25
 21
271.357
  0
LINE
  8
0
 10
114.25
 20
271.357
 11
114.03
 21
271.151
  0
LINE
  8
0
 10
114.03
 20
271.151
 11
113.786
 21
270.974
  0
LINE
  8
0
 10
113.786
 20
270.974
 11
113.522
 21
270.828
  0
LINE
  8
0
 10
113.522
 20
270.828
 11
113.242
 21
270.717
  0
LINE
  8
0
 10
113.242
 20
270.717
 11
112.95
 21
270.643
  0
LINE
  8
0
 10
112.95
 20
270.643
 11
112.651
 21
270.605
  0
LINE
  8
0
 10
112.651
 20
270.605
 11
112.349
 21
270.605
  0
LINE
  8
0
 10
-112.651
 20
270.605
 11
-112.95
 21
270.643
  0
LINE
  8
0
 10
-112.95
 20
270.643
 11
-113.242
 21
270.717
  0
LINE
  8
0
 10
-113.242
 20
270.717
 11
-113.522
 21
270.828
  0
LINE
  8
0
 10
-113.522
 20
270.828
 11
-113.786
 21
270.974
  0
LINE
  8
0
 10
-113.786
 20
270.974
 11
-114.03
 21
271.151
  0
LINE
  8
0
 10
-114.03
 20
271.151
 11
-114.25
 21
271.357
  0
LINE
  8
0
 10
-114.25
 20
271.357
 11
-114.442
 21
271.589
  0
LINE
  8
0
 10
-114.442
 20
271.589
 11
-114.603
 21
271.844
  0
LINE
  8
0
 10
-114.603
 20
271.844
 11
-114.731
 21
272.117
  0
LINE
  8
0
 10
-114.731
 20
272.117
 11
-114.825
 21
272.403
  0
LINE
  8
0
 10
-114.825
 20
272.403
 11
-114.881
 21
272.699
  0
LINE
  8
0
 10
-114.881
 20
272.699
 11
-114.9
 21
273
  0
LINE
  8
0
 10
-114.9
 20
273
 11
-114.881
 21
273.301
  0
LINE
  8
0
 10
-114.881
 20
273.301
 11
-114.825
 21
273.597
  0
LINE
  8
0
 10
-114.825
 20
273.597
 11
-114.731
 21
273.883
  0
LINE
  8
0
 10
-114.731
 20
273.883
 11
-114.603
 21
274.156
  0
LINE
  8
0
 10
-114.603
 20
274.156
 11
-114.442
 21
274.411
  0
LINE
  8
0
 10
-114.442
 20
274.411
 11
-114.25
 21
274.643
  0
LINE
  8
0
 10
-114.25
 20
274.643
 11
-114.03
 21
274.849
  0
LINE
  8
0
 10
-114.03
 20
274.849
 11
-113.786
 21
275.026
  0
LINE
  8
0
 10
-113.786
 20
275.026
 11
-113.522
 21
275.172
  0
LINE
  8
0
 10
-113.522
 20
275.172
 11
-113.242
 21
275.283
  0
LINE
  8
0
 10
-113.242
 20
275.283
 11
-112.95
 21
275.357
  0
LINE
  8
0
 10
-112.95
 20
275.357
 11
-112.651
 21
275.395
  0
LINE
  8
0
 10
-112.651
 20
275.395
 11
-112.349
 21
275.395
  0
LINE
  8
0
 10
-112.349
 20
275.395
 11
-112.05
 21
275.357
  0
LINE
  8
0
 10
-112.05
 20
275.357
 11
-111.758
 21
275.283
  0
LINE
  8
0
 10
-111.758
 20
275.283
 11
-111.478
 21
275.172
  0
LINE
  8
0
 10
-111.478
 20
275.172
 11
-111.214
 21
275.026
  0
LINE
  8
0
 10
-111.214
 20
275.026
 11
-110.97
 21
274.849
  0
LINE
  8
0
 10
-110.97
 20
274.849
 11
-110.75
 21
274.643
  0
LINE
  8
0
 10
-110.75
 20
274.643
 11
-110.558
 21
274.411
  0
LINE
  8
0
 10
-110.558
 20
274.411
 11
-110.397
 21
274.156
  0
LINE
  8
0
 10
-110.397
 20
274.156
 11
-110.269
 21
273.883
  0
LINE
  8
0
 10
-110.269
 20
273.883
 11
-110.175
 21
273.597
  0
LINE
  8
0
 10
-110.175
 20
273.597
 11
-110.119
 21
273.301
  0
LINE
  8
0
 10
-110.119
 20
273.301
 11
-110.1
 21
273
  0
LINE
  8
0
 10
-110.1
 20
273
 11
-110.119
 21
272.699
  0
LINE
  8
0
 10
-110.119
 20
272.699
 11
-110.175
 21
272.403
  0
LINE
  8
0
 10
-110.175
 20
272.403
 11
-110.269
 21
272.117
  0
LINE
  8
0
 10
-110.269
 20
272.117
 11
-110.397
 21
271.844
  0
LINE
  8
0
 10
-110.397
 20
271.844
 11
-110.558
 21
271.589
  0
LINE
  8
0
 10
-110.558
 20
271.589
 11
-110.75
 21
271.357
  0
LINE
  8
0
 10
-110.75
 20
271.357
 11
-110.97
 21
271.151
  0
LINE
  8
0
 10
-110.97
 20
271.151
 11
-111.214
 21
270.974
  0
LINE
  8
0
 10
-111.214
 20
270.974
 11
-111.478
 21
270.828
  0
LINE
  8
0
 10
-111.478
 20
270.828
 11
-111.758
 21
270.717
  0
LINE
  8
0
 10
-111.758
 20
270.717
 11
-112.05
 21
270.643
  0
LINE
  8
0
 10
-112.05
 20
270.643
 11
-112.349
 21
270.605
  0
LINE
  8
0
 10
-112.349
 20
270.605
 11
-112.651
 21
270.605
  0
LINE
  8
0
 10
115.937
 20
91.5886
 11
116.545
 21
91.7447
  0
LINE
  8
0
 10
116.545
 20
91.7447
 11
117.129
 21
91.9759
  0
LINE
  8
0
 10
117.129
 20
91.9759
 11
117.679
 21
92.2784
  0
LINE
  8
0
 10
117.679
 20
92.2784
 11
118.187
 21
92.6474
  0
LINE
  8
0
 10
118.187
 20
92.6474
 11
118.645
 21
93.0773
  0
LINE
  8
0
 10
118.645
 20
93.0773
 11
119.045
 21
93.5611
  0
LINE
  8
0
 10
119.045
 20
93.5611
 11
119.382
 21
94.0912
  0
LINE
  8
0
 10
119.382
 20
94.0912
 11
119.649
 21
94.6594
  0
LINE
  8
0
 10
119.649
 20
94.6594
 11
119.843
 21
95.2566
  0
LINE
  8
0
 10
119.843
 20
95.2566
 11
119.961
 21
95.8733
  0
LINE
  8
0
 10
119.961
 20
95.8733
 11
120
 21
96.5
  0
LINE
  8
0
 10
120
 20
96.5
 11
120
 21
251.5
  0
LINE
  8
0
 10
120
 20
251.5
 11
119.961
 21
252.127
  0
LINE
  8
0
 10
119.961
 20
252.127
 11
119.843
 21
252.743
  0
LINE
  8
0
 10
119.843
 20
252.743
 11
119.649
 21
253.341
  0
LINE
  8
0
 10
119.649
 20
253.341
 11
119.382
 21
253.909
  0
LINE
  8
0
 10
119.382
 20
253.909
 11
119.045
 21
254.439
  0
LINE
  8
0
 10
119.045
 20
254.439
 11
118.645
 21
254.923
  0
LINE
  8
0
 10
118.645
 20
254.923
 11
118.187
 21
255.353
  0
LINE
  8
0
 10
118.187
 20
255.353
 11
117.679
 21
255.722
  0
LINE
  8
0
 10
117.679
 20
255.722
 11
117.129
 21
256.024
  0
LINE
  8
0
 10
117.129
 20
256.024
 11
116.545
 21
256.255
  0
LINE
  8
0
 10
116.545
 20
256.255
 11
115.937
 21
256.411
  0
LINE
  8
0
 10
115.937
 20
256.411
 11
115.314
 21
256.49
  0
LINE
  8
0
 10
115.314
 20
256.49
 11
-115.314
 21
256.49
  0
LINE
  8
0
 10
-115.314
 20
256.49
 11
-115.937
 21
256.411
  0
LINE
  8
0
 10
-115.937
 20
256.411
 11
-116.545
 21
256.255
  0
LINE
  8
0
 10
-116.545
 20
256.255
 11
-117.129
 21
256.024
  0
LINE
  8
0
 10
-117.129
 20
256.024
 11
-117.679
 21
255.722
  0
LINE
  8
0
 10
-117.679
 20
255.722
 11
-118.187
 21
255.353
  0
LINE
  8
0
 10
-118.187
 20
255.353
 11
-118.645
 21
254.923
  0
LINE
  8
0
 10
-118.645
 20
254.923
 11
-119.045
 21
254.439
  0
LINE
  8
0
 10
-119.045
 20
254.439
 11
-119.382
 21
253.909
  0
LINE
  8
0
 10
-119.382
 20
253.909
 11
-119.649
 21
253.341
  0
LINE
  8
0
 10
-119.649
 20
253.341
 11
-119.843
 21
252.743
  0
LINE
  8
0
 10
-119.843
 20
252.743
 11
-119.9
 21
252.444
  0
LINE
  8
0
 10
-119.9
 20
252.444
 11
-121.5
 21
252.444
  0
LINE
  8
0
 10
-121.5
 20
252.444
 11
-121.5
 21
95.5558
  0
LINE
  8
0
 10
-121.5
 20
95.5558
 11
-119.9
 21
95.5558
  0
LINE
  8
0
 10
-119.9
 20
95.5558
 11
-119.843
 21
95.2566
  0
LINE
  8
0
 10
-119.843
 20
95.2566
 11
-119.649
 21
94.6594
  0
LINE
  8
0
 10
-119.649
 20
94.6594
 11
-119.382
 21
94.0912
  0
LINE
  8
0
 10
-119.382
 20
94.0912
 11
-119.045
 21
93.5611
  0
LINE
  8
0
 10
-119.045
 20
93.5611
 11
-118.645
 21
93.0773
  0
LINE
  8
0
 10
-118.645
 20
93.0773
 11
-118.187
 21
92.6474
  0
LINE
  8
0
 10
-118.187
 20
92.6474
 11
-117.679
 21
92.2784
  0
LINE
  8
0
 10
-117.679
 20
92.2784
 11
-117.129
 21
91.9759
  0
LINE
  8
0
 10
-117.129
 20
91.9759
 11
-116.545
 21
91.7447
  0
LINE
  8
0
 10
-116.545
 20
91.7447
 11
-115.937
 21
91.5886
  0
LINE
  8
0
 10
-115.937
 20
91.5886
 11
-115.314
 21
91.5099
  0
LINE
  8
0
 10
-115.314
 20
91.5099
 11
115.314
 21
91.5099
  0
LINE
  8
0
 10
115.314
 20
91.5099
 11
115.937
 21
91.5886
  0
LINE
  8
0
 10
112.387
 20
247.204
 11
112.163
 21
247.232
  0
LINE
  8
0
 10
112.163
 20
247.232
 11
111.944
 21
247.288
  0
LINE
  8
0
 10
111.944
 20
247.288
 11
111.734
 21
247.371
  0
LINE
  8
0
 10
111.734
 20
247.371
 11
111.536
 21
247.48
  0
LINE
  8
0
 10
111.536
 20
247.48
 11
111.353
 21
247.613
  0
LINE
  8
0
 10
111.353
 20
247.613
 11
111.188
 21
247.768
  0
LINE
  8
0
 10
111.188
 20
247.768
 11
111.044
 21
247.942
  0
LINE
  8
0
 10
111.044
 20
247.942
 11
110.923
 21
248.133
  0
LINE
  8
0
 10
110.923
 20
248.133
 11
110.826
 21
248.337
  0
LINE
  8
0
 10
110.826
 20
248.337
 11
110.757
 21
248.552
  0
LINE
  8
0
 10
110.757
 20
248.552
 11
110.714
 21
248.774
  0
LINE
  8
0
 10
110.714
 20
248.774
 11
110.7
 21
249
  0
LINE
  8
0
 10
110.7
 20
249
 11
110.714
 21
249.226
  0
LINE
  8
0
 10
110.714
 20
249.226
 11
110.757
 21
249.448
  0
LINE
  8
0
 10
110.757
 20
249.448
 11
110.826
 21
249.663
  0
LINE
  8
0
 10
110.826
 20
249.663
 11
110.923
 21
249.867
  0
LINE
  8
0
 10
110.923
 20
249.867
 11
111.044
 21
250.058
  0
LINE
  8
0
 10
111.044
 20
250.058
 11
111.188
 21
250.232
  0
LINE
  8
0
 10
111.188
 20
250.232
 11
111.353
 21
250.387
  0
LINE
  8
0
 10
111.353
 20
250.387
 11
111.536
 21
250.52
  0
LINE
  8
0
 10
111.536
 20
250.52
 11
111.734
 21
250.629
  0
LINE
  8
0
 10
111.734
 20
250.629
 11
111.944
 21
250.712
  0
LINE
  8
0
 10
111.944
 20
250.712
 11
112.163
 21
250.768
  0
LINE
  8
0
 10
112.163
 20
250.768
 11
112.387
 21
250.796
  0
LINE
  8
0
 10
112.387
 20
250.796
 11
112.613
 21
250.796
  0
LINE
  8
0
 10
112.613
 20
250.796
 11
112.837
 21
250.768
  0
LINE
  8
0
 10
112.837
 20
250.768
 11
113.056
 21
250.712
  0
LINE
  8
0
 10
113.056
 20
250.712
 11
113.266
 21
250.629
  0
LINE
  8
0
 10
113.266
 20
250.629
 11
113.464
 21
250.52
  0
LINE
  8
0
 10
113.464
 20
250.52
 11
113.647
 21
250.387
  0
LINE
  8
0
 10
113.647
 20
250.387
 11
113.812
 21
250.232
  0
LINE
  8
0
 10
113.812
 20
250.232
 11
113.956
 21
250.058
  0
LINE
  8
0
 10
113.956
 20
250.058
 11
114.077
 21
249.867
  0
LINE
  8
0
 10
114.077
 20
249.867
 11
114.174
 21
249.663
  0
LINE
  8
0
 10
114.174
 20
249.663
 11
114.243
 21
249.448
  0
LINE
  8
0
 10
114.243
 20
249.448
 11
114.286
 21
249.226
  0
LINE
  8
0
 10
114.286
 20
249.226
 11
114.3
 21
249
  0
LINE
  8
0
 10
114.3
 20
249
 11
114.286
 21
248.774
  0
LINE
  8
0
 10
114.286
 20
248.774
 11
114.243
 21
248.552
  0
LINE
  8
0
 10
114.243
 20
248.552
 11
114.174
 21
248.337
  0
LINE
  8
0
 10
114.174
 20
248.337
 11
114.077
 21
248.133
  0
LINE
  8
0
 10
114.077
 20
248.133
 11
113.956
 21
247.942
  0
LINE
  8
0
 10
113.956
 20
247.942
 11
113.812
 21
247.768
  0
LINE
  8
0
 10
113.812
 20
247.768
 11
113.647
 21
247.613
  0
LINE
  8
0
 10
113.647
 20
247.613
 11
113.464
 21
247.48
  0
LINE
  8
0
 10
113.464
 20
247.48
 11
113.266
 21
247.371
  0
LINE
  8
0
 10
113.266
 20
247.371
 11
113.056
 21
247.288
  0
LINE
  8
0
 10
113.056
 20
247.288
 11
112.837
 21
247.232
  0
LINE
  8
0
 10
112.837
 20
247.232
 11
112.613
 21
247.204
  0
LINE
  8
0
 10
112.613
 20
247.204
 11
112.387
 21
247.204
  0
LINE
  8
0
 10
-112.613
 20
247.204
 11
-112.837
 21
247.232
  0
LINE
  8
0
 10
-112.837
 20
247.232
 11
-113.056
 21
247.288
  0
LINE
  8
0
 10
-113.056
 20
247.288
 11
-113.266
 21
247.371
  0
LINE
  8
0
 10
-113.266
 20
247.371
 11
-113.464
 21
247.48
  0
LINE
  8
0
 10
-113.464
 20
247.48
 11
-113.647
 21
247.613
  0
LINE
  8
0
 10
-113.647
 20
247.613
 11
-113.812
 21
247.768
  0
LINE
  8
0
 10
-113.812
 20
247.768
 11
-113.956
 21
247.942
  0
LINE
  8
0
 10
-113.956
 20
247.942
 11
-114.077
 21
248.133
  0
LINE
  8
0
 10
-114.077
 20
248.133
 11
-114.174
 21
248.337
  0
LINE
  8
0
 10
-114.174
 20
248.337
 11
-114.243
 21
248.552
  0
LINE
  8
0
 10
-114.243
 20
248.552
 11
-114.286
 21
248.774
  0
LINE
  8
0
 10
-114.286
 20
248.774
 11
-114.3
 21
249
  0
LINE
  8
0
 10
-114.3
 20
249
 11
-114.286
 21
249.226
  0
LINE
  8
0
 10
-114.286
 20
249.226
 11
-114.243
 21
249.448
  0
LINE
  8
0
 10
-114.243
 20
249.448
 11
-114.174
 21
249.663
  0
LINE
  8
0
 10
-114.174
 20
249.663
 11
-114.077
 21
249.867
  0
LINE
  8
0
 10
-114.077
 20
249.867
 11
-113.956
 21
250.058
  0
LINE
  8
0
 10
-113.956
 20
250.058
 11
-113.812
 21
250.232
  0
LINE
  8
0
 10
-113.812
 20
250.232
 11
-113.647
 21
250.387
  0
LINE
  8
0
 10
-113.647
 20
250.387
 11
-113.464
 21
250.52
  0
LINE
  8
0
 10
-113.464
 20
250.52
 11
-113.266
 21
250.629
  0
LINE
  8
0
 10
-113.266
 20
250.629
 11
-113.056
 21
250.712
  0
LINE
  8
0
 10
-113.056
 20
250.712
 11
-112.837
 21
250.768
  0
LINE
  8
0
 10
-112.837
 20
250.768
 11
-112.613
 21
250.796
  0
LINE
  8
0
 10
-112.613
 20
250.796
 11
-112.387
 21
250.796
  0
LINE
  8
0
 10
-112.387
 20
250.796
 11
-112.163
 21
250.768
  0
LINE
  8
0
 10
-112.163
 20
250.768
 11
-111.944
 21
250.712
  0
LINE
  8
0
 10
-111.944
 20
250.712
 11
-111.734
 21
250.629
  0
LINE
  8
0
 10
-111.734
 20
250.629
 11
-111.536
 21
250.52
  0
LINE
  8
0
 10
-111.536
 20
250.52
 11
-111.353
 21
250.387
  0
LINE
  8
0
 10
-111.353
 20
250.387
 11
-111.188
 21
250.232
  0
LINE
  8
0
 10
-111.188
 20
250.232
 11
-111.044
 21
250.058
  0
LINE
  8
0
 10
-111.044
 20
250.058
 11
-110.923
 21
249.867
  0
LINE
  8
0
 10
-110.923
 20
249.867
 11
-110.826
 21
249.663
  0
LINE
  8
0
 10
-110.826
 20
249.663
 11
-110.757
 21
249.448
  0
LINE
  8
0
 10
-110.757
 20
249.448
 11
-110.714
 21
249.226
  0
LINE
  8
0
 10
-110.714
 20
249.226
 11
-110.7
 21
249
  0
LINE
  8
0
 10
-110.7
 20
249
 11
-110.714
 21
248.774
  0
LINE
  8
0
 10
-110.714
 20
248.774
 11
-110.757
 21
248.552
  0
LINE
  8
0
 10
-110.757
 20
248.552
 11
-110.826
 21
248.337
  0
LINE
  8
0
 10
-110.826
 20
248.337
 11
-110.923
 21
248.133
  0
LINE
  8
0
 10
-110.923
 20
248.133
 11
-111.044
 21
247.942
  0
LINE
  8
0
 10
-111.044
 20
247.942
 11
-111.188
 21
247.768
  0
LINE
  8
0
 10
-111.188
 20
247.768
 11
-111.353
 21
247.613
  0
LINE
  8
0
 10
-111.353
 20
247.613
 11
-111.536
 21
247.48
  0
LINE
  8
0
 10
-111.536
 20
247.48
 11
-111.734
 21
247.371
  0
LINE
  8
0
 10
-111.734
 20
247.371
 11
-111.944
 21
247.288
  0
LINE
  8
0
 10
-111.944
 20
247.288
 11
-112.163
 21
247.232
  0
LINE
  8
0
 10
-112.163
 20
247.232
 11
-112.387
 21
247.204
  0
LINE
  8
0
 10
-112.387
 20
247.204
 11
-112.613
 21
247.204
  0
LINE
  8
0
 10
112.387
 20
97.2036
 11
112.163
 21
97.2319
  0
LINE
  8
0
 10
112.163
 20
97.2319
 11
111.944
 21
97.2881
  0
LINE
  8
0
 10
111.944
 20
97.2881
 11
111.734
 21
97.3713
  0
LINE
  8
0
 10
111.734
 20
97.3713
 11
111.536
 21
97.4802
  0
LINE
  8
0
 10
111.536
 20
97.4802
 11
111.353
 21
97.6131
  0
LINE
  8
0
 10
111.353
 20
97.6131
 11
111.188
 21
97.7678
  0
LINE
  8
0
 10
111.188
 20
97.7678
 11
111.044
 21
97.942
  0
LINE
  8
0
 10
111.044
 20
97.942
 11
110.923
 21
98.1328
  0
LINE
  8
0
 10
110.923
 20
98.1328
 11
110.826
 21
98.3374
  0
LINE
  8
0
 10
110.826
 20
98.3374
 11
110.757
 21
98.5524
  0
LINE
  8
0
 10
110.757
 20
98.5524
 11
110.714
 21
98.7744
  0
LINE
  8
0
 10
110.714
 20
98.7744
 11
110.7
 21
99
  0
LINE
  8
0
 10
110.7
 20
99
 11
110.714
 21
99.2256
  0
LINE
  8
0
 10
110.714
 20
99.2256
 11
110.757
 21
99.4476
  0
LINE
  8
0
 10
110.757
 20
99.4476
 11
110.826
 21
99.6626
  0
LINE
  8
0
 10
110.826
 20
99.6626
 11
110.923
 21
99.8672
  0
LINE
  8
0
 10
110.923
 20
99.8672
 11
111.044
 21
100.058
  0
LINE
  8
0
 10
111.044
 20
100.058
 11
111.188
 21
100.232
  0
LINE
  8
0
 10
111.188
 20
100.232
 11
111.353
 21
100.387
  0
LINE
  8
0
 10
111.353
 20
100.387
 11
111.536
 21
100.52
  0
LINE
  8
0
 10
111.536
 20
100.52
 11
111.734
 21
100.629
  0
LINE
  8
0
 10
111.734
 20
100.629
 11
111.944
 21
100.712
  0
LINE
  8
0
 10
111.944
 20
100.712
 11
112.163
 21
100.768
  0
LINE
  8
0
 10
112.163
 20
100.768
 11
112.387
 21
100.796
  0
LINE
  8
0
 10
112.387
 20
100.796
 11
112.613
 21
100.796
  0
LINE
  8
0
 10
112.613
 20
100.796
 11
112.837
 21
100.768
  0
LINE
  8
0
 10
112.837
 20
100.768
 11
113.056
 21
100.712
  0
LINE
  8
0
 10
113.056
 20
100.712
 11
113.266
 21
100.629
  0
LINE
  8
0
 10
113.266
 20
100.629
 11
113.464
 21
100.52
  0
LINE
  8
0
 10
113.464
 20
100.52
 11
113.647
 21
100.387
  0
LINE
  8
0
 10
113.647
 20
100.387
 11
113.812
 21
100.232
  0
LINE
  8
0
 10
113.812
 20
100.232
 11
113.956
 21
100.058
  0
LINE
  8
0
 10
113.956
 20
100.058
 11
114.077
 21
99.8672
  0
LINE
  8
0
 10
114.077
 20
99.8672
 11
114.174
 21
99.6626
  0
LINE
  8
0
 10
114.174
 20
99.6626
 11
114.243
 21
99.4476
  0
LINE
  8
0
 10
114.243
 20
99.4476
 11
114.286
 21
99.2256
  0
LINE
  8
0
 10
114.286
 20
99.2256
 11
114.3
 21
99
  0
LINE
  8
0
 10
114.3
 20
99
 11
114.286
 21
98.7744
  0
LINE
  8
0
 10
114.286
 20
98.7744
 11
114.243
 21
98.5524
  0
LINE
  8
0
 10
114.243
 20
98.5524
 11
114.174
 21
98.3374
  0
LINE
  8
0
 10
114.174
 20
98.3374
 11
114.077
 21
98.1328
  0
LINE
  8
0
 10
114.077
 20
98.1328
 11
113.956
 21
97.942
  0
LINE
  8
0
 10
113.956
 20
97.942
 11
113.812
 21
97.7678
  0
LINE
  8
0
 10
113.812
 20
97.7678
 11
113.647
 21
97.6131
  0
LINE
  8
0
 10
113.647
 20
97.6131
 11
113.464
 21
97.4802
  0
LINE
  8
0
 10
113.464
 20
97.4802
 11
113.266
 21
97.3713
  0
LINE
  8
0
 10
113.266
 20
97.3713
 11
113.056
 21
97.2881
  0
LINE
  8
0
 10
113.056
 20
97.2881
 11
112.837
 21
97.2319
  0
LINE
  8
0
 10
112.837
 20
97.2319
 11
112.613
 21
97.2036
  0
LINE
  8
0
 10
112.613
 20
97.2036
 11
112.387
 21
97.2036
  0
LINE
  8
0
 10
-112.613
 20
97.2036
 11
-112.837
 21
97.2319
  0
LINE
  8
0
 10
-112.837
 20
97.2319
 11
-113.056
 21
97.2881
  0
LINE
  8
0
 10
-113.056
 20
97.2881
 11
-113.266
 21
97.3713
  0
LINE
  8
0
 10
-113.266
 20
97.3713
 11
-113.464
 21
97.4802
  0
LINE
  8
0
 10
-113.464
 20
97.4802
 11
-113.647
 21
97.6131
  0
LINE
  8
0
 10
-113.647
 20
97.6131
 11
-113.812
 21
97.7678
  0
LINE
  8
0
 10
-113.812
 20
97.7678
 11
-113.956
 21
97.942
  0
LINE
  8
0
 10
-113.956
 20
97.942
 11
-114.077
 21
98.1328
  0
LINE
  8
0
 10
-114.077
 20
98.1328
 11
-114.174
 21
98.3374
  0
LINE
  8
0
 10
-114.174
 20
98.3374
 11
-114.243
 21
98.5524
  0
LINE
  8
0
 10
-114.243
 20
98.5524
 11
-114.286
 21
98.7744
  0
LINE
  8
0
 10
-114.286
 20
98.7744
 11
-114.3
 21
99
  0
LINE
  8
0
 10
-114.3
 20
99
 11
-114.286
 21
99.2256
  0
LINE
  8
0
 10
-114.286
 20
99.2256
 11
-114.243
 21
99.4476
  0
LINE
  8
0
 10
-114.243
 20
99.4476
 11
-114.174
 21
99.6626
  0
LINE
  8
0
 10
-114.174
 20
99.6626
 11
-114.077
 21
99.8672
  0
LINE
  8
0
 10
-114.077
 20
99.8672
 11
-113.956
 21
100.058
  0
LINE
  8
0
 10
-113.956
 20
100.058
 11
-113.812
 21
100.232
  0
LINE
  8
0
 10
-113.812
 20
100.232
 11
-113.647
 21
100.387
  0
LINE
  8
0
 10
-113.647
 20
100.387
 11
-113.464
 21
100.52
  0
LINE
  8
0
 10
-113.464
 20
100.52
 11
-113.266
 21
100.629
  0
LINE
  8
0
 10
-113.266
 20
100.629
 11
-113.056
 21
100.712
  0
LINE
  8
0
 10
-113.056
 20
100.712
 11
-112.837
 21
100.768
  0
LINE
  8
0
 10
-112.837
 20
100.768
 11
-112.613
 21
100.796
  0
LINE
  8
0
 10
-112.613
 20
100.796
 11
-112.387
 21
100.796
  0
LINE
  8
0
 10
-112.387
 20
100.796
 11
-112.163
 21
100.768
  0
LINE
  8
0
 10
-112.163
 20
100.768
 11
-111.944
 21
100.712
  0
LINE
  8
0
 10
-111.944
 20
100.712
 11
-111.734
 21
100.629
  0
LINE
  8
0
 10
-111.734
 20
100.629
 11
-111.536
 21
100.52
  0
LINE
  8
0
 10
-111.536
 20
100.52
 11
-111.353
 21
100.387
  0
LINE
  8
0
 10
-111.353
 20
100.387
 11
-111.188
 21
100.232
  0
LINE
  8
0
 10
-111.188
 20
100.232
 11
-111.044
 21
100.058
  0
LINE
  8
0
 10
-111.044
 20
100.058
 11
-110.923
 21
99.8672
  0
LINE
  8
0
 10
-110.923
 20
99.8672
 11
-110.826
 21
99.6626
  0
LINE
  8
0
 10
-110.826
 20
99.6626
 11
-110.757
 21
99.4476
  0
LINE
  8
0
 10
-110.757
 20
99.4476
 11
-110.714
 21
99.2256
  0
LINE
  8
0
 10
-110.714
 20
99.2256
 11
-110.7
 21
99
  0
LINE
  8
0
 10
-110.7
 20
99
 11
-110.714
 21
98.7744
  0
LINE
  8
0
 10
-110.714
 20
98.7744
 11
-110.757
 21
98.5524
  0
LINE
  8
0
 10
-110.757
 20
98.5524
 11
-110.826
 21
98.3374
  0
LINE
  8
0
 10
-110.826
 20
98.3374
 11
-110.923
 21
98.1328
  0
LINE
  8
0
 10
-110.923
 20
98.1328
 11
-111.044
 21
97.942
  0
LINE
  8
0
 10
-111.044
 20
97.942
 11
-111.188
 21
97.7678
  0
LINE
  8
0
 10
-111.188
 20
97.7678
 11
-111.353
 21
97.6131
  0
LINE
  8
0
 10
-111.353
 20
97.6131
 11
-111.536
 21
97.4802
  0
LINE
  8
0
 10
-111.536
 20
97.4802
 11
-111.734
 21
97.3713
  0
LINE
  8
0
 10
-111.734
 20
97.3713
 11
-111.944
 21
97.2881
  0
LINE
  8
0
 10
-111.944
 20
97.2881
 11
-112.163
 21
97.2319
  0
LINE
  8
0
 10
-112.163
 20
97.2319
 11
-112.387
 21
97.2036
  0
LINE
  8
0
 10
-112.387
 20
97.2036
 11
-112.613
 21
97.2036
  0
ENDSEC
  0
SECTION
  2
OBJECTS
  0
DICTIONARY
  0
ENDSEC
  0
EOF
