<?xml version="1.0" standalone="no"?>
<!DOCTYPE svg PUBLIC "-//W3C//DTD SVG 1.1//EN" "http://www.w3.org/Graphics/SVG/1.1/DTD/svg11.dtd">
<svg width="242mm" height="340mm" viewBox="-122 -431 242 340" xmlns="http://www.w3.org/2000/svg" version="1.1">
<title>OpenSCAD Model</title>
<path d="
M 115.937,-265.589 L 116.545,-265.745 L 117.129,-265.976 L 117.679,-266.278 L 118.187,-266.647 L 118.645,-267.077
 L 119.045,-267.561 L 119.382,-268.091 L 119.649,-268.659 L 119.843,-269.257 L 119.961,-269.873 L 120,-270.5
 L 120,-425.5 L 119.961,-426.127 L 119.843,-426.743 L 119.649,-427.341 L 119.382,-427.909 L 119.045,-428.439
 L 118.645,-428.923 L 118.187,-429.353 L 117.679,-429.722 L 117.129,-430.024 L 116.545,-430.255 L 115.937,-430.411
 L 115.314,-430.49 L -115.314,-430.49 L -115.937,-430.411 L -116.545,-430.255 L -117.129,-430.024 L -117.679,-429.722
 L -118.187,-429.353 L -118.5,-429.059 L -118.5,-430.115 L -121.5,-430.115 L -121.5,-265.885 L -118.5,-265.885
 L -118.5,-266.941 L -118.187,-266.647 L -117.679,-266.278 L -117.129,-265.976 L -116.545,-265.745 L -115.937,-265.589
 L -115.314,-265.51 L 115.314,-265.51 z
M 112.349,-420.605 L 112.05,-420.643 L 111.758,-420.717 L 111.478,-420.828 L 111.214,-420.974 L 110.97,-421.151
 L 110.75,-421.357 L 110.558,-421.589 L 110.397,-421.844 L 110.269,-422.117 L 110.175,-422.403 L 110.119,-422.699
 L 110.1,-423 L 110.119,-423.301 L 110.175,-423.597 L 110.269,-423.883 L 110.397,-424.156 L 110.558,-424.411
 L 110.75,-424.643 L 110.97,-424.849 L 111.214,-425.026 L 111.478,-425.172 L 111.758,-425.283 L 112.05,-425.357
 L 112.349,-425.395 L 112.651,-425.395 L 112.95,-425.357 L 113.242,-425.283 L 113.522,-425.172 L 113.786,-425.026
 L 114.03,-424.849 L 114.25,-424.643 L 114.442,-424.411 L 114.603,-424.156 L 114.731,-423.883 L 114.825,-423.597
 L 114.881,-423.301 L 114.9,-423 L 114.881,-422.699 L 114.825,-422.403 L 114.731,-422.117 L 114.603,-421.844
 L 114.442,-421.589 L 114.25,-421.357 L 114.03,-421.151 L 113.786,-420.974 L 113.522,-420.828 L 113.242,-420.717
 L 112.95,-420.643 L 112.651,-420.605 z
M -112.651,-420.605 L -112.95,-420.643 L -113.242,-420.717 L -113.522,-420.828 L -113.786,-420.974 L -114.03,-421.151
 L -114.25,-421.357 L -114.442,-421.589 L -114.603,-421.844 L -114.731,-422.117 L -114.825,-422.403 L -114.881,-422.699
 L -114.9,-423 L -114.881,-423.301 L -114.825,-423.597 L -114.731,-423.883 L -114.603,-424.156 L -114.442,-424.411
 L -114.25,-424.643 L -114.03,-424.849 L -113.786,-425.026 L -113.522,-425.172 L -113.242,-425.283 L -112.95,-425.357
 L -112.651,-425.395 L -112.349,-425.395 L -112.05,-425.357 L -111.758,-425.283 L -111.478,-425.172 L -111.214,-425.026
 L -110.97,-424.849 L -110.75,-424.643 L -110.558,-424.411 L -110.397,-424.156 L -110.269,-423.883 L -110.175,-423.597
 L -110.119,-423.301 L -110.1,-423 L -110.119,-422.699 L -110.175,-422.403 L -110.269,-422.117 L -110.397,-421.844
 L -110.558,-421.589 L -110.75,-421.357 L -110.97,-421.151 L -111.214,-420.974 L -111.478,-420.828 L -111.758,-420.717
 L -112.05,-420.643 L -112.349,-420.605 z
M 112.349,-270.605 L 112.05,-270.643 L 111.758,-270.717 L 111.478,-270.828 L 111.214,-270.974 L 110.97,-271.151
 L 110.75,-271.357 L 110.558,-271.589 L 110.397,-271.844 L 110.269,-272.117 L 110.175,-272.403 L 110.119,-272.699
 L 110.1,-273 L 110.119,-273.301 L 110.175,-273.597 L 110.269,-273.883 L 110.397,-274.156 L 110.558,-274.411
 L 110.75,-274.643 L 110.97,-274.849 L 111.214,-275.026 L 111.478,-275.172 L 111.758,-275.283 L 112.05,-275.357
 L 112.349,-275.395 L 112.651,-275.395 L 112.95,-275.357 L 113.242,-275.283 L 113.522,-275.172 L 113.786,-275.026
 L 114.03,-274.849 L 114.25,-274.643 L 114.442,-274.411 L 114.603,-274.156 L 114.731,-273.883 L 114.825,-273.597
 L 114.881,-273.301 L 114.9,-273 L 114.881,-272.699 L 114.825,-272.403 L 114.731,-272.117 L 114.603,-271.844
 L 114.442,-271.589 L 114.25,-271.357 L 114.03,-271.151 L 113.786,-270.974 L 113.522,-270.828 L 113.242,-270.717
 L 112.95,-270.643 L 112.651,-270.605 z
M -112.651,-270.605 L -112.95,-270.643 L -113.242,-270.717 L -113.522,-270.828 L -113.786,-270.974 L -114.03,-271.151
 L -114.25,-271.357 L -114.442,-271.589 L -114.603,-271.844 L -114.731,-272.117 L -114.825,-272.403 L -114.881,-272.699
 L -114.9,-273 L -114.881,-273.301 L -114.825,-273.597 L -114.731,-273.883 L -114.603,-274.156 L -114.442,-274.411
 L -114.25,-274.643 L -114.03,-274.849 L -113.786,-275.026 L -113.522,-275.172 L -113.242,-275.283 L -112.95,-275.357
 L -112.651,-275.395 L -112.349,-275.395 L -112.05,-275.357 L -111.758,-275.283 L -111.478,-275.172 L -111.214,-275.026
 L -110.97,-274.849 L -110.75,-274.643 L -110.558,-274.411 L -110.397,-274.156 L -110.269,-273.883 L -110.175,-273.597
 L -110.119,-273.301 L -110.1,-273 L -110.119,-272.699 L -110.175,-272.403 L -110.269,-272.117 L -110.397,-271.844
 L -110.558,-271.589 L -110.75,-271.357 L -110.97,-271.151 L -111.214,-270.974 L -111.478,-270.828 L -111.758,-270.717
 L -112.05,-270.643 L -112.349,-270.605 z
M 115.937,-91.5886 L 116.545,-91.7447 L 117.129,-91.9759 L 117.679,-92.2784 L 118.187,-92.6474 L 118.645,-93.0773
 L 119.045,-93.5611 L 119.382,-94.0912 L 119.649,-94.6594 L 119.843,-95.2566 L 119.961,-95.8733 L 120,-96.5
 L 120,-251.5 L 119.961,-252.127 L 119.843,-252.743 L 119.649,-253.341 L 119.382,-253.909 L 119.045,-254.439
 L 118.645,-254.923 L 118.187,-255.353 L 117.679,-255.722 L 117.129,-256.024 L 116.545,-256.255 L 115.937,-256.411
 L 115.314,-256.49 L -115.314,-256.49 L -115.937,-256.411 L -116.545,-256.255 L -117.129,-256.024 L -117.679,-255.722
 L -118.187,-255.353 L -118.645,-254.923 L -119.045,-254.439 L -119.382,-253.909 L -119.649,-253.341 L -119.843,-252.743
 L -119.9,-252.444 L -121.5,-252.444 L -121.5,-95.5558 L -119.9,-95.5558 L -119.843,-95.2566 L -119.649,-94.6594
 L -119.382,-94.0912 L -119.045,-93.5611 L -118.645,-93.0773 L -118.187,-92.6474 L -117.679,-92.2784 L -117.129,-91.9759
 L -116.545,-91.7447 L -115.937,-91.5886 L -115.314,-91.5099 L 115.314,-91.5099 z
M 112.387,-247.204 L 112.163,-247.232 L 111.944,-247.288 L 111.734,-247.371 L 111.536,-247.48 L 111.353,-247.613
 L 111.188,-247.768 L 111.044,-247.942 L 110.923,-248.133 L 110.826,-248.337 L 110.757,-248.552 L 110.714,-248.774
 L 110.7,-249 L 110.714,-249.226 L 110.757,-249.448 L 110.826,-249.663 L 110.923,-249.867 L 111.044,-250.058
 L 111.188,-250.232 L 111.353,-250.387 L 111.536,-250.52 L 111.734,-250.629 L 111.944,-250.712 L 112.163,-250.768
 L 112.387,-250.796 L 112.613,-250.796 L 112.837,-250.768 L 113.056,-250.712 L 113.266,-250.629 L 113.464,-250.52
 L 113.647,-250.387 L 113.812,-250.232 L 113.956,-250.058 L 114.077,-249.867 L 114.174,-249.663 L 114.243,-249.448
 L 114.286,-249.226 L 114.3,-249 L 114.286,-248.774 L 114.243,-248.552 L 114.174,-248.337 L 114.077,-248.133
 L 113.956,-247.942 L 113.812,-247.768 L 113.647,-247.613 L 113.464,-247.48 L 113.266,-247.371 L 113.056,-247.288
 L 112.837,-247.232 L 112.613,-247.204 z
M -112.613,-247.204 L -112.837,-247.232 L -113.056,-247.288 L -113.266,-247.371 L -113.464,-247.48 L -113.647,-247.613
 L -113.812,-247.768 L -113.956,-247.942 L -114.077,-248.133 L -114.174,-248.337 L -114.243,-248.552 L -114.286,-248.774
 L -114.3,-249 L -114.286,-249.226 L -114.243,-249.448 L -114.174,-249.663 L -114.077,-249.867 L -113.956,-250.058
 L -113.812,-250.232 L -113.647,-250.387 L -113.464,-250.52 L -113.266,-250.629 L -113.056,-250.712 L -112.837,-250.768
 L -112.613,-250.796 L -112.387,-250.796 L -112.163,-250.768 L -111.944,-250.712 L -111.734,-250.629 L -111.536,-250.52
 L -111.353,-250.387 L -111.188,-250.232 L -111.044,-250.058 L -110.923,-249.867 L -110.826,-249.663 L -110.757,-249.448
 L -110.714,-249.226 L -110.7,-249 L -110.714,-248.774 L -110.757,-248.552 L -110.826,-248.337 L -110.923,-248.133
 L -111.044,-247.942 L -111.188,-247.768 L -111.353,-247.613 L -111.536,-247.48 L -111.734,-247.371 L -111.944,-247.288
 L -112.163,-247.232 L -112.387,-247.204 z
M 112.387,-97.2036 L 112.163,-97.2319 L 111.944,-97.2881 L 111.734,-97.3713 L 111.536,-97.4802 L 111.353,-97.6131
 L 111.188,-97.7678 L 111.044,-97.942 L 110.923,-98.1328 L 110.826,-98.3374 L 110.757,-98.5524 L 110.714,-98.7744
 L 110.7,-99 L 110.714,-99.2256 L 110.757,-99.4476 L 110.826,-99.6626 L 110.923,-99.8672 L 111.044,-100.058
 L 111.188,-100.232 L 111.353,-100.387 L 111.536,-100.52 L 111.734,-100.629 L 111.944,-100.712 L 112.163,-100.768
 L 112.387,-100.796 L 112.613,-100.796 L 112.837,-100.768 L 113.056,-100.712 L 113.266,-100.629 L 113.464,-100.52
 L 113.647,-100.387 L 113.812,-100.232 L 113.956,-100.058 L 114.077,-99.8672 L 114.174,-99.6626 L 114.243,-99.4476
 L 114.286,-99.2256 L 114.3,-99 L 114.286,-98.7744 L 114.243,-98.5524 L 114.174,-98.3374 L 114.077,-98.1328
 L 113.956,-97.942 L 113.812,-97.7678 L 113.647,-97.6131 L 113.464,-97.4802 L 113.266,-97.3713 L 113.056,-97.2881
 L 112.837,-97.2319 L 112.613,-97.2036 z
M -112.613,-97.2036 L -112.837,-97.2319 L -113.056,-97.2881 L -113.266,-97.3713 L -113.464,-97.4802 L -113.647,-97.6131
 L -113.812,-97.7678 L -113.956,-97.942 L -114.077,-98.1328 L -114.174,-98.3374 L -114.243,-98.5524 L -114.286,-98.7744
 L -114.3,-99 L -114.286,-99.2256 L -114.243,-99.4476 L -114.174,-99.6626 L -114.077,-99.8672 L -113.956,-100.058
 L -113.812,-100.232 L -113.647,-100.387 L -113.464,-100.52 L -113.266,-100.629 L -113.056,-100.712 L -112.837,-100.768
 L -112.613,-100.796 L -112.387,-100.796 L -112.163,-100.768 L -111.944,-100.712 L -111.734,-100.629 L -111.536,-100.52
 L -111.353,-100.387 L -111.188,-100.232 L -111.044,-100.058 L -110.923,-99.8672 L -110.826,-99.6626 L -110.757,-99.4476
 L -110.714,-99.2256 L -110.7,-99 L -110.714,-98.7744 L -110.757,-98.5524 L -110.826,-98.3374 L -110.923,-98.1328
 L -111.044,-97.942 L -111.188,-97.7678 L -111.353,-97.6131 L -111.536,-97.4802 L -111.734,-97.3713 L -111.944,-97.2881
 L -112.163,-97.2319 L -112.387,-97.2036 z
" stroke="black" fill="lightgray" stroke-width="0.5"/>
</svg>
