  0
SECTION
  2
BLOCKS
  0
ENDSEC
  0
SECTION
  2
ENTITIES
  0
LINE
  8
0
 10
63.4369
 20
175.589
 11
64.0451
 21
175.745
  0
LINE
  8
0
 10
64.0451
 20
175.745
 11
64.6289
 21
175.976
  0
LINE
  8
0
 10
64.6289
 20
175.976
 11
65.1791
 21
176.278
  0
LINE
  8
0
 10
65.1791
 20
176.278
 11
65.6871
 21
176.647
  0
LINE
  8
0
 10
65.6871
 20
176.647
 11
66.1448
 21
177.077
  0
LINE
  8
0
 10
66.1448
 20
177.077
 11
66.5451
 21
177.561
  0
LINE
  8
0
 10
66.5451
 20
177.561
 11
66.8815
 21
178.091
  0
LINE
  8
0
 10
66.8815
 20
178.091
 11
67.1489
 21
178.659
  0
LINE
  8
0
 10
67.1489
 20
178.659
 11
67.3429
 21
179.257
  0
LINE
  8
0
 10
67.3429
 20
179.257
 11
67.4606
 21
179.873
  0
LINE
  8
0
 10
67.4606
 20
179.873
 11
67.5
 21
180.5
  0
LINE
  8
0
 10
67.5
 20
180.5
 11
67.5
 21
275.5
  0
LINE
  8
0
 10
67.5
 20
275.5
 11
67.4606
 21
276.127
  0
LINE
  8
0
 10
67.4606
 20
276.127
 11
67.3429
 21
276.743
  0
LINE
  8
0
 10
67.3429
 20
276.743
 11
67.1489
 21
277.341
  0
LINE
  8
0
 10
67.1489
 20
277.341
 11
66.8815
 21
277.909
  0
LINE
  8
0
 10
66.8815
 20
277.909
 11
66.5451
 21
278.439
  0
LINE
  8
0
 10
66.5451
 20
278.439
 11
66.1448
 21
278.923
  0
LINE
  8
0
 10
66.1448
 20
278.923
 11
65.6871
 21
279.353
  0
LINE
  8
0
 10
65.6871
 20
279.353
 11
65.1791
 21
279.722
  0
LINE
  8
0
 10
65.1791
 20
279.722
 11
64.6289
 21
280.024
  0
LINE
  8
0
 10
64.6289
 20
280.024
 11
64.0451
 21
280.255
  0
LINE
  8
0
 10
64.0451
 20
280.255
 11
63.4369
 21
280.411
  0
LINE
  8
0
 10
63.4369
 20
280.411
 11
62.8139
 21
280.49
  0
LINE
  8
0
 10
62.8139
 20
280.49
 11
-62.8139
 21
280.49
  0
LINE
  8
0
 10
-62.8139
 20
280.49
 11
-63.4369
 21
280.411
  0
LINE
  8
0
 10
-63.4369
 20
280.411
 11
-64.0451
 21
280.255
  0
LINE
  8
0
 10
-64.0451
 20
280.255
 11
-64.6289
 21
280.024
  0
LINE
  8
0
 10
-64.6289
 20
280.024
 11
-65.1791
 21
279.722
  0
LINE
  8
0
 10
-65.1791
 20
279.722
 11
-65.6871
 21
279.353
  0
LINE
  8
0
 10
-65.6871
 20
279.353
 11
-66
 21
279.059
  0
LINE
  8
0
 10
-66
 20
279.059
 11
-66
 21
280.115
  0
LINE
  8
0
 10
-66
 20
280.115
 11
-69
 21
280.115
  0
LINE
  8
0
 10
-69
 20
280.115
 11
-69
 21
175.885
  0
LINE
  8
0
 10
-69
 20
175.885
 11
-66
 21
175.885
  0
LINE
  8
0
 10
-66
 20
175.885
 11
-66
 21
176.941
  0
LINE
  8
0
 10
-66
 20
176.941
 11
-65.6871
 21
176.647
  0
LINE
  8
0
 10
-65.6871
 20
176.647
 11
-65.1791
 21
176.278
  0
LINE
  8
0
 10
-65.1791
 20
176.278
 11
-64.6289
 21
175.976
  0
LINE
  8
0
 10
-64.6289
 20
175.976
 11
-64.0451
 21
175.745
  0
LINE
  8
0
 10
-64.0451
 20
175.745
 11
-63.4369
 21
175.589
  0
LINE
  8
0
 10
-63.4369
 20
175.589
 11
-62.8139
 21
175.51
  0
LINE
  8
0
 10
-62.8139
 20
175.51
 11
62.8139
 21
175.51
  0
LINE
  8
0
 10
62.8139
 20
175.51
 11
63.4369
 21
175.589
  0
LINE
  8
0
 10
63.4369
 20
61.5886
 11
64.0451
 21
61.7447
  0
LINE
  8
0
 10
64.0451
 20
61.7447
 11
64.6289
 21
61.9759
  0
LINE
  8
0
 10
64.6289
 20
61.9759
 11
65.1791
 21
62.2784
  0
LINE
  8
0
 10
65.1791
 20
62.2784
 11
65.6871
 21
62.6474
  0
LINE
  8
0
 10
65.6871
 20
62.6474
 11
66.1448
 21
63.0773
  0
LINE
  8
0
 10
66.1448
 20
63.0773
 11
66.5451
 21
63.5611
  0
LINE
  8
0
 10
66.5451
 20
63.5611
 11
66.8815
 21
64.0912
  0
LINE
  8
0
 10
66.8815
 20
64.0912
 11
67.1489
 21
64.6594
  0
LINE
  8
0
 10
67.1489
 20
64.6594
 11
67.3429
 21
65.2566
  0
LINE
  8
0
 10
67.3429
 20
65.2566
 11
67.4606
 21
65.8733
  0
LINE
  8
0
 10
67.4606
 20
65.8733
 11
67.5
 21
66.5
  0
LINE
  8
0
 10
67.5
 20
66.5
 11
67.5
 21
161.5
  0
LINE
  8
0
 10
67.5
 20
161.5
 11
67.4606
 21
162.127
  0
LINE
  8
0
 10
67.4606
 20
162.127
 11
67.3429
 21
162.743
  0
LINE
  8
0
 10
67.3429
 20
162.743
 11
67.1489
 21
163.341
  0
LINE
  8
0
 10
67.1489
 20
163.341
 11
66.8815
 21
163.909
  0
LINE
  8
0
 10
66.8815
 20
163.909
 11
66.5451
 21
164.439
  0
LINE
  8
0
 10
66.5451
 20
164.439
 11
66.1448
 21
164.923
  0
LINE
  8
0
 10
66.1448
 20
164.923
 11
65.6871
 21
165.353
  0
LINE
  8
0
 10
65.6871
 20
165.353
 11
65.1791
 21
165.722
  0
LINE
  8
0
 10
65.1791
 20
165.722
 11
64.6289
 21
166.024
  0
LINE
  8
0
 10
64.6289
 20
166.024
 11
64.0451
 21
166.255
  0
LINE
  8
0
 10
64.0451
 20
166.255
 11
63.4369
 21
166.411
  0
LINE
  8
0
 10
63.4369
 20
166.411
 11
62.8139
 21
166.49
  0
LINE
  8
0
 10
62.8139
 20
166.49
 11
-62.8139
 21
166.49
  0
LINE
  8
0
 10
-62.8139
 20
166.49
 11
-63.4369
 21
166.411
  0
LINE
  8
0
 10
-63.4369
 20
166.411
 11
-64.0451
 21
166.255
  0
LINE
  8
0
 10
-64.0451
 20
166.255
 11
-64.6289
 21
166.024
  0
LINE
  8
0
 10
-64.6289
 20
166.024
 11
-65.1791
 21
165.722
  0
LINE
  8
0
 10
-65.1791
 20
165.722
 11
-65.6871
 21
165.353
  0
LINE
  8
0
 10
-65.6871
 20
165.353
 11
-66.1448
 21
164.923
  0
LINE
  8
0
 10
-66.1448
 20
164.923
 11
-66.5451
 21
164.439
  0
LINE
  8
0
 10
-66.5451
 20
164.439
 11
-66.8815
 21
163.909
  0
LINE
  8
0
 10
-66.8815
 20
163.909
 11
-67.1489
 21
163.341
  0
LINE
  8
0
 10
-67.1489
 20
163.341
 11
-67.3429
 21
162.743
  0
LINE
  8
0
 10
-67.3429
 20
162.743
 11
-67.4
 21
162.444
  0
LINE
  8
0
 10
-67.4
 20
162.444
 11
-69
 21
162.444
  0
LINE
  8
0
 10
-69
 20
162.444
 11
-69
 21
65.5558
  0
LINE
  8
0
 10
-69
 20
65.5558
 11
-67.4
 21
65.5558
  0
LINE
  8
0
 10
-67.4
 20
65.5558
 11
-67.3429
 21
65.2566
  0
LINE
  8
0
 10
-67.3429
 20
65.2566
 11
-67.1489
 21
64.6594
  0
LINE
  8
0
 10
-67.1489
 20
64.6594
 11
-66.8815
 21
64.0912
  0
LINE
  8
0
 10
-66.8815
 20
64.0912
 11
-66.5451
 21
63.5611
  0
LINE
  8
0
 10
-66.5451
 20
63.5611
 11
-66.1448
 21
63.0773
  0
LINE
  8
0
 10
-66.1448
 20
63.0773
 11
-65.6871
 21
62.6474
  0
LINE
  8
0
 10
-65.6871
 20
62.6474
 11
-65.1791
 21
62.2784
  0
LINE
  8
0
 10
-65.1791
 20
62.2784
 11
-64.6289
 21
61.9759
  0
LINE
  8
0
 10
-64.6289
 20
61.9759
 11
-64.0451
 21
61.7447
  0
LINE
  8
0
 10
-64.0451
 20
61.7447
 11
-63.4369
 21
61.5886
  0
LINE
  8
0
 10
-63.4369
 20
61.5886
 11
-62.8139
 21
61.5099
  0
LINE
  8
0
 10
-62.8139
 20
61.5099
 11
62.8139
 21
61.5099
  0
LINE
  8
0
 10
62.8139
 20
61.5099
 11
63.4369
 21
61.5886
  0
LINE
  8
0
 10
59.887
 20
157.204
 11
59.6627
 21
157.232
  0
LINE
  8
0
 10
59.6627
 20
157.232
 11
59.4438
 21
157.288
  0
LINE
  8
0
 10
59.4438
 20
157.288
 11
59.2336
 21
157.371
  0
LINE
  8
0
 10
59.2336
 20
157.371
 11
59.0355
 21
157.48
  0
LINE
  8
0
 10
59.0355
 20
157.48
 11
58.8526
 21
157.613
  0
LINE
  8
0
 10
58.8526
 20
157.613
 11
58.6879
 21
157.768
  0
LINE
  8
0
 10
58.6879
 20
157.768
 11
58.5438
 21
157.942
  0
LINE
  8
0
 10
58.5438
 20
157.942
 11
58.4226
 21
158.133
  0
LINE
  8
0
 10
58.4226
 20
158.133
 11
58.3264
 21
158.337
  0
LINE
  8
0
 10
58.3264
 20
158.337
 11
58.2565
 21
158.552
  0
LINE
  8
0
 10
58.2565
 20
158.552
 11
58.2142
 21
158.774
  0
LINE
  8
0
 10
58.2142
 20
158.774
 11
58.2
 21
159
  0
LINE
  8
0
 10
58.2
 20
159
 11
58.2142
 21
159.226
  0
LINE
  8
0
 10
58.2142
 20
159.226
 11
58.2565
 21
159.448
  0
LINE
  8
0
 10
58.2565
 20
159.448
 11
58.3264
 21
159.663
  0
LINE
  8
0
 10
58.3264
 20
159.663
 11
58.4226
 21
159.867
  0
LINE
  8
0
 10
58.4226
 20
159.867
 11
58.5438
 21
160.058
  0
LINE
  8
0
 10
58.5438
 20
160.058
 11
58.6879
 21
160.232
  0
LINE
  8
0
 10
58.6879
 20
160.232
 11
58.8526
 21
160.387
  0
LINE
  8
0
 10
58.8526
 20
160.387
 11
59.0355
 21
160.52
  0
LINE
  8
0
 10
59.0355
 20
160.52
 11
59.2336
 21
160.629
  0
LINE
  8
0
 10
59.2336
 20
160.629
 11
59.4438
 21
160.712
  0
LINE
  8
0
 10
59.4438
 20
160.712
 11
59.6627
 21
160.768
  0
LINE
  8
0
 10
59.6627
 20
160.768
 11
59.887
 21
160.796
  0
LINE
  8
0
 10
59.887
 20
160.796
 11
60.113
 21
160.796
  0
LINE
  8
0
 10
60.113
 20
160.796
 11
60.3373
 21
160.768
  0
LINE
  8
0
 10
60.3373
 20
160.768
 11
60.5562
 21
160.712
  0
LINE
  8
0
 10
60.5562
 20
160.712
 11
60.7664
 21
160.629
  0
LINE
  8
0
 10
60.7664
 20
160.629
 11
60.9645
 21
160.52
  0
LINE
  8
0
 10
60.9645
 20
160.52
 11
61.1474
 21
160.387
  0
LINE
  8
0
 10
61.1474
 20
160.387
 11
61.3121
 21
160.232
  0
LINE
  8
0
 10
61.3121
 20
160.232
 11
61.4562
 21
160.058
  0
LINE
  8
0
 10
61.4562
 20
160.058
 11
61.5773
 21
159.867
  0
LINE
  8
0
 10
61.5773
 20
159.867
 11
61.6736
 21
159.663
  0
LINE
  8
0
 10
61.6736
 20
159.663
 11
61.7434
 21
159.448
  0
LINE
  8
0
 10
61.7434
 20
159.448
 11
61.7858
 21
159.226
  0
LINE
  8
0
 10
61.7858
 20
159.226
 11
61.8
 21
159
  0
LINE
  8
0
 10
61.8
 20
159
 11
61.7858
 21
158.774
  0
LINE
  8
0
 10
61.7858
 20
158.774
 11
61.7434
 21
158.552
  0
LINE
  8
0
 10
61.7434
 20
158.552
 11
61.6736
 21
158.337
  0
LINE
  8
0
 10
61.6736
 20
158.337
 11
61.5773
 21
158.133
  0
LINE
  8
0
 10
61.5773
 20
158.133
 11
61.4562
 21
157.942
  0
LINE
  8
0
 10
61.4562
 20
157.942
 11
61.3121
 21
157.768
  0
LINE
  8
0
 10
61.3121
 20
157.768
 11
61.1474
 21
157.613
  0
LINE
  8
0
 10
61.1474
 20
157.613
 11
60.9645
 21
157.48
  0
LINE
  8
0
 10
60.9645
 20
157.48
 11
60.7664
 21
157.371
  0
LINE
  8
0
 10
60.7664
 20
157.371
 11
60.5562
 21
157.288
  0
LINE
  8
0
 10
60.5562
 20
157.288
 11
60.3373
 21
157.232
  0
LINE
  8
0
 10
60.3373
 20
157.232
 11
60.113
 21
157.204
  0
LINE
  8
0
 10
60.113
 20
157.204
 11
59.887
 21
157.204
  0
LINE
  8
0
 10
-60.113
 20
157.204
 11
-60.3373
 21
157.232
  0
LINE
  8
0
 10
-60.3373
 20
157.232
 11
-60.5562
 21
157.288
  0
LINE
  8
0
 10
-60.5562
 20
157.288
 11
-60.7664
 21
157.371
  0
LINE
  8
0
 10
-60.7664
 20
157.371
 11
-60.9645
 21
157.48
  0
LINE
  8
0
 10
-60.9645
 20
157.48
 11
-61.1474
 21
157.613
  0
LINE
  8
0
 10
-61.1474
 20
157.613
 11
-61.3121
 21
157.768
  0
LINE
  8
0
 10
-61.3121
 20
157.768
 11
-61.4562
 21
157.942
  0
LINE
  8
0
 10
-61.4562
 20
157.942
 11
-61.5773
 21
158.133
  0
LINE
  8
0
 10
-61.5773
 20
158.133
 11
-61.6736
 21
158.337
  0
LINE
  8
0
 10
-61.6736
 20
158.337
 11
-61.7434
 21
158.552
  0
LINE
  8
0
 10
-61.7434
 20
158.552
 11
-61.7858
 21
158.774
  0
LINE
  8
0
 10
-61.7858
 20
158.774
 11
-61.8
 21
159
  0
LINE
  8
0
 10
-61.8
 20
159
 11
-61.7858
 21
159.226
  0
LINE
  8
0
 10
-61.7858
 20
159.226
 11
-61.7434
 21
159.448
  0
LINE
  8
0
 10
-61.7434
 20
159.448
 11
-61.6736
 21
159.663
  0
LINE
  8
0
 10
-61.6736
 20
159.663
 11
-61.5773
 21
159.867
  0
LINE
  8
0
 10
-61.5773
 20
159.867
 11
-61.4562
 21
160.058
  0
LINE
  8
0
 10
-61.4562
 20
160.058
 11
-61.3121
 21
160.232
  0
LINE
  8
0
 10
-61.3121
 20
160.232
 11
-61.1474
 21
160.387
  0
LINE
  8
0
 10
-61.1474
 20
160.387
 11
-60.9645
 21
160.52
  0
LINE
  8
0
 10
-60.9645
 20
160.52
 11
-60.7664
 21
160.629
  0
LINE
  8
0
 10
-60.7664
 20
160.629
 11
-60.5562
 21
160.712
  0
LINE
  8
0
 10
-60.5562
 20
160.712
 11
-60.3373
 21
160.768
  0
LINE
  8
0
 10
-60.3373
 20
160.768
 11
-60.113
 21
160.796
  0
LINE
  8
0
 10
-60.113
 20
160.796
 11
-59.887
 21
160.796
  0
LINE
  8
0
 10
-59.887
 20
160.796
 11
-59.6627
 21
160.768
  0
LINE
  8
0
 10
-59.6627
 20
160.768
 11
-59.4438
 21
160.712
  0
LINE
  8
0
 10
-59.4438
 20
160.712
 11
-59.2336
 21
160.629
  0
LINE
  8
0
 10
-59.2336
 20
160.629
 11
-59.0355
 21
160.52
  0
LINE
  8
0
 10
-59.0355
 20
160.52
 11
-58.8526
 21
160.387
  0
LINE
  8
0
 10
-58.8526
 20
160.387
 11
-58.6879
 21
160.232
  0
LINE
  8
0
 10
-58.6879
 20
160.232
 11
-58.5438
 21
160.058
  0
LINE
  8
0
 10
-58.5438
 20
160.058
 11
-58.4226
 21
159.867
  0
LINE
  8
0
 10
-58.4226
 20
159.867
 11
-58.3264
 21
159.663
  0
LINE
  8
0
 10
-58.3264
 20
159.663
 11
-58.2565
 21
159.448
  0
LINE
  8
0
 10
-58.2565
 20
159.448
 11
-58.2142
 21
159.226
  0
LINE
  8
0
 10
-58.2142
 20
159.226
 11
-58.2
 21
159
  0
LINE
  8
0
 10
-58.2
 20
159
 11
-58.2142
 21
158.774
  0
LINE
  8
0
 10
-58.2142
 20
158.774
 11
-58.2565
 21
158.552
  0
LINE
  8
0
 10
-58.2565
 20
158.552
 11
-58.3264
 21
158.337
  0
LINE
  8
0
 10
-58.3264
 20
158.337
 11
-58.4226
 21
158.133
  0
LINE
  8
0
 10
-58.4226
 20
158.133
 11
-58.5438
 21
157.942
  0
LINE
  8
0
 10
-58.5438
 20
157.942
 11
-58.6879
 21
157.768
  0
LINE
  8
0
 10
-58.6879
 20
157.768
 11
-58.8526
 21
157.613
  0
LINE
  8
0
 10
-58.8526
 20
157.613
 11
-59.0355
 21
157.48
  0
LINE
  8
0
 10
-59.0355
 20
157.48
 11
-59.2336
 21
157.371
  0
LINE
  8
0
 10
-59.2336
 20
157.371
 11
-59.4438
 21
157.288
  0
LINE
  8
0
 10
-59.4438
 20
157.288
 11
-59.6627
 21
157.232
  0
LINE
  8
0
 10
-59.6627
 20
157.232
 11
-59.887
 21
157.204
  0
LINE
  8
0
 10
-59.887
 20
157.204
 11
-60.113
 21
157.204
  0
LINE
  8
0
 10
59.887
 20
67.2036
 11
59.6627
 21
67.2319
  0
LINE
  8
0
 10
59.6627
 20
67.2319
 11
59.4438
 21
67.2881
  0
LINE
  8
0
 10
59.4438
 20
67.2881
 11
59.2336
 21
67.3713
  0
LINE
  8
0
 10
59.2336
 20
67.3713
 11
59.0355
 21
67.4802
  0
LINE
  8
0
 10
59.0355
 20
67.4802
 11
58.8526
 21
67.6131
  0
LINE
  8
0
 10
58.8526
 20
67.6131
 11
58.6879
 21
67.7678
  0
LINE
  8
0
 10
58.6879
 20
67.7678
 11
58.5438
 21
67.942
  0
LINE
  8
0
 10
58.5438
 20
67.942
 11
58.4226
 21
68.1328
  0
LINE
  8
0
 10
58.4226
 20
68.1328
 11
58.3264
 21
68.3374
  0
LINE
  8
0
 10
58.3264
 20
68.3374
 11
58.2565
 21
68.5524
  0
LINE
  8
0
 10
58.2565
 20
68.5524
 11
58.2142
 21
68.7744
  0
LINE
  8
0
 10
58.2142
 20
68.7744
 11
58.2
 21
69
  0
LINE
  8
0
 10
58.2
 20
69
 11
58.2142
 21
69.2256
  0
LINE
  8
0
 10
58.2142
 20
69.2256
 11
58.2565
 21
69.4476
  0
LINE
  8
0
 10
58.2565
 20
69.4476
 11
58.3264
 21
69.6626
  0
LINE
  8
0
 10
58.3264
 20
69.6626
 11
58.4226
 21
69.8672
  0
LINE
  8
0
 10
58.4226
 20
69.8672
 11
58.5438
 21
70.058
  0
LINE
  8
0
 10
58.5438
 20
70.058
 11
58.6879
 21
70.2322
  0
LINE
  8
0
 10
58.6879
 20
70.2322
 11
58.8526
 21
70.3869
  0
LINE
  8
0
 10
58.8526
 20
70.3869
 11
59.0355
 21
70.5198
  0
LINE
  8
0
 10
59.0355
 20
70.5198
 11
59.2336
 21
70.6287
  0
LINE
  8
0
 10
59.2336
 20
70.6287
 11
59.4438
 21
70.7119
  0
LINE
  8
0
 10
59.4438
 20
70.7119
 11
59.6627
 21
70.7681
  0
LINE
  8
0
 10
59.6627
 20
70.7681
 11
59.887
 21
70.7964
  0
LINE
  8
0
 10
59.887
 20
70.7964
 11
60.113
 21
70.7964
  0
LINE
  8
0
 10
60.113
 20
70.7964
 11
60.3373
 21
70.7681
  0
LINE
  8
0
 10
60.3373
 20
70.7681
 11
60.5562
 21
70.7119
  0
LINE
  8
0
 10
60.5562
 20
70.7119
 11
60.7664
 21
70.6287
  0
LINE
  8
0
 10
60.7664
 20
70.6287
 11
60.9645
 21
70.5198
  0
LINE
  8
0
 10
60.9645
 20
70.5198
 11
61.1474
 21
70.3869
  0
LINE
  8
0
 10
61.1474
 20
70.3869
 11
61.3121
 21
70.2322
  0
LINE
  8
0
 10
61.3121
 20
70.2322
 11
61.4562
 21
70.058
  0
LINE
  8
0
 10
61.4562
 20
70.058
 11
61.5773
 21
69.8672
  0
LINE
  8
0
 10
61.5773
 20
69.8672
 11
61.6736
 21
69.6626
  0
LINE
  8
0
 10
61.6736
 20
69.6626
 11
61.7434
 21
69.4476
  0
LINE
  8
0
 10
61.7434
 20
69.4476
 11
61.7858
 21
69.2256
  0
LINE
  8
0
 10
61.7858
 20
69.2256
 11
61.8
 21
69
  0
LINE
  8
0
 10
61.8
 20
69
 11
61.7858
 21
68.7744
  0
LINE
  8
0
 10
61.7858
 20
68.7744
 11
61.7434
 21
68.5524
  0
LINE
  8
0
 10
61.7434
 20
68.5524
 11
61.6736
 21
68.3374
  0
LINE
  8
0
 10
61.6736
 20
68.3374
 11
61.5773
 21
68.1328
  0
LINE
  8
0
 10
61.5773
 20
68.1328
 11
61.4562
 21
67.942
  0
LINE
  8
0
 10
61.4562
 20
67.942
 11
61.3121
 21
67.7678
  0
LINE
  8
0
 10
61.3121
 20
67.7678
 11
61.1474
 21
67.6131
  0
LINE
  8
0
 10
61.1474
 20
67.6131
 11
60.9645
 21
67.4802
  0
LINE
  8
0
 10
60.9645
 20
67.4802
 11
60.7664
 21
67.3713
  0
LINE
  8
0
 10
60.7664
 20
67.3713
 11
60.5562
 21
67.2881
  0
LINE
  8
0
 10
60.5562
 20
67.2881
 11
60.3373
 21
67.2319
  0
LINE
  8
0
 10
60.3373
 20
67.2319
 11
60.113
 21
67.2036
  0
LINE
  8
0
 10
60.113
 20
67.2036
 11
59.887
 21
67.2036
  0
LINE
  8
0
 10
-60.113
 20
67.2036
 11
-60.3373
 21
67.2319
  0
LINE
  8
0
 10
-60.3373
 20
67.2319
 11
-60.5562
 21
67.2881
  0
LINE
  8
0
 10
-60.5562
 20
67.2881
 11
-60.7664
 21
67.3713
  0
LINE
  8
0
 10
-60.7664
 20
67.3713
 11
-60.9645
 21
67.4802
  0
LINE
  8
0
 10
-60.9645
 20
67.4802
 11
-61.1474
 21
67.6131
  0
LINE
  8
0
 10
-61.1474
 20
67.6131
 11
-61.3121
 21
67.7678
  0
LINE
  8
0
 10
-61.3121
 20
67.7678
 11
-61.4562
 21
67.942
  0
LINE
  8
0
 10
-61.4562
 20
67.942
 11
-61.5773
 21
68.1328
  0
LINE
  8
0
 10
-61.5773
 20
68.1328
 11
-61.6736
 21
68.3374
  0
LINE
  8
0
 10
-61.6736
 20
68.3374
 11
-61.7434
 21
68.5524
  0
LINE
  8
0
 10
-61.7434
 20
68.5524
 11
-61.7858
 21
68.7744
  0
LINE
  8
0
 10
-61.7858
 20
68.7744
 11
-61.8
 21
69
  0
LINE
  8
0
 10
-61.8
 20
69
 11
-61.7858
 21
69.2256
  0
LINE
  8
0
 10
-61.7858
 20
69.2256
 11
-61.7434
 21
69.4476
  0
LINE
  8
0
 10
-61.7434
 20
69.4476
 11
-61.6736
 21
69.6626
  0
LINE
  8
0
 10
-61.6736
 20
69.6626
 11
-61.5773
 21
69.8672
  0
LINE
  8
0
 10
-61.5773
 20
69.8672
 11
-61.4562
 21
70.058
  0
LINE
  8
0
 10
-61.4562
 20
70.058
 11
-61.3121
 21
70.2322
  0
LINE
  8
0
 10
-61.3121
 20
70.2322
 11
-61.1474
 21
70.3869
  0
LINE
  8
0
 10
-61.1474
 20
70.3869
 11
-60.9645
 21
70.5198
  0
LINE
  8
0
 10
-60.9645
 20
70.5198
 11
-60.7664
 21
70.6287
  0
LINE
  8
0
 10
-60.7664
 20
70.6287
 11
-60.5562
 21
70.7119
  0
LINE
  8
0
 10
-60.5562
 20
70.7119
 11
-60.3373
 21
70.7681
  0
LINE
  8
0
 10
-60.3373
 20
70.7681
 11
-60.113
 21
70.7964
  0
LINE
  8
0
 10
-60.113
 20
70.7964
 11
-59.887
 21
70.7964
  0
LINE
  8
0
 10
-59.887
 20
70.7964
 11
-59.6627
 21
70.7681
  0
LINE
  8
0
 10
-59.6627
 20
70.7681
 11
-59.4438
 21
70.7119
  0
LINE
  8
0
 10
-59.4438
 20
70.7119
 11
-59.2336
 21
70.6287
  0
LINE
  8
0
 10
-59.2336
 20
70.6287
 11
-59.0355
 21
70.5198
  0
LINE
  8
0
 10
-59.0355
 20
70.5198
 11
-58.8526
 21
70.3869
  0
LINE
  8
0
 10
-58.8526
 20
70.3869
 11
-58.6879
 21
70.2322
  0
LINE
  8
0
 10
-58.6879
 20
70.2322
 11
-58.5438
 21
70.058
  0
LINE
  8
0
 10
-58.5438
 20
70.058
 11
-58.4226
 21
69.8672
  0
LINE
  8
0
 10
-58.4226
 20
69.8672
 11
-58.3264
 21
69.6626
  0
LINE
  8
0
 10
-58.3264
 20
69.6626
 11
-58.2565
 21
69.4476
  0
LINE
  8
0
 10
-58.2565
 20
69.4476
 11
-58.2142
 21
69.2256
  0
LINE
  8
0
 10
-58.2142
 20
69.2256
 11
-58.2
 21
69
  0
LINE
  8
0
 10
-58.2
 20
69
 11
-58.2142
 21
68.7744
  0
LINE
  8
0
 10
-58.2142
 20
68.7744
 11
-58.2565
 21
68.5524
  0
LINE
  8
0
 10
-58.2565
 20
68.5524
 11
-58.3264
 21
68.3374
  0
LINE
  8
0
 10
-58.3264
 20
68.3374
 11
-58.4226
 21
68.1328
  0
LINE
  8
0
 10
-58.4226
 20
68.1328
 11
-58.5438
 21
67.942
  0
LINE
  8
0
 10
-58.5438
 20
67.942
 11
-58.6879
 21
67.7678
  0
LINE
  8
0
 10
-58.6879
 20
67.7678
 11
-58.8526
 21
67.6131
  0
LINE
  8
0
 10
-58.8526
 20
67.6131
 11
-59.0355
 21
67.4802
  0
LINE
  8
0
 10
-59.0355
 20
67.4802
 11
-59.2336
 21
67.3713
  0
LINE
  8
0
 10
-59.2336
 20
67.3713
 11
-59.4438
 21
67.2881
  0
LINE
  8
0
 10
-59.4438
 20
67.2881
 11
-59.6627
 21
67.2319
  0
LINE
  8
0
 10
-59.6627
 20
67.2319
 11
-59.887
 21
67.2036
  0
LINE
  8
0
 10
-59.887
 20
67.2036
 11
-60.113
 21
67.2036
  0
ENDSEC
  0
SECTION
  2
OBJECTS
  0
DICTIONARY
  0
ENDSEC
  0
EOF
