  0
SECTION
  2
BLOCKS
  0
ENDSEC
  0
SECTION
  2
ENTITIES
  0
LINE
  8
0
 10
25.4369
 20
-21.9114
 11
26.0451
 21
-21.7553
  0
LINE
  8
0
 10
26.0451
 20
-21.7553
 11
26.6289
 21
-21.5241
  0
LINE
  8
0
 10
26.6289
 20
-21.5241
 11
27.1791
 21
-21.2216
  0
LINE
  8
0
 10
27.1791
 20
-21.2216
 11
27.6871
 21
-20.8526
  0
LINE
  8
0
 10
27.6871
 20
-20.8526
 11
28.1448
 21
-20.4227
  0
LINE
  8
0
 10
28.1448
 20
-20.4227
 11
28.5451
 21
-19.9389
  0
LINE
  8
0
 10
28.5451
 20
-19.9389
 11
28.8815
 21
-19.4088
  0
LINE
  8
0
 10
28.8815
 20
-19.4088
 11
29.1489
 21
-18.8406
  0
LINE
  8
0
 10
29.1489
 20
-18.8406
 11
29.3429
 21
-18.2434
  0
LINE
  8
0
 10
29.3429
 20
-18.2434
 11
29.4606
 21
-17.6267
  0
LINE
  8
0
 10
29.4606
 20
-17.6267
 11
29.5
 21
-17
  0
LINE
  8
0
 10
29.5
 20
-17
 11
29.5
 21
17
  0
LINE
  8
0
 10
29.5
 20
17
 11
29.4606
 21
17.6267
  0
LINE
  8
0
 10
29.4606
 20
17.6267
 11
29.3429
 21
18.2434
  0
LINE
  8
0
 10
29.3429
 20
18.2434
 11
29.1489
 21
18.8406
  0
LINE
  8
0
 10
29.1489
 20
18.8406
 11
28.8815
 21
19.4088
  0
LINE
  8
0
 10
28.8815
 20
19.4088
 11
28.5451
 21
19.9389
  0
LINE
  8
0
 10
28.5451
 20
19.9389
 11
28.1448
 21
20.4227
  0
LINE
  8
0
 10
28.1448
 20
20.4227
 11
27.6871
 21
20.8526
  0
LINE
  8
0
 10
27.6871
 20
20.8526
 11
27.1791
 21
21.2216
  0
LINE
  8
0
 10
27.1791
 20
21.2216
 11
26.6289
 21
21.5241
  0
LINE
  8
0
 10
26.6289
 20
21.5241
 11
26.0451
 21
21.7553
  0
LINE
  8
0
 10
26.0451
 20
21.7553
 11
25.4369
 21
21.9114
  0
LINE
  8
0
 10
25.4369
 20
21.9114
 11
24.8139
 21
21.9901
  0
LINE
  8
0
 10
24.8139
 20
21.9901
 11
-24.8139
 21
21.9901
  0
LINE
  8
0
 10
-24.8139
 20
21.9901
 11
-25.4369
 21
21.9114
  0
LINE
  8
0
 10
-25.4369
 20
21.9114
 11
-26.0451
 21
21.7553
  0
LINE
  8
0
 10
-26.0451
 20
21.7553
 11
-26.6289
 21
21.5241
  0
LINE
  8
0
 10
-26.6289
 20
21.5241
 11
-27.1791
 21
21.2216
  0
LINE
  8
0
 10
-27.1791
 20
21.2216
 11
-27.6871
 21
20.8526
  0
LINE
  8
0
 10
-27.6871
 20
20.8526
 11
-28.1448
 21
20.4227
  0
LINE
  8
0
 10
-28.1448
 20
20.4227
 11
-28.5451
 21
19.9389
  0
LINE
  8
0
 10
-28.5451
 20
19.9389
 11
-28.8815
 21
19.4088
  0
LINE
  8
0
 10
-28.8815
 20
19.4088
 11
-29.1489
 21
18.8406
  0
LINE
  8
0
 10
-29.1489
 20
18.8406
 11
-29.3429
 21
18.2434
  0
LINE
  8
0
 10
-29.3429
 20
18.2434
 11
-29.4606
 21
17.6267
  0
LINE
  8
0
 10
-29.4606
 20
17.6267
 11
-29.5
 21
17
  0
LINE
  8
0
 10
-29.5
 20
17
 11
-29.5
 21
-17
  0
LINE
  8
0
 10
-29.5
 20
-17
 11
-29.4606
 21
-17.6267
  0
LINE
  8
0
 10
-29.4606
 20
-17.6267
 11
-29.3429
 21
-18.2434
  0
LINE
  8
0
 10
-29.3429
 20
-18.2434
 11
-29.1489
 21
-18.8406
  0
LINE
  8
0
 10
-29.1489
 20
-18.8406
 11
-28.8815
 21
-19.4088
  0
LINE
  8
0
 10
-28.8815
 20
-19.4088
 11
-28.5451
 21
-19.9389
  0
LINE
  8
0
 10
-28.5451
 20
-19.9389
 11
-28.1448
 21
-20.4227
  0
LINE
  8
0
 10
-28.1448
 20
-20.4227
 11
-27.6871
 21
-20.8526
  0
LINE
  8
0
 10
-27.6871
 20
-20.8526
 11
-27.1791
 21
-21.2216
  0
LINE
  8
0
 10
-27.1791
 20
-21.2216
 11
-26.6289
 21
-21.5241
  0
LINE
  8
0
 10
-26.6289
 20
-21.5241
 11
-26.0451
 21
-21.7553
  0
LINE
  8
0
 10
-26.0451
 20
-21.7553
 11
-25.4369
 21
-21.9114
  0
LINE
  8
0
 10
-25.4369
 20
-21.9114
 11
-24.8139
 21
-21.9901
  0
LINE
  8
0
 10
-24.8139
 20
-21.9901
 11
24.8139
 21
-21.9901
  0
LINE
  8
0
 10
24.8139
 20
-21.9901
 11
25.4369
 21
-21.9114
  0
LINE
  8
0
 10
-18.1507
 20
14.1047
 11
-18.4497
 21
14.1425
  0
LINE
  8
0
 10
-18.4497
 20
14.1425
 11
-18.7416
 21
14.2175
  0
LINE
  8
0
 10
-18.7416
 20
14.2175
 11
-19.0219
 21
14.3284
  0
LINE
  8
0
 10
-19.0219
 20
14.3284
 11
-19.286
 21
14.4736
  0
LINE
  8
0
 10
-19.286
 20
14.4736
 11
-19.5298
 21
14.6508
  0
LINE
  8
0
 10
-19.5298
 20
14.6508
 11
-19.7495
 21
14.8571
  0
LINE
  8
0
 10
-19.7495
 20
14.8571
 11
-19.9416
 21
15.0893
  0
LINE
  8
0
 10
-19.9416
 20
15.0893
 11
-20.1031
 21
15.3438
  0
LINE
  8
0
 10
-20.1031
 20
15.3438
 11
-20.2315
 21
15.6165
  0
LINE
  8
0
 10
-20.2315
 20
15.6165
 11
-20.3246
 21
15.9031
  0
LINE
  8
0
 10
-20.3246
 20
15.9031
 11
-20.3811
 21
16.1992
  0
LINE
  8
0
 10
-20.3811
 20
16.1992
 11
-20.4
 21
16.5
  0
LINE
  8
0
 10
-20.4
 20
16.5
 11
-20.3811
 21
16.8008
  0
LINE
  8
0
 10
-20.3811
 20
16.8008
 11
-20.3246
 21
17.0968
  0
LINE
  8
0
 10
-20.3246
 20
17.0968
 11
-20.2315
 21
17.3835
  0
LINE
  8
0
 10
-20.2315
 20
17.3835
 11
-20.1031
 21
17.6562
  0
LINE
  8
0
 10
-20.1031
 20
17.6562
 11
-19.9416
 21
17.9107
  0
LINE
  8
0
 10
-19.9416
 20
17.9107
 11
-19.7495
 21
18.1429
  0
LINE
  8
0
 10
-19.7495
 20
18.1429
 11
-19.5298
 21
18.3492
  0
LINE
  8
0
 10
-19.5298
 20
18.3492
 11
-19.286
 21
18.5264
  0
LINE
  8
0
 10
-19.286
 20
18.5264
 11
-19.0219
 21
18.6716
  0
LINE
  8
0
 10
-19.0219
 20
18.6716
 11
-18.7416
 21
18.7825
  0
LINE
  8
0
 10
-18.7416
 20
18.7825
 11
-18.4497
 21
18.8575
  0
LINE
  8
0
 10
-18.4497
 20
18.8575
 11
-18.1507
 21
18.8953
  0
LINE
  8
0
 10
-18.1507
 20
18.8953
 11
-17.8493
 21
18.8953
  0
LINE
  8
0
 10
-17.8493
 20
18.8953
 11
-17.5503
 21
18.8575
  0
LINE
  8
0
 10
-17.5503
 20
18.8575
 11
-17.2583
 21
18.7825
  0
LINE
  8
0
 10
-17.2583
 20
18.7825
 11
-16.9781
 21
18.6716
  0
LINE
  8
0
 10
-16.9781
 20
18.6716
 11
-16.714
 21
18.5264
  0
LINE
  8
0
 10
-16.714
 20
18.5264
 11
-16.4702
 21
18.3492
  0
LINE
  8
0
 10
-16.4702
 20
18.3492
 11
-16.2505
 21
18.1429
  0
LINE
  8
0
 10
-16.2505
 20
18.1429
 11
-16.0583
 21
17.9107
  0
LINE
  8
0
 10
-16.0583
 20
17.9107
 11
-15.8969
 21
17.6562
  0
LINE
  8
0
 10
-15.8969
 20
17.6562
 11
-15.7685
 21
17.3835
  0
LINE
  8
0
 10
-15.7685
 20
17.3835
 11
-15.6754
 21
17.0968
  0
LINE
  8
0
 10
-15.6754
 20
17.0968
 11
-15.6189
 21
16.8008
  0
LINE
  8
0
 10
-15.6189
 20
16.8008
 11
-15.6
 21
16.5
  0
LINE
  8
0
 10
-15.6
 20
16.5
 11
-15.6189
 21
16.1992
  0
LINE
  8
0
 10
-15.6189
 20
16.1992
 11
-15.6754
 21
15.9031
  0
LINE
  8
0
 10
-15.6754
 20
15.9031
 11
-15.7685
 21
15.6165
  0
LINE
  8
0
 10
-15.7685
 20
15.6165
 11
-15.8969
 21
15.3438
  0
LINE
  8
0
 10
-15.8969
 20
15.3438
 11
-16.0583
 21
15.0893
  0
LINE
  8
0
 10
-16.0583
 20
15.0893
 11
-16.2505
 21
14.8571
  0
LINE
  8
0
 10
-16.2505
 20
14.8571
 11
-16.4702
 21
14.6508
  0
LINE
  8
0
 10
-16.4702
 20
14.6508
 11
-16.714
 21
14.4736
  0
LINE
  8
0
 10
-16.714
 20
14.4736
 11
-16.9781
 21
14.3284
  0
LINE
  8
0
 10
-16.9781
 20
14.3284
 11
-17.2583
 21
14.2175
  0
LINE
  8
0
 10
-17.2583
 20
14.2175
 11
-17.5503
 21
14.1425
  0
LINE
  8
0
 10
-17.5503
 20
14.1425
 11
-17.8493
 21
14.1047
  0
LINE
  8
0
 10
-17.8493
 20
14.1047
 11
-18.1507
 21
14.1047
  0
LINE
  8
0
 10
17.8493
 20
-3.89526
 11
17.5503
 21
-3.85748
  0
LINE
  8
0
 10
17.5503
 20
-3.85748
 11
17.2583
 21
-3.78253
  0
LINE
  8
0
 10
17.2583
 20
-3.78253
 11
16.9781
 21
-3.67157
  0
LINE
  8
0
 10
16.9781
 20
-3.67157
 11
16.714
 21
-3.52638
  0
LINE
  8
0
 10
16.714
 20
-3.52638
 11
16.4702
 21
-3.34923
  0
LINE
  8
0
 10
16.4702
 20
-3.34923
 11
16.2505
 21
-3.1429
  0
LINE
  8
0
 10
16.2505
 20
-3.1429
 11
16.0583
 21
-2.91068
  0
LINE
  8
0
 10
16.0583
 20
-2.91068
 11
15.8969
 21
-2.6562
  0
LINE
  8
0
 10
15.8969
 20
-2.6562
 11
15.7685
 21
-2.38348
  0
LINE
  8
0
 10
15.7685
 20
-2.38348
 11
15.6754
 21
-2.09685
  0
LINE
  8
0
 10
15.6754
 20
-2.09685
 11
15.6189
 21
-1.8008
  0
LINE
  8
0
 10
15.6189
 20
-1.8008
 11
15.6
 21
-1.5
  0
LINE
  8
0
 10
15.6
 20
-1.5
 11
15.6189
 21
-1.19919
  0
LINE
  8
0
 10
15.6189
 20
-1.19919
 11
15.6754
 21
-0.903137
  0
LINE
  8
0
 10
15.6754
 20
-0.903137
 11
15.7685
 21
-0.616501
  0
LINE
  8
0
 10
15.7685
 20
-0.616501
 11
15.8969
 21
-0.343781
  0
LINE
  8
0
 10
15.8969
 20
-0.343781
 11
16.0583
 21
-0.0893097
  0
LINE
  8
0
 10
16.0583
 20
-0.0893097
 11
16.2505
 21
0.142899
  0
LINE
  8
0
 10
16.2505
 20
0.142899
 11
16.4702
 21
0.349228
  0
LINE
  8
0
 10
16.4702
 20
0.349228
 11
16.714
 21
0.526382
  0
LINE
  8
0
 10
16.714
 20
0.526382
 11
16.9781
 21
0.67157
  0
LINE
  8
0
 10
16.9781
 20
0.67157
 11
17.2583
 21
0.782532
  0
LINE
  8
0
 10
17.2583
 20
0.782532
 11
17.5503
 21
0.857483
  0
LINE
  8
0
 10
17.5503
 20
0.857483
 11
17.8493
 21
0.895264
  0
LINE
  8
0
 10
17.8493
 20
0.895264
 11
18.1507
 21
0.895264
  0
LINE
  8
0
 10
18.1507
 20
0.895264
 11
18.4497
 21
0.857483
  0
LINE
  8
0
 10
18.4497
 20
0.857483
 11
18.7416
 21
0.782532
  0
LINE
  8
0
 10
18.7416
 20
0.782532
 11
19.0219
 21
0.67157
  0
LINE
  8
0
 10
19.0219
 20
0.67157
 11
19.286
 21
0.526382
  0
LINE
  8
0
 10
19.286
 20
0.526382
 11
19.5298
 21
0.349228
  0
LINE
  8
0
 10
19.5298
 20
0.349228
 11
19.7495
 21
0.142899
  0
LINE
  8
0
 10
19.7495
 20
0.142899
 11
19.9416
 21
-0.0893097
  0
LINE
  8
0
 10
19.9416
 20
-0.0893097
 11
20.1031
 21
-0.343781
  0
LINE
  8
0
 10
20.1031
 20
-0.343781
 11
20.2315
 21
-0.616501
  0
LINE
  8
0
 10
20.2315
 20
-0.616501
 11
20.3246
 21
-0.903137
  0
LINE
  8
0
 10
20.3246
 20
-0.903137
 11
20.3811
 21
-1.19919
  0
LINE
  8
0
 10
20.3811
 20
-1.19919
 11
20.4
 21
-1.5
  0
LINE
  8
0
 10
20.4
 20
-1.5
 11
20.3811
 21
-1.8008
  0
LINE
  8
0
 10
20.3811
 20
-1.8008
 11
20.3246
 21
-2.09685
  0
LINE
  8
0
 10
20.3246
 20
-2.09685
 11
20.2315
 21
-2.38348
  0
LINE
  8
0
 10
20.2315
 20
-2.38348
 11
20.1031
 21
-2.6562
  0
LINE
  8
0
 10
20.1031
 20
-2.6562
 11
19.9416
 21
-2.91068
  0
LINE
  8
0
 10
19.9416
 20
-2.91068
 11
19.7495
 21
-3.1429
  0
LINE
  8
0
 10
19.7495
 20
-3.1429
 11
19.5298
 21
-3.34923
  0
LINE
  8
0
 10
19.5298
 20
-3.34923
 11
19.286
 21
-3.52638
  0
LINE
  8
0
 10
19.286
 20
-3.52638
 11
19.0219
 21
-3.67157
  0
LINE
  8
0
 10
19.0219
 20
-3.67157
 11
18.7416
 21
-3.78253
  0
LINE
  8
0
 10
18.7416
 20
-3.78253
 11
18.4497
 21
-3.85748
  0
LINE
  8
0
 10
18.4497
 20
-3.85748
 11
18.1507
 21
-3.89526
  0
LINE
  8
0
 10
18.1507
 20
-3.89526
 11
17.8493
 21
-3.89526
  0
LINE
  8
0
 10
22.3116
 20
-17.9941
 11
21.9379
 21
-17.9469
  0
LINE
  8
0
 10
21.9379
 20
-17.9469
 11
21.5729
 21
-17.8532
  0
LINE
  8
0
 10
21.5729
 20
-17.8532
 11
21.2227
 21
-17.7145
  0
LINE
  8
0
 10
21.2227
 20
-17.7145
 11
20.8925
 21
-17.533
  0
LINE
  8
0
 10
20.8925
 20
-17.533
 11
20.5877
 21
-17.3115
  0
LINE
  8
0
 10
20.5877
 20
-17.3115
 11
20.3131
 21
-17.0536
  0
LINE
  8
0
 10
20.3131
 20
-17.0536
 11
20.0729
 21
-16.7634
  0
LINE
  8
0
 10
20.0729
 20
-16.7634
 11
19.8711
 21
-16.4453
  0
LINE
  8
0
 10
19.8711
 20
-16.4453
 11
19.7107
 21
-16.1044
  0
LINE
  8
0
 10
19.7107
 20
-16.1044
 11
19.5942
 21
-15.7461
  0
LINE
  8
0
 10
19.5942
 20
-15.7461
 11
19.5237
 21
-15.376
  0
LINE
  8
0
 10
19.5237
 20
-15.376
 11
19.5
 21
-15
  0
LINE
  8
0
 10
19.5
 20
-15
 11
19.5237
 21
-14.624
  0
LINE
  8
0
 10
19.5237
 20
-14.624
 11
19.5942
 21
-14.2539
  0
LINE
  8
0
 10
19.5942
 20
-14.2539
 11
19.7107
 21
-13.8956
  0
LINE
  8
0
 10
19.7107
 20
-13.8956
 11
19.8711
 21
-13.5547
  0
LINE
  8
0
 10
19.8711
 20
-13.5547
 11
20.0729
 21
-13.2366
  0
LINE
  8
0
 10
20.0729
 20
-13.2366
 11
20.3131
 21
-12.9464
  0
LINE
  8
0
 10
20.3131
 20
-12.9464
 11
20.5877
 21
-12.6884
  0
LINE
  8
0
 10
20.5877
 20
-12.6884
 11
20.8925
 21
-12.467
  0
LINE
  8
0
 10
20.8925
 20
-12.467
 11
21.2227
 21
-12.2855
  0
LINE
  8
0
 10
21.2227
 20
-12.2855
 11
21.5729
 21
-12.1468
  0
LINE
  8
0
 10
21.5729
 20
-12.1468
 11
21.9379
 21
-12.0531
  0
LINE
  8
0
 10
21.9379
 20
-12.0531
 11
22.3116
 21
-12.0059
  0
LINE
  8
0
 10
22.3116
 20
-12.0059
 11
22.6884
 21
-12.0059
  0
LINE
  8
0
 10
22.6884
 20
-12.0059
 11
23.0621
 21
-12.0531
  0
LINE
  8
0
 10
23.0621
 20
-12.0531
 11
23.427
 21
-12.1468
  0
LINE
  8
0
 10
23.427
 20
-12.1468
 11
23.7773
 21
-12.2855
  0
LINE
  8
0
 10
23.7773
 20
-12.2855
 11
24.1075
 21
-12.467
  0
LINE
  8
0
 10
24.1075
 20
-12.467
 11
24.4123
 21
-12.6884
  0
LINE
  8
0
 10
24.4123
 20
-12.6884
 11
24.6869
 21
-12.9464
  0
LINE
  8
0
 10
24.6869
 20
-12.9464
 11
24.927
 21
-13.2366
  0
LINE
  8
0
 10
24.927
 20
-13.2366
 11
25.1289
 21
-13.5547
  0
LINE
  8
0
 10
25.1289
 20
-13.5547
 11
25.2893
 21
-13.8956
  0
LINE
  8
0
 10
25.2893
 20
-13.8956
 11
25.4057
 21
-14.2539
  0
LINE
  8
0
 10
25.4057
 20
-14.2539
 11
25.4763
 21
-14.624
  0
LINE
  8
0
 10
25.4763
 20
-14.624
 11
25.5
 21
-15
  0
LINE
  8
0
 10
25.5
 20
-15
 11
25.4763
 21
-15.376
  0
LINE
  8
0
 10
25.4763
 20
-15.376
 11
25.4057
 21
-15.7461
  0
LINE
  8
0
 10
25.4057
 20
-15.7461
 11
25.2893
 21
-16.1044
  0
LINE
  8
0
 10
25.2893
 20
-16.1044
 11
25.1289
 21
-16.4453
  0
LINE
  8
0
 10
25.1289
 20
-16.4453
 11
24.927
 21
-16.7634
  0
LINE
  8
0
 10
24.927
 20
-16.7634
 11
24.6869
 21
-17.0536
  0
LINE
  8
0
 10
24.6869
 20
-17.0536
 11
24.4123
 21
-17.3115
  0
LINE
  8
0
 10
24.4123
 20
-17.3115
 11
24.1075
 21
-17.533
  0
LINE
  8
0
 10
24.1075
 20
-17.533
 11
23.7773
 21
-17.7145
  0
LINE
  8
0
 10
23.7773
 20
-17.7145
 11
23.427
 21
-17.8532
  0
LINE
  8
0
 10
23.427
 20
-17.8532
 11
23.0621
 21
-17.9469
  0
LINE
  8
0
 10
23.0621
 20
-17.9469
 11
22.6884
 21
-17.9941
  0
LINE
  8
0
 10
22.6884
 20
-17.9941
 11
22.3116
 21
-17.9941
  0
LINE
  8
0
 10
7.31161
 20
-17.9941
 11
6.93785
 21
-17.9469
  0
LINE
  8
0
 10
6.93785
 20
-17.9469
 11
6.57294
 21
-17.8532
  0
LINE
  8
0
 10
6.57294
 20
-17.8532
 11
6.22266
 21
-17.7145
  0
LINE
  8
0
 10
6.22266
 20
-17.7145
 11
5.89252
 21
-17.533
  0
LINE
  8
0
 10
5.89252
 20
-17.533
 11
5.58772
 21
-17.3115
  0
LINE
  8
0
 10
5.58772
 20
-17.3115
 11
5.31308
 21
-17.0536
  0
LINE
  8
0
 10
5.31308
 20
-17.0536
 11
5.07294
 21
-16.7634
  0
LINE
  8
0
 10
5.07294
 20
-16.7634
 11
4.87108
 21
-16.4453
  0
LINE
  8
0
 10
4.87108
 20
-16.4453
 11
4.71066
 21
-16.1044
  0
LINE
  8
0
 10
4.71066
 20
-16.1044
 11
4.59424
 21
-15.7461
  0
LINE
  8
0
 10
4.59424
 20
-15.7461
 11
4.52365
 21
-15.376
  0
LINE
  8
0
 10
4.52365
 20
-15.376
 11
4.5
 21
-15
  0
LINE
  8
0
 10
4.5
 20
-15
 11
4.52365
 21
-14.624
  0
LINE
  8
0
 10
4.52365
 20
-14.624
 11
4.59424
 21
-14.2539
  0
LINE
  8
0
 10
4.59424
 20
-14.2539
 11
4.71066
 21
-13.8956
  0
LINE
  8
0
 10
4.71066
 20
-13.8956
 11
4.87108
 21
-13.5547
  0
LINE
  8
0
 10
4.87108
 20
-13.5547
 11
5.07294
 21
-13.2366
  0
LINE
  8
0
 10
5.07294
 20
-13.2366
 11
5.31308
 21
-12.9464
  0
LINE
  8
0
 10
5.31308
 20
-12.9464
 11
5.58772
 21
-12.6884
  0
LINE
  8
0
 10
5.58772
 20
-12.6884
 11
5.89252
 21
-12.467
  0
LINE
  8
0
 10
5.89252
 20
-12.467
 11
6.22266
 21
-12.2855
  0
LINE
  8
0
 10
6.22266
 20
-12.2855
 11
6.57294
 21
-12.1468
  0
LINE
  8
0
 10
6.57294
 20
-12.1468
 11
6.93785
 21
-12.0531
  0
LINE
  8
0
 10
6.93785
 20
-12.0531
 11
7.31161
 21
-12.0059
  0
LINE
  8
0
 10
7.31161
 20
-12.0059
 11
7.68837
 21
-12.0059
  0
LINE
  8
0
 10
7.68837
 20
-12.0059
 11
8.06213
 21
-12.0531
  0
LINE
  8
0
 10
8.06213
 20
-12.0531
 11
8.42705
 21
-12.1468
  0
LINE
  8
0
 10
8.42705
 20
-12.1468
 11
8.77733
 21
-12.2855
  0
LINE
  8
0
 10
8.77733
 20
-12.2855
 11
9.10747
 21
-12.467
  0
LINE
  8
0
 10
9.10747
 20
-12.467
 11
9.41226
 21
-12.6884
  0
LINE
  8
0
 10
9.41226
 20
-12.6884
 11
9.6869
 21
-12.9464
  0
LINE
  8
0
 10
9.6869
 20
-12.9464
 11
9.92705
 21
-13.2366
  0
LINE
  8
0
 10
9.92705
 20
-13.2366
 11
10.1289
 21
-13.5547
  0
LINE
  8
0
 10
10.1289
 20
-13.5547
 11
10.2893
 21
-13.8956
  0
LINE
  8
0
 10
10.2893
 20
-13.8956
 11
10.4057
 21
-14.2539
  0
LINE
  8
0
 10
10.4057
 20
-14.2539
 11
10.4763
 21
-14.624
  0
LINE
  8
0
 10
10.4763
 20
-14.624
 11
10.5
 21
-15
  0
LINE
  8
0
 10
10.5
 20
-15
 11
10.4763
 21
-15.376
  0
LINE
  8
0
 10
10.4763
 20
-15.376
 11
10.4057
 21
-15.7461
  0
LINE
  8
0
 10
10.4057
 20
-15.7461
 11
10.2893
 21
-16.1044
  0
LINE
  8
0
 10
10.2893
 20
-16.1044
 11
10.1289
 21
-16.4453
  0
LINE
  8
0
 10
10.1289
 20
-16.4453
 11
9.92705
 21
-16.7634
  0
LINE
  8
0
 10
9.92705
 20
-16.7634
 11
9.6869
 21
-17.0536
  0
LINE
  8
0
 10
9.6869
 20
-17.0536
 11
9.41226
 21
-17.3115
  0
LINE
  8
0
 10
9.41226
 20
-17.3115
 11
9.10747
 21
-17.533
  0
LINE
  8
0
 10
9.10747
 20
-17.533
 11
8.77733
 21
-17.7145
  0
LINE
  8
0
 10
8.77733
 20
-17.7145
 11
8.42705
 21
-17.8532
  0
LINE
  8
0
 10
8.42705
 20
-17.8532
 11
8.06213
 21
-17.9469
  0
LINE
  8
0
 10
8.06213
 20
-17.9469
 11
7.68837
 21
-17.9941
  0
LINE
  8
0
 10
7.68837
 20
-17.9941
 11
7.31161
 21
-17.9941
  0
LINE
  8
0
 10
-7.68837
 20
-17.9941
 11
-8.06213
 21
-17.9469
  0
LINE
  8
0
 10
-8.06213
 20
-17.9469
 11
-8.42705
 21
-17.8532
  0
LINE
  8
0
 10
-8.42705
 20
-17.8532
 11
-8.77733
 21
-17.7145
  0
LINE
  8
0
 10
-8.77733
 20
-17.7145
 11
-9.10747
 21
-17.533
  0
LINE
  8
0
 10
-9.10747
 20
-17.533
 11
-9.41226
 21
-17.3115
  0
LINE
  8
0
 10
-9.41226
 20
-17.3115
 11
-9.6869
 21
-17.0536
  0
LINE
  8
0
 10
-9.6869
 20
-17.0536
 11
-9.92705
 21
-16.7634
  0
LINE
  8
0
 10
-9.92705
 20
-16.7634
 11
-10.1289
 21
-16.4453
  0
LINE
  8
0
 10
-10.1289
 20
-16.4453
 11
-10.2893
 21
-16.1044
  0
LINE
  8
0
 10
-10.2893
 20
-16.1044
 11
-10.4057
 21
-15.7461
  0
LINE
  8
0
 10
-10.4057
 20
-15.7461
 11
-10.4763
 21
-15.376
  0
LINE
  8
0
 10
-10.4763
 20
-15.376
 11
-10.5
 21
-15
  0
LINE
  8
0
 10
-10.5
 20
-15
 11
-10.4763
 21
-14.624
  0
LINE
  8
0
 10
-10.4763
 20
-14.624
 11
-10.4057
 21
-14.2539
  0
LINE
  8
0
 10
-10.4057
 20
-14.2539
 11
-10.2893
 21
-13.8956
  0
LINE
  8
0
 10
-10.2893
 20
-13.8956
 11
-10.1289
 21
-13.5547
  0
LINE
  8
0
 10
-10.1289
 20
-13.5547
 11
-9.92705
 21
-13.2366
  0
LINE
  8
0
 10
-9.92705
 20
-13.2366
 11
-9.6869
 21
-12.9464
  0
LINE
  8
0
 10
-9.6869
 20
-12.9464
 11
-9.41226
 21
-12.6884
  0
LINE
  8
0
 10
-9.41226
 20
-12.6884
 11
-9.10747
 21
-12.467
  0
LINE
  8
0
 10
-9.10747
 20
-12.467
 11
-8.77733
 21
-12.2855
  0
LINE
  8
0
 10
-8.77733
 20
-12.2855
 11
-8.42705
 21
-12.1468
  0
LINE
  8
0
 10
-8.42705
 20
-12.1468
 11
-8.06213
 21
-12.0531
  0
LINE
  8
0
 10
-8.06213
 20
-12.0531
 11
-7.68837
 21
-12.0059
  0
LINE
  8
0
 10
-7.68837
 20
-12.0059
 11
-7.31161
 21
-12.0059
  0
LINE
  8
0
 10
-7.31161
 20
-12.0059
 11
-6.93785
 21
-12.0531
  0
LINE
  8
0
 10
-6.93785
 20
-12.0531
 11
-6.57294
 21
-12.1468
  0
LINE
  8
0
 10
-6.57294
 20
-12.1468
 11
-6.22266
 21
-12.2855
  0
LINE
  8
0
 10
-6.22266
 20
-12.2855
 11
-5.89252
 21
-12.467
  0
LINE
  8
0
 10
-5.89252
 20
-12.467
 11
-5.58772
 21
-12.6884
  0
LINE
  8
0
 10
-5.58772
 20
-12.6884
 11
-5.31308
 21
-12.9464
  0
LINE
  8
0
 10
-5.31308
 20
-12.9464
 11
-5.07294
 21
-13.2366
  0
LINE
  8
0
 10
-5.07294
 20
-13.2366
 11
-4.87108
 21
-13.5547
  0
LINE
  8
0
 10
-4.87108
 20
-13.5547
 11
-4.71066
 21
-13.8956
  0
LINE
  8
0
 10
-4.71066
 20
-13.8956
 11
-4.59424
 21
-14.2539
  0
LINE
  8
0
 10
-4.59424
 20
-14.2539
 11
-4.52365
 21
-14.624
  0
LINE
  8
0
 10
-4.52365
 20
-14.624
 11
-4.5
 21
-15
  0
LINE
  8
0
 10
-4.5
 20
-15
 11
-4.52365
 21
-15.376
  0
LINE
  8
0
 10
-4.52365
 20
-15.376
 11
-4.59424
 21
-15.7461
  0
LINE
  8
0
 10
-4.59424
 20
-15.7461
 11
-4.71066
 21
-16.1044
  0
LINE
  8
0
 10
-4.71066
 20
-16.1044
 11
-4.87108
 21
-16.4453
  0
LINE
  8
0
 10
-4.87108
 20
-16.4453
 11
-5.07294
 21
-16.7634
  0
LINE
  8
0
 10
-5.07294
 20
-16.7634
 11
-5.31308
 21
-17.0536
  0
LINE
  8
0
 10
-5.31308
 20
-17.0536
 11
-5.58772
 21
-17.3115
  0
LINE
  8
0
 10
-5.58772
 20
-17.3115
 11
-5.89252
 21
-17.533
  0
LINE
  8
0
 10
-5.89252
 20
-17.533
 11
-6.22266
 21
-17.7145
  0
LINE
  8
0
 10
-6.22266
 20
-17.7145
 11
-6.57294
 21
-17.8532
  0
LINE
  8
0
 10
-6.57294
 20
-17.8532
 11
-6.93785
 21
-17.9469
  0
LINE
  8
0
 10
-6.93785
 20
-17.9469
 11
-7.31161
 21
-17.9941
  0
LINE
  8
0
 10
-7.31161
 20
-17.9941
 11
-7.68837
 21
-17.9941
  0
LINE
  8
0
 10
-22.6884
 20
-17.9941
 11
-23.0621
 21
-17.9469
  0
LINE
  8
0
 10
-23.0621
 20
-17.9469
 11
-23.427
 21
-17.8532
  0
LINE
  8
0
 10
-23.427
 20
-17.8532
 11
-23.7773
 21
-17.7145
  0
LINE
  8
0
 10
-23.7773
 20
-17.7145
 11
-24.1075
 21
-17.533
  0
LINE
  8
0
 10
-24.1075
 20
-17.533
 11
-24.4123
 21
-17.3115
  0
LINE
  8
0
 10
-24.4123
 20
-17.3115
 11
-24.6869
 21
-17.0536
  0
LINE
  8
0
 10
-24.6869
 20
-17.0536
 11
-24.927
 21
-16.7634
  0
LINE
  8
0
 10
-24.927
 20
-16.7634
 11
-25.1289
 21
-16.4453
  0
LINE
  8
0
 10
-25.1289
 20
-16.4453
 11
-25.2893
 21
-16.1044
  0
LINE
  8
0
 10
-25.2893
 20
-16.1044
 11
-25.4057
 21
-15.7461
  0
LINE
  8
0
 10
-25.4057
 20
-15.7461
 11
-25.4763
 21
-15.376
  0
LINE
  8
0
 10
-25.4763
 20
-15.376
 11
-25.5
 21
-15
  0
LINE
  8
0
 10
-25.5
 20
-15
 11
-25.4763
 21
-14.624
  0
LINE
  8
0
 10
-25.4763
 20
-14.624
 11
-25.4057
 21
-14.2539
  0
LINE
  8
0
 10
-25.4057
 20
-14.2539
 11
-25.2893
 21
-13.8956
  0
LINE
  8
0
 10
-25.2893
 20
-13.8956
 11
-25.1289
 21
-13.5547
  0
LINE
  8
0
 10
-25.1289
 20
-13.5547
 11
-24.927
 21
-13.2366
  0
LINE
  8
0
 10
-24.927
 20
-13.2366
 11
-24.6869
 21
-12.9464
  0
LINE
  8
0
 10
-24.6869
 20
-12.9464
 11
-24.4123
 21
-12.6884
  0
LINE
  8
0
 10
-24.4123
 20
-12.6884
 11
-24.1075
 21
-12.467
  0
LINE
  8
0
 10
-24.1075
 20
-12.467
 11
-23.7773
 21
-12.2855
  0
LINE
  8
0
 10
-23.7773
 20
-12.2855
 11
-23.427
 21
-12.1468
  0
LINE
  8
0
 10
-23.427
 20
-12.1468
 11
-23.0621
 21
-12.0531
  0
LINE
  8
0
 10
-23.0621
 20
-12.0531
 11
-22.6884
 21
-12.0059
  0
LINE
  8
0
 10
-22.6884
 20
-12.0059
 11
-22.3116
 21
-12.0059
  0
LINE
  8
0
 10
-22.3116
 20
-12.0059
 11
-21.9379
 21
-12.0531
  0
LINE
  8
0
 10
-21.9379
 20
-12.0531
 11
-21.5729
 21
-12.1468
  0
LINE
  8
0
 10
-21.5729
 20
-12.1468
 11
-21.2227
 21
-12.2855
  0
LINE
  8
0
 10
-21.2227
 20
-12.2855
 11
-20.8925
 21
-12.467
  0
LINE
  8
0
 10
-20.8925
 20
-12.467
 11
-20.5877
 21
-12.6884
  0
LINE
  8
0
 10
-20.5877
 20
-12.6884
 11
-20.3131
 21
-12.9464
  0
LINE
  8
0
 10
-20.3131
 20
-12.9464
 11
-20.0729
 21
-13.2366
  0
LINE
  8
0
 10
-20.0729
 20
-13.2366
 11
-19.8711
 21
-13.5547
  0
LINE
  8
0
 10
-19.8711
 20
-13.5547
 11
-19.7107
 21
-13.8956
  0
LINE
  8
0
 10
-19.7107
 20
-13.8956
 11
-19.5942
 21
-14.2539
  0
LINE
  8
0
 10
-19.5942
 20
-14.2539
 11
-19.5237
 21
-14.624
  0
LINE
  8
0
 10
-19.5237
 20
-14.624
 11
-19.5
 21
-15
  0
LINE
  8
0
 10
-19.5
 20
-15
 11
-19.5237
 21
-15.376
  0
LINE
  8
0
 10
-19.5237
 20
-15.376
 11
-19.5942
 21
-15.7461
  0
LINE
  8
0
 10
-19.5942
 20
-15.7461
 11
-19.7107
 21
-16.1044
  0
LINE
  8
0
 10
-19.7107
 20
-16.1044
 11
-19.8711
 21
-16.4453
  0
LINE
  8
0
 10
-19.8711
 20
-16.4453
 11
-20.0729
 21
-16.7634
  0
LINE
  8
0
 10
-20.0729
 20
-16.7634
 11
-20.3131
 21
-17.0536
  0
LINE
  8
0
 10
-20.3131
 20
-17.0536
 11
-20.5877
 21
-17.3115
  0
LINE
  8
0
 10
-20.5877
 20
-17.3115
 11
-20.8925
 21
-17.533
  0
LINE
  8
0
 10
-20.8925
 20
-17.533
 11
-21.2227
 21
-17.7145
  0
LINE
  8
0
 10
-21.2227
 20
-17.7145
 11
-21.5729
 21
-17.8532
  0
LINE
  8
0
 10
-21.5729
 20
-17.8532
 11
-21.9379
 21
-17.9469
  0
LINE
  8
0
 10
-21.9379
 20
-17.9469
 11
-22.3116
 21
-17.9941
  0
LINE
  8
0
 10
-22.3116
 20
-17.9941
 11
-22.6884
 21
-17.9941
  0
LINE
  8
0
 10
-0.0941772
 20
-16.497
 11
-0.281067
 21
-16.4734
  0
LINE
  8
0
 10
-0.281067
 20
-16.4734
 11
-0.463516
 21
-16.4266
  0
LINE
  8
0
 10
-0.463516
 20
-16.4266
 11
-0.638657
 21
-16.3572
  0
LINE
  8
0
 10
-0.638657
 20
-16.3572
 11
-0.803726
 21
-16.2665
  0
LINE
  8
0
 10
-0.803726
 20
-16.2665
 11
-0.956131
 21
-16.1558
  0
LINE
  8
0
 10
-0.956131
 20
-16.1558
 11
-1.09344
 21
-16.0268
  0
LINE
  8
0
 10
-1.09344
 20
-16.0268
 11
-1.21352
 21
-15.8817
  0
LINE
  8
0
 10
-1.21352
 20
-15.8817
 11
-1.31445
 21
-15.7226
  0
LINE
  8
0
 10
-1.31445
 20
-15.7226
 11
-1.39465
 21
-15.5522
  0
LINE
  8
0
 10
-1.39465
 20
-15.5522
 11
-1.45287
 21
-15.373
  0
LINE
  8
0
 10
-1.45287
 20
-15.373
 11
-1.48816
 21
-15.188
  0
LINE
  8
0
 10
-1.48816
 20
-15.188
 11
-1.5
 21
-15
  0
LINE
  8
0
 10
-1.5
 20
-15
 11
-1.48816
 21
-14.812
  0
LINE
  8
0
 10
-1.48816
 20
-14.812
 11
-1.45287
 21
-14.627
  0
LINE
  8
0
 10
-1.45287
 20
-14.627
 11
-1.39465
 21
-14.4478
  0
LINE
  8
0
 10
-1.39465
 20
-14.4478
 11
-1.31445
 21
-14.2774
  0
LINE
  8
0
 10
-1.31445
 20
-14.2774
 11
-1.21352
 21
-14.1183
  0
LINE
  8
0
 10
-1.21352
 20
-14.1183
 11
-1.09344
 21
-13.9732
  0
LINE
  8
0
 10
-1.09344
 20
-13.9732
 11
-0.956131
 21
-13.8442
  0
LINE
  8
0
 10
-0.956131
 20
-13.8442
 11
-0.803726
 21
-13.7335
  0
LINE
  8
0
 10
-0.803726
 20
-13.7335
 11
-0.638657
 21
-13.6427
  0
LINE
  8
0
 10
-0.638657
 20
-13.6427
 11
-0.463516
 21
-13.5734
  0
LINE
  8
0
 10
-0.463516
 20
-13.5734
 11
-0.281067
 21
-13.5266
  0
LINE
  8
0
 10
-0.281067
 20
-13.5266
 11
-0.0941772
 21
-13.5029
  0
LINE
  8
0
 10
-0.0941772
 20
-13.5029
 11
0.0941772
 21
-13.5029
  0
LINE
  8
0
 10
0.0941772
 20
-13.5029
 11
0.281067
 21
-13.5266
  0
LINE
  8
0
 10
0.281067
 20
-13.5266
 11
0.463516
 21
-13.5734
  0
LINE
  8
0
 10
0.463516
 20
-13.5734
 11
0.638657
 21
-13.6427
  0
LINE
  8
0
 10
0.638657
 20
-13.6427
 11
0.803726
 21
-13.7335
  0
LINE
  8
0
 10
0.803726
 20
-13.7335
 11
0.956131
 21
-13.8442
  0
LINE
  8
0
 10
0.956131
 20
-13.8442
 11
1.09344
 21
-13.9732
  0
LINE
  8
0
 10
1.09344
 20
-13.9732
 11
1.21352
 21
-14.1183
  0
LINE
  8
0
 10
1.21352
 20
-14.1183
 11
1.31445
 21
-14.2774
  0
LINE
  8
0
 10
1.31445
 20
-14.2774
 11
1.39465
 21
-14.4478
  0
LINE
  8
0
 10
1.39465
 20
-14.4478
 11
1.45287
 21
-14.627
  0
LINE
  8
0
 10
1.45287
 20
-14.627
 11
1.48816
 21
-14.812
  0
LINE
  8
0
 10
1.48816
 20
-14.812
 11
1.5
 21
-15
  0
LINE
  8
0
 10
1.5
 20
-15
 11
1.48816
 21
-15.188
  0
LINE
  8
0
 10
1.48816
 20
-15.188
 11
1.45287
 21
-15.373
  0
LINE
  8
0
 10
1.45287
 20
-15.373
 11
1.39465
 21
-15.5522
  0
LINE
  8
0
 10
1.39465
 20
-15.5522
 11
1.31445
 21
-15.7226
  0
LINE
  8
0
 10
1.31445
 20
-15.7226
 11
1.21352
 21
-15.8817
  0
LINE
  8
0
 10
1.21352
 20
-15.8817
 11
1.09344
 21
-16.0268
  0
LINE
  8
0
 10
1.09344
 20
-16.0268
 11
0.956131
 21
-16.1558
  0
LINE
  8
0
 10
0.956131
 20
-16.1558
 11
0.803726
 21
-16.2665
  0
LINE
  8
0
 10
0.803726
 20
-16.2665
 11
0.638657
 21
-16.3572
  0
LINE
  8
0
 10
0.638657
 20
-16.3572
 11
0.463516
 21
-16.4266
  0
LINE
  8
0
 10
0.463516
 20
-16.4266
 11
0.281067
 21
-16.4734
  0
LINE
  8
0
 10
0.281067
 20
-16.4734
 11
0.0941772
 21
-16.497
  0
LINE
  8
0
 10
0.0941772
 20
-16.497
 11
-0.0941772
 21
-16.497
  0
LINE
  8
0
 10
14.9058
 20
-16.497
 11
14.7189
 21
-16.4734
  0
LINE
  8
0
 10
14.7189
 20
-16.4734
 11
14.5365
 21
-16.4266
  0
LINE
  8
0
 10
14.5365
 20
-16.4266
 11
14.3613
 21
-16.3572
  0
LINE
  8
0
 10
14.3613
 20
-16.3572
 11
14.1963
 21
-16.2665
  0
LINE
  8
0
 10
14.1963
 20
-16.2665
 11
14.0439
 21
-16.1558
  0
LINE
  8
0
 10
14.0439
 20
-16.1558
 11
13.9065
 21
-16.0268
  0
LINE
  8
0
 10
13.9065
 20
-16.0268
 11
13.7865
 21
-15.8817
  0
LINE
  8
0
 10
13.7865
 20
-15.8817
 11
13.6855
 21
-15.7226
  0
LINE
  8
0
 10
13.6855
 20
-15.7226
 11
13.6053
 21
-15.5522
  0
LINE
  8
0
 10
13.6053
 20
-15.5522
 11
13.5471
 21
-15.373
  0
LINE
  8
0
 10
13.5471
 20
-15.373
 11
13.5118
 21
-15.188
  0
LINE
  8
0
 10
13.5118
 20
-15.188
 11
13.5
 21
-15
  0
LINE
  8
0
 10
13.5
 20
-15
 11
13.5118
 21
-14.812
  0
LINE
  8
0
 10
13.5118
 20
-14.812
 11
13.5471
 21
-14.627
  0
LINE
  8
0
 10
13.5471
 20
-14.627
 11
13.6053
 21
-14.4478
  0
LINE
  8
0
 10
13.6053
 20
-14.4478
 11
13.6855
 21
-14.2774
  0
LINE
  8
0
 10
13.6855
 20
-14.2774
 11
13.7865
 21
-14.1183
  0
LINE
  8
0
 10
13.7865
 20
-14.1183
 11
13.9065
 21
-13.9732
  0
LINE
  8
0
 10
13.9065
 20
-13.9732
 11
14.0439
 21
-13.8442
  0
LINE
  8
0
 10
14.0439
 20
-13.8442
 11
14.1963
 21
-13.7335
  0
LINE
  8
0
 10
14.1963
 20
-13.7335
 11
14.3613
 21
-13.6427
  0
LINE
  8
0
 10
14.3613
 20
-13.6427
 11
14.5365
 21
-13.5734
  0
LINE
  8
0
 10
14.5365
 20
-13.5734
 11
14.7189
 21
-13.5266
  0
LINE
  8
0
 10
14.7189
 20
-13.5266
 11
14.9058
 21
-13.5029
  0
LINE
  8
0
 10
14.9058
 20
-13.5029
 11
15.0942
 21
-13.5029
  0
LINE
  8
0
 10
15.0942
 20
-13.5029
 11
15.2811
 21
-13.5266
  0
LINE
  8
0
 10
15.2811
 20
-13.5266
 11
15.4635
 21
-13.5734
  0
LINE
  8
0
 10
15.4635
 20
-13.5734
 11
15.6387
 21
-13.6427
  0
LINE
  8
0
 10
15.6387
 20
-13.6427
 11
15.8037
 21
-13.7335
  0
LINE
  8
0
 10
15.8037
 20
-13.7335
 11
15.9561
 21
-13.8442
  0
LINE
  8
0
 10
15.9561
 20
-13.8442
 11
16.0934
 21
-13.9732
  0
LINE
  8
0
 10
16.0934
 20
-13.9732
 11
16.2135
 21
-14.1183
  0
LINE
  8
0
 10
16.2135
 20
-14.1183
 11
16.3145
 21
-14.2774
  0
LINE
  8
0
 10
16.3145
 20
-14.2774
 11
16.3947
 21
-14.4478
  0
LINE
  8
0
 10
16.3947
 20
-14.4478
 11
16.4529
 21
-14.627
  0
LINE
  8
0
 10
16.4529
 20
-14.627
 11
16.4882
 21
-14.812
  0
LINE
  8
0
 10
16.4882
 20
-14.812
 11
16.5
 21
-15
  0
LINE
  8
0
 10
16.5
 20
-15
 11
16.4882
 21
-15.188
  0
LINE
  8
0
 10
16.4882
 20
-15.188
 11
16.4529
 21
-15.373
  0
LINE
  8
0
 10
16.4529
 20
-15.373
 11
16.3947
 21
-15.5522
  0
LINE
  8
0
 10
16.3947
 20
-15.5522
 11
16.3145
 21
-15.7226
  0
LINE
  8
0
 10
16.3145
 20
-15.7226
 11
16.2135
 21
-15.8817
  0
LINE
  8
0
 10
16.2135
 20
-15.8817
 11
16.0934
 21
-16.0268
  0
LINE
  8
0
 10
16.0934
 20
-16.0268
 11
15.9561
 21
-16.1558
  0
LINE
  8
0
 10
15.9561
 20
-16.1558
 11
15.8037
 21
-16.2665
  0
LINE
  8
0
 10
15.8037
 20
-16.2665
 11
15.6387
 21
-16.3572
  0
LINE
  8
0
 10
15.6387
 20
-16.3572
 11
15.4635
 21
-16.4266
  0
LINE
  8
0
 10
15.4635
 20
-16.4266
 11
15.2811
 21
-16.4734
  0
LINE
  8
0
 10
15.2811
 20
-16.4734
 11
15.0942
 21
-16.497
  0
LINE
  8
0
 10
15.0942
 20
-16.497
 11
14.9058
 21
-16.497
  0
LINE
  8
0
 10
-15.0942
 20
-16.497
 11
-15.2811
 21
-16.4734
  0
LINE
  8
0
 10
-15.2811
 20
-16.4734
 11
-15.4635
 21
-16.4266
  0
LINE
  8
0
 10
-15.4635
 20
-16.4266
 11
-15.6387
 21
-16.3572
  0
LINE
  8
0
 10
-15.6387
 20
-16.3572
 11
-15.8037
 21
-16.2665
  0
LINE
  8
0
 10
-15.8037
 20
-16.2665
 11
-15.9561
 21
-16.1558
  0
LINE
  8
0
 10
-15.9561
 20
-16.1558
 11
-16.0934
 21
-16.0268
  0
LINE
  8
0
 10
-16.0934
 20
-16.0268
 11
-16.2135
 21
-15.8817
  0
LINE
  8
0
 10
-16.2135
 20
-15.8817
 11
-16.3145
 21
-15.7226
  0
LINE
  8
0
 10
-16.3145
 20
-15.7226
 11
-16.3947
 21
-15.5522
  0
LINE
  8
0
 10
-16.3947
 20
-15.5522
 11
-16.4529
 21
-15.373
  0
LINE
  8
0
 10
-16.4529
 20
-15.373
 11
-16.4882
 21
-15.188
  0
LINE
  8
0
 10
-16.4882
 20
-15.188
 11
-16.5
 21
-15
  0
LINE
  8
0
 10
-16.5
 20
-15
 11
-16.4882
 21
-14.812
  0
LINE
  8
0
 10
-16.4882
 20
-14.812
 11
-16.4529
 21
-14.627
  0
LINE
  8
0
 10
-16.4529
 20
-14.627
 11
-16.3947
 21
-14.4478
  0
LINE
  8
0
 10
-16.3947
 20
-14.4478
 11
-16.3145
 21
-14.2774
  0
LINE
  8
0
 10
-16.3145
 20
-14.2774
 11
-16.2135
 21
-14.1183
  0
LINE
  8
0
 10
-16.2135
 20
-14.1183
 11
-16.0934
 21
-13.9732
  0
LINE
  8
0
 10
-16.0934
 20
-13.9732
 11
-15.9561
 21
-13.8442
  0
LINE
  8
0
 10
-15.9561
 20
-13.8442
 11
-15.8037
 21
-13.7335
  0
LINE
  8
0
 10
-15.8037
 20
-13.7335
 11
-15.6387
 21
-13.6427
  0
LINE
  8
0
 10
-15.6387
 20
-13.6427
 11
-15.4635
 21
-13.5734
  0
LINE
  8
0
 10
-15.4635
 20
-13.5734
 11
-15.2811
 21
-13.5266
  0
LINE
  8
0
 10
-15.2811
 20
-13.5266
 11
-15.0942
 21
-13.5029
  0
LINE
  8
0
 10
-15.0942
 20
-13.5029
 11
-14.9058
 21
-13.5029
  0
LINE
  8
0
 10
-14.9058
 20
-13.5029
 11
-14.7189
 21
-13.5266
  0
LINE
  8
0
 10
-14.7189
 20
-13.5266
 11
-14.5365
 21
-13.5734
  0
LINE
  8
0
 10
-14.5365
 20
-13.5734
 11
-14.3613
 21
-13.6427
  0
LINE
  8
0
 10
-14.3613
 20
-13.6427
 11
-14.1963
 21
-13.7335
  0
LINE
  8
0
 10
-14.1963
 20
-13.7335
 11
-14.0439
 21
-13.8442
  0
LINE
  8
0
 10
-14.0439
 20
-13.8442
 11
-13.9065
 21
-13.9732
  0
LINE
  8
0
 10
-13.9065
 20
-13.9732
 11
-13.7865
 21
-14.1183
  0
LINE
  8
0
 10
-13.7865
 20
-14.1183
 11
-13.6855
 21
-14.2774
  0
LINE
  8
0
 10
-13.6855
 20
-14.2774
 11
-13.6053
 21
-14.4478
  0
LINE
  8
0
 10
-13.6053
 20
-14.4478
 11
-13.5471
 21
-14.627
  0
LINE
  8
0
 10
-13.5471
 20
-14.627
 11
-13.5118
 21
-14.812
  0
LINE
  8
0
 10
-13.5118
 20
-14.812
 11
-13.5
 21
-15
  0
LINE
  8
0
 10
-13.5
 20
-15
 11
-13.5118
 21
-15.188
  0
LINE
  8
0
 10
-13.5118
 20
-15.188
 11
-13.5471
 21
-15.373
  0
LINE
  8
0
 10
-13.5471
 20
-15.373
 11
-13.6053
 21
-15.5522
  0
LINE
  8
0
 10
-13.6053
 20
-15.5522
 11
-13.6855
 21
-15.7226
  0
LINE
  8
0
 10
-13.6855
 20
-15.7226
 11
-13.7865
 21
-15.8817
  0
LINE
  8
0
 10
-13.7865
 20
-15.8817
 11
-13.9065
 21
-16.0268
  0
LINE
  8
0
 10
-13.9065
 20
-16.0268
 11
-14.0439
 21
-16.1558
  0
LINE
  8
0
 10
-14.0439
 20
-16.1558
 11
-14.1963
 21
-16.2665
  0
LINE
  8
0
 10
-14.1963
 20
-16.2665
 11
-14.3613
 21
-16.3572
  0
LINE
  8
0
 10
-14.3613
 20
-16.3572
 11
-14.5365
 21
-16.4266
  0
LINE
  8
0
 10
-14.5365
 20
-16.4266
 11
-14.7189
 21
-16.4734
  0
LINE
  8
0
 10
-14.7189
 20
-16.4734
 11
-14.9058
 21
-16.497
  0
LINE
  8
0
 10
-14.9058
 20
-16.497
 11
-15.0942
 21
-16.497
  0
ENDSEC
  0
SECTION
  2
OBJECTS
  0
DICTIONARY
  0
ENDSEC
  0
EOF
