  0
SECTION
  2
BLOCKS
  0
ENDSEC
  0
SECTION
  2
ENTITIES
  0
LINE
  8
0
 10
130.937
 20
40.5886
 11
131.545
 21
40.7447
  0
LINE
  8
0
 10
131.545
 20
40.7447
 11
132.129
 21
40.9759
  0
LINE
  8
0
 10
132.129
 20
40.9759
 11
132.679
 21
41.2784
  0
LINE
  8
0
 10
132.679
 20
41.2784
 11
133.187
 21
41.6474
  0
LINE
  8
0
 10
133.187
 20
41.6474
 11
133.645
 21
42.0773
  0
LINE
  8
0
 10
133.645
 20
42.0773
 11
134.045
 21
42.5611
  0
LINE
  8
0
 10
134.045
 20
42.5611
 11
134.382
 21
43.0912
  0
LINE
  8
0
 10
134.382
 20
43.0912
 11
134.649
 21
43.6594
  0
LINE
  8
0
 10
134.649
 20
43.6594
 11
134.843
 21
44.2566
  0
LINE
  8
0
 10
134.843
 20
44.2566
 11
134.961
 21
44.8733
  0
LINE
  8
0
 10
134.961
 20
44.8733
 11
135
 21
45.5
  0
LINE
  8
0
 10
135
 20
45.5
 11
135
 21
50.5
  0
LINE
  8
0
 10
135
 20
50.5
 11
134.961
 21
51.1267
  0
LINE
  8
0
 10
134.961
 20
51.1267
 11
134.843
 21
51.7434
  0
LINE
  8
0
 10
134.843
 20
51.7434
 11
134.649
 21
52.3406
  0
LINE
  8
0
 10
134.649
 20
52.3406
 11
134.382
 21
52.9088
  0
LINE
  8
0
 10
134.382
 20
52.9088
 11
134.045
 21
53.4389
  0
LINE
  8
0
 10
134.045
 20
53.4389
 11
133.645
 21
53.9227
  0
LINE
  8
0
 10
133.645
 20
53.9227
 11
133.187
 21
54.3526
  0
LINE
  8
0
 10
133.187
 20
54.3526
 11
132.679
 21
54.7216
  0
LINE
  8
0
 10
132.679
 20
54.7216
 11
132.129
 21
55.0241
  0
LINE
  8
0
 10
132.129
 20
55.0241
 11
131.545
 21
55.2553
  0
LINE
  8
0
 10
131.545
 20
55.2553
 11
130.937
 21
55.4114
  0
LINE
  8
0
 10
130.937
 20
55.4114
 11
130.314
 21
55.4901
  0
LINE
  8
0
 10
130.314
 20
55.4901
 11
-130.314
 21
55.4901
  0
LINE
  8
0
 10
-130.314
 20
55.4901
 11
-130.937
 21
55.4114
  0
LINE
  8
0
 10
-130.937
 20
55.4114
 11
-131.545
 21
55.2553
  0
LINE
  8
0
 10
-131.545
 20
55.2553
 11
-132.129
 21
55.0241
  0
LINE
  8
0
 10
-132.129
 20
55.0241
 11
-132.679
 21
54.7216
  0
LINE
  8
0
 10
-132.679
 20
54.7216
 11
-133.187
 21
54.3526
  0
LINE
  8
0
 10
-133.187
 20
54.3526
 11
-133.645
 21
53.9227
  0
LINE
  8
0
 10
-133.645
 20
53.9227
 11
-134.045
 21
53.4389
  0
LINE
  8
0
 10
-134.045
 20
53.4389
 11
-134.382
 21
52.9088
  0
LINE
  8
0
 10
-134.382
 20
52.9088
 11
-134.649
 21
52.3406
  0
LINE
  8
0
 10
-134.649
 20
52.3406
 11
-134.843
 21
51.7434
  0
LINE
  8
0
 10
-134.843
 20
51.7434
 11
-134.961
 21
51.1267
  0
LINE
  8
0
 10
-134.961
 20
51.1267
 11
-135
 21
50.5
  0
LINE
  8
0
 10
-135
 20
50.5
 11
-135
 21
45.5
  0
LINE
  8
0
 10
-135
 20
45.5
 11
-134.961
 21
44.8733
  0
LINE
  8
0
 10
-134.961
 20
44.8733
 11
-134.843
 21
44.2566
  0
LINE
  8
0
 10
-134.843
 20
44.2566
 11
-134.649
 21
43.6594
  0
LINE
  8
0
 10
-134.649
 20
43.6594
 11
-134.382
 21
43.0912
  0
LINE
  8
0
 10
-134.382
 20
43.0912
 11
-134.045
 21
42.5611
  0
LINE
  8
0
 10
-134.045
 20
42.5611
 11
-133.645
 21
42.0773
  0
LINE
  8
0
 10
-133.645
 20
42.0773
 11
-133.187
 21
41.6474
  0
LINE
  8
0
 10
-133.187
 20
41.6474
 11
-132.679
 21
41.2784
  0
LINE
  8
0
 10
-132.679
 20
41.2784
 11
-132.129
 21
40.9759
  0
LINE
  8
0
 10
-132.129
 20
40.9759
 11
-131.545
 21
40.7447
  0
LINE
  8
0
 10
-131.545
 20
40.7447
 11
-130.937
 21
40.5886
  0
LINE
  8
0
 10
-130.937
 20
40.5886
 11
-130.314
 21
40.5099
  0
LINE
  8
0
 10
-130.314
 20
40.5099
 11
130.314
 21
40.5099
  0
LINE
  8
0
 10
130.314
 20
40.5099
 11
130.937
 21
40.5886
  0
LINE
  8
0
 10
-129.993
 20
41.8882
 11
-130.475
 21
41.9491
  0
LINE
  8
0
 10
-130.475
 20
41.9491
 11
-130.946
 21
42.0699
  0
LINE
  8
0
 10
-130.946
 20
42.0699
 11
-131.398
 21
42.2488
  0
LINE
  8
0
 10
-131.398
 20
42.2488
 11
-131.823
 21
42.4829
  0
LINE
  8
0
 10
-131.823
 20
42.4829
 11
-132.216
 21
42.7685
  0
LINE
  8
0
 10
-132.216
 20
42.7685
 11
-132.571
 21
43.1012
  0
LINE
  8
0
 10
-132.571
 20
43.1012
 11
-132.88
 21
43.4756
  0
LINE
  8
0
 10
-132.88
 20
43.4756
 11
-133.141
 21
43.8859
  0
LINE
  8
0
 10
-133.141
 20
43.8859
 11
-133.348
 21
44.3256
  0
LINE
  8
0
 10
-133.348
 20
44.3256
 11
-133.498
 21
44.7877
  0
LINE
  8
0
 10
-133.498
 20
44.7877
 11
-133.589
 21
45.265
  0
LINE
  8
0
 10
-133.589
 20
45.265
 11
-133.619
 21
45.75
  0
LINE
  8
0
 10
-133.619
 20
45.75
 11
-133.619
 21
50.25
  0
LINE
  8
0
 10
-133.619
 20
50.25
 11
-133.589
 21
50.735
  0
LINE
  8
0
 10
-133.589
 20
50.735
 11
-133.498
 21
51.2123
  0
LINE
  8
0
 10
-133.498
 20
51.2123
 11
-133.348
 21
51.6744
  0
LINE
  8
0
 10
-133.348
 20
51.6744
 11
-133.141
 21
52.1141
  0
LINE
  8
0
 10
-133.141
 20
52.1141
 11
-132.88
 21
52.5244
  0
LINE
  8
0
 10
-132.88
 20
52.5244
 11
-132.571
 21
52.8988
  0
LINE
  8
0
 10
-132.571
 20
52.8988
 11
-132.216
 21
53.2315
  0
LINE
  8
0
 10
-132.216
 20
53.2315
 11
-131.823
 21
53.5171
  0
LINE
  8
0
 10
-131.823
 20
53.5171
 11
-131.398
 21
53.7512
  0
LINE
  8
0
 10
-131.398
 20
53.7512
 11
-130.946
 21
53.9301
  0
LINE
  8
0
 10
-130.946
 20
53.9301
 11
-130.475
 21
54.0509
  0
LINE
  8
0
 10
-130.475
 20
54.0509
 11
-129.993
 21
54.1118
  0
LINE
  8
0
 10
-129.993
 20
54.1118
 11
129.993
 21
54.1118
  0
LINE
  8
0
 10
129.993
 20
54.1118
 11
130.475
 21
54.0509
  0
LINE
  8
0
 10
130.475
 20
54.0509
 11
130.946
 21
53.9301
  0
LINE
  8
0
 10
130.946
 20
53.9301
 11
131.398
 21
53.7512
  0
LINE
  8
0
 10
131.398
 20
53.7512
 11
131.823
 21
53.5171
  0
LINE
  8
0
 10
131.823
 20
53.5171
 11
132.216
 21
53.2315
  0
LINE
  8
0
 10
132.216
 20
53.2315
 11
132.571
 21
52.8988
  0
LINE
  8
0
 10
132.571
 20
52.8988
 11
132.88
 21
52.5244
  0
LINE
  8
0
 10
132.88
 20
52.5244
 11
133.141
 21
52.1141
  0
LINE
  8
0
 10
133.141
 20
52.1141
 11
133.348
 21
51.6744
  0
LINE
  8
0
 10
133.348
 20
51.6744
 11
133.498
 21
51.2123
  0
LINE
  8
0
 10
133.498
 20
51.2123
 11
133.589
 21
50.735
  0
LINE
  8
0
 10
133.589
 20
50.735
 11
133.619
 21
50.25
  0
LINE
  8
0
 10
133.619
 20
50.25
 11
133.619
 21
45.75
  0
LINE
  8
0
 10
133.619
 20
45.75
 11
133.589
 21
45.265
  0
LINE
  8
0
 10
133.589
 20
45.265
 11
133.498
 21
44.7877
  0
LINE
  8
0
 10
133.498
 20
44.7877
 11
133.348
 21
44.3256
  0
LINE
  8
0
 10
133.348
 20
44.3256
 11
133.141
 21
43.8859
  0
LINE
  8
0
 10
133.141
 20
43.8859
 11
132.88
 21
43.4756
  0
LINE
  8
0
 10
132.88
 20
43.4756
 11
132.571
 21
43.1012
  0
LINE
  8
0
 10
132.571
 20
43.1012
 11
132.216
 21
42.7685
  0
LINE
  8
0
 10
132.216
 20
42.7685
 11
131.823
 21
42.4829
  0
LINE
  8
0
 10
131.823
 20
42.4829
 11
131.398
 21
42.2488
  0
LINE
  8
0
 10
131.398
 20
42.2488
 11
130.946
 21
42.0699
  0
LINE
  8
0
 10
130.946
 20
42.0699
 11
130.475
 21
41.9491
  0
LINE
  8
0
 10
130.475
 20
41.9491
 11
129.993
 21
41.8882
  0
LINE
  8
0
 10
129.993
 20
41.8882
 11
-129.993
 21
41.8882
  0
LINE
  8
0
 10
130.937
 20
16.5886
 11
131.545
 21
16.7447
  0
LINE
  8
0
 10
131.545
 20
16.7447
 11
132.129
 21
16.9759
  0
LINE
  8
0
 10
132.129
 20
16.9759
 11
132.679
 21
17.2784
  0
LINE
  8
0
 10
132.679
 20
17.2784
 11
133.187
 21
17.6474
  0
LINE
  8
0
 10
133.187
 20
17.6474
 11
133.645
 21
18.0773
  0
LINE
  8
0
 10
133.645
 20
18.0773
 11
134.045
 21
18.5611
  0
LINE
  8
0
 10
134.045
 20
18.5611
 11
134.382
 21
19.0912
  0
LINE
  8
0
 10
134.382
 20
19.0912
 11
134.649
 21
19.6594
  0
LINE
  8
0
 10
134.649
 20
19.6594
 11
134.843
 21
20.2566
  0
LINE
  8
0
 10
134.843
 20
20.2566
 11
134.961
 21
20.8733
  0
LINE
  8
0
 10
134.961
 20
20.8733
 11
135
 21
21.5
  0
LINE
  8
0
 10
135
 20
21.5
 11
135
 21
26.5
  0
LINE
  8
0
 10
135
 20
26.5
 11
134.961
 21
27.1267
  0
LINE
  8
0
 10
134.961
 20
27.1267
 11
134.843
 21
27.7434
  0
LINE
  8
0
 10
134.843
 20
27.7434
 11
134.649
 21
28.3406
  0
LINE
  8
0
 10
134.649
 20
28.3406
 11
134.382
 21
28.9088
  0
LINE
  8
0
 10
134.382
 20
28.9088
 11
134.045
 21
29.4389
  0
LINE
  8
0
 10
134.045
 20
29.4389
 11
133.645
 21
29.9227
  0
LINE
  8
0
 10
133.645
 20
29.9227
 11
133.187
 21
30.3526
  0
LINE
  8
0
 10
133.187
 20
30.3526
 11
132.679
 21
30.7216
  0
LINE
  8
0
 10
132.679
 20
30.7216
 11
132.129
 21
31.0241
  0
LINE
  8
0
 10
132.129
 20
31.0241
 11
131.545
 21
31.2553
  0
LINE
  8
0
 10
131.545
 20
31.2553
 11
130.937
 21
31.4114
  0
LINE
  8
0
 10
130.937
 20
31.4114
 11
130.314
 21
31.4901
  0
LINE
  8
0
 10
130.314
 20
31.4901
 11
-130.314
 21
31.4901
  0
LINE
  8
0
 10
-130.314
 20
31.4901
 11
-130.937
 21
31.4114
  0
LINE
  8
0
 10
-130.937
 20
31.4114
 11
-131.545
 21
31.2553
  0
LINE
  8
0
 10
-131.545
 20
31.2553
 11
-132.129
 21
31.0241
  0
LINE
  8
0
 10
-132.129
 20
31.0241
 11
-132.679
 21
30.7216
  0
LINE
  8
0
 10
-132.679
 20
30.7216
 11
-133.187
 21
30.3526
  0
LINE
  8
0
 10
-133.187
 20
30.3526
 11
-133.645
 21
29.9227
  0
LINE
  8
0
 10
-133.645
 20
29.9227
 11
-134.045
 21
29.4389
  0
LINE
  8
0
 10
-134.045
 20
29.4389
 11
-134.382
 21
28.9088
  0
LINE
  8
0
 10
-134.382
 20
28.9088
 11
-134.649
 21
28.3406
  0
LINE
  8
0
 10
-134.649
 20
28.3406
 11
-134.843
 21
27.7434
  0
LINE
  8
0
 10
-134.843
 20
27.7434
 11
-134.961
 21
27.1267
  0
LINE
  8
0
 10
-134.961
 20
27.1267
 11
-135
 21
26.5
  0
LINE
  8
0
 10
-135
 20
26.5
 11
-135
 21
21.5
  0
LINE
  8
0
 10
-135
 20
21.5
 11
-134.961
 21
20.8733
  0
LINE
  8
0
 10
-134.961
 20
20.8733
 11
-134.843
 21
20.2566
  0
LINE
  8
0
 10
-134.843
 20
20.2566
 11
-134.649
 21
19.6594
  0
LINE
  8
0
 10
-134.649
 20
19.6594
 11
-134.382
 21
19.0912
  0
LINE
  8
0
 10
-134.382
 20
19.0912
 11
-134.045
 21
18.5611
  0
LINE
  8
0
 10
-134.045
 20
18.5611
 11
-133.645
 21
18.0773
  0
LINE
  8
0
 10
-133.645
 20
18.0773
 11
-133.187
 21
17.6474
  0
LINE
  8
0
 10
-133.187
 20
17.6474
 11
-132.679
 21
17.2784
  0
LINE
  8
0
 10
-132.679
 20
17.2784
 11
-132.129
 21
16.9759
  0
LINE
  8
0
 10
-132.129
 20
16.9759
 11
-131.545
 21
16.7447
  0
LINE
  8
0
 10
-131.545
 20
16.7447
 11
-130.937
 21
16.5886
  0
LINE
  8
0
 10
-130.937
 20
16.5886
 11
-130.314
 21
16.5099
  0
LINE
  8
0
 10
-130.314
 20
16.5099
 11
130.314
 21
16.5099
  0
LINE
  8
0
 10
130.314
 20
16.5099
 11
130.937
 21
16.5886
  0
LINE
  8
0
 10
-127.613
 20
22.2036
 11
-127.837
 21
22.2319
  0
LINE
  8
0
 10
-127.837
 20
22.2319
 11
-128.056
 21
22.2881
  0
LINE
  8
0
 10
-128.056
 20
22.2881
 11
-128.266
 21
22.3713
  0
LINE
  8
0
 10
-128.266
 20
22.3713
 11
-128.464
 21
22.4802
  0
LINE
  8
0
 10
-128.464
 20
22.4802
 11
-128.647
 21
22.6131
  0
LINE
  8
0
 10
-128.647
 20
22.6131
 11
-128.812
 21
22.7678
  0
LINE
  8
0
 10
-128.812
 20
22.7678
 11
-128.956
 21
22.942
  0
LINE
  8
0
 10
-128.956
 20
22.942
 11
-129.077
 21
23.1329
  0
LINE
  8
0
 10
-129.077
 20
23.1329
 11
-129.174
 21
23.3374
  0
LINE
  8
0
 10
-129.174
 20
23.3374
 11
-129.243
 21
23.5524
  0
LINE
  8
0
 10
-129.243
 20
23.5524
 11
-129.286
 21
23.7744
  0
LINE
  8
0
 10
-129.286
 20
23.7744
 11
-129.3
 21
24
  0
LINE
  8
0
 10
-129.3
 20
24
 11
-129.286
 21
24.2256
  0
LINE
  8
0
 10
-129.286
 20
24.2256
 11
-129.243
 21
24.4476
  0
LINE
  8
0
 10
-129.243
 20
24.4476
 11
-129.174
 21
24.6626
  0
LINE
  8
0
 10
-129.174
 20
24.6626
 11
-129.077
 21
24.8671
  0
LINE
  8
0
 10
-129.077
 20
24.8671
 11
-128.956
 21
25.058
  0
LINE
  8
0
 10
-128.956
 20
25.058
 11
-128.812
 21
25.2322
  0
LINE
  8
0
 10
-128.812
 20
25.2322
 11
-128.647
 21
25.3869
  0
LINE
  8
0
 10
-128.647
 20
25.3869
 11
-128.464
 21
25.5198
  0
LINE
  8
0
 10
-128.464
 20
25.5198
 11
-128.266
 21
25.6287
  0
LINE
  8
0
 10
-128.266
 20
25.6287
 11
-128.056
 21
25.7119
  0
LINE
  8
0
 10
-128.056
 20
25.7119
 11
-127.837
 21
25.7681
  0
LINE
  8
0
 10
-127.837
 20
25.7681
 11
-127.613
 21
25.7964
  0
LINE
  8
0
 10
-127.613
 20
25.7964
 11
-127.387
 21
25.7964
  0
LINE
  8
0
 10
-127.387
 20
25.7964
 11
-127.163
 21
25.7681
  0
LINE
  8
0
 10
-127.163
 20
25.7681
 11
-126.944
 21
25.7119
  0
LINE
  8
0
 10
-126.944
 20
25.7119
 11
-126.734
 21
25.6287
  0
LINE
  8
0
 10
-126.734
 20
25.6287
 11
-126.536
 21
25.5198
  0
LINE
  8
0
 10
-126.536
 20
25.5198
 11
-126.353
 21
25.3869
  0
LINE
  8
0
 10
-126.353
 20
25.3869
 11
-126.188
 21
25.2322
  0
LINE
  8
0
 10
-126.188
 20
25.2322
 11
-126.044
 21
25.058
  0
LINE
  8
0
 10
-126.044
 20
25.058
 11
-125.923
 21
24.8671
  0
LINE
  8
0
 10
-125.923
 20
24.8671
 11
-125.826
 21
24.6626
  0
LINE
  8
0
 10
-125.826
 20
24.6626
 11
-125.757
 21
24.4476
  0
LINE
  8
0
 10
-125.757
 20
24.4476
 11
-125.714
 21
24.2256
  0
LINE
  8
0
 10
-125.714
 20
24.2256
 11
-125.7
 21
24
  0
LINE
  8
0
 10
-125.7
 20
24
 11
-125.714
 21
23.7744
  0
LINE
  8
0
 10
-125.714
 20
23.7744
 11
-125.757
 21
23.5524
  0
LINE
  8
0
 10
-125.757
 20
23.5524
 11
-125.826
 21
23.3374
  0
LINE
  8
0
 10
-125.826
 20
23.3374
 11
-125.923
 21
23.1329
  0
LINE
  8
0
 10
-125.923
 20
23.1329
 11
-126.044
 21
22.942
  0
LINE
  8
0
 10
-126.044
 20
22.942
 11
-126.188
 21
22.7678
  0
LINE
  8
0
 10
-126.188
 20
22.7678
 11
-126.353
 21
22.6131
  0
LINE
  8
0
 10
-126.353
 20
22.6131
 11
-126.536
 21
22.4802
  0
LINE
  8
0
 10
-126.536
 20
22.4802
 11
-126.734
 21
22.3713
  0
LINE
  8
0
 10
-126.734
 20
22.3713
 11
-126.944
 21
22.2881
  0
LINE
  8
0
 10
-126.944
 20
22.2881
 11
-127.163
 21
22.2319
  0
LINE
  8
0
 10
-127.163
 20
22.2319
 11
-127.387
 21
22.2036
  0
LINE
  8
0
 10
-127.387
 20
22.2036
 11
-127.613
 21
22.2036
  0
LINE
  8
0
 10
127.387
 20
22.2036
 11
127.163
 21
22.2319
  0
LINE
  8
0
 10
127.163
 20
22.2319
 11
126.944
 21
22.2881
  0
LINE
  8
0
 10
126.944
 20
22.2881
 11
126.734
 21
22.3713
  0
LINE
  8
0
 10
126.734
 20
22.3713
 11
126.536
 21
22.4802
  0
LINE
  8
0
 10
126.536
 20
22.4802
 11
126.353
 21
22.6131
  0
LINE
  8
0
 10
126.353
 20
22.6131
 11
126.188
 21
22.7678
  0
LINE
  8
0
 10
126.188
 20
22.7678
 11
126.044
 21
22.942
  0
LINE
  8
0
 10
126.044
 20
22.942
 11
125.923
 21
23.1329
  0
LINE
  8
0
 10
125.923
 20
23.1329
 11
125.826
 21
23.3374
  0
LINE
  8
0
 10
125.826
 20
23.3374
 11
125.757
 21
23.5524
  0
LINE
  8
0
 10
125.757
 20
23.5524
 11
125.714
 21
23.7744
  0
LINE
  8
0
 10
125.714
 20
23.7744
 11
125.7
 21
24
  0
LINE
  8
0
 10
125.7
 20
24
 11
125.714
 21
24.2256
  0
LINE
  8
0
 10
125.714
 20
24.2256
 11
125.757
 21
24.4476
  0
LINE
  8
0
 10
125.757
 20
24.4476
 11
125.826
 21
24.6626
  0
LINE
  8
0
 10
125.826
 20
24.6626
 11
125.923
 21
24.8671
  0
LINE
  8
0
 10
125.923
 20
24.8671
 11
126.044
 21
25.058
  0
LINE
  8
0
 10
126.044
 20
25.058
 11
126.188
 21
25.2322
  0
LINE
  8
0
 10
126.188
 20
25.2322
 11
126.353
 21
25.3869
  0
LINE
  8
0
 10
126.353
 20
25.3869
 11
126.536
 21
25.5198
  0
LINE
  8
0
 10
126.536
 20
25.5198
 11
126.734
 21
25.6287
  0
LINE
  8
0
 10
126.734
 20
25.6287
 11
126.944
 21
25.7119
  0
LINE
  8
0
 10
126.944
 20
25.7119
 11
127.163
 21
25.7681
  0
LINE
  8
0
 10
127.163
 20
25.7681
 11
127.387
 21
25.7964
  0
LINE
  8
0
 10
127.387
 20
25.7964
 11
127.613
 21
25.7964
  0
LINE
  8
0
 10
127.613
 20
25.7964
 11
127.837
 21
25.7681
  0
LINE
  8
0
 10
127.837
 20
25.7681
 11
128.056
 21
25.7119
  0
LINE
  8
0
 10
128.056
 20
25.7119
 11
128.266
 21
25.6287
  0
LINE
  8
0
 10
128.266
 20
25.6287
 11
128.464
 21
25.5198
  0
LINE
  8
0
 10
128.464
 20
25.5198
 11
128.647
 21
25.3869
  0
LINE
  8
0
 10
128.647
 20
25.3869
 11
128.812
 21
25.2322
  0
LINE
  8
0
 10
128.812
 20
25.2322
 11
128.956
 21
25.058
  0
LINE
  8
0
 10
128.956
 20
25.058
 11
129.077
 21
24.8671
  0
LINE
  8
0
 10
129.077
 20
24.8671
 11
129.174
 21
24.6626
  0
LINE
  8
0
 10
129.174
 20
24.6626
 11
129.243
 21
24.4476
  0
LINE
  8
0
 10
129.243
 20
24.4476
 11
129.286
 21
24.2256
  0
LINE
  8
0
 10
129.286
 20
24.2256
 11
129.3
 21
24
  0
LINE
  8
0
 10
129.3
 20
24
 11
129.286
 21
23.7744
  0
LINE
  8
0
 10
129.286
 20
23.7744
 11
129.243
 21
23.5524
  0
LINE
  8
0
 10
129.243
 20
23.5524
 11
129.174
 21
23.3374
  0
LINE
  8
0
 10
129.174
 20
23.3374
 11
129.077
 21
23.1329
  0
LINE
  8
0
 10
129.077
 20
23.1329
 11
128.956
 21
22.942
  0
LINE
  8
0
 10
128.956
 20
22.942
 11
128.812
 21
22.7678
  0
LINE
  8
0
 10
128.812
 20
22.7678
 11
128.647
 21
22.6131
  0
LINE
  8
0
 10
128.647
 20
22.6131
 11
128.464
 21
22.4802
  0
LINE
  8
0
 10
128.464
 20
22.4802
 11
128.266
 21
22.3713
  0
LINE
  8
0
 10
128.266
 20
22.3713
 11
128.056
 21
22.2881
  0
LINE
  8
0
 10
128.056
 20
22.2881
 11
127.837
 21
22.2319
  0
LINE
  8
0
 10
127.837
 20
22.2319
 11
127.613
 21
22.2036
  0
LINE
  8
0
 10
127.613
 20
22.2036
 11
127.387
 21
22.2036
  0
ENDSEC
  0
SECTION
  2
OBJECTS
  0
DICTIONARY
  0
ENDSEC
  0
EOF
