  0
SECTION
  2
BLOCKS
  0
ENDSEC
  0
SECTION
  2
ENTITIES
  0
LINE
  8
0
 10
0.850662
 20
105.236
 11
0.944031
 21
105.254
  0
LINE
  8
0
 10
0.944031
 20
105.254
 11
1.03702
 21
105.273
  0
LINE
  8
0
 10
1.03702
 20
105.273
 11
1.04059
 21
105.274
  0
LINE
  8
0
 10
1.04059
 20
105.274
 11
1.13014
 21
105.352
  0
LINE
  8
0
 10
1.13014
 20
105.352
 11
1.1465
 21
105.459
  0
LINE
  8
0
 10
1.1465
 20
105.459
 11
1.12584
 21
105.568
  0
LINE
  8
0
 10
1.12584
 20
105.568
 11
1.11859
 21
105.678
  0
LINE
  8
0
 10
1.11859
 20
105.678
 11
1.12457
 21
105.789
  0
LINE
  8
0
 10
1.12457
 20
105.789
 11
1.14362
 21
105.901
  0
LINE
  8
0
 10
1.14362
 20
105.901
 11
1.20421
 21
106.031
  0
LINE
  8
0
 10
1.20421
 20
106.031
 11
1.29231
 21
106.144
  0
LINE
  8
0
 10
1.29231
 20
106.144
 11
1.40286
 21
106.236
  0
LINE
  8
0
 10
1.40286
 20
106.236
 11
1.53064
 21
106.305
  0
LINE
  8
0
 10
1.53064
 20
106.305
 11
1.66948
 21
106.347
  0
LINE
  8
0
 10
1.66948
 20
106.347
 11
1.81274
 21
106.36
  0
LINE
  8
0
 10
1.81274
 20
106.36
 11
1.95471
 21
106.342
  0
LINE
  8
0
 10
1.95471
 20
106.342
 11
2.08968
 21
106.293
  0
LINE
  8
0
 10
2.08968
 20
106.293
 11
2.18201
 21
106.227
  0
LINE
  8
0
 10
2.18201
 20
106.227
 11
2.26508
 21
106.153
  0
LINE
  8
0
 10
2.26508
 20
106.153
 11
2.33803
 21
106.07
  0
LINE
  8
0
 10
2.33803
 20
106.07
 11
2.39999
 21
105.979
  0
LINE
  8
0
 10
2.39999
 20
105.979
 11
2.48764
 21
105.914
  0
LINE
  8
0
 10
2.48764
 20
105.914
 11
2.60576
 21
105.923
  0
LINE
  8
0
 10
2.60576
 20
105.923
 11
2.60886
 21
105.925
  0
LINE
  8
0
 10
2.60886
 20
105.925
 11
2.68837
 21
105.977
  0
LINE
  8
0
 10
2.68837
 20
105.977
 11
2.76685
 21
106.03
  0
LINE
  8
0
 10
2.76685
 20
106.03
 11
2.76984
 21
106.032
  0
LINE
  8
0
 10
2.76984
 20
106.032
 11
2.82297
 21
106.138
  0
LINE
  8
0
 10
2.82297
 20
106.138
 11
2.79684
 21
106.244
  0
LINE
  8
0
 10
2.79684
 20
106.244
 11
2.73634
 21
106.336
  0
LINE
  8
0
 10
2.73634
 20
106.336
 11
2.68745
 21
106.435
  0
LINE
  8
0
 10
2.68745
 20
106.435
 11
2.65031
 21
106.54
  0
LINE
  8
0
 10
2.65031
 20
106.54
 11
2.62512
 21
106.651
  0
LINE
  8
0
 10
2.62512
 20
106.651
 11
2.63126
 21
106.794
  0
LINE
  8
0
 10
2.63126
 20
106.794
 11
2.66956
 21
106.932
  0
LINE
  8
0
 10
2.66956
 20
106.932
 11
2.73645
 21
107.059
  0
LINE
  8
0
 10
2.73645
 20
107.059
 11
2.82826
 21
107.172
  0
LINE
  8
0
 10
2.82826
 20
107.172
 11
2.94051
 21
107.264
  0
LINE
  8
0
 10
2.94051
 20
107.264
 11
3.06787
 21
107.33
  0
LINE
  8
0
 10
3.06787
 20
107.33
 11
3.20566
 21
107.369
  0
LINE
  8
0
 10
3.20566
 20
107.369
 11
3.34921
 21
107.375
  0
LINE
  8
0
 10
3.34921
 20
107.375
 11
3.45964
 21
107.35
  0
LINE
  8
0
 10
3.45964
 20
107.35
 11
3.56493
 21
107.312
  0
LINE
  8
0
 10
3.56493
 20
107.312
 11
3.66411
 21
107.264
  0
LINE
  8
0
 10
3.66411
 20
107.264
 11
3.75623
 21
107.203
  0
LINE
  8
0
 10
3.75623
 20
107.203
 11
3.86195
 21
107.177
  0
LINE
  8
0
 10
3.86195
 20
107.177
 11
3.96776
 21
107.23
  0
LINE
  8
0
 10
3.96776
 20
107.23
 11
3.96988
 21
107.233
  0
LINE
  8
0
 10
3.96988
 20
107.233
 11
4.02344
 21
107.312
  0
LINE
  8
0
 10
4.02344
 20
107.312
 11
4.07544
 21
107.391
  0
LINE
  8
0
 10
4.07544
 20
107.391
 11
4.07739
 21
107.394
  0
LINE
  8
0
 10
4.07739
 20
107.394
 11
4.08603
 21
107.512
  0
LINE
  8
0
 10
4.08603
 20
107.512
 11
4.02139
 21
107.6
  0
LINE
  8
0
 10
4.02139
 20
107.6
 11
3.93025
 21
107.662
  0
LINE
  8
0
 10
3.93025
 20
107.662
 11
3.84717
 21
107.735
  0
LINE
  8
0
 10
3.84717
 20
107.735
 11
3.77258
 21
107.818
  0
LINE
  8
0
 10
3.77258
 20
107.818
 11
3.70699
 21
107.91
  0
LINE
  8
0
 10
3.70699
 20
107.91
 11
3.65771
 21
108.045
  0
LINE
  8
0
 10
3.65771
 20
108.045
 11
3.64037
 21
108.187
  0
LINE
  8
0
 10
3.64037
 20
108.187
 11
3.65343
 21
108.331
  0
LINE
  8
0
 10
3.65343
 20
108.331
 11
3.69531
 21
108.469
  0
LINE
  8
0
 10
3.69531
 20
108.469
 11
3.76387
 21
108.597
  0
LINE
  8
0
 10
3.76387
 20
108.597
 11
3.85593
 21
108.708
  0
LINE
  8
0
 10
3.85593
 20
108.708
 11
3.96858
 21
108.796
  0
LINE
  8
0
 10
3.96858
 20
108.796
 11
4.09886
 21
108.856
  0
LINE
  8
0
 10
4.09886
 20
108.856
 11
4.21059
 21
108.875
  0
LINE
  8
0
 10
4.21059
 20
108.875
 11
4.32205
 21
108.881
  0
LINE
  8
0
 10
4.32205
 20
108.881
 11
4.43236
 21
108.874
  0
LINE
  8
0
 10
4.43236
 20
108.874
 11
4.5406
 21
108.854
  0
LINE
  8
0
 10
4.5406
 20
108.854
 11
4.64833
 21
108.87
  0
LINE
  8
0
 10
4.64833
 20
108.87
 11
4.72571
 21
108.959
  0
LINE
  8
0
 10
4.72571
 20
108.959
 11
4.72652
 21
108.963
  0
LINE
  8
0
 10
4.72652
 20
108.963
 11
4.74597
 21
109.056
  0
LINE
  8
0
 10
4.74597
 20
109.056
 11
4.7636
 21
109.149
  0
LINE
  8
0
 10
4.7636
 20
109.149
 11
4.76421
 21
109.153
  0
LINE
  8
0
 10
4.76421
 20
109.153
 11
4.72704
 21
109.265
  0
LINE
  8
0
 10
4.72704
 20
109.265
 11
4.63373
 21
109.322
  0
LINE
  8
0
 10
4.63373
 20
109.322
 11
4.52583
 21
109.344
  0
LINE
  8
0
 10
4.52583
 20
109.344
 11
4.42119
 21
109.379
  0
LINE
  8
0
 10
4.42119
 20
109.379
 11
4.3205
 21
109.428
  0
LINE
  8
0
 10
4.3205
 20
109.428
 11
4.2245
 21
109.488
  0
LINE
  8
0
 10
4.2245
 20
109.488
 11
4.12733
 21
109.594
  0
LINE
  8
0
 10
4.12733
 20
109.594
 11
4.05698
 21
109.718
  0
LINE
  8
0
 10
4.05698
 20
109.718
 11
4.01422
 21
109.856
  0
LINE
  8
0
 10
4.01422
 20
109.856
 11
3.99979
 21
110
  0
LINE
  8
0
 10
3.99979
 20
110
 11
4.01422
 21
110.144
  0
LINE
  8
0
 10
4.01422
 20
110.144
 11
4.05698
 21
110.282
  0
LINE
  8
0
 10
4.05698
 20
110.282
 11
4.12733
 21
110.406
  0
LINE
  8
0
 10
4.12733
 20
110.406
 11
4.2245
 21
110.512
  0
LINE
  8
0
 10
4.2245
 20
110.512
 11
4.3205
 21
110.572
  0
LINE
  8
0
 10
4.3205
 20
110.572
 11
4.42119
 21
110.62
  0
LINE
  8
0
 10
4.42119
 20
110.62
 11
4.52583
 21
110.656
  0
LINE
  8
0
 10
4.52583
 20
110.656
 11
4.63373
 21
110.678
  0
LINE
  8
0
 10
4.63373
 20
110.678
 11
4.72704
 21
110.735
  0
LINE
  8
0
 10
4.72704
 20
110.735
 11
4.76421
 21
110.847
  0
LINE
  8
0
 10
4.76421
 20
110.847
 11
4.7636
 21
110.851
  0
LINE
  8
0
 10
4.7636
 20
110.851
 11
4.74597
 21
110.944
  0
LINE
  8
0
 10
4.74597
 20
110.944
 11
4.72652
 21
111.037
  0
LINE
  8
0
 10
4.72652
 20
111.037
 11
4.72571
 21
111.041
  0
LINE
  8
0
 10
4.72571
 20
111.041
 11
4.64838
 21
111.13
  0
LINE
  8
0
 10
4.64838
 20
111.13
 11
4.5406
 21
111.146
  0
LINE
  8
0
 10
4.5406
 20
111.146
 11
4.43237
 21
111.126
  0
LINE
  8
0
 10
4.43237
 20
111.126
 11
4.32211
 21
111.119
  0
LINE
  8
0
 10
4.32211
 20
111.119
 11
4.21065
 21
111.125
  0
LINE
  8
0
 10
4.21065
 20
111.125
 11
4.09886
 21
111.144
  0
LINE
  8
0
 10
4.09886
 20
111.144
 11
3.96858
 21
111.204
  0
LINE
  8
0
 10
3.96858
 20
111.204
 11
3.85593
 21
111.292
  0
LINE
  8
0
 10
3.85593
 20
111.292
 11
3.76387
 21
111.403
  0
LINE
  8
0
 10
3.76387
 20
111.403
 11
3.69531
 21
111.531
  0
LINE
  8
0
 10
3.69531
 20
111.531
 11
3.65343
 21
111.669
  0
LINE
  8
0
 10
3.65343
 20
111.669
 11
3.64037
 21
111.813
  0
LINE
  8
0
 10
3.64037
 20
111.813
 11
3.65771
 21
111.955
  0
LINE
  8
0
 10
3.65771
 20
111.955
 11
3.70699
 21
112.09
  0
LINE
  8
0
 10
3.70699
 20
112.09
 11
3.77264
 21
112.182
  0
LINE
  8
0
 10
3.77264
 20
112.182
 11
3.84723
 21
112.265
  0
LINE
  8
0
 10
3.84723
 20
112.265
 11
3.93028
 21
112.338
  0
LINE
  8
0
 10
3.93028
 20
112.338
 11
4.02139
 21
112.4
  0
LINE
  8
0
 10
4.02139
 20
112.4
 11
4.08609
 21
112.488
  0
LINE
  8
0
 10
4.08609
 20
112.488
 11
4.07739
 21
112.606
  0
LINE
  8
0
 10
4.07739
 20
112.606
 11
4.07544
 21
112.609
  0
LINE
  8
0
 10
4.07544
 20
112.609
 11
4.02344
 21
112.688
  0
LINE
  8
0
 10
4.02344
 20
112.688
 11
3.96988
 21
112.767
  0
LINE
  8
0
 10
3.96988
 20
112.767
 11
3.96776
 21
112.77
  0
LINE
  8
0
 10
3.96776
 20
112.77
 11
3.86205
 21
112.823
  0
LINE
  8
0
 10
3.86205
 20
112.823
 11
3.75623
 21
112.797
  0
LINE
  8
0
 10
3.75623
 20
112.797
 11
3.66414
 21
112.736
  0
LINE
  8
0
 10
3.66414
 20
112.736
 11
3.56505
 21
112.687
  0
LINE
  8
0
 10
3.56505
 20
112.687
 11
3.45976
 21
112.65
  0
LINE
  8
0
 10
3.45976
 20
112.65
 11
3.34921
 21
112.625
  0
LINE
  8
0
 10
3.34921
 20
112.625
 11
3.20566
 21
112.631
  0
LINE
  8
0
 10
3.20566
 20
112.631
 11
3.06787
 21
112.67
  0
LINE
  8
0
 10
3.06787
 20
112.67
 11
2.94051
 21
112.736
  0
LINE
  8
0
 10
2.94051
 20
112.736
 11
2.82826
 21
112.828
  0
LINE
  8
0
 10
2.82826
 20
112.828
 11
2.73645
 21
112.941
  0
LINE
  8
0
 10
2.73645
 20
112.941
 11
2.66956
 21
113.068
  0
LINE
  8
0
 10
2.66956
 20
113.068
 11
2.63126
 21
113.206
  0
LINE
  8
0
 10
2.63126
 20
113.206
 11
2.62512
 21
113.349
  0
LINE
  8
0
 10
2.62512
 20
113.349
 11
2.65044
 21
113.46
  0
LINE
  8
0
 10
2.65044
 20
113.46
 11
2.68756
 21
113.565
  0
LINE
  8
0
 10
2.68756
 20
113.565
 11
2.73637
 21
113.664
  0
LINE
  8
0
 10
2.73637
 20
113.664
 11
2.79684
 21
113.756
  0
LINE
  8
0
 10
2.79684
 20
113.756
 11
2.82307
 21
113.862
  0
LINE
  8
0
 10
2.82307
 20
113.862
 11
2.76984
 21
113.968
  0
LINE
  8
0
 10
2.76984
 20
113.968
 11
2.76685
 21
113.97
  0
LINE
  8
0
 10
2.76685
 20
113.97
 11
2.68837
 21
114.023
  0
LINE
  8
0
 10
2.68837
 20
114.023
 11
2.60886
 21
114.075
  0
LINE
  8
0
 10
2.60886
 20
114.075
 11
2.60576
 21
114.077
  0
LINE
  8
0
 10
2.60576
 20
114.077
 11
2.48776
 21
114.086
  0
LINE
  8
0
 10
2.48776
 20
114.086
 11
2.39999
 21
114.021
  0
LINE
  8
0
 10
2.39999
 20
114.021
 11
2.33807
 21
113.93
  0
LINE
  8
0
 10
2.33807
 20
113.93
 11
2.26523
 21
113.847
  0
LINE
  8
0
 10
2.26523
 20
113.847
 11
2.18217
 21
113.773
  0
LINE
  8
0
 10
2.18217
 20
113.773
 11
2.08968
 21
113.707
  0
LINE
  8
0
 10
2.08968
 20
113.707
 11
1.95471
 21
113.658
  0
LINE
  8
0
 10
1.95471
 20
113.658
 11
1.81274
 21
113.64
  0
LINE
  8
0
 10
1.81274
 20
113.64
 11
1.66948
 21
113.653
  0
LINE
  8
0
 10
1.66948
 20
113.653
 11
1.53064
 21
113.695
  0
LINE
  8
0
 10
1.53064
 20
113.695
 11
1.40286
 21
113.764
  0
LINE
  8
0
 10
1.40286
 20
113.764
 11
1.29231
 21
113.856
  0
LINE
  8
0
 10
1.29231
 20
113.856
 11
1.20421
 21
113.969
  0
LINE
  8
0
 10
1.20421
 20
113.969
 11
1.14362
 21
114.099
  0
LINE
  8
0
 10
1.14362
 20
114.099
 11
1.12474
 21
114.211
  0
LINE
  8
0
 10
1.12474
 20
114.211
 11
1.11874
 21
114.322
  0
LINE
  8
0
 10
1.11874
 20
114.322
 11
1.12589
 21
114.432
  0
LINE
  8
0
 10
1.12589
 20
114.432
 11
1.1465
 21
114.541
  0
LINE
  8
0
 10
1.1465
 20
114.541
 11
1.13026
 21
114.648
  0
LINE
  8
0
 10
1.13026
 20
114.648
 11
1.04059
 21
114.726
  0
LINE
  8
0
 10
1.04059
 20
114.726
 11
1.03702
 21
114.727
  0
LINE
  8
0
 10
1.03702
 20
114.727
 11
0.944031
 21
114.746
  0
LINE
  8
0
 10
0.944031
 20
114.746
 11
0.850662
 21
114.764
  0
LINE
  8
0
 10
0.850662
 20
114.764
 11
0.847046
 21
114.764
  0
LINE
  8
0
 10
0.847046
 20
114.764
 11
0.734741
 21
114.727
  0
LINE
  8
0
 10
0.734741
 20
114.727
 11
0.678375
 21
114.634
  0
LINE
  8
0
 10
0.678375
 20
114.634
 11
0.656052
 21
114.526
  0
LINE
  8
0
 10
0.656052
 20
114.526
 11
0.620544
 21
114.421
  0
LINE
  8
0
 10
0.620544
 20
114.421
 11
0.572357
 21
114.32
  0
LINE
  8
0
 10
0.572357
 20
114.32
 11
0.511993
 21
114.225
  0
LINE
  8
0
 10
0.511993
 20
114.225
 11
0.406158
 21
114.127
  0
LINE
  8
0
 10
0.406158
 20
114.127
 11
0.281647
 21
114.057
  0
LINE
  8
0
 10
0.281647
 20
114.057
 11
0.144287
 21
114.014
  0
LINE
  8
0
 10
0.144287
 20
114.014
 11
0
 21
114
  0
LINE
  8
0
 10
0
 20
114
 11
-0.144287
 21
114.014
  0
LINE
  8
0
 10
-0.144287
 20
114.014
 11
-0.281647
 21
114.057
  0
LINE
  8
0
 10
-0.281647
 20
114.057
 11
-0.406158
 21
114.127
  0
LINE
  8
0
 10
-0.406158
 20
114.127
 11
-0.511993
 21
114.225
  0
LINE
  8
0
 10
-0.511993
 20
114.225
 11
-0.572189
 21
114.32
  0
LINE
  8
0
 10
-0.572189
 20
114.32
 11
-0.620392
 21
114.421
  0
LINE
  8
0
 10
-0.620392
 20
114.421
 11
-0.655991
 21
114.526
  0
LINE
  8
0
 10
-0.655991
 20
114.526
 11
-0.678375
 21
114.634
  0
LINE
  8
0
 10
-0.678375
 20
114.634
 11
-0.734589
 21
114.727
  0
LINE
  8
0
 10
-0.734589
 20
114.727
 11
-0.847046
 21
114.764
  0
LINE
  8
0
 10
-0.847046
 20
114.764
 11
-0.850662
 21
114.764
  0
LINE
  8
0
 10
-0.850662
 20
114.764
 11
-0.944031
 21
114.746
  0
LINE
  8
0
 10
-0.944031
 20
114.746
 11
-1.03702
 21
114.727
  0
LINE
  8
0
 10
-1.03702
 20
114.727
 11
-1.04059
 21
114.726
  0
LINE
  8
0
 10
-1.04059
 20
114.726
 11
-1.13014
 21
114.648
  0
LINE
  8
0
 10
-1.13014
 20
114.648
 11
-1.1465
 21
114.541
  0
LINE
  8
0
 10
-1.1465
 20
114.541
 11
-1.12584
 21
114.432
  0
LINE
  8
0
 10
-1.12584
 20
114.432
 11
-1.11859
 21
114.322
  0
LINE
  8
0
 10
-1.11859
 20
114.322
 11
-1.12457
 21
114.211
  0
LINE
  8
0
 10
-1.12457
 20
114.211
 11
-1.14362
 21
114.099
  0
LINE
  8
0
 10
-1.14362
 20
114.099
 11
-1.20421
 21
113.969
  0
LINE
  8
0
 10
-1.20421
 20
113.969
 11
-1.29231
 21
113.856
  0
LINE
  8
0
 10
-1.29231
 20
113.856
 11
-1.40286
 21
113.764
  0
LINE
  8
0
 10
-1.40286
 20
113.764
 11
-1.53064
 21
113.695
  0
LINE
  8
0
 10
-1.53064
 20
113.695
 11
-1.66948
 21
113.653
  0
LINE
  8
0
 10
-1.66948
 20
113.653
 11
-1.81274
 21
113.64
  0
LINE
  8
0
 10
-1.81274
 20
113.64
 11
-1.95471
 21
113.658
  0
LINE
  8
0
 10
-1.95471
 20
113.658
 11
-2.08968
 21
113.707
  0
LINE
  8
0
 10
-2.08968
 20
113.707
 11
-2.18201
 21
113.773
  0
LINE
  8
0
 10
-2.18201
 20
113.773
 11
-2.26508
 21
113.847
  0
LINE
  8
0
 10
-2.26508
 20
113.847
 11
-2.33803
 21
113.93
  0
LINE
  8
0
 10
-2.33803
 20
113.93
 11
-2.39999
 21
114.021
  0
LINE
  8
0
 10
-2.39999
 20
114.021
 11
-2.48764
 21
114.086
  0
LINE
  8
0
 10
-2.48764
 20
114.086
 11
-2.60576
 21
114.077
  0
LINE
  8
0
 10
-2.60576
 20
114.077
 11
-2.60886
 21
114.075
  0
LINE
  8
0
 10
-2.60886
 20
114.075
 11
-2.68837
 21
114.023
  0
LINE
  8
0
 10
-2.68837
 20
114.023
 11
-2.76685
 21
113.97
  0
LINE
  8
0
 10
-2.76685
 20
113.97
 11
-2.76984
 21
113.968
  0
LINE
  8
0
 10
-2.76984
 20
113.968
 11
-2.82297
 21
113.862
  0
LINE
  8
0
 10
-2.82297
 20
113.862
 11
-2.79684
 21
113.756
  0
LINE
  8
0
 10
-2.79684
 20
113.756
 11
-2.73634
 21
113.664
  0
LINE
  8
0
 10
-2.73634
 20
113.664
 11
-2.68745
 21
113.565
  0
LINE
  8
0
 10
-2.68745
 20
113.565
 11
-2.65031
 21
113.46
  0
LINE
  8
0
 10
-2.65031
 20
113.46
 11
-2.62512
 21
113.349
  0
LINE
  8
0
 10
-2.62512
 20
113.349
 11
-2.63126
 21
113.206
  0
LINE
  8
0
 10
-2.63126
 20
113.206
 11
-2.66956
 21
113.068
  0
LINE
  8
0
 10
-2.66956
 20
113.068
 11
-2.73645
 21
112.941
  0
LINE
  8
0
 10
-2.73645
 20
112.941
 11
-2.82826
 21
112.828
  0
LINE
  8
0
 10
-2.82826
 20
112.828
 11
-2.94051
 21
112.736
  0
LINE
  8
0
 10
-2.94051
 20
112.736
 11
-3.06787
 21
112.67
  0
LINE
  8
0
 10
-3.06787
 20
112.67
 11
-3.20566
 21
112.631
  0
LINE
  8
0
 10
-3.20566
 20
112.631
 11
-3.34921
 21
112.625
  0
LINE
  8
0
 10
-3.34921
 20
112.625
 11
-3.45964
 21
112.65
  0
LINE
  8
0
 10
-3.45964
 20
112.65
 11
-3.56493
 21
112.688
  0
LINE
  8
0
 10
-3.56493
 20
112.688
 11
-3.66411
 21
112.736
  0
LINE
  8
0
 10
-3.66411
 20
112.736
 11
-3.75623
 21
112.797
  0
LINE
  8
0
 10
-3.75623
 20
112.797
 11
-3.86195
 21
112.823
  0
LINE
  8
0
 10
-3.86195
 20
112.823
 11
-3.96776
 21
112.77
  0
LINE
  8
0
 10
-3.96776
 20
112.77
 11
-3.96988
 21
112.767
  0
LINE
  8
0
 10
-3.96988
 20
112.767
 11
-4.02344
 21
112.688
  0
LINE
  8
0
 10
-4.02344
 20
112.688
 11
-4.07544
 21
112.609
  0
LINE
  8
0
 10
-4.07544
 20
112.609
 11
-4.07739
 21
112.606
  0
LINE
  8
0
 10
-4.07739
 20
112.606
 11
-4.08603
 21
112.488
  0
LINE
  8
0
 10
-4.08603
 20
112.488
 11
-4.02139
 21
112.4
  0
LINE
  8
0
 10
-4.02139
 20
112.4
 11
-3.93025
 21
112.338
  0
LINE
  8
0
 10
-3.93025
 20
112.338
 11
-3.84717
 21
112.265
  0
LINE
  8
0
 10
-3.84717
 20
112.265
 11
-3.77258
 21
112.182
  0
LINE
  8
0
 10
-3.77258
 20
112.182
 11
-3.70699
 21
112.09
  0
LINE
  8
0
 10
-3.70699
 20
112.09
 11
-3.65771
 21
111.955
  0
LINE
  8
0
 10
-3.65771
 20
111.955
 11
-3.64037
 21
111.813
  0
LINE
  8
0
 10
-3.64037
 20
111.813
 11
-3.65343
 21
111.669
  0
LINE
  8
0
 10
-3.65343
 20
111.669
 11
-3.69531
 21
111.531
  0
LINE
  8
0
 10
-3.69531
 20
111.531
 11
-3.76387
 21
111.403
  0
LINE
  8
0
 10
-3.76387
 20
111.403
 11
-3.85593
 21
111.292
  0
LINE
  8
0
 10
-3.85593
 20
111.292
 11
-3.96858
 21
111.204
  0
LINE
  8
0
 10
-3.96858
 20
111.204
 11
-4.09886
 21
111.144
  0
LINE
  8
0
 10
-4.09886
 20
111.144
 11
-4.21059
 21
111.125
  0
LINE
  8
0
 10
-4.21059
 20
111.125
 11
-4.32205
 21
111.119
  0
LINE
  8
0
 10
-4.32205
 20
111.119
 11
-4.43236
 21
111.126
  0
LINE
  8
0
 10
-4.43236
 20
111.126
 11
-4.5406
 21
111.146
  0
LINE
  8
0
 10
-4.5406
 20
111.146
 11
-4.64833
 21
111.13
  0
LINE
  8
0
 10
-4.64833
 20
111.13
 11
-4.72571
 21
111.041
  0
LINE
  8
0
 10
-4.72571
 20
111.041
 11
-4.72652
 21
111.037
  0
LINE
  8
0
 10
-4.72652
 20
111.037
 11
-4.74597
 21
110.944
  0
LINE
  8
0
 10
-4.74597
 20
110.944
 11
-4.7636
 21
110.851
  0
LINE
  8
0
 10
-4.7636
 20
110.851
 11
-4.76421
 21
110.847
  0
LINE
  8
0
 10
-4.76421
 20
110.847
 11
-4.72704
 21
110.735
  0
LINE
  8
0
 10
-4.72704
 20
110.735
 11
-4.63373
 21
110.678
  0
LINE
  8
0
 10
-4.63373
 20
110.678
 11
-4.52583
 21
110.656
  0
LINE
  8
0
 10
-4.52583
 20
110.656
 11
-4.42119
 21
110.621
  0
LINE
  8
0
 10
-4.42119
 20
110.621
 11
-4.3205
 21
110.572
  0
LINE
  8
0
 10
-4.3205
 20
110.572
 11
-4.2245
 21
110.512
  0
LINE
  8
0
 10
-4.2245
 20
110.512
 11
-4.12733
 21
110.406
  0
LINE
  8
0
 10
-4.12733
 20
110.406
 11
-4.05698
 21
110.282
  0
LINE
  8
0
 10
-4.05698
 20
110.282
 11
-4.01422
 21
110.144
  0
LINE
  8
0
 10
-4.01422
 20
110.144
 11
-3.99979
 21
110
  0
LINE
  8
0
 10
-3.99979
 20
110
 11
-4.01422
 21
109.856
  0
LINE
  8
0
 10
-4.01422
 20
109.856
 11
-4.05698
 21
109.718
  0
LINE
  8
0
 10
-4.05698
 20
109.718
 11
-4.12733
 21
109.594
  0
LINE
  8
0
 10
-4.12733
 20
109.594
 11
-4.2245
 21
109.488
  0
LINE
  8
0
 10
-4.2245
 20
109.488
 11
-4.3205
 21
109.428
  0
LINE
  8
0
 10
-4.3205
 20
109.428
 11
-4.42119
 21
109.38
  0
LINE
  8
0
 10
-4.42119
 20
109.38
 11
-4.52583
 21
109.344
  0
LINE
  8
0
 10
-4.52583
 20
109.344
 11
-4.63373
 21
109.322
  0
LINE
  8
0
 10
-4.63373
 20
109.322
 11
-4.72704
 21
109.265
  0
LINE
  8
0
 10
-4.72704
 20
109.265
 11
-4.76421
 21
109.153
  0
LINE
  8
0
 10
-4.76421
 20
109.153
 11
-4.7636
 21
109.149
  0
LINE
  8
0
 10
-4.7636
 20
109.149
 11
-4.74597
 21
109.056
  0
LINE
  8
0
 10
-4.74597
 20
109.056
 11
-4.72652
 21
108.963
  0
LINE
  8
0
 10
-4.72652
 20
108.963
 11
-4.72571
 21
108.959
  0
LINE
  8
0
 10
-4.72571
 20
108.959
 11
-4.64838
 21
108.87
  0
LINE
  8
0
 10
-4.64838
 20
108.87
 11
-4.5406
 21
108.854
  0
LINE
  8
0
 10
-4.5406
 20
108.854
 11
-4.43237
 21
108.874
  0
LINE
  8
0
 10
-4.43237
 20
108.874
 11
-4.32211
 21
108.881
  0
LINE
  8
0
 10
-4.32211
 20
108.881
 11
-4.21065
 21
108.875
  0
LINE
  8
0
 10
-4.21065
 20
108.875
 11
-4.09886
 21
108.856
  0
LINE
  8
0
 10
-4.09886
 20
108.856
 11
-3.96858
 21
108.796
  0
LINE
  8
0
 10
-3.96858
 20
108.796
 11
-3.85593
 21
108.708
  0
LINE
  8
0
 10
-3.85593
 20
108.708
 11
-3.76387
 21
108.597
  0
LINE
  8
0
 10
-3.76387
 20
108.597
 11
-3.69531
 21
108.469
  0
LINE
  8
0
 10
-3.69531
 20
108.469
 11
-3.65343
 21
108.331
  0
LINE
  8
0
 10
-3.65343
 20
108.331
 11
-3.64037
 21
108.187
  0
LINE
  8
0
 10
-3.64037
 20
108.187
 11
-3.65771
 21
108.045
  0
LINE
  8
0
 10
-3.65771
 20
108.045
 11
-3.70699
 21
107.91
  0
LINE
  8
0
 10
-3.70699
 20
107.91
 11
-3.77264
 21
107.818
  0
LINE
  8
0
 10
-3.77264
 20
107.818
 11
-3.84723
 21
107.735
  0
LINE
  8
0
 10
-3.84723
 20
107.735
 11
-3.93028
 21
107.662
  0
LINE
  8
0
 10
-3.93028
 20
107.662
 11
-4.02139
 21
107.6
  0
LINE
  8
0
 10
-4.02139
 20
107.6
 11
-4.08609
 21
107.512
  0
LINE
  8
0
 10
-4.08609
 20
107.512
 11
-4.07739
 21
107.394
  0
LINE
  8
0
 10
-4.07739
 20
107.394
 11
-4.07544
 21
107.391
  0
LINE
  8
0
 10
-4.07544
 20
107.391
 11
-4.02344
 21
107.312
  0
LINE
  8
0
 10
-4.02344
 20
107.312
 11
-3.96988
 21
107.233
  0
LINE
  8
0
 10
-3.96988
 20
107.233
 11
-3.96776
 21
107.23
  0
LINE
  8
0
 10
-3.96776
 20
107.23
 11
-3.86205
 21
107.177
  0
LINE
  8
0
 10
-3.86205
 20
107.177
 11
-3.75623
 21
107.203
  0
LINE
  8
0
 10
-3.75623
 20
107.203
 11
-3.66414
 21
107.264
  0
LINE
  8
0
 10
-3.66414
 20
107.264
 11
-3.56505
 21
107.313
  0
LINE
  8
0
 10
-3.56505
 20
107.313
 11
-3.45976
 21
107.35
  0
LINE
  8
0
 10
-3.45976
 20
107.35
 11
-3.34921
 21
107.375
  0
LINE
  8
0
 10
-3.34921
 20
107.375
 11
-3.20566
 21
107.369
  0
LINE
  8
0
 10
-3.20566
 20
107.369
 11
-3.06787
 21
107.33
  0
LINE
  8
0
 10
-3.06787
 20
107.33
 11
-2.94051
 21
107.264
  0
LINE
  8
0
 10
-2.94051
 20
107.264
 11
-2.82826
 21
107.172
  0
LINE
  8
0
 10
-2.82826
 20
107.172
 11
-2.73645
 21
107.059
  0
LINE
  8
0
 10
-2.73645
 20
107.059
 11
-2.66956
 21
106.932
  0
LINE
  8
0
 10
-2.66956
 20
106.932
 11
-2.63126
 21
106.794
  0
LINE
  8
0
 10
-2.63126
 20
106.794
 11
-2.62512
 21
106.651
  0
LINE
  8
0
 10
-2.62512
 20
106.651
 11
-2.65044
 21
106.54
  0
LINE
  8
0
 10
-2.65044
 20
106.54
 11
-2.68756
 21
106.435
  0
LINE
  8
0
 10
-2.68756
 20
106.435
 11
-2.73637
 21
106.336
  0
LINE
  8
0
 10
-2.73637
 20
106.336
 11
-2.79684
 21
106.244
  0
LINE
  8
0
 10
-2.79684
 20
106.244
 11
-2.82307
 21
106.138
  0
LINE
  8
0
 10
-2.82307
 20
106.138
 11
-2.76984
 21
106.032
  0
LINE
  8
0
 10
-2.76984
 20
106.032
 11
-2.76685
 21
106.03
  0
LINE
  8
0
 10
-2.76685
 20
106.03
 11
-2.68837
 21
105.977
  0
LINE
  8
0
 10
-2.68837
 20
105.977
 11
-2.60886
 21
105.925
  0
LINE
  8
0
 10
-2.60886
 20
105.925
 11
-2.60576
 21
105.923
  0
LINE
  8
0
 10
-2.60576
 20
105.923
 11
-2.48776
 21
105.914
  0
LINE
  8
0
 10
-2.48776
 20
105.914
 11
-2.39999
 21
105.979
  0
LINE
  8
0
 10
-2.39999
 20
105.979
 11
-2.33807
 21
106.07
  0
LINE
  8
0
 10
-2.33807
 20
106.07
 11
-2.26523
 21
106.153
  0
LINE
  8
0
 10
-2.26523
 20
106.153
 11
-2.18217
 21
106.227
  0
LINE
  8
0
 10
-2.18217
 20
106.227
 11
-2.08968
 21
106.293
  0
LINE
  8
0
 10
-2.08968
 20
106.293
 11
-1.95471
 21
106.342
  0
LINE
  8
0
 10
-1.95471
 20
106.342
 11
-1.81274
 21
106.36
  0
LINE
  8
0
 10
-1.81274
 20
106.36
 11
-1.66948
 21
106.347
  0
LINE
  8
0
 10
-1.66948
 20
106.347
 11
-1.53064
 21
106.305
  0
LINE
  8
0
 10
-1.53064
 20
106.305
 11
-1.40286
 21
106.236
  0
LINE
  8
0
 10
-1.40286
 20
106.236
 11
-1.29231
 21
106.144
  0
LINE
  8
0
 10
-1.29231
 20
106.144
 11
-1.20421
 21
106.031
  0
LINE
  8
0
 10
-1.20421
 20
106.031
 11
-1.14362
 21
105.901
  0
LINE
  8
0
 10
-1.14362
 20
105.901
 11
-1.12474
 21
105.789
  0
LINE
  8
0
 10
-1.12474
 20
105.789
 11
-1.11874
 21
105.678
  0
LINE
  8
0
 10
-1.11874
 20
105.678
 11
-1.12589
 21
105.568
  0
LINE
  8
0
 10
-1.12589
 20
105.568
 11
-1.1465
 21
105.459
  0
LINE
  8
0
 10
-1.1465
 20
105.459
 11
-1.13026
 21
105.352
  0
LINE
  8
0
 10
-1.13026
 20
105.352
 11
-1.04059
 21
105.274
  0
LINE
  8
0
 10
-1.04059
 20
105.274
 11
-1.03702
 21
105.273
  0
LINE
  8
0
 10
-1.03702
 20
105.273
 11
-0.944031
 21
105.254
  0
LINE
  8
0
 10
-0.944031
 20
105.254
 11
-0.850662
 21
105.236
  0
LINE
  8
0
 10
-0.850662
 20
105.236
 11
-0.847046
 21
105.236
  0
LINE
  8
0
 10
-0.847046
 20
105.236
 11
-0.734741
 21
105.273
  0
LINE
  8
0
 10
-0.734741
 20
105.273
 11
-0.678375
 21
105.366
  0
LINE
  8
0
 10
-0.678375
 20
105.366
 11
-0.656052
 21
105.474
  0
LINE
  8
0
 10
-0.656052
 20
105.474
 11
-0.620544
 21
105.579
  0
LINE
  8
0
 10
-0.620544
 20
105.579
 11
-0.572357
 21
105.68
  0
LINE
  8
0
 10
-0.572357
 20
105.68
 11
-0.511993
 21
105.775
  0
LINE
  8
0
 10
-0.511993
 20
105.775
 11
-0.406158
 21
105.873
  0
LINE
  8
0
 10
-0.406158
 20
105.873
 11
-0.281647
 21
105.943
  0
LINE
  8
0
 10
-0.281647
 20
105.943
 11
-0.144287
 21
105.986
  0
LINE
  8
0
 10
-0.144287
 20
105.986
 11
0
 21
106
  0
LINE
  8
0
 10
0
 20
106
 11
0.144287
 21
105.986
  0
LINE
  8
0
 10
0.144287
 20
105.986
 11
0.281647
 21
105.943
  0
LINE
  8
0
 10
0.281647
 20
105.943
 11
0.406158
 21
105.873
  0
LINE
  8
0
 10
0.406158
 20
105.873
 11
0.511993
 21
105.775
  0
LINE
  8
0
 10
0.511993
 20
105.775
 11
0.572189
 21
105.68
  0
LINE
  8
0
 10
0.572189
 20
105.68
 11
0.620392
 21
105.579
  0
LINE
  8
0
 10
0.620392
 20
105.579
 11
0.655991
 21
105.474
  0
LINE
  8
0
 10
0.655991
 20
105.474
 11
0.678375
 21
105.366
  0
LINE
  8
0
 10
0.678375
 20
105.366
 11
0.734589
 21
105.273
  0
LINE
  8
0
 10
0.734589
 20
105.273
 11
0.847046
 21
105.236
  0
LINE
  8
0
 10
0.847046
 20
105.236
 11
0.850662
 21
105.236
  0
LINE
  8
0
 10
-0.109879
 20
108.253
 11
-0.327911
 21
108.281
  0
LINE
  8
0
 10
-0.327911
 20
108.281
 11
-0.540771
 21
108.336
  0
LINE
  8
0
 10
-0.540771
 20
108.336
 11
-0.745102
 21
108.417
  0
LINE
  8
0
 10
-0.745102
 20
108.417
 11
-0.937683
 21
108.522
  0
LINE
  8
0
 10
-0.937683
 20
108.522
 11
-1.11548
 21
108.652
  0
LINE
  8
0
 10
-1.11548
 20
108.652
 11
-1.27568
 21
108.802
  0
LINE
  8
0
 10
-1.27568
 20
108.802
 11
-1.41577
 21
108.971
  0
LINE
  8
0
 10
-1.41577
 20
108.971
 11
-1.53352
 21
109.157
  0
LINE
  8
0
 10
-1.53352
 20
109.157
 11
-1.62711
 21
109.356
  0
LINE
  8
0
 10
-1.62711
 20
109.356
 11
-1.69501
 21
109.565
  0
LINE
  8
0
 10
-1.69501
 20
109.565
 11
-1.73619
 21
109.781
  0
LINE
  8
0
 10
-1.73619
 20
109.781
 11
-1.75
 21
110
  0
LINE
  8
0
 10
-1.75
 20
110
 11
-1.73619
 21
110.219
  0
LINE
  8
0
 10
-1.73619
 20
110.219
 11
-1.69501
 21
110.435
  0
LINE
  8
0
 10
-1.69501
 20
110.435
 11
-1.62711
 21
110.644
  0
LINE
  8
0
 10
-1.62711
 20
110.644
 11
-1.53352
 21
110.843
  0
LINE
  8
0
 10
-1.53352
 20
110.843
 11
-1.43393
 21
111
  0
LINE
  8
0
 10
-1.43393
 20
111
 11
1.43393
 21
111
  0
LINE
  8
0
 10
1.43393
 20
111
 11
1.53352
 21
110.843
  0
LINE
  8
0
 10
1.53352
 20
110.843
 11
1.62711
 21
110.644
  0
LINE
  8
0
 10
1.62711
 20
110.644
 11
1.69501
 21
110.435
  0
LINE
  8
0
 10
1.69501
 20
110.435
 11
1.73619
 21
110.219
  0
LINE
  8
0
 10
1.73619
 20
110.219
 11
1.75
 21
110
  0
LINE
  8
0
 10
1.75
 20
110
 11
1.73619
 21
109.781
  0
LINE
  8
0
 10
1.73619
 20
109.781
 11
1.69501
 21
109.565
  0
LINE
  8
0
 10
1.69501
 20
109.565
 11
1.62711
 21
109.356
  0
LINE
  8
0
 10
1.62711
 20
109.356
 11
1.53352
 21
109.157
  0
LINE
  8
0
 10
1.53352
 20
109.157
 11
1.41577
 21
108.971
  0
LINE
  8
0
 10
1.41577
 20
108.971
 11
1.27568
 21
108.802
  0
LINE
  8
0
 10
1.27568
 20
108.802
 11
1.11548
 21
108.652
  0
LINE
  8
0
 10
1.11548
 20
108.652
 11
0.937683
 21
108.522
  0
LINE
  8
0
 10
0.937683
 20
108.522
 11
0.745102
 21
108.417
  0
LINE
  8
0
 10
0.745102
 20
108.417
 11
0.540771
 21
108.336
  0
LINE
  8
0
 10
0.540771
 20
108.336
 11
0.327911
 21
108.281
  0
LINE
  8
0
 10
0.327911
 20
108.281
 11
0.109879
 21
108.253
  0
LINE
  8
0
 10
0.109879
 20
108.253
 11
-0.109879
 21
108.253
  0
ENDSEC
  0
SECTION
  2
OBJECTS
  0
DICTIONARY
  0
ENDSEC
  0
EOF
