  0
SECTION
  2
BLOCKS
  0
ENDSEC
  0
SECTION
  2
ENTITIES
  0
LINE
  8
0
 10
130.937
 20
184.589
 11
131.545
 21
184.745
  0
LINE
  8
0
 10
131.545
 20
184.745
 11
132.129
 21
184.976
  0
LINE
  8
0
 10
132.129
 20
184.976
 11
132.679
 21
185.278
  0
LINE
  8
0
 10
132.679
 20
185.278
 11
133.187
 21
185.647
  0
LINE
  8
0
 10
133.187
 20
185.647
 11
133.645
 21
186.077
  0
LINE
  8
0
 10
133.645
 20
186.077
 11
134.045
 21
186.561
  0
LINE
  8
0
 10
134.045
 20
186.561
 11
134.382
 21
187.091
  0
LINE
  8
0
 10
134.382
 20
187.091
 11
134.649
 21
187.659
  0
LINE
  8
0
 10
134.649
 20
187.659
 11
134.843
 21
188.257
  0
LINE
  8
0
 10
134.843
 20
188.257
 11
134.961
 21
188.873
  0
LINE
  8
0
 10
134.961
 20
188.873
 11
135
 21
189.5
  0
LINE
  8
0
 10
135
 20
189.5
 11
135
 21
194.5
  0
LINE
  8
0
 10
135
 20
194.5
 11
134.961
 21
195.127
  0
LINE
  8
0
 10
134.961
 20
195.127
 11
134.843
 21
195.743
  0
LINE
  8
0
 10
134.843
 20
195.743
 11
134.649
 21
196.341
  0
LINE
  8
0
 10
134.649
 20
196.341
 11
134.382
 21
196.909
  0
LINE
  8
0
 10
134.382
 20
196.909
 11
134.045
 21
197.439
  0
LINE
  8
0
 10
134.045
 20
197.439
 11
133.645
 21
197.923
  0
LINE
  8
0
 10
133.645
 20
197.923
 11
133.187
 21
198.353
  0
LINE
  8
0
 10
133.187
 20
198.353
 11
132.679
 21
198.722
  0
LINE
  8
0
 10
132.679
 20
198.722
 11
132.129
 21
199.024
  0
LINE
  8
0
 10
132.129
 20
199.024
 11
131.545
 21
199.255
  0
LINE
  8
0
 10
131.545
 20
199.255
 11
130.937
 21
199.411
  0
LINE
  8
0
 10
130.937
 20
199.411
 11
130.314
 21
199.49
  0
LINE
  8
0
 10
130.314
 20
199.49
 11
-130.314
 21
199.49
  0
LINE
  8
0
 10
-130.314
 20
199.49
 11
-130.937
 21
199.411
  0
LINE
  8
0
 10
-130.937
 20
199.411
 11
-131.545
 21
199.255
  0
LINE
  8
0
 10
-131.545
 20
199.255
 11
-132.129
 21
199.024
  0
LINE
  8
0
 10
-132.129
 20
199.024
 11
-132.679
 21
198.722
  0
LINE
  8
0
 10
-132.679
 20
198.722
 11
-133.187
 21
198.353
  0
LINE
  8
0
 10
-133.187
 20
198.353
 11
-133.645
 21
197.923
  0
LINE
  8
0
 10
-133.645
 20
197.923
 11
-134.045
 21
197.439
  0
LINE
  8
0
 10
-134.045
 20
197.439
 11
-134.382
 21
196.909
  0
LINE
  8
0
 10
-134.382
 20
196.909
 11
-134.649
 21
196.341
  0
LINE
  8
0
 10
-134.649
 20
196.341
 11
-134.843
 21
195.743
  0
LINE
  8
0
 10
-134.843
 20
195.743
 11
-134.961
 21
195.127
  0
LINE
  8
0
 10
-134.961
 20
195.127
 11
-135
 21
194.5
  0
LINE
  8
0
 10
-135
 20
194.5
 11
-135
 21
189.5
  0
LINE
  8
0
 10
-135
 20
189.5
 11
-134.961
 21
188.873
  0
LINE
  8
0
 10
-134.961
 20
188.873
 11
-134.843
 21
188.257
  0
LINE
  8
0
 10
-134.843
 20
188.257
 11
-134.649
 21
187.659
  0
LINE
  8
0
 10
-134.649
 20
187.659
 11
-134.382
 21
187.091
  0
LINE
  8
0
 10
-134.382
 20
187.091
 11
-134.045
 21
186.561
  0
LINE
  8
0
 10
-134.045
 20
186.561
 11
-133.645
 21
186.077
  0
LINE
  8
0
 10
-133.645
 20
186.077
 11
-133.187
 21
185.647
  0
LINE
  8
0
 10
-133.187
 20
185.647
 11
-132.679
 21
185.278
  0
LINE
  8
0
 10
-132.679
 20
185.278
 11
-132.129
 21
184.976
  0
LINE
  8
0
 10
-132.129
 20
184.976
 11
-131.545
 21
184.745
  0
LINE
  8
0
 10
-131.545
 20
184.745
 11
-130.937
 21
184.589
  0
LINE
  8
0
 10
-130.937
 20
184.589
 11
-130.314
 21
184.51
  0
LINE
  8
0
 10
-130.314
 20
184.51
 11
130.314
 21
184.51
  0
LINE
  8
0
 10
130.314
 20
184.51
 11
130.937
 21
184.589
  0
LINE
  8
0
 10
-130.048
 20
185.009
 11
-130.64
 21
185.084
  0
LINE
  8
0
 10
-130.64
 20
185.084
 11
-131.218
 21
185.232
  0
LINE
  8
0
 10
-131.218
 20
185.232
 11
-131.772
 21
185.452
  0
LINE
  8
0
 10
-131.772
 20
185.452
 11
-132.295
 21
185.739
  0
LINE
  8
0
 10
-132.295
 20
185.739
 11
-132.778
 21
186.09
  0
LINE
  8
0
 10
-132.778
 20
186.09
 11
-133.213
 21
186.498
  0
LINE
  8
0
 10
-133.213
 20
186.498
 11
-133.593
 21
186.958
  0
LINE
  8
0
 10
-133.593
 20
186.958
 11
-133.912
 21
187.462
  0
LINE
  8
0
 10
-133.912
 20
187.462
 11
-134.166
 21
188.001
  0
LINE
  8
0
 10
-134.166
 20
188.001
 11
-134.351
 21
188.569
  0
LINE
  8
0
 10
-134.351
 20
188.569
 11
-134.463
 21
189.155
  0
LINE
  8
0
 10
-134.463
 20
189.155
 11
-134.5
 21
189.75
  0
LINE
  8
0
 10
-134.5
 20
189.75
 11
-134.5
 21
194.25
  0
LINE
  8
0
 10
-134.5
 20
194.25
 11
-134.463
 21
194.845
  0
LINE
  8
0
 10
-134.463
 20
194.845
 11
-134.351
 21
195.431
  0
LINE
  8
0
 10
-134.351
 20
195.431
 11
-134.166
 21
195.999
  0
LINE
  8
0
 10
-134.166
 20
195.999
 11
-133.912
 21
196.538
  0
LINE
  8
0
 10
-133.912
 20
196.538
 11
-133.593
 21
197.042
  0
LINE
  8
0
 10
-133.593
 20
197.042
 11
-133.213
 21
197.502
  0
LINE
  8
0
 10
-133.213
 20
197.502
 11
-132.778
 21
197.91
  0
LINE
  8
0
 10
-132.778
 20
197.91
 11
-132.295
 21
198.261
  0
LINE
  8
0
 10
-132.295
 20
198.261
 11
-131.772
 21
198.548
  0
LINE
  8
0
 10
-131.772
 20
198.548
 11
-131.218
 21
198.768
  0
LINE
  8
0
 10
-131.218
 20
198.768
 11
-130.64
 21
198.916
  0
LINE
  8
0
 10
-130.64
 20
198.916
 11
-130.048
 21
198.991
  0
LINE
  8
0
 10
-130.048
 20
198.991
 11
130.048
 21
198.991
  0
LINE
  8
0
 10
130.048
 20
198.991
 11
130.64
 21
198.916
  0
LINE
  8
0
 10
130.64
 20
198.916
 11
131.218
 21
198.768
  0
LINE
  8
0
 10
131.218
 20
198.768
 11
131.772
 21
198.548
  0
LINE
  8
0
 10
131.772
 20
198.548
 11
132.295
 21
198.261
  0
LINE
  8
0
 10
132.295
 20
198.261
 11
132.778
 21
197.91
  0
LINE
  8
0
 10
132.778
 20
197.91
 11
133.213
 21
197.502
  0
LINE
  8
0
 10
133.213
 20
197.502
 11
133.593
 21
197.042
  0
LINE
  8
0
 10
133.593
 20
197.042
 11
133.912
 21
196.538
  0
LINE
  8
0
 10
133.912
 20
196.538
 11
134.166
 21
195.999
  0
LINE
  8
0
 10
134.166
 20
195.999
 11
134.351
 21
195.431
  0
LINE
  8
0
 10
134.351
 20
195.431
 11
134.463
 21
194.845
  0
LINE
  8
0
 10
134.463
 20
194.845
 11
134.5
 21
194.25
  0
LINE
  8
0
 10
134.5
 20
194.25
 11
134.5
 21
189.75
  0
LINE
  8
0
 10
134.5
 20
189.75
 11
134.463
 21
189.155
  0
LINE
  8
0
 10
134.463
 20
189.155
 11
134.351
 21
188.569
  0
LINE
  8
0
 10
134.351
 20
188.569
 11
134.166
 21
188.001
  0
LINE
  8
0
 10
134.166
 20
188.001
 11
133.912
 21
187.462
  0
LINE
  8
0
 10
133.912
 20
187.462
 11
133.593
 21
186.958
  0
LINE
  8
0
 10
133.593
 20
186.958
 11
133.213
 21
186.498
  0
LINE
  8
0
 10
133.213
 20
186.498
 11
132.778
 21
186.09
  0
LINE
  8
0
 10
132.778
 20
186.09
 11
132.295
 21
185.739
  0
LINE
  8
0
 10
132.295
 20
185.739
 11
131.772
 21
185.452
  0
LINE
  8
0
 10
131.772
 20
185.452
 11
131.218
 21
185.232
  0
LINE
  8
0
 10
131.218
 20
185.232
 11
130.64
 21
185.084
  0
LINE
  8
0
 10
130.64
 20
185.084
 11
130.048
 21
185.009
  0
LINE
  8
0
 10
130.048
 20
185.009
 11
-130.048
 21
185.009
  0
LINE
  8
0
 10
130.937
 20
160.589
 11
131.545
 21
160.745
  0
LINE
  8
0
 10
131.545
 20
160.745
 11
132.129
 21
160.976
  0
LINE
  8
0
 10
132.129
 20
160.976
 11
132.679
 21
161.278
  0
LINE
  8
0
 10
132.679
 20
161.278
 11
133.187
 21
161.647
  0
LINE
  8
0
 10
133.187
 20
161.647
 11
133.645
 21
162.077
  0
LINE
  8
0
 10
133.645
 20
162.077
 11
134.045
 21
162.561
  0
LINE
  8
0
 10
134.045
 20
162.561
 11
134.382
 21
163.091
  0
LINE
  8
0
 10
134.382
 20
163.091
 11
134.649
 21
163.659
  0
LINE
  8
0
 10
134.649
 20
163.659
 11
134.843
 21
164.257
  0
LINE
  8
0
 10
134.843
 20
164.257
 11
134.961
 21
164.873
  0
LINE
  8
0
 10
134.961
 20
164.873
 11
135
 21
165.5
  0
LINE
  8
0
 10
135
 20
165.5
 11
135
 21
170.5
  0
LINE
  8
0
 10
135
 20
170.5
 11
134.961
 21
171.127
  0
LINE
  8
0
 10
134.961
 20
171.127
 11
134.843
 21
171.743
  0
LINE
  8
0
 10
134.843
 20
171.743
 11
134.649
 21
172.341
  0
LINE
  8
0
 10
134.649
 20
172.341
 11
134.382
 21
172.909
  0
LINE
  8
0
 10
134.382
 20
172.909
 11
134.045
 21
173.439
  0
LINE
  8
0
 10
134.045
 20
173.439
 11
133.645
 21
173.923
  0
LINE
  8
0
 10
133.645
 20
173.923
 11
133.187
 21
174.353
  0
LINE
  8
0
 10
133.187
 20
174.353
 11
132.679
 21
174.722
  0
LINE
  8
0
 10
132.679
 20
174.722
 11
132.129
 21
175.024
  0
LINE
  8
0
 10
132.129
 20
175.024
 11
131.545
 21
175.255
  0
LINE
  8
0
 10
131.545
 20
175.255
 11
130.937
 21
175.411
  0
LINE
  8
0
 10
130.937
 20
175.411
 11
130.314
 21
175.49
  0
LINE
  8
0
 10
130.314
 20
175.49
 11
-130.314
 21
175.49
  0
LINE
  8
0
 10
-130.314
 20
175.49
 11
-130.937
 21
175.411
  0
LINE
  8
0
 10
-130.937
 20
175.411
 11
-131.545
 21
175.255
  0
LINE
  8
0
 10
-131.545
 20
175.255
 11
-132.129
 21
175.024
  0
LINE
  8
0
 10
-132.129
 20
175.024
 11
-132.679
 21
174.722
  0
LINE
  8
0
 10
-132.679
 20
174.722
 11
-133.187
 21
174.353
  0
LINE
  8
0
 10
-133.187
 20
174.353
 11
-133.645
 21
173.923
  0
LINE
  8
0
 10
-133.645
 20
173.923
 11
-134.045
 21
173.439
  0
LINE
  8
0
 10
-134.045
 20
173.439
 11
-134.382
 21
172.909
  0
LINE
  8
0
 10
-134.382
 20
172.909
 11
-134.649
 21
172.341
  0
LINE
  8
0
 10
-134.649
 20
172.341
 11
-134.843
 21
171.743
  0
LINE
  8
0
 10
-134.843
 20
171.743
 11
-134.961
 21
171.127
  0
LINE
  8
0
 10
-134.961
 20
171.127
 11
-135
 21
170.5
  0
LINE
  8
0
 10
-135
 20
170.5
 11
-135
 21
165.5
  0
LINE
  8
0
 10
-135
 20
165.5
 11
-134.961
 21
164.873
  0
LINE
  8
0
 10
-134.961
 20
164.873
 11
-134.843
 21
164.257
  0
LINE
  8
0
 10
-134.843
 20
164.257
 11
-134.649
 21
163.659
  0
LINE
  8
0
 10
-134.649
 20
163.659
 11
-134.382
 21
163.091
  0
LINE
  8
0
 10
-134.382
 20
163.091
 11
-134.045
 21
162.561
  0
LINE
  8
0
 10
-134.045
 20
162.561
 11
-133.645
 21
162.077
  0
LINE
  8
0
 10
-133.645
 20
162.077
 11
-133.187
 21
161.647
  0
LINE
  8
0
 10
-133.187
 20
161.647
 11
-132.679
 21
161.278
  0
LINE
  8
0
 10
-132.679
 20
161.278
 11
-132.129
 21
160.976
  0
LINE
  8
0
 10
-132.129
 20
160.976
 11
-131.545
 21
160.745
  0
LINE
  8
0
 10
-131.545
 20
160.745
 11
-130.937
 21
160.589
  0
LINE
  8
0
 10
-130.937
 20
160.589
 11
-130.314
 21
160.51
  0
LINE
  8
0
 10
-130.314
 20
160.51
 11
130.314
 21
160.51
  0
LINE
  8
0
 10
130.314
 20
160.51
 11
130.937
 21
160.589
  0
LINE
  8
0
 10
-130.048
 20
161.009
 11
-130.64
 21
161.084
  0
LINE
  8
0
 10
-130.64
 20
161.084
 11
-131.218
 21
161.232
  0
LINE
  8
0
 10
-131.218
 20
161.232
 11
-131.772
 21
161.452
  0
LINE
  8
0
 10
-131.772
 20
161.452
 11
-132.295
 21
161.739
  0
LINE
  8
0
 10
-132.295
 20
161.739
 11
-132.778
 21
162.09
  0
LINE
  8
0
 10
-132.778
 20
162.09
 11
-133.213
 21
162.498
  0
LINE
  8
0
 10
-133.213
 20
162.498
 11
-133.593
 21
162.958
  0
LINE
  8
0
 10
-133.593
 20
162.958
 11
-133.912
 21
163.462
  0
LINE
  8
0
 10
-133.912
 20
163.462
 11
-134.166
 21
164.001
  0
LINE
  8
0
 10
-134.166
 20
164.001
 11
-134.351
 21
164.569
  0
LINE
  8
0
 10
-134.351
 20
164.569
 11
-134.463
 21
165.155
  0
LINE
  8
0
 10
-134.463
 20
165.155
 11
-134.5
 21
165.75
  0
LINE
  8
0
 10
-134.5
 20
165.75
 11
-134.5
 21
170.25
  0
LINE
  8
0
 10
-134.5
 20
170.25
 11
-134.463
 21
170.845
  0
LINE
  8
0
 10
-134.463
 20
170.845
 11
-134.351
 21
171.431
  0
LINE
  8
0
 10
-134.351
 20
171.431
 11
-134.166
 21
171.999
  0
LINE
  8
0
 10
-134.166
 20
171.999
 11
-133.912
 21
172.538
  0
LINE
  8
0
 10
-133.912
 20
172.538
 11
-133.593
 21
173.042
  0
LINE
  8
0
 10
-133.593
 20
173.042
 11
-133.213
 21
173.502
  0
LINE
  8
0
 10
-133.213
 20
173.502
 11
-132.778
 21
173.91
  0
LINE
  8
0
 10
-132.778
 20
173.91
 11
-132.295
 21
174.261
  0
LINE
  8
0
 10
-132.295
 20
174.261
 11
-131.772
 21
174.548
  0
LINE
  8
0
 10
-131.772
 20
174.548
 11
-131.218
 21
174.768
  0
LINE
  8
0
 10
-131.218
 20
174.768
 11
-130.64
 21
174.916
  0
LINE
  8
0
 10
-130.64
 20
174.916
 11
-130.048
 21
174.991
  0
LINE
  8
0
 10
-130.048
 20
174.991
 11
130.048
 21
174.991
  0
LINE
  8
0
 10
130.048
 20
174.991
 11
130.64
 21
174.916
  0
LINE
  8
0
 10
130.64
 20
174.916
 11
131.218
 21
174.768
  0
LINE
  8
0
 10
131.218
 20
174.768
 11
131.772
 21
174.548
  0
LINE
  8
0
 10
131.772
 20
174.548
 11
132.295
 21
174.261
  0
LINE
  8
0
 10
132.295
 20
174.261
 11
132.778
 21
173.91
  0
LINE
  8
0
 10
132.778
 20
173.91
 11
133.213
 21
173.502
  0
LINE
  8
0
 10
133.213
 20
173.502
 11
133.593
 21
173.042
  0
LINE
  8
0
 10
133.593
 20
173.042
 11
133.912
 21
172.538
  0
LINE
  8
0
 10
133.912
 20
172.538
 11
134.166
 21
171.999
  0
LINE
  8
0
 10
134.166
 20
171.999
 11
134.351
 21
171.431
  0
LINE
  8
0
 10
134.351
 20
171.431
 11
134.463
 21
170.845
  0
LINE
  8
0
 10
134.463
 20
170.845
 11
134.5
 21
170.25
  0
LINE
  8
0
 10
134.5
 20
170.25
 11
134.5
 21
165.75
  0
LINE
  8
0
 10
134.5
 20
165.75
 11
134.463
 21
165.155
  0
LINE
  8
0
 10
134.463
 20
165.155
 11
134.351
 21
164.569
  0
LINE
  8
0
 10
134.351
 20
164.569
 11
134.166
 21
164.001
  0
LINE
  8
0
 10
134.166
 20
164.001
 11
133.912
 21
163.462
  0
LINE
  8
0
 10
133.912
 20
163.462
 11
133.593
 21
162.958
  0
LINE
  8
0
 10
133.593
 20
162.958
 11
133.213
 21
162.498
  0
LINE
  8
0
 10
133.213
 20
162.498
 11
132.778
 21
162.09
  0
LINE
  8
0
 10
132.778
 20
162.09
 11
132.295
 21
161.739
  0
LINE
  8
0
 10
132.295
 20
161.739
 11
131.772
 21
161.452
  0
LINE
  8
0
 10
131.772
 20
161.452
 11
131.218
 21
161.232
  0
LINE
  8
0
 10
131.218
 20
161.232
 11
130.64
 21
161.084
  0
LINE
  8
0
 10
130.64
 20
161.084
 11
130.048
 21
161.009
  0
LINE
  8
0
 10
130.048
 20
161.009
 11
-130.048
 21
161.009
  0
LINE
  8
0
 10
130.937
 20
136.589
 11
131.545
 21
136.745
  0
LINE
  8
0
 10
131.545
 20
136.745
 11
132.129
 21
136.976
  0
LINE
  8
0
 10
132.129
 20
136.976
 11
132.679
 21
137.278
  0
LINE
  8
0
 10
132.679
 20
137.278
 11
133.187
 21
137.647
  0
LINE
  8
0
 10
133.187
 20
137.647
 11
133.645
 21
138.077
  0
LINE
  8
0
 10
133.645
 20
138.077
 11
134.045
 21
138.561
  0
LINE
  8
0
 10
134.045
 20
138.561
 11
134.382
 21
139.091
  0
LINE
  8
0
 10
134.382
 20
139.091
 11
134.649
 21
139.659
  0
LINE
  8
0
 10
134.649
 20
139.659
 11
134.843
 21
140.257
  0
LINE
  8
0
 10
134.843
 20
140.257
 11
134.961
 21
140.873
  0
LINE
  8
0
 10
134.961
 20
140.873
 11
135
 21
141.5
  0
LINE
  8
0
 10
135
 20
141.5
 11
135
 21
146.5
  0
LINE
  8
0
 10
135
 20
146.5
 11
134.961
 21
147.127
  0
LINE
  8
0
 10
134.961
 20
147.127
 11
134.843
 21
147.743
  0
LINE
  8
0
 10
134.843
 20
147.743
 11
134.649
 21
148.341
  0
LINE
  8
0
 10
134.649
 20
148.341
 11
134.382
 21
148.909
  0
LINE
  8
0
 10
134.382
 20
148.909
 11
134.045
 21
149.439
  0
LINE
  8
0
 10
134.045
 20
149.439
 11
133.645
 21
149.923
  0
LINE
  8
0
 10
133.645
 20
149.923
 11
133.187
 21
150.353
  0
LINE
  8
0
 10
133.187
 20
150.353
 11
132.679
 21
150.722
  0
LINE
  8
0
 10
132.679
 20
150.722
 11
132.129
 21
151.024
  0
LINE
  8
0
 10
132.129
 20
151.024
 11
131.545
 21
151.255
  0
LINE
  8
0
 10
131.545
 20
151.255
 11
130.937
 21
151.411
  0
LINE
  8
0
 10
130.937
 20
151.411
 11
130.314
 21
151.49
  0
LINE
  8
0
 10
130.314
 20
151.49
 11
-130.314
 21
151.49
  0
LINE
  8
0
 10
-130.314
 20
151.49
 11
-130.937
 21
151.411
  0
LINE
  8
0
 10
-130.937
 20
151.411
 11
-131.545
 21
151.255
  0
LINE
  8
0
 10
-131.545
 20
151.255
 11
-132.129
 21
151.024
  0
LINE
  8
0
 10
-132.129
 20
151.024
 11
-132.679
 21
150.722
  0
LINE
  8
0
 10
-132.679
 20
150.722
 11
-133.187
 21
150.353
  0
LINE
  8
0
 10
-133.187
 20
150.353
 11
-133.645
 21
149.923
  0
LINE
  8
0
 10
-133.645
 20
149.923
 11
-134.045
 21
149.439
  0
LINE
  8
0
 10
-134.045
 20
149.439
 11
-134.382
 21
148.909
  0
LINE
  8
0
 10
-134.382
 20
148.909
 11
-134.649
 21
148.341
  0
LINE
  8
0
 10
-134.649
 20
148.341
 11
-134.843
 21
147.743
  0
LINE
  8
0
 10
-134.843
 20
147.743
 11
-134.961
 21
147.127
  0
LINE
  8
0
 10
-134.961
 20
147.127
 11
-135
 21
146.5
  0
LINE
  8
0
 10
-135
 20
146.5
 11
-135
 21
141.5
  0
LINE
  8
0
 10
-135
 20
141.5
 11
-134.961
 21
140.873
  0
LINE
  8
0
 10
-134.961
 20
140.873
 11
-134.843
 21
140.257
  0
LINE
  8
0
 10
-134.843
 20
140.257
 11
-134.649
 21
139.659
  0
LINE
  8
0
 10
-134.649
 20
139.659
 11
-134.382
 21
139.091
  0
LINE
  8
0
 10
-134.382
 20
139.091
 11
-134.045
 21
138.561
  0
LINE
  8
0
 10
-134.045
 20
138.561
 11
-133.645
 21
138.077
  0
LINE
  8
0
 10
-133.645
 20
138.077
 11
-133.187
 21
137.647
  0
LINE
  8
0
 10
-133.187
 20
137.647
 11
-132.679
 21
137.278
  0
LINE
  8
0
 10
-132.679
 20
137.278
 11
-132.129
 21
136.976
  0
LINE
  8
0
 10
-132.129
 20
136.976
 11
-131.545
 21
136.745
  0
LINE
  8
0
 10
-131.545
 20
136.745
 11
-130.937
 21
136.589
  0
LINE
  8
0
 10
-130.937
 20
136.589
 11
-130.314
 21
136.51
  0
LINE
  8
0
 10
-130.314
 20
136.51
 11
130.314
 21
136.51
  0
LINE
  8
0
 10
130.314
 20
136.51
 11
130.937
 21
136.589
  0
LINE
  8
0
 10
-130.048
 20
137.009
 11
-130.64
 21
137.084
  0
LINE
  8
0
 10
-130.64
 20
137.084
 11
-131.218
 21
137.232
  0
LINE
  8
0
 10
-131.218
 20
137.232
 11
-131.772
 21
137.452
  0
LINE
  8
0
 10
-131.772
 20
137.452
 11
-132.295
 21
137.739
  0
LINE
  8
0
 10
-132.295
 20
137.739
 11
-132.778
 21
138.09
  0
LINE
  8
0
 10
-132.778
 20
138.09
 11
-133.213
 21
138.498
  0
LINE
  8
0
 10
-133.213
 20
138.498
 11
-133.593
 21
138.958
  0
LINE
  8
0
 10
-133.593
 20
138.958
 11
-133.912
 21
139.462
  0
LINE
  8
0
 10
-133.912
 20
139.462
 11
-134.166
 21
140.001
  0
LINE
  8
0
 10
-134.166
 20
140.001
 11
-134.351
 21
140.569
  0
LINE
  8
0
 10
-134.351
 20
140.569
 11
-134.463
 21
141.155
  0
LINE
  8
0
 10
-134.463
 20
141.155
 11
-134.5
 21
141.75
  0
LINE
  8
0
 10
-134.5
 20
141.75
 11
-134.5
 21
146.25
  0
LINE
  8
0
 10
-134.5
 20
146.25
 11
-134.463
 21
146.845
  0
LINE
  8
0
 10
-134.463
 20
146.845
 11
-134.351
 21
147.431
  0
LINE
  8
0
 10
-134.351
 20
147.431
 11
-134.166
 21
147.999
  0
LINE
  8
0
 10
-134.166
 20
147.999
 11
-133.912
 21
148.538
  0
LINE
  8
0
 10
-133.912
 20
148.538
 11
-133.593
 21
149.042
  0
LINE
  8
0
 10
-133.593
 20
149.042
 11
-133.213
 21
149.502
  0
LINE
  8
0
 10
-133.213
 20
149.502
 11
-132.778
 21
149.91
  0
LINE
  8
0
 10
-132.778
 20
149.91
 11
-132.295
 21
150.261
  0
LINE
  8
0
 10
-132.295
 20
150.261
 11
-131.772
 21
150.548
  0
LINE
  8
0
 10
-131.772
 20
150.548
 11
-131.218
 21
150.768
  0
LINE
  8
0
 10
-131.218
 20
150.768
 11
-130.64
 21
150.916
  0
LINE
  8
0
 10
-130.64
 20
150.916
 11
-130.048
 21
150.991
  0
LINE
  8
0
 10
-130.048
 20
150.991
 11
130.048
 21
150.991
  0
LINE
  8
0
 10
130.048
 20
150.991
 11
130.64
 21
150.916
  0
LINE
  8
0
 10
130.64
 20
150.916
 11
131.218
 21
150.768
  0
LINE
  8
0
 10
131.218
 20
150.768
 11
131.772
 21
150.548
  0
LINE
  8
0
 10
131.772
 20
150.548
 11
132.295
 21
150.261
  0
LINE
  8
0
 10
132.295
 20
150.261
 11
132.778
 21
149.91
  0
LINE
  8
0
 10
132.778
 20
149.91
 11
133.213
 21
149.502
  0
LINE
  8
0
 10
133.213
 20
149.502
 11
133.593
 21
149.042
  0
LINE
  8
0
 10
133.593
 20
149.042
 11
133.912
 21
148.538
  0
LINE
  8
0
 10
133.912
 20
148.538
 11
134.166
 21
147.999
  0
LINE
  8
0
 10
134.166
 20
147.999
 11
134.351
 21
147.431
  0
LINE
  8
0
 10
134.351
 20
147.431
 11
134.463
 21
146.845
  0
LINE
  8
0
 10
134.463
 20
146.845
 11
134.5
 21
146.25
  0
LINE
  8
0
 10
134.5
 20
146.25
 11
134.5
 21
141.75
  0
LINE
  8
0
 10
134.5
 20
141.75
 11
134.463
 21
141.155
  0
LINE
  8
0
 10
134.463
 20
141.155
 11
134.351
 21
140.569
  0
LINE
  8
0
 10
134.351
 20
140.569
 11
134.166
 21
140.001
  0
LINE
  8
0
 10
134.166
 20
140.001
 11
133.912
 21
139.462
  0
LINE
  8
0
 10
133.912
 20
139.462
 11
133.593
 21
138.958
  0
LINE
  8
0
 10
133.593
 20
138.958
 11
133.213
 21
138.498
  0
LINE
  8
0
 10
133.213
 20
138.498
 11
132.778
 21
138.09
  0
LINE
  8
0
 10
132.778
 20
138.09
 11
132.295
 21
137.739
  0
LINE
  8
0
 10
132.295
 20
137.739
 11
131.772
 21
137.452
  0
LINE
  8
0
 10
131.772
 20
137.452
 11
131.218
 21
137.232
  0
LINE
  8
0
 10
131.218
 20
137.232
 11
130.64
 21
137.084
  0
LINE
  8
0
 10
130.64
 20
137.084
 11
130.048
 21
137.009
  0
LINE
  8
0
 10
130.048
 20
137.009
 11
-130.048
 21
137.009
  0
LINE
  8
0
 10
130.937
 20
112.589
 11
131.545
 21
112.745
  0
LINE
  8
0
 10
131.545
 20
112.745
 11
132.129
 21
112.976
  0
LINE
  8
0
 10
132.129
 20
112.976
 11
132.679
 21
113.278
  0
LINE
  8
0
 10
132.679
 20
113.278
 11
133.187
 21
113.647
  0
LINE
  8
0
 10
133.187
 20
113.647
 11
133.645
 21
114.077
  0
LINE
  8
0
 10
133.645
 20
114.077
 11
134.045
 21
114.561
  0
LINE
  8
0
 10
134.045
 20
114.561
 11
134.382
 21
115.091
  0
LINE
  8
0
 10
134.382
 20
115.091
 11
134.649
 21
115.659
  0
LINE
  8
0
 10
134.649
 20
115.659
 11
134.843
 21
116.257
  0
LINE
  8
0
 10
134.843
 20
116.257
 11
134.961
 21
116.873
  0
LINE
  8
0
 10
134.961
 20
116.873
 11
135
 21
117.5
  0
LINE
  8
0
 10
135
 20
117.5
 11
135
 21
122.5
  0
LINE
  8
0
 10
135
 20
122.5
 11
134.961
 21
123.127
  0
LINE
  8
0
 10
134.961
 20
123.127
 11
134.843
 21
123.743
  0
LINE
  8
0
 10
134.843
 20
123.743
 11
134.649
 21
124.341
  0
LINE
  8
0
 10
134.649
 20
124.341
 11
134.382
 21
124.909
  0
LINE
  8
0
 10
134.382
 20
124.909
 11
134.045
 21
125.439
  0
LINE
  8
0
 10
134.045
 20
125.439
 11
133.645
 21
125.923
  0
LINE
  8
0
 10
133.645
 20
125.923
 11
133.187
 21
126.353
  0
LINE
  8
0
 10
133.187
 20
126.353
 11
132.679
 21
126.722
  0
LINE
  8
0
 10
132.679
 20
126.722
 11
132.129
 21
127.024
  0
LINE
  8
0
 10
132.129
 20
127.024
 11
131.545
 21
127.255
  0
LINE
  8
0
 10
131.545
 20
127.255
 11
130.937
 21
127.411
  0
LINE
  8
0
 10
130.937
 20
127.411
 11
130.314
 21
127.49
  0
LINE
  8
0
 10
130.314
 20
127.49
 11
-130.314
 21
127.49
  0
LINE
  8
0
 10
-130.314
 20
127.49
 11
-130.937
 21
127.411
  0
LINE
  8
0
 10
-130.937
 20
127.411
 11
-131.545
 21
127.255
  0
LINE
  8
0
 10
-131.545
 20
127.255
 11
-132.129
 21
127.024
  0
LINE
  8
0
 10
-132.129
 20
127.024
 11
-132.679
 21
126.722
  0
LINE
  8
0
 10
-132.679
 20
126.722
 11
-133.187
 21
126.353
  0
LINE
  8
0
 10
-133.187
 20
126.353
 11
-133.645
 21
125.923
  0
LINE
  8
0
 10
-133.645
 20
125.923
 11
-134.045
 21
125.439
  0
LINE
  8
0
 10
-134.045
 20
125.439
 11
-134.382
 21
124.909
  0
LINE
  8
0
 10
-134.382
 20
124.909
 11
-134.649
 21
124.341
  0
LINE
  8
0
 10
-134.649
 20
124.341
 11
-134.843
 21
123.743
  0
LINE
  8
0
 10
-134.843
 20
123.743
 11
-134.961
 21
123.127
  0
LINE
  8
0
 10
-134.961
 20
123.127
 11
-135
 21
122.5
  0
LINE
  8
0
 10
-135
 20
122.5
 11
-135
 21
117.5
  0
LINE
  8
0
 10
-135
 20
117.5
 11
-134.961
 21
116.873
  0
LINE
  8
0
 10
-134.961
 20
116.873
 11
-134.843
 21
116.257
  0
LINE
  8
0
 10
-134.843
 20
116.257
 11
-134.649
 21
115.659
  0
LINE
  8
0
 10
-134.649
 20
115.659
 11
-134.382
 21
115.091
  0
LINE
  8
0
 10
-134.382
 20
115.091
 11
-134.045
 21
114.561
  0
LINE
  8
0
 10
-134.045
 20
114.561
 11
-133.645
 21
114.077
  0
LINE
  8
0
 10
-133.645
 20
114.077
 11
-133.187
 21
113.647
  0
LINE
  8
0
 10
-133.187
 20
113.647
 11
-132.679
 21
113.278
  0
LINE
  8
0
 10
-132.679
 20
113.278
 11
-132.129
 21
112.976
  0
LINE
  8
0
 10
-132.129
 20
112.976
 11
-131.545
 21
112.745
  0
LINE
  8
0
 10
-131.545
 20
112.745
 11
-130.937
 21
112.589
  0
LINE
  8
0
 10
-130.937
 20
112.589
 11
-130.314
 21
112.51
  0
LINE
  8
0
 10
-130.314
 20
112.51
 11
130.314
 21
112.51
  0
LINE
  8
0
 10
130.314
 20
112.51
 11
130.937
 21
112.589
  0
LINE
  8
0
 10
-129.993
 20
113.888
 11
-130.475
 21
113.949
  0
LINE
  8
0
 10
-130.475
 20
113.949
 11
-130.946
 21
114.07
  0
LINE
  8
0
 10
-130.946
 20
114.07
 11
-131.398
 21
114.249
  0
LINE
  8
0
 10
-131.398
 20
114.249
 11
-131.823
 21
114.483
  0
LINE
  8
0
 10
-131.823
 20
114.483
 11
-132.216
 21
114.769
  0
LINE
  8
0
 10
-132.216
 20
114.769
 11
-132.571
 21
115.101
  0
LINE
  8
0
 10
-132.571
 20
115.101
 11
-132.88
 21
115.476
  0
LINE
  8
0
 10
-132.88
 20
115.476
 11
-133.141
 21
115.886
  0
LINE
  8
0
 10
-133.141
 20
115.886
 11
-133.348
 21
116.326
  0
LINE
  8
0
 10
-133.348
 20
116.326
 11
-133.498
 21
116.788
  0
LINE
  8
0
 10
-133.498
 20
116.788
 11
-133.589
 21
117.265
  0
LINE
  8
0
 10
-133.589
 20
117.265
 11
-133.619
 21
117.75
  0
LINE
  8
0
 10
-133.619
 20
117.75
 11
-133.619
 21
122.25
  0
LINE
  8
0
 10
-133.619
 20
122.25
 11
-133.589
 21
122.735
  0
LINE
  8
0
 10
-133.589
 20
122.735
 11
-133.498
 21
123.212
  0
LINE
  8
0
 10
-133.498
 20
123.212
 11
-133.348
 21
123.674
  0
LINE
  8
0
 10
-133.348
 20
123.674
 11
-133.141
 21
124.114
  0
LINE
  8
0
 10
-133.141
 20
124.114
 11
-132.88
 21
124.524
  0
LINE
  8
0
 10
-132.88
 20
124.524
 11
-132.571
 21
124.899
  0
LINE
  8
0
 10
-132.571
 20
124.899
 11
-132.216
 21
125.231
  0
LINE
  8
0
 10
-132.216
 20
125.231
 11
-131.823
 21
125.517
  0
LINE
  8
0
 10
-131.823
 20
125.517
 11
-131.398
 21
125.751
  0
LINE
  8
0
 10
-131.398
 20
125.751
 11
-130.946
 21
125.93
  0
LINE
  8
0
 10
-130.946
 20
125.93
 11
-130.475
 21
126.051
  0
LINE
  8
0
 10
-130.475
 20
126.051
 11
-129.993
 21
126.112
  0
LINE
  8
0
 10
-129.993
 20
126.112
 11
129.993
 21
126.112
  0
LINE
  8
0
 10
129.993
 20
126.112
 11
130.475
 21
126.051
  0
LINE
  8
0
 10
130.475
 20
126.051
 11
130.946
 21
125.93
  0
LINE
  8
0
 10
130.946
 20
125.93
 11
131.398
 21
125.751
  0
LINE
  8
0
 10
131.398
 20
125.751
 11
131.823
 21
125.517
  0
LINE
  8
0
 10
131.823
 20
125.517
 11
132.216
 21
125.231
  0
LINE
  8
0
 10
132.216
 20
125.231
 11
132.571
 21
124.899
  0
LINE
  8
0
 10
132.571
 20
124.899
 11
132.88
 21
124.524
  0
LINE
  8
0
 10
132.88
 20
124.524
 11
133.141
 21
124.114
  0
LINE
  8
0
 10
133.141
 20
124.114
 11
133.348
 21
123.674
  0
LINE
  8
0
 10
133.348
 20
123.674
 11
133.498
 21
123.212
  0
LINE
  8
0
 10
133.498
 20
123.212
 11
133.589
 21
122.735
  0
LINE
  8
0
 10
133.589
 20
122.735
 11
133.619
 21
122.25
  0
LINE
  8
0
 10
133.619
 20
122.25
 11
133.619
 21
117.75
  0
LINE
  8
0
 10
133.619
 20
117.75
 11
133.589
 21
117.265
  0
LINE
  8
0
 10
133.589
 20
117.265
 11
133.498
 21
116.788
  0
LINE
  8
0
 10
133.498
 20
116.788
 11
133.348
 21
116.326
  0
LINE
  8
0
 10
133.348
 20
116.326
 11
133.141
 21
115.886
  0
LINE
  8
0
 10
133.141
 20
115.886
 11
132.88
 21
115.476
  0
LINE
  8
0
 10
132.88
 20
115.476
 11
132.571
 21
115.101
  0
LINE
  8
0
 10
132.571
 20
115.101
 11
132.216
 21
114.769
  0
LINE
  8
0
 10
132.216
 20
114.769
 11
131.823
 21
114.483
  0
LINE
  8
0
 10
131.823
 20
114.483
 11
131.398
 21
114.249
  0
LINE
  8
0
 10
131.398
 20
114.249
 11
130.946
 21
114.07
  0
LINE
  8
0
 10
130.946
 20
114.07
 11
130.475
 21
113.949
  0
LINE
  8
0
 10
130.475
 20
113.949
 11
129.993
 21
113.888
  0
LINE
  8
0
 10
129.993
 20
113.888
 11
-129.993
 21
113.888
  0
LINE
  8
0
 10
130.937
 20
88.5886
 11
131.545
 21
88.7447
  0
LINE
  8
0
 10
131.545
 20
88.7447
 11
132.129
 21
88.9759
  0
LINE
  8
0
 10
132.129
 20
88.9759
 11
132.679
 21
89.2784
  0
LINE
  8
0
 10
132.679
 20
89.2784
 11
133.187
 21
89.6474
  0
LINE
  8
0
 10
133.187
 20
89.6474
 11
133.645
 21
90.0773
  0
LINE
  8
0
 10
133.645
 20
90.0773
 11
134.045
 21
90.5611
  0
LINE
  8
0
 10
134.045
 20
90.5611
 11
134.382
 21
91.0912
  0
LINE
  8
0
 10
134.382
 20
91.0912
 11
134.649
 21
91.6594
  0
LINE
  8
0
 10
134.649
 20
91.6594
 11
134.843
 21
92.2566
  0
LINE
  8
0
 10
134.843
 20
92.2566
 11
134.961
 21
92.8733
  0
LINE
  8
0
 10
134.961
 20
92.8733
 11
135
 21
93.5
  0
LINE
  8
0
 10
135
 20
93.5
 11
135
 21
98.5
  0
LINE
  8
0
 10
135
 20
98.5
 11
134.961
 21
99.1267
  0
LINE
  8
0
 10
134.961
 20
99.1267
 11
134.843
 21
99.7434
  0
LINE
  8
0
 10
134.843
 20
99.7434
 11
134.649
 21
100.341
  0
LINE
  8
0
 10
134.649
 20
100.341
 11
134.382
 21
100.909
  0
LINE
  8
0
 10
134.382
 20
100.909
 11
134.045
 21
101.439
  0
LINE
  8
0
 10
134.045
 20
101.439
 11
133.645
 21
101.923
  0
LINE
  8
0
 10
133.645
 20
101.923
 11
133.187
 21
102.353
  0
LINE
  8
0
 10
133.187
 20
102.353
 11
132.679
 21
102.722
  0
LINE
  8
0
 10
132.679
 20
102.722
 11
132.129
 21
103.024
  0
LINE
  8
0
 10
132.129
 20
103.024
 11
131.545
 21
103.255
  0
LINE
  8
0
 10
131.545
 20
103.255
 11
130.937
 21
103.411
  0
LINE
  8
0
 10
130.937
 20
103.411
 11
130.314
 21
103.49
  0
LINE
  8
0
 10
130.314
 20
103.49
 11
-130.314
 21
103.49
  0
LINE
  8
0
 10
-130.314
 20
103.49
 11
-130.937
 21
103.411
  0
LINE
  8
0
 10
-130.937
 20
103.411
 11
-131.545
 21
103.255
  0
LINE
  8
0
 10
-131.545
 20
103.255
 11
-132.129
 21
103.024
  0
LINE
  8
0
 10
-132.129
 20
103.024
 11
-132.679
 21
102.722
  0
LINE
  8
0
 10
-132.679
 20
102.722
 11
-133.187
 21
102.353
  0
LINE
  8
0
 10
-133.187
 20
102.353
 11
-133.645
 21
101.923
  0
LINE
  8
0
 10
-133.645
 20
101.923
 11
-134.045
 21
101.439
  0
LINE
  8
0
 10
-134.045
 20
101.439
 11
-134.382
 21
100.909
  0
LINE
  8
0
 10
-134.382
 20
100.909
 11
-134.649
 21
100.341
  0
LINE
  8
0
 10
-134.649
 20
100.341
 11
-134.843
 21
99.7434
  0
LINE
  8
0
 10
-134.843
 20
99.7434
 11
-134.961
 21
99.1267
  0
LINE
  8
0
 10
-134.961
 20
99.1267
 11
-135
 21
98.5
  0
LINE
  8
0
 10
-135
 20
98.5
 11
-135
 21
93.5
  0
LINE
  8
0
 10
-135
 20
93.5
 11
-134.961
 21
92.8733
  0
LINE
  8
0
 10
-134.961
 20
92.8733
 11
-134.843
 21
92.2566
  0
LINE
  8
0
 10
-134.843
 20
92.2566
 11
-134.649
 21
91.6594
  0
LINE
  8
0
 10
-134.649
 20
91.6594
 11
-134.382
 21
91.0912
  0
LINE
  8
0
 10
-134.382
 20
91.0912
 11
-134.045
 21
90.5611
  0
LINE
  8
0
 10
-134.045
 20
90.5611
 11
-133.645
 21
90.0773
  0
LINE
  8
0
 10
-133.645
 20
90.0773
 11
-133.187
 21
89.6474
  0
LINE
  8
0
 10
-133.187
 20
89.6474
 11
-132.679
 21
89.2784
  0
LINE
  8
0
 10
-132.679
 20
89.2784
 11
-132.129
 21
88.9759
  0
LINE
  8
0
 10
-132.129
 20
88.9759
 11
-131.545
 21
88.7447
  0
LINE
  8
0
 10
-131.545
 20
88.7447
 11
-130.937
 21
88.5886
  0
LINE
  8
0
 10
-130.937
 20
88.5886
 11
-130.314
 21
88.5099
  0
LINE
  8
0
 10
-130.314
 20
88.5099
 11
130.314
 21
88.5099
  0
LINE
  8
0
 10
130.314
 20
88.5099
 11
130.937
 21
88.5886
  0
LINE
  8
0
 10
-127.613
 20
94.2036
 11
-127.837
 21
94.2319
  0
LINE
  8
0
 10
-127.837
 20
94.2319
 11
-128.056
 21
94.2881
  0
LINE
  8
0
 10
-128.056
 20
94.2881
 11
-128.266
 21
94.3713
  0
LINE
  8
0
 10
-128.266
 20
94.3713
 11
-128.464
 21
94.4802
  0
LINE
  8
0
 10
-128.464
 20
94.4802
 11
-128.647
 21
94.6131
  0
LINE
  8
0
 10
-128.647
 20
94.6131
 11
-128.812
 21
94.7678
  0
LINE
  8
0
 10
-128.812
 20
94.7678
 11
-128.956
 21
94.942
  0
LINE
  8
0
 10
-128.956
 20
94.942
 11
-129.077
 21
95.1329
  0
LINE
  8
0
 10
-129.077
 20
95.1329
 11
-129.174
 21
95.3374
  0
LINE
  8
0
 10
-129.174
 20
95.3374
 11
-129.243
 21
95.5524
  0
LINE
  8
0
 10
-129.243
 20
95.5524
 11
-129.286
 21
95.7744
  0
LINE
  8
0
 10
-129.286
 20
95.7744
 11
-129.3
 21
96
  0
LINE
  8
0
 10
-129.3
 20
96
 11
-129.286
 21
96.2256
  0
LINE
  8
0
 10
-129.286
 20
96.2256
 11
-129.243
 21
96.4476
  0
LINE
  8
0
 10
-129.243
 20
96.4476
 11
-129.174
 21
96.6626
  0
LINE
  8
0
 10
-129.174
 20
96.6626
 11
-129.077
 21
96.8671
  0
LINE
  8
0
 10
-129.077
 20
96.8671
 11
-128.956
 21
97.058
  0
LINE
  8
0
 10
-128.956
 20
97.058
 11
-128.812
 21
97.2322
  0
LINE
  8
0
 10
-128.812
 20
97.2322
 11
-128.647
 21
97.3869
  0
LINE
  8
0
 10
-128.647
 20
97.3869
 11
-128.464
 21
97.5198
  0
LINE
  8
0
 10
-128.464
 20
97.5198
 11
-128.266
 21
97.6287
  0
LINE
  8
0
 10
-128.266
 20
97.6287
 11
-128.056
 21
97.7119
  0
LINE
  8
0
 10
-128.056
 20
97.7119
 11
-127.837
 21
97.7681
  0
LINE
  8
0
 10
-127.837
 20
97.7681
 11
-127.613
 21
97.7964
  0
LINE
  8
0
 10
-127.613
 20
97.7964
 11
-127.387
 21
97.7964
  0
LINE
  8
0
 10
-127.387
 20
97.7964
 11
-127.163
 21
97.7681
  0
LINE
  8
0
 10
-127.163
 20
97.7681
 11
-126.944
 21
97.7119
  0
LINE
  8
0
 10
-126.944
 20
97.7119
 11
-126.734
 21
97.6287
  0
LINE
  8
0
 10
-126.734
 20
97.6287
 11
-126.536
 21
97.5198
  0
LINE
  8
0
 10
-126.536
 20
97.5198
 11
-126.353
 21
97.3869
  0
LINE
  8
0
 10
-126.353
 20
97.3869
 11
-126.188
 21
97.2322
  0
LINE
  8
0
 10
-126.188
 20
97.2322
 11
-126.044
 21
97.058
  0
LINE
  8
0
 10
-126.044
 20
97.058
 11
-125.923
 21
96.8671
  0
LINE
  8
0
 10
-125.923
 20
96.8671
 11
-125.826
 21
96.6626
  0
LINE
  8
0
 10
-125.826
 20
96.6626
 11
-125.757
 21
96.4476
  0
LINE
  8
0
 10
-125.757
 20
96.4476
 11
-125.714
 21
96.2256
  0
LINE
  8
0
 10
-125.714
 20
96.2256
 11
-125.7
 21
96
  0
LINE
  8
0
 10
-125.7
 20
96
 11
-125.714
 21
95.7744
  0
LINE
  8
0
 10
-125.714
 20
95.7744
 11
-125.757
 21
95.5524
  0
LINE
  8
0
 10
-125.757
 20
95.5524
 11
-125.826
 21
95.3374
  0
LINE
  8
0
 10
-125.826
 20
95.3374
 11
-125.923
 21
95.1329
  0
LINE
  8
0
 10
-125.923
 20
95.1329
 11
-126.044
 21
94.942
  0
LINE
  8
0
 10
-126.044
 20
94.942
 11
-126.188
 21
94.7678
  0
LINE
  8
0
 10
-126.188
 20
94.7678
 11
-126.353
 21
94.6131
  0
LINE
  8
0
 10
-126.353
 20
94.6131
 11
-126.536
 21
94.4802
  0
LINE
  8
0
 10
-126.536
 20
94.4802
 11
-126.734
 21
94.3713
  0
LINE
  8
0
 10
-126.734
 20
94.3713
 11
-126.944
 21
94.2881
  0
LINE
  8
0
 10
-126.944
 20
94.2881
 11
-127.163
 21
94.2319
  0
LINE
  8
0
 10
-127.163
 20
94.2319
 11
-127.387
 21
94.2036
  0
LINE
  8
0
 10
-127.387
 20
94.2036
 11
-127.613
 21
94.2036
  0
LINE
  8
0
 10
127.387
 20
94.2036
 11
127.163
 21
94.2319
  0
LINE
  8
0
 10
127.163
 20
94.2319
 11
126.944
 21
94.2881
  0
LINE
  8
0
 10
126.944
 20
94.2881
 11
126.734
 21
94.3713
  0
LINE
  8
0
 10
126.734
 20
94.3713
 11
126.536
 21
94.4802
  0
LINE
  8
0
 10
126.536
 20
94.4802
 11
126.353
 21
94.6131
  0
LINE
  8
0
 10
126.353
 20
94.6131
 11
126.188
 21
94.7678
  0
LINE
  8
0
 10
126.188
 20
94.7678
 11
126.044
 21
94.942
  0
LINE
  8
0
 10
126.044
 20
94.942
 11
125.923
 21
95.1329
  0
LINE
  8
0
 10
125.923
 20
95.1329
 11
125.826
 21
95.3374
  0
LINE
  8
0
 10
125.826
 20
95.3374
 11
125.757
 21
95.5524
  0
LINE
  8
0
 10
125.757
 20
95.5524
 11
125.714
 21
95.7744
  0
LINE
  8
0
 10
125.714
 20
95.7744
 11
125.7
 21
96
  0
LINE
  8
0
 10
125.7
 20
96
 11
125.714
 21
96.2256
  0
LINE
  8
0
 10
125.714
 20
96.2256
 11
125.757
 21
96.4476
  0
LINE
  8
0
 10
125.757
 20
96.4476
 11
125.826
 21
96.6626
  0
LINE
  8
0
 10
125.826
 20
96.6626
 11
125.923
 21
96.8671
  0
LINE
  8
0
 10
125.923
 20
96.8671
 11
126.044
 21
97.058
  0
LINE
  8
0
 10
126.044
 20
97.058
 11
126.188
 21
97.2322
  0
LINE
  8
0
 10
126.188
 20
97.2322
 11
126.353
 21
97.3869
  0
LINE
  8
0
 10
126.353
 20
97.3869
 11
126.536
 21
97.5198
  0
LINE
  8
0
 10
126.536
 20
97.5198
 11
126.734
 21
97.6287
  0
LINE
  8
0
 10
126.734
 20
97.6287
 11
126.944
 21
97.7119
  0
LINE
  8
0
 10
126.944
 20
97.7119
 11
127.163
 21
97.7681
  0
LINE
  8
0
 10
127.163
 20
97.7681
 11
127.387
 21
97.7964
  0
LINE
  8
0
 10
127.387
 20
97.7964
 11
127.613
 21
97.7964
  0
LINE
  8
0
 10
127.613
 20
97.7964
 11
127.837
 21
97.7681
  0
LINE
  8
0
 10
127.837
 20
97.7681
 11
128.056
 21
97.7119
  0
LINE
  8
0
 10
128.056
 20
97.7119
 11
128.266
 21
97.6287
  0
LINE
  8
0
 10
128.266
 20
97.6287
 11
128.464
 21
97.5198
  0
LINE
  8
0
 10
128.464
 20
97.5198
 11
128.647
 21
97.3869
  0
LINE
  8
0
 10
128.647
 20
97.3869
 11
128.812
 21
97.2322
  0
LINE
  8
0
 10
128.812
 20
97.2322
 11
128.956
 21
97.058
  0
LINE
  8
0
 10
128.956
 20
97.058
 11
129.077
 21
96.8671
  0
LINE
  8
0
 10
129.077
 20
96.8671
 11
129.174
 21
96.6626
  0
LINE
  8
0
 10
129.174
 20
96.6626
 11
129.243
 21
96.4476
  0
LINE
  8
0
 10
129.243
 20
96.4476
 11
129.286
 21
96.2256
  0
LINE
  8
0
 10
129.286
 20
96.2256
 11
129.3
 21
96
  0
LINE
  8
0
 10
129.3
 20
96
 11
129.286
 21
95.7744
  0
LINE
  8
0
 10
129.286
 20
95.7744
 11
129.243
 21
95.5524
  0
LINE
  8
0
 10
129.243
 20
95.5524
 11
129.174
 21
95.3374
  0
LINE
  8
0
 10
129.174
 20
95.3374
 11
129.077
 21
95.1329
  0
LINE
  8
0
 10
129.077
 20
95.1329
 11
128.956
 21
94.942
  0
LINE
  8
0
 10
128.956
 20
94.942
 11
128.812
 21
94.7678
  0
LINE
  8
0
 10
128.812
 20
94.7678
 11
128.647
 21
94.6131
  0
LINE
  8
0
 10
128.647
 20
94.6131
 11
128.464
 21
94.4802
  0
LINE
  8
0
 10
128.464
 20
94.4802
 11
128.266
 21
94.3713
  0
LINE
  8
0
 10
128.266
 20
94.3713
 11
128.056
 21
94.2881
  0
LINE
  8
0
 10
128.056
 20
94.2881
 11
127.837
 21
94.2319
  0
LINE
  8
0
 10
127.837
 20
94.2319
 11
127.613
 21
94.2036
  0
LINE
  8
0
 10
127.613
 20
94.2036
 11
127.387
 21
94.2036
  0
ENDSEC
  0
SECTION
  2
OBJECTS
  0
DICTIONARY
  0
ENDSEC
  0
EOF
