  0
SECTION
  2
BLOCKS
  0
ENDSEC
  0
SECTION
  2
ENTITIES
  0
LINE
  8
0
 10
123.437
 20
219.089
 11
124.045
 21
219.245
  0
LINE
  8
0
 10
124.045
 20
219.245
 11
124.629
 21
219.476
  0
LINE
  8
0
 10
124.629
 20
219.476
 11
125.179
 21
219.778
  0
LINE
  8
0
 10
125.179
 20
219.778
 11
125.687
 21
220.147
  0
LINE
  8
0
 10
125.687
 20
220.147
 11
126.145
 21
220.577
  0
LINE
  8
0
 10
126.145
 20
220.577
 11
126.545
 21
221.061
  0
LINE
  8
0
 10
126.545
 20
221.061
 11
126.882
 21
221.591
  0
LINE
  8
0
 10
126.882
 20
221.591
 11
127.149
 21
222.159
  0
LINE
  8
0
 10
127.149
 20
222.159
 11
127.343
 21
222.757
  0
LINE
  8
0
 10
127.343
 20
222.757
 11
127.461
 21
223.373
  0
LINE
  8
0
 10
127.461
 20
223.373
 11
127.5
 21
224
  0
LINE
  8
0
 10
127.5
 20
224
 11
127.5
 21
244
  0
LINE
  8
0
 10
127.5
 20
244
 11
127.461
 21
244.627
  0
LINE
  8
0
 10
127.461
 20
244.627
 11
127.343
 21
245.243
  0
LINE
  8
0
 10
127.343
 20
245.243
 11
127.149
 21
245.841
  0
LINE
  8
0
 10
127.149
 20
245.841
 11
126.882
 21
246.409
  0
LINE
  8
0
 10
126.882
 20
246.409
 11
126.545
 21
246.939
  0
LINE
  8
0
 10
126.545
 20
246.939
 11
126.145
 21
247.423
  0
LINE
  8
0
 10
126.145
 20
247.423
 11
125.687
 21
247.853
  0
LINE
  8
0
 10
125.687
 20
247.853
 11
125.179
 21
248.222
  0
LINE
  8
0
 10
125.179
 20
248.222
 11
124.629
 21
248.524
  0
LINE
  8
0
 10
124.629
 20
248.524
 11
124.045
 21
248.755
  0
LINE
  8
0
 10
124.045
 20
248.755
 11
123.437
 21
248.911
  0
LINE
  8
0
 10
123.437
 20
248.911
 11
122.814
 21
248.99
  0
LINE
  8
0
 10
122.814
 20
248.99
 11
-122.814
 21
248.99
  0
LINE
  8
0
 10
-122.814
 20
248.99
 11
-123.437
 21
248.911
  0
LINE
  8
0
 10
-123.437
 20
248.911
 11
-124.045
 21
248.755
  0
LINE
  8
0
 10
-124.045
 20
248.755
 11
-124.629
 21
248.524
  0
LINE
  8
0
 10
-124.629
 20
248.524
 11
-125.179
 21
248.222
  0
LINE
  8
0
 10
-125.179
 20
248.222
 11
-125.687
 21
247.853
  0
LINE
  8
0
 10
-125.687
 20
247.853
 11
-126.145
 21
247.423
  0
LINE
  8
0
 10
-126.145
 20
247.423
 11
-126.545
 21
246.939
  0
LINE
  8
0
 10
-126.545
 20
246.939
 11
-126.882
 21
246.409
  0
LINE
  8
0
 10
-126.882
 20
246.409
 11
-127.149
 21
245.841
  0
LINE
  8
0
 10
-127.149
 20
245.841
 11
-127.343
 21
245.243
  0
LINE
  8
0
 10
-127.343
 20
245.243
 11
-127.461
 21
244.627
  0
LINE
  8
0
 10
-127.461
 20
244.627
 11
-127.5
 21
244
  0
LINE
  8
0
 10
-127.5
 20
244
 11
-127.5
 21
224
  0
LINE
  8
0
 10
-127.5
 20
224
 11
-127.461
 21
223.373
  0
LINE
  8
0
 10
-127.461
 20
223.373
 11
-127.343
 21
222.757
  0
LINE
  8
0
 10
-127.343
 20
222.757
 11
-127.149
 21
222.159
  0
LINE
  8
0
 10
-127.149
 20
222.159
 11
-126.882
 21
221.591
  0
LINE
  8
0
 10
-126.882
 20
221.591
 11
-126.545
 21
221.061
  0
LINE
  8
0
 10
-126.545
 20
221.061
 11
-126.145
 21
220.577
  0
LINE
  8
0
 10
-126.145
 20
220.577
 11
-125.687
 21
220.147
  0
LINE
  8
0
 10
-125.687
 20
220.147
 11
-125.179
 21
219.778
  0
LINE
  8
0
 10
-125.179
 20
219.778
 11
-124.629
 21
219.476
  0
LINE
  8
0
 10
-124.629
 20
219.476
 11
-124.045
 21
219.245
  0
LINE
  8
0
 10
-124.045
 20
219.245
 11
-123.437
 21
219.089
  0
LINE
  8
0
 10
-123.437
 20
219.089
 11
-122.814
 21
219.01
  0
LINE
  8
0
 10
-122.814
 20
219.01
 11
122.814
 21
219.01
  0
LINE
  8
0
 10
122.814
 20
219.01
 11
123.437
 21
219.089
  0
LINE
  8
0
 10
-122.548
 20
219.509
 11
-123.14
 21
219.584
  0
LINE
  8
0
 10
-123.14
 20
219.584
 11
-123.718
 21
219.732
  0
LINE
  8
0
 10
-123.718
 20
219.732
 11
-124.272
 21
219.952
  0
LINE
  8
0
 10
-124.272
 20
219.952
 11
-124.795
 21
220.239
  0
LINE
  8
0
 10
-124.795
 20
220.239
 11
-125.278
 21
220.59
  0
LINE
  8
0
 10
-125.278
 20
220.59
 11
-125.713
 21
220.998
  0
LINE
  8
0
 10
-125.713
 20
220.998
 11
-126.093
 21
221.458
  0
LINE
  8
0
 10
-126.093
 20
221.458
 11
-126.412
 21
221.962
  0
LINE
  8
0
 10
-126.412
 20
221.962
 11
-126.666
 21
222.501
  0
LINE
  8
0
 10
-126.666
 20
222.501
 11
-126.851
 21
223.069
  0
LINE
  8
0
 10
-126.851
 20
223.069
 11
-126.963
 21
223.655
  0
LINE
  8
0
 10
-126.963
 20
223.655
 11
-127
 21
224.25
  0
LINE
  8
0
 10
-127
 20
224.25
 11
-127
 21
243.75
  0
LINE
  8
0
 10
-127
 20
243.75
 11
-126.963
 21
244.345
  0
LINE
  8
0
 10
-126.963
 20
244.345
 11
-126.851
 21
244.931
  0
LINE
  8
0
 10
-126.851
 20
244.931
 11
-126.666
 21
245.499
  0
LINE
  8
0
 10
-126.666
 20
245.499
 11
-126.412
 21
246.038
  0
LINE
  8
0
 10
-126.412
 20
246.038
 11
-126.093
 21
246.542
  0
LINE
  8
0
 10
-126.093
 20
246.542
 11
-125.713
 21
247.002
  0
LINE
  8
0
 10
-125.713
 20
247.002
 11
-125.278
 21
247.41
  0
LINE
  8
0
 10
-125.278
 20
247.41
 11
-124.795
 21
247.761
  0
LINE
  8
0
 10
-124.795
 20
247.761
 11
-124.272
 21
248.048
  0
LINE
  8
0
 10
-124.272
 20
248.048
 11
-123.718
 21
248.268
  0
LINE
  8
0
 10
-123.718
 20
248.268
 11
-123.14
 21
248.416
  0
LINE
  8
0
 10
-123.14
 20
248.416
 11
-122.548
 21
248.491
  0
LINE
  8
0
 10
-122.548
 20
248.491
 11
122.548
 21
248.491
  0
LINE
  8
0
 10
122.548
 20
248.491
 11
123.14
 21
248.416
  0
LINE
  8
0
 10
123.14
 20
248.416
 11
123.718
 21
248.268
  0
LINE
  8
0
 10
123.718
 20
248.268
 11
124.272
 21
248.048
  0
LINE
  8
0
 10
124.272
 20
248.048
 11
124.795
 21
247.761
  0
LINE
  8
0
 10
124.795
 20
247.761
 11
125.278
 21
247.41
  0
LINE
  8
0
 10
125.278
 20
247.41
 11
125.713
 21
247.002
  0
LINE
  8
0
 10
125.713
 20
247.002
 11
126.093
 21
246.542
  0
LINE
  8
0
 10
126.093
 20
246.542
 11
126.412
 21
246.038
  0
LINE
  8
0
 10
126.412
 20
246.038
 11
126.666
 21
245.499
  0
LINE
  8
0
 10
126.666
 20
245.499
 11
126.851
 21
244.931
  0
LINE
  8
0
 10
126.851
 20
244.931
 11
126.963
 21
244.345
  0
LINE
  8
0
 10
126.963
 20
244.345
 11
127
 21
243.75
  0
LINE
  8
0
 10
127
 20
243.75
 11
127
 21
224.25
  0
LINE
  8
0
 10
127
 20
224.25
 11
126.963
 21
223.655
  0
LINE
  8
0
 10
126.963
 20
223.655
 11
126.851
 21
223.069
  0
LINE
  8
0
 10
126.851
 20
223.069
 11
126.666
 21
222.501
  0
LINE
  8
0
 10
126.666
 20
222.501
 11
126.412
 21
221.962
  0
LINE
  8
0
 10
126.412
 20
221.962
 11
126.093
 21
221.458
  0
LINE
  8
0
 10
126.093
 20
221.458
 11
125.713
 21
220.998
  0
LINE
  8
0
 10
125.713
 20
220.998
 11
125.278
 21
220.59
  0
LINE
  8
0
 10
125.278
 20
220.59
 11
124.795
 21
220.239
  0
LINE
  8
0
 10
124.795
 20
220.239
 11
124.272
 21
219.952
  0
LINE
  8
0
 10
124.272
 20
219.952
 11
123.718
 21
219.732
  0
LINE
  8
0
 10
123.718
 20
219.732
 11
123.14
 21
219.584
  0
LINE
  8
0
 10
123.14
 20
219.584
 11
122.548
 21
219.509
  0
LINE
  8
0
 10
122.548
 20
219.509
 11
-122.548
 21
219.509
  0
LINE
  8
0
 10
123.437
 20
180.089
 11
124.045
 21
180.245
  0
LINE
  8
0
 10
124.045
 20
180.245
 11
124.629
 21
180.476
  0
LINE
  8
0
 10
124.629
 20
180.476
 11
125.179
 21
180.778
  0
LINE
  8
0
 10
125.179
 20
180.778
 11
125.687
 21
181.147
  0
LINE
  8
0
 10
125.687
 20
181.147
 11
126.145
 21
181.577
  0
LINE
  8
0
 10
126.145
 20
181.577
 11
126.545
 21
182.061
  0
LINE
  8
0
 10
126.545
 20
182.061
 11
126.882
 21
182.591
  0
LINE
  8
0
 10
126.882
 20
182.591
 11
127.149
 21
183.159
  0
LINE
  8
0
 10
127.149
 20
183.159
 11
127.343
 21
183.757
  0
LINE
  8
0
 10
127.343
 20
183.757
 11
127.461
 21
184.373
  0
LINE
  8
0
 10
127.461
 20
184.373
 11
127.5
 21
185
  0
LINE
  8
0
 10
127.5
 20
185
 11
127.5
 21
205
  0
LINE
  8
0
 10
127.5
 20
205
 11
127.461
 21
205.627
  0
LINE
  8
0
 10
127.461
 20
205.627
 11
127.343
 21
206.243
  0
LINE
  8
0
 10
127.343
 20
206.243
 11
127.149
 21
206.841
  0
LINE
  8
0
 10
127.149
 20
206.841
 11
126.882
 21
207.409
  0
LINE
  8
0
 10
126.882
 20
207.409
 11
126.545
 21
207.939
  0
LINE
  8
0
 10
126.545
 20
207.939
 11
126.145
 21
208.423
  0
LINE
  8
0
 10
126.145
 20
208.423
 11
125.687
 21
208.853
  0
LINE
  8
0
 10
125.687
 20
208.853
 11
125.179
 21
209.222
  0
LINE
  8
0
 10
125.179
 20
209.222
 11
124.629
 21
209.524
  0
LINE
  8
0
 10
124.629
 20
209.524
 11
124.045
 21
209.755
  0
LINE
  8
0
 10
124.045
 20
209.755
 11
123.437
 21
209.911
  0
LINE
  8
0
 10
123.437
 20
209.911
 11
122.814
 21
209.99
  0
LINE
  8
0
 10
122.814
 20
209.99
 11
-122.814
 21
209.99
  0
LINE
  8
0
 10
-122.814
 20
209.99
 11
-123.437
 21
209.911
  0
LINE
  8
0
 10
-123.437
 20
209.911
 11
-124.045
 21
209.755
  0
LINE
  8
0
 10
-124.045
 20
209.755
 11
-124.629
 21
209.524
  0
LINE
  8
0
 10
-124.629
 20
209.524
 11
-125.179
 21
209.222
  0
LINE
  8
0
 10
-125.179
 20
209.222
 11
-125.687
 21
208.853
  0
LINE
  8
0
 10
-125.687
 20
208.853
 11
-126.145
 21
208.423
  0
LINE
  8
0
 10
-126.145
 20
208.423
 11
-126.545
 21
207.939
  0
LINE
  8
0
 10
-126.545
 20
207.939
 11
-126.882
 21
207.409
  0
LINE
  8
0
 10
-126.882
 20
207.409
 11
-127.149
 21
206.841
  0
LINE
  8
0
 10
-127.149
 20
206.841
 11
-127.343
 21
206.243
  0
LINE
  8
0
 10
-127.343
 20
206.243
 11
-127.461
 21
205.627
  0
LINE
  8
0
 10
-127.461
 20
205.627
 11
-127.5
 21
205
  0
LINE
  8
0
 10
-127.5
 20
205
 11
-127.5
 21
185
  0
LINE
  8
0
 10
-127.5
 20
185
 11
-127.461
 21
184.373
  0
LINE
  8
0
 10
-127.461
 20
184.373
 11
-127.343
 21
183.757
  0
LINE
  8
0
 10
-127.343
 20
183.757
 11
-127.149
 21
183.159
  0
LINE
  8
0
 10
-127.149
 20
183.159
 11
-126.882
 21
182.591
  0
LINE
  8
0
 10
-126.882
 20
182.591
 11
-126.545
 21
182.061
  0
LINE
  8
0
 10
-126.545
 20
182.061
 11
-126.145
 21
181.577
  0
LINE
  8
0
 10
-126.145
 20
181.577
 11
-125.687
 21
181.147
  0
LINE
  8
0
 10
-125.687
 20
181.147
 11
-125.179
 21
180.778
  0
LINE
  8
0
 10
-125.179
 20
180.778
 11
-124.629
 21
180.476
  0
LINE
  8
0
 10
-124.629
 20
180.476
 11
-124.045
 21
180.245
  0
LINE
  8
0
 10
-124.045
 20
180.245
 11
-123.437
 21
180.089
  0
LINE
  8
0
 10
-123.437
 20
180.089
 11
-122.814
 21
180.01
  0
LINE
  8
0
 10
-122.814
 20
180.01
 11
122.814
 21
180.01
  0
LINE
  8
0
 10
122.814
 20
180.01
 11
123.437
 21
180.089
  0
LINE
  8
0
 10
-122.548
 20
180.509
 11
-123.14
 21
180.584
  0
LINE
  8
0
 10
-123.14
 20
180.584
 11
-123.718
 21
180.732
  0
LINE
  8
0
 10
-123.718
 20
180.732
 11
-124.272
 21
180.952
  0
LINE
  8
0
 10
-124.272
 20
180.952
 11
-124.795
 21
181.239
  0
LINE
  8
0
 10
-124.795
 20
181.239
 11
-125.278
 21
181.59
  0
LINE
  8
0
 10
-125.278
 20
181.59
 11
-125.713
 21
181.998
  0
LINE
  8
0
 10
-125.713
 20
181.998
 11
-126.093
 21
182.458
  0
LINE
  8
0
 10
-126.093
 20
182.458
 11
-126.412
 21
182.962
  0
LINE
  8
0
 10
-126.412
 20
182.962
 11
-126.666
 21
183.501
  0
LINE
  8
0
 10
-126.666
 20
183.501
 11
-126.851
 21
184.069
  0
LINE
  8
0
 10
-126.851
 20
184.069
 11
-126.963
 21
184.655
  0
LINE
  8
0
 10
-126.963
 20
184.655
 11
-127
 21
185.25
  0
LINE
  8
0
 10
-127
 20
185.25
 11
-127
 21
204.75
  0
LINE
  8
0
 10
-127
 20
204.75
 11
-126.963
 21
205.345
  0
LINE
  8
0
 10
-126.963
 20
205.345
 11
-126.851
 21
205.931
  0
LINE
  8
0
 10
-126.851
 20
205.931
 11
-126.666
 21
206.499
  0
LINE
  8
0
 10
-126.666
 20
206.499
 11
-126.412
 21
207.038
  0
LINE
  8
0
 10
-126.412
 20
207.038
 11
-126.093
 21
207.542
  0
LINE
  8
0
 10
-126.093
 20
207.542
 11
-125.713
 21
208.002
  0
LINE
  8
0
 10
-125.713
 20
208.002
 11
-125.278
 21
208.41
  0
LINE
  8
0
 10
-125.278
 20
208.41
 11
-124.795
 21
208.761
  0
LINE
  8
0
 10
-124.795
 20
208.761
 11
-124.272
 21
209.048
  0
LINE
  8
0
 10
-124.272
 20
209.048
 11
-123.718
 21
209.268
  0
LINE
  8
0
 10
-123.718
 20
209.268
 11
-123.14
 21
209.416
  0
LINE
  8
0
 10
-123.14
 20
209.416
 11
-122.548
 21
209.491
  0
LINE
  8
0
 10
-122.548
 20
209.491
 11
122.548
 21
209.491
  0
LINE
  8
0
 10
122.548
 20
209.491
 11
123.14
 21
209.416
  0
LINE
  8
0
 10
123.14
 20
209.416
 11
123.718
 21
209.268
  0
LINE
  8
0
 10
123.718
 20
209.268
 11
124.272
 21
209.048
  0
LINE
  8
0
 10
124.272
 20
209.048
 11
124.795
 21
208.761
  0
LINE
  8
0
 10
124.795
 20
208.761
 11
125.278
 21
208.41
  0
LINE
  8
0
 10
125.278
 20
208.41
 11
125.713
 21
208.002
  0
LINE
  8
0
 10
125.713
 20
208.002
 11
126.093
 21
207.542
  0
LINE
  8
0
 10
126.093
 20
207.542
 11
126.412
 21
207.038
  0
LINE
  8
0
 10
126.412
 20
207.038
 11
126.666
 21
206.499
  0
LINE
  8
0
 10
126.666
 20
206.499
 11
126.851
 21
205.931
  0
LINE
  8
0
 10
126.851
 20
205.931
 11
126.963
 21
205.345
  0
LINE
  8
0
 10
126.963
 20
205.345
 11
127
 21
204.75
  0
LINE
  8
0
 10
127
 20
204.75
 11
127
 21
185.25
  0
LINE
  8
0
 10
127
 20
185.25
 11
126.963
 21
184.655
  0
LINE
  8
0
 10
126.963
 20
184.655
 11
126.851
 21
184.069
  0
LINE
  8
0
 10
126.851
 20
184.069
 11
126.666
 21
183.501
  0
LINE
  8
0
 10
126.666
 20
183.501
 11
126.412
 21
182.962
  0
LINE
  8
0
 10
126.412
 20
182.962
 11
126.093
 21
182.458
  0
LINE
  8
0
 10
126.093
 20
182.458
 11
125.713
 21
181.998
  0
LINE
  8
0
 10
125.713
 20
181.998
 11
125.278
 21
181.59
  0
LINE
  8
0
 10
125.278
 20
181.59
 11
124.795
 21
181.239
  0
LINE
  8
0
 10
124.795
 20
181.239
 11
124.272
 21
180.952
  0
LINE
  8
0
 10
124.272
 20
180.952
 11
123.718
 21
180.732
  0
LINE
  8
0
 10
123.718
 20
180.732
 11
123.14
 21
180.584
  0
LINE
  8
0
 10
123.14
 20
180.584
 11
122.548
 21
180.509
  0
LINE
  8
0
 10
122.548
 20
180.509
 11
-122.548
 21
180.509
  0
LINE
  8
0
 10
123.437
 20
141.089
 11
124.045
 21
141.245
  0
LINE
  8
0
 10
124.045
 20
141.245
 11
124.629
 21
141.476
  0
LINE
  8
0
 10
124.629
 20
141.476
 11
125.179
 21
141.778
  0
LINE
  8
0
 10
125.179
 20
141.778
 11
125.687
 21
142.147
  0
LINE
  8
0
 10
125.687
 20
142.147
 11
126.145
 21
142.577
  0
LINE
  8
0
 10
126.145
 20
142.577
 11
126.545
 21
143.061
  0
LINE
  8
0
 10
126.545
 20
143.061
 11
126.882
 21
143.591
  0
LINE
  8
0
 10
126.882
 20
143.591
 11
127.149
 21
144.159
  0
LINE
  8
0
 10
127.149
 20
144.159
 11
127.343
 21
144.757
  0
LINE
  8
0
 10
127.343
 20
144.757
 11
127.461
 21
145.373
  0
LINE
  8
0
 10
127.461
 20
145.373
 11
127.5
 21
146
  0
LINE
  8
0
 10
127.5
 20
146
 11
127.5
 21
166
  0
LINE
  8
0
 10
127.5
 20
166
 11
127.461
 21
166.627
  0
LINE
  8
0
 10
127.461
 20
166.627
 11
127.343
 21
167.243
  0
LINE
  8
0
 10
127.343
 20
167.243
 11
127.149
 21
167.841
  0
LINE
  8
0
 10
127.149
 20
167.841
 11
126.882
 21
168.409
  0
LINE
  8
0
 10
126.882
 20
168.409
 11
126.545
 21
168.939
  0
LINE
  8
0
 10
126.545
 20
168.939
 11
126.145
 21
169.423
  0
LINE
  8
0
 10
126.145
 20
169.423
 11
125.687
 21
169.853
  0
LINE
  8
0
 10
125.687
 20
169.853
 11
125.179
 21
170.222
  0
LINE
  8
0
 10
125.179
 20
170.222
 11
124.629
 21
170.524
  0
LINE
  8
0
 10
124.629
 20
170.524
 11
124.045
 21
170.755
  0
LINE
  8
0
 10
124.045
 20
170.755
 11
123.437
 21
170.911
  0
LINE
  8
0
 10
123.437
 20
170.911
 11
122.814
 21
170.99
  0
LINE
  8
0
 10
122.814
 20
170.99
 11
-122.814
 21
170.99
  0
LINE
  8
0
 10
-122.814
 20
170.99
 11
-123.437
 21
170.911
  0
LINE
  8
0
 10
-123.437
 20
170.911
 11
-124.045
 21
170.755
  0
LINE
  8
0
 10
-124.045
 20
170.755
 11
-124.629
 21
170.524
  0
LINE
  8
0
 10
-124.629
 20
170.524
 11
-125.179
 21
170.222
  0
LINE
  8
0
 10
-125.179
 20
170.222
 11
-125.687
 21
169.853
  0
LINE
  8
0
 10
-125.687
 20
169.853
 11
-126.145
 21
169.423
  0
LINE
  8
0
 10
-126.145
 20
169.423
 11
-126.545
 21
168.939
  0
LINE
  8
0
 10
-126.545
 20
168.939
 11
-126.882
 21
168.409
  0
LINE
  8
0
 10
-126.882
 20
168.409
 11
-127.149
 21
167.841
  0
LINE
  8
0
 10
-127.149
 20
167.841
 11
-127.343
 21
167.243
  0
LINE
  8
0
 10
-127.343
 20
167.243
 11
-127.461
 21
166.627
  0
LINE
  8
0
 10
-127.461
 20
166.627
 11
-127.5
 21
166
  0
LINE
  8
0
 10
-127.5
 20
166
 11
-127.5
 21
146
  0
LINE
  8
0
 10
-127.5
 20
146
 11
-127.461
 21
145.373
  0
LINE
  8
0
 10
-127.461
 20
145.373
 11
-127.343
 21
144.757
  0
LINE
  8
0
 10
-127.343
 20
144.757
 11
-127.149
 21
144.159
  0
LINE
  8
0
 10
-127.149
 20
144.159
 11
-126.882
 21
143.591
  0
LINE
  8
0
 10
-126.882
 20
143.591
 11
-126.545
 21
143.061
  0
LINE
  8
0
 10
-126.545
 20
143.061
 11
-126.145
 21
142.577
  0
LINE
  8
0
 10
-126.145
 20
142.577
 11
-125.687
 21
142.147
  0
LINE
  8
0
 10
-125.687
 20
142.147
 11
-125.179
 21
141.778
  0
LINE
  8
0
 10
-125.179
 20
141.778
 11
-124.629
 21
141.476
  0
LINE
  8
0
 10
-124.629
 20
141.476
 11
-124.045
 21
141.245
  0
LINE
  8
0
 10
-124.045
 20
141.245
 11
-123.437
 21
141.089
  0
LINE
  8
0
 10
-123.437
 20
141.089
 11
-122.814
 21
141.01
  0
LINE
  8
0
 10
-122.814
 20
141.01
 11
122.814
 21
141.01
  0
LINE
  8
0
 10
122.814
 20
141.01
 11
123.437
 21
141.089
  0
LINE
  8
0
 10
-122.493
 20
142.388
 11
-122.975
 21
142.449
  0
LINE
  8
0
 10
-122.975
 20
142.449
 11
-123.446
 21
142.57
  0
LINE
  8
0
 10
-123.446
 20
142.57
 11
-123.898
 21
142.749
  0
LINE
  8
0
 10
-123.898
 20
142.749
 11
-124.323
 21
142.983
  0
LINE
  8
0
 10
-124.323
 20
142.983
 11
-124.716
 21
143.269
  0
LINE
  8
0
 10
-124.716
 20
143.269
 11
-125.071
 21
143.601
  0
LINE
  8
0
 10
-125.071
 20
143.601
 11
-125.38
 21
143.976
  0
LINE
  8
0
 10
-125.38
 20
143.976
 11
-125.641
 21
144.386
  0
LINE
  8
0
 10
-125.641
 20
144.386
 11
-125.848
 21
144.826
  0
LINE
  8
0
 10
-125.848
 20
144.826
 11
-125.998
 21
145.288
  0
LINE
  8
0
 10
-125.998
 20
145.288
 11
-126.089
 21
145.765
  0
LINE
  8
0
 10
-126.089
 20
145.765
 11
-126.119
 21
146.25
  0
LINE
  8
0
 10
-126.119
 20
146.25
 11
-126.119
 21
165.75
  0
LINE
  8
0
 10
-126.119
 20
165.75
 11
-126.089
 21
166.235
  0
LINE
  8
0
 10
-126.089
 20
166.235
 11
-125.998
 21
166.712
  0
LINE
  8
0
 10
-125.998
 20
166.712
 11
-125.848
 21
167.174
  0
LINE
  8
0
 10
-125.848
 20
167.174
 11
-125.641
 21
167.614
  0
LINE
  8
0
 10
-125.641
 20
167.614
 11
-125.38
 21
168.024
  0
LINE
  8
0
 10
-125.38
 20
168.024
 11
-125.071
 21
168.399
  0
LINE
  8
0
 10
-125.071
 20
168.399
 11
-124.716
 21
168.731
  0
LINE
  8
0
 10
-124.716
 20
168.731
 11
-124.323
 21
169.017
  0
LINE
  8
0
 10
-124.323
 20
169.017
 11
-123.898
 21
169.251
  0
LINE
  8
0
 10
-123.898
 20
169.251
 11
-123.446
 21
169.43
  0
LINE
  8
0
 10
-123.446
 20
169.43
 11
-122.975
 21
169.551
  0
LINE
  8
0
 10
-122.975
 20
169.551
 11
-122.493
 21
169.612
  0
LINE
  8
0
 10
-122.493
 20
169.612
 11
122.493
 21
169.612
  0
LINE
  8
0
 10
122.493
 20
169.612
 11
122.975
 21
169.551
  0
LINE
  8
0
 10
122.975
 20
169.551
 11
123.446
 21
169.43
  0
LINE
  8
0
 10
123.446
 20
169.43
 11
123.898
 21
169.251
  0
LINE
  8
0
 10
123.898
 20
169.251
 11
124.323
 21
169.017
  0
LINE
  8
0
 10
124.323
 20
169.017
 11
124.716
 21
168.731
  0
LINE
  8
0
 10
124.716
 20
168.731
 11
125.071
 21
168.399
  0
LINE
  8
0
 10
125.071
 20
168.399
 11
125.38
 21
168.024
  0
LINE
  8
0
 10
125.38
 20
168.024
 11
125.641
 21
167.614
  0
LINE
  8
0
 10
125.641
 20
167.614
 11
125.848
 21
167.174
  0
LINE
  8
0
 10
125.848
 20
167.174
 11
125.998
 21
166.712
  0
LINE
  8
0
 10
125.998
 20
166.712
 11
126.089
 21
166.235
  0
LINE
  8
0
 10
126.089
 20
166.235
 11
126.119
 21
165.75
  0
LINE
  8
0
 10
126.119
 20
165.75
 11
126.119
 21
146.25
  0
LINE
  8
0
 10
126.119
 20
146.25
 11
126.089
 21
145.765
  0
LINE
  8
0
 10
126.089
 20
145.765
 11
125.998
 21
145.288
  0
LINE
  8
0
 10
125.998
 20
145.288
 11
125.848
 21
144.826
  0
LINE
  8
0
 10
125.848
 20
144.826
 11
125.641
 21
144.386
  0
LINE
  8
0
 10
125.641
 20
144.386
 11
125.38
 21
143.976
  0
LINE
  8
0
 10
125.38
 20
143.976
 11
125.071
 21
143.601
  0
LINE
  8
0
 10
125.071
 20
143.601
 11
124.716
 21
143.269
  0
LINE
  8
0
 10
124.716
 20
143.269
 11
124.323
 21
142.983
  0
LINE
  8
0
 10
124.323
 20
142.983
 11
123.898
 21
142.749
  0
LINE
  8
0
 10
123.898
 20
142.749
 11
123.446
 21
142.57
  0
LINE
  8
0
 10
123.446
 20
142.57
 11
122.975
 21
142.449
  0
LINE
  8
0
 10
122.975
 20
142.449
 11
122.493
 21
142.388
  0
LINE
  8
0
 10
122.493
 20
142.388
 11
-122.493
 21
142.388
  0
LINE
  8
0
 10
123.437
 20
102.089
 11
124.045
 21
102.245
  0
LINE
  8
0
 10
124.045
 20
102.245
 11
124.629
 21
102.476
  0
LINE
  8
0
 10
124.629
 20
102.476
 11
125.179
 21
102.778
  0
LINE
  8
0
 10
125.179
 20
102.778
 11
125.687
 21
103.147
  0
LINE
  8
0
 10
125.687
 20
103.147
 11
126.145
 21
103.577
  0
LINE
  8
0
 10
126.145
 20
103.577
 11
126.545
 21
104.061
  0
LINE
  8
0
 10
126.545
 20
104.061
 11
126.882
 21
104.591
  0
LINE
  8
0
 10
126.882
 20
104.591
 11
127.149
 21
105.159
  0
LINE
  8
0
 10
127.149
 20
105.159
 11
127.343
 21
105.757
  0
LINE
  8
0
 10
127.343
 20
105.757
 11
127.461
 21
106.373
  0
LINE
  8
0
 10
127.461
 20
106.373
 11
127.5
 21
107
  0
LINE
  8
0
 10
127.5
 20
107
 11
127.5
 21
127
  0
LINE
  8
0
 10
127.5
 20
127
 11
127.461
 21
127.627
  0
LINE
  8
0
 10
127.461
 20
127.627
 11
127.343
 21
128.243
  0
LINE
  8
0
 10
127.343
 20
128.243
 11
127.149
 21
128.841
  0
LINE
  8
0
 10
127.149
 20
128.841
 11
126.882
 21
129.409
  0
LINE
  8
0
 10
126.882
 20
129.409
 11
126.545
 21
129.939
  0
LINE
  8
0
 10
126.545
 20
129.939
 11
126.145
 21
130.423
  0
LINE
  8
0
 10
126.145
 20
130.423
 11
125.687
 21
130.853
  0
LINE
  8
0
 10
125.687
 20
130.853
 11
125.179
 21
131.222
  0
LINE
  8
0
 10
125.179
 20
131.222
 11
124.629
 21
131.524
  0
LINE
  8
0
 10
124.629
 20
131.524
 11
124.045
 21
131.755
  0
LINE
  8
0
 10
124.045
 20
131.755
 11
123.437
 21
131.911
  0
LINE
  8
0
 10
123.437
 20
131.911
 11
122.814
 21
131.99
  0
LINE
  8
0
 10
122.814
 20
131.99
 11
-122.814
 21
131.99
  0
LINE
  8
0
 10
-122.814
 20
131.99
 11
-123.437
 21
131.911
  0
LINE
  8
0
 10
-123.437
 20
131.911
 11
-124.045
 21
131.755
  0
LINE
  8
0
 10
-124.045
 20
131.755
 11
-124.629
 21
131.524
  0
LINE
  8
0
 10
-124.629
 20
131.524
 11
-125.179
 21
131.222
  0
LINE
  8
0
 10
-125.179
 20
131.222
 11
-125.687
 21
130.853
  0
LINE
  8
0
 10
-125.687
 20
130.853
 11
-126.145
 21
130.423
  0
LINE
  8
0
 10
-126.145
 20
130.423
 11
-126.545
 21
129.939
  0
LINE
  8
0
 10
-126.545
 20
129.939
 11
-126.882
 21
129.409
  0
LINE
  8
0
 10
-126.882
 20
129.409
 11
-127.149
 21
128.841
  0
LINE
  8
0
 10
-127.149
 20
128.841
 11
-127.343
 21
128.243
  0
LINE
  8
0
 10
-127.343
 20
128.243
 11
-127.461
 21
127.627
  0
LINE
  8
0
 10
-127.461
 20
127.627
 11
-127.5
 21
127
  0
LINE
  8
0
 10
-127.5
 20
127
 11
-127.5
 21
107
  0
LINE
  8
0
 10
-127.5
 20
107
 11
-127.461
 21
106.373
  0
LINE
  8
0
 10
-127.461
 20
106.373
 11
-127.343
 21
105.757
  0
LINE
  8
0
 10
-127.343
 20
105.757
 11
-127.149
 21
105.159
  0
LINE
  8
0
 10
-127.149
 20
105.159
 11
-126.882
 21
104.591
  0
LINE
  8
0
 10
-126.882
 20
104.591
 11
-126.545
 21
104.061
  0
LINE
  8
0
 10
-126.545
 20
104.061
 11
-126.145
 21
103.577
  0
LINE
  8
0
 10
-126.145
 20
103.577
 11
-125.687
 21
103.147
  0
LINE
  8
0
 10
-125.687
 20
103.147
 11
-125.179
 21
102.778
  0
LINE
  8
0
 10
-125.179
 20
102.778
 11
-124.629
 21
102.476
  0
LINE
  8
0
 10
-124.629
 20
102.476
 11
-124.045
 21
102.245
  0
LINE
  8
0
 10
-124.045
 20
102.245
 11
-123.437
 21
102.089
  0
LINE
  8
0
 10
-123.437
 20
102.089
 11
-122.814
 21
102.01
  0
LINE
  8
0
 10
-122.814
 20
102.01
 11
122.814
 21
102.01
  0
LINE
  8
0
 10
122.814
 20
102.01
 11
123.437
 21
102.089
  0
LINE
  8
0
 10
119.887
 20
122.704
 11
119.663
 21
122.732
  0
LINE
  8
0
 10
119.663
 20
122.732
 11
119.444
 21
122.788
  0
LINE
  8
0
 10
119.444
 20
122.788
 11
119.234
 21
122.871
  0
LINE
  8
0
 10
119.234
 20
122.871
 11
119.036
 21
122.98
  0
LINE
  8
0
 10
119.036
 20
122.98
 11
118.853
 21
123.113
  0
LINE
  8
0
 10
118.853
 20
123.113
 11
118.688
 21
123.268
  0
LINE
  8
0
 10
118.688
 20
123.268
 11
118.544
 21
123.442
  0
LINE
  8
0
 10
118.544
 20
123.442
 11
118.423
 21
123.633
  0
LINE
  8
0
 10
118.423
 20
123.633
 11
118.326
 21
123.837
  0
LINE
  8
0
 10
118.326
 20
123.837
 11
118.257
 21
124.052
  0
LINE
  8
0
 10
118.257
 20
124.052
 11
118.214
 21
124.274
  0
LINE
  8
0
 10
118.214
 20
124.274
 11
118.2
 21
124.5
  0
LINE
  8
0
 10
118.2
 20
124.5
 11
118.214
 21
124.726
  0
LINE
  8
0
 10
118.214
 20
124.726
 11
118.257
 21
124.948
  0
LINE
  8
0
 10
118.257
 20
124.948
 11
118.326
 21
125.163
  0
LINE
  8
0
 10
118.326
 20
125.163
 11
118.423
 21
125.367
  0
LINE
  8
0
 10
118.423
 20
125.367
 11
118.544
 21
125.558
  0
LINE
  8
0
 10
118.544
 20
125.558
 11
118.688
 21
125.732
  0
LINE
  8
0
 10
118.688
 20
125.732
 11
118.853
 21
125.887
  0
LINE
  8
0
 10
118.853
 20
125.887
 11
119.036
 21
126.02
  0
LINE
  8
0
 10
119.036
 20
126.02
 11
119.234
 21
126.129
  0
LINE
  8
0
 10
119.234
 20
126.129
 11
119.444
 21
126.212
  0
LINE
  8
0
 10
119.444
 20
126.212
 11
119.663
 21
126.268
  0
LINE
  8
0
 10
119.663
 20
126.268
 11
119.887
 21
126.296
  0
LINE
  8
0
 10
119.887
 20
126.296
 11
120.113
 21
126.296
  0
LINE
  8
0
 10
120.113
 20
126.296
 11
120.337
 21
126.268
  0
LINE
  8
0
 10
120.337
 20
126.268
 11
120.556
 21
126.212
  0
LINE
  8
0
 10
120.556
 20
126.212
 11
120.766
 21
126.129
  0
LINE
  8
0
 10
120.766
 20
126.129
 11
120.964
 21
126.02
  0
LINE
  8
0
 10
120.964
 20
126.02
 11
121.147
 21
125.887
  0
LINE
  8
0
 10
121.147
 20
125.887
 11
121.312
 21
125.732
  0
LINE
  8
0
 10
121.312
 20
125.732
 11
121.456
 21
125.558
  0
LINE
  8
0
 10
121.456
 20
125.558
 11
121.577
 21
125.367
  0
LINE
  8
0
 10
121.577
 20
125.367
 11
121.674
 21
125.163
  0
LINE
  8
0
 10
121.674
 20
125.163
 11
121.743
 21
124.948
  0
LINE
  8
0
 10
121.743
 20
124.948
 11
121.786
 21
124.726
  0
LINE
  8
0
 10
121.786
 20
124.726
 11
121.8
 21
124.5
  0
LINE
  8
0
 10
121.8
 20
124.5
 11
121.786
 21
124.274
  0
LINE
  8
0
 10
121.786
 20
124.274
 11
121.743
 21
124.052
  0
LINE
  8
0
 10
121.743
 20
124.052
 11
121.674
 21
123.837
  0
LINE
  8
0
 10
121.674
 20
123.837
 11
121.577
 21
123.633
  0
LINE
  8
0
 10
121.577
 20
123.633
 11
121.456
 21
123.442
  0
LINE
  8
0
 10
121.456
 20
123.442
 11
121.312
 21
123.268
  0
LINE
  8
0
 10
121.312
 20
123.268
 11
121.147
 21
123.113
  0
LINE
  8
0
 10
121.147
 20
123.113
 11
120.964
 21
122.98
  0
LINE
  8
0
 10
120.964
 20
122.98
 11
120.766
 21
122.871
  0
LINE
  8
0
 10
120.766
 20
122.871
 11
120.556
 21
122.788
  0
LINE
  8
0
 10
120.556
 20
122.788
 11
120.337
 21
122.732
  0
LINE
  8
0
 10
120.337
 20
122.732
 11
120.113
 21
122.704
  0
LINE
  8
0
 10
120.113
 20
122.704
 11
119.887
 21
122.704
  0
LINE
  8
0
 10
-120.113
 20
122.704
 11
-120.337
 21
122.732
  0
LINE
  8
0
 10
-120.337
 20
122.732
 11
-120.556
 21
122.788
  0
LINE
  8
0
 10
-120.556
 20
122.788
 11
-120.766
 21
122.871
  0
LINE
  8
0
 10
-120.766
 20
122.871
 11
-120.964
 21
122.98
  0
LINE
  8
0
 10
-120.964
 20
122.98
 11
-121.147
 21
123.113
  0
LINE
  8
0
 10
-121.147
 20
123.113
 11
-121.312
 21
123.268
  0
LINE
  8
0
 10
-121.312
 20
123.268
 11
-121.456
 21
123.442
  0
LINE
  8
0
 10
-121.456
 20
123.442
 11
-121.577
 21
123.633
  0
LINE
  8
0
 10
-121.577
 20
123.633
 11
-121.674
 21
123.837
  0
LINE
  8
0
 10
-121.674
 20
123.837
 11
-121.743
 21
124.052
  0
LINE
  8
0
 10
-121.743
 20
124.052
 11
-121.786
 21
124.274
  0
LINE
  8
0
 10
-121.786
 20
124.274
 11
-121.8
 21
124.5
  0
LINE
  8
0
 10
-121.8
 20
124.5
 11
-121.786
 21
124.726
  0
LINE
  8
0
 10
-121.786
 20
124.726
 11
-121.743
 21
124.948
  0
LINE
  8
0
 10
-121.743
 20
124.948
 11
-121.674
 21
125.163
  0
LINE
  8
0
 10
-121.674
 20
125.163
 11
-121.577
 21
125.367
  0
LINE
  8
0
 10
-121.577
 20
125.367
 11
-121.456
 21
125.558
  0
LINE
  8
0
 10
-121.456
 20
125.558
 11
-121.312
 21
125.732
  0
LINE
  8
0
 10
-121.312
 20
125.732
 11
-121.147
 21
125.887
  0
LINE
  8
0
 10
-121.147
 20
125.887
 11
-120.964
 21
126.02
  0
LINE
  8
0
 10
-120.964
 20
126.02
 11
-120.766
 21
126.129
  0
LINE
  8
0
 10
-120.766
 20
126.129
 11
-120.556
 21
126.212
  0
LINE
  8
0
 10
-120.556
 20
126.212
 11
-120.337
 21
126.268
  0
LINE
  8
0
 10
-120.337
 20
126.268
 11
-120.113
 21
126.296
  0
LINE
  8
0
 10
-120.113
 20
126.296
 11
-119.887
 21
126.296
  0
LINE
  8
0
 10
-119.887
 20
126.296
 11
-119.663
 21
126.268
  0
LINE
  8
0
 10
-119.663
 20
126.268
 11
-119.444
 21
126.212
  0
LINE
  8
0
 10
-119.444
 20
126.212
 11
-119.234
 21
126.129
  0
LINE
  8
0
 10
-119.234
 20
126.129
 11
-119.036
 21
126.02
  0
LINE
  8
0
 10
-119.036
 20
126.02
 11
-118.853
 21
125.887
  0
LINE
  8
0
 10
-118.853
 20
125.887
 11
-118.688
 21
125.732
  0
LINE
  8
0
 10
-118.688
 20
125.732
 11
-118.544
 21
125.558
  0
LINE
  8
0
 10
-118.544
 20
125.558
 11
-118.423
 21
125.367
  0
LINE
  8
0
 10
-118.423
 20
125.367
 11
-118.326
 21
125.163
  0
LINE
  8
0
 10
-118.326
 20
125.163
 11
-118.257
 21
124.948
  0
LINE
  8
0
 10
-118.257
 20
124.948
 11
-118.214
 21
124.726
  0
LINE
  8
0
 10
-118.214
 20
124.726
 11
-118.2
 21
124.5
  0
LINE
  8
0
 10
-118.2
 20
124.5
 11
-118.214
 21
124.274
  0
LINE
  8
0
 10
-118.214
 20
124.274
 11
-118.257
 21
124.052
  0
LINE
  8
0
 10
-118.257
 20
124.052
 11
-118.326
 21
123.837
  0
LINE
  8
0
 10
-118.326
 20
123.837
 11
-118.423
 21
123.633
  0
LINE
  8
0
 10
-118.423
 20
123.633
 11
-118.544
 21
123.442
  0
LINE
  8
0
 10
-118.544
 20
123.442
 11
-118.688
 21
123.268
  0
LINE
  8
0
 10
-118.688
 20
123.268
 11
-118.853
 21
123.113
  0
LINE
  8
0
 10
-118.853
 20
123.113
 11
-119.036
 21
122.98
  0
LINE
  8
0
 10
-119.036
 20
122.98
 11
-119.234
 21
122.871
  0
LINE
  8
0
 10
-119.234
 20
122.871
 11
-119.444
 21
122.788
  0
LINE
  8
0
 10
-119.444
 20
122.788
 11
-119.663
 21
122.732
  0
LINE
  8
0
 10
-119.663
 20
122.732
 11
-119.887
 21
122.704
  0
LINE
  8
0
 10
-119.887
 20
122.704
 11
-120.113
 21
122.704
  0
LINE
  8
0
 10
119.887
 20
107.704
 11
119.663
 21
107.732
  0
LINE
  8
0
 10
119.663
 20
107.732
 11
119.444
 21
107.788
  0
LINE
  8
0
 10
119.444
 20
107.788
 11
119.234
 21
107.871
  0
LINE
  8
0
 10
119.234
 20
107.871
 11
119.036
 21
107.98
  0
LINE
  8
0
 10
119.036
 20
107.98
 11
118.853
 21
108.113
  0
LINE
  8
0
 10
118.853
 20
108.113
 11
118.688
 21
108.268
  0
LINE
  8
0
 10
118.688
 20
108.268
 11
118.544
 21
108.442
  0
LINE
  8
0
 10
118.544
 20
108.442
 11
118.423
 21
108.633
  0
LINE
  8
0
 10
118.423
 20
108.633
 11
118.326
 21
108.837
  0
LINE
  8
0
 10
118.326
 20
108.837
 11
118.257
 21
109.052
  0
LINE
  8
0
 10
118.257
 20
109.052
 11
118.214
 21
109.274
  0
LINE
  8
0
 10
118.214
 20
109.274
 11
118.2
 21
109.5
  0
LINE
  8
0
 10
118.2
 20
109.5
 11
118.214
 21
109.726
  0
LINE
  8
0
 10
118.214
 20
109.726
 11
118.257
 21
109.948
  0
LINE
  8
0
 10
118.257
 20
109.948
 11
118.326
 21
110.163
  0
LINE
  8
0
 10
118.326
 20
110.163
 11
118.423
 21
110.367
  0
LINE
  8
0
 10
118.423
 20
110.367
 11
118.544
 21
110.558
  0
LINE
  8
0
 10
118.544
 20
110.558
 11
118.688
 21
110.732
  0
LINE
  8
0
 10
118.688
 20
110.732
 11
118.853
 21
110.887
  0
LINE
  8
0
 10
118.853
 20
110.887
 11
119.036
 21
111.02
  0
LINE
  8
0
 10
119.036
 20
111.02
 11
119.234
 21
111.129
  0
LINE
  8
0
 10
119.234
 20
111.129
 11
119.444
 21
111.212
  0
LINE
  8
0
 10
119.444
 20
111.212
 11
119.663
 21
111.268
  0
LINE
  8
0
 10
119.663
 20
111.268
 11
119.887
 21
111.296
  0
LINE
  8
0
 10
119.887
 20
111.296
 11
120.113
 21
111.296
  0
LINE
  8
0
 10
120.113
 20
111.296
 11
120.337
 21
111.268
  0
LINE
  8
0
 10
120.337
 20
111.268
 11
120.556
 21
111.212
  0
LINE
  8
0
 10
120.556
 20
111.212
 11
120.766
 21
111.129
  0
LINE
  8
0
 10
120.766
 20
111.129
 11
120.964
 21
111.02
  0
LINE
  8
0
 10
120.964
 20
111.02
 11
121.147
 21
110.887
  0
LINE
  8
0
 10
121.147
 20
110.887
 11
121.312
 21
110.732
  0
LINE
  8
0
 10
121.312
 20
110.732
 11
121.456
 21
110.558
  0
LINE
  8
0
 10
121.456
 20
110.558
 11
121.577
 21
110.367
  0
LINE
  8
0
 10
121.577
 20
110.367
 11
121.674
 21
110.163
  0
LINE
  8
0
 10
121.674
 20
110.163
 11
121.743
 21
109.948
  0
LINE
  8
0
 10
121.743
 20
109.948
 11
121.786
 21
109.726
  0
LINE
  8
0
 10
121.786
 20
109.726
 11
121.8
 21
109.5
  0
LINE
  8
0
 10
121.8
 20
109.5
 11
121.786
 21
109.274
  0
LINE
  8
0
 10
121.786
 20
109.274
 11
121.743
 21
109.052
  0
LINE
  8
0
 10
121.743
 20
109.052
 11
121.674
 21
108.837
  0
LINE
  8
0
 10
121.674
 20
108.837
 11
121.577
 21
108.633
  0
LINE
  8
0
 10
121.577
 20
108.633
 11
121.456
 21
108.442
  0
LINE
  8
0
 10
121.456
 20
108.442
 11
121.312
 21
108.268
  0
LINE
  8
0
 10
121.312
 20
108.268
 11
121.147
 21
108.113
  0
LINE
  8
0
 10
121.147
 20
108.113
 11
120.964
 21
107.98
  0
LINE
  8
0
 10
120.964
 20
107.98
 11
120.766
 21
107.871
  0
LINE
  8
0
 10
120.766
 20
107.871
 11
120.556
 21
107.788
  0
LINE
  8
0
 10
120.556
 20
107.788
 11
120.337
 21
107.732
  0
LINE
  8
0
 10
120.337
 20
107.732
 11
120.113
 21
107.704
  0
LINE
  8
0
 10
120.113
 20
107.704
 11
119.887
 21
107.704
  0
LINE
  8
0
 10
-120.113
 20
107.704
 11
-120.337
 21
107.732
  0
LINE
  8
0
 10
-120.337
 20
107.732
 11
-120.556
 21
107.788
  0
LINE
  8
0
 10
-120.556
 20
107.788
 11
-120.766
 21
107.871
  0
LINE
  8
0
 10
-120.766
 20
107.871
 11
-120.964
 21
107.98
  0
LINE
  8
0
 10
-120.964
 20
107.98
 11
-121.147
 21
108.113
  0
LINE
  8
0
 10
-121.147
 20
108.113
 11
-121.312
 21
108.268
  0
LINE
  8
0
 10
-121.312
 20
108.268
 11
-121.456
 21
108.442
  0
LINE
  8
0
 10
-121.456
 20
108.442
 11
-121.577
 21
108.633
  0
LINE
  8
0
 10
-121.577
 20
108.633
 11
-121.674
 21
108.837
  0
LINE
  8
0
 10
-121.674
 20
108.837
 11
-121.743
 21
109.052
  0
LINE
  8
0
 10
-121.743
 20
109.052
 11
-121.786
 21
109.274
  0
LINE
  8
0
 10
-121.786
 20
109.274
 11
-121.8
 21
109.5
  0
LINE
  8
0
 10
-121.8
 20
109.5
 11
-121.786
 21
109.726
  0
LINE
  8
0
 10
-121.786
 20
109.726
 11
-121.743
 21
109.948
  0
LINE
  8
0
 10
-121.743
 20
109.948
 11
-121.674
 21
110.163
  0
LINE
  8
0
 10
-121.674
 20
110.163
 11
-121.577
 21
110.367
  0
LINE
  8
0
 10
-121.577
 20
110.367
 11
-121.456
 21
110.558
  0
LINE
  8
0
 10
-121.456
 20
110.558
 11
-121.312
 21
110.732
  0
LINE
  8
0
 10
-121.312
 20
110.732
 11
-121.147
 21
110.887
  0
LINE
  8
0
 10
-121.147
 20
110.887
 11
-120.964
 21
111.02
  0
LINE
  8
0
 10
-120.964
 20
111.02
 11
-120.766
 21
111.129
  0
LINE
  8
0
 10
-120.766
 20
111.129
 11
-120.556
 21
111.212
  0
LINE
  8
0
 10
-120.556
 20
111.212
 11
-120.337
 21
111.268
  0
LINE
  8
0
 10
-120.337
 20
111.268
 11
-120.113
 21
111.296
  0
LINE
  8
0
 10
-120.113
 20
111.296
 11
-119.887
 21
111.296
  0
LINE
  8
0
 10
-119.887
 20
111.296
 11
-119.663
 21
111.268
  0
LINE
  8
0
 10
-119.663
 20
111.268
 11
-119.444
 21
111.212
  0
LINE
  8
0
 10
-119.444
 20
111.212
 11
-119.234
 21
111.129
  0
LINE
  8
0
 10
-119.234
 20
111.129
 11
-119.036
 21
111.02
  0
LINE
  8
0
 10
-119.036
 20
111.02
 11
-118.853
 21
110.887
  0
LINE
  8
0
 10
-118.853
 20
110.887
 11
-118.688
 21
110.732
  0
LINE
  8
0
 10
-118.688
 20
110.732
 11
-118.544
 21
110.558
  0
LINE
  8
0
 10
-118.544
 20
110.558
 11
-118.423
 21
110.367
  0
LINE
  8
0
 10
-118.423
 20
110.367
 11
-118.326
 21
110.163
  0
LINE
  8
0
 10
-118.326
 20
110.163
 11
-118.257
 21
109.948
  0
LINE
  8
0
 10
-118.257
 20
109.948
 11
-118.214
 21
109.726
  0
LINE
  8
0
 10
-118.214
 20
109.726
 11
-118.2
 21
109.5
  0
LINE
  8
0
 10
-118.2
 20
109.5
 11
-118.214
 21
109.274
  0
LINE
  8
0
 10
-118.214
 20
109.274
 11
-118.257
 21
109.052
  0
LINE
  8
0
 10
-118.257
 20
109.052
 11
-118.326
 21
108.837
  0
LINE
  8
0
 10
-118.326
 20
108.837
 11
-118.423
 21
108.633
  0
LINE
  8
0
 10
-118.423
 20
108.633
 11
-118.544
 21
108.442
  0
LINE
  8
0
 10
-118.544
 20
108.442
 11
-118.688
 21
108.268
  0
LINE
  8
0
 10
-118.688
 20
108.268
 11
-118.853
 21
108.113
  0
LINE
  8
0
 10
-118.853
 20
108.113
 11
-119.036
 21
107.98
  0
LINE
  8
0
 10
-119.036
 20
107.98
 11
-119.234
 21
107.871
  0
LINE
  8
0
 10
-119.234
 20
107.871
 11
-119.444
 21
107.788
  0
LINE
  8
0
 10
-119.444
 20
107.788
 11
-119.663
 21
107.732
  0
LINE
  8
0
 10
-119.663
 20
107.732
 11
-119.887
 21
107.704
  0
LINE
  8
0
 10
-119.887
 20
107.704
 11
-120.113
 21
107.704
  0
ENDSEC
  0
SECTION
  2
OBJECTS
  0
DICTIONARY
  0
ENDSEC
  0
EOF
