  0
SECTION
  2
BLOCKS
  0
ENDSEC
  0
SECTION
  2
ENTITIES
  0
LINE
  8
0
 10
-141
 20
356.941
 11
-140.687
 21
356.647
  0
LINE
  8
0
 10
-140.687
 20
356.647
 11
-140.179
 21
356.278
  0
LINE
  8
0
 10
-140.179
 20
356.278
 11
-139.629
 21
355.976
  0
LINE
  8
0
 10
-139.629
 20
355.976
 11
-139.045
 21
355.745
  0
LINE
  8
0
 10
-139.045
 20
355.745
 11
-138.437
 21
355.589
  0
LINE
  8
0
 10
-138.437
 20
355.589
 11
-137.814
 21
355.51
  0
LINE
  8
0
 10
-137.814
 20
355.51
 11
137.814
 21
355.51
  0
LINE
  8
0
 10
137.814
 20
355.51
 11
138.437
 21
355.589
  0
LINE
  8
0
 10
138.437
 20
355.589
 11
139.045
 21
355.745
  0
LINE
  8
0
 10
139.045
 20
355.745
 11
139.629
 21
355.976
  0
LINE
  8
0
 10
139.629
 20
355.976
 11
140.179
 21
356.278
  0
LINE
  8
0
 10
140.179
 20
356.278
 11
140.687
 21
356.647
  0
LINE
  8
0
 10
140.687
 20
356.647
 11
141.145
 21
357.077
  0
LINE
  8
0
 10
141.145
 20
357.077
 11
141.545
 21
357.561
  0
LINE
  8
0
 10
141.545
 20
357.561
 11
141.882
 21
358.091
  0
LINE
  8
0
 10
141.882
 20
358.091
 11
142.149
 21
358.659
  0
LINE
  8
0
 10
142.149
 20
358.659
 11
142.343
 21
359.257
  0
LINE
  8
0
 10
142.343
 20
359.257
 11
142.461
 21
359.873
  0
LINE
  8
0
 10
142.461
 20
359.873
 11
142.5
 21
360.5
  0
LINE
  8
0
 10
142.5
 20
360.5
 11
142.5
 21
395.5
  0
LINE
  8
0
 10
142.5
 20
395.5
 11
142.461
 21
396.127
  0
LINE
  8
0
 10
142.461
 20
396.127
 11
142.343
 21
396.743
  0
LINE
  8
0
 10
142.343
 20
396.743
 11
142.149
 21
397.341
  0
LINE
  8
0
 10
142.149
 20
397.341
 11
141.882
 21
397.909
  0
LINE
  8
0
 10
141.882
 20
397.909
 11
141.545
 21
398.439
  0
LINE
  8
0
 10
141.545
 20
398.439
 11
141.145
 21
398.923
  0
LINE
  8
0
 10
141.145
 20
398.923
 11
140.687
 21
399.353
  0
LINE
  8
0
 10
140.687
 20
399.353
 11
140.179
 21
399.722
  0
LINE
  8
0
 10
140.179
 20
399.722
 11
139.629
 21
400.024
  0
LINE
  8
0
 10
139.629
 20
400.024
 11
139.045
 21
400.255
  0
LINE
  8
0
 10
139.045
 20
400.255
 11
138.437
 21
400.411
  0
LINE
  8
0
 10
138.437
 20
400.411
 11
137.814
 21
400.49
  0
LINE
  8
0
 10
137.814
 20
400.49
 11
-137.814
 21
400.49
  0
LINE
  8
0
 10
-137.814
 20
400.49
 11
-138.437
 21
400.411
  0
LINE
  8
0
 10
-138.437
 20
400.411
 11
-139.045
 21
400.255
  0
LINE
  8
0
 10
-139.045
 20
400.255
 11
-139.629
 21
400.024
  0
LINE
  8
0
 10
-139.629
 20
400.024
 11
-140.179
 21
399.722
  0
LINE
  8
0
 10
-140.179
 20
399.722
 11
-140.687
 21
399.353
  0
LINE
  8
0
 10
-140.687
 20
399.353
 11
-141
 21
399.059
  0
LINE
  8
0
 10
-141
 20
399.059
 11
-141
 21
400.49
  0
LINE
  8
0
 10
-141
 20
400.49
 11
-144
 21
400.49
  0
LINE
  8
0
 10
-144
 20
400.49
 11
-144
 21
355.51
  0
LINE
  8
0
 10
-144
 20
355.51
 11
-141
 21
355.51
  0
LINE
  8
0
 10
-141
 20
355.51
 11
-141
 21
356.941
  0
LINE
  8
0
 10
-137.251
 20
357.008
 11
-137.75
 21
357.071
  0
LINE
  8
0
 10
-137.75
 20
357.071
 11
-138.236
 21
357.196
  0
LINE
  8
0
 10
-138.236
 20
357.196
 11
-138.703
 21
357.381
  0
LINE
  8
0
 10
-138.703
 20
357.381
 11
-139.143
 21
357.623
  0
LINE
  8
0
 10
-139.143
 20
357.623
 11
-139.55
 21
357.918
  0
LINE
  8
0
 10
-139.55
 20
357.918
 11
-139.916
 21
358.262
  0
LINE
  8
0
 10
-139.916
 20
358.262
 11
-140.236
 21
358.649
  0
LINE
  8
0
 10
-140.236
 20
358.649
 11
-140.505
 21
359.073
  0
LINE
  8
0
 10
-140.505
 20
359.073
 11
-140.719
 21
359.528
  0
LINE
  8
0
 10
-140.719
 20
359.528
 11
-140.874
 21
360.005
  0
LINE
  8
0
 10
-140.874
 20
360.005
 11
-140.968
 21
360.499
  0
LINE
  8
0
 10
-140.968
 20
360.499
 11
-141
 21
361
  0
LINE
  8
0
 10
-141
 20
361
 11
-141
 21
395
  0
LINE
  8
0
 10
-141
 20
395
 11
-140.968
 21
395.501
  0
LINE
  8
0
 10
-140.968
 20
395.501
 11
-140.874
 21
395.995
  0
LINE
  8
0
 10
-140.874
 20
395.995
 11
-140.719
 21
396.472
  0
LINE
  8
0
 10
-140.719
 20
396.472
 11
-140.505
 21
396.927
  0
LINE
  8
0
 10
-140.505
 20
396.927
 11
-140.236
 21
397.351
  0
LINE
  8
0
 10
-140.236
 20
397.351
 11
-139.916
 21
397.738
  0
LINE
  8
0
 10
-139.916
 20
397.738
 11
-139.55
 21
398.082
  0
LINE
  8
0
 10
-139.55
 20
398.082
 11
-139.143
 21
398.377
  0
LINE
  8
0
 10
-139.143
 20
398.377
 11
-138.703
 21
398.619
  0
LINE
  8
0
 10
-138.703
 20
398.619
 11
-138.236
 21
398.804
  0
LINE
  8
0
 10
-138.236
 20
398.804
 11
-137.75
 21
398.929
  0
LINE
  8
0
 10
-137.75
 20
398.929
 11
-137.251
 21
398.992
  0
LINE
  8
0
 10
-137.251
 20
398.992
 11
137.251
 21
398.992
  0
LINE
  8
0
 10
137.251
 20
398.992
 11
137.75
 21
398.929
  0
LINE
  8
0
 10
137.75
 20
398.929
 11
138.236
 21
398.804
  0
LINE
  8
0
 10
138.236
 20
398.804
 11
138.703
 21
398.619
  0
LINE
  8
0
 10
138.703
 20
398.619
 11
139.143
 21
398.377
  0
LINE
  8
0
 10
139.143
 20
398.377
 11
139.55
 21
398.082
  0
LINE
  8
0
 10
139.55
 20
398.082
 11
139.916
 21
397.738
  0
LINE
  8
0
 10
139.916
 20
397.738
 11
140.236
 21
397.351
  0
LINE
  8
0
 10
140.236
 20
397.351
 11
140.505
 21
396.927
  0
LINE
  8
0
 10
140.505
 20
396.927
 11
140.719
 21
396.472
  0
LINE
  8
0
 10
140.719
 20
396.472
 11
140.874
 21
395.995
  0
LINE
  8
0
 10
140.874
 20
395.995
 11
140.968
 21
395.501
  0
LINE
  8
0
 10
140.968
 20
395.501
 11
141
 21
395
  0
LINE
  8
0
 10
141
 20
395
 11
141
 21
361
  0
LINE
  8
0
 10
141
 20
361
 11
140.968
 21
360.499
  0
LINE
  8
0
 10
140.968
 20
360.499
 11
140.874
 21
360.005
  0
LINE
  8
0
 10
140.874
 20
360.005
 11
140.719
 21
359.528
  0
LINE
  8
0
 10
140.719
 20
359.528
 11
140.505
 21
359.073
  0
LINE
  8
0
 10
140.505
 20
359.073
 11
140.236
 21
358.649
  0
LINE
  8
0
 10
140.236
 20
358.649
 11
139.916
 21
358.262
  0
LINE
  8
0
 10
139.916
 20
358.262
 11
139.55
 21
357.918
  0
LINE
  8
0
 10
139.55
 20
357.918
 11
139.143
 21
357.623
  0
LINE
  8
0
 10
139.143
 20
357.623
 11
138.703
 21
357.381
  0
LINE
  8
0
 10
138.703
 20
357.381
 11
138.236
 21
357.196
  0
LINE
  8
0
 10
138.236
 20
357.196
 11
137.75
 21
357.071
  0
LINE
  8
0
 10
137.75
 20
357.071
 11
137.251
 21
357.008
  0
LINE
  8
0
 10
137.251
 20
357.008
 11
-137.251
 21
357.008
  0
LINE
  8
0
 10
-141
 20
302.941
 11
-140.687
 21
302.647
  0
LINE
  8
0
 10
-140.687
 20
302.647
 11
-140.179
 21
302.278
  0
LINE
  8
0
 10
-140.179
 20
302.278
 11
-139.629
 21
301.976
  0
LINE
  8
0
 10
-139.629
 20
301.976
 11
-139.045
 21
301.745
  0
LINE
  8
0
 10
-139.045
 20
301.745
 11
-138.437
 21
301.589
  0
LINE
  8
0
 10
-138.437
 20
301.589
 11
-137.814
 21
301.51
  0
LINE
  8
0
 10
-137.814
 20
301.51
 11
137.814
 21
301.51
  0
LINE
  8
0
 10
137.814
 20
301.51
 11
138.437
 21
301.589
  0
LINE
  8
0
 10
138.437
 20
301.589
 11
139.045
 21
301.745
  0
LINE
  8
0
 10
139.045
 20
301.745
 11
139.629
 21
301.976
  0
LINE
  8
0
 10
139.629
 20
301.976
 11
140.179
 21
302.278
  0
LINE
  8
0
 10
140.179
 20
302.278
 11
140.687
 21
302.647
  0
LINE
  8
0
 10
140.687
 20
302.647
 11
141.145
 21
303.077
  0
LINE
  8
0
 10
141.145
 20
303.077
 11
141.545
 21
303.561
  0
LINE
  8
0
 10
141.545
 20
303.561
 11
141.882
 21
304.091
  0
LINE
  8
0
 10
141.882
 20
304.091
 11
142.149
 21
304.659
  0
LINE
  8
0
 10
142.149
 20
304.659
 11
142.343
 21
305.257
  0
LINE
  8
0
 10
142.343
 20
305.257
 11
142.461
 21
305.873
  0
LINE
  8
0
 10
142.461
 20
305.873
 11
142.5
 21
306.5
  0
LINE
  8
0
 10
142.5
 20
306.5
 11
142.5
 21
341.5
  0
LINE
  8
0
 10
142.5
 20
341.5
 11
142.461
 21
342.127
  0
LINE
  8
0
 10
142.461
 20
342.127
 11
142.343
 21
342.743
  0
LINE
  8
0
 10
142.343
 20
342.743
 11
142.149
 21
343.341
  0
LINE
  8
0
 10
142.149
 20
343.341
 11
141.882
 21
343.909
  0
LINE
  8
0
 10
141.882
 20
343.909
 11
141.545
 21
344.439
  0
LINE
  8
0
 10
141.545
 20
344.439
 11
141.145
 21
344.923
  0
LINE
  8
0
 10
141.145
 20
344.923
 11
140.687
 21
345.353
  0
LINE
  8
0
 10
140.687
 20
345.353
 11
140.179
 21
345.722
  0
LINE
  8
0
 10
140.179
 20
345.722
 11
139.629
 21
346.024
  0
LINE
  8
0
 10
139.629
 20
346.024
 11
139.045
 21
346.255
  0
LINE
  8
0
 10
139.045
 20
346.255
 11
138.437
 21
346.411
  0
LINE
  8
0
 10
138.437
 20
346.411
 11
137.814
 21
346.49
  0
LINE
  8
0
 10
137.814
 20
346.49
 11
-137.814
 21
346.49
  0
LINE
  8
0
 10
-137.814
 20
346.49
 11
-138.437
 21
346.411
  0
LINE
  8
0
 10
-138.437
 20
346.411
 11
-139.045
 21
346.255
  0
LINE
  8
0
 10
-139.045
 20
346.255
 11
-139.629
 21
346.024
  0
LINE
  8
0
 10
-139.629
 20
346.024
 11
-140.179
 21
345.722
  0
LINE
  8
0
 10
-140.179
 20
345.722
 11
-140.687
 21
345.353
  0
LINE
  8
0
 10
-140.687
 20
345.353
 11
-141
 21
345.059
  0
LINE
  8
0
 10
-141
 20
345.059
 11
-141
 21
346.49
  0
LINE
  8
0
 10
-141
 20
346.49
 11
-144
 21
346.49
  0
LINE
  8
0
 10
-144
 20
346.49
 11
-144
 21
301.51
  0
LINE
  8
0
 10
-144
 20
301.51
 11
-141
 21
301.51
  0
LINE
  8
0
 10
-141
 20
301.51
 11
-141
 21
302.941
  0
LINE
  8
0
 10
-137.251
 20
303.008
 11
-137.75
 21
303.071
  0
LINE
  8
0
 10
-137.75
 20
303.071
 11
-138.236
 21
303.196
  0
LINE
  8
0
 10
-138.236
 20
303.196
 11
-138.703
 21
303.381
  0
LINE
  8
0
 10
-138.703
 20
303.381
 11
-139.143
 21
303.623
  0
LINE
  8
0
 10
-139.143
 20
303.623
 11
-139.55
 21
303.918
  0
LINE
  8
0
 10
-139.55
 20
303.918
 11
-139.916
 21
304.262
  0
LINE
  8
0
 10
-139.916
 20
304.262
 11
-140.236
 21
304.649
  0
LINE
  8
0
 10
-140.236
 20
304.649
 11
-140.505
 21
305.073
  0
LINE
  8
0
 10
-140.505
 20
305.073
 11
-140.719
 21
305.528
  0
LINE
  8
0
 10
-140.719
 20
305.528
 11
-140.874
 21
306.005
  0
LINE
  8
0
 10
-140.874
 20
306.005
 11
-140.968
 21
306.499
  0
LINE
  8
0
 10
-140.968
 20
306.499
 11
-141
 21
307
  0
LINE
  8
0
 10
-141
 20
307
 11
-141
 21
341
  0
LINE
  8
0
 10
-141
 20
341
 11
-140.968
 21
341.501
  0
LINE
  8
0
 10
-140.968
 20
341.501
 11
-140.874
 21
341.995
  0
LINE
  8
0
 10
-140.874
 20
341.995
 11
-140.719
 21
342.472
  0
LINE
  8
0
 10
-140.719
 20
342.472
 11
-140.505
 21
342.927
  0
LINE
  8
0
 10
-140.505
 20
342.927
 11
-140.236
 21
343.351
  0
LINE
  8
0
 10
-140.236
 20
343.351
 11
-139.916
 21
343.738
  0
LINE
  8
0
 10
-139.916
 20
343.738
 11
-139.55
 21
344.082
  0
LINE
  8
0
 10
-139.55
 20
344.082
 11
-139.143
 21
344.377
  0
LINE
  8
0
 10
-139.143
 20
344.377
 11
-138.703
 21
344.619
  0
LINE
  8
0
 10
-138.703
 20
344.619
 11
-138.236
 21
344.804
  0
LINE
  8
0
 10
-138.236
 20
344.804
 11
-137.75
 21
344.929
  0
LINE
  8
0
 10
-137.75
 20
344.929
 11
-137.251
 21
344.992
  0
LINE
  8
0
 10
-137.251
 20
344.992
 11
137.251
 21
344.992
  0
LINE
  8
0
 10
137.251
 20
344.992
 11
137.75
 21
344.929
  0
LINE
  8
0
 10
137.75
 20
344.929
 11
138.236
 21
344.804
  0
LINE
  8
0
 10
138.236
 20
344.804
 11
138.703
 21
344.619
  0
LINE
  8
0
 10
138.703
 20
344.619
 11
139.143
 21
344.377
  0
LINE
  8
0
 10
139.143
 20
344.377
 11
139.55
 21
344.082
  0
LINE
  8
0
 10
139.55
 20
344.082
 11
139.916
 21
343.738
  0
LINE
  8
0
 10
139.916
 20
343.738
 11
140.236
 21
343.351
  0
LINE
  8
0
 10
140.236
 20
343.351
 11
140.505
 21
342.927
  0
LINE
  8
0
 10
140.505
 20
342.927
 11
140.719
 21
342.472
  0
LINE
  8
0
 10
140.719
 20
342.472
 11
140.874
 21
341.995
  0
LINE
  8
0
 10
140.874
 20
341.995
 11
140.968
 21
341.501
  0
LINE
  8
0
 10
140.968
 20
341.501
 11
141
 21
341
  0
LINE
  8
0
 10
141
 20
341
 11
141
 21
307
  0
LINE
  8
0
 10
141
 20
307
 11
140.968
 21
306.499
  0
LINE
  8
0
 10
140.968
 20
306.499
 11
140.874
 21
306.005
  0
LINE
  8
0
 10
140.874
 20
306.005
 11
140.719
 21
305.528
  0
LINE
  8
0
 10
140.719
 20
305.528
 11
140.505
 21
305.073
  0
LINE
  8
0
 10
140.505
 20
305.073
 11
140.236
 21
304.649
  0
LINE
  8
0
 10
140.236
 20
304.649
 11
139.916
 21
304.262
  0
LINE
  8
0
 10
139.916
 20
304.262
 11
139.55
 21
303.918
  0
LINE
  8
0
 10
139.55
 20
303.918
 11
139.143
 21
303.623
  0
LINE
  8
0
 10
139.143
 20
303.623
 11
138.703
 21
303.381
  0
LINE
  8
0
 10
138.703
 20
303.381
 11
138.236
 21
303.196
  0
LINE
  8
0
 10
138.236
 20
303.196
 11
137.75
 21
303.071
  0
LINE
  8
0
 10
137.75
 20
303.071
 11
137.251
 21
303.008
  0
LINE
  8
0
 10
137.251
 20
303.008
 11
-137.251
 21
303.008
  0
LINE
  8
0
 10
138.437
 20
247.589
 11
139.045
 21
247.745
  0
LINE
  8
0
 10
139.045
 20
247.745
 11
139.629
 21
247.976
  0
LINE
  8
0
 10
139.629
 20
247.976
 11
140.179
 21
248.278
  0
LINE
  8
0
 10
140.179
 20
248.278
 11
140.687
 21
248.647
  0
LINE
  8
0
 10
140.687
 20
248.647
 11
141.145
 21
249.077
  0
LINE
  8
0
 10
141.145
 20
249.077
 11
141.545
 21
249.561
  0
LINE
  8
0
 10
141.545
 20
249.561
 11
141.882
 21
250.091
  0
LINE
  8
0
 10
141.882
 20
250.091
 11
142.149
 21
250.659
  0
LINE
  8
0
 10
142.149
 20
250.659
 11
142.343
 21
251.257
  0
LINE
  8
0
 10
142.343
 20
251.257
 11
142.461
 21
251.873
  0
LINE
  8
0
 10
142.461
 20
251.873
 11
142.5
 21
252.5
  0
LINE
  8
0
 10
142.5
 20
252.5
 11
142.5
 21
287.5
  0
LINE
  8
0
 10
142.5
 20
287.5
 11
142.461
 21
288.127
  0
LINE
  8
0
 10
142.461
 20
288.127
 11
142.343
 21
288.743
  0
LINE
  8
0
 10
142.343
 20
288.743
 11
142.149
 21
289.341
  0
LINE
  8
0
 10
142.149
 20
289.341
 11
141.882
 21
289.909
  0
LINE
  8
0
 10
141.882
 20
289.909
 11
141.545
 21
290.439
  0
LINE
  8
0
 10
141.545
 20
290.439
 11
141.145
 21
290.923
  0
LINE
  8
0
 10
141.145
 20
290.923
 11
140.687
 21
291.353
  0
LINE
  8
0
 10
140.687
 20
291.353
 11
140.179
 21
291.722
  0
LINE
  8
0
 10
140.179
 20
291.722
 11
139.629
 21
292.024
  0
LINE
  8
0
 10
139.629
 20
292.024
 11
139.045
 21
292.255
  0
LINE
  8
0
 10
139.045
 20
292.255
 11
138.437
 21
292.411
  0
LINE
  8
0
 10
138.437
 20
292.411
 11
137.814
 21
292.49
  0
LINE
  8
0
 10
137.814
 20
292.49
 11
-137.814
 21
292.49
  0
LINE
  8
0
 10
-137.814
 20
292.49
 11
-138.437
 21
292.411
  0
LINE
  8
0
 10
-138.437
 20
292.411
 11
-139.045
 21
292.255
  0
LINE
  8
0
 10
-139.045
 20
292.255
 11
-139.629
 21
292.024
  0
LINE
  8
0
 10
-139.629
 20
292.024
 11
-140.179
 21
291.722
  0
LINE
  8
0
 10
-140.179
 20
291.722
 11
-140.687
 21
291.353
  0
LINE
  8
0
 10
-140.687
 20
291.353
 11
-141
 21
291.059
  0
LINE
  8
0
 10
-141
 20
291.059
 11
-141
 21
292.479
  0
LINE
  8
0
 10
-141
 20
292.479
 11
-144
 21
292.479
  0
LINE
  8
0
 10
-144
 20
292.479
 11
-144
 21
247.521
  0
LINE
  8
0
 10
-144
 20
247.521
 11
-141
 21
247.521
  0
LINE
  8
0
 10
-141
 20
247.521
 11
-141
 21
248.941
  0
LINE
  8
0
 10
-141
 20
248.941
 11
-140.687
 21
248.647
  0
LINE
  8
0
 10
-140.687
 20
248.647
 11
-140.179
 21
248.278
  0
LINE
  8
0
 10
-140.179
 20
248.278
 11
-139.629
 21
247.976
  0
LINE
  8
0
 10
-139.629
 20
247.976
 11
-139.045
 21
247.745
  0
LINE
  8
0
 10
-139.045
 20
247.745
 11
-138.437
 21
247.589
  0
LINE
  8
0
 10
-138.437
 20
247.589
 11
-137.814
 21
247.51
  0
LINE
  8
0
 10
-137.814
 20
247.51
 11
137.814
 21
247.51
  0
LINE
  8
0
 10
137.814
 20
247.51
 11
138.437
 21
247.589
  0
LINE
  8
0
 10
-137.195
 20
249.893
 11
-137.583
 21
249.942
  0
LINE
  8
0
 10
-137.583
 20
249.942
 11
-137.962
 21
250.039
  0
LINE
  8
0
 10
-137.962
 20
250.039
 11
-138.325
 21
250.183
  0
LINE
  8
0
 10
-138.325
 20
250.183
 11
-138.668
 21
250.372
  0
LINE
  8
0
 10
-138.668
 20
250.372
 11
-138.984
 21
250.601
  0
LINE
  8
0
 10
-138.984
 20
250.601
 11
-139.269
 21
250.869
  0
LINE
  8
0
 10
-139.269
 20
250.869
 11
-139.518
 21
251.17
  0
LINE
  8
0
 10
-139.518
 20
251.17
 11
-139.728
 21
251.5
  0
LINE
  8
0
 10
-139.728
 20
251.5
 11
-139.894
 21
251.854
  0
LINE
  8
0
 10
-139.894
 20
251.854
 11
-140.015
 21
252.226
  0
LINE
  8
0
 10
-140.015
 20
252.226
 11
-140.088
 21
252.61
  0
LINE
  8
0
 10
-140.088
 20
252.61
 11
-140.113
 21
253
  0
LINE
  8
0
 10
-140.113
 20
253
 11
-140.113
 21
287
  0
LINE
  8
0
 10
-140.113
 20
287
 11
-140.088
 21
287.39
  0
LINE
  8
0
 10
-140.088
 20
287.39
 11
-140.015
 21
287.774
  0
LINE
  8
0
 10
-140.015
 20
287.774
 11
-139.894
 21
288.146
  0
LINE
  8
0
 10
-139.894
 20
288.146
 11
-139.728
 21
288.5
  0
LINE
  8
0
 10
-139.728
 20
288.5
 11
-139.518
 21
288.83
  0
LINE
  8
0
 10
-139.518
 20
288.83
 11
-139.269
 21
289.131
  0
LINE
  8
0
 10
-139.269
 20
289.131
 11
-138.984
 21
289.399
  0
LINE
  8
0
 10
-138.984
 20
289.399
 11
-138.668
 21
289.628
  0
LINE
  8
0
 10
-138.668
 20
289.628
 11
-138.325
 21
289.817
  0
LINE
  8
0
 10
-138.325
 20
289.817
 11
-137.962
 21
289.961
  0
LINE
  8
0
 10
-137.962
 20
289.961
 11
-137.583
 21
290.058
  0
LINE
  8
0
 10
-137.583
 20
290.058
 11
-137.195
 21
290.107
  0
LINE
  8
0
 10
-137.195
 20
290.107
 11
137.195
 21
290.107
  0
LINE
  8
0
 10
137.195
 20
290.107
 11
137.583
 21
290.058
  0
LINE
  8
0
 10
137.583
 20
290.058
 11
137.962
 21
289.961
  0
LINE
  8
0
 10
137.962
 20
289.961
 11
138.325
 21
289.817
  0
LINE
  8
0
 10
138.325
 20
289.817
 11
138.668
 21
289.628
  0
LINE
  8
0
 10
138.668
 20
289.628
 11
138.984
 21
289.399
  0
LINE
  8
0
 10
138.984
 20
289.399
 11
139.269
 21
289.131
  0
LINE
  8
0
 10
139.269
 20
289.131
 11
139.518
 21
288.83
  0
LINE
  8
0
 10
139.518
 20
288.83
 11
139.728
 21
288.5
  0
LINE
  8
0
 10
139.728
 20
288.5
 11
139.894
 21
288.146
  0
LINE
  8
0
 10
139.894
 20
288.146
 11
140.015
 21
287.774
  0
LINE
  8
0
 10
140.015
 20
287.774
 11
140.088
 21
287.39
  0
LINE
  8
0
 10
140.088
 20
287.39
 11
140.113
 21
287
  0
LINE
  8
0
 10
140.113
 20
287
 11
140.113
 21
253
  0
LINE
  8
0
 10
140.113
 20
253
 11
140.088
 21
252.61
  0
LINE
  8
0
 10
140.088
 20
252.61
 11
140.015
 21
252.226
  0
LINE
  8
0
 10
140.015
 20
252.226
 11
139.894
 21
251.854
  0
LINE
  8
0
 10
139.894
 20
251.854
 11
139.728
 21
251.5
  0
LINE
  8
0
 10
139.728
 20
251.5
 11
139.518
 21
251.17
  0
LINE
  8
0
 10
139.518
 20
251.17
 11
139.269
 21
250.869
  0
LINE
  8
0
 10
139.269
 20
250.869
 11
138.984
 21
250.601
  0
LINE
  8
0
 10
138.984
 20
250.601
 11
138.668
 21
250.372
  0
LINE
  8
0
 10
138.668
 20
250.372
 11
138.325
 21
250.183
  0
LINE
  8
0
 10
138.325
 20
250.183
 11
137.962
 21
250.039
  0
LINE
  8
0
 10
137.962
 20
250.039
 11
137.583
 21
249.942
  0
LINE
  8
0
 10
137.583
 20
249.942
 11
137.195
 21
249.893
  0
LINE
  8
0
 10
137.195
 20
249.893
 11
-137.195
 21
249.893
  0
LINE
  8
0
 10
138.437
 20
193.589
 11
139.045
 21
193.745
  0
LINE
  8
0
 10
139.045
 20
193.745
 11
139.629
 21
193.976
  0
LINE
  8
0
 10
139.629
 20
193.976
 11
140.179
 21
194.278
  0
LINE
  8
0
 10
140.179
 20
194.278
 11
140.687
 21
194.647
  0
LINE
  8
0
 10
140.687
 20
194.647
 11
141.145
 21
195.077
  0
LINE
  8
0
 10
141.145
 20
195.077
 11
141.545
 21
195.561
  0
LINE
  8
0
 10
141.545
 20
195.561
 11
141.882
 21
196.091
  0
LINE
  8
0
 10
141.882
 20
196.091
 11
142.149
 21
196.659
  0
LINE
  8
0
 10
142.149
 20
196.659
 11
142.343
 21
197.257
  0
LINE
  8
0
 10
142.343
 20
197.257
 11
142.461
 21
197.873
  0
LINE
  8
0
 10
142.461
 20
197.873
 11
142.5
 21
198.5
  0
LINE
  8
0
 10
142.5
 20
198.5
 11
142.5
 21
233.5
  0
LINE
  8
0
 10
142.5
 20
233.5
 11
142.461
 21
234.127
  0
LINE
  8
0
 10
142.461
 20
234.127
 11
142.343
 21
234.743
  0
LINE
  8
0
 10
142.343
 20
234.743
 11
142.149
 21
235.341
  0
LINE
  8
0
 10
142.149
 20
235.341
 11
141.882
 21
235.909
  0
LINE
  8
0
 10
141.882
 20
235.909
 11
141.545
 21
236.439
  0
LINE
  8
0
 10
141.545
 20
236.439
 11
141.145
 21
236.923
  0
LINE
  8
0
 10
141.145
 20
236.923
 11
140.687
 21
237.353
  0
LINE
  8
0
 10
140.687
 20
237.353
 11
140.179
 21
237.722
  0
LINE
  8
0
 10
140.179
 20
237.722
 11
139.629
 21
238.024
  0
LINE
  8
0
 10
139.629
 20
238.024
 11
139.045
 21
238.255
  0
LINE
  8
0
 10
139.045
 20
238.255
 11
138.437
 21
238.411
  0
LINE
  8
0
 10
138.437
 20
238.411
 11
137.814
 21
238.49
  0
LINE
  8
0
 10
137.814
 20
238.49
 11
-137.814
 21
238.49
  0
LINE
  8
0
 10
-137.814
 20
238.49
 11
-138.437
 21
238.411
  0
LINE
  8
0
 10
-138.437
 20
238.411
 11
-139.045
 21
238.255
  0
LINE
  8
0
 10
-139.045
 20
238.255
 11
-139.629
 21
238.024
  0
LINE
  8
0
 10
-139.629
 20
238.024
 11
-140.179
 21
237.722
  0
LINE
  8
0
 10
-140.179
 20
237.722
 11
-140.687
 21
237.353
  0
LINE
  8
0
 10
-140.687
 20
237.353
 11
-141
 21
237.059
  0
LINE
  8
0
 10
-141
 20
237.059
 11
-141
 21
237.153
  0
LINE
  8
0
 10
-141
 20
237.153
 11
-144
 21
237.153
  0
LINE
  8
0
 10
-144
 20
237.153
 11
-144
 21
194.847
  0
LINE
  8
0
 10
-144
 20
194.847
 11
-141
 21
194.847
  0
LINE
  8
0
 10
-141
 20
194.847
 11
-141
 21
194.941
  0
LINE
  8
0
 10
-141
 20
194.941
 11
-140.687
 21
194.647
  0
LINE
  8
0
 10
-140.687
 20
194.647
 11
-140.179
 21
194.278
  0
LINE
  8
0
 10
-140.179
 20
194.278
 11
-139.629
 21
193.976
  0
LINE
  8
0
 10
-139.629
 20
193.976
 11
-139.045
 21
193.745
  0
LINE
  8
0
 10
-139.045
 20
193.745
 11
-138.437
 21
193.589
  0
LINE
  8
0
 10
-138.437
 20
193.589
 11
-137.814
 21
193.51
  0
LINE
  8
0
 10
-137.814
 20
193.51
 11
137.814
 21
193.51
  0
LINE
  8
0
 10
137.814
 20
193.51
 11
138.437
 21
193.589
  0
LINE
  8
0
 10
-135.134
 20
228.869
 11
-135.4
 21
228.903
  0
LINE
  8
0
 10
-135.4
 20
228.903
 11
-135.66
 21
228.969
  0
LINE
  8
0
 10
-135.66
 20
228.969
 11
-135.909
 21
229.068
  0
LINE
  8
0
 10
-135.909
 20
229.068
 11
-136.144
 21
229.197
  0
LINE
  8
0
 10
-136.144
 20
229.197
 11
-136.361
 21
229.355
  0
LINE
  8
0
 10
-136.361
 20
229.355
 11
-136.557
 21
229.538
  0
LINE
  8
0
 10
-136.557
 20
229.538
 11
-136.727
 21
229.745
  0
LINE
  8
0
 10
-136.727
 20
229.745
 11
-136.871
 21
229.971
  0
LINE
  8
0
 10
-136.871
 20
229.971
 11
-136.985
 21
230.214
  0
LINE
  8
0
 10
-136.985
 20
230.214
 11
-137.068
 21
230.469
  0
LINE
  8
0
 10
-137.068
 20
230.469
 11
-137.118
 21
230.732
  0
LINE
  8
0
 10
-137.118
 20
230.732
 11
-137.135
 21
231
  0
LINE
  8
0
 10
-137.135
 20
231
 11
-137.118
 21
231.268
  0
LINE
  8
0
 10
-137.118
 20
231.268
 11
-137.068
 21
231.531
  0
LINE
  8
0
 10
-137.068
 20
231.531
 11
-136.985
 21
231.786
  0
LINE
  8
0
 10
-136.985
 20
231.786
 11
-136.871
 21
232.029
  0
LINE
  8
0
 10
-136.871
 20
232.029
 11
-136.727
 21
232.255
  0
LINE
  8
0
 10
-136.727
 20
232.255
 11
-136.557
 21
232.462
  0
LINE
  8
0
 10
-136.557
 20
232.462
 11
-136.361
 21
232.645
  0
LINE
  8
0
 10
-136.361
 20
232.645
 11
-136.144
 21
232.803
  0
LINE
  8
0
 10
-136.144
 20
232.803
 11
-135.909
 21
232.932
  0
LINE
  8
0
 10
-135.909
 20
232.932
 11
-135.66
 21
233.031
  0
LINE
  8
0
 10
-135.66
 20
233.031
 11
-135.4
 21
233.097
  0
LINE
  8
0
 10
-135.4
 20
233.097
 11
-135.134
 21
233.131
  0
LINE
  8
0
 10
-135.134
 20
233.131
 11
-134.866
 21
233.131
  0
LINE
  8
0
 10
-134.866
 20
233.131
 11
-134.6
 21
233.097
  0
LINE
  8
0
 10
-134.6
 20
233.097
 11
-134.34
 21
233.031
  0
LINE
  8
0
 10
-134.34
 20
233.031
 11
-134.091
 21
232.932
  0
LINE
  8
0
 10
-134.091
 20
232.932
 11
-133.856
 21
232.803
  0
LINE
  8
0
 10
-133.856
 20
232.803
 11
-133.639
 21
232.645
  0
LINE
  8
0
 10
-133.639
 20
232.645
 11
-133.443
 21
232.462
  0
LINE
  8
0
 10
-133.443
 20
232.462
 11
-133.273
 21
232.255
  0
LINE
  8
0
 10
-133.273
 20
232.255
 11
-133.129
 21
232.029
  0
LINE
  8
0
 10
-133.129
 20
232.029
 11
-133.015
 21
231.786
  0
LINE
  8
0
 10
-133.015
 20
231.786
 11
-132.932
 21
231.531
  0
LINE
  8
0
 10
-132.932
 20
231.531
 11
-132.882
 21
231.268
  0
LINE
  8
0
 10
-132.882
 20
231.268
 11
-132.865
 21
231
  0
LINE
  8
0
 10
-132.865
 20
231
 11
-132.882
 21
230.732
  0
LINE
  8
0
 10
-132.882
 20
230.732
 11
-132.932
 21
230.469
  0
LINE
  8
0
 10
-132.932
 20
230.469
 11
-133.015
 21
230.214
  0
LINE
  8
0
 10
-133.015
 20
230.214
 11
-133.129
 21
229.971
  0
LINE
  8
0
 10
-133.129
 20
229.971
 11
-133.273
 21
229.745
  0
LINE
  8
0
 10
-133.273
 20
229.745
 11
-133.443
 21
229.538
  0
LINE
  8
0
 10
-133.443
 20
229.538
 11
-133.639
 21
229.355
  0
LINE
  8
0
 10
-133.639
 20
229.355
 11
-133.856
 21
229.197
  0
LINE
  8
0
 10
-133.856
 20
229.197
 11
-134.091
 21
229.068
  0
LINE
  8
0
 10
-134.091
 20
229.068
 11
-134.34
 21
228.969
  0
LINE
  8
0
 10
-134.34
 20
228.969
 11
-134.6
 21
228.903
  0
LINE
  8
0
 10
-134.6
 20
228.903
 11
-134.866
 21
228.869
  0
LINE
  8
0
 10
-134.866
 20
228.869
 11
-135.134
 21
228.869
  0
LINE
  8
0
 10
134.866
 20
228.869
 11
134.6
 21
228.903
  0
LINE
  8
0
 10
134.6
 20
228.903
 11
134.34
 21
228.969
  0
LINE
  8
0
 10
134.34
 20
228.969
 11
134.091
 21
229.068
  0
LINE
  8
0
 10
134.091
 20
229.068
 11
133.856
 21
229.197
  0
LINE
  8
0
 10
133.856
 20
229.197
 11
133.639
 21
229.355
  0
LINE
  8
0
 10
133.639
 20
229.355
 11
133.443
 21
229.538
  0
LINE
  8
0
 10
133.443
 20
229.538
 11
133.273
 21
229.745
  0
LINE
  8
0
 10
133.273
 20
229.745
 11
133.129
 21
229.971
  0
LINE
  8
0
 10
133.129
 20
229.971
 11
133.015
 21
230.214
  0
LINE
  8
0
 10
133.015
 20
230.214
 11
132.932
 21
230.469
  0
LINE
  8
0
 10
132.932
 20
230.469
 11
132.882
 21
230.732
  0
LINE
  8
0
 10
132.882
 20
230.732
 11
132.865
 21
231
  0
LINE
  8
0
 10
132.865
 20
231
 11
132.882
 21
231.268
  0
LINE
  8
0
 10
132.882
 20
231.268
 11
132.932
 21
231.531
  0
LINE
  8
0
 10
132.932
 20
231.531
 11
133.015
 21
231.786
  0
LINE
  8
0
 10
133.015
 20
231.786
 11
133.129
 21
232.029
  0
LINE
  8
0
 10
133.129
 20
232.029
 11
133.273
 21
232.255
  0
LINE
  8
0
 10
133.273
 20
232.255
 11
133.443
 21
232.462
  0
LINE
  8
0
 10
133.443
 20
232.462
 11
133.639
 21
232.645
  0
LINE
  8
0
 10
133.639
 20
232.645
 11
133.856
 21
232.803
  0
LINE
  8
0
 10
133.856
 20
232.803
 11
134.091
 21
232.932
  0
LINE
  8
0
 10
134.091
 20
232.932
 11
134.34
 21
233.031
  0
LINE
  8
0
 10
134.34
 20
233.031
 11
134.6
 21
233.097
  0
LINE
  8
0
 10
134.6
 20
233.097
 11
134.866
 21
233.131
  0
LINE
  8
0
 10
134.866
 20
233.131
 11
135.134
 21
233.131
  0
LINE
  8
0
 10
135.134
 20
233.131
 11
135.4
 21
233.097
  0
LINE
  8
0
 10
135.4
 20
233.097
 11
135.66
 21
233.031
  0
LINE
  8
0
 10
135.66
 20
233.031
 11
135.909
 21
232.932
  0
LINE
  8
0
 10
135.909
 20
232.932
 11
136.144
 21
232.803
  0
LINE
  8
0
 10
136.144
 20
232.803
 11
136.361
 21
232.645
  0
LINE
  8
0
 10
136.361
 20
232.645
 11
136.557
 21
232.462
  0
LINE
  8
0
 10
136.557
 20
232.462
 11
136.727
 21
232.255
  0
LINE
  8
0
 10
136.727
 20
232.255
 11
136.871
 21
232.029
  0
LINE
  8
0
 10
136.871
 20
232.029
 11
136.985
 21
231.786
  0
LINE
  8
0
 10
136.985
 20
231.786
 11
137.068
 21
231.531
  0
LINE
  8
0
 10
137.068
 20
231.531
 11
137.118
 21
231.268
  0
LINE
  8
0
 10
137.118
 20
231.268
 11
137.135
 21
231
  0
LINE
  8
0
 10
137.135
 20
231
 11
137.118
 21
230.732
  0
LINE
  8
0
 10
137.118
 20
230.732
 11
137.068
 21
230.469
  0
LINE
  8
0
 10
137.068
 20
230.469
 11
136.985
 21
230.214
  0
LINE
  8
0
 10
136.985
 20
230.214
 11
136.871
 21
229.971
  0
LINE
  8
0
 10
136.871
 20
229.971
 11
136.727
 21
229.745
  0
LINE
  8
0
 10
136.727
 20
229.745
 11
136.557
 21
229.538
  0
LINE
  8
0
 10
136.557
 20
229.538
 11
136.361
 21
229.355
  0
LINE
  8
0
 10
136.361
 20
229.355
 11
136.144
 21
229.197
  0
LINE
  8
0
 10
136.144
 20
229.197
 11
135.909
 21
229.068
  0
LINE
  8
0
 10
135.909
 20
229.068
 11
135.66
 21
228.969
  0
LINE
  8
0
 10
135.66
 20
228.969
 11
135.4
 21
228.903
  0
LINE
  8
0
 10
135.4
 20
228.903
 11
135.134
 21
228.869
  0
LINE
  8
0
 10
135.134
 20
228.869
 11
134.866
 21
228.869
  0
LINE
  8
0
 10
-135.134
 20
198.869
 11
-135.4
 21
198.903
  0
LINE
  8
0
 10
-135.4
 20
198.903
 11
-135.66
 21
198.969
  0
LINE
  8
0
 10
-135.66
 20
198.969
 11
-135.909
 21
199.068
  0
LINE
  8
0
 10
-135.909
 20
199.068
 11
-136.144
 21
199.197
  0
LINE
  8
0
 10
-136.144
 20
199.197
 11
-136.361
 21
199.355
  0
LINE
  8
0
 10
-136.361
 20
199.355
 11
-136.557
 21
199.538
  0
LINE
  8
0
 10
-136.557
 20
199.538
 11
-136.727
 21
199.745
  0
LINE
  8
0
 10
-136.727
 20
199.745
 11
-136.871
 21
199.971
  0
LINE
  8
0
 10
-136.871
 20
199.971
 11
-136.985
 21
200.214
  0
LINE
  8
0
 10
-136.985
 20
200.214
 11
-137.068
 21
200.469
  0
LINE
  8
0
 10
-137.068
 20
200.469
 11
-137.118
 21
200.732
  0
LINE
  8
0
 10
-137.118
 20
200.732
 11
-137.135
 21
201
  0
LINE
  8
0
 10
-137.135
 20
201
 11
-137.118
 21
201.268
  0
LINE
  8
0
 10
-137.118
 20
201.268
 11
-137.068
 21
201.531
  0
LINE
  8
0
 10
-137.068
 20
201.531
 11
-136.985
 21
201.786
  0
LINE
  8
0
 10
-136.985
 20
201.786
 11
-136.871
 21
202.029
  0
LINE
  8
0
 10
-136.871
 20
202.029
 11
-136.727
 21
202.255
  0
LINE
  8
0
 10
-136.727
 20
202.255
 11
-136.557
 21
202.462
  0
LINE
  8
0
 10
-136.557
 20
202.462
 11
-136.361
 21
202.645
  0
LINE
  8
0
 10
-136.361
 20
202.645
 11
-136.144
 21
202.803
  0
LINE
  8
0
 10
-136.144
 20
202.803
 11
-135.909
 21
202.932
  0
LINE
  8
0
 10
-135.909
 20
202.932
 11
-135.66
 21
203.031
  0
LINE
  8
0
 10
-135.66
 20
203.031
 11
-135.4
 21
203.097
  0
LINE
  8
0
 10
-135.4
 20
203.097
 11
-135.134
 21
203.131
  0
LINE
  8
0
 10
-135.134
 20
203.131
 11
-134.866
 21
203.131
  0
LINE
  8
0
 10
-134.866
 20
203.131
 11
-134.6
 21
203.097
  0
LINE
  8
0
 10
-134.6
 20
203.097
 11
-134.34
 21
203.031
  0
LINE
  8
0
 10
-134.34
 20
203.031
 11
-134.091
 21
202.932
  0
LINE
  8
0
 10
-134.091
 20
202.932
 11
-133.856
 21
202.803
  0
LINE
  8
0
 10
-133.856
 20
202.803
 11
-133.639
 21
202.645
  0
LINE
  8
0
 10
-133.639
 20
202.645
 11
-133.443
 21
202.462
  0
LINE
  8
0
 10
-133.443
 20
202.462
 11
-133.273
 21
202.255
  0
LINE
  8
0
 10
-133.273
 20
202.255
 11
-133.129
 21
202.029
  0
LINE
  8
0
 10
-133.129
 20
202.029
 11
-133.015
 21
201.786
  0
LINE
  8
0
 10
-133.015
 20
201.786
 11
-132.932
 21
201.531
  0
LINE
  8
0
 10
-132.932
 20
201.531
 11
-132.882
 21
201.268
  0
LINE
  8
0
 10
-132.882
 20
201.268
 11
-132.865
 21
201
  0
LINE
  8
0
 10
-132.865
 20
201
 11
-132.882
 21
200.732
  0
LINE
  8
0
 10
-132.882
 20
200.732
 11
-132.932
 21
200.469
  0
LINE
  8
0
 10
-132.932
 20
200.469
 11
-133.015
 21
200.214
  0
LINE
  8
0
 10
-133.015
 20
200.214
 11
-133.129
 21
199.971
  0
LINE
  8
0
 10
-133.129
 20
199.971
 11
-133.273
 21
199.745
  0
LINE
  8
0
 10
-133.273
 20
199.745
 11
-133.443
 21
199.538
  0
LINE
  8
0
 10
-133.443
 20
199.538
 11
-133.639
 21
199.355
  0
LINE
  8
0
 10
-133.639
 20
199.355
 11
-133.856
 21
199.197
  0
LINE
  8
0
 10
-133.856
 20
199.197
 11
-134.091
 21
199.068
  0
LINE
  8
0
 10
-134.091
 20
199.068
 11
-134.34
 21
198.969
  0
LINE
  8
0
 10
-134.34
 20
198.969
 11
-134.6
 21
198.903
  0
LINE
  8
0
 10
-134.6
 20
198.903
 11
-134.866
 21
198.869
  0
LINE
  8
0
 10
-134.866
 20
198.869
 11
-135.134
 21
198.869
  0
LINE
  8
0
 10
134.866
 20
198.869
 11
134.6
 21
198.903
  0
LINE
  8
0
 10
134.6
 20
198.903
 11
134.34
 21
198.969
  0
LINE
  8
0
 10
134.34
 20
198.969
 11
134.091
 21
199.068
  0
LINE
  8
0
 10
134.091
 20
199.068
 11
133.856
 21
199.197
  0
LINE
  8
0
 10
133.856
 20
199.197
 11
133.639
 21
199.355
  0
LINE
  8
0
 10
133.639
 20
199.355
 11
133.443
 21
199.538
  0
LINE
  8
0
 10
133.443
 20
199.538
 11
133.273
 21
199.745
  0
LINE
  8
0
 10
133.273
 20
199.745
 11
133.129
 21
199.971
  0
LINE
  8
0
 10
133.129
 20
199.971
 11
133.015
 21
200.214
  0
LINE
  8
0
 10
133.015
 20
200.214
 11
132.932
 21
200.469
  0
LINE
  8
0
 10
132.932
 20
200.469
 11
132.882
 21
200.732
  0
LINE
  8
0
 10
132.882
 20
200.732
 11
132.865
 21
201
  0
LINE
  8
0
 10
132.865
 20
201
 11
132.882
 21
201.268
  0
LINE
  8
0
 10
132.882
 20
201.268
 11
132.932
 21
201.531
  0
LINE
  8
0
 10
132.932
 20
201.531
 11
133.015
 21
201.786
  0
LINE
  8
0
 10
133.015
 20
201.786
 11
133.129
 21
202.029
  0
LINE
  8
0
 10
133.129
 20
202.029
 11
133.273
 21
202.255
  0
LINE
  8
0
 10
133.273
 20
202.255
 11
133.443
 21
202.462
  0
LINE
  8
0
 10
133.443
 20
202.462
 11
133.639
 21
202.645
  0
LINE
  8
0
 10
133.639
 20
202.645
 11
133.856
 21
202.803
  0
LINE
  8
0
 10
133.856
 20
202.803
 11
134.091
 21
202.932
  0
LINE
  8
0
 10
134.091
 20
202.932
 11
134.34
 21
203.031
  0
LINE
  8
0
 10
134.34
 20
203.031
 11
134.6
 21
203.097
  0
LINE
  8
0
 10
134.6
 20
203.097
 11
134.866
 21
203.131
  0
LINE
  8
0
 10
134.866
 20
203.131
 11
135.134
 21
203.131
  0
LINE
  8
0
 10
135.134
 20
203.131
 11
135.4
 21
203.097
  0
LINE
  8
0
 10
135.4
 20
203.097
 11
135.66
 21
203.031
  0
LINE
  8
0
 10
135.66
 20
203.031
 11
135.909
 21
202.932
  0
LINE
  8
0
 10
135.909
 20
202.932
 11
136.144
 21
202.803
  0
LINE
  8
0
 10
136.144
 20
202.803
 11
136.361
 21
202.645
  0
LINE
  8
0
 10
136.361
 20
202.645
 11
136.557
 21
202.462
  0
LINE
  8
0
 10
136.557
 20
202.462
 11
136.727
 21
202.255
  0
LINE
  8
0
 10
136.727
 20
202.255
 11
136.871
 21
202.029
  0
LINE
  8
0
 10
136.871
 20
202.029
 11
136.985
 21
201.786
  0
LINE
  8
0
 10
136.985
 20
201.786
 11
137.068
 21
201.531
  0
LINE
  8
0
 10
137.068
 20
201.531
 11
137.118
 21
201.268
  0
LINE
  8
0
 10
137.118
 20
201.268
 11
137.135
 21
201
  0
LINE
  8
0
 10
137.135
 20
201
 11
137.118
 21
200.732
  0
LINE
  8
0
 10
137.118
 20
200.732
 11
137.068
 21
200.469
  0
LINE
  8
0
 10
137.068
 20
200.469
 11
136.985
 21
200.214
  0
LINE
  8
0
 10
136.985
 20
200.214
 11
136.871
 21
199.971
  0
LINE
  8
0
 10
136.871
 20
199.971
 11
136.727
 21
199.745
  0
LINE
  8
0
 10
136.727
 20
199.745
 11
136.557
 21
199.538
  0
LINE
  8
0
 10
136.557
 20
199.538
 11
136.361
 21
199.355
  0
LINE
  8
0
 10
136.361
 20
199.355
 11
136.144
 21
199.197
  0
LINE
  8
0
 10
136.144
 20
199.197
 11
135.909
 21
199.068
  0
LINE
  8
0
 10
135.909
 20
199.068
 11
135.66
 21
198.969
  0
LINE
  8
0
 10
135.66
 20
198.969
 11
135.4
 21
198.903
  0
LINE
  8
0
 10
135.4
 20
198.903
 11
135.134
 21
198.869
  0
LINE
  8
0
 10
135.134
 20
198.869
 11
134.866
 21
198.869
  0
ENDSEC
  0
SECTION
  2
OBJECTS
  0
DICTIONARY
  0
ENDSEC
  0
EOF
