  0
SECTION
  2
BLOCKS
  0
ENDSEC
  0
SECTION
  2
ENTITIES
  0
LINE
  8
0
 10
-118.5
 20
113.941
 11
-118.187
 21
113.647
  0
LINE
  8
0
 10
-118.187
 20
113.647
 11
-117.679
 21
113.278
  0
LINE
  8
0
 10
-117.679
 20
113.278
 11
-117.129
 21
112.976
  0
LINE
  8
0
 10
-117.129
 20
112.976
 11
-116.545
 21
112.745
  0
LINE
  8
0
 10
-116.545
 20
112.745
 11
-115.937
 21
112.589
  0
LINE
  8
0
 10
-115.937
 20
112.589
 11
-115.314
 21
112.51
  0
LINE
  8
0
 10
-115.314
 20
112.51
 11
115.314
 21
112.51
  0
LINE
  8
0
 10
115.314
 20
112.51
 11
115.937
 21
112.589
  0
LINE
  8
0
 10
115.937
 20
112.589
 11
116.545
 21
112.745
  0
LINE
  8
0
 10
116.545
 20
112.745
 11
117.129
 21
112.976
  0
LINE
  8
0
 10
117.129
 20
112.976
 11
117.679
 21
113.278
  0
LINE
  8
0
 10
117.679
 20
113.278
 11
118.187
 21
113.647
  0
LINE
  8
0
 10
118.187
 20
113.647
 11
118.645
 21
114.077
  0
LINE
  8
0
 10
118.645
 20
114.077
 11
119.045
 21
114.561
  0
LINE
  8
0
 10
119.045
 20
114.561
 11
119.382
 21
115.091
  0
LINE
  8
0
 10
119.382
 20
115.091
 11
119.649
 21
115.659
  0
LINE
  8
0
 10
119.649
 20
115.659
 11
119.843
 21
116.257
  0
LINE
  8
0
 10
119.843
 20
116.257
 11
119.961
 21
116.873
  0
LINE
  8
0
 10
119.961
 20
116.873
 11
120
 21
117.5
  0
LINE
  8
0
 10
120
 20
117.5
 11
120
 21
122.5
  0
LINE
  8
0
 10
120
 20
122.5
 11
119.961
 21
123.127
  0
LINE
  8
0
 10
119.961
 20
123.127
 11
119.843
 21
123.743
  0
LINE
  8
0
 10
119.843
 20
123.743
 11
119.649
 21
124.341
  0
LINE
  8
0
 10
119.649
 20
124.341
 11
119.382
 21
124.909
  0
LINE
  8
0
 10
119.382
 20
124.909
 11
119.045
 21
125.439
  0
LINE
  8
0
 10
119.045
 20
125.439
 11
118.645
 21
125.923
  0
LINE
  8
0
 10
118.645
 20
125.923
 11
118.187
 21
126.353
  0
LINE
  8
0
 10
118.187
 20
126.353
 11
117.679
 21
126.722
  0
LINE
  8
0
 10
117.679
 20
126.722
 11
117.129
 21
127.024
  0
LINE
  8
0
 10
117.129
 20
127.024
 11
116.545
 21
127.255
  0
LINE
  8
0
 10
116.545
 20
127.255
 11
115.937
 21
127.411
  0
LINE
  8
0
 10
115.937
 20
127.411
 11
115.314
 21
127.49
  0
LINE
  8
0
 10
115.314
 20
127.49
 11
-115.314
 21
127.49
  0
LINE
  8
0
 10
-115.314
 20
127.49
 11
-115.937
 21
127.411
  0
LINE
  8
0
 10
-115.937
 20
127.411
 11
-116.545
 21
127.255
  0
LINE
  8
0
 10
-116.545
 20
127.255
 11
-117.129
 21
127.024
  0
LINE
  8
0
 10
-117.129
 20
127.024
 11
-117.679
 21
126.722
  0
LINE
  8
0
 10
-117.679
 20
126.722
 11
-118.187
 21
126.353
  0
LINE
  8
0
 10
-118.187
 20
126.353
 11
-118.5
 21
126.059
  0
LINE
  8
0
 10
-118.5
 20
126.059
 11
-118.5
 21
127.49
  0
LINE
  8
0
 10
-118.5
 20
127.49
 11
-121.5
 21
127.49
  0
LINE
  8
0
 10
-121.5
 20
127.49
 11
-121.5
 21
112.51
  0
LINE
  8
0
 10
-121.5
 20
112.51
 11
-118.5
 21
112.51
  0
LINE
  8
0
 10
-118.5
 20
112.51
 11
-118.5
 21
113.941
  0
LINE
  8
0
 10
-114.751
 20
114.008
 11
-115.25
 21
114.071
  0
LINE
  8
0
 10
-115.25
 20
114.071
 11
-115.736
 21
114.196
  0
LINE
  8
0
 10
-115.736
 20
114.196
 11
-116.203
 21
114.381
  0
LINE
  8
0
 10
-116.203
 20
114.381
 11
-116.643
 21
114.623
  0
LINE
  8
0
 10
-116.643
 20
114.623
 11
-117.05
 21
114.918
  0
LINE
  8
0
 10
-117.05
 20
114.918
 11
-117.416
 21
115.262
  0
LINE
  8
0
 10
-117.416
 20
115.262
 11
-117.736
 21
115.649
  0
LINE
  8
0
 10
-117.736
 20
115.649
 11
-118.005
 21
116.073
  0
LINE
  8
0
 10
-118.005
 20
116.073
 11
-118.219
 21
116.528
  0
LINE
  8
0
 10
-118.219
 20
116.528
 11
-118.374
 21
117.005
  0
LINE
  8
0
 10
-118.374
 20
117.005
 11
-118.468
 21
117.499
  0
LINE
  8
0
 10
-118.468
 20
117.499
 11
-118.5
 21
118
  0
LINE
  8
0
 10
-118.5
 20
118
 11
-118.5
 21
122
  0
LINE
  8
0
 10
-118.5
 20
122
 11
-118.468
 21
122.501
  0
LINE
  8
0
 10
-118.468
 20
122.501
 11
-118.374
 21
122.995
  0
LINE
  8
0
 10
-118.374
 20
122.995
 11
-118.219
 21
123.472
  0
LINE
  8
0
 10
-118.219
 20
123.472
 11
-118.005
 21
123.927
  0
LINE
  8
0
 10
-118.005
 20
123.927
 11
-117.736
 21
124.351
  0
LINE
  8
0
 10
-117.736
 20
124.351
 11
-117.416
 21
124.738
  0
LINE
  8
0
 10
-117.416
 20
124.738
 11
-117.05
 21
125.082
  0
LINE
  8
0
 10
-117.05
 20
125.082
 11
-116.643
 21
125.377
  0
LINE
  8
0
 10
-116.643
 20
125.377
 11
-116.203
 21
125.619
  0
LINE
  8
0
 10
-116.203
 20
125.619
 11
-115.736
 21
125.804
  0
LINE
  8
0
 10
-115.736
 20
125.804
 11
-115.25
 21
125.929
  0
LINE
  8
0
 10
-115.25
 20
125.929
 11
-114.751
 21
125.992
  0
LINE
  8
0
 10
-114.751
 20
125.992
 11
114.751
 21
125.992
  0
LINE
  8
0
 10
114.751
 20
125.992
 11
115.25
 21
125.929
  0
LINE
  8
0
 10
115.25
 20
125.929
 11
115.736
 21
125.804
  0
LINE
  8
0
 10
115.736
 20
125.804
 11
116.203
 21
125.619
  0
LINE
  8
0
 10
116.203
 20
125.619
 11
116.643
 21
125.377
  0
LINE
  8
0
 10
116.643
 20
125.377
 11
117.05
 21
125.082
  0
LINE
  8
0
 10
117.05
 20
125.082
 11
117.416
 21
124.738
  0
LINE
  8
0
 10
117.416
 20
124.738
 11
117.736
 21
124.351
  0
LINE
  8
0
 10
117.736
 20
124.351
 11
118.005
 21
123.927
  0
LINE
  8
0
 10
118.005
 20
123.927
 11
118.219
 21
123.472
  0
LINE
  8
0
 10
118.219
 20
123.472
 11
118.374
 21
122.995
  0
LINE
  8
0
 10
118.374
 20
122.995
 11
118.468
 21
122.501
  0
LINE
  8
0
 10
118.468
 20
122.501
 11
118.5
 21
122
  0
LINE
  8
0
 10
118.5
 20
122
 11
118.5
 21
118
  0
LINE
  8
0
 10
118.5
 20
118
 11
118.468
 21
117.499
  0
LINE
  8
0
 10
118.468
 20
117.499
 11
118.374
 21
117.005
  0
LINE
  8
0
 10
118.374
 20
117.005
 11
118.219
 21
116.528
  0
LINE
  8
0
 10
118.219
 20
116.528
 11
118.005
 21
116.073
  0
LINE
  8
0
 10
118.005
 20
116.073
 11
117.736
 21
115.649
  0
LINE
  8
0
 10
117.736
 20
115.649
 11
117.416
 21
115.262
  0
LINE
  8
0
 10
117.416
 20
115.262
 11
117.05
 21
114.918
  0
LINE
  8
0
 10
117.05
 20
114.918
 11
116.643
 21
114.623
  0
LINE
  8
0
 10
116.643
 20
114.623
 11
116.203
 21
114.381
  0
LINE
  8
0
 10
116.203
 20
114.381
 11
115.736
 21
114.196
  0
LINE
  8
0
 10
115.736
 20
114.196
 11
115.25
 21
114.071
  0
LINE
  8
0
 10
115.25
 20
114.071
 11
114.751
 21
114.008
  0
LINE
  8
0
 10
114.751
 20
114.008
 11
-114.751
 21
114.008
  0
LINE
  8
0
 10
115.937
 20
88.5886
 11
116.545
 21
88.7447
  0
LINE
  8
0
 10
116.545
 20
88.7447
 11
117.129
 21
88.9759
  0
LINE
  8
0
 10
117.129
 20
88.9759
 11
117.679
 21
89.2784
  0
LINE
  8
0
 10
117.679
 20
89.2784
 11
118.187
 21
89.6474
  0
LINE
  8
0
 10
118.187
 20
89.6474
 11
118.645
 21
90.0773
  0
LINE
  8
0
 10
118.645
 20
90.0773
 11
119.045
 21
90.5611
  0
LINE
  8
0
 10
119.045
 20
90.5611
 11
119.382
 21
91.0912
  0
LINE
  8
0
 10
119.382
 20
91.0912
 11
119.649
 21
91.6594
  0
LINE
  8
0
 10
119.649
 20
91.6594
 11
119.843
 21
92.2566
  0
LINE
  8
0
 10
119.843
 20
92.2566
 11
119.961
 21
92.8733
  0
LINE
  8
0
 10
119.961
 20
92.8733
 11
120
 21
93.5
  0
LINE
  8
0
 10
120
 20
93.5
 11
120
 21
98.5
  0
LINE
  8
0
 10
120
 20
98.5
 11
119.961
 21
99.1267
  0
LINE
  8
0
 10
119.961
 20
99.1267
 11
119.843
 21
99.7434
  0
LINE
  8
0
 10
119.843
 20
99.7434
 11
119.649
 21
100.341
  0
LINE
  8
0
 10
119.649
 20
100.341
 11
119.382
 21
100.909
  0
LINE
  8
0
 10
119.382
 20
100.909
 11
119.045
 21
101.439
  0
LINE
  8
0
 10
119.045
 20
101.439
 11
118.645
 21
101.923
  0
LINE
  8
0
 10
118.645
 20
101.923
 11
118.187
 21
102.353
  0
LINE
  8
0
 10
118.187
 20
102.353
 11
117.679
 21
102.722
  0
LINE
  8
0
 10
117.679
 20
102.722
 11
117.129
 21
103.024
  0
LINE
  8
0
 10
117.129
 20
103.024
 11
116.545
 21
103.255
  0
LINE
  8
0
 10
116.545
 20
103.255
 11
115.937
 21
103.411
  0
LINE
  8
0
 10
115.937
 20
103.411
 11
115.314
 21
103.49
  0
LINE
  8
0
 10
115.314
 20
103.49
 11
-115.314
 21
103.49
  0
LINE
  8
0
 10
-115.314
 20
103.49
 11
-115.937
 21
103.411
  0
LINE
  8
0
 10
-115.937
 20
103.411
 11
-116.545
 21
103.255
  0
LINE
  8
0
 10
-116.545
 20
103.255
 11
-117.129
 21
103.024
  0
LINE
  8
0
 10
-117.129
 20
103.024
 11
-117.679
 21
102.722
  0
LINE
  8
0
 10
-117.679
 20
102.722
 11
-118.187
 21
102.353
  0
LINE
  8
0
 10
-118.187
 20
102.353
 11
-118.5
 21
102.059
  0
LINE
  8
0
 10
-118.5
 20
102.059
 11
-118.5
 21
103.479
  0
LINE
  8
0
 10
-118.5
 20
103.479
 11
-121.5
 21
103.479
  0
LINE
  8
0
 10
-121.5
 20
103.479
 11
-121.5
 21
88.5208
  0
LINE
  8
0
 10
-121.5
 20
88.5208
 11
-118.5
 21
88.5208
  0
LINE
  8
0
 10
-118.5
 20
88.5208
 11
-118.5
 21
89.9413
  0
LINE
  8
0
 10
-118.5
 20
89.9413
 11
-118.187
 21
89.6474
  0
LINE
  8
0
 10
-118.187
 20
89.6474
 11
-117.679
 21
89.2784
  0
LINE
  8
0
 10
-117.679
 20
89.2784
 11
-117.129
 21
88.9759
  0
LINE
  8
0
 10
-117.129
 20
88.9759
 11
-116.545
 21
88.7447
  0
LINE
  8
0
 10
-116.545
 20
88.7447
 11
-115.937
 21
88.5886
  0
LINE
  8
0
 10
-115.937
 20
88.5886
 11
-115.314
 21
88.5099
  0
LINE
  8
0
 10
-115.314
 20
88.5099
 11
115.314
 21
88.5099
  0
LINE
  8
0
 10
115.314
 20
88.5099
 11
115.937
 21
88.5886
  0
LINE
  8
0
 10
-114.695
 20
90.8932
 11
-115.083
 21
90.9422
  0
LINE
  8
0
 10
-115.083
 20
90.9422
 11
-115.462
 21
91.0394
  0
LINE
  8
0
 10
-115.462
 20
91.0394
 11
-115.825
 21
91.1833
  0
LINE
  8
0
 10
-115.825
 20
91.1833
 11
-116.168
 21
91.3717
  0
LINE
  8
0
 10
-116.168
 20
91.3717
 11
-116.484
 21
91.6015
  0
LINE
  8
0
 10
-116.484
 20
91.6015
 11
-116.769
 21
91.8691
  0
LINE
  8
0
 10
-116.769
 20
91.8691
 11
-117.018
 21
92.1703
  0
LINE
  8
0
 10
-117.018
 20
92.1703
 11
-117.228
 21
92.5004
  0
LINE
  8
0
 10
-117.228
 20
92.5004
 11
-117.394
 21
92.8541
  0
LINE
  8
0
 10
-117.394
 20
92.8541
 11
-117.515
 21
93.2259
  0
LINE
  8
0
 10
-117.515
 20
93.2259
 11
-117.588
 21
93.6098
  0
LINE
  8
0
 10
-117.588
 20
93.6098
 11
-117.613
 21
94
  0
LINE
  8
0
 10
-117.613
 20
94
 11
-117.613
 21
98
  0
LINE
  8
0
 10
-117.613
 20
98
 11
-117.588
 21
98.3902
  0
LINE
  8
0
 10
-117.588
 20
98.3902
 11
-117.515
 21
98.7741
  0
LINE
  8
0
 10
-117.515
 20
98.7741
 11
-117.394
 21
99.1459
  0
LINE
  8
0
 10
-117.394
 20
99.1459
 11
-117.228
 21
99.4996
  0
LINE
  8
0
 10
-117.228
 20
99.4996
 11
-117.018
 21
99.8297
  0
LINE
  8
0
 10
-117.018
 20
99.8297
 11
-116.769
 21
100.131
  0
LINE
  8
0
 10
-116.769
 20
100.131
 11
-116.484
 21
100.399
  0
LINE
  8
0
 10
-116.484
 20
100.399
 11
-116.168
 21
100.628
  0
LINE
  8
0
 10
-116.168
 20
100.628
 11
-115.825
 21
100.817
  0
LINE
  8
0
 10
-115.825
 20
100.817
 11
-115.462
 21
100.961
  0
LINE
  8
0
 10
-115.462
 20
100.961
 11
-115.083
 21
101.058
  0
LINE
  8
0
 10
-115.083
 20
101.058
 11
-114.695
 21
101.107
  0
LINE
  8
0
 10
-114.695
 20
101.107
 11
114.695
 21
101.107
  0
LINE
  8
0
 10
114.695
 20
101.107
 11
115.083
 21
101.058
  0
LINE
  8
0
 10
115.083
 20
101.058
 11
115.462
 21
100.961
  0
LINE
  8
0
 10
115.462
 20
100.961
 11
115.825
 21
100.817
  0
LINE
  8
0
 10
115.825
 20
100.817
 11
116.168
 21
100.628
  0
LINE
  8
0
 10
116.168
 20
100.628
 11
116.484
 21
100.399
  0
LINE
  8
0
 10
116.484
 20
100.399
 11
116.769
 21
100.131
  0
LINE
  8
0
 10
116.769
 20
100.131
 11
117.018
 21
99.8297
  0
LINE
  8
0
 10
117.018
 20
99.8297
 11
117.228
 21
99.4996
  0
LINE
  8
0
 10
117.228
 20
99.4996
 11
117.394
 21
99.1459
  0
LINE
  8
0
 10
117.394
 20
99.1459
 11
117.515
 21
98.7741
  0
LINE
  8
0
 10
117.515
 20
98.7741
 11
117.588
 21
98.3902
  0
LINE
  8
0
 10
117.588
 20
98.3902
 11
117.613
 21
98
  0
LINE
  8
0
 10
117.613
 20
98
 11
117.613
 21
94
  0
LINE
  8
0
 10
117.613
 20
94
 11
117.588
 21
93.6098
  0
LINE
  8
0
 10
117.588
 20
93.6098
 11
117.515
 21
93.2259
  0
LINE
  8
0
 10
117.515
 20
93.2259
 11
117.394
 21
92.8541
  0
LINE
  8
0
 10
117.394
 20
92.8541
 11
117.228
 21
92.5004
  0
LINE
  8
0
 10
117.228
 20
92.5004
 11
117.018
 21
92.1703
  0
LINE
  8
0
 10
117.018
 20
92.1703
 11
116.769
 21
91.8691
  0
LINE
  8
0
 10
116.769
 20
91.8691
 11
116.484
 21
91.6015
  0
LINE
  8
0
 10
116.484
 20
91.6015
 11
116.168
 21
91.3717
  0
LINE
  8
0
 10
116.168
 20
91.3717
 11
115.825
 21
91.1833
  0
LINE
  8
0
 10
115.825
 20
91.1833
 11
115.462
 21
91.0394
  0
LINE
  8
0
 10
115.462
 20
91.0394
 11
115.083
 21
90.9422
  0
LINE
  8
0
 10
115.083
 20
90.9422
 11
114.695
 21
90.8932
  0
LINE
  8
0
 10
114.695
 20
90.8932
 11
-114.695
 21
90.8932
  0
LINE
  8
0
 10
115.937
 20
64.5886
 11
116.545
 21
64.7447
  0
LINE
  8
0
 10
116.545
 20
64.7447
 11
117.129
 21
64.9759
  0
LINE
  8
0
 10
117.129
 20
64.9759
 11
117.679
 21
65.2784
  0
LINE
  8
0
 10
117.679
 20
65.2784
 11
118.187
 21
65.6474
  0
LINE
  8
0
 10
118.187
 20
65.6474
 11
118.645
 21
66.0773
  0
LINE
  8
0
 10
118.645
 20
66.0773
 11
119.045
 21
66.5611
  0
LINE
  8
0
 10
119.045
 20
66.5611
 11
119.382
 21
67.0912
  0
LINE
  8
0
 10
119.382
 20
67.0912
 11
119.649
 21
67.6594
  0
LINE
  8
0
 10
119.649
 20
67.6594
 11
119.843
 21
68.2566
  0
LINE
  8
0
 10
119.843
 20
68.2566
 11
119.961
 21
68.8733
  0
LINE
  8
0
 10
119.961
 20
68.8733
 11
120
 21
69.5
  0
LINE
  8
0
 10
120
 20
69.5
 11
120
 21
74.5
  0
LINE
  8
0
 10
120
 20
74.5
 11
119.961
 21
75.1267
  0
LINE
  8
0
 10
119.961
 20
75.1267
 11
119.843
 21
75.7434
  0
LINE
  8
0
 10
119.843
 20
75.7434
 11
119.649
 21
76.3406
  0
LINE
  8
0
 10
119.649
 20
76.3406
 11
119.382
 21
76.9088
  0
LINE
  8
0
 10
119.382
 20
76.9088
 11
119.045
 21
77.4389
  0
LINE
  8
0
 10
119.045
 20
77.4389
 11
118.645
 21
77.9227
  0
LINE
  8
0
 10
118.645
 20
77.9227
 11
118.187
 21
78.3526
  0
LINE
  8
0
 10
118.187
 20
78.3526
 11
117.679
 21
78.7216
  0
LINE
  8
0
 10
117.679
 20
78.7216
 11
117.129
 21
79.0241
  0
LINE
  8
0
 10
117.129
 20
79.0241
 11
116.545
 21
79.2553
  0
LINE
  8
0
 10
116.545
 20
79.2553
 11
115.937
 21
79.4114
  0
LINE
  8
0
 10
115.937
 20
79.4114
 11
115.314
 21
79.4901
  0
LINE
  8
0
 10
115.314
 20
79.4901
 11
-115.314
 21
79.4901
  0
LINE
  8
0
 10
-115.314
 20
79.4901
 11
-115.937
 21
79.4114
  0
LINE
  8
0
 10
-115.937
 20
79.4114
 11
-116.545
 21
79.2553
  0
LINE
  8
0
 10
-116.545
 20
79.2553
 11
-117.129
 21
79.0241
  0
LINE
  8
0
 10
-117.129
 20
79.0241
 11
-117.679
 21
78.7216
  0
LINE
  8
0
 10
-117.679
 20
78.7216
 11
-118.187
 21
78.3526
  0
LINE
  8
0
 10
-118.187
 20
78.3526
 11
-118.5
 21
78.0587
  0
LINE
  8
0
 10
-118.5
 20
78.0587
 11
-118.5
 21
78.1526
  0
LINE
  8
0
 10
-118.5
 20
78.1526
 11
-121.5
 21
78.1526
  0
LINE
  8
0
 10
-121.5
 20
78.1526
 11
-121.5
 21
65.8474
  0
LINE
  8
0
 10
-121.5
 20
65.8474
 11
-118.5
 21
65.8474
  0
LINE
  8
0
 10
-118.5
 20
65.8474
 11
-118.5
 21
65.9413
  0
LINE
  8
0
 10
-118.5
 20
65.9413
 11
-118.187
 21
65.6474
  0
LINE
  8
0
 10
-118.187
 20
65.6474
 11
-117.679
 21
65.2784
  0
LINE
  8
0
 10
-117.679
 20
65.2784
 11
-117.129
 21
64.9759
  0
LINE
  8
0
 10
-117.129
 20
64.9759
 11
-116.545
 21
64.7447
  0
LINE
  8
0
 10
-116.545
 20
64.7447
 11
-115.937
 21
64.5886
  0
LINE
  8
0
 10
-115.937
 20
64.5886
 11
-115.314
 21
64.5099
  0
LINE
  8
0
 10
-115.314
 20
64.5099
 11
115.314
 21
64.5099
  0
LINE
  8
0
 10
115.314
 20
64.5099
 11
115.937
 21
64.5886
  0
LINE
  8
0
 10
112.366
 20
69.8689
 11
112.1
 21
69.9025
  0
LINE
  8
0
 10
112.1
 20
69.9025
 11
111.84
 21
69.9692
  0
LINE
  8
0
 10
111.84
 20
69.9692
 11
111.591
 21
70.0679
  0
LINE
  8
0
 10
111.591
 20
70.0679
 11
111.356
 21
70.1971
  0
LINE
  8
0
 10
111.356
 20
70.1971
 11
111.139
 21
70.3547
  0
LINE
  8
0
 10
111.139
 20
70.3547
 11
110.943
 21
70.5383
  0
LINE
  8
0
 10
110.943
 20
70.5383
 11
110.773
 21
70.7449
  0
LINE
  8
0
 10
110.773
 20
70.7449
 11
110.629
 21
70.9713
  0
LINE
  8
0
 10
110.629
 20
70.9713
 11
110.515
 21
71.214
  0
LINE
  8
0
 10
110.515
 20
71.214
 11
110.432
 21
71.469
  0
LINE
  8
0
 10
110.432
 20
71.469
 11
110.382
 21
71.7324
  0
LINE
  8
0
 10
110.382
 20
71.7324
 11
110.365
 21
72
  0
LINE
  8
0
 10
110.365
 20
72
 11
110.382
 21
72.2676
  0
LINE
  8
0
 10
110.382
 20
72.2676
 11
110.432
 21
72.531
  0
LINE
  8
0
 10
110.432
 20
72.531
 11
110.515
 21
72.786
  0
LINE
  8
0
 10
110.515
 20
72.786
 11
110.629
 21
73.0287
  0
LINE
  8
0
 10
110.629
 20
73.0287
 11
110.773
 21
73.2551
  0
LINE
  8
0
 10
110.773
 20
73.2551
 11
110.943
 21
73.4617
  0
LINE
  8
0
 10
110.943
 20
73.4617
 11
111.139
 21
73.6453
  0
LINE
  8
0
 10
111.139
 20
73.6453
 11
111.356
 21
73.8029
  0
LINE
  8
0
 10
111.356
 20
73.8029
 11
111.591
 21
73.9321
  0
LINE
  8
0
 10
111.591
 20
73.9321
 11
111.84
 21
74.0308
  0
LINE
  8
0
 10
111.84
 20
74.0308
 11
112.1
 21
74.0975
  0
LINE
  8
0
 10
112.1
 20
74.0975
 11
112.366
 21
74.1311
  0
LINE
  8
0
 10
112.366
 20
74.1311
 11
112.634
 21
74.1311
  0
LINE
  8
0
 10
112.634
 20
74.1311
 11
112.9
 21
74.0975
  0
LINE
  8
0
 10
112.9
 20
74.0975
 11
113.16
 21
74.0308
  0
LINE
  8
0
 10
113.16
 20
74.0308
 11
113.409
 21
73.9321
  0
LINE
  8
0
 10
113.409
 20
73.9321
 11
113.644
 21
73.8029
  0
LINE
  8
0
 10
113.644
 20
73.8029
 11
113.861
 21
73.6453
  0
LINE
  8
0
 10
113.861
 20
73.6453
 11
114.057
 21
73.4617
  0
LINE
  8
0
 10
114.057
 20
73.4617
 11
114.227
 21
73.2551
  0
LINE
  8
0
 10
114.227
 20
73.2551
 11
114.371
 21
73.0287
  0
LINE
  8
0
 10
114.371
 20
73.0287
 11
114.485
 21
72.786
  0
LINE
  8
0
 10
114.485
 20
72.786
 11
114.568
 21
72.531
  0
LINE
  8
0
 10
114.568
 20
72.531
 11
114.618
 21
72.2676
  0
LINE
  8
0
 10
114.618
 20
72.2676
 11
114.635
 21
72
  0
LINE
  8
0
 10
114.635
 20
72
 11
114.618
 21
71.7324
  0
LINE
  8
0
 10
114.618
 20
71.7324
 11
114.568
 21
71.469
  0
LINE
  8
0
 10
114.568
 20
71.469
 11
114.485
 21
71.214
  0
LINE
  8
0
 10
114.485
 20
71.214
 11
114.371
 21
70.9713
  0
LINE
  8
0
 10
114.371
 20
70.9713
 11
114.227
 21
70.7449
  0
LINE
  8
0
 10
114.227
 20
70.7449
 11
114.057
 21
70.5383
  0
LINE
  8
0
 10
114.057
 20
70.5383
 11
113.861
 21
70.3547
  0
LINE
  8
0
 10
113.861
 20
70.3547
 11
113.644
 21
70.1971
  0
LINE
  8
0
 10
113.644
 20
70.1971
 11
113.409
 21
70.0679
  0
LINE
  8
0
 10
113.409
 20
70.0679
 11
113.16
 21
69.9692
  0
LINE
  8
0
 10
113.16
 20
69.9692
 11
112.9
 21
69.9025
  0
LINE
  8
0
 10
112.9
 20
69.9025
 11
112.634
 21
69.8689
  0
LINE
  8
0
 10
112.634
 20
69.8689
 11
112.366
 21
69.8689
  0
LINE
  8
0
 10
-112.634
 20
69.8689
 11
-112.9
 21
69.9025
  0
LINE
  8
0
 10
-112.9
 20
69.9025
 11
-113.16
 21
69.9692
  0
LINE
  8
0
 10
-113.16
 20
69.9692
 11
-113.409
 21
70.0679
  0
LINE
  8
0
 10
-113.409
 20
70.0679
 11
-113.644
 21
70.1971
  0
LINE
  8
0
 10
-113.644
 20
70.1971
 11
-113.861
 21
70.3547
  0
LINE
  8
0
 10
-113.861
 20
70.3547
 11
-114.057
 21
70.5383
  0
LINE
  8
0
 10
-114.057
 20
70.5383
 11
-114.227
 21
70.7449
  0
LINE
  8
0
 10
-114.227
 20
70.7449
 11
-114.371
 21
70.9713
  0
LINE
  8
0
 10
-114.371
 20
70.9713
 11
-114.485
 21
71.214
  0
LINE
  8
0
 10
-114.485
 20
71.214
 11
-114.568
 21
71.469
  0
LINE
  8
0
 10
-114.568
 20
71.469
 11
-114.618
 21
71.7324
  0
LINE
  8
0
 10
-114.618
 20
71.7324
 11
-114.635
 21
72
  0
LINE
  8
0
 10
-114.635
 20
72
 11
-114.618
 21
72.2676
  0
LINE
  8
0
 10
-114.618
 20
72.2676
 11
-114.568
 21
72.531
  0
LINE
  8
0
 10
-114.568
 20
72.531
 11
-114.485
 21
72.786
  0
LINE
  8
0
 10
-114.485
 20
72.786
 11
-114.371
 21
73.0287
  0
LINE
  8
0
 10
-114.371
 20
73.0287
 11
-114.227
 21
73.2551
  0
LINE
  8
0
 10
-114.227
 20
73.2551
 11
-114.057
 21
73.4617
  0
LINE
  8
0
 10
-114.057
 20
73.4617
 11
-113.861
 21
73.6453
  0
LINE
  8
0
 10
-113.861
 20
73.6453
 11
-113.644
 21
73.8029
  0
LINE
  8
0
 10
-113.644
 20
73.8029
 11
-113.409
 21
73.9321
  0
LINE
  8
0
 10
-113.409
 20
73.9321
 11
-113.16
 21
74.0308
  0
LINE
  8
0
 10
-113.16
 20
74.0308
 11
-112.9
 21
74.0975
  0
LINE
  8
0
 10
-112.9
 20
74.0975
 11
-112.634
 21
74.1311
  0
LINE
  8
0
 10
-112.634
 20
74.1311
 11
-112.366
 21
74.1311
  0
LINE
  8
0
 10
-112.366
 20
74.1311
 11
-112.1
 21
74.0975
  0
LINE
  8
0
 10
-112.1
 20
74.0975
 11
-111.84
 21
74.0308
  0
LINE
  8
0
 10
-111.84
 20
74.0308
 11
-111.591
 21
73.9321
  0
LINE
  8
0
 10
-111.591
 20
73.9321
 11
-111.356
 21
73.8029
  0
LINE
  8
0
 10
-111.356
 20
73.8029
 11
-111.139
 21
73.6453
  0
LINE
  8
0
 10
-111.139
 20
73.6453
 11
-110.943
 21
73.4617
  0
LINE
  8
0
 10
-110.943
 20
73.4617
 11
-110.773
 21
73.2551
  0
LINE
  8
0
 10
-110.773
 20
73.2551
 11
-110.629
 21
73.0287
  0
LINE
  8
0
 10
-110.629
 20
73.0287
 11
-110.515
 21
72.786
  0
LINE
  8
0
 10
-110.515
 20
72.786
 11
-110.432
 21
72.531
  0
LINE
  8
0
 10
-110.432
 20
72.531
 11
-110.382
 21
72.2676
  0
LINE
  8
0
 10
-110.382
 20
72.2676
 11
-110.365
 21
72
  0
LINE
  8
0
 10
-110.365
 20
72
 11
-110.382
 21
71.7324
  0
LINE
  8
0
 10
-110.382
 20
71.7324
 11
-110.432
 21
71.469
  0
LINE
  8
0
 10
-110.432
 20
71.469
 11
-110.515
 21
71.214
  0
LINE
  8
0
 10
-110.515
 20
71.214
 11
-110.629
 21
70.9713
  0
LINE
  8
0
 10
-110.629
 20
70.9713
 11
-110.773
 21
70.7449
  0
LINE
  8
0
 10
-110.773
 20
70.7449
 11
-110.943
 21
70.5383
  0
LINE
  8
0
 10
-110.943
 20
70.5383
 11
-111.139
 21
70.3547
  0
LINE
  8
0
 10
-111.139
 20
70.3547
 11
-111.356
 21
70.1971
  0
LINE
  8
0
 10
-111.356
 20
70.1971
 11
-111.591
 21
70.0679
  0
LINE
  8
0
 10
-111.591
 20
70.0679
 11
-111.84
 21
69.9692
  0
LINE
  8
0
 10
-111.84
 20
69.9692
 11
-112.1
 21
69.9025
  0
LINE
  8
0
 10
-112.1
 20
69.9025
 11
-112.366
 21
69.8689
  0
LINE
  8
0
 10
-112.366
 20
69.8689
 11
-112.634
 21
69.8689
  0
ENDSEC
  0
SECTION
  2
OBJECTS
  0
DICTIONARY
  0
ENDSEC
  0
EOF
