  0
SECTION
  2
BLOCKS
  0
ENDSEC
  0
SECTION
  2
ENTITIES
  0
LINE
  8
0
 10
-126
 20
298.441
 11
-125.687
 21
298.147
  0
LINE
  8
0
 10
-125.687
 20
298.147
 11
-125.179
 21
297.778
  0
LINE
  8
0
 10
-125.179
 20
297.778
 11
-124.629
 21
297.476
  0
LINE
  8
0
 10
-124.629
 20
297.476
 11
-124.045
 21
297.245
  0
LINE
  8
0
 10
-124.045
 20
297.245
 11
-123.437
 21
297.089
  0
LINE
  8
0
 10
-123.437
 20
297.089
 11
-122.814
 21
297.01
  0
LINE
  8
0
 10
-122.814
 20
297.01
 11
122.814
 21
297.01
  0
LINE
  8
0
 10
122.814
 20
297.01
 11
123.437
 21
297.089
  0
LINE
  8
0
 10
123.437
 20
297.089
 11
124.045
 21
297.245
  0
LINE
  8
0
 10
124.045
 20
297.245
 11
124.629
 21
297.476
  0
LINE
  8
0
 10
124.629
 20
297.476
 11
125.179
 21
297.778
  0
LINE
  8
0
 10
125.179
 20
297.778
 11
125.687
 21
298.147
  0
LINE
  8
0
 10
125.687
 20
298.147
 11
126.145
 21
298.577
  0
LINE
  8
0
 10
126.145
 20
298.577
 11
126.545
 21
299.061
  0
LINE
  8
0
 10
126.545
 20
299.061
 11
126.882
 21
299.591
  0
LINE
  8
0
 10
126.882
 20
299.591
 11
127.149
 21
300.159
  0
LINE
  8
0
 10
127.149
 20
300.159
 11
127.343
 21
300.757
  0
LINE
  8
0
 10
127.343
 20
300.757
 11
127.461
 21
301.373
  0
LINE
  8
0
 10
127.461
 20
301.373
 11
127.5
 21
302
  0
LINE
  8
0
 10
127.5
 20
302
 11
127.5
 21
322
  0
LINE
  8
0
 10
127.5
 20
322
 11
127.461
 21
322.627
  0
LINE
  8
0
 10
127.461
 20
322.627
 11
127.343
 21
323.243
  0
LINE
  8
0
 10
127.343
 20
323.243
 11
127.149
 21
323.841
  0
LINE
  8
0
 10
127.149
 20
323.841
 11
126.882
 21
324.409
  0
LINE
  8
0
 10
126.882
 20
324.409
 11
126.545
 21
324.939
  0
LINE
  8
0
 10
126.545
 20
324.939
 11
126.145
 21
325.423
  0
LINE
  8
0
 10
126.145
 20
325.423
 11
125.687
 21
325.853
  0
LINE
  8
0
 10
125.687
 20
325.853
 11
125.179
 21
326.222
  0
LINE
  8
0
 10
125.179
 20
326.222
 11
124.629
 21
326.524
  0
LINE
  8
0
 10
124.629
 20
326.524
 11
124.045
 21
326.755
  0
LINE
  8
0
 10
124.045
 20
326.755
 11
123.437
 21
326.911
  0
LINE
  8
0
 10
123.437
 20
326.911
 11
122.814
 21
326.99
  0
LINE
  8
0
 10
122.814
 20
326.99
 11
-122.814
 21
326.99
  0
LINE
  8
0
 10
-122.814
 20
326.99
 11
-123.437
 21
326.911
  0
LINE
  8
0
 10
-123.437
 20
326.911
 11
-124.045
 21
326.755
  0
LINE
  8
0
 10
-124.045
 20
326.755
 11
-124.629
 21
326.524
  0
LINE
  8
0
 10
-124.629
 20
326.524
 11
-125.179
 21
326.222
  0
LINE
  8
0
 10
-125.179
 20
326.222
 11
-125.687
 21
325.853
  0
LINE
  8
0
 10
-125.687
 20
325.853
 11
-126
 21
325.559
  0
LINE
  8
0
 10
-126
 20
325.559
 11
-126
 21
326.99
  0
LINE
  8
0
 10
-126
 20
326.99
 11
-129
 21
326.99
  0
LINE
  8
0
 10
-129
 20
326.99
 11
-129
 21
297.01
  0
LINE
  8
0
 10
-129
 20
297.01
 11
-126
 21
297.01
  0
LINE
  8
0
 10
-126
 20
297.01
 11
-126
 21
298.441
  0
LINE
  8
0
 10
-122.251
 20
298.508
 11
-122.75
 21
298.571
  0
LINE
  8
0
 10
-122.75
 20
298.571
 11
-123.236
 21
298.696
  0
LINE
  8
0
 10
-123.236
 20
298.696
 11
-123.703
 21
298.881
  0
LINE
  8
0
 10
-123.703
 20
298.881
 11
-124.143
 21
299.123
  0
LINE
  8
0
 10
-124.143
 20
299.123
 11
-124.55
 21
299.418
  0
LINE
  8
0
 10
-124.55
 20
299.418
 11
-124.916
 21
299.762
  0
LINE
  8
0
 10
-124.916
 20
299.762
 11
-125.236
 21
300.149
  0
LINE
  8
0
 10
-125.236
 20
300.149
 11
-125.505
 21
300.573
  0
LINE
  8
0
 10
-125.505
 20
300.573
 11
-125.719
 21
301.028
  0
LINE
  8
0
 10
-125.719
 20
301.028
 11
-125.874
 21
301.505
  0
LINE
  8
0
 10
-125.874
 20
301.505
 11
-125.968
 21
301.999
  0
LINE
  8
0
 10
-125.968
 20
301.999
 11
-126
 21
302.5
  0
LINE
  8
0
 10
-126
 20
302.5
 11
-126
 21
321.5
  0
LINE
  8
0
 10
-126
 20
321.5
 11
-125.968
 21
322.001
  0
LINE
  8
0
 10
-125.968
 20
322.001
 11
-125.874
 21
322.495
  0
LINE
  8
0
 10
-125.874
 20
322.495
 11
-125.719
 21
322.972
  0
LINE
  8
0
 10
-125.719
 20
322.972
 11
-125.505
 21
323.427
  0
LINE
  8
0
 10
-125.505
 20
323.427
 11
-125.236
 21
323.851
  0
LINE
  8
0
 10
-125.236
 20
323.851
 11
-124.916
 21
324.238
  0
LINE
  8
0
 10
-124.916
 20
324.238
 11
-124.55
 21
324.582
  0
LINE
  8
0
 10
-124.55
 20
324.582
 11
-124.143
 21
324.877
  0
LINE
  8
0
 10
-124.143
 20
324.877
 11
-123.703
 21
325.119
  0
LINE
  8
0
 10
-123.703
 20
325.119
 11
-123.236
 21
325.304
  0
LINE
  8
0
 10
-123.236
 20
325.304
 11
-122.75
 21
325.429
  0
LINE
  8
0
 10
-122.75
 20
325.429
 11
-122.251
 21
325.492
  0
LINE
  8
0
 10
-122.251
 20
325.492
 11
122.251
 21
325.492
  0
LINE
  8
0
 10
122.251
 20
325.492
 11
122.75
 21
325.429
  0
LINE
  8
0
 10
122.75
 20
325.429
 11
123.236
 21
325.304
  0
LINE
  8
0
 10
123.236
 20
325.304
 11
123.703
 21
325.119
  0
LINE
  8
0
 10
123.703
 20
325.119
 11
124.143
 21
324.877
  0
LINE
  8
0
 10
124.143
 20
324.877
 11
124.55
 21
324.582
  0
LINE
  8
0
 10
124.55
 20
324.582
 11
124.916
 21
324.238
  0
LINE
  8
0
 10
124.916
 20
324.238
 11
125.236
 21
323.851
  0
LINE
  8
0
 10
125.236
 20
323.851
 11
125.505
 21
323.427
  0
LINE
  8
0
 10
125.505
 20
323.427
 11
125.719
 21
322.972
  0
LINE
  8
0
 10
125.719
 20
322.972
 11
125.874
 21
322.495
  0
LINE
  8
0
 10
125.874
 20
322.495
 11
125.968
 21
322.001
  0
LINE
  8
0
 10
125.968
 20
322.001
 11
126
 21
321.5
  0
LINE
  8
0
 10
126
 20
321.5
 11
126
 21
302.5
  0
LINE
  8
0
 10
126
 20
302.5
 11
125.968
 21
301.999
  0
LINE
  8
0
 10
125.968
 20
301.999
 11
125.874
 21
301.505
  0
LINE
  8
0
 10
125.874
 20
301.505
 11
125.719
 21
301.028
  0
LINE
  8
0
 10
125.719
 20
301.028
 11
125.505
 21
300.573
  0
LINE
  8
0
 10
125.505
 20
300.573
 11
125.236
 21
300.149
  0
LINE
  8
0
 10
125.236
 20
300.149
 11
124.916
 21
299.762
  0
LINE
  8
0
 10
124.916
 20
299.762
 11
124.55
 21
299.418
  0
LINE
  8
0
 10
124.55
 20
299.418
 11
124.143
 21
299.123
  0
LINE
  8
0
 10
124.143
 20
299.123
 11
123.703
 21
298.881
  0
LINE
  8
0
 10
123.703
 20
298.881
 11
123.236
 21
298.696
  0
LINE
  8
0
 10
123.236
 20
298.696
 11
122.75
 21
298.571
  0
LINE
  8
0
 10
122.75
 20
298.571
 11
122.251
 21
298.508
  0
LINE
  8
0
 10
122.251
 20
298.508
 11
-122.251
 21
298.508
  0
LINE
  8
0
 10
-126
 20
259.441
 11
-125.687
 21
259.147
  0
LINE
  8
0
 10
-125.687
 20
259.147
 11
-125.179
 21
258.778
  0
LINE
  8
0
 10
-125.179
 20
258.778
 11
-124.629
 21
258.476
  0
LINE
  8
0
 10
-124.629
 20
258.476
 11
-124.045
 21
258.245
  0
LINE
  8
0
 10
-124.045
 20
258.245
 11
-123.437
 21
258.089
  0
LINE
  8
0
 10
-123.437
 20
258.089
 11
-122.814
 21
258.01
  0
LINE
  8
0
 10
-122.814
 20
258.01
 11
122.814
 21
258.01
  0
LINE
  8
0
 10
122.814
 20
258.01
 11
123.437
 21
258.089
  0
LINE
  8
0
 10
123.437
 20
258.089
 11
124.045
 21
258.245
  0
LINE
  8
0
 10
124.045
 20
258.245
 11
124.629
 21
258.476
  0
LINE
  8
0
 10
124.629
 20
258.476
 11
125.179
 21
258.778
  0
LINE
  8
0
 10
125.179
 20
258.778
 11
125.687
 21
259.147
  0
LINE
  8
0
 10
125.687
 20
259.147
 11
126.145
 21
259.577
  0
LINE
  8
0
 10
126.145
 20
259.577
 11
126.545
 21
260.061
  0
LINE
  8
0
 10
126.545
 20
260.061
 11
126.882
 21
260.591
  0
LINE
  8
0
 10
126.882
 20
260.591
 11
127.149
 21
261.159
  0
LINE
  8
0
 10
127.149
 20
261.159
 11
127.343
 21
261.757
  0
LINE
  8
0
 10
127.343
 20
261.757
 11
127.461
 21
262.373
  0
LINE
  8
0
 10
127.461
 20
262.373
 11
127.5
 21
263
  0
LINE
  8
0
 10
127.5
 20
263
 11
127.5
 21
283
  0
LINE
  8
0
 10
127.5
 20
283
 11
127.461
 21
283.627
  0
LINE
  8
0
 10
127.461
 20
283.627
 11
127.343
 21
284.243
  0
LINE
  8
0
 10
127.343
 20
284.243
 11
127.149
 21
284.841
  0
LINE
  8
0
 10
127.149
 20
284.841
 11
126.882
 21
285.409
  0
LINE
  8
0
 10
126.882
 20
285.409
 11
126.545
 21
285.939
  0
LINE
  8
0
 10
126.545
 20
285.939
 11
126.145
 21
286.423
  0
LINE
  8
0
 10
126.145
 20
286.423
 11
125.687
 21
286.853
  0
LINE
  8
0
 10
125.687
 20
286.853
 11
125.179
 21
287.222
  0
LINE
  8
0
 10
125.179
 20
287.222
 11
124.629
 21
287.524
  0
LINE
  8
0
 10
124.629
 20
287.524
 11
124.045
 21
287.755
  0
LINE
  8
0
 10
124.045
 20
287.755
 11
123.437
 21
287.911
  0
LINE
  8
0
 10
123.437
 20
287.911
 11
122.814
 21
287.99
  0
LINE
  8
0
 10
122.814
 20
287.99
 11
-122.814
 21
287.99
  0
LINE
  8
0
 10
-122.814
 20
287.99
 11
-123.437
 21
287.911
  0
LINE
  8
0
 10
-123.437
 20
287.911
 11
-124.045
 21
287.755
  0
LINE
  8
0
 10
-124.045
 20
287.755
 11
-124.629
 21
287.524
  0
LINE
  8
0
 10
-124.629
 20
287.524
 11
-125.179
 21
287.222
  0
LINE
  8
0
 10
-125.179
 20
287.222
 11
-125.687
 21
286.853
  0
LINE
  8
0
 10
-125.687
 20
286.853
 11
-126
 21
286.559
  0
LINE
  8
0
 10
-126
 20
286.559
 11
-126
 21
287.99
  0
LINE
  8
0
 10
-126
 20
287.99
 11
-129
 21
287.99
  0
LINE
  8
0
 10
-129
 20
287.99
 11
-129
 21
258.01
  0
LINE
  8
0
 10
-129
 20
258.01
 11
-126
 21
258.01
  0
LINE
  8
0
 10
-126
 20
258.01
 11
-126
 21
259.441
  0
LINE
  8
0
 10
-122.251
 20
259.508
 11
-122.75
 21
259.571
  0
LINE
  8
0
 10
-122.75
 20
259.571
 11
-123.236
 21
259.696
  0
LINE
  8
0
 10
-123.236
 20
259.696
 11
-123.703
 21
259.881
  0
LINE
  8
0
 10
-123.703
 20
259.881
 11
-124.143
 21
260.123
  0
LINE
  8
0
 10
-124.143
 20
260.123
 11
-124.55
 21
260.418
  0
LINE
  8
0
 10
-124.55
 20
260.418
 11
-124.916
 21
260.762
  0
LINE
  8
0
 10
-124.916
 20
260.762
 11
-125.236
 21
261.149
  0
LINE
  8
0
 10
-125.236
 20
261.149
 11
-125.505
 21
261.573
  0
LINE
  8
0
 10
-125.505
 20
261.573
 11
-125.719
 21
262.028
  0
LINE
  8
0
 10
-125.719
 20
262.028
 11
-125.874
 21
262.505
  0
LINE
  8
0
 10
-125.874
 20
262.505
 11
-125.968
 21
262.999
  0
LINE
  8
0
 10
-125.968
 20
262.999
 11
-126
 21
263.5
  0
LINE
  8
0
 10
-126
 20
263.5
 11
-126
 21
282.5
  0
LINE
  8
0
 10
-126
 20
282.5
 11
-125.968
 21
283.001
  0
LINE
  8
0
 10
-125.968
 20
283.001
 11
-125.874
 21
283.495
  0
LINE
  8
0
 10
-125.874
 20
283.495
 11
-125.719
 21
283.972
  0
LINE
  8
0
 10
-125.719
 20
283.972
 11
-125.505
 21
284.427
  0
LINE
  8
0
 10
-125.505
 20
284.427
 11
-125.236
 21
284.851
  0
LINE
  8
0
 10
-125.236
 20
284.851
 11
-124.916
 21
285.238
  0
LINE
  8
0
 10
-124.916
 20
285.238
 11
-124.55
 21
285.582
  0
LINE
  8
0
 10
-124.55
 20
285.582
 11
-124.143
 21
285.877
  0
LINE
  8
0
 10
-124.143
 20
285.877
 11
-123.703
 21
286.119
  0
LINE
  8
0
 10
-123.703
 20
286.119
 11
-123.236
 21
286.304
  0
LINE
  8
0
 10
-123.236
 20
286.304
 11
-122.75
 21
286.429
  0
LINE
  8
0
 10
-122.75
 20
286.429
 11
-122.251
 21
286.492
  0
LINE
  8
0
 10
-122.251
 20
286.492
 11
122.251
 21
286.492
  0
LINE
  8
0
 10
122.251
 20
286.492
 11
122.75
 21
286.429
  0
LINE
  8
0
 10
122.75
 20
286.429
 11
123.236
 21
286.304
  0
LINE
  8
0
 10
123.236
 20
286.304
 11
123.703
 21
286.119
  0
LINE
  8
0
 10
123.703
 20
286.119
 11
124.143
 21
285.877
  0
LINE
  8
0
 10
124.143
 20
285.877
 11
124.55
 21
285.582
  0
LINE
  8
0
 10
124.55
 20
285.582
 11
124.916
 21
285.238
  0
LINE
  8
0
 10
124.916
 20
285.238
 11
125.236
 21
284.851
  0
LINE
  8
0
 10
125.236
 20
284.851
 11
125.505
 21
284.427
  0
LINE
  8
0
 10
125.505
 20
284.427
 11
125.719
 21
283.972
  0
LINE
  8
0
 10
125.719
 20
283.972
 11
125.874
 21
283.495
  0
LINE
  8
0
 10
125.874
 20
283.495
 11
125.968
 21
283.001
  0
LINE
  8
0
 10
125.968
 20
283.001
 11
126
 21
282.5
  0
LINE
  8
0
 10
126
 20
282.5
 11
126
 21
263.5
  0
LINE
  8
0
 10
126
 20
263.5
 11
125.968
 21
262.999
  0
LINE
  8
0
 10
125.968
 20
262.999
 11
125.874
 21
262.505
  0
LINE
  8
0
 10
125.874
 20
262.505
 11
125.719
 21
262.028
  0
LINE
  8
0
 10
125.719
 20
262.028
 11
125.505
 21
261.573
  0
LINE
  8
0
 10
125.505
 20
261.573
 11
125.236
 21
261.149
  0
LINE
  8
0
 10
125.236
 20
261.149
 11
124.916
 21
260.762
  0
LINE
  8
0
 10
124.916
 20
260.762
 11
124.55
 21
260.418
  0
LINE
  8
0
 10
124.55
 20
260.418
 11
124.143
 21
260.123
  0
LINE
  8
0
 10
124.143
 20
260.123
 11
123.703
 21
259.881
  0
LINE
  8
0
 10
123.703
 20
259.881
 11
123.236
 21
259.696
  0
LINE
  8
0
 10
123.236
 20
259.696
 11
122.75
 21
259.571
  0
LINE
  8
0
 10
122.75
 20
259.571
 11
122.251
 21
259.508
  0
LINE
  8
0
 10
122.251
 20
259.508
 11
-122.251
 21
259.508
  0
LINE
  8
0
 10
-126
 20
220.441
 11
-125.687
 21
220.147
  0
LINE
  8
0
 10
-125.687
 20
220.147
 11
-125.179
 21
219.778
  0
LINE
  8
0
 10
-125.179
 20
219.778
 11
-124.629
 21
219.476
  0
LINE
  8
0
 10
-124.629
 20
219.476
 11
-124.045
 21
219.245
  0
LINE
  8
0
 10
-124.045
 20
219.245
 11
-123.437
 21
219.089
  0
LINE
  8
0
 10
-123.437
 20
219.089
 11
-122.814
 21
219.01
  0
LINE
  8
0
 10
-122.814
 20
219.01
 11
122.814
 21
219.01
  0
LINE
  8
0
 10
122.814
 20
219.01
 11
123.437
 21
219.089
  0
LINE
  8
0
 10
123.437
 20
219.089
 11
124.045
 21
219.245
  0
LINE
  8
0
 10
124.045
 20
219.245
 11
124.629
 21
219.476
  0
LINE
  8
0
 10
124.629
 20
219.476
 11
125.179
 21
219.778
  0
LINE
  8
0
 10
125.179
 20
219.778
 11
125.687
 21
220.147
  0
LINE
  8
0
 10
125.687
 20
220.147
 11
126.145
 21
220.577
  0
LINE
  8
0
 10
126.145
 20
220.577
 11
126.545
 21
221.061
  0
LINE
  8
0
 10
126.545
 20
221.061
 11
126.882
 21
221.591
  0
LINE
  8
0
 10
126.882
 20
221.591
 11
127.149
 21
222.159
  0
LINE
  8
0
 10
127.149
 20
222.159
 11
127.343
 21
222.757
  0
LINE
  8
0
 10
127.343
 20
222.757
 11
127.461
 21
223.373
  0
LINE
  8
0
 10
127.461
 20
223.373
 11
127.5
 21
224
  0
LINE
  8
0
 10
127.5
 20
224
 11
127.5
 21
244
  0
LINE
  8
0
 10
127.5
 20
244
 11
127.461
 21
244.627
  0
LINE
  8
0
 10
127.461
 20
244.627
 11
127.343
 21
245.243
  0
LINE
  8
0
 10
127.343
 20
245.243
 11
127.149
 21
245.841
  0
LINE
  8
0
 10
127.149
 20
245.841
 11
126.882
 21
246.409
  0
LINE
  8
0
 10
126.882
 20
246.409
 11
126.545
 21
246.939
  0
LINE
  8
0
 10
126.545
 20
246.939
 11
126.145
 21
247.423
  0
LINE
  8
0
 10
126.145
 20
247.423
 11
125.687
 21
247.853
  0
LINE
  8
0
 10
125.687
 20
247.853
 11
125.179
 21
248.222
  0
LINE
  8
0
 10
125.179
 20
248.222
 11
124.629
 21
248.524
  0
LINE
  8
0
 10
124.629
 20
248.524
 11
124.045
 21
248.755
  0
LINE
  8
0
 10
124.045
 20
248.755
 11
123.437
 21
248.911
  0
LINE
  8
0
 10
123.437
 20
248.911
 11
122.814
 21
248.99
  0
LINE
  8
0
 10
122.814
 20
248.99
 11
-122.814
 21
248.99
  0
LINE
  8
0
 10
-122.814
 20
248.99
 11
-123.437
 21
248.911
  0
LINE
  8
0
 10
-123.437
 20
248.911
 11
-124.045
 21
248.755
  0
LINE
  8
0
 10
-124.045
 20
248.755
 11
-124.629
 21
248.524
  0
LINE
  8
0
 10
-124.629
 20
248.524
 11
-125.179
 21
248.222
  0
LINE
  8
0
 10
-125.179
 20
248.222
 11
-125.687
 21
247.853
  0
LINE
  8
0
 10
-125.687
 20
247.853
 11
-126
 21
247.559
  0
LINE
  8
0
 10
-126
 20
247.559
 11
-126
 21
248.99
  0
LINE
  8
0
 10
-126
 20
248.99
 11
-129
 21
248.99
  0
LINE
  8
0
 10
-129
 20
248.99
 11
-129
 21
219.01
  0
LINE
  8
0
 10
-129
 20
219.01
 11
-126
 21
219.01
  0
LINE
  8
0
 10
-126
 20
219.01
 11
-126
 21
220.441
  0
LINE
  8
0
 10
-122.243
 20
220.635
 11
-122.726
 21
220.696
  0
LINE
  8
0
 10
-122.726
 20
220.696
 11
-123.197
 21
220.817
  0
LINE
  8
0
 10
-123.197
 20
220.817
 11
-123.649
 21
220.996
  0
LINE
  8
0
 10
-123.649
 20
220.996
 11
-124.075
 21
221.23
  0
LINE
  8
0
 10
-124.075
 20
221.23
 11
-124.469
 21
221.516
  0
LINE
  8
0
 10
-124.469
 20
221.516
 11
-124.823
 21
221.849
  0
LINE
  8
0
 10
-124.823
 20
221.849
 11
-125.133
 21
222.224
  0
LINE
  8
0
 10
-125.133
 20
222.224
 11
-125.394
 21
222.634
  0
LINE
  8
0
 10
-125.394
 20
222.634
 11
-125.601
 21
223.074
  0
LINE
  8
0
 10
-125.601
 20
223.074
 11
-125.751
 21
223.537
  0
LINE
  8
0
 10
-125.751
 20
223.537
 11
-125.842
 21
224.015
  0
LINE
  8
0
 10
-125.842
 20
224.015
 11
-125.873
 21
224.5
  0
LINE
  8
0
 10
-125.873
 20
224.5
 11
-125.873
 21
243.5
  0
LINE
  8
0
 10
-125.873
 20
243.5
 11
-125.842
 21
243.985
  0
LINE
  8
0
 10
-125.842
 20
243.985
 11
-125.751
 21
244.463
  0
LINE
  8
0
 10
-125.751
 20
244.463
 11
-125.601
 21
244.926
  0
LINE
  8
0
 10
-125.601
 20
244.926
 11
-125.394
 21
245.366
  0
LINE
  8
0
 10
-125.394
 20
245.366
 11
-125.133
 21
245.776
  0
LINE
  8
0
 10
-125.133
 20
245.776
 11
-124.823
 21
246.151
  0
LINE
  8
0
 10
-124.823
 20
246.151
 11
-124.469
 21
246.484
  0
LINE
  8
0
 10
-124.469
 20
246.484
 11
-124.075
 21
246.77
  0
LINE
  8
0
 10
-124.075
 20
246.77
 11
-123.649
 21
247.004
  0
LINE
  8
0
 10
-123.649
 20
247.004
 11
-123.197
 21
247.183
  0
LINE
  8
0
 10
-123.197
 20
247.183
 11
-122.726
 21
247.304
  0
LINE
  8
0
 10
-122.726
 20
247.304
 11
-122.243
 21
247.365
  0
LINE
  8
0
 10
-122.243
 20
247.365
 11
122.243
 21
247.365
  0
LINE
  8
0
 10
122.243
 20
247.365
 11
122.726
 21
247.304
  0
LINE
  8
0
 10
122.726
 20
247.304
 11
123.197
 21
247.183
  0
LINE
  8
0
 10
123.197
 20
247.183
 11
123.649
 21
247.004
  0
LINE
  8
0
 10
123.649
 20
247.004
 11
124.075
 21
246.77
  0
LINE
  8
0
 10
124.075
 20
246.77
 11
124.469
 21
246.484
  0
LINE
  8
0
 10
124.469
 20
246.484
 11
124.823
 21
246.151
  0
LINE
  8
0
 10
124.823
 20
246.151
 11
125.133
 21
245.776
  0
LINE
  8
0
 10
125.133
 20
245.776
 11
125.394
 21
245.366
  0
LINE
  8
0
 10
125.394
 20
245.366
 11
125.601
 21
244.926
  0
LINE
  8
0
 10
125.601
 20
244.926
 11
125.751
 21
244.463
  0
LINE
  8
0
 10
125.751
 20
244.463
 11
125.842
 21
243.985
  0
LINE
  8
0
 10
125.842
 20
243.985
 11
125.873
 21
243.5
  0
LINE
  8
0
 10
125.873
 20
243.5
 11
125.873
 21
224.5
  0
LINE
  8
0
 10
125.873
 20
224.5
 11
125.842
 21
224.015
  0
LINE
  8
0
 10
125.842
 20
224.015
 11
125.751
 21
223.537
  0
LINE
  8
0
 10
125.751
 20
223.537
 11
125.601
 21
223.074
  0
LINE
  8
0
 10
125.601
 20
223.074
 11
125.394
 21
222.634
  0
LINE
  8
0
 10
125.394
 20
222.634
 11
125.133
 21
222.224
  0
LINE
  8
0
 10
125.133
 20
222.224
 11
124.823
 21
221.849
  0
LINE
  8
0
 10
124.823
 20
221.849
 11
124.469
 21
221.516
  0
LINE
  8
0
 10
124.469
 20
221.516
 11
124.075
 21
221.23
  0
LINE
  8
0
 10
124.075
 20
221.23
 11
123.649
 21
220.996
  0
LINE
  8
0
 10
123.649
 20
220.996
 11
123.197
 21
220.817
  0
LINE
  8
0
 10
123.197
 20
220.817
 11
122.726
 21
220.696
  0
LINE
  8
0
 10
122.726
 20
220.696
 11
122.243
 21
220.635
  0
LINE
  8
0
 10
122.243
 20
220.635
 11
-122.243
 21
220.635
  0
LINE
  8
0
 10
123.437
 20
180.089
 11
124.045
 21
180.245
  0
LINE
  8
0
 10
124.045
 20
180.245
 11
124.629
 21
180.476
  0
LINE
  8
0
 10
124.629
 20
180.476
 11
125.179
 21
180.778
  0
LINE
  8
0
 10
125.179
 20
180.778
 11
125.687
 21
181.147
  0
LINE
  8
0
 10
125.687
 20
181.147
 11
126.145
 21
181.577
  0
LINE
  8
0
 10
126.145
 20
181.577
 11
126.545
 21
182.061
  0
LINE
  8
0
 10
126.545
 20
182.061
 11
126.882
 21
182.591
  0
LINE
  8
0
 10
126.882
 20
182.591
 11
127.149
 21
183.159
  0
LINE
  8
0
 10
127.149
 20
183.159
 11
127.343
 21
183.757
  0
LINE
  8
0
 10
127.343
 20
183.757
 11
127.461
 21
184.373
  0
LINE
  8
0
 10
127.461
 20
184.373
 11
127.5
 21
185
  0
LINE
  8
0
 10
127.5
 20
185
 11
127.5
 21
205
  0
LINE
  8
0
 10
127.5
 20
205
 11
127.461
 21
205.627
  0
LINE
  8
0
 10
127.461
 20
205.627
 11
127.343
 21
206.243
  0
LINE
  8
0
 10
127.343
 20
206.243
 11
127.149
 21
206.841
  0
LINE
  8
0
 10
127.149
 20
206.841
 11
126.882
 21
207.409
  0
LINE
  8
0
 10
126.882
 20
207.409
 11
126.545
 21
207.939
  0
LINE
  8
0
 10
126.545
 20
207.939
 11
126.145
 21
208.423
  0
LINE
  8
0
 10
126.145
 20
208.423
 11
125.687
 21
208.853
  0
LINE
  8
0
 10
125.687
 20
208.853
 11
125.179
 21
209.222
  0
LINE
  8
0
 10
125.179
 20
209.222
 11
124.629
 21
209.524
  0
LINE
  8
0
 10
124.629
 20
209.524
 11
124.045
 21
209.755
  0
LINE
  8
0
 10
124.045
 20
209.755
 11
123.437
 21
209.911
  0
LINE
  8
0
 10
123.437
 20
209.911
 11
122.814
 21
209.99
  0
LINE
  8
0
 10
122.814
 20
209.99
 11
-122.814
 21
209.99
  0
LINE
  8
0
 10
-122.814
 20
209.99
 11
-123.437
 21
209.911
  0
LINE
  8
0
 10
-123.437
 20
209.911
 11
-124.045
 21
209.755
  0
LINE
  8
0
 10
-124.045
 20
209.755
 11
-124.629
 21
209.524
  0
LINE
  8
0
 10
-124.629
 20
209.524
 11
-125.179
 21
209.222
  0
LINE
  8
0
 10
-125.179
 20
209.222
 11
-125.687
 21
208.853
  0
LINE
  8
0
 10
-125.687
 20
208.853
 11
-126
 21
208.559
  0
LINE
  8
0
 10
-126
 20
208.559
 11
-126
 21
209.615
  0
LINE
  8
0
 10
-126
 20
209.615
 11
-129
 21
209.615
  0
LINE
  8
0
 10
-129
 20
209.615
 11
-129
 21
180.385
  0
LINE
  8
0
 10
-129
 20
180.385
 11
-126
 21
180.385
  0
LINE
  8
0
 10
-126
 20
180.385
 11
-126
 21
181.441
  0
LINE
  8
0
 10
-126
 20
181.441
 11
-125.687
 21
181.147
  0
LINE
  8
0
 10
-125.687
 20
181.147
 11
-125.179
 21
180.778
  0
LINE
  8
0
 10
-125.179
 20
180.778
 11
-124.629
 21
180.476
  0
LINE
  8
0
 10
-124.629
 20
180.476
 11
-124.045
 21
180.245
  0
LINE
  8
0
 10
-124.045
 20
180.245
 11
-123.437
 21
180.089
  0
LINE
  8
0
 10
-123.437
 20
180.089
 11
-122.814
 21
180.01
  0
LINE
  8
0
 10
-122.814
 20
180.01
 11
122.814
 21
180.01
  0
LINE
  8
0
 10
122.814
 20
180.01
 11
123.437
 21
180.089
  0
LINE
  8
0
 10
-120.151
 20
200.105
 11
-120.45
 21
200.143
  0
LINE
  8
0
 10
-120.45
 20
200.143
 11
-120.742
 21
200.217
  0
LINE
  8
0
 10
-120.742
 20
200.217
 11
-121.022
 21
200.328
  0
LINE
  8
0
 10
-121.022
 20
200.328
 11
-121.286
 21
200.474
  0
LINE
  8
0
 10
-121.286
 20
200.474
 11
-121.53
 21
200.651
  0
LINE
  8
0
 10
-121.53
 20
200.651
 11
-121.75
 21
200.857
  0
LINE
  8
0
 10
-121.75
 20
200.857
 11
-121.942
 21
201.089
  0
LINE
  8
0
 10
-121.942
 20
201.089
 11
-122.103
 21
201.344
  0
LINE
  8
0
 10
-122.103
 20
201.344
 11
-122.231
 21
201.617
  0
LINE
  8
0
 10
-122.231
 20
201.617
 11
-122.325
 21
201.903
  0
LINE
  8
0
 10
-122.325
 20
201.903
 11
-122.381
 21
202.199
  0
LINE
  8
0
 10
-122.381
 20
202.199
 11
-122.4
 21
202.5
  0
LINE
  8
0
 10
-122.4
 20
202.5
 11
-122.381
 21
202.801
  0
LINE
  8
0
 10
-122.381
 20
202.801
 11
-122.325
 21
203.097
  0
LINE
  8
0
 10
-122.325
 20
203.097
 11
-122.231
 21
203.383
  0
LINE
  8
0
 10
-122.231
 20
203.383
 11
-122.103
 21
203.656
  0
LINE
  8
0
 10
-122.103
 20
203.656
 11
-121.942
 21
203.911
  0
LINE
  8
0
 10
-121.942
 20
203.911
 11
-121.75
 21
204.143
  0
LINE
  8
0
 10
-121.75
 20
204.143
 11
-121.53
 21
204.349
  0
LINE
  8
0
 10
-121.53
 20
204.349
 11
-121.286
 21
204.526
  0
LINE
  8
0
 10
-121.286
 20
204.526
 11
-121.022
 21
204.672
  0
LINE
  8
0
 10
-121.022
 20
204.672
 11
-120.742
 21
204.783
  0
LINE
  8
0
 10
-120.742
 20
204.783
 11
-120.45
 21
204.857
  0
LINE
  8
0
 10
-120.45
 20
204.857
 11
-120.151
 21
204.895
  0
LINE
  8
0
 10
-120.151
 20
204.895
 11
-119.849
 21
204.895
  0
LINE
  8
0
 10
-119.849
 20
204.895
 11
-119.55
 21
204.857
  0
LINE
  8
0
 10
-119.55
 20
204.857
 11
-119.258
 21
204.783
  0
LINE
  8
0
 10
-119.258
 20
204.783
 11
-118.978
 21
204.672
  0
LINE
  8
0
 10
-118.978
 20
204.672
 11
-118.714
 21
204.526
  0
LINE
  8
0
 10
-118.714
 20
204.526
 11
-118.47
 21
204.349
  0
LINE
  8
0
 10
-118.47
 20
204.349
 11
-118.25
 21
204.143
  0
LINE
  8
0
 10
-118.25
 20
204.143
 11
-118.058
 21
203.911
  0
LINE
  8
0
 10
-118.058
 20
203.911
 11
-117.897
 21
203.656
  0
LINE
  8
0
 10
-117.897
 20
203.656
 11
-117.769
 21
203.383
  0
LINE
  8
0
 10
-117.769
 20
203.383
 11
-117.675
 21
203.097
  0
LINE
  8
0
 10
-117.675
 20
203.097
 11
-117.619
 21
202.801
  0
LINE
  8
0
 10
-117.619
 20
202.801
 11
-117.6
 21
202.5
  0
LINE
  8
0
 10
-117.6
 20
202.5
 11
-117.619
 21
202.199
  0
LINE
  8
0
 10
-117.619
 20
202.199
 11
-117.675
 21
201.903
  0
LINE
  8
0
 10
-117.675
 20
201.903
 11
-117.769
 21
201.617
  0
LINE
  8
0
 10
-117.769
 20
201.617
 11
-117.897
 21
201.344
  0
LINE
  8
0
 10
-117.897
 20
201.344
 11
-118.058
 21
201.089
  0
LINE
  8
0
 10
-118.058
 20
201.089
 11
-118.25
 21
200.857
  0
LINE
  8
0
 10
-118.25
 20
200.857
 11
-118.47
 21
200.651
  0
LINE
  8
0
 10
-118.47
 20
200.651
 11
-118.714
 21
200.474
  0
LINE
  8
0
 10
-118.714
 20
200.474
 11
-118.978
 21
200.328
  0
LINE
  8
0
 10
-118.978
 20
200.328
 11
-119.258
 21
200.217
  0
LINE
  8
0
 10
-119.258
 20
200.217
 11
-119.55
 21
200.143
  0
LINE
  8
0
 10
-119.55
 20
200.143
 11
-119.849
 21
200.105
  0
LINE
  8
0
 10
-119.849
 20
200.105
 11
-120.151
 21
200.105
  0
LINE
  8
0
 10
119.849
 20
200.105
 11
119.55
 21
200.143
  0
LINE
  8
0
 10
119.55
 20
200.143
 11
119.258
 21
200.217
  0
LINE
  8
0
 10
119.258
 20
200.217
 11
118.978
 21
200.328
  0
LINE
  8
0
 10
118.978
 20
200.328
 11
118.714
 21
200.474
  0
LINE
  8
0
 10
118.714
 20
200.474
 11
118.47
 21
200.651
  0
LINE
  8
0
 10
118.47
 20
200.651
 11
118.25
 21
200.857
  0
LINE
  8
0
 10
118.25
 20
200.857
 11
118.058
 21
201.089
  0
LINE
  8
0
 10
118.058
 20
201.089
 11
117.897
 21
201.344
  0
LINE
  8
0
 10
117.897
 20
201.344
 11
117.769
 21
201.617
  0
LINE
  8
0
 10
117.769
 20
201.617
 11
117.675
 21
201.903
  0
LINE
  8
0
 10
117.675
 20
201.903
 11
117.619
 21
202.199
  0
LINE
  8
0
 10
117.619
 20
202.199
 11
117.6
 21
202.5
  0
LINE
  8
0
 10
117.6
 20
202.5
 11
117.619
 21
202.801
  0
LINE
  8
0
 10
117.619
 20
202.801
 11
117.675
 21
203.097
  0
LINE
  8
0
 10
117.675
 20
203.097
 11
117.769
 21
203.383
  0
LINE
  8
0
 10
117.769
 20
203.383
 11
117.897
 21
203.656
  0
LINE
  8
0
 10
117.897
 20
203.656
 11
118.058
 21
203.911
  0
LINE
  8
0
 10
118.058
 20
203.911
 11
118.25
 21
204.143
  0
LINE
  8
0
 10
118.25
 20
204.143
 11
118.47
 21
204.349
  0
LINE
  8
0
 10
118.47
 20
204.349
 11
118.714
 21
204.526
  0
LINE
  8
0
 10
118.714
 20
204.526
 11
118.978
 21
204.672
  0
LINE
  8
0
 10
118.978
 20
204.672
 11
119.258
 21
204.783
  0
LINE
  8
0
 10
119.258
 20
204.783
 11
119.55
 21
204.857
  0
LINE
  8
0
 10
119.55
 20
204.857
 11
119.849
 21
204.895
  0
LINE
  8
0
 10
119.849
 20
204.895
 11
120.151
 21
204.895
  0
LINE
  8
0
 10
120.151
 20
204.895
 11
120.45
 21
204.857
  0
LINE
  8
0
 10
120.45
 20
204.857
 11
120.742
 21
204.783
  0
LINE
  8
0
 10
120.742
 20
204.783
 11
121.022
 21
204.672
  0
LINE
  8
0
 10
121.022
 20
204.672
 11
121.286
 21
204.526
  0
LINE
  8
0
 10
121.286
 20
204.526
 11
121.53
 21
204.349
  0
LINE
  8
0
 10
121.53
 20
204.349
 11
121.75
 21
204.143
  0
LINE
  8
0
 10
121.75
 20
204.143
 11
121.942
 21
203.911
  0
LINE
  8
0
 10
121.942
 20
203.911
 11
122.103
 21
203.656
  0
LINE
  8
0
 10
122.103
 20
203.656
 11
122.231
 21
203.383
  0
LINE
  8
0
 10
122.231
 20
203.383
 11
122.325
 21
203.097
  0
LINE
  8
0
 10
122.325
 20
203.097
 11
122.381
 21
202.801
  0
LINE
  8
0
 10
122.381
 20
202.801
 11
122.4
 21
202.5
  0
LINE
  8
0
 10
122.4
 20
202.5
 11
122.381
 21
202.199
  0
LINE
  8
0
 10
122.381
 20
202.199
 11
122.325
 21
201.903
  0
LINE
  8
0
 10
122.325
 20
201.903
 11
122.231
 21
201.617
  0
LINE
  8
0
 10
122.231
 20
201.617
 11
122.103
 21
201.344
  0
LINE
  8
0
 10
122.103
 20
201.344
 11
121.942
 21
201.089
  0
LINE
  8
0
 10
121.942
 20
201.089
 11
121.75
 21
200.857
  0
LINE
  8
0
 10
121.75
 20
200.857
 11
121.53
 21
200.651
  0
LINE
  8
0
 10
121.53
 20
200.651
 11
121.286
 21
200.474
  0
LINE
  8
0
 10
121.286
 20
200.474
 11
121.022
 21
200.328
  0
LINE
  8
0
 10
121.022
 20
200.328
 11
120.742
 21
200.217
  0
LINE
  8
0
 10
120.742
 20
200.217
 11
120.45
 21
200.143
  0
LINE
  8
0
 10
120.45
 20
200.143
 11
120.151
 21
200.105
  0
LINE
  8
0
 10
120.151
 20
200.105
 11
119.849
 21
200.105
  0
LINE
  8
0
 10
-120.151
 20
185.105
 11
-120.45
 21
185.143
  0
LINE
  8
0
 10
-120.45
 20
185.143
 11
-120.742
 21
185.217
  0
LINE
  8
0
 10
-120.742
 20
185.217
 11
-121.022
 21
185.328
  0
LINE
  8
0
 10
-121.022
 20
185.328
 11
-121.286
 21
185.474
  0
LINE
  8
0
 10
-121.286
 20
185.474
 11
-121.53
 21
185.651
  0
LINE
  8
0
 10
-121.53
 20
185.651
 11
-121.75
 21
185.857
  0
LINE
  8
0
 10
-121.75
 20
185.857
 11
-121.942
 21
186.089
  0
LINE
  8
0
 10
-121.942
 20
186.089
 11
-122.103
 21
186.344
  0
LINE
  8
0
 10
-122.103
 20
186.344
 11
-122.231
 21
186.617
  0
LINE
  8
0
 10
-122.231
 20
186.617
 11
-122.325
 21
186.903
  0
LINE
  8
0
 10
-122.325
 20
186.903
 11
-122.381
 21
187.199
  0
LINE
  8
0
 10
-122.381
 20
187.199
 11
-122.4
 21
187.5
  0
LINE
  8
0
 10
-122.4
 20
187.5
 11
-122.381
 21
187.801
  0
LINE
  8
0
 10
-122.381
 20
187.801
 11
-122.325
 21
188.097
  0
LINE
  8
0
 10
-122.325
 20
188.097
 11
-122.231
 21
188.383
  0
LINE
  8
0
 10
-122.231
 20
188.383
 11
-122.103
 21
188.656
  0
LINE
  8
0
 10
-122.103
 20
188.656
 11
-121.942
 21
188.911
  0
LINE
  8
0
 10
-121.942
 20
188.911
 11
-121.75
 21
189.143
  0
LINE
  8
0
 10
-121.75
 20
189.143
 11
-121.53
 21
189.349
  0
LINE
  8
0
 10
-121.53
 20
189.349
 11
-121.286
 21
189.526
  0
LINE
  8
0
 10
-121.286
 20
189.526
 11
-121.022
 21
189.672
  0
LINE
  8
0
 10
-121.022
 20
189.672
 11
-120.742
 21
189.783
  0
LINE
  8
0
 10
-120.742
 20
189.783
 11
-120.45
 21
189.857
  0
LINE
  8
0
 10
-120.45
 20
189.857
 11
-120.151
 21
189.895
  0
LINE
  8
0
 10
-120.151
 20
189.895
 11
-119.849
 21
189.895
  0
LINE
  8
0
 10
-119.849
 20
189.895
 11
-119.55
 21
189.857
  0
LINE
  8
0
 10
-119.55
 20
189.857
 11
-119.258
 21
189.783
  0
LINE
  8
0
 10
-119.258
 20
189.783
 11
-118.978
 21
189.672
  0
LINE
  8
0
 10
-118.978
 20
189.672
 11
-118.714
 21
189.526
  0
LINE
  8
0
 10
-118.714
 20
189.526
 11
-118.47
 21
189.349
  0
LINE
  8
0
 10
-118.47
 20
189.349
 11
-118.25
 21
189.143
  0
LINE
  8
0
 10
-118.25
 20
189.143
 11
-118.058
 21
188.911
  0
LINE
  8
0
 10
-118.058
 20
188.911
 11
-117.897
 21
188.656
  0
LINE
  8
0
 10
-117.897
 20
188.656
 11
-117.769
 21
188.383
  0
LINE
  8
0
 10
-117.769
 20
188.383
 11
-117.675
 21
188.097
  0
LINE
  8
0
 10
-117.675
 20
188.097
 11
-117.619
 21
187.801
  0
LINE
  8
0
 10
-117.619
 20
187.801
 11
-117.6
 21
187.5
  0
LINE
  8
0
 10
-117.6
 20
187.5
 11
-117.619
 21
187.199
  0
LINE
  8
0
 10
-117.619
 20
187.199
 11
-117.675
 21
186.903
  0
LINE
  8
0
 10
-117.675
 20
186.903
 11
-117.769
 21
186.617
  0
LINE
  8
0
 10
-117.769
 20
186.617
 11
-117.897
 21
186.344
  0
LINE
  8
0
 10
-117.897
 20
186.344
 11
-118.058
 21
186.089
  0
LINE
  8
0
 10
-118.058
 20
186.089
 11
-118.25
 21
185.857
  0
LINE
  8
0
 10
-118.25
 20
185.857
 11
-118.47
 21
185.651
  0
LINE
  8
0
 10
-118.47
 20
185.651
 11
-118.714
 21
185.474
  0
LINE
  8
0
 10
-118.714
 20
185.474
 11
-118.978
 21
185.328
  0
LINE
  8
0
 10
-118.978
 20
185.328
 11
-119.258
 21
185.217
  0
LINE
  8
0
 10
-119.258
 20
185.217
 11
-119.55
 21
185.143
  0
LINE
  8
0
 10
-119.55
 20
185.143
 11
-119.849
 21
185.105
  0
LINE
  8
0
 10
-119.849
 20
185.105
 11
-120.151
 21
185.105
  0
LINE
  8
0
 10
119.849
 20
185.105
 11
119.55
 21
185.143
  0
LINE
  8
0
 10
119.55
 20
185.143
 11
119.258
 21
185.217
  0
LINE
  8
0
 10
119.258
 20
185.217
 11
118.978
 21
185.328
  0
LINE
  8
0
 10
118.978
 20
185.328
 11
118.714
 21
185.474
  0
LINE
  8
0
 10
118.714
 20
185.474
 11
118.47
 21
185.651
  0
LINE
  8
0
 10
118.47
 20
185.651
 11
118.25
 21
185.857
  0
LINE
  8
0
 10
118.25
 20
185.857
 11
118.058
 21
186.089
  0
LINE
  8
0
 10
118.058
 20
186.089
 11
117.897
 21
186.344
  0
LINE
  8
0
 10
117.897
 20
186.344
 11
117.769
 21
186.617
  0
LINE
  8
0
 10
117.769
 20
186.617
 11
117.675
 21
186.903
  0
LINE
  8
0
 10
117.675
 20
186.903
 11
117.619
 21
187.199
  0
LINE
  8
0
 10
117.619
 20
187.199
 11
117.6
 21
187.5
  0
LINE
  8
0
 10
117.6
 20
187.5
 11
117.619
 21
187.801
  0
LINE
  8
0
 10
117.619
 20
187.801
 11
117.675
 21
188.097
  0
LINE
  8
0
 10
117.675
 20
188.097
 11
117.769
 21
188.383
  0
LINE
  8
0
 10
117.769
 20
188.383
 11
117.897
 21
188.656
  0
LINE
  8
0
 10
117.897
 20
188.656
 11
118.058
 21
188.911
  0
LINE
  8
0
 10
118.058
 20
188.911
 11
118.25
 21
189.143
  0
LINE
  8
0
 10
118.25
 20
189.143
 11
118.47
 21
189.349
  0
LINE
  8
0
 10
118.47
 20
189.349
 11
118.714
 21
189.526
  0
LINE
  8
0
 10
118.714
 20
189.526
 11
118.978
 21
189.672
  0
LINE
  8
0
 10
118.978
 20
189.672
 11
119.258
 21
189.783
  0
LINE
  8
0
 10
119.258
 20
189.783
 11
119.55
 21
189.857
  0
LINE
  8
0
 10
119.55
 20
189.857
 11
119.849
 21
189.895
  0
LINE
  8
0
 10
119.849
 20
189.895
 11
120.151
 21
189.895
  0
LINE
  8
0
 10
120.151
 20
189.895
 11
120.45
 21
189.857
  0
LINE
  8
0
 10
120.45
 20
189.857
 11
120.742
 21
189.783
  0
LINE
  8
0
 10
120.742
 20
189.783
 11
121.022
 21
189.672
  0
LINE
  8
0
 10
121.022
 20
189.672
 11
121.286
 21
189.526
  0
LINE
  8
0
 10
121.286
 20
189.526
 11
121.53
 21
189.349
  0
LINE
  8
0
 10
121.53
 20
189.349
 11
121.75
 21
189.143
  0
LINE
  8
0
 10
121.75
 20
189.143
 11
121.942
 21
188.911
  0
LINE
  8
0
 10
121.942
 20
188.911
 11
122.103
 21
188.656
  0
LINE
  8
0
 10
122.103
 20
188.656
 11
122.231
 21
188.383
  0
LINE
  8
0
 10
122.231
 20
188.383
 11
122.325
 21
188.097
  0
LINE
  8
0
 10
122.325
 20
188.097
 11
122.381
 21
187.801
  0
LINE
  8
0
 10
122.381
 20
187.801
 11
122.4
 21
187.5
  0
LINE
  8
0
 10
122.4
 20
187.5
 11
122.381
 21
187.199
  0
LINE
  8
0
 10
122.381
 20
187.199
 11
122.325
 21
186.903
  0
LINE
  8
0
 10
122.325
 20
186.903
 11
122.231
 21
186.617
  0
LINE
  8
0
 10
122.231
 20
186.617
 11
122.103
 21
186.344
  0
LINE
  8
0
 10
122.103
 20
186.344
 11
121.942
 21
186.089
  0
LINE
  8
0
 10
121.942
 20
186.089
 11
121.75
 21
185.857
  0
LINE
  8
0
 10
121.75
 20
185.857
 11
121.53
 21
185.651
  0
LINE
  8
0
 10
121.53
 20
185.651
 11
121.286
 21
185.474
  0
LINE
  8
0
 10
121.286
 20
185.474
 11
121.022
 21
185.328
  0
LINE
  8
0
 10
121.022
 20
185.328
 11
120.742
 21
185.217
  0
LINE
  8
0
 10
120.742
 20
185.217
 11
120.45
 21
185.143
  0
LINE
  8
0
 10
120.45
 20
185.143
 11
120.151
 21
185.105
  0
LINE
  8
0
 10
120.151
 20
185.105
 11
119.849
 21
185.105
  0
LINE
  8
0
 10
123.437
 20
141.089
 11
124.045
 21
141.245
  0
LINE
  8
0
 10
124.045
 20
141.245
 11
124.629
 21
141.476
  0
LINE
  8
0
 10
124.629
 20
141.476
 11
125.179
 21
141.778
  0
LINE
  8
0
 10
125.179
 20
141.778
 11
125.687
 21
142.147
  0
LINE
  8
0
 10
125.687
 20
142.147
 11
126.145
 21
142.577
  0
LINE
  8
0
 10
126.145
 20
142.577
 11
126.545
 21
143.061
  0
LINE
  8
0
 10
126.545
 20
143.061
 11
126.882
 21
143.591
  0
LINE
  8
0
 10
126.882
 20
143.591
 11
127.149
 21
144.159
  0
LINE
  8
0
 10
127.149
 20
144.159
 11
127.343
 21
144.757
  0
LINE
  8
0
 10
127.343
 20
144.757
 11
127.461
 21
145.373
  0
LINE
  8
0
 10
127.461
 20
145.373
 11
127.5
 21
146
  0
LINE
  8
0
 10
127.5
 20
146
 11
127.5
 21
166
  0
LINE
  8
0
 10
127.5
 20
166
 11
127.461
 21
166.627
  0
LINE
  8
0
 10
127.461
 20
166.627
 11
127.343
 21
167.243
  0
LINE
  8
0
 10
127.343
 20
167.243
 11
127.149
 21
167.841
  0
LINE
  8
0
 10
127.149
 20
167.841
 11
126.882
 21
168.409
  0
LINE
  8
0
 10
126.882
 20
168.409
 11
126.545
 21
168.939
  0
LINE
  8
0
 10
126.545
 20
168.939
 11
126.145
 21
169.423
  0
LINE
  8
0
 10
126.145
 20
169.423
 11
125.687
 21
169.853
  0
LINE
  8
0
 10
125.687
 20
169.853
 11
125.179
 21
170.222
  0
LINE
  8
0
 10
125.179
 20
170.222
 11
124.629
 21
170.524
  0
LINE
  8
0
 10
124.629
 20
170.524
 11
124.045
 21
170.755
  0
LINE
  8
0
 10
124.045
 20
170.755
 11
123.437
 21
170.911
  0
LINE
  8
0
 10
123.437
 20
170.911
 11
122.814
 21
170.99
  0
LINE
  8
0
 10
122.814
 20
170.99
 11
-122.814
 21
170.99
  0
LINE
  8
0
 10
-122.814
 20
170.99
 11
-123.437
 21
170.911
  0
LINE
  8
0
 10
-123.437
 20
170.911
 11
-124.045
 21
170.755
  0
LINE
  8
0
 10
-124.045
 20
170.755
 11
-124.629
 21
170.524
  0
LINE
  8
0
 10
-124.629
 20
170.524
 11
-125.179
 21
170.222
  0
LINE
  8
0
 10
-125.179
 20
170.222
 11
-125.687
 21
169.853
  0
LINE
  8
0
 10
-125.687
 20
169.853
 11
-126.145
 21
169.423
  0
LINE
  8
0
 10
-126.145
 20
169.423
 11
-126.545
 21
168.939
  0
LINE
  8
0
 10
-126.545
 20
168.939
 11
-126.882
 21
168.409
  0
LINE
  8
0
 10
-126.882
 20
168.409
 11
-127.149
 21
167.841
  0
LINE
  8
0
 10
-127.149
 20
167.841
 11
-127.343
 21
167.243
  0
LINE
  8
0
 10
-127.343
 20
167.243
 11
-127.4
 21
166.944
  0
LINE
  8
0
 10
-127.4
 20
166.944
 11
-129
 21
166.944
  0
LINE
  8
0
 10
-129
 20
166.944
 11
-129
 21
145.056
  0
LINE
  8
0
 10
-129
 20
145.056
 11
-127.4
 21
145.056
  0
LINE
  8
0
 10
-127.4
 20
145.056
 11
-127.343
 21
144.757
  0
LINE
  8
0
 10
-127.343
 20
144.757
 11
-127.149
 21
144.159
  0
LINE
  8
0
 10
-127.149
 20
144.159
 11
-126.882
 21
143.591
  0
LINE
  8
0
 10
-126.882
 20
143.591
 11
-126.545
 21
143.061
  0
LINE
  8
0
 10
-126.545
 20
143.061
 11
-126.145
 21
142.577
  0
LINE
  8
0
 10
-126.145
 20
142.577
 11
-125.687
 21
142.147
  0
LINE
  8
0
 10
-125.687
 20
142.147
 11
-125.179
 21
141.778
  0
LINE
  8
0
 10
-125.179
 20
141.778
 11
-124.629
 21
141.476
  0
LINE
  8
0
 10
-124.629
 20
141.476
 11
-124.045
 21
141.245
  0
LINE
  8
0
 10
-124.045
 20
141.245
 11
-123.437
 21
141.089
  0
LINE
  8
0
 10
-123.437
 20
141.089
 11
-122.814
 21
141.01
  0
LINE
  8
0
 10
-122.814
 20
141.01
 11
122.814
 21
141.01
  0
LINE
  8
0
 10
122.814
 20
141.01
 11
123.437
 21
141.089
  0
LINE
  8
0
 10
-120.113
 20
161.704
 11
-120.337
 21
161.732
  0
LINE
  8
0
 10
-120.337
 20
161.732
 11
-120.556
 21
161.788
  0
LINE
  8
0
 10
-120.556
 20
161.788
 11
-120.766
 21
161.871
  0
LINE
  8
0
 10
-120.766
 20
161.871
 11
-120.964
 21
161.98
  0
LINE
  8
0
 10
-120.964
 20
161.98
 11
-121.147
 21
162.113
  0
LINE
  8
0
 10
-121.147
 20
162.113
 11
-121.312
 21
162.268
  0
LINE
  8
0
 10
-121.312
 20
162.268
 11
-121.456
 21
162.442
  0
LINE
  8
0
 10
-121.456
 20
162.442
 11
-121.577
 21
162.633
  0
LINE
  8
0
 10
-121.577
 20
162.633
 11
-121.674
 21
162.837
  0
LINE
  8
0
 10
-121.674
 20
162.837
 11
-121.743
 21
163.052
  0
LINE
  8
0
 10
-121.743
 20
163.052
 11
-121.786
 21
163.274
  0
LINE
  8
0
 10
-121.786
 20
163.274
 11
-121.8
 21
163.5
  0
LINE
  8
0
 10
-121.8
 20
163.5
 11
-121.786
 21
163.726
  0
LINE
  8
0
 10
-121.786
 20
163.726
 11
-121.743
 21
163.948
  0
LINE
  8
0
 10
-121.743
 20
163.948
 11
-121.674
 21
164.163
  0
LINE
  8
0
 10
-121.674
 20
164.163
 11
-121.577
 21
164.367
  0
LINE
  8
0
 10
-121.577
 20
164.367
 11
-121.456
 21
164.558
  0
LINE
  8
0
 10
-121.456
 20
164.558
 11
-121.312
 21
164.732
  0
LINE
  8
0
 10
-121.312
 20
164.732
 11
-121.147
 21
164.887
  0
LINE
  8
0
 10
-121.147
 20
164.887
 11
-120.964
 21
165.02
  0
LINE
  8
0
 10
-120.964
 20
165.02
 11
-120.766
 21
165.129
  0
LINE
  8
0
 10
-120.766
 20
165.129
 11
-120.556
 21
165.212
  0
LINE
  8
0
 10
-120.556
 20
165.212
 11
-120.337
 21
165.268
  0
LINE
  8
0
 10
-120.337
 20
165.268
 11
-120.113
 21
165.296
  0
LINE
  8
0
 10
-120.113
 20
165.296
 11
-119.887
 21
165.296
  0
LINE
  8
0
 10
-119.887
 20
165.296
 11
-119.663
 21
165.268
  0
LINE
  8
0
 10
-119.663
 20
165.268
 11
-119.444
 21
165.212
  0
LINE
  8
0
 10
-119.444
 20
165.212
 11
-119.234
 21
165.129
  0
LINE
  8
0
 10
-119.234
 20
165.129
 11
-119.036
 21
165.02
  0
LINE
  8
0
 10
-119.036
 20
165.02
 11
-118.853
 21
164.887
  0
LINE
  8
0
 10
-118.853
 20
164.887
 11
-118.688
 21
164.732
  0
LINE
  8
0
 10
-118.688
 20
164.732
 11
-118.544
 21
164.558
  0
LINE
  8
0
 10
-118.544
 20
164.558
 11
-118.423
 21
164.367
  0
LINE
  8
0
 10
-118.423
 20
164.367
 11
-118.326
 21
164.163
  0
LINE
  8
0
 10
-118.326
 20
164.163
 11
-118.257
 21
163.948
  0
LINE
  8
0
 10
-118.257
 20
163.948
 11
-118.214
 21
163.726
  0
LINE
  8
0
 10
-118.214
 20
163.726
 11
-118.2
 21
163.5
  0
LINE
  8
0
 10
-118.2
 20
163.5
 11
-118.214
 21
163.274
  0
LINE
  8
0
 10
-118.214
 20
163.274
 11
-118.257
 21
163.052
  0
LINE
  8
0
 10
-118.257
 20
163.052
 11
-118.326
 21
162.837
  0
LINE
  8
0
 10
-118.326
 20
162.837
 11
-118.423
 21
162.633
  0
LINE
  8
0
 10
-118.423
 20
162.633
 11
-118.544
 21
162.442
  0
LINE
  8
0
 10
-118.544
 20
162.442
 11
-118.688
 21
162.268
  0
LINE
  8
0
 10
-118.688
 20
162.268
 11
-118.853
 21
162.113
  0
LINE
  8
0
 10
-118.853
 20
162.113
 11
-119.036
 21
161.98
  0
LINE
  8
0
 10
-119.036
 20
161.98
 11
-119.234
 21
161.871
  0
LINE
  8
0
 10
-119.234
 20
161.871
 11
-119.444
 21
161.788
  0
LINE
  8
0
 10
-119.444
 20
161.788
 11
-119.663
 21
161.732
  0
LINE
  8
0
 10
-119.663
 20
161.732
 11
-119.887
 21
161.704
  0
LINE
  8
0
 10
-119.887
 20
161.704
 11
-120.113
 21
161.704
  0
LINE
  8
0
 10
119.887
 20
161.704
 11
119.663
 21
161.732
  0
LINE
  8
0
 10
119.663
 20
161.732
 11
119.444
 21
161.788
  0
LINE
  8
0
 10
119.444
 20
161.788
 11
119.234
 21
161.871
  0
LINE
  8
0
 10
119.234
 20
161.871
 11
119.036
 21
161.98
  0
LINE
  8
0
 10
119.036
 20
161.98
 11
118.853
 21
162.113
  0
LINE
  8
0
 10
118.853
 20
162.113
 11
118.688
 21
162.268
  0
LINE
  8
0
 10
118.688
 20
162.268
 11
118.544
 21
162.442
  0
LINE
  8
0
 10
118.544
 20
162.442
 11
118.423
 21
162.633
  0
LINE
  8
0
 10
118.423
 20
162.633
 11
118.326
 21
162.837
  0
LINE
  8
0
 10
118.326
 20
162.837
 11
118.257
 21
163.052
  0
LINE
  8
0
 10
118.257
 20
163.052
 11
118.214
 21
163.274
  0
LINE
  8
0
 10
118.214
 20
163.274
 11
118.2
 21
163.5
  0
LINE
  8
0
 10
118.2
 20
163.5
 11
118.214
 21
163.726
  0
LINE
  8
0
 10
118.214
 20
163.726
 11
118.257
 21
163.948
  0
LINE
  8
0
 10
118.257
 20
163.948
 11
118.326
 21
164.163
  0
LINE
  8
0
 10
118.326
 20
164.163
 11
118.423
 21
164.367
  0
LINE
  8
0
 10
118.423
 20
164.367
 11
118.544
 21
164.558
  0
LINE
  8
0
 10
118.544
 20
164.558
 11
118.688
 21
164.732
  0
LINE
  8
0
 10
118.688
 20
164.732
 11
118.853
 21
164.887
  0
LINE
  8
0
 10
118.853
 20
164.887
 11
119.036
 21
165.02
  0
LINE
  8
0
 10
119.036
 20
165.02
 11
119.234
 21
165.129
  0
LINE
  8
0
 10
119.234
 20
165.129
 11
119.444
 21
165.212
  0
LINE
  8
0
 10
119.444
 20
165.212
 11
119.663
 21
165.268
  0
LINE
  8
0
 10
119.663
 20
165.268
 11
119.887
 21
165.296
  0
LINE
  8
0
 10
119.887
 20
165.296
 11
120.113
 21
165.296
  0
LINE
  8
0
 10
120.113
 20
165.296
 11
120.337
 21
165.268
  0
LINE
  8
0
 10
120.337
 20
165.268
 11
120.556
 21
165.212
  0
LINE
  8
0
 10
120.556
 20
165.212
 11
120.766
 21
165.129
  0
LINE
  8
0
 10
120.766
 20
165.129
 11
120.964
 21
165.02
  0
LINE
  8
0
 10
120.964
 20
165.02
 11
121.147
 21
164.887
  0
LINE
  8
0
 10
121.147
 20
164.887
 11
121.312
 21
164.732
  0
LINE
  8
0
 10
121.312
 20
164.732
 11
121.456
 21
164.558
  0
LINE
  8
0
 10
121.456
 20
164.558
 11
121.577
 21
164.367
  0
LINE
  8
0
 10
121.577
 20
164.367
 11
121.674
 21
164.163
  0
LINE
  8
0
 10
121.674
 20
164.163
 11
121.743
 21
163.948
  0
LINE
  8
0
 10
121.743
 20
163.948
 11
121.786
 21
163.726
  0
LINE
  8
0
 10
121.786
 20
163.726
 11
121.8
 21
163.5
  0
LINE
  8
0
 10
121.8
 20
163.5
 11
121.786
 21
163.274
  0
LINE
  8
0
 10
121.786
 20
163.274
 11
121.743
 21
163.052
  0
LINE
  8
0
 10
121.743
 20
163.052
 11
121.674
 21
162.837
  0
LINE
  8
0
 10
121.674
 20
162.837
 11
121.577
 21
162.633
  0
LINE
  8
0
 10
121.577
 20
162.633
 11
121.456
 21
162.442
  0
LINE
  8
0
 10
121.456
 20
162.442
 11
121.312
 21
162.268
  0
LINE
  8
0
 10
121.312
 20
162.268
 11
121.147
 21
162.113
  0
LINE
  8
0
 10
121.147
 20
162.113
 11
120.964
 21
161.98
  0
LINE
  8
0
 10
120.964
 20
161.98
 11
120.766
 21
161.871
  0
LINE
  8
0
 10
120.766
 20
161.871
 11
120.556
 21
161.788
  0
LINE
  8
0
 10
120.556
 20
161.788
 11
120.337
 21
161.732
  0
LINE
  8
0
 10
120.337
 20
161.732
 11
120.113
 21
161.704
  0
LINE
  8
0
 10
120.113
 20
161.704
 11
119.887
 21
161.704
  0
LINE
  8
0
 10
119.887
 20
146.704
 11
119.663
 21
146.732
  0
LINE
  8
0
 10
119.663
 20
146.732
 11
119.444
 21
146.788
  0
LINE
  8
0
 10
119.444
 20
146.788
 11
119.234
 21
146.871
  0
LINE
  8
0
 10
119.234
 20
146.871
 11
119.036
 21
146.98
  0
LINE
  8
0
 10
119.036
 20
146.98
 11
118.853
 21
147.113
  0
LINE
  8
0
 10
118.853
 20
147.113
 11
118.688
 21
147.268
  0
LINE
  8
0
 10
118.688
 20
147.268
 11
118.544
 21
147.442
  0
LINE
  8
0
 10
118.544
 20
147.442
 11
118.423
 21
147.633
  0
LINE
  8
0
 10
118.423
 20
147.633
 11
118.326
 21
147.837
  0
LINE
  8
0
 10
118.326
 20
147.837
 11
118.257
 21
148.052
  0
LINE
  8
0
 10
118.257
 20
148.052
 11
118.214
 21
148.274
  0
LINE
  8
0
 10
118.214
 20
148.274
 11
118.2
 21
148.5
  0
LINE
  8
0
 10
118.2
 20
148.5
 11
118.214
 21
148.726
  0
LINE
  8
0
 10
118.214
 20
148.726
 11
118.257
 21
148.948
  0
LINE
  8
0
 10
118.257
 20
148.948
 11
118.326
 21
149.163
  0
LINE
  8
0
 10
118.326
 20
149.163
 11
118.423
 21
149.367
  0
LINE
  8
0
 10
118.423
 20
149.367
 11
118.544
 21
149.558
  0
LINE
  8
0
 10
118.544
 20
149.558
 11
118.688
 21
149.732
  0
LINE
  8
0
 10
118.688
 20
149.732
 11
118.853
 21
149.887
  0
LINE
  8
0
 10
118.853
 20
149.887
 11
119.036
 21
150.02
  0
LINE
  8
0
 10
119.036
 20
150.02
 11
119.234
 21
150.129
  0
LINE
  8
0
 10
119.234
 20
150.129
 11
119.444
 21
150.212
  0
LINE
  8
0
 10
119.444
 20
150.212
 11
119.663
 21
150.268
  0
LINE
  8
0
 10
119.663
 20
150.268
 11
119.887
 21
150.296
  0
LINE
  8
0
 10
119.887
 20
150.296
 11
120.113
 21
150.296
  0
LINE
  8
0
 10
120.113
 20
150.296
 11
120.337
 21
150.268
  0
LINE
  8
0
 10
120.337
 20
150.268
 11
120.556
 21
150.212
  0
LINE
  8
0
 10
120.556
 20
150.212
 11
120.766
 21
150.129
  0
LINE
  8
0
 10
120.766
 20
150.129
 11
120.964
 21
150.02
  0
LINE
  8
0
 10
120.964
 20
150.02
 11
121.147
 21
149.887
  0
LINE
  8
0
 10
121.147
 20
149.887
 11
121.312
 21
149.732
  0
LINE
  8
0
 10
121.312
 20
149.732
 11
121.456
 21
149.558
  0
LINE
  8
0
 10
121.456
 20
149.558
 11
121.577
 21
149.367
  0
LINE
  8
0
 10
121.577
 20
149.367
 11
121.674
 21
149.163
  0
LINE
  8
0
 10
121.674
 20
149.163
 11
121.743
 21
148.948
  0
LINE
  8
0
 10
121.743
 20
148.948
 11
121.786
 21
148.726
  0
LINE
  8
0
 10
121.786
 20
148.726
 11
121.8
 21
148.5
  0
LINE
  8
0
 10
121.8
 20
148.5
 11
121.786
 21
148.274
  0
LINE
  8
0
 10
121.786
 20
148.274
 11
121.743
 21
148.052
  0
LINE
  8
0
 10
121.743
 20
148.052
 11
121.674
 21
147.837
  0
LINE
  8
0
 10
121.674
 20
147.837
 11
121.577
 21
147.633
  0
LINE
  8
0
 10
121.577
 20
147.633
 11
121.456
 21
147.442
  0
LINE
  8
0
 10
121.456
 20
147.442
 11
121.312
 21
147.268
  0
LINE
  8
0
 10
121.312
 20
147.268
 11
121.147
 21
147.113
  0
LINE
  8
0
 10
121.147
 20
147.113
 11
120.964
 21
146.98
  0
LINE
  8
0
 10
120.964
 20
146.98
 11
120.766
 21
146.871
  0
LINE
  8
0
 10
120.766
 20
146.871
 11
120.556
 21
146.788
  0
LINE
  8
0
 10
120.556
 20
146.788
 11
120.337
 21
146.732
  0
LINE
  8
0
 10
120.337
 20
146.732
 11
120.113
 21
146.704
  0
LINE
  8
0
 10
120.113
 20
146.704
 11
119.887
 21
146.704
  0
LINE
  8
0
 10
-120.113
 20
146.704
 11
-120.337
 21
146.732
  0
LINE
  8
0
 10
-120.337
 20
146.732
 11
-120.556
 21
146.788
  0
LINE
  8
0
 10
-120.556
 20
146.788
 11
-120.766
 21
146.871
  0
LINE
  8
0
 10
-120.766
 20
146.871
 11
-120.964
 21
146.98
  0
LINE
  8
0
 10
-120.964
 20
146.98
 11
-121.147
 21
147.113
  0
LINE
  8
0
 10
-121.147
 20
147.113
 11
-121.312
 21
147.268
  0
LINE
  8
0
 10
-121.312
 20
147.268
 11
-121.456
 21
147.442
  0
LINE
  8
0
 10
-121.456
 20
147.442
 11
-121.577
 21
147.633
  0
LINE
  8
0
 10
-121.577
 20
147.633
 11
-121.674
 21
147.837
  0
LINE
  8
0
 10
-121.674
 20
147.837
 11
-121.743
 21
148.052
  0
LINE
  8
0
 10
-121.743
 20
148.052
 11
-121.786
 21
148.274
  0
LINE
  8
0
 10
-121.786
 20
148.274
 11
-121.8
 21
148.5
  0
LINE
  8
0
 10
-121.8
 20
148.5
 11
-121.786
 21
148.726
  0
LINE
  8
0
 10
-121.786
 20
148.726
 11
-121.743
 21
148.948
  0
LINE
  8
0
 10
-121.743
 20
148.948
 11
-121.674
 21
149.163
  0
LINE
  8
0
 10
-121.674
 20
149.163
 11
-121.577
 21
149.367
  0
LINE
  8
0
 10
-121.577
 20
149.367
 11
-121.456
 21
149.558
  0
LINE
  8
0
 10
-121.456
 20
149.558
 11
-121.312
 21
149.732
  0
LINE
  8
0
 10
-121.312
 20
149.732
 11
-121.147
 21
149.887
  0
LINE
  8
0
 10
-121.147
 20
149.887
 11
-120.964
 21
150.02
  0
LINE
  8
0
 10
-120.964
 20
150.02
 11
-120.766
 21
150.129
  0
LINE
  8
0
 10
-120.766
 20
150.129
 11
-120.556
 21
150.212
  0
LINE
  8
0
 10
-120.556
 20
150.212
 11
-120.337
 21
150.268
  0
LINE
  8
0
 10
-120.337
 20
150.268
 11
-120.113
 21
150.296
  0
LINE
  8
0
 10
-120.113
 20
150.296
 11
-119.887
 21
150.296
  0
LINE
  8
0
 10
-119.887
 20
150.296
 11
-119.663
 21
150.268
  0
LINE
  8
0
 10
-119.663
 20
150.268
 11
-119.444
 21
150.212
  0
LINE
  8
0
 10
-119.444
 20
150.212
 11
-119.234
 21
150.129
  0
LINE
  8
0
 10
-119.234
 20
150.129
 11
-119.036
 21
150.02
  0
LINE
  8
0
 10
-119.036
 20
150.02
 11
-118.853
 21
149.887
  0
LINE
  8
0
 10
-118.853
 20
149.887
 11
-118.688
 21
149.732
  0
LINE
  8
0
 10
-118.688
 20
149.732
 11
-118.544
 21
149.558
  0
LINE
  8
0
 10
-118.544
 20
149.558
 11
-118.423
 21
149.367
  0
LINE
  8
0
 10
-118.423
 20
149.367
 11
-118.326
 21
149.163
  0
LINE
  8
0
 10
-118.326
 20
149.163
 11
-118.257
 21
148.948
  0
LINE
  8
0
 10
-118.257
 20
148.948
 11
-118.214
 21
148.726
  0
LINE
  8
0
 10
-118.214
 20
148.726
 11
-118.2
 21
148.5
  0
LINE
  8
0
 10
-118.2
 20
148.5
 11
-118.214
 21
148.274
  0
LINE
  8
0
 10
-118.214
 20
148.274
 11
-118.257
 21
148.052
  0
LINE
  8
0
 10
-118.257
 20
148.052
 11
-118.326
 21
147.837
  0
LINE
  8
0
 10
-118.326
 20
147.837
 11
-118.423
 21
147.633
  0
LINE
  8
0
 10
-118.423
 20
147.633
 11
-118.544
 21
147.442
  0
LINE
  8
0
 10
-118.544
 20
147.442
 11
-118.688
 21
147.268
  0
LINE
  8
0
 10
-118.688
 20
147.268
 11
-118.853
 21
147.113
  0
LINE
  8
0
 10
-118.853
 20
147.113
 11
-119.036
 21
146.98
  0
LINE
  8
0
 10
-119.036
 20
146.98
 11
-119.234
 21
146.871
  0
LINE
  8
0
 10
-119.234
 20
146.871
 11
-119.444
 21
146.788
  0
LINE
  8
0
 10
-119.444
 20
146.788
 11
-119.663
 21
146.732
  0
LINE
  8
0
 10
-119.663
 20
146.732
 11
-119.887
 21
146.704
  0
LINE
  8
0
 10
-119.887
 20
146.704
 11
-120.113
 21
146.704
  0
ENDSEC
  0
SECTION
  2
OBJECTS
  0
DICTIONARY
  0
ENDSEC
  0
EOF
