  0
SECTION
  2
BLOCKS
  0
ENDSEC
  0
SECTION
  2
ENTITIES
  0
LINE
  8
0
 10
-118.5
 20
220.441
 11
-118.187
 21
220.147
  0
LINE
  8
0
 10
-118.187
 20
220.147
 11
-117.679
 21
219.778
  0
LINE
  8
0
 10
-117.679
 20
219.778
 11
-117.129
 21
219.476
  0
LINE
  8
0
 10
-117.129
 20
219.476
 11
-116.545
 21
219.245
  0
LINE
  8
0
 10
-116.545
 20
219.245
 11
-115.937
 21
219.089
  0
LINE
  8
0
 10
-115.937
 20
219.089
 11
-115.314
 21
219.01
  0
LINE
  8
0
 10
-115.314
 20
219.01
 11
115.314
 21
219.01
  0
LINE
  8
0
 10
115.314
 20
219.01
 11
115.937
 21
219.089
  0
LINE
  8
0
 10
115.937
 20
219.089
 11
116.545
 21
219.245
  0
LINE
  8
0
 10
116.545
 20
219.245
 11
117.129
 21
219.476
  0
LINE
  8
0
 10
117.129
 20
219.476
 11
117.679
 21
219.778
  0
LINE
  8
0
 10
117.679
 20
219.778
 11
118.187
 21
220.147
  0
LINE
  8
0
 10
118.187
 20
220.147
 11
118.645
 21
220.577
  0
LINE
  8
0
 10
118.645
 20
220.577
 11
119.045
 21
221.061
  0
LINE
  8
0
 10
119.045
 20
221.061
 11
119.382
 21
221.591
  0
LINE
  8
0
 10
119.382
 20
221.591
 11
119.649
 21
222.159
  0
LINE
  8
0
 10
119.649
 20
222.159
 11
119.843
 21
222.757
  0
LINE
  8
0
 10
119.843
 20
222.757
 11
119.961
 21
223.373
  0
LINE
  8
0
 10
119.961
 20
223.373
 11
120
 21
224
  0
LINE
  8
0
 10
120
 20
224
 11
120
 21
244
  0
LINE
  8
0
 10
120
 20
244
 11
119.961
 21
244.627
  0
LINE
  8
0
 10
119.961
 20
244.627
 11
119.843
 21
245.243
  0
LINE
  8
0
 10
119.843
 20
245.243
 11
119.649
 21
245.841
  0
LINE
  8
0
 10
119.649
 20
245.841
 11
119.382
 21
246.409
  0
LINE
  8
0
 10
119.382
 20
246.409
 11
119.045
 21
246.939
  0
LINE
  8
0
 10
119.045
 20
246.939
 11
118.645
 21
247.423
  0
LINE
  8
0
 10
118.645
 20
247.423
 11
118.187
 21
247.853
  0
LINE
  8
0
 10
118.187
 20
247.853
 11
117.679
 21
248.222
  0
LINE
  8
0
 10
117.679
 20
248.222
 11
117.129
 21
248.524
  0
LINE
  8
0
 10
117.129
 20
248.524
 11
116.545
 21
248.755
  0
LINE
  8
0
 10
116.545
 20
248.755
 11
115.937
 21
248.911
  0
LINE
  8
0
 10
115.937
 20
248.911
 11
115.314
 21
248.99
  0
LINE
  8
0
 10
115.314
 20
248.99
 11
-115.314
 21
248.99
  0
LINE
  8
0
 10
-115.314
 20
248.99
 11
-115.937
 21
248.911
  0
LINE
  8
0
 10
-115.937
 20
248.911
 11
-116.545
 21
248.755
  0
LINE
  8
0
 10
-116.545
 20
248.755
 11
-117.129
 21
248.524
  0
LINE
  8
0
 10
-117.129
 20
248.524
 11
-117.679
 21
248.222
  0
LINE
  8
0
 10
-117.679
 20
248.222
 11
-118.187
 21
247.853
  0
LINE
  8
0
 10
-118.187
 20
247.853
 11
-118.5
 21
247.559
  0
LINE
  8
0
 10
-118.5
 20
247.559
 11
-118.5
 21
248.99
  0
LINE
  8
0
 10
-118.5
 20
248.99
 11
-121.5
 21
248.99
  0
LINE
  8
0
 10
-121.5
 20
248.99
 11
-121.5
 21
219.01
  0
LINE
  8
0
 10
-121.5
 20
219.01
 11
-118.5
 21
219.01
  0
LINE
  8
0
 10
-118.5
 20
219.01
 11
-118.5
 21
220.441
  0
LINE
  8
0
 10
-114.751
 20
220.508
 11
-115.25
 21
220.571
  0
LINE
  8
0
 10
-115.25
 20
220.571
 11
-115.736
 21
220.696
  0
LINE
  8
0
 10
-115.736
 20
220.696
 11
-116.203
 21
220.881
  0
LINE
  8
0
 10
-116.203
 20
220.881
 11
-116.643
 21
221.123
  0
LINE
  8
0
 10
-116.643
 20
221.123
 11
-117.05
 21
221.418
  0
LINE
  8
0
 10
-117.05
 20
221.418
 11
-117.416
 21
221.762
  0
LINE
  8
0
 10
-117.416
 20
221.762
 11
-117.736
 21
222.149
  0
LINE
  8
0
 10
-117.736
 20
222.149
 11
-118.005
 21
222.573
  0
LINE
  8
0
 10
-118.005
 20
222.573
 11
-118.219
 21
223.028
  0
LINE
  8
0
 10
-118.219
 20
223.028
 11
-118.374
 21
223.505
  0
LINE
  8
0
 10
-118.374
 20
223.505
 11
-118.468
 21
223.999
  0
LINE
  8
0
 10
-118.468
 20
223.999
 11
-118.5
 21
224.5
  0
LINE
  8
0
 10
-118.5
 20
224.5
 11
-118.5
 21
243.5
  0
LINE
  8
0
 10
-118.5
 20
243.5
 11
-118.468
 21
244.001
  0
LINE
  8
0
 10
-118.468
 20
244.001
 11
-118.374
 21
244.495
  0
LINE
  8
0
 10
-118.374
 20
244.495
 11
-118.219
 21
244.972
  0
LINE
  8
0
 10
-118.219
 20
244.972
 11
-118.005
 21
245.427
  0
LINE
  8
0
 10
-118.005
 20
245.427
 11
-117.736
 21
245.851
  0
LINE
  8
0
 10
-117.736
 20
245.851
 11
-117.416
 21
246.238
  0
LINE
  8
0
 10
-117.416
 20
246.238
 11
-117.05
 21
246.582
  0
LINE
  8
0
 10
-117.05
 20
246.582
 11
-116.643
 21
246.877
  0
LINE
  8
0
 10
-116.643
 20
246.877
 11
-116.203
 21
247.119
  0
LINE
  8
0
 10
-116.203
 20
247.119
 11
-115.736
 21
247.304
  0
LINE
  8
0
 10
-115.736
 20
247.304
 11
-115.25
 21
247.429
  0
LINE
  8
0
 10
-115.25
 20
247.429
 11
-114.751
 21
247.492
  0
LINE
  8
0
 10
-114.751
 20
247.492
 11
114.751
 21
247.492
  0
LINE
  8
0
 10
114.751
 20
247.492
 11
115.25
 21
247.429
  0
LINE
  8
0
 10
115.25
 20
247.429
 11
115.736
 21
247.304
  0
LINE
  8
0
 10
115.736
 20
247.304
 11
116.203
 21
247.119
  0
LINE
  8
0
 10
116.203
 20
247.119
 11
116.643
 21
246.877
  0
LINE
  8
0
 10
116.643
 20
246.877
 11
117.05
 21
246.582
  0
LINE
  8
0
 10
117.05
 20
246.582
 11
117.416
 21
246.238
  0
LINE
  8
0
 10
117.416
 20
246.238
 11
117.736
 21
245.851
  0
LINE
  8
0
 10
117.736
 20
245.851
 11
118.005
 21
245.427
  0
LINE
  8
0
 10
118.005
 20
245.427
 11
118.219
 21
244.972
  0
LINE
  8
0
 10
118.219
 20
244.972
 11
118.374
 21
244.495
  0
LINE
  8
0
 10
118.374
 20
244.495
 11
118.468
 21
244.001
  0
LINE
  8
0
 10
118.468
 20
244.001
 11
118.5
 21
243.5
  0
LINE
  8
0
 10
118.5
 20
243.5
 11
118.5
 21
224.5
  0
LINE
  8
0
 10
118.5
 20
224.5
 11
118.468
 21
223.999
  0
LINE
  8
0
 10
118.468
 20
223.999
 11
118.374
 21
223.505
  0
LINE
  8
0
 10
118.374
 20
223.505
 11
118.219
 21
223.028
  0
LINE
  8
0
 10
118.219
 20
223.028
 11
118.005
 21
222.573
  0
LINE
  8
0
 10
118.005
 20
222.573
 11
117.736
 21
222.149
  0
LINE
  8
0
 10
117.736
 20
222.149
 11
117.416
 21
221.762
  0
LINE
  8
0
 10
117.416
 20
221.762
 11
117.05
 21
221.418
  0
LINE
  8
0
 10
117.05
 20
221.418
 11
116.643
 21
221.123
  0
LINE
  8
0
 10
116.643
 20
221.123
 11
116.203
 21
220.881
  0
LINE
  8
0
 10
116.203
 20
220.881
 11
115.736
 21
220.696
  0
LINE
  8
0
 10
115.736
 20
220.696
 11
115.25
 21
220.571
  0
LINE
  8
0
 10
115.25
 20
220.571
 11
114.751
 21
220.508
  0
LINE
  8
0
 10
114.751
 20
220.508
 11
-114.751
 21
220.508
  0
LINE
  8
0
 10
-118.5
 20
181.441
 11
-118.187
 21
181.147
  0
LINE
  8
0
 10
-118.187
 20
181.147
 11
-117.679
 21
180.778
  0
LINE
  8
0
 10
-117.679
 20
180.778
 11
-117.129
 21
180.476
  0
LINE
  8
0
 10
-117.129
 20
180.476
 11
-116.545
 21
180.245
  0
LINE
  8
0
 10
-116.545
 20
180.245
 11
-115.937
 21
180.089
  0
LINE
  8
0
 10
-115.937
 20
180.089
 11
-115.314
 21
180.01
  0
LINE
  8
0
 10
-115.314
 20
180.01
 11
115.314
 21
180.01
  0
LINE
  8
0
 10
115.314
 20
180.01
 11
115.937
 21
180.089
  0
LINE
  8
0
 10
115.937
 20
180.089
 11
116.545
 21
180.245
  0
LINE
  8
0
 10
116.545
 20
180.245
 11
117.129
 21
180.476
  0
LINE
  8
0
 10
117.129
 20
180.476
 11
117.679
 21
180.778
  0
LINE
  8
0
 10
117.679
 20
180.778
 11
118.187
 21
181.147
  0
LINE
  8
0
 10
118.187
 20
181.147
 11
118.645
 21
181.577
  0
LINE
  8
0
 10
118.645
 20
181.577
 11
119.045
 21
182.061
  0
LINE
  8
0
 10
119.045
 20
182.061
 11
119.382
 21
182.591
  0
LINE
  8
0
 10
119.382
 20
182.591
 11
119.649
 21
183.159
  0
LINE
  8
0
 10
119.649
 20
183.159
 11
119.843
 21
183.757
  0
LINE
  8
0
 10
119.843
 20
183.757
 11
119.961
 21
184.373
  0
LINE
  8
0
 10
119.961
 20
184.373
 11
120
 21
185
  0
LINE
  8
0
 10
120
 20
185
 11
120
 21
205
  0
LINE
  8
0
 10
120
 20
205
 11
119.961
 21
205.627
  0
LINE
  8
0
 10
119.961
 20
205.627
 11
119.843
 21
206.243
  0
LINE
  8
0
 10
119.843
 20
206.243
 11
119.649
 21
206.841
  0
LINE
  8
0
 10
119.649
 20
206.841
 11
119.382
 21
207.409
  0
LINE
  8
0
 10
119.382
 20
207.409
 11
119.045
 21
207.939
  0
LINE
  8
0
 10
119.045
 20
207.939
 11
118.645
 21
208.423
  0
LINE
  8
0
 10
118.645
 20
208.423
 11
118.187
 21
208.853
  0
LINE
  8
0
 10
118.187
 20
208.853
 11
117.679
 21
209.222
  0
LINE
  8
0
 10
117.679
 20
209.222
 11
117.129
 21
209.524
  0
LINE
  8
0
 10
117.129
 20
209.524
 11
116.545
 21
209.755
  0
LINE
  8
0
 10
116.545
 20
209.755
 11
115.937
 21
209.911
  0
LINE
  8
0
 10
115.937
 20
209.911
 11
115.314
 21
209.99
  0
LINE
  8
0
 10
115.314
 20
209.99
 11
-115.314
 21
209.99
  0
LINE
  8
0
 10
-115.314
 20
209.99
 11
-115.937
 21
209.911
  0
LINE
  8
0
 10
-115.937
 20
209.911
 11
-116.545
 21
209.755
  0
LINE
  8
0
 10
-116.545
 20
209.755
 11
-117.129
 21
209.524
  0
LINE
  8
0
 10
-117.129
 20
209.524
 11
-117.679
 21
209.222
  0
LINE
  8
0
 10
-117.679
 20
209.222
 11
-118.187
 21
208.853
  0
LINE
  8
0
 10
-118.187
 20
208.853
 11
-118.5
 21
208.559
  0
LINE
  8
0
 10
-118.5
 20
208.559
 11
-118.5
 21
209.99
  0
LINE
  8
0
 10
-118.5
 20
209.99
 11
-121.5
 21
209.99
  0
LINE
  8
0
 10
-121.5
 20
209.99
 11
-121.5
 21
180.01
  0
LINE
  8
0
 10
-121.5
 20
180.01
 11
-118.5
 21
180.01
  0
LINE
  8
0
 10
-118.5
 20
180.01
 11
-118.5
 21
181.441
  0
LINE
  8
0
 10
-114.743
 20
181.635
 11
-115.226
 21
181.696
  0
LINE
  8
0
 10
-115.226
 20
181.696
 11
-115.697
 21
181.817
  0
LINE
  8
0
 10
-115.697
 20
181.817
 11
-116.149
 21
181.996
  0
LINE
  8
0
 10
-116.149
 20
181.996
 11
-116.575
 21
182.23
  0
LINE
  8
0
 10
-116.575
 20
182.23
 11
-116.969
 21
182.516
  0
LINE
  8
0
 10
-116.969
 20
182.516
 11
-117.323
 21
182.849
  0
LINE
  8
0
 10
-117.323
 20
182.849
 11
-117.633
 21
183.224
  0
LINE
  8
0
 10
-117.633
 20
183.224
 11
-117.894
 21
183.634
  0
LINE
  8
0
 10
-117.894
 20
183.634
 11
-118.101
 21
184.074
  0
LINE
  8
0
 10
-118.101
 20
184.074
 11
-118.251
 21
184.537
  0
LINE
  8
0
 10
-118.251
 20
184.537
 11
-118.342
 21
185.015
  0
LINE
  8
0
 10
-118.342
 20
185.015
 11
-118.373
 21
185.5
  0
LINE
  8
0
 10
-118.373
 20
185.5
 11
-118.373
 21
204.5
  0
LINE
  8
0
 10
-118.373
 20
204.5
 11
-118.342
 21
204.985
  0
LINE
  8
0
 10
-118.342
 20
204.985
 11
-118.251
 21
205.463
  0
LINE
  8
0
 10
-118.251
 20
205.463
 11
-118.101
 21
205.926
  0
LINE
  8
0
 10
-118.101
 20
205.926
 11
-117.894
 21
206.366
  0
LINE
  8
0
 10
-117.894
 20
206.366
 11
-117.633
 21
206.776
  0
LINE
  8
0
 10
-117.633
 20
206.776
 11
-117.323
 21
207.151
  0
LINE
  8
0
 10
-117.323
 20
207.151
 11
-116.969
 21
207.484
  0
LINE
  8
0
 10
-116.969
 20
207.484
 11
-116.575
 21
207.77
  0
LINE
  8
0
 10
-116.575
 20
207.77
 11
-116.149
 21
208.004
  0
LINE
  8
0
 10
-116.149
 20
208.004
 11
-115.697
 21
208.183
  0
LINE
  8
0
 10
-115.697
 20
208.183
 11
-115.226
 21
208.304
  0
LINE
  8
0
 10
-115.226
 20
208.304
 11
-114.743
 21
208.365
  0
LINE
  8
0
 10
-114.743
 20
208.365
 11
114.743
 21
208.365
  0
LINE
  8
0
 10
114.743
 20
208.365
 11
115.226
 21
208.304
  0
LINE
  8
0
 10
115.226
 20
208.304
 11
115.697
 21
208.183
  0
LINE
  8
0
 10
115.697
 20
208.183
 11
116.149
 21
208.004
  0
LINE
  8
0
 10
116.149
 20
208.004
 11
116.575
 21
207.77
  0
LINE
  8
0
 10
116.575
 20
207.77
 11
116.969
 21
207.484
  0
LINE
  8
0
 10
116.969
 20
207.484
 11
117.323
 21
207.151
  0
LINE
  8
0
 10
117.323
 20
207.151
 11
117.633
 21
206.776
  0
LINE
  8
0
 10
117.633
 20
206.776
 11
117.894
 21
206.366
  0
LINE
  8
0
 10
117.894
 20
206.366
 11
118.101
 21
205.926
  0
LINE
  8
0
 10
118.101
 20
205.926
 11
118.251
 21
205.463
  0
LINE
  8
0
 10
118.251
 20
205.463
 11
118.342
 21
204.985
  0
LINE
  8
0
 10
118.342
 20
204.985
 11
118.373
 21
204.5
  0
LINE
  8
0
 10
118.373
 20
204.5
 11
118.373
 21
185.5
  0
LINE
  8
0
 10
118.373
 20
185.5
 11
118.342
 21
185.015
  0
LINE
  8
0
 10
118.342
 20
185.015
 11
118.251
 21
184.537
  0
LINE
  8
0
 10
118.251
 20
184.537
 11
118.101
 21
184.074
  0
LINE
  8
0
 10
118.101
 20
184.074
 11
117.894
 21
183.634
  0
LINE
  8
0
 10
117.894
 20
183.634
 11
117.633
 21
183.224
  0
LINE
  8
0
 10
117.633
 20
183.224
 11
117.323
 21
182.849
  0
LINE
  8
0
 10
117.323
 20
182.849
 11
116.969
 21
182.516
  0
LINE
  8
0
 10
116.969
 20
182.516
 11
116.575
 21
182.23
  0
LINE
  8
0
 10
116.575
 20
182.23
 11
116.149
 21
181.996
  0
LINE
  8
0
 10
116.149
 20
181.996
 11
115.697
 21
181.817
  0
LINE
  8
0
 10
115.697
 20
181.817
 11
115.226
 21
181.696
  0
LINE
  8
0
 10
115.226
 20
181.696
 11
114.743
 21
181.635
  0
LINE
  8
0
 10
114.743
 20
181.635
 11
-114.743
 21
181.635
  0
LINE
  8
0
 10
115.937
 20
141.089
 11
116.545
 21
141.245
  0
LINE
  8
0
 10
116.545
 20
141.245
 11
117.129
 21
141.476
  0
LINE
  8
0
 10
117.129
 20
141.476
 11
117.679
 21
141.778
  0
LINE
  8
0
 10
117.679
 20
141.778
 11
118.187
 21
142.147
  0
LINE
  8
0
 10
118.187
 20
142.147
 11
118.645
 21
142.577
  0
LINE
  8
0
 10
118.645
 20
142.577
 11
119.045
 21
143.061
  0
LINE
  8
0
 10
119.045
 20
143.061
 11
119.382
 21
143.591
  0
LINE
  8
0
 10
119.382
 20
143.591
 11
119.649
 21
144.159
  0
LINE
  8
0
 10
119.649
 20
144.159
 11
119.843
 21
144.757
  0
LINE
  8
0
 10
119.843
 20
144.757
 11
119.961
 21
145.373
  0
LINE
  8
0
 10
119.961
 20
145.373
 11
120
 21
146
  0
LINE
  8
0
 10
120
 20
146
 11
120
 21
166
  0
LINE
  8
0
 10
120
 20
166
 11
119.961
 21
166.627
  0
LINE
  8
0
 10
119.961
 20
166.627
 11
119.843
 21
167.243
  0
LINE
  8
0
 10
119.843
 20
167.243
 11
119.649
 21
167.841
  0
LINE
  8
0
 10
119.649
 20
167.841
 11
119.382
 21
168.409
  0
LINE
  8
0
 10
119.382
 20
168.409
 11
119.045
 21
168.939
  0
LINE
  8
0
 10
119.045
 20
168.939
 11
118.645
 21
169.423
  0
LINE
  8
0
 10
118.645
 20
169.423
 11
118.187
 21
169.853
  0
LINE
  8
0
 10
118.187
 20
169.853
 11
117.679
 21
170.222
  0
LINE
  8
0
 10
117.679
 20
170.222
 11
117.129
 21
170.524
  0
LINE
  8
0
 10
117.129
 20
170.524
 11
116.545
 21
170.755
  0
LINE
  8
0
 10
116.545
 20
170.755
 11
115.937
 21
170.911
  0
LINE
  8
0
 10
115.937
 20
170.911
 11
115.314
 21
170.99
  0
LINE
  8
0
 10
115.314
 20
170.99
 11
-115.314
 21
170.99
  0
LINE
  8
0
 10
-115.314
 20
170.99
 11
-115.937
 21
170.911
  0
LINE
  8
0
 10
-115.937
 20
170.911
 11
-116.545
 21
170.755
  0
LINE
  8
0
 10
-116.545
 20
170.755
 11
-117.129
 21
170.524
  0
LINE
  8
0
 10
-117.129
 20
170.524
 11
-117.679
 21
170.222
  0
LINE
  8
0
 10
-117.679
 20
170.222
 11
-118.187
 21
169.853
  0
LINE
  8
0
 10
-118.187
 20
169.853
 11
-118.5
 21
169.559
  0
LINE
  8
0
 10
-118.5
 20
169.559
 11
-118.5
 21
170.615
  0
LINE
  8
0
 10
-118.5
 20
170.615
 11
-121.5
 21
170.615
  0
LINE
  8
0
 10
-121.5
 20
170.615
 11
-121.5
 21
141.385
  0
LINE
  8
0
 10
-121.5
 20
141.385
 11
-118.5
 21
141.385
  0
LINE
  8
0
 10
-118.5
 20
141.385
 11
-118.5
 21
142.441
  0
LINE
  8
0
 10
-118.5
 20
142.441
 11
-118.187
 21
142.147
  0
LINE
  8
0
 10
-118.187
 20
142.147
 11
-117.679
 21
141.778
  0
LINE
  8
0
 10
-117.679
 20
141.778
 11
-117.129
 21
141.476
  0
LINE
  8
0
 10
-117.129
 20
141.476
 11
-116.545
 21
141.245
  0
LINE
  8
0
 10
-116.545
 20
141.245
 11
-115.937
 21
141.089
  0
LINE
  8
0
 10
-115.937
 20
141.089
 11
-115.314
 21
141.01
  0
LINE
  8
0
 10
-115.314
 20
141.01
 11
115.314
 21
141.01
  0
LINE
  8
0
 10
115.314
 20
141.01
 11
115.937
 21
141.089
  0
LINE
  8
0
 10
112.349
 20
161.105
 11
112.05
 21
161.143
  0
LINE
  8
0
 10
112.05
 20
161.143
 11
111.758
 21
161.217
  0
LINE
  8
0
 10
111.758
 20
161.217
 11
111.478
 21
161.328
  0
LINE
  8
0
 10
111.478
 20
161.328
 11
111.214
 21
161.474
  0
LINE
  8
0
 10
111.214
 20
161.474
 11
110.97
 21
161.651
  0
LINE
  8
0
 10
110.97
 20
161.651
 11
110.75
 21
161.857
  0
LINE
  8
0
 10
110.75
 20
161.857
 11
110.558
 21
162.089
  0
LINE
  8
0
 10
110.558
 20
162.089
 11
110.397
 21
162.344
  0
LINE
  8
0
 10
110.397
 20
162.344
 11
110.269
 21
162.617
  0
LINE
  8
0
 10
110.269
 20
162.617
 11
110.175
 21
162.903
  0
LINE
  8
0
 10
110.175
 20
162.903
 11
110.119
 21
163.199
  0
LINE
  8
0
 10
110.119
 20
163.199
 11
110.1
 21
163.5
  0
LINE
  8
0
 10
110.1
 20
163.5
 11
110.119
 21
163.801
  0
LINE
  8
0
 10
110.119
 20
163.801
 11
110.175
 21
164.097
  0
LINE
  8
0
 10
110.175
 20
164.097
 11
110.269
 21
164.383
  0
LINE
  8
0
 10
110.269
 20
164.383
 11
110.397
 21
164.656
  0
LINE
  8
0
 10
110.397
 20
164.656
 11
110.558
 21
164.911
  0
LINE
  8
0
 10
110.558
 20
164.911
 11
110.75
 21
165.143
  0
LINE
  8
0
 10
110.75
 20
165.143
 11
110.97
 21
165.349
  0
LINE
  8
0
 10
110.97
 20
165.349
 11
111.214
 21
165.526
  0
LINE
  8
0
 10
111.214
 20
165.526
 11
111.478
 21
165.672
  0
LINE
  8
0
 10
111.478
 20
165.672
 11
111.758
 21
165.783
  0
LINE
  8
0
 10
111.758
 20
165.783
 11
112.05
 21
165.857
  0
LINE
  8
0
 10
112.05
 20
165.857
 11
112.349
 21
165.895
  0
LINE
  8
0
 10
112.349
 20
165.895
 11
112.651
 21
165.895
  0
LINE
  8
0
 10
112.651
 20
165.895
 11
112.95
 21
165.857
  0
LINE
  8
0
 10
112.95
 20
165.857
 11
113.242
 21
165.783
  0
LINE
  8
0
 10
113.242
 20
165.783
 11
113.522
 21
165.672
  0
LINE
  8
0
 10
113.522
 20
165.672
 11
113.786
 21
165.526
  0
LINE
  8
0
 10
113.786
 20
165.526
 11
114.03
 21
165.349
  0
LINE
  8
0
 10
114.03
 20
165.349
 11
114.25
 21
165.143
  0
LINE
  8
0
 10
114.25
 20
165.143
 11
114.442
 21
164.911
  0
LINE
  8
0
 10
114.442
 20
164.911
 11
114.603
 21
164.656
  0
LINE
  8
0
 10
114.603
 20
164.656
 11
114.731
 21
164.383
  0
LINE
  8
0
 10
114.731
 20
164.383
 11
114.825
 21
164.097
  0
LINE
  8
0
 10
114.825
 20
164.097
 11
114.881
 21
163.801
  0
LINE
  8
0
 10
114.881
 20
163.801
 11
114.9
 21
163.5
  0
LINE
  8
0
 10
114.9
 20
163.5
 11
114.881
 21
163.199
  0
LINE
  8
0
 10
114.881
 20
163.199
 11
114.825
 21
162.903
  0
LINE
  8
0
 10
114.825
 20
162.903
 11
114.731
 21
162.617
  0
LINE
  8
0
 10
114.731
 20
162.617
 11
114.603
 21
162.344
  0
LINE
  8
0
 10
114.603
 20
162.344
 11
114.442
 21
162.089
  0
LINE
  8
0
 10
114.442
 20
162.089
 11
114.25
 21
161.857
  0
LINE
  8
0
 10
114.25
 20
161.857
 11
114.03
 21
161.651
  0
LINE
  8
0
 10
114.03
 20
161.651
 11
113.786
 21
161.474
  0
LINE
  8
0
 10
113.786
 20
161.474
 11
113.522
 21
161.328
  0
LINE
  8
0
 10
113.522
 20
161.328
 11
113.242
 21
161.217
  0
LINE
  8
0
 10
113.242
 20
161.217
 11
112.95
 21
161.143
  0
LINE
  8
0
 10
112.95
 20
161.143
 11
112.651
 21
161.105
  0
LINE
  8
0
 10
112.651
 20
161.105
 11
112.349
 21
161.105
  0
LINE
  8
0
 10
-112.651
 20
161.105
 11
-112.95
 21
161.143
  0
LINE
  8
0
 10
-112.95
 20
161.143
 11
-113.242
 21
161.217
  0
LINE
  8
0
 10
-113.242
 20
161.217
 11
-113.522
 21
161.328
  0
LINE
  8
0
 10
-113.522
 20
161.328
 11
-113.786
 21
161.474
  0
LINE
  8
0
 10
-113.786
 20
161.474
 11
-114.03
 21
161.651
  0
LINE
  8
0
 10
-114.03
 20
161.651
 11
-114.25
 21
161.857
  0
LINE
  8
0
 10
-114.25
 20
161.857
 11
-114.442
 21
162.089
  0
LINE
  8
0
 10
-114.442
 20
162.089
 11
-114.603
 21
162.344
  0
LINE
  8
0
 10
-114.603
 20
162.344
 11
-114.731
 21
162.617
  0
LINE
  8
0
 10
-114.731
 20
162.617
 11
-114.825
 21
162.903
  0
LINE
  8
0
 10
-114.825
 20
162.903
 11
-114.881
 21
163.199
  0
LINE
  8
0
 10
-114.881
 20
163.199
 11
-114.9
 21
163.5
  0
LINE
  8
0
 10
-114.9
 20
163.5
 11
-114.881
 21
163.801
  0
LINE
  8
0
 10
-114.881
 20
163.801
 11
-114.825
 21
164.097
  0
LINE
  8
0
 10
-114.825
 20
164.097
 11
-114.731
 21
164.383
  0
LINE
  8
0
 10
-114.731
 20
164.383
 11
-114.603
 21
164.656
  0
LINE
  8
0
 10
-114.603
 20
164.656
 11
-114.442
 21
164.911
  0
LINE
  8
0
 10
-114.442
 20
164.911
 11
-114.25
 21
165.143
  0
LINE
  8
0
 10
-114.25
 20
165.143
 11
-114.03
 21
165.349
  0
LINE
  8
0
 10
-114.03
 20
165.349
 11
-113.786
 21
165.526
  0
LINE
  8
0
 10
-113.786
 20
165.526
 11
-113.522
 21
165.672
  0
LINE
  8
0
 10
-113.522
 20
165.672
 11
-113.242
 21
165.783
  0
LINE
  8
0
 10
-113.242
 20
165.783
 11
-112.95
 21
165.857
  0
LINE
  8
0
 10
-112.95
 20
165.857
 11
-112.651
 21
165.895
  0
LINE
  8
0
 10
-112.651
 20
165.895
 11
-112.349
 21
165.895
  0
LINE
  8
0
 10
-112.349
 20
165.895
 11
-112.05
 21
165.857
  0
LINE
  8
0
 10
-112.05
 20
165.857
 11
-111.758
 21
165.783
  0
LINE
  8
0
 10
-111.758
 20
165.783
 11
-111.478
 21
165.672
  0
LINE
  8
0
 10
-111.478
 20
165.672
 11
-111.214
 21
165.526
  0
LINE
  8
0
 10
-111.214
 20
165.526
 11
-110.97
 21
165.349
  0
LINE
  8
0
 10
-110.97
 20
165.349
 11
-110.75
 21
165.143
  0
LINE
  8
0
 10
-110.75
 20
165.143
 11
-110.558
 21
164.911
  0
LINE
  8
0
 10
-110.558
 20
164.911
 11
-110.397
 21
164.656
  0
LINE
  8
0
 10
-110.397
 20
164.656
 11
-110.269
 21
164.383
  0
LINE
  8
0
 10
-110.269
 20
164.383
 11
-110.175
 21
164.097
  0
LINE
  8
0
 10
-110.175
 20
164.097
 11
-110.119
 21
163.801
  0
LINE
  8
0
 10
-110.119
 20
163.801
 11
-110.1
 21
163.5
  0
LINE
  8
0
 10
-110.1
 20
163.5
 11
-110.119
 21
163.199
  0
LINE
  8
0
 10
-110.119
 20
163.199
 11
-110.175
 21
162.903
  0
LINE
  8
0
 10
-110.175
 20
162.903
 11
-110.269
 21
162.617
  0
LINE
  8
0
 10
-110.269
 20
162.617
 11
-110.397
 21
162.344
  0
LINE
  8
0
 10
-110.397
 20
162.344
 11
-110.558
 21
162.089
  0
LINE
  8
0
 10
-110.558
 20
162.089
 11
-110.75
 21
161.857
  0
LINE
  8
0
 10
-110.75
 20
161.857
 11
-110.97
 21
161.651
  0
LINE
  8
0
 10
-110.97
 20
161.651
 11
-111.214
 21
161.474
  0
LINE
  8
0
 10
-111.214
 20
161.474
 11
-111.478
 21
161.328
  0
LINE
  8
0
 10
-111.478
 20
161.328
 11
-111.758
 21
161.217
  0
LINE
  8
0
 10
-111.758
 20
161.217
 11
-112.05
 21
161.143
  0
LINE
  8
0
 10
-112.05
 20
161.143
 11
-112.349
 21
161.105
  0
LINE
  8
0
 10
-112.349
 20
161.105
 11
-112.651
 21
161.105
  0
LINE
  8
0
 10
112.349
 20
146.105
 11
112.05
 21
146.143
  0
LINE
  8
0
 10
112.05
 20
146.143
 11
111.758
 21
146.217
  0
LINE
  8
0
 10
111.758
 20
146.217
 11
111.478
 21
146.328
  0
LINE
  8
0
 10
111.478
 20
146.328
 11
111.214
 21
146.474
  0
LINE
  8
0
 10
111.214
 20
146.474
 11
110.97
 21
146.651
  0
LINE
  8
0
 10
110.97
 20
146.651
 11
110.75
 21
146.857
  0
LINE
  8
0
 10
110.75
 20
146.857
 11
110.558
 21
147.089
  0
LINE
  8
0
 10
110.558
 20
147.089
 11
110.397
 21
147.344
  0
LINE
  8
0
 10
110.397
 20
147.344
 11
110.269
 21
147.617
  0
LINE
  8
0
 10
110.269
 20
147.617
 11
110.175
 21
147.903
  0
LINE
  8
0
 10
110.175
 20
147.903
 11
110.119
 21
148.199
  0
LINE
  8
0
 10
110.119
 20
148.199
 11
110.1
 21
148.5
  0
LINE
  8
0
 10
110.1
 20
148.5
 11
110.119
 21
148.801
  0
LINE
  8
0
 10
110.119
 20
148.801
 11
110.175
 21
149.097
  0
LINE
  8
0
 10
110.175
 20
149.097
 11
110.269
 21
149.383
  0
LINE
  8
0
 10
110.269
 20
149.383
 11
110.397
 21
149.656
  0
LINE
  8
0
 10
110.397
 20
149.656
 11
110.558
 21
149.911
  0
LINE
  8
0
 10
110.558
 20
149.911
 11
110.75
 21
150.143
  0
LINE
  8
0
 10
110.75
 20
150.143
 11
110.97
 21
150.349
  0
LINE
  8
0
 10
110.97
 20
150.349
 11
111.214
 21
150.526
  0
LINE
  8
0
 10
111.214
 20
150.526
 11
111.478
 21
150.672
  0
LINE
  8
0
 10
111.478
 20
150.672
 11
111.758
 21
150.783
  0
LINE
  8
0
 10
111.758
 20
150.783
 11
112.05
 21
150.857
  0
LINE
  8
0
 10
112.05
 20
150.857
 11
112.349
 21
150.895
  0
LINE
  8
0
 10
112.349
 20
150.895
 11
112.651
 21
150.895
  0
LINE
  8
0
 10
112.651
 20
150.895
 11
112.95
 21
150.857
  0
LINE
  8
0
 10
112.95
 20
150.857
 11
113.242
 21
150.783
  0
LINE
  8
0
 10
113.242
 20
150.783
 11
113.522
 21
150.672
  0
LINE
  8
0
 10
113.522
 20
150.672
 11
113.786
 21
150.526
  0
LINE
  8
0
 10
113.786
 20
150.526
 11
114.03
 21
150.349
  0
LINE
  8
0
 10
114.03
 20
150.349
 11
114.25
 21
150.143
  0
LINE
  8
0
 10
114.25
 20
150.143
 11
114.442
 21
149.911
  0
LINE
  8
0
 10
114.442
 20
149.911
 11
114.603
 21
149.656
  0
LINE
  8
0
 10
114.603
 20
149.656
 11
114.731
 21
149.383
  0
LINE
  8
0
 10
114.731
 20
149.383
 11
114.825
 21
149.097
  0
LINE
  8
0
 10
114.825
 20
149.097
 11
114.881
 21
148.801
  0
LINE
  8
0
 10
114.881
 20
148.801
 11
114.9
 21
148.5
  0
LINE
  8
0
 10
114.9
 20
148.5
 11
114.881
 21
148.199
  0
LINE
  8
0
 10
114.881
 20
148.199
 11
114.825
 21
147.903
  0
LINE
  8
0
 10
114.825
 20
147.903
 11
114.731
 21
147.617
  0
LINE
  8
0
 10
114.731
 20
147.617
 11
114.603
 21
147.344
  0
LINE
  8
0
 10
114.603
 20
147.344
 11
114.442
 21
147.089
  0
LINE
  8
0
 10
114.442
 20
147.089
 11
114.25
 21
146.857
  0
LINE
  8
0
 10
114.25
 20
146.857
 11
114.03
 21
146.651
  0
LINE
  8
0
 10
114.03
 20
146.651
 11
113.786
 21
146.474
  0
LINE
  8
0
 10
113.786
 20
146.474
 11
113.522
 21
146.328
  0
LINE
  8
0
 10
113.522
 20
146.328
 11
113.242
 21
146.217
  0
LINE
  8
0
 10
113.242
 20
146.217
 11
112.95
 21
146.143
  0
LINE
  8
0
 10
112.95
 20
146.143
 11
112.651
 21
146.105
  0
LINE
  8
0
 10
112.651
 20
146.105
 11
112.349
 21
146.105
  0
LINE
  8
0
 10
-112.651
 20
146.105
 11
-112.95
 21
146.143
  0
LINE
  8
0
 10
-112.95
 20
146.143
 11
-113.242
 21
146.217
  0
LINE
  8
0
 10
-113.242
 20
146.217
 11
-113.522
 21
146.328
  0
LINE
  8
0
 10
-113.522
 20
146.328
 11
-113.786
 21
146.474
  0
LINE
  8
0
 10
-113.786
 20
146.474
 11
-114.03
 21
146.651
  0
LINE
  8
0
 10
-114.03
 20
146.651
 11
-114.25
 21
146.857
  0
LINE
  8
0
 10
-114.25
 20
146.857
 11
-114.442
 21
147.089
  0
LINE
  8
0
 10
-114.442
 20
147.089
 11
-114.603
 21
147.344
  0
LINE
  8
0
 10
-114.603
 20
147.344
 11
-114.731
 21
147.617
  0
LINE
  8
0
 10
-114.731
 20
147.617
 11
-114.825
 21
147.903
  0
LINE
  8
0
 10
-114.825
 20
147.903
 11
-114.881
 21
148.199
  0
LINE
  8
0
 10
-114.881
 20
148.199
 11
-114.9
 21
148.5
  0
LINE
  8
0
 10
-114.9
 20
148.5
 11
-114.881
 21
148.801
  0
LINE
  8
0
 10
-114.881
 20
148.801
 11
-114.825
 21
149.097
  0
LINE
  8
0
 10
-114.825
 20
149.097
 11
-114.731
 21
149.383
  0
LINE
  8
0
 10
-114.731
 20
149.383
 11
-114.603
 21
149.656
  0
LINE
  8
0
 10
-114.603
 20
149.656
 11
-114.442
 21
149.911
  0
LINE
  8
0
 10
-114.442
 20
149.911
 11
-114.25
 21
150.143
  0
LINE
  8
0
 10
-114.25
 20
150.143
 11
-114.03
 21
150.349
  0
LINE
  8
0
 10
-114.03
 20
150.349
 11
-113.786
 21
150.526
  0
LINE
  8
0
 10
-113.786
 20
150.526
 11
-113.522
 21
150.672
  0
LINE
  8
0
 10
-113.522
 20
150.672
 11
-113.242
 21
150.783
  0
LINE
  8
0
 10
-113.242
 20
150.783
 11
-112.95
 21
150.857
  0
LINE
  8
0
 10
-112.95
 20
150.857
 11
-112.651
 21
150.895
  0
LINE
  8
0
 10
-112.651
 20
150.895
 11
-112.349
 21
150.895
  0
LINE
  8
0
 10
-112.349
 20
150.895
 11
-112.05
 21
150.857
  0
LINE
  8
0
 10
-112.05
 20
150.857
 11
-111.758
 21
150.783
  0
LINE
  8
0
 10
-111.758
 20
150.783
 11
-111.478
 21
150.672
  0
LINE
  8
0
 10
-111.478
 20
150.672
 11
-111.214
 21
150.526
  0
LINE
  8
0
 10
-111.214
 20
150.526
 11
-110.97
 21
150.349
  0
LINE
  8
0
 10
-110.97
 20
150.349
 11
-110.75
 21
150.143
  0
LINE
  8
0
 10
-110.75
 20
150.143
 11
-110.558
 21
149.911
  0
LINE
  8
0
 10
-110.558
 20
149.911
 11
-110.397
 21
149.656
  0
LINE
  8
0
 10
-110.397
 20
149.656
 11
-110.269
 21
149.383
  0
LINE
  8
0
 10
-110.269
 20
149.383
 11
-110.175
 21
149.097
  0
LINE
  8
0
 10
-110.175
 20
149.097
 11
-110.119
 21
148.801
  0
LINE
  8
0
 10
-110.119
 20
148.801
 11
-110.1
 21
148.5
  0
LINE
  8
0
 10
-110.1
 20
148.5
 11
-110.119
 21
148.199
  0
LINE
  8
0
 10
-110.119
 20
148.199
 11
-110.175
 21
147.903
  0
LINE
  8
0
 10
-110.175
 20
147.903
 11
-110.269
 21
147.617
  0
LINE
  8
0
 10
-110.269
 20
147.617
 11
-110.397
 21
147.344
  0
LINE
  8
0
 10
-110.397
 20
147.344
 11
-110.558
 21
147.089
  0
LINE
  8
0
 10
-110.558
 20
147.089
 11
-110.75
 21
146.857
  0
LINE
  8
0
 10
-110.75
 20
146.857
 11
-110.97
 21
146.651
  0
LINE
  8
0
 10
-110.97
 20
146.651
 11
-111.214
 21
146.474
  0
LINE
  8
0
 10
-111.214
 20
146.474
 11
-111.478
 21
146.328
  0
LINE
  8
0
 10
-111.478
 20
146.328
 11
-111.758
 21
146.217
  0
LINE
  8
0
 10
-111.758
 20
146.217
 11
-112.05
 21
146.143
  0
LINE
  8
0
 10
-112.05
 20
146.143
 11
-112.349
 21
146.105
  0
LINE
  8
0
 10
-112.349
 20
146.105
 11
-112.651
 21
146.105
  0
LINE
  8
0
 10
115.937
 20
102.089
 11
116.545
 21
102.245
  0
LINE
  8
0
 10
116.545
 20
102.245
 11
117.129
 21
102.476
  0
LINE
  8
0
 10
117.129
 20
102.476
 11
117.679
 21
102.778
  0
LINE
  8
0
 10
117.679
 20
102.778
 11
118.187
 21
103.147
  0
LINE
  8
0
 10
118.187
 20
103.147
 11
118.645
 21
103.577
  0
LINE
  8
0
 10
118.645
 20
103.577
 11
119.045
 21
104.061
  0
LINE
  8
0
 10
119.045
 20
104.061
 11
119.382
 21
104.591
  0
LINE
  8
0
 10
119.382
 20
104.591
 11
119.649
 21
105.159
  0
LINE
  8
0
 10
119.649
 20
105.159
 11
119.843
 21
105.757
  0
LINE
  8
0
 10
119.843
 20
105.757
 11
119.961
 21
106.373
  0
LINE
  8
0
 10
119.961
 20
106.373
 11
120
 21
107
  0
LINE
  8
0
 10
120
 20
107
 11
120
 21
127
  0
LINE
  8
0
 10
120
 20
127
 11
119.961
 21
127.627
  0
LINE
  8
0
 10
119.961
 20
127.627
 11
119.843
 21
128.243
  0
LINE
  8
0
 10
119.843
 20
128.243
 11
119.649
 21
128.841
  0
LINE
  8
0
 10
119.649
 20
128.841
 11
119.382
 21
129.409
  0
LINE
  8
0
 10
119.382
 20
129.409
 11
119.045
 21
129.939
  0
LINE
  8
0
 10
119.045
 20
129.939
 11
118.645
 21
130.423
  0
LINE
  8
0
 10
118.645
 20
130.423
 11
118.187
 21
130.853
  0
LINE
  8
0
 10
118.187
 20
130.853
 11
117.679
 21
131.222
  0
LINE
  8
0
 10
117.679
 20
131.222
 11
117.129
 21
131.524
  0
LINE
  8
0
 10
117.129
 20
131.524
 11
116.545
 21
131.755
  0
LINE
  8
0
 10
116.545
 20
131.755
 11
115.937
 21
131.911
  0
LINE
  8
0
 10
115.937
 20
131.911
 11
115.314
 21
131.99
  0
LINE
  8
0
 10
115.314
 20
131.99
 11
-115.314
 21
131.99
  0
LINE
  8
0
 10
-115.314
 20
131.99
 11
-115.937
 21
131.911
  0
LINE
  8
0
 10
-115.937
 20
131.911
 11
-116.545
 21
131.755
  0
LINE
  8
0
 10
-116.545
 20
131.755
 11
-117.129
 21
131.524
  0
LINE
  8
0
 10
-117.129
 20
131.524
 11
-117.679
 21
131.222
  0
LINE
  8
0
 10
-117.679
 20
131.222
 11
-118.187
 21
130.853
  0
LINE
  8
0
 10
-118.187
 20
130.853
 11
-118.645
 21
130.423
  0
LINE
  8
0
 10
-118.645
 20
130.423
 11
-119.045
 21
129.939
  0
LINE
  8
0
 10
-119.045
 20
129.939
 11
-119.382
 21
129.409
  0
LINE
  8
0
 10
-119.382
 20
129.409
 11
-119.649
 21
128.841
  0
LINE
  8
0
 10
-119.649
 20
128.841
 11
-119.843
 21
128.243
  0
LINE
  8
0
 10
-119.843
 20
128.243
 11
-119.9
 21
127.944
  0
LINE
  8
0
 10
-119.9
 20
127.944
 11
-121.5
 21
127.944
  0
LINE
  8
0
 10
-121.5
 20
127.944
 11
-121.5
 21
106.056
  0
LINE
  8
0
 10
-121.5
 20
106.056
 11
-119.9
 21
106.056
  0
LINE
  8
0
 10
-119.9
 20
106.056
 11
-119.843
 21
105.757
  0
LINE
  8
0
 10
-119.843
 20
105.757
 11
-119.649
 21
105.159
  0
LINE
  8
0
 10
-119.649
 20
105.159
 11
-119.382
 21
104.591
  0
LINE
  8
0
 10
-119.382
 20
104.591
 11
-119.045
 21
104.061
  0
LINE
  8
0
 10
-119.045
 20
104.061
 11
-118.645
 21
103.577
  0
LINE
  8
0
 10
-118.645
 20
103.577
 11
-118.187
 21
103.147
  0
LINE
  8
0
 10
-118.187
 20
103.147
 11
-117.679
 21
102.778
  0
LINE
  8
0
 10
-117.679
 20
102.778
 11
-117.129
 21
102.476
  0
LINE
  8
0
 10
-117.129
 20
102.476
 11
-116.545
 21
102.245
  0
LINE
  8
0
 10
-116.545
 20
102.245
 11
-115.937
 21
102.089
  0
LINE
  8
0
 10
-115.937
 20
102.089
 11
-115.314
 21
102.01
  0
LINE
  8
0
 10
-115.314
 20
102.01
 11
115.314
 21
102.01
  0
LINE
  8
0
 10
115.314
 20
102.01
 11
115.937
 21
102.089
  0
LINE
  8
0
 10
-112.613
 20
122.704
 11
-112.837
 21
122.732
  0
LINE
  8
0
 10
-112.837
 20
122.732
 11
-113.056
 21
122.788
  0
LINE
  8
0
 10
-113.056
 20
122.788
 11
-113.266
 21
122.871
  0
LINE
  8
0
 10
-113.266
 20
122.871
 11
-113.464
 21
122.98
  0
LINE
  8
0
 10
-113.464
 20
122.98
 11
-113.647
 21
123.113
  0
LINE
  8
0
 10
-113.647
 20
123.113
 11
-113.812
 21
123.268
  0
LINE
  8
0
 10
-113.812
 20
123.268
 11
-113.956
 21
123.442
  0
LINE
  8
0
 10
-113.956
 20
123.442
 11
-114.077
 21
123.633
  0
LINE
  8
0
 10
-114.077
 20
123.633
 11
-114.174
 21
123.837
  0
LINE
  8
0
 10
-114.174
 20
123.837
 11
-114.243
 21
124.052
  0
LINE
  8
0
 10
-114.243
 20
124.052
 11
-114.286
 21
124.274
  0
LINE
  8
0
 10
-114.286
 20
124.274
 11
-114.3
 21
124.5
  0
LINE
  8
0
 10
-114.3
 20
124.5
 11
-114.286
 21
124.726
  0
LINE
  8
0
 10
-114.286
 20
124.726
 11
-114.243
 21
124.948
  0
LINE
  8
0
 10
-114.243
 20
124.948
 11
-114.174
 21
125.163
  0
LINE
  8
0
 10
-114.174
 20
125.163
 11
-114.077
 21
125.367
  0
LINE
  8
0
 10
-114.077
 20
125.367
 11
-113.956
 21
125.558
  0
LINE
  8
0
 10
-113.956
 20
125.558
 11
-113.812
 21
125.732
  0
LINE
  8
0
 10
-113.812
 20
125.732
 11
-113.647
 21
125.887
  0
LINE
  8
0
 10
-113.647
 20
125.887
 11
-113.464
 21
126.02
  0
LINE
  8
0
 10
-113.464
 20
126.02
 11
-113.266
 21
126.129
  0
LINE
  8
0
 10
-113.266
 20
126.129
 11
-113.056
 21
126.212
  0
LINE
  8
0
 10
-113.056
 20
126.212
 11
-112.837
 21
126.268
  0
LINE
  8
0
 10
-112.837
 20
126.268
 11
-112.613
 21
126.296
  0
LINE
  8
0
 10
-112.613
 20
126.296
 11
-112.387
 21
126.296
  0
LINE
  8
0
 10
-112.387
 20
126.296
 11
-112.163
 21
126.268
  0
LINE
  8
0
 10
-112.163
 20
126.268
 11
-111.944
 21
126.212
  0
LINE
  8
0
 10
-111.944
 20
126.212
 11
-111.734
 21
126.129
  0
LINE
  8
0
 10
-111.734
 20
126.129
 11
-111.536
 21
126.02
  0
LINE
  8
0
 10
-111.536
 20
126.02
 11
-111.353
 21
125.887
  0
LINE
  8
0
 10
-111.353
 20
125.887
 11
-111.188
 21
125.732
  0
LINE
  8
0
 10
-111.188
 20
125.732
 11
-111.044
 21
125.558
  0
LINE
  8
0
 10
-111.044
 20
125.558
 11
-110.923
 21
125.367
  0
LINE
  8
0
 10
-110.923
 20
125.367
 11
-110.826
 21
125.163
  0
LINE
  8
0
 10
-110.826
 20
125.163
 11
-110.757
 21
124.948
  0
LINE
  8
0
 10
-110.757
 20
124.948
 11
-110.714
 21
124.726
  0
LINE
  8
0
 10
-110.714
 20
124.726
 11
-110.7
 21
124.5
  0
LINE
  8
0
 10
-110.7
 20
124.5
 11
-110.714
 21
124.274
  0
LINE
  8
0
 10
-110.714
 20
124.274
 11
-110.757
 21
124.052
  0
LINE
  8
0
 10
-110.757
 20
124.052
 11
-110.826
 21
123.837
  0
LINE
  8
0
 10
-110.826
 20
123.837
 11
-110.923
 21
123.633
  0
LINE
  8
0
 10
-110.923
 20
123.633
 11
-111.044
 21
123.442
  0
LINE
  8
0
 10
-111.044
 20
123.442
 11
-111.188
 21
123.268
  0
LINE
  8
0
 10
-111.188
 20
123.268
 11
-111.353
 21
123.113
  0
LINE
  8
0
 10
-111.353
 20
123.113
 11
-111.536
 21
122.98
  0
LINE
  8
0
 10
-111.536
 20
122.98
 11
-111.734
 21
122.871
  0
LINE
  8
0
 10
-111.734
 20
122.871
 11
-111.944
 21
122.788
  0
LINE
  8
0
 10
-111.944
 20
122.788
 11
-112.163
 21
122.732
  0
LINE
  8
0
 10
-112.163
 20
122.732
 11
-112.387
 21
122.704
  0
LINE
  8
0
 10
-112.387
 20
122.704
 11
-112.613
 21
122.704
  0
LINE
  8
0
 10
112.387
 20
122.704
 11
112.163
 21
122.732
  0
LINE
  8
0
 10
112.163
 20
122.732
 11
111.944
 21
122.788
  0
LINE
  8
0
 10
111.944
 20
122.788
 11
111.734
 21
122.871
  0
LINE
  8
0
 10
111.734
 20
122.871
 11
111.536
 21
122.98
  0
LINE
  8
0
 10
111.536
 20
122.98
 11
111.353
 21
123.113
  0
LINE
  8
0
 10
111.353
 20
123.113
 11
111.188
 21
123.268
  0
LINE
  8
0
 10
111.188
 20
123.268
 11
111.044
 21
123.442
  0
LINE
  8
0
 10
111.044
 20
123.442
 11
110.923
 21
123.633
  0
LINE
  8
0
 10
110.923
 20
123.633
 11
110.826
 21
123.837
  0
LINE
  8
0
 10
110.826
 20
123.837
 11
110.757
 21
124.052
  0
LINE
  8
0
 10
110.757
 20
124.052
 11
110.714
 21
124.274
  0
LINE
  8
0
 10
110.714
 20
124.274
 11
110.7
 21
124.5
  0
LINE
  8
0
 10
110.7
 20
124.5
 11
110.714
 21
124.726
  0
LINE
  8
0
 10
110.714
 20
124.726
 11
110.757
 21
124.948
  0
LINE
  8
0
 10
110.757
 20
124.948
 11
110.826
 21
125.163
  0
LINE
  8
0
 10
110.826
 20
125.163
 11
110.923
 21
125.367
  0
LINE
  8
0
 10
110.923
 20
125.367
 11
111.044
 21
125.558
  0
LINE
  8
0
 10
111.044
 20
125.558
 11
111.188
 21
125.732
  0
LINE
  8
0
 10
111.188
 20
125.732
 11
111.353
 21
125.887
  0
LINE
  8
0
 10
111.353
 20
125.887
 11
111.536
 21
126.02
  0
LINE
  8
0
 10
111.536
 20
126.02
 11
111.734
 21
126.129
  0
LINE
  8
0
 10
111.734
 20
126.129
 11
111.944
 21
126.212
  0
LINE
  8
0
 10
111.944
 20
126.212
 11
112.163
 21
126.268
  0
LINE
  8
0
 10
112.163
 20
126.268
 11
112.387
 21
126.296
  0
LINE
  8
0
 10
112.387
 20
126.296
 11
112.613
 21
126.296
  0
LINE
  8
0
 10
112.613
 20
126.296
 11
112.837
 21
126.268
  0
LINE
  8
0
 10
112.837
 20
126.268
 11
113.056
 21
126.212
  0
LINE
  8
0
 10
113.056
 20
126.212
 11
113.266
 21
126.129
  0
LINE
  8
0
 10
113.266
 20
126.129
 11
113.464
 21
126.02
  0
LINE
  8
0
 10
113.464
 20
126.02
 11
113.647
 21
125.887
  0
LINE
  8
0
 10
113.647
 20
125.887
 11
113.812
 21
125.732
  0
LINE
  8
0
 10
113.812
 20
125.732
 11
113.956
 21
125.558
  0
LINE
  8
0
 10
113.956
 20
125.558
 11
114.077
 21
125.367
  0
LINE
  8
0
 10
114.077
 20
125.367
 11
114.174
 21
125.163
  0
LINE
  8
0
 10
114.174
 20
125.163
 11
114.243
 21
124.948
  0
LINE
  8
0
 10
114.243
 20
124.948
 11
114.286
 21
124.726
  0
LINE
  8
0
 10
114.286
 20
124.726
 11
114.3
 21
124.5
  0
LINE
  8
0
 10
114.3
 20
124.5
 11
114.286
 21
124.274
  0
LINE
  8
0
 10
114.286
 20
124.274
 11
114.243
 21
124.052
  0
LINE
  8
0
 10
114.243
 20
124.052
 11
114.174
 21
123.837
  0
LINE
  8
0
 10
114.174
 20
123.837
 11
114.077
 21
123.633
  0
LINE
  8
0
 10
114.077
 20
123.633
 11
113.956
 21
123.442
  0
LINE
  8
0
 10
113.956
 20
123.442
 11
113.812
 21
123.268
  0
LINE
  8
0
 10
113.812
 20
123.268
 11
113.647
 21
123.113
  0
LINE
  8
0
 10
113.647
 20
123.113
 11
113.464
 21
122.98
  0
LINE
  8
0
 10
113.464
 20
122.98
 11
113.266
 21
122.871
  0
LINE
  8
0
 10
113.266
 20
122.871
 11
113.056
 21
122.788
  0
LINE
  8
0
 10
113.056
 20
122.788
 11
112.837
 21
122.732
  0
LINE
  8
0
 10
112.837
 20
122.732
 11
112.613
 21
122.704
  0
LINE
  8
0
 10
112.613
 20
122.704
 11
112.387
 21
122.704
  0
LINE
  8
0
 10
112.387
 20
107.704
 11
112.163
 21
107.732
  0
LINE
  8
0
 10
112.163
 20
107.732
 11
111.944
 21
107.788
  0
LINE
  8
0
 10
111.944
 20
107.788
 11
111.734
 21
107.871
  0
LINE
  8
0
 10
111.734
 20
107.871
 11
111.536
 21
107.98
  0
LINE
  8
0
 10
111.536
 20
107.98
 11
111.353
 21
108.113
  0
LINE
  8
0
 10
111.353
 20
108.113
 11
111.188
 21
108.268
  0
LINE
  8
0
 10
111.188
 20
108.268
 11
111.044
 21
108.442
  0
LINE
  8
0
 10
111.044
 20
108.442
 11
110.923
 21
108.633
  0
LINE
  8
0
 10
110.923
 20
108.633
 11
110.826
 21
108.837
  0
LINE
  8
0
 10
110.826
 20
108.837
 11
110.757
 21
109.052
  0
LINE
  8
0
 10
110.757
 20
109.052
 11
110.714
 21
109.274
  0
LINE
  8
0
 10
110.714
 20
109.274
 11
110.7
 21
109.5
  0
LINE
  8
0
 10
110.7
 20
109.5
 11
110.714
 21
109.726
  0
LINE
  8
0
 10
110.714
 20
109.726
 11
110.757
 21
109.948
  0
LINE
  8
0
 10
110.757
 20
109.948
 11
110.826
 21
110.163
  0
LINE
  8
0
 10
110.826
 20
110.163
 11
110.923
 21
110.367
  0
LINE
  8
0
 10
110.923
 20
110.367
 11
111.044
 21
110.558
  0
LINE
  8
0
 10
111.044
 20
110.558
 11
111.188
 21
110.732
  0
LINE
  8
0
 10
111.188
 20
110.732
 11
111.353
 21
110.887
  0
LINE
  8
0
 10
111.353
 20
110.887
 11
111.536
 21
111.02
  0
LINE
  8
0
 10
111.536
 20
111.02
 11
111.734
 21
111.129
  0
LINE
  8
0
 10
111.734
 20
111.129
 11
111.944
 21
111.212
  0
LINE
  8
0
 10
111.944
 20
111.212
 11
112.163
 21
111.268
  0
LINE
  8
0
 10
112.163
 20
111.268
 11
112.387
 21
111.296
  0
LINE
  8
0
 10
112.387
 20
111.296
 11
112.613
 21
111.296
  0
LINE
  8
0
 10
112.613
 20
111.296
 11
112.837
 21
111.268
  0
LINE
  8
0
 10
112.837
 20
111.268
 11
113.056
 21
111.212
  0
LINE
  8
0
 10
113.056
 20
111.212
 11
113.266
 21
111.129
  0
LINE
  8
0
 10
113.266
 20
111.129
 11
113.464
 21
111.02
  0
LINE
  8
0
 10
113.464
 20
111.02
 11
113.647
 21
110.887
  0
LINE
  8
0
 10
113.647
 20
110.887
 11
113.812
 21
110.732
  0
LINE
  8
0
 10
113.812
 20
110.732
 11
113.956
 21
110.558
  0
LINE
  8
0
 10
113.956
 20
110.558
 11
114.077
 21
110.367
  0
LINE
  8
0
 10
114.077
 20
110.367
 11
114.174
 21
110.163
  0
LINE
  8
0
 10
114.174
 20
110.163
 11
114.243
 21
109.948
  0
LINE
  8
0
 10
114.243
 20
109.948
 11
114.286
 21
109.726
  0
LINE
  8
0
 10
114.286
 20
109.726
 11
114.3
 21
109.5
  0
LINE
  8
0
 10
114.3
 20
109.5
 11
114.286
 21
109.274
  0
LINE
  8
0
 10
114.286
 20
109.274
 11
114.243
 21
109.052
  0
LINE
  8
0
 10
114.243
 20
109.052
 11
114.174
 21
108.837
  0
LINE
  8
0
 10
114.174
 20
108.837
 11
114.077
 21
108.633
  0
LINE
  8
0
 10
114.077
 20
108.633
 11
113.956
 21
108.442
  0
LINE
  8
0
 10
113.956
 20
108.442
 11
113.812
 21
108.268
  0
LINE
  8
0
 10
113.812
 20
108.268
 11
113.647
 21
108.113
  0
LINE
  8
0
 10
113.647
 20
108.113
 11
113.464
 21
107.98
  0
LINE
  8
0
 10
113.464
 20
107.98
 11
113.266
 21
107.871
  0
LINE
  8
0
 10
113.266
 20
107.871
 11
113.056
 21
107.788
  0
LINE
  8
0
 10
113.056
 20
107.788
 11
112.837
 21
107.732
  0
LINE
  8
0
 10
112.837
 20
107.732
 11
112.613
 21
107.704
  0
LINE
  8
0
 10
112.613
 20
107.704
 11
112.387
 21
107.704
  0
LINE
  8
0
 10
-112.613
 20
107.704
 11
-112.837
 21
107.732
  0
LINE
  8
0
 10
-112.837
 20
107.732
 11
-113.056
 21
107.788
  0
LINE
  8
0
 10
-113.056
 20
107.788
 11
-113.266
 21
107.871
  0
LINE
  8
0
 10
-113.266
 20
107.871
 11
-113.464
 21
107.98
  0
LINE
  8
0
 10
-113.464
 20
107.98
 11
-113.647
 21
108.113
  0
LINE
  8
0
 10
-113.647
 20
108.113
 11
-113.812
 21
108.268
  0
LINE
  8
0
 10
-113.812
 20
108.268
 11
-113.956
 21
108.442
  0
LINE
  8
0
 10
-113.956
 20
108.442
 11
-114.077
 21
108.633
  0
LINE
  8
0
 10
-114.077
 20
108.633
 11
-114.174
 21
108.837
  0
LINE
  8
0
 10
-114.174
 20
108.837
 11
-114.243
 21
109.052
  0
LINE
  8
0
 10
-114.243
 20
109.052
 11
-114.286
 21
109.274
  0
LINE
  8
0
 10
-114.286
 20
109.274
 11
-114.3
 21
109.5
  0
LINE
  8
0
 10
-114.3
 20
109.5
 11
-114.286
 21
109.726
  0
LINE
  8
0
 10
-114.286
 20
109.726
 11
-114.243
 21
109.948
  0
LINE
  8
0
 10
-114.243
 20
109.948
 11
-114.174
 21
110.163
  0
LINE
  8
0
 10
-114.174
 20
110.163
 11
-114.077
 21
110.367
  0
LINE
  8
0
 10
-114.077
 20
110.367
 11
-113.956
 21
110.558
  0
LINE
  8
0
 10
-113.956
 20
110.558
 11
-113.812
 21
110.732
  0
LINE
  8
0
 10
-113.812
 20
110.732
 11
-113.647
 21
110.887
  0
LINE
  8
0
 10
-113.647
 20
110.887
 11
-113.464
 21
111.02
  0
LINE
  8
0
 10
-113.464
 20
111.02
 11
-113.266
 21
111.129
  0
LINE
  8
0
 10
-113.266
 20
111.129
 11
-113.056
 21
111.212
  0
LINE
  8
0
 10
-113.056
 20
111.212
 11
-112.837
 21
111.268
  0
LINE
  8
0
 10
-112.837
 20
111.268
 11
-112.613
 21
111.296
  0
LINE
  8
0
 10
-112.613
 20
111.296
 11
-112.387
 21
111.296
  0
LINE
  8
0
 10
-112.387
 20
111.296
 11
-112.163
 21
111.268
  0
LINE
  8
0
 10
-112.163
 20
111.268
 11
-111.944
 21
111.212
  0
LINE
  8
0
 10
-111.944
 20
111.212
 11
-111.734
 21
111.129
  0
LINE
  8
0
 10
-111.734
 20
111.129
 11
-111.536
 21
111.02
  0
LINE
  8
0
 10
-111.536
 20
111.02
 11
-111.353
 21
110.887
  0
LINE
  8
0
 10
-111.353
 20
110.887
 11
-111.188
 21
110.732
  0
LINE
  8
0
 10
-111.188
 20
110.732
 11
-111.044
 21
110.558
  0
LINE
  8
0
 10
-111.044
 20
110.558
 11
-110.923
 21
110.367
  0
LINE
  8
0
 10
-110.923
 20
110.367
 11
-110.826
 21
110.163
  0
LINE
  8
0
 10
-110.826
 20
110.163
 11
-110.757
 21
109.948
  0
LINE
  8
0
 10
-110.757
 20
109.948
 11
-110.714
 21
109.726
  0
LINE
  8
0
 10
-110.714
 20
109.726
 11
-110.7
 21
109.5
  0
LINE
  8
0
 10
-110.7
 20
109.5
 11
-110.714
 21
109.274
  0
LINE
  8
0
 10
-110.714
 20
109.274
 11
-110.757
 21
109.052
  0
LINE
  8
0
 10
-110.757
 20
109.052
 11
-110.826
 21
108.837
  0
LINE
  8
0
 10
-110.826
 20
108.837
 11
-110.923
 21
108.633
  0
LINE
  8
0
 10
-110.923
 20
108.633
 11
-111.044
 21
108.442
  0
LINE
  8
0
 10
-111.044
 20
108.442
 11
-111.188
 21
108.268
  0
LINE
  8
0
 10
-111.188
 20
108.268
 11
-111.353
 21
108.113
  0
LINE
  8
0
 10
-111.353
 20
108.113
 11
-111.536
 21
107.98
  0
LINE
  8
0
 10
-111.536
 20
107.98
 11
-111.734
 21
107.871
  0
LINE
  8
0
 10
-111.734
 20
107.871
 11
-111.944
 21
107.788
  0
LINE
  8
0
 10
-111.944
 20
107.788
 11
-112.163
 21
107.732
  0
LINE
  8
0
 10
-112.163
 20
107.732
 11
-112.387
 21
107.704
  0
LINE
  8
0
 10
-112.387
 20
107.704
 11
-112.613
 21
107.704
  0
ENDSEC
  0
SECTION
  2
OBJECTS
  0
DICTIONARY
  0
ENDSEC
  0
EOF
