<?xml version="1.0" standalone="no"?>
<!DOCTYPE svg PUBLIC "-//W3C//DTD SVG 1.1//EN" "http://www.w3.org/Graphics/SVG/1.1/DTD/svg11.dtd">
<svg width="270mm" height="154mm" viewBox="-135 -293 270 154" xmlns="http://www.w3.org/2000/svg" version="1.1">
<title>OpenSCAD Model</title>
<path d="
M 130.937,-247.589 L 131.545,-247.745 L 132.129,-247.976 L 132.679,-248.278 L 133.187,-248.647 L 133.645,-249.077
 L 134.045,-249.561 L 134.382,-250.091 L 134.649,-250.659 L 134.843,-251.257 L 134.961,-251.873 L 135,-252.5
 L 135,-287.5 L 134.961,-288.127 L 134.843,-288.743 L 134.649,-289.341 L 134.382,-289.909 L 134.045,-290.439
 L 133.645,-290.923 L 133.187,-291.353 L 132.679,-291.722 L 132.129,-292.024 L 131.545,-292.255 L 130.937,-292.411
 L 130.314,-292.49 L -130.314,-292.49 L -130.937,-292.411 L -131.545,-292.255 L -132.129,-292.024 L -132.679,-291.722
 L -133.187,-291.353 L -133.645,-290.923 L -134.045,-290.439 L -134.382,-289.909 L -134.649,-289.341 L -134.843,-288.743
 L -134.961,-288.127 L -135,-287.5 L -135,-252.5 L -134.961,-251.873 L -134.843,-251.257 L -134.649,-250.659
 L -134.382,-250.091 L -134.045,-249.561 L -133.645,-249.077 L -133.187,-248.647 L -132.679,-248.278 L -132.129,-247.976
 L -131.545,-247.745 L -130.937,-247.589 L -130.314,-247.51 L 130.314,-247.51 z
M -130.048,-248.009 L -130.64,-248.084 L -131.218,-248.232 L -131.772,-248.452 L -132.295,-248.739 L -132.778,-249.09
 L -133.213,-249.498 L -133.593,-249.958 L -133.912,-250.462 L -134.166,-251.001 L -134.351,-251.569 L -134.463,-252.155
 L -134.5,-252.75 L -134.5,-287.25 L -134.463,-287.845 L -134.351,-288.431 L -134.166,-288.999 L -133.912,-289.538
 L -133.593,-290.042 L -133.213,-290.502 L -132.778,-290.91 L -132.295,-291.261 L -131.772,-291.548 L -131.218,-291.768
 L -130.64,-291.916 L -130.048,-291.991 L 130.048,-291.991 L 130.64,-291.916 L 131.218,-291.768 L 131.772,-291.548
 L 132.295,-291.261 L 132.778,-290.91 L 133.213,-290.502 L 133.593,-290.042 L 133.912,-289.538 L 134.166,-288.999
 L 134.351,-288.431 L 134.463,-287.845 L 134.5,-287.25 L 134.5,-252.75 L 134.463,-252.155 L 134.351,-251.569
 L 134.166,-251.001 L 133.912,-250.462 L 133.593,-249.958 L 133.213,-249.498 L 132.778,-249.09 L 132.295,-248.739
 L 131.772,-248.452 L 131.218,-248.232 L 130.64,-248.084 L 130.048,-248.009 z
M 130.937,-193.589 L 131.545,-193.745 L 132.129,-193.976 L 132.679,-194.278 L 133.187,-194.647 L 133.645,-195.077
 L 134.045,-195.561 L 134.382,-196.091 L 134.649,-196.659 L 134.843,-197.257 L 134.961,-197.873 L 135,-198.5
 L 135,-233.5 L 134.961,-234.127 L 134.843,-234.743 L 134.649,-235.341 L 134.382,-235.909 L 134.045,-236.439
 L 133.645,-236.923 L 133.187,-237.353 L 132.679,-237.722 L 132.129,-238.024 L 131.545,-238.255 L 130.937,-238.411
 L 130.314,-238.49 L -130.314,-238.49 L -130.937,-238.411 L -131.545,-238.255 L -132.129,-238.024 L -132.679,-237.722
 L -133.187,-237.353 L -133.645,-236.923 L -134.045,-236.439 L -134.382,-235.909 L -134.649,-235.341 L -134.843,-234.743
 L -134.961,-234.127 L -135,-233.5 L -135,-198.5 L -134.961,-197.873 L -134.843,-197.257 L -134.649,-196.659
 L -134.382,-196.091 L -134.045,-195.561 L -133.645,-195.077 L -133.187,-194.647 L -132.679,-194.278 L -132.129,-193.976
 L -131.545,-193.745 L -130.937,-193.589 L -130.314,-193.51 L 130.314,-193.51 z
M -130.037,-194.181 L -130.608,-194.253 L -131.165,-194.396 L -131.699,-194.607 L -132.203,-194.884 L -132.668,-195.222
 L -133.088,-195.616 L -133.454,-196.059 L -133.762,-196.544 L -134.007,-197.065 L -134.185,-197.611 L -134.292,-198.176
 L -134.328,-198.75 L -134.328,-233.25 L -134.292,-233.824 L -134.185,-234.389 L -134.007,-234.935 L -133.762,-235.456
 L -133.454,-235.941 L -133.088,-236.384 L -132.668,-236.778 L -132.203,-237.116 L -131.699,-237.393 L -131.165,-237.604
 L -130.608,-237.747 L -130.037,-237.819 L 130.037,-237.819 L 130.608,-237.747 L 131.165,-237.604 L 131.699,-237.393
 L 132.203,-237.116 L 132.668,-236.778 L 133.088,-236.384 L 133.454,-235.941 L 133.762,-235.456 L 134.007,-234.935
 L 134.185,-234.389 L 134.292,-233.824 L 134.328,-233.25 L 134.328,-198.75 L 134.292,-198.176 L 134.185,-197.611
 L 134.007,-197.065 L 133.762,-196.544 L 133.454,-196.059 L 133.088,-195.616 L 132.668,-195.222 L 132.203,-194.884
 L 131.699,-194.607 L 131.165,-194.396 L 130.608,-194.253 L 130.037,-194.181 z
M 130.937,-139.589 L 131.545,-139.745 L 132.129,-139.976 L 132.679,-140.278 L 133.187,-140.647 L 133.645,-141.077
 L 134.045,-141.561 L 134.382,-142.091 L 134.649,-142.659 L 134.843,-143.257 L 134.961,-143.873 L 135,-144.5
 L 135,-179.5 L 134.961,-180.127 L 134.843,-180.743 L 134.649,-181.341 L 134.382,-181.909 L 134.045,-182.439
 L 133.645,-182.923 L 133.187,-183.353 L 132.679,-183.722 L 132.129,-184.024 L 131.545,-184.255 L 130.937,-184.411
 L 130.314,-184.49 L -130.314,-184.49 L -130.937,-184.411 L -131.545,-184.255 L -132.129,-184.024 L -132.679,-183.722
 L -133.187,-183.353 L -133.645,-182.923 L -134.045,-182.439 L -134.382,-181.909 L -134.649,-181.341 L -134.843,-180.743
 L -134.961,-180.127 L -135,-179.5 L -135,-144.5 L -134.961,-143.873 L -134.843,-143.257 L -134.649,-142.659
 L -134.382,-142.091 L -134.045,-141.561 L -133.645,-141.077 L -133.187,-140.647 L -132.679,-140.278 L -132.129,-139.976
 L -131.545,-139.745 L -130.937,-139.589 L -130.314,-139.51 L 130.314,-139.51 z
M -129.882,-142.645 L -130.145,-142.678 L -130.402,-142.744 L -130.648,-142.841 L -130.88,-142.969 L -131.095,-143.125
 L -131.288,-143.306 L -131.457,-143.51 L -131.599,-143.734 L -131.711,-143.973 L -131.793,-144.225 L -131.843,-144.486
 L -131.86,-144.75 L -131.86,-179.25 L -131.843,-179.514 L -131.793,-179.775 L -131.711,-180.027 L -131.599,-180.266
 L -131.457,-180.49 L -131.288,-180.694 L -131.095,-180.875 L -130.88,-181.031 L -130.648,-181.159 L -130.402,-181.256
 L -130.145,-181.322 L -129.882,-181.355 L 129.882,-181.355 L 130.145,-181.322 L 130.402,-181.256 L 130.648,-181.159
 L 130.88,-181.031 L 131.095,-180.875 L 131.288,-180.694 L 131.457,-180.49 L 131.599,-180.266 L 131.711,-180.027
 L 131.793,-179.775 L 131.843,-179.514 L 131.86,-179.25 L 131.86,-144.75 L 131.843,-144.486 L 131.793,-144.225
 L 131.711,-143.973 L 131.599,-143.734 L 131.457,-143.51 L 131.288,-143.306 L 131.095,-143.125 L 130.88,-142.969
 L 130.648,-142.841 L 130.402,-142.744 L 130.145,-142.678 L 129.882,-142.645 z
" stroke="black" fill="lightgray" stroke-width="0.5"/>
</svg>
