<?xml version="1.0" standalone="no"?>
<!DOCTYPE svg PUBLIC "-//W3C//DTD SVG 1.1//EN" "http://www.w3.org/Graphics/SVG/1.1/DTD/svg11.dtd">
<svg width="270mm" height="688mm" viewBox="-135 -1301 270 688" xmlns="http://www.w3.org/2000/svg" version="1.1">
<title>OpenSCAD Model</title>
<path d="
M 130.937,-1135.59 L 131.545,-1135.74 L 132.129,-1135.98 L 132.679,-1136.28 L 133.187,-1136.65 L 133.645,-1137.08
 L 134.045,-1137.56 L 134.382,-1138.09 L 134.649,-1138.66 L 134.843,-1139.26 L 134.961,-1139.87 L 135,-1140.5
 L 135,-1295.5 L 134.961,-1296.13 L 134.843,-1296.74 L 134.649,-1297.34 L 134.382,-1297.91 L 134.045,-1298.44
 L 133.645,-1298.92 L 133.187,-1299.35 L 132.679,-1299.72 L 132.129,-1300.02 L 131.545,-1300.26 L 130.937,-1300.41
 L 130.314,-1300.49 L -130.314,-1300.49 L -130.937,-1300.41 L -131.545,-1300.26 L -132.129,-1300.02 L -132.679,-1299.72
 L -133.187,-1299.35 L -133.645,-1298.92 L -134.045,-1298.44 L -134.382,-1297.91 L -134.649,-1297.34 L -134.843,-1296.74
 L -134.961,-1296.13 L -135,-1295.5 L -135,-1140.5 L -134.961,-1139.87 L -134.843,-1139.26 L -134.649,-1138.66
 L -134.382,-1138.09 L -134.045,-1137.56 L -133.645,-1137.08 L -133.187,-1136.65 L -132.679,-1136.28 L -132.129,-1135.98
 L -131.545,-1135.74 L -130.937,-1135.59 L -130.314,-1135.51 L 130.314,-1135.51 z
M -130.048,-1136.01 L -130.64,-1136.08 L -131.218,-1136.23 L -131.772,-1136.45 L -132.295,-1136.74 L -132.778,-1137.09
 L -133.213,-1137.5 L -133.593,-1137.96 L -133.912,-1138.46 L -134.166,-1139 L -134.351,-1139.57 L -134.463,-1140.15
 L -134.5,-1140.75 L -134.5,-1295.25 L -134.463,-1295.85 L -134.351,-1296.43 L -134.166,-1297 L -133.912,-1297.54
 L -133.593,-1298.04 L -133.213,-1298.5 L -132.778,-1298.91 L -132.295,-1299.26 L -131.772,-1299.55 L -131.218,-1299.77
 L -130.64,-1299.92 L -130.048,-1299.99 L 130.048,-1299.99 L 130.64,-1299.92 L 131.218,-1299.77 L 131.772,-1299.55
 L 132.295,-1299.26 L 132.778,-1298.91 L 133.213,-1298.5 L 133.593,-1298.04 L 133.912,-1297.54 L 134.166,-1297
 L 134.351,-1296.43 L 134.463,-1295.85 L 134.5,-1295.25 L 134.5,-1140.75 L 134.463,-1140.15 L 134.351,-1139.57
 L 134.166,-1139 L 133.912,-1138.46 L 133.593,-1137.96 L 133.213,-1137.5 L 132.778,-1137.09 L 132.295,-1136.74
 L 131.772,-1136.45 L 131.218,-1136.23 L 130.64,-1136.08 L 130.048,-1136.01 z
M 130.937,-961.589 L 131.545,-961.745 L 132.129,-961.976 L 132.679,-962.278 L 133.187,-962.647 L 133.645,-963.077
 L 134.045,-963.561 L 134.382,-964.091 L 134.649,-964.659 L 134.843,-965.257 L 134.961,-965.873 L 135,-966.5
 L 135,-1121.5 L 134.961,-1122.13 L 134.843,-1122.74 L 134.649,-1123.34 L 134.382,-1123.91 L 134.045,-1124.44
 L 133.645,-1124.92 L 133.187,-1125.35 L 132.679,-1125.72 L 132.129,-1126.02 L 131.545,-1126.26 L 130.937,-1126.41
 L 130.314,-1126.49 L -130.314,-1126.49 L -130.937,-1126.41 L -131.545,-1126.26 L -132.129,-1126.02 L -132.679,-1125.72
 L -133.187,-1125.35 L -133.645,-1124.92 L -134.045,-1124.44 L -134.382,-1123.91 L -134.649,-1123.34 L -134.843,-1122.74
 L -134.961,-1122.13 L -135,-1121.5 L -135,-966.5 L -134.961,-965.873 L -134.843,-965.257 L -134.649,-964.659
 L -134.382,-964.091 L -134.045,-963.561 L -133.645,-963.077 L -133.187,-962.647 L -132.679,-962.278 L -132.129,-961.976
 L -131.545,-961.745 L -130.937,-961.589 L -130.314,-961.51 L 130.314,-961.51 z
M -130.048,-962.009 L -130.64,-962.084 L -131.218,-962.232 L -131.772,-962.452 L -132.295,-962.739 L -132.778,-963.09
 L -133.213,-963.498 L -133.593,-963.958 L -133.912,-964.462 L -134.166,-965.001 L -134.351,-965.569 L -134.463,-966.155
 L -134.5,-966.75 L -134.5,-1121.25 L -134.463,-1121.85 L -134.351,-1122.43 L -134.166,-1123 L -133.912,-1123.54
 L -133.593,-1124.04 L -133.213,-1124.5 L -132.778,-1124.91 L -132.295,-1125.26 L -131.772,-1125.55 L -131.218,-1125.77
 L -130.64,-1125.92 L -130.048,-1125.99 L 130.048,-1125.99 L 130.64,-1125.92 L 131.218,-1125.77 L 131.772,-1125.55
 L 132.295,-1125.26 L 132.778,-1124.91 L 133.213,-1124.5 L 133.593,-1124.04 L 133.912,-1123.54 L 134.166,-1123
 L 134.351,-1122.43 L 134.463,-1121.85 L 134.5,-1121.25 L 134.5,-966.75 L 134.463,-966.155 L 134.351,-965.569
 L 134.166,-965.001 L 133.912,-964.462 L 133.593,-963.958 L 133.213,-963.498 L 132.778,-963.09 L 132.295,-962.739
 L 131.772,-962.452 L 131.218,-962.232 L 130.64,-962.084 L 130.048,-962.009 z
M 130.937,-787.589 L 131.545,-787.745 L 132.129,-787.976 L 132.679,-788.278 L 133.187,-788.647 L 133.645,-789.077
 L 134.045,-789.561 L 134.382,-790.091 L 134.649,-790.659 L 134.843,-791.257 L 134.961,-791.873 L 135,-792.5
 L 135,-947.5 L 134.961,-948.127 L 134.843,-948.743 L 134.649,-949.341 L 134.382,-949.909 L 134.045,-950.439
 L 133.645,-950.923 L 133.187,-951.353 L 132.679,-951.722 L 132.129,-952.024 L 131.545,-952.255 L 130.937,-952.411
 L 130.314,-952.49 L -130.314,-952.49 L -130.937,-952.411 L -131.545,-952.255 L -132.129,-952.024 L -132.679,-951.722
 L -133.187,-951.353 L -133.645,-950.923 L -134.045,-950.439 L -134.382,-949.909 L -134.649,-949.341 L -134.843,-948.743
 L -134.961,-948.127 L -135,-947.5 L -135,-792.5 L -134.961,-791.873 L -134.843,-791.257 L -134.649,-790.659
 L -134.382,-790.091 L -134.045,-789.561 L -133.645,-789.077 L -133.187,-788.647 L -132.679,-788.278 L -132.129,-787.976
 L -131.545,-787.745 L -130.937,-787.589 L -130.314,-787.51 L 130.314,-787.51 z
M -130.037,-788.181 L -130.608,-788.253 L -131.165,-788.396 L -131.699,-788.607 L -132.203,-788.884 L -132.668,-789.222
 L -133.088,-789.616 L -133.454,-790.059 L -133.762,-790.544 L -134.007,-791.065 L -134.185,-791.611 L -134.292,-792.176
 L -134.328,-792.75 L -134.328,-947.25 L -134.292,-947.824 L -134.185,-948.389 L -134.007,-948.935 L -133.762,-949.456
 L -133.454,-949.941 L -133.088,-950.384 L -132.668,-950.778 L -132.203,-951.116 L -131.699,-951.393 L -131.165,-951.604
 L -130.608,-951.747 L -130.037,-951.819 L 130.037,-951.819 L 130.608,-951.747 L 131.165,-951.604 L 131.699,-951.393
 L 132.203,-951.116 L 132.668,-950.778 L 133.088,-950.384 L 133.454,-949.941 L 133.762,-949.456 L 134.007,-948.935
 L 134.185,-948.389 L 134.292,-947.824 L 134.328,-947.25 L 134.328,-792.75 L 134.292,-792.176 L 134.185,-791.611
 L 134.007,-791.065 L 133.762,-790.544 L 133.454,-790.059 L 133.088,-789.616 L 132.668,-789.222 L 132.203,-788.884
 L 131.699,-788.607 L 131.165,-788.396 L 130.608,-788.253 L 130.037,-788.181 z
M 130.937,-613.589 L 131.545,-613.745 L 132.129,-613.976 L 132.679,-614.278 L 133.187,-614.647 L 133.645,-615.077
 L 134.045,-615.561 L 134.382,-616.091 L 134.649,-616.659 L 134.843,-617.257 L 134.961,-617.873 L 135,-618.5
 L 135,-773.5 L 134.961,-774.127 L 134.843,-774.743 L 134.649,-775.341 L 134.382,-775.909 L 134.045,-776.439
 L 133.645,-776.923 L 133.187,-777.353 L 132.679,-777.722 L 132.129,-778.024 L 131.545,-778.255 L 130.937,-778.411
 L 130.314,-778.49 L -130.314,-778.49 L -130.937,-778.411 L -131.545,-778.255 L -132.129,-778.024 L -132.679,-777.722
 L -133.187,-777.353 L -133.645,-776.923 L -134.045,-776.439 L -134.382,-775.909 L -134.649,-775.341 L -134.843,-774.743
 L -134.961,-774.127 L -135,-773.5 L -135,-618.5 L -134.961,-617.873 L -134.843,-617.257 L -134.649,-616.659
 L -134.382,-616.091 L -134.045,-615.561 L -133.645,-615.077 L -133.187,-614.647 L -132.679,-614.278 L -132.129,-613.976
 L -131.545,-613.745 L -130.937,-613.589 L -130.314,-613.51 L 130.314,-613.51 z
M -129.882,-616.645 L -130.145,-616.678 L -130.402,-616.744 L -130.648,-616.841 L -130.88,-616.969 L -131.095,-617.124
 L -131.288,-617.306 L -131.457,-617.51 L -131.599,-617.734 L -131.711,-617.973 L -131.793,-618.225 L -131.843,-618.486
 L -131.86,-618.75 L -131.86,-773.25 L -131.843,-773.514 L -131.793,-773.775 L -131.711,-774.027 L -131.599,-774.266
 L -131.457,-774.49 L -131.288,-774.694 L -131.095,-774.876 L -130.88,-775.031 L -130.648,-775.159 L -130.402,-775.256
 L -130.145,-775.322 L -129.882,-775.355 L 129.882,-775.355 L 130.145,-775.322 L 130.402,-775.256 L 130.648,-775.159
 L 130.88,-775.031 L 131.095,-774.876 L 131.288,-774.694 L 131.457,-774.49 L 131.599,-774.266 L 131.711,-774.027
 L 131.793,-773.775 L 131.843,-773.514 L 131.86,-773.25 L 131.86,-618.75 L 131.843,-618.486 L 131.793,-618.225
 L 131.711,-617.973 L 131.599,-617.734 L 131.457,-617.51 L 131.288,-617.306 L 131.095,-617.124 L 130.88,-616.969
 L 130.648,-616.841 L 130.402,-616.744 L 130.145,-616.678 L 129.882,-616.645 z
" stroke="black" fill="lightgray" stroke-width="0.5"/>
</svg>
