  0
SECTION
  2
BLOCKS
  0
ENDSEC
  0
SECTION
  2
ENTITIES
  0
LINE
  8
0
 10
123.437
 20
423.089
 11
124.045
 21
423.245
  0
LINE
  8
0
 10
124.045
 20
423.245
 11
124.629
 21
423.476
  0
LINE
  8
0
 10
124.629
 20
423.476
 11
125.179
 21
423.778
  0
LINE
  8
0
 10
125.179
 20
423.778
 11
125.687
 21
424.147
  0
LINE
  8
0
 10
125.687
 20
424.147
 11
126.145
 21
424.577
  0
LINE
  8
0
 10
126.145
 20
424.577
 11
126.545
 21
425.061
  0
LINE
  8
0
 10
126.545
 20
425.061
 11
126.882
 21
425.591
  0
LINE
  8
0
 10
126.882
 20
425.591
 11
127.149
 21
426.159
  0
LINE
  8
0
 10
127.149
 20
426.159
 11
127.343
 21
426.757
  0
LINE
  8
0
 10
127.343
 20
426.757
 11
127.461
 21
427.373
  0
LINE
  8
0
 10
127.461
 20
427.373
 11
127.5
 21
428
  0
LINE
  8
0
 10
127.5
 20
428
 11
127.5
 21
688
  0
LINE
  8
0
 10
127.5
 20
688
 11
127.461
 21
688.627
  0
LINE
  8
0
 10
127.461
 20
688.627
 11
127.343
 21
689.243
  0
LINE
  8
0
 10
127.343
 20
689.243
 11
127.149
 21
689.841
  0
LINE
  8
0
 10
127.149
 20
689.841
 11
126.882
 21
690.409
  0
LINE
  8
0
 10
126.882
 20
690.409
 11
126.545
 21
690.939
  0
LINE
  8
0
 10
126.545
 20
690.939
 11
126.145
 21
691.423
  0
LINE
  8
0
 10
126.145
 20
691.423
 11
125.687
 21
691.853
  0
LINE
  8
0
 10
125.687
 20
691.853
 11
125.179
 21
692.222
  0
LINE
  8
0
 10
125.179
 20
692.222
 11
124.629
 21
692.524
  0
LINE
  8
0
 10
124.629
 20
692.524
 11
124.045
 21
692.755
  0
LINE
  8
0
 10
124.045
 20
692.755
 11
123.437
 21
692.911
  0
LINE
  8
0
 10
123.437
 20
692.911
 11
122.814
 21
692.99
  0
LINE
  8
0
 10
122.814
 20
692.99
 11
-122.814
 21
692.99
  0
LINE
  8
0
 10
-122.814
 20
692.99
 11
-123.437
 21
692.911
  0
LINE
  8
0
 10
-123.437
 20
692.911
 11
-124.045
 21
692.755
  0
LINE
  8
0
 10
-124.045
 20
692.755
 11
-124.629
 21
692.524
  0
LINE
  8
0
 10
-124.629
 20
692.524
 11
-125.179
 21
692.222
  0
LINE
  8
0
 10
-125.179
 20
692.222
 11
-125.687
 21
691.853
  0
LINE
  8
0
 10
-125.687
 20
691.853
 11
-126.145
 21
691.423
  0
LINE
  8
0
 10
-126.145
 20
691.423
 11
-126.545
 21
690.939
  0
LINE
  8
0
 10
-126.545
 20
690.939
 11
-126.882
 21
690.409
  0
LINE
  8
0
 10
-126.882
 20
690.409
 11
-127.149
 21
689.841
  0
LINE
  8
0
 10
-127.149
 20
689.841
 11
-127.343
 21
689.243
  0
LINE
  8
0
 10
-127.343
 20
689.243
 11
-127.461
 21
688.627
  0
LINE
  8
0
 10
-127.461
 20
688.627
 11
-127.5
 21
688
  0
LINE
  8
0
 10
-127.5
 20
688
 11
-127.5
 21
428
  0
LINE
  8
0
 10
-127.5
 20
428
 11
-127.461
 21
427.373
  0
LINE
  8
0
 10
-127.461
 20
427.373
 11
-127.343
 21
426.757
  0
LINE
  8
0
 10
-127.343
 20
426.757
 11
-127.149
 21
426.159
  0
LINE
  8
0
 10
-127.149
 20
426.159
 11
-126.882
 21
425.591
  0
LINE
  8
0
 10
-126.882
 20
425.591
 11
-126.545
 21
425.061
  0
LINE
  8
0
 10
-126.545
 20
425.061
 11
-126.145
 21
424.577
  0
LINE
  8
0
 10
-126.145
 20
424.577
 11
-125.687
 21
424.147
  0
LINE
  8
0
 10
-125.687
 20
424.147
 11
-125.179
 21
423.778
  0
LINE
  8
0
 10
-125.179
 20
423.778
 11
-124.629
 21
423.476
  0
LINE
  8
0
 10
-124.629
 20
423.476
 11
-124.045
 21
423.245
  0
LINE
  8
0
 10
-124.045
 20
423.245
 11
-123.437
 21
423.089
  0
LINE
  8
0
 10
-123.437
 20
423.089
 11
-122.814
 21
423.01
  0
LINE
  8
0
 10
-122.814
 20
423.01
 11
122.814
 21
423.01
  0
LINE
  8
0
 10
122.814
 20
423.01
 11
123.437
 21
423.089
  0
LINE
  8
0
 10
119.849
 20
683.105
 11
119.55
 21
683.143
  0
LINE
  8
0
 10
119.55
 20
683.143
 11
119.258
 21
683.217
  0
LINE
  8
0
 10
119.258
 20
683.217
 11
118.978
 21
683.328
  0
LINE
  8
0
 10
118.978
 20
683.328
 11
118.714
 21
683.474
  0
LINE
  8
0
 10
118.714
 20
683.474
 11
118.47
 21
683.651
  0
LINE
  8
0
 10
118.47
 20
683.651
 11
118.25
 21
683.857
  0
LINE
  8
0
 10
118.25
 20
683.857
 11
118.058
 21
684.089
  0
LINE
  8
0
 10
118.058
 20
684.089
 11
117.897
 21
684.344
  0
LINE
  8
0
 10
117.897
 20
684.344
 11
117.769
 21
684.617
  0
LINE
  8
0
 10
117.769
 20
684.617
 11
117.675
 21
684.903
  0
LINE
  8
0
 10
117.675
 20
684.903
 11
117.619
 21
685.199
  0
LINE
  8
0
 10
117.619
 20
685.199
 11
117.6
 21
685.5
  0
LINE
  8
0
 10
117.6
 20
685.5
 11
117.619
 21
685.801
  0
LINE
  8
0
 10
117.619
 20
685.801
 11
117.675
 21
686.097
  0
LINE
  8
0
 10
117.675
 20
686.097
 11
117.769
 21
686.383
  0
LINE
  8
0
 10
117.769
 20
686.383
 11
117.897
 21
686.656
  0
LINE
  8
0
 10
117.897
 20
686.656
 11
118.058
 21
686.911
  0
LINE
  8
0
 10
118.058
 20
686.911
 11
118.25
 21
687.143
  0
LINE
  8
0
 10
118.25
 20
687.143
 11
118.47
 21
687.349
  0
LINE
  8
0
 10
118.47
 20
687.349
 11
118.714
 21
687.526
  0
LINE
  8
0
 10
118.714
 20
687.526
 11
118.978
 21
687.672
  0
LINE
  8
0
 10
118.978
 20
687.672
 11
119.258
 21
687.783
  0
LINE
  8
0
 10
119.258
 20
687.783
 11
119.55
 21
687.857
  0
LINE
  8
0
 10
119.55
 20
687.857
 11
119.849
 21
687.895
  0
LINE
  8
0
 10
119.849
 20
687.895
 11
120.151
 21
687.895
  0
LINE
  8
0
 10
120.151
 20
687.895
 11
120.45
 21
687.857
  0
LINE
  8
0
 10
120.45
 20
687.857
 11
120.742
 21
687.783
  0
LINE
  8
0
 10
120.742
 20
687.783
 11
121.022
 21
687.672
  0
LINE
  8
0
 10
121.022
 20
687.672
 11
121.286
 21
687.526
  0
LINE
  8
0
 10
121.286
 20
687.526
 11
121.53
 21
687.349
  0
LINE
  8
0
 10
121.53
 20
687.349
 11
121.75
 21
687.143
  0
LINE
  8
0
 10
121.75
 20
687.143
 11
121.942
 21
686.911
  0
LINE
  8
0
 10
121.942
 20
686.911
 11
122.103
 21
686.656
  0
LINE
  8
0
 10
122.103
 20
686.656
 11
122.231
 21
686.383
  0
LINE
  8
0
 10
122.231
 20
686.383
 11
122.325
 21
686.097
  0
LINE
  8
0
 10
122.325
 20
686.097
 11
122.381
 21
685.801
  0
LINE
  8
0
 10
122.381
 20
685.801
 11
122.4
 21
685.5
  0
LINE
  8
0
 10
122.4
 20
685.5
 11
122.381
 21
685.199
  0
LINE
  8
0
 10
122.381
 20
685.199
 11
122.325
 21
684.903
  0
LINE
  8
0
 10
122.325
 20
684.903
 11
122.231
 21
684.617
  0
LINE
  8
0
 10
122.231
 20
684.617
 11
122.103
 21
684.344
  0
LINE
  8
0
 10
122.103
 20
684.344
 11
121.942
 21
684.089
  0
LINE
  8
0
 10
121.942
 20
684.089
 11
121.75
 21
683.857
  0
LINE
  8
0
 10
121.75
 20
683.857
 11
121.53
 21
683.651
  0
LINE
  8
0
 10
121.53
 20
683.651
 11
121.286
 21
683.474
  0
LINE
  8
0
 10
121.286
 20
683.474
 11
121.022
 21
683.328
  0
LINE
  8
0
 10
121.022
 20
683.328
 11
120.742
 21
683.217
  0
LINE
  8
0
 10
120.742
 20
683.217
 11
120.45
 21
683.143
  0
LINE
  8
0
 10
120.45
 20
683.143
 11
120.151
 21
683.105
  0
LINE
  8
0
 10
120.151
 20
683.105
 11
119.849
 21
683.105
  0
LINE
  8
0
 10
-120.151
 20
683.105
 11
-120.45
 21
683.143
  0
LINE
  8
0
 10
-120.45
 20
683.143
 11
-120.742
 21
683.217
  0
LINE
  8
0
 10
-120.742
 20
683.217
 11
-121.022
 21
683.328
  0
LINE
  8
0
 10
-121.022
 20
683.328
 11
-121.286
 21
683.474
  0
LINE
  8
0
 10
-121.286
 20
683.474
 11
-121.53
 21
683.651
  0
LINE
  8
0
 10
-121.53
 20
683.651
 11
-121.75
 21
683.857
  0
LINE
  8
0
 10
-121.75
 20
683.857
 11
-121.942
 21
684.089
  0
LINE
  8
0
 10
-121.942
 20
684.089
 11
-122.103
 21
684.344
  0
LINE
  8
0
 10
-122.103
 20
684.344
 11
-122.231
 21
684.617
  0
LINE
  8
0
 10
-122.231
 20
684.617
 11
-122.325
 21
684.903
  0
LINE
  8
0
 10
-122.325
 20
684.903
 11
-122.381
 21
685.199
  0
LINE
  8
0
 10
-122.381
 20
685.199
 11
-122.4
 21
685.5
  0
LINE
  8
0
 10
-122.4
 20
685.5
 11
-122.381
 21
685.801
  0
LINE
  8
0
 10
-122.381
 20
685.801
 11
-122.325
 21
686.097
  0
LINE
  8
0
 10
-122.325
 20
686.097
 11
-122.231
 21
686.383
  0
LINE
  8
0
 10
-122.231
 20
686.383
 11
-122.103
 21
686.656
  0
LINE
  8
0
 10
-122.103
 20
686.656
 11
-121.942
 21
686.911
  0
LINE
  8
0
 10
-121.942
 20
686.911
 11
-121.75
 21
687.143
  0
LINE
  8
0
 10
-121.75
 20
687.143
 11
-121.53
 21
687.349
  0
LINE
  8
0
 10
-121.53
 20
687.349
 11
-121.286
 21
687.526
  0
LINE
  8
0
 10
-121.286
 20
687.526
 11
-121.022
 21
687.672
  0
LINE
  8
0
 10
-121.022
 20
687.672
 11
-120.742
 21
687.783
  0
LINE
  8
0
 10
-120.742
 20
687.783
 11
-120.45
 21
687.857
  0
LINE
  8
0
 10
-120.45
 20
687.857
 11
-120.151
 21
687.895
  0
LINE
  8
0
 10
-120.151
 20
687.895
 11
-119.849
 21
687.895
  0
LINE
  8
0
 10
-119.849
 20
687.895
 11
-119.55
 21
687.857
  0
LINE
  8
0
 10
-119.55
 20
687.857
 11
-119.258
 21
687.783
  0
LINE
  8
0
 10
-119.258
 20
687.783
 11
-118.978
 21
687.672
  0
LINE
  8
0
 10
-118.978
 20
687.672
 11
-118.714
 21
687.526
  0
LINE
  8
0
 10
-118.714
 20
687.526
 11
-118.47
 21
687.349
  0
LINE
  8
0
 10
-118.47
 20
687.349
 11
-118.25
 21
687.143
  0
LINE
  8
0
 10
-118.25
 20
687.143
 11
-118.058
 21
686.911
  0
LINE
  8
0
 10
-118.058
 20
686.911
 11
-117.897
 21
686.656
  0
LINE
  8
0
 10
-117.897
 20
686.656
 11
-117.769
 21
686.383
  0
LINE
  8
0
 10
-117.769
 20
686.383
 11
-117.675
 21
686.097
  0
LINE
  8
0
 10
-117.675
 20
686.097
 11
-117.619
 21
685.801
  0
LINE
  8
0
 10
-117.619
 20
685.801
 11
-117.6
 21
685.5
  0
LINE
  8
0
 10
-117.6
 20
685.5
 11
-117.619
 21
685.199
  0
LINE
  8
0
 10
-117.619
 20
685.199
 11
-117.675
 21
684.903
  0
LINE
  8
0
 10
-117.675
 20
684.903
 11
-117.769
 21
684.617
  0
LINE
  8
0
 10
-117.769
 20
684.617
 11
-117.897
 21
684.344
  0
LINE
  8
0
 10
-117.897
 20
684.344
 11
-118.058
 21
684.089
  0
LINE
  8
0
 10
-118.058
 20
684.089
 11
-118.25
 21
683.857
  0
LINE
  8
0
 10
-118.25
 20
683.857
 11
-118.47
 21
683.651
  0
LINE
  8
0
 10
-118.47
 20
683.651
 11
-118.714
 21
683.474
  0
LINE
  8
0
 10
-118.714
 20
683.474
 11
-118.978
 21
683.328
  0
LINE
  8
0
 10
-118.978
 20
683.328
 11
-119.258
 21
683.217
  0
LINE
  8
0
 10
-119.258
 20
683.217
 11
-119.55
 21
683.143
  0
LINE
  8
0
 10
-119.55
 20
683.143
 11
-119.849
 21
683.105
  0
LINE
  8
0
 10
-119.849
 20
683.105
 11
-120.151
 21
683.105
  0
LINE
  8
0
 10
119.849
 20
428.105
 11
119.55
 21
428.143
  0
LINE
  8
0
 10
119.55
 20
428.143
 11
119.258
 21
428.217
  0
LINE
  8
0
 10
119.258
 20
428.217
 11
118.978
 21
428.328
  0
LINE
  8
0
 10
118.978
 20
428.328
 11
118.714
 21
428.474
  0
LINE
  8
0
 10
118.714
 20
428.474
 11
118.47
 21
428.651
  0
LINE
  8
0
 10
118.47
 20
428.651
 11
118.25
 21
428.857
  0
LINE
  8
0
 10
118.25
 20
428.857
 11
118.058
 21
429.089
  0
LINE
  8
0
 10
118.058
 20
429.089
 11
117.897
 21
429.344
  0
LINE
  8
0
 10
117.897
 20
429.344
 11
117.769
 21
429.617
  0
LINE
  8
0
 10
117.769
 20
429.617
 11
117.675
 21
429.903
  0
LINE
  8
0
 10
117.675
 20
429.903
 11
117.619
 21
430.199
  0
LINE
  8
0
 10
117.619
 20
430.199
 11
117.6
 21
430.5
  0
LINE
  8
0
 10
117.6
 20
430.5
 11
117.619
 21
430.801
  0
LINE
  8
0
 10
117.619
 20
430.801
 11
117.675
 21
431.097
  0
LINE
  8
0
 10
117.675
 20
431.097
 11
117.769
 21
431.383
  0
LINE
  8
0
 10
117.769
 20
431.383
 11
117.897
 21
431.656
  0
LINE
  8
0
 10
117.897
 20
431.656
 11
118.058
 21
431.911
  0
LINE
  8
0
 10
118.058
 20
431.911
 11
118.25
 21
432.143
  0
LINE
  8
0
 10
118.25
 20
432.143
 11
118.47
 21
432.349
  0
LINE
  8
0
 10
118.47
 20
432.349
 11
118.714
 21
432.526
  0
LINE
  8
0
 10
118.714
 20
432.526
 11
118.978
 21
432.672
  0
LINE
  8
0
 10
118.978
 20
432.672
 11
119.258
 21
432.783
  0
LINE
  8
0
 10
119.258
 20
432.783
 11
119.55
 21
432.857
  0
LINE
  8
0
 10
119.55
 20
432.857
 11
119.849
 21
432.895
  0
LINE
  8
0
 10
119.849
 20
432.895
 11
120.151
 21
432.895
  0
LINE
  8
0
 10
120.151
 20
432.895
 11
120.45
 21
432.857
  0
LINE
  8
0
 10
120.45
 20
432.857
 11
120.742
 21
432.783
  0
LINE
  8
0
 10
120.742
 20
432.783
 11
121.022
 21
432.672
  0
LINE
  8
0
 10
121.022
 20
432.672
 11
121.286
 21
432.526
  0
LINE
  8
0
 10
121.286
 20
432.526
 11
121.53
 21
432.349
  0
LINE
  8
0
 10
121.53
 20
432.349
 11
121.75
 21
432.143
  0
LINE
  8
0
 10
121.75
 20
432.143
 11
121.942
 21
431.911
  0
LINE
  8
0
 10
121.942
 20
431.911
 11
122.103
 21
431.656
  0
LINE
  8
0
 10
122.103
 20
431.656
 11
122.231
 21
431.383
  0
LINE
  8
0
 10
122.231
 20
431.383
 11
122.325
 21
431.097
  0
LINE
  8
0
 10
122.325
 20
431.097
 11
122.381
 21
430.801
  0
LINE
  8
0
 10
122.381
 20
430.801
 11
122.4
 21
430.5
  0
LINE
  8
0
 10
122.4
 20
430.5
 11
122.381
 21
430.199
  0
LINE
  8
0
 10
122.381
 20
430.199
 11
122.325
 21
429.903
  0
LINE
  8
0
 10
122.325
 20
429.903
 11
122.231
 21
429.617
  0
LINE
  8
0
 10
122.231
 20
429.617
 11
122.103
 21
429.344
  0
LINE
  8
0
 10
122.103
 20
429.344
 11
121.942
 21
429.089
  0
LINE
  8
0
 10
121.942
 20
429.089
 11
121.75
 21
428.857
  0
LINE
  8
0
 10
121.75
 20
428.857
 11
121.53
 21
428.651
  0
LINE
  8
0
 10
121.53
 20
428.651
 11
121.286
 21
428.474
  0
LINE
  8
0
 10
121.286
 20
428.474
 11
121.022
 21
428.328
  0
LINE
  8
0
 10
121.022
 20
428.328
 11
120.742
 21
428.217
  0
LINE
  8
0
 10
120.742
 20
428.217
 11
120.45
 21
428.143
  0
LINE
  8
0
 10
120.45
 20
428.143
 11
120.151
 21
428.105
  0
LINE
  8
0
 10
120.151
 20
428.105
 11
119.849
 21
428.105
  0
LINE
  8
0
 10
-120.151
 20
428.105
 11
-120.45
 21
428.143
  0
LINE
  8
0
 10
-120.45
 20
428.143
 11
-120.742
 21
428.217
  0
LINE
  8
0
 10
-120.742
 20
428.217
 11
-121.022
 21
428.328
  0
LINE
  8
0
 10
-121.022
 20
428.328
 11
-121.286
 21
428.474
  0
LINE
  8
0
 10
-121.286
 20
428.474
 11
-121.53
 21
428.651
  0
LINE
  8
0
 10
-121.53
 20
428.651
 11
-121.75
 21
428.857
  0
LINE
  8
0
 10
-121.75
 20
428.857
 11
-121.942
 21
429.089
  0
LINE
  8
0
 10
-121.942
 20
429.089
 11
-122.103
 21
429.344
  0
LINE
  8
0
 10
-122.103
 20
429.344
 11
-122.231
 21
429.617
  0
LINE
  8
0
 10
-122.231
 20
429.617
 11
-122.325
 21
429.903
  0
LINE
  8
0
 10
-122.325
 20
429.903
 11
-122.381
 21
430.199
  0
LINE
  8
0
 10
-122.381
 20
430.199
 11
-122.4
 21
430.5
  0
LINE
  8
0
 10
-122.4
 20
430.5
 11
-122.381
 21
430.801
  0
LINE
  8
0
 10
-122.381
 20
430.801
 11
-122.325
 21
431.097
  0
LINE
  8
0
 10
-122.325
 20
431.097
 11
-122.231
 21
431.383
  0
LINE
  8
0
 10
-122.231
 20
431.383
 11
-122.103
 21
431.656
  0
LINE
  8
0
 10
-122.103
 20
431.656
 11
-121.942
 21
431.911
  0
LINE
  8
0
 10
-121.942
 20
431.911
 11
-121.75
 21
432.143
  0
LINE
  8
0
 10
-121.75
 20
432.143
 11
-121.53
 21
432.349
  0
LINE
  8
0
 10
-121.53
 20
432.349
 11
-121.286
 21
432.526
  0
LINE
  8
0
 10
-121.286
 20
432.526
 11
-121.022
 21
432.672
  0
LINE
  8
0
 10
-121.022
 20
432.672
 11
-120.742
 21
432.783
  0
LINE
  8
0
 10
-120.742
 20
432.783
 11
-120.45
 21
432.857
  0
LINE
  8
0
 10
-120.45
 20
432.857
 11
-120.151
 21
432.895
  0
LINE
  8
0
 10
-120.151
 20
432.895
 11
-119.849
 21
432.895
  0
LINE
  8
0
 10
-119.849
 20
432.895
 11
-119.55
 21
432.857
  0
LINE
  8
0
 10
-119.55
 20
432.857
 11
-119.258
 21
432.783
  0
LINE
  8
0
 10
-119.258
 20
432.783
 11
-118.978
 21
432.672
  0
LINE
  8
0
 10
-118.978
 20
432.672
 11
-118.714
 21
432.526
  0
LINE
  8
0
 10
-118.714
 20
432.526
 11
-118.47
 21
432.349
  0
LINE
  8
0
 10
-118.47
 20
432.349
 11
-118.25
 21
432.143
  0
LINE
  8
0
 10
-118.25
 20
432.143
 11
-118.058
 21
431.911
  0
LINE
  8
0
 10
-118.058
 20
431.911
 11
-117.897
 21
431.656
  0
LINE
  8
0
 10
-117.897
 20
431.656
 11
-117.769
 21
431.383
  0
LINE
  8
0
 10
-117.769
 20
431.383
 11
-117.675
 21
431.097
  0
LINE
  8
0
 10
-117.675
 20
431.097
 11
-117.619
 21
430.801
  0
LINE
  8
0
 10
-117.619
 20
430.801
 11
-117.6
 21
430.5
  0
LINE
  8
0
 10
-117.6
 20
430.5
 11
-117.619
 21
430.199
  0
LINE
  8
0
 10
-117.619
 20
430.199
 11
-117.675
 21
429.903
  0
LINE
  8
0
 10
-117.675
 20
429.903
 11
-117.769
 21
429.617
  0
LINE
  8
0
 10
-117.769
 20
429.617
 11
-117.897
 21
429.344
  0
LINE
  8
0
 10
-117.897
 20
429.344
 11
-118.058
 21
429.089
  0
LINE
  8
0
 10
-118.058
 20
429.089
 11
-118.25
 21
428.857
  0
LINE
  8
0
 10
-118.25
 20
428.857
 11
-118.47
 21
428.651
  0
LINE
  8
0
 10
-118.47
 20
428.651
 11
-118.714
 21
428.474
  0
LINE
  8
0
 10
-118.714
 20
428.474
 11
-118.978
 21
428.328
  0
LINE
  8
0
 10
-118.978
 20
428.328
 11
-119.258
 21
428.217
  0
LINE
  8
0
 10
-119.258
 20
428.217
 11
-119.55
 21
428.143
  0
LINE
  8
0
 10
-119.55
 20
428.143
 11
-119.849
 21
428.105
  0
LINE
  8
0
 10
-119.849
 20
428.105
 11
-120.151
 21
428.105
  0
LINE
  8
0
 10
123.437
 20
144.089
 11
124.045
 21
144.245
  0
LINE
  8
0
 10
124.045
 20
144.245
 11
124.629
 21
144.476
  0
LINE
  8
0
 10
124.629
 20
144.476
 11
125.179
 21
144.778
  0
LINE
  8
0
 10
125.179
 20
144.778
 11
125.687
 21
145.147
  0
LINE
  8
0
 10
125.687
 20
145.147
 11
126.145
 21
145.577
  0
LINE
  8
0
 10
126.145
 20
145.577
 11
126.545
 21
146.061
  0
LINE
  8
0
 10
126.545
 20
146.061
 11
126.882
 21
146.591
  0
LINE
  8
0
 10
126.882
 20
146.591
 11
127.149
 21
147.159
  0
LINE
  8
0
 10
127.149
 20
147.159
 11
127.343
 21
147.757
  0
LINE
  8
0
 10
127.343
 20
147.757
 11
127.461
 21
148.373
  0
LINE
  8
0
 10
127.461
 20
148.373
 11
127.5
 21
149
  0
LINE
  8
0
 10
127.5
 20
149
 11
127.5
 21
409
  0
LINE
  8
0
 10
127.5
 20
409
 11
127.461
 21
409.627
  0
LINE
  8
0
 10
127.461
 20
409.627
 11
127.343
 21
410.243
  0
LINE
  8
0
 10
127.343
 20
410.243
 11
127.149
 21
410.841
  0
LINE
  8
0
 10
127.149
 20
410.841
 11
126.882
 21
411.409
  0
LINE
  8
0
 10
126.882
 20
411.409
 11
126.545
 21
411.939
  0
LINE
  8
0
 10
126.545
 20
411.939
 11
126.145
 21
412.423
  0
LINE
  8
0
 10
126.145
 20
412.423
 11
125.687
 21
412.853
  0
LINE
  8
0
 10
125.687
 20
412.853
 11
125.179
 21
413.222
  0
LINE
  8
0
 10
125.179
 20
413.222
 11
124.629
 21
413.524
  0
LINE
  8
0
 10
124.629
 20
413.524
 11
124.045
 21
413.755
  0
LINE
  8
0
 10
124.045
 20
413.755
 11
123.437
 21
413.911
  0
LINE
  8
0
 10
123.437
 20
413.911
 11
122.814
 21
413.99
  0
LINE
  8
0
 10
122.814
 20
413.99
 11
-122.814
 21
413.99
  0
LINE
  8
0
 10
-122.814
 20
413.99
 11
-123.437
 21
413.911
  0
LINE
  8
0
 10
-123.437
 20
413.911
 11
-124.045
 21
413.755
  0
LINE
  8
0
 10
-124.045
 20
413.755
 11
-124.629
 21
413.524
  0
LINE
  8
0
 10
-124.629
 20
413.524
 11
-125.179
 21
413.222
  0
LINE
  8
0
 10
-125.179
 20
413.222
 11
-125.687
 21
412.853
  0
LINE
  8
0
 10
-125.687
 20
412.853
 11
-126.145
 21
412.423
  0
LINE
  8
0
 10
-126.145
 20
412.423
 11
-126.545
 21
411.939
  0
LINE
  8
0
 10
-126.545
 20
411.939
 11
-126.882
 21
411.409
  0
LINE
  8
0
 10
-126.882
 20
411.409
 11
-127.149
 21
410.841
  0
LINE
  8
0
 10
-127.149
 20
410.841
 11
-127.343
 21
410.243
  0
LINE
  8
0
 10
-127.343
 20
410.243
 11
-127.461
 21
409.627
  0
LINE
  8
0
 10
-127.461
 20
409.627
 11
-127.5
 21
409
  0
LINE
  8
0
 10
-127.5
 20
409
 11
-127.5
 21
149
  0
LINE
  8
0
 10
-127.5
 20
149
 11
-127.461
 21
148.373
  0
LINE
  8
0
 10
-127.461
 20
148.373
 11
-127.343
 21
147.757
  0
LINE
  8
0
 10
-127.343
 20
147.757
 11
-127.149
 21
147.159
  0
LINE
  8
0
 10
-127.149
 20
147.159
 11
-126.882
 21
146.591
  0
LINE
  8
0
 10
-126.882
 20
146.591
 11
-126.545
 21
146.061
  0
LINE
  8
0
 10
-126.545
 20
146.061
 11
-126.145
 21
145.577
  0
LINE
  8
0
 10
-126.145
 20
145.577
 11
-125.687
 21
145.147
  0
LINE
  8
0
 10
-125.687
 20
145.147
 11
-125.179
 21
144.778
  0
LINE
  8
0
 10
-125.179
 20
144.778
 11
-124.629
 21
144.476
  0
LINE
  8
0
 10
-124.629
 20
144.476
 11
-124.045
 21
144.245
  0
LINE
  8
0
 10
-124.045
 20
144.245
 11
-123.437
 21
144.089
  0
LINE
  8
0
 10
-123.437
 20
144.089
 11
-122.814
 21
144.01
  0
LINE
  8
0
 10
-122.814
 20
144.01
 11
122.814
 21
144.01
  0
LINE
  8
0
 10
122.814
 20
144.01
 11
123.437
 21
144.089
  0
LINE
  8
0
 10
119.887
 20
404.704
 11
119.663
 21
404.732
  0
LINE
  8
0
 10
119.663
 20
404.732
 11
119.444
 21
404.788
  0
LINE
  8
0
 10
119.444
 20
404.788
 11
119.234
 21
404.871
  0
LINE
  8
0
 10
119.234
 20
404.871
 11
119.036
 21
404.98
  0
LINE
  8
0
 10
119.036
 20
404.98
 11
118.853
 21
405.113
  0
LINE
  8
0
 10
118.853
 20
405.113
 11
118.688
 21
405.268
  0
LINE
  8
0
 10
118.688
 20
405.268
 11
118.544
 21
405.442
  0
LINE
  8
0
 10
118.544
 20
405.442
 11
118.423
 21
405.633
  0
LINE
  8
0
 10
118.423
 20
405.633
 11
118.326
 21
405.837
  0
LINE
  8
0
 10
118.326
 20
405.837
 11
118.257
 21
406.052
  0
LINE
  8
0
 10
118.257
 20
406.052
 11
118.214
 21
406.274
  0
LINE
  8
0
 10
118.214
 20
406.274
 11
118.2
 21
406.5
  0
LINE
  8
0
 10
118.2
 20
406.5
 11
118.214
 21
406.726
  0
LINE
  8
0
 10
118.214
 20
406.726
 11
118.257
 21
406.948
  0
LINE
  8
0
 10
118.257
 20
406.948
 11
118.326
 21
407.163
  0
LINE
  8
0
 10
118.326
 20
407.163
 11
118.423
 21
407.367
  0
LINE
  8
0
 10
118.423
 20
407.367
 11
118.544
 21
407.558
  0
LINE
  8
0
 10
118.544
 20
407.558
 11
118.688
 21
407.732
  0
LINE
  8
0
 10
118.688
 20
407.732
 11
118.853
 21
407.887
  0
LINE
  8
0
 10
118.853
 20
407.887
 11
119.036
 21
408.02
  0
LINE
  8
0
 10
119.036
 20
408.02
 11
119.234
 21
408.129
  0
LINE
  8
0
 10
119.234
 20
408.129
 11
119.444
 21
408.212
  0
LINE
  8
0
 10
119.444
 20
408.212
 11
119.663
 21
408.268
  0
LINE
  8
0
 10
119.663
 20
408.268
 11
119.887
 21
408.296
  0
LINE
  8
0
 10
119.887
 20
408.296
 11
120.113
 21
408.296
  0
LINE
  8
0
 10
120.113
 20
408.296
 11
120.337
 21
408.268
  0
LINE
  8
0
 10
120.337
 20
408.268
 11
120.556
 21
408.212
  0
LINE
  8
0
 10
120.556
 20
408.212
 11
120.766
 21
408.129
  0
LINE
  8
0
 10
120.766
 20
408.129
 11
120.964
 21
408.02
  0
LINE
  8
0
 10
120.964
 20
408.02
 11
121.147
 21
407.887
  0
LINE
  8
0
 10
121.147
 20
407.887
 11
121.312
 21
407.732
  0
LINE
  8
0
 10
121.312
 20
407.732
 11
121.456
 21
407.558
  0
LINE
  8
0
 10
121.456
 20
407.558
 11
121.577
 21
407.367
  0
LINE
  8
0
 10
121.577
 20
407.367
 11
121.674
 21
407.163
  0
LINE
  8
0
 10
121.674
 20
407.163
 11
121.743
 21
406.948
  0
LINE
  8
0
 10
121.743
 20
406.948
 11
121.786
 21
406.726
  0
LINE
  8
0
 10
121.786
 20
406.726
 11
121.8
 21
406.5
  0
LINE
  8
0
 10
121.8
 20
406.5
 11
121.786
 21
406.274
  0
LINE
  8
0
 10
121.786
 20
406.274
 11
121.743
 21
406.052
  0
LINE
  8
0
 10
121.743
 20
406.052
 11
121.674
 21
405.837
  0
LINE
  8
0
 10
121.674
 20
405.837
 11
121.577
 21
405.633
  0
LINE
  8
0
 10
121.577
 20
405.633
 11
121.456
 21
405.442
  0
LINE
  8
0
 10
121.456
 20
405.442
 11
121.312
 21
405.268
  0
LINE
  8
0
 10
121.312
 20
405.268
 11
121.147
 21
405.113
  0
LINE
  8
0
 10
121.147
 20
405.113
 11
120.964
 21
404.98
  0
LINE
  8
0
 10
120.964
 20
404.98
 11
120.766
 21
404.871
  0
LINE
  8
0
 10
120.766
 20
404.871
 11
120.556
 21
404.788
  0
LINE
  8
0
 10
120.556
 20
404.788
 11
120.337
 21
404.732
  0
LINE
  8
0
 10
120.337
 20
404.732
 11
120.113
 21
404.704
  0
LINE
  8
0
 10
120.113
 20
404.704
 11
119.887
 21
404.704
  0
LINE
  8
0
 10
-120.113
 20
404.704
 11
-120.337
 21
404.732
  0
LINE
  8
0
 10
-120.337
 20
404.732
 11
-120.556
 21
404.788
  0
LINE
  8
0
 10
-120.556
 20
404.788
 11
-120.766
 21
404.871
  0
LINE
  8
0
 10
-120.766
 20
404.871
 11
-120.964
 21
404.98
  0
LINE
  8
0
 10
-120.964
 20
404.98
 11
-121.147
 21
405.113
  0
LINE
  8
0
 10
-121.147
 20
405.113
 11
-121.312
 21
405.268
  0
LINE
  8
0
 10
-121.312
 20
405.268
 11
-121.456
 21
405.442
  0
LINE
  8
0
 10
-121.456
 20
405.442
 11
-121.577
 21
405.633
  0
LINE
  8
0
 10
-121.577
 20
405.633
 11
-121.674
 21
405.837
  0
LINE
  8
0
 10
-121.674
 20
405.837
 11
-121.743
 21
406.052
  0
LINE
  8
0
 10
-121.743
 20
406.052
 11
-121.786
 21
406.274
  0
LINE
  8
0
 10
-121.786
 20
406.274
 11
-121.8
 21
406.5
  0
LINE
  8
0
 10
-121.8
 20
406.5
 11
-121.786
 21
406.726
  0
LINE
  8
0
 10
-121.786
 20
406.726
 11
-121.743
 21
406.948
  0
LINE
  8
0
 10
-121.743
 20
406.948
 11
-121.674
 21
407.163
  0
LINE
  8
0
 10
-121.674
 20
407.163
 11
-121.577
 21
407.367
  0
LINE
  8
0
 10
-121.577
 20
407.367
 11
-121.456
 21
407.558
  0
LINE
  8
0
 10
-121.456
 20
407.558
 11
-121.312
 21
407.732
  0
LINE
  8
0
 10
-121.312
 20
407.732
 11
-121.147
 21
407.887
  0
LINE
  8
0
 10
-121.147
 20
407.887
 11
-120.964
 21
408.02
  0
LINE
  8
0
 10
-120.964
 20
408.02
 11
-120.766
 21
408.129
  0
LINE
  8
0
 10
-120.766
 20
408.129
 11
-120.556
 21
408.212
  0
LINE
  8
0
 10
-120.556
 20
408.212
 11
-120.337
 21
408.268
  0
LINE
  8
0
 10
-120.337
 20
408.268
 11
-120.113
 21
408.296
  0
LINE
  8
0
 10
-120.113
 20
408.296
 11
-119.887
 21
408.296
  0
LINE
  8
0
 10
-119.887
 20
408.296
 11
-119.663
 21
408.268
  0
LINE
  8
0
 10
-119.663
 20
408.268
 11
-119.444
 21
408.212
  0
LINE
  8
0
 10
-119.444
 20
408.212
 11
-119.234
 21
408.129
  0
LINE
  8
0
 10
-119.234
 20
408.129
 11
-119.036
 21
408.02
  0
LINE
  8
0
 10
-119.036
 20
408.02
 11
-118.853
 21
407.887
  0
LINE
  8
0
 10
-118.853
 20
407.887
 11
-118.688
 21
407.732
  0
LINE
  8
0
 10
-118.688
 20
407.732
 11
-118.544
 21
407.558
  0
LINE
  8
0
 10
-118.544
 20
407.558
 11
-118.423
 21
407.367
  0
LINE
  8
0
 10
-118.423
 20
407.367
 11
-118.326
 21
407.163
  0
LINE
  8
0
 10
-118.326
 20
407.163
 11
-118.257
 21
406.948
  0
LINE
  8
0
 10
-118.257
 20
406.948
 11
-118.214
 21
406.726
  0
LINE
  8
0
 10
-118.214
 20
406.726
 11
-118.2
 21
406.5
  0
LINE
  8
0
 10
-118.2
 20
406.5
 11
-118.214
 21
406.274
  0
LINE
  8
0
 10
-118.214
 20
406.274
 11
-118.257
 21
406.052
  0
LINE
  8
0
 10
-118.257
 20
406.052
 11
-118.326
 21
405.837
  0
LINE
  8
0
 10
-118.326
 20
405.837
 11
-118.423
 21
405.633
  0
LINE
  8
0
 10
-118.423
 20
405.633
 11
-118.544
 21
405.442
  0
LINE
  8
0
 10
-118.544
 20
405.442
 11
-118.688
 21
405.268
  0
LINE
  8
0
 10
-118.688
 20
405.268
 11
-118.853
 21
405.113
  0
LINE
  8
0
 10
-118.853
 20
405.113
 11
-119.036
 21
404.98
  0
LINE
  8
0
 10
-119.036
 20
404.98
 11
-119.234
 21
404.871
  0
LINE
  8
0
 10
-119.234
 20
404.871
 11
-119.444
 21
404.788
  0
LINE
  8
0
 10
-119.444
 20
404.788
 11
-119.663
 21
404.732
  0
LINE
  8
0
 10
-119.663
 20
404.732
 11
-119.887
 21
404.704
  0
LINE
  8
0
 10
-119.887
 20
404.704
 11
-120.113
 21
404.704
  0
LINE
  8
0
 10
-120.113
 20
149.704
 11
-120.337
 21
149.732
  0
LINE
  8
0
 10
-120.337
 20
149.732
 11
-120.556
 21
149.788
  0
LINE
  8
0
 10
-120.556
 20
149.788
 11
-120.766
 21
149.871
  0
LINE
  8
0
 10
-120.766
 20
149.871
 11
-120.964
 21
149.98
  0
LINE
  8
0
 10
-120.964
 20
149.98
 11
-121.147
 21
150.113
  0
LINE
  8
0
 10
-121.147
 20
150.113
 11
-121.312
 21
150.268
  0
LINE
  8
0
 10
-121.312
 20
150.268
 11
-121.456
 21
150.442
  0
LINE
  8
0
 10
-121.456
 20
150.442
 11
-121.577
 21
150.633
  0
LINE
  8
0
 10
-121.577
 20
150.633
 11
-121.674
 21
150.837
  0
LINE
  8
0
 10
-121.674
 20
150.837
 11
-121.743
 21
151.052
  0
LINE
  8
0
 10
-121.743
 20
151.052
 11
-121.786
 21
151.274
  0
LINE
  8
0
 10
-121.786
 20
151.274
 11
-121.8
 21
151.5
  0
LINE
  8
0
 10
-121.8
 20
151.5
 11
-121.786
 21
151.726
  0
LINE
  8
0
 10
-121.786
 20
151.726
 11
-121.743
 21
151.948
  0
LINE
  8
0
 10
-121.743
 20
151.948
 11
-121.674
 21
152.163
  0
LINE
  8
0
 10
-121.674
 20
152.163
 11
-121.577
 21
152.367
  0
LINE
  8
0
 10
-121.577
 20
152.367
 11
-121.456
 21
152.558
  0
LINE
  8
0
 10
-121.456
 20
152.558
 11
-121.312
 21
152.732
  0
LINE
  8
0
 10
-121.312
 20
152.732
 11
-121.147
 21
152.887
  0
LINE
  8
0
 10
-121.147
 20
152.887
 11
-120.964
 21
153.02
  0
LINE
  8
0
 10
-120.964
 20
153.02
 11
-120.766
 21
153.129
  0
LINE
  8
0
 10
-120.766
 20
153.129
 11
-120.556
 21
153.212
  0
LINE
  8
0
 10
-120.556
 20
153.212
 11
-120.337
 21
153.268
  0
LINE
  8
0
 10
-120.337
 20
153.268
 11
-120.113
 21
153.296
  0
LINE
  8
0
 10
-120.113
 20
153.296
 11
-119.887
 21
153.296
  0
LINE
  8
0
 10
-119.887
 20
153.296
 11
-119.663
 21
153.268
  0
LINE
  8
0
 10
-119.663
 20
153.268
 11
-119.444
 21
153.212
  0
LINE
  8
0
 10
-119.444
 20
153.212
 11
-119.234
 21
153.129
  0
LINE
  8
0
 10
-119.234
 20
153.129
 11
-119.036
 21
153.02
  0
LINE
  8
0
 10
-119.036
 20
153.02
 11
-118.853
 21
152.887
  0
LINE
  8
0
 10
-118.853
 20
152.887
 11
-118.688
 21
152.732
  0
LINE
  8
0
 10
-118.688
 20
152.732
 11
-118.544
 21
152.558
  0
LINE
  8
0
 10
-118.544
 20
152.558
 11
-118.423
 21
152.367
  0
LINE
  8
0
 10
-118.423
 20
152.367
 11
-118.326
 21
152.163
  0
LINE
  8
0
 10
-118.326
 20
152.163
 11
-118.257
 21
151.948
  0
LINE
  8
0
 10
-118.257
 20
151.948
 11
-118.214
 21
151.726
  0
LINE
  8
0
 10
-118.214
 20
151.726
 11
-118.2
 21
151.5
  0
LINE
  8
0
 10
-118.2
 20
151.5
 11
-118.214
 21
151.274
  0
LINE
  8
0
 10
-118.214
 20
151.274
 11
-118.257
 21
151.052
  0
LINE
  8
0
 10
-118.257
 20
151.052
 11
-118.326
 21
150.837
  0
LINE
  8
0
 10
-118.326
 20
150.837
 11
-118.423
 21
150.633
  0
LINE
  8
0
 10
-118.423
 20
150.633
 11
-118.544
 21
150.442
  0
LINE
  8
0
 10
-118.544
 20
150.442
 11
-118.688
 21
150.268
  0
LINE
  8
0
 10
-118.688
 20
150.268
 11
-118.853
 21
150.113
  0
LINE
  8
0
 10
-118.853
 20
150.113
 11
-119.036
 21
149.98
  0
LINE
  8
0
 10
-119.036
 20
149.98
 11
-119.234
 21
149.871
  0
LINE
  8
0
 10
-119.234
 20
149.871
 11
-119.444
 21
149.788
  0
LINE
  8
0
 10
-119.444
 20
149.788
 11
-119.663
 21
149.732
  0
LINE
  8
0
 10
-119.663
 20
149.732
 11
-119.887
 21
149.704
  0
LINE
  8
0
 10
-119.887
 20
149.704
 11
-120.113
 21
149.704
  0
LINE
  8
0
 10
119.887
 20
149.704
 11
119.663
 21
149.732
  0
LINE
  8
0
 10
119.663
 20
149.732
 11
119.444
 21
149.788
  0
LINE
  8
0
 10
119.444
 20
149.788
 11
119.234
 21
149.871
  0
LINE
  8
0
 10
119.234
 20
149.871
 11
119.036
 21
149.98
  0
LINE
  8
0
 10
119.036
 20
149.98
 11
118.853
 21
150.113
  0
LINE
  8
0
 10
118.853
 20
150.113
 11
118.688
 21
150.268
  0
LINE
  8
0
 10
118.688
 20
150.268
 11
118.544
 21
150.442
  0
LINE
  8
0
 10
118.544
 20
150.442
 11
118.423
 21
150.633
  0
LINE
  8
0
 10
118.423
 20
150.633
 11
118.326
 21
150.837
  0
LINE
  8
0
 10
118.326
 20
150.837
 11
118.257
 21
151.052
  0
LINE
  8
0
 10
118.257
 20
151.052
 11
118.214
 21
151.274
  0
LINE
  8
0
 10
118.214
 20
151.274
 11
118.2
 21
151.5
  0
LINE
  8
0
 10
118.2
 20
151.5
 11
118.214
 21
151.726
  0
LINE
  8
0
 10
118.214
 20
151.726
 11
118.257
 21
151.948
  0
LINE
  8
0
 10
118.257
 20
151.948
 11
118.326
 21
152.163
  0
LINE
  8
0
 10
118.326
 20
152.163
 11
118.423
 21
152.367
  0
LINE
  8
0
 10
118.423
 20
152.367
 11
118.544
 21
152.558
  0
LINE
  8
0
 10
118.544
 20
152.558
 11
118.688
 21
152.732
  0
LINE
  8
0
 10
118.688
 20
152.732
 11
118.853
 21
152.887
  0
LINE
  8
0
 10
118.853
 20
152.887
 11
119.036
 21
153.02
  0
LINE
  8
0
 10
119.036
 20
153.02
 11
119.234
 21
153.129
  0
LINE
  8
0
 10
119.234
 20
153.129
 11
119.444
 21
153.212
  0
LINE
  8
0
 10
119.444
 20
153.212
 11
119.663
 21
153.268
  0
LINE
  8
0
 10
119.663
 20
153.268
 11
119.887
 21
153.296
  0
LINE
  8
0
 10
119.887
 20
153.296
 11
120.113
 21
153.296
  0
LINE
  8
0
 10
120.113
 20
153.296
 11
120.337
 21
153.268
  0
LINE
  8
0
 10
120.337
 20
153.268
 11
120.556
 21
153.212
  0
LINE
  8
0
 10
120.556
 20
153.212
 11
120.766
 21
153.129
  0
LINE
  8
0
 10
120.766
 20
153.129
 11
120.964
 21
153.02
  0
LINE
  8
0
 10
120.964
 20
153.02
 11
121.147
 21
152.887
  0
LINE
  8
0
 10
121.147
 20
152.887
 11
121.312
 21
152.732
  0
LINE
  8
0
 10
121.312
 20
152.732
 11
121.456
 21
152.558
  0
LINE
  8
0
 10
121.456
 20
152.558
 11
121.577
 21
152.367
  0
LINE
  8
0
 10
121.577
 20
152.367
 11
121.674
 21
152.163
  0
LINE
  8
0
 10
121.674
 20
152.163
 11
121.743
 21
151.948
  0
LINE
  8
0
 10
121.743
 20
151.948
 11
121.786
 21
151.726
  0
LINE
  8
0
 10
121.786
 20
151.726
 11
121.8
 21
151.5
  0
LINE
  8
0
 10
121.8
 20
151.5
 11
121.786
 21
151.274
  0
LINE
  8
0
 10
121.786
 20
151.274
 11
121.743
 21
151.052
  0
LINE
  8
0
 10
121.743
 20
151.052
 11
121.674
 21
150.837
  0
LINE
  8
0
 10
121.674
 20
150.837
 11
121.577
 21
150.633
  0
LINE
  8
0
 10
121.577
 20
150.633
 11
121.456
 21
150.442
  0
LINE
  8
0
 10
121.456
 20
150.442
 11
121.312
 21
150.268
  0
LINE
  8
0
 10
121.312
 20
150.268
 11
121.147
 21
150.113
  0
LINE
  8
0
 10
121.147
 20
150.113
 11
120.964
 21
149.98
  0
LINE
  8
0
 10
120.964
 20
149.98
 11
120.766
 21
149.871
  0
LINE
  8
0
 10
120.766
 20
149.871
 11
120.556
 21
149.788
  0
LINE
  8
0
 10
120.556
 20
149.788
 11
120.337
 21
149.732
  0
LINE
  8
0
 10
120.337
 20
149.732
 11
120.113
 21
149.704
  0
LINE
  8
0
 10
120.113
 20
149.704
 11
119.887
 21
149.704
  0
ENDSEC
  0
SECTION
  2
OBJECTS
  0
DICTIONARY
  0
ENDSEC
  0
EOF
