<?xml version="1.0" standalone="no"?>
<!DOCTYPE svg PUBLIC "-//W3C//DTD SVG 1.1//EN" "http://www.w3.org/Graphics/SVG/1.1/DTD/svg11.dtd">
<svg width="300mm" height="88mm" viewBox="-150 -152 300 88" xmlns="http://www.w3.org/2000/svg" version="1.1">
<title>OpenSCAD Model</title>
<path d="
M 145.937,-136.589 L 146.545,-136.745 L 147.129,-136.976 L 147.679,-137.278 L 148.187,-137.647 L 148.645,-138.077
 L 149.045,-138.561 L 149.382,-139.091 L 149.649,-139.659 L 149.843,-140.257 L 149.961,-140.873 L 150,-141.5
 L 150,-146.5 L 149.961,-147.127 L 149.843,-147.743 L 149.649,-148.341 L 149.382,-148.909 L 149.045,-149.439
 L 148.645,-149.923 L 148.187,-150.353 L 147.679,-150.722 L 147.129,-151.024 L 146.545,-151.255 L 145.937,-151.411
 L 145.314,-151.49 L -145.314,-151.49 L -145.937,-151.411 L -146.545,-151.255 L -147.129,-151.024 L -147.679,-150.722
 L -148.187,-150.353 L -148.645,-149.923 L -149.045,-149.439 L -149.382,-148.909 L -149.649,-148.341 L -149.843,-147.743
 L -149.961,-147.127 L -150,-146.5 L -150,-141.5 L -149.961,-140.873 L -149.843,-140.257 L -149.649,-139.659
 L -149.382,-139.091 L -149.045,-138.561 L -148.645,-138.077 L -148.187,-137.647 L -147.679,-137.278 L -147.129,-136.976
 L -146.545,-136.745 L -145.937,-136.589 L -145.314,-136.51 L 145.314,-136.51 z
M -145.048,-137.009 L -145.64,-137.084 L -146.218,-137.232 L -146.772,-137.452 L -147.295,-137.739 L -147.778,-138.09
 L -148.213,-138.498 L -148.593,-138.958 L -148.912,-139.462 L -149.166,-140.001 L -149.351,-140.569 L -149.463,-141.155
 L -149.5,-141.75 L -149.5,-146.25 L -149.463,-146.845 L -149.351,-147.431 L -149.166,-147.999 L -148.912,-148.538
 L -148.593,-149.042 L -148.213,-149.502 L -147.778,-149.91 L -147.295,-150.261 L -146.772,-150.548 L -146.218,-150.768
 L -145.64,-150.916 L -145.048,-150.991 L 145.048,-150.991 L 145.64,-150.916 L 146.218,-150.768 L 146.772,-150.548
 L 147.295,-150.261 L 147.778,-149.91 L 148.213,-149.502 L 148.593,-149.042 L 148.912,-148.538 L 149.166,-147.999
 L 149.351,-147.431 L 149.463,-146.845 L 149.5,-146.25 L 149.5,-141.75 L 149.463,-141.155 L 149.351,-140.569
 L 149.166,-140.001 L 148.912,-139.462 L 148.593,-138.958 L 148.213,-138.498 L 147.778,-138.09 L 147.295,-137.739
 L 146.772,-137.452 L 146.218,-137.232 L 145.64,-137.084 L 145.048,-137.009 z
M 145.937,-112.589 L 146.545,-112.745 L 147.129,-112.976 L 147.679,-113.278 L 148.187,-113.647 L 148.645,-114.077
 L 149.045,-114.561 L 149.382,-115.091 L 149.649,-115.659 L 149.843,-116.257 L 149.961,-116.873 L 150,-117.5
 L 150,-122.5 L 149.961,-123.127 L 149.843,-123.743 L 149.649,-124.341 L 149.382,-124.909 L 149.045,-125.439
 L 148.645,-125.923 L 148.187,-126.353 L 147.679,-126.722 L 147.129,-127.024 L 146.545,-127.255 L 145.937,-127.411
 L 145.314,-127.49 L -145.314,-127.49 L -145.937,-127.411 L -146.545,-127.255 L -147.129,-127.024 L -147.679,-126.722
 L -148.187,-126.353 L -148.645,-125.923 L -149.045,-125.439 L -149.382,-124.909 L -149.649,-124.341 L -149.843,-123.743
 L -149.961,-123.127 L -150,-122.5 L -150,-117.5 L -149.961,-116.873 L -149.843,-116.257 L -149.649,-115.659
 L -149.382,-115.091 L -149.045,-114.561 L -148.645,-114.077 L -148.187,-113.647 L -147.679,-113.278 L -147.129,-112.976
 L -146.545,-112.745 L -145.937,-112.589 L -145.314,-112.51 L 145.314,-112.51 z
M -145.048,-113.009 L -145.64,-113.084 L -146.218,-113.232 L -146.772,-113.452 L -147.295,-113.739 L -147.778,-114.09
 L -148.213,-114.498 L -148.593,-114.958 L -148.912,-115.462 L -149.166,-116.001 L -149.351,-116.569 L -149.463,-117.155
 L -149.5,-117.75 L -149.5,-122.25 L -149.463,-122.845 L -149.351,-123.431 L -149.166,-123.999 L -148.912,-124.538
 L -148.593,-125.042 L -148.213,-125.502 L -147.778,-125.91 L -147.295,-126.261 L -146.772,-126.548 L -146.218,-126.768
 L -145.64,-126.916 L -145.048,-126.991 L 145.048,-126.991 L 145.64,-126.916 L 146.218,-126.768 L 146.772,-126.548
 L 147.295,-126.261 L 147.778,-125.91 L 148.213,-125.502 L 148.593,-125.042 L 148.912,-124.538 L 149.166,-123.999
 L 149.351,-123.431 L 149.463,-122.845 L 149.5,-122.25 L 149.5,-117.75 L 149.463,-117.155 L 149.351,-116.569
 L 149.166,-116.001 L 148.912,-115.462 L 148.593,-114.958 L 148.213,-114.498 L 147.778,-114.09 L 147.295,-113.739
 L 146.772,-113.452 L 146.218,-113.232 L 145.64,-113.084 L 145.048,-113.009 z
M 145.937,-88.5886 L 146.545,-88.7447 L 147.129,-88.9759 L 147.679,-89.2784 L 148.187,-89.6474 L 148.645,-90.0773
 L 149.045,-90.5611 L 149.382,-91.0912 L 149.649,-91.6594 L 149.843,-92.2566 L 149.961,-92.8733 L 150,-93.5
 L 150,-98.5 L 149.961,-99.1267 L 149.843,-99.7434 L 149.649,-100.341 L 149.382,-100.909 L 149.045,-101.439
 L 148.645,-101.923 L 148.187,-102.353 L 147.679,-102.722 L 147.129,-103.024 L 146.545,-103.255 L 145.937,-103.411
 L 145.314,-103.49 L -145.314,-103.49 L -145.937,-103.411 L -146.545,-103.255 L -147.129,-103.024 L -147.679,-102.722
 L -148.187,-102.353 L -148.645,-101.923 L -149.045,-101.439 L -149.382,-100.909 L -149.649,-100.341 L -149.843,-99.7434
 L -149.961,-99.1267 L -150,-98.5 L -150,-93.5 L -149.961,-92.8733 L -149.843,-92.2566 L -149.649,-91.6594
 L -149.382,-91.0912 L -149.045,-90.5611 L -148.645,-90.0773 L -148.187,-89.6474 L -147.679,-89.2784 L -147.129,-88.9759
 L -146.545,-88.7447 L -145.937,-88.5886 L -145.314,-88.5099 L 145.314,-88.5099 z
M -144.993,-89.8882 L -145.475,-89.9491 L -145.946,-90.0699 L -146.398,-90.2488 L -146.823,-90.4829 L -147.216,-90.7685
 L -147.571,-91.1012 L -147.88,-91.4756 L -148.141,-91.8859 L -148.348,-92.3256 L -148.498,-92.7877 L -148.589,-93.265
 L -148.619,-93.75 L -148.619,-98.25 L -148.589,-98.735 L -148.498,-99.2123 L -148.348,-99.6744 L -148.141,-100.114
 L -147.88,-100.524 L -147.571,-100.899 L -147.216,-101.231 L -146.823,-101.517 L -146.398,-101.751 L -145.946,-101.93
 L -145.475,-102.051 L -144.993,-102.112 L 144.993,-102.112 L 145.475,-102.051 L 145.946,-101.93 L 146.398,-101.751
 L 146.823,-101.517 L 147.216,-101.231 L 147.571,-100.899 L 147.88,-100.524 L 148.141,-100.114 L 148.348,-99.6744
 L 148.498,-99.2123 L 148.589,-98.735 L 148.619,-98.25 L 148.619,-93.75 L 148.589,-93.265 L 148.498,-92.7877
 L 148.348,-92.3256 L 148.141,-91.8859 L 147.88,-91.4756 L 147.571,-91.1012 L 147.216,-90.7685 L 146.823,-90.4829
 L 146.398,-90.2488 L 145.946,-90.0699 L 145.475,-89.9491 L 144.993,-89.8882 z
M 145.937,-64.5886 L 146.545,-64.7447 L 147.129,-64.9759 L 147.679,-65.2784 L 148.187,-65.6474 L 148.645,-66.0773
 L 149.045,-66.5611 L 149.382,-67.0912 L 149.649,-67.6594 L 149.843,-68.2566 L 149.961,-68.8733 L 150,-69.5
 L 150,-74.5 L 149.961,-75.1267 L 149.843,-75.7434 L 149.649,-76.3406 L 149.382,-76.9088 L 149.045,-77.4389
 L 148.645,-77.9227 L 148.187,-78.3526 L 147.679,-78.7216 L 147.129,-79.0241 L 146.545,-79.2553 L 145.937,-79.4114
 L 145.314,-79.4901 L -145.314,-79.4901 L -145.937,-79.4114 L -146.545,-79.2553 L -147.129,-79.0241 L -147.679,-78.7216
 L -148.187,-78.3526 L -148.645,-77.9227 L -149.045,-77.4389 L -149.382,-76.9088 L -149.649,-76.3406 L -149.843,-75.7434
 L -149.961,-75.1267 L -150,-74.5 L -150,-69.5 L -149.961,-68.8733 L -149.843,-68.2566 L -149.649,-67.6594
 L -149.382,-67.0912 L -149.045,-66.5611 L -148.645,-66.0773 L -148.187,-65.6474 L -147.679,-65.2784 L -147.129,-64.9759
 L -146.545,-64.7447 L -145.937,-64.5886 L -145.314,-64.5099 L 145.314,-64.5099 z
M -142.613,-70.2036 L -142.837,-70.2319 L -143.056,-70.2881 L -143.266,-70.3713 L -143.464,-70.4802 L -143.647,-70.6131
 L -143.812,-70.7678 L -143.956,-70.942 L -144.077,-71.1329 L -144.174,-71.3374 L -144.243,-71.5524 L -144.286,-71.7744
 L -144.3,-72 L -144.286,-72.2256 L -144.243,-72.4476 L -144.174,-72.6626 L -144.077,-72.8671 L -143.956,-73.058
 L -143.812,-73.2322 L -143.647,-73.3869 L -143.464,-73.5198 L -143.266,-73.6287 L -143.056,-73.7119 L -142.837,-73.7681
 L -142.613,-73.7964 L -142.387,-73.7964 L -142.163,-73.7681 L -141.944,-73.7119 L -141.734,-73.6287 L -141.536,-73.5198
 L -141.353,-73.3869 L -141.188,-73.2322 L -141.044,-73.058 L -140.923,-72.8671 L -140.826,-72.6626 L -140.757,-72.4476
 L -140.714,-72.2256 L -140.7,-72 L -140.714,-71.7744 L -140.757,-71.5524 L -140.826,-71.3374 L -140.923,-71.1329
 L -141.044,-70.942 L -141.188,-70.7678 L -141.353,-70.6131 L -141.536,-70.4802 L -141.734,-70.3713 L -141.944,-70.2881
 L -142.163,-70.2319 L -142.387,-70.2036 z
M 142.387,-70.2036 L 142.163,-70.2319 L 141.944,-70.2881 L 141.734,-70.3713 L 141.536,-70.4802 L 141.353,-70.6131
 L 141.188,-70.7678 L 141.044,-70.942 L 140.923,-71.1329 L 140.826,-71.3374 L 140.757,-71.5524 L 140.714,-71.7744
 L 140.7,-72 L 140.714,-72.2256 L 140.757,-72.4476 L 140.826,-72.6626 L 140.923,-72.8671 L 141.044,-73.058
 L 141.188,-73.2322 L 141.353,-73.3869 L 141.536,-73.5198 L 141.734,-73.6287 L 141.944,-73.7119 L 142.163,-73.7681
 L 142.387,-73.7964 L 142.613,-73.7964 L 142.837,-73.7681 L 143.056,-73.7119 L 143.266,-73.6287 L 143.464,-73.5198
 L 143.647,-73.3869 L 143.812,-73.2322 L 143.956,-73.058 L 144.077,-72.8671 L 144.174,-72.6626 L 144.243,-72.4476
 L 144.286,-72.2256 L 144.3,-72 L 144.286,-71.7744 L 144.243,-71.5524 L 144.174,-71.3374 L 144.077,-71.1329
 L 143.956,-70.942 L 143.812,-70.7678 L 143.647,-70.6131 L 143.464,-70.4802 L 143.266,-70.3713 L 143.056,-70.2881
 L 142.837,-70.2319 L 142.613,-70.2036 z
" stroke="black" fill="lightgray" stroke-width="0.5"/>
</svg>
