<?xml version="1.0" standalone="no"?>
<!DOCTYPE svg PUBLIC "-//W3C//DTD SVG 1.1//EN" "http://www.w3.org/Graphics/SVG/1.1/DTD/svg11.dtd">
<svg width="240mm" height="424mm" viewBox="-120 -644 240 424" xmlns="http://www.w3.org/2000/svg" version="1.1">
<title>OpenSCAD Model</title>
<path d="
M 115.937,-508.589 L 116.545,-508.745 L 117.129,-508.976 L 117.679,-509.278 L 118.187,-509.647 L 118.645,-510.077
 L 119.045,-510.561 L 119.382,-511.091 L 119.649,-511.659 L 119.843,-512.257 L 119.961,-512.873 L 120,-513.5
 L 120,-638.5 L 119.961,-639.127 L 119.843,-639.743 L 119.649,-640.341 L 119.382,-640.909 L 119.045,-641.439
 L 118.645,-641.923 L 118.187,-642.353 L 117.679,-642.722 L 117.129,-643.024 L 116.545,-643.255 L 115.937,-643.411
 L 115.314,-643.49 L -115.314,-643.49 L -115.937,-643.411 L -116.545,-643.255 L -117.129,-643.024 L -117.679,-642.722
 L -118.187,-642.353 L -118.645,-641.923 L -119.045,-641.439 L -119.382,-640.909 L -119.649,-640.341 L -119.843,-639.743
 L -119.961,-639.127 L -120,-638.5 L -120,-513.5 L -119.961,-512.873 L -119.843,-512.257 L -119.649,-511.659
 L -119.382,-511.091 L -119.045,-510.561 L -118.645,-510.077 L -118.187,-509.647 L -117.679,-509.278 L -117.129,-508.976
 L -116.545,-508.745 L -115.937,-508.589 L -115.314,-508.51 L 115.314,-508.51 z
M -115.048,-509.009 L -115.64,-509.084 L -116.218,-509.232 L -116.772,-509.452 L -117.295,-509.739 L -117.778,-510.09
 L -118.213,-510.498 L -118.593,-510.958 L -118.912,-511.462 L -119.166,-512.001 L -119.351,-512.569 L -119.463,-513.155
 L -119.5,-513.75 L -119.5,-638.25 L -119.463,-638.845 L -119.351,-639.431 L -119.166,-639.999 L -118.912,-640.538
 L -118.593,-641.042 L -118.213,-641.502 L -117.778,-641.91 L -117.295,-642.261 L -116.772,-642.548 L -116.218,-642.768
 L -115.64,-642.916 L -115.048,-642.991 L 115.048,-642.991 L 115.64,-642.916 L 116.218,-642.768 L 116.772,-642.548
 L 117.295,-642.261 L 117.778,-641.91 L 118.213,-641.502 L 118.593,-641.042 L 118.912,-640.538 L 119.166,-639.999
 L 119.351,-639.431 L 119.463,-638.845 L 119.5,-638.25 L 119.5,-513.75 L 119.463,-513.155 L 119.351,-512.569
 L 119.166,-512.001 L 118.912,-511.462 L 118.593,-510.958 L 118.213,-510.498 L 117.778,-510.09 L 117.295,-509.739
 L 116.772,-509.452 L 116.218,-509.232 L 115.64,-509.084 L 115.048,-509.009 z
M 115.937,-364.589 L 116.545,-364.745 L 117.129,-364.976 L 117.679,-365.278 L 118.187,-365.647 L 118.645,-366.077
 L 119.045,-366.561 L 119.382,-367.091 L 119.649,-367.659 L 119.843,-368.257 L 119.961,-368.873 L 120,-369.5
 L 120,-494.5 L 119.961,-495.127 L 119.843,-495.743 L 119.649,-496.341 L 119.382,-496.909 L 119.045,-497.439
 L 118.645,-497.923 L 118.187,-498.353 L 117.679,-498.722 L 117.129,-499.024 L 116.545,-499.255 L 115.937,-499.411
 L 115.314,-499.49 L -115.314,-499.49 L -115.937,-499.411 L -116.545,-499.255 L -117.129,-499.024 L -117.679,-498.722
 L -118.187,-498.353 L -118.645,-497.923 L -119.045,-497.439 L -119.382,-496.909 L -119.649,-496.341 L -119.843,-495.743
 L -119.961,-495.127 L -120,-494.5 L -120,-369.5 L -119.961,-368.873 L -119.843,-368.257 L -119.649,-367.659
 L -119.382,-367.091 L -119.045,-366.561 L -118.645,-366.077 L -118.187,-365.647 L -117.679,-365.278 L -117.129,-364.976
 L -116.545,-364.745 L -115.937,-364.589 L -115.314,-364.51 L 115.314,-364.51 z
M -114.993,-365.888 L -115.475,-365.949 L -115.946,-366.07 L -116.398,-366.249 L -116.823,-366.483 L -117.216,-366.769
 L -117.571,-367.101 L -117.88,-367.476 L -118.141,-367.886 L -118.348,-368.326 L -118.498,-368.788 L -118.589,-369.265
 L -118.619,-369.75 L -118.619,-494.25 L -118.589,-494.735 L -118.498,-495.212 L -118.348,-495.674 L -118.141,-496.114
 L -117.88,-496.524 L -117.571,-496.899 L -117.216,-497.231 L -116.823,-497.517 L -116.398,-497.751 L -115.946,-497.93
 L -115.475,-498.051 L -114.993,-498.112 L 114.993,-498.112 L 115.475,-498.051 L 115.946,-497.93 L 116.398,-497.751
 L 116.823,-497.517 L 117.216,-497.231 L 117.571,-496.899 L 117.88,-496.524 L 118.141,-496.114 L 118.348,-495.674
 L 118.498,-495.212 L 118.589,-494.735 L 118.619,-494.25 L 118.619,-369.75 L 118.589,-369.265 L 118.498,-368.788
 L 118.348,-368.326 L 118.141,-367.886 L 117.88,-367.476 L 117.571,-367.101 L 117.216,-366.769 L 116.823,-366.483
 L 116.398,-366.249 L 115.946,-366.07 L 115.475,-365.949 L 114.993,-365.888 z
M 115.937,-220.589 L 116.545,-220.745 L 117.129,-220.976 L 117.679,-221.278 L 118.187,-221.647 L 118.645,-222.077
 L 119.045,-222.561 L 119.382,-223.091 L 119.649,-223.659 L 119.843,-224.257 L 119.961,-224.873 L 120,-225.5
 L 120,-350.5 L 119.961,-351.127 L 119.843,-351.743 L 119.649,-352.341 L 119.382,-352.909 L 119.045,-353.439
 L 118.645,-353.923 L 118.187,-354.353 L 117.679,-354.722 L 117.129,-355.024 L 116.545,-355.255 L 115.937,-355.411
 L 115.314,-355.49 L -115.314,-355.49 L -115.937,-355.411 L -116.545,-355.255 L -117.129,-355.024 L -117.679,-354.722
 L -118.187,-354.353 L -118.645,-353.923 L -119.045,-353.439 L -119.382,-352.909 L -119.649,-352.341 L -119.843,-351.743
 L -119.961,-351.127 L -120,-350.5 L -120,-225.5 L -119.961,-224.873 L -119.843,-224.257 L -119.649,-223.659
 L -119.382,-223.091 L -119.045,-222.561 L -118.645,-222.077 L -118.187,-221.647 L -117.679,-221.278 L -117.129,-220.976
 L -116.545,-220.745 L -115.937,-220.589 L -115.314,-220.51 L 115.314,-220.51 z
M -112.613,-346.204 L -112.837,-346.232 L -113.056,-346.288 L -113.266,-346.371 L -113.464,-346.48 L -113.647,-346.613
 L -113.812,-346.768 L -113.956,-346.942 L -114.077,-347.133 L -114.174,-347.337 L -114.243,-347.552 L -114.286,-347.774
 L -114.3,-348 L -114.286,-348.226 L -114.243,-348.448 L -114.174,-348.663 L -114.077,-348.867 L -113.956,-349.058
 L -113.812,-349.232 L -113.647,-349.387 L -113.464,-349.52 L -113.266,-349.629 L -113.056,-349.712 L -112.837,-349.768
 L -112.613,-349.796 L -112.387,-349.796 L -112.163,-349.768 L -111.944,-349.712 L -111.734,-349.629 L -111.536,-349.52
 L -111.353,-349.387 L -111.188,-349.232 L -111.044,-349.058 L -110.923,-348.867 L -110.826,-348.663 L -110.757,-348.448
 L -110.714,-348.226 L -110.7,-348 L -110.714,-347.774 L -110.757,-347.552 L -110.826,-347.337 L -110.923,-347.133
 L -111.044,-346.942 L -111.188,-346.768 L -111.353,-346.613 L -111.536,-346.48 L -111.734,-346.371 L -111.944,-346.288
 L -112.163,-346.232 L -112.387,-346.204 z
M 112.387,-346.204 L 112.163,-346.232 L 111.944,-346.288 L 111.734,-346.371 L 111.536,-346.48 L 111.353,-346.613
 L 111.188,-346.768 L 111.044,-346.942 L 110.923,-347.133 L 110.826,-347.337 L 110.757,-347.552 L 110.714,-347.774
 L 110.7,-348 L 110.714,-348.226 L 110.757,-348.448 L 110.826,-348.663 L 110.923,-348.867 L 111.044,-349.058
 L 111.188,-349.232 L 111.353,-349.387 L 111.536,-349.52 L 111.734,-349.629 L 111.944,-349.712 L 112.163,-349.768
 L 112.387,-349.796 L 112.613,-349.796 L 112.837,-349.768 L 113.056,-349.712 L 113.266,-349.629 L 113.464,-349.52
 L 113.647,-349.387 L 113.812,-349.232 L 113.956,-349.058 L 114.077,-348.867 L 114.174,-348.663 L 114.243,-348.448
 L 114.286,-348.226 L 114.3,-348 L 114.286,-347.774 L 114.243,-347.552 L 114.174,-347.337 L 114.077,-347.133
 L 113.956,-346.942 L 113.812,-346.768 L 113.647,-346.613 L 113.464,-346.48 L 113.266,-346.371 L 113.056,-346.288
 L 112.837,-346.232 L 112.613,-346.204 z
M -112.613,-226.204 L -112.837,-226.232 L -113.056,-226.288 L -113.266,-226.371 L -113.464,-226.48 L -113.647,-226.613
 L -113.812,-226.768 L -113.956,-226.942 L -114.077,-227.133 L -114.174,-227.337 L -114.243,-227.552 L -114.286,-227.774
 L -114.3,-228 L -114.286,-228.226 L -114.243,-228.448 L -114.174,-228.663 L -114.077,-228.867 L -113.956,-229.058
 L -113.812,-229.232 L -113.647,-229.387 L -113.464,-229.52 L -113.266,-229.629 L -113.056,-229.712 L -112.837,-229.768
 L -112.613,-229.796 L -112.387,-229.796 L -112.163,-229.768 L -111.944,-229.712 L -111.734,-229.629 L -111.536,-229.52
 L -111.353,-229.387 L -111.188,-229.232 L -111.044,-229.058 L -110.923,-228.867 L -110.826,-228.663 L -110.757,-228.448
 L -110.714,-228.226 L -110.7,-228 L -110.714,-227.774 L -110.757,-227.552 L -110.826,-227.337 L -110.923,-227.133
 L -111.044,-226.942 L -111.188,-226.768 L -111.353,-226.613 L -111.536,-226.48 L -111.734,-226.371 L -111.944,-226.288
 L -112.163,-226.232 L -112.387,-226.204 z
M 112.387,-226.204 L 112.163,-226.232 L 111.944,-226.288 L 111.734,-226.371 L 111.536,-226.48 L 111.353,-226.613
 L 111.188,-226.768 L 111.044,-226.942 L 110.923,-227.133 L 110.826,-227.337 L 110.757,-227.552 L 110.714,-227.774
 L 110.7,-228 L 110.714,-228.226 L 110.757,-228.448 L 110.826,-228.663 L 110.923,-228.867 L 111.044,-229.058
 L 111.188,-229.232 L 111.353,-229.387 L 111.536,-229.52 L 111.734,-229.629 L 111.944,-229.712 L 112.163,-229.768
 L 112.387,-229.796 L 112.613,-229.796 L 112.837,-229.768 L 113.056,-229.712 L 113.266,-229.629 L 113.464,-229.52
 L 113.647,-229.387 L 113.812,-229.232 L 113.956,-229.058 L 114.077,-228.867 L 114.174,-228.663 L 114.243,-228.448
 L 114.286,-228.226 L 114.3,-228 L 114.286,-227.774 L 114.243,-227.552 L 114.174,-227.337 L 114.077,-227.133
 L 113.956,-226.942 L 113.812,-226.768 L 113.647,-226.613 L 113.464,-226.48 L 113.266,-226.371 L 113.056,-226.288
 L 112.837,-226.232 L 112.613,-226.204 z
" stroke="black" fill="lightgray" stroke-width="0.5"/>
</svg>
