<?xml version="1.0" standalone="no"?>
<!DOCTYPE svg PUBLIC "-//W3C//DTD SVG 1.1//EN" "http://www.w3.org/Graphics/SVG/1.1/DTD/svg11.dtd">
<svg width="302mm" height="648mm" viewBox="-152 -981 302 648" xmlns="http://www.w3.org/2000/svg" version="1.1">
<title>OpenSCAD Model</title>
<path d="
M -148.5,-772.441 L -148.187,-772.147 L -147.679,-771.778 L -147.129,-771.476 L -146.545,-771.245 L -145.937,-771.089
 L -145.314,-771.01 L 145.314,-771.01 L 145.937,-771.089 L 146.545,-771.245 L 147.129,-771.476 L 147.679,-771.778
 L 148.187,-772.147 L 148.645,-772.577 L 149.045,-773.061 L 149.382,-773.591 L 149.649,-774.159 L 149.843,-774.757
 L 149.961,-775.373 L 150,-776 L 150,-976 L 149.961,-976.627 L 149.843,-977.243 L 149.649,-977.841
 L 149.382,-978.409 L 149.045,-978.939 L 148.645,-979.423 L 148.187,-979.853 L 147.679,-980.222 L 147.129,-980.524
 L 146.545,-980.755 L 145.937,-980.911 L 145.314,-980.99 L -145.314,-980.99 L -145.937,-980.911 L -146.545,-980.755
 L -147.129,-980.524 L -147.679,-980.222 L -148.187,-979.853 L -148.5,-979.559 L -148.5,-980.99 L -151.5,-980.99
 L -151.5,-771.01 L -148.5,-771.01 z
M -144.743,-772.635 L -145.226,-772.696 L -145.697,-772.817 L -146.149,-772.996 L -146.575,-773.23 L -146.969,-773.516
 L -147.323,-773.849 L -147.633,-774.224 L -147.894,-774.634 L -148.101,-775.074 L -148.251,-775.537 L -148.342,-776.015
 L -148.373,-776.5 L -148.373,-975.5 L -148.342,-975.985 L -148.251,-976.463 L -148.101,-976.926 L -147.894,-977.366
 L -147.633,-977.776 L -147.323,-978.151 L -146.969,-978.484 L -146.575,-978.77 L -146.149,-979.004 L -145.697,-979.183
 L -145.226,-979.304 L -144.743,-979.365 L 144.743,-979.365 L 145.226,-979.304 L 145.697,-979.183 L 146.149,-979.004
 L 146.575,-978.77 L 146.969,-978.484 L 147.323,-978.151 L 147.633,-977.776 L 147.894,-977.366 L 148.101,-976.926
 L 148.251,-976.463 L 148.342,-975.985 L 148.373,-975.5 L 148.373,-776.5 L 148.342,-776.015 L 148.251,-775.537
 L 148.101,-775.074 L 147.894,-774.634 L 147.633,-774.224 L 147.323,-773.849 L 146.969,-773.516 L 146.575,-773.23
 L 146.149,-772.996 L 145.697,-772.817 L 145.226,-772.696 L 144.743,-772.635 z
M 145.937,-552.089 L 146.545,-552.245 L 147.129,-552.476 L 147.679,-552.778 L 148.187,-553.147 L 148.645,-553.577
 L 149.045,-554.061 L 149.382,-554.591 L 149.649,-555.159 L 149.843,-555.757 L 149.961,-556.373 L 150,-557
 L 150,-757 L 149.961,-757.627 L 149.843,-758.243 L 149.649,-758.841 L 149.382,-759.409 L 149.045,-759.939
 L 148.645,-760.423 L 148.187,-760.853 L 147.679,-761.222 L 147.129,-761.524 L 146.545,-761.755 L 145.937,-761.911
 L 145.314,-761.99 L -145.314,-761.99 L -145.937,-761.911 L -146.545,-761.755 L -147.129,-761.524 L -147.679,-761.222
 L -148.187,-760.853 L -148.5,-760.559 L -148.5,-761.615 L -151.5,-761.615 L -151.5,-552.385 L -148.5,-552.385
 L -148.5,-553.441 L -148.187,-553.147 L -147.679,-552.778 L -147.129,-552.476 L -146.545,-552.245 L -145.937,-552.089
 L -145.314,-552.01 L 145.314,-552.01 z
M -142.651,-752.105 L -142.95,-752.143 L -143.242,-752.217 L -143.522,-752.328 L -143.786,-752.474 L -144.03,-752.651
 L -144.25,-752.857 L -144.442,-753.089 L -144.603,-753.344 L -144.731,-753.617 L -144.825,-753.903 L -144.881,-754.199
 L -144.9,-754.5 L -144.881,-754.801 L -144.825,-755.097 L -144.731,-755.383 L -144.603,-755.656 L -144.442,-755.911
 L -144.25,-756.143 L -144.03,-756.349 L -143.786,-756.526 L -143.522,-756.672 L -143.242,-756.783 L -142.95,-756.857
 L -142.651,-756.895 L -142.349,-756.895 L -142.05,-756.857 L -141.758,-756.783 L -141.478,-756.672 L -141.214,-756.526
 L -140.97,-756.349 L -140.75,-756.143 L -140.558,-755.911 L -140.397,-755.656 L -140.269,-755.383 L -140.175,-755.097
 L -140.119,-754.801 L -140.1,-754.5 L -140.119,-754.199 L -140.175,-753.903 L -140.269,-753.617 L -140.397,-753.344
 L -140.558,-753.089 L -140.75,-752.857 L -140.97,-752.651 L -141.214,-752.474 L -141.478,-752.328 L -141.758,-752.217
 L -142.05,-752.143 L -142.349,-752.105 z
M 142.349,-752.105 L 142.05,-752.143 L 141.758,-752.217 L 141.478,-752.328 L 141.214,-752.474 L 140.97,-752.651
 L 140.75,-752.857 L 140.558,-753.089 L 140.397,-753.344 L 140.269,-753.617 L 140.175,-753.903 L 140.119,-754.199
 L 140.1,-754.5 L 140.119,-754.801 L 140.175,-755.097 L 140.269,-755.383 L 140.397,-755.656 L 140.558,-755.911
 L 140.75,-756.143 L 140.97,-756.349 L 141.214,-756.526 L 141.478,-756.672 L 141.758,-756.783 L 142.05,-756.857
 L 142.349,-756.895 L 142.651,-756.895 L 142.95,-756.857 L 143.242,-756.783 L 143.522,-756.672 L 143.786,-756.526
 L 144.03,-756.349 L 144.25,-756.143 L 144.442,-755.911 L 144.603,-755.656 L 144.731,-755.383 L 144.825,-755.097
 L 144.881,-754.801 L 144.9,-754.5 L 144.881,-754.199 L 144.825,-753.903 L 144.731,-753.617 L 144.603,-753.344
 L 144.442,-753.089 L 144.25,-752.857 L 144.03,-752.651 L 143.786,-752.474 L 143.522,-752.328 L 143.242,-752.217
 L 142.95,-752.143 L 142.651,-752.105 z
M 142.349,-557.105 L 142.05,-557.143 L 141.758,-557.217 L 141.478,-557.328 L 141.214,-557.474 L 140.97,-557.651
 L 140.75,-557.857 L 140.558,-558.089 L 140.397,-558.344 L 140.269,-558.617 L 140.175,-558.903 L 140.119,-559.199
 L 140.1,-559.5 L 140.119,-559.801 L 140.175,-560.097 L 140.269,-560.383 L 140.397,-560.656 L 140.558,-560.911
 L 140.75,-561.143 L 140.97,-561.349 L 141.214,-561.526 L 141.478,-561.672 L 141.758,-561.783 L 142.05,-561.857
 L 142.349,-561.895 L 142.651,-561.895 L 142.95,-561.857 L 143.242,-561.783 L 143.522,-561.672 L 143.786,-561.526
 L 144.03,-561.349 L 144.25,-561.143 L 144.442,-560.911 L 144.603,-560.656 L 144.731,-560.383 L 144.825,-560.097
 L 144.881,-559.801 L 144.9,-559.5 L 144.881,-559.199 L 144.825,-558.903 L 144.731,-558.617 L 144.603,-558.344
 L 144.442,-558.089 L 144.25,-557.857 L 144.03,-557.651 L 143.786,-557.474 L 143.522,-557.328 L 143.242,-557.217
 L 142.95,-557.143 L 142.651,-557.105 z
M -142.651,-557.105 L -142.95,-557.143 L -143.242,-557.217 L -143.522,-557.328 L -143.786,-557.474 L -144.03,-557.651
 L -144.25,-557.857 L -144.442,-558.089 L -144.603,-558.344 L -144.731,-558.617 L -144.825,-558.903 L -144.881,-559.199
 L -144.9,-559.5 L -144.881,-559.801 L -144.825,-560.097 L -144.731,-560.383 L -144.603,-560.656 L -144.442,-560.911
 L -144.25,-561.143 L -144.03,-561.349 L -143.786,-561.526 L -143.522,-561.672 L -143.242,-561.783 L -142.95,-561.857
 L -142.651,-561.895 L -142.349,-561.895 L -142.05,-561.857 L -141.758,-561.783 L -141.478,-561.672 L -141.214,-561.526
 L -140.97,-561.349 L -140.75,-561.143 L -140.558,-560.911 L -140.397,-560.656 L -140.269,-560.383 L -140.175,-560.097
 L -140.119,-559.801 L -140.1,-559.5 L -140.119,-559.199 L -140.175,-558.903 L -140.269,-558.617 L -140.397,-558.344
 L -140.558,-558.089 L -140.75,-557.857 L -140.97,-557.651 L -141.214,-557.474 L -141.478,-557.328 L -141.758,-557.217
 L -142.05,-557.143 L -142.349,-557.105 z
M 145.937,-333.089 L 146.545,-333.245 L 147.129,-333.476 L 147.679,-333.778 L 148.187,-334.147 L 148.645,-334.577
 L 149.045,-335.061 L 149.382,-335.591 L 149.649,-336.159 L 149.843,-336.757 L 149.961,-337.373 L 150,-338
 L 150,-538 L 149.961,-538.627 L 149.843,-539.243 L 149.649,-539.841 L 149.382,-540.409 L 149.045,-540.939
 L 148.645,-541.423 L 148.187,-541.853 L 147.679,-542.222 L 147.129,-542.524 L 146.545,-542.755 L 145.937,-542.911
 L 145.314,-542.99 L -145.314,-542.99 L -145.937,-542.911 L -146.545,-542.755 L -147.129,-542.524 L -147.679,-542.222
 L -148.187,-541.853 L -148.645,-541.423 L -149.045,-540.939 L -149.382,-540.409 L -149.649,-539.841 L -149.843,-539.243
 L -149.9,-538.944 L -151.5,-538.944 L -151.5,-337.056 L -149.9,-337.056 L -149.843,-336.757 L -149.649,-336.159
 L -149.382,-335.591 L -149.045,-335.061 L -148.645,-334.577 L -148.187,-334.147 L -147.679,-333.778 L -147.129,-333.476
 L -146.545,-333.245 L -145.937,-333.089 L -145.314,-333.01 L 145.314,-333.01 z
M -142.613,-533.704 L -142.837,-533.732 L -143.056,-533.788 L -143.266,-533.871 L -143.464,-533.98 L -143.647,-534.113
 L -143.812,-534.268 L -143.956,-534.442 L -144.077,-534.633 L -144.174,-534.837 L -144.243,-535.052 L -144.286,-535.274
 L -144.3,-535.5 L -144.286,-535.726 L -144.243,-535.948 L -144.174,-536.163 L -144.077,-536.367 L -143.956,-536.558
 L -143.812,-536.732 L -143.647,-536.887 L -143.464,-537.02 L -143.266,-537.129 L -143.056,-537.212 L -142.837,-537.268
 L -142.613,-537.296 L -142.387,-537.296 L -142.163,-537.268 L -141.944,-537.212 L -141.734,-537.129 L -141.536,-537.02
 L -141.353,-536.887 L -141.188,-536.732 L -141.044,-536.558 L -140.923,-536.367 L -140.826,-536.163 L -140.757,-535.948
 L -140.714,-535.726 L -140.7,-535.5 L -140.714,-535.274 L -140.757,-535.052 L -140.826,-534.837 L -140.923,-534.633
 L -141.044,-534.442 L -141.188,-534.268 L -141.353,-534.113 L -141.536,-533.98 L -141.734,-533.871 L -141.944,-533.788
 L -142.163,-533.732 L -142.387,-533.704 z
M 142.387,-533.704 L 142.163,-533.732 L 141.944,-533.788 L 141.734,-533.871 L 141.536,-533.98 L 141.353,-534.113
 L 141.188,-534.268 L 141.044,-534.442 L 140.923,-534.633 L 140.826,-534.837 L 140.757,-535.052 L 140.714,-535.274
 L 140.7,-535.5 L 140.714,-535.726 L 140.757,-535.948 L 140.826,-536.163 L 140.923,-536.367 L 141.044,-536.558
 L 141.188,-536.732 L 141.353,-536.887 L 141.536,-537.02 L 141.734,-537.129 L 141.944,-537.212 L 142.163,-537.268
 L 142.387,-537.296 L 142.613,-537.296 L 142.837,-537.268 L 143.056,-537.212 L 143.266,-537.129 L 143.464,-537.02
 L 143.647,-536.887 L 143.812,-536.732 L 143.956,-536.558 L 144.077,-536.367 L 144.174,-536.163 L 144.243,-535.948
 L 144.286,-535.726 L 144.3,-535.5 L 144.286,-535.274 L 144.243,-535.052 L 144.174,-534.837 L 144.077,-534.633
 L 143.956,-534.442 L 143.812,-534.268 L 143.647,-534.113 L 143.464,-533.98 L 143.266,-533.871 L 143.056,-533.788
 L 142.837,-533.732 L 142.613,-533.704 z
M 142.387,-338.704 L 142.163,-338.732 L 141.944,-338.788 L 141.734,-338.871 L 141.536,-338.98 L 141.353,-339.113
 L 141.188,-339.268 L 141.044,-339.442 L 140.923,-339.633 L 140.826,-339.837 L 140.757,-340.052 L 140.714,-340.274
 L 140.7,-340.5 L 140.714,-340.726 L 140.757,-340.948 L 140.826,-341.163 L 140.923,-341.367 L 141.044,-341.558
 L 141.188,-341.732 L 141.353,-341.887 L 141.536,-342.02 L 141.734,-342.129 L 141.944,-342.212 L 142.163,-342.268
 L 142.387,-342.296 L 142.613,-342.296 L 142.837,-342.268 L 143.056,-342.212 L 143.266,-342.129 L 143.464,-342.02
 L 143.647,-341.887 L 143.812,-341.732 L 143.956,-341.558 L 144.077,-341.367 L 144.174,-341.163 L 144.243,-340.948
 L 144.286,-340.726 L 144.3,-340.5 L 144.286,-340.274 L 144.243,-340.052 L 144.174,-339.837 L 144.077,-339.633
 L 143.956,-339.442 L 143.812,-339.268 L 143.647,-339.113 L 143.464,-338.98 L 143.266,-338.871 L 143.056,-338.788
 L 142.837,-338.732 L 142.613,-338.704 z
M -142.613,-338.704 L -142.837,-338.732 L -143.056,-338.788 L -143.266,-338.871 L -143.464,-338.98 L -143.647,-339.113
 L -143.812,-339.268 L -143.956,-339.442 L -144.077,-339.633 L -144.174,-339.837 L -144.243,-340.052 L -144.286,-340.274
 L -144.3,-340.5 L -144.286,-340.726 L -144.243,-340.948 L -144.174,-341.163 L -144.077,-341.367 L -143.956,-341.558
 L -143.812,-341.732 L -143.647,-341.887 L -143.464,-342.02 L -143.266,-342.129 L -143.056,-342.212 L -142.837,-342.268
 L -142.613,-342.296 L -142.387,-342.296 L -142.163,-342.268 L -141.944,-342.212 L -141.734,-342.129 L -141.536,-342.02
 L -141.353,-341.887 L -141.188,-341.732 L -141.044,-341.558 L -140.923,-341.367 L -140.826,-341.163 L -140.757,-340.948
 L -140.714,-340.726 L -140.7,-340.5 L -140.714,-340.274 L -140.757,-340.052 L -140.826,-339.837 L -140.923,-339.633
 L -141.044,-339.442 L -141.188,-339.268 L -141.353,-339.113 L -141.536,-338.98 L -141.734,-338.871 L -141.944,-338.788
 L -142.163,-338.732 L -142.387,-338.704 z
" stroke="black" fill="lightgray" stroke-width="0.5"/>
</svg>
