<?xml version="1.0" standalone="no"?>
<!DOCTYPE svg PUBLIC "-//W3C//DTD SVG 1.1//EN" "http://www.w3.org/Graphics/SVG/1.1/DTD/svg11.dtd">
<svg width="257mm" height="108mm" viewBox="-129 -171 257 108" xmlns="http://www.w3.org/2000/svg" version="1.1">
<title>OpenSCAD Model</title>
<path d="
M -126,-142.441 L -125.687,-142.147 L -125.179,-141.778 L -124.629,-141.476 L -124.045,-141.245 L -123.437,-141.089
 L -122.814,-141.01 L 122.814,-141.01 L 123.437,-141.089 L 124.045,-141.245 L 124.629,-141.476 L 125.179,-141.778
 L 125.687,-142.147 L 126.145,-142.577 L 126.545,-143.061 L 126.882,-143.591 L 127.149,-144.159 L 127.343,-144.757
 L 127.461,-145.373 L 127.5,-146 L 127.5,-166 L 127.461,-166.627 L 127.343,-167.243 L 127.149,-167.841
 L 126.882,-168.409 L 126.545,-168.939 L 126.145,-169.423 L 125.687,-169.853 L 125.179,-170.222 L 124.629,-170.524
 L 124.045,-170.755 L 123.437,-170.911 L 122.814,-170.99 L -122.814,-170.99 L -123.437,-170.911 L -124.045,-170.755
 L -124.629,-170.524 L -125.179,-170.222 L -125.687,-169.853 L -126,-169.559 L -126,-170.99 L -129,-170.99
 L -129,-141.01 L -126,-141.01 z
M -122.243,-142.635 L -122.726,-142.696 L -123.197,-142.817 L -123.649,-142.996 L -124.075,-143.23 L -124.469,-143.516
 L -124.823,-143.849 L -125.133,-144.224 L -125.394,-144.634 L -125.601,-145.074 L -125.751,-145.537 L -125.842,-146.015
 L -125.873,-146.5 L -125.873,-165.5 L -125.842,-165.985 L -125.751,-166.463 L -125.601,-166.926 L -125.394,-167.366
 L -125.133,-167.776 L -124.823,-168.151 L -124.469,-168.484 L -124.075,-168.77 L -123.649,-169.004 L -123.197,-169.183
 L -122.726,-169.304 L -122.243,-169.365 L 122.243,-169.365 L 122.726,-169.304 L 123.197,-169.183 L 123.649,-169.004
 L 124.075,-168.77 L 124.469,-168.484 L 124.823,-168.151 L 125.133,-167.776 L 125.394,-167.366 L 125.601,-166.926
 L 125.751,-166.463 L 125.842,-165.985 L 125.873,-165.5 L 125.873,-146.5 L 125.842,-146.015 L 125.751,-145.537
 L 125.601,-145.074 L 125.394,-144.634 L 125.133,-144.224 L 124.823,-143.849 L 124.469,-143.516 L 124.075,-143.23
 L 123.649,-142.996 L 123.197,-142.817 L 122.726,-142.696 L 122.243,-142.635 z
M 123.437,-102.089 L 124.045,-102.245 L 124.629,-102.476 L 125.179,-102.778 L 125.687,-103.147 L 126.145,-103.577
 L 126.545,-104.061 L 126.882,-104.591 L 127.149,-105.159 L 127.343,-105.757 L 127.461,-106.373 L 127.5,-107
 L 127.5,-127 L 127.461,-127.627 L 127.343,-128.243 L 127.149,-128.841 L 126.882,-129.409 L 126.545,-129.939
 L 126.145,-130.423 L 125.687,-130.853 L 125.179,-131.222 L 124.629,-131.524 L 124.045,-131.755 L 123.437,-131.911
 L 122.814,-131.99 L -122.814,-131.99 L -123.437,-131.911 L -124.045,-131.755 L -124.629,-131.524 L -125.179,-131.222
 L -125.687,-130.853 L -126,-130.559 L -126,-131.615 L -129,-131.615 L -129,-102.385 L -126,-102.385
 L -126,-103.441 L -125.687,-103.147 L -125.179,-102.778 L -124.629,-102.476 L -124.045,-102.245 L -123.437,-102.089
 L -122.814,-102.01 L 122.814,-102.01 z
M 119.849,-122.105 L 119.55,-122.143 L 119.258,-122.217 L 118.978,-122.328 L 118.714,-122.474 L 118.47,-122.651
 L 118.25,-122.857 L 118.058,-123.089 L 117.897,-123.344 L 117.769,-123.617 L 117.675,-123.903 L 117.619,-124.199
 L 117.6,-124.5 L 117.619,-124.801 L 117.675,-125.097 L 117.769,-125.383 L 117.897,-125.656 L 118.058,-125.911
 L 118.25,-126.143 L 118.47,-126.349 L 118.714,-126.526 L 118.978,-126.672 L 119.258,-126.783 L 119.55,-126.857
 L 119.849,-126.895 L 120.151,-126.895 L 120.45,-126.857 L 120.742,-126.783 L 121.022,-126.672 L 121.286,-126.526
 L 121.53,-126.349 L 121.75,-126.143 L 121.942,-125.911 L 122.103,-125.656 L 122.231,-125.383 L 122.325,-125.097
 L 122.381,-124.801 L 122.4,-124.5 L 122.381,-124.199 L 122.325,-123.903 L 122.231,-123.617 L 122.103,-123.344
 L 121.942,-123.089 L 121.75,-122.857 L 121.53,-122.651 L 121.286,-122.474 L 121.022,-122.328 L 120.742,-122.217
 L 120.45,-122.143 L 120.151,-122.105 z
M -120.151,-122.105 L -120.45,-122.143 L -120.742,-122.217 L -121.022,-122.328 L -121.286,-122.474 L -121.53,-122.651
 L -121.75,-122.857 L -121.942,-123.089 L -122.103,-123.344 L -122.231,-123.617 L -122.325,-123.903 L -122.381,-124.199
 L -122.4,-124.5 L -122.381,-124.801 L -122.325,-125.097 L -122.231,-125.383 L -122.103,-125.656 L -121.942,-125.911
 L -121.75,-126.143 L -121.53,-126.349 L -121.286,-126.526 L -121.022,-126.672 L -120.742,-126.783 L -120.45,-126.857
 L -120.151,-126.895 L -119.849,-126.895 L -119.55,-126.857 L -119.258,-126.783 L -118.978,-126.672 L -118.714,-126.526
 L -118.47,-126.349 L -118.25,-126.143 L -118.058,-125.911 L -117.897,-125.656 L -117.769,-125.383 L -117.675,-125.097
 L -117.619,-124.801 L -117.6,-124.5 L -117.619,-124.199 L -117.675,-123.903 L -117.769,-123.617 L -117.897,-123.344
 L -118.058,-123.089 L -118.25,-122.857 L -118.47,-122.651 L -118.714,-122.474 L -118.978,-122.328 L -119.258,-122.217
 L -119.55,-122.143 L -119.849,-122.105 z
M 119.849,-107.105 L 119.55,-107.143 L 119.258,-107.217 L 118.978,-107.328 L 118.714,-107.474 L 118.47,-107.651
 L 118.25,-107.857 L 118.058,-108.089 L 117.897,-108.344 L 117.769,-108.617 L 117.675,-108.903 L 117.619,-109.199
 L 117.6,-109.5 L 117.619,-109.801 L 117.675,-110.097 L 117.769,-110.383 L 117.897,-110.656 L 118.058,-110.911
 L 118.25,-111.143 L 118.47,-111.349 L 118.714,-111.526 L 118.978,-111.672 L 119.258,-111.783 L 119.55,-111.857
 L 119.849,-111.895 L 120.151,-111.895 L 120.45,-111.857 L 120.742,-111.783 L 121.022,-111.672 L 121.286,-111.526
 L 121.53,-111.349 L 121.75,-111.143 L 121.942,-110.911 L 122.103,-110.656 L 122.231,-110.383 L 122.325,-110.097
 L 122.381,-109.801 L 122.4,-109.5 L 122.381,-109.199 L 122.325,-108.903 L 122.231,-108.617 L 122.103,-108.344
 L 121.942,-108.089 L 121.75,-107.857 L 121.53,-107.651 L 121.286,-107.474 L 121.022,-107.328 L 120.742,-107.217
 L 120.45,-107.143 L 120.151,-107.105 z
M -120.151,-107.105 L -120.45,-107.143 L -120.742,-107.217 L -121.022,-107.328 L -121.286,-107.474 L -121.53,-107.651
 L -121.75,-107.857 L -121.942,-108.089 L -122.103,-108.344 L -122.231,-108.617 L -122.325,-108.903 L -122.381,-109.199
 L -122.4,-109.5 L -122.381,-109.801 L -122.325,-110.097 L -122.231,-110.383 L -122.103,-110.656 L -121.942,-110.911
 L -121.75,-111.143 L -121.53,-111.349 L -121.286,-111.526 L -121.022,-111.672 L -120.742,-111.783 L -120.45,-111.857
 L -120.151,-111.895 L -119.849,-111.895 L -119.55,-111.857 L -119.258,-111.783 L -118.978,-111.672 L -118.714,-111.526
 L -118.47,-111.349 L -118.25,-111.143 L -118.058,-110.911 L -117.897,-110.656 L -117.769,-110.383 L -117.675,-110.097
 L -117.619,-109.801 L -117.6,-109.5 L -117.619,-109.199 L -117.675,-108.903 L -117.769,-108.617 L -117.897,-108.344
 L -118.058,-108.089 L -118.25,-107.857 L -118.47,-107.651 L -118.714,-107.474 L -118.978,-107.328 L -119.258,-107.217
 L -119.55,-107.143 L -119.849,-107.105 z
M 123.437,-63.0886 L 124.045,-63.2447 L 124.629,-63.4759 L 125.179,-63.7784 L 125.687,-64.1474 L 126.145,-64.5773
 L 126.545,-65.0611 L 126.882,-65.5912 L 127.149,-66.1594 L 127.343,-66.7566 L 127.461,-67.3733 L 127.5,-68
 L 127.5,-88 L 127.461,-88.6267 L 127.343,-89.2434 L 127.149,-89.8406 L 126.882,-90.4088 L 126.545,-90.9389
 L 126.145,-91.4227 L 125.687,-91.8526 L 125.179,-92.2216 L 124.629,-92.5241 L 124.045,-92.7553 L 123.437,-92.9114
 L 122.814,-92.9901 L -122.814,-92.9901 L -123.437,-92.9114 L -124.045,-92.7553 L -124.629,-92.5241 L -125.179,-92.2216
 L -125.687,-91.8526 L -126.145,-91.4227 L -126.545,-90.9389 L -126.882,-90.4088 L -127.149,-89.8406 L -127.343,-89.2434
 L -127.4,-88.9442 L -129,-88.9442 L -129,-67.0558 L -127.4,-67.0558 L -127.343,-66.7566 L -127.149,-66.1594
 L -126.882,-65.5912 L -126.545,-65.0611 L -126.145,-64.5773 L -125.687,-64.1474 L -125.179,-63.7784 L -124.629,-63.4759
 L -124.045,-63.2447 L -123.437,-63.0886 L -122.814,-63.0099 L 122.814,-63.0099 z
M 119.887,-83.7036 L 119.663,-83.7319 L 119.444,-83.7881 L 119.234,-83.8713 L 119.036,-83.9802 L 118.853,-84.1131
 L 118.688,-84.2678 L 118.544,-84.442 L 118.423,-84.6328 L 118.326,-84.8374 L 118.257,-85.0524 L 118.214,-85.2744
 L 118.2,-85.5 L 118.214,-85.7256 L 118.257,-85.9476 L 118.326,-86.1626 L 118.423,-86.3671 L 118.544,-86.558
 L 118.688,-86.7322 L 118.853,-86.8869 L 119.036,-87.0198 L 119.234,-87.1287 L 119.444,-87.2119 L 119.663,-87.2681
 L 119.887,-87.2964 L 120.113,-87.2964 L 120.337,-87.2681 L 120.556,-87.2119 L 120.766,-87.1287 L 120.964,-87.0198
 L 121.147,-86.8869 L 121.312,-86.7322 L 121.456,-86.558 L 121.577,-86.3671 L 121.674,-86.1626 L 121.743,-85.9476
 L 121.786,-85.7256 L 121.8,-85.5 L 121.786,-85.2744 L 121.743,-85.0524 L 121.674,-84.8374 L 121.577,-84.6328
 L 121.456,-84.442 L 121.312,-84.2678 L 121.147,-84.1131 L 120.964,-83.9802 L 120.766,-83.8713 L 120.556,-83.7881
 L 120.337,-83.7319 L 120.113,-83.7036 z
M -120.113,-83.7036 L -120.337,-83.7319 L -120.556,-83.7881 L -120.766,-83.8713 L -120.964,-83.9802 L -121.147,-84.1131
 L -121.312,-84.2678 L -121.456,-84.442 L -121.577,-84.6328 L -121.674,-84.8374 L -121.743,-85.0524 L -121.786,-85.2744
 L -121.8,-85.5 L -121.786,-85.7256 L -121.743,-85.9476 L -121.674,-86.1626 L -121.577,-86.3671 L -121.456,-86.558
 L -121.312,-86.7322 L -121.147,-86.8869 L -120.964,-87.0198 L -120.766,-87.1287 L -120.556,-87.2119 L -120.337,-87.2681
 L -120.113,-87.2964 L -119.887,-87.2964 L -119.663,-87.2681 L -119.444,-87.2119 L -119.234,-87.1287 L -119.036,-87.0198
 L -118.853,-86.8869 L -118.688,-86.7322 L -118.544,-86.558 L -118.423,-86.3671 L -118.326,-86.1626 L -118.257,-85.9476
 L -118.214,-85.7256 L -118.2,-85.5 L -118.214,-85.2744 L -118.257,-85.0524 L -118.326,-84.8374 L -118.423,-84.6328
 L -118.544,-84.442 L -118.688,-84.2678 L -118.853,-84.1131 L -119.036,-83.9802 L -119.234,-83.8713 L -119.444,-83.7881
 L -119.663,-83.7319 L -119.887,-83.7036 z
M -120.113,-68.7036 L -120.337,-68.7319 L -120.556,-68.7881 L -120.766,-68.8713 L -120.964,-68.9802 L -121.147,-69.1131
 L -121.312,-69.2678 L -121.456,-69.442 L -121.577,-69.6329 L -121.674,-69.8374 L -121.743,-70.0524 L -121.786,-70.2744
 L -121.8,-70.5 L -121.786,-70.7256 L -121.743,-70.9476 L -121.674,-71.1626 L -121.577,-71.3672 L -121.456,-71.558
 L -121.312,-71.7322 L -121.147,-71.8869 L -120.964,-72.0198 L -120.766,-72.1287 L -120.556,-72.2119 L -120.337,-72.2681
 L -120.113,-72.2964 L -119.887,-72.2964 L -119.663,-72.2681 L -119.444,-72.2119 L -119.234,-72.1287 L -119.036,-72.0198
 L -118.853,-71.8869 L -118.688,-71.7322 L -118.544,-71.558 L -118.423,-71.3672 L -118.326,-71.1626 L -118.257,-70.9476
 L -118.214,-70.7256 L -118.2,-70.5 L -118.214,-70.2744 L -118.257,-70.0524 L -118.326,-69.8374 L -118.423,-69.6329
 L -118.544,-69.442 L -118.688,-69.2678 L -118.853,-69.1131 L -119.036,-68.9802 L -119.234,-68.8713 L -119.444,-68.7881
 L -119.663,-68.7319 L -119.887,-68.7036 z
M 119.887,-68.7036 L 119.663,-68.7319 L 119.444,-68.7881 L 119.234,-68.8713 L 119.036,-68.9802 L 118.853,-69.1131
 L 118.688,-69.2678 L 118.544,-69.442 L 118.423,-69.6329 L 118.326,-69.8374 L 118.257,-70.0524 L 118.214,-70.2744
 L 118.2,-70.5 L 118.214,-70.7256 L 118.257,-70.9476 L 118.326,-71.1626 L 118.423,-71.3672 L 118.544,-71.558
 L 118.688,-71.7322 L 118.853,-71.8869 L 119.036,-72.0198 L 119.234,-72.1287 L 119.444,-72.2119 L 119.663,-72.2681
 L 119.887,-72.2964 L 120.113,-72.2964 L 120.337,-72.2681 L 120.556,-72.2119 L 120.766,-72.1287 L 120.964,-72.0198
 L 121.147,-71.8869 L 121.312,-71.7322 L 121.456,-71.558 L 121.577,-71.3672 L 121.674,-71.1626 L 121.743,-70.9476
 L 121.786,-70.7256 L 121.8,-70.5 L 121.786,-70.2744 L 121.743,-70.0524 L 121.674,-69.8374 L 121.577,-69.6329
 L 121.456,-69.442 L 121.312,-69.2678 L 121.147,-69.1131 L 120.964,-68.9802 L 120.766,-68.8713 L 120.556,-68.7881
 L 120.337,-68.7319 L 120.113,-68.7036 z
" stroke="black" fill="lightgray" stroke-width="0.5"/>
</svg>
