<?xml version="1.0" standalone="no"?>
<!DOCTYPE svg PUBLIC "-//W3C//DTD SVG 1.1//EN" "http://www.w3.org/Graphics/SVG/1.1/DTD/svg11.dtd">
<svg width="94mm" height="44mm" viewBox="-22 -22 94 44" xmlns="http://www.w3.org/2000/svg" version="1.1">
<title>OpenSCAD Model</title>
<path d="
M 54.1224,21.6103 L 56.7984,20.9232 L 59.3671,19.9062 L 61.7882,18.5752 L 64.0233,16.9513 L 66.0373,15.06
 L 67.7984,12.9313 L 69.2787,10.5986 L 70.4551,8.09874 L 71.3088,5.47118 L 71.8265,2.75732 L 72,-0
 L 71.8265,-2.75732 L 71.3088,-5.47118 L 70.4551,-8.09874 L 69.2787,-10.5986 L 67.7984,-12.9313 L 66.0373,-15.06
 L 64.0233,-16.9513 L 61.7882,-18.5752 L 59.3671,-19.9062 L 56.7984,-20.9232 L 54.1224,-21.6103 L 51.3814,-21.9566
 L 48.6186,-21.9566 L 45.8776,-21.6103 L 43.2016,-20.9232 L 40.6329,-19.9062 L 38.2118,-18.5752 L 35.9767,-16.9513
 L 33.9627,-15.06 L 32.2016,-12.9313 L 30.7213,-10.5986 L 29.5449,-8.09874 L 28.6912,-5.47118 L 28.1735,-2.75732
 L 28,-0 L 28.1735,2.75732 L 28.6912,5.47118 L 29.5449,8.09874 L 30.7213,10.5986 L 32.2016,12.9313
 L 33.9627,15.06 L 35.9767,16.9513 L 38.2118,18.5752 L 40.6329,19.9062 L 43.2016,20.9232 L 45.8776,21.6103
 L 48.6186,21.9566 L 51.3814,21.9566 z
M 49.8116,-12.0059 L 49.4379,-12.0531 L 49.0729,-12.1468 L 48.7227,-12.2855 L 48.3925,-12.467 L 48.0877,-12.6884
 L 47.8131,-12.9464 L 47.5729,-13.2366 L 47.3711,-13.5547 L 47.2107,-13.8956 L 47.0942,-14.2539 L 47.0237,-14.624
 L 47,-15 L 47.0237,-15.376 L 47.0942,-15.7461 L 47.2107,-16.1044 L 47.3711,-16.4453 L 47.5729,-16.7634
 L 47.8131,-17.0536 L 48.0877,-17.3115 L 48.3925,-17.533 L 48.7227,-17.7145 L 49.0729,-17.8532 L 49.4379,-17.9469
 L 49.8116,-17.9941 L 50.1884,-17.9941 L 50.5621,-17.9469 L 50.927,-17.8532 L 51.2773,-17.7145 L 51.6075,-17.533
 L 51.9123,-17.3115 L 52.1869,-17.0536 L 52.427,-16.7634 L 52.6289,-16.4453 L 52.7893,-16.1044 L 52.9057,-15.7461
 L 52.9763,-15.376 L 53,-15 L 52.9763,-14.624 L 52.9057,-14.2539 L 52.7893,-13.8956 L 52.6289,-13.5547
 L 52.427,-13.2366 L 52.1869,-12.9464 L 51.9123,-12.6884 L 51.6075,-12.467 L 51.2773,-12.2855 L 50.927,-12.1468
 L 50.5621,-12.0531 L 50.1884,-12.0059 z
M 55.9133,-12.2517 L 54.3265,-15 L 55.9133,-17.7483 L 59.0867,-17.7483 L 60.6735,-15 L 59.0867,-12.2517
 z
M 34.8494,-5.7063 L 34.6257,-5.73933 L 34.408,-5.80011 L 34.1996,-5.88771 L 34.0039,-6.00073 L 33.8238,-6.13741
 L 33.6623,-6.29556 L 33.5219,-6.4727 L 33.4048,-6.66606 L 33.3129,-6.87256 L 33.2476,-7.08896 L 33.2099,-7.31184
 L 33.2004,-7.53769 L 33.2193,-7.76294 L 33.2663,-7.98405 L 33.3406,-8.19753 L 33.4411,-8.39999 L 33.5662,-8.58827
 L 33.7139,-8.75938 L 33.8819,-8.91064 L 34.0676,-9.03964 L 34.2679,-9.14438 L 34.4797,-9.22318 L 34.6998,-9.27478
 L 34.9246,-9.29842 L 35.1506,-9.29369 L 35.3742,-9.26067 L 35.5919,-9.19987 L 35.8003,-9.11227 L 35.9961,-8.99925
 L 36.1761,-8.86258 L 36.3377,-8.70442 L 36.4781,-8.52728 L 36.5952,-8.33392 L 36.6871,-8.12743 L 36.7524,-7.91103
 L 36.7901,-7.68814 L 36.7996,-7.4623 L 36.7807,-7.23705 L 36.7337,-7.01593 L 36.6593,-6.80246 L 36.5588,-6.59999
 L 36.4337,-6.41171 L 36.286,-6.2406 L 36.1181,-6.08934 L 35.9324,-5.96034 L 35.7321,-5.85561 L 35.5202,-5.77682
 L 35.3002,-5.7252 L 35.0754,-5.70157 z
M 49.4663,8.48322 L 48.4073,8.34944 L 47.3734,8.08397 L 46.3809,7.69102 L 45.4455,7.17677 L 44.5819,6.54936
 L 43.8038,5.81865 L 43.1234,4.99617 L 42.5514,4.09489 L 42.0969,3.12904 L 41.767,2.11386 L 41.567,1.06532
 L 41.5,-0 L 41.567,-1.06532 L 41.767,-2.11386 L 42.0969,-3.12904 L 42.5514,-4.09489 L 43.1234,-4.99617
 L 43.8038,-5.81865 L 44.5819,-6.54936 L 45.4455,-7.17677 L 46.3809,-7.69102 L 47.3734,-8.08397 L 48.4073,-8.34944
 L 49.4663,-8.48322 L 50.5337,-8.48322 L 51.5927,-8.34944 L 52.6266,-8.08397 L 53.6191,-7.69102 L 54.5545,-7.17677
 L 55.4181,-6.54936 L 56.1962,-5.81865 L 56.8766,-4.99617 L 57.4486,-4.09489 L 57.9031,-3.12904 L 58.233,-2.11386
 L 58.433,-1.06532 L 58.5,-0 L 58.433,1.06532 L 58.233,2.11386 L 57.9031,3.12904 L 57.4486,4.09489
 L 56.8766,4.99617 L 56.1962,5.81865 L 55.4181,6.54936 L 54.5545,7.17677 L 53.6191,7.69102 L 52.6266,8.08397
 L 51.5927,8.34944 L 50.5337,8.48322 z
M 34.8116,2.99408 L 34.4379,2.94685 L 34.0729,2.85316 L 33.7227,2.71448 L 33.3925,2.53297 L 33.0877,2.31154
 L 32.8131,2.05363 L 32.5729,1.76335 L 32.3711,1.44525 L 32.2107,1.10437 L 32.0942,0.746063 L 32.0237,0.375992
 L 32,-0 L 32.0237,-0.375992 L 32.0942,-0.746063 L 32.2107,-1.10437 L 32.3711,-1.44525 L 32.5729,-1.76335
 L 32.8131,-2.05363 L 33.0877,-2.31154 L 33.3925,-2.53297 L 33.7227,-2.71448 L 34.0729,-2.85316 L 34.4379,-2.94685
 L 34.8116,-2.99408 L 35.1884,-2.99408 L 35.5621,-2.94685 L 35.927,-2.85316 L 36.2773,-2.71448 L 36.6075,-2.53297
 L 36.9123,-2.31154 L 37.1869,-2.05363 L 37.427,-1.76335 L 37.6289,-1.44525 L 37.7893,-1.10437 L 37.9057,-0.746063
 L 37.9763,-0.375992 L 38,-0 L 37.9763,0.375992 L 37.9057,0.746063 L 37.7893,1.10437 L 37.6289,1.44525
 L 37.427,1.76335 L 37.1869,2.05363 L 36.9123,2.31154 L 36.6075,2.53297 L 36.2773,2.71448 L 35.927,2.85316
 L 35.5621,2.94685 L 35.1884,2.99408 z
M 64.8116,2.99408 L 64.4379,2.94685 L 64.073,2.85316 L 63.7227,2.71448 L 63.3925,2.53297 L 63.0877,2.31154
 L 62.8131,2.05363 L 62.5729,1.76335 L 62.3711,1.44525 L 62.2107,1.10437 L 62.0942,0.746063 L 62.0237,0.375992
 L 62,-0 L 62.0237,-0.375992 L 62.0942,-0.746063 L 62.2107,-1.10437 L 62.3711,-1.44525 L 62.5729,-1.76335
 L 62.8131,-2.05363 L 63.0877,-2.31154 L 63.3925,-2.53297 L 63.7227,-2.71448 L 64.073,-2.85316 L 64.4379,-2.94685
 L 64.8116,-2.99408 L 65.1884,-2.99408 L 65.5621,-2.94685 L 65.927,-2.85316 L 66.2773,-2.71448 L 66.6075,-2.53297
 L 66.9123,-2.31154 L 67.1869,-2.05363 L 67.427,-1.76335 L 67.6289,-1.44525 L 67.7893,-1.10437 L 67.9057,-0.746063
 L 67.9763,-0.375992 L 68,-0 L 67.9763,0.375992 L 67.9057,0.746063 L 67.7893,1.10437 L 67.6289,1.44525
 L 67.427,1.76335 L 67.1869,2.05363 L 66.9123,2.31154 L 66.6075,2.53297 L 66.2773,2.71448 L 65.927,2.85316
 L 65.5621,2.94685 L 65.1884,2.99408 z
M 64.8494,9.29369 L 64.6257,9.26067 L 64.408,9.19987 L 64.1996,9.11227 L 64.0039,8.99925 L 63.8238,8.86258
 L 63.6623,8.70442 L 63.5219,8.52728 L 63.4048,8.33392 L 63.3129,8.12743 L 63.2476,7.91103 L 63.2099,7.68814
 L 63.2004,7.4623 L 63.2193,7.23705 L 63.2663,7.01593 L 63.3406,6.80246 L 63.4411,6.59999 L 63.5662,6.41171
 L 63.7139,6.2406 L 63.8819,6.08934 L 64.0676,5.96034 L 64.2679,5.85561 L 64.4797,5.77682 L 64.6998,5.7252
 L 64.9246,5.70157 L 65.1506,5.7063 L 65.3742,5.73933 L 65.5919,5.80011 L 65.8003,5.88771 L 65.9961,6.00073
 L 66.1761,6.13741 L 66.3377,6.29556 L 66.4781,6.4727 L 66.5952,6.66606 L 66.6871,6.87256 L 66.7524,7.08896
 L 66.7901,7.31184 L 66.7996,7.53769 L 66.7807,7.76294 L 66.7337,7.98405 L 66.6593,8.19753 L 66.5588,8.39999
 L 66.4337,8.58827 L 66.286,8.75938 L 66.1181,8.91064 L 65.9324,9.03964 L 65.7321,9.14438 L 65.5202,9.22318
 L 65.3002,9.27478 L 65.0754,9.29842 z
M 49.8116,17.9941 L 49.4379,17.9469 L 49.0729,17.8532 L 48.7227,17.7145 L 48.3925,17.533 L 48.0877,17.3115
 L 47.8131,17.0536 L 47.5729,16.7634 L 47.3711,16.4453 L 47.2107,16.1044 L 47.0942,15.7461 L 47.0237,15.376
 L 47,15 L 47.0237,14.624 L 47.0942,14.2539 L 47.2107,13.8956 L 47.3711,13.5547 L 47.5729,13.2366
 L 47.8131,12.9464 L 48.0877,12.6884 L 48.3925,12.467 L 48.7227,12.2855 L 49.0729,12.1468 L 49.4379,12.0531
 L 49.8116,12.0059 L 50.1884,12.0059 L 50.5621,12.0531 L 50.927,12.1468 L 51.2773,12.2855 L 51.6075,12.467
 L 51.9123,12.6884 L 52.1869,12.9464 L 52.427,13.2366 L 52.6289,13.5547 L 52.7893,13.8956 L 52.9057,14.2539
 L 52.9763,14.624 L 53,15 L 52.9763,15.376 L 52.9057,15.7461 L 52.7893,16.1044 L 52.6289,16.4453
 L 52.427,16.7634 L 52.1869,17.0536 L 51.9123,17.3115 L 51.6075,17.533 L 51.2773,17.7145 L 50.927,17.8532
 L 50.5621,17.9469 L 50.1884,17.9941 z
M 40.9133,17.7483 L 39.3265,15 L 40.9133,12.2517 L 44.0867,12.2517 L 45.6735,15 L 44.0867,17.7483
 z
M 4.12238,21.6103 L 6.79837,20.9232 L 9.36714,19.9062 L 11.7882,18.5752 L 14.0233,16.9513 L 16.0373,15.06
 L 17.7984,12.9313 L 19.2787,10.5986 L 20.4551,8.09874 L 21.3088,5.47118 L 21.8265,2.75732 L 22,-0
 L 21.8265,-2.75732 L 21.3088,-5.47118 L 20.4551,-8.09874 L 19.2787,-10.5986 L 17.7984,-12.9313 L 16.0373,-15.06
 L 14.0233,-16.9513 L 11.7882,-18.5752 L 9.36714,-19.9062 L 6.79837,-20.9232 L 4.12238,-21.6103 L 1.38138,-21.9566
 L -1.38138,-21.9566 L -4.12238,-21.6103 L -6.79837,-20.9232 L -9.36714,-19.9062 L -11.7882,-18.5752 L -14.0233,-16.9513
 L -16.0373,-15.06 L -17.7984,-12.9313 L -19.2787,-10.5986 L -20.4551,-8.09874 L -21.3088,-5.47118 L -21.8265,-2.75732
 L -22,-0 L -21.8265,2.75732 L -21.3088,5.47118 L -20.4551,8.09874 L -19.2787,10.5986 L -17.7984,12.9313
 L -16.0373,15.06 L -14.0233,16.9513 L -11.7882,18.5752 L -9.36714,19.9062 L -6.79837,20.9232 L -4.12238,21.6103
 L -1.38138,21.9566 L 1.38138,21.9566 z
M -0.18837,-12.0059 L -0.562134,-12.0531 L -0.927048,-12.1468 L -1.27733,-12.2855 L -1.60747,-12.467 L -1.91226,-12.6884
 L -2.1869,-12.9464 L -2.42705,-13.2366 L -2.62891,-13.5547 L -2.78932,-13.8956 L -2.90575,-14.2539 L -2.97633,-14.624
 L -3,-15 L -2.97633,-15.376 L -2.90575,-15.7461 L -2.78932,-16.1044 L -2.62891,-16.4453 L -2.42705,-16.7634
 L -2.1869,-17.0536 L -1.91226,-17.3115 L -1.60747,-17.533 L -1.27733,-17.7145 L -0.927048,-17.8532 L -0.562134,-17.9469
 L -0.18837,-17.9941 L 0.18837,-17.9941 L 0.562134,-17.9469 L 0.927048,-17.8532 L 1.27733,-17.7145 L 1.60747,-17.533
 L 1.91226,-17.3115 L 2.1869,-17.0536 L 2.42705,-16.7634 L 2.62891,-16.4453 L 2.78932,-16.1044 L 2.90575,-15.7461
 L 2.97633,-15.376 L 3,-15 L 2.97633,-14.624 L 2.90575,-14.2539 L 2.78932,-13.8956 L 2.62891,-13.5547
 L 2.42705,-13.2366 L 2.1869,-12.9464 L 1.91226,-12.6884 L 1.60747,-12.467 L 1.27733,-12.2855 L 0.927048,-12.1468
 L 0.562134,-12.0531 L 0.18837,-12.0059 z
M -7.61302,-13.2036 L -7.83728,-13.2319 L -8.05623,-13.2881 L -8.26639,-13.3713 L -8.46448,-13.4802 L -8.64735,-13.6131
 L -8.81213,-13.7678 L -8.95622,-13.942 L -9.07735,-14.1328 L -9.17358,-14.3374 L -9.24344,-14.5524 L -9.2858,-14.7744
 L -9.29999,-15 L -9.2858,-15.2256 L -9.24344,-15.4476 L -9.17358,-15.6626 L -9.07735,-15.8671 L -8.95622,-16.058
 L -8.81213,-16.2322 L -8.64735,-16.3869 L -8.46448,-16.5198 L -8.26639,-16.6287 L -8.05623,-16.7119 L -7.83728,-16.7681
 L -7.61302,-16.7964 L -7.38696,-16.7964 L -7.1627,-16.7681 L -6.94376,-16.7119 L -6.7336,-16.6287 L -6.53551,-16.5198
 L -6.35263,-16.3869 L -6.18785,-16.2322 L -6.04376,-16.058 L -5.92264,-15.8671 L -5.8264,-15.6626 L -5.75655,-15.4476
 L -5.71419,-15.2256 L -5.7,-15 L -5.71419,-14.7744 L -5.75655,-14.5524 L -5.8264,-14.3374 L -5.92264,-14.1328
 L -6.04376,-13.942 L -6.18785,-13.7678 L -6.35263,-13.6131 L -6.53551,-13.4802 L -6.7336,-13.3713 L -6.94376,-13.2881
 L -7.1627,-13.2319 L -7.38696,-13.2036 z
M 12.2517,-5.91325 L 12.2517,-9.08673 L 15,-10.6735 L 17.7483,-9.08675 L 17.7483,-5.91325 L 15,-4.32651
 z
M -0.533707,8.48322 L -1.59273,8.34944 L -2.62663,8.08397 L -3.61911,7.69102 L -4.55452,7.17677 L -5.41809,6.54936
 L -6.19623,5.81865 L -6.87663,4.99617 L -7.44859,4.09489 L -7.90309,3.12904 L -8.23296,2.11386 L -8.43297,1.06532
 L -8.5,-0 L -8.43297,-1.06532 L -8.23296,-2.11386 L -7.90309,-3.12904 L -7.44859,-4.09489 L -6.87663,-4.99617
 L -6.19623,-5.81865 L -5.41809,-6.54936 L -4.55452,-7.17677 L -3.61911,-7.69102 L -2.62663,-8.08397 L -1.59273,-8.34944
 L -0.533707,-8.48322 L 0.533707,-8.48322 L 1.59273,-8.34944 L 2.62663,-8.08397 L 3.61911,-7.69102 L 4.55452,-7.17677
 L 5.41809,-6.54936 L 6.19623,-5.81865 L 6.87663,-4.99617 L 7.44859,-4.09489 L 7.90309,-3.12904 L 8.23296,-2.11386
 L 8.43297,-1.06532 L 8.5,-0 L 8.43297,1.06532 L 8.23296,2.11386 L 7.90309,3.12904 L 7.44859,4.09489
 L 6.87663,4.99617 L 6.19623,5.81865 L 5.41809,6.54936 L 4.55452,7.17677 L 3.61911,7.69102 L 2.62663,8.08397
 L 1.59273,8.34944 L 0.533707,8.48322 z
M 14.8116,2.99408 L 14.4379,2.94685 L 14.0729,2.85316 L 13.7227,2.71448 L 13.3925,2.53297 L 13.0877,2.31154
 L 12.8131,2.05363 L 12.5729,1.76335 L 12.3711,1.44525 L 12.2107,1.10437 L 12.0942,0.746063 L 12.0237,0.375992
 L 12,-0 L 12.0237,-0.375992 L 12.0942,-0.746063 L 12.2107,-1.10437 L 12.3711,-1.44525 L 12.5729,-1.76335
 L 12.8131,-2.05363 L 13.0877,-2.31154 L 13.3925,-2.53297 L 13.7227,-2.71448 L 14.0729,-2.85316 L 14.4379,-2.94685
 L 14.8116,-2.99408 L 15.1884,-2.99408 L 15.5621,-2.94685 L 15.927,-2.85316 L 16.2773,-2.71448 L 16.6075,-2.53297
 L 16.9123,-2.31154 L 17.1869,-2.05363 L 17.427,-1.76335 L 17.6289,-1.44525 L 17.7893,-1.10437 L 17.9057,-0.746063
 L 17.9763,-0.375992 L 18,-0 L 17.9763,0.375992 L 17.9057,0.746063 L 17.7893,1.10437 L 17.6289,1.44525
 L 17.427,1.76335 L 17.1869,2.05363 L 16.9123,2.31154 L 16.6075,2.53297 L 16.2773,2.71448 L 15.927,2.85316
 L 15.5621,2.94685 L 15.1884,2.99408 z
M -15.1884,2.99408 L -15.5621,2.94685 L -15.927,2.85316 L -16.2773,2.71448 L -16.6075,2.53297 L -16.9123,2.31154
 L -17.1869,2.05363 L -17.427,1.76335 L -17.6289,1.44525 L -17.7893,1.10437 L -17.9057,0.746063 L -17.9763,0.375992
 L -18,-0 L -17.9763,-0.375992 L -17.9057,-0.746063 L -17.7893,-1.10437 L -17.6289,-1.44525 L -17.427,-1.76335
 L -17.1869,-2.05363 L -16.9123,-2.31154 L -16.6075,-2.53297 L -16.2773,-2.71448 L -15.927,-2.85316 L -15.5621,-2.94685
 L -15.1884,-2.99408 L -14.8116,-2.99408 L -14.4379,-2.94685 L -14.0729,-2.85316 L -13.7227,-2.71448 L -13.3925,-2.53297
 L -13.0877,-2.31154 L -12.8131,-2.05363 L -12.5729,-1.76335 L -12.3711,-1.44525 L -12.2107,-1.10437 L -12.0942,-0.746063
 L -12.0237,-0.375992 L -12,-0 L -12.0237,0.375992 L -12.0942,0.746063 L -12.2107,1.10437 L -12.3711,1.44525
 L -12.5729,1.76335 L -12.8131,2.05363 L -13.0877,2.31154 L -13.3925,2.53297 L -13.7227,2.71448 L -14.0729,2.85316
 L -14.4379,2.94685 L -14.8116,2.99408 z
M -17.7483,9.08675 L -17.7483,5.91325 L -15,4.32651 L -12.2517,5.91325 L -12.2517,9.08673 L -15,10.6735
 z
M -0.18837,17.9941 L -0.562134,17.9469 L -0.927048,17.8532 L -1.27733,17.7145 L -1.60747,17.533 L -1.91226,17.3115
 L -2.1869,17.0536 L -2.42705,16.7634 L -2.62891,16.4453 L -2.78932,16.1044 L -2.90575,15.7461 L -2.97633,15.376
 L -3,15 L -2.97633,14.624 L -2.90575,14.2539 L -2.78932,13.8956 L -2.62891,13.5547 L -2.42705,13.2366
 L -2.1869,12.9464 L -1.91226,12.6884 L -1.60747,12.467 L -1.27733,12.2855 L -0.927048,12.1468 L -0.562134,12.0531
 L -0.18837,12.0059 L 0.18837,12.0059 L 0.562134,12.0531 L 0.927048,12.1468 L 1.27733,12.2855 L 1.60747,12.467
 L 1.91226,12.6884 L 2.1869,12.9464 L 2.42705,13.2366 L 2.62891,13.5547 L 2.78932,13.8956 L 2.90575,14.2539
 L 2.97633,14.624 L 3,15 L 2.97633,15.376 L 2.90575,15.7461 L 2.78932,16.1044 L 2.62891,16.4453
 L 2.42705,16.7634 L 2.1869,17.0536 L 1.91226,17.3115 L 1.60747,17.533 L 1.27733,17.7145 L 0.927048,17.8532
 L 0.562134,17.9469 L 0.18837,17.9941 z
M 7.38696,16.7964 L 7.1627,16.7681 L 6.94376,16.7119 L 6.7336,16.6287 L 6.53551,16.5198 L 6.35263,16.3869
 L 6.18785,16.2322 L 6.04376,16.058 L 5.92264,15.8671 L 5.8264,15.6626 L 5.75655,15.4476 L 5.71419,15.2256
 L 5.7,15 L 5.71419,14.7744 L 5.75655,14.5524 L 5.8264,14.3374 L 5.92264,14.1328 L 6.04376,13.942
 L 6.18785,13.7678 L 6.35263,13.6131 L 6.53551,13.4802 L 6.7336,13.3713 L 6.94376,13.2881 L 7.1627,13.2319
 L 7.38696,13.2036 L 7.61302,13.2036 L 7.83728,13.2319 L 8.05623,13.2881 L 8.26639,13.3713 L 8.46448,13.4802
 L 8.64735,13.6131 L 8.81213,13.7678 L 8.95622,13.942 L 9.07735,14.1328 L 9.17358,14.3374 L 9.24344,14.5524
 L 9.2858,14.7744 L 9.29999,15 L 9.2858,15.2256 L 9.24344,15.4476 L 9.17358,15.6626 L 9.07735,15.8671
 L 8.95622,16.058 L 8.81213,16.2322 L 8.64735,16.3869 L 8.46448,16.5198 L 8.26639,16.6287 L 8.05623,16.7119
 L 7.83728,16.7681 L 7.61302,16.7964 z
" stroke="black" fill="lightgray" stroke-width="0.5"/>
</svg>
