<?xml version="1.0" standalone="no"?>
<!DOCTYPE svg PUBLIC "-//W3C//DTD SVG 1.1//EN" "http://www.w3.org/Graphics/SVG/1.1/DTD/svg11.dtd">
<svg width="257mm" height="352mm" viewBox="-129 -704 257 352" xmlns="http://www.w3.org/2000/svg" version="1.1">
<title>OpenSCAD Model</title>
<path d="
M 123.437,-688.589 L 124.045,-688.745 L 124.629,-688.976 L 125.179,-689.278 L 125.687,-689.647 L 126.145,-690.077
 L 126.545,-690.561 L 126.882,-691.091 L 127.149,-691.659 L 127.343,-692.257 L 127.461,-692.873 L 127.5,-693.5
 L 127.5,-698.5 L 127.461,-699.127 L 127.343,-699.743 L 127.149,-700.341 L 126.882,-700.909 L 126.545,-701.439
 L 126.145,-701.923 L 125.687,-702.353 L 125.179,-702.722 L 124.629,-703.024 L 124.045,-703.255 L 123.437,-703.411
 L 122.814,-703.49 L -122.814,-703.49 L -123.437,-703.411 L -124.045,-703.255 L -124.629,-703.024 L -125.179,-702.722
 L -125.687,-702.353 L -126.145,-701.923 L -126.545,-701.439 L -126.882,-700.909 L -127.149,-700.341 L -127.343,-699.743
 L -127.461,-699.127 L -127.5,-698.5 L -127.5,-693.5 L -127.461,-692.873 L -127.343,-692.257 L -127.149,-691.659
 L -126.882,-691.091 L -126.545,-690.561 L -126.145,-690.077 L -125.687,-689.647 L -125.179,-689.278 L -124.629,-688.976
 L -124.045,-688.745 L -123.437,-688.589 L -122.814,-688.51 L 122.814,-688.51 z
M -122.251,-690.008 L -122.75,-690.071 L -123.236,-690.196 L -123.703,-690.381 L -124.143,-690.623 L -124.55,-690.918
 L -124.916,-691.262 L -125.236,-691.649 L -125.505,-692.073 L -125.719,-692.528 L -125.874,-693.005 L -125.968,-693.499
 L -126,-694 L -126,-698 L -125.968,-698.501 L -125.874,-698.995 L -125.719,-699.472 L -125.505,-699.927
 L -125.236,-700.351 L -124.916,-700.738 L -124.55,-701.082 L -124.143,-701.377 L -123.703,-701.619 L -123.236,-701.804
 L -122.75,-701.929 L -122.251,-701.992 L 122.251,-701.992 L 122.75,-701.929 L 123.236,-701.804 L 123.703,-701.619
 L 124.143,-701.377 L 124.55,-701.082 L 124.916,-700.738 L 125.236,-700.351 L 125.505,-699.927 L 125.719,-699.472
 L 125.874,-698.995 L 125.968,-698.501 L 126,-698 L 126,-694 L 125.968,-693.499 L 125.874,-693.005
 L 125.719,-692.528 L 125.505,-692.073 L 125.236,-691.649 L 124.916,-691.262 L 124.55,-690.918 L 124.143,-690.623
 L 123.703,-690.381 L 123.236,-690.196 L 122.75,-690.071 L 122.251,-690.008 z
M 123.437,-664.589 L 124.045,-664.745 L 124.629,-664.976 L 125.179,-665.278 L 125.687,-665.647 L 126.145,-666.077
 L 126.545,-666.561 L 126.882,-667.091 L 127.149,-667.659 L 127.343,-668.257 L 127.461,-668.873 L 127.5,-669.5
 L 127.5,-674.5 L 127.461,-675.127 L 127.343,-675.743 L 127.149,-676.341 L 126.882,-676.909 L 126.545,-677.439
 L 126.145,-677.923 L 125.687,-678.353 L 125.179,-678.722 L 124.629,-679.024 L 124.045,-679.255 L 123.437,-679.411
 L 122.814,-679.49 L -122.814,-679.49 L -123.437,-679.411 L -124.045,-679.255 L -124.629,-679.024 L -125.179,-678.722
 L -125.687,-678.353 L -126.145,-677.923 L -126.545,-677.439 L -126.882,-676.909 L -127.149,-676.341 L -127.343,-675.743
 L -127.461,-675.127 L -127.5,-674.5 L -127.5,-669.5 L -127.461,-668.873 L -127.343,-668.257 L -127.149,-667.659
 L -126.882,-667.091 L -126.545,-666.561 L -126.145,-666.077 L -125.687,-665.647 L -125.179,-665.278 L -124.629,-664.976
 L -124.045,-664.745 L -123.437,-664.589 L -122.814,-664.51 L 122.814,-664.51 z
M -122.251,-666.008 L -122.75,-666.071 L -123.236,-666.196 L -123.703,-666.381 L -124.143,-666.623 L -124.55,-666.918
 L -124.916,-667.262 L -125.236,-667.649 L -125.505,-668.073 L -125.719,-668.528 L -125.874,-669.005 L -125.968,-669.499
 L -126,-670 L -126,-674 L -125.968,-674.501 L -125.874,-674.995 L -125.719,-675.472 L -125.505,-675.927
 L -125.236,-676.351 L -124.916,-676.738 L -124.55,-677.082 L -124.143,-677.377 L -123.703,-677.619 L -123.236,-677.804
 L -122.75,-677.929 L -122.251,-677.992 L 122.251,-677.992 L 122.75,-677.929 L 123.236,-677.804 L 123.703,-677.619
 L 124.143,-677.377 L 124.55,-677.082 L 124.916,-676.738 L 125.236,-676.351 L 125.505,-675.927 L 125.719,-675.472
 L 125.874,-674.995 L 125.968,-674.501 L 126,-674 L 126,-670 L 125.968,-669.499 L 125.874,-669.005
 L 125.719,-668.528 L 125.505,-668.073 L 125.236,-667.649 L 124.916,-667.262 L 124.55,-666.918 L 124.143,-666.623
 L 123.703,-666.381 L 123.236,-666.196 L 122.75,-666.071 L 122.251,-666.008 z
M 123.437,-640.589 L 124.045,-640.745 L 124.629,-640.976 L 125.179,-641.278 L 125.687,-641.647 L 126.145,-642.077
 L 126.545,-642.561 L 126.882,-643.091 L 127.149,-643.659 L 127.343,-644.257 L 127.461,-644.873 L 127.5,-645.5
 L 127.5,-650.5 L 127.461,-651.127 L 127.343,-651.743 L 127.149,-652.341 L 126.882,-652.909 L 126.545,-653.439
 L 126.145,-653.923 L 125.687,-654.353 L 125.179,-654.722 L 124.629,-655.024 L 124.045,-655.255 L 123.437,-655.411
 L 122.814,-655.49 L -122.814,-655.49 L -123.437,-655.411 L -124.045,-655.255 L -124.629,-655.024 L -125.179,-654.722
 L -125.687,-654.353 L -126.145,-653.923 L -126.545,-653.439 L -126.882,-652.909 L -127.149,-652.341 L -127.343,-651.743
 L -127.461,-651.127 L -127.5,-650.5 L -127.5,-645.5 L -127.461,-644.873 L -127.343,-644.257 L -127.149,-643.659
 L -126.882,-643.091 L -126.545,-642.561 L -126.145,-642.077 L -125.687,-641.647 L -125.179,-641.278 L -124.629,-640.976
 L -124.045,-640.745 L -123.437,-640.589 L -122.814,-640.51 L 122.814,-640.51 z
M -122.251,-642.008 L -122.75,-642.071 L -123.236,-642.196 L -123.703,-642.381 L -124.143,-642.623 L -124.55,-642.918
 L -124.916,-643.262 L -125.236,-643.649 L -125.505,-644.073 L -125.719,-644.528 L -125.874,-645.005 L -125.968,-645.499
 L -126,-646 L -126,-650 L -125.968,-650.501 L -125.874,-650.995 L -125.719,-651.472 L -125.505,-651.927
 L -125.236,-652.351 L -124.916,-652.738 L -124.55,-653.082 L -124.143,-653.377 L -123.703,-653.619 L -123.236,-653.804
 L -122.75,-653.929 L -122.251,-653.992 L 122.251,-653.992 L 122.75,-653.929 L 123.236,-653.804 L 123.703,-653.619
 L 124.143,-653.377 L 124.55,-653.082 L 124.916,-652.738 L 125.236,-652.351 L 125.505,-651.927 L 125.719,-651.472
 L 125.874,-650.995 L 125.968,-650.501 L 126,-650 L 126,-646 L 125.968,-645.499 L 125.874,-645.005
 L 125.719,-644.528 L 125.505,-644.073 L 125.236,-643.649 L 124.916,-643.262 L 124.55,-642.918 L 124.143,-642.623
 L 123.703,-642.381 L 123.236,-642.196 L 122.75,-642.071 L 122.251,-642.008 z
M 123.437,-616.589 L 124.045,-616.745 L 124.629,-616.976 L 125.179,-617.278 L 125.687,-617.647 L 126.145,-618.077
 L 126.545,-618.561 L 126.882,-619.091 L 127.149,-619.659 L 127.343,-620.257 L 127.461,-620.873 L 127.5,-621.5
 L 127.5,-626.5 L 127.461,-627.127 L 127.343,-627.743 L 127.149,-628.341 L 126.882,-628.909 L 126.545,-629.439
 L 126.145,-629.923 L 125.687,-630.353 L 125.179,-630.722 L 124.629,-631.024 L 124.045,-631.255 L 123.437,-631.411
 L 122.814,-631.49 L -122.814,-631.49 L -123.437,-631.411 L -124.045,-631.255 L -124.629,-631.024 L -125.179,-630.722
 L -125.687,-630.353 L -126.145,-629.923 L -126.545,-629.439 L -126.882,-628.909 L -127.149,-628.341 L -127.343,-627.743
 L -127.461,-627.127 L -127.5,-626.5 L -127.5,-621.5 L -127.461,-620.873 L -127.343,-620.257 L -127.149,-619.659
 L -126.882,-619.091 L -126.545,-618.561 L -126.145,-618.077 L -125.687,-617.647 L -125.179,-617.278 L -124.629,-616.976
 L -124.045,-616.745 L -123.437,-616.589 L -122.814,-616.51 L 122.814,-616.51 z
M -122.251,-618.008 L -122.75,-618.071 L -123.236,-618.196 L -123.703,-618.381 L -124.143,-618.623 L -124.55,-618.918
 L -124.916,-619.262 L -125.236,-619.649 L -125.505,-620.073 L -125.719,-620.528 L -125.874,-621.005 L -125.968,-621.499
 L -126,-622 L -126,-626 L -125.968,-626.501 L -125.874,-626.995 L -125.719,-627.472 L -125.505,-627.927
 L -125.236,-628.351 L -124.916,-628.738 L -124.55,-629.082 L -124.143,-629.377 L -123.703,-629.619 L -123.236,-629.804
 L -122.75,-629.929 L -122.251,-629.992 L 122.251,-629.992 L 122.75,-629.929 L 123.236,-629.804 L 123.703,-629.619
 L 124.143,-629.377 L 124.55,-629.082 L 124.916,-628.738 L 125.236,-628.351 L 125.505,-627.927 L 125.719,-627.472
 L 125.874,-626.995 L 125.968,-626.501 L 126,-626 L 126,-622 L 125.968,-621.499 L 125.874,-621.005
 L 125.719,-620.528 L 125.505,-620.073 L 125.236,-619.649 L 124.916,-619.262 L 124.55,-618.918 L 124.143,-618.623
 L 123.703,-618.381 L 123.236,-618.196 L 122.75,-618.071 L 122.251,-618.008 z
M 123.437,-592.589 L 124.045,-592.745 L 124.629,-592.976 L 125.179,-593.278 L 125.687,-593.647 L 126.145,-594.077
 L 126.545,-594.561 L 126.882,-595.091 L 127.149,-595.659 L 127.343,-596.257 L 127.461,-596.873 L 127.5,-597.5
 L 127.5,-602.5 L 127.461,-603.127 L 127.343,-603.743 L 127.149,-604.341 L 126.882,-604.909 L 126.545,-605.439
 L 126.145,-605.923 L 125.687,-606.353 L 125.179,-606.722 L 124.629,-607.024 L 124.045,-607.255 L 123.437,-607.411
 L 122.814,-607.49 L -122.814,-607.49 L -123.437,-607.411 L -124.045,-607.255 L -124.629,-607.024 L -125.179,-606.722
 L -125.687,-606.353 L -126.145,-605.923 L -126.545,-605.439 L -126.882,-604.909 L -127.149,-604.341 L -127.343,-603.743
 L -127.461,-603.127 L -127.5,-602.5 L -127.5,-597.5 L -127.461,-596.873 L -127.343,-596.257 L -127.149,-595.659
 L -126.882,-595.091 L -126.545,-594.561 L -126.145,-594.077 L -125.687,-593.647 L -125.179,-593.278 L -124.629,-592.976
 L -124.045,-592.745 L -123.437,-592.589 L -122.814,-592.51 L 122.814,-592.51 z
M -122.251,-594.008 L -122.75,-594.071 L -123.236,-594.196 L -123.703,-594.381 L -124.143,-594.623 L -124.55,-594.918
 L -124.916,-595.262 L -125.236,-595.649 L -125.505,-596.073 L -125.719,-596.528 L -125.874,-597.005 L -125.968,-597.499
 L -126,-598 L -126,-602 L -125.968,-602.501 L -125.874,-602.995 L -125.719,-603.472 L -125.505,-603.927
 L -125.236,-604.351 L -124.916,-604.738 L -124.55,-605.082 L -124.143,-605.377 L -123.703,-605.619 L -123.236,-605.804
 L -122.75,-605.929 L -122.251,-605.992 L 122.251,-605.992 L 122.75,-605.929 L 123.236,-605.804 L 123.703,-605.619
 L 124.143,-605.377 L 124.55,-605.082 L 124.916,-604.738 L 125.236,-604.351 L 125.505,-603.927 L 125.719,-603.472
 L 125.874,-602.995 L 125.968,-602.501 L 126,-602 L 126,-598 L 125.968,-597.499 L 125.874,-597.005
 L 125.719,-596.528 L 125.505,-596.073 L 125.236,-595.649 L 124.916,-595.262 L 124.55,-594.918 L 124.143,-594.623
 L 123.703,-594.381 L 123.236,-594.196 L 122.75,-594.071 L 122.251,-594.008 z
M 123.437,-568.589 L 124.045,-568.745 L 124.629,-568.976 L 125.179,-569.278 L 125.687,-569.647 L 126.145,-570.077
 L 126.545,-570.561 L 126.882,-571.091 L 127.149,-571.659 L 127.343,-572.257 L 127.461,-572.873 L 127.5,-573.5
 L 127.5,-578.5 L 127.461,-579.127 L 127.343,-579.743 L 127.149,-580.341 L 126.882,-580.909 L 126.545,-581.439
 L 126.145,-581.923 L 125.687,-582.353 L 125.179,-582.722 L 124.629,-583.024 L 124.045,-583.255 L 123.437,-583.411
 L 122.814,-583.49 L -122.814,-583.49 L -123.437,-583.411 L -124.045,-583.255 L -124.629,-583.024 L -125.179,-582.722
 L -125.687,-582.353 L -126,-582.059 L -129,-582.059 L -129,-569.941 L -126,-569.941 L -125.687,-569.647
 L -125.179,-569.278 L -124.629,-568.976 L -124.045,-568.745 L -123.437,-568.589 L -122.814,-568.51 L 122.814,-568.51
 z
M -122.251,-570.008 L -122.75,-570.071 L -123.236,-570.196 L -123.703,-570.381 L -124.143,-570.623 L -124.55,-570.918
 L -124.916,-571.262 L -125.236,-571.649 L -125.505,-572.073 L -125.719,-572.528 L -125.874,-573.005 L -125.968,-573.499
 L -126,-574 L -126,-578 L -125.968,-578.501 L -125.874,-578.995 L -125.719,-579.472 L -125.505,-579.927
 L -125.236,-580.351 L -124.916,-580.738 L -124.55,-581.082 L -124.143,-581.377 L -123.703,-581.619 L -123.236,-581.804
 L -122.75,-581.929 L -122.251,-581.992 L 122.251,-581.992 L 122.75,-581.929 L 123.236,-581.804 L 123.703,-581.619
 L 124.143,-581.377 L 124.55,-581.082 L 124.916,-580.738 L 125.236,-580.351 L 125.505,-579.927 L 125.719,-579.472
 L 125.874,-578.995 L 125.968,-578.501 L 126,-578 L 126,-574 L 125.968,-573.499 L 125.874,-573.005
 L 125.719,-572.528 L 125.505,-572.073 L 125.236,-571.649 L 124.916,-571.262 L 124.55,-570.918 L 124.143,-570.623
 L 123.703,-570.381 L 123.236,-570.196 L 122.75,-570.071 L 122.251,-570.008 z
M 123.437,-544.589 L 124.045,-544.745 L 124.629,-544.976 L 125.179,-545.278 L 125.687,-545.647 L 126.145,-546.077
 L 126.545,-546.561 L 126.882,-547.091 L 127.149,-547.659 L 127.343,-548.257 L 127.461,-548.873 L 127.5,-549.5
 L 127.5,-554.5 L 127.461,-555.127 L 127.343,-555.743 L 127.149,-556.341 L 126.882,-556.909 L 126.545,-557.439
 L 126.145,-557.923 L 125.687,-558.353 L 125.179,-558.722 L 124.629,-559.024 L 124.045,-559.255 L 123.437,-559.411
 L 122.814,-559.49 L -122.814,-559.49 L -123.437,-559.411 L -124.045,-559.255 L -124.629,-559.024 L -125.179,-558.722
 L -125.687,-558.353 L -126,-558.059 L -126,-559.467 L -129,-559.467 L -129,-544.533 L -126,-544.533
 L -126,-545.941 L -125.687,-545.647 L -125.179,-545.278 L -124.629,-544.976 L -124.045,-544.745 L -123.437,-544.589
 L -122.814,-544.51 L 122.814,-544.51 z
M -122.251,-546.008 L -122.75,-546.071 L -123.236,-546.196 L -123.703,-546.381 L -124.143,-546.623 L -124.55,-546.918
 L -124.916,-547.262 L -125.236,-547.649 L -125.505,-548.073 L -125.719,-548.528 L -125.874,-549.005 L -125.968,-549.499
 L -126,-550 L -126,-554 L -125.968,-554.501 L -125.874,-554.995 L -125.719,-555.472 L -125.505,-555.927
 L -125.236,-556.351 L -124.916,-556.738 L -124.55,-557.082 L -124.143,-557.377 L -123.703,-557.619 L -123.236,-557.804
 L -122.75,-557.929 L -122.251,-557.992 L 122.251,-557.992 L 122.75,-557.929 L 123.236,-557.804 L 123.703,-557.619
 L 124.143,-557.377 L 124.55,-557.082 L 124.916,-556.738 L 125.236,-556.351 L 125.505,-555.927 L 125.719,-555.472
 L 125.874,-554.995 L 125.968,-554.501 L 126,-554 L 126,-550 L 125.968,-549.499 L 125.874,-549.005
 L 125.719,-548.528 L 125.505,-548.073 L 125.236,-547.649 L 124.916,-547.262 L 124.55,-546.918 L 124.143,-546.623
 L 123.703,-546.381 L 123.236,-546.196 L 122.75,-546.071 L 122.251,-546.008 z
M -126,-521.941 L -125.687,-521.647 L -125.179,-521.278 L -124.629,-520.976 L -124.045,-520.745 L -123.437,-520.589
 L -122.814,-520.51 L 122.814,-520.51 L 123.437,-520.589 L 124.045,-520.745 L 124.629,-520.976 L 125.179,-521.278
 L 125.687,-521.647 L 126.145,-522.077 L 126.545,-522.561 L 126.882,-523.091 L 127.149,-523.659 L 127.343,-524.257
 L 127.461,-524.873 L 127.5,-525.5 L 127.5,-530.5 L 127.461,-531.127 L 127.343,-531.743 L 127.149,-532.341
 L 126.882,-532.909 L 126.545,-533.439 L 126.145,-533.923 L 125.687,-534.353 L 125.179,-534.722 L 124.629,-535.024
 L 124.045,-535.255 L 123.437,-535.411 L 122.814,-535.49 L -122.814,-535.49 L -123.437,-535.411 L -124.045,-535.255
 L -124.629,-535.024 L -125.179,-534.722 L -125.687,-534.353 L -126,-534.059 L -126,-535.49 L -129,-535.49
 L -129,-530.994 L -125.874,-530.994 L -125.874,-530.995 L -125.719,-531.472 L -125.505,-531.927 L -125.236,-532.351
 L -124.916,-532.738 L -124.55,-533.082 L -124.143,-533.377 L -123.703,-533.619 L -123.236,-533.804 L -122.75,-533.929
 L -122.251,-533.992 L 122.251,-533.992 L 122.75,-533.929 L 123.236,-533.804 L 123.703,-533.619 L 124.143,-533.377
 L 124.55,-533.082 L 124.916,-532.738 L 125.236,-532.351 L 125.505,-531.927 L 125.719,-531.472 L 125.874,-530.995
 L 125.968,-530.501 L 126,-530 L 126,-526 L 125.968,-525.499 L 125.874,-525.005 L 125.719,-524.528
 L 125.505,-524.073 L 125.236,-523.649 L 124.916,-523.262 L 124.55,-522.918 L 124.143,-522.623 L 123.703,-522.381
 L 123.236,-522.196 L 122.75,-522.071 L 122.251,-522.008 L -122.251,-522.008 L -122.75,-522.071 L -123.236,-522.196
 L -123.703,-522.381 L -124.143,-522.623 L -124.55,-522.918 L -124.916,-523.262 L -125.236,-523.649 L -125.505,-524.073
 L -125.719,-524.528 L -125.874,-525.005 L -125.874,-525.006 L -129,-525.006 L -129,-520.51 L -126,-520.51
 z
M -126,-497.941 L -125.687,-497.647 L -125.179,-497.278 L -124.629,-496.976 L -124.045,-496.745 L -123.437,-496.589
 L -122.814,-496.51 L 122.814,-496.51 L 123.437,-496.589 L 124.045,-496.745 L 124.629,-496.976 L 125.179,-497.278
 L 125.687,-497.647 L 126.145,-498.077 L 126.545,-498.561 L 126.882,-499.091 L 127.149,-499.659 L 127.343,-500.257
 L 127.461,-500.873 L 127.5,-501.5 L 127.5,-506.5 L 127.461,-507.127 L 127.343,-507.743 L 127.149,-508.341
 L 126.882,-508.909 L 126.545,-509.439 L 126.145,-509.923 L 125.687,-510.353 L 125.179,-510.722 L 124.629,-511.024
 L 124.045,-511.255 L 123.437,-511.411 L 122.814,-511.49 L -122.814,-511.49 L -123.437,-511.411 L -124.045,-511.255
 L -124.629,-511.024 L -125.179,-510.722 L -125.687,-510.353 L -126,-510.059 L -126,-511.49 L -129,-511.49
 L -129,-496.51 L -126,-496.51 z
M -122.251,-498.008 L -122.75,-498.071 L -123.236,-498.196 L -123.703,-498.381 L -124.143,-498.623 L -124.55,-498.918
 L -124.916,-499.262 L -125.236,-499.649 L -125.505,-500.073 L -125.719,-500.528 L -125.874,-501.005 L -125.968,-501.499
 L -126,-502 L -126,-506 L -125.968,-506.501 L -125.874,-506.995 L -125.719,-507.472 L -125.505,-507.927
 L -125.236,-508.351 L -124.916,-508.738 L -124.55,-509.082 L -124.143,-509.377 L -123.703,-509.619 L -123.236,-509.804
 L -122.75,-509.929 L -122.251,-509.992 L 122.251,-509.992 L 122.75,-509.929 L 123.236,-509.804 L 123.703,-509.619
 L 124.143,-509.377 L 124.55,-509.082 L 124.916,-508.738 L 125.236,-508.351 L 125.505,-507.927 L 125.719,-507.472
 L 125.874,-506.995 L 125.968,-506.501 L 126,-506 L 126,-502 L 125.968,-501.499 L 125.874,-501.005
 L 125.719,-500.528 L 125.505,-500.073 L 125.236,-499.649 L 124.916,-499.262 L 124.55,-498.918 L 124.143,-498.623
 L 123.703,-498.381 L 123.236,-498.196 L 122.75,-498.071 L 122.251,-498.008 z
M -126,-473.941 L -125.687,-473.647 L -125.179,-473.278 L -124.629,-472.976 L -124.045,-472.745 L -123.437,-472.589
 L -122.814,-472.51 L 122.814,-472.51 L 123.437,-472.589 L 124.045,-472.745 L 124.629,-472.976 L 125.179,-473.278
 L 125.687,-473.647 L 126.145,-474.077 L 126.545,-474.561 L 126.882,-475.091 L 127.149,-475.659 L 127.343,-476.257
 L 127.461,-476.873 L 127.5,-477.5 L 127.5,-482.5 L 127.461,-483.127 L 127.343,-483.743 L 127.149,-484.341
 L 126.882,-484.909 L 126.545,-485.439 L 126.145,-485.923 L 125.687,-486.353 L 125.179,-486.722 L 124.629,-487.024
 L 124.045,-487.255 L 123.437,-487.411 L 122.814,-487.49 L -122.814,-487.49 L -123.437,-487.411 L -124.045,-487.255
 L -124.629,-487.024 L -125.179,-486.722 L -125.687,-486.353 L -126,-486.059 L -126,-487.49 L -129,-487.49
 L -129,-472.51 L -126,-472.51 z
M -122.251,-474.008 L -122.75,-474.071 L -123.236,-474.196 L -123.703,-474.381 L -124.143,-474.623 L -124.55,-474.918
 L -124.916,-475.262 L -125.236,-475.649 L -125.505,-476.073 L -125.719,-476.528 L -125.874,-477.005 L -125.968,-477.499
 L -126,-478 L -126,-482 L -125.968,-482.501 L -125.874,-482.995 L -125.719,-483.472 L -125.505,-483.927
 L -125.236,-484.351 L -124.916,-484.738 L -124.55,-485.082 L -124.143,-485.377 L -123.703,-485.619 L -123.236,-485.804
 L -122.75,-485.929 L -122.251,-485.992 L 122.251,-485.992 L 122.75,-485.929 L 123.236,-485.804 L 123.703,-485.619
 L 124.143,-485.377 L 124.55,-485.082 L 124.916,-484.738 L 125.236,-484.351 L 125.505,-483.927 L 125.719,-483.472
 L 125.874,-482.995 L 125.968,-482.501 L 126,-482 L 126,-478 L 125.968,-477.499 L 125.874,-477.005
 L 125.719,-476.528 L 125.505,-476.073 L 125.236,-475.649 L 124.916,-475.262 L 124.55,-474.918 L 124.143,-474.623
 L 123.703,-474.381 L 123.236,-474.196 L 122.75,-474.071 L 122.251,-474.008 z
M -126,-449.941 L -125.687,-449.647 L -125.179,-449.278 L -124.629,-448.976 L -124.045,-448.745 L -123.437,-448.589
 L -122.814,-448.51 L 122.814,-448.51 L 123.437,-448.589 L 124.045,-448.745 L 124.629,-448.976 L 125.179,-449.278
 L 125.687,-449.647 L 126.145,-450.077 L 126.545,-450.561 L 126.882,-451.091 L 127.149,-451.659 L 127.343,-452.257
 L 127.461,-452.873 L 127.5,-453.5 L 127.5,-458.5 L 127.461,-459.127 L 127.343,-459.743 L 127.149,-460.341
 L 126.882,-460.909 L 126.545,-461.439 L 126.145,-461.923 L 125.687,-462.353 L 125.179,-462.722 L 124.629,-463.024
 L 124.045,-463.255 L 123.437,-463.411 L 122.814,-463.49 L -122.814,-463.49 L -123.437,-463.411 L -124.045,-463.255
 L -124.629,-463.024 L -125.179,-462.722 L -125.687,-462.353 L -126,-462.059 L -126,-463.49 L -129,-463.49
 L -129,-448.51 L -126,-448.51 z
M -122.251,-450.008 L -122.75,-450.071 L -123.236,-450.196 L -123.703,-450.381 L -124.143,-450.623 L -124.55,-450.918
 L -124.916,-451.262 L -125.236,-451.649 L -125.505,-452.073 L -125.719,-452.528 L -125.874,-453.005 L -125.968,-453.499
 L -126,-454 L -126,-458 L -125.968,-458.501 L -125.874,-458.995 L -125.719,-459.472 L -125.505,-459.927
 L -125.236,-460.351 L -124.916,-460.738 L -124.55,-461.082 L -124.143,-461.377 L -123.703,-461.619 L -123.236,-461.804
 L -122.75,-461.929 L -122.251,-461.992 L 122.251,-461.992 L 122.75,-461.929 L 123.236,-461.804 L 123.703,-461.619
 L 124.143,-461.377 L 124.55,-461.082 L 124.916,-460.738 L 125.236,-460.351 L 125.505,-459.927 L 125.719,-459.472
 L 125.874,-458.995 L 125.968,-458.501 L 126,-458 L 126,-454 L 125.968,-453.499 L 125.874,-453.005
 L 125.719,-452.528 L 125.505,-452.073 L 125.236,-451.649 L 124.916,-451.262 L 124.55,-450.918 L 124.143,-450.623
 L 123.703,-450.381 L 123.236,-450.196 L 122.75,-450.071 L 122.251,-450.008 z
M -126,-425.941 L -125.687,-425.647 L -125.179,-425.278 L -124.629,-424.976 L -124.045,-424.745 L -123.437,-424.589
 L -122.814,-424.51 L 122.814,-424.51 L 123.437,-424.589 L 124.045,-424.745 L 124.629,-424.976 L 125.179,-425.278
 L 125.687,-425.647 L 126.145,-426.077 L 126.545,-426.561 L 126.882,-427.091 L 127.149,-427.659 L 127.343,-428.257
 L 127.461,-428.873 L 127.5,-429.5 L 127.5,-434.5 L 127.461,-435.127 L 127.343,-435.743 L 127.149,-436.341
 L 126.882,-436.909 L 126.545,-437.439 L 126.145,-437.923 L 125.687,-438.353 L 125.179,-438.722 L 124.629,-439.024
 L 124.045,-439.255 L 123.437,-439.411 L 122.814,-439.49 L -122.814,-439.49 L -123.437,-439.411 L -124.045,-439.255
 L -124.629,-439.024 L -125.179,-438.722 L -125.687,-438.353 L -126,-438.059 L -126,-439.49 L -129,-439.49
 L -129,-424.51 L -126,-424.51 z
M -122.251,-426.008 L -122.75,-426.071 L -123.236,-426.196 L -123.703,-426.381 L -124.143,-426.623 L -124.55,-426.918
 L -124.916,-427.262 L -125.236,-427.649 L -125.505,-428.073 L -125.719,-428.528 L -125.874,-429.005 L -125.968,-429.499
 L -126,-430 L -126,-434 L -125.968,-434.501 L -125.874,-434.995 L -125.719,-435.472 L -125.505,-435.927
 L -125.236,-436.351 L -124.916,-436.738 L -124.55,-437.082 L -124.143,-437.377 L -123.703,-437.619 L -123.236,-437.804
 L -122.75,-437.929 L -122.251,-437.992 L 122.251,-437.992 L 122.75,-437.929 L 123.236,-437.804 L 123.703,-437.619
 L 124.143,-437.377 L 124.55,-437.082 L 124.916,-436.738 L 125.236,-436.351 L 125.505,-435.927 L 125.719,-435.472
 L 125.874,-434.995 L 125.968,-434.501 L 126,-434 L 126,-430 L 125.968,-429.499 L 125.874,-429.005
 L 125.719,-428.528 L 125.505,-428.073 L 125.236,-427.649 L 124.916,-427.262 L 124.55,-426.918 L 124.143,-426.623
 L 123.703,-426.381 L 123.236,-426.196 L 122.75,-426.071 L 122.251,-426.008 z
M -126,-401.941 L -125.687,-401.647 L -125.179,-401.278 L -124.629,-400.976 L -124.045,-400.745 L -123.437,-400.589
 L -122.814,-400.51 L 122.814,-400.51 L 123.437,-400.589 L 124.045,-400.745 L 124.629,-400.976 L 125.179,-401.278
 L 125.687,-401.647 L 126.145,-402.077 L 126.545,-402.561 L 126.882,-403.091 L 127.149,-403.659 L 127.343,-404.257
 L 127.461,-404.873 L 127.5,-405.5 L 127.5,-410.5 L 127.461,-411.127 L 127.343,-411.743 L 127.149,-412.341
 L 126.882,-412.909 L 126.545,-413.439 L 126.145,-413.923 L 125.687,-414.353 L 125.179,-414.722 L 124.629,-415.024
 L 124.045,-415.255 L 123.437,-415.411 L 122.814,-415.49 L -122.814,-415.49 L -123.437,-415.411 L -124.045,-415.255
 L -124.629,-415.024 L -125.179,-414.722 L -125.687,-414.353 L -126,-414.059 L -126,-415.49 L -129,-415.49
 L -129,-400.51 L -126,-400.51 z
M -122.251,-402.008 L -122.75,-402.071 L -123.236,-402.196 L -123.703,-402.381 L -124.143,-402.623 L -124.55,-402.918
 L -124.916,-403.262 L -125.236,-403.649 L -125.505,-404.073 L -125.719,-404.528 L -125.874,-405.005 L -125.968,-405.499
 L -126,-406 L -126,-410 L -125.968,-410.501 L -125.874,-410.995 L -125.719,-411.472 L -125.505,-411.927
 L -125.236,-412.351 L -124.916,-412.738 L -124.55,-413.082 L -124.143,-413.377 L -123.703,-413.619 L -123.236,-413.804
 L -122.75,-413.929 L -122.251,-413.992 L 122.251,-413.992 L 122.75,-413.929 L 123.236,-413.804 L 123.703,-413.619
 L 124.143,-413.377 L 124.55,-413.082 L 124.916,-412.738 L 125.236,-412.351 L 125.505,-411.927 L 125.719,-411.472
 L 125.874,-410.995 L 125.968,-410.501 L 126,-410 L 126,-406 L 125.968,-405.499 L 125.874,-405.005
 L 125.719,-404.528 L 125.505,-404.073 L 125.236,-403.649 L 124.916,-403.262 L 124.55,-402.918 L 124.143,-402.623
 L 123.703,-402.381 L 123.236,-402.196 L 122.75,-402.071 L 122.251,-402.008 z
M 123.437,-376.589 L 124.045,-376.745 L 124.629,-376.976 L 125.179,-377.278 L 125.687,-377.647 L 126.145,-378.077
 L 126.545,-378.561 L 126.882,-379.091 L 127.149,-379.659 L 127.343,-380.257 L 127.461,-380.873 L 127.5,-381.5
 L 127.5,-386.5 L 127.461,-387.127 L 127.343,-387.743 L 127.149,-388.341 L 126.882,-388.909 L 126.545,-389.439
 L 126.145,-389.923 L 125.687,-390.353 L 125.179,-390.722 L 124.629,-391.024 L 124.045,-391.255 L 123.437,-391.411
 L 122.814,-391.49 L -122.814,-391.49 L -123.437,-391.411 L -124.045,-391.255 L -124.629,-391.024 L -125.179,-390.722
 L -125.687,-390.353 L -126,-390.059 L -126,-391.479 L -129,-391.479 L -129,-376.521 L -126,-376.521
 L -126,-377.941 L -125.687,-377.647 L -125.179,-377.278 L -124.629,-376.976 L -124.045,-376.745 L -123.437,-376.589
 L -122.814,-376.51 L 122.814,-376.51 z
M -122.195,-378.893 L -122.583,-378.942 L -122.962,-379.039 L -123.325,-379.183 L -123.668,-379.372 L -123.984,-379.601
 L -124.269,-379.869 L -124.518,-380.17 L -124.728,-380.5 L -124.894,-380.854 L -125.015,-381.226 L -125.088,-381.61
 L -125.113,-382 L -125.113,-386 L -125.088,-386.39 L -125.015,-386.774 L -124.894,-387.146 L -124.728,-387.5
 L -124.518,-387.83 L -124.269,-388.131 L -123.984,-388.399 L -123.668,-388.628 L -123.325,-388.817 L -122.962,-388.961
 L -122.583,-389.058 L -122.195,-389.107 L 122.195,-389.107 L 122.583,-389.058 L 122.962,-388.961 L 123.325,-388.817
 L 123.668,-388.628 L 123.984,-388.399 L 124.269,-388.131 L 124.518,-387.83 L 124.728,-387.5 L 124.894,-387.146
 L 125.015,-386.774 L 125.088,-386.39 L 125.113,-386 L 125.113,-382 L 125.088,-381.61 L 125.015,-381.226
 L 124.894,-380.854 L 124.728,-380.5 L 124.518,-380.17 L 124.269,-379.869 L 123.984,-379.601 L 123.668,-379.372
 L 123.325,-379.183 L 122.962,-379.039 L 122.583,-378.942 L 122.195,-378.893 z
M 123.437,-352.589 L 124.045,-352.745 L 124.629,-352.976 L 125.179,-353.278 L 125.687,-353.647 L 126.145,-354.077
 L 126.545,-354.561 L 126.882,-355.091 L 127.149,-355.659 L 127.343,-356.257 L 127.461,-356.873 L 127.5,-357.5
 L 127.5,-362.5 L 127.461,-363.127 L 127.343,-363.743 L 127.149,-364.341 L 126.882,-364.909 L 126.545,-365.439
 L 126.145,-365.923 L 125.687,-366.353 L 125.179,-366.722 L 124.629,-367.024 L 124.045,-367.255 L 123.437,-367.411
 L 122.814,-367.49 L -122.814,-367.49 L -123.437,-367.411 L -124.045,-367.255 L -124.629,-367.024 L -125.179,-366.722
 L -125.687,-366.353 L -126,-366.059 L -126,-366.153 L -129,-366.153 L -129,-353.847 L -126,-353.847
 L -126,-353.941 L -125.687,-353.647 L -125.179,-353.278 L -124.629,-352.976 L -124.045,-352.745 L -123.437,-352.589
 L -122.814,-352.51 L 122.814,-352.51 z
M -120.134,-357.869 L -120.4,-357.903 L -120.66,-357.969 L -120.909,-358.068 L -121.144,-358.197 L -121.361,-358.355
 L -121.557,-358.538 L -121.727,-358.745 L -121.871,-358.971 L -121.985,-359.214 L -122.068,-359.469 L -122.118,-359.732
 L -122.135,-360 L -122.118,-360.268 L -122.068,-360.531 L -121.985,-360.786 L -121.871,-361.029 L -121.727,-361.255
 L -121.557,-361.462 L -121.361,-361.645 L -121.144,-361.803 L -120.909,-361.932 L -120.66,-362.031 L -120.4,-362.097
 L -120.134,-362.131 L -119.866,-362.131 L -119.6,-362.097 L -119.34,-362.031 L -119.091,-361.932 L -118.856,-361.803
 L -118.639,-361.645 L -118.443,-361.462 L -118.273,-361.255 L -118.129,-361.029 L -118.015,-360.786 L -117.932,-360.531
 L -117.882,-360.268 L -117.865,-360 L -117.882,-359.732 L -117.932,-359.469 L -118.015,-359.214 L -118.129,-358.971
 L -118.273,-358.745 L -118.443,-358.538 L -118.639,-358.355 L -118.856,-358.197 L -119.091,-358.068 L -119.34,-357.969
 L -119.6,-357.903 L -119.866,-357.869 z
M 119.866,-357.869 L 119.6,-357.903 L 119.34,-357.969 L 119.091,-358.068 L 118.856,-358.197 L 118.639,-358.355
 L 118.443,-358.538 L 118.273,-358.745 L 118.129,-358.971 L 118.015,-359.214 L 117.932,-359.469 L 117.882,-359.732
 L 117.865,-360 L 117.882,-360.268 L 117.932,-360.531 L 118.015,-360.786 L 118.129,-361.029 L 118.273,-361.255
 L 118.443,-361.462 L 118.639,-361.645 L 118.856,-361.803 L 119.091,-361.932 L 119.34,-362.031 L 119.6,-362.097
 L 119.866,-362.131 L 120.134,-362.131 L 120.4,-362.097 L 120.66,-362.031 L 120.909,-361.932 L 121.144,-361.803
 L 121.361,-361.645 L 121.557,-361.462 L 121.727,-361.255 L 121.871,-361.029 L 121.985,-360.786 L 122.068,-360.531
 L 122.118,-360.268 L 122.135,-360 L 122.118,-359.732 L 122.068,-359.469 L 121.985,-359.214 L 121.871,-358.971
 L 121.727,-358.745 L 121.557,-358.538 L 121.361,-358.355 L 121.144,-358.197 L 120.909,-358.068 L 120.66,-357.969
 L 120.4,-357.903 L 120.134,-357.869 z
" stroke="black" fill="lightgray" stroke-width="0.5"/>
</svg>
