<?xml version="1.0" standalone="no"?>
<!DOCTYPE svg PUBLIC "-//W3C//DTD SVG 1.1//EN" "http://www.w3.org/Graphics/SVG/1.1/DTD/svg11.dtd">
<svg width="257mm" height="198mm" viewBox="-129 -306 257 198" xmlns="http://www.w3.org/2000/svg" version="1.1">
<title>OpenSCAD Model</title>
<path d="
M -126,-247.441 L -125.687,-247.147 L -125.179,-246.778 L -124.629,-246.476 L -124.045,-246.245 L -123.437,-246.089
 L -122.814,-246.01 L 122.814,-246.01 L 123.437,-246.089 L 124.045,-246.245 L 124.629,-246.476 L 125.179,-246.778
 L 125.687,-247.147 L 126.145,-247.577 L 126.545,-248.061 L 126.882,-248.591 L 127.149,-249.159 L 127.343,-249.757
 L 127.461,-250.373 L 127.5,-251 L 127.5,-301 L 127.461,-301.627 L 127.343,-302.243 L 127.149,-302.841
 L 126.882,-303.409 L 126.545,-303.939 L 126.145,-304.423 L 125.687,-304.853 L 125.179,-305.222 L 124.629,-305.524
 L 124.045,-305.755 L 123.437,-305.911 L 122.814,-305.99 L -122.814,-305.99 L -123.437,-305.911 L -124.045,-305.755
 L -124.629,-305.524 L -125.179,-305.222 L -125.687,-304.853 L -126,-304.559 L -126,-305.99 L -129,-305.99
 L -129,-246.01 L -126,-246.01 z
M -122.243,-247.635 L -122.726,-247.696 L -123.197,-247.817 L -123.649,-247.996 L -124.075,-248.23 L -124.469,-248.516
 L -124.823,-248.849 L -125.133,-249.224 L -125.394,-249.634 L -125.601,-250.074 L -125.751,-250.537 L -125.842,-251.015
 L -125.873,-251.5 L -125.873,-300.5 L -125.842,-300.985 L -125.751,-301.463 L -125.601,-301.926 L -125.394,-302.366
 L -125.133,-302.776 L -124.823,-303.151 L -124.469,-303.484 L -124.075,-303.77 L -123.649,-304.004 L -123.197,-304.183
 L -122.726,-304.304 L -122.243,-304.365 L 122.243,-304.365 L 122.726,-304.304 L 123.197,-304.183 L 123.649,-304.004
 L 124.075,-303.77 L 124.469,-303.484 L 124.823,-303.151 L 125.133,-302.776 L 125.394,-302.366 L 125.601,-301.926
 L 125.751,-301.463 L 125.842,-300.985 L 125.873,-300.5 L 125.873,-251.5 L 125.842,-251.015 L 125.751,-250.537
 L 125.601,-250.074 L 125.394,-249.634 L 125.133,-249.224 L 124.823,-248.849 L 124.469,-248.516 L 124.075,-248.23
 L 123.649,-247.996 L 123.197,-247.817 L 122.726,-247.696 L 122.243,-247.635 z
M 123.437,-177.089 L 124.045,-177.245 L 124.629,-177.476 L 125.179,-177.778 L 125.687,-178.147 L 126.145,-178.577
 L 126.545,-179.061 L 126.882,-179.591 L 127.149,-180.159 L 127.343,-180.757 L 127.461,-181.373 L 127.5,-182
 L 127.5,-232 L 127.461,-232.627 L 127.343,-233.243 L 127.149,-233.841 L 126.882,-234.409 L 126.545,-234.939
 L 126.145,-235.423 L 125.687,-235.853 L 125.179,-236.222 L 124.629,-236.524 L 124.045,-236.755 L 123.437,-236.911
 L 122.814,-236.99 L -122.814,-236.99 L -123.437,-236.911 L -124.045,-236.755 L -124.629,-236.524 L -125.179,-236.222
 L -125.687,-235.853 L -126,-235.559 L -126,-236.615 L -129,-236.615 L -129,-177.385 L -126,-177.385
 L -126,-178.441 L -125.687,-178.147 L -125.179,-177.778 L -124.629,-177.476 L -124.045,-177.245 L -123.437,-177.089
 L -122.814,-177.01 L 122.814,-177.01 z
M 119.849,-227.105 L 119.55,-227.143 L 119.258,-227.217 L 118.978,-227.328 L 118.714,-227.474 L 118.47,-227.651
 L 118.25,-227.857 L 118.058,-228.089 L 117.897,-228.344 L 117.769,-228.617 L 117.675,-228.903 L 117.619,-229.199
 L 117.6,-229.5 L 117.619,-229.801 L 117.675,-230.097 L 117.769,-230.383 L 117.897,-230.656 L 118.058,-230.911
 L 118.25,-231.143 L 118.47,-231.349 L 118.714,-231.526 L 118.978,-231.672 L 119.258,-231.783 L 119.55,-231.857
 L 119.849,-231.895 L 120.151,-231.895 L 120.45,-231.857 L 120.742,-231.783 L 121.022,-231.672 L 121.286,-231.526
 L 121.53,-231.349 L 121.75,-231.143 L 121.942,-230.911 L 122.103,-230.656 L 122.231,-230.383 L 122.325,-230.097
 L 122.381,-229.801 L 122.4,-229.5 L 122.381,-229.199 L 122.325,-228.903 L 122.231,-228.617 L 122.103,-228.344
 L 121.942,-228.089 L 121.75,-227.857 L 121.53,-227.651 L 121.286,-227.474 L 121.022,-227.328 L 120.742,-227.217
 L 120.45,-227.143 L 120.151,-227.105 z
M -120.151,-227.105 L -120.45,-227.143 L -120.742,-227.217 L -121.022,-227.328 L -121.286,-227.474 L -121.53,-227.651
 L -121.75,-227.857 L -121.942,-228.089 L -122.103,-228.344 L -122.231,-228.617 L -122.325,-228.903 L -122.381,-229.199
 L -122.4,-229.5 L -122.381,-229.801 L -122.325,-230.097 L -122.231,-230.383 L -122.103,-230.656 L -121.942,-230.911
 L -121.75,-231.143 L -121.53,-231.349 L -121.286,-231.526 L -121.022,-231.672 L -120.742,-231.783 L -120.45,-231.857
 L -120.151,-231.895 L -119.849,-231.895 L -119.55,-231.857 L -119.258,-231.783 L -118.978,-231.672 L -118.714,-231.526
 L -118.47,-231.349 L -118.25,-231.143 L -118.058,-230.911 L -117.897,-230.656 L -117.769,-230.383 L -117.675,-230.097
 L -117.619,-229.801 L -117.6,-229.5 L -117.619,-229.199 L -117.675,-228.903 L -117.769,-228.617 L -117.897,-228.344
 L -118.058,-228.089 L -118.25,-227.857 L -118.47,-227.651 L -118.714,-227.474 L -118.978,-227.328 L -119.258,-227.217
 L -119.55,-227.143 L -119.849,-227.105 z
M 119.849,-182.105 L 119.55,-182.143 L 119.258,-182.217 L 118.978,-182.328 L 118.714,-182.474 L 118.47,-182.651
 L 118.25,-182.857 L 118.058,-183.089 L 117.897,-183.344 L 117.769,-183.617 L 117.675,-183.903 L 117.619,-184.199
 L 117.6,-184.5 L 117.619,-184.801 L 117.675,-185.097 L 117.769,-185.383 L 117.897,-185.656 L 118.058,-185.911
 L 118.25,-186.143 L 118.47,-186.349 L 118.714,-186.526 L 118.978,-186.672 L 119.258,-186.783 L 119.55,-186.857
 L 119.849,-186.895 L 120.151,-186.895 L 120.45,-186.857 L 120.742,-186.783 L 121.022,-186.672 L 121.286,-186.526
 L 121.53,-186.349 L 121.75,-186.143 L 121.942,-185.911 L 122.103,-185.656 L 122.231,-185.383 L 122.325,-185.097
 L 122.381,-184.801 L 122.4,-184.5 L 122.381,-184.199 L 122.325,-183.903 L 122.231,-183.617 L 122.103,-183.344
 L 121.942,-183.089 L 121.75,-182.857 L 121.53,-182.651 L 121.286,-182.474 L 121.022,-182.328 L 120.742,-182.217
 L 120.45,-182.143 L 120.151,-182.105 z
M -120.151,-182.105 L -120.45,-182.143 L -120.742,-182.217 L -121.022,-182.328 L -121.286,-182.474 L -121.53,-182.651
 L -121.75,-182.857 L -121.942,-183.089 L -122.103,-183.344 L -122.231,-183.617 L -122.325,-183.903 L -122.381,-184.199
 L -122.4,-184.5 L -122.381,-184.801 L -122.325,-185.097 L -122.231,-185.383 L -122.103,-185.656 L -121.942,-185.911
 L -121.75,-186.143 L -121.53,-186.349 L -121.286,-186.526 L -121.022,-186.672 L -120.742,-186.783 L -120.45,-186.857
 L -120.151,-186.895 L -119.849,-186.895 L -119.55,-186.857 L -119.258,-186.783 L -118.978,-186.672 L -118.714,-186.526
 L -118.47,-186.349 L -118.25,-186.143 L -118.058,-185.911 L -117.897,-185.656 L -117.769,-185.383 L -117.675,-185.097
 L -117.619,-184.801 L -117.6,-184.5 L -117.619,-184.199 L -117.675,-183.903 L -117.769,-183.617 L -117.897,-183.344
 L -118.058,-183.089 L -118.25,-182.857 L -118.47,-182.651 L -118.714,-182.474 L -118.978,-182.328 L -119.258,-182.217
 L -119.55,-182.143 L -119.849,-182.105 z
M 123.437,-108.089 L 124.045,-108.245 L 124.629,-108.476 L 125.179,-108.778 L 125.687,-109.147 L 126.145,-109.577
 L 126.545,-110.061 L 126.882,-110.591 L 127.149,-111.159 L 127.343,-111.757 L 127.461,-112.373 L 127.5,-113
 L 127.5,-163 L 127.461,-163.627 L 127.343,-164.243 L 127.149,-164.841 L 126.882,-165.409 L 126.545,-165.939
 L 126.145,-166.423 L 125.687,-166.853 L 125.179,-167.222 L 124.629,-167.524 L 124.045,-167.755 L 123.437,-167.911
 L 122.814,-167.99 L -122.814,-167.99 L -123.437,-167.911 L -124.045,-167.755 L -124.629,-167.524 L -125.179,-167.222
 L -125.687,-166.853 L -126.145,-166.423 L -126.545,-165.939 L -126.882,-165.409 L -127.149,-164.841 L -127.343,-164.243
 L -127.4,-163.944 L -129,-163.944 L -129,-112.056 L -127.4,-112.056 L -127.343,-111.757 L -127.149,-111.159
 L -126.882,-110.591 L -126.545,-110.061 L -126.145,-109.577 L -125.687,-109.147 L -125.179,-108.778 L -124.629,-108.476
 L -124.045,-108.245 L -123.437,-108.089 L -122.814,-108.01 L 122.814,-108.01 z
M 119.887,-158.704 L 119.663,-158.732 L 119.444,-158.788 L 119.234,-158.871 L 119.036,-158.98 L 118.853,-159.113
 L 118.688,-159.268 L 118.544,-159.442 L 118.423,-159.633 L 118.326,-159.837 L 118.257,-160.052 L 118.214,-160.274
 L 118.2,-160.5 L 118.214,-160.726 L 118.257,-160.948 L 118.326,-161.163 L 118.423,-161.367 L 118.544,-161.558
 L 118.688,-161.732 L 118.853,-161.887 L 119.036,-162.02 L 119.234,-162.129 L 119.444,-162.212 L 119.663,-162.268
 L 119.887,-162.296 L 120.113,-162.296 L 120.337,-162.268 L 120.556,-162.212 L 120.766,-162.129 L 120.964,-162.02
 L 121.147,-161.887 L 121.312,-161.732 L 121.456,-161.558 L 121.577,-161.367 L 121.674,-161.163 L 121.743,-160.948
 L 121.786,-160.726 L 121.8,-160.5 L 121.786,-160.274 L 121.743,-160.052 L 121.674,-159.837 L 121.577,-159.633
 L 121.456,-159.442 L 121.312,-159.268 L 121.147,-159.113 L 120.964,-158.98 L 120.766,-158.871 L 120.556,-158.788
 L 120.337,-158.732 L 120.113,-158.704 z
M -120.113,-158.704 L -120.337,-158.732 L -120.556,-158.788 L -120.766,-158.871 L -120.964,-158.98 L -121.147,-159.113
 L -121.312,-159.268 L -121.456,-159.442 L -121.577,-159.633 L -121.674,-159.837 L -121.743,-160.052 L -121.786,-160.274
 L -121.8,-160.5 L -121.786,-160.726 L -121.743,-160.948 L -121.674,-161.163 L -121.577,-161.367 L -121.456,-161.558
 L -121.312,-161.732 L -121.147,-161.887 L -120.964,-162.02 L -120.766,-162.129 L -120.556,-162.212 L -120.337,-162.268
 L -120.113,-162.296 L -119.887,-162.296 L -119.663,-162.268 L -119.444,-162.212 L -119.234,-162.129 L -119.036,-162.02
 L -118.853,-161.887 L -118.688,-161.732 L -118.544,-161.558 L -118.423,-161.367 L -118.326,-161.163 L -118.257,-160.948
 L -118.214,-160.726 L -118.2,-160.5 L -118.214,-160.274 L -118.257,-160.052 L -118.326,-159.837 L -118.423,-159.633
 L -118.544,-159.442 L -118.688,-159.268 L -118.853,-159.113 L -119.036,-158.98 L -119.234,-158.871 L -119.444,-158.788
 L -119.663,-158.732 L -119.887,-158.704 z
M -120.113,-113.704 L -120.337,-113.732 L -120.556,-113.788 L -120.766,-113.871 L -120.964,-113.98 L -121.147,-114.113
 L -121.312,-114.268 L -121.456,-114.442 L -121.577,-114.633 L -121.674,-114.837 L -121.743,-115.052 L -121.786,-115.274
 L -121.8,-115.5 L -121.786,-115.726 L -121.743,-115.948 L -121.674,-116.163 L -121.577,-116.367 L -121.456,-116.558
 L -121.312,-116.732 L -121.147,-116.887 L -120.964,-117.02 L -120.766,-117.129 L -120.556,-117.212 L -120.337,-117.268
 L -120.113,-117.296 L -119.887,-117.296 L -119.663,-117.268 L -119.444,-117.212 L -119.234,-117.129 L -119.036,-117.02
 L -118.853,-116.887 L -118.688,-116.732 L -118.544,-116.558 L -118.423,-116.367 L -118.326,-116.163 L -118.257,-115.948
 L -118.214,-115.726 L -118.2,-115.5 L -118.214,-115.274 L -118.257,-115.052 L -118.326,-114.837 L -118.423,-114.633
 L -118.544,-114.442 L -118.688,-114.268 L -118.853,-114.113 L -119.036,-113.98 L -119.234,-113.871 L -119.444,-113.788
 L -119.663,-113.732 L -119.887,-113.704 z
M 119.887,-113.704 L 119.663,-113.732 L 119.444,-113.788 L 119.234,-113.871 L 119.036,-113.98 L 118.853,-114.113
 L 118.688,-114.268 L 118.544,-114.442 L 118.423,-114.633 L 118.326,-114.837 L 118.257,-115.052 L 118.214,-115.274
 L 118.2,-115.5 L 118.214,-115.726 L 118.257,-115.948 L 118.326,-116.163 L 118.423,-116.367 L 118.544,-116.558
 L 118.688,-116.732 L 118.853,-116.887 L 119.036,-117.02 L 119.234,-117.129 L 119.444,-117.212 L 119.663,-117.268
 L 119.887,-117.296 L 120.113,-117.296 L 120.337,-117.268 L 120.556,-117.212 L 120.766,-117.129 L 120.964,-117.02
 L 121.147,-116.887 L 121.312,-116.732 L 121.456,-116.558 L 121.577,-116.367 L 121.674,-116.163 L 121.743,-115.948
 L 121.786,-115.726 L 121.8,-115.5 L 121.786,-115.274 L 121.743,-115.052 L 121.674,-114.837 L 121.577,-114.633
 L 121.456,-114.442 L 121.312,-114.268 L 121.147,-114.113 L 120.964,-113.98 L 120.766,-113.871 L 120.556,-113.788
 L 120.337,-113.732 L 120.113,-113.704 z
" stroke="black" fill="lightgray" stroke-width="0.5"/>
</svg>
