<?xml version="1.0" standalone="no"?>
<!DOCTYPE svg PUBLIC "-//W3C//DTD SVG 1.1//EN" "http://www.w3.org/Graphics/SVG/1.1/DTD/svg11.dtd">
<svg width="240mm" height="1312mm" viewBox="-120 -2504 240 1312" xmlns="http://www.w3.org/2000/svg" version="1.1">
<title>OpenSCAD Model</title>
<path d="
M 115.937,-2248.59 L 116.545,-2248.74 L 117.129,-2248.98 L 117.679,-2249.28 L 118.187,-2249.65 L 118.645,-2250.08
 L 119.045,-2250.56 L 119.382,-2251.09 L 119.649,-2251.66 L 119.843,-2252.26 L 119.961,-2252.87 L 120,-2253.5
 L 120,-2498.5 L 119.961,-2499.13 L 119.843,-2499.74 L 119.649,-2500.34 L 119.382,-2500.91 L 119.045,-2501.44
 L 118.645,-2501.92 L 118.187,-2502.35 L 117.679,-2502.72 L 117.129,-2503.02 L 116.545,-2503.26 L 115.937,-2503.41
 L 115.314,-2503.49 L -115.314,-2503.49 L -115.937,-2503.41 L -116.545,-2503.26 L -117.129,-2503.02 L -117.679,-2502.72
 L -118.187,-2502.35 L -118.645,-2501.92 L -119.045,-2501.44 L -119.382,-2500.91 L -119.649,-2500.34 L -119.843,-2499.74
 L -119.961,-2499.13 L -120,-2498.5 L -120,-2253.5 L -119.961,-2252.87 L -119.843,-2252.26 L -119.649,-2251.66
 L -119.382,-2251.09 L -119.045,-2250.56 L -118.645,-2250.08 L -118.187,-2249.65 L -117.679,-2249.28 L -117.129,-2248.98
 L -116.545,-2248.74 L -115.937,-2248.59 L -115.314,-2248.51 L 115.314,-2248.51 z
M -114.751,-2250.01 L -115.25,-2250.07 L -115.736,-2250.2 L -116.203,-2250.38 L -116.643,-2250.62 L -117.05,-2250.92
 L -117.416,-2251.26 L -117.736,-2251.65 L -118.005,-2252.07 L -118.219,-2252.53 L -118.374,-2253.01 L -118.468,-2253.5
 L -118.5,-2254 L -118.5,-2498 L -118.468,-2498.5 L -118.374,-2498.99 L -118.219,-2499.47 L -118.005,-2499.93
 L -117.736,-2500.35 L -117.416,-2500.74 L -117.05,-2501.08 L -116.643,-2501.38 L -116.203,-2501.62 L -115.736,-2501.8
 L -115.25,-2501.93 L -114.751,-2501.99 L 114.751,-2501.99 L 115.25,-2501.93 L 115.736,-2501.8 L 116.203,-2501.62
 L 116.643,-2501.38 L 117.05,-2501.08 L 117.416,-2500.74 L 117.736,-2500.35 L 118.005,-2499.93 L 118.219,-2499.47
 L 118.374,-2498.99 L 118.468,-2498.5 L 118.5,-2498 L 118.5,-2254 L 118.468,-2253.5 L 118.374,-2253.01
 L 118.219,-2252.53 L 118.005,-2252.07 L 117.736,-2251.65 L 117.416,-2251.26 L 117.05,-2250.92 L 116.643,-2250.62
 L 116.203,-2250.38 L 115.736,-2250.2 L 115.25,-2250.07 L 114.751,-2250.01 z
M 115.937,-1984.59 L 116.545,-1984.74 L 117.129,-1984.98 L 117.679,-1985.28 L 118.187,-1985.65 L 118.645,-1986.08
 L 119.045,-1986.56 L 119.382,-1987.09 L 119.649,-1987.66 L 119.843,-1988.26 L 119.961,-1988.87 L 120,-1989.5
 L 120,-2234.5 L 119.961,-2235.13 L 119.843,-2235.74 L 119.649,-2236.34 L 119.382,-2236.91 L 119.045,-2237.44
 L 118.645,-2237.92 L 118.187,-2238.35 L 117.679,-2238.72 L 117.129,-2239.02 L 116.545,-2239.26 L 115.937,-2239.41
 L 115.314,-2239.49 L -115.314,-2239.49 L -115.937,-2239.41 L -116.545,-2239.26 L -117.129,-2239.02 L -117.679,-2238.72
 L -118.187,-2238.35 L -118.645,-2237.92 L -119.045,-2237.44 L -119.382,-2236.91 L -119.649,-2236.34 L -119.843,-2235.74
 L -119.961,-2235.13 L -120,-2234.5 L -120,-1989.5 L -119.961,-1988.87 L -119.843,-1988.26 L -119.649,-1987.66
 L -119.382,-1987.09 L -119.045,-1986.56 L -118.645,-1986.08 L -118.187,-1985.65 L -117.679,-1985.28 L -117.129,-1984.98
 L -116.545,-1984.74 L -115.937,-1984.59 L -115.314,-1984.51 L 115.314,-1984.51 z
M -114.751,-1986.01 L -115.25,-1986.07 L -115.736,-1986.2 L -116.203,-1986.38 L -116.643,-1986.62 L -117.05,-1986.92
 L -117.416,-1987.26 L -117.736,-1987.65 L -118.005,-1988.07 L -118.219,-1988.53 L -118.374,-1989.01 L -118.468,-1989.5
 L -118.5,-1990 L -118.5,-2234 L -118.468,-2234.5 L -118.374,-2234.99 L -118.219,-2235.47 L -118.005,-2235.93
 L -117.736,-2236.35 L -117.416,-2236.74 L -117.05,-2237.08 L -116.643,-2237.38 L -116.203,-2237.62 L -115.736,-2237.8
 L -115.25,-2237.93 L -114.751,-2237.99 L 114.751,-2237.99 L 115.25,-2237.93 L 115.736,-2237.8 L 116.203,-2237.62
 L 116.643,-2237.38 L 117.05,-2237.08 L 117.416,-2236.74 L 117.736,-2236.35 L 118.005,-2235.93 L 118.219,-2235.47
 L 118.374,-2234.99 L 118.468,-2234.5 L 118.5,-2234 L 118.5,-1990 L 118.468,-1989.5 L 118.374,-1989.01
 L 118.219,-1988.53 L 118.005,-1988.07 L 117.736,-1987.65 L 117.416,-1987.26 L 117.05,-1986.92 L 116.643,-1986.62
 L 116.203,-1986.38 L 115.736,-1986.2 L 115.25,-1986.07 L 114.751,-1986.01 z
M 115.937,-1720.59 L 116.545,-1720.74 L 117.129,-1720.98 L 117.679,-1721.28 L 118.187,-1721.65 L 118.645,-1722.08
 L 119.045,-1722.56 L 119.382,-1723.09 L 119.649,-1723.66 L 119.843,-1724.26 L 119.961,-1724.87 L 120,-1725.5
 L 120,-1970.5 L 119.961,-1971.13 L 119.843,-1971.74 L 119.649,-1972.34 L 119.382,-1972.91 L 119.045,-1973.44
 L 118.645,-1973.92 L 118.187,-1974.35 L 117.679,-1974.72 L 117.129,-1975.02 L 116.545,-1975.26 L 115.937,-1975.41
 L 115.314,-1975.49 L -115.314,-1975.49 L -115.937,-1975.41 L -116.545,-1975.26 L -117.129,-1975.02 L -117.679,-1974.72
 L -118.187,-1974.35 L -118.645,-1973.92 L -119.045,-1973.44 L -119.382,-1972.91 L -119.649,-1972.34 L -119.843,-1971.74
 L -119.961,-1971.13 L -120,-1970.5 L -120,-1725.5 L -119.961,-1724.87 L -119.843,-1724.26 L -119.649,-1723.66
 L -119.382,-1723.09 L -119.045,-1722.56 L -118.645,-1722.08 L -118.187,-1721.65 L -117.679,-1721.28 L -117.129,-1720.98
 L -116.545,-1720.74 L -115.937,-1720.59 L -115.314,-1720.51 L 115.314,-1720.51 z
M -114.751,-1722.01 L -115.25,-1722.07 L -115.736,-1722.2 L -116.203,-1722.38 L -116.643,-1722.62 L -117.05,-1722.92
 L -117.416,-1723.26 L -117.736,-1723.65 L -118.005,-1724.07 L -118.219,-1724.53 L -118.374,-1725.01 L -118.468,-1725.5
 L -118.5,-1726 L -118.5,-1970 L -118.468,-1970.5 L -118.374,-1970.99 L -118.219,-1971.47 L -118.005,-1971.93
 L -117.736,-1972.35 L -117.416,-1972.74 L -117.05,-1973.08 L -116.643,-1973.38 L -116.203,-1973.62 L -115.736,-1973.8
 L -115.25,-1973.93 L -114.751,-1973.99 L 114.751,-1973.99 L 115.25,-1973.93 L 115.736,-1973.8 L 116.203,-1973.62
 L 116.643,-1973.38 L 117.05,-1973.08 L 117.416,-1972.74 L 117.736,-1972.35 L 118.005,-1971.93 L 118.219,-1971.47
 L 118.374,-1970.99 L 118.468,-1970.5 L 118.5,-1970 L 118.5,-1726 L 118.468,-1725.5 L 118.374,-1725.01
 L 118.219,-1724.53 L 118.005,-1724.07 L 117.736,-1723.65 L 117.416,-1723.26 L 117.05,-1722.92 L 116.643,-1722.62
 L 116.203,-1722.38 L 115.736,-1722.2 L 115.25,-1722.07 L 114.751,-1722.01 z
M 115.937,-1456.59 L 116.545,-1456.74 L 117.129,-1456.98 L 117.679,-1457.28 L 118.187,-1457.65 L 118.645,-1458.08
 L 119.045,-1458.56 L 119.382,-1459.09 L 119.649,-1459.66 L 119.843,-1460.26 L 119.961,-1460.87 L 120,-1461.5
 L 120,-1706.5 L 119.961,-1707.13 L 119.843,-1707.74 L 119.649,-1708.34 L 119.382,-1708.91 L 119.045,-1709.44
 L 118.645,-1709.92 L 118.187,-1710.35 L 117.679,-1710.72 L 117.129,-1711.02 L 116.545,-1711.26 L 115.937,-1711.41
 L 115.314,-1711.49 L -115.314,-1711.49 L -115.937,-1711.41 L -116.545,-1711.26 L -117.129,-1711.02 L -117.679,-1710.72
 L -118.187,-1710.35 L -118.645,-1709.92 L -119.045,-1709.44 L -119.382,-1708.91 L -119.649,-1708.34 L -119.843,-1707.74
 L -119.961,-1707.13 L -120,-1706.5 L -120,-1461.5 L -119.961,-1460.87 L -119.843,-1460.26 L -119.649,-1459.66
 L -119.382,-1459.09 L -119.045,-1458.56 L -118.645,-1458.08 L -118.187,-1457.65 L -117.679,-1457.28 L -117.129,-1456.98
 L -116.545,-1456.74 L -115.937,-1456.59 L -115.314,-1456.51 L 115.314,-1456.51 z
M -114.695,-1458.89 L -115.083,-1458.94 L -115.462,-1459.04 L -115.825,-1459.18 L -116.168,-1459.37 L -116.484,-1459.6
 L -116.769,-1459.87 L -117.018,-1460.17 L -117.228,-1460.5 L -117.394,-1460.85 L -117.515,-1461.23 L -117.588,-1461.61
 L -117.613,-1462 L -117.613,-1706 L -117.588,-1706.39 L -117.515,-1706.77 L -117.394,-1707.15 L -117.228,-1707.5
 L -117.018,-1707.83 L -116.769,-1708.13 L -116.484,-1708.4 L -116.168,-1708.63 L -115.825,-1708.82 L -115.462,-1708.96
 L -115.083,-1709.06 L -114.695,-1709.11 L 114.695,-1709.11 L 115.083,-1709.06 L 115.462,-1708.96 L 115.825,-1708.82
 L 116.168,-1708.63 L 116.484,-1708.4 L 116.769,-1708.13 L 117.018,-1707.83 L 117.228,-1707.5 L 117.394,-1707.15
 L 117.515,-1706.77 L 117.588,-1706.39 L 117.613,-1706 L 117.613,-1462 L 117.588,-1461.61 L 117.515,-1461.23
 L 117.394,-1460.85 L 117.228,-1460.5 L 117.018,-1460.17 L 116.769,-1459.87 L 116.484,-1459.6 L 116.168,-1459.37
 L 115.825,-1459.18 L 115.462,-1459.04 L 115.083,-1458.94 L 114.695,-1458.89 z
M 115.937,-1192.59 L 116.545,-1192.74 L 117.129,-1192.98 L 117.679,-1193.28 L 118.187,-1193.65 L 118.645,-1194.08
 L 119.045,-1194.56 L 119.382,-1195.09 L 119.649,-1195.66 L 119.843,-1196.26 L 119.961,-1196.87 L 120,-1197.5
 L 120,-1442.5 L 119.961,-1443.13 L 119.843,-1443.74 L 119.649,-1444.34 L 119.382,-1444.91 L 119.045,-1445.44
 L 118.645,-1445.92 L 118.187,-1446.35 L 117.679,-1446.72 L 117.129,-1447.02 L 116.545,-1447.26 L 115.937,-1447.41
 L 115.314,-1447.49 L -115.314,-1447.49 L -115.937,-1447.41 L -116.545,-1447.26 L -117.129,-1447.02 L -117.679,-1446.72
 L -118.187,-1446.35 L -118.645,-1445.92 L -119.045,-1445.44 L -119.382,-1444.91 L -119.649,-1444.34 L -119.843,-1443.74
 L -119.961,-1443.13 L -120,-1442.5 L -120,-1197.5 L -119.961,-1196.87 L -119.843,-1196.26 L -119.649,-1195.66
 L -119.382,-1195.09 L -119.045,-1194.56 L -118.645,-1194.08 L -118.187,-1193.65 L -117.679,-1193.28 L -117.129,-1192.98
 L -116.545,-1192.74 L -115.937,-1192.59 L -115.314,-1192.51 L 115.314,-1192.51 z
M 112.366,-1437.87 L 112.1,-1437.9 L 111.84,-1437.97 L 111.591,-1438.07 L 111.356,-1438.2 L 111.139,-1438.35
 L 110.943,-1438.54 L 110.773,-1438.74 L 110.629,-1438.97 L 110.515,-1439.21 L 110.432,-1439.47 L 110.382,-1439.73
 L 110.365,-1440 L 110.382,-1440.27 L 110.432,-1440.53 L 110.515,-1440.79 L 110.629,-1441.03 L 110.773,-1441.26
 L 110.943,-1441.46 L 111.139,-1441.65 L 111.356,-1441.8 L 111.591,-1441.93 L 111.84,-1442.03 L 112.1,-1442.1
 L 112.366,-1442.13 L 112.634,-1442.13 L 112.9,-1442.1 L 113.16,-1442.03 L 113.409,-1441.93 L 113.644,-1441.8
 L 113.861,-1441.65 L 114.057,-1441.46 L 114.227,-1441.26 L 114.371,-1441.03 L 114.485,-1440.79 L 114.568,-1440.53
 L 114.618,-1440.27 L 114.635,-1440 L 114.618,-1439.73 L 114.568,-1439.47 L 114.485,-1439.21 L 114.371,-1438.97
 L 114.227,-1438.74 L 114.057,-1438.54 L 113.861,-1438.35 L 113.644,-1438.2 L 113.409,-1438.07 L 113.16,-1437.97
 L 112.9,-1437.9 L 112.634,-1437.87 z
M -112.634,-1437.87 L -112.9,-1437.9 L -113.16,-1437.97 L -113.409,-1438.07 L -113.644,-1438.2 L -113.861,-1438.35
 L -114.057,-1438.54 L -114.227,-1438.74 L -114.371,-1438.97 L -114.485,-1439.21 L -114.568,-1439.47 L -114.618,-1439.73
 L -114.635,-1440 L -114.618,-1440.27 L -114.568,-1440.53 L -114.485,-1440.79 L -114.371,-1441.03 L -114.227,-1441.26
 L -114.057,-1441.46 L -113.861,-1441.65 L -113.644,-1441.8 L -113.409,-1441.93 L -113.16,-1442.03 L -112.9,-1442.1
 L -112.634,-1442.13 L -112.366,-1442.13 L -112.1,-1442.1 L -111.84,-1442.03 L -111.591,-1441.93 L -111.356,-1441.8
 L -111.139,-1441.65 L -110.943,-1441.46 L -110.773,-1441.26 L -110.629,-1441.03 L -110.515,-1440.79 L -110.432,-1440.53
 L -110.382,-1440.27 L -110.365,-1440 L -110.382,-1439.73 L -110.432,-1439.47 L -110.515,-1439.21 L -110.629,-1438.97
 L -110.773,-1438.74 L -110.943,-1438.54 L -111.139,-1438.35 L -111.356,-1438.2 L -111.591,-1438.07 L -111.84,-1437.97
 L -112.1,-1437.9 L -112.366,-1437.87 z
M 112.366,-1197.87 L 112.1,-1197.9 L 111.84,-1197.97 L 111.591,-1198.07 L 111.356,-1198.2 L 111.139,-1198.35
 L 110.943,-1198.54 L 110.773,-1198.74 L 110.629,-1198.97 L 110.515,-1199.21 L 110.432,-1199.47 L 110.382,-1199.73
 L 110.365,-1200 L 110.382,-1200.27 L 110.432,-1200.53 L 110.515,-1200.79 L 110.629,-1201.03 L 110.773,-1201.26
 L 110.943,-1201.46 L 111.139,-1201.65 L 111.356,-1201.8 L 111.591,-1201.93 L 111.84,-1202.03 L 112.1,-1202.1
 L 112.366,-1202.13 L 112.634,-1202.13 L 112.9,-1202.1 L 113.16,-1202.03 L 113.409,-1201.93 L 113.644,-1201.8
 L 113.861,-1201.65 L 114.057,-1201.46 L 114.227,-1201.26 L 114.371,-1201.03 L 114.485,-1200.79 L 114.568,-1200.53
 L 114.618,-1200.27 L 114.635,-1200 L 114.618,-1199.73 L 114.568,-1199.47 L 114.485,-1199.21 L 114.371,-1198.97
 L 114.227,-1198.74 L 114.057,-1198.54 L 113.861,-1198.35 L 113.644,-1198.2 L 113.409,-1198.07 L 113.16,-1197.97
 L 112.9,-1197.9 L 112.634,-1197.87 z
M -112.634,-1197.87 L -112.9,-1197.9 L -113.16,-1197.97 L -113.409,-1198.07 L -113.644,-1198.2 L -113.861,-1198.35
 L -114.057,-1198.54 L -114.227,-1198.74 L -114.371,-1198.97 L -114.485,-1199.21 L -114.568,-1199.47 L -114.618,-1199.73
 L -114.635,-1200 L -114.618,-1200.27 L -114.568,-1200.53 L -114.485,-1200.79 L -114.371,-1201.03 L -114.227,-1201.26
 L -114.057,-1201.46 L -113.861,-1201.65 L -113.644,-1201.8 L -113.409,-1201.93 L -113.16,-1202.03 L -112.9,-1202.1
 L -112.634,-1202.13 L -112.366,-1202.13 L -112.1,-1202.1 L -111.84,-1202.03 L -111.591,-1201.93 L -111.356,-1201.8
 L -111.139,-1201.65 L -110.943,-1201.46 L -110.773,-1201.26 L -110.629,-1201.03 L -110.515,-1200.79 L -110.432,-1200.53
 L -110.382,-1200.27 L -110.365,-1200 L -110.382,-1199.73 L -110.432,-1199.47 L -110.515,-1199.21 L -110.629,-1198.97
 L -110.773,-1198.74 L -110.943,-1198.54 L -111.139,-1198.35 L -111.356,-1198.2 L -111.591,-1198.07 L -111.84,-1197.97
 L -112.1,-1197.9 L -112.366,-1197.87 z
" stroke="black" fill="lightgray" stroke-width="0.5"/>
</svg>
