<?xml version="1.0" standalone="no"?>
<!DOCTYPE svg PUBLIC "-//W3C//DTD SVG 1.1//EN" "http://www.w3.org/Graphics/SVG/1.1/DTD/svg11.dtd">
<svg width="287mm" height="129mm" viewBox="-144 -168 287 129" xmlns="http://www.w3.org/2000/svg" version="1.1">
<title>OpenSCAD Model</title>
<path d="
M 138.437,-108.089 L 139.045,-108.245 L 139.629,-108.476 L 140.179,-108.778 L 140.687,-109.147 L 141.145,-109.577
 L 141.545,-110.061 L 141.882,-110.591 L 142.149,-111.159 L 142.343,-111.757 L 142.461,-112.373 L 142.5,-113
 L 142.5,-163 L 142.461,-163.627 L 142.343,-164.243 L 142.149,-164.841 L 141.882,-165.409 L 141.545,-165.939
 L 141.145,-166.423 L 140.687,-166.853 L 140.179,-167.222 L 139.629,-167.524 L 139.045,-167.755 L 138.437,-167.911
 L 137.814,-167.99 L -137.814,-167.99 L -138.437,-167.911 L -139.045,-167.755 L -139.629,-167.524 L -140.179,-167.222
 L -140.687,-166.853 L -141,-166.559 L -141,-167.615 L -144,-167.615 L -144,-108.385 L -141,-108.385
 L -141,-109.441 L -140.687,-109.147 L -140.179,-108.778 L -139.629,-108.476 L -139.045,-108.245 L -138.437,-108.089
 L -137.814,-108.01 L 137.814,-108.01 z
M 134.849,-158.105 L 134.55,-158.143 L 134.258,-158.217 L 133.978,-158.328 L 133.714,-158.474 L 133.47,-158.651
 L 133.25,-158.857 L 133.058,-159.089 L 132.897,-159.344 L 132.769,-159.617 L 132.675,-159.903 L 132.619,-160.199
 L 132.6,-160.5 L 132.619,-160.801 L 132.675,-161.097 L 132.769,-161.383 L 132.897,-161.656 L 133.058,-161.911
 L 133.25,-162.143 L 133.47,-162.349 L 133.714,-162.526 L 133.978,-162.672 L 134.258,-162.783 L 134.55,-162.857
 L 134.849,-162.895 L 135.151,-162.895 L 135.45,-162.857 L 135.742,-162.783 L 136.022,-162.672 L 136.286,-162.526
 L 136.53,-162.349 L 136.75,-162.143 L 136.942,-161.911 L 137.103,-161.656 L 137.231,-161.383 L 137.325,-161.097
 L 137.381,-160.801 L 137.4,-160.5 L 137.381,-160.199 L 137.325,-159.903 L 137.231,-159.617 L 137.103,-159.344
 L 136.942,-159.089 L 136.75,-158.857 L 136.53,-158.651 L 136.286,-158.474 L 136.022,-158.328 L 135.742,-158.217
 L 135.45,-158.143 L 135.151,-158.105 z
M -135.151,-158.105 L -135.45,-158.143 L -135.742,-158.217 L -136.022,-158.328 L -136.286,-158.474 L -136.53,-158.651
 L -136.75,-158.857 L -136.942,-159.089 L -137.103,-159.344 L -137.231,-159.617 L -137.325,-159.903 L -137.381,-160.199
 L -137.4,-160.5 L -137.381,-160.801 L -137.325,-161.097 L -137.231,-161.383 L -137.103,-161.656 L -136.942,-161.911
 L -136.75,-162.143 L -136.53,-162.349 L -136.286,-162.526 L -136.022,-162.672 L -135.742,-162.783 L -135.45,-162.857
 L -135.151,-162.895 L -134.849,-162.895 L -134.55,-162.857 L -134.258,-162.783 L -133.978,-162.672 L -133.714,-162.526
 L -133.47,-162.349 L -133.25,-162.143 L -133.058,-161.911 L -132.897,-161.656 L -132.769,-161.383 L -132.675,-161.097
 L -132.619,-160.801 L -132.6,-160.5 L -132.619,-160.199 L -132.675,-159.903 L -132.769,-159.617 L -132.897,-159.344
 L -133.058,-159.089 L -133.25,-158.857 L -133.47,-158.651 L -133.714,-158.474 L -133.978,-158.328 L -134.258,-158.217
 L -134.55,-158.143 L -134.849,-158.105 z
M 134.849,-113.105 L 134.55,-113.143 L 134.258,-113.217 L 133.978,-113.328 L 133.714,-113.474 L 133.47,-113.651
 L 133.25,-113.857 L 133.058,-114.089 L 132.897,-114.344 L 132.769,-114.617 L 132.675,-114.903 L 132.619,-115.199
 L 132.6,-115.5 L 132.619,-115.801 L 132.675,-116.097 L 132.769,-116.383 L 132.897,-116.656 L 133.058,-116.911
 L 133.25,-117.143 L 133.47,-117.349 L 133.714,-117.526 L 133.978,-117.672 L 134.258,-117.783 L 134.55,-117.857
 L 134.849,-117.895 L 135.151,-117.895 L 135.45,-117.857 L 135.742,-117.783 L 136.022,-117.672 L 136.286,-117.526
 L 136.53,-117.349 L 136.75,-117.143 L 136.942,-116.911 L 137.103,-116.656 L 137.231,-116.383 L 137.325,-116.097
 L 137.381,-115.801 L 137.4,-115.5 L 137.381,-115.199 L 137.325,-114.903 L 137.231,-114.617 L 137.103,-114.344
 L 136.942,-114.089 L 136.75,-113.857 L 136.53,-113.651 L 136.286,-113.474 L 136.022,-113.328 L 135.742,-113.217
 L 135.45,-113.143 L 135.151,-113.105 z
M -135.151,-113.105 L -135.45,-113.143 L -135.742,-113.217 L -136.022,-113.328 L -136.286,-113.474 L -136.53,-113.651
 L -136.75,-113.857 L -136.942,-114.089 L -137.103,-114.344 L -137.231,-114.617 L -137.325,-114.903 L -137.381,-115.199
 L -137.4,-115.5 L -137.381,-115.801 L -137.325,-116.097 L -137.231,-116.383 L -137.103,-116.656 L -136.942,-116.911
 L -136.75,-117.143 L -136.53,-117.349 L -136.286,-117.526 L -136.022,-117.672 L -135.742,-117.783 L -135.45,-117.857
 L -135.151,-117.895 L -134.849,-117.895 L -134.55,-117.857 L -134.258,-117.783 L -133.978,-117.672 L -133.714,-117.526
 L -133.47,-117.349 L -133.25,-117.143 L -133.058,-116.911 L -132.897,-116.656 L -132.769,-116.383 L -132.675,-116.097
 L -132.619,-115.801 L -132.6,-115.5 L -132.619,-115.199 L -132.675,-114.903 L -132.769,-114.617 L -132.897,-114.344
 L -133.058,-114.089 L -133.25,-113.857 L -133.47,-113.651 L -133.714,-113.474 L -133.978,-113.328 L -134.258,-113.217
 L -134.55,-113.143 L -134.849,-113.105 z
M 138.437,-39.0886 L 139.045,-39.2447 L 139.629,-39.4759 L 140.179,-39.7784 L 140.687,-40.1474 L 141.145,-40.5773
 L 141.545,-41.0611 L 141.882,-41.5912 L 142.149,-42.1594 L 142.343,-42.7566 L 142.461,-43.3733 L 142.5,-44
 L 142.5,-94 L 142.461,-94.6267 L 142.343,-95.2434 L 142.149,-95.8406 L 141.882,-96.4088 L 141.545,-96.9389
 L 141.145,-97.4227 L 140.687,-97.8526 L 140.179,-98.2216 L 139.629,-98.5241 L 139.045,-98.7553 L 138.437,-98.9114
 L 137.814,-98.9901 L -137.814,-98.9901 L -138.437,-98.9114 L -139.045,-98.7553 L -139.629,-98.5241 L -140.179,-98.2216
 L -140.687,-97.8526 L -141.145,-97.4227 L -141.545,-96.9389 L -141.882,-96.4088 L -142.149,-95.8406 L -142.343,-95.2434
 L -142.4,-94.9442 L -144,-94.9442 L -144,-43.0558 L -142.4,-43.0558 L -142.343,-42.7566 L -142.149,-42.1594
 L -141.882,-41.5912 L -141.545,-41.0611 L -141.145,-40.5773 L -140.687,-40.1474 L -140.179,-39.7784 L -139.629,-39.4759
 L -139.045,-39.2447 L -138.437,-39.0886 L -137.814,-39.0099 L 137.814,-39.0099 z
M 134.887,-89.7036 L 134.663,-89.7319 L 134.444,-89.7881 L 134.234,-89.8713 L 134.036,-89.9802 L 133.853,-90.1131
 L 133.688,-90.2678 L 133.544,-90.442 L 133.423,-90.6328 L 133.326,-90.8374 L 133.257,-91.0524 L 133.214,-91.2744
 L 133.2,-91.5 L 133.214,-91.7256 L 133.257,-91.9476 L 133.326,-92.1626 L 133.423,-92.3672 L 133.544,-92.558
 L 133.688,-92.7322 L 133.853,-92.8869 L 134.036,-93.0198 L 134.234,-93.1287 L 134.444,-93.2119 L 134.663,-93.2681
 L 134.887,-93.2964 L 135.113,-93.2964 L 135.337,-93.2681 L 135.556,-93.2119 L 135.766,-93.1287 L 135.964,-93.0198
 L 136.147,-92.8869 L 136.312,-92.7322 L 136.456,-92.558 L 136.577,-92.3672 L 136.674,-92.1626 L 136.743,-91.9476
 L 136.786,-91.7256 L 136.8,-91.5 L 136.786,-91.2744 L 136.743,-91.0524 L 136.674,-90.8374 L 136.577,-90.6328
 L 136.456,-90.442 L 136.312,-90.2678 L 136.147,-90.1131 L 135.964,-89.9802 L 135.766,-89.8713 L 135.556,-89.7881
 L 135.337,-89.7319 L 135.113,-89.7036 z
M -135.113,-89.7036 L -135.337,-89.7319 L -135.556,-89.7881 L -135.766,-89.8713 L -135.964,-89.9802 L -136.147,-90.1131
 L -136.312,-90.2678 L -136.456,-90.442 L -136.577,-90.6328 L -136.674,-90.8374 L -136.743,-91.0524 L -136.786,-91.2744
 L -136.8,-91.5 L -136.786,-91.7256 L -136.743,-91.9476 L -136.674,-92.1626 L -136.577,-92.3672 L -136.456,-92.558
 L -136.312,-92.7322 L -136.147,-92.8869 L -135.964,-93.0198 L -135.766,-93.1287 L -135.556,-93.2119 L -135.337,-93.2681
 L -135.113,-93.2964 L -134.887,-93.2964 L -134.663,-93.2681 L -134.444,-93.2119 L -134.234,-93.1287 L -134.036,-93.0198
 L -133.853,-92.8869 L -133.688,-92.7322 L -133.544,-92.558 L -133.423,-92.3672 L -133.326,-92.1626 L -133.257,-91.9476
 L -133.214,-91.7256 L -133.2,-91.5 L -133.214,-91.2744 L -133.257,-91.0524 L -133.326,-90.8374 L -133.423,-90.6328
 L -133.544,-90.442 L -133.688,-90.2678 L -133.853,-90.1131 L -134.036,-89.9802 L -134.234,-89.8713 L -134.444,-89.7881
 L -134.663,-89.7319 L -134.887,-89.7036 z
M -135.113,-44.7036 L -135.337,-44.7319 L -135.556,-44.7881 L -135.766,-44.8713 L -135.964,-44.9802 L -136.147,-45.1131
 L -136.312,-45.2678 L -136.456,-45.442 L -136.577,-45.6328 L -136.674,-45.8374 L -136.743,-46.0524 L -136.786,-46.2744
 L -136.8,-46.5 L -136.786,-46.7256 L -136.743,-46.9476 L -136.674,-47.1626 L -136.577,-47.3672 L -136.456,-47.558
 L -136.312,-47.7322 L -136.147,-47.8869 L -135.964,-48.0198 L -135.766,-48.1287 L -135.556,-48.2119 L -135.337,-48.2681
 L -135.113,-48.2964 L -134.887,-48.2964 L -134.663,-48.2681 L -134.444,-48.2119 L -134.234,-48.1287 L -134.036,-48.0198
 L -133.853,-47.8869 L -133.688,-47.7322 L -133.544,-47.558 L -133.423,-47.3672 L -133.326,-47.1626 L -133.257,-46.9476
 L -133.214,-46.7256 L -133.2,-46.5 L -133.214,-46.2744 L -133.257,-46.0524 L -133.326,-45.8374 L -133.423,-45.6328
 L -133.544,-45.442 L -133.688,-45.2678 L -133.853,-45.1131 L -134.036,-44.9802 L -134.234,-44.8713 L -134.444,-44.7881
 L -134.663,-44.7319 L -134.887,-44.7036 z
M 134.887,-44.7036 L 134.663,-44.7319 L 134.444,-44.7881 L 134.234,-44.8713 L 134.036,-44.9802 L 133.853,-45.1131
 L 133.688,-45.2678 L 133.544,-45.442 L 133.423,-45.6328 L 133.326,-45.8374 L 133.257,-46.0524 L 133.214,-46.2744
 L 133.2,-46.5 L 133.214,-46.7256 L 133.257,-46.9476 L 133.326,-47.1626 L 133.423,-47.3672 L 133.544,-47.558
 L 133.688,-47.7322 L 133.853,-47.8869 L 134.036,-48.0198 L 134.234,-48.1287 L 134.444,-48.2119 L 134.663,-48.2681
 L 134.887,-48.2964 L 135.113,-48.2964 L 135.337,-48.2681 L 135.556,-48.2119 L 135.766,-48.1287 L 135.964,-48.0198
 L 136.147,-47.8869 L 136.312,-47.7322 L 136.456,-47.558 L 136.577,-47.3672 L 136.674,-47.1626 L 136.743,-46.9476
 L 136.786,-46.7256 L 136.8,-46.5 L 136.786,-46.2744 L 136.743,-46.0524 L 136.674,-45.8374 L 136.577,-45.6328
 L 136.456,-45.442 L 136.312,-45.2678 L 136.147,-45.1131 L 135.964,-44.9802 L 135.766,-44.8713 L 135.556,-44.7881
 L 135.337,-44.7319 L 135.113,-44.7036 z
" stroke="black" fill="lightgray" stroke-width="0.5"/>
</svg>
