  0
SECTION
  2
BLOCKS
  0
ENDSEC
  0
SECTION
  2
ENTITIES
  0
LINE
  8
0
 10
2.01434
 20
429.44
 11
3.32193
 21
429.776
  0
LINE
  8
0
 10
3.32193
 20
429.776
 11
4.57712
 21
430.273
  0
LINE
  8
0
 10
4.57712
 20
430.273
 11
5.76013
 21
430.923
  0
LINE
  8
0
 10
5.76013
 20
430.923
 11
6.85229
 21
431.717
  0
LINE
  8
0
 10
6.85229
 20
431.717
 11
7.83641
 21
432.641
  0
LINE
  8
0
 10
7.83641
 20
432.641
 11
8.69693
 21
433.681
  0
LINE
  8
0
 10
8.69693
 20
433.681
 11
9.42029
 21
434.821
  0
LINE
  8
0
 10
9.42029
 20
434.821
 11
9.99509
 21
436.043
  0
LINE
  8
0
 10
9.99509
 20
436.043
 11
10.4123
 21
437.327
  0
LINE
  8
0
 10
10.4123
 20
437.327
 11
10.6652
 21
438.653
  0
LINE
  8
0
 10
10.6652
 20
438.653
 11
10.75
 21
440
  0
LINE
  8
0
 10
10.75
 20
440
 11
10.6652
 21
441.347
  0
LINE
  8
0
 10
10.6652
 20
441.347
 11
10.4123
 21
442.673
  0
LINE
  8
0
 10
10.4123
 20
442.673
 11
9.99509
 21
443.957
  0
LINE
  8
0
 10
9.99509
 20
443.957
 11
9.42029
 21
445.179
  0
LINE
  8
0
 10
9.42029
 20
445.179
 11
8.69693
 21
446.319
  0
LINE
  8
0
 10
8.69693
 20
446.319
 11
7.83641
 21
447.359
  0
LINE
  8
0
 10
7.83641
 20
447.359
 11
6.85229
 21
448.283
  0
LINE
  8
0
 10
6.85229
 20
448.283
 11
5.76013
 21
449.077
  0
LINE
  8
0
 10
5.76013
 20
449.077
 11
4.57712
 21
449.727
  0
LINE
  8
0
 10
4.57712
 20
449.727
 11
3.32193
 21
450.224
  0
LINE
  8
0
 10
3.32193
 20
450.224
 11
2.01434
 21
450.56
  0
LINE
  8
0
 10
2.01434
 20
450.56
 11
0.674988
 21
450.729
  0
LINE
  8
0
 10
0.674988
 20
450.729
 11
-0.674988
 21
450.729
  0
LINE
  8
0
 10
-0.674988
 20
450.729
 11
-2.01434
 21
450.56
  0
LINE
  8
0
 10
-2.01434
 20
450.56
 11
-3.32193
 21
450.224
  0
LINE
  8
0
 10
-3.32193
 20
450.224
 11
-4.57712
 21
449.727
  0
LINE
  8
0
 10
-4.57712
 20
449.727
 11
-5.76013
 21
449.077
  0
LINE
  8
0
 10
-5.76013
 20
449.077
 11
-6.85229
 21
448.283
  0
LINE
  8
0
 10
-6.85229
 20
448.283
 11
-7.83641
 21
447.359
  0
LINE
  8
0
 10
-7.83641
 20
447.359
 11
-8.69693
 21
446.319
  0
LINE
  8
0
 10
-8.69693
 20
446.319
 11
-9.42029
 21
445.179
  0
LINE
  8
0
 10
-9.42029
 20
445.179
 11
-9.99509
 21
443.957
  0
LINE
  8
0
 10
-9.99509
 20
443.957
 11
-10.4123
 21
442.673
  0
LINE
  8
0
 10
-10.4123
 20
442.673
 11
-10.6652
 21
441.347
  0
LINE
  8
0
 10
-10.6652
 20
441.347
 11
-10.75
 21
440
  0
LINE
  8
0
 10
-10.75
 20
440
 11
-10.6652
 21
438.653
  0
LINE
  8
0
 10
-10.6652
 20
438.653
 11
-10.4123
 21
437.327
  0
LINE
  8
0
 10
-10.4123
 20
437.327
 11
-9.99509
 21
436.043
  0
LINE
  8
0
 10
-9.99509
 20
436.043
 11
-9.42029
 21
434.821
  0
LINE
  8
0
 10
-9.42029
 20
434.821
 11
-8.69693
 21
433.681
  0
LINE
  8
0
 10
-8.69693
 20
433.681
 11
-7.83641
 21
432.641
  0
LINE
  8
0
 10
-7.83641
 20
432.641
 11
-6.85229
 21
431.717
  0
LINE
  8
0
 10
-6.85229
 20
431.717
 11
-5.76013
 21
430.923
  0
LINE
  8
0
 10
-5.76013
 20
430.923
 11
-4.57712
 21
430.273
  0
LINE
  8
0
 10
-4.57712
 20
430.273
 11
-3.32193
 21
429.776
  0
LINE
  8
0
 10
-3.32193
 20
429.776
 11
-2.01434
 21
429.44
  0
LINE
  8
0
 10
-2.01434
 20
429.44
 11
-0.674988
 21
429.271
  0
LINE
  8
0
 10
-0.674988
 20
429.271
 11
0.674988
 21
429.271
  0
LINE
  8
0
 10
0.674988
 20
429.271
 11
2.01434
 21
429.44
  0
LINE
  8
0
 10
-0.0941772
 20
446.003
 11
-0.281067
 21
446.027
  0
LINE
  8
0
 10
-0.281067
 20
446.027
 11
-0.463516
 21
446.073
  0
LINE
  8
0
 10
-0.463516
 20
446.073
 11
-0.638657
 21
446.143
  0
LINE
  8
0
 10
-0.638657
 20
446.143
 11
-0.803726
 21
446.234
  0
LINE
  8
0
 10
-0.803726
 20
446.234
 11
-0.956131
 21
446.344
  0
LINE
  8
0
 10
-0.956131
 20
446.344
 11
-1.09344
 21
446.473
  0
LINE
  8
0
 10
-1.09344
 20
446.473
 11
-1.21352
 21
446.618
  0
LINE
  8
0
 10
-1.21352
 20
446.618
 11
-1.31445
 21
446.777
  0
LINE
  8
0
 10
-1.31445
 20
446.777
 11
-1.39465
 21
446.948
  0
LINE
  8
0
 10
-1.39465
 20
446.948
 11
-1.45287
 21
447.127
  0
LINE
  8
0
 10
-1.45287
 20
447.127
 11
-1.48816
 21
447.312
  0
LINE
  8
0
 10
-1.48816
 20
447.312
 11
-1.5
 21
447.5
  0
LINE
  8
0
 10
-1.5
 20
447.5
 11
-1.48816
 21
447.688
  0
LINE
  8
0
 10
-1.48816
 20
447.688
 11
-1.45287
 21
447.873
  0
LINE
  8
0
 10
-1.45287
 20
447.873
 11
-1.39465
 21
448.052
  0
LINE
  8
0
 10
-1.39465
 20
448.052
 11
-1.31445
 21
448.223
  0
LINE
  8
0
 10
-1.31445
 20
448.223
 11
-1.21352
 21
448.382
  0
LINE
  8
0
 10
-1.21352
 20
448.382
 11
-1.09344
 21
448.527
  0
LINE
  8
0
 10
-1.09344
 20
448.527
 11
-0.956131
 21
448.656
  0
LINE
  8
0
 10
-0.956131
 20
448.656
 11
-0.803726
 21
448.766
  0
LINE
  8
0
 10
-0.803726
 20
448.766
 11
-0.638657
 21
448.857
  0
LINE
  8
0
 10
-0.638657
 20
448.857
 11
-0.463516
 21
448.927
  0
LINE
  8
0
 10
-0.463516
 20
448.927
 11
-0.281067
 21
448.973
  0
LINE
  8
0
 10
-0.281067
 20
448.973
 11
-0.0941772
 21
448.997
  0
LINE
  8
0
 10
-0.0941772
 20
448.997
 11
0.0941772
 21
448.997
  0
LINE
  8
0
 10
0.0941772
 20
448.997
 11
0.281067
 21
448.973
  0
LINE
  8
0
 10
0.281067
 20
448.973
 11
0.463516
 21
448.927
  0
LINE
  8
0
 10
0.463516
 20
448.927
 11
0.638657
 21
448.857
  0
LINE
  8
0
 10
0.638657
 20
448.857
 11
0.803726
 21
448.766
  0
LINE
  8
0
 10
0.803726
 20
448.766
 11
0.956131
 21
448.656
  0
LINE
  8
0
 10
0.956131
 20
448.656
 11
1.09344
 21
448.527
  0
LINE
  8
0
 10
1.09344
 20
448.527
 11
1.21352
 21
448.382
  0
LINE
  8
0
 10
1.21352
 20
448.382
 11
1.31445
 21
448.223
  0
LINE
  8
0
 10
1.31445
 20
448.223
 11
1.39465
 21
448.052
  0
LINE
  8
0
 10
1.39465
 20
448.052
 11
1.45287
 21
447.873
  0
LINE
  8
0
 10
1.45287
 20
447.873
 11
1.48816
 21
447.688
  0
LINE
  8
0
 10
1.48816
 20
447.688
 11
1.5
 21
447.5
  0
LINE
  8
0
 10
1.5
 20
447.5
 11
1.48816
 21
447.312
  0
LINE
  8
0
 10
1.48816
 20
447.312
 11
1.45287
 21
447.127
  0
LINE
  8
0
 10
1.45287
 20
447.127
 11
1.39465
 21
446.948
  0
LINE
  8
0
 10
1.39465
 20
446.948
 11
1.31445
 21
446.777
  0
LINE
  8
0
 10
1.31445
 20
446.777
 11
1.21352
 21
446.618
  0
LINE
  8
0
 10
1.21352
 20
446.618
 11
1.09344
 21
446.473
  0
LINE
  8
0
 10
1.09344
 20
446.473
 11
0.956131
 21
446.344
  0
LINE
  8
0
 10
0.956131
 20
446.344
 11
0.803726
 21
446.234
  0
LINE
  8
0
 10
0.803726
 20
446.234
 11
0.638657
 21
446.143
  0
LINE
  8
0
 10
0.638657
 20
446.143
 11
0.463516
 21
446.073
  0
LINE
  8
0
 10
0.463516
 20
446.073
 11
0.281067
 21
446.027
  0
LINE
  8
0
 10
0.281067
 20
446.027
 11
0.0941772
 21
446.003
  0
LINE
  8
0
 10
0.0941772
 20
446.003
 11
-0.0941772
 21
446.003
  0
LINE
  8
0
 10
-0.18837
 20
437.006
 11
-0.562134
 21
437.053
  0
LINE
  8
0
 10
-0.562134
 20
437.053
 11
-0.927048
 21
437.147
  0
LINE
  8
0
 10
-0.927048
 20
437.147
 11
-1.27733
 21
437.286
  0
LINE
  8
0
 10
-1.27733
 20
437.286
 11
-1.60747
 21
437.467
  0
LINE
  8
0
 10
-1.60747
 20
437.467
 11
-1.91226
 21
437.688
  0
LINE
  8
0
 10
-1.91226
 20
437.688
 11
-2.1869
 21
437.946
  0
LINE
  8
0
 10
-2.1869
 20
437.946
 11
-2.42705
 21
438.237
  0
LINE
  8
0
 10
-2.42705
 20
438.237
 11
-2.62891
 21
438.555
  0
LINE
  8
0
 10
-2.62891
 20
438.555
 11
-2.78932
 21
438.896
  0
LINE
  8
0
 10
-2.78932
 20
438.896
 11
-2.90575
 21
439.254
  0
LINE
  8
0
 10
-2.90575
 20
439.254
 11
-2.97633
 21
439.624
  0
LINE
  8
0
 10
-2.97633
 20
439.624
 11
-3
 21
440
  0
LINE
  8
0
 10
-3
 20
440
 11
-2.97633
 21
440.376
  0
LINE
  8
0
 10
-2.97633
 20
440.376
 11
-2.90575
 21
440.746
  0
LINE
  8
0
 10
-2.90575
 20
440.746
 11
-2.78932
 21
441.104
  0
LINE
  8
0
 10
-2.78932
 20
441.104
 11
-2.62891
 21
441.445
  0
LINE
  8
0
 10
-2.62891
 20
441.445
 11
-2.42705
 21
441.763
  0
LINE
  8
0
 10
-2.42705
 20
441.763
 11
-2.1869
 21
442.054
  0
LINE
  8
0
 10
-2.1869
 20
442.054
 11
-1.91226
 21
442.312
  0
LINE
  8
0
 10
-1.91226
 20
442.312
 11
-1.60747
 21
442.533
  0
LINE
  8
0
 10
-1.60747
 20
442.533
 11
-1.27733
 21
442.714
  0
LINE
  8
0
 10
-1.27733
 20
442.714
 11
-0.927048
 21
442.853
  0
LINE
  8
0
 10
-0.927048
 20
442.853
 11
-0.562134
 21
442.947
  0
LINE
  8
0
 10
-0.562134
 20
442.947
 11
-0.18837
 21
442.994
  0
LINE
  8
0
 10
-0.18837
 20
442.994
 11
0.18837
 21
442.994
  0
LINE
  8
0
 10
0.18837
 20
442.994
 11
0.562134
 21
442.947
  0
LINE
  8
0
 10
0.562134
 20
442.947
 11
0.927048
 21
442.853
  0
LINE
  8
0
 10
0.927048
 20
442.853
 11
1.27733
 21
442.714
  0
LINE
  8
0
 10
1.27733
 20
442.714
 11
1.60747
 21
442.533
  0
LINE
  8
0
 10
1.60747
 20
442.533
 11
1.91226
 21
442.312
  0
LINE
  8
0
 10
1.91226
 20
442.312
 11
2.1869
 21
442.054
  0
LINE
  8
0
 10
2.1869
 20
442.054
 11
2.42705
 21
441.763
  0
LINE
  8
0
 10
2.42705
 20
441.763
 11
2.62891
 21
441.445
  0
LINE
  8
0
 10
2.62891
 20
441.445
 11
2.78932
 21
441.104
  0
LINE
  8
0
 10
2.78932
 20
441.104
 11
2.90575
 21
440.746
  0
LINE
  8
0
 10
2.90575
 20
440.746
 11
2.97633
 21
440.376
  0
LINE
  8
0
 10
2.97633
 20
440.376
 11
3
 21
440
  0
LINE
  8
0
 10
3
 20
440
 11
2.97633
 21
439.624
  0
LINE
  8
0
 10
2.97633
 20
439.624
 11
2.90575
 21
439.254
  0
LINE
  8
0
 10
2.90575
 20
439.254
 11
2.78932
 21
438.896
  0
LINE
  8
0
 10
2.78932
 20
438.896
 11
2.62891
 21
438.555
  0
LINE
  8
0
 10
2.62891
 20
438.555
 11
2.42705
 21
438.237
  0
LINE
  8
0
 10
2.42705
 20
438.237
 11
2.1869
 21
437.946
  0
LINE
  8
0
 10
2.1869
 20
437.946
 11
1.91226
 21
437.688
  0
LINE
  8
0
 10
1.91226
 20
437.688
 11
1.60747
 21
437.467
  0
LINE
  8
0
 10
1.60747
 20
437.467
 11
1.27733
 21
437.286
  0
LINE
  8
0
 10
1.27733
 20
437.286
 11
0.927048
 21
437.147
  0
LINE
  8
0
 10
0.927048
 20
437.147
 11
0.562134
 21
437.053
  0
LINE
  8
0
 10
0.562134
 20
437.053
 11
0.18837
 21
437.006
  0
LINE
  8
0
 10
0.18837
 20
437.006
 11
-0.18837
 21
437.006
  0
LINE
  8
0
 10
7.40581
 20
438.503
 11
7.21892
 21
438.527
  0
LINE
  8
0
 10
7.21892
 20
438.527
 11
7.03647
 21
438.573
  0
LINE
  8
0
 10
7.03647
 20
438.573
 11
6.86133
 21
438.643
  0
LINE
  8
0
 10
6.86133
 20
438.643
 11
6.69626
 21
438.734
  0
LINE
  8
0
 10
6.69626
 20
438.734
 11
6.54385
 21
438.844
  0
LINE
  8
0
 10
6.54385
 20
438.844
 11
6.40654
 21
438.973
  0
LINE
  8
0
 10
6.40654
 20
438.973
 11
6.28647
 21
439.118
  0
LINE
  8
0
 10
6.28647
 20
439.118
 11
6.18553
 21
439.277
  0
LINE
  8
0
 10
6.18553
 20
439.277
 11
6.10533
 21
439.448
  0
LINE
  8
0
 10
6.10533
 20
439.448
 11
6.04712
 21
439.627
  0
LINE
  8
0
 10
6.04712
 20
439.627
 11
6.01183
 21
439.812
  0
LINE
  8
0
 10
6.01183
 20
439.812
 11
6
 21
440
  0
LINE
  8
0
 10
6
 20
440
 11
6.01183
 21
440.188
  0
LINE
  8
0
 10
6.01183
 20
440.188
 11
6.04712
 21
440.373
  0
LINE
  8
0
 10
6.04712
 20
440.373
 11
6.10533
 21
440.552
  0
LINE
  8
0
 10
6.10533
 20
440.552
 11
6.18553
 21
440.723
  0
LINE
  8
0
 10
6.18553
 20
440.723
 11
6.28647
 21
440.882
  0
LINE
  8
0
 10
6.28647
 20
440.882
 11
6.40654
 21
441.027
  0
LINE
  8
0
 10
6.40654
 20
441.027
 11
6.54385
 21
441.156
  0
LINE
  8
0
 10
6.54385
 20
441.156
 11
6.69626
 21
441.266
  0
LINE
  8
0
 10
6.69626
 20
441.266
 11
6.86133
 21
441.357
  0
LINE
  8
0
 10
6.86133
 20
441.357
 11
7.03647
 21
441.427
  0
LINE
  8
0
 10
7.03647
 20
441.427
 11
7.21892
 21
441.473
  0
LINE
  8
0
 10
7.21892
 20
441.473
 11
7.40581
 21
441.497
  0
LINE
  8
0
 10
7.40581
 20
441.497
 11
7.59418
 21
441.497
  0
LINE
  8
0
 10
7.59418
 20
441.497
 11
7.78107
 21
441.473
  0
LINE
  8
0
 10
7.78107
 20
441.473
 11
7.96352
 21
441.427
  0
LINE
  8
0
 10
7.96352
 20
441.427
 11
8.13866
 21
441.357
  0
LINE
  8
0
 10
8.13866
 20
441.357
 11
8.30373
 21
441.266
  0
LINE
  8
0
 10
8.30373
 20
441.266
 11
8.45613
 21
441.156
  0
LINE
  8
0
 10
8.45613
 20
441.156
 11
8.59344
 21
441.027
  0
LINE
  8
0
 10
8.59344
 20
441.027
 11
8.71352
 21
440.882
  0
LINE
  8
0
 10
8.71352
 20
440.882
 11
8.81445
 21
440.723
  0
LINE
  8
0
 10
8.81445
 20
440.723
 11
8.89465
 21
440.552
  0
LINE
  8
0
 10
8.89465
 20
440.552
 11
8.95287
 21
440.373
  0
LINE
  8
0
 10
8.95287
 20
440.373
 11
8.98816
 21
440.188
  0
LINE
  8
0
 10
8.98816
 20
440.188
 11
9
 21
440
  0
LINE
  8
0
 10
9
 20
440
 11
8.98816
 21
439.812
  0
LINE
  8
0
 10
8.98816
 20
439.812
 11
8.95287
 21
439.627
  0
LINE
  8
0
 10
8.95287
 20
439.627
 11
8.89465
 21
439.448
  0
LINE
  8
0
 10
8.89465
 20
439.448
 11
8.81445
 21
439.277
  0
LINE
  8
0
 10
8.81445
 20
439.277
 11
8.71352
 21
439.118
  0
LINE
  8
0
 10
8.71352
 20
439.118
 11
8.59344
 21
438.973
  0
LINE
  8
0
 10
8.59344
 20
438.973
 11
8.45613
 21
438.844
  0
LINE
  8
0
 10
8.45613
 20
438.844
 11
8.30373
 21
438.734
  0
LINE
  8
0
 10
8.30373
 20
438.734
 11
8.13866
 21
438.643
  0
LINE
  8
0
 10
8.13866
 20
438.643
 11
7.96352
 21
438.573
  0
LINE
  8
0
 10
7.96352
 20
438.573
 11
7.78107
 21
438.527
  0
LINE
  8
0
 10
7.78107
 20
438.527
 11
7.59418
 21
438.503
  0
LINE
  8
0
 10
7.59418
 20
438.503
 11
7.40581
 21
438.503
  0
LINE
  8
0
 10
-7.59418
 20
438.503
 11
-7.78107
 21
438.527
  0
LINE
  8
0
 10
-7.78107
 20
438.527
 11
-7.96352
 21
438.573
  0
LINE
  8
0
 10
-7.96352
 20
438.573
 11
-8.13866
 21
438.643
  0
LINE
  8
0
 10
-8.13866
 20
438.643
 11
-8.30373
 21
438.734
  0
LINE
  8
0
 10
-8.30373
 20
438.734
 11
-8.45613
 21
438.844
  0
LINE
  8
0
 10
-8.45613
 20
438.844
 11
-8.59344
 21
438.973
  0
LINE
  8
0
 10
-8.59344
 20
438.973
 11
-8.71352
 21
439.118
  0
LINE
  8
0
 10
-8.71352
 20
439.118
 11
-8.81445
 21
439.277
  0
LINE
  8
0
 10
-8.81445
 20
439.277
 11
-8.89465
 21
439.448
  0
LINE
  8
0
 10
-8.89465
 20
439.448
 11
-8.95287
 21
439.627
  0
LINE
  8
0
 10
-8.95287
 20
439.627
 11
-8.98816
 21
439.812
  0
LINE
  8
0
 10
-8.98816
 20
439.812
 11
-9
 21
440
  0
LINE
  8
0
 10
-9
 20
440
 11
-8.98816
 21
440.188
  0
LINE
  8
0
 10
-8.98816
 20
440.188
 11
-8.95287
 21
440.373
  0
LINE
  8
0
 10
-8.95287
 20
440.373
 11
-8.89465
 21
440.552
  0
LINE
  8
0
 10
-8.89465
 20
440.552
 11
-8.81445
 21
440.723
  0
LINE
  8
0
 10
-8.81445
 20
440.723
 11
-8.71352
 21
440.882
  0
LINE
  8
0
 10
-8.71352
 20
440.882
 11
-8.59344
 21
441.027
  0
LINE
  8
0
 10
-8.59344
 20
441.027
 11
-8.45613
 21
441.156
  0
LINE
  8
0
 10
-8.45613
 20
441.156
 11
-8.30373
 21
441.266
  0
LINE
  8
0
 10
-8.30373
 20
441.266
 11
-8.13866
 21
441.357
  0
LINE
  8
0
 10
-8.13866
 20
441.357
 11
-7.96352
 21
441.427
  0
LINE
  8
0
 10
-7.96352
 20
441.427
 11
-7.78107
 21
441.473
  0
LINE
  8
0
 10
-7.78107
 20
441.473
 11
-7.59418
 21
441.497
  0
LINE
  8
0
 10
-7.59418
 20
441.497
 11
-7.40581
 21
441.497
  0
LINE
  8
0
 10
-7.40581
 20
441.497
 11
-7.21892
 21
441.473
  0
LINE
  8
0
 10
-7.21892
 20
441.473
 11
-7.03647
 21
441.427
  0
LINE
  8
0
 10
-7.03647
 20
441.427
 11
-6.86133
 21
441.357
  0
LINE
  8
0
 10
-6.86133
 20
441.357
 11
-6.69626
 21
441.266
  0
LINE
  8
0
 10
-6.69626
 20
441.266
 11
-6.54385
 21
441.156
  0
LINE
  8
0
 10
-6.54385
 20
441.156
 11
-6.40654
 21
441.027
  0
LINE
  8
0
 10
-6.40654
 20
441.027
 11
-6.28647
 21
440.882
  0
LINE
  8
0
 10
-6.28647
 20
440.882
 11
-6.18553
 21
440.723
  0
LINE
  8
0
 10
-6.18553
 20
440.723
 11
-6.10533
 21
440.552
  0
LINE
  8
0
 10
-6.10533
 20
440.552
 11
-6.04712
 21
440.373
  0
LINE
  8
0
 10
-6.04712
 20
440.373
 11
-6.01183
 21
440.188
  0
LINE
  8
0
 10
-6.01183
 20
440.188
 11
-6
 21
440
  0
LINE
  8
0
 10
-6
 20
440
 11
-6.01183
 21
439.812
  0
LINE
  8
0
 10
-6.01183
 20
439.812
 11
-6.04712
 21
439.627
  0
LINE
  8
0
 10
-6.04712
 20
439.627
 11
-6.10533
 21
439.448
  0
LINE
  8
0
 10
-6.10533
 20
439.448
 11
-6.18553
 21
439.277
  0
LINE
  8
0
 10
-6.18553
 20
439.277
 11
-6.28647
 21
439.118
  0
LINE
  8
0
 10
-6.28647
 20
439.118
 11
-6.40654
 21
438.973
  0
LINE
  8
0
 10
-6.40654
 20
438.973
 11
-6.54385
 21
438.844
  0
LINE
  8
0
 10
-6.54385
 20
438.844
 11
-6.69626
 21
438.734
  0
LINE
  8
0
 10
-6.69626
 20
438.734
 11
-6.86133
 21
438.643
  0
LINE
  8
0
 10
-6.86133
 20
438.643
 11
-7.03647
 21
438.573
  0
LINE
  8
0
 10
-7.03647
 20
438.573
 11
-7.21892
 21
438.527
  0
LINE
  8
0
 10
-7.21892
 20
438.527
 11
-7.40581
 21
438.503
  0
LINE
  8
0
 10
-7.40581
 20
438.503
 11
-7.59418
 21
438.503
  0
LINE
  8
0
 10
-0.0941772
 20
431.003
 11
-0.281067
 21
431.027
  0
LINE
  8
0
 10
-0.281067
 20
431.027
 11
-0.463516
 21
431.073
  0
LINE
  8
0
 10
-0.463516
 20
431.073
 11
-0.638657
 21
431.143
  0
LINE
  8
0
 10
-0.638657
 20
431.143
 11
-0.803726
 21
431.234
  0
LINE
  8
0
 10
-0.803726
 20
431.234
 11
-0.956131
 21
431.344
  0
LINE
  8
0
 10
-0.956131
 20
431.344
 11
-1.09344
 21
431.473
  0
LINE
  8
0
 10
-1.09344
 20
431.473
 11
-1.21352
 21
431.618
  0
LINE
  8
0
 10
-1.21352
 20
431.618
 11
-1.31445
 21
431.777
  0
LINE
  8
0
 10
-1.31445
 20
431.777
 11
-1.39465
 21
431.948
  0
LINE
  8
0
 10
-1.39465
 20
431.948
 11
-1.45287
 21
432.127
  0
LINE
  8
0
 10
-1.45287
 20
432.127
 11
-1.48816
 21
432.312
  0
LINE
  8
0
 10
-1.48816
 20
432.312
 11
-1.5
 21
432.5
  0
LINE
  8
0
 10
-1.5
 20
432.5
 11
-1.48816
 21
432.688
  0
LINE
  8
0
 10
-1.48816
 20
432.688
 11
-1.45287
 21
432.873
  0
LINE
  8
0
 10
-1.45287
 20
432.873
 11
-1.39465
 21
433.052
  0
LINE
  8
0
 10
-1.39465
 20
433.052
 11
-1.31445
 21
433.223
  0
LINE
  8
0
 10
-1.31445
 20
433.223
 11
-1.21352
 21
433.382
  0
LINE
  8
0
 10
-1.21352
 20
433.382
 11
-1.09344
 21
433.527
  0
LINE
  8
0
 10
-1.09344
 20
433.527
 11
-0.956131
 21
433.656
  0
LINE
  8
0
 10
-0.956131
 20
433.656
 11
-0.803726
 21
433.766
  0
LINE
  8
0
 10
-0.803726
 20
433.766
 11
-0.638657
 21
433.857
  0
LINE
  8
0
 10
-0.638657
 20
433.857
 11
-0.463516
 21
433.927
  0
LINE
  8
0
 10
-0.463516
 20
433.927
 11
-0.281067
 21
433.973
  0
LINE
  8
0
 10
-0.281067
 20
433.973
 11
-0.0941772
 21
433.997
  0
LINE
  8
0
 10
-0.0941772
 20
433.997
 11
0.0941772
 21
433.997
  0
LINE
  8
0
 10
0.0941772
 20
433.997
 11
0.281067
 21
433.973
  0
LINE
  8
0
 10
0.281067
 20
433.973
 11
0.463516
 21
433.927
  0
LINE
  8
0
 10
0.463516
 20
433.927
 11
0.638657
 21
433.857
  0
LINE
  8
0
 10
0.638657
 20
433.857
 11
0.803726
 21
433.766
  0
LINE
  8
0
 10
0.803726
 20
433.766
 11
0.956131
 21
433.656
  0
LINE
  8
0
 10
0.956131
 20
433.656
 11
1.09344
 21
433.527
  0
LINE
  8
0
 10
1.09344
 20
433.527
 11
1.21352
 21
433.382
  0
LINE
  8
0
 10
1.21352
 20
433.382
 11
1.31445
 21
433.223
  0
LINE
  8
0
 10
1.31445
 20
433.223
 11
1.39465
 21
433.052
  0
LINE
  8
0
 10
1.39465
 20
433.052
 11
1.45287
 21
432.873
  0
LINE
  8
0
 10
1.45287
 20
432.873
 11
1.48816
 21
432.688
  0
LINE
  8
0
 10
1.48816
 20
432.688
 11
1.5
 21
432.5
  0
LINE
  8
0
 10
1.5
 20
432.5
 11
1.48816
 21
432.312
  0
LINE
  8
0
 10
1.48816
 20
432.312
 11
1.45287
 21
432.127
  0
LINE
  8
0
 10
1.45287
 20
432.127
 11
1.39465
 21
431.948
  0
LINE
  8
0
 10
1.39465
 20
431.948
 11
1.31445
 21
431.777
  0
LINE
  8
0
 10
1.31445
 20
431.777
 11
1.21352
 21
431.618
  0
LINE
  8
0
 10
1.21352
 20
431.618
 11
1.09344
 21
431.473
  0
LINE
  8
0
 10
1.09344
 20
431.473
 11
0.956131
 21
431.344
  0
LINE
  8
0
 10
0.956131
 20
431.344
 11
0.803726
 21
431.234
  0
LINE
  8
0
 10
0.803726
 20
431.234
 11
0.638657
 21
431.143
  0
LINE
  8
0
 10
0.638657
 20
431.143
 11
0.463516
 21
431.073
  0
LINE
  8
0
 10
0.463516
 20
431.073
 11
0.281067
 21
431.027
  0
LINE
  8
0
 10
0.281067
 20
431.027
 11
0.0941772
 21
431.003
  0
LINE
  8
0
 10
0.0941772
 20
431.003
 11
-0.0941772
 21
431.003
  0
LINE
  8
0
 10
2.01434
 20
319.44
 11
3.32193
 21
319.776
  0
LINE
  8
0
 10
3.32193
 20
319.776
 11
4.57712
 21
320.273
  0
LINE
  8
0
 10
4.57712
 20
320.273
 11
5.76013
 21
320.923
  0
LINE
  8
0
 10
5.76013
 20
320.923
 11
6.85229
 21
321.717
  0
LINE
  8
0
 10
6.85229
 20
321.717
 11
7.83641
 21
322.641
  0
LINE
  8
0
 10
7.83641
 20
322.641
 11
8.69693
 21
323.681
  0
LINE
  8
0
 10
8.69693
 20
323.681
 11
9.42029
 21
324.821
  0
LINE
  8
0
 10
9.42029
 20
324.821
 11
9.99509
 21
326.043
  0
LINE
  8
0
 10
9.99509
 20
326.043
 11
10.4123
 21
327.327
  0
LINE
  8
0
 10
10.4123
 20
327.327
 11
10.6652
 21
328.653
  0
LINE
  8
0
 10
10.6652
 20
328.653
 11
10.75
 21
330
  0
LINE
  8
0
 10
10.75
 20
330
 11
10.6652
 21
331.347
  0
LINE
  8
0
 10
10.6652
 20
331.347
 11
10.4123
 21
332.673
  0
LINE
  8
0
 10
10.4123
 20
332.673
 11
9.99509
 21
333.957
  0
LINE
  8
0
 10
9.99509
 20
333.957
 11
9.42029
 21
335.179
  0
LINE
  8
0
 10
9.42029
 20
335.179
 11
8.69693
 21
336.319
  0
LINE
  8
0
 10
8.69693
 20
336.319
 11
7.83641
 21
337.359
  0
LINE
  8
0
 10
7.83641
 20
337.359
 11
6.85229
 21
338.283
  0
LINE
  8
0
 10
6.85229
 20
338.283
 11
5.76013
 21
339.077
  0
LINE
  8
0
 10
5.76013
 20
339.077
 11
4.57712
 21
339.727
  0
LINE
  8
0
 10
4.57712
 20
339.727
 11
3.32193
 21
340.224
  0
LINE
  8
0
 10
3.32193
 20
340.224
 11
2.01434
 21
340.56
  0
LINE
  8
0
 10
2.01434
 20
340.56
 11
0.674988
 21
340.729
  0
LINE
  8
0
 10
0.674988
 20
340.729
 11
-0.674988
 21
340.729
  0
LINE
  8
0
 10
-0.674988
 20
340.729
 11
-2.01434
 21
340.56
  0
LINE
  8
0
 10
-2.01434
 20
340.56
 11
-3.32193
 21
340.224
  0
LINE
  8
0
 10
-3.32193
 20
340.224
 11
-4.57712
 21
339.727
  0
LINE
  8
0
 10
-4.57712
 20
339.727
 11
-5.76013
 21
339.077
  0
LINE
  8
0
 10
-5.76013
 20
339.077
 11
-6.85229
 21
338.283
  0
LINE
  8
0
 10
-6.85229
 20
338.283
 11
-7.83641
 21
337.359
  0
LINE
  8
0
 10
-7.83641
 20
337.359
 11
-8.69693
 21
336.319
  0
LINE
  8
0
 10
-8.69693
 20
336.319
 11
-9.42029
 21
335.179
  0
LINE
  8
0
 10
-9.42029
 20
335.179
 11
-9.99509
 21
333.957
  0
LINE
  8
0
 10
-9.99509
 20
333.957
 11
-10.4123
 21
332.673
  0
LINE
  8
0
 10
-10.4123
 20
332.673
 11
-10.6652
 21
331.347
  0
LINE
  8
0
 10
-10.6652
 20
331.347
 11
-10.75
 21
330
  0
LINE
  8
0
 10
-10.75
 20
330
 11
-10.6652
 21
328.653
  0
LINE
  8
0
 10
-10.6652
 20
328.653
 11
-10.4123
 21
327.327
  0
LINE
  8
0
 10
-10.4123
 20
327.327
 11
-9.99509
 21
326.043
  0
LINE
  8
0
 10
-9.99509
 20
326.043
 11
-9.42029
 21
324.821
  0
LINE
  8
0
 10
-9.42029
 20
324.821
 11
-8.69693
 21
323.681
  0
LINE
  8
0
 10
-8.69693
 20
323.681
 11
-7.83641
 21
322.641
  0
LINE
  8
0
 10
-7.83641
 20
322.641
 11
-6.85229
 21
321.717
  0
LINE
  8
0
 10
-6.85229
 20
321.717
 11
-5.76013
 21
320.923
  0
LINE
  8
0
 10
-5.76013
 20
320.923
 11
-4.57712
 21
320.273
  0
LINE
  8
0
 10
-4.57712
 20
320.273
 11
-3.32193
 21
319.776
  0
LINE
  8
0
 10
-3.32193
 20
319.776
 11
-2.01434
 21
319.44
  0
LINE
  8
0
 10
-2.01434
 20
319.44
 11
-0.674988
 21
319.271
  0
LINE
  8
0
 10
-0.674988
 20
319.271
 11
0.674988
 21
319.271
  0
LINE
  8
0
 10
0.674988
 20
319.271
 11
2.01434
 21
319.44
  0
LINE
  8
0
 10
-0.0941772
 20
336.003
 11
-0.281067
 21
336.027
  0
LINE
  8
0
 10
-0.281067
 20
336.027
 11
-0.463516
 21
336.073
  0
LINE
  8
0
 10
-0.463516
 20
336.073
 11
-0.638657
 21
336.143
  0
LINE
  8
0
 10
-0.638657
 20
336.143
 11
-0.803726
 21
336.234
  0
LINE
  8
0
 10
-0.803726
 20
336.234
 11
-0.956131
 21
336.344
  0
LINE
  8
0
 10
-0.956131
 20
336.344
 11
-1.09344
 21
336.473
  0
LINE
  8
0
 10
-1.09344
 20
336.473
 11
-1.21352
 21
336.618
  0
LINE
  8
0
 10
-1.21352
 20
336.618
 11
-1.31445
 21
336.777
  0
LINE
  8
0
 10
-1.31445
 20
336.777
 11
-1.39465
 21
336.948
  0
LINE
  8
0
 10
-1.39465
 20
336.948
 11
-1.45287
 21
337.127
  0
LINE
  8
0
 10
-1.45287
 20
337.127
 11
-1.48816
 21
337.312
  0
LINE
  8
0
 10
-1.48816
 20
337.312
 11
-1.5
 21
337.5
  0
LINE
  8
0
 10
-1.5
 20
337.5
 11
-1.48816
 21
337.688
  0
LINE
  8
0
 10
-1.48816
 20
337.688
 11
-1.45287
 21
337.873
  0
LINE
  8
0
 10
-1.45287
 20
337.873
 11
-1.39465
 21
338.052
  0
LINE
  8
0
 10
-1.39465
 20
338.052
 11
-1.31445
 21
338.223
  0
LINE
  8
0
 10
-1.31445
 20
338.223
 11
-1.21352
 21
338.382
  0
LINE
  8
0
 10
-1.21352
 20
338.382
 11
-1.09344
 21
338.527
  0
LINE
  8
0
 10
-1.09344
 20
338.527
 11
-0.956131
 21
338.656
  0
LINE
  8
0
 10
-0.956131
 20
338.656
 11
-0.803726
 21
338.766
  0
LINE
  8
0
 10
-0.803726
 20
338.766
 11
-0.638657
 21
338.857
  0
LINE
  8
0
 10
-0.638657
 20
338.857
 11
-0.463516
 21
338.927
  0
LINE
  8
0
 10
-0.463516
 20
338.927
 11
-0.281067
 21
338.973
  0
LINE
  8
0
 10
-0.281067
 20
338.973
 11
-0.0941772
 21
338.997
  0
LINE
  8
0
 10
-0.0941772
 20
338.997
 11
0.0941772
 21
338.997
  0
LINE
  8
0
 10
0.0941772
 20
338.997
 11
0.281067
 21
338.973
  0
LINE
  8
0
 10
0.281067
 20
338.973
 11
0.463516
 21
338.927
  0
LINE
  8
0
 10
0.463516
 20
338.927
 11
0.638657
 21
338.857
  0
LINE
  8
0
 10
0.638657
 20
338.857
 11
0.803726
 21
338.766
  0
LINE
  8
0
 10
0.803726
 20
338.766
 11
0.956131
 21
338.656
  0
LINE
  8
0
 10
0.956131
 20
338.656
 11
1.09344
 21
338.527
  0
LINE
  8
0
 10
1.09344
 20
338.527
 11
1.21352
 21
338.382
  0
LINE
  8
0
 10
1.21352
 20
338.382
 11
1.31445
 21
338.223
  0
LINE
  8
0
 10
1.31445
 20
338.223
 11
1.39465
 21
338.052
  0
LINE
  8
0
 10
1.39465
 20
338.052
 11
1.45287
 21
337.873
  0
LINE
  8
0
 10
1.45287
 20
337.873
 11
1.48816
 21
337.688
  0
LINE
  8
0
 10
1.48816
 20
337.688
 11
1.5
 21
337.5
  0
LINE
  8
0
 10
1.5
 20
337.5
 11
1.48816
 21
337.312
  0
LINE
  8
0
 10
1.48816
 20
337.312
 11
1.45287
 21
337.127
  0
LINE
  8
0
 10
1.45287
 20
337.127
 11
1.39465
 21
336.948
  0
LINE
  8
0
 10
1.39465
 20
336.948
 11
1.31445
 21
336.777
  0
LINE
  8
0
 10
1.31445
 20
336.777
 11
1.21352
 21
336.618
  0
LINE
  8
0
 10
1.21352
 20
336.618
 11
1.09344
 21
336.473
  0
LINE
  8
0
 10
1.09344
 20
336.473
 11
0.956131
 21
336.344
  0
LINE
  8
0
 10
0.956131
 20
336.344
 11
0.803726
 21
336.234
  0
LINE
  8
0
 10
0.803726
 20
336.234
 11
0.638657
 21
336.143
  0
LINE
  8
0
 10
0.638657
 20
336.143
 11
0.463516
 21
336.073
  0
LINE
  8
0
 10
0.463516
 20
336.073
 11
0.281067
 21
336.027
  0
LINE
  8
0
 10
0.281067
 20
336.027
 11
0.0941772
 21
336.003
  0
LINE
  8
0
 10
0.0941772
 20
336.003
 11
-0.0941772
 21
336.003
  0
LINE
  8
0
 10
-0.18837
 20
327.006
 11
-0.562134
 21
327.053
  0
LINE
  8
0
 10
-0.562134
 20
327.053
 11
-0.927048
 21
327.147
  0
LINE
  8
0
 10
-0.927048
 20
327.147
 11
-1.27733
 21
327.286
  0
LINE
  8
0
 10
-1.27733
 20
327.286
 11
-1.60747
 21
327.467
  0
LINE
  8
0
 10
-1.60747
 20
327.467
 11
-1.91226
 21
327.688
  0
LINE
  8
0
 10
-1.91226
 20
327.688
 11
-2.1869
 21
327.946
  0
LINE
  8
0
 10
-2.1869
 20
327.946
 11
-2.42705
 21
328.237
  0
LINE
  8
0
 10
-2.42705
 20
328.237
 11
-2.62891
 21
328.555
  0
LINE
  8
0
 10
-2.62891
 20
328.555
 11
-2.78932
 21
328.896
  0
LINE
  8
0
 10
-2.78932
 20
328.896
 11
-2.90575
 21
329.254
  0
LINE
  8
0
 10
-2.90575
 20
329.254
 11
-2.97633
 21
329.624
  0
LINE
  8
0
 10
-2.97633
 20
329.624
 11
-3
 21
330
  0
LINE
  8
0
 10
-3
 20
330
 11
-2.97633
 21
330.376
  0
LINE
  8
0
 10
-2.97633
 20
330.376
 11
-2.90575
 21
330.746
  0
LINE
  8
0
 10
-2.90575
 20
330.746
 11
-2.78932
 21
331.104
  0
LINE
  8
0
 10
-2.78932
 20
331.104
 11
-2.62891
 21
331.445
  0
LINE
  8
0
 10
-2.62891
 20
331.445
 11
-2.42705
 21
331.763
  0
LINE
  8
0
 10
-2.42705
 20
331.763
 11
-2.1869
 21
332.054
  0
LINE
  8
0
 10
-2.1869
 20
332.054
 11
-1.91226
 21
332.312
  0
LINE
  8
0
 10
-1.91226
 20
332.312
 11
-1.60747
 21
332.533
  0
LINE
  8
0
 10
-1.60747
 20
332.533
 11
-1.27733
 21
332.714
  0
LINE
  8
0
 10
-1.27733
 20
332.714
 11
-0.927048
 21
332.853
  0
LINE
  8
0
 10
-0.927048
 20
332.853
 11
-0.562134
 21
332.947
  0
LINE
  8
0
 10
-0.562134
 20
332.947
 11
-0.18837
 21
332.994
  0
LINE
  8
0
 10
-0.18837
 20
332.994
 11
0.18837
 21
332.994
  0
LINE
  8
0
 10
0.18837
 20
332.994
 11
0.562134
 21
332.947
  0
LINE
  8
0
 10
0.562134
 20
332.947
 11
0.927048
 21
332.853
  0
LINE
  8
0
 10
0.927048
 20
332.853
 11
1.27733
 21
332.714
  0
LINE
  8
0
 10
1.27733
 20
332.714
 11
1.60747
 21
332.533
  0
LINE
  8
0
 10
1.60747
 20
332.533
 11
1.91226
 21
332.312
  0
LINE
  8
0
 10
1.91226
 20
332.312
 11
2.1869
 21
332.054
  0
LINE
  8
0
 10
2.1869
 20
332.054
 11
2.42705
 21
331.763
  0
LINE
  8
0
 10
2.42705
 20
331.763
 11
2.62891
 21
331.445
  0
LINE
  8
0
 10
2.62891
 20
331.445
 11
2.78932
 21
331.104
  0
LINE
  8
0
 10
2.78932
 20
331.104
 11
2.90575
 21
330.746
  0
LINE
  8
0
 10
2.90575
 20
330.746
 11
2.97633
 21
330.376
  0
LINE
  8
0
 10
2.97633
 20
330.376
 11
3
 21
330
  0
LINE
  8
0
 10
3
 20
330
 11
2.97633
 21
329.624
  0
LINE
  8
0
 10
2.97633
 20
329.624
 11
2.90575
 21
329.254
  0
LINE
  8
0
 10
2.90575
 20
329.254
 11
2.78932
 21
328.896
  0
LINE
  8
0
 10
2.78932
 20
328.896
 11
2.62891
 21
328.555
  0
LINE
  8
0
 10
2.62891
 20
328.555
 11
2.42705
 21
328.237
  0
LINE
  8
0
 10
2.42705
 20
328.237
 11
2.1869
 21
327.946
  0
LINE
  8
0
 10
2.1869
 20
327.946
 11
1.91226
 21
327.688
  0
LINE
  8
0
 10
1.91226
 20
327.688
 11
1.60747
 21
327.467
  0
LINE
  8
0
 10
1.60747
 20
327.467
 11
1.27733
 21
327.286
  0
LINE
  8
0
 10
1.27733
 20
327.286
 11
0.927048
 21
327.147
  0
LINE
  8
0
 10
0.927048
 20
327.147
 11
0.562134
 21
327.053
  0
LINE
  8
0
 10
0.562134
 20
327.053
 11
0.18837
 21
327.006
  0
LINE
  8
0
 10
0.18837
 20
327.006
 11
-0.18837
 21
327.006
  0
LINE
  8
0
 10
-7.59418
 20
328.503
 11
-7.78107
 21
328.527
  0
LINE
  8
0
 10
-7.78107
 20
328.527
 11
-7.96352
 21
328.573
  0
LINE
  8
0
 10
-7.96352
 20
328.573
 11
-8.13866
 21
328.643
  0
LINE
  8
0
 10
-8.13866
 20
328.643
 11
-8.30373
 21
328.734
  0
LINE
  8
0
 10
-8.30373
 20
328.734
 11
-8.45613
 21
328.844
  0
LINE
  8
0
 10
-8.45613
 20
328.844
 11
-8.59344
 21
328.973
  0
LINE
  8
0
 10
-8.59344
 20
328.973
 11
-8.71352
 21
329.118
  0
LINE
  8
0
 10
-8.71352
 20
329.118
 11
-8.81445
 21
329.277
  0
LINE
  8
0
 10
-8.81445
 20
329.277
 11
-8.89465
 21
329.448
  0
LINE
  8
0
 10
-8.89465
 20
329.448
 11
-8.95287
 21
329.627
  0
LINE
  8
0
 10
-8.95287
 20
329.627
 11
-8.98816
 21
329.812
  0
LINE
  8
0
 10
-8.98816
 20
329.812
 11
-9
 21
330
  0
LINE
  8
0
 10
-9
 20
330
 11
-8.98816
 21
330.188
  0
LINE
  8
0
 10
-8.98816
 20
330.188
 11
-8.95287
 21
330.373
  0
LINE
  8
0
 10
-8.95287
 20
330.373
 11
-8.89465
 21
330.552
  0
LINE
  8
0
 10
-8.89465
 20
330.552
 11
-8.81445
 21
330.723
  0
LINE
  8
0
 10
-8.81445
 20
330.723
 11
-8.71352
 21
330.882
  0
LINE
  8
0
 10
-8.71352
 20
330.882
 11
-8.59344
 21
331.027
  0
LINE
  8
0
 10
-8.59344
 20
331.027
 11
-8.45613
 21
331.156
  0
LINE
  8
0
 10
-8.45613
 20
331.156
 11
-8.30373
 21
331.266
  0
LINE
  8
0
 10
-8.30373
 20
331.266
 11
-8.13866
 21
331.357
  0
LINE
  8
0
 10
-8.13866
 20
331.357
 11
-7.96352
 21
331.427
  0
LINE
  8
0
 10
-7.96352
 20
331.427
 11
-7.78107
 21
331.473
  0
LINE
  8
0
 10
-7.78107
 20
331.473
 11
-7.59418
 21
331.497
  0
LINE
  8
0
 10
-7.59418
 20
331.497
 11
-7.40581
 21
331.497
  0
LINE
  8
0
 10
-7.40581
 20
331.497
 11
-7.21892
 21
331.473
  0
LINE
  8
0
 10
-7.21892
 20
331.473
 11
-7.03647
 21
331.427
  0
LINE
  8
0
 10
-7.03647
 20
331.427
 11
-6.86133
 21
331.357
  0
LINE
  8
0
 10
-6.86133
 20
331.357
 11
-6.69626
 21
331.266
  0
LINE
  8
0
 10
-6.69626
 20
331.266
 11
-6.54385
 21
331.156
  0
LINE
  8
0
 10
-6.54385
 20
331.156
 11
-6.40654
 21
331.027
  0
LINE
  8
0
 10
-6.40654
 20
331.027
 11
-6.28647
 21
330.882
  0
LINE
  8
0
 10
-6.28647
 20
330.882
 11
-6.18553
 21
330.723
  0
LINE
  8
0
 10
-6.18553
 20
330.723
 11
-6.10533
 21
330.552
  0
LINE
  8
0
 10
-6.10533
 20
330.552
 11
-6.04712
 21
330.373
  0
LINE
  8
0
 10
-6.04712
 20
330.373
 11
-6.01183
 21
330.188
  0
LINE
  8
0
 10
-6.01183
 20
330.188
 11
-6
 21
330
  0
LINE
  8
0
 10
-6
 20
330
 11
-6.01183
 21
329.812
  0
LINE
  8
0
 10
-6.01183
 20
329.812
 11
-6.04712
 21
329.627
  0
LINE
  8
0
 10
-6.04712
 20
329.627
 11
-6.10533
 21
329.448
  0
LINE
  8
0
 10
-6.10533
 20
329.448
 11
-6.18553
 21
329.277
  0
LINE
  8
0
 10
-6.18553
 20
329.277
 11
-6.28647
 21
329.118
  0
LINE
  8
0
 10
-6.28647
 20
329.118
 11
-6.40654
 21
328.973
  0
LINE
  8
0
 10
-6.40654
 20
328.973
 11
-6.54385
 21
328.844
  0
LINE
  8
0
 10
-6.54385
 20
328.844
 11
-6.69626
 21
328.734
  0
LINE
  8
0
 10
-6.69626
 20
328.734
 11
-6.86133
 21
328.643
  0
LINE
  8
0
 10
-6.86133
 20
328.643
 11
-7.03647
 21
328.573
  0
LINE
  8
0
 10
-7.03647
 20
328.573
 11
-7.21892
 21
328.527
  0
LINE
  8
0
 10
-7.21892
 20
328.527
 11
-7.40581
 21
328.503
  0
LINE
  8
0
 10
-7.40581
 20
328.503
 11
-7.59418
 21
328.503
  0
LINE
  8
0
 10
7.40581
 20
328.503
 11
7.21892
 21
328.527
  0
LINE
  8
0
 10
7.21892
 20
328.527
 11
7.03647
 21
328.573
  0
LINE
  8
0
 10
7.03647
 20
328.573
 11
6.86133
 21
328.643
  0
LINE
  8
0
 10
6.86133
 20
328.643
 11
6.69626
 21
328.734
  0
LINE
  8
0
 10
6.69626
 20
328.734
 11
6.54385
 21
328.844
  0
LINE
  8
0
 10
6.54385
 20
328.844
 11
6.40654
 21
328.973
  0
LINE
  8
0
 10
6.40654
 20
328.973
 11
6.28647
 21
329.118
  0
LINE
  8
0
 10
6.28647
 20
329.118
 11
6.18553
 21
329.277
  0
LINE
  8
0
 10
6.18553
 20
329.277
 11
6.10533
 21
329.448
  0
LINE
  8
0
 10
6.10533
 20
329.448
 11
6.04712
 21
329.627
  0
LINE
  8
0
 10
6.04712
 20
329.627
 11
6.01183
 21
329.812
  0
LINE
  8
0
 10
6.01183
 20
329.812
 11
6
 21
330
  0
LINE
  8
0
 10
6
 20
330
 11
6.01183
 21
330.188
  0
LINE
  8
0
 10
6.01183
 20
330.188
 11
6.04712
 21
330.373
  0
LINE
  8
0
 10
6.04712
 20
330.373
 11
6.10533
 21
330.552
  0
LINE
  8
0
 10
6.10533
 20
330.552
 11
6.18553
 21
330.723
  0
LINE
  8
0
 10
6.18553
 20
330.723
 11
6.28647
 21
330.882
  0
LINE
  8
0
 10
6.28647
 20
330.882
 11
6.40654
 21
331.027
  0
LINE
  8
0
 10
6.40654
 20
331.027
 11
6.54385
 21
331.156
  0
LINE
  8
0
 10
6.54385
 20
331.156
 11
6.69626
 21
331.266
  0
LINE
  8
0
 10
6.69626
 20
331.266
 11
6.86133
 21
331.357
  0
LINE
  8
0
 10
6.86133
 20
331.357
 11
7.03647
 21
331.427
  0
LINE
  8
0
 10
7.03647
 20
331.427
 11
7.21892
 21
331.473
  0
LINE
  8
0
 10
7.21892
 20
331.473
 11
7.40581
 21
331.497
  0
LINE
  8
0
 10
7.40581
 20
331.497
 11
7.59418
 21
331.497
  0
LINE
  8
0
 10
7.59418
 20
331.497
 11
7.78107
 21
331.473
  0
LINE
  8
0
 10
7.78107
 20
331.473
 11
7.96352
 21
331.427
  0
LINE
  8
0
 10
7.96352
 20
331.427
 11
8.13866
 21
331.357
  0
LINE
  8
0
 10
8.13866
 20
331.357
 11
8.30373
 21
331.266
  0
LINE
  8
0
 10
8.30373
 20
331.266
 11
8.45613
 21
331.156
  0
LINE
  8
0
 10
8.45613
 20
331.156
 11
8.59344
 21
331.027
  0
LINE
  8
0
 10
8.59344
 20
331.027
 11
8.71352
 21
330.882
  0
LINE
  8
0
 10
8.71352
 20
330.882
 11
8.81445
 21
330.723
  0
LINE
  8
0
 10
8.81445
 20
330.723
 11
8.89465
 21
330.552
  0
LINE
  8
0
 10
8.89465
 20
330.552
 11
8.95287
 21
330.373
  0
LINE
  8
0
 10
8.95287
 20
330.373
 11
8.98816
 21
330.188
  0
LINE
  8
0
 10
8.98816
 20
330.188
 11
9
 21
330
  0
LINE
  8
0
 10
9
 20
330
 11
8.98816
 21
329.812
  0
LINE
  8
0
 10
8.98816
 20
329.812
 11
8.95287
 21
329.627
  0
LINE
  8
0
 10
8.95287
 20
329.627
 11
8.89465
 21
329.448
  0
LINE
  8
0
 10
8.89465
 20
329.448
 11
8.81445
 21
329.277
  0
LINE
  8
0
 10
8.81445
 20
329.277
 11
8.71352
 21
329.118
  0
LINE
  8
0
 10
8.71352
 20
329.118
 11
8.59344
 21
328.973
  0
LINE
  8
0
 10
8.59344
 20
328.973
 11
8.45613
 21
328.844
  0
LINE
  8
0
 10
8.45613
 20
328.844
 11
8.30373
 21
328.734
  0
LINE
  8
0
 10
8.30373
 20
328.734
 11
8.13866
 21
328.643
  0
LINE
  8
0
 10
8.13866
 20
328.643
 11
7.96352
 21
328.573
  0
LINE
  8
0
 10
7.96352
 20
328.573
 11
7.78107
 21
328.527
  0
LINE
  8
0
 10
7.78107
 20
328.527
 11
7.59418
 21
328.503
  0
LINE
  8
0
 10
7.59418
 20
328.503
 11
7.40581
 21
328.503
  0
LINE
  8
0
 10
-0.0941772
 20
321.003
 11
-0.281067
 21
321.027
  0
LINE
  8
0
 10
-0.281067
 20
321.027
 11
-0.463516
 21
321.073
  0
LINE
  8
0
 10
-0.463516
 20
321.073
 11
-0.638657
 21
321.143
  0
LINE
  8
0
 10
-0.638657
 20
321.143
 11
-0.803726
 21
321.234
  0
LINE
  8
0
 10
-0.803726
 20
321.234
 11
-0.956131
 21
321.344
  0
LINE
  8
0
 10
-0.956131
 20
321.344
 11
-1.09344
 21
321.473
  0
LINE
  8
0
 10
-1.09344
 20
321.473
 11
-1.21352
 21
321.618
  0
LINE
  8
0
 10
-1.21352
 20
321.618
 11
-1.31445
 21
321.777
  0
LINE
  8
0
 10
-1.31445
 20
321.777
 11
-1.39465
 21
321.948
  0
LINE
  8
0
 10
-1.39465
 20
321.948
 11
-1.45287
 21
322.127
  0
LINE
  8
0
 10
-1.45287
 20
322.127
 11
-1.48816
 21
322.312
  0
LINE
  8
0
 10
-1.48816
 20
322.312
 11
-1.5
 21
322.5
  0
LINE
  8
0
 10
-1.5
 20
322.5
 11
-1.48816
 21
322.688
  0
LINE
  8
0
 10
-1.48816
 20
322.688
 11
-1.45287
 21
322.873
  0
LINE
  8
0
 10
-1.45287
 20
322.873
 11
-1.39465
 21
323.052
  0
LINE
  8
0
 10
-1.39465
 20
323.052
 11
-1.31445
 21
323.223
  0
LINE
  8
0
 10
-1.31445
 20
323.223
 11
-1.21352
 21
323.382
  0
LINE
  8
0
 10
-1.21352
 20
323.382
 11
-1.09344
 21
323.527
  0
LINE
  8
0
 10
-1.09344
 20
323.527
 11
-0.956131
 21
323.656
  0
LINE
  8
0
 10
-0.956131
 20
323.656
 11
-0.803726
 21
323.766
  0
LINE
  8
0
 10
-0.803726
 20
323.766
 11
-0.638657
 21
323.857
  0
LINE
  8
0
 10
-0.638657
 20
323.857
 11
-0.463516
 21
323.927
  0
LINE
  8
0
 10
-0.463516
 20
323.927
 11
-0.281067
 21
323.973
  0
LINE
  8
0
 10
-0.281067
 20
323.973
 11
-0.0941772
 21
323.997
  0
LINE
  8
0
 10
-0.0941772
 20
323.997
 11
0.0941772
 21
323.997
  0
LINE
  8
0
 10
0.0941772
 20
323.997
 11
0.281067
 21
323.973
  0
LINE
  8
0
 10
0.281067
 20
323.973
 11
0.463516
 21
323.927
  0
LINE
  8
0
 10
0.463516
 20
323.927
 11
0.638657
 21
323.857
  0
LINE
  8
0
 10
0.638657
 20
323.857
 11
0.803726
 21
323.766
  0
LINE
  8
0
 10
0.803726
 20
323.766
 11
0.956131
 21
323.656
  0
LINE
  8
0
 10
0.956131
 20
323.656
 11
1.09344
 21
323.527
  0
LINE
  8
0
 10
1.09344
 20
323.527
 11
1.21352
 21
323.382
  0
LINE
  8
0
 10
1.21352
 20
323.382
 11
1.31445
 21
323.223
  0
LINE
  8
0
 10
1.31445
 20
323.223
 11
1.39465
 21
323.052
  0
LINE
  8
0
 10
1.39465
 20
323.052
 11
1.45287
 21
322.873
  0
LINE
  8
0
 10
1.45287
 20
322.873
 11
1.48816
 21
322.688
  0
LINE
  8
0
 10
1.48816
 20
322.688
 11
1.5
 21
322.5
  0
LINE
  8
0
 10
1.5
 20
322.5
 11
1.48816
 21
322.312
  0
LINE
  8
0
 10
1.48816
 20
322.312
 11
1.45287
 21
322.127
  0
LINE
  8
0
 10
1.45287
 20
322.127
 11
1.39465
 21
321.948
  0
LINE
  8
0
 10
1.39465
 20
321.948
 11
1.31445
 21
321.777
  0
LINE
  8
0
 10
1.31445
 20
321.777
 11
1.21352
 21
321.618
  0
LINE
  8
0
 10
1.21352
 20
321.618
 11
1.09344
 21
321.473
  0
LINE
  8
0
 10
1.09344
 20
321.473
 11
0.956131
 21
321.344
  0
LINE
  8
0
 10
0.956131
 20
321.344
 11
0.803726
 21
321.234
  0
LINE
  8
0
 10
0.803726
 20
321.234
 11
0.638657
 21
321.143
  0
LINE
  8
0
 10
0.638657
 20
321.143
 11
0.463516
 21
321.073
  0
LINE
  8
0
 10
0.463516
 20
321.073
 11
0.281067
 21
321.027
  0
LINE
  8
0
 10
0.281067
 20
321.027
 11
0.0941772
 21
321.003
  0
LINE
  8
0
 10
0.0941772
 20
321.003
 11
-0.0941772
 21
321.003
  0
LINE
  8
0
 10
2.01434
 20
209.44
 11
3.32193
 21
209.776
  0
LINE
  8
0
 10
3.32193
 20
209.776
 11
4.57712
 21
210.273
  0
LINE
  8
0
 10
4.57712
 20
210.273
 11
5.76013
 21
210.923
  0
LINE
  8
0
 10
5.76013
 20
210.923
 11
6.85229
 21
211.717
  0
LINE
  8
0
 10
6.85229
 20
211.717
 11
7.83641
 21
212.641
  0
LINE
  8
0
 10
7.83641
 20
212.641
 11
8.69693
 21
213.681
  0
LINE
  8
0
 10
8.69693
 20
213.681
 11
9.42029
 21
214.821
  0
LINE
  8
0
 10
9.42029
 20
214.821
 11
9.99509
 21
216.043
  0
LINE
  8
0
 10
9.99509
 20
216.043
 11
10.4123
 21
217.327
  0
LINE
  8
0
 10
10.4123
 20
217.327
 11
10.6652
 21
218.653
  0
LINE
  8
0
 10
10.6652
 20
218.653
 11
10.75
 21
220
  0
LINE
  8
0
 10
10.75
 20
220
 11
10.6652
 21
221.347
  0
LINE
  8
0
 10
10.6652
 20
221.347
 11
10.4123
 21
222.673
  0
LINE
  8
0
 10
10.4123
 20
222.673
 11
9.99509
 21
223.957
  0
LINE
  8
0
 10
9.99509
 20
223.957
 11
9.42029
 21
225.179
  0
LINE
  8
0
 10
9.42029
 20
225.179
 11
8.69693
 21
226.319
  0
LINE
  8
0
 10
8.69693
 20
226.319
 11
7.83641
 21
227.359
  0
LINE
  8
0
 10
7.83641
 20
227.359
 11
6.85229
 21
228.283
  0
LINE
  8
0
 10
6.85229
 20
228.283
 11
5.76013
 21
229.077
  0
LINE
  8
0
 10
5.76013
 20
229.077
 11
4.57712
 21
229.727
  0
LINE
  8
0
 10
4.57712
 20
229.727
 11
3.32193
 21
230.224
  0
LINE
  8
0
 10
3.32193
 20
230.224
 11
2.01434
 21
230.56
  0
LINE
  8
0
 10
2.01434
 20
230.56
 11
0.674988
 21
230.729
  0
LINE
  8
0
 10
0.674988
 20
230.729
 11
-0.674988
 21
230.729
  0
LINE
  8
0
 10
-0.674988
 20
230.729
 11
-2.01434
 21
230.56
  0
LINE
  8
0
 10
-2.01434
 20
230.56
 11
-3.32193
 21
230.224
  0
LINE
  8
0
 10
-3.32193
 20
230.224
 11
-4.57712
 21
229.727
  0
LINE
  8
0
 10
-4.57712
 20
229.727
 11
-5.76013
 21
229.077
  0
LINE
  8
0
 10
-5.76013
 20
229.077
 11
-6.85229
 21
228.283
  0
LINE
  8
0
 10
-6.85229
 20
228.283
 11
-7.83641
 21
227.359
  0
LINE
  8
0
 10
-7.83641
 20
227.359
 11
-8.69693
 21
226.319
  0
LINE
  8
0
 10
-8.69693
 20
226.319
 11
-9.42029
 21
225.179
  0
LINE
  8
0
 10
-9.42029
 20
225.179
 11
-9.99509
 21
223.957
  0
LINE
  8
0
 10
-9.99509
 20
223.957
 11
-10.4123
 21
222.673
  0
LINE
  8
0
 10
-10.4123
 20
222.673
 11
-10.6652
 21
221.347
  0
LINE
  8
0
 10
-10.6652
 20
221.347
 11
-10.75
 21
220
  0
LINE
  8
0
 10
-10.75
 20
220
 11
-10.6652
 21
218.653
  0
LINE
  8
0
 10
-10.6652
 20
218.653
 11
-10.4123
 21
217.327
  0
LINE
  8
0
 10
-10.4123
 20
217.327
 11
-9.99509
 21
216.043
  0
LINE
  8
0
 10
-9.99509
 20
216.043
 11
-9.42029
 21
214.821
  0
LINE
  8
0
 10
-9.42029
 20
214.821
 11
-8.69693
 21
213.681
  0
LINE
  8
0
 10
-8.69693
 20
213.681
 11
-7.83641
 21
212.641
  0
LINE
  8
0
 10
-7.83641
 20
212.641
 11
-6.85229
 21
211.717
  0
LINE
  8
0
 10
-6.85229
 20
211.717
 11
-5.76013
 21
210.923
  0
LINE
  8
0
 10
-5.76013
 20
210.923
 11
-4.57712
 21
210.273
  0
LINE
  8
0
 10
-4.57712
 20
210.273
 11
-3.32193
 21
209.776
  0
LINE
  8
0
 10
-3.32193
 20
209.776
 11
-2.01434
 21
209.44
  0
LINE
  8
0
 10
-2.01434
 20
209.44
 11
-0.674988
 21
209.271
  0
LINE
  8
0
 10
-0.674988
 20
209.271
 11
0.674988
 21
209.271
  0
LINE
  8
0
 10
0.674988
 20
209.271
 11
2.01434
 21
209.44
  0
LINE
  8
0
 10
-0.0941772
 20
226.003
 11
-0.281067
 21
226.027
  0
LINE
  8
0
 10
-0.281067
 20
226.027
 11
-0.463516
 21
226.073
  0
LINE
  8
0
 10
-0.463516
 20
226.073
 11
-0.638657
 21
226.143
  0
LINE
  8
0
 10
-0.638657
 20
226.143
 11
-0.803726
 21
226.234
  0
LINE
  8
0
 10
-0.803726
 20
226.234
 11
-0.956131
 21
226.344
  0
LINE
  8
0
 10
-0.956131
 20
226.344
 11
-1.09344
 21
226.473
  0
LINE
  8
0
 10
-1.09344
 20
226.473
 11
-1.21352
 21
226.618
  0
LINE
  8
0
 10
-1.21352
 20
226.618
 11
-1.31445
 21
226.777
  0
LINE
  8
0
 10
-1.31445
 20
226.777
 11
-1.39465
 21
226.948
  0
LINE
  8
0
 10
-1.39465
 20
226.948
 11
-1.45287
 21
227.127
  0
LINE
  8
0
 10
-1.45287
 20
227.127
 11
-1.48816
 21
227.312
  0
LINE
  8
0
 10
-1.48816
 20
227.312
 11
-1.5
 21
227.5
  0
LINE
  8
0
 10
-1.5
 20
227.5
 11
-1.48816
 21
227.688
  0
LINE
  8
0
 10
-1.48816
 20
227.688
 11
-1.45287
 21
227.873
  0
LINE
  8
0
 10
-1.45287
 20
227.873
 11
-1.39465
 21
228.052
  0
LINE
  8
0
 10
-1.39465
 20
228.052
 11
-1.31445
 21
228.223
  0
LINE
  8
0
 10
-1.31445
 20
228.223
 11
-1.21352
 21
228.382
  0
LINE
  8
0
 10
-1.21352
 20
228.382
 11
-1.09344
 21
228.527
  0
LINE
  8
0
 10
-1.09344
 20
228.527
 11
-0.956131
 21
228.656
  0
LINE
  8
0
 10
-0.956131
 20
228.656
 11
-0.803726
 21
228.766
  0
LINE
  8
0
 10
-0.803726
 20
228.766
 11
-0.638657
 21
228.857
  0
LINE
  8
0
 10
-0.638657
 20
228.857
 11
-0.463516
 21
228.927
  0
LINE
  8
0
 10
-0.463516
 20
228.927
 11
-0.281067
 21
228.973
  0
LINE
  8
0
 10
-0.281067
 20
228.973
 11
-0.0941772
 21
228.997
  0
LINE
  8
0
 10
-0.0941772
 20
228.997
 11
0.0941772
 21
228.997
  0
LINE
  8
0
 10
0.0941772
 20
228.997
 11
0.281067
 21
228.973
  0
LINE
  8
0
 10
0.281067
 20
228.973
 11
0.463516
 21
228.927
  0
LINE
  8
0
 10
0.463516
 20
228.927
 11
0.638657
 21
228.857
  0
LINE
  8
0
 10
0.638657
 20
228.857
 11
0.803726
 21
228.766
  0
LINE
  8
0
 10
0.803726
 20
228.766
 11
0.956131
 21
228.656
  0
LINE
  8
0
 10
0.956131
 20
228.656
 11
1.09344
 21
228.527
  0
LINE
  8
0
 10
1.09344
 20
228.527
 11
1.21352
 21
228.382
  0
LINE
  8
0
 10
1.21352
 20
228.382
 11
1.31445
 21
228.223
  0
LINE
  8
0
 10
1.31445
 20
228.223
 11
1.39465
 21
228.052
  0
LINE
  8
0
 10
1.39465
 20
228.052
 11
1.45287
 21
227.873
  0
LINE
  8
0
 10
1.45287
 20
227.873
 11
1.48816
 21
227.688
  0
LINE
  8
0
 10
1.48816
 20
227.688
 11
1.5
 21
227.5
  0
LINE
  8
0
 10
1.5
 20
227.5
 11
1.48816
 21
227.312
  0
LINE
  8
0
 10
1.48816
 20
227.312
 11
1.45287
 21
227.127
  0
LINE
  8
0
 10
1.45287
 20
227.127
 11
1.39465
 21
226.948
  0
LINE
  8
0
 10
1.39465
 20
226.948
 11
1.31445
 21
226.777
  0
LINE
  8
0
 10
1.31445
 20
226.777
 11
1.21352
 21
226.618
  0
LINE
  8
0
 10
1.21352
 20
226.618
 11
1.09344
 21
226.473
  0
LINE
  8
0
 10
1.09344
 20
226.473
 11
0.956131
 21
226.344
  0
LINE
  8
0
 10
0.956131
 20
226.344
 11
0.803726
 21
226.234
  0
LINE
  8
0
 10
0.803726
 20
226.234
 11
0.638657
 21
226.143
  0
LINE
  8
0
 10
0.638657
 20
226.143
 11
0.463516
 21
226.073
  0
LINE
  8
0
 10
0.463516
 20
226.073
 11
0.281067
 21
226.027
  0
LINE
  8
0
 10
0.281067
 20
226.027
 11
0.0941772
 21
226.003
  0
LINE
  8
0
 10
0.0941772
 20
226.003
 11
-0.0941772
 21
226.003
  0
LINE
  8
0
 10
-0.18837
 20
217.006
 11
-0.562134
 21
217.053
  0
LINE
  8
0
 10
-0.562134
 20
217.053
 11
-0.927048
 21
217.147
  0
LINE
  8
0
 10
-0.927048
 20
217.147
 11
-1.27733
 21
217.286
  0
LINE
  8
0
 10
-1.27733
 20
217.286
 11
-1.60747
 21
217.467
  0
LINE
  8
0
 10
-1.60747
 20
217.467
 11
-1.91226
 21
217.688
  0
LINE
  8
0
 10
-1.91226
 20
217.688
 11
-2.1869
 21
217.946
  0
LINE
  8
0
 10
-2.1869
 20
217.946
 11
-2.42705
 21
218.237
  0
LINE
  8
0
 10
-2.42705
 20
218.237
 11
-2.62891
 21
218.555
  0
LINE
  8
0
 10
-2.62891
 20
218.555
 11
-2.78932
 21
218.896
  0
LINE
  8
0
 10
-2.78932
 20
218.896
 11
-2.90575
 21
219.254
  0
LINE
  8
0
 10
-2.90575
 20
219.254
 11
-2.97633
 21
219.624
  0
LINE
  8
0
 10
-2.97633
 20
219.624
 11
-3
 21
220
  0
LINE
  8
0
 10
-3
 20
220
 11
-2.97633
 21
220.376
  0
LINE
  8
0
 10
-2.97633
 20
220.376
 11
-2.90575
 21
220.746
  0
LINE
  8
0
 10
-2.90575
 20
220.746
 11
-2.78932
 21
221.104
  0
LINE
  8
0
 10
-2.78932
 20
221.104
 11
-2.62891
 21
221.445
  0
LINE
  8
0
 10
-2.62891
 20
221.445
 11
-2.42705
 21
221.763
  0
LINE
  8
0
 10
-2.42705
 20
221.763
 11
-2.1869
 21
222.054
  0
LINE
  8
0
 10
-2.1869
 20
222.054
 11
-1.91226
 21
222.312
  0
LINE
  8
0
 10
-1.91226
 20
222.312
 11
-1.60747
 21
222.533
  0
LINE
  8
0
 10
-1.60747
 20
222.533
 11
-1.27733
 21
222.714
  0
LINE
  8
0
 10
-1.27733
 20
222.714
 11
-0.927048
 21
222.853
  0
LINE
  8
0
 10
-0.927048
 20
222.853
 11
-0.562134
 21
222.947
  0
LINE
  8
0
 10
-0.562134
 20
222.947
 11
-0.18837
 21
222.994
  0
LINE
  8
0
 10
-0.18837
 20
222.994
 11
0.18837
 21
222.994
  0
LINE
  8
0
 10
0.18837
 20
222.994
 11
0.562134
 21
222.947
  0
LINE
  8
0
 10
0.562134
 20
222.947
 11
0.927048
 21
222.853
  0
LINE
  8
0
 10
0.927048
 20
222.853
 11
1.27733
 21
222.714
  0
LINE
  8
0
 10
1.27733
 20
222.714
 11
1.60747
 21
222.533
  0
LINE
  8
0
 10
1.60747
 20
222.533
 11
1.91226
 21
222.312
  0
LINE
  8
0
 10
1.91226
 20
222.312
 11
2.1869
 21
222.054
  0
LINE
  8
0
 10
2.1869
 20
222.054
 11
2.42705
 21
221.763
  0
LINE
  8
0
 10
2.42705
 20
221.763
 11
2.62891
 21
221.445
  0
LINE
  8
0
 10
2.62891
 20
221.445
 11
2.78932
 21
221.104
  0
LINE
  8
0
 10
2.78932
 20
221.104
 11
2.90575
 21
220.746
  0
LINE
  8
0
 10
2.90575
 20
220.746
 11
2.97633
 21
220.376
  0
LINE
  8
0
 10
2.97633
 20
220.376
 11
3
 21
220
  0
LINE
  8
0
 10
3
 20
220
 11
2.97633
 21
219.624
  0
LINE
  8
0
 10
2.97633
 20
219.624
 11
2.90575
 21
219.254
  0
LINE
  8
0
 10
2.90575
 20
219.254
 11
2.78932
 21
218.896
  0
LINE
  8
0
 10
2.78932
 20
218.896
 11
2.62891
 21
218.555
  0
LINE
  8
0
 10
2.62891
 20
218.555
 11
2.42705
 21
218.237
  0
LINE
  8
0
 10
2.42705
 20
218.237
 11
2.1869
 21
217.946
  0
LINE
  8
0
 10
2.1869
 20
217.946
 11
1.91226
 21
217.688
  0
LINE
  8
0
 10
1.91226
 20
217.688
 11
1.60747
 21
217.467
  0
LINE
  8
0
 10
1.60747
 20
217.467
 11
1.27733
 21
217.286
  0
LINE
  8
0
 10
1.27733
 20
217.286
 11
0.927048
 21
217.147
  0
LINE
  8
0
 10
0.927048
 20
217.147
 11
0.562134
 21
217.053
  0
LINE
  8
0
 10
0.562134
 20
217.053
 11
0.18837
 21
217.006
  0
LINE
  8
0
 10
0.18837
 20
217.006
 11
-0.18837
 21
217.006
  0
LINE
  8
0
 10
-7.59418
 20
218.503
 11
-7.78107
 21
218.527
  0
LINE
  8
0
 10
-7.78107
 20
218.527
 11
-7.96352
 21
218.573
  0
LINE
  8
0
 10
-7.96352
 20
218.573
 11
-8.13866
 21
218.643
  0
LINE
  8
0
 10
-8.13866
 20
218.643
 11
-8.30373
 21
218.734
  0
LINE
  8
0
 10
-8.30373
 20
218.734
 11
-8.45613
 21
218.844
  0
LINE
  8
0
 10
-8.45613
 20
218.844
 11
-8.59344
 21
218.973
  0
LINE
  8
0
 10
-8.59344
 20
218.973
 11
-8.71352
 21
219.118
  0
LINE
  8
0
 10
-8.71352
 20
219.118
 11
-8.81445
 21
219.277
  0
LINE
  8
0
 10
-8.81445
 20
219.277
 11
-8.89465
 21
219.448
  0
LINE
  8
0
 10
-8.89465
 20
219.448
 11
-8.95287
 21
219.627
  0
LINE
  8
0
 10
-8.95287
 20
219.627
 11
-8.98816
 21
219.812
  0
LINE
  8
0
 10
-8.98816
 20
219.812
 11
-9
 21
220
  0
LINE
  8
0
 10
-9
 20
220
 11
-8.98816
 21
220.188
  0
LINE
  8
0
 10
-8.98816
 20
220.188
 11
-8.95287
 21
220.373
  0
LINE
  8
0
 10
-8.95287
 20
220.373
 11
-8.89465
 21
220.552
  0
LINE
  8
0
 10
-8.89465
 20
220.552
 11
-8.81445
 21
220.723
  0
LINE
  8
0
 10
-8.81445
 20
220.723
 11
-8.71352
 21
220.882
  0
LINE
  8
0
 10
-8.71352
 20
220.882
 11
-8.59344
 21
221.027
  0
LINE
  8
0
 10
-8.59344
 20
221.027
 11
-8.45613
 21
221.156
  0
LINE
  8
0
 10
-8.45613
 20
221.156
 11
-8.30373
 21
221.266
  0
LINE
  8
0
 10
-8.30373
 20
221.266
 11
-8.13866
 21
221.357
  0
LINE
  8
0
 10
-8.13866
 20
221.357
 11
-7.96352
 21
221.427
  0
LINE
  8
0
 10
-7.96352
 20
221.427
 11
-7.78107
 21
221.473
  0
LINE
  8
0
 10
-7.78107
 20
221.473
 11
-7.59418
 21
221.497
  0
LINE
  8
0
 10
-7.59418
 20
221.497
 11
-7.40581
 21
221.497
  0
LINE
  8
0
 10
-7.40581
 20
221.497
 11
-7.21892
 21
221.473
  0
LINE
  8
0
 10
-7.21892
 20
221.473
 11
-7.03647
 21
221.427
  0
LINE
  8
0
 10
-7.03647
 20
221.427
 11
-6.86133
 21
221.357
  0
LINE
  8
0
 10
-6.86133
 20
221.357
 11
-6.69626
 21
221.266
  0
LINE
  8
0
 10
-6.69626
 20
221.266
 11
-6.54385
 21
221.156
  0
LINE
  8
0
 10
-6.54385
 20
221.156
 11
-6.40654
 21
221.027
  0
LINE
  8
0
 10
-6.40654
 20
221.027
 11
-6.28647
 21
220.882
  0
LINE
  8
0
 10
-6.28647
 20
220.882
 11
-6.18553
 21
220.723
  0
LINE
  8
0
 10
-6.18553
 20
220.723
 11
-6.10533
 21
220.552
  0
LINE
  8
0
 10
-6.10533
 20
220.552
 11
-6.04712
 21
220.373
  0
LINE
  8
0
 10
-6.04712
 20
220.373
 11
-6.01183
 21
220.188
  0
LINE
  8
0
 10
-6.01183
 20
220.188
 11
-6
 21
220
  0
LINE
  8
0
 10
-6
 20
220
 11
-6.01183
 21
219.812
  0
LINE
  8
0
 10
-6.01183
 20
219.812
 11
-6.04712
 21
219.627
  0
LINE
  8
0
 10
-6.04712
 20
219.627
 11
-6.10533
 21
219.448
  0
LINE
  8
0
 10
-6.10533
 20
219.448
 11
-6.18553
 21
219.277
  0
LINE
  8
0
 10
-6.18553
 20
219.277
 11
-6.28647
 21
219.118
  0
LINE
  8
0
 10
-6.28647
 20
219.118
 11
-6.40654
 21
218.973
  0
LINE
  8
0
 10
-6.40654
 20
218.973
 11
-6.54385
 21
218.844
  0
LINE
  8
0
 10
-6.54385
 20
218.844
 11
-6.69626
 21
218.734
  0
LINE
  8
0
 10
-6.69626
 20
218.734
 11
-6.86133
 21
218.643
  0
LINE
  8
0
 10
-6.86133
 20
218.643
 11
-7.03647
 21
218.573
  0
LINE
  8
0
 10
-7.03647
 20
218.573
 11
-7.21892
 21
218.527
  0
LINE
  8
0
 10
-7.21892
 20
218.527
 11
-7.40581
 21
218.503
  0
LINE
  8
0
 10
-7.40581
 20
218.503
 11
-7.59418
 21
218.503
  0
LINE
  8
0
 10
7.40581
 20
218.503
 11
7.21892
 21
218.527
  0
LINE
  8
0
 10
7.21892
 20
218.527
 11
7.03647
 21
218.573
  0
LINE
  8
0
 10
7.03647
 20
218.573
 11
6.86133
 21
218.643
  0
LINE
  8
0
 10
6.86133
 20
218.643
 11
6.69626
 21
218.734
  0
LINE
  8
0
 10
6.69626
 20
218.734
 11
6.54385
 21
218.844
  0
LINE
  8
0
 10
6.54385
 20
218.844
 11
6.40654
 21
218.973
  0
LINE
  8
0
 10
6.40654
 20
218.973
 11
6.28647
 21
219.118
  0
LINE
  8
0
 10
6.28647
 20
219.118
 11
6.18553
 21
219.277
  0
LINE
  8
0
 10
6.18553
 20
219.277
 11
6.10533
 21
219.448
  0
LINE
  8
0
 10
6.10533
 20
219.448
 11
6.04712
 21
219.627
  0
LINE
  8
0
 10
6.04712
 20
219.627
 11
6.01183
 21
219.812
  0
LINE
  8
0
 10
6.01183
 20
219.812
 11
6
 21
220
  0
LINE
  8
0
 10
6
 20
220
 11
6.01183
 21
220.188
  0
LINE
  8
0
 10
6.01183
 20
220.188
 11
6.04712
 21
220.373
  0
LINE
  8
0
 10
6.04712
 20
220.373
 11
6.10533
 21
220.552
  0
LINE
  8
0
 10
6.10533
 20
220.552
 11
6.18553
 21
220.723
  0
LINE
  8
0
 10
6.18553
 20
220.723
 11
6.28647
 21
220.882
  0
LINE
  8
0
 10
6.28647
 20
220.882
 11
6.40654
 21
221.027
  0
LINE
  8
0
 10
6.40654
 20
221.027
 11
6.54385
 21
221.156
  0
LINE
  8
0
 10
6.54385
 20
221.156
 11
6.69626
 21
221.266
  0
LINE
  8
0
 10
6.69626
 20
221.266
 11
6.86133
 21
221.357
  0
LINE
  8
0
 10
6.86133
 20
221.357
 11
7.03647
 21
221.427
  0
LINE
  8
0
 10
7.03647
 20
221.427
 11
7.21892
 21
221.473
  0
LINE
  8
0
 10
7.21892
 20
221.473
 11
7.40581
 21
221.497
  0
LINE
  8
0
 10
7.40581
 20
221.497
 11
7.59418
 21
221.497
  0
LINE
  8
0
 10
7.59418
 20
221.497
 11
7.78107
 21
221.473
  0
LINE
  8
0
 10
7.78107
 20
221.473
 11
7.96352
 21
221.427
  0
LINE
  8
0
 10
7.96352
 20
221.427
 11
8.13866
 21
221.357
  0
LINE
  8
0
 10
8.13866
 20
221.357
 11
8.30373
 21
221.266
  0
LINE
  8
0
 10
8.30373
 20
221.266
 11
8.45613
 21
221.156
  0
LINE
  8
0
 10
8.45613
 20
221.156
 11
8.59344
 21
221.027
  0
LINE
  8
0
 10
8.59344
 20
221.027
 11
8.71352
 21
220.882
  0
LINE
  8
0
 10
8.71352
 20
220.882
 11
8.81445
 21
220.723
  0
LINE
  8
0
 10
8.81445
 20
220.723
 11
8.89465
 21
220.552
  0
LINE
  8
0
 10
8.89465
 20
220.552
 11
8.95287
 21
220.373
  0
LINE
  8
0
 10
8.95287
 20
220.373
 11
8.98816
 21
220.188
  0
LINE
  8
0
 10
8.98816
 20
220.188
 11
9
 21
220
  0
LINE
  8
0
 10
9
 20
220
 11
8.98816
 21
219.812
  0
LINE
  8
0
 10
8.98816
 20
219.812
 11
8.95287
 21
219.627
  0
LINE
  8
0
 10
8.95287
 20
219.627
 11
8.89465
 21
219.448
  0
LINE
  8
0
 10
8.89465
 20
219.448
 11
8.81445
 21
219.277
  0
LINE
  8
0
 10
8.81445
 20
219.277
 11
8.71352
 21
219.118
  0
LINE
  8
0
 10
8.71352
 20
219.118
 11
8.59344
 21
218.973
  0
LINE
  8
0
 10
8.59344
 20
218.973
 11
8.45613
 21
218.844
  0
LINE
  8
0
 10
8.45613
 20
218.844
 11
8.30373
 21
218.734
  0
LINE
  8
0
 10
8.30373
 20
218.734
 11
8.13866
 21
218.643
  0
LINE
  8
0
 10
8.13866
 20
218.643
 11
7.96352
 21
218.573
  0
LINE
  8
0
 10
7.96352
 20
218.573
 11
7.78107
 21
218.527
  0
LINE
  8
0
 10
7.78107
 20
218.527
 11
7.59418
 21
218.503
  0
LINE
  8
0
 10
7.59418
 20
218.503
 11
7.40581
 21
218.503
  0
LINE
  8
0
 10
-0.0941772
 20
211.003
 11
-0.281067
 21
211.027
  0
LINE
  8
0
 10
-0.281067
 20
211.027
 11
-0.463516
 21
211.073
  0
LINE
  8
0
 10
-0.463516
 20
211.073
 11
-0.638657
 21
211.143
  0
LINE
  8
0
 10
-0.638657
 20
211.143
 11
-0.803726
 21
211.234
  0
LINE
  8
0
 10
-0.803726
 20
211.234
 11
-0.956131
 21
211.344
  0
LINE
  8
0
 10
-0.956131
 20
211.344
 11
-1.09344
 21
211.473
  0
LINE
  8
0
 10
-1.09344
 20
211.473
 11
-1.21352
 21
211.618
  0
LINE
  8
0
 10
-1.21352
 20
211.618
 11
-1.31445
 21
211.777
  0
LINE
  8
0
 10
-1.31445
 20
211.777
 11
-1.39465
 21
211.948
  0
LINE
  8
0
 10
-1.39465
 20
211.948
 11
-1.45287
 21
212.127
  0
LINE
  8
0
 10
-1.45287
 20
212.127
 11
-1.48816
 21
212.312
  0
LINE
  8
0
 10
-1.48816
 20
212.312
 11
-1.5
 21
212.5
  0
LINE
  8
0
 10
-1.5
 20
212.5
 11
-1.48816
 21
212.688
  0
LINE
  8
0
 10
-1.48816
 20
212.688
 11
-1.45287
 21
212.873
  0
LINE
  8
0
 10
-1.45287
 20
212.873
 11
-1.39465
 21
213.052
  0
LINE
  8
0
 10
-1.39465
 20
213.052
 11
-1.31445
 21
213.223
  0
LINE
  8
0
 10
-1.31445
 20
213.223
 11
-1.21352
 21
213.382
  0
LINE
  8
0
 10
-1.21352
 20
213.382
 11
-1.09344
 21
213.527
  0
LINE
  8
0
 10
-1.09344
 20
213.527
 11
-0.956131
 21
213.656
  0
LINE
  8
0
 10
-0.956131
 20
213.656
 11
-0.803726
 21
213.766
  0
LINE
  8
0
 10
-0.803726
 20
213.766
 11
-0.638657
 21
213.857
  0
LINE
  8
0
 10
-0.638657
 20
213.857
 11
-0.463516
 21
213.927
  0
LINE
  8
0
 10
-0.463516
 20
213.927
 11
-0.281067
 21
213.973
  0
LINE
  8
0
 10
-0.281067
 20
213.973
 11
-0.0941772
 21
213.997
  0
LINE
  8
0
 10
-0.0941772
 20
213.997
 11
0.0941772
 21
213.997
  0
LINE
  8
0
 10
0.0941772
 20
213.997
 11
0.281067
 21
213.973
  0
LINE
  8
0
 10
0.281067
 20
213.973
 11
0.463516
 21
213.927
  0
LINE
  8
0
 10
0.463516
 20
213.927
 11
0.638657
 21
213.857
  0
LINE
  8
0
 10
0.638657
 20
213.857
 11
0.803726
 21
213.766
  0
LINE
  8
0
 10
0.803726
 20
213.766
 11
0.956131
 21
213.656
  0
LINE
  8
0
 10
0.956131
 20
213.656
 11
1.09344
 21
213.527
  0
LINE
  8
0
 10
1.09344
 20
213.527
 11
1.21352
 21
213.382
  0
LINE
  8
0
 10
1.21352
 20
213.382
 11
1.31445
 21
213.223
  0
LINE
  8
0
 10
1.31445
 20
213.223
 11
1.39465
 21
213.052
  0
LINE
  8
0
 10
1.39465
 20
213.052
 11
1.45287
 21
212.873
  0
LINE
  8
0
 10
1.45287
 20
212.873
 11
1.48816
 21
212.688
  0
LINE
  8
0
 10
1.48816
 20
212.688
 11
1.5
 21
212.5
  0
LINE
  8
0
 10
1.5
 20
212.5
 11
1.48816
 21
212.312
  0
LINE
  8
0
 10
1.48816
 20
212.312
 11
1.45287
 21
212.127
  0
LINE
  8
0
 10
1.45287
 20
212.127
 11
1.39465
 21
211.948
  0
LINE
  8
0
 10
1.39465
 20
211.948
 11
1.31445
 21
211.777
  0
LINE
  8
0
 10
1.31445
 20
211.777
 11
1.21352
 21
211.618
  0
LINE
  8
0
 10
1.21352
 20
211.618
 11
1.09344
 21
211.473
  0
LINE
  8
0
 10
1.09344
 20
211.473
 11
0.956131
 21
211.344
  0
LINE
  8
0
 10
0.956131
 20
211.344
 11
0.803726
 21
211.234
  0
LINE
  8
0
 10
0.803726
 20
211.234
 11
0.638657
 21
211.143
  0
LINE
  8
0
 10
0.638657
 20
211.143
 11
0.463516
 21
211.073
  0
LINE
  8
0
 10
0.463516
 20
211.073
 11
0.281067
 21
211.027
  0
LINE
  8
0
 10
0.281067
 20
211.027
 11
0.0941772
 21
211.003
  0
LINE
  8
0
 10
0.0941772
 20
211.003
 11
-0.0941772
 21
211.003
  0
ENDSEC
  0
SECTION
  2
OBJECTS
  0
DICTIONARY
  0
ENDSEC
  0
EOF
