<?xml version="1.0" standalone="no"?>
<!DOCTYPE svg PUBLIC "-//W3C//DTD SVG 1.1//EN" "http://www.w3.org/Graphics/SVG/1.1/DTD/svg11.dtd">
<svg width="270mm" height="486mm" viewBox="-135 -837 270 486" xmlns="http://www.w3.org/2000/svg" version="1.1">
<title>OpenSCAD Model</title>
<path d="
M 130.937,-747.089 L 131.545,-747.245 L 132.129,-747.476 L 132.679,-747.778 L 133.187,-748.147 L 133.645,-748.577
 L 134.045,-749.061 L 134.382,-749.591 L 134.649,-750.159 L 134.843,-750.757 L 134.961,-751.373 L 135,-752
 L 135,-832 L 134.961,-832.627 L 134.843,-833.243 L 134.649,-833.841 L 134.382,-834.409 L 134.045,-834.939
 L 133.645,-835.423 L 133.187,-835.853 L 132.679,-836.222 L 132.129,-836.524 L 131.545,-836.755 L 130.937,-836.911
 L 130.314,-836.99 L -130.314,-836.99 L -130.937,-836.911 L -131.545,-836.755 L -132.129,-836.524 L -132.679,-836.222
 L -133.187,-835.853 L -133.645,-835.423 L -134.045,-834.939 L -134.382,-834.409 L -134.649,-833.841 L -134.843,-833.243
 L -134.961,-832.627 L -135,-832 L -135,-752 L -134.961,-751.373 L -134.843,-750.757 L -134.649,-750.159
 L -134.382,-749.591 L -134.045,-749.061 L -133.645,-748.577 L -133.187,-748.147 L -132.679,-747.778 L -132.129,-747.476
 L -131.545,-747.245 L -130.937,-747.089 L -130.314,-747.01 L 130.314,-747.01 z
M -130.048,-747.509 L -130.64,-747.584 L -131.218,-747.732 L -131.772,-747.952 L -132.295,-748.239 L -132.778,-748.59
 L -133.213,-748.998 L -133.593,-749.458 L -133.912,-749.962 L -134.166,-750.501 L -134.351,-751.069 L -134.463,-751.655
 L -134.5,-752.25 L -134.5,-831.75 L -134.463,-832.345 L -134.351,-832.931 L -134.166,-833.499 L -133.912,-834.038
 L -133.593,-834.542 L -133.213,-835.002 L -132.778,-835.41 L -132.295,-835.761 L -131.772,-836.048 L -131.218,-836.268
 L -130.64,-836.416 L -130.048,-836.491 L 130.048,-836.491 L 130.64,-836.416 L 131.218,-836.268 L 131.772,-836.048
 L 132.295,-835.761 L 132.778,-835.41 L 133.213,-835.002 L 133.593,-834.542 L 133.912,-834.038 L 134.166,-833.499
 L 134.351,-832.931 L 134.463,-832.345 L 134.5,-831.75 L 134.5,-752.25 L 134.463,-751.655 L 134.351,-751.069
 L 134.166,-750.501 L 133.912,-749.962 L 133.593,-749.458 L 133.213,-748.998 L 132.778,-748.59 L 132.295,-748.239
 L 131.772,-747.952 L 131.218,-747.732 L 130.64,-747.584 L 130.048,-747.509 z
M 130.937,-648.089 L 131.545,-648.245 L 132.129,-648.476 L 132.679,-648.778 L 133.187,-649.147 L 133.645,-649.577
 L 134.045,-650.061 L 134.382,-650.591 L 134.649,-651.159 L 134.843,-651.757 L 134.961,-652.373 L 135,-653
 L 135,-733 L 134.961,-733.627 L 134.843,-734.243 L 134.649,-734.841 L 134.382,-735.409 L 134.045,-735.939
 L 133.645,-736.423 L 133.187,-736.853 L 132.679,-737.222 L 132.129,-737.524 L 131.545,-737.755 L 130.937,-737.911
 L 130.314,-737.99 L -130.314,-737.99 L -130.937,-737.911 L -131.545,-737.755 L -132.129,-737.524 L -132.679,-737.222
 L -133.187,-736.853 L -133.645,-736.423 L -134.045,-735.939 L -134.382,-735.409 L -134.649,-734.841 L -134.843,-734.243
 L -134.961,-733.627 L -135,-733 L -135,-653 L -134.961,-652.373 L -134.843,-651.757 L -134.649,-651.159
 L -134.382,-650.591 L -134.045,-650.061 L -133.645,-649.577 L -133.187,-649.147 L -132.679,-648.778 L -132.129,-648.476
 L -131.545,-648.245 L -130.937,-648.089 L -130.314,-648.01 L 130.314,-648.01 z
M -130.048,-648.509 L -130.64,-648.584 L -131.218,-648.732 L -131.772,-648.952 L -132.295,-649.239 L -132.778,-649.59
 L -133.213,-649.998 L -133.593,-650.458 L -133.912,-650.962 L -134.166,-651.501 L -134.351,-652.069 L -134.463,-652.655
 L -134.5,-653.25 L -134.5,-732.75 L -134.463,-733.345 L -134.351,-733.931 L -134.166,-734.499 L -133.912,-735.038
 L -133.593,-735.542 L -133.213,-736.002 L -132.778,-736.41 L -132.295,-736.761 L -131.772,-737.048 L -131.218,-737.268
 L -130.64,-737.416 L -130.048,-737.491 L 130.048,-737.491 L 130.64,-737.416 L 131.218,-737.268 L 131.772,-737.048
 L 132.295,-736.761 L 132.778,-736.41 L 133.213,-736.002 L 133.593,-735.542 L 133.912,-735.038 L 134.166,-734.499
 L 134.351,-733.931 L 134.463,-733.345 L 134.5,-732.75 L 134.5,-653.25 L 134.463,-652.655 L 134.351,-652.069
 L 134.166,-651.501 L 133.912,-650.962 L 133.593,-650.458 L 133.213,-649.998 L 132.778,-649.59 L 132.295,-649.239
 L 131.772,-648.952 L 131.218,-648.732 L 130.64,-648.584 L 130.048,-648.509 z
M 130.937,-549.089 L 131.545,-549.245 L 132.129,-549.476 L 132.679,-549.778 L 133.187,-550.147 L 133.645,-550.577
 L 134.045,-551.061 L 134.382,-551.591 L 134.649,-552.159 L 134.843,-552.757 L 134.961,-553.373 L 135,-554
 L 135,-634 L 134.961,-634.627 L 134.843,-635.243 L 134.649,-635.841 L 134.382,-636.409 L 134.045,-636.939
 L 133.645,-637.423 L 133.187,-637.853 L 132.679,-638.222 L 132.129,-638.524 L 131.545,-638.755 L 130.937,-638.911
 L 130.314,-638.99 L -130.314,-638.99 L -130.937,-638.911 L -131.545,-638.755 L -132.129,-638.524 L -132.679,-638.222
 L -133.187,-637.853 L -133.645,-637.423 L -134.045,-636.939 L -134.382,-636.409 L -134.649,-635.841 L -134.843,-635.243
 L -134.961,-634.627 L -135,-634 L -135,-554 L -134.961,-553.373 L -134.843,-552.757 L -134.649,-552.159
 L -134.382,-551.591 L -134.045,-551.061 L -133.645,-550.577 L -133.187,-550.147 L -132.679,-549.778 L -132.129,-549.476
 L -131.545,-549.245 L -130.937,-549.089 L -130.314,-549.01 L 130.314,-549.01 z
M -130.048,-549.509 L -130.64,-549.584 L -131.218,-549.732 L -131.772,-549.952 L -132.295,-550.239 L -132.778,-550.59
 L -133.213,-550.998 L -133.593,-551.458 L -133.912,-551.962 L -134.166,-552.501 L -134.351,-553.069 L -134.463,-553.655
 L -134.5,-554.25 L -134.5,-633.75 L -134.463,-634.345 L -134.351,-634.931 L -134.166,-635.499 L -133.912,-636.038
 L -133.593,-636.542 L -133.213,-637.002 L -132.778,-637.41 L -132.295,-637.761 L -131.772,-638.048 L -131.218,-638.268
 L -130.64,-638.416 L -130.048,-638.491 L 130.048,-638.491 L 130.64,-638.416 L 131.218,-638.268 L 131.772,-638.048
 L 132.295,-637.761 L 132.778,-637.41 L 133.213,-637.002 L 133.593,-636.542 L 133.912,-636.038 L 134.166,-635.499
 L 134.351,-634.931 L 134.463,-634.345 L 134.5,-633.75 L 134.5,-554.25 L 134.463,-553.655 L 134.351,-553.069
 L 134.166,-552.501 L 133.912,-551.962 L 133.593,-551.458 L 133.213,-550.998 L 132.778,-550.59 L 132.295,-550.239
 L 131.772,-549.952 L 131.218,-549.732 L 130.64,-549.584 L 130.048,-549.509 z
M 130.937,-450.089 L 131.545,-450.245 L 132.129,-450.476 L 132.679,-450.778 L 133.187,-451.147 L 133.645,-451.577
 L 134.045,-452.061 L 134.382,-452.591 L 134.649,-453.159 L 134.843,-453.757 L 134.961,-454.373 L 135,-455
 L 135,-535 L 134.961,-535.627 L 134.843,-536.243 L 134.649,-536.841 L 134.382,-537.409 L 134.045,-537.939
 L 133.645,-538.423 L 133.187,-538.853 L 132.679,-539.222 L 132.129,-539.524 L 131.545,-539.755 L 130.937,-539.911
 L 130.314,-539.99 L -130.314,-539.99 L -130.937,-539.911 L -131.545,-539.755 L -132.129,-539.524 L -132.679,-539.222
 L -133.187,-538.853 L -133.645,-538.423 L -134.045,-537.939 L -134.382,-537.409 L -134.649,-536.841 L -134.843,-536.243
 L -134.961,-535.627 L -135,-535 L -135,-455 L -134.961,-454.373 L -134.843,-453.757 L -134.649,-453.159
 L -134.382,-452.591 L -134.045,-452.061 L -133.645,-451.577 L -133.187,-451.147 L -132.679,-450.778 L -132.129,-450.476
 L -131.545,-450.245 L -130.937,-450.089 L -130.314,-450.01 L 130.314,-450.01 z
M -129.993,-451.388 L -130.475,-451.449 L -130.946,-451.57 L -131.398,-451.749 L -131.823,-451.983 L -132.216,-452.269
 L -132.571,-452.601 L -132.88,-452.976 L -133.141,-453.386 L -133.348,-453.826 L -133.498,-454.288 L -133.589,-454.765
 L -133.619,-455.25 L -133.619,-534.75 L -133.589,-535.235 L -133.498,-535.712 L -133.348,-536.174 L -133.141,-536.614
 L -132.88,-537.024 L -132.571,-537.399 L -132.216,-537.731 L -131.823,-538.017 L -131.398,-538.251 L -130.946,-538.43
 L -130.475,-538.551 L -129.993,-538.612 L 129.993,-538.612 L 130.475,-538.551 L 130.946,-538.43 L 131.398,-538.251
 L 131.823,-538.017 L 132.216,-537.731 L 132.571,-537.399 L 132.88,-537.024 L 133.141,-536.614 L 133.348,-536.174
 L 133.498,-535.712 L 133.589,-535.235 L 133.619,-534.75 L 133.619,-455.25 L 133.589,-454.765 L 133.498,-454.288
 L 133.348,-453.826 L 133.141,-453.386 L 132.88,-452.976 L 132.571,-452.601 L 132.216,-452.269 L 131.823,-451.983
 L 131.398,-451.749 L 130.946,-451.57 L 130.475,-451.449 L 129.993,-451.388 z
M 130.937,-351.089 L 131.545,-351.245 L 132.129,-351.476 L 132.679,-351.778 L 133.187,-352.147 L 133.645,-352.577
 L 134.045,-353.061 L 134.382,-353.591 L 134.649,-354.159 L 134.843,-354.757 L 134.961,-355.373 L 135,-356
 L 135,-436 L 134.961,-436.627 L 134.843,-437.243 L 134.649,-437.841 L 134.382,-438.409 L 134.045,-438.939
 L 133.645,-439.423 L 133.187,-439.853 L 132.679,-440.222 L 132.129,-440.524 L 131.545,-440.755 L 130.937,-440.911
 L 130.314,-440.99 L -130.314,-440.99 L -130.937,-440.911 L -131.545,-440.755 L -132.129,-440.524 L -132.679,-440.222
 L -133.187,-439.853 L -133.645,-439.423 L -134.045,-438.939 L -134.382,-438.409 L -134.649,-437.841 L -134.843,-437.243
 L -134.961,-436.627 L -135,-436 L -135,-356 L -134.961,-355.373 L -134.843,-354.757 L -134.649,-354.159
 L -134.382,-353.591 L -134.045,-353.061 L -133.645,-352.577 L -133.187,-352.147 L -132.679,-351.778 L -132.129,-351.476
 L -131.545,-351.245 L -130.937,-351.089 L -130.314,-351.01 L 130.314,-351.01 z
M -127.613,-431.704 L -127.837,-431.732 L -128.056,-431.788 L -128.266,-431.871 L -128.464,-431.98 L -128.647,-432.113
 L -128.812,-432.268 L -128.956,-432.442 L -129.077,-432.633 L -129.174,-432.837 L -129.243,-433.052 L -129.286,-433.274
 L -129.3,-433.5 L -129.286,-433.726 L -129.243,-433.948 L -129.174,-434.163 L -129.077,-434.367 L -128.956,-434.558
 L -128.812,-434.732 L -128.647,-434.887 L -128.464,-435.02 L -128.266,-435.129 L -128.056,-435.212 L -127.837,-435.268
 L -127.613,-435.296 L -127.387,-435.296 L -127.163,-435.268 L -126.944,-435.212 L -126.734,-435.129 L -126.536,-435.02
 L -126.353,-434.887 L -126.188,-434.732 L -126.044,-434.558 L -125.923,-434.367 L -125.826,-434.163 L -125.757,-433.948
 L -125.714,-433.726 L -125.7,-433.5 L -125.714,-433.274 L -125.757,-433.052 L -125.826,-432.837 L -125.923,-432.633
 L -126.044,-432.442 L -126.188,-432.268 L -126.353,-432.113 L -126.536,-431.98 L -126.734,-431.871 L -126.944,-431.788
 L -127.163,-431.732 L -127.387,-431.704 z
M 127.387,-431.704 L 127.163,-431.732 L 126.944,-431.788 L 126.734,-431.871 L 126.536,-431.98 L 126.353,-432.113
 L 126.188,-432.268 L 126.044,-432.442 L 125.923,-432.633 L 125.826,-432.837 L 125.757,-433.052 L 125.714,-433.274
 L 125.7,-433.5 L 125.714,-433.726 L 125.757,-433.948 L 125.826,-434.163 L 125.923,-434.367 L 126.044,-434.558
 L 126.188,-434.732 L 126.353,-434.887 L 126.536,-435.02 L 126.734,-435.129 L 126.944,-435.212 L 127.163,-435.268
 L 127.387,-435.296 L 127.613,-435.296 L 127.837,-435.268 L 128.056,-435.212 L 128.266,-435.129 L 128.464,-435.02
 L 128.647,-434.887 L 128.812,-434.732 L 128.956,-434.558 L 129.077,-434.367 L 129.174,-434.163 L 129.243,-433.948
 L 129.286,-433.726 L 129.3,-433.5 L 129.286,-433.274 L 129.243,-433.052 L 129.174,-432.837 L 129.077,-432.633
 L 128.956,-432.442 L 128.812,-432.268 L 128.647,-432.113 L 128.464,-431.98 L 128.266,-431.871 L 128.056,-431.788
 L 127.837,-431.732 L 127.613,-431.704 z
M 127.387,-356.704 L 127.163,-356.732 L 126.944,-356.788 L 126.734,-356.871 L 126.536,-356.98 L 126.353,-357.113
 L 126.188,-357.268 L 126.044,-357.442 L 125.923,-357.633 L 125.826,-357.837 L 125.757,-358.052 L 125.714,-358.274
 L 125.7,-358.5 L 125.714,-358.726 L 125.757,-358.948 L 125.826,-359.163 L 125.923,-359.367 L 126.044,-359.558
 L 126.188,-359.732 L 126.353,-359.887 L 126.536,-360.02 L 126.734,-360.129 L 126.944,-360.212 L 127.163,-360.268
 L 127.387,-360.296 L 127.613,-360.296 L 127.837,-360.268 L 128.056,-360.212 L 128.266,-360.129 L 128.464,-360.02
 L 128.647,-359.887 L 128.812,-359.732 L 128.956,-359.558 L 129.077,-359.367 L 129.174,-359.163 L 129.243,-358.948
 L 129.286,-358.726 L 129.3,-358.5 L 129.286,-358.274 L 129.243,-358.052 L 129.174,-357.837 L 129.077,-357.633
 L 128.956,-357.442 L 128.812,-357.268 L 128.647,-357.113 L 128.464,-356.98 L 128.266,-356.871 L 128.056,-356.788
 L 127.837,-356.732 L 127.613,-356.704 z
M -127.613,-356.704 L -127.837,-356.732 L -128.056,-356.788 L -128.266,-356.871 L -128.464,-356.98 L -128.647,-357.113
 L -128.812,-357.268 L -128.956,-357.442 L -129.077,-357.633 L -129.174,-357.837 L -129.243,-358.052 L -129.286,-358.274
 L -129.3,-358.5 L -129.286,-358.726 L -129.243,-358.948 L -129.174,-359.163 L -129.077,-359.367 L -128.956,-359.558
 L -128.812,-359.732 L -128.647,-359.887 L -128.464,-360.02 L -128.266,-360.129 L -128.056,-360.212 L -127.837,-360.268
 L -127.613,-360.296 L -127.387,-360.296 L -127.163,-360.268 L -126.944,-360.212 L -126.734,-360.129 L -126.536,-360.02
 L -126.353,-359.887 L -126.188,-359.732 L -126.044,-359.558 L -125.923,-359.367 L -125.826,-359.163 L -125.757,-358.948
 L -125.714,-358.726 L -125.7,-358.5 L -125.714,-358.274 L -125.757,-358.052 L -125.826,-357.837 L -125.923,-357.633
 L -126.044,-357.442 L -126.188,-357.268 L -126.353,-357.113 L -126.536,-356.98 L -126.734,-356.871 L -126.944,-356.788
 L -127.163,-356.732 L -127.387,-356.704 z
" stroke="black" fill="lightgray" stroke-width="0.5"/>
</svg>
