  0
SECTION
  2
BLOCKS
  0
ENDSEC
  0
SECTION
  2
ENTITIES
  0
LINE
  8
0
 10
-133.5
 20
1423.44
 11
-133.187
 21
1423.15
  0
LINE
  8
0
 10
-133.187
 20
1423.15
 11
-132.679
 21
1422.78
  0
LINE
  8
0
 10
-132.679
 20
1422.78
 11
-132.129
 21
1422.48
  0
LINE
  8
0
 10
-132.129
 20
1422.48
 11
-131.545
 21
1422.24
  0
LINE
  8
0
 10
-131.545
 20
1422.24
 11
-130.937
 21
1422.09
  0
LINE
  8
0
 10
-130.937
 20
1422.09
 11
-130.314
 21
1422.01
  0
LINE
  8
0
 10
-130.314
 20
1422.01
 11
130.314
 21
1422.01
  0
LINE
  8
0
 10
130.314
 20
1422.01
 11
130.937
 21
1422.09
  0
LINE
  8
0
 10
130.937
 20
1422.09
 11
131.545
 21
1422.24
  0
LINE
  8
0
 10
131.545
 20
1422.24
 11
132.129
 21
1422.48
  0
LINE
  8
0
 10
132.129
 20
1422.48
 11
132.679
 21
1422.78
  0
LINE
  8
0
 10
132.679
 20
1422.78
 11
133.187
 21
1423.15
  0
LINE
  8
0
 10
133.187
 20
1423.15
 11
133.645
 21
1423.58
  0
LINE
  8
0
 10
133.645
 20
1423.58
 11
134.045
 21
1424.06
  0
LINE
  8
0
 10
134.045
 20
1424.06
 11
134.382
 21
1424.59
  0
LINE
  8
0
 10
134.382
 20
1424.59
 11
134.649
 21
1425.16
  0
LINE
  8
0
 10
134.649
 20
1425.16
 11
134.843
 21
1425.76
  0
LINE
  8
0
 10
134.843
 20
1425.76
 11
134.961
 21
1426.37
  0
LINE
  8
0
 10
134.961
 20
1426.37
 11
135
 21
1427
  0
LINE
  8
0
 10
135
 20
1427
 11
135
 21
1597
  0
LINE
  8
0
 10
135
 20
1597
 11
134.961
 21
1597.63
  0
LINE
  8
0
 10
134.961
 20
1597.63
 11
134.843
 21
1598.24
  0
LINE
  8
0
 10
134.843
 20
1598.24
 11
134.649
 21
1598.84
  0
LINE
  8
0
 10
134.649
 20
1598.84
 11
134.382
 21
1599.41
  0
LINE
  8
0
 10
134.382
 20
1599.41
 11
134.045
 21
1599.94
  0
LINE
  8
0
 10
134.045
 20
1599.94
 11
133.645
 21
1600.42
  0
LINE
  8
0
 10
133.645
 20
1600.42
 11
133.187
 21
1600.85
  0
LINE
  8
0
 10
133.187
 20
1600.85
 11
132.679
 21
1601.22
  0
LINE
  8
0
 10
132.679
 20
1601.22
 11
132.129
 21
1601.52
  0
LINE
  8
0
 10
132.129
 20
1601.52
 11
131.545
 21
1601.76
  0
LINE
  8
0
 10
131.545
 20
1601.76
 11
130.937
 21
1601.91
  0
LINE
  8
0
 10
130.937
 20
1601.91
 11
130.314
 21
1601.99
  0
LINE
  8
0
 10
130.314
 20
1601.99
 11
-130.314
 21
1601.99
  0
LINE
  8
0
 10
-130.314
 20
1601.99
 11
-130.937
 21
1601.91
  0
LINE
  8
0
 10
-130.937
 20
1601.91
 11
-131.545
 21
1601.76
  0
LINE
  8
0
 10
-131.545
 20
1601.76
 11
-132.129
 21
1601.52
  0
LINE
  8
0
 10
-132.129
 20
1601.52
 11
-132.679
 21
1601.22
  0
LINE
  8
0
 10
-132.679
 20
1601.22
 11
-133.187
 21
1600.85
  0
LINE
  8
0
 10
-133.187
 20
1600.85
 11
-133.5
 21
1600.56
  0
LINE
  8
0
 10
-133.5
 20
1600.56
 11
-133.5
 21
1601.99
  0
LINE
  8
0
 10
-133.5
 20
1601.99
 11
-136.5
 21
1601.99
  0
LINE
  8
0
 10
-136.5
 20
1601.99
 11
-136.5
 21
1422.01
  0
LINE
  8
0
 10
-136.5
 20
1422.01
 11
-133.5
 21
1422.01
  0
LINE
  8
0
 10
-133.5
 20
1422.01
 11
-133.5
 21
1423.44
  0
LINE
  8
0
 10
-129.751
 20
1423.51
 11
-130.25
 21
1423.57
  0
LINE
  8
0
 10
-130.25
 20
1423.57
 11
-130.736
 21
1423.7
  0
LINE
  8
0
 10
-130.736
 20
1423.7
 11
-131.203
 21
1423.88
  0
LINE
  8
0
 10
-131.203
 20
1423.88
 11
-131.643
 21
1424.12
  0
LINE
  8
0
 10
-131.643
 20
1424.12
 11
-132.05
 21
1424.42
  0
LINE
  8
0
 10
-132.05
 20
1424.42
 11
-132.416
 21
1424.76
  0
LINE
  8
0
 10
-132.416
 20
1424.76
 11
-132.736
 21
1425.15
  0
LINE
  8
0
 10
-132.736
 20
1425.15
 11
-133.005
 21
1425.57
  0
LINE
  8
0
 10
-133.005
 20
1425.57
 11
-133.219
 21
1426.03
  0
LINE
  8
0
 10
-133.219
 20
1426.03
 11
-133.374
 21
1426.51
  0
LINE
  8
0
 10
-133.374
 20
1426.51
 11
-133.468
 21
1427
  0
LINE
  8
0
 10
-133.468
 20
1427
 11
-133.5
 21
1427.5
  0
LINE
  8
0
 10
-133.5
 20
1427.5
 11
-133.5
 21
1596.5
  0
LINE
  8
0
 10
-133.5
 20
1596.5
 11
-133.468
 21
1597
  0
LINE
  8
0
 10
-133.468
 20
1597
 11
-133.374
 21
1597.49
  0
LINE
  8
0
 10
-133.374
 20
1597.49
 11
-133.219
 21
1597.97
  0
LINE
  8
0
 10
-133.219
 20
1597.97
 11
-133.005
 21
1598.43
  0
LINE
  8
0
 10
-133.005
 20
1598.43
 11
-132.736
 21
1598.85
  0
LINE
  8
0
 10
-132.736
 20
1598.85
 11
-132.416
 21
1599.24
  0
LINE
  8
0
 10
-132.416
 20
1599.24
 11
-132.05
 21
1599.58
  0
LINE
  8
0
 10
-132.05
 20
1599.58
 11
-131.643
 21
1599.88
  0
LINE
  8
0
 10
-131.643
 20
1599.88
 11
-131.203
 21
1600.12
  0
LINE
  8
0
 10
-131.203
 20
1600.12
 11
-130.736
 21
1600.3
  0
LINE
  8
0
 10
-130.736
 20
1600.3
 11
-130.25
 21
1600.43
  0
LINE
  8
0
 10
-130.25
 20
1600.43
 11
-129.751
 21
1600.49
  0
LINE
  8
0
 10
-129.751
 20
1600.49
 11
129.751
 21
1600.49
  0
LINE
  8
0
 10
129.751
 20
1600.49
 11
130.25
 21
1600.43
  0
LINE
  8
0
 10
130.25
 20
1600.43
 11
130.736
 21
1600.3
  0
LINE
  8
0
 10
130.736
 20
1600.3
 11
131.203
 21
1600.12
  0
LINE
  8
0
 10
131.203
 20
1600.12
 11
131.643
 21
1599.88
  0
LINE
  8
0
 10
131.643
 20
1599.88
 11
132.05
 21
1599.58
  0
LINE
  8
0
 10
132.05
 20
1599.58
 11
132.416
 21
1599.24
  0
LINE
  8
0
 10
132.416
 20
1599.24
 11
132.736
 21
1598.85
  0
LINE
  8
0
 10
132.736
 20
1598.85
 11
133.005
 21
1598.43
  0
LINE
  8
0
 10
133.005
 20
1598.43
 11
133.219
 21
1597.97
  0
LINE
  8
0
 10
133.219
 20
1597.97
 11
133.374
 21
1597.49
  0
LINE
  8
0
 10
133.374
 20
1597.49
 11
133.468
 21
1597
  0
LINE
  8
0
 10
133.468
 20
1597
 11
133.5
 21
1596.5
  0
LINE
  8
0
 10
133.5
 20
1596.5
 11
133.5
 21
1427.5
  0
LINE
  8
0
 10
133.5
 20
1427.5
 11
133.468
 21
1427
  0
LINE
  8
0
 10
133.468
 20
1427
 11
133.374
 21
1426.51
  0
LINE
  8
0
 10
133.374
 20
1426.51
 11
133.219
 21
1426.03
  0
LINE
  8
0
 10
133.219
 20
1426.03
 11
133.005
 21
1425.57
  0
LINE
  8
0
 10
133.005
 20
1425.57
 11
132.736
 21
1425.15
  0
LINE
  8
0
 10
132.736
 20
1425.15
 11
132.416
 21
1424.76
  0
LINE
  8
0
 10
132.416
 20
1424.76
 11
132.05
 21
1424.42
  0
LINE
  8
0
 10
132.05
 20
1424.42
 11
131.643
 21
1424.12
  0
LINE
  8
0
 10
131.643
 20
1424.12
 11
131.203
 21
1423.88
  0
LINE
  8
0
 10
131.203
 20
1423.88
 11
130.736
 21
1423.7
  0
LINE
  8
0
 10
130.736
 20
1423.7
 11
130.25
 21
1423.57
  0
LINE
  8
0
 10
130.25
 20
1423.57
 11
129.751
 21
1423.51
  0
LINE
  8
0
 10
129.751
 20
1423.51
 11
-129.751
 21
1423.51
  0
LINE
  8
0
 10
-133.5
 20
1234.44
 11
-133.187
 21
1234.15
  0
LINE
  8
0
 10
-133.187
 20
1234.15
 11
-132.679
 21
1233.78
  0
LINE
  8
0
 10
-132.679
 20
1233.78
 11
-132.129
 21
1233.48
  0
LINE
  8
0
 10
-132.129
 20
1233.48
 11
-131.545
 21
1233.24
  0
LINE
  8
0
 10
-131.545
 20
1233.24
 11
-130.937
 21
1233.09
  0
LINE
  8
0
 10
-130.937
 20
1233.09
 11
-130.314
 21
1233.01
  0
LINE
  8
0
 10
-130.314
 20
1233.01
 11
130.314
 21
1233.01
  0
LINE
  8
0
 10
130.314
 20
1233.01
 11
130.937
 21
1233.09
  0
LINE
  8
0
 10
130.937
 20
1233.09
 11
131.545
 21
1233.24
  0
LINE
  8
0
 10
131.545
 20
1233.24
 11
132.129
 21
1233.48
  0
LINE
  8
0
 10
132.129
 20
1233.48
 11
132.679
 21
1233.78
  0
LINE
  8
0
 10
132.679
 20
1233.78
 11
133.187
 21
1234.15
  0
LINE
  8
0
 10
133.187
 20
1234.15
 11
133.645
 21
1234.58
  0
LINE
  8
0
 10
133.645
 20
1234.58
 11
134.045
 21
1235.06
  0
LINE
  8
0
 10
134.045
 20
1235.06
 11
134.382
 21
1235.59
  0
LINE
  8
0
 10
134.382
 20
1235.59
 11
134.649
 21
1236.16
  0
LINE
  8
0
 10
134.649
 20
1236.16
 11
134.843
 21
1236.76
  0
LINE
  8
0
 10
134.843
 20
1236.76
 11
134.961
 21
1237.37
  0
LINE
  8
0
 10
134.961
 20
1237.37
 11
135
 21
1238
  0
LINE
  8
0
 10
135
 20
1238
 11
135
 21
1408
  0
LINE
  8
0
 10
135
 20
1408
 11
134.961
 21
1408.63
  0
LINE
  8
0
 10
134.961
 20
1408.63
 11
134.843
 21
1409.24
  0
LINE
  8
0
 10
134.843
 20
1409.24
 11
134.649
 21
1409.84
  0
LINE
  8
0
 10
134.649
 20
1409.84
 11
134.382
 21
1410.41
  0
LINE
  8
0
 10
134.382
 20
1410.41
 11
134.045
 21
1410.94
  0
LINE
  8
0
 10
134.045
 20
1410.94
 11
133.645
 21
1411.42
  0
LINE
  8
0
 10
133.645
 20
1411.42
 11
133.187
 21
1411.85
  0
LINE
  8
0
 10
133.187
 20
1411.85
 11
132.679
 21
1412.22
  0
LINE
  8
0
 10
132.679
 20
1412.22
 11
132.129
 21
1412.52
  0
LINE
  8
0
 10
132.129
 20
1412.52
 11
131.545
 21
1412.76
  0
LINE
  8
0
 10
131.545
 20
1412.76
 11
130.937
 21
1412.91
  0
LINE
  8
0
 10
130.937
 20
1412.91
 11
130.314
 21
1412.99
  0
LINE
  8
0
 10
130.314
 20
1412.99
 11
-130.314
 21
1412.99
  0
LINE
  8
0
 10
-130.314
 20
1412.99
 11
-130.937
 21
1412.91
  0
LINE
  8
0
 10
-130.937
 20
1412.91
 11
-131.545
 21
1412.76
  0
LINE
  8
0
 10
-131.545
 20
1412.76
 11
-132.129
 21
1412.52
  0
LINE
  8
0
 10
-132.129
 20
1412.52
 11
-132.679
 21
1412.22
  0
LINE
  8
0
 10
-132.679
 20
1412.22
 11
-133.187
 21
1411.85
  0
LINE
  8
0
 10
-133.187
 20
1411.85
 11
-133.5
 21
1411.56
  0
LINE
  8
0
 10
-133.5
 20
1411.56
 11
-133.5
 21
1412.99
  0
LINE
  8
0
 10
-133.5
 20
1412.99
 11
-136.5
 21
1412.99
  0
LINE
  8
0
 10
-136.5
 20
1412.99
 11
-136.5
 21
1233.01
  0
LINE
  8
0
 10
-136.5
 20
1233.01
 11
-133.5
 21
1233.01
  0
LINE
  8
0
 10
-133.5
 20
1233.01
 11
-133.5
 21
1234.44
  0
LINE
  8
0
 10
-129.751
 20
1234.51
 11
-130.25
 21
1234.57
  0
LINE
  8
0
 10
-130.25
 20
1234.57
 11
-130.736
 21
1234.7
  0
LINE
  8
0
 10
-130.736
 20
1234.7
 11
-131.203
 21
1234.88
  0
LINE
  8
0
 10
-131.203
 20
1234.88
 11
-131.643
 21
1235.12
  0
LINE
  8
0
 10
-131.643
 20
1235.12
 11
-132.05
 21
1235.42
  0
LINE
  8
0
 10
-132.05
 20
1235.42
 11
-132.416
 21
1235.76
  0
LINE
  8
0
 10
-132.416
 20
1235.76
 11
-132.736
 21
1236.15
  0
LINE
  8
0
 10
-132.736
 20
1236.15
 11
-133.005
 21
1236.57
  0
LINE
  8
0
 10
-133.005
 20
1236.57
 11
-133.219
 21
1237.03
  0
LINE
  8
0
 10
-133.219
 20
1237.03
 11
-133.374
 21
1237.51
  0
LINE
  8
0
 10
-133.374
 20
1237.51
 11
-133.468
 21
1238
  0
LINE
  8
0
 10
-133.468
 20
1238
 11
-133.5
 21
1238.5
  0
LINE
  8
0
 10
-133.5
 20
1238.5
 11
-133.5
 21
1407.5
  0
LINE
  8
0
 10
-133.5
 20
1407.5
 11
-133.468
 21
1408
  0
LINE
  8
0
 10
-133.468
 20
1408
 11
-133.374
 21
1408.49
  0
LINE
  8
0
 10
-133.374
 20
1408.49
 11
-133.219
 21
1408.97
  0
LINE
  8
0
 10
-133.219
 20
1408.97
 11
-133.005
 21
1409.43
  0
LINE
  8
0
 10
-133.005
 20
1409.43
 11
-132.736
 21
1409.85
  0
LINE
  8
0
 10
-132.736
 20
1409.85
 11
-132.416
 21
1410.24
  0
LINE
  8
0
 10
-132.416
 20
1410.24
 11
-132.05
 21
1410.58
  0
LINE
  8
0
 10
-132.05
 20
1410.58
 11
-131.643
 21
1410.88
  0
LINE
  8
0
 10
-131.643
 20
1410.88
 11
-131.203
 21
1411.12
  0
LINE
  8
0
 10
-131.203
 20
1411.12
 11
-130.736
 21
1411.3
  0
LINE
  8
0
 10
-130.736
 20
1411.3
 11
-130.25
 21
1411.43
  0
LINE
  8
0
 10
-130.25
 20
1411.43
 11
-129.751
 21
1411.49
  0
LINE
  8
0
 10
-129.751
 20
1411.49
 11
129.751
 21
1411.49
  0
LINE
  8
0
 10
129.751
 20
1411.49
 11
130.25
 21
1411.43
  0
LINE
  8
0
 10
130.25
 20
1411.43
 11
130.736
 21
1411.3
  0
LINE
  8
0
 10
130.736
 20
1411.3
 11
131.203
 21
1411.12
  0
LINE
  8
0
 10
131.203
 20
1411.12
 11
131.643
 21
1410.88
  0
LINE
  8
0
 10
131.643
 20
1410.88
 11
132.05
 21
1410.58
  0
LINE
  8
0
 10
132.05
 20
1410.58
 11
132.416
 21
1410.24
  0
LINE
  8
0
 10
132.416
 20
1410.24
 11
132.736
 21
1409.85
  0
LINE
  8
0
 10
132.736
 20
1409.85
 11
133.005
 21
1409.43
  0
LINE
  8
0
 10
133.005
 20
1409.43
 11
133.219
 21
1408.97
  0
LINE
  8
0
 10
133.219
 20
1408.97
 11
133.374
 21
1408.49
  0
LINE
  8
0
 10
133.374
 20
1408.49
 11
133.468
 21
1408
  0
LINE
  8
0
 10
133.468
 20
1408
 11
133.5
 21
1407.5
  0
LINE
  8
0
 10
133.5
 20
1407.5
 11
133.5
 21
1238.5
  0
LINE
  8
0
 10
133.5
 20
1238.5
 11
133.468
 21
1238
  0
LINE
  8
0
 10
133.468
 20
1238
 11
133.374
 21
1237.51
  0
LINE
  8
0
 10
133.374
 20
1237.51
 11
133.219
 21
1237.03
  0
LINE
  8
0
 10
133.219
 20
1237.03
 11
133.005
 21
1236.57
  0
LINE
  8
0
 10
133.005
 20
1236.57
 11
132.736
 21
1236.15
  0
LINE
  8
0
 10
132.736
 20
1236.15
 11
132.416
 21
1235.76
  0
LINE
  8
0
 10
132.416
 20
1235.76
 11
132.05
 21
1235.42
  0
LINE
  8
0
 10
132.05
 20
1235.42
 11
131.643
 21
1235.12
  0
LINE
  8
0
 10
131.643
 20
1235.12
 11
131.203
 21
1234.88
  0
LINE
  8
0
 10
131.203
 20
1234.88
 11
130.736
 21
1234.7
  0
LINE
  8
0
 10
130.736
 20
1234.7
 11
130.25
 21
1234.57
  0
LINE
  8
0
 10
130.25
 20
1234.57
 11
129.751
 21
1234.51
  0
LINE
  8
0
 10
129.751
 20
1234.51
 11
-129.751
 21
1234.51
  0
LINE
  8
0
 10
-133.5
 20
1045.44
 11
-133.187
 21
1045.15
  0
LINE
  8
0
 10
-133.187
 20
1045.15
 11
-132.679
 21
1044.78
  0
LINE
  8
0
 10
-132.679
 20
1044.78
 11
-132.129
 21
1044.48
  0
LINE
  8
0
 10
-132.129
 20
1044.48
 11
-131.545
 21
1044.24
  0
LINE
  8
0
 10
-131.545
 20
1044.24
 11
-130.937
 21
1044.09
  0
LINE
  8
0
 10
-130.937
 20
1044.09
 11
-130.314
 21
1044.01
  0
LINE
  8
0
 10
-130.314
 20
1044.01
 11
130.314
 21
1044.01
  0
LINE
  8
0
 10
130.314
 20
1044.01
 11
130.937
 21
1044.09
  0
LINE
  8
0
 10
130.937
 20
1044.09
 11
131.545
 21
1044.24
  0
LINE
  8
0
 10
131.545
 20
1044.24
 11
132.129
 21
1044.48
  0
LINE
  8
0
 10
132.129
 20
1044.48
 11
132.679
 21
1044.78
  0
LINE
  8
0
 10
132.679
 20
1044.78
 11
133.187
 21
1045.15
  0
LINE
  8
0
 10
133.187
 20
1045.15
 11
133.645
 21
1045.58
  0
LINE
  8
0
 10
133.645
 20
1045.58
 11
134.045
 21
1046.06
  0
LINE
  8
0
 10
134.045
 20
1046.06
 11
134.382
 21
1046.59
  0
LINE
  8
0
 10
134.382
 20
1046.59
 11
134.649
 21
1047.16
  0
LINE
  8
0
 10
134.649
 20
1047.16
 11
134.843
 21
1047.76
  0
LINE
  8
0
 10
134.843
 20
1047.76
 11
134.961
 21
1048.37
  0
LINE
  8
0
 10
134.961
 20
1048.37
 11
135
 21
1049
  0
LINE
  8
0
 10
135
 20
1049
 11
135
 21
1219
  0
LINE
  8
0
 10
135
 20
1219
 11
134.961
 21
1219.63
  0
LINE
  8
0
 10
134.961
 20
1219.63
 11
134.843
 21
1220.24
  0
LINE
  8
0
 10
134.843
 20
1220.24
 11
134.649
 21
1220.84
  0
LINE
  8
0
 10
134.649
 20
1220.84
 11
134.382
 21
1221.41
  0
LINE
  8
0
 10
134.382
 20
1221.41
 11
134.045
 21
1221.94
  0
LINE
  8
0
 10
134.045
 20
1221.94
 11
133.645
 21
1222.42
  0
LINE
  8
0
 10
133.645
 20
1222.42
 11
133.187
 21
1222.85
  0
LINE
  8
0
 10
133.187
 20
1222.85
 11
132.679
 21
1223.22
  0
LINE
  8
0
 10
132.679
 20
1223.22
 11
132.129
 21
1223.52
  0
LINE
  8
0
 10
132.129
 20
1223.52
 11
131.545
 21
1223.76
  0
LINE
  8
0
 10
131.545
 20
1223.76
 11
130.937
 21
1223.91
  0
LINE
  8
0
 10
130.937
 20
1223.91
 11
130.314
 21
1223.99
  0
LINE
  8
0
 10
130.314
 20
1223.99
 11
-130.314
 21
1223.99
  0
LINE
  8
0
 10
-130.314
 20
1223.99
 11
-130.937
 21
1223.91
  0
LINE
  8
0
 10
-130.937
 20
1223.91
 11
-131.545
 21
1223.76
  0
LINE
  8
0
 10
-131.545
 20
1223.76
 11
-132.129
 21
1223.52
  0
LINE
  8
0
 10
-132.129
 20
1223.52
 11
-132.679
 21
1223.22
  0
LINE
  8
0
 10
-132.679
 20
1223.22
 11
-133.187
 21
1222.85
  0
LINE
  8
0
 10
-133.187
 20
1222.85
 11
-133.5
 21
1222.56
  0
LINE
  8
0
 10
-133.5
 20
1222.56
 11
-133.5
 21
1223.99
  0
LINE
  8
0
 10
-133.5
 20
1223.99
 11
-136.5
 21
1223.99
  0
LINE
  8
0
 10
-136.5
 20
1223.99
 11
-136.5
 21
1044.01
  0
LINE
  8
0
 10
-136.5
 20
1044.01
 11
-133.5
 21
1044.01
  0
LINE
  8
0
 10
-133.5
 20
1044.01
 11
-133.5
 21
1045.44
  0
LINE
  8
0
 10
-129.743
 20
1045.64
 11
-130.226
 21
1045.7
  0
LINE
  8
0
 10
-130.226
 20
1045.7
 11
-130.697
 21
1045.82
  0
LINE
  8
0
 10
-130.697
 20
1045.82
 11
-131.149
 21
1046
  0
LINE
  8
0
 10
-131.149
 20
1046
 11
-131.575
 21
1046.23
  0
LINE
  8
0
 10
-131.575
 20
1046.23
 11
-131.969
 21
1046.52
  0
LINE
  8
0
 10
-131.969
 20
1046.52
 11
-132.323
 21
1046.85
  0
LINE
  8
0
 10
-132.323
 20
1046.85
 11
-132.633
 21
1047.22
  0
LINE
  8
0
 10
-132.633
 20
1047.22
 11
-132.894
 21
1047.63
  0
LINE
  8
0
 10
-132.894
 20
1047.63
 11
-133.101
 21
1048.07
  0
LINE
  8
0
 10
-133.101
 20
1048.07
 11
-133.251
 21
1048.54
  0
LINE
  8
0
 10
-133.251
 20
1048.54
 11
-133.342
 21
1049.01
  0
LINE
  8
0
 10
-133.342
 20
1049.01
 11
-133.373
 21
1049.5
  0
LINE
  8
0
 10
-133.373
 20
1049.5
 11
-133.373
 21
1218.5
  0
LINE
  8
0
 10
-133.373
 20
1218.5
 11
-133.342
 21
1218.99
  0
LINE
  8
0
 10
-133.342
 20
1218.99
 11
-133.251
 21
1219.46
  0
LINE
  8
0
 10
-133.251
 20
1219.46
 11
-133.101
 21
1219.93
  0
LINE
  8
0
 10
-133.101
 20
1219.93
 11
-132.894
 21
1220.37
  0
LINE
  8
0
 10
-132.894
 20
1220.37
 11
-132.633
 21
1220.78
  0
LINE
  8
0
 10
-132.633
 20
1220.78
 11
-132.323
 21
1221.15
  0
LINE
  8
0
 10
-132.323
 20
1221.15
 11
-131.969
 21
1221.48
  0
LINE
  8
0
 10
-131.969
 20
1221.48
 11
-131.575
 21
1221.77
  0
LINE
  8
0
 10
-131.575
 20
1221.77
 11
-131.149
 21
1222
  0
LINE
  8
0
 10
-131.149
 20
1222
 11
-130.697
 21
1222.18
  0
LINE
  8
0
 10
-130.697
 20
1222.18
 11
-130.226
 21
1222.3
  0
LINE
  8
0
 10
-130.226
 20
1222.3
 11
-129.743
 21
1222.36
  0
LINE
  8
0
 10
-129.743
 20
1222.36
 11
129.743
 21
1222.36
  0
LINE
  8
0
 10
129.743
 20
1222.36
 11
130.226
 21
1222.3
  0
LINE
  8
0
 10
130.226
 20
1222.3
 11
130.697
 21
1222.18
  0
LINE
  8
0
 10
130.697
 20
1222.18
 11
131.149
 21
1222
  0
LINE
  8
0
 10
131.149
 20
1222
 11
131.575
 21
1221.77
  0
LINE
  8
0
 10
131.575
 20
1221.77
 11
131.969
 21
1221.48
  0
LINE
  8
0
 10
131.969
 20
1221.48
 11
132.323
 21
1221.15
  0
LINE
  8
0
 10
132.323
 20
1221.15
 11
132.633
 21
1220.78
  0
LINE
  8
0
 10
132.633
 20
1220.78
 11
132.894
 21
1220.37
  0
LINE
  8
0
 10
132.894
 20
1220.37
 11
133.101
 21
1219.93
  0
LINE
  8
0
 10
133.101
 20
1219.93
 11
133.251
 21
1219.46
  0
LINE
  8
0
 10
133.251
 20
1219.46
 11
133.342
 21
1218.99
  0
LINE
  8
0
 10
133.342
 20
1218.99
 11
133.373
 21
1218.5
  0
LINE
  8
0
 10
133.373
 20
1218.5
 11
133.373
 21
1049.5
  0
LINE
  8
0
 10
133.373
 20
1049.5
 11
133.342
 21
1049.01
  0
LINE
  8
0
 10
133.342
 20
1049.01
 11
133.251
 21
1048.54
  0
LINE
  8
0
 10
133.251
 20
1048.54
 11
133.101
 21
1048.07
  0
LINE
  8
0
 10
133.101
 20
1048.07
 11
132.894
 21
1047.63
  0
LINE
  8
0
 10
132.894
 20
1047.63
 11
132.633
 21
1047.22
  0
LINE
  8
0
 10
132.633
 20
1047.22
 11
132.323
 21
1046.85
  0
LINE
  8
0
 10
132.323
 20
1046.85
 11
131.969
 21
1046.52
  0
LINE
  8
0
 10
131.969
 20
1046.52
 11
131.575
 21
1046.23
  0
LINE
  8
0
 10
131.575
 20
1046.23
 11
131.149
 21
1046
  0
LINE
  8
0
 10
131.149
 20
1046
 11
130.697
 21
1045.82
  0
LINE
  8
0
 10
130.697
 20
1045.82
 11
130.226
 21
1045.7
  0
LINE
  8
0
 10
130.226
 20
1045.7
 11
129.743
 21
1045.64
  0
LINE
  8
0
 10
129.743
 20
1045.64
 11
-129.743
 21
1045.64
  0
LINE
  8
0
 10
130.937
 20
855.089
 11
131.545
 21
855.245
  0
LINE
  8
0
 10
131.545
 20
855.245
 11
132.129
 21
855.476
  0
LINE
  8
0
 10
132.129
 20
855.476
 11
132.679
 21
855.778
  0
LINE
  8
0
 10
132.679
 20
855.778
 11
133.187
 21
856.147
  0
LINE
  8
0
 10
133.187
 20
856.147
 11
133.645
 21
856.577
  0
LINE
  8
0
 10
133.645
 20
856.577
 11
134.045
 21
857.061
  0
LINE
  8
0
 10
134.045
 20
857.061
 11
134.382
 21
857.591
  0
LINE
  8
0
 10
134.382
 20
857.591
 11
134.649
 21
858.159
  0
LINE
  8
0
 10
134.649
 20
858.159
 11
134.843
 21
858.757
  0
LINE
  8
0
 10
134.843
 20
858.757
 11
134.961
 21
859.373
  0
LINE
  8
0
 10
134.961
 20
859.373
 11
135
 21
860
  0
LINE
  8
0
 10
135
 20
860
 11
135
 21
1030
  0
LINE
  8
0
 10
135
 20
1030
 11
134.961
 21
1030.63
  0
LINE
  8
0
 10
134.961
 20
1030.63
 11
134.843
 21
1031.24
  0
LINE
  8
0
 10
134.843
 20
1031.24
 11
134.649
 21
1031.84
  0
LINE
  8
0
 10
134.649
 20
1031.84
 11
134.382
 21
1032.41
  0
LINE
  8
0
 10
134.382
 20
1032.41
 11
134.045
 21
1032.94
  0
LINE
  8
0
 10
134.045
 20
1032.94
 11
133.645
 21
1033.42
  0
LINE
  8
0
 10
133.645
 20
1033.42
 11
133.187
 21
1033.85
  0
LINE
  8
0
 10
133.187
 20
1033.85
 11
132.679
 21
1034.22
  0
LINE
  8
0
 10
132.679
 20
1034.22
 11
132.129
 21
1034.52
  0
LINE
  8
0
 10
132.129
 20
1034.52
 11
131.545
 21
1034.76
  0
LINE
  8
0
 10
131.545
 20
1034.76
 11
130.937
 21
1034.91
  0
LINE
  8
0
 10
130.937
 20
1034.91
 11
130.314
 21
1034.99
  0
LINE
  8
0
 10
130.314
 20
1034.99
 11
-130.314
 21
1034.99
  0
LINE
  8
0
 10
-130.314
 20
1034.99
 11
-130.937
 21
1034.91
  0
LINE
  8
0
 10
-130.937
 20
1034.91
 11
-131.545
 21
1034.76
  0
LINE
  8
0
 10
-131.545
 20
1034.76
 11
-132.129
 21
1034.52
  0
LINE
  8
0
 10
-132.129
 20
1034.52
 11
-132.679
 21
1034.22
  0
LINE
  8
0
 10
-132.679
 20
1034.22
 11
-133.187
 21
1033.85
  0
LINE
  8
0
 10
-133.187
 20
1033.85
 11
-133.5
 21
1033.56
  0
LINE
  8
0
 10
-133.5
 20
1033.56
 11
-133.5
 21
1034.61
  0
LINE
  8
0
 10
-133.5
 20
1034.61
 11
-136.5
 21
1034.61
  0
LINE
  8
0
 10
-136.5
 20
1034.61
 11
-136.5
 21
855.385
  0
LINE
  8
0
 10
-136.5
 20
855.385
 11
-133.5
 21
855.385
  0
LINE
  8
0
 10
-133.5
 20
855.385
 11
-133.5
 21
856.441
  0
LINE
  8
0
 10
-133.5
 20
856.441
 11
-133.187
 21
856.147
  0
LINE
  8
0
 10
-133.187
 20
856.147
 11
-132.679
 21
855.778
  0
LINE
  8
0
 10
-132.679
 20
855.778
 11
-132.129
 21
855.476
  0
LINE
  8
0
 10
-132.129
 20
855.476
 11
-131.545
 21
855.245
  0
LINE
  8
0
 10
-131.545
 20
855.245
 11
-130.937
 21
855.089
  0
LINE
  8
0
 10
-130.937
 20
855.089
 11
-130.314
 21
855.01
  0
LINE
  8
0
 10
-130.314
 20
855.01
 11
130.314
 21
855.01
  0
LINE
  8
0
 10
130.314
 20
855.01
 11
130.937
 21
855.089
  0
LINE
  8
0
 10
127.349
 20
1025.1
 11
127.05
 21
1025.14
  0
LINE
  8
0
 10
127.05
 20
1025.14
 11
126.758
 21
1025.22
  0
LINE
  8
0
 10
126.758
 20
1025.22
 11
126.478
 21
1025.33
  0
LINE
  8
0
 10
126.478
 20
1025.33
 11
126.214
 21
1025.47
  0
LINE
  8
0
 10
126.214
 20
1025.47
 11
125.97
 21
1025.65
  0
LINE
  8
0
 10
125.97
 20
1025.65
 11
125.75
 21
1025.86
  0
LINE
  8
0
 10
125.75
 20
1025.86
 11
125.558
 21
1026.09
  0
LINE
  8
0
 10
125.558
 20
1026.09
 11
125.397
 21
1026.34
  0
LINE
  8
0
 10
125.397
 20
1026.34
 11
125.269
 21
1026.62
  0
LINE
  8
0
 10
125.269
 20
1026.62
 11
125.175
 21
1026.9
  0
LINE
  8
0
 10
125.175
 20
1026.9
 11
125.119
 21
1027.2
  0
LINE
  8
0
 10
125.119
 20
1027.2
 11
125.1
 21
1027.5
  0
LINE
  8
0
 10
125.1
 20
1027.5
 11
125.119
 21
1027.8
  0
LINE
  8
0
 10
125.119
 20
1027.8
 11
125.175
 21
1028.1
  0
LINE
  8
0
 10
125.175
 20
1028.1
 11
125.269
 21
1028.38
  0
LINE
  8
0
 10
125.269
 20
1028.38
 11
125.397
 21
1028.66
  0
LINE
  8
0
 10
125.397
 20
1028.66
 11
125.558
 21
1028.91
  0
LINE
  8
0
 10
125.558
 20
1028.91
 11
125.75
 21
1029.14
  0
LINE
  8
0
 10
125.75
 20
1029.14
 11
125.97
 21
1029.35
  0
LINE
  8
0
 10
125.97
 20
1029.35
 11
126.214
 21
1029.53
  0
LINE
  8
0
 10
126.214
 20
1029.53
 11
126.478
 21
1029.67
  0
LINE
  8
0
 10
126.478
 20
1029.67
 11
126.758
 21
1029.78
  0
LINE
  8
0
 10
126.758
 20
1029.78
 11
127.05
 21
1029.86
  0
LINE
  8
0
 10
127.05
 20
1029.86
 11
127.349
 21
1029.9
  0
LINE
  8
0
 10
127.349
 20
1029.9
 11
127.651
 21
1029.9
  0
LINE
  8
0
 10
127.651
 20
1029.9
 11
127.95
 21
1029.86
  0
LINE
  8
0
 10
127.95
 20
1029.86
 11
128.242
 21
1029.78
  0
LINE
  8
0
 10
128.242
 20
1029.78
 11
128.522
 21
1029.67
  0
LINE
  8
0
 10
128.522
 20
1029.67
 11
128.786
 21
1029.53
  0
LINE
  8
0
 10
128.786
 20
1029.53
 11
129.03
 21
1029.35
  0
LINE
  8
0
 10
129.03
 20
1029.35
 11
129.25
 21
1029.14
  0
LINE
  8
0
 10
129.25
 20
1029.14
 11
129.442
 21
1028.91
  0
LINE
  8
0
 10
129.442
 20
1028.91
 11
129.603
 21
1028.66
  0
LINE
  8
0
 10
129.603
 20
1028.66
 11
129.731
 21
1028.38
  0
LINE
  8
0
 10
129.731
 20
1028.38
 11
129.825
 21
1028.1
  0
LINE
  8
0
 10
129.825
 20
1028.1
 11
129.881
 21
1027.8
  0
LINE
  8
0
 10
129.881
 20
1027.8
 11
129.9
 21
1027.5
  0
LINE
  8
0
 10
129.9
 20
1027.5
 11
129.881
 21
1027.2
  0
LINE
  8
0
 10
129.881
 20
1027.2
 11
129.825
 21
1026.9
  0
LINE
  8
0
 10
129.825
 20
1026.9
 11
129.731
 21
1026.62
  0
LINE
  8
0
 10
129.731
 20
1026.62
 11
129.603
 21
1026.34
  0
LINE
  8
0
 10
129.603
 20
1026.34
 11
129.442
 21
1026.09
  0
LINE
  8
0
 10
129.442
 20
1026.09
 11
129.25
 21
1025.86
  0
LINE
  8
0
 10
129.25
 20
1025.86
 11
129.03
 21
1025.65
  0
LINE
  8
0
 10
129.03
 20
1025.65
 11
128.786
 21
1025.47
  0
LINE
  8
0
 10
128.786
 20
1025.47
 11
128.522
 21
1025.33
  0
LINE
  8
0
 10
128.522
 20
1025.33
 11
128.242
 21
1025.22
  0
LINE
  8
0
 10
128.242
 20
1025.22
 11
127.95
 21
1025.14
  0
LINE
  8
0
 10
127.95
 20
1025.14
 11
127.651
 21
1025.1
  0
LINE
  8
0
 10
127.651
 20
1025.1
 11
127.349
 21
1025.1
  0
LINE
  8
0
 10
-127.651
 20
1025.1
 11
-127.95
 21
1025.14
  0
LINE
  8
0
 10
-127.95
 20
1025.14
 11
-128.242
 21
1025.22
  0
LINE
  8
0
 10
-128.242
 20
1025.22
 11
-128.522
 21
1025.33
  0
LINE
  8
0
 10
-128.522
 20
1025.33
 11
-128.786
 21
1025.47
  0
LINE
  8
0
 10
-128.786
 20
1025.47
 11
-129.03
 21
1025.65
  0
LINE
  8
0
 10
-129.03
 20
1025.65
 11
-129.25
 21
1025.86
  0
LINE
  8
0
 10
-129.25
 20
1025.86
 11
-129.442
 21
1026.09
  0
LINE
  8
0
 10
-129.442
 20
1026.09
 11
-129.603
 21
1026.34
  0
LINE
  8
0
 10
-129.603
 20
1026.34
 11
-129.731
 21
1026.62
  0
LINE
  8
0
 10
-129.731
 20
1026.62
 11
-129.825
 21
1026.9
  0
LINE
  8
0
 10
-129.825
 20
1026.9
 11
-129.881
 21
1027.2
  0
LINE
  8
0
 10
-129.881
 20
1027.2
 11
-129.9
 21
1027.5
  0
LINE
  8
0
 10
-129.9
 20
1027.5
 11
-129.881
 21
1027.8
  0
LINE
  8
0
 10
-129.881
 20
1027.8
 11
-129.825
 21
1028.1
  0
LINE
  8
0
 10
-129.825
 20
1028.1
 11
-129.731
 21
1028.38
  0
LINE
  8
0
 10
-129.731
 20
1028.38
 11
-129.603
 21
1028.66
  0
LINE
  8
0
 10
-129.603
 20
1028.66
 11
-129.442
 21
1028.91
  0
LINE
  8
0
 10
-129.442
 20
1028.91
 11
-129.25
 21
1029.14
  0
LINE
  8
0
 10
-129.25
 20
1029.14
 11
-129.03
 21
1029.35
  0
LINE
  8
0
 10
-129.03
 20
1029.35
 11
-128.786
 21
1029.53
  0
LINE
  8
0
 10
-128.786
 20
1029.53
 11
-128.522
 21
1029.67
  0
LINE
  8
0
 10
-128.522
 20
1029.67
 11
-128.242
 21
1029.78
  0
LINE
  8
0
 10
-128.242
 20
1029.78
 11
-127.95
 21
1029.86
  0
LINE
  8
0
 10
-127.95
 20
1029.86
 11
-127.651
 21
1029.9
  0
LINE
  8
0
 10
-127.651
 20
1029.9
 11
-127.349
 21
1029.9
  0
LINE
  8
0
 10
-127.349
 20
1029.9
 11
-127.05
 21
1029.86
  0
LINE
  8
0
 10
-127.05
 20
1029.86
 11
-126.758
 21
1029.78
  0
LINE
  8
0
 10
-126.758
 20
1029.78
 11
-126.478
 21
1029.67
  0
LINE
  8
0
 10
-126.478
 20
1029.67
 11
-126.214
 21
1029.53
  0
LINE
  8
0
 10
-126.214
 20
1029.53
 11
-125.97
 21
1029.35
  0
LINE
  8
0
 10
-125.97
 20
1029.35
 11
-125.75
 21
1029.14
  0
LINE
  8
0
 10
-125.75
 20
1029.14
 11
-125.558
 21
1028.91
  0
LINE
  8
0
 10
-125.558
 20
1028.91
 11
-125.397
 21
1028.66
  0
LINE
  8
0
 10
-125.397
 20
1028.66
 11
-125.269
 21
1028.38
  0
LINE
  8
0
 10
-125.269
 20
1028.38
 11
-125.175
 21
1028.1
  0
LINE
  8
0
 10
-125.175
 20
1028.1
 11
-125.119
 21
1027.8
  0
LINE
  8
0
 10
-125.119
 20
1027.8
 11
-125.1
 21
1027.5
  0
LINE
  8
0
 10
-125.1
 20
1027.5
 11
-125.119
 21
1027.2
  0
LINE
  8
0
 10
-125.119
 20
1027.2
 11
-125.175
 21
1026.9
  0
LINE
  8
0
 10
-125.175
 20
1026.9
 11
-125.269
 21
1026.62
  0
LINE
  8
0
 10
-125.269
 20
1026.62
 11
-125.397
 21
1026.34
  0
LINE
  8
0
 10
-125.397
 20
1026.34
 11
-125.558
 21
1026.09
  0
LINE
  8
0
 10
-125.558
 20
1026.09
 11
-125.75
 21
1025.86
  0
LINE
  8
0
 10
-125.75
 20
1025.86
 11
-125.97
 21
1025.65
  0
LINE
  8
0
 10
-125.97
 20
1025.65
 11
-126.214
 21
1025.47
  0
LINE
  8
0
 10
-126.214
 20
1025.47
 11
-126.478
 21
1025.33
  0
LINE
  8
0
 10
-126.478
 20
1025.33
 11
-126.758
 21
1025.22
  0
LINE
  8
0
 10
-126.758
 20
1025.22
 11
-127.05
 21
1025.14
  0
LINE
  8
0
 10
-127.05
 20
1025.14
 11
-127.349
 21
1025.1
  0
LINE
  8
0
 10
-127.349
 20
1025.1
 11
-127.651
 21
1025.1
  0
LINE
  8
0
 10
-127.651
 20
860.105
 11
-127.95
 21
860.143
  0
LINE
  8
0
 10
-127.95
 20
860.143
 11
-128.242
 21
860.217
  0
LINE
  8
0
 10
-128.242
 20
860.217
 11
-128.522
 21
860.328
  0
LINE
  8
0
 10
-128.522
 20
860.328
 11
-128.786
 21
860.474
  0
LINE
  8
0
 10
-128.786
 20
860.474
 11
-129.03
 21
860.651
  0
LINE
  8
0
 10
-129.03
 20
860.651
 11
-129.25
 21
860.857
  0
LINE
  8
0
 10
-129.25
 20
860.857
 11
-129.442
 21
861.089
  0
LINE
  8
0
 10
-129.442
 20
861.089
 11
-129.603
 21
861.344
  0
LINE
  8
0
 10
-129.603
 20
861.344
 11
-129.731
 21
861.617
  0
LINE
  8
0
 10
-129.731
 20
861.617
 11
-129.825
 21
861.903
  0
LINE
  8
0
 10
-129.825
 20
861.903
 11
-129.881
 21
862.199
  0
LINE
  8
0
 10
-129.881
 20
862.199
 11
-129.9
 21
862.5
  0
LINE
  8
0
 10
-129.9
 20
862.5
 11
-129.881
 21
862.801
  0
LINE
  8
0
 10
-129.881
 20
862.801
 11
-129.825
 21
863.097
  0
LINE
  8
0
 10
-129.825
 20
863.097
 11
-129.731
 21
863.383
  0
LINE
  8
0
 10
-129.731
 20
863.383
 11
-129.603
 21
863.656
  0
LINE
  8
0
 10
-129.603
 20
863.656
 11
-129.442
 21
863.911
  0
LINE
  8
0
 10
-129.442
 20
863.911
 11
-129.25
 21
864.143
  0
LINE
  8
0
 10
-129.25
 20
864.143
 11
-129.03
 21
864.349
  0
LINE
  8
0
 10
-129.03
 20
864.349
 11
-128.786
 21
864.526
  0
LINE
  8
0
 10
-128.786
 20
864.526
 11
-128.522
 21
864.672
  0
LINE
  8
0
 10
-128.522
 20
864.672
 11
-128.242
 21
864.783
  0
LINE
  8
0
 10
-128.242
 20
864.783
 11
-127.95
 21
864.857
  0
LINE
  8
0
 10
-127.95
 20
864.857
 11
-127.651
 21
864.895
  0
LINE
  8
0
 10
-127.651
 20
864.895
 11
-127.349
 21
864.895
  0
LINE
  8
0
 10
-127.349
 20
864.895
 11
-127.05
 21
864.857
  0
LINE
  8
0
 10
-127.05
 20
864.857
 11
-126.758
 21
864.783
  0
LINE
  8
0
 10
-126.758
 20
864.783
 11
-126.478
 21
864.672
  0
LINE
  8
0
 10
-126.478
 20
864.672
 11
-126.214
 21
864.526
  0
LINE
  8
0
 10
-126.214
 20
864.526
 11
-125.97
 21
864.349
  0
LINE
  8
0
 10
-125.97
 20
864.349
 11
-125.75
 21
864.143
  0
LINE
  8
0
 10
-125.75
 20
864.143
 11
-125.558
 21
863.911
  0
LINE
  8
0
 10
-125.558
 20
863.911
 11
-125.397
 21
863.656
  0
LINE
  8
0
 10
-125.397
 20
863.656
 11
-125.269
 21
863.383
  0
LINE
  8
0
 10
-125.269
 20
863.383
 11
-125.175
 21
863.097
  0
LINE
  8
0
 10
-125.175
 20
863.097
 11
-125.119
 21
862.801
  0
LINE
  8
0
 10
-125.119
 20
862.801
 11
-125.1
 21
862.5
  0
LINE
  8
0
 10
-125.1
 20
862.5
 11
-125.119
 21
862.199
  0
LINE
  8
0
 10
-125.119
 20
862.199
 11
-125.175
 21
861.903
  0
LINE
  8
0
 10
-125.175
 20
861.903
 11
-125.269
 21
861.617
  0
LINE
  8
0
 10
-125.269
 20
861.617
 11
-125.397
 21
861.344
  0
LINE
  8
0
 10
-125.397
 20
861.344
 11
-125.558
 21
861.089
  0
LINE
  8
0
 10
-125.558
 20
861.089
 11
-125.75
 21
860.857
  0
LINE
  8
0
 10
-125.75
 20
860.857
 11
-125.97
 21
860.651
  0
LINE
  8
0
 10
-125.97
 20
860.651
 11
-126.214
 21
860.474
  0
LINE
  8
0
 10
-126.214
 20
860.474
 11
-126.478
 21
860.328
  0
LINE
  8
0
 10
-126.478
 20
860.328
 11
-126.758
 21
860.217
  0
LINE
  8
0
 10
-126.758
 20
860.217
 11
-127.05
 21
860.143
  0
LINE
  8
0
 10
-127.05
 20
860.143
 11
-127.349
 21
860.105
  0
LINE
  8
0
 10
-127.349
 20
860.105
 11
-127.651
 21
860.105
  0
LINE
  8
0
 10
127.349
 20
860.105
 11
127.05
 21
860.143
  0
LINE
  8
0
 10
127.05
 20
860.143
 11
126.758
 21
860.217
  0
LINE
  8
0
 10
126.758
 20
860.217
 11
126.478
 21
860.328
  0
LINE
  8
0
 10
126.478
 20
860.328
 11
126.214
 21
860.474
  0
LINE
  8
0
 10
126.214
 20
860.474
 11
125.97
 21
860.651
  0
LINE
  8
0
 10
125.97
 20
860.651
 11
125.75
 21
860.857
  0
LINE
  8
0
 10
125.75
 20
860.857
 11
125.558
 21
861.089
  0
LINE
  8
0
 10
125.558
 20
861.089
 11
125.397
 21
861.344
  0
LINE
  8
0
 10
125.397
 20
861.344
 11
125.269
 21
861.617
  0
LINE
  8
0
 10
125.269
 20
861.617
 11
125.175
 21
861.903
  0
LINE
  8
0
 10
125.175
 20
861.903
 11
125.119
 21
862.199
  0
LINE
  8
0
 10
125.119
 20
862.199
 11
125.1
 21
862.5
  0
LINE
  8
0
 10
125.1
 20
862.5
 11
125.119
 21
862.801
  0
LINE
  8
0
 10
125.119
 20
862.801
 11
125.175
 21
863.097
  0
LINE
  8
0
 10
125.175
 20
863.097
 11
125.269
 21
863.383
  0
LINE
  8
0
 10
125.269
 20
863.383
 11
125.397
 21
863.656
  0
LINE
  8
0
 10
125.397
 20
863.656
 11
125.558
 21
863.911
  0
LINE
  8
0
 10
125.558
 20
863.911
 11
125.75
 21
864.143
  0
LINE
  8
0
 10
125.75
 20
864.143
 11
125.97
 21
864.349
  0
LINE
  8
0
 10
125.97
 20
864.349
 11
126.214
 21
864.526
  0
LINE
  8
0
 10
126.214
 20
864.526
 11
126.478
 21
864.672
  0
LINE
  8
0
 10
126.478
 20
864.672
 11
126.758
 21
864.783
  0
LINE
  8
0
 10
126.758
 20
864.783
 11
127.05
 21
864.857
  0
LINE
  8
0
 10
127.05
 20
864.857
 11
127.349
 21
864.895
  0
LINE
  8
0
 10
127.349
 20
864.895
 11
127.651
 21
864.895
  0
LINE
  8
0
 10
127.651
 20
864.895
 11
127.95
 21
864.857
  0
LINE
  8
0
 10
127.95
 20
864.857
 11
128.242
 21
864.783
  0
LINE
  8
0
 10
128.242
 20
864.783
 11
128.522
 21
864.672
  0
LINE
  8
0
 10
128.522
 20
864.672
 11
128.786
 21
864.526
  0
LINE
  8
0
 10
128.786
 20
864.526
 11
129.03
 21
864.349
  0
LINE
  8
0
 10
129.03
 20
864.349
 11
129.25
 21
864.143
  0
LINE
  8
0
 10
129.25
 20
864.143
 11
129.442
 21
863.911
  0
LINE
  8
0
 10
129.442
 20
863.911
 11
129.603
 21
863.656
  0
LINE
  8
0
 10
129.603
 20
863.656
 11
129.731
 21
863.383
  0
LINE
  8
0
 10
129.731
 20
863.383
 11
129.825
 21
863.097
  0
LINE
  8
0
 10
129.825
 20
863.097
 11
129.881
 21
862.801
  0
LINE
  8
0
 10
129.881
 20
862.801
 11
129.9
 21
862.5
  0
LINE
  8
0
 10
129.9
 20
862.5
 11
129.881
 21
862.199
  0
LINE
  8
0
 10
129.881
 20
862.199
 11
129.825
 21
861.903
  0
LINE
  8
0
 10
129.825
 20
861.903
 11
129.731
 21
861.617
  0
LINE
  8
0
 10
129.731
 20
861.617
 11
129.603
 21
861.344
  0
LINE
  8
0
 10
129.603
 20
861.344
 11
129.442
 21
861.089
  0
LINE
  8
0
 10
129.442
 20
861.089
 11
129.25
 21
860.857
  0
LINE
  8
0
 10
129.25
 20
860.857
 11
129.03
 21
860.651
  0
LINE
  8
0
 10
129.03
 20
860.651
 11
128.786
 21
860.474
  0
LINE
  8
0
 10
128.786
 20
860.474
 11
128.522
 21
860.328
  0
LINE
  8
0
 10
128.522
 20
860.328
 11
128.242
 21
860.217
  0
LINE
  8
0
 10
128.242
 20
860.217
 11
127.95
 21
860.143
  0
LINE
  8
0
 10
127.95
 20
860.143
 11
127.651
 21
860.105
  0
LINE
  8
0
 10
127.651
 20
860.105
 11
127.349
 21
860.105
  0
LINE
  8
0
 10
130.937
 20
666.089
 11
131.545
 21
666.245
  0
LINE
  8
0
 10
131.545
 20
666.245
 11
132.129
 21
666.476
  0
LINE
  8
0
 10
132.129
 20
666.476
 11
132.679
 21
666.778
  0
LINE
  8
0
 10
132.679
 20
666.778
 11
133.187
 21
667.147
  0
LINE
  8
0
 10
133.187
 20
667.147
 11
133.645
 21
667.577
  0
LINE
  8
0
 10
133.645
 20
667.577
 11
134.045
 21
668.061
  0
LINE
  8
0
 10
134.045
 20
668.061
 11
134.382
 21
668.591
  0
LINE
  8
0
 10
134.382
 20
668.591
 11
134.649
 21
669.159
  0
LINE
  8
0
 10
134.649
 20
669.159
 11
134.843
 21
669.757
  0
LINE
  8
0
 10
134.843
 20
669.757
 11
134.961
 21
670.373
  0
LINE
  8
0
 10
134.961
 20
670.373
 11
135
 21
671
  0
LINE
  8
0
 10
135
 20
671
 11
135
 21
841
  0
LINE
  8
0
 10
135
 20
841
 11
134.961
 21
841.627
  0
LINE
  8
0
 10
134.961
 20
841.627
 11
134.843
 21
842.243
  0
LINE
  8
0
 10
134.843
 20
842.243
 11
134.649
 21
842.841
  0
LINE
  8
0
 10
134.649
 20
842.841
 11
134.382
 21
843.409
  0
LINE
  8
0
 10
134.382
 20
843.409
 11
134.045
 21
843.939
  0
LINE
  8
0
 10
134.045
 20
843.939
 11
133.645
 21
844.423
  0
LINE
  8
0
 10
133.645
 20
844.423
 11
133.187
 21
844.853
  0
LINE
  8
0
 10
133.187
 20
844.853
 11
132.679
 21
845.222
  0
LINE
  8
0
 10
132.679
 20
845.222
 11
132.129
 21
845.524
  0
LINE
  8
0
 10
132.129
 20
845.524
 11
131.545
 21
845.755
  0
LINE
  8
0
 10
131.545
 20
845.755
 11
130.937
 21
845.911
  0
LINE
  8
0
 10
130.937
 20
845.911
 11
130.314
 21
845.99
  0
LINE
  8
0
 10
130.314
 20
845.99
 11
-130.314
 21
845.99
  0
LINE
  8
0
 10
-130.314
 20
845.99
 11
-130.937
 21
845.911
  0
LINE
  8
0
 10
-130.937
 20
845.911
 11
-131.545
 21
845.755
  0
LINE
  8
0
 10
-131.545
 20
845.755
 11
-132.129
 21
845.524
  0
LINE
  8
0
 10
-132.129
 20
845.524
 11
-132.679
 21
845.222
  0
LINE
  8
0
 10
-132.679
 20
845.222
 11
-133.187
 21
844.853
  0
LINE
  8
0
 10
-133.187
 20
844.853
 11
-133.645
 21
844.423
  0
LINE
  8
0
 10
-133.645
 20
844.423
 11
-134.045
 21
843.939
  0
LINE
  8
0
 10
-134.045
 20
843.939
 11
-134.382
 21
843.409
  0
LINE
  8
0
 10
-134.382
 20
843.409
 11
-134.649
 21
842.841
  0
LINE
  8
0
 10
-134.649
 20
842.841
 11
-134.843
 21
842.243
  0
LINE
  8
0
 10
-134.843
 20
842.243
 11
-134.9
 21
841.944
  0
LINE
  8
0
 10
-134.9
 20
841.944
 11
-136.5
 21
841.944
  0
LINE
  8
0
 10
-136.5
 20
841.944
 11
-136.5
 21
670.056
  0
LINE
  8
0
 10
-136.5
 20
670.056
 11
-134.9
 21
670.056
  0
LINE
  8
0
 10
-134.9
 20
670.056
 11
-134.843
 21
669.757
  0
LINE
  8
0
 10
-134.843
 20
669.757
 11
-134.649
 21
669.159
  0
LINE
  8
0
 10
-134.649
 20
669.159
 11
-134.382
 21
668.591
  0
LINE
  8
0
 10
-134.382
 20
668.591
 11
-134.045
 21
668.061
  0
LINE
  8
0
 10
-134.045
 20
668.061
 11
-133.645
 21
667.577
  0
LINE
  8
0
 10
-133.645
 20
667.577
 11
-133.187
 21
667.147
  0
LINE
  8
0
 10
-133.187
 20
667.147
 11
-132.679
 21
666.778
  0
LINE
  8
0
 10
-132.679
 20
666.778
 11
-132.129
 21
666.476
  0
LINE
  8
0
 10
-132.129
 20
666.476
 11
-131.545
 21
666.245
  0
LINE
  8
0
 10
-131.545
 20
666.245
 11
-130.937
 21
666.089
  0
LINE
  8
0
 10
-130.937
 20
666.089
 11
-130.314
 21
666.01
  0
LINE
  8
0
 10
-130.314
 20
666.01
 11
130.314
 21
666.01
  0
LINE
  8
0
 10
130.314
 20
666.01
 11
130.937
 21
666.089
  0
LINE
  8
0
 10
-127.613
 20
836.704
 11
-127.837
 21
836.732
  0
LINE
  8
0
 10
-127.837
 20
836.732
 11
-128.056
 21
836.788
  0
LINE
  8
0
 10
-128.056
 20
836.788
 11
-128.266
 21
836.871
  0
LINE
  8
0
 10
-128.266
 20
836.871
 11
-128.464
 21
836.98
  0
LINE
  8
0
 10
-128.464
 20
836.98
 11
-128.647
 21
837.113
  0
LINE
  8
0
 10
-128.647
 20
837.113
 11
-128.812
 21
837.268
  0
LINE
  8
0
 10
-128.812
 20
837.268
 11
-128.956
 21
837.442
  0
LINE
  8
0
 10
-128.956
 20
837.442
 11
-129.077
 21
837.633
  0
LINE
  8
0
 10
-129.077
 20
837.633
 11
-129.174
 21
837.837
  0
LINE
  8
0
 10
-129.174
 20
837.837
 11
-129.243
 21
838.052
  0
LINE
  8
0
 10
-129.243
 20
838.052
 11
-129.286
 21
838.274
  0
LINE
  8
0
 10
-129.286
 20
838.274
 11
-129.3
 21
838.5
  0
LINE
  8
0
 10
-129.3
 20
838.5
 11
-129.286
 21
838.726
  0
LINE
  8
0
 10
-129.286
 20
838.726
 11
-129.243
 21
838.948
  0
LINE
  8
0
 10
-129.243
 20
838.948
 11
-129.174
 21
839.163
  0
LINE
  8
0
 10
-129.174
 20
839.163
 11
-129.077
 21
839.367
  0
LINE
  8
0
 10
-129.077
 20
839.367
 11
-128.956
 21
839.558
  0
LINE
  8
0
 10
-128.956
 20
839.558
 11
-128.812
 21
839.732
  0
LINE
  8
0
 10
-128.812
 20
839.732
 11
-128.647
 21
839.887
  0
LINE
  8
0
 10
-128.647
 20
839.887
 11
-128.464
 21
840.02
  0
LINE
  8
0
 10
-128.464
 20
840.02
 11
-128.266
 21
840.129
  0
LINE
  8
0
 10
-128.266
 20
840.129
 11
-128.056
 21
840.212
  0
LINE
  8
0
 10
-128.056
 20
840.212
 11
-127.837
 21
840.268
  0
LINE
  8
0
 10
-127.837
 20
840.268
 11
-127.613
 21
840.296
  0
LINE
  8
0
 10
-127.613
 20
840.296
 11
-127.387
 21
840.296
  0
LINE
  8
0
 10
-127.387
 20
840.296
 11
-127.163
 21
840.268
  0
LINE
  8
0
 10
-127.163
 20
840.268
 11
-126.944
 21
840.212
  0
LINE
  8
0
 10
-126.944
 20
840.212
 11
-126.734
 21
840.129
  0
LINE
  8
0
 10
-126.734
 20
840.129
 11
-126.536
 21
840.02
  0
LINE
  8
0
 10
-126.536
 20
840.02
 11
-126.353
 21
839.887
  0
LINE
  8
0
 10
-126.353
 20
839.887
 11
-126.188
 21
839.732
  0
LINE
  8
0
 10
-126.188
 20
839.732
 11
-126.044
 21
839.558
  0
LINE
  8
0
 10
-126.044
 20
839.558
 11
-125.923
 21
839.367
  0
LINE
  8
0
 10
-125.923
 20
839.367
 11
-125.826
 21
839.163
  0
LINE
  8
0
 10
-125.826
 20
839.163
 11
-125.757
 21
838.948
  0
LINE
  8
0
 10
-125.757
 20
838.948
 11
-125.714
 21
838.726
  0
LINE
  8
0
 10
-125.714
 20
838.726
 11
-125.7
 21
838.5
  0
LINE
  8
0
 10
-125.7
 20
838.5
 11
-125.714
 21
838.274
  0
LINE
  8
0
 10
-125.714
 20
838.274
 11
-125.757
 21
838.052
  0
LINE
  8
0
 10
-125.757
 20
838.052
 11
-125.826
 21
837.837
  0
LINE
  8
0
 10
-125.826
 20
837.837
 11
-125.923
 21
837.633
  0
LINE
  8
0
 10
-125.923
 20
837.633
 11
-126.044
 21
837.442
  0
LINE
  8
0
 10
-126.044
 20
837.442
 11
-126.188
 21
837.268
  0
LINE
  8
0
 10
-126.188
 20
837.268
 11
-126.353
 21
837.113
  0
LINE
  8
0
 10
-126.353
 20
837.113
 11
-126.536
 21
836.98
  0
LINE
  8
0
 10
-126.536
 20
836.98
 11
-126.734
 21
836.871
  0
LINE
  8
0
 10
-126.734
 20
836.871
 11
-126.944
 21
836.788
  0
LINE
  8
0
 10
-126.944
 20
836.788
 11
-127.163
 21
836.732
  0
LINE
  8
0
 10
-127.163
 20
836.732
 11
-127.387
 21
836.704
  0
LINE
  8
0
 10
-127.387
 20
836.704
 11
-127.613
 21
836.704
  0
LINE
  8
0
 10
127.387
 20
836.704
 11
127.163
 21
836.732
  0
LINE
  8
0
 10
127.163
 20
836.732
 11
126.944
 21
836.788
  0
LINE
  8
0
 10
126.944
 20
836.788
 11
126.734
 21
836.871
  0
LINE
  8
0
 10
126.734
 20
836.871
 11
126.536
 21
836.98
  0
LINE
  8
0
 10
126.536
 20
836.98
 11
126.353
 21
837.113
  0
LINE
  8
0
 10
126.353
 20
837.113
 11
126.188
 21
837.268
  0
LINE
  8
0
 10
126.188
 20
837.268
 11
126.044
 21
837.442
  0
LINE
  8
0
 10
126.044
 20
837.442
 11
125.923
 21
837.633
  0
LINE
  8
0
 10
125.923
 20
837.633
 11
125.826
 21
837.837
  0
LINE
  8
0
 10
125.826
 20
837.837
 11
125.757
 21
838.052
  0
LINE
  8
0
 10
125.757
 20
838.052
 11
125.714
 21
838.274
  0
LINE
  8
0
 10
125.714
 20
838.274
 11
125.7
 21
838.5
  0
LINE
  8
0
 10
125.7
 20
838.5
 11
125.714
 21
838.726
  0
LINE
  8
0
 10
125.714
 20
838.726
 11
125.757
 21
838.948
  0
LINE
  8
0
 10
125.757
 20
838.948
 11
125.826
 21
839.163
  0
LINE
  8
0
 10
125.826
 20
839.163
 11
125.923
 21
839.367
  0
LINE
  8
0
 10
125.923
 20
839.367
 11
126.044
 21
839.558
  0
LINE
  8
0
 10
126.044
 20
839.558
 11
126.188
 21
839.732
  0
LINE
  8
0
 10
126.188
 20
839.732
 11
126.353
 21
839.887
  0
LINE
  8
0
 10
126.353
 20
839.887
 11
126.536
 21
840.02
  0
LINE
  8
0
 10
126.536
 20
840.02
 11
126.734
 21
840.129
  0
LINE
  8
0
 10
126.734
 20
840.129
 11
126.944
 21
840.212
  0
LINE
  8
0
 10
126.944
 20
840.212
 11
127.163
 21
840.268
  0
LINE
  8
0
 10
127.163
 20
840.268
 11
127.387
 21
840.296
  0
LINE
  8
0
 10
127.387
 20
840.296
 11
127.613
 21
840.296
  0
LINE
  8
0
 10
127.613
 20
840.296
 11
127.837
 21
840.268
  0
LINE
  8
0
 10
127.837
 20
840.268
 11
128.056
 21
840.212
  0
LINE
  8
0
 10
128.056
 20
840.212
 11
128.266
 21
840.129
  0
LINE
  8
0
 10
128.266
 20
840.129
 11
128.464
 21
840.02
  0
LINE
  8
0
 10
128.464
 20
840.02
 11
128.647
 21
839.887
  0
LINE
  8
0
 10
128.647
 20
839.887
 11
128.812
 21
839.732
  0
LINE
  8
0
 10
128.812
 20
839.732
 11
128.956
 21
839.558
  0
LINE
  8
0
 10
128.956
 20
839.558
 11
129.077
 21
839.367
  0
LINE
  8
0
 10
129.077
 20
839.367
 11
129.174
 21
839.163
  0
LINE
  8
0
 10
129.174
 20
839.163
 11
129.243
 21
838.948
  0
LINE
  8
0
 10
129.243
 20
838.948
 11
129.286
 21
838.726
  0
LINE
  8
0
 10
129.286
 20
838.726
 11
129.3
 21
838.5
  0
LINE
  8
0
 10
129.3
 20
838.5
 11
129.286
 21
838.274
  0
LINE
  8
0
 10
129.286
 20
838.274
 11
129.243
 21
838.052
  0
LINE
  8
0
 10
129.243
 20
838.052
 11
129.174
 21
837.837
  0
LINE
  8
0
 10
129.174
 20
837.837
 11
129.077
 21
837.633
  0
LINE
  8
0
 10
129.077
 20
837.633
 11
128.956
 21
837.442
  0
LINE
  8
0
 10
128.956
 20
837.442
 11
128.812
 21
837.268
  0
LINE
  8
0
 10
128.812
 20
837.268
 11
128.647
 21
837.113
  0
LINE
  8
0
 10
128.647
 20
837.113
 11
128.464
 21
836.98
  0
LINE
  8
0
 10
128.464
 20
836.98
 11
128.266
 21
836.871
  0
LINE
  8
0
 10
128.266
 20
836.871
 11
128.056
 21
836.788
  0
LINE
  8
0
 10
128.056
 20
836.788
 11
127.837
 21
836.732
  0
LINE
  8
0
 10
127.837
 20
836.732
 11
127.613
 21
836.704
  0
LINE
  8
0
 10
127.613
 20
836.704
 11
127.387
 21
836.704
  0
LINE
  8
0
 10
-127.613
 20
671.704
 11
-127.837
 21
671.732
  0
LINE
  8
0
 10
-127.837
 20
671.732
 11
-128.056
 21
671.788
  0
LINE
  8
0
 10
-128.056
 20
671.788
 11
-128.266
 21
671.871
  0
LINE
  8
0
 10
-128.266
 20
671.871
 11
-128.464
 21
671.98
  0
LINE
  8
0
 10
-128.464
 20
671.98
 11
-128.647
 21
672.113
  0
LINE
  8
0
 10
-128.647
 20
672.113
 11
-128.812
 21
672.268
  0
LINE
  8
0
 10
-128.812
 20
672.268
 11
-128.956
 21
672.442
  0
LINE
  8
0
 10
-128.956
 20
672.442
 11
-129.077
 21
672.633
  0
LINE
  8
0
 10
-129.077
 20
672.633
 11
-129.174
 21
672.837
  0
LINE
  8
0
 10
-129.174
 20
672.837
 11
-129.243
 21
673.052
  0
LINE
  8
0
 10
-129.243
 20
673.052
 11
-129.286
 21
673.274
  0
LINE
  8
0
 10
-129.286
 20
673.274
 11
-129.3
 21
673.5
  0
LINE
  8
0
 10
-129.3
 20
673.5
 11
-129.286
 21
673.726
  0
LINE
  8
0
 10
-129.286
 20
673.726
 11
-129.243
 21
673.948
  0
LINE
  8
0
 10
-129.243
 20
673.948
 11
-129.174
 21
674.163
  0
LINE
  8
0
 10
-129.174
 20
674.163
 11
-129.077
 21
674.367
  0
LINE
  8
0
 10
-129.077
 20
674.367
 11
-128.956
 21
674.558
  0
LINE
  8
0
 10
-128.956
 20
674.558
 11
-128.812
 21
674.732
  0
LINE
  8
0
 10
-128.812
 20
674.732
 11
-128.647
 21
674.887
  0
LINE
  8
0
 10
-128.647
 20
674.887
 11
-128.464
 21
675.02
  0
LINE
  8
0
 10
-128.464
 20
675.02
 11
-128.266
 21
675.129
  0
LINE
  8
0
 10
-128.266
 20
675.129
 11
-128.056
 21
675.212
  0
LINE
  8
0
 10
-128.056
 20
675.212
 11
-127.837
 21
675.268
  0
LINE
  8
0
 10
-127.837
 20
675.268
 11
-127.613
 21
675.296
  0
LINE
  8
0
 10
-127.613
 20
675.296
 11
-127.387
 21
675.296
  0
LINE
  8
0
 10
-127.387
 20
675.296
 11
-127.163
 21
675.268
  0
LINE
  8
0
 10
-127.163
 20
675.268
 11
-126.944
 21
675.212
  0
LINE
  8
0
 10
-126.944
 20
675.212
 11
-126.734
 21
675.129
  0
LINE
  8
0
 10
-126.734
 20
675.129
 11
-126.536
 21
675.02
  0
LINE
  8
0
 10
-126.536
 20
675.02
 11
-126.353
 21
674.887
  0
LINE
  8
0
 10
-126.353
 20
674.887
 11
-126.188
 21
674.732
  0
LINE
  8
0
 10
-126.188
 20
674.732
 11
-126.044
 21
674.558
  0
LINE
  8
0
 10
-126.044
 20
674.558
 11
-125.923
 21
674.367
  0
LINE
  8
0
 10
-125.923
 20
674.367
 11
-125.826
 21
674.163
  0
LINE
  8
0
 10
-125.826
 20
674.163
 11
-125.757
 21
673.948
  0
LINE
  8
0
 10
-125.757
 20
673.948
 11
-125.714
 21
673.726
  0
LINE
  8
0
 10
-125.714
 20
673.726
 11
-125.7
 21
673.5
  0
LINE
  8
0
 10
-125.7
 20
673.5
 11
-125.714
 21
673.274
  0
LINE
  8
0
 10
-125.714
 20
673.274
 11
-125.757
 21
673.052
  0
LINE
  8
0
 10
-125.757
 20
673.052
 11
-125.826
 21
672.837
  0
LINE
  8
0
 10
-125.826
 20
672.837
 11
-125.923
 21
672.633
  0
LINE
  8
0
 10
-125.923
 20
672.633
 11
-126.044
 21
672.442
  0
LINE
  8
0
 10
-126.044
 20
672.442
 11
-126.188
 21
672.268
  0
LINE
  8
0
 10
-126.188
 20
672.268
 11
-126.353
 21
672.113
  0
LINE
  8
0
 10
-126.353
 20
672.113
 11
-126.536
 21
671.98
  0
LINE
  8
0
 10
-126.536
 20
671.98
 11
-126.734
 21
671.871
  0
LINE
  8
0
 10
-126.734
 20
671.871
 11
-126.944
 21
671.788
  0
LINE
  8
0
 10
-126.944
 20
671.788
 11
-127.163
 21
671.732
  0
LINE
  8
0
 10
-127.163
 20
671.732
 11
-127.387
 21
671.704
  0
LINE
  8
0
 10
-127.387
 20
671.704
 11
-127.613
 21
671.704
  0
LINE
  8
0
 10
127.387
 20
671.704
 11
127.163
 21
671.732
  0
LINE
  8
0
 10
127.163
 20
671.732
 11
126.944
 21
671.788
  0
LINE
  8
0
 10
126.944
 20
671.788
 11
126.734
 21
671.871
  0
LINE
  8
0
 10
126.734
 20
671.871
 11
126.536
 21
671.98
  0
LINE
  8
0
 10
126.536
 20
671.98
 11
126.353
 21
672.113
  0
LINE
  8
0
 10
126.353
 20
672.113
 11
126.188
 21
672.268
  0
LINE
  8
0
 10
126.188
 20
672.268
 11
126.044
 21
672.442
  0
LINE
  8
0
 10
126.044
 20
672.442
 11
125.923
 21
672.633
  0
LINE
  8
0
 10
125.923
 20
672.633
 11
125.826
 21
672.837
  0
LINE
  8
0
 10
125.826
 20
672.837
 11
125.757
 21
673.052
  0
LINE
  8
0
 10
125.757
 20
673.052
 11
125.714
 21
673.274
  0
LINE
  8
0
 10
125.714
 20
673.274
 11
125.7
 21
673.5
  0
LINE
  8
0
 10
125.7
 20
673.5
 11
125.714
 21
673.726
  0
LINE
  8
0
 10
125.714
 20
673.726
 11
125.757
 21
673.948
  0
LINE
  8
0
 10
125.757
 20
673.948
 11
125.826
 21
674.163
  0
LINE
  8
0
 10
125.826
 20
674.163
 11
125.923
 21
674.367
  0
LINE
  8
0
 10
125.923
 20
674.367
 11
126.044
 21
674.558
  0
LINE
  8
0
 10
126.044
 20
674.558
 11
126.188
 21
674.732
  0
LINE
  8
0
 10
126.188
 20
674.732
 11
126.353
 21
674.887
  0
LINE
  8
0
 10
126.353
 20
674.887
 11
126.536
 21
675.02
  0
LINE
  8
0
 10
126.536
 20
675.02
 11
126.734
 21
675.129
  0
LINE
  8
0
 10
126.734
 20
675.129
 11
126.944
 21
675.212
  0
LINE
  8
0
 10
126.944
 20
675.212
 11
127.163
 21
675.268
  0
LINE
  8
0
 10
127.163
 20
675.268
 11
127.387
 21
675.296
  0
LINE
  8
0
 10
127.387
 20
675.296
 11
127.613
 21
675.296
  0
LINE
  8
0
 10
127.613
 20
675.296
 11
127.837
 21
675.268
  0
LINE
  8
0
 10
127.837
 20
675.268
 11
128.056
 21
675.212
  0
LINE
  8
0
 10
128.056
 20
675.212
 11
128.266
 21
675.129
  0
LINE
  8
0
 10
128.266
 20
675.129
 11
128.464
 21
675.02
  0
LINE
  8
0
 10
128.464
 20
675.02
 11
128.647
 21
674.887
  0
LINE
  8
0
 10
128.647
 20
674.887
 11
128.812
 21
674.732
  0
LINE
  8
0
 10
128.812
 20
674.732
 11
128.956
 21
674.558
  0
LINE
  8
0
 10
128.956
 20
674.558
 11
129.077
 21
674.367
  0
LINE
  8
0
 10
129.077
 20
674.367
 11
129.174
 21
674.163
  0
LINE
  8
0
 10
129.174
 20
674.163
 11
129.243
 21
673.948
  0
LINE
  8
0
 10
129.243
 20
673.948
 11
129.286
 21
673.726
  0
LINE
  8
0
 10
129.286
 20
673.726
 11
129.3
 21
673.5
  0
LINE
  8
0
 10
129.3
 20
673.5
 11
129.286
 21
673.274
  0
LINE
  8
0
 10
129.286
 20
673.274
 11
129.243
 21
673.052
  0
LINE
  8
0
 10
129.243
 20
673.052
 11
129.174
 21
672.837
  0
LINE
  8
0
 10
129.174
 20
672.837
 11
129.077
 21
672.633
  0
LINE
  8
0
 10
129.077
 20
672.633
 11
128.956
 21
672.442
  0
LINE
  8
0
 10
128.956
 20
672.442
 11
128.812
 21
672.268
  0
LINE
  8
0
 10
128.812
 20
672.268
 11
128.647
 21
672.113
  0
LINE
  8
0
 10
128.647
 20
672.113
 11
128.464
 21
671.98
  0
LINE
  8
0
 10
128.464
 20
671.98
 11
128.266
 21
671.871
  0
LINE
  8
0
 10
128.266
 20
671.871
 11
128.056
 21
671.788
  0
LINE
  8
0
 10
128.056
 20
671.788
 11
127.837
 21
671.732
  0
LINE
  8
0
 10
127.837
 20
671.732
 11
127.613
 21
671.704
  0
LINE
  8
0
 10
127.613
 20
671.704
 11
127.387
 21
671.704
  0
ENDSEC
  0
SECTION
  2
OBJECTS
  0
DICTIONARY
  0
ENDSEC
  0
EOF
