<?xml version="1.0" standalone="no"?>
<!DOCTYPE svg PUBLIC "-//W3C//DTD SVG 1.1//EN" "http://www.w3.org/Graphics/SVG/1.1/DTD/svg11.dtd">
<svg width="286mm" height="69mm" viewBox="-143 -93 286 69" xmlns="http://www.w3.org/2000/svg" version="1.1">
<title>OpenSCAD Model</title>
<path d="
M 138.437,-63.0886 L 139.045,-63.2447 L 139.629,-63.4759 L 140.179,-63.7784 L 140.687,-64.1474 L 141.145,-64.5773
 L 141.545,-65.0611 L 141.882,-65.5912 L 142.149,-66.1594 L 142.343,-66.7566 L 142.461,-67.3733 L 142.5,-68
 L 142.5,-88 L 142.461,-88.6267 L 142.343,-89.2434 L 142.149,-89.8406 L 141.882,-90.4088 L 141.545,-90.9389
 L 141.145,-91.4227 L 140.687,-91.8526 L 140.179,-92.2216 L 139.629,-92.5241 L 139.045,-92.7553 L 138.437,-92.9114
 L 137.814,-92.9901 L -137.814,-92.9901 L -138.437,-92.9114 L -139.045,-92.7553 L -139.629,-92.5241 L -140.179,-92.2216
 L -140.687,-91.8526 L -141.145,-91.4227 L -141.545,-90.9389 L -141.882,-90.4088 L -142.149,-89.8406 L -142.343,-89.2434
 L -142.461,-88.6267 L -142.5,-88 L -142.5,-68 L -142.461,-67.3733 L -142.343,-66.7566 L -142.149,-66.1594
 L -141.882,-65.5912 L -141.545,-65.0611 L -141.145,-64.5773 L -140.687,-64.1474 L -140.179,-63.7784 L -139.629,-63.4759
 L -139.045,-63.2447 L -138.437,-63.0886 L -137.814,-63.0099 L 137.814,-63.0099 z
M -137.493,-64.3882 L -137.975,-64.4491 L -138.446,-64.5699 L -138.898,-64.7488 L -139.323,-64.9829 L -139.716,-65.2685
 L -140.071,-65.6012 L -140.38,-65.9756 L -140.641,-66.3859 L -140.848,-66.8256 L -140.998,-67.2877 L -141.089,-67.765
 L -141.119,-68.25 L -141.119,-87.75 L -141.089,-88.235 L -140.998,-88.7123 L -140.848,-89.1744 L -140.641,-89.6141
 L -140.38,-90.0244 L -140.071,-90.3988 L -139.716,-90.7315 L -139.323,-91.0171 L -138.898,-91.2512 L -138.446,-91.4301
 L -137.975,-91.5509 L -137.493,-91.6118 L 137.493,-91.6118 L 137.975,-91.5509 L 138.446,-91.4301 L 138.898,-91.2512
 L 139.323,-91.0171 L 139.716,-90.7315 L 140.071,-90.3988 L 140.38,-90.0244 L 140.641,-89.6141 L 140.848,-89.1744
 L 140.998,-88.7123 L 141.089,-88.235 L 141.119,-87.75 L 141.119,-68.25 L 141.089,-67.765 L 140.998,-67.2877
 L 140.848,-66.8256 L 140.641,-66.3859 L 140.38,-65.9756 L 140.071,-65.6012 L 139.716,-65.2685 L 139.323,-64.9829
 L 138.898,-64.7488 L 138.446,-64.5699 L 137.975,-64.4491 L 137.493,-64.3882 z
M 138.437,-24.0886 L 139.045,-24.2447 L 139.629,-24.4759 L 140.179,-24.7784 L 140.687,-25.1474 L 141.145,-25.5773
 L 141.545,-26.0611 L 141.882,-26.5912 L 142.149,-27.1594 L 142.343,-27.7566 L 142.461,-28.3733 L 142.5,-29
 L 142.5,-49 L 142.461,-49.6267 L 142.343,-50.2434 L 142.149,-50.8406 L 141.882,-51.4088 L 141.545,-51.9389
 L 141.145,-52.4227 L 140.687,-52.8526 L 140.179,-53.2216 L 139.629,-53.5241 L 139.045,-53.7553 L 138.437,-53.9114
 L 137.814,-53.9901 L -137.814,-53.9901 L -138.437,-53.9114 L -139.045,-53.7553 L -139.629,-53.5241 L -140.179,-53.2216
 L -140.687,-52.8526 L -141.145,-52.4227 L -141.545,-51.9389 L -141.882,-51.4088 L -142.149,-50.8406 L -142.343,-50.2434
 L -142.461,-49.6267 L -142.5,-49 L -142.5,-29 L -142.461,-28.3733 L -142.343,-27.7566 L -142.149,-27.1594
 L -141.882,-26.5912 L -141.545,-26.0611 L -141.145,-25.5773 L -140.687,-25.1474 L -140.179,-24.7784 L -139.629,-24.4759
 L -139.045,-24.2447 L -138.437,-24.0886 L -137.814,-24.0099 L 137.814,-24.0099 z
M 134.887,-44.7036 L 134.663,-44.7319 L 134.444,-44.7881 L 134.234,-44.8713 L 134.036,-44.9802 L 133.853,-45.1131
 L 133.688,-45.2678 L 133.544,-45.442 L 133.423,-45.6328 L 133.326,-45.8374 L 133.257,-46.0524 L 133.214,-46.2744
 L 133.2,-46.5 L 133.214,-46.7256 L 133.257,-46.9476 L 133.326,-47.1626 L 133.423,-47.3671 L 133.544,-47.558
 L 133.688,-47.7322 L 133.853,-47.8869 L 134.036,-48.0198 L 134.234,-48.1287 L 134.444,-48.2119 L 134.663,-48.2681
 L 134.887,-48.2964 L 135.113,-48.2964 L 135.337,-48.2681 L 135.556,-48.2119 L 135.766,-48.1287 L 135.964,-48.0198
 L 136.147,-47.8869 L 136.312,-47.7322 L 136.456,-47.558 L 136.577,-47.3671 L 136.674,-47.1626 L 136.743,-46.9476
 L 136.786,-46.7256 L 136.8,-46.5 L 136.786,-46.2744 L 136.743,-46.0524 L 136.674,-45.8374 L 136.577,-45.6328
 L 136.456,-45.442 L 136.312,-45.2678 L 136.147,-45.1131 L 135.964,-44.9802 L 135.766,-44.8713 L 135.556,-44.7881
 L 135.337,-44.7319 L 135.113,-44.7036 z
M -135.113,-44.7036 L -135.337,-44.7319 L -135.556,-44.7881 L -135.766,-44.8713 L -135.964,-44.9802 L -136.147,-45.1131
 L -136.312,-45.2678 L -136.456,-45.442 L -136.577,-45.6328 L -136.674,-45.8374 L -136.743,-46.0524 L -136.786,-46.2744
 L -136.8,-46.5 L -136.786,-46.7256 L -136.743,-46.9476 L -136.674,-47.1626 L -136.577,-47.3671 L -136.456,-47.558
 L -136.312,-47.7322 L -136.147,-47.8869 L -135.964,-48.0198 L -135.766,-48.1287 L -135.556,-48.2119 L -135.337,-48.2681
 L -135.113,-48.2964 L -134.887,-48.2964 L -134.663,-48.2681 L -134.444,-48.2119 L -134.234,-48.1287 L -134.036,-48.0198
 L -133.853,-47.8869 L -133.688,-47.7322 L -133.544,-47.558 L -133.423,-47.3671 L -133.326,-47.1626 L -133.257,-46.9476
 L -133.214,-46.7256 L -133.2,-46.5 L -133.214,-46.2744 L -133.257,-46.0524 L -133.326,-45.8374 L -133.423,-45.6328
 L -133.544,-45.442 L -133.688,-45.2678 L -133.853,-45.1131 L -134.036,-44.9802 L -134.234,-44.8713 L -134.444,-44.7881
 L -134.663,-44.7319 L -134.887,-44.7036 z
M 134.887,-29.7036 L 134.663,-29.7319 L 134.444,-29.7881 L 134.234,-29.8713 L 134.036,-29.9802 L 133.853,-30.1131
 L 133.688,-30.2678 L 133.544,-30.442 L 133.423,-30.6329 L 133.326,-30.8374 L 133.257,-31.0524 L 133.214,-31.2744
 L 133.2,-31.5 L 133.214,-31.7256 L 133.257,-31.9476 L 133.326,-32.1626 L 133.423,-32.3672 L 133.544,-32.558
 L 133.688,-32.7322 L 133.853,-32.8869 L 134.036,-33.0198 L 134.234,-33.1287 L 134.444,-33.2119 L 134.663,-33.2681
 L 134.887,-33.2964 L 135.113,-33.2964 L 135.337,-33.2681 L 135.556,-33.2119 L 135.766,-33.1287 L 135.964,-33.0198
 L 136.147,-32.8869 L 136.312,-32.7322 L 136.456,-32.558 L 136.577,-32.3672 L 136.674,-32.1626 L 136.743,-31.9476
 L 136.786,-31.7256 L 136.8,-31.5 L 136.786,-31.2744 L 136.743,-31.0524 L 136.674,-30.8374 L 136.577,-30.6329
 L 136.456,-30.442 L 136.312,-30.2678 L 136.147,-30.1131 L 135.964,-29.9802 L 135.766,-29.8713 L 135.556,-29.7881
 L 135.337,-29.7319 L 135.113,-29.7036 z
M -135.113,-29.7036 L -135.337,-29.7319 L -135.556,-29.7881 L -135.766,-29.8713 L -135.964,-29.9802 L -136.147,-30.1131
 L -136.312,-30.2678 L -136.456,-30.442 L -136.577,-30.6329 L -136.674,-30.8374 L -136.743,-31.0524 L -136.786,-31.2744
 L -136.8,-31.5 L -136.786,-31.7256 L -136.743,-31.9476 L -136.674,-32.1626 L -136.577,-32.3672 L -136.456,-32.558
 L -136.312,-32.7322 L -136.147,-32.8869 L -135.964,-33.0198 L -135.766,-33.1287 L -135.556,-33.2119 L -135.337,-33.2681
 L -135.113,-33.2964 L -134.887,-33.2964 L -134.663,-33.2681 L -134.444,-33.2119 L -134.234,-33.1287 L -134.036,-33.0198
 L -133.853,-32.8869 L -133.688,-32.7322 L -133.544,-32.558 L -133.423,-32.3672 L -133.326,-32.1626 L -133.257,-31.9476
 L -133.214,-31.7256 L -133.2,-31.5 L -133.214,-31.2744 L -133.257,-31.0524 L -133.326,-30.8374 L -133.423,-30.6329
 L -133.544,-30.442 L -133.688,-30.2678 L -133.853,-30.1131 L -134.036,-29.9802 L -134.234,-29.8713 L -134.444,-29.7881
 L -134.663,-29.7319 L -134.887,-29.7036 z
" stroke="black" fill="lightgray" stroke-width="0.5"/>
</svg>
