<?xml version="1.0" standalone="no"?>
<!DOCTYPE svg PUBLIC "-//W3C//DTD SVG 1.1//EN" "http://www.w3.org/Graphics/SVG/1.1/DTD/svg11.dtd">
<svg width="272mm" height="468mm" viewBox="-137 -711 272 468" xmlns="http://www.w3.org/2000/svg" version="1.1">
<title>OpenSCAD Model</title>
<path d="
M -133.5,-562.441 L -133.187,-562.147 L -132.679,-561.778 L -132.129,-561.476 L -131.545,-561.245 L -130.937,-561.089
 L -130.314,-561.01 L 130.314,-561.01 L 130.937,-561.089 L 131.545,-561.245 L 132.129,-561.476 L 132.679,-561.778
 L 133.187,-562.147 L 133.645,-562.577 L 134.045,-563.061 L 134.382,-563.591 L 134.649,-564.159 L 134.843,-564.757
 L 134.961,-565.373 L 135,-566 L 135,-706 L 134.961,-706.627 L 134.843,-707.243 L 134.649,-707.841
 L 134.382,-708.409 L 134.045,-708.939 L 133.645,-709.423 L 133.187,-709.853 L 132.679,-710.222 L 132.129,-710.524
 L 131.545,-710.755 L 130.937,-710.911 L 130.314,-710.99 L -130.314,-710.99 L -130.937,-710.911 L -131.545,-710.755
 L -132.129,-710.524 L -132.679,-710.222 L -133.187,-709.853 L -133.5,-709.559 L -133.5,-710.99 L -136.5,-710.99
 L -136.5,-561.01 L -133.5,-561.01 z
M -129.743,-562.635 L -130.226,-562.696 L -130.697,-562.817 L -131.149,-562.996 L -131.575,-563.23 L -131.969,-563.516
 L -132.323,-563.849 L -132.633,-564.224 L -132.894,-564.634 L -133.101,-565.074 L -133.251,-565.537 L -133.342,-566.015
 L -133.373,-566.5 L -133.373,-705.5 L -133.342,-705.985 L -133.251,-706.463 L -133.101,-706.926 L -132.894,-707.366
 L -132.633,-707.776 L -132.323,-708.151 L -131.969,-708.484 L -131.575,-708.77 L -131.149,-709.004 L -130.697,-709.183
 L -130.226,-709.304 L -129.743,-709.365 L 129.743,-709.365 L 130.226,-709.304 L 130.697,-709.183 L 131.149,-709.004
 L 131.575,-708.77 L 131.969,-708.484 L 132.323,-708.151 L 132.633,-707.776 L 132.894,-707.366 L 133.101,-706.926
 L 133.251,-706.463 L 133.342,-705.985 L 133.373,-705.5 L 133.373,-566.5 L 133.342,-566.015 L 133.251,-565.537
 L 133.101,-565.074 L 132.894,-564.634 L 132.633,-564.224 L 132.323,-563.849 L 131.969,-563.516 L 131.575,-563.23
 L 131.149,-562.996 L 130.697,-562.817 L 130.226,-562.696 L 129.743,-562.635 z
M 130.937,-402.089 L 131.545,-402.245 L 132.129,-402.476 L 132.679,-402.778 L 133.187,-403.147 L 133.645,-403.577
 L 134.045,-404.061 L 134.382,-404.591 L 134.649,-405.159 L 134.843,-405.757 L 134.961,-406.373 L 135,-407
 L 135,-547 L 134.961,-547.627 L 134.843,-548.243 L 134.649,-548.841 L 134.382,-549.409 L 134.045,-549.939
 L 133.645,-550.423 L 133.187,-550.853 L 132.679,-551.222 L 132.129,-551.524 L 131.545,-551.755 L 130.937,-551.911
 L 130.314,-551.99 L -130.314,-551.99 L -130.937,-551.911 L -131.545,-551.755 L -132.129,-551.524 L -132.679,-551.222
 L -133.187,-550.853 L -133.5,-550.559 L -133.5,-551.615 L -136.5,-551.615 L -136.5,-402.385 L -133.5,-402.385
 L -133.5,-403.441 L -133.187,-403.147 L -132.679,-402.778 L -132.129,-402.476 L -131.545,-402.245 L -130.937,-402.089
 L -130.314,-402.01 L 130.314,-402.01 z
M -127.651,-542.105 L -127.95,-542.143 L -128.242,-542.217 L -128.522,-542.328 L -128.786,-542.474 L -129.03,-542.651
 L -129.25,-542.857 L -129.442,-543.089 L -129.603,-543.344 L -129.731,-543.617 L -129.825,-543.903 L -129.881,-544.199
 L -129.9,-544.5 L -129.881,-544.801 L -129.825,-545.097 L -129.731,-545.383 L -129.603,-545.656 L -129.442,-545.911
 L -129.25,-546.143 L -129.03,-546.349 L -128.786,-546.526 L -128.522,-546.672 L -128.242,-546.783 L -127.95,-546.857
 L -127.651,-546.895 L -127.349,-546.895 L -127.05,-546.857 L -126.758,-546.783 L -126.478,-546.672 L -126.214,-546.526
 L -125.97,-546.349 L -125.75,-546.143 L -125.558,-545.911 L -125.397,-545.656 L -125.269,-545.383 L -125.175,-545.097
 L -125.119,-544.801 L -125.1,-544.5 L -125.119,-544.199 L -125.175,-543.903 L -125.269,-543.617 L -125.397,-543.344
 L -125.558,-543.089 L -125.75,-542.857 L -125.97,-542.651 L -126.214,-542.474 L -126.478,-542.328 L -126.758,-542.217
 L -127.05,-542.143 L -127.349,-542.105 z
M 127.349,-542.105 L 127.05,-542.143 L 126.758,-542.217 L 126.478,-542.328 L 126.214,-542.474 L 125.97,-542.651
 L 125.75,-542.857 L 125.558,-543.089 L 125.397,-543.344 L 125.269,-543.617 L 125.175,-543.903 L 125.119,-544.199
 L 125.1,-544.5 L 125.119,-544.801 L 125.175,-545.097 L 125.269,-545.383 L 125.397,-545.656 L 125.558,-545.911
 L 125.75,-546.143 L 125.97,-546.349 L 126.214,-546.526 L 126.478,-546.672 L 126.758,-546.783 L 127.05,-546.857
 L 127.349,-546.895 L 127.651,-546.895 L 127.95,-546.857 L 128.242,-546.783 L 128.522,-546.672 L 128.786,-546.526
 L 129.03,-546.349 L 129.25,-546.143 L 129.442,-545.911 L 129.603,-545.656 L 129.731,-545.383 L 129.825,-545.097
 L 129.881,-544.801 L 129.9,-544.5 L 129.881,-544.199 L 129.825,-543.903 L 129.731,-543.617 L 129.603,-543.344
 L 129.442,-543.089 L 129.25,-542.857 L 129.03,-542.651 L 128.786,-542.474 L 128.522,-542.328 L 128.242,-542.217
 L 127.95,-542.143 L 127.651,-542.105 z
M 127.349,-407.105 L 127.05,-407.143 L 126.758,-407.217 L 126.478,-407.328 L 126.214,-407.474 L 125.97,-407.651
 L 125.75,-407.857 L 125.558,-408.089 L 125.397,-408.344 L 125.269,-408.617 L 125.175,-408.903 L 125.119,-409.199
 L 125.1,-409.5 L 125.119,-409.801 L 125.175,-410.097 L 125.269,-410.383 L 125.397,-410.656 L 125.558,-410.911
 L 125.75,-411.143 L 125.97,-411.349 L 126.214,-411.526 L 126.478,-411.672 L 126.758,-411.783 L 127.05,-411.857
 L 127.349,-411.895 L 127.651,-411.895 L 127.95,-411.857 L 128.242,-411.783 L 128.522,-411.672 L 128.786,-411.526
 L 129.03,-411.349 L 129.25,-411.143 L 129.442,-410.911 L 129.603,-410.656 L 129.731,-410.383 L 129.825,-410.097
 L 129.881,-409.801 L 129.9,-409.5 L 129.881,-409.199 L 129.825,-408.903 L 129.731,-408.617 L 129.603,-408.344
 L 129.442,-408.089 L 129.25,-407.857 L 129.03,-407.651 L 128.786,-407.474 L 128.522,-407.328 L 128.242,-407.217
 L 127.95,-407.143 L 127.651,-407.105 z
M -127.651,-407.105 L -127.95,-407.143 L -128.242,-407.217 L -128.522,-407.328 L -128.786,-407.474 L -129.03,-407.651
 L -129.25,-407.857 L -129.442,-408.089 L -129.603,-408.344 L -129.731,-408.617 L -129.825,-408.903 L -129.881,-409.199
 L -129.9,-409.5 L -129.881,-409.801 L -129.825,-410.097 L -129.731,-410.383 L -129.603,-410.656 L -129.442,-410.911
 L -129.25,-411.143 L -129.03,-411.349 L -128.786,-411.526 L -128.522,-411.672 L -128.242,-411.783 L -127.95,-411.857
 L -127.651,-411.895 L -127.349,-411.895 L -127.05,-411.857 L -126.758,-411.783 L -126.478,-411.672 L -126.214,-411.526
 L -125.97,-411.349 L -125.75,-411.143 L -125.558,-410.911 L -125.397,-410.656 L -125.269,-410.383 L -125.175,-410.097
 L -125.119,-409.801 L -125.1,-409.5 L -125.119,-409.199 L -125.175,-408.903 L -125.269,-408.617 L -125.397,-408.344
 L -125.558,-408.089 L -125.75,-407.857 L -125.97,-407.651 L -126.214,-407.474 L -126.478,-407.328 L -126.758,-407.217
 L -127.05,-407.143 L -127.349,-407.105 z
M 130.937,-243.089 L 131.545,-243.245 L 132.129,-243.476 L 132.679,-243.778 L 133.187,-244.147 L 133.645,-244.577
 L 134.045,-245.061 L 134.382,-245.591 L 134.649,-246.159 L 134.843,-246.757 L 134.961,-247.373 L 135,-248
 L 135,-388 L 134.961,-388.627 L 134.843,-389.243 L 134.649,-389.841 L 134.382,-390.409 L 134.045,-390.939
 L 133.645,-391.423 L 133.187,-391.853 L 132.679,-392.222 L 132.129,-392.524 L 131.545,-392.755 L 130.937,-392.911
 L 130.314,-392.99 L -130.314,-392.99 L -130.937,-392.911 L -131.545,-392.755 L -132.129,-392.524 L -132.679,-392.222
 L -133.187,-391.853 L -133.645,-391.423 L -134.045,-390.939 L -134.382,-390.409 L -134.649,-389.841 L -134.843,-389.243
 L -134.9,-388.944 L -136.5,-388.944 L -136.5,-247.056 L -134.9,-247.056 L -134.843,-246.757 L -134.649,-246.159
 L -134.382,-245.591 L -134.045,-245.061 L -133.645,-244.577 L -133.187,-244.147 L -132.679,-243.778 L -132.129,-243.476
 L -131.545,-243.245 L -130.937,-243.089 L -130.314,-243.01 L 130.314,-243.01 z
M 127.387,-383.704 L 127.163,-383.732 L 126.944,-383.788 L 126.734,-383.871 L 126.536,-383.98 L 126.353,-384.113
 L 126.188,-384.268 L 126.044,-384.442 L 125.923,-384.633 L 125.826,-384.837 L 125.757,-385.052 L 125.714,-385.274
 L 125.7,-385.5 L 125.714,-385.726 L 125.757,-385.948 L 125.826,-386.163 L 125.923,-386.367 L 126.044,-386.558
 L 126.188,-386.732 L 126.353,-386.887 L 126.536,-387.02 L 126.734,-387.129 L 126.944,-387.212 L 127.163,-387.268
 L 127.387,-387.296 L 127.613,-387.296 L 127.837,-387.268 L 128.056,-387.212 L 128.266,-387.129 L 128.464,-387.02
 L 128.647,-386.887 L 128.812,-386.732 L 128.956,-386.558 L 129.077,-386.367 L 129.174,-386.163 L 129.243,-385.948
 L 129.286,-385.726 L 129.3,-385.5 L 129.286,-385.274 L 129.243,-385.052 L 129.174,-384.837 L 129.077,-384.633
 L 128.956,-384.442 L 128.812,-384.268 L 128.647,-384.113 L 128.464,-383.98 L 128.266,-383.871 L 128.056,-383.788
 L 127.837,-383.732 L 127.613,-383.704 z
M -127.613,-383.704 L -127.837,-383.732 L -128.056,-383.788 L -128.266,-383.871 L -128.464,-383.98 L -128.647,-384.113
 L -128.812,-384.268 L -128.956,-384.442 L -129.077,-384.633 L -129.174,-384.837 L -129.243,-385.052 L -129.286,-385.274
 L -129.3,-385.5 L -129.286,-385.726 L -129.243,-385.948 L -129.174,-386.163 L -129.077,-386.367 L -128.956,-386.558
 L -128.812,-386.732 L -128.647,-386.887 L -128.464,-387.02 L -128.266,-387.129 L -128.056,-387.212 L -127.837,-387.268
 L -127.613,-387.296 L -127.387,-387.296 L -127.163,-387.268 L -126.944,-387.212 L -126.734,-387.129 L -126.536,-387.02
 L -126.353,-386.887 L -126.188,-386.732 L -126.044,-386.558 L -125.923,-386.367 L -125.826,-386.163 L -125.757,-385.948
 L -125.714,-385.726 L -125.7,-385.5 L -125.714,-385.274 L -125.757,-385.052 L -125.826,-384.837 L -125.923,-384.633
 L -126.044,-384.442 L -126.188,-384.268 L -126.353,-384.113 L -126.536,-383.98 L -126.734,-383.871 L -126.944,-383.788
 L -127.163,-383.732 L -127.387,-383.704 z
M 127.387,-248.704 L 127.163,-248.732 L 126.944,-248.788 L 126.734,-248.871 L 126.536,-248.98 L 126.353,-249.113
 L 126.188,-249.268 L 126.044,-249.442 L 125.923,-249.633 L 125.826,-249.837 L 125.757,-250.052 L 125.714,-250.274
 L 125.7,-250.5 L 125.714,-250.726 L 125.757,-250.948 L 125.826,-251.163 L 125.923,-251.367 L 126.044,-251.558
 L 126.188,-251.732 L 126.353,-251.887 L 126.536,-252.02 L 126.734,-252.129 L 126.944,-252.212 L 127.163,-252.268
 L 127.387,-252.296 L 127.613,-252.296 L 127.837,-252.268 L 128.056,-252.212 L 128.266,-252.129 L 128.464,-252.02
 L 128.647,-251.887 L 128.812,-251.732 L 128.956,-251.558 L 129.077,-251.367 L 129.174,-251.163 L 129.243,-250.948
 L 129.286,-250.726 L 129.3,-250.5 L 129.286,-250.274 L 129.243,-250.052 L 129.174,-249.837 L 129.077,-249.633
 L 128.956,-249.442 L 128.812,-249.268 L 128.647,-249.113 L 128.464,-248.98 L 128.266,-248.871 L 128.056,-248.788
 L 127.837,-248.732 L 127.613,-248.704 z
M -127.613,-248.704 L -127.837,-248.732 L -128.056,-248.788 L -128.266,-248.871 L -128.464,-248.98 L -128.647,-249.113
 L -128.812,-249.268 L -128.956,-249.442 L -129.077,-249.633 L -129.174,-249.837 L -129.243,-250.052 L -129.286,-250.274
 L -129.3,-250.5 L -129.286,-250.726 L -129.243,-250.948 L -129.174,-251.163 L -129.077,-251.367 L -128.956,-251.558
 L -128.812,-251.732 L -128.647,-251.887 L -128.464,-252.02 L -128.266,-252.129 L -128.056,-252.212 L -127.837,-252.268
 L -127.613,-252.296 L -127.387,-252.296 L -127.163,-252.268 L -126.944,-252.212 L -126.734,-252.129 L -126.536,-252.02
 L -126.353,-251.887 L -126.188,-251.732 L -126.044,-251.558 L -125.923,-251.367 L -125.826,-251.163 L -125.757,-250.948
 L -125.714,-250.726 L -125.7,-250.5 L -125.714,-250.274 L -125.757,-250.052 L -125.826,-249.837 L -125.923,-249.633
 L -126.044,-249.442 L -126.188,-249.268 L -126.353,-249.113 L -126.536,-248.98 L -126.734,-248.871 L -126.944,-248.788
 L -127.163,-248.732 L -127.387,-248.704 z
" stroke="black" fill="lightgray" stroke-width="0.5"/>
</svg>
