  0
SECTION
  2
BLOCKS
  0
ENDSEC
  0
SECTION
  2
ENTITIES
  0
LINE
  8
0
 10
130.937
 20
327.089
 11
131.545
 21
327.245
  0
LINE
  8
0
 10
131.545
 20
327.245
 11
132.129
 21
327.476
  0
LINE
  8
0
 10
132.129
 20
327.476
 11
132.679
 21
327.778
  0
LINE
  8
0
 10
132.679
 20
327.778
 11
133.187
 21
328.147
  0
LINE
  8
0
 10
133.187
 20
328.147
 11
133.645
 21
328.577
  0
LINE
  8
0
 10
133.645
 20
328.577
 11
134.045
 21
329.061
  0
LINE
  8
0
 10
134.045
 20
329.061
 11
134.382
 21
329.591
  0
LINE
  8
0
 10
134.382
 20
329.591
 11
134.649
 21
330.159
  0
LINE
  8
0
 10
134.649
 20
330.159
 11
134.843
 21
330.757
  0
LINE
  8
0
 10
134.843
 20
330.757
 11
134.961
 21
331.373
  0
LINE
  8
0
 10
134.961
 20
331.373
 11
135
 21
332
  0
LINE
  8
0
 10
135
 20
332
 11
135
 21
442
  0
LINE
  8
0
 10
135
 20
442
 11
134.961
 21
442.627
  0
LINE
  8
0
 10
134.961
 20
442.627
 11
134.843
 21
443.243
  0
LINE
  8
0
 10
134.843
 20
443.243
 11
134.649
 21
443.841
  0
LINE
  8
0
 10
134.649
 20
443.841
 11
134.382
 21
444.409
  0
LINE
  8
0
 10
134.382
 20
444.409
 11
134.045
 21
444.939
  0
LINE
  8
0
 10
134.045
 20
444.939
 11
133.645
 21
445.423
  0
LINE
  8
0
 10
133.645
 20
445.423
 11
133.187
 21
445.853
  0
LINE
  8
0
 10
133.187
 20
445.853
 11
132.679
 21
446.222
  0
LINE
  8
0
 10
132.679
 20
446.222
 11
132.129
 21
446.524
  0
LINE
  8
0
 10
132.129
 20
446.524
 11
131.545
 21
446.755
  0
LINE
  8
0
 10
131.545
 20
446.755
 11
130.937
 21
446.911
  0
LINE
  8
0
 10
130.937
 20
446.911
 11
130.314
 21
446.99
  0
LINE
  8
0
 10
130.314
 20
446.99
 11
-130.314
 21
446.99
  0
LINE
  8
0
 10
-130.314
 20
446.99
 11
-130.937
 21
446.911
  0
LINE
  8
0
 10
-130.937
 20
446.911
 11
-131.545
 21
446.755
  0
LINE
  8
0
 10
-131.545
 20
446.755
 11
-132.129
 21
446.524
  0
LINE
  8
0
 10
-132.129
 20
446.524
 11
-132.679
 21
446.222
  0
LINE
  8
0
 10
-132.679
 20
446.222
 11
-133.187
 21
445.853
  0
LINE
  8
0
 10
-133.187
 20
445.853
 11
-133.645
 21
445.423
  0
LINE
  8
0
 10
-133.645
 20
445.423
 11
-134.045
 21
444.939
  0
LINE
  8
0
 10
-134.045
 20
444.939
 11
-134.382
 21
444.409
  0
LINE
  8
0
 10
-134.382
 20
444.409
 11
-134.649
 21
443.841
  0
LINE
  8
0
 10
-134.649
 20
443.841
 11
-134.843
 21
443.243
  0
LINE
  8
0
 10
-134.843
 20
443.243
 11
-134.961
 21
442.627
  0
LINE
  8
0
 10
-134.961
 20
442.627
 11
-135
 21
442
  0
LINE
  8
0
 10
-135
 20
442
 11
-135
 21
332
  0
LINE
  8
0
 10
-135
 20
332
 11
-134.961
 21
331.373
  0
LINE
  8
0
 10
-134.961
 20
331.373
 11
-134.843
 21
330.757
  0
LINE
  8
0
 10
-134.843
 20
330.757
 11
-134.649
 21
330.159
  0
LINE
  8
0
 10
-134.649
 20
330.159
 11
-134.382
 21
329.591
  0
LINE
  8
0
 10
-134.382
 20
329.591
 11
-134.045
 21
329.061
  0
LINE
  8
0
 10
-134.045
 20
329.061
 11
-133.645
 21
328.577
  0
LINE
  8
0
 10
-133.645
 20
328.577
 11
-133.187
 21
328.147
  0
LINE
  8
0
 10
-133.187
 20
328.147
 11
-132.679
 21
327.778
  0
LINE
  8
0
 10
-132.679
 20
327.778
 11
-132.129
 21
327.476
  0
LINE
  8
0
 10
-132.129
 20
327.476
 11
-131.545
 21
327.245
  0
LINE
  8
0
 10
-131.545
 20
327.245
 11
-130.937
 21
327.089
  0
LINE
  8
0
 10
-130.937
 20
327.089
 11
-130.314
 21
327.01
  0
LINE
  8
0
 10
-130.314
 20
327.01
 11
130.314
 21
327.01
  0
LINE
  8
0
 10
130.314
 20
327.01
 11
130.937
 21
327.089
  0
LINE
  8
0
 10
-130.037
 20
327.681
 11
-130.608
 21
327.753
  0
LINE
  8
0
 10
-130.608
 20
327.753
 11
-131.165
 21
327.896
  0
LINE
  8
0
 10
-131.165
 20
327.896
 11
-131.699
 21
328.107
  0
LINE
  8
0
 10
-131.699
 20
328.107
 11
-132.203
 21
328.384
  0
LINE
  8
0
 10
-132.203
 20
328.384
 11
-132.668
 21
328.722
  0
LINE
  8
0
 10
-132.668
 20
328.722
 11
-133.088
 21
329.116
  0
LINE
  8
0
 10
-133.088
 20
329.116
 11
-133.454
 21
329.559
  0
LINE
  8
0
 10
-133.454
 20
329.559
 11
-133.762
 21
330.044
  0
LINE
  8
0
 10
-133.762
 20
330.044
 11
-134.007
 21
330.565
  0
LINE
  8
0
 10
-134.007
 20
330.565
 11
-134.185
 21
331.111
  0
LINE
  8
0
 10
-134.185
 20
331.111
 11
-134.292
 21
331.676
  0
LINE
  8
0
 10
-134.292
 20
331.676
 11
-134.328
 21
332.25
  0
LINE
  8
0
 10
-134.328
 20
332.25
 11
-134.328
 21
441.75
  0
LINE
  8
0
 10
-134.328
 20
441.75
 11
-134.292
 21
442.324
  0
LINE
  8
0
 10
-134.292
 20
442.324
 11
-134.185
 21
442.889
  0
LINE
  8
0
 10
-134.185
 20
442.889
 11
-134.007
 21
443.435
  0
LINE
  8
0
 10
-134.007
 20
443.435
 11
-133.762
 21
443.956
  0
LINE
  8
0
 10
-133.762
 20
443.956
 11
-133.454
 21
444.441
  0
LINE
  8
0
 10
-133.454
 20
444.441
 11
-133.088
 21
444.884
  0
LINE
  8
0
 10
-133.088
 20
444.884
 11
-132.668
 21
445.278
  0
LINE
  8
0
 10
-132.668
 20
445.278
 11
-132.203
 21
445.616
  0
LINE
  8
0
 10
-132.203
 20
445.616
 11
-131.699
 21
445.893
  0
LINE
  8
0
 10
-131.699
 20
445.893
 11
-131.165
 21
446.104
  0
LINE
  8
0
 10
-131.165
 20
446.104
 11
-130.608
 21
446.247
  0
LINE
  8
0
 10
-130.608
 20
446.247
 11
-130.037
 21
446.319
  0
LINE
  8
0
 10
-130.037
 20
446.319
 11
130.037
 21
446.319
  0
LINE
  8
0
 10
130.037
 20
446.319
 11
130.608
 21
446.247
  0
LINE
  8
0
 10
130.608
 20
446.247
 11
131.165
 21
446.104
  0
LINE
  8
0
 10
131.165
 20
446.104
 11
131.699
 21
445.893
  0
LINE
  8
0
 10
131.699
 20
445.893
 11
132.203
 21
445.616
  0
LINE
  8
0
 10
132.203
 20
445.616
 11
132.668
 21
445.278
  0
LINE
  8
0
 10
132.668
 20
445.278
 11
133.088
 21
444.884
  0
LINE
  8
0
 10
133.088
 20
444.884
 11
133.454
 21
444.441
  0
LINE
  8
0
 10
133.454
 20
444.441
 11
133.762
 21
443.956
  0
LINE
  8
0
 10
133.762
 20
443.956
 11
134.007
 21
443.435
  0
LINE
  8
0
 10
134.007
 20
443.435
 11
134.185
 21
442.889
  0
LINE
  8
0
 10
134.185
 20
442.889
 11
134.292
 21
442.324
  0
LINE
  8
0
 10
134.292
 20
442.324
 11
134.328
 21
441.75
  0
LINE
  8
0
 10
134.328
 20
441.75
 11
134.328
 21
332.25
  0
LINE
  8
0
 10
134.328
 20
332.25
 11
134.292
 21
331.676
  0
LINE
  8
0
 10
134.292
 20
331.676
 11
134.185
 21
331.111
  0
LINE
  8
0
 10
134.185
 20
331.111
 11
134.007
 21
330.565
  0
LINE
  8
0
 10
134.007
 20
330.565
 11
133.762
 21
330.044
  0
LINE
  8
0
 10
133.762
 20
330.044
 11
133.454
 21
329.559
  0
LINE
  8
0
 10
133.454
 20
329.559
 11
133.088
 21
329.116
  0
LINE
  8
0
 10
133.088
 20
329.116
 11
132.668
 21
328.722
  0
LINE
  8
0
 10
132.668
 20
328.722
 11
132.203
 21
328.384
  0
LINE
  8
0
 10
132.203
 20
328.384
 11
131.699
 21
328.107
  0
LINE
  8
0
 10
131.699
 20
328.107
 11
131.165
 21
327.896
  0
LINE
  8
0
 10
131.165
 20
327.896
 11
130.608
 21
327.753
  0
LINE
  8
0
 10
130.608
 20
327.753
 11
130.037
 21
327.681
  0
LINE
  8
0
 10
130.037
 20
327.681
 11
-130.037
 21
327.681
  0
LINE
  8
0
 10
130.937
 20
198.089
 11
131.545
 21
198.245
  0
LINE
  8
0
 10
131.545
 20
198.245
 11
132.129
 21
198.476
  0
LINE
  8
0
 10
132.129
 20
198.476
 11
132.679
 21
198.778
  0
LINE
  8
0
 10
132.679
 20
198.778
 11
133.187
 21
199.147
  0
LINE
  8
0
 10
133.187
 20
199.147
 11
133.645
 21
199.577
  0
LINE
  8
0
 10
133.645
 20
199.577
 11
134.045
 21
200.061
  0
LINE
  8
0
 10
134.045
 20
200.061
 11
134.382
 21
200.591
  0
LINE
  8
0
 10
134.382
 20
200.591
 11
134.649
 21
201.159
  0
LINE
  8
0
 10
134.649
 20
201.159
 11
134.843
 21
201.757
  0
LINE
  8
0
 10
134.843
 20
201.757
 11
134.961
 21
202.373
  0
LINE
  8
0
 10
134.961
 20
202.373
 11
135
 21
203
  0
LINE
  8
0
 10
135
 20
203
 11
135
 21
313
  0
LINE
  8
0
 10
135
 20
313
 11
134.961
 21
313.627
  0
LINE
  8
0
 10
134.961
 20
313.627
 11
134.843
 21
314.243
  0
LINE
  8
0
 10
134.843
 20
314.243
 11
134.649
 21
314.841
  0
LINE
  8
0
 10
134.649
 20
314.841
 11
134.382
 21
315.409
  0
LINE
  8
0
 10
134.382
 20
315.409
 11
134.045
 21
315.939
  0
LINE
  8
0
 10
134.045
 20
315.939
 11
133.645
 21
316.423
  0
LINE
  8
0
 10
133.645
 20
316.423
 11
133.187
 21
316.853
  0
LINE
  8
0
 10
133.187
 20
316.853
 11
132.679
 21
317.222
  0
LINE
  8
0
 10
132.679
 20
317.222
 11
132.129
 21
317.524
  0
LINE
  8
0
 10
132.129
 20
317.524
 11
131.545
 21
317.755
  0
LINE
  8
0
 10
131.545
 20
317.755
 11
130.937
 21
317.911
  0
LINE
  8
0
 10
130.937
 20
317.911
 11
130.314
 21
317.99
  0
LINE
  8
0
 10
130.314
 20
317.99
 11
-130.314
 21
317.99
  0
LINE
  8
0
 10
-130.314
 20
317.99
 11
-130.937
 21
317.911
  0
LINE
  8
0
 10
-130.937
 20
317.911
 11
-131.545
 21
317.755
  0
LINE
  8
0
 10
-131.545
 20
317.755
 11
-132.129
 21
317.524
  0
LINE
  8
0
 10
-132.129
 20
317.524
 11
-132.679
 21
317.222
  0
LINE
  8
0
 10
-132.679
 20
317.222
 11
-133.187
 21
316.853
  0
LINE
  8
0
 10
-133.187
 20
316.853
 11
-133.645
 21
316.423
  0
LINE
  8
0
 10
-133.645
 20
316.423
 11
-134.045
 21
315.939
  0
LINE
  8
0
 10
-134.045
 20
315.939
 11
-134.382
 21
315.409
  0
LINE
  8
0
 10
-134.382
 20
315.409
 11
-134.649
 21
314.841
  0
LINE
  8
0
 10
-134.649
 20
314.841
 11
-134.843
 21
314.243
  0
LINE
  8
0
 10
-134.843
 20
314.243
 11
-134.961
 21
313.627
  0
LINE
  8
0
 10
-134.961
 20
313.627
 11
-135
 21
313
  0
LINE
  8
0
 10
-135
 20
313
 11
-135
 21
203
  0
LINE
  8
0
 10
-135
 20
203
 11
-134.961
 21
202.373
  0
LINE
  8
0
 10
-134.961
 20
202.373
 11
-134.843
 21
201.757
  0
LINE
  8
0
 10
-134.843
 20
201.757
 11
-134.649
 21
201.159
  0
LINE
  8
0
 10
-134.649
 20
201.159
 11
-134.382
 21
200.591
  0
LINE
  8
0
 10
-134.382
 20
200.591
 11
-134.045
 21
200.061
  0
LINE
  8
0
 10
-134.045
 20
200.061
 11
-133.645
 21
199.577
  0
LINE
  8
0
 10
-133.645
 20
199.577
 11
-133.187
 21
199.147
  0
LINE
  8
0
 10
-133.187
 20
199.147
 11
-132.679
 21
198.778
  0
LINE
  8
0
 10
-132.679
 20
198.778
 11
-132.129
 21
198.476
  0
LINE
  8
0
 10
-132.129
 20
198.476
 11
-131.545
 21
198.245
  0
LINE
  8
0
 10
-131.545
 20
198.245
 11
-130.937
 21
198.089
  0
LINE
  8
0
 10
-130.937
 20
198.089
 11
-130.314
 21
198.01
  0
LINE
  8
0
 10
-130.314
 20
198.01
 11
130.314
 21
198.01
  0
LINE
  8
0
 10
130.314
 20
198.01
 11
130.937
 21
198.089
  0
LINE
  8
0
 10
-129.882
 20
201.145
 11
-130.145
 21
201.178
  0
LINE
  8
0
 10
-130.145
 20
201.178
 11
-130.402
 21
201.244
  0
LINE
  8
0
 10
-130.402
 20
201.244
 11
-130.648
 21
201.341
  0
LINE
  8
0
 10
-130.648
 20
201.341
 11
-130.88
 21
201.469
  0
LINE
  8
0
 10
-130.88
 20
201.469
 11
-131.095
 21
201.625
  0
LINE
  8
0
 10
-131.095
 20
201.625
 11
-131.288
 21
201.806
  0
LINE
  8
0
 10
-131.288
 20
201.806
 11
-131.457
 21
202.01
  0
LINE
  8
0
 10
-131.457
 20
202.01
 11
-131.599
 21
202.234
  0
LINE
  8
0
 10
-131.599
 20
202.234
 11
-131.711
 21
202.473
  0
LINE
  8
0
 10
-131.711
 20
202.473
 11
-131.793
 21
202.725
  0
LINE
  8
0
 10
-131.793
 20
202.725
 11
-131.843
 21
202.986
  0
LINE
  8
0
 10
-131.843
 20
202.986
 11
-131.86
 21
203.25
  0
LINE
  8
0
 10
-131.86
 20
203.25
 11
-131.86
 21
312.75
  0
LINE
  8
0
 10
-131.86
 20
312.75
 11
-131.843
 21
313.014
  0
LINE
  8
0
 10
-131.843
 20
313.014
 11
-131.793
 21
313.275
  0
LINE
  8
0
 10
-131.793
 20
313.275
 11
-131.711
 21
313.527
  0
LINE
  8
0
 10
-131.711
 20
313.527
 11
-131.599
 21
313.766
  0
LINE
  8
0
 10
-131.599
 20
313.766
 11
-131.457
 21
313.99
  0
LINE
  8
0
 10
-131.457
 20
313.99
 11
-131.288
 21
314.194
  0
LINE
  8
0
 10
-131.288
 20
314.194
 11
-131.095
 21
314.375
  0
LINE
  8
0
 10
-131.095
 20
314.375
 11
-130.88
 21
314.531
  0
LINE
  8
0
 10
-130.88
 20
314.531
 11
-130.648
 21
314.659
  0
LINE
  8
0
 10
-130.648
 20
314.659
 11
-130.402
 21
314.756
  0
LINE
  8
0
 10
-130.402
 20
314.756
 11
-130.145
 21
314.822
  0
LINE
  8
0
 10
-130.145
 20
314.822
 11
-129.882
 21
314.855
  0
LINE
  8
0
 10
-129.882
 20
314.855
 11
129.882
 21
314.855
  0
LINE
  8
0
 10
129.882
 20
314.855
 11
130.145
 21
314.822
  0
LINE
  8
0
 10
130.145
 20
314.822
 11
130.402
 21
314.756
  0
LINE
  8
0
 10
130.402
 20
314.756
 11
130.648
 21
314.659
  0
LINE
  8
0
 10
130.648
 20
314.659
 11
130.88
 21
314.531
  0
LINE
  8
0
 10
130.88
 20
314.531
 11
131.095
 21
314.375
  0
LINE
  8
0
 10
131.095
 20
314.375
 11
131.288
 21
314.194
  0
LINE
  8
0
 10
131.288
 20
314.194
 11
131.457
 21
313.99
  0
LINE
  8
0
 10
131.457
 20
313.99
 11
131.599
 21
313.766
  0
LINE
  8
0
 10
131.599
 20
313.766
 11
131.711
 21
313.527
  0
LINE
  8
0
 10
131.711
 20
313.527
 11
131.793
 21
313.275
  0
LINE
  8
0
 10
131.793
 20
313.275
 11
131.843
 21
313.014
  0
LINE
  8
0
 10
131.843
 20
313.014
 11
131.86
 21
312.75
  0
LINE
  8
0
 10
131.86
 20
312.75
 11
131.86
 21
203.25
  0
LINE
  8
0
 10
131.86
 20
203.25
 11
131.843
 21
202.986
  0
LINE
  8
0
 10
131.843
 20
202.986
 11
131.793
 21
202.725
  0
LINE
  8
0
 10
131.793
 20
202.725
 11
131.711
 21
202.473
  0
LINE
  8
0
 10
131.711
 20
202.473
 11
131.599
 21
202.234
  0
LINE
  8
0
 10
131.599
 20
202.234
 11
131.457
 21
202.01
  0
LINE
  8
0
 10
131.457
 20
202.01
 11
131.288
 21
201.806
  0
LINE
  8
0
 10
131.288
 20
201.806
 11
131.095
 21
201.625
  0
LINE
  8
0
 10
131.095
 20
201.625
 11
130.88
 21
201.469
  0
LINE
  8
0
 10
130.88
 20
201.469
 11
130.648
 21
201.341
  0
LINE
  8
0
 10
130.648
 20
201.341
 11
130.402
 21
201.244
  0
LINE
  8
0
 10
130.402
 20
201.244
 11
130.145
 21
201.178
  0
LINE
  8
0
 10
130.145
 20
201.178
 11
129.882
 21
201.145
  0
LINE
  8
0
 10
129.882
 20
201.145
 11
-129.882
 21
201.145
  0
ENDSEC
  0
SECTION
  2
OBJECTS
  0
DICTIONARY
  0
ENDSEC
  0
EOF
