<?xml version="1.0" standalone="no"?>
<!DOCTYPE svg PUBLIC "-//W3C//DTD SVG 1.1//EN" "http://www.w3.org/Graphics/SVG/1.1/DTD/svg11.dtd">
<svg width="272mm" height="267mm" viewBox="-137 -444 272 267" xmlns="http://www.w3.org/2000/svg" version="1.1">
<title>OpenSCAD Model</title>
<path d="
M -133.5,-385.441 L -133.187,-385.147 L -132.679,-384.778 L -132.129,-384.476 L -131.545,-384.245 L -130.937,-384.089
 L -130.314,-384.01 L 130.314,-384.01 L 130.937,-384.089 L 131.545,-384.245 L 132.129,-384.476 L 132.679,-384.778
 L 133.187,-385.147 L 133.645,-385.577 L 134.045,-386.061 L 134.382,-386.591 L 134.649,-387.159 L 134.843,-387.757
 L 134.961,-388.373 L 135,-389 L 135,-439 L 134.961,-439.627 L 134.843,-440.243 L 134.649,-440.841
 L 134.382,-441.409 L 134.045,-441.939 L 133.645,-442.423 L 133.187,-442.853 L 132.679,-443.222 L 132.129,-443.524
 L 131.545,-443.755 L 130.937,-443.911 L 130.314,-443.99 L -130.314,-443.99 L -130.937,-443.911 L -131.545,-443.755
 L -132.129,-443.524 L -132.679,-443.222 L -133.187,-442.853 L -133.5,-442.559 L -133.5,-443.99 L -136.5,-443.99
 L -136.5,-384.01 L -133.5,-384.01 z
M -129.751,-385.508 L -130.25,-385.571 L -130.736,-385.696 L -131.203,-385.881 L -131.643,-386.123 L -132.05,-386.418
 L -132.416,-386.762 L -132.736,-387.149 L -133.005,-387.573 L -133.219,-388.028 L -133.374,-388.505 L -133.468,-388.999
 L -133.5,-389.5 L -133.5,-438.5 L -133.468,-439.001 L -133.374,-439.495 L -133.219,-439.972 L -133.005,-440.427
 L -132.736,-440.851 L -132.416,-441.238 L -132.05,-441.582 L -131.643,-441.877 L -131.203,-442.119 L -130.736,-442.304
 L -130.25,-442.429 L -129.751,-442.492 L 129.751,-442.492 L 130.25,-442.429 L 130.736,-442.304 L 131.203,-442.119
 L 131.643,-441.877 L 132.05,-441.582 L 132.416,-441.238 L 132.736,-440.851 L 133.005,-440.427 L 133.219,-439.972
 L 133.374,-439.495 L 133.468,-439.001 L 133.5,-438.5 L 133.5,-389.5 L 133.468,-388.999 L 133.374,-388.505
 L 133.219,-388.028 L 133.005,-387.573 L 132.736,-387.149 L 132.416,-386.762 L 132.05,-386.418 L 131.643,-386.123
 L 131.203,-385.881 L 130.736,-385.696 L 130.25,-385.571 L 129.751,-385.508 z
M -133.5,-316.441 L -133.187,-316.147 L -132.679,-315.778 L -132.129,-315.476 L -131.545,-315.245 L -130.937,-315.089
 L -130.314,-315.01 L 130.314,-315.01 L 130.937,-315.089 L 131.545,-315.245 L 132.129,-315.476 L 132.679,-315.778
 L 133.187,-316.147 L 133.645,-316.577 L 134.045,-317.061 L 134.382,-317.591 L 134.649,-318.159 L 134.843,-318.757
 L 134.961,-319.373 L 135,-320 L 135,-370 L 134.961,-370.627 L 134.843,-371.243 L 134.649,-371.841
 L 134.382,-372.409 L 134.045,-372.939 L 133.645,-373.423 L 133.187,-373.853 L 132.679,-374.222 L 132.129,-374.524
 L 131.545,-374.755 L 130.937,-374.911 L 130.314,-374.99 L -130.314,-374.99 L -130.937,-374.911 L -131.545,-374.755
 L -132.129,-374.524 L -132.679,-374.222 L -133.187,-373.853 L -133.5,-373.559 L -133.5,-374.99 L -136.5,-374.99
 L -136.5,-315.01 L -133.5,-315.01 z
M -129.743,-316.635 L -130.226,-316.696 L -130.697,-316.817 L -131.149,-316.996 L -131.575,-317.23 L -131.969,-317.516
 L -132.323,-317.849 L -132.633,-318.224 L -132.894,-318.634 L -133.101,-319.074 L -133.251,-319.537 L -133.342,-320.015
 L -133.373,-320.5 L -133.373,-369.5 L -133.342,-369.985 L -133.251,-370.463 L -133.101,-370.926 L -132.894,-371.366
 L -132.633,-371.776 L -132.323,-372.151 L -131.969,-372.484 L -131.575,-372.77 L -131.149,-373.004 L -130.697,-373.183
 L -130.226,-373.304 L -129.743,-373.365 L 129.743,-373.365 L 130.226,-373.304 L 130.697,-373.183 L 131.149,-373.004
 L 131.575,-372.77 L 131.969,-372.484 L 132.323,-372.151 L 132.633,-371.776 L 132.894,-371.366 L 133.101,-370.926
 L 133.251,-370.463 L 133.342,-369.985 L 133.373,-369.5 L 133.373,-320.5 L 133.342,-320.015 L 133.251,-319.537
 L 133.101,-319.074 L 132.894,-318.634 L 132.633,-318.224 L 132.323,-317.849 L 131.969,-317.516 L 131.575,-317.23
 L 131.149,-316.996 L 130.697,-316.817 L 130.226,-316.696 L 129.743,-316.635 z
M 130.937,-246.089 L 131.545,-246.245 L 132.129,-246.476 L 132.679,-246.778 L 133.187,-247.147 L 133.645,-247.577
 L 134.045,-248.061 L 134.382,-248.591 L 134.649,-249.159 L 134.843,-249.757 L 134.961,-250.373 L 135,-251
 L 135,-301 L 134.961,-301.627 L 134.843,-302.243 L 134.649,-302.841 L 134.382,-303.409 L 134.045,-303.939
 L 133.645,-304.423 L 133.187,-304.853 L 132.679,-305.222 L 132.129,-305.524 L 131.545,-305.755 L 130.937,-305.911
 L 130.314,-305.99 L -130.314,-305.99 L -130.937,-305.911 L -131.545,-305.755 L -132.129,-305.524 L -132.679,-305.222
 L -133.187,-304.853 L -133.5,-304.559 L -133.5,-305.615 L -136.5,-305.615 L -136.5,-246.385 L -133.5,-246.385
 L -133.5,-247.441 L -133.187,-247.147 L -132.679,-246.778 L -132.129,-246.476 L -131.545,-246.245 L -130.937,-246.089
 L -130.314,-246.01 L 130.314,-246.01 z
M -127.651,-296.105 L -127.95,-296.143 L -128.242,-296.217 L -128.522,-296.328 L -128.786,-296.474 L -129.03,-296.651
 L -129.25,-296.857 L -129.442,-297.089 L -129.603,-297.344 L -129.731,-297.617 L -129.825,-297.903 L -129.881,-298.199
 L -129.9,-298.5 L -129.881,-298.801 L -129.825,-299.097 L -129.731,-299.383 L -129.603,-299.656 L -129.442,-299.911
 L -129.25,-300.143 L -129.03,-300.349 L -128.786,-300.526 L -128.522,-300.672 L -128.242,-300.783 L -127.95,-300.857
 L -127.651,-300.895 L -127.349,-300.895 L -127.05,-300.857 L -126.758,-300.783 L -126.478,-300.672 L -126.214,-300.526
 L -125.97,-300.349 L -125.75,-300.143 L -125.558,-299.911 L -125.397,-299.656 L -125.269,-299.383 L -125.175,-299.097
 L -125.119,-298.801 L -125.1,-298.5 L -125.119,-298.199 L -125.175,-297.903 L -125.269,-297.617 L -125.397,-297.344
 L -125.558,-297.089 L -125.75,-296.857 L -125.97,-296.651 L -126.214,-296.474 L -126.478,-296.328 L -126.758,-296.217
 L -127.05,-296.143 L -127.349,-296.105 z
M 127.349,-296.105 L 127.05,-296.143 L 126.758,-296.217 L 126.478,-296.328 L 126.214,-296.474 L 125.97,-296.651
 L 125.75,-296.857 L 125.558,-297.089 L 125.397,-297.344 L 125.269,-297.617 L 125.175,-297.903 L 125.119,-298.199
 L 125.1,-298.5 L 125.119,-298.801 L 125.175,-299.097 L 125.269,-299.383 L 125.397,-299.656 L 125.558,-299.911
 L 125.75,-300.143 L 125.97,-300.349 L 126.214,-300.526 L 126.478,-300.672 L 126.758,-300.783 L 127.05,-300.857
 L 127.349,-300.895 L 127.651,-300.895 L 127.95,-300.857 L 128.242,-300.783 L 128.522,-300.672 L 128.786,-300.526
 L 129.03,-300.349 L 129.25,-300.143 L 129.442,-299.911 L 129.603,-299.656 L 129.731,-299.383 L 129.825,-299.097
 L 129.881,-298.801 L 129.9,-298.5 L 129.881,-298.199 L 129.825,-297.903 L 129.731,-297.617 L 129.603,-297.344
 L 129.442,-297.089 L 129.25,-296.857 L 129.03,-296.651 L 128.786,-296.474 L 128.522,-296.328 L 128.242,-296.217
 L 127.95,-296.143 L 127.651,-296.105 z
M 127.349,-251.105 L 127.05,-251.143 L 126.758,-251.217 L 126.478,-251.328 L 126.214,-251.474 L 125.97,-251.651
 L 125.75,-251.857 L 125.558,-252.089 L 125.397,-252.344 L 125.269,-252.617 L 125.175,-252.903 L 125.119,-253.199
 L 125.1,-253.5 L 125.119,-253.801 L 125.175,-254.097 L 125.269,-254.383 L 125.397,-254.656 L 125.558,-254.911
 L 125.75,-255.143 L 125.97,-255.349 L 126.214,-255.526 L 126.478,-255.672 L 126.758,-255.783 L 127.05,-255.857
 L 127.349,-255.895 L 127.651,-255.895 L 127.95,-255.857 L 128.242,-255.783 L 128.522,-255.672 L 128.786,-255.526
 L 129.03,-255.349 L 129.25,-255.143 L 129.442,-254.911 L 129.603,-254.656 L 129.731,-254.383 L 129.825,-254.097
 L 129.881,-253.801 L 129.9,-253.5 L 129.881,-253.199 L 129.825,-252.903 L 129.731,-252.617 L 129.603,-252.344
 L 129.442,-252.089 L 129.25,-251.857 L 129.03,-251.651 L 128.786,-251.474 L 128.522,-251.328 L 128.242,-251.217
 L 127.95,-251.143 L 127.651,-251.105 z
M -127.651,-251.105 L -127.95,-251.143 L -128.242,-251.217 L -128.522,-251.328 L -128.786,-251.474 L -129.03,-251.651
 L -129.25,-251.857 L -129.442,-252.089 L -129.603,-252.344 L -129.731,-252.617 L -129.825,-252.903 L -129.881,-253.199
 L -129.9,-253.5 L -129.881,-253.801 L -129.825,-254.097 L -129.731,-254.383 L -129.603,-254.656 L -129.442,-254.911
 L -129.25,-255.143 L -129.03,-255.349 L -128.786,-255.526 L -128.522,-255.672 L -128.242,-255.783 L -127.95,-255.857
 L -127.651,-255.895 L -127.349,-255.895 L -127.05,-255.857 L -126.758,-255.783 L -126.478,-255.672 L -126.214,-255.526
 L -125.97,-255.349 L -125.75,-255.143 L -125.558,-254.911 L -125.397,-254.656 L -125.269,-254.383 L -125.175,-254.097
 L -125.119,-253.801 L -125.1,-253.5 L -125.119,-253.199 L -125.175,-252.903 L -125.269,-252.617 L -125.397,-252.344
 L -125.558,-252.089 L -125.75,-251.857 L -125.97,-251.651 L -126.214,-251.474 L -126.478,-251.328 L -126.758,-251.217
 L -127.05,-251.143 L -127.349,-251.105 z
M 130.937,-177.089 L 131.545,-177.245 L 132.129,-177.476 L 132.679,-177.778 L 133.187,-178.147 L 133.645,-178.577
 L 134.045,-179.061 L 134.382,-179.591 L 134.649,-180.159 L 134.843,-180.757 L 134.961,-181.373 L 135,-182
 L 135,-232 L 134.961,-232.627 L 134.843,-233.243 L 134.649,-233.841 L 134.382,-234.409 L 134.045,-234.939
 L 133.645,-235.423 L 133.187,-235.853 L 132.679,-236.222 L 132.129,-236.524 L 131.545,-236.755 L 130.937,-236.911
 L 130.314,-236.99 L -130.314,-236.99 L -130.937,-236.911 L -131.545,-236.755 L -132.129,-236.524 L -132.679,-236.222
 L -133.187,-235.853 L -133.645,-235.423 L -134.045,-234.939 L -134.382,-234.409 L -134.649,-233.841 L -134.843,-233.243
 L -134.9,-232.944 L -136.5,-232.944 L -136.5,-181.056 L -134.9,-181.056 L -134.843,-180.757 L -134.649,-180.159
 L -134.382,-179.591 L -134.045,-179.061 L -133.645,-178.577 L -133.187,-178.147 L -132.679,-177.778 L -132.129,-177.476
 L -131.545,-177.245 L -130.937,-177.089 L -130.314,-177.01 L 130.314,-177.01 z
M -127.613,-227.704 L -127.837,-227.732 L -128.056,-227.788 L -128.266,-227.871 L -128.464,-227.98 L -128.647,-228.113
 L -128.812,-228.268 L -128.956,-228.442 L -129.077,-228.633 L -129.174,-228.837 L -129.243,-229.052 L -129.286,-229.274
 L -129.3,-229.5 L -129.286,-229.726 L -129.243,-229.948 L -129.174,-230.163 L -129.077,-230.367 L -128.956,-230.558
 L -128.812,-230.732 L -128.647,-230.887 L -128.464,-231.02 L -128.266,-231.129 L -128.056,-231.212 L -127.837,-231.268
 L -127.613,-231.296 L -127.387,-231.296 L -127.163,-231.268 L -126.944,-231.212 L -126.734,-231.129 L -126.536,-231.02
 L -126.353,-230.887 L -126.188,-230.732 L -126.044,-230.558 L -125.923,-230.367 L -125.826,-230.163 L -125.757,-229.948
 L -125.714,-229.726 L -125.7,-229.5 L -125.714,-229.274 L -125.757,-229.052 L -125.826,-228.837 L -125.923,-228.633
 L -126.044,-228.442 L -126.188,-228.268 L -126.353,-228.113 L -126.536,-227.98 L -126.734,-227.871 L -126.944,-227.788
 L -127.163,-227.732 L -127.387,-227.704 z
M 127.387,-227.704 L 127.163,-227.732 L 126.944,-227.788 L 126.734,-227.871 L 126.536,-227.98 L 126.353,-228.113
 L 126.188,-228.268 L 126.044,-228.442 L 125.923,-228.633 L 125.826,-228.837 L 125.757,-229.052 L 125.714,-229.274
 L 125.7,-229.5 L 125.714,-229.726 L 125.757,-229.948 L 125.826,-230.163 L 125.923,-230.367 L 126.044,-230.558
 L 126.188,-230.732 L 126.353,-230.887 L 126.536,-231.02 L 126.734,-231.129 L 126.944,-231.212 L 127.163,-231.268
 L 127.387,-231.296 L 127.613,-231.296 L 127.837,-231.268 L 128.056,-231.212 L 128.266,-231.129 L 128.464,-231.02
 L 128.647,-230.887 L 128.812,-230.732 L 128.956,-230.558 L 129.077,-230.367 L 129.174,-230.163 L 129.243,-229.948
 L 129.286,-229.726 L 129.3,-229.5 L 129.286,-229.274 L 129.243,-229.052 L 129.174,-228.837 L 129.077,-228.633
 L 128.956,-228.442 L 128.812,-228.268 L 128.647,-228.113 L 128.464,-227.98 L 128.266,-227.871 L 128.056,-227.788
 L 127.837,-227.732 L 127.613,-227.704 z
M 127.387,-182.704 L 127.163,-182.732 L 126.944,-182.788 L 126.734,-182.871 L 126.536,-182.98 L 126.353,-183.113
 L 126.188,-183.268 L 126.044,-183.442 L 125.923,-183.633 L 125.826,-183.837 L 125.757,-184.052 L 125.714,-184.274
 L 125.7,-184.5 L 125.714,-184.726 L 125.757,-184.948 L 125.826,-185.163 L 125.923,-185.367 L 126.044,-185.558
 L 126.188,-185.732 L 126.353,-185.887 L 126.536,-186.02 L 126.734,-186.129 L 126.944,-186.212 L 127.163,-186.268
 L 127.387,-186.296 L 127.613,-186.296 L 127.837,-186.268 L 128.056,-186.212 L 128.266,-186.129 L 128.464,-186.02
 L 128.647,-185.887 L 128.812,-185.732 L 128.956,-185.558 L 129.077,-185.367 L 129.174,-185.163 L 129.243,-184.948
 L 129.286,-184.726 L 129.3,-184.5 L 129.286,-184.274 L 129.243,-184.052 L 129.174,-183.837 L 129.077,-183.633
 L 128.956,-183.442 L 128.812,-183.268 L 128.647,-183.113 L 128.464,-182.98 L 128.266,-182.871 L 128.056,-182.788
 L 127.837,-182.732 L 127.613,-182.704 z
M -127.613,-182.704 L -127.837,-182.732 L -128.056,-182.788 L -128.266,-182.871 L -128.464,-182.98 L -128.647,-183.113
 L -128.812,-183.268 L -128.956,-183.442 L -129.077,-183.633 L -129.174,-183.837 L -129.243,-184.052 L -129.286,-184.274
 L -129.3,-184.5 L -129.286,-184.726 L -129.243,-184.948 L -129.174,-185.163 L -129.077,-185.367 L -128.956,-185.558
 L -128.812,-185.732 L -128.647,-185.887 L -128.464,-186.02 L -128.266,-186.129 L -128.056,-186.212 L -127.837,-186.268
 L -127.613,-186.296 L -127.387,-186.296 L -127.163,-186.268 L -126.944,-186.212 L -126.734,-186.129 L -126.536,-186.02
 L -126.353,-185.887 L -126.188,-185.732 L -126.044,-185.558 L -125.923,-185.367 L -125.826,-185.163 L -125.757,-184.948
 L -125.714,-184.726 L -125.7,-184.5 L -125.714,-184.274 L -125.757,-184.052 L -125.826,-183.837 L -125.923,-183.633
 L -126.044,-183.442 L -126.188,-183.268 L -126.353,-183.113 L -126.536,-182.98 L -126.734,-182.871 L -126.944,-182.788
 L -127.163,-182.732 L -127.387,-182.704 z
" stroke="black" fill="lightgray" stroke-width="0.5"/>
</svg>
