<?xml version="1.0" standalone="no"?>
<!DOCTYPE svg PUBLIC "-//W3C//DTD SVG 1.1//EN" "http://www.w3.org/Graphics/SVG/1.1/DTD/svg11.dtd">
<svg width="242mm" height="2032mm" viewBox="-122 -3974 242 2032" xmlns="http://www.w3.org/2000/svg" version="1.1">
<title>OpenSCAD Model</title>
<path d="
M 115.937,-3778.59 L 116.545,-3778.74 L 117.129,-3778.98 L 117.679,-3779.28 L 118.187,-3779.65 L 118.645,-3780.08
 L 119.045,-3780.56 L 119.382,-3781.09 L 119.649,-3781.66 L 119.843,-3782.26 L 119.961,-3782.87 L 120,-3783.5
 L 120,-3968.5 L 119.961,-3969.13 L 119.843,-3969.74 L 119.649,-3970.34 L 119.382,-3970.91 L 119.045,-3971.44
 L 118.645,-3971.92 L 118.187,-3972.35 L 117.679,-3972.72 L 117.129,-3973.02 L 116.545,-3973.26 L 115.937,-3973.41
 L 115.314,-3973.49 L -115.314,-3973.49 L -115.937,-3973.41 L -116.545,-3973.26 L -117.129,-3973.02 L -117.679,-3972.72
 L -118.187,-3972.35 L -118.5,-3972.06 L -121.5,-3972.06 L -121.5,-3779.94 L -118.5,-3779.94 L -118.187,-3779.65
 L -117.679,-3779.28 L -117.129,-3778.98 L -116.545,-3778.74 L -115.937,-3778.59 L -115.314,-3778.51 L 115.314,-3778.51
 z
M -114.751,-3780.01 L -115.25,-3780.07 L -115.736,-3780.2 L -116.203,-3780.38 L -116.643,-3780.62 L -117.05,-3780.92
 L -117.416,-3781.26 L -117.736,-3781.65 L -118.005,-3782.07 L -118.219,-3782.53 L -118.374,-3783.01 L -118.468,-3783.5
 L -118.5,-3784 L -118.5,-3968 L -118.468,-3968.5 L -118.374,-3968.99 L -118.219,-3969.47 L -118.005,-3969.93
 L -117.736,-3970.35 L -117.416,-3970.74 L -117.05,-3971.08 L -116.643,-3971.38 L -116.203,-3971.62 L -115.736,-3971.8
 L -115.25,-3971.93 L -114.751,-3971.99 L 114.751,-3971.99 L 115.25,-3971.93 L 115.736,-3971.8 L 116.203,-3971.62
 L 116.643,-3971.38 L 117.05,-3971.08 L 117.416,-3970.74 L 117.736,-3970.35 L 118.005,-3969.93 L 118.219,-3969.47
 L 118.374,-3968.99 L 118.468,-3968.5 L 118.5,-3968 L 118.5,-3784 L 118.468,-3783.5 L 118.374,-3783.01
 L 118.219,-3782.53 L 118.005,-3782.07 L 117.736,-3781.65 L 117.416,-3781.26 L 117.05,-3780.92 L 116.643,-3780.62
 L 116.203,-3780.38 L 115.736,-3780.2 L 115.25,-3780.07 L 114.751,-3780.01 z
M 115.937,-3574.59 L 116.545,-3574.74 L 117.129,-3574.98 L 117.679,-3575.28 L 118.187,-3575.65 L 118.645,-3576.08
 L 119.045,-3576.56 L 119.382,-3577.09 L 119.649,-3577.66 L 119.843,-3578.26 L 119.961,-3578.87 L 120,-3579.5
 L 120,-3764.5 L 119.961,-3765.13 L 119.843,-3765.74 L 119.649,-3766.34 L 119.382,-3766.91 L 119.045,-3767.44
 L 118.645,-3767.92 L 118.187,-3768.35 L 117.679,-3768.72 L 117.129,-3769.02 L 116.545,-3769.26 L 115.937,-3769.41
 L 115.314,-3769.49 L -115.314,-3769.49 L -115.937,-3769.41 L -116.545,-3769.26 L -117.129,-3769.02 L -117.679,-3768.72
 L -118.187,-3768.35 L -118.5,-3768.06 L -118.5,-3769.47 L -121.5,-3769.47 L -121.5,-3574.53 L -118.5,-3574.53
 L -118.5,-3575.94 L -118.187,-3575.65 L -117.679,-3575.28 L -117.129,-3574.98 L -116.545,-3574.74 L -115.937,-3574.59
 L -115.314,-3574.51 L 115.314,-3574.51 z
M -114.751,-3576.01 L -115.25,-3576.07 L -115.736,-3576.2 L -116.203,-3576.38 L -116.643,-3576.62 L -117.05,-3576.92
 L -117.416,-3577.26 L -117.736,-3577.65 L -118.005,-3578.07 L -118.219,-3578.53 L -118.374,-3579.01 L -118.468,-3579.5
 L -118.5,-3580 L -118.5,-3764 L -118.468,-3764.5 L -118.374,-3764.99 L -118.219,-3765.47 L -118.005,-3765.93
 L -117.736,-3766.35 L -117.416,-3766.74 L -117.05,-3767.08 L -116.643,-3767.38 L -116.203,-3767.62 L -115.736,-3767.8
 L -115.25,-3767.93 L -114.751,-3767.99 L 114.751,-3767.99 L 115.25,-3767.93 L 115.736,-3767.8 L 116.203,-3767.62
 L 116.643,-3767.38 L 117.05,-3767.08 L 117.416,-3766.74 L 117.736,-3766.35 L 118.005,-3765.93 L 118.219,-3765.47
 L 118.374,-3764.99 L 118.468,-3764.5 L 118.5,-3764 L 118.5,-3580 L 118.468,-3579.5 L 118.374,-3579.01
 L 118.219,-3578.53 L 118.005,-3578.07 L 117.736,-3577.65 L 117.416,-3577.26 L 117.05,-3576.92 L 116.643,-3576.62
 L 116.203,-3576.38 L 115.736,-3576.2 L 115.25,-3576.07 L 114.751,-3576.01 z
M -118.5,-3371.94 L -118.187,-3371.65 L -117.679,-3371.28 L -117.129,-3370.98 L -116.545,-3370.74 L -115.937,-3370.59
 L -115.314,-3370.51 L 115.314,-3370.51 L 115.937,-3370.59 L 116.545,-3370.74 L 117.129,-3370.98 L 117.679,-3371.28
 L 118.187,-3371.65 L 118.645,-3372.08 L 119.045,-3372.56 L 119.382,-3373.09 L 119.649,-3373.66 L 119.843,-3374.26
 L 119.961,-3374.87 L 120,-3375.5 L 120,-3560.5 L 119.961,-3561.13 L 119.843,-3561.74 L 119.649,-3562.34
 L 119.382,-3562.91 L 119.045,-3563.44 L 118.645,-3563.92 L 118.187,-3564.35 L 117.679,-3564.72 L 117.129,-3565.02
 L 116.545,-3565.26 L 115.937,-3565.41 L 115.314,-3565.49 L -115.314,-3565.49 L -115.937,-3565.41 L -116.545,-3565.26
 L -117.129,-3565.02 L -117.679,-3564.72 L -118.187,-3564.35 L -118.5,-3564.06 L -118.5,-3565.49 L -121.5,-3565.49
 L -121.5,-3560.99 L -118.374,-3560.99 L -118.374,-3560.99 L -118.219,-3561.47 L -118.005,-3561.93 L -117.736,-3562.35
 L -117.416,-3562.74 L -117.05,-3563.08 L -116.643,-3563.38 L -116.203,-3563.62 L -115.736,-3563.8 L -115.25,-3563.93
 L -114.751,-3563.99 L 114.751,-3563.99 L 115.25,-3563.93 L 115.736,-3563.8 L 116.203,-3563.62 L 116.643,-3563.38
 L 117.05,-3563.08 L 117.416,-3562.74 L 117.736,-3562.35 L 118.005,-3561.93 L 118.219,-3561.47 L 118.374,-3560.99
 L 118.468,-3560.5 L 118.5,-3560 L 118.5,-3376 L 118.468,-3375.5 L 118.374,-3375.01 L 118.219,-3374.53
 L 118.005,-3374.07 L 117.736,-3373.65 L 117.416,-3373.26 L 117.05,-3372.92 L 116.643,-3372.62 L 116.203,-3372.38
 L 115.736,-3372.2 L 115.25,-3372.07 L 114.751,-3372.01 L -114.751,-3372.01 L -115.25,-3372.07 L -115.736,-3372.2
 L -116.203,-3372.38 L -116.643,-3372.62 L -117.05,-3372.92 L -117.416,-3373.26 L -117.736,-3373.65 L -118.005,-3374.07
 L -118.219,-3374.53 L -118.374,-3375.01 L -118.374,-3375.01 L -121.5,-3375.01 L -121.5,-3370.51 L -118.5,-3370.51
 z
M -118.5,-3555.01 L -121.5,-3555.01 L -121.5,-3545.99 L -118.5,-3545.99 z
M -118.5,-3540.01 L -121.5,-3540.01 L -121.5,-3530.99 L -118.5,-3530.99 z
M -118.5,-3525.01 L -121.5,-3525.01 L -121.5,-3515.99 L -118.5,-3515.99 z
M -118.5,-3510.01 L -121.5,-3510.01 L -121.5,-3500.99 L -118.5,-3500.99 z
M -118.5,-3495.01 L -121.5,-3495.01 L -121.5,-3485.99 L -118.5,-3485.99 z
M -118.5,-3480.01 L -121.5,-3480.01 L -121.5,-3470.99 L -118.5,-3470.99 z
M -118.5,-3465.01 L -121.5,-3465.01 L -121.5,-3455.99 L -118.5,-3455.99 z
M -118.5,-3450.01 L -121.5,-3450.01 L -121.5,-3440.99 L -118.5,-3440.99 z
M -118.5,-3435.01 L -121.5,-3435.01 L -121.5,-3425.99 L -118.5,-3425.99 z
M -118.5,-3420.01 L -121.5,-3420.01 L -121.5,-3410.99 L -118.5,-3410.99 z
M -118.5,-3405.01 L -121.5,-3405.01 L -121.5,-3395.99 L -118.5,-3395.99 z
M -118.5,-3390.01 L -121.5,-3390.01 L -121.5,-3380.99 L -118.5,-3380.99 z
M -118.5,-3167.94 L -118.187,-3167.65 L -117.679,-3167.28 L -117.129,-3166.98 L -116.545,-3166.74 L -115.937,-3166.59
 L -115.314,-3166.51 L 115.314,-3166.51 L 115.937,-3166.59 L 116.545,-3166.74 L 117.129,-3166.98 L 117.679,-3167.28
 L 118.187,-3167.65 L 118.645,-3168.08 L 119.045,-3168.56 L 119.382,-3169.09 L 119.649,-3169.66 L 119.843,-3170.26
 L 119.961,-3170.87 L 120,-3171.5 L 120,-3356.5 L 119.961,-3357.13 L 119.843,-3357.74 L 119.649,-3358.34
 L 119.382,-3358.91 L 119.045,-3359.44 L 118.645,-3359.92 L 118.187,-3360.35 L 117.679,-3360.72 L 117.129,-3361.02
 L 116.545,-3361.26 L 115.937,-3361.41 L 115.314,-3361.49 L -115.314,-3361.49 L -115.937,-3361.41 L -116.545,-3361.26
 L -117.129,-3361.02 L -117.679,-3360.72 L -118.187,-3360.35 L -118.5,-3360.06 L -118.5,-3361.49 L -121.5,-3361.49
 L -121.5,-3166.51 L -118.5,-3166.51 z
M -114.751,-3168.01 L -115.25,-3168.07 L -115.736,-3168.2 L -116.203,-3168.38 L -116.643,-3168.62 L -117.05,-3168.92
 L -117.416,-3169.26 L -117.736,-3169.65 L -118.005,-3170.07 L -118.219,-3170.53 L -118.374,-3171.01 L -118.468,-3171.5
 L -118.5,-3172 L -118.5,-3356 L -118.468,-3356.5 L -118.374,-3356.99 L -118.219,-3357.47 L -118.005,-3357.93
 L -117.736,-3358.35 L -117.416,-3358.74 L -117.05,-3359.08 L -116.643,-3359.38 L -116.203,-3359.62 L -115.736,-3359.8
 L -115.25,-3359.93 L -114.751,-3359.99 L 114.751,-3359.99 L 115.25,-3359.93 L 115.736,-3359.8 L 116.203,-3359.62
 L 116.643,-3359.38 L 117.05,-3359.08 L 117.416,-3358.74 L 117.736,-3358.35 L 118.005,-3357.93 L 118.219,-3357.47
 L 118.374,-3356.99 L 118.468,-3356.5 L 118.5,-3356 L 118.5,-3172 L 118.468,-3171.5 L 118.374,-3171.01
 L 118.219,-3170.53 L 118.005,-3170.07 L 117.736,-3169.65 L 117.416,-3169.26 L 117.05,-3168.92 L 116.643,-3168.62
 L 116.203,-3168.38 L 115.736,-3168.2 L 115.25,-3168.07 L 114.751,-3168.01 z
M -118.5,-2963.94 L -118.187,-2963.65 L -117.679,-2963.28 L -117.129,-2962.98 L -116.545,-2962.74 L -115.937,-2962.59
 L -115.314,-2962.51 L 115.314,-2962.51 L 115.937,-2962.59 L 116.545,-2962.74 L 117.129,-2962.98 L 117.679,-2963.28
 L 118.187,-2963.65 L 118.645,-2964.08 L 119.045,-2964.56 L 119.382,-2965.09 L 119.649,-2965.66 L 119.843,-2966.26
 L 119.961,-2966.87 L 120,-2967.5 L 120,-3152.5 L 119.961,-3153.13 L 119.843,-3153.74 L 119.649,-3154.34
 L 119.382,-3154.91 L 119.045,-3155.44 L 118.645,-3155.92 L 118.187,-3156.35 L 117.679,-3156.72 L 117.129,-3157.02
 L 116.545,-3157.26 L 115.937,-3157.41 L 115.314,-3157.49 L -115.314,-3157.49 L -115.937,-3157.41 L -116.545,-3157.26
 L -117.129,-3157.02 L -117.679,-3156.72 L -118.187,-3156.35 L -118.5,-3156.06 L -118.5,-3157.49 L -121.5,-3157.49
 L -121.5,-2962.51 L -118.5,-2962.51 z
M -114.751,-2964.01 L -115.25,-2964.07 L -115.736,-2964.2 L -116.203,-2964.38 L -116.643,-2964.62 L -117.05,-2964.92
 L -117.416,-2965.26 L -117.736,-2965.65 L -118.005,-2966.07 L -118.219,-2966.53 L -118.374,-2967.01 L -118.468,-2967.5
 L -118.5,-2968 L -118.5,-3152 L -118.468,-3152.5 L -118.374,-3152.99 L -118.219,-3153.47 L -118.005,-3153.93
 L -117.736,-3154.35 L -117.416,-3154.74 L -117.05,-3155.08 L -116.643,-3155.38 L -116.203,-3155.62 L -115.736,-3155.8
 L -115.25,-3155.93 L -114.751,-3155.99 L 114.751,-3155.99 L 115.25,-3155.93 L 115.736,-3155.8 L 116.203,-3155.62
 L 116.643,-3155.38 L 117.05,-3155.08 L 117.416,-3154.74 L 117.736,-3154.35 L 118.005,-3153.93 L 118.219,-3153.47
 L 118.374,-3152.99 L 118.468,-3152.5 L 118.5,-3152 L 118.5,-2968 L 118.468,-2967.5 L 118.374,-2967.01
 L 118.219,-2966.53 L 118.005,-2966.07 L 117.736,-2965.65 L 117.416,-2965.26 L 117.05,-2964.92 L 116.643,-2964.62
 L 116.203,-2964.38 L 115.736,-2964.2 L 115.25,-2964.07 L 114.751,-2964.01 z
M -118.5,-2759.94 L -118.187,-2759.65 L -117.679,-2759.28 L -117.129,-2758.98 L -116.545,-2758.74 L -115.937,-2758.59
 L -115.314,-2758.51 L 115.314,-2758.51 L 115.937,-2758.59 L 116.545,-2758.74 L 117.129,-2758.98 L 117.679,-2759.28
 L 118.187,-2759.65 L 118.645,-2760.08 L 119.045,-2760.56 L 119.382,-2761.09 L 119.649,-2761.66 L 119.843,-2762.26
 L 119.961,-2762.87 L 120,-2763.5 L 120,-2948.5 L 119.961,-2949.13 L 119.843,-2949.74 L 119.649,-2950.34
 L 119.382,-2950.91 L 119.045,-2951.44 L 118.645,-2951.92 L 118.187,-2952.35 L 117.679,-2952.72 L 117.129,-2953.02
 L 116.545,-2953.26 L 115.937,-2953.41 L 115.314,-2953.49 L -115.314,-2953.49 L -115.937,-2953.41 L -116.545,-2953.26
 L -117.129,-2953.02 L -117.679,-2952.72 L -118.187,-2952.35 L -118.5,-2952.06 L -118.5,-2953.49 L -121.5,-2953.49
 L -121.5,-2758.51 L -118.5,-2758.51 z
M -114.751,-2760.01 L -115.25,-2760.07 L -115.736,-2760.2 L -116.203,-2760.38 L -116.643,-2760.62 L -117.05,-2760.92
 L -117.416,-2761.26 L -117.736,-2761.65 L -118.005,-2762.07 L -118.219,-2762.53 L -118.374,-2763.01 L -118.468,-2763.5
 L -118.5,-2764 L -118.5,-2948 L -118.468,-2948.5 L -118.374,-2948.99 L -118.219,-2949.47 L -118.005,-2949.93
 L -117.736,-2950.35 L -117.416,-2950.74 L -117.05,-2951.08 L -116.643,-2951.38 L -116.203,-2951.62 L -115.736,-2951.8
 L -115.25,-2951.93 L -114.751,-2951.99 L 114.751,-2951.99 L 115.25,-2951.93 L 115.736,-2951.8 L 116.203,-2951.62
 L 116.643,-2951.38 L 117.05,-2951.08 L 117.416,-2950.74 L 117.736,-2950.35 L 118.005,-2949.93 L 118.219,-2949.47
 L 118.374,-2948.99 L 118.468,-2948.5 L 118.5,-2948 L 118.5,-2764 L 118.468,-2763.5 L 118.374,-2763.01
 L 118.219,-2762.53 L 118.005,-2762.07 L 117.736,-2761.65 L 117.416,-2761.26 L 117.05,-2760.92 L 116.643,-2760.62
 L 116.203,-2760.38 L 115.736,-2760.2 L 115.25,-2760.07 L 114.751,-2760.01 z
M -118.5,-2555.94 L -118.187,-2555.65 L -117.679,-2555.28 L -117.129,-2554.98 L -116.545,-2554.74 L -115.937,-2554.59
 L -115.314,-2554.51 L 115.314,-2554.51 L 115.937,-2554.59 L 116.545,-2554.74 L 117.129,-2554.98 L 117.679,-2555.28
 L 118.187,-2555.65 L 118.645,-2556.08 L 119.045,-2556.56 L 119.382,-2557.09 L 119.649,-2557.66 L 119.843,-2558.26
 L 119.961,-2558.87 L 120,-2559.5 L 120,-2744.5 L 119.961,-2745.13 L 119.843,-2745.74 L 119.649,-2746.34
 L 119.382,-2746.91 L 119.045,-2747.44 L 118.645,-2747.92 L 118.187,-2748.35 L 117.679,-2748.72 L 117.129,-2749.02
 L 116.545,-2749.26 L 115.937,-2749.41 L 115.314,-2749.49 L -115.314,-2749.49 L -115.937,-2749.41 L -116.545,-2749.26
 L -117.129,-2749.02 L -117.679,-2748.72 L -118.187,-2748.35 L -118.5,-2748.06 L -118.5,-2749.49 L -121.5,-2749.49
 L -121.5,-2554.51 L -118.5,-2554.51 z
M -114.751,-2556.01 L -115.25,-2556.07 L -115.736,-2556.2 L -116.203,-2556.38 L -116.643,-2556.62 L -117.05,-2556.92
 L -117.416,-2557.26 L -117.736,-2557.65 L -118.005,-2558.07 L -118.219,-2558.53 L -118.374,-2559.01 L -118.468,-2559.5
 L -118.5,-2560 L -118.5,-2744 L -118.468,-2744.5 L -118.374,-2744.99 L -118.219,-2745.47 L -118.005,-2745.93
 L -117.736,-2746.35 L -117.416,-2746.74 L -117.05,-2747.08 L -116.643,-2747.38 L -116.203,-2747.62 L -115.736,-2747.8
 L -115.25,-2747.93 L -114.751,-2747.99 L 114.751,-2747.99 L 115.25,-2747.93 L 115.736,-2747.8 L 116.203,-2747.62
 L 116.643,-2747.38 L 117.05,-2747.08 L 117.416,-2746.74 L 117.736,-2746.35 L 118.005,-2745.93 L 118.219,-2745.47
 L 118.374,-2744.99 L 118.468,-2744.5 L 118.5,-2744 L 118.5,-2560 L 118.468,-2559.5 L 118.374,-2559.01
 L 118.219,-2558.53 L 118.005,-2558.07 L 117.736,-2557.65 L 117.416,-2557.26 L 117.05,-2556.92 L 116.643,-2556.62
 L 116.203,-2556.38 L 115.736,-2556.2 L 115.25,-2556.07 L 114.751,-2556.01 z
M -118.5,-2351.94 L -118.187,-2351.65 L -117.679,-2351.28 L -117.129,-2350.98 L -116.545,-2350.74 L -115.937,-2350.59
 L -115.314,-2350.51 L 115.314,-2350.51 L 115.937,-2350.59 L 116.545,-2350.74 L 117.129,-2350.98 L 117.679,-2351.28
 L 118.187,-2351.65 L 118.645,-2352.08 L 119.045,-2352.56 L 119.382,-2353.09 L 119.649,-2353.66 L 119.843,-2354.26
 L 119.961,-2354.87 L 120,-2355.5 L 120,-2540.5 L 119.961,-2541.13 L 119.843,-2541.74 L 119.649,-2542.34
 L 119.382,-2542.91 L 119.045,-2543.44 L 118.645,-2543.92 L 118.187,-2544.35 L 117.679,-2544.72 L 117.129,-2545.02
 L 116.545,-2545.26 L 115.937,-2545.41 L 115.314,-2545.49 L -115.314,-2545.49 L -115.937,-2545.41 L -116.545,-2545.26
 L -117.129,-2545.02 L -117.679,-2544.72 L -118.187,-2544.35 L -118.5,-2544.06 L -118.5,-2545.49 L -121.5,-2545.49
 L -121.5,-2350.51 L -118.5,-2350.51 z
M -114.751,-2352.01 L -115.25,-2352.07 L -115.736,-2352.2 L -116.203,-2352.38 L -116.643,-2352.62 L -117.05,-2352.92
 L -117.416,-2353.26 L -117.736,-2353.65 L -118.005,-2354.07 L -118.219,-2354.53 L -118.374,-2355.01 L -118.468,-2355.5
 L -118.5,-2356 L -118.5,-2540 L -118.468,-2540.5 L -118.374,-2540.99 L -118.219,-2541.47 L -118.005,-2541.93
 L -117.736,-2542.35 L -117.416,-2542.74 L -117.05,-2543.08 L -116.643,-2543.38 L -116.203,-2543.62 L -115.736,-2543.8
 L -115.25,-2543.93 L -114.751,-2543.99 L 114.751,-2543.99 L 115.25,-2543.93 L 115.736,-2543.8 L 116.203,-2543.62
 L 116.643,-2543.38 L 117.05,-2543.08 L 117.416,-2542.74 L 117.736,-2542.35 L 118.005,-2541.93 L 118.219,-2541.47
 L 118.374,-2540.99 L 118.468,-2540.5 L 118.5,-2540 L 118.5,-2356 L 118.468,-2355.5 L 118.374,-2355.01
 L 118.219,-2354.53 L 118.005,-2354.07 L 117.736,-2353.65 L 117.416,-2353.26 L 117.05,-2352.92 L 116.643,-2352.62
 L 116.203,-2352.38 L 115.736,-2352.2 L 115.25,-2352.07 L 114.751,-2352.01 z
M 115.937,-2146.59 L 116.545,-2146.74 L 117.129,-2146.98 L 117.679,-2147.28 L 118.187,-2147.65 L 118.645,-2148.08
 L 119.045,-2148.56 L 119.382,-2149.09 L 119.649,-2149.66 L 119.843,-2150.26 L 119.961,-2150.87 L 120,-2151.5
 L 120,-2336.5 L 119.961,-2337.13 L 119.843,-2337.74 L 119.649,-2338.34 L 119.382,-2338.91 L 119.045,-2339.44
 L 118.645,-2339.92 L 118.187,-2340.35 L 117.679,-2340.72 L 117.129,-2341.02 L 116.545,-2341.26 L 115.937,-2341.41
 L 115.314,-2341.49 L -115.314,-2341.49 L -115.937,-2341.41 L -116.545,-2341.26 L -117.129,-2341.02 L -117.679,-2340.72
 L -118.187,-2340.35 L -118.5,-2340.06 L -118.5,-2341.48 L -121.5,-2341.48 L -121.5,-2146.52 L -118.5,-2146.52
 L -118.5,-2147.94 L -118.187,-2147.65 L -117.679,-2147.28 L -117.129,-2146.98 L -116.545,-2146.74 L -115.937,-2146.59
 L -115.314,-2146.51 L 115.314,-2146.51 z
M -114.695,-2148.89 L -115.083,-2148.94 L -115.462,-2149.04 L -115.825,-2149.18 L -116.168,-2149.37 L -116.484,-2149.6
 L -116.769,-2149.87 L -117.018,-2150.17 L -117.228,-2150.5 L -117.394,-2150.85 L -117.515,-2151.23 L -117.588,-2151.61
 L -117.613,-2152 L -117.613,-2336 L -117.588,-2336.39 L -117.515,-2336.77 L -117.394,-2337.15 L -117.228,-2337.5
 L -117.018,-2337.83 L -116.769,-2338.13 L -116.484,-2338.4 L -116.168,-2338.63 L -115.825,-2338.82 L -115.462,-2338.96
 L -115.083,-2339.06 L -114.695,-2339.11 L 114.695,-2339.11 L 115.083,-2339.06 L 115.462,-2338.96 L 115.825,-2338.82
 L 116.168,-2338.63 L 116.484,-2338.4 L 116.769,-2338.13 L 117.018,-2337.83 L 117.228,-2337.5 L 117.394,-2337.15
 L 117.515,-2336.77 L 117.588,-2336.39 L 117.613,-2336 L 117.613,-2152 L 117.588,-2151.61 L 117.515,-2151.23
 L 117.394,-2150.85 L 117.228,-2150.5 L 117.018,-2150.17 L 116.769,-2149.87 L 116.484,-2149.6 L 116.168,-2149.37
 L 115.825,-2149.18 L 115.462,-2149.04 L 115.083,-2148.94 L 114.695,-2148.89 z
M 115.937,-1942.59 L 116.545,-1942.74 L 117.129,-1942.98 L 117.679,-1943.28 L 118.187,-1943.65 L 118.645,-1944.08
 L 119.045,-1944.56 L 119.382,-1945.09 L 119.649,-1945.66 L 119.843,-1946.26 L 119.961,-1946.87 L 120,-1947.5
 L 120,-2132.5 L 119.961,-2133.13 L 119.843,-2133.74 L 119.649,-2134.34 L 119.382,-2134.91 L 119.045,-2135.44
 L 118.645,-2135.92 L 118.187,-2136.35 L 117.679,-2136.72 L 117.129,-2137.02 L 116.545,-2137.26 L 115.937,-2137.41
 L 115.314,-2137.49 L -115.314,-2137.49 L -115.937,-2137.41 L -116.545,-2137.26 L -117.129,-2137.02 L -117.679,-2136.72
 L -118.187,-2136.35 L -118.5,-2136.06 L -118.5,-2136.15 L -121.5,-2136.15 L -121.5,-1943.85 L -118.5,-1943.85
 L -118.5,-1943.94 L -118.187,-1943.65 L -117.679,-1943.28 L -117.129,-1942.98 L -116.545,-1942.74 L -115.937,-1942.59
 L -115.314,-1942.51 L 115.314,-1942.51 z
M -112.634,-2127.87 L -112.9,-2127.9 L -113.16,-2127.97 L -113.409,-2128.07 L -113.644,-2128.2 L -113.861,-2128.35
 L -114.057,-2128.54 L -114.227,-2128.74 L -114.371,-2128.97 L -114.485,-2129.21 L -114.568,-2129.47 L -114.618,-2129.73
 L -114.635,-2130 L -114.618,-2130.27 L -114.568,-2130.53 L -114.485,-2130.79 L -114.371,-2131.03 L -114.227,-2131.26
 L -114.057,-2131.46 L -113.861,-2131.65 L -113.644,-2131.8 L -113.409,-2131.93 L -113.16,-2132.03 L -112.9,-2132.1
 L -112.634,-2132.13 L -112.366,-2132.13 L -112.1,-2132.1 L -111.84,-2132.03 L -111.591,-2131.93 L -111.356,-2131.8
 L -111.139,-2131.65 L -110.943,-2131.46 L -110.773,-2131.26 L -110.629,-2131.03 L -110.515,-2130.79 L -110.432,-2130.53
 L -110.382,-2130.27 L -110.365,-2130 L -110.382,-2129.73 L -110.432,-2129.47 L -110.515,-2129.21 L -110.629,-2128.97
 L -110.773,-2128.74 L -110.943,-2128.54 L -111.139,-2128.35 L -111.356,-2128.2 L -111.591,-2128.07 L -111.84,-2127.97
 L -112.1,-2127.9 L -112.366,-2127.87 z
M 112.366,-2127.87 L 112.1,-2127.9 L 111.84,-2127.97 L 111.591,-2128.07 L 111.356,-2128.2 L 111.139,-2128.35
 L 110.943,-2128.54 L 110.773,-2128.74 L 110.629,-2128.97 L 110.515,-2129.21 L 110.432,-2129.47 L 110.382,-2129.73
 L 110.365,-2130 L 110.382,-2130.27 L 110.432,-2130.53 L 110.515,-2130.79 L 110.629,-2131.03 L 110.773,-2131.26
 L 110.943,-2131.46 L 111.139,-2131.65 L 111.356,-2131.8 L 111.591,-2131.93 L 111.84,-2132.03 L 112.1,-2132.1
 L 112.366,-2132.13 L 112.634,-2132.13 L 112.9,-2132.1 L 113.16,-2132.03 L 113.409,-2131.93 L 113.644,-2131.8
 L 113.861,-2131.65 L 114.057,-2131.46 L 114.227,-2131.26 L 114.371,-2131.03 L 114.485,-2130.79 L 114.568,-2130.53
 L 114.618,-2130.27 L 114.635,-2130 L 114.618,-2129.73 L 114.568,-2129.47 L 114.485,-2129.21 L 114.371,-2128.97
 L 114.227,-2128.74 L 114.057,-2128.54 L 113.861,-2128.35 L 113.644,-2128.2 L 113.409,-2128.07 L 113.16,-2127.97
 L 112.9,-2127.9 L 112.634,-2127.87 z
M -112.634,-1947.87 L -112.9,-1947.9 L -113.16,-1947.97 L -113.409,-1948.07 L -113.644,-1948.2 L -113.861,-1948.35
 L -114.057,-1948.54 L -114.227,-1948.74 L -114.371,-1948.97 L -114.485,-1949.21 L -114.568,-1949.47 L -114.618,-1949.73
 L -114.635,-1950 L -114.618,-1950.27 L -114.568,-1950.53 L -114.485,-1950.79 L -114.371,-1951.03 L -114.227,-1951.26
 L -114.057,-1951.46 L -113.861,-1951.65 L -113.644,-1951.8 L -113.409,-1951.93 L -113.16,-1952.03 L -112.9,-1952.1
 L -112.634,-1952.13 L -112.366,-1952.13 L -112.1,-1952.1 L -111.84,-1952.03 L -111.591,-1951.93 L -111.356,-1951.8
 L -111.139,-1951.65 L -110.943,-1951.46 L -110.773,-1951.26 L -110.629,-1951.03 L -110.515,-1950.79 L -110.432,-1950.53
 L -110.382,-1950.27 L -110.365,-1950 L -110.382,-1949.73 L -110.432,-1949.47 L -110.515,-1949.21 L -110.629,-1948.97
 L -110.773,-1948.74 L -110.943,-1948.54 L -111.139,-1948.35 L -111.356,-1948.2 L -111.591,-1948.07 L -111.84,-1947.97
 L -112.1,-1947.9 L -112.366,-1947.87 z
M 112.366,-1947.87 L 112.1,-1947.9 L 111.84,-1947.97 L 111.591,-1948.07 L 111.356,-1948.2 L 111.139,-1948.35
 L 110.943,-1948.54 L 110.773,-1948.74 L 110.629,-1948.97 L 110.515,-1949.21 L 110.432,-1949.47 L 110.382,-1949.73
 L 110.365,-1950 L 110.382,-1950.27 L 110.432,-1950.53 L 110.515,-1950.79 L 110.629,-1951.03 L 110.773,-1951.26
 L 110.943,-1951.46 L 111.139,-1951.65 L 111.356,-1951.8 L 111.591,-1951.93 L 111.84,-1952.03 L 112.1,-1952.1
 L 112.366,-1952.13 L 112.634,-1952.13 L 112.9,-1952.1 L 113.16,-1952.03 L 113.409,-1951.93 L 113.644,-1951.8
 L 113.861,-1951.65 L 114.057,-1951.46 L 114.227,-1951.26 L 114.371,-1951.03 L 114.485,-1950.79 L 114.568,-1950.53
 L 114.618,-1950.27 L 114.635,-1950 L 114.618,-1949.73 L 114.568,-1949.47 L 114.485,-1949.21 L 114.371,-1948.97
 L 114.227,-1948.74 L 114.057,-1948.54 L 113.861,-1948.35 L 113.644,-1948.2 L 113.409,-1948.07 L 113.16,-1947.97
 L 112.9,-1947.9 L 112.634,-1947.87 z
" stroke="black" fill="lightgray" stroke-width="0.5"/>
</svg>
