<?xml version="1.0" standalone="no"?>
<!DOCTYPE svg PUBLIC "-//W3C//DTD SVG 1.1//EN" "http://www.w3.org/Graphics/SVG/1.1/DTD/svg11.dtd">
<svg width="242mm" height="928mm" viewBox="-122 -1517 242 928" xmlns="http://www.w3.org/2000/svg" version="1.1">
<title>OpenSCAD Model</title>
<path d="
M -118.5,-1292.94 L -118.187,-1292.65 L -117.679,-1292.28 L -117.129,-1291.98 L -116.545,-1291.74 L -115.937,-1291.59
 L -115.314,-1291.51 L 115.314,-1291.51 L 115.937,-1291.59 L 116.545,-1291.74 L 117.129,-1291.98 L 117.679,-1292.28
 L 118.187,-1292.65 L 118.645,-1293.08 L 119.045,-1293.56 L 119.382,-1294.09 L 119.649,-1294.66 L 119.843,-1295.26
 L 119.961,-1295.87 L 120,-1296.5 L 120,-1511.5 L 119.961,-1512.13 L 119.843,-1512.74 L 119.649,-1513.34
 L 119.382,-1513.91 L 119.045,-1514.44 L 118.645,-1514.92 L 118.187,-1515.35 L 117.679,-1515.72 L 117.129,-1516.02
 L 116.545,-1516.26 L 115.937,-1516.41 L 115.314,-1516.49 L -115.314,-1516.49 L -115.937,-1516.41 L -116.545,-1516.26
 L -117.129,-1516.02 L -117.679,-1515.72 L -118.187,-1515.35 L -118.5,-1515.06 L -118.5,-1516.49 L -121.5,-1516.49
 L -121.5,-1291.51 L -118.5,-1291.51 z
M -114.751,-1293.01 L -115.25,-1293.07 L -115.736,-1293.2 L -116.203,-1293.38 L -116.643,-1293.62 L -117.05,-1293.92
 L -117.416,-1294.26 L -117.736,-1294.65 L -118.005,-1295.07 L -118.219,-1295.53 L -118.374,-1296.01 L -118.468,-1296.5
 L -118.5,-1297 L -118.5,-1511 L -118.468,-1511.5 L -118.374,-1511.99 L -118.219,-1512.47 L -118.005,-1512.93
 L -117.736,-1513.35 L -117.416,-1513.74 L -117.05,-1514.08 L -116.643,-1514.38 L -116.203,-1514.62 L -115.736,-1514.8
 L -115.25,-1514.93 L -114.751,-1514.99 L 114.751,-1514.99 L 115.25,-1514.93 L 115.736,-1514.8 L 116.203,-1514.62
 L 116.643,-1514.38 L 117.05,-1514.08 L 117.416,-1513.74 L 117.736,-1513.35 L 118.005,-1512.93 L 118.219,-1512.47
 L 118.374,-1511.99 L 118.468,-1511.5 L 118.5,-1511 L 118.5,-1297 L 118.468,-1296.5 L 118.374,-1296.01
 L 118.219,-1295.53 L 118.005,-1295.07 L 117.736,-1294.65 L 117.416,-1294.26 L 117.05,-1293.92 L 116.643,-1293.62
 L 116.203,-1293.38 L 115.736,-1293.2 L 115.25,-1293.07 L 114.751,-1293.01 z
M -118.5,-1058.94 L -118.187,-1058.65 L -117.679,-1058.28 L -117.129,-1057.98 L -116.545,-1057.74 L -115.937,-1057.59
 L -115.314,-1057.51 L 115.314,-1057.51 L 115.937,-1057.59 L 116.545,-1057.74 L 117.129,-1057.98 L 117.679,-1058.28
 L 118.187,-1058.65 L 118.645,-1059.08 L 119.045,-1059.56 L 119.382,-1060.09 L 119.649,-1060.66 L 119.843,-1061.26
 L 119.961,-1061.87 L 120,-1062.5 L 120,-1277.5 L 119.961,-1278.13 L 119.843,-1278.74 L 119.649,-1279.34
 L 119.382,-1279.91 L 119.045,-1280.44 L 118.645,-1280.92 L 118.187,-1281.35 L 117.679,-1281.72 L 117.129,-1282.02
 L 116.545,-1282.26 L 115.937,-1282.41 L 115.314,-1282.49 L -115.314,-1282.49 L -115.937,-1282.41 L -116.545,-1282.26
 L -117.129,-1282.02 L -117.679,-1281.72 L -118.187,-1281.35 L -118.5,-1281.06 L -118.5,-1282.49 L -121.5,-1282.49
 L -121.5,-1057.51 L -118.5,-1057.51 z
M -114.743,-1059.14 L -115.226,-1059.2 L -115.697,-1059.32 L -116.149,-1059.5 L -116.575,-1059.73 L -116.969,-1060.02
 L -117.323,-1060.35 L -117.633,-1060.72 L -117.894,-1061.13 L -118.101,-1061.57 L -118.251,-1062.04 L -118.342,-1062.51
 L -118.373,-1063 L -118.373,-1277 L -118.342,-1277.49 L -118.251,-1277.96 L -118.101,-1278.43 L -117.894,-1278.87
 L -117.633,-1279.28 L -117.323,-1279.65 L -116.969,-1279.98 L -116.575,-1280.27 L -116.149,-1280.5 L -115.697,-1280.68
 L -115.226,-1280.8 L -114.743,-1280.86 L 114.743,-1280.86 L 115.226,-1280.8 L 115.697,-1280.68 L 116.149,-1280.5
 L 116.575,-1280.27 L 116.969,-1279.98 L 117.323,-1279.65 L 117.633,-1279.28 L 117.894,-1278.87 L 118.101,-1278.43
 L 118.251,-1277.96 L 118.342,-1277.49 L 118.373,-1277 L 118.373,-1063 L 118.342,-1062.51 L 118.251,-1062.04
 L 118.101,-1061.57 L 117.894,-1061.13 L 117.633,-1060.72 L 117.323,-1060.35 L 116.969,-1060.02 L 116.575,-1059.73
 L 116.149,-1059.5 L 115.697,-1059.32 L 115.226,-1059.2 L 114.743,-1059.14 z
M 115.937,-823.589 L 116.545,-823.745 L 117.129,-823.976 L 117.679,-824.278 L 118.187,-824.647 L 118.645,-825.077
 L 119.045,-825.561 L 119.382,-826.091 L 119.649,-826.659 L 119.843,-827.257 L 119.961,-827.873 L 120,-828.5
 L 120,-1043.5 L 119.961,-1044.13 L 119.843,-1044.74 L 119.649,-1045.34 L 119.382,-1045.91 L 119.045,-1046.44
 L 118.645,-1046.92 L 118.187,-1047.35 L 117.679,-1047.72 L 117.129,-1048.02 L 116.545,-1048.26 L 115.937,-1048.41
 L 115.314,-1048.49 L -115.314,-1048.49 L -115.937,-1048.41 L -116.545,-1048.26 L -117.129,-1048.02 L -117.679,-1047.72
 L -118.187,-1047.35 L -118.5,-1047.06 L -118.5,-1048.11 L -121.5,-1048.11 L -121.5,-823.885 L -118.5,-823.885
 L -118.5,-824.941 L -118.187,-824.647 L -117.679,-824.278 L -117.129,-823.976 L -116.545,-823.745 L -115.937,-823.589
 L -115.314,-823.51 L 115.314,-823.51 z
M -112.651,-1038.6 L -112.95,-1038.64 L -113.242,-1038.72 L -113.522,-1038.83 L -113.786,-1038.97 L -114.03,-1039.15
 L -114.25,-1039.36 L -114.442,-1039.59 L -114.603,-1039.84 L -114.731,-1040.12 L -114.825,-1040.4 L -114.881,-1040.7
 L -114.9,-1041 L -114.881,-1041.3 L -114.825,-1041.6 L -114.731,-1041.88 L -114.603,-1042.16 L -114.442,-1042.41
 L -114.25,-1042.64 L -114.03,-1042.85 L -113.786,-1043.03 L -113.522,-1043.17 L -113.242,-1043.28 L -112.95,-1043.36
 L -112.651,-1043.4 L -112.349,-1043.4 L -112.05,-1043.36 L -111.758,-1043.28 L -111.478,-1043.17 L -111.214,-1043.03
 L -110.97,-1042.85 L -110.75,-1042.64 L -110.558,-1042.41 L -110.397,-1042.16 L -110.269,-1041.88 L -110.175,-1041.6
 L -110.119,-1041.3 L -110.1,-1041 L -110.119,-1040.7 L -110.175,-1040.4 L -110.269,-1040.12 L -110.397,-1039.84
 L -110.558,-1039.59 L -110.75,-1039.36 L -110.97,-1039.15 L -111.214,-1038.97 L -111.478,-1038.83 L -111.758,-1038.72
 L -112.05,-1038.64 L -112.349,-1038.6 z
M 112.349,-1038.6 L 112.05,-1038.64 L 111.758,-1038.72 L 111.478,-1038.83 L 111.214,-1038.97 L 110.97,-1039.15
 L 110.75,-1039.36 L 110.558,-1039.59 L 110.397,-1039.84 L 110.269,-1040.12 L 110.175,-1040.4 L 110.119,-1040.7
 L 110.1,-1041 L 110.119,-1041.3 L 110.175,-1041.6 L 110.269,-1041.88 L 110.397,-1042.16 L 110.558,-1042.41
 L 110.75,-1042.64 L 110.97,-1042.85 L 111.214,-1043.03 L 111.478,-1043.17 L 111.758,-1043.28 L 112.05,-1043.36
 L 112.349,-1043.4 L 112.651,-1043.4 L 112.95,-1043.36 L 113.242,-1043.28 L 113.522,-1043.17 L 113.786,-1043.03
 L 114.03,-1042.85 L 114.25,-1042.64 L 114.442,-1042.41 L 114.603,-1042.16 L 114.731,-1041.88 L 114.825,-1041.6
 L 114.881,-1041.3 L 114.9,-1041 L 114.881,-1040.7 L 114.825,-1040.4 L 114.731,-1040.12 L 114.603,-1039.84
 L 114.442,-1039.59 L 114.25,-1039.36 L 114.03,-1039.15 L 113.786,-1038.97 L 113.522,-1038.83 L 113.242,-1038.72
 L 112.95,-1038.64 L 112.651,-1038.6 z
M 112.349,-828.605 L 112.05,-828.643 L 111.758,-828.717 L 111.478,-828.828 L 111.214,-828.974 L 110.97,-829.151
 L 110.75,-829.357 L 110.558,-829.589 L 110.397,-829.844 L 110.269,-830.117 L 110.175,-830.403 L 110.119,-830.699
 L 110.1,-831 L 110.119,-831.301 L 110.175,-831.597 L 110.269,-831.883 L 110.397,-832.156 L 110.558,-832.411
 L 110.75,-832.643 L 110.97,-832.849 L 111.214,-833.026 L 111.478,-833.172 L 111.758,-833.283 L 112.05,-833.357
 L 112.349,-833.395 L 112.651,-833.395 L 112.95,-833.357 L 113.242,-833.283 L 113.522,-833.172 L 113.786,-833.026
 L 114.03,-832.849 L 114.25,-832.643 L 114.442,-832.411 L 114.603,-832.156 L 114.731,-831.883 L 114.825,-831.597
 L 114.881,-831.301 L 114.9,-831 L 114.881,-830.699 L 114.825,-830.403 L 114.731,-830.117 L 114.603,-829.844
 L 114.442,-829.589 L 114.25,-829.357 L 114.03,-829.151 L 113.786,-828.974 L 113.522,-828.828 L 113.242,-828.717
 L 112.95,-828.643 L 112.651,-828.605 z
M -112.651,-828.605 L -112.95,-828.643 L -113.242,-828.717 L -113.522,-828.828 L -113.786,-828.974 L -114.03,-829.151
 L -114.25,-829.357 L -114.442,-829.589 L -114.603,-829.844 L -114.731,-830.117 L -114.825,-830.403 L -114.881,-830.699
 L -114.9,-831 L -114.881,-831.301 L -114.825,-831.597 L -114.731,-831.883 L -114.603,-832.156 L -114.442,-832.411
 L -114.25,-832.643 L -114.03,-832.849 L -113.786,-833.026 L -113.522,-833.172 L -113.242,-833.283 L -112.95,-833.357
 L -112.651,-833.395 L -112.349,-833.395 L -112.05,-833.357 L -111.758,-833.283 L -111.478,-833.172 L -111.214,-833.026
 L -110.97,-832.849 L -110.75,-832.643 L -110.558,-832.411 L -110.397,-832.156 L -110.269,-831.883 L -110.175,-831.597
 L -110.119,-831.301 L -110.1,-831 L -110.119,-830.699 L -110.175,-830.403 L -110.269,-830.117 L -110.397,-829.844
 L -110.558,-829.589 L -110.75,-829.357 L -110.97,-829.151 L -111.214,-828.974 L -111.478,-828.828 L -111.758,-828.717
 L -112.05,-828.643 L -112.349,-828.605 z
M 115.937,-589.589 L 116.545,-589.745 L 117.129,-589.976 L 117.679,-590.278 L 118.187,-590.647 L 118.645,-591.077
 L 119.045,-591.561 L 119.382,-592.091 L 119.649,-592.659 L 119.843,-593.257 L 119.961,-593.873 L 120,-594.5
 L 120,-809.5 L 119.961,-810.127 L 119.843,-810.743 L 119.649,-811.341 L 119.382,-811.909 L 119.045,-812.439
 L 118.645,-812.923 L 118.187,-813.353 L 117.679,-813.722 L 117.129,-814.024 L 116.545,-814.255 L 115.937,-814.411
 L 115.314,-814.49 L -115.314,-814.49 L -115.937,-814.411 L -116.545,-814.255 L -117.129,-814.024 L -117.679,-813.722
 L -118.187,-813.353 L -118.645,-812.923 L -119.045,-812.439 L -119.382,-811.909 L -119.649,-811.341 L -119.843,-810.743
 L -119.9,-810.444 L -121.5,-810.444 L -121.5,-593.556 L -119.9,-593.556 L -119.843,-593.257 L -119.649,-592.659
 L -119.382,-592.091 L -119.045,-591.561 L -118.645,-591.077 L -118.187,-590.647 L -117.679,-590.278 L -117.129,-589.976
 L -116.545,-589.745 L -115.937,-589.589 L -115.314,-589.51 L 115.314,-589.51 z
M 112.387,-805.204 L 112.163,-805.232 L 111.944,-805.288 L 111.734,-805.371 L 111.536,-805.48 L 111.353,-805.613
 L 111.188,-805.768 L 111.044,-805.942 L 110.923,-806.133 L 110.826,-806.337 L 110.757,-806.552 L 110.714,-806.774
 L 110.7,-807 L 110.714,-807.226 L 110.757,-807.448 L 110.826,-807.663 L 110.923,-807.867 L 111.044,-808.058
 L 111.188,-808.232 L 111.353,-808.387 L 111.536,-808.52 L 111.734,-808.629 L 111.944,-808.712 L 112.163,-808.768
 L 112.387,-808.796 L 112.613,-808.796 L 112.837,-808.768 L 113.056,-808.712 L 113.266,-808.629 L 113.464,-808.52
 L 113.647,-808.387 L 113.812,-808.232 L 113.956,-808.058 L 114.077,-807.867 L 114.174,-807.663 L 114.243,-807.448
 L 114.286,-807.226 L 114.3,-807 L 114.286,-806.774 L 114.243,-806.552 L 114.174,-806.337 L 114.077,-806.133
 L 113.956,-805.942 L 113.812,-805.768 L 113.647,-805.613 L 113.464,-805.48 L 113.266,-805.371 L 113.056,-805.288
 L 112.837,-805.232 L 112.613,-805.204 z
M -112.613,-805.204 L -112.837,-805.232 L -113.056,-805.288 L -113.266,-805.371 L -113.464,-805.48 L -113.647,-805.613
 L -113.812,-805.768 L -113.956,-805.942 L -114.077,-806.133 L -114.174,-806.337 L -114.243,-806.552 L -114.286,-806.774
 L -114.3,-807 L -114.286,-807.226 L -114.243,-807.448 L -114.174,-807.663 L -114.077,-807.867 L -113.956,-808.058
 L -113.812,-808.232 L -113.647,-808.387 L -113.464,-808.52 L -113.266,-808.629 L -113.056,-808.712 L -112.837,-808.768
 L -112.613,-808.796 L -112.387,-808.796 L -112.163,-808.768 L -111.944,-808.712 L -111.734,-808.629 L -111.536,-808.52
 L -111.353,-808.387 L -111.188,-808.232 L -111.044,-808.058 L -110.923,-807.867 L -110.826,-807.663 L -110.757,-807.448
 L -110.714,-807.226 L -110.7,-807 L -110.714,-806.774 L -110.757,-806.552 L -110.826,-806.337 L -110.923,-806.133
 L -111.044,-805.942 L -111.188,-805.768 L -111.353,-805.613 L -111.536,-805.48 L -111.734,-805.371 L -111.944,-805.288
 L -112.163,-805.232 L -112.387,-805.204 z
M -112.613,-595.204 L -112.837,-595.232 L -113.056,-595.288 L -113.266,-595.371 L -113.464,-595.48 L -113.647,-595.613
 L -113.812,-595.768 L -113.956,-595.942 L -114.077,-596.133 L -114.174,-596.337 L -114.243,-596.552 L -114.286,-596.774
 L -114.3,-597 L -114.286,-597.226 L -114.243,-597.448 L -114.174,-597.663 L -114.077,-597.867 L -113.956,-598.058
 L -113.812,-598.232 L -113.647,-598.387 L -113.464,-598.52 L -113.266,-598.629 L -113.056,-598.712 L -112.837,-598.768
 L -112.613,-598.796 L -112.387,-598.796 L -112.163,-598.768 L -111.944,-598.712 L -111.734,-598.629 L -111.536,-598.52
 L -111.353,-598.387 L -111.188,-598.232 L -111.044,-598.058 L -110.923,-597.867 L -110.826,-597.663 L -110.757,-597.448
 L -110.714,-597.226 L -110.7,-597 L -110.714,-596.774 L -110.757,-596.552 L -110.826,-596.337 L -110.923,-596.133
 L -111.044,-595.942 L -111.188,-595.768 L -111.353,-595.613 L -111.536,-595.48 L -111.734,-595.371 L -111.944,-595.288
 L -112.163,-595.232 L -112.387,-595.204 z
M 112.387,-595.204 L 112.163,-595.232 L 111.944,-595.288 L 111.734,-595.371 L 111.536,-595.48 L 111.353,-595.613
 L 111.188,-595.768 L 111.044,-595.942 L 110.923,-596.133 L 110.826,-596.337 L 110.757,-596.552 L 110.714,-596.774
 L 110.7,-597 L 110.714,-597.226 L 110.757,-597.448 L 110.826,-597.663 L 110.923,-597.867 L 111.044,-598.058
 L 111.188,-598.232 L 111.353,-598.387 L 111.536,-598.52 L 111.734,-598.629 L 111.944,-598.712 L 112.163,-598.768
 L 112.387,-598.796 L 112.613,-598.796 L 112.837,-598.768 L 113.056,-598.712 L 113.266,-598.629 L 113.464,-598.52
 L 113.647,-598.387 L 113.812,-598.232 L 113.956,-598.058 L 114.077,-597.867 L 114.174,-597.663 L 114.243,-597.448
 L 114.286,-597.226 L 114.3,-597 L 114.286,-596.774 L 114.243,-596.552 L 114.174,-596.337 L 114.077,-596.133
 L 113.956,-595.942 L 113.812,-595.768 L 113.647,-595.613 L 113.464,-595.48 L 113.266,-595.371 L 113.056,-595.288
 L 112.837,-595.232 L 112.613,-595.204 z
" stroke="black" fill="lightgray" stroke-width="0.5"/>
</svg>
