<?xml version="1.0" standalone="no"?>
<!DOCTYPE svg PUBLIC "-//W3C//DTD SVG 1.1//EN" "http://www.w3.org/Graphics/SVG/1.1/DTD/svg11.dtd">
<svg width="287mm" height="468mm" viewBox="-144 -870 287 468" xmlns="http://www.w3.org/2000/svg" version="1.1">
<title>OpenSCAD Model</title>
<path d="
M -141,-721.441 L -140.687,-721.147 L -140.179,-720.778 L -139.629,-720.476 L -139.045,-720.245 L -138.437,-720.089
 L -137.814,-720.01 L 137.814,-720.01 L 138.437,-720.089 L 139.045,-720.245 L 139.629,-720.476 L 140.179,-720.778
 L 140.687,-721.147 L 141.145,-721.577 L 141.545,-722.061 L 141.882,-722.591 L 142.149,-723.159 L 142.343,-723.757
 L 142.461,-724.373 L 142.5,-725 L 142.5,-865 L 142.461,-865.627 L 142.343,-866.243 L 142.149,-866.841
 L 141.882,-867.409 L 141.545,-867.939 L 141.145,-868.423 L 140.687,-868.853 L 140.179,-869.222 L 139.629,-869.524
 L 139.045,-869.755 L 138.437,-869.911 L 137.814,-869.99 L -137.814,-869.99 L -138.437,-869.911 L -139.045,-869.755
 L -139.629,-869.524 L -140.179,-869.222 L -140.687,-868.853 L -141,-868.559 L -141,-869.99 L -144,-869.99
 L -144,-720.01 L -141,-720.01 z
M -137.251,-721.508 L -137.75,-721.571 L -138.236,-721.696 L -138.703,-721.881 L -139.143,-722.123 L -139.55,-722.418
 L -139.916,-722.762 L -140.236,-723.149 L -140.505,-723.573 L -140.719,-724.028 L -140.874,-724.505 L -140.968,-724.999
 L -141,-725.5 L -141,-864.5 L -140.968,-865.001 L -140.874,-865.495 L -140.719,-865.972 L -140.505,-866.427
 L -140.236,-866.851 L -139.916,-867.238 L -139.55,-867.582 L -139.143,-867.877 L -138.703,-868.119 L -138.236,-868.304
 L -137.75,-868.429 L -137.251,-868.492 L 137.251,-868.492 L 137.75,-868.429 L 138.236,-868.304 L 138.703,-868.119
 L 139.143,-867.877 L 139.55,-867.582 L 139.916,-867.238 L 140.236,-866.851 L 140.505,-866.427 L 140.719,-865.972
 L 140.874,-865.495 L 140.968,-865.001 L 141,-864.5 L 141,-725.5 L 140.968,-724.999 L 140.874,-724.505
 L 140.719,-724.028 L 140.505,-723.573 L 140.236,-723.149 L 139.916,-722.762 L 139.55,-722.418 L 139.143,-722.123
 L 138.703,-721.881 L 138.236,-721.696 L 137.75,-721.571 L 137.251,-721.508 z
M 138.437,-561.089 L 139.045,-561.245 L 139.629,-561.476 L 140.179,-561.778 L 140.687,-562.147 L 141.145,-562.577
 L 141.545,-563.061 L 141.882,-563.591 L 142.149,-564.159 L 142.343,-564.757 L 142.461,-565.373 L 142.5,-566
 L 142.5,-706 L 142.461,-706.627 L 142.343,-707.243 L 142.149,-707.841 L 141.882,-708.409 L 141.545,-708.939
 L 141.145,-709.423 L 140.687,-709.853 L 140.179,-710.222 L 139.629,-710.524 L 139.045,-710.755 L 138.437,-710.911
 L 137.814,-710.99 L -137.814,-710.99 L -138.437,-710.911 L -139.045,-710.755 L -139.629,-710.524 L -140.179,-710.222
 L -140.687,-709.853 L -141,-709.559 L -141,-710.979 L -144,-710.979 L -144,-561.021 L -141,-561.021
 L -141,-562.441 L -140.687,-562.147 L -140.179,-561.778 L -139.629,-561.476 L -139.045,-561.245 L -138.437,-561.089
 L -137.814,-561.01 L 137.814,-561.01 z
M -137.195,-563.393 L -137.583,-563.442 L -137.962,-563.539 L -138.325,-563.683 L -138.668,-563.872 L -138.984,-564.101
 L -139.269,-564.369 L -139.518,-564.67 L -139.728,-565 L -139.894,-565.354 L -140.015,-565.726 L -140.088,-566.11
 L -140.113,-566.5 L -140.113,-705.5 L -140.088,-705.89 L -140.015,-706.274 L -139.894,-706.646 L -139.728,-707
 L -139.518,-707.33 L -139.269,-707.631 L -138.984,-707.899 L -138.668,-708.128 L -138.325,-708.317 L -137.962,-708.461
 L -137.583,-708.558 L -137.195,-708.607 L 137.195,-708.607 L 137.583,-708.558 L 137.962,-708.461 L 138.325,-708.317
 L 138.668,-708.128 L 138.984,-707.899 L 139.269,-707.631 L 139.518,-707.33 L 139.728,-707 L 139.894,-706.646
 L 140.015,-706.274 L 140.088,-705.89 L 140.113,-705.5 L 140.113,-566.5 L 140.088,-566.11 L 140.015,-565.726
 L 139.894,-565.354 L 139.728,-565 L 139.518,-564.67 L 139.269,-564.369 L 138.984,-564.101 L 138.668,-563.872
 L 138.325,-563.683 L 137.962,-563.539 L 137.583,-563.442 L 137.195,-563.393 z
M 138.437,-402.089 L 139.045,-402.245 L 139.629,-402.476 L 140.179,-402.778 L 140.687,-403.147 L 141.145,-403.577
 L 141.545,-404.061 L 141.882,-404.591 L 142.149,-405.159 L 142.343,-405.757 L 142.461,-406.373 L 142.5,-407
 L 142.5,-547 L 142.461,-547.627 L 142.343,-548.243 L 142.149,-548.841 L 141.882,-549.409 L 141.545,-549.939
 L 141.145,-550.423 L 140.687,-550.853 L 140.179,-551.222 L 139.629,-551.524 L 139.045,-551.755 L 138.437,-551.911
 L 137.814,-551.99 L -137.814,-551.99 L -138.437,-551.911 L -139.045,-551.755 L -139.629,-551.524 L -140.179,-551.222
 L -140.687,-550.853 L -141,-550.559 L -141,-550.653 L -144,-550.653 L -144,-403.347 L -141,-403.347
 L -141,-403.441 L -140.687,-403.147 L -140.179,-402.778 L -139.629,-402.476 L -139.045,-402.245 L -138.437,-402.089
 L -137.814,-402.01 L 137.814,-402.01 z
M 134.866,-542.369 L 134.6,-542.403 L 134.34,-542.469 L 134.091,-542.568 L 133.856,-542.697 L 133.639,-542.855
 L 133.443,-543.038 L 133.273,-543.245 L 133.129,-543.471 L 133.015,-543.714 L 132.932,-543.969 L 132.882,-544.232
 L 132.865,-544.5 L 132.882,-544.768 L 132.932,-545.031 L 133.015,-545.286 L 133.129,-545.529 L 133.273,-545.755
 L 133.443,-545.962 L 133.639,-546.145 L 133.856,-546.303 L 134.091,-546.432 L 134.34,-546.531 L 134.6,-546.597
 L 134.866,-546.631 L 135.134,-546.631 L 135.4,-546.597 L 135.66,-546.531 L 135.909,-546.432 L 136.144,-546.303
 L 136.361,-546.145 L 136.557,-545.962 L 136.727,-545.755 L 136.871,-545.529 L 136.985,-545.286 L 137.068,-545.031
 L 137.118,-544.768 L 137.135,-544.5 L 137.118,-544.232 L 137.068,-543.969 L 136.985,-543.714 L 136.871,-543.471
 L 136.727,-543.245 L 136.557,-543.038 L 136.361,-542.855 L 136.144,-542.697 L 135.909,-542.568 L 135.66,-542.469
 L 135.4,-542.403 L 135.134,-542.369 z
M -135.134,-542.369 L -135.4,-542.403 L -135.66,-542.469 L -135.909,-542.568 L -136.144,-542.697 L -136.361,-542.855
 L -136.557,-543.038 L -136.727,-543.245 L -136.871,-543.471 L -136.985,-543.714 L -137.068,-543.969 L -137.118,-544.232
 L -137.135,-544.5 L -137.118,-544.768 L -137.068,-545.031 L -136.985,-545.286 L -136.871,-545.529 L -136.727,-545.755
 L -136.557,-545.962 L -136.361,-546.145 L -136.144,-546.303 L -135.909,-546.432 L -135.66,-546.531 L -135.4,-546.597
 L -135.134,-546.631 L -134.866,-546.631 L -134.6,-546.597 L -134.34,-546.531 L -134.091,-546.432 L -133.856,-546.303
 L -133.639,-546.145 L -133.443,-545.962 L -133.273,-545.755 L -133.129,-545.529 L -133.015,-545.286 L -132.932,-545.031
 L -132.882,-544.768 L -132.865,-544.5 L -132.882,-544.232 L -132.932,-543.969 L -133.015,-543.714 L -133.129,-543.471
 L -133.273,-543.245 L -133.443,-543.038 L -133.639,-542.855 L -133.856,-542.697 L -134.091,-542.568 L -134.34,-542.469
 L -134.6,-542.403 L -134.866,-542.369 z
M 134.866,-407.369 L 134.6,-407.403 L 134.34,-407.469 L 134.091,-407.568 L 133.856,-407.697 L 133.639,-407.855
 L 133.443,-408.038 L 133.273,-408.245 L 133.129,-408.471 L 133.015,-408.714 L 132.932,-408.969 L 132.882,-409.232
 L 132.865,-409.5 L 132.882,-409.768 L 132.932,-410.031 L 133.015,-410.286 L 133.129,-410.529 L 133.273,-410.755
 L 133.443,-410.962 L 133.639,-411.145 L 133.856,-411.303 L 134.091,-411.432 L 134.34,-411.531 L 134.6,-411.597
 L 134.866,-411.631 L 135.134,-411.631 L 135.4,-411.597 L 135.66,-411.531 L 135.909,-411.432 L 136.144,-411.303
 L 136.361,-411.145 L 136.557,-410.962 L 136.727,-410.755 L 136.871,-410.529 L 136.985,-410.286 L 137.068,-410.031
 L 137.118,-409.768 L 137.135,-409.5 L 137.118,-409.232 L 137.068,-408.969 L 136.985,-408.714 L 136.871,-408.471
 L 136.727,-408.245 L 136.557,-408.038 L 136.361,-407.855 L 136.144,-407.697 L 135.909,-407.568 L 135.66,-407.469
 L 135.4,-407.403 L 135.134,-407.369 z
M -135.134,-407.369 L -135.4,-407.403 L -135.66,-407.469 L -135.909,-407.568 L -136.144,-407.697 L -136.361,-407.855
 L -136.557,-408.038 L -136.727,-408.245 L -136.871,-408.471 L -136.985,-408.714 L -137.068,-408.969 L -137.118,-409.232
 L -137.135,-409.5 L -137.118,-409.768 L -137.068,-410.031 L -136.985,-410.286 L -136.871,-410.529 L -136.727,-410.755
 L -136.557,-410.962 L -136.361,-411.145 L -136.144,-411.303 L -135.909,-411.432 L -135.66,-411.531 L -135.4,-411.597
 L -135.134,-411.631 L -134.866,-411.631 L -134.6,-411.597 L -134.34,-411.531 L -134.091,-411.432 L -133.856,-411.303
 L -133.639,-411.145 L -133.443,-410.962 L -133.273,-410.755 L -133.129,-410.529 L -133.015,-410.286 L -132.932,-410.031
 L -132.882,-409.768 L -132.865,-409.5 L -132.882,-409.232 L -132.932,-408.969 L -133.015,-408.714 L -133.129,-408.471
 L -133.273,-408.245 L -133.443,-408.038 L -133.639,-407.855 L -133.856,-407.697 L -134.091,-407.568 L -134.34,-407.469
 L -134.6,-407.403 L -134.866,-407.369 z
" stroke="black" fill="lightgray" stroke-width="0.5"/>
</svg>
