  0
SECTION
  2
BLOCKS
  0
ENDSEC
  0
SECTION
  2
ENTITIES
  0
LINE
  8
0
 10
123.437
 20
288.089
 11
124.045
 21
288.245
  0
LINE
  8
0
 10
124.045
 20
288.245
 11
124.629
 21
288.476
  0
LINE
  8
0
 10
124.629
 20
288.476
 11
125.179
 21
288.778
  0
LINE
  8
0
 10
125.179
 20
288.778
 11
125.687
 21
289.147
  0
LINE
  8
0
 10
125.687
 20
289.147
 11
126.145
 21
289.577
  0
LINE
  8
0
 10
126.145
 20
289.577
 11
126.545
 21
290.061
  0
LINE
  8
0
 10
126.545
 20
290.061
 11
126.882
 21
290.591
  0
LINE
  8
0
 10
126.882
 20
290.591
 11
127.149
 21
291.159
  0
LINE
  8
0
 10
127.149
 20
291.159
 11
127.343
 21
291.757
  0
LINE
  8
0
 10
127.343
 20
291.757
 11
127.461
 21
292.373
  0
LINE
  8
0
 10
127.461
 20
292.373
 11
127.5
 21
293
  0
LINE
  8
0
 10
127.5
 20
293
 11
127.5
 21
463
  0
LINE
  8
0
 10
127.5
 20
463
 11
127.461
 21
463.627
  0
LINE
  8
0
 10
127.461
 20
463.627
 11
127.343
 21
464.243
  0
LINE
  8
0
 10
127.343
 20
464.243
 11
127.149
 21
464.841
  0
LINE
  8
0
 10
127.149
 20
464.841
 11
126.882
 21
465.409
  0
LINE
  8
0
 10
126.882
 20
465.409
 11
126.545
 21
465.939
  0
LINE
  8
0
 10
126.545
 20
465.939
 11
126.145
 21
466.423
  0
LINE
  8
0
 10
126.145
 20
466.423
 11
125.687
 21
466.853
  0
LINE
  8
0
 10
125.687
 20
466.853
 11
125.179
 21
467.222
  0
LINE
  8
0
 10
125.179
 20
467.222
 11
124.629
 21
467.524
  0
LINE
  8
0
 10
124.629
 20
467.524
 11
124.045
 21
467.755
  0
LINE
  8
0
 10
124.045
 20
467.755
 11
123.437
 21
467.911
  0
LINE
  8
0
 10
123.437
 20
467.911
 11
122.814
 21
467.99
  0
LINE
  8
0
 10
122.814
 20
467.99
 11
-122.814
 21
467.99
  0
LINE
  8
0
 10
-122.814
 20
467.99
 11
-123.437
 21
467.911
  0
LINE
  8
0
 10
-123.437
 20
467.911
 11
-124.045
 21
467.755
  0
LINE
  8
0
 10
-124.045
 20
467.755
 11
-124.629
 21
467.524
  0
LINE
  8
0
 10
-124.629
 20
467.524
 11
-125.179
 21
467.222
  0
LINE
  8
0
 10
-125.179
 20
467.222
 11
-125.687
 21
466.853
  0
LINE
  8
0
 10
-125.687
 20
466.853
 11
-126.145
 21
466.423
  0
LINE
  8
0
 10
-126.145
 20
466.423
 11
-126.545
 21
465.939
  0
LINE
  8
0
 10
-126.545
 20
465.939
 11
-126.882
 21
465.409
  0
LINE
  8
0
 10
-126.882
 20
465.409
 11
-127.149
 21
464.841
  0
LINE
  8
0
 10
-127.149
 20
464.841
 11
-127.343
 21
464.243
  0
LINE
  8
0
 10
-127.343
 20
464.243
 11
-127.461
 21
463.627
  0
LINE
  8
0
 10
-127.461
 20
463.627
 11
-127.5
 21
463
  0
LINE
  8
0
 10
-127.5
 20
463
 11
-127.5
 21
293
  0
LINE
  8
0
 10
-127.5
 20
293
 11
-127.461
 21
292.373
  0
LINE
  8
0
 10
-127.461
 20
292.373
 11
-127.343
 21
291.757
  0
LINE
  8
0
 10
-127.343
 20
291.757
 11
-127.149
 21
291.159
  0
LINE
  8
0
 10
-127.149
 20
291.159
 11
-126.882
 21
290.591
  0
LINE
  8
0
 10
-126.882
 20
290.591
 11
-126.545
 21
290.061
  0
LINE
  8
0
 10
-126.545
 20
290.061
 11
-126.145
 21
289.577
  0
LINE
  8
0
 10
-126.145
 20
289.577
 11
-125.687
 21
289.147
  0
LINE
  8
0
 10
-125.687
 20
289.147
 11
-125.179
 21
288.778
  0
LINE
  8
0
 10
-125.179
 20
288.778
 11
-124.629
 21
288.476
  0
LINE
  8
0
 10
-124.629
 20
288.476
 11
-124.045
 21
288.245
  0
LINE
  8
0
 10
-124.045
 20
288.245
 11
-123.437
 21
288.089
  0
LINE
  8
0
 10
-123.437
 20
288.089
 11
-122.814
 21
288.01
  0
LINE
  8
0
 10
-122.814
 20
288.01
 11
122.814
 21
288.01
  0
LINE
  8
0
 10
122.814
 20
288.01
 11
123.437
 21
288.089
  0
LINE
  8
0
 10
-122.493
 20
289.388
 11
-122.975
 21
289.449
  0
LINE
  8
0
 10
-122.975
 20
289.449
 11
-123.446
 21
289.57
  0
LINE
  8
0
 10
-123.446
 20
289.57
 11
-123.898
 21
289.749
  0
LINE
  8
0
 10
-123.898
 20
289.749
 11
-124.323
 21
289.983
  0
LINE
  8
0
 10
-124.323
 20
289.983
 11
-124.716
 21
290.269
  0
LINE
  8
0
 10
-124.716
 20
290.269
 11
-125.071
 21
290.601
  0
LINE
  8
0
 10
-125.071
 20
290.601
 11
-125.38
 21
290.976
  0
LINE
  8
0
 10
-125.38
 20
290.976
 11
-125.641
 21
291.386
  0
LINE
  8
0
 10
-125.641
 20
291.386
 11
-125.848
 21
291.826
  0
LINE
  8
0
 10
-125.848
 20
291.826
 11
-125.998
 21
292.288
  0
LINE
  8
0
 10
-125.998
 20
292.288
 11
-126.089
 21
292.765
  0
LINE
  8
0
 10
-126.089
 20
292.765
 11
-126.119
 21
293.25
  0
LINE
  8
0
 10
-126.119
 20
293.25
 11
-126.119
 21
462.75
  0
LINE
  8
0
 10
-126.119
 20
462.75
 11
-126.089
 21
463.235
  0
LINE
  8
0
 10
-126.089
 20
463.235
 11
-125.998
 21
463.712
  0
LINE
  8
0
 10
-125.998
 20
463.712
 11
-125.848
 21
464.174
  0
LINE
  8
0
 10
-125.848
 20
464.174
 11
-125.641
 21
464.614
  0
LINE
  8
0
 10
-125.641
 20
464.614
 11
-125.38
 21
465.024
  0
LINE
  8
0
 10
-125.38
 20
465.024
 11
-125.071
 21
465.399
  0
LINE
  8
0
 10
-125.071
 20
465.399
 11
-124.716
 21
465.731
  0
LINE
  8
0
 10
-124.716
 20
465.731
 11
-124.323
 21
466.017
  0
LINE
  8
0
 10
-124.323
 20
466.017
 11
-123.898
 21
466.251
  0
LINE
  8
0
 10
-123.898
 20
466.251
 11
-123.446
 21
466.43
  0
LINE
  8
0
 10
-123.446
 20
466.43
 11
-122.975
 21
466.551
  0
LINE
  8
0
 10
-122.975
 20
466.551
 11
-122.493
 21
466.612
  0
LINE
  8
0
 10
-122.493
 20
466.612
 11
122.493
 21
466.612
  0
LINE
  8
0
 10
122.493
 20
466.612
 11
122.975
 21
466.551
  0
LINE
  8
0
 10
122.975
 20
466.551
 11
123.446
 21
466.43
  0
LINE
  8
0
 10
123.446
 20
466.43
 11
123.898
 21
466.251
  0
LINE
  8
0
 10
123.898
 20
466.251
 11
124.323
 21
466.017
  0
LINE
  8
0
 10
124.323
 20
466.017
 11
124.716
 21
465.731
  0
LINE
  8
0
 10
124.716
 20
465.731
 11
125.071
 21
465.399
  0
LINE
  8
0
 10
125.071
 20
465.399
 11
125.38
 21
465.024
  0
LINE
  8
0
 10
125.38
 20
465.024
 11
125.641
 21
464.614
  0
LINE
  8
0
 10
125.641
 20
464.614
 11
125.848
 21
464.174
  0
LINE
  8
0
 10
125.848
 20
464.174
 11
125.998
 21
463.712
  0
LINE
  8
0
 10
125.998
 20
463.712
 11
126.089
 21
463.235
  0
LINE
  8
0
 10
126.089
 20
463.235
 11
126.119
 21
462.75
  0
LINE
  8
0
 10
126.119
 20
462.75
 11
126.119
 21
293.25
  0
LINE
  8
0
 10
126.119
 20
293.25
 11
126.089
 21
292.765
  0
LINE
  8
0
 10
126.089
 20
292.765
 11
125.998
 21
292.288
  0
LINE
  8
0
 10
125.998
 20
292.288
 11
125.848
 21
291.826
  0
LINE
  8
0
 10
125.848
 20
291.826
 11
125.641
 21
291.386
  0
LINE
  8
0
 10
125.641
 20
291.386
 11
125.38
 21
290.976
  0
LINE
  8
0
 10
125.38
 20
290.976
 11
125.071
 21
290.601
  0
LINE
  8
0
 10
125.071
 20
290.601
 11
124.716
 21
290.269
  0
LINE
  8
0
 10
124.716
 20
290.269
 11
124.323
 21
289.983
  0
LINE
  8
0
 10
124.323
 20
289.983
 11
123.898
 21
289.749
  0
LINE
  8
0
 10
123.898
 20
289.749
 11
123.446
 21
289.57
  0
LINE
  8
0
 10
123.446
 20
289.57
 11
122.975
 21
289.449
  0
LINE
  8
0
 10
122.975
 20
289.449
 11
122.493
 21
289.388
  0
LINE
  8
0
 10
122.493
 20
289.388
 11
-122.493
 21
289.388
  0
LINE
  8
0
 10
123.437
 20
99.0886
 11
124.045
 21
99.2447
  0
LINE
  8
0
 10
124.045
 20
99.2447
 11
124.629
 21
99.4759
  0
LINE
  8
0
 10
124.629
 20
99.4759
 11
125.179
 21
99.7784
  0
LINE
  8
0
 10
125.179
 20
99.7784
 11
125.687
 21
100.147
  0
LINE
  8
0
 10
125.687
 20
100.147
 11
126.145
 21
100.577
  0
LINE
  8
0
 10
126.145
 20
100.577
 11
126.545
 21
101.061
  0
LINE
  8
0
 10
126.545
 20
101.061
 11
126.882
 21
101.591
  0
LINE
  8
0
 10
126.882
 20
101.591
 11
127.149
 21
102.159
  0
LINE
  8
0
 10
127.149
 20
102.159
 11
127.343
 21
102.757
  0
LINE
  8
0
 10
127.343
 20
102.757
 11
127.461
 21
103.373
  0
LINE
  8
0
 10
127.461
 20
103.373
 11
127.5
 21
104
  0
LINE
  8
0
 10
127.5
 20
104
 11
127.5
 21
274
  0
LINE
  8
0
 10
127.5
 20
274
 11
127.461
 21
274.627
  0
LINE
  8
0
 10
127.461
 20
274.627
 11
127.343
 21
275.243
  0
LINE
  8
0
 10
127.343
 20
275.243
 11
127.149
 21
275.841
  0
LINE
  8
0
 10
127.149
 20
275.841
 11
126.882
 21
276.409
  0
LINE
  8
0
 10
126.882
 20
276.409
 11
126.545
 21
276.939
  0
LINE
  8
0
 10
126.545
 20
276.939
 11
126.145
 21
277.423
  0
LINE
  8
0
 10
126.145
 20
277.423
 11
125.687
 21
277.853
  0
LINE
  8
0
 10
125.687
 20
277.853
 11
125.179
 21
278.222
  0
LINE
  8
0
 10
125.179
 20
278.222
 11
124.629
 21
278.524
  0
LINE
  8
0
 10
124.629
 20
278.524
 11
124.045
 21
278.755
  0
LINE
  8
0
 10
124.045
 20
278.755
 11
123.437
 21
278.911
  0
LINE
  8
0
 10
123.437
 20
278.911
 11
122.814
 21
278.99
  0
LINE
  8
0
 10
122.814
 20
278.99
 11
-122.814
 21
278.99
  0
LINE
  8
0
 10
-122.814
 20
278.99
 11
-123.437
 21
278.911
  0
LINE
  8
0
 10
-123.437
 20
278.911
 11
-124.045
 21
278.755
  0
LINE
  8
0
 10
-124.045
 20
278.755
 11
-124.629
 21
278.524
  0
LINE
  8
0
 10
-124.629
 20
278.524
 11
-125.179
 21
278.222
  0
LINE
  8
0
 10
-125.179
 20
278.222
 11
-125.687
 21
277.853
  0
LINE
  8
0
 10
-125.687
 20
277.853
 11
-126.145
 21
277.423
  0
LINE
  8
0
 10
-126.145
 20
277.423
 11
-126.545
 21
276.939
  0
LINE
  8
0
 10
-126.545
 20
276.939
 11
-126.882
 21
276.409
  0
LINE
  8
0
 10
-126.882
 20
276.409
 11
-127.149
 21
275.841
  0
LINE
  8
0
 10
-127.149
 20
275.841
 11
-127.343
 21
275.243
  0
LINE
  8
0
 10
-127.343
 20
275.243
 11
-127.461
 21
274.627
  0
LINE
  8
0
 10
-127.461
 20
274.627
 11
-127.5
 21
274
  0
LINE
  8
0
 10
-127.5
 20
274
 11
-127.5
 21
104
  0
LINE
  8
0
 10
-127.5
 20
104
 11
-127.461
 21
103.373
  0
LINE
  8
0
 10
-127.461
 20
103.373
 11
-127.343
 21
102.757
  0
LINE
  8
0
 10
-127.343
 20
102.757
 11
-127.149
 21
102.159
  0
LINE
  8
0
 10
-127.149
 20
102.159
 11
-126.882
 21
101.591
  0
LINE
  8
0
 10
-126.882
 20
101.591
 11
-126.545
 21
101.061
  0
LINE
  8
0
 10
-126.545
 20
101.061
 11
-126.145
 21
100.577
  0
LINE
  8
0
 10
-126.145
 20
100.577
 11
-125.687
 21
100.147
  0
LINE
  8
0
 10
-125.687
 20
100.147
 11
-125.179
 21
99.7784
  0
LINE
  8
0
 10
-125.179
 20
99.7784
 11
-124.629
 21
99.4759
  0
LINE
  8
0
 10
-124.629
 20
99.4759
 11
-124.045
 21
99.2447
  0
LINE
  8
0
 10
-124.045
 20
99.2447
 11
-123.437
 21
99.0886
  0
LINE
  8
0
 10
-123.437
 20
99.0886
 11
-122.814
 21
99.0099
  0
LINE
  8
0
 10
-122.814
 20
99.0099
 11
122.814
 21
99.0099
  0
LINE
  8
0
 10
122.814
 20
99.0099
 11
123.437
 21
99.0886
  0
LINE
  8
0
 10
119.887
 20
269.704
 11
119.663
 21
269.732
  0
LINE
  8
0
 10
119.663
 20
269.732
 11
119.444
 21
269.788
  0
LINE
  8
0
 10
119.444
 20
269.788
 11
119.234
 21
269.871
  0
LINE
  8
0
 10
119.234
 20
269.871
 11
119.036
 21
269.98
  0
LINE
  8
0
 10
119.036
 20
269.98
 11
118.853
 21
270.113
  0
LINE
  8
0
 10
118.853
 20
270.113
 11
118.688
 21
270.268
  0
LINE
  8
0
 10
118.688
 20
270.268
 11
118.544
 21
270.442
  0
LINE
  8
0
 10
118.544
 20
270.442
 11
118.423
 21
270.633
  0
LINE
  8
0
 10
118.423
 20
270.633
 11
118.326
 21
270.837
  0
LINE
  8
0
 10
118.326
 20
270.837
 11
118.257
 21
271.052
  0
LINE
  8
0
 10
118.257
 20
271.052
 11
118.214
 21
271.274
  0
LINE
  8
0
 10
118.214
 20
271.274
 11
118.2
 21
271.5
  0
LINE
  8
0
 10
118.2
 20
271.5
 11
118.214
 21
271.726
  0
LINE
  8
0
 10
118.214
 20
271.726
 11
118.257
 21
271.948
  0
LINE
  8
0
 10
118.257
 20
271.948
 11
118.326
 21
272.163
  0
LINE
  8
0
 10
118.326
 20
272.163
 11
118.423
 21
272.367
  0
LINE
  8
0
 10
118.423
 20
272.367
 11
118.544
 21
272.558
  0
LINE
  8
0
 10
118.544
 20
272.558
 11
118.688
 21
272.732
  0
LINE
  8
0
 10
118.688
 20
272.732
 11
118.853
 21
272.887
  0
LINE
  8
0
 10
118.853
 20
272.887
 11
119.036
 21
273.02
  0
LINE
  8
0
 10
119.036
 20
273.02
 11
119.234
 21
273.129
  0
LINE
  8
0
 10
119.234
 20
273.129
 11
119.444
 21
273.212
  0
LINE
  8
0
 10
119.444
 20
273.212
 11
119.663
 21
273.268
  0
LINE
  8
0
 10
119.663
 20
273.268
 11
119.887
 21
273.296
  0
LINE
  8
0
 10
119.887
 20
273.296
 11
120.113
 21
273.296
  0
LINE
  8
0
 10
120.113
 20
273.296
 11
120.337
 21
273.268
  0
LINE
  8
0
 10
120.337
 20
273.268
 11
120.556
 21
273.212
  0
LINE
  8
0
 10
120.556
 20
273.212
 11
120.766
 21
273.129
  0
LINE
  8
0
 10
120.766
 20
273.129
 11
120.964
 21
273.02
  0
LINE
  8
0
 10
120.964
 20
273.02
 11
121.147
 21
272.887
  0
LINE
  8
0
 10
121.147
 20
272.887
 11
121.312
 21
272.732
  0
LINE
  8
0
 10
121.312
 20
272.732
 11
121.456
 21
272.558
  0
LINE
  8
0
 10
121.456
 20
272.558
 11
121.577
 21
272.367
  0
LINE
  8
0
 10
121.577
 20
272.367
 11
121.674
 21
272.163
  0
LINE
  8
0
 10
121.674
 20
272.163
 11
121.743
 21
271.948
  0
LINE
  8
0
 10
121.743
 20
271.948
 11
121.786
 21
271.726
  0
LINE
  8
0
 10
121.786
 20
271.726
 11
121.8
 21
271.5
  0
LINE
  8
0
 10
121.8
 20
271.5
 11
121.786
 21
271.274
  0
LINE
  8
0
 10
121.786
 20
271.274
 11
121.743
 21
271.052
  0
LINE
  8
0
 10
121.743
 20
271.052
 11
121.674
 21
270.837
  0
LINE
  8
0
 10
121.674
 20
270.837
 11
121.577
 21
270.633
  0
LINE
  8
0
 10
121.577
 20
270.633
 11
121.456
 21
270.442
  0
LINE
  8
0
 10
121.456
 20
270.442
 11
121.312
 21
270.268
  0
LINE
  8
0
 10
121.312
 20
270.268
 11
121.147
 21
270.113
  0
LINE
  8
0
 10
121.147
 20
270.113
 11
120.964
 21
269.98
  0
LINE
  8
0
 10
120.964
 20
269.98
 11
120.766
 21
269.871
  0
LINE
  8
0
 10
120.766
 20
269.871
 11
120.556
 21
269.788
  0
LINE
  8
0
 10
120.556
 20
269.788
 11
120.337
 21
269.732
  0
LINE
  8
0
 10
120.337
 20
269.732
 11
120.113
 21
269.704
  0
LINE
  8
0
 10
120.113
 20
269.704
 11
119.887
 21
269.704
  0
LINE
  8
0
 10
-120.113
 20
269.704
 11
-120.337
 21
269.732
  0
LINE
  8
0
 10
-120.337
 20
269.732
 11
-120.556
 21
269.788
  0
LINE
  8
0
 10
-120.556
 20
269.788
 11
-120.766
 21
269.871
  0
LINE
  8
0
 10
-120.766
 20
269.871
 11
-120.964
 21
269.98
  0
LINE
  8
0
 10
-120.964
 20
269.98
 11
-121.147
 21
270.113
  0
LINE
  8
0
 10
-121.147
 20
270.113
 11
-121.312
 21
270.268
  0
LINE
  8
0
 10
-121.312
 20
270.268
 11
-121.456
 21
270.442
  0
LINE
  8
0
 10
-121.456
 20
270.442
 11
-121.577
 21
270.633
  0
LINE
  8
0
 10
-121.577
 20
270.633
 11
-121.674
 21
270.837
  0
LINE
  8
0
 10
-121.674
 20
270.837
 11
-121.743
 21
271.052
  0
LINE
  8
0
 10
-121.743
 20
271.052
 11
-121.786
 21
271.274
  0
LINE
  8
0
 10
-121.786
 20
271.274
 11
-121.8
 21
271.5
  0
LINE
  8
0
 10
-121.8
 20
271.5
 11
-121.786
 21
271.726
  0
LINE
  8
0
 10
-121.786
 20
271.726
 11
-121.743
 21
271.948
  0
LINE
  8
0
 10
-121.743
 20
271.948
 11
-121.674
 21
272.163
  0
LINE
  8
0
 10
-121.674
 20
272.163
 11
-121.577
 21
272.367
  0
LINE
  8
0
 10
-121.577
 20
272.367
 11
-121.456
 21
272.558
  0
LINE
  8
0
 10
-121.456
 20
272.558
 11
-121.312
 21
272.732
  0
LINE
  8
0
 10
-121.312
 20
272.732
 11
-121.147
 21
272.887
  0
LINE
  8
0
 10
-121.147
 20
272.887
 11
-120.964
 21
273.02
  0
LINE
  8
0
 10
-120.964
 20
273.02
 11
-120.766
 21
273.129
  0
LINE
  8
0
 10
-120.766
 20
273.129
 11
-120.556
 21
273.212
  0
LINE
  8
0
 10
-120.556
 20
273.212
 11
-120.337
 21
273.268
  0
LINE
  8
0
 10
-120.337
 20
273.268
 11
-120.113
 21
273.296
  0
LINE
  8
0
 10
-120.113
 20
273.296
 11
-119.887
 21
273.296
  0
LINE
  8
0
 10
-119.887
 20
273.296
 11
-119.663
 21
273.268
  0
LINE
  8
0
 10
-119.663
 20
273.268
 11
-119.444
 21
273.212
  0
LINE
  8
0
 10
-119.444
 20
273.212
 11
-119.234
 21
273.129
  0
LINE
  8
0
 10
-119.234
 20
273.129
 11
-119.036
 21
273.02
  0
LINE
  8
0
 10
-119.036
 20
273.02
 11
-118.853
 21
272.887
  0
LINE
  8
0
 10
-118.853
 20
272.887
 11
-118.688
 21
272.732
  0
LINE
  8
0
 10
-118.688
 20
272.732
 11
-118.544
 21
272.558
  0
LINE
  8
0
 10
-118.544
 20
272.558
 11
-118.423
 21
272.367
  0
LINE
  8
0
 10
-118.423
 20
272.367
 11
-118.326
 21
272.163
  0
LINE
  8
0
 10
-118.326
 20
272.163
 11
-118.257
 21
271.948
  0
LINE
  8
0
 10
-118.257
 20
271.948
 11
-118.214
 21
271.726
  0
LINE
  8
0
 10
-118.214
 20
271.726
 11
-118.2
 21
271.5
  0
LINE
  8
0
 10
-118.2
 20
271.5
 11
-118.214
 21
271.274
  0
LINE
  8
0
 10
-118.214
 20
271.274
 11
-118.257
 21
271.052
  0
LINE
  8
0
 10
-118.257
 20
271.052
 11
-118.326
 21
270.837
  0
LINE
  8
0
 10
-118.326
 20
270.837
 11
-118.423
 21
270.633
  0
LINE
  8
0
 10
-118.423
 20
270.633
 11
-118.544
 21
270.442
  0
LINE
  8
0
 10
-118.544
 20
270.442
 11
-118.688
 21
270.268
  0
LINE
  8
0
 10
-118.688
 20
270.268
 11
-118.853
 21
270.113
  0
LINE
  8
0
 10
-118.853
 20
270.113
 11
-119.036
 21
269.98
  0
LINE
  8
0
 10
-119.036
 20
269.98
 11
-119.234
 21
269.871
  0
LINE
  8
0
 10
-119.234
 20
269.871
 11
-119.444
 21
269.788
  0
LINE
  8
0
 10
-119.444
 20
269.788
 11
-119.663
 21
269.732
  0
LINE
  8
0
 10
-119.663
 20
269.732
 11
-119.887
 21
269.704
  0
LINE
  8
0
 10
-119.887
 20
269.704
 11
-120.113
 21
269.704
  0
LINE
  8
0
 10
-120.113
 20
104.704
 11
-120.337
 21
104.732
  0
LINE
  8
0
 10
-120.337
 20
104.732
 11
-120.556
 21
104.788
  0
LINE
  8
0
 10
-120.556
 20
104.788
 11
-120.766
 21
104.871
  0
LINE
  8
0
 10
-120.766
 20
104.871
 11
-120.964
 21
104.98
  0
LINE
  8
0
 10
-120.964
 20
104.98
 11
-121.147
 21
105.113
  0
LINE
  8
0
 10
-121.147
 20
105.113
 11
-121.312
 21
105.268
  0
LINE
  8
0
 10
-121.312
 20
105.268
 11
-121.456
 21
105.442
  0
LINE
  8
0
 10
-121.456
 20
105.442
 11
-121.577
 21
105.633
  0
LINE
  8
0
 10
-121.577
 20
105.633
 11
-121.674
 21
105.837
  0
LINE
  8
0
 10
-121.674
 20
105.837
 11
-121.743
 21
106.052
  0
LINE
  8
0
 10
-121.743
 20
106.052
 11
-121.786
 21
106.274
  0
LINE
  8
0
 10
-121.786
 20
106.274
 11
-121.8
 21
106.5
  0
LINE
  8
0
 10
-121.8
 20
106.5
 11
-121.786
 21
106.726
  0
LINE
  8
0
 10
-121.786
 20
106.726
 11
-121.743
 21
106.948
  0
LINE
  8
0
 10
-121.743
 20
106.948
 11
-121.674
 21
107.163
  0
LINE
  8
0
 10
-121.674
 20
107.163
 11
-121.577
 21
107.367
  0
LINE
  8
0
 10
-121.577
 20
107.367
 11
-121.456
 21
107.558
  0
LINE
  8
0
 10
-121.456
 20
107.558
 11
-121.312
 21
107.732
  0
LINE
  8
0
 10
-121.312
 20
107.732
 11
-121.147
 21
107.887
  0
LINE
  8
0
 10
-121.147
 20
107.887
 11
-120.964
 21
108.02
  0
LINE
  8
0
 10
-120.964
 20
108.02
 11
-120.766
 21
108.129
  0
LINE
  8
0
 10
-120.766
 20
108.129
 11
-120.556
 21
108.212
  0
LINE
  8
0
 10
-120.556
 20
108.212
 11
-120.337
 21
108.268
  0
LINE
  8
0
 10
-120.337
 20
108.268
 11
-120.113
 21
108.296
  0
LINE
  8
0
 10
-120.113
 20
108.296
 11
-119.887
 21
108.296
  0
LINE
  8
0
 10
-119.887
 20
108.296
 11
-119.663
 21
108.268
  0
LINE
  8
0
 10
-119.663
 20
108.268
 11
-119.444
 21
108.212
  0
LINE
  8
0
 10
-119.444
 20
108.212
 11
-119.234
 21
108.129
  0
LINE
  8
0
 10
-119.234
 20
108.129
 11
-119.036
 21
108.02
  0
LINE
  8
0
 10
-119.036
 20
108.02
 11
-118.853
 21
107.887
  0
LINE
  8
0
 10
-118.853
 20
107.887
 11
-118.688
 21
107.732
  0
LINE
  8
0
 10
-118.688
 20
107.732
 11
-118.544
 21
107.558
  0
LINE
  8
0
 10
-118.544
 20
107.558
 11
-118.423
 21
107.367
  0
LINE
  8
0
 10
-118.423
 20
107.367
 11
-118.326
 21
107.163
  0
LINE
  8
0
 10
-118.326
 20
107.163
 11
-118.257
 21
106.948
  0
LINE
  8
0
 10
-118.257
 20
106.948
 11
-118.214
 21
106.726
  0
LINE
  8
0
 10
-118.214
 20
106.726
 11
-118.2
 21
106.5
  0
LINE
  8
0
 10
-118.2
 20
106.5
 11
-118.214
 21
106.274
  0
LINE
  8
0
 10
-118.214
 20
106.274
 11
-118.257
 21
106.052
  0
LINE
  8
0
 10
-118.257
 20
106.052
 11
-118.326
 21
105.837
  0
LINE
  8
0
 10
-118.326
 20
105.837
 11
-118.423
 21
105.633
  0
LINE
  8
0
 10
-118.423
 20
105.633
 11
-118.544
 21
105.442
  0
LINE
  8
0
 10
-118.544
 20
105.442
 11
-118.688
 21
105.268
  0
LINE
  8
0
 10
-118.688
 20
105.268
 11
-118.853
 21
105.113
  0
LINE
  8
0
 10
-118.853
 20
105.113
 11
-119.036
 21
104.98
  0
LINE
  8
0
 10
-119.036
 20
104.98
 11
-119.234
 21
104.871
  0
LINE
  8
0
 10
-119.234
 20
104.871
 11
-119.444
 21
104.788
  0
LINE
  8
0
 10
-119.444
 20
104.788
 11
-119.663
 21
104.732
  0
LINE
  8
0
 10
-119.663
 20
104.732
 11
-119.887
 21
104.704
  0
LINE
  8
0
 10
-119.887
 20
104.704
 11
-120.113
 21
104.704
  0
LINE
  8
0
 10
119.887
 20
104.704
 11
119.663
 21
104.732
  0
LINE
  8
0
 10
119.663
 20
104.732
 11
119.444
 21
104.788
  0
LINE
  8
0
 10
119.444
 20
104.788
 11
119.234
 21
104.871
  0
LINE
  8
0
 10
119.234
 20
104.871
 11
119.036
 21
104.98
  0
LINE
  8
0
 10
119.036
 20
104.98
 11
118.853
 21
105.113
  0
LINE
  8
0
 10
118.853
 20
105.113
 11
118.688
 21
105.268
  0
LINE
  8
0
 10
118.688
 20
105.268
 11
118.544
 21
105.442
  0
LINE
  8
0
 10
118.544
 20
105.442
 11
118.423
 21
105.633
  0
LINE
  8
0
 10
118.423
 20
105.633
 11
118.326
 21
105.837
  0
LINE
  8
0
 10
118.326
 20
105.837
 11
118.257
 21
106.052
  0
LINE
  8
0
 10
118.257
 20
106.052
 11
118.214
 21
106.274
  0
LINE
  8
0
 10
118.214
 20
106.274
 11
118.2
 21
106.5
  0
LINE
  8
0
 10
118.2
 20
106.5
 11
118.214
 21
106.726
  0
LINE
  8
0
 10
118.214
 20
106.726
 11
118.257
 21
106.948
  0
LINE
  8
0
 10
118.257
 20
106.948
 11
118.326
 21
107.163
  0
LINE
  8
0
 10
118.326
 20
107.163
 11
118.423
 21
107.367
  0
LINE
  8
0
 10
118.423
 20
107.367
 11
118.544
 21
107.558
  0
LINE
  8
0
 10
118.544
 20
107.558
 11
118.688
 21
107.732
  0
LINE
  8
0
 10
118.688
 20
107.732
 11
118.853
 21
107.887
  0
LINE
  8
0
 10
118.853
 20
107.887
 11
119.036
 21
108.02
  0
LINE
  8
0
 10
119.036
 20
108.02
 11
119.234
 21
108.129
  0
LINE
  8
0
 10
119.234
 20
108.129
 11
119.444
 21
108.212
  0
LINE
  8
0
 10
119.444
 20
108.212
 11
119.663
 21
108.268
  0
LINE
  8
0
 10
119.663
 20
108.268
 11
119.887
 21
108.296
  0
LINE
  8
0
 10
119.887
 20
108.296
 11
120.113
 21
108.296
  0
LINE
  8
0
 10
120.113
 20
108.296
 11
120.337
 21
108.268
  0
LINE
  8
0
 10
120.337
 20
108.268
 11
120.556
 21
108.212
  0
LINE
  8
0
 10
120.556
 20
108.212
 11
120.766
 21
108.129
  0
LINE
  8
0
 10
120.766
 20
108.129
 11
120.964
 21
108.02
  0
LINE
  8
0
 10
120.964
 20
108.02
 11
121.147
 21
107.887
  0
LINE
  8
0
 10
121.147
 20
107.887
 11
121.312
 21
107.732
  0
LINE
  8
0
 10
121.312
 20
107.732
 11
121.456
 21
107.558
  0
LINE
  8
0
 10
121.456
 20
107.558
 11
121.577
 21
107.367
  0
LINE
  8
0
 10
121.577
 20
107.367
 11
121.674
 21
107.163
  0
LINE
  8
0
 10
121.674
 20
107.163
 11
121.743
 21
106.948
  0
LINE
  8
0
 10
121.743
 20
106.948
 11
121.786
 21
106.726
  0
LINE
  8
0
 10
121.786
 20
106.726
 11
121.8
 21
106.5
  0
LINE
  8
0
 10
121.8
 20
106.5
 11
121.786
 21
106.274
  0
LINE
  8
0
 10
121.786
 20
106.274
 11
121.743
 21
106.052
  0
LINE
  8
0
 10
121.743
 20
106.052
 11
121.674
 21
105.837
  0
LINE
  8
0
 10
121.674
 20
105.837
 11
121.577
 21
105.633
  0
LINE
  8
0
 10
121.577
 20
105.633
 11
121.456
 21
105.442
  0
LINE
  8
0
 10
121.456
 20
105.442
 11
121.312
 21
105.268
  0
LINE
  8
0
 10
121.312
 20
105.268
 11
121.147
 21
105.113
  0
LINE
  8
0
 10
121.147
 20
105.113
 11
120.964
 21
104.98
  0
LINE
  8
0
 10
120.964
 20
104.98
 11
120.766
 21
104.871
  0
LINE
  8
0
 10
120.766
 20
104.871
 11
120.556
 21
104.788
  0
LINE
  8
0
 10
120.556
 20
104.788
 11
120.337
 21
104.732
  0
LINE
  8
0
 10
120.337
 20
104.732
 11
120.113
 21
104.704
  0
LINE
  8
0
 10
120.113
 20
104.704
 11
119.887
 21
104.704
  0
ENDSEC
  0
SECTION
  2
OBJECTS
  0
DICTIONARY
  0
ENDSEC
  0
EOF
