<?xml version="1.0" standalone="no"?>
<!DOCTYPE svg PUBLIC "-//W3C//DTD SVG 1.1//EN" "http://www.w3.org/Graphics/SVG/1.1/DTD/svg11.dtd">
<svg width="257mm" height="334mm" viewBox="-129 -509 257 334" xmlns="http://www.w3.org/2000/svg" version="1.1">
<title>OpenSCAD Model</title>
<path d="
M -126,-404.941 L -125.687,-404.647 L -125.179,-404.278 L -124.629,-403.976 L -124.045,-403.745 L -123.437,-403.589
 L -122.814,-403.51 L 122.814,-403.51 L 123.437,-403.589 L 124.045,-403.745 L 124.629,-403.976 L 125.179,-404.278
 L 125.687,-404.647 L 126.145,-405.077 L 126.545,-405.561 L 126.882,-406.091 L 127.149,-406.659 L 127.343,-407.257
 L 127.461,-407.873 L 127.5,-408.5 L 127.5,-503.5 L 127.461,-504.127 L 127.343,-504.743 L 127.149,-505.341
 L 126.882,-505.909 L 126.545,-506.439 L 126.145,-506.923 L 125.687,-507.353 L 125.179,-507.722 L 124.629,-508.024
 L 124.045,-508.255 L 123.437,-508.411 L 122.814,-508.49 L -122.814,-508.49 L -123.437,-508.411 L -124.045,-508.255
 L -124.629,-508.024 L -125.179,-507.722 L -125.687,-507.353 L -126,-507.059 L -126,-508.49 L -129,-508.49
 L -129,-403.51 L -126,-403.51 z
M -122.243,-405.135 L -122.726,-405.196 L -123.197,-405.317 L -123.649,-405.496 L -124.075,-405.73 L -124.469,-406.016
 L -124.823,-406.349 L -125.133,-406.724 L -125.394,-407.134 L -125.601,-407.574 L -125.751,-408.037 L -125.842,-408.515
 L -125.873,-409 L -125.873,-503 L -125.842,-503.485 L -125.751,-503.963 L -125.601,-504.426 L -125.394,-504.866
 L -125.133,-505.276 L -124.823,-505.651 L -124.469,-505.984 L -124.075,-506.27 L -123.649,-506.504 L -123.197,-506.683
 L -122.726,-506.804 L -122.243,-506.865 L 122.243,-506.865 L 122.726,-506.804 L 123.197,-506.683 L 123.649,-506.504
 L 124.075,-506.27 L 124.469,-505.984 L 124.823,-505.651 L 125.133,-505.276 L 125.394,-504.866 L 125.601,-504.426
 L 125.751,-503.963 L 125.842,-503.485 L 125.873,-503 L 125.873,-409 L 125.842,-408.515 L 125.751,-408.037
 L 125.601,-407.574 L 125.394,-407.134 L 125.133,-406.724 L 124.823,-406.349 L 124.469,-406.016 L 124.075,-405.73
 L 123.649,-405.496 L 123.197,-405.317 L 122.726,-405.196 L 122.243,-405.135 z
M 123.437,-289.589 L 124.045,-289.745 L 124.629,-289.976 L 125.179,-290.278 L 125.687,-290.647 L 126.145,-291.077
 L 126.545,-291.561 L 126.882,-292.091 L 127.149,-292.659 L 127.343,-293.257 L 127.461,-293.873 L 127.5,-294.5
 L 127.5,-389.5 L 127.461,-390.127 L 127.343,-390.743 L 127.149,-391.341 L 126.882,-391.909 L 126.545,-392.439
 L 126.145,-392.923 L 125.687,-393.353 L 125.179,-393.722 L 124.629,-394.024 L 124.045,-394.255 L 123.437,-394.411
 L 122.814,-394.49 L -122.814,-394.49 L -123.437,-394.411 L -124.045,-394.255 L -124.629,-394.024 L -125.179,-393.722
 L -125.687,-393.353 L -126,-393.059 L -126,-394.115 L -129,-394.115 L -129,-289.885 L -126,-289.885
 L -126,-290.941 L -125.687,-290.647 L -125.179,-290.278 L -124.629,-289.976 L -124.045,-289.745 L -123.437,-289.589
 L -122.814,-289.51 L 122.814,-289.51 z
M -120.151,-384.605 L -120.45,-384.643 L -120.742,-384.717 L -121.022,-384.828 L -121.286,-384.974 L -121.53,-385.151
 L -121.75,-385.357 L -121.942,-385.589 L -122.103,-385.844 L -122.231,-386.117 L -122.325,-386.403 L -122.381,-386.699
 L -122.4,-387 L -122.381,-387.301 L -122.325,-387.597 L -122.231,-387.883 L -122.103,-388.156 L -121.942,-388.411
 L -121.75,-388.643 L -121.53,-388.849 L -121.286,-389.026 L -121.022,-389.172 L -120.742,-389.283 L -120.45,-389.357
 L -120.151,-389.395 L -119.849,-389.395 L -119.55,-389.357 L -119.258,-389.283 L -118.978,-389.172 L -118.714,-389.026
 L -118.47,-388.849 L -118.25,-388.643 L -118.058,-388.411 L -117.897,-388.156 L -117.769,-387.883 L -117.675,-387.597
 L -117.619,-387.301 L -117.6,-387 L -117.619,-386.699 L -117.675,-386.403 L -117.769,-386.117 L -117.897,-385.844
 L -118.058,-385.589 L -118.25,-385.357 L -118.47,-385.151 L -118.714,-384.974 L -118.978,-384.828 L -119.258,-384.717
 L -119.55,-384.643 L -119.849,-384.605 z
M 119.849,-384.605 L 119.55,-384.643 L 119.258,-384.717 L 118.978,-384.828 L 118.714,-384.974 L 118.47,-385.151
 L 118.25,-385.357 L 118.058,-385.589 L 117.897,-385.844 L 117.769,-386.117 L 117.675,-386.403 L 117.619,-386.699
 L 117.6,-387 L 117.619,-387.301 L 117.675,-387.597 L 117.769,-387.883 L 117.897,-388.156 L 118.058,-388.411
 L 118.25,-388.643 L 118.47,-388.849 L 118.714,-389.026 L 118.978,-389.172 L 119.258,-389.283 L 119.55,-389.357
 L 119.849,-389.395 L 120.151,-389.395 L 120.45,-389.357 L 120.742,-389.283 L 121.022,-389.172 L 121.286,-389.026
 L 121.53,-388.849 L 121.75,-388.643 L 121.942,-388.411 L 122.103,-388.156 L 122.231,-387.883 L 122.325,-387.597
 L 122.381,-387.301 L 122.4,-387 L 122.381,-386.699 L 122.325,-386.403 L 122.231,-386.117 L 122.103,-385.844
 L 121.942,-385.589 L 121.75,-385.357 L 121.53,-385.151 L 121.286,-384.974 L 121.022,-384.828 L 120.742,-384.717
 L 120.45,-384.643 L 120.151,-384.605 z
M 119.849,-294.605 L 119.55,-294.643 L 119.258,-294.717 L 118.978,-294.828 L 118.714,-294.974 L 118.47,-295.151
 L 118.25,-295.357 L 118.058,-295.589 L 117.897,-295.844 L 117.769,-296.117 L 117.675,-296.403 L 117.619,-296.699
 L 117.6,-297 L 117.619,-297.301 L 117.675,-297.597 L 117.769,-297.883 L 117.897,-298.156 L 118.058,-298.411
 L 118.25,-298.643 L 118.47,-298.849 L 118.714,-299.026 L 118.978,-299.172 L 119.258,-299.283 L 119.55,-299.357
 L 119.849,-299.395 L 120.151,-299.395 L 120.45,-299.357 L 120.742,-299.283 L 121.022,-299.172 L 121.286,-299.026
 L 121.53,-298.849 L 121.75,-298.643 L 121.942,-298.411 L 122.103,-298.156 L 122.231,-297.883 L 122.325,-297.597
 L 122.381,-297.301 L 122.4,-297 L 122.381,-296.699 L 122.325,-296.403 L 122.231,-296.117 L 122.103,-295.844
 L 121.942,-295.589 L 121.75,-295.357 L 121.53,-295.151 L 121.286,-294.974 L 121.022,-294.828 L 120.742,-294.717
 L 120.45,-294.643 L 120.151,-294.605 z
M -120.151,-294.605 L -120.45,-294.643 L -120.742,-294.717 L -121.022,-294.828 L -121.286,-294.974 L -121.53,-295.151
 L -121.75,-295.357 L -121.942,-295.589 L -122.103,-295.844 L -122.231,-296.117 L -122.325,-296.403 L -122.381,-296.699
 L -122.4,-297 L -122.381,-297.301 L -122.325,-297.597 L -122.231,-297.883 L -122.103,-298.156 L -121.942,-298.411
 L -121.75,-298.643 L -121.53,-298.849 L -121.286,-299.026 L -121.022,-299.172 L -120.742,-299.283 L -120.45,-299.357
 L -120.151,-299.395 L -119.849,-299.395 L -119.55,-299.357 L -119.258,-299.283 L -118.978,-299.172 L -118.714,-299.026
 L -118.47,-298.849 L -118.25,-298.643 L -118.058,-298.411 L -117.897,-298.156 L -117.769,-297.883 L -117.675,-297.597
 L -117.619,-297.301 L -117.6,-297 L -117.619,-296.699 L -117.675,-296.403 L -117.769,-296.117 L -117.897,-295.844
 L -118.058,-295.589 L -118.25,-295.357 L -118.47,-295.151 L -118.714,-294.974 L -118.978,-294.828 L -119.258,-294.717
 L -119.55,-294.643 L -119.849,-294.605 z
M 123.437,-175.589 L 124.045,-175.745 L 124.629,-175.976 L 125.179,-176.278 L 125.687,-176.647 L 126.145,-177.077
 L 126.545,-177.561 L 126.882,-178.091 L 127.149,-178.659 L 127.343,-179.257 L 127.461,-179.873 L 127.5,-180.5
 L 127.5,-275.5 L 127.461,-276.127 L 127.343,-276.743 L 127.149,-277.341 L 126.882,-277.909 L 126.545,-278.439
 L 126.145,-278.923 L 125.687,-279.353 L 125.179,-279.722 L 124.629,-280.024 L 124.045,-280.255 L 123.437,-280.411
 L 122.814,-280.49 L -122.814,-280.49 L -123.437,-280.411 L -124.045,-280.255 L -124.629,-280.024 L -125.179,-279.722
 L -125.687,-279.353 L -126.145,-278.923 L -126.545,-278.439 L -126.882,-277.909 L -127.149,-277.341 L -127.343,-276.743
 L -127.4,-276.444 L -129,-276.444 L -129,-179.556 L -127.4,-179.556 L -127.343,-179.257 L -127.149,-178.659
 L -126.882,-178.091 L -126.545,-177.561 L -126.145,-177.077 L -125.687,-176.647 L -125.179,-176.278 L -124.629,-175.976
 L -124.045,-175.745 L -123.437,-175.589 L -122.814,-175.51 L 122.814,-175.51 z
M 119.887,-271.204 L 119.663,-271.232 L 119.444,-271.288 L 119.234,-271.371 L 119.036,-271.48 L 118.853,-271.613
 L 118.688,-271.768 L 118.544,-271.942 L 118.423,-272.133 L 118.326,-272.337 L 118.257,-272.552 L 118.214,-272.774
 L 118.2,-273 L 118.214,-273.226 L 118.257,-273.448 L 118.326,-273.663 L 118.423,-273.867 L 118.544,-274.058
 L 118.688,-274.232 L 118.853,-274.387 L 119.036,-274.52 L 119.234,-274.629 L 119.444,-274.712 L 119.663,-274.768
 L 119.887,-274.796 L 120.113,-274.796 L 120.337,-274.768 L 120.556,-274.712 L 120.766,-274.629 L 120.964,-274.52
 L 121.147,-274.387 L 121.312,-274.232 L 121.456,-274.058 L 121.577,-273.867 L 121.674,-273.663 L 121.743,-273.448
 L 121.786,-273.226 L 121.8,-273 L 121.786,-272.774 L 121.743,-272.552 L 121.674,-272.337 L 121.577,-272.133
 L 121.456,-271.942 L 121.312,-271.768 L 121.147,-271.613 L 120.964,-271.48 L 120.766,-271.371 L 120.556,-271.288
 L 120.337,-271.232 L 120.113,-271.204 z
M -120.113,-271.204 L -120.337,-271.232 L -120.556,-271.288 L -120.766,-271.371 L -120.964,-271.48 L -121.147,-271.613
 L -121.312,-271.768 L -121.456,-271.942 L -121.577,-272.133 L -121.674,-272.337 L -121.743,-272.552 L -121.786,-272.774
 L -121.8,-273 L -121.786,-273.226 L -121.743,-273.448 L -121.674,-273.663 L -121.577,-273.867 L -121.456,-274.058
 L -121.312,-274.232 L -121.147,-274.387 L -120.964,-274.52 L -120.766,-274.629 L -120.556,-274.712 L -120.337,-274.768
 L -120.113,-274.796 L -119.887,-274.796 L -119.663,-274.768 L -119.444,-274.712 L -119.234,-274.629 L -119.036,-274.52
 L -118.853,-274.387 L -118.688,-274.232 L -118.544,-274.058 L -118.423,-273.867 L -118.326,-273.663 L -118.257,-273.448
 L -118.214,-273.226 L -118.2,-273 L -118.214,-272.774 L -118.257,-272.552 L -118.326,-272.337 L -118.423,-272.133
 L -118.544,-271.942 L -118.688,-271.768 L -118.853,-271.613 L -119.036,-271.48 L -119.234,-271.371 L -119.444,-271.288
 L -119.663,-271.232 L -119.887,-271.204 z
M 119.887,-181.204 L 119.663,-181.232 L 119.444,-181.288 L 119.234,-181.371 L 119.036,-181.48 L 118.853,-181.613
 L 118.688,-181.768 L 118.544,-181.942 L 118.423,-182.133 L 118.326,-182.337 L 118.257,-182.552 L 118.214,-182.774
 L 118.2,-183 L 118.214,-183.226 L 118.257,-183.448 L 118.326,-183.663 L 118.423,-183.867 L 118.544,-184.058
 L 118.688,-184.232 L 118.853,-184.387 L 119.036,-184.52 L 119.234,-184.629 L 119.444,-184.712 L 119.663,-184.768
 L 119.887,-184.796 L 120.113,-184.796 L 120.337,-184.768 L 120.556,-184.712 L 120.766,-184.629 L 120.964,-184.52
 L 121.147,-184.387 L 121.312,-184.232 L 121.456,-184.058 L 121.577,-183.867 L 121.674,-183.663 L 121.743,-183.448
 L 121.786,-183.226 L 121.8,-183 L 121.786,-182.774 L 121.743,-182.552 L 121.674,-182.337 L 121.577,-182.133
 L 121.456,-181.942 L 121.312,-181.768 L 121.147,-181.613 L 120.964,-181.48 L 120.766,-181.371 L 120.556,-181.288
 L 120.337,-181.232 L 120.113,-181.204 z
M -120.113,-181.204 L -120.337,-181.232 L -120.556,-181.288 L -120.766,-181.371 L -120.964,-181.48 L -121.147,-181.613
 L -121.312,-181.768 L -121.456,-181.942 L -121.577,-182.133 L -121.674,-182.337 L -121.743,-182.552 L -121.786,-182.774
 L -121.8,-183 L -121.786,-183.226 L -121.743,-183.448 L -121.674,-183.663 L -121.577,-183.867 L -121.456,-184.058
 L -121.312,-184.232 L -121.147,-184.387 L -120.964,-184.52 L -120.766,-184.629 L -120.556,-184.712 L -120.337,-184.768
 L -120.113,-184.796 L -119.887,-184.796 L -119.663,-184.768 L -119.444,-184.712 L -119.234,-184.629 L -119.036,-184.52
 L -118.853,-184.387 L -118.688,-184.232 L -118.544,-184.058 L -118.423,-183.867 L -118.326,-183.663 L -118.257,-183.448
 L -118.214,-183.226 L -118.2,-183 L -118.214,-182.774 L -118.257,-182.552 L -118.326,-182.337 L -118.423,-182.133
 L -118.544,-181.942 L -118.688,-181.768 L -118.853,-181.613 L -119.036,-181.48 L -119.234,-181.371 L -119.444,-181.288
 L -119.663,-181.232 L -119.887,-181.204 z
" stroke="black" fill="lightgray" stroke-width="0.5"/>
</svg>
