<?xml version="1.0" standalone="no"?>
<!DOCTYPE svg PUBLIC "-//W3C//DTD SVG 1.1//EN" "http://www.w3.org/Graphics/SVG/1.1/DTD/svg11.dtd">
<svg width="256mm" height="562mm" viewBox="-128 -1079 256 562" xmlns="http://www.w3.org/2000/svg" version="1.1">
<title>OpenSCAD Model</title>
<path d="
M 123.437,-973.589 L 124.045,-973.745 L 124.629,-973.976 L 125.179,-974.278 L 125.687,-974.647 L 126.145,-975.077
 L 126.545,-975.561 L 126.882,-976.091 L 127.149,-976.659 L 127.343,-977.257 L 127.461,-977.873 L 127.5,-978.5
 L 127.5,-1073.5 L 127.461,-1074.13 L 127.343,-1074.74 L 127.149,-1075.34 L 126.882,-1075.91 L 126.545,-1076.44
 L 126.145,-1076.92 L 125.687,-1077.35 L 125.179,-1077.72 L 124.629,-1078.02 L 124.045,-1078.26 L 123.437,-1078.41
 L 122.814,-1078.49 L -122.814,-1078.49 L -123.437,-1078.41 L -124.045,-1078.26 L -124.629,-1078.02 L -125.179,-1077.72
 L -125.687,-1077.35 L -126.145,-1076.92 L -126.545,-1076.44 L -126.882,-1075.91 L -127.149,-1075.34 L -127.343,-1074.74
 L -127.461,-1074.13 L -127.5,-1073.5 L -127.5,-978.5 L -127.461,-977.873 L -127.343,-977.257 L -127.149,-976.659
 L -126.882,-976.091 L -126.545,-975.561 L -126.145,-975.077 L -125.687,-974.647 L -125.179,-974.278 L -124.629,-973.976
 L -124.045,-973.745 L -123.437,-973.589 L -122.814,-973.51 L 122.814,-973.51 z
M -122.548,-974.009 L -123.14,-974.084 L -123.718,-974.232 L -124.272,-974.452 L -124.795,-974.739 L -125.278,-975.09
 L -125.713,-975.498 L -126.093,-975.958 L -126.412,-976.462 L -126.666,-977.001 L -126.851,-977.569 L -126.963,-978.155
 L -127,-978.75 L -127,-1073.25 L -126.963,-1073.85 L -126.851,-1074.43 L -126.666,-1075 L -126.412,-1075.54
 L -126.093,-1076.04 L -125.713,-1076.5 L -125.278,-1076.91 L -124.795,-1077.26 L -124.272,-1077.55 L -123.718,-1077.77
 L -123.14,-1077.92 L -122.548,-1077.99 L 122.548,-1077.99 L 123.14,-1077.92 L 123.718,-1077.77 L 124.272,-1077.55
 L 124.795,-1077.26 L 125.278,-1076.91 L 125.713,-1076.5 L 126.093,-1076.04 L 126.412,-1075.54 L 126.666,-1075
 L 126.851,-1074.43 L 126.963,-1073.85 L 127,-1073.25 L 127,-978.75 L 126.963,-978.155 L 126.851,-977.569
 L 126.666,-977.001 L 126.412,-976.462 L 126.093,-975.958 L 125.713,-975.498 L 125.278,-975.09 L 124.795,-974.739
 L 124.272,-974.452 L 123.718,-974.232 L 123.14,-974.084 L 122.548,-974.009 z
M 123.437,-859.589 L 124.045,-859.745 L 124.629,-859.976 L 125.179,-860.278 L 125.687,-860.647 L 126.145,-861.077
 L 126.545,-861.561 L 126.882,-862.091 L 127.149,-862.659 L 127.343,-863.257 L 127.461,-863.873 L 127.5,-864.5
 L 127.5,-959.5 L 127.461,-960.127 L 127.343,-960.743 L 127.149,-961.341 L 126.882,-961.909 L 126.545,-962.439
 L 126.145,-962.923 L 125.687,-963.353 L 125.179,-963.722 L 124.629,-964.024 L 124.045,-964.255 L 123.437,-964.411
 L 122.814,-964.49 L -122.814,-964.49 L -123.437,-964.411 L -124.045,-964.255 L -124.629,-964.024 L -125.179,-963.722
 L -125.687,-963.353 L -126.145,-962.923 L -126.545,-962.439 L -126.882,-961.909 L -127.149,-961.341 L -127.343,-960.743
 L -127.461,-960.127 L -127.5,-959.5 L -127.5,-864.5 L -127.461,-863.873 L -127.343,-863.257 L -127.149,-862.659
 L -126.882,-862.091 L -126.545,-861.561 L -126.145,-861.077 L -125.687,-860.647 L -125.179,-860.278 L -124.629,-859.976
 L -124.045,-859.745 L -123.437,-859.589 L -122.814,-859.51 L 122.814,-859.51 z
M -122.548,-860.009 L -123.14,-860.084 L -123.718,-860.232 L -124.272,-860.452 L -124.795,-860.739 L -125.278,-861.09
 L -125.713,-861.498 L -126.093,-861.958 L -126.412,-862.462 L -126.666,-863.001 L -126.851,-863.569 L -126.963,-864.155
 L -127,-864.75 L -127,-959.25 L -126.963,-959.845 L -126.851,-960.431 L -126.666,-960.999 L -126.412,-961.538
 L -126.093,-962.042 L -125.713,-962.502 L -125.278,-962.91 L -124.795,-963.261 L -124.272,-963.548 L -123.718,-963.768
 L -123.14,-963.916 L -122.548,-963.991 L 122.548,-963.991 L 123.14,-963.916 L 123.718,-963.768 L 124.272,-963.548
 L 124.795,-963.261 L 125.278,-962.91 L 125.713,-962.502 L 126.093,-962.042 L 126.412,-961.538 L 126.666,-960.999
 L 126.851,-960.431 L 126.963,-959.845 L 127,-959.25 L 127,-864.75 L 126.963,-864.155 L 126.851,-863.569
 L 126.666,-863.001 L 126.412,-862.462 L 126.093,-861.958 L 125.713,-861.498 L 125.278,-861.09 L 124.795,-860.739
 L 124.272,-860.452 L 123.718,-860.232 L 123.14,-860.084 L 122.548,-860.009 z
M 123.437,-745.589 L 124.045,-745.745 L 124.629,-745.976 L 125.179,-746.278 L 125.687,-746.647 L 126.145,-747.077
 L 126.545,-747.561 L 126.882,-748.091 L 127.149,-748.659 L 127.343,-749.257 L 127.461,-749.873 L 127.5,-750.5
 L 127.5,-845.5 L 127.461,-846.127 L 127.343,-846.743 L 127.149,-847.341 L 126.882,-847.909 L 126.545,-848.439
 L 126.145,-848.923 L 125.687,-849.353 L 125.179,-849.722 L 124.629,-850.024 L 124.045,-850.255 L 123.437,-850.411
 L 122.814,-850.49 L -122.814,-850.49 L -123.437,-850.411 L -124.045,-850.255 L -124.629,-850.024 L -125.179,-849.722
 L -125.687,-849.353 L -126.145,-848.923 L -126.545,-848.439 L -126.882,-847.909 L -127.149,-847.341 L -127.343,-846.743
 L -127.461,-846.127 L -127.5,-845.5 L -127.5,-750.5 L -127.461,-749.873 L -127.343,-749.257 L -127.149,-748.659
 L -126.882,-748.091 L -126.545,-747.561 L -126.145,-747.077 L -125.687,-746.647 L -125.179,-746.278 L -124.629,-745.976
 L -124.045,-745.745 L -123.437,-745.589 L -122.814,-745.51 L 122.814,-745.51 z
M -122.548,-746.009 L -123.14,-746.084 L -123.718,-746.232 L -124.272,-746.452 L -124.795,-746.739 L -125.278,-747.09
 L -125.713,-747.498 L -126.093,-747.958 L -126.412,-748.462 L -126.666,-749.001 L -126.851,-749.569 L -126.963,-750.155
 L -127,-750.75 L -127,-845.25 L -126.963,-845.845 L -126.851,-846.431 L -126.666,-846.999 L -126.412,-847.538
 L -126.093,-848.042 L -125.713,-848.502 L -125.278,-848.91 L -124.795,-849.261 L -124.272,-849.548 L -123.718,-849.768
 L -123.14,-849.916 L -122.548,-849.991 L 122.548,-849.991 L 123.14,-849.916 L 123.718,-849.768 L 124.272,-849.548
 L 124.795,-849.261 L 125.278,-848.91 L 125.713,-848.502 L 126.093,-848.042 L 126.412,-847.538 L 126.666,-846.999
 L 126.851,-846.431 L 126.963,-845.845 L 127,-845.25 L 127,-750.75 L 126.963,-750.155 L 126.851,-749.569
 L 126.666,-749.001 L 126.412,-748.462 L 126.093,-747.958 L 125.713,-747.498 L 125.278,-747.09 L 124.795,-746.739
 L 124.272,-746.452 L 123.718,-746.232 L 123.14,-746.084 L 122.548,-746.009 z
M 123.437,-631.589 L 124.045,-631.745 L 124.629,-631.976 L 125.179,-632.278 L 125.687,-632.647 L 126.145,-633.077
 L 126.545,-633.561 L 126.882,-634.091 L 127.149,-634.659 L 127.343,-635.257 L 127.461,-635.873 L 127.5,-636.5
 L 127.5,-731.5 L 127.461,-732.127 L 127.343,-732.743 L 127.149,-733.341 L 126.882,-733.909 L 126.545,-734.439
 L 126.145,-734.923 L 125.687,-735.353 L 125.179,-735.722 L 124.629,-736.024 L 124.045,-736.255 L 123.437,-736.411
 L 122.814,-736.49 L -122.814,-736.49 L -123.437,-736.411 L -124.045,-736.255 L -124.629,-736.024 L -125.179,-735.722
 L -125.687,-735.353 L -126.145,-734.923 L -126.545,-734.439 L -126.882,-733.909 L -127.149,-733.341 L -127.343,-732.743
 L -127.461,-732.127 L -127.5,-731.5 L -127.5,-636.5 L -127.461,-635.873 L -127.343,-635.257 L -127.149,-634.659
 L -126.882,-634.091 L -126.545,-633.561 L -126.145,-633.077 L -125.687,-632.647 L -125.179,-632.278 L -124.629,-631.976
 L -124.045,-631.745 L -123.437,-631.589 L -122.814,-631.51 L 122.814,-631.51 z
M -122.537,-632.181 L -123.108,-632.253 L -123.665,-632.396 L -124.199,-632.607 L -124.703,-632.884 L -125.168,-633.222
 L -125.588,-633.616 L -125.954,-634.059 L -126.262,-634.544 L -126.507,-635.065 L -126.685,-635.611 L -126.792,-636.176
 L -126.828,-636.75 L -126.828,-731.25 L -126.792,-731.824 L -126.685,-732.389 L -126.507,-732.935 L -126.262,-733.456
 L -125.954,-733.941 L -125.588,-734.384 L -125.168,-734.778 L -124.703,-735.116 L -124.199,-735.393 L -123.665,-735.604
 L -123.108,-735.747 L -122.537,-735.819 L 122.537,-735.819 L 123.108,-735.747 L 123.665,-735.604 L 124.199,-735.393
 L 124.703,-735.116 L 125.168,-734.778 L 125.588,-734.384 L 125.954,-733.941 L 126.262,-733.456 L 126.507,-732.935
 L 126.685,-732.389 L 126.792,-731.824 L 126.828,-731.25 L 126.828,-636.75 L 126.792,-636.176 L 126.685,-635.611
 L 126.507,-635.065 L 126.262,-634.544 L 125.954,-634.059 L 125.588,-633.616 L 125.168,-633.222 L 124.703,-632.884
 L 124.199,-632.607 L 123.665,-632.396 L 123.108,-632.253 L 122.537,-632.181 z
M 123.437,-517.589 L 124.045,-517.745 L 124.629,-517.976 L 125.179,-518.278 L 125.687,-518.647 L 126.145,-519.077
 L 126.545,-519.561 L 126.882,-520.091 L 127.149,-520.659 L 127.343,-521.257 L 127.461,-521.873 L 127.5,-522.5
 L 127.5,-617.5 L 127.461,-618.127 L 127.343,-618.743 L 127.149,-619.341 L 126.882,-619.909 L 126.545,-620.439
 L 126.145,-620.923 L 125.687,-621.353 L 125.179,-621.722 L 124.629,-622.024 L 124.045,-622.255 L 123.437,-622.411
 L 122.814,-622.49 L -122.814,-622.49 L -123.437,-622.411 L -124.045,-622.255 L -124.629,-622.024 L -125.179,-621.722
 L -125.687,-621.353 L -126.145,-620.923 L -126.545,-620.439 L -126.882,-619.909 L -127.149,-619.341 L -127.343,-618.743
 L -127.461,-618.127 L -127.5,-617.5 L -127.5,-522.5 L -127.461,-521.873 L -127.343,-521.257 L -127.149,-520.659
 L -126.882,-520.091 L -126.545,-519.561 L -126.145,-519.077 L -125.687,-518.647 L -125.179,-518.278 L -124.629,-517.976
 L -124.045,-517.745 L -123.437,-517.589 L -122.814,-517.51 L 122.814,-517.51 z
M -122.382,-520.645 L -122.645,-520.678 L -122.902,-520.744 L -123.148,-520.841 L -123.38,-520.969 L -123.595,-521.125
 L -123.788,-521.306 L -123.957,-521.51 L -124.099,-521.734 L -124.211,-521.973 L -124.293,-522.225 L -124.343,-522.486
 L -124.36,-522.75 L -124.36,-617.25 L -124.343,-617.514 L -124.293,-617.775 L -124.211,-618.027 L -124.099,-618.266
 L -123.957,-618.49 L -123.788,-618.694 L -123.595,-618.875 L -123.38,-619.031 L -123.148,-619.159 L -122.902,-619.256
 L -122.645,-619.322 L -122.382,-619.355 L 122.382,-619.355 L 122.645,-619.322 L 122.902,-619.256 L 123.148,-619.159
 L 123.38,-619.031 L 123.595,-618.875 L 123.788,-618.694 L 123.957,-618.49 L 124.099,-618.266 L 124.211,-618.027
 L 124.293,-617.775 L 124.343,-617.514 L 124.36,-617.25 L 124.36,-522.75 L 124.343,-522.486 L 124.293,-522.225
 L 124.211,-521.973 L 124.099,-521.734 L 123.957,-521.51 L 123.788,-521.306 L 123.595,-521.125 L 123.38,-520.969
 L 123.148,-520.841 L 122.902,-520.744 L 122.645,-520.678 L 122.382,-520.645 z
" stroke="black" fill="lightgray" stroke-width="0.5"/>
</svg>
