  0
SECTION
  2
BLOCKS
  0
ENDSEC
  0
SECTION
  2
ENTITIES
  0
LINE
  8
0
 10
-118.5
 20
1210.44
 11
-118.187
 21
1210.15
  0
LINE
  8
0
 10
-118.187
 20
1210.15
 11
-117.679
 21
1209.78
  0
LINE
  8
0
 10
-117.679
 20
1209.78
 11
-117.129
 21
1209.48
  0
LINE
  8
0
 10
-117.129
 20
1209.48
 11
-116.545
 21
1209.24
  0
LINE
  8
0
 10
-116.545
 20
1209.24
 11
-115.937
 21
1209.09
  0
LINE
  8
0
 10
-115.937
 20
1209.09
 11
-115.314
 21
1209.01
  0
LINE
  8
0
 10
-115.314
 20
1209.01
 11
115.314
 21
1209.01
  0
LINE
  8
0
 10
115.314
 20
1209.01
 11
115.937
 21
1209.09
  0
LINE
  8
0
 10
115.937
 20
1209.09
 11
116.545
 21
1209.24
  0
LINE
  8
0
 10
116.545
 20
1209.24
 11
117.129
 21
1209.48
  0
LINE
  8
0
 10
117.129
 20
1209.48
 11
117.679
 21
1209.78
  0
LINE
  8
0
 10
117.679
 20
1209.78
 11
118.187
 21
1210.15
  0
LINE
  8
0
 10
118.187
 20
1210.15
 11
118.645
 21
1210.58
  0
LINE
  8
0
 10
118.645
 20
1210.58
 11
119.045
 21
1211.06
  0
LINE
  8
0
 10
119.045
 20
1211.06
 11
119.382
 21
1211.59
  0
LINE
  8
0
 10
119.382
 20
1211.59
 11
119.649
 21
1212.16
  0
LINE
  8
0
 10
119.649
 20
1212.16
 11
119.843
 21
1212.76
  0
LINE
  8
0
 10
119.843
 20
1212.76
 11
119.961
 21
1213.37
  0
LINE
  8
0
 10
119.961
 20
1213.37
 11
120
 21
1214
  0
LINE
  8
0
 10
120
 20
1214
 11
120
 21
1414
  0
LINE
  8
0
 10
120
 20
1414
 11
119.961
 21
1414.63
  0
LINE
  8
0
 10
119.961
 20
1414.63
 11
119.843
 21
1415.24
  0
LINE
  8
0
 10
119.843
 20
1415.24
 11
119.649
 21
1415.84
  0
LINE
  8
0
 10
119.649
 20
1415.84
 11
119.382
 21
1416.41
  0
LINE
  8
0
 10
119.382
 20
1416.41
 11
119.045
 21
1416.94
  0
LINE
  8
0
 10
119.045
 20
1416.94
 11
118.645
 21
1417.42
  0
LINE
  8
0
 10
118.645
 20
1417.42
 11
118.187
 21
1417.85
  0
LINE
  8
0
 10
118.187
 20
1417.85
 11
117.679
 21
1418.22
  0
LINE
  8
0
 10
117.679
 20
1418.22
 11
117.129
 21
1418.52
  0
LINE
  8
0
 10
117.129
 20
1418.52
 11
116.545
 21
1418.76
  0
LINE
  8
0
 10
116.545
 20
1418.76
 11
115.937
 21
1418.91
  0
LINE
  8
0
 10
115.937
 20
1418.91
 11
115.314
 21
1418.99
  0
LINE
  8
0
 10
115.314
 20
1418.99
 11
-115.314
 21
1418.99
  0
LINE
  8
0
 10
-115.314
 20
1418.99
 11
-115.937
 21
1418.91
  0
LINE
  8
0
 10
-115.937
 20
1418.91
 11
-116.545
 21
1418.76
  0
LINE
  8
0
 10
-116.545
 20
1418.76
 11
-117.129
 21
1418.52
  0
LINE
  8
0
 10
-117.129
 20
1418.52
 11
-117.679
 21
1418.22
  0
LINE
  8
0
 10
-117.679
 20
1418.22
 11
-118.187
 21
1417.85
  0
LINE
  8
0
 10
-118.187
 20
1417.85
 11
-118.5
 21
1417.56
  0
LINE
  8
0
 10
-118.5
 20
1417.56
 11
-118.5
 21
1418.99
  0
LINE
  8
0
 10
-118.5
 20
1418.99
 11
-121.5
 21
1418.99
  0
LINE
  8
0
 10
-121.5
 20
1418.99
 11
-121.5
 21
1209.01
  0
LINE
  8
0
 10
-121.5
 20
1209.01
 11
-118.5
 21
1209.01
  0
LINE
  8
0
 10
-118.5
 20
1209.01
 11
-118.5
 21
1210.44
  0
LINE
  8
0
 10
-114.751
 20
1210.51
 11
-115.25
 21
1210.57
  0
LINE
  8
0
 10
-115.25
 20
1210.57
 11
-115.736
 21
1210.7
  0
LINE
  8
0
 10
-115.736
 20
1210.7
 11
-116.203
 21
1210.88
  0
LINE
  8
0
 10
-116.203
 20
1210.88
 11
-116.643
 21
1211.12
  0
LINE
  8
0
 10
-116.643
 20
1211.12
 11
-117.05
 21
1211.42
  0
LINE
  8
0
 10
-117.05
 20
1211.42
 11
-117.416
 21
1211.76
  0
LINE
  8
0
 10
-117.416
 20
1211.76
 11
-117.736
 21
1212.15
  0
LINE
  8
0
 10
-117.736
 20
1212.15
 11
-118.005
 21
1212.57
  0
LINE
  8
0
 10
-118.005
 20
1212.57
 11
-118.219
 21
1213.03
  0
LINE
  8
0
 10
-118.219
 20
1213.03
 11
-118.374
 21
1213.51
  0
LINE
  8
0
 10
-118.374
 20
1213.51
 11
-118.468
 21
1214
  0
LINE
  8
0
 10
-118.468
 20
1214
 11
-118.5
 21
1214.5
  0
LINE
  8
0
 10
-118.5
 20
1214.5
 11
-118.5
 21
1413.5
  0
LINE
  8
0
 10
-118.5
 20
1413.5
 11
-118.468
 21
1414
  0
LINE
  8
0
 10
-118.468
 20
1414
 11
-118.374
 21
1414.49
  0
LINE
  8
0
 10
-118.374
 20
1414.49
 11
-118.219
 21
1414.97
  0
LINE
  8
0
 10
-118.219
 20
1414.97
 11
-118.005
 21
1415.43
  0
LINE
  8
0
 10
-118.005
 20
1415.43
 11
-117.736
 21
1415.85
  0
LINE
  8
0
 10
-117.736
 20
1415.85
 11
-117.416
 21
1416.24
  0
LINE
  8
0
 10
-117.416
 20
1416.24
 11
-117.05
 21
1416.58
  0
LINE
  8
0
 10
-117.05
 20
1416.58
 11
-116.643
 21
1416.88
  0
LINE
  8
0
 10
-116.643
 20
1416.88
 11
-116.203
 21
1417.12
  0
LINE
  8
0
 10
-116.203
 20
1417.12
 11
-115.736
 21
1417.3
  0
LINE
  8
0
 10
-115.736
 20
1417.3
 11
-115.25
 21
1417.43
  0
LINE
  8
0
 10
-115.25
 20
1417.43
 11
-114.751
 21
1417.49
  0
LINE
  8
0
 10
-114.751
 20
1417.49
 11
114.751
 21
1417.49
  0
LINE
  8
0
 10
114.751
 20
1417.49
 11
115.25
 21
1417.43
  0
LINE
  8
0
 10
115.25
 20
1417.43
 11
115.736
 21
1417.3
  0
LINE
  8
0
 10
115.736
 20
1417.3
 11
116.203
 21
1417.12
  0
LINE
  8
0
 10
116.203
 20
1417.12
 11
116.643
 21
1416.88
  0
LINE
  8
0
 10
116.643
 20
1416.88
 11
117.05
 21
1416.58
  0
LINE
  8
0
 10
117.05
 20
1416.58
 11
117.416
 21
1416.24
  0
LINE
  8
0
 10
117.416
 20
1416.24
 11
117.736
 21
1415.85
  0
LINE
  8
0
 10
117.736
 20
1415.85
 11
118.005
 21
1415.43
  0
LINE
  8
0
 10
118.005
 20
1415.43
 11
118.219
 21
1414.97
  0
LINE
  8
0
 10
118.219
 20
1414.97
 11
118.374
 21
1414.49
  0
LINE
  8
0
 10
118.374
 20
1414.49
 11
118.468
 21
1414
  0
LINE
  8
0
 10
118.468
 20
1414
 11
118.5
 21
1413.5
  0
LINE
  8
0
 10
118.5
 20
1413.5
 11
118.5
 21
1214.5
  0
LINE
  8
0
 10
118.5
 20
1214.5
 11
118.468
 21
1214
  0
LINE
  8
0
 10
118.468
 20
1214
 11
118.374
 21
1213.51
  0
LINE
  8
0
 10
118.374
 20
1213.51
 11
118.219
 21
1213.03
  0
LINE
  8
0
 10
118.219
 20
1213.03
 11
118.005
 21
1212.57
  0
LINE
  8
0
 10
118.005
 20
1212.57
 11
117.736
 21
1212.15
  0
LINE
  8
0
 10
117.736
 20
1212.15
 11
117.416
 21
1211.76
  0
LINE
  8
0
 10
117.416
 20
1211.76
 11
117.05
 21
1211.42
  0
LINE
  8
0
 10
117.05
 20
1211.42
 11
116.643
 21
1211.12
  0
LINE
  8
0
 10
116.643
 20
1211.12
 11
116.203
 21
1210.88
  0
LINE
  8
0
 10
116.203
 20
1210.88
 11
115.736
 21
1210.7
  0
LINE
  8
0
 10
115.736
 20
1210.7
 11
115.25
 21
1210.57
  0
LINE
  8
0
 10
115.25
 20
1210.57
 11
114.751
 21
1210.51
  0
LINE
  8
0
 10
114.751
 20
1210.51
 11
-114.751
 21
1210.51
  0
LINE
  8
0
 10
-118.5
 20
991.441
 11
-118.187
 21
991.147
  0
LINE
  8
0
 10
-118.187
 20
991.147
 11
-117.679
 21
990.778
  0
LINE
  8
0
 10
-117.679
 20
990.778
 11
-117.129
 21
990.476
  0
LINE
  8
0
 10
-117.129
 20
990.476
 11
-116.545
 21
990.245
  0
LINE
  8
0
 10
-116.545
 20
990.245
 11
-115.937
 21
990.089
  0
LINE
  8
0
 10
-115.937
 20
990.089
 11
-115.314
 21
990.01
  0
LINE
  8
0
 10
-115.314
 20
990.01
 11
115.314
 21
990.01
  0
LINE
  8
0
 10
115.314
 20
990.01
 11
115.937
 21
990.089
  0
LINE
  8
0
 10
115.937
 20
990.089
 11
116.545
 21
990.245
  0
LINE
  8
0
 10
116.545
 20
990.245
 11
117.129
 21
990.476
  0
LINE
  8
0
 10
117.129
 20
990.476
 11
117.679
 21
990.778
  0
LINE
  8
0
 10
117.679
 20
990.778
 11
118.187
 21
991.147
  0
LINE
  8
0
 10
118.187
 20
991.147
 11
118.645
 21
991.577
  0
LINE
  8
0
 10
118.645
 20
991.577
 11
119.045
 21
992.061
  0
LINE
  8
0
 10
119.045
 20
992.061
 11
119.382
 21
992.591
  0
LINE
  8
0
 10
119.382
 20
992.591
 11
119.649
 21
993.159
  0
LINE
  8
0
 10
119.649
 20
993.159
 11
119.843
 21
993.757
  0
LINE
  8
0
 10
119.843
 20
993.757
 11
119.961
 21
994.373
  0
LINE
  8
0
 10
119.961
 20
994.373
 11
120
 21
995
  0
LINE
  8
0
 10
120
 20
995
 11
120
 21
1195
  0
LINE
  8
0
 10
120
 20
1195
 11
119.961
 21
1195.63
  0
LINE
  8
0
 10
119.961
 20
1195.63
 11
119.843
 21
1196.24
  0
LINE
  8
0
 10
119.843
 20
1196.24
 11
119.649
 21
1196.84
  0
LINE
  8
0
 10
119.649
 20
1196.84
 11
119.382
 21
1197.41
  0
LINE
  8
0
 10
119.382
 20
1197.41
 11
119.045
 21
1197.94
  0
LINE
  8
0
 10
119.045
 20
1197.94
 11
118.645
 21
1198.42
  0
LINE
  8
0
 10
118.645
 20
1198.42
 11
118.187
 21
1198.85
  0
LINE
  8
0
 10
118.187
 20
1198.85
 11
117.679
 21
1199.22
  0
LINE
  8
0
 10
117.679
 20
1199.22
 11
117.129
 21
1199.52
  0
LINE
  8
0
 10
117.129
 20
1199.52
 11
116.545
 21
1199.76
  0
LINE
  8
0
 10
116.545
 20
1199.76
 11
115.937
 21
1199.91
  0
LINE
  8
0
 10
115.937
 20
1199.91
 11
115.314
 21
1199.99
  0
LINE
  8
0
 10
115.314
 20
1199.99
 11
-115.314
 21
1199.99
  0
LINE
  8
0
 10
-115.314
 20
1199.99
 11
-115.937
 21
1199.91
  0
LINE
  8
0
 10
-115.937
 20
1199.91
 11
-116.545
 21
1199.76
  0
LINE
  8
0
 10
-116.545
 20
1199.76
 11
-117.129
 21
1199.52
  0
LINE
  8
0
 10
-117.129
 20
1199.52
 11
-117.679
 21
1199.22
  0
LINE
  8
0
 10
-117.679
 20
1199.22
 11
-118.187
 21
1198.85
  0
LINE
  8
0
 10
-118.187
 20
1198.85
 11
-118.5
 21
1198.56
  0
LINE
  8
0
 10
-118.5
 20
1198.56
 11
-118.5
 21
1199.99
  0
LINE
  8
0
 10
-118.5
 20
1199.99
 11
-121.5
 21
1199.99
  0
LINE
  8
0
 10
-121.5
 20
1199.99
 11
-121.5
 21
990.01
  0
LINE
  8
0
 10
-121.5
 20
990.01
 11
-118.5
 21
990.01
  0
LINE
  8
0
 10
-118.5
 20
990.01
 11
-118.5
 21
991.441
  0
LINE
  8
0
 10
-114.743
 20
991.635
 11
-115.226
 21
991.696
  0
LINE
  8
0
 10
-115.226
 20
991.696
 11
-115.697
 21
991.817
  0
LINE
  8
0
 10
-115.697
 20
991.817
 11
-116.149
 21
991.996
  0
LINE
  8
0
 10
-116.149
 20
991.996
 11
-116.575
 21
992.23
  0
LINE
  8
0
 10
-116.575
 20
992.23
 11
-116.969
 21
992.516
  0
LINE
  8
0
 10
-116.969
 20
992.516
 11
-117.323
 21
992.849
  0
LINE
  8
0
 10
-117.323
 20
992.849
 11
-117.633
 21
993.224
  0
LINE
  8
0
 10
-117.633
 20
993.224
 11
-117.894
 21
993.634
  0
LINE
  8
0
 10
-117.894
 20
993.634
 11
-118.101
 21
994.074
  0
LINE
  8
0
 10
-118.101
 20
994.074
 11
-118.251
 21
994.537
  0
LINE
  8
0
 10
-118.251
 20
994.537
 11
-118.342
 21
995.015
  0
LINE
  8
0
 10
-118.342
 20
995.015
 11
-118.373
 21
995.5
  0
LINE
  8
0
 10
-118.373
 20
995.5
 11
-118.373
 21
1194.5
  0
LINE
  8
0
 10
-118.373
 20
1194.5
 11
-118.342
 21
1194.99
  0
LINE
  8
0
 10
-118.342
 20
1194.99
 11
-118.251
 21
1195.46
  0
LINE
  8
0
 10
-118.251
 20
1195.46
 11
-118.101
 21
1195.93
  0
LINE
  8
0
 10
-118.101
 20
1195.93
 11
-117.894
 21
1196.37
  0
LINE
  8
0
 10
-117.894
 20
1196.37
 11
-117.633
 21
1196.78
  0
LINE
  8
0
 10
-117.633
 20
1196.78
 11
-117.323
 21
1197.15
  0
LINE
  8
0
 10
-117.323
 20
1197.15
 11
-116.969
 21
1197.48
  0
LINE
  8
0
 10
-116.969
 20
1197.48
 11
-116.575
 21
1197.77
  0
LINE
  8
0
 10
-116.575
 20
1197.77
 11
-116.149
 21
1198
  0
LINE
  8
0
 10
-116.149
 20
1198
 11
-115.697
 21
1198.18
  0
LINE
  8
0
 10
-115.697
 20
1198.18
 11
-115.226
 21
1198.3
  0
LINE
  8
0
 10
-115.226
 20
1198.3
 11
-114.743
 21
1198.36
  0
LINE
  8
0
 10
-114.743
 20
1198.36
 11
114.743
 21
1198.36
  0
LINE
  8
0
 10
114.743
 20
1198.36
 11
115.226
 21
1198.3
  0
LINE
  8
0
 10
115.226
 20
1198.3
 11
115.697
 21
1198.18
  0
LINE
  8
0
 10
115.697
 20
1198.18
 11
116.149
 21
1198
  0
LINE
  8
0
 10
116.149
 20
1198
 11
116.575
 21
1197.77
  0
LINE
  8
0
 10
116.575
 20
1197.77
 11
116.969
 21
1197.48
  0
LINE
  8
0
 10
116.969
 20
1197.48
 11
117.323
 21
1197.15
  0
LINE
  8
0
 10
117.323
 20
1197.15
 11
117.633
 21
1196.78
  0
LINE
  8
0
 10
117.633
 20
1196.78
 11
117.894
 21
1196.37
  0
LINE
  8
0
 10
117.894
 20
1196.37
 11
118.101
 21
1195.93
  0
LINE
  8
0
 10
118.101
 20
1195.93
 11
118.251
 21
1195.46
  0
LINE
  8
0
 10
118.251
 20
1195.46
 11
118.342
 21
1194.99
  0
LINE
  8
0
 10
118.342
 20
1194.99
 11
118.373
 21
1194.5
  0
LINE
  8
0
 10
118.373
 20
1194.5
 11
118.373
 21
995.5
  0
LINE
  8
0
 10
118.373
 20
995.5
 11
118.342
 21
995.015
  0
LINE
  8
0
 10
118.342
 20
995.015
 11
118.251
 21
994.537
  0
LINE
  8
0
 10
118.251
 20
994.537
 11
118.101
 21
994.074
  0
LINE
  8
0
 10
118.101
 20
994.074
 11
117.894
 21
993.634
  0
LINE
  8
0
 10
117.894
 20
993.634
 11
117.633
 21
993.224
  0
LINE
  8
0
 10
117.633
 20
993.224
 11
117.323
 21
992.849
  0
LINE
  8
0
 10
117.323
 20
992.849
 11
116.969
 21
992.516
  0
LINE
  8
0
 10
116.969
 20
992.516
 11
116.575
 21
992.23
  0
LINE
  8
0
 10
116.575
 20
992.23
 11
116.149
 21
991.996
  0
LINE
  8
0
 10
116.149
 20
991.996
 11
115.697
 21
991.817
  0
LINE
  8
0
 10
115.697
 20
991.817
 11
115.226
 21
991.696
  0
LINE
  8
0
 10
115.226
 20
991.696
 11
114.743
 21
991.635
  0
LINE
  8
0
 10
114.743
 20
991.635
 11
-114.743
 21
991.635
  0
LINE
  8
0
 10
115.937
 20
771.089
 11
116.545
 21
771.245
  0
LINE
  8
0
 10
116.545
 20
771.245
 11
117.129
 21
771.476
  0
LINE
  8
0
 10
117.129
 20
771.476
 11
117.679
 21
771.778
  0
LINE
  8
0
 10
117.679
 20
771.778
 11
118.187
 21
772.147
  0
LINE
  8
0
 10
118.187
 20
772.147
 11
118.645
 21
772.577
  0
LINE
  8
0
 10
118.645
 20
772.577
 11
119.045
 21
773.061
  0
LINE
  8
0
 10
119.045
 20
773.061
 11
119.382
 21
773.591
  0
LINE
  8
0
 10
119.382
 20
773.591
 11
119.649
 21
774.159
  0
LINE
  8
0
 10
119.649
 20
774.159
 11
119.843
 21
774.757
  0
LINE
  8
0
 10
119.843
 20
774.757
 11
119.961
 21
775.373
  0
LINE
  8
0
 10
119.961
 20
775.373
 11
120
 21
776
  0
LINE
  8
0
 10
120
 20
776
 11
120
 21
976
  0
LINE
  8
0
 10
120
 20
976
 11
119.961
 21
976.627
  0
LINE
  8
0
 10
119.961
 20
976.627
 11
119.843
 21
977.243
  0
LINE
  8
0
 10
119.843
 20
977.243
 11
119.649
 21
977.841
  0
LINE
  8
0
 10
119.649
 20
977.841
 11
119.382
 21
978.409
  0
LINE
  8
0
 10
119.382
 20
978.409
 11
119.045
 21
978.939
  0
LINE
  8
0
 10
119.045
 20
978.939
 11
118.645
 21
979.423
  0
LINE
  8
0
 10
118.645
 20
979.423
 11
118.187
 21
979.853
  0
LINE
  8
0
 10
118.187
 20
979.853
 11
117.679
 21
980.222
  0
LINE
  8
0
 10
117.679
 20
980.222
 11
117.129
 21
980.524
  0
LINE
  8
0
 10
117.129
 20
980.524
 11
116.545
 21
980.755
  0
LINE
  8
0
 10
116.545
 20
980.755
 11
115.937
 21
980.911
  0
LINE
  8
0
 10
115.937
 20
980.911
 11
115.314
 21
980.99
  0
LINE
  8
0
 10
115.314
 20
980.99
 11
-115.314
 21
980.99
  0
LINE
  8
0
 10
-115.314
 20
980.99
 11
-115.937
 21
980.911
  0
LINE
  8
0
 10
-115.937
 20
980.911
 11
-116.545
 21
980.755
  0
LINE
  8
0
 10
-116.545
 20
980.755
 11
-117.129
 21
980.524
  0
LINE
  8
0
 10
-117.129
 20
980.524
 11
-117.679
 21
980.222
  0
LINE
  8
0
 10
-117.679
 20
980.222
 11
-118.187
 21
979.853
  0
LINE
  8
0
 10
-118.187
 20
979.853
 11
-118.5
 21
979.559
  0
LINE
  8
0
 10
-118.5
 20
979.559
 11
-118.5
 21
980.615
  0
LINE
  8
0
 10
-118.5
 20
980.615
 11
-121.5
 21
980.615
  0
LINE
  8
0
 10
-121.5
 20
980.615
 11
-121.5
 21
771.385
  0
LINE
  8
0
 10
-121.5
 20
771.385
 11
-118.5
 21
771.385
  0
LINE
  8
0
 10
-118.5
 20
771.385
 11
-118.5
 21
772.441
  0
LINE
  8
0
 10
-118.5
 20
772.441
 11
-118.187
 21
772.147
  0
LINE
  8
0
 10
-118.187
 20
772.147
 11
-117.679
 21
771.778
  0
LINE
  8
0
 10
-117.679
 20
771.778
 11
-117.129
 21
771.476
  0
LINE
  8
0
 10
-117.129
 20
771.476
 11
-116.545
 21
771.245
  0
LINE
  8
0
 10
-116.545
 20
771.245
 11
-115.937
 21
771.089
  0
LINE
  8
0
 10
-115.937
 20
771.089
 11
-115.314
 21
771.01
  0
LINE
  8
0
 10
-115.314
 20
771.01
 11
115.314
 21
771.01
  0
LINE
  8
0
 10
115.314
 20
771.01
 11
115.937
 21
771.089
  0
LINE
  8
0
 10
-112.651
 20
971.105
 11
-112.95
 21
971.143
  0
LINE
  8
0
 10
-112.95
 20
971.143
 11
-113.242
 21
971.217
  0
LINE
  8
0
 10
-113.242
 20
971.217
 11
-113.522
 21
971.328
  0
LINE
  8
0
 10
-113.522
 20
971.328
 11
-113.786
 21
971.474
  0
LINE
  8
0
 10
-113.786
 20
971.474
 11
-114.03
 21
971.651
  0
LINE
  8
0
 10
-114.03
 20
971.651
 11
-114.25
 21
971.857
  0
LINE
  8
0
 10
-114.25
 20
971.857
 11
-114.442
 21
972.089
  0
LINE
  8
0
 10
-114.442
 20
972.089
 11
-114.603
 21
972.344
  0
LINE
  8
0
 10
-114.603
 20
972.344
 11
-114.731
 21
972.617
  0
LINE
  8
0
 10
-114.731
 20
972.617
 11
-114.825
 21
972.903
  0
LINE
  8
0
 10
-114.825
 20
972.903
 11
-114.881
 21
973.199
  0
LINE
  8
0
 10
-114.881
 20
973.199
 11
-114.9
 21
973.5
  0
LINE
  8
0
 10
-114.9
 20
973.5
 11
-114.881
 21
973.801
  0
LINE
  8
0
 10
-114.881
 20
973.801
 11
-114.825
 21
974.097
  0
LINE
  8
0
 10
-114.825
 20
974.097
 11
-114.731
 21
974.383
  0
LINE
  8
0
 10
-114.731
 20
974.383
 11
-114.603
 21
974.656
  0
LINE
  8
0
 10
-114.603
 20
974.656
 11
-114.442
 21
974.911
  0
LINE
  8
0
 10
-114.442
 20
974.911
 11
-114.25
 21
975.143
  0
LINE
  8
0
 10
-114.25
 20
975.143
 11
-114.03
 21
975.349
  0
LINE
  8
0
 10
-114.03
 20
975.349
 11
-113.786
 21
975.526
  0
LINE
  8
0
 10
-113.786
 20
975.526
 11
-113.522
 21
975.672
  0
LINE
  8
0
 10
-113.522
 20
975.672
 11
-113.242
 21
975.783
  0
LINE
  8
0
 10
-113.242
 20
975.783
 11
-112.95
 21
975.857
  0
LINE
  8
0
 10
-112.95
 20
975.857
 11
-112.651
 21
975.895
  0
LINE
  8
0
 10
-112.651
 20
975.895
 11
-112.349
 21
975.895
  0
LINE
  8
0
 10
-112.349
 20
975.895
 11
-112.05
 21
975.857
  0
LINE
  8
0
 10
-112.05
 20
975.857
 11
-111.758
 21
975.783
  0
LINE
  8
0
 10
-111.758
 20
975.783
 11
-111.478
 21
975.672
  0
LINE
  8
0
 10
-111.478
 20
975.672
 11
-111.214
 21
975.526
  0
LINE
  8
0
 10
-111.214
 20
975.526
 11
-110.97
 21
975.349
  0
LINE
  8
0
 10
-110.97
 20
975.349
 11
-110.75
 21
975.143
  0
LINE
  8
0
 10
-110.75
 20
975.143
 11
-110.558
 21
974.911
  0
LINE
  8
0
 10
-110.558
 20
974.911
 11
-110.397
 21
974.656
  0
LINE
  8
0
 10
-110.397
 20
974.656
 11
-110.269
 21
974.383
  0
LINE
  8
0
 10
-110.269
 20
974.383
 11
-110.175
 21
974.097
  0
LINE
  8
0
 10
-110.175
 20
974.097
 11
-110.119
 21
973.801
  0
LINE
  8
0
 10
-110.119
 20
973.801
 11
-110.1
 21
973.5
  0
LINE
  8
0
 10
-110.1
 20
973.5
 11
-110.119
 21
973.199
  0
LINE
  8
0
 10
-110.119
 20
973.199
 11
-110.175
 21
972.903
  0
LINE
  8
0
 10
-110.175
 20
972.903
 11
-110.269
 21
972.617
  0
LINE
  8
0
 10
-110.269
 20
972.617
 11
-110.397
 21
972.344
  0
LINE
  8
0
 10
-110.397
 20
972.344
 11
-110.558
 21
972.089
  0
LINE
  8
0
 10
-110.558
 20
972.089
 11
-110.75
 21
971.857
  0
LINE
  8
0
 10
-110.75
 20
971.857
 11
-110.97
 21
971.651
  0
LINE
  8
0
 10
-110.97
 20
971.651
 11
-111.214
 21
971.474
  0
LINE
  8
0
 10
-111.214
 20
971.474
 11
-111.478
 21
971.328
  0
LINE
  8
0
 10
-111.478
 20
971.328
 11
-111.758
 21
971.217
  0
LINE
  8
0
 10
-111.758
 20
971.217
 11
-112.05
 21
971.143
  0
LINE
  8
0
 10
-112.05
 20
971.143
 11
-112.349
 21
971.105
  0
LINE
  8
0
 10
-112.349
 20
971.105
 11
-112.651
 21
971.105
  0
LINE
  8
0
 10
112.349
 20
971.105
 11
112.05
 21
971.143
  0
LINE
  8
0
 10
112.05
 20
971.143
 11
111.758
 21
971.217
  0
LINE
  8
0
 10
111.758
 20
971.217
 11
111.478
 21
971.328
  0
LINE
  8
0
 10
111.478
 20
971.328
 11
111.214
 21
971.474
  0
LINE
  8
0
 10
111.214
 20
971.474
 11
110.97
 21
971.651
  0
LINE
  8
0
 10
110.97
 20
971.651
 11
110.75
 21
971.857
  0
LINE
  8
0
 10
110.75
 20
971.857
 11
110.558
 21
972.089
  0
LINE
  8
0
 10
110.558
 20
972.089
 11
110.397
 21
972.344
  0
LINE
  8
0
 10
110.397
 20
972.344
 11
110.269
 21
972.617
  0
LINE
  8
0
 10
110.269
 20
972.617
 11
110.175
 21
972.903
  0
LINE
  8
0
 10
110.175
 20
972.903
 11
110.119
 21
973.199
  0
LINE
  8
0
 10
110.119
 20
973.199
 11
110.1
 21
973.5
  0
LINE
  8
0
 10
110.1
 20
973.5
 11
110.119
 21
973.801
  0
LINE
  8
0
 10
110.119
 20
973.801
 11
110.175
 21
974.097
  0
LINE
  8
0
 10
110.175
 20
974.097
 11
110.269
 21
974.383
  0
LINE
  8
0
 10
110.269
 20
974.383
 11
110.397
 21
974.656
  0
LINE
  8
0
 10
110.397
 20
974.656
 11
110.558
 21
974.911
  0
LINE
  8
0
 10
110.558
 20
974.911
 11
110.75
 21
975.143
  0
LINE
  8
0
 10
110.75
 20
975.143
 11
110.97
 21
975.349
  0
LINE
  8
0
 10
110.97
 20
975.349
 11
111.214
 21
975.526
  0
LINE
  8
0
 10
111.214
 20
975.526
 11
111.478
 21
975.672
  0
LINE
  8
0
 10
111.478
 20
975.672
 11
111.758
 21
975.783
  0
LINE
  8
0
 10
111.758
 20
975.783
 11
112.05
 21
975.857
  0
LINE
  8
0
 10
112.05
 20
975.857
 11
112.349
 21
975.895
  0
LINE
  8
0
 10
112.349
 20
975.895
 11
112.651
 21
975.895
  0
LINE
  8
0
 10
112.651
 20
975.895
 11
112.95
 21
975.857
  0
LINE
  8
0
 10
112.95
 20
975.857
 11
113.242
 21
975.783
  0
LINE
  8
0
 10
113.242
 20
975.783
 11
113.522
 21
975.672
  0
LINE
  8
0
 10
113.522
 20
975.672
 11
113.786
 21
975.526
  0
LINE
  8
0
 10
113.786
 20
975.526
 11
114.03
 21
975.349
  0
LINE
  8
0
 10
114.03
 20
975.349
 11
114.25
 21
975.143
  0
LINE
  8
0
 10
114.25
 20
975.143
 11
114.442
 21
974.911
  0
LINE
  8
0
 10
114.442
 20
974.911
 11
114.603
 21
974.656
  0
LINE
  8
0
 10
114.603
 20
974.656
 11
114.731
 21
974.383
  0
LINE
  8
0
 10
114.731
 20
974.383
 11
114.825
 21
974.097
  0
LINE
  8
0
 10
114.825
 20
974.097
 11
114.881
 21
973.801
  0
LINE
  8
0
 10
114.881
 20
973.801
 11
114.9
 21
973.5
  0
LINE
  8
0
 10
114.9
 20
973.5
 11
114.881
 21
973.199
  0
LINE
  8
0
 10
114.881
 20
973.199
 11
114.825
 21
972.903
  0
LINE
  8
0
 10
114.825
 20
972.903
 11
114.731
 21
972.617
  0
LINE
  8
0
 10
114.731
 20
972.617
 11
114.603
 21
972.344
  0
LINE
  8
0
 10
114.603
 20
972.344
 11
114.442
 21
972.089
  0
LINE
  8
0
 10
114.442
 20
972.089
 11
114.25
 21
971.857
  0
LINE
  8
0
 10
114.25
 20
971.857
 11
114.03
 21
971.651
  0
LINE
  8
0
 10
114.03
 20
971.651
 11
113.786
 21
971.474
  0
LINE
  8
0
 10
113.786
 20
971.474
 11
113.522
 21
971.328
  0
LINE
  8
0
 10
113.522
 20
971.328
 11
113.242
 21
971.217
  0
LINE
  8
0
 10
113.242
 20
971.217
 11
112.95
 21
971.143
  0
LINE
  8
0
 10
112.95
 20
971.143
 11
112.651
 21
971.105
  0
LINE
  8
0
 10
112.651
 20
971.105
 11
112.349
 21
971.105
  0
LINE
  8
0
 10
112.349
 20
776.105
 11
112.05
 21
776.143
  0
LINE
  8
0
 10
112.05
 20
776.143
 11
111.758
 21
776.217
  0
LINE
  8
0
 10
111.758
 20
776.217
 11
111.478
 21
776.328
  0
LINE
  8
0
 10
111.478
 20
776.328
 11
111.214
 21
776.474
  0
LINE
  8
0
 10
111.214
 20
776.474
 11
110.97
 21
776.651
  0
LINE
  8
0
 10
110.97
 20
776.651
 11
110.75
 21
776.857
  0
LINE
  8
0
 10
110.75
 20
776.857
 11
110.558
 21
777.089
  0
LINE
  8
0
 10
110.558
 20
777.089
 11
110.397
 21
777.344
  0
LINE
  8
0
 10
110.397
 20
777.344
 11
110.269
 21
777.617
  0
LINE
  8
0
 10
110.269
 20
777.617
 11
110.175
 21
777.903
  0
LINE
  8
0
 10
110.175
 20
777.903
 11
110.119
 21
778.199
  0
LINE
  8
0
 10
110.119
 20
778.199
 11
110.1
 21
778.5
  0
LINE
  8
0
 10
110.1
 20
778.5
 11
110.119
 21
778.801
  0
LINE
  8
0
 10
110.119
 20
778.801
 11
110.175
 21
779.097
  0
LINE
  8
0
 10
110.175
 20
779.097
 11
110.269
 21
779.383
  0
LINE
  8
0
 10
110.269
 20
779.383
 11
110.397
 21
779.656
  0
LINE
  8
0
 10
110.397
 20
779.656
 11
110.558
 21
779.911
  0
LINE
  8
0
 10
110.558
 20
779.911
 11
110.75
 21
780.143
  0
LINE
  8
0
 10
110.75
 20
780.143
 11
110.97
 21
780.349
  0
LINE
  8
0
 10
110.97
 20
780.349
 11
111.214
 21
780.526
  0
LINE
  8
0
 10
111.214
 20
780.526
 11
111.478
 21
780.672
  0
LINE
  8
0
 10
111.478
 20
780.672
 11
111.758
 21
780.783
  0
LINE
  8
0
 10
111.758
 20
780.783
 11
112.05
 21
780.857
  0
LINE
  8
0
 10
112.05
 20
780.857
 11
112.349
 21
780.895
  0
LINE
  8
0
 10
112.349
 20
780.895
 11
112.651
 21
780.895
  0
LINE
  8
0
 10
112.651
 20
780.895
 11
112.95
 21
780.857
  0
LINE
  8
0
 10
112.95
 20
780.857
 11
113.242
 21
780.783
  0
LINE
  8
0
 10
113.242
 20
780.783
 11
113.522
 21
780.672
  0
LINE
  8
0
 10
113.522
 20
780.672
 11
113.786
 21
780.526
  0
LINE
  8
0
 10
113.786
 20
780.526
 11
114.03
 21
780.349
  0
LINE
  8
0
 10
114.03
 20
780.349
 11
114.25
 21
780.143
  0
LINE
  8
0
 10
114.25
 20
780.143
 11
114.442
 21
779.911
  0
LINE
  8
0
 10
114.442
 20
779.911
 11
114.603
 21
779.656
  0
LINE
  8
0
 10
114.603
 20
779.656
 11
114.731
 21
779.383
  0
LINE
  8
0
 10
114.731
 20
779.383
 11
114.825
 21
779.097
  0
LINE
  8
0
 10
114.825
 20
779.097
 11
114.881
 21
778.801
  0
LINE
  8
0
 10
114.881
 20
778.801
 11
114.9
 21
778.5
  0
LINE
  8
0
 10
114.9
 20
778.5
 11
114.881
 21
778.199
  0
LINE
  8
0
 10
114.881
 20
778.199
 11
114.825
 21
777.903
  0
LINE
  8
0
 10
114.825
 20
777.903
 11
114.731
 21
777.617
  0
LINE
  8
0
 10
114.731
 20
777.617
 11
114.603
 21
777.344
  0
LINE
  8
0
 10
114.603
 20
777.344
 11
114.442
 21
777.089
  0
LINE
  8
0
 10
114.442
 20
777.089
 11
114.25
 21
776.857
  0
LINE
  8
0
 10
114.25
 20
776.857
 11
114.03
 21
776.651
  0
LINE
  8
0
 10
114.03
 20
776.651
 11
113.786
 21
776.474
  0
LINE
  8
0
 10
113.786
 20
776.474
 11
113.522
 21
776.328
  0
LINE
  8
0
 10
113.522
 20
776.328
 11
113.242
 21
776.217
  0
LINE
  8
0
 10
113.242
 20
776.217
 11
112.95
 21
776.143
  0
LINE
  8
0
 10
112.95
 20
776.143
 11
112.651
 21
776.105
  0
LINE
  8
0
 10
112.651
 20
776.105
 11
112.349
 21
776.105
  0
LINE
  8
0
 10
-112.651
 20
776.105
 11
-112.95
 21
776.143
  0
LINE
  8
0
 10
-112.95
 20
776.143
 11
-113.242
 21
776.217
  0
LINE
  8
0
 10
-113.242
 20
776.217
 11
-113.522
 21
776.328
  0
LINE
  8
0
 10
-113.522
 20
776.328
 11
-113.786
 21
776.474
  0
LINE
  8
0
 10
-113.786
 20
776.474
 11
-114.03
 21
776.651
  0
LINE
  8
0
 10
-114.03
 20
776.651
 11
-114.25
 21
776.857
  0
LINE
  8
0
 10
-114.25
 20
776.857
 11
-114.442
 21
777.089
  0
LINE
  8
0
 10
-114.442
 20
777.089
 11
-114.603
 21
777.344
  0
LINE
  8
0
 10
-114.603
 20
777.344
 11
-114.731
 21
777.617
  0
LINE
  8
0
 10
-114.731
 20
777.617
 11
-114.825
 21
777.903
  0
LINE
  8
0
 10
-114.825
 20
777.903
 11
-114.881
 21
778.199
  0
LINE
  8
0
 10
-114.881
 20
778.199
 11
-114.9
 21
778.5
  0
LINE
  8
0
 10
-114.9
 20
778.5
 11
-114.881
 21
778.801
  0
LINE
  8
0
 10
-114.881
 20
778.801
 11
-114.825
 21
779.097
  0
LINE
  8
0
 10
-114.825
 20
779.097
 11
-114.731
 21
779.383
  0
LINE
  8
0
 10
-114.731
 20
779.383
 11
-114.603
 21
779.656
  0
LINE
  8
0
 10
-114.603
 20
779.656
 11
-114.442
 21
779.911
  0
LINE
  8
0
 10
-114.442
 20
779.911
 11
-114.25
 21
780.143
  0
LINE
  8
0
 10
-114.25
 20
780.143
 11
-114.03
 21
780.349
  0
LINE
  8
0
 10
-114.03
 20
780.349
 11
-113.786
 21
780.526
  0
LINE
  8
0
 10
-113.786
 20
780.526
 11
-113.522
 21
780.672
  0
LINE
  8
0
 10
-113.522
 20
780.672
 11
-113.242
 21
780.783
  0
LINE
  8
0
 10
-113.242
 20
780.783
 11
-112.95
 21
780.857
  0
LINE
  8
0
 10
-112.95
 20
780.857
 11
-112.651
 21
780.895
  0
LINE
  8
0
 10
-112.651
 20
780.895
 11
-112.349
 21
780.895
  0
LINE
  8
0
 10
-112.349
 20
780.895
 11
-112.05
 21
780.857
  0
LINE
  8
0
 10
-112.05
 20
780.857
 11
-111.758
 21
780.783
  0
LINE
  8
0
 10
-111.758
 20
780.783
 11
-111.478
 21
780.672
  0
LINE
  8
0
 10
-111.478
 20
780.672
 11
-111.214
 21
780.526
  0
LINE
  8
0
 10
-111.214
 20
780.526
 11
-110.97
 21
780.349
  0
LINE
  8
0
 10
-110.97
 20
780.349
 11
-110.75
 21
780.143
  0
LINE
  8
0
 10
-110.75
 20
780.143
 11
-110.558
 21
779.911
  0
LINE
  8
0
 10
-110.558
 20
779.911
 11
-110.397
 21
779.656
  0
LINE
  8
0
 10
-110.397
 20
779.656
 11
-110.269
 21
779.383
  0
LINE
  8
0
 10
-110.269
 20
779.383
 11
-110.175
 21
779.097
  0
LINE
  8
0
 10
-110.175
 20
779.097
 11
-110.119
 21
778.801
  0
LINE
  8
0
 10
-110.119
 20
778.801
 11
-110.1
 21
778.5
  0
LINE
  8
0
 10
-110.1
 20
778.5
 11
-110.119
 21
778.199
  0
LINE
  8
0
 10
-110.119
 20
778.199
 11
-110.175
 21
777.903
  0
LINE
  8
0
 10
-110.175
 20
777.903
 11
-110.269
 21
777.617
  0
LINE
  8
0
 10
-110.269
 20
777.617
 11
-110.397
 21
777.344
  0
LINE
  8
0
 10
-110.397
 20
777.344
 11
-110.558
 21
777.089
  0
LINE
  8
0
 10
-110.558
 20
777.089
 11
-110.75
 21
776.857
  0
LINE
  8
0
 10
-110.75
 20
776.857
 11
-110.97
 21
776.651
  0
LINE
  8
0
 10
-110.97
 20
776.651
 11
-111.214
 21
776.474
  0
LINE
  8
0
 10
-111.214
 20
776.474
 11
-111.478
 21
776.328
  0
LINE
  8
0
 10
-111.478
 20
776.328
 11
-111.758
 21
776.217
  0
LINE
  8
0
 10
-111.758
 20
776.217
 11
-112.05
 21
776.143
  0
LINE
  8
0
 10
-112.05
 20
776.143
 11
-112.349
 21
776.105
  0
LINE
  8
0
 10
-112.349
 20
776.105
 11
-112.651
 21
776.105
  0
LINE
  8
0
 10
115.937
 20
552.089
 11
116.545
 21
552.245
  0
LINE
  8
0
 10
116.545
 20
552.245
 11
117.129
 21
552.476
  0
LINE
  8
0
 10
117.129
 20
552.476
 11
117.679
 21
552.778
  0
LINE
  8
0
 10
117.679
 20
552.778
 11
118.187
 21
553.147
  0
LINE
  8
0
 10
118.187
 20
553.147
 11
118.645
 21
553.577
  0
LINE
  8
0
 10
118.645
 20
553.577
 11
119.045
 21
554.061
  0
LINE
  8
0
 10
119.045
 20
554.061
 11
119.382
 21
554.591
  0
LINE
  8
0
 10
119.382
 20
554.591
 11
119.649
 21
555.159
  0
LINE
  8
0
 10
119.649
 20
555.159
 11
119.843
 21
555.757
  0
LINE
  8
0
 10
119.843
 20
555.757
 11
119.961
 21
556.373
  0
LINE
  8
0
 10
119.961
 20
556.373
 11
120
 21
557
  0
LINE
  8
0
 10
120
 20
557
 11
120
 21
757
  0
LINE
  8
0
 10
120
 20
757
 11
119.961
 21
757.627
  0
LINE
  8
0
 10
119.961
 20
757.627
 11
119.843
 21
758.243
  0
LINE
  8
0
 10
119.843
 20
758.243
 11
119.649
 21
758.841
  0
LINE
  8
0
 10
119.649
 20
758.841
 11
119.382
 21
759.409
  0
LINE
  8
0
 10
119.382
 20
759.409
 11
119.045
 21
759.939
  0
LINE
  8
0
 10
119.045
 20
759.939
 11
118.645
 21
760.423
  0
LINE
  8
0
 10
118.645
 20
760.423
 11
118.187
 21
760.853
  0
LINE
  8
0
 10
118.187
 20
760.853
 11
117.679
 21
761.222
  0
LINE
  8
0
 10
117.679
 20
761.222
 11
117.129
 21
761.524
  0
LINE
  8
0
 10
117.129
 20
761.524
 11
116.545
 21
761.755
  0
LINE
  8
0
 10
116.545
 20
761.755
 11
115.937
 21
761.911
  0
LINE
  8
0
 10
115.937
 20
761.911
 11
115.314
 21
761.99
  0
LINE
  8
0
 10
115.314
 20
761.99
 11
-115.314
 21
761.99
  0
LINE
  8
0
 10
-115.314
 20
761.99
 11
-115.937
 21
761.911
  0
LINE
  8
0
 10
-115.937
 20
761.911
 11
-116.545
 21
761.755
  0
LINE
  8
0
 10
-116.545
 20
761.755
 11
-117.129
 21
761.524
  0
LINE
  8
0
 10
-117.129
 20
761.524
 11
-117.679
 21
761.222
  0
LINE
  8
0
 10
-117.679
 20
761.222
 11
-118.187
 21
760.853
  0
LINE
  8
0
 10
-118.187
 20
760.853
 11
-118.645
 21
760.423
  0
LINE
  8
0
 10
-118.645
 20
760.423
 11
-119.045
 21
759.939
  0
LINE
  8
0
 10
-119.045
 20
759.939
 11
-119.382
 21
759.409
  0
LINE
  8
0
 10
-119.382
 20
759.409
 11
-119.649
 21
758.841
  0
LINE
  8
0
 10
-119.649
 20
758.841
 11
-119.843
 21
758.243
  0
LINE
  8
0
 10
-119.843
 20
758.243
 11
-119.9
 21
757.944
  0
LINE
  8
0
 10
-119.9
 20
757.944
 11
-121.5
 21
757.944
  0
LINE
  8
0
 10
-121.5
 20
757.944
 11
-121.5
 21
556.056
  0
LINE
  8
0
 10
-121.5
 20
556.056
 11
-119.9
 21
556.056
  0
LINE
  8
0
 10
-119.9
 20
556.056
 11
-119.843
 21
555.757
  0
LINE
  8
0
 10
-119.843
 20
555.757
 11
-119.649
 21
555.159
  0
LINE
  8
0
 10
-119.649
 20
555.159
 11
-119.382
 21
554.591
  0
LINE
  8
0
 10
-119.382
 20
554.591
 11
-119.045
 21
554.061
  0
LINE
  8
0
 10
-119.045
 20
554.061
 11
-118.645
 21
553.577
  0
LINE
  8
0
 10
-118.645
 20
553.577
 11
-118.187
 21
553.147
  0
LINE
  8
0
 10
-118.187
 20
553.147
 11
-117.679
 21
552.778
  0
LINE
  8
0
 10
-117.679
 20
552.778
 11
-117.129
 21
552.476
  0
LINE
  8
0
 10
-117.129
 20
552.476
 11
-116.545
 21
552.245
  0
LINE
  8
0
 10
-116.545
 20
552.245
 11
-115.937
 21
552.089
  0
LINE
  8
0
 10
-115.937
 20
552.089
 11
-115.314
 21
552.01
  0
LINE
  8
0
 10
-115.314
 20
552.01
 11
115.314
 21
552.01
  0
LINE
  8
0
 10
115.314
 20
552.01
 11
115.937
 21
552.089
  0
LINE
  8
0
 10
112.387
 20
752.704
 11
112.163
 21
752.732
  0
LINE
  8
0
 10
112.163
 20
752.732
 11
111.944
 21
752.788
  0
LINE
  8
0
 10
111.944
 20
752.788
 11
111.734
 21
752.871
  0
LINE
  8
0
 10
111.734
 20
752.871
 11
111.536
 21
752.98
  0
LINE
  8
0
 10
111.536
 20
752.98
 11
111.353
 21
753.113
  0
LINE
  8
0
 10
111.353
 20
753.113
 11
111.188
 21
753.268
  0
LINE
  8
0
 10
111.188
 20
753.268
 11
111.044
 21
753.442
  0
LINE
  8
0
 10
111.044
 20
753.442
 11
110.923
 21
753.633
  0
LINE
  8
0
 10
110.923
 20
753.633
 11
110.826
 21
753.837
  0
LINE
  8
0
 10
110.826
 20
753.837
 11
110.757
 21
754.052
  0
LINE
  8
0
 10
110.757
 20
754.052
 11
110.714
 21
754.274
  0
LINE
  8
0
 10
110.714
 20
754.274
 11
110.7
 21
754.5
  0
LINE
  8
0
 10
110.7
 20
754.5
 11
110.714
 21
754.726
  0
LINE
  8
0
 10
110.714
 20
754.726
 11
110.757
 21
754.948
  0
LINE
  8
0
 10
110.757
 20
754.948
 11
110.826
 21
755.163
  0
LINE
  8
0
 10
110.826
 20
755.163
 11
110.923
 21
755.367
  0
LINE
  8
0
 10
110.923
 20
755.367
 11
111.044
 21
755.558
  0
LINE
  8
0
 10
111.044
 20
755.558
 11
111.188
 21
755.732
  0
LINE
  8
0
 10
111.188
 20
755.732
 11
111.353
 21
755.887
  0
LINE
  8
0
 10
111.353
 20
755.887
 11
111.536
 21
756.02
  0
LINE
  8
0
 10
111.536
 20
756.02
 11
111.734
 21
756.129
  0
LINE
  8
0
 10
111.734
 20
756.129
 11
111.944
 21
756.212
  0
LINE
  8
0
 10
111.944
 20
756.212
 11
112.163
 21
756.268
  0
LINE
  8
0
 10
112.163
 20
756.268
 11
112.387
 21
756.296
  0
LINE
  8
0
 10
112.387
 20
756.296
 11
112.613
 21
756.296
  0
LINE
  8
0
 10
112.613
 20
756.296
 11
112.837
 21
756.268
  0
LINE
  8
0
 10
112.837
 20
756.268
 11
113.056
 21
756.212
  0
LINE
  8
0
 10
113.056
 20
756.212
 11
113.266
 21
756.129
  0
LINE
  8
0
 10
113.266
 20
756.129
 11
113.464
 21
756.02
  0
LINE
  8
0
 10
113.464
 20
756.02
 11
113.647
 21
755.887
  0
LINE
  8
0
 10
113.647
 20
755.887
 11
113.812
 21
755.732
  0
LINE
  8
0
 10
113.812
 20
755.732
 11
113.956
 21
755.558
  0
LINE
  8
0
 10
113.956
 20
755.558
 11
114.077
 21
755.367
  0
LINE
  8
0
 10
114.077
 20
755.367
 11
114.174
 21
755.163
  0
LINE
  8
0
 10
114.174
 20
755.163
 11
114.243
 21
754.948
  0
LINE
  8
0
 10
114.243
 20
754.948
 11
114.286
 21
754.726
  0
LINE
  8
0
 10
114.286
 20
754.726
 11
114.3
 21
754.5
  0
LINE
  8
0
 10
114.3
 20
754.5
 11
114.286
 21
754.274
  0
LINE
  8
0
 10
114.286
 20
754.274
 11
114.243
 21
754.052
  0
LINE
  8
0
 10
114.243
 20
754.052
 11
114.174
 21
753.837
  0
LINE
  8
0
 10
114.174
 20
753.837
 11
114.077
 21
753.633
  0
LINE
  8
0
 10
114.077
 20
753.633
 11
113.956
 21
753.442
  0
LINE
  8
0
 10
113.956
 20
753.442
 11
113.812
 21
753.268
  0
LINE
  8
0
 10
113.812
 20
753.268
 11
113.647
 21
753.113
  0
LINE
  8
0
 10
113.647
 20
753.113
 11
113.464
 21
752.98
  0
LINE
  8
0
 10
113.464
 20
752.98
 11
113.266
 21
752.871
  0
LINE
  8
0
 10
113.266
 20
752.871
 11
113.056
 21
752.788
  0
LINE
  8
0
 10
113.056
 20
752.788
 11
112.837
 21
752.732
  0
LINE
  8
0
 10
112.837
 20
752.732
 11
112.613
 21
752.704
  0
LINE
  8
0
 10
112.613
 20
752.704
 11
112.387
 21
752.704
  0
LINE
  8
0
 10
-112.613
 20
752.704
 11
-112.837
 21
752.732
  0
LINE
  8
0
 10
-112.837
 20
752.732
 11
-113.056
 21
752.788
  0
LINE
  8
0
 10
-113.056
 20
752.788
 11
-113.266
 21
752.871
  0
LINE
  8
0
 10
-113.266
 20
752.871
 11
-113.464
 21
752.98
  0
LINE
  8
0
 10
-113.464
 20
752.98
 11
-113.647
 21
753.113
  0
LINE
  8
0
 10
-113.647
 20
753.113
 11
-113.812
 21
753.268
  0
LINE
  8
0
 10
-113.812
 20
753.268
 11
-113.956
 21
753.442
  0
LINE
  8
0
 10
-113.956
 20
753.442
 11
-114.077
 21
753.633
  0
LINE
  8
0
 10
-114.077
 20
753.633
 11
-114.174
 21
753.837
  0
LINE
  8
0
 10
-114.174
 20
753.837
 11
-114.243
 21
754.052
  0
LINE
  8
0
 10
-114.243
 20
754.052
 11
-114.286
 21
754.274
  0
LINE
  8
0
 10
-114.286
 20
754.274
 11
-114.3
 21
754.5
  0
LINE
  8
0
 10
-114.3
 20
754.5
 11
-114.286
 21
754.726
  0
LINE
  8
0
 10
-114.286
 20
754.726
 11
-114.243
 21
754.948
  0
LINE
  8
0
 10
-114.243
 20
754.948
 11
-114.174
 21
755.163
  0
LINE
  8
0
 10
-114.174
 20
755.163
 11
-114.077
 21
755.367
  0
LINE
  8
0
 10
-114.077
 20
755.367
 11
-113.956
 21
755.558
  0
LINE
  8
0
 10
-113.956
 20
755.558
 11
-113.812
 21
755.732
  0
LINE
  8
0
 10
-113.812
 20
755.732
 11
-113.647
 21
755.887
  0
LINE
  8
0
 10
-113.647
 20
755.887
 11
-113.464
 21
756.02
  0
LINE
  8
0
 10
-113.464
 20
756.02
 11
-113.266
 21
756.129
  0
LINE
  8
0
 10
-113.266
 20
756.129
 11
-113.056
 21
756.212
  0
LINE
  8
0
 10
-113.056
 20
756.212
 11
-112.837
 21
756.268
  0
LINE
  8
0
 10
-112.837
 20
756.268
 11
-112.613
 21
756.296
  0
LINE
  8
0
 10
-112.613
 20
756.296
 11
-112.387
 21
756.296
  0
LINE
  8
0
 10
-112.387
 20
756.296
 11
-112.163
 21
756.268
  0
LINE
  8
0
 10
-112.163
 20
756.268
 11
-111.944
 21
756.212
  0
LINE
  8
0
 10
-111.944
 20
756.212
 11
-111.734
 21
756.129
  0
LINE
  8
0
 10
-111.734
 20
756.129
 11
-111.536
 21
756.02
  0
LINE
  8
0
 10
-111.536
 20
756.02
 11
-111.353
 21
755.887
  0
LINE
  8
0
 10
-111.353
 20
755.887
 11
-111.188
 21
755.732
  0
LINE
  8
0
 10
-111.188
 20
755.732
 11
-111.044
 21
755.558
  0
LINE
  8
0
 10
-111.044
 20
755.558
 11
-110.923
 21
755.367
  0
LINE
  8
0
 10
-110.923
 20
755.367
 11
-110.826
 21
755.163
  0
LINE
  8
0
 10
-110.826
 20
755.163
 11
-110.757
 21
754.948
  0
LINE
  8
0
 10
-110.757
 20
754.948
 11
-110.714
 21
754.726
  0
LINE
  8
0
 10
-110.714
 20
754.726
 11
-110.7
 21
754.5
  0
LINE
  8
0
 10
-110.7
 20
754.5
 11
-110.714
 21
754.274
  0
LINE
  8
0
 10
-110.714
 20
754.274
 11
-110.757
 21
754.052
  0
LINE
  8
0
 10
-110.757
 20
754.052
 11
-110.826
 21
753.837
  0
LINE
  8
0
 10
-110.826
 20
753.837
 11
-110.923
 21
753.633
  0
LINE
  8
0
 10
-110.923
 20
753.633
 11
-111.044
 21
753.442
  0
LINE
  8
0
 10
-111.044
 20
753.442
 11
-111.188
 21
753.268
  0
LINE
  8
0
 10
-111.188
 20
753.268
 11
-111.353
 21
753.113
  0
LINE
  8
0
 10
-111.353
 20
753.113
 11
-111.536
 21
752.98
  0
LINE
  8
0
 10
-111.536
 20
752.98
 11
-111.734
 21
752.871
  0
LINE
  8
0
 10
-111.734
 20
752.871
 11
-111.944
 21
752.788
  0
LINE
  8
0
 10
-111.944
 20
752.788
 11
-112.163
 21
752.732
  0
LINE
  8
0
 10
-112.163
 20
752.732
 11
-112.387
 21
752.704
  0
LINE
  8
0
 10
-112.387
 20
752.704
 11
-112.613
 21
752.704
  0
LINE
  8
0
 10
-112.613
 20
557.704
 11
-112.837
 21
557.732
  0
LINE
  8
0
 10
-112.837
 20
557.732
 11
-113.056
 21
557.788
  0
LINE
  8
0
 10
-113.056
 20
557.788
 11
-113.266
 21
557.871
  0
LINE
  8
0
 10
-113.266
 20
557.871
 11
-113.464
 21
557.98
  0
LINE
  8
0
 10
-113.464
 20
557.98
 11
-113.647
 21
558.113
  0
LINE
  8
0
 10
-113.647
 20
558.113
 11
-113.812
 21
558.268
  0
LINE
  8
0
 10
-113.812
 20
558.268
 11
-113.956
 21
558.442
  0
LINE
  8
0
 10
-113.956
 20
558.442
 11
-114.077
 21
558.633
  0
LINE
  8
0
 10
-114.077
 20
558.633
 11
-114.174
 21
558.837
  0
LINE
  8
0
 10
-114.174
 20
558.837
 11
-114.243
 21
559.052
  0
LINE
  8
0
 10
-114.243
 20
559.052
 11
-114.286
 21
559.274
  0
LINE
  8
0
 10
-114.286
 20
559.274
 11
-114.3
 21
559.5
  0
LINE
  8
0
 10
-114.3
 20
559.5
 11
-114.286
 21
559.726
  0
LINE
  8
0
 10
-114.286
 20
559.726
 11
-114.243
 21
559.948
  0
LINE
  8
0
 10
-114.243
 20
559.948
 11
-114.174
 21
560.163
  0
LINE
  8
0
 10
-114.174
 20
560.163
 11
-114.077
 21
560.367
  0
LINE
  8
0
 10
-114.077
 20
560.367
 11
-113.956
 21
560.558
  0
LINE
  8
0
 10
-113.956
 20
560.558
 11
-113.812
 21
560.732
  0
LINE
  8
0
 10
-113.812
 20
560.732
 11
-113.647
 21
560.887
  0
LINE
  8
0
 10
-113.647
 20
560.887
 11
-113.464
 21
561.02
  0
LINE
  8
0
 10
-113.464
 20
561.02
 11
-113.266
 21
561.129
  0
LINE
  8
0
 10
-113.266
 20
561.129
 11
-113.056
 21
561.212
  0
LINE
  8
0
 10
-113.056
 20
561.212
 11
-112.837
 21
561.268
  0
LINE
  8
0
 10
-112.837
 20
561.268
 11
-112.613
 21
561.296
  0
LINE
  8
0
 10
-112.613
 20
561.296
 11
-112.387
 21
561.296
  0
LINE
  8
0
 10
-112.387
 20
561.296
 11
-112.163
 21
561.268
  0
LINE
  8
0
 10
-112.163
 20
561.268
 11
-111.944
 21
561.212
  0
LINE
  8
0
 10
-111.944
 20
561.212
 11
-111.734
 21
561.129
  0
LINE
  8
0
 10
-111.734
 20
561.129
 11
-111.536
 21
561.02
  0
LINE
  8
0
 10
-111.536
 20
561.02
 11
-111.353
 21
560.887
  0
LINE
  8
0
 10
-111.353
 20
560.887
 11
-111.188
 21
560.732
  0
LINE
  8
0
 10
-111.188
 20
560.732
 11
-111.044
 21
560.558
  0
LINE
  8
0
 10
-111.044
 20
560.558
 11
-110.923
 21
560.367
  0
LINE
  8
0
 10
-110.923
 20
560.367
 11
-110.826
 21
560.163
  0
LINE
  8
0
 10
-110.826
 20
560.163
 11
-110.757
 21
559.948
  0
LINE
  8
0
 10
-110.757
 20
559.948
 11
-110.714
 21
559.726
  0
LINE
  8
0
 10
-110.714
 20
559.726
 11
-110.7
 21
559.5
  0
LINE
  8
0
 10
-110.7
 20
559.5
 11
-110.714
 21
559.274
  0
LINE
  8
0
 10
-110.714
 20
559.274
 11
-110.757
 21
559.052
  0
LINE
  8
0
 10
-110.757
 20
559.052
 11
-110.826
 21
558.837
  0
LINE
  8
0
 10
-110.826
 20
558.837
 11
-110.923
 21
558.633
  0
LINE
  8
0
 10
-110.923
 20
558.633
 11
-111.044
 21
558.442
  0
LINE
  8
0
 10
-111.044
 20
558.442
 11
-111.188
 21
558.268
  0
LINE
  8
0
 10
-111.188
 20
558.268
 11
-111.353
 21
558.113
  0
LINE
  8
0
 10
-111.353
 20
558.113
 11
-111.536
 21
557.98
  0
LINE
  8
0
 10
-111.536
 20
557.98
 11
-111.734
 21
557.871
  0
LINE
  8
0
 10
-111.734
 20
557.871
 11
-111.944
 21
557.788
  0
LINE
  8
0
 10
-111.944
 20
557.788
 11
-112.163
 21
557.732
  0
LINE
  8
0
 10
-112.163
 20
557.732
 11
-112.387
 21
557.704
  0
LINE
  8
0
 10
-112.387
 20
557.704
 11
-112.613
 21
557.704
  0
LINE
  8
0
 10
112.387
 20
557.704
 11
112.163
 21
557.732
  0
LINE
  8
0
 10
112.163
 20
557.732
 11
111.944
 21
557.788
  0
LINE
  8
0
 10
111.944
 20
557.788
 11
111.734
 21
557.871
  0
LINE
  8
0
 10
111.734
 20
557.871
 11
111.536
 21
557.98
  0
LINE
  8
0
 10
111.536
 20
557.98
 11
111.353
 21
558.113
  0
LINE
  8
0
 10
111.353
 20
558.113
 11
111.188
 21
558.268
  0
LINE
  8
0
 10
111.188
 20
558.268
 11
111.044
 21
558.442
  0
LINE
  8
0
 10
111.044
 20
558.442
 11
110.923
 21
558.633
  0
LINE
  8
0
 10
110.923
 20
558.633
 11
110.826
 21
558.837
  0
LINE
  8
0
 10
110.826
 20
558.837
 11
110.757
 21
559.052
  0
LINE
  8
0
 10
110.757
 20
559.052
 11
110.714
 21
559.274
  0
LINE
  8
0
 10
110.714
 20
559.274
 11
110.7
 21
559.5
  0
LINE
  8
0
 10
110.7
 20
559.5
 11
110.714
 21
559.726
  0
LINE
  8
0
 10
110.714
 20
559.726
 11
110.757
 21
559.948
  0
LINE
  8
0
 10
110.757
 20
559.948
 11
110.826
 21
560.163
  0
LINE
  8
0
 10
110.826
 20
560.163
 11
110.923
 21
560.367
  0
LINE
  8
0
 10
110.923
 20
560.367
 11
111.044
 21
560.558
  0
LINE
  8
0
 10
111.044
 20
560.558
 11
111.188
 21
560.732
  0
LINE
  8
0
 10
111.188
 20
560.732
 11
111.353
 21
560.887
  0
LINE
  8
0
 10
111.353
 20
560.887
 11
111.536
 21
561.02
  0
LINE
  8
0
 10
111.536
 20
561.02
 11
111.734
 21
561.129
  0
LINE
  8
0
 10
111.734
 20
561.129
 11
111.944
 21
561.212
  0
LINE
  8
0
 10
111.944
 20
561.212
 11
112.163
 21
561.268
  0
LINE
  8
0
 10
112.163
 20
561.268
 11
112.387
 21
561.296
  0
LINE
  8
0
 10
112.387
 20
561.296
 11
112.613
 21
561.296
  0
LINE
  8
0
 10
112.613
 20
561.296
 11
112.837
 21
561.268
  0
LINE
  8
0
 10
112.837
 20
561.268
 11
113.056
 21
561.212
  0
LINE
  8
0
 10
113.056
 20
561.212
 11
113.266
 21
561.129
  0
LINE
  8
0
 10
113.266
 20
561.129
 11
113.464
 21
561.02
  0
LINE
  8
0
 10
113.464
 20
561.02
 11
113.647
 21
560.887
  0
LINE
  8
0
 10
113.647
 20
560.887
 11
113.812
 21
560.732
  0
LINE
  8
0
 10
113.812
 20
560.732
 11
113.956
 21
560.558
  0
LINE
  8
0
 10
113.956
 20
560.558
 11
114.077
 21
560.367
  0
LINE
  8
0
 10
114.077
 20
560.367
 11
114.174
 21
560.163
  0
LINE
  8
0
 10
114.174
 20
560.163
 11
114.243
 21
559.948
  0
LINE
  8
0
 10
114.243
 20
559.948
 11
114.286
 21
559.726
  0
LINE
  8
0
 10
114.286
 20
559.726
 11
114.3
 21
559.5
  0
LINE
  8
0
 10
114.3
 20
559.5
 11
114.286
 21
559.274
  0
LINE
  8
0
 10
114.286
 20
559.274
 11
114.243
 21
559.052
  0
LINE
  8
0
 10
114.243
 20
559.052
 11
114.174
 21
558.837
  0
LINE
  8
0
 10
114.174
 20
558.837
 11
114.077
 21
558.633
  0
LINE
  8
0
 10
114.077
 20
558.633
 11
113.956
 21
558.442
  0
LINE
  8
0
 10
113.956
 20
558.442
 11
113.812
 21
558.268
  0
LINE
  8
0
 10
113.812
 20
558.268
 11
113.647
 21
558.113
  0
LINE
  8
0
 10
113.647
 20
558.113
 11
113.464
 21
557.98
  0
LINE
  8
0
 10
113.464
 20
557.98
 11
113.266
 21
557.871
  0
LINE
  8
0
 10
113.266
 20
557.871
 11
113.056
 21
557.788
  0
LINE
  8
0
 10
113.056
 20
557.788
 11
112.837
 21
557.732
  0
LINE
  8
0
 10
112.837
 20
557.732
 11
112.613
 21
557.704
  0
LINE
  8
0
 10
112.613
 20
557.704
 11
112.387
 21
557.704
  0
ENDSEC
  0
SECTION
  2
OBJECTS
  0
DICTIONARY
  0
ENDSEC
  0
EOF
