<?xml version="1.0" standalone="no"?>
<!DOCTYPE svg PUBLIC "-//W3C//DTD SVG 1.1//EN" "http://www.w3.org/Graphics/SVG/1.1/DTD/svg11.dtd">
<svg width="300mm" height="486mm" viewBox="-150 -936 300 486" xmlns="http://www.w3.org/2000/svg" version="1.1">
<title>OpenSCAD Model</title>
<path d="
M 145.937,-846.089 L 146.545,-846.245 L 147.129,-846.476 L 147.679,-846.778 L 148.187,-847.147 L 148.645,-847.577
 L 149.045,-848.061 L 149.382,-848.591 L 149.649,-849.159 L 149.843,-849.757 L 149.961,-850.373 L 150,-851
 L 150,-931 L 149.961,-931.627 L 149.843,-932.243 L 149.649,-932.841 L 149.382,-933.409 L 149.045,-933.939
 L 148.645,-934.423 L 148.187,-934.853 L 147.679,-935.222 L 147.129,-935.524 L 146.545,-935.755 L 145.937,-935.911
 L 145.314,-935.99 L -145.314,-935.99 L -145.937,-935.911 L -146.545,-935.755 L -147.129,-935.524 L -147.679,-935.222
 L -148.187,-934.853 L -148.645,-934.423 L -149.045,-933.939 L -149.382,-933.409 L -149.649,-932.841 L -149.843,-932.243
 L -149.961,-931.627 L -150,-931 L -150,-851 L -149.961,-850.373 L -149.843,-849.757 L -149.649,-849.159
 L -149.382,-848.591 L -149.045,-848.061 L -148.645,-847.577 L -148.187,-847.147 L -147.679,-846.778 L -147.129,-846.476
 L -146.545,-846.245 L -145.937,-846.089 L -145.314,-846.01 L 145.314,-846.01 z
M -145.048,-846.509 L -145.64,-846.584 L -146.218,-846.732 L -146.772,-846.952 L -147.295,-847.239 L -147.778,-847.59
 L -148.213,-847.998 L -148.593,-848.458 L -148.912,-848.962 L -149.166,-849.501 L -149.351,-850.069 L -149.463,-850.655
 L -149.5,-851.25 L -149.5,-930.75 L -149.463,-931.345 L -149.351,-931.931 L -149.166,-932.499 L -148.912,-933.038
 L -148.593,-933.542 L -148.213,-934.002 L -147.778,-934.41 L -147.295,-934.761 L -146.772,-935.048 L -146.218,-935.268
 L -145.64,-935.416 L -145.048,-935.491 L 145.048,-935.491 L 145.64,-935.416 L 146.218,-935.268 L 146.772,-935.048
 L 147.295,-934.761 L 147.778,-934.41 L 148.213,-934.002 L 148.593,-933.542 L 148.912,-933.038 L 149.166,-932.499
 L 149.351,-931.931 L 149.463,-931.345 L 149.5,-930.75 L 149.5,-851.25 L 149.463,-850.655 L 149.351,-850.069
 L 149.166,-849.501 L 148.912,-848.962 L 148.593,-848.458 L 148.213,-847.998 L 147.778,-847.59 L 147.295,-847.239
 L 146.772,-846.952 L 146.218,-846.732 L 145.64,-846.584 L 145.048,-846.509 z
M 145.937,-747.089 L 146.545,-747.245 L 147.129,-747.476 L 147.679,-747.778 L 148.187,-748.147 L 148.645,-748.577
 L 149.045,-749.061 L 149.382,-749.591 L 149.649,-750.159 L 149.843,-750.757 L 149.961,-751.373 L 150,-752
 L 150,-832 L 149.961,-832.627 L 149.843,-833.243 L 149.649,-833.841 L 149.382,-834.409 L 149.045,-834.939
 L 148.645,-835.423 L 148.187,-835.853 L 147.679,-836.222 L 147.129,-836.524 L 146.545,-836.755 L 145.937,-836.911
 L 145.314,-836.99 L -145.314,-836.99 L -145.937,-836.911 L -146.545,-836.755 L -147.129,-836.524 L -147.679,-836.222
 L -148.187,-835.853 L -148.645,-835.423 L -149.045,-834.939 L -149.382,-834.409 L -149.649,-833.841 L -149.843,-833.243
 L -149.961,-832.627 L -150,-832 L -150,-752 L -149.961,-751.373 L -149.843,-750.757 L -149.649,-750.159
 L -149.382,-749.591 L -149.045,-749.061 L -148.645,-748.577 L -148.187,-748.147 L -147.679,-747.778 L -147.129,-747.476
 L -146.545,-747.245 L -145.937,-747.089 L -145.314,-747.01 L 145.314,-747.01 z
M -145.048,-747.509 L -145.64,-747.584 L -146.218,-747.732 L -146.772,-747.952 L -147.295,-748.239 L -147.778,-748.59
 L -148.213,-748.998 L -148.593,-749.458 L -148.912,-749.962 L -149.166,-750.501 L -149.351,-751.069 L -149.463,-751.655
 L -149.5,-752.25 L -149.5,-831.75 L -149.463,-832.345 L -149.351,-832.931 L -149.166,-833.499 L -148.912,-834.038
 L -148.593,-834.542 L -148.213,-835.002 L -147.778,-835.41 L -147.295,-835.761 L -146.772,-836.048 L -146.218,-836.268
 L -145.64,-836.416 L -145.048,-836.491 L 145.048,-836.491 L 145.64,-836.416 L 146.218,-836.268 L 146.772,-836.048
 L 147.295,-835.761 L 147.778,-835.41 L 148.213,-835.002 L 148.593,-834.542 L 148.912,-834.038 L 149.166,-833.499
 L 149.351,-832.931 L 149.463,-832.345 L 149.5,-831.75 L 149.5,-752.25 L 149.463,-751.655 L 149.351,-751.069
 L 149.166,-750.501 L 148.912,-749.962 L 148.593,-749.458 L 148.213,-748.998 L 147.778,-748.59 L 147.295,-748.239
 L 146.772,-747.952 L 146.218,-747.732 L 145.64,-747.584 L 145.048,-747.509 z
M 145.937,-648.089 L 146.545,-648.245 L 147.129,-648.476 L 147.679,-648.778 L 148.187,-649.147 L 148.645,-649.577
 L 149.045,-650.061 L 149.382,-650.591 L 149.649,-651.159 L 149.843,-651.757 L 149.961,-652.373 L 150,-653
 L 150,-733 L 149.961,-733.627 L 149.843,-734.243 L 149.649,-734.841 L 149.382,-735.409 L 149.045,-735.939
 L 148.645,-736.423 L 148.187,-736.853 L 147.679,-737.222 L 147.129,-737.524 L 146.545,-737.755 L 145.937,-737.911
 L 145.314,-737.99 L -145.314,-737.99 L -145.937,-737.911 L -146.545,-737.755 L -147.129,-737.524 L -147.679,-737.222
 L -148.187,-736.853 L -148.645,-736.423 L -149.045,-735.939 L -149.382,-735.409 L -149.649,-734.841 L -149.843,-734.243
 L -149.961,-733.627 L -150,-733 L -150,-653 L -149.961,-652.373 L -149.843,-651.757 L -149.649,-651.159
 L -149.382,-650.591 L -149.045,-650.061 L -148.645,-649.577 L -148.187,-649.147 L -147.679,-648.778 L -147.129,-648.476
 L -146.545,-648.245 L -145.937,-648.089 L -145.314,-648.01 L 145.314,-648.01 z
M -145.048,-648.509 L -145.64,-648.584 L -146.218,-648.732 L -146.772,-648.952 L -147.295,-649.239 L -147.778,-649.59
 L -148.213,-649.998 L -148.593,-650.458 L -148.912,-650.962 L -149.166,-651.501 L -149.351,-652.069 L -149.463,-652.655
 L -149.5,-653.25 L -149.5,-732.75 L -149.463,-733.345 L -149.351,-733.931 L -149.166,-734.499 L -148.912,-735.038
 L -148.593,-735.542 L -148.213,-736.002 L -147.778,-736.41 L -147.295,-736.761 L -146.772,-737.048 L -146.218,-737.268
 L -145.64,-737.416 L -145.048,-737.491 L 145.048,-737.491 L 145.64,-737.416 L 146.218,-737.268 L 146.772,-737.048
 L 147.295,-736.761 L 147.778,-736.41 L 148.213,-736.002 L 148.593,-735.542 L 148.912,-735.038 L 149.166,-734.499
 L 149.351,-733.931 L 149.463,-733.345 L 149.5,-732.75 L 149.5,-653.25 L 149.463,-652.655 L 149.351,-652.069
 L 149.166,-651.501 L 148.912,-650.962 L 148.593,-650.458 L 148.213,-649.998 L 147.778,-649.59 L 147.295,-649.239
 L 146.772,-648.952 L 146.218,-648.732 L 145.64,-648.584 L 145.048,-648.509 z
M 145.937,-549.089 L 146.545,-549.245 L 147.129,-549.476 L 147.679,-549.778 L 148.187,-550.147 L 148.645,-550.577
 L 149.045,-551.061 L 149.382,-551.591 L 149.649,-552.159 L 149.843,-552.757 L 149.961,-553.373 L 150,-554
 L 150,-634 L 149.961,-634.627 L 149.843,-635.243 L 149.649,-635.841 L 149.382,-636.409 L 149.045,-636.939
 L 148.645,-637.423 L 148.187,-637.853 L 147.679,-638.222 L 147.129,-638.524 L 146.545,-638.755 L 145.937,-638.911
 L 145.314,-638.99 L -145.314,-638.99 L -145.937,-638.911 L -146.545,-638.755 L -147.129,-638.524 L -147.679,-638.222
 L -148.187,-637.853 L -148.645,-637.423 L -149.045,-636.939 L -149.382,-636.409 L -149.649,-635.841 L -149.843,-635.243
 L -149.961,-634.627 L -150,-634 L -150,-554 L -149.961,-553.373 L -149.843,-552.757 L -149.649,-552.159
 L -149.382,-551.591 L -149.045,-551.061 L -148.645,-550.577 L -148.187,-550.147 L -147.679,-549.778 L -147.129,-549.476
 L -146.545,-549.245 L -145.937,-549.089 L -145.314,-549.01 L 145.314,-549.01 z
M -145.037,-549.681 L -145.608,-549.753 L -146.165,-549.896 L -146.699,-550.107 L -147.203,-550.384 L -147.668,-550.722
 L -148.088,-551.116 L -148.454,-551.559 L -148.762,-552.044 L -149.007,-552.565 L -149.185,-553.111 L -149.292,-553.676
 L -149.328,-554.25 L -149.328,-633.75 L -149.292,-634.324 L -149.185,-634.889 L -149.007,-635.435 L -148.762,-635.956
 L -148.454,-636.441 L -148.088,-636.884 L -147.668,-637.278 L -147.203,-637.616 L -146.699,-637.893 L -146.165,-638.104
 L -145.608,-638.247 L -145.037,-638.319 L 145.037,-638.319 L 145.608,-638.247 L 146.165,-638.104 L 146.699,-637.893
 L 147.203,-637.616 L 147.668,-637.278 L 148.088,-636.884 L 148.454,-636.441 L 148.762,-635.956 L 149.007,-635.435
 L 149.185,-634.889 L 149.292,-634.324 L 149.328,-633.75 L 149.328,-554.25 L 149.292,-553.676 L 149.185,-553.111
 L 149.007,-552.565 L 148.762,-552.044 L 148.454,-551.559 L 148.088,-551.116 L 147.668,-550.722 L 147.203,-550.384
 L 146.699,-550.107 L 146.165,-549.896 L 145.608,-549.753 L 145.037,-549.681 z
M 145.937,-450.089 L 146.545,-450.245 L 147.129,-450.476 L 147.679,-450.778 L 148.187,-451.147 L 148.645,-451.577
 L 149.045,-452.061 L 149.382,-452.591 L 149.649,-453.159 L 149.843,-453.757 L 149.961,-454.373 L 150,-455
 L 150,-535 L 149.961,-535.627 L 149.843,-536.243 L 149.649,-536.841 L 149.382,-537.409 L 149.045,-537.939
 L 148.645,-538.423 L 148.187,-538.853 L 147.679,-539.222 L 147.129,-539.524 L 146.545,-539.755 L 145.937,-539.911
 L 145.314,-539.99 L -145.314,-539.99 L -145.937,-539.911 L -146.545,-539.755 L -147.129,-539.524 L -147.679,-539.222
 L -148.187,-538.853 L -148.645,-538.423 L -149.045,-537.939 L -149.382,-537.409 L -149.649,-536.841 L -149.843,-536.243
 L -149.961,-535.627 L -150,-535 L -150,-455 L -149.961,-454.373 L -149.843,-453.757 L -149.649,-453.159
 L -149.382,-452.591 L -149.045,-452.061 L -148.645,-451.577 L -148.187,-451.147 L -147.679,-450.778 L -147.129,-450.476
 L -146.545,-450.245 L -145.937,-450.089 L -145.314,-450.01 L 145.314,-450.01 z
M -144.882,-453.145 L -145.145,-453.178 L -145.402,-453.244 L -145.648,-453.341 L -145.88,-453.469 L -146.095,-453.625
 L -146.288,-453.806 L -146.457,-454.01 L -146.599,-454.234 L -146.711,-454.473 L -146.793,-454.725 L -146.843,-454.986
 L -146.86,-455.25 L -146.86,-534.75 L -146.843,-535.014 L -146.793,-535.275 L -146.711,-535.527 L -146.599,-535.766
 L -146.457,-535.99 L -146.288,-536.194 L -146.095,-536.375 L -145.88,-536.531 L -145.648,-536.659 L -145.402,-536.756
 L -145.145,-536.822 L -144.882,-536.855 L 144.882,-536.855 L 145.145,-536.822 L 145.402,-536.756 L 145.648,-536.659
 L 145.88,-536.531 L 146.095,-536.375 L 146.288,-536.194 L 146.457,-535.99 L 146.599,-535.766 L 146.711,-535.527
 L 146.793,-535.275 L 146.843,-535.014 L 146.86,-534.75 L 146.86,-455.25 L 146.843,-454.986 L 146.793,-454.725
 L 146.711,-454.473 L 146.599,-454.234 L 146.457,-454.01 L 146.288,-453.806 L 146.095,-453.625 L 145.88,-453.469
 L 145.648,-453.341 L 145.402,-453.244 L 145.145,-453.178 L 144.882,-453.145 z
" stroke="black" fill="lightgray" stroke-width="0.5"/>
</svg>
