<?xml version="1.0" standalone="no"?>
<!DOCTYPE svg PUBLIC "-//W3C//DTD SVG 1.1//EN" "http://www.w3.org/Graphics/SVG/1.1/DTD/svg11.dtd">
<svg width="287mm" height="309mm" viewBox="-144 -393 287 309" xmlns="http://www.w3.org/2000/svg" version="1.1">
<title>OpenSCAD Model</title>
<path d="
M 138.437,-243.089 L 139.045,-243.245 L 139.629,-243.476 L 140.179,-243.778 L 140.687,-244.147 L 141.145,-244.577
 L 141.545,-245.061 L 141.882,-245.591 L 142.149,-246.159 L 142.343,-246.757 L 142.461,-247.373 L 142.5,-248
 L 142.5,-388 L 142.461,-388.627 L 142.343,-389.243 L 142.149,-389.841 L 141.882,-390.409 L 141.545,-390.939
 L 141.145,-391.423 L 140.687,-391.853 L 140.179,-392.222 L 139.629,-392.524 L 139.045,-392.755 L 138.437,-392.911
 L 137.814,-392.99 L -137.814,-392.99 L -138.437,-392.911 L -139.045,-392.755 L -139.629,-392.524 L -140.179,-392.222
 L -140.687,-391.853 L -141,-391.559 L -141,-392.615 L -144,-392.615 L -144,-243.385 L -141,-243.385
 L -141,-244.441 L -140.687,-244.147 L -140.179,-243.778 L -139.629,-243.476 L -139.045,-243.245 L -138.437,-243.089
 L -137.814,-243.01 L 137.814,-243.01 z
M 134.849,-383.105 L 134.55,-383.143 L 134.258,-383.217 L 133.978,-383.328 L 133.714,-383.474 L 133.47,-383.651
 L 133.25,-383.857 L 133.058,-384.089 L 132.897,-384.344 L 132.769,-384.617 L 132.675,-384.903 L 132.619,-385.199
 L 132.6,-385.5 L 132.619,-385.801 L 132.675,-386.097 L 132.769,-386.383 L 132.897,-386.656 L 133.058,-386.911
 L 133.25,-387.143 L 133.47,-387.349 L 133.714,-387.526 L 133.978,-387.672 L 134.258,-387.783 L 134.55,-387.857
 L 134.849,-387.895 L 135.151,-387.895 L 135.45,-387.857 L 135.742,-387.783 L 136.022,-387.672 L 136.286,-387.526
 L 136.53,-387.349 L 136.75,-387.143 L 136.942,-386.911 L 137.103,-386.656 L 137.231,-386.383 L 137.325,-386.097
 L 137.381,-385.801 L 137.4,-385.5 L 137.381,-385.199 L 137.325,-384.903 L 137.231,-384.617 L 137.103,-384.344
 L 136.942,-384.089 L 136.75,-383.857 L 136.53,-383.651 L 136.286,-383.474 L 136.022,-383.328 L 135.742,-383.217
 L 135.45,-383.143 L 135.151,-383.105 z
M -135.151,-383.105 L -135.45,-383.143 L -135.742,-383.217 L -136.022,-383.328 L -136.286,-383.474 L -136.53,-383.651
 L -136.75,-383.857 L -136.942,-384.089 L -137.103,-384.344 L -137.231,-384.617 L -137.325,-384.903 L -137.381,-385.199
 L -137.4,-385.5 L -137.381,-385.801 L -137.325,-386.097 L -137.231,-386.383 L -137.103,-386.656 L -136.942,-386.911
 L -136.75,-387.143 L -136.53,-387.349 L -136.286,-387.526 L -136.022,-387.672 L -135.742,-387.783 L -135.45,-387.857
 L -135.151,-387.895 L -134.849,-387.895 L -134.55,-387.857 L -134.258,-387.783 L -133.978,-387.672 L -133.714,-387.526
 L -133.47,-387.349 L -133.25,-387.143 L -133.058,-386.911 L -132.897,-386.656 L -132.769,-386.383 L -132.675,-386.097
 L -132.619,-385.801 L -132.6,-385.5 L -132.619,-385.199 L -132.675,-384.903 L -132.769,-384.617 L -132.897,-384.344
 L -133.058,-384.089 L -133.25,-383.857 L -133.47,-383.651 L -133.714,-383.474 L -133.978,-383.328 L -134.258,-383.217
 L -134.55,-383.143 L -134.849,-383.105 z
M 134.849,-248.105 L 134.55,-248.143 L 134.258,-248.217 L 133.978,-248.328 L 133.714,-248.474 L 133.47,-248.651
 L 133.25,-248.857 L 133.058,-249.089 L 132.897,-249.344 L 132.769,-249.617 L 132.675,-249.903 L 132.619,-250.199
 L 132.6,-250.5 L 132.619,-250.801 L 132.675,-251.097 L 132.769,-251.383 L 132.897,-251.656 L 133.058,-251.911
 L 133.25,-252.143 L 133.47,-252.349 L 133.714,-252.526 L 133.978,-252.672 L 134.258,-252.783 L 134.55,-252.857
 L 134.849,-252.895 L 135.151,-252.895 L 135.45,-252.857 L 135.742,-252.783 L 136.022,-252.672 L 136.286,-252.526
 L 136.53,-252.349 L 136.75,-252.143 L 136.942,-251.911 L 137.103,-251.656 L 137.231,-251.383 L 137.325,-251.097
 L 137.381,-250.801 L 137.4,-250.5 L 137.381,-250.199 L 137.325,-249.903 L 137.231,-249.617 L 137.103,-249.344
 L 136.942,-249.089 L 136.75,-248.857 L 136.53,-248.651 L 136.286,-248.474 L 136.022,-248.328 L 135.742,-248.217
 L 135.45,-248.143 L 135.151,-248.105 z
M -135.151,-248.105 L -135.45,-248.143 L -135.742,-248.217 L -136.022,-248.328 L -136.286,-248.474 L -136.53,-248.651
 L -136.75,-248.857 L -136.942,-249.089 L -137.103,-249.344 L -137.231,-249.617 L -137.325,-249.903 L -137.381,-250.199
 L -137.4,-250.5 L -137.381,-250.801 L -137.325,-251.097 L -137.231,-251.383 L -137.103,-251.656 L -136.942,-251.911
 L -136.75,-252.143 L -136.53,-252.349 L -136.286,-252.526 L -136.022,-252.672 L -135.742,-252.783 L -135.45,-252.857
 L -135.151,-252.895 L -134.849,-252.895 L -134.55,-252.857 L -134.258,-252.783 L -133.978,-252.672 L -133.714,-252.526
 L -133.47,-252.349 L -133.25,-252.143 L -133.058,-251.911 L -132.897,-251.656 L -132.769,-251.383 L -132.675,-251.097
 L -132.619,-250.801 L -132.6,-250.5 L -132.619,-250.199 L -132.675,-249.903 L -132.769,-249.617 L -132.897,-249.344
 L -133.058,-249.089 L -133.25,-248.857 L -133.47,-248.651 L -133.714,-248.474 L -133.978,-248.328 L -134.258,-248.217
 L -134.55,-248.143 L -134.849,-248.105 z
M 138.437,-84.0886 L 139.045,-84.2447 L 139.629,-84.4759 L 140.179,-84.7784 L 140.687,-85.1474 L 141.145,-85.5773
 L 141.545,-86.0611 L 141.882,-86.5912 L 142.149,-87.1594 L 142.343,-87.7566 L 142.461,-88.3733 L 142.5,-89
 L 142.5,-229 L 142.461,-229.627 L 142.343,-230.243 L 142.149,-230.841 L 141.882,-231.409 L 141.545,-231.939
 L 141.145,-232.423 L 140.687,-232.853 L 140.179,-233.222 L 139.629,-233.524 L 139.045,-233.755 L 138.437,-233.911
 L 137.814,-233.99 L -137.814,-233.99 L -138.437,-233.911 L -139.045,-233.755 L -139.629,-233.524 L -140.179,-233.222
 L -140.687,-232.853 L -141.145,-232.423 L -141.545,-231.939 L -141.882,-231.409 L -142.149,-230.841 L -142.343,-230.243
 L -142.4,-229.944 L -144,-229.944 L -144,-88.0558 L -142.4,-88.0558 L -142.343,-87.7566 L -142.149,-87.1594
 L -141.882,-86.5912 L -141.545,-86.0611 L -141.145,-85.5773 L -140.687,-85.1474 L -140.179,-84.7784 L -139.629,-84.4759
 L -139.045,-84.2447 L -138.437,-84.0886 L -137.814,-84.0099 L 137.814,-84.0099 z
M 134.887,-224.704 L 134.663,-224.732 L 134.444,-224.788 L 134.234,-224.871 L 134.036,-224.98 L 133.853,-225.113
 L 133.688,-225.268 L 133.544,-225.442 L 133.423,-225.633 L 133.326,-225.837 L 133.257,-226.052 L 133.214,-226.274
 L 133.2,-226.5 L 133.214,-226.726 L 133.257,-226.948 L 133.326,-227.163 L 133.423,-227.367 L 133.544,-227.558
 L 133.688,-227.732 L 133.853,-227.887 L 134.036,-228.02 L 134.234,-228.129 L 134.444,-228.212 L 134.663,-228.268
 L 134.887,-228.296 L 135.113,-228.296 L 135.337,-228.268 L 135.556,-228.212 L 135.766,-228.129 L 135.964,-228.02
 L 136.147,-227.887 L 136.312,-227.732 L 136.456,-227.558 L 136.577,-227.367 L 136.674,-227.163 L 136.743,-226.948
 L 136.786,-226.726 L 136.8,-226.5 L 136.786,-226.274 L 136.743,-226.052 L 136.674,-225.837 L 136.577,-225.633
 L 136.456,-225.442 L 136.312,-225.268 L 136.147,-225.113 L 135.964,-224.98 L 135.766,-224.871 L 135.556,-224.788
 L 135.337,-224.732 L 135.113,-224.704 z
M -135.113,-224.704 L -135.337,-224.732 L -135.556,-224.788 L -135.766,-224.871 L -135.964,-224.98 L -136.147,-225.113
 L -136.312,-225.268 L -136.456,-225.442 L -136.577,-225.633 L -136.674,-225.837 L -136.743,-226.052 L -136.786,-226.274
 L -136.8,-226.5 L -136.786,-226.726 L -136.743,-226.948 L -136.674,-227.163 L -136.577,-227.367 L -136.456,-227.558
 L -136.312,-227.732 L -136.147,-227.887 L -135.964,-228.02 L -135.766,-228.129 L -135.556,-228.212 L -135.337,-228.268
 L -135.113,-228.296 L -134.887,-228.296 L -134.663,-228.268 L -134.444,-228.212 L -134.234,-228.129 L -134.036,-228.02
 L -133.853,-227.887 L -133.688,-227.732 L -133.544,-227.558 L -133.423,-227.367 L -133.326,-227.163 L -133.257,-226.948
 L -133.214,-226.726 L -133.2,-226.5 L -133.214,-226.274 L -133.257,-226.052 L -133.326,-225.837 L -133.423,-225.633
 L -133.544,-225.442 L -133.688,-225.268 L -133.853,-225.113 L -134.036,-224.98 L -134.234,-224.871 L -134.444,-224.788
 L -134.663,-224.732 L -134.887,-224.704 z
M -135.113,-89.7036 L -135.337,-89.7319 L -135.556,-89.7881 L -135.766,-89.8713 L -135.964,-89.9802 L -136.147,-90.1131
 L -136.312,-90.2678 L -136.456,-90.442 L -136.577,-90.6328 L -136.674,-90.8374 L -136.743,-91.0524 L -136.786,-91.2744
 L -136.8,-91.5 L -136.786,-91.7256 L -136.743,-91.9476 L -136.674,-92.1626 L -136.577,-92.3672 L -136.456,-92.558
 L -136.312,-92.7322 L -136.147,-92.8869 L -135.964,-93.0198 L -135.766,-93.1287 L -135.556,-93.2119 L -135.337,-93.2681
 L -135.113,-93.2964 L -134.887,-93.2964 L -134.663,-93.2681 L -134.444,-93.2119 L -134.234,-93.1287 L -134.036,-93.0198
 L -133.853,-92.8869 L -133.688,-92.7322 L -133.544,-92.558 L -133.423,-92.3672 L -133.326,-92.1626 L -133.257,-91.9476
 L -133.214,-91.7256 L -133.2,-91.5 L -133.214,-91.2744 L -133.257,-91.0524 L -133.326,-90.8374 L -133.423,-90.6328
 L -133.544,-90.442 L -133.688,-90.2678 L -133.853,-90.1131 L -134.036,-89.9802 L -134.234,-89.8713 L -134.444,-89.7881
 L -134.663,-89.7319 L -134.887,-89.7036 z
M 134.887,-89.7036 L 134.663,-89.7319 L 134.444,-89.7881 L 134.234,-89.8713 L 134.036,-89.9802 L 133.853,-90.1131
 L 133.688,-90.2678 L 133.544,-90.442 L 133.423,-90.6328 L 133.326,-90.8374 L 133.257,-91.0524 L 133.214,-91.2744
 L 133.2,-91.5 L 133.214,-91.7256 L 133.257,-91.9476 L 133.326,-92.1626 L 133.423,-92.3672 L 133.544,-92.558
 L 133.688,-92.7322 L 133.853,-92.8869 L 134.036,-93.0198 L 134.234,-93.1287 L 134.444,-93.2119 L 134.663,-93.2681
 L 134.887,-93.2964 L 135.113,-93.2964 L 135.337,-93.2681 L 135.556,-93.2119 L 135.766,-93.1287 L 135.964,-93.0198
 L 136.147,-92.8869 L 136.312,-92.7322 L 136.456,-92.558 L 136.577,-92.3672 L 136.674,-92.1626 L 136.743,-91.9476
 L 136.786,-91.7256 L 136.8,-91.5 L 136.786,-91.2744 L 136.743,-91.0524 L 136.674,-90.8374 L 136.577,-90.6328
 L 136.456,-90.442 L 136.312,-90.2678 L 136.147,-90.1131 L 135.964,-89.9802 L 135.766,-89.8713 L 135.556,-89.7881
 L 135.337,-89.7319 L 135.113,-89.7036 z
" stroke="black" fill="lightgray" stroke-width="0.5"/>
</svg>
