<?xml version="1.0" standalone="no"?>
<!DOCTYPE svg PUBLIC "-//W3C//DTD SVG 1.1//EN" "http://www.w3.org/Graphics/SVG/1.1/DTD/svg11.dtd">
<svg width="240mm" height="549mm" viewBox="-120 -693 240 549" xmlns="http://www.w3.org/2000/svg" version="1.1">
<title>OpenSCAD Model</title>
<path d="
M 115.937,-423.089 L 116.545,-423.245 L 117.129,-423.476 L 117.679,-423.778 L 118.187,-424.147 L 118.645,-424.577
 L 119.045,-425.061 L 119.382,-425.591 L 119.649,-426.159 L 119.843,-426.757 L 119.961,-427.373 L 120,-428
 L 120,-688 L 119.961,-688.627 L 119.843,-689.243 L 119.649,-689.841 L 119.382,-690.409 L 119.045,-690.939
 L 118.645,-691.423 L 118.187,-691.853 L 117.679,-692.222 L 117.129,-692.524 L 116.545,-692.755 L 115.937,-692.911
 L 115.314,-692.99 L -115.314,-692.99 L -115.937,-692.911 L -116.545,-692.755 L -117.129,-692.524 L -117.679,-692.222
 L -118.187,-691.853 L -118.645,-691.423 L -119.045,-690.939 L -119.382,-690.409 L -119.649,-689.841 L -119.843,-689.243
 L -119.961,-688.627 L -120,-688 L -120,-428 L -119.961,-427.373 L -119.843,-426.757 L -119.649,-426.159
 L -119.382,-425.591 L -119.045,-425.061 L -118.645,-424.577 L -118.187,-424.147 L -117.679,-423.778 L -117.129,-423.476
 L -116.545,-423.245 L -115.937,-423.089 L -115.314,-423.01 L 115.314,-423.01 z
M 112.349,-683.105 L 112.05,-683.143 L 111.758,-683.217 L 111.478,-683.328 L 111.214,-683.474 L 110.97,-683.651
 L 110.75,-683.857 L 110.558,-684.089 L 110.397,-684.344 L 110.269,-684.617 L 110.175,-684.903 L 110.119,-685.199
 L 110.1,-685.5 L 110.119,-685.801 L 110.175,-686.097 L 110.269,-686.383 L 110.397,-686.656 L 110.558,-686.911
 L 110.75,-687.143 L 110.97,-687.349 L 111.214,-687.526 L 111.478,-687.672 L 111.758,-687.783 L 112.05,-687.857
 L 112.349,-687.895 L 112.651,-687.895 L 112.95,-687.857 L 113.242,-687.783 L 113.522,-687.672 L 113.786,-687.526
 L 114.03,-687.349 L 114.25,-687.143 L 114.442,-686.911 L 114.603,-686.656 L 114.731,-686.383 L 114.825,-686.097
 L 114.881,-685.801 L 114.9,-685.5 L 114.881,-685.199 L 114.825,-684.903 L 114.731,-684.617 L 114.603,-684.344
 L 114.442,-684.089 L 114.25,-683.857 L 114.03,-683.651 L 113.786,-683.474 L 113.522,-683.328 L 113.242,-683.217
 L 112.95,-683.143 L 112.651,-683.105 z
M -112.651,-683.105 L -112.95,-683.143 L -113.242,-683.217 L -113.522,-683.328 L -113.786,-683.474 L -114.03,-683.651
 L -114.25,-683.857 L -114.442,-684.089 L -114.603,-684.344 L -114.731,-684.617 L -114.825,-684.903 L -114.881,-685.199
 L -114.9,-685.5 L -114.881,-685.801 L -114.825,-686.097 L -114.731,-686.383 L -114.603,-686.656 L -114.442,-686.911
 L -114.25,-687.143 L -114.03,-687.349 L -113.786,-687.526 L -113.522,-687.672 L -113.242,-687.783 L -112.95,-687.857
 L -112.651,-687.895 L -112.349,-687.895 L -112.05,-687.857 L -111.758,-687.783 L -111.478,-687.672 L -111.214,-687.526
 L -110.97,-687.349 L -110.75,-687.143 L -110.558,-686.911 L -110.397,-686.656 L -110.269,-686.383 L -110.175,-686.097
 L -110.119,-685.801 L -110.1,-685.5 L -110.119,-685.199 L -110.175,-684.903 L -110.269,-684.617 L -110.397,-684.344
 L -110.558,-684.089 L -110.75,-683.857 L -110.97,-683.651 L -111.214,-683.474 L -111.478,-683.328 L -111.758,-683.217
 L -112.05,-683.143 L -112.349,-683.105 z
M 112.349,-428.105 L 112.05,-428.143 L 111.758,-428.217 L 111.478,-428.328 L 111.214,-428.474 L 110.97,-428.651
 L 110.75,-428.857 L 110.558,-429.089 L 110.397,-429.344 L 110.269,-429.617 L 110.175,-429.903 L 110.119,-430.199
 L 110.1,-430.5 L 110.119,-430.801 L 110.175,-431.097 L 110.269,-431.383 L 110.397,-431.656 L 110.558,-431.911
 L 110.75,-432.143 L 110.97,-432.349 L 111.214,-432.526 L 111.478,-432.672 L 111.758,-432.783 L 112.05,-432.857
 L 112.349,-432.895 L 112.651,-432.895 L 112.95,-432.857 L 113.242,-432.783 L 113.522,-432.672 L 113.786,-432.526
 L 114.03,-432.349 L 114.25,-432.143 L 114.442,-431.911 L 114.603,-431.656 L 114.731,-431.383 L 114.825,-431.097
 L 114.881,-430.801 L 114.9,-430.5 L 114.881,-430.199 L 114.825,-429.903 L 114.731,-429.617 L 114.603,-429.344
 L 114.442,-429.089 L 114.25,-428.857 L 114.03,-428.651 L 113.786,-428.474 L 113.522,-428.328 L 113.242,-428.217
 L 112.95,-428.143 L 112.651,-428.105 z
M -112.651,-428.105 L -112.95,-428.143 L -113.242,-428.217 L -113.522,-428.328 L -113.786,-428.474 L -114.03,-428.651
 L -114.25,-428.857 L -114.442,-429.089 L -114.603,-429.344 L -114.731,-429.617 L -114.825,-429.903 L -114.881,-430.199
 L -114.9,-430.5 L -114.881,-430.801 L -114.825,-431.097 L -114.731,-431.383 L -114.603,-431.656 L -114.442,-431.911
 L -114.25,-432.143 L -114.03,-432.349 L -113.786,-432.526 L -113.522,-432.672 L -113.242,-432.783 L -112.95,-432.857
 L -112.651,-432.895 L -112.349,-432.895 L -112.05,-432.857 L -111.758,-432.783 L -111.478,-432.672 L -111.214,-432.526
 L -110.97,-432.349 L -110.75,-432.143 L -110.558,-431.911 L -110.397,-431.656 L -110.269,-431.383 L -110.175,-431.097
 L -110.119,-430.801 L -110.1,-430.5 L -110.119,-430.199 L -110.175,-429.903 L -110.269,-429.617 L -110.397,-429.344
 L -110.558,-429.089 L -110.75,-428.857 L -110.97,-428.651 L -111.214,-428.474 L -111.478,-428.328 L -111.758,-428.217
 L -112.05,-428.143 L -112.349,-428.105 z
M 115.937,-144.089 L 116.545,-144.245 L 117.129,-144.476 L 117.679,-144.778 L 118.187,-145.147 L 118.645,-145.577
 L 119.045,-146.061 L 119.382,-146.591 L 119.649,-147.159 L 119.843,-147.757 L 119.961,-148.373 L 120,-149
 L 120,-409 L 119.961,-409.627 L 119.843,-410.243 L 119.649,-410.841 L 119.382,-411.409 L 119.045,-411.939
 L 118.645,-412.423 L 118.187,-412.853 L 117.679,-413.222 L 117.129,-413.524 L 116.545,-413.755 L 115.937,-413.911
 L 115.314,-413.99 L -115.314,-413.99 L -115.937,-413.911 L -116.545,-413.755 L -117.129,-413.524 L -117.679,-413.222
 L -118.187,-412.853 L -118.645,-412.423 L -119.045,-411.939 L -119.382,-411.409 L -119.649,-410.841 L -119.843,-410.243
 L -119.961,-409.627 L -120,-409 L -120,-149 L -119.961,-148.373 L -119.843,-147.757 L -119.649,-147.159
 L -119.382,-146.591 L -119.045,-146.061 L -118.645,-145.577 L -118.187,-145.147 L -117.679,-144.778 L -117.129,-144.476
 L -116.545,-144.245 L -115.937,-144.089 L -115.314,-144.01 L 115.314,-144.01 z
M 112.387,-404.704 L 112.163,-404.732 L 111.944,-404.788 L 111.734,-404.871 L 111.536,-404.98 L 111.353,-405.113
 L 111.188,-405.268 L 111.044,-405.442 L 110.923,-405.633 L 110.826,-405.837 L 110.757,-406.052 L 110.714,-406.274
 L 110.7,-406.5 L 110.714,-406.726 L 110.757,-406.948 L 110.826,-407.163 L 110.923,-407.367 L 111.044,-407.558
 L 111.188,-407.732 L 111.353,-407.887 L 111.536,-408.02 L 111.734,-408.129 L 111.944,-408.212 L 112.163,-408.268
 L 112.387,-408.296 L 112.613,-408.296 L 112.837,-408.268 L 113.056,-408.212 L 113.266,-408.129 L 113.464,-408.02
 L 113.647,-407.887 L 113.812,-407.732 L 113.956,-407.558 L 114.077,-407.367 L 114.174,-407.163 L 114.243,-406.948
 L 114.286,-406.726 L 114.3,-406.5 L 114.286,-406.274 L 114.243,-406.052 L 114.174,-405.837 L 114.077,-405.633
 L 113.956,-405.442 L 113.812,-405.268 L 113.647,-405.113 L 113.464,-404.98 L 113.266,-404.871 L 113.056,-404.788
 L 112.837,-404.732 L 112.613,-404.704 z
M -112.613,-404.704 L -112.837,-404.732 L -113.056,-404.788 L -113.266,-404.871 L -113.464,-404.98 L -113.647,-405.113
 L -113.812,-405.268 L -113.956,-405.442 L -114.077,-405.633 L -114.174,-405.837 L -114.243,-406.052 L -114.286,-406.274
 L -114.3,-406.5 L -114.286,-406.726 L -114.243,-406.948 L -114.174,-407.163 L -114.077,-407.367 L -113.956,-407.558
 L -113.812,-407.732 L -113.647,-407.887 L -113.464,-408.02 L -113.266,-408.129 L -113.056,-408.212 L -112.837,-408.268
 L -112.613,-408.296 L -112.387,-408.296 L -112.163,-408.268 L -111.944,-408.212 L -111.734,-408.129 L -111.536,-408.02
 L -111.353,-407.887 L -111.188,-407.732 L -111.044,-407.558 L -110.923,-407.367 L -110.826,-407.163 L -110.757,-406.948
 L -110.714,-406.726 L -110.7,-406.5 L -110.714,-406.274 L -110.757,-406.052 L -110.826,-405.837 L -110.923,-405.633
 L -111.044,-405.442 L -111.188,-405.268 L -111.353,-405.113 L -111.536,-404.98 L -111.734,-404.871 L -111.944,-404.788
 L -112.163,-404.732 L -112.387,-404.704 z
M -112.613,-149.704 L -112.837,-149.732 L -113.056,-149.788 L -113.266,-149.871 L -113.464,-149.98 L -113.647,-150.113
 L -113.812,-150.268 L -113.956,-150.442 L -114.077,-150.633 L -114.174,-150.837 L -114.243,-151.052 L -114.286,-151.274
 L -114.3,-151.5 L -114.286,-151.726 L -114.243,-151.948 L -114.174,-152.163 L -114.077,-152.367 L -113.956,-152.558
 L -113.812,-152.732 L -113.647,-152.887 L -113.464,-153.02 L -113.266,-153.129 L -113.056,-153.212 L -112.837,-153.268
 L -112.613,-153.296 L -112.387,-153.296 L -112.163,-153.268 L -111.944,-153.212 L -111.734,-153.129 L -111.536,-153.02
 L -111.353,-152.887 L -111.188,-152.732 L -111.044,-152.558 L -110.923,-152.367 L -110.826,-152.163 L -110.757,-151.948
 L -110.714,-151.726 L -110.7,-151.5 L -110.714,-151.274 L -110.757,-151.052 L -110.826,-150.837 L -110.923,-150.633
 L -111.044,-150.442 L -111.188,-150.268 L -111.353,-150.113 L -111.536,-149.98 L -111.734,-149.871 L -111.944,-149.788
 L -112.163,-149.732 L -112.387,-149.704 z
M 112.387,-149.704 L 112.163,-149.732 L 111.944,-149.788 L 111.734,-149.871 L 111.536,-149.98 L 111.353,-150.113
 L 111.188,-150.268 L 111.044,-150.442 L 110.923,-150.633 L 110.826,-150.837 L 110.757,-151.052 L 110.714,-151.274
 L 110.7,-151.5 L 110.714,-151.726 L 110.757,-151.948 L 110.826,-152.163 L 110.923,-152.367 L 111.044,-152.558
 L 111.188,-152.732 L 111.353,-152.887 L 111.536,-153.02 L 111.734,-153.129 L 111.944,-153.212 L 112.163,-153.268
 L 112.387,-153.296 L 112.613,-153.296 L 112.837,-153.268 L 113.056,-153.212 L 113.266,-153.129 L 113.464,-153.02
 L 113.647,-152.887 L 113.812,-152.732 L 113.956,-152.558 L 114.077,-152.367 L 114.174,-152.163 L 114.243,-151.948
 L 114.286,-151.726 L 114.3,-151.5 L 114.286,-151.274 L 114.243,-151.052 L 114.174,-150.837 L 114.077,-150.633
 L 113.956,-150.442 L 113.812,-150.268 L 113.647,-150.113 L 113.464,-149.98 L 113.266,-149.871 L 113.056,-149.788
 L 112.837,-149.732 L 112.613,-149.704 z
" stroke="black" fill="lightgray" stroke-width="0.5"/>
</svg>
