  0
SECTION
  2
BLOCKS
  0
ENDSEC
  0
SECTION
  2
ENTITIES
  0
LINE
  8
0
 10
-148.5
 20
1873.44
 11
-148.187
 21
1873.15
  0
LINE
  8
0
 10
-148.187
 20
1873.15
 11
-147.679
 21
1872.78
  0
LINE
  8
0
 10
-147.679
 20
1872.78
 11
-147.129
 21
1872.48
  0
LINE
  8
0
 10
-147.129
 20
1872.48
 11
-146.545
 21
1872.24
  0
LINE
  8
0
 10
-146.545
 20
1872.24
 11
-145.937
 21
1872.09
  0
LINE
  8
0
 10
-145.937
 20
1872.09
 11
-145.314
 21
1872.01
  0
LINE
  8
0
 10
-145.314
 20
1872.01
 11
145.314
 21
1872.01
  0
LINE
  8
0
 10
145.314
 20
1872.01
 11
145.937
 21
1872.09
  0
LINE
  8
0
 10
145.937
 20
1872.09
 11
146.545
 21
1872.24
  0
LINE
  8
0
 10
146.545
 20
1872.24
 11
147.129
 21
1872.48
  0
LINE
  8
0
 10
147.129
 20
1872.48
 11
147.679
 21
1872.78
  0
LINE
  8
0
 10
147.679
 20
1872.78
 11
148.187
 21
1873.15
  0
LINE
  8
0
 10
148.187
 20
1873.15
 11
148.645
 21
1873.58
  0
LINE
  8
0
 10
148.645
 20
1873.58
 11
149.045
 21
1874.06
  0
LINE
  8
0
 10
149.045
 20
1874.06
 11
149.382
 21
1874.59
  0
LINE
  8
0
 10
149.382
 20
1874.59
 11
149.649
 21
1875.16
  0
LINE
  8
0
 10
149.649
 20
1875.16
 11
149.843
 21
1875.76
  0
LINE
  8
0
 10
149.843
 20
1875.76
 11
149.961
 21
1876.37
  0
LINE
  8
0
 10
149.961
 20
1876.37
 11
150
 21
1877
  0
LINE
  8
0
 10
150
 20
1877
 11
150
 21
2107
  0
LINE
  8
0
 10
150
 20
2107
 11
149.961
 21
2107.63
  0
LINE
  8
0
 10
149.961
 20
2107.63
 11
149.843
 21
2108.24
  0
LINE
  8
0
 10
149.843
 20
2108.24
 11
149.649
 21
2108.84
  0
LINE
  8
0
 10
149.649
 20
2108.84
 11
149.382
 21
2109.41
  0
LINE
  8
0
 10
149.382
 20
2109.41
 11
149.045
 21
2109.94
  0
LINE
  8
0
 10
149.045
 20
2109.94
 11
148.645
 21
2110.42
  0
LINE
  8
0
 10
148.645
 20
2110.42
 11
148.187
 21
2110.85
  0
LINE
  8
0
 10
148.187
 20
2110.85
 11
147.679
 21
2111.22
  0
LINE
  8
0
 10
147.679
 20
2111.22
 11
147.129
 21
2111.52
  0
LINE
  8
0
 10
147.129
 20
2111.52
 11
146.545
 21
2111.76
  0
LINE
  8
0
 10
146.545
 20
2111.76
 11
145.937
 21
2111.91
  0
LINE
  8
0
 10
145.937
 20
2111.91
 11
145.314
 21
2111.99
  0
LINE
  8
0
 10
145.314
 20
2111.99
 11
-145.314
 21
2111.99
  0
LINE
  8
0
 10
-145.314
 20
2111.99
 11
-145.937
 21
2111.91
  0
LINE
  8
0
 10
-145.937
 20
2111.91
 11
-146.545
 21
2111.76
  0
LINE
  8
0
 10
-146.545
 20
2111.76
 11
-147.129
 21
2111.52
  0
LINE
  8
0
 10
-147.129
 20
2111.52
 11
-147.679
 21
2111.22
  0
LINE
  8
0
 10
-147.679
 20
2111.22
 11
-148.187
 21
2110.85
  0
LINE
  8
0
 10
-148.187
 20
2110.85
 11
-148.5
 21
2110.56
  0
LINE
  8
0
 10
-148.5
 20
2110.56
 11
-148.5
 21
2111.99
  0
LINE
  8
0
 10
-148.5
 20
2111.99
 11
-151.5
 21
2111.99
  0
LINE
  8
0
 10
-151.5
 20
2111.99
 11
-151.5
 21
1872.01
  0
LINE
  8
0
 10
-151.5
 20
1872.01
 11
-148.5
 21
1872.01
  0
LINE
  8
0
 10
-148.5
 20
1872.01
 11
-148.5
 21
1873.44
  0
LINE
  8
0
 10
-144.751
 20
1873.51
 11
-145.25
 21
1873.57
  0
LINE
  8
0
 10
-145.25
 20
1873.57
 11
-145.736
 21
1873.7
  0
LINE
  8
0
 10
-145.736
 20
1873.7
 11
-146.203
 21
1873.88
  0
LINE
  8
0
 10
-146.203
 20
1873.88
 11
-146.643
 21
1874.12
  0
LINE
  8
0
 10
-146.643
 20
1874.12
 11
-147.05
 21
1874.42
  0
LINE
  8
0
 10
-147.05
 20
1874.42
 11
-147.416
 21
1874.76
  0
LINE
  8
0
 10
-147.416
 20
1874.76
 11
-147.736
 21
1875.15
  0
LINE
  8
0
 10
-147.736
 20
1875.15
 11
-148.005
 21
1875.57
  0
LINE
  8
0
 10
-148.005
 20
1875.57
 11
-148.219
 21
1876.03
  0
LINE
  8
0
 10
-148.219
 20
1876.03
 11
-148.374
 21
1876.51
  0
LINE
  8
0
 10
-148.374
 20
1876.51
 11
-148.468
 21
1877
  0
LINE
  8
0
 10
-148.468
 20
1877
 11
-148.5
 21
1877.5
  0
LINE
  8
0
 10
-148.5
 20
1877.5
 11
-148.5
 21
2106.5
  0
LINE
  8
0
 10
-148.5
 20
2106.5
 11
-148.468
 21
2107
  0
LINE
  8
0
 10
-148.468
 20
2107
 11
-148.374
 21
2107.49
  0
LINE
  8
0
 10
-148.374
 20
2107.49
 11
-148.219
 21
2107.97
  0
LINE
  8
0
 10
-148.219
 20
2107.97
 11
-148.005
 21
2108.43
  0
LINE
  8
0
 10
-148.005
 20
2108.43
 11
-147.736
 21
2108.85
  0
LINE
  8
0
 10
-147.736
 20
2108.85
 11
-147.416
 21
2109.24
  0
LINE
  8
0
 10
-147.416
 20
2109.24
 11
-147.05
 21
2109.58
  0
LINE
  8
0
 10
-147.05
 20
2109.58
 11
-146.643
 21
2109.88
  0
LINE
  8
0
 10
-146.643
 20
2109.88
 11
-146.203
 21
2110.12
  0
LINE
  8
0
 10
-146.203
 20
2110.12
 11
-145.736
 21
2110.3
  0
LINE
  8
0
 10
-145.736
 20
2110.3
 11
-145.25
 21
2110.43
  0
LINE
  8
0
 10
-145.25
 20
2110.43
 11
-144.751
 21
2110.49
  0
LINE
  8
0
 10
-144.751
 20
2110.49
 11
144.751
 21
2110.49
  0
LINE
  8
0
 10
144.751
 20
2110.49
 11
145.25
 21
2110.43
  0
LINE
  8
0
 10
145.25
 20
2110.43
 11
145.736
 21
2110.3
  0
LINE
  8
0
 10
145.736
 20
2110.3
 11
146.203
 21
2110.12
  0
LINE
  8
0
 10
146.203
 20
2110.12
 11
146.643
 21
2109.88
  0
LINE
  8
0
 10
146.643
 20
2109.88
 11
147.05
 21
2109.58
  0
LINE
  8
0
 10
147.05
 20
2109.58
 11
147.416
 21
2109.24
  0
LINE
  8
0
 10
147.416
 20
2109.24
 11
147.736
 21
2108.85
  0
LINE
  8
0
 10
147.736
 20
2108.85
 11
148.005
 21
2108.43
  0
LINE
  8
0
 10
148.005
 20
2108.43
 11
148.219
 21
2107.97
  0
LINE
  8
0
 10
148.219
 20
2107.97
 11
148.374
 21
2107.49
  0
LINE
  8
0
 10
148.374
 20
2107.49
 11
148.468
 21
2107
  0
LINE
  8
0
 10
148.468
 20
2107
 11
148.5
 21
2106.5
  0
LINE
  8
0
 10
148.5
 20
2106.5
 11
148.5
 21
1877.5
  0
LINE
  8
0
 10
148.5
 20
1877.5
 11
148.468
 21
1877
  0
LINE
  8
0
 10
148.468
 20
1877
 11
148.374
 21
1876.51
  0
LINE
  8
0
 10
148.374
 20
1876.51
 11
148.219
 21
1876.03
  0
LINE
  8
0
 10
148.219
 20
1876.03
 11
148.005
 21
1875.57
  0
LINE
  8
0
 10
148.005
 20
1875.57
 11
147.736
 21
1875.15
  0
LINE
  8
0
 10
147.736
 20
1875.15
 11
147.416
 21
1874.76
  0
LINE
  8
0
 10
147.416
 20
1874.76
 11
147.05
 21
1874.42
  0
LINE
  8
0
 10
147.05
 20
1874.42
 11
146.643
 21
1874.12
  0
LINE
  8
0
 10
146.643
 20
1874.12
 11
146.203
 21
1873.88
  0
LINE
  8
0
 10
146.203
 20
1873.88
 11
145.736
 21
1873.7
  0
LINE
  8
0
 10
145.736
 20
1873.7
 11
145.25
 21
1873.57
  0
LINE
  8
0
 10
145.25
 20
1873.57
 11
144.751
 21
1873.51
  0
LINE
  8
0
 10
144.751
 20
1873.51
 11
-144.751
 21
1873.51
  0
LINE
  8
0
 10
-148.5
 20
1624.44
 11
-148.187
 21
1624.15
  0
LINE
  8
0
 10
-148.187
 20
1624.15
 11
-147.679
 21
1623.78
  0
LINE
  8
0
 10
-147.679
 20
1623.78
 11
-147.129
 21
1623.48
  0
LINE
  8
0
 10
-147.129
 20
1623.48
 11
-146.545
 21
1623.24
  0
LINE
  8
0
 10
-146.545
 20
1623.24
 11
-145.937
 21
1623.09
  0
LINE
  8
0
 10
-145.937
 20
1623.09
 11
-145.314
 21
1623.01
  0
LINE
  8
0
 10
-145.314
 20
1623.01
 11
145.314
 21
1623.01
  0
LINE
  8
0
 10
145.314
 20
1623.01
 11
145.937
 21
1623.09
  0
LINE
  8
0
 10
145.937
 20
1623.09
 11
146.545
 21
1623.24
  0
LINE
  8
0
 10
146.545
 20
1623.24
 11
147.129
 21
1623.48
  0
LINE
  8
0
 10
147.129
 20
1623.48
 11
147.679
 21
1623.78
  0
LINE
  8
0
 10
147.679
 20
1623.78
 11
148.187
 21
1624.15
  0
LINE
  8
0
 10
148.187
 20
1624.15
 11
148.645
 21
1624.58
  0
LINE
  8
0
 10
148.645
 20
1624.58
 11
149.045
 21
1625.06
  0
LINE
  8
0
 10
149.045
 20
1625.06
 11
149.382
 21
1625.59
  0
LINE
  8
0
 10
149.382
 20
1625.59
 11
149.649
 21
1626.16
  0
LINE
  8
0
 10
149.649
 20
1626.16
 11
149.843
 21
1626.76
  0
LINE
  8
0
 10
149.843
 20
1626.76
 11
149.961
 21
1627.37
  0
LINE
  8
0
 10
149.961
 20
1627.37
 11
150
 21
1628
  0
LINE
  8
0
 10
150
 20
1628
 11
150
 21
1858
  0
LINE
  8
0
 10
150
 20
1858
 11
149.961
 21
1858.63
  0
LINE
  8
0
 10
149.961
 20
1858.63
 11
149.843
 21
1859.24
  0
LINE
  8
0
 10
149.843
 20
1859.24
 11
149.649
 21
1859.84
  0
LINE
  8
0
 10
149.649
 20
1859.84
 11
149.382
 21
1860.41
  0
LINE
  8
0
 10
149.382
 20
1860.41
 11
149.045
 21
1860.94
  0
LINE
  8
0
 10
149.045
 20
1860.94
 11
148.645
 21
1861.42
  0
LINE
  8
0
 10
148.645
 20
1861.42
 11
148.187
 21
1861.85
  0
LINE
  8
0
 10
148.187
 20
1861.85
 11
147.679
 21
1862.22
  0
LINE
  8
0
 10
147.679
 20
1862.22
 11
147.129
 21
1862.52
  0
LINE
  8
0
 10
147.129
 20
1862.52
 11
146.545
 21
1862.76
  0
LINE
  8
0
 10
146.545
 20
1862.76
 11
145.937
 21
1862.91
  0
LINE
  8
0
 10
145.937
 20
1862.91
 11
145.314
 21
1862.99
  0
LINE
  8
0
 10
145.314
 20
1862.99
 11
-145.314
 21
1862.99
  0
LINE
  8
0
 10
-145.314
 20
1862.99
 11
-145.937
 21
1862.91
  0
LINE
  8
0
 10
-145.937
 20
1862.91
 11
-146.545
 21
1862.76
  0
LINE
  8
0
 10
-146.545
 20
1862.76
 11
-147.129
 21
1862.52
  0
LINE
  8
0
 10
-147.129
 20
1862.52
 11
-147.679
 21
1862.22
  0
LINE
  8
0
 10
-147.679
 20
1862.22
 11
-148.187
 21
1861.85
  0
LINE
  8
0
 10
-148.187
 20
1861.85
 11
-148.5
 21
1861.56
  0
LINE
  8
0
 10
-148.5
 20
1861.56
 11
-148.5
 21
1862.99
  0
LINE
  8
0
 10
-148.5
 20
1862.99
 11
-151.5
 21
1862.99
  0
LINE
  8
0
 10
-151.5
 20
1862.99
 11
-151.5
 21
1623.01
  0
LINE
  8
0
 10
-151.5
 20
1623.01
 11
-148.5
 21
1623.01
  0
LINE
  8
0
 10
-148.5
 20
1623.01
 11
-148.5
 21
1624.44
  0
LINE
  8
0
 10
-144.751
 20
1624.51
 11
-145.25
 21
1624.57
  0
LINE
  8
0
 10
-145.25
 20
1624.57
 11
-145.736
 21
1624.7
  0
LINE
  8
0
 10
-145.736
 20
1624.7
 11
-146.203
 21
1624.88
  0
LINE
  8
0
 10
-146.203
 20
1624.88
 11
-146.643
 21
1625.12
  0
LINE
  8
0
 10
-146.643
 20
1625.12
 11
-147.05
 21
1625.42
  0
LINE
  8
0
 10
-147.05
 20
1625.42
 11
-147.416
 21
1625.76
  0
LINE
  8
0
 10
-147.416
 20
1625.76
 11
-147.736
 21
1626.15
  0
LINE
  8
0
 10
-147.736
 20
1626.15
 11
-148.005
 21
1626.57
  0
LINE
  8
0
 10
-148.005
 20
1626.57
 11
-148.219
 21
1627.03
  0
LINE
  8
0
 10
-148.219
 20
1627.03
 11
-148.374
 21
1627.51
  0
LINE
  8
0
 10
-148.374
 20
1627.51
 11
-148.468
 21
1628
  0
LINE
  8
0
 10
-148.468
 20
1628
 11
-148.5
 21
1628.5
  0
LINE
  8
0
 10
-148.5
 20
1628.5
 11
-148.5
 21
1857.5
  0
LINE
  8
0
 10
-148.5
 20
1857.5
 11
-148.468
 21
1858
  0
LINE
  8
0
 10
-148.468
 20
1858
 11
-148.374
 21
1858.49
  0
LINE
  8
0
 10
-148.374
 20
1858.49
 11
-148.219
 21
1858.97
  0
LINE
  8
0
 10
-148.219
 20
1858.97
 11
-148.005
 21
1859.43
  0
LINE
  8
0
 10
-148.005
 20
1859.43
 11
-147.736
 21
1859.85
  0
LINE
  8
0
 10
-147.736
 20
1859.85
 11
-147.416
 21
1860.24
  0
LINE
  8
0
 10
-147.416
 20
1860.24
 11
-147.05
 21
1860.58
  0
LINE
  8
0
 10
-147.05
 20
1860.58
 11
-146.643
 21
1860.88
  0
LINE
  8
0
 10
-146.643
 20
1860.88
 11
-146.203
 21
1861.12
  0
LINE
  8
0
 10
-146.203
 20
1861.12
 11
-145.736
 21
1861.3
  0
LINE
  8
0
 10
-145.736
 20
1861.3
 11
-145.25
 21
1861.43
  0
LINE
  8
0
 10
-145.25
 20
1861.43
 11
-144.751
 21
1861.49
  0
LINE
  8
0
 10
-144.751
 20
1861.49
 11
144.751
 21
1861.49
  0
LINE
  8
0
 10
144.751
 20
1861.49
 11
145.25
 21
1861.43
  0
LINE
  8
0
 10
145.25
 20
1861.43
 11
145.736
 21
1861.3
  0
LINE
  8
0
 10
145.736
 20
1861.3
 11
146.203
 21
1861.12
  0
LINE
  8
0
 10
146.203
 20
1861.12
 11
146.643
 21
1860.88
  0
LINE
  8
0
 10
146.643
 20
1860.88
 11
147.05
 21
1860.58
  0
LINE
  8
0
 10
147.05
 20
1860.58
 11
147.416
 21
1860.24
  0
LINE
  8
0
 10
147.416
 20
1860.24
 11
147.736
 21
1859.85
  0
LINE
  8
0
 10
147.736
 20
1859.85
 11
148.005
 21
1859.43
  0
LINE
  8
0
 10
148.005
 20
1859.43
 11
148.219
 21
1858.97
  0
LINE
  8
0
 10
148.219
 20
1858.97
 11
148.374
 21
1858.49
  0
LINE
  8
0
 10
148.374
 20
1858.49
 11
148.468
 21
1858
  0
LINE
  8
0
 10
148.468
 20
1858
 11
148.5
 21
1857.5
  0
LINE
  8
0
 10
148.5
 20
1857.5
 11
148.5
 21
1628.5
  0
LINE
  8
0
 10
148.5
 20
1628.5
 11
148.468
 21
1628
  0
LINE
  8
0
 10
148.468
 20
1628
 11
148.374
 21
1627.51
  0
LINE
  8
0
 10
148.374
 20
1627.51
 11
148.219
 21
1627.03
  0
LINE
  8
0
 10
148.219
 20
1627.03
 11
148.005
 21
1626.57
  0
LINE
  8
0
 10
148.005
 20
1626.57
 11
147.736
 21
1626.15
  0
LINE
  8
0
 10
147.736
 20
1626.15
 11
147.416
 21
1625.76
  0
LINE
  8
0
 10
147.416
 20
1625.76
 11
147.05
 21
1625.42
  0
LINE
  8
0
 10
147.05
 20
1625.42
 11
146.643
 21
1625.12
  0
LINE
  8
0
 10
146.643
 20
1625.12
 11
146.203
 21
1624.88
  0
LINE
  8
0
 10
146.203
 20
1624.88
 11
145.736
 21
1624.7
  0
LINE
  8
0
 10
145.736
 20
1624.7
 11
145.25
 21
1624.57
  0
LINE
  8
0
 10
145.25
 20
1624.57
 11
144.751
 21
1624.51
  0
LINE
  8
0
 10
144.751
 20
1624.51
 11
-144.751
 21
1624.51
  0
LINE
  8
0
 10
-148.5
 20
1375.44
 11
-148.187
 21
1375.15
  0
LINE
  8
0
 10
-148.187
 20
1375.15
 11
-147.679
 21
1374.78
  0
LINE
  8
0
 10
-147.679
 20
1374.78
 11
-147.129
 21
1374.48
  0
LINE
  8
0
 10
-147.129
 20
1374.48
 11
-146.545
 21
1374.24
  0
LINE
  8
0
 10
-146.545
 20
1374.24
 11
-145.937
 21
1374.09
  0
LINE
  8
0
 10
-145.937
 20
1374.09
 11
-145.314
 21
1374.01
  0
LINE
  8
0
 10
-145.314
 20
1374.01
 11
145.314
 21
1374.01
  0
LINE
  8
0
 10
145.314
 20
1374.01
 11
145.937
 21
1374.09
  0
LINE
  8
0
 10
145.937
 20
1374.09
 11
146.545
 21
1374.24
  0
LINE
  8
0
 10
146.545
 20
1374.24
 11
147.129
 21
1374.48
  0
LINE
  8
0
 10
147.129
 20
1374.48
 11
147.679
 21
1374.78
  0
LINE
  8
0
 10
147.679
 20
1374.78
 11
148.187
 21
1375.15
  0
LINE
  8
0
 10
148.187
 20
1375.15
 11
148.645
 21
1375.58
  0
LINE
  8
0
 10
148.645
 20
1375.58
 11
149.045
 21
1376.06
  0
LINE
  8
0
 10
149.045
 20
1376.06
 11
149.382
 21
1376.59
  0
LINE
  8
0
 10
149.382
 20
1376.59
 11
149.649
 21
1377.16
  0
LINE
  8
0
 10
149.649
 20
1377.16
 11
149.843
 21
1377.76
  0
LINE
  8
0
 10
149.843
 20
1377.76
 11
149.961
 21
1378.37
  0
LINE
  8
0
 10
149.961
 20
1378.37
 11
150
 21
1379
  0
LINE
  8
0
 10
150
 20
1379
 11
150
 21
1609
  0
LINE
  8
0
 10
150
 20
1609
 11
149.961
 21
1609.63
  0
LINE
  8
0
 10
149.961
 20
1609.63
 11
149.843
 21
1610.24
  0
LINE
  8
0
 10
149.843
 20
1610.24
 11
149.649
 21
1610.84
  0
LINE
  8
0
 10
149.649
 20
1610.84
 11
149.382
 21
1611.41
  0
LINE
  8
0
 10
149.382
 20
1611.41
 11
149.045
 21
1611.94
  0
LINE
  8
0
 10
149.045
 20
1611.94
 11
148.645
 21
1612.42
  0
LINE
  8
0
 10
148.645
 20
1612.42
 11
148.187
 21
1612.85
  0
LINE
  8
0
 10
148.187
 20
1612.85
 11
147.679
 21
1613.22
  0
LINE
  8
0
 10
147.679
 20
1613.22
 11
147.129
 21
1613.52
  0
LINE
  8
0
 10
147.129
 20
1613.52
 11
146.545
 21
1613.76
  0
LINE
  8
0
 10
146.545
 20
1613.76
 11
145.937
 21
1613.91
  0
LINE
  8
0
 10
145.937
 20
1613.91
 11
145.314
 21
1613.99
  0
LINE
  8
0
 10
145.314
 20
1613.99
 11
-145.314
 21
1613.99
  0
LINE
  8
0
 10
-145.314
 20
1613.99
 11
-145.937
 21
1613.91
  0
LINE
  8
0
 10
-145.937
 20
1613.91
 11
-146.545
 21
1613.76
  0
LINE
  8
0
 10
-146.545
 20
1613.76
 11
-147.129
 21
1613.52
  0
LINE
  8
0
 10
-147.129
 20
1613.52
 11
-147.679
 21
1613.22
  0
LINE
  8
0
 10
-147.679
 20
1613.22
 11
-148.187
 21
1612.85
  0
LINE
  8
0
 10
-148.187
 20
1612.85
 11
-148.5
 21
1612.56
  0
LINE
  8
0
 10
-148.5
 20
1612.56
 11
-148.5
 21
1613.99
  0
LINE
  8
0
 10
-148.5
 20
1613.99
 11
-151.5
 21
1613.99
  0
LINE
  8
0
 10
-151.5
 20
1613.99
 11
-151.5
 21
1374.01
  0
LINE
  8
0
 10
-151.5
 20
1374.01
 11
-148.5
 21
1374.01
  0
LINE
  8
0
 10
-148.5
 20
1374.01
 11
-148.5
 21
1375.44
  0
LINE
  8
0
 10
-144.743
 20
1375.64
 11
-145.226
 21
1375.7
  0
LINE
  8
0
 10
-145.226
 20
1375.7
 11
-145.697
 21
1375.82
  0
LINE
  8
0
 10
-145.697
 20
1375.82
 11
-146.149
 21
1376
  0
LINE
  8
0
 10
-146.149
 20
1376
 11
-146.575
 21
1376.23
  0
LINE
  8
0
 10
-146.575
 20
1376.23
 11
-146.969
 21
1376.52
  0
LINE
  8
0
 10
-146.969
 20
1376.52
 11
-147.323
 21
1376.85
  0
LINE
  8
0
 10
-147.323
 20
1376.85
 11
-147.633
 21
1377.22
  0
LINE
  8
0
 10
-147.633
 20
1377.22
 11
-147.894
 21
1377.63
  0
LINE
  8
0
 10
-147.894
 20
1377.63
 11
-148.101
 21
1378.07
  0
LINE
  8
0
 10
-148.101
 20
1378.07
 11
-148.251
 21
1378.54
  0
LINE
  8
0
 10
-148.251
 20
1378.54
 11
-148.342
 21
1379.01
  0
LINE
  8
0
 10
-148.342
 20
1379.01
 11
-148.373
 21
1379.5
  0
LINE
  8
0
 10
-148.373
 20
1379.5
 11
-148.373
 21
1608.5
  0
LINE
  8
0
 10
-148.373
 20
1608.5
 11
-148.342
 21
1608.99
  0
LINE
  8
0
 10
-148.342
 20
1608.99
 11
-148.251
 21
1609.46
  0
LINE
  8
0
 10
-148.251
 20
1609.46
 11
-148.101
 21
1609.93
  0
LINE
  8
0
 10
-148.101
 20
1609.93
 11
-147.894
 21
1610.37
  0
LINE
  8
0
 10
-147.894
 20
1610.37
 11
-147.633
 21
1610.78
  0
LINE
  8
0
 10
-147.633
 20
1610.78
 11
-147.323
 21
1611.15
  0
LINE
  8
0
 10
-147.323
 20
1611.15
 11
-146.969
 21
1611.48
  0
LINE
  8
0
 10
-146.969
 20
1611.48
 11
-146.575
 21
1611.77
  0
LINE
  8
0
 10
-146.575
 20
1611.77
 11
-146.149
 21
1612
  0
LINE
  8
0
 10
-146.149
 20
1612
 11
-145.697
 21
1612.18
  0
LINE
  8
0
 10
-145.697
 20
1612.18
 11
-145.226
 21
1612.3
  0
LINE
  8
0
 10
-145.226
 20
1612.3
 11
-144.743
 21
1612.36
  0
LINE
  8
0
 10
-144.743
 20
1612.36
 11
144.743
 21
1612.36
  0
LINE
  8
0
 10
144.743
 20
1612.36
 11
145.226
 21
1612.3
  0
LINE
  8
0
 10
145.226
 20
1612.3
 11
145.697
 21
1612.18
  0
LINE
  8
0
 10
145.697
 20
1612.18
 11
146.149
 21
1612
  0
LINE
  8
0
 10
146.149
 20
1612
 11
146.575
 21
1611.77
  0
LINE
  8
0
 10
146.575
 20
1611.77
 11
146.969
 21
1611.48
  0
LINE
  8
0
 10
146.969
 20
1611.48
 11
147.323
 21
1611.15
  0
LINE
  8
0
 10
147.323
 20
1611.15
 11
147.633
 21
1610.78
  0
LINE
  8
0
 10
147.633
 20
1610.78
 11
147.894
 21
1610.37
  0
LINE
  8
0
 10
147.894
 20
1610.37
 11
148.101
 21
1609.93
  0
LINE
  8
0
 10
148.101
 20
1609.93
 11
148.251
 21
1609.46
  0
LINE
  8
0
 10
148.251
 20
1609.46
 11
148.342
 21
1608.99
  0
LINE
  8
0
 10
148.342
 20
1608.99
 11
148.373
 21
1608.5
  0
LINE
  8
0
 10
148.373
 20
1608.5
 11
148.373
 21
1379.5
  0
LINE
  8
0
 10
148.373
 20
1379.5
 11
148.342
 21
1379.01
  0
LINE
  8
0
 10
148.342
 20
1379.01
 11
148.251
 21
1378.54
  0
LINE
  8
0
 10
148.251
 20
1378.54
 11
148.101
 21
1378.07
  0
LINE
  8
0
 10
148.101
 20
1378.07
 11
147.894
 21
1377.63
  0
LINE
  8
0
 10
147.894
 20
1377.63
 11
147.633
 21
1377.22
  0
LINE
  8
0
 10
147.633
 20
1377.22
 11
147.323
 21
1376.85
  0
LINE
  8
0
 10
147.323
 20
1376.85
 11
146.969
 21
1376.52
  0
LINE
  8
0
 10
146.969
 20
1376.52
 11
146.575
 21
1376.23
  0
LINE
  8
0
 10
146.575
 20
1376.23
 11
146.149
 21
1376
  0
LINE
  8
0
 10
146.149
 20
1376
 11
145.697
 21
1375.82
  0
LINE
  8
0
 10
145.697
 20
1375.82
 11
145.226
 21
1375.7
  0
LINE
  8
0
 10
145.226
 20
1375.7
 11
144.743
 21
1375.64
  0
LINE
  8
0
 10
144.743
 20
1375.64
 11
-144.743
 21
1375.64
  0
LINE
  8
0
 10
145.937
 20
1125.09
 11
146.545
 21
1125.24
  0
LINE
  8
0
 10
146.545
 20
1125.24
 11
147.129
 21
1125.48
  0
LINE
  8
0
 10
147.129
 20
1125.48
 11
147.679
 21
1125.78
  0
LINE
  8
0
 10
147.679
 20
1125.78
 11
148.187
 21
1126.15
  0
LINE
  8
0
 10
148.187
 20
1126.15
 11
148.645
 21
1126.58
  0
LINE
  8
0
 10
148.645
 20
1126.58
 11
149.045
 21
1127.06
  0
LINE
  8
0
 10
149.045
 20
1127.06
 11
149.382
 21
1127.59
  0
LINE
  8
0
 10
149.382
 20
1127.59
 11
149.649
 21
1128.16
  0
LINE
  8
0
 10
149.649
 20
1128.16
 11
149.843
 21
1128.76
  0
LINE
  8
0
 10
149.843
 20
1128.76
 11
149.961
 21
1129.37
  0
LINE
  8
0
 10
149.961
 20
1129.37
 11
150
 21
1130
  0
LINE
  8
0
 10
150
 20
1130
 11
150
 21
1360
  0
LINE
  8
0
 10
150
 20
1360
 11
149.961
 21
1360.63
  0
LINE
  8
0
 10
149.961
 20
1360.63
 11
149.843
 21
1361.24
  0
LINE
  8
0
 10
149.843
 20
1361.24
 11
149.649
 21
1361.84
  0
LINE
  8
0
 10
149.649
 20
1361.84
 11
149.382
 21
1362.41
  0
LINE
  8
0
 10
149.382
 20
1362.41
 11
149.045
 21
1362.94
  0
LINE
  8
0
 10
149.045
 20
1362.94
 11
148.645
 21
1363.42
  0
LINE
  8
0
 10
148.645
 20
1363.42
 11
148.187
 21
1363.85
  0
LINE
  8
0
 10
148.187
 20
1363.85
 11
147.679
 21
1364.22
  0
LINE
  8
0
 10
147.679
 20
1364.22
 11
147.129
 21
1364.52
  0
LINE
  8
0
 10
147.129
 20
1364.52
 11
146.545
 21
1364.76
  0
LINE
  8
0
 10
146.545
 20
1364.76
 11
145.937
 21
1364.91
  0
LINE
  8
0
 10
145.937
 20
1364.91
 11
145.314
 21
1364.99
  0
LINE
  8
0
 10
145.314
 20
1364.99
 11
-145.314
 21
1364.99
  0
LINE
  8
0
 10
-145.314
 20
1364.99
 11
-145.937
 21
1364.91
  0
LINE
  8
0
 10
-145.937
 20
1364.91
 11
-146.545
 21
1364.76
  0
LINE
  8
0
 10
-146.545
 20
1364.76
 11
-147.129
 21
1364.52
  0
LINE
  8
0
 10
-147.129
 20
1364.52
 11
-147.679
 21
1364.22
  0
LINE
  8
0
 10
-147.679
 20
1364.22
 11
-148.187
 21
1363.85
  0
LINE
  8
0
 10
-148.187
 20
1363.85
 11
-148.5
 21
1363.56
  0
LINE
  8
0
 10
-148.5
 20
1363.56
 11
-148.5
 21
1364.61
  0
LINE
  8
0
 10
-148.5
 20
1364.61
 11
-151.5
 21
1364.61
  0
LINE
  8
0
 10
-151.5
 20
1364.61
 11
-151.5
 21
1125.39
  0
LINE
  8
0
 10
-151.5
 20
1125.39
 11
-148.5
 21
1125.39
  0
LINE
  8
0
 10
-148.5
 20
1125.39
 11
-148.5
 21
1126.44
  0
LINE
  8
0
 10
-148.5
 20
1126.44
 11
-148.187
 21
1126.15
  0
LINE
  8
0
 10
-148.187
 20
1126.15
 11
-147.679
 21
1125.78
  0
LINE
  8
0
 10
-147.679
 20
1125.78
 11
-147.129
 21
1125.48
  0
LINE
  8
0
 10
-147.129
 20
1125.48
 11
-146.545
 21
1125.24
  0
LINE
  8
0
 10
-146.545
 20
1125.24
 11
-145.937
 21
1125.09
  0
LINE
  8
0
 10
-145.937
 20
1125.09
 11
-145.314
 21
1125.01
  0
LINE
  8
0
 10
-145.314
 20
1125.01
 11
145.314
 21
1125.01
  0
LINE
  8
0
 10
145.314
 20
1125.01
 11
145.937
 21
1125.09
  0
LINE
  8
0
 10
-142.651
 20
1355.1
 11
-142.95
 21
1355.14
  0
LINE
  8
0
 10
-142.95
 20
1355.14
 11
-143.242
 21
1355.22
  0
LINE
  8
0
 10
-143.242
 20
1355.22
 11
-143.522
 21
1355.33
  0
LINE
  8
0
 10
-143.522
 20
1355.33
 11
-143.786
 21
1355.47
  0
LINE
  8
0
 10
-143.786
 20
1355.47
 11
-144.03
 21
1355.65
  0
LINE
  8
0
 10
-144.03
 20
1355.65
 11
-144.25
 21
1355.86
  0
LINE
  8
0
 10
-144.25
 20
1355.86
 11
-144.442
 21
1356.09
  0
LINE
  8
0
 10
-144.442
 20
1356.09
 11
-144.603
 21
1356.34
  0
LINE
  8
0
 10
-144.603
 20
1356.34
 11
-144.731
 21
1356.62
  0
LINE
  8
0
 10
-144.731
 20
1356.62
 11
-144.825
 21
1356.9
  0
LINE
  8
0
 10
-144.825
 20
1356.9
 11
-144.881
 21
1357.2
  0
LINE
  8
0
 10
-144.881
 20
1357.2
 11
-144.9
 21
1357.5
  0
LINE
  8
0
 10
-144.9
 20
1357.5
 11
-144.881
 21
1357.8
  0
LINE
  8
0
 10
-144.881
 20
1357.8
 11
-144.825
 21
1358.1
  0
LINE
  8
0
 10
-144.825
 20
1358.1
 11
-144.731
 21
1358.38
  0
LINE
  8
0
 10
-144.731
 20
1358.38
 11
-144.603
 21
1358.66
  0
LINE
  8
0
 10
-144.603
 20
1358.66
 11
-144.442
 21
1358.91
  0
LINE
  8
0
 10
-144.442
 20
1358.91
 11
-144.25
 21
1359.14
  0
LINE
  8
0
 10
-144.25
 20
1359.14
 11
-144.03
 21
1359.35
  0
LINE
  8
0
 10
-144.03
 20
1359.35
 11
-143.786
 21
1359.53
  0
LINE
  8
0
 10
-143.786
 20
1359.53
 11
-143.522
 21
1359.67
  0
LINE
  8
0
 10
-143.522
 20
1359.67
 11
-143.242
 21
1359.78
  0
LINE
  8
0
 10
-143.242
 20
1359.78
 11
-142.95
 21
1359.86
  0
LINE
  8
0
 10
-142.95
 20
1359.86
 11
-142.651
 21
1359.9
  0
LINE
  8
0
 10
-142.651
 20
1359.9
 11
-142.349
 21
1359.9
  0
LINE
  8
0
 10
-142.349
 20
1359.9
 11
-142.05
 21
1359.86
  0
LINE
  8
0
 10
-142.05
 20
1359.86
 11
-141.758
 21
1359.78
  0
LINE
  8
0
 10
-141.758
 20
1359.78
 11
-141.478
 21
1359.67
  0
LINE
  8
0
 10
-141.478
 20
1359.67
 11
-141.214
 21
1359.53
  0
LINE
  8
0
 10
-141.214
 20
1359.53
 11
-140.97
 21
1359.35
  0
LINE
  8
0
 10
-140.97
 20
1359.35
 11
-140.75
 21
1359.14
  0
LINE
  8
0
 10
-140.75
 20
1359.14
 11
-140.558
 21
1358.91
  0
LINE
  8
0
 10
-140.558
 20
1358.91
 11
-140.397
 21
1358.66
  0
LINE
  8
0
 10
-140.397
 20
1358.66
 11
-140.269
 21
1358.38
  0
LINE
  8
0
 10
-140.269
 20
1358.38
 11
-140.175
 21
1358.1
  0
LINE
  8
0
 10
-140.175
 20
1358.1
 11
-140.119
 21
1357.8
  0
LINE
  8
0
 10
-140.119
 20
1357.8
 11
-140.1
 21
1357.5
  0
LINE
  8
0
 10
-140.1
 20
1357.5
 11
-140.119
 21
1357.2
  0
LINE
  8
0
 10
-140.119
 20
1357.2
 11
-140.175
 21
1356.9
  0
LINE
  8
0
 10
-140.175
 20
1356.9
 11
-140.269
 21
1356.62
  0
LINE
  8
0
 10
-140.269
 20
1356.62
 11
-140.397
 21
1356.34
  0
LINE
  8
0
 10
-140.397
 20
1356.34
 11
-140.558
 21
1356.09
  0
LINE
  8
0
 10
-140.558
 20
1356.09
 11
-140.75
 21
1355.86
  0
LINE
  8
0
 10
-140.75
 20
1355.86
 11
-140.97
 21
1355.65
  0
LINE
  8
0
 10
-140.97
 20
1355.65
 11
-141.214
 21
1355.47
  0
LINE
  8
0
 10
-141.214
 20
1355.47
 11
-141.478
 21
1355.33
  0
LINE
  8
0
 10
-141.478
 20
1355.33
 11
-141.758
 21
1355.22
  0
LINE
  8
0
 10
-141.758
 20
1355.22
 11
-142.05
 21
1355.14
  0
LINE
  8
0
 10
-142.05
 20
1355.14
 11
-142.349
 21
1355.1
  0
LINE
  8
0
 10
-142.349
 20
1355.1
 11
-142.651
 21
1355.1
  0
LINE
  8
0
 10
142.349
 20
1355.1
 11
142.05
 21
1355.14
  0
LINE
  8
0
 10
142.05
 20
1355.14
 11
141.758
 21
1355.22
  0
LINE
  8
0
 10
141.758
 20
1355.22
 11
141.478
 21
1355.33
  0
LINE
  8
0
 10
141.478
 20
1355.33
 11
141.214
 21
1355.47
  0
LINE
  8
0
 10
141.214
 20
1355.47
 11
140.97
 21
1355.65
  0
LINE
  8
0
 10
140.97
 20
1355.65
 11
140.75
 21
1355.86
  0
LINE
  8
0
 10
140.75
 20
1355.86
 11
140.558
 21
1356.09
  0
LINE
  8
0
 10
140.558
 20
1356.09
 11
140.397
 21
1356.34
  0
LINE
  8
0
 10
140.397
 20
1356.34
 11
140.269
 21
1356.62
  0
LINE
  8
0
 10
140.269
 20
1356.62
 11
140.175
 21
1356.9
  0
LINE
  8
0
 10
140.175
 20
1356.9
 11
140.119
 21
1357.2
  0
LINE
  8
0
 10
140.119
 20
1357.2
 11
140.1
 21
1357.5
  0
LINE
  8
0
 10
140.1
 20
1357.5
 11
140.119
 21
1357.8
  0
LINE
  8
0
 10
140.119
 20
1357.8
 11
140.175
 21
1358.1
  0
LINE
  8
0
 10
140.175
 20
1358.1
 11
140.269
 21
1358.38
  0
LINE
  8
0
 10
140.269
 20
1358.38
 11
140.397
 21
1358.66
  0
LINE
  8
0
 10
140.397
 20
1358.66
 11
140.558
 21
1358.91
  0
LINE
  8
0
 10
140.558
 20
1358.91
 11
140.75
 21
1359.14
  0
LINE
  8
0
 10
140.75
 20
1359.14
 11
140.97
 21
1359.35
  0
LINE
  8
0
 10
140.97
 20
1359.35
 11
141.214
 21
1359.53
  0
LINE
  8
0
 10
141.214
 20
1359.53
 11
141.478
 21
1359.67
  0
LINE
  8
0
 10
141.478
 20
1359.67
 11
141.758
 21
1359.78
  0
LINE
  8
0
 10
141.758
 20
1359.78
 11
142.05
 21
1359.86
  0
LINE
  8
0
 10
142.05
 20
1359.86
 11
142.349
 21
1359.9
  0
LINE
  8
0
 10
142.349
 20
1359.9
 11
142.651
 21
1359.9
  0
LINE
  8
0
 10
142.651
 20
1359.9
 11
142.95
 21
1359.86
  0
LINE
  8
0
 10
142.95
 20
1359.86
 11
143.242
 21
1359.78
  0
LINE
  8
0
 10
143.242
 20
1359.78
 11
143.522
 21
1359.67
  0
LINE
  8
0
 10
143.522
 20
1359.67
 11
143.786
 21
1359.53
  0
LINE
  8
0
 10
143.786
 20
1359.53
 11
144.03
 21
1359.35
  0
LINE
  8
0
 10
144.03
 20
1359.35
 11
144.25
 21
1359.14
  0
LINE
  8
0
 10
144.25
 20
1359.14
 11
144.442
 21
1358.91
  0
LINE
  8
0
 10
144.442
 20
1358.91
 11
144.603
 21
1358.66
  0
LINE
  8
0
 10
144.603
 20
1358.66
 11
144.731
 21
1358.38
  0
LINE
  8
0
 10
144.731
 20
1358.38
 11
144.825
 21
1358.1
  0
LINE
  8
0
 10
144.825
 20
1358.1
 11
144.881
 21
1357.8
  0
LINE
  8
0
 10
144.881
 20
1357.8
 11
144.9
 21
1357.5
  0
LINE
  8
0
 10
144.9
 20
1357.5
 11
144.881
 21
1357.2
  0
LINE
  8
0
 10
144.881
 20
1357.2
 11
144.825
 21
1356.9
  0
LINE
  8
0
 10
144.825
 20
1356.9
 11
144.731
 21
1356.62
  0
LINE
  8
0
 10
144.731
 20
1356.62
 11
144.603
 21
1356.34
  0
LINE
  8
0
 10
144.603
 20
1356.34
 11
144.442
 21
1356.09
  0
LINE
  8
0
 10
144.442
 20
1356.09
 11
144.25
 21
1355.86
  0
LINE
  8
0
 10
144.25
 20
1355.86
 11
144.03
 21
1355.65
  0
LINE
  8
0
 10
144.03
 20
1355.65
 11
143.786
 21
1355.47
  0
LINE
  8
0
 10
143.786
 20
1355.47
 11
143.522
 21
1355.33
  0
LINE
  8
0
 10
143.522
 20
1355.33
 11
143.242
 21
1355.22
  0
LINE
  8
0
 10
143.242
 20
1355.22
 11
142.95
 21
1355.14
  0
LINE
  8
0
 10
142.95
 20
1355.14
 11
142.651
 21
1355.1
  0
LINE
  8
0
 10
142.651
 20
1355.1
 11
142.349
 21
1355.1
  0
LINE
  8
0
 10
-142.651
 20
1130.1
 11
-142.95
 21
1130.14
  0
LINE
  8
0
 10
-142.95
 20
1130.14
 11
-143.242
 21
1130.22
  0
LINE
  8
0
 10
-143.242
 20
1130.22
 11
-143.522
 21
1130.33
  0
LINE
  8
0
 10
-143.522
 20
1130.33
 11
-143.786
 21
1130.47
  0
LINE
  8
0
 10
-143.786
 20
1130.47
 11
-144.03
 21
1130.65
  0
LINE
  8
0
 10
-144.03
 20
1130.65
 11
-144.25
 21
1130.86
  0
LINE
  8
0
 10
-144.25
 20
1130.86
 11
-144.442
 21
1131.09
  0
LINE
  8
0
 10
-144.442
 20
1131.09
 11
-144.603
 21
1131.34
  0
LINE
  8
0
 10
-144.603
 20
1131.34
 11
-144.731
 21
1131.62
  0
LINE
  8
0
 10
-144.731
 20
1131.62
 11
-144.825
 21
1131.9
  0
LINE
  8
0
 10
-144.825
 20
1131.9
 11
-144.881
 21
1132.2
  0
LINE
  8
0
 10
-144.881
 20
1132.2
 11
-144.9
 21
1132.5
  0
LINE
  8
0
 10
-144.9
 20
1132.5
 11
-144.881
 21
1132.8
  0
LINE
  8
0
 10
-144.881
 20
1132.8
 11
-144.825
 21
1133.1
  0
LINE
  8
0
 10
-144.825
 20
1133.1
 11
-144.731
 21
1133.38
  0
LINE
  8
0
 10
-144.731
 20
1133.38
 11
-144.603
 21
1133.66
  0
LINE
  8
0
 10
-144.603
 20
1133.66
 11
-144.442
 21
1133.91
  0
LINE
  8
0
 10
-144.442
 20
1133.91
 11
-144.25
 21
1134.14
  0
LINE
  8
0
 10
-144.25
 20
1134.14
 11
-144.03
 21
1134.35
  0
LINE
  8
0
 10
-144.03
 20
1134.35
 11
-143.786
 21
1134.53
  0
LINE
  8
0
 10
-143.786
 20
1134.53
 11
-143.522
 21
1134.67
  0
LINE
  8
0
 10
-143.522
 20
1134.67
 11
-143.242
 21
1134.78
  0
LINE
  8
0
 10
-143.242
 20
1134.78
 11
-142.95
 21
1134.86
  0
LINE
  8
0
 10
-142.95
 20
1134.86
 11
-142.651
 21
1134.9
  0
LINE
  8
0
 10
-142.651
 20
1134.9
 11
-142.349
 21
1134.9
  0
LINE
  8
0
 10
-142.349
 20
1134.9
 11
-142.05
 21
1134.86
  0
LINE
  8
0
 10
-142.05
 20
1134.86
 11
-141.758
 21
1134.78
  0
LINE
  8
0
 10
-141.758
 20
1134.78
 11
-141.478
 21
1134.67
  0
LINE
  8
0
 10
-141.478
 20
1134.67
 11
-141.214
 21
1134.53
  0
LINE
  8
0
 10
-141.214
 20
1134.53
 11
-140.97
 21
1134.35
  0
LINE
  8
0
 10
-140.97
 20
1134.35
 11
-140.75
 21
1134.14
  0
LINE
  8
0
 10
-140.75
 20
1134.14
 11
-140.558
 21
1133.91
  0
LINE
  8
0
 10
-140.558
 20
1133.91
 11
-140.397
 21
1133.66
  0
LINE
  8
0
 10
-140.397
 20
1133.66
 11
-140.269
 21
1133.38
  0
LINE
  8
0
 10
-140.269
 20
1133.38
 11
-140.175
 21
1133.1
  0
LINE
  8
0
 10
-140.175
 20
1133.1
 11
-140.119
 21
1132.8
  0
LINE
  8
0
 10
-140.119
 20
1132.8
 11
-140.1
 21
1132.5
  0
LINE
  8
0
 10
-140.1
 20
1132.5
 11
-140.119
 21
1132.2
  0
LINE
  8
0
 10
-140.119
 20
1132.2
 11
-140.175
 21
1131.9
  0
LINE
  8
0
 10
-140.175
 20
1131.9
 11
-140.269
 21
1131.62
  0
LINE
  8
0
 10
-140.269
 20
1131.62
 11
-140.397
 21
1131.34
  0
LINE
  8
0
 10
-140.397
 20
1131.34
 11
-140.558
 21
1131.09
  0
LINE
  8
0
 10
-140.558
 20
1131.09
 11
-140.75
 21
1130.86
  0
LINE
  8
0
 10
-140.75
 20
1130.86
 11
-140.97
 21
1130.65
  0
LINE
  8
0
 10
-140.97
 20
1130.65
 11
-141.214
 21
1130.47
  0
LINE
  8
0
 10
-141.214
 20
1130.47
 11
-141.478
 21
1130.33
  0
LINE
  8
0
 10
-141.478
 20
1130.33
 11
-141.758
 21
1130.22
  0
LINE
  8
0
 10
-141.758
 20
1130.22
 11
-142.05
 21
1130.14
  0
LINE
  8
0
 10
-142.05
 20
1130.14
 11
-142.349
 21
1130.1
  0
LINE
  8
0
 10
-142.349
 20
1130.1
 11
-142.651
 21
1130.1
  0
LINE
  8
0
 10
142.349
 20
1130.1
 11
142.05
 21
1130.14
  0
LINE
  8
0
 10
142.05
 20
1130.14
 11
141.758
 21
1130.22
  0
LINE
  8
0
 10
141.758
 20
1130.22
 11
141.478
 21
1130.33
  0
LINE
  8
0
 10
141.478
 20
1130.33
 11
141.214
 21
1130.47
  0
LINE
  8
0
 10
141.214
 20
1130.47
 11
140.97
 21
1130.65
  0
LINE
  8
0
 10
140.97
 20
1130.65
 11
140.75
 21
1130.86
  0
LINE
  8
0
 10
140.75
 20
1130.86
 11
140.558
 21
1131.09
  0
LINE
  8
0
 10
140.558
 20
1131.09
 11
140.397
 21
1131.34
  0
LINE
  8
0
 10
140.397
 20
1131.34
 11
140.269
 21
1131.62
  0
LINE
  8
0
 10
140.269
 20
1131.62
 11
140.175
 21
1131.9
  0
LINE
  8
0
 10
140.175
 20
1131.9
 11
140.119
 21
1132.2
  0
LINE
  8
0
 10
140.119
 20
1132.2
 11
140.1
 21
1132.5
  0
LINE
  8
0
 10
140.1
 20
1132.5
 11
140.119
 21
1132.8
  0
LINE
  8
0
 10
140.119
 20
1132.8
 11
140.175
 21
1133.1
  0
LINE
  8
0
 10
140.175
 20
1133.1
 11
140.269
 21
1133.38
  0
LINE
  8
0
 10
140.269
 20
1133.38
 11
140.397
 21
1133.66
  0
LINE
  8
0
 10
140.397
 20
1133.66
 11
140.558
 21
1133.91
  0
LINE
  8
0
 10
140.558
 20
1133.91
 11
140.75
 21
1134.14
  0
LINE
  8
0
 10
140.75
 20
1134.14
 11
140.97
 21
1134.35
  0
LINE
  8
0
 10
140.97
 20
1134.35
 11
141.214
 21
1134.53
  0
LINE
  8
0
 10
141.214
 20
1134.53
 11
141.478
 21
1134.67
  0
LINE
  8
0
 10
141.478
 20
1134.67
 11
141.758
 21
1134.78
  0
LINE
  8
0
 10
141.758
 20
1134.78
 11
142.05
 21
1134.86
  0
LINE
  8
0
 10
142.05
 20
1134.86
 11
142.349
 21
1134.9
  0
LINE
  8
0
 10
142.349
 20
1134.9
 11
142.651
 21
1134.9
  0
LINE
  8
0
 10
142.651
 20
1134.9
 11
142.95
 21
1134.86
  0
LINE
  8
0
 10
142.95
 20
1134.86
 11
143.242
 21
1134.78
  0
LINE
  8
0
 10
143.242
 20
1134.78
 11
143.522
 21
1134.67
  0
LINE
  8
0
 10
143.522
 20
1134.67
 11
143.786
 21
1134.53
  0
LINE
  8
0
 10
143.786
 20
1134.53
 11
144.03
 21
1134.35
  0
LINE
  8
0
 10
144.03
 20
1134.35
 11
144.25
 21
1134.14
  0
LINE
  8
0
 10
144.25
 20
1134.14
 11
144.442
 21
1133.91
  0
LINE
  8
0
 10
144.442
 20
1133.91
 11
144.603
 21
1133.66
  0
LINE
  8
0
 10
144.603
 20
1133.66
 11
144.731
 21
1133.38
  0
LINE
  8
0
 10
144.731
 20
1133.38
 11
144.825
 21
1133.1
  0
LINE
  8
0
 10
144.825
 20
1133.1
 11
144.881
 21
1132.8
  0
LINE
  8
0
 10
144.881
 20
1132.8
 11
144.9
 21
1132.5
  0
LINE
  8
0
 10
144.9
 20
1132.5
 11
144.881
 21
1132.2
  0
LINE
  8
0
 10
144.881
 20
1132.2
 11
144.825
 21
1131.9
  0
LINE
  8
0
 10
144.825
 20
1131.9
 11
144.731
 21
1131.62
  0
LINE
  8
0
 10
144.731
 20
1131.62
 11
144.603
 21
1131.34
  0
LINE
  8
0
 10
144.603
 20
1131.34
 11
144.442
 21
1131.09
  0
LINE
  8
0
 10
144.442
 20
1131.09
 11
144.25
 21
1130.86
  0
LINE
  8
0
 10
144.25
 20
1130.86
 11
144.03
 21
1130.65
  0
LINE
  8
0
 10
144.03
 20
1130.65
 11
143.786
 21
1130.47
  0
LINE
  8
0
 10
143.786
 20
1130.47
 11
143.522
 21
1130.33
  0
LINE
  8
0
 10
143.522
 20
1130.33
 11
143.242
 21
1130.22
  0
LINE
  8
0
 10
143.242
 20
1130.22
 11
142.95
 21
1130.14
  0
LINE
  8
0
 10
142.95
 20
1130.14
 11
142.651
 21
1130.1
  0
LINE
  8
0
 10
142.651
 20
1130.1
 11
142.349
 21
1130.1
  0
LINE
  8
0
 10
145.937
 20
876.089
 11
146.545
 21
876.245
  0
LINE
  8
0
 10
146.545
 20
876.245
 11
147.129
 21
876.476
  0
LINE
  8
0
 10
147.129
 20
876.476
 11
147.679
 21
876.778
  0
LINE
  8
0
 10
147.679
 20
876.778
 11
148.187
 21
877.147
  0
LINE
  8
0
 10
148.187
 20
877.147
 11
148.645
 21
877.577
  0
LINE
  8
0
 10
148.645
 20
877.577
 11
149.045
 21
878.061
  0
LINE
  8
0
 10
149.045
 20
878.061
 11
149.382
 21
878.591
  0
LINE
  8
0
 10
149.382
 20
878.591
 11
149.649
 21
879.159
  0
LINE
  8
0
 10
149.649
 20
879.159
 11
149.843
 21
879.757
  0
LINE
  8
0
 10
149.843
 20
879.757
 11
149.961
 21
880.373
  0
LINE
  8
0
 10
149.961
 20
880.373
 11
150
 21
881
  0
LINE
  8
0
 10
150
 20
881
 11
150
 21
1111
  0
LINE
  8
0
 10
150
 20
1111
 11
149.961
 21
1111.63
  0
LINE
  8
0
 10
149.961
 20
1111.63
 11
149.843
 21
1112.24
  0
LINE
  8
0
 10
149.843
 20
1112.24
 11
149.649
 21
1112.84
  0
LINE
  8
0
 10
149.649
 20
1112.84
 11
149.382
 21
1113.41
  0
LINE
  8
0
 10
149.382
 20
1113.41
 11
149.045
 21
1113.94
  0
LINE
  8
0
 10
149.045
 20
1113.94
 11
148.645
 21
1114.42
  0
LINE
  8
0
 10
148.645
 20
1114.42
 11
148.187
 21
1114.85
  0
LINE
  8
0
 10
148.187
 20
1114.85
 11
147.679
 21
1115.22
  0
LINE
  8
0
 10
147.679
 20
1115.22
 11
147.129
 21
1115.52
  0
LINE
  8
0
 10
147.129
 20
1115.52
 11
146.545
 21
1115.76
  0
LINE
  8
0
 10
146.545
 20
1115.76
 11
145.937
 21
1115.91
  0
LINE
  8
0
 10
145.937
 20
1115.91
 11
145.314
 21
1115.99
  0
LINE
  8
0
 10
145.314
 20
1115.99
 11
-145.314
 21
1115.99
  0
LINE
  8
0
 10
-145.314
 20
1115.99
 11
-145.937
 21
1115.91
  0
LINE
  8
0
 10
-145.937
 20
1115.91
 11
-146.545
 21
1115.76
  0
LINE
  8
0
 10
-146.545
 20
1115.76
 11
-147.129
 21
1115.52
  0
LINE
  8
0
 10
-147.129
 20
1115.52
 11
-147.679
 21
1115.22
  0
LINE
  8
0
 10
-147.679
 20
1115.22
 11
-148.187
 21
1114.85
  0
LINE
  8
0
 10
-148.187
 20
1114.85
 11
-148.645
 21
1114.42
  0
LINE
  8
0
 10
-148.645
 20
1114.42
 11
-149.045
 21
1113.94
  0
LINE
  8
0
 10
-149.045
 20
1113.94
 11
-149.382
 21
1113.41
  0
LINE
  8
0
 10
-149.382
 20
1113.41
 11
-149.649
 21
1112.84
  0
LINE
  8
0
 10
-149.649
 20
1112.84
 11
-149.843
 21
1112.24
  0
LINE
  8
0
 10
-149.843
 20
1112.24
 11
-149.9
 21
1111.94
  0
LINE
  8
0
 10
-149.9
 20
1111.94
 11
-151.5
 21
1111.94
  0
LINE
  8
0
 10
-151.5
 20
1111.94
 11
-151.5
 21
880.056
  0
LINE
  8
0
 10
-151.5
 20
880.056
 11
-149.9
 21
880.056
  0
LINE
  8
0
 10
-149.9
 20
880.056
 11
-149.843
 21
879.757
  0
LINE
  8
0
 10
-149.843
 20
879.757
 11
-149.649
 21
879.159
  0
LINE
  8
0
 10
-149.649
 20
879.159
 11
-149.382
 21
878.591
  0
LINE
  8
0
 10
-149.382
 20
878.591
 11
-149.045
 21
878.061
  0
LINE
  8
0
 10
-149.045
 20
878.061
 11
-148.645
 21
877.577
  0
LINE
  8
0
 10
-148.645
 20
877.577
 11
-148.187
 21
877.147
  0
LINE
  8
0
 10
-148.187
 20
877.147
 11
-147.679
 21
876.778
  0
LINE
  8
0
 10
-147.679
 20
876.778
 11
-147.129
 21
876.476
  0
LINE
  8
0
 10
-147.129
 20
876.476
 11
-146.545
 21
876.245
  0
LINE
  8
0
 10
-146.545
 20
876.245
 11
-145.937
 21
876.089
  0
LINE
  8
0
 10
-145.937
 20
876.089
 11
-145.314
 21
876.01
  0
LINE
  8
0
 10
-145.314
 20
876.01
 11
145.314
 21
876.01
  0
LINE
  8
0
 10
145.314
 20
876.01
 11
145.937
 21
876.089
  0
LINE
  8
0
 10
-142.613
 20
1106.7
 11
-142.837
 21
1106.73
  0
LINE
  8
0
 10
-142.837
 20
1106.73
 11
-143.056
 21
1106.79
  0
LINE
  8
0
 10
-143.056
 20
1106.79
 11
-143.266
 21
1106.87
  0
LINE
  8
0
 10
-143.266
 20
1106.87
 11
-143.464
 21
1106.98
  0
LINE
  8
0
 10
-143.464
 20
1106.98
 11
-143.647
 21
1107.11
  0
LINE
  8
0
 10
-143.647
 20
1107.11
 11
-143.812
 21
1107.27
  0
LINE
  8
0
 10
-143.812
 20
1107.27
 11
-143.956
 21
1107.44
  0
LINE
  8
0
 10
-143.956
 20
1107.44
 11
-144.077
 21
1107.63
  0
LINE
  8
0
 10
-144.077
 20
1107.63
 11
-144.174
 21
1107.84
  0
LINE
  8
0
 10
-144.174
 20
1107.84
 11
-144.243
 21
1108.05
  0
LINE
  8
0
 10
-144.243
 20
1108.05
 11
-144.286
 21
1108.27
  0
LINE
  8
0
 10
-144.286
 20
1108.27
 11
-144.3
 21
1108.5
  0
LINE
  8
0
 10
-144.3
 20
1108.5
 11
-144.286
 21
1108.73
  0
LINE
  8
0
 10
-144.286
 20
1108.73
 11
-144.243
 21
1108.95
  0
LINE
  8
0
 10
-144.243
 20
1108.95
 11
-144.174
 21
1109.16
  0
LINE
  8
0
 10
-144.174
 20
1109.16
 11
-144.077
 21
1109.37
  0
LINE
  8
0
 10
-144.077
 20
1109.37
 11
-143.956
 21
1109.56
  0
LINE
  8
0
 10
-143.956
 20
1109.56
 11
-143.812
 21
1109.73
  0
LINE
  8
0
 10
-143.812
 20
1109.73
 11
-143.647
 21
1109.89
  0
LINE
  8
0
 10
-143.647
 20
1109.89
 11
-143.464
 21
1110.02
  0
LINE
  8
0
 10
-143.464
 20
1110.02
 11
-143.266
 21
1110.13
  0
LINE
  8
0
 10
-143.266
 20
1110.13
 11
-143.056
 21
1110.21
  0
LINE
  8
0
 10
-143.056
 20
1110.21
 11
-142.837
 21
1110.27
  0
LINE
  8
0
 10
-142.837
 20
1110.27
 11
-142.613
 21
1110.3
  0
LINE
  8
0
 10
-142.613
 20
1110.3
 11
-142.387
 21
1110.3
  0
LINE
  8
0
 10
-142.387
 20
1110.3
 11
-142.163
 21
1110.27
  0
LINE
  8
0
 10
-142.163
 20
1110.27
 11
-141.944
 21
1110.21
  0
LINE
  8
0
 10
-141.944
 20
1110.21
 11
-141.734
 21
1110.13
  0
LINE
  8
0
 10
-141.734
 20
1110.13
 11
-141.536
 21
1110.02
  0
LINE
  8
0
 10
-141.536
 20
1110.02
 11
-141.353
 21
1109.89
  0
LINE
  8
0
 10
-141.353
 20
1109.89
 11
-141.188
 21
1109.73
  0
LINE
  8
0
 10
-141.188
 20
1109.73
 11
-141.044
 21
1109.56
  0
LINE
  8
0
 10
-141.044
 20
1109.56
 11
-140.923
 21
1109.37
  0
LINE
  8
0
 10
-140.923
 20
1109.37
 11
-140.826
 21
1109.16
  0
LINE
  8
0
 10
-140.826
 20
1109.16
 11
-140.757
 21
1108.95
  0
LINE
  8
0
 10
-140.757
 20
1108.95
 11
-140.714
 21
1108.73
  0
LINE
  8
0
 10
-140.714
 20
1108.73
 11
-140.7
 21
1108.5
  0
LINE
  8
0
 10
-140.7
 20
1108.5
 11
-140.714
 21
1108.27
  0
LINE
  8
0
 10
-140.714
 20
1108.27
 11
-140.757
 21
1108.05
  0
LINE
  8
0
 10
-140.757
 20
1108.05
 11
-140.826
 21
1107.84
  0
LINE
  8
0
 10
-140.826
 20
1107.84
 11
-140.923
 21
1107.63
  0
LINE
  8
0
 10
-140.923
 20
1107.63
 11
-141.044
 21
1107.44
  0
LINE
  8
0
 10
-141.044
 20
1107.44
 11
-141.188
 21
1107.27
  0
LINE
  8
0
 10
-141.188
 20
1107.27
 11
-141.353
 21
1107.11
  0
LINE
  8
0
 10
-141.353
 20
1107.11
 11
-141.536
 21
1106.98
  0
LINE
  8
0
 10
-141.536
 20
1106.98
 11
-141.734
 21
1106.87
  0
LINE
  8
0
 10
-141.734
 20
1106.87
 11
-141.944
 21
1106.79
  0
LINE
  8
0
 10
-141.944
 20
1106.79
 11
-142.163
 21
1106.73
  0
LINE
  8
0
 10
-142.163
 20
1106.73
 11
-142.387
 21
1106.7
  0
LINE
  8
0
 10
-142.387
 20
1106.7
 11
-142.613
 21
1106.7
  0
LINE
  8
0
 10
142.387
 20
1106.7
 11
142.163
 21
1106.73
  0
LINE
  8
0
 10
142.163
 20
1106.73
 11
141.944
 21
1106.79
  0
LINE
  8
0
 10
141.944
 20
1106.79
 11
141.734
 21
1106.87
  0
LINE
  8
0
 10
141.734
 20
1106.87
 11
141.536
 21
1106.98
  0
LINE
  8
0
 10
141.536
 20
1106.98
 11
141.353
 21
1107.11
  0
LINE
  8
0
 10
141.353
 20
1107.11
 11
141.188
 21
1107.27
  0
LINE
  8
0
 10
141.188
 20
1107.27
 11
141.044
 21
1107.44
  0
LINE
  8
0
 10
141.044
 20
1107.44
 11
140.923
 21
1107.63
  0
LINE
  8
0
 10
140.923
 20
1107.63
 11
140.826
 21
1107.84
  0
LINE
  8
0
 10
140.826
 20
1107.84
 11
140.757
 21
1108.05
  0
LINE
  8
0
 10
140.757
 20
1108.05
 11
140.714
 21
1108.27
  0
LINE
  8
0
 10
140.714
 20
1108.27
 11
140.7
 21
1108.5
  0
LINE
  8
0
 10
140.7
 20
1108.5
 11
140.714
 21
1108.73
  0
LINE
  8
0
 10
140.714
 20
1108.73
 11
140.757
 21
1108.95
  0
LINE
  8
0
 10
140.757
 20
1108.95
 11
140.826
 21
1109.16
  0
LINE
  8
0
 10
140.826
 20
1109.16
 11
140.923
 21
1109.37
  0
LINE
  8
0
 10
140.923
 20
1109.37
 11
141.044
 21
1109.56
  0
LINE
  8
0
 10
141.044
 20
1109.56
 11
141.188
 21
1109.73
  0
LINE
  8
0
 10
141.188
 20
1109.73
 11
141.353
 21
1109.89
  0
LINE
  8
0
 10
141.353
 20
1109.89
 11
141.536
 21
1110.02
  0
LINE
  8
0
 10
141.536
 20
1110.02
 11
141.734
 21
1110.13
  0
LINE
  8
0
 10
141.734
 20
1110.13
 11
141.944
 21
1110.21
  0
LINE
  8
0
 10
141.944
 20
1110.21
 11
142.163
 21
1110.27
  0
LINE
  8
0
 10
142.163
 20
1110.27
 11
142.387
 21
1110.3
  0
LINE
  8
0
 10
142.387
 20
1110.3
 11
142.613
 21
1110.3
  0
LINE
  8
0
 10
142.613
 20
1110.3
 11
142.837
 21
1110.27
  0
LINE
  8
0
 10
142.837
 20
1110.27
 11
143.056
 21
1110.21
  0
LINE
  8
0
 10
143.056
 20
1110.21
 11
143.266
 21
1110.13
  0
LINE
  8
0
 10
143.266
 20
1110.13
 11
143.464
 21
1110.02
  0
LINE
  8
0
 10
143.464
 20
1110.02
 11
143.647
 21
1109.89
  0
LINE
  8
0
 10
143.647
 20
1109.89
 11
143.812
 21
1109.73
  0
LINE
  8
0
 10
143.812
 20
1109.73
 11
143.956
 21
1109.56
  0
LINE
  8
0
 10
143.956
 20
1109.56
 11
144.077
 21
1109.37
  0
LINE
  8
0
 10
144.077
 20
1109.37
 11
144.174
 21
1109.16
  0
LINE
  8
0
 10
144.174
 20
1109.16
 11
144.243
 21
1108.95
  0
LINE
  8
0
 10
144.243
 20
1108.95
 11
144.286
 21
1108.73
  0
LINE
  8
0
 10
144.286
 20
1108.73
 11
144.3
 21
1108.5
  0
LINE
  8
0
 10
144.3
 20
1108.5
 11
144.286
 21
1108.27
  0
LINE
  8
0
 10
144.286
 20
1108.27
 11
144.243
 21
1108.05
  0
LINE
  8
0
 10
144.243
 20
1108.05
 11
144.174
 21
1107.84
  0
LINE
  8
0
 10
144.174
 20
1107.84
 11
144.077
 21
1107.63
  0
LINE
  8
0
 10
144.077
 20
1107.63
 11
143.956
 21
1107.44
  0
LINE
  8
0
 10
143.956
 20
1107.44
 11
143.812
 21
1107.27
  0
LINE
  8
0
 10
143.812
 20
1107.27
 11
143.647
 21
1107.11
  0
LINE
  8
0
 10
143.647
 20
1107.11
 11
143.464
 21
1106.98
  0
LINE
  8
0
 10
143.464
 20
1106.98
 11
143.266
 21
1106.87
  0
LINE
  8
0
 10
143.266
 20
1106.87
 11
143.056
 21
1106.79
  0
LINE
  8
0
 10
143.056
 20
1106.79
 11
142.837
 21
1106.73
  0
LINE
  8
0
 10
142.837
 20
1106.73
 11
142.613
 21
1106.7
  0
LINE
  8
0
 10
142.613
 20
1106.7
 11
142.387
 21
1106.7
  0
LINE
  8
0
 10
-142.613
 20
881.704
 11
-142.837
 21
881.732
  0
LINE
  8
0
 10
-142.837
 20
881.732
 11
-143.056
 21
881.788
  0
LINE
  8
0
 10
-143.056
 20
881.788
 11
-143.266
 21
881.871
  0
LINE
  8
0
 10
-143.266
 20
881.871
 11
-143.464
 21
881.98
  0
LINE
  8
0
 10
-143.464
 20
881.98
 11
-143.647
 21
882.113
  0
LINE
  8
0
 10
-143.647
 20
882.113
 11
-143.812
 21
882.268
  0
LINE
  8
0
 10
-143.812
 20
882.268
 11
-143.956
 21
882.442
  0
LINE
  8
0
 10
-143.956
 20
882.442
 11
-144.077
 21
882.633
  0
LINE
  8
0
 10
-144.077
 20
882.633
 11
-144.174
 21
882.837
  0
LINE
  8
0
 10
-144.174
 20
882.837
 11
-144.243
 21
883.052
  0
LINE
  8
0
 10
-144.243
 20
883.052
 11
-144.286
 21
883.274
  0
LINE
  8
0
 10
-144.286
 20
883.274
 11
-144.3
 21
883.5
  0
LINE
  8
0
 10
-144.3
 20
883.5
 11
-144.286
 21
883.726
  0
LINE
  8
0
 10
-144.286
 20
883.726
 11
-144.243
 21
883.948
  0
LINE
  8
0
 10
-144.243
 20
883.948
 11
-144.174
 21
884.163
  0
LINE
  8
0
 10
-144.174
 20
884.163
 11
-144.077
 21
884.367
  0
LINE
  8
0
 10
-144.077
 20
884.367
 11
-143.956
 21
884.558
  0
LINE
  8
0
 10
-143.956
 20
884.558
 11
-143.812
 21
884.732
  0
LINE
  8
0
 10
-143.812
 20
884.732
 11
-143.647
 21
884.887
  0
LINE
  8
0
 10
-143.647
 20
884.887
 11
-143.464
 21
885.02
  0
LINE
  8
0
 10
-143.464
 20
885.02
 11
-143.266
 21
885.129
  0
LINE
  8
0
 10
-143.266
 20
885.129
 11
-143.056
 21
885.212
  0
LINE
  8
0
 10
-143.056
 20
885.212
 11
-142.837
 21
885.268
  0
LINE
  8
0
 10
-142.837
 20
885.268
 11
-142.613
 21
885.296
  0
LINE
  8
0
 10
-142.613
 20
885.296
 11
-142.387
 21
885.296
  0
LINE
  8
0
 10
-142.387
 20
885.296
 11
-142.163
 21
885.268
  0
LINE
  8
0
 10
-142.163
 20
885.268
 11
-141.944
 21
885.212
  0
LINE
  8
0
 10
-141.944
 20
885.212
 11
-141.734
 21
885.129
  0
LINE
  8
0
 10
-141.734
 20
885.129
 11
-141.536
 21
885.02
  0
LINE
  8
0
 10
-141.536
 20
885.02
 11
-141.353
 21
884.887
  0
LINE
  8
0
 10
-141.353
 20
884.887
 11
-141.188
 21
884.732
  0
LINE
  8
0
 10
-141.188
 20
884.732
 11
-141.044
 21
884.558
  0
LINE
  8
0
 10
-141.044
 20
884.558
 11
-140.923
 21
884.367
  0
LINE
  8
0
 10
-140.923
 20
884.367
 11
-140.826
 21
884.163
  0
LINE
  8
0
 10
-140.826
 20
884.163
 11
-140.757
 21
883.948
  0
LINE
  8
0
 10
-140.757
 20
883.948
 11
-140.714
 21
883.726
  0
LINE
  8
0
 10
-140.714
 20
883.726
 11
-140.7
 21
883.5
  0
LINE
  8
0
 10
-140.7
 20
883.5
 11
-140.714
 21
883.274
  0
LINE
  8
0
 10
-140.714
 20
883.274
 11
-140.757
 21
883.052
  0
LINE
  8
0
 10
-140.757
 20
883.052
 11
-140.826
 21
882.837
  0
LINE
  8
0
 10
-140.826
 20
882.837
 11
-140.923
 21
882.633
  0
LINE
  8
0
 10
-140.923
 20
882.633
 11
-141.044
 21
882.442
  0
LINE
  8
0
 10
-141.044
 20
882.442
 11
-141.188
 21
882.268
  0
LINE
  8
0
 10
-141.188
 20
882.268
 11
-141.353
 21
882.113
  0
LINE
  8
0
 10
-141.353
 20
882.113
 11
-141.536
 21
881.98
  0
LINE
  8
0
 10
-141.536
 20
881.98
 11
-141.734
 21
881.871
  0
LINE
  8
0
 10
-141.734
 20
881.871
 11
-141.944
 21
881.788
  0
LINE
  8
0
 10
-141.944
 20
881.788
 11
-142.163
 21
881.732
  0
LINE
  8
0
 10
-142.163
 20
881.732
 11
-142.387
 21
881.704
  0
LINE
  8
0
 10
-142.387
 20
881.704
 11
-142.613
 21
881.704
  0
LINE
  8
0
 10
142.387
 20
881.704
 11
142.163
 21
881.732
  0
LINE
  8
0
 10
142.163
 20
881.732
 11
141.944
 21
881.788
  0
LINE
  8
0
 10
141.944
 20
881.788
 11
141.734
 21
881.871
  0
LINE
  8
0
 10
141.734
 20
881.871
 11
141.536
 21
881.98
  0
LINE
  8
0
 10
141.536
 20
881.98
 11
141.353
 21
882.113
  0
LINE
  8
0
 10
141.353
 20
882.113
 11
141.188
 21
882.268
  0
LINE
  8
0
 10
141.188
 20
882.268
 11
141.044
 21
882.442
  0
LINE
  8
0
 10
141.044
 20
882.442
 11
140.923
 21
882.633
  0
LINE
  8
0
 10
140.923
 20
882.633
 11
140.826
 21
882.837
  0
LINE
  8
0
 10
140.826
 20
882.837
 11
140.757
 21
883.052
  0
LINE
  8
0
 10
140.757
 20
883.052
 11
140.714
 21
883.274
  0
LINE
  8
0
 10
140.714
 20
883.274
 11
140.7
 21
883.5
  0
LINE
  8
0
 10
140.7
 20
883.5
 11
140.714
 21
883.726
  0
LINE
  8
0
 10
140.714
 20
883.726
 11
140.757
 21
883.948
  0
LINE
  8
0
 10
140.757
 20
883.948
 11
140.826
 21
884.163
  0
LINE
  8
0
 10
140.826
 20
884.163
 11
140.923
 21
884.367
  0
LINE
  8
0
 10
140.923
 20
884.367
 11
141.044
 21
884.558
  0
LINE
  8
0
 10
141.044
 20
884.558
 11
141.188
 21
884.732
  0
LINE
  8
0
 10
141.188
 20
884.732
 11
141.353
 21
884.887
  0
LINE
  8
0
 10
141.353
 20
884.887
 11
141.536
 21
885.02
  0
LINE
  8
0
 10
141.536
 20
885.02
 11
141.734
 21
885.129
  0
LINE
  8
0
 10
141.734
 20
885.129
 11
141.944
 21
885.212
  0
LINE
  8
0
 10
141.944
 20
885.212
 11
142.163
 21
885.268
  0
LINE
  8
0
 10
142.163
 20
885.268
 11
142.387
 21
885.296
  0
LINE
  8
0
 10
142.387
 20
885.296
 11
142.613
 21
885.296
  0
LINE
  8
0
 10
142.613
 20
885.296
 11
142.837
 21
885.268
  0
LINE
  8
0
 10
142.837
 20
885.268
 11
143.056
 21
885.212
  0
LINE
  8
0
 10
143.056
 20
885.212
 11
143.266
 21
885.129
  0
LINE
  8
0
 10
143.266
 20
885.129
 11
143.464
 21
885.02
  0
LINE
  8
0
 10
143.464
 20
885.02
 11
143.647
 21
884.887
  0
LINE
  8
0
 10
143.647
 20
884.887
 11
143.812
 21
884.732
  0
LINE
  8
0
 10
143.812
 20
884.732
 11
143.956
 21
884.558
  0
LINE
  8
0
 10
143.956
 20
884.558
 11
144.077
 21
884.367
  0
LINE
  8
0
 10
144.077
 20
884.367
 11
144.174
 21
884.163
  0
LINE
  8
0
 10
144.174
 20
884.163
 11
144.243
 21
883.948
  0
LINE
  8
0
 10
144.243
 20
883.948
 11
144.286
 21
883.726
  0
LINE
  8
0
 10
144.286
 20
883.726
 11
144.3
 21
883.5
  0
LINE
  8
0
 10
144.3
 20
883.5
 11
144.286
 21
883.274
  0
LINE
  8
0
 10
144.286
 20
883.274
 11
144.243
 21
883.052
  0
LINE
  8
0
 10
144.243
 20
883.052
 11
144.174
 21
882.837
  0
LINE
  8
0
 10
144.174
 20
882.837
 11
144.077
 21
882.633
  0
LINE
  8
0
 10
144.077
 20
882.633
 11
143.956
 21
882.442
  0
LINE
  8
0
 10
143.956
 20
882.442
 11
143.812
 21
882.268
  0
LINE
  8
0
 10
143.812
 20
882.268
 11
143.647
 21
882.113
  0
LINE
  8
0
 10
143.647
 20
882.113
 11
143.464
 21
881.98
  0
LINE
  8
0
 10
143.464
 20
881.98
 11
143.266
 21
881.871
  0
LINE
  8
0
 10
143.266
 20
881.871
 11
143.056
 21
881.788
  0
LINE
  8
0
 10
143.056
 20
881.788
 11
142.837
 21
881.732
  0
LINE
  8
0
 10
142.837
 20
881.732
 11
142.613
 21
881.704
  0
LINE
  8
0
 10
142.613
 20
881.704
 11
142.387
 21
881.704
  0
ENDSEC
  0
SECTION
  2
OBJECTS
  0
DICTIONARY
  0
ENDSEC
  0
EOF
