<?xml version="1.0" standalone="no"?>
<!DOCTYPE svg PUBLIC "-//W3C//DTD SVG 1.1//EN" "http://www.w3.org/Graphics/SVG/1.1/DTD/svg11.dtd">
<svg width="257mm" height="400mm" viewBox="-129 -506 257 400" xmlns="http://www.w3.org/2000/svg" version="1.1">
<title>OpenSCAD Model</title>
<path d="
M 123.437,-310.589 L 124.045,-310.745 L 124.629,-310.976 L 125.179,-311.278 L 125.687,-311.647 L 126.145,-312.077
 L 126.545,-312.561 L 126.882,-313.091 L 127.149,-313.659 L 127.343,-314.257 L 127.461,-314.873 L 127.5,-315.5
 L 127.5,-500.5 L 127.461,-501.127 L 127.343,-501.743 L 127.149,-502.341 L 126.882,-502.909 L 126.545,-503.439
 L 126.145,-503.923 L 125.687,-504.353 L 125.179,-504.722 L 124.629,-505.024 L 124.045,-505.255 L 123.437,-505.411
 L 122.814,-505.49 L -122.814,-505.49 L -123.437,-505.411 L -124.045,-505.255 L -124.629,-505.024 L -125.179,-504.722
 L -125.687,-504.353 L -126,-504.059 L -126,-505.115 L -129,-505.115 L -129,-310.885 L -126,-310.885
 L -126,-311.941 L -125.687,-311.647 L -125.179,-311.278 L -124.629,-310.976 L -124.045,-310.745 L -123.437,-310.589
 L -122.814,-310.51 L 122.814,-310.51 z
M 119.849,-495.605 L 119.55,-495.643 L 119.258,-495.717 L 118.978,-495.828 L 118.714,-495.974 L 118.47,-496.151
 L 118.25,-496.357 L 118.058,-496.589 L 117.897,-496.844 L 117.769,-497.117 L 117.675,-497.403 L 117.619,-497.699
 L 117.6,-498 L 117.619,-498.301 L 117.675,-498.597 L 117.769,-498.883 L 117.897,-499.156 L 118.058,-499.411
 L 118.25,-499.643 L 118.47,-499.849 L 118.714,-500.026 L 118.978,-500.172 L 119.258,-500.283 L 119.55,-500.357
 L 119.849,-500.395 L 120.151,-500.395 L 120.45,-500.357 L 120.742,-500.283 L 121.022,-500.172 L 121.286,-500.026
 L 121.53,-499.849 L 121.75,-499.643 L 121.942,-499.411 L 122.103,-499.156 L 122.231,-498.883 L 122.325,-498.597
 L 122.381,-498.301 L 122.4,-498 L 122.381,-497.699 L 122.325,-497.403 L 122.231,-497.117 L 122.103,-496.844
 L 121.942,-496.589 L 121.75,-496.357 L 121.53,-496.151 L 121.286,-495.974 L 121.022,-495.828 L 120.742,-495.717
 L 120.45,-495.643 L 120.151,-495.605 z
M -120.151,-495.605 L -120.45,-495.643 L -120.742,-495.717 L -121.022,-495.828 L -121.286,-495.974 L -121.53,-496.151
 L -121.75,-496.357 L -121.942,-496.589 L -122.103,-496.844 L -122.231,-497.117 L -122.325,-497.403 L -122.381,-497.699
 L -122.4,-498 L -122.381,-498.301 L -122.325,-498.597 L -122.231,-498.883 L -122.103,-499.156 L -121.942,-499.411
 L -121.75,-499.643 L -121.53,-499.849 L -121.286,-500.026 L -121.022,-500.172 L -120.742,-500.283 L -120.45,-500.357
 L -120.151,-500.395 L -119.849,-500.395 L -119.55,-500.357 L -119.258,-500.283 L -118.978,-500.172 L -118.714,-500.026
 L -118.47,-499.849 L -118.25,-499.643 L -118.058,-499.411 L -117.897,-499.156 L -117.769,-498.883 L -117.675,-498.597
 L -117.619,-498.301 L -117.6,-498 L -117.619,-497.699 L -117.675,-497.403 L -117.769,-497.117 L -117.897,-496.844
 L -118.058,-496.589 L -118.25,-496.357 L -118.47,-496.151 L -118.714,-495.974 L -118.978,-495.828 L -119.258,-495.717
 L -119.55,-495.643 L -119.849,-495.605 z
M 119.849,-315.605 L 119.55,-315.643 L 119.258,-315.717 L 118.978,-315.828 L 118.714,-315.974 L 118.47,-316.151
 L 118.25,-316.357 L 118.058,-316.589 L 117.897,-316.844 L 117.769,-317.117 L 117.675,-317.403 L 117.619,-317.699
 L 117.6,-318 L 117.619,-318.301 L 117.675,-318.597 L 117.769,-318.883 L 117.897,-319.156 L 118.058,-319.411
 L 118.25,-319.643 L 118.47,-319.849 L 118.714,-320.026 L 118.978,-320.172 L 119.258,-320.283 L 119.55,-320.357
 L 119.849,-320.395 L 120.151,-320.395 L 120.45,-320.357 L 120.742,-320.283 L 121.022,-320.172 L 121.286,-320.026
 L 121.53,-319.849 L 121.75,-319.643 L 121.942,-319.411 L 122.103,-319.156 L 122.231,-318.883 L 122.325,-318.597
 L 122.381,-318.301 L 122.4,-318 L 122.381,-317.699 L 122.325,-317.403 L 122.231,-317.117 L 122.103,-316.844
 L 121.942,-316.589 L 121.75,-316.357 L 121.53,-316.151 L 121.286,-315.974 L 121.022,-315.828 L 120.742,-315.717
 L 120.45,-315.643 L 120.151,-315.605 z
M -120.151,-315.605 L -120.45,-315.643 L -120.742,-315.717 L -121.022,-315.828 L -121.286,-315.974 L -121.53,-316.151
 L -121.75,-316.357 L -121.942,-316.589 L -122.103,-316.844 L -122.231,-317.117 L -122.325,-317.403 L -122.381,-317.699
 L -122.4,-318 L -122.381,-318.301 L -122.325,-318.597 L -122.231,-318.883 L -122.103,-319.156 L -121.942,-319.411
 L -121.75,-319.643 L -121.53,-319.849 L -121.286,-320.026 L -121.022,-320.172 L -120.742,-320.283 L -120.45,-320.357
 L -120.151,-320.395 L -119.849,-320.395 L -119.55,-320.357 L -119.258,-320.283 L -118.978,-320.172 L -118.714,-320.026
 L -118.47,-319.849 L -118.25,-319.643 L -118.058,-319.411 L -117.897,-319.156 L -117.769,-318.883 L -117.675,-318.597
 L -117.619,-318.301 L -117.6,-318 L -117.619,-317.699 L -117.675,-317.403 L -117.769,-317.117 L -117.897,-316.844
 L -118.058,-316.589 L -118.25,-316.357 L -118.47,-316.151 L -118.714,-315.974 L -118.978,-315.828 L -119.258,-315.717
 L -119.55,-315.643 L -119.849,-315.605 z
M 123.437,-106.589 L 124.045,-106.745 L 124.629,-106.976 L 125.179,-107.278 L 125.687,-107.647 L 126.145,-108.077
 L 126.545,-108.561 L 126.882,-109.091 L 127.149,-109.659 L 127.343,-110.257 L 127.461,-110.873 L 127.5,-111.5
 L 127.5,-296.5 L 127.461,-297.127 L 127.343,-297.743 L 127.149,-298.341 L 126.882,-298.909 L 126.545,-299.439
 L 126.145,-299.923 L 125.687,-300.353 L 125.179,-300.722 L 124.629,-301.024 L 124.045,-301.255 L 123.437,-301.411
 L 122.814,-301.49 L -122.814,-301.49 L -123.437,-301.411 L -124.045,-301.255 L -124.629,-301.024 L -125.179,-300.722
 L -125.687,-300.353 L -126.145,-299.923 L -126.545,-299.439 L -126.882,-298.909 L -127.149,-298.341 L -127.343,-297.743
 L -127.4,-297.444 L -129,-297.444 L -129,-110.556 L -127.4,-110.556 L -127.343,-110.257 L -127.149,-109.659
 L -126.882,-109.091 L -126.545,-108.561 L -126.145,-108.077 L -125.687,-107.647 L -125.179,-107.278 L -124.629,-106.976
 L -124.045,-106.745 L -123.437,-106.589 L -122.814,-106.51 L 122.814,-106.51 z
M 119.887,-292.204 L 119.663,-292.232 L 119.444,-292.288 L 119.234,-292.371 L 119.036,-292.48 L 118.853,-292.613
 L 118.688,-292.768 L 118.544,-292.942 L 118.423,-293.133 L 118.326,-293.337 L 118.257,-293.552 L 118.214,-293.774
 L 118.2,-294 L 118.214,-294.226 L 118.257,-294.448 L 118.326,-294.663 L 118.423,-294.867 L 118.544,-295.058
 L 118.688,-295.232 L 118.853,-295.387 L 119.036,-295.52 L 119.234,-295.629 L 119.444,-295.712 L 119.663,-295.768
 L 119.887,-295.796 L 120.113,-295.796 L 120.337,-295.768 L 120.556,-295.712 L 120.766,-295.629 L 120.964,-295.52
 L 121.147,-295.387 L 121.312,-295.232 L 121.456,-295.058 L 121.577,-294.867 L 121.674,-294.663 L 121.743,-294.448
 L 121.786,-294.226 L 121.8,-294 L 121.786,-293.774 L 121.743,-293.552 L 121.674,-293.337 L 121.577,-293.133
 L 121.456,-292.942 L 121.312,-292.768 L 121.147,-292.613 L 120.964,-292.48 L 120.766,-292.371 L 120.556,-292.288
 L 120.337,-292.232 L 120.113,-292.204 z
M -120.113,-292.204 L -120.337,-292.232 L -120.556,-292.288 L -120.766,-292.371 L -120.964,-292.48 L -121.147,-292.613
 L -121.312,-292.768 L -121.456,-292.942 L -121.577,-293.133 L -121.674,-293.337 L -121.743,-293.552 L -121.786,-293.774
 L -121.8,-294 L -121.786,-294.226 L -121.743,-294.448 L -121.674,-294.663 L -121.577,-294.867 L -121.456,-295.058
 L -121.312,-295.232 L -121.147,-295.387 L -120.964,-295.52 L -120.766,-295.629 L -120.556,-295.712 L -120.337,-295.768
 L -120.113,-295.796 L -119.887,-295.796 L -119.663,-295.768 L -119.444,-295.712 L -119.234,-295.629 L -119.036,-295.52
 L -118.853,-295.387 L -118.688,-295.232 L -118.544,-295.058 L -118.423,-294.867 L -118.326,-294.663 L -118.257,-294.448
 L -118.214,-294.226 L -118.2,-294 L -118.214,-293.774 L -118.257,-293.552 L -118.326,-293.337 L -118.423,-293.133
 L -118.544,-292.942 L -118.688,-292.768 L -118.853,-292.613 L -119.036,-292.48 L -119.234,-292.371 L -119.444,-292.288
 L -119.663,-292.232 L -119.887,-292.204 z
M -120.113,-112.204 L -120.337,-112.232 L -120.556,-112.288 L -120.766,-112.371 L -120.964,-112.48 L -121.147,-112.613
 L -121.312,-112.768 L -121.456,-112.942 L -121.577,-113.133 L -121.674,-113.337 L -121.743,-113.552 L -121.786,-113.774
 L -121.8,-114 L -121.786,-114.226 L -121.743,-114.448 L -121.674,-114.663 L -121.577,-114.867 L -121.456,-115.058
 L -121.312,-115.232 L -121.147,-115.387 L -120.964,-115.52 L -120.766,-115.629 L -120.556,-115.712 L -120.337,-115.768
 L -120.113,-115.796 L -119.887,-115.796 L -119.663,-115.768 L -119.444,-115.712 L -119.234,-115.629 L -119.036,-115.52
 L -118.853,-115.387 L -118.688,-115.232 L -118.544,-115.058 L -118.423,-114.867 L -118.326,-114.663 L -118.257,-114.448
 L -118.214,-114.226 L -118.2,-114 L -118.214,-113.774 L -118.257,-113.552 L -118.326,-113.337 L -118.423,-113.133
 L -118.544,-112.942 L -118.688,-112.768 L -118.853,-112.613 L -119.036,-112.48 L -119.234,-112.371 L -119.444,-112.288
 L -119.663,-112.232 L -119.887,-112.204 z
M 119.887,-112.204 L 119.663,-112.232 L 119.444,-112.288 L 119.234,-112.371 L 119.036,-112.48 L 118.853,-112.613
 L 118.688,-112.768 L 118.544,-112.942 L 118.423,-113.133 L 118.326,-113.337 L 118.257,-113.552 L 118.214,-113.774
 L 118.2,-114 L 118.214,-114.226 L 118.257,-114.448 L 118.326,-114.663 L 118.423,-114.867 L 118.544,-115.058
 L 118.688,-115.232 L 118.853,-115.387 L 119.036,-115.52 L 119.234,-115.629 L 119.444,-115.712 L 119.663,-115.768
 L 119.887,-115.796 L 120.113,-115.796 L 120.337,-115.768 L 120.556,-115.712 L 120.766,-115.629 L 120.964,-115.52
 L 121.147,-115.387 L 121.312,-115.232 L 121.456,-115.058 L 121.577,-114.867 L 121.674,-114.663 L 121.743,-114.448
 L 121.786,-114.226 L 121.8,-114 L 121.786,-113.774 L 121.743,-113.552 L 121.674,-113.337 L 121.577,-113.133
 L 121.456,-112.942 L 121.312,-112.768 L 121.147,-112.613 L 120.964,-112.48 L 120.766,-112.371 L 120.556,-112.288
 L 120.337,-112.232 L 120.113,-112.204 z
" stroke="black" fill="lightgray" stroke-width="0.5"/>
</svg>
