<?xml version="1.0" standalone="no"?>
<!DOCTYPE svg PUBLIC "-//W3C//DTD SVG 1.1//EN" "http://www.w3.org/Graphics/SVG/1.1/DTD/svg11.dtd">
<svg width="287mm" height="1107mm" viewBox="-144 -2088 287 1107" xmlns="http://www.w3.org/2000/svg" version="1.1">
<title>OpenSCAD Model</title>
<path d="
M -141,-1819.44 L -140.687,-1819.15 L -140.179,-1818.78 L -139.629,-1818.48 L -139.045,-1818.24 L -138.437,-1818.09
 L -137.814,-1818.01 L 137.814,-1818.01 L 138.437,-1818.09 L 139.045,-1818.24 L 139.629,-1818.48 L 140.179,-1818.78
 L 140.687,-1819.15 L 141.145,-1819.58 L 141.545,-1820.06 L 141.882,-1820.59 L 142.149,-1821.16 L 142.343,-1821.76
 L 142.461,-1822.37 L 142.5,-1823 L 142.5,-2083 L 142.461,-2083.63 L 142.343,-2084.24 L 142.149,-2084.84
 L 141.882,-2085.41 L 141.545,-2085.94 L 141.145,-2086.42 L 140.687,-2086.85 L 140.179,-2087.22 L 139.629,-2087.52
 L 139.045,-2087.76 L 138.437,-2087.91 L 137.814,-2087.99 L -137.814,-2087.99 L -138.437,-2087.91 L -139.045,-2087.76
 L -139.629,-2087.52 L -140.179,-2087.22 L -140.687,-2086.85 L -141,-2086.56 L -141,-2087.99 L -144,-2087.99
 L -144,-1818.01 L -141,-1818.01 z
M -137.251,-1819.51 L -137.75,-1819.57 L -138.236,-1819.7 L -138.703,-1819.88 L -139.143,-1820.12 L -139.55,-1820.42
 L -139.916,-1820.76 L -140.236,-1821.15 L -140.505,-1821.57 L -140.719,-1822.03 L -140.874,-1822.51 L -140.968,-1823
 L -141,-1823.5 L -141,-2082.5 L -140.968,-2083 L -140.874,-2083.49 L -140.719,-2083.97 L -140.505,-2084.43
 L -140.236,-2084.85 L -139.916,-2085.24 L -139.55,-2085.58 L -139.143,-2085.88 L -138.703,-2086.12 L -138.236,-2086.3
 L -137.75,-2086.43 L -137.251,-2086.49 L 137.251,-2086.49 L 137.75,-2086.43 L 138.236,-2086.3 L 138.703,-2086.12
 L 139.143,-2085.88 L 139.55,-2085.58 L 139.916,-2085.24 L 140.236,-2084.85 L 140.505,-2084.43 L 140.719,-2083.97
 L 140.874,-2083.49 L 140.968,-2083 L 141,-2082.5 L 141,-1823.5 L 140.968,-1823 L 140.874,-1822.51
 L 140.719,-1822.03 L 140.505,-1821.57 L 140.236,-1821.15 L 139.916,-1820.76 L 139.55,-1820.42 L 139.143,-1820.12
 L 138.703,-1819.88 L 138.236,-1819.7 L 137.75,-1819.57 L 137.251,-1819.51 z
M -141,-1540.44 L -140.687,-1540.15 L -140.179,-1539.78 L -139.629,-1539.48 L -139.045,-1539.24 L -138.437,-1539.09
 L -137.814,-1539.01 L 137.814,-1539.01 L 138.437,-1539.09 L 139.045,-1539.24 L 139.629,-1539.48 L 140.179,-1539.78
 L 140.687,-1540.15 L 141.145,-1540.58 L 141.545,-1541.06 L 141.882,-1541.59 L 142.149,-1542.16 L 142.343,-1542.76
 L 142.461,-1543.37 L 142.5,-1544 L 142.5,-1804 L 142.461,-1804.63 L 142.343,-1805.24 L 142.149,-1805.84
 L 141.882,-1806.41 L 141.545,-1806.94 L 141.145,-1807.42 L 140.687,-1807.85 L 140.179,-1808.22 L 139.629,-1808.52
 L 139.045,-1808.76 L 138.437,-1808.91 L 137.814,-1808.99 L -137.814,-1808.99 L -138.437,-1808.91 L -139.045,-1808.76
 L -139.629,-1808.52 L -140.179,-1808.22 L -140.687,-1807.85 L -141,-1807.56 L -141,-1808.99 L -144,-1808.99
 L -144,-1539.01 L -141,-1539.01 z
M -137.251,-1540.51 L -137.75,-1540.57 L -138.236,-1540.7 L -138.703,-1540.88 L -139.143,-1541.12 L -139.55,-1541.42
 L -139.916,-1541.76 L -140.236,-1542.15 L -140.505,-1542.57 L -140.719,-1543.03 L -140.874,-1543.51 L -140.968,-1544
 L -141,-1544.5 L -141,-1803.5 L -140.968,-1804 L -140.874,-1804.49 L -140.719,-1804.97 L -140.505,-1805.43
 L -140.236,-1805.85 L -139.916,-1806.24 L -139.55,-1806.58 L -139.143,-1806.88 L -138.703,-1807.12 L -138.236,-1807.3
 L -137.75,-1807.43 L -137.251,-1807.49 L 137.251,-1807.49 L 137.75,-1807.43 L 138.236,-1807.3 L 138.703,-1807.12
 L 139.143,-1806.88 L 139.55,-1806.58 L 139.916,-1806.24 L 140.236,-1805.85 L 140.505,-1805.43 L 140.719,-1804.97
 L 140.874,-1804.49 L 140.968,-1804 L 141,-1803.5 L 141,-1544.5 L 140.968,-1544 L 140.874,-1543.51
 L 140.719,-1543.03 L 140.505,-1542.57 L 140.236,-1542.15 L 139.916,-1541.76 L 139.55,-1541.42 L 139.143,-1541.12
 L 138.703,-1540.88 L 138.236,-1540.7 L 137.75,-1540.57 L 137.251,-1540.51 z
M 138.437,-1260.09 L 139.045,-1260.24 L 139.629,-1260.48 L 140.179,-1260.78 L 140.687,-1261.15 L 141.145,-1261.58
 L 141.545,-1262.06 L 141.882,-1262.59 L 142.149,-1263.16 L 142.343,-1263.76 L 142.461,-1264.37 L 142.5,-1265
 L 142.5,-1525 L 142.461,-1525.63 L 142.343,-1526.24 L 142.149,-1526.84 L 141.882,-1527.41 L 141.545,-1527.94
 L 141.145,-1528.42 L 140.687,-1528.85 L 140.179,-1529.22 L 139.629,-1529.52 L 139.045,-1529.76 L 138.437,-1529.91
 L 137.814,-1529.99 L -137.814,-1529.99 L -138.437,-1529.91 L -139.045,-1529.76 L -139.629,-1529.52 L -140.179,-1529.22
 L -140.687,-1528.85 L -141,-1528.56 L -141,-1529.98 L -144,-1529.98 L -144,-1260.02 L -141,-1260.02
 L -141,-1261.44 L -140.687,-1261.15 L -140.179,-1260.78 L -139.629,-1260.48 L -139.045,-1260.24 L -138.437,-1260.09
 L -137.814,-1260.01 L 137.814,-1260.01 z
M -137.195,-1262.39 L -137.583,-1262.44 L -137.962,-1262.54 L -138.325,-1262.68 L -138.668,-1262.87 L -138.984,-1263.1
 L -139.269,-1263.37 L -139.518,-1263.67 L -139.728,-1264 L -139.894,-1264.35 L -140.015,-1264.73 L -140.088,-1265.11
 L -140.113,-1265.5 L -140.113,-1524.5 L -140.088,-1524.89 L -140.015,-1525.27 L -139.894,-1525.65 L -139.728,-1526
 L -139.518,-1526.33 L -139.269,-1526.63 L -138.984,-1526.9 L -138.668,-1527.13 L -138.325,-1527.32 L -137.962,-1527.46
 L -137.583,-1527.56 L -137.195,-1527.61 L 137.195,-1527.61 L 137.583,-1527.56 L 137.962,-1527.46 L 138.325,-1527.32
 L 138.668,-1527.13 L 138.984,-1526.9 L 139.269,-1526.63 L 139.518,-1526.33 L 139.728,-1526 L 139.894,-1525.65
 L 140.015,-1525.27 L 140.088,-1524.89 L 140.113,-1524.5 L 140.113,-1265.5 L 140.088,-1265.11 L 140.015,-1264.73
 L 139.894,-1264.35 L 139.728,-1264 L 139.518,-1263.67 L 139.269,-1263.37 L 138.984,-1263.1 L 138.668,-1262.87
 L 138.325,-1262.68 L 137.962,-1262.54 L 137.583,-1262.44 L 137.195,-1262.39 z
M 138.437,-981.089 L 139.045,-981.245 L 139.629,-981.476 L 140.179,-981.778 L 140.687,-982.147 L 141.145,-982.577
 L 141.545,-983.061 L 141.882,-983.591 L 142.149,-984.159 L 142.343,-984.757 L 142.461,-985.373 L 142.5,-986
 L 142.5,-1246 L 142.461,-1246.63 L 142.343,-1247.24 L 142.149,-1247.84 L 141.882,-1248.41 L 141.545,-1248.94
 L 141.145,-1249.42 L 140.687,-1249.85 L 140.179,-1250.22 L 139.629,-1250.52 L 139.045,-1250.76 L 138.437,-1250.91
 L 137.814,-1250.99 L -137.814,-1250.99 L -138.437,-1250.91 L -139.045,-1250.76 L -139.629,-1250.52 L -140.179,-1250.22
 L -140.687,-1249.85 L -141,-1249.56 L -141,-1249.65 L -144,-1249.65 L -144,-982.347 L -141,-982.347
 L -141,-982.441 L -140.687,-982.147 L -140.179,-981.778 L -139.629,-981.476 L -139.045,-981.245 L -138.437,-981.089
 L -137.814,-981.01 L 137.814,-981.01 z
M -135.134,-1241.37 L -135.4,-1241.4 L -135.66,-1241.47 L -135.909,-1241.57 L -136.144,-1241.7 L -136.361,-1241.85
 L -136.557,-1242.04 L -136.727,-1242.24 L -136.871,-1242.47 L -136.985,-1242.71 L -137.068,-1242.97 L -137.118,-1243.23
 L -137.135,-1243.5 L -137.118,-1243.77 L -137.068,-1244.03 L -136.985,-1244.29 L -136.871,-1244.53 L -136.727,-1244.76
 L -136.557,-1244.96 L -136.361,-1245.15 L -136.144,-1245.3 L -135.909,-1245.43 L -135.66,-1245.53 L -135.4,-1245.6
 L -135.134,-1245.63 L -134.866,-1245.63 L -134.6,-1245.6 L -134.34,-1245.53 L -134.091,-1245.43 L -133.856,-1245.3
 L -133.639,-1245.15 L -133.443,-1244.96 L -133.273,-1244.76 L -133.129,-1244.53 L -133.015,-1244.29 L -132.932,-1244.03
 L -132.882,-1243.77 L -132.865,-1243.5 L -132.882,-1243.23 L -132.932,-1242.97 L -133.015,-1242.71 L -133.129,-1242.47
 L -133.273,-1242.24 L -133.443,-1242.04 L -133.639,-1241.85 L -133.856,-1241.7 L -134.091,-1241.57 L -134.34,-1241.47
 L -134.6,-1241.4 L -134.866,-1241.37 z
M 134.866,-1241.37 L 134.6,-1241.4 L 134.34,-1241.47 L 134.091,-1241.57 L 133.856,-1241.7 L 133.639,-1241.85
 L 133.443,-1242.04 L 133.273,-1242.24 L 133.129,-1242.47 L 133.015,-1242.71 L 132.932,-1242.97 L 132.882,-1243.23
 L 132.865,-1243.5 L 132.882,-1243.77 L 132.932,-1244.03 L 133.015,-1244.29 L 133.129,-1244.53 L 133.273,-1244.76
 L 133.443,-1244.96 L 133.639,-1245.15 L 133.856,-1245.3 L 134.091,-1245.43 L 134.34,-1245.53 L 134.6,-1245.6
 L 134.866,-1245.63 L 135.134,-1245.63 L 135.4,-1245.6 L 135.66,-1245.53 L 135.909,-1245.43 L 136.144,-1245.3
 L 136.361,-1245.15 L 136.557,-1244.96 L 136.727,-1244.76 L 136.871,-1244.53 L 136.985,-1244.29 L 137.068,-1244.03
 L 137.118,-1243.77 L 137.135,-1243.5 L 137.118,-1243.23 L 137.068,-1242.97 L 136.985,-1242.71 L 136.871,-1242.47
 L 136.727,-1242.24 L 136.557,-1242.04 L 136.361,-1241.85 L 136.144,-1241.7 L 135.909,-1241.57 L 135.66,-1241.47
 L 135.4,-1241.4 L 135.134,-1241.37 z
M -135.134,-986.369 L -135.4,-986.403 L -135.66,-986.469 L -135.909,-986.568 L -136.144,-986.697 L -136.361,-986.855
 L -136.557,-987.038 L -136.727,-987.245 L -136.871,-987.471 L -136.985,-987.714 L -137.068,-987.969 L -137.118,-988.232
 L -137.135,-988.5 L -137.118,-988.768 L -137.068,-989.031 L -136.985,-989.286 L -136.871,-989.529 L -136.727,-989.755
 L -136.557,-989.962 L -136.361,-990.145 L -136.144,-990.303 L -135.909,-990.432 L -135.66,-990.531 L -135.4,-990.597
 L -135.134,-990.631 L -134.866,-990.631 L -134.6,-990.597 L -134.34,-990.531 L -134.091,-990.432 L -133.856,-990.303
 L -133.639,-990.145 L -133.443,-989.962 L -133.273,-989.755 L -133.129,-989.529 L -133.015,-989.286 L -132.932,-989.031
 L -132.882,-988.768 L -132.865,-988.5 L -132.882,-988.232 L -132.932,-987.969 L -133.015,-987.714 L -133.129,-987.471
 L -133.273,-987.245 L -133.443,-987.038 L -133.639,-986.855 L -133.856,-986.697 L -134.091,-986.568 L -134.34,-986.469
 L -134.6,-986.403 L -134.866,-986.369 z
M 134.866,-986.369 L 134.6,-986.403 L 134.34,-986.469 L 134.091,-986.568 L 133.856,-986.697 L 133.639,-986.855
 L 133.443,-987.038 L 133.273,-987.245 L 133.129,-987.471 L 133.015,-987.714 L 132.932,-987.969 L 132.882,-988.232
 L 132.865,-988.5 L 132.882,-988.768 L 132.932,-989.031 L 133.015,-989.286 L 133.129,-989.529 L 133.273,-989.755
 L 133.443,-989.962 L 133.639,-990.145 L 133.856,-990.303 L 134.091,-990.432 L 134.34,-990.531 L 134.6,-990.597
 L 134.866,-990.631 L 135.134,-990.631 L 135.4,-990.597 L 135.66,-990.531 L 135.909,-990.432 L 136.144,-990.303
 L 136.361,-990.145 L 136.557,-989.962 L 136.727,-989.755 L 136.871,-989.529 L 136.985,-989.286 L 137.068,-989.031
 L 137.118,-988.768 L 137.135,-988.5 L 137.118,-988.232 L 137.068,-987.969 L 136.985,-987.714 L 136.871,-987.471
 L 136.727,-987.245 L 136.557,-987.038 L 136.361,-986.855 L 136.144,-986.697 L 135.909,-986.568 L 135.66,-986.469
 L 135.4,-986.403 L 135.134,-986.369 z
" stroke="black" fill="lightgray" stroke-width="0.5"/>
</svg>
