<?xml version="1.0" standalone="no"?>
<!DOCTYPE svg PUBLIC "-//W3C//DTD SVG 1.1//EN" "http://www.w3.org/Graphics/SVG/1.1/DTD/svg11.dtd">
<svg width="302mm" height="712mm" viewBox="-152 -1364 302 712" xmlns="http://www.w3.org/2000/svg" version="1.1">
<title>OpenSCAD Model</title>
<path d="
M -148.5,-1229.94 L -148.187,-1229.65 L -147.679,-1229.28 L -147.129,-1228.98 L -146.545,-1228.74 L -145.937,-1228.59
 L -145.314,-1228.51 L 145.314,-1228.51 L 145.937,-1228.59 L 146.545,-1228.74 L 147.129,-1228.98 L 147.679,-1229.28
 L 148.187,-1229.65 L 148.645,-1230.08 L 149.045,-1230.56 L 149.382,-1231.09 L 149.649,-1231.66 L 149.843,-1232.26
 L 149.961,-1232.87 L 150,-1233.5 L 150,-1358.5 L 149.961,-1359.13 L 149.843,-1359.74 L 149.649,-1360.34
 L 149.382,-1360.91 L 149.045,-1361.44 L 148.645,-1361.92 L 148.187,-1362.35 L 147.679,-1362.72 L 147.129,-1363.02
 L 146.545,-1363.26 L 145.937,-1363.41 L 145.314,-1363.49 L -145.314,-1363.49 L -145.937,-1363.41 L -146.545,-1363.26
 L -147.129,-1363.02 L -147.679,-1362.72 L -148.187,-1362.35 L -148.5,-1362.06 L -148.5,-1363.49 L -151.5,-1363.49
 L -151.5,-1228.51 L -148.5,-1228.51 z
M -144.751,-1230.01 L -145.25,-1230.07 L -145.736,-1230.2 L -146.203,-1230.38 L -146.643,-1230.62 L -147.05,-1230.92
 L -147.416,-1231.26 L -147.736,-1231.65 L -148.005,-1232.07 L -148.219,-1232.53 L -148.374,-1233.01 L -148.468,-1233.5
 L -148.5,-1234 L -148.5,-1358 L -148.468,-1358.5 L -148.374,-1358.99 L -148.219,-1359.47 L -148.005,-1359.93
 L -147.736,-1360.35 L -147.416,-1360.74 L -147.05,-1361.08 L -146.643,-1361.38 L -146.203,-1361.62 L -145.736,-1361.8
 L -145.25,-1361.93 L -144.751,-1361.99 L 144.751,-1361.99 L 145.25,-1361.93 L 145.736,-1361.8 L 146.203,-1361.62
 L 146.643,-1361.38 L 147.05,-1361.08 L 147.416,-1360.74 L 147.736,-1360.35 L 148.005,-1359.93 L 148.219,-1359.47
 L 148.374,-1358.99 L 148.468,-1358.5 L 148.5,-1358 L 148.5,-1234 L 148.468,-1233.5 L 148.374,-1233.01
 L 148.219,-1232.53 L 148.005,-1232.07 L 147.736,-1231.65 L 147.416,-1231.26 L 147.05,-1230.92 L 146.643,-1230.62
 L 146.203,-1230.38 L 145.736,-1230.2 L 145.25,-1230.07 L 144.751,-1230.01 z
M -148.5,-1085.94 L -148.187,-1085.65 L -147.679,-1085.28 L -147.129,-1084.98 L -146.545,-1084.74 L -145.937,-1084.59
 L -145.314,-1084.51 L 145.314,-1084.51 L 145.937,-1084.59 L 146.545,-1084.74 L 147.129,-1084.98 L 147.679,-1085.28
 L 148.187,-1085.65 L 148.645,-1086.08 L 149.045,-1086.56 L 149.382,-1087.09 L 149.649,-1087.66 L 149.843,-1088.26
 L 149.961,-1088.87 L 150,-1089.5 L 150,-1214.5 L 149.961,-1215.13 L 149.843,-1215.74 L 149.649,-1216.34
 L 149.382,-1216.91 L 149.045,-1217.44 L 148.645,-1217.92 L 148.187,-1218.35 L 147.679,-1218.72 L 147.129,-1219.02
 L 146.545,-1219.26 L 145.937,-1219.41 L 145.314,-1219.49 L -145.314,-1219.49 L -145.937,-1219.41 L -146.545,-1219.26
 L -147.129,-1219.02 L -147.679,-1218.72 L -148.187,-1218.35 L -148.5,-1218.06 L -148.5,-1219.49 L -151.5,-1219.49
 L -151.5,-1084.51 L -148.5,-1084.51 z
M -144.751,-1086.01 L -145.25,-1086.07 L -145.736,-1086.2 L -146.203,-1086.38 L -146.643,-1086.62 L -147.05,-1086.92
 L -147.416,-1087.26 L -147.736,-1087.65 L -148.005,-1088.07 L -148.219,-1088.53 L -148.374,-1089.01 L -148.468,-1089.5
 L -148.5,-1090 L -148.5,-1214 L -148.468,-1214.5 L -148.374,-1214.99 L -148.219,-1215.47 L -148.005,-1215.93
 L -147.736,-1216.35 L -147.416,-1216.74 L -147.05,-1217.08 L -146.643,-1217.38 L -146.203,-1217.62 L -145.736,-1217.8
 L -145.25,-1217.93 L -144.751,-1217.99 L 144.751,-1217.99 L 145.25,-1217.93 L 145.736,-1217.8 L 146.203,-1217.62
 L 146.643,-1217.38 L 147.05,-1217.08 L 147.416,-1216.74 L 147.736,-1216.35 L 148.005,-1215.93 L 148.219,-1215.47
 L 148.374,-1214.99 L 148.468,-1214.5 L 148.5,-1214 L 148.5,-1090 L 148.468,-1089.5 L 148.374,-1089.01
 L 148.219,-1088.53 L 148.005,-1088.07 L 147.736,-1087.65 L 147.416,-1087.26 L 147.05,-1086.92 L 146.643,-1086.62
 L 146.203,-1086.38 L 145.736,-1086.2 L 145.25,-1086.07 L 144.751,-1086.01 z
M -148.5,-941.941 L -148.187,-941.647 L -147.679,-941.278 L -147.129,-940.976 L -146.545,-940.745 L -145.937,-940.589
 L -145.314,-940.51 L 145.314,-940.51 L 145.937,-940.589 L 146.545,-940.745 L 147.129,-940.976 L 147.679,-941.278
 L 148.187,-941.647 L 148.645,-942.077 L 149.045,-942.561 L 149.382,-943.091 L 149.649,-943.659 L 149.843,-944.257
 L 149.961,-944.873 L 150,-945.5 L 150,-1070.5 L 149.961,-1071.13 L 149.843,-1071.74 L 149.649,-1072.34
 L 149.382,-1072.91 L 149.045,-1073.44 L 148.645,-1073.92 L 148.187,-1074.35 L 147.679,-1074.72 L 147.129,-1075.02
 L 146.545,-1075.26 L 145.937,-1075.41 L 145.314,-1075.49 L -145.314,-1075.49 L -145.937,-1075.41 L -146.545,-1075.26
 L -147.129,-1075.02 L -147.679,-1074.72 L -148.187,-1074.35 L -148.5,-1074.06 L -148.5,-1075.49 L -151.5,-1075.49
 L -151.5,-940.51 L -148.5,-940.51 z
M -144.751,-942.008 L -145.25,-942.071 L -145.736,-942.196 L -146.203,-942.381 L -146.643,-942.623 L -147.05,-942.918
 L -147.416,-943.262 L -147.736,-943.649 L -148.005,-944.073 L -148.219,-944.528 L -148.374,-945.005 L -148.468,-945.499
 L -148.5,-946 L -148.5,-1070 L -148.468,-1070.5 L -148.374,-1070.99 L -148.219,-1071.47 L -148.005,-1071.93
 L -147.736,-1072.35 L -147.416,-1072.74 L -147.05,-1073.08 L -146.643,-1073.38 L -146.203,-1073.62 L -145.736,-1073.8
 L -145.25,-1073.93 L -144.751,-1073.99 L 144.751,-1073.99 L 145.25,-1073.93 L 145.736,-1073.8 L 146.203,-1073.62
 L 146.643,-1073.38 L 147.05,-1073.08 L 147.416,-1072.74 L 147.736,-1072.35 L 148.005,-1071.93 L 148.219,-1071.47
 L 148.374,-1070.99 L 148.468,-1070.5 L 148.5,-1070 L 148.5,-946 L 148.468,-945.499 L 148.374,-945.005
 L 148.219,-944.528 L 148.005,-944.073 L 147.736,-943.649 L 147.416,-943.262 L 147.05,-942.918 L 146.643,-942.623
 L 146.203,-942.381 L 145.736,-942.196 L 145.25,-942.071 L 144.751,-942.008 z
M 145.937,-796.589 L 146.545,-796.745 L 147.129,-796.976 L 147.679,-797.278 L 148.187,-797.647 L 148.645,-798.077
 L 149.045,-798.561 L 149.382,-799.091 L 149.649,-799.659 L 149.843,-800.257 L 149.961,-800.873 L 150,-801.5
 L 150,-926.5 L 149.961,-927.127 L 149.843,-927.743 L 149.649,-928.341 L 149.382,-928.909 L 149.045,-929.439
 L 148.645,-929.923 L 148.187,-930.353 L 147.679,-930.722 L 147.129,-931.024 L 146.545,-931.255 L 145.937,-931.411
 L 145.314,-931.49 L -145.314,-931.49 L -145.937,-931.411 L -146.545,-931.255 L -147.129,-931.024 L -147.679,-930.722
 L -148.187,-930.353 L -148.5,-930.059 L -148.5,-931.479 L -151.5,-931.479 L -151.5,-796.521 L -148.5,-796.521
 L -148.5,-797.941 L -148.187,-797.647 L -147.679,-797.278 L -147.129,-796.976 L -146.545,-796.745 L -145.937,-796.589
 L -145.314,-796.51 L 145.314,-796.51 z
M -144.695,-798.893 L -145.083,-798.942 L -145.462,-799.039 L -145.825,-799.183 L -146.168,-799.372 L -146.484,-799.601
 L -146.769,-799.869 L -147.018,-800.17 L -147.228,-800.5 L -147.394,-800.854 L -147.515,-801.226 L -147.588,-801.61
 L -147.613,-802 L -147.613,-926 L -147.588,-926.39 L -147.515,-926.774 L -147.394,-927.146 L -147.228,-927.5
 L -147.018,-927.83 L -146.769,-928.131 L -146.484,-928.399 L -146.168,-928.628 L -145.825,-928.817 L -145.462,-928.961
 L -145.083,-929.058 L -144.695,-929.107 L 144.695,-929.107 L 145.083,-929.058 L 145.462,-928.961 L 145.825,-928.817
 L 146.168,-928.628 L 146.484,-928.399 L 146.769,-928.131 L 147.018,-927.83 L 147.228,-927.5 L 147.394,-927.146
 L 147.515,-926.774 L 147.588,-926.39 L 147.613,-926 L 147.613,-802 L 147.588,-801.61 L 147.515,-801.226
 L 147.394,-800.854 L 147.228,-800.5 L 147.018,-800.17 L 146.769,-799.869 L 146.484,-799.601 L 146.168,-799.372
 L 145.825,-799.183 L 145.462,-799.039 L 145.083,-798.942 L 144.695,-798.893 z
M 145.937,-652.589 L 146.545,-652.745 L 147.129,-652.976 L 147.679,-653.278 L 148.187,-653.647 L 148.645,-654.077
 L 149.045,-654.561 L 149.382,-655.091 L 149.649,-655.659 L 149.843,-656.257 L 149.961,-656.873 L 150,-657.5
 L 150,-782.5 L 149.961,-783.127 L 149.843,-783.743 L 149.649,-784.341 L 149.382,-784.909 L 149.045,-785.439
 L 148.645,-785.923 L 148.187,-786.353 L 147.679,-786.722 L 147.129,-787.024 L 146.545,-787.255 L 145.937,-787.411
 L 145.314,-787.49 L -145.314,-787.49 L -145.937,-787.411 L -146.545,-787.255 L -147.129,-787.024 L -147.679,-786.722
 L -148.187,-786.353 L -148.5,-786.059 L -148.5,-786.153 L -151.5,-786.153 L -151.5,-653.847 L -148.5,-653.847
 L -148.5,-653.941 L -148.187,-653.647 L -147.679,-653.278 L -147.129,-652.976 L -146.545,-652.745 L -145.937,-652.589
 L -145.314,-652.51 L 145.314,-652.51 z
M -142.634,-777.869 L -142.9,-777.903 L -143.16,-777.969 L -143.409,-778.068 L -143.644,-778.197 L -143.861,-778.355
 L -144.057,-778.538 L -144.227,-778.745 L -144.371,-778.971 L -144.485,-779.214 L -144.568,-779.469 L -144.618,-779.732
 L -144.635,-780 L -144.618,-780.268 L -144.568,-780.531 L -144.485,-780.786 L -144.371,-781.029 L -144.227,-781.255
 L -144.057,-781.462 L -143.861,-781.645 L -143.644,-781.803 L -143.409,-781.932 L -143.16,-782.031 L -142.9,-782.097
 L -142.634,-782.131 L -142.366,-782.131 L -142.1,-782.097 L -141.84,-782.031 L -141.591,-781.932 L -141.356,-781.803
 L -141.139,-781.645 L -140.943,-781.462 L -140.773,-781.255 L -140.629,-781.029 L -140.515,-780.786 L -140.432,-780.531
 L -140.382,-780.268 L -140.365,-780 L -140.382,-779.732 L -140.432,-779.469 L -140.515,-779.214 L -140.629,-778.971
 L -140.773,-778.745 L -140.943,-778.538 L -141.139,-778.355 L -141.356,-778.197 L -141.591,-778.068 L -141.84,-777.969
 L -142.1,-777.903 L -142.366,-777.869 z
M 142.366,-777.869 L 142.1,-777.903 L 141.84,-777.969 L 141.591,-778.068 L 141.356,-778.197 L 141.139,-778.355
 L 140.943,-778.538 L 140.773,-778.745 L 140.629,-778.971 L 140.515,-779.214 L 140.432,-779.469 L 140.382,-779.732
 L 140.365,-780 L 140.382,-780.268 L 140.432,-780.531 L 140.515,-780.786 L 140.629,-781.029 L 140.773,-781.255
 L 140.943,-781.462 L 141.139,-781.645 L 141.356,-781.803 L 141.591,-781.932 L 141.84,-782.031 L 142.1,-782.097
 L 142.366,-782.131 L 142.634,-782.131 L 142.9,-782.097 L 143.16,-782.031 L 143.409,-781.932 L 143.644,-781.803
 L 143.861,-781.645 L 144.057,-781.462 L 144.227,-781.255 L 144.371,-781.029 L 144.485,-780.786 L 144.568,-780.531
 L 144.618,-780.268 L 144.635,-780 L 144.618,-779.732 L 144.568,-779.469 L 144.485,-779.214 L 144.371,-778.971
 L 144.227,-778.745 L 144.057,-778.538 L 143.861,-778.355 L 143.644,-778.197 L 143.409,-778.068 L 143.16,-777.969
 L 142.9,-777.903 L 142.634,-777.869 z
M -142.634,-657.869 L -142.9,-657.903 L -143.16,-657.969 L -143.409,-658.068 L -143.644,-658.197 L -143.861,-658.355
 L -144.057,-658.538 L -144.227,-658.745 L -144.371,-658.971 L -144.485,-659.214 L -144.568,-659.469 L -144.618,-659.732
 L -144.635,-660 L -144.618,-660.268 L -144.568,-660.531 L -144.485,-660.786 L -144.371,-661.029 L -144.227,-661.255
 L -144.057,-661.462 L -143.861,-661.645 L -143.644,-661.803 L -143.409,-661.932 L -143.16,-662.031 L -142.9,-662.097
 L -142.634,-662.131 L -142.366,-662.131 L -142.1,-662.097 L -141.84,-662.031 L -141.591,-661.932 L -141.356,-661.803
 L -141.139,-661.645 L -140.943,-661.462 L -140.773,-661.255 L -140.629,-661.029 L -140.515,-660.786 L -140.432,-660.531
 L -140.382,-660.268 L -140.365,-660 L -140.382,-659.732 L -140.432,-659.469 L -140.515,-659.214 L -140.629,-658.971
 L -140.773,-658.745 L -140.943,-658.538 L -141.139,-658.355 L -141.356,-658.197 L -141.591,-658.068 L -141.84,-657.969
 L -142.1,-657.903 L -142.366,-657.869 z
M 142.366,-657.869 L 142.1,-657.903 L 141.84,-657.969 L 141.591,-658.068 L 141.356,-658.197 L 141.139,-658.355
 L 140.943,-658.538 L 140.773,-658.745 L 140.629,-658.971 L 140.515,-659.214 L 140.432,-659.469 L 140.382,-659.732
 L 140.365,-660 L 140.382,-660.268 L 140.432,-660.531 L 140.515,-660.786 L 140.629,-661.029 L 140.773,-661.255
 L 140.943,-661.462 L 141.139,-661.645 L 141.356,-661.803 L 141.591,-661.932 L 141.84,-662.031 L 142.1,-662.097
 L 142.366,-662.131 L 142.634,-662.131 L 142.9,-662.097 L 143.16,-662.031 L 143.409,-661.932 L 143.644,-661.803
 L 143.861,-661.645 L 144.057,-661.462 L 144.227,-661.255 L 144.371,-661.029 L 144.485,-660.786 L 144.568,-660.531
 L 144.618,-660.268 L 144.635,-660 L 144.618,-659.732 L 144.568,-659.469 L 144.485,-659.214 L 144.371,-658.971
 L 144.227,-658.745 L 144.057,-658.538 L 143.861,-658.355 L 143.644,-658.197 L 143.409,-658.068 L 143.16,-657.969
 L 142.9,-657.903 L 142.634,-657.869 z
" stroke="black" fill="lightgray" stroke-width="0.5"/>
</svg>
