<?xml version="1.0" standalone="no"?>
<!DOCTYPE svg PUBLIC "-//W3C//DTD SVG 1.1//EN" "http://www.w3.org/Graphics/SVG/1.1/DTD/svg11.dtd">
<svg width="302mm" height="549mm" viewBox="-152 -693 302 549" xmlns="http://www.w3.org/2000/svg" version="1.1">
<title>OpenSCAD Model</title>
<path d="
M 145.937,-423.089 L 146.545,-423.245 L 147.129,-423.476 L 147.679,-423.778 L 148.187,-424.147 L 148.645,-424.577
 L 149.045,-425.061 L 149.382,-425.591 L 149.649,-426.159 L 149.843,-426.757 L 149.961,-427.373 L 150,-428
 L 150,-688 L 149.961,-688.627 L 149.843,-689.243 L 149.649,-689.841 L 149.382,-690.409 L 149.045,-690.939
 L 148.645,-691.423 L 148.187,-691.853 L 147.679,-692.222 L 147.129,-692.524 L 146.545,-692.755 L 145.937,-692.911
 L 145.314,-692.99 L -145.314,-692.99 L -145.937,-692.911 L -146.545,-692.755 L -147.129,-692.524 L -147.679,-692.222
 L -148.187,-691.853 L -148.5,-691.559 L -148.5,-692.615 L -151.5,-692.615 L -151.5,-423.385 L -148.5,-423.385
 L -148.5,-424.441 L -148.187,-424.147 L -147.679,-423.778 L -147.129,-423.476 L -146.545,-423.245 L -145.937,-423.089
 L -145.314,-423.01 L 145.314,-423.01 z
M -142.651,-683.105 L -142.95,-683.143 L -143.242,-683.217 L -143.522,-683.328 L -143.786,-683.474 L -144.03,-683.651
 L -144.25,-683.857 L -144.442,-684.089 L -144.603,-684.344 L -144.731,-684.617 L -144.825,-684.903 L -144.881,-685.199
 L -144.9,-685.5 L -144.881,-685.801 L -144.825,-686.097 L -144.731,-686.383 L -144.603,-686.656 L -144.442,-686.911
 L -144.25,-687.143 L -144.03,-687.349 L -143.786,-687.526 L -143.522,-687.672 L -143.242,-687.783 L -142.95,-687.857
 L -142.651,-687.895 L -142.349,-687.895 L -142.05,-687.857 L -141.758,-687.783 L -141.478,-687.672 L -141.214,-687.526
 L -140.97,-687.349 L -140.75,-687.143 L -140.558,-686.911 L -140.397,-686.656 L -140.269,-686.383 L -140.175,-686.097
 L -140.119,-685.801 L -140.1,-685.5 L -140.119,-685.199 L -140.175,-684.903 L -140.269,-684.617 L -140.397,-684.344
 L -140.558,-684.089 L -140.75,-683.857 L -140.97,-683.651 L -141.214,-683.474 L -141.478,-683.328 L -141.758,-683.217
 L -142.05,-683.143 L -142.349,-683.105 z
M 142.349,-683.105 L 142.05,-683.143 L 141.758,-683.217 L 141.478,-683.328 L 141.214,-683.474 L 140.97,-683.651
 L 140.75,-683.857 L 140.558,-684.089 L 140.397,-684.344 L 140.269,-684.617 L 140.175,-684.903 L 140.119,-685.199
 L 140.1,-685.5 L 140.119,-685.801 L 140.175,-686.097 L 140.269,-686.383 L 140.397,-686.656 L 140.558,-686.911
 L 140.75,-687.143 L 140.97,-687.349 L 141.214,-687.526 L 141.478,-687.672 L 141.758,-687.783 L 142.05,-687.857
 L 142.349,-687.895 L 142.651,-687.895 L 142.95,-687.857 L 143.242,-687.783 L 143.522,-687.672 L 143.786,-687.526
 L 144.03,-687.349 L 144.25,-687.143 L 144.442,-686.911 L 144.603,-686.656 L 144.731,-686.383 L 144.825,-686.097
 L 144.881,-685.801 L 144.9,-685.5 L 144.881,-685.199 L 144.825,-684.903 L 144.731,-684.617 L 144.603,-684.344
 L 144.442,-684.089 L 144.25,-683.857 L 144.03,-683.651 L 143.786,-683.474 L 143.522,-683.328 L 143.242,-683.217
 L 142.95,-683.143 L 142.651,-683.105 z
M 142.349,-428.105 L 142.05,-428.143 L 141.758,-428.217 L 141.478,-428.328 L 141.214,-428.474 L 140.97,-428.651
 L 140.75,-428.857 L 140.558,-429.089 L 140.397,-429.344 L 140.269,-429.617 L 140.175,-429.903 L 140.119,-430.199
 L 140.1,-430.5 L 140.119,-430.801 L 140.175,-431.097 L 140.269,-431.383 L 140.397,-431.656 L 140.558,-431.911
 L 140.75,-432.143 L 140.97,-432.349 L 141.214,-432.526 L 141.478,-432.672 L 141.758,-432.783 L 142.05,-432.857
 L 142.349,-432.895 L 142.651,-432.895 L 142.95,-432.857 L 143.242,-432.783 L 143.522,-432.672 L 143.786,-432.526
 L 144.03,-432.349 L 144.25,-432.143 L 144.442,-431.911 L 144.603,-431.656 L 144.731,-431.383 L 144.825,-431.097
 L 144.881,-430.801 L 144.9,-430.5 L 144.881,-430.199 L 144.825,-429.903 L 144.731,-429.617 L 144.603,-429.344
 L 144.442,-429.089 L 144.25,-428.857 L 144.03,-428.651 L 143.786,-428.474 L 143.522,-428.328 L 143.242,-428.217
 L 142.95,-428.143 L 142.651,-428.105 z
M -142.651,-428.105 L -142.95,-428.143 L -143.242,-428.217 L -143.522,-428.328 L -143.786,-428.474 L -144.03,-428.651
 L -144.25,-428.857 L -144.442,-429.089 L -144.603,-429.344 L -144.731,-429.617 L -144.825,-429.903 L -144.881,-430.199
 L -144.9,-430.5 L -144.881,-430.801 L -144.825,-431.097 L -144.731,-431.383 L -144.603,-431.656 L -144.442,-431.911
 L -144.25,-432.143 L -144.03,-432.349 L -143.786,-432.526 L -143.522,-432.672 L -143.242,-432.783 L -142.95,-432.857
 L -142.651,-432.895 L -142.349,-432.895 L -142.05,-432.857 L -141.758,-432.783 L -141.478,-432.672 L -141.214,-432.526
 L -140.97,-432.349 L -140.75,-432.143 L -140.558,-431.911 L -140.397,-431.656 L -140.269,-431.383 L -140.175,-431.097
 L -140.119,-430.801 L -140.1,-430.5 L -140.119,-430.199 L -140.175,-429.903 L -140.269,-429.617 L -140.397,-429.344
 L -140.558,-429.089 L -140.75,-428.857 L -140.97,-428.651 L -141.214,-428.474 L -141.478,-428.328 L -141.758,-428.217
 L -142.05,-428.143 L -142.349,-428.105 z
M 145.937,-144.089 L 146.545,-144.245 L 147.129,-144.476 L 147.679,-144.778 L 148.187,-145.147 L 148.645,-145.577
 L 149.045,-146.061 L 149.382,-146.591 L 149.649,-147.159 L 149.843,-147.757 L 149.961,-148.373 L 150,-149
 L 150,-409 L 149.961,-409.627 L 149.843,-410.243 L 149.649,-410.841 L 149.382,-411.409 L 149.045,-411.939
 L 148.645,-412.423 L 148.187,-412.853 L 147.679,-413.222 L 147.129,-413.524 L 146.545,-413.755 L 145.937,-413.911
 L 145.314,-413.99 L -145.314,-413.99 L -145.937,-413.911 L -146.545,-413.755 L -147.129,-413.524 L -147.679,-413.222
 L -148.187,-412.853 L -148.645,-412.423 L -149.045,-411.939 L -149.382,-411.409 L -149.649,-410.841 L -149.843,-410.243
 L -149.9,-409.944 L -151.5,-409.944 L -151.5,-148.056 L -149.9,-148.056 L -149.843,-147.757 L -149.649,-147.159
 L -149.382,-146.591 L -149.045,-146.061 L -148.645,-145.577 L -148.187,-145.147 L -147.679,-144.778 L -147.129,-144.476
 L -146.545,-144.245 L -145.937,-144.089 L -145.314,-144.01 L 145.314,-144.01 z
M -142.613,-404.704 L -142.837,-404.732 L -143.056,-404.788 L -143.266,-404.871 L -143.464,-404.98 L -143.647,-405.113
 L -143.812,-405.268 L -143.956,-405.442 L -144.077,-405.633 L -144.174,-405.837 L -144.243,-406.052 L -144.286,-406.274
 L -144.3,-406.5 L -144.286,-406.726 L -144.243,-406.948 L -144.174,-407.163 L -144.077,-407.367 L -143.956,-407.558
 L -143.812,-407.732 L -143.647,-407.887 L -143.464,-408.02 L -143.266,-408.129 L -143.056,-408.212 L -142.837,-408.268
 L -142.613,-408.296 L -142.387,-408.296 L -142.163,-408.268 L -141.944,-408.212 L -141.734,-408.129 L -141.536,-408.02
 L -141.353,-407.887 L -141.188,-407.732 L -141.044,-407.558 L -140.923,-407.367 L -140.826,-407.163 L -140.757,-406.948
 L -140.714,-406.726 L -140.7,-406.5 L -140.714,-406.274 L -140.757,-406.052 L -140.826,-405.837 L -140.923,-405.633
 L -141.044,-405.442 L -141.188,-405.268 L -141.353,-405.113 L -141.536,-404.98 L -141.734,-404.871 L -141.944,-404.788
 L -142.163,-404.732 L -142.387,-404.704 z
M 142.387,-404.704 L 142.163,-404.732 L 141.944,-404.788 L 141.734,-404.871 L 141.536,-404.98 L 141.353,-405.113
 L 141.188,-405.268 L 141.044,-405.442 L 140.923,-405.633 L 140.826,-405.837 L 140.757,-406.052 L 140.714,-406.274
 L 140.7,-406.5 L 140.714,-406.726 L 140.757,-406.948 L 140.826,-407.163 L 140.923,-407.367 L 141.044,-407.558
 L 141.188,-407.732 L 141.353,-407.887 L 141.536,-408.02 L 141.734,-408.129 L 141.944,-408.212 L 142.163,-408.268
 L 142.387,-408.296 L 142.613,-408.296 L 142.837,-408.268 L 143.056,-408.212 L 143.266,-408.129 L 143.464,-408.02
 L 143.647,-407.887 L 143.812,-407.732 L 143.956,-407.558 L 144.077,-407.367 L 144.174,-407.163 L 144.243,-406.948
 L 144.286,-406.726 L 144.3,-406.5 L 144.286,-406.274 L 144.243,-406.052 L 144.174,-405.837 L 144.077,-405.633
 L 143.956,-405.442 L 143.812,-405.268 L 143.647,-405.113 L 143.464,-404.98 L 143.266,-404.871 L 143.056,-404.788
 L 142.837,-404.732 L 142.613,-404.704 z
M 142.387,-149.704 L 142.163,-149.732 L 141.944,-149.788 L 141.734,-149.871 L 141.536,-149.98 L 141.353,-150.113
 L 141.188,-150.268 L 141.044,-150.442 L 140.923,-150.633 L 140.826,-150.837 L 140.757,-151.052 L 140.714,-151.274
 L 140.7,-151.5 L 140.714,-151.726 L 140.757,-151.948 L 140.826,-152.163 L 140.923,-152.367 L 141.044,-152.558
 L 141.188,-152.732 L 141.353,-152.887 L 141.536,-153.02 L 141.734,-153.129 L 141.944,-153.212 L 142.163,-153.268
 L 142.387,-153.296 L 142.613,-153.296 L 142.837,-153.268 L 143.056,-153.212 L 143.266,-153.129 L 143.464,-153.02
 L 143.647,-152.887 L 143.812,-152.732 L 143.956,-152.558 L 144.077,-152.367 L 144.174,-152.163 L 144.243,-151.948
 L 144.286,-151.726 L 144.3,-151.5 L 144.286,-151.274 L 144.243,-151.052 L 144.174,-150.837 L 144.077,-150.633
 L 143.956,-150.442 L 143.812,-150.268 L 143.647,-150.113 L 143.464,-149.98 L 143.266,-149.871 L 143.056,-149.788
 L 142.837,-149.732 L 142.613,-149.704 z
M -142.613,-149.704 L -142.837,-149.732 L -143.056,-149.788 L -143.266,-149.871 L -143.464,-149.98 L -143.647,-150.113
 L -143.812,-150.268 L -143.956,-150.442 L -144.077,-150.633 L -144.174,-150.837 L -144.243,-151.052 L -144.286,-151.274
 L -144.3,-151.5 L -144.286,-151.726 L -144.243,-151.948 L -144.174,-152.163 L -144.077,-152.367 L -143.956,-152.558
 L -143.812,-152.732 L -143.647,-152.887 L -143.464,-153.02 L -143.266,-153.129 L -143.056,-153.212 L -142.837,-153.268
 L -142.613,-153.296 L -142.387,-153.296 L -142.163,-153.268 L -141.944,-153.212 L -141.734,-153.129 L -141.536,-153.02
 L -141.353,-152.887 L -141.188,-152.732 L -141.044,-152.558 L -140.923,-152.367 L -140.826,-152.163 L -140.757,-151.948
 L -140.714,-151.726 L -140.7,-151.5 L -140.714,-151.274 L -140.757,-151.052 L -140.826,-150.837 L -140.923,-150.633
 L -141.044,-150.442 L -141.188,-150.268 L -141.353,-150.113 L -141.536,-149.98 L -141.734,-149.871 L -141.944,-149.788
 L -142.163,-149.732 L -142.387,-149.704 z
" stroke="black" fill="lightgray" stroke-width="0.5"/>
</svg>
