<?xml version="1.0" standalone="no"?>
<!DOCTYPE svg PUBLIC "-//W3C//DTD SVG 1.1//EN" "http://www.w3.org/Graphics/SVG/1.1/DTD/svg11.dtd">
<svg width="286mm" height="189mm" viewBox="-143 -342 286 189" xmlns="http://www.w3.org/2000/svg" version="1.1">
<title>OpenSCAD Model</title>
<path d="
M 138.437,-252.089 L 139.045,-252.245 L 139.629,-252.476 L 140.179,-252.778 L 140.687,-253.147 L 141.145,-253.577
 L 141.545,-254.061 L 141.882,-254.591 L 142.149,-255.159 L 142.343,-255.757 L 142.461,-256.373 L 142.5,-257
 L 142.5,-337 L 142.461,-337.627 L 142.343,-338.243 L 142.149,-338.841 L 141.882,-339.409 L 141.545,-339.939
 L 141.145,-340.423 L 140.687,-340.853 L 140.179,-341.222 L 139.629,-341.524 L 139.045,-341.755 L 138.437,-341.911
 L 137.814,-341.99 L -137.814,-341.99 L -138.437,-341.911 L -139.045,-341.755 L -139.629,-341.524 L -140.179,-341.222
 L -140.687,-340.853 L -141.145,-340.423 L -141.545,-339.939 L -141.882,-339.409 L -142.149,-338.841 L -142.343,-338.243
 L -142.461,-337.627 L -142.5,-337 L -142.5,-257 L -142.461,-256.373 L -142.343,-255.757 L -142.149,-255.159
 L -141.882,-254.591 L -141.545,-254.061 L -141.145,-253.577 L -140.687,-253.147 L -140.179,-252.778 L -139.629,-252.476
 L -139.045,-252.245 L -138.437,-252.089 L -137.814,-252.01 L 137.814,-252.01 z
M -137.537,-252.681 L -138.108,-252.753 L -138.665,-252.896 L -139.199,-253.107 L -139.703,-253.384 L -140.168,-253.722
 L -140.588,-254.116 L -140.954,-254.559 L -141.262,-255.044 L -141.507,-255.565 L -141.685,-256.111 L -141.792,-256.676
 L -141.828,-257.25 L -141.828,-336.75 L -141.792,-337.324 L -141.685,-337.889 L -141.507,-338.435 L -141.262,-338.956
 L -140.954,-339.441 L -140.588,-339.884 L -140.168,-340.278 L -139.703,-340.616 L -139.199,-340.893 L -138.665,-341.104
 L -138.108,-341.247 L -137.537,-341.319 L 137.537,-341.319 L 138.108,-341.247 L 138.665,-341.104 L 139.199,-340.893
 L 139.703,-340.616 L 140.168,-340.278 L 140.588,-339.884 L 140.954,-339.441 L 141.262,-338.956 L 141.507,-338.435
 L 141.685,-337.889 L 141.792,-337.324 L 141.828,-336.75 L 141.828,-257.25 L 141.792,-256.676 L 141.685,-256.111
 L 141.507,-255.565 L 141.262,-255.044 L 140.954,-254.559 L 140.588,-254.116 L 140.168,-253.722 L 139.703,-253.384
 L 139.199,-253.107 L 138.665,-252.896 L 138.108,-252.753 L 137.537,-252.681 z
M 138.437,-153.089 L 139.045,-153.245 L 139.629,-153.476 L 140.179,-153.778 L 140.687,-154.147 L 141.145,-154.577
 L 141.545,-155.061 L 141.882,-155.591 L 142.149,-156.159 L 142.343,-156.757 L 142.461,-157.373 L 142.5,-158
 L 142.5,-238 L 142.461,-238.627 L 142.343,-239.243 L 142.149,-239.841 L 141.882,-240.409 L 141.545,-240.939
 L 141.145,-241.423 L 140.687,-241.853 L 140.179,-242.222 L 139.629,-242.524 L 139.045,-242.755 L 138.437,-242.911
 L 137.814,-242.99 L -137.814,-242.99 L -138.437,-242.911 L -139.045,-242.755 L -139.629,-242.524 L -140.179,-242.222
 L -140.687,-241.853 L -141.145,-241.423 L -141.545,-240.939 L -141.882,-240.409 L -142.149,-239.841 L -142.343,-239.243
 L -142.461,-238.627 L -142.5,-238 L -142.5,-158 L -142.461,-157.373 L -142.343,-156.757 L -142.149,-156.159
 L -141.882,-155.591 L -141.545,-155.061 L -141.145,-154.577 L -140.687,-154.147 L -140.179,-153.778 L -139.629,-153.476
 L -139.045,-153.245 L -138.437,-153.089 L -137.814,-153.01 L 137.814,-153.01 z
M -137.382,-156.145 L -137.645,-156.178 L -137.902,-156.244 L -138.148,-156.341 L -138.38,-156.469 L -138.595,-156.625
 L -138.788,-156.806 L -138.957,-157.01 L -139.099,-157.234 L -139.211,-157.473 L -139.293,-157.725 L -139.343,-157.986
 L -139.36,-158.25 L -139.36,-237.75 L -139.343,-238.014 L -139.293,-238.275 L -139.211,-238.527 L -139.099,-238.766
 L -138.957,-238.99 L -138.788,-239.194 L -138.595,-239.375 L -138.38,-239.531 L -138.148,-239.659 L -137.902,-239.756
 L -137.645,-239.822 L -137.382,-239.855 L 137.382,-239.855 L 137.645,-239.822 L 137.902,-239.756 L 138.148,-239.659
 L 138.38,-239.531 L 138.595,-239.375 L 138.788,-239.194 L 138.957,-238.99 L 139.099,-238.766 L 139.211,-238.527
 L 139.293,-238.275 L 139.343,-238.014 L 139.36,-237.75 L 139.36,-158.25 L 139.343,-157.986 L 139.293,-157.725
 L 139.211,-157.473 L 139.099,-157.234 L 138.957,-157.01 L 138.788,-156.806 L 138.595,-156.625 L 138.38,-156.469
 L 138.148,-156.341 L 137.902,-156.244 L 137.645,-156.178 L 137.382,-156.145 z
" stroke="black" fill="lightgray" stroke-width="0.5"/>
</svg>
