<?xml version="1.0" standalone="no"?>
<!DOCTYPE svg PUBLIC "-//W3C//DTD SVG 1.1//EN" "http://www.w3.org/Graphics/SVG/1.1/DTD/svg11.dtd">
<svg width="286mm" height="738mm" viewBox="-143 -1365 286 738" xmlns="http://www.w3.org/2000/svg" version="1.1">
<title>OpenSCAD Model</title>
<path d="
M 138.437,-1125.09 L 139.045,-1125.24 L 139.629,-1125.48 L 140.179,-1125.78 L 140.687,-1126.15 L 141.145,-1126.58
 L 141.545,-1127.06 L 141.882,-1127.59 L 142.149,-1128.16 L 142.343,-1128.76 L 142.461,-1129.37 L 142.5,-1130
 L 142.5,-1360 L 142.461,-1360.63 L 142.343,-1361.24 L 142.149,-1361.84 L 141.882,-1362.41 L 141.545,-1362.94
 L 141.145,-1363.42 L 140.687,-1363.85 L 140.179,-1364.22 L 139.629,-1364.52 L 139.045,-1364.76 L 138.437,-1364.91
 L 137.814,-1364.99 L -137.814,-1364.99 L -138.437,-1364.91 L -139.045,-1364.76 L -139.629,-1364.52 L -140.179,-1364.22
 L -140.687,-1363.85 L -141.145,-1363.42 L -141.545,-1362.94 L -141.882,-1362.41 L -142.149,-1361.84 L -142.343,-1361.24
 L -142.461,-1360.63 L -142.5,-1360 L -142.5,-1130 L -142.461,-1129.37 L -142.343,-1128.76 L -142.149,-1128.16
 L -141.882,-1127.59 L -141.545,-1127.06 L -141.145,-1126.58 L -140.687,-1126.15 L -140.179,-1125.78 L -139.629,-1125.48
 L -139.045,-1125.24 L -138.437,-1125.09 L -137.814,-1125.01 L 137.814,-1125.01 z
M -137.548,-1125.51 L -138.14,-1125.58 L -138.718,-1125.73 L -139.272,-1125.95 L -139.795,-1126.24 L -140.278,-1126.59
 L -140.713,-1127 L -141.093,-1127.46 L -141.412,-1127.96 L -141.666,-1128.5 L -141.851,-1129.07 L -141.963,-1129.65
 L -142,-1130.25 L -142,-1359.75 L -141.963,-1360.35 L -141.851,-1360.93 L -141.666,-1361.5 L -141.412,-1362.04
 L -141.093,-1362.54 L -140.713,-1363 L -140.278,-1363.41 L -139.795,-1363.76 L -139.272,-1364.05 L -138.718,-1364.27
 L -138.14,-1364.42 L -137.548,-1364.49 L 137.548,-1364.49 L 138.14,-1364.42 L 138.718,-1364.27 L 139.272,-1364.05
 L 139.795,-1363.76 L 140.278,-1363.41 L 140.713,-1363 L 141.093,-1362.54 L 141.412,-1362.04 L 141.666,-1361.5
 L 141.851,-1360.93 L 141.963,-1360.35 L 142,-1359.75 L 142,-1130.25 L 141.963,-1129.65 L 141.851,-1129.07
 L 141.666,-1128.5 L 141.412,-1127.96 L 141.093,-1127.46 L 140.713,-1127 L 140.278,-1126.59 L 139.795,-1126.24
 L 139.272,-1125.95 L 138.718,-1125.73 L 138.14,-1125.58 L 137.548,-1125.51 z
M 138.437,-876.089 L 139.045,-876.245 L 139.629,-876.476 L 140.179,-876.778 L 140.687,-877.147 L 141.145,-877.577
 L 141.545,-878.061 L 141.882,-878.591 L 142.149,-879.159 L 142.343,-879.757 L 142.461,-880.373 L 142.5,-881
 L 142.5,-1111 L 142.461,-1111.63 L 142.343,-1112.24 L 142.149,-1112.84 L 141.882,-1113.41 L 141.545,-1113.94
 L 141.145,-1114.42 L 140.687,-1114.85 L 140.179,-1115.22 L 139.629,-1115.52 L 139.045,-1115.76 L 138.437,-1115.91
 L 137.814,-1115.99 L -137.814,-1115.99 L -138.437,-1115.91 L -139.045,-1115.76 L -139.629,-1115.52 L -140.179,-1115.22
 L -140.687,-1114.85 L -141.145,-1114.42 L -141.545,-1113.94 L -141.882,-1113.41 L -142.149,-1112.84 L -142.343,-1112.24
 L -142.461,-1111.63 L -142.5,-1111 L -142.5,-881 L -142.461,-880.373 L -142.343,-879.757 L -142.149,-879.159
 L -141.882,-878.591 L -141.545,-878.061 L -141.145,-877.577 L -140.687,-877.147 L -140.179,-876.778 L -139.629,-876.476
 L -139.045,-876.245 L -138.437,-876.089 L -137.814,-876.01 L 137.814,-876.01 z
M -137.537,-876.681 L -138.108,-876.753 L -138.665,-876.896 L -139.199,-877.107 L -139.703,-877.384 L -140.168,-877.722
 L -140.588,-878.116 L -140.954,-878.559 L -141.262,-879.044 L -141.507,-879.565 L -141.685,-880.111 L -141.792,-880.676
 L -141.828,-881.25 L -141.828,-1110.75 L -141.792,-1111.32 L -141.685,-1111.89 L -141.507,-1112.44 L -141.262,-1112.96
 L -140.954,-1113.44 L -140.588,-1113.88 L -140.168,-1114.28 L -139.703,-1114.62 L -139.199,-1114.89 L -138.665,-1115.1
 L -138.108,-1115.25 L -137.537,-1115.32 L 137.537,-1115.32 L 138.108,-1115.25 L 138.665,-1115.1 L 139.199,-1114.89
 L 139.703,-1114.62 L 140.168,-1114.28 L 140.588,-1113.88 L 140.954,-1113.44 L 141.262,-1112.96 L 141.507,-1112.44
 L 141.685,-1111.89 L 141.792,-1111.32 L 141.828,-1110.75 L 141.828,-881.25 L 141.792,-880.676 L 141.685,-880.111
 L 141.507,-879.565 L 141.262,-879.044 L 140.954,-878.559 L 140.588,-878.116 L 140.168,-877.722 L 139.703,-877.384
 L 139.199,-877.107 L 138.665,-876.896 L 138.108,-876.753 L 137.537,-876.681 z
M 138.437,-627.089 L 139.045,-627.245 L 139.629,-627.476 L 140.179,-627.778 L 140.687,-628.147 L 141.145,-628.577
 L 141.545,-629.061 L 141.882,-629.591 L 142.149,-630.159 L 142.343,-630.757 L 142.461,-631.373 L 142.5,-632
 L 142.5,-862 L 142.461,-862.627 L 142.343,-863.243 L 142.149,-863.841 L 141.882,-864.409 L 141.545,-864.939
 L 141.145,-865.423 L 140.687,-865.853 L 140.179,-866.222 L 139.629,-866.524 L 139.045,-866.755 L 138.437,-866.911
 L 137.814,-866.99 L -137.814,-866.99 L -138.437,-866.911 L -139.045,-866.755 L -139.629,-866.524 L -140.179,-866.222
 L -140.687,-865.853 L -141.145,-865.423 L -141.545,-864.939 L -141.882,-864.409 L -142.149,-863.841 L -142.343,-863.243
 L -142.461,-862.627 L -142.5,-862 L -142.5,-632 L -142.461,-631.373 L -142.343,-630.757 L -142.149,-630.159
 L -141.882,-629.591 L -141.545,-629.061 L -141.145,-628.577 L -140.687,-628.147 L -140.179,-627.778 L -139.629,-627.476
 L -139.045,-627.245 L -138.437,-627.089 L -137.814,-627.01 L 137.814,-627.01 z
M -137.382,-630.145 L -137.645,-630.178 L -137.902,-630.244 L -138.148,-630.341 L -138.38,-630.469 L -138.595,-630.624
 L -138.788,-630.806 L -138.957,-631.01 L -139.099,-631.234 L -139.211,-631.473 L -139.293,-631.725 L -139.343,-631.986
 L -139.36,-632.25 L -139.36,-861.75 L -139.343,-862.014 L -139.293,-862.275 L -139.211,-862.527 L -139.099,-862.766
 L -138.957,-862.99 L -138.788,-863.194 L -138.595,-863.376 L -138.38,-863.531 L -138.148,-863.659 L -137.902,-863.756
 L -137.645,-863.822 L -137.382,-863.855 L 137.382,-863.855 L 137.645,-863.822 L 137.902,-863.756 L 138.148,-863.659
 L 138.38,-863.531 L 138.595,-863.376 L 138.788,-863.194 L 138.957,-862.99 L 139.099,-862.766 L 139.211,-862.527
 L 139.293,-862.275 L 139.343,-862.014 L 139.36,-861.75 L 139.36,-632.25 L 139.343,-631.986 L 139.293,-631.725
 L 139.211,-631.473 L 139.099,-631.234 L 138.957,-631.01 L 138.788,-630.806 L 138.595,-630.624 L 138.38,-630.469
 L 138.148,-630.341 L 137.902,-630.244 L 137.645,-630.178 L 137.382,-630.145 z
" stroke="black" fill="lightgray" stroke-width="0.5"/>
</svg>
