<?xml version="1.0" standalone="no"?>
<!DOCTYPE svg PUBLIC "-//W3C//DTD SVG 1.1//EN" "http://www.w3.org/Graphics/SVG/1.1/DTD/svg11.dtd">
<svg width="302mm" height="1132mm" viewBox="-152 -2219 302 1132" xmlns="http://www.w3.org/2000/svg" version="1.1">
<title>OpenSCAD Model</title>
<path d="
M 145.937,-2113.59 L 146.545,-2113.74 L 147.129,-2113.98 L 147.679,-2114.28 L 148.187,-2114.65 L 148.645,-2115.08
 L 149.045,-2115.56 L 149.382,-2116.09 L 149.649,-2116.66 L 149.843,-2117.26 L 149.961,-2117.87 L 150,-2118.5
 L 150,-2213.5 L 149.961,-2214.13 L 149.843,-2214.74 L 149.649,-2215.34 L 149.382,-2215.91 L 149.045,-2216.44
 L 148.645,-2216.92 L 148.187,-2217.35 L 147.679,-2217.72 L 147.129,-2218.02 L 146.545,-2218.26 L 145.937,-2218.41
 L 145.314,-2218.49 L -145.314,-2218.49 L -145.937,-2218.41 L -146.545,-2218.26 L -147.129,-2218.02 L -147.679,-2217.72
 L -148.187,-2217.35 L -148.5,-2217.06 L -151.5,-2217.06 L -151.5,-2114.94 L -148.5,-2114.94 L -148.187,-2114.65
 L -147.679,-2114.28 L -147.129,-2113.98 L -146.545,-2113.74 L -145.937,-2113.59 L -145.314,-2113.51 L 145.314,-2113.51
 z
M -144.751,-2115.01 L -145.25,-2115.07 L -145.736,-2115.2 L -146.203,-2115.38 L -146.643,-2115.62 L -147.05,-2115.92
 L -147.416,-2116.26 L -147.736,-2116.65 L -148.005,-2117.07 L -148.219,-2117.53 L -148.374,-2118.01 L -148.468,-2118.5
 L -148.5,-2119 L -148.5,-2213 L -148.468,-2213.5 L -148.374,-2213.99 L -148.219,-2214.47 L -148.005,-2214.93
 L -147.736,-2215.35 L -147.416,-2215.74 L -147.05,-2216.08 L -146.643,-2216.38 L -146.203,-2216.62 L -145.736,-2216.8
 L -145.25,-2216.93 L -144.751,-2216.99 L 144.751,-2216.99 L 145.25,-2216.93 L 145.736,-2216.8 L 146.203,-2216.62
 L 146.643,-2216.38 L 147.05,-2216.08 L 147.416,-2215.74 L 147.736,-2215.35 L 148.005,-2214.93 L 148.219,-2214.47
 L 148.374,-2213.99 L 148.468,-2213.5 L 148.5,-2213 L 148.5,-2119 L 148.468,-2118.5 L 148.374,-2118.01
 L 148.219,-2117.53 L 148.005,-2117.07 L 147.736,-2116.65 L 147.416,-2116.26 L 147.05,-2115.92 L 146.643,-2115.62
 L 146.203,-2115.38 L 145.736,-2115.2 L 145.25,-2115.07 L 144.751,-2115.01 z
M 145.937,-1999.59 L 146.545,-1999.74 L 147.129,-1999.98 L 147.679,-2000.28 L 148.187,-2000.65 L 148.645,-2001.08
 L 149.045,-2001.56 L 149.382,-2002.09 L 149.649,-2002.66 L 149.843,-2003.26 L 149.961,-2003.87 L 150,-2004.5
 L 150,-2099.5 L 149.961,-2100.13 L 149.843,-2100.74 L 149.649,-2101.34 L 149.382,-2101.91 L 149.045,-2102.44
 L 148.645,-2102.92 L 148.187,-2103.35 L 147.679,-2103.72 L 147.129,-2104.02 L 146.545,-2104.26 L 145.937,-2104.41
 L 145.314,-2104.49 L -145.314,-2104.49 L -145.937,-2104.41 L -146.545,-2104.26 L -147.129,-2104.02 L -147.679,-2103.72
 L -148.187,-2103.35 L -148.5,-2103.06 L -148.5,-2104.47 L -151.5,-2104.47 L -151.5,-1999.53 L -148.5,-1999.53
 L -148.5,-2000.94 L -148.187,-2000.65 L -147.679,-2000.28 L -147.129,-1999.98 L -146.545,-1999.74 L -145.937,-1999.59
 L -145.314,-1999.51 L 145.314,-1999.51 z
M -144.751,-2001.01 L -145.25,-2001.07 L -145.736,-2001.2 L -146.203,-2001.38 L -146.643,-2001.62 L -147.05,-2001.92
 L -147.416,-2002.26 L -147.736,-2002.65 L -148.005,-2003.07 L -148.219,-2003.53 L -148.374,-2004.01 L -148.468,-2004.5
 L -148.5,-2005 L -148.5,-2099 L -148.468,-2099.5 L -148.374,-2099.99 L -148.219,-2100.47 L -148.005,-2100.93
 L -147.736,-2101.35 L -147.416,-2101.74 L -147.05,-2102.08 L -146.643,-2102.38 L -146.203,-2102.62 L -145.736,-2102.8
 L -145.25,-2102.93 L -144.751,-2102.99 L 144.751,-2102.99 L 145.25,-2102.93 L 145.736,-2102.8 L 146.203,-2102.62
 L 146.643,-2102.38 L 147.05,-2102.08 L 147.416,-2101.74 L 147.736,-2101.35 L 148.005,-2100.93 L 148.219,-2100.47
 L 148.374,-2099.99 L 148.468,-2099.5 L 148.5,-2099 L 148.5,-2005 L 148.468,-2004.5 L 148.374,-2004.01
 L 148.219,-2003.53 L 148.005,-2003.07 L 147.736,-2002.65 L 147.416,-2002.26 L 147.05,-2001.92 L 146.643,-2001.62
 L 146.203,-2001.38 L 145.736,-2001.2 L 145.25,-2001.07 L 144.751,-2001.01 z
M -148.5,-1886.94 L -148.187,-1886.65 L -147.679,-1886.28 L -147.129,-1885.98 L -146.545,-1885.74 L -145.937,-1885.59
 L -145.314,-1885.51 L 145.314,-1885.51 L 145.937,-1885.59 L 146.545,-1885.74 L 147.129,-1885.98 L 147.679,-1886.28
 L 148.187,-1886.65 L 148.645,-1887.08 L 149.045,-1887.56 L 149.382,-1888.09 L 149.649,-1888.66 L 149.843,-1889.26
 L 149.961,-1889.87 L 150,-1890.5 L 150,-1985.5 L 149.961,-1986.13 L 149.843,-1986.74 L 149.649,-1987.34
 L 149.382,-1987.91 L 149.045,-1988.44 L 148.645,-1988.92 L 148.187,-1989.35 L 147.679,-1989.72 L 147.129,-1990.02
 L 146.545,-1990.26 L 145.937,-1990.41 L 145.314,-1990.49 L -145.314,-1990.49 L -145.937,-1990.41 L -146.545,-1990.26
 L -147.129,-1990.02 L -147.679,-1989.72 L -148.187,-1989.35 L -148.5,-1989.06 L -148.5,-1990.49 L -151.5,-1990.49
 L -151.5,-1985.99 L -148.374,-1985.99 L -148.374,-1985.99 L -148.219,-1986.47 L -148.005,-1986.93 L -147.736,-1987.35
 L -147.416,-1987.74 L -147.05,-1988.08 L -146.643,-1988.38 L -146.203,-1988.62 L -145.736,-1988.8 L -145.25,-1988.93
 L -144.751,-1988.99 L 144.751,-1988.99 L 145.25,-1988.93 L 145.736,-1988.8 L 146.203,-1988.62 L 146.643,-1988.38
 L 147.05,-1988.08 L 147.416,-1987.74 L 147.736,-1987.35 L 148.005,-1986.93 L 148.219,-1986.47 L 148.374,-1985.99
 L 148.468,-1985.5 L 148.5,-1985 L 148.5,-1891 L 148.468,-1890.5 L 148.374,-1890.01 L 148.219,-1889.53
 L 148.005,-1889.07 L 147.736,-1888.65 L 147.416,-1888.26 L 147.05,-1887.92 L 146.643,-1887.62 L 146.203,-1887.38
 L 145.736,-1887.2 L 145.25,-1887.07 L 144.751,-1887.01 L -144.751,-1887.01 L -145.25,-1887.07 L -145.736,-1887.2
 L -146.203,-1887.38 L -146.643,-1887.62 L -147.05,-1887.92 L -147.416,-1888.26 L -147.736,-1888.65 L -148.005,-1889.07
 L -148.219,-1889.53 L -148.374,-1890.01 L -148.374,-1890.01 L -151.5,-1890.01 L -151.5,-1885.51 L -148.5,-1885.51
 z
M -148.5,-1980.01 L -151.5,-1980.01 L -151.5,-1970.99 L -148.5,-1970.99 z
M -148.5,-1965.01 L -151.5,-1965.01 L -151.5,-1955.99 L -148.5,-1955.99 z
M -148.5,-1950.01 L -151.5,-1950.01 L -151.5,-1940.99 L -148.5,-1940.99 z
M -148.5,-1935.01 L -151.5,-1935.01 L -151.5,-1925.99 L -148.5,-1925.99 z
M -148.5,-1920.01 L -151.5,-1920.01 L -151.5,-1910.99 L -148.5,-1910.99 z
M -148.5,-1905.01 L -151.5,-1905.01 L -151.5,-1895.99 L -148.5,-1895.99 z
M -148.5,-1772.94 L -148.187,-1772.65 L -147.679,-1772.28 L -147.129,-1771.98 L -146.545,-1771.74 L -145.937,-1771.59
 L -145.314,-1771.51 L 145.314,-1771.51 L 145.937,-1771.59 L 146.545,-1771.74 L 147.129,-1771.98 L 147.679,-1772.28
 L 148.187,-1772.65 L 148.645,-1773.08 L 149.045,-1773.56 L 149.382,-1774.09 L 149.649,-1774.66 L 149.843,-1775.26
 L 149.961,-1775.87 L 150,-1776.5 L 150,-1871.5 L 149.961,-1872.13 L 149.843,-1872.74 L 149.649,-1873.34
 L 149.382,-1873.91 L 149.045,-1874.44 L 148.645,-1874.92 L 148.187,-1875.35 L 147.679,-1875.72 L 147.129,-1876.02
 L 146.545,-1876.26 L 145.937,-1876.41 L 145.314,-1876.49 L -145.314,-1876.49 L -145.937,-1876.41 L -146.545,-1876.26
 L -147.129,-1876.02 L -147.679,-1875.72 L -148.187,-1875.35 L -148.5,-1875.06 L -148.5,-1876.49 L -151.5,-1876.49
 L -151.5,-1771.51 L -148.5,-1771.51 z
M -144.751,-1773.01 L -145.25,-1773.07 L -145.736,-1773.2 L -146.203,-1773.38 L -146.643,-1773.62 L -147.05,-1773.92
 L -147.416,-1774.26 L -147.736,-1774.65 L -148.005,-1775.07 L -148.219,-1775.53 L -148.374,-1776.01 L -148.468,-1776.5
 L -148.5,-1777 L -148.5,-1871 L -148.468,-1871.5 L -148.374,-1871.99 L -148.219,-1872.47 L -148.005,-1872.93
 L -147.736,-1873.35 L -147.416,-1873.74 L -147.05,-1874.08 L -146.643,-1874.38 L -146.203,-1874.62 L -145.736,-1874.8
 L -145.25,-1874.93 L -144.751,-1874.99 L 144.751,-1874.99 L 145.25,-1874.93 L 145.736,-1874.8 L 146.203,-1874.62
 L 146.643,-1874.38 L 147.05,-1874.08 L 147.416,-1873.74 L 147.736,-1873.35 L 148.005,-1872.93 L 148.219,-1872.47
 L 148.374,-1871.99 L 148.468,-1871.5 L 148.5,-1871 L 148.5,-1777 L 148.468,-1776.5 L 148.374,-1776.01
 L 148.219,-1775.53 L 148.005,-1775.07 L 147.736,-1774.65 L 147.416,-1774.26 L 147.05,-1773.92 L 146.643,-1773.62
 L 146.203,-1773.38 L 145.736,-1773.2 L 145.25,-1773.07 L 144.751,-1773.01 z
M -148.5,-1658.94 L -148.187,-1658.65 L -147.679,-1658.28 L -147.129,-1657.98 L -146.545,-1657.74 L -145.937,-1657.59
 L -145.314,-1657.51 L 145.314,-1657.51 L 145.937,-1657.59 L 146.545,-1657.74 L 147.129,-1657.98 L 147.679,-1658.28
 L 148.187,-1658.65 L 148.645,-1659.08 L 149.045,-1659.56 L 149.382,-1660.09 L 149.649,-1660.66 L 149.843,-1661.26
 L 149.961,-1661.87 L 150,-1662.5 L 150,-1757.5 L 149.961,-1758.13 L 149.843,-1758.74 L 149.649,-1759.34
 L 149.382,-1759.91 L 149.045,-1760.44 L 148.645,-1760.92 L 148.187,-1761.35 L 147.679,-1761.72 L 147.129,-1762.02
 L 146.545,-1762.26 L 145.937,-1762.41 L 145.314,-1762.49 L -145.314,-1762.49 L -145.937,-1762.41 L -146.545,-1762.26
 L -147.129,-1762.02 L -147.679,-1761.72 L -148.187,-1761.35 L -148.5,-1761.06 L -148.5,-1762.49 L -151.5,-1762.49
 L -151.5,-1657.51 L -148.5,-1657.51 z
M -144.751,-1659.01 L -145.25,-1659.07 L -145.736,-1659.2 L -146.203,-1659.38 L -146.643,-1659.62 L -147.05,-1659.92
 L -147.416,-1660.26 L -147.736,-1660.65 L -148.005,-1661.07 L -148.219,-1661.53 L -148.374,-1662.01 L -148.468,-1662.5
 L -148.5,-1663 L -148.5,-1757 L -148.468,-1757.5 L -148.374,-1757.99 L -148.219,-1758.47 L -148.005,-1758.93
 L -147.736,-1759.35 L -147.416,-1759.74 L -147.05,-1760.08 L -146.643,-1760.38 L -146.203,-1760.62 L -145.736,-1760.8
 L -145.25,-1760.93 L -144.751,-1760.99 L 144.751,-1760.99 L 145.25,-1760.93 L 145.736,-1760.8 L 146.203,-1760.62
 L 146.643,-1760.38 L 147.05,-1760.08 L 147.416,-1759.74 L 147.736,-1759.35 L 148.005,-1758.93 L 148.219,-1758.47
 L 148.374,-1757.99 L 148.468,-1757.5 L 148.5,-1757 L 148.5,-1663 L 148.468,-1662.5 L 148.374,-1662.01
 L 148.219,-1661.53 L 148.005,-1661.07 L 147.736,-1660.65 L 147.416,-1660.26 L 147.05,-1659.92 L 146.643,-1659.62
 L 146.203,-1659.38 L 145.736,-1659.2 L 145.25,-1659.07 L 144.751,-1659.01 z
M -148.5,-1544.94 L -148.187,-1544.65 L -147.679,-1544.28 L -147.129,-1543.98 L -146.545,-1543.74 L -145.937,-1543.59
 L -145.314,-1543.51 L 145.314,-1543.51 L 145.937,-1543.59 L 146.545,-1543.74 L 147.129,-1543.98 L 147.679,-1544.28
 L 148.187,-1544.65 L 148.645,-1545.08 L 149.045,-1545.56 L 149.382,-1546.09 L 149.649,-1546.66 L 149.843,-1547.26
 L 149.961,-1547.87 L 150,-1548.5 L 150,-1643.5 L 149.961,-1644.13 L 149.843,-1644.74 L 149.649,-1645.34
 L 149.382,-1645.91 L 149.045,-1646.44 L 148.645,-1646.92 L 148.187,-1647.35 L 147.679,-1647.72 L 147.129,-1648.02
 L 146.545,-1648.26 L 145.937,-1648.41 L 145.314,-1648.49 L -145.314,-1648.49 L -145.937,-1648.41 L -146.545,-1648.26
 L -147.129,-1648.02 L -147.679,-1647.72 L -148.187,-1647.35 L -148.5,-1647.06 L -148.5,-1648.49 L -151.5,-1648.49
 L -151.5,-1543.51 L -148.5,-1543.51 z
M -144.751,-1545.01 L -145.25,-1545.07 L -145.736,-1545.2 L -146.203,-1545.38 L -146.643,-1545.62 L -147.05,-1545.92
 L -147.416,-1546.26 L -147.736,-1546.65 L -148.005,-1547.07 L -148.219,-1547.53 L -148.374,-1548.01 L -148.468,-1548.5
 L -148.5,-1549 L -148.5,-1643 L -148.468,-1643.5 L -148.374,-1643.99 L -148.219,-1644.47 L -148.005,-1644.93
 L -147.736,-1645.35 L -147.416,-1645.74 L -147.05,-1646.08 L -146.643,-1646.38 L -146.203,-1646.62 L -145.736,-1646.8
 L -145.25,-1646.93 L -144.751,-1646.99 L 144.751,-1646.99 L 145.25,-1646.93 L 145.736,-1646.8 L 146.203,-1646.62
 L 146.643,-1646.38 L 147.05,-1646.08 L 147.416,-1645.74 L 147.736,-1645.35 L 148.005,-1644.93 L 148.219,-1644.47
 L 148.374,-1643.99 L 148.468,-1643.5 L 148.5,-1643 L 148.5,-1549 L 148.468,-1548.5 L 148.374,-1548.01
 L 148.219,-1547.53 L 148.005,-1547.07 L 147.736,-1546.65 L 147.416,-1546.26 L 147.05,-1545.92 L 146.643,-1545.62
 L 146.203,-1545.38 L 145.736,-1545.2 L 145.25,-1545.07 L 144.751,-1545.01 z
M -148.5,-1430.94 L -148.187,-1430.65 L -147.679,-1430.28 L -147.129,-1429.98 L -146.545,-1429.74 L -145.937,-1429.59
 L -145.314,-1429.51 L 145.314,-1429.51 L 145.937,-1429.59 L 146.545,-1429.74 L 147.129,-1429.98 L 147.679,-1430.28
 L 148.187,-1430.65 L 148.645,-1431.08 L 149.045,-1431.56 L 149.382,-1432.09 L 149.649,-1432.66 L 149.843,-1433.26
 L 149.961,-1433.87 L 150,-1434.5 L 150,-1529.5 L 149.961,-1530.13 L 149.843,-1530.74 L 149.649,-1531.34
 L 149.382,-1531.91 L 149.045,-1532.44 L 148.645,-1532.92 L 148.187,-1533.35 L 147.679,-1533.72 L 147.129,-1534.02
 L 146.545,-1534.26 L 145.937,-1534.41 L 145.314,-1534.49 L -145.314,-1534.49 L -145.937,-1534.41 L -146.545,-1534.26
 L -147.129,-1534.02 L -147.679,-1533.72 L -148.187,-1533.35 L -148.5,-1533.06 L -148.5,-1534.49 L -151.5,-1534.49
 L -151.5,-1429.51 L -148.5,-1429.51 z
M -144.751,-1431.01 L -145.25,-1431.07 L -145.736,-1431.2 L -146.203,-1431.38 L -146.643,-1431.62 L -147.05,-1431.92
 L -147.416,-1432.26 L -147.736,-1432.65 L -148.005,-1433.07 L -148.219,-1433.53 L -148.374,-1434.01 L -148.468,-1434.5
 L -148.5,-1435 L -148.5,-1529 L -148.468,-1529.5 L -148.374,-1529.99 L -148.219,-1530.47 L -148.005,-1530.93
 L -147.736,-1531.35 L -147.416,-1531.74 L -147.05,-1532.08 L -146.643,-1532.38 L -146.203,-1532.62 L -145.736,-1532.8
 L -145.25,-1532.93 L -144.751,-1532.99 L 144.751,-1532.99 L 145.25,-1532.93 L 145.736,-1532.8 L 146.203,-1532.62
 L 146.643,-1532.38 L 147.05,-1532.08 L 147.416,-1531.74 L 147.736,-1531.35 L 148.005,-1530.93 L 148.219,-1530.47
 L 148.374,-1529.99 L 148.468,-1529.5 L 148.5,-1529 L 148.5,-1435 L 148.468,-1434.5 L 148.374,-1434.01
 L 148.219,-1433.53 L 148.005,-1433.07 L 147.736,-1432.65 L 147.416,-1432.26 L 147.05,-1431.92 L 146.643,-1431.62
 L 146.203,-1431.38 L 145.736,-1431.2 L 145.25,-1431.07 L 144.751,-1431.01 z
M -148.5,-1316.94 L -148.187,-1316.65 L -147.679,-1316.28 L -147.129,-1315.98 L -146.545,-1315.74 L -145.937,-1315.59
 L -145.314,-1315.51 L 145.314,-1315.51 L 145.937,-1315.59 L 146.545,-1315.74 L 147.129,-1315.98 L 147.679,-1316.28
 L 148.187,-1316.65 L 148.645,-1317.08 L 149.045,-1317.56 L 149.382,-1318.09 L 149.649,-1318.66 L 149.843,-1319.26
 L 149.961,-1319.87 L 150,-1320.5 L 150,-1415.5 L 149.961,-1416.13 L 149.843,-1416.74 L 149.649,-1417.34
 L 149.382,-1417.91 L 149.045,-1418.44 L 148.645,-1418.92 L 148.187,-1419.35 L 147.679,-1419.72 L 147.129,-1420.02
 L 146.545,-1420.26 L 145.937,-1420.41 L 145.314,-1420.49 L -145.314,-1420.49 L -145.937,-1420.41 L -146.545,-1420.26
 L -147.129,-1420.02 L -147.679,-1419.72 L -148.187,-1419.35 L -148.5,-1419.06 L -148.5,-1420.49 L -151.5,-1420.49
 L -151.5,-1315.51 L -148.5,-1315.51 z
M -144.751,-1317.01 L -145.25,-1317.07 L -145.736,-1317.2 L -146.203,-1317.38 L -146.643,-1317.62 L -147.05,-1317.92
 L -147.416,-1318.26 L -147.736,-1318.65 L -148.005,-1319.07 L -148.219,-1319.53 L -148.374,-1320.01 L -148.468,-1320.5
 L -148.5,-1321 L -148.5,-1415 L -148.468,-1415.5 L -148.374,-1415.99 L -148.219,-1416.47 L -148.005,-1416.93
 L -147.736,-1417.35 L -147.416,-1417.74 L -147.05,-1418.08 L -146.643,-1418.38 L -146.203,-1418.62 L -145.736,-1418.8
 L -145.25,-1418.93 L -144.751,-1418.99 L 144.751,-1418.99 L 145.25,-1418.93 L 145.736,-1418.8 L 146.203,-1418.62
 L 146.643,-1418.38 L 147.05,-1418.08 L 147.416,-1417.74 L 147.736,-1417.35 L 148.005,-1416.93 L 148.219,-1416.47
 L 148.374,-1415.99 L 148.468,-1415.5 L 148.5,-1415 L 148.5,-1321 L 148.468,-1320.5 L 148.374,-1320.01
 L 148.219,-1319.53 L 148.005,-1319.07 L 147.736,-1318.65 L 147.416,-1318.26 L 147.05,-1317.92 L 146.643,-1317.62
 L 146.203,-1317.38 L 145.736,-1317.2 L 145.25,-1317.07 L 144.751,-1317.01 z
M 145.937,-1201.59 L 146.545,-1201.74 L 147.129,-1201.98 L 147.679,-1202.28 L 148.187,-1202.65 L 148.645,-1203.08
 L 149.045,-1203.56 L 149.382,-1204.09 L 149.649,-1204.66 L 149.843,-1205.26 L 149.961,-1205.87 L 150,-1206.5
 L 150,-1301.5 L 149.961,-1302.13 L 149.843,-1302.74 L 149.649,-1303.34 L 149.382,-1303.91 L 149.045,-1304.44
 L 148.645,-1304.92 L 148.187,-1305.35 L 147.679,-1305.72 L 147.129,-1306.02 L 146.545,-1306.26 L 145.937,-1306.41
 L 145.314,-1306.49 L -145.314,-1306.49 L -145.937,-1306.41 L -146.545,-1306.26 L -147.129,-1306.02 L -147.679,-1305.72
 L -148.187,-1305.35 L -148.5,-1305.06 L -148.5,-1306.48 L -151.5,-1306.48 L -151.5,-1201.52 L -148.5,-1201.52
 L -148.5,-1202.94 L -148.187,-1202.65 L -147.679,-1202.28 L -147.129,-1201.98 L -146.545,-1201.74 L -145.937,-1201.59
 L -145.314,-1201.51 L 145.314,-1201.51 z
M -144.695,-1203.89 L -145.083,-1203.94 L -145.462,-1204.04 L -145.825,-1204.18 L -146.168,-1204.37 L -146.484,-1204.6
 L -146.769,-1204.87 L -147.018,-1205.17 L -147.228,-1205.5 L -147.394,-1205.85 L -147.515,-1206.23 L -147.588,-1206.61
 L -147.613,-1207 L -147.613,-1301 L -147.588,-1301.39 L -147.515,-1301.77 L -147.394,-1302.15 L -147.228,-1302.5
 L -147.018,-1302.83 L -146.769,-1303.13 L -146.484,-1303.4 L -146.168,-1303.63 L -145.825,-1303.82 L -145.462,-1303.96
 L -145.083,-1304.06 L -144.695,-1304.11 L 144.695,-1304.11 L 145.083,-1304.06 L 145.462,-1303.96 L 145.825,-1303.82
 L 146.168,-1303.63 L 146.484,-1303.4 L 146.769,-1303.13 L 147.018,-1302.83 L 147.228,-1302.5 L 147.394,-1302.15
 L 147.515,-1301.77 L 147.588,-1301.39 L 147.613,-1301 L 147.613,-1207 L 147.588,-1206.61 L 147.515,-1206.23
 L 147.394,-1205.85 L 147.228,-1205.5 L 147.018,-1205.17 L 146.769,-1204.87 L 146.484,-1204.6 L 146.168,-1204.37
 L 145.825,-1204.18 L 145.462,-1204.04 L 145.083,-1203.94 L 144.695,-1203.89 z
M 145.937,-1087.59 L 146.545,-1087.74 L 147.129,-1087.98 L 147.679,-1088.28 L 148.187,-1088.65 L 148.645,-1089.08
 L 149.045,-1089.56 L 149.382,-1090.09 L 149.649,-1090.66 L 149.843,-1091.26 L 149.961,-1091.87 L 150,-1092.5
 L 150,-1187.5 L 149.961,-1188.13 L 149.843,-1188.74 L 149.649,-1189.34 L 149.382,-1189.91 L 149.045,-1190.44
 L 148.645,-1190.92 L 148.187,-1191.35 L 147.679,-1191.72 L 147.129,-1192.02 L 146.545,-1192.26 L 145.937,-1192.41
 L 145.314,-1192.49 L -145.314,-1192.49 L -145.937,-1192.41 L -146.545,-1192.26 L -147.129,-1192.02 L -147.679,-1191.72
 L -148.187,-1191.35 L -148.5,-1191.06 L -148.5,-1191.15 L -151.5,-1191.15 L -151.5,-1088.85 L -148.5,-1088.85
 L -148.5,-1088.94 L -148.187,-1088.65 L -147.679,-1088.28 L -147.129,-1087.98 L -146.545,-1087.74 L -145.937,-1087.59
 L -145.314,-1087.51 L 145.314,-1087.51 z
M -142.634,-1182.87 L -142.9,-1182.9 L -143.16,-1182.97 L -143.409,-1183.07 L -143.644,-1183.2 L -143.861,-1183.35
 L -144.057,-1183.54 L -144.227,-1183.74 L -144.371,-1183.97 L -144.485,-1184.21 L -144.568,-1184.47 L -144.618,-1184.73
 L -144.635,-1185 L -144.618,-1185.27 L -144.568,-1185.53 L -144.485,-1185.79 L -144.371,-1186.03 L -144.227,-1186.26
 L -144.057,-1186.46 L -143.861,-1186.65 L -143.644,-1186.8 L -143.409,-1186.93 L -143.16,-1187.03 L -142.9,-1187.1
 L -142.634,-1187.13 L -142.366,-1187.13 L -142.1,-1187.1 L -141.84,-1187.03 L -141.591,-1186.93 L -141.356,-1186.8
 L -141.139,-1186.65 L -140.943,-1186.46 L -140.773,-1186.26 L -140.629,-1186.03 L -140.515,-1185.79 L -140.432,-1185.53
 L -140.382,-1185.27 L -140.365,-1185 L -140.382,-1184.73 L -140.432,-1184.47 L -140.515,-1184.21 L -140.629,-1183.97
 L -140.773,-1183.74 L -140.943,-1183.54 L -141.139,-1183.35 L -141.356,-1183.2 L -141.591,-1183.07 L -141.84,-1182.97
 L -142.1,-1182.9 L -142.366,-1182.87 z
M 142.366,-1182.87 L 142.1,-1182.9 L 141.84,-1182.97 L 141.591,-1183.07 L 141.356,-1183.2 L 141.139,-1183.35
 L 140.943,-1183.54 L 140.773,-1183.74 L 140.629,-1183.97 L 140.515,-1184.21 L 140.432,-1184.47 L 140.382,-1184.73
 L 140.365,-1185 L 140.382,-1185.27 L 140.432,-1185.53 L 140.515,-1185.79 L 140.629,-1186.03 L 140.773,-1186.26
 L 140.943,-1186.46 L 141.139,-1186.65 L 141.356,-1186.8 L 141.591,-1186.93 L 141.84,-1187.03 L 142.1,-1187.1
 L 142.366,-1187.13 L 142.634,-1187.13 L 142.9,-1187.1 L 143.16,-1187.03 L 143.409,-1186.93 L 143.644,-1186.8
 L 143.861,-1186.65 L 144.057,-1186.46 L 144.227,-1186.26 L 144.371,-1186.03 L 144.485,-1185.79 L 144.568,-1185.53
 L 144.618,-1185.27 L 144.635,-1185 L 144.618,-1184.73 L 144.568,-1184.47 L 144.485,-1184.21 L 144.371,-1183.97
 L 144.227,-1183.74 L 144.057,-1183.54 L 143.861,-1183.35 L 143.644,-1183.2 L 143.409,-1183.07 L 143.16,-1182.97
 L 142.9,-1182.9 L 142.634,-1182.87 z
M -142.634,-1092.87 L -142.9,-1092.9 L -143.16,-1092.97 L -143.409,-1093.07 L -143.644,-1093.2 L -143.861,-1093.35
 L -144.057,-1093.54 L -144.227,-1093.74 L -144.371,-1093.97 L -144.485,-1094.21 L -144.568,-1094.47 L -144.618,-1094.73
 L -144.635,-1095 L -144.618,-1095.27 L -144.568,-1095.53 L -144.485,-1095.79 L -144.371,-1096.03 L -144.227,-1096.26
 L -144.057,-1096.46 L -143.861,-1096.65 L -143.644,-1096.8 L -143.409,-1096.93 L -143.16,-1097.03 L -142.9,-1097.1
 L -142.634,-1097.13 L -142.366,-1097.13 L -142.1,-1097.1 L -141.84,-1097.03 L -141.591,-1096.93 L -141.356,-1096.8
 L -141.139,-1096.65 L -140.943,-1096.46 L -140.773,-1096.26 L -140.629,-1096.03 L -140.515,-1095.79 L -140.432,-1095.53
 L -140.382,-1095.27 L -140.365,-1095 L -140.382,-1094.73 L -140.432,-1094.47 L -140.515,-1094.21 L -140.629,-1093.97
 L -140.773,-1093.74 L -140.943,-1093.54 L -141.139,-1093.35 L -141.356,-1093.2 L -141.591,-1093.07 L -141.84,-1092.97
 L -142.1,-1092.9 L -142.366,-1092.87 z
M 142.366,-1092.87 L 142.1,-1092.9 L 141.84,-1092.97 L 141.591,-1093.07 L 141.356,-1093.2 L 141.139,-1093.35
 L 140.943,-1093.54 L 140.773,-1093.74 L 140.629,-1093.97 L 140.515,-1094.21 L 140.432,-1094.47 L 140.382,-1094.73
 L 140.365,-1095 L 140.382,-1095.27 L 140.432,-1095.53 L 140.515,-1095.79 L 140.629,-1096.03 L 140.773,-1096.26
 L 140.943,-1096.46 L 141.139,-1096.65 L 141.356,-1096.8 L 141.591,-1096.93 L 141.84,-1097.03 L 142.1,-1097.1
 L 142.366,-1097.13 L 142.634,-1097.13 L 142.9,-1097.1 L 143.16,-1097.03 L 143.409,-1096.93 L 143.644,-1096.8
 L 143.861,-1096.65 L 144.057,-1096.46 L 144.227,-1096.26 L 144.371,-1096.03 L 144.485,-1095.79 L 144.568,-1095.53
 L 144.618,-1095.27 L 144.635,-1095 L 144.618,-1094.73 L 144.568,-1094.47 L 144.485,-1094.21 L 144.371,-1093.97
 L 144.227,-1093.74 L 144.057,-1093.54 L 143.861,-1093.35 L 143.644,-1093.2 L 143.409,-1093.07 L 143.16,-1092.97
 L 142.9,-1092.9 L 142.634,-1092.87 z
" stroke="black" fill="lightgray" stroke-width="0.5"/>
</svg>
