<?xml version="1.0" standalone="no"?>
<!DOCTYPE svg PUBLIC "-//W3C//DTD SVG 1.1//EN" "http://www.w3.org/Graphics/SVG/1.1/DTD/svg11.dtd">
<svg width="226mm" height="784mm" viewBox="-113 -1184 226 784" xmlns="http://www.w3.org/2000/svg" version="1.1">
<title>OpenSCAD Model</title>
<path d="
M 108.437,-928.589 L 109.045,-928.745 L 109.629,-928.976 L 110.179,-929.278 L 110.687,-929.647 L 111.145,-930.077
 L 111.545,-930.561 L 111.882,-931.091 L 112.149,-931.659 L 112.343,-932.257 L 112.461,-932.873 L 112.5,-933.5
 L 112.5,-1178.5 L 112.461,-1179.13 L 112.343,-1179.74 L 112.149,-1180.34 L 111.882,-1180.91 L 111.545,-1181.44
 L 111.145,-1181.92 L 110.687,-1182.35 L 110.179,-1182.72 L 109.629,-1183.02 L 109.045,-1183.26 L 108.437,-1183.41
 L 107.814,-1183.49 L -107.814,-1183.49 L -108.437,-1183.41 L -109.045,-1183.26 L -109.629,-1183.02 L -110.179,-1182.72
 L -110.687,-1182.35 L -111.145,-1181.92 L -111.545,-1181.44 L -111.882,-1180.91 L -112.149,-1180.34 L -112.343,-1179.74
 L -112.461,-1179.13 L -112.5,-1178.5 L -112.5,-933.5 L -112.461,-932.873 L -112.343,-932.257 L -112.149,-931.659
 L -111.882,-931.091 L -111.545,-930.561 L -111.145,-930.077 L -110.687,-929.647 L -110.179,-929.278 L -109.629,-928.976
 L -109.045,-928.745 L -108.437,-928.589 L -107.814,-928.51 L 107.814,-928.51 z
M -107.243,-930.135 L -107.726,-930.196 L -108.197,-930.317 L -108.649,-930.496 L -109.075,-930.73 L -109.469,-931.016
 L -109.823,-931.349 L -110.133,-931.724 L -110.394,-932.134 L -110.601,-932.574 L -110.751,-933.037 L -110.842,-933.515
 L -110.873,-934 L -110.873,-1178 L -110.842,-1178.49 L -110.751,-1178.96 L -110.601,-1179.43 L -110.394,-1179.87
 L -110.133,-1180.28 L -109.823,-1180.65 L -109.469,-1180.98 L -109.075,-1181.27 L -108.649,-1181.5 L -108.197,-1181.68
 L -107.726,-1181.8 L -107.243,-1181.86 L 107.243,-1181.86 L 107.726,-1181.8 L 108.197,-1181.68 L 108.649,-1181.5
 L 109.075,-1181.27 L 109.469,-1180.98 L 109.823,-1180.65 L 110.133,-1180.28 L 110.394,-1179.87 L 110.601,-1179.43
 L 110.751,-1178.96 L 110.842,-1178.49 L 110.873,-1178 L 110.873,-934 L 110.842,-933.515 L 110.751,-933.037
 L 110.601,-932.574 L 110.394,-932.134 L 110.133,-931.724 L 109.823,-931.349 L 109.469,-931.016 L 109.075,-930.73
 L 108.649,-930.496 L 108.197,-930.317 L 107.726,-930.196 L 107.243,-930.135 z
M 108.437,-664.589 L 109.045,-664.745 L 109.629,-664.976 L 110.179,-665.278 L 110.687,-665.647 L 111.145,-666.077
 L 111.545,-666.561 L 111.882,-667.091 L 112.149,-667.659 L 112.343,-668.257 L 112.461,-668.873 L 112.5,-669.5
 L 112.5,-914.5 L 112.461,-915.127 L 112.343,-915.743 L 112.149,-916.341 L 111.882,-916.909 L 111.545,-917.439
 L 111.145,-917.923 L 110.687,-918.353 L 110.179,-918.722 L 109.629,-919.024 L 109.045,-919.255 L 108.437,-919.411
 L 107.814,-919.49 L -107.814,-919.49 L -108.437,-919.411 L -109.045,-919.255 L -109.629,-919.024 L -110.179,-918.722
 L -110.687,-918.353 L -111.145,-917.923 L -111.545,-917.439 L -111.882,-916.909 L -112.149,-916.341 L -112.343,-915.743
 L -112.461,-915.127 L -112.5,-914.5 L -112.5,-669.5 L -112.461,-668.873 L -112.343,-668.257 L -112.149,-667.659
 L -111.882,-667.091 L -111.545,-666.561 L -111.145,-666.077 L -110.687,-665.647 L -110.179,-665.278 L -109.629,-664.976
 L -109.045,-664.745 L -108.437,-664.589 L -107.814,-664.51 L 107.814,-664.51 z
M -105.151,-909.605 L -105.45,-909.643 L -105.742,-909.717 L -106.022,-909.828 L -106.286,-909.974 L -106.53,-910.151
 L -106.75,-910.357 L -106.942,-910.589 L -107.103,-910.844 L -107.231,-911.117 L -107.325,-911.403 L -107.381,-911.699
 L -107.4,-912 L -107.381,-912.301 L -107.325,-912.597 L -107.231,-912.883 L -107.103,-913.156 L -106.942,-913.411
 L -106.75,-913.643 L -106.53,-913.849 L -106.286,-914.026 L -106.022,-914.172 L -105.742,-914.283 L -105.45,-914.357
 L -105.151,-914.395 L -104.849,-914.395 L -104.55,-914.357 L -104.258,-914.283 L -103.978,-914.172 L -103.714,-914.026
 L -103.47,-913.849 L -103.25,-913.643 L -103.058,-913.411 L -102.897,-913.156 L -102.769,-912.883 L -102.675,-912.597
 L -102.619,-912.301 L -102.6,-912 L -102.619,-911.699 L -102.675,-911.403 L -102.769,-911.117 L -102.897,-910.844
 L -103.058,-910.589 L -103.25,-910.357 L -103.47,-910.151 L -103.714,-909.974 L -103.978,-909.828 L -104.258,-909.717
 L -104.55,-909.643 L -104.849,-909.605 z
M 104.849,-909.605 L 104.55,-909.643 L 104.258,-909.717 L 103.978,-909.828 L 103.714,-909.974 L 103.47,-910.151
 L 103.25,-910.357 L 103.058,-910.589 L 102.897,-910.844 L 102.769,-911.117 L 102.675,-911.403 L 102.619,-911.699
 L 102.6,-912 L 102.619,-912.301 L 102.675,-912.597 L 102.769,-912.883 L 102.897,-913.156 L 103.058,-913.411
 L 103.25,-913.643 L 103.47,-913.849 L 103.714,-914.026 L 103.978,-914.172 L 104.258,-914.283 L 104.55,-914.357
 L 104.849,-914.395 L 105.151,-914.395 L 105.45,-914.357 L 105.742,-914.283 L 106.022,-914.172 L 106.286,-914.026
 L 106.53,-913.849 L 106.75,-913.643 L 106.942,-913.411 L 107.103,-913.156 L 107.231,-912.883 L 107.325,-912.597
 L 107.381,-912.301 L 107.4,-912 L 107.381,-911.699 L 107.325,-911.403 L 107.231,-911.117 L 107.103,-910.844
 L 106.942,-910.589 L 106.75,-910.357 L 106.53,-910.151 L 106.286,-909.974 L 106.022,-909.828 L 105.742,-909.717
 L 105.45,-909.643 L 105.151,-909.605 z
M 104.849,-669.605 L 104.55,-669.643 L 104.258,-669.717 L 103.978,-669.828 L 103.714,-669.974 L 103.47,-670.151
 L 103.25,-670.357 L 103.058,-670.589 L 102.897,-670.844 L 102.769,-671.117 L 102.675,-671.403 L 102.619,-671.699
 L 102.6,-672 L 102.619,-672.301 L 102.675,-672.597 L 102.769,-672.883 L 102.897,-673.156 L 103.058,-673.411
 L 103.25,-673.643 L 103.47,-673.849 L 103.714,-674.026 L 103.978,-674.172 L 104.258,-674.283 L 104.55,-674.357
 L 104.849,-674.395 L 105.151,-674.395 L 105.45,-674.357 L 105.742,-674.283 L 106.022,-674.172 L 106.286,-674.026
 L 106.53,-673.849 L 106.75,-673.643 L 106.942,-673.411 L 107.103,-673.156 L 107.231,-672.883 L 107.325,-672.597
 L 107.381,-672.301 L 107.4,-672 L 107.381,-671.699 L 107.325,-671.403 L 107.231,-671.117 L 107.103,-670.844
 L 106.942,-670.589 L 106.75,-670.357 L 106.53,-670.151 L 106.286,-669.974 L 106.022,-669.828 L 105.742,-669.717
 L 105.45,-669.643 L 105.151,-669.605 z
M -105.151,-669.605 L -105.45,-669.643 L -105.742,-669.717 L -106.022,-669.828 L -106.286,-669.974 L -106.53,-670.151
 L -106.75,-670.357 L -106.942,-670.589 L -107.103,-670.844 L -107.231,-671.117 L -107.325,-671.403 L -107.381,-671.699
 L -107.4,-672 L -107.381,-672.301 L -107.325,-672.597 L -107.231,-672.883 L -107.103,-673.156 L -106.942,-673.411
 L -106.75,-673.643 L -106.53,-673.849 L -106.286,-674.026 L -106.022,-674.172 L -105.742,-674.283 L -105.45,-674.357
 L -105.151,-674.395 L -104.849,-674.395 L -104.55,-674.357 L -104.258,-674.283 L -103.978,-674.172 L -103.714,-674.026
 L -103.47,-673.849 L -103.25,-673.643 L -103.058,-673.411 L -102.897,-673.156 L -102.769,-672.883 L -102.675,-672.597
 L -102.619,-672.301 L -102.6,-672 L -102.619,-671.699 L -102.675,-671.403 L -102.769,-671.117 L -102.897,-670.844
 L -103.058,-670.589 L -103.25,-670.357 L -103.47,-670.151 L -103.714,-669.974 L -103.978,-669.828 L -104.258,-669.717
 L -104.55,-669.643 L -104.849,-669.605 z
M 108.437,-400.589 L 109.045,-400.745 L 109.629,-400.976 L 110.179,-401.278 L 110.687,-401.647 L 111.145,-402.077
 L 111.545,-402.561 L 111.882,-403.091 L 112.149,-403.659 L 112.343,-404.257 L 112.461,-404.873 L 112.5,-405.5
 L 112.5,-650.5 L 112.461,-651.127 L 112.343,-651.743 L 112.149,-652.341 L 111.882,-652.909 L 111.545,-653.439
 L 111.145,-653.923 L 110.687,-654.353 L 110.179,-654.722 L 109.629,-655.024 L 109.045,-655.255 L 108.437,-655.411
 L 107.814,-655.49 L -107.814,-655.49 L -108.437,-655.411 L -109.045,-655.255 L -109.629,-655.024 L -110.179,-654.722
 L -110.687,-654.353 L -111.145,-653.923 L -111.545,-653.439 L -111.882,-652.909 L -112.149,-652.341 L -112.343,-651.743
 L -112.461,-651.127 L -112.5,-650.5 L -112.5,-405.5 L -112.461,-404.873 L -112.343,-404.257 L -112.149,-403.659
 L -111.882,-403.091 L -111.545,-402.561 L -111.145,-402.077 L -110.687,-401.647 L -110.179,-401.278 L -109.629,-400.976
 L -109.045,-400.745 L -108.437,-400.589 L -107.814,-400.51 L 107.814,-400.51 z
M 104.887,-646.204 L 104.663,-646.232 L 104.444,-646.288 L 104.234,-646.371 L 104.036,-646.48 L 103.853,-646.613
 L 103.688,-646.768 L 103.544,-646.942 L 103.423,-647.133 L 103.326,-647.337 L 103.257,-647.552 L 103.214,-647.774
 L 103.2,-648 L 103.214,-648.226 L 103.257,-648.448 L 103.326,-648.663 L 103.423,-648.867 L 103.544,-649.058
 L 103.688,-649.232 L 103.853,-649.387 L 104.036,-649.52 L 104.234,-649.629 L 104.444,-649.712 L 104.663,-649.768
 L 104.887,-649.796 L 105.113,-649.796 L 105.337,-649.768 L 105.556,-649.712 L 105.766,-649.629 L 105.964,-649.52
 L 106.147,-649.387 L 106.312,-649.232 L 106.456,-649.058 L 106.577,-648.867 L 106.674,-648.663 L 106.743,-648.448
 L 106.786,-648.226 L 106.8,-648 L 106.786,-647.774 L 106.743,-647.552 L 106.674,-647.337 L 106.577,-647.133
 L 106.456,-646.942 L 106.312,-646.768 L 106.147,-646.613 L 105.964,-646.48 L 105.766,-646.371 L 105.556,-646.288
 L 105.337,-646.232 L 105.113,-646.204 z
M -105.113,-646.204 L -105.337,-646.232 L -105.556,-646.288 L -105.766,-646.371 L -105.964,-646.48 L -106.147,-646.613
 L -106.312,-646.768 L -106.456,-646.942 L -106.577,-647.133 L -106.674,-647.337 L -106.743,-647.552 L -106.786,-647.774
 L -106.8,-648 L -106.786,-648.226 L -106.743,-648.448 L -106.674,-648.663 L -106.577,-648.867 L -106.456,-649.058
 L -106.312,-649.232 L -106.147,-649.387 L -105.964,-649.52 L -105.766,-649.629 L -105.556,-649.712 L -105.337,-649.768
 L -105.113,-649.796 L -104.887,-649.796 L -104.663,-649.768 L -104.444,-649.712 L -104.234,-649.629 L -104.036,-649.52
 L -103.853,-649.387 L -103.688,-649.232 L -103.544,-649.058 L -103.423,-648.867 L -103.326,-648.663 L -103.257,-648.448
 L -103.214,-648.226 L -103.2,-648 L -103.214,-647.774 L -103.257,-647.552 L -103.326,-647.337 L -103.423,-647.133
 L -103.544,-646.942 L -103.688,-646.768 L -103.853,-646.613 L -104.036,-646.48 L -104.234,-646.371 L -104.444,-646.288
 L -104.663,-646.232 L -104.887,-646.204 z
M -105.113,-406.204 L -105.337,-406.232 L -105.556,-406.288 L -105.766,-406.371 L -105.964,-406.48 L -106.147,-406.613
 L -106.312,-406.768 L -106.456,-406.942 L -106.577,-407.133 L -106.674,-407.337 L -106.743,-407.552 L -106.786,-407.774
 L -106.8,-408 L -106.786,-408.226 L -106.743,-408.448 L -106.674,-408.663 L -106.577,-408.867 L -106.456,-409.058
 L -106.312,-409.232 L -106.147,-409.387 L -105.964,-409.52 L -105.766,-409.629 L -105.556,-409.712 L -105.337,-409.768
 L -105.113,-409.796 L -104.887,-409.796 L -104.663,-409.768 L -104.444,-409.712 L -104.234,-409.629 L -104.036,-409.52
 L -103.853,-409.387 L -103.688,-409.232 L -103.544,-409.058 L -103.423,-408.867 L -103.326,-408.663 L -103.257,-408.448
 L -103.214,-408.226 L -103.2,-408 L -103.214,-407.774 L -103.257,-407.552 L -103.326,-407.337 L -103.423,-407.133
 L -103.544,-406.942 L -103.688,-406.768 L -103.853,-406.613 L -104.036,-406.48 L -104.234,-406.371 L -104.444,-406.288
 L -104.663,-406.232 L -104.887,-406.204 z
M 104.887,-406.204 L 104.663,-406.232 L 104.444,-406.288 L 104.234,-406.371 L 104.036,-406.48 L 103.853,-406.613
 L 103.688,-406.768 L 103.544,-406.942 L 103.423,-407.133 L 103.326,-407.337 L 103.257,-407.552 L 103.214,-407.774
 L 103.2,-408 L 103.214,-408.226 L 103.257,-408.448 L 103.326,-408.663 L 103.423,-408.867 L 103.544,-409.058
 L 103.688,-409.232 L 103.853,-409.387 L 104.036,-409.52 L 104.234,-409.629 L 104.444,-409.712 L 104.663,-409.768
 L 104.887,-409.796 L 105.113,-409.796 L 105.337,-409.768 L 105.556,-409.712 L 105.766,-409.629 L 105.964,-409.52
 L 106.147,-409.387 L 106.312,-409.232 L 106.456,-409.058 L 106.577,-408.867 L 106.674,-408.663 L 106.743,-408.448
 L 106.786,-408.226 L 106.8,-408 L 106.786,-407.774 L 106.743,-407.552 L 106.674,-407.337 L 106.577,-407.133
 L 106.456,-406.942 L 106.312,-406.768 L 106.147,-406.613 L 105.964,-406.48 L 105.766,-406.371 L 105.556,-406.288
 L 105.337,-406.232 L 105.113,-406.204 z
" stroke="black" fill="lightgray" stroke-width="0.5"/>
</svg>
