<?xml version="1.0" standalone="no"?>
<!DOCTYPE svg PUBLIC "-//W3C//DTD SVG 1.1//EN" "http://www.w3.org/Graphics/SVG/1.1/DTD/svg11.dtd">
<svg width="302mm" height="1386mm" viewBox="-152 -2367 302 1386" xmlns="http://www.w3.org/2000/svg" version="1.1">
<title>OpenSCAD Model</title>
<path d="
M -148.5,-2098.44 L -148.187,-2098.15 L -147.679,-2097.78 L -147.129,-2097.48 L -146.545,-2097.24 L -145.937,-2097.09
 L -145.314,-2097.01 L 145.314,-2097.01 L 145.937,-2097.09 L 146.545,-2097.24 L 147.129,-2097.48 L 147.679,-2097.78
 L 148.187,-2098.15 L 148.645,-2098.58 L 149.045,-2099.06 L 149.382,-2099.59 L 149.649,-2100.16 L 149.843,-2100.76
 L 149.961,-2101.37 L 150,-2102 L 150,-2362 L 149.961,-2362.63 L 149.843,-2363.24 L 149.649,-2363.84
 L 149.382,-2364.41 L 149.045,-2364.94 L 148.645,-2365.42 L 148.187,-2365.85 L 147.679,-2366.22 L 147.129,-2366.52
 L 146.545,-2366.76 L 145.937,-2366.91 L 145.314,-2366.99 L -145.314,-2366.99 L -145.937,-2366.91 L -146.545,-2366.76
 L -147.129,-2366.52 L -147.679,-2366.22 L -148.187,-2365.85 L -148.5,-2365.56 L -148.5,-2366.99 L -151.5,-2366.99
 L -151.5,-2097.01 L -148.5,-2097.01 z
M -144.751,-2098.51 L -145.25,-2098.57 L -145.736,-2098.7 L -146.203,-2098.88 L -146.643,-2099.12 L -147.05,-2099.42
 L -147.416,-2099.76 L -147.736,-2100.15 L -148.005,-2100.57 L -148.219,-2101.03 L -148.374,-2101.51 L -148.468,-2102
 L -148.5,-2102.5 L -148.5,-2361.5 L -148.468,-2362 L -148.374,-2362.49 L -148.219,-2362.97 L -148.005,-2363.43
 L -147.736,-2363.85 L -147.416,-2364.24 L -147.05,-2364.58 L -146.643,-2364.88 L -146.203,-2365.12 L -145.736,-2365.3
 L -145.25,-2365.43 L -144.751,-2365.49 L 144.751,-2365.49 L 145.25,-2365.43 L 145.736,-2365.3 L 146.203,-2365.12
 L 146.643,-2364.88 L 147.05,-2364.58 L 147.416,-2364.24 L 147.736,-2363.85 L 148.005,-2363.43 L 148.219,-2362.97
 L 148.374,-2362.49 L 148.468,-2362 L 148.5,-2361.5 L 148.5,-2102.5 L 148.468,-2102 L 148.374,-2101.51
 L 148.219,-2101.03 L 148.005,-2100.57 L 147.736,-2100.15 L 147.416,-2099.76 L 147.05,-2099.42 L 146.643,-2099.12
 L 146.203,-2098.88 L 145.736,-2098.7 L 145.25,-2098.57 L 144.751,-2098.51 z
M -148.5,-1819.44 L -148.187,-1819.15 L -147.679,-1818.78 L -147.129,-1818.48 L -146.545,-1818.24 L -145.937,-1818.09
 L -145.314,-1818.01 L 145.314,-1818.01 L 145.937,-1818.09 L 146.545,-1818.24 L 147.129,-1818.48 L 147.679,-1818.78
 L 148.187,-1819.15 L 148.645,-1819.58 L 149.045,-1820.06 L 149.382,-1820.59 L 149.649,-1821.16 L 149.843,-1821.76
 L 149.961,-1822.37 L 150,-1823 L 150,-2083 L 149.961,-2083.63 L 149.843,-2084.24 L 149.649,-2084.84
 L 149.382,-2085.41 L 149.045,-2085.94 L 148.645,-2086.42 L 148.187,-2086.85 L 147.679,-2087.22 L 147.129,-2087.52
 L 146.545,-2087.76 L 145.937,-2087.91 L 145.314,-2087.99 L -145.314,-2087.99 L -145.937,-2087.91 L -146.545,-2087.76
 L -147.129,-2087.52 L -147.679,-2087.22 L -148.187,-2086.85 L -148.5,-2086.56 L -148.5,-2087.99 L -151.5,-2087.99
 L -151.5,-1818.01 L -148.5,-1818.01 z
M -144.751,-1819.51 L -145.25,-1819.57 L -145.736,-1819.7 L -146.203,-1819.88 L -146.643,-1820.12 L -147.05,-1820.42
 L -147.416,-1820.76 L -147.736,-1821.15 L -148.005,-1821.57 L -148.219,-1822.03 L -148.374,-1822.51 L -148.468,-1823
 L -148.5,-1823.5 L -148.5,-2082.5 L -148.468,-2083 L -148.374,-2083.49 L -148.219,-2083.97 L -148.005,-2084.43
 L -147.736,-2084.85 L -147.416,-2085.24 L -147.05,-2085.58 L -146.643,-2085.88 L -146.203,-2086.12 L -145.736,-2086.3
 L -145.25,-2086.43 L -144.751,-2086.49 L 144.751,-2086.49 L 145.25,-2086.43 L 145.736,-2086.3 L 146.203,-2086.12
 L 146.643,-2085.88 L 147.05,-2085.58 L 147.416,-2085.24 L 147.736,-2084.85 L 148.005,-2084.43 L 148.219,-2083.97
 L 148.374,-2083.49 L 148.468,-2083 L 148.5,-2082.5 L 148.5,-1823.5 L 148.468,-1823 L 148.374,-1822.51
 L 148.219,-1822.03 L 148.005,-1821.57 L 147.736,-1821.15 L 147.416,-1820.76 L 147.05,-1820.42 L 146.643,-1820.12
 L 146.203,-1819.88 L 145.736,-1819.7 L 145.25,-1819.57 L 144.751,-1819.51 z
M -148.5,-1540.44 L -148.187,-1540.15 L -147.679,-1539.78 L -147.129,-1539.48 L -146.545,-1539.24 L -145.937,-1539.09
 L -145.314,-1539.01 L 145.314,-1539.01 L 145.937,-1539.09 L 146.545,-1539.24 L 147.129,-1539.48 L 147.679,-1539.78
 L 148.187,-1540.15 L 148.645,-1540.58 L 149.045,-1541.06 L 149.382,-1541.59 L 149.649,-1542.16 L 149.843,-1542.76
 L 149.961,-1543.37 L 150,-1544 L 150,-1804 L 149.961,-1804.63 L 149.843,-1805.24 L 149.649,-1805.84
 L 149.382,-1806.41 L 149.045,-1806.94 L 148.645,-1807.42 L 148.187,-1807.85 L 147.679,-1808.22 L 147.129,-1808.52
 L 146.545,-1808.76 L 145.937,-1808.91 L 145.314,-1808.99 L -145.314,-1808.99 L -145.937,-1808.91 L -146.545,-1808.76
 L -147.129,-1808.52 L -147.679,-1808.22 L -148.187,-1807.85 L -148.5,-1807.56 L -148.5,-1808.99 L -151.5,-1808.99
 L -151.5,-1539.01 L -148.5,-1539.01 z
M -144.743,-1540.64 L -145.226,-1540.7 L -145.697,-1540.82 L -146.149,-1541 L -146.575,-1541.23 L -146.969,-1541.52
 L -147.323,-1541.85 L -147.633,-1542.22 L -147.894,-1542.63 L -148.101,-1543.07 L -148.251,-1543.54 L -148.342,-1544.01
 L -148.373,-1544.5 L -148.373,-1803.5 L -148.342,-1803.99 L -148.251,-1804.46 L -148.101,-1804.93 L -147.894,-1805.37
 L -147.633,-1805.78 L -147.323,-1806.15 L -146.969,-1806.48 L -146.575,-1806.77 L -146.149,-1807 L -145.697,-1807.18
 L -145.226,-1807.3 L -144.743,-1807.36 L 144.743,-1807.36 L 145.226,-1807.3 L 145.697,-1807.18 L 146.149,-1807
 L 146.575,-1806.77 L 146.969,-1806.48 L 147.323,-1806.15 L 147.633,-1805.78 L 147.894,-1805.37 L 148.101,-1804.93
 L 148.251,-1804.46 L 148.342,-1803.99 L 148.373,-1803.5 L 148.373,-1544.5 L 148.342,-1544.01 L 148.251,-1543.54
 L 148.101,-1543.07 L 147.894,-1542.63 L 147.633,-1542.22 L 147.323,-1541.85 L 146.969,-1541.52 L 146.575,-1541.23
 L 146.149,-1541 L 145.697,-1540.82 L 145.226,-1540.7 L 144.743,-1540.64 z
M 145.937,-1260.09 L 146.545,-1260.24 L 147.129,-1260.48 L 147.679,-1260.78 L 148.187,-1261.15 L 148.645,-1261.58
 L 149.045,-1262.06 L 149.382,-1262.59 L 149.649,-1263.16 L 149.843,-1263.76 L 149.961,-1264.37 L 150,-1265
 L 150,-1525 L 149.961,-1525.63 L 149.843,-1526.24 L 149.649,-1526.84 L 149.382,-1527.41 L 149.045,-1527.94
 L 148.645,-1528.42 L 148.187,-1528.85 L 147.679,-1529.22 L 147.129,-1529.52 L 146.545,-1529.76 L 145.937,-1529.91
 L 145.314,-1529.99 L -145.314,-1529.99 L -145.937,-1529.91 L -146.545,-1529.76 L -147.129,-1529.52 L -147.679,-1529.22
 L -148.187,-1528.85 L -148.5,-1528.56 L -148.5,-1529.61 L -151.5,-1529.61 L -151.5,-1260.39 L -148.5,-1260.39
 L -148.5,-1261.44 L -148.187,-1261.15 L -147.679,-1260.78 L -147.129,-1260.48 L -146.545,-1260.24 L -145.937,-1260.09
 L -145.314,-1260.01 L 145.314,-1260.01 z
M 142.349,-1520.1 L 142.05,-1520.14 L 141.758,-1520.22 L 141.478,-1520.33 L 141.214,-1520.47 L 140.97,-1520.65
 L 140.75,-1520.86 L 140.558,-1521.09 L 140.397,-1521.34 L 140.269,-1521.62 L 140.175,-1521.9 L 140.119,-1522.2
 L 140.1,-1522.5 L 140.119,-1522.8 L 140.175,-1523.1 L 140.269,-1523.38 L 140.397,-1523.66 L 140.558,-1523.91
 L 140.75,-1524.14 L 140.97,-1524.35 L 141.214,-1524.53 L 141.478,-1524.67 L 141.758,-1524.78 L 142.05,-1524.86
 L 142.349,-1524.9 L 142.651,-1524.9 L 142.95,-1524.86 L 143.242,-1524.78 L 143.522,-1524.67 L 143.786,-1524.53
 L 144.03,-1524.35 L 144.25,-1524.14 L 144.442,-1523.91 L 144.603,-1523.66 L 144.731,-1523.38 L 144.825,-1523.1
 L 144.881,-1522.8 L 144.9,-1522.5 L 144.881,-1522.2 L 144.825,-1521.9 L 144.731,-1521.62 L 144.603,-1521.34
 L 144.442,-1521.09 L 144.25,-1520.86 L 144.03,-1520.65 L 143.786,-1520.47 L 143.522,-1520.33 L 143.242,-1520.22
 L 142.95,-1520.14 L 142.651,-1520.1 z
M -142.651,-1520.1 L -142.95,-1520.14 L -143.242,-1520.22 L -143.522,-1520.33 L -143.786,-1520.47 L -144.03,-1520.65
 L -144.25,-1520.86 L -144.442,-1521.09 L -144.603,-1521.34 L -144.731,-1521.62 L -144.825,-1521.9 L -144.881,-1522.2
 L -144.9,-1522.5 L -144.881,-1522.8 L -144.825,-1523.1 L -144.731,-1523.38 L -144.603,-1523.66 L -144.442,-1523.91
 L -144.25,-1524.14 L -144.03,-1524.35 L -143.786,-1524.53 L -143.522,-1524.67 L -143.242,-1524.78 L -142.95,-1524.86
 L -142.651,-1524.9 L -142.349,-1524.9 L -142.05,-1524.86 L -141.758,-1524.78 L -141.478,-1524.67 L -141.214,-1524.53
 L -140.97,-1524.35 L -140.75,-1524.14 L -140.558,-1523.91 L -140.397,-1523.66 L -140.269,-1523.38 L -140.175,-1523.1
 L -140.119,-1522.8 L -140.1,-1522.5 L -140.119,-1522.2 L -140.175,-1521.9 L -140.269,-1521.62 L -140.397,-1521.34
 L -140.558,-1521.09 L -140.75,-1520.86 L -140.97,-1520.65 L -141.214,-1520.47 L -141.478,-1520.33 L -141.758,-1520.22
 L -142.05,-1520.14 L -142.349,-1520.1 z
M -142.651,-1265.1 L -142.95,-1265.14 L -143.242,-1265.22 L -143.522,-1265.33 L -143.786,-1265.47 L -144.03,-1265.65
 L -144.25,-1265.86 L -144.442,-1266.09 L -144.603,-1266.34 L -144.731,-1266.62 L -144.825,-1266.9 L -144.881,-1267.2
 L -144.9,-1267.5 L -144.881,-1267.8 L -144.825,-1268.1 L -144.731,-1268.38 L -144.603,-1268.66 L -144.442,-1268.91
 L -144.25,-1269.14 L -144.03,-1269.35 L -143.786,-1269.53 L -143.522,-1269.67 L -143.242,-1269.78 L -142.95,-1269.86
 L -142.651,-1269.9 L -142.349,-1269.9 L -142.05,-1269.86 L -141.758,-1269.78 L -141.478,-1269.67 L -141.214,-1269.53
 L -140.97,-1269.35 L -140.75,-1269.14 L -140.558,-1268.91 L -140.397,-1268.66 L -140.269,-1268.38 L -140.175,-1268.1
 L -140.119,-1267.8 L -140.1,-1267.5 L -140.119,-1267.2 L -140.175,-1266.9 L -140.269,-1266.62 L -140.397,-1266.34
 L -140.558,-1266.09 L -140.75,-1265.86 L -140.97,-1265.65 L -141.214,-1265.47 L -141.478,-1265.33 L -141.758,-1265.22
 L -142.05,-1265.14 L -142.349,-1265.1 z
M 142.349,-1265.1 L 142.05,-1265.14 L 141.758,-1265.22 L 141.478,-1265.33 L 141.214,-1265.47 L 140.97,-1265.65
 L 140.75,-1265.86 L 140.558,-1266.09 L 140.397,-1266.34 L 140.269,-1266.62 L 140.175,-1266.9 L 140.119,-1267.2
 L 140.1,-1267.5 L 140.119,-1267.8 L 140.175,-1268.1 L 140.269,-1268.38 L 140.397,-1268.66 L 140.558,-1268.91
 L 140.75,-1269.14 L 140.97,-1269.35 L 141.214,-1269.53 L 141.478,-1269.67 L 141.758,-1269.78 L 142.05,-1269.86
 L 142.349,-1269.9 L 142.651,-1269.9 L 142.95,-1269.86 L 143.242,-1269.78 L 143.522,-1269.67 L 143.786,-1269.53
 L 144.03,-1269.35 L 144.25,-1269.14 L 144.442,-1268.91 L 144.603,-1268.66 L 144.731,-1268.38 L 144.825,-1268.1
 L 144.881,-1267.8 L 144.9,-1267.5 L 144.881,-1267.2 L 144.825,-1266.9 L 144.731,-1266.62 L 144.603,-1266.34
 L 144.442,-1266.09 L 144.25,-1265.86 L 144.03,-1265.65 L 143.786,-1265.47 L 143.522,-1265.33 L 143.242,-1265.22
 L 142.95,-1265.14 L 142.651,-1265.1 z
M 145.937,-981.089 L 146.545,-981.245 L 147.129,-981.476 L 147.679,-981.778 L 148.187,-982.147 L 148.645,-982.577
 L 149.045,-983.061 L 149.382,-983.591 L 149.649,-984.159 L 149.843,-984.757 L 149.961,-985.373 L 150,-986
 L 150,-1246 L 149.961,-1246.63 L 149.843,-1247.24 L 149.649,-1247.84 L 149.382,-1248.41 L 149.045,-1248.94
 L 148.645,-1249.42 L 148.187,-1249.85 L 147.679,-1250.22 L 147.129,-1250.52 L 146.545,-1250.76 L 145.937,-1250.91
 L 145.314,-1250.99 L -145.314,-1250.99 L -145.937,-1250.91 L -146.545,-1250.76 L -147.129,-1250.52 L -147.679,-1250.22
 L -148.187,-1249.85 L -148.645,-1249.42 L -149.045,-1248.94 L -149.382,-1248.41 L -149.649,-1247.84 L -149.843,-1247.24
 L -149.9,-1246.94 L -151.5,-1246.94 L -151.5,-985.056 L -149.9,-985.056 L -149.843,-984.757 L -149.649,-984.159
 L -149.382,-983.591 L -149.045,-983.061 L -148.645,-982.577 L -148.187,-982.147 L -147.679,-981.778 L -147.129,-981.476
 L -146.545,-981.245 L -145.937,-981.089 L -145.314,-981.01 L 145.314,-981.01 z
M 142.387,-1241.7 L 142.163,-1241.73 L 141.944,-1241.79 L 141.734,-1241.87 L 141.536,-1241.98 L 141.353,-1242.11
 L 141.188,-1242.27 L 141.044,-1242.44 L 140.923,-1242.63 L 140.826,-1242.84 L 140.757,-1243.05 L 140.714,-1243.27
 L 140.7,-1243.5 L 140.714,-1243.73 L 140.757,-1243.95 L 140.826,-1244.16 L 140.923,-1244.37 L 141.044,-1244.56
 L 141.188,-1244.73 L 141.353,-1244.89 L 141.536,-1245.02 L 141.734,-1245.13 L 141.944,-1245.21 L 142.163,-1245.27
 L 142.387,-1245.3 L 142.613,-1245.3 L 142.837,-1245.27 L 143.056,-1245.21 L 143.266,-1245.13 L 143.464,-1245.02
 L 143.647,-1244.89 L 143.812,-1244.73 L 143.956,-1244.56 L 144.077,-1244.37 L 144.174,-1244.16 L 144.243,-1243.95
 L 144.286,-1243.73 L 144.3,-1243.5 L 144.286,-1243.27 L 144.243,-1243.05 L 144.174,-1242.84 L 144.077,-1242.63
 L 143.956,-1242.44 L 143.812,-1242.27 L 143.647,-1242.11 L 143.464,-1241.98 L 143.266,-1241.87 L 143.056,-1241.79
 L 142.837,-1241.73 L 142.613,-1241.7 z
M -142.613,-1241.7 L -142.837,-1241.73 L -143.056,-1241.79 L -143.266,-1241.87 L -143.464,-1241.98 L -143.647,-1242.11
 L -143.812,-1242.27 L -143.956,-1242.44 L -144.077,-1242.63 L -144.174,-1242.84 L -144.243,-1243.05 L -144.286,-1243.27
 L -144.3,-1243.5 L -144.286,-1243.73 L -144.243,-1243.95 L -144.174,-1244.16 L -144.077,-1244.37 L -143.956,-1244.56
 L -143.812,-1244.73 L -143.647,-1244.89 L -143.464,-1245.02 L -143.266,-1245.13 L -143.056,-1245.21 L -142.837,-1245.27
 L -142.613,-1245.3 L -142.387,-1245.3 L -142.163,-1245.27 L -141.944,-1245.21 L -141.734,-1245.13 L -141.536,-1245.02
 L -141.353,-1244.89 L -141.188,-1244.73 L -141.044,-1244.56 L -140.923,-1244.37 L -140.826,-1244.16 L -140.757,-1243.95
 L -140.714,-1243.73 L -140.7,-1243.5 L -140.714,-1243.27 L -140.757,-1243.05 L -140.826,-1242.84 L -140.923,-1242.63
 L -141.044,-1242.44 L -141.188,-1242.27 L -141.353,-1242.11 L -141.536,-1241.98 L -141.734,-1241.87 L -141.944,-1241.79
 L -142.163,-1241.73 L -142.387,-1241.7 z
M -142.613,-986.704 L -142.837,-986.732 L -143.056,-986.788 L -143.266,-986.871 L -143.464,-986.98 L -143.647,-987.113
 L -143.812,-987.268 L -143.956,-987.442 L -144.077,-987.633 L -144.174,-987.837 L -144.243,-988.052 L -144.286,-988.274
 L -144.3,-988.5 L -144.286,-988.726 L -144.243,-988.948 L -144.174,-989.163 L -144.077,-989.367 L -143.956,-989.558
 L -143.812,-989.732 L -143.647,-989.887 L -143.464,-990.02 L -143.266,-990.129 L -143.056,-990.212 L -142.837,-990.268
 L -142.613,-990.296 L -142.387,-990.296 L -142.163,-990.268 L -141.944,-990.212 L -141.734,-990.129 L -141.536,-990.02
 L -141.353,-989.887 L -141.188,-989.732 L -141.044,-989.558 L -140.923,-989.367 L -140.826,-989.163 L -140.757,-988.948
 L -140.714,-988.726 L -140.7,-988.5 L -140.714,-988.274 L -140.757,-988.052 L -140.826,-987.837 L -140.923,-987.633
 L -141.044,-987.442 L -141.188,-987.268 L -141.353,-987.113 L -141.536,-986.98 L -141.734,-986.871 L -141.944,-986.788
 L -142.163,-986.732 L -142.387,-986.704 z
M 142.387,-986.704 L 142.163,-986.732 L 141.944,-986.788 L 141.734,-986.871 L 141.536,-986.98 L 141.353,-987.113
 L 141.188,-987.268 L 141.044,-987.442 L 140.923,-987.633 L 140.826,-987.837 L 140.757,-988.052 L 140.714,-988.274
 L 140.7,-988.5 L 140.714,-988.726 L 140.757,-988.948 L 140.826,-989.163 L 140.923,-989.367 L 141.044,-989.558
 L 141.188,-989.732 L 141.353,-989.887 L 141.536,-990.02 L 141.734,-990.129 L 141.944,-990.212 L 142.163,-990.268
 L 142.387,-990.296 L 142.613,-990.296 L 142.837,-990.268 L 143.056,-990.212 L 143.266,-990.129 L 143.464,-990.02
 L 143.647,-989.887 L 143.812,-989.732 L 143.956,-989.558 L 144.077,-989.367 L 144.174,-989.163 L 144.243,-988.948
 L 144.286,-988.726 L 144.3,-988.5 L 144.286,-988.274 L 144.243,-988.052 L 144.174,-987.837 L 144.077,-987.633
 L 143.956,-987.442 L 143.812,-987.268 L 143.647,-987.113 L 143.464,-986.98 L 143.266,-986.871 L 143.056,-986.788
 L 142.837,-986.732 L 142.613,-986.704 z
" stroke="black" fill="lightgray" stroke-width="0.5"/>
</svg>
