<?xml version="1.0" standalone="no"?>
<!DOCTYPE svg PUBLIC "-//W3C//DTD SVG 1.1//EN" "http://www.w3.org/Graphics/SVG/1.1/DTD/svg11.dtd">
<svg width="300mm" height="549mm" viewBox="-150 -972 300 549" xmlns="http://www.w3.org/2000/svg" version="1.1">
<title>OpenSCAD Model</title>
<path d="
M 145.937,-702.089 L 146.545,-702.245 L 147.129,-702.476 L 147.679,-702.778 L 148.187,-703.147 L 148.645,-703.577
 L 149.045,-704.061 L 149.382,-704.591 L 149.649,-705.159 L 149.843,-705.757 L 149.961,-706.373 L 150,-707
 L 150,-967 L 149.961,-967.627 L 149.843,-968.243 L 149.649,-968.841 L 149.382,-969.409 L 149.045,-969.939
 L 148.645,-970.423 L 148.187,-970.853 L 147.679,-971.222 L 147.129,-971.524 L 146.545,-971.755 L 145.937,-971.911
 L 145.314,-971.99 L -145.314,-971.99 L -145.937,-971.911 L -146.545,-971.755 L -147.129,-971.524 L -147.679,-971.222
 L -148.187,-970.853 L -148.645,-970.423 L -149.045,-969.939 L -149.382,-969.409 L -149.649,-968.841 L -149.843,-968.243
 L -149.961,-967.627 L -150,-967 L -150,-707 L -149.961,-706.373 L -149.843,-705.757 L -149.649,-705.159
 L -149.382,-704.591 L -149.045,-704.061 L -148.645,-703.577 L -148.187,-703.147 L -147.679,-702.778 L -147.129,-702.476
 L -146.545,-702.245 L -145.937,-702.089 L -145.314,-702.01 L 145.314,-702.01 z
M -145.037,-702.681 L -145.608,-702.753 L -146.165,-702.896 L -146.699,-703.107 L -147.203,-703.384 L -147.668,-703.722
 L -148.088,-704.116 L -148.454,-704.559 L -148.762,-705.044 L -149.007,-705.565 L -149.185,-706.111 L -149.292,-706.676
 L -149.328,-707.25 L -149.328,-966.75 L -149.292,-967.324 L -149.185,-967.889 L -149.007,-968.435 L -148.762,-968.956
 L -148.454,-969.441 L -148.088,-969.884 L -147.668,-970.278 L -147.203,-970.616 L -146.699,-970.893 L -146.165,-971.104
 L -145.608,-971.247 L -145.037,-971.319 L 145.037,-971.319 L 145.608,-971.247 L 146.165,-971.104 L 146.699,-970.893
 L 147.203,-970.616 L 147.668,-970.278 L 148.088,-969.884 L 148.454,-969.441 L 148.762,-968.956 L 149.007,-968.435
 L 149.185,-967.889 L 149.292,-967.324 L 149.328,-966.75 L 149.328,-707.25 L 149.292,-706.676 L 149.185,-706.111
 L 149.007,-705.565 L 148.762,-705.044 L 148.454,-704.559 L 148.088,-704.116 L 147.668,-703.722 L 147.203,-703.384
 L 146.699,-703.107 L 146.165,-702.896 L 145.608,-702.753 L 145.037,-702.681 z
M 145.937,-423.089 L 146.545,-423.245 L 147.129,-423.476 L 147.679,-423.778 L 148.187,-424.147 L 148.645,-424.577
 L 149.045,-425.061 L 149.382,-425.591 L 149.649,-426.159 L 149.843,-426.757 L 149.961,-427.373 L 150,-428
 L 150,-688 L 149.961,-688.627 L 149.843,-689.243 L 149.649,-689.841 L 149.382,-690.409 L 149.045,-690.939
 L 148.645,-691.423 L 148.187,-691.853 L 147.679,-692.222 L 147.129,-692.524 L 146.545,-692.755 L 145.937,-692.911
 L 145.314,-692.99 L -145.314,-692.99 L -145.937,-692.911 L -146.545,-692.755 L -147.129,-692.524 L -147.679,-692.222
 L -148.187,-691.853 L -148.645,-691.423 L -149.045,-690.939 L -149.382,-690.409 L -149.649,-689.841 L -149.843,-689.243
 L -149.961,-688.627 L -150,-688 L -150,-428 L -149.961,-427.373 L -149.843,-426.757 L -149.649,-426.159
 L -149.382,-425.591 L -149.045,-425.061 L -148.645,-424.577 L -148.187,-424.147 L -147.679,-423.778 L -147.129,-423.476
 L -146.545,-423.245 L -145.937,-423.089 L -145.314,-423.01 L 145.314,-423.01 z
M -144.882,-426.145 L -145.145,-426.178 L -145.402,-426.244 L -145.648,-426.341 L -145.88,-426.469 L -146.095,-426.624
 L -146.288,-426.806 L -146.457,-427.01 L -146.599,-427.234 L -146.711,-427.473 L -146.793,-427.725 L -146.843,-427.986
 L -146.86,-428.25 L -146.86,-687.75 L -146.843,-688.014 L -146.793,-688.275 L -146.711,-688.527 L -146.599,-688.766
 L -146.457,-688.99 L -146.288,-689.194 L -146.095,-689.376 L -145.88,-689.531 L -145.648,-689.659 L -145.402,-689.756
 L -145.145,-689.822 L -144.882,-689.855 L 144.882,-689.855 L 145.145,-689.822 L 145.402,-689.756 L 145.648,-689.659
 L 145.88,-689.531 L 146.095,-689.376 L 146.288,-689.194 L 146.457,-688.99 L 146.599,-688.766 L 146.711,-688.527
 L 146.793,-688.275 L 146.843,-688.014 L 146.86,-687.75 L 146.86,-428.25 L 146.843,-427.986 L 146.793,-427.725
 L 146.711,-427.473 L 146.599,-427.234 L 146.457,-427.01 L 146.288,-426.806 L 146.095,-426.624 L 145.88,-426.469
 L 145.648,-426.341 L 145.402,-426.244 L 145.145,-426.178 L 144.882,-426.145 z
" stroke="black" fill="lightgray" stroke-width="0.5"/>
</svg>
