<?xml version="1.0" standalone="no"?>
<!DOCTYPE svg PUBLIC "-//W3C//DTD SVG 1.1//EN" "http://www.w3.org/Graphics/SVG/1.1/DTD/svg11.dtd">
<svg width="300mm" height="86mm" viewBox="-150 -169 300 86" xmlns="http://www.w3.org/2000/svg" version="1.1">
<title>OpenSCAD Model</title>
<path d="
M 145.937,-146.339 L 146.545,-146.495 L 147.129,-146.726 L 147.679,-147.028 L 148.187,-147.397 L 148.645,-147.827
 L 149.045,-148.311 L 149.382,-148.841 L 149.649,-149.409 L 149.843,-150.007 L 149.961,-150.623 L 150,-151.25
 L 150,-163.75 L 149.961,-164.377 L 149.843,-164.993 L 149.649,-165.591 L 149.382,-166.159 L 149.045,-166.689
 L 148.645,-167.173 L 148.187,-167.603 L 147.679,-167.972 L 147.129,-168.274 L 146.545,-168.505 L 145.937,-168.661
 L 145.314,-168.74 L -145.314,-168.74 L -145.937,-168.661 L -146.545,-168.505 L -147.129,-168.274 L -147.679,-167.972
 L -148.187,-167.603 L -148.645,-167.173 L -149.045,-166.689 L -149.382,-166.159 L -149.649,-165.591 L -149.843,-164.993
 L -149.961,-164.377 L -150,-163.75 L -150,-151.25 L -149.961,-150.623 L -149.843,-150.007 L -149.649,-149.409
 L -149.382,-148.841 L -149.045,-148.311 L -148.645,-147.827 L -148.187,-147.397 L -147.679,-147.028 L -147.129,-146.726
 L -146.545,-146.495 L -145.937,-146.339 L -145.314,-146.26 L 145.314,-146.26 z
M -145.048,-146.759 L -145.64,-146.834 L -146.218,-146.982 L -146.772,-147.202 L -147.295,-147.489 L -147.778,-147.84
 L -148.213,-148.248 L -148.593,-148.708 L -148.912,-149.212 L -149.166,-149.751 L -149.351,-150.319 L -149.463,-150.905
 L -149.5,-151.5 L -149.5,-163.5 L -149.463,-164.095 L -149.351,-164.681 L -149.166,-165.249 L -148.912,-165.788
 L -148.593,-166.292 L -148.213,-166.752 L -147.778,-167.16 L -147.295,-167.511 L -146.772,-167.798 L -146.218,-168.018
 L -145.64,-168.166 L -145.048,-168.241 L 145.048,-168.241 L 145.64,-168.166 L 146.218,-168.018 L 146.772,-167.798
 L 147.295,-167.511 L 147.778,-167.16 L 148.213,-166.752 L 148.593,-166.292 L 148.912,-165.788 L 149.166,-165.249
 L 149.351,-164.681 L 149.463,-164.095 L 149.5,-163.5 L 149.5,-151.5 L 149.463,-150.905 L 149.351,-150.319
 L 149.166,-149.751 L 148.912,-149.212 L 148.593,-148.708 L 148.213,-148.248 L 147.778,-147.84 L 147.295,-147.489
 L 146.772,-147.202 L 146.218,-146.982 L 145.64,-146.834 L 145.048,-146.759 z
M 145.937,-114.839 L 146.545,-114.995 L 147.129,-115.226 L 147.679,-115.528 L 148.187,-115.897 L 148.645,-116.327
 L 149.045,-116.811 L 149.382,-117.341 L 149.649,-117.909 L 149.843,-118.507 L 149.961,-119.123 L 150,-119.75
 L 150,-132.25 L 149.961,-132.877 L 149.843,-133.493 L 149.649,-134.091 L 149.382,-134.659 L 149.045,-135.189
 L 148.645,-135.673 L 148.187,-136.103 L 147.679,-136.472 L 147.129,-136.774 L 146.545,-137.005 L 145.937,-137.161
 L 145.314,-137.24 L -145.314,-137.24 L -145.937,-137.161 L -146.545,-137.005 L -147.129,-136.774 L -147.679,-136.472
 L -148.187,-136.103 L -148.645,-135.673 L -149.045,-135.189 L -149.382,-134.659 L -149.649,-134.091 L -149.843,-133.493
 L -149.961,-132.877 L -150,-132.25 L -150,-119.75 L -149.961,-119.123 L -149.843,-118.507 L -149.649,-117.909
 L -149.382,-117.341 L -149.045,-116.811 L -148.645,-116.327 L -148.187,-115.897 L -147.679,-115.528 L -147.129,-115.226
 L -146.545,-114.995 L -145.937,-114.839 L -145.314,-114.76 L 145.314,-114.76 z
M -145.037,-115.431 L -145.608,-115.503 L -146.165,-115.646 L -146.699,-115.857 L -147.203,-116.134 L -147.668,-116.472
 L -148.088,-116.866 L -148.454,-117.309 L -148.762,-117.794 L -149.007,-118.315 L -149.185,-118.861 L -149.292,-119.426
 L -149.328,-120 L -149.328,-132 L -149.292,-132.574 L -149.185,-133.139 L -149.007,-133.685 L -148.762,-134.206
 L -148.454,-134.691 L -148.088,-135.134 L -147.668,-135.528 L -147.203,-135.866 L -146.699,-136.143 L -146.165,-136.354
 L -145.608,-136.497 L -145.037,-136.569 L 145.037,-136.569 L 145.608,-136.497 L 146.165,-136.354 L 146.699,-136.143
 L 147.203,-135.866 L 147.668,-135.528 L 148.088,-135.134 L 148.454,-134.691 L 148.762,-134.206 L 149.007,-133.685
 L 149.185,-133.139 L 149.292,-132.574 L 149.328,-132 L 149.328,-120 L 149.292,-119.426 L 149.185,-118.861
 L 149.007,-118.315 L 148.762,-117.794 L 148.454,-117.309 L 148.088,-116.866 L 147.668,-116.472 L 147.203,-116.134
 L 146.699,-115.857 L 146.165,-115.646 L 145.608,-115.503 L 145.037,-115.431 z
M 145.937,-83.3386 L 146.545,-83.4947 L 147.129,-83.7259 L 147.679,-84.0284 L 148.187,-84.3974 L 148.645,-84.8273
 L 149.045,-85.3111 L 149.382,-85.8412 L 149.649,-86.4094 L 149.843,-87.0066 L 149.961,-87.6233 L 150,-88.25
 L 150,-100.75 L 149.961,-101.377 L 149.843,-101.993 L 149.649,-102.591 L 149.382,-103.159 L 149.045,-103.689
 L 148.645,-104.173 L 148.187,-104.603 L 147.679,-104.972 L 147.129,-105.274 L 146.545,-105.505 L 145.937,-105.661
 L 145.314,-105.74 L -145.314,-105.74 L -145.937,-105.661 L -146.545,-105.505 L -147.129,-105.274 L -147.679,-104.972
 L -148.187,-104.603 L -148.645,-104.173 L -149.045,-103.689 L -149.382,-103.159 L -149.649,-102.591 L -149.843,-101.993
 L -149.961,-101.377 L -150,-100.75 L -150,-88.25 L -149.961,-87.6233 L -149.843,-87.0066 L -149.649,-86.4094
 L -149.382,-85.8412 L -149.045,-85.3111 L -148.645,-84.8273 L -148.187,-84.3974 L -147.679,-84.0284 L -147.129,-83.7259
 L -146.545,-83.4947 L -145.937,-83.3386 L -145.314,-83.2599 L 145.314,-83.2599 z
M -144.882,-86.3945 L -145.145,-86.4277 L -145.402,-86.4936 L -145.648,-86.5912 L -145.88,-86.7188 L -146.095,-86.8745
 L -146.288,-87.0559 L -146.457,-87.26 L -146.599,-87.4837 L -146.711,-87.7234 L -146.793,-87.9754 L -146.843,-88.2356
 L -146.86,-88.5 L -146.86,-100.5 L -146.843,-100.764 L -146.793,-101.025 L -146.711,-101.277 L -146.599,-101.516
 L -146.457,-101.74 L -146.288,-101.944 L -146.095,-102.125 L -145.88,-102.281 L -145.648,-102.409 L -145.402,-102.506
 L -145.145,-102.572 L -144.882,-102.605 L 144.882,-102.605 L 145.145,-102.572 L 145.402,-102.506 L 145.648,-102.409
 L 145.88,-102.281 L 146.095,-102.125 L 146.288,-101.944 L 146.457,-101.74 L 146.599,-101.516 L 146.711,-101.277
 L 146.793,-101.025 L 146.843,-100.764 L 146.86,-100.5 L 146.86,-88.5 L 146.843,-88.2356 L 146.793,-87.9754
 L 146.711,-87.7234 L 146.599,-87.4837 L 146.457,-87.26 L 146.288,-87.0559 L 146.095,-86.8745 L 145.88,-86.7188
 L 145.648,-86.5912 L 145.402,-86.4936 L 145.145,-86.4277 L 144.882,-86.3945 z
" stroke="black" fill="lightgray" stroke-width="0.5"/>
</svg>
