  0
SECTION
  2
BLOCKS
  0
ENDSEC
  0
SECTION
  2
ENTITIES
  0
LINE
  8
0
 10
145.937
 20
146.339
 11
146.545
 21
146.495
  0
LINE
  8
0
 10
146.545
 20
146.495
 11
147.129
 21
146.726
  0
LINE
  8
0
 10
147.129
 20
146.726
 11
147.679
 21
147.028
  0
LINE
  8
0
 10
147.679
 20
147.028
 11
148.187
 21
147.397
  0
LINE
  8
0
 10
148.187
 20
147.397
 11
148.645
 21
147.827
  0
LINE
  8
0
 10
148.645
 20
147.827
 11
149.045
 21
148.311
  0
LINE
  8
0
 10
149.045
 20
148.311
 11
149.382
 21
148.841
  0
LINE
  8
0
 10
149.382
 20
148.841
 11
149.649
 21
149.409
  0
LINE
  8
0
 10
149.649
 20
149.409
 11
149.843
 21
150.007
  0
LINE
  8
0
 10
149.843
 20
150.007
 11
149.961
 21
150.623
  0
LINE
  8
0
 10
149.961
 20
150.623
 11
150
 21
151.25
  0
LINE
  8
0
 10
150
 20
151.25
 11
150
 21
163.75
  0
LINE
  8
0
 10
150
 20
163.75
 11
149.961
 21
164.377
  0
LINE
  8
0
 10
149.961
 20
164.377
 11
149.843
 21
164.993
  0
LINE
  8
0
 10
149.843
 20
164.993
 11
149.649
 21
165.591
  0
LINE
  8
0
 10
149.649
 20
165.591
 11
149.382
 21
166.159
  0
LINE
  8
0
 10
149.382
 20
166.159
 11
149.045
 21
166.689
  0
LINE
  8
0
 10
149.045
 20
166.689
 11
148.645
 21
167.173
  0
LINE
  8
0
 10
148.645
 20
167.173
 11
148.187
 21
167.603
  0
LINE
  8
0
 10
148.187
 20
167.603
 11
147.679
 21
167.972
  0
LINE
  8
0
 10
147.679
 20
167.972
 11
147.129
 21
168.274
  0
LINE
  8
0
 10
147.129
 20
168.274
 11
146.545
 21
168.505
  0
LINE
  8
0
 10
146.545
 20
168.505
 11
145.937
 21
168.661
  0
LINE
  8
0
 10
145.937
 20
168.661
 11
145.314
 21
168.74
  0
LINE
  8
0
 10
145.314
 20
168.74
 11
-145.314
 21
168.74
  0
LINE
  8
0
 10
-145.314
 20
168.74
 11
-145.937
 21
168.661
  0
LINE
  8
0
 10
-145.937
 20
168.661
 11
-146.545
 21
168.505
  0
LINE
  8
0
 10
-146.545
 20
168.505
 11
-147.129
 21
168.274
  0
LINE
  8
0
 10
-147.129
 20
168.274
 11
-147.679
 21
167.972
  0
LINE
  8
0
 10
-147.679
 20
167.972
 11
-148.187
 21
167.603
  0
LINE
  8
0
 10
-148.187
 20
167.603
 11
-148.645
 21
167.173
  0
LINE
  8
0
 10
-148.645
 20
167.173
 11
-149.045
 21
166.689
  0
LINE
  8
0
 10
-149.045
 20
166.689
 11
-149.382
 21
166.159
  0
LINE
  8
0
 10
-149.382
 20
166.159
 11
-149.649
 21
165.591
  0
LINE
  8
0
 10
-149.649
 20
165.591
 11
-149.843
 21
164.993
  0
LINE
  8
0
 10
-149.843
 20
164.993
 11
-149.961
 21
164.377
  0
LINE
  8
0
 10
-149.961
 20
164.377
 11
-150
 21
163.75
  0
LINE
  8
0
 10
-150
 20
163.75
 11
-150
 21
151.25
  0
LINE
  8
0
 10
-150
 20
151.25
 11
-149.961
 21
150.623
  0
LINE
  8
0
 10
-149.961
 20
150.623
 11
-149.843
 21
150.007
  0
LINE
  8
0
 10
-149.843
 20
150.007
 11
-149.649
 21
149.409
  0
LINE
  8
0
 10
-149.649
 20
149.409
 11
-149.382
 21
148.841
  0
LINE
  8
0
 10
-149.382
 20
148.841
 11
-149.045
 21
148.311
  0
LINE
  8
0
 10
-149.045
 20
148.311
 11
-148.645
 21
147.827
  0
LINE
  8
0
 10
-148.645
 20
147.827
 11
-148.187
 21
147.397
  0
LINE
  8
0
 10
-148.187
 20
147.397
 11
-147.679
 21
147.028
  0
LINE
  8
0
 10
-147.679
 20
147.028
 11
-147.129
 21
146.726
  0
LINE
  8
0
 10
-147.129
 20
146.726
 11
-146.545
 21
146.495
  0
LINE
  8
0
 10
-146.545
 20
146.495
 11
-145.937
 21
146.339
  0
LINE
  8
0
 10
-145.937
 20
146.339
 11
-145.314
 21
146.26
  0
LINE
  8
0
 10
-145.314
 20
146.26
 11
145.314
 21
146.26
  0
LINE
  8
0
 10
145.314
 20
146.26
 11
145.937
 21
146.339
  0
LINE
  8
0
 10
-145.048
 20
146.759
 11
-145.64
 21
146.834
  0
LINE
  8
0
 10
-145.64
 20
146.834
 11
-146.218
 21
146.982
  0
LINE
  8
0
 10
-146.218
 20
146.982
 11
-146.772
 21
147.202
  0
LINE
  8
0
 10
-146.772
 20
147.202
 11
-147.295
 21
147.489
  0
LINE
  8
0
 10
-147.295
 20
147.489
 11
-147.778
 21
147.84
  0
LINE
  8
0
 10
-147.778
 20
147.84
 11
-148.213
 21
148.248
  0
LINE
  8
0
 10
-148.213
 20
148.248
 11
-148.593
 21
148.708
  0
LINE
  8
0
 10
-148.593
 20
148.708
 11
-148.912
 21
149.212
  0
LINE
  8
0
 10
-148.912
 20
149.212
 11
-149.166
 21
149.751
  0
LINE
  8
0
 10
-149.166
 20
149.751
 11
-149.351
 21
150.319
  0
LINE
  8
0
 10
-149.351
 20
150.319
 11
-149.463
 21
150.905
  0
LINE
  8
0
 10
-149.463
 20
150.905
 11
-149.5
 21
151.5
  0
LINE
  8
0
 10
-149.5
 20
151.5
 11
-149.5
 21
163.5
  0
LINE
  8
0
 10
-149.5
 20
163.5
 11
-149.463
 21
164.095
  0
LINE
  8
0
 10
-149.463
 20
164.095
 11
-149.351
 21
164.681
  0
LINE
  8
0
 10
-149.351
 20
164.681
 11
-149.166
 21
165.249
  0
LINE
  8
0
 10
-149.166
 20
165.249
 11
-148.912
 21
165.788
  0
LINE
  8
0
 10
-148.912
 20
165.788
 11
-148.593
 21
166.292
  0
LINE
  8
0
 10
-148.593
 20
166.292
 11
-148.213
 21
166.752
  0
LINE
  8
0
 10
-148.213
 20
166.752
 11
-147.778
 21
167.16
  0
LINE
  8
0
 10
-147.778
 20
167.16
 11
-147.295
 21
167.511
  0
LINE
  8
0
 10
-147.295
 20
167.511
 11
-146.772
 21
167.798
  0
LINE
  8
0
 10
-146.772
 20
167.798
 11
-146.218
 21
168.018
  0
LINE
  8
0
 10
-146.218
 20
168.018
 11
-145.64
 21
168.166
  0
LINE
  8
0
 10
-145.64
 20
168.166
 11
-145.048
 21
168.241
  0
LINE
  8
0
 10
-145.048
 20
168.241
 11
145.048
 21
168.241
  0
LINE
  8
0
 10
145.048
 20
168.241
 11
145.64
 21
168.166
  0
LINE
  8
0
 10
145.64
 20
168.166
 11
146.218
 21
168.018
  0
LINE
  8
0
 10
146.218
 20
168.018
 11
146.772
 21
167.798
  0
LINE
  8
0
 10
146.772
 20
167.798
 11
147.295
 21
167.511
  0
LINE
  8
0
 10
147.295
 20
167.511
 11
147.778
 21
167.16
  0
LINE
  8
0
 10
147.778
 20
167.16
 11
148.213
 21
166.752
  0
LINE
  8
0
 10
148.213
 20
166.752
 11
148.593
 21
166.292
  0
LINE
  8
0
 10
148.593
 20
166.292
 11
148.912
 21
165.788
  0
LINE
  8
0
 10
148.912
 20
165.788
 11
149.166
 21
165.249
  0
LINE
  8
0
 10
149.166
 20
165.249
 11
149.351
 21
164.681
  0
LINE
  8
0
 10
149.351
 20
164.681
 11
149.463
 21
164.095
  0
LINE
  8
0
 10
149.463
 20
164.095
 11
149.5
 21
163.5
  0
LINE
  8
0
 10
149.5
 20
163.5
 11
149.5
 21
151.5
  0
LINE
  8
0
 10
149.5
 20
151.5
 11
149.463
 21
150.905
  0
LINE
  8
0
 10
149.463
 20
150.905
 11
149.351
 21
150.319
  0
LINE
  8
0
 10
149.351
 20
150.319
 11
149.166
 21
149.751
  0
LINE
  8
0
 10
149.166
 20
149.751
 11
148.912
 21
149.212
  0
LINE
  8
0
 10
148.912
 20
149.212
 11
148.593
 21
148.708
  0
LINE
  8
0
 10
148.593
 20
148.708
 11
148.213
 21
148.248
  0
LINE
  8
0
 10
148.213
 20
148.248
 11
147.778
 21
147.84
  0
LINE
  8
0
 10
147.778
 20
147.84
 11
147.295
 21
147.489
  0
LINE
  8
0
 10
147.295
 20
147.489
 11
146.772
 21
147.202
  0
LINE
  8
0
 10
146.772
 20
147.202
 11
146.218
 21
146.982
  0
LINE
  8
0
 10
146.218
 20
146.982
 11
145.64
 21
146.834
  0
LINE
  8
0
 10
145.64
 20
146.834
 11
145.048
 21
146.759
  0
LINE
  8
0
 10
145.048
 20
146.759
 11
-145.048
 21
146.759
  0
LINE
  8
0
 10
145.937
 20
114.839
 11
146.545
 21
114.995
  0
LINE
  8
0
 10
146.545
 20
114.995
 11
147.129
 21
115.226
  0
LINE
  8
0
 10
147.129
 20
115.226
 11
147.679
 21
115.528
  0
LINE
  8
0
 10
147.679
 20
115.528
 11
148.187
 21
115.897
  0
LINE
  8
0
 10
148.187
 20
115.897
 11
148.645
 21
116.327
  0
LINE
  8
0
 10
148.645
 20
116.327
 11
149.045
 21
116.811
  0
LINE
  8
0
 10
149.045
 20
116.811
 11
149.382
 21
117.341
  0
LINE
  8
0
 10
149.382
 20
117.341
 11
149.649
 21
117.909
  0
LINE
  8
0
 10
149.649
 20
117.909
 11
149.843
 21
118.507
  0
LINE
  8
0
 10
149.843
 20
118.507
 11
149.961
 21
119.123
  0
LINE
  8
0
 10
149.961
 20
119.123
 11
150
 21
119.75
  0
LINE
  8
0
 10
150
 20
119.75
 11
150
 21
132.25
  0
LINE
  8
0
 10
150
 20
132.25
 11
149.961
 21
132.877
  0
LINE
  8
0
 10
149.961
 20
132.877
 11
149.843
 21
133.493
  0
LINE
  8
0
 10
149.843
 20
133.493
 11
149.649
 21
134.091
  0
LINE
  8
0
 10
149.649
 20
134.091
 11
149.382
 21
134.659
  0
LINE
  8
0
 10
149.382
 20
134.659
 11
149.045
 21
135.189
  0
LINE
  8
0
 10
149.045
 20
135.189
 11
148.645
 21
135.673
  0
LINE
  8
0
 10
148.645
 20
135.673
 11
148.187
 21
136.103
  0
LINE
  8
0
 10
148.187
 20
136.103
 11
147.679
 21
136.472
  0
LINE
  8
0
 10
147.679
 20
136.472
 11
147.129
 21
136.774
  0
LINE
  8
0
 10
147.129
 20
136.774
 11
146.545
 21
137.005
  0
LINE
  8
0
 10
146.545
 20
137.005
 11
145.937
 21
137.161
  0
LINE
  8
0
 10
145.937
 20
137.161
 11
145.314
 21
137.24
  0
LINE
  8
0
 10
145.314
 20
137.24
 11
-145.314
 21
137.24
  0
LINE
  8
0
 10
-145.314
 20
137.24
 11
-145.937
 21
137.161
  0
LINE
  8
0
 10
-145.937
 20
137.161
 11
-146.545
 21
137.005
  0
LINE
  8
0
 10
-146.545
 20
137.005
 11
-147.129
 21
136.774
  0
LINE
  8
0
 10
-147.129
 20
136.774
 11
-147.679
 21
136.472
  0
LINE
  8
0
 10
-147.679
 20
136.472
 11
-148.187
 21
136.103
  0
LINE
  8
0
 10
-148.187
 20
136.103
 11
-148.645
 21
135.673
  0
LINE
  8
0
 10
-148.645
 20
135.673
 11
-149.045
 21
135.189
  0
LINE
  8
0
 10
-149.045
 20
135.189
 11
-149.382
 21
134.659
  0
LINE
  8
0
 10
-149.382
 20
134.659
 11
-149.649
 21
134.091
  0
LINE
  8
0
 10
-149.649
 20
134.091
 11
-149.843
 21
133.493
  0
LINE
  8
0
 10
-149.843
 20
133.493
 11
-149.961
 21
132.877
  0
LINE
  8
0
 10
-149.961
 20
132.877
 11
-150
 21
132.25
  0
LINE
  8
0
 10
-150
 20
132.25
 11
-150
 21
119.75
  0
LINE
  8
0
 10
-150
 20
119.75
 11
-149.961
 21
119.123
  0
LINE
  8
0
 10
-149.961
 20
119.123
 11
-149.843
 21
118.507
  0
LINE
  8
0
 10
-149.843
 20
118.507
 11
-149.649
 21
117.909
  0
LINE
  8
0
 10
-149.649
 20
117.909
 11
-149.382
 21
117.341
  0
LINE
  8
0
 10
-149.382
 20
117.341
 11
-149.045
 21
116.811
  0
LINE
  8
0
 10
-149.045
 20
116.811
 11
-148.645
 21
116.327
  0
LINE
  8
0
 10
-148.645
 20
116.327
 11
-148.187
 21
115.897
  0
LINE
  8
0
 10
-148.187
 20
115.897
 11
-147.679
 21
115.528
  0
LINE
  8
0
 10
-147.679
 20
115.528
 11
-147.129
 21
115.226
  0
LINE
  8
0
 10
-147.129
 20
115.226
 11
-146.545
 21
114.995
  0
LINE
  8
0
 10
-146.545
 20
114.995
 11
-145.937
 21
114.839
  0
LINE
  8
0
 10
-145.937
 20
114.839
 11
-145.314
 21
114.76
  0
LINE
  8
0
 10
-145.314
 20
114.76
 11
145.314
 21
114.76
  0
LINE
  8
0
 10
145.314
 20
114.76
 11
145.937
 21
114.839
  0
LINE
  8
0
 10
-145.037
 20
115.431
 11
-145.608
 21
115.503
  0
LINE
  8
0
 10
-145.608
 20
115.503
 11
-146.165
 21
115.646
  0
LINE
  8
0
 10
-146.165
 20
115.646
 11
-146.699
 21
115.857
  0
LINE
  8
0
 10
-146.699
 20
115.857
 11
-147.203
 21
116.134
  0
LINE
  8
0
 10
-147.203
 20
116.134
 11
-147.668
 21
116.472
  0
LINE
  8
0
 10
-147.668
 20
116.472
 11
-148.088
 21
116.866
  0
LINE
  8
0
 10
-148.088
 20
116.866
 11
-148.454
 21
117.309
  0
LINE
  8
0
 10
-148.454
 20
117.309
 11
-148.762
 21
117.794
  0
LINE
  8
0
 10
-148.762
 20
117.794
 11
-149.007
 21
118.315
  0
LINE
  8
0
 10
-149.007
 20
118.315
 11
-149.185
 21
118.861
  0
LINE
  8
0
 10
-149.185
 20
118.861
 11
-149.292
 21
119.426
  0
LINE
  8
0
 10
-149.292
 20
119.426
 11
-149.328
 21
120
  0
LINE
  8
0
 10
-149.328
 20
120
 11
-149.328
 21
132
  0
LINE
  8
0
 10
-149.328
 20
132
 11
-149.292
 21
132.574
  0
LINE
  8
0
 10
-149.292
 20
132.574
 11
-149.185
 21
133.139
  0
LINE
  8
0
 10
-149.185
 20
133.139
 11
-149.007
 21
133.685
  0
LINE
  8
0
 10
-149.007
 20
133.685
 11
-148.762
 21
134.206
  0
LINE
  8
0
 10
-148.762
 20
134.206
 11
-148.454
 21
134.691
  0
LINE
  8
0
 10
-148.454
 20
134.691
 11
-148.088
 21
135.134
  0
LINE
  8
0
 10
-148.088
 20
135.134
 11
-147.668
 21
135.528
  0
LINE
  8
0
 10
-147.668
 20
135.528
 11
-147.203
 21
135.866
  0
LINE
  8
0
 10
-147.203
 20
135.866
 11
-146.699
 21
136.143
  0
LINE
  8
0
 10
-146.699
 20
136.143
 11
-146.165
 21
136.354
  0
LINE
  8
0
 10
-146.165
 20
136.354
 11
-145.608
 21
136.497
  0
LINE
  8
0
 10
-145.608
 20
136.497
 11
-145.037
 21
136.569
  0
LINE
  8
0
 10
-145.037
 20
136.569
 11
145.037
 21
136.569
  0
LINE
  8
0
 10
145.037
 20
136.569
 11
145.608
 21
136.497
  0
LINE
  8
0
 10
145.608
 20
136.497
 11
146.165
 21
136.354
  0
LINE
  8
0
 10
146.165
 20
136.354
 11
146.699
 21
136.143
  0
LINE
  8
0
 10
146.699
 20
136.143
 11
147.203
 21
135.866
  0
LINE
  8
0
 10
147.203
 20
135.866
 11
147.668
 21
135.528
  0
LINE
  8
0
 10
147.668
 20
135.528
 11
148.088
 21
135.134
  0
LINE
  8
0
 10
148.088
 20
135.134
 11
148.454
 21
134.691
  0
LINE
  8
0
 10
148.454
 20
134.691
 11
148.762
 21
134.206
  0
LINE
  8
0
 10
148.762
 20
134.206
 11
149.007
 21
133.685
  0
LINE
  8
0
 10
149.007
 20
133.685
 11
149.185
 21
133.139
  0
LINE
  8
0
 10
149.185
 20
133.139
 11
149.292
 21
132.574
  0
LINE
  8
0
 10
149.292
 20
132.574
 11
149.328
 21
132
  0
LINE
  8
0
 10
149.328
 20
132
 11
149.328
 21
120
  0
LINE
  8
0
 10
149.328
 20
120
 11
149.292
 21
119.426
  0
LINE
  8
0
 10
149.292
 20
119.426
 11
149.185
 21
118.861
  0
LINE
  8
0
 10
149.185
 20
118.861
 11
149.007
 21
118.315
  0
LINE
  8
0
 10
149.007
 20
118.315
 11
148.762
 21
117.794
  0
LINE
  8
0
 10
148.762
 20
117.794
 11
148.454
 21
117.309
  0
LINE
  8
0
 10
148.454
 20
117.309
 11
148.088
 21
116.866
  0
LINE
  8
0
 10
148.088
 20
116.866
 11
147.668
 21
116.472
  0
LINE
  8
0
 10
147.668
 20
116.472
 11
147.203
 21
116.134
  0
LINE
  8
0
 10
147.203
 20
116.134
 11
146.699
 21
115.857
  0
LINE
  8
0
 10
146.699
 20
115.857
 11
146.165
 21
115.646
  0
LINE
  8
0
 10
146.165
 20
115.646
 11
145.608
 21
115.503
  0
LINE
  8
0
 10
145.608
 20
115.503
 11
145.037
 21
115.431
  0
LINE
  8
0
 10
145.037
 20
115.431
 11
-145.037
 21
115.431
  0
LINE
  8
0
 10
145.937
 20
83.3386
 11
146.545
 21
83.4947
  0
LINE
  8
0
 10
146.545
 20
83.4947
 11
147.129
 21
83.7259
  0
LINE
  8
0
 10
147.129
 20
83.7259
 11
147.679
 21
84.0284
  0
LINE
  8
0
 10
147.679
 20
84.0284
 11
148.187
 21
84.3974
  0
LINE
  8
0
 10
148.187
 20
84.3974
 11
148.645
 21
84.8273
  0
LINE
  8
0
 10
148.645
 20
84.8273
 11
149.045
 21
85.3111
  0
LINE
  8
0
 10
149.045
 20
85.3111
 11
149.382
 21
85.8412
  0
LINE
  8
0
 10
149.382
 20
85.8412
 11
149.649
 21
86.4094
  0
LINE
  8
0
 10
149.649
 20
86.4094
 11
149.843
 21
87.0066
  0
LINE
  8
0
 10
149.843
 20
87.0066
 11
149.961
 21
87.6233
  0
LINE
  8
0
 10
149.961
 20
87.6233
 11
150
 21
88.25
  0
LINE
  8
0
 10
150
 20
88.25
 11
150
 21
100.75
  0
LINE
  8
0
 10
150
 20
100.75
 11
149.961
 21
101.377
  0
LINE
  8
0
 10
149.961
 20
101.377
 11
149.843
 21
101.993
  0
LINE
  8
0
 10
149.843
 20
101.993
 11
149.649
 21
102.591
  0
LINE
  8
0
 10
149.649
 20
102.591
 11
149.382
 21
103.159
  0
LINE
  8
0
 10
149.382
 20
103.159
 11
149.045
 21
103.689
  0
LINE
  8
0
 10
149.045
 20
103.689
 11
148.645
 21
104.173
  0
LINE
  8
0
 10
148.645
 20
104.173
 11
148.187
 21
104.603
  0
LINE
  8
0
 10
148.187
 20
104.603
 11
147.679
 21
104.972
  0
LINE
  8
0
 10
147.679
 20
104.972
 11
147.129
 21
105.274
  0
LINE
  8
0
 10
147.129
 20
105.274
 11
146.545
 21
105.505
  0
LINE
  8
0
 10
146.545
 20
105.505
 11
145.937
 21
105.661
  0
LINE
  8
0
 10
145.937
 20
105.661
 11
145.314
 21
105.74
  0
LINE
  8
0
 10
145.314
 20
105.74
 11
-145.314
 21
105.74
  0
LINE
  8
0
 10
-145.314
 20
105.74
 11
-145.937
 21
105.661
  0
LINE
  8
0
 10
-145.937
 20
105.661
 11
-146.545
 21
105.505
  0
LINE
  8
0
 10
-146.545
 20
105.505
 11
-147.129
 21
105.274
  0
LINE
  8
0
 10
-147.129
 20
105.274
 11
-147.679
 21
104.972
  0
LINE
  8
0
 10
-147.679
 20
104.972
 11
-148.187
 21
104.603
  0
LINE
  8
0
 10
-148.187
 20
104.603
 11
-148.645
 21
104.173
  0
LINE
  8
0
 10
-148.645
 20
104.173
 11
-149.045
 21
103.689
  0
LINE
  8
0
 10
-149.045
 20
103.689
 11
-149.382
 21
103.159
  0
LINE
  8
0
 10
-149.382
 20
103.159
 11
-149.649
 21
102.591
  0
LINE
  8
0
 10
-149.649
 20
102.591
 11
-149.843
 21
101.993
  0
LINE
  8
0
 10
-149.843
 20
101.993
 11
-149.961
 21
101.377
  0
LINE
  8
0
 10
-149.961
 20
101.377
 11
-150
 21
100.75
  0
LINE
  8
0
 10
-150
 20
100.75
 11
-150
 21
88.25
  0
LINE
  8
0
 10
-150
 20
88.25
 11
-149.961
 21
87.6233
  0
LINE
  8
0
 10
-149.961
 20
87.6233
 11
-149.843
 21
87.0066
  0
LINE
  8
0
 10
-149.843
 20
87.0066
 11
-149.649
 21
86.4094
  0
LINE
  8
0
 10
-149.649
 20
86.4094
 11
-149.382
 21
85.8412
  0
LINE
  8
0
 10
-149.382
 20
85.8412
 11
-149.045
 21
85.3111
  0
LINE
  8
0
 10
-149.045
 20
85.3111
 11
-148.645
 21
84.8273
  0
LINE
  8
0
 10
-148.645
 20
84.8273
 11
-148.187
 21
84.3974
  0
LINE
  8
0
 10
-148.187
 20
84.3974
 11
-147.679
 21
84.0284
  0
LINE
  8
0
 10
-147.679
 20
84.0284
 11
-147.129
 21
83.7259
  0
LINE
  8
0
 10
-147.129
 20
83.7259
 11
-146.545
 21
83.4947
  0
LINE
  8
0
 10
-146.545
 20
83.4947
 11
-145.937
 21
83.3386
  0
LINE
  8
0
 10
-145.937
 20
83.3386
 11
-145.314
 21
83.2599
  0
LINE
  8
0
 10
-145.314
 20
83.2599
 11
145.314
 21
83.2599
  0
LINE
  8
0
 10
145.314
 20
83.2599
 11
145.937
 21
83.3386
  0
LINE
  8
0
 10
-144.882
 20
86.3945
 11
-145.145
 21
86.4277
  0
LINE
  8
0
 10
-145.145
 20
86.4277
 11
-145.402
 21
86.4936
  0
LINE
  8
0
 10
-145.402
 20
86.4936
 11
-145.648
 21
86.5912
  0
LINE
  8
0
 10
-145.648
 20
86.5912
 11
-145.88
 21
86.7188
  0
LINE
  8
0
 10
-145.88
 20
86.7188
 11
-146.095
 21
86.8745
  0
LINE
  8
0
 10
-146.095
 20
86.8745
 11
-146.288
 21
87.0559
  0
LINE
  8
0
 10
-146.288
 20
87.0559
 11
-146.457
 21
87.26
  0
LINE
  8
0
 10
-146.457
 20
87.26
 11
-146.599
 21
87.4837
  0
LINE
  8
0
 10
-146.599
 20
87.4837
 11
-146.711
 21
87.7234
  0
LINE
  8
0
 10
-146.711
 20
87.7234
 11
-146.793
 21
87.9754
  0
LINE
  8
0
 10
-146.793
 20
87.9754
 11
-146.843
 21
88.2356
  0
LINE
  8
0
 10
-146.843
 20
88.2356
 11
-146.86
 21
88.5
  0
LINE
  8
0
 10
-146.86
 20
88.5
 11
-146.86
 21
100.5
  0
LINE
  8
0
 10
-146.86
 20
100.5
 11
-146.843
 21
100.764
  0
LINE
  8
0
 10
-146.843
 20
100.764
 11
-146.793
 21
101.025
  0
LINE
  8
0
 10
-146.793
 20
101.025
 11
-146.711
 21
101.277
  0
LINE
  8
0
 10
-146.711
 20
101.277
 11
-146.599
 21
101.516
  0
LINE
  8
0
 10
-146.599
 20
101.516
 11
-146.457
 21
101.74
  0
LINE
  8
0
 10
-146.457
 20
101.74
 11
-146.288
 21
101.944
  0
LINE
  8
0
 10
-146.288
 20
101.944
 11
-146.095
 21
102.125
  0
LINE
  8
0
 10
-146.095
 20
102.125
 11
-145.88
 21
102.281
  0
LINE
  8
0
 10
-145.88
 20
102.281
 11
-145.648
 21
102.409
  0
LINE
  8
0
 10
-145.648
 20
102.409
 11
-145.402
 21
102.506
  0
LINE
  8
0
 10
-145.402
 20
102.506
 11
-145.145
 21
102.572
  0
LINE
  8
0
 10
-145.145
 20
102.572
 11
-144.882
 21
102.605
  0
LINE
  8
0
 10
-144.882
 20
102.605
 11
144.882
 21
102.605
  0
LINE
  8
0
 10
144.882
 20
102.605
 11
145.145
 21
102.572
  0
LINE
  8
0
 10
145.145
 20
102.572
 11
145.402
 21
102.506
  0
LINE
  8
0
 10
145.402
 20
102.506
 11
145.648
 21
102.409
  0
LINE
  8
0
 10
145.648
 20
102.409
 11
145.88
 21
102.281
  0
LINE
  8
0
 10
145.88
 20
102.281
 11
146.095
 21
102.125
  0
LINE
  8
0
 10
146.095
 20
102.125
 11
146.288
 21
101.944
  0
LINE
  8
0
 10
146.288
 20
101.944
 11
146.457
 21
101.74
  0
LINE
  8
0
 10
146.457
 20
101.74
 11
146.599
 21
101.516
  0
LINE
  8
0
 10
146.599
 20
101.516
 11
146.711
 21
101.277
  0
LINE
  8
0
 10
146.711
 20
101.277
 11
146.793
 21
101.025
  0
LINE
  8
0
 10
146.793
 20
101.025
 11
146.843
 21
100.764
  0
LINE
  8
0
 10
146.843
 20
100.764
 11
146.86
 21
100.5
  0
LINE
  8
0
 10
146.86
 20
100.5
 11
146.86
 21
88.5
  0
LINE
  8
0
 10
146.86
 20
88.5
 11
146.843
 21
88.2356
  0
LINE
  8
0
 10
146.843
 20
88.2356
 11
146.793
 21
87.9754
  0
LINE
  8
0
 10
146.793
 20
87.9754
 11
146.711
 21
87.7234
  0
LINE
  8
0
 10
146.711
 20
87.7234
 11
146.599
 21
87.4837
  0
LINE
  8
0
 10
146.599
 20
87.4837
 11
146.457
 21
87.26
  0
LINE
  8
0
 10
146.457
 20
87.26
 11
146.288
 21
87.0559
  0
LINE
  8
0
 10
146.288
 20
87.0559
 11
146.095
 21
86.8745
  0
LINE
  8
0
 10
146.095
 20
86.8745
 11
145.88
 21
86.7188
  0
LINE
  8
0
 10
145.88
 20
86.7188
 11
145.648
 21
86.5912
  0
LINE
  8
0
 10
145.648
 20
86.5912
 11
145.402
 21
86.4936
  0
LINE
  8
0
 10
145.402
 20
86.4936
 11
145.145
 21
86.4277
  0
LINE
  8
0
 10
145.145
 20
86.4277
 11
144.882
 21
86.3945
  0
LINE
  8
0
 10
144.882
 20
86.3945
 11
-144.882
 21
86.3945
  0
ENDSEC
  0
SECTION
  2
OBJECTS
  0
DICTIONARY
  0
ENDSEC
  0
EOF
