  0
SECTION
  2
BLOCKS
  0
ENDSEC
  0
SECTION
  2
ENTITIES
  0
LINE
  8
0
 10
-148.5
 20
880.441
 11
-148.187
 21
880.147
  0
LINE
  8
0
 10
-148.187
 20
880.147
 11
-147.679
 21
879.778
  0
LINE
  8
0
 10
-147.679
 20
879.778
 11
-147.129
 21
879.476
  0
LINE
  8
0
 10
-147.129
 20
879.476
 11
-146.545
 21
879.245
  0
LINE
  8
0
 10
-146.545
 20
879.245
 11
-145.937
 21
879.089
  0
LINE
  8
0
 10
-145.937
 20
879.089
 11
-145.314
 21
879.01
  0
LINE
  8
0
 10
-145.314
 20
879.01
 11
145.314
 21
879.01
  0
LINE
  8
0
 10
145.314
 20
879.01
 11
145.937
 21
879.089
  0
LINE
  8
0
 10
145.937
 20
879.089
 11
146.545
 21
879.245
  0
LINE
  8
0
 10
146.545
 20
879.245
 11
147.129
 21
879.476
  0
LINE
  8
0
 10
147.129
 20
879.476
 11
147.679
 21
879.778
  0
LINE
  8
0
 10
147.679
 20
879.778
 11
148.187
 21
880.147
  0
LINE
  8
0
 10
148.187
 20
880.147
 11
148.645
 21
880.577
  0
LINE
  8
0
 10
148.645
 20
880.577
 11
149.045
 21
881.061
  0
LINE
  8
0
 10
149.045
 20
881.061
 11
149.382
 21
881.591
  0
LINE
  8
0
 10
149.382
 20
881.591
 11
149.649
 21
882.159
  0
LINE
  8
0
 10
149.649
 20
882.159
 11
149.843
 21
882.757
  0
LINE
  8
0
 10
149.843
 20
882.757
 11
149.961
 21
883.373
  0
LINE
  8
0
 10
149.961
 20
883.373
 11
150
 21
884
  0
LINE
  8
0
 10
150
 20
884
 11
150
 21
1024
  0
LINE
  8
0
 10
150
 20
1024
 11
149.961
 21
1024.63
  0
LINE
  8
0
 10
149.961
 20
1024.63
 11
149.843
 21
1025.24
  0
LINE
  8
0
 10
149.843
 20
1025.24
 11
149.649
 21
1025.84
  0
LINE
  8
0
 10
149.649
 20
1025.84
 11
149.382
 21
1026.41
  0
LINE
  8
0
 10
149.382
 20
1026.41
 11
149.045
 21
1026.94
  0
LINE
  8
0
 10
149.045
 20
1026.94
 11
148.645
 21
1027.42
  0
LINE
  8
0
 10
148.645
 20
1027.42
 11
148.187
 21
1027.85
  0
LINE
  8
0
 10
148.187
 20
1027.85
 11
147.679
 21
1028.22
  0
LINE
  8
0
 10
147.679
 20
1028.22
 11
147.129
 21
1028.52
  0
LINE
  8
0
 10
147.129
 20
1028.52
 11
146.545
 21
1028.76
  0
LINE
  8
0
 10
146.545
 20
1028.76
 11
145.937
 21
1028.91
  0
LINE
  8
0
 10
145.937
 20
1028.91
 11
145.314
 21
1028.99
  0
LINE
  8
0
 10
145.314
 20
1028.99
 11
-145.314
 21
1028.99
  0
LINE
  8
0
 10
-145.314
 20
1028.99
 11
-145.937
 21
1028.91
  0
LINE
  8
0
 10
-145.937
 20
1028.91
 11
-146.545
 21
1028.76
  0
LINE
  8
0
 10
-146.545
 20
1028.76
 11
-147.129
 21
1028.52
  0
LINE
  8
0
 10
-147.129
 20
1028.52
 11
-147.679
 21
1028.22
  0
LINE
  8
0
 10
-147.679
 20
1028.22
 11
-148.187
 21
1027.85
  0
LINE
  8
0
 10
-148.187
 20
1027.85
 11
-148.5
 21
1027.56
  0
LINE
  8
0
 10
-148.5
 20
1027.56
 11
-148.5
 21
1028.99
  0
LINE
  8
0
 10
-148.5
 20
1028.99
 11
-151.5
 21
1028.99
  0
LINE
  8
0
 10
-151.5
 20
1028.99
 11
-151.5
 21
879.01
  0
LINE
  8
0
 10
-151.5
 20
879.01
 11
-148.5
 21
879.01
  0
LINE
  8
0
 10
-148.5
 20
879.01
 11
-148.5
 21
880.441
  0
LINE
  8
0
 10
-144.751
 20
880.508
 11
-145.25
 21
880.571
  0
LINE
  8
0
 10
-145.25
 20
880.571
 11
-145.736
 21
880.696
  0
LINE
  8
0
 10
-145.736
 20
880.696
 11
-146.203
 21
880.881
  0
LINE
  8
0
 10
-146.203
 20
880.881
 11
-146.643
 21
881.123
  0
LINE
  8
0
 10
-146.643
 20
881.123
 11
-147.05
 21
881.418
  0
LINE
  8
0
 10
-147.05
 20
881.418
 11
-147.416
 21
881.762
  0
LINE
  8
0
 10
-147.416
 20
881.762
 11
-147.736
 21
882.149
  0
LINE
  8
0
 10
-147.736
 20
882.149
 11
-148.005
 21
882.573
  0
LINE
  8
0
 10
-148.005
 20
882.573
 11
-148.219
 21
883.028
  0
LINE
  8
0
 10
-148.219
 20
883.028
 11
-148.374
 21
883.505
  0
LINE
  8
0
 10
-148.374
 20
883.505
 11
-148.468
 21
883.999
  0
LINE
  8
0
 10
-148.468
 20
883.999
 11
-148.5
 21
884.5
  0
LINE
  8
0
 10
-148.5
 20
884.5
 11
-148.5
 21
1023.5
  0
LINE
  8
0
 10
-148.5
 20
1023.5
 11
-148.468
 21
1024
  0
LINE
  8
0
 10
-148.468
 20
1024
 11
-148.374
 21
1024.49
  0
LINE
  8
0
 10
-148.374
 20
1024.49
 11
-148.219
 21
1024.97
  0
LINE
  8
0
 10
-148.219
 20
1024.97
 11
-148.005
 21
1025.43
  0
LINE
  8
0
 10
-148.005
 20
1025.43
 11
-147.736
 21
1025.85
  0
LINE
  8
0
 10
-147.736
 20
1025.85
 11
-147.416
 21
1026.24
  0
LINE
  8
0
 10
-147.416
 20
1026.24
 11
-147.05
 21
1026.58
  0
LINE
  8
0
 10
-147.05
 20
1026.58
 11
-146.643
 21
1026.88
  0
LINE
  8
0
 10
-146.643
 20
1026.88
 11
-146.203
 21
1027.12
  0
LINE
  8
0
 10
-146.203
 20
1027.12
 11
-145.736
 21
1027.3
  0
LINE
  8
0
 10
-145.736
 20
1027.3
 11
-145.25
 21
1027.43
  0
LINE
  8
0
 10
-145.25
 20
1027.43
 11
-144.751
 21
1027.49
  0
LINE
  8
0
 10
-144.751
 20
1027.49
 11
144.751
 21
1027.49
  0
LINE
  8
0
 10
144.751
 20
1027.49
 11
145.25
 21
1027.43
  0
LINE
  8
0
 10
145.25
 20
1027.43
 11
145.736
 21
1027.3
  0
LINE
  8
0
 10
145.736
 20
1027.3
 11
146.203
 21
1027.12
  0
LINE
  8
0
 10
146.203
 20
1027.12
 11
146.643
 21
1026.88
  0
LINE
  8
0
 10
146.643
 20
1026.88
 11
147.05
 21
1026.58
  0
LINE
  8
0
 10
147.05
 20
1026.58
 11
147.416
 21
1026.24
  0
LINE
  8
0
 10
147.416
 20
1026.24
 11
147.736
 21
1025.85
  0
LINE
  8
0
 10
147.736
 20
1025.85
 11
148.005
 21
1025.43
  0
LINE
  8
0
 10
148.005
 20
1025.43
 11
148.219
 21
1024.97
  0
LINE
  8
0
 10
148.219
 20
1024.97
 11
148.374
 21
1024.49
  0
LINE
  8
0
 10
148.374
 20
1024.49
 11
148.468
 21
1024
  0
LINE
  8
0
 10
148.468
 20
1024
 11
148.5
 21
1023.5
  0
LINE
  8
0
 10
148.5
 20
1023.5
 11
148.5
 21
884.5
  0
LINE
  8
0
 10
148.5
 20
884.5
 11
148.468
 21
883.999
  0
LINE
  8
0
 10
148.468
 20
883.999
 11
148.374
 21
883.505
  0
LINE
  8
0
 10
148.374
 20
883.505
 11
148.219
 21
883.028
  0
LINE
  8
0
 10
148.219
 20
883.028
 11
148.005
 21
882.573
  0
LINE
  8
0
 10
148.005
 20
882.573
 11
147.736
 21
882.149
  0
LINE
  8
0
 10
147.736
 20
882.149
 11
147.416
 21
881.762
  0
LINE
  8
0
 10
147.416
 20
881.762
 11
147.05
 21
881.418
  0
LINE
  8
0
 10
147.05
 20
881.418
 11
146.643
 21
881.123
  0
LINE
  8
0
 10
146.643
 20
881.123
 11
146.203
 21
880.881
  0
LINE
  8
0
 10
146.203
 20
880.881
 11
145.736
 21
880.696
  0
LINE
  8
0
 10
145.736
 20
880.696
 11
145.25
 21
880.571
  0
LINE
  8
0
 10
145.25
 20
880.571
 11
144.751
 21
880.508
  0
LINE
  8
0
 10
144.751
 20
880.508
 11
-144.751
 21
880.508
  0
LINE
  8
0
 10
-148.5
 20
721.441
 11
-148.187
 21
721.147
  0
LINE
  8
0
 10
-148.187
 20
721.147
 11
-147.679
 21
720.778
  0
LINE
  8
0
 10
-147.679
 20
720.778
 11
-147.129
 21
720.476
  0
LINE
  8
0
 10
-147.129
 20
720.476
 11
-146.545
 21
720.245
  0
LINE
  8
0
 10
-146.545
 20
720.245
 11
-145.937
 21
720.089
  0
LINE
  8
0
 10
-145.937
 20
720.089
 11
-145.314
 21
720.01
  0
LINE
  8
0
 10
-145.314
 20
720.01
 11
145.314
 21
720.01
  0
LINE
  8
0
 10
145.314
 20
720.01
 11
145.937
 21
720.089
  0
LINE
  8
0
 10
145.937
 20
720.089
 11
146.545
 21
720.245
  0
LINE
  8
0
 10
146.545
 20
720.245
 11
147.129
 21
720.476
  0
LINE
  8
0
 10
147.129
 20
720.476
 11
147.679
 21
720.778
  0
LINE
  8
0
 10
147.679
 20
720.778
 11
148.187
 21
721.147
  0
LINE
  8
0
 10
148.187
 20
721.147
 11
148.645
 21
721.577
  0
LINE
  8
0
 10
148.645
 20
721.577
 11
149.045
 21
722.061
  0
LINE
  8
0
 10
149.045
 20
722.061
 11
149.382
 21
722.591
  0
LINE
  8
0
 10
149.382
 20
722.591
 11
149.649
 21
723.159
  0
LINE
  8
0
 10
149.649
 20
723.159
 11
149.843
 21
723.757
  0
LINE
  8
0
 10
149.843
 20
723.757
 11
149.961
 21
724.373
  0
LINE
  8
0
 10
149.961
 20
724.373
 11
150
 21
725
  0
LINE
  8
0
 10
150
 20
725
 11
150
 21
865
  0
LINE
  8
0
 10
150
 20
865
 11
149.961
 21
865.627
  0
LINE
  8
0
 10
149.961
 20
865.627
 11
149.843
 21
866.243
  0
LINE
  8
0
 10
149.843
 20
866.243
 11
149.649
 21
866.841
  0
LINE
  8
0
 10
149.649
 20
866.841
 11
149.382
 21
867.409
  0
LINE
  8
0
 10
149.382
 20
867.409
 11
149.045
 21
867.939
  0
LINE
  8
0
 10
149.045
 20
867.939
 11
148.645
 21
868.423
  0
LINE
  8
0
 10
148.645
 20
868.423
 11
148.187
 21
868.853
  0
LINE
  8
0
 10
148.187
 20
868.853
 11
147.679
 21
869.222
  0
LINE
  8
0
 10
147.679
 20
869.222
 11
147.129
 21
869.524
  0
LINE
  8
0
 10
147.129
 20
869.524
 11
146.545
 21
869.755
  0
LINE
  8
0
 10
146.545
 20
869.755
 11
145.937
 21
869.911
  0
LINE
  8
0
 10
145.937
 20
869.911
 11
145.314
 21
869.99
  0
LINE
  8
0
 10
145.314
 20
869.99
 11
-145.314
 21
869.99
  0
LINE
  8
0
 10
-145.314
 20
869.99
 11
-145.937
 21
869.911
  0
LINE
  8
0
 10
-145.937
 20
869.911
 11
-146.545
 21
869.755
  0
LINE
  8
0
 10
-146.545
 20
869.755
 11
-147.129
 21
869.524
  0
LINE
  8
0
 10
-147.129
 20
869.524
 11
-147.679
 21
869.222
  0
LINE
  8
0
 10
-147.679
 20
869.222
 11
-148.187
 21
868.853
  0
LINE
  8
0
 10
-148.187
 20
868.853
 11
-148.5
 21
868.559
  0
LINE
  8
0
 10
-148.5
 20
868.559
 11
-148.5
 21
869.99
  0
LINE
  8
0
 10
-148.5
 20
869.99
 11
-151.5
 21
869.99
  0
LINE
  8
0
 10
-151.5
 20
869.99
 11
-151.5
 21
720.01
  0
LINE
  8
0
 10
-151.5
 20
720.01
 11
-148.5
 21
720.01
  0
LINE
  8
0
 10
-148.5
 20
720.01
 11
-148.5
 21
721.441
  0
LINE
  8
0
 10
-144.743
 20
721.635
 11
-145.226
 21
721.696
  0
LINE
  8
0
 10
-145.226
 20
721.696
 11
-145.697
 21
721.817
  0
LINE
  8
0
 10
-145.697
 20
721.817
 11
-146.149
 21
721.996
  0
LINE
  8
0
 10
-146.149
 20
721.996
 11
-146.575
 21
722.23
  0
LINE
  8
0
 10
-146.575
 20
722.23
 11
-146.969
 21
722.516
  0
LINE
  8
0
 10
-146.969
 20
722.516
 11
-147.323
 21
722.849
  0
LINE
  8
0
 10
-147.323
 20
722.849
 11
-147.633
 21
723.224
  0
LINE
  8
0
 10
-147.633
 20
723.224
 11
-147.894
 21
723.634
  0
LINE
  8
0
 10
-147.894
 20
723.634
 11
-148.101
 21
724.074
  0
LINE
  8
0
 10
-148.101
 20
724.074
 11
-148.251
 21
724.537
  0
LINE
  8
0
 10
-148.251
 20
724.537
 11
-148.342
 21
725.015
  0
LINE
  8
0
 10
-148.342
 20
725.015
 11
-148.373
 21
725.5
  0
LINE
  8
0
 10
-148.373
 20
725.5
 11
-148.373
 21
864.5
  0
LINE
  8
0
 10
-148.373
 20
864.5
 11
-148.342
 21
864.985
  0
LINE
  8
0
 10
-148.342
 20
864.985
 11
-148.251
 21
865.463
  0
LINE
  8
0
 10
-148.251
 20
865.463
 11
-148.101
 21
865.926
  0
LINE
  8
0
 10
-148.101
 20
865.926
 11
-147.894
 21
866.366
  0
LINE
  8
0
 10
-147.894
 20
866.366
 11
-147.633
 21
866.776
  0
LINE
  8
0
 10
-147.633
 20
866.776
 11
-147.323
 21
867.151
  0
LINE
  8
0
 10
-147.323
 20
867.151
 11
-146.969
 21
867.484
  0
LINE
  8
0
 10
-146.969
 20
867.484
 11
-146.575
 21
867.77
  0
LINE
  8
0
 10
-146.575
 20
867.77
 11
-146.149
 21
868.004
  0
LINE
  8
0
 10
-146.149
 20
868.004
 11
-145.697
 21
868.183
  0
LINE
  8
0
 10
-145.697
 20
868.183
 11
-145.226
 21
868.304
  0
LINE
  8
0
 10
-145.226
 20
868.304
 11
-144.743
 21
868.365
  0
LINE
  8
0
 10
-144.743
 20
868.365
 11
144.743
 21
868.365
  0
LINE
  8
0
 10
144.743
 20
868.365
 11
145.226
 21
868.304
  0
LINE
  8
0
 10
145.226
 20
868.304
 11
145.697
 21
868.183
  0
LINE
  8
0
 10
145.697
 20
868.183
 11
146.149
 21
868.004
  0
LINE
  8
0
 10
146.149
 20
868.004
 11
146.575
 21
867.77
  0
LINE
  8
0
 10
146.575
 20
867.77
 11
146.969
 21
867.484
  0
LINE
  8
0
 10
146.969
 20
867.484
 11
147.323
 21
867.151
  0
LINE
  8
0
 10
147.323
 20
867.151
 11
147.633
 21
866.776
  0
LINE
  8
0
 10
147.633
 20
866.776
 11
147.894
 21
866.366
  0
LINE
  8
0
 10
147.894
 20
866.366
 11
148.101
 21
865.926
  0
LINE
  8
0
 10
148.101
 20
865.926
 11
148.251
 21
865.463
  0
LINE
  8
0
 10
148.251
 20
865.463
 11
148.342
 21
864.985
  0
LINE
  8
0
 10
148.342
 20
864.985
 11
148.373
 21
864.5
  0
LINE
  8
0
 10
148.373
 20
864.5
 11
148.373
 21
725.5
  0
LINE
  8
0
 10
148.373
 20
725.5
 11
148.342
 21
725.015
  0
LINE
  8
0
 10
148.342
 20
725.015
 11
148.251
 21
724.537
  0
LINE
  8
0
 10
148.251
 20
724.537
 11
148.101
 21
724.074
  0
LINE
  8
0
 10
148.101
 20
724.074
 11
147.894
 21
723.634
  0
LINE
  8
0
 10
147.894
 20
723.634
 11
147.633
 21
723.224
  0
LINE
  8
0
 10
147.633
 20
723.224
 11
147.323
 21
722.849
  0
LINE
  8
0
 10
147.323
 20
722.849
 11
146.969
 21
722.516
  0
LINE
  8
0
 10
146.969
 20
722.516
 11
146.575
 21
722.23
  0
LINE
  8
0
 10
146.575
 20
722.23
 11
146.149
 21
721.996
  0
LINE
  8
0
 10
146.149
 20
721.996
 11
145.697
 21
721.817
  0
LINE
  8
0
 10
145.697
 20
721.817
 11
145.226
 21
721.696
  0
LINE
  8
0
 10
145.226
 20
721.696
 11
144.743
 21
721.635
  0
LINE
  8
0
 10
144.743
 20
721.635
 11
-144.743
 21
721.635
  0
LINE
  8
0
 10
145.937
 20
561.089
 11
146.545
 21
561.245
  0
LINE
  8
0
 10
146.545
 20
561.245
 11
147.129
 21
561.476
  0
LINE
  8
0
 10
147.129
 20
561.476
 11
147.679
 21
561.778
  0
LINE
  8
0
 10
147.679
 20
561.778
 11
148.187
 21
562.147
  0
LINE
  8
0
 10
148.187
 20
562.147
 11
148.645
 21
562.577
  0
LINE
  8
0
 10
148.645
 20
562.577
 11
149.045
 21
563.061
  0
LINE
  8
0
 10
149.045
 20
563.061
 11
149.382
 21
563.591
  0
LINE
  8
0
 10
149.382
 20
563.591
 11
149.649
 21
564.159
  0
LINE
  8
0
 10
149.649
 20
564.159
 11
149.843
 21
564.757
  0
LINE
  8
0
 10
149.843
 20
564.757
 11
149.961
 21
565.373
  0
LINE
  8
0
 10
149.961
 20
565.373
 11
150
 21
566
  0
LINE
  8
0
 10
150
 20
566
 11
150
 21
706
  0
LINE
  8
0
 10
150
 20
706
 11
149.961
 21
706.627
  0
LINE
  8
0
 10
149.961
 20
706.627
 11
149.843
 21
707.243
  0
LINE
  8
0
 10
149.843
 20
707.243
 11
149.649
 21
707.841
  0
LINE
  8
0
 10
149.649
 20
707.841
 11
149.382
 21
708.409
  0
LINE
  8
0
 10
149.382
 20
708.409
 11
149.045
 21
708.939
  0
LINE
  8
0
 10
149.045
 20
708.939
 11
148.645
 21
709.423
  0
LINE
  8
0
 10
148.645
 20
709.423
 11
148.187
 21
709.853
  0
LINE
  8
0
 10
148.187
 20
709.853
 11
147.679
 21
710.222
  0
LINE
  8
0
 10
147.679
 20
710.222
 11
147.129
 21
710.524
  0
LINE
  8
0
 10
147.129
 20
710.524
 11
146.545
 21
710.755
  0
LINE
  8
0
 10
146.545
 20
710.755
 11
145.937
 21
710.911
  0
LINE
  8
0
 10
145.937
 20
710.911
 11
145.314
 21
710.99
  0
LINE
  8
0
 10
145.314
 20
710.99
 11
-145.314
 21
710.99
  0
LINE
  8
0
 10
-145.314
 20
710.99
 11
-145.937
 21
710.911
  0
LINE
  8
0
 10
-145.937
 20
710.911
 11
-146.545
 21
710.755
  0
LINE
  8
0
 10
-146.545
 20
710.755
 11
-147.129
 21
710.524
  0
LINE
  8
0
 10
-147.129
 20
710.524
 11
-147.679
 21
710.222
  0
LINE
  8
0
 10
-147.679
 20
710.222
 11
-148.187
 21
709.853
  0
LINE
  8
0
 10
-148.187
 20
709.853
 11
-148.5
 21
709.559
  0
LINE
  8
0
 10
-148.5
 20
709.559
 11
-148.5
 21
710.615
  0
LINE
  8
0
 10
-148.5
 20
710.615
 11
-151.5
 21
710.615
  0
LINE
  8
0
 10
-151.5
 20
710.615
 11
-151.5
 21
561.385
  0
LINE
  8
0
 10
-151.5
 20
561.385
 11
-148.5
 21
561.385
  0
LINE
  8
0
 10
-148.5
 20
561.385
 11
-148.5
 21
562.441
  0
LINE
  8
0
 10
-148.5
 20
562.441
 11
-148.187
 21
562.147
  0
LINE
  8
0
 10
-148.187
 20
562.147
 11
-147.679
 21
561.778
  0
LINE
  8
0
 10
-147.679
 20
561.778
 11
-147.129
 21
561.476
  0
LINE
  8
0
 10
-147.129
 20
561.476
 11
-146.545
 21
561.245
  0
LINE
  8
0
 10
-146.545
 20
561.245
 11
-145.937
 21
561.089
  0
LINE
  8
0
 10
-145.937
 20
561.089
 11
-145.314
 21
561.01
  0
LINE
  8
0
 10
-145.314
 20
561.01
 11
145.314
 21
561.01
  0
LINE
  8
0
 10
145.314
 20
561.01
 11
145.937
 21
561.089
  0
LINE
  8
0
 10
-142.651
 20
701.105
 11
-142.95
 21
701.143
  0
LINE
  8
0
 10
-142.95
 20
701.143
 11
-143.242
 21
701.217
  0
LINE
  8
0
 10
-143.242
 20
701.217
 11
-143.522
 21
701.328
  0
LINE
  8
0
 10
-143.522
 20
701.328
 11
-143.786
 21
701.474
  0
LINE
  8
0
 10
-143.786
 20
701.474
 11
-144.03
 21
701.651
  0
LINE
  8
0
 10
-144.03
 20
701.651
 11
-144.25
 21
701.857
  0
LINE
  8
0
 10
-144.25
 20
701.857
 11
-144.442
 21
702.089
  0
LINE
  8
0
 10
-144.442
 20
702.089
 11
-144.603
 21
702.344
  0
LINE
  8
0
 10
-144.603
 20
702.344
 11
-144.731
 21
702.617
  0
LINE
  8
0
 10
-144.731
 20
702.617
 11
-144.825
 21
702.903
  0
LINE
  8
0
 10
-144.825
 20
702.903
 11
-144.881
 21
703.199
  0
LINE
  8
0
 10
-144.881
 20
703.199
 11
-144.9
 21
703.5
  0
LINE
  8
0
 10
-144.9
 20
703.5
 11
-144.881
 21
703.801
  0
LINE
  8
0
 10
-144.881
 20
703.801
 11
-144.825
 21
704.097
  0
LINE
  8
0
 10
-144.825
 20
704.097
 11
-144.731
 21
704.383
  0
LINE
  8
0
 10
-144.731
 20
704.383
 11
-144.603
 21
704.656
  0
LINE
  8
0
 10
-144.603
 20
704.656
 11
-144.442
 21
704.911
  0
LINE
  8
0
 10
-144.442
 20
704.911
 11
-144.25
 21
705.143
  0
LINE
  8
0
 10
-144.25
 20
705.143
 11
-144.03
 21
705.349
  0
LINE
  8
0
 10
-144.03
 20
705.349
 11
-143.786
 21
705.526
  0
LINE
  8
0
 10
-143.786
 20
705.526
 11
-143.522
 21
705.672
  0
LINE
  8
0
 10
-143.522
 20
705.672
 11
-143.242
 21
705.783
  0
LINE
  8
0
 10
-143.242
 20
705.783
 11
-142.95
 21
705.857
  0
LINE
  8
0
 10
-142.95
 20
705.857
 11
-142.651
 21
705.895
  0
LINE
  8
0
 10
-142.651
 20
705.895
 11
-142.349
 21
705.895
  0
LINE
  8
0
 10
-142.349
 20
705.895
 11
-142.05
 21
705.857
  0
LINE
  8
0
 10
-142.05
 20
705.857
 11
-141.758
 21
705.783
  0
LINE
  8
0
 10
-141.758
 20
705.783
 11
-141.478
 21
705.672
  0
LINE
  8
0
 10
-141.478
 20
705.672
 11
-141.214
 21
705.526
  0
LINE
  8
0
 10
-141.214
 20
705.526
 11
-140.97
 21
705.349
  0
LINE
  8
0
 10
-140.97
 20
705.349
 11
-140.75
 21
705.143
  0
LINE
  8
0
 10
-140.75
 20
705.143
 11
-140.558
 21
704.911
  0
LINE
  8
0
 10
-140.558
 20
704.911
 11
-140.397
 21
704.656
  0
LINE
  8
0
 10
-140.397
 20
704.656
 11
-140.269
 21
704.383
  0
LINE
  8
0
 10
-140.269
 20
704.383
 11
-140.175
 21
704.097
  0
LINE
  8
0
 10
-140.175
 20
704.097
 11
-140.119
 21
703.801
  0
LINE
  8
0
 10
-140.119
 20
703.801
 11
-140.1
 21
703.5
  0
LINE
  8
0
 10
-140.1
 20
703.5
 11
-140.119
 21
703.199
  0
LINE
  8
0
 10
-140.119
 20
703.199
 11
-140.175
 21
702.903
  0
LINE
  8
0
 10
-140.175
 20
702.903
 11
-140.269
 21
702.617
  0
LINE
  8
0
 10
-140.269
 20
702.617
 11
-140.397
 21
702.344
  0
LINE
  8
0
 10
-140.397
 20
702.344
 11
-140.558
 21
702.089
  0
LINE
  8
0
 10
-140.558
 20
702.089
 11
-140.75
 21
701.857
  0
LINE
  8
0
 10
-140.75
 20
701.857
 11
-140.97
 21
701.651
  0
LINE
  8
0
 10
-140.97
 20
701.651
 11
-141.214
 21
701.474
  0
LINE
  8
0
 10
-141.214
 20
701.474
 11
-141.478
 21
701.328
  0
LINE
  8
0
 10
-141.478
 20
701.328
 11
-141.758
 21
701.217
  0
LINE
  8
0
 10
-141.758
 20
701.217
 11
-142.05
 21
701.143
  0
LINE
  8
0
 10
-142.05
 20
701.143
 11
-142.349
 21
701.105
  0
LINE
  8
0
 10
-142.349
 20
701.105
 11
-142.651
 21
701.105
  0
LINE
  8
0
 10
142.349
 20
701.105
 11
142.05
 21
701.143
  0
LINE
  8
0
 10
142.05
 20
701.143
 11
141.758
 21
701.217
  0
LINE
  8
0
 10
141.758
 20
701.217
 11
141.478
 21
701.328
  0
LINE
  8
0
 10
141.478
 20
701.328
 11
141.214
 21
701.474
  0
LINE
  8
0
 10
141.214
 20
701.474
 11
140.97
 21
701.651
  0
LINE
  8
0
 10
140.97
 20
701.651
 11
140.75
 21
701.857
  0
LINE
  8
0
 10
140.75
 20
701.857
 11
140.558
 21
702.089
  0
LINE
  8
0
 10
140.558
 20
702.089
 11
140.397
 21
702.344
  0
LINE
  8
0
 10
140.397
 20
702.344
 11
140.269
 21
702.617
  0
LINE
  8
0
 10
140.269
 20
702.617
 11
140.175
 21
702.903
  0
LINE
  8
0
 10
140.175
 20
702.903
 11
140.119
 21
703.199
  0
LINE
  8
0
 10
140.119
 20
703.199
 11
140.1
 21
703.5
  0
LINE
  8
0
 10
140.1
 20
703.5
 11
140.119
 21
703.801
  0
LINE
  8
0
 10
140.119
 20
703.801
 11
140.175
 21
704.097
  0
LINE
  8
0
 10
140.175
 20
704.097
 11
140.269
 21
704.383
  0
LINE
  8
0
 10
140.269
 20
704.383
 11
140.397
 21
704.656
  0
LINE
  8
0
 10
140.397
 20
704.656
 11
140.558
 21
704.911
  0
LINE
  8
0
 10
140.558
 20
704.911
 11
140.75
 21
705.143
  0
LINE
  8
0
 10
140.75
 20
705.143
 11
140.97
 21
705.349
  0
LINE
  8
0
 10
140.97
 20
705.349
 11
141.214
 21
705.526
  0
LINE
  8
0
 10
141.214
 20
705.526
 11
141.478
 21
705.672
  0
LINE
  8
0
 10
141.478
 20
705.672
 11
141.758
 21
705.783
  0
LINE
  8
0
 10
141.758
 20
705.783
 11
142.05
 21
705.857
  0
LINE
  8
0
 10
142.05
 20
705.857
 11
142.349
 21
705.895
  0
LINE
  8
0
 10
142.349
 20
705.895
 11
142.651
 21
705.895
  0
LINE
  8
0
 10
142.651
 20
705.895
 11
142.95
 21
705.857
  0
LINE
  8
0
 10
142.95
 20
705.857
 11
143.242
 21
705.783
  0
LINE
  8
0
 10
143.242
 20
705.783
 11
143.522
 21
705.672
  0
LINE
  8
0
 10
143.522
 20
705.672
 11
143.786
 21
705.526
  0
LINE
  8
0
 10
143.786
 20
705.526
 11
144.03
 21
705.349
  0
LINE
  8
0
 10
144.03
 20
705.349
 11
144.25
 21
705.143
  0
LINE
  8
0
 10
144.25
 20
705.143
 11
144.442
 21
704.911
  0
LINE
  8
0
 10
144.442
 20
704.911
 11
144.603
 21
704.656
  0
LINE
  8
0
 10
144.603
 20
704.656
 11
144.731
 21
704.383
  0
LINE
  8
0
 10
144.731
 20
704.383
 11
144.825
 21
704.097
  0
LINE
  8
0
 10
144.825
 20
704.097
 11
144.881
 21
703.801
  0
LINE
  8
0
 10
144.881
 20
703.801
 11
144.9
 21
703.5
  0
LINE
  8
0
 10
144.9
 20
703.5
 11
144.881
 21
703.199
  0
LINE
  8
0
 10
144.881
 20
703.199
 11
144.825
 21
702.903
  0
LINE
  8
0
 10
144.825
 20
702.903
 11
144.731
 21
702.617
  0
LINE
  8
0
 10
144.731
 20
702.617
 11
144.603
 21
702.344
  0
LINE
  8
0
 10
144.603
 20
702.344
 11
144.442
 21
702.089
  0
LINE
  8
0
 10
144.442
 20
702.089
 11
144.25
 21
701.857
  0
LINE
  8
0
 10
144.25
 20
701.857
 11
144.03
 21
701.651
  0
LINE
  8
0
 10
144.03
 20
701.651
 11
143.786
 21
701.474
  0
LINE
  8
0
 10
143.786
 20
701.474
 11
143.522
 21
701.328
  0
LINE
  8
0
 10
143.522
 20
701.328
 11
143.242
 21
701.217
  0
LINE
  8
0
 10
143.242
 20
701.217
 11
142.95
 21
701.143
  0
LINE
  8
0
 10
142.95
 20
701.143
 11
142.651
 21
701.105
  0
LINE
  8
0
 10
142.651
 20
701.105
 11
142.349
 21
701.105
  0
LINE
  8
0
 10
142.349
 20
566.105
 11
142.05
 21
566.143
  0
LINE
  8
0
 10
142.05
 20
566.143
 11
141.758
 21
566.217
  0
LINE
  8
0
 10
141.758
 20
566.217
 11
141.478
 21
566.328
  0
LINE
  8
0
 10
141.478
 20
566.328
 11
141.214
 21
566.474
  0
LINE
  8
0
 10
141.214
 20
566.474
 11
140.97
 21
566.651
  0
LINE
  8
0
 10
140.97
 20
566.651
 11
140.75
 21
566.857
  0
LINE
  8
0
 10
140.75
 20
566.857
 11
140.558
 21
567.089
  0
LINE
  8
0
 10
140.558
 20
567.089
 11
140.397
 21
567.344
  0
LINE
  8
0
 10
140.397
 20
567.344
 11
140.269
 21
567.617
  0
LINE
  8
0
 10
140.269
 20
567.617
 11
140.175
 21
567.903
  0
LINE
  8
0
 10
140.175
 20
567.903
 11
140.119
 21
568.199
  0
LINE
  8
0
 10
140.119
 20
568.199
 11
140.1
 21
568.5
  0
LINE
  8
0
 10
140.1
 20
568.5
 11
140.119
 21
568.801
  0
LINE
  8
0
 10
140.119
 20
568.801
 11
140.175
 21
569.097
  0
LINE
  8
0
 10
140.175
 20
569.097
 11
140.269
 21
569.383
  0
LINE
  8
0
 10
140.269
 20
569.383
 11
140.397
 21
569.656
  0
LINE
  8
0
 10
140.397
 20
569.656
 11
140.558
 21
569.911
  0
LINE
  8
0
 10
140.558
 20
569.911
 11
140.75
 21
570.143
  0
LINE
  8
0
 10
140.75
 20
570.143
 11
140.97
 21
570.349
  0
LINE
  8
0
 10
140.97
 20
570.349
 11
141.214
 21
570.526
  0
LINE
  8
0
 10
141.214
 20
570.526
 11
141.478
 21
570.672
  0
LINE
  8
0
 10
141.478
 20
570.672
 11
141.758
 21
570.783
  0
LINE
  8
0
 10
141.758
 20
570.783
 11
142.05
 21
570.857
  0
LINE
  8
0
 10
142.05
 20
570.857
 11
142.349
 21
570.895
  0
LINE
  8
0
 10
142.349
 20
570.895
 11
142.651
 21
570.895
  0
LINE
  8
0
 10
142.651
 20
570.895
 11
142.95
 21
570.857
  0
LINE
  8
0
 10
142.95
 20
570.857
 11
143.242
 21
570.783
  0
LINE
  8
0
 10
143.242
 20
570.783
 11
143.522
 21
570.672
  0
LINE
  8
0
 10
143.522
 20
570.672
 11
143.786
 21
570.526
  0
LINE
  8
0
 10
143.786
 20
570.526
 11
144.03
 21
570.349
  0
LINE
  8
0
 10
144.03
 20
570.349
 11
144.25
 21
570.143
  0
LINE
  8
0
 10
144.25
 20
570.143
 11
144.442
 21
569.911
  0
LINE
  8
0
 10
144.442
 20
569.911
 11
144.603
 21
569.656
  0
LINE
  8
0
 10
144.603
 20
569.656
 11
144.731
 21
569.383
  0
LINE
  8
0
 10
144.731
 20
569.383
 11
144.825
 21
569.097
  0
LINE
  8
0
 10
144.825
 20
569.097
 11
144.881
 21
568.801
  0
LINE
  8
0
 10
144.881
 20
568.801
 11
144.9
 21
568.5
  0
LINE
  8
0
 10
144.9
 20
568.5
 11
144.881
 21
568.199
  0
LINE
  8
0
 10
144.881
 20
568.199
 11
144.825
 21
567.903
  0
LINE
  8
0
 10
144.825
 20
567.903
 11
144.731
 21
567.617
  0
LINE
  8
0
 10
144.731
 20
567.617
 11
144.603
 21
567.344
  0
LINE
  8
0
 10
144.603
 20
567.344
 11
144.442
 21
567.089
  0
LINE
  8
0
 10
144.442
 20
567.089
 11
144.25
 21
566.857
  0
LINE
  8
0
 10
144.25
 20
566.857
 11
144.03
 21
566.651
  0
LINE
  8
0
 10
144.03
 20
566.651
 11
143.786
 21
566.474
  0
LINE
  8
0
 10
143.786
 20
566.474
 11
143.522
 21
566.328
  0
LINE
  8
0
 10
143.522
 20
566.328
 11
143.242
 21
566.217
  0
LINE
  8
0
 10
143.242
 20
566.217
 11
142.95
 21
566.143
  0
LINE
  8
0
 10
142.95
 20
566.143
 11
142.651
 21
566.105
  0
LINE
  8
0
 10
142.651
 20
566.105
 11
142.349
 21
566.105
  0
LINE
  8
0
 10
-142.651
 20
566.105
 11
-142.95
 21
566.143
  0
LINE
  8
0
 10
-142.95
 20
566.143
 11
-143.242
 21
566.217
  0
LINE
  8
0
 10
-143.242
 20
566.217
 11
-143.522
 21
566.328
  0
LINE
  8
0
 10
-143.522
 20
566.328
 11
-143.786
 21
566.474
  0
LINE
  8
0
 10
-143.786
 20
566.474
 11
-144.03
 21
566.651
  0
LINE
  8
0
 10
-144.03
 20
566.651
 11
-144.25
 21
566.857
  0
LINE
  8
0
 10
-144.25
 20
566.857
 11
-144.442
 21
567.089
  0
LINE
  8
0
 10
-144.442
 20
567.089
 11
-144.603
 21
567.344
  0
LINE
  8
0
 10
-144.603
 20
567.344
 11
-144.731
 21
567.617
  0
LINE
  8
0
 10
-144.731
 20
567.617
 11
-144.825
 21
567.903
  0
LINE
  8
0
 10
-144.825
 20
567.903
 11
-144.881
 21
568.199
  0
LINE
  8
0
 10
-144.881
 20
568.199
 11
-144.9
 21
568.5
  0
LINE
  8
0
 10
-144.9
 20
568.5
 11
-144.881
 21
568.801
  0
LINE
  8
0
 10
-144.881
 20
568.801
 11
-144.825
 21
569.097
  0
LINE
  8
0
 10
-144.825
 20
569.097
 11
-144.731
 21
569.383
  0
LINE
  8
0
 10
-144.731
 20
569.383
 11
-144.603
 21
569.656
  0
LINE
  8
0
 10
-144.603
 20
569.656
 11
-144.442
 21
569.911
  0
LINE
  8
0
 10
-144.442
 20
569.911
 11
-144.25
 21
570.143
  0
LINE
  8
0
 10
-144.25
 20
570.143
 11
-144.03
 21
570.349
  0
LINE
  8
0
 10
-144.03
 20
570.349
 11
-143.786
 21
570.526
  0
LINE
  8
0
 10
-143.786
 20
570.526
 11
-143.522
 21
570.672
  0
LINE
  8
0
 10
-143.522
 20
570.672
 11
-143.242
 21
570.783
  0
LINE
  8
0
 10
-143.242
 20
570.783
 11
-142.95
 21
570.857
  0
LINE
  8
0
 10
-142.95
 20
570.857
 11
-142.651
 21
570.895
  0
LINE
  8
0
 10
-142.651
 20
570.895
 11
-142.349
 21
570.895
  0
LINE
  8
0
 10
-142.349
 20
570.895
 11
-142.05
 21
570.857
  0
LINE
  8
0
 10
-142.05
 20
570.857
 11
-141.758
 21
570.783
  0
LINE
  8
0
 10
-141.758
 20
570.783
 11
-141.478
 21
570.672
  0
LINE
  8
0
 10
-141.478
 20
570.672
 11
-141.214
 21
570.526
  0
LINE
  8
0
 10
-141.214
 20
570.526
 11
-140.97
 21
570.349
  0
LINE
  8
0
 10
-140.97
 20
570.349
 11
-140.75
 21
570.143
  0
LINE
  8
0
 10
-140.75
 20
570.143
 11
-140.558
 21
569.911
  0
LINE
  8
0
 10
-140.558
 20
569.911
 11
-140.397
 21
569.656
  0
LINE
  8
0
 10
-140.397
 20
569.656
 11
-140.269
 21
569.383
  0
LINE
  8
0
 10
-140.269
 20
569.383
 11
-140.175
 21
569.097
  0
LINE
  8
0
 10
-140.175
 20
569.097
 11
-140.119
 21
568.801
  0
LINE
  8
0
 10
-140.119
 20
568.801
 11
-140.1
 21
568.5
  0
LINE
  8
0
 10
-140.1
 20
568.5
 11
-140.119
 21
568.199
  0
LINE
  8
0
 10
-140.119
 20
568.199
 11
-140.175
 21
567.903
  0
LINE
  8
0
 10
-140.175
 20
567.903
 11
-140.269
 21
567.617
  0
LINE
  8
0
 10
-140.269
 20
567.617
 11
-140.397
 21
567.344
  0
LINE
  8
0
 10
-140.397
 20
567.344
 11
-140.558
 21
567.089
  0
LINE
  8
0
 10
-140.558
 20
567.089
 11
-140.75
 21
566.857
  0
LINE
  8
0
 10
-140.75
 20
566.857
 11
-140.97
 21
566.651
  0
LINE
  8
0
 10
-140.97
 20
566.651
 11
-141.214
 21
566.474
  0
LINE
  8
0
 10
-141.214
 20
566.474
 11
-141.478
 21
566.328
  0
LINE
  8
0
 10
-141.478
 20
566.328
 11
-141.758
 21
566.217
  0
LINE
  8
0
 10
-141.758
 20
566.217
 11
-142.05
 21
566.143
  0
LINE
  8
0
 10
-142.05
 20
566.143
 11
-142.349
 21
566.105
  0
LINE
  8
0
 10
-142.349
 20
566.105
 11
-142.651
 21
566.105
  0
LINE
  8
0
 10
145.937
 20
402.089
 11
146.545
 21
402.245
  0
LINE
  8
0
 10
146.545
 20
402.245
 11
147.129
 21
402.476
  0
LINE
  8
0
 10
147.129
 20
402.476
 11
147.679
 21
402.778
  0
LINE
  8
0
 10
147.679
 20
402.778
 11
148.187
 21
403.147
  0
LINE
  8
0
 10
148.187
 20
403.147
 11
148.645
 21
403.577
  0
LINE
  8
0
 10
148.645
 20
403.577
 11
149.045
 21
404.061
  0
LINE
  8
0
 10
149.045
 20
404.061
 11
149.382
 21
404.591
  0
LINE
  8
0
 10
149.382
 20
404.591
 11
149.649
 21
405.159
  0
LINE
  8
0
 10
149.649
 20
405.159
 11
149.843
 21
405.757
  0
LINE
  8
0
 10
149.843
 20
405.757
 11
149.961
 21
406.373
  0
LINE
  8
0
 10
149.961
 20
406.373
 11
150
 21
407
  0
LINE
  8
0
 10
150
 20
407
 11
150
 21
547
  0
LINE
  8
0
 10
150
 20
547
 11
149.961
 21
547.627
  0
LINE
  8
0
 10
149.961
 20
547.627
 11
149.843
 21
548.243
  0
LINE
  8
0
 10
149.843
 20
548.243
 11
149.649
 21
548.841
  0
LINE
  8
0
 10
149.649
 20
548.841
 11
149.382
 21
549.409
  0
LINE
  8
0
 10
149.382
 20
549.409
 11
149.045
 21
549.939
  0
LINE
  8
0
 10
149.045
 20
549.939
 11
148.645
 21
550.423
  0
LINE
  8
0
 10
148.645
 20
550.423
 11
148.187
 21
550.853
  0
LINE
  8
0
 10
148.187
 20
550.853
 11
147.679
 21
551.222
  0
LINE
  8
0
 10
147.679
 20
551.222
 11
147.129
 21
551.524
  0
LINE
  8
0
 10
147.129
 20
551.524
 11
146.545
 21
551.755
  0
LINE
  8
0
 10
146.545
 20
551.755
 11
145.937
 21
551.911
  0
LINE
  8
0
 10
145.937
 20
551.911
 11
145.314
 21
551.99
  0
LINE
  8
0
 10
145.314
 20
551.99
 11
-145.314
 21
551.99
  0
LINE
  8
0
 10
-145.314
 20
551.99
 11
-145.937
 21
551.911
  0
LINE
  8
0
 10
-145.937
 20
551.911
 11
-146.545
 21
551.755
  0
LINE
  8
0
 10
-146.545
 20
551.755
 11
-147.129
 21
551.524
  0
LINE
  8
0
 10
-147.129
 20
551.524
 11
-147.679
 21
551.222
  0
LINE
  8
0
 10
-147.679
 20
551.222
 11
-148.187
 21
550.853
  0
LINE
  8
0
 10
-148.187
 20
550.853
 11
-148.645
 21
550.423
  0
LINE
  8
0
 10
-148.645
 20
550.423
 11
-149.045
 21
549.939
  0
LINE
  8
0
 10
-149.045
 20
549.939
 11
-149.382
 21
549.409
  0
LINE
  8
0
 10
-149.382
 20
549.409
 11
-149.649
 21
548.841
  0
LINE
  8
0
 10
-149.649
 20
548.841
 11
-149.843
 21
548.243
  0
LINE
  8
0
 10
-149.843
 20
548.243
 11
-149.9
 21
547.944
  0
LINE
  8
0
 10
-149.9
 20
547.944
 11
-151.5
 21
547.944
  0
LINE
  8
0
 10
-151.5
 20
547.944
 11
-151.5
 21
406.056
  0
LINE
  8
0
 10
-151.5
 20
406.056
 11
-149.9
 21
406.056
  0
LINE
  8
0
 10
-149.9
 20
406.056
 11
-149.843
 21
405.757
  0
LINE
  8
0
 10
-149.843
 20
405.757
 11
-149.649
 21
405.159
  0
LINE
  8
0
 10
-149.649
 20
405.159
 11
-149.382
 21
404.591
  0
LINE
  8
0
 10
-149.382
 20
404.591
 11
-149.045
 21
404.061
  0
LINE
  8
0
 10
-149.045
 20
404.061
 11
-148.645
 21
403.577
  0
LINE
  8
0
 10
-148.645
 20
403.577
 11
-148.187
 21
403.147
  0
LINE
  8
0
 10
-148.187
 20
403.147
 11
-147.679
 21
402.778
  0
LINE
  8
0
 10
-147.679
 20
402.778
 11
-147.129
 21
402.476
  0
LINE
  8
0
 10
-147.129
 20
402.476
 11
-146.545
 21
402.245
  0
LINE
  8
0
 10
-146.545
 20
402.245
 11
-145.937
 21
402.089
  0
LINE
  8
0
 10
-145.937
 20
402.089
 11
-145.314
 21
402.01
  0
LINE
  8
0
 10
-145.314
 20
402.01
 11
145.314
 21
402.01
  0
LINE
  8
0
 10
145.314
 20
402.01
 11
145.937
 21
402.089
  0
LINE
  8
0
 10
-142.613
 20
542.704
 11
-142.837
 21
542.732
  0
LINE
  8
0
 10
-142.837
 20
542.732
 11
-143.056
 21
542.788
  0
LINE
  8
0
 10
-143.056
 20
542.788
 11
-143.266
 21
542.871
  0
LINE
  8
0
 10
-143.266
 20
542.871
 11
-143.464
 21
542.98
  0
LINE
  8
0
 10
-143.464
 20
542.98
 11
-143.647
 21
543.113
  0
LINE
  8
0
 10
-143.647
 20
543.113
 11
-143.812
 21
543.268
  0
LINE
  8
0
 10
-143.812
 20
543.268
 11
-143.956
 21
543.442
  0
LINE
  8
0
 10
-143.956
 20
543.442
 11
-144.077
 21
543.633
  0
LINE
  8
0
 10
-144.077
 20
543.633
 11
-144.174
 21
543.837
  0
LINE
  8
0
 10
-144.174
 20
543.837
 11
-144.243
 21
544.052
  0
LINE
  8
0
 10
-144.243
 20
544.052
 11
-144.286
 21
544.274
  0
LINE
  8
0
 10
-144.286
 20
544.274
 11
-144.3
 21
544.5
  0
LINE
  8
0
 10
-144.3
 20
544.5
 11
-144.286
 21
544.726
  0
LINE
  8
0
 10
-144.286
 20
544.726
 11
-144.243
 21
544.948
  0
LINE
  8
0
 10
-144.243
 20
544.948
 11
-144.174
 21
545.163
  0
LINE
  8
0
 10
-144.174
 20
545.163
 11
-144.077
 21
545.367
  0
LINE
  8
0
 10
-144.077
 20
545.367
 11
-143.956
 21
545.558
  0
LINE
  8
0
 10
-143.956
 20
545.558
 11
-143.812
 21
545.732
  0
LINE
  8
0
 10
-143.812
 20
545.732
 11
-143.647
 21
545.887
  0
LINE
  8
0
 10
-143.647
 20
545.887
 11
-143.464
 21
546.02
  0
LINE
  8
0
 10
-143.464
 20
546.02
 11
-143.266
 21
546.129
  0
LINE
  8
0
 10
-143.266
 20
546.129
 11
-143.056
 21
546.212
  0
LINE
  8
0
 10
-143.056
 20
546.212
 11
-142.837
 21
546.268
  0
LINE
  8
0
 10
-142.837
 20
546.268
 11
-142.613
 21
546.296
  0
LINE
  8
0
 10
-142.613
 20
546.296
 11
-142.387
 21
546.296
  0
LINE
  8
0
 10
-142.387
 20
546.296
 11
-142.163
 21
546.268
  0
LINE
  8
0
 10
-142.163
 20
546.268
 11
-141.944
 21
546.212
  0
LINE
  8
0
 10
-141.944
 20
546.212
 11
-141.734
 21
546.129
  0
LINE
  8
0
 10
-141.734
 20
546.129
 11
-141.536
 21
546.02
  0
LINE
  8
0
 10
-141.536
 20
546.02
 11
-141.353
 21
545.887
  0
LINE
  8
0
 10
-141.353
 20
545.887
 11
-141.188
 21
545.732
  0
LINE
  8
0
 10
-141.188
 20
545.732
 11
-141.044
 21
545.558
  0
LINE
  8
0
 10
-141.044
 20
545.558
 11
-140.923
 21
545.367
  0
LINE
  8
0
 10
-140.923
 20
545.367
 11
-140.826
 21
545.163
  0
LINE
  8
0
 10
-140.826
 20
545.163
 11
-140.757
 21
544.948
  0
LINE
  8
0
 10
-140.757
 20
544.948
 11
-140.714
 21
544.726
  0
LINE
  8
0
 10
-140.714
 20
544.726
 11
-140.7
 21
544.5
  0
LINE
  8
0
 10
-140.7
 20
544.5
 11
-140.714
 21
544.274
  0
LINE
  8
0
 10
-140.714
 20
544.274
 11
-140.757
 21
544.052
  0
LINE
  8
0
 10
-140.757
 20
544.052
 11
-140.826
 21
543.837
  0
LINE
  8
0
 10
-140.826
 20
543.837
 11
-140.923
 21
543.633
  0
LINE
  8
0
 10
-140.923
 20
543.633
 11
-141.044
 21
543.442
  0
LINE
  8
0
 10
-141.044
 20
543.442
 11
-141.188
 21
543.268
  0
LINE
  8
0
 10
-141.188
 20
543.268
 11
-141.353
 21
543.113
  0
LINE
  8
0
 10
-141.353
 20
543.113
 11
-141.536
 21
542.98
  0
LINE
  8
0
 10
-141.536
 20
542.98
 11
-141.734
 21
542.871
  0
LINE
  8
0
 10
-141.734
 20
542.871
 11
-141.944
 21
542.788
  0
LINE
  8
0
 10
-141.944
 20
542.788
 11
-142.163
 21
542.732
  0
LINE
  8
0
 10
-142.163
 20
542.732
 11
-142.387
 21
542.704
  0
LINE
  8
0
 10
-142.387
 20
542.704
 11
-142.613
 21
542.704
  0
LINE
  8
0
 10
142.387
 20
542.704
 11
142.163
 21
542.732
  0
LINE
  8
0
 10
142.163
 20
542.732
 11
141.944
 21
542.788
  0
LINE
  8
0
 10
141.944
 20
542.788
 11
141.734
 21
542.871
  0
LINE
  8
0
 10
141.734
 20
542.871
 11
141.536
 21
542.98
  0
LINE
  8
0
 10
141.536
 20
542.98
 11
141.353
 21
543.113
  0
LINE
  8
0
 10
141.353
 20
543.113
 11
141.188
 21
543.268
  0
LINE
  8
0
 10
141.188
 20
543.268
 11
141.044
 21
543.442
  0
LINE
  8
0
 10
141.044
 20
543.442
 11
140.923
 21
543.633
  0
LINE
  8
0
 10
140.923
 20
543.633
 11
140.826
 21
543.837
  0
LINE
  8
0
 10
140.826
 20
543.837
 11
140.757
 21
544.052
  0
LINE
  8
0
 10
140.757
 20
544.052
 11
140.714
 21
544.274
  0
LINE
  8
0
 10
140.714
 20
544.274
 11
140.7
 21
544.5
  0
LINE
  8
0
 10
140.7
 20
544.5
 11
140.714
 21
544.726
  0
LINE
  8
0
 10
140.714
 20
544.726
 11
140.757
 21
544.948
  0
LINE
  8
0
 10
140.757
 20
544.948
 11
140.826
 21
545.163
  0
LINE
  8
0
 10
140.826
 20
545.163
 11
140.923
 21
545.367
  0
LINE
  8
0
 10
140.923
 20
545.367
 11
141.044
 21
545.558
  0
LINE
  8
0
 10
141.044
 20
545.558
 11
141.188
 21
545.732
  0
LINE
  8
0
 10
141.188
 20
545.732
 11
141.353
 21
545.887
  0
LINE
  8
0
 10
141.353
 20
545.887
 11
141.536
 21
546.02
  0
LINE
  8
0
 10
141.536
 20
546.02
 11
141.734
 21
546.129
  0
LINE
  8
0
 10
141.734
 20
546.129
 11
141.944
 21
546.212
  0
LINE
  8
0
 10
141.944
 20
546.212
 11
142.163
 21
546.268
  0
LINE
  8
0
 10
142.163
 20
546.268
 11
142.387
 21
546.296
  0
LINE
  8
0
 10
142.387
 20
546.296
 11
142.613
 21
546.296
  0
LINE
  8
0
 10
142.613
 20
546.296
 11
142.837
 21
546.268
  0
LINE
  8
0
 10
142.837
 20
546.268
 11
143.056
 21
546.212
  0
LINE
  8
0
 10
143.056
 20
546.212
 11
143.266
 21
546.129
  0
LINE
  8
0
 10
143.266
 20
546.129
 11
143.464
 21
546.02
  0
LINE
  8
0
 10
143.464
 20
546.02
 11
143.647
 21
545.887
  0
LINE
  8
0
 10
143.647
 20
545.887
 11
143.812
 21
545.732
  0
LINE
  8
0
 10
143.812
 20
545.732
 11
143.956
 21
545.558
  0
LINE
  8
0
 10
143.956
 20
545.558
 11
144.077
 21
545.367
  0
LINE
  8
0
 10
144.077
 20
545.367
 11
144.174
 21
545.163
  0
LINE
  8
0
 10
144.174
 20
545.163
 11
144.243
 21
544.948
  0
LINE
  8
0
 10
144.243
 20
544.948
 11
144.286
 21
544.726
  0
LINE
  8
0
 10
144.286
 20
544.726
 11
144.3
 21
544.5
  0
LINE
  8
0
 10
144.3
 20
544.5
 11
144.286
 21
544.274
  0
LINE
  8
0
 10
144.286
 20
544.274
 11
144.243
 21
544.052
  0
LINE
  8
0
 10
144.243
 20
544.052
 11
144.174
 21
543.837
  0
LINE
  8
0
 10
144.174
 20
543.837
 11
144.077
 21
543.633
  0
LINE
  8
0
 10
144.077
 20
543.633
 11
143.956
 21
543.442
  0
LINE
  8
0
 10
143.956
 20
543.442
 11
143.812
 21
543.268
  0
LINE
  8
0
 10
143.812
 20
543.268
 11
143.647
 21
543.113
  0
LINE
  8
0
 10
143.647
 20
543.113
 11
143.464
 21
542.98
  0
LINE
  8
0
 10
143.464
 20
542.98
 11
143.266
 21
542.871
  0
LINE
  8
0
 10
143.266
 20
542.871
 11
143.056
 21
542.788
  0
LINE
  8
0
 10
143.056
 20
542.788
 11
142.837
 21
542.732
  0
LINE
  8
0
 10
142.837
 20
542.732
 11
142.613
 21
542.704
  0
LINE
  8
0
 10
142.613
 20
542.704
 11
142.387
 21
542.704
  0
LINE
  8
0
 10
-142.613
 20
407.704
 11
-142.837
 21
407.732
  0
LINE
  8
0
 10
-142.837
 20
407.732
 11
-143.056
 21
407.788
  0
LINE
  8
0
 10
-143.056
 20
407.788
 11
-143.266
 21
407.871
  0
LINE
  8
0
 10
-143.266
 20
407.871
 11
-143.464
 21
407.98
  0
LINE
  8
0
 10
-143.464
 20
407.98
 11
-143.647
 21
408.113
  0
LINE
  8
0
 10
-143.647
 20
408.113
 11
-143.812
 21
408.268
  0
LINE
  8
0
 10
-143.812
 20
408.268
 11
-143.956
 21
408.442
  0
LINE
  8
0
 10
-143.956
 20
408.442
 11
-144.077
 21
408.633
  0
LINE
  8
0
 10
-144.077
 20
408.633
 11
-144.174
 21
408.837
  0
LINE
  8
0
 10
-144.174
 20
408.837
 11
-144.243
 21
409.052
  0
LINE
  8
0
 10
-144.243
 20
409.052
 11
-144.286
 21
409.274
  0
LINE
  8
0
 10
-144.286
 20
409.274
 11
-144.3
 21
409.5
  0
LINE
  8
0
 10
-144.3
 20
409.5
 11
-144.286
 21
409.726
  0
LINE
  8
0
 10
-144.286
 20
409.726
 11
-144.243
 21
409.948
  0
LINE
  8
0
 10
-144.243
 20
409.948
 11
-144.174
 21
410.163
  0
LINE
  8
0
 10
-144.174
 20
410.163
 11
-144.077
 21
410.367
  0
LINE
  8
0
 10
-144.077
 20
410.367
 11
-143.956
 21
410.558
  0
LINE
  8
0
 10
-143.956
 20
410.558
 11
-143.812
 21
410.732
  0
LINE
  8
0
 10
-143.812
 20
410.732
 11
-143.647
 21
410.887
  0
LINE
  8
0
 10
-143.647
 20
410.887
 11
-143.464
 21
411.02
  0
LINE
  8
0
 10
-143.464
 20
411.02
 11
-143.266
 21
411.129
  0
LINE
  8
0
 10
-143.266
 20
411.129
 11
-143.056
 21
411.212
  0
LINE
  8
0
 10
-143.056
 20
411.212
 11
-142.837
 21
411.268
  0
LINE
  8
0
 10
-142.837
 20
411.268
 11
-142.613
 21
411.296
  0
LINE
  8
0
 10
-142.613
 20
411.296
 11
-142.387
 21
411.296
  0
LINE
  8
0
 10
-142.387
 20
411.296
 11
-142.163
 21
411.268
  0
LINE
  8
0
 10
-142.163
 20
411.268
 11
-141.944
 21
411.212
  0
LINE
  8
0
 10
-141.944
 20
411.212
 11
-141.734
 21
411.129
  0
LINE
  8
0
 10
-141.734
 20
411.129
 11
-141.536
 21
411.02
  0
LINE
  8
0
 10
-141.536
 20
411.02
 11
-141.353
 21
410.887
  0
LINE
  8
0
 10
-141.353
 20
410.887
 11
-141.188
 21
410.732
  0
LINE
  8
0
 10
-141.188
 20
410.732
 11
-141.044
 21
410.558
  0
LINE
  8
0
 10
-141.044
 20
410.558
 11
-140.923
 21
410.367
  0
LINE
  8
0
 10
-140.923
 20
410.367
 11
-140.826
 21
410.163
  0
LINE
  8
0
 10
-140.826
 20
410.163
 11
-140.757
 21
409.948
  0
LINE
  8
0
 10
-140.757
 20
409.948
 11
-140.714
 21
409.726
  0
LINE
  8
0
 10
-140.714
 20
409.726
 11
-140.7
 21
409.5
  0
LINE
  8
0
 10
-140.7
 20
409.5
 11
-140.714
 21
409.274
  0
LINE
  8
0
 10
-140.714
 20
409.274
 11
-140.757
 21
409.052
  0
LINE
  8
0
 10
-140.757
 20
409.052
 11
-140.826
 21
408.837
  0
LINE
  8
0
 10
-140.826
 20
408.837
 11
-140.923
 21
408.633
  0
LINE
  8
0
 10
-140.923
 20
408.633
 11
-141.044
 21
408.442
  0
LINE
  8
0
 10
-141.044
 20
408.442
 11
-141.188
 21
408.268
  0
LINE
  8
0
 10
-141.188
 20
408.268
 11
-141.353
 21
408.113
  0
LINE
  8
0
 10
-141.353
 20
408.113
 11
-141.536
 21
407.98
  0
LINE
  8
0
 10
-141.536
 20
407.98
 11
-141.734
 21
407.871
  0
LINE
  8
0
 10
-141.734
 20
407.871
 11
-141.944
 21
407.788
  0
LINE
  8
0
 10
-141.944
 20
407.788
 11
-142.163
 21
407.732
  0
LINE
  8
0
 10
-142.163
 20
407.732
 11
-142.387
 21
407.704
  0
LINE
  8
0
 10
-142.387
 20
407.704
 11
-142.613
 21
407.704
  0
LINE
  8
0
 10
142.387
 20
407.704
 11
142.163
 21
407.732
  0
LINE
  8
0
 10
142.163
 20
407.732
 11
141.944
 21
407.788
  0
LINE
  8
0
 10
141.944
 20
407.788
 11
141.734
 21
407.871
  0
LINE
  8
0
 10
141.734
 20
407.871
 11
141.536
 21
407.98
  0
LINE
  8
0
 10
141.536
 20
407.98
 11
141.353
 21
408.113
  0
LINE
  8
0
 10
141.353
 20
408.113
 11
141.188
 21
408.268
  0
LINE
  8
0
 10
141.188
 20
408.268
 11
141.044
 21
408.442
  0
LINE
  8
0
 10
141.044
 20
408.442
 11
140.923
 21
408.633
  0
LINE
  8
0
 10
140.923
 20
408.633
 11
140.826
 21
408.837
  0
LINE
  8
0
 10
140.826
 20
408.837
 11
140.757
 21
409.052
  0
LINE
  8
0
 10
140.757
 20
409.052
 11
140.714
 21
409.274
  0
LINE
  8
0
 10
140.714
 20
409.274
 11
140.7
 21
409.5
  0
LINE
  8
0
 10
140.7
 20
409.5
 11
140.714
 21
409.726
  0
LINE
  8
0
 10
140.714
 20
409.726
 11
140.757
 21
409.948
  0
LINE
  8
0
 10
140.757
 20
409.948
 11
140.826
 21
410.163
  0
LINE
  8
0
 10
140.826
 20
410.163
 11
140.923
 21
410.367
  0
LINE
  8
0
 10
140.923
 20
410.367
 11
141.044
 21
410.558
  0
LINE
  8
0
 10
141.044
 20
410.558
 11
141.188
 21
410.732
  0
LINE
  8
0
 10
141.188
 20
410.732
 11
141.353
 21
410.887
  0
LINE
  8
0
 10
141.353
 20
410.887
 11
141.536
 21
411.02
  0
LINE
  8
0
 10
141.536
 20
411.02
 11
141.734
 21
411.129
  0
LINE
  8
0
 10
141.734
 20
411.129
 11
141.944
 21
411.212
  0
LINE
  8
0
 10
141.944
 20
411.212
 11
142.163
 21
411.268
  0
LINE
  8
0
 10
142.163
 20
411.268
 11
142.387
 21
411.296
  0
LINE
  8
0
 10
142.387
 20
411.296
 11
142.613
 21
411.296
  0
LINE
  8
0
 10
142.613
 20
411.296
 11
142.837
 21
411.268
  0
LINE
  8
0
 10
142.837
 20
411.268
 11
143.056
 21
411.212
  0
LINE
  8
0
 10
143.056
 20
411.212
 11
143.266
 21
411.129
  0
LINE
  8
0
 10
143.266
 20
411.129
 11
143.464
 21
411.02
  0
LINE
  8
0
 10
143.464
 20
411.02
 11
143.647
 21
410.887
  0
LINE
  8
0
 10
143.647
 20
410.887
 11
143.812
 21
410.732
  0
LINE
  8
0
 10
143.812
 20
410.732
 11
143.956
 21
410.558
  0
LINE
  8
0
 10
143.956
 20
410.558
 11
144.077
 21
410.367
  0
LINE
  8
0
 10
144.077
 20
410.367
 11
144.174
 21
410.163
  0
LINE
  8
0
 10
144.174
 20
410.163
 11
144.243
 21
409.948
  0
LINE
  8
0
 10
144.243
 20
409.948
 11
144.286
 21
409.726
  0
LINE
  8
0
 10
144.286
 20
409.726
 11
144.3
 21
409.5
  0
LINE
  8
0
 10
144.3
 20
409.5
 11
144.286
 21
409.274
  0
LINE
  8
0
 10
144.286
 20
409.274
 11
144.243
 21
409.052
  0
LINE
  8
0
 10
144.243
 20
409.052
 11
144.174
 21
408.837
  0
LINE
  8
0
 10
144.174
 20
408.837
 11
144.077
 21
408.633
  0
LINE
  8
0
 10
144.077
 20
408.633
 11
143.956
 21
408.442
  0
LINE
  8
0
 10
143.956
 20
408.442
 11
143.812
 21
408.268
  0
LINE
  8
0
 10
143.812
 20
408.268
 11
143.647
 21
408.113
  0
LINE
  8
0
 10
143.647
 20
408.113
 11
143.464
 21
407.98
  0
LINE
  8
0
 10
143.464
 20
407.98
 11
143.266
 21
407.871
  0
LINE
  8
0
 10
143.266
 20
407.871
 11
143.056
 21
407.788
  0
LINE
  8
0
 10
143.056
 20
407.788
 11
142.837
 21
407.732
  0
LINE
  8
0
 10
142.837
 20
407.732
 11
142.613
 21
407.704
  0
LINE
  8
0
 10
142.613
 20
407.704
 11
142.387
 21
407.704
  0
ENDSEC
  0
SECTION
  2
OBJECTS
  0
DICTIONARY
  0
ENDSEC
  0
EOF
