<?xml version="1.0" standalone="no"?>
<!DOCTYPE svg PUBLIC "-//W3C//DTD SVG 1.1//EN" "http://www.w3.org/Graphics/SVG/1.1/DTD/svg11.dtd">
<svg width="302mm" height="627mm" viewBox="-152 -1029 302 627" xmlns="http://www.w3.org/2000/svg" version="1.1">
<title>OpenSCAD Model</title>
<path d="
M -148.5,-880.441 L -148.187,-880.147 L -147.679,-879.778 L -147.129,-879.476 L -146.545,-879.245 L -145.937,-879.089
 L -145.314,-879.01 L 145.314,-879.01 L 145.937,-879.089 L 146.545,-879.245 L 147.129,-879.476 L 147.679,-879.778
 L 148.187,-880.147 L 148.645,-880.577 L 149.045,-881.061 L 149.382,-881.591 L 149.649,-882.159 L 149.843,-882.757
 L 149.961,-883.373 L 150,-884 L 150,-1024 L 149.961,-1024.63 L 149.843,-1025.24 L 149.649,-1025.84
 L 149.382,-1026.41 L 149.045,-1026.94 L 148.645,-1027.42 L 148.187,-1027.85 L 147.679,-1028.22 L 147.129,-1028.52
 L 146.545,-1028.76 L 145.937,-1028.91 L 145.314,-1028.99 L -145.314,-1028.99 L -145.937,-1028.91 L -146.545,-1028.76
 L -147.129,-1028.52 L -147.679,-1028.22 L -148.187,-1027.85 L -148.5,-1027.56 L -148.5,-1028.99 L -151.5,-1028.99
 L -151.5,-879.01 L -148.5,-879.01 z
M -144.751,-880.508 L -145.25,-880.571 L -145.736,-880.696 L -146.203,-880.881 L -146.643,-881.123 L -147.05,-881.418
 L -147.416,-881.762 L -147.736,-882.149 L -148.005,-882.573 L -148.219,-883.028 L -148.374,-883.505 L -148.468,-883.999
 L -148.5,-884.5 L -148.5,-1023.5 L -148.468,-1024 L -148.374,-1024.49 L -148.219,-1024.97 L -148.005,-1025.43
 L -147.736,-1025.85 L -147.416,-1026.24 L -147.05,-1026.58 L -146.643,-1026.88 L -146.203,-1027.12 L -145.736,-1027.3
 L -145.25,-1027.43 L -144.751,-1027.49 L 144.751,-1027.49 L 145.25,-1027.43 L 145.736,-1027.3 L 146.203,-1027.12
 L 146.643,-1026.88 L 147.05,-1026.58 L 147.416,-1026.24 L 147.736,-1025.85 L 148.005,-1025.43 L 148.219,-1024.97
 L 148.374,-1024.49 L 148.468,-1024 L 148.5,-1023.5 L 148.5,-884.5 L 148.468,-883.999 L 148.374,-883.505
 L 148.219,-883.028 L 148.005,-882.573 L 147.736,-882.149 L 147.416,-881.762 L 147.05,-881.418 L 146.643,-881.123
 L 146.203,-880.881 L 145.736,-880.696 L 145.25,-880.571 L 144.751,-880.508 z
M -148.5,-721.441 L -148.187,-721.147 L -147.679,-720.778 L -147.129,-720.476 L -146.545,-720.245 L -145.937,-720.089
 L -145.314,-720.01 L 145.314,-720.01 L 145.937,-720.089 L 146.545,-720.245 L 147.129,-720.476 L 147.679,-720.778
 L 148.187,-721.147 L 148.645,-721.577 L 149.045,-722.061 L 149.382,-722.591 L 149.649,-723.159 L 149.843,-723.757
 L 149.961,-724.373 L 150,-725 L 150,-865 L 149.961,-865.627 L 149.843,-866.243 L 149.649,-866.841
 L 149.382,-867.409 L 149.045,-867.939 L 148.645,-868.423 L 148.187,-868.853 L 147.679,-869.222 L 147.129,-869.524
 L 146.545,-869.755 L 145.937,-869.911 L 145.314,-869.99 L -145.314,-869.99 L -145.937,-869.911 L -146.545,-869.755
 L -147.129,-869.524 L -147.679,-869.222 L -148.187,-868.853 L -148.5,-868.559 L -148.5,-869.99 L -151.5,-869.99
 L -151.5,-720.01 L -148.5,-720.01 z
M -144.743,-721.635 L -145.226,-721.696 L -145.697,-721.817 L -146.149,-721.996 L -146.575,-722.23 L -146.969,-722.516
 L -147.323,-722.849 L -147.633,-723.224 L -147.894,-723.634 L -148.101,-724.074 L -148.251,-724.537 L -148.342,-725.015
 L -148.373,-725.5 L -148.373,-864.5 L -148.342,-864.985 L -148.251,-865.463 L -148.101,-865.926 L -147.894,-866.366
 L -147.633,-866.776 L -147.323,-867.151 L -146.969,-867.484 L -146.575,-867.77 L -146.149,-868.004 L -145.697,-868.183
 L -145.226,-868.304 L -144.743,-868.365 L 144.743,-868.365 L 145.226,-868.304 L 145.697,-868.183 L 146.149,-868.004
 L 146.575,-867.77 L 146.969,-867.484 L 147.323,-867.151 L 147.633,-866.776 L 147.894,-866.366 L 148.101,-865.926
 L 148.251,-865.463 L 148.342,-864.985 L 148.373,-864.5 L 148.373,-725.5 L 148.342,-725.015 L 148.251,-724.537
 L 148.101,-724.074 L 147.894,-723.634 L 147.633,-723.224 L 147.323,-722.849 L 146.969,-722.516 L 146.575,-722.23
 L 146.149,-721.996 L 145.697,-721.817 L 145.226,-721.696 L 144.743,-721.635 z
M 145.937,-561.089 L 146.545,-561.245 L 147.129,-561.476 L 147.679,-561.778 L 148.187,-562.147 L 148.645,-562.577
 L 149.045,-563.061 L 149.382,-563.591 L 149.649,-564.159 L 149.843,-564.757 L 149.961,-565.373 L 150,-566
 L 150,-706 L 149.961,-706.627 L 149.843,-707.243 L 149.649,-707.841 L 149.382,-708.409 L 149.045,-708.939
 L 148.645,-709.423 L 148.187,-709.853 L 147.679,-710.222 L 147.129,-710.524 L 146.545,-710.755 L 145.937,-710.911
 L 145.314,-710.99 L -145.314,-710.99 L -145.937,-710.911 L -146.545,-710.755 L -147.129,-710.524 L -147.679,-710.222
 L -148.187,-709.853 L -148.5,-709.559 L -148.5,-710.615 L -151.5,-710.615 L -151.5,-561.385 L -148.5,-561.385
 L -148.5,-562.441 L -148.187,-562.147 L -147.679,-561.778 L -147.129,-561.476 L -146.545,-561.245 L -145.937,-561.089
 L -145.314,-561.01 L 145.314,-561.01 z
M -142.651,-701.105 L -142.95,-701.143 L -143.242,-701.217 L -143.522,-701.328 L -143.786,-701.474 L -144.03,-701.651
 L -144.25,-701.857 L -144.442,-702.089 L -144.603,-702.344 L -144.731,-702.617 L -144.825,-702.903 L -144.881,-703.199
 L -144.9,-703.5 L -144.881,-703.801 L -144.825,-704.097 L -144.731,-704.383 L -144.603,-704.656 L -144.442,-704.911
 L -144.25,-705.143 L -144.03,-705.349 L -143.786,-705.526 L -143.522,-705.672 L -143.242,-705.783 L -142.95,-705.857
 L -142.651,-705.895 L -142.349,-705.895 L -142.05,-705.857 L -141.758,-705.783 L -141.478,-705.672 L -141.214,-705.526
 L -140.97,-705.349 L -140.75,-705.143 L -140.558,-704.911 L -140.397,-704.656 L -140.269,-704.383 L -140.175,-704.097
 L -140.119,-703.801 L -140.1,-703.5 L -140.119,-703.199 L -140.175,-702.903 L -140.269,-702.617 L -140.397,-702.344
 L -140.558,-702.089 L -140.75,-701.857 L -140.97,-701.651 L -141.214,-701.474 L -141.478,-701.328 L -141.758,-701.217
 L -142.05,-701.143 L -142.349,-701.105 z
M 142.349,-701.105 L 142.05,-701.143 L 141.758,-701.217 L 141.478,-701.328 L 141.214,-701.474 L 140.97,-701.651
 L 140.75,-701.857 L 140.558,-702.089 L 140.397,-702.344 L 140.269,-702.617 L 140.175,-702.903 L 140.119,-703.199
 L 140.1,-703.5 L 140.119,-703.801 L 140.175,-704.097 L 140.269,-704.383 L 140.397,-704.656 L 140.558,-704.911
 L 140.75,-705.143 L 140.97,-705.349 L 141.214,-705.526 L 141.478,-705.672 L 141.758,-705.783 L 142.05,-705.857
 L 142.349,-705.895 L 142.651,-705.895 L 142.95,-705.857 L 143.242,-705.783 L 143.522,-705.672 L 143.786,-705.526
 L 144.03,-705.349 L 144.25,-705.143 L 144.442,-704.911 L 144.603,-704.656 L 144.731,-704.383 L 144.825,-704.097
 L 144.881,-703.801 L 144.9,-703.5 L 144.881,-703.199 L 144.825,-702.903 L 144.731,-702.617 L 144.603,-702.344
 L 144.442,-702.089 L 144.25,-701.857 L 144.03,-701.651 L 143.786,-701.474 L 143.522,-701.328 L 143.242,-701.217
 L 142.95,-701.143 L 142.651,-701.105 z
M 142.349,-566.105 L 142.05,-566.143 L 141.758,-566.217 L 141.478,-566.328 L 141.214,-566.474 L 140.97,-566.651
 L 140.75,-566.857 L 140.558,-567.089 L 140.397,-567.344 L 140.269,-567.617 L 140.175,-567.903 L 140.119,-568.199
 L 140.1,-568.5 L 140.119,-568.801 L 140.175,-569.097 L 140.269,-569.383 L 140.397,-569.656 L 140.558,-569.911
 L 140.75,-570.143 L 140.97,-570.349 L 141.214,-570.526 L 141.478,-570.672 L 141.758,-570.783 L 142.05,-570.857
 L 142.349,-570.895 L 142.651,-570.895 L 142.95,-570.857 L 143.242,-570.783 L 143.522,-570.672 L 143.786,-570.526
 L 144.03,-570.349 L 144.25,-570.143 L 144.442,-569.911 L 144.603,-569.656 L 144.731,-569.383 L 144.825,-569.097
 L 144.881,-568.801 L 144.9,-568.5 L 144.881,-568.199 L 144.825,-567.903 L 144.731,-567.617 L 144.603,-567.344
 L 144.442,-567.089 L 144.25,-566.857 L 144.03,-566.651 L 143.786,-566.474 L 143.522,-566.328 L 143.242,-566.217
 L 142.95,-566.143 L 142.651,-566.105 z
M -142.651,-566.105 L -142.95,-566.143 L -143.242,-566.217 L -143.522,-566.328 L -143.786,-566.474 L -144.03,-566.651
 L -144.25,-566.857 L -144.442,-567.089 L -144.603,-567.344 L -144.731,-567.617 L -144.825,-567.903 L -144.881,-568.199
 L -144.9,-568.5 L -144.881,-568.801 L -144.825,-569.097 L -144.731,-569.383 L -144.603,-569.656 L -144.442,-569.911
 L -144.25,-570.143 L -144.03,-570.349 L -143.786,-570.526 L -143.522,-570.672 L -143.242,-570.783 L -142.95,-570.857
 L -142.651,-570.895 L -142.349,-570.895 L -142.05,-570.857 L -141.758,-570.783 L -141.478,-570.672 L -141.214,-570.526
 L -140.97,-570.349 L -140.75,-570.143 L -140.558,-569.911 L -140.397,-569.656 L -140.269,-569.383 L -140.175,-569.097
 L -140.119,-568.801 L -140.1,-568.5 L -140.119,-568.199 L -140.175,-567.903 L -140.269,-567.617 L -140.397,-567.344
 L -140.558,-567.089 L -140.75,-566.857 L -140.97,-566.651 L -141.214,-566.474 L -141.478,-566.328 L -141.758,-566.217
 L -142.05,-566.143 L -142.349,-566.105 z
M 145.937,-402.089 L 146.545,-402.245 L 147.129,-402.476 L 147.679,-402.778 L 148.187,-403.147 L 148.645,-403.577
 L 149.045,-404.061 L 149.382,-404.591 L 149.649,-405.159 L 149.843,-405.757 L 149.961,-406.373 L 150,-407
 L 150,-547 L 149.961,-547.627 L 149.843,-548.243 L 149.649,-548.841 L 149.382,-549.409 L 149.045,-549.939
 L 148.645,-550.423 L 148.187,-550.853 L 147.679,-551.222 L 147.129,-551.524 L 146.545,-551.755 L 145.937,-551.911
 L 145.314,-551.99 L -145.314,-551.99 L -145.937,-551.911 L -146.545,-551.755 L -147.129,-551.524 L -147.679,-551.222
 L -148.187,-550.853 L -148.645,-550.423 L -149.045,-549.939 L -149.382,-549.409 L -149.649,-548.841 L -149.843,-548.243
 L -149.9,-547.944 L -151.5,-547.944 L -151.5,-406.056 L -149.9,-406.056 L -149.843,-405.757 L -149.649,-405.159
 L -149.382,-404.591 L -149.045,-404.061 L -148.645,-403.577 L -148.187,-403.147 L -147.679,-402.778 L -147.129,-402.476
 L -146.545,-402.245 L -145.937,-402.089 L -145.314,-402.01 L 145.314,-402.01 z
M -142.613,-542.704 L -142.837,-542.732 L -143.056,-542.788 L -143.266,-542.871 L -143.464,-542.98 L -143.647,-543.113
 L -143.812,-543.268 L -143.956,-543.442 L -144.077,-543.633 L -144.174,-543.837 L -144.243,-544.052 L -144.286,-544.274
 L -144.3,-544.5 L -144.286,-544.726 L -144.243,-544.948 L -144.174,-545.163 L -144.077,-545.367 L -143.956,-545.558
 L -143.812,-545.732 L -143.647,-545.887 L -143.464,-546.02 L -143.266,-546.129 L -143.056,-546.212 L -142.837,-546.268
 L -142.613,-546.296 L -142.387,-546.296 L -142.163,-546.268 L -141.944,-546.212 L -141.734,-546.129 L -141.536,-546.02
 L -141.353,-545.887 L -141.188,-545.732 L -141.044,-545.558 L -140.923,-545.367 L -140.826,-545.163 L -140.757,-544.948
 L -140.714,-544.726 L -140.7,-544.5 L -140.714,-544.274 L -140.757,-544.052 L -140.826,-543.837 L -140.923,-543.633
 L -141.044,-543.442 L -141.188,-543.268 L -141.353,-543.113 L -141.536,-542.98 L -141.734,-542.871 L -141.944,-542.788
 L -142.163,-542.732 L -142.387,-542.704 z
M 142.387,-542.704 L 142.163,-542.732 L 141.944,-542.788 L 141.734,-542.871 L 141.536,-542.98 L 141.353,-543.113
 L 141.188,-543.268 L 141.044,-543.442 L 140.923,-543.633 L 140.826,-543.837 L 140.757,-544.052 L 140.714,-544.274
 L 140.7,-544.5 L 140.714,-544.726 L 140.757,-544.948 L 140.826,-545.163 L 140.923,-545.367 L 141.044,-545.558
 L 141.188,-545.732 L 141.353,-545.887 L 141.536,-546.02 L 141.734,-546.129 L 141.944,-546.212 L 142.163,-546.268
 L 142.387,-546.296 L 142.613,-546.296 L 142.837,-546.268 L 143.056,-546.212 L 143.266,-546.129 L 143.464,-546.02
 L 143.647,-545.887 L 143.812,-545.732 L 143.956,-545.558 L 144.077,-545.367 L 144.174,-545.163 L 144.243,-544.948
 L 144.286,-544.726 L 144.3,-544.5 L 144.286,-544.274 L 144.243,-544.052 L 144.174,-543.837 L 144.077,-543.633
 L 143.956,-543.442 L 143.812,-543.268 L 143.647,-543.113 L 143.464,-542.98 L 143.266,-542.871 L 143.056,-542.788
 L 142.837,-542.732 L 142.613,-542.704 z
M -142.613,-407.704 L -142.837,-407.732 L -143.056,-407.788 L -143.266,-407.871 L -143.464,-407.98 L -143.647,-408.113
 L -143.812,-408.268 L -143.956,-408.442 L -144.077,-408.633 L -144.174,-408.837 L -144.243,-409.052 L -144.286,-409.274
 L -144.3,-409.5 L -144.286,-409.726 L -144.243,-409.948 L -144.174,-410.163 L -144.077,-410.367 L -143.956,-410.558
 L -143.812,-410.732 L -143.647,-410.887 L -143.464,-411.02 L -143.266,-411.129 L -143.056,-411.212 L -142.837,-411.268
 L -142.613,-411.296 L -142.387,-411.296 L -142.163,-411.268 L -141.944,-411.212 L -141.734,-411.129 L -141.536,-411.02
 L -141.353,-410.887 L -141.188,-410.732 L -141.044,-410.558 L -140.923,-410.367 L -140.826,-410.163 L -140.757,-409.948
 L -140.714,-409.726 L -140.7,-409.5 L -140.714,-409.274 L -140.757,-409.052 L -140.826,-408.837 L -140.923,-408.633
 L -141.044,-408.442 L -141.188,-408.268 L -141.353,-408.113 L -141.536,-407.98 L -141.734,-407.871 L -141.944,-407.788
 L -142.163,-407.732 L -142.387,-407.704 z
M 142.387,-407.704 L 142.163,-407.732 L 141.944,-407.788 L 141.734,-407.871 L 141.536,-407.98 L 141.353,-408.113
 L 141.188,-408.268 L 141.044,-408.442 L 140.923,-408.633 L 140.826,-408.837 L 140.757,-409.052 L 140.714,-409.274
 L 140.7,-409.5 L 140.714,-409.726 L 140.757,-409.948 L 140.826,-410.163 L 140.923,-410.367 L 141.044,-410.558
 L 141.188,-410.732 L 141.353,-410.887 L 141.536,-411.02 L 141.734,-411.129 L 141.944,-411.212 L 142.163,-411.268
 L 142.387,-411.296 L 142.613,-411.296 L 142.837,-411.268 L 143.056,-411.212 L 143.266,-411.129 L 143.464,-411.02
 L 143.647,-410.887 L 143.812,-410.732 L 143.956,-410.558 L 144.077,-410.367 L 144.174,-410.163 L 144.243,-409.948
 L 144.286,-409.726 L 144.3,-409.5 L 144.286,-409.274 L 144.243,-409.052 L 144.174,-408.837 L 144.077,-408.633
 L 143.956,-408.442 L 143.812,-408.268 L 143.647,-408.113 L 143.464,-407.98 L 143.266,-407.871 L 143.056,-407.788
 L 142.837,-407.732 L 142.613,-407.704 z
" stroke="black" fill="lightgray" stroke-width="0.5"/>
</svg>
