<?xml version="1.0" standalone="no"?>
<!DOCTYPE svg PUBLIC "-//W3C//DTD SVG 1.1//EN" "http://www.w3.org/Graphics/SVG/1.1/DTD/svg11.dtd">
<svg width="257mm" height="108mm" viewBox="-129 -210 257 108" xmlns="http://www.w3.org/2000/svg" version="1.1">
<title>OpenSCAD Model</title>
<path d="
M -126,-181.441 L -125.687,-181.147 L -125.179,-180.778 L -124.629,-180.476 L -124.045,-180.245 L -123.437,-180.089
 L -122.814,-180.01 L 122.814,-180.01 L 123.437,-180.089 L 124.045,-180.245 L 124.629,-180.476 L 125.179,-180.778
 L 125.687,-181.147 L 126.145,-181.577 L 126.545,-182.061 L 126.882,-182.591 L 127.149,-183.159 L 127.343,-183.757
 L 127.461,-184.373 L 127.5,-185 L 127.5,-205 L 127.461,-205.627 L 127.343,-206.243 L 127.149,-206.841
 L 126.882,-207.409 L 126.545,-207.939 L 126.145,-208.423 L 125.687,-208.853 L 125.179,-209.222 L 124.629,-209.524
 L 124.045,-209.755 L 123.437,-209.911 L 122.814,-209.99 L -122.814,-209.99 L -123.437,-209.911 L -124.045,-209.755
 L -124.629,-209.524 L -125.179,-209.222 L -125.687,-208.853 L -126,-208.559 L -126,-209.99 L -129,-209.99
 L -129,-180.01 L -126,-180.01 z
M -122.251,-181.508 L -122.75,-181.571 L -123.236,-181.696 L -123.703,-181.881 L -124.143,-182.123 L -124.55,-182.418
 L -124.916,-182.762 L -125.236,-183.149 L -125.505,-183.573 L -125.719,-184.028 L -125.874,-184.505 L -125.968,-184.999
 L -126,-185.5 L -126,-204.5 L -125.968,-205.001 L -125.874,-205.495 L -125.719,-205.972 L -125.505,-206.427
 L -125.236,-206.851 L -124.916,-207.238 L -124.55,-207.582 L -124.143,-207.877 L -123.703,-208.119 L -123.236,-208.304
 L -122.75,-208.429 L -122.251,-208.492 L 122.251,-208.492 L 122.75,-208.429 L 123.236,-208.304 L 123.703,-208.119
 L 124.143,-207.877 L 124.55,-207.582 L 124.916,-207.238 L 125.236,-206.851 L 125.505,-206.427 L 125.719,-205.972
 L 125.874,-205.495 L 125.968,-205.001 L 126,-204.5 L 126,-185.5 L 125.968,-184.999 L 125.874,-184.505
 L 125.719,-184.028 L 125.505,-183.573 L 125.236,-183.149 L 124.916,-182.762 L 124.55,-182.418 L 124.143,-182.123
 L 123.703,-181.881 L 123.236,-181.696 L 122.75,-181.571 L 122.251,-181.508 z
M 123.437,-141.089 L 124.045,-141.245 L 124.629,-141.476 L 125.179,-141.778 L 125.687,-142.147 L 126.145,-142.577
 L 126.545,-143.061 L 126.882,-143.591 L 127.149,-144.159 L 127.343,-144.757 L 127.461,-145.373 L 127.5,-146
 L 127.5,-166 L 127.461,-166.627 L 127.343,-167.243 L 127.149,-167.841 L 126.882,-168.409 L 126.545,-168.939
 L 126.145,-169.423 L 125.687,-169.853 L 125.179,-170.222 L 124.629,-170.524 L 124.045,-170.755 L 123.437,-170.911
 L 122.814,-170.99 L -122.814,-170.99 L -123.437,-170.911 L -124.045,-170.755 L -124.629,-170.524 L -125.179,-170.222
 L -125.687,-169.853 L -126,-169.559 L -126,-170.979 L -129,-170.979 L -129,-141.021 L -126,-141.021
 L -126,-142.441 L -125.687,-142.147 L -125.179,-141.778 L -124.629,-141.476 L -124.045,-141.245 L -123.437,-141.089
 L -122.814,-141.01 L 122.814,-141.01 z
M -122.195,-143.393 L -122.583,-143.442 L -122.962,-143.539 L -123.325,-143.683 L -123.668,-143.872 L -123.984,-144.101
 L -124.269,-144.369 L -124.518,-144.67 L -124.728,-145 L -124.894,-145.354 L -125.015,-145.726 L -125.088,-146.11
 L -125.113,-146.5 L -125.113,-165.5 L -125.088,-165.89 L -125.015,-166.274 L -124.894,-166.646 L -124.728,-167
 L -124.518,-167.33 L -124.269,-167.631 L -123.984,-167.899 L -123.668,-168.128 L -123.325,-168.317 L -122.962,-168.461
 L -122.583,-168.558 L -122.195,-168.607 L 122.195,-168.607 L 122.583,-168.558 L 122.962,-168.461 L 123.325,-168.317
 L 123.668,-168.128 L 123.984,-167.899 L 124.269,-167.631 L 124.518,-167.33 L 124.728,-167 L 124.894,-166.646
 L 125.015,-166.274 L 125.088,-165.89 L 125.113,-165.5 L 125.113,-146.5 L 125.088,-146.11 L 125.015,-145.726
 L 124.894,-145.354 L 124.728,-145 L 124.518,-144.67 L 124.269,-144.369 L 123.984,-144.101 L 123.668,-143.872
 L 123.325,-143.683 L 122.962,-143.539 L 122.583,-143.442 L 122.195,-143.393 z
M 123.437,-102.089 L 124.045,-102.245 L 124.629,-102.476 L 125.179,-102.778 L 125.687,-103.147 L 126.145,-103.577
 L 126.545,-104.061 L 126.882,-104.591 L 127.149,-105.159 L 127.343,-105.757 L 127.461,-106.373 L 127.5,-107
 L 127.5,-127 L 127.461,-127.627 L 127.343,-128.243 L 127.149,-128.841 L 126.882,-129.409 L 126.545,-129.939
 L 126.145,-130.423 L 125.687,-130.853 L 125.179,-131.222 L 124.629,-131.524 L 124.045,-131.755 L 123.437,-131.911
 L 122.814,-131.99 L -122.814,-131.99 L -123.437,-131.911 L -124.045,-131.755 L -124.629,-131.524 L -125.179,-131.222
 L -125.687,-130.853 L -126,-130.559 L -126,-130.653 L -129,-130.653 L -129,-103.347 L -126,-103.347
 L -126,-103.441 L -125.687,-103.147 L -125.179,-102.778 L -124.629,-102.476 L -124.045,-102.245 L -123.437,-102.089
 L -122.814,-102.01 L 122.814,-102.01 z
M 119.866,-122.369 L 119.6,-122.403 L 119.34,-122.469 L 119.091,-122.568 L 118.856,-122.697 L 118.639,-122.855
 L 118.443,-123.038 L 118.273,-123.245 L 118.129,-123.471 L 118.015,-123.714 L 117.932,-123.969 L 117.882,-124.232
 L 117.865,-124.5 L 117.882,-124.768 L 117.932,-125.031 L 118.015,-125.286 L 118.129,-125.529 L 118.273,-125.755
 L 118.443,-125.962 L 118.639,-126.145 L 118.856,-126.303 L 119.091,-126.432 L 119.34,-126.531 L 119.6,-126.597
 L 119.866,-126.631 L 120.134,-126.631 L 120.4,-126.597 L 120.66,-126.531 L 120.909,-126.432 L 121.144,-126.303
 L 121.361,-126.145 L 121.557,-125.962 L 121.727,-125.755 L 121.871,-125.529 L 121.985,-125.286 L 122.068,-125.031
 L 122.118,-124.768 L 122.135,-124.5 L 122.118,-124.232 L 122.068,-123.969 L 121.985,-123.714 L 121.871,-123.471
 L 121.727,-123.245 L 121.557,-123.038 L 121.361,-122.855 L 121.144,-122.697 L 120.909,-122.568 L 120.66,-122.469
 L 120.4,-122.403 L 120.134,-122.369 z
M -120.134,-122.369 L -120.4,-122.403 L -120.66,-122.469 L -120.909,-122.568 L -121.144,-122.697 L -121.361,-122.855
 L -121.557,-123.038 L -121.727,-123.245 L -121.871,-123.471 L -121.985,-123.714 L -122.068,-123.969 L -122.118,-124.232
 L -122.135,-124.5 L -122.118,-124.768 L -122.068,-125.031 L -121.985,-125.286 L -121.871,-125.529 L -121.727,-125.755
 L -121.557,-125.962 L -121.361,-126.145 L -121.144,-126.303 L -120.909,-126.432 L -120.66,-126.531 L -120.4,-126.597
 L -120.134,-126.631 L -119.866,-126.631 L -119.6,-126.597 L -119.34,-126.531 L -119.091,-126.432 L -118.856,-126.303
 L -118.639,-126.145 L -118.443,-125.962 L -118.273,-125.755 L -118.129,-125.529 L -118.015,-125.286 L -117.932,-125.031
 L -117.882,-124.768 L -117.865,-124.5 L -117.882,-124.232 L -117.932,-123.969 L -118.015,-123.714 L -118.129,-123.471
 L -118.273,-123.245 L -118.443,-123.038 L -118.639,-122.855 L -118.856,-122.697 L -119.091,-122.568 L -119.34,-122.469
 L -119.6,-122.403 L -119.866,-122.369 z
M 119.866,-107.369 L 119.6,-107.403 L 119.34,-107.469 L 119.091,-107.568 L 118.856,-107.697 L 118.639,-107.855
 L 118.443,-108.038 L 118.273,-108.245 L 118.129,-108.471 L 118.015,-108.714 L 117.932,-108.969 L 117.882,-109.232
 L 117.865,-109.5 L 117.882,-109.768 L 117.932,-110.031 L 118.015,-110.286 L 118.129,-110.529 L 118.273,-110.755
 L 118.443,-110.962 L 118.639,-111.145 L 118.856,-111.303 L 119.091,-111.432 L 119.34,-111.531 L 119.6,-111.597
 L 119.866,-111.631 L 120.134,-111.631 L 120.4,-111.597 L 120.66,-111.531 L 120.909,-111.432 L 121.144,-111.303
 L 121.361,-111.145 L 121.557,-110.962 L 121.727,-110.755 L 121.871,-110.529 L 121.985,-110.286 L 122.068,-110.031
 L 122.118,-109.768 L 122.135,-109.5 L 122.118,-109.232 L 122.068,-108.969 L 121.985,-108.714 L 121.871,-108.471
 L 121.727,-108.245 L 121.557,-108.038 L 121.361,-107.855 L 121.144,-107.697 L 120.909,-107.568 L 120.66,-107.469
 L 120.4,-107.403 L 120.134,-107.369 z
M -120.134,-107.369 L -120.4,-107.403 L -120.66,-107.469 L -120.909,-107.568 L -121.144,-107.697 L -121.361,-107.855
 L -121.557,-108.038 L -121.727,-108.245 L -121.871,-108.471 L -121.985,-108.714 L -122.068,-108.969 L -122.118,-109.232
 L -122.135,-109.5 L -122.118,-109.768 L -122.068,-110.031 L -121.985,-110.286 L -121.871,-110.529 L -121.727,-110.755
 L -121.557,-110.962 L -121.361,-111.145 L -121.144,-111.303 L -120.909,-111.432 L -120.66,-111.531 L -120.4,-111.597
 L -120.134,-111.631 L -119.866,-111.631 L -119.6,-111.597 L -119.34,-111.531 L -119.091,-111.432 L -118.856,-111.303
 L -118.639,-111.145 L -118.443,-110.962 L -118.273,-110.755 L -118.129,-110.529 L -118.015,-110.286 L -117.932,-110.031
 L -117.882,-109.768 L -117.865,-109.5 L -117.882,-109.232 L -117.932,-108.969 L -118.015,-108.714 L -118.129,-108.471
 L -118.273,-108.245 L -118.443,-108.038 L -118.639,-107.855 L -118.856,-107.697 L -119.091,-107.568 L -119.34,-107.469
 L -119.6,-107.403 L -119.866,-107.369 z
" stroke="black" fill="lightgray" stroke-width="0.5"/>
</svg>
