<?xml version="1.0" standalone="no"?>
<!DOCTYPE svg PUBLIC "-//W3C//DTD SVG 1.1//EN" "http://www.w3.org/Graphics/SVG/1.1/DTD/svg11.dtd">
<svg width="240mm" height="87mm" viewBox="-120 -138 240 87" xmlns="http://www.w3.org/2000/svg" version="1.1">
<title>OpenSCAD Model</title>
<path d="
M 115.937,-114.839 L 116.545,-114.995 L 117.129,-115.226 L 117.679,-115.528 L 118.187,-115.897 L 118.645,-116.327
 L 119.045,-116.811 L 119.382,-117.341 L 119.649,-117.909 L 119.843,-118.507 L 119.961,-119.123 L 120,-119.75
 L 120,-132.25 L 119.961,-132.877 L 119.843,-133.493 L 119.649,-134.091 L 119.382,-134.659 L 119.045,-135.189
 L 118.645,-135.673 L 118.187,-136.103 L 117.679,-136.472 L 117.129,-136.774 L 116.545,-137.005 L 115.937,-137.161
 L 115.314,-137.24 L -115.314,-137.24 L -115.937,-137.161 L -116.545,-137.005 L -117.129,-136.774 L -117.679,-136.472
 L -118.187,-136.103 L -118.645,-135.673 L -119.045,-135.189 L -119.382,-134.659 L -119.649,-134.091 L -119.843,-133.493
 L -119.961,-132.877 L -120,-132.25 L -120,-119.75 L -119.961,-119.123 L -119.843,-118.507 L -119.649,-117.909
 L -119.382,-117.341 L -119.045,-116.811 L -118.645,-116.327 L -118.187,-115.897 L -117.679,-115.528 L -117.129,-115.226
 L -116.545,-114.995 L -115.937,-114.839 L -115.314,-114.76 L 115.314,-114.76 z
M -115.048,-115.259 L -115.64,-115.334 L -116.218,-115.482 L -116.772,-115.702 L -117.295,-115.989 L -117.778,-116.34
 L -118.213,-116.748 L -118.593,-117.208 L -118.912,-117.712 L -119.166,-118.251 L -119.351,-118.819 L -119.463,-119.405
 L -119.5,-120 L -119.5,-132 L -119.463,-132.595 L -119.351,-133.181 L -119.166,-133.749 L -118.912,-134.288
 L -118.593,-134.792 L -118.213,-135.252 L -117.778,-135.66 L -117.295,-136.011 L -116.772,-136.298 L -116.218,-136.518
 L -115.64,-136.666 L -115.048,-136.741 L 115.048,-136.741 L 115.64,-136.666 L 116.218,-136.518 L 116.772,-136.298
 L 117.295,-136.011 L 117.778,-135.66 L 118.213,-135.252 L 118.593,-134.792 L 118.912,-134.288 L 119.166,-133.749
 L 119.351,-133.181 L 119.463,-132.595 L 119.5,-132 L 119.5,-120 L 119.463,-119.405 L 119.351,-118.819
 L 119.166,-118.251 L 118.912,-117.712 L 118.593,-117.208 L 118.213,-116.748 L 117.778,-116.34 L 117.295,-115.989
 L 116.772,-115.702 L 116.218,-115.482 L 115.64,-115.334 L 115.048,-115.259 z
M 115.937,-83.3386 L 116.545,-83.4947 L 117.129,-83.7259 L 117.679,-84.0284 L 118.187,-84.3974 L 118.645,-84.8273
 L 119.045,-85.3111 L 119.382,-85.8412 L 119.649,-86.4094 L 119.843,-87.0066 L 119.961,-87.6233 L 120,-88.25
 L 120,-100.75 L 119.961,-101.377 L 119.843,-101.993 L 119.649,-102.591 L 119.382,-103.159 L 119.045,-103.689
 L 118.645,-104.173 L 118.187,-104.603 L 117.679,-104.972 L 117.129,-105.274 L 116.545,-105.505 L 115.937,-105.661
 L 115.314,-105.74 L -115.314,-105.74 L -115.937,-105.661 L -116.545,-105.505 L -117.129,-105.274 L -117.679,-104.972
 L -118.187,-104.603 L -118.645,-104.173 L -119.045,-103.689 L -119.382,-103.159 L -119.649,-102.591 L -119.843,-101.993
 L -119.961,-101.377 L -120,-100.75 L -120,-88.25 L -119.961,-87.6233 L -119.843,-87.0066 L -119.649,-86.4094
 L -119.382,-85.8412 L -119.045,-85.3111 L -118.645,-84.8273 L -118.187,-84.3974 L -117.679,-84.0284 L -117.129,-83.7259
 L -116.545,-83.4947 L -115.937,-83.3386 L -115.314,-83.2599 L 115.314,-83.2599 z
M -114.993,-84.6382 L -115.475,-84.6991 L -115.946,-84.8199 L -116.398,-84.9988 L -116.823,-85.2329 L -117.216,-85.5185
 L -117.571,-85.8512 L -117.88,-86.2256 L -118.141,-86.6359 L -118.348,-87.0756 L -118.498,-87.5377 L -118.589,-88.015
 L -118.619,-88.5 L -118.619,-100.5 L -118.589,-100.985 L -118.498,-101.462 L -118.348,-101.924 L -118.141,-102.364
 L -117.88,-102.774 L -117.571,-103.149 L -117.216,-103.481 L -116.823,-103.767 L -116.398,-104.001 L -115.946,-104.18
 L -115.475,-104.301 L -114.993,-104.362 L 114.993,-104.362 L 115.475,-104.301 L 115.946,-104.18 L 116.398,-104.001
 L 116.823,-103.767 L 117.216,-103.481 L 117.571,-103.149 L 117.88,-102.774 L 118.141,-102.364 L 118.348,-101.924
 L 118.498,-101.462 L 118.589,-100.985 L 118.619,-100.5 L 118.619,-88.5 L 118.589,-88.015 L 118.498,-87.5377
 L 118.348,-87.0756 L 118.141,-86.6359 L 117.88,-86.2256 L 117.571,-85.8512 L 117.216,-85.5185 L 116.823,-85.2329
 L 116.398,-84.9988 L 115.946,-84.8199 L 115.475,-84.6991 L 114.993,-84.6382 z
M 115.937,-51.8386 L 116.545,-51.9947 L 117.129,-52.2259 L 117.679,-52.5284 L 118.187,-52.8974 L 118.645,-53.3273
 L 119.045,-53.8111 L 119.382,-54.3412 L 119.649,-54.9094 L 119.843,-55.5066 L 119.961,-56.1233 L 120,-56.75
 L 120,-69.25 L 119.961,-69.8767 L 119.843,-70.4934 L 119.649,-71.0906 L 119.382,-71.6588 L 119.045,-72.1889
 L 118.645,-72.6727 L 118.187,-73.1026 L 117.679,-73.4716 L 117.129,-73.7741 L 116.545,-74.0053 L 115.937,-74.1614
 L 115.314,-74.2401 L -115.314,-74.2401 L -115.937,-74.1614 L -116.545,-74.0053 L -117.129,-73.7741 L -117.679,-73.4716
 L -118.187,-73.1026 L -118.645,-72.6727 L -119.045,-72.1889 L -119.382,-71.6588 L -119.649,-71.0906 L -119.843,-70.4934
 L -119.961,-69.8767 L -120,-69.25 L -120,-56.75 L -119.961,-56.1233 L -119.843,-55.5066 L -119.649,-54.9094
 L -119.382,-54.3412 L -119.045,-53.8111 L -118.645,-53.3273 L -118.187,-52.8974 L -117.679,-52.5284 L -117.129,-52.2259
 L -116.545,-51.9947 L -115.937,-51.8386 L -115.314,-51.7599 L 115.314,-51.7599 z
M -112.613,-64.9536 L -112.837,-64.9819 L -113.056,-65.0381 L -113.266,-65.1213 L -113.464,-65.2302 L -113.647,-65.3631
 L -113.812,-65.5178 L -113.956,-65.692 L -114.077,-65.8828 L -114.174,-66.0874 L -114.243,-66.3024 L -114.286,-66.5244
 L -114.3,-66.75 L -114.286,-66.9756 L -114.243,-67.1976 L -114.174,-67.4126 L -114.077,-67.6171 L -113.956,-67.808
 L -113.812,-67.9822 L -113.647,-68.1369 L -113.464,-68.2698 L -113.266,-68.3787 L -113.056,-68.4619 L -112.837,-68.5181
 L -112.613,-68.5464 L -112.387,-68.5464 L -112.163,-68.5181 L -111.944,-68.4619 L -111.734,-68.3787 L -111.536,-68.2698
 L -111.353,-68.1369 L -111.188,-67.9822 L -111.044,-67.808 L -110.923,-67.6171 L -110.826,-67.4126 L -110.757,-67.1976
 L -110.714,-66.9756 L -110.7,-66.75 L -110.714,-66.5244 L -110.757,-66.3024 L -110.826,-66.0874 L -110.923,-65.8828
 L -111.044,-65.692 L -111.188,-65.5178 L -111.353,-65.3631 L -111.536,-65.2302 L -111.734,-65.1213 L -111.944,-65.0381
 L -112.163,-64.9819 L -112.387,-64.9536 z
M 112.387,-64.9536 L 112.163,-64.9819 L 111.944,-65.0381 L 111.734,-65.1213 L 111.536,-65.2302 L 111.353,-65.3631
 L 111.188,-65.5178 L 111.044,-65.692 L 110.923,-65.8828 L 110.826,-66.0874 L 110.757,-66.3024 L 110.714,-66.5244
 L 110.7,-66.75 L 110.714,-66.9756 L 110.757,-67.1976 L 110.826,-67.4126 L 110.923,-67.6171 L 111.044,-67.808
 L 111.188,-67.9822 L 111.353,-68.1369 L 111.536,-68.2698 L 111.734,-68.3787 L 111.944,-68.4619 L 112.163,-68.5181
 L 112.387,-68.5464 L 112.613,-68.5464 L 112.837,-68.5181 L 113.056,-68.4619 L 113.266,-68.3787 L 113.464,-68.2698
 L 113.647,-68.1369 L 113.812,-67.9822 L 113.956,-67.808 L 114.077,-67.6171 L 114.174,-67.4126 L 114.243,-67.1976
 L 114.286,-66.9756 L 114.3,-66.75 L 114.286,-66.5244 L 114.243,-66.3024 L 114.174,-66.0874 L 114.077,-65.8828
 L 113.956,-65.692 L 113.812,-65.5178 L 113.647,-65.3631 L 113.464,-65.2302 L 113.266,-65.1213 L 113.056,-65.0381
 L 112.837,-64.9819 L 112.613,-64.9536 z
M 112.387,-57.4536 L 112.163,-57.4819 L 111.944,-57.5381 L 111.734,-57.6213 L 111.536,-57.7302 L 111.353,-57.8631
 L 111.188,-58.0178 L 111.044,-58.192 L 110.923,-58.3829 L 110.826,-58.5874 L 110.757,-58.8024 L 110.714,-59.0244
 L 110.7,-59.25 L 110.714,-59.4756 L 110.757,-59.6976 L 110.826,-59.9126 L 110.923,-60.1172 L 111.044,-60.308
 L 111.188,-60.4822 L 111.353,-60.6369 L 111.536,-60.7698 L 111.734,-60.8787 L 111.944,-60.9619 L 112.163,-61.0181
 L 112.387,-61.0464 L 112.613,-61.0464 L 112.837,-61.0181 L 113.056,-60.9619 L 113.266,-60.8787 L 113.464,-60.7698
 L 113.647,-60.6369 L 113.812,-60.4822 L 113.956,-60.308 L 114.077,-60.1172 L 114.174,-59.9126 L 114.243,-59.6976
 L 114.286,-59.4756 L 114.3,-59.25 L 114.286,-59.0244 L 114.243,-58.8024 L 114.174,-58.5874 L 114.077,-58.3829
 L 113.956,-58.192 L 113.812,-58.0178 L 113.647,-57.8631 L 113.464,-57.7302 L 113.266,-57.6213 L 113.056,-57.5381
 L 112.837,-57.4819 L 112.613,-57.4536 z
M -112.613,-57.4536 L -112.837,-57.4819 L -113.056,-57.5381 L -113.266,-57.6213 L -113.464,-57.7302 L -113.647,-57.8631
 L -113.812,-58.0178 L -113.956,-58.192 L -114.077,-58.3829 L -114.174,-58.5874 L -114.243,-58.8024 L -114.286,-59.0244
 L -114.3,-59.25 L -114.286,-59.4756 L -114.243,-59.6976 L -114.174,-59.9126 L -114.077,-60.1172 L -113.956,-60.308
 L -113.812,-60.4822 L -113.647,-60.6369 L -113.464,-60.7698 L -113.266,-60.8787 L -113.056,-60.9619 L -112.837,-61.0181
 L -112.613,-61.0464 L -112.387,-61.0464 L -112.163,-61.0181 L -111.944,-60.9619 L -111.734,-60.8787 L -111.536,-60.7698
 L -111.353,-60.6369 L -111.188,-60.4822 L -111.044,-60.308 L -110.923,-60.1172 L -110.826,-59.9126 L -110.757,-59.6976
 L -110.714,-59.4756 L -110.7,-59.25 L -110.714,-59.0244 L -110.757,-58.8024 L -110.826,-58.5874 L -110.923,-58.3829
 L -111.044,-58.192 L -111.188,-58.0178 L -111.353,-57.8631 L -111.536,-57.7302 L -111.734,-57.6213 L -111.944,-57.5381
 L -112.163,-57.4819 L -112.387,-57.4536 z
" stroke="black" fill="lightgray" stroke-width="0.5"/>
</svg>
