<?xml version="1.0" standalone="no"?>
<!DOCTYPE svg PUBLIC "-//W3C//DTD SVG 1.1//EN" "http://www.w3.org/Graphics/SVG/1.1/DTD/svg11.dtd">
<svg width="300mm" height="1462mm" viewBox="-150 -2789 300 1462" xmlns="http://www.w3.org/2000/svg" version="1.1">
<title>OpenSCAD Model</title>
<path d="
M 145.937,-2503.59 L 146.545,-2503.74 L 147.129,-2503.98 L 147.679,-2504.28 L 148.187,-2504.65 L 148.645,-2505.08
 L 149.045,-2505.56 L 149.382,-2506.09 L 149.649,-2506.66 L 149.843,-2507.26 L 149.961,-2507.87 L 150,-2508.5
 L 150,-2783.5 L 149.961,-2784.13 L 149.843,-2784.74 L 149.649,-2785.34 L 149.382,-2785.91 L 149.045,-2786.44
 L 148.645,-2786.92 L 148.187,-2787.35 L 147.679,-2787.72 L 147.129,-2788.02 L 146.545,-2788.26 L 145.937,-2788.41
 L 145.314,-2788.49 L -145.314,-2788.49 L -145.937,-2788.41 L -146.545,-2788.26 L -147.129,-2788.02 L -147.679,-2787.72
 L -148.187,-2787.35 L -148.645,-2786.92 L -149.045,-2786.44 L -149.382,-2785.91 L -149.649,-2785.34 L -149.843,-2784.74
 L -149.961,-2784.13 L -150,-2783.5 L -150,-2508.5 L -149.961,-2507.87 L -149.843,-2507.26 L -149.649,-2506.66
 L -149.382,-2506.09 L -149.045,-2505.56 L -148.645,-2505.08 L -148.187,-2504.65 L -147.679,-2504.28 L -147.129,-2503.98
 L -146.545,-2503.74 L -145.937,-2503.59 L -145.314,-2503.51 L 145.314,-2503.51 z
M -145.048,-2504.01 L -145.64,-2504.08 L -146.218,-2504.23 L -146.772,-2504.45 L -147.295,-2504.74 L -147.778,-2505.09
 L -148.213,-2505.5 L -148.593,-2505.96 L -148.912,-2506.46 L -149.166,-2507 L -149.351,-2507.57 L -149.463,-2508.15
 L -149.5,-2508.75 L -149.5,-2783.25 L -149.463,-2783.85 L -149.351,-2784.43 L -149.166,-2785 L -148.912,-2785.54
 L -148.593,-2786.04 L -148.213,-2786.5 L -147.778,-2786.91 L -147.295,-2787.26 L -146.772,-2787.55 L -146.218,-2787.77
 L -145.64,-2787.92 L -145.048,-2787.99 L 145.048,-2787.99 L 145.64,-2787.92 L 146.218,-2787.77 L 146.772,-2787.55
 L 147.295,-2787.26 L 147.778,-2786.91 L 148.213,-2786.5 L 148.593,-2786.04 L 148.912,-2785.54 L 149.166,-2785
 L 149.351,-2784.43 L 149.463,-2783.85 L 149.5,-2783.25 L 149.5,-2508.75 L 149.463,-2508.15 L 149.351,-2507.57
 L 149.166,-2507 L 148.912,-2506.46 L 148.593,-2505.96 L 148.213,-2505.5 L 147.778,-2505.09 L 147.295,-2504.74
 L 146.772,-2504.45 L 146.218,-2504.23 L 145.64,-2504.08 L 145.048,-2504.01 z
M 145.937,-2209.59 L 146.545,-2209.74 L 147.129,-2209.98 L 147.679,-2210.28 L 148.187,-2210.65 L 148.645,-2211.08
 L 149.045,-2211.56 L 149.382,-2212.09 L 149.649,-2212.66 L 149.843,-2213.26 L 149.961,-2213.87 L 150,-2214.5
 L 150,-2489.5 L 149.961,-2490.13 L 149.843,-2490.74 L 149.649,-2491.34 L 149.382,-2491.91 L 149.045,-2492.44
 L 148.645,-2492.92 L 148.187,-2493.35 L 147.679,-2493.72 L 147.129,-2494.02 L 146.545,-2494.26 L 145.937,-2494.41
 L 145.314,-2494.49 L -145.314,-2494.49 L -145.937,-2494.41 L -146.545,-2494.26 L -147.129,-2494.02 L -147.679,-2493.72
 L -148.187,-2493.35 L -148.645,-2492.92 L -149.045,-2492.44 L -149.382,-2491.91 L -149.649,-2491.34 L -149.843,-2490.74
 L -149.961,-2490.13 L -150,-2489.5 L -150,-2214.5 L -149.961,-2213.87 L -149.843,-2213.26 L -149.649,-2212.66
 L -149.382,-2212.09 L -149.045,-2211.56 L -148.645,-2211.08 L -148.187,-2210.65 L -147.679,-2210.28 L -147.129,-2209.98
 L -146.545,-2209.74 L -145.937,-2209.59 L -145.314,-2209.51 L 145.314,-2209.51 z
M -145.048,-2210.01 L -145.64,-2210.08 L -146.218,-2210.23 L -146.772,-2210.45 L -147.295,-2210.74 L -147.778,-2211.09
 L -148.213,-2211.5 L -148.593,-2211.96 L -148.912,-2212.46 L -149.166,-2213 L -149.351,-2213.57 L -149.463,-2214.15
 L -149.5,-2214.75 L -149.5,-2489.25 L -149.463,-2489.85 L -149.351,-2490.43 L -149.166,-2491 L -148.912,-2491.54
 L -148.593,-2492.04 L -148.213,-2492.5 L -147.778,-2492.91 L -147.295,-2493.26 L -146.772,-2493.55 L -146.218,-2493.77
 L -145.64,-2493.92 L -145.048,-2493.99 L 145.048,-2493.99 L 145.64,-2493.92 L 146.218,-2493.77 L 146.772,-2493.55
 L 147.295,-2493.26 L 147.778,-2492.91 L 148.213,-2492.5 L 148.593,-2492.04 L 148.912,-2491.54 L 149.166,-2491
 L 149.351,-2490.43 L 149.463,-2489.85 L 149.5,-2489.25 L 149.5,-2214.75 L 149.463,-2214.15 L 149.351,-2213.57
 L 149.166,-2213 L 148.912,-2212.46 L 148.593,-2211.96 L 148.213,-2211.5 L 147.778,-2211.09 L 147.295,-2210.74
 L 146.772,-2210.45 L 146.218,-2210.23 L 145.64,-2210.08 L 145.048,-2210.01 z
M 145.937,-1915.59 L 146.545,-1915.74 L 147.129,-1915.98 L 147.679,-1916.28 L 148.187,-1916.65 L 148.645,-1917.08
 L 149.045,-1917.56 L 149.382,-1918.09 L 149.649,-1918.66 L 149.843,-1919.26 L 149.961,-1919.87 L 150,-1920.5
 L 150,-2195.5 L 149.961,-2196.13 L 149.843,-2196.74 L 149.649,-2197.34 L 149.382,-2197.91 L 149.045,-2198.44
 L 148.645,-2198.92 L 148.187,-2199.35 L 147.679,-2199.72 L 147.129,-2200.02 L 146.545,-2200.26 L 145.937,-2200.41
 L 145.314,-2200.49 L -145.314,-2200.49 L -145.937,-2200.41 L -146.545,-2200.26 L -147.129,-2200.02 L -147.679,-2199.72
 L -148.187,-2199.35 L -148.645,-2198.92 L -149.045,-2198.44 L -149.382,-2197.91 L -149.649,-2197.34 L -149.843,-2196.74
 L -149.961,-2196.13 L -150,-2195.5 L -150,-1920.5 L -149.961,-1919.87 L -149.843,-1919.26 L -149.649,-1918.66
 L -149.382,-1918.09 L -149.045,-1917.56 L -148.645,-1917.08 L -148.187,-1916.65 L -147.679,-1916.28 L -147.129,-1915.98
 L -146.545,-1915.74 L -145.937,-1915.59 L -145.314,-1915.51 L 145.314,-1915.51 z
M -145.048,-1916.01 L -145.64,-1916.08 L -146.218,-1916.23 L -146.772,-1916.45 L -147.295,-1916.74 L -147.778,-1917.09
 L -148.213,-1917.5 L -148.593,-1917.96 L -148.912,-1918.46 L -149.166,-1919 L -149.351,-1919.57 L -149.463,-1920.15
 L -149.5,-1920.75 L -149.5,-2195.25 L -149.463,-2195.85 L -149.351,-2196.43 L -149.166,-2197 L -148.912,-2197.54
 L -148.593,-2198.04 L -148.213,-2198.5 L -147.778,-2198.91 L -147.295,-2199.26 L -146.772,-2199.55 L -146.218,-2199.77
 L -145.64,-2199.92 L -145.048,-2199.99 L 145.048,-2199.99 L 145.64,-2199.92 L 146.218,-2199.77 L 146.772,-2199.55
 L 147.295,-2199.26 L 147.778,-2198.91 L 148.213,-2198.5 L 148.593,-2198.04 L 148.912,-2197.54 L 149.166,-2197
 L 149.351,-2196.43 L 149.463,-2195.85 L 149.5,-2195.25 L 149.5,-1920.75 L 149.463,-1920.15 L 149.351,-1919.57
 L 149.166,-1919 L 148.912,-1918.46 L 148.593,-1917.96 L 148.213,-1917.5 L 147.778,-1917.09 L 147.295,-1916.74
 L 146.772,-1916.45 L 146.218,-1916.23 L 145.64,-1916.08 L 145.048,-1916.01 z
M 145.937,-1621.59 L 146.545,-1621.74 L 147.129,-1621.98 L 147.679,-1622.28 L 148.187,-1622.65 L 148.645,-1623.08
 L 149.045,-1623.56 L 149.382,-1624.09 L 149.649,-1624.66 L 149.843,-1625.26 L 149.961,-1625.87 L 150,-1626.5
 L 150,-1901.5 L 149.961,-1902.13 L 149.843,-1902.74 L 149.649,-1903.34 L 149.382,-1903.91 L 149.045,-1904.44
 L 148.645,-1904.92 L 148.187,-1905.35 L 147.679,-1905.72 L 147.129,-1906.02 L 146.545,-1906.26 L 145.937,-1906.41
 L 145.314,-1906.49 L -145.314,-1906.49 L -145.937,-1906.41 L -146.545,-1906.26 L -147.129,-1906.02 L -147.679,-1905.72
 L -148.187,-1905.35 L -148.645,-1904.92 L -149.045,-1904.44 L -149.382,-1903.91 L -149.649,-1903.34 L -149.843,-1902.74
 L -149.961,-1902.13 L -150,-1901.5 L -150,-1626.5 L -149.961,-1625.87 L -149.843,-1625.26 L -149.649,-1624.66
 L -149.382,-1624.09 L -149.045,-1623.56 L -148.645,-1623.08 L -148.187,-1622.65 L -147.679,-1622.28 L -147.129,-1621.98
 L -146.545,-1621.74 L -145.937,-1621.59 L -145.314,-1621.51 L 145.314,-1621.51 z
M -145.037,-1622.18 L -145.608,-1622.25 L -146.165,-1622.4 L -146.699,-1622.61 L -147.203,-1622.88 L -147.668,-1623.22
 L -148.088,-1623.62 L -148.454,-1624.06 L -148.762,-1624.54 L -149.007,-1625.06 L -149.185,-1625.61 L -149.292,-1626.18
 L -149.328,-1626.75 L -149.328,-1901.25 L -149.292,-1901.82 L -149.185,-1902.39 L -149.007,-1902.94 L -148.762,-1903.46
 L -148.454,-1903.94 L -148.088,-1904.38 L -147.668,-1904.78 L -147.203,-1905.12 L -146.699,-1905.39 L -146.165,-1905.6
 L -145.608,-1905.75 L -145.037,-1905.82 L 145.037,-1905.82 L 145.608,-1905.75 L 146.165,-1905.6 L 146.699,-1905.39
 L 147.203,-1905.12 L 147.668,-1904.78 L 148.088,-1904.38 L 148.454,-1903.94 L 148.762,-1903.46 L 149.007,-1902.94
 L 149.185,-1902.39 L 149.292,-1901.82 L 149.328,-1901.25 L 149.328,-1626.75 L 149.292,-1626.18 L 149.185,-1625.61
 L 149.007,-1625.06 L 148.762,-1624.54 L 148.454,-1624.06 L 148.088,-1623.62 L 147.668,-1623.22 L 147.203,-1622.88
 L 146.699,-1622.61 L 146.165,-1622.4 L 145.608,-1622.25 L 145.037,-1622.18 z
M 145.937,-1327.59 L 146.545,-1327.74 L 147.129,-1327.98 L 147.679,-1328.28 L 148.187,-1328.65 L 148.645,-1329.08
 L 149.045,-1329.56 L 149.382,-1330.09 L 149.649,-1330.66 L 149.843,-1331.26 L 149.961,-1331.87 L 150,-1332.5
 L 150,-1607.5 L 149.961,-1608.13 L 149.843,-1608.74 L 149.649,-1609.34 L 149.382,-1609.91 L 149.045,-1610.44
 L 148.645,-1610.92 L 148.187,-1611.35 L 147.679,-1611.72 L 147.129,-1612.02 L 146.545,-1612.26 L 145.937,-1612.41
 L 145.314,-1612.49 L -145.314,-1612.49 L -145.937,-1612.41 L -146.545,-1612.26 L -147.129,-1612.02 L -147.679,-1611.72
 L -148.187,-1611.35 L -148.645,-1610.92 L -149.045,-1610.44 L -149.382,-1609.91 L -149.649,-1609.34 L -149.843,-1608.74
 L -149.961,-1608.13 L -150,-1607.5 L -150,-1332.5 L -149.961,-1331.87 L -149.843,-1331.26 L -149.649,-1330.66
 L -149.382,-1330.09 L -149.045,-1329.56 L -148.645,-1329.08 L -148.187,-1328.65 L -147.679,-1328.28 L -147.129,-1327.98
 L -146.545,-1327.74 L -145.937,-1327.59 L -145.314,-1327.51 L 145.314,-1327.51 z
M -144.882,-1330.64 L -145.145,-1330.68 L -145.402,-1330.74 L -145.648,-1330.84 L -145.88,-1330.97 L -146.095,-1331.12
 L -146.288,-1331.31 L -146.457,-1331.51 L -146.599,-1331.73 L -146.711,-1331.97 L -146.793,-1332.23 L -146.843,-1332.49
 L -146.86,-1332.75 L -146.86,-1607.25 L -146.843,-1607.51 L -146.793,-1607.77 L -146.711,-1608.03 L -146.599,-1608.27
 L -146.457,-1608.49 L -146.288,-1608.69 L -146.095,-1608.88 L -145.88,-1609.03 L -145.648,-1609.16 L -145.402,-1609.26
 L -145.145,-1609.32 L -144.882,-1609.36 L 144.882,-1609.36 L 145.145,-1609.32 L 145.402,-1609.26 L 145.648,-1609.16
 L 145.88,-1609.03 L 146.095,-1608.88 L 146.288,-1608.69 L 146.457,-1608.49 L 146.599,-1608.27 L 146.711,-1608.03
 L 146.793,-1607.77 L 146.843,-1607.51 L 146.86,-1607.25 L 146.86,-1332.75 L 146.843,-1332.49 L 146.793,-1332.23
 L 146.711,-1331.97 L 146.599,-1331.73 L 146.457,-1331.51 L 146.288,-1331.31 L 146.095,-1331.12 L 145.88,-1330.97
 L 145.648,-1330.84 L 145.402,-1330.74 L 145.145,-1330.68 L 144.882,-1330.64 z
" stroke="black" fill="lightgray" stroke-width="0.5"/>
</svg>
