<?xml version="1.0" standalone="no"?>
<!DOCTYPE svg PUBLIC "-//W3C//DTD SVG 1.1//EN" "http://www.w3.org/Graphics/SVG/1.1/DTD/svg11.dtd">
<svg width="300mm" height="636mm" viewBox="-150 -1092 300 636" xmlns="http://www.w3.org/2000/svg" version="1.1">
<title>OpenSCAD Model</title>
<path d="
M 145.937,-972.089 L 146.545,-972.245 L 147.129,-972.476 L 147.679,-972.778 L 148.187,-973.147 L 148.645,-973.577
 L 149.045,-974.061 L 149.382,-974.591 L 149.649,-975.159 L 149.843,-975.757 L 149.961,-976.373 L 150,-977
 L 150,-1087 L 149.961,-1087.63 L 149.843,-1088.24 L 149.649,-1088.84 L 149.382,-1089.41 L 149.045,-1089.94
 L 148.645,-1090.42 L 148.187,-1090.85 L 147.679,-1091.22 L 147.129,-1091.52 L 146.545,-1091.76 L 145.937,-1091.91
 L 145.314,-1091.99 L -145.314,-1091.99 L -145.937,-1091.91 L -146.545,-1091.76 L -147.129,-1091.52 L -147.679,-1091.22
 L -148.187,-1090.85 L -148.645,-1090.42 L -149.045,-1089.94 L -149.382,-1089.41 L -149.649,-1088.84 L -149.843,-1088.24
 L -149.961,-1087.63 L -150,-1087 L -150,-977 L -149.961,-976.373 L -149.843,-975.757 L -149.649,-975.159
 L -149.382,-974.591 L -149.045,-974.061 L -148.645,-973.577 L -148.187,-973.147 L -147.679,-972.778 L -147.129,-972.476
 L -146.545,-972.245 L -145.937,-972.089 L -145.314,-972.01 L 145.314,-972.01 z
M -145.048,-972.509 L -145.64,-972.584 L -146.218,-972.732 L -146.772,-972.952 L -147.295,-973.239 L -147.778,-973.59
 L -148.213,-973.998 L -148.593,-974.458 L -148.912,-974.962 L -149.166,-975.501 L -149.351,-976.069 L -149.463,-976.655
 L -149.5,-977.25 L -149.5,-1086.75 L -149.463,-1087.35 L -149.351,-1087.93 L -149.166,-1088.5 L -148.912,-1089.04
 L -148.593,-1089.54 L -148.213,-1090 L -147.778,-1090.41 L -147.295,-1090.76 L -146.772,-1091.05 L -146.218,-1091.27
 L -145.64,-1091.42 L -145.048,-1091.49 L 145.048,-1091.49 L 145.64,-1091.42 L 146.218,-1091.27 L 146.772,-1091.05
 L 147.295,-1090.76 L 147.778,-1090.41 L 148.213,-1090 L 148.593,-1089.54 L 148.912,-1089.04 L 149.166,-1088.5
 L 149.351,-1087.93 L 149.463,-1087.35 L 149.5,-1086.75 L 149.5,-977.25 L 149.463,-976.655 L 149.351,-976.069
 L 149.166,-975.501 L 148.912,-974.962 L 148.593,-974.458 L 148.213,-973.998 L 147.778,-973.59 L 147.295,-973.239
 L 146.772,-972.952 L 146.218,-972.732 L 145.64,-972.584 L 145.048,-972.509 z
M 145.937,-843.089 L 146.545,-843.245 L 147.129,-843.476 L 147.679,-843.778 L 148.187,-844.147 L 148.645,-844.577
 L 149.045,-845.061 L 149.382,-845.591 L 149.649,-846.159 L 149.843,-846.757 L 149.961,-847.373 L 150,-848
 L 150,-958 L 149.961,-958.627 L 149.843,-959.243 L 149.649,-959.841 L 149.382,-960.409 L 149.045,-960.939
 L 148.645,-961.423 L 148.187,-961.853 L 147.679,-962.222 L 147.129,-962.524 L 146.545,-962.755 L 145.937,-962.911
 L 145.314,-962.99 L -145.314,-962.99 L -145.937,-962.911 L -146.545,-962.755 L -147.129,-962.524 L -147.679,-962.222
 L -148.187,-961.853 L -148.645,-961.423 L -149.045,-960.939 L -149.382,-960.409 L -149.649,-959.841 L -149.843,-959.243
 L -149.961,-958.627 L -150,-958 L -150,-848 L -149.961,-847.373 L -149.843,-846.757 L -149.649,-846.159
 L -149.382,-845.591 L -149.045,-845.061 L -148.645,-844.577 L -148.187,-844.147 L -147.679,-843.778 L -147.129,-843.476
 L -146.545,-843.245 L -145.937,-843.089 L -145.314,-843.01 L 145.314,-843.01 z
M -145.048,-843.509 L -145.64,-843.584 L -146.218,-843.732 L -146.772,-843.952 L -147.295,-844.239 L -147.778,-844.59
 L -148.213,-844.998 L -148.593,-845.458 L -148.912,-845.962 L -149.166,-846.501 L -149.351,-847.069 L -149.463,-847.655
 L -149.5,-848.25 L -149.5,-957.75 L -149.463,-958.345 L -149.351,-958.931 L -149.166,-959.499 L -148.912,-960.038
 L -148.593,-960.542 L -148.213,-961.002 L -147.778,-961.41 L -147.295,-961.761 L -146.772,-962.048 L -146.218,-962.268
 L -145.64,-962.416 L -145.048,-962.491 L 145.048,-962.491 L 145.64,-962.416 L 146.218,-962.268 L 146.772,-962.048
 L 147.295,-961.761 L 147.778,-961.41 L 148.213,-961.002 L 148.593,-960.542 L 148.912,-960.038 L 149.166,-959.499
 L 149.351,-958.931 L 149.463,-958.345 L 149.5,-957.75 L 149.5,-848.25 L 149.463,-847.655 L 149.351,-847.069
 L 149.166,-846.501 L 148.912,-845.962 L 148.593,-845.458 L 148.213,-844.998 L 147.778,-844.59 L 147.295,-844.239
 L 146.772,-843.952 L 146.218,-843.732 L 145.64,-843.584 L 145.048,-843.509 z
M 145.937,-714.089 L 146.545,-714.245 L 147.129,-714.476 L 147.679,-714.778 L 148.187,-715.147 L 148.645,-715.577
 L 149.045,-716.061 L 149.382,-716.591 L 149.649,-717.159 L 149.843,-717.757 L 149.961,-718.373 L 150,-719
 L 150,-829 L 149.961,-829.627 L 149.843,-830.243 L 149.649,-830.841 L 149.382,-831.409 L 149.045,-831.939
 L 148.645,-832.423 L 148.187,-832.853 L 147.679,-833.222 L 147.129,-833.524 L 146.545,-833.755 L 145.937,-833.911
 L 145.314,-833.99 L -145.314,-833.99 L -145.937,-833.911 L -146.545,-833.755 L -147.129,-833.524 L -147.679,-833.222
 L -148.187,-832.853 L -148.645,-832.423 L -149.045,-831.939 L -149.382,-831.409 L -149.649,-830.841 L -149.843,-830.243
 L -149.961,-829.627 L -150,-829 L -150,-719 L -149.961,-718.373 L -149.843,-717.757 L -149.649,-717.159
 L -149.382,-716.591 L -149.045,-716.061 L -148.645,-715.577 L -148.187,-715.147 L -147.679,-714.778 L -147.129,-714.476
 L -146.545,-714.245 L -145.937,-714.089 L -145.314,-714.01 L 145.314,-714.01 z
M -145.048,-714.509 L -145.64,-714.584 L -146.218,-714.732 L -146.772,-714.952 L -147.295,-715.239 L -147.778,-715.59
 L -148.213,-715.998 L -148.593,-716.458 L -148.912,-716.962 L -149.166,-717.501 L -149.351,-718.069 L -149.463,-718.655
 L -149.5,-719.25 L -149.5,-828.75 L -149.463,-829.345 L -149.351,-829.931 L -149.166,-830.499 L -148.912,-831.038
 L -148.593,-831.542 L -148.213,-832.002 L -147.778,-832.41 L -147.295,-832.761 L -146.772,-833.048 L -146.218,-833.268
 L -145.64,-833.416 L -145.048,-833.491 L 145.048,-833.491 L 145.64,-833.416 L 146.218,-833.268 L 146.772,-833.048
 L 147.295,-832.761 L 147.778,-832.41 L 148.213,-832.002 L 148.593,-831.542 L 148.912,-831.038 L 149.166,-830.499
 L 149.351,-829.931 L 149.463,-829.345 L 149.5,-828.75 L 149.5,-719.25 L 149.463,-718.655 L 149.351,-718.069
 L 149.166,-717.501 L 148.912,-716.962 L 148.593,-716.458 L 148.213,-715.998 L 147.778,-715.59 L 147.295,-715.239
 L 146.772,-714.952 L 146.218,-714.732 L 145.64,-714.584 L 145.048,-714.509 z
M 145.937,-585.089 L 146.545,-585.245 L 147.129,-585.476 L 147.679,-585.778 L 148.187,-586.147 L 148.645,-586.577
 L 149.045,-587.061 L 149.382,-587.591 L 149.649,-588.159 L 149.843,-588.757 L 149.961,-589.373 L 150,-590
 L 150,-700 L 149.961,-700.627 L 149.843,-701.243 L 149.649,-701.841 L 149.382,-702.409 L 149.045,-702.939
 L 148.645,-703.423 L 148.187,-703.853 L 147.679,-704.222 L 147.129,-704.524 L 146.545,-704.755 L 145.937,-704.911
 L 145.314,-704.99 L -145.314,-704.99 L -145.937,-704.911 L -146.545,-704.755 L -147.129,-704.524 L -147.679,-704.222
 L -148.187,-703.853 L -148.645,-703.423 L -149.045,-702.939 L -149.382,-702.409 L -149.649,-701.841 L -149.843,-701.243
 L -149.961,-700.627 L -150,-700 L -150,-590 L -149.961,-589.373 L -149.843,-588.757 L -149.649,-588.159
 L -149.382,-587.591 L -149.045,-587.061 L -148.645,-586.577 L -148.187,-586.147 L -147.679,-585.778 L -147.129,-585.476
 L -146.545,-585.245 L -145.937,-585.089 L -145.314,-585.01 L 145.314,-585.01 z
M -144.993,-586.388 L -145.475,-586.449 L -145.946,-586.57 L -146.398,-586.749 L -146.823,-586.983 L -147.216,-587.269
 L -147.571,-587.601 L -147.88,-587.976 L -148.141,-588.386 L -148.348,-588.826 L -148.498,-589.288 L -148.589,-589.765
 L -148.619,-590.25 L -148.619,-699.75 L -148.589,-700.235 L -148.498,-700.712 L -148.348,-701.174 L -148.141,-701.614
 L -147.88,-702.024 L -147.571,-702.399 L -147.216,-702.731 L -146.823,-703.017 L -146.398,-703.251 L -145.946,-703.43
 L -145.475,-703.551 L -144.993,-703.612 L 144.993,-703.612 L 145.475,-703.551 L 145.946,-703.43 L 146.398,-703.251
 L 146.823,-703.017 L 147.216,-702.731 L 147.571,-702.399 L 147.88,-702.024 L 148.141,-701.614 L 148.348,-701.174
 L 148.498,-700.712 L 148.589,-700.235 L 148.619,-699.75 L 148.619,-590.25 L 148.589,-589.765 L 148.498,-589.288
 L 148.348,-588.826 L 148.141,-588.386 L 147.88,-587.976 L 147.571,-587.601 L 147.216,-587.269 L 146.823,-586.983
 L 146.398,-586.749 L 145.946,-586.57 L 145.475,-586.449 L 144.993,-586.388 z
M 145.937,-456.089 L 146.545,-456.245 L 147.129,-456.476 L 147.679,-456.778 L 148.187,-457.147 L 148.645,-457.577
 L 149.045,-458.061 L 149.382,-458.591 L 149.649,-459.159 L 149.843,-459.757 L 149.961,-460.373 L 150,-461
 L 150,-571 L 149.961,-571.627 L 149.843,-572.243 L 149.649,-572.841 L 149.382,-573.409 L 149.045,-573.939
 L 148.645,-574.423 L 148.187,-574.853 L 147.679,-575.222 L 147.129,-575.524 L 146.545,-575.755 L 145.937,-575.911
 L 145.314,-575.99 L -145.314,-575.99 L -145.937,-575.911 L -146.545,-575.755 L -147.129,-575.524 L -147.679,-575.222
 L -148.187,-574.853 L -148.645,-574.423 L -149.045,-573.939 L -149.382,-573.409 L -149.649,-572.841 L -149.843,-572.243
 L -149.961,-571.627 L -150,-571 L -150,-461 L -149.961,-460.373 L -149.843,-459.757 L -149.649,-459.159
 L -149.382,-458.591 L -149.045,-458.061 L -148.645,-457.577 L -148.187,-457.147 L -147.679,-456.778 L -147.129,-456.476
 L -146.545,-456.245 L -145.937,-456.089 L -145.314,-456.01 L 145.314,-456.01 z
M 142.387,-566.704 L 142.163,-566.732 L 141.944,-566.788 L 141.734,-566.871 L 141.536,-566.98 L 141.353,-567.113
 L 141.188,-567.268 L 141.044,-567.442 L 140.923,-567.633 L 140.826,-567.837 L 140.757,-568.052 L 140.714,-568.274
 L 140.7,-568.5 L 140.714,-568.726 L 140.757,-568.948 L 140.826,-569.163 L 140.923,-569.367 L 141.044,-569.558
 L 141.188,-569.732 L 141.353,-569.887 L 141.536,-570.02 L 141.734,-570.129 L 141.944,-570.212 L 142.163,-570.268
 L 142.387,-570.296 L 142.613,-570.296 L 142.837,-570.268 L 143.056,-570.212 L 143.266,-570.129 L 143.464,-570.02
 L 143.647,-569.887 L 143.812,-569.732 L 143.956,-569.558 L 144.077,-569.367 L 144.174,-569.163 L 144.243,-568.948
 L 144.286,-568.726 L 144.3,-568.5 L 144.286,-568.274 L 144.243,-568.052 L 144.174,-567.837 L 144.077,-567.633
 L 143.956,-567.442 L 143.812,-567.268 L 143.647,-567.113 L 143.464,-566.98 L 143.266,-566.871 L 143.056,-566.788
 L 142.837,-566.732 L 142.613,-566.704 z
M -142.613,-566.704 L -142.837,-566.732 L -143.056,-566.788 L -143.266,-566.871 L -143.464,-566.98 L -143.647,-567.113
 L -143.812,-567.268 L -143.956,-567.442 L -144.077,-567.633 L -144.174,-567.837 L -144.243,-568.052 L -144.286,-568.274
 L -144.3,-568.5 L -144.286,-568.726 L -144.243,-568.948 L -144.174,-569.163 L -144.077,-569.367 L -143.956,-569.558
 L -143.812,-569.732 L -143.647,-569.887 L -143.464,-570.02 L -143.266,-570.129 L -143.056,-570.212 L -142.837,-570.268
 L -142.613,-570.296 L -142.387,-570.296 L -142.163,-570.268 L -141.944,-570.212 L -141.734,-570.129 L -141.536,-570.02
 L -141.353,-569.887 L -141.188,-569.732 L -141.044,-569.558 L -140.923,-569.367 L -140.826,-569.163 L -140.757,-568.948
 L -140.714,-568.726 L -140.7,-568.5 L -140.714,-568.274 L -140.757,-568.052 L -140.826,-567.837 L -140.923,-567.633
 L -141.044,-567.442 L -141.188,-567.268 L -141.353,-567.113 L -141.536,-566.98 L -141.734,-566.871 L -141.944,-566.788
 L -142.163,-566.732 L -142.387,-566.704 z
M -142.613,-461.704 L -142.837,-461.732 L -143.056,-461.788 L -143.266,-461.871 L -143.464,-461.98 L -143.647,-462.113
 L -143.812,-462.268 L -143.956,-462.442 L -144.077,-462.633 L -144.174,-462.837 L -144.243,-463.052 L -144.286,-463.274
 L -144.3,-463.5 L -144.286,-463.726 L -144.243,-463.948 L -144.174,-464.163 L -144.077,-464.367 L -143.956,-464.558
 L -143.812,-464.732 L -143.647,-464.887 L -143.464,-465.02 L -143.266,-465.129 L -143.056,-465.212 L -142.837,-465.268
 L -142.613,-465.296 L -142.387,-465.296 L -142.163,-465.268 L -141.944,-465.212 L -141.734,-465.129 L -141.536,-465.02
 L -141.353,-464.887 L -141.188,-464.732 L -141.044,-464.558 L -140.923,-464.367 L -140.826,-464.163 L -140.757,-463.948
 L -140.714,-463.726 L -140.7,-463.5 L -140.714,-463.274 L -140.757,-463.052 L -140.826,-462.837 L -140.923,-462.633
 L -141.044,-462.442 L -141.188,-462.268 L -141.353,-462.113 L -141.536,-461.98 L -141.734,-461.871 L -141.944,-461.788
 L -142.163,-461.732 L -142.387,-461.704 z
M 142.387,-461.704 L 142.163,-461.732 L 141.944,-461.788 L 141.734,-461.871 L 141.536,-461.98 L 141.353,-462.113
 L 141.188,-462.268 L 141.044,-462.442 L 140.923,-462.633 L 140.826,-462.837 L 140.757,-463.052 L 140.714,-463.274
 L 140.7,-463.5 L 140.714,-463.726 L 140.757,-463.948 L 140.826,-464.163 L 140.923,-464.367 L 141.044,-464.558
 L 141.188,-464.732 L 141.353,-464.887 L 141.536,-465.02 L 141.734,-465.129 L 141.944,-465.212 L 142.163,-465.268
 L 142.387,-465.296 L 142.613,-465.296 L 142.837,-465.268 L 143.056,-465.212 L 143.266,-465.129 L 143.464,-465.02
 L 143.647,-464.887 L 143.812,-464.732 L 143.956,-464.558 L 144.077,-464.367 L 144.174,-464.163 L 144.243,-463.948
 L 144.286,-463.726 L 144.3,-463.5 L 144.286,-463.274 L 144.243,-463.052 L 144.174,-462.837 L 144.077,-462.633
 L 143.956,-462.442 L 143.812,-462.268 L 143.647,-462.113 L 143.464,-461.98 L 143.266,-461.871 L 143.056,-461.788
 L 142.837,-461.732 L 142.613,-461.704 z
" stroke="black" fill="lightgray" stroke-width="0.5"/>
</svg>
