<?xml version="1.0" standalone="no"?>
<!DOCTYPE svg PUBLIC "-//W3C//DTD SVG 1.1//EN" "http://www.w3.org/Graphics/SVG/1.1/DTD/svg11.dtd">
<svg width="256mm" height="1086mm" viewBox="-128 -1857 256 1086" xmlns="http://www.w3.org/2000/svg" version="1.1">
<title>OpenSCAD Model</title>
<path d="
M 123.437,-1647.09 L 124.045,-1647.24 L 124.629,-1647.48 L 125.179,-1647.78 L 125.687,-1648.15 L 126.145,-1648.58
 L 126.545,-1649.06 L 126.882,-1649.59 L 127.149,-1650.16 L 127.343,-1650.76 L 127.461,-1651.37 L 127.5,-1652
 L 127.5,-1852 L 127.461,-1852.63 L 127.343,-1853.24 L 127.149,-1853.84 L 126.882,-1854.41 L 126.545,-1854.94
 L 126.145,-1855.42 L 125.687,-1855.85 L 125.179,-1856.22 L 124.629,-1856.52 L 124.045,-1856.76 L 123.437,-1856.91
 L 122.814,-1856.99 L -122.814,-1856.99 L -123.437,-1856.91 L -124.045,-1856.76 L -124.629,-1856.52 L -125.179,-1856.22
 L -125.687,-1855.85 L -126.145,-1855.42 L -126.545,-1854.94 L -126.882,-1854.41 L -127.149,-1853.84 L -127.343,-1853.24
 L -127.461,-1852.63 L -127.5,-1852 L -127.5,-1652 L -127.461,-1651.37 L -127.343,-1650.76 L -127.149,-1650.16
 L -126.882,-1649.59 L -126.545,-1649.06 L -126.145,-1648.58 L -125.687,-1648.15 L -125.179,-1647.78 L -124.629,-1647.48
 L -124.045,-1647.24 L -123.437,-1647.09 L -122.814,-1647.01 L 122.814,-1647.01 z
M -122.548,-1647.51 L -123.14,-1647.58 L -123.718,-1647.73 L -124.272,-1647.95 L -124.795,-1648.24 L -125.278,-1648.59
 L -125.713,-1649 L -126.093,-1649.46 L -126.412,-1649.96 L -126.666,-1650.5 L -126.851,-1651.07 L -126.963,-1651.65
 L -127,-1652.25 L -127,-1851.75 L -126.963,-1852.35 L -126.851,-1852.93 L -126.666,-1853.5 L -126.412,-1854.04
 L -126.093,-1854.54 L -125.713,-1855 L -125.278,-1855.41 L -124.795,-1855.76 L -124.272,-1856.05 L -123.718,-1856.27
 L -123.14,-1856.42 L -122.548,-1856.49 L 122.548,-1856.49 L 123.14,-1856.42 L 123.718,-1856.27 L 124.272,-1856.05
 L 124.795,-1855.76 L 125.278,-1855.41 L 125.713,-1855 L 126.093,-1854.54 L 126.412,-1854.04 L 126.666,-1853.5
 L 126.851,-1852.93 L 126.963,-1852.35 L 127,-1851.75 L 127,-1652.25 L 126.963,-1651.65 L 126.851,-1651.07
 L 126.666,-1650.5 L 126.412,-1649.96 L 126.093,-1649.46 L 125.713,-1649 L 125.278,-1648.59 L 124.795,-1648.24
 L 124.272,-1647.95 L 123.718,-1647.73 L 123.14,-1647.58 L 122.548,-1647.51 z
M 123.437,-1428.09 L 124.045,-1428.24 L 124.629,-1428.48 L 125.179,-1428.78 L 125.687,-1429.15 L 126.145,-1429.58
 L 126.545,-1430.06 L 126.882,-1430.59 L 127.149,-1431.16 L 127.343,-1431.76 L 127.461,-1432.37 L 127.5,-1433
 L 127.5,-1633 L 127.461,-1633.63 L 127.343,-1634.24 L 127.149,-1634.84 L 126.882,-1635.41 L 126.545,-1635.94
 L 126.145,-1636.42 L 125.687,-1636.85 L 125.179,-1637.22 L 124.629,-1637.52 L 124.045,-1637.76 L 123.437,-1637.91
 L 122.814,-1637.99 L -122.814,-1637.99 L -123.437,-1637.91 L -124.045,-1637.76 L -124.629,-1637.52 L -125.179,-1637.22
 L -125.687,-1636.85 L -126.145,-1636.42 L -126.545,-1635.94 L -126.882,-1635.41 L -127.149,-1634.84 L -127.343,-1634.24
 L -127.461,-1633.63 L -127.5,-1633 L -127.5,-1433 L -127.461,-1432.37 L -127.343,-1431.76 L -127.149,-1431.16
 L -126.882,-1430.59 L -126.545,-1430.06 L -126.145,-1429.58 L -125.687,-1429.15 L -125.179,-1428.78 L -124.629,-1428.48
 L -124.045,-1428.24 L -123.437,-1428.09 L -122.814,-1428.01 L 122.814,-1428.01 z
M -122.548,-1428.51 L -123.14,-1428.58 L -123.718,-1428.73 L -124.272,-1428.95 L -124.795,-1429.24 L -125.278,-1429.59
 L -125.713,-1430 L -126.093,-1430.46 L -126.412,-1430.96 L -126.666,-1431.5 L -126.851,-1432.07 L -126.963,-1432.65
 L -127,-1433.25 L -127,-1632.75 L -126.963,-1633.35 L -126.851,-1633.93 L -126.666,-1634.5 L -126.412,-1635.04
 L -126.093,-1635.54 L -125.713,-1636 L -125.278,-1636.41 L -124.795,-1636.76 L -124.272,-1637.05 L -123.718,-1637.27
 L -123.14,-1637.42 L -122.548,-1637.49 L 122.548,-1637.49 L 123.14,-1637.42 L 123.718,-1637.27 L 124.272,-1637.05
 L 124.795,-1636.76 L 125.278,-1636.41 L 125.713,-1636 L 126.093,-1635.54 L 126.412,-1635.04 L 126.666,-1634.5
 L 126.851,-1633.93 L 126.963,-1633.35 L 127,-1632.75 L 127,-1433.25 L 126.963,-1432.65 L 126.851,-1432.07
 L 126.666,-1431.5 L 126.412,-1430.96 L 126.093,-1430.46 L 125.713,-1430 L 125.278,-1429.59 L 124.795,-1429.24
 L 124.272,-1428.95 L 123.718,-1428.73 L 123.14,-1428.58 L 122.548,-1428.51 z
M 123.437,-1209.09 L 124.045,-1209.24 L 124.629,-1209.48 L 125.179,-1209.78 L 125.687,-1210.15 L 126.145,-1210.58
 L 126.545,-1211.06 L 126.882,-1211.59 L 127.149,-1212.16 L 127.343,-1212.76 L 127.461,-1213.37 L 127.5,-1214
 L 127.5,-1414 L 127.461,-1414.63 L 127.343,-1415.24 L 127.149,-1415.84 L 126.882,-1416.41 L 126.545,-1416.94
 L 126.145,-1417.42 L 125.687,-1417.85 L 125.179,-1418.22 L 124.629,-1418.52 L 124.045,-1418.76 L 123.437,-1418.91
 L 122.814,-1418.99 L -122.814,-1418.99 L -123.437,-1418.91 L -124.045,-1418.76 L -124.629,-1418.52 L -125.179,-1418.22
 L -125.687,-1417.85 L -126.145,-1417.42 L -126.545,-1416.94 L -126.882,-1416.41 L -127.149,-1415.84 L -127.343,-1415.24
 L -127.461,-1414.63 L -127.5,-1414 L -127.5,-1214 L -127.461,-1213.37 L -127.343,-1212.76 L -127.149,-1212.16
 L -126.882,-1211.59 L -126.545,-1211.06 L -126.145,-1210.58 L -125.687,-1210.15 L -125.179,-1209.78 L -124.629,-1209.48
 L -124.045,-1209.24 L -123.437,-1209.09 L -122.814,-1209.01 L 122.814,-1209.01 z
M -122.548,-1209.51 L -123.14,-1209.58 L -123.718,-1209.73 L -124.272,-1209.95 L -124.795,-1210.24 L -125.278,-1210.59
 L -125.713,-1211 L -126.093,-1211.46 L -126.412,-1211.96 L -126.666,-1212.5 L -126.851,-1213.07 L -126.963,-1213.65
 L -127,-1214.25 L -127,-1413.75 L -126.963,-1414.35 L -126.851,-1414.93 L -126.666,-1415.5 L -126.412,-1416.04
 L -126.093,-1416.54 L -125.713,-1417 L -125.278,-1417.41 L -124.795,-1417.76 L -124.272,-1418.05 L -123.718,-1418.27
 L -123.14,-1418.42 L -122.548,-1418.49 L 122.548,-1418.49 L 123.14,-1418.42 L 123.718,-1418.27 L 124.272,-1418.05
 L 124.795,-1417.76 L 125.278,-1417.41 L 125.713,-1417 L 126.093,-1416.54 L 126.412,-1416.04 L 126.666,-1415.5
 L 126.851,-1414.93 L 126.963,-1414.35 L 127,-1413.75 L 127,-1214.25 L 126.963,-1213.65 L 126.851,-1213.07
 L 126.666,-1212.5 L 126.412,-1211.96 L 126.093,-1211.46 L 125.713,-1211 L 125.278,-1210.59 L 124.795,-1210.24
 L 124.272,-1209.95 L 123.718,-1209.73 L 123.14,-1209.58 L 122.548,-1209.51 z
M 123.437,-990.089 L 124.045,-990.245 L 124.629,-990.476 L 125.179,-990.778 L 125.687,-991.147 L 126.145,-991.577
 L 126.545,-992.061 L 126.882,-992.591 L 127.149,-993.159 L 127.343,-993.757 L 127.461,-994.373 L 127.5,-995
 L 127.5,-1195 L 127.461,-1195.63 L 127.343,-1196.24 L 127.149,-1196.84 L 126.882,-1197.41 L 126.545,-1197.94
 L 126.145,-1198.42 L 125.687,-1198.85 L 125.179,-1199.22 L 124.629,-1199.52 L 124.045,-1199.76 L 123.437,-1199.91
 L 122.814,-1199.99 L -122.814,-1199.99 L -123.437,-1199.91 L -124.045,-1199.76 L -124.629,-1199.52 L -125.179,-1199.22
 L -125.687,-1198.85 L -126.145,-1198.42 L -126.545,-1197.94 L -126.882,-1197.41 L -127.149,-1196.84 L -127.343,-1196.24
 L -127.461,-1195.63 L -127.5,-1195 L -127.5,-995 L -127.461,-994.373 L -127.343,-993.757 L -127.149,-993.159
 L -126.882,-992.591 L -126.545,-992.061 L -126.145,-991.577 L -125.687,-991.147 L -125.179,-990.778 L -124.629,-990.476
 L -124.045,-990.245 L -123.437,-990.089 L -122.814,-990.01 L 122.814,-990.01 z
M -122.493,-991.388 L -122.975,-991.449 L -123.446,-991.57 L -123.898,-991.749 L -124.323,-991.983 L -124.716,-992.269
 L -125.071,-992.601 L -125.38,-992.976 L -125.641,-993.386 L -125.848,-993.826 L -125.998,-994.288 L -126.089,-994.765
 L -126.119,-995.25 L -126.119,-1194.75 L -126.089,-1195.23 L -125.998,-1195.71 L -125.848,-1196.17 L -125.641,-1196.61
 L -125.38,-1197.02 L -125.071,-1197.4 L -124.716,-1197.73 L -124.323,-1198.02 L -123.898,-1198.25 L -123.446,-1198.43
 L -122.975,-1198.55 L -122.493,-1198.61 L 122.493,-1198.61 L 122.975,-1198.55 L 123.446,-1198.43 L 123.898,-1198.25
 L 124.323,-1198.02 L 124.716,-1197.73 L 125.071,-1197.4 L 125.38,-1197.02 L 125.641,-1196.61 L 125.848,-1196.17
 L 125.998,-1195.71 L 126.089,-1195.23 L 126.119,-1194.75 L 126.119,-995.25 L 126.089,-994.765 L 125.998,-994.288
 L 125.848,-993.826 L 125.641,-993.386 L 125.38,-992.976 L 125.071,-992.601 L 124.716,-992.269 L 124.323,-991.983
 L 123.898,-991.749 L 123.446,-991.57 L 122.975,-991.449 L 122.493,-991.388 z
M 123.437,-771.089 L 124.045,-771.245 L 124.629,-771.476 L 125.179,-771.778 L 125.687,-772.147 L 126.145,-772.577
 L 126.545,-773.061 L 126.882,-773.591 L 127.149,-774.159 L 127.343,-774.757 L 127.461,-775.373 L 127.5,-776
 L 127.5,-976 L 127.461,-976.627 L 127.343,-977.243 L 127.149,-977.841 L 126.882,-978.409 L 126.545,-978.939
 L 126.145,-979.423 L 125.687,-979.853 L 125.179,-980.222 L 124.629,-980.524 L 124.045,-980.755 L 123.437,-980.911
 L 122.814,-980.99 L -122.814,-980.99 L -123.437,-980.911 L -124.045,-980.755 L -124.629,-980.524 L -125.179,-980.222
 L -125.687,-979.853 L -126.145,-979.423 L -126.545,-978.939 L -126.882,-978.409 L -127.149,-977.841 L -127.343,-977.243
 L -127.461,-976.627 L -127.5,-976 L -127.5,-776 L -127.461,-775.373 L -127.343,-774.757 L -127.149,-774.159
 L -126.882,-773.591 L -126.545,-773.061 L -126.145,-772.577 L -125.687,-772.147 L -125.179,-771.778 L -124.629,-771.476
 L -124.045,-771.245 L -123.437,-771.089 L -122.814,-771.01 L 122.814,-771.01 z
M 119.887,-971.704 L 119.663,-971.732 L 119.444,-971.788 L 119.234,-971.871 L 119.036,-971.98 L 118.853,-972.113
 L 118.688,-972.268 L 118.544,-972.442 L 118.423,-972.633 L 118.326,-972.837 L 118.257,-973.052 L 118.214,-973.274
 L 118.2,-973.5 L 118.214,-973.726 L 118.257,-973.948 L 118.326,-974.163 L 118.423,-974.367 L 118.544,-974.558
 L 118.688,-974.732 L 118.853,-974.887 L 119.036,-975.02 L 119.234,-975.129 L 119.444,-975.212 L 119.663,-975.268
 L 119.887,-975.296 L 120.113,-975.296 L 120.337,-975.268 L 120.556,-975.212 L 120.766,-975.129 L 120.964,-975.02
 L 121.147,-974.887 L 121.312,-974.732 L 121.456,-974.558 L 121.577,-974.367 L 121.674,-974.163 L 121.743,-973.948
 L 121.786,-973.726 L 121.8,-973.5 L 121.786,-973.274 L 121.743,-973.052 L 121.674,-972.837 L 121.577,-972.633
 L 121.456,-972.442 L 121.312,-972.268 L 121.147,-972.113 L 120.964,-971.98 L 120.766,-971.871 L 120.556,-971.788
 L 120.337,-971.732 L 120.113,-971.704 z
M -120.113,-971.704 L -120.337,-971.732 L -120.556,-971.788 L -120.766,-971.871 L -120.964,-971.98 L -121.147,-972.113
 L -121.312,-972.268 L -121.456,-972.442 L -121.577,-972.633 L -121.674,-972.837 L -121.743,-973.052 L -121.786,-973.274
 L -121.8,-973.5 L -121.786,-973.726 L -121.743,-973.948 L -121.674,-974.163 L -121.577,-974.367 L -121.456,-974.558
 L -121.312,-974.732 L -121.147,-974.887 L -120.964,-975.02 L -120.766,-975.129 L -120.556,-975.212 L -120.337,-975.268
 L -120.113,-975.296 L -119.887,-975.296 L -119.663,-975.268 L -119.444,-975.212 L -119.234,-975.129 L -119.036,-975.02
 L -118.853,-974.887 L -118.688,-974.732 L -118.544,-974.558 L -118.423,-974.367 L -118.326,-974.163 L -118.257,-973.948
 L -118.214,-973.726 L -118.2,-973.5 L -118.214,-973.274 L -118.257,-973.052 L -118.326,-972.837 L -118.423,-972.633
 L -118.544,-972.442 L -118.688,-972.268 L -118.853,-972.113 L -119.036,-971.98 L -119.234,-971.871 L -119.444,-971.788
 L -119.663,-971.732 L -119.887,-971.704 z
M -120.113,-776.704 L -120.337,-776.732 L -120.556,-776.788 L -120.766,-776.871 L -120.964,-776.98 L -121.147,-777.113
 L -121.312,-777.268 L -121.456,-777.442 L -121.577,-777.633 L -121.674,-777.837 L -121.743,-778.052 L -121.786,-778.274
 L -121.8,-778.5 L -121.786,-778.726 L -121.743,-778.948 L -121.674,-779.163 L -121.577,-779.367 L -121.456,-779.558
 L -121.312,-779.732 L -121.147,-779.887 L -120.964,-780.02 L -120.766,-780.129 L -120.556,-780.212 L -120.337,-780.268
 L -120.113,-780.296 L -119.887,-780.296 L -119.663,-780.268 L -119.444,-780.212 L -119.234,-780.129 L -119.036,-780.02
 L -118.853,-779.887 L -118.688,-779.732 L -118.544,-779.558 L -118.423,-779.367 L -118.326,-779.163 L -118.257,-778.948
 L -118.214,-778.726 L -118.2,-778.5 L -118.214,-778.274 L -118.257,-778.052 L -118.326,-777.837 L -118.423,-777.633
 L -118.544,-777.442 L -118.688,-777.268 L -118.853,-777.113 L -119.036,-776.98 L -119.234,-776.871 L -119.444,-776.788
 L -119.663,-776.732 L -119.887,-776.704 z
M 119.887,-776.704 L 119.663,-776.732 L 119.444,-776.788 L 119.234,-776.871 L 119.036,-776.98 L 118.853,-777.113
 L 118.688,-777.268 L 118.544,-777.442 L 118.423,-777.633 L 118.326,-777.837 L 118.257,-778.052 L 118.214,-778.274
 L 118.2,-778.5 L 118.214,-778.726 L 118.257,-778.948 L 118.326,-779.163 L 118.423,-779.367 L 118.544,-779.558
 L 118.688,-779.732 L 118.853,-779.887 L 119.036,-780.02 L 119.234,-780.129 L 119.444,-780.212 L 119.663,-780.268
 L 119.887,-780.296 L 120.113,-780.296 L 120.337,-780.268 L 120.556,-780.212 L 120.766,-780.129 L 120.964,-780.02
 L 121.147,-779.887 L 121.312,-779.732 L 121.456,-779.558 L 121.577,-779.367 L 121.674,-779.163 L 121.743,-778.948
 L 121.786,-778.726 L 121.8,-778.5 L 121.786,-778.274 L 121.743,-778.052 L 121.674,-777.837 L 121.577,-777.633
 L 121.456,-777.442 L 121.312,-777.268 L 121.147,-777.113 L 120.964,-776.98 L 120.766,-776.871 L 120.556,-776.788
 L 120.337,-776.732 L 120.113,-776.704 z
" stroke="black" fill="lightgray" stroke-width="0.5"/>
</svg>
