<?xml version="1.0" standalone="no"?>
<!DOCTYPE svg PUBLIC "-//W3C//DTD SVG 1.1//EN" "http://www.w3.org/Graphics/SVG/1.1/DTD/svg11.dtd">
<svg width="257mm" height="738mm" viewBox="-129 -1365 257 738" xmlns="http://www.w3.org/2000/svg" version="1.1">
<title>OpenSCAD Model</title>
<path d="
M -126,-1126.44 L -125.687,-1126.15 L -125.179,-1125.78 L -124.629,-1125.48 L -124.045,-1125.24 L -123.437,-1125.09
 L -122.814,-1125.01 L 122.814,-1125.01 L 123.437,-1125.09 L 124.045,-1125.24 L 124.629,-1125.48 L 125.179,-1125.78
 L 125.687,-1126.15 L 126.145,-1126.58 L 126.545,-1127.06 L 126.882,-1127.59 L 127.149,-1128.16 L 127.343,-1128.76
 L 127.461,-1129.37 L 127.5,-1130 L 127.5,-1360 L 127.461,-1360.63 L 127.343,-1361.24 L 127.149,-1361.84
 L 126.882,-1362.41 L 126.545,-1362.94 L 126.145,-1363.42 L 125.687,-1363.85 L 125.179,-1364.22 L 124.629,-1364.52
 L 124.045,-1364.76 L 123.437,-1364.91 L 122.814,-1364.99 L -122.814,-1364.99 L -123.437,-1364.91 L -124.045,-1364.76
 L -124.629,-1364.52 L -125.179,-1364.22 L -125.687,-1363.85 L -126,-1363.56 L -126,-1364.99 L -129,-1364.99
 L -129,-1125.01 L -126,-1125.01 z
M -122.251,-1126.51 L -122.75,-1126.57 L -123.236,-1126.7 L -123.703,-1126.88 L -124.143,-1127.12 L -124.55,-1127.42
 L -124.916,-1127.76 L -125.236,-1128.15 L -125.505,-1128.57 L -125.719,-1129.03 L -125.874,-1129.51 L -125.968,-1130
 L -126,-1130.5 L -126,-1359.5 L -125.968,-1360 L -125.874,-1360.49 L -125.719,-1360.97 L -125.505,-1361.43
 L -125.236,-1361.85 L -124.916,-1362.24 L -124.55,-1362.58 L -124.143,-1362.88 L -123.703,-1363.12 L -123.236,-1363.3
 L -122.75,-1363.43 L -122.251,-1363.49 L 122.251,-1363.49 L 122.75,-1363.43 L 123.236,-1363.3 L 123.703,-1363.12
 L 124.143,-1362.88 L 124.55,-1362.58 L 124.916,-1362.24 L 125.236,-1361.85 L 125.505,-1361.43 L 125.719,-1360.97
 L 125.874,-1360.49 L 125.968,-1360 L 126,-1359.5 L 126,-1130.5 L 125.968,-1130 L 125.874,-1129.51
 L 125.719,-1129.03 L 125.505,-1128.57 L 125.236,-1128.15 L 124.916,-1127.76 L 124.55,-1127.42 L 124.143,-1127.12
 L 123.703,-1126.88 L 123.236,-1126.7 L 122.75,-1126.57 L 122.251,-1126.51 z
M 123.437,-876.089 L 124.045,-876.245 L 124.629,-876.476 L 125.179,-876.778 L 125.687,-877.147 L 126.145,-877.577
 L 126.545,-878.061 L 126.882,-878.591 L 127.149,-879.159 L 127.343,-879.757 L 127.461,-880.373 L 127.5,-881
 L 127.5,-1111 L 127.461,-1111.63 L 127.343,-1112.24 L 127.149,-1112.84 L 126.882,-1113.41 L 126.545,-1113.94
 L 126.145,-1114.42 L 125.687,-1114.85 L 125.179,-1115.22 L 124.629,-1115.52 L 124.045,-1115.76 L 123.437,-1115.91
 L 122.814,-1115.99 L -122.814,-1115.99 L -123.437,-1115.91 L -124.045,-1115.76 L -124.629,-1115.52 L -125.179,-1115.22
 L -125.687,-1114.85 L -126,-1114.56 L -126,-1115.98 L -129,-1115.98 L -129,-876.021 L -126,-876.021
 L -126,-877.441 L -125.687,-877.147 L -125.179,-876.778 L -124.629,-876.476 L -124.045,-876.245 L -123.437,-876.089
 L -122.814,-876.01 L 122.814,-876.01 z
M -122.195,-878.393 L -122.583,-878.442 L -122.962,-878.539 L -123.325,-878.683 L -123.668,-878.872 L -123.984,-879.101
 L -124.269,-879.369 L -124.518,-879.67 L -124.728,-880 L -124.894,-880.354 L -125.015,-880.726 L -125.088,-881.11
 L -125.113,-881.5 L -125.113,-1110.5 L -125.088,-1110.89 L -125.015,-1111.27 L -124.894,-1111.65 L -124.728,-1112
 L -124.518,-1112.33 L -124.269,-1112.63 L -123.984,-1112.9 L -123.668,-1113.13 L -123.325,-1113.32 L -122.962,-1113.46
 L -122.583,-1113.56 L -122.195,-1113.61 L 122.195,-1113.61 L 122.583,-1113.56 L 122.962,-1113.46 L 123.325,-1113.32
 L 123.668,-1113.13 L 123.984,-1112.9 L 124.269,-1112.63 L 124.518,-1112.33 L 124.728,-1112 L 124.894,-1111.65
 L 125.015,-1111.27 L 125.088,-1110.89 L 125.113,-1110.5 L 125.113,-881.5 L 125.088,-881.11 L 125.015,-880.726
 L 124.894,-880.354 L 124.728,-880 L 124.518,-879.67 L 124.269,-879.369 L 123.984,-879.101 L 123.668,-878.872
 L 123.325,-878.683 L 122.962,-878.539 L 122.583,-878.442 L 122.195,-878.393 z
M 123.437,-627.089 L 124.045,-627.245 L 124.629,-627.476 L 125.179,-627.778 L 125.687,-628.147 L 126.145,-628.577
 L 126.545,-629.061 L 126.882,-629.591 L 127.149,-630.159 L 127.343,-630.757 L 127.461,-631.373 L 127.5,-632
 L 127.5,-862 L 127.461,-862.627 L 127.343,-863.243 L 127.149,-863.841 L 126.882,-864.409 L 126.545,-864.939
 L 126.145,-865.423 L 125.687,-865.853 L 125.179,-866.222 L 124.629,-866.524 L 124.045,-866.755 L 123.437,-866.911
 L 122.814,-866.99 L -122.814,-866.99 L -123.437,-866.911 L -124.045,-866.755 L -124.629,-866.524 L -125.179,-866.222
 L -125.687,-865.853 L -126,-865.559 L -126,-865.653 L -129,-865.653 L -129,-628.347 L -126,-628.347
 L -126,-628.441 L -125.687,-628.147 L -125.179,-627.778 L -124.629,-627.476 L -124.045,-627.245 L -123.437,-627.089
 L -122.814,-627.01 L 122.814,-627.01 z
M 119.866,-857.369 L 119.6,-857.403 L 119.34,-857.469 L 119.091,-857.568 L 118.856,-857.697 L 118.639,-857.855
 L 118.443,-858.038 L 118.273,-858.245 L 118.129,-858.471 L 118.015,-858.714 L 117.932,-858.969 L 117.882,-859.232
 L 117.865,-859.5 L 117.882,-859.768 L 117.932,-860.031 L 118.015,-860.286 L 118.129,-860.529 L 118.273,-860.755
 L 118.443,-860.962 L 118.639,-861.145 L 118.856,-861.303 L 119.091,-861.432 L 119.34,-861.531 L 119.6,-861.597
 L 119.866,-861.631 L 120.134,-861.631 L 120.4,-861.597 L 120.66,-861.531 L 120.909,-861.432 L 121.144,-861.303
 L 121.361,-861.145 L 121.557,-860.962 L 121.727,-860.755 L 121.871,-860.529 L 121.985,-860.286 L 122.068,-860.031
 L 122.118,-859.768 L 122.135,-859.5 L 122.118,-859.232 L 122.068,-858.969 L 121.985,-858.714 L 121.871,-858.471
 L 121.727,-858.245 L 121.557,-858.038 L 121.361,-857.855 L 121.144,-857.697 L 120.909,-857.568 L 120.66,-857.469
 L 120.4,-857.403 L 120.134,-857.369 z
M -120.134,-857.369 L -120.4,-857.403 L -120.66,-857.469 L -120.909,-857.568 L -121.144,-857.697 L -121.361,-857.855
 L -121.557,-858.038 L -121.727,-858.245 L -121.871,-858.471 L -121.985,-858.714 L -122.068,-858.969 L -122.118,-859.232
 L -122.135,-859.5 L -122.118,-859.768 L -122.068,-860.031 L -121.985,-860.286 L -121.871,-860.529 L -121.727,-860.755
 L -121.557,-860.962 L -121.361,-861.145 L -121.144,-861.303 L -120.909,-861.432 L -120.66,-861.531 L -120.4,-861.597
 L -120.134,-861.631 L -119.866,-861.631 L -119.6,-861.597 L -119.34,-861.531 L -119.091,-861.432 L -118.856,-861.303
 L -118.639,-861.145 L -118.443,-860.962 L -118.273,-860.755 L -118.129,-860.529 L -118.015,-860.286 L -117.932,-860.031
 L -117.882,-859.768 L -117.865,-859.5 L -117.882,-859.232 L -117.932,-858.969 L -118.015,-858.714 L -118.129,-858.471
 L -118.273,-858.245 L -118.443,-858.038 L -118.639,-857.855 L -118.856,-857.697 L -119.091,-857.568 L -119.34,-857.469
 L -119.6,-857.403 L -119.866,-857.369 z
M 119.866,-632.369 L 119.6,-632.403 L 119.34,-632.469 L 119.091,-632.568 L 118.856,-632.697 L 118.639,-632.855
 L 118.443,-633.038 L 118.273,-633.245 L 118.129,-633.471 L 118.015,-633.714 L 117.932,-633.969 L 117.882,-634.232
 L 117.865,-634.5 L 117.882,-634.768 L 117.932,-635.031 L 118.015,-635.286 L 118.129,-635.529 L 118.273,-635.755
 L 118.443,-635.962 L 118.639,-636.145 L 118.856,-636.303 L 119.091,-636.432 L 119.34,-636.531 L 119.6,-636.597
 L 119.866,-636.631 L 120.134,-636.631 L 120.4,-636.597 L 120.66,-636.531 L 120.909,-636.432 L 121.144,-636.303
 L 121.361,-636.145 L 121.557,-635.962 L 121.727,-635.755 L 121.871,-635.529 L 121.985,-635.286 L 122.068,-635.031
 L 122.118,-634.768 L 122.135,-634.5 L 122.118,-634.232 L 122.068,-633.969 L 121.985,-633.714 L 121.871,-633.471
 L 121.727,-633.245 L 121.557,-633.038 L 121.361,-632.855 L 121.144,-632.697 L 120.909,-632.568 L 120.66,-632.469
 L 120.4,-632.403 L 120.134,-632.369 z
M -120.134,-632.369 L -120.4,-632.403 L -120.66,-632.469 L -120.909,-632.568 L -121.144,-632.697 L -121.361,-632.855
 L -121.557,-633.038 L -121.727,-633.245 L -121.871,-633.471 L -121.985,-633.714 L -122.068,-633.969 L -122.118,-634.232
 L -122.135,-634.5 L -122.118,-634.768 L -122.068,-635.031 L -121.985,-635.286 L -121.871,-635.529 L -121.727,-635.755
 L -121.557,-635.962 L -121.361,-636.145 L -121.144,-636.303 L -120.909,-636.432 L -120.66,-636.531 L -120.4,-636.597
 L -120.134,-636.631 L -119.866,-636.631 L -119.6,-636.597 L -119.34,-636.531 L -119.091,-636.432 L -118.856,-636.303
 L -118.639,-636.145 L -118.443,-635.962 L -118.273,-635.755 L -118.129,-635.529 L -118.015,-635.286 L -117.932,-635.031
 L -117.882,-634.768 L -117.865,-634.5 L -117.882,-634.232 L -117.932,-633.969 L -118.015,-633.714 L -118.129,-633.471
 L -118.273,-633.245 L -118.443,-633.038 L -118.639,-632.855 L -118.856,-632.697 L -119.091,-632.568 L -119.34,-632.469
 L -119.6,-632.403 L -119.866,-632.369 z
" stroke="black" fill="lightgray" stroke-width="0.5"/>
</svg>
