<?xml version="1.0" standalone="no"?>
<!DOCTYPE svg PUBLIC "-//W3C//DTD SVG 1.1//EN" "http://www.w3.org/Graphics/SVG/1.1/DTD/svg11.dtd">
<svg width="270mm" height="604mm" viewBox="-135 -1118 270 604" xmlns="http://www.w3.org/2000/svg" version="1.1">
<title>OpenSCAD Model</title>
<path d="
M 130.937,-922.589 L 131.545,-922.745 L 132.129,-922.976 L 132.679,-923.278 L 133.187,-923.647 L 133.645,-924.077
 L 134.045,-924.561 L 134.382,-925.091 L 134.649,-925.659 L 134.843,-926.257 L 134.961,-926.873 L 135,-927.5
 L 135,-1112.5 L 134.961,-1113.13 L 134.843,-1113.74 L 134.649,-1114.34 L 134.382,-1114.91 L 134.045,-1115.44
 L 133.645,-1115.92 L 133.187,-1116.35 L 132.679,-1116.72 L 132.129,-1117.02 L 131.545,-1117.26 L 130.937,-1117.41
 L 130.314,-1117.49 L -130.314,-1117.49 L -130.937,-1117.41 L -131.545,-1117.26 L -132.129,-1117.02 L -132.679,-1116.72
 L -133.187,-1116.35 L -133.645,-1115.92 L -134.045,-1115.44 L -134.382,-1114.91 L -134.649,-1114.34 L -134.843,-1113.74
 L -134.961,-1113.13 L -135,-1112.5 L -135,-927.5 L -134.961,-926.873 L -134.843,-926.257 L -134.649,-925.659
 L -134.382,-925.091 L -134.045,-924.561 L -133.645,-924.077 L -133.187,-923.647 L -132.679,-923.278 L -132.129,-922.976
 L -131.545,-922.745 L -130.937,-922.589 L -130.314,-922.51 L 130.314,-922.51 z
M -130.048,-923.009 L -130.64,-923.084 L -131.218,-923.232 L -131.772,-923.452 L -132.295,-923.739 L -132.778,-924.09
 L -133.213,-924.498 L -133.593,-924.958 L -133.912,-925.462 L -134.166,-926.001 L -134.351,-926.569 L -134.463,-927.155
 L -134.5,-927.75 L -134.5,-1112.25 L -134.463,-1112.85 L -134.351,-1113.43 L -134.166,-1114 L -133.912,-1114.54
 L -133.593,-1115.04 L -133.213,-1115.5 L -132.778,-1115.91 L -132.295,-1116.26 L -131.772,-1116.55 L -131.218,-1116.77
 L -130.64,-1116.92 L -130.048,-1116.99 L 130.048,-1116.99 L 130.64,-1116.92 L 131.218,-1116.77 L 131.772,-1116.55
 L 132.295,-1116.26 L 132.778,-1115.91 L 133.213,-1115.5 L 133.593,-1115.04 L 133.912,-1114.54 L 134.166,-1114
 L 134.351,-1113.43 L 134.463,-1112.85 L 134.5,-1112.25 L 134.5,-927.75 L 134.463,-927.155 L 134.351,-926.569
 L 134.166,-926.001 L 133.912,-925.462 L 133.593,-924.958 L 133.213,-924.498 L 132.778,-924.09 L 132.295,-923.739
 L 131.772,-923.452 L 131.218,-923.232 L 130.64,-923.084 L 130.048,-923.009 z
M 130.937,-718.589 L 131.545,-718.745 L 132.129,-718.976 L 132.679,-719.278 L 133.187,-719.647 L 133.645,-720.077
 L 134.045,-720.561 L 134.382,-721.091 L 134.649,-721.659 L 134.843,-722.257 L 134.961,-722.873 L 135,-723.5
 L 135,-908.5 L 134.961,-909.127 L 134.843,-909.743 L 134.649,-910.341 L 134.382,-910.909 L 134.045,-911.439
 L 133.645,-911.923 L 133.187,-912.353 L 132.679,-912.722 L 132.129,-913.024 L 131.545,-913.255 L 130.937,-913.411
 L 130.314,-913.49 L -130.314,-913.49 L -130.937,-913.411 L -131.545,-913.255 L -132.129,-913.024 L -132.679,-912.722
 L -133.187,-912.353 L -133.645,-911.923 L -134.045,-911.439 L -134.382,-910.909 L -134.649,-910.341 L -134.843,-909.743
 L -134.961,-909.127 L -135,-908.5 L -135,-723.5 L -134.961,-722.873 L -134.843,-722.257 L -134.649,-721.659
 L -134.382,-721.091 L -134.045,-720.561 L -133.645,-720.077 L -133.187,-719.647 L -132.679,-719.278 L -132.129,-718.976
 L -131.545,-718.745 L -130.937,-718.589 L -130.314,-718.51 L 130.314,-718.51 z
M -130.037,-719.181 L -130.608,-719.253 L -131.165,-719.396 L -131.699,-719.607 L -132.203,-719.884 L -132.668,-720.222
 L -133.088,-720.616 L -133.454,-721.059 L -133.762,-721.544 L -134.007,-722.065 L -134.185,-722.611 L -134.292,-723.176
 L -134.328,-723.75 L -134.328,-908.25 L -134.292,-908.824 L -134.185,-909.389 L -134.007,-909.935 L -133.762,-910.456
 L -133.454,-910.941 L -133.088,-911.384 L -132.668,-911.778 L -132.203,-912.116 L -131.699,-912.393 L -131.165,-912.604
 L -130.608,-912.747 L -130.037,-912.819 L 130.037,-912.819 L 130.608,-912.747 L 131.165,-912.604 L 131.699,-912.393
 L 132.203,-912.116 L 132.668,-911.778 L 133.088,-911.384 L 133.454,-910.941 L 133.762,-910.456 L 134.007,-909.935
 L 134.185,-909.389 L 134.292,-908.824 L 134.328,-908.25 L 134.328,-723.75 L 134.292,-723.176 L 134.185,-722.611
 L 134.007,-722.065 L 133.762,-721.544 L 133.454,-721.059 L 133.088,-720.616 L 132.668,-720.222 L 132.203,-719.884
 L 131.699,-719.607 L 131.165,-719.396 L 130.608,-719.253 L 130.037,-719.181 z
M 130.937,-514.589 L 131.545,-514.745 L 132.129,-514.976 L 132.679,-515.278 L 133.187,-515.647 L 133.645,-516.077
 L 134.045,-516.561 L 134.382,-517.091 L 134.649,-517.659 L 134.843,-518.257 L 134.961,-518.873 L 135,-519.5
 L 135,-704.5 L 134.961,-705.127 L 134.843,-705.743 L 134.649,-706.341 L 134.382,-706.909 L 134.045,-707.439
 L 133.645,-707.923 L 133.187,-708.353 L 132.679,-708.722 L 132.129,-709.024 L 131.545,-709.255 L 130.937,-709.411
 L 130.314,-709.49 L -130.314,-709.49 L -130.937,-709.411 L -131.545,-709.255 L -132.129,-709.024 L -132.679,-708.722
 L -133.187,-708.353 L -133.645,-707.923 L -134.045,-707.439 L -134.382,-706.909 L -134.649,-706.341 L -134.843,-705.743
 L -134.961,-705.127 L -135,-704.5 L -135,-519.5 L -134.961,-518.873 L -134.843,-518.257 L -134.649,-517.659
 L -134.382,-517.091 L -134.045,-516.561 L -133.645,-516.077 L -133.187,-515.647 L -132.679,-515.278 L -132.129,-514.976
 L -131.545,-514.745 L -130.937,-514.589 L -130.314,-514.51 L 130.314,-514.51 z
M -129.882,-517.645 L -130.145,-517.678 L -130.402,-517.744 L -130.648,-517.841 L -130.88,-517.969 L -131.095,-518.124
 L -131.288,-518.306 L -131.457,-518.51 L -131.599,-518.734 L -131.711,-518.973 L -131.793,-519.225 L -131.843,-519.486
 L -131.86,-519.75 L -131.86,-704.25 L -131.843,-704.514 L -131.793,-704.775 L -131.711,-705.027 L -131.599,-705.266
 L -131.457,-705.49 L -131.288,-705.694 L -131.095,-705.876 L -130.88,-706.031 L -130.648,-706.159 L -130.402,-706.256
 L -130.145,-706.322 L -129.882,-706.355 L 129.882,-706.355 L 130.145,-706.322 L 130.402,-706.256 L 130.648,-706.159
 L 130.88,-706.031 L 131.095,-705.876 L 131.288,-705.694 L 131.457,-705.49 L 131.599,-705.266 L 131.711,-705.027
 L 131.793,-704.775 L 131.843,-704.514 L 131.86,-704.25 L 131.86,-519.75 L 131.843,-519.486 L 131.793,-519.225
 L 131.711,-518.973 L 131.599,-518.734 L 131.457,-518.51 L 131.288,-518.306 L 131.095,-518.124 L 130.88,-517.969
 L 130.648,-517.841 L 130.402,-517.744 L 130.145,-517.678 L 129.882,-517.645 z
" stroke="black" fill="lightgray" stroke-width="0.5"/>
</svg>
