  0
SECTION
  2
BLOCKS
  0
ENDSEC
  0
SECTION
  2
ENTITIES
  0
LINE
  8
0
 10
115.937
 20
1125.09
 11
116.545
 21
1125.24
  0
LINE
  8
0
 10
116.545
 20
1125.24
 11
117.129
 21
1125.48
  0
LINE
  8
0
 10
117.129
 20
1125.48
 11
117.679
 21
1125.78
  0
LINE
  8
0
 10
117.679
 20
1125.78
 11
118.187
 21
1126.15
  0
LINE
  8
0
 10
118.187
 20
1126.15
 11
118.645
 21
1126.58
  0
LINE
  8
0
 10
118.645
 20
1126.58
 11
119.045
 21
1127.06
  0
LINE
  8
0
 10
119.045
 20
1127.06
 11
119.382
 21
1127.59
  0
LINE
  8
0
 10
119.382
 20
1127.59
 11
119.649
 21
1128.16
  0
LINE
  8
0
 10
119.649
 20
1128.16
 11
119.843
 21
1128.76
  0
LINE
  8
0
 10
119.843
 20
1128.76
 11
119.961
 21
1129.37
  0
LINE
  8
0
 10
119.961
 20
1129.37
 11
120
 21
1130
  0
LINE
  8
0
 10
120
 20
1130
 11
120
 21
1360
  0
LINE
  8
0
 10
120
 20
1360
 11
119.961
 21
1360.63
  0
LINE
  8
0
 10
119.961
 20
1360.63
 11
119.843
 21
1361.24
  0
LINE
  8
0
 10
119.843
 20
1361.24
 11
119.649
 21
1361.84
  0
LINE
  8
0
 10
119.649
 20
1361.84
 11
119.382
 21
1362.41
  0
LINE
  8
0
 10
119.382
 20
1362.41
 11
119.045
 21
1362.94
  0
LINE
  8
0
 10
119.045
 20
1362.94
 11
118.645
 21
1363.42
  0
LINE
  8
0
 10
118.645
 20
1363.42
 11
118.187
 21
1363.85
  0
LINE
  8
0
 10
118.187
 20
1363.85
 11
117.679
 21
1364.22
  0
LINE
  8
0
 10
117.679
 20
1364.22
 11
117.129
 21
1364.52
  0
LINE
  8
0
 10
117.129
 20
1364.52
 11
116.545
 21
1364.76
  0
LINE
  8
0
 10
116.545
 20
1364.76
 11
115.937
 21
1364.91
  0
LINE
  8
0
 10
115.937
 20
1364.91
 11
115.314
 21
1364.99
  0
LINE
  8
0
 10
115.314
 20
1364.99
 11
-115.314
 21
1364.99
  0
LINE
  8
0
 10
-115.314
 20
1364.99
 11
-115.937
 21
1364.91
  0
LINE
  8
0
 10
-115.937
 20
1364.91
 11
-116.545
 21
1364.76
  0
LINE
  8
0
 10
-116.545
 20
1364.76
 11
-117.129
 21
1364.52
  0
LINE
  8
0
 10
-117.129
 20
1364.52
 11
-117.679
 21
1364.22
  0
LINE
  8
0
 10
-117.679
 20
1364.22
 11
-118.187
 21
1363.85
  0
LINE
  8
0
 10
-118.187
 20
1363.85
 11
-118.645
 21
1363.42
  0
LINE
  8
0
 10
-118.645
 20
1363.42
 11
-119.045
 21
1362.94
  0
LINE
  8
0
 10
-119.045
 20
1362.94
 11
-119.382
 21
1362.41
  0
LINE
  8
0
 10
-119.382
 20
1362.41
 11
-119.649
 21
1361.84
  0
LINE
  8
0
 10
-119.649
 20
1361.84
 11
-119.843
 21
1361.24
  0
LINE
  8
0
 10
-119.843
 20
1361.24
 11
-119.961
 21
1360.63
  0
LINE
  8
0
 10
-119.961
 20
1360.63
 11
-120
 21
1360
  0
LINE
  8
0
 10
-120
 20
1360
 11
-120
 21
1130
  0
LINE
  8
0
 10
-120
 20
1130
 11
-119.961
 21
1129.37
  0
LINE
  8
0
 10
-119.961
 20
1129.37
 11
-119.843
 21
1128.76
  0
LINE
  8
0
 10
-119.843
 20
1128.76
 11
-119.649
 21
1128.16
  0
LINE
  8
0
 10
-119.649
 20
1128.16
 11
-119.382
 21
1127.59
  0
LINE
  8
0
 10
-119.382
 20
1127.59
 11
-119.045
 21
1127.06
  0
LINE
  8
0
 10
-119.045
 20
1127.06
 11
-118.645
 21
1126.58
  0
LINE
  8
0
 10
-118.645
 20
1126.58
 11
-118.187
 21
1126.15
  0
LINE
  8
0
 10
-118.187
 20
1126.15
 11
-117.679
 21
1125.78
  0
LINE
  8
0
 10
-117.679
 20
1125.78
 11
-117.129
 21
1125.48
  0
LINE
  8
0
 10
-117.129
 20
1125.48
 11
-116.545
 21
1125.24
  0
LINE
  8
0
 10
-116.545
 20
1125.24
 11
-115.937
 21
1125.09
  0
LINE
  8
0
 10
-115.937
 20
1125.09
 11
-115.314
 21
1125.01
  0
LINE
  8
0
 10
-115.314
 20
1125.01
 11
115.314
 21
1125.01
  0
LINE
  8
0
 10
115.314
 20
1125.01
 11
115.937
 21
1125.09
  0
LINE
  8
0
 10
-115.048
 20
1125.51
 11
-115.64
 21
1125.58
  0
LINE
  8
0
 10
-115.64
 20
1125.58
 11
-116.218
 21
1125.73
  0
LINE
  8
0
 10
-116.218
 20
1125.73
 11
-116.772
 21
1125.95
  0
LINE
  8
0
 10
-116.772
 20
1125.95
 11
-117.295
 21
1126.24
  0
LINE
  8
0
 10
-117.295
 20
1126.24
 11
-117.778
 21
1126.59
  0
LINE
  8
0
 10
-117.778
 20
1126.59
 11
-118.213
 21
1127
  0
LINE
  8
0
 10
-118.213
 20
1127
 11
-118.593
 21
1127.46
  0
LINE
  8
0
 10
-118.593
 20
1127.46
 11
-118.912
 21
1127.96
  0
LINE
  8
0
 10
-118.912
 20
1127.96
 11
-119.166
 21
1128.5
  0
LINE
  8
0
 10
-119.166
 20
1128.5
 11
-119.351
 21
1129.07
  0
LINE
  8
0
 10
-119.351
 20
1129.07
 11
-119.463
 21
1129.65
  0
LINE
  8
0
 10
-119.463
 20
1129.65
 11
-119.5
 21
1130.25
  0
LINE
  8
0
 10
-119.5
 20
1130.25
 11
-119.5
 21
1359.75
  0
LINE
  8
0
 10
-119.5
 20
1359.75
 11
-119.463
 21
1360.35
  0
LINE
  8
0
 10
-119.463
 20
1360.35
 11
-119.351
 21
1360.93
  0
LINE
  8
0
 10
-119.351
 20
1360.93
 11
-119.166
 21
1361.5
  0
LINE
  8
0
 10
-119.166
 20
1361.5
 11
-118.912
 21
1362.04
  0
LINE
  8
0
 10
-118.912
 20
1362.04
 11
-118.593
 21
1362.54
  0
LINE
  8
0
 10
-118.593
 20
1362.54
 11
-118.213
 21
1363
  0
LINE
  8
0
 10
-118.213
 20
1363
 11
-117.778
 21
1363.41
  0
LINE
  8
0
 10
-117.778
 20
1363.41
 11
-117.295
 21
1363.76
  0
LINE
  8
0
 10
-117.295
 20
1363.76
 11
-116.772
 21
1364.05
  0
LINE
  8
0
 10
-116.772
 20
1364.05
 11
-116.218
 21
1364.27
  0
LINE
  8
0
 10
-116.218
 20
1364.27
 11
-115.64
 21
1364.42
  0
LINE
  8
0
 10
-115.64
 20
1364.42
 11
-115.048
 21
1364.49
  0
LINE
  8
0
 10
-115.048
 20
1364.49
 11
115.048
 21
1364.49
  0
LINE
  8
0
 10
115.048
 20
1364.49
 11
115.64
 21
1364.42
  0
LINE
  8
0
 10
115.64
 20
1364.42
 11
116.218
 21
1364.27
  0
LINE
  8
0
 10
116.218
 20
1364.27
 11
116.772
 21
1364.05
  0
LINE
  8
0
 10
116.772
 20
1364.05
 11
117.295
 21
1363.76
  0
LINE
  8
0
 10
117.295
 20
1363.76
 11
117.778
 21
1363.41
  0
LINE
  8
0
 10
117.778
 20
1363.41
 11
118.213
 21
1363
  0
LINE
  8
0
 10
118.213
 20
1363
 11
118.593
 21
1362.54
  0
LINE
  8
0
 10
118.593
 20
1362.54
 11
118.912
 21
1362.04
  0
LINE
  8
0
 10
118.912
 20
1362.04
 11
119.166
 21
1361.5
  0
LINE
  8
0
 10
119.166
 20
1361.5
 11
119.351
 21
1360.93
  0
LINE
  8
0
 10
119.351
 20
1360.93
 11
119.463
 21
1360.35
  0
LINE
  8
0
 10
119.463
 20
1360.35
 11
119.5
 21
1359.75
  0
LINE
  8
0
 10
119.5
 20
1359.75
 11
119.5
 21
1130.25
  0
LINE
  8
0
 10
119.5
 20
1130.25
 11
119.463
 21
1129.65
  0
LINE
  8
0
 10
119.463
 20
1129.65
 11
119.351
 21
1129.07
  0
LINE
  8
0
 10
119.351
 20
1129.07
 11
119.166
 21
1128.5
  0
LINE
  8
0
 10
119.166
 20
1128.5
 11
118.912
 21
1127.96
  0
LINE
  8
0
 10
118.912
 20
1127.96
 11
118.593
 21
1127.46
  0
LINE
  8
0
 10
118.593
 20
1127.46
 11
118.213
 21
1127
  0
LINE
  8
0
 10
118.213
 20
1127
 11
117.778
 21
1126.59
  0
LINE
  8
0
 10
117.778
 20
1126.59
 11
117.295
 21
1126.24
  0
LINE
  8
0
 10
117.295
 20
1126.24
 11
116.772
 21
1125.95
  0
LINE
  8
0
 10
116.772
 20
1125.95
 11
116.218
 21
1125.73
  0
LINE
  8
0
 10
116.218
 20
1125.73
 11
115.64
 21
1125.58
  0
LINE
  8
0
 10
115.64
 20
1125.58
 11
115.048
 21
1125.51
  0
LINE
  8
0
 10
115.048
 20
1125.51
 11
-115.048
 21
1125.51
  0
LINE
  8
0
 10
115.937
 20
876.089
 11
116.545
 21
876.245
  0
LINE
  8
0
 10
116.545
 20
876.245
 11
117.129
 21
876.476
  0
LINE
  8
0
 10
117.129
 20
876.476
 11
117.679
 21
876.778
  0
LINE
  8
0
 10
117.679
 20
876.778
 11
118.187
 21
877.147
  0
LINE
  8
0
 10
118.187
 20
877.147
 11
118.645
 21
877.577
  0
LINE
  8
0
 10
118.645
 20
877.577
 11
119.045
 21
878.061
  0
LINE
  8
0
 10
119.045
 20
878.061
 11
119.382
 21
878.591
  0
LINE
  8
0
 10
119.382
 20
878.591
 11
119.649
 21
879.159
  0
LINE
  8
0
 10
119.649
 20
879.159
 11
119.843
 21
879.757
  0
LINE
  8
0
 10
119.843
 20
879.757
 11
119.961
 21
880.373
  0
LINE
  8
0
 10
119.961
 20
880.373
 11
120
 21
881
  0
LINE
  8
0
 10
120
 20
881
 11
120
 21
1111
  0
LINE
  8
0
 10
120
 20
1111
 11
119.961
 21
1111.63
  0
LINE
  8
0
 10
119.961
 20
1111.63
 11
119.843
 21
1112.24
  0
LINE
  8
0
 10
119.843
 20
1112.24
 11
119.649
 21
1112.84
  0
LINE
  8
0
 10
119.649
 20
1112.84
 11
119.382
 21
1113.41
  0
LINE
  8
0
 10
119.382
 20
1113.41
 11
119.045
 21
1113.94
  0
LINE
  8
0
 10
119.045
 20
1113.94
 11
118.645
 21
1114.42
  0
LINE
  8
0
 10
118.645
 20
1114.42
 11
118.187
 21
1114.85
  0
LINE
  8
0
 10
118.187
 20
1114.85
 11
117.679
 21
1115.22
  0
LINE
  8
0
 10
117.679
 20
1115.22
 11
117.129
 21
1115.52
  0
LINE
  8
0
 10
117.129
 20
1115.52
 11
116.545
 21
1115.76
  0
LINE
  8
0
 10
116.545
 20
1115.76
 11
115.937
 21
1115.91
  0
LINE
  8
0
 10
115.937
 20
1115.91
 11
115.314
 21
1115.99
  0
LINE
  8
0
 10
115.314
 20
1115.99
 11
-115.314
 21
1115.99
  0
LINE
  8
0
 10
-115.314
 20
1115.99
 11
-115.937
 21
1115.91
  0
LINE
  8
0
 10
-115.937
 20
1115.91
 11
-116.545
 21
1115.76
  0
LINE
  8
0
 10
-116.545
 20
1115.76
 11
-117.129
 21
1115.52
  0
LINE
  8
0
 10
-117.129
 20
1115.52
 11
-117.679
 21
1115.22
  0
LINE
  8
0
 10
-117.679
 20
1115.22
 11
-118.187
 21
1114.85
  0
LINE
  8
0
 10
-118.187
 20
1114.85
 11
-118.645
 21
1114.42
  0
LINE
  8
0
 10
-118.645
 20
1114.42
 11
-119.045
 21
1113.94
  0
LINE
  8
0
 10
-119.045
 20
1113.94
 11
-119.382
 21
1113.41
  0
LINE
  8
0
 10
-119.382
 20
1113.41
 11
-119.649
 21
1112.84
  0
LINE
  8
0
 10
-119.649
 20
1112.84
 11
-119.843
 21
1112.24
  0
LINE
  8
0
 10
-119.843
 20
1112.24
 11
-119.961
 21
1111.63
  0
LINE
  8
0
 10
-119.961
 20
1111.63
 11
-120
 21
1111
  0
LINE
  8
0
 10
-120
 20
1111
 11
-120
 21
881
  0
LINE
  8
0
 10
-120
 20
881
 11
-119.961
 21
880.373
  0
LINE
  8
0
 10
-119.961
 20
880.373
 11
-119.843
 21
879.757
  0
LINE
  8
0
 10
-119.843
 20
879.757
 11
-119.649
 21
879.159
  0
LINE
  8
0
 10
-119.649
 20
879.159
 11
-119.382
 21
878.591
  0
LINE
  8
0
 10
-119.382
 20
878.591
 11
-119.045
 21
878.061
  0
LINE
  8
0
 10
-119.045
 20
878.061
 11
-118.645
 21
877.577
  0
LINE
  8
0
 10
-118.645
 20
877.577
 11
-118.187
 21
877.147
  0
LINE
  8
0
 10
-118.187
 20
877.147
 11
-117.679
 21
876.778
  0
LINE
  8
0
 10
-117.679
 20
876.778
 11
-117.129
 21
876.476
  0
LINE
  8
0
 10
-117.129
 20
876.476
 11
-116.545
 21
876.245
  0
LINE
  8
0
 10
-116.545
 20
876.245
 11
-115.937
 21
876.089
  0
LINE
  8
0
 10
-115.937
 20
876.089
 11
-115.314
 21
876.01
  0
LINE
  8
0
 10
-115.314
 20
876.01
 11
115.314
 21
876.01
  0
LINE
  8
0
 10
115.314
 20
876.01
 11
115.937
 21
876.089
  0
LINE
  8
0
 10
-115.037
 20
876.681
 11
-115.608
 21
876.753
  0
LINE
  8
0
 10
-115.608
 20
876.753
 11
-116.165
 21
876.896
  0
LINE
  8
0
 10
-116.165
 20
876.896
 11
-116.699
 21
877.107
  0
LINE
  8
0
 10
-116.699
 20
877.107
 11
-117.203
 21
877.384
  0
LINE
  8
0
 10
-117.203
 20
877.384
 11
-117.668
 21
877.722
  0
LINE
  8
0
 10
-117.668
 20
877.722
 11
-118.088
 21
878.116
  0
LINE
  8
0
 10
-118.088
 20
878.116
 11
-118.454
 21
878.559
  0
LINE
  8
0
 10
-118.454
 20
878.559
 11
-118.762
 21
879.044
  0
LINE
  8
0
 10
-118.762
 20
879.044
 11
-119.007
 21
879.565
  0
LINE
  8
0
 10
-119.007
 20
879.565
 11
-119.185
 21
880.111
  0
LINE
  8
0
 10
-119.185
 20
880.111
 11
-119.292
 21
880.676
  0
LINE
  8
0
 10
-119.292
 20
880.676
 11
-119.328
 21
881.25
  0
LINE
  8
0
 10
-119.328
 20
881.25
 11
-119.328
 21
1110.75
  0
LINE
  8
0
 10
-119.328
 20
1110.75
 11
-119.292
 21
1111.32
  0
LINE
  8
0
 10
-119.292
 20
1111.32
 11
-119.185
 21
1111.89
  0
LINE
  8
0
 10
-119.185
 20
1111.89
 11
-119.007
 21
1112.44
  0
LINE
  8
0
 10
-119.007
 20
1112.44
 11
-118.762
 21
1112.96
  0
LINE
  8
0
 10
-118.762
 20
1112.96
 11
-118.454
 21
1113.44
  0
LINE
  8
0
 10
-118.454
 20
1113.44
 11
-118.088
 21
1113.88
  0
LINE
  8
0
 10
-118.088
 20
1113.88
 11
-117.668
 21
1114.28
  0
LINE
  8
0
 10
-117.668
 20
1114.28
 11
-117.203
 21
1114.62
  0
LINE
  8
0
 10
-117.203
 20
1114.62
 11
-116.699
 21
1114.89
  0
LINE
  8
0
 10
-116.699
 20
1114.89
 11
-116.165
 21
1115.1
  0
LINE
  8
0
 10
-116.165
 20
1115.1
 11
-115.608
 21
1115.25
  0
LINE
  8
0
 10
-115.608
 20
1115.25
 11
-115.037
 21
1115.32
  0
LINE
  8
0
 10
-115.037
 20
1115.32
 11
115.037
 21
1115.32
  0
LINE
  8
0
 10
115.037
 20
1115.32
 11
115.608
 21
1115.25
  0
LINE
  8
0
 10
115.608
 20
1115.25
 11
116.165
 21
1115.1
  0
LINE
  8
0
 10
116.165
 20
1115.1
 11
116.699
 21
1114.89
  0
LINE
  8
0
 10
116.699
 20
1114.89
 11
117.203
 21
1114.62
  0
LINE
  8
0
 10
117.203
 20
1114.62
 11
117.668
 21
1114.28
  0
LINE
  8
0
 10
117.668
 20
1114.28
 11
118.088
 21
1113.88
  0
LINE
  8
0
 10
118.088
 20
1113.88
 11
118.454
 21
1113.44
  0
LINE
  8
0
 10
118.454
 20
1113.44
 11
118.762
 21
1112.96
  0
LINE
  8
0
 10
118.762
 20
1112.96
 11
119.007
 21
1112.44
  0
LINE
  8
0
 10
119.007
 20
1112.44
 11
119.185
 21
1111.89
  0
LINE
  8
0
 10
119.185
 20
1111.89
 11
119.292
 21
1111.32
  0
LINE
  8
0
 10
119.292
 20
1111.32
 11
119.328
 21
1110.75
  0
LINE
  8
0
 10
119.328
 20
1110.75
 11
119.328
 21
881.25
  0
LINE
  8
0
 10
119.328
 20
881.25
 11
119.292
 21
880.676
  0
LINE
  8
0
 10
119.292
 20
880.676
 11
119.185
 21
880.111
  0
LINE
  8
0
 10
119.185
 20
880.111
 11
119.007
 21
879.565
  0
LINE
  8
0
 10
119.007
 20
879.565
 11
118.762
 21
879.044
  0
LINE
  8
0
 10
118.762
 20
879.044
 11
118.454
 21
878.559
  0
LINE
  8
0
 10
118.454
 20
878.559
 11
118.088
 21
878.116
  0
LINE
  8
0
 10
118.088
 20
878.116
 11
117.668
 21
877.722
  0
LINE
  8
0
 10
117.668
 20
877.722
 11
117.203
 21
877.384
  0
LINE
  8
0
 10
117.203
 20
877.384
 11
116.699
 21
877.107
  0
LINE
  8
0
 10
116.699
 20
877.107
 11
116.165
 21
876.896
  0
LINE
  8
0
 10
116.165
 20
876.896
 11
115.608
 21
876.753
  0
LINE
  8
0
 10
115.608
 20
876.753
 11
115.037
 21
876.681
  0
LINE
  8
0
 10
115.037
 20
876.681
 11
-115.037
 21
876.681
  0
LINE
  8
0
 10
115.937
 20
627.089
 11
116.545
 21
627.245
  0
LINE
  8
0
 10
116.545
 20
627.245
 11
117.129
 21
627.476
  0
LINE
  8
0
 10
117.129
 20
627.476
 11
117.679
 21
627.778
  0
LINE
  8
0
 10
117.679
 20
627.778
 11
118.187
 21
628.147
  0
LINE
  8
0
 10
118.187
 20
628.147
 11
118.645
 21
628.577
  0
LINE
  8
0
 10
118.645
 20
628.577
 11
119.045
 21
629.061
  0
LINE
  8
0
 10
119.045
 20
629.061
 11
119.382
 21
629.591
  0
LINE
  8
0
 10
119.382
 20
629.591
 11
119.649
 21
630.159
  0
LINE
  8
0
 10
119.649
 20
630.159
 11
119.843
 21
630.757
  0
LINE
  8
0
 10
119.843
 20
630.757
 11
119.961
 21
631.373
  0
LINE
  8
0
 10
119.961
 20
631.373
 11
120
 21
632
  0
LINE
  8
0
 10
120
 20
632
 11
120
 21
862
  0
LINE
  8
0
 10
120
 20
862
 11
119.961
 21
862.627
  0
LINE
  8
0
 10
119.961
 20
862.627
 11
119.843
 21
863.243
  0
LINE
  8
0
 10
119.843
 20
863.243
 11
119.649
 21
863.841
  0
LINE
  8
0
 10
119.649
 20
863.841
 11
119.382
 21
864.409
  0
LINE
  8
0
 10
119.382
 20
864.409
 11
119.045
 21
864.939
  0
LINE
  8
0
 10
119.045
 20
864.939
 11
118.645
 21
865.423
  0
LINE
  8
0
 10
118.645
 20
865.423
 11
118.187
 21
865.853
  0
LINE
  8
0
 10
118.187
 20
865.853
 11
117.679
 21
866.222
  0
LINE
  8
0
 10
117.679
 20
866.222
 11
117.129
 21
866.524
  0
LINE
  8
0
 10
117.129
 20
866.524
 11
116.545
 21
866.755
  0
LINE
  8
0
 10
116.545
 20
866.755
 11
115.937
 21
866.911
  0
LINE
  8
0
 10
115.937
 20
866.911
 11
115.314
 21
866.99
  0
LINE
  8
0
 10
115.314
 20
866.99
 11
-115.314
 21
866.99
  0
LINE
  8
0
 10
-115.314
 20
866.99
 11
-115.937
 21
866.911
  0
LINE
  8
0
 10
-115.937
 20
866.911
 11
-116.545
 21
866.755
  0
LINE
  8
0
 10
-116.545
 20
866.755
 11
-117.129
 21
866.524
  0
LINE
  8
0
 10
-117.129
 20
866.524
 11
-117.679
 21
866.222
  0
LINE
  8
0
 10
-117.679
 20
866.222
 11
-118.187
 21
865.853
  0
LINE
  8
0
 10
-118.187
 20
865.853
 11
-118.645
 21
865.423
  0
LINE
  8
0
 10
-118.645
 20
865.423
 11
-119.045
 21
864.939
  0
LINE
  8
0
 10
-119.045
 20
864.939
 11
-119.382
 21
864.409
  0
LINE
  8
0
 10
-119.382
 20
864.409
 11
-119.649
 21
863.841
  0
LINE
  8
0
 10
-119.649
 20
863.841
 11
-119.843
 21
863.243
  0
LINE
  8
0
 10
-119.843
 20
863.243
 11
-119.961
 21
862.627
  0
LINE
  8
0
 10
-119.961
 20
862.627
 11
-120
 21
862
  0
LINE
  8
0
 10
-120
 20
862
 11
-120
 21
632
  0
LINE
  8
0
 10
-120
 20
632
 11
-119.961
 21
631.373
  0
LINE
  8
0
 10
-119.961
 20
631.373
 11
-119.843
 21
630.757
  0
LINE
  8
0
 10
-119.843
 20
630.757
 11
-119.649
 21
630.159
  0
LINE
  8
0
 10
-119.649
 20
630.159
 11
-119.382
 21
629.591
  0
LINE
  8
0
 10
-119.382
 20
629.591
 11
-119.045
 21
629.061
  0
LINE
  8
0
 10
-119.045
 20
629.061
 11
-118.645
 21
628.577
  0
LINE
  8
0
 10
-118.645
 20
628.577
 11
-118.187
 21
628.147
  0
LINE
  8
0
 10
-118.187
 20
628.147
 11
-117.679
 21
627.778
  0
LINE
  8
0
 10
-117.679
 20
627.778
 11
-117.129
 21
627.476
  0
LINE
  8
0
 10
-117.129
 20
627.476
 11
-116.545
 21
627.245
  0
LINE
  8
0
 10
-116.545
 20
627.245
 11
-115.937
 21
627.089
  0
LINE
  8
0
 10
-115.937
 20
627.089
 11
-115.314
 21
627.01
  0
LINE
  8
0
 10
-115.314
 20
627.01
 11
115.314
 21
627.01
  0
LINE
  8
0
 10
115.314
 20
627.01
 11
115.937
 21
627.089
  0
LINE
  8
0
 10
-114.882
 20
630.145
 11
-115.145
 21
630.178
  0
LINE
  8
0
 10
-115.145
 20
630.178
 11
-115.402
 21
630.244
  0
LINE
  8
0
 10
-115.402
 20
630.244
 11
-115.648
 21
630.341
  0
LINE
  8
0
 10
-115.648
 20
630.341
 11
-115.88
 21
630.469
  0
LINE
  8
0
 10
-115.88
 20
630.469
 11
-116.095
 21
630.624
  0
LINE
  8
0
 10
-116.095
 20
630.624
 11
-116.288
 21
630.806
  0
LINE
  8
0
 10
-116.288
 20
630.806
 11
-116.457
 21
631.01
  0
LINE
  8
0
 10
-116.457
 20
631.01
 11
-116.599
 21
631.234
  0
LINE
  8
0
 10
-116.599
 20
631.234
 11
-116.711
 21
631.473
  0
LINE
  8
0
 10
-116.711
 20
631.473
 11
-116.793
 21
631.725
  0
LINE
  8
0
 10
-116.793
 20
631.725
 11
-116.843
 21
631.986
  0
LINE
  8
0
 10
-116.843
 20
631.986
 11
-116.86
 21
632.25
  0
LINE
  8
0
 10
-116.86
 20
632.25
 11
-116.86
 21
861.75
  0
LINE
  8
0
 10
-116.86
 20
861.75
 11
-116.843
 21
862.014
  0
LINE
  8
0
 10
-116.843
 20
862.014
 11
-116.793
 21
862.275
  0
LINE
  8
0
 10
-116.793
 20
862.275
 11
-116.711
 21
862.527
  0
LINE
  8
0
 10
-116.711
 20
862.527
 11
-116.599
 21
862.766
  0
LINE
  8
0
 10
-116.599
 20
862.766
 11
-116.457
 21
862.99
  0
LINE
  8
0
 10
-116.457
 20
862.99
 11
-116.288
 21
863.194
  0
LINE
  8
0
 10
-116.288
 20
863.194
 11
-116.095
 21
863.376
  0
LINE
  8
0
 10
-116.095
 20
863.376
 11
-115.88
 21
863.531
  0
LINE
  8
0
 10
-115.88
 20
863.531
 11
-115.648
 21
863.659
  0
LINE
  8
0
 10
-115.648
 20
863.659
 11
-115.402
 21
863.756
  0
LINE
  8
0
 10
-115.402
 20
863.756
 11
-115.145
 21
863.822
  0
LINE
  8
0
 10
-115.145
 20
863.822
 11
-114.882
 21
863.855
  0
LINE
  8
0
 10
-114.882
 20
863.855
 11
114.882
 21
863.855
  0
LINE
  8
0
 10
114.882
 20
863.855
 11
115.145
 21
863.822
  0
LINE
  8
0
 10
115.145
 20
863.822
 11
115.402
 21
863.756
  0
LINE
  8
0
 10
115.402
 20
863.756
 11
115.648
 21
863.659
  0
LINE
  8
0
 10
115.648
 20
863.659
 11
115.88
 21
863.531
  0
LINE
  8
0
 10
115.88
 20
863.531
 11
116.095
 21
863.376
  0
LINE
  8
0
 10
116.095
 20
863.376
 11
116.288
 21
863.194
  0
LINE
  8
0
 10
116.288
 20
863.194
 11
116.457
 21
862.99
  0
LINE
  8
0
 10
116.457
 20
862.99
 11
116.599
 21
862.766
  0
LINE
  8
0
 10
116.599
 20
862.766
 11
116.711
 21
862.527
  0
LINE
  8
0
 10
116.711
 20
862.527
 11
116.793
 21
862.275
  0
LINE
  8
0
 10
116.793
 20
862.275
 11
116.843
 21
862.014
  0
LINE
  8
0
 10
116.843
 20
862.014
 11
116.86
 21
861.75
  0
LINE
  8
0
 10
116.86
 20
861.75
 11
116.86
 21
632.25
  0
LINE
  8
0
 10
116.86
 20
632.25
 11
116.843
 21
631.986
  0
LINE
  8
0
 10
116.843
 20
631.986
 11
116.793
 21
631.725
  0
LINE
  8
0
 10
116.793
 20
631.725
 11
116.711
 21
631.473
  0
LINE
  8
0
 10
116.711
 20
631.473
 11
116.599
 21
631.234
  0
LINE
  8
0
 10
116.599
 20
631.234
 11
116.457
 21
631.01
  0
LINE
  8
0
 10
116.457
 20
631.01
 11
116.288
 21
630.806
  0
LINE
  8
0
 10
116.288
 20
630.806
 11
116.095
 21
630.624
  0
LINE
  8
0
 10
116.095
 20
630.624
 11
115.88
 21
630.469
  0
LINE
  8
0
 10
115.88
 20
630.469
 11
115.648
 21
630.341
  0
LINE
  8
0
 10
115.648
 20
630.341
 11
115.402
 21
630.244
  0
LINE
  8
0
 10
115.402
 20
630.244
 11
115.145
 21
630.178
  0
LINE
  8
0
 10
115.145
 20
630.178
 11
114.882
 21
630.145
  0
LINE
  8
0
 10
114.882
 20
630.145
 11
-114.882
 21
630.145
  0
ENDSEC
  0
SECTION
  2
OBJECTS
  0
DICTIONARY
  0
ENDSEC
  0
EOF
