  0
SECTION
  2
BLOCKS
  0
ENDSEC
  0
SECTION
  2
ENTITIES
  0
LINE
  8
0
 10
115.937
 20
198.089
 11
116.545
 21
198.245
  0
LINE
  8
0
 10
116.545
 20
198.245
 11
117.129
 21
198.476
  0
LINE
  8
0
 10
117.129
 20
198.476
 11
117.679
 21
198.778
  0
LINE
  8
0
 10
117.679
 20
198.778
 11
118.187
 21
199.147
  0
LINE
  8
0
 10
118.187
 20
199.147
 11
118.645
 21
199.577
  0
LINE
  8
0
 10
118.645
 20
199.577
 11
119.045
 21
200.061
  0
LINE
  8
0
 10
119.045
 20
200.061
 11
119.382
 21
200.591
  0
LINE
  8
0
 10
119.382
 20
200.591
 11
119.649
 21
201.159
  0
LINE
  8
0
 10
119.649
 20
201.159
 11
119.843
 21
201.757
  0
LINE
  8
0
 10
119.843
 20
201.757
 11
119.961
 21
202.373
  0
LINE
  8
0
 10
119.961
 20
202.373
 11
120
 21
203
  0
LINE
  8
0
 10
120
 20
203
 11
120
 21
313
  0
LINE
  8
0
 10
120
 20
313
 11
119.961
 21
313.627
  0
LINE
  8
0
 10
119.961
 20
313.627
 11
119.843
 21
314.243
  0
LINE
  8
0
 10
119.843
 20
314.243
 11
119.649
 21
314.841
  0
LINE
  8
0
 10
119.649
 20
314.841
 11
119.382
 21
315.409
  0
LINE
  8
0
 10
119.382
 20
315.409
 11
119.045
 21
315.939
  0
LINE
  8
0
 10
119.045
 20
315.939
 11
118.645
 21
316.423
  0
LINE
  8
0
 10
118.645
 20
316.423
 11
118.187
 21
316.853
  0
LINE
  8
0
 10
118.187
 20
316.853
 11
117.679
 21
317.222
  0
LINE
  8
0
 10
117.679
 20
317.222
 11
117.129
 21
317.524
  0
LINE
  8
0
 10
117.129
 20
317.524
 11
116.545
 21
317.755
  0
LINE
  8
0
 10
116.545
 20
317.755
 11
115.937
 21
317.911
  0
LINE
  8
0
 10
115.937
 20
317.911
 11
115.314
 21
317.99
  0
LINE
  8
0
 10
115.314
 20
317.99
 11
-115.314
 21
317.99
  0
LINE
  8
0
 10
-115.314
 20
317.99
 11
-115.937
 21
317.911
  0
LINE
  8
0
 10
-115.937
 20
317.911
 11
-116.545
 21
317.755
  0
LINE
  8
0
 10
-116.545
 20
317.755
 11
-117.129
 21
317.524
  0
LINE
  8
0
 10
-117.129
 20
317.524
 11
-117.679
 21
317.222
  0
LINE
  8
0
 10
-117.679
 20
317.222
 11
-118.187
 21
316.853
  0
LINE
  8
0
 10
-118.187
 20
316.853
 11
-118.645
 21
316.423
  0
LINE
  8
0
 10
-118.645
 20
316.423
 11
-119.045
 21
315.939
  0
LINE
  8
0
 10
-119.045
 20
315.939
 11
-119.382
 21
315.409
  0
LINE
  8
0
 10
-119.382
 20
315.409
 11
-119.649
 21
314.841
  0
LINE
  8
0
 10
-119.649
 20
314.841
 11
-119.843
 21
314.243
  0
LINE
  8
0
 10
-119.843
 20
314.243
 11
-119.961
 21
313.627
  0
LINE
  8
0
 10
-119.961
 20
313.627
 11
-120
 21
313
  0
LINE
  8
0
 10
-120
 20
313
 11
-120
 21
203
  0
LINE
  8
0
 10
-120
 20
203
 11
-119.961
 21
202.373
  0
LINE
  8
0
 10
-119.961
 20
202.373
 11
-119.843
 21
201.757
  0
LINE
  8
0
 10
-119.843
 20
201.757
 11
-119.649
 21
201.159
  0
LINE
  8
0
 10
-119.649
 20
201.159
 11
-119.382
 21
200.591
  0
LINE
  8
0
 10
-119.382
 20
200.591
 11
-119.045
 21
200.061
  0
LINE
  8
0
 10
-119.045
 20
200.061
 11
-118.645
 21
199.577
  0
LINE
  8
0
 10
-118.645
 20
199.577
 11
-118.187
 21
199.147
  0
LINE
  8
0
 10
-118.187
 20
199.147
 11
-117.679
 21
198.778
  0
LINE
  8
0
 10
-117.679
 20
198.778
 11
-117.129
 21
198.476
  0
LINE
  8
0
 10
-117.129
 20
198.476
 11
-116.545
 21
198.245
  0
LINE
  8
0
 10
-116.545
 20
198.245
 11
-115.937
 21
198.089
  0
LINE
  8
0
 10
-115.937
 20
198.089
 11
-115.314
 21
198.01
  0
LINE
  8
0
 10
-115.314
 20
198.01
 11
115.314
 21
198.01
  0
LINE
  8
0
 10
115.314
 20
198.01
 11
115.937
 21
198.089
  0
LINE
  8
0
 10
-114.993
 20
199.388
 11
-115.475
 21
199.449
  0
LINE
  8
0
 10
-115.475
 20
199.449
 11
-115.946
 21
199.57
  0
LINE
  8
0
 10
-115.946
 20
199.57
 11
-116.398
 21
199.749
  0
LINE
  8
0
 10
-116.398
 20
199.749
 11
-116.823
 21
199.983
  0
LINE
  8
0
 10
-116.823
 20
199.983
 11
-117.216
 21
200.269
  0
LINE
  8
0
 10
-117.216
 20
200.269
 11
-117.571
 21
200.601
  0
LINE
  8
0
 10
-117.571
 20
200.601
 11
-117.88
 21
200.976
  0
LINE
  8
0
 10
-117.88
 20
200.976
 11
-118.141
 21
201.386
  0
LINE
  8
0
 10
-118.141
 20
201.386
 11
-118.348
 21
201.826
  0
LINE
  8
0
 10
-118.348
 20
201.826
 11
-118.498
 21
202.288
  0
LINE
  8
0
 10
-118.498
 20
202.288
 11
-118.589
 21
202.765
  0
LINE
  8
0
 10
-118.589
 20
202.765
 11
-118.619
 21
203.25
  0
LINE
  8
0
 10
-118.619
 20
203.25
 11
-118.619
 21
312.75
  0
LINE
  8
0
 10
-118.619
 20
312.75
 11
-118.589
 21
313.235
  0
LINE
  8
0
 10
-118.589
 20
313.235
 11
-118.498
 21
313.712
  0
LINE
  8
0
 10
-118.498
 20
313.712
 11
-118.348
 21
314.174
  0
LINE
  8
0
 10
-118.348
 20
314.174
 11
-118.141
 21
314.614
  0
LINE
  8
0
 10
-118.141
 20
314.614
 11
-117.88
 21
315.024
  0
LINE
  8
0
 10
-117.88
 20
315.024
 11
-117.571
 21
315.399
  0
LINE
  8
0
 10
-117.571
 20
315.399
 11
-117.216
 21
315.731
  0
LINE
  8
0
 10
-117.216
 20
315.731
 11
-116.823
 21
316.017
  0
LINE
  8
0
 10
-116.823
 20
316.017
 11
-116.398
 21
316.251
  0
LINE
  8
0
 10
-116.398
 20
316.251
 11
-115.946
 21
316.43
  0
LINE
  8
0
 10
-115.946
 20
316.43
 11
-115.475
 21
316.551
  0
LINE
  8
0
 10
-115.475
 20
316.551
 11
-114.993
 21
316.612
  0
LINE
  8
0
 10
-114.993
 20
316.612
 11
114.993
 21
316.612
  0
LINE
  8
0
 10
114.993
 20
316.612
 11
115.475
 21
316.551
  0
LINE
  8
0
 10
115.475
 20
316.551
 11
115.946
 21
316.43
  0
LINE
  8
0
 10
115.946
 20
316.43
 11
116.398
 21
316.251
  0
LINE
  8
0
 10
116.398
 20
316.251
 11
116.823
 21
316.017
  0
LINE
  8
0
 10
116.823
 20
316.017
 11
117.216
 21
315.731
  0
LINE
  8
0
 10
117.216
 20
315.731
 11
117.571
 21
315.399
  0
LINE
  8
0
 10
117.571
 20
315.399
 11
117.88
 21
315.024
  0
LINE
  8
0
 10
117.88
 20
315.024
 11
118.141
 21
314.614
  0
LINE
  8
0
 10
118.141
 20
314.614
 11
118.348
 21
314.174
  0
LINE
  8
0
 10
118.348
 20
314.174
 11
118.498
 21
313.712
  0
LINE
  8
0
 10
118.498
 20
313.712
 11
118.589
 21
313.235
  0
LINE
  8
0
 10
118.589
 20
313.235
 11
118.619
 21
312.75
  0
LINE
  8
0
 10
118.619
 20
312.75
 11
118.619
 21
203.25
  0
LINE
  8
0
 10
118.619
 20
203.25
 11
118.589
 21
202.765
  0
LINE
  8
0
 10
118.589
 20
202.765
 11
118.498
 21
202.288
  0
LINE
  8
0
 10
118.498
 20
202.288
 11
118.348
 21
201.826
  0
LINE
  8
0
 10
118.348
 20
201.826
 11
118.141
 21
201.386
  0
LINE
  8
0
 10
118.141
 20
201.386
 11
117.88
 21
200.976
  0
LINE
  8
0
 10
117.88
 20
200.976
 11
117.571
 21
200.601
  0
LINE
  8
0
 10
117.571
 20
200.601
 11
117.216
 21
200.269
  0
LINE
  8
0
 10
117.216
 20
200.269
 11
116.823
 21
199.983
  0
LINE
  8
0
 10
116.823
 20
199.983
 11
116.398
 21
199.749
  0
LINE
  8
0
 10
116.398
 20
199.749
 11
115.946
 21
199.57
  0
LINE
  8
0
 10
115.946
 20
199.57
 11
115.475
 21
199.449
  0
LINE
  8
0
 10
115.475
 20
199.449
 11
114.993
 21
199.388
  0
LINE
  8
0
 10
114.993
 20
199.388
 11
-114.993
 21
199.388
  0
LINE
  8
0
 10
115.937
 20
69.0886
 11
116.545
 21
69.2447
  0
LINE
  8
0
 10
116.545
 20
69.2447
 11
117.129
 21
69.4759
  0
LINE
  8
0
 10
117.129
 20
69.4759
 11
117.679
 21
69.7784
  0
LINE
  8
0
 10
117.679
 20
69.7784
 11
118.187
 21
70.1474
  0
LINE
  8
0
 10
118.187
 20
70.1474
 11
118.645
 21
70.5773
  0
LINE
  8
0
 10
118.645
 20
70.5773
 11
119.045
 21
71.0611
  0
LINE
  8
0
 10
119.045
 20
71.0611
 11
119.382
 21
71.5912
  0
LINE
  8
0
 10
119.382
 20
71.5912
 11
119.649
 21
72.1594
  0
LINE
  8
0
 10
119.649
 20
72.1594
 11
119.843
 21
72.7566
  0
LINE
  8
0
 10
119.843
 20
72.7566
 11
119.961
 21
73.3733
  0
LINE
  8
0
 10
119.961
 20
73.3733
 11
120
 21
74
  0
LINE
  8
0
 10
120
 20
74
 11
120
 21
184
  0
LINE
  8
0
 10
120
 20
184
 11
119.961
 21
184.627
  0
LINE
  8
0
 10
119.961
 20
184.627
 11
119.843
 21
185.243
  0
LINE
  8
0
 10
119.843
 20
185.243
 11
119.649
 21
185.841
  0
LINE
  8
0
 10
119.649
 20
185.841
 11
119.382
 21
186.409
  0
LINE
  8
0
 10
119.382
 20
186.409
 11
119.045
 21
186.939
  0
LINE
  8
0
 10
119.045
 20
186.939
 11
118.645
 21
187.423
  0
LINE
  8
0
 10
118.645
 20
187.423
 11
118.187
 21
187.853
  0
LINE
  8
0
 10
118.187
 20
187.853
 11
117.679
 21
188.222
  0
LINE
  8
0
 10
117.679
 20
188.222
 11
117.129
 21
188.524
  0
LINE
  8
0
 10
117.129
 20
188.524
 11
116.545
 21
188.755
  0
LINE
  8
0
 10
116.545
 20
188.755
 11
115.937
 21
188.911
  0
LINE
  8
0
 10
115.937
 20
188.911
 11
115.314
 21
188.99
  0
LINE
  8
0
 10
115.314
 20
188.99
 11
-115.314
 21
188.99
  0
LINE
  8
0
 10
-115.314
 20
188.99
 11
-115.937
 21
188.911
  0
LINE
  8
0
 10
-115.937
 20
188.911
 11
-116.545
 21
188.755
  0
LINE
  8
0
 10
-116.545
 20
188.755
 11
-117.129
 21
188.524
  0
LINE
  8
0
 10
-117.129
 20
188.524
 11
-117.679
 21
188.222
  0
LINE
  8
0
 10
-117.679
 20
188.222
 11
-118.187
 21
187.853
  0
LINE
  8
0
 10
-118.187
 20
187.853
 11
-118.645
 21
187.423
  0
LINE
  8
0
 10
-118.645
 20
187.423
 11
-119.045
 21
186.939
  0
LINE
  8
0
 10
-119.045
 20
186.939
 11
-119.382
 21
186.409
  0
LINE
  8
0
 10
-119.382
 20
186.409
 11
-119.649
 21
185.841
  0
LINE
  8
0
 10
-119.649
 20
185.841
 11
-119.843
 21
185.243
  0
LINE
  8
0
 10
-119.843
 20
185.243
 11
-119.961
 21
184.627
  0
LINE
  8
0
 10
-119.961
 20
184.627
 11
-120
 21
184
  0
LINE
  8
0
 10
-120
 20
184
 11
-120
 21
74
  0
LINE
  8
0
 10
-120
 20
74
 11
-119.961
 21
73.3733
  0
LINE
  8
0
 10
-119.961
 20
73.3733
 11
-119.843
 21
72.7566
  0
LINE
  8
0
 10
-119.843
 20
72.7566
 11
-119.649
 21
72.1594
  0
LINE
  8
0
 10
-119.649
 20
72.1594
 11
-119.382
 21
71.5912
  0
LINE
  8
0
 10
-119.382
 20
71.5912
 11
-119.045
 21
71.0611
  0
LINE
  8
0
 10
-119.045
 20
71.0611
 11
-118.645
 21
70.5773
  0
LINE
  8
0
 10
-118.645
 20
70.5773
 11
-118.187
 21
70.1474
  0
LINE
  8
0
 10
-118.187
 20
70.1474
 11
-117.679
 21
69.7784
  0
LINE
  8
0
 10
-117.679
 20
69.7784
 11
-117.129
 21
69.4759
  0
LINE
  8
0
 10
-117.129
 20
69.4759
 11
-116.545
 21
69.2447
  0
LINE
  8
0
 10
-116.545
 20
69.2447
 11
-115.937
 21
69.0886
  0
LINE
  8
0
 10
-115.937
 20
69.0886
 11
-115.314
 21
69.0099
  0
LINE
  8
0
 10
-115.314
 20
69.0099
 11
115.314
 21
69.0099
  0
LINE
  8
0
 10
115.314
 20
69.0099
 11
115.937
 21
69.0886
  0
LINE
  8
0
 10
112.387
 20
179.704
 11
112.163
 21
179.732
  0
LINE
  8
0
 10
112.163
 20
179.732
 11
111.944
 21
179.788
  0
LINE
  8
0
 10
111.944
 20
179.788
 11
111.734
 21
179.871
  0
LINE
  8
0
 10
111.734
 20
179.871
 11
111.536
 21
179.98
  0
LINE
  8
0
 10
111.536
 20
179.98
 11
111.353
 21
180.113
  0
LINE
  8
0
 10
111.353
 20
180.113
 11
111.188
 21
180.268
  0
LINE
  8
0
 10
111.188
 20
180.268
 11
111.044
 21
180.442
  0
LINE
  8
0
 10
111.044
 20
180.442
 11
110.923
 21
180.633
  0
LINE
  8
0
 10
110.923
 20
180.633
 11
110.826
 21
180.837
  0
LINE
  8
0
 10
110.826
 20
180.837
 11
110.757
 21
181.052
  0
LINE
  8
0
 10
110.757
 20
181.052
 11
110.714
 21
181.274
  0
LINE
  8
0
 10
110.714
 20
181.274
 11
110.7
 21
181.5
  0
LINE
  8
0
 10
110.7
 20
181.5
 11
110.714
 21
181.726
  0
LINE
  8
0
 10
110.714
 20
181.726
 11
110.757
 21
181.948
  0
LINE
  8
0
 10
110.757
 20
181.948
 11
110.826
 21
182.163
  0
LINE
  8
0
 10
110.826
 20
182.163
 11
110.923
 21
182.367
  0
LINE
  8
0
 10
110.923
 20
182.367
 11
111.044
 21
182.558
  0
LINE
  8
0
 10
111.044
 20
182.558
 11
111.188
 21
182.732
  0
LINE
  8
0
 10
111.188
 20
182.732
 11
111.353
 21
182.887
  0
LINE
  8
0
 10
111.353
 20
182.887
 11
111.536
 21
183.02
  0
LINE
  8
0
 10
111.536
 20
183.02
 11
111.734
 21
183.129
  0
LINE
  8
0
 10
111.734
 20
183.129
 11
111.944
 21
183.212
  0
LINE
  8
0
 10
111.944
 20
183.212
 11
112.163
 21
183.268
  0
LINE
  8
0
 10
112.163
 20
183.268
 11
112.387
 21
183.296
  0
LINE
  8
0
 10
112.387
 20
183.296
 11
112.613
 21
183.296
  0
LINE
  8
0
 10
112.613
 20
183.296
 11
112.837
 21
183.268
  0
LINE
  8
0
 10
112.837
 20
183.268
 11
113.056
 21
183.212
  0
LINE
  8
0
 10
113.056
 20
183.212
 11
113.266
 21
183.129
  0
LINE
  8
0
 10
113.266
 20
183.129
 11
113.464
 21
183.02
  0
LINE
  8
0
 10
113.464
 20
183.02
 11
113.647
 21
182.887
  0
LINE
  8
0
 10
113.647
 20
182.887
 11
113.812
 21
182.732
  0
LINE
  8
0
 10
113.812
 20
182.732
 11
113.956
 21
182.558
  0
LINE
  8
0
 10
113.956
 20
182.558
 11
114.077
 21
182.367
  0
LINE
  8
0
 10
114.077
 20
182.367
 11
114.174
 21
182.163
  0
LINE
  8
0
 10
114.174
 20
182.163
 11
114.243
 21
181.948
  0
LINE
  8
0
 10
114.243
 20
181.948
 11
114.286
 21
181.726
  0
LINE
  8
0
 10
114.286
 20
181.726
 11
114.3
 21
181.5
  0
LINE
  8
0
 10
114.3
 20
181.5
 11
114.286
 21
181.274
  0
LINE
  8
0
 10
114.286
 20
181.274
 11
114.243
 21
181.052
  0
LINE
  8
0
 10
114.243
 20
181.052
 11
114.174
 21
180.837
  0
LINE
  8
0
 10
114.174
 20
180.837
 11
114.077
 21
180.633
  0
LINE
  8
0
 10
114.077
 20
180.633
 11
113.956
 21
180.442
  0
LINE
  8
0
 10
113.956
 20
180.442
 11
113.812
 21
180.268
  0
LINE
  8
0
 10
113.812
 20
180.268
 11
113.647
 21
180.113
  0
LINE
  8
0
 10
113.647
 20
180.113
 11
113.464
 21
179.98
  0
LINE
  8
0
 10
113.464
 20
179.98
 11
113.266
 21
179.871
  0
LINE
  8
0
 10
113.266
 20
179.871
 11
113.056
 21
179.788
  0
LINE
  8
0
 10
113.056
 20
179.788
 11
112.837
 21
179.732
  0
LINE
  8
0
 10
112.837
 20
179.732
 11
112.613
 21
179.704
  0
LINE
  8
0
 10
112.613
 20
179.704
 11
112.387
 21
179.704
  0
LINE
  8
0
 10
-112.613
 20
179.704
 11
-112.837
 21
179.732
  0
LINE
  8
0
 10
-112.837
 20
179.732
 11
-113.056
 21
179.788
  0
LINE
  8
0
 10
-113.056
 20
179.788
 11
-113.266
 21
179.871
  0
LINE
  8
0
 10
-113.266
 20
179.871
 11
-113.464
 21
179.98
  0
LINE
  8
0
 10
-113.464
 20
179.98
 11
-113.647
 21
180.113
  0
LINE
  8
0
 10
-113.647
 20
180.113
 11
-113.812
 21
180.268
  0
LINE
  8
0
 10
-113.812
 20
180.268
 11
-113.956
 21
180.442
  0
LINE
  8
0
 10
-113.956
 20
180.442
 11
-114.077
 21
180.633
  0
LINE
  8
0
 10
-114.077
 20
180.633
 11
-114.174
 21
180.837
  0
LINE
  8
0
 10
-114.174
 20
180.837
 11
-114.243
 21
181.052
  0
LINE
  8
0
 10
-114.243
 20
181.052
 11
-114.286
 21
181.274
  0
LINE
  8
0
 10
-114.286
 20
181.274
 11
-114.3
 21
181.5
  0
LINE
  8
0
 10
-114.3
 20
181.5
 11
-114.286
 21
181.726
  0
LINE
  8
0
 10
-114.286
 20
181.726
 11
-114.243
 21
181.948
  0
LINE
  8
0
 10
-114.243
 20
181.948
 11
-114.174
 21
182.163
  0
LINE
  8
0
 10
-114.174
 20
182.163
 11
-114.077
 21
182.367
  0
LINE
  8
0
 10
-114.077
 20
182.367
 11
-113.956
 21
182.558
  0
LINE
  8
0
 10
-113.956
 20
182.558
 11
-113.812
 21
182.732
  0
LINE
  8
0
 10
-113.812
 20
182.732
 11
-113.647
 21
182.887
  0
LINE
  8
0
 10
-113.647
 20
182.887
 11
-113.464
 21
183.02
  0
LINE
  8
0
 10
-113.464
 20
183.02
 11
-113.266
 21
183.129
  0
LINE
  8
0
 10
-113.266
 20
183.129
 11
-113.056
 21
183.212
  0
LINE
  8
0
 10
-113.056
 20
183.212
 11
-112.837
 21
183.268
  0
LINE
  8
0
 10
-112.837
 20
183.268
 11
-112.613
 21
183.296
  0
LINE
  8
0
 10
-112.613
 20
183.296
 11
-112.387
 21
183.296
  0
LINE
  8
0
 10
-112.387
 20
183.296
 11
-112.163
 21
183.268
  0
LINE
  8
0
 10
-112.163
 20
183.268
 11
-111.944
 21
183.212
  0
LINE
  8
0
 10
-111.944
 20
183.212
 11
-111.734
 21
183.129
  0
LINE
  8
0
 10
-111.734
 20
183.129
 11
-111.536
 21
183.02
  0
LINE
  8
0
 10
-111.536
 20
183.02
 11
-111.353
 21
182.887
  0
LINE
  8
0
 10
-111.353
 20
182.887
 11
-111.188
 21
182.732
  0
LINE
  8
0
 10
-111.188
 20
182.732
 11
-111.044
 21
182.558
  0
LINE
  8
0
 10
-111.044
 20
182.558
 11
-110.923
 21
182.367
  0
LINE
  8
0
 10
-110.923
 20
182.367
 11
-110.826
 21
182.163
  0
LINE
  8
0
 10
-110.826
 20
182.163
 11
-110.757
 21
181.948
  0
LINE
  8
0
 10
-110.757
 20
181.948
 11
-110.714
 21
181.726
  0
LINE
  8
0
 10
-110.714
 20
181.726
 11
-110.7
 21
181.5
  0
LINE
  8
0
 10
-110.7
 20
181.5
 11
-110.714
 21
181.274
  0
LINE
  8
0
 10
-110.714
 20
181.274
 11
-110.757
 21
181.052
  0
LINE
  8
0
 10
-110.757
 20
181.052
 11
-110.826
 21
180.837
  0
LINE
  8
0
 10
-110.826
 20
180.837
 11
-110.923
 21
180.633
  0
LINE
  8
0
 10
-110.923
 20
180.633
 11
-111.044
 21
180.442
  0
LINE
  8
0
 10
-111.044
 20
180.442
 11
-111.188
 21
180.268
  0
LINE
  8
0
 10
-111.188
 20
180.268
 11
-111.353
 21
180.113
  0
LINE
  8
0
 10
-111.353
 20
180.113
 11
-111.536
 21
179.98
  0
LINE
  8
0
 10
-111.536
 20
179.98
 11
-111.734
 21
179.871
  0
LINE
  8
0
 10
-111.734
 20
179.871
 11
-111.944
 21
179.788
  0
LINE
  8
0
 10
-111.944
 20
179.788
 11
-112.163
 21
179.732
  0
LINE
  8
0
 10
-112.163
 20
179.732
 11
-112.387
 21
179.704
  0
LINE
  8
0
 10
-112.387
 20
179.704
 11
-112.613
 21
179.704
  0
LINE
  8
0
 10
-112.613
 20
74.7036
 11
-112.837
 21
74.7319
  0
LINE
  8
0
 10
-112.837
 20
74.7319
 11
-113.056
 21
74.7881
  0
LINE
  8
0
 10
-113.056
 20
74.7881
 11
-113.266
 21
74.8713
  0
LINE
  8
0
 10
-113.266
 20
74.8713
 11
-113.464
 21
74.9802
  0
LINE
  8
0
 10
-113.464
 20
74.9802
 11
-113.647
 21
75.1131
  0
LINE
  8
0
 10
-113.647
 20
75.1131
 11
-113.812
 21
75.2678
  0
LINE
  8
0
 10
-113.812
 20
75.2678
 11
-113.956
 21
75.442
  0
LINE
  8
0
 10
-113.956
 20
75.442
 11
-114.077
 21
75.6328
  0
LINE
  8
0
 10
-114.077
 20
75.6328
 11
-114.174
 21
75.8374
  0
LINE
  8
0
 10
-114.174
 20
75.8374
 11
-114.243
 21
76.0524
  0
LINE
  8
0
 10
-114.243
 20
76.0524
 11
-114.286
 21
76.2744
  0
LINE
  8
0
 10
-114.286
 20
76.2744
 11
-114.3
 21
76.5
  0
LINE
  8
0
 10
-114.3
 20
76.5
 11
-114.286
 21
76.7256
  0
LINE
  8
0
 10
-114.286
 20
76.7256
 11
-114.243
 21
76.9476
  0
LINE
  8
0
 10
-114.243
 20
76.9476
 11
-114.174
 21
77.1626
  0
LINE
  8
0
 10
-114.174
 20
77.1626
 11
-114.077
 21
77.3672
  0
LINE
  8
0
 10
-114.077
 20
77.3672
 11
-113.956
 21
77.558
  0
LINE
  8
0
 10
-113.956
 20
77.558
 11
-113.812
 21
77.7322
  0
LINE
  8
0
 10
-113.812
 20
77.7322
 11
-113.647
 21
77.8869
  0
LINE
  8
0
 10
-113.647
 20
77.8869
 11
-113.464
 21
78.0198
  0
LINE
  8
0
 10
-113.464
 20
78.0198
 11
-113.266
 21
78.1287
  0
LINE
  8
0
 10
-113.266
 20
78.1287
 11
-113.056
 21
78.2119
  0
LINE
  8
0
 10
-113.056
 20
78.2119
 11
-112.837
 21
78.2681
  0
LINE
  8
0
 10
-112.837
 20
78.2681
 11
-112.613
 21
78.2964
  0
LINE
  8
0
 10
-112.613
 20
78.2964
 11
-112.387
 21
78.2964
  0
LINE
  8
0
 10
-112.387
 20
78.2964
 11
-112.163
 21
78.2681
  0
LINE
  8
0
 10
-112.163
 20
78.2681
 11
-111.944
 21
78.2119
  0
LINE
  8
0
 10
-111.944
 20
78.2119
 11
-111.734
 21
78.1287
  0
LINE
  8
0
 10
-111.734
 20
78.1287
 11
-111.536
 21
78.0198
  0
LINE
  8
0
 10
-111.536
 20
78.0198
 11
-111.353
 21
77.8869
  0
LINE
  8
0
 10
-111.353
 20
77.8869
 11
-111.188
 21
77.7322
  0
LINE
  8
0
 10
-111.188
 20
77.7322
 11
-111.044
 21
77.558
  0
LINE
  8
0
 10
-111.044
 20
77.558
 11
-110.923
 21
77.3672
  0
LINE
  8
0
 10
-110.923
 20
77.3672
 11
-110.826
 21
77.1626
  0
LINE
  8
0
 10
-110.826
 20
77.1626
 11
-110.757
 21
76.9476
  0
LINE
  8
0
 10
-110.757
 20
76.9476
 11
-110.714
 21
76.7256
  0
LINE
  8
0
 10
-110.714
 20
76.7256
 11
-110.7
 21
76.5
  0
LINE
  8
0
 10
-110.7
 20
76.5
 11
-110.714
 21
76.2744
  0
LINE
  8
0
 10
-110.714
 20
76.2744
 11
-110.757
 21
76.0524
  0
LINE
  8
0
 10
-110.757
 20
76.0524
 11
-110.826
 21
75.8374
  0
LINE
  8
0
 10
-110.826
 20
75.8374
 11
-110.923
 21
75.6328
  0
LINE
  8
0
 10
-110.923
 20
75.6328
 11
-111.044
 21
75.442
  0
LINE
  8
0
 10
-111.044
 20
75.442
 11
-111.188
 21
75.2678
  0
LINE
  8
0
 10
-111.188
 20
75.2678
 11
-111.353
 21
75.1131
  0
LINE
  8
0
 10
-111.353
 20
75.1131
 11
-111.536
 21
74.9802
  0
LINE
  8
0
 10
-111.536
 20
74.9802
 11
-111.734
 21
74.8713
  0
LINE
  8
0
 10
-111.734
 20
74.8713
 11
-111.944
 21
74.7881
  0
LINE
  8
0
 10
-111.944
 20
74.7881
 11
-112.163
 21
74.7319
  0
LINE
  8
0
 10
-112.163
 20
74.7319
 11
-112.387
 21
74.7036
  0
LINE
  8
0
 10
-112.387
 20
74.7036
 11
-112.613
 21
74.7036
  0
LINE
  8
0
 10
112.387
 20
74.7036
 11
112.163
 21
74.7319
  0
LINE
  8
0
 10
112.163
 20
74.7319
 11
111.944
 21
74.7881
  0
LINE
  8
0
 10
111.944
 20
74.7881
 11
111.734
 21
74.8713
  0
LINE
  8
0
 10
111.734
 20
74.8713
 11
111.536
 21
74.9802
  0
LINE
  8
0
 10
111.536
 20
74.9802
 11
111.353
 21
75.1131
  0
LINE
  8
0
 10
111.353
 20
75.1131
 11
111.188
 21
75.2678
  0
LINE
  8
0
 10
111.188
 20
75.2678
 11
111.044
 21
75.442
  0
LINE
  8
0
 10
111.044
 20
75.442
 11
110.923
 21
75.6328
  0
LINE
  8
0
 10
110.923
 20
75.6328
 11
110.826
 21
75.8374
  0
LINE
  8
0
 10
110.826
 20
75.8374
 11
110.757
 21
76.0524
  0
LINE
  8
0
 10
110.757
 20
76.0524
 11
110.714
 21
76.2744
  0
LINE
  8
0
 10
110.714
 20
76.2744
 11
110.7
 21
76.5
  0
LINE
  8
0
 10
110.7
 20
76.5
 11
110.714
 21
76.7256
  0
LINE
  8
0
 10
110.714
 20
76.7256
 11
110.757
 21
76.9476
  0
LINE
  8
0
 10
110.757
 20
76.9476
 11
110.826
 21
77.1626
  0
LINE
  8
0
 10
110.826
 20
77.1626
 11
110.923
 21
77.3672
  0
LINE
  8
0
 10
110.923
 20
77.3672
 11
111.044
 21
77.558
  0
LINE
  8
0
 10
111.044
 20
77.558
 11
111.188
 21
77.7322
  0
LINE
  8
0
 10
111.188
 20
77.7322
 11
111.353
 21
77.8869
  0
LINE
  8
0
 10
111.353
 20
77.8869
 11
111.536
 21
78.0198
  0
LINE
  8
0
 10
111.536
 20
78.0198
 11
111.734
 21
78.1287
  0
LINE
  8
0
 10
111.734
 20
78.1287
 11
111.944
 21
78.2119
  0
LINE
  8
0
 10
111.944
 20
78.2119
 11
112.163
 21
78.2681
  0
LINE
  8
0
 10
112.163
 20
78.2681
 11
112.387
 21
78.2964
  0
LINE
  8
0
 10
112.387
 20
78.2964
 11
112.613
 21
78.2964
  0
LINE
  8
0
 10
112.613
 20
78.2964
 11
112.837
 21
78.2681
  0
LINE
  8
0
 10
112.837
 20
78.2681
 11
113.056
 21
78.2119
  0
LINE
  8
0
 10
113.056
 20
78.2119
 11
113.266
 21
78.1287
  0
LINE
  8
0
 10
113.266
 20
78.1287
 11
113.464
 21
78.0198
  0
LINE
  8
0
 10
113.464
 20
78.0198
 11
113.647
 21
77.8869
  0
LINE
  8
0
 10
113.647
 20
77.8869
 11
113.812
 21
77.7322
  0
LINE
  8
0
 10
113.812
 20
77.7322
 11
113.956
 21
77.558
  0
LINE
  8
0
 10
113.956
 20
77.558
 11
114.077
 21
77.3672
  0
LINE
  8
0
 10
114.077
 20
77.3672
 11
114.174
 21
77.1626
  0
LINE
  8
0
 10
114.174
 20
77.1626
 11
114.243
 21
76.9476
  0
LINE
  8
0
 10
114.243
 20
76.9476
 11
114.286
 21
76.7256
  0
LINE
  8
0
 10
114.286
 20
76.7256
 11
114.3
 21
76.5
  0
LINE
  8
0
 10
114.3
 20
76.5
 11
114.286
 21
76.2744
  0
LINE
  8
0
 10
114.286
 20
76.2744
 11
114.243
 21
76.0524
  0
LINE
  8
0
 10
114.243
 20
76.0524
 11
114.174
 21
75.8374
  0
LINE
  8
0
 10
114.174
 20
75.8374
 11
114.077
 21
75.6328
  0
LINE
  8
0
 10
114.077
 20
75.6328
 11
113.956
 21
75.442
  0
LINE
  8
0
 10
113.956
 20
75.442
 11
113.812
 21
75.2678
  0
LINE
  8
0
 10
113.812
 20
75.2678
 11
113.647
 21
75.1131
  0
LINE
  8
0
 10
113.647
 20
75.1131
 11
113.464
 21
74.9802
  0
LINE
  8
0
 10
113.464
 20
74.9802
 11
113.266
 21
74.8713
  0
LINE
  8
0
 10
113.266
 20
74.8713
 11
113.056
 21
74.7881
  0
LINE
  8
0
 10
113.056
 20
74.7881
 11
112.837
 21
74.7319
  0
LINE
  8
0
 10
112.837
 20
74.7319
 11
112.613
 21
74.7036
  0
LINE
  8
0
 10
112.613
 20
74.7036
 11
112.387
 21
74.7036
  0
ENDSEC
  0
SECTION
  2
OBJECTS
  0
DICTIONARY
  0
ENDSEC
  0
EOF
