  0
SECTION
  2
BLOCKS
  0
ENDSEC
  0
SECTION
  2
ENTITIES
  0
LINE
  8
0
 10
123.437
 20
1291.59
 11
124.045
 21
1291.74
  0
LINE
  8
0
 10
124.045
 20
1291.74
 11
124.629
 21
1291.98
  0
LINE
  8
0
 10
124.629
 20
1291.98
 11
125.179
 21
1292.28
  0
LINE
  8
0
 10
125.179
 20
1292.28
 11
125.687
 21
1292.65
  0
LINE
  8
0
 10
125.687
 20
1292.65
 11
126.145
 21
1293.08
  0
LINE
  8
0
 10
126.145
 20
1293.08
 11
126.545
 21
1293.56
  0
LINE
  8
0
 10
126.545
 20
1293.56
 11
126.882
 21
1294.09
  0
LINE
  8
0
 10
126.882
 20
1294.09
 11
127.149
 21
1294.66
  0
LINE
  8
0
 10
127.149
 20
1294.66
 11
127.343
 21
1295.26
  0
LINE
  8
0
 10
127.343
 20
1295.26
 11
127.461
 21
1295.87
  0
LINE
  8
0
 10
127.461
 20
1295.87
 11
127.5
 21
1296.5
  0
LINE
  8
0
 10
127.5
 20
1296.5
 11
127.5
 21
1511.5
  0
LINE
  8
0
 10
127.5
 20
1511.5
 11
127.461
 21
1512.13
  0
LINE
  8
0
 10
127.461
 20
1512.13
 11
127.343
 21
1512.74
  0
LINE
  8
0
 10
127.343
 20
1512.74
 11
127.149
 21
1513.34
  0
LINE
  8
0
 10
127.149
 20
1513.34
 11
126.882
 21
1513.91
  0
LINE
  8
0
 10
126.882
 20
1513.91
 11
126.545
 21
1514.44
  0
LINE
  8
0
 10
126.545
 20
1514.44
 11
126.145
 21
1514.92
  0
LINE
  8
0
 10
126.145
 20
1514.92
 11
125.687
 21
1515.35
  0
LINE
  8
0
 10
125.687
 20
1515.35
 11
125.179
 21
1515.72
  0
LINE
  8
0
 10
125.179
 20
1515.72
 11
124.629
 21
1516.02
  0
LINE
  8
0
 10
124.629
 20
1516.02
 11
124.045
 21
1516.26
  0
LINE
  8
0
 10
124.045
 20
1516.26
 11
123.437
 21
1516.41
  0
LINE
  8
0
 10
123.437
 20
1516.41
 11
122.814
 21
1516.49
  0
LINE
  8
0
 10
122.814
 20
1516.49
 11
-122.814
 21
1516.49
  0
LINE
  8
0
 10
-122.814
 20
1516.49
 11
-123.437
 21
1516.41
  0
LINE
  8
0
 10
-123.437
 20
1516.41
 11
-124.045
 21
1516.26
  0
LINE
  8
0
 10
-124.045
 20
1516.26
 11
-124.629
 21
1516.02
  0
LINE
  8
0
 10
-124.629
 20
1516.02
 11
-125.179
 21
1515.72
  0
LINE
  8
0
 10
-125.179
 20
1515.72
 11
-125.687
 21
1515.35
  0
LINE
  8
0
 10
-125.687
 20
1515.35
 11
-126.145
 21
1514.92
  0
LINE
  8
0
 10
-126.145
 20
1514.92
 11
-126.545
 21
1514.44
  0
LINE
  8
0
 10
-126.545
 20
1514.44
 11
-126.882
 21
1513.91
  0
LINE
  8
0
 10
-126.882
 20
1513.91
 11
-127.149
 21
1513.34
  0
LINE
  8
0
 10
-127.149
 20
1513.34
 11
-127.343
 21
1512.74
  0
LINE
  8
0
 10
-127.343
 20
1512.74
 11
-127.461
 21
1512.13
  0
LINE
  8
0
 10
-127.461
 20
1512.13
 11
-127.5
 21
1511.5
  0
LINE
  8
0
 10
-127.5
 20
1511.5
 11
-127.5
 21
1296.5
  0
LINE
  8
0
 10
-127.5
 20
1296.5
 11
-127.461
 21
1295.87
  0
LINE
  8
0
 10
-127.461
 20
1295.87
 11
-127.343
 21
1295.26
  0
LINE
  8
0
 10
-127.343
 20
1295.26
 11
-127.149
 21
1294.66
  0
LINE
  8
0
 10
-127.149
 20
1294.66
 11
-126.882
 21
1294.09
  0
LINE
  8
0
 10
-126.882
 20
1294.09
 11
-126.545
 21
1293.56
  0
LINE
  8
0
 10
-126.545
 20
1293.56
 11
-126.145
 21
1293.08
  0
LINE
  8
0
 10
-126.145
 20
1293.08
 11
-125.687
 21
1292.65
  0
LINE
  8
0
 10
-125.687
 20
1292.65
 11
-125.179
 21
1292.28
  0
LINE
  8
0
 10
-125.179
 20
1292.28
 11
-124.629
 21
1291.98
  0
LINE
  8
0
 10
-124.629
 20
1291.98
 11
-124.045
 21
1291.74
  0
LINE
  8
0
 10
-124.045
 20
1291.74
 11
-123.437
 21
1291.59
  0
LINE
  8
0
 10
-123.437
 20
1291.59
 11
-122.814
 21
1291.51
  0
LINE
  8
0
 10
-122.814
 20
1291.51
 11
122.814
 21
1291.51
  0
LINE
  8
0
 10
122.814
 20
1291.51
 11
123.437
 21
1291.59
  0
LINE
  8
0
 10
-122.548
 20
1292.01
 11
-123.14
 21
1292.08
  0
LINE
  8
0
 10
-123.14
 20
1292.08
 11
-123.718
 21
1292.23
  0
LINE
  8
0
 10
-123.718
 20
1292.23
 11
-124.272
 21
1292.45
  0
LINE
  8
0
 10
-124.272
 20
1292.45
 11
-124.795
 21
1292.74
  0
LINE
  8
0
 10
-124.795
 20
1292.74
 11
-125.278
 21
1293.09
  0
LINE
  8
0
 10
-125.278
 20
1293.09
 11
-125.713
 21
1293.5
  0
LINE
  8
0
 10
-125.713
 20
1293.5
 11
-126.093
 21
1293.96
  0
LINE
  8
0
 10
-126.093
 20
1293.96
 11
-126.412
 21
1294.46
  0
LINE
  8
0
 10
-126.412
 20
1294.46
 11
-126.666
 21
1295
  0
LINE
  8
0
 10
-126.666
 20
1295
 11
-126.851
 21
1295.57
  0
LINE
  8
0
 10
-126.851
 20
1295.57
 11
-126.963
 21
1296.15
  0
LINE
  8
0
 10
-126.963
 20
1296.15
 11
-127
 21
1296.75
  0
LINE
  8
0
 10
-127
 20
1296.75
 11
-127
 21
1511.25
  0
LINE
  8
0
 10
-127
 20
1511.25
 11
-126.963
 21
1511.85
  0
LINE
  8
0
 10
-126.963
 20
1511.85
 11
-126.851
 21
1512.43
  0
LINE
  8
0
 10
-126.851
 20
1512.43
 11
-126.666
 21
1513
  0
LINE
  8
0
 10
-126.666
 20
1513
 11
-126.412
 21
1513.54
  0
LINE
  8
0
 10
-126.412
 20
1513.54
 11
-126.093
 21
1514.04
  0
LINE
  8
0
 10
-126.093
 20
1514.04
 11
-125.713
 21
1514.5
  0
LINE
  8
0
 10
-125.713
 20
1514.5
 11
-125.278
 21
1514.91
  0
LINE
  8
0
 10
-125.278
 20
1514.91
 11
-124.795
 21
1515.26
  0
LINE
  8
0
 10
-124.795
 20
1515.26
 11
-124.272
 21
1515.55
  0
LINE
  8
0
 10
-124.272
 20
1515.55
 11
-123.718
 21
1515.77
  0
LINE
  8
0
 10
-123.718
 20
1515.77
 11
-123.14
 21
1515.92
  0
LINE
  8
0
 10
-123.14
 20
1515.92
 11
-122.548
 21
1515.99
  0
LINE
  8
0
 10
-122.548
 20
1515.99
 11
122.548
 21
1515.99
  0
LINE
  8
0
 10
122.548
 20
1515.99
 11
123.14
 21
1515.92
  0
LINE
  8
0
 10
123.14
 20
1515.92
 11
123.718
 21
1515.77
  0
LINE
  8
0
 10
123.718
 20
1515.77
 11
124.272
 21
1515.55
  0
LINE
  8
0
 10
124.272
 20
1515.55
 11
124.795
 21
1515.26
  0
LINE
  8
0
 10
124.795
 20
1515.26
 11
125.278
 21
1514.91
  0
LINE
  8
0
 10
125.278
 20
1514.91
 11
125.713
 21
1514.5
  0
LINE
  8
0
 10
125.713
 20
1514.5
 11
126.093
 21
1514.04
  0
LINE
  8
0
 10
126.093
 20
1514.04
 11
126.412
 21
1513.54
  0
LINE
  8
0
 10
126.412
 20
1513.54
 11
126.666
 21
1513
  0
LINE
  8
0
 10
126.666
 20
1513
 11
126.851
 21
1512.43
  0
LINE
  8
0
 10
126.851
 20
1512.43
 11
126.963
 21
1511.85
  0
LINE
  8
0
 10
126.963
 20
1511.85
 11
127
 21
1511.25
  0
LINE
  8
0
 10
127
 20
1511.25
 11
127
 21
1296.75
  0
LINE
  8
0
 10
127
 20
1296.75
 11
126.963
 21
1296.15
  0
LINE
  8
0
 10
126.963
 20
1296.15
 11
126.851
 21
1295.57
  0
LINE
  8
0
 10
126.851
 20
1295.57
 11
126.666
 21
1295
  0
LINE
  8
0
 10
126.666
 20
1295
 11
126.412
 21
1294.46
  0
LINE
  8
0
 10
126.412
 20
1294.46
 11
126.093
 21
1293.96
  0
LINE
  8
0
 10
126.093
 20
1293.96
 11
125.713
 21
1293.5
  0
LINE
  8
0
 10
125.713
 20
1293.5
 11
125.278
 21
1293.09
  0
LINE
  8
0
 10
125.278
 20
1293.09
 11
124.795
 21
1292.74
  0
LINE
  8
0
 10
124.795
 20
1292.74
 11
124.272
 21
1292.45
  0
LINE
  8
0
 10
124.272
 20
1292.45
 11
123.718
 21
1292.23
  0
LINE
  8
0
 10
123.718
 20
1292.23
 11
123.14
 21
1292.08
  0
LINE
  8
0
 10
123.14
 20
1292.08
 11
122.548
 21
1292.01
  0
LINE
  8
0
 10
122.548
 20
1292.01
 11
-122.548
 21
1292.01
  0
LINE
  8
0
 10
123.437
 20
1057.59
 11
124.045
 21
1057.74
  0
LINE
  8
0
 10
124.045
 20
1057.74
 11
124.629
 21
1057.98
  0
LINE
  8
0
 10
124.629
 20
1057.98
 11
125.179
 21
1058.28
  0
LINE
  8
0
 10
125.179
 20
1058.28
 11
125.687
 21
1058.65
  0
LINE
  8
0
 10
125.687
 20
1058.65
 11
126.145
 21
1059.08
  0
LINE
  8
0
 10
126.145
 20
1059.08
 11
126.545
 21
1059.56
  0
LINE
  8
0
 10
126.545
 20
1059.56
 11
126.882
 21
1060.09
  0
LINE
  8
0
 10
126.882
 20
1060.09
 11
127.149
 21
1060.66
  0
LINE
  8
0
 10
127.149
 20
1060.66
 11
127.343
 21
1061.26
  0
LINE
  8
0
 10
127.343
 20
1061.26
 11
127.461
 21
1061.87
  0
LINE
  8
0
 10
127.461
 20
1061.87
 11
127.5
 21
1062.5
  0
LINE
  8
0
 10
127.5
 20
1062.5
 11
127.5
 21
1277.5
  0
LINE
  8
0
 10
127.5
 20
1277.5
 11
127.461
 21
1278.13
  0
LINE
  8
0
 10
127.461
 20
1278.13
 11
127.343
 21
1278.74
  0
LINE
  8
0
 10
127.343
 20
1278.74
 11
127.149
 21
1279.34
  0
LINE
  8
0
 10
127.149
 20
1279.34
 11
126.882
 21
1279.91
  0
LINE
  8
0
 10
126.882
 20
1279.91
 11
126.545
 21
1280.44
  0
LINE
  8
0
 10
126.545
 20
1280.44
 11
126.145
 21
1280.92
  0
LINE
  8
0
 10
126.145
 20
1280.92
 11
125.687
 21
1281.35
  0
LINE
  8
0
 10
125.687
 20
1281.35
 11
125.179
 21
1281.72
  0
LINE
  8
0
 10
125.179
 20
1281.72
 11
124.629
 21
1282.02
  0
LINE
  8
0
 10
124.629
 20
1282.02
 11
124.045
 21
1282.26
  0
LINE
  8
0
 10
124.045
 20
1282.26
 11
123.437
 21
1282.41
  0
LINE
  8
0
 10
123.437
 20
1282.41
 11
122.814
 21
1282.49
  0
LINE
  8
0
 10
122.814
 20
1282.49
 11
-122.814
 21
1282.49
  0
LINE
  8
0
 10
-122.814
 20
1282.49
 11
-123.437
 21
1282.41
  0
LINE
  8
0
 10
-123.437
 20
1282.41
 11
-124.045
 21
1282.26
  0
LINE
  8
0
 10
-124.045
 20
1282.26
 11
-124.629
 21
1282.02
  0
LINE
  8
0
 10
-124.629
 20
1282.02
 11
-125.179
 21
1281.72
  0
LINE
  8
0
 10
-125.179
 20
1281.72
 11
-125.687
 21
1281.35
  0
LINE
  8
0
 10
-125.687
 20
1281.35
 11
-126.145
 21
1280.92
  0
LINE
  8
0
 10
-126.145
 20
1280.92
 11
-126.545
 21
1280.44
  0
LINE
  8
0
 10
-126.545
 20
1280.44
 11
-126.882
 21
1279.91
  0
LINE
  8
0
 10
-126.882
 20
1279.91
 11
-127.149
 21
1279.34
  0
LINE
  8
0
 10
-127.149
 20
1279.34
 11
-127.343
 21
1278.74
  0
LINE
  8
0
 10
-127.343
 20
1278.74
 11
-127.461
 21
1278.13
  0
LINE
  8
0
 10
-127.461
 20
1278.13
 11
-127.5
 21
1277.5
  0
LINE
  8
0
 10
-127.5
 20
1277.5
 11
-127.5
 21
1062.5
  0
LINE
  8
0
 10
-127.5
 20
1062.5
 11
-127.461
 21
1061.87
  0
LINE
  8
0
 10
-127.461
 20
1061.87
 11
-127.343
 21
1061.26
  0
LINE
  8
0
 10
-127.343
 20
1061.26
 11
-127.149
 21
1060.66
  0
LINE
  8
0
 10
-127.149
 20
1060.66
 11
-126.882
 21
1060.09
  0
LINE
  8
0
 10
-126.882
 20
1060.09
 11
-126.545
 21
1059.56
  0
LINE
  8
0
 10
-126.545
 20
1059.56
 11
-126.145
 21
1059.08
  0
LINE
  8
0
 10
-126.145
 20
1059.08
 11
-125.687
 21
1058.65
  0
LINE
  8
0
 10
-125.687
 20
1058.65
 11
-125.179
 21
1058.28
  0
LINE
  8
0
 10
-125.179
 20
1058.28
 11
-124.629
 21
1057.98
  0
LINE
  8
0
 10
-124.629
 20
1057.98
 11
-124.045
 21
1057.74
  0
LINE
  8
0
 10
-124.045
 20
1057.74
 11
-123.437
 21
1057.59
  0
LINE
  8
0
 10
-123.437
 20
1057.59
 11
-122.814
 21
1057.51
  0
LINE
  8
0
 10
-122.814
 20
1057.51
 11
122.814
 21
1057.51
  0
LINE
  8
0
 10
122.814
 20
1057.51
 11
123.437
 21
1057.59
  0
LINE
  8
0
 10
-122.548
 20
1058.01
 11
-123.14
 21
1058.08
  0
LINE
  8
0
 10
-123.14
 20
1058.08
 11
-123.718
 21
1058.23
  0
LINE
  8
0
 10
-123.718
 20
1058.23
 11
-124.272
 21
1058.45
  0
LINE
  8
0
 10
-124.272
 20
1058.45
 11
-124.795
 21
1058.74
  0
LINE
  8
0
 10
-124.795
 20
1058.74
 11
-125.278
 21
1059.09
  0
LINE
  8
0
 10
-125.278
 20
1059.09
 11
-125.713
 21
1059.5
  0
LINE
  8
0
 10
-125.713
 20
1059.5
 11
-126.093
 21
1059.96
  0
LINE
  8
0
 10
-126.093
 20
1059.96
 11
-126.412
 21
1060.46
  0
LINE
  8
0
 10
-126.412
 20
1060.46
 11
-126.666
 21
1061
  0
LINE
  8
0
 10
-126.666
 20
1061
 11
-126.851
 21
1061.57
  0
LINE
  8
0
 10
-126.851
 20
1061.57
 11
-126.963
 21
1062.15
  0
LINE
  8
0
 10
-126.963
 20
1062.15
 11
-127
 21
1062.75
  0
LINE
  8
0
 10
-127
 20
1062.75
 11
-127
 21
1277.25
  0
LINE
  8
0
 10
-127
 20
1277.25
 11
-126.963
 21
1277.85
  0
LINE
  8
0
 10
-126.963
 20
1277.85
 11
-126.851
 21
1278.43
  0
LINE
  8
0
 10
-126.851
 20
1278.43
 11
-126.666
 21
1279
  0
LINE
  8
0
 10
-126.666
 20
1279
 11
-126.412
 21
1279.54
  0
LINE
  8
0
 10
-126.412
 20
1279.54
 11
-126.093
 21
1280.04
  0
LINE
  8
0
 10
-126.093
 20
1280.04
 11
-125.713
 21
1280.5
  0
LINE
  8
0
 10
-125.713
 20
1280.5
 11
-125.278
 21
1280.91
  0
LINE
  8
0
 10
-125.278
 20
1280.91
 11
-124.795
 21
1281.26
  0
LINE
  8
0
 10
-124.795
 20
1281.26
 11
-124.272
 21
1281.55
  0
LINE
  8
0
 10
-124.272
 20
1281.55
 11
-123.718
 21
1281.77
  0
LINE
  8
0
 10
-123.718
 20
1281.77
 11
-123.14
 21
1281.92
  0
LINE
  8
0
 10
-123.14
 20
1281.92
 11
-122.548
 21
1281.99
  0
LINE
  8
0
 10
-122.548
 20
1281.99
 11
122.548
 21
1281.99
  0
LINE
  8
0
 10
122.548
 20
1281.99
 11
123.14
 21
1281.92
  0
LINE
  8
0
 10
123.14
 20
1281.92
 11
123.718
 21
1281.77
  0
LINE
  8
0
 10
123.718
 20
1281.77
 11
124.272
 21
1281.55
  0
LINE
  8
0
 10
124.272
 20
1281.55
 11
124.795
 21
1281.26
  0
LINE
  8
0
 10
124.795
 20
1281.26
 11
125.278
 21
1280.91
  0
LINE
  8
0
 10
125.278
 20
1280.91
 11
125.713
 21
1280.5
  0
LINE
  8
0
 10
125.713
 20
1280.5
 11
126.093
 21
1280.04
  0
LINE
  8
0
 10
126.093
 20
1280.04
 11
126.412
 21
1279.54
  0
LINE
  8
0
 10
126.412
 20
1279.54
 11
126.666
 21
1279
  0
LINE
  8
0
 10
126.666
 20
1279
 11
126.851
 21
1278.43
  0
LINE
  8
0
 10
126.851
 20
1278.43
 11
126.963
 21
1277.85
  0
LINE
  8
0
 10
126.963
 20
1277.85
 11
127
 21
1277.25
  0
LINE
  8
0
 10
127
 20
1277.25
 11
127
 21
1062.75
  0
LINE
  8
0
 10
127
 20
1062.75
 11
126.963
 21
1062.15
  0
LINE
  8
0
 10
126.963
 20
1062.15
 11
126.851
 21
1061.57
  0
LINE
  8
0
 10
126.851
 20
1061.57
 11
126.666
 21
1061
  0
LINE
  8
0
 10
126.666
 20
1061
 11
126.412
 21
1060.46
  0
LINE
  8
0
 10
126.412
 20
1060.46
 11
126.093
 21
1059.96
  0
LINE
  8
0
 10
126.093
 20
1059.96
 11
125.713
 21
1059.5
  0
LINE
  8
0
 10
125.713
 20
1059.5
 11
125.278
 21
1059.09
  0
LINE
  8
0
 10
125.278
 20
1059.09
 11
124.795
 21
1058.74
  0
LINE
  8
0
 10
124.795
 20
1058.74
 11
124.272
 21
1058.45
  0
LINE
  8
0
 10
124.272
 20
1058.45
 11
123.718
 21
1058.23
  0
LINE
  8
0
 10
123.718
 20
1058.23
 11
123.14
 21
1058.08
  0
LINE
  8
0
 10
123.14
 20
1058.08
 11
122.548
 21
1058.01
  0
LINE
  8
0
 10
122.548
 20
1058.01
 11
-122.548
 21
1058.01
  0
LINE
  8
0
 10
123.437
 20
823.589
 11
124.045
 21
823.745
  0
LINE
  8
0
 10
124.045
 20
823.745
 11
124.629
 21
823.976
  0
LINE
  8
0
 10
124.629
 20
823.976
 11
125.179
 21
824.278
  0
LINE
  8
0
 10
125.179
 20
824.278
 11
125.687
 21
824.647
  0
LINE
  8
0
 10
125.687
 20
824.647
 11
126.145
 21
825.077
  0
LINE
  8
0
 10
126.145
 20
825.077
 11
126.545
 21
825.561
  0
LINE
  8
0
 10
126.545
 20
825.561
 11
126.882
 21
826.091
  0
LINE
  8
0
 10
126.882
 20
826.091
 11
127.149
 21
826.659
  0
LINE
  8
0
 10
127.149
 20
826.659
 11
127.343
 21
827.257
  0
LINE
  8
0
 10
127.343
 20
827.257
 11
127.461
 21
827.873
  0
LINE
  8
0
 10
127.461
 20
827.873
 11
127.5
 21
828.5
  0
LINE
  8
0
 10
127.5
 20
828.5
 11
127.5
 21
1043.5
  0
LINE
  8
0
 10
127.5
 20
1043.5
 11
127.461
 21
1044.13
  0
LINE
  8
0
 10
127.461
 20
1044.13
 11
127.343
 21
1044.74
  0
LINE
  8
0
 10
127.343
 20
1044.74
 11
127.149
 21
1045.34
  0
LINE
  8
0
 10
127.149
 20
1045.34
 11
126.882
 21
1045.91
  0
LINE
  8
0
 10
126.882
 20
1045.91
 11
126.545
 21
1046.44
  0
LINE
  8
0
 10
126.545
 20
1046.44
 11
126.145
 21
1046.92
  0
LINE
  8
0
 10
126.145
 20
1046.92
 11
125.687
 21
1047.35
  0
LINE
  8
0
 10
125.687
 20
1047.35
 11
125.179
 21
1047.72
  0
LINE
  8
0
 10
125.179
 20
1047.72
 11
124.629
 21
1048.02
  0
LINE
  8
0
 10
124.629
 20
1048.02
 11
124.045
 21
1048.26
  0
LINE
  8
0
 10
124.045
 20
1048.26
 11
123.437
 21
1048.41
  0
LINE
  8
0
 10
123.437
 20
1048.41
 11
122.814
 21
1048.49
  0
LINE
  8
0
 10
122.814
 20
1048.49
 11
-122.814
 21
1048.49
  0
LINE
  8
0
 10
-122.814
 20
1048.49
 11
-123.437
 21
1048.41
  0
LINE
  8
0
 10
-123.437
 20
1048.41
 11
-124.045
 21
1048.26
  0
LINE
  8
0
 10
-124.045
 20
1048.26
 11
-124.629
 21
1048.02
  0
LINE
  8
0
 10
-124.629
 20
1048.02
 11
-125.179
 21
1047.72
  0
LINE
  8
0
 10
-125.179
 20
1047.72
 11
-125.687
 21
1047.35
  0
LINE
  8
0
 10
-125.687
 20
1047.35
 11
-126.145
 21
1046.92
  0
LINE
  8
0
 10
-126.145
 20
1046.92
 11
-126.545
 21
1046.44
  0
LINE
  8
0
 10
-126.545
 20
1046.44
 11
-126.882
 21
1045.91
  0
LINE
  8
0
 10
-126.882
 20
1045.91
 11
-127.149
 21
1045.34
  0
LINE
  8
0
 10
-127.149
 20
1045.34
 11
-127.343
 21
1044.74
  0
LINE
  8
0
 10
-127.343
 20
1044.74
 11
-127.461
 21
1044.13
  0
LINE
  8
0
 10
-127.461
 20
1044.13
 11
-127.5
 21
1043.5
  0
LINE
  8
0
 10
-127.5
 20
1043.5
 11
-127.5
 21
828.5
  0
LINE
  8
0
 10
-127.5
 20
828.5
 11
-127.461
 21
827.873
  0
LINE
  8
0
 10
-127.461
 20
827.873
 11
-127.343
 21
827.257
  0
LINE
  8
0
 10
-127.343
 20
827.257
 11
-127.149
 21
826.659
  0
LINE
  8
0
 10
-127.149
 20
826.659
 11
-126.882
 21
826.091
  0
LINE
  8
0
 10
-126.882
 20
826.091
 11
-126.545
 21
825.561
  0
LINE
  8
0
 10
-126.545
 20
825.561
 11
-126.145
 21
825.077
  0
LINE
  8
0
 10
-126.145
 20
825.077
 11
-125.687
 21
824.647
  0
LINE
  8
0
 10
-125.687
 20
824.647
 11
-125.179
 21
824.278
  0
LINE
  8
0
 10
-125.179
 20
824.278
 11
-124.629
 21
823.976
  0
LINE
  8
0
 10
-124.629
 20
823.976
 11
-124.045
 21
823.745
  0
LINE
  8
0
 10
-124.045
 20
823.745
 11
-123.437
 21
823.589
  0
LINE
  8
0
 10
-123.437
 20
823.589
 11
-122.814
 21
823.51
  0
LINE
  8
0
 10
-122.814
 20
823.51
 11
122.814
 21
823.51
  0
LINE
  8
0
 10
122.814
 20
823.51
 11
123.437
 21
823.589
  0
LINE
  8
0
 10
-122.493
 20
824.888
 11
-122.975
 21
824.949
  0
LINE
  8
0
 10
-122.975
 20
824.949
 11
-123.446
 21
825.07
  0
LINE
  8
0
 10
-123.446
 20
825.07
 11
-123.898
 21
825.249
  0
LINE
  8
0
 10
-123.898
 20
825.249
 11
-124.323
 21
825.483
  0
LINE
  8
0
 10
-124.323
 20
825.483
 11
-124.716
 21
825.769
  0
LINE
  8
0
 10
-124.716
 20
825.769
 11
-125.071
 21
826.101
  0
LINE
  8
0
 10
-125.071
 20
826.101
 11
-125.38
 21
826.476
  0
LINE
  8
0
 10
-125.38
 20
826.476
 11
-125.641
 21
826.886
  0
LINE
  8
0
 10
-125.641
 20
826.886
 11
-125.848
 21
827.326
  0
LINE
  8
0
 10
-125.848
 20
827.326
 11
-125.998
 21
827.788
  0
LINE
  8
0
 10
-125.998
 20
827.788
 11
-126.089
 21
828.265
  0
LINE
  8
0
 10
-126.089
 20
828.265
 11
-126.119
 21
828.75
  0
LINE
  8
0
 10
-126.119
 20
828.75
 11
-126.119
 21
1043.25
  0
LINE
  8
0
 10
-126.119
 20
1043.25
 11
-126.089
 21
1043.73
  0
LINE
  8
0
 10
-126.089
 20
1043.73
 11
-125.998
 21
1044.21
  0
LINE
  8
0
 10
-125.998
 20
1044.21
 11
-125.848
 21
1044.67
  0
LINE
  8
0
 10
-125.848
 20
1044.67
 11
-125.641
 21
1045.11
  0
LINE
  8
0
 10
-125.641
 20
1045.11
 11
-125.38
 21
1045.52
  0
LINE
  8
0
 10
-125.38
 20
1045.52
 11
-125.071
 21
1045.9
  0
LINE
  8
0
 10
-125.071
 20
1045.9
 11
-124.716
 21
1046.23
  0
LINE
  8
0
 10
-124.716
 20
1046.23
 11
-124.323
 21
1046.52
  0
LINE
  8
0
 10
-124.323
 20
1046.52
 11
-123.898
 21
1046.75
  0
LINE
  8
0
 10
-123.898
 20
1046.75
 11
-123.446
 21
1046.93
  0
LINE
  8
0
 10
-123.446
 20
1046.93
 11
-122.975
 21
1047.05
  0
LINE
  8
0
 10
-122.975
 20
1047.05
 11
-122.493
 21
1047.11
  0
LINE
  8
0
 10
-122.493
 20
1047.11
 11
122.493
 21
1047.11
  0
LINE
  8
0
 10
122.493
 20
1047.11
 11
122.975
 21
1047.05
  0
LINE
  8
0
 10
122.975
 20
1047.05
 11
123.446
 21
1046.93
  0
LINE
  8
0
 10
123.446
 20
1046.93
 11
123.898
 21
1046.75
  0
LINE
  8
0
 10
123.898
 20
1046.75
 11
124.323
 21
1046.52
  0
LINE
  8
0
 10
124.323
 20
1046.52
 11
124.716
 21
1046.23
  0
LINE
  8
0
 10
124.716
 20
1046.23
 11
125.071
 21
1045.9
  0
LINE
  8
0
 10
125.071
 20
1045.9
 11
125.38
 21
1045.52
  0
LINE
  8
0
 10
125.38
 20
1045.52
 11
125.641
 21
1045.11
  0
LINE
  8
0
 10
125.641
 20
1045.11
 11
125.848
 21
1044.67
  0
LINE
  8
0
 10
125.848
 20
1044.67
 11
125.998
 21
1044.21
  0
LINE
  8
0
 10
125.998
 20
1044.21
 11
126.089
 21
1043.73
  0
LINE
  8
0
 10
126.089
 20
1043.73
 11
126.119
 21
1043.25
  0
LINE
  8
0
 10
126.119
 20
1043.25
 11
126.119
 21
828.75
  0
LINE
  8
0
 10
126.119
 20
828.75
 11
126.089
 21
828.265
  0
LINE
  8
0
 10
126.089
 20
828.265
 11
125.998
 21
827.788
  0
LINE
  8
0
 10
125.998
 20
827.788
 11
125.848
 21
827.326
  0
LINE
  8
0
 10
125.848
 20
827.326
 11
125.641
 21
826.886
  0
LINE
  8
0
 10
125.641
 20
826.886
 11
125.38
 21
826.476
  0
LINE
  8
0
 10
125.38
 20
826.476
 11
125.071
 21
826.101
  0
LINE
  8
0
 10
125.071
 20
826.101
 11
124.716
 21
825.769
  0
LINE
  8
0
 10
124.716
 20
825.769
 11
124.323
 21
825.483
  0
LINE
  8
0
 10
124.323
 20
825.483
 11
123.898
 21
825.249
  0
LINE
  8
0
 10
123.898
 20
825.249
 11
123.446
 21
825.07
  0
LINE
  8
0
 10
123.446
 20
825.07
 11
122.975
 21
824.949
  0
LINE
  8
0
 10
122.975
 20
824.949
 11
122.493
 21
824.888
  0
LINE
  8
0
 10
122.493
 20
824.888
 11
-122.493
 21
824.888
  0
LINE
  8
0
 10
123.437
 20
589.589
 11
124.045
 21
589.745
  0
LINE
  8
0
 10
124.045
 20
589.745
 11
124.629
 21
589.976
  0
LINE
  8
0
 10
124.629
 20
589.976
 11
125.179
 21
590.278
  0
LINE
  8
0
 10
125.179
 20
590.278
 11
125.687
 21
590.647
  0
LINE
  8
0
 10
125.687
 20
590.647
 11
126.145
 21
591.077
  0
LINE
  8
0
 10
126.145
 20
591.077
 11
126.545
 21
591.561
  0
LINE
  8
0
 10
126.545
 20
591.561
 11
126.882
 21
592.091
  0
LINE
  8
0
 10
126.882
 20
592.091
 11
127.149
 21
592.659
  0
LINE
  8
0
 10
127.149
 20
592.659
 11
127.343
 21
593.257
  0
LINE
  8
0
 10
127.343
 20
593.257
 11
127.461
 21
593.873
  0
LINE
  8
0
 10
127.461
 20
593.873
 11
127.5
 21
594.5
  0
LINE
  8
0
 10
127.5
 20
594.5
 11
127.5
 21
809.5
  0
LINE
  8
0
 10
127.5
 20
809.5
 11
127.461
 21
810.127
  0
LINE
  8
0
 10
127.461
 20
810.127
 11
127.343
 21
810.743
  0
LINE
  8
0
 10
127.343
 20
810.743
 11
127.149
 21
811.341
  0
LINE
  8
0
 10
127.149
 20
811.341
 11
126.882
 21
811.909
  0
LINE
  8
0
 10
126.882
 20
811.909
 11
126.545
 21
812.439
  0
LINE
  8
0
 10
126.545
 20
812.439
 11
126.145
 21
812.923
  0
LINE
  8
0
 10
126.145
 20
812.923
 11
125.687
 21
813.353
  0
LINE
  8
0
 10
125.687
 20
813.353
 11
125.179
 21
813.722
  0
LINE
  8
0
 10
125.179
 20
813.722
 11
124.629
 21
814.024
  0
LINE
  8
0
 10
124.629
 20
814.024
 11
124.045
 21
814.255
  0
LINE
  8
0
 10
124.045
 20
814.255
 11
123.437
 21
814.411
  0
LINE
  8
0
 10
123.437
 20
814.411
 11
122.814
 21
814.49
  0
LINE
  8
0
 10
122.814
 20
814.49
 11
-122.814
 21
814.49
  0
LINE
  8
0
 10
-122.814
 20
814.49
 11
-123.437
 21
814.411
  0
LINE
  8
0
 10
-123.437
 20
814.411
 11
-124.045
 21
814.255
  0
LINE
  8
0
 10
-124.045
 20
814.255
 11
-124.629
 21
814.024
  0
LINE
  8
0
 10
-124.629
 20
814.024
 11
-125.179
 21
813.722
  0
LINE
  8
0
 10
-125.179
 20
813.722
 11
-125.687
 21
813.353
  0
LINE
  8
0
 10
-125.687
 20
813.353
 11
-126.145
 21
812.923
  0
LINE
  8
0
 10
-126.145
 20
812.923
 11
-126.545
 21
812.439
  0
LINE
  8
0
 10
-126.545
 20
812.439
 11
-126.882
 21
811.909
  0
LINE
  8
0
 10
-126.882
 20
811.909
 11
-127.149
 21
811.341
  0
LINE
  8
0
 10
-127.149
 20
811.341
 11
-127.343
 21
810.743
  0
LINE
  8
0
 10
-127.343
 20
810.743
 11
-127.461
 21
810.127
  0
LINE
  8
0
 10
-127.461
 20
810.127
 11
-127.5
 21
809.5
  0
LINE
  8
0
 10
-127.5
 20
809.5
 11
-127.5
 21
594.5
  0
LINE
  8
0
 10
-127.5
 20
594.5
 11
-127.461
 21
593.873
  0
LINE
  8
0
 10
-127.461
 20
593.873
 11
-127.343
 21
593.257
  0
LINE
  8
0
 10
-127.343
 20
593.257
 11
-127.149
 21
592.659
  0
LINE
  8
0
 10
-127.149
 20
592.659
 11
-126.882
 21
592.091
  0
LINE
  8
0
 10
-126.882
 20
592.091
 11
-126.545
 21
591.561
  0
LINE
  8
0
 10
-126.545
 20
591.561
 11
-126.145
 21
591.077
  0
LINE
  8
0
 10
-126.145
 20
591.077
 11
-125.687
 21
590.647
  0
LINE
  8
0
 10
-125.687
 20
590.647
 11
-125.179
 21
590.278
  0
LINE
  8
0
 10
-125.179
 20
590.278
 11
-124.629
 21
589.976
  0
LINE
  8
0
 10
-124.629
 20
589.976
 11
-124.045
 21
589.745
  0
LINE
  8
0
 10
-124.045
 20
589.745
 11
-123.437
 21
589.589
  0
LINE
  8
0
 10
-123.437
 20
589.589
 11
-122.814
 21
589.51
  0
LINE
  8
0
 10
-122.814
 20
589.51
 11
122.814
 21
589.51
  0
LINE
  8
0
 10
122.814
 20
589.51
 11
123.437
 21
589.589
  0
LINE
  8
0
 10
119.887
 20
805.204
 11
119.663
 21
805.232
  0
LINE
  8
0
 10
119.663
 20
805.232
 11
119.444
 21
805.288
  0
LINE
  8
0
 10
119.444
 20
805.288
 11
119.234
 21
805.371
  0
LINE
  8
0
 10
119.234
 20
805.371
 11
119.036
 21
805.48
  0
LINE
  8
0
 10
119.036
 20
805.48
 11
118.853
 21
805.613
  0
LINE
  8
0
 10
118.853
 20
805.613
 11
118.688
 21
805.768
  0
LINE
  8
0
 10
118.688
 20
805.768
 11
118.544
 21
805.942
  0
LINE
  8
0
 10
118.544
 20
805.942
 11
118.423
 21
806.133
  0
LINE
  8
0
 10
118.423
 20
806.133
 11
118.326
 21
806.337
  0
LINE
  8
0
 10
118.326
 20
806.337
 11
118.257
 21
806.552
  0
LINE
  8
0
 10
118.257
 20
806.552
 11
118.214
 21
806.774
  0
LINE
  8
0
 10
118.214
 20
806.774
 11
118.2
 21
807
  0
LINE
  8
0
 10
118.2
 20
807
 11
118.214
 21
807.226
  0
LINE
  8
0
 10
118.214
 20
807.226
 11
118.257
 21
807.448
  0
LINE
  8
0
 10
118.257
 20
807.448
 11
118.326
 21
807.663
  0
LINE
  8
0
 10
118.326
 20
807.663
 11
118.423
 21
807.867
  0
LINE
  8
0
 10
118.423
 20
807.867
 11
118.544
 21
808.058
  0
LINE
  8
0
 10
118.544
 20
808.058
 11
118.688
 21
808.232
  0
LINE
  8
0
 10
118.688
 20
808.232
 11
118.853
 21
808.387
  0
LINE
  8
0
 10
118.853
 20
808.387
 11
119.036
 21
808.52
  0
LINE
  8
0
 10
119.036
 20
808.52
 11
119.234
 21
808.629
  0
LINE
  8
0
 10
119.234
 20
808.629
 11
119.444
 21
808.712
  0
LINE
  8
0
 10
119.444
 20
808.712
 11
119.663
 21
808.768
  0
LINE
  8
0
 10
119.663
 20
808.768
 11
119.887
 21
808.796
  0
LINE
  8
0
 10
119.887
 20
808.796
 11
120.113
 21
808.796
  0
LINE
  8
0
 10
120.113
 20
808.796
 11
120.337
 21
808.768
  0
LINE
  8
0
 10
120.337
 20
808.768
 11
120.556
 21
808.712
  0
LINE
  8
0
 10
120.556
 20
808.712
 11
120.766
 21
808.629
  0
LINE
  8
0
 10
120.766
 20
808.629
 11
120.964
 21
808.52
  0
LINE
  8
0
 10
120.964
 20
808.52
 11
121.147
 21
808.387
  0
LINE
  8
0
 10
121.147
 20
808.387
 11
121.312
 21
808.232
  0
LINE
  8
0
 10
121.312
 20
808.232
 11
121.456
 21
808.058
  0
LINE
  8
0
 10
121.456
 20
808.058
 11
121.577
 21
807.867
  0
LINE
  8
0
 10
121.577
 20
807.867
 11
121.674
 21
807.663
  0
LINE
  8
0
 10
121.674
 20
807.663
 11
121.743
 21
807.448
  0
LINE
  8
0
 10
121.743
 20
807.448
 11
121.786
 21
807.226
  0
LINE
  8
0
 10
121.786
 20
807.226
 11
121.8
 21
807
  0
LINE
  8
0
 10
121.8
 20
807
 11
121.786
 21
806.774
  0
LINE
  8
0
 10
121.786
 20
806.774
 11
121.743
 21
806.552
  0
LINE
  8
0
 10
121.743
 20
806.552
 11
121.674
 21
806.337
  0
LINE
  8
0
 10
121.674
 20
806.337
 11
121.577
 21
806.133
  0
LINE
  8
0
 10
121.577
 20
806.133
 11
121.456
 21
805.942
  0
LINE
  8
0
 10
121.456
 20
805.942
 11
121.312
 21
805.768
  0
LINE
  8
0
 10
121.312
 20
805.768
 11
121.147
 21
805.613
  0
LINE
  8
0
 10
121.147
 20
805.613
 11
120.964
 21
805.48
  0
LINE
  8
0
 10
120.964
 20
805.48
 11
120.766
 21
805.371
  0
LINE
  8
0
 10
120.766
 20
805.371
 11
120.556
 21
805.288
  0
LINE
  8
0
 10
120.556
 20
805.288
 11
120.337
 21
805.232
  0
LINE
  8
0
 10
120.337
 20
805.232
 11
120.113
 21
805.204
  0
LINE
  8
0
 10
120.113
 20
805.204
 11
119.887
 21
805.204
  0
LINE
  8
0
 10
-120.113
 20
805.204
 11
-120.337
 21
805.232
  0
LINE
  8
0
 10
-120.337
 20
805.232
 11
-120.556
 21
805.288
  0
LINE
  8
0
 10
-120.556
 20
805.288
 11
-120.766
 21
805.371
  0
LINE
  8
0
 10
-120.766
 20
805.371
 11
-120.964
 21
805.48
  0
LINE
  8
0
 10
-120.964
 20
805.48
 11
-121.147
 21
805.613
  0
LINE
  8
0
 10
-121.147
 20
805.613
 11
-121.312
 21
805.768
  0
LINE
  8
0
 10
-121.312
 20
805.768
 11
-121.456
 21
805.942
  0
LINE
  8
0
 10
-121.456
 20
805.942
 11
-121.577
 21
806.133
  0
LINE
  8
0
 10
-121.577
 20
806.133
 11
-121.674
 21
806.337
  0
LINE
  8
0
 10
-121.674
 20
806.337
 11
-121.743
 21
806.552
  0
LINE
  8
0
 10
-121.743
 20
806.552
 11
-121.786
 21
806.774
  0
LINE
  8
0
 10
-121.786
 20
806.774
 11
-121.8
 21
807
  0
LINE
  8
0
 10
-121.8
 20
807
 11
-121.786
 21
807.226
  0
LINE
  8
0
 10
-121.786
 20
807.226
 11
-121.743
 21
807.448
  0
LINE
  8
0
 10
-121.743
 20
807.448
 11
-121.674
 21
807.663
  0
LINE
  8
0
 10
-121.674
 20
807.663
 11
-121.577
 21
807.867
  0
LINE
  8
0
 10
-121.577
 20
807.867
 11
-121.456
 21
808.058
  0
LINE
  8
0
 10
-121.456
 20
808.058
 11
-121.312
 21
808.232
  0
LINE
  8
0
 10
-121.312
 20
808.232
 11
-121.147
 21
808.387
  0
LINE
  8
0
 10
-121.147
 20
808.387
 11
-120.964
 21
808.52
  0
LINE
  8
0
 10
-120.964
 20
808.52
 11
-120.766
 21
808.629
  0
LINE
  8
0
 10
-120.766
 20
808.629
 11
-120.556
 21
808.712
  0
LINE
  8
0
 10
-120.556
 20
808.712
 11
-120.337
 21
808.768
  0
LINE
  8
0
 10
-120.337
 20
808.768
 11
-120.113
 21
808.796
  0
LINE
  8
0
 10
-120.113
 20
808.796
 11
-119.887
 21
808.796
  0
LINE
  8
0
 10
-119.887
 20
808.796
 11
-119.663
 21
808.768
  0
LINE
  8
0
 10
-119.663
 20
808.768
 11
-119.444
 21
808.712
  0
LINE
  8
0
 10
-119.444
 20
808.712
 11
-119.234
 21
808.629
  0
LINE
  8
0
 10
-119.234
 20
808.629
 11
-119.036
 21
808.52
  0
LINE
  8
0
 10
-119.036
 20
808.52
 11
-118.853
 21
808.387
  0
LINE
  8
0
 10
-118.853
 20
808.387
 11
-118.688
 21
808.232
  0
LINE
  8
0
 10
-118.688
 20
808.232
 11
-118.544
 21
808.058
  0
LINE
  8
0
 10
-118.544
 20
808.058
 11
-118.423
 21
807.867
  0
LINE
  8
0
 10
-118.423
 20
807.867
 11
-118.326
 21
807.663
  0
LINE
  8
0
 10
-118.326
 20
807.663
 11
-118.257
 21
807.448
  0
LINE
  8
0
 10
-118.257
 20
807.448
 11
-118.214
 21
807.226
  0
LINE
  8
0
 10
-118.214
 20
807.226
 11
-118.2
 21
807
  0
LINE
  8
0
 10
-118.2
 20
807
 11
-118.214
 21
806.774
  0
LINE
  8
0
 10
-118.214
 20
806.774
 11
-118.257
 21
806.552
  0
LINE
  8
0
 10
-118.257
 20
806.552
 11
-118.326
 21
806.337
  0
LINE
  8
0
 10
-118.326
 20
806.337
 11
-118.423
 21
806.133
  0
LINE
  8
0
 10
-118.423
 20
806.133
 11
-118.544
 21
805.942
  0
LINE
  8
0
 10
-118.544
 20
805.942
 11
-118.688
 21
805.768
  0
LINE
  8
0
 10
-118.688
 20
805.768
 11
-118.853
 21
805.613
  0
LINE
  8
0
 10
-118.853
 20
805.613
 11
-119.036
 21
805.48
  0
LINE
  8
0
 10
-119.036
 20
805.48
 11
-119.234
 21
805.371
  0
LINE
  8
0
 10
-119.234
 20
805.371
 11
-119.444
 21
805.288
  0
LINE
  8
0
 10
-119.444
 20
805.288
 11
-119.663
 21
805.232
  0
LINE
  8
0
 10
-119.663
 20
805.232
 11
-119.887
 21
805.204
  0
LINE
  8
0
 10
-119.887
 20
805.204
 11
-120.113
 21
805.204
  0
LINE
  8
0
 10
-120.113
 20
595.204
 11
-120.337
 21
595.232
  0
LINE
  8
0
 10
-120.337
 20
595.232
 11
-120.556
 21
595.288
  0
LINE
  8
0
 10
-120.556
 20
595.288
 11
-120.766
 21
595.371
  0
LINE
  8
0
 10
-120.766
 20
595.371
 11
-120.964
 21
595.48
  0
LINE
  8
0
 10
-120.964
 20
595.48
 11
-121.147
 21
595.613
  0
LINE
  8
0
 10
-121.147
 20
595.613
 11
-121.312
 21
595.768
  0
LINE
  8
0
 10
-121.312
 20
595.768
 11
-121.456
 21
595.942
  0
LINE
  8
0
 10
-121.456
 20
595.942
 11
-121.577
 21
596.133
  0
LINE
  8
0
 10
-121.577
 20
596.133
 11
-121.674
 21
596.337
  0
LINE
  8
0
 10
-121.674
 20
596.337
 11
-121.743
 21
596.552
  0
LINE
  8
0
 10
-121.743
 20
596.552
 11
-121.786
 21
596.774
  0
LINE
  8
0
 10
-121.786
 20
596.774
 11
-121.8
 21
597
  0
LINE
  8
0
 10
-121.8
 20
597
 11
-121.786
 21
597.226
  0
LINE
  8
0
 10
-121.786
 20
597.226
 11
-121.743
 21
597.448
  0
LINE
  8
0
 10
-121.743
 20
597.448
 11
-121.674
 21
597.663
  0
LINE
  8
0
 10
-121.674
 20
597.663
 11
-121.577
 21
597.867
  0
LINE
  8
0
 10
-121.577
 20
597.867
 11
-121.456
 21
598.058
  0
LINE
  8
0
 10
-121.456
 20
598.058
 11
-121.312
 21
598.232
  0
LINE
  8
0
 10
-121.312
 20
598.232
 11
-121.147
 21
598.387
  0
LINE
  8
0
 10
-121.147
 20
598.387
 11
-120.964
 21
598.52
  0
LINE
  8
0
 10
-120.964
 20
598.52
 11
-120.766
 21
598.629
  0
LINE
  8
0
 10
-120.766
 20
598.629
 11
-120.556
 21
598.712
  0
LINE
  8
0
 10
-120.556
 20
598.712
 11
-120.337
 21
598.768
  0
LINE
  8
0
 10
-120.337
 20
598.768
 11
-120.113
 21
598.796
  0
LINE
  8
0
 10
-120.113
 20
598.796
 11
-119.887
 21
598.796
  0
LINE
  8
0
 10
-119.887
 20
598.796
 11
-119.663
 21
598.768
  0
LINE
  8
0
 10
-119.663
 20
598.768
 11
-119.444
 21
598.712
  0
LINE
  8
0
 10
-119.444
 20
598.712
 11
-119.234
 21
598.629
  0
LINE
  8
0
 10
-119.234
 20
598.629
 11
-119.036
 21
598.52
  0
LINE
  8
0
 10
-119.036
 20
598.52
 11
-118.853
 21
598.387
  0
LINE
  8
0
 10
-118.853
 20
598.387
 11
-118.688
 21
598.232
  0
LINE
  8
0
 10
-118.688
 20
598.232
 11
-118.544
 21
598.058
  0
LINE
  8
0
 10
-118.544
 20
598.058
 11
-118.423
 21
597.867
  0
LINE
  8
0
 10
-118.423
 20
597.867
 11
-118.326
 21
597.663
  0
LINE
  8
0
 10
-118.326
 20
597.663
 11
-118.257
 21
597.448
  0
LINE
  8
0
 10
-118.257
 20
597.448
 11
-118.214
 21
597.226
  0
LINE
  8
0
 10
-118.214
 20
597.226
 11
-118.2
 21
597
  0
LINE
  8
0
 10
-118.2
 20
597
 11
-118.214
 21
596.774
  0
LINE
  8
0
 10
-118.214
 20
596.774
 11
-118.257
 21
596.552
  0
LINE
  8
0
 10
-118.257
 20
596.552
 11
-118.326
 21
596.337
  0
LINE
  8
0
 10
-118.326
 20
596.337
 11
-118.423
 21
596.133
  0
LINE
  8
0
 10
-118.423
 20
596.133
 11
-118.544
 21
595.942
  0
LINE
  8
0
 10
-118.544
 20
595.942
 11
-118.688
 21
595.768
  0
LINE
  8
0
 10
-118.688
 20
595.768
 11
-118.853
 21
595.613
  0
LINE
  8
0
 10
-118.853
 20
595.613
 11
-119.036
 21
595.48
  0
LINE
  8
0
 10
-119.036
 20
595.48
 11
-119.234
 21
595.371
  0
LINE
  8
0
 10
-119.234
 20
595.371
 11
-119.444
 21
595.288
  0
LINE
  8
0
 10
-119.444
 20
595.288
 11
-119.663
 21
595.232
  0
LINE
  8
0
 10
-119.663
 20
595.232
 11
-119.887
 21
595.204
  0
LINE
  8
0
 10
-119.887
 20
595.204
 11
-120.113
 21
595.204
  0
LINE
  8
0
 10
119.887
 20
595.204
 11
119.663
 21
595.232
  0
LINE
  8
0
 10
119.663
 20
595.232
 11
119.444
 21
595.288
  0
LINE
  8
0
 10
119.444
 20
595.288
 11
119.234
 21
595.371
  0
LINE
  8
0
 10
119.234
 20
595.371
 11
119.036
 21
595.48
  0
LINE
  8
0
 10
119.036
 20
595.48
 11
118.853
 21
595.613
  0
LINE
  8
0
 10
118.853
 20
595.613
 11
118.688
 21
595.768
  0
LINE
  8
0
 10
118.688
 20
595.768
 11
118.544
 21
595.942
  0
LINE
  8
0
 10
118.544
 20
595.942
 11
118.423
 21
596.133
  0
LINE
  8
0
 10
118.423
 20
596.133
 11
118.326
 21
596.337
  0
LINE
  8
0
 10
118.326
 20
596.337
 11
118.257
 21
596.552
  0
LINE
  8
0
 10
118.257
 20
596.552
 11
118.214
 21
596.774
  0
LINE
  8
0
 10
118.214
 20
596.774
 11
118.2
 21
597
  0
LINE
  8
0
 10
118.2
 20
597
 11
118.214
 21
597.226
  0
LINE
  8
0
 10
118.214
 20
597.226
 11
118.257
 21
597.448
  0
LINE
  8
0
 10
118.257
 20
597.448
 11
118.326
 21
597.663
  0
LINE
  8
0
 10
118.326
 20
597.663
 11
118.423
 21
597.867
  0
LINE
  8
0
 10
118.423
 20
597.867
 11
118.544
 21
598.058
  0
LINE
  8
0
 10
118.544
 20
598.058
 11
118.688
 21
598.232
  0
LINE
  8
0
 10
118.688
 20
598.232
 11
118.853
 21
598.387
  0
LINE
  8
0
 10
118.853
 20
598.387
 11
119.036
 21
598.52
  0
LINE
  8
0
 10
119.036
 20
598.52
 11
119.234
 21
598.629
  0
LINE
  8
0
 10
119.234
 20
598.629
 11
119.444
 21
598.712
  0
LINE
  8
0
 10
119.444
 20
598.712
 11
119.663
 21
598.768
  0
LINE
  8
0
 10
119.663
 20
598.768
 11
119.887
 21
598.796
  0
LINE
  8
0
 10
119.887
 20
598.796
 11
120.113
 21
598.796
  0
LINE
  8
0
 10
120.113
 20
598.796
 11
120.337
 21
598.768
  0
LINE
  8
0
 10
120.337
 20
598.768
 11
120.556
 21
598.712
  0
LINE
  8
0
 10
120.556
 20
598.712
 11
120.766
 21
598.629
  0
LINE
  8
0
 10
120.766
 20
598.629
 11
120.964
 21
598.52
  0
LINE
  8
0
 10
120.964
 20
598.52
 11
121.147
 21
598.387
  0
LINE
  8
0
 10
121.147
 20
598.387
 11
121.312
 21
598.232
  0
LINE
  8
0
 10
121.312
 20
598.232
 11
121.456
 21
598.058
  0
LINE
  8
0
 10
121.456
 20
598.058
 11
121.577
 21
597.867
  0
LINE
  8
0
 10
121.577
 20
597.867
 11
121.674
 21
597.663
  0
LINE
  8
0
 10
121.674
 20
597.663
 11
121.743
 21
597.448
  0
LINE
  8
0
 10
121.743
 20
597.448
 11
121.786
 21
597.226
  0
LINE
  8
0
 10
121.786
 20
597.226
 11
121.8
 21
597
  0
LINE
  8
0
 10
121.8
 20
597
 11
121.786
 21
596.774
  0
LINE
  8
0
 10
121.786
 20
596.774
 11
121.743
 21
596.552
  0
LINE
  8
0
 10
121.743
 20
596.552
 11
121.674
 21
596.337
  0
LINE
  8
0
 10
121.674
 20
596.337
 11
121.577
 21
596.133
  0
LINE
  8
0
 10
121.577
 20
596.133
 11
121.456
 21
595.942
  0
LINE
  8
0
 10
121.456
 20
595.942
 11
121.312
 21
595.768
  0
LINE
  8
0
 10
121.312
 20
595.768
 11
121.147
 21
595.613
  0
LINE
  8
0
 10
121.147
 20
595.613
 11
120.964
 21
595.48
  0
LINE
  8
0
 10
120.964
 20
595.48
 11
120.766
 21
595.371
  0
LINE
  8
0
 10
120.766
 20
595.371
 11
120.556
 21
595.288
  0
LINE
  8
0
 10
120.556
 20
595.288
 11
120.337
 21
595.232
  0
LINE
  8
0
 10
120.337
 20
595.232
 11
120.113
 21
595.204
  0
LINE
  8
0
 10
120.113
 20
595.204
 11
119.887
 21
595.204
  0
ENDSEC
  0
SECTION
  2
OBJECTS
  0
DICTIONARY
  0
ENDSEC
  0
EOF
