<?xml version="1.0" standalone="no"?>
<!DOCTYPE svg PUBLIC "-//W3C//DTD SVG 1.1//EN" "http://www.w3.org/Graphics/SVG/1.1/DTD/svg11.dtd">
<svg width="256mm" height="928mm" viewBox="-128 -1517 256 928" xmlns="http://www.w3.org/2000/svg" version="1.1">
<title>OpenSCAD Model</title>
<path d="
M 123.437,-1291.59 L 124.045,-1291.74 L 124.629,-1291.98 L 125.179,-1292.28 L 125.687,-1292.65 L 126.145,-1293.08
 L 126.545,-1293.56 L 126.882,-1294.09 L 127.149,-1294.66 L 127.343,-1295.26 L 127.461,-1295.87 L 127.5,-1296.5
 L 127.5,-1511.5 L 127.461,-1512.13 L 127.343,-1512.74 L 127.149,-1513.34 L 126.882,-1513.91 L 126.545,-1514.44
 L 126.145,-1514.92 L 125.687,-1515.35 L 125.179,-1515.72 L 124.629,-1516.02 L 124.045,-1516.26 L 123.437,-1516.41
 L 122.814,-1516.49 L -122.814,-1516.49 L -123.437,-1516.41 L -124.045,-1516.26 L -124.629,-1516.02 L -125.179,-1515.72
 L -125.687,-1515.35 L -126.145,-1514.92 L -126.545,-1514.44 L -126.882,-1513.91 L -127.149,-1513.34 L -127.343,-1512.74
 L -127.461,-1512.13 L -127.5,-1511.5 L -127.5,-1296.5 L -127.461,-1295.87 L -127.343,-1295.26 L -127.149,-1294.66
 L -126.882,-1294.09 L -126.545,-1293.56 L -126.145,-1293.08 L -125.687,-1292.65 L -125.179,-1292.28 L -124.629,-1291.98
 L -124.045,-1291.74 L -123.437,-1291.59 L -122.814,-1291.51 L 122.814,-1291.51 z
M -122.548,-1292.01 L -123.14,-1292.08 L -123.718,-1292.23 L -124.272,-1292.45 L -124.795,-1292.74 L -125.278,-1293.09
 L -125.713,-1293.5 L -126.093,-1293.96 L -126.412,-1294.46 L -126.666,-1295 L -126.851,-1295.57 L -126.963,-1296.15
 L -127,-1296.75 L -127,-1511.25 L -126.963,-1511.85 L -126.851,-1512.43 L -126.666,-1513 L -126.412,-1513.54
 L -126.093,-1514.04 L -125.713,-1514.5 L -125.278,-1514.91 L -124.795,-1515.26 L -124.272,-1515.55 L -123.718,-1515.77
 L -123.14,-1515.92 L -122.548,-1515.99 L 122.548,-1515.99 L 123.14,-1515.92 L 123.718,-1515.77 L 124.272,-1515.55
 L 124.795,-1515.26 L 125.278,-1514.91 L 125.713,-1514.5 L 126.093,-1514.04 L 126.412,-1513.54 L 126.666,-1513
 L 126.851,-1512.43 L 126.963,-1511.85 L 127,-1511.25 L 127,-1296.75 L 126.963,-1296.15 L 126.851,-1295.57
 L 126.666,-1295 L 126.412,-1294.46 L 126.093,-1293.96 L 125.713,-1293.5 L 125.278,-1293.09 L 124.795,-1292.74
 L 124.272,-1292.45 L 123.718,-1292.23 L 123.14,-1292.08 L 122.548,-1292.01 z
M 123.437,-1057.59 L 124.045,-1057.74 L 124.629,-1057.98 L 125.179,-1058.28 L 125.687,-1058.65 L 126.145,-1059.08
 L 126.545,-1059.56 L 126.882,-1060.09 L 127.149,-1060.66 L 127.343,-1061.26 L 127.461,-1061.87 L 127.5,-1062.5
 L 127.5,-1277.5 L 127.461,-1278.13 L 127.343,-1278.74 L 127.149,-1279.34 L 126.882,-1279.91 L 126.545,-1280.44
 L 126.145,-1280.92 L 125.687,-1281.35 L 125.179,-1281.72 L 124.629,-1282.02 L 124.045,-1282.26 L 123.437,-1282.41
 L 122.814,-1282.49 L -122.814,-1282.49 L -123.437,-1282.41 L -124.045,-1282.26 L -124.629,-1282.02 L -125.179,-1281.72
 L -125.687,-1281.35 L -126.145,-1280.92 L -126.545,-1280.44 L -126.882,-1279.91 L -127.149,-1279.34 L -127.343,-1278.74
 L -127.461,-1278.13 L -127.5,-1277.5 L -127.5,-1062.5 L -127.461,-1061.87 L -127.343,-1061.26 L -127.149,-1060.66
 L -126.882,-1060.09 L -126.545,-1059.56 L -126.145,-1059.08 L -125.687,-1058.65 L -125.179,-1058.28 L -124.629,-1057.98
 L -124.045,-1057.74 L -123.437,-1057.59 L -122.814,-1057.51 L 122.814,-1057.51 z
M -122.548,-1058.01 L -123.14,-1058.08 L -123.718,-1058.23 L -124.272,-1058.45 L -124.795,-1058.74 L -125.278,-1059.09
 L -125.713,-1059.5 L -126.093,-1059.96 L -126.412,-1060.46 L -126.666,-1061 L -126.851,-1061.57 L -126.963,-1062.15
 L -127,-1062.75 L -127,-1277.25 L -126.963,-1277.85 L -126.851,-1278.43 L -126.666,-1279 L -126.412,-1279.54
 L -126.093,-1280.04 L -125.713,-1280.5 L -125.278,-1280.91 L -124.795,-1281.26 L -124.272,-1281.55 L -123.718,-1281.77
 L -123.14,-1281.92 L -122.548,-1281.99 L 122.548,-1281.99 L 123.14,-1281.92 L 123.718,-1281.77 L 124.272,-1281.55
 L 124.795,-1281.26 L 125.278,-1280.91 L 125.713,-1280.5 L 126.093,-1280.04 L 126.412,-1279.54 L 126.666,-1279
 L 126.851,-1278.43 L 126.963,-1277.85 L 127,-1277.25 L 127,-1062.75 L 126.963,-1062.15 L 126.851,-1061.57
 L 126.666,-1061 L 126.412,-1060.46 L 126.093,-1059.96 L 125.713,-1059.5 L 125.278,-1059.09 L 124.795,-1058.74
 L 124.272,-1058.45 L 123.718,-1058.23 L 123.14,-1058.08 L 122.548,-1058.01 z
M 123.437,-823.589 L 124.045,-823.745 L 124.629,-823.976 L 125.179,-824.278 L 125.687,-824.647 L 126.145,-825.077
 L 126.545,-825.561 L 126.882,-826.091 L 127.149,-826.659 L 127.343,-827.257 L 127.461,-827.873 L 127.5,-828.5
 L 127.5,-1043.5 L 127.461,-1044.13 L 127.343,-1044.74 L 127.149,-1045.34 L 126.882,-1045.91 L 126.545,-1046.44
 L 126.145,-1046.92 L 125.687,-1047.35 L 125.179,-1047.72 L 124.629,-1048.02 L 124.045,-1048.26 L 123.437,-1048.41
 L 122.814,-1048.49 L -122.814,-1048.49 L -123.437,-1048.41 L -124.045,-1048.26 L -124.629,-1048.02 L -125.179,-1047.72
 L -125.687,-1047.35 L -126.145,-1046.92 L -126.545,-1046.44 L -126.882,-1045.91 L -127.149,-1045.34 L -127.343,-1044.74
 L -127.461,-1044.13 L -127.5,-1043.5 L -127.5,-828.5 L -127.461,-827.873 L -127.343,-827.257 L -127.149,-826.659
 L -126.882,-826.091 L -126.545,-825.561 L -126.145,-825.077 L -125.687,-824.647 L -125.179,-824.278 L -124.629,-823.976
 L -124.045,-823.745 L -123.437,-823.589 L -122.814,-823.51 L 122.814,-823.51 z
M -122.493,-824.888 L -122.975,-824.949 L -123.446,-825.07 L -123.898,-825.249 L -124.323,-825.483 L -124.716,-825.769
 L -125.071,-826.101 L -125.38,-826.476 L -125.641,-826.886 L -125.848,-827.326 L -125.998,-827.788 L -126.089,-828.265
 L -126.119,-828.75 L -126.119,-1043.25 L -126.089,-1043.73 L -125.998,-1044.21 L -125.848,-1044.67 L -125.641,-1045.11
 L -125.38,-1045.52 L -125.071,-1045.9 L -124.716,-1046.23 L -124.323,-1046.52 L -123.898,-1046.75 L -123.446,-1046.93
 L -122.975,-1047.05 L -122.493,-1047.11 L 122.493,-1047.11 L 122.975,-1047.05 L 123.446,-1046.93 L 123.898,-1046.75
 L 124.323,-1046.52 L 124.716,-1046.23 L 125.071,-1045.9 L 125.38,-1045.52 L 125.641,-1045.11 L 125.848,-1044.67
 L 125.998,-1044.21 L 126.089,-1043.73 L 126.119,-1043.25 L 126.119,-828.75 L 126.089,-828.265 L 125.998,-827.788
 L 125.848,-827.326 L 125.641,-826.886 L 125.38,-826.476 L 125.071,-826.101 L 124.716,-825.769 L 124.323,-825.483
 L 123.898,-825.249 L 123.446,-825.07 L 122.975,-824.949 L 122.493,-824.888 z
M 123.437,-589.589 L 124.045,-589.745 L 124.629,-589.976 L 125.179,-590.278 L 125.687,-590.647 L 126.145,-591.077
 L 126.545,-591.561 L 126.882,-592.091 L 127.149,-592.659 L 127.343,-593.257 L 127.461,-593.873 L 127.5,-594.5
 L 127.5,-809.5 L 127.461,-810.127 L 127.343,-810.743 L 127.149,-811.341 L 126.882,-811.909 L 126.545,-812.439
 L 126.145,-812.923 L 125.687,-813.353 L 125.179,-813.722 L 124.629,-814.024 L 124.045,-814.255 L 123.437,-814.411
 L 122.814,-814.49 L -122.814,-814.49 L -123.437,-814.411 L -124.045,-814.255 L -124.629,-814.024 L -125.179,-813.722
 L -125.687,-813.353 L -126.145,-812.923 L -126.545,-812.439 L -126.882,-811.909 L -127.149,-811.341 L -127.343,-810.743
 L -127.461,-810.127 L -127.5,-809.5 L -127.5,-594.5 L -127.461,-593.873 L -127.343,-593.257 L -127.149,-592.659
 L -126.882,-592.091 L -126.545,-591.561 L -126.145,-591.077 L -125.687,-590.647 L -125.179,-590.278 L -124.629,-589.976
 L -124.045,-589.745 L -123.437,-589.589 L -122.814,-589.51 L 122.814,-589.51 z
M 119.887,-805.204 L 119.663,-805.232 L 119.444,-805.288 L 119.234,-805.371 L 119.036,-805.48 L 118.853,-805.613
 L 118.688,-805.768 L 118.544,-805.942 L 118.423,-806.133 L 118.326,-806.337 L 118.257,-806.552 L 118.214,-806.774
 L 118.2,-807 L 118.214,-807.226 L 118.257,-807.448 L 118.326,-807.663 L 118.423,-807.867 L 118.544,-808.058
 L 118.688,-808.232 L 118.853,-808.387 L 119.036,-808.52 L 119.234,-808.629 L 119.444,-808.712 L 119.663,-808.768
 L 119.887,-808.796 L 120.113,-808.796 L 120.337,-808.768 L 120.556,-808.712 L 120.766,-808.629 L 120.964,-808.52
 L 121.147,-808.387 L 121.312,-808.232 L 121.456,-808.058 L 121.577,-807.867 L 121.674,-807.663 L 121.743,-807.448
 L 121.786,-807.226 L 121.8,-807 L 121.786,-806.774 L 121.743,-806.552 L 121.674,-806.337 L 121.577,-806.133
 L 121.456,-805.942 L 121.312,-805.768 L 121.147,-805.613 L 120.964,-805.48 L 120.766,-805.371 L 120.556,-805.288
 L 120.337,-805.232 L 120.113,-805.204 z
M -120.113,-805.204 L -120.337,-805.232 L -120.556,-805.288 L -120.766,-805.371 L -120.964,-805.48 L -121.147,-805.613
 L -121.312,-805.768 L -121.456,-805.942 L -121.577,-806.133 L -121.674,-806.337 L -121.743,-806.552 L -121.786,-806.774
 L -121.8,-807 L -121.786,-807.226 L -121.743,-807.448 L -121.674,-807.663 L -121.577,-807.867 L -121.456,-808.058
 L -121.312,-808.232 L -121.147,-808.387 L -120.964,-808.52 L -120.766,-808.629 L -120.556,-808.712 L -120.337,-808.768
 L -120.113,-808.796 L -119.887,-808.796 L -119.663,-808.768 L -119.444,-808.712 L -119.234,-808.629 L -119.036,-808.52
 L -118.853,-808.387 L -118.688,-808.232 L -118.544,-808.058 L -118.423,-807.867 L -118.326,-807.663 L -118.257,-807.448
 L -118.214,-807.226 L -118.2,-807 L -118.214,-806.774 L -118.257,-806.552 L -118.326,-806.337 L -118.423,-806.133
 L -118.544,-805.942 L -118.688,-805.768 L -118.853,-805.613 L -119.036,-805.48 L -119.234,-805.371 L -119.444,-805.288
 L -119.663,-805.232 L -119.887,-805.204 z
M -120.113,-595.204 L -120.337,-595.232 L -120.556,-595.288 L -120.766,-595.371 L -120.964,-595.48 L -121.147,-595.613
 L -121.312,-595.768 L -121.456,-595.942 L -121.577,-596.133 L -121.674,-596.337 L -121.743,-596.552 L -121.786,-596.774
 L -121.8,-597 L -121.786,-597.226 L -121.743,-597.448 L -121.674,-597.663 L -121.577,-597.867 L -121.456,-598.058
 L -121.312,-598.232 L -121.147,-598.387 L -120.964,-598.52 L -120.766,-598.629 L -120.556,-598.712 L -120.337,-598.768
 L -120.113,-598.796 L -119.887,-598.796 L -119.663,-598.768 L -119.444,-598.712 L -119.234,-598.629 L -119.036,-598.52
 L -118.853,-598.387 L -118.688,-598.232 L -118.544,-598.058 L -118.423,-597.867 L -118.326,-597.663 L -118.257,-597.448
 L -118.214,-597.226 L -118.2,-597 L -118.214,-596.774 L -118.257,-596.552 L -118.326,-596.337 L -118.423,-596.133
 L -118.544,-595.942 L -118.688,-595.768 L -118.853,-595.613 L -119.036,-595.48 L -119.234,-595.371 L -119.444,-595.288
 L -119.663,-595.232 L -119.887,-595.204 z
M 119.887,-595.204 L 119.663,-595.232 L 119.444,-595.288 L 119.234,-595.371 L 119.036,-595.48 L 118.853,-595.613
 L 118.688,-595.768 L 118.544,-595.942 L 118.423,-596.133 L 118.326,-596.337 L 118.257,-596.552 L 118.214,-596.774
 L 118.2,-597 L 118.214,-597.226 L 118.257,-597.448 L 118.326,-597.663 L 118.423,-597.867 L 118.544,-598.058
 L 118.688,-598.232 L 118.853,-598.387 L 119.036,-598.52 L 119.234,-598.629 L 119.444,-598.712 L 119.663,-598.768
 L 119.887,-598.796 L 120.113,-598.796 L 120.337,-598.768 L 120.556,-598.712 L 120.766,-598.629 L 120.964,-598.52
 L 121.147,-598.387 L 121.312,-598.232 L 121.456,-598.058 L 121.577,-597.867 L 121.674,-597.663 L 121.743,-597.448
 L 121.786,-597.226 L 121.8,-597 L 121.786,-596.774 L 121.743,-596.552 L 121.674,-596.337 L 121.577,-596.133
 L 121.456,-595.942 L 121.312,-595.768 L 121.147,-595.613 L 120.964,-595.48 L 120.766,-595.371 L 120.556,-595.288
 L 120.337,-595.232 L 120.113,-595.204 z
" stroke="black" fill="lightgray" stroke-width="0.5"/>
</svg>
