<?xml version="1.0" standalone="no"?>
<!DOCTYPE svg PUBLIC "-//W3C//DTD SVG 1.1//EN" "http://www.w3.org/Graphics/SVG/1.1/DTD/svg11.dtd">
<svg width="270mm" height="609mm" viewBox="-135 -768 270 609" xmlns="http://www.w3.org/2000/svg" version="1.1">
<title>OpenSCAD Model</title>
<path d="
M 130.937,-468.089 L 131.545,-468.245 L 132.129,-468.476 L 132.679,-468.778 L 133.187,-469.147 L 133.645,-469.577
 L 134.045,-470.061 L 134.382,-470.591 L 134.649,-471.159 L 134.843,-471.757 L 134.961,-472.373 L 135,-473
 L 135,-763 L 134.961,-763.627 L 134.843,-764.243 L 134.649,-764.841 L 134.382,-765.409 L 134.045,-765.939
 L 133.645,-766.423 L 133.187,-766.853 L 132.679,-767.222 L 132.129,-767.524 L 131.545,-767.755 L 130.937,-767.911
 L 130.314,-767.99 L -130.314,-767.99 L -130.937,-767.911 L -131.545,-767.755 L -132.129,-767.524 L -132.679,-767.222
 L -133.187,-766.853 L -133.645,-766.423 L -134.045,-765.939 L -134.382,-765.409 L -134.649,-764.841 L -134.843,-764.243
 L -134.961,-763.627 L -135,-763 L -135,-473 L -134.961,-472.373 L -134.843,-471.757 L -134.649,-471.159
 L -134.382,-470.591 L -134.045,-470.061 L -133.645,-469.577 L -133.187,-469.147 L -132.679,-468.778 L -132.129,-468.476
 L -131.545,-468.245 L -130.937,-468.089 L -130.314,-468.01 L 130.314,-468.01 z
M 127.349,-758.105 L 127.05,-758.143 L 126.758,-758.217 L 126.478,-758.328 L 126.214,-758.474 L 125.97,-758.651
 L 125.75,-758.857 L 125.558,-759.089 L 125.397,-759.344 L 125.269,-759.617 L 125.175,-759.903 L 125.119,-760.199
 L 125.1,-760.5 L 125.119,-760.801 L 125.175,-761.097 L 125.269,-761.383 L 125.397,-761.656 L 125.558,-761.911
 L 125.75,-762.143 L 125.97,-762.349 L 126.214,-762.526 L 126.478,-762.672 L 126.758,-762.783 L 127.05,-762.857
 L 127.349,-762.895 L 127.651,-762.895 L 127.95,-762.857 L 128.242,-762.783 L 128.522,-762.672 L 128.786,-762.526
 L 129.03,-762.349 L 129.25,-762.143 L 129.442,-761.911 L 129.603,-761.656 L 129.731,-761.383 L 129.825,-761.097
 L 129.881,-760.801 L 129.9,-760.5 L 129.881,-760.199 L 129.825,-759.903 L 129.731,-759.617 L 129.603,-759.344
 L 129.442,-759.089 L 129.25,-758.857 L 129.03,-758.651 L 128.786,-758.474 L 128.522,-758.328 L 128.242,-758.217
 L 127.95,-758.143 L 127.651,-758.105 z
M -127.651,-758.105 L -127.95,-758.143 L -128.242,-758.217 L -128.522,-758.328 L -128.786,-758.474 L -129.03,-758.651
 L -129.25,-758.857 L -129.442,-759.089 L -129.603,-759.344 L -129.731,-759.617 L -129.825,-759.903 L -129.881,-760.199
 L -129.9,-760.5 L -129.881,-760.801 L -129.825,-761.097 L -129.731,-761.383 L -129.603,-761.656 L -129.442,-761.911
 L -129.25,-762.143 L -129.03,-762.349 L -128.786,-762.526 L -128.522,-762.672 L -128.242,-762.783 L -127.95,-762.857
 L -127.651,-762.895 L -127.349,-762.895 L -127.05,-762.857 L -126.758,-762.783 L -126.478,-762.672 L -126.214,-762.526
 L -125.97,-762.349 L -125.75,-762.143 L -125.558,-761.911 L -125.397,-761.656 L -125.269,-761.383 L -125.175,-761.097
 L -125.119,-760.801 L -125.1,-760.5 L -125.119,-760.199 L -125.175,-759.903 L -125.269,-759.617 L -125.397,-759.344
 L -125.558,-759.089 L -125.75,-758.857 L -125.97,-758.651 L -126.214,-758.474 L -126.478,-758.328 L -126.758,-758.217
 L -127.05,-758.143 L -127.349,-758.105 z
M 127.349,-473.105 L 127.05,-473.143 L 126.758,-473.217 L 126.478,-473.328 L 126.214,-473.474 L 125.97,-473.651
 L 125.75,-473.857 L 125.558,-474.089 L 125.397,-474.344 L 125.269,-474.617 L 125.175,-474.903 L 125.119,-475.199
 L 125.1,-475.5 L 125.119,-475.801 L 125.175,-476.097 L 125.269,-476.383 L 125.397,-476.656 L 125.558,-476.911
 L 125.75,-477.143 L 125.97,-477.349 L 126.214,-477.526 L 126.478,-477.672 L 126.758,-477.783 L 127.05,-477.857
 L 127.349,-477.895 L 127.651,-477.895 L 127.95,-477.857 L 128.242,-477.783 L 128.522,-477.672 L 128.786,-477.526
 L 129.03,-477.349 L 129.25,-477.143 L 129.442,-476.911 L 129.603,-476.656 L 129.731,-476.383 L 129.825,-476.097
 L 129.881,-475.801 L 129.9,-475.5 L 129.881,-475.199 L 129.825,-474.903 L 129.731,-474.617 L 129.603,-474.344
 L 129.442,-474.089 L 129.25,-473.857 L 129.03,-473.651 L 128.786,-473.474 L 128.522,-473.328 L 128.242,-473.217
 L 127.95,-473.143 L 127.651,-473.105 z
M -127.651,-473.105 L -127.95,-473.143 L -128.242,-473.217 L -128.522,-473.328 L -128.786,-473.474 L -129.03,-473.651
 L -129.25,-473.857 L -129.442,-474.089 L -129.603,-474.344 L -129.731,-474.617 L -129.825,-474.903 L -129.881,-475.199
 L -129.9,-475.5 L -129.881,-475.801 L -129.825,-476.097 L -129.731,-476.383 L -129.603,-476.656 L -129.442,-476.911
 L -129.25,-477.143 L -129.03,-477.349 L -128.786,-477.526 L -128.522,-477.672 L -128.242,-477.783 L -127.95,-477.857
 L -127.651,-477.895 L -127.349,-477.895 L -127.05,-477.857 L -126.758,-477.783 L -126.478,-477.672 L -126.214,-477.526
 L -125.97,-477.349 L -125.75,-477.143 L -125.558,-476.911 L -125.397,-476.656 L -125.269,-476.383 L -125.175,-476.097
 L -125.119,-475.801 L -125.1,-475.5 L -125.119,-475.199 L -125.175,-474.903 L -125.269,-474.617 L -125.397,-474.344
 L -125.558,-474.089 L -125.75,-473.857 L -125.97,-473.651 L -126.214,-473.474 L -126.478,-473.328 L -126.758,-473.217
 L -127.05,-473.143 L -127.349,-473.105 z
M 130.937,-159.089 L 131.545,-159.245 L 132.129,-159.476 L 132.679,-159.778 L 133.187,-160.147 L 133.645,-160.577
 L 134.045,-161.061 L 134.382,-161.591 L 134.649,-162.159 L 134.843,-162.757 L 134.961,-163.373 L 135,-164
 L 135,-454 L 134.961,-454.627 L 134.843,-455.243 L 134.649,-455.841 L 134.382,-456.409 L 134.045,-456.939
 L 133.645,-457.423 L 133.187,-457.853 L 132.679,-458.222 L 132.129,-458.524 L 131.545,-458.755 L 130.937,-458.911
 L 130.314,-458.99 L -130.314,-458.99 L -130.937,-458.911 L -131.545,-458.755 L -132.129,-458.524 L -132.679,-458.222
 L -133.187,-457.853 L -133.645,-457.423 L -134.045,-456.939 L -134.382,-456.409 L -134.649,-455.841 L -134.843,-455.243
 L -134.961,-454.627 L -135,-454 L -135,-164 L -134.961,-163.373 L -134.843,-162.757 L -134.649,-162.159
 L -134.382,-161.591 L -134.045,-161.061 L -133.645,-160.577 L -133.187,-160.147 L -132.679,-159.778 L -132.129,-159.476
 L -131.545,-159.245 L -130.937,-159.089 L -130.314,-159.01 L 130.314,-159.01 z
M 127.387,-449.704 L 127.163,-449.732 L 126.944,-449.788 L 126.734,-449.871 L 126.536,-449.98 L 126.353,-450.113
 L 126.188,-450.268 L 126.044,-450.442 L 125.923,-450.633 L 125.826,-450.837 L 125.757,-451.052 L 125.714,-451.274
 L 125.7,-451.5 L 125.714,-451.726 L 125.757,-451.948 L 125.826,-452.163 L 125.923,-452.367 L 126.044,-452.558
 L 126.188,-452.732 L 126.353,-452.887 L 126.536,-453.02 L 126.734,-453.129 L 126.944,-453.212 L 127.163,-453.268
 L 127.387,-453.296 L 127.613,-453.296 L 127.837,-453.268 L 128.056,-453.212 L 128.266,-453.129 L 128.464,-453.02
 L 128.647,-452.887 L 128.812,-452.732 L 128.956,-452.558 L 129.077,-452.367 L 129.174,-452.163 L 129.243,-451.948
 L 129.286,-451.726 L 129.3,-451.5 L 129.286,-451.274 L 129.243,-451.052 L 129.174,-450.837 L 129.077,-450.633
 L 128.956,-450.442 L 128.812,-450.268 L 128.647,-450.113 L 128.464,-449.98 L 128.266,-449.871 L 128.056,-449.788
 L 127.837,-449.732 L 127.613,-449.704 z
M -127.613,-449.704 L -127.837,-449.732 L -128.056,-449.788 L -128.266,-449.871 L -128.464,-449.98 L -128.647,-450.113
 L -128.812,-450.268 L -128.956,-450.442 L -129.077,-450.633 L -129.174,-450.837 L -129.243,-451.052 L -129.286,-451.274
 L -129.3,-451.5 L -129.286,-451.726 L -129.243,-451.948 L -129.174,-452.163 L -129.077,-452.367 L -128.956,-452.558
 L -128.812,-452.732 L -128.647,-452.887 L -128.464,-453.02 L -128.266,-453.129 L -128.056,-453.212 L -127.837,-453.268
 L -127.613,-453.296 L -127.387,-453.296 L -127.163,-453.268 L -126.944,-453.212 L -126.734,-453.129 L -126.536,-453.02
 L -126.353,-452.887 L -126.188,-452.732 L -126.044,-452.558 L -125.923,-452.367 L -125.826,-452.163 L -125.757,-451.948
 L -125.714,-451.726 L -125.7,-451.5 L -125.714,-451.274 L -125.757,-451.052 L -125.826,-450.837 L -125.923,-450.633
 L -126.044,-450.442 L -126.188,-450.268 L -126.353,-450.113 L -126.536,-449.98 L -126.734,-449.871 L -126.944,-449.788
 L -127.163,-449.732 L -127.387,-449.704 z
M -127.613,-164.704 L -127.837,-164.732 L -128.056,-164.788 L -128.266,-164.871 L -128.464,-164.98 L -128.647,-165.113
 L -128.812,-165.268 L -128.956,-165.442 L -129.077,-165.633 L -129.174,-165.837 L -129.243,-166.052 L -129.286,-166.274
 L -129.3,-166.5 L -129.286,-166.726 L -129.243,-166.948 L -129.174,-167.163 L -129.077,-167.367 L -128.956,-167.558
 L -128.812,-167.732 L -128.647,-167.887 L -128.464,-168.02 L -128.266,-168.129 L -128.056,-168.212 L -127.837,-168.268
 L -127.613,-168.296 L -127.387,-168.296 L -127.163,-168.268 L -126.944,-168.212 L -126.734,-168.129 L -126.536,-168.02
 L -126.353,-167.887 L -126.188,-167.732 L -126.044,-167.558 L -125.923,-167.367 L -125.826,-167.163 L -125.757,-166.948
 L -125.714,-166.726 L -125.7,-166.5 L -125.714,-166.274 L -125.757,-166.052 L -125.826,-165.837 L -125.923,-165.633
 L -126.044,-165.442 L -126.188,-165.268 L -126.353,-165.113 L -126.536,-164.98 L -126.734,-164.871 L -126.944,-164.788
 L -127.163,-164.732 L -127.387,-164.704 z
M 127.387,-164.704 L 127.163,-164.732 L 126.944,-164.788 L 126.734,-164.871 L 126.536,-164.98 L 126.353,-165.113
 L 126.188,-165.268 L 126.044,-165.442 L 125.923,-165.633 L 125.826,-165.837 L 125.757,-166.052 L 125.714,-166.274
 L 125.7,-166.5 L 125.714,-166.726 L 125.757,-166.948 L 125.826,-167.163 L 125.923,-167.367 L 126.044,-167.558
 L 126.188,-167.732 L 126.353,-167.887 L 126.536,-168.02 L 126.734,-168.129 L 126.944,-168.212 L 127.163,-168.268
 L 127.387,-168.296 L 127.613,-168.296 L 127.837,-168.268 L 128.056,-168.212 L 128.266,-168.129 L 128.464,-168.02
 L 128.647,-167.887 L 128.812,-167.732 L 128.956,-167.558 L 129.077,-167.367 L 129.174,-167.163 L 129.243,-166.948
 L 129.286,-166.726 L 129.3,-166.5 L 129.286,-166.274 L 129.243,-166.052 L 129.174,-165.837 L 129.077,-165.633
 L 128.956,-165.442 L 128.812,-165.268 L 128.647,-165.113 L 128.464,-164.98 L 128.266,-164.871 L 128.056,-164.788
 L 127.837,-164.732 L 127.613,-164.704 z
" stroke="black" fill="lightgray" stroke-width="0.5"/>
</svg>
