<?xml version="1.0" standalone="no"?>
<!DOCTYPE svg PUBLIC "-//W3C//DTD SVG 1.1//EN" "http://www.w3.org/Graphics/SVG/1.1/DTD/svg11.dtd">
<svg width="272mm" height="549mm" viewBox="-137 -972 272 549" xmlns="http://www.w3.org/2000/svg" version="1.1">
<title>OpenSCAD Model</title>
<path d="
M 130.937,-702.089 L 131.545,-702.245 L 132.129,-702.476 L 132.679,-702.778 L 133.187,-703.147 L 133.645,-703.577
 L 134.045,-704.061 L 134.382,-704.591 L 134.649,-705.159 L 134.843,-705.757 L 134.961,-706.373 L 135,-707
 L 135,-967 L 134.961,-967.627 L 134.843,-968.243 L 134.649,-968.841 L 134.382,-969.409 L 134.045,-969.939
 L 133.645,-970.423 L 133.187,-970.853 L 132.679,-971.222 L 132.129,-971.524 L 131.545,-971.755 L 130.937,-971.911
 L 130.314,-971.99 L -130.314,-971.99 L -130.937,-971.911 L -131.545,-971.755 L -132.129,-971.524 L -132.679,-971.222
 L -133.187,-970.853 L -133.5,-970.559 L -133.5,-971.979 L -136.5,-971.979 L -136.5,-702.021 L -133.5,-702.021
 L -133.5,-703.441 L -133.187,-703.147 L -132.679,-702.778 L -132.129,-702.476 L -131.545,-702.245 L -130.937,-702.089
 L -130.314,-702.01 L 130.314,-702.01 z
M -129.695,-704.393 L -130.083,-704.442 L -130.462,-704.539 L -130.825,-704.683 L -131.168,-704.872 L -131.484,-705.101
 L -131.769,-705.369 L -132.018,-705.67 L -132.228,-706 L -132.394,-706.354 L -132.515,-706.726 L -132.588,-707.11
 L -132.613,-707.5 L -132.613,-966.5 L -132.588,-966.89 L -132.515,-967.274 L -132.394,-967.646 L -132.228,-968
 L -132.018,-968.33 L -131.769,-968.631 L -131.484,-968.899 L -131.168,-969.128 L -130.825,-969.317 L -130.462,-969.461
 L -130.083,-969.558 L -129.695,-969.607 L 129.695,-969.607 L 130.083,-969.558 L 130.462,-969.461 L 130.825,-969.317
 L 131.168,-969.128 L 131.484,-968.899 L 131.769,-968.631 L 132.018,-968.33 L 132.228,-968 L 132.394,-967.646
 L 132.515,-967.274 L 132.588,-966.89 L 132.613,-966.5 L 132.613,-707.5 L 132.588,-707.11 L 132.515,-706.726
 L 132.394,-706.354 L 132.228,-706 L 132.018,-705.67 L 131.769,-705.369 L 131.484,-705.101 L 131.168,-704.872
 L 130.825,-704.683 L 130.462,-704.539 L 130.083,-704.442 L 129.695,-704.393 z
M 130.937,-423.089 L 131.545,-423.245 L 132.129,-423.476 L 132.679,-423.778 L 133.187,-424.147 L 133.645,-424.577
 L 134.045,-425.061 L 134.382,-425.591 L 134.649,-426.159 L 134.843,-426.757 L 134.961,-427.373 L 135,-428
 L 135,-688 L 134.961,-688.627 L 134.843,-689.243 L 134.649,-689.841 L 134.382,-690.409 L 134.045,-690.939
 L 133.645,-691.423 L 133.187,-691.853 L 132.679,-692.222 L 132.129,-692.524 L 131.545,-692.755 L 130.937,-692.911
 L 130.314,-692.99 L -130.314,-692.99 L -130.937,-692.911 L -131.545,-692.755 L -132.129,-692.524 L -132.679,-692.222
 L -133.187,-691.853 L -133.5,-691.559 L -133.5,-691.653 L -136.5,-691.653 L -136.5,-424.347 L -133.5,-424.347
 L -133.5,-424.441 L -133.187,-424.147 L -132.679,-423.778 L -132.129,-423.476 L -131.545,-423.245 L -130.937,-423.089
 L -130.314,-423.01 L 130.314,-423.01 z
M 127.366,-683.369 L 127.1,-683.403 L 126.84,-683.469 L 126.591,-683.568 L 126.356,-683.697 L 126.139,-683.855
 L 125.943,-684.038 L 125.773,-684.245 L 125.629,-684.471 L 125.515,-684.714 L 125.432,-684.969 L 125.382,-685.232
 L 125.365,-685.5 L 125.382,-685.768 L 125.432,-686.031 L 125.515,-686.286 L 125.629,-686.529 L 125.773,-686.755
 L 125.943,-686.962 L 126.139,-687.145 L 126.356,-687.303 L 126.591,-687.432 L 126.84,-687.531 L 127.1,-687.597
 L 127.366,-687.631 L 127.634,-687.631 L 127.9,-687.597 L 128.16,-687.531 L 128.409,-687.432 L 128.644,-687.303
 L 128.861,-687.145 L 129.057,-686.962 L 129.227,-686.755 L 129.371,-686.529 L 129.485,-686.286 L 129.568,-686.031
 L 129.618,-685.768 L 129.635,-685.5 L 129.618,-685.232 L 129.568,-684.969 L 129.485,-684.714 L 129.371,-684.471
 L 129.227,-684.245 L 129.057,-684.038 L 128.861,-683.855 L 128.644,-683.697 L 128.409,-683.568 L 128.16,-683.469
 L 127.9,-683.403 L 127.634,-683.369 z
M -127.634,-683.369 L -127.9,-683.403 L -128.16,-683.469 L -128.409,-683.568 L -128.644,-683.697 L -128.861,-683.855
 L -129.057,-684.038 L -129.227,-684.245 L -129.371,-684.471 L -129.485,-684.714 L -129.568,-684.969 L -129.618,-685.232
 L -129.635,-685.5 L -129.618,-685.768 L -129.568,-686.031 L -129.485,-686.286 L -129.371,-686.529 L -129.227,-686.755
 L -129.057,-686.962 L -128.861,-687.145 L -128.644,-687.303 L -128.409,-687.432 L -128.16,-687.531 L -127.9,-687.597
 L -127.634,-687.631 L -127.366,-687.631 L -127.1,-687.597 L -126.84,-687.531 L -126.591,-687.432 L -126.356,-687.303
 L -126.139,-687.145 L -125.943,-686.962 L -125.773,-686.755 L -125.629,-686.529 L -125.515,-686.286 L -125.432,-686.031
 L -125.382,-685.768 L -125.365,-685.5 L -125.382,-685.232 L -125.432,-684.969 L -125.515,-684.714 L -125.629,-684.471
 L -125.773,-684.245 L -125.943,-684.038 L -126.139,-683.855 L -126.356,-683.697 L -126.591,-683.568 L -126.84,-683.469
 L -127.1,-683.403 L -127.366,-683.369 z
M 127.366,-428.369 L 127.1,-428.403 L 126.84,-428.469 L 126.591,-428.568 L 126.356,-428.697 L 126.139,-428.855
 L 125.943,-429.038 L 125.773,-429.245 L 125.629,-429.471 L 125.515,-429.714 L 125.432,-429.969 L 125.382,-430.232
 L 125.365,-430.5 L 125.382,-430.768 L 125.432,-431.031 L 125.515,-431.286 L 125.629,-431.529 L 125.773,-431.755
 L 125.943,-431.962 L 126.139,-432.145 L 126.356,-432.303 L 126.591,-432.432 L 126.84,-432.531 L 127.1,-432.597
 L 127.366,-432.631 L 127.634,-432.631 L 127.9,-432.597 L 128.16,-432.531 L 128.409,-432.432 L 128.644,-432.303
 L 128.861,-432.145 L 129.057,-431.962 L 129.227,-431.755 L 129.371,-431.529 L 129.485,-431.286 L 129.568,-431.031
 L 129.618,-430.768 L 129.635,-430.5 L 129.618,-430.232 L 129.568,-429.969 L 129.485,-429.714 L 129.371,-429.471
 L 129.227,-429.245 L 129.057,-429.038 L 128.861,-428.855 L 128.644,-428.697 L 128.409,-428.568 L 128.16,-428.469
 L 127.9,-428.403 L 127.634,-428.369 z
M -127.634,-428.369 L -127.9,-428.403 L -128.16,-428.469 L -128.409,-428.568 L -128.644,-428.697 L -128.861,-428.855
 L -129.057,-429.038 L -129.227,-429.245 L -129.371,-429.471 L -129.485,-429.714 L -129.568,-429.969 L -129.618,-430.232
 L -129.635,-430.5 L -129.618,-430.768 L -129.568,-431.031 L -129.485,-431.286 L -129.371,-431.529 L -129.227,-431.755
 L -129.057,-431.962 L -128.861,-432.145 L -128.644,-432.303 L -128.409,-432.432 L -128.16,-432.531 L -127.9,-432.597
 L -127.634,-432.631 L -127.366,-432.631 L -127.1,-432.597 L -126.84,-432.531 L -126.591,-432.432 L -126.356,-432.303
 L -126.139,-432.145 L -125.943,-431.962 L -125.773,-431.755 L -125.629,-431.529 L -125.515,-431.286 L -125.432,-431.031
 L -125.382,-430.768 L -125.365,-430.5 L -125.382,-430.232 L -125.432,-429.969 L -125.515,-429.714 L -125.629,-429.471
 L -125.773,-429.245 L -125.943,-429.038 L -126.139,-428.855 L -126.356,-428.697 L -126.591,-428.568 L -126.84,-428.469
 L -127.1,-428.403 L -127.366,-428.369 z
" stroke="black" fill="lightgray" stroke-width="0.5"/>
</svg>
