<?xml version="1.0" standalone="no"?>
<!DOCTYPE svg PUBLIC "-//W3C//DTD SVG 1.1//EN" "http://www.w3.org/Graphics/SVG/1.1/DTD/svg11.dtd">
<svg width="300mm" height="694mm" viewBox="-150 -1283 300 694" xmlns="http://www.w3.org/2000/svg" version="1.1">
<title>OpenSCAD Model</title>
<path d="
M 145.937,-1057.59 L 146.545,-1057.74 L 147.129,-1057.98 L 147.679,-1058.28 L 148.187,-1058.65 L 148.645,-1059.08
 L 149.045,-1059.56 L 149.382,-1060.09 L 149.649,-1060.66 L 149.843,-1061.26 L 149.961,-1061.87 L 150,-1062.5
 L 150,-1277.5 L 149.961,-1278.13 L 149.843,-1278.74 L 149.649,-1279.34 L 149.382,-1279.91 L 149.045,-1280.44
 L 148.645,-1280.92 L 148.187,-1281.35 L 147.679,-1281.72 L 147.129,-1282.02 L 146.545,-1282.26 L 145.937,-1282.41
 L 145.314,-1282.49 L -145.314,-1282.49 L -145.937,-1282.41 L -146.545,-1282.26 L -147.129,-1282.02 L -147.679,-1281.72
 L -148.187,-1281.35 L -148.645,-1280.92 L -149.045,-1280.44 L -149.382,-1279.91 L -149.649,-1279.34 L -149.843,-1278.74
 L -149.961,-1278.13 L -150,-1277.5 L -150,-1062.5 L -149.961,-1061.87 L -149.843,-1061.26 L -149.649,-1060.66
 L -149.382,-1060.09 L -149.045,-1059.56 L -148.645,-1059.08 L -148.187,-1058.65 L -147.679,-1058.28 L -147.129,-1057.98
 L -146.545,-1057.74 L -145.937,-1057.59 L -145.314,-1057.51 L 145.314,-1057.51 z
M -145.048,-1058.01 L -145.64,-1058.08 L -146.218,-1058.23 L -146.772,-1058.45 L -147.295,-1058.74 L -147.778,-1059.09
 L -148.213,-1059.5 L -148.593,-1059.96 L -148.912,-1060.46 L -149.166,-1061 L -149.351,-1061.57 L -149.463,-1062.15
 L -149.5,-1062.75 L -149.5,-1277.25 L -149.463,-1277.85 L -149.351,-1278.43 L -149.166,-1279 L -148.912,-1279.54
 L -148.593,-1280.04 L -148.213,-1280.5 L -147.778,-1280.91 L -147.295,-1281.26 L -146.772,-1281.55 L -146.218,-1281.77
 L -145.64,-1281.92 L -145.048,-1281.99 L 145.048,-1281.99 L 145.64,-1281.92 L 146.218,-1281.77 L 146.772,-1281.55
 L 147.295,-1281.26 L 147.778,-1280.91 L 148.213,-1280.5 L 148.593,-1280.04 L 148.912,-1279.54 L 149.166,-1279
 L 149.351,-1278.43 L 149.463,-1277.85 L 149.5,-1277.25 L 149.5,-1062.75 L 149.463,-1062.15 L 149.351,-1061.57
 L 149.166,-1061 L 148.912,-1060.46 L 148.593,-1059.96 L 148.213,-1059.5 L 147.778,-1059.09 L 147.295,-1058.74
 L 146.772,-1058.45 L 146.218,-1058.23 L 145.64,-1058.08 L 145.048,-1058.01 z
M 145.937,-823.589 L 146.545,-823.745 L 147.129,-823.976 L 147.679,-824.278 L 148.187,-824.647 L 148.645,-825.077
 L 149.045,-825.561 L 149.382,-826.091 L 149.649,-826.659 L 149.843,-827.257 L 149.961,-827.873 L 150,-828.5
 L 150,-1043.5 L 149.961,-1044.13 L 149.843,-1044.74 L 149.649,-1045.34 L 149.382,-1045.91 L 149.045,-1046.44
 L 148.645,-1046.92 L 148.187,-1047.35 L 147.679,-1047.72 L 147.129,-1048.02 L 146.545,-1048.26 L 145.937,-1048.41
 L 145.314,-1048.49 L -145.314,-1048.49 L -145.937,-1048.41 L -146.545,-1048.26 L -147.129,-1048.02 L -147.679,-1047.72
 L -148.187,-1047.35 L -148.645,-1046.92 L -149.045,-1046.44 L -149.382,-1045.91 L -149.649,-1045.34 L -149.843,-1044.74
 L -149.961,-1044.13 L -150,-1043.5 L -150,-828.5 L -149.961,-827.873 L -149.843,-827.257 L -149.649,-826.659
 L -149.382,-826.091 L -149.045,-825.561 L -148.645,-825.077 L -148.187,-824.647 L -147.679,-824.278 L -147.129,-823.976
 L -146.545,-823.745 L -145.937,-823.589 L -145.314,-823.51 L 145.314,-823.51 z
M -145.037,-824.181 L -145.608,-824.253 L -146.165,-824.396 L -146.699,-824.607 L -147.203,-824.884 L -147.668,-825.222
 L -148.088,-825.616 L -148.454,-826.059 L -148.762,-826.544 L -149.007,-827.065 L -149.185,-827.611 L -149.292,-828.176
 L -149.328,-828.75 L -149.328,-1043.25 L -149.292,-1043.82 L -149.185,-1044.39 L -149.007,-1044.94 L -148.762,-1045.46
 L -148.454,-1045.94 L -148.088,-1046.38 L -147.668,-1046.78 L -147.203,-1047.12 L -146.699,-1047.39 L -146.165,-1047.6
 L -145.608,-1047.75 L -145.037,-1047.82 L 145.037,-1047.82 L 145.608,-1047.75 L 146.165,-1047.6 L 146.699,-1047.39
 L 147.203,-1047.12 L 147.668,-1046.78 L 148.088,-1046.38 L 148.454,-1045.94 L 148.762,-1045.46 L 149.007,-1044.94
 L 149.185,-1044.39 L 149.292,-1043.82 L 149.328,-1043.25 L 149.328,-828.75 L 149.292,-828.176 L 149.185,-827.611
 L 149.007,-827.065 L 148.762,-826.544 L 148.454,-826.059 L 148.088,-825.616 L 147.668,-825.222 L 147.203,-824.884
 L 146.699,-824.607 L 146.165,-824.396 L 145.608,-824.253 L 145.037,-824.181 z
M 145.937,-589.589 L 146.545,-589.745 L 147.129,-589.976 L 147.679,-590.278 L 148.187,-590.647 L 148.645,-591.077
 L 149.045,-591.561 L 149.382,-592.091 L 149.649,-592.659 L 149.843,-593.257 L 149.961,-593.873 L 150,-594.5
 L 150,-809.5 L 149.961,-810.127 L 149.843,-810.743 L 149.649,-811.341 L 149.382,-811.909 L 149.045,-812.439
 L 148.645,-812.923 L 148.187,-813.353 L 147.679,-813.722 L 147.129,-814.024 L 146.545,-814.255 L 145.937,-814.411
 L 145.314,-814.49 L -145.314,-814.49 L -145.937,-814.411 L -146.545,-814.255 L -147.129,-814.024 L -147.679,-813.722
 L -148.187,-813.353 L -148.645,-812.923 L -149.045,-812.439 L -149.382,-811.909 L -149.649,-811.341 L -149.843,-810.743
 L -149.961,-810.127 L -150,-809.5 L -150,-594.5 L -149.961,-593.873 L -149.843,-593.257 L -149.649,-592.659
 L -149.382,-592.091 L -149.045,-591.561 L -148.645,-591.077 L -148.187,-590.647 L -147.679,-590.278 L -147.129,-589.976
 L -146.545,-589.745 L -145.937,-589.589 L -145.314,-589.51 L 145.314,-589.51 z
M -144.882,-592.645 L -145.145,-592.678 L -145.402,-592.744 L -145.648,-592.841 L -145.88,-592.969 L -146.095,-593.124
 L -146.288,-593.306 L -146.457,-593.51 L -146.599,-593.734 L -146.711,-593.973 L -146.793,-594.225 L -146.843,-594.486
 L -146.86,-594.75 L -146.86,-809.25 L -146.843,-809.514 L -146.793,-809.775 L -146.711,-810.027 L -146.599,-810.266
 L -146.457,-810.49 L -146.288,-810.694 L -146.095,-810.876 L -145.88,-811.031 L -145.648,-811.159 L -145.402,-811.256
 L -145.145,-811.322 L -144.882,-811.355 L 144.882,-811.355 L 145.145,-811.322 L 145.402,-811.256 L 145.648,-811.159
 L 145.88,-811.031 L 146.095,-810.876 L 146.288,-810.694 L 146.457,-810.49 L 146.599,-810.266 L 146.711,-810.027
 L 146.793,-809.775 L 146.843,-809.514 L 146.86,-809.25 L 146.86,-594.75 L 146.843,-594.486 L 146.793,-594.225
 L 146.711,-593.973 L 146.599,-593.734 L 146.457,-593.51 L 146.288,-593.306 L 146.095,-593.124 L 145.88,-592.969
 L 145.648,-592.841 L 145.402,-592.744 L 145.145,-592.678 L 144.882,-592.645 z
" stroke="black" fill="lightgray" stroke-width="0.5"/>
</svg>
