  0
SECTION
  2
BLOCKS
  0
ENDSEC
  0
SECTION
  2
ENTITIES
  0
LINE
  8
0
 10
145.937
 20
1281.09
 11
146.545
 21
1281.24
  0
LINE
  8
0
 10
146.545
 20
1281.24
 11
147.129
 21
1281.48
  0
LINE
  8
0
 10
147.129
 20
1281.48
 11
147.679
 21
1281.78
  0
LINE
  8
0
 10
147.679
 20
1281.78
 11
148.187
 21
1282.15
  0
LINE
  8
0
 10
148.187
 20
1282.15
 11
148.645
 21
1282.58
  0
LINE
  8
0
 10
148.645
 20
1282.58
 11
149.045
 21
1283.06
  0
LINE
  8
0
 10
149.045
 20
1283.06
 11
149.382
 21
1283.59
  0
LINE
  8
0
 10
149.382
 20
1283.59
 11
149.649
 21
1284.16
  0
LINE
  8
0
 10
149.649
 20
1284.16
 11
149.843
 21
1284.76
  0
LINE
  8
0
 10
149.843
 20
1284.76
 11
149.961
 21
1285.37
  0
LINE
  8
0
 10
149.961
 20
1285.37
 11
150
 21
1286
  0
LINE
  8
0
 10
150
 20
1286
 11
150
 21
1336
  0
LINE
  8
0
 10
150
 20
1336
 11
149.961
 21
1336.63
  0
LINE
  8
0
 10
149.961
 20
1336.63
 11
149.843
 21
1337.24
  0
LINE
  8
0
 10
149.843
 20
1337.24
 11
149.649
 21
1337.84
  0
LINE
  8
0
 10
149.649
 20
1337.84
 11
149.382
 21
1338.41
  0
LINE
  8
0
 10
149.382
 20
1338.41
 11
149.045
 21
1338.94
  0
LINE
  8
0
 10
149.045
 20
1338.94
 11
148.645
 21
1339.42
  0
LINE
  8
0
 10
148.645
 20
1339.42
 11
148.187
 21
1339.85
  0
LINE
  8
0
 10
148.187
 20
1339.85
 11
147.679
 21
1340.22
  0
LINE
  8
0
 10
147.679
 20
1340.22
 11
147.129
 21
1340.52
  0
LINE
  8
0
 10
147.129
 20
1340.52
 11
146.545
 21
1340.76
  0
LINE
  8
0
 10
146.545
 20
1340.76
 11
145.937
 21
1340.91
  0
LINE
  8
0
 10
145.937
 20
1340.91
 11
145.314
 21
1340.99
  0
LINE
  8
0
 10
145.314
 20
1340.99
 11
-145.314
 21
1340.99
  0
LINE
  8
0
 10
-145.314
 20
1340.99
 11
-145.937
 21
1340.91
  0
LINE
  8
0
 10
-145.937
 20
1340.91
 11
-146.545
 21
1340.76
  0
LINE
  8
0
 10
-146.545
 20
1340.76
 11
-147.129
 21
1340.52
  0
LINE
  8
0
 10
-147.129
 20
1340.52
 11
-147.679
 21
1340.22
  0
LINE
  8
0
 10
-147.679
 20
1340.22
 11
-148.187
 21
1339.85
  0
LINE
  8
0
 10
-148.187
 20
1339.85
 11
-148.5
 21
1339.56
  0
LINE
  8
0
 10
-148.5
 20
1339.56
 11
-151.5
 21
1339.56
  0
LINE
  8
0
 10
-151.5
 20
1339.56
 11
-151.5
 21
1282.44
  0
LINE
  8
0
 10
-151.5
 20
1282.44
 11
-148.5
 21
1282.44
  0
LINE
  8
0
 10
-148.5
 20
1282.44
 11
-148.187
 21
1282.15
  0
LINE
  8
0
 10
-148.187
 20
1282.15
 11
-147.679
 21
1281.78
  0
LINE
  8
0
 10
-147.679
 20
1281.78
 11
-147.129
 21
1281.48
  0
LINE
  8
0
 10
-147.129
 20
1281.48
 11
-146.545
 21
1281.24
  0
LINE
  8
0
 10
-146.545
 20
1281.24
 11
-145.937
 21
1281.09
  0
LINE
  8
0
 10
-145.937
 20
1281.09
 11
-145.314
 21
1281.01
  0
LINE
  8
0
 10
-145.314
 20
1281.01
 11
145.314
 21
1281.01
  0
LINE
  8
0
 10
145.314
 20
1281.01
 11
145.937
 21
1281.09
  0
LINE
  8
0
 10
-144.751
 20
1282.51
 11
-145.25
 21
1282.57
  0
LINE
  8
0
 10
-145.25
 20
1282.57
 11
-145.736
 21
1282.7
  0
LINE
  8
0
 10
-145.736
 20
1282.7
 11
-146.203
 21
1282.88
  0
LINE
  8
0
 10
-146.203
 20
1282.88
 11
-146.643
 21
1283.12
  0
LINE
  8
0
 10
-146.643
 20
1283.12
 11
-147.05
 21
1283.42
  0
LINE
  8
0
 10
-147.05
 20
1283.42
 11
-147.416
 21
1283.76
  0
LINE
  8
0
 10
-147.416
 20
1283.76
 11
-147.736
 21
1284.15
  0
LINE
  8
0
 10
-147.736
 20
1284.15
 11
-148.005
 21
1284.57
  0
LINE
  8
0
 10
-148.005
 20
1284.57
 11
-148.219
 21
1285.03
  0
LINE
  8
0
 10
-148.219
 20
1285.03
 11
-148.374
 21
1285.51
  0
LINE
  8
0
 10
-148.374
 20
1285.51
 11
-148.468
 21
1286
  0
LINE
  8
0
 10
-148.468
 20
1286
 11
-148.5
 21
1286.5
  0
LINE
  8
0
 10
-148.5
 20
1286.5
 11
-148.5
 21
1335.5
  0
LINE
  8
0
 10
-148.5
 20
1335.5
 11
-148.468
 21
1336
  0
LINE
  8
0
 10
-148.468
 20
1336
 11
-148.374
 21
1336.49
  0
LINE
  8
0
 10
-148.374
 20
1336.49
 11
-148.219
 21
1336.97
  0
LINE
  8
0
 10
-148.219
 20
1336.97
 11
-148.005
 21
1337.43
  0
LINE
  8
0
 10
-148.005
 20
1337.43
 11
-147.736
 21
1337.85
  0
LINE
  8
0
 10
-147.736
 20
1337.85
 11
-147.416
 21
1338.24
  0
LINE
  8
0
 10
-147.416
 20
1338.24
 11
-147.05
 21
1338.58
  0
LINE
  8
0
 10
-147.05
 20
1338.58
 11
-146.643
 21
1338.88
  0
LINE
  8
0
 10
-146.643
 20
1338.88
 11
-146.203
 21
1339.12
  0
LINE
  8
0
 10
-146.203
 20
1339.12
 11
-145.736
 21
1339.3
  0
LINE
  8
0
 10
-145.736
 20
1339.3
 11
-145.25
 21
1339.43
  0
LINE
  8
0
 10
-145.25
 20
1339.43
 11
-144.751
 21
1339.49
  0
LINE
  8
0
 10
-144.751
 20
1339.49
 11
144.751
 21
1339.49
  0
LINE
  8
0
 10
144.751
 20
1339.49
 11
145.25
 21
1339.43
  0
LINE
  8
0
 10
145.25
 20
1339.43
 11
145.736
 21
1339.3
  0
LINE
  8
0
 10
145.736
 20
1339.3
 11
146.203
 21
1339.12
  0
LINE
  8
0
 10
146.203
 20
1339.12
 11
146.643
 21
1338.88
  0
LINE
  8
0
 10
146.643
 20
1338.88
 11
147.05
 21
1338.58
  0
LINE
  8
0
 10
147.05
 20
1338.58
 11
147.416
 21
1338.24
  0
LINE
  8
0
 10
147.416
 20
1338.24
 11
147.736
 21
1337.85
  0
LINE
  8
0
 10
147.736
 20
1337.85
 11
148.005
 21
1337.43
  0
LINE
  8
0
 10
148.005
 20
1337.43
 11
148.219
 21
1336.97
  0
LINE
  8
0
 10
148.219
 20
1336.97
 11
148.374
 21
1336.49
  0
LINE
  8
0
 10
148.374
 20
1336.49
 11
148.468
 21
1336
  0
LINE
  8
0
 10
148.468
 20
1336
 11
148.5
 21
1335.5
  0
LINE
  8
0
 10
148.5
 20
1335.5
 11
148.5
 21
1286.5
  0
LINE
  8
0
 10
148.5
 20
1286.5
 11
148.468
 21
1286
  0
LINE
  8
0
 10
148.468
 20
1286
 11
148.374
 21
1285.51
  0
LINE
  8
0
 10
148.374
 20
1285.51
 11
148.219
 21
1285.03
  0
LINE
  8
0
 10
148.219
 20
1285.03
 11
148.005
 21
1284.57
  0
LINE
  8
0
 10
148.005
 20
1284.57
 11
147.736
 21
1284.15
  0
LINE
  8
0
 10
147.736
 20
1284.15
 11
147.416
 21
1283.76
  0
LINE
  8
0
 10
147.416
 20
1283.76
 11
147.05
 21
1283.42
  0
LINE
  8
0
 10
147.05
 20
1283.42
 11
146.643
 21
1283.12
  0
LINE
  8
0
 10
146.643
 20
1283.12
 11
146.203
 21
1282.88
  0
LINE
  8
0
 10
146.203
 20
1282.88
 11
145.736
 21
1282.7
  0
LINE
  8
0
 10
145.736
 20
1282.7
 11
145.25
 21
1282.57
  0
LINE
  8
0
 10
145.25
 20
1282.57
 11
144.751
 21
1282.51
  0
LINE
  8
0
 10
144.751
 20
1282.51
 11
-144.751
 21
1282.51
  0
LINE
  8
0
 10
145.937
 20
1212.09
 11
146.545
 21
1212.24
  0
LINE
  8
0
 10
146.545
 20
1212.24
 11
147.129
 21
1212.48
  0
LINE
  8
0
 10
147.129
 20
1212.48
 11
147.679
 21
1212.78
  0
LINE
  8
0
 10
147.679
 20
1212.78
 11
148.187
 21
1213.15
  0
LINE
  8
0
 10
148.187
 20
1213.15
 11
148.645
 21
1213.58
  0
LINE
  8
0
 10
148.645
 20
1213.58
 11
149.045
 21
1214.06
  0
LINE
  8
0
 10
149.045
 20
1214.06
 11
149.382
 21
1214.59
  0
LINE
  8
0
 10
149.382
 20
1214.59
 11
149.649
 21
1215.16
  0
LINE
  8
0
 10
149.649
 20
1215.16
 11
149.843
 21
1215.76
  0
LINE
  8
0
 10
149.843
 20
1215.76
 11
149.961
 21
1216.37
  0
LINE
  8
0
 10
149.961
 20
1216.37
 11
150
 21
1217
  0
LINE
  8
0
 10
150
 20
1217
 11
150
 21
1267
  0
LINE
  8
0
 10
150
 20
1267
 11
149.961
 21
1267.63
  0
LINE
  8
0
 10
149.961
 20
1267.63
 11
149.843
 21
1268.24
  0
LINE
  8
0
 10
149.843
 20
1268.24
 11
149.649
 21
1268.84
  0
LINE
  8
0
 10
149.649
 20
1268.84
 11
149.382
 21
1269.41
  0
LINE
  8
0
 10
149.382
 20
1269.41
 11
149.045
 21
1269.94
  0
LINE
  8
0
 10
149.045
 20
1269.94
 11
148.645
 21
1270.42
  0
LINE
  8
0
 10
148.645
 20
1270.42
 11
148.187
 21
1270.85
  0
LINE
  8
0
 10
148.187
 20
1270.85
 11
147.679
 21
1271.22
  0
LINE
  8
0
 10
147.679
 20
1271.22
 11
147.129
 21
1271.52
  0
LINE
  8
0
 10
147.129
 20
1271.52
 11
146.545
 21
1271.76
  0
LINE
  8
0
 10
146.545
 20
1271.76
 11
145.937
 21
1271.91
  0
LINE
  8
0
 10
145.937
 20
1271.91
 11
145.314
 21
1271.99
  0
LINE
  8
0
 10
145.314
 20
1271.99
 11
-145.314
 21
1271.99
  0
LINE
  8
0
 10
-145.314
 20
1271.99
 11
-145.937
 21
1271.91
  0
LINE
  8
0
 10
-145.937
 20
1271.91
 11
-146.545
 21
1271.76
  0
LINE
  8
0
 10
-146.545
 20
1271.76
 11
-147.129
 21
1271.52
  0
LINE
  8
0
 10
-147.129
 20
1271.52
 11
-147.679
 21
1271.22
  0
LINE
  8
0
 10
-147.679
 20
1271.22
 11
-148.187
 21
1270.85
  0
LINE
  8
0
 10
-148.187
 20
1270.85
 11
-148.5
 21
1270.56
  0
LINE
  8
0
 10
-148.5
 20
1270.56
 11
-148.5
 21
1271.97
  0
LINE
  8
0
 10
-148.5
 20
1271.97
 11
-151.5
 21
1271.97
  0
LINE
  8
0
 10
-151.5
 20
1271.97
 11
-151.5
 21
1212.03
  0
LINE
  8
0
 10
-151.5
 20
1212.03
 11
-148.5
 21
1212.03
  0
LINE
  8
0
 10
-148.5
 20
1212.03
 11
-148.5
 21
1213.44
  0
LINE
  8
0
 10
-148.5
 20
1213.44
 11
-148.187
 21
1213.15
  0
LINE
  8
0
 10
-148.187
 20
1213.15
 11
-147.679
 21
1212.78
  0
LINE
  8
0
 10
-147.679
 20
1212.78
 11
-147.129
 21
1212.48
  0
LINE
  8
0
 10
-147.129
 20
1212.48
 11
-146.545
 21
1212.24
  0
LINE
  8
0
 10
-146.545
 20
1212.24
 11
-145.937
 21
1212.09
  0
LINE
  8
0
 10
-145.937
 20
1212.09
 11
-145.314
 21
1212.01
  0
LINE
  8
0
 10
-145.314
 20
1212.01
 11
145.314
 21
1212.01
  0
LINE
  8
0
 10
145.314
 20
1212.01
 11
145.937
 21
1212.09
  0
LINE
  8
0
 10
-144.751
 20
1213.51
 11
-145.25
 21
1213.57
  0
LINE
  8
0
 10
-145.25
 20
1213.57
 11
-145.736
 21
1213.7
  0
LINE
  8
0
 10
-145.736
 20
1213.7
 11
-146.203
 21
1213.88
  0
LINE
  8
0
 10
-146.203
 20
1213.88
 11
-146.643
 21
1214.12
  0
LINE
  8
0
 10
-146.643
 20
1214.12
 11
-147.05
 21
1214.42
  0
LINE
  8
0
 10
-147.05
 20
1214.42
 11
-147.416
 21
1214.76
  0
LINE
  8
0
 10
-147.416
 20
1214.76
 11
-147.736
 21
1215.15
  0
LINE
  8
0
 10
-147.736
 20
1215.15
 11
-148.005
 21
1215.57
  0
LINE
  8
0
 10
-148.005
 20
1215.57
 11
-148.219
 21
1216.03
  0
LINE
  8
0
 10
-148.219
 20
1216.03
 11
-148.374
 21
1216.51
  0
LINE
  8
0
 10
-148.374
 20
1216.51
 11
-148.468
 21
1217
  0
LINE
  8
0
 10
-148.468
 20
1217
 11
-148.5
 21
1217.5
  0
LINE
  8
0
 10
-148.5
 20
1217.5
 11
-148.5
 21
1266.5
  0
LINE
  8
0
 10
-148.5
 20
1266.5
 11
-148.468
 21
1267
  0
LINE
  8
0
 10
-148.468
 20
1267
 11
-148.374
 21
1267.49
  0
LINE
  8
0
 10
-148.374
 20
1267.49
 11
-148.219
 21
1267.97
  0
LINE
  8
0
 10
-148.219
 20
1267.97
 11
-148.005
 21
1268.43
  0
LINE
  8
0
 10
-148.005
 20
1268.43
 11
-147.736
 21
1268.85
  0
LINE
  8
0
 10
-147.736
 20
1268.85
 11
-147.416
 21
1269.24
  0
LINE
  8
0
 10
-147.416
 20
1269.24
 11
-147.05
 21
1269.58
  0
LINE
  8
0
 10
-147.05
 20
1269.58
 11
-146.643
 21
1269.88
  0
LINE
  8
0
 10
-146.643
 20
1269.88
 11
-146.203
 21
1270.12
  0
LINE
  8
0
 10
-146.203
 20
1270.12
 11
-145.736
 21
1270.3
  0
LINE
  8
0
 10
-145.736
 20
1270.3
 11
-145.25
 21
1270.43
  0
LINE
  8
0
 10
-145.25
 20
1270.43
 11
-144.751
 21
1270.49
  0
LINE
  8
0
 10
-144.751
 20
1270.49
 11
144.751
 21
1270.49
  0
LINE
  8
0
 10
144.751
 20
1270.49
 11
145.25
 21
1270.43
  0
LINE
  8
0
 10
145.25
 20
1270.43
 11
145.736
 21
1270.3
  0
LINE
  8
0
 10
145.736
 20
1270.3
 11
146.203
 21
1270.12
  0
LINE
  8
0
 10
146.203
 20
1270.12
 11
146.643
 21
1269.88
  0
LINE
  8
0
 10
146.643
 20
1269.88
 11
147.05
 21
1269.58
  0
LINE
  8
0
 10
147.05
 20
1269.58
 11
147.416
 21
1269.24
  0
LINE
  8
0
 10
147.416
 20
1269.24
 11
147.736
 21
1268.85
  0
LINE
  8
0
 10
147.736
 20
1268.85
 11
148.005
 21
1268.43
  0
LINE
  8
0
 10
148.005
 20
1268.43
 11
148.219
 21
1267.97
  0
LINE
  8
0
 10
148.219
 20
1267.97
 11
148.374
 21
1267.49
  0
LINE
  8
0
 10
148.374
 20
1267.49
 11
148.468
 21
1267
  0
LINE
  8
0
 10
148.468
 20
1267
 11
148.5
 21
1266.5
  0
LINE
  8
0
 10
148.5
 20
1266.5
 11
148.5
 21
1217.5
  0
LINE
  8
0
 10
148.5
 20
1217.5
 11
148.468
 21
1217
  0
LINE
  8
0
 10
148.468
 20
1217
 11
148.374
 21
1216.51
  0
LINE
  8
0
 10
148.374
 20
1216.51
 11
148.219
 21
1216.03
  0
LINE
  8
0
 10
148.219
 20
1216.03
 11
148.005
 21
1215.57
  0
LINE
  8
0
 10
148.005
 20
1215.57
 11
147.736
 21
1215.15
  0
LINE
  8
0
 10
147.736
 20
1215.15
 11
147.416
 21
1214.76
  0
LINE
  8
0
 10
147.416
 20
1214.76
 11
147.05
 21
1214.42
  0
LINE
  8
0
 10
147.05
 20
1214.42
 11
146.643
 21
1214.12
  0
LINE
  8
0
 10
146.643
 20
1214.12
 11
146.203
 21
1213.88
  0
LINE
  8
0
 10
146.203
 20
1213.88
 11
145.736
 21
1213.7
  0
LINE
  8
0
 10
145.736
 20
1213.7
 11
145.25
 21
1213.57
  0
LINE
  8
0
 10
145.25
 20
1213.57
 11
144.751
 21
1213.51
  0
LINE
  8
0
 10
144.751
 20
1213.51
 11
-144.751
 21
1213.51
  0
LINE
  8
0
 10
-148.5
 20
1144.44
 11
-148.187
 21
1144.15
  0
LINE
  8
0
 10
-148.187
 20
1144.15
 11
-147.679
 21
1143.78
  0
LINE
  8
0
 10
-147.679
 20
1143.78
 11
-147.129
 21
1143.48
  0
LINE
  8
0
 10
-147.129
 20
1143.48
 11
-146.545
 21
1143.24
  0
LINE
  8
0
 10
-146.545
 20
1143.24
 11
-145.937
 21
1143.09
  0
LINE
  8
0
 10
-145.937
 20
1143.09
 11
-145.314
 21
1143.01
  0
LINE
  8
0
 10
-145.314
 20
1143.01
 11
145.314
 21
1143.01
  0
LINE
  8
0
 10
145.314
 20
1143.01
 11
145.937
 21
1143.09
  0
LINE
  8
0
 10
145.937
 20
1143.09
 11
146.545
 21
1143.24
  0
LINE
  8
0
 10
146.545
 20
1143.24
 11
147.129
 21
1143.48
  0
LINE
  8
0
 10
147.129
 20
1143.48
 11
147.679
 21
1143.78
  0
LINE
  8
0
 10
147.679
 20
1143.78
 11
148.187
 21
1144.15
  0
LINE
  8
0
 10
148.187
 20
1144.15
 11
148.645
 21
1144.58
  0
LINE
  8
0
 10
148.645
 20
1144.58
 11
149.045
 21
1145.06
  0
LINE
  8
0
 10
149.045
 20
1145.06
 11
149.382
 21
1145.59
  0
LINE
  8
0
 10
149.382
 20
1145.59
 11
149.649
 21
1146.16
  0
LINE
  8
0
 10
149.649
 20
1146.16
 11
149.843
 21
1146.76
  0
LINE
  8
0
 10
149.843
 20
1146.76
 11
149.961
 21
1147.37
  0
LINE
  8
0
 10
149.961
 20
1147.37
 11
150
 21
1148
  0
LINE
  8
0
 10
150
 20
1148
 11
150
 21
1198
  0
LINE
  8
0
 10
150
 20
1198
 11
149.961
 21
1198.63
  0
LINE
  8
0
 10
149.961
 20
1198.63
 11
149.843
 21
1199.24
  0
LINE
  8
0
 10
149.843
 20
1199.24
 11
149.649
 21
1199.84
  0
LINE
  8
0
 10
149.649
 20
1199.84
 11
149.382
 21
1200.41
  0
LINE
  8
0
 10
149.382
 20
1200.41
 11
149.045
 21
1200.94
  0
LINE
  8
0
 10
149.045
 20
1200.94
 11
148.645
 21
1201.42
  0
LINE
  8
0
 10
148.645
 20
1201.42
 11
148.187
 21
1201.85
  0
LINE
  8
0
 10
148.187
 20
1201.85
 11
147.679
 21
1202.22
  0
LINE
  8
0
 10
147.679
 20
1202.22
 11
147.129
 21
1202.52
  0
LINE
  8
0
 10
147.129
 20
1202.52
 11
146.545
 21
1202.76
  0
LINE
  8
0
 10
146.545
 20
1202.76
 11
145.937
 21
1202.91
  0
LINE
  8
0
 10
145.937
 20
1202.91
 11
145.314
 21
1202.99
  0
LINE
  8
0
 10
145.314
 20
1202.99
 11
-145.314
 21
1202.99
  0
LINE
  8
0
 10
-145.314
 20
1202.99
 11
-145.937
 21
1202.91
  0
LINE
  8
0
 10
-145.937
 20
1202.91
 11
-146.545
 21
1202.76
  0
LINE
  8
0
 10
-146.545
 20
1202.76
 11
-147.129
 21
1202.52
  0
LINE
  8
0
 10
-147.129
 20
1202.52
 11
-147.679
 21
1202.22
  0
LINE
  8
0
 10
-147.679
 20
1202.22
 11
-148.187
 21
1201.85
  0
LINE
  8
0
 10
-148.187
 20
1201.85
 11
-148.5
 21
1201.56
  0
LINE
  8
0
 10
-148.5
 20
1201.56
 11
-148.5
 21
1202.99
  0
LINE
  8
0
 10
-148.5
 20
1202.99
 11
-151.5
 21
1202.99
  0
LINE
  8
0
 10
-151.5
 20
1202.99
 11
-151.5
 21
1198.49
  0
LINE
  8
0
 10
-151.5
 20
1198.49
 11
-148.374
 21
1198.49
  0
LINE
  8
0
 10
-148.374
 20
1198.49
 11
-148.374
 21
1198.49
  0
LINE
  8
0
 10
-148.374
 20
1198.49
 11
-148.219
 21
1198.97
  0
LINE
  8
0
 10
-148.219
 20
1198.97
 11
-148.005
 21
1199.43
  0
LINE
  8
0
 10
-148.005
 20
1199.43
 11
-147.736
 21
1199.85
  0
LINE
  8
0
 10
-147.736
 20
1199.85
 11
-147.416
 21
1200.24
  0
LINE
  8
0
 10
-147.416
 20
1200.24
 11
-147.05
 21
1200.58
  0
LINE
  8
0
 10
-147.05
 20
1200.58
 11
-146.643
 21
1200.88
  0
LINE
  8
0
 10
-146.643
 20
1200.88
 11
-146.203
 21
1201.12
  0
LINE
  8
0
 10
-146.203
 20
1201.12
 11
-145.736
 21
1201.3
  0
LINE
  8
0
 10
-145.736
 20
1201.3
 11
-145.25
 21
1201.43
  0
LINE
  8
0
 10
-145.25
 20
1201.43
 11
-144.751
 21
1201.49
  0
LINE
  8
0
 10
-144.751
 20
1201.49
 11
144.751
 21
1201.49
  0
LINE
  8
0
 10
144.751
 20
1201.49
 11
145.25
 21
1201.43
  0
LINE
  8
0
 10
145.25
 20
1201.43
 11
145.736
 21
1201.3
  0
LINE
  8
0
 10
145.736
 20
1201.3
 11
146.203
 21
1201.12
  0
LINE
  8
0
 10
146.203
 20
1201.12
 11
146.643
 21
1200.88
  0
LINE
  8
0
 10
146.643
 20
1200.88
 11
147.05
 21
1200.58
  0
LINE
  8
0
 10
147.05
 20
1200.58
 11
147.416
 21
1200.24
  0
LINE
  8
0
 10
147.416
 20
1200.24
 11
147.736
 21
1199.85
  0
LINE
  8
0
 10
147.736
 20
1199.85
 11
148.005
 21
1199.43
  0
LINE
  8
0
 10
148.005
 20
1199.43
 11
148.219
 21
1198.97
  0
LINE
  8
0
 10
148.219
 20
1198.97
 11
148.374
 21
1198.49
  0
LINE
  8
0
 10
148.374
 20
1198.49
 11
148.468
 21
1198
  0
LINE
  8
0
 10
148.468
 20
1198
 11
148.5
 21
1197.5
  0
LINE
  8
0
 10
148.5
 20
1197.5
 11
148.5
 21
1148.5
  0
LINE
  8
0
 10
148.5
 20
1148.5
 11
148.468
 21
1148
  0
LINE
  8
0
 10
148.468
 20
1148
 11
148.374
 21
1147.51
  0
LINE
  8
0
 10
148.374
 20
1147.51
 11
148.219
 21
1147.03
  0
LINE
  8
0
 10
148.219
 20
1147.03
 11
148.005
 21
1146.57
  0
LINE
  8
0
 10
148.005
 20
1146.57
 11
147.736
 21
1146.15
  0
LINE
  8
0
 10
147.736
 20
1146.15
 11
147.416
 21
1145.76
  0
LINE
  8
0
 10
147.416
 20
1145.76
 11
147.05
 21
1145.42
  0
LINE
  8
0
 10
147.05
 20
1145.42
 11
146.643
 21
1145.12
  0
LINE
  8
0
 10
146.643
 20
1145.12
 11
146.203
 21
1144.88
  0
LINE
  8
0
 10
146.203
 20
1144.88
 11
145.736
 21
1144.7
  0
LINE
  8
0
 10
145.736
 20
1144.7
 11
145.25
 21
1144.57
  0
LINE
  8
0
 10
145.25
 20
1144.57
 11
144.751
 21
1144.51
  0
LINE
  8
0
 10
144.751
 20
1144.51
 11
-144.751
 21
1144.51
  0
LINE
  8
0
 10
-144.751
 20
1144.51
 11
-145.25
 21
1144.57
  0
LINE
  8
0
 10
-145.25
 20
1144.57
 11
-145.736
 21
1144.7
  0
LINE
  8
0
 10
-145.736
 20
1144.7
 11
-146.203
 21
1144.88
  0
LINE
  8
0
 10
-146.203
 20
1144.88
 11
-146.643
 21
1145.12
  0
LINE
  8
0
 10
-146.643
 20
1145.12
 11
-147.05
 21
1145.42
  0
LINE
  8
0
 10
-147.05
 20
1145.42
 11
-147.416
 21
1145.76
  0
LINE
  8
0
 10
-147.416
 20
1145.76
 11
-147.736
 21
1146.15
  0
LINE
  8
0
 10
-147.736
 20
1146.15
 11
-148.005
 21
1146.57
  0
LINE
  8
0
 10
-148.005
 20
1146.57
 11
-148.219
 21
1147.03
  0
LINE
  8
0
 10
-148.219
 20
1147.03
 11
-148.374
 21
1147.51
  0
LINE
  8
0
 10
-148.374
 20
1147.51
 11
-148.374
 21
1147.51
  0
LINE
  8
0
 10
-148.374
 20
1147.51
 11
-151.5
 21
1147.51
  0
LINE
  8
0
 10
-151.5
 20
1147.51
 11
-151.5
 21
1143.01
  0
LINE
  8
0
 10
-151.5
 20
1143.01
 11
-148.5
 21
1143.01
  0
LINE
  8
0
 10
-148.5
 20
1143.01
 11
-148.5
 21
1144.44
  0
LINE
  8
0
 10
-148.5
 20
1192.51
 11
-151.5
 21
1192.51
  0
LINE
  8
0
 10
-151.5
 20
1192.51
 11
-151.5
 21
1183.49
  0
LINE
  8
0
 10
-151.5
 20
1183.49
 11
-148.5
 21
1183.49
  0
LINE
  8
0
 10
-148.5
 20
1183.49
 11
-148.5
 21
1192.51
  0
LINE
  8
0
 10
-148.5
 20
1177.51
 11
-151.5
 21
1177.51
  0
LINE
  8
0
 10
-151.5
 20
1177.51
 11
-151.5
 21
1168.49
  0
LINE
  8
0
 10
-151.5
 20
1168.49
 11
-148.5
 21
1168.49
  0
LINE
  8
0
 10
-148.5
 20
1168.49
 11
-148.5
 21
1177.51
  0
LINE
  8
0
 10
-148.5
 20
1162.51
 11
-151.5
 21
1162.51
  0
LINE
  8
0
 10
-151.5
 20
1162.51
 11
-151.5
 21
1153.49
  0
LINE
  8
0
 10
-151.5
 20
1153.49
 11
-148.5
 21
1153.49
  0
LINE
  8
0
 10
-148.5
 20
1153.49
 11
-148.5
 21
1162.51
  0
LINE
  8
0
 10
-148.5
 20
1075.44
 11
-148.187
 21
1075.15
  0
LINE
  8
0
 10
-148.187
 20
1075.15
 11
-147.679
 21
1074.78
  0
LINE
  8
0
 10
-147.679
 20
1074.78
 11
-147.129
 21
1074.48
  0
LINE
  8
0
 10
-147.129
 20
1074.48
 11
-146.545
 21
1074.24
  0
LINE
  8
0
 10
-146.545
 20
1074.24
 11
-145.937
 21
1074.09
  0
LINE
  8
0
 10
-145.937
 20
1074.09
 11
-145.314
 21
1074.01
  0
LINE
  8
0
 10
-145.314
 20
1074.01
 11
145.314
 21
1074.01
  0
LINE
  8
0
 10
145.314
 20
1074.01
 11
145.937
 21
1074.09
  0
LINE
  8
0
 10
145.937
 20
1074.09
 11
146.545
 21
1074.24
  0
LINE
  8
0
 10
146.545
 20
1074.24
 11
147.129
 21
1074.48
  0
LINE
  8
0
 10
147.129
 20
1074.48
 11
147.679
 21
1074.78
  0
LINE
  8
0
 10
147.679
 20
1074.78
 11
148.187
 21
1075.15
  0
LINE
  8
0
 10
148.187
 20
1075.15
 11
148.645
 21
1075.58
  0
LINE
  8
0
 10
148.645
 20
1075.58
 11
149.045
 21
1076.06
  0
LINE
  8
0
 10
149.045
 20
1076.06
 11
149.382
 21
1076.59
  0
LINE
  8
0
 10
149.382
 20
1076.59
 11
149.649
 21
1077.16
  0
LINE
  8
0
 10
149.649
 20
1077.16
 11
149.843
 21
1077.76
  0
LINE
  8
0
 10
149.843
 20
1077.76
 11
149.961
 21
1078.37
  0
LINE
  8
0
 10
149.961
 20
1078.37
 11
150
 21
1079
  0
LINE
  8
0
 10
150
 20
1079
 11
150
 21
1129
  0
LINE
  8
0
 10
150
 20
1129
 11
149.961
 21
1129.63
  0
LINE
  8
0
 10
149.961
 20
1129.63
 11
149.843
 21
1130.24
  0
LINE
  8
0
 10
149.843
 20
1130.24
 11
149.649
 21
1130.84
  0
LINE
  8
0
 10
149.649
 20
1130.84
 11
149.382
 21
1131.41
  0
LINE
  8
0
 10
149.382
 20
1131.41
 11
149.045
 21
1131.94
  0
LINE
  8
0
 10
149.045
 20
1131.94
 11
148.645
 21
1132.42
  0
LINE
  8
0
 10
148.645
 20
1132.42
 11
148.187
 21
1132.85
  0
LINE
  8
0
 10
148.187
 20
1132.85
 11
147.679
 21
1133.22
  0
LINE
  8
0
 10
147.679
 20
1133.22
 11
147.129
 21
1133.52
  0
LINE
  8
0
 10
147.129
 20
1133.52
 11
146.545
 21
1133.76
  0
LINE
  8
0
 10
146.545
 20
1133.76
 11
145.937
 21
1133.91
  0
LINE
  8
0
 10
145.937
 20
1133.91
 11
145.314
 21
1133.99
  0
LINE
  8
0
 10
145.314
 20
1133.99
 11
-145.314
 21
1133.99
  0
LINE
  8
0
 10
-145.314
 20
1133.99
 11
-145.937
 21
1133.91
  0
LINE
  8
0
 10
-145.937
 20
1133.91
 11
-146.545
 21
1133.76
  0
LINE
  8
0
 10
-146.545
 20
1133.76
 11
-147.129
 21
1133.52
  0
LINE
  8
0
 10
-147.129
 20
1133.52
 11
-147.679
 21
1133.22
  0
LINE
  8
0
 10
-147.679
 20
1133.22
 11
-148.187
 21
1132.85
  0
LINE
  8
0
 10
-148.187
 20
1132.85
 11
-148.5
 21
1132.56
  0
LINE
  8
0
 10
-148.5
 20
1132.56
 11
-148.5
 21
1133.99
  0
LINE
  8
0
 10
-148.5
 20
1133.99
 11
-151.5
 21
1133.99
  0
LINE
  8
0
 10
-151.5
 20
1133.99
 11
-151.5
 21
1074.01
  0
LINE
  8
0
 10
-151.5
 20
1074.01
 11
-148.5
 21
1074.01
  0
LINE
  8
0
 10
-148.5
 20
1074.01
 11
-148.5
 21
1075.44
  0
LINE
  8
0
 10
-144.751
 20
1075.51
 11
-145.25
 21
1075.57
  0
LINE
  8
0
 10
-145.25
 20
1075.57
 11
-145.736
 21
1075.7
  0
LINE
  8
0
 10
-145.736
 20
1075.7
 11
-146.203
 21
1075.88
  0
LINE
  8
0
 10
-146.203
 20
1075.88
 11
-146.643
 21
1076.12
  0
LINE
  8
0
 10
-146.643
 20
1076.12
 11
-147.05
 21
1076.42
  0
LINE
  8
0
 10
-147.05
 20
1076.42
 11
-147.416
 21
1076.76
  0
LINE
  8
0
 10
-147.416
 20
1076.76
 11
-147.736
 21
1077.15
  0
LINE
  8
0
 10
-147.736
 20
1077.15
 11
-148.005
 21
1077.57
  0
LINE
  8
0
 10
-148.005
 20
1077.57
 11
-148.219
 21
1078.03
  0
LINE
  8
0
 10
-148.219
 20
1078.03
 11
-148.374
 21
1078.51
  0
LINE
  8
0
 10
-148.374
 20
1078.51
 11
-148.468
 21
1079
  0
LINE
  8
0
 10
-148.468
 20
1079
 11
-148.5
 21
1079.5
  0
LINE
  8
0
 10
-148.5
 20
1079.5
 11
-148.5
 21
1128.5
  0
LINE
  8
0
 10
-148.5
 20
1128.5
 11
-148.468
 21
1129
  0
LINE
  8
0
 10
-148.468
 20
1129
 11
-148.374
 21
1129.49
  0
LINE
  8
0
 10
-148.374
 20
1129.49
 11
-148.219
 21
1129.97
  0
LINE
  8
0
 10
-148.219
 20
1129.97
 11
-148.005
 21
1130.43
  0
LINE
  8
0
 10
-148.005
 20
1130.43
 11
-147.736
 21
1130.85
  0
LINE
  8
0
 10
-147.736
 20
1130.85
 11
-147.416
 21
1131.24
  0
LINE
  8
0
 10
-147.416
 20
1131.24
 11
-147.05
 21
1131.58
  0
LINE
  8
0
 10
-147.05
 20
1131.58
 11
-146.643
 21
1131.88
  0
LINE
  8
0
 10
-146.643
 20
1131.88
 11
-146.203
 21
1132.12
  0
LINE
  8
0
 10
-146.203
 20
1132.12
 11
-145.736
 21
1132.3
  0
LINE
  8
0
 10
-145.736
 20
1132.3
 11
-145.25
 21
1132.43
  0
LINE
  8
0
 10
-145.25
 20
1132.43
 11
-144.751
 21
1132.49
  0
LINE
  8
0
 10
-144.751
 20
1132.49
 11
144.751
 21
1132.49
  0
LINE
  8
0
 10
144.751
 20
1132.49
 11
145.25
 21
1132.43
  0
LINE
  8
0
 10
145.25
 20
1132.43
 11
145.736
 21
1132.3
  0
LINE
  8
0
 10
145.736
 20
1132.3
 11
146.203
 21
1132.12
  0
LINE
  8
0
 10
146.203
 20
1132.12
 11
146.643
 21
1131.88
  0
LINE
  8
0
 10
146.643
 20
1131.88
 11
147.05
 21
1131.58
  0
LINE
  8
0
 10
147.05
 20
1131.58
 11
147.416
 21
1131.24
  0
LINE
  8
0
 10
147.416
 20
1131.24
 11
147.736
 21
1130.85
  0
LINE
  8
0
 10
147.736
 20
1130.85
 11
148.005
 21
1130.43
  0
LINE
  8
0
 10
148.005
 20
1130.43
 11
148.219
 21
1129.97
  0
LINE
  8
0
 10
148.219
 20
1129.97
 11
148.374
 21
1129.49
  0
LINE
  8
0
 10
148.374
 20
1129.49
 11
148.468
 21
1129
  0
LINE
  8
0
 10
148.468
 20
1129
 11
148.5
 21
1128.5
  0
LINE
  8
0
 10
148.5
 20
1128.5
 11
148.5
 21
1079.5
  0
LINE
  8
0
 10
148.5
 20
1079.5
 11
148.468
 21
1079
  0
LINE
  8
0
 10
148.468
 20
1079
 11
148.374
 21
1078.51
  0
LINE
  8
0
 10
148.374
 20
1078.51
 11
148.219
 21
1078.03
  0
LINE
  8
0
 10
148.219
 20
1078.03
 11
148.005
 21
1077.57
  0
LINE
  8
0
 10
148.005
 20
1077.57
 11
147.736
 21
1077.15
  0
LINE
  8
0
 10
147.736
 20
1077.15
 11
147.416
 21
1076.76
  0
LINE
  8
0
 10
147.416
 20
1076.76
 11
147.05
 21
1076.42
  0
LINE
  8
0
 10
147.05
 20
1076.42
 11
146.643
 21
1076.12
  0
LINE
  8
0
 10
146.643
 20
1076.12
 11
146.203
 21
1075.88
  0
LINE
  8
0
 10
146.203
 20
1075.88
 11
145.736
 21
1075.7
  0
LINE
  8
0
 10
145.736
 20
1075.7
 11
145.25
 21
1075.57
  0
LINE
  8
0
 10
145.25
 20
1075.57
 11
144.751
 21
1075.51
  0
LINE
  8
0
 10
144.751
 20
1075.51
 11
-144.751
 21
1075.51
  0
LINE
  8
0
 10
-148.5
 20
1006.44
 11
-148.187
 21
1006.15
  0
LINE
  8
0
 10
-148.187
 20
1006.15
 11
-147.679
 21
1005.78
  0
LINE
  8
0
 10
-147.679
 20
1005.78
 11
-147.129
 21
1005.48
  0
LINE
  8
0
 10
-147.129
 20
1005.48
 11
-146.545
 21
1005.24
  0
LINE
  8
0
 10
-146.545
 20
1005.24
 11
-145.937
 21
1005.09
  0
LINE
  8
0
 10
-145.937
 20
1005.09
 11
-145.314
 21
1005.01
  0
LINE
  8
0
 10
-145.314
 20
1005.01
 11
145.314
 21
1005.01
  0
LINE
  8
0
 10
145.314
 20
1005.01
 11
145.937
 21
1005.09
  0
LINE
  8
0
 10
145.937
 20
1005.09
 11
146.545
 21
1005.24
  0
LINE
  8
0
 10
146.545
 20
1005.24
 11
147.129
 21
1005.48
  0
LINE
  8
0
 10
147.129
 20
1005.48
 11
147.679
 21
1005.78
  0
LINE
  8
0
 10
147.679
 20
1005.78
 11
148.187
 21
1006.15
  0
LINE
  8
0
 10
148.187
 20
1006.15
 11
148.645
 21
1006.58
  0
LINE
  8
0
 10
148.645
 20
1006.58
 11
149.045
 21
1007.06
  0
LINE
  8
0
 10
149.045
 20
1007.06
 11
149.382
 21
1007.59
  0
LINE
  8
0
 10
149.382
 20
1007.59
 11
149.649
 21
1008.16
  0
LINE
  8
0
 10
149.649
 20
1008.16
 11
149.843
 21
1008.76
  0
LINE
  8
0
 10
149.843
 20
1008.76
 11
149.961
 21
1009.37
  0
LINE
  8
0
 10
149.961
 20
1009.37
 11
150
 21
1010
  0
LINE
  8
0
 10
150
 20
1010
 11
150
 21
1060
  0
LINE
  8
0
 10
150
 20
1060
 11
149.961
 21
1060.63
  0
LINE
  8
0
 10
149.961
 20
1060.63
 11
149.843
 21
1061.24
  0
LINE
  8
0
 10
149.843
 20
1061.24
 11
149.649
 21
1061.84
  0
LINE
  8
0
 10
149.649
 20
1061.84
 11
149.382
 21
1062.41
  0
LINE
  8
0
 10
149.382
 20
1062.41
 11
149.045
 21
1062.94
  0
LINE
  8
0
 10
149.045
 20
1062.94
 11
148.645
 21
1063.42
  0
LINE
  8
0
 10
148.645
 20
1063.42
 11
148.187
 21
1063.85
  0
LINE
  8
0
 10
148.187
 20
1063.85
 11
147.679
 21
1064.22
  0
LINE
  8
0
 10
147.679
 20
1064.22
 11
147.129
 21
1064.52
  0
LINE
  8
0
 10
147.129
 20
1064.52
 11
146.545
 21
1064.76
  0
LINE
  8
0
 10
146.545
 20
1064.76
 11
145.937
 21
1064.91
  0
LINE
  8
0
 10
145.937
 20
1064.91
 11
145.314
 21
1064.99
  0
LINE
  8
0
 10
145.314
 20
1064.99
 11
-145.314
 21
1064.99
  0
LINE
  8
0
 10
-145.314
 20
1064.99
 11
-145.937
 21
1064.91
  0
LINE
  8
0
 10
-145.937
 20
1064.91
 11
-146.545
 21
1064.76
  0
LINE
  8
0
 10
-146.545
 20
1064.76
 11
-147.129
 21
1064.52
  0
LINE
  8
0
 10
-147.129
 20
1064.52
 11
-147.679
 21
1064.22
  0
LINE
  8
0
 10
-147.679
 20
1064.22
 11
-148.187
 21
1063.85
  0
LINE
  8
0
 10
-148.187
 20
1063.85
 11
-148.5
 21
1063.56
  0
LINE
  8
0
 10
-148.5
 20
1063.56
 11
-148.5
 21
1064.99
  0
LINE
  8
0
 10
-148.5
 20
1064.99
 11
-151.5
 21
1064.99
  0
LINE
  8
0
 10
-151.5
 20
1064.99
 11
-151.5
 21
1005.01
  0
LINE
  8
0
 10
-151.5
 20
1005.01
 11
-148.5
 21
1005.01
  0
LINE
  8
0
 10
-148.5
 20
1005.01
 11
-148.5
 21
1006.44
  0
LINE
  8
0
 10
-144.751
 20
1006.51
 11
-145.25
 21
1006.57
  0
LINE
  8
0
 10
-145.25
 20
1006.57
 11
-145.736
 21
1006.7
  0
LINE
  8
0
 10
-145.736
 20
1006.7
 11
-146.203
 21
1006.88
  0
LINE
  8
0
 10
-146.203
 20
1006.88
 11
-146.643
 21
1007.12
  0
LINE
  8
0
 10
-146.643
 20
1007.12
 11
-147.05
 21
1007.42
  0
LINE
  8
0
 10
-147.05
 20
1007.42
 11
-147.416
 21
1007.76
  0
LINE
  8
0
 10
-147.416
 20
1007.76
 11
-147.736
 21
1008.15
  0
LINE
  8
0
 10
-147.736
 20
1008.15
 11
-148.005
 21
1008.57
  0
LINE
  8
0
 10
-148.005
 20
1008.57
 11
-148.219
 21
1009.03
  0
LINE
  8
0
 10
-148.219
 20
1009.03
 11
-148.374
 21
1009.51
  0
LINE
  8
0
 10
-148.374
 20
1009.51
 11
-148.468
 21
1010
  0
LINE
  8
0
 10
-148.468
 20
1010
 11
-148.5
 21
1010.5
  0
LINE
  8
0
 10
-148.5
 20
1010.5
 11
-148.5
 21
1059.5
  0
LINE
  8
0
 10
-148.5
 20
1059.5
 11
-148.468
 21
1060
  0
LINE
  8
0
 10
-148.468
 20
1060
 11
-148.374
 21
1060.49
  0
LINE
  8
0
 10
-148.374
 20
1060.49
 11
-148.219
 21
1060.97
  0
LINE
  8
0
 10
-148.219
 20
1060.97
 11
-148.005
 21
1061.43
  0
LINE
  8
0
 10
-148.005
 20
1061.43
 11
-147.736
 21
1061.85
  0
LINE
  8
0
 10
-147.736
 20
1061.85
 11
-147.416
 21
1062.24
  0
LINE
  8
0
 10
-147.416
 20
1062.24
 11
-147.05
 21
1062.58
  0
LINE
  8
0
 10
-147.05
 20
1062.58
 11
-146.643
 21
1062.88
  0
LINE
  8
0
 10
-146.643
 20
1062.88
 11
-146.203
 21
1063.12
  0
LINE
  8
0
 10
-146.203
 20
1063.12
 11
-145.736
 21
1063.3
  0
LINE
  8
0
 10
-145.736
 20
1063.3
 11
-145.25
 21
1063.43
  0
LINE
  8
0
 10
-145.25
 20
1063.43
 11
-144.751
 21
1063.49
  0
LINE
  8
0
 10
-144.751
 20
1063.49
 11
144.751
 21
1063.49
  0
LINE
  8
0
 10
144.751
 20
1063.49
 11
145.25
 21
1063.43
  0
LINE
  8
0
 10
145.25
 20
1063.43
 11
145.736
 21
1063.3
  0
LINE
  8
0
 10
145.736
 20
1063.3
 11
146.203
 21
1063.12
  0
LINE
  8
0
 10
146.203
 20
1063.12
 11
146.643
 21
1062.88
  0
LINE
  8
0
 10
146.643
 20
1062.88
 11
147.05
 21
1062.58
  0
LINE
  8
0
 10
147.05
 20
1062.58
 11
147.416
 21
1062.24
  0
LINE
  8
0
 10
147.416
 20
1062.24
 11
147.736
 21
1061.85
  0
LINE
  8
0
 10
147.736
 20
1061.85
 11
148.005
 21
1061.43
  0
LINE
  8
0
 10
148.005
 20
1061.43
 11
148.219
 21
1060.97
  0
LINE
  8
0
 10
148.219
 20
1060.97
 11
148.374
 21
1060.49
  0
LINE
  8
0
 10
148.374
 20
1060.49
 11
148.468
 21
1060
  0
LINE
  8
0
 10
148.468
 20
1060
 11
148.5
 21
1059.5
  0
LINE
  8
0
 10
148.5
 20
1059.5
 11
148.5
 21
1010.5
  0
LINE
  8
0
 10
148.5
 20
1010.5
 11
148.468
 21
1010
  0
LINE
  8
0
 10
148.468
 20
1010
 11
148.374
 21
1009.51
  0
LINE
  8
0
 10
148.374
 20
1009.51
 11
148.219
 21
1009.03
  0
LINE
  8
0
 10
148.219
 20
1009.03
 11
148.005
 21
1008.57
  0
LINE
  8
0
 10
148.005
 20
1008.57
 11
147.736
 21
1008.15
  0
LINE
  8
0
 10
147.736
 20
1008.15
 11
147.416
 21
1007.76
  0
LINE
  8
0
 10
147.416
 20
1007.76
 11
147.05
 21
1007.42
  0
LINE
  8
0
 10
147.05
 20
1007.42
 11
146.643
 21
1007.12
  0
LINE
  8
0
 10
146.643
 20
1007.12
 11
146.203
 21
1006.88
  0
LINE
  8
0
 10
146.203
 20
1006.88
 11
145.736
 21
1006.7
  0
LINE
  8
0
 10
145.736
 20
1006.7
 11
145.25
 21
1006.57
  0
LINE
  8
0
 10
145.25
 20
1006.57
 11
144.751
 21
1006.51
  0
LINE
  8
0
 10
144.751
 20
1006.51
 11
-144.751
 21
1006.51
  0
LINE
  8
0
 10
-148.5
 20
937.441
 11
-148.187
 21
937.147
  0
LINE
  8
0
 10
-148.187
 20
937.147
 11
-147.679
 21
936.778
  0
LINE
  8
0
 10
-147.679
 20
936.778
 11
-147.129
 21
936.476
  0
LINE
  8
0
 10
-147.129
 20
936.476
 11
-146.545
 21
936.245
  0
LINE
  8
0
 10
-146.545
 20
936.245
 11
-145.937
 21
936.089
  0
LINE
  8
0
 10
-145.937
 20
936.089
 11
-145.314
 21
936.01
  0
LINE
  8
0
 10
-145.314
 20
936.01
 11
145.314
 21
936.01
  0
LINE
  8
0
 10
145.314
 20
936.01
 11
145.937
 21
936.089
  0
LINE
  8
0
 10
145.937
 20
936.089
 11
146.545
 21
936.245
  0
LINE
  8
0
 10
146.545
 20
936.245
 11
147.129
 21
936.476
  0
LINE
  8
0
 10
147.129
 20
936.476
 11
147.679
 21
936.778
  0
LINE
  8
0
 10
147.679
 20
936.778
 11
148.187
 21
937.147
  0
LINE
  8
0
 10
148.187
 20
937.147
 11
148.645
 21
937.577
  0
LINE
  8
0
 10
148.645
 20
937.577
 11
149.045
 21
938.061
  0
LINE
  8
0
 10
149.045
 20
938.061
 11
149.382
 21
938.591
  0
LINE
  8
0
 10
149.382
 20
938.591
 11
149.649
 21
939.159
  0
LINE
  8
0
 10
149.649
 20
939.159
 11
149.843
 21
939.757
  0
LINE
  8
0
 10
149.843
 20
939.757
 11
149.961
 21
940.373
  0
LINE
  8
0
 10
149.961
 20
940.373
 11
150
 21
941
  0
LINE
  8
0
 10
150
 20
941
 11
150
 21
991
  0
LINE
  8
0
 10
150
 20
991
 11
149.961
 21
991.627
  0
LINE
  8
0
 10
149.961
 20
991.627
 11
149.843
 21
992.243
  0
LINE
  8
0
 10
149.843
 20
992.243
 11
149.649
 21
992.841
  0
LINE
  8
0
 10
149.649
 20
992.841
 11
149.382
 21
993.409
  0
LINE
  8
0
 10
149.382
 20
993.409
 11
149.045
 21
993.939
  0
LINE
  8
0
 10
149.045
 20
993.939
 11
148.645
 21
994.423
  0
LINE
  8
0
 10
148.645
 20
994.423
 11
148.187
 21
994.853
  0
LINE
  8
0
 10
148.187
 20
994.853
 11
147.679
 21
995.222
  0
LINE
  8
0
 10
147.679
 20
995.222
 11
147.129
 21
995.524
  0
LINE
  8
0
 10
147.129
 20
995.524
 11
146.545
 21
995.755
  0
LINE
  8
0
 10
146.545
 20
995.755
 11
145.937
 21
995.911
  0
LINE
  8
0
 10
145.937
 20
995.911
 11
145.314
 21
995.99
  0
LINE
  8
0
 10
145.314
 20
995.99
 11
-145.314
 21
995.99
  0
LINE
  8
0
 10
-145.314
 20
995.99
 11
-145.937
 21
995.911
  0
LINE
  8
0
 10
-145.937
 20
995.911
 11
-146.545
 21
995.755
  0
LINE
  8
0
 10
-146.545
 20
995.755
 11
-147.129
 21
995.524
  0
LINE
  8
0
 10
-147.129
 20
995.524
 11
-147.679
 21
995.222
  0
LINE
  8
0
 10
-147.679
 20
995.222
 11
-148.187
 21
994.853
  0
LINE
  8
0
 10
-148.187
 20
994.853
 11
-148.5
 21
994.559
  0
LINE
  8
0
 10
-148.5
 20
994.559
 11
-148.5
 21
995.99
  0
LINE
  8
0
 10
-148.5
 20
995.99
 11
-151.5
 21
995.99
  0
LINE
  8
0
 10
-151.5
 20
995.99
 11
-151.5
 21
936.01
  0
LINE
  8
0
 10
-151.5
 20
936.01
 11
-148.5
 21
936.01
  0
LINE
  8
0
 10
-148.5
 20
936.01
 11
-148.5
 21
937.441
  0
LINE
  8
0
 10
-144.751
 20
937.508
 11
-145.25
 21
937.571
  0
LINE
  8
0
 10
-145.25
 20
937.571
 11
-145.736
 21
937.696
  0
LINE
  8
0
 10
-145.736
 20
937.696
 11
-146.203
 21
937.881
  0
LINE
  8
0
 10
-146.203
 20
937.881
 11
-146.643
 21
938.123
  0
LINE
  8
0
 10
-146.643
 20
938.123
 11
-147.05
 21
938.418
  0
LINE
  8
0
 10
-147.05
 20
938.418
 11
-147.416
 21
938.762
  0
LINE
  8
0
 10
-147.416
 20
938.762
 11
-147.736
 21
939.149
  0
LINE
  8
0
 10
-147.736
 20
939.149
 11
-148.005
 21
939.573
  0
LINE
  8
0
 10
-148.005
 20
939.573
 11
-148.219
 21
940.028
  0
LINE
  8
0
 10
-148.219
 20
940.028
 11
-148.374
 21
940.505
  0
LINE
  8
0
 10
-148.374
 20
940.505
 11
-148.468
 21
940.999
  0
LINE
  8
0
 10
-148.468
 20
940.999
 11
-148.5
 21
941.5
  0
LINE
  8
0
 10
-148.5
 20
941.5
 11
-148.5
 21
990.5
  0
LINE
  8
0
 10
-148.5
 20
990.5
 11
-148.468
 21
991.001
  0
LINE
  8
0
 10
-148.468
 20
991.001
 11
-148.374
 21
991.495
  0
LINE
  8
0
 10
-148.374
 20
991.495
 11
-148.219
 21
991.972
  0
LINE
  8
0
 10
-148.219
 20
991.972
 11
-148.005
 21
992.427
  0
LINE
  8
0
 10
-148.005
 20
992.427
 11
-147.736
 21
992.851
  0
LINE
  8
0
 10
-147.736
 20
992.851
 11
-147.416
 21
993.238
  0
LINE
  8
0
 10
-147.416
 20
993.238
 11
-147.05
 21
993.582
  0
LINE
  8
0
 10
-147.05
 20
993.582
 11
-146.643
 21
993.877
  0
LINE
  8
0
 10
-146.643
 20
993.877
 11
-146.203
 21
994.119
  0
LINE
  8
0
 10
-146.203
 20
994.119
 11
-145.736
 21
994.304
  0
LINE
  8
0
 10
-145.736
 20
994.304
 11
-145.25
 21
994.429
  0
LINE
  8
0
 10
-145.25
 20
994.429
 11
-144.751
 21
994.492
  0
LINE
  8
0
 10
-144.751
 20
994.492
 11
144.751
 21
994.492
  0
LINE
  8
0
 10
144.751
 20
994.492
 11
145.25
 21
994.429
  0
LINE
  8
0
 10
145.25
 20
994.429
 11
145.736
 21
994.304
  0
LINE
  8
0
 10
145.736
 20
994.304
 11
146.203
 21
994.119
  0
LINE
  8
0
 10
146.203
 20
994.119
 11
146.643
 21
993.877
  0
LINE
  8
0
 10
146.643
 20
993.877
 11
147.05
 21
993.582
  0
LINE
  8
0
 10
147.05
 20
993.582
 11
147.416
 21
993.238
  0
LINE
  8
0
 10
147.416
 20
993.238
 11
147.736
 21
992.851
  0
LINE
  8
0
 10
147.736
 20
992.851
 11
148.005
 21
992.427
  0
LINE
  8
0
 10
148.005
 20
992.427
 11
148.219
 21
991.972
  0
LINE
  8
0
 10
148.219
 20
991.972
 11
148.374
 21
991.495
  0
LINE
  8
0
 10
148.374
 20
991.495
 11
148.468
 21
991.001
  0
LINE
  8
0
 10
148.468
 20
991.001
 11
148.5
 21
990.5
  0
LINE
  8
0
 10
148.5
 20
990.5
 11
148.5
 21
941.5
  0
LINE
  8
0
 10
148.5
 20
941.5
 11
148.468
 21
940.999
  0
LINE
  8
0
 10
148.468
 20
940.999
 11
148.374
 21
940.505
  0
LINE
  8
0
 10
148.374
 20
940.505
 11
148.219
 21
940.028
  0
LINE
  8
0
 10
148.219
 20
940.028
 11
148.005
 21
939.573
  0
LINE
  8
0
 10
148.005
 20
939.573
 11
147.736
 21
939.149
  0
LINE
  8
0
 10
147.736
 20
939.149
 11
147.416
 21
938.762
  0
LINE
  8
0
 10
147.416
 20
938.762
 11
147.05
 21
938.418
  0
LINE
  8
0
 10
147.05
 20
938.418
 11
146.643
 21
938.123
  0
LINE
  8
0
 10
146.643
 20
938.123
 11
146.203
 21
937.881
  0
LINE
  8
0
 10
146.203
 20
937.881
 11
145.736
 21
937.696
  0
LINE
  8
0
 10
145.736
 20
937.696
 11
145.25
 21
937.571
  0
LINE
  8
0
 10
145.25
 20
937.571
 11
144.751
 21
937.508
  0
LINE
  8
0
 10
144.751
 20
937.508
 11
-144.751
 21
937.508
  0
LINE
  8
0
 10
-148.5
 20
868.441
 11
-148.187
 21
868.147
  0
LINE
  8
0
 10
-148.187
 20
868.147
 11
-147.679
 21
867.778
  0
LINE
  8
0
 10
-147.679
 20
867.778
 11
-147.129
 21
867.476
  0
LINE
  8
0
 10
-147.129
 20
867.476
 11
-146.545
 21
867.245
  0
LINE
  8
0
 10
-146.545
 20
867.245
 11
-145.937
 21
867.089
  0
LINE
  8
0
 10
-145.937
 20
867.089
 11
-145.314
 21
867.01
  0
LINE
  8
0
 10
-145.314
 20
867.01
 11
145.314
 21
867.01
  0
LINE
  8
0
 10
145.314
 20
867.01
 11
145.937
 21
867.089
  0
LINE
  8
0
 10
145.937
 20
867.089
 11
146.545
 21
867.245
  0
LINE
  8
0
 10
146.545
 20
867.245
 11
147.129
 21
867.476
  0
LINE
  8
0
 10
147.129
 20
867.476
 11
147.679
 21
867.778
  0
LINE
  8
0
 10
147.679
 20
867.778
 11
148.187
 21
868.147
  0
LINE
  8
0
 10
148.187
 20
868.147
 11
148.645
 21
868.577
  0
LINE
  8
0
 10
148.645
 20
868.577
 11
149.045
 21
869.061
  0
LINE
  8
0
 10
149.045
 20
869.061
 11
149.382
 21
869.591
  0
LINE
  8
0
 10
149.382
 20
869.591
 11
149.649
 21
870.159
  0
LINE
  8
0
 10
149.649
 20
870.159
 11
149.843
 21
870.757
  0
LINE
  8
0
 10
149.843
 20
870.757
 11
149.961
 21
871.373
  0
LINE
  8
0
 10
149.961
 20
871.373
 11
150
 21
872
  0
LINE
  8
0
 10
150
 20
872
 11
150
 21
922
  0
LINE
  8
0
 10
150
 20
922
 11
149.961
 21
922.627
  0
LINE
  8
0
 10
149.961
 20
922.627
 11
149.843
 21
923.243
  0
LINE
  8
0
 10
149.843
 20
923.243
 11
149.649
 21
923.841
  0
LINE
  8
0
 10
149.649
 20
923.841
 11
149.382
 21
924.409
  0
LINE
  8
0
 10
149.382
 20
924.409
 11
149.045
 21
924.939
  0
LINE
  8
0
 10
149.045
 20
924.939
 11
148.645
 21
925.423
  0
LINE
  8
0
 10
148.645
 20
925.423
 11
148.187
 21
925.853
  0
LINE
  8
0
 10
148.187
 20
925.853
 11
147.679
 21
926.222
  0
LINE
  8
0
 10
147.679
 20
926.222
 11
147.129
 21
926.524
  0
LINE
  8
0
 10
147.129
 20
926.524
 11
146.545
 21
926.755
  0
LINE
  8
0
 10
146.545
 20
926.755
 11
145.937
 21
926.911
  0
LINE
  8
0
 10
145.937
 20
926.911
 11
145.314
 21
926.99
  0
LINE
  8
0
 10
145.314
 20
926.99
 11
-145.314
 21
926.99
  0
LINE
  8
0
 10
-145.314
 20
926.99
 11
-145.937
 21
926.911
  0
LINE
  8
0
 10
-145.937
 20
926.911
 11
-146.545
 21
926.755
  0
LINE
  8
0
 10
-146.545
 20
926.755
 11
-147.129
 21
926.524
  0
LINE
  8
0
 10
-147.129
 20
926.524
 11
-147.679
 21
926.222
  0
LINE
  8
0
 10
-147.679
 20
926.222
 11
-148.187
 21
925.853
  0
LINE
  8
0
 10
-148.187
 20
925.853
 11
-148.5
 21
925.559
  0
LINE
  8
0
 10
-148.5
 20
925.559
 11
-148.5
 21
926.99
  0
LINE
  8
0
 10
-148.5
 20
926.99
 11
-151.5
 21
926.99
  0
LINE
  8
0
 10
-151.5
 20
926.99
 11
-151.5
 21
867.01
  0
LINE
  8
0
 10
-151.5
 20
867.01
 11
-148.5
 21
867.01
  0
LINE
  8
0
 10
-148.5
 20
867.01
 11
-148.5
 21
868.441
  0
LINE
  8
0
 10
-144.751
 20
868.508
 11
-145.25
 21
868.571
  0
LINE
  8
0
 10
-145.25
 20
868.571
 11
-145.736
 21
868.696
  0
LINE
  8
0
 10
-145.736
 20
868.696
 11
-146.203
 21
868.881
  0
LINE
  8
0
 10
-146.203
 20
868.881
 11
-146.643
 21
869.123
  0
LINE
  8
0
 10
-146.643
 20
869.123
 11
-147.05
 21
869.418
  0
LINE
  8
0
 10
-147.05
 20
869.418
 11
-147.416
 21
869.762
  0
LINE
  8
0
 10
-147.416
 20
869.762
 11
-147.736
 21
870.149
  0
LINE
  8
0
 10
-147.736
 20
870.149
 11
-148.005
 21
870.573
  0
LINE
  8
0
 10
-148.005
 20
870.573
 11
-148.219
 21
871.028
  0
LINE
  8
0
 10
-148.219
 20
871.028
 11
-148.374
 21
871.505
  0
LINE
  8
0
 10
-148.374
 20
871.505
 11
-148.468
 21
871.999
  0
LINE
  8
0
 10
-148.468
 20
871.999
 11
-148.5
 21
872.5
  0
LINE
  8
0
 10
-148.5
 20
872.5
 11
-148.5
 21
921.5
  0
LINE
  8
0
 10
-148.5
 20
921.5
 11
-148.468
 21
922.001
  0
LINE
  8
0
 10
-148.468
 20
922.001
 11
-148.374
 21
922.495
  0
LINE
  8
0
 10
-148.374
 20
922.495
 11
-148.219
 21
922.972
  0
LINE
  8
0
 10
-148.219
 20
922.972
 11
-148.005
 21
923.427
  0
LINE
  8
0
 10
-148.005
 20
923.427
 11
-147.736
 21
923.851
  0
LINE
  8
0
 10
-147.736
 20
923.851
 11
-147.416
 21
924.238
  0
LINE
  8
0
 10
-147.416
 20
924.238
 11
-147.05
 21
924.582
  0
LINE
  8
0
 10
-147.05
 20
924.582
 11
-146.643
 21
924.877
  0
LINE
  8
0
 10
-146.643
 20
924.877
 11
-146.203
 21
925.119
  0
LINE
  8
0
 10
-146.203
 20
925.119
 11
-145.736
 21
925.304
  0
LINE
  8
0
 10
-145.736
 20
925.304
 11
-145.25
 21
925.429
  0
LINE
  8
0
 10
-145.25
 20
925.429
 11
-144.751
 21
925.492
  0
LINE
  8
0
 10
-144.751
 20
925.492
 11
144.751
 21
925.492
  0
LINE
  8
0
 10
144.751
 20
925.492
 11
145.25
 21
925.429
  0
LINE
  8
0
 10
145.25
 20
925.429
 11
145.736
 21
925.304
  0
LINE
  8
0
 10
145.736
 20
925.304
 11
146.203
 21
925.119
  0
LINE
  8
0
 10
146.203
 20
925.119
 11
146.643
 21
924.877
  0
LINE
  8
0
 10
146.643
 20
924.877
 11
147.05
 21
924.582
  0
LINE
  8
0
 10
147.05
 20
924.582
 11
147.416
 21
924.238
  0
LINE
  8
0
 10
147.416
 20
924.238
 11
147.736
 21
923.851
  0
LINE
  8
0
 10
147.736
 20
923.851
 11
148.005
 21
923.427
  0
LINE
  8
0
 10
148.005
 20
923.427
 11
148.219
 21
922.972
  0
LINE
  8
0
 10
148.219
 20
922.972
 11
148.374
 21
922.495
  0
LINE
  8
0
 10
148.374
 20
922.495
 11
148.468
 21
922.001
  0
LINE
  8
0
 10
148.468
 20
922.001
 11
148.5
 21
921.5
  0
LINE
  8
0
 10
148.5
 20
921.5
 11
148.5
 21
872.5
  0
LINE
  8
0
 10
148.5
 20
872.5
 11
148.468
 21
871.999
  0
LINE
  8
0
 10
148.468
 20
871.999
 11
148.374
 21
871.505
  0
LINE
  8
0
 10
148.374
 20
871.505
 11
148.219
 21
871.028
  0
LINE
  8
0
 10
148.219
 20
871.028
 11
148.005
 21
870.573
  0
LINE
  8
0
 10
148.005
 20
870.573
 11
147.736
 21
870.149
  0
LINE
  8
0
 10
147.736
 20
870.149
 11
147.416
 21
869.762
  0
LINE
  8
0
 10
147.416
 20
869.762
 11
147.05
 21
869.418
  0
LINE
  8
0
 10
147.05
 20
869.418
 11
146.643
 21
869.123
  0
LINE
  8
0
 10
146.643
 20
869.123
 11
146.203
 21
868.881
  0
LINE
  8
0
 10
146.203
 20
868.881
 11
145.736
 21
868.696
  0
LINE
  8
0
 10
145.736
 20
868.696
 11
145.25
 21
868.571
  0
LINE
  8
0
 10
145.25
 20
868.571
 11
144.751
 21
868.508
  0
LINE
  8
0
 10
144.751
 20
868.508
 11
-144.751
 21
868.508
  0
LINE
  8
0
 10
-148.5
 20
799.441
 11
-148.187
 21
799.147
  0
LINE
  8
0
 10
-148.187
 20
799.147
 11
-147.679
 21
798.778
  0
LINE
  8
0
 10
-147.679
 20
798.778
 11
-147.129
 21
798.476
  0
LINE
  8
0
 10
-147.129
 20
798.476
 11
-146.545
 21
798.245
  0
LINE
  8
0
 10
-146.545
 20
798.245
 11
-145.937
 21
798.089
  0
LINE
  8
0
 10
-145.937
 20
798.089
 11
-145.314
 21
798.01
  0
LINE
  8
0
 10
-145.314
 20
798.01
 11
145.314
 21
798.01
  0
LINE
  8
0
 10
145.314
 20
798.01
 11
145.937
 21
798.089
  0
LINE
  8
0
 10
145.937
 20
798.089
 11
146.545
 21
798.245
  0
LINE
  8
0
 10
146.545
 20
798.245
 11
147.129
 21
798.476
  0
LINE
  8
0
 10
147.129
 20
798.476
 11
147.679
 21
798.778
  0
LINE
  8
0
 10
147.679
 20
798.778
 11
148.187
 21
799.147
  0
LINE
  8
0
 10
148.187
 20
799.147
 11
148.645
 21
799.577
  0
LINE
  8
0
 10
148.645
 20
799.577
 11
149.045
 21
800.061
  0
LINE
  8
0
 10
149.045
 20
800.061
 11
149.382
 21
800.591
  0
LINE
  8
0
 10
149.382
 20
800.591
 11
149.649
 21
801.159
  0
LINE
  8
0
 10
149.649
 20
801.159
 11
149.843
 21
801.757
  0
LINE
  8
0
 10
149.843
 20
801.757
 11
149.961
 21
802.373
  0
LINE
  8
0
 10
149.961
 20
802.373
 11
150
 21
803
  0
LINE
  8
0
 10
150
 20
803
 11
150
 21
853
  0
LINE
  8
0
 10
150
 20
853
 11
149.961
 21
853.627
  0
LINE
  8
0
 10
149.961
 20
853.627
 11
149.843
 21
854.243
  0
LINE
  8
0
 10
149.843
 20
854.243
 11
149.649
 21
854.841
  0
LINE
  8
0
 10
149.649
 20
854.841
 11
149.382
 21
855.409
  0
LINE
  8
0
 10
149.382
 20
855.409
 11
149.045
 21
855.939
  0
LINE
  8
0
 10
149.045
 20
855.939
 11
148.645
 21
856.423
  0
LINE
  8
0
 10
148.645
 20
856.423
 11
148.187
 21
856.853
  0
LINE
  8
0
 10
148.187
 20
856.853
 11
147.679
 21
857.222
  0
LINE
  8
0
 10
147.679
 20
857.222
 11
147.129
 21
857.524
  0
LINE
  8
0
 10
147.129
 20
857.524
 11
146.545
 21
857.755
  0
LINE
  8
0
 10
146.545
 20
857.755
 11
145.937
 21
857.911
  0
LINE
  8
0
 10
145.937
 20
857.911
 11
145.314
 21
857.99
  0
LINE
  8
0
 10
145.314
 20
857.99
 11
-145.314
 21
857.99
  0
LINE
  8
0
 10
-145.314
 20
857.99
 11
-145.937
 21
857.911
  0
LINE
  8
0
 10
-145.937
 20
857.911
 11
-146.545
 21
857.755
  0
LINE
  8
0
 10
-146.545
 20
857.755
 11
-147.129
 21
857.524
  0
LINE
  8
0
 10
-147.129
 20
857.524
 11
-147.679
 21
857.222
  0
LINE
  8
0
 10
-147.679
 20
857.222
 11
-148.187
 21
856.853
  0
LINE
  8
0
 10
-148.187
 20
856.853
 11
-148.5
 21
856.559
  0
LINE
  8
0
 10
-148.5
 20
856.559
 11
-148.5
 21
857.99
  0
LINE
  8
0
 10
-148.5
 20
857.99
 11
-151.5
 21
857.99
  0
LINE
  8
0
 10
-151.5
 20
857.99
 11
-151.5
 21
798.01
  0
LINE
  8
0
 10
-151.5
 20
798.01
 11
-148.5
 21
798.01
  0
LINE
  8
0
 10
-148.5
 20
798.01
 11
-148.5
 21
799.441
  0
LINE
  8
0
 10
-144.751
 20
799.508
 11
-145.25
 21
799.571
  0
LINE
  8
0
 10
-145.25
 20
799.571
 11
-145.736
 21
799.696
  0
LINE
  8
0
 10
-145.736
 20
799.696
 11
-146.203
 21
799.881
  0
LINE
  8
0
 10
-146.203
 20
799.881
 11
-146.643
 21
800.123
  0
LINE
  8
0
 10
-146.643
 20
800.123
 11
-147.05
 21
800.418
  0
LINE
  8
0
 10
-147.05
 20
800.418
 11
-147.416
 21
800.762
  0
LINE
  8
0
 10
-147.416
 20
800.762
 11
-147.736
 21
801.149
  0
LINE
  8
0
 10
-147.736
 20
801.149
 11
-148.005
 21
801.573
  0
LINE
  8
0
 10
-148.005
 20
801.573
 11
-148.219
 21
802.028
  0
LINE
  8
0
 10
-148.219
 20
802.028
 11
-148.374
 21
802.505
  0
LINE
  8
0
 10
-148.374
 20
802.505
 11
-148.468
 21
802.999
  0
LINE
  8
0
 10
-148.468
 20
802.999
 11
-148.5
 21
803.5
  0
LINE
  8
0
 10
-148.5
 20
803.5
 11
-148.5
 21
852.5
  0
LINE
  8
0
 10
-148.5
 20
852.5
 11
-148.468
 21
853.001
  0
LINE
  8
0
 10
-148.468
 20
853.001
 11
-148.374
 21
853.495
  0
LINE
  8
0
 10
-148.374
 20
853.495
 11
-148.219
 21
853.972
  0
LINE
  8
0
 10
-148.219
 20
853.972
 11
-148.005
 21
854.427
  0
LINE
  8
0
 10
-148.005
 20
854.427
 11
-147.736
 21
854.851
  0
LINE
  8
0
 10
-147.736
 20
854.851
 11
-147.416
 21
855.238
  0
LINE
  8
0
 10
-147.416
 20
855.238
 11
-147.05
 21
855.582
  0
LINE
  8
0
 10
-147.05
 20
855.582
 11
-146.643
 21
855.877
  0
LINE
  8
0
 10
-146.643
 20
855.877
 11
-146.203
 21
856.119
  0
LINE
  8
0
 10
-146.203
 20
856.119
 11
-145.736
 21
856.304
  0
LINE
  8
0
 10
-145.736
 20
856.304
 11
-145.25
 21
856.429
  0
LINE
  8
0
 10
-145.25
 20
856.429
 11
-144.751
 21
856.492
  0
LINE
  8
0
 10
-144.751
 20
856.492
 11
144.751
 21
856.492
  0
LINE
  8
0
 10
144.751
 20
856.492
 11
145.25
 21
856.429
  0
LINE
  8
0
 10
145.25
 20
856.429
 11
145.736
 21
856.304
  0
LINE
  8
0
 10
145.736
 20
856.304
 11
146.203
 21
856.119
  0
LINE
  8
0
 10
146.203
 20
856.119
 11
146.643
 21
855.877
  0
LINE
  8
0
 10
146.643
 20
855.877
 11
147.05
 21
855.582
  0
LINE
  8
0
 10
147.05
 20
855.582
 11
147.416
 21
855.238
  0
LINE
  8
0
 10
147.416
 20
855.238
 11
147.736
 21
854.851
  0
LINE
  8
0
 10
147.736
 20
854.851
 11
148.005
 21
854.427
  0
LINE
  8
0
 10
148.005
 20
854.427
 11
148.219
 21
853.972
  0
LINE
  8
0
 10
148.219
 20
853.972
 11
148.374
 21
853.495
  0
LINE
  8
0
 10
148.374
 20
853.495
 11
148.468
 21
853.001
  0
LINE
  8
0
 10
148.468
 20
853.001
 11
148.5
 21
852.5
  0
LINE
  8
0
 10
148.5
 20
852.5
 11
148.5
 21
803.5
  0
LINE
  8
0
 10
148.5
 20
803.5
 11
148.468
 21
802.999
  0
LINE
  8
0
 10
148.468
 20
802.999
 11
148.374
 21
802.505
  0
LINE
  8
0
 10
148.374
 20
802.505
 11
148.219
 21
802.028
  0
LINE
  8
0
 10
148.219
 20
802.028
 11
148.005
 21
801.573
  0
LINE
  8
0
 10
148.005
 20
801.573
 11
147.736
 21
801.149
  0
LINE
  8
0
 10
147.736
 20
801.149
 11
147.416
 21
800.762
  0
LINE
  8
0
 10
147.416
 20
800.762
 11
147.05
 21
800.418
  0
LINE
  8
0
 10
147.05
 20
800.418
 11
146.643
 21
800.123
  0
LINE
  8
0
 10
146.643
 20
800.123
 11
146.203
 21
799.881
  0
LINE
  8
0
 10
146.203
 20
799.881
 11
145.736
 21
799.696
  0
LINE
  8
0
 10
145.736
 20
799.696
 11
145.25
 21
799.571
  0
LINE
  8
0
 10
145.25
 20
799.571
 11
144.751
 21
799.508
  0
LINE
  8
0
 10
144.751
 20
799.508
 11
-144.751
 21
799.508
  0
LINE
  8
0
 10
145.937
 20
729.089
 11
146.545
 21
729.245
  0
LINE
  8
0
 10
146.545
 20
729.245
 11
147.129
 21
729.476
  0
LINE
  8
0
 10
147.129
 20
729.476
 11
147.679
 21
729.778
  0
LINE
  8
0
 10
147.679
 20
729.778
 11
148.187
 21
730.147
  0
LINE
  8
0
 10
148.187
 20
730.147
 11
148.645
 21
730.577
  0
LINE
  8
0
 10
148.645
 20
730.577
 11
149.045
 21
731.061
  0
LINE
  8
0
 10
149.045
 20
731.061
 11
149.382
 21
731.591
  0
LINE
  8
0
 10
149.382
 20
731.591
 11
149.649
 21
732.159
  0
LINE
  8
0
 10
149.649
 20
732.159
 11
149.843
 21
732.757
  0
LINE
  8
0
 10
149.843
 20
732.757
 11
149.961
 21
733.373
  0
LINE
  8
0
 10
149.961
 20
733.373
 11
150
 21
734
  0
LINE
  8
0
 10
150
 20
734
 11
150
 21
784
  0
LINE
  8
0
 10
150
 20
784
 11
149.961
 21
784.627
  0
LINE
  8
0
 10
149.961
 20
784.627
 11
149.843
 21
785.243
  0
LINE
  8
0
 10
149.843
 20
785.243
 11
149.649
 21
785.841
  0
LINE
  8
0
 10
149.649
 20
785.841
 11
149.382
 21
786.409
  0
LINE
  8
0
 10
149.382
 20
786.409
 11
149.045
 21
786.939
  0
LINE
  8
0
 10
149.045
 20
786.939
 11
148.645
 21
787.423
  0
LINE
  8
0
 10
148.645
 20
787.423
 11
148.187
 21
787.853
  0
LINE
  8
0
 10
148.187
 20
787.853
 11
147.679
 21
788.222
  0
LINE
  8
0
 10
147.679
 20
788.222
 11
147.129
 21
788.524
  0
LINE
  8
0
 10
147.129
 20
788.524
 11
146.545
 21
788.755
  0
LINE
  8
0
 10
146.545
 20
788.755
 11
145.937
 21
788.911
  0
LINE
  8
0
 10
145.937
 20
788.911
 11
145.314
 21
788.99
  0
LINE
  8
0
 10
145.314
 20
788.99
 11
-145.314
 21
788.99
  0
LINE
  8
0
 10
-145.314
 20
788.99
 11
-145.937
 21
788.911
  0
LINE
  8
0
 10
-145.937
 20
788.911
 11
-146.545
 21
788.755
  0
LINE
  8
0
 10
-146.545
 20
788.755
 11
-147.129
 21
788.524
  0
LINE
  8
0
 10
-147.129
 20
788.524
 11
-147.679
 21
788.222
  0
LINE
  8
0
 10
-147.679
 20
788.222
 11
-148.187
 21
787.853
  0
LINE
  8
0
 10
-148.187
 20
787.853
 11
-148.5
 21
787.559
  0
LINE
  8
0
 10
-148.5
 20
787.559
 11
-148.5
 21
788.979
  0
LINE
  8
0
 10
-148.5
 20
788.979
 11
-151.5
 21
788.979
  0
LINE
  8
0
 10
-151.5
 20
788.979
 11
-151.5
 21
729.021
  0
LINE
  8
0
 10
-151.5
 20
729.021
 11
-148.5
 21
729.021
  0
LINE
  8
0
 10
-148.5
 20
729.021
 11
-148.5
 21
730.441
  0
LINE
  8
0
 10
-148.5
 20
730.441
 11
-148.187
 21
730.147
  0
LINE
  8
0
 10
-148.187
 20
730.147
 11
-147.679
 21
729.778
  0
LINE
  8
0
 10
-147.679
 20
729.778
 11
-147.129
 21
729.476
  0
LINE
  8
0
 10
-147.129
 20
729.476
 11
-146.545
 21
729.245
  0
LINE
  8
0
 10
-146.545
 20
729.245
 11
-145.937
 21
729.089
  0
LINE
  8
0
 10
-145.937
 20
729.089
 11
-145.314
 21
729.01
  0
LINE
  8
0
 10
-145.314
 20
729.01
 11
145.314
 21
729.01
  0
LINE
  8
0
 10
145.314
 20
729.01
 11
145.937
 21
729.089
  0
LINE
  8
0
 10
-144.695
 20
731.393
 11
-145.083
 21
731.442
  0
LINE
  8
0
 10
-145.083
 20
731.442
 11
-145.462
 21
731.539
  0
LINE
  8
0
 10
-145.462
 20
731.539
 11
-145.825
 21
731.683
  0
LINE
  8
0
 10
-145.825
 20
731.683
 11
-146.168
 21
731.872
  0
LINE
  8
0
 10
-146.168
 20
731.872
 11
-146.484
 21
732.101
  0
LINE
  8
0
 10
-146.484
 20
732.101
 11
-146.769
 21
732.369
  0
LINE
  8
0
 10
-146.769
 20
732.369
 11
-147.018
 21
732.67
  0
LINE
  8
0
 10
-147.018
 20
732.67
 11
-147.228
 21
733
  0
LINE
  8
0
 10
-147.228
 20
733
 11
-147.394
 21
733.354
  0
LINE
  8
0
 10
-147.394
 20
733.354
 11
-147.515
 21
733.726
  0
LINE
  8
0
 10
-147.515
 20
733.726
 11
-147.588
 21
734.11
  0
LINE
  8
0
 10
-147.588
 20
734.11
 11
-147.613
 21
734.5
  0
LINE
  8
0
 10
-147.613
 20
734.5
 11
-147.613
 21
783.5
  0
LINE
  8
0
 10
-147.613
 20
783.5
 11
-147.588
 21
783.89
  0
LINE
  8
0
 10
-147.588
 20
783.89
 11
-147.515
 21
784.274
  0
LINE
  8
0
 10
-147.515
 20
784.274
 11
-147.394
 21
784.646
  0
LINE
  8
0
 10
-147.394
 20
784.646
 11
-147.228
 21
785
  0
LINE
  8
0
 10
-147.228
 20
785
 11
-147.018
 21
785.33
  0
LINE
  8
0
 10
-147.018
 20
785.33
 11
-146.769
 21
785.631
  0
LINE
  8
0
 10
-146.769
 20
785.631
 11
-146.484
 21
785.899
  0
LINE
  8
0
 10
-146.484
 20
785.899
 11
-146.168
 21
786.128
  0
LINE
  8
0
 10
-146.168
 20
786.128
 11
-145.825
 21
786.317
  0
LINE
  8
0
 10
-145.825
 20
786.317
 11
-145.462
 21
786.461
  0
LINE
  8
0
 10
-145.462
 20
786.461
 11
-145.083
 21
786.558
  0
LINE
  8
0
 10
-145.083
 20
786.558
 11
-144.695
 21
786.607
  0
LINE
  8
0
 10
-144.695
 20
786.607
 11
144.695
 21
786.607
  0
LINE
  8
0
 10
144.695
 20
786.607
 11
145.083
 21
786.558
  0
LINE
  8
0
 10
145.083
 20
786.558
 11
145.462
 21
786.461
  0
LINE
  8
0
 10
145.462
 20
786.461
 11
145.825
 21
786.317
  0
LINE
  8
0
 10
145.825
 20
786.317
 11
146.168
 21
786.128
  0
LINE
  8
0
 10
146.168
 20
786.128
 11
146.484
 21
785.899
  0
LINE
  8
0
 10
146.484
 20
785.899
 11
146.769
 21
785.631
  0
LINE
  8
0
 10
146.769
 20
785.631
 11
147.018
 21
785.33
  0
LINE
  8
0
 10
147.018
 20
785.33
 11
147.228
 21
785
  0
LINE
  8
0
 10
147.228
 20
785
 11
147.394
 21
784.646
  0
LINE
  8
0
 10
147.394
 20
784.646
 11
147.515
 21
784.274
  0
LINE
  8
0
 10
147.515
 20
784.274
 11
147.588
 21
783.89
  0
LINE
  8
0
 10
147.588
 20
783.89
 11
147.613
 21
783.5
  0
LINE
  8
0
 10
147.613
 20
783.5
 11
147.613
 21
734.5
  0
LINE
  8
0
 10
147.613
 20
734.5
 11
147.588
 21
734.11
  0
LINE
  8
0
 10
147.588
 20
734.11
 11
147.515
 21
733.726
  0
LINE
  8
0
 10
147.515
 20
733.726
 11
147.394
 21
733.354
  0
LINE
  8
0
 10
147.394
 20
733.354
 11
147.228
 21
733
  0
LINE
  8
0
 10
147.228
 20
733
 11
147.018
 21
732.67
  0
LINE
  8
0
 10
147.018
 20
732.67
 11
146.769
 21
732.369
  0
LINE
  8
0
 10
146.769
 20
732.369
 11
146.484
 21
732.101
  0
LINE
  8
0
 10
146.484
 20
732.101
 11
146.168
 21
731.872
  0
LINE
  8
0
 10
146.168
 20
731.872
 11
145.825
 21
731.683
  0
LINE
  8
0
 10
145.825
 20
731.683
 11
145.462
 21
731.539
  0
LINE
  8
0
 10
145.462
 20
731.539
 11
145.083
 21
731.442
  0
LINE
  8
0
 10
145.083
 20
731.442
 11
144.695
 21
731.393
  0
LINE
  8
0
 10
144.695
 20
731.393
 11
-144.695
 21
731.393
  0
LINE
  8
0
 10
145.937
 20
660.089
 11
146.545
 21
660.245
  0
LINE
  8
0
 10
146.545
 20
660.245
 11
147.129
 21
660.476
  0
LINE
  8
0
 10
147.129
 20
660.476
 11
147.679
 21
660.778
  0
LINE
  8
0
 10
147.679
 20
660.778
 11
148.187
 21
661.147
  0
LINE
  8
0
 10
148.187
 20
661.147
 11
148.645
 21
661.577
  0
LINE
  8
0
 10
148.645
 20
661.577
 11
149.045
 21
662.061
  0
LINE
  8
0
 10
149.045
 20
662.061
 11
149.382
 21
662.591
  0
LINE
  8
0
 10
149.382
 20
662.591
 11
149.649
 21
663.159
  0
LINE
  8
0
 10
149.649
 20
663.159
 11
149.843
 21
663.757
  0
LINE
  8
0
 10
149.843
 20
663.757
 11
149.961
 21
664.373
  0
LINE
  8
0
 10
149.961
 20
664.373
 11
150
 21
665
  0
LINE
  8
0
 10
150
 20
665
 11
150
 21
715
  0
LINE
  8
0
 10
150
 20
715
 11
149.961
 21
715.627
  0
LINE
  8
0
 10
149.961
 20
715.627
 11
149.843
 21
716.243
  0
LINE
  8
0
 10
149.843
 20
716.243
 11
149.649
 21
716.841
  0
LINE
  8
0
 10
149.649
 20
716.841
 11
149.382
 21
717.409
  0
LINE
  8
0
 10
149.382
 20
717.409
 11
149.045
 21
717.939
  0
LINE
  8
0
 10
149.045
 20
717.939
 11
148.645
 21
718.423
  0
LINE
  8
0
 10
148.645
 20
718.423
 11
148.187
 21
718.853
  0
LINE
  8
0
 10
148.187
 20
718.853
 11
147.679
 21
719.222
  0
LINE
  8
0
 10
147.679
 20
719.222
 11
147.129
 21
719.524
  0
LINE
  8
0
 10
147.129
 20
719.524
 11
146.545
 21
719.755
  0
LINE
  8
0
 10
146.545
 20
719.755
 11
145.937
 21
719.911
  0
LINE
  8
0
 10
145.937
 20
719.911
 11
145.314
 21
719.99
  0
LINE
  8
0
 10
145.314
 20
719.99
 11
-145.314
 21
719.99
  0
LINE
  8
0
 10
-145.314
 20
719.99
 11
-145.937
 21
719.911
  0
LINE
  8
0
 10
-145.937
 20
719.911
 11
-146.545
 21
719.755
  0
LINE
  8
0
 10
-146.545
 20
719.755
 11
-147.129
 21
719.524
  0
LINE
  8
0
 10
-147.129
 20
719.524
 11
-147.679
 21
719.222
  0
LINE
  8
0
 10
-147.679
 20
719.222
 11
-148.187
 21
718.853
  0
LINE
  8
0
 10
-148.187
 20
718.853
 11
-148.5
 21
718.559
  0
LINE
  8
0
 10
-148.5
 20
718.559
 11
-148.5
 21
718.653
  0
LINE
  8
0
 10
-148.5
 20
718.653
 11
-151.5
 21
718.653
  0
LINE
  8
0
 10
-151.5
 20
718.653
 11
-151.5
 21
661.347
  0
LINE
  8
0
 10
-151.5
 20
661.347
 11
-148.5
 21
661.347
  0
LINE
  8
0
 10
-148.5
 20
661.347
 11
-148.5
 21
661.441
  0
LINE
  8
0
 10
-148.5
 20
661.441
 11
-148.187
 21
661.147
  0
LINE
  8
0
 10
-148.187
 20
661.147
 11
-147.679
 21
660.778
  0
LINE
  8
0
 10
-147.679
 20
660.778
 11
-147.129
 21
660.476
  0
LINE
  8
0
 10
-147.129
 20
660.476
 11
-146.545
 21
660.245
  0
LINE
  8
0
 10
-146.545
 20
660.245
 11
-145.937
 21
660.089
  0
LINE
  8
0
 10
-145.937
 20
660.089
 11
-145.314
 21
660.01
  0
LINE
  8
0
 10
-145.314
 20
660.01
 11
145.314
 21
660.01
  0
LINE
  8
0
 10
145.314
 20
660.01
 11
145.937
 21
660.089
  0
LINE
  8
0
 10
-142.634
 20
710.369
 11
-142.9
 21
710.403
  0
LINE
  8
0
 10
-142.9
 20
710.403
 11
-143.16
 21
710.469
  0
LINE
  8
0
 10
-143.16
 20
710.469
 11
-143.409
 21
710.568
  0
LINE
  8
0
 10
-143.409
 20
710.568
 11
-143.644
 21
710.697
  0
LINE
  8
0
 10
-143.644
 20
710.697
 11
-143.861
 21
710.855
  0
LINE
  8
0
 10
-143.861
 20
710.855
 11
-144.057
 21
711.038
  0
LINE
  8
0
 10
-144.057
 20
711.038
 11
-144.227
 21
711.245
  0
LINE
  8
0
 10
-144.227
 20
711.245
 11
-144.371
 21
711.471
  0
LINE
  8
0
 10
-144.371
 20
711.471
 11
-144.485
 21
711.714
  0
LINE
  8
0
 10
-144.485
 20
711.714
 11
-144.568
 21
711.969
  0
LINE
  8
0
 10
-144.568
 20
711.969
 11
-144.618
 21
712.232
  0
LINE
  8
0
 10
-144.618
 20
712.232
 11
-144.635
 21
712.5
  0
LINE
  8
0
 10
-144.635
 20
712.5
 11
-144.618
 21
712.768
  0
LINE
  8
0
 10
-144.618
 20
712.768
 11
-144.568
 21
713.031
  0
LINE
  8
0
 10
-144.568
 20
713.031
 11
-144.485
 21
713.286
  0
LINE
  8
0
 10
-144.485
 20
713.286
 11
-144.371
 21
713.529
  0
LINE
  8
0
 10
-144.371
 20
713.529
 11
-144.227
 21
713.755
  0
LINE
  8
0
 10
-144.227
 20
713.755
 11
-144.057
 21
713.962
  0
LINE
  8
0
 10
-144.057
 20
713.962
 11
-143.861
 21
714.145
  0
LINE
  8
0
 10
-143.861
 20
714.145
 11
-143.644
 21
714.303
  0
LINE
  8
0
 10
-143.644
 20
714.303
 11
-143.409
 21
714.432
  0
LINE
  8
0
 10
-143.409
 20
714.432
 11
-143.16
 21
714.531
  0
LINE
  8
0
 10
-143.16
 20
714.531
 11
-142.9
 21
714.597
  0
LINE
  8
0
 10
-142.9
 20
714.597
 11
-142.634
 21
714.631
  0
LINE
  8
0
 10
-142.634
 20
714.631
 11
-142.366
 21
714.631
  0
LINE
  8
0
 10
-142.366
 20
714.631
 11
-142.1
 21
714.597
  0
LINE
  8
0
 10
-142.1
 20
714.597
 11
-141.84
 21
714.531
  0
LINE
  8
0
 10
-141.84
 20
714.531
 11
-141.591
 21
714.432
  0
LINE
  8
0
 10
-141.591
 20
714.432
 11
-141.356
 21
714.303
  0
LINE
  8
0
 10
-141.356
 20
714.303
 11
-141.139
 21
714.145
  0
LINE
  8
0
 10
-141.139
 20
714.145
 11
-140.943
 21
713.962
  0
LINE
  8
0
 10
-140.943
 20
713.962
 11
-140.773
 21
713.755
  0
LINE
  8
0
 10
-140.773
 20
713.755
 11
-140.629
 21
713.529
  0
LINE
  8
0
 10
-140.629
 20
713.529
 11
-140.515
 21
713.286
  0
LINE
  8
0
 10
-140.515
 20
713.286
 11
-140.432
 21
713.031
  0
LINE
  8
0
 10
-140.432
 20
713.031
 11
-140.382
 21
712.768
  0
LINE
  8
0
 10
-140.382
 20
712.768
 11
-140.365
 21
712.5
  0
LINE
  8
0
 10
-140.365
 20
712.5
 11
-140.382
 21
712.232
  0
LINE
  8
0
 10
-140.382
 20
712.232
 11
-140.432
 21
711.969
  0
LINE
  8
0
 10
-140.432
 20
711.969
 11
-140.515
 21
711.714
  0
LINE
  8
0
 10
-140.515
 20
711.714
 11
-140.629
 21
711.471
  0
LINE
  8
0
 10
-140.629
 20
711.471
 11
-140.773
 21
711.245
  0
LINE
  8
0
 10
-140.773
 20
711.245
 11
-140.943
 21
711.038
  0
LINE
  8
0
 10
-140.943
 20
711.038
 11
-141.139
 21
710.855
  0
LINE
  8
0
 10
-141.139
 20
710.855
 11
-141.356
 21
710.697
  0
LINE
  8
0
 10
-141.356
 20
710.697
 11
-141.591
 21
710.568
  0
LINE
  8
0
 10
-141.591
 20
710.568
 11
-141.84
 21
710.469
  0
LINE
  8
0
 10
-141.84
 20
710.469
 11
-142.1
 21
710.403
  0
LINE
  8
0
 10
-142.1
 20
710.403
 11
-142.366
 21
710.369
  0
LINE
  8
0
 10
-142.366
 20
710.369
 11
-142.634
 21
710.369
  0
LINE
  8
0
 10
142.366
 20
710.369
 11
142.1
 21
710.403
  0
LINE
  8
0
 10
142.1
 20
710.403
 11
141.84
 21
710.469
  0
LINE
  8
0
 10
141.84
 20
710.469
 11
141.591
 21
710.568
  0
LINE
  8
0
 10
141.591
 20
710.568
 11
141.356
 21
710.697
  0
LINE
  8
0
 10
141.356
 20
710.697
 11
141.139
 21
710.855
  0
LINE
  8
0
 10
141.139
 20
710.855
 11
140.943
 21
711.038
  0
LINE
  8
0
 10
140.943
 20
711.038
 11
140.773
 21
711.245
  0
LINE
  8
0
 10
140.773
 20
711.245
 11
140.629
 21
711.471
  0
LINE
  8
0
 10
140.629
 20
711.471
 11
140.515
 21
711.714
  0
LINE
  8
0
 10
140.515
 20
711.714
 11
140.432
 21
711.969
  0
LINE
  8
0
 10
140.432
 20
711.969
 11
140.382
 21
712.232
  0
LINE
  8
0
 10
140.382
 20
712.232
 11
140.365
 21
712.5
  0
LINE
  8
0
 10
140.365
 20
712.5
 11
140.382
 21
712.768
  0
LINE
  8
0
 10
140.382
 20
712.768
 11
140.432
 21
713.031
  0
LINE
  8
0
 10
140.432
 20
713.031
 11
140.515
 21
713.286
  0
LINE
  8
0
 10
140.515
 20
713.286
 11
140.629
 21
713.529
  0
LINE
  8
0
 10
140.629
 20
713.529
 11
140.773
 21
713.755
  0
LINE
  8
0
 10
140.773
 20
713.755
 11
140.943
 21
713.962
  0
LINE
  8
0
 10
140.943
 20
713.962
 11
141.139
 21
714.145
  0
LINE
  8
0
 10
141.139
 20
714.145
 11
141.356
 21
714.303
  0
LINE
  8
0
 10
141.356
 20
714.303
 11
141.591
 21
714.432
  0
LINE
  8
0
 10
141.591
 20
714.432
 11
141.84
 21
714.531
  0
LINE
  8
0
 10
141.84
 20
714.531
 11
142.1
 21
714.597
  0
LINE
  8
0
 10
142.1
 20
714.597
 11
142.366
 21
714.631
  0
LINE
  8
0
 10
142.366
 20
714.631
 11
142.634
 21
714.631
  0
LINE
  8
0
 10
142.634
 20
714.631
 11
142.9
 21
714.597
  0
LINE
  8
0
 10
142.9
 20
714.597
 11
143.16
 21
714.531
  0
LINE
  8
0
 10
143.16
 20
714.531
 11
143.409
 21
714.432
  0
LINE
  8
0
 10
143.409
 20
714.432
 11
143.644
 21
714.303
  0
LINE
  8
0
 10
143.644
 20
714.303
 11
143.861
 21
714.145
  0
LINE
  8
0
 10
143.861
 20
714.145
 11
144.057
 21
713.962
  0
LINE
  8
0
 10
144.057
 20
713.962
 11
144.227
 21
713.755
  0
LINE
  8
0
 10
144.227
 20
713.755
 11
144.371
 21
713.529
  0
LINE
  8
0
 10
144.371
 20
713.529
 11
144.485
 21
713.286
  0
LINE
  8
0
 10
144.485
 20
713.286
 11
144.568
 21
713.031
  0
LINE
  8
0
 10
144.568
 20
713.031
 11
144.618
 21
712.768
  0
LINE
  8
0
 10
144.618
 20
712.768
 11
144.635
 21
712.5
  0
LINE
  8
0
 10
144.635
 20
712.5
 11
144.618
 21
712.232
  0
LINE
  8
0
 10
144.618
 20
712.232
 11
144.568
 21
711.969
  0
LINE
  8
0
 10
144.568
 20
711.969
 11
144.485
 21
711.714
  0
LINE
  8
0
 10
144.485
 20
711.714
 11
144.371
 21
711.471
  0
LINE
  8
0
 10
144.371
 20
711.471
 11
144.227
 21
711.245
  0
LINE
  8
0
 10
144.227
 20
711.245
 11
144.057
 21
711.038
  0
LINE
  8
0
 10
144.057
 20
711.038
 11
143.861
 21
710.855
  0
LINE
  8
0
 10
143.861
 20
710.855
 11
143.644
 21
710.697
  0
LINE
  8
0
 10
143.644
 20
710.697
 11
143.409
 21
710.568
  0
LINE
  8
0
 10
143.409
 20
710.568
 11
143.16
 21
710.469
  0
LINE
  8
0
 10
143.16
 20
710.469
 11
142.9
 21
710.403
  0
LINE
  8
0
 10
142.9
 20
710.403
 11
142.634
 21
710.369
  0
LINE
  8
0
 10
142.634
 20
710.369
 11
142.366
 21
710.369
  0
LINE
  8
0
 10
-142.634
 20
665.369
 11
-142.9
 21
665.403
  0
LINE
  8
0
 10
-142.9
 20
665.403
 11
-143.16
 21
665.469
  0
LINE
  8
0
 10
-143.16
 20
665.469
 11
-143.409
 21
665.568
  0
LINE
  8
0
 10
-143.409
 20
665.568
 11
-143.644
 21
665.697
  0
LINE
  8
0
 10
-143.644
 20
665.697
 11
-143.861
 21
665.855
  0
LINE
  8
0
 10
-143.861
 20
665.855
 11
-144.057
 21
666.038
  0
LINE
  8
0
 10
-144.057
 20
666.038
 11
-144.227
 21
666.245
  0
LINE
  8
0
 10
-144.227
 20
666.245
 11
-144.371
 21
666.471
  0
LINE
  8
0
 10
-144.371
 20
666.471
 11
-144.485
 21
666.714
  0
LINE
  8
0
 10
-144.485
 20
666.714
 11
-144.568
 21
666.969
  0
LINE
  8
0
 10
-144.568
 20
666.969
 11
-144.618
 21
667.232
  0
LINE
  8
0
 10
-144.618
 20
667.232
 11
-144.635
 21
667.5
  0
LINE
  8
0
 10
-144.635
 20
667.5
 11
-144.618
 21
667.768
  0
LINE
  8
0
 10
-144.618
 20
667.768
 11
-144.568
 21
668.031
  0
LINE
  8
0
 10
-144.568
 20
668.031
 11
-144.485
 21
668.286
  0
LINE
  8
0
 10
-144.485
 20
668.286
 11
-144.371
 21
668.529
  0
LINE
  8
0
 10
-144.371
 20
668.529
 11
-144.227
 21
668.755
  0
LINE
  8
0
 10
-144.227
 20
668.755
 11
-144.057
 21
668.962
  0
LINE
  8
0
 10
-144.057
 20
668.962
 11
-143.861
 21
669.145
  0
LINE
  8
0
 10
-143.861
 20
669.145
 11
-143.644
 21
669.303
  0
LINE
  8
0
 10
-143.644
 20
669.303
 11
-143.409
 21
669.432
  0
LINE
  8
0
 10
-143.409
 20
669.432
 11
-143.16
 21
669.531
  0
LINE
  8
0
 10
-143.16
 20
669.531
 11
-142.9
 21
669.597
  0
LINE
  8
0
 10
-142.9
 20
669.597
 11
-142.634
 21
669.631
  0
LINE
  8
0
 10
-142.634
 20
669.631
 11
-142.366
 21
669.631
  0
LINE
  8
0
 10
-142.366
 20
669.631
 11
-142.1
 21
669.597
  0
LINE
  8
0
 10
-142.1
 20
669.597
 11
-141.84
 21
669.531
  0
LINE
  8
0
 10
-141.84
 20
669.531
 11
-141.591
 21
669.432
  0
LINE
  8
0
 10
-141.591
 20
669.432
 11
-141.356
 21
669.303
  0
LINE
  8
0
 10
-141.356
 20
669.303
 11
-141.139
 21
669.145
  0
LINE
  8
0
 10
-141.139
 20
669.145
 11
-140.943
 21
668.962
  0
LINE
  8
0
 10
-140.943
 20
668.962
 11
-140.773
 21
668.755
  0
LINE
  8
0
 10
-140.773
 20
668.755
 11
-140.629
 21
668.529
  0
LINE
  8
0
 10
-140.629
 20
668.529
 11
-140.515
 21
668.286
  0
LINE
  8
0
 10
-140.515
 20
668.286
 11
-140.432
 21
668.031
  0
LINE
  8
0
 10
-140.432
 20
668.031
 11
-140.382
 21
667.768
  0
LINE
  8
0
 10
-140.382
 20
667.768
 11
-140.365
 21
667.5
  0
LINE
  8
0
 10
-140.365
 20
667.5
 11
-140.382
 21
667.232
  0
LINE
  8
0
 10
-140.382
 20
667.232
 11
-140.432
 21
666.969
  0
LINE
  8
0
 10
-140.432
 20
666.969
 11
-140.515
 21
666.714
  0
LINE
  8
0
 10
-140.515
 20
666.714
 11
-140.629
 21
666.471
  0
LINE
  8
0
 10
-140.629
 20
666.471
 11
-140.773
 21
666.245
  0
LINE
  8
0
 10
-140.773
 20
666.245
 11
-140.943
 21
666.038
  0
LINE
  8
0
 10
-140.943
 20
666.038
 11
-141.139
 21
665.855
  0
LINE
  8
0
 10
-141.139
 20
665.855
 11
-141.356
 21
665.697
  0
LINE
  8
0
 10
-141.356
 20
665.697
 11
-141.591
 21
665.568
  0
LINE
  8
0
 10
-141.591
 20
665.568
 11
-141.84
 21
665.469
  0
LINE
  8
0
 10
-141.84
 20
665.469
 11
-142.1
 21
665.403
  0
LINE
  8
0
 10
-142.1
 20
665.403
 11
-142.366
 21
665.369
  0
LINE
  8
0
 10
-142.366
 20
665.369
 11
-142.634
 21
665.369
  0
LINE
  8
0
 10
142.366
 20
665.369
 11
142.1
 21
665.403
  0
LINE
  8
0
 10
142.1
 20
665.403
 11
141.84
 21
665.469
  0
LINE
  8
0
 10
141.84
 20
665.469
 11
141.591
 21
665.568
  0
LINE
  8
0
 10
141.591
 20
665.568
 11
141.356
 21
665.697
  0
LINE
  8
0
 10
141.356
 20
665.697
 11
141.139
 21
665.855
  0
LINE
  8
0
 10
141.139
 20
665.855
 11
140.943
 21
666.038
  0
LINE
  8
0
 10
140.943
 20
666.038
 11
140.773
 21
666.245
  0
LINE
  8
0
 10
140.773
 20
666.245
 11
140.629
 21
666.471
  0
LINE
  8
0
 10
140.629
 20
666.471
 11
140.515
 21
666.714
  0
LINE
  8
0
 10
140.515
 20
666.714
 11
140.432
 21
666.969
  0
LINE
  8
0
 10
140.432
 20
666.969
 11
140.382
 21
667.232
  0
LINE
  8
0
 10
140.382
 20
667.232
 11
140.365
 21
667.5
  0
LINE
  8
0
 10
140.365
 20
667.5
 11
140.382
 21
667.768
  0
LINE
  8
0
 10
140.382
 20
667.768
 11
140.432
 21
668.031
  0
LINE
  8
0
 10
140.432
 20
668.031
 11
140.515
 21
668.286
  0
LINE
  8
0
 10
140.515
 20
668.286
 11
140.629
 21
668.529
  0
LINE
  8
0
 10
140.629
 20
668.529
 11
140.773
 21
668.755
  0
LINE
  8
0
 10
140.773
 20
668.755
 11
140.943
 21
668.962
  0
LINE
  8
0
 10
140.943
 20
668.962
 11
141.139
 21
669.145
  0
LINE
  8
0
 10
141.139
 20
669.145
 11
141.356
 21
669.303
  0
LINE
  8
0
 10
141.356
 20
669.303
 11
141.591
 21
669.432
  0
LINE
  8
0
 10
141.591
 20
669.432
 11
141.84
 21
669.531
  0
LINE
  8
0
 10
141.84
 20
669.531
 11
142.1
 21
669.597
  0
LINE
  8
0
 10
142.1
 20
669.597
 11
142.366
 21
669.631
  0
LINE
  8
0
 10
142.366
 20
669.631
 11
142.634
 21
669.631
  0
LINE
  8
0
 10
142.634
 20
669.631
 11
142.9
 21
669.597
  0
LINE
  8
0
 10
142.9
 20
669.597
 11
143.16
 21
669.531
  0
LINE
  8
0
 10
143.16
 20
669.531
 11
143.409
 21
669.432
  0
LINE
  8
0
 10
143.409
 20
669.432
 11
143.644
 21
669.303
  0
LINE
  8
0
 10
143.644
 20
669.303
 11
143.861
 21
669.145
  0
LINE
  8
0
 10
143.861
 20
669.145
 11
144.057
 21
668.962
  0
LINE
  8
0
 10
144.057
 20
668.962
 11
144.227
 21
668.755
  0
LINE
  8
0
 10
144.227
 20
668.755
 11
144.371
 21
668.529
  0
LINE
  8
0
 10
144.371
 20
668.529
 11
144.485
 21
668.286
  0
LINE
  8
0
 10
144.485
 20
668.286
 11
144.568
 21
668.031
  0
LINE
  8
0
 10
144.568
 20
668.031
 11
144.618
 21
667.768
  0
LINE
  8
0
 10
144.618
 20
667.768
 11
144.635
 21
667.5
  0
LINE
  8
0
 10
144.635
 20
667.5
 11
144.618
 21
667.232
  0
LINE
  8
0
 10
144.618
 20
667.232
 11
144.568
 21
666.969
  0
LINE
  8
0
 10
144.568
 20
666.969
 11
144.485
 21
666.714
  0
LINE
  8
0
 10
144.485
 20
666.714
 11
144.371
 21
666.471
  0
LINE
  8
0
 10
144.371
 20
666.471
 11
144.227
 21
666.245
  0
LINE
  8
0
 10
144.227
 20
666.245
 11
144.057
 21
666.038
  0
LINE
  8
0
 10
144.057
 20
666.038
 11
143.861
 21
665.855
  0
LINE
  8
0
 10
143.861
 20
665.855
 11
143.644
 21
665.697
  0
LINE
  8
0
 10
143.644
 20
665.697
 11
143.409
 21
665.568
  0
LINE
  8
0
 10
143.409
 20
665.568
 11
143.16
 21
665.469
  0
LINE
  8
0
 10
143.16
 20
665.469
 11
142.9
 21
665.403
  0
LINE
  8
0
 10
142.9
 20
665.403
 11
142.634
 21
665.369
  0
LINE
  8
0
 10
142.634
 20
665.369
 11
142.366
 21
665.369
  0
ENDSEC
  0
SECTION
  2
OBJECTS
  0
DICTIONARY
  0
ENDSEC
  0
EOF
