<?xml version="1.0" standalone="no"?>
<!DOCTYPE svg PUBLIC "-//W3C//DTD SVG 1.1//EN" "http://www.w3.org/Graphics/SVG/1.1/DTD/svg11.dtd">
<svg width="256mm" height="489mm" viewBox="-128 -618 256 489" xmlns="http://www.w3.org/2000/svg" version="1.1">
<title>OpenSCAD Model</title>
<path d="
M 123.437,-378.089 L 124.045,-378.245 L 124.629,-378.476 L 125.179,-378.778 L 125.687,-379.147 L 126.145,-379.577
 L 126.545,-380.061 L 126.882,-380.591 L 127.149,-381.159 L 127.343,-381.757 L 127.461,-382.373 L 127.5,-383
 L 127.5,-613 L 127.461,-613.627 L 127.343,-614.243 L 127.149,-614.841 L 126.882,-615.409 L 126.545,-615.939
 L 126.145,-616.423 L 125.687,-616.853 L 125.179,-617.222 L 124.629,-617.524 L 124.045,-617.755 L 123.437,-617.911
 L 122.814,-617.99 L -122.814,-617.99 L -123.437,-617.911 L -124.045,-617.755 L -124.629,-617.524 L -125.179,-617.222
 L -125.687,-616.853 L -126.145,-616.423 L -126.545,-615.939 L -126.882,-615.409 L -127.149,-614.841 L -127.343,-614.243
 L -127.461,-613.627 L -127.5,-613 L -127.5,-383 L -127.461,-382.373 L -127.343,-381.757 L -127.149,-381.159
 L -126.882,-380.591 L -126.545,-380.061 L -126.145,-379.577 L -125.687,-379.147 L -125.179,-378.778 L -124.629,-378.476
 L -124.045,-378.245 L -123.437,-378.089 L -122.814,-378.01 L 122.814,-378.01 z
M -122.493,-379.388 L -122.975,-379.449 L -123.446,-379.57 L -123.898,-379.749 L -124.323,-379.983 L -124.716,-380.269
 L -125.071,-380.601 L -125.38,-380.976 L -125.641,-381.386 L -125.848,-381.826 L -125.998,-382.288 L -126.089,-382.765
 L -126.119,-383.25 L -126.119,-612.75 L -126.089,-613.235 L -125.998,-613.712 L -125.848,-614.174 L -125.641,-614.614
 L -125.38,-615.024 L -125.071,-615.399 L -124.716,-615.731 L -124.323,-616.017 L -123.898,-616.251 L -123.446,-616.43
 L -122.975,-616.551 L -122.493,-616.612 L 122.493,-616.612 L 122.975,-616.551 L 123.446,-616.43 L 123.898,-616.251
 L 124.323,-616.017 L 124.716,-615.731 L 125.071,-615.399 L 125.38,-615.024 L 125.641,-614.614 L 125.848,-614.174
 L 125.998,-613.712 L 126.089,-613.235 L 126.119,-612.75 L 126.119,-383.25 L 126.089,-382.765 L 125.998,-382.288
 L 125.848,-381.826 L 125.641,-381.386 L 125.38,-380.976 L 125.071,-380.601 L 124.716,-380.269 L 124.323,-379.983
 L 123.898,-379.749 L 123.446,-379.57 L 122.975,-379.449 L 122.493,-379.388 z
M 123.437,-129.089 L 124.045,-129.245 L 124.629,-129.476 L 125.179,-129.778 L 125.687,-130.147 L 126.145,-130.577
 L 126.545,-131.061 L 126.882,-131.591 L 127.149,-132.159 L 127.343,-132.757 L 127.461,-133.373 L 127.5,-134
 L 127.5,-364 L 127.461,-364.627 L 127.343,-365.243 L 127.149,-365.841 L 126.882,-366.409 L 126.545,-366.939
 L 126.145,-367.423 L 125.687,-367.853 L 125.179,-368.222 L 124.629,-368.524 L 124.045,-368.755 L 123.437,-368.911
 L 122.814,-368.99 L -122.814,-368.99 L -123.437,-368.911 L -124.045,-368.755 L -124.629,-368.524 L -125.179,-368.222
 L -125.687,-367.853 L -126.145,-367.423 L -126.545,-366.939 L -126.882,-366.409 L -127.149,-365.841 L -127.343,-365.243
 L -127.461,-364.627 L -127.5,-364 L -127.5,-134 L -127.461,-133.373 L -127.343,-132.757 L -127.149,-132.159
 L -126.882,-131.591 L -126.545,-131.061 L -126.145,-130.577 L -125.687,-130.147 L -125.179,-129.778 L -124.629,-129.476
 L -124.045,-129.245 L -123.437,-129.089 L -122.814,-129.01 L 122.814,-129.01 z
M 119.887,-359.704 L 119.663,-359.732 L 119.444,-359.788 L 119.234,-359.871 L 119.036,-359.98 L 118.853,-360.113
 L 118.688,-360.268 L 118.544,-360.442 L 118.423,-360.633 L 118.326,-360.837 L 118.257,-361.052 L 118.214,-361.274
 L 118.2,-361.5 L 118.214,-361.726 L 118.257,-361.948 L 118.326,-362.163 L 118.423,-362.367 L 118.544,-362.558
 L 118.688,-362.732 L 118.853,-362.887 L 119.036,-363.02 L 119.234,-363.129 L 119.444,-363.212 L 119.663,-363.268
 L 119.887,-363.296 L 120.113,-363.296 L 120.337,-363.268 L 120.556,-363.212 L 120.766,-363.129 L 120.964,-363.02
 L 121.147,-362.887 L 121.312,-362.732 L 121.456,-362.558 L 121.577,-362.367 L 121.674,-362.163 L 121.743,-361.948
 L 121.786,-361.726 L 121.8,-361.5 L 121.786,-361.274 L 121.743,-361.052 L 121.674,-360.837 L 121.577,-360.633
 L 121.456,-360.442 L 121.312,-360.268 L 121.147,-360.113 L 120.964,-359.98 L 120.766,-359.871 L 120.556,-359.788
 L 120.337,-359.732 L 120.113,-359.704 z
M -120.113,-359.704 L -120.337,-359.732 L -120.556,-359.788 L -120.766,-359.871 L -120.964,-359.98 L -121.147,-360.113
 L -121.312,-360.268 L -121.456,-360.442 L -121.577,-360.633 L -121.674,-360.837 L -121.743,-361.052 L -121.786,-361.274
 L -121.8,-361.5 L -121.786,-361.726 L -121.743,-361.948 L -121.674,-362.163 L -121.577,-362.367 L -121.456,-362.558
 L -121.312,-362.732 L -121.147,-362.887 L -120.964,-363.02 L -120.766,-363.129 L -120.556,-363.212 L -120.337,-363.268
 L -120.113,-363.296 L -119.887,-363.296 L -119.663,-363.268 L -119.444,-363.212 L -119.234,-363.129 L -119.036,-363.02
 L -118.853,-362.887 L -118.688,-362.732 L -118.544,-362.558 L -118.423,-362.367 L -118.326,-362.163 L -118.257,-361.948
 L -118.214,-361.726 L -118.2,-361.5 L -118.214,-361.274 L -118.257,-361.052 L -118.326,-360.837 L -118.423,-360.633
 L -118.544,-360.442 L -118.688,-360.268 L -118.853,-360.113 L -119.036,-359.98 L -119.234,-359.871 L -119.444,-359.788
 L -119.663,-359.732 L -119.887,-359.704 z
M -120.113,-134.704 L -120.337,-134.732 L -120.556,-134.788 L -120.766,-134.871 L -120.964,-134.98 L -121.147,-135.113
 L -121.312,-135.268 L -121.456,-135.442 L -121.577,-135.633 L -121.674,-135.837 L -121.743,-136.052 L -121.786,-136.274
 L -121.8,-136.5 L -121.786,-136.726 L -121.743,-136.948 L -121.674,-137.163 L -121.577,-137.367 L -121.456,-137.558
 L -121.312,-137.732 L -121.147,-137.887 L -120.964,-138.02 L -120.766,-138.129 L -120.556,-138.212 L -120.337,-138.268
 L -120.113,-138.296 L -119.887,-138.296 L -119.663,-138.268 L -119.444,-138.212 L -119.234,-138.129 L -119.036,-138.02
 L -118.853,-137.887 L -118.688,-137.732 L -118.544,-137.558 L -118.423,-137.367 L -118.326,-137.163 L -118.257,-136.948
 L -118.214,-136.726 L -118.2,-136.5 L -118.214,-136.274 L -118.257,-136.052 L -118.326,-135.837 L -118.423,-135.633
 L -118.544,-135.442 L -118.688,-135.268 L -118.853,-135.113 L -119.036,-134.98 L -119.234,-134.871 L -119.444,-134.788
 L -119.663,-134.732 L -119.887,-134.704 z
M 119.887,-134.704 L 119.663,-134.732 L 119.444,-134.788 L 119.234,-134.871 L 119.036,-134.98 L 118.853,-135.113
 L 118.688,-135.268 L 118.544,-135.442 L 118.423,-135.633 L 118.326,-135.837 L 118.257,-136.052 L 118.214,-136.274
 L 118.2,-136.5 L 118.214,-136.726 L 118.257,-136.948 L 118.326,-137.163 L 118.423,-137.367 L 118.544,-137.558
 L 118.688,-137.732 L 118.853,-137.887 L 119.036,-138.02 L 119.234,-138.129 L 119.444,-138.212 L 119.663,-138.268
 L 119.887,-138.296 L 120.113,-138.296 L 120.337,-138.268 L 120.556,-138.212 L 120.766,-138.129 L 120.964,-138.02
 L 121.147,-137.887 L 121.312,-137.732 L 121.456,-137.558 L 121.577,-137.367 L 121.674,-137.163 L 121.743,-136.948
 L 121.786,-136.726 L 121.8,-136.5 L 121.786,-136.274 L 121.743,-136.052 L 121.674,-135.837 L 121.577,-135.633
 L 121.456,-135.442 L 121.312,-135.268 L 121.147,-135.113 L 120.964,-134.98 L 120.766,-134.871 L 120.556,-134.788
 L 120.337,-134.732 L 120.113,-134.704 z
" stroke="black" fill="lightgray" stroke-width="0.5"/>
</svg>
