<?xml version="1.0" standalone="no"?>
<!DOCTYPE svg PUBLIC "-//W3C//DTD SVG 1.1//EN" "http://www.w3.org/Graphics/SVG/1.1/DTD/svg11.dtd">
<svg width="256mm" height="520mm" viewBox="-128 -920 256 520" xmlns="http://www.w3.org/2000/svg" version="1.1">
<title>OpenSCAD Model</title>
<path d="
M 123.437,-664.589 L 124.045,-664.745 L 124.629,-664.976 L 125.179,-665.278 L 125.687,-665.647 L 126.145,-666.077
 L 126.545,-666.561 L 126.882,-667.091 L 127.149,-667.659 L 127.343,-668.257 L 127.461,-668.873 L 127.5,-669.5
 L 127.5,-914.5 L 127.461,-915.127 L 127.343,-915.743 L 127.149,-916.341 L 126.882,-916.909 L 126.545,-917.439
 L 126.145,-917.923 L 125.687,-918.353 L 125.179,-918.722 L 124.629,-919.024 L 124.045,-919.255 L 123.437,-919.411
 L 122.814,-919.49 L -122.814,-919.49 L -123.437,-919.411 L -124.045,-919.255 L -124.629,-919.024 L -125.179,-918.722
 L -125.687,-918.353 L -126.145,-917.923 L -126.545,-917.439 L -126.882,-916.909 L -127.149,-916.341 L -127.343,-915.743
 L -127.461,-915.127 L -127.5,-914.5 L -127.5,-669.5 L -127.461,-668.873 L -127.343,-668.257 L -127.149,-667.659
 L -126.882,-667.091 L -126.545,-666.561 L -126.145,-666.077 L -125.687,-665.647 L -125.179,-665.278 L -124.629,-664.976
 L -124.045,-664.745 L -123.437,-664.589 L -122.814,-664.51 L 122.814,-664.51 z
M -122.195,-666.893 L -122.583,-666.942 L -122.962,-667.039 L -123.325,-667.183 L -123.668,-667.372 L -123.984,-667.601
 L -124.269,-667.869 L -124.518,-668.17 L -124.728,-668.5 L -124.894,-668.854 L -125.015,-669.226 L -125.088,-669.61
 L -125.113,-670 L -125.113,-914 L -125.088,-914.39 L -125.015,-914.774 L -124.894,-915.146 L -124.728,-915.5
 L -124.518,-915.83 L -124.269,-916.131 L -123.984,-916.399 L -123.668,-916.628 L -123.325,-916.817 L -122.962,-916.961
 L -122.583,-917.058 L -122.195,-917.107 L 122.195,-917.107 L 122.583,-917.058 L 122.962,-916.961 L 123.325,-916.817
 L 123.668,-916.628 L 123.984,-916.399 L 124.269,-916.131 L 124.518,-915.83 L 124.728,-915.5 L 124.894,-915.146
 L 125.015,-914.774 L 125.088,-914.39 L 125.113,-914 L 125.113,-670 L 125.088,-669.61 L 125.015,-669.226
 L 124.894,-668.854 L 124.728,-668.5 L 124.518,-668.17 L 124.269,-667.869 L 123.984,-667.601 L 123.668,-667.372
 L 123.325,-667.183 L 122.962,-667.039 L 122.583,-666.942 L 122.195,-666.893 z
M 123.437,-400.589 L 124.045,-400.745 L 124.629,-400.976 L 125.179,-401.278 L 125.687,-401.647 L 126.145,-402.077
 L 126.545,-402.561 L 126.882,-403.091 L 127.149,-403.659 L 127.343,-404.257 L 127.461,-404.873 L 127.5,-405.5
 L 127.5,-650.5 L 127.461,-651.127 L 127.343,-651.743 L 127.149,-652.341 L 126.882,-652.909 L 126.545,-653.439
 L 126.145,-653.923 L 125.687,-654.353 L 125.179,-654.722 L 124.629,-655.024 L 124.045,-655.255 L 123.437,-655.411
 L 122.814,-655.49 L -122.814,-655.49 L -123.437,-655.411 L -124.045,-655.255 L -124.629,-655.024 L -125.179,-654.722
 L -125.687,-654.353 L -126.145,-653.923 L -126.545,-653.439 L -126.882,-652.909 L -127.149,-652.341 L -127.343,-651.743
 L -127.461,-651.127 L -127.5,-650.5 L -127.5,-405.5 L -127.461,-404.873 L -127.343,-404.257 L -127.149,-403.659
 L -126.882,-403.091 L -126.545,-402.561 L -126.145,-402.077 L -125.687,-401.647 L -125.179,-401.278 L -124.629,-400.976
 L -124.045,-400.745 L -123.437,-400.589 L -122.814,-400.51 L 122.814,-400.51 z
M 119.866,-645.869 L 119.6,-645.903 L 119.34,-645.969 L 119.091,-646.068 L 118.856,-646.197 L 118.639,-646.355
 L 118.443,-646.538 L 118.273,-646.745 L 118.129,-646.971 L 118.015,-647.214 L 117.932,-647.469 L 117.882,-647.732
 L 117.865,-648 L 117.882,-648.268 L 117.932,-648.531 L 118.015,-648.786 L 118.129,-649.029 L 118.273,-649.255
 L 118.443,-649.462 L 118.639,-649.645 L 118.856,-649.803 L 119.091,-649.932 L 119.34,-650.031 L 119.6,-650.097
 L 119.866,-650.131 L 120.134,-650.131 L 120.4,-650.097 L 120.66,-650.031 L 120.909,-649.932 L 121.144,-649.803
 L 121.361,-649.645 L 121.557,-649.462 L 121.727,-649.255 L 121.871,-649.029 L 121.985,-648.786 L 122.068,-648.531
 L 122.118,-648.268 L 122.135,-648 L 122.118,-647.732 L 122.068,-647.469 L 121.985,-647.214 L 121.871,-646.971
 L 121.727,-646.745 L 121.557,-646.538 L 121.361,-646.355 L 121.144,-646.197 L 120.909,-646.068 L 120.66,-645.969
 L 120.4,-645.903 L 120.134,-645.869 z
M -120.134,-645.869 L -120.4,-645.903 L -120.66,-645.969 L -120.909,-646.068 L -121.144,-646.197 L -121.361,-646.355
 L -121.557,-646.538 L -121.727,-646.745 L -121.871,-646.971 L -121.985,-647.214 L -122.068,-647.469 L -122.118,-647.732
 L -122.135,-648 L -122.118,-648.268 L -122.068,-648.531 L -121.985,-648.786 L -121.871,-649.029 L -121.727,-649.255
 L -121.557,-649.462 L -121.361,-649.645 L -121.144,-649.803 L -120.909,-649.932 L -120.66,-650.031 L -120.4,-650.097
 L -120.134,-650.131 L -119.866,-650.131 L -119.6,-650.097 L -119.34,-650.031 L -119.091,-649.932 L -118.856,-649.803
 L -118.639,-649.645 L -118.443,-649.462 L -118.273,-649.255 L -118.129,-649.029 L -118.015,-648.786 L -117.932,-648.531
 L -117.882,-648.268 L -117.865,-648 L -117.882,-647.732 L -117.932,-647.469 L -118.015,-647.214 L -118.129,-646.971
 L -118.273,-646.745 L -118.443,-646.538 L -118.639,-646.355 L -118.856,-646.197 L -119.091,-646.068 L -119.34,-645.969
 L -119.6,-645.903 L -119.866,-645.869 z
M 119.866,-405.869 L 119.6,-405.903 L 119.34,-405.969 L 119.091,-406.068 L 118.856,-406.197 L 118.639,-406.355
 L 118.443,-406.538 L 118.273,-406.745 L 118.129,-406.971 L 118.015,-407.214 L 117.932,-407.469 L 117.882,-407.732
 L 117.865,-408 L 117.882,-408.268 L 117.932,-408.531 L 118.015,-408.786 L 118.129,-409.029 L 118.273,-409.255
 L 118.443,-409.462 L 118.639,-409.645 L 118.856,-409.803 L 119.091,-409.932 L 119.34,-410.031 L 119.6,-410.097
 L 119.866,-410.131 L 120.134,-410.131 L 120.4,-410.097 L 120.66,-410.031 L 120.909,-409.932 L 121.144,-409.803
 L 121.361,-409.645 L 121.557,-409.462 L 121.727,-409.255 L 121.871,-409.029 L 121.985,-408.786 L 122.068,-408.531
 L 122.118,-408.268 L 122.135,-408 L 122.118,-407.732 L 122.068,-407.469 L 121.985,-407.214 L 121.871,-406.971
 L 121.727,-406.745 L 121.557,-406.538 L 121.361,-406.355 L 121.144,-406.197 L 120.909,-406.068 L 120.66,-405.969
 L 120.4,-405.903 L 120.134,-405.869 z
M -120.134,-405.869 L -120.4,-405.903 L -120.66,-405.969 L -120.909,-406.068 L -121.144,-406.197 L -121.361,-406.355
 L -121.557,-406.538 L -121.727,-406.745 L -121.871,-406.971 L -121.985,-407.214 L -122.068,-407.469 L -122.118,-407.732
 L -122.135,-408 L -122.118,-408.268 L -122.068,-408.531 L -121.985,-408.786 L -121.871,-409.029 L -121.727,-409.255
 L -121.557,-409.462 L -121.361,-409.645 L -121.144,-409.803 L -120.909,-409.932 L -120.66,-410.031 L -120.4,-410.097
 L -120.134,-410.131 L -119.866,-410.131 L -119.6,-410.097 L -119.34,-410.031 L -119.091,-409.932 L -118.856,-409.803
 L -118.639,-409.645 L -118.443,-409.462 L -118.273,-409.255 L -118.129,-409.029 L -118.015,-408.786 L -117.932,-408.531
 L -117.882,-408.268 L -117.865,-408 L -117.882,-407.732 L -117.932,-407.469 L -118.015,-407.214 L -118.129,-406.971
 L -118.273,-406.745 L -118.443,-406.538 L -118.639,-406.355 L -118.856,-406.197 L -119.091,-406.068 L -119.34,-405.969
 L -119.6,-405.903 L -119.866,-405.869 z
" stroke="black" fill="lightgray" stroke-width="0.5"/>
</svg>
