<?xml version="1.0" standalone="no"?>
<!DOCTYPE svg PUBLIC "-//W3C//DTD SVG 1.1//EN" "http://www.w3.org/Graphics/SVG/1.1/DTD/svg11.dtd">
<svg width="302mm" height="520mm" viewBox="-152 -920 302 520" xmlns="http://www.w3.org/2000/svg" version="1.1">
<title>OpenSCAD Model</title>
<path d="
M 145.937,-664.589 L 146.545,-664.745 L 147.129,-664.976 L 147.679,-665.278 L 148.187,-665.647 L 148.645,-666.077
 L 149.045,-666.561 L 149.382,-667.091 L 149.649,-667.659 L 149.843,-668.257 L 149.961,-668.873 L 150,-669.5
 L 150,-914.5 L 149.961,-915.127 L 149.843,-915.743 L 149.649,-916.341 L 149.382,-916.909 L 149.045,-917.439
 L 148.645,-917.923 L 148.187,-918.353 L 147.679,-918.722 L 147.129,-919.024 L 146.545,-919.255 L 145.937,-919.411
 L 145.314,-919.49 L -145.314,-919.49 L -145.937,-919.411 L -146.545,-919.255 L -147.129,-919.024 L -147.679,-918.722
 L -148.187,-918.353 L -148.5,-918.059 L -148.5,-919.479 L -151.5,-919.479 L -151.5,-664.521 L -148.5,-664.521
 L -148.5,-665.941 L -148.187,-665.647 L -147.679,-665.278 L -147.129,-664.976 L -146.545,-664.745 L -145.937,-664.589
 L -145.314,-664.51 L 145.314,-664.51 z
M -144.695,-666.893 L -145.083,-666.942 L -145.462,-667.039 L -145.825,-667.183 L -146.168,-667.372 L -146.484,-667.601
 L -146.769,-667.869 L -147.018,-668.17 L -147.228,-668.5 L -147.394,-668.854 L -147.515,-669.226 L -147.588,-669.61
 L -147.613,-670 L -147.613,-914 L -147.588,-914.39 L -147.515,-914.774 L -147.394,-915.146 L -147.228,-915.5
 L -147.018,-915.83 L -146.769,-916.131 L -146.484,-916.399 L -146.168,-916.628 L -145.825,-916.817 L -145.462,-916.961
 L -145.083,-917.058 L -144.695,-917.107 L 144.695,-917.107 L 145.083,-917.058 L 145.462,-916.961 L 145.825,-916.817
 L 146.168,-916.628 L 146.484,-916.399 L 146.769,-916.131 L 147.018,-915.83 L 147.228,-915.5 L 147.394,-915.146
 L 147.515,-914.774 L 147.588,-914.39 L 147.613,-914 L 147.613,-670 L 147.588,-669.61 L 147.515,-669.226
 L 147.394,-668.854 L 147.228,-668.5 L 147.018,-668.17 L 146.769,-667.869 L 146.484,-667.601 L 146.168,-667.372
 L 145.825,-667.183 L 145.462,-667.039 L 145.083,-666.942 L 144.695,-666.893 z
M 145.937,-400.589 L 146.545,-400.745 L 147.129,-400.976 L 147.679,-401.278 L 148.187,-401.647 L 148.645,-402.077
 L 149.045,-402.561 L 149.382,-403.091 L 149.649,-403.659 L 149.843,-404.257 L 149.961,-404.873 L 150,-405.5
 L 150,-650.5 L 149.961,-651.127 L 149.843,-651.743 L 149.649,-652.341 L 149.382,-652.909 L 149.045,-653.439
 L 148.645,-653.923 L 148.187,-654.353 L 147.679,-654.722 L 147.129,-655.024 L 146.545,-655.255 L 145.937,-655.411
 L 145.314,-655.49 L -145.314,-655.49 L -145.937,-655.411 L -146.545,-655.255 L -147.129,-655.024 L -147.679,-654.722
 L -148.187,-654.353 L -148.5,-654.059 L -148.5,-654.153 L -151.5,-654.153 L -151.5,-401.847 L -148.5,-401.847
 L -148.5,-401.941 L -148.187,-401.647 L -147.679,-401.278 L -147.129,-400.976 L -146.545,-400.745 L -145.937,-400.589
 L -145.314,-400.51 L 145.314,-400.51 z
M 142.366,-645.869 L 142.1,-645.903 L 141.84,-645.969 L 141.591,-646.068 L 141.356,-646.197 L 141.139,-646.355
 L 140.943,-646.538 L 140.773,-646.745 L 140.629,-646.971 L 140.515,-647.214 L 140.432,-647.469 L 140.382,-647.732
 L 140.365,-648 L 140.382,-648.268 L 140.432,-648.531 L 140.515,-648.786 L 140.629,-649.029 L 140.773,-649.255
 L 140.943,-649.462 L 141.139,-649.645 L 141.356,-649.803 L 141.591,-649.932 L 141.84,-650.031 L 142.1,-650.097
 L 142.366,-650.131 L 142.634,-650.131 L 142.9,-650.097 L 143.16,-650.031 L 143.409,-649.932 L 143.644,-649.803
 L 143.861,-649.645 L 144.057,-649.462 L 144.227,-649.255 L 144.371,-649.029 L 144.485,-648.786 L 144.568,-648.531
 L 144.618,-648.268 L 144.635,-648 L 144.618,-647.732 L 144.568,-647.469 L 144.485,-647.214 L 144.371,-646.971
 L 144.227,-646.745 L 144.057,-646.538 L 143.861,-646.355 L 143.644,-646.197 L 143.409,-646.068 L 143.16,-645.969
 L 142.9,-645.903 L 142.634,-645.869 z
M -142.634,-645.869 L -142.9,-645.903 L -143.16,-645.969 L -143.409,-646.068 L -143.644,-646.197 L -143.861,-646.355
 L -144.057,-646.538 L -144.227,-646.745 L -144.371,-646.971 L -144.485,-647.214 L -144.568,-647.469 L -144.618,-647.732
 L -144.635,-648 L -144.618,-648.268 L -144.568,-648.531 L -144.485,-648.786 L -144.371,-649.029 L -144.227,-649.255
 L -144.057,-649.462 L -143.861,-649.645 L -143.644,-649.803 L -143.409,-649.932 L -143.16,-650.031 L -142.9,-650.097
 L -142.634,-650.131 L -142.366,-650.131 L -142.1,-650.097 L -141.84,-650.031 L -141.591,-649.932 L -141.356,-649.803
 L -141.139,-649.645 L -140.943,-649.462 L -140.773,-649.255 L -140.629,-649.029 L -140.515,-648.786 L -140.432,-648.531
 L -140.382,-648.268 L -140.365,-648 L -140.382,-647.732 L -140.432,-647.469 L -140.515,-647.214 L -140.629,-646.971
 L -140.773,-646.745 L -140.943,-646.538 L -141.139,-646.355 L -141.356,-646.197 L -141.591,-646.068 L -141.84,-645.969
 L -142.1,-645.903 L -142.366,-645.869 z
M 142.366,-405.869 L 142.1,-405.903 L 141.84,-405.969 L 141.591,-406.068 L 141.356,-406.197 L 141.139,-406.355
 L 140.943,-406.538 L 140.773,-406.745 L 140.629,-406.971 L 140.515,-407.214 L 140.432,-407.469 L 140.382,-407.732
 L 140.365,-408 L 140.382,-408.268 L 140.432,-408.531 L 140.515,-408.786 L 140.629,-409.029 L 140.773,-409.255
 L 140.943,-409.462 L 141.139,-409.645 L 141.356,-409.803 L 141.591,-409.932 L 141.84,-410.031 L 142.1,-410.097
 L 142.366,-410.131 L 142.634,-410.131 L 142.9,-410.097 L 143.16,-410.031 L 143.409,-409.932 L 143.644,-409.803
 L 143.861,-409.645 L 144.057,-409.462 L 144.227,-409.255 L 144.371,-409.029 L 144.485,-408.786 L 144.568,-408.531
 L 144.618,-408.268 L 144.635,-408 L 144.618,-407.732 L 144.568,-407.469 L 144.485,-407.214 L 144.371,-406.971
 L 144.227,-406.745 L 144.057,-406.538 L 143.861,-406.355 L 143.644,-406.197 L 143.409,-406.068 L 143.16,-405.969
 L 142.9,-405.903 L 142.634,-405.869 z
M -142.634,-405.869 L -142.9,-405.903 L -143.16,-405.969 L -143.409,-406.068 L -143.644,-406.197 L -143.861,-406.355
 L -144.057,-406.538 L -144.227,-406.745 L -144.371,-406.971 L -144.485,-407.214 L -144.568,-407.469 L -144.618,-407.732
 L -144.635,-408 L -144.618,-408.268 L -144.568,-408.531 L -144.485,-408.786 L -144.371,-409.029 L -144.227,-409.255
 L -144.057,-409.462 L -143.861,-409.645 L -143.644,-409.803 L -143.409,-409.932 L -143.16,-410.031 L -142.9,-410.097
 L -142.634,-410.131 L -142.366,-410.131 L -142.1,-410.097 L -141.84,-410.031 L -141.591,-409.932 L -141.356,-409.803
 L -141.139,-409.645 L -140.943,-409.462 L -140.773,-409.255 L -140.629,-409.029 L -140.515,-408.786 L -140.432,-408.531
 L -140.382,-408.268 L -140.365,-408 L -140.382,-407.732 L -140.432,-407.469 L -140.515,-407.214 L -140.629,-406.971
 L -140.773,-406.745 L -140.943,-406.538 L -141.139,-406.355 L -141.356,-406.197 L -141.591,-406.068 L -141.84,-405.969
 L -142.1,-405.903 L -142.366,-405.869 z
" stroke="black" fill="lightgray" stroke-width="0.5"/>
</svg>
