<?xml version="1.0" standalone="no"?>
<!DOCTYPE svg PUBLIC "-//W3C//DTD SVG 1.1//EN" "http://www.w3.org/Graphics/SVG/1.1/DTD/svg11.dtd">
<svg width="226mm" height="1168mm" viewBox="-113 -2201 226 1168" xmlns="http://www.w3.org/2000/svg" version="1.1">
<title>OpenSCAD Model</title>
<path d="
M 108.437,-1915.59 L 109.045,-1915.74 L 109.629,-1915.98 L 110.179,-1916.28 L 110.687,-1916.65 L 111.145,-1917.08
 L 111.545,-1917.56 L 111.882,-1918.09 L 112.149,-1918.66 L 112.343,-1919.26 L 112.461,-1919.87 L 112.5,-1920.5
 L 112.5,-2195.5 L 112.461,-2196.13 L 112.343,-2196.74 L 112.149,-2197.34 L 111.882,-2197.91 L 111.545,-2198.44
 L 111.145,-2198.92 L 110.687,-2199.35 L 110.179,-2199.72 L 109.629,-2200.02 L 109.045,-2200.26 L 108.437,-2200.41
 L 107.814,-2200.49 L -107.814,-2200.49 L -108.437,-2200.41 L -109.045,-2200.26 L -109.629,-2200.02 L -110.179,-2199.72
 L -110.687,-2199.35 L -111.145,-2198.92 L -111.545,-2198.44 L -111.882,-2197.91 L -112.149,-2197.34 L -112.343,-2196.74
 L -112.461,-2196.13 L -112.5,-2195.5 L -112.5,-1920.5 L -112.461,-1919.87 L -112.343,-1919.26 L -112.149,-1918.66
 L -111.882,-1918.09 L -111.545,-1917.56 L -111.145,-1917.08 L -110.687,-1916.65 L -110.179,-1916.28 L -109.629,-1915.98
 L -109.045,-1915.74 L -108.437,-1915.59 L -107.814,-1915.51 L 107.814,-1915.51 z
M -107.251,-1917.01 L -107.75,-1917.07 L -108.236,-1917.2 L -108.703,-1917.38 L -109.143,-1917.62 L -109.55,-1917.92
 L -109.916,-1918.26 L -110.236,-1918.65 L -110.505,-1919.07 L -110.719,-1919.53 L -110.874,-1920.01 L -110.968,-1920.5
 L -111,-1921 L -111,-2195 L -110.968,-2195.5 L -110.874,-2195.99 L -110.719,-2196.47 L -110.505,-2196.93
 L -110.236,-2197.35 L -109.916,-2197.74 L -109.55,-2198.08 L -109.143,-2198.38 L -108.703,-2198.62 L -108.236,-2198.8
 L -107.75,-2198.93 L -107.251,-2198.99 L 107.251,-2198.99 L 107.75,-2198.93 L 108.236,-2198.8 L 108.703,-2198.62
 L 109.143,-2198.38 L 109.55,-2198.08 L 109.916,-2197.74 L 110.236,-2197.35 L 110.505,-2196.93 L 110.719,-2196.47
 L 110.874,-2195.99 L 110.968,-2195.5 L 111,-2195 L 111,-1921 L 110.968,-1920.5 L 110.874,-1920.01
 L 110.719,-1919.53 L 110.505,-1919.07 L 110.236,-1918.65 L 109.916,-1918.26 L 109.55,-1917.92 L 109.143,-1917.62
 L 108.703,-1917.38 L 108.236,-1917.2 L 107.75,-1917.07 L 107.251,-1917.01 z
M 108.437,-1621.59 L 109.045,-1621.74 L 109.629,-1621.98 L 110.179,-1622.28 L 110.687,-1622.65 L 111.145,-1623.08
 L 111.545,-1623.56 L 111.882,-1624.09 L 112.149,-1624.66 L 112.343,-1625.26 L 112.461,-1625.87 L 112.5,-1626.5
 L 112.5,-1901.5 L 112.461,-1902.13 L 112.343,-1902.74 L 112.149,-1903.34 L 111.882,-1903.91 L 111.545,-1904.44
 L 111.145,-1904.92 L 110.687,-1905.35 L 110.179,-1905.72 L 109.629,-1906.02 L 109.045,-1906.26 L 108.437,-1906.41
 L 107.814,-1906.49 L -107.814,-1906.49 L -108.437,-1906.41 L -109.045,-1906.26 L -109.629,-1906.02 L -110.179,-1905.72
 L -110.687,-1905.35 L -111.145,-1904.92 L -111.545,-1904.44 L -111.882,-1903.91 L -112.149,-1903.34 L -112.343,-1902.74
 L -112.461,-1902.13 L -112.5,-1901.5 L -112.5,-1626.5 L -112.461,-1625.87 L -112.343,-1625.26 L -112.149,-1624.66
 L -111.882,-1624.09 L -111.545,-1623.56 L -111.145,-1623.08 L -110.687,-1622.65 L -110.179,-1622.28 L -109.629,-1621.98
 L -109.045,-1621.74 L -108.437,-1621.59 L -107.814,-1621.51 L 107.814,-1621.51 z
M -107.251,-1623.01 L -107.75,-1623.07 L -108.236,-1623.2 L -108.703,-1623.38 L -109.143,-1623.62 L -109.55,-1623.92
 L -109.916,-1624.26 L -110.236,-1624.65 L -110.505,-1625.07 L -110.719,-1625.53 L -110.874,-1626.01 L -110.968,-1626.5
 L -111,-1627 L -111,-1901 L -110.968,-1901.5 L -110.874,-1901.99 L -110.719,-1902.47 L -110.505,-1902.93
 L -110.236,-1903.35 L -109.916,-1903.74 L -109.55,-1904.08 L -109.143,-1904.38 L -108.703,-1904.62 L -108.236,-1904.8
 L -107.75,-1904.93 L -107.251,-1904.99 L 107.251,-1904.99 L 107.75,-1904.93 L 108.236,-1904.8 L 108.703,-1904.62
 L 109.143,-1904.38 L 109.55,-1904.08 L 109.916,-1903.74 L 110.236,-1903.35 L 110.505,-1902.93 L 110.719,-1902.47
 L 110.874,-1901.99 L 110.968,-1901.5 L 111,-1901 L 111,-1627 L 110.968,-1626.5 L 110.874,-1626.01
 L 110.719,-1625.53 L 110.505,-1625.07 L 110.236,-1624.65 L 109.916,-1624.26 L 109.55,-1623.92 L 109.143,-1623.62
 L 108.703,-1623.38 L 108.236,-1623.2 L 107.75,-1623.07 L 107.251,-1623.01 z
M 108.437,-1327.59 L 109.045,-1327.74 L 109.629,-1327.98 L 110.179,-1328.28 L 110.687,-1328.65 L 111.145,-1329.08
 L 111.545,-1329.56 L 111.882,-1330.09 L 112.149,-1330.66 L 112.343,-1331.26 L 112.461,-1331.87 L 112.5,-1332.5
 L 112.5,-1607.5 L 112.461,-1608.13 L 112.343,-1608.74 L 112.149,-1609.34 L 111.882,-1609.91 L 111.545,-1610.44
 L 111.145,-1610.92 L 110.687,-1611.35 L 110.179,-1611.72 L 109.629,-1612.02 L 109.045,-1612.26 L 108.437,-1612.41
 L 107.814,-1612.49 L -107.814,-1612.49 L -108.437,-1612.41 L -109.045,-1612.26 L -109.629,-1612.02 L -110.179,-1611.72
 L -110.687,-1611.35 L -111.145,-1610.92 L -111.545,-1610.44 L -111.882,-1609.91 L -112.149,-1609.34 L -112.343,-1608.74
 L -112.461,-1608.13 L -112.5,-1607.5 L -112.5,-1332.5 L -112.461,-1331.87 L -112.343,-1331.26 L -112.149,-1330.66
 L -111.882,-1330.09 L -111.545,-1329.56 L -111.145,-1329.08 L -110.687,-1328.65 L -110.179,-1328.28 L -109.629,-1327.98
 L -109.045,-1327.74 L -108.437,-1327.59 L -107.814,-1327.51 L 107.814,-1327.51 z
M -107.195,-1329.89 L -107.583,-1329.94 L -107.962,-1330.04 L -108.325,-1330.18 L -108.668,-1330.37 L -108.984,-1330.6
 L -109.269,-1330.87 L -109.518,-1331.17 L -109.728,-1331.5 L -109.894,-1331.85 L -110.015,-1332.23 L -110.088,-1332.61
 L -110.113,-1333 L -110.113,-1607 L -110.088,-1607.39 L -110.015,-1607.77 L -109.894,-1608.15 L -109.728,-1608.5
 L -109.518,-1608.83 L -109.269,-1609.13 L -108.984,-1609.4 L -108.668,-1609.63 L -108.325,-1609.82 L -107.962,-1609.96
 L -107.583,-1610.06 L -107.195,-1610.11 L 107.195,-1610.11 L 107.583,-1610.06 L 107.962,-1609.96 L 108.325,-1609.82
 L 108.668,-1609.63 L 108.984,-1609.4 L 109.269,-1609.13 L 109.518,-1608.83 L 109.728,-1608.5 L 109.894,-1608.15
 L 110.015,-1607.77 L 110.088,-1607.39 L 110.113,-1607 L 110.113,-1333 L 110.088,-1332.61 L 110.015,-1332.23
 L 109.894,-1331.85 L 109.728,-1331.5 L 109.518,-1331.17 L 109.269,-1330.87 L 108.984,-1330.6 L 108.668,-1330.37
 L 108.325,-1330.18 L 107.962,-1330.04 L 107.583,-1329.94 L 107.195,-1329.89 z
M 108.437,-1033.59 L 109.045,-1033.74 L 109.629,-1033.98 L 110.179,-1034.28 L 110.687,-1034.65 L 111.145,-1035.08
 L 111.545,-1035.56 L 111.882,-1036.09 L 112.149,-1036.66 L 112.343,-1037.26 L 112.461,-1037.87 L 112.5,-1038.5
 L 112.5,-1313.5 L 112.461,-1314.13 L 112.343,-1314.74 L 112.149,-1315.34 L 111.882,-1315.91 L 111.545,-1316.44
 L 111.145,-1316.92 L 110.687,-1317.35 L 110.179,-1317.72 L 109.629,-1318.02 L 109.045,-1318.26 L 108.437,-1318.41
 L 107.814,-1318.49 L -107.814,-1318.49 L -108.437,-1318.41 L -109.045,-1318.26 L -109.629,-1318.02 L -110.179,-1317.72
 L -110.687,-1317.35 L -111.145,-1316.92 L -111.545,-1316.44 L -111.882,-1315.91 L -112.149,-1315.34 L -112.343,-1314.74
 L -112.461,-1314.13 L -112.5,-1313.5 L -112.5,-1038.5 L -112.461,-1037.87 L -112.343,-1037.26 L -112.149,-1036.66
 L -111.882,-1036.09 L -111.545,-1035.56 L -111.145,-1035.08 L -110.687,-1034.65 L -110.179,-1034.28 L -109.629,-1033.98
 L -109.045,-1033.74 L -108.437,-1033.59 L -107.814,-1033.51 L 107.814,-1033.51 z
M 104.866,-1308.87 L 104.6,-1308.9 L 104.34,-1308.97 L 104.091,-1309.07 L 103.856,-1309.2 L 103.639,-1309.35
 L 103.443,-1309.54 L 103.273,-1309.74 L 103.129,-1309.97 L 103.015,-1310.21 L 102.932,-1310.47 L 102.882,-1310.73
 L 102.865,-1311 L 102.882,-1311.27 L 102.932,-1311.53 L 103.015,-1311.79 L 103.129,-1312.03 L 103.273,-1312.26
 L 103.443,-1312.46 L 103.639,-1312.65 L 103.856,-1312.8 L 104.091,-1312.93 L 104.34,-1313.03 L 104.6,-1313.1
 L 104.866,-1313.13 L 105.134,-1313.13 L 105.4,-1313.1 L 105.66,-1313.03 L 105.909,-1312.93 L 106.144,-1312.8
 L 106.361,-1312.65 L 106.557,-1312.46 L 106.727,-1312.26 L 106.871,-1312.03 L 106.985,-1311.79 L 107.068,-1311.53
 L 107.118,-1311.27 L 107.135,-1311 L 107.118,-1310.73 L 107.068,-1310.47 L 106.985,-1310.21 L 106.871,-1309.97
 L 106.727,-1309.74 L 106.557,-1309.54 L 106.361,-1309.35 L 106.144,-1309.2 L 105.909,-1309.07 L 105.66,-1308.97
 L 105.4,-1308.9 L 105.134,-1308.87 z
M -105.134,-1308.87 L -105.4,-1308.9 L -105.66,-1308.97 L -105.909,-1309.07 L -106.144,-1309.2 L -106.361,-1309.35
 L -106.557,-1309.54 L -106.727,-1309.74 L -106.871,-1309.97 L -106.985,-1310.21 L -107.068,-1310.47 L -107.118,-1310.73
 L -107.135,-1311 L -107.118,-1311.27 L -107.068,-1311.53 L -106.985,-1311.79 L -106.871,-1312.03 L -106.727,-1312.26
 L -106.557,-1312.46 L -106.361,-1312.65 L -106.144,-1312.8 L -105.909,-1312.93 L -105.66,-1313.03 L -105.4,-1313.1
 L -105.134,-1313.13 L -104.866,-1313.13 L -104.6,-1313.1 L -104.34,-1313.03 L -104.091,-1312.93 L -103.856,-1312.8
 L -103.639,-1312.65 L -103.443,-1312.46 L -103.273,-1312.26 L -103.129,-1312.03 L -103.015,-1311.79 L -102.932,-1311.53
 L -102.882,-1311.27 L -102.865,-1311 L -102.882,-1310.73 L -102.932,-1310.47 L -103.015,-1310.21 L -103.129,-1309.97
 L -103.273,-1309.74 L -103.443,-1309.54 L -103.639,-1309.35 L -103.856,-1309.2 L -104.091,-1309.07 L -104.34,-1308.97
 L -104.6,-1308.9 L -104.866,-1308.87 z
M 104.866,-1038.87 L 104.6,-1038.9 L 104.34,-1038.97 L 104.091,-1039.07 L 103.856,-1039.2 L 103.639,-1039.35
 L 103.443,-1039.54 L 103.273,-1039.74 L 103.129,-1039.97 L 103.015,-1040.21 L 102.932,-1040.47 L 102.882,-1040.73
 L 102.865,-1041 L 102.882,-1041.27 L 102.932,-1041.53 L 103.015,-1041.79 L 103.129,-1042.03 L 103.273,-1042.26
 L 103.443,-1042.46 L 103.639,-1042.65 L 103.856,-1042.8 L 104.091,-1042.93 L 104.34,-1043.03 L 104.6,-1043.1
 L 104.866,-1043.13 L 105.134,-1043.13 L 105.4,-1043.1 L 105.66,-1043.03 L 105.909,-1042.93 L 106.144,-1042.8
 L 106.361,-1042.65 L 106.557,-1042.46 L 106.727,-1042.26 L 106.871,-1042.03 L 106.985,-1041.79 L 107.068,-1041.53
 L 107.118,-1041.27 L 107.135,-1041 L 107.118,-1040.73 L 107.068,-1040.47 L 106.985,-1040.21 L 106.871,-1039.97
 L 106.727,-1039.74 L 106.557,-1039.54 L 106.361,-1039.35 L 106.144,-1039.2 L 105.909,-1039.07 L 105.66,-1038.97
 L 105.4,-1038.9 L 105.134,-1038.87 z
M -105.134,-1038.87 L -105.4,-1038.9 L -105.66,-1038.97 L -105.909,-1039.07 L -106.144,-1039.2 L -106.361,-1039.35
 L -106.557,-1039.54 L -106.727,-1039.74 L -106.871,-1039.97 L -106.985,-1040.21 L -107.068,-1040.47 L -107.118,-1040.73
 L -107.135,-1041 L -107.118,-1041.27 L -107.068,-1041.53 L -106.985,-1041.79 L -106.871,-1042.03 L -106.727,-1042.26
 L -106.557,-1042.46 L -106.361,-1042.65 L -106.144,-1042.8 L -105.909,-1042.93 L -105.66,-1043.03 L -105.4,-1043.1
 L -105.134,-1043.13 L -104.866,-1043.13 L -104.6,-1043.1 L -104.34,-1043.03 L -104.091,-1042.93 L -103.856,-1042.8
 L -103.639,-1042.65 L -103.443,-1042.46 L -103.273,-1042.26 L -103.129,-1042.03 L -103.015,-1041.79 L -102.932,-1041.53
 L -102.882,-1041.27 L -102.865,-1041 L -102.882,-1040.73 L -102.932,-1040.47 L -103.015,-1040.21 L -103.129,-1039.97
 L -103.273,-1039.74 L -103.443,-1039.54 L -103.639,-1039.35 L -103.856,-1039.2 L -104.091,-1039.07 L -104.34,-1038.97
 L -104.6,-1038.9 L -104.866,-1038.87 z
" stroke="black" fill="lightgray" stroke-width="0.5"/>
</svg>
