<?xml version="1.0" standalone="no"?>
<!DOCTYPE svg PUBLIC "-//W3C//DTD SVG 1.1//EN" "http://www.w3.org/Graphics/SVG/1.1/DTD/svg11.dtd">
<svg width="286mm" height="1462mm" viewBox="-143 -2789 286 1462" xmlns="http://www.w3.org/2000/svg" version="1.1">
<title>OpenSCAD Model</title>
<path d="
M 138.437,-2503.59 L 139.045,-2503.74 L 139.629,-2503.98 L 140.179,-2504.28 L 140.687,-2504.65 L 141.145,-2505.08
 L 141.545,-2505.56 L 141.882,-2506.09 L 142.149,-2506.66 L 142.343,-2507.26 L 142.461,-2507.87 L 142.5,-2508.5
 L 142.5,-2783.5 L 142.461,-2784.13 L 142.343,-2784.74 L 142.149,-2785.34 L 141.882,-2785.91 L 141.545,-2786.44
 L 141.145,-2786.92 L 140.687,-2787.35 L 140.179,-2787.72 L 139.629,-2788.02 L 139.045,-2788.26 L 138.437,-2788.41
 L 137.814,-2788.49 L -137.814,-2788.49 L -138.437,-2788.41 L -139.045,-2788.26 L -139.629,-2788.02 L -140.179,-2787.72
 L -140.687,-2787.35 L -141.145,-2786.92 L -141.545,-2786.44 L -141.882,-2785.91 L -142.149,-2785.34 L -142.343,-2784.74
 L -142.461,-2784.13 L -142.5,-2783.5 L -142.5,-2508.5 L -142.461,-2507.87 L -142.343,-2507.26 L -142.149,-2506.66
 L -141.882,-2506.09 L -141.545,-2505.56 L -141.145,-2505.08 L -140.687,-2504.65 L -140.179,-2504.28 L -139.629,-2503.98
 L -139.045,-2503.74 L -138.437,-2503.59 L -137.814,-2503.51 L 137.814,-2503.51 z
M -137.251,-2505.01 L -137.75,-2505.07 L -138.236,-2505.2 L -138.703,-2505.38 L -139.143,-2505.62 L -139.55,-2505.92
 L -139.916,-2506.26 L -140.236,-2506.65 L -140.505,-2507.07 L -140.719,-2507.53 L -140.874,-2508.01 L -140.968,-2508.5
 L -141,-2509 L -141,-2783 L -140.968,-2783.5 L -140.874,-2783.99 L -140.719,-2784.47 L -140.505,-2784.93
 L -140.236,-2785.35 L -139.916,-2785.74 L -139.55,-2786.08 L -139.143,-2786.38 L -138.703,-2786.62 L -138.236,-2786.8
 L -137.75,-2786.93 L -137.251,-2786.99 L 137.251,-2786.99 L 137.75,-2786.93 L 138.236,-2786.8 L 138.703,-2786.62
 L 139.143,-2786.38 L 139.55,-2786.08 L 139.916,-2785.74 L 140.236,-2785.35 L 140.505,-2784.93 L 140.719,-2784.47
 L 140.874,-2783.99 L 140.968,-2783.5 L 141,-2783 L 141,-2509 L 140.968,-2508.5 L 140.874,-2508.01
 L 140.719,-2507.53 L 140.505,-2507.07 L 140.236,-2506.65 L 139.916,-2506.26 L 139.55,-2505.92 L 139.143,-2505.62
 L 138.703,-2505.38 L 138.236,-2505.2 L 137.75,-2505.07 L 137.251,-2505.01 z
M 138.437,-2209.59 L 139.045,-2209.74 L 139.629,-2209.98 L 140.179,-2210.28 L 140.687,-2210.65 L 141.145,-2211.08
 L 141.545,-2211.56 L 141.882,-2212.09 L 142.149,-2212.66 L 142.343,-2213.26 L 142.461,-2213.87 L 142.5,-2214.5
 L 142.5,-2489.5 L 142.461,-2490.13 L 142.343,-2490.74 L 142.149,-2491.34 L 141.882,-2491.91 L 141.545,-2492.44
 L 141.145,-2492.92 L 140.687,-2493.35 L 140.179,-2493.72 L 139.629,-2494.02 L 139.045,-2494.26 L 138.437,-2494.41
 L 137.814,-2494.49 L -137.814,-2494.49 L -138.437,-2494.41 L -139.045,-2494.26 L -139.629,-2494.02 L -140.179,-2493.72
 L -140.687,-2493.35 L -141.145,-2492.92 L -141.545,-2492.44 L -141.882,-2491.91 L -142.149,-2491.34 L -142.343,-2490.74
 L -142.461,-2490.13 L -142.5,-2489.5 L -142.5,-2214.5 L -142.461,-2213.87 L -142.343,-2213.26 L -142.149,-2212.66
 L -141.882,-2212.09 L -141.545,-2211.56 L -141.145,-2211.08 L -140.687,-2210.65 L -140.179,-2210.28 L -139.629,-2209.98
 L -139.045,-2209.74 L -138.437,-2209.59 L -137.814,-2209.51 L 137.814,-2209.51 z
M -137.251,-2211.01 L -137.75,-2211.07 L -138.236,-2211.2 L -138.703,-2211.38 L -139.143,-2211.62 L -139.55,-2211.92
 L -139.916,-2212.26 L -140.236,-2212.65 L -140.505,-2213.07 L -140.719,-2213.53 L -140.874,-2214.01 L -140.968,-2214.5
 L -141,-2215 L -141,-2489 L -140.968,-2489.5 L -140.874,-2489.99 L -140.719,-2490.47 L -140.505,-2490.93
 L -140.236,-2491.35 L -139.916,-2491.74 L -139.55,-2492.08 L -139.143,-2492.38 L -138.703,-2492.62 L -138.236,-2492.8
 L -137.75,-2492.93 L -137.251,-2492.99 L 137.251,-2492.99 L 137.75,-2492.93 L 138.236,-2492.8 L 138.703,-2492.62
 L 139.143,-2492.38 L 139.55,-2492.08 L 139.916,-2491.74 L 140.236,-2491.35 L 140.505,-2490.93 L 140.719,-2490.47
 L 140.874,-2489.99 L 140.968,-2489.5 L 141,-2489 L 141,-2215 L 140.968,-2214.5 L 140.874,-2214.01
 L 140.719,-2213.53 L 140.505,-2213.07 L 140.236,-2212.65 L 139.916,-2212.26 L 139.55,-2211.92 L 139.143,-2211.62
 L 138.703,-2211.38 L 138.236,-2211.2 L 137.75,-2211.07 L 137.251,-2211.01 z
M 138.437,-1915.59 L 139.045,-1915.74 L 139.629,-1915.98 L 140.179,-1916.28 L 140.687,-1916.65 L 141.145,-1917.08
 L 141.545,-1917.56 L 141.882,-1918.09 L 142.149,-1918.66 L 142.343,-1919.26 L 142.461,-1919.87 L 142.5,-1920.5
 L 142.5,-2195.5 L 142.461,-2196.13 L 142.343,-2196.74 L 142.149,-2197.34 L 141.882,-2197.91 L 141.545,-2198.44
 L 141.145,-2198.92 L 140.687,-2199.35 L 140.179,-2199.72 L 139.629,-2200.02 L 139.045,-2200.26 L 138.437,-2200.41
 L 137.814,-2200.49 L -137.814,-2200.49 L -138.437,-2200.41 L -139.045,-2200.26 L -139.629,-2200.02 L -140.179,-2199.72
 L -140.687,-2199.35 L -141.145,-2198.92 L -141.545,-2198.44 L -141.882,-2197.91 L -142.149,-2197.34 L -142.343,-2196.74
 L -142.461,-2196.13 L -142.5,-2195.5 L -142.5,-1920.5 L -142.461,-1919.87 L -142.343,-1919.26 L -142.149,-1918.66
 L -141.882,-1918.09 L -141.545,-1917.56 L -141.145,-1917.08 L -140.687,-1916.65 L -140.179,-1916.28 L -139.629,-1915.98
 L -139.045,-1915.74 L -138.437,-1915.59 L -137.814,-1915.51 L 137.814,-1915.51 z
M -137.251,-1917.01 L -137.75,-1917.07 L -138.236,-1917.2 L -138.703,-1917.38 L -139.143,-1917.62 L -139.55,-1917.92
 L -139.916,-1918.26 L -140.236,-1918.65 L -140.505,-1919.07 L -140.719,-1919.53 L -140.874,-1920.01 L -140.968,-1920.5
 L -141,-1921 L -141,-2195 L -140.968,-2195.5 L -140.874,-2195.99 L -140.719,-2196.47 L -140.505,-2196.93
 L -140.236,-2197.35 L -139.916,-2197.74 L -139.55,-2198.08 L -139.143,-2198.38 L -138.703,-2198.62 L -138.236,-2198.8
 L -137.75,-2198.93 L -137.251,-2198.99 L 137.251,-2198.99 L 137.75,-2198.93 L 138.236,-2198.8 L 138.703,-2198.62
 L 139.143,-2198.38 L 139.55,-2198.08 L 139.916,-2197.74 L 140.236,-2197.35 L 140.505,-2196.93 L 140.719,-2196.47
 L 140.874,-2195.99 L 140.968,-2195.5 L 141,-2195 L 141,-1921 L 140.968,-1920.5 L 140.874,-1920.01
 L 140.719,-1919.53 L 140.505,-1919.07 L 140.236,-1918.65 L 139.916,-1918.26 L 139.55,-1917.92 L 139.143,-1917.62
 L 138.703,-1917.38 L 138.236,-1917.2 L 137.75,-1917.07 L 137.251,-1917.01 z
M 138.437,-1621.59 L 139.045,-1621.74 L 139.629,-1621.98 L 140.179,-1622.28 L 140.687,-1622.65 L 141.145,-1623.08
 L 141.545,-1623.56 L 141.882,-1624.09 L 142.149,-1624.66 L 142.343,-1625.26 L 142.461,-1625.87 L 142.5,-1626.5
 L 142.5,-1901.5 L 142.461,-1902.13 L 142.343,-1902.74 L 142.149,-1903.34 L 141.882,-1903.91 L 141.545,-1904.44
 L 141.145,-1904.92 L 140.687,-1905.35 L 140.179,-1905.72 L 139.629,-1906.02 L 139.045,-1906.26 L 138.437,-1906.41
 L 137.814,-1906.49 L -137.814,-1906.49 L -138.437,-1906.41 L -139.045,-1906.26 L -139.629,-1906.02 L -140.179,-1905.72
 L -140.687,-1905.35 L -141.145,-1904.92 L -141.545,-1904.44 L -141.882,-1903.91 L -142.149,-1903.34 L -142.343,-1902.74
 L -142.461,-1902.13 L -142.5,-1901.5 L -142.5,-1626.5 L -142.461,-1625.87 L -142.343,-1625.26 L -142.149,-1624.66
 L -141.882,-1624.09 L -141.545,-1623.56 L -141.145,-1623.08 L -140.687,-1622.65 L -140.179,-1622.28 L -139.629,-1621.98
 L -139.045,-1621.74 L -138.437,-1621.59 L -137.814,-1621.51 L 137.814,-1621.51 z
M -137.195,-1623.89 L -137.583,-1623.94 L -137.962,-1624.04 L -138.325,-1624.18 L -138.668,-1624.37 L -138.984,-1624.6
 L -139.269,-1624.87 L -139.518,-1625.17 L -139.728,-1625.5 L -139.894,-1625.85 L -140.015,-1626.23 L -140.088,-1626.61
 L -140.113,-1627 L -140.113,-1901 L -140.088,-1901.39 L -140.015,-1901.77 L -139.894,-1902.15 L -139.728,-1902.5
 L -139.518,-1902.83 L -139.269,-1903.13 L -138.984,-1903.4 L -138.668,-1903.63 L -138.325,-1903.82 L -137.962,-1903.96
 L -137.583,-1904.06 L -137.195,-1904.11 L 137.195,-1904.11 L 137.583,-1904.06 L 137.962,-1903.96 L 138.325,-1903.82
 L 138.668,-1903.63 L 138.984,-1903.4 L 139.269,-1903.13 L 139.518,-1902.83 L 139.728,-1902.5 L 139.894,-1902.15
 L 140.015,-1901.77 L 140.088,-1901.39 L 140.113,-1901 L 140.113,-1627 L 140.088,-1626.61 L 140.015,-1626.23
 L 139.894,-1625.85 L 139.728,-1625.5 L 139.518,-1625.17 L 139.269,-1624.87 L 138.984,-1624.6 L 138.668,-1624.37
 L 138.325,-1624.18 L 137.962,-1624.04 L 137.583,-1623.94 L 137.195,-1623.89 z
M 138.437,-1327.59 L 139.045,-1327.74 L 139.629,-1327.98 L 140.179,-1328.28 L 140.687,-1328.65 L 141.145,-1329.08
 L 141.545,-1329.56 L 141.882,-1330.09 L 142.149,-1330.66 L 142.343,-1331.26 L 142.461,-1331.87 L 142.5,-1332.5
 L 142.5,-1607.5 L 142.461,-1608.13 L 142.343,-1608.74 L 142.149,-1609.34 L 141.882,-1609.91 L 141.545,-1610.44
 L 141.145,-1610.92 L 140.687,-1611.35 L 140.179,-1611.72 L 139.629,-1612.02 L 139.045,-1612.26 L 138.437,-1612.41
 L 137.814,-1612.49 L -137.814,-1612.49 L -138.437,-1612.41 L -139.045,-1612.26 L -139.629,-1612.02 L -140.179,-1611.72
 L -140.687,-1611.35 L -141.145,-1610.92 L -141.545,-1610.44 L -141.882,-1609.91 L -142.149,-1609.34 L -142.343,-1608.74
 L -142.461,-1608.13 L -142.5,-1607.5 L -142.5,-1332.5 L -142.461,-1331.87 L -142.343,-1331.26 L -142.149,-1330.66
 L -141.882,-1330.09 L -141.545,-1329.56 L -141.145,-1329.08 L -140.687,-1328.65 L -140.179,-1328.28 L -139.629,-1327.98
 L -139.045,-1327.74 L -138.437,-1327.59 L -137.814,-1327.51 L 137.814,-1327.51 z
M 134.866,-1602.87 L 134.6,-1602.9 L 134.34,-1602.97 L 134.091,-1603.07 L 133.856,-1603.2 L 133.639,-1603.35
 L 133.443,-1603.54 L 133.273,-1603.74 L 133.129,-1603.97 L 133.015,-1604.21 L 132.932,-1604.47 L 132.882,-1604.73
 L 132.865,-1605 L 132.882,-1605.27 L 132.932,-1605.53 L 133.015,-1605.79 L 133.129,-1606.03 L 133.273,-1606.26
 L 133.443,-1606.46 L 133.639,-1606.65 L 133.856,-1606.8 L 134.091,-1606.93 L 134.34,-1607.03 L 134.6,-1607.1
 L 134.866,-1607.13 L 135.134,-1607.13 L 135.4,-1607.1 L 135.66,-1607.03 L 135.909,-1606.93 L 136.144,-1606.8
 L 136.361,-1606.65 L 136.557,-1606.46 L 136.727,-1606.26 L 136.871,-1606.03 L 136.985,-1605.79 L 137.068,-1605.53
 L 137.118,-1605.27 L 137.135,-1605 L 137.118,-1604.73 L 137.068,-1604.47 L 136.985,-1604.21 L 136.871,-1603.97
 L 136.727,-1603.74 L 136.557,-1603.54 L 136.361,-1603.35 L 136.144,-1603.2 L 135.909,-1603.07 L 135.66,-1602.97
 L 135.4,-1602.9 L 135.134,-1602.87 z
M -135.134,-1602.87 L -135.4,-1602.9 L -135.66,-1602.97 L -135.909,-1603.07 L -136.144,-1603.2 L -136.361,-1603.35
 L -136.557,-1603.54 L -136.727,-1603.74 L -136.871,-1603.97 L -136.985,-1604.21 L -137.068,-1604.47 L -137.118,-1604.73
 L -137.135,-1605 L -137.118,-1605.27 L -137.068,-1605.53 L -136.985,-1605.79 L -136.871,-1606.03 L -136.727,-1606.26
 L -136.557,-1606.46 L -136.361,-1606.65 L -136.144,-1606.8 L -135.909,-1606.93 L -135.66,-1607.03 L -135.4,-1607.1
 L -135.134,-1607.13 L -134.866,-1607.13 L -134.6,-1607.1 L -134.34,-1607.03 L -134.091,-1606.93 L -133.856,-1606.8
 L -133.639,-1606.65 L -133.443,-1606.46 L -133.273,-1606.26 L -133.129,-1606.03 L -133.015,-1605.79 L -132.932,-1605.53
 L -132.882,-1605.27 L -132.865,-1605 L -132.882,-1604.73 L -132.932,-1604.47 L -133.015,-1604.21 L -133.129,-1603.97
 L -133.273,-1603.74 L -133.443,-1603.54 L -133.639,-1603.35 L -133.856,-1603.2 L -134.091,-1603.07 L -134.34,-1602.97
 L -134.6,-1602.9 L -134.866,-1602.87 z
M 134.866,-1332.87 L 134.6,-1332.9 L 134.34,-1332.97 L 134.091,-1333.07 L 133.856,-1333.2 L 133.639,-1333.35
 L 133.443,-1333.54 L 133.273,-1333.74 L 133.129,-1333.97 L 133.015,-1334.21 L 132.932,-1334.47 L 132.882,-1334.73
 L 132.865,-1335 L 132.882,-1335.27 L 132.932,-1335.53 L 133.015,-1335.79 L 133.129,-1336.03 L 133.273,-1336.26
 L 133.443,-1336.46 L 133.639,-1336.65 L 133.856,-1336.8 L 134.091,-1336.93 L 134.34,-1337.03 L 134.6,-1337.1
 L 134.866,-1337.13 L 135.134,-1337.13 L 135.4,-1337.1 L 135.66,-1337.03 L 135.909,-1336.93 L 136.144,-1336.8
 L 136.361,-1336.65 L 136.557,-1336.46 L 136.727,-1336.26 L 136.871,-1336.03 L 136.985,-1335.79 L 137.068,-1335.53
 L 137.118,-1335.27 L 137.135,-1335 L 137.118,-1334.73 L 137.068,-1334.47 L 136.985,-1334.21 L 136.871,-1333.97
 L 136.727,-1333.74 L 136.557,-1333.54 L 136.361,-1333.35 L 136.144,-1333.2 L 135.909,-1333.07 L 135.66,-1332.97
 L 135.4,-1332.9 L 135.134,-1332.87 z
M -135.134,-1332.87 L -135.4,-1332.9 L -135.66,-1332.97 L -135.909,-1333.07 L -136.144,-1333.2 L -136.361,-1333.35
 L -136.557,-1333.54 L -136.727,-1333.74 L -136.871,-1333.97 L -136.985,-1334.21 L -137.068,-1334.47 L -137.118,-1334.73
 L -137.135,-1335 L -137.118,-1335.27 L -137.068,-1335.53 L -136.985,-1335.79 L -136.871,-1336.03 L -136.727,-1336.26
 L -136.557,-1336.46 L -136.361,-1336.65 L -136.144,-1336.8 L -135.909,-1336.93 L -135.66,-1337.03 L -135.4,-1337.1
 L -135.134,-1337.13 L -134.866,-1337.13 L -134.6,-1337.1 L -134.34,-1337.03 L -134.091,-1336.93 L -133.856,-1336.8
 L -133.639,-1336.65 L -133.443,-1336.46 L -133.273,-1336.26 L -133.129,-1336.03 L -133.015,-1335.79 L -132.932,-1335.53
 L -132.882,-1335.27 L -132.865,-1335 L -132.882,-1334.73 L -132.932,-1334.47 L -133.015,-1334.21 L -133.129,-1333.97
 L -133.273,-1333.74 L -133.443,-1333.54 L -133.639,-1333.35 L -133.856,-1333.2 L -134.091,-1333.07 L -134.34,-1332.97
 L -134.6,-1332.9 L -134.866,-1332.87 z
" stroke="black" fill="lightgray" stroke-width="0.5"/>
</svg>
