<?xml version="1.0" standalone="no"?>
<!DOCTYPE svg PUBLIC "-//W3C//DTD SVG 1.1//EN" "http://www.w3.org/Graphics/SVG/1.1/DTD/svg11.dtd">
<svg width="242mm" height="1086mm" viewBox="-122 -2076 242 1086" xmlns="http://www.w3.org/2000/svg" version="1.1">
<title>OpenSCAD Model</title>
<path d="
M -118.5,-1867.44 L -118.187,-1867.15 L -117.679,-1866.78 L -117.129,-1866.48 L -116.545,-1866.24 L -115.937,-1866.09
 L -115.314,-1866.01 L 115.314,-1866.01 L 115.937,-1866.09 L 116.545,-1866.24 L 117.129,-1866.48 L 117.679,-1866.78
 L 118.187,-1867.15 L 118.645,-1867.58 L 119.045,-1868.06 L 119.382,-1868.59 L 119.649,-1869.16 L 119.843,-1869.76
 L 119.961,-1870.37 L 120,-1871 L 120,-2071 L 119.961,-2071.63 L 119.843,-2072.24 L 119.649,-2072.84
 L 119.382,-2073.41 L 119.045,-2073.94 L 118.645,-2074.42 L 118.187,-2074.85 L 117.679,-2075.22 L 117.129,-2075.52
 L 116.545,-2075.76 L 115.937,-2075.91 L 115.314,-2075.99 L -115.314,-2075.99 L -115.937,-2075.91 L -116.545,-2075.76
 L -117.129,-2075.52 L -117.679,-2075.22 L -118.187,-2074.85 L -118.5,-2074.56 L -118.5,-2075.99 L -121.5,-2075.99
 L -121.5,-1866.01 L -118.5,-1866.01 z
M -114.751,-1867.51 L -115.25,-1867.57 L -115.736,-1867.7 L -116.203,-1867.88 L -116.643,-1868.12 L -117.05,-1868.42
 L -117.416,-1868.76 L -117.736,-1869.15 L -118.005,-1869.57 L -118.219,-1870.03 L -118.374,-1870.51 L -118.468,-1871
 L -118.5,-1871.5 L -118.5,-2070.5 L -118.468,-2071 L -118.374,-2071.49 L -118.219,-2071.97 L -118.005,-2072.43
 L -117.736,-2072.85 L -117.416,-2073.24 L -117.05,-2073.58 L -116.643,-2073.88 L -116.203,-2074.12 L -115.736,-2074.3
 L -115.25,-2074.43 L -114.751,-2074.49 L 114.751,-2074.49 L 115.25,-2074.43 L 115.736,-2074.3 L 116.203,-2074.12
 L 116.643,-2073.88 L 117.05,-2073.58 L 117.416,-2073.24 L 117.736,-2072.85 L 118.005,-2072.43 L 118.219,-2071.97
 L 118.374,-2071.49 L 118.468,-2071 L 118.5,-2070.5 L 118.5,-1871.5 L 118.468,-1871 L 118.374,-1870.51
 L 118.219,-1870.03 L 118.005,-1869.57 L 117.736,-1869.15 L 117.416,-1868.76 L 117.05,-1868.42 L 116.643,-1868.12
 L 116.203,-1867.88 L 115.736,-1867.7 L 115.25,-1867.57 L 114.751,-1867.51 z
M -118.5,-1648.44 L -118.187,-1648.15 L -117.679,-1647.78 L -117.129,-1647.48 L -116.545,-1647.24 L -115.937,-1647.09
 L -115.314,-1647.01 L 115.314,-1647.01 L 115.937,-1647.09 L 116.545,-1647.24 L 117.129,-1647.48 L 117.679,-1647.78
 L 118.187,-1648.15 L 118.645,-1648.58 L 119.045,-1649.06 L 119.382,-1649.59 L 119.649,-1650.16 L 119.843,-1650.76
 L 119.961,-1651.37 L 120,-1652 L 120,-1852 L 119.961,-1852.63 L 119.843,-1853.24 L 119.649,-1853.84
 L 119.382,-1854.41 L 119.045,-1854.94 L 118.645,-1855.42 L 118.187,-1855.85 L 117.679,-1856.22 L 117.129,-1856.52
 L 116.545,-1856.76 L 115.937,-1856.91 L 115.314,-1856.99 L -115.314,-1856.99 L -115.937,-1856.91 L -116.545,-1856.76
 L -117.129,-1856.52 L -117.679,-1856.22 L -118.187,-1855.85 L -118.5,-1855.56 L -118.5,-1856.99 L -121.5,-1856.99
 L -121.5,-1647.01 L -118.5,-1647.01 z
M -114.751,-1648.51 L -115.25,-1648.57 L -115.736,-1648.7 L -116.203,-1648.88 L -116.643,-1649.12 L -117.05,-1649.42
 L -117.416,-1649.76 L -117.736,-1650.15 L -118.005,-1650.57 L -118.219,-1651.03 L -118.374,-1651.51 L -118.468,-1652
 L -118.5,-1652.5 L -118.5,-1851.5 L -118.468,-1852 L -118.374,-1852.49 L -118.219,-1852.97 L -118.005,-1853.43
 L -117.736,-1853.85 L -117.416,-1854.24 L -117.05,-1854.58 L -116.643,-1854.88 L -116.203,-1855.12 L -115.736,-1855.3
 L -115.25,-1855.43 L -114.751,-1855.49 L 114.751,-1855.49 L 115.25,-1855.43 L 115.736,-1855.3 L 116.203,-1855.12
 L 116.643,-1854.88 L 117.05,-1854.58 L 117.416,-1854.24 L 117.736,-1853.85 L 118.005,-1853.43 L 118.219,-1852.97
 L 118.374,-1852.49 L 118.468,-1852 L 118.5,-1851.5 L 118.5,-1652.5 L 118.468,-1652 L 118.374,-1651.51
 L 118.219,-1651.03 L 118.005,-1650.57 L 117.736,-1650.15 L 117.416,-1649.76 L 117.05,-1649.42 L 116.643,-1649.12
 L 116.203,-1648.88 L 115.736,-1648.7 L 115.25,-1648.57 L 114.751,-1648.51 z
M -118.5,-1429.44 L -118.187,-1429.15 L -117.679,-1428.78 L -117.129,-1428.48 L -116.545,-1428.24 L -115.937,-1428.09
 L -115.314,-1428.01 L 115.314,-1428.01 L 115.937,-1428.09 L 116.545,-1428.24 L 117.129,-1428.48 L 117.679,-1428.78
 L 118.187,-1429.15 L 118.645,-1429.58 L 119.045,-1430.06 L 119.382,-1430.59 L 119.649,-1431.16 L 119.843,-1431.76
 L 119.961,-1432.37 L 120,-1433 L 120,-1633 L 119.961,-1633.63 L 119.843,-1634.24 L 119.649,-1634.84
 L 119.382,-1635.41 L 119.045,-1635.94 L 118.645,-1636.42 L 118.187,-1636.85 L 117.679,-1637.22 L 117.129,-1637.52
 L 116.545,-1637.76 L 115.937,-1637.91 L 115.314,-1637.99 L -115.314,-1637.99 L -115.937,-1637.91 L -116.545,-1637.76
 L -117.129,-1637.52 L -117.679,-1637.22 L -118.187,-1636.85 L -118.5,-1636.56 L -118.5,-1637.99 L -121.5,-1637.99
 L -121.5,-1428.01 L -118.5,-1428.01 z
M -114.751,-1429.51 L -115.25,-1429.57 L -115.736,-1429.7 L -116.203,-1429.88 L -116.643,-1430.12 L -117.05,-1430.42
 L -117.416,-1430.76 L -117.736,-1431.15 L -118.005,-1431.57 L -118.219,-1432.03 L -118.374,-1432.51 L -118.468,-1433
 L -118.5,-1433.5 L -118.5,-1632.5 L -118.468,-1633 L -118.374,-1633.49 L -118.219,-1633.97 L -118.005,-1634.43
 L -117.736,-1634.85 L -117.416,-1635.24 L -117.05,-1635.58 L -116.643,-1635.88 L -116.203,-1636.12 L -115.736,-1636.3
 L -115.25,-1636.43 L -114.751,-1636.49 L 114.751,-1636.49 L 115.25,-1636.43 L 115.736,-1636.3 L 116.203,-1636.12
 L 116.643,-1635.88 L 117.05,-1635.58 L 117.416,-1635.24 L 117.736,-1634.85 L 118.005,-1634.43 L 118.219,-1633.97
 L 118.374,-1633.49 L 118.468,-1633 L 118.5,-1632.5 L 118.5,-1433.5 L 118.468,-1433 L 118.374,-1432.51
 L 118.219,-1432.03 L 118.005,-1431.57 L 117.736,-1431.15 L 117.416,-1430.76 L 117.05,-1430.42 L 116.643,-1430.12
 L 116.203,-1429.88 L 115.736,-1429.7 L 115.25,-1429.57 L 114.751,-1429.51 z
M 115.937,-1209.09 L 116.545,-1209.24 L 117.129,-1209.48 L 117.679,-1209.78 L 118.187,-1210.15 L 118.645,-1210.58
 L 119.045,-1211.06 L 119.382,-1211.59 L 119.649,-1212.16 L 119.843,-1212.76 L 119.961,-1213.37 L 120,-1214
 L 120,-1414 L 119.961,-1414.63 L 119.843,-1415.24 L 119.649,-1415.84 L 119.382,-1416.41 L 119.045,-1416.94
 L 118.645,-1417.42 L 118.187,-1417.85 L 117.679,-1418.22 L 117.129,-1418.52 L 116.545,-1418.76 L 115.937,-1418.91
 L 115.314,-1418.99 L -115.314,-1418.99 L -115.937,-1418.91 L -116.545,-1418.76 L -117.129,-1418.52 L -117.679,-1418.22
 L -118.187,-1417.85 L -118.5,-1417.56 L -118.5,-1418.98 L -121.5,-1418.98 L -121.5,-1209.02 L -118.5,-1209.02
 L -118.5,-1210.44 L -118.187,-1210.15 L -117.679,-1209.78 L -117.129,-1209.48 L -116.545,-1209.24 L -115.937,-1209.09
 L -115.314,-1209.01 L 115.314,-1209.01 z
M -114.695,-1211.39 L -115.083,-1211.44 L -115.462,-1211.54 L -115.825,-1211.68 L -116.168,-1211.87 L -116.484,-1212.1
 L -116.769,-1212.37 L -117.018,-1212.67 L -117.228,-1213 L -117.394,-1213.35 L -117.515,-1213.73 L -117.588,-1214.11
 L -117.613,-1214.5 L -117.613,-1413.5 L -117.588,-1413.89 L -117.515,-1414.27 L -117.394,-1414.65 L -117.228,-1415
 L -117.018,-1415.33 L -116.769,-1415.63 L -116.484,-1415.9 L -116.168,-1416.13 L -115.825,-1416.32 L -115.462,-1416.46
 L -115.083,-1416.56 L -114.695,-1416.61 L 114.695,-1416.61 L 115.083,-1416.56 L 115.462,-1416.46 L 115.825,-1416.32
 L 116.168,-1416.13 L 116.484,-1415.9 L 116.769,-1415.63 L 117.018,-1415.33 L 117.228,-1415 L 117.394,-1414.65
 L 117.515,-1414.27 L 117.588,-1413.89 L 117.613,-1413.5 L 117.613,-1214.5 L 117.588,-1214.11 L 117.515,-1213.73
 L 117.394,-1213.35 L 117.228,-1213 L 117.018,-1212.67 L 116.769,-1212.37 L 116.484,-1212.1 L 116.168,-1211.87
 L 115.825,-1211.68 L 115.462,-1211.54 L 115.083,-1211.44 L 114.695,-1211.39 z
M 115.937,-990.089 L 116.545,-990.245 L 117.129,-990.476 L 117.679,-990.778 L 118.187,-991.147 L 118.645,-991.577
 L 119.045,-992.061 L 119.382,-992.591 L 119.649,-993.159 L 119.843,-993.757 L 119.961,-994.373 L 120,-995
 L 120,-1195 L 119.961,-1195.63 L 119.843,-1196.24 L 119.649,-1196.84 L 119.382,-1197.41 L 119.045,-1197.94
 L 118.645,-1198.42 L 118.187,-1198.85 L 117.679,-1199.22 L 117.129,-1199.52 L 116.545,-1199.76 L 115.937,-1199.91
 L 115.314,-1199.99 L -115.314,-1199.99 L -115.937,-1199.91 L -116.545,-1199.76 L -117.129,-1199.52 L -117.679,-1199.22
 L -118.187,-1198.85 L -118.5,-1198.56 L -118.5,-1198.65 L -121.5,-1198.65 L -121.5,-991.347 L -118.5,-991.347
 L -118.5,-991.441 L -118.187,-991.147 L -117.679,-990.778 L -117.129,-990.476 L -116.545,-990.245 L -115.937,-990.089
 L -115.314,-990.01 L 115.314,-990.01 z
M -112.634,-1190.37 L -112.9,-1190.4 L -113.16,-1190.47 L -113.409,-1190.57 L -113.644,-1190.7 L -113.861,-1190.85
 L -114.057,-1191.04 L -114.227,-1191.24 L -114.371,-1191.47 L -114.485,-1191.71 L -114.568,-1191.97 L -114.618,-1192.23
 L -114.635,-1192.5 L -114.618,-1192.77 L -114.568,-1193.03 L -114.485,-1193.29 L -114.371,-1193.53 L -114.227,-1193.76
 L -114.057,-1193.96 L -113.861,-1194.15 L -113.644,-1194.3 L -113.409,-1194.43 L -113.16,-1194.53 L -112.9,-1194.6
 L -112.634,-1194.63 L -112.366,-1194.63 L -112.1,-1194.6 L -111.84,-1194.53 L -111.591,-1194.43 L -111.356,-1194.3
 L -111.139,-1194.15 L -110.943,-1193.96 L -110.773,-1193.76 L -110.629,-1193.53 L -110.515,-1193.29 L -110.432,-1193.03
 L -110.382,-1192.77 L -110.365,-1192.5 L -110.382,-1192.23 L -110.432,-1191.97 L -110.515,-1191.71 L -110.629,-1191.47
 L -110.773,-1191.24 L -110.943,-1191.04 L -111.139,-1190.85 L -111.356,-1190.7 L -111.591,-1190.57 L -111.84,-1190.47
 L -112.1,-1190.4 L -112.366,-1190.37 z
M 112.366,-1190.37 L 112.1,-1190.4 L 111.84,-1190.47 L 111.591,-1190.57 L 111.356,-1190.7 L 111.139,-1190.85
 L 110.943,-1191.04 L 110.773,-1191.24 L 110.629,-1191.47 L 110.515,-1191.71 L 110.432,-1191.97 L 110.382,-1192.23
 L 110.365,-1192.5 L 110.382,-1192.77 L 110.432,-1193.03 L 110.515,-1193.29 L 110.629,-1193.53 L 110.773,-1193.76
 L 110.943,-1193.96 L 111.139,-1194.15 L 111.356,-1194.3 L 111.591,-1194.43 L 111.84,-1194.53 L 112.1,-1194.6
 L 112.366,-1194.63 L 112.634,-1194.63 L 112.9,-1194.6 L 113.16,-1194.53 L 113.409,-1194.43 L 113.644,-1194.3
 L 113.861,-1194.15 L 114.057,-1193.96 L 114.227,-1193.76 L 114.371,-1193.53 L 114.485,-1193.29 L 114.568,-1193.03
 L 114.618,-1192.77 L 114.635,-1192.5 L 114.618,-1192.23 L 114.568,-1191.97 L 114.485,-1191.71 L 114.371,-1191.47
 L 114.227,-1191.24 L 114.057,-1191.04 L 113.861,-1190.85 L 113.644,-1190.7 L 113.409,-1190.57 L 113.16,-1190.47
 L 112.9,-1190.4 L 112.634,-1190.37 z
M -112.634,-995.369 L -112.9,-995.403 L -113.16,-995.469 L -113.409,-995.568 L -113.644,-995.697 L -113.861,-995.855
 L -114.057,-996.038 L -114.227,-996.245 L -114.371,-996.471 L -114.485,-996.714 L -114.568,-996.969 L -114.618,-997.232
 L -114.635,-997.5 L -114.618,-997.768 L -114.568,-998.031 L -114.485,-998.286 L -114.371,-998.529 L -114.227,-998.755
 L -114.057,-998.962 L -113.861,-999.145 L -113.644,-999.303 L -113.409,-999.432 L -113.16,-999.531 L -112.9,-999.597
 L -112.634,-999.631 L -112.366,-999.631 L -112.1,-999.597 L -111.84,-999.531 L -111.591,-999.432 L -111.356,-999.303
 L -111.139,-999.145 L -110.943,-998.962 L -110.773,-998.755 L -110.629,-998.529 L -110.515,-998.286 L -110.432,-998.031
 L -110.382,-997.768 L -110.365,-997.5 L -110.382,-997.232 L -110.432,-996.969 L -110.515,-996.714 L -110.629,-996.471
 L -110.773,-996.245 L -110.943,-996.038 L -111.139,-995.855 L -111.356,-995.697 L -111.591,-995.568 L -111.84,-995.469
 L -112.1,-995.403 L -112.366,-995.369 z
M 112.366,-995.369 L 112.1,-995.403 L 111.84,-995.469 L 111.591,-995.568 L 111.356,-995.697 L 111.139,-995.855
 L 110.943,-996.038 L 110.773,-996.245 L 110.629,-996.471 L 110.515,-996.714 L 110.432,-996.969 L 110.382,-997.232
 L 110.365,-997.5 L 110.382,-997.768 L 110.432,-998.031 L 110.515,-998.286 L 110.629,-998.529 L 110.773,-998.755
 L 110.943,-998.962 L 111.139,-999.145 L 111.356,-999.303 L 111.591,-999.432 L 111.84,-999.531 L 112.1,-999.597
 L 112.366,-999.631 L 112.634,-999.631 L 112.9,-999.597 L 113.16,-999.531 L 113.409,-999.432 L 113.644,-999.303
 L 113.861,-999.145 L 114.057,-998.962 L 114.227,-998.755 L 114.371,-998.529 L 114.485,-998.286 L 114.568,-998.031
 L 114.618,-997.768 L 114.635,-997.5 L 114.618,-997.232 L 114.568,-996.969 L 114.485,-996.714 L 114.371,-996.471
 L 114.227,-996.245 L 114.057,-996.038 L 113.861,-995.855 L 113.644,-995.697 L 113.409,-995.568 L 113.16,-995.469
 L 112.9,-995.403 L 112.634,-995.369 z
" stroke="black" fill="lightgray" stroke-width="0.5"/>
</svg>
