<?xml version="1.0" standalone="no"?>
<!DOCTYPE svg PUBLIC "-//W3C//DTD SVG 1.1//EN" "http://www.w3.org/Graphics/SVG/1.1/DTD/svg11.dtd">
<svg width="302mm" height="514mm" viewBox="-152 -953 302 514" xmlns="http://www.w3.org/2000/svg" version="1.1">
<title>OpenSCAD Model</title>
<path d="
M -148.5,-788.941 L -148.187,-788.647 L -147.679,-788.278 L -147.129,-787.976 L -146.545,-787.745 L -145.937,-787.589
 L -145.314,-787.51 L 145.314,-787.51 L 145.937,-787.589 L 146.545,-787.745 L 147.129,-787.976 L 147.679,-788.278
 L 148.187,-788.647 L 148.645,-789.077 L 149.045,-789.561 L 149.382,-790.091 L 149.649,-790.659 L 149.843,-791.257
 L 149.961,-791.873 L 150,-792.5 L 150,-947.5 L 149.961,-948.127 L 149.843,-948.743 L 149.649,-949.341
 L 149.382,-949.909 L 149.045,-950.439 L 148.645,-950.923 L 148.187,-951.353 L 147.679,-951.722 L 147.129,-952.024
 L 146.545,-952.255 L 145.937,-952.411 L 145.314,-952.49 L -145.314,-952.49 L -145.937,-952.411 L -146.545,-952.255
 L -147.129,-952.024 L -147.679,-951.722 L -148.187,-951.353 L -148.5,-951.059 L -148.5,-952.49 L -151.5,-952.49
 L -151.5,-787.51 L -148.5,-787.51 z
M -144.751,-789.008 L -145.25,-789.071 L -145.736,-789.196 L -146.203,-789.381 L -146.643,-789.623 L -147.05,-789.918
 L -147.416,-790.262 L -147.736,-790.649 L -148.005,-791.073 L -148.219,-791.528 L -148.374,-792.005 L -148.468,-792.499
 L -148.5,-793 L -148.5,-947 L -148.468,-947.501 L -148.374,-947.995 L -148.219,-948.472 L -148.005,-948.927
 L -147.736,-949.351 L -147.416,-949.738 L -147.05,-950.082 L -146.643,-950.377 L -146.203,-950.619 L -145.736,-950.804
 L -145.25,-950.929 L -144.751,-950.992 L 144.751,-950.992 L 145.25,-950.929 L 145.736,-950.804 L 146.203,-950.619
 L 146.643,-950.377 L 147.05,-950.082 L 147.416,-949.738 L 147.736,-949.351 L 148.005,-948.927 L 148.219,-948.472
 L 148.374,-947.995 L 148.468,-947.501 L 148.5,-947 L 148.5,-793 L 148.468,-792.499 L 148.374,-792.005
 L 148.219,-791.528 L 148.005,-791.073 L 147.736,-790.649 L 147.416,-790.262 L 147.05,-789.918 L 146.643,-789.623
 L 146.203,-789.381 L 145.736,-789.196 L 145.25,-789.071 L 144.751,-789.008 z
M 145.937,-613.589 L 146.545,-613.745 L 147.129,-613.976 L 147.679,-614.278 L 148.187,-614.647 L 148.645,-615.077
 L 149.045,-615.561 L 149.382,-616.091 L 149.649,-616.659 L 149.843,-617.257 L 149.961,-617.873 L 150,-618.5
 L 150,-773.5 L 149.961,-774.127 L 149.843,-774.743 L 149.649,-775.341 L 149.382,-775.909 L 149.045,-776.439
 L 148.645,-776.923 L 148.187,-777.353 L 147.679,-777.722 L 147.129,-778.024 L 146.545,-778.255 L 145.937,-778.411
 L 145.314,-778.49 L -145.314,-778.49 L -145.937,-778.411 L -146.545,-778.255 L -147.129,-778.024 L -147.679,-777.722
 L -148.187,-777.353 L -148.5,-777.059 L -148.5,-778.479 L -151.5,-778.479 L -151.5,-613.521 L -148.5,-613.521
 L -148.5,-614.941 L -148.187,-614.647 L -147.679,-614.278 L -147.129,-613.976 L -146.545,-613.745 L -145.937,-613.589
 L -145.314,-613.51 L 145.314,-613.51 z
M -144.695,-615.893 L -145.083,-615.942 L -145.462,-616.039 L -145.825,-616.183 L -146.168,-616.372 L -146.484,-616.601
 L -146.769,-616.869 L -147.018,-617.17 L -147.228,-617.5 L -147.394,-617.854 L -147.515,-618.226 L -147.588,-618.61
 L -147.613,-619 L -147.613,-773 L -147.588,-773.39 L -147.515,-773.774 L -147.394,-774.146 L -147.228,-774.5
 L -147.018,-774.83 L -146.769,-775.131 L -146.484,-775.399 L -146.168,-775.628 L -145.825,-775.817 L -145.462,-775.961
 L -145.083,-776.058 L -144.695,-776.107 L 144.695,-776.107 L 145.083,-776.058 L 145.462,-775.961 L 145.825,-775.817
 L 146.168,-775.628 L 146.484,-775.399 L 146.769,-775.131 L 147.018,-774.83 L 147.228,-774.5 L 147.394,-774.146
 L 147.515,-773.774 L 147.588,-773.39 L 147.613,-773 L 147.613,-619 L 147.588,-618.61 L 147.515,-618.226
 L 147.394,-617.854 L 147.228,-617.5 L 147.018,-617.17 L 146.769,-616.869 L 146.484,-616.601 L 146.168,-616.372
 L 145.825,-616.183 L 145.462,-616.039 L 145.083,-615.942 L 144.695,-615.893 z
M 145.937,-439.589 L 146.545,-439.745 L 147.129,-439.976 L 147.679,-440.278 L 148.187,-440.647 L 148.645,-441.077
 L 149.045,-441.561 L 149.382,-442.091 L 149.649,-442.659 L 149.843,-443.257 L 149.961,-443.873 L 150,-444.5
 L 150,-599.5 L 149.961,-600.127 L 149.843,-600.743 L 149.649,-601.341 L 149.382,-601.909 L 149.045,-602.439
 L 148.645,-602.923 L 148.187,-603.353 L 147.679,-603.722 L 147.129,-604.024 L 146.545,-604.255 L 145.937,-604.411
 L 145.314,-604.49 L -145.314,-604.49 L -145.937,-604.411 L -146.545,-604.255 L -147.129,-604.024 L -147.679,-603.722
 L -148.187,-603.353 L -148.5,-603.059 L -148.5,-603.153 L -151.5,-603.153 L -151.5,-440.847 L -148.5,-440.847
 L -148.5,-440.941 L -148.187,-440.647 L -147.679,-440.278 L -147.129,-439.976 L -146.545,-439.745 L -145.937,-439.589
 L -145.314,-439.51 L 145.314,-439.51 z
M 142.366,-594.869 L 142.1,-594.903 L 141.84,-594.969 L 141.591,-595.068 L 141.356,-595.197 L 141.139,-595.355
 L 140.943,-595.538 L 140.773,-595.745 L 140.629,-595.971 L 140.515,-596.214 L 140.432,-596.469 L 140.382,-596.732
 L 140.365,-597 L 140.382,-597.268 L 140.432,-597.531 L 140.515,-597.786 L 140.629,-598.029 L 140.773,-598.255
 L 140.943,-598.462 L 141.139,-598.645 L 141.356,-598.803 L 141.591,-598.932 L 141.84,-599.031 L 142.1,-599.097
 L 142.366,-599.131 L 142.634,-599.131 L 142.9,-599.097 L 143.16,-599.031 L 143.409,-598.932 L 143.644,-598.803
 L 143.861,-598.645 L 144.057,-598.462 L 144.227,-598.255 L 144.371,-598.029 L 144.485,-597.786 L 144.568,-597.531
 L 144.618,-597.268 L 144.635,-597 L 144.618,-596.732 L 144.568,-596.469 L 144.485,-596.214 L 144.371,-595.971
 L 144.227,-595.745 L 144.057,-595.538 L 143.861,-595.355 L 143.644,-595.197 L 143.409,-595.068 L 143.16,-594.969
 L 142.9,-594.903 L 142.634,-594.869 z
M -142.634,-594.869 L -142.9,-594.903 L -143.16,-594.969 L -143.409,-595.068 L -143.644,-595.197 L -143.861,-595.355
 L -144.057,-595.538 L -144.227,-595.745 L -144.371,-595.971 L -144.485,-596.214 L -144.568,-596.469 L -144.618,-596.732
 L -144.635,-597 L -144.618,-597.268 L -144.568,-597.531 L -144.485,-597.786 L -144.371,-598.029 L -144.227,-598.255
 L -144.057,-598.462 L -143.861,-598.645 L -143.644,-598.803 L -143.409,-598.932 L -143.16,-599.031 L -142.9,-599.097
 L -142.634,-599.131 L -142.366,-599.131 L -142.1,-599.097 L -141.84,-599.031 L -141.591,-598.932 L -141.356,-598.803
 L -141.139,-598.645 L -140.943,-598.462 L -140.773,-598.255 L -140.629,-598.029 L -140.515,-597.786 L -140.432,-597.531
 L -140.382,-597.268 L -140.365,-597 L -140.382,-596.732 L -140.432,-596.469 L -140.515,-596.214 L -140.629,-595.971
 L -140.773,-595.745 L -140.943,-595.538 L -141.139,-595.355 L -141.356,-595.197 L -141.591,-595.068 L -141.84,-594.969
 L -142.1,-594.903 L -142.366,-594.869 z
M 142.366,-444.869 L 142.1,-444.903 L 141.84,-444.969 L 141.591,-445.068 L 141.356,-445.197 L 141.139,-445.355
 L 140.943,-445.538 L 140.773,-445.745 L 140.629,-445.971 L 140.515,-446.214 L 140.432,-446.469 L 140.382,-446.732
 L 140.365,-447 L 140.382,-447.268 L 140.432,-447.531 L 140.515,-447.786 L 140.629,-448.029 L 140.773,-448.255
 L 140.943,-448.462 L 141.139,-448.645 L 141.356,-448.803 L 141.591,-448.932 L 141.84,-449.031 L 142.1,-449.097
 L 142.366,-449.131 L 142.634,-449.131 L 142.9,-449.097 L 143.16,-449.031 L 143.409,-448.932 L 143.644,-448.803
 L 143.861,-448.645 L 144.057,-448.462 L 144.227,-448.255 L 144.371,-448.029 L 144.485,-447.786 L 144.568,-447.531
 L 144.618,-447.268 L 144.635,-447 L 144.618,-446.732 L 144.568,-446.469 L 144.485,-446.214 L 144.371,-445.971
 L 144.227,-445.745 L 144.057,-445.538 L 143.861,-445.355 L 143.644,-445.197 L 143.409,-445.068 L 143.16,-444.969
 L 142.9,-444.903 L 142.634,-444.869 z
M -142.634,-444.869 L -142.9,-444.903 L -143.16,-444.969 L -143.409,-445.068 L -143.644,-445.197 L -143.861,-445.355
 L -144.057,-445.538 L -144.227,-445.745 L -144.371,-445.971 L -144.485,-446.214 L -144.568,-446.469 L -144.618,-446.732
 L -144.635,-447 L -144.618,-447.268 L -144.568,-447.531 L -144.485,-447.786 L -144.371,-448.029 L -144.227,-448.255
 L -144.057,-448.462 L -143.861,-448.645 L -143.644,-448.803 L -143.409,-448.932 L -143.16,-449.031 L -142.9,-449.097
 L -142.634,-449.131 L -142.366,-449.131 L -142.1,-449.097 L -141.84,-449.031 L -141.591,-448.932 L -141.356,-448.803
 L -141.139,-448.645 L -140.943,-448.462 L -140.773,-448.255 L -140.629,-448.029 L -140.515,-447.786 L -140.432,-447.531
 L -140.382,-447.268 L -140.365,-447 L -140.382,-446.732 L -140.432,-446.469 L -140.515,-446.214 L -140.629,-445.971
 L -140.773,-445.745 L -140.943,-445.538 L -141.139,-445.355 L -141.356,-445.197 L -141.591,-445.068 L -141.84,-444.969
 L -142.1,-444.903 L -142.366,-444.869 z
" stroke="black" fill="lightgray" stroke-width="0.5"/>
</svg>
