  0
SECTION
  2
BLOCKS
  0
ENDSEC
  0
SECTION
  2
ENTITIES
  0
LINE
  8
0
 10
130.937
 20
51.8386
 11
131.545
 21
51.9947
  0
LINE
  8
0
 10
131.545
 20
51.9947
 11
132.129
 21
52.2259
  0
LINE
  8
0
 10
132.129
 20
52.2259
 11
132.679
 21
52.5284
  0
LINE
  8
0
 10
132.679
 20
52.5284
 11
133.187
 21
52.8974
  0
LINE
  8
0
 10
133.187
 20
52.8974
 11
133.645
 21
53.3273
  0
LINE
  8
0
 10
133.645
 20
53.3273
 11
134.045
 21
53.8111
  0
LINE
  8
0
 10
134.045
 20
53.8111
 11
134.382
 21
54.3412
  0
LINE
  8
0
 10
134.382
 20
54.3412
 11
134.649
 21
54.9094
  0
LINE
  8
0
 10
134.649
 20
54.9094
 11
134.843
 21
55.5066
  0
LINE
  8
0
 10
134.843
 20
55.5066
 11
134.961
 21
56.1233
  0
LINE
  8
0
 10
134.961
 20
56.1233
 11
135
 21
56.75
  0
LINE
  8
0
 10
135
 20
56.75
 11
135
 21
69.25
  0
LINE
  8
0
 10
135
 20
69.25
 11
134.961
 21
69.8767
  0
LINE
  8
0
 10
134.961
 20
69.8767
 11
134.843
 21
70.4934
  0
LINE
  8
0
 10
134.843
 20
70.4934
 11
134.649
 21
71.0906
  0
LINE
  8
0
 10
134.649
 20
71.0906
 11
134.382
 21
71.6588
  0
LINE
  8
0
 10
134.382
 20
71.6588
 11
134.045
 21
72.1889
  0
LINE
  8
0
 10
134.045
 20
72.1889
 11
133.645
 21
72.6727
  0
LINE
  8
0
 10
133.645
 20
72.6727
 11
133.187
 21
73.1026
  0
LINE
  8
0
 10
133.187
 20
73.1026
 11
132.679
 21
73.4716
  0
LINE
  8
0
 10
132.679
 20
73.4716
 11
132.129
 21
73.7741
  0
LINE
  8
0
 10
132.129
 20
73.7741
 11
131.545
 21
74.0053
  0
LINE
  8
0
 10
131.545
 20
74.0053
 11
130.937
 21
74.1614
  0
LINE
  8
0
 10
130.937
 20
74.1614
 11
130.314
 21
74.2401
  0
LINE
  8
0
 10
130.314
 20
74.2401
 11
-130.314
 21
74.2401
  0
LINE
  8
0
 10
-130.314
 20
74.2401
 11
-130.937
 21
74.1614
  0
LINE
  8
0
 10
-130.937
 20
74.1614
 11
-131.545
 21
74.0053
  0
LINE
  8
0
 10
-131.545
 20
74.0053
 11
-132.129
 21
73.7741
  0
LINE
  8
0
 10
-132.129
 20
73.7741
 11
-132.679
 21
73.4716
  0
LINE
  8
0
 10
-132.679
 20
73.4716
 11
-133.187
 21
73.1026
  0
LINE
  8
0
 10
-133.187
 20
73.1026
 11
-133.5
 21
72.8087
  0
LINE
  8
0
 10
-133.5
 20
72.8087
 11
-133.5
 21
73.8648
  0
LINE
  8
0
 10
-133.5
 20
73.8648
 11
-136.5
 21
73.8648
  0
LINE
  8
0
 10
-136.5
 20
73.8648
 11
-136.5
 21
52.1352
  0
LINE
  8
0
 10
-136.5
 20
52.1352
 11
-133.5
 21
52.1352
  0
LINE
  8
0
 10
-133.5
 20
52.1352
 11
-133.5
 21
53.1913
  0
LINE
  8
0
 10
-133.5
 20
53.1913
 11
-133.187
 21
52.8974
  0
LINE
  8
0
 10
-133.187
 20
52.8974
 11
-132.679
 21
52.5284
  0
LINE
  8
0
 10
-132.679
 20
52.5284
 11
-132.129
 21
52.2259
  0
LINE
  8
0
 10
-132.129
 20
52.2259
 11
-131.545
 21
51.9947
  0
LINE
  8
0
 10
-131.545
 20
51.9947
 11
-130.937
 21
51.8386
  0
LINE
  8
0
 10
-130.937
 20
51.8386
 11
-130.314
 21
51.7599
  0
LINE
  8
0
 10
-130.314
 20
51.7599
 11
130.314
 21
51.7599
  0
LINE
  8
0
 10
130.314
 20
51.7599
 11
130.937
 21
51.8386
  0
LINE
  8
0
 10
127.349
 20
64.3547
 11
127.05
 21
64.3925
  0
LINE
  8
0
 10
127.05
 20
64.3925
 11
126.758
 21
64.4675
  0
LINE
  8
0
 10
126.758
 20
64.4675
 11
126.478
 21
64.5784
  0
LINE
  8
0
 10
126.478
 20
64.5784
 11
126.214
 21
64.7236
  0
LINE
  8
0
 10
126.214
 20
64.7236
 11
125.97
 21
64.9008
  0
LINE
  8
0
 10
125.97
 20
64.9008
 11
125.75
 21
65.1071
  0
LINE
  8
0
 10
125.75
 20
65.1071
 11
125.558
 21
65.3393
  0
LINE
  8
0
 10
125.558
 20
65.3393
 11
125.397
 21
65.5938
  0
LINE
  8
0
 10
125.397
 20
65.5938
 11
125.269
 21
65.8665
  0
LINE
  8
0
 10
125.269
 20
65.8665
 11
125.175
 21
66.1531
  0
LINE
  8
0
 10
125.175
 20
66.1531
 11
125.119
 21
66.4492
  0
LINE
  8
0
 10
125.119
 20
66.4492
 11
125.1
 21
66.75
  0
LINE
  8
0
 10
125.1
 20
66.75
 11
125.119
 21
67.0508
  0
LINE
  8
0
 10
125.119
 20
67.0508
 11
125.175
 21
67.3468
  0
LINE
  8
0
 10
125.175
 20
67.3468
 11
125.269
 21
67.6335
  0
LINE
  8
0
 10
125.269
 20
67.6335
 11
125.397
 21
67.9062
  0
LINE
  8
0
 10
125.397
 20
67.9062
 11
125.558
 21
68.1607
  0
LINE
  8
0
 10
125.558
 20
68.1607
 11
125.75
 21
68.3929
  0
LINE
  8
0
 10
125.75
 20
68.3929
 11
125.97
 21
68.5992
  0
LINE
  8
0
 10
125.97
 20
68.5992
 11
126.214
 21
68.7764
  0
LINE
  8
0
 10
126.214
 20
68.7764
 11
126.478
 21
68.9216
  0
LINE
  8
0
 10
126.478
 20
68.9216
 11
126.758
 21
69.0325
  0
LINE
  8
0
 10
126.758
 20
69.0325
 11
127.05
 21
69.1075
  0
LINE
  8
0
 10
127.05
 20
69.1075
 11
127.349
 21
69.1453
  0
LINE
  8
0
 10
127.349
 20
69.1453
 11
127.651
 21
69.1453
  0
LINE
  8
0
 10
127.651
 20
69.1453
 11
127.95
 21
69.1075
  0
LINE
  8
0
 10
127.95
 20
69.1075
 11
128.242
 21
69.0325
  0
LINE
  8
0
 10
128.242
 20
69.0325
 11
128.522
 21
68.9216
  0
LINE
  8
0
 10
128.522
 20
68.9216
 11
128.786
 21
68.7764
  0
LINE
  8
0
 10
128.786
 20
68.7764
 11
129.03
 21
68.5992
  0
LINE
  8
0
 10
129.03
 20
68.5992
 11
129.25
 21
68.3929
  0
LINE
  8
0
 10
129.25
 20
68.3929
 11
129.442
 21
68.1607
  0
LINE
  8
0
 10
129.442
 20
68.1607
 11
129.603
 21
67.9062
  0
LINE
  8
0
 10
129.603
 20
67.9062
 11
129.731
 21
67.6335
  0
LINE
  8
0
 10
129.731
 20
67.6335
 11
129.825
 21
67.3468
  0
LINE
  8
0
 10
129.825
 20
67.3468
 11
129.881
 21
67.0508
  0
LINE
  8
0
 10
129.881
 20
67.0508
 11
129.9
 21
66.75
  0
LINE
  8
0
 10
129.9
 20
66.75
 11
129.881
 21
66.4492
  0
LINE
  8
0
 10
129.881
 20
66.4492
 11
129.825
 21
66.1531
  0
LINE
  8
0
 10
129.825
 20
66.1531
 11
129.731
 21
65.8665
  0
LINE
  8
0
 10
129.731
 20
65.8665
 11
129.603
 21
65.5938
  0
LINE
  8
0
 10
129.603
 20
65.5938
 11
129.442
 21
65.3393
  0
LINE
  8
0
 10
129.442
 20
65.3393
 11
129.25
 21
65.1071
  0
LINE
  8
0
 10
129.25
 20
65.1071
 11
129.03
 21
64.9008
  0
LINE
  8
0
 10
129.03
 20
64.9008
 11
128.786
 21
64.7236
  0
LINE
  8
0
 10
128.786
 20
64.7236
 11
128.522
 21
64.5784
  0
LINE
  8
0
 10
128.522
 20
64.5784
 11
128.242
 21
64.4675
  0
LINE
  8
0
 10
128.242
 20
64.4675
 11
127.95
 21
64.3925
  0
LINE
  8
0
 10
127.95
 20
64.3925
 11
127.651
 21
64.3547
  0
LINE
  8
0
 10
127.651
 20
64.3547
 11
127.349
 21
64.3547
  0
LINE
  8
0
 10
-127.651
 20
64.3547
 11
-127.95
 21
64.3925
  0
LINE
  8
0
 10
-127.95
 20
64.3925
 11
-128.242
 21
64.4675
  0
LINE
  8
0
 10
-128.242
 20
64.4675
 11
-128.522
 21
64.5784
  0
LINE
  8
0
 10
-128.522
 20
64.5784
 11
-128.786
 21
64.7236
  0
LINE
  8
0
 10
-128.786
 20
64.7236
 11
-129.03
 21
64.9008
  0
LINE
  8
0
 10
-129.03
 20
64.9008
 11
-129.25
 21
65.1071
  0
LINE
  8
0
 10
-129.25
 20
65.1071
 11
-129.442
 21
65.3393
  0
LINE
  8
0
 10
-129.442
 20
65.3393
 11
-129.603
 21
65.5938
  0
LINE
  8
0
 10
-129.603
 20
65.5938
 11
-129.731
 21
65.8665
  0
LINE
  8
0
 10
-129.731
 20
65.8665
 11
-129.825
 21
66.1531
  0
LINE
  8
0
 10
-129.825
 20
66.1531
 11
-129.881
 21
66.4492
  0
LINE
  8
0
 10
-129.881
 20
66.4492
 11
-129.9
 21
66.75
  0
LINE
  8
0
 10
-129.9
 20
66.75
 11
-129.881
 21
67.0508
  0
LINE
  8
0
 10
-129.881
 20
67.0508
 11
-129.825
 21
67.3468
  0
LINE
  8
0
 10
-129.825
 20
67.3468
 11
-129.731
 21
67.6335
  0
LINE
  8
0
 10
-129.731
 20
67.6335
 11
-129.603
 21
67.9062
  0
LINE
  8
0
 10
-129.603
 20
67.9062
 11
-129.442
 21
68.1607
  0
LINE
  8
0
 10
-129.442
 20
68.1607
 11
-129.25
 21
68.3929
  0
LINE
  8
0
 10
-129.25
 20
68.3929
 11
-129.03
 21
68.5992
  0
LINE
  8
0
 10
-129.03
 20
68.5992
 11
-128.786
 21
68.7764
  0
LINE
  8
0
 10
-128.786
 20
68.7764
 11
-128.522
 21
68.9216
  0
LINE
  8
0
 10
-128.522
 20
68.9216
 11
-128.242
 21
69.0325
  0
LINE
  8
0
 10
-128.242
 20
69.0325
 11
-127.95
 21
69.1075
  0
LINE
  8
0
 10
-127.95
 20
69.1075
 11
-127.651
 21
69.1453
  0
LINE
  8
0
 10
-127.651
 20
69.1453
 11
-127.349
 21
69.1453
  0
LINE
  8
0
 10
-127.349
 20
69.1453
 11
-127.05
 21
69.1075
  0
LINE
  8
0
 10
-127.05
 20
69.1075
 11
-126.758
 21
69.0325
  0
LINE
  8
0
 10
-126.758
 20
69.0325
 11
-126.478
 21
68.9216
  0
LINE
  8
0
 10
-126.478
 20
68.9216
 11
-126.214
 21
68.7764
  0
LINE
  8
0
 10
-126.214
 20
68.7764
 11
-125.97
 21
68.5992
  0
LINE
  8
0
 10
-125.97
 20
68.5992
 11
-125.75
 21
68.3929
  0
LINE
  8
0
 10
-125.75
 20
68.3929
 11
-125.558
 21
68.1607
  0
LINE
  8
0
 10
-125.558
 20
68.1607
 11
-125.397
 21
67.9062
  0
LINE
  8
0
 10
-125.397
 20
67.9062
 11
-125.269
 21
67.6335
  0
LINE
  8
0
 10
-125.269
 20
67.6335
 11
-125.175
 21
67.3468
  0
LINE
  8
0
 10
-125.175
 20
67.3468
 11
-125.119
 21
67.0508
  0
LINE
  8
0
 10
-125.119
 20
67.0508
 11
-125.1
 21
66.75
  0
LINE
  8
0
 10
-125.1
 20
66.75
 11
-125.119
 21
66.4492
  0
LINE
  8
0
 10
-125.119
 20
66.4492
 11
-125.175
 21
66.1531
  0
LINE
  8
0
 10
-125.175
 20
66.1531
 11
-125.269
 21
65.8665
  0
LINE
  8
0
 10
-125.269
 20
65.8665
 11
-125.397
 21
65.5938
  0
LINE
  8
0
 10
-125.397
 20
65.5938
 11
-125.558
 21
65.3393
  0
LINE
  8
0
 10
-125.558
 20
65.3393
 11
-125.75
 21
65.1071
  0
LINE
  8
0
 10
-125.75
 20
65.1071
 11
-125.97
 21
64.9008
  0
LINE
  8
0
 10
-125.97
 20
64.9008
 11
-126.214
 21
64.7236
  0
LINE
  8
0
 10
-126.214
 20
64.7236
 11
-126.478
 21
64.5784
  0
LINE
  8
0
 10
-126.478
 20
64.5784
 11
-126.758
 21
64.4675
  0
LINE
  8
0
 10
-126.758
 20
64.4675
 11
-127.05
 21
64.3925
  0
LINE
  8
0
 10
-127.05
 20
64.3925
 11
-127.349
 21
64.3547
  0
LINE
  8
0
 10
-127.349
 20
64.3547
 11
-127.651
 21
64.3547
  0
LINE
  8
0
 10
127.349
 20
56.8547
 11
127.05
 21
56.8925
  0
LINE
  8
0
 10
127.05
 20
56.8925
 11
126.758
 21
56.9675
  0
LINE
  8
0
 10
126.758
 20
56.9675
 11
126.478
 21
57.0784
  0
LINE
  8
0
 10
126.478
 20
57.0784
 11
126.214
 21
57.2236
  0
LINE
  8
0
 10
126.214
 20
57.2236
 11
125.97
 21
57.4008
  0
LINE
  8
0
 10
125.97
 20
57.4008
 11
125.75
 21
57.6071
  0
LINE
  8
0
 10
125.75
 20
57.6071
 11
125.558
 21
57.8393
  0
LINE
  8
0
 10
125.558
 20
57.8393
 11
125.397
 21
58.0938
  0
LINE
  8
0
 10
125.397
 20
58.0938
 11
125.269
 21
58.3665
  0
LINE
  8
0
 10
125.269
 20
58.3665
 11
125.175
 21
58.6532
  0
LINE
  8
0
 10
125.175
 20
58.6532
 11
125.119
 21
58.9492
  0
LINE
  8
0
 10
125.119
 20
58.9492
 11
125.1
 21
59.25
  0
LINE
  8
0
 10
125.1
 20
59.25
 11
125.119
 21
59.5508
  0
LINE
  8
0
 10
125.119
 20
59.5508
 11
125.175
 21
59.8469
  0
LINE
  8
0
 10
125.175
 20
59.8469
 11
125.269
 21
60.1335
  0
LINE
  8
0
 10
125.269
 20
60.1335
 11
125.397
 21
60.4062
  0
LINE
  8
0
 10
125.397
 20
60.4062
 11
125.558
 21
60.6607
  0
LINE
  8
0
 10
125.558
 20
60.6607
 11
125.75
 21
60.8929
  0
LINE
  8
0
 10
125.75
 20
60.8929
 11
125.97
 21
61.0992
  0
LINE
  8
0
 10
125.97
 20
61.0992
 11
126.214
 21
61.2764
  0
LINE
  8
0
 10
126.214
 20
61.2764
 11
126.478
 21
61.4216
  0
LINE
  8
0
 10
126.478
 20
61.4216
 11
126.758
 21
61.5325
  0
LINE
  8
0
 10
126.758
 20
61.5325
 11
127.05
 21
61.6075
  0
LINE
  8
0
 10
127.05
 20
61.6075
 11
127.349
 21
61.6453
  0
LINE
  8
0
 10
127.349
 20
61.6453
 11
127.651
 21
61.6453
  0
LINE
  8
0
 10
127.651
 20
61.6453
 11
127.95
 21
61.6075
  0
LINE
  8
0
 10
127.95
 20
61.6075
 11
128.242
 21
61.5325
  0
LINE
  8
0
 10
128.242
 20
61.5325
 11
128.522
 21
61.4216
  0
LINE
  8
0
 10
128.522
 20
61.4216
 11
128.786
 21
61.2764
  0
LINE
  8
0
 10
128.786
 20
61.2764
 11
129.03
 21
61.0992
  0
LINE
  8
0
 10
129.03
 20
61.0992
 11
129.25
 21
60.8929
  0
LINE
  8
0
 10
129.25
 20
60.8929
 11
129.442
 21
60.6607
  0
LINE
  8
0
 10
129.442
 20
60.6607
 11
129.603
 21
60.4062
  0
LINE
  8
0
 10
129.603
 20
60.4062
 11
129.731
 21
60.1335
  0
LINE
  8
0
 10
129.731
 20
60.1335
 11
129.825
 21
59.8469
  0
LINE
  8
0
 10
129.825
 20
59.8469
 11
129.881
 21
59.5508
  0
LINE
  8
0
 10
129.881
 20
59.5508
 11
129.9
 21
59.25
  0
LINE
  8
0
 10
129.9
 20
59.25
 11
129.881
 21
58.9492
  0
LINE
  8
0
 10
129.881
 20
58.9492
 11
129.825
 21
58.6532
  0
LINE
  8
0
 10
129.825
 20
58.6532
 11
129.731
 21
58.3665
  0
LINE
  8
0
 10
129.731
 20
58.3665
 11
129.603
 21
58.0938
  0
LINE
  8
0
 10
129.603
 20
58.0938
 11
129.442
 21
57.8393
  0
LINE
  8
0
 10
129.442
 20
57.8393
 11
129.25
 21
57.6071
  0
LINE
  8
0
 10
129.25
 20
57.6071
 11
129.03
 21
57.4008
  0
LINE
  8
0
 10
129.03
 20
57.4008
 11
128.786
 21
57.2236
  0
LINE
  8
0
 10
128.786
 20
57.2236
 11
128.522
 21
57.0784
  0
LINE
  8
0
 10
128.522
 20
57.0784
 11
128.242
 21
56.9675
  0
LINE
  8
0
 10
128.242
 20
56.9675
 11
127.95
 21
56.8925
  0
LINE
  8
0
 10
127.95
 20
56.8925
 11
127.651
 21
56.8547
  0
LINE
  8
0
 10
127.651
 20
56.8547
 11
127.349
 21
56.8547
  0
LINE
  8
0
 10
-127.651
 20
56.8547
 11
-127.95
 21
56.8925
  0
LINE
  8
0
 10
-127.95
 20
56.8925
 11
-128.242
 21
56.9675
  0
LINE
  8
0
 10
-128.242
 20
56.9675
 11
-128.522
 21
57.0784
  0
LINE
  8
0
 10
-128.522
 20
57.0784
 11
-128.786
 21
57.2236
  0
LINE
  8
0
 10
-128.786
 20
57.2236
 11
-129.03
 21
57.4008
  0
LINE
  8
0
 10
-129.03
 20
57.4008
 11
-129.25
 21
57.6071
  0
LINE
  8
0
 10
-129.25
 20
57.6071
 11
-129.442
 21
57.8393
  0
LINE
  8
0
 10
-129.442
 20
57.8393
 11
-129.603
 21
58.0938
  0
LINE
  8
0
 10
-129.603
 20
58.0938
 11
-129.731
 21
58.3665
  0
LINE
  8
0
 10
-129.731
 20
58.3665
 11
-129.825
 21
58.6532
  0
LINE
  8
0
 10
-129.825
 20
58.6532
 11
-129.881
 21
58.9492
  0
LINE
  8
0
 10
-129.881
 20
58.9492
 11
-129.9
 21
59.25
  0
LINE
  8
0
 10
-129.9
 20
59.25
 11
-129.881
 21
59.5508
  0
LINE
  8
0
 10
-129.881
 20
59.5508
 11
-129.825
 21
59.8469
  0
LINE
  8
0
 10
-129.825
 20
59.8469
 11
-129.731
 21
60.1335
  0
LINE
  8
0
 10
-129.731
 20
60.1335
 11
-129.603
 21
60.4062
  0
LINE
  8
0
 10
-129.603
 20
60.4062
 11
-129.442
 21
60.6607
  0
LINE
  8
0
 10
-129.442
 20
60.6607
 11
-129.25
 21
60.8929
  0
LINE
  8
0
 10
-129.25
 20
60.8929
 11
-129.03
 21
61.0992
  0
LINE
  8
0
 10
-129.03
 20
61.0992
 11
-128.786
 21
61.2764
  0
LINE
  8
0
 10
-128.786
 20
61.2764
 11
-128.522
 21
61.4216
  0
LINE
  8
0
 10
-128.522
 20
61.4216
 11
-128.242
 21
61.5325
  0
LINE
  8
0
 10
-128.242
 20
61.5325
 11
-127.95
 21
61.6075
  0
LINE
  8
0
 10
-127.95
 20
61.6075
 11
-127.651
 21
61.6453
  0
LINE
  8
0
 10
-127.651
 20
61.6453
 11
-127.349
 21
61.6453
  0
LINE
  8
0
 10
-127.349
 20
61.6453
 11
-127.05
 21
61.6075
  0
LINE
  8
0
 10
-127.05
 20
61.6075
 11
-126.758
 21
61.5325
  0
LINE
  8
0
 10
-126.758
 20
61.5325
 11
-126.478
 21
61.4216
  0
LINE
  8
0
 10
-126.478
 20
61.4216
 11
-126.214
 21
61.2764
  0
LINE
  8
0
 10
-126.214
 20
61.2764
 11
-125.97
 21
61.0992
  0
LINE
  8
0
 10
-125.97
 20
61.0992
 11
-125.75
 21
60.8929
  0
LINE
  8
0
 10
-125.75
 20
60.8929
 11
-125.558
 21
60.6607
  0
LINE
  8
0
 10
-125.558
 20
60.6607
 11
-125.397
 21
60.4062
  0
LINE
  8
0
 10
-125.397
 20
60.4062
 11
-125.269
 21
60.1335
  0
LINE
  8
0
 10
-125.269
 20
60.1335
 11
-125.175
 21
59.8469
  0
LINE
  8
0
 10
-125.175
 20
59.8469
 11
-125.119
 21
59.5508
  0
LINE
  8
0
 10
-125.119
 20
59.5508
 11
-125.1
 21
59.25
  0
LINE
  8
0
 10
-125.1
 20
59.25
 11
-125.119
 21
58.9492
  0
LINE
  8
0
 10
-125.119
 20
58.9492
 11
-125.175
 21
58.6532
  0
LINE
  8
0
 10
-125.175
 20
58.6532
 11
-125.269
 21
58.3665
  0
LINE
  8
0
 10
-125.269
 20
58.3665
 11
-125.397
 21
58.0938
  0
LINE
  8
0
 10
-125.397
 20
58.0938
 11
-125.558
 21
57.8393
  0
LINE
  8
0
 10
-125.558
 20
57.8393
 11
-125.75
 21
57.6071
  0
LINE
  8
0
 10
-125.75
 20
57.6071
 11
-125.97
 21
57.4008
  0
LINE
  8
0
 10
-125.97
 20
57.4008
 11
-126.214
 21
57.2236
  0
LINE
  8
0
 10
-126.214
 20
57.2236
 11
-126.478
 21
57.0784
  0
LINE
  8
0
 10
-126.478
 20
57.0784
 11
-126.758
 21
56.9675
  0
LINE
  8
0
 10
-126.758
 20
56.9675
 11
-127.05
 21
56.8925
  0
LINE
  8
0
 10
-127.05
 20
56.8925
 11
-127.349
 21
56.8547
  0
LINE
  8
0
 10
-127.349
 20
56.8547
 11
-127.651
 21
56.8547
  0
LINE
  8
0
 10
130.937
 20
20.3386
 11
131.545
 21
20.4947
  0
LINE
  8
0
 10
131.545
 20
20.4947
 11
132.129
 21
20.7259
  0
LINE
  8
0
 10
132.129
 20
20.7259
 11
132.679
 21
21.0284
  0
LINE
  8
0
 10
132.679
 20
21.0284
 11
133.187
 21
21.3974
  0
LINE
  8
0
 10
133.187
 20
21.3974
 11
133.645
 21
21.8273
  0
LINE
  8
0
 10
133.645
 20
21.8273
 11
134.045
 21
22.3111
  0
LINE
  8
0
 10
134.045
 20
22.3111
 11
134.382
 21
22.8412
  0
LINE
  8
0
 10
134.382
 20
22.8412
 11
134.649
 21
23.4094
  0
LINE
  8
0
 10
134.649
 20
23.4094
 11
134.843
 21
24.0066
  0
LINE
  8
0
 10
134.843
 20
24.0066
 11
134.961
 21
24.6233
  0
LINE
  8
0
 10
134.961
 20
24.6233
 11
135
 21
25.25
  0
LINE
  8
0
 10
135
 20
25.25
 11
135
 21
37.75
  0
LINE
  8
0
 10
135
 20
37.75
 11
134.961
 21
38.3767
  0
LINE
  8
0
 10
134.961
 20
38.3767
 11
134.843
 21
38.9934
  0
LINE
  8
0
 10
134.843
 20
38.9934
 11
134.649
 21
39.5906
  0
LINE
  8
0
 10
134.649
 20
39.5906
 11
134.382
 21
40.1588
  0
LINE
  8
0
 10
134.382
 20
40.1588
 11
134.045
 21
40.6889
  0
LINE
  8
0
 10
134.045
 20
40.6889
 11
133.645
 21
41.1727
  0
LINE
  8
0
 10
133.645
 20
41.1727
 11
133.187
 21
41.6026
  0
LINE
  8
0
 10
133.187
 20
41.6026
 11
132.679
 21
41.9716
  0
LINE
  8
0
 10
132.679
 20
41.9716
 11
132.129
 21
42.2741
  0
LINE
  8
0
 10
132.129
 20
42.2741
 11
131.545
 21
42.5053
  0
LINE
  8
0
 10
131.545
 20
42.5053
 11
130.937
 21
42.6614
  0
LINE
  8
0
 10
130.937
 20
42.6614
 11
130.314
 21
42.7401
  0
LINE
  8
0
 10
130.314
 20
42.7401
 11
-130.314
 21
42.7401
  0
LINE
  8
0
 10
-130.314
 20
42.7401
 11
-130.937
 21
42.6614
  0
LINE
  8
0
 10
-130.937
 20
42.6614
 11
-131.545
 21
42.5053
  0
LINE
  8
0
 10
-131.545
 20
42.5053
 11
-132.129
 21
42.2741
  0
LINE
  8
0
 10
-132.129
 20
42.2741
 11
-132.679
 21
41.9716
  0
LINE
  8
0
 10
-132.679
 20
41.9716
 11
-133.187
 21
41.6026
  0
LINE
  8
0
 10
-133.187
 20
41.6026
 11
-133.645
 21
41.1727
  0
LINE
  8
0
 10
-133.645
 20
41.1727
 11
-134.045
 21
40.6889
  0
LINE
  8
0
 10
-134.045
 20
40.6889
 11
-134.382
 21
40.1588
  0
LINE
  8
0
 10
-134.382
 20
40.1588
 11
-134.649
 21
39.5906
  0
LINE
  8
0
 10
-134.649
 20
39.5906
 11
-134.843
 21
38.9934
  0
LINE
  8
0
 10
-134.843
 20
38.9934
 11
-134.9
 21
38.6942
  0
LINE
  8
0
 10
-134.9
 20
38.6942
 11
-136.5
 21
38.6942
  0
LINE
  8
0
 10
-136.5
 20
38.6942
 11
-136.5
 21
24.3058
  0
LINE
  8
0
 10
-136.5
 20
24.3058
 11
-134.9
 21
24.3058
  0
LINE
  8
0
 10
-134.9
 20
24.3058
 11
-134.843
 21
24.0066
  0
LINE
  8
0
 10
-134.843
 20
24.0066
 11
-134.649
 21
23.4094
  0
LINE
  8
0
 10
-134.649
 20
23.4094
 11
-134.382
 21
22.8412
  0
LINE
  8
0
 10
-134.382
 20
22.8412
 11
-134.045
 21
22.3111
  0
LINE
  8
0
 10
-134.045
 20
22.3111
 11
-133.645
 21
21.8273
  0
LINE
  8
0
 10
-133.645
 20
21.8273
 11
-133.187
 21
21.3974
  0
LINE
  8
0
 10
-133.187
 20
21.3974
 11
-132.679
 21
21.0284
  0
LINE
  8
0
 10
-132.679
 20
21.0284
 11
-132.129
 21
20.7259
  0
LINE
  8
0
 10
-132.129
 20
20.7259
 11
-131.545
 21
20.4947
  0
LINE
  8
0
 10
-131.545
 20
20.4947
 11
-130.937
 21
20.3386
  0
LINE
  8
0
 10
-130.937
 20
20.3386
 11
-130.314
 21
20.2599
  0
LINE
  8
0
 10
-130.314
 20
20.2599
 11
130.314
 21
20.2599
  0
LINE
  8
0
 10
130.314
 20
20.2599
 11
130.937
 21
20.3386
  0
LINE
  8
0
 10
127.387
 20
33.4536
 11
127.163
 21
33.4819
  0
LINE
  8
0
 10
127.163
 20
33.4819
 11
126.944
 21
33.5381
  0
LINE
  8
0
 10
126.944
 20
33.5381
 11
126.734
 21
33.6213
  0
LINE
  8
0
 10
126.734
 20
33.6213
 11
126.536
 21
33.7302
  0
LINE
  8
0
 10
126.536
 20
33.7302
 11
126.353
 21
33.8631
  0
LINE
  8
0
 10
126.353
 20
33.8631
 11
126.188
 21
34.0178
  0
LINE
  8
0
 10
126.188
 20
34.0178
 11
126.044
 21
34.192
  0
LINE
  8
0
 10
126.044
 20
34.192
 11
125.923
 21
34.3828
  0
LINE
  8
0
 10
125.923
 20
34.3828
 11
125.826
 21
34.5874
  0
LINE
  8
0
 10
125.826
 20
34.5874
 11
125.757
 21
34.8024
  0
LINE
  8
0
 10
125.757
 20
34.8024
 11
125.714
 21
35.0244
  0
LINE
  8
0
 10
125.714
 20
35.0244
 11
125.7
 21
35.25
  0
LINE
  8
0
 10
125.7
 20
35.25
 11
125.714
 21
35.4756
  0
LINE
  8
0
 10
125.714
 20
35.4756
 11
125.757
 21
35.6976
  0
LINE
  8
0
 10
125.757
 20
35.6976
 11
125.826
 21
35.9126
  0
LINE
  8
0
 10
125.826
 20
35.9126
 11
125.923
 21
36.1171
  0
LINE
  8
0
 10
125.923
 20
36.1171
 11
126.044
 21
36.308
  0
LINE
  8
0
 10
126.044
 20
36.308
 11
126.188
 21
36.4822
  0
LINE
  8
0
 10
126.188
 20
36.4822
 11
126.353
 21
36.6369
  0
LINE
  8
0
 10
126.353
 20
36.6369
 11
126.536
 21
36.7698
  0
LINE
  8
0
 10
126.536
 20
36.7698
 11
126.734
 21
36.8787
  0
LINE
  8
0
 10
126.734
 20
36.8787
 11
126.944
 21
36.9619
  0
LINE
  8
0
 10
126.944
 20
36.9619
 11
127.163
 21
37.0181
  0
LINE
  8
0
 10
127.163
 20
37.0181
 11
127.387
 21
37.0464
  0
LINE
  8
0
 10
127.387
 20
37.0464
 11
127.613
 21
37.0464
  0
LINE
  8
0
 10
127.613
 20
37.0464
 11
127.837
 21
37.0181
  0
LINE
  8
0
 10
127.837
 20
37.0181
 11
128.056
 21
36.9619
  0
LINE
  8
0
 10
128.056
 20
36.9619
 11
128.266
 21
36.8787
  0
LINE
  8
0
 10
128.266
 20
36.8787
 11
128.464
 21
36.7698
  0
LINE
  8
0
 10
128.464
 20
36.7698
 11
128.647
 21
36.6369
  0
LINE
  8
0
 10
128.647
 20
36.6369
 11
128.812
 21
36.4822
  0
LINE
  8
0
 10
128.812
 20
36.4822
 11
128.956
 21
36.308
  0
LINE
  8
0
 10
128.956
 20
36.308
 11
129.077
 21
36.1171
  0
LINE
  8
0
 10
129.077
 20
36.1171
 11
129.174
 21
35.9126
  0
LINE
  8
0
 10
129.174
 20
35.9126
 11
129.243
 21
35.6976
  0
LINE
  8
0
 10
129.243
 20
35.6976
 11
129.286
 21
35.4756
  0
LINE
  8
0
 10
129.286
 20
35.4756
 11
129.3
 21
35.25
  0
LINE
  8
0
 10
129.3
 20
35.25
 11
129.286
 21
35.0244
  0
LINE
  8
0
 10
129.286
 20
35.0244
 11
129.243
 21
34.8024
  0
LINE
  8
0
 10
129.243
 20
34.8024
 11
129.174
 21
34.5874
  0
LINE
  8
0
 10
129.174
 20
34.5874
 11
129.077
 21
34.3828
  0
LINE
  8
0
 10
129.077
 20
34.3828
 11
128.956
 21
34.192
  0
LINE
  8
0
 10
128.956
 20
34.192
 11
128.812
 21
34.0178
  0
LINE
  8
0
 10
128.812
 20
34.0178
 11
128.647
 21
33.8631
  0
LINE
  8
0
 10
128.647
 20
33.8631
 11
128.464
 21
33.7302
  0
LINE
  8
0
 10
128.464
 20
33.7302
 11
128.266
 21
33.6213
  0
LINE
  8
0
 10
128.266
 20
33.6213
 11
128.056
 21
33.5381
  0
LINE
  8
0
 10
128.056
 20
33.5381
 11
127.837
 21
33.4819
  0
LINE
  8
0
 10
127.837
 20
33.4819
 11
127.613
 21
33.4536
  0
LINE
  8
0
 10
127.613
 20
33.4536
 11
127.387
 21
33.4536
  0
LINE
  8
0
 10
-127.613
 20
33.4536
 11
-127.837
 21
33.4819
  0
LINE
  8
0
 10
-127.837
 20
33.4819
 11
-128.056
 21
33.5381
  0
LINE
  8
0
 10
-128.056
 20
33.5381
 11
-128.266
 21
33.6213
  0
LINE
  8
0
 10
-128.266
 20
33.6213
 11
-128.464
 21
33.7302
  0
LINE
  8
0
 10
-128.464
 20
33.7302
 11
-128.647
 21
33.8631
  0
LINE
  8
0
 10
-128.647
 20
33.8631
 11
-128.812
 21
34.0178
  0
LINE
  8
0
 10
-128.812
 20
34.0178
 11
-128.956
 21
34.192
  0
LINE
  8
0
 10
-128.956
 20
34.192
 11
-129.077
 21
34.3828
  0
LINE
  8
0
 10
-129.077
 20
34.3828
 11
-129.174
 21
34.5874
  0
LINE
  8
0
 10
-129.174
 20
34.5874
 11
-129.243
 21
34.8024
  0
LINE
  8
0
 10
-129.243
 20
34.8024
 11
-129.286
 21
35.0244
  0
LINE
  8
0
 10
-129.286
 20
35.0244
 11
-129.3
 21
35.25
  0
LINE
  8
0
 10
-129.3
 20
35.25
 11
-129.286
 21
35.4756
  0
LINE
  8
0
 10
-129.286
 20
35.4756
 11
-129.243
 21
35.6976
  0
LINE
  8
0
 10
-129.243
 20
35.6976
 11
-129.174
 21
35.9126
  0
LINE
  8
0
 10
-129.174
 20
35.9126
 11
-129.077
 21
36.1171
  0
LINE
  8
0
 10
-129.077
 20
36.1171
 11
-128.956
 21
36.308
  0
LINE
  8
0
 10
-128.956
 20
36.308
 11
-128.812
 21
36.4822
  0
LINE
  8
0
 10
-128.812
 20
36.4822
 11
-128.647
 21
36.6369
  0
LINE
  8
0
 10
-128.647
 20
36.6369
 11
-128.464
 21
36.7698
  0
LINE
  8
0
 10
-128.464
 20
36.7698
 11
-128.266
 21
36.8787
  0
LINE
  8
0
 10
-128.266
 20
36.8787
 11
-128.056
 21
36.9619
  0
LINE
  8
0
 10
-128.056
 20
36.9619
 11
-127.837
 21
37.0181
  0
LINE
  8
0
 10
-127.837
 20
37.0181
 11
-127.613
 21
37.0464
  0
LINE
  8
0
 10
-127.613
 20
37.0464
 11
-127.387
 21
37.0464
  0
LINE
  8
0
 10
-127.387
 20
37.0464
 11
-127.163
 21
37.0181
  0
LINE
  8
0
 10
-127.163
 20
37.0181
 11
-126.944
 21
36.9619
  0
LINE
  8
0
 10
-126.944
 20
36.9619
 11
-126.734
 21
36.8787
  0
LINE
  8
0
 10
-126.734
 20
36.8787
 11
-126.536
 21
36.7698
  0
LINE
  8
0
 10
-126.536
 20
36.7698
 11
-126.353
 21
36.6369
  0
LINE
  8
0
 10
-126.353
 20
36.6369
 11
-126.188
 21
36.4822
  0
LINE
  8
0
 10
-126.188
 20
36.4822
 11
-126.044
 21
36.308
  0
LINE
  8
0
 10
-126.044
 20
36.308
 11
-125.923
 21
36.1171
  0
LINE
  8
0
 10
-125.923
 20
36.1171
 11
-125.826
 21
35.9126
  0
LINE
  8
0
 10
-125.826
 20
35.9126
 11
-125.757
 21
35.6976
  0
LINE
  8
0
 10
-125.757
 20
35.6976
 11
-125.714
 21
35.4756
  0
LINE
  8
0
 10
-125.714
 20
35.4756
 11
-125.7
 21
35.25
  0
LINE
  8
0
 10
-125.7
 20
35.25
 11
-125.714
 21
35.0244
  0
LINE
  8
0
 10
-125.714
 20
35.0244
 11
-125.757
 21
34.8024
  0
LINE
  8
0
 10
-125.757
 20
34.8024
 11
-125.826
 21
34.5874
  0
LINE
  8
0
 10
-125.826
 20
34.5874
 11
-125.923
 21
34.3828
  0
LINE
  8
0
 10
-125.923
 20
34.3828
 11
-126.044
 21
34.192
  0
LINE
  8
0
 10
-126.044
 20
34.192
 11
-126.188
 21
34.0178
  0
LINE
  8
0
 10
-126.188
 20
34.0178
 11
-126.353
 21
33.8631
  0
LINE
  8
0
 10
-126.353
 20
33.8631
 11
-126.536
 21
33.7302
  0
LINE
  8
0
 10
-126.536
 20
33.7302
 11
-126.734
 21
33.6213
  0
LINE
  8
0
 10
-126.734
 20
33.6213
 11
-126.944
 21
33.5381
  0
LINE
  8
0
 10
-126.944
 20
33.5381
 11
-127.163
 21
33.4819
  0
LINE
  8
0
 10
-127.163
 20
33.4819
 11
-127.387
 21
33.4536
  0
LINE
  8
0
 10
-127.387
 20
33.4536
 11
-127.613
 21
33.4536
  0
LINE
  8
0
 10
127.387
 20
25.9536
 11
127.163
 21
25.9819
  0
LINE
  8
0
 10
127.163
 20
25.9819
 11
126.944
 21
26.0381
  0
LINE
  8
0
 10
126.944
 20
26.0381
 11
126.734
 21
26.1213
  0
LINE
  8
0
 10
126.734
 20
26.1213
 11
126.536
 21
26.2302
  0
LINE
  8
0
 10
126.536
 20
26.2302
 11
126.353
 21
26.3631
  0
LINE
  8
0
 10
126.353
 20
26.3631
 11
126.188
 21
26.5178
  0
LINE
  8
0
 10
126.188
 20
26.5178
 11
126.044
 21
26.692
  0
LINE
  8
0
 10
126.044
 20
26.692
 11
125.923
 21
26.8829
  0
LINE
  8
0
 10
125.923
 20
26.8829
 11
125.826
 21
27.0874
  0
LINE
  8
0
 10
125.826
 20
27.0874
 11
125.757
 21
27.3024
  0
LINE
  8
0
 10
125.757
 20
27.3024
 11
125.714
 21
27.5244
  0
LINE
  8
0
 10
125.714
 20
27.5244
 11
125.7
 21
27.75
  0
LINE
  8
0
 10
125.7
 20
27.75
 11
125.714
 21
27.9756
  0
LINE
  8
0
 10
125.714
 20
27.9756
 11
125.757
 21
28.1976
  0
LINE
  8
0
 10
125.757
 20
28.1976
 11
125.826
 21
28.4126
  0
LINE
  8
0
 10
125.826
 20
28.4126
 11
125.923
 21
28.6172
  0
LINE
  8
0
 10
125.923
 20
28.6172
 11
126.044
 21
28.808
  0
LINE
  8
0
 10
126.044
 20
28.808
 11
126.188
 21
28.9822
  0
LINE
  8
0
 10
126.188
 20
28.9822
 11
126.353
 21
29.1369
  0
LINE
  8
0
 10
126.353
 20
29.1369
 11
126.536
 21
29.2698
  0
LINE
  8
0
 10
126.536
 20
29.2698
 11
126.734
 21
29.3787
  0
LINE
  8
0
 10
126.734
 20
29.3787
 11
126.944
 21
29.4619
  0
LINE
  8
0
 10
126.944
 20
29.4619
 11
127.163
 21
29.5181
  0
LINE
  8
0
 10
127.163
 20
29.5181
 11
127.387
 21
29.5464
  0
LINE
  8
0
 10
127.387
 20
29.5464
 11
127.613
 21
29.5464
  0
LINE
  8
0
 10
127.613
 20
29.5464
 11
127.837
 21
29.5181
  0
LINE
  8
0
 10
127.837
 20
29.5181
 11
128.056
 21
29.4619
  0
LINE
  8
0
 10
128.056
 20
29.4619
 11
128.266
 21
29.3787
  0
LINE
  8
0
 10
128.266
 20
29.3787
 11
128.464
 21
29.2698
  0
LINE
  8
0
 10
128.464
 20
29.2698
 11
128.647
 21
29.1369
  0
LINE
  8
0
 10
128.647
 20
29.1369
 11
128.812
 21
28.9822
  0
LINE
  8
0
 10
128.812
 20
28.9822
 11
128.956
 21
28.808
  0
LINE
  8
0
 10
128.956
 20
28.808
 11
129.077
 21
28.6172
  0
LINE
  8
0
 10
129.077
 20
28.6172
 11
129.174
 21
28.4126
  0
LINE
  8
0
 10
129.174
 20
28.4126
 11
129.243
 21
28.1976
  0
LINE
  8
0
 10
129.243
 20
28.1976
 11
129.286
 21
27.9756
  0
LINE
  8
0
 10
129.286
 20
27.9756
 11
129.3
 21
27.75
  0
LINE
  8
0
 10
129.3
 20
27.75
 11
129.286
 21
27.5244
  0
LINE
  8
0
 10
129.286
 20
27.5244
 11
129.243
 21
27.3024
  0
LINE
  8
0
 10
129.243
 20
27.3024
 11
129.174
 21
27.0874
  0
LINE
  8
0
 10
129.174
 20
27.0874
 11
129.077
 21
26.8829
  0
LINE
  8
0
 10
129.077
 20
26.8829
 11
128.956
 21
26.692
  0
LINE
  8
0
 10
128.956
 20
26.692
 11
128.812
 21
26.5178
  0
LINE
  8
0
 10
128.812
 20
26.5178
 11
128.647
 21
26.3631
  0
LINE
  8
0
 10
128.647
 20
26.3631
 11
128.464
 21
26.2302
  0
LINE
  8
0
 10
128.464
 20
26.2302
 11
128.266
 21
26.1213
  0
LINE
  8
0
 10
128.266
 20
26.1213
 11
128.056
 21
26.0381
  0
LINE
  8
0
 10
128.056
 20
26.0381
 11
127.837
 21
25.9819
  0
LINE
  8
0
 10
127.837
 20
25.9819
 11
127.613
 21
25.9536
  0
LINE
  8
0
 10
127.613
 20
25.9536
 11
127.387
 21
25.9536
  0
LINE
  8
0
 10
-127.613
 20
25.9536
 11
-127.837
 21
25.9819
  0
LINE
  8
0
 10
-127.837
 20
25.9819
 11
-128.056
 21
26.0381
  0
LINE
  8
0
 10
-128.056
 20
26.0381
 11
-128.266
 21
26.1213
  0
LINE
  8
0
 10
-128.266
 20
26.1213
 11
-128.464
 21
26.2302
  0
LINE
  8
0
 10
-128.464
 20
26.2302
 11
-128.647
 21
26.3631
  0
LINE
  8
0
 10
-128.647
 20
26.3631
 11
-128.812
 21
26.5178
  0
LINE
  8
0
 10
-128.812
 20
26.5178
 11
-128.956
 21
26.692
  0
LINE
  8
0
 10
-128.956
 20
26.692
 11
-129.077
 21
26.8829
  0
LINE
  8
0
 10
-129.077
 20
26.8829
 11
-129.174
 21
27.0874
  0
LINE
  8
0
 10
-129.174
 20
27.0874
 11
-129.243
 21
27.3024
  0
LINE
  8
0
 10
-129.243
 20
27.3024
 11
-129.286
 21
27.5244
  0
LINE
  8
0
 10
-129.286
 20
27.5244
 11
-129.3
 21
27.75
  0
LINE
  8
0
 10
-129.3
 20
27.75
 11
-129.286
 21
27.9756
  0
LINE
  8
0
 10
-129.286
 20
27.9756
 11
-129.243
 21
28.1976
  0
LINE
  8
0
 10
-129.243
 20
28.1976
 11
-129.174
 21
28.4126
  0
LINE
  8
0
 10
-129.174
 20
28.4126
 11
-129.077
 21
28.6172
  0
LINE
  8
0
 10
-129.077
 20
28.6172
 11
-128.956
 21
28.808
  0
LINE
  8
0
 10
-128.956
 20
28.808
 11
-128.812
 21
28.9822
  0
LINE
  8
0
 10
-128.812
 20
28.9822
 11
-128.647
 21
29.1369
  0
LINE
  8
0
 10
-128.647
 20
29.1369
 11
-128.464
 21
29.2698
  0
LINE
  8
0
 10
-128.464
 20
29.2698
 11
-128.266
 21
29.3787
  0
LINE
  8
0
 10
-128.266
 20
29.3787
 11
-128.056
 21
29.4619
  0
LINE
  8
0
 10
-128.056
 20
29.4619
 11
-127.837
 21
29.5181
  0
LINE
  8
0
 10
-127.837
 20
29.5181
 11
-127.613
 21
29.5464
  0
LINE
  8
0
 10
-127.613
 20
29.5464
 11
-127.387
 21
29.5464
  0
LINE
  8
0
 10
-127.387
 20
29.5464
 11
-127.163
 21
29.5181
  0
LINE
  8
0
 10
-127.163
 20
29.5181
 11
-126.944
 21
29.4619
  0
LINE
  8
0
 10
-126.944
 20
29.4619
 11
-126.734
 21
29.3787
  0
LINE
  8
0
 10
-126.734
 20
29.3787
 11
-126.536
 21
29.2698
  0
LINE
  8
0
 10
-126.536
 20
29.2698
 11
-126.353
 21
29.1369
  0
LINE
  8
0
 10
-126.353
 20
29.1369
 11
-126.188
 21
28.9822
  0
LINE
  8
0
 10
-126.188
 20
28.9822
 11
-126.044
 21
28.808
  0
LINE
  8
0
 10
-126.044
 20
28.808
 11
-125.923
 21
28.6172
  0
LINE
  8
0
 10
-125.923
 20
28.6172
 11
-125.826
 21
28.4126
  0
LINE
  8
0
 10
-125.826
 20
28.4126
 11
-125.757
 21
28.1976
  0
LINE
  8
0
 10
-125.757
 20
28.1976
 11
-125.714
 21
27.9756
  0
LINE
  8
0
 10
-125.714
 20
27.9756
 11
-125.7
 21
27.75
  0
LINE
  8
0
 10
-125.7
 20
27.75
 11
-125.714
 21
27.5244
  0
LINE
  8
0
 10
-125.714
 20
27.5244
 11
-125.757
 21
27.3024
  0
LINE
  8
0
 10
-125.757
 20
27.3024
 11
-125.826
 21
27.0874
  0
LINE
  8
0
 10
-125.826
 20
27.0874
 11
-125.923
 21
26.8829
  0
LINE
  8
0
 10
-125.923
 20
26.8829
 11
-126.044
 21
26.692
  0
LINE
  8
0
 10
-126.044
 20
26.692
 11
-126.188
 21
26.5178
  0
LINE
  8
0
 10
-126.188
 20
26.5178
 11
-126.353
 21
26.3631
  0
LINE
  8
0
 10
-126.353
 20
26.3631
 11
-126.536
 21
26.2302
  0
LINE
  8
0
 10
-126.536
 20
26.2302
 11
-126.734
 21
26.1213
  0
LINE
  8
0
 10
-126.734
 20
26.1213
 11
-126.944
 21
26.0381
  0
LINE
  8
0
 10
-126.944
 20
26.0381
 11
-127.163
 21
25.9819
  0
LINE
  8
0
 10
-127.163
 20
25.9819
 11
-127.387
 21
25.9536
  0
LINE
  8
0
 10
-127.387
 20
25.9536
 11
-127.613
 21
25.9536
  0
ENDSEC
  0
SECTION
  2
OBJECTS
  0
DICTIONARY
  0
ENDSEC
  0
EOF
