  0
SECTION
  2
BLOCKS
  0
ENDSEC
  0
SECTION
  2
ENTITIES
  0
LINE
  8
0
 10
-126
 20
551.941
 11
-125.687
 21
551.647
  0
LINE
  8
0
 10
-125.687
 20
551.647
 11
-125.179
 21
551.278
  0
LINE
  8
0
 10
-125.179
 20
551.278
 11
-124.629
 21
550.976
  0
LINE
  8
0
 10
-124.629
 20
550.976
 11
-124.045
 21
550.745
  0
LINE
  8
0
 10
-124.045
 20
550.745
 11
-123.437
 21
550.589
  0
LINE
  8
0
 10
-123.437
 20
550.589
 11
-122.814
 21
550.51
  0
LINE
  8
0
 10
-122.814
 20
550.51
 11
122.814
 21
550.51
  0
LINE
  8
0
 10
122.814
 20
550.51
 11
123.437
 21
550.589
  0
LINE
  8
0
 10
123.437
 20
550.589
 11
124.045
 21
550.745
  0
LINE
  8
0
 10
124.045
 20
550.745
 11
124.629
 21
550.976
  0
LINE
  8
0
 10
124.629
 20
550.976
 11
125.179
 21
551.278
  0
LINE
  8
0
 10
125.179
 20
551.278
 11
125.687
 21
551.647
  0
LINE
  8
0
 10
125.687
 20
551.647
 11
126.145
 21
552.077
  0
LINE
  8
0
 10
126.145
 20
552.077
 11
126.545
 21
552.561
  0
LINE
  8
0
 10
126.545
 20
552.561
 11
126.882
 21
553.091
  0
LINE
  8
0
 10
126.882
 20
553.091
 11
127.149
 21
553.659
  0
LINE
  8
0
 10
127.149
 20
553.659
 11
127.343
 21
554.257
  0
LINE
  8
0
 10
127.343
 20
554.257
 11
127.461
 21
554.873
  0
LINE
  8
0
 10
127.461
 20
554.873
 11
127.5
 21
555.5
  0
LINE
  8
0
 10
127.5
 20
555.5
 11
127.5
 21
620.5
  0
LINE
  8
0
 10
127.5
 20
620.5
 11
127.461
 21
621.127
  0
LINE
  8
0
 10
127.461
 20
621.127
 11
127.343
 21
621.743
  0
LINE
  8
0
 10
127.343
 20
621.743
 11
127.149
 21
622.341
  0
LINE
  8
0
 10
127.149
 20
622.341
 11
126.882
 21
622.909
  0
LINE
  8
0
 10
126.882
 20
622.909
 11
126.545
 21
623.439
  0
LINE
  8
0
 10
126.545
 20
623.439
 11
126.145
 21
623.923
  0
LINE
  8
0
 10
126.145
 20
623.923
 11
125.687
 21
624.353
  0
LINE
  8
0
 10
125.687
 20
624.353
 11
125.179
 21
624.722
  0
LINE
  8
0
 10
125.179
 20
624.722
 11
124.629
 21
625.024
  0
LINE
  8
0
 10
124.629
 20
625.024
 11
124.045
 21
625.255
  0
LINE
  8
0
 10
124.045
 20
625.255
 11
123.437
 21
625.411
  0
LINE
  8
0
 10
123.437
 20
625.411
 11
122.814
 21
625.49
  0
LINE
  8
0
 10
122.814
 20
625.49
 11
-122.814
 21
625.49
  0
LINE
  8
0
 10
-122.814
 20
625.49
 11
-123.437
 21
625.411
  0
LINE
  8
0
 10
-123.437
 20
625.411
 11
-124.045
 21
625.255
  0
LINE
  8
0
 10
-124.045
 20
625.255
 11
-124.629
 21
625.024
  0
LINE
  8
0
 10
-124.629
 20
625.024
 11
-125.179
 21
624.722
  0
LINE
  8
0
 10
-125.179
 20
624.722
 11
-125.687
 21
624.353
  0
LINE
  8
0
 10
-125.687
 20
624.353
 11
-126
 21
624.059
  0
LINE
  8
0
 10
-126
 20
624.059
 11
-126
 21
625.49
  0
LINE
  8
0
 10
-126
 20
625.49
 11
-129
 21
625.49
  0
LINE
  8
0
 10
-129
 20
625.49
 11
-129
 21
550.51
  0
LINE
  8
0
 10
-129
 20
550.51
 11
-126
 21
550.51
  0
LINE
  8
0
 10
-126
 20
550.51
 11
-126
 21
551.941
  0
LINE
  8
0
 10
-122.251
 20
552.008
 11
-122.75
 21
552.071
  0
LINE
  8
0
 10
-122.75
 20
552.071
 11
-123.236
 21
552.196
  0
LINE
  8
0
 10
-123.236
 20
552.196
 11
-123.703
 21
552.381
  0
LINE
  8
0
 10
-123.703
 20
552.381
 11
-124.143
 21
552.623
  0
LINE
  8
0
 10
-124.143
 20
552.623
 11
-124.55
 21
552.918
  0
LINE
  8
0
 10
-124.55
 20
552.918
 11
-124.916
 21
553.262
  0
LINE
  8
0
 10
-124.916
 20
553.262
 11
-125.236
 21
553.649
  0
LINE
  8
0
 10
-125.236
 20
553.649
 11
-125.505
 21
554.073
  0
LINE
  8
0
 10
-125.505
 20
554.073
 11
-125.719
 21
554.528
  0
LINE
  8
0
 10
-125.719
 20
554.528
 11
-125.874
 21
555.005
  0
LINE
  8
0
 10
-125.874
 20
555.005
 11
-125.968
 21
555.499
  0
LINE
  8
0
 10
-125.968
 20
555.499
 11
-126
 21
556
  0
LINE
  8
0
 10
-126
 20
556
 11
-126
 21
620
  0
LINE
  8
0
 10
-126
 20
620
 11
-125.968
 21
620.501
  0
LINE
  8
0
 10
-125.968
 20
620.501
 11
-125.874
 21
620.995
  0
LINE
  8
0
 10
-125.874
 20
620.995
 11
-125.719
 21
621.472
  0
LINE
  8
0
 10
-125.719
 20
621.472
 11
-125.505
 21
621.927
  0
LINE
  8
0
 10
-125.505
 20
621.927
 11
-125.236
 21
622.351
  0
LINE
  8
0
 10
-125.236
 20
622.351
 11
-124.916
 21
622.738
  0
LINE
  8
0
 10
-124.916
 20
622.738
 11
-124.55
 21
623.082
  0
LINE
  8
0
 10
-124.55
 20
623.082
 11
-124.143
 21
623.377
  0
LINE
  8
0
 10
-124.143
 20
623.377
 11
-123.703
 21
623.619
  0
LINE
  8
0
 10
-123.703
 20
623.619
 11
-123.236
 21
623.804
  0
LINE
  8
0
 10
-123.236
 20
623.804
 11
-122.75
 21
623.929
  0
LINE
  8
0
 10
-122.75
 20
623.929
 11
-122.251
 21
623.992
  0
LINE
  8
0
 10
-122.251
 20
623.992
 11
122.251
 21
623.992
  0
LINE
  8
0
 10
122.251
 20
623.992
 11
122.75
 21
623.929
  0
LINE
  8
0
 10
122.75
 20
623.929
 11
123.236
 21
623.804
  0
LINE
  8
0
 10
123.236
 20
623.804
 11
123.703
 21
623.619
  0
LINE
  8
0
 10
123.703
 20
623.619
 11
124.143
 21
623.377
  0
LINE
  8
0
 10
124.143
 20
623.377
 11
124.55
 21
623.082
  0
LINE
  8
0
 10
124.55
 20
623.082
 11
124.916
 21
622.738
  0
LINE
  8
0
 10
124.916
 20
622.738
 11
125.236
 21
622.351
  0
LINE
  8
0
 10
125.236
 20
622.351
 11
125.505
 21
621.927
  0
LINE
  8
0
 10
125.505
 20
621.927
 11
125.719
 21
621.472
  0
LINE
  8
0
 10
125.719
 20
621.472
 11
125.874
 21
620.995
  0
LINE
  8
0
 10
125.874
 20
620.995
 11
125.968
 21
620.501
  0
LINE
  8
0
 10
125.968
 20
620.501
 11
126
 21
620
  0
LINE
  8
0
 10
126
 20
620
 11
126
 21
556
  0
LINE
  8
0
 10
126
 20
556
 11
125.968
 21
555.499
  0
LINE
  8
0
 10
125.968
 20
555.499
 11
125.874
 21
555.005
  0
LINE
  8
0
 10
125.874
 20
555.005
 11
125.719
 21
554.528
  0
LINE
  8
0
 10
125.719
 20
554.528
 11
125.505
 21
554.073
  0
LINE
  8
0
 10
125.505
 20
554.073
 11
125.236
 21
553.649
  0
LINE
  8
0
 10
125.236
 20
553.649
 11
124.916
 21
553.262
  0
LINE
  8
0
 10
124.916
 20
553.262
 11
124.55
 21
552.918
  0
LINE
  8
0
 10
124.55
 20
552.918
 11
124.143
 21
552.623
  0
LINE
  8
0
 10
124.143
 20
552.623
 11
123.703
 21
552.381
  0
LINE
  8
0
 10
123.703
 20
552.381
 11
123.236
 21
552.196
  0
LINE
  8
0
 10
123.236
 20
552.196
 11
122.75
 21
552.071
  0
LINE
  8
0
 10
122.75
 20
552.071
 11
122.251
 21
552.008
  0
LINE
  8
0
 10
122.251
 20
552.008
 11
-122.251
 21
552.008
  0
LINE
  8
0
 10
-126
 20
467.941
 11
-125.687
 21
467.647
  0
LINE
  8
0
 10
-125.687
 20
467.647
 11
-125.179
 21
467.278
  0
LINE
  8
0
 10
-125.179
 20
467.278
 11
-124.629
 21
466.976
  0
LINE
  8
0
 10
-124.629
 20
466.976
 11
-124.045
 21
466.745
  0
LINE
  8
0
 10
-124.045
 20
466.745
 11
-123.437
 21
466.589
  0
LINE
  8
0
 10
-123.437
 20
466.589
 11
-122.814
 21
466.51
  0
LINE
  8
0
 10
-122.814
 20
466.51
 11
122.814
 21
466.51
  0
LINE
  8
0
 10
122.814
 20
466.51
 11
123.437
 21
466.589
  0
LINE
  8
0
 10
123.437
 20
466.589
 11
124.045
 21
466.745
  0
LINE
  8
0
 10
124.045
 20
466.745
 11
124.629
 21
466.976
  0
LINE
  8
0
 10
124.629
 20
466.976
 11
125.179
 21
467.278
  0
LINE
  8
0
 10
125.179
 20
467.278
 11
125.687
 21
467.647
  0
LINE
  8
0
 10
125.687
 20
467.647
 11
126.145
 21
468.077
  0
LINE
  8
0
 10
126.145
 20
468.077
 11
126.545
 21
468.561
  0
LINE
  8
0
 10
126.545
 20
468.561
 11
126.882
 21
469.091
  0
LINE
  8
0
 10
126.882
 20
469.091
 11
127.149
 21
469.659
  0
LINE
  8
0
 10
127.149
 20
469.659
 11
127.343
 21
470.257
  0
LINE
  8
0
 10
127.343
 20
470.257
 11
127.461
 21
470.873
  0
LINE
  8
0
 10
127.461
 20
470.873
 11
127.5
 21
471.5
  0
LINE
  8
0
 10
127.5
 20
471.5
 11
127.5
 21
536.5
  0
LINE
  8
0
 10
127.5
 20
536.5
 11
127.461
 21
537.127
  0
LINE
  8
0
 10
127.461
 20
537.127
 11
127.343
 21
537.743
  0
LINE
  8
0
 10
127.343
 20
537.743
 11
127.149
 21
538.341
  0
LINE
  8
0
 10
127.149
 20
538.341
 11
126.882
 21
538.909
  0
LINE
  8
0
 10
126.882
 20
538.909
 11
126.545
 21
539.439
  0
LINE
  8
0
 10
126.545
 20
539.439
 11
126.145
 21
539.923
  0
LINE
  8
0
 10
126.145
 20
539.923
 11
125.687
 21
540.353
  0
LINE
  8
0
 10
125.687
 20
540.353
 11
125.179
 21
540.722
  0
LINE
  8
0
 10
125.179
 20
540.722
 11
124.629
 21
541.024
  0
LINE
  8
0
 10
124.629
 20
541.024
 11
124.045
 21
541.255
  0
LINE
  8
0
 10
124.045
 20
541.255
 11
123.437
 21
541.411
  0
LINE
  8
0
 10
123.437
 20
541.411
 11
122.814
 21
541.49
  0
LINE
  8
0
 10
122.814
 20
541.49
 11
-122.814
 21
541.49
  0
LINE
  8
0
 10
-122.814
 20
541.49
 11
-123.437
 21
541.411
  0
LINE
  8
0
 10
-123.437
 20
541.411
 11
-124.045
 21
541.255
  0
LINE
  8
0
 10
-124.045
 20
541.255
 11
-124.629
 21
541.024
  0
LINE
  8
0
 10
-124.629
 20
541.024
 11
-125.179
 21
540.722
  0
LINE
  8
0
 10
-125.179
 20
540.722
 11
-125.687
 21
540.353
  0
LINE
  8
0
 10
-125.687
 20
540.353
 11
-126
 21
540.059
  0
LINE
  8
0
 10
-126
 20
540.059
 11
-126
 21
541.49
  0
LINE
  8
0
 10
-126
 20
541.49
 11
-129
 21
541.49
  0
LINE
  8
0
 10
-129
 20
541.49
 11
-129
 21
466.51
  0
LINE
  8
0
 10
-129
 20
466.51
 11
-126
 21
466.51
  0
LINE
  8
0
 10
-126
 20
466.51
 11
-126
 21
467.941
  0
LINE
  8
0
 10
-122.251
 20
468.008
 11
-122.75
 21
468.071
  0
LINE
  8
0
 10
-122.75
 20
468.071
 11
-123.236
 21
468.196
  0
LINE
  8
0
 10
-123.236
 20
468.196
 11
-123.703
 21
468.381
  0
LINE
  8
0
 10
-123.703
 20
468.381
 11
-124.143
 21
468.623
  0
LINE
  8
0
 10
-124.143
 20
468.623
 11
-124.55
 21
468.918
  0
LINE
  8
0
 10
-124.55
 20
468.918
 11
-124.916
 21
469.262
  0
LINE
  8
0
 10
-124.916
 20
469.262
 11
-125.236
 21
469.649
  0
LINE
  8
0
 10
-125.236
 20
469.649
 11
-125.505
 21
470.073
  0
LINE
  8
0
 10
-125.505
 20
470.073
 11
-125.719
 21
470.528
  0
LINE
  8
0
 10
-125.719
 20
470.528
 11
-125.874
 21
471.005
  0
LINE
  8
0
 10
-125.874
 20
471.005
 11
-125.968
 21
471.499
  0
LINE
  8
0
 10
-125.968
 20
471.499
 11
-126
 21
472
  0
LINE
  8
0
 10
-126
 20
472
 11
-126
 21
536
  0
LINE
  8
0
 10
-126
 20
536
 11
-125.968
 21
536.501
  0
LINE
  8
0
 10
-125.968
 20
536.501
 11
-125.874
 21
536.995
  0
LINE
  8
0
 10
-125.874
 20
536.995
 11
-125.719
 21
537.472
  0
LINE
  8
0
 10
-125.719
 20
537.472
 11
-125.505
 21
537.927
  0
LINE
  8
0
 10
-125.505
 20
537.927
 11
-125.236
 21
538.351
  0
LINE
  8
0
 10
-125.236
 20
538.351
 11
-124.916
 21
538.738
  0
LINE
  8
0
 10
-124.916
 20
538.738
 11
-124.55
 21
539.082
  0
LINE
  8
0
 10
-124.55
 20
539.082
 11
-124.143
 21
539.377
  0
LINE
  8
0
 10
-124.143
 20
539.377
 11
-123.703
 21
539.619
  0
LINE
  8
0
 10
-123.703
 20
539.619
 11
-123.236
 21
539.804
  0
LINE
  8
0
 10
-123.236
 20
539.804
 11
-122.75
 21
539.929
  0
LINE
  8
0
 10
-122.75
 20
539.929
 11
-122.251
 21
539.992
  0
LINE
  8
0
 10
-122.251
 20
539.992
 11
122.251
 21
539.992
  0
LINE
  8
0
 10
122.251
 20
539.992
 11
122.75
 21
539.929
  0
LINE
  8
0
 10
122.75
 20
539.929
 11
123.236
 21
539.804
  0
LINE
  8
0
 10
123.236
 20
539.804
 11
123.703
 21
539.619
  0
LINE
  8
0
 10
123.703
 20
539.619
 11
124.143
 21
539.377
  0
LINE
  8
0
 10
124.143
 20
539.377
 11
124.55
 21
539.082
  0
LINE
  8
0
 10
124.55
 20
539.082
 11
124.916
 21
538.738
  0
LINE
  8
0
 10
124.916
 20
538.738
 11
125.236
 21
538.351
  0
LINE
  8
0
 10
125.236
 20
538.351
 11
125.505
 21
537.927
  0
LINE
  8
0
 10
125.505
 20
537.927
 11
125.719
 21
537.472
  0
LINE
  8
0
 10
125.719
 20
537.472
 11
125.874
 21
536.995
  0
LINE
  8
0
 10
125.874
 20
536.995
 11
125.968
 21
536.501
  0
LINE
  8
0
 10
125.968
 20
536.501
 11
126
 21
536
  0
LINE
  8
0
 10
126
 20
536
 11
126
 21
472
  0
LINE
  8
0
 10
126
 20
472
 11
125.968
 21
471.499
  0
LINE
  8
0
 10
125.968
 20
471.499
 11
125.874
 21
471.005
  0
LINE
  8
0
 10
125.874
 20
471.005
 11
125.719
 21
470.528
  0
LINE
  8
0
 10
125.719
 20
470.528
 11
125.505
 21
470.073
  0
LINE
  8
0
 10
125.505
 20
470.073
 11
125.236
 21
469.649
  0
LINE
  8
0
 10
125.236
 20
469.649
 11
124.916
 21
469.262
  0
LINE
  8
0
 10
124.916
 20
469.262
 11
124.55
 21
468.918
  0
LINE
  8
0
 10
124.55
 20
468.918
 11
124.143
 21
468.623
  0
LINE
  8
0
 10
124.143
 20
468.623
 11
123.703
 21
468.381
  0
LINE
  8
0
 10
123.703
 20
468.381
 11
123.236
 21
468.196
  0
LINE
  8
0
 10
123.236
 20
468.196
 11
122.75
 21
468.071
  0
LINE
  8
0
 10
122.75
 20
468.071
 11
122.251
 21
468.008
  0
LINE
  8
0
 10
122.251
 20
468.008
 11
-122.251
 21
468.008
  0
LINE
  8
0
 10
123.437
 20
382.589
 11
124.045
 21
382.745
  0
LINE
  8
0
 10
124.045
 20
382.745
 11
124.629
 21
382.976
  0
LINE
  8
0
 10
124.629
 20
382.976
 11
125.179
 21
383.278
  0
LINE
  8
0
 10
125.179
 20
383.278
 11
125.687
 21
383.647
  0
LINE
  8
0
 10
125.687
 20
383.647
 11
126.145
 21
384.077
  0
LINE
  8
0
 10
126.145
 20
384.077
 11
126.545
 21
384.561
  0
LINE
  8
0
 10
126.545
 20
384.561
 11
126.882
 21
385.091
  0
LINE
  8
0
 10
126.882
 20
385.091
 11
127.149
 21
385.659
  0
LINE
  8
0
 10
127.149
 20
385.659
 11
127.343
 21
386.257
  0
LINE
  8
0
 10
127.343
 20
386.257
 11
127.461
 21
386.873
  0
LINE
  8
0
 10
127.461
 20
386.873
 11
127.5
 21
387.5
  0
LINE
  8
0
 10
127.5
 20
387.5
 11
127.5
 21
452.5
  0
LINE
  8
0
 10
127.5
 20
452.5
 11
127.461
 21
453.127
  0
LINE
  8
0
 10
127.461
 20
453.127
 11
127.343
 21
453.743
  0
LINE
  8
0
 10
127.343
 20
453.743
 11
127.149
 21
454.341
  0
LINE
  8
0
 10
127.149
 20
454.341
 11
126.882
 21
454.909
  0
LINE
  8
0
 10
126.882
 20
454.909
 11
126.545
 21
455.439
  0
LINE
  8
0
 10
126.545
 20
455.439
 11
126.145
 21
455.923
  0
LINE
  8
0
 10
126.145
 20
455.923
 11
125.687
 21
456.353
  0
LINE
  8
0
 10
125.687
 20
456.353
 11
125.179
 21
456.722
  0
LINE
  8
0
 10
125.179
 20
456.722
 11
124.629
 21
457.024
  0
LINE
  8
0
 10
124.629
 20
457.024
 11
124.045
 21
457.255
  0
LINE
  8
0
 10
124.045
 20
457.255
 11
123.437
 21
457.411
  0
LINE
  8
0
 10
123.437
 20
457.411
 11
122.814
 21
457.49
  0
LINE
  8
0
 10
122.814
 20
457.49
 11
-122.814
 21
457.49
  0
LINE
  8
0
 10
-122.814
 20
457.49
 11
-123.437
 21
457.411
  0
LINE
  8
0
 10
-123.437
 20
457.411
 11
-124.045
 21
457.255
  0
LINE
  8
0
 10
-124.045
 20
457.255
 11
-124.629
 21
457.024
  0
LINE
  8
0
 10
-124.629
 20
457.024
 11
-125.179
 21
456.722
  0
LINE
  8
0
 10
-125.179
 20
456.722
 11
-125.687
 21
456.353
  0
LINE
  8
0
 10
-125.687
 20
456.353
 11
-126
 21
456.059
  0
LINE
  8
0
 10
-126
 20
456.059
 11
-126
 21
457.479
  0
LINE
  8
0
 10
-126
 20
457.479
 11
-129
 21
457.479
  0
LINE
  8
0
 10
-129
 20
457.479
 11
-129
 21
382.521
  0
LINE
  8
0
 10
-129
 20
382.521
 11
-126
 21
382.521
  0
LINE
  8
0
 10
-126
 20
382.521
 11
-126
 21
383.941
  0
LINE
  8
0
 10
-126
 20
383.941
 11
-125.687
 21
383.647
  0
LINE
  8
0
 10
-125.687
 20
383.647
 11
-125.179
 21
383.278
  0
LINE
  8
0
 10
-125.179
 20
383.278
 11
-124.629
 21
382.976
  0
LINE
  8
0
 10
-124.629
 20
382.976
 11
-124.045
 21
382.745
  0
LINE
  8
0
 10
-124.045
 20
382.745
 11
-123.437
 21
382.589
  0
LINE
  8
0
 10
-123.437
 20
382.589
 11
-122.814
 21
382.51
  0
LINE
  8
0
 10
-122.814
 20
382.51
 11
122.814
 21
382.51
  0
LINE
  8
0
 10
122.814
 20
382.51
 11
123.437
 21
382.589
  0
LINE
  8
0
 10
-122.195
 20
384.893
 11
-122.583
 21
384.942
  0
LINE
  8
0
 10
-122.583
 20
384.942
 11
-122.962
 21
385.039
  0
LINE
  8
0
 10
-122.962
 20
385.039
 11
-123.325
 21
385.183
  0
LINE
  8
0
 10
-123.325
 20
385.183
 11
-123.668
 21
385.372
  0
LINE
  8
0
 10
-123.668
 20
385.372
 11
-123.984
 21
385.601
  0
LINE
  8
0
 10
-123.984
 20
385.601
 11
-124.269
 21
385.869
  0
LINE
  8
0
 10
-124.269
 20
385.869
 11
-124.518
 21
386.17
  0
LINE
  8
0
 10
-124.518
 20
386.17
 11
-124.728
 21
386.5
  0
LINE
  8
0
 10
-124.728
 20
386.5
 11
-124.894
 21
386.854
  0
LINE
  8
0
 10
-124.894
 20
386.854
 11
-125.015
 21
387.226
  0
LINE
  8
0
 10
-125.015
 20
387.226
 11
-125.088
 21
387.61
  0
LINE
  8
0
 10
-125.088
 20
387.61
 11
-125.113
 21
388
  0
LINE
  8
0
 10
-125.113
 20
388
 11
-125.113
 21
452
  0
LINE
  8
0
 10
-125.113
 20
452
 11
-125.088
 21
452.39
  0
LINE
  8
0
 10
-125.088
 20
452.39
 11
-125.015
 21
452.774
  0
LINE
  8
0
 10
-125.015
 20
452.774
 11
-124.894
 21
453.146
  0
LINE
  8
0
 10
-124.894
 20
453.146
 11
-124.728
 21
453.5
  0
LINE
  8
0
 10
-124.728
 20
453.5
 11
-124.518
 21
453.83
  0
LINE
  8
0
 10
-124.518
 20
453.83
 11
-124.269
 21
454.131
  0
LINE
  8
0
 10
-124.269
 20
454.131
 11
-123.984
 21
454.399
  0
LINE
  8
0
 10
-123.984
 20
454.399
 11
-123.668
 21
454.628
  0
LINE
  8
0
 10
-123.668
 20
454.628
 11
-123.325
 21
454.817
  0
LINE
  8
0
 10
-123.325
 20
454.817
 11
-122.962
 21
454.961
  0
LINE
  8
0
 10
-122.962
 20
454.961
 11
-122.583
 21
455.058
  0
LINE
  8
0
 10
-122.583
 20
455.058
 11
-122.195
 21
455.107
  0
LINE
  8
0
 10
-122.195
 20
455.107
 11
122.195
 21
455.107
  0
LINE
  8
0
 10
122.195
 20
455.107
 11
122.583
 21
455.058
  0
LINE
  8
0
 10
122.583
 20
455.058
 11
122.962
 21
454.961
  0
LINE
  8
0
 10
122.962
 20
454.961
 11
123.325
 21
454.817
  0
LINE
  8
0
 10
123.325
 20
454.817
 11
123.668
 21
454.628
  0
LINE
  8
0
 10
123.668
 20
454.628
 11
123.984
 21
454.399
  0
LINE
  8
0
 10
123.984
 20
454.399
 11
124.269
 21
454.131
  0
LINE
  8
0
 10
124.269
 20
454.131
 11
124.518
 21
453.83
  0
LINE
  8
0
 10
124.518
 20
453.83
 11
124.728
 21
453.5
  0
LINE
  8
0
 10
124.728
 20
453.5
 11
124.894
 21
453.146
  0
LINE
  8
0
 10
124.894
 20
453.146
 11
125.015
 21
452.774
  0
LINE
  8
0
 10
125.015
 20
452.774
 11
125.088
 21
452.39
  0
LINE
  8
0
 10
125.088
 20
452.39
 11
125.113
 21
452
  0
LINE
  8
0
 10
125.113
 20
452
 11
125.113
 21
388
  0
LINE
  8
0
 10
125.113
 20
388
 11
125.088
 21
387.61
  0
LINE
  8
0
 10
125.088
 20
387.61
 11
125.015
 21
387.226
  0
LINE
  8
0
 10
125.015
 20
387.226
 11
124.894
 21
386.854
  0
LINE
  8
0
 10
124.894
 20
386.854
 11
124.728
 21
386.5
  0
LINE
  8
0
 10
124.728
 20
386.5
 11
124.518
 21
386.17
  0
LINE
  8
0
 10
124.518
 20
386.17
 11
124.269
 21
385.869
  0
LINE
  8
0
 10
124.269
 20
385.869
 11
123.984
 21
385.601
  0
LINE
  8
0
 10
123.984
 20
385.601
 11
123.668
 21
385.372
  0
LINE
  8
0
 10
123.668
 20
385.372
 11
123.325
 21
385.183
  0
LINE
  8
0
 10
123.325
 20
385.183
 11
122.962
 21
385.039
  0
LINE
  8
0
 10
122.962
 20
385.039
 11
122.583
 21
384.942
  0
LINE
  8
0
 10
122.583
 20
384.942
 11
122.195
 21
384.893
  0
LINE
  8
0
 10
122.195
 20
384.893
 11
-122.195
 21
384.893
  0
LINE
  8
0
 10
123.437
 20
298.589
 11
124.045
 21
298.745
  0
LINE
  8
0
 10
124.045
 20
298.745
 11
124.629
 21
298.976
  0
LINE
  8
0
 10
124.629
 20
298.976
 11
125.179
 21
299.278
  0
LINE
  8
0
 10
125.179
 20
299.278
 11
125.687
 21
299.647
  0
LINE
  8
0
 10
125.687
 20
299.647
 11
126.145
 21
300.077
  0
LINE
  8
0
 10
126.145
 20
300.077
 11
126.545
 21
300.561
  0
LINE
  8
0
 10
126.545
 20
300.561
 11
126.882
 21
301.091
  0
LINE
  8
0
 10
126.882
 20
301.091
 11
127.149
 21
301.659
  0
LINE
  8
0
 10
127.149
 20
301.659
 11
127.343
 21
302.257
  0
LINE
  8
0
 10
127.343
 20
302.257
 11
127.461
 21
302.873
  0
LINE
  8
0
 10
127.461
 20
302.873
 11
127.5
 21
303.5
  0
LINE
  8
0
 10
127.5
 20
303.5
 11
127.5
 21
368.5
  0
LINE
  8
0
 10
127.5
 20
368.5
 11
127.461
 21
369.127
  0
LINE
  8
0
 10
127.461
 20
369.127
 11
127.343
 21
369.743
  0
LINE
  8
0
 10
127.343
 20
369.743
 11
127.149
 21
370.341
  0
LINE
  8
0
 10
127.149
 20
370.341
 11
126.882
 21
370.909
  0
LINE
  8
0
 10
126.882
 20
370.909
 11
126.545
 21
371.439
  0
LINE
  8
0
 10
126.545
 20
371.439
 11
126.145
 21
371.923
  0
LINE
  8
0
 10
126.145
 20
371.923
 11
125.687
 21
372.353
  0
LINE
  8
0
 10
125.687
 20
372.353
 11
125.179
 21
372.722
  0
LINE
  8
0
 10
125.179
 20
372.722
 11
124.629
 21
373.024
  0
LINE
  8
0
 10
124.629
 20
373.024
 11
124.045
 21
373.255
  0
LINE
  8
0
 10
124.045
 20
373.255
 11
123.437
 21
373.411
  0
LINE
  8
0
 10
123.437
 20
373.411
 11
122.814
 21
373.49
  0
LINE
  8
0
 10
122.814
 20
373.49
 11
-122.814
 21
373.49
  0
LINE
  8
0
 10
-122.814
 20
373.49
 11
-123.437
 21
373.411
  0
LINE
  8
0
 10
-123.437
 20
373.411
 11
-124.045
 21
373.255
  0
LINE
  8
0
 10
-124.045
 20
373.255
 11
-124.629
 21
373.024
  0
LINE
  8
0
 10
-124.629
 20
373.024
 11
-125.179
 21
372.722
  0
LINE
  8
0
 10
-125.179
 20
372.722
 11
-125.687
 21
372.353
  0
LINE
  8
0
 10
-125.687
 20
372.353
 11
-126
 21
372.059
  0
LINE
  8
0
 10
-126
 20
372.059
 11
-126
 21
372.153
  0
LINE
  8
0
 10
-126
 20
372.153
 11
-129
 21
372.153
  0
LINE
  8
0
 10
-129
 20
372.153
 11
-129
 21
299.847
  0
LINE
  8
0
 10
-129
 20
299.847
 11
-126
 21
299.847
  0
LINE
  8
0
 10
-126
 20
299.847
 11
-126
 21
299.941
  0
LINE
  8
0
 10
-126
 20
299.941
 11
-125.687
 21
299.647
  0
LINE
  8
0
 10
-125.687
 20
299.647
 11
-125.179
 21
299.278
  0
LINE
  8
0
 10
-125.179
 20
299.278
 11
-124.629
 21
298.976
  0
LINE
  8
0
 10
-124.629
 20
298.976
 11
-124.045
 21
298.745
  0
LINE
  8
0
 10
-124.045
 20
298.745
 11
-123.437
 21
298.589
  0
LINE
  8
0
 10
-123.437
 20
298.589
 11
-122.814
 21
298.51
  0
LINE
  8
0
 10
-122.814
 20
298.51
 11
122.814
 21
298.51
  0
LINE
  8
0
 10
122.814
 20
298.51
 11
123.437
 21
298.589
  0
LINE
  8
0
 10
-120.134
 20
363.869
 11
-120.4
 21
363.903
  0
LINE
  8
0
 10
-120.4
 20
363.903
 11
-120.66
 21
363.969
  0
LINE
  8
0
 10
-120.66
 20
363.969
 11
-120.909
 21
364.068
  0
LINE
  8
0
 10
-120.909
 20
364.068
 11
-121.144
 21
364.197
  0
LINE
  8
0
 10
-121.144
 20
364.197
 11
-121.361
 21
364.355
  0
LINE
  8
0
 10
-121.361
 20
364.355
 11
-121.557
 21
364.538
  0
LINE
  8
0
 10
-121.557
 20
364.538
 11
-121.727
 21
364.745
  0
LINE
  8
0
 10
-121.727
 20
364.745
 11
-121.871
 21
364.971
  0
LINE
  8
0
 10
-121.871
 20
364.971
 11
-121.985
 21
365.214
  0
LINE
  8
0
 10
-121.985
 20
365.214
 11
-122.068
 21
365.469
  0
LINE
  8
0
 10
-122.068
 20
365.469
 11
-122.118
 21
365.732
  0
LINE
  8
0
 10
-122.118
 20
365.732
 11
-122.135
 21
366
  0
LINE
  8
0
 10
-122.135
 20
366
 11
-122.118
 21
366.268
  0
LINE
  8
0
 10
-122.118
 20
366.268
 11
-122.068
 21
366.531
  0
LINE
  8
0
 10
-122.068
 20
366.531
 11
-121.985
 21
366.786
  0
LINE
  8
0
 10
-121.985
 20
366.786
 11
-121.871
 21
367.029
  0
LINE
  8
0
 10
-121.871
 20
367.029
 11
-121.727
 21
367.255
  0
LINE
  8
0
 10
-121.727
 20
367.255
 11
-121.557
 21
367.462
  0
LINE
  8
0
 10
-121.557
 20
367.462
 11
-121.361
 21
367.645
  0
LINE
  8
0
 10
-121.361
 20
367.645
 11
-121.144
 21
367.803
  0
LINE
  8
0
 10
-121.144
 20
367.803
 11
-120.909
 21
367.932
  0
LINE
  8
0
 10
-120.909
 20
367.932
 11
-120.66
 21
368.031
  0
LINE
  8
0
 10
-120.66
 20
368.031
 11
-120.4
 21
368.097
  0
LINE
  8
0
 10
-120.4
 20
368.097
 11
-120.134
 21
368.131
  0
LINE
  8
0
 10
-120.134
 20
368.131
 11
-119.866
 21
368.131
  0
LINE
  8
0
 10
-119.866
 20
368.131
 11
-119.6
 21
368.097
  0
LINE
  8
0
 10
-119.6
 20
368.097
 11
-119.34
 21
368.031
  0
LINE
  8
0
 10
-119.34
 20
368.031
 11
-119.091
 21
367.932
  0
LINE
  8
0
 10
-119.091
 20
367.932
 11
-118.856
 21
367.803
  0
LINE
  8
0
 10
-118.856
 20
367.803
 11
-118.639
 21
367.645
  0
LINE
  8
0
 10
-118.639
 20
367.645
 11
-118.443
 21
367.462
  0
LINE
  8
0
 10
-118.443
 20
367.462
 11
-118.273
 21
367.255
  0
LINE
  8
0
 10
-118.273
 20
367.255
 11
-118.129
 21
367.029
  0
LINE
  8
0
 10
-118.129
 20
367.029
 11
-118.015
 21
366.786
  0
LINE
  8
0
 10
-118.015
 20
366.786
 11
-117.932
 21
366.531
  0
LINE
  8
0
 10
-117.932
 20
366.531
 11
-117.882
 21
366.268
  0
LINE
  8
0
 10
-117.882
 20
366.268
 11
-117.865
 21
366
  0
LINE
  8
0
 10
-117.865
 20
366
 11
-117.882
 21
365.732
  0
LINE
  8
0
 10
-117.882
 20
365.732
 11
-117.932
 21
365.469
  0
LINE
  8
0
 10
-117.932
 20
365.469
 11
-118.015
 21
365.214
  0
LINE
  8
0
 10
-118.015
 20
365.214
 11
-118.129
 21
364.971
  0
LINE
  8
0
 10
-118.129
 20
364.971
 11
-118.273
 21
364.745
  0
LINE
  8
0
 10
-118.273
 20
364.745
 11
-118.443
 21
364.538
  0
LINE
  8
0
 10
-118.443
 20
364.538
 11
-118.639
 21
364.355
  0
LINE
  8
0
 10
-118.639
 20
364.355
 11
-118.856
 21
364.197
  0
LINE
  8
0
 10
-118.856
 20
364.197
 11
-119.091
 21
364.068
  0
LINE
  8
0
 10
-119.091
 20
364.068
 11
-119.34
 21
363.969
  0
LINE
  8
0
 10
-119.34
 20
363.969
 11
-119.6
 21
363.903
  0
LINE
  8
0
 10
-119.6
 20
363.903
 11
-119.866
 21
363.869
  0
LINE
  8
0
 10
-119.866
 20
363.869
 11
-120.134
 21
363.869
  0
LINE
  8
0
 10
119.866
 20
363.869
 11
119.6
 21
363.903
  0
LINE
  8
0
 10
119.6
 20
363.903
 11
119.34
 21
363.969
  0
LINE
  8
0
 10
119.34
 20
363.969
 11
119.091
 21
364.068
  0
LINE
  8
0
 10
119.091
 20
364.068
 11
118.856
 21
364.197
  0
LINE
  8
0
 10
118.856
 20
364.197
 11
118.639
 21
364.355
  0
LINE
  8
0
 10
118.639
 20
364.355
 11
118.443
 21
364.538
  0
LINE
  8
0
 10
118.443
 20
364.538
 11
118.273
 21
364.745
  0
LINE
  8
0
 10
118.273
 20
364.745
 11
118.129
 21
364.971
  0
LINE
  8
0
 10
118.129
 20
364.971
 11
118.015
 21
365.214
  0
LINE
  8
0
 10
118.015
 20
365.214
 11
117.932
 21
365.469
  0
LINE
  8
0
 10
117.932
 20
365.469
 11
117.882
 21
365.732
  0
LINE
  8
0
 10
117.882
 20
365.732
 11
117.865
 21
366
  0
LINE
  8
0
 10
117.865
 20
366
 11
117.882
 21
366.268
  0
LINE
  8
0
 10
117.882
 20
366.268
 11
117.932
 21
366.531
  0
LINE
  8
0
 10
117.932
 20
366.531
 11
118.015
 21
366.786
  0
LINE
  8
0
 10
118.015
 20
366.786
 11
118.129
 21
367.029
  0
LINE
  8
0
 10
118.129
 20
367.029
 11
118.273
 21
367.255
  0
LINE
  8
0
 10
118.273
 20
367.255
 11
118.443
 21
367.462
  0
LINE
  8
0
 10
118.443
 20
367.462
 11
118.639
 21
367.645
  0
LINE
  8
0
 10
118.639
 20
367.645
 11
118.856
 21
367.803
  0
LINE
  8
0
 10
118.856
 20
367.803
 11
119.091
 21
367.932
  0
LINE
  8
0
 10
119.091
 20
367.932
 11
119.34
 21
368.031
  0
LINE
  8
0
 10
119.34
 20
368.031
 11
119.6
 21
368.097
  0
LINE
  8
0
 10
119.6
 20
368.097
 11
119.866
 21
368.131
  0
LINE
  8
0
 10
119.866
 20
368.131
 11
120.134
 21
368.131
  0
LINE
  8
0
 10
120.134
 20
368.131
 11
120.4
 21
368.097
  0
LINE
  8
0
 10
120.4
 20
368.097
 11
120.66
 21
368.031
  0
LINE
  8
0
 10
120.66
 20
368.031
 11
120.909
 21
367.932
  0
LINE
  8
0
 10
120.909
 20
367.932
 11
121.144
 21
367.803
  0
LINE
  8
0
 10
121.144
 20
367.803
 11
121.361
 21
367.645
  0
LINE
  8
0
 10
121.361
 20
367.645
 11
121.557
 21
367.462
  0
LINE
  8
0
 10
121.557
 20
367.462
 11
121.727
 21
367.255
  0
LINE
  8
0
 10
121.727
 20
367.255
 11
121.871
 21
367.029
  0
LINE
  8
0
 10
121.871
 20
367.029
 11
121.985
 21
366.786
  0
LINE
  8
0
 10
121.985
 20
366.786
 11
122.068
 21
366.531
  0
LINE
  8
0
 10
122.068
 20
366.531
 11
122.118
 21
366.268
  0
LINE
  8
0
 10
122.118
 20
366.268
 11
122.135
 21
366
  0
LINE
  8
0
 10
122.135
 20
366
 11
122.118
 21
365.732
  0
LINE
  8
0
 10
122.118
 20
365.732
 11
122.068
 21
365.469
  0
LINE
  8
0
 10
122.068
 20
365.469
 11
121.985
 21
365.214
  0
LINE
  8
0
 10
121.985
 20
365.214
 11
121.871
 21
364.971
  0
LINE
  8
0
 10
121.871
 20
364.971
 11
121.727
 21
364.745
  0
LINE
  8
0
 10
121.727
 20
364.745
 11
121.557
 21
364.538
  0
LINE
  8
0
 10
121.557
 20
364.538
 11
121.361
 21
364.355
  0
LINE
  8
0
 10
121.361
 20
364.355
 11
121.144
 21
364.197
  0
LINE
  8
0
 10
121.144
 20
364.197
 11
120.909
 21
364.068
  0
LINE
  8
0
 10
120.909
 20
364.068
 11
120.66
 21
363.969
  0
LINE
  8
0
 10
120.66
 20
363.969
 11
120.4
 21
363.903
  0
LINE
  8
0
 10
120.4
 20
363.903
 11
120.134
 21
363.869
  0
LINE
  8
0
 10
120.134
 20
363.869
 11
119.866
 21
363.869
  0
LINE
  8
0
 10
-120.134
 20
303.869
 11
-120.4
 21
303.903
  0
LINE
  8
0
 10
-120.4
 20
303.903
 11
-120.66
 21
303.969
  0
LINE
  8
0
 10
-120.66
 20
303.969
 11
-120.909
 21
304.068
  0
LINE
  8
0
 10
-120.909
 20
304.068
 11
-121.144
 21
304.197
  0
LINE
  8
0
 10
-121.144
 20
304.197
 11
-121.361
 21
304.355
  0
LINE
  8
0
 10
-121.361
 20
304.355
 11
-121.557
 21
304.538
  0
LINE
  8
0
 10
-121.557
 20
304.538
 11
-121.727
 21
304.745
  0
LINE
  8
0
 10
-121.727
 20
304.745
 11
-121.871
 21
304.971
  0
LINE
  8
0
 10
-121.871
 20
304.971
 11
-121.985
 21
305.214
  0
LINE
  8
0
 10
-121.985
 20
305.214
 11
-122.068
 21
305.469
  0
LINE
  8
0
 10
-122.068
 20
305.469
 11
-122.118
 21
305.732
  0
LINE
  8
0
 10
-122.118
 20
305.732
 11
-122.135
 21
306
  0
LINE
  8
0
 10
-122.135
 20
306
 11
-122.118
 21
306.268
  0
LINE
  8
0
 10
-122.118
 20
306.268
 11
-122.068
 21
306.531
  0
LINE
  8
0
 10
-122.068
 20
306.531
 11
-121.985
 21
306.786
  0
LINE
  8
0
 10
-121.985
 20
306.786
 11
-121.871
 21
307.029
  0
LINE
  8
0
 10
-121.871
 20
307.029
 11
-121.727
 21
307.255
  0
LINE
  8
0
 10
-121.727
 20
307.255
 11
-121.557
 21
307.462
  0
LINE
  8
0
 10
-121.557
 20
307.462
 11
-121.361
 21
307.645
  0
LINE
  8
0
 10
-121.361
 20
307.645
 11
-121.144
 21
307.803
  0
LINE
  8
0
 10
-121.144
 20
307.803
 11
-120.909
 21
307.932
  0
LINE
  8
0
 10
-120.909
 20
307.932
 11
-120.66
 21
308.031
  0
LINE
  8
0
 10
-120.66
 20
308.031
 11
-120.4
 21
308.097
  0
LINE
  8
0
 10
-120.4
 20
308.097
 11
-120.134
 21
308.131
  0
LINE
  8
0
 10
-120.134
 20
308.131
 11
-119.866
 21
308.131
  0
LINE
  8
0
 10
-119.866
 20
308.131
 11
-119.6
 21
308.097
  0
LINE
  8
0
 10
-119.6
 20
308.097
 11
-119.34
 21
308.031
  0
LINE
  8
0
 10
-119.34
 20
308.031
 11
-119.091
 21
307.932
  0
LINE
  8
0
 10
-119.091
 20
307.932
 11
-118.856
 21
307.803
  0
LINE
  8
0
 10
-118.856
 20
307.803
 11
-118.639
 21
307.645
  0
LINE
  8
0
 10
-118.639
 20
307.645
 11
-118.443
 21
307.462
  0
LINE
  8
0
 10
-118.443
 20
307.462
 11
-118.273
 21
307.255
  0
LINE
  8
0
 10
-118.273
 20
307.255
 11
-118.129
 21
307.029
  0
LINE
  8
0
 10
-118.129
 20
307.029
 11
-118.015
 21
306.786
  0
LINE
  8
0
 10
-118.015
 20
306.786
 11
-117.932
 21
306.531
  0
LINE
  8
0
 10
-117.932
 20
306.531
 11
-117.882
 21
306.268
  0
LINE
  8
0
 10
-117.882
 20
306.268
 11
-117.865
 21
306
  0
LINE
  8
0
 10
-117.865
 20
306
 11
-117.882
 21
305.732
  0
LINE
  8
0
 10
-117.882
 20
305.732
 11
-117.932
 21
305.469
  0
LINE
  8
0
 10
-117.932
 20
305.469
 11
-118.015
 21
305.214
  0
LINE
  8
0
 10
-118.015
 20
305.214
 11
-118.129
 21
304.971
  0
LINE
  8
0
 10
-118.129
 20
304.971
 11
-118.273
 21
304.745
  0
LINE
  8
0
 10
-118.273
 20
304.745
 11
-118.443
 21
304.538
  0
LINE
  8
0
 10
-118.443
 20
304.538
 11
-118.639
 21
304.355
  0
LINE
  8
0
 10
-118.639
 20
304.355
 11
-118.856
 21
304.197
  0
LINE
  8
0
 10
-118.856
 20
304.197
 11
-119.091
 21
304.068
  0
LINE
  8
0
 10
-119.091
 20
304.068
 11
-119.34
 21
303.969
  0
LINE
  8
0
 10
-119.34
 20
303.969
 11
-119.6
 21
303.903
  0
LINE
  8
0
 10
-119.6
 20
303.903
 11
-119.866
 21
303.869
  0
LINE
  8
0
 10
-119.866
 20
303.869
 11
-120.134
 21
303.869
  0
LINE
  8
0
 10
119.866
 20
303.869
 11
119.6
 21
303.903
  0
LINE
  8
0
 10
119.6
 20
303.903
 11
119.34
 21
303.969
  0
LINE
  8
0
 10
119.34
 20
303.969
 11
119.091
 21
304.068
  0
LINE
  8
0
 10
119.091
 20
304.068
 11
118.856
 21
304.197
  0
LINE
  8
0
 10
118.856
 20
304.197
 11
118.639
 21
304.355
  0
LINE
  8
0
 10
118.639
 20
304.355
 11
118.443
 21
304.538
  0
LINE
  8
0
 10
118.443
 20
304.538
 11
118.273
 21
304.745
  0
LINE
  8
0
 10
118.273
 20
304.745
 11
118.129
 21
304.971
  0
LINE
  8
0
 10
118.129
 20
304.971
 11
118.015
 21
305.214
  0
LINE
  8
0
 10
118.015
 20
305.214
 11
117.932
 21
305.469
  0
LINE
  8
0
 10
117.932
 20
305.469
 11
117.882
 21
305.732
  0
LINE
  8
0
 10
117.882
 20
305.732
 11
117.865
 21
306
  0
LINE
  8
0
 10
117.865
 20
306
 11
117.882
 21
306.268
  0
LINE
  8
0
 10
117.882
 20
306.268
 11
117.932
 21
306.531
  0
LINE
  8
0
 10
117.932
 20
306.531
 11
118.015
 21
306.786
  0
LINE
  8
0
 10
118.015
 20
306.786
 11
118.129
 21
307.029
  0
LINE
  8
0
 10
118.129
 20
307.029
 11
118.273
 21
307.255
  0
LINE
  8
0
 10
118.273
 20
307.255
 11
118.443
 21
307.462
  0
LINE
  8
0
 10
118.443
 20
307.462
 11
118.639
 21
307.645
  0
LINE
  8
0
 10
118.639
 20
307.645
 11
118.856
 21
307.803
  0
LINE
  8
0
 10
118.856
 20
307.803
 11
119.091
 21
307.932
  0
LINE
  8
0
 10
119.091
 20
307.932
 11
119.34
 21
308.031
  0
LINE
  8
0
 10
119.34
 20
308.031
 11
119.6
 21
308.097
  0
LINE
  8
0
 10
119.6
 20
308.097
 11
119.866
 21
308.131
  0
LINE
  8
0
 10
119.866
 20
308.131
 11
120.134
 21
308.131
  0
LINE
  8
0
 10
120.134
 20
308.131
 11
120.4
 21
308.097
  0
LINE
  8
0
 10
120.4
 20
308.097
 11
120.66
 21
308.031
  0
LINE
  8
0
 10
120.66
 20
308.031
 11
120.909
 21
307.932
  0
LINE
  8
0
 10
120.909
 20
307.932
 11
121.144
 21
307.803
  0
LINE
  8
0
 10
121.144
 20
307.803
 11
121.361
 21
307.645
  0
LINE
  8
0
 10
121.361
 20
307.645
 11
121.557
 21
307.462
  0
LINE
  8
0
 10
121.557
 20
307.462
 11
121.727
 21
307.255
  0
LINE
  8
0
 10
121.727
 20
307.255
 11
121.871
 21
307.029
  0
LINE
  8
0
 10
121.871
 20
307.029
 11
121.985
 21
306.786
  0
LINE
  8
0
 10
121.985
 20
306.786
 11
122.068
 21
306.531
  0
LINE
  8
0
 10
122.068
 20
306.531
 11
122.118
 21
306.268
  0
LINE
  8
0
 10
122.118
 20
306.268
 11
122.135
 21
306
  0
LINE
  8
0
 10
122.135
 20
306
 11
122.118
 21
305.732
  0
LINE
  8
0
 10
122.118
 20
305.732
 11
122.068
 21
305.469
  0
LINE
  8
0
 10
122.068
 20
305.469
 11
121.985
 21
305.214
  0
LINE
  8
0
 10
121.985
 20
305.214
 11
121.871
 21
304.971
  0
LINE
  8
0
 10
121.871
 20
304.971
 11
121.727
 21
304.745
  0
LINE
  8
0
 10
121.727
 20
304.745
 11
121.557
 21
304.538
  0
LINE
  8
0
 10
121.557
 20
304.538
 11
121.361
 21
304.355
  0
LINE
  8
0
 10
121.361
 20
304.355
 11
121.144
 21
304.197
  0
LINE
  8
0
 10
121.144
 20
304.197
 11
120.909
 21
304.068
  0
LINE
  8
0
 10
120.909
 20
304.068
 11
120.66
 21
303.969
  0
LINE
  8
0
 10
120.66
 20
303.969
 11
120.4
 21
303.903
  0
LINE
  8
0
 10
120.4
 20
303.903
 11
120.134
 21
303.869
  0
LINE
  8
0
 10
120.134
 20
303.869
 11
119.866
 21
303.869
  0
ENDSEC
  0
SECTION
  2
OBJECTS
  0
DICTIONARY
  0
ENDSEC
  0
EOF
