<?xml version="1.0" standalone="no"?>
<!DOCTYPE svg PUBLIC "-//W3C//DTD SVG 1.1//EN" "http://www.w3.org/Graphics/SVG/1.1/DTD/svg11.dtd">
<svg width="302mm" height="688mm" viewBox="-152 -1127 302 688" xmlns="http://www.w3.org/2000/svg" version="1.1">
<title>OpenSCAD Model</title>
<path d="
M -148.5,-962.941 L -148.187,-962.647 L -147.679,-962.278 L -147.129,-961.976 L -146.545,-961.745 L -145.937,-961.589
 L -145.314,-961.51 L 145.314,-961.51 L 145.937,-961.589 L 146.545,-961.745 L 147.129,-961.976 L 147.679,-962.278
 L 148.187,-962.647 L 148.645,-963.077 L 149.045,-963.561 L 149.382,-964.091 L 149.649,-964.659 L 149.843,-965.257
 L 149.961,-965.873 L 150,-966.5 L 150,-1121.5 L 149.961,-1122.13 L 149.843,-1122.74 L 149.649,-1123.34
 L 149.382,-1123.91 L 149.045,-1124.44 L 148.645,-1124.92 L 148.187,-1125.35 L 147.679,-1125.72 L 147.129,-1126.02
 L 146.545,-1126.26 L 145.937,-1126.41 L 145.314,-1126.49 L -145.314,-1126.49 L -145.937,-1126.41 L -146.545,-1126.26
 L -147.129,-1126.02 L -147.679,-1125.72 L -148.187,-1125.35 L -148.5,-1125.06 L -148.5,-1126.49 L -151.5,-1126.49
 L -151.5,-961.51 L -148.5,-961.51 z
M -144.751,-963.008 L -145.25,-963.071 L -145.736,-963.196 L -146.203,-963.381 L -146.643,-963.623 L -147.05,-963.918
 L -147.416,-964.262 L -147.736,-964.649 L -148.005,-965.073 L -148.219,-965.528 L -148.374,-966.005 L -148.468,-966.499
 L -148.5,-967 L -148.5,-1121 L -148.468,-1121.5 L -148.374,-1121.99 L -148.219,-1122.47 L -148.005,-1122.93
 L -147.736,-1123.35 L -147.416,-1123.74 L -147.05,-1124.08 L -146.643,-1124.38 L -146.203,-1124.62 L -145.736,-1124.8
 L -145.25,-1124.93 L -144.751,-1124.99 L 144.751,-1124.99 L 145.25,-1124.93 L 145.736,-1124.8 L 146.203,-1124.62
 L 146.643,-1124.38 L 147.05,-1124.08 L 147.416,-1123.74 L 147.736,-1123.35 L 148.005,-1122.93 L 148.219,-1122.47
 L 148.374,-1121.99 L 148.468,-1121.5 L 148.5,-1121 L 148.5,-967 L 148.468,-966.499 L 148.374,-966.005
 L 148.219,-965.528 L 148.005,-965.073 L 147.736,-964.649 L 147.416,-964.262 L 147.05,-963.918 L 146.643,-963.623
 L 146.203,-963.381 L 145.736,-963.196 L 145.25,-963.071 L 144.751,-963.008 z
M -148.5,-788.941 L -148.187,-788.647 L -147.679,-788.278 L -147.129,-787.976 L -146.545,-787.745 L -145.937,-787.589
 L -145.314,-787.51 L 145.314,-787.51 L 145.937,-787.589 L 146.545,-787.745 L 147.129,-787.976 L 147.679,-788.278
 L 148.187,-788.647 L 148.645,-789.077 L 149.045,-789.561 L 149.382,-790.091 L 149.649,-790.659 L 149.843,-791.257
 L 149.961,-791.873 L 150,-792.5 L 150,-947.5 L 149.961,-948.127 L 149.843,-948.743 L 149.649,-949.341
 L 149.382,-949.909 L 149.045,-950.439 L 148.645,-950.923 L 148.187,-951.353 L 147.679,-951.722 L 147.129,-952.024
 L 146.545,-952.255 L 145.937,-952.411 L 145.314,-952.49 L -145.314,-952.49 L -145.937,-952.411 L -146.545,-952.255
 L -147.129,-952.024 L -147.679,-951.722 L -148.187,-951.353 L -148.5,-951.059 L -148.5,-952.49 L -151.5,-952.49
 L -151.5,-787.51 L -148.5,-787.51 z
M -144.743,-789.135 L -145.226,-789.196 L -145.697,-789.317 L -146.149,-789.496 L -146.575,-789.73 L -146.969,-790.016
 L -147.323,-790.349 L -147.633,-790.724 L -147.894,-791.134 L -148.101,-791.574 L -148.251,-792.037 L -148.342,-792.515
 L -148.373,-793 L -148.373,-947 L -148.342,-947.485 L -148.251,-947.963 L -148.101,-948.426 L -147.894,-948.866
 L -147.633,-949.276 L -147.323,-949.651 L -146.969,-949.984 L -146.575,-950.27 L -146.149,-950.504 L -145.697,-950.683
 L -145.226,-950.804 L -144.743,-950.865 L 144.743,-950.865 L 145.226,-950.804 L 145.697,-950.683 L 146.149,-950.504
 L 146.575,-950.27 L 146.969,-949.984 L 147.323,-949.651 L 147.633,-949.276 L 147.894,-948.866 L 148.101,-948.426
 L 148.251,-947.963 L 148.342,-947.485 L 148.373,-947 L 148.373,-793 L 148.342,-792.515 L 148.251,-792.037
 L 148.101,-791.574 L 147.894,-791.134 L 147.633,-790.724 L 147.323,-790.349 L 146.969,-790.016 L 146.575,-789.73
 L 146.149,-789.496 L 145.697,-789.317 L 145.226,-789.196 L 144.743,-789.135 z
M 145.937,-613.589 L 146.545,-613.745 L 147.129,-613.976 L 147.679,-614.278 L 148.187,-614.647 L 148.645,-615.077
 L 149.045,-615.561 L 149.382,-616.091 L 149.649,-616.659 L 149.843,-617.257 L 149.961,-617.873 L 150,-618.5
 L 150,-773.5 L 149.961,-774.127 L 149.843,-774.743 L 149.649,-775.341 L 149.382,-775.909 L 149.045,-776.439
 L 148.645,-776.923 L 148.187,-777.353 L 147.679,-777.722 L 147.129,-778.024 L 146.545,-778.255 L 145.937,-778.411
 L 145.314,-778.49 L -145.314,-778.49 L -145.937,-778.411 L -146.545,-778.255 L -147.129,-778.024 L -147.679,-777.722
 L -148.187,-777.353 L -148.5,-777.059 L -148.5,-778.115 L -151.5,-778.115 L -151.5,-613.885 L -148.5,-613.885
 L -148.5,-614.941 L -148.187,-614.647 L -147.679,-614.278 L -147.129,-613.976 L -146.545,-613.745 L -145.937,-613.589
 L -145.314,-613.51 L 145.314,-613.51 z
M -142.651,-768.605 L -142.95,-768.643 L -143.242,-768.717 L -143.522,-768.828 L -143.786,-768.974 L -144.03,-769.151
 L -144.25,-769.357 L -144.442,-769.589 L -144.603,-769.844 L -144.731,-770.117 L -144.825,-770.403 L -144.881,-770.699
 L -144.9,-771 L -144.881,-771.301 L -144.825,-771.597 L -144.731,-771.883 L -144.603,-772.156 L -144.442,-772.411
 L -144.25,-772.643 L -144.03,-772.849 L -143.786,-773.026 L -143.522,-773.172 L -143.242,-773.283 L -142.95,-773.357
 L -142.651,-773.395 L -142.349,-773.395 L -142.05,-773.357 L -141.758,-773.283 L -141.478,-773.172 L -141.214,-773.026
 L -140.97,-772.849 L -140.75,-772.643 L -140.558,-772.411 L -140.397,-772.156 L -140.269,-771.883 L -140.175,-771.597
 L -140.119,-771.301 L -140.1,-771 L -140.119,-770.699 L -140.175,-770.403 L -140.269,-770.117 L -140.397,-769.844
 L -140.558,-769.589 L -140.75,-769.357 L -140.97,-769.151 L -141.214,-768.974 L -141.478,-768.828 L -141.758,-768.717
 L -142.05,-768.643 L -142.349,-768.605 z
M 142.349,-768.605 L 142.05,-768.643 L 141.758,-768.717 L 141.478,-768.828 L 141.214,-768.974 L 140.97,-769.151
 L 140.75,-769.357 L 140.558,-769.589 L 140.397,-769.844 L 140.269,-770.117 L 140.175,-770.403 L 140.119,-770.699
 L 140.1,-771 L 140.119,-771.301 L 140.175,-771.597 L 140.269,-771.883 L 140.397,-772.156 L 140.558,-772.411
 L 140.75,-772.643 L 140.97,-772.849 L 141.214,-773.026 L 141.478,-773.172 L 141.758,-773.283 L 142.05,-773.357
 L 142.349,-773.395 L 142.651,-773.395 L 142.95,-773.357 L 143.242,-773.283 L 143.522,-773.172 L 143.786,-773.026
 L 144.03,-772.849 L 144.25,-772.643 L 144.442,-772.411 L 144.603,-772.156 L 144.731,-771.883 L 144.825,-771.597
 L 144.881,-771.301 L 144.9,-771 L 144.881,-770.699 L 144.825,-770.403 L 144.731,-770.117 L 144.603,-769.844
 L 144.442,-769.589 L 144.25,-769.357 L 144.03,-769.151 L 143.786,-768.974 L 143.522,-768.828 L 143.242,-768.717
 L 142.95,-768.643 L 142.651,-768.605 z
M 142.349,-618.605 L 142.05,-618.643 L 141.758,-618.717 L 141.478,-618.828 L 141.214,-618.974 L 140.97,-619.151
 L 140.75,-619.357 L 140.558,-619.589 L 140.397,-619.844 L 140.269,-620.117 L 140.175,-620.403 L 140.119,-620.699
 L 140.1,-621 L 140.119,-621.301 L 140.175,-621.597 L 140.269,-621.883 L 140.397,-622.156 L 140.558,-622.411
 L 140.75,-622.643 L 140.97,-622.849 L 141.214,-623.026 L 141.478,-623.172 L 141.758,-623.283 L 142.05,-623.357
 L 142.349,-623.395 L 142.651,-623.395 L 142.95,-623.357 L 143.242,-623.283 L 143.522,-623.172 L 143.786,-623.026
 L 144.03,-622.849 L 144.25,-622.643 L 144.442,-622.411 L 144.603,-622.156 L 144.731,-621.883 L 144.825,-621.597
 L 144.881,-621.301 L 144.9,-621 L 144.881,-620.699 L 144.825,-620.403 L 144.731,-620.117 L 144.603,-619.844
 L 144.442,-619.589 L 144.25,-619.357 L 144.03,-619.151 L 143.786,-618.974 L 143.522,-618.828 L 143.242,-618.717
 L 142.95,-618.643 L 142.651,-618.605 z
M -142.651,-618.605 L -142.95,-618.643 L -143.242,-618.717 L -143.522,-618.828 L -143.786,-618.974 L -144.03,-619.151
 L -144.25,-619.357 L -144.442,-619.589 L -144.603,-619.844 L -144.731,-620.117 L -144.825,-620.403 L -144.881,-620.699
 L -144.9,-621 L -144.881,-621.301 L -144.825,-621.597 L -144.731,-621.883 L -144.603,-622.156 L -144.442,-622.411
 L -144.25,-622.643 L -144.03,-622.849 L -143.786,-623.026 L -143.522,-623.172 L -143.242,-623.283 L -142.95,-623.357
 L -142.651,-623.395 L -142.349,-623.395 L -142.05,-623.357 L -141.758,-623.283 L -141.478,-623.172 L -141.214,-623.026
 L -140.97,-622.849 L -140.75,-622.643 L -140.558,-622.411 L -140.397,-622.156 L -140.269,-621.883 L -140.175,-621.597
 L -140.119,-621.301 L -140.1,-621 L -140.119,-620.699 L -140.175,-620.403 L -140.269,-620.117 L -140.397,-619.844
 L -140.558,-619.589 L -140.75,-619.357 L -140.97,-619.151 L -141.214,-618.974 L -141.478,-618.828 L -141.758,-618.717
 L -142.05,-618.643 L -142.349,-618.605 z
M 145.937,-439.589 L 146.545,-439.745 L 147.129,-439.976 L 147.679,-440.278 L 148.187,-440.647 L 148.645,-441.077
 L 149.045,-441.561 L 149.382,-442.091 L 149.649,-442.659 L 149.843,-443.257 L 149.961,-443.873 L 150,-444.5
 L 150,-599.5 L 149.961,-600.127 L 149.843,-600.743 L 149.649,-601.341 L 149.382,-601.909 L 149.045,-602.439
 L 148.645,-602.923 L 148.187,-603.353 L 147.679,-603.722 L 147.129,-604.024 L 146.545,-604.255 L 145.937,-604.411
 L 145.314,-604.49 L -145.314,-604.49 L -145.937,-604.411 L -146.545,-604.255 L -147.129,-604.024 L -147.679,-603.722
 L -148.187,-603.353 L -148.645,-602.923 L -149.045,-602.439 L -149.382,-601.909 L -149.649,-601.341 L -149.843,-600.743
 L -149.9,-600.444 L -151.5,-600.444 L -151.5,-443.556 L -149.9,-443.556 L -149.843,-443.257 L -149.649,-442.659
 L -149.382,-442.091 L -149.045,-441.561 L -148.645,-441.077 L -148.187,-440.647 L -147.679,-440.278 L -147.129,-439.976
 L -146.545,-439.745 L -145.937,-439.589 L -145.314,-439.51 L 145.314,-439.51 z
M -142.613,-595.204 L -142.837,-595.232 L -143.056,-595.288 L -143.266,-595.371 L -143.464,-595.48 L -143.647,-595.613
 L -143.812,-595.768 L -143.956,-595.942 L -144.077,-596.133 L -144.174,-596.337 L -144.243,-596.552 L -144.286,-596.774
 L -144.3,-597 L -144.286,-597.226 L -144.243,-597.448 L -144.174,-597.663 L -144.077,-597.867 L -143.956,-598.058
 L -143.812,-598.232 L -143.647,-598.387 L -143.464,-598.52 L -143.266,-598.629 L -143.056,-598.712 L -142.837,-598.768
 L -142.613,-598.796 L -142.387,-598.796 L -142.163,-598.768 L -141.944,-598.712 L -141.734,-598.629 L -141.536,-598.52
 L -141.353,-598.387 L -141.188,-598.232 L -141.044,-598.058 L -140.923,-597.867 L -140.826,-597.663 L -140.757,-597.448
 L -140.714,-597.226 L -140.7,-597 L -140.714,-596.774 L -140.757,-596.552 L -140.826,-596.337 L -140.923,-596.133
 L -141.044,-595.942 L -141.188,-595.768 L -141.353,-595.613 L -141.536,-595.48 L -141.734,-595.371 L -141.944,-595.288
 L -142.163,-595.232 L -142.387,-595.204 z
M 142.387,-595.204 L 142.163,-595.232 L 141.944,-595.288 L 141.734,-595.371 L 141.536,-595.48 L 141.353,-595.613
 L 141.188,-595.768 L 141.044,-595.942 L 140.923,-596.133 L 140.826,-596.337 L 140.757,-596.552 L 140.714,-596.774
 L 140.7,-597 L 140.714,-597.226 L 140.757,-597.448 L 140.826,-597.663 L 140.923,-597.867 L 141.044,-598.058
 L 141.188,-598.232 L 141.353,-598.387 L 141.536,-598.52 L 141.734,-598.629 L 141.944,-598.712 L 142.163,-598.768
 L 142.387,-598.796 L 142.613,-598.796 L 142.837,-598.768 L 143.056,-598.712 L 143.266,-598.629 L 143.464,-598.52
 L 143.647,-598.387 L 143.812,-598.232 L 143.956,-598.058 L 144.077,-597.867 L 144.174,-597.663 L 144.243,-597.448
 L 144.286,-597.226 L 144.3,-597 L 144.286,-596.774 L 144.243,-596.552 L 144.174,-596.337 L 144.077,-596.133
 L 143.956,-595.942 L 143.812,-595.768 L 143.647,-595.613 L 143.464,-595.48 L 143.266,-595.371 L 143.056,-595.288
 L 142.837,-595.232 L 142.613,-595.204 z
M -142.613,-445.204 L -142.837,-445.232 L -143.056,-445.288 L -143.266,-445.371 L -143.464,-445.48 L -143.647,-445.613
 L -143.812,-445.768 L -143.956,-445.942 L -144.077,-446.133 L -144.174,-446.337 L -144.243,-446.552 L -144.286,-446.774
 L -144.3,-447 L -144.286,-447.226 L -144.243,-447.448 L -144.174,-447.663 L -144.077,-447.867 L -143.956,-448.058
 L -143.812,-448.232 L -143.647,-448.387 L -143.464,-448.52 L -143.266,-448.629 L -143.056,-448.712 L -142.837,-448.768
 L -142.613,-448.796 L -142.387,-448.796 L -142.163,-448.768 L -141.944,-448.712 L -141.734,-448.629 L -141.536,-448.52
 L -141.353,-448.387 L -141.188,-448.232 L -141.044,-448.058 L -140.923,-447.867 L -140.826,-447.663 L -140.757,-447.448
 L -140.714,-447.226 L -140.7,-447 L -140.714,-446.774 L -140.757,-446.552 L -140.826,-446.337 L -140.923,-446.133
 L -141.044,-445.942 L -141.188,-445.768 L -141.353,-445.613 L -141.536,-445.48 L -141.734,-445.371 L -141.944,-445.288
 L -142.163,-445.232 L -142.387,-445.204 z
M 142.387,-445.204 L 142.163,-445.232 L 141.944,-445.288 L 141.734,-445.371 L 141.536,-445.48 L 141.353,-445.613
 L 141.188,-445.768 L 141.044,-445.942 L 140.923,-446.133 L 140.826,-446.337 L 140.757,-446.552 L 140.714,-446.774
 L 140.7,-447 L 140.714,-447.226 L 140.757,-447.448 L 140.826,-447.663 L 140.923,-447.867 L 141.044,-448.058
 L 141.188,-448.232 L 141.353,-448.387 L 141.536,-448.52 L 141.734,-448.629 L 141.944,-448.712 L 142.163,-448.768
 L 142.387,-448.796 L 142.613,-448.796 L 142.837,-448.768 L 143.056,-448.712 L 143.266,-448.629 L 143.464,-448.52
 L 143.647,-448.387 L 143.812,-448.232 L 143.956,-448.058 L 144.077,-447.867 L 144.174,-447.663 L 144.243,-447.448
 L 144.286,-447.226 L 144.3,-447 L 144.286,-446.774 L 144.243,-446.552 L 144.174,-446.337 L 144.077,-446.133
 L 143.956,-445.942 L 143.812,-445.768 L 143.647,-445.613 L 143.464,-445.48 L 143.266,-445.371 L 143.056,-445.288
 L 142.837,-445.232 L 142.613,-445.204 z
" stroke="black" fill="lightgray" stroke-width="0.5"/>
</svg>
