<?xml version="1.0" standalone="no"?>
<!DOCTYPE svg PUBLIC "-//W3C//DTD SVG 1.1//EN" "http://www.w3.org/Graphics/SVG/1.1/DTD/svg11.dtd">
<svg width="270mm" height="562mm" viewBox="-135 -965 270 562" xmlns="http://www.w3.org/2000/svg" version="1.1">
<title>OpenSCAD Model</title>
<path d="
M 130.937,-859.589 L 131.545,-859.745 L 132.129,-859.976 L 132.679,-860.278 L 133.187,-860.647 L 133.645,-861.077
 L 134.045,-861.561 L 134.382,-862.091 L 134.649,-862.659 L 134.843,-863.257 L 134.961,-863.873 L 135,-864.5
 L 135,-959.5 L 134.961,-960.127 L 134.843,-960.743 L 134.649,-961.341 L 134.382,-961.909 L 134.045,-962.439
 L 133.645,-962.923 L 133.187,-963.353 L 132.679,-963.722 L 132.129,-964.024 L 131.545,-964.255 L 130.937,-964.411
 L 130.314,-964.49 L -130.314,-964.49 L -130.937,-964.411 L -131.545,-964.255 L -132.129,-964.024 L -132.679,-963.722
 L -133.187,-963.353 L -133.645,-962.923 L -134.045,-962.439 L -134.382,-961.909 L -134.649,-961.341 L -134.843,-960.743
 L -134.961,-960.127 L -135,-959.5 L -135,-864.5 L -134.961,-863.873 L -134.843,-863.257 L -134.649,-862.659
 L -134.382,-862.091 L -134.045,-861.561 L -133.645,-861.077 L -133.187,-860.647 L -132.679,-860.278 L -132.129,-859.976
 L -131.545,-859.745 L -130.937,-859.589 L -130.314,-859.51 L 130.314,-859.51 z
M -130.048,-860.009 L -130.64,-860.084 L -131.218,-860.232 L -131.772,-860.452 L -132.295,-860.739 L -132.778,-861.09
 L -133.213,-861.498 L -133.593,-861.958 L -133.912,-862.462 L -134.166,-863.001 L -134.351,-863.569 L -134.463,-864.155
 L -134.5,-864.75 L -134.5,-959.25 L -134.463,-959.845 L -134.351,-960.431 L -134.166,-960.999 L -133.912,-961.538
 L -133.593,-962.042 L -133.213,-962.502 L -132.778,-962.91 L -132.295,-963.261 L -131.772,-963.548 L -131.218,-963.768
 L -130.64,-963.916 L -130.048,-963.991 L 130.048,-963.991 L 130.64,-963.916 L 131.218,-963.768 L 131.772,-963.548
 L 132.295,-963.261 L 132.778,-962.91 L 133.213,-962.502 L 133.593,-962.042 L 133.912,-961.538 L 134.166,-960.999
 L 134.351,-960.431 L 134.463,-959.845 L 134.5,-959.25 L 134.5,-864.75 L 134.463,-864.155 L 134.351,-863.569
 L 134.166,-863.001 L 133.912,-862.462 L 133.593,-861.958 L 133.213,-861.498 L 132.778,-861.09 L 132.295,-860.739
 L 131.772,-860.452 L 131.218,-860.232 L 130.64,-860.084 L 130.048,-860.009 z
M 130.937,-745.589 L 131.545,-745.745 L 132.129,-745.976 L 132.679,-746.278 L 133.187,-746.647 L 133.645,-747.077
 L 134.045,-747.561 L 134.382,-748.091 L 134.649,-748.659 L 134.843,-749.257 L 134.961,-749.873 L 135,-750.5
 L 135,-845.5 L 134.961,-846.127 L 134.843,-846.743 L 134.649,-847.341 L 134.382,-847.909 L 134.045,-848.439
 L 133.645,-848.923 L 133.187,-849.353 L 132.679,-849.722 L 132.129,-850.024 L 131.545,-850.255 L 130.937,-850.411
 L 130.314,-850.49 L -130.314,-850.49 L -130.937,-850.411 L -131.545,-850.255 L -132.129,-850.024 L -132.679,-849.722
 L -133.187,-849.353 L -133.645,-848.923 L -134.045,-848.439 L -134.382,-847.909 L -134.649,-847.341 L -134.843,-846.743
 L -134.961,-846.127 L -135,-845.5 L -135,-750.5 L -134.961,-749.873 L -134.843,-749.257 L -134.649,-748.659
 L -134.382,-748.091 L -134.045,-747.561 L -133.645,-747.077 L -133.187,-746.647 L -132.679,-746.278 L -132.129,-745.976
 L -131.545,-745.745 L -130.937,-745.589 L -130.314,-745.51 L 130.314,-745.51 z
M -130.048,-746.009 L -130.64,-746.084 L -131.218,-746.232 L -131.772,-746.452 L -132.295,-746.739 L -132.778,-747.09
 L -133.213,-747.498 L -133.593,-747.958 L -133.912,-748.462 L -134.166,-749.001 L -134.351,-749.569 L -134.463,-750.155
 L -134.5,-750.75 L -134.5,-845.25 L -134.463,-845.845 L -134.351,-846.431 L -134.166,-846.999 L -133.912,-847.538
 L -133.593,-848.042 L -133.213,-848.502 L -132.778,-848.91 L -132.295,-849.261 L -131.772,-849.548 L -131.218,-849.768
 L -130.64,-849.916 L -130.048,-849.991 L 130.048,-849.991 L 130.64,-849.916 L 131.218,-849.768 L 131.772,-849.548
 L 132.295,-849.261 L 132.778,-848.91 L 133.213,-848.502 L 133.593,-848.042 L 133.912,-847.538 L 134.166,-846.999
 L 134.351,-846.431 L 134.463,-845.845 L 134.5,-845.25 L 134.5,-750.75 L 134.463,-750.155 L 134.351,-749.569
 L 134.166,-749.001 L 133.912,-748.462 L 133.593,-747.958 L 133.213,-747.498 L 132.778,-747.09 L 132.295,-746.739
 L 131.772,-746.452 L 131.218,-746.232 L 130.64,-746.084 L 130.048,-746.009 z
M 130.937,-631.589 L 131.545,-631.745 L 132.129,-631.976 L 132.679,-632.278 L 133.187,-632.647 L 133.645,-633.077
 L 134.045,-633.561 L 134.382,-634.091 L 134.649,-634.659 L 134.843,-635.257 L 134.961,-635.873 L 135,-636.5
 L 135,-731.5 L 134.961,-732.127 L 134.843,-732.743 L 134.649,-733.341 L 134.382,-733.909 L 134.045,-734.439
 L 133.645,-734.923 L 133.187,-735.353 L 132.679,-735.722 L 132.129,-736.024 L 131.545,-736.255 L 130.937,-736.411
 L 130.314,-736.49 L -130.314,-736.49 L -130.937,-736.411 L -131.545,-736.255 L -132.129,-736.024 L -132.679,-735.722
 L -133.187,-735.353 L -133.645,-734.923 L -134.045,-734.439 L -134.382,-733.909 L -134.649,-733.341 L -134.843,-732.743
 L -134.961,-732.127 L -135,-731.5 L -135,-636.5 L -134.961,-635.873 L -134.843,-635.257 L -134.649,-634.659
 L -134.382,-634.091 L -134.045,-633.561 L -133.645,-633.077 L -133.187,-632.647 L -132.679,-632.278 L -132.129,-631.976
 L -131.545,-631.745 L -130.937,-631.589 L -130.314,-631.51 L 130.314,-631.51 z
M -130.048,-632.009 L -130.64,-632.084 L -131.218,-632.232 L -131.772,-632.452 L -132.295,-632.739 L -132.778,-633.09
 L -133.213,-633.498 L -133.593,-633.958 L -133.912,-634.462 L -134.166,-635.001 L -134.351,-635.569 L -134.463,-636.155
 L -134.5,-636.75 L -134.5,-731.25 L -134.463,-731.845 L -134.351,-732.431 L -134.166,-732.999 L -133.912,-733.538
 L -133.593,-734.042 L -133.213,-734.502 L -132.778,-734.91 L -132.295,-735.261 L -131.772,-735.548 L -131.218,-735.768
 L -130.64,-735.916 L -130.048,-735.991 L 130.048,-735.991 L 130.64,-735.916 L 131.218,-735.768 L 131.772,-735.548
 L 132.295,-735.261 L 132.778,-734.91 L 133.213,-734.502 L 133.593,-734.042 L 133.912,-733.538 L 134.166,-732.999
 L 134.351,-732.431 L 134.463,-731.845 L 134.5,-731.25 L 134.5,-636.75 L 134.463,-636.155 L 134.351,-635.569
 L 134.166,-635.001 L 133.912,-634.462 L 133.593,-633.958 L 133.213,-633.498 L 132.778,-633.09 L 132.295,-632.739
 L 131.772,-632.452 L 131.218,-632.232 L 130.64,-632.084 L 130.048,-632.009 z
M 130.937,-517.589 L 131.545,-517.745 L 132.129,-517.976 L 132.679,-518.278 L 133.187,-518.647 L 133.645,-519.077
 L 134.045,-519.561 L 134.382,-520.091 L 134.649,-520.659 L 134.843,-521.257 L 134.961,-521.873 L 135,-522.5
 L 135,-617.5 L 134.961,-618.127 L 134.843,-618.743 L 134.649,-619.341 L 134.382,-619.909 L 134.045,-620.439
 L 133.645,-620.923 L 133.187,-621.353 L 132.679,-621.722 L 132.129,-622.024 L 131.545,-622.255 L 130.937,-622.411
 L 130.314,-622.49 L -130.314,-622.49 L -130.937,-622.411 L -131.545,-622.255 L -132.129,-622.024 L -132.679,-621.722
 L -133.187,-621.353 L -133.645,-620.923 L -134.045,-620.439 L -134.382,-619.909 L -134.649,-619.341 L -134.843,-618.743
 L -134.961,-618.127 L -135,-617.5 L -135,-522.5 L -134.961,-521.873 L -134.843,-521.257 L -134.649,-520.659
 L -134.382,-520.091 L -134.045,-519.561 L -133.645,-519.077 L -133.187,-518.647 L -132.679,-518.278 L -132.129,-517.976
 L -131.545,-517.745 L -130.937,-517.589 L -130.314,-517.51 L 130.314,-517.51 z
M -129.993,-518.888 L -130.475,-518.949 L -130.946,-519.07 L -131.398,-519.249 L -131.823,-519.483 L -132.216,-519.769
 L -132.571,-520.101 L -132.88,-520.476 L -133.141,-520.886 L -133.348,-521.326 L -133.498,-521.788 L -133.589,-522.265
 L -133.619,-522.75 L -133.619,-617.25 L -133.589,-617.735 L -133.498,-618.212 L -133.348,-618.674 L -133.141,-619.114
 L -132.88,-619.524 L -132.571,-619.899 L -132.216,-620.231 L -131.823,-620.517 L -131.398,-620.751 L -130.946,-620.93
 L -130.475,-621.051 L -129.993,-621.112 L 129.993,-621.112 L 130.475,-621.051 L 130.946,-620.93 L 131.398,-620.751
 L 131.823,-620.517 L 132.216,-620.231 L 132.571,-619.899 L 132.88,-619.524 L 133.141,-619.114 L 133.348,-618.674
 L 133.498,-618.212 L 133.589,-617.735 L 133.619,-617.25 L 133.619,-522.75 L 133.589,-522.265 L 133.498,-521.788
 L 133.348,-521.326 L 133.141,-520.886 L 132.88,-520.476 L 132.571,-520.101 L 132.216,-519.769 L 131.823,-519.483
 L 131.398,-519.249 L 130.946,-519.07 L 130.475,-518.949 L 129.993,-518.888 z
M 130.937,-403.589 L 131.545,-403.745 L 132.129,-403.976 L 132.679,-404.278 L 133.187,-404.647 L 133.645,-405.077
 L 134.045,-405.561 L 134.382,-406.091 L 134.649,-406.659 L 134.843,-407.257 L 134.961,-407.873 L 135,-408.5
 L 135,-503.5 L 134.961,-504.127 L 134.843,-504.743 L 134.649,-505.341 L 134.382,-505.909 L 134.045,-506.439
 L 133.645,-506.923 L 133.187,-507.353 L 132.679,-507.722 L 132.129,-508.024 L 131.545,-508.255 L 130.937,-508.411
 L 130.314,-508.49 L -130.314,-508.49 L -130.937,-508.411 L -131.545,-508.255 L -132.129,-508.024 L -132.679,-507.722
 L -133.187,-507.353 L -133.645,-506.923 L -134.045,-506.439 L -134.382,-505.909 L -134.649,-505.341 L -134.843,-504.743
 L -134.961,-504.127 L -135,-503.5 L -135,-408.5 L -134.961,-407.873 L -134.843,-407.257 L -134.649,-406.659
 L -134.382,-406.091 L -134.045,-405.561 L -133.645,-405.077 L -133.187,-404.647 L -132.679,-404.278 L -132.129,-403.976
 L -131.545,-403.745 L -130.937,-403.589 L -130.314,-403.51 L 130.314,-403.51 z
M 127.387,-499.204 L 127.163,-499.232 L 126.944,-499.288 L 126.734,-499.371 L 126.536,-499.48 L 126.353,-499.613
 L 126.188,-499.768 L 126.044,-499.942 L 125.923,-500.133 L 125.826,-500.337 L 125.757,-500.552 L 125.714,-500.774
 L 125.7,-501 L 125.714,-501.226 L 125.757,-501.448 L 125.826,-501.663 L 125.923,-501.867 L 126.044,-502.058
 L 126.188,-502.232 L 126.353,-502.387 L 126.536,-502.52 L 126.734,-502.629 L 126.944,-502.712 L 127.163,-502.768
 L 127.387,-502.796 L 127.613,-502.796 L 127.837,-502.768 L 128.056,-502.712 L 128.266,-502.629 L 128.464,-502.52
 L 128.647,-502.387 L 128.812,-502.232 L 128.956,-502.058 L 129.077,-501.867 L 129.174,-501.663 L 129.243,-501.448
 L 129.286,-501.226 L 129.3,-501 L 129.286,-500.774 L 129.243,-500.552 L 129.174,-500.337 L 129.077,-500.133
 L 128.956,-499.942 L 128.812,-499.768 L 128.647,-499.613 L 128.464,-499.48 L 128.266,-499.371 L 128.056,-499.288
 L 127.837,-499.232 L 127.613,-499.204 z
M -127.613,-499.204 L -127.837,-499.232 L -128.056,-499.288 L -128.266,-499.371 L -128.464,-499.48 L -128.647,-499.613
 L -128.812,-499.768 L -128.956,-499.942 L -129.077,-500.133 L -129.174,-500.337 L -129.243,-500.552 L -129.286,-500.774
 L -129.3,-501 L -129.286,-501.226 L -129.243,-501.448 L -129.174,-501.663 L -129.077,-501.867 L -128.956,-502.058
 L -128.812,-502.232 L -128.647,-502.387 L -128.464,-502.52 L -128.266,-502.629 L -128.056,-502.712 L -127.837,-502.768
 L -127.613,-502.796 L -127.387,-502.796 L -127.163,-502.768 L -126.944,-502.712 L -126.734,-502.629 L -126.536,-502.52
 L -126.353,-502.387 L -126.188,-502.232 L -126.044,-502.058 L -125.923,-501.867 L -125.826,-501.663 L -125.757,-501.448
 L -125.714,-501.226 L -125.7,-501 L -125.714,-500.774 L -125.757,-500.552 L -125.826,-500.337 L -125.923,-500.133
 L -126.044,-499.942 L -126.188,-499.768 L -126.353,-499.613 L -126.536,-499.48 L -126.734,-499.371 L -126.944,-499.288
 L -127.163,-499.232 L -127.387,-499.204 z
M 127.387,-409.204 L 127.163,-409.232 L 126.944,-409.288 L 126.734,-409.371 L 126.536,-409.48 L 126.353,-409.613
 L 126.188,-409.768 L 126.044,-409.942 L 125.923,-410.133 L 125.826,-410.337 L 125.757,-410.552 L 125.714,-410.774
 L 125.7,-411 L 125.714,-411.226 L 125.757,-411.448 L 125.826,-411.663 L 125.923,-411.867 L 126.044,-412.058
 L 126.188,-412.232 L 126.353,-412.387 L 126.536,-412.52 L 126.734,-412.629 L 126.944,-412.712 L 127.163,-412.768
 L 127.387,-412.796 L 127.613,-412.796 L 127.837,-412.768 L 128.056,-412.712 L 128.266,-412.629 L 128.464,-412.52
 L 128.647,-412.387 L 128.812,-412.232 L 128.956,-412.058 L 129.077,-411.867 L 129.174,-411.663 L 129.243,-411.448
 L 129.286,-411.226 L 129.3,-411 L 129.286,-410.774 L 129.243,-410.552 L 129.174,-410.337 L 129.077,-410.133
 L 128.956,-409.942 L 128.812,-409.768 L 128.647,-409.613 L 128.464,-409.48 L 128.266,-409.371 L 128.056,-409.288
 L 127.837,-409.232 L 127.613,-409.204 z
M -127.613,-409.204 L -127.837,-409.232 L -128.056,-409.288 L -128.266,-409.371 L -128.464,-409.48 L -128.647,-409.613
 L -128.812,-409.768 L -128.956,-409.942 L -129.077,-410.133 L -129.174,-410.337 L -129.243,-410.552 L -129.286,-410.774
 L -129.3,-411 L -129.286,-411.226 L -129.243,-411.448 L -129.174,-411.663 L -129.077,-411.867 L -128.956,-412.058
 L -128.812,-412.232 L -128.647,-412.387 L -128.464,-412.52 L -128.266,-412.629 L -128.056,-412.712 L -127.837,-412.768
 L -127.613,-412.796 L -127.387,-412.796 L -127.163,-412.768 L -126.944,-412.712 L -126.734,-412.629 L -126.536,-412.52
 L -126.353,-412.387 L -126.188,-412.232 L -126.044,-412.058 L -125.923,-411.867 L -125.826,-411.663 L -125.757,-411.448
 L -125.714,-411.226 L -125.7,-411 L -125.714,-410.774 L -125.757,-410.552 L -125.826,-410.337 L -125.923,-410.133
 L -126.044,-409.942 L -126.188,-409.768 L -126.353,-409.613 L -126.536,-409.48 L -126.734,-409.371 L -126.944,-409.288
 L -127.163,-409.232 L -127.387,-409.204 z
" stroke="black" fill="lightgray" stroke-width="0.5"/>
</svg>
