<?xml version="1.0" standalone="no"?>
<!DOCTYPE svg PUBLIC "-//W3C//DTD SVG 1.1//EN" "http://www.w3.org/Graphics/SVG/1.1/DTD/svg11.dtd">
<svg width="272mm" height="88mm" viewBox="-137 -176 272 88" xmlns="http://www.w3.org/2000/svg" version="1.1">
<title>OpenSCAD Model</title>
<path d="
M -133.5,-161.941 L -133.187,-161.647 L -132.679,-161.278 L -132.129,-160.976 L -131.545,-160.745 L -130.937,-160.589
 L -130.314,-160.51 L 130.314,-160.51 L 130.937,-160.589 L 131.545,-160.745 L 132.129,-160.976 L 132.679,-161.278
 L 133.187,-161.647 L 133.645,-162.077 L 134.045,-162.561 L 134.382,-163.091 L 134.649,-163.659 L 134.843,-164.257
 L 134.961,-164.873 L 135,-165.5 L 135,-170.5 L 134.961,-171.127 L 134.843,-171.743 L 134.649,-172.341
 L 134.382,-172.909 L 134.045,-173.439 L 133.645,-173.923 L 133.187,-174.353 L 132.679,-174.722 L 132.129,-175.024
 L 131.545,-175.255 L 130.937,-175.411 L 130.314,-175.49 L -130.314,-175.49 L -130.937,-175.411 L -131.545,-175.255
 L -132.129,-175.024 L -132.679,-174.722 L -133.187,-174.353 L -133.5,-174.059 L -133.5,-175.49 L -136.5,-175.49
 L -136.5,-160.51 L -133.5,-160.51 z
M -129.751,-162.008 L -130.25,-162.071 L -130.736,-162.196 L -131.203,-162.381 L -131.643,-162.623 L -132.05,-162.918
 L -132.416,-163.262 L -132.736,-163.649 L -133.005,-164.073 L -133.219,-164.528 L -133.374,-165.005 L -133.468,-165.499
 L -133.5,-166 L -133.5,-170 L -133.468,-170.501 L -133.374,-170.995 L -133.219,-171.472 L -133.005,-171.927
 L -132.736,-172.351 L -132.416,-172.738 L -132.05,-173.082 L -131.643,-173.377 L -131.203,-173.619 L -130.736,-173.804
 L -130.25,-173.929 L -129.751,-173.992 L 129.751,-173.992 L 130.25,-173.929 L 130.736,-173.804 L 131.203,-173.619
 L 131.643,-173.377 L 132.05,-173.082 L 132.416,-172.738 L 132.736,-172.351 L 133.005,-171.927 L 133.219,-171.472
 L 133.374,-170.995 L 133.468,-170.501 L 133.5,-170 L 133.5,-166 L 133.468,-165.499 L 133.374,-165.005
 L 133.219,-164.528 L 133.005,-164.073 L 132.736,-163.649 L 132.416,-163.262 L 132.05,-162.918 L 131.643,-162.623
 L 131.203,-162.381 L 130.736,-162.196 L 130.25,-162.071 L 129.751,-162.008 z
M -133.5,-137.941 L -133.187,-137.647 L -132.679,-137.278 L -132.129,-136.976 L -131.545,-136.745 L -130.937,-136.589
 L -130.314,-136.51 L 130.314,-136.51 L 130.937,-136.589 L 131.545,-136.745 L 132.129,-136.976 L 132.679,-137.278
 L 133.187,-137.647 L 133.645,-138.077 L 134.045,-138.561 L 134.382,-139.091 L 134.649,-139.659 L 134.843,-140.257
 L 134.961,-140.873 L 135,-141.5 L 135,-146.5 L 134.961,-147.127 L 134.843,-147.743 L 134.649,-148.341
 L 134.382,-148.909 L 134.045,-149.439 L 133.645,-149.923 L 133.187,-150.353 L 132.679,-150.722 L 132.129,-151.024
 L 131.545,-151.255 L 130.937,-151.411 L 130.314,-151.49 L -130.314,-151.49 L -130.937,-151.411 L -131.545,-151.255
 L -132.129,-151.024 L -132.679,-150.722 L -133.187,-150.353 L -133.5,-150.059 L -133.5,-151.49 L -136.5,-151.49
 L -136.5,-136.51 L -133.5,-136.51 z
M -129.751,-138.008 L -130.25,-138.071 L -130.736,-138.196 L -131.203,-138.381 L -131.643,-138.623 L -132.05,-138.918
 L -132.416,-139.262 L -132.736,-139.649 L -133.005,-140.073 L -133.219,-140.528 L -133.374,-141.005 L -133.468,-141.499
 L -133.5,-142 L -133.5,-146 L -133.468,-146.501 L -133.374,-146.995 L -133.219,-147.472 L -133.005,-147.927
 L -132.736,-148.351 L -132.416,-148.738 L -132.05,-149.082 L -131.643,-149.377 L -131.203,-149.619 L -130.736,-149.804
 L -130.25,-149.929 L -129.751,-149.992 L 129.751,-149.992 L 130.25,-149.929 L 130.736,-149.804 L 131.203,-149.619
 L 131.643,-149.377 L 132.05,-149.082 L 132.416,-148.738 L 132.736,-148.351 L 133.005,-147.927 L 133.219,-147.472
 L 133.374,-146.995 L 133.468,-146.501 L 133.5,-146 L 133.5,-142 L 133.468,-141.499 L 133.374,-141.005
 L 133.219,-140.528 L 133.005,-140.073 L 132.736,-139.649 L 132.416,-139.262 L 132.05,-138.918 L 131.643,-138.623
 L 131.203,-138.381 L 130.736,-138.196 L 130.25,-138.071 L 129.751,-138.008 z
M 130.937,-112.589 L 131.545,-112.745 L 132.129,-112.976 L 132.679,-113.278 L 133.187,-113.647 L 133.645,-114.077
 L 134.045,-114.561 L 134.382,-115.091 L 134.649,-115.659 L 134.843,-116.257 L 134.961,-116.873 L 135,-117.5
 L 135,-122.5 L 134.961,-123.127 L 134.843,-123.743 L 134.649,-124.341 L 134.382,-124.909 L 134.045,-125.439
 L 133.645,-125.923 L 133.187,-126.353 L 132.679,-126.722 L 132.129,-127.024 L 131.545,-127.255 L 130.937,-127.411
 L 130.314,-127.49 L -130.314,-127.49 L -130.937,-127.411 L -131.545,-127.255 L -132.129,-127.024 L -132.679,-126.722
 L -133.187,-126.353 L -133.5,-126.059 L -133.5,-127.479 L -136.5,-127.479 L -136.5,-112.521 L -133.5,-112.521
 L -133.5,-113.941 L -133.187,-113.647 L -132.679,-113.278 L -132.129,-112.976 L -131.545,-112.745 L -130.937,-112.589
 L -130.314,-112.51 L 130.314,-112.51 z
M -129.695,-114.893 L -130.083,-114.942 L -130.462,-115.039 L -130.825,-115.183 L -131.168,-115.372 L -131.484,-115.601
 L -131.769,-115.869 L -132.018,-116.17 L -132.228,-116.5 L -132.394,-116.854 L -132.515,-117.226 L -132.588,-117.61
 L -132.613,-118 L -132.613,-122 L -132.588,-122.39 L -132.515,-122.774 L -132.394,-123.146 L -132.228,-123.5
 L -132.018,-123.83 L -131.769,-124.131 L -131.484,-124.399 L -131.168,-124.628 L -130.825,-124.817 L -130.462,-124.961
 L -130.083,-125.058 L -129.695,-125.107 L 129.695,-125.107 L 130.083,-125.058 L 130.462,-124.961 L 130.825,-124.817
 L 131.168,-124.628 L 131.484,-124.399 L 131.769,-124.131 L 132.018,-123.83 L 132.228,-123.5 L 132.394,-123.146
 L 132.515,-122.774 L 132.588,-122.39 L 132.613,-122 L 132.613,-118 L 132.588,-117.61 L 132.515,-117.226
 L 132.394,-116.854 L 132.228,-116.5 L 132.018,-116.17 L 131.769,-115.869 L 131.484,-115.601 L 131.168,-115.372
 L 130.825,-115.183 L 130.462,-115.039 L 130.083,-114.942 L 129.695,-114.893 z
M 130.937,-88.5886 L 131.545,-88.7447 L 132.129,-88.9759 L 132.679,-89.2784 L 133.187,-89.6474 L 133.645,-90.0773
 L 134.045,-90.5611 L 134.382,-91.0912 L 134.649,-91.6594 L 134.843,-92.2566 L 134.961,-92.8733 L 135,-93.5
 L 135,-98.5 L 134.961,-99.1267 L 134.843,-99.7434 L 134.649,-100.341 L 134.382,-100.909 L 134.045,-101.439
 L 133.645,-101.923 L 133.187,-102.353 L 132.679,-102.722 L 132.129,-103.024 L 131.545,-103.255 L 130.937,-103.411
 L 130.314,-103.49 L -130.314,-103.49 L -130.937,-103.411 L -131.545,-103.255 L -132.129,-103.024 L -132.679,-102.722
 L -133.187,-102.353 L -133.5,-102.059 L -133.5,-102.153 L -136.5,-102.153 L -136.5,-89.8474 L -133.5,-89.8474
 L -133.5,-89.9413 L -133.187,-89.6474 L -132.679,-89.2784 L -132.129,-88.9759 L -131.545,-88.7447 L -130.937,-88.5886
 L -130.314,-88.5099 L 130.314,-88.5099 z
M -127.634,-93.8689 L -127.9,-93.9025 L -128.16,-93.9692 L -128.409,-94.0679 L -128.644,-94.1971 L -128.861,-94.3547
 L -129.057,-94.5383 L -129.227,-94.7449 L -129.371,-94.9713 L -129.485,-95.214 L -129.568,-95.469 L -129.618,-95.7324
 L -129.635,-96 L -129.618,-96.2676 L -129.568,-96.531 L -129.485,-96.786 L -129.371,-97.0287 L -129.227,-97.2551
 L -129.057,-97.4617 L -128.861,-97.6453 L -128.644,-97.8029 L -128.409,-97.9321 L -128.16,-98.0308 L -127.9,-98.0975
 L -127.634,-98.1311 L -127.366,-98.1311 L -127.1,-98.0975 L -126.84,-98.0308 L -126.591,-97.9321 L -126.356,-97.8029
 L -126.139,-97.6453 L -125.943,-97.4617 L -125.773,-97.2551 L -125.629,-97.0287 L -125.515,-96.786 L -125.432,-96.531
 L -125.382,-96.2676 L -125.365,-96 L -125.382,-95.7324 L -125.432,-95.469 L -125.515,-95.214 L -125.629,-94.9713
 L -125.773,-94.7449 L -125.943,-94.5383 L -126.139,-94.3547 L -126.356,-94.1971 L -126.591,-94.0679 L -126.84,-93.9692
 L -127.1,-93.9025 L -127.366,-93.8689 z
M 127.366,-93.8689 L 127.1,-93.9025 L 126.84,-93.9692 L 126.591,-94.0679 L 126.356,-94.1971 L 126.139,-94.3547
 L 125.943,-94.5383 L 125.773,-94.7449 L 125.629,-94.9713 L 125.515,-95.214 L 125.432,-95.469 L 125.382,-95.7324
 L 125.365,-96 L 125.382,-96.2676 L 125.432,-96.531 L 125.515,-96.786 L 125.629,-97.0287 L 125.773,-97.2551
 L 125.943,-97.4617 L 126.139,-97.6453 L 126.356,-97.8029 L 126.591,-97.9321 L 126.84,-98.0308 L 127.1,-98.0975
 L 127.366,-98.1311 L 127.634,-98.1311 L 127.9,-98.0975 L 128.16,-98.0308 L 128.409,-97.9321 L 128.644,-97.8029
 L 128.861,-97.6453 L 129.057,-97.4617 L 129.227,-97.2551 L 129.371,-97.0287 L 129.485,-96.786 L 129.568,-96.531
 L 129.618,-96.2676 L 129.635,-96 L 129.618,-95.7324 L 129.568,-95.469 L 129.485,-95.214 L 129.371,-94.9713
 L 129.227,-94.7449 L 129.057,-94.5383 L 128.861,-94.3547 L 128.644,-94.1971 L 128.409,-94.0679 L 128.16,-93.9692
 L 127.9,-93.9025 L 127.634,-93.8689 z
" stroke="black" fill="lightgray" stroke-width="0.5"/>
</svg>
