<?xml version="1.0" standalone="no"?>
<!DOCTYPE svg PUBLIC "-//W3C//DTD SVG 1.1//EN" "http://www.w3.org/Graphics/SVG/1.1/DTD/svg11.dtd">
<svg width="302mm" height="460mm" viewBox="-152 -581 302 460" xmlns="http://www.w3.org/2000/svg" version="1.1">
<title>OpenSCAD Model</title>
<path d="
M 145.937,-355.589 L 146.545,-355.745 L 147.129,-355.976 L 147.679,-356.278 L 148.187,-356.647 L 148.645,-357.077
 L 149.045,-357.561 L 149.382,-358.091 L 149.649,-358.659 L 149.843,-359.257 L 149.961,-359.873 L 150,-360.5
 L 150,-575.5 L 149.961,-576.127 L 149.843,-576.743 L 149.649,-577.341 L 149.382,-577.909 L 149.045,-578.439
 L 148.645,-578.923 L 148.187,-579.353 L 147.679,-579.722 L 147.129,-580.024 L 146.545,-580.255 L 145.937,-580.411
 L 145.314,-580.49 L -145.314,-580.49 L -145.937,-580.411 L -146.545,-580.255 L -147.129,-580.024 L -147.679,-579.722
 L -148.187,-579.353 L -148.5,-579.059 L -148.5,-580.115 L -151.5,-580.115 L -151.5,-355.885 L -148.5,-355.885
 L -148.5,-356.941 L -148.187,-356.647 L -147.679,-356.278 L -147.129,-355.976 L -146.545,-355.745 L -145.937,-355.589
 L -145.314,-355.51 L 145.314,-355.51 z
M -142.651,-570.605 L -142.95,-570.643 L -143.242,-570.717 L -143.522,-570.828 L -143.786,-570.974 L -144.03,-571.151
 L -144.25,-571.357 L -144.442,-571.589 L -144.603,-571.844 L -144.731,-572.117 L -144.825,-572.403 L -144.881,-572.699
 L -144.9,-573 L -144.881,-573.301 L -144.825,-573.597 L -144.731,-573.883 L -144.603,-574.156 L -144.442,-574.411
 L -144.25,-574.643 L -144.03,-574.849 L -143.786,-575.026 L -143.522,-575.172 L -143.242,-575.283 L -142.95,-575.357
 L -142.651,-575.395 L -142.349,-575.395 L -142.05,-575.357 L -141.758,-575.283 L -141.478,-575.172 L -141.214,-575.026
 L -140.97,-574.849 L -140.75,-574.643 L -140.558,-574.411 L -140.397,-574.156 L -140.269,-573.883 L -140.175,-573.597
 L -140.119,-573.301 L -140.1,-573 L -140.119,-572.699 L -140.175,-572.403 L -140.269,-572.117 L -140.397,-571.844
 L -140.558,-571.589 L -140.75,-571.357 L -140.97,-571.151 L -141.214,-570.974 L -141.478,-570.828 L -141.758,-570.717
 L -142.05,-570.643 L -142.349,-570.605 z
M 142.349,-570.605 L 142.05,-570.643 L 141.758,-570.717 L 141.478,-570.828 L 141.214,-570.974 L 140.97,-571.151
 L 140.75,-571.357 L 140.558,-571.589 L 140.397,-571.844 L 140.269,-572.117 L 140.175,-572.403 L 140.119,-572.699
 L 140.1,-573 L 140.119,-573.301 L 140.175,-573.597 L 140.269,-573.883 L 140.397,-574.156 L 140.558,-574.411
 L 140.75,-574.643 L 140.97,-574.849 L 141.214,-575.026 L 141.478,-575.172 L 141.758,-575.283 L 142.05,-575.357
 L 142.349,-575.395 L 142.651,-575.395 L 142.95,-575.357 L 143.242,-575.283 L 143.522,-575.172 L 143.786,-575.026
 L 144.03,-574.849 L 144.25,-574.643 L 144.442,-574.411 L 144.603,-574.156 L 144.731,-573.883 L 144.825,-573.597
 L 144.881,-573.301 L 144.9,-573 L 144.881,-572.699 L 144.825,-572.403 L 144.731,-572.117 L 144.603,-571.844
 L 144.442,-571.589 L 144.25,-571.357 L 144.03,-571.151 L 143.786,-570.974 L 143.522,-570.828 L 143.242,-570.717
 L 142.95,-570.643 L 142.651,-570.605 z
M 142.349,-360.605 L 142.05,-360.643 L 141.758,-360.717 L 141.478,-360.828 L 141.214,-360.974 L 140.97,-361.151
 L 140.75,-361.357 L 140.558,-361.589 L 140.397,-361.844 L 140.269,-362.117 L 140.175,-362.403 L 140.119,-362.699
 L 140.1,-363 L 140.119,-363.301 L 140.175,-363.597 L 140.269,-363.883 L 140.397,-364.156 L 140.558,-364.411
 L 140.75,-364.643 L 140.97,-364.849 L 141.214,-365.026 L 141.478,-365.172 L 141.758,-365.283 L 142.05,-365.357
 L 142.349,-365.395 L 142.651,-365.395 L 142.95,-365.357 L 143.242,-365.283 L 143.522,-365.172 L 143.786,-365.026
 L 144.03,-364.849 L 144.25,-364.643 L 144.442,-364.411 L 144.603,-364.156 L 144.731,-363.883 L 144.825,-363.597
 L 144.881,-363.301 L 144.9,-363 L 144.881,-362.699 L 144.825,-362.403 L 144.731,-362.117 L 144.603,-361.844
 L 144.442,-361.589 L 144.25,-361.357 L 144.03,-361.151 L 143.786,-360.974 L 143.522,-360.828 L 143.242,-360.717
 L 142.95,-360.643 L 142.651,-360.605 z
M -142.651,-360.605 L -142.95,-360.643 L -143.242,-360.717 L -143.522,-360.828 L -143.786,-360.974 L -144.03,-361.151
 L -144.25,-361.357 L -144.442,-361.589 L -144.603,-361.844 L -144.731,-362.117 L -144.825,-362.403 L -144.881,-362.699
 L -144.9,-363 L -144.881,-363.301 L -144.825,-363.597 L -144.731,-363.883 L -144.603,-364.156 L -144.442,-364.411
 L -144.25,-364.643 L -144.03,-364.849 L -143.786,-365.026 L -143.522,-365.172 L -143.242,-365.283 L -142.95,-365.357
 L -142.651,-365.395 L -142.349,-365.395 L -142.05,-365.357 L -141.758,-365.283 L -141.478,-365.172 L -141.214,-365.026
 L -140.97,-364.849 L -140.75,-364.643 L -140.558,-364.411 L -140.397,-364.156 L -140.269,-363.883 L -140.175,-363.597
 L -140.119,-363.301 L -140.1,-363 L -140.119,-362.699 L -140.175,-362.403 L -140.269,-362.117 L -140.397,-361.844
 L -140.558,-361.589 L -140.75,-361.357 L -140.97,-361.151 L -141.214,-360.974 L -141.478,-360.828 L -141.758,-360.717
 L -142.05,-360.643 L -142.349,-360.605 z
M 145.937,-121.589 L 146.545,-121.745 L 147.129,-121.976 L 147.679,-122.278 L 148.187,-122.647 L 148.645,-123.077
 L 149.045,-123.561 L 149.382,-124.091 L 149.649,-124.659 L 149.843,-125.257 L 149.961,-125.873 L 150,-126.5
 L 150,-341.5 L 149.961,-342.127 L 149.843,-342.743 L 149.649,-343.341 L 149.382,-343.909 L 149.045,-344.439
 L 148.645,-344.923 L 148.187,-345.353 L 147.679,-345.722 L 147.129,-346.024 L 146.545,-346.255 L 145.937,-346.411
 L 145.314,-346.49 L -145.314,-346.49 L -145.937,-346.411 L -146.545,-346.255 L -147.129,-346.024 L -147.679,-345.722
 L -148.187,-345.353 L -148.645,-344.923 L -149.045,-344.439 L -149.382,-343.909 L -149.649,-343.341 L -149.843,-342.743
 L -149.9,-342.444 L -151.5,-342.444 L -151.5,-125.556 L -149.9,-125.556 L -149.843,-125.257 L -149.649,-124.659
 L -149.382,-124.091 L -149.045,-123.561 L -148.645,-123.077 L -148.187,-122.647 L -147.679,-122.278 L -147.129,-121.976
 L -146.545,-121.745 L -145.937,-121.589 L -145.314,-121.51 L 145.314,-121.51 z
M 142.387,-337.204 L 142.163,-337.232 L 141.944,-337.288 L 141.734,-337.371 L 141.536,-337.48 L 141.353,-337.613
 L 141.188,-337.768 L 141.044,-337.942 L 140.923,-338.133 L 140.826,-338.337 L 140.757,-338.552 L 140.714,-338.774
 L 140.7,-339 L 140.714,-339.226 L 140.757,-339.448 L 140.826,-339.663 L 140.923,-339.867 L 141.044,-340.058
 L 141.188,-340.232 L 141.353,-340.387 L 141.536,-340.52 L 141.734,-340.629 L 141.944,-340.712 L 142.163,-340.768
 L 142.387,-340.796 L 142.613,-340.796 L 142.837,-340.768 L 143.056,-340.712 L 143.266,-340.629 L 143.464,-340.52
 L 143.647,-340.387 L 143.812,-340.232 L 143.956,-340.058 L 144.077,-339.867 L 144.174,-339.663 L 144.243,-339.448
 L 144.286,-339.226 L 144.3,-339 L 144.286,-338.774 L 144.243,-338.552 L 144.174,-338.337 L 144.077,-338.133
 L 143.956,-337.942 L 143.812,-337.768 L 143.647,-337.613 L 143.464,-337.48 L 143.266,-337.371 L 143.056,-337.288
 L 142.837,-337.232 L 142.613,-337.204 z
M -142.613,-337.204 L -142.837,-337.232 L -143.056,-337.288 L -143.266,-337.371 L -143.464,-337.48 L -143.647,-337.613
 L -143.812,-337.768 L -143.956,-337.942 L -144.077,-338.133 L -144.174,-338.337 L -144.243,-338.552 L -144.286,-338.774
 L -144.3,-339 L -144.286,-339.226 L -144.243,-339.448 L -144.174,-339.663 L -144.077,-339.867 L -143.956,-340.058
 L -143.812,-340.232 L -143.647,-340.387 L -143.464,-340.52 L -143.266,-340.629 L -143.056,-340.712 L -142.837,-340.768
 L -142.613,-340.796 L -142.387,-340.796 L -142.163,-340.768 L -141.944,-340.712 L -141.734,-340.629 L -141.536,-340.52
 L -141.353,-340.387 L -141.188,-340.232 L -141.044,-340.058 L -140.923,-339.867 L -140.826,-339.663 L -140.757,-339.448
 L -140.714,-339.226 L -140.7,-339 L -140.714,-338.774 L -140.757,-338.552 L -140.826,-338.337 L -140.923,-338.133
 L -141.044,-337.942 L -141.188,-337.768 L -141.353,-337.613 L -141.536,-337.48 L -141.734,-337.371 L -141.944,-337.288
 L -142.163,-337.232 L -142.387,-337.204 z
M 142.387,-127.204 L 142.163,-127.232 L 141.944,-127.288 L 141.734,-127.371 L 141.536,-127.48 L 141.353,-127.613
 L 141.188,-127.768 L 141.044,-127.942 L 140.923,-128.133 L 140.826,-128.337 L 140.757,-128.552 L 140.714,-128.774
 L 140.7,-129 L 140.714,-129.226 L 140.757,-129.448 L 140.826,-129.663 L 140.923,-129.867 L 141.044,-130.058
 L 141.188,-130.232 L 141.353,-130.387 L 141.536,-130.52 L 141.734,-130.629 L 141.944,-130.712 L 142.163,-130.768
 L 142.387,-130.796 L 142.613,-130.796 L 142.837,-130.768 L 143.056,-130.712 L 143.266,-130.629 L 143.464,-130.52
 L 143.647,-130.387 L 143.812,-130.232 L 143.956,-130.058 L 144.077,-129.867 L 144.174,-129.663 L 144.243,-129.448
 L 144.286,-129.226 L 144.3,-129 L 144.286,-128.774 L 144.243,-128.552 L 144.174,-128.337 L 144.077,-128.133
 L 143.956,-127.942 L 143.812,-127.768 L 143.647,-127.613 L 143.464,-127.48 L 143.266,-127.371 L 143.056,-127.288
 L 142.837,-127.232 L 142.613,-127.204 z
M -142.613,-127.204 L -142.837,-127.232 L -143.056,-127.288 L -143.266,-127.371 L -143.464,-127.48 L -143.647,-127.613
 L -143.812,-127.768 L -143.956,-127.942 L -144.077,-128.133 L -144.174,-128.337 L -144.243,-128.552 L -144.286,-128.774
 L -144.3,-129 L -144.286,-129.226 L -144.243,-129.448 L -144.174,-129.663 L -144.077,-129.867 L -143.956,-130.058
 L -143.812,-130.232 L -143.647,-130.387 L -143.464,-130.52 L -143.266,-130.629 L -143.056,-130.712 L -142.837,-130.768
 L -142.613,-130.796 L -142.387,-130.796 L -142.163,-130.768 L -141.944,-130.712 L -141.734,-130.629 L -141.536,-130.52
 L -141.353,-130.387 L -141.188,-130.232 L -141.044,-130.058 L -140.923,-129.867 L -140.826,-129.663 L -140.757,-129.448
 L -140.714,-129.226 L -140.7,-129 L -140.714,-128.774 L -140.757,-128.552 L -140.826,-128.337 L -140.923,-128.133
 L -141.044,-127.942 L -141.188,-127.768 L -141.353,-127.613 L -141.536,-127.48 L -141.734,-127.371 L -141.944,-127.288
 L -142.163,-127.232 L -142.387,-127.204 z
" stroke="black" fill="lightgray" stroke-width="0.5"/>
</svg>
