<?xml version="1.0" standalone="no"?>
<!DOCTYPE svg PUBLIC "-//W3C//DTD SVG 1.1//EN" "http://www.w3.org/Graphics/SVG/1.1/DTD/svg11.dtd">
<svg width="300mm" height="828mm" viewBox="-150 -1251 300 828" xmlns="http://www.w3.org/2000/svg" version="1.1">
<title>OpenSCAD Model</title>
<path d="
M 145.937,-981.089 L 146.545,-981.245 L 147.129,-981.476 L 147.679,-981.778 L 148.187,-982.147 L 148.645,-982.577
 L 149.045,-983.061 L 149.382,-983.591 L 149.649,-984.159 L 149.843,-984.757 L 149.961,-985.373 L 150,-986
 L 150,-1246 L 149.961,-1246.63 L 149.843,-1247.24 L 149.649,-1247.84 L 149.382,-1248.41 L 149.045,-1248.94
 L 148.645,-1249.42 L 148.187,-1249.85 L 147.679,-1250.22 L 147.129,-1250.52 L 146.545,-1250.76 L 145.937,-1250.91
 L 145.314,-1250.99 L -145.314,-1250.99 L -145.937,-1250.91 L -146.545,-1250.76 L -147.129,-1250.52 L -147.679,-1250.22
 L -148.187,-1249.85 L -148.645,-1249.42 L -149.045,-1248.94 L -149.382,-1248.41 L -149.649,-1247.84 L -149.843,-1247.24
 L -149.961,-1246.63 L -150,-1246 L -150,-986 L -149.961,-985.373 L -149.843,-984.757 L -149.649,-984.159
 L -149.382,-983.591 L -149.045,-983.061 L -148.645,-982.577 L -148.187,-982.147 L -147.679,-981.778 L -147.129,-981.476
 L -146.545,-981.245 L -145.937,-981.089 L -145.314,-981.01 L 145.314,-981.01 z
M -145.048,-981.509 L -145.64,-981.584 L -146.218,-981.732 L -146.772,-981.952 L -147.295,-982.239 L -147.778,-982.59
 L -148.213,-982.998 L -148.593,-983.458 L -148.912,-983.962 L -149.166,-984.501 L -149.351,-985.069 L -149.463,-985.655
 L -149.5,-986.25 L -149.5,-1245.75 L -149.463,-1246.35 L -149.351,-1246.93 L -149.166,-1247.5 L -148.912,-1248.04
 L -148.593,-1248.54 L -148.213,-1249 L -147.778,-1249.41 L -147.295,-1249.76 L -146.772,-1250.05 L -146.218,-1250.27
 L -145.64,-1250.42 L -145.048,-1250.49 L 145.048,-1250.49 L 145.64,-1250.42 L 146.218,-1250.27 L 146.772,-1250.05
 L 147.295,-1249.76 L 147.778,-1249.41 L 148.213,-1249 L 148.593,-1248.54 L 148.912,-1248.04 L 149.166,-1247.5
 L 149.351,-1246.93 L 149.463,-1246.35 L 149.5,-1245.75 L 149.5,-986.25 L 149.463,-985.655 L 149.351,-985.069
 L 149.166,-984.501 L 148.912,-983.962 L 148.593,-983.458 L 148.213,-982.998 L 147.778,-982.59 L 147.295,-982.239
 L 146.772,-981.952 L 146.218,-981.732 L 145.64,-981.584 L 145.048,-981.509 z
M 145.937,-702.089 L 146.545,-702.245 L 147.129,-702.476 L 147.679,-702.778 L 148.187,-703.147 L 148.645,-703.577
 L 149.045,-704.061 L 149.382,-704.591 L 149.649,-705.159 L 149.843,-705.757 L 149.961,-706.373 L 150,-707
 L 150,-967 L 149.961,-967.627 L 149.843,-968.243 L 149.649,-968.841 L 149.382,-969.409 L 149.045,-969.939
 L 148.645,-970.423 L 148.187,-970.853 L 147.679,-971.222 L 147.129,-971.524 L 146.545,-971.755 L 145.937,-971.911
 L 145.314,-971.99 L -145.314,-971.99 L -145.937,-971.911 L -146.545,-971.755 L -147.129,-971.524 L -147.679,-971.222
 L -148.187,-970.853 L -148.645,-970.423 L -149.045,-969.939 L -149.382,-969.409 L -149.649,-968.841 L -149.843,-968.243
 L -149.961,-967.627 L -150,-967 L -150,-707 L -149.961,-706.373 L -149.843,-705.757 L -149.649,-705.159
 L -149.382,-704.591 L -149.045,-704.061 L -148.645,-703.577 L -148.187,-703.147 L -147.679,-702.778 L -147.129,-702.476
 L -146.545,-702.245 L -145.937,-702.089 L -145.314,-702.01 L 145.314,-702.01 z
M -144.993,-703.388 L -145.475,-703.449 L -145.946,-703.57 L -146.398,-703.749 L -146.823,-703.983 L -147.216,-704.269
 L -147.571,-704.601 L -147.88,-704.976 L -148.141,-705.386 L -148.348,-705.826 L -148.498,-706.288 L -148.589,-706.765
 L -148.619,-707.25 L -148.619,-966.75 L -148.589,-967.235 L -148.498,-967.712 L -148.348,-968.174 L -148.141,-968.614
 L -147.88,-969.024 L -147.571,-969.399 L -147.216,-969.731 L -146.823,-970.017 L -146.398,-970.251 L -145.946,-970.43
 L -145.475,-970.551 L -144.993,-970.612 L 144.993,-970.612 L 145.475,-970.551 L 145.946,-970.43 L 146.398,-970.251
 L 146.823,-970.017 L 147.216,-969.731 L 147.571,-969.399 L 147.88,-969.024 L 148.141,-968.614 L 148.348,-968.174
 L 148.498,-967.712 L 148.589,-967.235 L 148.619,-966.75 L 148.619,-707.25 L 148.589,-706.765 L 148.498,-706.288
 L 148.348,-705.826 L 148.141,-705.386 L 147.88,-704.976 L 147.571,-704.601 L 147.216,-704.269 L 146.823,-703.983
 L 146.398,-703.749 L 145.946,-703.57 L 145.475,-703.449 L 144.993,-703.388 z
M 145.937,-423.089 L 146.545,-423.245 L 147.129,-423.476 L 147.679,-423.778 L 148.187,-424.147 L 148.645,-424.577
 L 149.045,-425.061 L 149.382,-425.591 L 149.649,-426.159 L 149.843,-426.757 L 149.961,-427.373 L 150,-428
 L 150,-688 L 149.961,-688.627 L 149.843,-689.243 L 149.649,-689.841 L 149.382,-690.409 L 149.045,-690.939
 L 148.645,-691.423 L 148.187,-691.853 L 147.679,-692.222 L 147.129,-692.524 L 146.545,-692.755 L 145.937,-692.911
 L 145.314,-692.99 L -145.314,-692.99 L -145.937,-692.911 L -146.545,-692.755 L -147.129,-692.524 L -147.679,-692.222
 L -148.187,-691.853 L -148.645,-691.423 L -149.045,-690.939 L -149.382,-690.409 L -149.649,-689.841 L -149.843,-689.243
 L -149.961,-688.627 L -150,-688 L -150,-428 L -149.961,-427.373 L -149.843,-426.757 L -149.649,-426.159
 L -149.382,-425.591 L -149.045,-425.061 L -148.645,-424.577 L -148.187,-424.147 L -147.679,-423.778 L -147.129,-423.476
 L -146.545,-423.245 L -145.937,-423.089 L -145.314,-423.01 L 145.314,-423.01 z
M 142.387,-683.704 L 142.163,-683.732 L 141.944,-683.788 L 141.734,-683.871 L 141.536,-683.98 L 141.353,-684.113
 L 141.188,-684.268 L 141.044,-684.442 L 140.923,-684.633 L 140.826,-684.837 L 140.757,-685.052 L 140.714,-685.274
 L 140.7,-685.5 L 140.714,-685.726 L 140.757,-685.948 L 140.826,-686.163 L 140.923,-686.367 L 141.044,-686.558
 L 141.188,-686.732 L 141.353,-686.887 L 141.536,-687.02 L 141.734,-687.129 L 141.944,-687.212 L 142.163,-687.268
 L 142.387,-687.296 L 142.613,-687.296 L 142.837,-687.268 L 143.056,-687.212 L 143.266,-687.129 L 143.464,-687.02
 L 143.647,-686.887 L 143.812,-686.732 L 143.956,-686.558 L 144.077,-686.367 L 144.174,-686.163 L 144.243,-685.948
 L 144.286,-685.726 L 144.3,-685.5 L 144.286,-685.274 L 144.243,-685.052 L 144.174,-684.837 L 144.077,-684.633
 L 143.956,-684.442 L 143.812,-684.268 L 143.647,-684.113 L 143.464,-683.98 L 143.266,-683.871 L 143.056,-683.788
 L 142.837,-683.732 L 142.613,-683.704 z
M -142.613,-683.704 L -142.837,-683.732 L -143.056,-683.788 L -143.266,-683.871 L -143.464,-683.98 L -143.647,-684.113
 L -143.812,-684.268 L -143.956,-684.442 L -144.077,-684.633 L -144.174,-684.837 L -144.243,-685.052 L -144.286,-685.274
 L -144.3,-685.5 L -144.286,-685.726 L -144.243,-685.948 L -144.174,-686.163 L -144.077,-686.367 L -143.956,-686.558
 L -143.812,-686.732 L -143.647,-686.887 L -143.464,-687.02 L -143.266,-687.129 L -143.056,-687.212 L -142.837,-687.268
 L -142.613,-687.296 L -142.387,-687.296 L -142.163,-687.268 L -141.944,-687.212 L -141.734,-687.129 L -141.536,-687.02
 L -141.353,-686.887 L -141.188,-686.732 L -141.044,-686.558 L -140.923,-686.367 L -140.826,-686.163 L -140.757,-685.948
 L -140.714,-685.726 L -140.7,-685.5 L -140.714,-685.274 L -140.757,-685.052 L -140.826,-684.837 L -140.923,-684.633
 L -141.044,-684.442 L -141.188,-684.268 L -141.353,-684.113 L -141.536,-683.98 L -141.734,-683.871 L -141.944,-683.788
 L -142.163,-683.732 L -142.387,-683.704 z
M -142.613,-428.704 L -142.837,-428.732 L -143.056,-428.788 L -143.266,-428.871 L -143.464,-428.98 L -143.647,-429.113
 L -143.812,-429.268 L -143.956,-429.442 L -144.077,-429.633 L -144.174,-429.837 L -144.243,-430.052 L -144.286,-430.274
 L -144.3,-430.5 L -144.286,-430.726 L -144.243,-430.948 L -144.174,-431.163 L -144.077,-431.367 L -143.956,-431.558
 L -143.812,-431.732 L -143.647,-431.887 L -143.464,-432.02 L -143.266,-432.129 L -143.056,-432.212 L -142.837,-432.268
 L -142.613,-432.296 L -142.387,-432.296 L -142.163,-432.268 L -141.944,-432.212 L -141.734,-432.129 L -141.536,-432.02
 L -141.353,-431.887 L -141.188,-431.732 L -141.044,-431.558 L -140.923,-431.367 L -140.826,-431.163 L -140.757,-430.948
 L -140.714,-430.726 L -140.7,-430.5 L -140.714,-430.274 L -140.757,-430.052 L -140.826,-429.837 L -140.923,-429.633
 L -141.044,-429.442 L -141.188,-429.268 L -141.353,-429.113 L -141.536,-428.98 L -141.734,-428.871 L -141.944,-428.788
 L -142.163,-428.732 L -142.387,-428.704 z
M 142.387,-428.704 L 142.163,-428.732 L 141.944,-428.788 L 141.734,-428.871 L 141.536,-428.98 L 141.353,-429.113
 L 141.188,-429.268 L 141.044,-429.442 L 140.923,-429.633 L 140.826,-429.837 L 140.757,-430.052 L 140.714,-430.274
 L 140.7,-430.5 L 140.714,-430.726 L 140.757,-430.948 L 140.826,-431.163 L 140.923,-431.367 L 141.044,-431.558
 L 141.188,-431.732 L 141.353,-431.887 L 141.536,-432.02 L 141.734,-432.129 L 141.944,-432.212 L 142.163,-432.268
 L 142.387,-432.296 L 142.613,-432.296 L 142.837,-432.268 L 143.056,-432.212 L 143.266,-432.129 L 143.464,-432.02
 L 143.647,-431.887 L 143.812,-431.732 L 143.956,-431.558 L 144.077,-431.367 L 144.174,-431.163 L 144.243,-430.948
 L 144.286,-430.726 L 144.3,-430.5 L 144.286,-430.274 L 144.243,-430.052 L 144.174,-429.837 L 144.077,-429.633
 L 143.956,-429.442 L 143.812,-429.268 L 143.647,-429.113 L 143.464,-428.98 L 143.266,-428.871 L 143.056,-428.788
 L 142.837,-428.732 L 142.613,-428.704 z
" stroke="black" fill="lightgray" stroke-width="0.5"/>
</svg>
