<?xml version="1.0" standalone="no"?>
<!DOCTYPE svg PUBLIC "-//W3C//DTD SVG 1.1//EN" "http://www.w3.org/Graphics/SVG/1.1/DTD/svg11.dtd">
<svg width="286mm" height="100mm" viewBox="-143 -185 286 100" xmlns="http://www.w3.org/2000/svg" version="1.1">
<title>OpenSCAD Model</title>
<path d="
M 138.437,-139.589 L 139.045,-139.745 L 139.629,-139.976 L 140.179,-140.278 L 140.687,-140.647 L 141.145,-141.077
 L 141.545,-141.561 L 141.882,-142.091 L 142.149,-142.659 L 142.343,-143.257 L 142.461,-143.873 L 142.5,-144.5
 L 142.5,-179.5 L 142.461,-180.127 L 142.343,-180.743 L 142.149,-181.341 L 141.882,-181.909 L 141.545,-182.439
 L 141.145,-182.923 L 140.687,-183.353 L 140.179,-183.722 L 139.629,-184.024 L 139.045,-184.255 L 138.437,-184.411
 L 137.814,-184.49 L -137.814,-184.49 L -138.437,-184.411 L -139.045,-184.255 L -139.629,-184.024 L -140.179,-183.722
 L -140.687,-183.353 L -141.145,-182.923 L -141.545,-182.439 L -141.882,-181.909 L -142.149,-181.341 L -142.343,-180.743
 L -142.461,-180.127 L -142.5,-179.5 L -142.5,-144.5 L -142.461,-143.873 L -142.343,-143.257 L -142.149,-142.659
 L -141.882,-142.091 L -141.545,-141.561 L -141.145,-141.077 L -140.687,-140.647 L -140.179,-140.278 L -139.629,-139.976
 L -139.045,-139.745 L -138.437,-139.589 L -137.814,-139.51 L 137.814,-139.51 z
M -137.537,-140.181 L -138.108,-140.253 L -138.665,-140.396 L -139.199,-140.607 L -139.703,-140.884 L -140.168,-141.222
 L -140.588,-141.616 L -140.954,-142.059 L -141.262,-142.544 L -141.507,-143.065 L -141.685,-143.611 L -141.792,-144.176
 L -141.828,-144.75 L -141.828,-179.25 L -141.792,-179.824 L -141.685,-180.389 L -141.507,-180.935 L -141.262,-181.456
 L -140.954,-181.941 L -140.588,-182.384 L -140.168,-182.778 L -139.703,-183.116 L -139.199,-183.393 L -138.665,-183.604
 L -138.108,-183.747 L -137.537,-183.819 L 137.537,-183.819 L 138.108,-183.747 L 138.665,-183.604 L 139.199,-183.393
 L 139.703,-183.116 L 140.168,-182.778 L 140.588,-182.384 L 140.954,-181.941 L 141.262,-181.456 L 141.507,-180.935
 L 141.685,-180.389 L 141.792,-179.824 L 141.828,-179.25 L 141.828,-144.75 L 141.792,-144.176 L 141.685,-143.611
 L 141.507,-143.065 L 141.262,-142.544 L 140.954,-142.059 L 140.588,-141.616 L 140.168,-141.222 L 139.703,-140.884
 L 139.199,-140.607 L 138.665,-140.396 L 138.108,-140.253 L 137.537,-140.181 z
M 138.437,-85.5886 L 139.045,-85.7447 L 139.629,-85.9759 L 140.179,-86.2784 L 140.687,-86.6474 L 141.145,-87.0773
 L 141.545,-87.5611 L 141.882,-88.0912 L 142.149,-88.6594 L 142.343,-89.2566 L 142.461,-89.8733 L 142.5,-90.5
 L 142.5,-125.5 L 142.461,-126.127 L 142.343,-126.743 L 142.149,-127.341 L 141.882,-127.909 L 141.545,-128.439
 L 141.145,-128.923 L 140.687,-129.353 L 140.179,-129.722 L 139.629,-130.024 L 139.045,-130.255 L 138.437,-130.411
 L 137.814,-130.49 L -137.814,-130.49 L -138.437,-130.411 L -139.045,-130.255 L -139.629,-130.024 L -140.179,-129.722
 L -140.687,-129.353 L -141.145,-128.923 L -141.545,-128.439 L -141.882,-127.909 L -142.149,-127.341 L -142.343,-126.743
 L -142.461,-126.127 L -142.5,-125.5 L -142.5,-90.5 L -142.461,-89.8733 L -142.343,-89.2566 L -142.149,-88.6594
 L -141.882,-88.0912 L -141.545,-87.5611 L -141.145,-87.0773 L -140.687,-86.6474 L -140.179,-86.2784 L -139.629,-85.9759
 L -139.045,-85.7447 L -138.437,-85.5886 L -137.814,-85.5099 L 137.814,-85.5099 z
M -137.382,-88.6445 L -137.645,-88.6777 L -137.902,-88.7436 L -138.148,-88.8412 L -138.38,-88.9688 L -138.595,-89.1245
 L -138.788,-89.3059 L -138.957,-89.51 L -139.099,-89.7337 L -139.211,-89.9734 L -139.293,-90.2254 L -139.343,-90.4856
 L -139.36,-90.75 L -139.36,-125.25 L -139.343,-125.514 L -139.293,-125.775 L -139.211,-126.027 L -139.099,-126.266
 L -138.957,-126.49 L -138.788,-126.694 L -138.595,-126.875 L -138.38,-127.031 L -138.148,-127.159 L -137.902,-127.256
 L -137.645,-127.322 L -137.382,-127.355 L 137.382,-127.355 L 137.645,-127.322 L 137.902,-127.256 L 138.148,-127.159
 L 138.38,-127.031 L 138.595,-126.875 L 138.788,-126.694 L 138.957,-126.49 L 139.099,-126.266 L 139.211,-126.027
 L 139.293,-125.775 L 139.343,-125.514 L 139.36,-125.25 L 139.36,-90.75 L 139.343,-90.4856 L 139.293,-90.2254
 L 139.211,-89.9734 L 139.099,-89.7337 L 138.957,-89.51 L 138.788,-89.3059 L 138.595,-89.1245 L 138.38,-88.9688
 L 138.148,-88.8412 L 137.902,-88.7436 L 137.645,-88.6777 L 137.382,-88.6445 z
" stroke="black" fill="lightgray" stroke-width="0.5"/>
</svg>
