<?xml version="1.0" standalone="no"?>
<!DOCTYPE svg PUBLIC "-//W3C//DTD SVG 1.1//EN" "http://www.w3.org/Graphics/SVG/1.1/DTD/svg11.dtd">
<svg width="300mm" height="208mm" viewBox="-150 -347 300 208" xmlns="http://www.w3.org/2000/svg" version="1.1">
<title>OpenSCAD Model</title>
<path d="
M 145.937,-301.589 L 146.545,-301.745 L 147.129,-301.976 L 147.679,-302.278 L 148.187,-302.647 L 148.645,-303.077
 L 149.045,-303.561 L 149.382,-304.091 L 149.649,-304.659 L 149.843,-305.257 L 149.961,-305.873 L 150,-306.5
 L 150,-341.5 L 149.961,-342.127 L 149.843,-342.743 L 149.649,-343.341 L 149.382,-343.909 L 149.045,-344.439
 L 148.645,-344.923 L 148.187,-345.353 L 147.679,-345.722 L 147.129,-346.024 L 146.545,-346.255 L 145.937,-346.411
 L 145.314,-346.49 L -145.314,-346.49 L -145.937,-346.411 L -146.545,-346.255 L -147.129,-346.024 L -147.679,-345.722
 L -148.187,-345.353 L -148.645,-344.923 L -149.045,-344.439 L -149.382,-343.909 L -149.649,-343.341 L -149.843,-342.743
 L -149.961,-342.127 L -150,-341.5 L -150,-306.5 L -149.961,-305.873 L -149.843,-305.257 L -149.649,-304.659
 L -149.382,-304.091 L -149.045,-303.561 L -148.645,-303.077 L -148.187,-302.647 L -147.679,-302.278 L -147.129,-301.976
 L -146.545,-301.745 L -145.937,-301.589 L -145.314,-301.51 L 145.314,-301.51 z
M -145.048,-302.009 L -145.64,-302.084 L -146.218,-302.232 L -146.772,-302.452 L -147.295,-302.739 L -147.778,-303.09
 L -148.213,-303.498 L -148.593,-303.958 L -148.912,-304.462 L -149.166,-305.001 L -149.351,-305.569 L -149.463,-306.155
 L -149.5,-306.75 L -149.5,-341.25 L -149.463,-341.845 L -149.351,-342.431 L -149.166,-342.999 L -148.912,-343.538
 L -148.593,-344.042 L -148.213,-344.502 L -147.778,-344.91 L -147.295,-345.261 L -146.772,-345.548 L -146.218,-345.768
 L -145.64,-345.916 L -145.048,-345.991 L 145.048,-345.991 L 145.64,-345.916 L 146.218,-345.768 L 146.772,-345.548
 L 147.295,-345.261 L 147.778,-344.91 L 148.213,-344.502 L 148.593,-344.042 L 148.912,-343.538 L 149.166,-342.999
 L 149.351,-342.431 L 149.463,-341.845 L 149.5,-341.25 L 149.5,-306.75 L 149.463,-306.155 L 149.351,-305.569
 L 149.166,-305.001 L 148.912,-304.462 L 148.593,-303.958 L 148.213,-303.498 L 147.778,-303.09 L 147.295,-302.739
 L 146.772,-302.452 L 146.218,-302.232 L 145.64,-302.084 L 145.048,-302.009 z
M 145.937,-247.589 L 146.545,-247.745 L 147.129,-247.976 L 147.679,-248.278 L 148.187,-248.647 L 148.645,-249.077
 L 149.045,-249.561 L 149.382,-250.091 L 149.649,-250.659 L 149.843,-251.257 L 149.961,-251.873 L 150,-252.5
 L 150,-287.5 L 149.961,-288.127 L 149.843,-288.743 L 149.649,-289.341 L 149.382,-289.909 L 149.045,-290.439
 L 148.645,-290.923 L 148.187,-291.353 L 147.679,-291.722 L 147.129,-292.024 L 146.545,-292.255 L 145.937,-292.411
 L 145.314,-292.49 L -145.314,-292.49 L -145.937,-292.411 L -146.545,-292.255 L -147.129,-292.024 L -147.679,-291.722
 L -148.187,-291.353 L -148.645,-290.923 L -149.045,-290.439 L -149.382,-289.909 L -149.649,-289.341 L -149.843,-288.743
 L -149.961,-288.127 L -150,-287.5 L -150,-252.5 L -149.961,-251.873 L -149.843,-251.257 L -149.649,-250.659
 L -149.382,-250.091 L -149.045,-249.561 L -148.645,-249.077 L -148.187,-248.647 L -147.679,-248.278 L -147.129,-247.976
 L -146.545,-247.745 L -145.937,-247.589 L -145.314,-247.51 L 145.314,-247.51 z
M -145.048,-248.009 L -145.64,-248.084 L -146.218,-248.232 L -146.772,-248.452 L -147.295,-248.739 L -147.778,-249.09
 L -148.213,-249.498 L -148.593,-249.958 L -148.912,-250.462 L -149.166,-251.001 L -149.351,-251.569 L -149.463,-252.155
 L -149.5,-252.75 L -149.5,-287.25 L -149.463,-287.845 L -149.351,-288.431 L -149.166,-288.999 L -148.912,-289.538
 L -148.593,-290.042 L -148.213,-290.502 L -147.778,-290.91 L -147.295,-291.261 L -146.772,-291.548 L -146.218,-291.768
 L -145.64,-291.916 L -145.048,-291.991 L 145.048,-291.991 L 145.64,-291.916 L 146.218,-291.768 L 146.772,-291.548
 L 147.295,-291.261 L 147.778,-290.91 L 148.213,-290.502 L 148.593,-290.042 L 148.912,-289.538 L 149.166,-288.999
 L 149.351,-288.431 L 149.463,-287.845 L 149.5,-287.25 L 149.5,-252.75 L 149.463,-252.155 L 149.351,-251.569
 L 149.166,-251.001 L 148.912,-250.462 L 148.593,-249.958 L 148.213,-249.498 L 147.778,-249.09 L 147.295,-248.739
 L 146.772,-248.452 L 146.218,-248.232 L 145.64,-248.084 L 145.048,-248.009 z
M 145.937,-193.589 L 146.545,-193.745 L 147.129,-193.976 L 147.679,-194.278 L 148.187,-194.647 L 148.645,-195.077
 L 149.045,-195.561 L 149.382,-196.091 L 149.649,-196.659 L 149.843,-197.257 L 149.961,-197.873 L 150,-198.5
 L 150,-233.5 L 149.961,-234.127 L 149.843,-234.743 L 149.649,-235.341 L 149.382,-235.909 L 149.045,-236.439
 L 148.645,-236.923 L 148.187,-237.353 L 147.679,-237.722 L 147.129,-238.024 L 146.545,-238.255 L 145.937,-238.411
 L 145.314,-238.49 L -145.314,-238.49 L -145.937,-238.411 L -146.545,-238.255 L -147.129,-238.024 L -147.679,-237.722
 L -148.187,-237.353 L -148.645,-236.923 L -149.045,-236.439 L -149.382,-235.909 L -149.649,-235.341 L -149.843,-234.743
 L -149.961,-234.127 L -150,-233.5 L -150,-198.5 L -149.961,-197.873 L -149.843,-197.257 L -149.649,-196.659
 L -149.382,-196.091 L -149.045,-195.561 L -148.645,-195.077 L -148.187,-194.647 L -147.679,-194.278 L -147.129,-193.976
 L -146.545,-193.745 L -145.937,-193.589 L -145.314,-193.51 L 145.314,-193.51 z
M -144.993,-194.888 L -145.475,-194.949 L -145.946,-195.07 L -146.398,-195.249 L -146.823,-195.483 L -147.216,-195.769
 L -147.571,-196.101 L -147.88,-196.476 L -148.141,-196.886 L -148.348,-197.326 L -148.498,-197.788 L -148.589,-198.265
 L -148.619,-198.75 L -148.619,-233.25 L -148.589,-233.735 L -148.498,-234.212 L -148.348,-234.674 L -148.141,-235.114
 L -147.88,-235.524 L -147.571,-235.899 L -147.216,-236.231 L -146.823,-236.517 L -146.398,-236.751 L -145.946,-236.93
 L -145.475,-237.051 L -144.993,-237.112 L 144.993,-237.112 L 145.475,-237.051 L 145.946,-236.93 L 146.398,-236.751
 L 146.823,-236.517 L 147.216,-236.231 L 147.571,-235.899 L 147.88,-235.524 L 148.141,-235.114 L 148.348,-234.674
 L 148.498,-234.212 L 148.589,-233.735 L 148.619,-233.25 L 148.619,-198.75 L 148.589,-198.265 L 148.498,-197.788
 L 148.348,-197.326 L 148.141,-196.886 L 147.88,-196.476 L 147.571,-196.101 L 147.216,-195.769 L 146.823,-195.483
 L 146.398,-195.249 L 145.946,-195.07 L 145.475,-194.949 L 144.993,-194.888 z
M 145.937,-139.589 L 146.545,-139.745 L 147.129,-139.976 L 147.679,-140.278 L 148.187,-140.647 L 148.645,-141.077
 L 149.045,-141.561 L 149.382,-142.091 L 149.649,-142.659 L 149.843,-143.257 L 149.961,-143.873 L 150,-144.5
 L 150,-179.5 L 149.961,-180.127 L 149.843,-180.743 L 149.649,-181.341 L 149.382,-181.909 L 149.045,-182.439
 L 148.645,-182.923 L 148.187,-183.353 L 147.679,-183.722 L 147.129,-184.024 L 146.545,-184.255 L 145.937,-184.411
 L 145.314,-184.49 L -145.314,-184.49 L -145.937,-184.411 L -146.545,-184.255 L -147.129,-184.024 L -147.679,-183.722
 L -148.187,-183.353 L -148.645,-182.923 L -149.045,-182.439 L -149.382,-181.909 L -149.649,-181.341 L -149.843,-180.743
 L -149.961,-180.127 L -150,-179.5 L -150,-144.5 L -149.961,-143.873 L -149.843,-143.257 L -149.649,-142.659
 L -149.382,-142.091 L -149.045,-141.561 L -148.645,-141.077 L -148.187,-140.647 L -147.679,-140.278 L -147.129,-139.976
 L -146.545,-139.745 L -145.937,-139.589 L -145.314,-139.51 L 145.314,-139.51 z
M -142.613,-175.204 L -142.837,-175.232 L -143.056,-175.288 L -143.266,-175.371 L -143.464,-175.48 L -143.647,-175.613
 L -143.812,-175.768 L -143.956,-175.942 L -144.077,-176.133 L -144.174,-176.337 L -144.243,-176.552 L -144.286,-176.774
 L -144.3,-177 L -144.286,-177.226 L -144.243,-177.448 L -144.174,-177.663 L -144.077,-177.867 L -143.956,-178.058
 L -143.812,-178.232 L -143.647,-178.387 L -143.464,-178.52 L -143.266,-178.629 L -143.056,-178.712 L -142.837,-178.768
 L -142.613,-178.796 L -142.387,-178.796 L -142.163,-178.768 L -141.944,-178.712 L -141.734,-178.629 L -141.536,-178.52
 L -141.353,-178.387 L -141.188,-178.232 L -141.044,-178.058 L -140.923,-177.867 L -140.826,-177.663 L -140.757,-177.448
 L -140.714,-177.226 L -140.7,-177 L -140.714,-176.774 L -140.757,-176.552 L -140.826,-176.337 L -140.923,-176.133
 L -141.044,-175.942 L -141.188,-175.768 L -141.353,-175.613 L -141.536,-175.48 L -141.734,-175.371 L -141.944,-175.288
 L -142.163,-175.232 L -142.387,-175.204 z
M 142.387,-175.204 L 142.163,-175.232 L 141.944,-175.288 L 141.734,-175.371 L 141.536,-175.48 L 141.353,-175.613
 L 141.188,-175.768 L 141.044,-175.942 L 140.923,-176.133 L 140.826,-176.337 L 140.757,-176.552 L 140.714,-176.774
 L 140.7,-177 L 140.714,-177.226 L 140.757,-177.448 L 140.826,-177.663 L 140.923,-177.867 L 141.044,-178.058
 L 141.188,-178.232 L 141.353,-178.387 L 141.536,-178.52 L 141.734,-178.629 L 141.944,-178.712 L 142.163,-178.768
 L 142.387,-178.796 L 142.613,-178.796 L 142.837,-178.768 L 143.056,-178.712 L 143.266,-178.629 L 143.464,-178.52
 L 143.647,-178.387 L 143.812,-178.232 L 143.956,-178.058 L 144.077,-177.867 L 144.174,-177.663 L 144.243,-177.448
 L 144.286,-177.226 L 144.3,-177 L 144.286,-176.774 L 144.243,-176.552 L 144.174,-176.337 L 144.077,-176.133
 L 143.956,-175.942 L 143.812,-175.768 L 143.647,-175.613 L 143.464,-175.48 L 143.266,-175.371 L 143.056,-175.288
 L 142.837,-175.232 L 142.613,-175.204 z
M 142.387,-145.204 L 142.163,-145.232 L 141.944,-145.288 L 141.734,-145.371 L 141.536,-145.48 L 141.353,-145.613
 L 141.188,-145.768 L 141.044,-145.942 L 140.923,-146.133 L 140.826,-146.337 L 140.757,-146.552 L 140.714,-146.774
 L 140.7,-147 L 140.714,-147.226 L 140.757,-147.448 L 140.826,-147.663 L 140.923,-147.867 L 141.044,-148.058
 L 141.188,-148.232 L 141.353,-148.387 L 141.536,-148.52 L 141.734,-148.629 L 141.944,-148.712 L 142.163,-148.768
 L 142.387,-148.796 L 142.613,-148.796 L 142.837,-148.768 L 143.056,-148.712 L 143.266,-148.629 L 143.464,-148.52
 L 143.647,-148.387 L 143.812,-148.232 L 143.956,-148.058 L 144.077,-147.867 L 144.174,-147.663 L 144.243,-147.448
 L 144.286,-147.226 L 144.3,-147 L 144.286,-146.774 L 144.243,-146.552 L 144.174,-146.337 L 144.077,-146.133
 L 143.956,-145.942 L 143.812,-145.768 L 143.647,-145.613 L 143.464,-145.48 L 143.266,-145.371 L 143.056,-145.288
 L 142.837,-145.232 L 142.613,-145.204 z
M -142.613,-145.204 L -142.837,-145.232 L -143.056,-145.288 L -143.266,-145.371 L -143.464,-145.48 L -143.647,-145.613
 L -143.812,-145.768 L -143.956,-145.942 L -144.077,-146.133 L -144.174,-146.337 L -144.243,-146.552 L -144.286,-146.774
 L -144.3,-147 L -144.286,-147.226 L -144.243,-147.448 L -144.174,-147.663 L -144.077,-147.867 L -143.956,-148.058
 L -143.812,-148.232 L -143.647,-148.387 L -143.464,-148.52 L -143.266,-148.629 L -143.056,-148.712 L -142.837,-148.768
 L -142.613,-148.796 L -142.387,-148.796 L -142.163,-148.768 L -141.944,-148.712 L -141.734,-148.629 L -141.536,-148.52
 L -141.353,-148.387 L -141.188,-148.232 L -141.044,-148.058 L -140.923,-147.867 L -140.826,-147.663 L -140.757,-147.448
 L -140.714,-147.226 L -140.7,-147 L -140.714,-146.774 L -140.757,-146.552 L -140.826,-146.337 L -140.923,-146.133
 L -141.044,-145.942 L -141.188,-145.768 L -141.353,-145.613 L -141.536,-145.48 L -141.734,-145.371 L -141.944,-145.288
 L -142.163,-145.232 L -142.387,-145.204 z
" stroke="black" fill="lightgray" stroke-width="0.5"/>
</svg>
