<?xml version="1.0" standalone="no"?>
<!DOCTYPE svg PUBLIC "-//W3C//DTD SVG 1.1//EN" "http://www.w3.org/Graphics/SVG/1.1/DTD/svg11.dtd">
<svg width="286mm" height="118mm" viewBox="-143 -232 286 118" xmlns="http://www.w3.org/2000/svg" version="1.1">
<title>OpenSCAD Model</title>
<path d="
M 138.437,-209.339 L 139.045,-209.495 L 139.629,-209.726 L 140.179,-210.028 L 140.687,-210.397 L 141.145,-210.827
 L 141.545,-211.311 L 141.882,-211.841 L 142.149,-212.409 L 142.343,-213.007 L 142.461,-213.623 L 142.5,-214.25
 L 142.5,-226.75 L 142.461,-227.377 L 142.343,-227.993 L 142.149,-228.591 L 141.882,-229.159 L 141.545,-229.689
 L 141.145,-230.173 L 140.687,-230.603 L 140.179,-230.972 L 139.629,-231.274 L 139.045,-231.505 L 138.437,-231.661
 L 137.814,-231.74 L -137.814,-231.74 L -138.437,-231.661 L -139.045,-231.505 L -139.629,-231.274 L -140.179,-230.972
 L -140.687,-230.603 L -141.145,-230.173 L -141.545,-229.689 L -141.882,-229.159 L -142.149,-228.591 L -142.343,-227.993
 L -142.461,-227.377 L -142.5,-226.75 L -142.5,-214.25 L -142.461,-213.623 L -142.343,-213.007 L -142.149,-212.409
 L -141.882,-211.841 L -141.545,-211.311 L -141.145,-210.827 L -140.687,-210.397 L -140.179,-210.028 L -139.629,-209.726
 L -139.045,-209.495 L -138.437,-209.339 L -137.814,-209.26 L 137.814,-209.26 z
M -137.548,-209.759 L -138.14,-209.834 L -138.718,-209.982 L -139.272,-210.202 L -139.795,-210.489 L -140.278,-210.84
 L -140.713,-211.248 L -141.093,-211.708 L -141.412,-212.212 L -141.666,-212.751 L -141.851,-213.319 L -141.963,-213.905
 L -142,-214.5 L -142,-226.5 L -141.963,-227.095 L -141.851,-227.681 L -141.666,-228.249 L -141.412,-228.788
 L -141.093,-229.292 L -140.713,-229.752 L -140.278,-230.16 L -139.795,-230.511 L -139.272,-230.798 L -138.718,-231.018
 L -138.14,-231.166 L -137.548,-231.241 L 137.548,-231.241 L 138.14,-231.166 L 138.718,-231.018 L 139.272,-230.798
 L 139.795,-230.511 L 140.278,-230.16 L 140.713,-229.752 L 141.093,-229.292 L 141.412,-228.788 L 141.666,-228.249
 L 141.851,-227.681 L 141.963,-227.095 L 142,-226.5 L 142,-214.5 L 141.963,-213.905 L 141.851,-213.319
 L 141.666,-212.751 L 141.412,-212.212 L 141.093,-211.708 L 140.713,-211.248 L 140.278,-210.84 L 139.795,-210.489
 L 139.272,-210.202 L 138.718,-209.982 L 138.14,-209.834 L 137.548,-209.759 z
M 138.437,-177.839 L 139.045,-177.995 L 139.629,-178.226 L 140.179,-178.528 L 140.687,-178.897 L 141.145,-179.327
 L 141.545,-179.811 L 141.882,-180.341 L 142.149,-180.909 L 142.343,-181.507 L 142.461,-182.123 L 142.5,-182.75
 L 142.5,-195.25 L 142.461,-195.877 L 142.343,-196.493 L 142.149,-197.091 L 141.882,-197.659 L 141.545,-198.189
 L 141.145,-198.673 L 140.687,-199.103 L 140.179,-199.472 L 139.629,-199.774 L 139.045,-200.005 L 138.437,-200.161
 L 137.814,-200.24 L -137.814,-200.24 L -138.437,-200.161 L -139.045,-200.005 L -139.629,-199.774 L -140.179,-199.472
 L -140.687,-199.103 L -141.145,-198.673 L -141.545,-198.189 L -141.882,-197.659 L -142.149,-197.091 L -142.343,-196.493
 L -142.461,-195.877 L -142.5,-195.25 L -142.5,-182.75 L -142.461,-182.123 L -142.343,-181.507 L -142.149,-180.909
 L -141.882,-180.341 L -141.545,-179.811 L -141.145,-179.327 L -140.687,-178.897 L -140.179,-178.528 L -139.629,-178.226
 L -139.045,-177.995 L -138.437,-177.839 L -137.814,-177.76 L 137.814,-177.76 z
M -137.548,-178.259 L -138.14,-178.334 L -138.718,-178.482 L -139.272,-178.702 L -139.795,-178.989 L -140.278,-179.34
 L -140.713,-179.748 L -141.093,-180.208 L -141.412,-180.712 L -141.666,-181.251 L -141.851,-181.819 L -141.963,-182.405
 L -142,-183 L -142,-195 L -141.963,-195.595 L -141.851,-196.181 L -141.666,-196.749 L -141.412,-197.288
 L -141.093,-197.792 L -140.713,-198.252 L -140.278,-198.66 L -139.795,-199.011 L -139.272,-199.298 L -138.718,-199.518
 L -138.14,-199.666 L -137.548,-199.741 L 137.548,-199.741 L 138.14,-199.666 L 138.718,-199.518 L 139.272,-199.298
 L 139.795,-199.011 L 140.278,-198.66 L 140.713,-198.252 L 141.093,-197.792 L 141.412,-197.288 L 141.666,-196.749
 L 141.851,-196.181 L 141.963,-195.595 L 142,-195 L 142,-183 L 141.963,-182.405 L 141.851,-181.819
 L 141.666,-181.251 L 141.412,-180.712 L 141.093,-180.208 L 140.713,-179.748 L 140.278,-179.34 L 139.795,-178.989
 L 139.272,-178.702 L 138.718,-178.482 L 138.14,-178.334 L 137.548,-178.259 z
M 138.437,-146.339 L 139.045,-146.495 L 139.629,-146.726 L 140.179,-147.028 L 140.687,-147.397 L 141.145,-147.827
 L 141.545,-148.311 L 141.882,-148.841 L 142.149,-149.409 L 142.343,-150.007 L 142.461,-150.623 L 142.5,-151.25
 L 142.5,-163.75 L 142.461,-164.377 L 142.343,-164.993 L 142.149,-165.591 L 141.882,-166.159 L 141.545,-166.689
 L 141.145,-167.173 L 140.687,-167.603 L 140.179,-167.972 L 139.629,-168.274 L 139.045,-168.505 L 138.437,-168.661
 L 137.814,-168.74 L -137.814,-168.74 L -138.437,-168.661 L -139.045,-168.505 L -139.629,-168.274 L -140.179,-167.972
 L -140.687,-167.603 L -141.145,-167.173 L -141.545,-166.689 L -141.882,-166.159 L -142.149,-165.591 L -142.343,-164.993
 L -142.461,-164.377 L -142.5,-163.75 L -142.5,-151.25 L -142.461,-150.623 L -142.343,-150.007 L -142.149,-149.409
 L -141.882,-148.841 L -141.545,-148.311 L -141.145,-147.827 L -140.687,-147.397 L -140.179,-147.028 L -139.629,-146.726
 L -139.045,-146.495 L -138.437,-146.339 L -137.814,-146.26 L 137.814,-146.26 z
M -137.537,-146.931 L -138.108,-147.003 L -138.665,-147.146 L -139.199,-147.357 L -139.703,-147.634 L -140.168,-147.972
 L -140.588,-148.366 L -140.954,-148.809 L -141.262,-149.294 L -141.507,-149.815 L -141.685,-150.361 L -141.792,-150.926
 L -141.828,-151.5 L -141.828,-163.5 L -141.792,-164.074 L -141.685,-164.639 L -141.507,-165.185 L -141.262,-165.706
 L -140.954,-166.191 L -140.588,-166.634 L -140.168,-167.028 L -139.703,-167.366 L -139.199,-167.643 L -138.665,-167.854
 L -138.108,-167.997 L -137.537,-168.069 L 137.537,-168.069 L 138.108,-167.997 L 138.665,-167.854 L 139.199,-167.643
 L 139.703,-167.366 L 140.168,-167.028 L 140.588,-166.634 L 140.954,-166.191 L 141.262,-165.706 L 141.507,-165.185
 L 141.685,-164.639 L 141.792,-164.074 L 141.828,-163.5 L 141.828,-151.5 L 141.792,-150.926 L 141.685,-150.361
 L 141.507,-149.815 L 141.262,-149.294 L 140.954,-148.809 L 140.588,-148.366 L 140.168,-147.972 L 139.703,-147.634
 L 139.199,-147.357 L 138.665,-147.146 L 138.108,-147.003 L 137.537,-146.931 z
M 138.437,-114.839 L 139.045,-114.995 L 139.629,-115.226 L 140.179,-115.528 L 140.687,-115.897 L 141.145,-116.327
 L 141.545,-116.811 L 141.882,-117.341 L 142.149,-117.909 L 142.343,-118.507 L 142.461,-119.123 L 142.5,-119.75
 L 142.5,-132.25 L 142.461,-132.877 L 142.343,-133.493 L 142.149,-134.091 L 141.882,-134.659 L 141.545,-135.189
 L 141.145,-135.673 L 140.687,-136.103 L 140.179,-136.472 L 139.629,-136.774 L 139.045,-137.005 L 138.437,-137.161
 L 137.814,-137.24 L -137.814,-137.24 L -138.437,-137.161 L -139.045,-137.005 L -139.629,-136.774 L -140.179,-136.472
 L -140.687,-136.103 L -141.145,-135.673 L -141.545,-135.189 L -141.882,-134.659 L -142.149,-134.091 L -142.343,-133.493
 L -142.461,-132.877 L -142.5,-132.25 L -142.5,-119.75 L -142.461,-119.123 L -142.343,-118.507 L -142.149,-117.909
 L -141.882,-117.341 L -141.545,-116.811 L -141.145,-116.327 L -140.687,-115.897 L -140.179,-115.528 L -139.629,-115.226
 L -139.045,-114.995 L -138.437,-114.839 L -137.814,-114.76 L 137.814,-114.76 z
M -137.382,-117.895 L -137.645,-117.928 L -137.902,-117.994 L -138.148,-118.091 L -138.38,-118.219 L -138.595,-118.375
 L -138.788,-118.556 L -138.957,-118.76 L -139.099,-118.984 L -139.211,-119.223 L -139.293,-119.475 L -139.343,-119.736
 L -139.36,-120 L -139.36,-132 L -139.343,-132.264 L -139.293,-132.525 L -139.211,-132.777 L -139.099,-133.016
 L -138.957,-133.24 L -138.788,-133.444 L -138.595,-133.625 L -138.38,-133.781 L -138.148,-133.909 L -137.902,-134.006
 L -137.645,-134.072 L -137.382,-134.105 L 137.382,-134.105 L 137.645,-134.072 L 137.902,-134.006 L 138.148,-133.909
 L 138.38,-133.781 L 138.595,-133.625 L 138.788,-133.444 L 138.957,-133.24 L 139.099,-133.016 L 139.211,-132.777
 L 139.293,-132.525 L 139.343,-132.264 L 139.36,-132 L 139.36,-120 L 139.343,-119.736 L 139.293,-119.475
 L 139.211,-119.223 L 139.099,-118.984 L 138.957,-118.76 L 138.788,-118.556 L 138.595,-118.375 L 138.38,-118.219
 L 138.148,-118.091 L 137.902,-117.994 L 137.645,-117.928 L 137.382,-117.895 z
" stroke="black" fill="lightgray" stroke-width="0.5"/>
</svg>
