<?xml version="1.0" standalone="no"?>
<!DOCTYPE svg PUBLIC "-//W3C//DTD SVG 1.1//EN" "http://www.w3.org/Graphics/SVG/1.1/DTD/svg11.dtd">
<svg width="286mm" height="558mm" viewBox="-143 -1035 286 558" xmlns="http://www.w3.org/2000/svg" version="1.1">
<title>OpenSCAD Model</title>
<path d="
M 138.437,-855.089 L 139.045,-855.245 L 139.629,-855.476 L 140.179,-855.778 L 140.687,-856.147 L 141.145,-856.577
 L 141.545,-857.061 L 141.882,-857.591 L 142.149,-858.159 L 142.343,-858.757 L 142.461,-859.373 L 142.5,-860
 L 142.5,-1030 L 142.461,-1030.63 L 142.343,-1031.24 L 142.149,-1031.84 L 141.882,-1032.41 L 141.545,-1032.94
 L 141.145,-1033.42 L 140.687,-1033.85 L 140.179,-1034.22 L 139.629,-1034.52 L 139.045,-1034.76 L 138.437,-1034.91
 L 137.814,-1034.99 L -137.814,-1034.99 L -138.437,-1034.91 L -139.045,-1034.76 L -139.629,-1034.52 L -140.179,-1034.22
 L -140.687,-1033.85 L -141.145,-1033.42 L -141.545,-1032.94 L -141.882,-1032.41 L -142.149,-1031.84 L -142.343,-1031.24
 L -142.461,-1030.63 L -142.5,-1030 L -142.5,-860 L -142.461,-859.373 L -142.343,-858.757 L -142.149,-858.159
 L -141.882,-857.591 L -141.545,-857.061 L -141.145,-856.577 L -140.687,-856.147 L -140.179,-855.778 L -139.629,-855.476
 L -139.045,-855.245 L -138.437,-855.089 L -137.814,-855.01 L 137.814,-855.01 z
M -137.548,-855.509 L -138.14,-855.584 L -138.718,-855.732 L -139.272,-855.952 L -139.795,-856.239 L -140.278,-856.59
 L -140.713,-856.998 L -141.093,-857.458 L -141.412,-857.962 L -141.666,-858.501 L -141.851,-859.069 L -141.963,-859.655
 L -142,-860.25 L -142,-1029.75 L -141.963,-1030.35 L -141.851,-1030.93 L -141.666,-1031.5 L -141.412,-1032.04
 L -141.093,-1032.54 L -140.713,-1033 L -140.278,-1033.41 L -139.795,-1033.76 L -139.272,-1034.05 L -138.718,-1034.27
 L -138.14,-1034.42 L -137.548,-1034.49 L 137.548,-1034.49 L 138.14,-1034.42 L 138.718,-1034.27 L 139.272,-1034.05
 L 139.795,-1033.76 L 140.278,-1033.41 L 140.713,-1033 L 141.093,-1032.54 L 141.412,-1032.04 L 141.666,-1031.5
 L 141.851,-1030.93 L 141.963,-1030.35 L 142,-1029.75 L 142,-860.25 L 141.963,-859.655 L 141.851,-859.069
 L 141.666,-858.501 L 141.412,-857.962 L 141.093,-857.458 L 140.713,-856.998 L 140.278,-856.59 L 139.795,-856.239
 L 139.272,-855.952 L 138.718,-855.732 L 138.14,-855.584 L 137.548,-855.509 z
M 138.437,-666.089 L 139.045,-666.245 L 139.629,-666.476 L 140.179,-666.778 L 140.687,-667.147 L 141.145,-667.577
 L 141.545,-668.061 L 141.882,-668.591 L 142.149,-669.159 L 142.343,-669.757 L 142.461,-670.373 L 142.5,-671
 L 142.5,-841 L 142.461,-841.627 L 142.343,-842.243 L 142.149,-842.841 L 141.882,-843.409 L 141.545,-843.939
 L 141.145,-844.423 L 140.687,-844.853 L 140.179,-845.222 L 139.629,-845.524 L 139.045,-845.755 L 138.437,-845.911
 L 137.814,-845.99 L -137.814,-845.99 L -138.437,-845.911 L -139.045,-845.755 L -139.629,-845.524 L -140.179,-845.222
 L -140.687,-844.853 L -141.145,-844.423 L -141.545,-843.939 L -141.882,-843.409 L -142.149,-842.841 L -142.343,-842.243
 L -142.461,-841.627 L -142.5,-841 L -142.5,-671 L -142.461,-670.373 L -142.343,-669.757 L -142.149,-669.159
 L -141.882,-668.591 L -141.545,-668.061 L -141.145,-667.577 L -140.687,-667.147 L -140.179,-666.778 L -139.629,-666.476
 L -139.045,-666.245 L -138.437,-666.089 L -137.814,-666.01 L 137.814,-666.01 z
M -137.537,-666.681 L -138.108,-666.753 L -138.665,-666.896 L -139.199,-667.107 L -139.703,-667.384 L -140.168,-667.722
 L -140.588,-668.116 L -140.954,-668.559 L -141.262,-669.044 L -141.507,-669.565 L -141.685,-670.111 L -141.792,-670.676
 L -141.828,-671.25 L -141.828,-840.75 L -141.792,-841.324 L -141.685,-841.889 L -141.507,-842.435 L -141.262,-842.956
 L -140.954,-843.441 L -140.588,-843.884 L -140.168,-844.278 L -139.703,-844.616 L -139.199,-844.893 L -138.665,-845.104
 L -138.108,-845.247 L -137.537,-845.319 L 137.537,-845.319 L 138.108,-845.247 L 138.665,-845.104 L 139.199,-844.893
 L 139.703,-844.616 L 140.168,-844.278 L 140.588,-843.884 L 140.954,-843.441 L 141.262,-842.956 L 141.507,-842.435
 L 141.685,-841.889 L 141.792,-841.324 L 141.828,-840.75 L 141.828,-671.25 L 141.792,-670.676 L 141.685,-670.111
 L 141.507,-669.565 L 141.262,-669.044 L 140.954,-668.559 L 140.588,-668.116 L 140.168,-667.722 L 139.703,-667.384
 L 139.199,-667.107 L 138.665,-666.896 L 138.108,-666.753 L 137.537,-666.681 z
M 138.437,-477.089 L 139.045,-477.245 L 139.629,-477.476 L 140.179,-477.778 L 140.687,-478.147 L 141.145,-478.577
 L 141.545,-479.061 L 141.882,-479.591 L 142.149,-480.159 L 142.343,-480.757 L 142.461,-481.373 L 142.5,-482
 L 142.5,-652 L 142.461,-652.627 L 142.343,-653.243 L 142.149,-653.841 L 141.882,-654.409 L 141.545,-654.939
 L 141.145,-655.423 L 140.687,-655.853 L 140.179,-656.222 L 139.629,-656.524 L 139.045,-656.755 L 138.437,-656.911
 L 137.814,-656.99 L -137.814,-656.99 L -138.437,-656.911 L -139.045,-656.755 L -139.629,-656.524 L -140.179,-656.222
 L -140.687,-655.853 L -141.145,-655.423 L -141.545,-654.939 L -141.882,-654.409 L -142.149,-653.841 L -142.343,-653.243
 L -142.461,-652.627 L -142.5,-652 L -142.5,-482 L -142.461,-481.373 L -142.343,-480.757 L -142.149,-480.159
 L -141.882,-479.591 L -141.545,-479.061 L -141.145,-478.577 L -140.687,-478.147 L -140.179,-477.778 L -139.629,-477.476
 L -139.045,-477.245 L -138.437,-477.089 L -137.814,-477.01 L 137.814,-477.01 z
M -137.382,-480.145 L -137.645,-480.178 L -137.902,-480.244 L -138.148,-480.341 L -138.38,-480.469 L -138.595,-480.624
 L -138.788,-480.806 L -138.957,-481.01 L -139.099,-481.234 L -139.211,-481.473 L -139.293,-481.725 L -139.343,-481.986
 L -139.36,-482.25 L -139.36,-651.75 L -139.343,-652.014 L -139.293,-652.275 L -139.211,-652.527 L -139.099,-652.766
 L -138.957,-652.99 L -138.788,-653.194 L -138.595,-653.376 L -138.38,-653.531 L -138.148,-653.659 L -137.902,-653.756
 L -137.645,-653.822 L -137.382,-653.855 L 137.382,-653.855 L 137.645,-653.822 L 137.902,-653.756 L 138.148,-653.659
 L 138.38,-653.531 L 138.595,-653.376 L 138.788,-653.194 L 138.957,-652.99 L 139.099,-652.766 L 139.211,-652.527
 L 139.293,-652.275 L 139.343,-652.014 L 139.36,-651.75 L 139.36,-482.25 L 139.343,-481.986 L 139.293,-481.725
 L 139.211,-481.473 L 139.099,-481.234 L 138.957,-481.01 L 138.788,-480.806 L 138.595,-480.624 L 138.38,-480.469
 L 138.148,-480.341 L 137.902,-480.244 L 137.645,-480.178 L 137.382,-480.145 z
" stroke="black" fill="lightgray" stroke-width="0.5"/>
</svg>
