<?xml version="1.0" standalone="no"?>
<!DOCTYPE svg PUBLIC "-//W3C//DTD SVG 1.1//EN" "http://www.w3.org/Graphics/SVG/1.1/DTD/svg11.dtd">
<svg width="286mm" height="186mm" viewBox="-143 -366 286 186" xmlns="http://www.w3.org/2000/svg" version="1.1">
<title>OpenSCAD Model</title>
<path d="
M 138.437,-336.089 L 139.045,-336.245 L 139.629,-336.476 L 140.179,-336.778 L 140.687,-337.147 L 141.145,-337.577
 L 141.545,-338.061 L 141.882,-338.591 L 142.149,-339.159 L 142.343,-339.757 L 142.461,-340.373 L 142.5,-341
 L 142.5,-361 L 142.461,-361.627 L 142.343,-362.243 L 142.149,-362.841 L 141.882,-363.409 L 141.545,-363.939
 L 141.145,-364.423 L 140.687,-364.853 L 140.179,-365.222 L 139.629,-365.524 L 139.045,-365.755 L 138.437,-365.911
 L 137.814,-365.99 L -137.814,-365.99 L -138.437,-365.911 L -139.045,-365.755 L -139.629,-365.524 L -140.179,-365.222
 L -140.687,-364.853 L -141.145,-364.423 L -141.545,-363.939 L -141.882,-363.409 L -142.149,-362.841 L -142.343,-362.243
 L -142.461,-361.627 L -142.5,-361 L -142.5,-341 L -142.461,-340.373 L -142.343,-339.757 L -142.149,-339.159
 L -141.882,-338.591 L -141.545,-338.061 L -141.145,-337.577 L -140.687,-337.147 L -140.179,-336.778 L -139.629,-336.476
 L -139.045,-336.245 L -138.437,-336.089 L -137.814,-336.01 L 137.814,-336.01 z
M -137.548,-336.509 L -138.14,-336.584 L -138.718,-336.732 L -139.272,-336.952 L -139.795,-337.239 L -140.278,-337.59
 L -140.713,-337.998 L -141.093,-338.458 L -141.412,-338.962 L -141.666,-339.501 L -141.851,-340.069 L -141.963,-340.655
 L -142,-341.25 L -142,-360.75 L -141.963,-361.345 L -141.851,-361.931 L -141.666,-362.499 L -141.412,-363.038
 L -141.093,-363.542 L -140.713,-364.002 L -140.278,-364.41 L -139.795,-364.761 L -139.272,-365.048 L -138.718,-365.268
 L -138.14,-365.416 L -137.548,-365.491 L 137.548,-365.491 L 138.14,-365.416 L 138.718,-365.268 L 139.272,-365.048
 L 139.795,-364.761 L 140.278,-364.41 L 140.713,-364.002 L 141.093,-363.542 L 141.412,-363.038 L 141.666,-362.499
 L 141.851,-361.931 L 141.963,-361.345 L 142,-360.75 L 142,-341.25 L 141.963,-340.655 L 141.851,-340.069
 L 141.666,-339.501 L 141.412,-338.962 L 141.093,-338.458 L 140.713,-337.998 L 140.278,-337.59 L 139.795,-337.239
 L 139.272,-336.952 L 138.718,-336.732 L 138.14,-336.584 L 137.548,-336.509 z
M 138.437,-297.089 L 139.045,-297.245 L 139.629,-297.476 L 140.179,-297.778 L 140.687,-298.147 L 141.145,-298.577
 L 141.545,-299.061 L 141.882,-299.591 L 142.149,-300.159 L 142.343,-300.757 L 142.461,-301.373 L 142.5,-302
 L 142.5,-322 L 142.461,-322.627 L 142.343,-323.243 L 142.149,-323.841 L 141.882,-324.409 L 141.545,-324.939
 L 141.145,-325.423 L 140.687,-325.853 L 140.179,-326.222 L 139.629,-326.524 L 139.045,-326.755 L 138.437,-326.911
 L 137.814,-326.99 L -137.814,-326.99 L -138.437,-326.911 L -139.045,-326.755 L -139.629,-326.524 L -140.179,-326.222
 L -140.687,-325.853 L -141.145,-325.423 L -141.545,-324.939 L -141.882,-324.409 L -142.149,-323.841 L -142.343,-323.243
 L -142.461,-322.627 L -142.5,-322 L -142.5,-302 L -142.461,-301.373 L -142.343,-300.757 L -142.149,-300.159
 L -141.882,-299.591 L -141.545,-299.061 L -141.145,-298.577 L -140.687,-298.147 L -140.179,-297.778 L -139.629,-297.476
 L -139.045,-297.245 L -138.437,-297.089 L -137.814,-297.01 L 137.814,-297.01 z
M -137.548,-297.509 L -138.14,-297.584 L -138.718,-297.732 L -139.272,-297.952 L -139.795,-298.239 L -140.278,-298.59
 L -140.713,-298.998 L -141.093,-299.458 L -141.412,-299.962 L -141.666,-300.501 L -141.851,-301.069 L -141.963,-301.655
 L -142,-302.25 L -142,-321.75 L -141.963,-322.345 L -141.851,-322.931 L -141.666,-323.499 L -141.412,-324.038
 L -141.093,-324.542 L -140.713,-325.002 L -140.278,-325.41 L -139.795,-325.761 L -139.272,-326.048 L -138.718,-326.268
 L -138.14,-326.416 L -137.548,-326.491 L 137.548,-326.491 L 138.14,-326.416 L 138.718,-326.268 L 139.272,-326.048
 L 139.795,-325.761 L 140.278,-325.41 L 140.713,-325.002 L 141.093,-324.542 L 141.412,-324.038 L 141.666,-323.499
 L 141.851,-322.931 L 141.963,-322.345 L 142,-321.75 L 142,-302.25 L 141.963,-301.655 L 141.851,-301.069
 L 141.666,-300.501 L 141.412,-299.962 L 141.093,-299.458 L 140.713,-298.998 L 140.278,-298.59 L 139.795,-298.239
 L 139.272,-297.952 L 138.718,-297.732 L 138.14,-297.584 L 137.548,-297.509 z
M 138.437,-258.089 L 139.045,-258.245 L 139.629,-258.476 L 140.179,-258.778 L 140.687,-259.147 L 141.145,-259.577
 L 141.545,-260.061 L 141.882,-260.591 L 142.149,-261.159 L 142.343,-261.757 L 142.461,-262.373 L 142.5,-263
 L 142.5,-283 L 142.461,-283.627 L 142.343,-284.243 L 142.149,-284.841 L 141.882,-285.409 L 141.545,-285.939
 L 141.145,-286.423 L 140.687,-286.853 L 140.179,-287.222 L 139.629,-287.524 L 139.045,-287.755 L 138.437,-287.911
 L 137.814,-287.99 L -137.814,-287.99 L -138.437,-287.911 L -139.045,-287.755 L -139.629,-287.524 L -140.179,-287.222
 L -140.687,-286.853 L -141.145,-286.423 L -141.545,-285.939 L -141.882,-285.409 L -142.149,-284.841 L -142.343,-284.243
 L -142.461,-283.627 L -142.5,-283 L -142.5,-263 L -142.461,-262.373 L -142.343,-261.757 L -142.149,-261.159
 L -141.882,-260.591 L -141.545,-260.061 L -141.145,-259.577 L -140.687,-259.147 L -140.179,-258.778 L -139.629,-258.476
 L -139.045,-258.245 L -138.437,-258.089 L -137.814,-258.01 L 137.814,-258.01 z
M -137.548,-258.509 L -138.14,-258.584 L -138.718,-258.732 L -139.272,-258.952 L -139.795,-259.239 L -140.278,-259.59
 L -140.713,-259.998 L -141.093,-260.458 L -141.412,-260.962 L -141.666,-261.501 L -141.851,-262.069 L -141.963,-262.655
 L -142,-263.25 L -142,-282.75 L -141.963,-283.345 L -141.851,-283.931 L -141.666,-284.499 L -141.412,-285.038
 L -141.093,-285.542 L -140.713,-286.002 L -140.278,-286.41 L -139.795,-286.761 L -139.272,-287.048 L -138.718,-287.268
 L -138.14,-287.416 L -137.548,-287.491 L 137.548,-287.491 L 138.14,-287.416 L 138.718,-287.268 L 139.272,-287.048
 L 139.795,-286.761 L 140.278,-286.41 L 140.713,-286.002 L 141.093,-285.542 L 141.412,-285.038 L 141.666,-284.499
 L 141.851,-283.931 L 141.963,-283.345 L 142,-282.75 L 142,-263.25 L 141.963,-262.655 L 141.851,-262.069
 L 141.666,-261.501 L 141.412,-260.962 L 141.093,-260.458 L 140.713,-259.998 L 140.278,-259.59 L 139.795,-259.239
 L 139.272,-258.952 L 138.718,-258.732 L 138.14,-258.584 L 137.548,-258.509 z
M 138.437,-219.089 L 139.045,-219.245 L 139.629,-219.476 L 140.179,-219.778 L 140.687,-220.147 L 141.145,-220.577
 L 141.545,-221.061 L 141.882,-221.591 L 142.149,-222.159 L 142.343,-222.757 L 142.461,-223.373 L 142.5,-224
 L 142.5,-244 L 142.461,-244.627 L 142.343,-245.243 L 142.149,-245.841 L 141.882,-246.409 L 141.545,-246.939
 L 141.145,-247.423 L 140.687,-247.853 L 140.179,-248.222 L 139.629,-248.524 L 139.045,-248.755 L 138.437,-248.911
 L 137.814,-248.99 L -137.814,-248.99 L -138.437,-248.911 L -139.045,-248.755 L -139.629,-248.524 L -140.179,-248.222
 L -140.687,-247.853 L -141.145,-247.423 L -141.545,-246.939 L -141.882,-246.409 L -142.149,-245.841 L -142.343,-245.243
 L -142.461,-244.627 L -142.5,-244 L -142.5,-224 L -142.461,-223.373 L -142.343,-222.757 L -142.149,-222.159
 L -141.882,-221.591 L -141.545,-221.061 L -141.145,-220.577 L -140.687,-220.147 L -140.179,-219.778 L -139.629,-219.476
 L -139.045,-219.245 L -138.437,-219.089 L -137.814,-219.01 L 137.814,-219.01 z
M -137.537,-219.681 L -138.108,-219.753 L -138.665,-219.896 L -139.199,-220.107 L -139.703,-220.384 L -140.168,-220.722
 L -140.588,-221.116 L -140.954,-221.559 L -141.262,-222.044 L -141.507,-222.565 L -141.685,-223.111 L -141.792,-223.676
 L -141.828,-224.25 L -141.828,-243.75 L -141.792,-244.324 L -141.685,-244.889 L -141.507,-245.435 L -141.262,-245.956
 L -140.954,-246.441 L -140.588,-246.884 L -140.168,-247.278 L -139.703,-247.616 L -139.199,-247.893 L -138.665,-248.104
 L -138.108,-248.247 L -137.537,-248.319 L 137.537,-248.319 L 138.108,-248.247 L 138.665,-248.104 L 139.199,-247.893
 L 139.703,-247.616 L 140.168,-247.278 L 140.588,-246.884 L 140.954,-246.441 L 141.262,-245.956 L 141.507,-245.435
 L 141.685,-244.889 L 141.792,-244.324 L 141.828,-243.75 L 141.828,-224.25 L 141.792,-223.676 L 141.685,-223.111
 L 141.507,-222.565 L 141.262,-222.044 L 140.954,-221.559 L 140.588,-221.116 L 140.168,-220.722 L 139.703,-220.384
 L 139.199,-220.107 L 138.665,-219.896 L 138.108,-219.753 L 137.537,-219.681 z
M 138.437,-180.089 L 139.045,-180.245 L 139.629,-180.476 L 140.179,-180.778 L 140.687,-181.147 L 141.145,-181.577
 L 141.545,-182.061 L 141.882,-182.591 L 142.149,-183.159 L 142.343,-183.757 L 142.461,-184.373 L 142.5,-185
 L 142.5,-205 L 142.461,-205.627 L 142.343,-206.243 L 142.149,-206.841 L 141.882,-207.409 L 141.545,-207.939
 L 141.145,-208.423 L 140.687,-208.853 L 140.179,-209.222 L 139.629,-209.524 L 139.045,-209.755 L 138.437,-209.911
 L 137.814,-209.99 L -137.814,-209.99 L -138.437,-209.911 L -139.045,-209.755 L -139.629,-209.524 L -140.179,-209.222
 L -140.687,-208.853 L -141.145,-208.423 L -141.545,-207.939 L -141.882,-207.409 L -142.149,-206.841 L -142.343,-206.243
 L -142.461,-205.627 L -142.5,-205 L -142.5,-185 L -142.461,-184.373 L -142.343,-183.757 L -142.149,-183.159
 L -141.882,-182.591 L -141.545,-182.061 L -141.145,-181.577 L -140.687,-181.147 L -140.179,-180.778 L -139.629,-180.476
 L -139.045,-180.245 L -138.437,-180.089 L -137.814,-180.01 L 137.814,-180.01 z
M -137.382,-183.145 L -137.645,-183.178 L -137.902,-183.244 L -138.148,-183.341 L -138.38,-183.469 L -138.595,-183.625
 L -138.788,-183.806 L -138.957,-184.01 L -139.099,-184.234 L -139.211,-184.473 L -139.293,-184.725 L -139.343,-184.986
 L -139.36,-185.25 L -139.36,-204.75 L -139.343,-205.014 L -139.293,-205.275 L -139.211,-205.527 L -139.099,-205.766
 L -138.957,-205.99 L -138.788,-206.194 L -138.595,-206.375 L -138.38,-206.531 L -138.148,-206.659 L -137.902,-206.756
 L -137.645,-206.822 L -137.382,-206.855 L 137.382,-206.855 L 137.645,-206.822 L 137.902,-206.756 L 138.148,-206.659
 L 138.38,-206.531 L 138.595,-206.375 L 138.788,-206.194 L 138.957,-205.99 L 139.099,-205.766 L 139.211,-205.527
 L 139.293,-205.275 L 139.343,-205.014 L 139.36,-204.75 L 139.36,-185.25 L 139.343,-184.986 L 139.293,-184.725
 L 139.211,-184.473 L 139.099,-184.234 L 138.957,-184.01 L 138.788,-183.806 L 138.595,-183.625 L 138.38,-183.469
 L 138.148,-183.341 L 137.902,-183.244 L 137.645,-183.178 L 137.382,-183.145 z
" stroke="black" fill="lightgray" stroke-width="0.5"/>
</svg>
