<?xml version="1.0" standalone="no"?>
<!DOCTYPE svg PUBLIC "-//W3C//DTD SVG 1.1//EN" "http://www.w3.org/Graphics/SVG/1.1/DTD/svg11.dtd">
<svg width="272mm" height="627mm" viewBox="-137 -1188 272 627" xmlns="http://www.w3.org/2000/svg" version="1.1">
<title>OpenSCAD Model</title>
<path d="
M -133.5,-1039.44 L -133.187,-1039.15 L -132.679,-1038.78 L -132.129,-1038.48 L -131.545,-1038.24 L -130.937,-1038.09
 L -130.314,-1038.01 L 130.314,-1038.01 L 130.937,-1038.09 L 131.545,-1038.24 L 132.129,-1038.48 L 132.679,-1038.78
 L 133.187,-1039.15 L 133.645,-1039.58 L 134.045,-1040.06 L 134.382,-1040.59 L 134.649,-1041.16 L 134.843,-1041.76
 L 134.961,-1042.37 L 135,-1043 L 135,-1183 L 134.961,-1183.63 L 134.843,-1184.24 L 134.649,-1184.84
 L 134.382,-1185.41 L 134.045,-1185.94 L 133.645,-1186.42 L 133.187,-1186.85 L 132.679,-1187.22 L 132.129,-1187.52
 L 131.545,-1187.76 L 130.937,-1187.91 L 130.314,-1187.99 L -130.314,-1187.99 L -130.937,-1187.91 L -131.545,-1187.76
 L -132.129,-1187.52 L -132.679,-1187.22 L -133.187,-1186.85 L -133.5,-1186.56 L -133.5,-1187.99 L -136.5,-1187.99
 L -136.5,-1038.01 L -133.5,-1038.01 z
M -129.751,-1039.51 L -130.25,-1039.57 L -130.736,-1039.7 L -131.203,-1039.88 L -131.643,-1040.12 L -132.05,-1040.42
 L -132.416,-1040.76 L -132.736,-1041.15 L -133.005,-1041.57 L -133.219,-1042.03 L -133.374,-1042.51 L -133.468,-1043
 L -133.5,-1043.5 L -133.5,-1182.5 L -133.468,-1183 L -133.374,-1183.49 L -133.219,-1183.97 L -133.005,-1184.43
 L -132.736,-1184.85 L -132.416,-1185.24 L -132.05,-1185.58 L -131.643,-1185.88 L -131.203,-1186.12 L -130.736,-1186.3
 L -130.25,-1186.43 L -129.751,-1186.49 L 129.751,-1186.49 L 130.25,-1186.43 L 130.736,-1186.3 L 131.203,-1186.12
 L 131.643,-1185.88 L 132.05,-1185.58 L 132.416,-1185.24 L 132.736,-1184.85 L 133.005,-1184.43 L 133.219,-1183.97
 L 133.374,-1183.49 L 133.468,-1183 L 133.5,-1182.5 L 133.5,-1043.5 L 133.468,-1043 L 133.374,-1042.51
 L 133.219,-1042.03 L 133.005,-1041.57 L 132.736,-1041.15 L 132.416,-1040.76 L 132.05,-1040.42 L 131.643,-1040.12
 L 131.203,-1039.88 L 130.736,-1039.7 L 130.25,-1039.57 L 129.751,-1039.51 z
M -133.5,-880.441 L -133.187,-880.147 L -132.679,-879.778 L -132.129,-879.476 L -131.545,-879.245 L -130.937,-879.089
 L -130.314,-879.01 L 130.314,-879.01 L 130.937,-879.089 L 131.545,-879.245 L 132.129,-879.476 L 132.679,-879.778
 L 133.187,-880.147 L 133.645,-880.577 L 134.045,-881.061 L 134.382,-881.591 L 134.649,-882.159 L 134.843,-882.757
 L 134.961,-883.373 L 135,-884 L 135,-1024 L 134.961,-1024.63 L 134.843,-1025.24 L 134.649,-1025.84
 L 134.382,-1026.41 L 134.045,-1026.94 L 133.645,-1027.42 L 133.187,-1027.85 L 132.679,-1028.22 L 132.129,-1028.52
 L 131.545,-1028.76 L 130.937,-1028.91 L 130.314,-1028.99 L -130.314,-1028.99 L -130.937,-1028.91 L -131.545,-1028.76
 L -132.129,-1028.52 L -132.679,-1028.22 L -133.187,-1027.85 L -133.5,-1027.56 L -133.5,-1028.99 L -136.5,-1028.99
 L -136.5,-879.01 L -133.5,-879.01 z
M -129.751,-880.508 L -130.25,-880.571 L -130.736,-880.696 L -131.203,-880.881 L -131.643,-881.123 L -132.05,-881.418
 L -132.416,-881.762 L -132.736,-882.149 L -133.005,-882.573 L -133.219,-883.028 L -133.374,-883.505 L -133.468,-883.999
 L -133.5,-884.5 L -133.5,-1023.5 L -133.468,-1024 L -133.374,-1024.49 L -133.219,-1024.97 L -133.005,-1025.43
 L -132.736,-1025.85 L -132.416,-1026.24 L -132.05,-1026.58 L -131.643,-1026.88 L -131.203,-1027.12 L -130.736,-1027.3
 L -130.25,-1027.43 L -129.751,-1027.49 L 129.751,-1027.49 L 130.25,-1027.43 L 130.736,-1027.3 L 131.203,-1027.12
 L 131.643,-1026.88 L 132.05,-1026.58 L 132.416,-1026.24 L 132.736,-1025.85 L 133.005,-1025.43 L 133.219,-1024.97
 L 133.374,-1024.49 L 133.468,-1024 L 133.5,-1023.5 L 133.5,-884.5 L 133.468,-883.999 L 133.374,-883.505
 L 133.219,-883.028 L 133.005,-882.573 L 132.736,-882.149 L 132.416,-881.762 L 132.05,-881.418 L 131.643,-881.123
 L 131.203,-880.881 L 130.736,-880.696 L 130.25,-880.571 L 129.751,-880.508 z
M 130.937,-720.089 L 131.545,-720.245 L 132.129,-720.476 L 132.679,-720.778 L 133.187,-721.147 L 133.645,-721.577
 L 134.045,-722.061 L 134.382,-722.591 L 134.649,-723.159 L 134.843,-723.757 L 134.961,-724.373 L 135,-725
 L 135,-865 L 134.961,-865.627 L 134.843,-866.243 L 134.649,-866.841 L 134.382,-867.409 L 134.045,-867.939
 L 133.645,-868.423 L 133.187,-868.853 L 132.679,-869.222 L 132.129,-869.524 L 131.545,-869.755 L 130.937,-869.911
 L 130.314,-869.99 L -130.314,-869.99 L -130.937,-869.911 L -131.545,-869.755 L -132.129,-869.524 L -132.679,-869.222
 L -133.187,-868.853 L -133.5,-868.559 L -133.5,-869.979 L -136.5,-869.979 L -136.5,-720.021 L -133.5,-720.021
 L -133.5,-721.441 L -133.187,-721.147 L -132.679,-720.778 L -132.129,-720.476 L -131.545,-720.245 L -130.937,-720.089
 L -130.314,-720.01 L 130.314,-720.01 z
M -129.695,-722.393 L -130.083,-722.442 L -130.462,-722.539 L -130.825,-722.683 L -131.168,-722.872 L -131.484,-723.101
 L -131.769,-723.369 L -132.018,-723.67 L -132.228,-724 L -132.394,-724.354 L -132.515,-724.726 L -132.588,-725.11
 L -132.613,-725.5 L -132.613,-864.5 L -132.588,-864.89 L -132.515,-865.274 L -132.394,-865.646 L -132.228,-866
 L -132.018,-866.33 L -131.769,-866.631 L -131.484,-866.899 L -131.168,-867.128 L -130.825,-867.317 L -130.462,-867.461
 L -130.083,-867.558 L -129.695,-867.607 L 129.695,-867.607 L 130.083,-867.558 L 130.462,-867.461 L 130.825,-867.317
 L 131.168,-867.128 L 131.484,-866.899 L 131.769,-866.631 L 132.018,-866.33 L 132.228,-866 L 132.394,-865.646
 L 132.515,-865.274 L 132.588,-864.89 L 132.613,-864.5 L 132.613,-725.5 L 132.588,-725.11 L 132.515,-724.726
 L 132.394,-724.354 L 132.228,-724 L 132.018,-723.67 L 131.769,-723.369 L 131.484,-723.101 L 131.168,-722.872
 L 130.825,-722.683 L 130.462,-722.539 L 130.083,-722.442 L 129.695,-722.393 z
M 130.937,-561.089 L 131.545,-561.245 L 132.129,-561.476 L 132.679,-561.778 L 133.187,-562.147 L 133.645,-562.577
 L 134.045,-563.061 L 134.382,-563.591 L 134.649,-564.159 L 134.843,-564.757 L 134.961,-565.373 L 135,-566
 L 135,-706 L 134.961,-706.627 L 134.843,-707.243 L 134.649,-707.841 L 134.382,-708.409 L 134.045,-708.939
 L 133.645,-709.423 L 133.187,-709.853 L 132.679,-710.222 L 132.129,-710.524 L 131.545,-710.755 L 130.937,-710.911
 L 130.314,-710.99 L -130.314,-710.99 L -130.937,-710.911 L -131.545,-710.755 L -132.129,-710.524 L -132.679,-710.222
 L -133.187,-709.853 L -133.5,-709.559 L -133.5,-709.653 L -136.5,-709.653 L -136.5,-562.347 L -133.5,-562.347
 L -133.5,-562.441 L -133.187,-562.147 L -132.679,-561.778 L -132.129,-561.476 L -131.545,-561.245 L -130.937,-561.089
 L -130.314,-561.01 L 130.314,-561.01 z
M -127.634,-701.369 L -127.9,-701.403 L -128.16,-701.469 L -128.409,-701.568 L -128.644,-701.697 L -128.861,-701.855
 L -129.057,-702.038 L -129.227,-702.245 L -129.371,-702.471 L -129.485,-702.714 L -129.568,-702.969 L -129.618,-703.232
 L -129.635,-703.5 L -129.618,-703.768 L -129.568,-704.031 L -129.485,-704.286 L -129.371,-704.529 L -129.227,-704.755
 L -129.057,-704.962 L -128.861,-705.145 L -128.644,-705.303 L -128.409,-705.432 L -128.16,-705.531 L -127.9,-705.597
 L -127.634,-705.631 L -127.366,-705.631 L -127.1,-705.597 L -126.84,-705.531 L -126.591,-705.432 L -126.356,-705.303
 L -126.139,-705.145 L -125.943,-704.962 L -125.773,-704.755 L -125.629,-704.529 L -125.515,-704.286 L -125.432,-704.031
 L -125.382,-703.768 L -125.365,-703.5 L -125.382,-703.232 L -125.432,-702.969 L -125.515,-702.714 L -125.629,-702.471
 L -125.773,-702.245 L -125.943,-702.038 L -126.139,-701.855 L -126.356,-701.697 L -126.591,-701.568 L -126.84,-701.469
 L -127.1,-701.403 L -127.366,-701.369 z
M 127.366,-701.369 L 127.1,-701.403 L 126.84,-701.469 L 126.591,-701.568 L 126.356,-701.697 L 126.139,-701.855
 L 125.943,-702.038 L 125.773,-702.245 L 125.629,-702.471 L 125.515,-702.714 L 125.432,-702.969 L 125.382,-703.232
 L 125.365,-703.5 L 125.382,-703.768 L 125.432,-704.031 L 125.515,-704.286 L 125.629,-704.529 L 125.773,-704.755
 L 125.943,-704.962 L 126.139,-705.145 L 126.356,-705.303 L 126.591,-705.432 L 126.84,-705.531 L 127.1,-705.597
 L 127.366,-705.631 L 127.634,-705.631 L 127.9,-705.597 L 128.16,-705.531 L 128.409,-705.432 L 128.644,-705.303
 L 128.861,-705.145 L 129.057,-704.962 L 129.227,-704.755 L 129.371,-704.529 L 129.485,-704.286 L 129.568,-704.031
 L 129.618,-703.768 L 129.635,-703.5 L 129.618,-703.232 L 129.568,-702.969 L 129.485,-702.714 L 129.371,-702.471
 L 129.227,-702.245 L 129.057,-702.038 L 128.861,-701.855 L 128.644,-701.697 L 128.409,-701.568 L 128.16,-701.469
 L 127.9,-701.403 L 127.634,-701.369 z
M -127.634,-566.369 L -127.9,-566.403 L -128.16,-566.469 L -128.409,-566.568 L -128.644,-566.697 L -128.861,-566.855
 L -129.057,-567.038 L -129.227,-567.245 L -129.371,-567.471 L -129.485,-567.714 L -129.568,-567.969 L -129.618,-568.232
 L -129.635,-568.5 L -129.618,-568.768 L -129.568,-569.031 L -129.485,-569.286 L -129.371,-569.529 L -129.227,-569.755
 L -129.057,-569.962 L -128.861,-570.145 L -128.644,-570.303 L -128.409,-570.432 L -128.16,-570.531 L -127.9,-570.597
 L -127.634,-570.631 L -127.366,-570.631 L -127.1,-570.597 L -126.84,-570.531 L -126.591,-570.432 L -126.356,-570.303
 L -126.139,-570.145 L -125.943,-569.962 L -125.773,-569.755 L -125.629,-569.529 L -125.515,-569.286 L -125.432,-569.031
 L -125.382,-568.768 L -125.365,-568.5 L -125.382,-568.232 L -125.432,-567.969 L -125.515,-567.714 L -125.629,-567.471
 L -125.773,-567.245 L -125.943,-567.038 L -126.139,-566.855 L -126.356,-566.697 L -126.591,-566.568 L -126.84,-566.469
 L -127.1,-566.403 L -127.366,-566.369 z
M 127.366,-566.369 L 127.1,-566.403 L 126.84,-566.469 L 126.591,-566.568 L 126.356,-566.697 L 126.139,-566.855
 L 125.943,-567.038 L 125.773,-567.245 L 125.629,-567.471 L 125.515,-567.714 L 125.432,-567.969 L 125.382,-568.232
 L 125.365,-568.5 L 125.382,-568.768 L 125.432,-569.031 L 125.515,-569.286 L 125.629,-569.529 L 125.773,-569.755
 L 125.943,-569.962 L 126.139,-570.145 L 126.356,-570.303 L 126.591,-570.432 L 126.84,-570.531 L 127.1,-570.597
 L 127.366,-570.631 L 127.634,-570.631 L 127.9,-570.597 L 128.16,-570.531 L 128.409,-570.432 L 128.644,-570.303
 L 128.861,-570.145 L 129.057,-569.962 L 129.227,-569.755 L 129.371,-569.529 L 129.485,-569.286 L 129.568,-569.031
 L 129.618,-568.768 L 129.635,-568.5 L 129.618,-568.232 L 129.568,-567.969 L 129.485,-567.714 L 129.371,-567.471
 L 129.227,-567.245 L 129.057,-567.038 L 128.861,-566.855 L 128.644,-566.697 L 128.409,-566.568 L 128.16,-566.469
 L 127.9,-566.403 L 127.634,-566.369 z
" stroke="black" fill="lightgray" stroke-width="0.5"/>
</svg>
