<?xml version="1.0" standalone="no"?>
<!DOCTYPE svg PUBLIC "-//W3C//DTD SVG 1.1//EN" "http://www.w3.org/Graphics/SVG/1.1/DTD/svg11.dtd">
<svg width="242mm" height="747mm" viewBox="-122 -1224 242 747" xmlns="http://www.w3.org/2000/svg" version="1.1">
<title>OpenSCAD Model</title>
<path d="
M -118.5,-1045.44 L -118.187,-1045.15 L -117.679,-1044.78 L -117.129,-1044.48 L -116.545,-1044.24 L -115.937,-1044.09
 L -115.314,-1044.01 L 115.314,-1044.01 L 115.937,-1044.09 L 116.545,-1044.24 L 117.129,-1044.48 L 117.679,-1044.78
 L 118.187,-1045.15 L 118.645,-1045.58 L 119.045,-1046.06 L 119.382,-1046.59 L 119.649,-1047.16 L 119.843,-1047.76
 L 119.961,-1048.37 L 120,-1049 L 120,-1219 L 119.961,-1219.63 L 119.843,-1220.24 L 119.649,-1220.84
 L 119.382,-1221.41 L 119.045,-1221.94 L 118.645,-1222.42 L 118.187,-1222.85 L 117.679,-1223.22 L 117.129,-1223.52
 L 116.545,-1223.76 L 115.937,-1223.91 L 115.314,-1223.99 L -115.314,-1223.99 L -115.937,-1223.91 L -116.545,-1223.76
 L -117.129,-1223.52 L -117.679,-1223.22 L -118.187,-1222.85 L -118.5,-1222.56 L -118.5,-1223.99 L -121.5,-1223.99
 L -121.5,-1044.01 L -118.5,-1044.01 z
M -114.751,-1045.51 L -115.25,-1045.57 L -115.736,-1045.7 L -116.203,-1045.88 L -116.643,-1046.12 L -117.05,-1046.42
 L -117.416,-1046.76 L -117.736,-1047.15 L -118.005,-1047.57 L -118.219,-1048.03 L -118.374,-1048.51 L -118.468,-1049
 L -118.5,-1049.5 L -118.5,-1218.5 L -118.468,-1219 L -118.374,-1219.49 L -118.219,-1219.97 L -118.005,-1220.43
 L -117.736,-1220.85 L -117.416,-1221.24 L -117.05,-1221.58 L -116.643,-1221.88 L -116.203,-1222.12 L -115.736,-1222.3
 L -115.25,-1222.43 L -114.751,-1222.49 L 114.751,-1222.49 L 115.25,-1222.43 L 115.736,-1222.3 L 116.203,-1222.12
 L 116.643,-1221.88 L 117.05,-1221.58 L 117.416,-1221.24 L 117.736,-1220.85 L 118.005,-1220.43 L 118.219,-1219.97
 L 118.374,-1219.49 L 118.468,-1219 L 118.5,-1218.5 L 118.5,-1049.5 L 118.468,-1049 L 118.374,-1048.51
 L 118.219,-1048.03 L 118.005,-1047.57 L 117.736,-1047.15 L 117.416,-1046.76 L 117.05,-1046.42 L 116.643,-1046.12
 L 116.203,-1045.88 L 115.736,-1045.7 L 115.25,-1045.57 L 114.751,-1045.51 z
M -118.5,-856.441 L -118.187,-856.147 L -117.679,-855.778 L -117.129,-855.476 L -116.545,-855.245 L -115.937,-855.089
 L -115.314,-855.01 L 115.314,-855.01 L 115.937,-855.089 L 116.545,-855.245 L 117.129,-855.476 L 117.679,-855.778
 L 118.187,-856.147 L 118.645,-856.577 L 119.045,-857.061 L 119.382,-857.591 L 119.649,-858.159 L 119.843,-858.757
 L 119.961,-859.373 L 120,-860 L 120,-1030 L 119.961,-1030.63 L 119.843,-1031.24 L 119.649,-1031.84
 L 119.382,-1032.41 L 119.045,-1032.94 L 118.645,-1033.42 L 118.187,-1033.85 L 117.679,-1034.22 L 117.129,-1034.52
 L 116.545,-1034.76 L 115.937,-1034.91 L 115.314,-1034.99 L -115.314,-1034.99 L -115.937,-1034.91 L -116.545,-1034.76
 L -117.129,-1034.52 L -117.679,-1034.22 L -118.187,-1033.85 L -118.5,-1033.56 L -118.5,-1034.99 L -121.5,-1034.99
 L -121.5,-855.01 L -118.5,-855.01 z
M -114.743,-856.635 L -115.226,-856.696 L -115.697,-856.817 L -116.149,-856.996 L -116.575,-857.23 L -116.969,-857.516
 L -117.323,-857.849 L -117.633,-858.224 L -117.894,-858.634 L -118.101,-859.074 L -118.251,-859.537 L -118.342,-860.015
 L -118.373,-860.5 L -118.373,-1029.5 L -118.342,-1029.99 L -118.251,-1030.46 L -118.101,-1030.93 L -117.894,-1031.37
 L -117.633,-1031.78 L -117.323,-1032.15 L -116.969,-1032.48 L -116.575,-1032.77 L -116.149,-1033 L -115.697,-1033.18
 L -115.226,-1033.3 L -114.743,-1033.36 L 114.743,-1033.36 L 115.226,-1033.3 L 115.697,-1033.18 L 116.149,-1033
 L 116.575,-1032.77 L 116.969,-1032.48 L 117.323,-1032.15 L 117.633,-1031.78 L 117.894,-1031.37 L 118.101,-1030.93
 L 118.251,-1030.46 L 118.342,-1029.99 L 118.373,-1029.5 L 118.373,-860.5 L 118.342,-860.015 L 118.251,-859.537
 L 118.101,-859.074 L 117.894,-858.634 L 117.633,-858.224 L 117.323,-857.849 L 116.969,-857.516 L 116.575,-857.23
 L 116.149,-856.996 L 115.697,-856.817 L 115.226,-856.696 L 114.743,-856.635 z
M 115.937,-666.089 L 116.545,-666.245 L 117.129,-666.476 L 117.679,-666.778 L 118.187,-667.147 L 118.645,-667.577
 L 119.045,-668.061 L 119.382,-668.591 L 119.649,-669.159 L 119.843,-669.757 L 119.961,-670.373 L 120,-671
 L 120,-841 L 119.961,-841.627 L 119.843,-842.243 L 119.649,-842.841 L 119.382,-843.409 L 119.045,-843.939
 L 118.645,-844.423 L 118.187,-844.853 L 117.679,-845.222 L 117.129,-845.524 L 116.545,-845.755 L 115.937,-845.911
 L 115.314,-845.99 L -115.314,-845.99 L -115.937,-845.911 L -116.545,-845.755 L -117.129,-845.524 L -117.679,-845.222
 L -118.187,-844.853 L -118.5,-844.559 L -118.5,-845.615 L -121.5,-845.615 L -121.5,-666.385 L -118.5,-666.385
 L -118.5,-667.441 L -118.187,-667.147 L -117.679,-666.778 L -117.129,-666.476 L -116.545,-666.245 L -115.937,-666.089
 L -115.314,-666.01 L 115.314,-666.01 z
M 112.349,-836.105 L 112.05,-836.143 L 111.758,-836.217 L 111.478,-836.328 L 111.214,-836.474 L 110.97,-836.651
 L 110.75,-836.857 L 110.558,-837.089 L 110.397,-837.344 L 110.269,-837.617 L 110.175,-837.903 L 110.119,-838.199
 L 110.1,-838.5 L 110.119,-838.801 L 110.175,-839.097 L 110.269,-839.383 L 110.397,-839.656 L 110.558,-839.911
 L 110.75,-840.143 L 110.97,-840.349 L 111.214,-840.526 L 111.478,-840.672 L 111.758,-840.783 L 112.05,-840.857
 L 112.349,-840.895 L 112.651,-840.895 L 112.95,-840.857 L 113.242,-840.783 L 113.522,-840.672 L 113.786,-840.526
 L 114.03,-840.349 L 114.25,-840.143 L 114.442,-839.911 L 114.603,-839.656 L 114.731,-839.383 L 114.825,-839.097
 L 114.881,-838.801 L 114.9,-838.5 L 114.881,-838.199 L 114.825,-837.903 L 114.731,-837.617 L 114.603,-837.344
 L 114.442,-837.089 L 114.25,-836.857 L 114.03,-836.651 L 113.786,-836.474 L 113.522,-836.328 L 113.242,-836.217
 L 112.95,-836.143 L 112.651,-836.105 z
M -112.651,-836.105 L -112.95,-836.143 L -113.242,-836.217 L -113.522,-836.328 L -113.786,-836.474 L -114.03,-836.651
 L -114.25,-836.857 L -114.442,-837.089 L -114.603,-837.344 L -114.731,-837.617 L -114.825,-837.903 L -114.881,-838.199
 L -114.9,-838.5 L -114.881,-838.801 L -114.825,-839.097 L -114.731,-839.383 L -114.603,-839.656 L -114.442,-839.911
 L -114.25,-840.143 L -114.03,-840.349 L -113.786,-840.526 L -113.522,-840.672 L -113.242,-840.783 L -112.95,-840.857
 L -112.651,-840.895 L -112.349,-840.895 L -112.05,-840.857 L -111.758,-840.783 L -111.478,-840.672 L -111.214,-840.526
 L -110.97,-840.349 L -110.75,-840.143 L -110.558,-839.911 L -110.397,-839.656 L -110.269,-839.383 L -110.175,-839.097
 L -110.119,-838.801 L -110.1,-838.5 L -110.119,-838.199 L -110.175,-837.903 L -110.269,-837.617 L -110.397,-837.344
 L -110.558,-837.089 L -110.75,-836.857 L -110.97,-836.651 L -111.214,-836.474 L -111.478,-836.328 L -111.758,-836.217
 L -112.05,-836.143 L -112.349,-836.105 z
M 112.349,-671.105 L 112.05,-671.143 L 111.758,-671.217 L 111.478,-671.328 L 111.214,-671.474 L 110.97,-671.651
 L 110.75,-671.857 L 110.558,-672.089 L 110.397,-672.344 L 110.269,-672.617 L 110.175,-672.903 L 110.119,-673.199
 L 110.1,-673.5 L 110.119,-673.801 L 110.175,-674.097 L 110.269,-674.383 L 110.397,-674.656 L 110.558,-674.911
 L 110.75,-675.143 L 110.97,-675.349 L 111.214,-675.526 L 111.478,-675.672 L 111.758,-675.783 L 112.05,-675.857
 L 112.349,-675.895 L 112.651,-675.895 L 112.95,-675.857 L 113.242,-675.783 L 113.522,-675.672 L 113.786,-675.526
 L 114.03,-675.349 L 114.25,-675.143 L 114.442,-674.911 L 114.603,-674.656 L 114.731,-674.383 L 114.825,-674.097
 L 114.881,-673.801 L 114.9,-673.5 L 114.881,-673.199 L 114.825,-672.903 L 114.731,-672.617 L 114.603,-672.344
 L 114.442,-672.089 L 114.25,-671.857 L 114.03,-671.651 L 113.786,-671.474 L 113.522,-671.328 L 113.242,-671.217
 L 112.95,-671.143 L 112.651,-671.105 z
M -112.651,-671.105 L -112.95,-671.143 L -113.242,-671.217 L -113.522,-671.328 L -113.786,-671.474 L -114.03,-671.651
 L -114.25,-671.857 L -114.442,-672.089 L -114.603,-672.344 L -114.731,-672.617 L -114.825,-672.903 L -114.881,-673.199
 L -114.9,-673.5 L -114.881,-673.801 L -114.825,-674.097 L -114.731,-674.383 L -114.603,-674.656 L -114.442,-674.911
 L -114.25,-675.143 L -114.03,-675.349 L -113.786,-675.526 L -113.522,-675.672 L -113.242,-675.783 L -112.95,-675.857
 L -112.651,-675.895 L -112.349,-675.895 L -112.05,-675.857 L -111.758,-675.783 L -111.478,-675.672 L -111.214,-675.526
 L -110.97,-675.349 L -110.75,-675.143 L -110.558,-674.911 L -110.397,-674.656 L -110.269,-674.383 L -110.175,-674.097
 L -110.119,-673.801 L -110.1,-673.5 L -110.119,-673.199 L -110.175,-672.903 L -110.269,-672.617 L -110.397,-672.344
 L -110.558,-672.089 L -110.75,-671.857 L -110.97,-671.651 L -111.214,-671.474 L -111.478,-671.328 L -111.758,-671.217
 L -112.05,-671.143 L -112.349,-671.105 z
M 115.937,-477.089 L 116.545,-477.245 L 117.129,-477.476 L 117.679,-477.778 L 118.187,-478.147 L 118.645,-478.577
 L 119.045,-479.061 L 119.382,-479.591 L 119.649,-480.159 L 119.843,-480.757 L 119.961,-481.373 L 120,-482
 L 120,-652 L 119.961,-652.627 L 119.843,-653.243 L 119.649,-653.841 L 119.382,-654.409 L 119.045,-654.939
 L 118.645,-655.423 L 118.187,-655.853 L 117.679,-656.222 L 117.129,-656.524 L 116.545,-656.755 L 115.937,-656.911
 L 115.314,-656.99 L -115.314,-656.99 L -115.937,-656.911 L -116.545,-656.755 L -117.129,-656.524 L -117.679,-656.222
 L -118.187,-655.853 L -118.645,-655.423 L -119.045,-654.939 L -119.382,-654.409 L -119.649,-653.841 L -119.843,-653.243
 L -119.9,-652.944 L -121.5,-652.944 L -121.5,-481.056 L -119.9,-481.056 L -119.843,-480.757 L -119.649,-480.159
 L -119.382,-479.591 L -119.045,-479.061 L -118.645,-478.577 L -118.187,-478.147 L -117.679,-477.778 L -117.129,-477.476
 L -116.545,-477.245 L -115.937,-477.089 L -115.314,-477.01 L 115.314,-477.01 z
M -112.613,-647.704 L -112.837,-647.732 L -113.056,-647.788 L -113.266,-647.871 L -113.464,-647.98 L -113.647,-648.113
 L -113.812,-648.268 L -113.956,-648.442 L -114.077,-648.633 L -114.174,-648.837 L -114.243,-649.052 L -114.286,-649.274
 L -114.3,-649.5 L -114.286,-649.726 L -114.243,-649.948 L -114.174,-650.163 L -114.077,-650.367 L -113.956,-650.558
 L -113.812,-650.732 L -113.647,-650.887 L -113.464,-651.02 L -113.266,-651.129 L -113.056,-651.212 L -112.837,-651.268
 L -112.613,-651.296 L -112.387,-651.296 L -112.163,-651.268 L -111.944,-651.212 L -111.734,-651.129 L -111.536,-651.02
 L -111.353,-650.887 L -111.188,-650.732 L -111.044,-650.558 L -110.923,-650.367 L -110.826,-650.163 L -110.757,-649.948
 L -110.714,-649.726 L -110.7,-649.5 L -110.714,-649.274 L -110.757,-649.052 L -110.826,-648.837 L -110.923,-648.633
 L -111.044,-648.442 L -111.188,-648.268 L -111.353,-648.113 L -111.536,-647.98 L -111.734,-647.871 L -111.944,-647.788
 L -112.163,-647.732 L -112.387,-647.704 z
M 112.387,-647.704 L 112.163,-647.732 L 111.944,-647.788 L 111.734,-647.871 L 111.536,-647.98 L 111.353,-648.113
 L 111.188,-648.268 L 111.044,-648.442 L 110.923,-648.633 L 110.826,-648.837 L 110.757,-649.052 L 110.714,-649.274
 L 110.7,-649.5 L 110.714,-649.726 L 110.757,-649.948 L 110.826,-650.163 L 110.923,-650.367 L 111.044,-650.558
 L 111.188,-650.732 L 111.353,-650.887 L 111.536,-651.02 L 111.734,-651.129 L 111.944,-651.212 L 112.163,-651.268
 L 112.387,-651.296 L 112.613,-651.296 L 112.837,-651.268 L 113.056,-651.212 L 113.266,-651.129 L 113.464,-651.02
 L 113.647,-650.887 L 113.812,-650.732 L 113.956,-650.558 L 114.077,-650.367 L 114.174,-650.163 L 114.243,-649.948
 L 114.286,-649.726 L 114.3,-649.5 L 114.286,-649.274 L 114.243,-649.052 L 114.174,-648.837 L 114.077,-648.633
 L 113.956,-648.442 L 113.812,-648.268 L 113.647,-648.113 L 113.464,-647.98 L 113.266,-647.871 L 113.056,-647.788
 L 112.837,-647.732 L 112.613,-647.704 z
M -112.613,-482.704 L -112.837,-482.732 L -113.056,-482.788 L -113.266,-482.871 L -113.464,-482.98 L -113.647,-483.113
 L -113.812,-483.268 L -113.956,-483.442 L -114.077,-483.633 L -114.174,-483.837 L -114.243,-484.052 L -114.286,-484.274
 L -114.3,-484.5 L -114.286,-484.726 L -114.243,-484.948 L -114.174,-485.163 L -114.077,-485.367 L -113.956,-485.558
 L -113.812,-485.732 L -113.647,-485.887 L -113.464,-486.02 L -113.266,-486.129 L -113.056,-486.212 L -112.837,-486.268
 L -112.613,-486.296 L -112.387,-486.296 L -112.163,-486.268 L -111.944,-486.212 L -111.734,-486.129 L -111.536,-486.02
 L -111.353,-485.887 L -111.188,-485.732 L -111.044,-485.558 L -110.923,-485.367 L -110.826,-485.163 L -110.757,-484.948
 L -110.714,-484.726 L -110.7,-484.5 L -110.714,-484.274 L -110.757,-484.052 L -110.826,-483.837 L -110.923,-483.633
 L -111.044,-483.442 L -111.188,-483.268 L -111.353,-483.113 L -111.536,-482.98 L -111.734,-482.871 L -111.944,-482.788
 L -112.163,-482.732 L -112.387,-482.704 z
M 112.387,-482.704 L 112.163,-482.732 L 111.944,-482.788 L 111.734,-482.871 L 111.536,-482.98 L 111.353,-483.113
 L 111.188,-483.268 L 111.044,-483.442 L 110.923,-483.633 L 110.826,-483.837 L 110.757,-484.052 L 110.714,-484.274
 L 110.7,-484.5 L 110.714,-484.726 L 110.757,-484.948 L 110.826,-485.163 L 110.923,-485.367 L 111.044,-485.558
 L 111.188,-485.732 L 111.353,-485.887 L 111.536,-486.02 L 111.734,-486.129 L 111.944,-486.212 L 112.163,-486.268
 L 112.387,-486.296 L 112.613,-486.296 L 112.837,-486.268 L 113.056,-486.212 L 113.266,-486.129 L 113.464,-486.02
 L 113.647,-485.887 L 113.812,-485.732 L 113.956,-485.558 L 114.077,-485.367 L 114.174,-485.163 L 114.243,-484.948
 L 114.286,-484.726 L 114.3,-484.5 L 114.286,-484.274 L 114.243,-484.052 L 114.174,-483.837 L 114.077,-483.633
 L 113.956,-483.442 L 113.812,-483.268 L 113.647,-483.113 L 113.464,-482.98 L 113.266,-482.871 L 113.056,-482.788
 L 112.837,-482.732 L 112.613,-482.704 z
" stroke="black" fill="lightgray" stroke-width="0.5"/>
</svg>
