<?xml version="1.0" standalone="no"?>
<!DOCTYPE svg PUBLIC "-//W3C//DTD SVG 1.1//EN" "http://www.w3.org/Graphics/SVG/1.1/DTD/svg11.dtd">
<svg width="270mm" height="520mm" viewBox="-135 -920 270 520" xmlns="http://www.w3.org/2000/svg" version="1.1">
<title>OpenSCAD Model</title>
<path d="
M 130.937,-664.589 L 131.545,-664.745 L 132.129,-664.976 L 132.679,-665.278 L 133.187,-665.647 L 133.645,-666.077
 L 134.045,-666.561 L 134.382,-667.091 L 134.649,-667.659 L 134.843,-668.257 L 134.961,-668.873 L 135,-669.5
 L 135,-914.5 L 134.961,-915.127 L 134.843,-915.743 L 134.649,-916.341 L 134.382,-916.909 L 134.045,-917.439
 L 133.645,-917.923 L 133.187,-918.353 L 132.679,-918.722 L 132.129,-919.024 L 131.545,-919.255 L 130.937,-919.411
 L 130.314,-919.49 L -130.314,-919.49 L -130.937,-919.411 L -131.545,-919.255 L -132.129,-919.024 L -132.679,-918.722
 L -133.187,-918.353 L -133.645,-917.923 L -134.045,-917.439 L -134.382,-916.909 L -134.649,-916.341 L -134.843,-915.743
 L -134.961,-915.127 L -135,-914.5 L -135,-669.5 L -134.961,-668.873 L -134.843,-668.257 L -134.649,-667.659
 L -134.382,-667.091 L -134.045,-666.561 L -133.645,-666.077 L -133.187,-665.647 L -132.679,-665.278 L -132.129,-664.976
 L -131.545,-664.745 L -130.937,-664.589 L -130.314,-664.51 L 130.314,-664.51 z
M -130.037,-665.181 L -130.608,-665.253 L -131.165,-665.396 L -131.699,-665.607 L -132.203,-665.884 L -132.668,-666.222
 L -133.088,-666.616 L -133.454,-667.059 L -133.762,-667.544 L -134.007,-668.065 L -134.185,-668.611 L -134.292,-669.176
 L -134.328,-669.75 L -134.328,-914.25 L -134.292,-914.824 L -134.185,-915.389 L -134.007,-915.935 L -133.762,-916.456
 L -133.454,-916.941 L -133.088,-917.384 L -132.668,-917.778 L -132.203,-918.116 L -131.699,-918.393 L -131.165,-918.604
 L -130.608,-918.747 L -130.037,-918.819 L 130.037,-918.819 L 130.608,-918.747 L 131.165,-918.604 L 131.699,-918.393
 L 132.203,-918.116 L 132.668,-917.778 L 133.088,-917.384 L 133.454,-916.941 L 133.762,-916.456 L 134.007,-915.935
 L 134.185,-915.389 L 134.292,-914.824 L 134.328,-914.25 L 134.328,-669.75 L 134.292,-669.176 L 134.185,-668.611
 L 134.007,-668.065 L 133.762,-667.544 L 133.454,-667.059 L 133.088,-666.616 L 132.668,-666.222 L 132.203,-665.884
 L 131.699,-665.607 L 131.165,-665.396 L 130.608,-665.253 L 130.037,-665.181 z
M 130.937,-400.589 L 131.545,-400.745 L 132.129,-400.976 L 132.679,-401.278 L 133.187,-401.647 L 133.645,-402.077
 L 134.045,-402.561 L 134.382,-403.091 L 134.649,-403.659 L 134.843,-404.257 L 134.961,-404.873 L 135,-405.5
 L 135,-650.5 L 134.961,-651.127 L 134.843,-651.743 L 134.649,-652.341 L 134.382,-652.909 L 134.045,-653.439
 L 133.645,-653.923 L 133.187,-654.353 L 132.679,-654.722 L 132.129,-655.024 L 131.545,-655.255 L 130.937,-655.411
 L 130.314,-655.49 L -130.314,-655.49 L -130.937,-655.411 L -131.545,-655.255 L -132.129,-655.024 L -132.679,-654.722
 L -133.187,-654.353 L -133.645,-653.923 L -134.045,-653.439 L -134.382,-652.909 L -134.649,-652.341 L -134.843,-651.743
 L -134.961,-651.127 L -135,-650.5 L -135,-405.5 L -134.961,-404.873 L -134.843,-404.257 L -134.649,-403.659
 L -134.382,-403.091 L -134.045,-402.561 L -133.645,-402.077 L -133.187,-401.647 L -132.679,-401.278 L -132.129,-400.976
 L -131.545,-400.745 L -130.937,-400.589 L -130.314,-400.51 L 130.314,-400.51 z
M -129.882,-403.645 L -130.145,-403.678 L -130.402,-403.744 L -130.648,-403.841 L -130.88,-403.969 L -131.095,-404.124
 L -131.288,-404.306 L -131.457,-404.51 L -131.599,-404.734 L -131.711,-404.973 L -131.793,-405.225 L -131.843,-405.486
 L -131.86,-405.75 L -131.86,-650.25 L -131.843,-650.514 L -131.793,-650.775 L -131.711,-651.027 L -131.599,-651.266
 L -131.457,-651.49 L -131.288,-651.694 L -131.095,-651.876 L -130.88,-652.031 L -130.648,-652.159 L -130.402,-652.256
 L -130.145,-652.322 L -129.882,-652.355 L 129.882,-652.355 L 130.145,-652.322 L 130.402,-652.256 L 130.648,-652.159
 L 130.88,-652.031 L 131.095,-651.876 L 131.288,-651.694 L 131.457,-651.49 L 131.599,-651.266 L 131.711,-651.027
 L 131.793,-650.775 L 131.843,-650.514 L 131.86,-650.25 L 131.86,-405.75 L 131.843,-405.486 L 131.793,-405.225
 L 131.711,-404.973 L 131.599,-404.734 L 131.457,-404.51 L 131.288,-404.306 L 131.095,-404.124 L 130.88,-403.969
 L 130.648,-403.841 L 130.402,-403.744 L 130.145,-403.678 L 129.882,-403.645 z
" stroke="black" fill="lightgray" stroke-width="0.5"/>
</svg>
