  0
SECTION
  2
BLOCKS
  0
ENDSEC
  0
SECTION
  2
ENTITIES
  0
LINE
  8
0
 10
145.937
 20
114.839
 11
146.545
 21
114.995
  0
LINE
  8
0
 10
146.545
 20
114.995
 11
147.129
 21
115.226
  0
LINE
  8
0
 10
147.129
 20
115.226
 11
147.679
 21
115.528
  0
LINE
  8
0
 10
147.679
 20
115.528
 11
148.187
 21
115.897
  0
LINE
  8
0
 10
148.187
 20
115.897
 11
148.645
 21
116.327
  0
LINE
  8
0
 10
148.645
 20
116.327
 11
149.045
 21
116.811
  0
LINE
  8
0
 10
149.045
 20
116.811
 11
149.382
 21
117.341
  0
LINE
  8
0
 10
149.382
 20
117.341
 11
149.649
 21
117.909
  0
LINE
  8
0
 10
149.649
 20
117.909
 11
149.843
 21
118.507
  0
LINE
  8
0
 10
149.843
 20
118.507
 11
149.961
 21
119.123
  0
LINE
  8
0
 10
149.961
 20
119.123
 11
150
 21
119.75
  0
LINE
  8
0
 10
150
 20
119.75
 11
150
 21
132.25
  0
LINE
  8
0
 10
150
 20
132.25
 11
149.961
 21
132.877
  0
LINE
  8
0
 10
149.961
 20
132.877
 11
149.843
 21
133.493
  0
LINE
  8
0
 10
149.843
 20
133.493
 11
149.649
 21
134.091
  0
LINE
  8
0
 10
149.649
 20
134.091
 11
149.382
 21
134.659
  0
LINE
  8
0
 10
149.382
 20
134.659
 11
149.045
 21
135.189
  0
LINE
  8
0
 10
149.045
 20
135.189
 11
148.645
 21
135.673
  0
LINE
  8
0
 10
148.645
 20
135.673
 11
148.187
 21
136.103
  0
LINE
  8
0
 10
148.187
 20
136.103
 11
147.679
 21
136.472
  0
LINE
  8
0
 10
147.679
 20
136.472
 11
147.129
 21
136.774
  0
LINE
  8
0
 10
147.129
 20
136.774
 11
146.545
 21
137.005
  0
LINE
  8
0
 10
146.545
 20
137.005
 11
145.937
 21
137.161
  0
LINE
  8
0
 10
145.937
 20
137.161
 11
145.314
 21
137.24
  0
LINE
  8
0
 10
145.314
 20
137.24
 11
-145.314
 21
137.24
  0
LINE
  8
0
 10
-145.314
 20
137.24
 11
-145.937
 21
137.161
  0
LINE
  8
0
 10
-145.937
 20
137.161
 11
-146.545
 21
137.005
  0
LINE
  8
0
 10
-146.545
 20
137.005
 11
-147.129
 21
136.774
  0
LINE
  8
0
 10
-147.129
 20
136.774
 11
-147.679
 21
136.472
  0
LINE
  8
0
 10
-147.679
 20
136.472
 11
-148.187
 21
136.103
  0
LINE
  8
0
 10
-148.187
 20
136.103
 11
-148.645
 21
135.673
  0
LINE
  8
0
 10
-148.645
 20
135.673
 11
-149.045
 21
135.189
  0
LINE
  8
0
 10
-149.045
 20
135.189
 11
-149.382
 21
134.659
  0
LINE
  8
0
 10
-149.382
 20
134.659
 11
-149.649
 21
134.091
  0
LINE
  8
0
 10
-149.649
 20
134.091
 11
-149.843
 21
133.493
  0
LINE
  8
0
 10
-149.843
 20
133.493
 11
-149.961
 21
132.877
  0
LINE
  8
0
 10
-149.961
 20
132.877
 11
-150
 21
132.25
  0
LINE
  8
0
 10
-150
 20
132.25
 11
-150
 21
119.75
  0
LINE
  8
0
 10
-150
 20
119.75
 11
-149.961
 21
119.123
  0
LINE
  8
0
 10
-149.961
 20
119.123
 11
-149.843
 21
118.507
  0
LINE
  8
0
 10
-149.843
 20
118.507
 11
-149.649
 21
117.909
  0
LINE
  8
0
 10
-149.649
 20
117.909
 11
-149.382
 21
117.341
  0
LINE
  8
0
 10
-149.382
 20
117.341
 11
-149.045
 21
116.811
  0
LINE
  8
0
 10
-149.045
 20
116.811
 11
-148.645
 21
116.327
  0
LINE
  8
0
 10
-148.645
 20
116.327
 11
-148.187
 21
115.897
  0
LINE
  8
0
 10
-148.187
 20
115.897
 11
-147.679
 21
115.528
  0
LINE
  8
0
 10
-147.679
 20
115.528
 11
-147.129
 21
115.226
  0
LINE
  8
0
 10
-147.129
 20
115.226
 11
-146.545
 21
114.995
  0
LINE
  8
0
 10
-146.545
 20
114.995
 11
-145.937
 21
114.839
  0
LINE
  8
0
 10
-145.937
 20
114.839
 11
-145.314
 21
114.76
  0
LINE
  8
0
 10
-145.314
 20
114.76
 11
145.314
 21
114.76
  0
LINE
  8
0
 10
145.314
 20
114.76
 11
145.937
 21
114.839
  0
LINE
  8
0
 10
-145.048
 20
115.259
 11
-145.64
 21
115.334
  0
LINE
  8
0
 10
-145.64
 20
115.334
 11
-146.218
 21
115.482
  0
LINE
  8
0
 10
-146.218
 20
115.482
 11
-146.772
 21
115.702
  0
LINE
  8
0
 10
-146.772
 20
115.702
 11
-147.295
 21
115.989
  0
LINE
  8
0
 10
-147.295
 20
115.989
 11
-147.778
 21
116.34
  0
LINE
  8
0
 10
-147.778
 20
116.34
 11
-148.213
 21
116.748
  0
LINE
  8
0
 10
-148.213
 20
116.748
 11
-148.593
 21
117.208
  0
LINE
  8
0
 10
-148.593
 20
117.208
 11
-148.912
 21
117.712
  0
LINE
  8
0
 10
-148.912
 20
117.712
 11
-149.166
 21
118.251
  0
LINE
  8
0
 10
-149.166
 20
118.251
 11
-149.351
 21
118.819
  0
LINE
  8
0
 10
-149.351
 20
118.819
 11
-149.463
 21
119.405
  0
LINE
  8
0
 10
-149.463
 20
119.405
 11
-149.5
 21
120
  0
LINE
  8
0
 10
-149.5
 20
120
 11
-149.5
 21
132
  0
LINE
  8
0
 10
-149.5
 20
132
 11
-149.463
 21
132.595
  0
LINE
  8
0
 10
-149.463
 20
132.595
 11
-149.351
 21
133.181
  0
LINE
  8
0
 10
-149.351
 20
133.181
 11
-149.166
 21
133.749
  0
LINE
  8
0
 10
-149.166
 20
133.749
 11
-148.912
 21
134.288
  0
LINE
  8
0
 10
-148.912
 20
134.288
 11
-148.593
 21
134.792
  0
LINE
  8
0
 10
-148.593
 20
134.792
 11
-148.213
 21
135.252
  0
LINE
  8
0
 10
-148.213
 20
135.252
 11
-147.778
 21
135.66
  0
LINE
  8
0
 10
-147.778
 20
135.66
 11
-147.295
 21
136.011
  0
LINE
  8
0
 10
-147.295
 20
136.011
 11
-146.772
 21
136.298
  0
LINE
  8
0
 10
-146.772
 20
136.298
 11
-146.218
 21
136.518
  0
LINE
  8
0
 10
-146.218
 20
136.518
 11
-145.64
 21
136.666
  0
LINE
  8
0
 10
-145.64
 20
136.666
 11
-145.048
 21
136.741
  0
LINE
  8
0
 10
-145.048
 20
136.741
 11
145.048
 21
136.741
  0
LINE
  8
0
 10
145.048
 20
136.741
 11
145.64
 21
136.666
  0
LINE
  8
0
 10
145.64
 20
136.666
 11
146.218
 21
136.518
  0
LINE
  8
0
 10
146.218
 20
136.518
 11
146.772
 21
136.298
  0
LINE
  8
0
 10
146.772
 20
136.298
 11
147.295
 21
136.011
  0
LINE
  8
0
 10
147.295
 20
136.011
 11
147.778
 21
135.66
  0
LINE
  8
0
 10
147.778
 20
135.66
 11
148.213
 21
135.252
  0
LINE
  8
0
 10
148.213
 20
135.252
 11
148.593
 21
134.792
  0
LINE
  8
0
 10
148.593
 20
134.792
 11
148.912
 21
134.288
  0
LINE
  8
0
 10
148.912
 20
134.288
 11
149.166
 21
133.749
  0
LINE
  8
0
 10
149.166
 20
133.749
 11
149.351
 21
133.181
  0
LINE
  8
0
 10
149.351
 20
133.181
 11
149.463
 21
132.595
  0
LINE
  8
0
 10
149.463
 20
132.595
 11
149.5
 21
132
  0
LINE
  8
0
 10
149.5
 20
132
 11
149.5
 21
120
  0
LINE
  8
0
 10
149.5
 20
120
 11
149.463
 21
119.405
  0
LINE
  8
0
 10
149.463
 20
119.405
 11
149.351
 21
118.819
  0
LINE
  8
0
 10
149.351
 20
118.819
 11
149.166
 21
118.251
  0
LINE
  8
0
 10
149.166
 20
118.251
 11
148.912
 21
117.712
  0
LINE
  8
0
 10
148.912
 20
117.712
 11
148.593
 21
117.208
  0
LINE
  8
0
 10
148.593
 20
117.208
 11
148.213
 21
116.748
  0
LINE
  8
0
 10
148.213
 20
116.748
 11
147.778
 21
116.34
  0
LINE
  8
0
 10
147.778
 20
116.34
 11
147.295
 21
115.989
  0
LINE
  8
0
 10
147.295
 20
115.989
 11
146.772
 21
115.702
  0
LINE
  8
0
 10
146.772
 20
115.702
 11
146.218
 21
115.482
  0
LINE
  8
0
 10
146.218
 20
115.482
 11
145.64
 21
115.334
  0
LINE
  8
0
 10
145.64
 20
115.334
 11
145.048
 21
115.259
  0
LINE
  8
0
 10
145.048
 20
115.259
 11
-145.048
 21
115.259
  0
LINE
  8
0
 10
145.937
 20
83.3386
 11
146.545
 21
83.4947
  0
LINE
  8
0
 10
146.545
 20
83.4947
 11
147.129
 21
83.7259
  0
LINE
  8
0
 10
147.129
 20
83.7259
 11
147.679
 21
84.0284
  0
LINE
  8
0
 10
147.679
 20
84.0284
 11
148.187
 21
84.3974
  0
LINE
  8
0
 10
148.187
 20
84.3974
 11
148.645
 21
84.8273
  0
LINE
  8
0
 10
148.645
 20
84.8273
 11
149.045
 21
85.3111
  0
LINE
  8
0
 10
149.045
 20
85.3111
 11
149.382
 21
85.8412
  0
LINE
  8
0
 10
149.382
 20
85.8412
 11
149.649
 21
86.4094
  0
LINE
  8
0
 10
149.649
 20
86.4094
 11
149.843
 21
87.0066
  0
LINE
  8
0
 10
149.843
 20
87.0066
 11
149.961
 21
87.6233
  0
LINE
  8
0
 10
149.961
 20
87.6233
 11
150
 21
88.25
  0
LINE
  8
0
 10
150
 20
88.25
 11
150
 21
100.75
  0
LINE
  8
0
 10
150
 20
100.75
 11
149.961
 21
101.377
  0
LINE
  8
0
 10
149.961
 20
101.377
 11
149.843
 21
101.993
  0
LINE
  8
0
 10
149.843
 20
101.993
 11
149.649
 21
102.591
  0
LINE
  8
0
 10
149.649
 20
102.591
 11
149.382
 21
103.159
  0
LINE
  8
0
 10
149.382
 20
103.159
 11
149.045
 21
103.689
  0
LINE
  8
0
 10
149.045
 20
103.689
 11
148.645
 21
104.173
  0
LINE
  8
0
 10
148.645
 20
104.173
 11
148.187
 21
104.603
  0
LINE
  8
0
 10
148.187
 20
104.603
 11
147.679
 21
104.972
  0
LINE
  8
0
 10
147.679
 20
104.972
 11
147.129
 21
105.274
  0
LINE
  8
0
 10
147.129
 20
105.274
 11
146.545
 21
105.505
  0
LINE
  8
0
 10
146.545
 20
105.505
 11
145.937
 21
105.661
  0
LINE
  8
0
 10
145.937
 20
105.661
 11
145.314
 21
105.74
  0
LINE
  8
0
 10
145.314
 20
105.74
 11
-145.314
 21
105.74
  0
LINE
  8
0
 10
-145.314
 20
105.74
 11
-145.937
 21
105.661
  0
LINE
  8
0
 10
-145.937
 20
105.661
 11
-146.545
 21
105.505
  0
LINE
  8
0
 10
-146.545
 20
105.505
 11
-147.129
 21
105.274
  0
LINE
  8
0
 10
-147.129
 20
105.274
 11
-147.679
 21
104.972
  0
LINE
  8
0
 10
-147.679
 20
104.972
 11
-148.187
 21
104.603
  0
LINE
  8
0
 10
-148.187
 20
104.603
 11
-148.645
 21
104.173
  0
LINE
  8
0
 10
-148.645
 20
104.173
 11
-149.045
 21
103.689
  0
LINE
  8
0
 10
-149.045
 20
103.689
 11
-149.382
 21
103.159
  0
LINE
  8
0
 10
-149.382
 20
103.159
 11
-149.649
 21
102.591
  0
LINE
  8
0
 10
-149.649
 20
102.591
 11
-149.843
 21
101.993
  0
LINE
  8
0
 10
-149.843
 20
101.993
 11
-149.961
 21
101.377
  0
LINE
  8
0
 10
-149.961
 20
101.377
 11
-150
 21
100.75
  0
LINE
  8
0
 10
-150
 20
100.75
 11
-150
 21
88.25
  0
LINE
  8
0
 10
-150
 20
88.25
 11
-149.961
 21
87.6233
  0
LINE
  8
0
 10
-149.961
 20
87.6233
 11
-149.843
 21
87.0066
  0
LINE
  8
0
 10
-149.843
 20
87.0066
 11
-149.649
 21
86.4094
  0
LINE
  8
0
 10
-149.649
 20
86.4094
 11
-149.382
 21
85.8412
  0
LINE
  8
0
 10
-149.382
 20
85.8412
 11
-149.045
 21
85.3111
  0
LINE
  8
0
 10
-149.045
 20
85.3111
 11
-148.645
 21
84.8273
  0
LINE
  8
0
 10
-148.645
 20
84.8273
 11
-148.187
 21
84.3974
  0
LINE
  8
0
 10
-148.187
 20
84.3974
 11
-147.679
 21
84.0284
  0
LINE
  8
0
 10
-147.679
 20
84.0284
 11
-147.129
 21
83.7259
  0
LINE
  8
0
 10
-147.129
 20
83.7259
 11
-146.545
 21
83.4947
  0
LINE
  8
0
 10
-146.545
 20
83.4947
 11
-145.937
 21
83.3386
  0
LINE
  8
0
 10
-145.937
 20
83.3386
 11
-145.314
 21
83.2599
  0
LINE
  8
0
 10
-145.314
 20
83.2599
 11
145.314
 21
83.2599
  0
LINE
  8
0
 10
145.314
 20
83.2599
 11
145.937
 21
83.3386
  0
LINE
  8
0
 10
-144.993
 20
84.6382
 11
-145.475
 21
84.6991
  0
LINE
  8
0
 10
-145.475
 20
84.6991
 11
-145.946
 21
84.8199
  0
LINE
  8
0
 10
-145.946
 20
84.8199
 11
-146.398
 21
84.9988
  0
LINE
  8
0
 10
-146.398
 20
84.9988
 11
-146.823
 21
85.2329
  0
LINE
  8
0
 10
-146.823
 20
85.2329
 11
-147.216
 21
85.5185
  0
LINE
  8
0
 10
-147.216
 20
85.5185
 11
-147.571
 21
85.8512
  0
LINE
  8
0
 10
-147.571
 20
85.8512
 11
-147.88
 21
86.2256
  0
LINE
  8
0
 10
-147.88
 20
86.2256
 11
-148.141
 21
86.6359
  0
LINE
  8
0
 10
-148.141
 20
86.6359
 11
-148.348
 21
87.0756
  0
LINE
  8
0
 10
-148.348
 20
87.0756
 11
-148.498
 21
87.5377
  0
LINE
  8
0
 10
-148.498
 20
87.5377
 11
-148.589
 21
88.015
  0
LINE
  8
0
 10
-148.589
 20
88.015
 11
-148.619
 21
88.5
  0
LINE
  8
0
 10
-148.619
 20
88.5
 11
-148.619
 21
100.5
  0
LINE
  8
0
 10
-148.619
 20
100.5
 11
-148.589
 21
100.985
  0
LINE
  8
0
 10
-148.589
 20
100.985
 11
-148.498
 21
101.462
  0
LINE
  8
0
 10
-148.498
 20
101.462
 11
-148.348
 21
101.924
  0
LINE
  8
0
 10
-148.348
 20
101.924
 11
-148.141
 21
102.364
  0
LINE
  8
0
 10
-148.141
 20
102.364
 11
-147.88
 21
102.774
  0
LINE
  8
0
 10
-147.88
 20
102.774
 11
-147.571
 21
103.149
  0
LINE
  8
0
 10
-147.571
 20
103.149
 11
-147.216
 21
103.481
  0
LINE
  8
0
 10
-147.216
 20
103.481
 11
-146.823
 21
103.767
  0
LINE
  8
0
 10
-146.823
 20
103.767
 11
-146.398
 21
104.001
  0
LINE
  8
0
 10
-146.398
 20
104.001
 11
-145.946
 21
104.18
  0
LINE
  8
0
 10
-145.946
 20
104.18
 11
-145.475
 21
104.301
  0
LINE
  8
0
 10
-145.475
 20
104.301
 11
-144.993
 21
104.362
  0
LINE
  8
0
 10
-144.993
 20
104.362
 11
144.993
 21
104.362
  0
LINE
  8
0
 10
144.993
 20
104.362
 11
145.475
 21
104.301
  0
LINE
  8
0
 10
145.475
 20
104.301
 11
145.946
 21
104.18
  0
LINE
  8
0
 10
145.946
 20
104.18
 11
146.398
 21
104.001
  0
LINE
  8
0
 10
146.398
 20
104.001
 11
146.823
 21
103.767
  0
LINE
  8
0
 10
146.823
 20
103.767
 11
147.216
 21
103.481
  0
LINE
  8
0
 10
147.216
 20
103.481
 11
147.571
 21
103.149
  0
LINE
  8
0
 10
147.571
 20
103.149
 11
147.88
 21
102.774
  0
LINE
  8
0
 10
147.88
 20
102.774
 11
148.141
 21
102.364
  0
LINE
  8
0
 10
148.141
 20
102.364
 11
148.348
 21
101.924
  0
LINE
  8
0
 10
148.348
 20
101.924
 11
148.498
 21
101.462
  0
LINE
  8
0
 10
148.498
 20
101.462
 11
148.589
 21
100.985
  0
LINE
  8
0
 10
148.589
 20
100.985
 11
148.619
 21
100.5
  0
LINE
  8
0
 10
148.619
 20
100.5
 11
148.619
 21
88.5
  0
LINE
  8
0
 10
148.619
 20
88.5
 11
148.589
 21
88.015
  0
LINE
  8
0
 10
148.589
 20
88.015
 11
148.498
 21
87.5377
  0
LINE
  8
0
 10
148.498
 20
87.5377
 11
148.348
 21
87.0756
  0
LINE
  8
0
 10
148.348
 20
87.0756
 11
148.141
 21
86.6359
  0
LINE
  8
0
 10
148.141
 20
86.6359
 11
147.88
 21
86.2256
  0
LINE
  8
0
 10
147.88
 20
86.2256
 11
147.571
 21
85.8512
  0
LINE
  8
0
 10
147.571
 20
85.8512
 11
147.216
 21
85.5185
  0
LINE
  8
0
 10
147.216
 20
85.5185
 11
146.823
 21
85.2329
  0
LINE
  8
0
 10
146.823
 20
85.2329
 11
146.398
 21
84.9988
  0
LINE
  8
0
 10
146.398
 20
84.9988
 11
145.946
 21
84.8199
  0
LINE
  8
0
 10
145.946
 20
84.8199
 11
145.475
 21
84.6991
  0
LINE
  8
0
 10
145.475
 20
84.6991
 11
144.993
 21
84.6382
  0
LINE
  8
0
 10
144.993
 20
84.6382
 11
-144.993
 21
84.6382
  0
LINE
  8
0
 10
145.937
 20
51.8386
 11
146.545
 21
51.9947
  0
LINE
  8
0
 10
146.545
 20
51.9947
 11
147.129
 21
52.2259
  0
LINE
  8
0
 10
147.129
 20
52.2259
 11
147.679
 21
52.5284
  0
LINE
  8
0
 10
147.679
 20
52.5284
 11
148.187
 21
52.8974
  0
LINE
  8
0
 10
148.187
 20
52.8974
 11
148.645
 21
53.3273
  0
LINE
  8
0
 10
148.645
 20
53.3273
 11
149.045
 21
53.8111
  0
LINE
  8
0
 10
149.045
 20
53.8111
 11
149.382
 21
54.3412
  0
LINE
  8
0
 10
149.382
 20
54.3412
 11
149.649
 21
54.9094
  0
LINE
  8
0
 10
149.649
 20
54.9094
 11
149.843
 21
55.5066
  0
LINE
  8
0
 10
149.843
 20
55.5066
 11
149.961
 21
56.1233
  0
LINE
  8
0
 10
149.961
 20
56.1233
 11
150
 21
56.75
  0
LINE
  8
0
 10
150
 20
56.75
 11
150
 21
69.25
  0
LINE
  8
0
 10
150
 20
69.25
 11
149.961
 21
69.8767
  0
LINE
  8
0
 10
149.961
 20
69.8767
 11
149.843
 21
70.4934
  0
LINE
  8
0
 10
149.843
 20
70.4934
 11
149.649
 21
71.0906
  0
LINE
  8
0
 10
149.649
 20
71.0906
 11
149.382
 21
71.6588
  0
LINE
  8
0
 10
149.382
 20
71.6588
 11
149.045
 21
72.1889
  0
LINE
  8
0
 10
149.045
 20
72.1889
 11
148.645
 21
72.6727
  0
LINE
  8
0
 10
148.645
 20
72.6727
 11
148.187
 21
73.1026
  0
LINE
  8
0
 10
148.187
 20
73.1026
 11
147.679
 21
73.4716
  0
LINE
  8
0
 10
147.679
 20
73.4716
 11
147.129
 21
73.7741
  0
LINE
  8
0
 10
147.129
 20
73.7741
 11
146.545
 21
74.0053
  0
LINE
  8
0
 10
146.545
 20
74.0053
 11
145.937
 21
74.1614
  0
LINE
  8
0
 10
145.937
 20
74.1614
 11
145.314
 21
74.2401
  0
LINE
  8
0
 10
145.314
 20
74.2401
 11
-145.314
 21
74.2401
  0
LINE
  8
0
 10
-145.314
 20
74.2401
 11
-145.937
 21
74.1614
  0
LINE
  8
0
 10
-145.937
 20
74.1614
 11
-146.545
 21
74.0053
  0
LINE
  8
0
 10
-146.545
 20
74.0053
 11
-147.129
 21
73.7741
  0
LINE
  8
0
 10
-147.129
 20
73.7741
 11
-147.679
 21
73.4716
  0
LINE
  8
0
 10
-147.679
 20
73.4716
 11
-148.187
 21
73.1026
  0
LINE
  8
0
 10
-148.187
 20
73.1026
 11
-148.645
 21
72.6727
  0
LINE
  8
0
 10
-148.645
 20
72.6727
 11
-149.045
 21
72.1889
  0
LINE
  8
0
 10
-149.045
 20
72.1889
 11
-149.382
 21
71.6588
  0
LINE
  8
0
 10
-149.382
 20
71.6588
 11
-149.649
 21
71.0906
  0
LINE
  8
0
 10
-149.649
 20
71.0906
 11
-149.843
 21
70.4934
  0
LINE
  8
0
 10
-149.843
 20
70.4934
 11
-149.961
 21
69.8767
  0
LINE
  8
0
 10
-149.961
 20
69.8767
 11
-150
 21
69.25
  0
LINE
  8
0
 10
-150
 20
69.25
 11
-150
 21
56.75
  0
LINE
  8
0
 10
-150
 20
56.75
 11
-149.961
 21
56.1233
  0
LINE
  8
0
 10
-149.961
 20
56.1233
 11
-149.843
 21
55.5066
  0
LINE
  8
0
 10
-149.843
 20
55.5066
 11
-149.649
 21
54.9094
  0
LINE
  8
0
 10
-149.649
 20
54.9094
 11
-149.382
 21
54.3412
  0
LINE
  8
0
 10
-149.382
 20
54.3412
 11
-149.045
 21
53.8111
  0
LINE
  8
0
 10
-149.045
 20
53.8111
 11
-148.645
 21
53.3273
  0
LINE
  8
0
 10
-148.645
 20
53.3273
 11
-148.187
 21
52.8974
  0
LINE
  8
0
 10
-148.187
 20
52.8974
 11
-147.679
 21
52.5284
  0
LINE
  8
0
 10
-147.679
 20
52.5284
 11
-147.129
 21
52.2259
  0
LINE
  8
0
 10
-147.129
 20
52.2259
 11
-146.545
 21
51.9947
  0
LINE
  8
0
 10
-146.545
 20
51.9947
 11
-145.937
 21
51.8386
  0
LINE
  8
0
 10
-145.937
 20
51.8386
 11
-145.314
 21
51.7599
  0
LINE
  8
0
 10
-145.314
 20
51.7599
 11
145.314
 21
51.7599
  0
LINE
  8
0
 10
145.314
 20
51.7599
 11
145.937
 21
51.8386
  0
LINE
  8
0
 10
-142.613
 20
64.9536
 11
-142.837
 21
64.9819
  0
LINE
  8
0
 10
-142.837
 20
64.9819
 11
-143.056
 21
65.0381
  0
LINE
  8
0
 10
-143.056
 20
65.0381
 11
-143.266
 21
65.1213
  0
LINE
  8
0
 10
-143.266
 20
65.1213
 11
-143.464
 21
65.2302
  0
LINE
  8
0
 10
-143.464
 20
65.2302
 11
-143.647
 21
65.3631
  0
LINE
  8
0
 10
-143.647
 20
65.3631
 11
-143.812
 21
65.5178
  0
LINE
  8
0
 10
-143.812
 20
65.5178
 11
-143.956
 21
65.692
  0
LINE
  8
0
 10
-143.956
 20
65.692
 11
-144.077
 21
65.8828
  0
LINE
  8
0
 10
-144.077
 20
65.8828
 11
-144.174
 21
66.0874
  0
LINE
  8
0
 10
-144.174
 20
66.0874
 11
-144.243
 21
66.3024
  0
LINE
  8
0
 10
-144.243
 20
66.3024
 11
-144.286
 21
66.5244
  0
LINE
  8
0
 10
-144.286
 20
66.5244
 11
-144.3
 21
66.75
  0
LINE
  8
0
 10
-144.3
 20
66.75
 11
-144.286
 21
66.9756
  0
LINE
  8
0
 10
-144.286
 20
66.9756
 11
-144.243
 21
67.1976
  0
LINE
  8
0
 10
-144.243
 20
67.1976
 11
-144.174
 21
67.4126
  0
LINE
  8
0
 10
-144.174
 20
67.4126
 11
-144.077
 21
67.6171
  0
LINE
  8
0
 10
-144.077
 20
67.6171
 11
-143.956
 21
67.808
  0
LINE
  8
0
 10
-143.956
 20
67.808
 11
-143.812
 21
67.9822
  0
LINE
  8
0
 10
-143.812
 20
67.9822
 11
-143.647
 21
68.1369
  0
LINE
  8
0
 10
-143.647
 20
68.1369
 11
-143.464
 21
68.2698
  0
LINE
  8
0
 10
-143.464
 20
68.2698
 11
-143.266
 21
68.3787
  0
LINE
  8
0
 10
-143.266
 20
68.3787
 11
-143.056
 21
68.4619
  0
LINE
  8
0
 10
-143.056
 20
68.4619
 11
-142.837
 21
68.5181
  0
LINE
  8
0
 10
-142.837
 20
68.5181
 11
-142.613
 21
68.5464
  0
LINE
  8
0
 10
-142.613
 20
68.5464
 11
-142.387
 21
68.5464
  0
LINE
  8
0
 10
-142.387
 20
68.5464
 11
-142.163
 21
68.5181
  0
LINE
  8
0
 10
-142.163
 20
68.5181
 11
-141.944
 21
68.4619
  0
LINE
  8
0
 10
-141.944
 20
68.4619
 11
-141.734
 21
68.3787
  0
LINE
  8
0
 10
-141.734
 20
68.3787
 11
-141.536
 21
68.2698
  0
LINE
  8
0
 10
-141.536
 20
68.2698
 11
-141.353
 21
68.1369
  0
LINE
  8
0
 10
-141.353
 20
68.1369
 11
-141.188
 21
67.9822
  0
LINE
  8
0
 10
-141.188
 20
67.9822
 11
-141.044
 21
67.808
  0
LINE
  8
0
 10
-141.044
 20
67.808
 11
-140.923
 21
67.6171
  0
LINE
  8
0
 10
-140.923
 20
67.6171
 11
-140.826
 21
67.4126
  0
LINE
  8
0
 10
-140.826
 20
67.4126
 11
-140.757
 21
67.1976
  0
LINE
  8
0
 10
-140.757
 20
67.1976
 11
-140.714
 21
66.9756
  0
LINE
  8
0
 10
-140.714
 20
66.9756
 11
-140.7
 21
66.75
  0
LINE
  8
0
 10
-140.7
 20
66.75
 11
-140.714
 21
66.5244
  0
LINE
  8
0
 10
-140.714
 20
66.5244
 11
-140.757
 21
66.3024
  0
LINE
  8
0
 10
-140.757
 20
66.3024
 11
-140.826
 21
66.0874
  0
LINE
  8
0
 10
-140.826
 20
66.0874
 11
-140.923
 21
65.8828
  0
LINE
  8
0
 10
-140.923
 20
65.8828
 11
-141.044
 21
65.692
  0
LINE
  8
0
 10
-141.044
 20
65.692
 11
-141.188
 21
65.5178
  0
LINE
  8
0
 10
-141.188
 20
65.5178
 11
-141.353
 21
65.3631
  0
LINE
  8
0
 10
-141.353
 20
65.3631
 11
-141.536
 21
65.2302
  0
LINE
  8
0
 10
-141.536
 20
65.2302
 11
-141.734
 21
65.1213
  0
LINE
  8
0
 10
-141.734
 20
65.1213
 11
-141.944
 21
65.0381
  0
LINE
  8
0
 10
-141.944
 20
65.0381
 11
-142.163
 21
64.9819
  0
LINE
  8
0
 10
-142.163
 20
64.9819
 11
-142.387
 21
64.9536
  0
LINE
  8
0
 10
-142.387
 20
64.9536
 11
-142.613
 21
64.9536
  0
LINE
  8
0
 10
142.387
 20
64.9536
 11
142.163
 21
64.9819
  0
LINE
  8
0
 10
142.163
 20
64.9819
 11
141.944
 21
65.0381
  0
LINE
  8
0
 10
141.944
 20
65.0381
 11
141.734
 21
65.1213
  0
LINE
  8
0
 10
141.734
 20
65.1213
 11
141.536
 21
65.2302
  0
LINE
  8
0
 10
141.536
 20
65.2302
 11
141.353
 21
65.3631
  0
LINE
  8
0
 10
141.353
 20
65.3631
 11
141.188
 21
65.5178
  0
LINE
  8
0
 10
141.188
 20
65.5178
 11
141.044
 21
65.692
  0
LINE
  8
0
 10
141.044
 20
65.692
 11
140.923
 21
65.8828
  0
LINE
  8
0
 10
140.923
 20
65.8828
 11
140.826
 21
66.0874
  0
LINE
  8
0
 10
140.826
 20
66.0874
 11
140.757
 21
66.3024
  0
LINE
  8
0
 10
140.757
 20
66.3024
 11
140.714
 21
66.5244
  0
LINE
  8
0
 10
140.714
 20
66.5244
 11
140.7
 21
66.75
  0
LINE
  8
0
 10
140.7
 20
66.75
 11
140.714
 21
66.9756
  0
LINE
  8
0
 10
140.714
 20
66.9756
 11
140.757
 21
67.1976
  0
LINE
  8
0
 10
140.757
 20
67.1976
 11
140.826
 21
67.4126
  0
LINE
  8
0
 10
140.826
 20
67.4126
 11
140.923
 21
67.6171
  0
LINE
  8
0
 10
140.923
 20
67.6171
 11
141.044
 21
67.808
  0
LINE
  8
0
 10
141.044
 20
67.808
 11
141.188
 21
67.9822
  0
LINE
  8
0
 10
141.188
 20
67.9822
 11
141.353
 21
68.1369
  0
LINE
  8
0
 10
141.353
 20
68.1369
 11
141.536
 21
68.2698
  0
LINE
  8
0
 10
141.536
 20
68.2698
 11
141.734
 21
68.3787
  0
LINE
  8
0
 10
141.734
 20
68.3787
 11
141.944
 21
68.4619
  0
LINE
  8
0
 10
141.944
 20
68.4619
 11
142.163
 21
68.5181
  0
LINE
  8
0
 10
142.163
 20
68.5181
 11
142.387
 21
68.5464
  0
LINE
  8
0
 10
142.387
 20
68.5464
 11
142.613
 21
68.5464
  0
LINE
  8
0
 10
142.613
 20
68.5464
 11
142.837
 21
68.5181
  0
LINE
  8
0
 10
142.837
 20
68.5181
 11
143.056
 21
68.4619
  0
LINE
  8
0
 10
143.056
 20
68.4619
 11
143.266
 21
68.3787
  0
LINE
  8
0
 10
143.266
 20
68.3787
 11
143.464
 21
68.2698
  0
LINE
  8
0
 10
143.464
 20
68.2698
 11
143.647
 21
68.1369
  0
LINE
  8
0
 10
143.647
 20
68.1369
 11
143.812
 21
67.9822
  0
LINE
  8
0
 10
143.812
 20
67.9822
 11
143.956
 21
67.808
  0
LINE
  8
0
 10
143.956
 20
67.808
 11
144.077
 21
67.6171
  0
LINE
  8
0
 10
144.077
 20
67.6171
 11
144.174
 21
67.4126
  0
LINE
  8
0
 10
144.174
 20
67.4126
 11
144.243
 21
67.1976
  0
LINE
  8
0
 10
144.243
 20
67.1976
 11
144.286
 21
66.9756
  0
LINE
  8
0
 10
144.286
 20
66.9756
 11
144.3
 21
66.75
  0
LINE
  8
0
 10
144.3
 20
66.75
 11
144.286
 21
66.5244
  0
LINE
  8
0
 10
144.286
 20
66.5244
 11
144.243
 21
66.3024
  0
LINE
  8
0
 10
144.243
 20
66.3024
 11
144.174
 21
66.0874
  0
LINE
  8
0
 10
144.174
 20
66.0874
 11
144.077
 21
65.8828
  0
LINE
  8
0
 10
144.077
 20
65.8828
 11
143.956
 21
65.692
  0
LINE
  8
0
 10
143.956
 20
65.692
 11
143.812
 21
65.5178
  0
LINE
  8
0
 10
143.812
 20
65.5178
 11
143.647
 21
65.3631
  0
LINE
  8
0
 10
143.647
 20
65.3631
 11
143.464
 21
65.2302
  0
LINE
  8
0
 10
143.464
 20
65.2302
 11
143.266
 21
65.1213
  0
LINE
  8
0
 10
143.266
 20
65.1213
 11
143.056
 21
65.0381
  0
LINE
  8
0
 10
143.056
 20
65.0381
 11
142.837
 21
64.9819
  0
LINE
  8
0
 10
142.837
 20
64.9819
 11
142.613
 21
64.9536
  0
LINE
  8
0
 10
142.613
 20
64.9536
 11
142.387
 21
64.9536
  0
LINE
  8
0
 10
142.387
 20
57.4536
 11
142.163
 21
57.4819
  0
LINE
  8
0
 10
142.163
 20
57.4819
 11
141.944
 21
57.5381
  0
LINE
  8
0
 10
141.944
 20
57.5381
 11
141.734
 21
57.6213
  0
LINE
  8
0
 10
141.734
 20
57.6213
 11
141.536
 21
57.7302
  0
LINE
  8
0
 10
141.536
 20
57.7302
 11
141.353
 21
57.8631
  0
LINE
  8
0
 10
141.353
 20
57.8631
 11
141.188
 21
58.0178
  0
LINE
  8
0
 10
141.188
 20
58.0178
 11
141.044
 21
58.192
  0
LINE
  8
0
 10
141.044
 20
58.192
 11
140.923
 21
58.3829
  0
LINE
  8
0
 10
140.923
 20
58.3829
 11
140.826
 21
58.5874
  0
LINE
  8
0
 10
140.826
 20
58.5874
 11
140.757
 21
58.8024
  0
LINE
  8
0
 10
140.757
 20
58.8024
 11
140.714
 21
59.0244
  0
LINE
  8
0
 10
140.714
 20
59.0244
 11
140.7
 21
59.25
  0
LINE
  8
0
 10
140.7
 20
59.25
 11
140.714
 21
59.4756
  0
LINE
  8
0
 10
140.714
 20
59.4756
 11
140.757
 21
59.6976
  0
LINE
  8
0
 10
140.757
 20
59.6976
 11
140.826
 21
59.9126
  0
LINE
  8
0
 10
140.826
 20
59.9126
 11
140.923
 21
60.1172
  0
LINE
  8
0
 10
140.923
 20
60.1172
 11
141.044
 21
60.308
  0
LINE
  8
0
 10
141.044
 20
60.308
 11
141.188
 21
60.4822
  0
LINE
  8
0
 10
141.188
 20
60.4822
 11
141.353
 21
60.6369
  0
LINE
  8
0
 10
141.353
 20
60.6369
 11
141.536
 21
60.7698
  0
LINE
  8
0
 10
141.536
 20
60.7698
 11
141.734
 21
60.8787
  0
LINE
  8
0
 10
141.734
 20
60.8787
 11
141.944
 21
60.9619
  0
LINE
  8
0
 10
141.944
 20
60.9619
 11
142.163
 21
61.0181
  0
LINE
  8
0
 10
142.163
 20
61.0181
 11
142.387
 21
61.0464
  0
LINE
  8
0
 10
142.387
 20
61.0464
 11
142.613
 21
61.0464
  0
LINE
  8
0
 10
142.613
 20
61.0464
 11
142.837
 21
61.0181
  0
LINE
  8
0
 10
142.837
 20
61.0181
 11
143.056
 21
60.9619
  0
LINE
  8
0
 10
143.056
 20
60.9619
 11
143.266
 21
60.8787
  0
LINE
  8
0
 10
143.266
 20
60.8787
 11
143.464
 21
60.7698
  0
LINE
  8
0
 10
143.464
 20
60.7698
 11
143.647
 21
60.6369
  0
LINE
  8
0
 10
143.647
 20
60.6369
 11
143.812
 21
60.4822
  0
LINE
  8
0
 10
143.812
 20
60.4822
 11
143.956
 21
60.308
  0
LINE
  8
0
 10
143.956
 20
60.308
 11
144.077
 21
60.1172
  0
LINE
  8
0
 10
144.077
 20
60.1172
 11
144.174
 21
59.9126
  0
LINE
  8
0
 10
144.174
 20
59.9126
 11
144.243
 21
59.6976
  0
LINE
  8
0
 10
144.243
 20
59.6976
 11
144.286
 21
59.4756
  0
LINE
  8
0
 10
144.286
 20
59.4756
 11
144.3
 21
59.25
  0
LINE
  8
0
 10
144.3
 20
59.25
 11
144.286
 21
59.0244
  0
LINE
  8
0
 10
144.286
 20
59.0244
 11
144.243
 21
58.8024
  0
LINE
  8
0
 10
144.243
 20
58.8024
 11
144.174
 21
58.5874
  0
LINE
  8
0
 10
144.174
 20
58.5874
 11
144.077
 21
58.3829
  0
LINE
  8
0
 10
144.077
 20
58.3829
 11
143.956
 21
58.192
  0
LINE
  8
0
 10
143.956
 20
58.192
 11
143.812
 21
58.0178
  0
LINE
  8
0
 10
143.812
 20
58.0178
 11
143.647
 21
57.8631
  0
LINE
  8
0
 10
143.647
 20
57.8631
 11
143.464
 21
57.7302
  0
LINE
  8
0
 10
143.464
 20
57.7302
 11
143.266
 21
57.6213
  0
LINE
  8
0
 10
143.266
 20
57.6213
 11
143.056
 21
57.5381
  0
LINE
  8
0
 10
143.056
 20
57.5381
 11
142.837
 21
57.4819
  0
LINE
  8
0
 10
142.837
 20
57.4819
 11
142.613
 21
57.4536
  0
LINE
  8
0
 10
142.613
 20
57.4536
 11
142.387
 21
57.4536
  0
LINE
  8
0
 10
-142.613
 20
57.4536
 11
-142.837
 21
57.4819
  0
LINE
  8
0
 10
-142.837
 20
57.4819
 11
-143.056
 21
57.5381
  0
LINE
  8
0
 10
-143.056
 20
57.5381
 11
-143.266
 21
57.6213
  0
LINE
  8
0
 10
-143.266
 20
57.6213
 11
-143.464
 21
57.7302
  0
LINE
  8
0
 10
-143.464
 20
57.7302
 11
-143.647
 21
57.8631
  0
LINE
  8
0
 10
-143.647
 20
57.8631
 11
-143.812
 21
58.0178
  0
LINE
  8
0
 10
-143.812
 20
58.0178
 11
-143.956
 21
58.192
  0
LINE
  8
0
 10
-143.956
 20
58.192
 11
-144.077
 21
58.3829
  0
LINE
  8
0
 10
-144.077
 20
58.3829
 11
-144.174
 21
58.5874
  0
LINE
  8
0
 10
-144.174
 20
58.5874
 11
-144.243
 21
58.8024
  0
LINE
  8
0
 10
-144.243
 20
58.8024
 11
-144.286
 21
59.0244
  0
LINE
  8
0
 10
-144.286
 20
59.0244
 11
-144.3
 21
59.25
  0
LINE
  8
0
 10
-144.3
 20
59.25
 11
-144.286
 21
59.4756
  0
LINE
  8
0
 10
-144.286
 20
59.4756
 11
-144.243
 21
59.6976
  0
LINE
  8
0
 10
-144.243
 20
59.6976
 11
-144.174
 21
59.9126
  0
LINE
  8
0
 10
-144.174
 20
59.9126
 11
-144.077
 21
60.1172
  0
LINE
  8
0
 10
-144.077
 20
60.1172
 11
-143.956
 21
60.308
  0
LINE
  8
0
 10
-143.956
 20
60.308
 11
-143.812
 21
60.4822
  0
LINE
  8
0
 10
-143.812
 20
60.4822
 11
-143.647
 21
60.6369
  0
LINE
  8
0
 10
-143.647
 20
60.6369
 11
-143.464
 21
60.7698
  0
LINE
  8
0
 10
-143.464
 20
60.7698
 11
-143.266
 21
60.8787
  0
LINE
  8
0
 10
-143.266
 20
60.8787
 11
-143.056
 21
60.9619
  0
LINE
  8
0
 10
-143.056
 20
60.9619
 11
-142.837
 21
61.0181
  0
LINE
  8
0
 10
-142.837
 20
61.0181
 11
-142.613
 21
61.0464
  0
LINE
  8
0
 10
-142.613
 20
61.0464
 11
-142.387
 21
61.0464
  0
LINE
  8
0
 10
-142.387
 20
61.0464
 11
-142.163
 21
61.0181
  0
LINE
  8
0
 10
-142.163
 20
61.0181
 11
-141.944
 21
60.9619
  0
LINE
  8
0
 10
-141.944
 20
60.9619
 11
-141.734
 21
60.8787
  0
LINE
  8
0
 10
-141.734
 20
60.8787
 11
-141.536
 21
60.7698
  0
LINE
  8
0
 10
-141.536
 20
60.7698
 11
-141.353
 21
60.6369
  0
LINE
  8
0
 10
-141.353
 20
60.6369
 11
-141.188
 21
60.4822
  0
LINE
  8
0
 10
-141.188
 20
60.4822
 11
-141.044
 21
60.308
  0
LINE
  8
0
 10
-141.044
 20
60.308
 11
-140.923
 21
60.1172
  0
LINE
  8
0
 10
-140.923
 20
60.1172
 11
-140.826
 21
59.9126
  0
LINE
  8
0
 10
-140.826
 20
59.9126
 11
-140.757
 21
59.6976
  0
LINE
  8
0
 10
-140.757
 20
59.6976
 11
-140.714
 21
59.4756
  0
LINE
  8
0
 10
-140.714
 20
59.4756
 11
-140.7
 21
59.25
  0
LINE
  8
0
 10
-140.7
 20
59.25
 11
-140.714
 21
59.0244
  0
LINE
  8
0
 10
-140.714
 20
59.0244
 11
-140.757
 21
58.8024
  0
LINE
  8
0
 10
-140.757
 20
58.8024
 11
-140.826
 21
58.5874
  0
LINE
  8
0
 10
-140.826
 20
58.5874
 11
-140.923
 21
58.3829
  0
LINE
  8
0
 10
-140.923
 20
58.3829
 11
-141.044
 21
58.192
  0
LINE
  8
0
 10
-141.044
 20
58.192
 11
-141.188
 21
58.0178
  0
LINE
  8
0
 10
-141.188
 20
58.0178
 11
-141.353
 21
57.8631
  0
LINE
  8
0
 10
-141.353
 20
57.8631
 11
-141.536
 21
57.7302
  0
LINE
  8
0
 10
-141.536
 20
57.7302
 11
-141.734
 21
57.6213
  0
LINE
  8
0
 10
-141.734
 20
57.6213
 11
-141.944
 21
57.5381
  0
LINE
  8
0
 10
-141.944
 20
57.5381
 11
-142.163
 21
57.4819
  0
LINE
  8
0
 10
-142.163
 20
57.4819
 11
-142.387
 21
57.4536
  0
LINE
  8
0
 10
-142.387
 20
57.4536
 11
-142.613
 21
57.4536
  0
ENDSEC
  0
SECTION
  2
OBJECTS
  0
DICTIONARY
  0
ENDSEC
  0
EOF
