<?xml version="1.0" standalone="no"?>
<!DOCTYPE svg PUBLIC "-//W3C//DTD SVG 1.1//EN" "http://www.w3.org/Graphics/SVG/1.1/DTD/svg11.dtd">
<svg width="300mm" height="87mm" viewBox="-150 -138 300 87" xmlns="http://www.w3.org/2000/svg" version="1.1">
<title>OpenSCAD Model</title>
<path d="
M 145.937,-114.839 L 146.545,-114.995 L 147.129,-115.226 L 147.679,-115.528 L 148.187,-115.897 L 148.645,-116.327
 L 149.045,-116.811 L 149.382,-117.341 L 149.649,-117.909 L 149.843,-118.507 L 149.961,-119.123 L 150,-119.75
 L 150,-132.25 L 149.961,-132.877 L 149.843,-133.493 L 149.649,-134.091 L 149.382,-134.659 L 149.045,-135.189
 L 148.645,-135.673 L 148.187,-136.103 L 147.679,-136.472 L 147.129,-136.774 L 146.545,-137.005 L 145.937,-137.161
 L 145.314,-137.24 L -145.314,-137.24 L -145.937,-137.161 L -146.545,-137.005 L -147.129,-136.774 L -147.679,-136.472
 L -148.187,-136.103 L -148.645,-135.673 L -149.045,-135.189 L -149.382,-134.659 L -149.649,-134.091 L -149.843,-133.493
 L -149.961,-132.877 L -150,-132.25 L -150,-119.75 L -149.961,-119.123 L -149.843,-118.507 L -149.649,-117.909
 L -149.382,-117.341 L -149.045,-116.811 L -148.645,-116.327 L -148.187,-115.897 L -147.679,-115.528 L -147.129,-115.226
 L -146.545,-114.995 L -145.937,-114.839 L -145.314,-114.76 L 145.314,-114.76 z
M -145.048,-115.259 L -145.64,-115.334 L -146.218,-115.482 L -146.772,-115.702 L -147.295,-115.989 L -147.778,-116.34
 L -148.213,-116.748 L -148.593,-117.208 L -148.912,-117.712 L -149.166,-118.251 L -149.351,-118.819 L -149.463,-119.405
 L -149.5,-120 L -149.5,-132 L -149.463,-132.595 L -149.351,-133.181 L -149.166,-133.749 L -148.912,-134.288
 L -148.593,-134.792 L -148.213,-135.252 L -147.778,-135.66 L -147.295,-136.011 L -146.772,-136.298 L -146.218,-136.518
 L -145.64,-136.666 L -145.048,-136.741 L 145.048,-136.741 L 145.64,-136.666 L 146.218,-136.518 L 146.772,-136.298
 L 147.295,-136.011 L 147.778,-135.66 L 148.213,-135.252 L 148.593,-134.792 L 148.912,-134.288 L 149.166,-133.749
 L 149.351,-133.181 L 149.463,-132.595 L 149.5,-132 L 149.5,-120 L 149.463,-119.405 L 149.351,-118.819
 L 149.166,-118.251 L 148.912,-117.712 L 148.593,-117.208 L 148.213,-116.748 L 147.778,-116.34 L 147.295,-115.989
 L 146.772,-115.702 L 146.218,-115.482 L 145.64,-115.334 L 145.048,-115.259 z
M 145.937,-83.3386 L 146.545,-83.4947 L 147.129,-83.7259 L 147.679,-84.0284 L 148.187,-84.3974 L 148.645,-84.8273
 L 149.045,-85.3111 L 149.382,-85.8412 L 149.649,-86.4094 L 149.843,-87.0066 L 149.961,-87.6233 L 150,-88.25
 L 150,-100.75 L 149.961,-101.377 L 149.843,-101.993 L 149.649,-102.591 L 149.382,-103.159 L 149.045,-103.689
 L 148.645,-104.173 L 148.187,-104.603 L 147.679,-104.972 L 147.129,-105.274 L 146.545,-105.505 L 145.937,-105.661
 L 145.314,-105.74 L -145.314,-105.74 L -145.937,-105.661 L -146.545,-105.505 L -147.129,-105.274 L -147.679,-104.972
 L -148.187,-104.603 L -148.645,-104.173 L -149.045,-103.689 L -149.382,-103.159 L -149.649,-102.591 L -149.843,-101.993
 L -149.961,-101.377 L -150,-100.75 L -150,-88.25 L -149.961,-87.6233 L -149.843,-87.0066 L -149.649,-86.4094
 L -149.382,-85.8412 L -149.045,-85.3111 L -148.645,-84.8273 L -148.187,-84.3974 L -147.679,-84.0284 L -147.129,-83.7259
 L -146.545,-83.4947 L -145.937,-83.3386 L -145.314,-83.2599 L 145.314,-83.2599 z
M -144.993,-84.6382 L -145.475,-84.6991 L -145.946,-84.8199 L -146.398,-84.9988 L -146.823,-85.2329 L -147.216,-85.5185
 L -147.571,-85.8512 L -147.88,-86.2256 L -148.141,-86.6359 L -148.348,-87.0756 L -148.498,-87.5377 L -148.589,-88.015
 L -148.619,-88.5 L -148.619,-100.5 L -148.589,-100.985 L -148.498,-101.462 L -148.348,-101.924 L -148.141,-102.364
 L -147.88,-102.774 L -147.571,-103.149 L -147.216,-103.481 L -146.823,-103.767 L -146.398,-104.001 L -145.946,-104.18
 L -145.475,-104.301 L -144.993,-104.362 L 144.993,-104.362 L 145.475,-104.301 L 145.946,-104.18 L 146.398,-104.001
 L 146.823,-103.767 L 147.216,-103.481 L 147.571,-103.149 L 147.88,-102.774 L 148.141,-102.364 L 148.348,-101.924
 L 148.498,-101.462 L 148.589,-100.985 L 148.619,-100.5 L 148.619,-88.5 L 148.589,-88.015 L 148.498,-87.5377
 L 148.348,-87.0756 L 148.141,-86.6359 L 147.88,-86.2256 L 147.571,-85.8512 L 147.216,-85.5185 L 146.823,-85.2329
 L 146.398,-84.9988 L 145.946,-84.8199 L 145.475,-84.6991 L 144.993,-84.6382 z
M 145.937,-51.8386 L 146.545,-51.9947 L 147.129,-52.2259 L 147.679,-52.5284 L 148.187,-52.8974 L 148.645,-53.3273
 L 149.045,-53.8111 L 149.382,-54.3412 L 149.649,-54.9094 L 149.843,-55.5066 L 149.961,-56.1233 L 150,-56.75
 L 150,-69.25 L 149.961,-69.8767 L 149.843,-70.4934 L 149.649,-71.0906 L 149.382,-71.6588 L 149.045,-72.1889
 L 148.645,-72.6727 L 148.187,-73.1026 L 147.679,-73.4716 L 147.129,-73.7741 L 146.545,-74.0053 L 145.937,-74.1614
 L 145.314,-74.2401 L -145.314,-74.2401 L -145.937,-74.1614 L -146.545,-74.0053 L -147.129,-73.7741 L -147.679,-73.4716
 L -148.187,-73.1026 L -148.645,-72.6727 L -149.045,-72.1889 L -149.382,-71.6588 L -149.649,-71.0906 L -149.843,-70.4934
 L -149.961,-69.8767 L -150,-69.25 L -150,-56.75 L -149.961,-56.1233 L -149.843,-55.5066 L -149.649,-54.9094
 L -149.382,-54.3412 L -149.045,-53.8111 L -148.645,-53.3273 L -148.187,-52.8974 L -147.679,-52.5284 L -147.129,-52.2259
 L -146.545,-51.9947 L -145.937,-51.8386 L -145.314,-51.7599 L 145.314,-51.7599 z
M -142.613,-64.9536 L -142.837,-64.9819 L -143.056,-65.0381 L -143.266,-65.1213 L -143.464,-65.2302 L -143.647,-65.3631
 L -143.812,-65.5178 L -143.956,-65.692 L -144.077,-65.8828 L -144.174,-66.0874 L -144.243,-66.3024 L -144.286,-66.5244
 L -144.3,-66.75 L -144.286,-66.9756 L -144.243,-67.1976 L -144.174,-67.4126 L -144.077,-67.6171 L -143.956,-67.808
 L -143.812,-67.9822 L -143.647,-68.1369 L -143.464,-68.2698 L -143.266,-68.3787 L -143.056,-68.4619 L -142.837,-68.5181
 L -142.613,-68.5464 L -142.387,-68.5464 L -142.163,-68.5181 L -141.944,-68.4619 L -141.734,-68.3787 L -141.536,-68.2698
 L -141.353,-68.1369 L -141.188,-67.9822 L -141.044,-67.808 L -140.923,-67.6171 L -140.826,-67.4126 L -140.757,-67.1976
 L -140.714,-66.9756 L -140.7,-66.75 L -140.714,-66.5244 L -140.757,-66.3024 L -140.826,-66.0874 L -140.923,-65.8828
 L -141.044,-65.692 L -141.188,-65.5178 L -141.353,-65.3631 L -141.536,-65.2302 L -141.734,-65.1213 L -141.944,-65.0381
 L -142.163,-64.9819 L -142.387,-64.9536 z
M 142.387,-64.9536 L 142.163,-64.9819 L 141.944,-65.0381 L 141.734,-65.1213 L 141.536,-65.2302 L 141.353,-65.3631
 L 141.188,-65.5178 L 141.044,-65.692 L 140.923,-65.8828 L 140.826,-66.0874 L 140.757,-66.3024 L 140.714,-66.5244
 L 140.7,-66.75 L 140.714,-66.9756 L 140.757,-67.1976 L 140.826,-67.4126 L 140.923,-67.6171 L 141.044,-67.808
 L 141.188,-67.9822 L 141.353,-68.1369 L 141.536,-68.2698 L 141.734,-68.3787 L 141.944,-68.4619 L 142.163,-68.5181
 L 142.387,-68.5464 L 142.613,-68.5464 L 142.837,-68.5181 L 143.056,-68.4619 L 143.266,-68.3787 L 143.464,-68.2698
 L 143.647,-68.1369 L 143.812,-67.9822 L 143.956,-67.808 L 144.077,-67.6171 L 144.174,-67.4126 L 144.243,-67.1976
 L 144.286,-66.9756 L 144.3,-66.75 L 144.286,-66.5244 L 144.243,-66.3024 L 144.174,-66.0874 L 144.077,-65.8828
 L 143.956,-65.692 L 143.812,-65.5178 L 143.647,-65.3631 L 143.464,-65.2302 L 143.266,-65.1213 L 143.056,-65.0381
 L 142.837,-64.9819 L 142.613,-64.9536 z
M 142.387,-57.4536 L 142.163,-57.4819 L 141.944,-57.5381 L 141.734,-57.6213 L 141.536,-57.7302 L 141.353,-57.8631
 L 141.188,-58.0178 L 141.044,-58.192 L 140.923,-58.3829 L 140.826,-58.5874 L 140.757,-58.8024 L 140.714,-59.0244
 L 140.7,-59.25 L 140.714,-59.4756 L 140.757,-59.6976 L 140.826,-59.9126 L 140.923,-60.1172 L 141.044,-60.308
 L 141.188,-60.4822 L 141.353,-60.6369 L 141.536,-60.7698 L 141.734,-60.8787 L 141.944,-60.9619 L 142.163,-61.0181
 L 142.387,-61.0464 L 142.613,-61.0464 L 142.837,-61.0181 L 143.056,-60.9619 L 143.266,-60.8787 L 143.464,-60.7698
 L 143.647,-60.6369 L 143.812,-60.4822 L 143.956,-60.308 L 144.077,-60.1172 L 144.174,-59.9126 L 144.243,-59.6976
 L 144.286,-59.4756 L 144.3,-59.25 L 144.286,-59.0244 L 144.243,-58.8024 L 144.174,-58.5874 L 144.077,-58.3829
 L 143.956,-58.192 L 143.812,-58.0178 L 143.647,-57.8631 L 143.464,-57.7302 L 143.266,-57.6213 L 143.056,-57.5381
 L 142.837,-57.4819 L 142.613,-57.4536 z
M -142.613,-57.4536 L -142.837,-57.4819 L -143.056,-57.5381 L -143.266,-57.6213 L -143.464,-57.7302 L -143.647,-57.8631
 L -143.812,-58.0178 L -143.956,-58.192 L -144.077,-58.3829 L -144.174,-58.5874 L -144.243,-58.8024 L -144.286,-59.0244
 L -144.3,-59.25 L -144.286,-59.4756 L -144.243,-59.6976 L -144.174,-59.9126 L -144.077,-60.1172 L -143.956,-60.308
 L -143.812,-60.4822 L -143.647,-60.6369 L -143.464,-60.7698 L -143.266,-60.8787 L -143.056,-60.9619 L -142.837,-61.0181
 L -142.613,-61.0464 L -142.387,-61.0464 L -142.163,-61.0181 L -141.944,-60.9619 L -141.734,-60.8787 L -141.536,-60.7698
 L -141.353,-60.6369 L -141.188,-60.4822 L -141.044,-60.308 L -140.923,-60.1172 L -140.826,-59.9126 L -140.757,-59.6976
 L -140.714,-59.4756 L -140.7,-59.25 L -140.714,-59.0244 L -140.757,-58.8024 L -140.826,-58.5874 L -140.923,-58.3829
 L -141.044,-58.192 L -141.188,-58.0178 L -141.353,-57.8631 L -141.536,-57.7302 L -141.734,-57.6213 L -141.944,-57.5381
 L -142.163,-57.4819 L -142.387,-57.4536 z
" stroke="black" fill="lightgray" stroke-width="0.5"/>
</svg>
