  0
SECTION
  2
BLOCKS
  0
ENDSEC
  0
SECTION
  2
ENTITIES
  0
LINE
  8
0
 10
138.437
 20
561.089
 11
139.045
 21
561.245
  0
LINE
  8
0
 10
139.045
 20
561.245
 11
139.629
 21
561.476
  0
LINE
  8
0
 10
139.629
 20
561.476
 11
140.179
 21
561.778
  0
LINE
  8
0
 10
140.179
 20
561.778
 11
140.687
 21
562.147
  0
LINE
  8
0
 10
140.687
 20
562.147
 11
141.145
 21
562.577
  0
LINE
  8
0
 10
141.145
 20
562.577
 11
141.545
 21
563.061
  0
LINE
  8
0
 10
141.545
 20
563.061
 11
141.882
 21
563.591
  0
LINE
  8
0
 10
141.882
 20
563.591
 11
142.149
 21
564.159
  0
LINE
  8
0
 10
142.149
 20
564.159
 11
142.343
 21
564.757
  0
LINE
  8
0
 10
142.343
 20
564.757
 11
142.461
 21
565.373
  0
LINE
  8
0
 10
142.461
 20
565.373
 11
142.5
 21
566
  0
LINE
  8
0
 10
142.5
 20
566
 11
142.5
 21
706
  0
LINE
  8
0
 10
142.5
 20
706
 11
142.461
 21
706.627
  0
LINE
  8
0
 10
142.461
 20
706.627
 11
142.343
 21
707.243
  0
LINE
  8
0
 10
142.343
 20
707.243
 11
142.149
 21
707.841
  0
LINE
  8
0
 10
142.149
 20
707.841
 11
141.882
 21
708.409
  0
LINE
  8
0
 10
141.882
 20
708.409
 11
141.545
 21
708.939
  0
LINE
  8
0
 10
141.545
 20
708.939
 11
141.145
 21
709.423
  0
LINE
  8
0
 10
141.145
 20
709.423
 11
140.687
 21
709.853
  0
LINE
  8
0
 10
140.687
 20
709.853
 11
140.179
 21
710.222
  0
LINE
  8
0
 10
140.179
 20
710.222
 11
139.629
 21
710.524
  0
LINE
  8
0
 10
139.629
 20
710.524
 11
139.045
 21
710.755
  0
LINE
  8
0
 10
139.045
 20
710.755
 11
138.437
 21
710.911
  0
LINE
  8
0
 10
138.437
 20
710.911
 11
137.814
 21
710.99
  0
LINE
  8
0
 10
137.814
 20
710.99
 11
-137.814
 21
710.99
  0
LINE
  8
0
 10
-137.814
 20
710.99
 11
-138.437
 21
710.911
  0
LINE
  8
0
 10
-138.437
 20
710.911
 11
-139.045
 21
710.755
  0
LINE
  8
0
 10
-139.045
 20
710.755
 11
-139.629
 21
710.524
  0
LINE
  8
0
 10
-139.629
 20
710.524
 11
-140.179
 21
710.222
  0
LINE
  8
0
 10
-140.179
 20
710.222
 11
-140.687
 21
709.853
  0
LINE
  8
0
 10
-140.687
 20
709.853
 11
-141.145
 21
709.423
  0
LINE
  8
0
 10
-141.145
 20
709.423
 11
-141.545
 21
708.939
  0
LINE
  8
0
 10
-141.545
 20
708.939
 11
-141.882
 21
708.409
  0
LINE
  8
0
 10
-141.882
 20
708.409
 11
-142.149
 21
707.841
  0
LINE
  8
0
 10
-142.149
 20
707.841
 11
-142.343
 21
707.243
  0
LINE
  8
0
 10
-142.343
 20
707.243
 11
-142.461
 21
706.627
  0
LINE
  8
0
 10
-142.461
 20
706.627
 11
-142.5
 21
706
  0
LINE
  8
0
 10
-142.5
 20
706
 11
-142.5
 21
566
  0
LINE
  8
0
 10
-142.5
 20
566
 11
-142.461
 21
565.373
  0
LINE
  8
0
 10
-142.461
 20
565.373
 11
-142.343
 21
564.757
  0
LINE
  8
0
 10
-142.343
 20
564.757
 11
-142.149
 21
564.159
  0
LINE
  8
0
 10
-142.149
 20
564.159
 11
-141.882
 21
563.591
  0
LINE
  8
0
 10
-141.882
 20
563.591
 11
-141.545
 21
563.061
  0
LINE
  8
0
 10
-141.545
 20
563.061
 11
-141.145
 21
562.577
  0
LINE
  8
0
 10
-141.145
 20
562.577
 11
-140.687
 21
562.147
  0
LINE
  8
0
 10
-140.687
 20
562.147
 11
-140.179
 21
561.778
  0
LINE
  8
0
 10
-140.179
 20
561.778
 11
-139.629
 21
561.476
  0
LINE
  8
0
 10
-139.629
 20
561.476
 11
-139.045
 21
561.245
  0
LINE
  8
0
 10
-139.045
 20
561.245
 11
-138.437
 21
561.089
  0
LINE
  8
0
 10
-138.437
 20
561.089
 11
-137.814
 21
561.01
  0
LINE
  8
0
 10
-137.814
 20
561.01
 11
137.814
 21
561.01
  0
LINE
  8
0
 10
137.814
 20
561.01
 11
138.437
 21
561.089
  0
LINE
  8
0
 10
-137.548
 20
561.509
 11
-138.14
 21
561.584
  0
LINE
  8
0
 10
-138.14
 20
561.584
 11
-138.718
 21
561.732
  0
LINE
  8
0
 10
-138.718
 20
561.732
 11
-139.272
 21
561.952
  0
LINE
  8
0
 10
-139.272
 20
561.952
 11
-139.795
 21
562.239
  0
LINE
  8
0
 10
-139.795
 20
562.239
 11
-140.278
 21
562.59
  0
LINE
  8
0
 10
-140.278
 20
562.59
 11
-140.713
 21
562.998
  0
LINE
  8
0
 10
-140.713
 20
562.998
 11
-141.093
 21
563.458
  0
LINE
  8
0
 10
-141.093
 20
563.458
 11
-141.412
 21
563.962
  0
LINE
  8
0
 10
-141.412
 20
563.962
 11
-141.666
 21
564.501
  0
LINE
  8
0
 10
-141.666
 20
564.501
 11
-141.851
 21
565.069
  0
LINE
  8
0
 10
-141.851
 20
565.069
 11
-141.963
 21
565.655
  0
LINE
  8
0
 10
-141.963
 20
565.655
 11
-142
 21
566.25
  0
LINE
  8
0
 10
-142
 20
566.25
 11
-142
 21
705.75
  0
LINE
  8
0
 10
-142
 20
705.75
 11
-141.963
 21
706.345
  0
LINE
  8
0
 10
-141.963
 20
706.345
 11
-141.851
 21
706.931
  0
LINE
  8
0
 10
-141.851
 20
706.931
 11
-141.666
 21
707.499
  0
LINE
  8
0
 10
-141.666
 20
707.499
 11
-141.412
 21
708.038
  0
LINE
  8
0
 10
-141.412
 20
708.038
 11
-141.093
 21
708.542
  0
LINE
  8
0
 10
-141.093
 20
708.542
 11
-140.713
 21
709.002
  0
LINE
  8
0
 10
-140.713
 20
709.002
 11
-140.278
 21
709.41
  0
LINE
  8
0
 10
-140.278
 20
709.41
 11
-139.795
 21
709.761
  0
LINE
  8
0
 10
-139.795
 20
709.761
 11
-139.272
 21
710.048
  0
LINE
  8
0
 10
-139.272
 20
710.048
 11
-138.718
 21
710.268
  0
LINE
  8
0
 10
-138.718
 20
710.268
 11
-138.14
 21
710.416
  0
LINE
  8
0
 10
-138.14
 20
710.416
 11
-137.548
 21
710.491
  0
LINE
  8
0
 10
-137.548
 20
710.491
 11
137.548
 21
710.491
  0
LINE
  8
0
 10
137.548
 20
710.491
 11
138.14
 21
710.416
  0
LINE
  8
0
 10
138.14
 20
710.416
 11
138.718
 21
710.268
  0
LINE
  8
0
 10
138.718
 20
710.268
 11
139.272
 21
710.048
  0
LINE
  8
0
 10
139.272
 20
710.048
 11
139.795
 21
709.761
  0
LINE
  8
0
 10
139.795
 20
709.761
 11
140.278
 21
709.41
  0
LINE
  8
0
 10
140.278
 20
709.41
 11
140.713
 21
709.002
  0
LINE
  8
0
 10
140.713
 20
709.002
 11
141.093
 21
708.542
  0
LINE
  8
0
 10
141.093
 20
708.542
 11
141.412
 21
708.038
  0
LINE
  8
0
 10
141.412
 20
708.038
 11
141.666
 21
707.499
  0
LINE
  8
0
 10
141.666
 20
707.499
 11
141.851
 21
706.931
  0
LINE
  8
0
 10
141.851
 20
706.931
 11
141.963
 21
706.345
  0
LINE
  8
0
 10
141.963
 20
706.345
 11
142
 21
705.75
  0
LINE
  8
0
 10
142
 20
705.75
 11
142
 21
566.25
  0
LINE
  8
0
 10
142
 20
566.25
 11
141.963
 21
565.655
  0
LINE
  8
0
 10
141.963
 20
565.655
 11
141.851
 21
565.069
  0
LINE
  8
0
 10
141.851
 20
565.069
 11
141.666
 21
564.501
  0
LINE
  8
0
 10
141.666
 20
564.501
 11
141.412
 21
563.962
  0
LINE
  8
0
 10
141.412
 20
563.962
 11
141.093
 21
563.458
  0
LINE
  8
0
 10
141.093
 20
563.458
 11
140.713
 21
562.998
  0
LINE
  8
0
 10
140.713
 20
562.998
 11
140.278
 21
562.59
  0
LINE
  8
0
 10
140.278
 20
562.59
 11
139.795
 21
562.239
  0
LINE
  8
0
 10
139.795
 20
562.239
 11
139.272
 21
561.952
  0
LINE
  8
0
 10
139.272
 20
561.952
 11
138.718
 21
561.732
  0
LINE
  8
0
 10
138.718
 20
561.732
 11
138.14
 21
561.584
  0
LINE
  8
0
 10
138.14
 20
561.584
 11
137.548
 21
561.509
  0
LINE
  8
0
 10
137.548
 20
561.509
 11
-137.548
 21
561.509
  0
LINE
  8
0
 10
138.437
 20
402.089
 11
139.045
 21
402.245
  0
LINE
  8
0
 10
139.045
 20
402.245
 11
139.629
 21
402.476
  0
LINE
  8
0
 10
139.629
 20
402.476
 11
140.179
 21
402.778
  0
LINE
  8
0
 10
140.179
 20
402.778
 11
140.687
 21
403.147
  0
LINE
  8
0
 10
140.687
 20
403.147
 11
141.145
 21
403.577
  0
LINE
  8
0
 10
141.145
 20
403.577
 11
141.545
 21
404.061
  0
LINE
  8
0
 10
141.545
 20
404.061
 11
141.882
 21
404.591
  0
LINE
  8
0
 10
141.882
 20
404.591
 11
142.149
 21
405.159
  0
LINE
  8
0
 10
142.149
 20
405.159
 11
142.343
 21
405.757
  0
LINE
  8
0
 10
142.343
 20
405.757
 11
142.461
 21
406.373
  0
LINE
  8
0
 10
142.461
 20
406.373
 11
142.5
 21
407
  0
LINE
  8
0
 10
142.5
 20
407
 11
142.5
 21
547
  0
LINE
  8
0
 10
142.5
 20
547
 11
142.461
 21
547.627
  0
LINE
  8
0
 10
142.461
 20
547.627
 11
142.343
 21
548.243
  0
LINE
  8
0
 10
142.343
 20
548.243
 11
142.149
 21
548.841
  0
LINE
  8
0
 10
142.149
 20
548.841
 11
141.882
 21
549.409
  0
LINE
  8
0
 10
141.882
 20
549.409
 11
141.545
 21
549.939
  0
LINE
  8
0
 10
141.545
 20
549.939
 11
141.145
 21
550.423
  0
LINE
  8
0
 10
141.145
 20
550.423
 11
140.687
 21
550.853
  0
LINE
  8
0
 10
140.687
 20
550.853
 11
140.179
 21
551.222
  0
LINE
  8
0
 10
140.179
 20
551.222
 11
139.629
 21
551.524
  0
LINE
  8
0
 10
139.629
 20
551.524
 11
139.045
 21
551.755
  0
LINE
  8
0
 10
139.045
 20
551.755
 11
138.437
 21
551.911
  0
LINE
  8
0
 10
138.437
 20
551.911
 11
137.814
 21
551.99
  0
LINE
  8
0
 10
137.814
 20
551.99
 11
-137.814
 21
551.99
  0
LINE
  8
0
 10
-137.814
 20
551.99
 11
-138.437
 21
551.911
  0
LINE
  8
0
 10
-138.437
 20
551.911
 11
-139.045
 21
551.755
  0
LINE
  8
0
 10
-139.045
 20
551.755
 11
-139.629
 21
551.524
  0
LINE
  8
0
 10
-139.629
 20
551.524
 11
-140.179
 21
551.222
  0
LINE
  8
0
 10
-140.179
 20
551.222
 11
-140.687
 21
550.853
  0
LINE
  8
0
 10
-140.687
 20
550.853
 11
-141.145
 21
550.423
  0
LINE
  8
0
 10
-141.145
 20
550.423
 11
-141.545
 21
549.939
  0
LINE
  8
0
 10
-141.545
 20
549.939
 11
-141.882
 21
549.409
  0
LINE
  8
0
 10
-141.882
 20
549.409
 11
-142.149
 21
548.841
  0
LINE
  8
0
 10
-142.149
 20
548.841
 11
-142.343
 21
548.243
  0
LINE
  8
0
 10
-142.343
 20
548.243
 11
-142.461
 21
547.627
  0
LINE
  8
0
 10
-142.461
 20
547.627
 11
-142.5
 21
547
  0
LINE
  8
0
 10
-142.5
 20
547
 11
-142.5
 21
407
  0
LINE
  8
0
 10
-142.5
 20
407
 11
-142.461
 21
406.373
  0
LINE
  8
0
 10
-142.461
 20
406.373
 11
-142.343
 21
405.757
  0
LINE
  8
0
 10
-142.343
 20
405.757
 11
-142.149
 21
405.159
  0
LINE
  8
0
 10
-142.149
 20
405.159
 11
-141.882
 21
404.591
  0
LINE
  8
0
 10
-141.882
 20
404.591
 11
-141.545
 21
404.061
  0
LINE
  8
0
 10
-141.545
 20
404.061
 11
-141.145
 21
403.577
  0
LINE
  8
0
 10
-141.145
 20
403.577
 11
-140.687
 21
403.147
  0
LINE
  8
0
 10
-140.687
 20
403.147
 11
-140.179
 21
402.778
  0
LINE
  8
0
 10
-140.179
 20
402.778
 11
-139.629
 21
402.476
  0
LINE
  8
0
 10
-139.629
 20
402.476
 11
-139.045
 21
402.245
  0
LINE
  8
0
 10
-139.045
 20
402.245
 11
-138.437
 21
402.089
  0
LINE
  8
0
 10
-138.437
 20
402.089
 11
-137.814
 21
402.01
  0
LINE
  8
0
 10
-137.814
 20
402.01
 11
137.814
 21
402.01
  0
LINE
  8
0
 10
137.814
 20
402.01
 11
138.437
 21
402.089
  0
LINE
  8
0
 10
-137.493
 20
403.388
 11
-137.975
 21
403.449
  0
LINE
  8
0
 10
-137.975
 20
403.449
 11
-138.446
 21
403.57
  0
LINE
  8
0
 10
-138.446
 20
403.57
 11
-138.898
 21
403.749
  0
LINE
  8
0
 10
-138.898
 20
403.749
 11
-139.323
 21
403.983
  0
LINE
  8
0
 10
-139.323
 20
403.983
 11
-139.716
 21
404.269
  0
LINE
  8
0
 10
-139.716
 20
404.269
 11
-140.071
 21
404.601
  0
LINE
  8
0
 10
-140.071
 20
404.601
 11
-140.38
 21
404.976
  0
LINE
  8
0
 10
-140.38
 20
404.976
 11
-140.641
 21
405.386
  0
LINE
  8
0
 10
-140.641
 20
405.386
 11
-140.848
 21
405.826
  0
LINE
  8
0
 10
-140.848
 20
405.826
 11
-140.998
 21
406.288
  0
LINE
  8
0
 10
-140.998
 20
406.288
 11
-141.089
 21
406.765
  0
LINE
  8
0
 10
-141.089
 20
406.765
 11
-141.119
 21
407.25
  0
LINE
  8
0
 10
-141.119
 20
407.25
 11
-141.119
 21
546.75
  0
LINE
  8
0
 10
-141.119
 20
546.75
 11
-141.089
 21
547.235
  0
LINE
  8
0
 10
-141.089
 20
547.235
 11
-140.998
 21
547.712
  0
LINE
  8
0
 10
-140.998
 20
547.712
 11
-140.848
 21
548.174
  0
LINE
  8
0
 10
-140.848
 20
548.174
 11
-140.641
 21
548.614
  0
LINE
  8
0
 10
-140.641
 20
548.614
 11
-140.38
 21
549.024
  0
LINE
  8
0
 10
-140.38
 20
549.024
 11
-140.071
 21
549.399
  0
LINE
  8
0
 10
-140.071
 20
549.399
 11
-139.716
 21
549.731
  0
LINE
  8
0
 10
-139.716
 20
549.731
 11
-139.323
 21
550.017
  0
LINE
  8
0
 10
-139.323
 20
550.017
 11
-138.898
 21
550.251
  0
LINE
  8
0
 10
-138.898
 20
550.251
 11
-138.446
 21
550.43
  0
LINE
  8
0
 10
-138.446
 20
550.43
 11
-137.975
 21
550.551
  0
LINE
  8
0
 10
-137.975
 20
550.551
 11
-137.493
 21
550.612
  0
LINE
  8
0
 10
-137.493
 20
550.612
 11
137.493
 21
550.612
  0
LINE
  8
0
 10
137.493
 20
550.612
 11
137.975
 21
550.551
  0
LINE
  8
0
 10
137.975
 20
550.551
 11
138.446
 21
550.43
  0
LINE
  8
0
 10
138.446
 20
550.43
 11
138.898
 21
550.251
  0
LINE
  8
0
 10
138.898
 20
550.251
 11
139.323
 21
550.017
  0
LINE
  8
0
 10
139.323
 20
550.017
 11
139.716
 21
549.731
  0
LINE
  8
0
 10
139.716
 20
549.731
 11
140.071
 21
549.399
  0
LINE
  8
0
 10
140.071
 20
549.399
 11
140.38
 21
549.024
  0
LINE
  8
0
 10
140.38
 20
549.024
 11
140.641
 21
548.614
  0
LINE
  8
0
 10
140.641
 20
548.614
 11
140.848
 21
548.174
  0
LINE
  8
0
 10
140.848
 20
548.174
 11
140.998
 21
547.712
  0
LINE
  8
0
 10
140.998
 20
547.712
 11
141.089
 21
547.235
  0
LINE
  8
0
 10
141.089
 20
547.235
 11
141.119
 21
546.75
  0
LINE
  8
0
 10
141.119
 20
546.75
 11
141.119
 21
407.25
  0
LINE
  8
0
 10
141.119
 20
407.25
 11
141.089
 21
406.765
  0
LINE
  8
0
 10
141.089
 20
406.765
 11
140.998
 21
406.288
  0
LINE
  8
0
 10
140.998
 20
406.288
 11
140.848
 21
405.826
  0
LINE
  8
0
 10
140.848
 20
405.826
 11
140.641
 21
405.386
  0
LINE
  8
0
 10
140.641
 20
405.386
 11
140.38
 21
404.976
  0
LINE
  8
0
 10
140.38
 20
404.976
 11
140.071
 21
404.601
  0
LINE
  8
0
 10
140.071
 20
404.601
 11
139.716
 21
404.269
  0
LINE
  8
0
 10
139.716
 20
404.269
 11
139.323
 21
403.983
  0
LINE
  8
0
 10
139.323
 20
403.983
 11
138.898
 21
403.749
  0
LINE
  8
0
 10
138.898
 20
403.749
 11
138.446
 21
403.57
  0
LINE
  8
0
 10
138.446
 20
403.57
 11
137.975
 21
403.449
  0
LINE
  8
0
 10
137.975
 20
403.449
 11
137.493
 21
403.388
  0
LINE
  8
0
 10
137.493
 20
403.388
 11
-137.493
 21
403.388
  0
LINE
  8
0
 10
138.437
 20
243.089
 11
139.045
 21
243.245
  0
LINE
  8
0
 10
139.045
 20
243.245
 11
139.629
 21
243.476
  0
LINE
  8
0
 10
139.629
 20
243.476
 11
140.179
 21
243.778
  0
LINE
  8
0
 10
140.179
 20
243.778
 11
140.687
 21
244.147
  0
LINE
  8
0
 10
140.687
 20
244.147
 11
141.145
 21
244.577
  0
LINE
  8
0
 10
141.145
 20
244.577
 11
141.545
 21
245.061
  0
LINE
  8
0
 10
141.545
 20
245.061
 11
141.882
 21
245.591
  0
LINE
  8
0
 10
141.882
 20
245.591
 11
142.149
 21
246.159
  0
LINE
  8
0
 10
142.149
 20
246.159
 11
142.343
 21
246.757
  0
LINE
  8
0
 10
142.343
 20
246.757
 11
142.461
 21
247.373
  0
LINE
  8
0
 10
142.461
 20
247.373
 11
142.5
 21
248
  0
LINE
  8
0
 10
142.5
 20
248
 11
142.5
 21
388
  0
LINE
  8
0
 10
142.5
 20
388
 11
142.461
 21
388.627
  0
LINE
  8
0
 10
142.461
 20
388.627
 11
142.343
 21
389.243
  0
LINE
  8
0
 10
142.343
 20
389.243
 11
142.149
 21
389.841
  0
LINE
  8
0
 10
142.149
 20
389.841
 11
141.882
 21
390.409
  0
LINE
  8
0
 10
141.882
 20
390.409
 11
141.545
 21
390.939
  0
LINE
  8
0
 10
141.545
 20
390.939
 11
141.145
 21
391.423
  0
LINE
  8
0
 10
141.145
 20
391.423
 11
140.687
 21
391.853
  0
LINE
  8
0
 10
140.687
 20
391.853
 11
140.179
 21
392.222
  0
LINE
  8
0
 10
140.179
 20
392.222
 11
139.629
 21
392.524
  0
LINE
  8
0
 10
139.629
 20
392.524
 11
139.045
 21
392.755
  0
LINE
  8
0
 10
139.045
 20
392.755
 11
138.437
 21
392.911
  0
LINE
  8
0
 10
138.437
 20
392.911
 11
137.814
 21
392.99
  0
LINE
  8
0
 10
137.814
 20
392.99
 11
-137.814
 21
392.99
  0
LINE
  8
0
 10
-137.814
 20
392.99
 11
-138.437
 21
392.911
  0
LINE
  8
0
 10
-138.437
 20
392.911
 11
-139.045
 21
392.755
  0
LINE
  8
0
 10
-139.045
 20
392.755
 11
-139.629
 21
392.524
  0
LINE
  8
0
 10
-139.629
 20
392.524
 11
-140.179
 21
392.222
  0
LINE
  8
0
 10
-140.179
 20
392.222
 11
-140.687
 21
391.853
  0
LINE
  8
0
 10
-140.687
 20
391.853
 11
-141.145
 21
391.423
  0
LINE
  8
0
 10
-141.145
 20
391.423
 11
-141.545
 21
390.939
  0
LINE
  8
0
 10
-141.545
 20
390.939
 11
-141.882
 21
390.409
  0
LINE
  8
0
 10
-141.882
 20
390.409
 11
-142.149
 21
389.841
  0
LINE
  8
0
 10
-142.149
 20
389.841
 11
-142.343
 21
389.243
  0
LINE
  8
0
 10
-142.343
 20
389.243
 11
-142.461
 21
388.627
  0
LINE
  8
0
 10
-142.461
 20
388.627
 11
-142.5
 21
388
  0
LINE
  8
0
 10
-142.5
 20
388
 11
-142.5
 21
248
  0
LINE
  8
0
 10
-142.5
 20
248
 11
-142.461
 21
247.373
  0
LINE
  8
0
 10
-142.461
 20
247.373
 11
-142.343
 21
246.757
  0
LINE
  8
0
 10
-142.343
 20
246.757
 11
-142.149
 21
246.159
  0
LINE
  8
0
 10
-142.149
 20
246.159
 11
-141.882
 21
245.591
  0
LINE
  8
0
 10
-141.882
 20
245.591
 11
-141.545
 21
245.061
  0
LINE
  8
0
 10
-141.545
 20
245.061
 11
-141.145
 21
244.577
  0
LINE
  8
0
 10
-141.145
 20
244.577
 11
-140.687
 21
244.147
  0
LINE
  8
0
 10
-140.687
 20
244.147
 11
-140.179
 21
243.778
  0
LINE
  8
0
 10
-140.179
 20
243.778
 11
-139.629
 21
243.476
  0
LINE
  8
0
 10
-139.629
 20
243.476
 11
-139.045
 21
243.245
  0
LINE
  8
0
 10
-139.045
 20
243.245
 11
-138.437
 21
243.089
  0
LINE
  8
0
 10
-138.437
 20
243.089
 11
-137.814
 21
243.01
  0
LINE
  8
0
 10
-137.814
 20
243.01
 11
137.814
 21
243.01
  0
LINE
  8
0
 10
137.814
 20
243.01
 11
138.437
 21
243.089
  0
LINE
  8
0
 10
-135.113
 20
383.704
 11
-135.337
 21
383.732
  0
LINE
  8
0
 10
-135.337
 20
383.732
 11
-135.556
 21
383.788
  0
LINE
  8
0
 10
-135.556
 20
383.788
 11
-135.766
 21
383.871
  0
LINE
  8
0
 10
-135.766
 20
383.871
 11
-135.964
 21
383.98
  0
LINE
  8
0
 10
-135.964
 20
383.98
 11
-136.147
 21
384.113
  0
LINE
  8
0
 10
-136.147
 20
384.113
 11
-136.312
 21
384.268
  0
LINE
  8
0
 10
-136.312
 20
384.268
 11
-136.456
 21
384.442
  0
LINE
  8
0
 10
-136.456
 20
384.442
 11
-136.577
 21
384.633
  0
LINE
  8
0
 10
-136.577
 20
384.633
 11
-136.674
 21
384.837
  0
LINE
  8
0
 10
-136.674
 20
384.837
 11
-136.743
 21
385.052
  0
LINE
  8
0
 10
-136.743
 20
385.052
 11
-136.786
 21
385.274
  0
LINE
  8
0
 10
-136.786
 20
385.274
 11
-136.8
 21
385.5
  0
LINE
  8
0
 10
-136.8
 20
385.5
 11
-136.786
 21
385.726
  0
LINE
  8
0
 10
-136.786
 20
385.726
 11
-136.743
 21
385.948
  0
LINE
  8
0
 10
-136.743
 20
385.948
 11
-136.674
 21
386.163
  0
LINE
  8
0
 10
-136.674
 20
386.163
 11
-136.577
 21
386.367
  0
LINE
  8
0
 10
-136.577
 20
386.367
 11
-136.456
 21
386.558
  0
LINE
  8
0
 10
-136.456
 20
386.558
 11
-136.312
 21
386.732
  0
LINE
  8
0
 10
-136.312
 20
386.732
 11
-136.147
 21
386.887
  0
LINE
  8
0
 10
-136.147
 20
386.887
 11
-135.964
 21
387.02
  0
LINE
  8
0
 10
-135.964
 20
387.02
 11
-135.766
 21
387.129
  0
LINE
  8
0
 10
-135.766
 20
387.129
 11
-135.556
 21
387.212
  0
LINE
  8
0
 10
-135.556
 20
387.212
 11
-135.337
 21
387.268
  0
LINE
  8
0
 10
-135.337
 20
387.268
 11
-135.113
 21
387.296
  0
LINE
  8
0
 10
-135.113
 20
387.296
 11
-134.887
 21
387.296
  0
LINE
  8
0
 10
-134.887
 20
387.296
 11
-134.663
 21
387.268
  0
LINE
  8
0
 10
-134.663
 20
387.268
 11
-134.444
 21
387.212
  0
LINE
  8
0
 10
-134.444
 20
387.212
 11
-134.234
 21
387.129
  0
LINE
  8
0
 10
-134.234
 20
387.129
 11
-134.036
 21
387.02
  0
LINE
  8
0
 10
-134.036
 20
387.02
 11
-133.853
 21
386.887
  0
LINE
  8
0
 10
-133.853
 20
386.887
 11
-133.688
 21
386.732
  0
LINE
  8
0
 10
-133.688
 20
386.732
 11
-133.544
 21
386.558
  0
LINE
  8
0
 10
-133.544
 20
386.558
 11
-133.423
 21
386.367
  0
LINE
  8
0
 10
-133.423
 20
386.367
 11
-133.326
 21
386.163
  0
LINE
  8
0
 10
-133.326
 20
386.163
 11
-133.257
 21
385.948
  0
LINE
  8
0
 10
-133.257
 20
385.948
 11
-133.214
 21
385.726
  0
LINE
  8
0
 10
-133.214
 20
385.726
 11
-133.2
 21
385.5
  0
LINE
  8
0
 10
-133.2
 20
385.5
 11
-133.214
 21
385.274
  0
LINE
  8
0
 10
-133.214
 20
385.274
 11
-133.257
 21
385.052
  0
LINE
  8
0
 10
-133.257
 20
385.052
 11
-133.326
 21
384.837
  0
LINE
  8
0
 10
-133.326
 20
384.837
 11
-133.423
 21
384.633
  0
LINE
  8
0
 10
-133.423
 20
384.633
 11
-133.544
 21
384.442
  0
LINE
  8
0
 10
-133.544
 20
384.442
 11
-133.688
 21
384.268
  0
LINE
  8
0
 10
-133.688
 20
384.268
 11
-133.853
 21
384.113
  0
LINE
  8
0
 10
-133.853
 20
384.113
 11
-134.036
 21
383.98
  0
LINE
  8
0
 10
-134.036
 20
383.98
 11
-134.234
 21
383.871
  0
LINE
  8
0
 10
-134.234
 20
383.871
 11
-134.444
 21
383.788
  0
LINE
  8
0
 10
-134.444
 20
383.788
 11
-134.663
 21
383.732
  0
LINE
  8
0
 10
-134.663
 20
383.732
 11
-134.887
 21
383.704
  0
LINE
  8
0
 10
-134.887
 20
383.704
 11
-135.113
 21
383.704
  0
LINE
  8
0
 10
134.887
 20
383.704
 11
134.663
 21
383.732
  0
LINE
  8
0
 10
134.663
 20
383.732
 11
134.444
 21
383.788
  0
LINE
  8
0
 10
134.444
 20
383.788
 11
134.234
 21
383.871
  0
LINE
  8
0
 10
134.234
 20
383.871
 11
134.036
 21
383.98
  0
LINE
  8
0
 10
134.036
 20
383.98
 11
133.853
 21
384.113
  0
LINE
  8
0
 10
133.853
 20
384.113
 11
133.688
 21
384.268
  0
LINE
  8
0
 10
133.688
 20
384.268
 11
133.544
 21
384.442
  0
LINE
  8
0
 10
133.544
 20
384.442
 11
133.423
 21
384.633
  0
LINE
  8
0
 10
133.423
 20
384.633
 11
133.326
 21
384.837
  0
LINE
  8
0
 10
133.326
 20
384.837
 11
133.257
 21
385.052
  0
LINE
  8
0
 10
133.257
 20
385.052
 11
133.214
 21
385.274
  0
LINE
  8
0
 10
133.214
 20
385.274
 11
133.2
 21
385.5
  0
LINE
  8
0
 10
133.2
 20
385.5
 11
133.214
 21
385.726
  0
LINE
  8
0
 10
133.214
 20
385.726
 11
133.257
 21
385.948
  0
LINE
  8
0
 10
133.257
 20
385.948
 11
133.326
 21
386.163
  0
LINE
  8
0
 10
133.326
 20
386.163
 11
133.423
 21
386.367
  0
LINE
  8
0
 10
133.423
 20
386.367
 11
133.544
 21
386.558
  0
LINE
  8
0
 10
133.544
 20
386.558
 11
133.688
 21
386.732
  0
LINE
  8
0
 10
133.688
 20
386.732
 11
133.853
 21
386.887
  0
LINE
  8
0
 10
133.853
 20
386.887
 11
134.036
 21
387.02
  0
LINE
  8
0
 10
134.036
 20
387.02
 11
134.234
 21
387.129
  0
LINE
  8
0
 10
134.234
 20
387.129
 11
134.444
 21
387.212
  0
LINE
  8
0
 10
134.444
 20
387.212
 11
134.663
 21
387.268
  0
LINE
  8
0
 10
134.663
 20
387.268
 11
134.887
 21
387.296
  0
LINE
  8
0
 10
134.887
 20
387.296
 11
135.113
 21
387.296
  0
LINE
  8
0
 10
135.113
 20
387.296
 11
135.337
 21
387.268
  0
LINE
  8
0
 10
135.337
 20
387.268
 11
135.556
 21
387.212
  0
LINE
  8
0
 10
135.556
 20
387.212
 11
135.766
 21
387.129
  0
LINE
  8
0
 10
135.766
 20
387.129
 11
135.964
 21
387.02
  0
LINE
  8
0
 10
135.964
 20
387.02
 11
136.147
 21
386.887
  0
LINE
  8
0
 10
136.147
 20
386.887
 11
136.312
 21
386.732
  0
LINE
  8
0
 10
136.312
 20
386.732
 11
136.456
 21
386.558
  0
LINE
  8
0
 10
136.456
 20
386.558
 11
136.577
 21
386.367
  0
LINE
  8
0
 10
136.577
 20
386.367
 11
136.674
 21
386.163
  0
LINE
  8
0
 10
136.674
 20
386.163
 11
136.743
 21
385.948
  0
LINE
  8
0
 10
136.743
 20
385.948
 11
136.786
 21
385.726
  0
LINE
  8
0
 10
136.786
 20
385.726
 11
136.8
 21
385.5
  0
LINE
  8
0
 10
136.8
 20
385.5
 11
136.786
 21
385.274
  0
LINE
  8
0
 10
136.786
 20
385.274
 11
136.743
 21
385.052
  0
LINE
  8
0
 10
136.743
 20
385.052
 11
136.674
 21
384.837
  0
LINE
  8
0
 10
136.674
 20
384.837
 11
136.577
 21
384.633
  0
LINE
  8
0
 10
136.577
 20
384.633
 11
136.456
 21
384.442
  0
LINE
  8
0
 10
136.456
 20
384.442
 11
136.312
 21
384.268
  0
LINE
  8
0
 10
136.312
 20
384.268
 11
136.147
 21
384.113
  0
LINE
  8
0
 10
136.147
 20
384.113
 11
135.964
 21
383.98
  0
LINE
  8
0
 10
135.964
 20
383.98
 11
135.766
 21
383.871
  0
LINE
  8
0
 10
135.766
 20
383.871
 11
135.556
 21
383.788
  0
LINE
  8
0
 10
135.556
 20
383.788
 11
135.337
 21
383.732
  0
LINE
  8
0
 10
135.337
 20
383.732
 11
135.113
 21
383.704
  0
LINE
  8
0
 10
135.113
 20
383.704
 11
134.887
 21
383.704
  0
LINE
  8
0
 10
-135.113
 20
248.704
 11
-135.337
 21
248.732
  0
LINE
  8
0
 10
-135.337
 20
248.732
 11
-135.556
 21
248.788
  0
LINE
  8
0
 10
-135.556
 20
248.788
 11
-135.766
 21
248.871
  0
LINE
  8
0
 10
-135.766
 20
248.871
 11
-135.964
 21
248.98
  0
LINE
  8
0
 10
-135.964
 20
248.98
 11
-136.147
 21
249.113
  0
LINE
  8
0
 10
-136.147
 20
249.113
 11
-136.312
 21
249.268
  0
LINE
  8
0
 10
-136.312
 20
249.268
 11
-136.456
 21
249.442
  0
LINE
  8
0
 10
-136.456
 20
249.442
 11
-136.577
 21
249.633
  0
LINE
  8
0
 10
-136.577
 20
249.633
 11
-136.674
 21
249.837
  0
LINE
  8
0
 10
-136.674
 20
249.837
 11
-136.743
 21
250.052
  0
LINE
  8
0
 10
-136.743
 20
250.052
 11
-136.786
 21
250.274
  0
LINE
  8
0
 10
-136.786
 20
250.274
 11
-136.8
 21
250.5
  0
LINE
  8
0
 10
-136.8
 20
250.5
 11
-136.786
 21
250.726
  0
LINE
  8
0
 10
-136.786
 20
250.726
 11
-136.743
 21
250.948
  0
LINE
  8
0
 10
-136.743
 20
250.948
 11
-136.674
 21
251.163
  0
LINE
  8
0
 10
-136.674
 20
251.163
 11
-136.577
 21
251.367
  0
LINE
  8
0
 10
-136.577
 20
251.367
 11
-136.456
 21
251.558
  0
LINE
  8
0
 10
-136.456
 20
251.558
 11
-136.312
 21
251.732
  0
LINE
  8
0
 10
-136.312
 20
251.732
 11
-136.147
 21
251.887
  0
LINE
  8
0
 10
-136.147
 20
251.887
 11
-135.964
 21
252.02
  0
LINE
  8
0
 10
-135.964
 20
252.02
 11
-135.766
 21
252.129
  0
LINE
  8
0
 10
-135.766
 20
252.129
 11
-135.556
 21
252.212
  0
LINE
  8
0
 10
-135.556
 20
252.212
 11
-135.337
 21
252.268
  0
LINE
  8
0
 10
-135.337
 20
252.268
 11
-135.113
 21
252.296
  0
LINE
  8
0
 10
-135.113
 20
252.296
 11
-134.887
 21
252.296
  0
LINE
  8
0
 10
-134.887
 20
252.296
 11
-134.663
 21
252.268
  0
LINE
  8
0
 10
-134.663
 20
252.268
 11
-134.444
 21
252.212
  0
LINE
  8
0
 10
-134.444
 20
252.212
 11
-134.234
 21
252.129
  0
LINE
  8
0
 10
-134.234
 20
252.129
 11
-134.036
 21
252.02
  0
LINE
  8
0
 10
-134.036
 20
252.02
 11
-133.853
 21
251.887
  0
LINE
  8
0
 10
-133.853
 20
251.887
 11
-133.688
 21
251.732
  0
LINE
  8
0
 10
-133.688
 20
251.732
 11
-133.544
 21
251.558
  0
LINE
  8
0
 10
-133.544
 20
251.558
 11
-133.423
 21
251.367
  0
LINE
  8
0
 10
-133.423
 20
251.367
 11
-133.326
 21
251.163
  0
LINE
  8
0
 10
-133.326
 20
251.163
 11
-133.257
 21
250.948
  0
LINE
  8
0
 10
-133.257
 20
250.948
 11
-133.214
 21
250.726
  0
LINE
  8
0
 10
-133.214
 20
250.726
 11
-133.2
 21
250.5
  0
LINE
  8
0
 10
-133.2
 20
250.5
 11
-133.214
 21
250.274
  0
LINE
  8
0
 10
-133.214
 20
250.274
 11
-133.257
 21
250.052
  0
LINE
  8
0
 10
-133.257
 20
250.052
 11
-133.326
 21
249.837
  0
LINE
  8
0
 10
-133.326
 20
249.837
 11
-133.423
 21
249.633
  0
LINE
  8
0
 10
-133.423
 20
249.633
 11
-133.544
 21
249.442
  0
LINE
  8
0
 10
-133.544
 20
249.442
 11
-133.688
 21
249.268
  0
LINE
  8
0
 10
-133.688
 20
249.268
 11
-133.853
 21
249.113
  0
LINE
  8
0
 10
-133.853
 20
249.113
 11
-134.036
 21
248.98
  0
LINE
  8
0
 10
-134.036
 20
248.98
 11
-134.234
 21
248.871
  0
LINE
  8
0
 10
-134.234
 20
248.871
 11
-134.444
 21
248.788
  0
LINE
  8
0
 10
-134.444
 20
248.788
 11
-134.663
 21
248.732
  0
LINE
  8
0
 10
-134.663
 20
248.732
 11
-134.887
 21
248.704
  0
LINE
  8
0
 10
-134.887
 20
248.704
 11
-135.113
 21
248.704
  0
LINE
  8
0
 10
134.887
 20
248.704
 11
134.663
 21
248.732
  0
LINE
  8
0
 10
134.663
 20
248.732
 11
134.444
 21
248.788
  0
LINE
  8
0
 10
134.444
 20
248.788
 11
134.234
 21
248.871
  0
LINE
  8
0
 10
134.234
 20
248.871
 11
134.036
 21
248.98
  0
LINE
  8
0
 10
134.036
 20
248.98
 11
133.853
 21
249.113
  0
LINE
  8
0
 10
133.853
 20
249.113
 11
133.688
 21
249.268
  0
LINE
  8
0
 10
133.688
 20
249.268
 11
133.544
 21
249.442
  0
LINE
  8
0
 10
133.544
 20
249.442
 11
133.423
 21
249.633
  0
LINE
  8
0
 10
133.423
 20
249.633
 11
133.326
 21
249.837
  0
LINE
  8
0
 10
133.326
 20
249.837
 11
133.257
 21
250.052
  0
LINE
  8
0
 10
133.257
 20
250.052
 11
133.214
 21
250.274
  0
LINE
  8
0
 10
133.214
 20
250.274
 11
133.2
 21
250.5
  0
LINE
  8
0
 10
133.2
 20
250.5
 11
133.214
 21
250.726
  0
LINE
  8
0
 10
133.214
 20
250.726
 11
133.257
 21
250.948
  0
LINE
  8
0
 10
133.257
 20
250.948
 11
133.326
 21
251.163
  0
LINE
  8
0
 10
133.326
 20
251.163
 11
133.423
 21
251.367
  0
LINE
  8
0
 10
133.423
 20
251.367
 11
133.544
 21
251.558
  0
LINE
  8
0
 10
133.544
 20
251.558
 11
133.688
 21
251.732
  0
LINE
  8
0
 10
133.688
 20
251.732
 11
133.853
 21
251.887
  0
LINE
  8
0
 10
133.853
 20
251.887
 11
134.036
 21
252.02
  0
LINE
  8
0
 10
134.036
 20
252.02
 11
134.234
 21
252.129
  0
LINE
  8
0
 10
134.234
 20
252.129
 11
134.444
 21
252.212
  0
LINE
  8
0
 10
134.444
 20
252.212
 11
134.663
 21
252.268
  0
LINE
  8
0
 10
134.663
 20
252.268
 11
134.887
 21
252.296
  0
LINE
  8
0
 10
134.887
 20
252.296
 11
135.113
 21
252.296
  0
LINE
  8
0
 10
135.113
 20
252.296
 11
135.337
 21
252.268
  0
LINE
  8
0
 10
135.337
 20
252.268
 11
135.556
 21
252.212
  0
LINE
  8
0
 10
135.556
 20
252.212
 11
135.766
 21
252.129
  0
LINE
  8
0
 10
135.766
 20
252.129
 11
135.964
 21
252.02
  0
LINE
  8
0
 10
135.964
 20
252.02
 11
136.147
 21
251.887
  0
LINE
  8
0
 10
136.147
 20
251.887
 11
136.312
 21
251.732
  0
LINE
  8
0
 10
136.312
 20
251.732
 11
136.456
 21
251.558
  0
LINE
  8
0
 10
136.456
 20
251.558
 11
136.577
 21
251.367
  0
LINE
  8
0
 10
136.577
 20
251.367
 11
136.674
 21
251.163
  0
LINE
  8
0
 10
136.674
 20
251.163
 11
136.743
 21
250.948
  0
LINE
  8
0
 10
136.743
 20
250.948
 11
136.786
 21
250.726
  0
LINE
  8
0
 10
136.786
 20
250.726
 11
136.8
 21
250.5
  0
LINE
  8
0
 10
136.8
 20
250.5
 11
136.786
 21
250.274
  0
LINE
  8
0
 10
136.786
 20
250.274
 11
136.743
 21
250.052
  0
LINE
  8
0
 10
136.743
 20
250.052
 11
136.674
 21
249.837
  0
LINE
  8
0
 10
136.674
 20
249.837
 11
136.577
 21
249.633
  0
LINE
  8
0
 10
136.577
 20
249.633
 11
136.456
 21
249.442
  0
LINE
  8
0
 10
136.456
 20
249.442
 11
136.312
 21
249.268
  0
LINE
  8
0
 10
136.312
 20
249.268
 11
136.147
 21
249.113
  0
LINE
  8
0
 10
136.147
 20
249.113
 11
135.964
 21
248.98
  0
LINE
  8
0
 10
135.964
 20
248.98
 11
135.766
 21
248.871
  0
LINE
  8
0
 10
135.766
 20
248.871
 11
135.556
 21
248.788
  0
LINE
  8
0
 10
135.556
 20
248.788
 11
135.337
 21
248.732
  0
LINE
  8
0
 10
135.337
 20
248.732
 11
135.113
 21
248.704
  0
LINE
  8
0
 10
135.113
 20
248.704
 11
134.887
 21
248.704
  0
ENDSEC
  0
SECTION
  2
OBJECTS
  0
DICTIONARY
  0
ENDSEC
  0
EOF
