<?xml version="1.0" standalone="no"?>
<!DOCTYPE svg PUBLIC "-//W3C//DTD SVG 1.1//EN" "http://www.w3.org/Graphics/SVG/1.1/DTD/svg11.dtd">
<svg width="287mm" height="112mm" viewBox="-144 -200 287 112" xmlns="http://www.w3.org/2000/svg" version="1.1">
<title>OpenSCAD Model</title>
<path d="
M -141,-185.941 L -140.687,-185.647 L -140.179,-185.278 L -139.629,-184.976 L -139.045,-184.745 L -138.437,-184.589
 L -137.814,-184.51 L 137.814,-184.51 L 138.437,-184.589 L 139.045,-184.745 L 139.629,-184.976 L 140.179,-185.278
 L 140.687,-185.647 L 141.145,-186.077 L 141.545,-186.561 L 141.882,-187.091 L 142.149,-187.659 L 142.343,-188.257
 L 142.461,-188.873 L 142.5,-189.5 L 142.5,-194.5 L 142.461,-195.127 L 142.343,-195.743 L 142.149,-196.341
 L 141.882,-196.909 L 141.545,-197.439 L 141.145,-197.923 L 140.687,-198.353 L 140.179,-198.722 L 139.629,-199.024
 L 139.045,-199.255 L 138.437,-199.411 L 137.814,-199.49 L -137.814,-199.49 L -138.437,-199.411 L -139.045,-199.255
 L -139.629,-199.024 L -140.179,-198.722 L -140.687,-198.353 L -141,-198.059 L -141,-199.49 L -144,-199.49
 L -144,-184.51 L -141,-184.51 z
M -137.251,-186.008 L -137.75,-186.071 L -138.236,-186.196 L -138.703,-186.381 L -139.143,-186.623 L -139.55,-186.918
 L -139.916,-187.262 L -140.236,-187.649 L -140.505,-188.073 L -140.719,-188.528 L -140.874,-189.005 L -140.968,-189.499
 L -141,-190 L -141,-194 L -140.968,-194.501 L -140.874,-194.995 L -140.719,-195.472 L -140.505,-195.927
 L -140.236,-196.351 L -139.916,-196.738 L -139.55,-197.082 L -139.143,-197.377 L -138.703,-197.619 L -138.236,-197.804
 L -137.75,-197.929 L -137.251,-197.992 L 137.251,-197.992 L 137.75,-197.929 L 138.236,-197.804 L 138.703,-197.619
 L 139.143,-197.377 L 139.55,-197.082 L 139.916,-196.738 L 140.236,-196.351 L 140.505,-195.927 L 140.719,-195.472
 L 140.874,-194.995 L 140.968,-194.501 L 141,-194 L 141,-190 L 140.968,-189.499 L 140.874,-189.005
 L 140.719,-188.528 L 140.505,-188.073 L 140.236,-187.649 L 139.916,-187.262 L 139.55,-186.918 L 139.143,-186.623
 L 138.703,-186.381 L 138.236,-186.196 L 137.75,-186.071 L 137.251,-186.008 z
M -141,-161.941 L -140.687,-161.647 L -140.179,-161.278 L -139.629,-160.976 L -139.045,-160.745 L -138.437,-160.589
 L -137.814,-160.51 L 137.814,-160.51 L 138.437,-160.589 L 139.045,-160.745 L 139.629,-160.976 L 140.179,-161.278
 L 140.687,-161.647 L 141.145,-162.077 L 141.545,-162.561 L 141.882,-163.091 L 142.149,-163.659 L 142.343,-164.257
 L 142.461,-164.873 L 142.5,-165.5 L 142.5,-170.5 L 142.461,-171.127 L 142.343,-171.743 L 142.149,-172.341
 L 141.882,-172.909 L 141.545,-173.439 L 141.145,-173.923 L 140.687,-174.353 L 140.179,-174.722 L 139.629,-175.024
 L 139.045,-175.255 L 138.437,-175.411 L 137.814,-175.49 L -137.814,-175.49 L -138.437,-175.411 L -139.045,-175.255
 L -139.629,-175.024 L -140.179,-174.722 L -140.687,-174.353 L -141,-174.059 L -141,-175.49 L -144,-175.49
 L -144,-160.51 L -141,-160.51 z
M -137.251,-162.008 L -137.75,-162.071 L -138.236,-162.196 L -138.703,-162.381 L -139.143,-162.623 L -139.55,-162.918
 L -139.916,-163.262 L -140.236,-163.649 L -140.505,-164.073 L -140.719,-164.528 L -140.874,-165.005 L -140.968,-165.499
 L -141,-166 L -141,-170 L -140.968,-170.501 L -140.874,-170.995 L -140.719,-171.472 L -140.505,-171.927
 L -140.236,-172.351 L -139.916,-172.738 L -139.55,-173.082 L -139.143,-173.377 L -138.703,-173.619 L -138.236,-173.804
 L -137.75,-173.929 L -137.251,-173.992 L 137.251,-173.992 L 137.75,-173.929 L 138.236,-173.804 L 138.703,-173.619
 L 139.143,-173.377 L 139.55,-173.082 L 139.916,-172.738 L 140.236,-172.351 L 140.505,-171.927 L 140.719,-171.472
 L 140.874,-170.995 L 140.968,-170.501 L 141,-170 L 141,-166 L 140.968,-165.499 L 140.874,-165.005
 L 140.719,-164.528 L 140.505,-164.073 L 140.236,-163.649 L 139.916,-163.262 L 139.55,-162.918 L 139.143,-162.623
 L 138.703,-162.381 L 138.236,-162.196 L 137.75,-162.071 L 137.251,-162.008 z
M -141,-137.941 L -140.687,-137.647 L -140.179,-137.278 L -139.629,-136.976 L -139.045,-136.745 L -138.437,-136.589
 L -137.814,-136.51 L 137.814,-136.51 L 138.437,-136.589 L 139.045,-136.745 L 139.629,-136.976 L 140.179,-137.278
 L 140.687,-137.647 L 141.145,-138.077 L 141.545,-138.561 L 141.882,-139.091 L 142.149,-139.659 L 142.343,-140.257
 L 142.461,-140.873 L 142.5,-141.5 L 142.5,-146.5 L 142.461,-147.127 L 142.343,-147.743 L 142.149,-148.341
 L 141.882,-148.909 L 141.545,-149.439 L 141.145,-149.923 L 140.687,-150.353 L 140.179,-150.722 L 139.629,-151.024
 L 139.045,-151.255 L 138.437,-151.411 L 137.814,-151.49 L -137.814,-151.49 L -138.437,-151.411 L -139.045,-151.255
 L -139.629,-151.024 L -140.179,-150.722 L -140.687,-150.353 L -141,-150.059 L -141,-151.49 L -144,-151.49
 L -144,-136.51 L -141,-136.51 z
M -137.243,-138.135 L -137.726,-138.196 L -138.197,-138.317 L -138.649,-138.496 L -139.075,-138.73 L -139.469,-139.016
 L -139.823,-139.349 L -140.133,-139.724 L -140.394,-140.134 L -140.601,-140.574 L -140.751,-141.037 L -140.842,-141.515
 L -140.873,-142 L -140.873,-146 L -140.842,-146.485 L -140.751,-146.963 L -140.601,-147.426 L -140.394,-147.866
 L -140.133,-148.276 L -139.823,-148.651 L -139.469,-148.984 L -139.075,-149.27 L -138.649,-149.504 L -138.197,-149.683
 L -137.726,-149.804 L -137.243,-149.865 L 137.243,-149.865 L 137.726,-149.804 L 138.197,-149.683 L 138.649,-149.504
 L 139.075,-149.27 L 139.469,-148.984 L 139.823,-148.651 L 140.133,-148.276 L 140.394,-147.866 L 140.601,-147.426
 L 140.751,-146.963 L 140.842,-146.485 L 140.873,-146 L 140.873,-142 L 140.842,-141.515 L 140.751,-141.037
 L 140.601,-140.574 L 140.394,-140.134 L 140.133,-139.724 L 139.823,-139.349 L 139.469,-139.016 L 139.075,-138.73
 L 138.649,-138.496 L 138.197,-138.317 L 137.726,-138.196 L 137.243,-138.135 z
M 138.437,-112.589 L 139.045,-112.745 L 139.629,-112.976 L 140.179,-113.278 L 140.687,-113.647 L 141.145,-114.077
 L 141.545,-114.561 L 141.882,-115.091 L 142.149,-115.659 L 142.343,-116.257 L 142.461,-116.873 L 142.5,-117.5
 L 142.5,-122.5 L 142.461,-123.127 L 142.343,-123.743 L 142.149,-124.341 L 141.882,-124.909 L 141.545,-125.439
 L 141.145,-125.923 L 140.687,-126.353 L 140.179,-126.722 L 139.629,-127.024 L 139.045,-127.255 L 138.437,-127.411
 L 137.814,-127.49 L -137.814,-127.49 L -138.437,-127.411 L -139.045,-127.255 L -139.629,-127.024 L -140.179,-126.722
 L -140.687,-126.353 L -141,-126.059 L -141,-127.115 L -144,-127.115 L -144,-112.885 L -141,-112.885
 L -141,-113.941 L -140.687,-113.647 L -140.179,-113.278 L -139.629,-112.976 L -139.045,-112.745 L -138.437,-112.589
 L -137.814,-112.51 L 137.814,-112.51 z
M -135.151,-117.605 L -135.45,-117.643 L -135.742,-117.717 L -136.022,-117.828 L -136.286,-117.974 L -136.53,-118.151
 L -136.75,-118.357 L -136.942,-118.589 L -137.103,-118.844 L -137.231,-119.117 L -137.325,-119.403 L -137.381,-119.699
 L -137.4,-120 L -137.381,-120.301 L -137.325,-120.597 L -137.231,-120.883 L -137.103,-121.156 L -136.942,-121.411
 L -136.75,-121.643 L -136.53,-121.849 L -136.286,-122.026 L -136.022,-122.172 L -135.742,-122.283 L -135.45,-122.357
 L -135.151,-122.395 L -134.849,-122.395 L -134.55,-122.357 L -134.258,-122.283 L -133.978,-122.172 L -133.714,-122.026
 L -133.47,-121.849 L -133.25,-121.643 L -133.058,-121.411 L -132.897,-121.156 L -132.769,-120.883 L -132.675,-120.597
 L -132.619,-120.301 L -132.6,-120 L -132.619,-119.699 L -132.675,-119.403 L -132.769,-119.117 L -132.897,-118.844
 L -133.058,-118.589 L -133.25,-118.357 L -133.47,-118.151 L -133.714,-117.974 L -133.978,-117.828 L -134.258,-117.717
 L -134.55,-117.643 L -134.849,-117.605 z
M 134.849,-117.605 L 134.55,-117.643 L 134.258,-117.717 L 133.978,-117.828 L 133.714,-117.974 L 133.47,-118.151
 L 133.25,-118.357 L 133.058,-118.589 L 132.897,-118.844 L 132.769,-119.117 L 132.675,-119.403 L 132.619,-119.699
 L 132.6,-120 L 132.619,-120.301 L 132.675,-120.597 L 132.769,-120.883 L 132.897,-121.156 L 133.058,-121.411
 L 133.25,-121.643 L 133.47,-121.849 L 133.714,-122.026 L 133.978,-122.172 L 134.258,-122.283 L 134.55,-122.357
 L 134.849,-122.395 L 135.151,-122.395 L 135.45,-122.357 L 135.742,-122.283 L 136.022,-122.172 L 136.286,-122.026
 L 136.53,-121.849 L 136.75,-121.643 L 136.942,-121.411 L 137.103,-121.156 L 137.231,-120.883 L 137.325,-120.597
 L 137.381,-120.301 L 137.4,-120 L 137.381,-119.699 L 137.325,-119.403 L 137.231,-119.117 L 137.103,-118.844
 L 136.942,-118.589 L 136.75,-118.357 L 136.53,-118.151 L 136.286,-117.974 L 136.022,-117.828 L 135.742,-117.717
 L 135.45,-117.643 L 135.151,-117.605 z
M 138.437,-88.5886 L 139.045,-88.7447 L 139.629,-88.9759 L 140.179,-89.2784 L 140.687,-89.6474 L 141.145,-90.0773
 L 141.545,-90.5611 L 141.882,-91.0912 L 142.149,-91.6594 L 142.343,-92.2566 L 142.461,-92.8733 L 142.5,-93.5
 L 142.5,-98.5 L 142.461,-99.1267 L 142.343,-99.7434 L 142.149,-100.341 L 141.882,-100.909 L 141.545,-101.439
 L 141.145,-101.923 L 140.687,-102.353 L 140.179,-102.722 L 139.629,-103.024 L 139.045,-103.255 L 138.437,-103.411
 L 137.814,-103.49 L -137.814,-103.49 L -138.437,-103.411 L -139.045,-103.255 L -139.629,-103.024 L -140.179,-102.722
 L -140.687,-102.353 L -141.145,-101.923 L -141.545,-101.439 L -141.882,-100.909 L -142.149,-100.341 L -142.343,-99.7434
 L -142.4,-99.4442 L -144,-99.4442 L -144,-92.5558 L -142.4,-92.5558 L -142.343,-92.2566 L -142.149,-91.6594
 L -141.882,-91.0912 L -141.545,-90.5611 L -141.145,-90.0773 L -140.687,-89.6474 L -140.179,-89.2784 L -139.629,-88.9759
 L -139.045,-88.7447 L -138.437,-88.5886 L -137.814,-88.5099 L 137.814,-88.5099 z
M -135.113,-94.2036 L -135.337,-94.2319 L -135.556,-94.2881 L -135.766,-94.3713 L -135.964,-94.4802 L -136.147,-94.6131
 L -136.312,-94.7678 L -136.456,-94.942 L -136.577,-95.1329 L -136.674,-95.3374 L -136.743,-95.5524 L -136.786,-95.7744
 L -136.8,-96 L -136.786,-96.2256 L -136.743,-96.4476 L -136.674,-96.6626 L -136.577,-96.8671 L -136.456,-97.058
 L -136.312,-97.2322 L -136.147,-97.3869 L -135.964,-97.5198 L -135.766,-97.6287 L -135.556,-97.7119 L -135.337,-97.7681
 L -135.113,-97.7964 L -134.887,-97.7964 L -134.663,-97.7681 L -134.444,-97.7119 L -134.234,-97.6287 L -134.036,-97.5198
 L -133.853,-97.3869 L -133.688,-97.2322 L -133.544,-97.058 L -133.423,-96.8671 L -133.326,-96.6626 L -133.257,-96.4476
 L -133.214,-96.2256 L -133.2,-96 L -133.214,-95.7744 L -133.257,-95.5524 L -133.326,-95.3374 L -133.423,-95.1329
 L -133.544,-94.942 L -133.688,-94.7678 L -133.853,-94.6131 L -134.036,-94.4802 L -134.234,-94.3713 L -134.444,-94.2881
 L -134.663,-94.2319 L -134.887,-94.2036 z
M 134.887,-94.2036 L 134.663,-94.2319 L 134.444,-94.2881 L 134.234,-94.3713 L 134.036,-94.4802 L 133.853,-94.6131
 L 133.688,-94.7678 L 133.544,-94.942 L 133.423,-95.1329 L 133.326,-95.3374 L 133.257,-95.5524 L 133.214,-95.7744
 L 133.2,-96 L 133.214,-96.2256 L 133.257,-96.4476 L 133.326,-96.6626 L 133.423,-96.8671 L 133.544,-97.058
 L 133.688,-97.2322 L 133.853,-97.3869 L 134.036,-97.5198 L 134.234,-97.6287 L 134.444,-97.7119 L 134.663,-97.7681
 L 134.887,-97.7964 L 135.113,-97.7964 L 135.337,-97.7681 L 135.556,-97.7119 L 135.766,-97.6287 L 135.964,-97.5198
 L 136.147,-97.3869 L 136.312,-97.2322 L 136.456,-97.058 L 136.577,-96.8671 L 136.674,-96.6626 L 136.743,-96.4476
 L 136.786,-96.2256 L 136.8,-96 L 136.786,-95.7744 L 136.743,-95.5524 L 136.674,-95.3374 L 136.577,-95.1329
 L 136.456,-94.942 L 136.312,-94.7678 L 136.147,-94.6131 L 135.964,-94.4802 L 135.766,-94.3713 L 135.556,-94.2881
 L 135.337,-94.2319 L 135.113,-94.2036 z
" stroke="black" fill="lightgray" stroke-width="0.5"/>
</svg>
