<?xml version="1.0" standalone="no"?>
<!DOCTYPE svg PUBLIC "-//W3C//DTD SVG 1.1//EN" "http://www.w3.org/Graphics/SVG/1.1/DTD/svg11.dtd">
<svg width="240mm" height="160mm" viewBox="-120 -206 240 160" xmlns="http://www.w3.org/2000/svg" version="1.1">
<title>OpenSCAD Model</title>
<path d="
M 115.937,-130.589 L 116.545,-130.745 L 117.129,-130.976 L 117.679,-131.278 L 118.187,-131.647 L 118.645,-132.077
 L 119.045,-132.561 L 119.382,-133.091 L 119.649,-133.659 L 119.843,-134.257 L 119.961,-134.873 L 120,-135.5
 L 120,-200.5 L 119.961,-201.127 L 119.843,-201.743 L 119.649,-202.341 L 119.382,-202.909 L 119.045,-203.439
 L 118.645,-203.923 L 118.187,-204.353 L 117.679,-204.722 L 117.129,-205.024 L 116.545,-205.255 L 115.937,-205.411
 L 115.314,-205.49 L -115.314,-205.49 L -115.937,-205.411 L -116.545,-205.255 L -117.129,-205.024 L -117.679,-204.722
 L -118.187,-204.353 L -118.645,-203.923 L -119.045,-203.439 L -119.382,-202.909 L -119.649,-202.341 L -119.843,-201.743
 L -119.961,-201.127 L -120,-200.5 L -120,-135.5 L -119.961,-134.873 L -119.843,-134.257 L -119.649,-133.659
 L -119.382,-133.091 L -119.045,-132.561 L -118.645,-132.077 L -118.187,-131.647 L -117.679,-131.278 L -117.129,-130.976
 L -116.545,-130.745 L -115.937,-130.589 L -115.314,-130.51 L 115.314,-130.51 z
M -114.993,-131.888 L -115.475,-131.949 L -115.946,-132.07 L -116.398,-132.249 L -116.823,-132.483 L -117.216,-132.769
 L -117.571,-133.101 L -117.88,-133.476 L -118.141,-133.886 L -118.348,-134.326 L -118.498,-134.788 L -118.589,-135.265
 L -118.619,-135.75 L -118.619,-200.25 L -118.589,-200.735 L -118.498,-201.212 L -118.348,-201.674 L -118.141,-202.114
 L -117.88,-202.524 L -117.571,-202.899 L -117.216,-203.231 L -116.823,-203.517 L -116.398,-203.751 L -115.946,-203.93
 L -115.475,-204.051 L -114.993,-204.112 L 114.993,-204.112 L 115.475,-204.051 L 115.946,-203.93 L 116.398,-203.751
 L 116.823,-203.517 L 117.216,-203.231 L 117.571,-202.899 L 117.88,-202.524 L 118.141,-202.114 L 118.348,-201.674
 L 118.498,-201.212 L 118.589,-200.735 L 118.619,-200.25 L 118.619,-135.75 L 118.589,-135.265 L 118.498,-134.788
 L 118.348,-134.326 L 118.141,-133.886 L 117.88,-133.476 L 117.571,-133.101 L 117.216,-132.769 L 116.823,-132.483
 L 116.398,-132.249 L 115.946,-132.07 L 115.475,-131.949 L 114.993,-131.888 z
M 115.937,-46.5886 L 116.545,-46.7447 L 117.129,-46.9759 L 117.679,-47.2784 L 118.187,-47.6474 L 118.645,-48.0773
 L 119.045,-48.5611 L 119.382,-49.0912 L 119.649,-49.6594 L 119.843,-50.2566 L 119.961,-50.8733 L 120,-51.5
 L 120,-116.5 L 119.961,-117.127 L 119.843,-117.743 L 119.649,-118.341 L 119.382,-118.909 L 119.045,-119.439
 L 118.645,-119.923 L 118.187,-120.353 L 117.679,-120.722 L 117.129,-121.024 L 116.545,-121.255 L 115.937,-121.411
 L 115.314,-121.49 L -115.314,-121.49 L -115.937,-121.411 L -116.545,-121.255 L -117.129,-121.024 L -117.679,-120.722
 L -118.187,-120.353 L -118.645,-119.923 L -119.045,-119.439 L -119.382,-118.909 L -119.649,-118.341 L -119.843,-117.743
 L -119.961,-117.127 L -120,-116.5 L -120,-51.5 L -119.961,-50.8733 L -119.843,-50.2566 L -119.649,-49.6594
 L -119.382,-49.0912 L -119.045,-48.5611 L -118.645,-48.0773 L -118.187,-47.6474 L -117.679,-47.2784 L -117.129,-46.9759
 L -116.545,-46.7447 L -115.937,-46.5886 L -115.314,-46.5099 L 115.314,-46.5099 z
M -112.613,-112.204 L -112.837,-112.232 L -113.056,-112.288 L -113.266,-112.371 L -113.464,-112.48 L -113.647,-112.613
 L -113.812,-112.768 L -113.956,-112.942 L -114.077,-113.133 L -114.174,-113.337 L -114.243,-113.552 L -114.286,-113.774
 L -114.3,-114 L -114.286,-114.226 L -114.243,-114.448 L -114.174,-114.663 L -114.077,-114.867 L -113.956,-115.058
 L -113.812,-115.232 L -113.647,-115.387 L -113.464,-115.52 L -113.266,-115.629 L -113.056,-115.712 L -112.837,-115.768
 L -112.613,-115.796 L -112.387,-115.796 L -112.163,-115.768 L -111.944,-115.712 L -111.734,-115.629 L -111.536,-115.52
 L -111.353,-115.387 L -111.188,-115.232 L -111.044,-115.058 L -110.923,-114.867 L -110.826,-114.663 L -110.757,-114.448
 L -110.714,-114.226 L -110.7,-114 L -110.714,-113.774 L -110.757,-113.552 L -110.826,-113.337 L -110.923,-113.133
 L -111.044,-112.942 L -111.188,-112.768 L -111.353,-112.613 L -111.536,-112.48 L -111.734,-112.371 L -111.944,-112.288
 L -112.163,-112.232 L -112.387,-112.204 z
M 112.387,-112.204 L 112.163,-112.232 L 111.944,-112.288 L 111.734,-112.371 L 111.536,-112.48 L 111.353,-112.613
 L 111.188,-112.768 L 111.044,-112.942 L 110.923,-113.133 L 110.826,-113.337 L 110.757,-113.552 L 110.714,-113.774
 L 110.7,-114 L 110.714,-114.226 L 110.757,-114.448 L 110.826,-114.663 L 110.923,-114.867 L 111.044,-115.058
 L 111.188,-115.232 L 111.353,-115.387 L 111.536,-115.52 L 111.734,-115.629 L 111.944,-115.712 L 112.163,-115.768
 L 112.387,-115.796 L 112.613,-115.796 L 112.837,-115.768 L 113.056,-115.712 L 113.266,-115.629 L 113.464,-115.52
 L 113.647,-115.387 L 113.812,-115.232 L 113.956,-115.058 L 114.077,-114.867 L 114.174,-114.663 L 114.243,-114.448
 L 114.286,-114.226 L 114.3,-114 L 114.286,-113.774 L 114.243,-113.552 L 114.174,-113.337 L 114.077,-113.133
 L 113.956,-112.942 L 113.812,-112.768 L 113.647,-112.613 L 113.464,-112.48 L 113.266,-112.371 L 113.056,-112.288
 L 112.837,-112.232 L 112.613,-112.204 z
M 112.387,-52.2036 L 112.163,-52.2319 L 111.944,-52.2881 L 111.734,-52.3713 L 111.536,-52.4802 L 111.353,-52.6131
 L 111.188,-52.7678 L 111.044,-52.942 L 110.923,-53.1328 L 110.826,-53.3374 L 110.757,-53.5524 L 110.714,-53.7744
 L 110.7,-54 L 110.714,-54.2256 L 110.757,-54.4476 L 110.826,-54.6626 L 110.923,-54.8672 L 111.044,-55.058
 L 111.188,-55.2322 L 111.353,-55.3869 L 111.536,-55.5198 L 111.734,-55.6287 L 111.944,-55.7119 L 112.163,-55.7681
 L 112.387,-55.7964 L 112.613,-55.7964 L 112.837,-55.7681 L 113.056,-55.7119 L 113.266,-55.6287 L 113.464,-55.5198
 L 113.647,-55.3869 L 113.812,-55.2322 L 113.956,-55.058 L 114.077,-54.8672 L 114.174,-54.6626 L 114.243,-54.4476
 L 114.286,-54.2256 L 114.3,-54 L 114.286,-53.7744 L 114.243,-53.5524 L 114.174,-53.3374 L 114.077,-53.1328
 L 113.956,-52.942 L 113.812,-52.7678 L 113.647,-52.6131 L 113.464,-52.4802 L 113.266,-52.3713 L 113.056,-52.2881
 L 112.837,-52.2319 L 112.613,-52.2036 z
M -112.613,-52.2036 L -112.837,-52.2319 L -113.056,-52.2881 L -113.266,-52.3713 L -113.464,-52.4802 L -113.647,-52.6131
 L -113.812,-52.7678 L -113.956,-52.942 L -114.077,-53.1328 L -114.174,-53.3374 L -114.243,-53.5524 L -114.286,-53.7744
 L -114.3,-54 L -114.286,-54.2256 L -114.243,-54.4476 L -114.174,-54.6626 L -114.077,-54.8672 L -113.956,-55.058
 L -113.812,-55.2322 L -113.647,-55.3869 L -113.464,-55.5198 L -113.266,-55.6287 L -113.056,-55.7119 L -112.837,-55.7681
 L -112.613,-55.7964 L -112.387,-55.7964 L -112.163,-55.7681 L -111.944,-55.7119 L -111.734,-55.6287 L -111.536,-55.5198
 L -111.353,-55.3869 L -111.188,-55.2322 L -111.044,-55.058 L -110.923,-54.8672 L -110.826,-54.6626 L -110.757,-54.4476
 L -110.714,-54.2256 L -110.7,-54 L -110.714,-53.7744 L -110.757,-53.5524 L -110.826,-53.3374 L -110.923,-53.1328
 L -111.044,-52.942 L -111.188,-52.7678 L -111.353,-52.6131 L -111.536,-52.4802 L -111.734,-52.3713 L -111.944,-52.2881
 L -112.163,-52.2319 L -112.387,-52.2036 z
" stroke="black" fill="lightgray" stroke-width="0.5"/>
</svg>
