<?xml version="1.0" standalone="no"?>
<!DOCTYPE svg PUBLIC "-//W3C//DTD SVG 1.1//EN" "http://www.w3.org/Graphics/SVG/1.1/DTD/svg11.dtd">
<svg width="242mm" height="936mm" viewBox="-122 -1602 242 936" xmlns="http://www.w3.org/2000/svg" version="1.1">
<title>OpenSCAD Model</title>
<path d="
M -118.5,-1423.44 L -118.187,-1423.15 L -117.679,-1422.78 L -117.129,-1422.48 L -116.545,-1422.24 L -115.937,-1422.09
 L -115.314,-1422.01 L 115.314,-1422.01 L 115.937,-1422.09 L 116.545,-1422.24 L 117.129,-1422.48 L 117.679,-1422.78
 L 118.187,-1423.15 L 118.645,-1423.58 L 119.045,-1424.06 L 119.382,-1424.59 L 119.649,-1425.16 L 119.843,-1425.76
 L 119.961,-1426.37 L 120,-1427 L 120,-1597 L 119.961,-1597.63 L 119.843,-1598.24 L 119.649,-1598.84
 L 119.382,-1599.41 L 119.045,-1599.94 L 118.645,-1600.42 L 118.187,-1600.85 L 117.679,-1601.22 L 117.129,-1601.52
 L 116.545,-1601.76 L 115.937,-1601.91 L 115.314,-1601.99 L -115.314,-1601.99 L -115.937,-1601.91 L -116.545,-1601.76
 L -117.129,-1601.52 L -117.679,-1601.22 L -118.187,-1600.85 L -118.5,-1600.56 L -118.5,-1601.99 L -121.5,-1601.99
 L -121.5,-1422.01 L -118.5,-1422.01 z
M -114.751,-1423.51 L -115.25,-1423.57 L -115.736,-1423.7 L -116.203,-1423.88 L -116.643,-1424.12 L -117.05,-1424.42
 L -117.416,-1424.76 L -117.736,-1425.15 L -118.005,-1425.57 L -118.219,-1426.03 L -118.374,-1426.51 L -118.468,-1427
 L -118.5,-1427.5 L -118.5,-1596.5 L -118.468,-1597 L -118.374,-1597.49 L -118.219,-1597.97 L -118.005,-1598.43
 L -117.736,-1598.85 L -117.416,-1599.24 L -117.05,-1599.58 L -116.643,-1599.88 L -116.203,-1600.12 L -115.736,-1600.3
 L -115.25,-1600.43 L -114.751,-1600.49 L 114.751,-1600.49 L 115.25,-1600.43 L 115.736,-1600.3 L 116.203,-1600.12
 L 116.643,-1599.88 L 117.05,-1599.58 L 117.416,-1599.24 L 117.736,-1598.85 L 118.005,-1598.43 L 118.219,-1597.97
 L 118.374,-1597.49 L 118.468,-1597 L 118.5,-1596.5 L 118.5,-1427.5 L 118.468,-1427 L 118.374,-1426.51
 L 118.219,-1426.03 L 118.005,-1425.57 L 117.736,-1425.15 L 117.416,-1424.76 L 117.05,-1424.42 L 116.643,-1424.12
 L 116.203,-1423.88 L 115.736,-1423.7 L 115.25,-1423.57 L 114.751,-1423.51 z
M -118.5,-1234.44 L -118.187,-1234.15 L -117.679,-1233.78 L -117.129,-1233.48 L -116.545,-1233.24 L -115.937,-1233.09
 L -115.314,-1233.01 L 115.314,-1233.01 L 115.937,-1233.09 L 116.545,-1233.24 L 117.129,-1233.48 L 117.679,-1233.78
 L 118.187,-1234.15 L 118.645,-1234.58 L 119.045,-1235.06 L 119.382,-1235.59 L 119.649,-1236.16 L 119.843,-1236.76
 L 119.961,-1237.37 L 120,-1238 L 120,-1408 L 119.961,-1408.63 L 119.843,-1409.24 L 119.649,-1409.84
 L 119.382,-1410.41 L 119.045,-1410.94 L 118.645,-1411.42 L 118.187,-1411.85 L 117.679,-1412.22 L 117.129,-1412.52
 L 116.545,-1412.76 L 115.937,-1412.91 L 115.314,-1412.99 L -115.314,-1412.99 L -115.937,-1412.91 L -116.545,-1412.76
 L -117.129,-1412.52 L -117.679,-1412.22 L -118.187,-1411.85 L -118.5,-1411.56 L -118.5,-1412.99 L -121.5,-1412.99
 L -121.5,-1233.01 L -118.5,-1233.01 z
M -114.751,-1234.51 L -115.25,-1234.57 L -115.736,-1234.7 L -116.203,-1234.88 L -116.643,-1235.12 L -117.05,-1235.42
 L -117.416,-1235.76 L -117.736,-1236.15 L -118.005,-1236.57 L -118.219,-1237.03 L -118.374,-1237.51 L -118.468,-1238
 L -118.5,-1238.5 L -118.5,-1407.5 L -118.468,-1408 L -118.374,-1408.49 L -118.219,-1408.97 L -118.005,-1409.43
 L -117.736,-1409.85 L -117.416,-1410.24 L -117.05,-1410.58 L -116.643,-1410.88 L -116.203,-1411.12 L -115.736,-1411.3
 L -115.25,-1411.43 L -114.751,-1411.49 L 114.751,-1411.49 L 115.25,-1411.43 L 115.736,-1411.3 L 116.203,-1411.12
 L 116.643,-1410.88 L 117.05,-1410.58 L 117.416,-1410.24 L 117.736,-1409.85 L 118.005,-1409.43 L 118.219,-1408.97
 L 118.374,-1408.49 L 118.468,-1408 L 118.5,-1407.5 L 118.5,-1238.5 L 118.468,-1238 L 118.374,-1237.51
 L 118.219,-1237.03 L 118.005,-1236.57 L 117.736,-1236.15 L 117.416,-1235.76 L 117.05,-1235.42 L 116.643,-1235.12
 L 116.203,-1234.88 L 115.736,-1234.7 L 115.25,-1234.57 L 114.751,-1234.51 z
M -118.5,-1045.44 L -118.187,-1045.15 L -117.679,-1044.78 L -117.129,-1044.48 L -116.545,-1044.24 L -115.937,-1044.09
 L -115.314,-1044.01 L 115.314,-1044.01 L 115.937,-1044.09 L 116.545,-1044.24 L 117.129,-1044.48 L 117.679,-1044.78
 L 118.187,-1045.15 L 118.645,-1045.58 L 119.045,-1046.06 L 119.382,-1046.59 L 119.649,-1047.16 L 119.843,-1047.76
 L 119.961,-1048.37 L 120,-1049 L 120,-1219 L 119.961,-1219.63 L 119.843,-1220.24 L 119.649,-1220.84
 L 119.382,-1221.41 L 119.045,-1221.94 L 118.645,-1222.42 L 118.187,-1222.85 L 117.679,-1223.22 L 117.129,-1223.52
 L 116.545,-1223.76 L 115.937,-1223.91 L 115.314,-1223.99 L -115.314,-1223.99 L -115.937,-1223.91 L -116.545,-1223.76
 L -117.129,-1223.52 L -117.679,-1223.22 L -118.187,-1222.85 L -118.5,-1222.56 L -118.5,-1223.99 L -121.5,-1223.99
 L -121.5,-1044.01 L -118.5,-1044.01 z
M -114.743,-1045.64 L -115.226,-1045.7 L -115.697,-1045.82 L -116.149,-1046 L -116.575,-1046.23 L -116.969,-1046.52
 L -117.323,-1046.85 L -117.633,-1047.22 L -117.894,-1047.63 L -118.101,-1048.07 L -118.251,-1048.54 L -118.342,-1049.01
 L -118.373,-1049.5 L -118.373,-1218.5 L -118.342,-1218.99 L -118.251,-1219.46 L -118.101,-1219.93 L -117.894,-1220.37
 L -117.633,-1220.78 L -117.323,-1221.15 L -116.969,-1221.48 L -116.575,-1221.77 L -116.149,-1222 L -115.697,-1222.18
 L -115.226,-1222.3 L -114.743,-1222.36 L 114.743,-1222.36 L 115.226,-1222.3 L 115.697,-1222.18 L 116.149,-1222
 L 116.575,-1221.77 L 116.969,-1221.48 L 117.323,-1221.15 L 117.633,-1220.78 L 117.894,-1220.37 L 118.101,-1219.93
 L 118.251,-1219.46 L 118.342,-1218.99 L 118.373,-1218.5 L 118.373,-1049.5 L 118.342,-1049.01 L 118.251,-1048.54
 L 118.101,-1048.07 L 117.894,-1047.63 L 117.633,-1047.22 L 117.323,-1046.85 L 116.969,-1046.52 L 116.575,-1046.23
 L 116.149,-1046 L 115.697,-1045.82 L 115.226,-1045.7 L 114.743,-1045.64 z
M 115.937,-855.089 L 116.545,-855.245 L 117.129,-855.476 L 117.679,-855.778 L 118.187,-856.147 L 118.645,-856.577
 L 119.045,-857.061 L 119.382,-857.591 L 119.649,-858.159 L 119.843,-858.757 L 119.961,-859.373 L 120,-860
 L 120,-1030 L 119.961,-1030.63 L 119.843,-1031.24 L 119.649,-1031.84 L 119.382,-1032.41 L 119.045,-1032.94
 L 118.645,-1033.42 L 118.187,-1033.85 L 117.679,-1034.22 L 117.129,-1034.52 L 116.545,-1034.76 L 115.937,-1034.91
 L 115.314,-1034.99 L -115.314,-1034.99 L -115.937,-1034.91 L -116.545,-1034.76 L -117.129,-1034.52 L -117.679,-1034.22
 L -118.187,-1033.85 L -118.5,-1033.56 L -118.5,-1034.61 L -121.5,-1034.61 L -121.5,-855.385 L -118.5,-855.385
 L -118.5,-856.441 L -118.187,-856.147 L -117.679,-855.778 L -117.129,-855.476 L -116.545,-855.245 L -115.937,-855.089
 L -115.314,-855.01 L 115.314,-855.01 z
M -112.651,-1025.1 L -112.95,-1025.14 L -113.242,-1025.22 L -113.522,-1025.33 L -113.786,-1025.47 L -114.03,-1025.65
 L -114.25,-1025.86 L -114.442,-1026.09 L -114.603,-1026.34 L -114.731,-1026.62 L -114.825,-1026.9 L -114.881,-1027.2
 L -114.9,-1027.5 L -114.881,-1027.8 L -114.825,-1028.1 L -114.731,-1028.38 L -114.603,-1028.66 L -114.442,-1028.91
 L -114.25,-1029.14 L -114.03,-1029.35 L -113.786,-1029.53 L -113.522,-1029.67 L -113.242,-1029.78 L -112.95,-1029.86
 L -112.651,-1029.9 L -112.349,-1029.9 L -112.05,-1029.86 L -111.758,-1029.78 L -111.478,-1029.67 L -111.214,-1029.53
 L -110.97,-1029.35 L -110.75,-1029.14 L -110.558,-1028.91 L -110.397,-1028.66 L -110.269,-1028.38 L -110.175,-1028.1
 L -110.119,-1027.8 L -110.1,-1027.5 L -110.119,-1027.2 L -110.175,-1026.9 L -110.269,-1026.62 L -110.397,-1026.34
 L -110.558,-1026.09 L -110.75,-1025.86 L -110.97,-1025.65 L -111.214,-1025.47 L -111.478,-1025.33 L -111.758,-1025.22
 L -112.05,-1025.14 L -112.349,-1025.1 z
M 112.349,-1025.1 L 112.05,-1025.14 L 111.758,-1025.22 L 111.478,-1025.33 L 111.214,-1025.47 L 110.97,-1025.65
 L 110.75,-1025.86 L 110.558,-1026.09 L 110.397,-1026.34 L 110.269,-1026.62 L 110.175,-1026.9 L 110.119,-1027.2
 L 110.1,-1027.5 L 110.119,-1027.8 L 110.175,-1028.1 L 110.269,-1028.38 L 110.397,-1028.66 L 110.558,-1028.91
 L 110.75,-1029.14 L 110.97,-1029.35 L 111.214,-1029.53 L 111.478,-1029.67 L 111.758,-1029.78 L 112.05,-1029.86
 L 112.349,-1029.9 L 112.651,-1029.9 L 112.95,-1029.86 L 113.242,-1029.78 L 113.522,-1029.67 L 113.786,-1029.53
 L 114.03,-1029.35 L 114.25,-1029.14 L 114.442,-1028.91 L 114.603,-1028.66 L 114.731,-1028.38 L 114.825,-1028.1
 L 114.881,-1027.8 L 114.9,-1027.5 L 114.881,-1027.2 L 114.825,-1026.9 L 114.731,-1026.62 L 114.603,-1026.34
 L 114.442,-1026.09 L 114.25,-1025.86 L 114.03,-1025.65 L 113.786,-1025.47 L 113.522,-1025.33 L 113.242,-1025.22
 L 112.95,-1025.14 L 112.651,-1025.1 z
M -112.651,-860.105 L -112.95,-860.143 L -113.242,-860.217 L -113.522,-860.328 L -113.786,-860.474 L -114.03,-860.651
 L -114.25,-860.857 L -114.442,-861.089 L -114.603,-861.344 L -114.731,-861.617 L -114.825,-861.903 L -114.881,-862.199
 L -114.9,-862.5 L -114.881,-862.801 L -114.825,-863.097 L -114.731,-863.383 L -114.603,-863.656 L -114.442,-863.911
 L -114.25,-864.143 L -114.03,-864.349 L -113.786,-864.526 L -113.522,-864.672 L -113.242,-864.783 L -112.95,-864.857
 L -112.651,-864.895 L -112.349,-864.895 L -112.05,-864.857 L -111.758,-864.783 L -111.478,-864.672 L -111.214,-864.526
 L -110.97,-864.349 L -110.75,-864.143 L -110.558,-863.911 L -110.397,-863.656 L -110.269,-863.383 L -110.175,-863.097
 L -110.119,-862.801 L -110.1,-862.5 L -110.119,-862.199 L -110.175,-861.903 L -110.269,-861.617 L -110.397,-861.344
 L -110.558,-861.089 L -110.75,-860.857 L -110.97,-860.651 L -111.214,-860.474 L -111.478,-860.328 L -111.758,-860.217
 L -112.05,-860.143 L -112.349,-860.105 z
M 112.349,-860.105 L 112.05,-860.143 L 111.758,-860.217 L 111.478,-860.328 L 111.214,-860.474 L 110.97,-860.651
 L 110.75,-860.857 L 110.558,-861.089 L 110.397,-861.344 L 110.269,-861.617 L 110.175,-861.903 L 110.119,-862.199
 L 110.1,-862.5 L 110.119,-862.801 L 110.175,-863.097 L 110.269,-863.383 L 110.397,-863.656 L 110.558,-863.911
 L 110.75,-864.143 L 110.97,-864.349 L 111.214,-864.526 L 111.478,-864.672 L 111.758,-864.783 L 112.05,-864.857
 L 112.349,-864.895 L 112.651,-864.895 L 112.95,-864.857 L 113.242,-864.783 L 113.522,-864.672 L 113.786,-864.526
 L 114.03,-864.349 L 114.25,-864.143 L 114.442,-863.911 L 114.603,-863.656 L 114.731,-863.383 L 114.825,-863.097
 L 114.881,-862.801 L 114.9,-862.5 L 114.881,-862.199 L 114.825,-861.903 L 114.731,-861.617 L 114.603,-861.344
 L 114.442,-861.089 L 114.25,-860.857 L 114.03,-860.651 L 113.786,-860.474 L 113.522,-860.328 L 113.242,-860.217
 L 112.95,-860.143 L 112.651,-860.105 z
M 115.937,-666.089 L 116.545,-666.245 L 117.129,-666.476 L 117.679,-666.778 L 118.187,-667.147 L 118.645,-667.577
 L 119.045,-668.061 L 119.382,-668.591 L 119.649,-669.159 L 119.843,-669.757 L 119.961,-670.373 L 120,-671
 L 120,-841 L 119.961,-841.627 L 119.843,-842.243 L 119.649,-842.841 L 119.382,-843.409 L 119.045,-843.939
 L 118.645,-844.423 L 118.187,-844.853 L 117.679,-845.222 L 117.129,-845.524 L 116.545,-845.755 L 115.937,-845.911
 L 115.314,-845.99 L -115.314,-845.99 L -115.937,-845.911 L -116.545,-845.755 L -117.129,-845.524 L -117.679,-845.222
 L -118.187,-844.853 L -118.645,-844.423 L -119.045,-843.939 L -119.382,-843.409 L -119.649,-842.841 L -119.843,-842.243
 L -119.9,-841.944 L -121.5,-841.944 L -121.5,-670.056 L -119.9,-670.056 L -119.843,-669.757 L -119.649,-669.159
 L -119.382,-668.591 L -119.045,-668.061 L -118.645,-667.577 L -118.187,-667.147 L -117.679,-666.778 L -117.129,-666.476
 L -116.545,-666.245 L -115.937,-666.089 L -115.314,-666.01 L 115.314,-666.01 z
M -112.613,-836.704 L -112.837,-836.732 L -113.056,-836.788 L -113.266,-836.871 L -113.464,-836.98 L -113.647,-837.113
 L -113.812,-837.268 L -113.956,-837.442 L -114.077,-837.633 L -114.174,-837.837 L -114.243,-838.052 L -114.286,-838.274
 L -114.3,-838.5 L -114.286,-838.726 L -114.243,-838.948 L -114.174,-839.163 L -114.077,-839.367 L -113.956,-839.558
 L -113.812,-839.732 L -113.647,-839.887 L -113.464,-840.02 L -113.266,-840.129 L -113.056,-840.212 L -112.837,-840.268
 L -112.613,-840.296 L -112.387,-840.296 L -112.163,-840.268 L -111.944,-840.212 L -111.734,-840.129 L -111.536,-840.02
 L -111.353,-839.887 L -111.188,-839.732 L -111.044,-839.558 L -110.923,-839.367 L -110.826,-839.163 L -110.757,-838.948
 L -110.714,-838.726 L -110.7,-838.5 L -110.714,-838.274 L -110.757,-838.052 L -110.826,-837.837 L -110.923,-837.633
 L -111.044,-837.442 L -111.188,-837.268 L -111.353,-837.113 L -111.536,-836.98 L -111.734,-836.871 L -111.944,-836.788
 L -112.163,-836.732 L -112.387,-836.704 z
M 112.387,-836.704 L 112.163,-836.732 L 111.944,-836.788 L 111.734,-836.871 L 111.536,-836.98 L 111.353,-837.113
 L 111.188,-837.268 L 111.044,-837.442 L 110.923,-837.633 L 110.826,-837.837 L 110.757,-838.052 L 110.714,-838.274
 L 110.7,-838.5 L 110.714,-838.726 L 110.757,-838.948 L 110.826,-839.163 L 110.923,-839.367 L 111.044,-839.558
 L 111.188,-839.732 L 111.353,-839.887 L 111.536,-840.02 L 111.734,-840.129 L 111.944,-840.212 L 112.163,-840.268
 L 112.387,-840.296 L 112.613,-840.296 L 112.837,-840.268 L 113.056,-840.212 L 113.266,-840.129 L 113.464,-840.02
 L 113.647,-839.887 L 113.812,-839.732 L 113.956,-839.558 L 114.077,-839.367 L 114.174,-839.163 L 114.243,-838.948
 L 114.286,-838.726 L 114.3,-838.5 L 114.286,-838.274 L 114.243,-838.052 L 114.174,-837.837 L 114.077,-837.633
 L 113.956,-837.442 L 113.812,-837.268 L 113.647,-837.113 L 113.464,-836.98 L 113.266,-836.871 L 113.056,-836.788
 L 112.837,-836.732 L 112.613,-836.704 z
M -112.613,-671.704 L -112.837,-671.732 L -113.056,-671.788 L -113.266,-671.871 L -113.464,-671.98 L -113.647,-672.113
 L -113.812,-672.268 L -113.956,-672.442 L -114.077,-672.633 L -114.174,-672.837 L -114.243,-673.052 L -114.286,-673.274
 L -114.3,-673.5 L -114.286,-673.726 L -114.243,-673.948 L -114.174,-674.163 L -114.077,-674.367 L -113.956,-674.558
 L -113.812,-674.732 L -113.647,-674.887 L -113.464,-675.02 L -113.266,-675.129 L -113.056,-675.212 L -112.837,-675.268
 L -112.613,-675.296 L -112.387,-675.296 L -112.163,-675.268 L -111.944,-675.212 L -111.734,-675.129 L -111.536,-675.02
 L -111.353,-674.887 L -111.188,-674.732 L -111.044,-674.558 L -110.923,-674.367 L -110.826,-674.163 L -110.757,-673.948
 L -110.714,-673.726 L -110.7,-673.5 L -110.714,-673.274 L -110.757,-673.052 L -110.826,-672.837 L -110.923,-672.633
 L -111.044,-672.442 L -111.188,-672.268 L -111.353,-672.113 L -111.536,-671.98 L -111.734,-671.871 L -111.944,-671.788
 L -112.163,-671.732 L -112.387,-671.704 z
M 112.387,-671.704 L 112.163,-671.732 L 111.944,-671.788 L 111.734,-671.871 L 111.536,-671.98 L 111.353,-672.113
 L 111.188,-672.268 L 111.044,-672.442 L 110.923,-672.633 L 110.826,-672.837 L 110.757,-673.052 L 110.714,-673.274
 L 110.7,-673.5 L 110.714,-673.726 L 110.757,-673.948 L 110.826,-674.163 L 110.923,-674.367 L 111.044,-674.558
 L 111.188,-674.732 L 111.353,-674.887 L 111.536,-675.02 L 111.734,-675.129 L 111.944,-675.212 L 112.163,-675.268
 L 112.387,-675.296 L 112.613,-675.296 L 112.837,-675.268 L 113.056,-675.212 L 113.266,-675.129 L 113.464,-675.02
 L 113.647,-674.887 L 113.812,-674.732 L 113.956,-674.558 L 114.077,-674.367 L 114.174,-674.163 L 114.243,-673.948
 L 114.286,-673.726 L 114.3,-673.5 L 114.286,-673.274 L 114.243,-673.052 L 114.174,-672.837 L 114.077,-672.633
 L 113.956,-672.442 L 113.812,-672.268 L 113.647,-672.113 L 113.464,-671.98 L 113.266,-671.871 L 113.056,-671.788
 L 112.837,-671.732 L 112.613,-671.704 z
" stroke="black" fill="lightgray" stroke-width="0.5"/>
</svg>
