<?xml version="1.0" standalone="no"?>
<!DOCTYPE svg PUBLIC "-//W3C//DTD SVG 1.1//EN" "http://www.w3.org/Graphics/SVG/1.1/DTD/svg11.dtd">
<svg width="256mm" height="328mm" viewBox="-128 -626 256 328" xmlns="http://www.w3.org/2000/svg" version="1.1">
<title>OpenSCAD Model</title>
<path d="
M 123.437,-550.589 L 124.045,-550.745 L 124.629,-550.976 L 125.179,-551.278 L 125.687,-551.647 L 126.145,-552.077
 L 126.545,-552.561 L 126.882,-553.091 L 127.149,-553.659 L 127.343,-554.257 L 127.461,-554.873 L 127.5,-555.5
 L 127.5,-620.5 L 127.461,-621.127 L 127.343,-621.743 L 127.149,-622.341 L 126.882,-622.909 L 126.545,-623.439
 L 126.145,-623.923 L 125.687,-624.353 L 125.179,-624.722 L 124.629,-625.024 L 124.045,-625.255 L 123.437,-625.411
 L 122.814,-625.49 L -122.814,-625.49 L -123.437,-625.411 L -124.045,-625.255 L -124.629,-625.024 L -125.179,-624.722
 L -125.687,-624.353 L -126.145,-623.923 L -126.545,-623.439 L -126.882,-622.909 L -127.149,-622.341 L -127.343,-621.743
 L -127.461,-621.127 L -127.5,-620.5 L -127.5,-555.5 L -127.461,-554.873 L -127.343,-554.257 L -127.149,-553.659
 L -126.882,-553.091 L -126.545,-552.561 L -126.145,-552.077 L -125.687,-551.647 L -125.179,-551.278 L -124.629,-550.976
 L -124.045,-550.745 L -123.437,-550.589 L -122.814,-550.51 L 122.814,-550.51 z
M -122.548,-551.009 L -123.14,-551.084 L -123.718,-551.232 L -124.272,-551.452 L -124.795,-551.739 L -125.278,-552.09
 L -125.713,-552.498 L -126.093,-552.958 L -126.412,-553.462 L -126.666,-554.001 L -126.851,-554.569 L -126.963,-555.155
 L -127,-555.75 L -127,-620.25 L -126.963,-620.845 L -126.851,-621.431 L -126.666,-621.999 L -126.412,-622.538
 L -126.093,-623.042 L -125.713,-623.502 L -125.278,-623.91 L -124.795,-624.261 L -124.272,-624.548 L -123.718,-624.768
 L -123.14,-624.916 L -122.548,-624.991 L 122.548,-624.991 L 123.14,-624.916 L 123.718,-624.768 L 124.272,-624.548
 L 124.795,-624.261 L 125.278,-623.91 L 125.713,-623.502 L 126.093,-623.042 L 126.412,-622.538 L 126.666,-621.999
 L 126.851,-621.431 L 126.963,-620.845 L 127,-620.25 L 127,-555.75 L 126.963,-555.155 L 126.851,-554.569
 L 126.666,-554.001 L 126.412,-553.462 L 126.093,-552.958 L 125.713,-552.498 L 125.278,-552.09 L 124.795,-551.739
 L 124.272,-551.452 L 123.718,-551.232 L 123.14,-551.084 L 122.548,-551.009 z
M 123.437,-466.589 L 124.045,-466.745 L 124.629,-466.976 L 125.179,-467.278 L 125.687,-467.647 L 126.145,-468.077
 L 126.545,-468.561 L 126.882,-469.091 L 127.149,-469.659 L 127.343,-470.257 L 127.461,-470.873 L 127.5,-471.5
 L 127.5,-536.5 L 127.461,-537.127 L 127.343,-537.743 L 127.149,-538.341 L 126.882,-538.909 L 126.545,-539.439
 L 126.145,-539.923 L 125.687,-540.353 L 125.179,-540.722 L 124.629,-541.024 L 124.045,-541.255 L 123.437,-541.411
 L 122.814,-541.49 L -122.814,-541.49 L -123.437,-541.411 L -124.045,-541.255 L -124.629,-541.024 L -125.179,-540.722
 L -125.687,-540.353 L -126.145,-539.923 L -126.545,-539.439 L -126.882,-538.909 L -127.149,-538.341 L -127.343,-537.743
 L -127.461,-537.127 L -127.5,-536.5 L -127.5,-471.5 L -127.461,-470.873 L -127.343,-470.257 L -127.149,-469.659
 L -126.882,-469.091 L -126.545,-468.561 L -126.145,-468.077 L -125.687,-467.647 L -125.179,-467.278 L -124.629,-466.976
 L -124.045,-466.745 L -123.437,-466.589 L -122.814,-466.51 L 122.814,-466.51 z
M -122.548,-467.009 L -123.14,-467.084 L -123.718,-467.232 L -124.272,-467.452 L -124.795,-467.739 L -125.278,-468.09
 L -125.713,-468.498 L -126.093,-468.958 L -126.412,-469.462 L -126.666,-470.001 L -126.851,-470.569 L -126.963,-471.155
 L -127,-471.75 L -127,-536.25 L -126.963,-536.845 L -126.851,-537.431 L -126.666,-537.999 L -126.412,-538.538
 L -126.093,-539.042 L -125.713,-539.502 L -125.278,-539.91 L -124.795,-540.261 L -124.272,-540.548 L -123.718,-540.768
 L -123.14,-540.916 L -122.548,-540.991 L 122.548,-540.991 L 123.14,-540.916 L 123.718,-540.768 L 124.272,-540.548
 L 124.795,-540.261 L 125.278,-539.91 L 125.713,-539.502 L 126.093,-539.042 L 126.412,-538.538 L 126.666,-537.999
 L 126.851,-537.431 L 126.963,-536.845 L 127,-536.25 L 127,-471.75 L 126.963,-471.155 L 126.851,-470.569
 L 126.666,-470.001 L 126.412,-469.462 L 126.093,-468.958 L 125.713,-468.498 L 125.278,-468.09 L 124.795,-467.739
 L 124.272,-467.452 L 123.718,-467.232 L 123.14,-467.084 L 122.548,-467.009 z
M 123.437,-382.589 L 124.045,-382.745 L 124.629,-382.976 L 125.179,-383.278 L 125.687,-383.647 L 126.145,-384.077
 L 126.545,-384.561 L 126.882,-385.091 L 127.149,-385.659 L 127.343,-386.257 L 127.461,-386.873 L 127.5,-387.5
 L 127.5,-452.5 L 127.461,-453.127 L 127.343,-453.743 L 127.149,-454.341 L 126.882,-454.909 L 126.545,-455.439
 L 126.145,-455.923 L 125.687,-456.353 L 125.179,-456.722 L 124.629,-457.024 L 124.045,-457.255 L 123.437,-457.411
 L 122.814,-457.49 L -122.814,-457.49 L -123.437,-457.411 L -124.045,-457.255 L -124.629,-457.024 L -125.179,-456.722
 L -125.687,-456.353 L -126.145,-455.923 L -126.545,-455.439 L -126.882,-454.909 L -127.149,-454.341 L -127.343,-453.743
 L -127.461,-453.127 L -127.5,-452.5 L -127.5,-387.5 L -127.461,-386.873 L -127.343,-386.257 L -127.149,-385.659
 L -126.882,-385.091 L -126.545,-384.561 L -126.145,-384.077 L -125.687,-383.647 L -125.179,-383.278 L -124.629,-382.976
 L -124.045,-382.745 L -123.437,-382.589 L -122.814,-382.51 L 122.814,-382.51 z
M -122.537,-383.181 L -123.108,-383.253 L -123.665,-383.396 L -124.199,-383.607 L -124.703,-383.884 L -125.168,-384.222
 L -125.588,-384.616 L -125.954,-385.059 L -126.262,-385.544 L -126.507,-386.065 L -126.685,-386.611 L -126.792,-387.176
 L -126.828,-387.75 L -126.828,-452.25 L -126.792,-452.824 L -126.685,-453.389 L -126.507,-453.935 L -126.262,-454.456
 L -125.954,-454.941 L -125.588,-455.384 L -125.168,-455.778 L -124.703,-456.116 L -124.199,-456.393 L -123.665,-456.604
 L -123.108,-456.747 L -122.537,-456.819 L 122.537,-456.819 L 123.108,-456.747 L 123.665,-456.604 L 124.199,-456.393
 L 124.703,-456.116 L 125.168,-455.778 L 125.588,-455.384 L 125.954,-454.941 L 126.262,-454.456 L 126.507,-453.935
 L 126.685,-453.389 L 126.792,-452.824 L 126.828,-452.25 L 126.828,-387.75 L 126.792,-387.176 L 126.685,-386.611
 L 126.507,-386.065 L 126.262,-385.544 L 125.954,-385.059 L 125.588,-384.616 L 125.168,-384.222 L 124.703,-383.884
 L 124.199,-383.607 L 123.665,-383.396 L 123.108,-383.253 L 122.537,-383.181 z
M 123.437,-298.589 L 124.045,-298.745 L 124.629,-298.976 L 125.179,-299.278 L 125.687,-299.647 L 126.145,-300.077
 L 126.545,-300.561 L 126.882,-301.091 L 127.149,-301.659 L 127.343,-302.257 L 127.461,-302.873 L 127.5,-303.5
 L 127.5,-368.5 L 127.461,-369.127 L 127.343,-369.743 L 127.149,-370.341 L 126.882,-370.909 L 126.545,-371.439
 L 126.145,-371.923 L 125.687,-372.353 L 125.179,-372.722 L 124.629,-373.024 L 124.045,-373.255 L 123.437,-373.411
 L 122.814,-373.49 L -122.814,-373.49 L -123.437,-373.411 L -124.045,-373.255 L -124.629,-373.024 L -125.179,-372.722
 L -125.687,-372.353 L -126.145,-371.923 L -126.545,-371.439 L -126.882,-370.909 L -127.149,-370.341 L -127.343,-369.743
 L -127.461,-369.127 L -127.5,-368.5 L -127.5,-303.5 L -127.461,-302.873 L -127.343,-302.257 L -127.149,-301.659
 L -126.882,-301.091 L -126.545,-300.561 L -126.145,-300.077 L -125.687,-299.647 L -125.179,-299.278 L -124.629,-298.976
 L -124.045,-298.745 L -123.437,-298.589 L -122.814,-298.51 L 122.814,-298.51 z
M -122.382,-301.645 L -122.645,-301.678 L -122.902,-301.744 L -123.148,-301.841 L -123.38,-301.969 L -123.595,-302.125
 L -123.788,-302.306 L -123.957,-302.51 L -124.099,-302.734 L -124.211,-302.973 L -124.293,-303.225 L -124.343,-303.486
 L -124.36,-303.75 L -124.36,-368.25 L -124.343,-368.514 L -124.293,-368.775 L -124.211,-369.027 L -124.099,-369.266
 L -123.957,-369.49 L -123.788,-369.694 L -123.595,-369.875 L -123.38,-370.031 L -123.148,-370.159 L -122.902,-370.256
 L -122.645,-370.322 L -122.382,-370.355 L 122.382,-370.355 L 122.645,-370.322 L 122.902,-370.256 L 123.148,-370.159
 L 123.38,-370.031 L 123.595,-369.875 L 123.788,-369.694 L 123.957,-369.49 L 124.099,-369.266 L 124.211,-369.027
 L 124.293,-368.775 L 124.343,-368.514 L 124.36,-368.25 L 124.36,-303.75 L 124.343,-303.486 L 124.293,-303.225
 L 124.211,-302.973 L 124.099,-302.734 L 123.957,-302.51 L 123.788,-302.306 L 123.595,-302.125 L 123.38,-301.969
 L 123.148,-301.841 L 122.902,-301.744 L 122.645,-301.678 L 122.382,-301.645 z
" stroke="black" fill="lightgray" stroke-width="0.5"/>
</svg>
