  0
SECTION
  2
BLOCKS
  0
ENDSEC
  0
SECTION
  2
ENTITIES
  0
LINE
  8
0
 10
-141
 20
1331.94
 11
-140.687
 21
1331.65
  0
LINE
  8
0
 10
-140.687
 20
1331.65
 11
-140.179
 21
1331.28
  0
LINE
  8
0
 10
-140.179
 20
1331.28
 11
-139.629
 21
1330.98
  0
LINE
  8
0
 10
-139.629
 20
1330.98
 11
-139.045
 21
1330.74
  0
LINE
  8
0
 10
-139.045
 20
1330.74
 11
-138.437
 21
1330.59
  0
LINE
  8
0
 10
-138.437
 20
1330.59
 11
-137.814
 21
1330.51
  0
LINE
  8
0
 10
-137.814
 20
1330.51
 11
137.814
 21
1330.51
  0
LINE
  8
0
 10
137.814
 20
1330.51
 11
138.437
 21
1330.59
  0
LINE
  8
0
 10
138.437
 20
1330.59
 11
139.045
 21
1330.74
  0
LINE
  8
0
 10
139.045
 20
1330.74
 11
139.629
 21
1330.98
  0
LINE
  8
0
 10
139.629
 20
1330.98
 11
140.179
 21
1331.28
  0
LINE
  8
0
 10
140.179
 20
1331.28
 11
140.687
 21
1331.65
  0
LINE
  8
0
 10
140.687
 20
1331.65
 11
141.145
 21
1332.08
  0
LINE
  8
0
 10
141.145
 20
1332.08
 11
141.545
 21
1332.56
  0
LINE
  8
0
 10
141.545
 20
1332.56
 11
141.882
 21
1333.09
  0
LINE
  8
0
 10
141.882
 20
1333.09
 11
142.149
 21
1333.66
  0
LINE
  8
0
 10
142.149
 20
1333.66
 11
142.343
 21
1334.26
  0
LINE
  8
0
 10
142.343
 20
1334.26
 11
142.461
 21
1334.87
  0
LINE
  8
0
 10
142.461
 20
1334.87
 11
142.5
 21
1335.5
  0
LINE
  8
0
 10
142.5
 20
1335.5
 11
142.5
 21
1520.5
  0
LINE
  8
0
 10
142.5
 20
1520.5
 11
142.461
 21
1521.13
  0
LINE
  8
0
 10
142.461
 20
1521.13
 11
142.343
 21
1521.74
  0
LINE
  8
0
 10
142.343
 20
1521.74
 11
142.149
 21
1522.34
  0
LINE
  8
0
 10
142.149
 20
1522.34
 11
141.882
 21
1522.91
  0
LINE
  8
0
 10
141.882
 20
1522.91
 11
141.545
 21
1523.44
  0
LINE
  8
0
 10
141.545
 20
1523.44
 11
141.145
 21
1523.92
  0
LINE
  8
0
 10
141.145
 20
1523.92
 11
140.687
 21
1524.35
  0
LINE
  8
0
 10
140.687
 20
1524.35
 11
140.179
 21
1524.72
  0
LINE
  8
0
 10
140.179
 20
1524.72
 11
139.629
 21
1525.02
  0
LINE
  8
0
 10
139.629
 20
1525.02
 11
139.045
 21
1525.26
  0
LINE
  8
0
 10
139.045
 20
1525.26
 11
138.437
 21
1525.41
  0
LINE
  8
0
 10
138.437
 20
1525.41
 11
137.814
 21
1525.49
  0
LINE
  8
0
 10
137.814
 20
1525.49
 11
-137.814
 21
1525.49
  0
LINE
  8
0
 10
-137.814
 20
1525.49
 11
-138.437
 21
1525.41
  0
LINE
  8
0
 10
-138.437
 20
1525.41
 11
-139.045
 21
1525.26
  0
LINE
  8
0
 10
-139.045
 20
1525.26
 11
-139.629
 21
1525.02
  0
LINE
  8
0
 10
-139.629
 20
1525.02
 11
-140.179
 21
1524.72
  0
LINE
  8
0
 10
-140.179
 20
1524.72
 11
-140.687
 21
1524.35
  0
LINE
  8
0
 10
-140.687
 20
1524.35
 11
-141
 21
1524.06
  0
LINE
  8
0
 10
-141
 20
1524.06
 11
-141
 21
1525.49
  0
LINE
  8
0
 10
-141
 20
1525.49
 11
-144
 21
1525.49
  0
LINE
  8
0
 10
-144
 20
1525.49
 11
-144
 21
1330.51
  0
LINE
  8
0
 10
-144
 20
1330.51
 11
-141
 21
1330.51
  0
LINE
  8
0
 10
-141
 20
1330.51
 11
-141
 21
1331.94
  0
LINE
  8
0
 10
-137.251
 20
1332.01
 11
-137.75
 21
1332.07
  0
LINE
  8
0
 10
-137.75
 20
1332.07
 11
-138.236
 21
1332.2
  0
LINE
  8
0
 10
-138.236
 20
1332.2
 11
-138.703
 21
1332.38
  0
LINE
  8
0
 10
-138.703
 20
1332.38
 11
-139.143
 21
1332.62
  0
LINE
  8
0
 10
-139.143
 20
1332.62
 11
-139.55
 21
1332.92
  0
LINE
  8
0
 10
-139.55
 20
1332.92
 11
-139.916
 21
1333.26
  0
LINE
  8
0
 10
-139.916
 20
1333.26
 11
-140.236
 21
1333.65
  0
LINE
  8
0
 10
-140.236
 20
1333.65
 11
-140.505
 21
1334.07
  0
LINE
  8
0
 10
-140.505
 20
1334.07
 11
-140.719
 21
1334.53
  0
LINE
  8
0
 10
-140.719
 20
1334.53
 11
-140.874
 21
1335.01
  0
LINE
  8
0
 10
-140.874
 20
1335.01
 11
-140.968
 21
1335.5
  0
LINE
  8
0
 10
-140.968
 20
1335.5
 11
-141
 21
1336
  0
LINE
  8
0
 10
-141
 20
1336
 11
-141
 21
1520
  0
LINE
  8
0
 10
-141
 20
1520
 11
-140.968
 21
1520.5
  0
LINE
  8
0
 10
-140.968
 20
1520.5
 11
-140.874
 21
1520.99
  0
LINE
  8
0
 10
-140.874
 20
1520.99
 11
-140.719
 21
1521.47
  0
LINE
  8
0
 10
-140.719
 20
1521.47
 11
-140.505
 21
1521.93
  0
LINE
  8
0
 10
-140.505
 20
1521.93
 11
-140.236
 21
1522.35
  0
LINE
  8
0
 10
-140.236
 20
1522.35
 11
-139.916
 21
1522.74
  0
LINE
  8
0
 10
-139.916
 20
1522.74
 11
-139.55
 21
1523.08
  0
LINE
  8
0
 10
-139.55
 20
1523.08
 11
-139.143
 21
1523.38
  0
LINE
  8
0
 10
-139.143
 20
1523.38
 11
-138.703
 21
1523.62
  0
LINE
  8
0
 10
-138.703
 20
1523.62
 11
-138.236
 21
1523.8
  0
LINE
  8
0
 10
-138.236
 20
1523.8
 11
-137.75
 21
1523.93
  0
LINE
  8
0
 10
-137.75
 20
1523.93
 11
-137.251
 21
1523.99
  0
LINE
  8
0
 10
-137.251
 20
1523.99
 11
137.251
 21
1523.99
  0
LINE
  8
0
 10
137.251
 20
1523.99
 11
137.75
 21
1523.93
  0
LINE
  8
0
 10
137.75
 20
1523.93
 11
138.236
 21
1523.8
  0
LINE
  8
0
 10
138.236
 20
1523.8
 11
138.703
 21
1523.62
  0
LINE
  8
0
 10
138.703
 20
1523.62
 11
139.143
 21
1523.38
  0
LINE
  8
0
 10
139.143
 20
1523.38
 11
139.55
 21
1523.08
  0
LINE
  8
0
 10
139.55
 20
1523.08
 11
139.916
 21
1522.74
  0
LINE
  8
0
 10
139.916
 20
1522.74
 11
140.236
 21
1522.35
  0
LINE
  8
0
 10
140.236
 20
1522.35
 11
140.505
 21
1521.93
  0
LINE
  8
0
 10
140.505
 20
1521.93
 11
140.719
 21
1521.47
  0
LINE
  8
0
 10
140.719
 20
1521.47
 11
140.874
 21
1520.99
  0
LINE
  8
0
 10
140.874
 20
1520.99
 11
140.968
 21
1520.5
  0
LINE
  8
0
 10
140.968
 20
1520.5
 11
141
 21
1520
  0
LINE
  8
0
 10
141
 20
1520
 11
141
 21
1336
  0
LINE
  8
0
 10
141
 20
1336
 11
140.968
 21
1335.5
  0
LINE
  8
0
 10
140.968
 20
1335.5
 11
140.874
 21
1335.01
  0
LINE
  8
0
 10
140.874
 20
1335.01
 11
140.719
 21
1334.53
  0
LINE
  8
0
 10
140.719
 20
1334.53
 11
140.505
 21
1334.07
  0
LINE
  8
0
 10
140.505
 20
1334.07
 11
140.236
 21
1333.65
  0
LINE
  8
0
 10
140.236
 20
1333.65
 11
139.916
 21
1333.26
  0
LINE
  8
0
 10
139.916
 20
1333.26
 11
139.55
 21
1332.92
  0
LINE
  8
0
 10
139.55
 20
1332.92
 11
139.143
 21
1332.62
  0
LINE
  8
0
 10
139.143
 20
1332.62
 11
138.703
 21
1332.38
  0
LINE
  8
0
 10
138.703
 20
1332.38
 11
138.236
 21
1332.2
  0
LINE
  8
0
 10
138.236
 20
1332.2
 11
137.75
 21
1332.07
  0
LINE
  8
0
 10
137.75
 20
1332.07
 11
137.251
 21
1332.01
  0
LINE
  8
0
 10
137.251
 20
1332.01
 11
-137.251
 21
1332.01
  0
LINE
  8
0
 10
-141
 20
1127.94
 11
-140.687
 21
1127.65
  0
LINE
  8
0
 10
-140.687
 20
1127.65
 11
-140.179
 21
1127.28
  0
LINE
  8
0
 10
-140.179
 20
1127.28
 11
-139.629
 21
1126.98
  0
LINE
  8
0
 10
-139.629
 20
1126.98
 11
-139.045
 21
1126.74
  0
LINE
  8
0
 10
-139.045
 20
1126.74
 11
-138.437
 21
1126.59
  0
LINE
  8
0
 10
-138.437
 20
1126.59
 11
-137.814
 21
1126.51
  0
LINE
  8
0
 10
-137.814
 20
1126.51
 11
137.814
 21
1126.51
  0
LINE
  8
0
 10
137.814
 20
1126.51
 11
138.437
 21
1126.59
  0
LINE
  8
0
 10
138.437
 20
1126.59
 11
139.045
 21
1126.74
  0
LINE
  8
0
 10
139.045
 20
1126.74
 11
139.629
 21
1126.98
  0
LINE
  8
0
 10
139.629
 20
1126.98
 11
140.179
 21
1127.28
  0
LINE
  8
0
 10
140.179
 20
1127.28
 11
140.687
 21
1127.65
  0
LINE
  8
0
 10
140.687
 20
1127.65
 11
141.145
 21
1128.08
  0
LINE
  8
0
 10
141.145
 20
1128.08
 11
141.545
 21
1128.56
  0
LINE
  8
0
 10
141.545
 20
1128.56
 11
141.882
 21
1129.09
  0
LINE
  8
0
 10
141.882
 20
1129.09
 11
142.149
 21
1129.66
  0
LINE
  8
0
 10
142.149
 20
1129.66
 11
142.343
 21
1130.26
  0
LINE
  8
0
 10
142.343
 20
1130.26
 11
142.461
 21
1130.87
  0
LINE
  8
0
 10
142.461
 20
1130.87
 11
142.5
 21
1131.5
  0
LINE
  8
0
 10
142.5
 20
1131.5
 11
142.5
 21
1316.5
  0
LINE
  8
0
 10
142.5
 20
1316.5
 11
142.461
 21
1317.13
  0
LINE
  8
0
 10
142.461
 20
1317.13
 11
142.343
 21
1317.74
  0
LINE
  8
0
 10
142.343
 20
1317.74
 11
142.149
 21
1318.34
  0
LINE
  8
0
 10
142.149
 20
1318.34
 11
141.882
 21
1318.91
  0
LINE
  8
0
 10
141.882
 20
1318.91
 11
141.545
 21
1319.44
  0
LINE
  8
0
 10
141.545
 20
1319.44
 11
141.145
 21
1319.92
  0
LINE
  8
0
 10
141.145
 20
1319.92
 11
140.687
 21
1320.35
  0
LINE
  8
0
 10
140.687
 20
1320.35
 11
140.179
 21
1320.72
  0
LINE
  8
0
 10
140.179
 20
1320.72
 11
139.629
 21
1321.02
  0
LINE
  8
0
 10
139.629
 20
1321.02
 11
139.045
 21
1321.26
  0
LINE
  8
0
 10
139.045
 20
1321.26
 11
138.437
 21
1321.41
  0
LINE
  8
0
 10
138.437
 20
1321.41
 11
137.814
 21
1321.49
  0
LINE
  8
0
 10
137.814
 20
1321.49
 11
-137.814
 21
1321.49
  0
LINE
  8
0
 10
-137.814
 20
1321.49
 11
-138.437
 21
1321.41
  0
LINE
  8
0
 10
-138.437
 20
1321.41
 11
-139.045
 21
1321.26
  0
LINE
  8
0
 10
-139.045
 20
1321.26
 11
-139.629
 21
1321.02
  0
LINE
  8
0
 10
-139.629
 20
1321.02
 11
-140.179
 21
1320.72
  0
LINE
  8
0
 10
-140.179
 20
1320.72
 11
-140.687
 21
1320.35
  0
LINE
  8
0
 10
-140.687
 20
1320.35
 11
-141
 21
1320.06
  0
LINE
  8
0
 10
-141
 20
1320.06
 11
-141
 21
1321.49
  0
LINE
  8
0
 10
-141
 20
1321.49
 11
-144
 21
1321.49
  0
LINE
  8
0
 10
-144
 20
1321.49
 11
-144
 21
1126.51
  0
LINE
  8
0
 10
-144
 20
1126.51
 11
-141
 21
1126.51
  0
LINE
  8
0
 10
-141
 20
1126.51
 11
-141
 21
1127.94
  0
LINE
  8
0
 10
-137.251
 20
1128.01
 11
-137.75
 21
1128.07
  0
LINE
  8
0
 10
-137.75
 20
1128.07
 11
-138.236
 21
1128.2
  0
LINE
  8
0
 10
-138.236
 20
1128.2
 11
-138.703
 21
1128.38
  0
LINE
  8
0
 10
-138.703
 20
1128.38
 11
-139.143
 21
1128.62
  0
LINE
  8
0
 10
-139.143
 20
1128.62
 11
-139.55
 21
1128.92
  0
LINE
  8
0
 10
-139.55
 20
1128.92
 11
-139.916
 21
1129.26
  0
LINE
  8
0
 10
-139.916
 20
1129.26
 11
-140.236
 21
1129.65
  0
LINE
  8
0
 10
-140.236
 20
1129.65
 11
-140.505
 21
1130.07
  0
LINE
  8
0
 10
-140.505
 20
1130.07
 11
-140.719
 21
1130.53
  0
LINE
  8
0
 10
-140.719
 20
1130.53
 11
-140.874
 21
1131.01
  0
LINE
  8
0
 10
-140.874
 20
1131.01
 11
-140.968
 21
1131.5
  0
LINE
  8
0
 10
-140.968
 20
1131.5
 11
-141
 21
1132
  0
LINE
  8
0
 10
-141
 20
1132
 11
-141
 21
1316
  0
LINE
  8
0
 10
-141
 20
1316
 11
-140.968
 21
1316.5
  0
LINE
  8
0
 10
-140.968
 20
1316.5
 11
-140.874
 21
1316.99
  0
LINE
  8
0
 10
-140.874
 20
1316.99
 11
-140.719
 21
1317.47
  0
LINE
  8
0
 10
-140.719
 20
1317.47
 11
-140.505
 21
1317.93
  0
LINE
  8
0
 10
-140.505
 20
1317.93
 11
-140.236
 21
1318.35
  0
LINE
  8
0
 10
-140.236
 20
1318.35
 11
-139.916
 21
1318.74
  0
LINE
  8
0
 10
-139.916
 20
1318.74
 11
-139.55
 21
1319.08
  0
LINE
  8
0
 10
-139.55
 20
1319.08
 11
-139.143
 21
1319.38
  0
LINE
  8
0
 10
-139.143
 20
1319.38
 11
-138.703
 21
1319.62
  0
LINE
  8
0
 10
-138.703
 20
1319.62
 11
-138.236
 21
1319.8
  0
LINE
  8
0
 10
-138.236
 20
1319.8
 11
-137.75
 21
1319.93
  0
LINE
  8
0
 10
-137.75
 20
1319.93
 11
-137.251
 21
1319.99
  0
LINE
  8
0
 10
-137.251
 20
1319.99
 11
137.251
 21
1319.99
  0
LINE
  8
0
 10
137.251
 20
1319.99
 11
137.75
 21
1319.93
  0
LINE
  8
0
 10
137.75
 20
1319.93
 11
138.236
 21
1319.8
  0
LINE
  8
0
 10
138.236
 20
1319.8
 11
138.703
 21
1319.62
  0
LINE
  8
0
 10
138.703
 20
1319.62
 11
139.143
 21
1319.38
  0
LINE
  8
0
 10
139.143
 20
1319.38
 11
139.55
 21
1319.08
  0
LINE
  8
0
 10
139.55
 20
1319.08
 11
139.916
 21
1318.74
  0
LINE
  8
0
 10
139.916
 20
1318.74
 11
140.236
 21
1318.35
  0
LINE
  8
0
 10
140.236
 20
1318.35
 11
140.505
 21
1317.93
  0
LINE
  8
0
 10
140.505
 20
1317.93
 11
140.719
 21
1317.47
  0
LINE
  8
0
 10
140.719
 20
1317.47
 11
140.874
 21
1316.99
  0
LINE
  8
0
 10
140.874
 20
1316.99
 11
140.968
 21
1316.5
  0
LINE
  8
0
 10
140.968
 20
1316.5
 11
141
 21
1316
  0
LINE
  8
0
 10
141
 20
1316
 11
141
 21
1132
  0
LINE
  8
0
 10
141
 20
1132
 11
140.968
 21
1131.5
  0
LINE
  8
0
 10
140.968
 20
1131.5
 11
140.874
 21
1131.01
  0
LINE
  8
0
 10
140.874
 20
1131.01
 11
140.719
 21
1130.53
  0
LINE
  8
0
 10
140.719
 20
1130.53
 11
140.505
 21
1130.07
  0
LINE
  8
0
 10
140.505
 20
1130.07
 11
140.236
 21
1129.65
  0
LINE
  8
0
 10
140.236
 20
1129.65
 11
139.916
 21
1129.26
  0
LINE
  8
0
 10
139.916
 20
1129.26
 11
139.55
 21
1128.92
  0
LINE
  8
0
 10
139.55
 20
1128.92
 11
139.143
 21
1128.62
  0
LINE
  8
0
 10
139.143
 20
1128.62
 11
138.703
 21
1128.38
  0
LINE
  8
0
 10
138.703
 20
1128.38
 11
138.236
 21
1128.2
  0
LINE
  8
0
 10
138.236
 20
1128.2
 11
137.75
 21
1128.07
  0
LINE
  8
0
 10
137.75
 20
1128.07
 11
137.251
 21
1128.01
  0
LINE
  8
0
 10
137.251
 20
1128.01
 11
-137.251
 21
1128.01
  0
LINE
  8
0
 10
138.437
 20
922.589
 11
139.045
 21
922.745
  0
LINE
  8
0
 10
139.045
 20
922.745
 11
139.629
 21
922.976
  0
LINE
  8
0
 10
139.629
 20
922.976
 11
140.179
 21
923.278
  0
LINE
  8
0
 10
140.179
 20
923.278
 11
140.687
 21
923.647
  0
LINE
  8
0
 10
140.687
 20
923.647
 11
141.145
 21
924.077
  0
LINE
  8
0
 10
141.145
 20
924.077
 11
141.545
 21
924.561
  0
LINE
  8
0
 10
141.545
 20
924.561
 11
141.882
 21
925.091
  0
LINE
  8
0
 10
141.882
 20
925.091
 11
142.149
 21
925.659
  0
LINE
  8
0
 10
142.149
 20
925.659
 11
142.343
 21
926.257
  0
LINE
  8
0
 10
142.343
 20
926.257
 11
142.461
 21
926.873
  0
LINE
  8
0
 10
142.461
 20
926.873
 11
142.5
 21
927.5
  0
LINE
  8
0
 10
142.5
 20
927.5
 11
142.5
 21
1112.5
  0
LINE
  8
0
 10
142.5
 20
1112.5
 11
142.461
 21
1113.13
  0
LINE
  8
0
 10
142.461
 20
1113.13
 11
142.343
 21
1113.74
  0
LINE
  8
0
 10
142.343
 20
1113.74
 11
142.149
 21
1114.34
  0
LINE
  8
0
 10
142.149
 20
1114.34
 11
141.882
 21
1114.91
  0
LINE
  8
0
 10
141.882
 20
1114.91
 11
141.545
 21
1115.44
  0
LINE
  8
0
 10
141.545
 20
1115.44
 11
141.145
 21
1115.92
  0
LINE
  8
0
 10
141.145
 20
1115.92
 11
140.687
 21
1116.35
  0
LINE
  8
0
 10
140.687
 20
1116.35
 11
140.179
 21
1116.72
  0
LINE
  8
0
 10
140.179
 20
1116.72
 11
139.629
 21
1117.02
  0
LINE
  8
0
 10
139.629
 20
1117.02
 11
139.045
 21
1117.26
  0
LINE
  8
0
 10
139.045
 20
1117.26
 11
138.437
 21
1117.41
  0
LINE
  8
0
 10
138.437
 20
1117.41
 11
137.814
 21
1117.49
  0
LINE
  8
0
 10
137.814
 20
1117.49
 11
-137.814
 21
1117.49
  0
LINE
  8
0
 10
-137.814
 20
1117.49
 11
-138.437
 21
1117.41
  0
LINE
  8
0
 10
-138.437
 20
1117.41
 11
-139.045
 21
1117.26
  0
LINE
  8
0
 10
-139.045
 20
1117.26
 11
-139.629
 21
1117.02
  0
LINE
  8
0
 10
-139.629
 20
1117.02
 11
-140.179
 21
1116.72
  0
LINE
  8
0
 10
-140.179
 20
1116.72
 11
-140.687
 21
1116.35
  0
LINE
  8
0
 10
-140.687
 20
1116.35
 11
-141
 21
1116.06
  0
LINE
  8
0
 10
-141
 20
1116.06
 11
-141
 21
1117.48
  0
LINE
  8
0
 10
-141
 20
1117.48
 11
-144
 21
1117.48
  0
LINE
  8
0
 10
-144
 20
1117.48
 11
-144
 21
922.521
  0
LINE
  8
0
 10
-144
 20
922.521
 11
-141
 21
922.521
  0
LINE
  8
0
 10
-141
 20
922.521
 11
-141
 21
923.941
  0
LINE
  8
0
 10
-141
 20
923.941
 11
-140.687
 21
923.647
  0
LINE
  8
0
 10
-140.687
 20
923.647
 11
-140.179
 21
923.278
  0
LINE
  8
0
 10
-140.179
 20
923.278
 11
-139.629
 21
922.976
  0
LINE
  8
0
 10
-139.629
 20
922.976
 11
-139.045
 21
922.745
  0
LINE
  8
0
 10
-139.045
 20
922.745
 11
-138.437
 21
922.589
  0
LINE
  8
0
 10
-138.437
 20
922.589
 11
-137.814
 21
922.51
  0
LINE
  8
0
 10
-137.814
 20
922.51
 11
137.814
 21
922.51
  0
LINE
  8
0
 10
137.814
 20
922.51
 11
138.437
 21
922.589
  0
LINE
  8
0
 10
-137.195
 20
924.893
 11
-137.583
 21
924.942
  0
LINE
  8
0
 10
-137.583
 20
924.942
 11
-137.962
 21
925.039
  0
LINE
  8
0
 10
-137.962
 20
925.039
 11
-138.325
 21
925.183
  0
LINE
  8
0
 10
-138.325
 20
925.183
 11
-138.668
 21
925.372
  0
LINE
  8
0
 10
-138.668
 20
925.372
 11
-138.984
 21
925.601
  0
LINE
  8
0
 10
-138.984
 20
925.601
 11
-139.269
 21
925.869
  0
LINE
  8
0
 10
-139.269
 20
925.869
 11
-139.518
 21
926.17
  0
LINE
  8
0
 10
-139.518
 20
926.17
 11
-139.728
 21
926.5
  0
LINE
  8
0
 10
-139.728
 20
926.5
 11
-139.894
 21
926.854
  0
LINE
  8
0
 10
-139.894
 20
926.854
 11
-140.015
 21
927.226
  0
LINE
  8
0
 10
-140.015
 20
927.226
 11
-140.088
 21
927.61
  0
LINE
  8
0
 10
-140.088
 20
927.61
 11
-140.113
 21
928
  0
LINE
  8
0
 10
-140.113
 20
928
 11
-140.113
 21
1112
  0
LINE
  8
0
 10
-140.113
 20
1112
 11
-140.088
 21
1112.39
  0
LINE
  8
0
 10
-140.088
 20
1112.39
 11
-140.015
 21
1112.77
  0
LINE
  8
0
 10
-140.015
 20
1112.77
 11
-139.894
 21
1113.15
  0
LINE
  8
0
 10
-139.894
 20
1113.15
 11
-139.728
 21
1113.5
  0
LINE
  8
0
 10
-139.728
 20
1113.5
 11
-139.518
 21
1113.83
  0
LINE
  8
0
 10
-139.518
 20
1113.83
 11
-139.269
 21
1114.13
  0
LINE
  8
0
 10
-139.269
 20
1114.13
 11
-138.984
 21
1114.4
  0
LINE
  8
0
 10
-138.984
 20
1114.4
 11
-138.668
 21
1114.63
  0
LINE
  8
0
 10
-138.668
 20
1114.63
 11
-138.325
 21
1114.82
  0
LINE
  8
0
 10
-138.325
 20
1114.82
 11
-137.962
 21
1114.96
  0
LINE
  8
0
 10
-137.962
 20
1114.96
 11
-137.583
 21
1115.06
  0
LINE
  8
0
 10
-137.583
 20
1115.06
 11
-137.195
 21
1115.11
  0
LINE
  8
0
 10
-137.195
 20
1115.11
 11
137.195
 21
1115.11
  0
LINE
  8
0
 10
137.195
 20
1115.11
 11
137.583
 21
1115.06
  0
LINE
  8
0
 10
137.583
 20
1115.06
 11
137.962
 21
1114.96
  0
LINE
  8
0
 10
137.962
 20
1114.96
 11
138.325
 21
1114.82
  0
LINE
  8
0
 10
138.325
 20
1114.82
 11
138.668
 21
1114.63
  0
LINE
  8
0
 10
138.668
 20
1114.63
 11
138.984
 21
1114.4
  0
LINE
  8
0
 10
138.984
 20
1114.4
 11
139.269
 21
1114.13
  0
LINE
  8
0
 10
139.269
 20
1114.13
 11
139.518
 21
1113.83
  0
LINE
  8
0
 10
139.518
 20
1113.83
 11
139.728
 21
1113.5
  0
LINE
  8
0
 10
139.728
 20
1113.5
 11
139.894
 21
1113.15
  0
LINE
  8
0
 10
139.894
 20
1113.15
 11
140.015
 21
1112.77
  0
LINE
  8
0
 10
140.015
 20
1112.77
 11
140.088
 21
1112.39
  0
LINE
  8
0
 10
140.088
 20
1112.39
 11
140.113
 21
1112
  0
LINE
  8
0
 10
140.113
 20
1112
 11
140.113
 21
928
  0
LINE
  8
0
 10
140.113
 20
928
 11
140.088
 21
927.61
  0
LINE
  8
0
 10
140.088
 20
927.61
 11
140.015
 21
927.226
  0
LINE
  8
0
 10
140.015
 20
927.226
 11
139.894
 21
926.854
  0
LINE
  8
0
 10
139.894
 20
926.854
 11
139.728
 21
926.5
  0
LINE
  8
0
 10
139.728
 20
926.5
 11
139.518
 21
926.17
  0
LINE
  8
0
 10
139.518
 20
926.17
 11
139.269
 21
925.869
  0
LINE
  8
0
 10
139.269
 20
925.869
 11
138.984
 21
925.601
  0
LINE
  8
0
 10
138.984
 20
925.601
 11
138.668
 21
925.372
  0
LINE
  8
0
 10
138.668
 20
925.372
 11
138.325
 21
925.183
  0
LINE
  8
0
 10
138.325
 20
925.183
 11
137.962
 21
925.039
  0
LINE
  8
0
 10
137.962
 20
925.039
 11
137.583
 21
924.942
  0
LINE
  8
0
 10
137.583
 20
924.942
 11
137.195
 21
924.893
  0
LINE
  8
0
 10
137.195
 20
924.893
 11
-137.195
 21
924.893
  0
LINE
  8
0
 10
138.437
 20
718.589
 11
139.045
 21
718.745
  0
LINE
  8
0
 10
139.045
 20
718.745
 11
139.629
 21
718.976
  0
LINE
  8
0
 10
139.629
 20
718.976
 11
140.179
 21
719.278
  0
LINE
  8
0
 10
140.179
 20
719.278
 11
140.687
 21
719.647
  0
LINE
  8
0
 10
140.687
 20
719.647
 11
141.145
 21
720.077
  0
LINE
  8
0
 10
141.145
 20
720.077
 11
141.545
 21
720.561
  0
LINE
  8
0
 10
141.545
 20
720.561
 11
141.882
 21
721.091
  0
LINE
  8
0
 10
141.882
 20
721.091
 11
142.149
 21
721.659
  0
LINE
  8
0
 10
142.149
 20
721.659
 11
142.343
 21
722.257
  0
LINE
  8
0
 10
142.343
 20
722.257
 11
142.461
 21
722.873
  0
LINE
  8
0
 10
142.461
 20
722.873
 11
142.5
 21
723.5
  0
LINE
  8
0
 10
142.5
 20
723.5
 11
142.5
 21
908.5
  0
LINE
  8
0
 10
142.5
 20
908.5
 11
142.461
 21
909.127
  0
LINE
  8
0
 10
142.461
 20
909.127
 11
142.343
 21
909.743
  0
LINE
  8
0
 10
142.343
 20
909.743
 11
142.149
 21
910.341
  0
LINE
  8
0
 10
142.149
 20
910.341
 11
141.882
 21
910.909
  0
LINE
  8
0
 10
141.882
 20
910.909
 11
141.545
 21
911.439
  0
LINE
  8
0
 10
141.545
 20
911.439
 11
141.145
 21
911.923
  0
LINE
  8
0
 10
141.145
 20
911.923
 11
140.687
 21
912.353
  0
LINE
  8
0
 10
140.687
 20
912.353
 11
140.179
 21
912.722
  0
LINE
  8
0
 10
140.179
 20
912.722
 11
139.629
 21
913.024
  0
LINE
  8
0
 10
139.629
 20
913.024
 11
139.045
 21
913.255
  0
LINE
  8
0
 10
139.045
 20
913.255
 11
138.437
 21
913.411
  0
LINE
  8
0
 10
138.437
 20
913.411
 11
137.814
 21
913.49
  0
LINE
  8
0
 10
137.814
 20
913.49
 11
-137.814
 21
913.49
  0
LINE
  8
0
 10
-137.814
 20
913.49
 11
-138.437
 21
913.411
  0
LINE
  8
0
 10
-138.437
 20
913.411
 11
-139.045
 21
913.255
  0
LINE
  8
0
 10
-139.045
 20
913.255
 11
-139.629
 21
913.024
  0
LINE
  8
0
 10
-139.629
 20
913.024
 11
-140.179
 21
912.722
  0
LINE
  8
0
 10
-140.179
 20
912.722
 11
-140.687
 21
912.353
  0
LINE
  8
0
 10
-140.687
 20
912.353
 11
-141
 21
912.059
  0
LINE
  8
0
 10
-141
 20
912.059
 11
-141
 21
912.153
  0
LINE
  8
0
 10
-141
 20
912.153
 11
-144
 21
912.153
  0
LINE
  8
0
 10
-144
 20
912.153
 11
-144
 21
719.847
  0
LINE
  8
0
 10
-144
 20
719.847
 11
-141
 21
719.847
  0
LINE
  8
0
 10
-141
 20
719.847
 11
-141
 21
719.941
  0
LINE
  8
0
 10
-141
 20
719.941
 11
-140.687
 21
719.647
  0
LINE
  8
0
 10
-140.687
 20
719.647
 11
-140.179
 21
719.278
  0
LINE
  8
0
 10
-140.179
 20
719.278
 11
-139.629
 21
718.976
  0
LINE
  8
0
 10
-139.629
 20
718.976
 11
-139.045
 21
718.745
  0
LINE
  8
0
 10
-139.045
 20
718.745
 11
-138.437
 21
718.589
  0
LINE
  8
0
 10
-138.437
 20
718.589
 11
-137.814
 21
718.51
  0
LINE
  8
0
 10
-137.814
 20
718.51
 11
137.814
 21
718.51
  0
LINE
  8
0
 10
137.814
 20
718.51
 11
138.437
 21
718.589
  0
LINE
  8
0
 10
-135.134
 20
903.869
 11
-135.4
 21
903.903
  0
LINE
  8
0
 10
-135.4
 20
903.903
 11
-135.66
 21
903.969
  0
LINE
  8
0
 10
-135.66
 20
903.969
 11
-135.909
 21
904.068
  0
LINE
  8
0
 10
-135.909
 20
904.068
 11
-136.144
 21
904.197
  0
LINE
  8
0
 10
-136.144
 20
904.197
 11
-136.361
 21
904.355
  0
LINE
  8
0
 10
-136.361
 20
904.355
 11
-136.557
 21
904.538
  0
LINE
  8
0
 10
-136.557
 20
904.538
 11
-136.727
 21
904.745
  0
LINE
  8
0
 10
-136.727
 20
904.745
 11
-136.871
 21
904.971
  0
LINE
  8
0
 10
-136.871
 20
904.971
 11
-136.985
 21
905.214
  0
LINE
  8
0
 10
-136.985
 20
905.214
 11
-137.068
 21
905.469
  0
LINE
  8
0
 10
-137.068
 20
905.469
 11
-137.118
 21
905.732
  0
LINE
  8
0
 10
-137.118
 20
905.732
 11
-137.135
 21
906
  0
LINE
  8
0
 10
-137.135
 20
906
 11
-137.118
 21
906.268
  0
LINE
  8
0
 10
-137.118
 20
906.268
 11
-137.068
 21
906.531
  0
LINE
  8
0
 10
-137.068
 20
906.531
 11
-136.985
 21
906.786
  0
LINE
  8
0
 10
-136.985
 20
906.786
 11
-136.871
 21
907.029
  0
LINE
  8
0
 10
-136.871
 20
907.029
 11
-136.727
 21
907.255
  0
LINE
  8
0
 10
-136.727
 20
907.255
 11
-136.557
 21
907.462
  0
LINE
  8
0
 10
-136.557
 20
907.462
 11
-136.361
 21
907.645
  0
LINE
  8
0
 10
-136.361
 20
907.645
 11
-136.144
 21
907.803
  0
LINE
  8
0
 10
-136.144
 20
907.803
 11
-135.909
 21
907.932
  0
LINE
  8
0
 10
-135.909
 20
907.932
 11
-135.66
 21
908.031
  0
LINE
  8
0
 10
-135.66
 20
908.031
 11
-135.4
 21
908.097
  0
LINE
  8
0
 10
-135.4
 20
908.097
 11
-135.134
 21
908.131
  0
LINE
  8
0
 10
-135.134
 20
908.131
 11
-134.866
 21
908.131
  0
LINE
  8
0
 10
-134.866
 20
908.131
 11
-134.6
 21
908.097
  0
LINE
  8
0
 10
-134.6
 20
908.097
 11
-134.34
 21
908.031
  0
LINE
  8
0
 10
-134.34
 20
908.031
 11
-134.091
 21
907.932
  0
LINE
  8
0
 10
-134.091
 20
907.932
 11
-133.856
 21
907.803
  0
LINE
  8
0
 10
-133.856
 20
907.803
 11
-133.639
 21
907.645
  0
LINE
  8
0
 10
-133.639
 20
907.645
 11
-133.443
 21
907.462
  0
LINE
  8
0
 10
-133.443
 20
907.462
 11
-133.273
 21
907.255
  0
LINE
  8
0
 10
-133.273
 20
907.255
 11
-133.129
 21
907.029
  0
LINE
  8
0
 10
-133.129
 20
907.029
 11
-133.015
 21
906.786
  0
LINE
  8
0
 10
-133.015
 20
906.786
 11
-132.932
 21
906.531
  0
LINE
  8
0
 10
-132.932
 20
906.531
 11
-132.882
 21
906.268
  0
LINE
  8
0
 10
-132.882
 20
906.268
 11
-132.865
 21
906
  0
LINE
  8
0
 10
-132.865
 20
906
 11
-132.882
 21
905.732
  0
LINE
  8
0
 10
-132.882
 20
905.732
 11
-132.932
 21
905.469
  0
LINE
  8
0
 10
-132.932
 20
905.469
 11
-133.015
 21
905.214
  0
LINE
  8
0
 10
-133.015
 20
905.214
 11
-133.129
 21
904.971
  0
LINE
  8
0
 10
-133.129
 20
904.971
 11
-133.273
 21
904.745
  0
LINE
  8
0
 10
-133.273
 20
904.745
 11
-133.443
 21
904.538
  0
LINE
  8
0
 10
-133.443
 20
904.538
 11
-133.639
 21
904.355
  0
LINE
  8
0
 10
-133.639
 20
904.355
 11
-133.856
 21
904.197
  0
LINE
  8
0
 10
-133.856
 20
904.197
 11
-134.091
 21
904.068
  0
LINE
  8
0
 10
-134.091
 20
904.068
 11
-134.34
 21
903.969
  0
LINE
  8
0
 10
-134.34
 20
903.969
 11
-134.6
 21
903.903
  0
LINE
  8
0
 10
-134.6
 20
903.903
 11
-134.866
 21
903.869
  0
LINE
  8
0
 10
-134.866
 20
903.869
 11
-135.134
 21
903.869
  0
LINE
  8
0
 10
134.866
 20
903.869
 11
134.6
 21
903.903
  0
LINE
  8
0
 10
134.6
 20
903.903
 11
134.34
 21
903.969
  0
LINE
  8
0
 10
134.34
 20
903.969
 11
134.091
 21
904.068
  0
LINE
  8
0
 10
134.091
 20
904.068
 11
133.856
 21
904.197
  0
LINE
  8
0
 10
133.856
 20
904.197
 11
133.639
 21
904.355
  0
LINE
  8
0
 10
133.639
 20
904.355
 11
133.443
 21
904.538
  0
LINE
  8
0
 10
133.443
 20
904.538
 11
133.273
 21
904.745
  0
LINE
  8
0
 10
133.273
 20
904.745
 11
133.129
 21
904.971
  0
LINE
  8
0
 10
133.129
 20
904.971
 11
133.015
 21
905.214
  0
LINE
  8
0
 10
133.015
 20
905.214
 11
132.932
 21
905.469
  0
LINE
  8
0
 10
132.932
 20
905.469
 11
132.882
 21
905.732
  0
LINE
  8
0
 10
132.882
 20
905.732
 11
132.865
 21
906
  0
LINE
  8
0
 10
132.865
 20
906
 11
132.882
 21
906.268
  0
LINE
  8
0
 10
132.882
 20
906.268
 11
132.932
 21
906.531
  0
LINE
  8
0
 10
132.932
 20
906.531
 11
133.015
 21
906.786
  0
LINE
  8
0
 10
133.015
 20
906.786
 11
133.129
 21
907.029
  0
LINE
  8
0
 10
133.129
 20
907.029
 11
133.273
 21
907.255
  0
LINE
  8
0
 10
133.273
 20
907.255
 11
133.443
 21
907.462
  0
LINE
  8
0
 10
133.443
 20
907.462
 11
133.639
 21
907.645
  0
LINE
  8
0
 10
133.639
 20
907.645
 11
133.856
 21
907.803
  0
LINE
  8
0
 10
133.856
 20
907.803
 11
134.091
 21
907.932
  0
LINE
  8
0
 10
134.091
 20
907.932
 11
134.34
 21
908.031
  0
LINE
  8
0
 10
134.34
 20
908.031
 11
134.6
 21
908.097
  0
LINE
  8
0
 10
134.6
 20
908.097
 11
134.866
 21
908.131
  0
LINE
  8
0
 10
134.866
 20
908.131
 11
135.134
 21
908.131
  0
LINE
  8
0
 10
135.134
 20
908.131
 11
135.4
 21
908.097
  0
LINE
  8
0
 10
135.4
 20
908.097
 11
135.66
 21
908.031
  0
LINE
  8
0
 10
135.66
 20
908.031
 11
135.909
 21
907.932
  0
LINE
  8
0
 10
135.909
 20
907.932
 11
136.144
 21
907.803
  0
LINE
  8
0
 10
136.144
 20
907.803
 11
136.361
 21
907.645
  0
LINE
  8
0
 10
136.361
 20
907.645
 11
136.557
 21
907.462
  0
LINE
  8
0
 10
136.557
 20
907.462
 11
136.727
 21
907.255
  0
LINE
  8
0
 10
136.727
 20
907.255
 11
136.871
 21
907.029
  0
LINE
  8
0
 10
136.871
 20
907.029
 11
136.985
 21
906.786
  0
LINE
  8
0
 10
136.985
 20
906.786
 11
137.068
 21
906.531
  0
LINE
  8
0
 10
137.068
 20
906.531
 11
137.118
 21
906.268
  0
LINE
  8
0
 10
137.118
 20
906.268
 11
137.135
 21
906
  0
LINE
  8
0
 10
137.135
 20
906
 11
137.118
 21
905.732
  0
LINE
  8
0
 10
137.118
 20
905.732
 11
137.068
 21
905.469
  0
LINE
  8
0
 10
137.068
 20
905.469
 11
136.985
 21
905.214
  0
LINE
  8
0
 10
136.985
 20
905.214
 11
136.871
 21
904.971
  0
LINE
  8
0
 10
136.871
 20
904.971
 11
136.727
 21
904.745
  0
LINE
  8
0
 10
136.727
 20
904.745
 11
136.557
 21
904.538
  0
LINE
  8
0
 10
136.557
 20
904.538
 11
136.361
 21
904.355
  0
LINE
  8
0
 10
136.361
 20
904.355
 11
136.144
 21
904.197
  0
LINE
  8
0
 10
136.144
 20
904.197
 11
135.909
 21
904.068
  0
LINE
  8
0
 10
135.909
 20
904.068
 11
135.66
 21
903.969
  0
LINE
  8
0
 10
135.66
 20
903.969
 11
135.4
 21
903.903
  0
LINE
  8
0
 10
135.4
 20
903.903
 11
135.134
 21
903.869
  0
LINE
  8
0
 10
135.134
 20
903.869
 11
134.866
 21
903.869
  0
LINE
  8
0
 10
-135.134
 20
723.869
 11
-135.4
 21
723.903
  0
LINE
  8
0
 10
-135.4
 20
723.903
 11
-135.66
 21
723.969
  0
LINE
  8
0
 10
-135.66
 20
723.969
 11
-135.909
 21
724.068
  0
LINE
  8
0
 10
-135.909
 20
724.068
 11
-136.144
 21
724.197
  0
LINE
  8
0
 10
-136.144
 20
724.197
 11
-136.361
 21
724.355
  0
LINE
  8
0
 10
-136.361
 20
724.355
 11
-136.557
 21
724.538
  0
LINE
  8
0
 10
-136.557
 20
724.538
 11
-136.727
 21
724.745
  0
LINE
  8
0
 10
-136.727
 20
724.745
 11
-136.871
 21
724.971
  0
LINE
  8
0
 10
-136.871
 20
724.971
 11
-136.985
 21
725.214
  0
LINE
  8
0
 10
-136.985
 20
725.214
 11
-137.068
 21
725.469
  0
LINE
  8
0
 10
-137.068
 20
725.469
 11
-137.118
 21
725.732
  0
LINE
  8
0
 10
-137.118
 20
725.732
 11
-137.135
 21
726
  0
LINE
  8
0
 10
-137.135
 20
726
 11
-137.118
 21
726.268
  0
LINE
  8
0
 10
-137.118
 20
726.268
 11
-137.068
 21
726.531
  0
LINE
  8
0
 10
-137.068
 20
726.531
 11
-136.985
 21
726.786
  0
LINE
  8
0
 10
-136.985
 20
726.786
 11
-136.871
 21
727.029
  0
LINE
  8
0
 10
-136.871
 20
727.029
 11
-136.727
 21
727.255
  0
LINE
  8
0
 10
-136.727
 20
727.255
 11
-136.557
 21
727.462
  0
LINE
  8
0
 10
-136.557
 20
727.462
 11
-136.361
 21
727.645
  0
LINE
  8
0
 10
-136.361
 20
727.645
 11
-136.144
 21
727.803
  0
LINE
  8
0
 10
-136.144
 20
727.803
 11
-135.909
 21
727.932
  0
LINE
  8
0
 10
-135.909
 20
727.932
 11
-135.66
 21
728.031
  0
LINE
  8
0
 10
-135.66
 20
728.031
 11
-135.4
 21
728.097
  0
LINE
  8
0
 10
-135.4
 20
728.097
 11
-135.134
 21
728.131
  0
LINE
  8
0
 10
-135.134
 20
728.131
 11
-134.866
 21
728.131
  0
LINE
  8
0
 10
-134.866
 20
728.131
 11
-134.6
 21
728.097
  0
LINE
  8
0
 10
-134.6
 20
728.097
 11
-134.34
 21
728.031
  0
LINE
  8
0
 10
-134.34
 20
728.031
 11
-134.091
 21
727.932
  0
LINE
  8
0
 10
-134.091
 20
727.932
 11
-133.856
 21
727.803
  0
LINE
  8
0
 10
-133.856
 20
727.803
 11
-133.639
 21
727.645
  0
LINE
  8
0
 10
-133.639
 20
727.645
 11
-133.443
 21
727.462
  0
LINE
  8
0
 10
-133.443
 20
727.462
 11
-133.273
 21
727.255
  0
LINE
  8
0
 10
-133.273
 20
727.255
 11
-133.129
 21
727.029
  0
LINE
  8
0
 10
-133.129
 20
727.029
 11
-133.015
 21
726.786
  0
LINE
  8
0
 10
-133.015
 20
726.786
 11
-132.932
 21
726.531
  0
LINE
  8
0
 10
-132.932
 20
726.531
 11
-132.882
 21
726.268
  0
LINE
  8
0
 10
-132.882
 20
726.268
 11
-132.865
 21
726
  0
LINE
  8
0
 10
-132.865
 20
726
 11
-132.882
 21
725.732
  0
LINE
  8
0
 10
-132.882
 20
725.732
 11
-132.932
 21
725.469
  0
LINE
  8
0
 10
-132.932
 20
725.469
 11
-133.015
 21
725.214
  0
LINE
  8
0
 10
-133.015
 20
725.214
 11
-133.129
 21
724.971
  0
LINE
  8
0
 10
-133.129
 20
724.971
 11
-133.273
 21
724.745
  0
LINE
  8
0
 10
-133.273
 20
724.745
 11
-133.443
 21
724.538
  0
LINE
  8
0
 10
-133.443
 20
724.538
 11
-133.639
 21
724.355
  0
LINE
  8
0
 10
-133.639
 20
724.355
 11
-133.856
 21
724.197
  0
LINE
  8
0
 10
-133.856
 20
724.197
 11
-134.091
 21
724.068
  0
LINE
  8
0
 10
-134.091
 20
724.068
 11
-134.34
 21
723.969
  0
LINE
  8
0
 10
-134.34
 20
723.969
 11
-134.6
 21
723.903
  0
LINE
  8
0
 10
-134.6
 20
723.903
 11
-134.866
 21
723.869
  0
LINE
  8
0
 10
-134.866
 20
723.869
 11
-135.134
 21
723.869
  0
LINE
  8
0
 10
134.866
 20
723.869
 11
134.6
 21
723.903
  0
LINE
  8
0
 10
134.6
 20
723.903
 11
134.34
 21
723.969
  0
LINE
  8
0
 10
134.34
 20
723.969
 11
134.091
 21
724.068
  0
LINE
  8
0
 10
134.091
 20
724.068
 11
133.856
 21
724.197
  0
LINE
  8
0
 10
133.856
 20
724.197
 11
133.639
 21
724.355
  0
LINE
  8
0
 10
133.639
 20
724.355
 11
133.443
 21
724.538
  0
LINE
  8
0
 10
133.443
 20
724.538
 11
133.273
 21
724.745
  0
LINE
  8
0
 10
133.273
 20
724.745
 11
133.129
 21
724.971
  0
LINE
  8
0
 10
133.129
 20
724.971
 11
133.015
 21
725.214
  0
LINE
  8
0
 10
133.015
 20
725.214
 11
132.932
 21
725.469
  0
LINE
  8
0
 10
132.932
 20
725.469
 11
132.882
 21
725.732
  0
LINE
  8
0
 10
132.882
 20
725.732
 11
132.865
 21
726
  0
LINE
  8
0
 10
132.865
 20
726
 11
132.882
 21
726.268
  0
LINE
  8
0
 10
132.882
 20
726.268
 11
132.932
 21
726.531
  0
LINE
  8
0
 10
132.932
 20
726.531
 11
133.015
 21
726.786
  0
LINE
  8
0
 10
133.015
 20
726.786
 11
133.129
 21
727.029
  0
LINE
  8
0
 10
133.129
 20
727.029
 11
133.273
 21
727.255
  0
LINE
  8
0
 10
133.273
 20
727.255
 11
133.443
 21
727.462
  0
LINE
  8
0
 10
133.443
 20
727.462
 11
133.639
 21
727.645
  0
LINE
  8
0
 10
133.639
 20
727.645
 11
133.856
 21
727.803
  0
LINE
  8
0
 10
133.856
 20
727.803
 11
134.091
 21
727.932
  0
LINE
  8
0
 10
134.091
 20
727.932
 11
134.34
 21
728.031
  0
LINE
  8
0
 10
134.34
 20
728.031
 11
134.6
 21
728.097
  0
LINE
  8
0
 10
134.6
 20
728.097
 11
134.866
 21
728.131
  0
LINE
  8
0
 10
134.866
 20
728.131
 11
135.134
 21
728.131
  0
LINE
  8
0
 10
135.134
 20
728.131
 11
135.4
 21
728.097
  0
LINE
  8
0
 10
135.4
 20
728.097
 11
135.66
 21
728.031
  0
LINE
  8
0
 10
135.66
 20
728.031
 11
135.909
 21
727.932
  0
LINE
  8
0
 10
135.909
 20
727.932
 11
136.144
 21
727.803
  0
LINE
  8
0
 10
136.144
 20
727.803
 11
136.361
 21
727.645
  0
LINE
  8
0
 10
136.361
 20
727.645
 11
136.557
 21
727.462
  0
LINE
  8
0
 10
136.557
 20
727.462
 11
136.727
 21
727.255
  0
LINE
  8
0
 10
136.727
 20
727.255
 11
136.871
 21
727.029
  0
LINE
  8
0
 10
136.871
 20
727.029
 11
136.985
 21
726.786
  0
LINE
  8
0
 10
136.985
 20
726.786
 11
137.068
 21
726.531
  0
LINE
  8
0
 10
137.068
 20
726.531
 11
137.118
 21
726.268
  0
LINE
  8
0
 10
137.118
 20
726.268
 11
137.135
 21
726
  0
LINE
  8
0
 10
137.135
 20
726
 11
137.118
 21
725.732
  0
LINE
  8
0
 10
137.118
 20
725.732
 11
137.068
 21
725.469
  0
LINE
  8
0
 10
137.068
 20
725.469
 11
136.985
 21
725.214
  0
LINE
  8
0
 10
136.985
 20
725.214
 11
136.871
 21
724.971
  0
LINE
  8
0
 10
136.871
 20
724.971
 11
136.727
 21
724.745
  0
LINE
  8
0
 10
136.727
 20
724.745
 11
136.557
 21
724.538
  0
LINE
  8
0
 10
136.557
 20
724.538
 11
136.361
 21
724.355
  0
LINE
  8
0
 10
136.361
 20
724.355
 11
136.144
 21
724.197
  0
LINE
  8
0
 10
136.144
 20
724.197
 11
135.909
 21
724.068
  0
LINE
  8
0
 10
135.909
 20
724.068
 11
135.66
 21
723.969
  0
LINE
  8
0
 10
135.66
 20
723.969
 11
135.4
 21
723.903
  0
LINE
  8
0
 10
135.4
 20
723.903
 11
135.134
 21
723.869
  0
LINE
  8
0
 10
135.134
 20
723.869
 11
134.866
 21
723.869
  0
ENDSEC
  0
SECTION
  2
OBJECTS
  0
DICTIONARY
  0
ENDSEC
  0
EOF
