<?xml version="1.0" standalone="no"?>
<!DOCTYPE svg PUBLIC "-//W3C//DTD SVG 1.1//EN" "http://www.w3.org/Graphics/SVG/1.1/DTD/svg11.dtd">
<svg width="287mm" height="129mm" viewBox="-144 -237 287 129" xmlns="http://www.w3.org/2000/svg" version="1.1">
<title>OpenSCAD Model</title>
<path d="
M 138.437,-177.089 L 139.045,-177.245 L 139.629,-177.476 L 140.179,-177.778 L 140.687,-178.147 L 141.145,-178.577
 L 141.545,-179.061 L 141.882,-179.591 L 142.149,-180.159 L 142.343,-180.757 L 142.461,-181.373 L 142.5,-182
 L 142.5,-232 L 142.461,-232.627 L 142.343,-233.243 L 142.149,-233.841 L 141.882,-234.409 L 141.545,-234.939
 L 141.145,-235.423 L 140.687,-235.853 L 140.179,-236.222 L 139.629,-236.524 L 139.045,-236.755 L 138.437,-236.911
 L 137.814,-236.99 L -137.814,-236.99 L -138.437,-236.911 L -139.045,-236.755 L -139.629,-236.524 L -140.179,-236.222
 L -140.687,-235.853 L -141,-235.559 L -141,-236.979 L -144,-236.979 L -144,-177.021 L -141,-177.021
 L -141,-178.441 L -140.687,-178.147 L -140.179,-177.778 L -139.629,-177.476 L -139.045,-177.245 L -138.437,-177.089
 L -137.814,-177.01 L 137.814,-177.01 z
M -137.195,-179.393 L -137.583,-179.442 L -137.962,-179.539 L -138.325,-179.683 L -138.668,-179.872 L -138.984,-180.101
 L -139.269,-180.369 L -139.518,-180.67 L -139.728,-181 L -139.894,-181.354 L -140.015,-181.726 L -140.088,-182.11
 L -140.113,-182.5 L -140.113,-231.5 L -140.088,-231.89 L -140.015,-232.274 L -139.894,-232.646 L -139.728,-233
 L -139.518,-233.33 L -139.269,-233.631 L -138.984,-233.899 L -138.668,-234.128 L -138.325,-234.317 L -137.962,-234.461
 L -137.583,-234.558 L -137.195,-234.607 L 137.195,-234.607 L 137.583,-234.558 L 137.962,-234.461 L 138.325,-234.317
 L 138.668,-234.128 L 138.984,-233.899 L 139.269,-233.631 L 139.518,-233.33 L 139.728,-233 L 139.894,-232.646
 L 140.015,-232.274 L 140.088,-231.89 L 140.113,-231.5 L 140.113,-182.5 L 140.088,-182.11 L 140.015,-181.726
 L 139.894,-181.354 L 139.728,-181 L 139.518,-180.67 L 139.269,-180.369 L 138.984,-180.101 L 138.668,-179.872
 L 138.325,-179.683 L 137.962,-179.539 L 137.583,-179.442 L 137.195,-179.393 z
M 138.437,-108.089 L 139.045,-108.245 L 139.629,-108.476 L 140.179,-108.778 L 140.687,-109.147 L 141.145,-109.577
 L 141.545,-110.061 L 141.882,-110.591 L 142.149,-111.159 L 142.343,-111.757 L 142.461,-112.373 L 142.5,-113
 L 142.5,-163 L 142.461,-163.627 L 142.343,-164.243 L 142.149,-164.841 L 141.882,-165.409 L 141.545,-165.939
 L 141.145,-166.423 L 140.687,-166.853 L 140.179,-167.222 L 139.629,-167.524 L 139.045,-167.755 L 138.437,-167.911
 L 137.814,-167.99 L -137.814,-167.99 L -138.437,-167.911 L -139.045,-167.755 L -139.629,-167.524 L -140.179,-167.222
 L -140.687,-166.853 L -141,-166.559 L -141,-166.653 L -144,-166.653 L -144,-109.347 L -141,-109.347
 L -141,-109.441 L -140.687,-109.147 L -140.179,-108.778 L -139.629,-108.476 L -139.045,-108.245 L -138.437,-108.089
 L -137.814,-108.01 L 137.814,-108.01 z
M 134.866,-158.369 L 134.6,-158.403 L 134.34,-158.469 L 134.091,-158.568 L 133.856,-158.697 L 133.639,-158.855
 L 133.443,-159.038 L 133.273,-159.245 L 133.129,-159.471 L 133.015,-159.714 L 132.932,-159.969 L 132.882,-160.232
 L 132.865,-160.5 L 132.882,-160.768 L 132.932,-161.031 L 133.015,-161.286 L 133.129,-161.529 L 133.273,-161.755
 L 133.443,-161.962 L 133.639,-162.145 L 133.856,-162.303 L 134.091,-162.432 L 134.34,-162.531 L 134.6,-162.597
 L 134.866,-162.631 L 135.134,-162.631 L 135.4,-162.597 L 135.66,-162.531 L 135.909,-162.432 L 136.144,-162.303
 L 136.361,-162.145 L 136.557,-161.962 L 136.727,-161.755 L 136.871,-161.529 L 136.985,-161.286 L 137.068,-161.031
 L 137.118,-160.768 L 137.135,-160.5 L 137.118,-160.232 L 137.068,-159.969 L 136.985,-159.714 L 136.871,-159.471
 L 136.727,-159.245 L 136.557,-159.038 L 136.361,-158.855 L 136.144,-158.697 L 135.909,-158.568 L 135.66,-158.469
 L 135.4,-158.403 L 135.134,-158.369 z
M -135.134,-158.369 L -135.4,-158.403 L -135.66,-158.469 L -135.909,-158.568 L -136.144,-158.697 L -136.361,-158.855
 L -136.557,-159.038 L -136.727,-159.245 L -136.871,-159.471 L -136.985,-159.714 L -137.068,-159.969 L -137.118,-160.232
 L -137.135,-160.5 L -137.118,-160.768 L -137.068,-161.031 L -136.985,-161.286 L -136.871,-161.529 L -136.727,-161.755
 L -136.557,-161.962 L -136.361,-162.145 L -136.144,-162.303 L -135.909,-162.432 L -135.66,-162.531 L -135.4,-162.597
 L -135.134,-162.631 L -134.866,-162.631 L -134.6,-162.597 L -134.34,-162.531 L -134.091,-162.432 L -133.856,-162.303
 L -133.639,-162.145 L -133.443,-161.962 L -133.273,-161.755 L -133.129,-161.529 L -133.015,-161.286 L -132.932,-161.031
 L -132.882,-160.768 L -132.865,-160.5 L -132.882,-160.232 L -132.932,-159.969 L -133.015,-159.714 L -133.129,-159.471
 L -133.273,-159.245 L -133.443,-159.038 L -133.639,-158.855 L -133.856,-158.697 L -134.091,-158.568 L -134.34,-158.469
 L -134.6,-158.403 L -134.866,-158.369 z
M 134.866,-113.369 L 134.6,-113.403 L 134.34,-113.469 L 134.091,-113.568 L 133.856,-113.697 L 133.639,-113.855
 L 133.443,-114.038 L 133.273,-114.245 L 133.129,-114.471 L 133.015,-114.714 L 132.932,-114.969 L 132.882,-115.232
 L 132.865,-115.5 L 132.882,-115.768 L 132.932,-116.031 L 133.015,-116.286 L 133.129,-116.529 L 133.273,-116.755
 L 133.443,-116.962 L 133.639,-117.145 L 133.856,-117.303 L 134.091,-117.432 L 134.34,-117.531 L 134.6,-117.597
 L 134.866,-117.631 L 135.134,-117.631 L 135.4,-117.597 L 135.66,-117.531 L 135.909,-117.432 L 136.144,-117.303
 L 136.361,-117.145 L 136.557,-116.962 L 136.727,-116.755 L 136.871,-116.529 L 136.985,-116.286 L 137.068,-116.031
 L 137.118,-115.768 L 137.135,-115.5 L 137.118,-115.232 L 137.068,-114.969 L 136.985,-114.714 L 136.871,-114.471
 L 136.727,-114.245 L 136.557,-114.038 L 136.361,-113.855 L 136.144,-113.697 L 135.909,-113.568 L 135.66,-113.469
 L 135.4,-113.403 L 135.134,-113.369 z
M -135.134,-113.369 L -135.4,-113.403 L -135.66,-113.469 L -135.909,-113.568 L -136.144,-113.697 L -136.361,-113.855
 L -136.557,-114.038 L -136.727,-114.245 L -136.871,-114.471 L -136.985,-114.714 L -137.068,-114.969 L -137.118,-115.232
 L -137.135,-115.5 L -137.118,-115.768 L -137.068,-116.031 L -136.985,-116.286 L -136.871,-116.529 L -136.727,-116.755
 L -136.557,-116.962 L -136.361,-117.145 L -136.144,-117.303 L -135.909,-117.432 L -135.66,-117.531 L -135.4,-117.597
 L -135.134,-117.631 L -134.866,-117.631 L -134.6,-117.597 L -134.34,-117.531 L -134.091,-117.432 L -133.856,-117.303
 L -133.639,-117.145 L -133.443,-116.962 L -133.273,-116.755 L -133.129,-116.529 L -133.015,-116.286 L -132.932,-116.031
 L -132.882,-115.768 L -132.865,-115.5 L -132.882,-115.232 L -132.932,-114.969 L -133.015,-114.714 L -133.129,-114.471
 L -133.273,-114.245 L -133.443,-114.038 L -133.639,-113.855 L -133.856,-113.697 L -134.091,-113.568 L -134.34,-113.469
 L -134.6,-113.403 L -134.866,-113.369 z
" stroke="black" fill="lightgray" stroke-width="0.5"/>
</svg>
