  0
SECTION
  2
BLOCKS
  0
ENDSEC
  0
SECTION
  2
ENTITIES
  0
LINE
  8
0
 10
-118.5
 20
1760.94
 11
-118.187
 21
1760.65
  0
LINE
  8
0
 10
-118.187
 20
1760.65
 11
-117.679
 21
1760.28
  0
LINE
  8
0
 10
-117.679
 20
1760.28
 11
-117.129
 21
1759.98
  0
LINE
  8
0
 10
-117.129
 20
1759.98
 11
-116.545
 21
1759.74
  0
LINE
  8
0
 10
-116.545
 20
1759.74
 11
-115.937
 21
1759.59
  0
LINE
  8
0
 10
-115.937
 20
1759.59
 11
-115.314
 21
1759.51
  0
LINE
  8
0
 10
-115.314
 20
1759.51
 11
115.314
 21
1759.51
  0
LINE
  8
0
 10
115.314
 20
1759.51
 11
115.937
 21
1759.59
  0
LINE
  8
0
 10
115.937
 20
1759.59
 11
116.545
 21
1759.74
  0
LINE
  8
0
 10
116.545
 20
1759.74
 11
117.129
 21
1759.98
  0
LINE
  8
0
 10
117.129
 20
1759.98
 11
117.679
 21
1760.28
  0
LINE
  8
0
 10
117.679
 20
1760.28
 11
118.187
 21
1760.65
  0
LINE
  8
0
 10
118.187
 20
1760.65
 11
118.645
 21
1761.08
  0
LINE
  8
0
 10
118.645
 20
1761.08
 11
119.045
 21
1761.56
  0
LINE
  8
0
 10
119.045
 20
1761.56
 11
119.382
 21
1762.09
  0
LINE
  8
0
 10
119.382
 20
1762.09
 11
119.649
 21
1762.66
  0
LINE
  8
0
 10
119.649
 20
1762.66
 11
119.843
 21
1763.26
  0
LINE
  8
0
 10
119.843
 20
1763.26
 11
119.961
 21
1763.87
  0
LINE
  8
0
 10
119.961
 20
1763.87
 11
120
 21
1764.5
  0
LINE
  8
0
 10
120
 20
1764.5
 11
120
 21
1979.5
  0
LINE
  8
0
 10
120
 20
1979.5
 11
119.961
 21
1980.13
  0
LINE
  8
0
 10
119.961
 20
1980.13
 11
119.843
 21
1980.74
  0
LINE
  8
0
 10
119.843
 20
1980.74
 11
119.649
 21
1981.34
  0
LINE
  8
0
 10
119.649
 20
1981.34
 11
119.382
 21
1981.91
  0
LINE
  8
0
 10
119.382
 20
1981.91
 11
119.045
 21
1982.44
  0
LINE
  8
0
 10
119.045
 20
1982.44
 11
118.645
 21
1982.92
  0
LINE
  8
0
 10
118.645
 20
1982.92
 11
118.187
 21
1983.35
  0
LINE
  8
0
 10
118.187
 20
1983.35
 11
117.679
 21
1983.72
  0
LINE
  8
0
 10
117.679
 20
1983.72
 11
117.129
 21
1984.02
  0
LINE
  8
0
 10
117.129
 20
1984.02
 11
116.545
 21
1984.26
  0
LINE
  8
0
 10
116.545
 20
1984.26
 11
115.937
 21
1984.41
  0
LINE
  8
0
 10
115.937
 20
1984.41
 11
115.314
 21
1984.49
  0
LINE
  8
0
 10
115.314
 20
1984.49
 11
-115.314
 21
1984.49
  0
LINE
  8
0
 10
-115.314
 20
1984.49
 11
-115.937
 21
1984.41
  0
LINE
  8
0
 10
-115.937
 20
1984.41
 11
-116.545
 21
1984.26
  0
LINE
  8
0
 10
-116.545
 20
1984.26
 11
-117.129
 21
1984.02
  0
LINE
  8
0
 10
-117.129
 20
1984.02
 11
-117.679
 21
1983.72
  0
LINE
  8
0
 10
-117.679
 20
1983.72
 11
-118.187
 21
1983.35
  0
LINE
  8
0
 10
-118.187
 20
1983.35
 11
-118.5
 21
1983.06
  0
LINE
  8
0
 10
-118.5
 20
1983.06
 11
-118.5
 21
1984.49
  0
LINE
  8
0
 10
-118.5
 20
1984.49
 11
-121.5
 21
1984.49
  0
LINE
  8
0
 10
-121.5
 20
1984.49
 11
-121.5
 21
1759.51
  0
LINE
  8
0
 10
-121.5
 20
1759.51
 11
-118.5
 21
1759.51
  0
LINE
  8
0
 10
-118.5
 20
1759.51
 11
-118.5
 21
1760.94
  0
LINE
  8
0
 10
-114.751
 20
1761.01
 11
-115.25
 21
1761.07
  0
LINE
  8
0
 10
-115.25
 20
1761.07
 11
-115.736
 21
1761.2
  0
LINE
  8
0
 10
-115.736
 20
1761.2
 11
-116.203
 21
1761.38
  0
LINE
  8
0
 10
-116.203
 20
1761.38
 11
-116.643
 21
1761.62
  0
LINE
  8
0
 10
-116.643
 20
1761.62
 11
-117.05
 21
1761.92
  0
LINE
  8
0
 10
-117.05
 20
1761.92
 11
-117.416
 21
1762.26
  0
LINE
  8
0
 10
-117.416
 20
1762.26
 11
-117.736
 21
1762.65
  0
LINE
  8
0
 10
-117.736
 20
1762.65
 11
-118.005
 21
1763.07
  0
LINE
  8
0
 10
-118.005
 20
1763.07
 11
-118.219
 21
1763.53
  0
LINE
  8
0
 10
-118.219
 20
1763.53
 11
-118.374
 21
1764.01
  0
LINE
  8
0
 10
-118.374
 20
1764.01
 11
-118.468
 21
1764.5
  0
LINE
  8
0
 10
-118.468
 20
1764.5
 11
-118.5
 21
1765
  0
LINE
  8
0
 10
-118.5
 20
1765
 11
-118.5
 21
1979
  0
LINE
  8
0
 10
-118.5
 20
1979
 11
-118.468
 21
1979.5
  0
LINE
  8
0
 10
-118.468
 20
1979.5
 11
-118.374
 21
1979.99
  0
LINE
  8
0
 10
-118.374
 20
1979.99
 11
-118.219
 21
1980.47
  0
LINE
  8
0
 10
-118.219
 20
1980.47
 11
-118.005
 21
1980.93
  0
LINE
  8
0
 10
-118.005
 20
1980.93
 11
-117.736
 21
1981.35
  0
LINE
  8
0
 10
-117.736
 20
1981.35
 11
-117.416
 21
1981.74
  0
LINE
  8
0
 10
-117.416
 20
1981.74
 11
-117.05
 21
1982.08
  0
LINE
  8
0
 10
-117.05
 20
1982.08
 11
-116.643
 21
1982.38
  0
LINE
  8
0
 10
-116.643
 20
1982.38
 11
-116.203
 21
1982.62
  0
LINE
  8
0
 10
-116.203
 20
1982.62
 11
-115.736
 21
1982.8
  0
LINE
  8
0
 10
-115.736
 20
1982.8
 11
-115.25
 21
1982.93
  0
LINE
  8
0
 10
-115.25
 20
1982.93
 11
-114.751
 21
1982.99
  0
LINE
  8
0
 10
-114.751
 20
1982.99
 11
114.751
 21
1982.99
  0
LINE
  8
0
 10
114.751
 20
1982.99
 11
115.25
 21
1982.93
  0
LINE
  8
0
 10
115.25
 20
1982.93
 11
115.736
 21
1982.8
  0
LINE
  8
0
 10
115.736
 20
1982.8
 11
116.203
 21
1982.62
  0
LINE
  8
0
 10
116.203
 20
1982.62
 11
116.643
 21
1982.38
  0
LINE
  8
0
 10
116.643
 20
1982.38
 11
117.05
 21
1982.08
  0
LINE
  8
0
 10
117.05
 20
1982.08
 11
117.416
 21
1981.74
  0
LINE
  8
0
 10
117.416
 20
1981.74
 11
117.736
 21
1981.35
  0
LINE
  8
0
 10
117.736
 20
1981.35
 11
118.005
 21
1980.93
  0
LINE
  8
0
 10
118.005
 20
1980.93
 11
118.219
 21
1980.47
  0
LINE
  8
0
 10
118.219
 20
1980.47
 11
118.374
 21
1979.99
  0
LINE
  8
0
 10
118.374
 20
1979.99
 11
118.468
 21
1979.5
  0
LINE
  8
0
 10
118.468
 20
1979.5
 11
118.5
 21
1979
  0
LINE
  8
0
 10
118.5
 20
1979
 11
118.5
 21
1765
  0
LINE
  8
0
 10
118.5
 20
1765
 11
118.468
 21
1764.5
  0
LINE
  8
0
 10
118.468
 20
1764.5
 11
118.374
 21
1764.01
  0
LINE
  8
0
 10
118.374
 20
1764.01
 11
118.219
 21
1763.53
  0
LINE
  8
0
 10
118.219
 20
1763.53
 11
118.005
 21
1763.07
  0
LINE
  8
0
 10
118.005
 20
1763.07
 11
117.736
 21
1762.65
  0
LINE
  8
0
 10
117.736
 20
1762.65
 11
117.416
 21
1762.26
  0
LINE
  8
0
 10
117.416
 20
1762.26
 11
117.05
 21
1761.92
  0
LINE
  8
0
 10
117.05
 20
1761.92
 11
116.643
 21
1761.62
  0
LINE
  8
0
 10
116.643
 20
1761.62
 11
116.203
 21
1761.38
  0
LINE
  8
0
 10
116.203
 20
1761.38
 11
115.736
 21
1761.2
  0
LINE
  8
0
 10
115.736
 20
1761.2
 11
115.25
 21
1761.07
  0
LINE
  8
0
 10
115.25
 20
1761.07
 11
114.751
 21
1761.01
  0
LINE
  8
0
 10
114.751
 20
1761.01
 11
-114.751
 21
1761.01
  0
LINE
  8
0
 10
-118.5
 20
1526.94
 11
-118.187
 21
1526.65
  0
LINE
  8
0
 10
-118.187
 20
1526.65
 11
-117.679
 21
1526.28
  0
LINE
  8
0
 10
-117.679
 20
1526.28
 11
-117.129
 21
1525.98
  0
LINE
  8
0
 10
-117.129
 20
1525.98
 11
-116.545
 21
1525.74
  0
LINE
  8
0
 10
-116.545
 20
1525.74
 11
-115.937
 21
1525.59
  0
LINE
  8
0
 10
-115.937
 20
1525.59
 11
-115.314
 21
1525.51
  0
LINE
  8
0
 10
-115.314
 20
1525.51
 11
115.314
 21
1525.51
  0
LINE
  8
0
 10
115.314
 20
1525.51
 11
115.937
 21
1525.59
  0
LINE
  8
0
 10
115.937
 20
1525.59
 11
116.545
 21
1525.74
  0
LINE
  8
0
 10
116.545
 20
1525.74
 11
117.129
 21
1525.98
  0
LINE
  8
0
 10
117.129
 20
1525.98
 11
117.679
 21
1526.28
  0
LINE
  8
0
 10
117.679
 20
1526.28
 11
118.187
 21
1526.65
  0
LINE
  8
0
 10
118.187
 20
1526.65
 11
118.645
 21
1527.08
  0
LINE
  8
0
 10
118.645
 20
1527.08
 11
119.045
 21
1527.56
  0
LINE
  8
0
 10
119.045
 20
1527.56
 11
119.382
 21
1528.09
  0
LINE
  8
0
 10
119.382
 20
1528.09
 11
119.649
 21
1528.66
  0
LINE
  8
0
 10
119.649
 20
1528.66
 11
119.843
 21
1529.26
  0
LINE
  8
0
 10
119.843
 20
1529.26
 11
119.961
 21
1529.87
  0
LINE
  8
0
 10
119.961
 20
1529.87
 11
120
 21
1530.5
  0
LINE
  8
0
 10
120
 20
1530.5
 11
120
 21
1745.5
  0
LINE
  8
0
 10
120
 20
1745.5
 11
119.961
 21
1746.13
  0
LINE
  8
0
 10
119.961
 20
1746.13
 11
119.843
 21
1746.74
  0
LINE
  8
0
 10
119.843
 20
1746.74
 11
119.649
 21
1747.34
  0
LINE
  8
0
 10
119.649
 20
1747.34
 11
119.382
 21
1747.91
  0
LINE
  8
0
 10
119.382
 20
1747.91
 11
119.045
 21
1748.44
  0
LINE
  8
0
 10
119.045
 20
1748.44
 11
118.645
 21
1748.92
  0
LINE
  8
0
 10
118.645
 20
1748.92
 11
118.187
 21
1749.35
  0
LINE
  8
0
 10
118.187
 20
1749.35
 11
117.679
 21
1749.72
  0
LINE
  8
0
 10
117.679
 20
1749.72
 11
117.129
 21
1750.02
  0
LINE
  8
0
 10
117.129
 20
1750.02
 11
116.545
 21
1750.26
  0
LINE
  8
0
 10
116.545
 20
1750.26
 11
115.937
 21
1750.41
  0
LINE
  8
0
 10
115.937
 20
1750.41
 11
115.314
 21
1750.49
  0
LINE
  8
0
 10
115.314
 20
1750.49
 11
-115.314
 21
1750.49
  0
LINE
  8
0
 10
-115.314
 20
1750.49
 11
-115.937
 21
1750.41
  0
LINE
  8
0
 10
-115.937
 20
1750.41
 11
-116.545
 21
1750.26
  0
LINE
  8
0
 10
-116.545
 20
1750.26
 11
-117.129
 21
1750.02
  0
LINE
  8
0
 10
-117.129
 20
1750.02
 11
-117.679
 21
1749.72
  0
LINE
  8
0
 10
-117.679
 20
1749.72
 11
-118.187
 21
1749.35
  0
LINE
  8
0
 10
-118.187
 20
1749.35
 11
-118.5
 21
1749.06
  0
LINE
  8
0
 10
-118.5
 20
1749.06
 11
-118.5
 21
1750.49
  0
LINE
  8
0
 10
-118.5
 20
1750.49
 11
-121.5
 21
1750.49
  0
LINE
  8
0
 10
-121.5
 20
1750.49
 11
-121.5
 21
1525.51
  0
LINE
  8
0
 10
-121.5
 20
1525.51
 11
-118.5
 21
1525.51
  0
LINE
  8
0
 10
-118.5
 20
1525.51
 11
-118.5
 21
1526.94
  0
LINE
  8
0
 10
-114.751
 20
1527.01
 11
-115.25
 21
1527.07
  0
LINE
  8
0
 10
-115.25
 20
1527.07
 11
-115.736
 21
1527.2
  0
LINE
  8
0
 10
-115.736
 20
1527.2
 11
-116.203
 21
1527.38
  0
LINE
  8
0
 10
-116.203
 20
1527.38
 11
-116.643
 21
1527.62
  0
LINE
  8
0
 10
-116.643
 20
1527.62
 11
-117.05
 21
1527.92
  0
LINE
  8
0
 10
-117.05
 20
1527.92
 11
-117.416
 21
1528.26
  0
LINE
  8
0
 10
-117.416
 20
1528.26
 11
-117.736
 21
1528.65
  0
LINE
  8
0
 10
-117.736
 20
1528.65
 11
-118.005
 21
1529.07
  0
LINE
  8
0
 10
-118.005
 20
1529.07
 11
-118.219
 21
1529.53
  0
LINE
  8
0
 10
-118.219
 20
1529.53
 11
-118.374
 21
1530.01
  0
LINE
  8
0
 10
-118.374
 20
1530.01
 11
-118.468
 21
1530.5
  0
LINE
  8
0
 10
-118.468
 20
1530.5
 11
-118.5
 21
1531
  0
LINE
  8
0
 10
-118.5
 20
1531
 11
-118.5
 21
1745
  0
LINE
  8
0
 10
-118.5
 20
1745
 11
-118.468
 21
1745.5
  0
LINE
  8
0
 10
-118.468
 20
1745.5
 11
-118.374
 21
1745.99
  0
LINE
  8
0
 10
-118.374
 20
1745.99
 11
-118.219
 21
1746.47
  0
LINE
  8
0
 10
-118.219
 20
1746.47
 11
-118.005
 21
1746.93
  0
LINE
  8
0
 10
-118.005
 20
1746.93
 11
-117.736
 21
1747.35
  0
LINE
  8
0
 10
-117.736
 20
1747.35
 11
-117.416
 21
1747.74
  0
LINE
  8
0
 10
-117.416
 20
1747.74
 11
-117.05
 21
1748.08
  0
LINE
  8
0
 10
-117.05
 20
1748.08
 11
-116.643
 21
1748.38
  0
LINE
  8
0
 10
-116.643
 20
1748.38
 11
-116.203
 21
1748.62
  0
LINE
  8
0
 10
-116.203
 20
1748.62
 11
-115.736
 21
1748.8
  0
LINE
  8
0
 10
-115.736
 20
1748.8
 11
-115.25
 21
1748.93
  0
LINE
  8
0
 10
-115.25
 20
1748.93
 11
-114.751
 21
1748.99
  0
LINE
  8
0
 10
-114.751
 20
1748.99
 11
114.751
 21
1748.99
  0
LINE
  8
0
 10
114.751
 20
1748.99
 11
115.25
 21
1748.93
  0
LINE
  8
0
 10
115.25
 20
1748.93
 11
115.736
 21
1748.8
  0
LINE
  8
0
 10
115.736
 20
1748.8
 11
116.203
 21
1748.62
  0
LINE
  8
0
 10
116.203
 20
1748.62
 11
116.643
 21
1748.38
  0
LINE
  8
0
 10
116.643
 20
1748.38
 11
117.05
 21
1748.08
  0
LINE
  8
0
 10
117.05
 20
1748.08
 11
117.416
 21
1747.74
  0
LINE
  8
0
 10
117.416
 20
1747.74
 11
117.736
 21
1747.35
  0
LINE
  8
0
 10
117.736
 20
1747.35
 11
118.005
 21
1746.93
  0
LINE
  8
0
 10
118.005
 20
1746.93
 11
118.219
 21
1746.47
  0
LINE
  8
0
 10
118.219
 20
1746.47
 11
118.374
 21
1745.99
  0
LINE
  8
0
 10
118.374
 20
1745.99
 11
118.468
 21
1745.5
  0
LINE
  8
0
 10
118.468
 20
1745.5
 11
118.5
 21
1745
  0
LINE
  8
0
 10
118.5
 20
1745
 11
118.5
 21
1531
  0
LINE
  8
0
 10
118.5
 20
1531
 11
118.468
 21
1530.5
  0
LINE
  8
0
 10
118.468
 20
1530.5
 11
118.374
 21
1530.01
  0
LINE
  8
0
 10
118.374
 20
1530.01
 11
118.219
 21
1529.53
  0
LINE
  8
0
 10
118.219
 20
1529.53
 11
118.005
 21
1529.07
  0
LINE
  8
0
 10
118.005
 20
1529.07
 11
117.736
 21
1528.65
  0
LINE
  8
0
 10
117.736
 20
1528.65
 11
117.416
 21
1528.26
  0
LINE
  8
0
 10
117.416
 20
1528.26
 11
117.05
 21
1527.92
  0
LINE
  8
0
 10
117.05
 20
1527.92
 11
116.643
 21
1527.62
  0
LINE
  8
0
 10
116.643
 20
1527.62
 11
116.203
 21
1527.38
  0
LINE
  8
0
 10
116.203
 20
1527.38
 11
115.736
 21
1527.2
  0
LINE
  8
0
 10
115.736
 20
1527.2
 11
115.25
 21
1527.07
  0
LINE
  8
0
 10
115.25
 20
1527.07
 11
114.751
 21
1527.01
  0
LINE
  8
0
 10
114.751
 20
1527.01
 11
-114.751
 21
1527.01
  0
LINE
  8
0
 10
-118.5
 20
1292.94
 11
-118.187
 21
1292.65
  0
LINE
  8
0
 10
-118.187
 20
1292.65
 11
-117.679
 21
1292.28
  0
LINE
  8
0
 10
-117.679
 20
1292.28
 11
-117.129
 21
1291.98
  0
LINE
  8
0
 10
-117.129
 20
1291.98
 11
-116.545
 21
1291.74
  0
LINE
  8
0
 10
-116.545
 20
1291.74
 11
-115.937
 21
1291.59
  0
LINE
  8
0
 10
-115.937
 20
1291.59
 11
-115.314
 21
1291.51
  0
LINE
  8
0
 10
-115.314
 20
1291.51
 11
115.314
 21
1291.51
  0
LINE
  8
0
 10
115.314
 20
1291.51
 11
115.937
 21
1291.59
  0
LINE
  8
0
 10
115.937
 20
1291.59
 11
116.545
 21
1291.74
  0
LINE
  8
0
 10
116.545
 20
1291.74
 11
117.129
 21
1291.98
  0
LINE
  8
0
 10
117.129
 20
1291.98
 11
117.679
 21
1292.28
  0
LINE
  8
0
 10
117.679
 20
1292.28
 11
118.187
 21
1292.65
  0
LINE
  8
0
 10
118.187
 20
1292.65
 11
118.645
 21
1293.08
  0
LINE
  8
0
 10
118.645
 20
1293.08
 11
119.045
 21
1293.56
  0
LINE
  8
0
 10
119.045
 20
1293.56
 11
119.382
 21
1294.09
  0
LINE
  8
0
 10
119.382
 20
1294.09
 11
119.649
 21
1294.66
  0
LINE
  8
0
 10
119.649
 20
1294.66
 11
119.843
 21
1295.26
  0
LINE
  8
0
 10
119.843
 20
1295.26
 11
119.961
 21
1295.87
  0
LINE
  8
0
 10
119.961
 20
1295.87
 11
120
 21
1296.5
  0
LINE
  8
0
 10
120
 20
1296.5
 11
120
 21
1511.5
  0
LINE
  8
0
 10
120
 20
1511.5
 11
119.961
 21
1512.13
  0
LINE
  8
0
 10
119.961
 20
1512.13
 11
119.843
 21
1512.74
  0
LINE
  8
0
 10
119.843
 20
1512.74
 11
119.649
 21
1513.34
  0
LINE
  8
0
 10
119.649
 20
1513.34
 11
119.382
 21
1513.91
  0
LINE
  8
0
 10
119.382
 20
1513.91
 11
119.045
 21
1514.44
  0
LINE
  8
0
 10
119.045
 20
1514.44
 11
118.645
 21
1514.92
  0
LINE
  8
0
 10
118.645
 20
1514.92
 11
118.187
 21
1515.35
  0
LINE
  8
0
 10
118.187
 20
1515.35
 11
117.679
 21
1515.72
  0
LINE
  8
0
 10
117.679
 20
1515.72
 11
117.129
 21
1516.02
  0
LINE
  8
0
 10
117.129
 20
1516.02
 11
116.545
 21
1516.26
  0
LINE
  8
0
 10
116.545
 20
1516.26
 11
115.937
 21
1516.41
  0
LINE
  8
0
 10
115.937
 20
1516.41
 11
115.314
 21
1516.49
  0
LINE
  8
0
 10
115.314
 20
1516.49
 11
-115.314
 21
1516.49
  0
LINE
  8
0
 10
-115.314
 20
1516.49
 11
-115.937
 21
1516.41
  0
LINE
  8
0
 10
-115.937
 20
1516.41
 11
-116.545
 21
1516.26
  0
LINE
  8
0
 10
-116.545
 20
1516.26
 11
-117.129
 21
1516.02
  0
LINE
  8
0
 10
-117.129
 20
1516.02
 11
-117.679
 21
1515.72
  0
LINE
  8
0
 10
-117.679
 20
1515.72
 11
-118.187
 21
1515.35
  0
LINE
  8
0
 10
-118.187
 20
1515.35
 11
-118.5
 21
1515.06
  0
LINE
  8
0
 10
-118.5
 20
1515.06
 11
-118.5
 21
1516.49
  0
LINE
  8
0
 10
-118.5
 20
1516.49
 11
-121.5
 21
1516.49
  0
LINE
  8
0
 10
-121.5
 20
1516.49
 11
-121.5
 21
1291.51
  0
LINE
  8
0
 10
-121.5
 20
1291.51
 11
-118.5
 21
1291.51
  0
LINE
  8
0
 10
-118.5
 20
1291.51
 11
-118.5
 21
1292.94
  0
LINE
  8
0
 10
-114.743
 20
1293.14
 11
-115.226
 21
1293.2
  0
LINE
  8
0
 10
-115.226
 20
1293.2
 11
-115.697
 21
1293.32
  0
LINE
  8
0
 10
-115.697
 20
1293.32
 11
-116.149
 21
1293.5
  0
LINE
  8
0
 10
-116.149
 20
1293.5
 11
-116.575
 21
1293.73
  0
LINE
  8
0
 10
-116.575
 20
1293.73
 11
-116.969
 21
1294.02
  0
LINE
  8
0
 10
-116.969
 20
1294.02
 11
-117.323
 21
1294.35
  0
LINE
  8
0
 10
-117.323
 20
1294.35
 11
-117.633
 21
1294.72
  0
LINE
  8
0
 10
-117.633
 20
1294.72
 11
-117.894
 21
1295.13
  0
LINE
  8
0
 10
-117.894
 20
1295.13
 11
-118.101
 21
1295.57
  0
LINE
  8
0
 10
-118.101
 20
1295.57
 11
-118.251
 21
1296.04
  0
LINE
  8
0
 10
-118.251
 20
1296.04
 11
-118.342
 21
1296.51
  0
LINE
  8
0
 10
-118.342
 20
1296.51
 11
-118.373
 21
1297
  0
LINE
  8
0
 10
-118.373
 20
1297
 11
-118.373
 21
1511
  0
LINE
  8
0
 10
-118.373
 20
1511
 11
-118.342
 21
1511.49
  0
LINE
  8
0
 10
-118.342
 20
1511.49
 11
-118.251
 21
1511.96
  0
LINE
  8
0
 10
-118.251
 20
1511.96
 11
-118.101
 21
1512.43
  0
LINE
  8
0
 10
-118.101
 20
1512.43
 11
-117.894
 21
1512.87
  0
LINE
  8
0
 10
-117.894
 20
1512.87
 11
-117.633
 21
1513.28
  0
LINE
  8
0
 10
-117.633
 20
1513.28
 11
-117.323
 21
1513.65
  0
LINE
  8
0
 10
-117.323
 20
1513.65
 11
-116.969
 21
1513.98
  0
LINE
  8
0
 10
-116.969
 20
1513.98
 11
-116.575
 21
1514.27
  0
LINE
  8
0
 10
-116.575
 20
1514.27
 11
-116.149
 21
1514.5
  0
LINE
  8
0
 10
-116.149
 20
1514.5
 11
-115.697
 21
1514.68
  0
LINE
  8
0
 10
-115.697
 20
1514.68
 11
-115.226
 21
1514.8
  0
LINE
  8
0
 10
-115.226
 20
1514.8
 11
-114.743
 21
1514.86
  0
LINE
  8
0
 10
-114.743
 20
1514.86
 11
114.743
 21
1514.86
  0
LINE
  8
0
 10
114.743
 20
1514.86
 11
115.226
 21
1514.8
  0
LINE
  8
0
 10
115.226
 20
1514.8
 11
115.697
 21
1514.68
  0
LINE
  8
0
 10
115.697
 20
1514.68
 11
116.149
 21
1514.5
  0
LINE
  8
0
 10
116.149
 20
1514.5
 11
116.575
 21
1514.27
  0
LINE
  8
0
 10
116.575
 20
1514.27
 11
116.969
 21
1513.98
  0
LINE
  8
0
 10
116.969
 20
1513.98
 11
117.323
 21
1513.65
  0
LINE
  8
0
 10
117.323
 20
1513.65
 11
117.633
 21
1513.28
  0
LINE
  8
0
 10
117.633
 20
1513.28
 11
117.894
 21
1512.87
  0
LINE
  8
0
 10
117.894
 20
1512.87
 11
118.101
 21
1512.43
  0
LINE
  8
0
 10
118.101
 20
1512.43
 11
118.251
 21
1511.96
  0
LINE
  8
0
 10
118.251
 20
1511.96
 11
118.342
 21
1511.49
  0
LINE
  8
0
 10
118.342
 20
1511.49
 11
118.373
 21
1511
  0
LINE
  8
0
 10
118.373
 20
1511
 11
118.373
 21
1297
  0
LINE
  8
0
 10
118.373
 20
1297
 11
118.342
 21
1296.51
  0
LINE
  8
0
 10
118.342
 20
1296.51
 11
118.251
 21
1296.04
  0
LINE
  8
0
 10
118.251
 20
1296.04
 11
118.101
 21
1295.57
  0
LINE
  8
0
 10
118.101
 20
1295.57
 11
117.894
 21
1295.13
  0
LINE
  8
0
 10
117.894
 20
1295.13
 11
117.633
 21
1294.72
  0
LINE
  8
0
 10
117.633
 20
1294.72
 11
117.323
 21
1294.35
  0
LINE
  8
0
 10
117.323
 20
1294.35
 11
116.969
 21
1294.02
  0
LINE
  8
0
 10
116.969
 20
1294.02
 11
116.575
 21
1293.73
  0
LINE
  8
0
 10
116.575
 20
1293.73
 11
116.149
 21
1293.5
  0
LINE
  8
0
 10
116.149
 20
1293.5
 11
115.697
 21
1293.32
  0
LINE
  8
0
 10
115.697
 20
1293.32
 11
115.226
 21
1293.2
  0
LINE
  8
0
 10
115.226
 20
1293.2
 11
114.743
 21
1293.14
  0
LINE
  8
0
 10
114.743
 20
1293.14
 11
-114.743
 21
1293.14
  0
LINE
  8
0
 10
115.937
 20
1057.59
 11
116.545
 21
1057.74
  0
LINE
  8
0
 10
116.545
 20
1057.74
 11
117.129
 21
1057.98
  0
LINE
  8
0
 10
117.129
 20
1057.98
 11
117.679
 21
1058.28
  0
LINE
  8
0
 10
117.679
 20
1058.28
 11
118.187
 21
1058.65
  0
LINE
  8
0
 10
118.187
 20
1058.65
 11
118.645
 21
1059.08
  0
LINE
  8
0
 10
118.645
 20
1059.08
 11
119.045
 21
1059.56
  0
LINE
  8
0
 10
119.045
 20
1059.56
 11
119.382
 21
1060.09
  0
LINE
  8
0
 10
119.382
 20
1060.09
 11
119.649
 21
1060.66
  0
LINE
  8
0
 10
119.649
 20
1060.66
 11
119.843
 21
1061.26
  0
LINE
  8
0
 10
119.843
 20
1061.26
 11
119.961
 21
1061.87
  0
LINE
  8
0
 10
119.961
 20
1061.87
 11
120
 21
1062.5
  0
LINE
  8
0
 10
120
 20
1062.5
 11
120
 21
1277.5
  0
LINE
  8
0
 10
120
 20
1277.5
 11
119.961
 21
1278.13
  0
LINE
  8
0
 10
119.961
 20
1278.13
 11
119.843
 21
1278.74
  0
LINE
  8
0
 10
119.843
 20
1278.74
 11
119.649
 21
1279.34
  0
LINE
  8
0
 10
119.649
 20
1279.34
 11
119.382
 21
1279.91
  0
LINE
  8
0
 10
119.382
 20
1279.91
 11
119.045
 21
1280.44
  0
LINE
  8
0
 10
119.045
 20
1280.44
 11
118.645
 21
1280.92
  0
LINE
  8
0
 10
118.645
 20
1280.92
 11
118.187
 21
1281.35
  0
LINE
  8
0
 10
118.187
 20
1281.35
 11
117.679
 21
1281.72
  0
LINE
  8
0
 10
117.679
 20
1281.72
 11
117.129
 21
1282.02
  0
LINE
  8
0
 10
117.129
 20
1282.02
 11
116.545
 21
1282.26
  0
LINE
  8
0
 10
116.545
 20
1282.26
 11
115.937
 21
1282.41
  0
LINE
  8
0
 10
115.937
 20
1282.41
 11
115.314
 21
1282.49
  0
LINE
  8
0
 10
115.314
 20
1282.49
 11
-115.314
 21
1282.49
  0
LINE
  8
0
 10
-115.314
 20
1282.49
 11
-115.937
 21
1282.41
  0
LINE
  8
0
 10
-115.937
 20
1282.41
 11
-116.545
 21
1282.26
  0
LINE
  8
0
 10
-116.545
 20
1282.26
 11
-117.129
 21
1282.02
  0
LINE
  8
0
 10
-117.129
 20
1282.02
 11
-117.679
 21
1281.72
  0
LINE
  8
0
 10
-117.679
 20
1281.72
 11
-118.187
 21
1281.35
  0
LINE
  8
0
 10
-118.187
 20
1281.35
 11
-118.5
 21
1281.06
  0
LINE
  8
0
 10
-118.5
 20
1281.06
 11
-118.5
 21
1282.11
  0
LINE
  8
0
 10
-118.5
 20
1282.11
 11
-121.5
 21
1282.11
  0
LINE
  8
0
 10
-121.5
 20
1282.11
 11
-121.5
 21
1057.89
  0
LINE
  8
0
 10
-121.5
 20
1057.89
 11
-118.5
 21
1057.89
  0
LINE
  8
0
 10
-118.5
 20
1057.89
 11
-118.5
 21
1058.94
  0
LINE
  8
0
 10
-118.5
 20
1058.94
 11
-118.187
 21
1058.65
  0
LINE
  8
0
 10
-118.187
 20
1058.65
 11
-117.679
 21
1058.28
  0
LINE
  8
0
 10
-117.679
 20
1058.28
 11
-117.129
 21
1057.98
  0
LINE
  8
0
 10
-117.129
 20
1057.98
 11
-116.545
 21
1057.74
  0
LINE
  8
0
 10
-116.545
 20
1057.74
 11
-115.937
 21
1057.59
  0
LINE
  8
0
 10
-115.937
 20
1057.59
 11
-115.314
 21
1057.51
  0
LINE
  8
0
 10
-115.314
 20
1057.51
 11
115.314
 21
1057.51
  0
LINE
  8
0
 10
115.314
 20
1057.51
 11
115.937
 21
1057.59
  0
LINE
  8
0
 10
112.349
 20
1272.6
 11
112.05
 21
1272.64
  0
LINE
  8
0
 10
112.05
 20
1272.64
 11
111.758
 21
1272.72
  0
LINE
  8
0
 10
111.758
 20
1272.72
 11
111.478
 21
1272.83
  0
LINE
  8
0
 10
111.478
 20
1272.83
 11
111.214
 21
1272.97
  0
LINE
  8
0
 10
111.214
 20
1272.97
 11
110.97
 21
1273.15
  0
LINE
  8
0
 10
110.97
 20
1273.15
 11
110.75
 21
1273.36
  0
LINE
  8
0
 10
110.75
 20
1273.36
 11
110.558
 21
1273.59
  0
LINE
  8
0
 10
110.558
 20
1273.59
 11
110.397
 21
1273.84
  0
LINE
  8
0
 10
110.397
 20
1273.84
 11
110.269
 21
1274.12
  0
LINE
  8
0
 10
110.269
 20
1274.12
 11
110.175
 21
1274.4
  0
LINE
  8
0
 10
110.175
 20
1274.4
 11
110.119
 21
1274.7
  0
LINE
  8
0
 10
110.119
 20
1274.7
 11
110.1
 21
1275
  0
LINE
  8
0
 10
110.1
 20
1275
 11
110.119
 21
1275.3
  0
LINE
  8
0
 10
110.119
 20
1275.3
 11
110.175
 21
1275.6
  0
LINE
  8
0
 10
110.175
 20
1275.6
 11
110.269
 21
1275.88
  0
LINE
  8
0
 10
110.269
 20
1275.88
 11
110.397
 21
1276.16
  0
LINE
  8
0
 10
110.397
 20
1276.16
 11
110.558
 21
1276.41
  0
LINE
  8
0
 10
110.558
 20
1276.41
 11
110.75
 21
1276.64
  0
LINE
  8
0
 10
110.75
 20
1276.64
 11
110.97
 21
1276.85
  0
LINE
  8
0
 10
110.97
 20
1276.85
 11
111.214
 21
1277.03
  0
LINE
  8
0
 10
111.214
 20
1277.03
 11
111.478
 21
1277.17
  0
LINE
  8
0
 10
111.478
 20
1277.17
 11
111.758
 21
1277.28
  0
LINE
  8
0
 10
111.758
 20
1277.28
 11
112.05
 21
1277.36
  0
LINE
  8
0
 10
112.05
 20
1277.36
 11
112.349
 21
1277.4
  0
LINE
  8
0
 10
112.349
 20
1277.4
 11
112.651
 21
1277.4
  0
LINE
  8
0
 10
112.651
 20
1277.4
 11
112.95
 21
1277.36
  0
LINE
  8
0
 10
112.95
 20
1277.36
 11
113.242
 21
1277.28
  0
LINE
  8
0
 10
113.242
 20
1277.28
 11
113.522
 21
1277.17
  0
LINE
  8
0
 10
113.522
 20
1277.17
 11
113.786
 21
1277.03
  0
LINE
  8
0
 10
113.786
 20
1277.03
 11
114.03
 21
1276.85
  0
LINE
  8
0
 10
114.03
 20
1276.85
 11
114.25
 21
1276.64
  0
LINE
  8
0
 10
114.25
 20
1276.64
 11
114.442
 21
1276.41
  0
LINE
  8
0
 10
114.442
 20
1276.41
 11
114.603
 21
1276.16
  0
LINE
  8
0
 10
114.603
 20
1276.16
 11
114.731
 21
1275.88
  0
LINE
  8
0
 10
114.731
 20
1275.88
 11
114.825
 21
1275.6
  0
LINE
  8
0
 10
114.825
 20
1275.6
 11
114.881
 21
1275.3
  0
LINE
  8
0
 10
114.881
 20
1275.3
 11
114.9
 21
1275
  0
LINE
  8
0
 10
114.9
 20
1275
 11
114.881
 21
1274.7
  0
LINE
  8
0
 10
114.881
 20
1274.7
 11
114.825
 21
1274.4
  0
LINE
  8
0
 10
114.825
 20
1274.4
 11
114.731
 21
1274.12
  0
LINE
  8
0
 10
114.731
 20
1274.12
 11
114.603
 21
1273.84
  0
LINE
  8
0
 10
114.603
 20
1273.84
 11
114.442
 21
1273.59
  0
LINE
  8
0
 10
114.442
 20
1273.59
 11
114.25
 21
1273.36
  0
LINE
  8
0
 10
114.25
 20
1273.36
 11
114.03
 21
1273.15
  0
LINE
  8
0
 10
114.03
 20
1273.15
 11
113.786
 21
1272.97
  0
LINE
  8
0
 10
113.786
 20
1272.97
 11
113.522
 21
1272.83
  0
LINE
  8
0
 10
113.522
 20
1272.83
 11
113.242
 21
1272.72
  0
LINE
  8
0
 10
113.242
 20
1272.72
 11
112.95
 21
1272.64
  0
LINE
  8
0
 10
112.95
 20
1272.64
 11
112.651
 21
1272.6
  0
LINE
  8
0
 10
112.651
 20
1272.6
 11
112.349
 21
1272.6
  0
LINE
  8
0
 10
-112.651
 20
1272.6
 11
-112.95
 21
1272.64
  0
LINE
  8
0
 10
-112.95
 20
1272.64
 11
-113.242
 21
1272.72
  0
LINE
  8
0
 10
-113.242
 20
1272.72
 11
-113.522
 21
1272.83
  0
LINE
  8
0
 10
-113.522
 20
1272.83
 11
-113.786
 21
1272.97
  0
LINE
  8
0
 10
-113.786
 20
1272.97
 11
-114.03
 21
1273.15
  0
LINE
  8
0
 10
-114.03
 20
1273.15
 11
-114.25
 21
1273.36
  0
LINE
  8
0
 10
-114.25
 20
1273.36
 11
-114.442
 21
1273.59
  0
LINE
  8
0
 10
-114.442
 20
1273.59
 11
-114.603
 21
1273.84
  0
LINE
  8
0
 10
-114.603
 20
1273.84
 11
-114.731
 21
1274.12
  0
LINE
  8
0
 10
-114.731
 20
1274.12
 11
-114.825
 21
1274.4
  0
LINE
  8
0
 10
-114.825
 20
1274.4
 11
-114.881
 21
1274.7
  0
LINE
  8
0
 10
-114.881
 20
1274.7
 11
-114.9
 21
1275
  0
LINE
  8
0
 10
-114.9
 20
1275
 11
-114.881
 21
1275.3
  0
LINE
  8
0
 10
-114.881
 20
1275.3
 11
-114.825
 21
1275.6
  0
LINE
  8
0
 10
-114.825
 20
1275.6
 11
-114.731
 21
1275.88
  0
LINE
  8
0
 10
-114.731
 20
1275.88
 11
-114.603
 21
1276.16
  0
LINE
  8
0
 10
-114.603
 20
1276.16
 11
-114.442
 21
1276.41
  0
LINE
  8
0
 10
-114.442
 20
1276.41
 11
-114.25
 21
1276.64
  0
LINE
  8
0
 10
-114.25
 20
1276.64
 11
-114.03
 21
1276.85
  0
LINE
  8
0
 10
-114.03
 20
1276.85
 11
-113.786
 21
1277.03
  0
LINE
  8
0
 10
-113.786
 20
1277.03
 11
-113.522
 21
1277.17
  0
LINE
  8
0
 10
-113.522
 20
1277.17
 11
-113.242
 21
1277.28
  0
LINE
  8
0
 10
-113.242
 20
1277.28
 11
-112.95
 21
1277.36
  0
LINE
  8
0
 10
-112.95
 20
1277.36
 11
-112.651
 21
1277.4
  0
LINE
  8
0
 10
-112.651
 20
1277.4
 11
-112.349
 21
1277.4
  0
LINE
  8
0
 10
-112.349
 20
1277.4
 11
-112.05
 21
1277.36
  0
LINE
  8
0
 10
-112.05
 20
1277.36
 11
-111.758
 21
1277.28
  0
LINE
  8
0
 10
-111.758
 20
1277.28
 11
-111.478
 21
1277.17
  0
LINE
  8
0
 10
-111.478
 20
1277.17
 11
-111.214
 21
1277.03
  0
LINE
  8
0
 10
-111.214
 20
1277.03
 11
-110.97
 21
1276.85
  0
LINE
  8
0
 10
-110.97
 20
1276.85
 11
-110.75
 21
1276.64
  0
LINE
  8
0
 10
-110.75
 20
1276.64
 11
-110.558
 21
1276.41
  0
LINE
  8
0
 10
-110.558
 20
1276.41
 11
-110.397
 21
1276.16
  0
LINE
  8
0
 10
-110.397
 20
1276.16
 11
-110.269
 21
1275.88
  0
LINE
  8
0
 10
-110.269
 20
1275.88
 11
-110.175
 21
1275.6
  0
LINE
  8
0
 10
-110.175
 20
1275.6
 11
-110.119
 21
1275.3
  0
LINE
  8
0
 10
-110.119
 20
1275.3
 11
-110.1
 21
1275
  0
LINE
  8
0
 10
-110.1
 20
1275
 11
-110.119
 21
1274.7
  0
LINE
  8
0
 10
-110.119
 20
1274.7
 11
-110.175
 21
1274.4
  0
LINE
  8
0
 10
-110.175
 20
1274.4
 11
-110.269
 21
1274.12
  0
LINE
  8
0
 10
-110.269
 20
1274.12
 11
-110.397
 21
1273.84
  0
LINE
  8
0
 10
-110.397
 20
1273.84
 11
-110.558
 21
1273.59
  0
LINE
  8
0
 10
-110.558
 20
1273.59
 11
-110.75
 21
1273.36
  0
LINE
  8
0
 10
-110.75
 20
1273.36
 11
-110.97
 21
1273.15
  0
LINE
  8
0
 10
-110.97
 20
1273.15
 11
-111.214
 21
1272.97
  0
LINE
  8
0
 10
-111.214
 20
1272.97
 11
-111.478
 21
1272.83
  0
LINE
  8
0
 10
-111.478
 20
1272.83
 11
-111.758
 21
1272.72
  0
LINE
  8
0
 10
-111.758
 20
1272.72
 11
-112.05
 21
1272.64
  0
LINE
  8
0
 10
-112.05
 20
1272.64
 11
-112.349
 21
1272.6
  0
LINE
  8
0
 10
-112.349
 20
1272.6
 11
-112.651
 21
1272.6
  0
LINE
  8
0
 10
-112.651
 20
1062.6
 11
-112.95
 21
1062.64
  0
LINE
  8
0
 10
-112.95
 20
1062.64
 11
-113.242
 21
1062.72
  0
LINE
  8
0
 10
-113.242
 20
1062.72
 11
-113.522
 21
1062.83
  0
LINE
  8
0
 10
-113.522
 20
1062.83
 11
-113.786
 21
1062.97
  0
LINE
  8
0
 10
-113.786
 20
1062.97
 11
-114.03
 21
1063.15
  0
LINE
  8
0
 10
-114.03
 20
1063.15
 11
-114.25
 21
1063.36
  0
LINE
  8
0
 10
-114.25
 20
1063.36
 11
-114.442
 21
1063.59
  0
LINE
  8
0
 10
-114.442
 20
1063.59
 11
-114.603
 21
1063.84
  0
LINE
  8
0
 10
-114.603
 20
1063.84
 11
-114.731
 21
1064.12
  0
LINE
  8
0
 10
-114.731
 20
1064.12
 11
-114.825
 21
1064.4
  0
LINE
  8
0
 10
-114.825
 20
1064.4
 11
-114.881
 21
1064.7
  0
LINE
  8
0
 10
-114.881
 20
1064.7
 11
-114.9
 21
1065
  0
LINE
  8
0
 10
-114.9
 20
1065
 11
-114.881
 21
1065.3
  0
LINE
  8
0
 10
-114.881
 20
1065.3
 11
-114.825
 21
1065.6
  0
LINE
  8
0
 10
-114.825
 20
1065.6
 11
-114.731
 21
1065.88
  0
LINE
  8
0
 10
-114.731
 20
1065.88
 11
-114.603
 21
1066.16
  0
LINE
  8
0
 10
-114.603
 20
1066.16
 11
-114.442
 21
1066.41
  0
LINE
  8
0
 10
-114.442
 20
1066.41
 11
-114.25
 21
1066.64
  0
LINE
  8
0
 10
-114.25
 20
1066.64
 11
-114.03
 21
1066.85
  0
LINE
  8
0
 10
-114.03
 20
1066.85
 11
-113.786
 21
1067.03
  0
LINE
  8
0
 10
-113.786
 20
1067.03
 11
-113.522
 21
1067.17
  0
LINE
  8
0
 10
-113.522
 20
1067.17
 11
-113.242
 21
1067.28
  0
LINE
  8
0
 10
-113.242
 20
1067.28
 11
-112.95
 21
1067.36
  0
LINE
  8
0
 10
-112.95
 20
1067.36
 11
-112.651
 21
1067.4
  0
LINE
  8
0
 10
-112.651
 20
1067.4
 11
-112.349
 21
1067.4
  0
LINE
  8
0
 10
-112.349
 20
1067.4
 11
-112.05
 21
1067.36
  0
LINE
  8
0
 10
-112.05
 20
1067.36
 11
-111.758
 21
1067.28
  0
LINE
  8
0
 10
-111.758
 20
1067.28
 11
-111.478
 21
1067.17
  0
LINE
  8
0
 10
-111.478
 20
1067.17
 11
-111.214
 21
1067.03
  0
LINE
  8
0
 10
-111.214
 20
1067.03
 11
-110.97
 21
1066.85
  0
LINE
  8
0
 10
-110.97
 20
1066.85
 11
-110.75
 21
1066.64
  0
LINE
  8
0
 10
-110.75
 20
1066.64
 11
-110.558
 21
1066.41
  0
LINE
  8
0
 10
-110.558
 20
1066.41
 11
-110.397
 21
1066.16
  0
LINE
  8
0
 10
-110.397
 20
1066.16
 11
-110.269
 21
1065.88
  0
LINE
  8
0
 10
-110.269
 20
1065.88
 11
-110.175
 21
1065.6
  0
LINE
  8
0
 10
-110.175
 20
1065.6
 11
-110.119
 21
1065.3
  0
LINE
  8
0
 10
-110.119
 20
1065.3
 11
-110.1
 21
1065
  0
LINE
  8
0
 10
-110.1
 20
1065
 11
-110.119
 21
1064.7
  0
LINE
  8
0
 10
-110.119
 20
1064.7
 11
-110.175
 21
1064.4
  0
LINE
  8
0
 10
-110.175
 20
1064.4
 11
-110.269
 21
1064.12
  0
LINE
  8
0
 10
-110.269
 20
1064.12
 11
-110.397
 21
1063.84
  0
LINE
  8
0
 10
-110.397
 20
1063.84
 11
-110.558
 21
1063.59
  0
LINE
  8
0
 10
-110.558
 20
1063.59
 11
-110.75
 21
1063.36
  0
LINE
  8
0
 10
-110.75
 20
1063.36
 11
-110.97
 21
1063.15
  0
LINE
  8
0
 10
-110.97
 20
1063.15
 11
-111.214
 21
1062.97
  0
LINE
  8
0
 10
-111.214
 20
1062.97
 11
-111.478
 21
1062.83
  0
LINE
  8
0
 10
-111.478
 20
1062.83
 11
-111.758
 21
1062.72
  0
LINE
  8
0
 10
-111.758
 20
1062.72
 11
-112.05
 21
1062.64
  0
LINE
  8
0
 10
-112.05
 20
1062.64
 11
-112.349
 21
1062.6
  0
LINE
  8
0
 10
-112.349
 20
1062.6
 11
-112.651
 21
1062.6
  0
LINE
  8
0
 10
112.349
 20
1062.6
 11
112.05
 21
1062.64
  0
LINE
  8
0
 10
112.05
 20
1062.64
 11
111.758
 21
1062.72
  0
LINE
  8
0
 10
111.758
 20
1062.72
 11
111.478
 21
1062.83
  0
LINE
  8
0
 10
111.478
 20
1062.83
 11
111.214
 21
1062.97
  0
LINE
  8
0
 10
111.214
 20
1062.97
 11
110.97
 21
1063.15
  0
LINE
  8
0
 10
110.97
 20
1063.15
 11
110.75
 21
1063.36
  0
LINE
  8
0
 10
110.75
 20
1063.36
 11
110.558
 21
1063.59
  0
LINE
  8
0
 10
110.558
 20
1063.59
 11
110.397
 21
1063.84
  0
LINE
  8
0
 10
110.397
 20
1063.84
 11
110.269
 21
1064.12
  0
LINE
  8
0
 10
110.269
 20
1064.12
 11
110.175
 21
1064.4
  0
LINE
  8
0
 10
110.175
 20
1064.4
 11
110.119
 21
1064.7
  0
LINE
  8
0
 10
110.119
 20
1064.7
 11
110.1
 21
1065
  0
LINE
  8
0
 10
110.1
 20
1065
 11
110.119
 21
1065.3
  0
LINE
  8
0
 10
110.119
 20
1065.3
 11
110.175
 21
1065.6
  0
LINE
  8
0
 10
110.175
 20
1065.6
 11
110.269
 21
1065.88
  0
LINE
  8
0
 10
110.269
 20
1065.88
 11
110.397
 21
1066.16
  0
LINE
  8
0
 10
110.397
 20
1066.16
 11
110.558
 21
1066.41
  0
LINE
  8
0
 10
110.558
 20
1066.41
 11
110.75
 21
1066.64
  0
LINE
  8
0
 10
110.75
 20
1066.64
 11
110.97
 21
1066.85
  0
LINE
  8
0
 10
110.97
 20
1066.85
 11
111.214
 21
1067.03
  0
LINE
  8
0
 10
111.214
 20
1067.03
 11
111.478
 21
1067.17
  0
LINE
  8
0
 10
111.478
 20
1067.17
 11
111.758
 21
1067.28
  0
LINE
  8
0
 10
111.758
 20
1067.28
 11
112.05
 21
1067.36
  0
LINE
  8
0
 10
112.05
 20
1067.36
 11
112.349
 21
1067.4
  0
LINE
  8
0
 10
112.349
 20
1067.4
 11
112.651
 21
1067.4
  0
LINE
  8
0
 10
112.651
 20
1067.4
 11
112.95
 21
1067.36
  0
LINE
  8
0
 10
112.95
 20
1067.36
 11
113.242
 21
1067.28
  0
LINE
  8
0
 10
113.242
 20
1067.28
 11
113.522
 21
1067.17
  0
LINE
  8
0
 10
113.522
 20
1067.17
 11
113.786
 21
1067.03
  0
LINE
  8
0
 10
113.786
 20
1067.03
 11
114.03
 21
1066.85
  0
LINE
  8
0
 10
114.03
 20
1066.85
 11
114.25
 21
1066.64
  0
LINE
  8
0
 10
114.25
 20
1066.64
 11
114.442
 21
1066.41
  0
LINE
  8
0
 10
114.442
 20
1066.41
 11
114.603
 21
1066.16
  0
LINE
  8
0
 10
114.603
 20
1066.16
 11
114.731
 21
1065.88
  0
LINE
  8
0
 10
114.731
 20
1065.88
 11
114.825
 21
1065.6
  0
LINE
  8
0
 10
114.825
 20
1065.6
 11
114.881
 21
1065.3
  0
LINE
  8
0
 10
114.881
 20
1065.3
 11
114.9
 21
1065
  0
LINE
  8
0
 10
114.9
 20
1065
 11
114.881
 21
1064.7
  0
LINE
  8
0
 10
114.881
 20
1064.7
 11
114.825
 21
1064.4
  0
LINE
  8
0
 10
114.825
 20
1064.4
 11
114.731
 21
1064.12
  0
LINE
  8
0
 10
114.731
 20
1064.12
 11
114.603
 21
1063.84
  0
LINE
  8
0
 10
114.603
 20
1063.84
 11
114.442
 21
1063.59
  0
LINE
  8
0
 10
114.442
 20
1063.59
 11
114.25
 21
1063.36
  0
LINE
  8
0
 10
114.25
 20
1063.36
 11
114.03
 21
1063.15
  0
LINE
  8
0
 10
114.03
 20
1063.15
 11
113.786
 21
1062.97
  0
LINE
  8
0
 10
113.786
 20
1062.97
 11
113.522
 21
1062.83
  0
LINE
  8
0
 10
113.522
 20
1062.83
 11
113.242
 21
1062.72
  0
LINE
  8
0
 10
113.242
 20
1062.72
 11
112.95
 21
1062.64
  0
LINE
  8
0
 10
112.95
 20
1062.64
 11
112.651
 21
1062.6
  0
LINE
  8
0
 10
112.651
 20
1062.6
 11
112.349
 21
1062.6
  0
LINE
  8
0
 10
115.937
 20
823.589
 11
116.545
 21
823.745
  0
LINE
  8
0
 10
116.545
 20
823.745
 11
117.129
 21
823.976
  0
LINE
  8
0
 10
117.129
 20
823.976
 11
117.679
 21
824.278
  0
LINE
  8
0
 10
117.679
 20
824.278
 11
118.187
 21
824.647
  0
LINE
  8
0
 10
118.187
 20
824.647
 11
118.645
 21
825.077
  0
LINE
  8
0
 10
118.645
 20
825.077
 11
119.045
 21
825.561
  0
LINE
  8
0
 10
119.045
 20
825.561
 11
119.382
 21
826.091
  0
LINE
  8
0
 10
119.382
 20
826.091
 11
119.649
 21
826.659
  0
LINE
  8
0
 10
119.649
 20
826.659
 11
119.843
 21
827.257
  0
LINE
  8
0
 10
119.843
 20
827.257
 11
119.961
 21
827.873
  0
LINE
  8
0
 10
119.961
 20
827.873
 11
120
 21
828.5
  0
LINE
  8
0
 10
120
 20
828.5
 11
120
 21
1043.5
  0
LINE
  8
0
 10
120
 20
1043.5
 11
119.961
 21
1044.13
  0
LINE
  8
0
 10
119.961
 20
1044.13
 11
119.843
 21
1044.74
  0
LINE
  8
0
 10
119.843
 20
1044.74
 11
119.649
 21
1045.34
  0
LINE
  8
0
 10
119.649
 20
1045.34
 11
119.382
 21
1045.91
  0
LINE
  8
0
 10
119.382
 20
1045.91
 11
119.045
 21
1046.44
  0
LINE
  8
0
 10
119.045
 20
1046.44
 11
118.645
 21
1046.92
  0
LINE
  8
0
 10
118.645
 20
1046.92
 11
118.187
 21
1047.35
  0
LINE
  8
0
 10
118.187
 20
1047.35
 11
117.679
 21
1047.72
  0
LINE
  8
0
 10
117.679
 20
1047.72
 11
117.129
 21
1048.02
  0
LINE
  8
0
 10
117.129
 20
1048.02
 11
116.545
 21
1048.26
  0
LINE
  8
0
 10
116.545
 20
1048.26
 11
115.937
 21
1048.41
  0
LINE
  8
0
 10
115.937
 20
1048.41
 11
115.314
 21
1048.49
  0
LINE
  8
0
 10
115.314
 20
1048.49
 11
-115.314
 21
1048.49
  0
LINE
  8
0
 10
-115.314
 20
1048.49
 11
-115.937
 21
1048.41
  0
LINE
  8
0
 10
-115.937
 20
1048.41
 11
-116.545
 21
1048.26
  0
LINE
  8
0
 10
-116.545
 20
1048.26
 11
-117.129
 21
1048.02
  0
LINE
  8
0
 10
-117.129
 20
1048.02
 11
-117.679
 21
1047.72
  0
LINE
  8
0
 10
-117.679
 20
1047.72
 11
-118.187
 21
1047.35
  0
LINE
  8
0
 10
-118.187
 20
1047.35
 11
-118.645
 21
1046.92
  0
LINE
  8
0
 10
-118.645
 20
1046.92
 11
-119.045
 21
1046.44
  0
LINE
  8
0
 10
-119.045
 20
1046.44
 11
-119.382
 21
1045.91
  0
LINE
  8
0
 10
-119.382
 20
1045.91
 11
-119.649
 21
1045.34
  0
LINE
  8
0
 10
-119.649
 20
1045.34
 11
-119.843
 21
1044.74
  0
LINE
  8
0
 10
-119.843
 20
1044.74
 11
-119.9
 21
1044.44
  0
LINE
  8
0
 10
-119.9
 20
1044.44
 11
-121.5
 21
1044.44
  0
LINE
  8
0
 10
-121.5
 20
1044.44
 11
-121.5
 21
827.556
  0
LINE
  8
0
 10
-121.5
 20
827.556
 11
-119.9
 21
827.556
  0
LINE
  8
0
 10
-119.9
 20
827.556
 11
-119.843
 21
827.257
  0
LINE
  8
0
 10
-119.843
 20
827.257
 11
-119.649
 21
826.659
  0
LINE
  8
0
 10
-119.649
 20
826.659
 11
-119.382
 21
826.091
  0
LINE
  8
0
 10
-119.382
 20
826.091
 11
-119.045
 21
825.561
  0
LINE
  8
0
 10
-119.045
 20
825.561
 11
-118.645
 21
825.077
  0
LINE
  8
0
 10
-118.645
 20
825.077
 11
-118.187
 21
824.647
  0
LINE
  8
0
 10
-118.187
 20
824.647
 11
-117.679
 21
824.278
  0
LINE
  8
0
 10
-117.679
 20
824.278
 11
-117.129
 21
823.976
  0
LINE
  8
0
 10
-117.129
 20
823.976
 11
-116.545
 21
823.745
  0
LINE
  8
0
 10
-116.545
 20
823.745
 11
-115.937
 21
823.589
  0
LINE
  8
0
 10
-115.937
 20
823.589
 11
-115.314
 21
823.51
  0
LINE
  8
0
 10
-115.314
 20
823.51
 11
115.314
 21
823.51
  0
LINE
  8
0
 10
115.314
 20
823.51
 11
115.937
 21
823.589
  0
LINE
  8
0
 10
-112.613
 20
1039.2
 11
-112.837
 21
1039.23
  0
LINE
  8
0
 10
-112.837
 20
1039.23
 11
-113.056
 21
1039.29
  0
LINE
  8
0
 10
-113.056
 20
1039.29
 11
-113.266
 21
1039.37
  0
LINE
  8
0
 10
-113.266
 20
1039.37
 11
-113.464
 21
1039.48
  0
LINE
  8
0
 10
-113.464
 20
1039.48
 11
-113.647
 21
1039.61
  0
LINE
  8
0
 10
-113.647
 20
1039.61
 11
-113.812
 21
1039.77
  0
LINE
  8
0
 10
-113.812
 20
1039.77
 11
-113.956
 21
1039.94
  0
LINE
  8
0
 10
-113.956
 20
1039.94
 11
-114.077
 21
1040.13
  0
LINE
  8
0
 10
-114.077
 20
1040.13
 11
-114.174
 21
1040.34
  0
LINE
  8
0
 10
-114.174
 20
1040.34
 11
-114.243
 21
1040.55
  0
LINE
  8
0
 10
-114.243
 20
1040.55
 11
-114.286
 21
1040.77
  0
LINE
  8
0
 10
-114.286
 20
1040.77
 11
-114.3
 21
1041
  0
LINE
  8
0
 10
-114.3
 20
1041
 11
-114.286
 21
1041.23
  0
LINE
  8
0
 10
-114.286
 20
1041.23
 11
-114.243
 21
1041.45
  0
LINE
  8
0
 10
-114.243
 20
1041.45
 11
-114.174
 21
1041.66
  0
LINE
  8
0
 10
-114.174
 20
1041.66
 11
-114.077
 21
1041.87
  0
LINE
  8
0
 10
-114.077
 20
1041.87
 11
-113.956
 21
1042.06
  0
LINE
  8
0
 10
-113.956
 20
1042.06
 11
-113.812
 21
1042.23
  0
LINE
  8
0
 10
-113.812
 20
1042.23
 11
-113.647
 21
1042.39
  0
LINE
  8
0
 10
-113.647
 20
1042.39
 11
-113.464
 21
1042.52
  0
LINE
  8
0
 10
-113.464
 20
1042.52
 11
-113.266
 21
1042.63
  0
LINE
  8
0
 10
-113.266
 20
1042.63
 11
-113.056
 21
1042.71
  0
LINE
  8
0
 10
-113.056
 20
1042.71
 11
-112.837
 21
1042.77
  0
LINE
  8
0
 10
-112.837
 20
1042.77
 11
-112.613
 21
1042.8
  0
LINE
  8
0
 10
-112.613
 20
1042.8
 11
-112.387
 21
1042.8
  0
LINE
  8
0
 10
-112.387
 20
1042.8
 11
-112.163
 21
1042.77
  0
LINE
  8
0
 10
-112.163
 20
1042.77
 11
-111.944
 21
1042.71
  0
LINE
  8
0
 10
-111.944
 20
1042.71
 11
-111.734
 21
1042.63
  0
LINE
  8
0
 10
-111.734
 20
1042.63
 11
-111.536
 21
1042.52
  0
LINE
  8
0
 10
-111.536
 20
1042.52
 11
-111.353
 21
1042.39
  0
LINE
  8
0
 10
-111.353
 20
1042.39
 11
-111.188
 21
1042.23
  0
LINE
  8
0
 10
-111.188
 20
1042.23
 11
-111.044
 21
1042.06
  0
LINE
  8
0
 10
-111.044
 20
1042.06
 11
-110.923
 21
1041.87
  0
LINE
  8
0
 10
-110.923
 20
1041.87
 11
-110.826
 21
1041.66
  0
LINE
  8
0
 10
-110.826
 20
1041.66
 11
-110.757
 21
1041.45
  0
LINE
  8
0
 10
-110.757
 20
1041.45
 11
-110.714
 21
1041.23
  0
LINE
  8
0
 10
-110.714
 20
1041.23
 11
-110.7
 21
1041
  0
LINE
  8
0
 10
-110.7
 20
1041
 11
-110.714
 21
1040.77
  0
LINE
  8
0
 10
-110.714
 20
1040.77
 11
-110.757
 21
1040.55
  0
LINE
  8
0
 10
-110.757
 20
1040.55
 11
-110.826
 21
1040.34
  0
LINE
  8
0
 10
-110.826
 20
1040.34
 11
-110.923
 21
1040.13
  0
LINE
  8
0
 10
-110.923
 20
1040.13
 11
-111.044
 21
1039.94
  0
LINE
  8
0
 10
-111.044
 20
1039.94
 11
-111.188
 21
1039.77
  0
LINE
  8
0
 10
-111.188
 20
1039.77
 11
-111.353
 21
1039.61
  0
LINE
  8
0
 10
-111.353
 20
1039.61
 11
-111.536
 21
1039.48
  0
LINE
  8
0
 10
-111.536
 20
1039.48
 11
-111.734
 21
1039.37
  0
LINE
  8
0
 10
-111.734
 20
1039.37
 11
-111.944
 21
1039.29
  0
LINE
  8
0
 10
-111.944
 20
1039.29
 11
-112.163
 21
1039.23
  0
LINE
  8
0
 10
-112.163
 20
1039.23
 11
-112.387
 21
1039.2
  0
LINE
  8
0
 10
-112.387
 20
1039.2
 11
-112.613
 21
1039.2
  0
LINE
  8
0
 10
112.387
 20
1039.2
 11
112.163
 21
1039.23
  0
LINE
  8
0
 10
112.163
 20
1039.23
 11
111.944
 21
1039.29
  0
LINE
  8
0
 10
111.944
 20
1039.29
 11
111.734
 21
1039.37
  0
LINE
  8
0
 10
111.734
 20
1039.37
 11
111.536
 21
1039.48
  0
LINE
  8
0
 10
111.536
 20
1039.48
 11
111.353
 21
1039.61
  0
LINE
  8
0
 10
111.353
 20
1039.61
 11
111.188
 21
1039.77
  0
LINE
  8
0
 10
111.188
 20
1039.77
 11
111.044
 21
1039.94
  0
LINE
  8
0
 10
111.044
 20
1039.94
 11
110.923
 21
1040.13
  0
LINE
  8
0
 10
110.923
 20
1040.13
 11
110.826
 21
1040.34
  0
LINE
  8
0
 10
110.826
 20
1040.34
 11
110.757
 21
1040.55
  0
LINE
  8
0
 10
110.757
 20
1040.55
 11
110.714
 21
1040.77
  0
LINE
  8
0
 10
110.714
 20
1040.77
 11
110.7
 21
1041
  0
LINE
  8
0
 10
110.7
 20
1041
 11
110.714
 21
1041.23
  0
LINE
  8
0
 10
110.714
 20
1041.23
 11
110.757
 21
1041.45
  0
LINE
  8
0
 10
110.757
 20
1041.45
 11
110.826
 21
1041.66
  0
LINE
  8
0
 10
110.826
 20
1041.66
 11
110.923
 21
1041.87
  0
LINE
  8
0
 10
110.923
 20
1041.87
 11
111.044
 21
1042.06
  0
LINE
  8
0
 10
111.044
 20
1042.06
 11
111.188
 21
1042.23
  0
LINE
  8
0
 10
111.188
 20
1042.23
 11
111.353
 21
1042.39
  0
LINE
  8
0
 10
111.353
 20
1042.39
 11
111.536
 21
1042.52
  0
LINE
  8
0
 10
111.536
 20
1042.52
 11
111.734
 21
1042.63
  0
LINE
  8
0
 10
111.734
 20
1042.63
 11
111.944
 21
1042.71
  0
LINE
  8
0
 10
111.944
 20
1042.71
 11
112.163
 21
1042.77
  0
LINE
  8
0
 10
112.163
 20
1042.77
 11
112.387
 21
1042.8
  0
LINE
  8
0
 10
112.387
 20
1042.8
 11
112.613
 21
1042.8
  0
LINE
  8
0
 10
112.613
 20
1042.8
 11
112.837
 21
1042.77
  0
LINE
  8
0
 10
112.837
 20
1042.77
 11
113.056
 21
1042.71
  0
LINE
  8
0
 10
113.056
 20
1042.71
 11
113.266
 21
1042.63
  0
LINE
  8
0
 10
113.266
 20
1042.63
 11
113.464
 21
1042.52
  0
LINE
  8
0
 10
113.464
 20
1042.52
 11
113.647
 21
1042.39
  0
LINE
  8
0
 10
113.647
 20
1042.39
 11
113.812
 21
1042.23
  0
LINE
  8
0
 10
113.812
 20
1042.23
 11
113.956
 21
1042.06
  0
LINE
  8
0
 10
113.956
 20
1042.06
 11
114.077
 21
1041.87
  0
LINE
  8
0
 10
114.077
 20
1041.87
 11
114.174
 21
1041.66
  0
LINE
  8
0
 10
114.174
 20
1041.66
 11
114.243
 21
1041.45
  0
LINE
  8
0
 10
114.243
 20
1041.45
 11
114.286
 21
1041.23
  0
LINE
  8
0
 10
114.286
 20
1041.23
 11
114.3
 21
1041
  0
LINE
  8
0
 10
114.3
 20
1041
 11
114.286
 21
1040.77
  0
LINE
  8
0
 10
114.286
 20
1040.77
 11
114.243
 21
1040.55
  0
LINE
  8
0
 10
114.243
 20
1040.55
 11
114.174
 21
1040.34
  0
LINE
  8
0
 10
114.174
 20
1040.34
 11
114.077
 21
1040.13
  0
LINE
  8
0
 10
114.077
 20
1040.13
 11
113.956
 21
1039.94
  0
LINE
  8
0
 10
113.956
 20
1039.94
 11
113.812
 21
1039.77
  0
LINE
  8
0
 10
113.812
 20
1039.77
 11
113.647
 21
1039.61
  0
LINE
  8
0
 10
113.647
 20
1039.61
 11
113.464
 21
1039.48
  0
LINE
  8
0
 10
113.464
 20
1039.48
 11
113.266
 21
1039.37
  0
LINE
  8
0
 10
113.266
 20
1039.37
 11
113.056
 21
1039.29
  0
LINE
  8
0
 10
113.056
 20
1039.29
 11
112.837
 21
1039.23
  0
LINE
  8
0
 10
112.837
 20
1039.23
 11
112.613
 21
1039.2
  0
LINE
  8
0
 10
112.613
 20
1039.2
 11
112.387
 21
1039.2
  0
LINE
  8
0
 10
112.387
 20
829.204
 11
112.163
 21
829.232
  0
LINE
  8
0
 10
112.163
 20
829.232
 11
111.944
 21
829.288
  0
LINE
  8
0
 10
111.944
 20
829.288
 11
111.734
 21
829.371
  0
LINE
  8
0
 10
111.734
 20
829.371
 11
111.536
 21
829.48
  0
LINE
  8
0
 10
111.536
 20
829.48
 11
111.353
 21
829.613
  0
LINE
  8
0
 10
111.353
 20
829.613
 11
111.188
 21
829.768
  0
LINE
  8
0
 10
111.188
 20
829.768
 11
111.044
 21
829.942
  0
LINE
  8
0
 10
111.044
 20
829.942
 11
110.923
 21
830.133
  0
LINE
  8
0
 10
110.923
 20
830.133
 11
110.826
 21
830.337
  0
LINE
  8
0
 10
110.826
 20
830.337
 11
110.757
 21
830.552
  0
LINE
  8
0
 10
110.757
 20
830.552
 11
110.714
 21
830.774
  0
LINE
  8
0
 10
110.714
 20
830.774
 11
110.7
 21
831
  0
LINE
  8
0
 10
110.7
 20
831
 11
110.714
 21
831.226
  0
LINE
  8
0
 10
110.714
 20
831.226
 11
110.757
 21
831.448
  0
LINE
  8
0
 10
110.757
 20
831.448
 11
110.826
 21
831.663
  0
LINE
  8
0
 10
110.826
 20
831.663
 11
110.923
 21
831.867
  0
LINE
  8
0
 10
110.923
 20
831.867
 11
111.044
 21
832.058
  0
LINE
  8
0
 10
111.044
 20
832.058
 11
111.188
 21
832.232
  0
LINE
  8
0
 10
111.188
 20
832.232
 11
111.353
 21
832.387
  0
LINE
  8
0
 10
111.353
 20
832.387
 11
111.536
 21
832.52
  0
LINE
  8
0
 10
111.536
 20
832.52
 11
111.734
 21
832.629
  0
LINE
  8
0
 10
111.734
 20
832.629
 11
111.944
 21
832.712
  0
LINE
  8
0
 10
111.944
 20
832.712
 11
112.163
 21
832.768
  0
LINE
  8
0
 10
112.163
 20
832.768
 11
112.387
 21
832.796
  0
LINE
  8
0
 10
112.387
 20
832.796
 11
112.613
 21
832.796
  0
LINE
  8
0
 10
112.613
 20
832.796
 11
112.837
 21
832.768
  0
LINE
  8
0
 10
112.837
 20
832.768
 11
113.056
 21
832.712
  0
LINE
  8
0
 10
113.056
 20
832.712
 11
113.266
 21
832.629
  0
LINE
  8
0
 10
113.266
 20
832.629
 11
113.464
 21
832.52
  0
LINE
  8
0
 10
113.464
 20
832.52
 11
113.647
 21
832.387
  0
LINE
  8
0
 10
113.647
 20
832.387
 11
113.812
 21
832.232
  0
LINE
  8
0
 10
113.812
 20
832.232
 11
113.956
 21
832.058
  0
LINE
  8
0
 10
113.956
 20
832.058
 11
114.077
 21
831.867
  0
LINE
  8
0
 10
114.077
 20
831.867
 11
114.174
 21
831.663
  0
LINE
  8
0
 10
114.174
 20
831.663
 11
114.243
 21
831.448
  0
LINE
  8
0
 10
114.243
 20
831.448
 11
114.286
 21
831.226
  0
LINE
  8
0
 10
114.286
 20
831.226
 11
114.3
 21
831
  0
LINE
  8
0
 10
114.3
 20
831
 11
114.286
 21
830.774
  0
LINE
  8
0
 10
114.286
 20
830.774
 11
114.243
 21
830.552
  0
LINE
  8
0
 10
114.243
 20
830.552
 11
114.174
 21
830.337
  0
LINE
  8
0
 10
114.174
 20
830.337
 11
114.077
 21
830.133
  0
LINE
  8
0
 10
114.077
 20
830.133
 11
113.956
 21
829.942
  0
LINE
  8
0
 10
113.956
 20
829.942
 11
113.812
 21
829.768
  0
LINE
  8
0
 10
113.812
 20
829.768
 11
113.647
 21
829.613
  0
LINE
  8
0
 10
113.647
 20
829.613
 11
113.464
 21
829.48
  0
LINE
  8
0
 10
113.464
 20
829.48
 11
113.266
 21
829.371
  0
LINE
  8
0
 10
113.266
 20
829.371
 11
113.056
 21
829.288
  0
LINE
  8
0
 10
113.056
 20
829.288
 11
112.837
 21
829.232
  0
LINE
  8
0
 10
112.837
 20
829.232
 11
112.613
 21
829.204
  0
LINE
  8
0
 10
112.613
 20
829.204
 11
112.387
 21
829.204
  0
LINE
  8
0
 10
-112.613
 20
829.204
 11
-112.837
 21
829.232
  0
LINE
  8
0
 10
-112.837
 20
829.232
 11
-113.056
 21
829.288
  0
LINE
  8
0
 10
-113.056
 20
829.288
 11
-113.266
 21
829.371
  0
LINE
  8
0
 10
-113.266
 20
829.371
 11
-113.464
 21
829.48
  0
LINE
  8
0
 10
-113.464
 20
829.48
 11
-113.647
 21
829.613
  0
LINE
  8
0
 10
-113.647
 20
829.613
 11
-113.812
 21
829.768
  0
LINE
  8
0
 10
-113.812
 20
829.768
 11
-113.956
 21
829.942
  0
LINE
  8
0
 10
-113.956
 20
829.942
 11
-114.077
 21
830.133
  0
LINE
  8
0
 10
-114.077
 20
830.133
 11
-114.174
 21
830.337
  0
LINE
  8
0
 10
-114.174
 20
830.337
 11
-114.243
 21
830.552
  0
LINE
  8
0
 10
-114.243
 20
830.552
 11
-114.286
 21
830.774
  0
LINE
  8
0
 10
-114.286
 20
830.774
 11
-114.3
 21
831
  0
LINE
  8
0
 10
-114.3
 20
831
 11
-114.286
 21
831.226
  0
LINE
  8
0
 10
-114.286
 20
831.226
 11
-114.243
 21
831.448
  0
LINE
  8
0
 10
-114.243
 20
831.448
 11
-114.174
 21
831.663
  0
LINE
  8
0
 10
-114.174
 20
831.663
 11
-114.077
 21
831.867
  0
LINE
  8
0
 10
-114.077
 20
831.867
 11
-113.956
 21
832.058
  0
LINE
  8
0
 10
-113.956
 20
832.058
 11
-113.812
 21
832.232
  0
LINE
  8
0
 10
-113.812
 20
832.232
 11
-113.647
 21
832.387
  0
LINE
  8
0
 10
-113.647
 20
832.387
 11
-113.464
 21
832.52
  0
LINE
  8
0
 10
-113.464
 20
832.52
 11
-113.266
 21
832.629
  0
LINE
  8
0
 10
-113.266
 20
832.629
 11
-113.056
 21
832.712
  0
LINE
  8
0
 10
-113.056
 20
832.712
 11
-112.837
 21
832.768
  0
LINE
  8
0
 10
-112.837
 20
832.768
 11
-112.613
 21
832.796
  0
LINE
  8
0
 10
-112.613
 20
832.796
 11
-112.387
 21
832.796
  0
LINE
  8
0
 10
-112.387
 20
832.796
 11
-112.163
 21
832.768
  0
LINE
  8
0
 10
-112.163
 20
832.768
 11
-111.944
 21
832.712
  0
LINE
  8
0
 10
-111.944
 20
832.712
 11
-111.734
 21
832.629
  0
LINE
  8
0
 10
-111.734
 20
832.629
 11
-111.536
 21
832.52
  0
LINE
  8
0
 10
-111.536
 20
832.52
 11
-111.353
 21
832.387
  0
LINE
  8
0
 10
-111.353
 20
832.387
 11
-111.188
 21
832.232
  0
LINE
  8
0
 10
-111.188
 20
832.232
 11
-111.044
 21
832.058
  0
LINE
  8
0
 10
-111.044
 20
832.058
 11
-110.923
 21
831.867
  0
LINE
  8
0
 10
-110.923
 20
831.867
 11
-110.826
 21
831.663
  0
LINE
  8
0
 10
-110.826
 20
831.663
 11
-110.757
 21
831.448
  0
LINE
  8
0
 10
-110.757
 20
831.448
 11
-110.714
 21
831.226
  0
LINE
  8
0
 10
-110.714
 20
831.226
 11
-110.7
 21
831
  0
LINE
  8
0
 10
-110.7
 20
831
 11
-110.714
 21
830.774
  0
LINE
  8
0
 10
-110.714
 20
830.774
 11
-110.757
 21
830.552
  0
LINE
  8
0
 10
-110.757
 20
830.552
 11
-110.826
 21
830.337
  0
LINE
  8
0
 10
-110.826
 20
830.337
 11
-110.923
 21
830.133
  0
LINE
  8
0
 10
-110.923
 20
830.133
 11
-111.044
 21
829.942
  0
LINE
  8
0
 10
-111.044
 20
829.942
 11
-111.188
 21
829.768
  0
LINE
  8
0
 10
-111.188
 20
829.768
 11
-111.353
 21
829.613
  0
LINE
  8
0
 10
-111.353
 20
829.613
 11
-111.536
 21
829.48
  0
LINE
  8
0
 10
-111.536
 20
829.48
 11
-111.734
 21
829.371
  0
LINE
  8
0
 10
-111.734
 20
829.371
 11
-111.944
 21
829.288
  0
LINE
  8
0
 10
-111.944
 20
829.288
 11
-112.163
 21
829.232
  0
LINE
  8
0
 10
-112.163
 20
829.232
 11
-112.387
 21
829.204
  0
LINE
  8
0
 10
-112.387
 20
829.204
 11
-112.613
 21
829.204
  0
ENDSEC
  0
SECTION
  2
OBJECTS
  0
DICTIONARY
  0
ENDSEC
  0
EOF
