<?xml version="1.0" standalone="no"?>
<!DOCTYPE svg PUBLIC "-//W3C//DTD SVG 1.1//EN" "http://www.w3.org/Graphics/SVG/1.1/DTD/svg11.dtd">
<svg width="226mm" height="738mm" viewBox="-113 -1365 226 738" xmlns="http://www.w3.org/2000/svg" version="1.1">
<title>OpenSCAD Model</title>
<path d="
M 108.437,-1125.09 L 109.045,-1125.24 L 109.629,-1125.48 L 110.179,-1125.78 L 110.687,-1126.15 L 111.145,-1126.58
 L 111.545,-1127.06 L 111.882,-1127.59 L 112.149,-1128.16 L 112.343,-1128.76 L 112.461,-1129.37 L 112.5,-1130
 L 112.5,-1360 L 112.461,-1360.63 L 112.343,-1361.24 L 112.149,-1361.84 L 111.882,-1362.41 L 111.545,-1362.94
 L 111.145,-1363.42 L 110.687,-1363.85 L 110.179,-1364.22 L 109.629,-1364.52 L 109.045,-1364.76 L 108.437,-1364.91
 L 107.814,-1364.99 L -107.814,-1364.99 L -108.437,-1364.91 L -109.045,-1364.76 L -109.629,-1364.52 L -110.179,-1364.22
 L -110.687,-1363.85 L -111.145,-1363.42 L -111.545,-1362.94 L -111.882,-1362.41 L -112.149,-1361.84 L -112.343,-1361.24
 L -112.461,-1360.63 L -112.5,-1360 L -112.5,-1130 L -112.461,-1129.37 L -112.343,-1128.76 L -112.149,-1128.16
 L -111.882,-1127.59 L -111.545,-1127.06 L -111.145,-1126.58 L -110.687,-1126.15 L -110.179,-1125.78 L -109.629,-1125.48
 L -109.045,-1125.24 L -108.437,-1125.09 L -107.814,-1125.01 L 107.814,-1125.01 z
M -107.251,-1126.51 L -107.75,-1126.57 L -108.236,-1126.7 L -108.703,-1126.88 L -109.143,-1127.12 L -109.55,-1127.42
 L -109.916,-1127.76 L -110.236,-1128.15 L -110.505,-1128.57 L -110.719,-1129.03 L -110.874,-1129.51 L -110.968,-1130
 L -111,-1130.5 L -111,-1359.5 L -110.968,-1360 L -110.874,-1360.49 L -110.719,-1360.97 L -110.505,-1361.43
 L -110.236,-1361.85 L -109.916,-1362.24 L -109.55,-1362.58 L -109.143,-1362.88 L -108.703,-1363.12 L -108.236,-1363.3
 L -107.75,-1363.43 L -107.251,-1363.49 L 107.251,-1363.49 L 107.75,-1363.43 L 108.236,-1363.3 L 108.703,-1363.12
 L 109.143,-1362.88 L 109.55,-1362.58 L 109.916,-1362.24 L 110.236,-1361.85 L 110.505,-1361.43 L 110.719,-1360.97
 L 110.874,-1360.49 L 110.968,-1360 L 111,-1359.5 L 111,-1130.5 L 110.968,-1130 L 110.874,-1129.51
 L 110.719,-1129.03 L 110.505,-1128.57 L 110.236,-1128.15 L 109.916,-1127.76 L 109.55,-1127.42 L 109.143,-1127.12
 L 108.703,-1126.88 L 108.236,-1126.7 L 107.75,-1126.57 L 107.251,-1126.51 z
M 108.437,-876.089 L 109.045,-876.245 L 109.629,-876.476 L 110.179,-876.778 L 110.687,-877.147 L 111.145,-877.577
 L 111.545,-878.061 L 111.882,-878.591 L 112.149,-879.159 L 112.343,-879.757 L 112.461,-880.373 L 112.5,-881
 L 112.5,-1111 L 112.461,-1111.63 L 112.343,-1112.24 L 112.149,-1112.84 L 111.882,-1113.41 L 111.545,-1113.94
 L 111.145,-1114.42 L 110.687,-1114.85 L 110.179,-1115.22 L 109.629,-1115.52 L 109.045,-1115.76 L 108.437,-1115.91
 L 107.814,-1115.99 L -107.814,-1115.99 L -108.437,-1115.91 L -109.045,-1115.76 L -109.629,-1115.52 L -110.179,-1115.22
 L -110.687,-1114.85 L -111.145,-1114.42 L -111.545,-1113.94 L -111.882,-1113.41 L -112.149,-1112.84 L -112.343,-1112.24
 L -112.461,-1111.63 L -112.5,-1111 L -112.5,-881 L -112.461,-880.373 L -112.343,-879.757 L -112.149,-879.159
 L -111.882,-878.591 L -111.545,-878.061 L -111.145,-877.577 L -110.687,-877.147 L -110.179,-876.778 L -109.629,-876.476
 L -109.045,-876.245 L -108.437,-876.089 L -107.814,-876.01 L 107.814,-876.01 z
M -107.195,-878.393 L -107.583,-878.442 L -107.962,-878.539 L -108.325,-878.683 L -108.668,-878.872 L -108.984,-879.101
 L -109.269,-879.369 L -109.518,-879.67 L -109.728,-880 L -109.894,-880.354 L -110.015,-880.726 L -110.088,-881.11
 L -110.113,-881.5 L -110.113,-1110.5 L -110.088,-1110.89 L -110.015,-1111.27 L -109.894,-1111.65 L -109.728,-1112
 L -109.518,-1112.33 L -109.269,-1112.63 L -108.984,-1112.9 L -108.668,-1113.13 L -108.325,-1113.32 L -107.962,-1113.46
 L -107.583,-1113.56 L -107.195,-1113.61 L 107.195,-1113.61 L 107.583,-1113.56 L 107.962,-1113.46 L 108.325,-1113.32
 L 108.668,-1113.13 L 108.984,-1112.9 L 109.269,-1112.63 L 109.518,-1112.33 L 109.728,-1112 L 109.894,-1111.65
 L 110.015,-1111.27 L 110.088,-1110.89 L 110.113,-1110.5 L 110.113,-881.5 L 110.088,-881.11 L 110.015,-880.726
 L 109.894,-880.354 L 109.728,-880 L 109.518,-879.67 L 109.269,-879.369 L 108.984,-879.101 L 108.668,-878.872
 L 108.325,-878.683 L 107.962,-878.539 L 107.583,-878.442 L 107.195,-878.393 z
M 108.437,-627.089 L 109.045,-627.245 L 109.629,-627.476 L 110.179,-627.778 L 110.687,-628.147 L 111.145,-628.577
 L 111.545,-629.061 L 111.882,-629.591 L 112.149,-630.159 L 112.343,-630.757 L 112.461,-631.373 L 112.5,-632
 L 112.5,-862 L 112.461,-862.627 L 112.343,-863.243 L 112.149,-863.841 L 111.882,-864.409 L 111.545,-864.939
 L 111.145,-865.423 L 110.687,-865.853 L 110.179,-866.222 L 109.629,-866.524 L 109.045,-866.755 L 108.437,-866.911
 L 107.814,-866.99 L -107.814,-866.99 L -108.437,-866.911 L -109.045,-866.755 L -109.629,-866.524 L -110.179,-866.222
 L -110.687,-865.853 L -111.145,-865.423 L -111.545,-864.939 L -111.882,-864.409 L -112.149,-863.841 L -112.343,-863.243
 L -112.461,-862.627 L -112.5,-862 L -112.5,-632 L -112.461,-631.373 L -112.343,-630.757 L -112.149,-630.159
 L -111.882,-629.591 L -111.545,-629.061 L -111.145,-628.577 L -110.687,-628.147 L -110.179,-627.778 L -109.629,-627.476
 L -109.045,-627.245 L -108.437,-627.089 L -107.814,-627.01 L 107.814,-627.01 z
M 104.866,-857.369 L 104.6,-857.403 L 104.34,-857.469 L 104.091,-857.568 L 103.856,-857.697 L 103.639,-857.855
 L 103.443,-858.038 L 103.273,-858.245 L 103.129,-858.471 L 103.015,-858.714 L 102.932,-858.969 L 102.882,-859.232
 L 102.865,-859.5 L 102.882,-859.768 L 102.932,-860.031 L 103.015,-860.286 L 103.129,-860.529 L 103.273,-860.755
 L 103.443,-860.962 L 103.639,-861.145 L 103.856,-861.303 L 104.091,-861.432 L 104.34,-861.531 L 104.6,-861.597
 L 104.866,-861.631 L 105.134,-861.631 L 105.4,-861.597 L 105.66,-861.531 L 105.909,-861.432 L 106.144,-861.303
 L 106.361,-861.145 L 106.557,-860.962 L 106.727,-860.755 L 106.871,-860.529 L 106.985,-860.286 L 107.068,-860.031
 L 107.118,-859.768 L 107.135,-859.5 L 107.118,-859.232 L 107.068,-858.969 L 106.985,-858.714 L 106.871,-858.471
 L 106.727,-858.245 L 106.557,-858.038 L 106.361,-857.855 L 106.144,-857.697 L 105.909,-857.568 L 105.66,-857.469
 L 105.4,-857.403 L 105.134,-857.369 z
M -105.134,-857.369 L -105.4,-857.403 L -105.66,-857.469 L -105.909,-857.568 L -106.144,-857.697 L -106.361,-857.855
 L -106.557,-858.038 L -106.727,-858.245 L -106.871,-858.471 L -106.985,-858.714 L -107.068,-858.969 L -107.118,-859.232
 L -107.135,-859.5 L -107.118,-859.768 L -107.068,-860.031 L -106.985,-860.286 L -106.871,-860.529 L -106.727,-860.755
 L -106.557,-860.962 L -106.361,-861.145 L -106.144,-861.303 L -105.909,-861.432 L -105.66,-861.531 L -105.4,-861.597
 L -105.134,-861.631 L -104.866,-861.631 L -104.6,-861.597 L -104.34,-861.531 L -104.091,-861.432 L -103.856,-861.303
 L -103.639,-861.145 L -103.443,-860.962 L -103.273,-860.755 L -103.129,-860.529 L -103.015,-860.286 L -102.932,-860.031
 L -102.882,-859.768 L -102.865,-859.5 L -102.882,-859.232 L -102.932,-858.969 L -103.015,-858.714 L -103.129,-858.471
 L -103.273,-858.245 L -103.443,-858.038 L -103.639,-857.855 L -103.856,-857.697 L -104.091,-857.568 L -104.34,-857.469
 L -104.6,-857.403 L -104.866,-857.369 z
M 104.866,-632.369 L 104.6,-632.403 L 104.34,-632.469 L 104.091,-632.568 L 103.856,-632.697 L 103.639,-632.855
 L 103.443,-633.038 L 103.273,-633.245 L 103.129,-633.471 L 103.015,-633.714 L 102.932,-633.969 L 102.882,-634.232
 L 102.865,-634.5 L 102.882,-634.768 L 102.932,-635.031 L 103.015,-635.286 L 103.129,-635.529 L 103.273,-635.755
 L 103.443,-635.962 L 103.639,-636.145 L 103.856,-636.303 L 104.091,-636.432 L 104.34,-636.531 L 104.6,-636.597
 L 104.866,-636.631 L 105.134,-636.631 L 105.4,-636.597 L 105.66,-636.531 L 105.909,-636.432 L 106.144,-636.303
 L 106.361,-636.145 L 106.557,-635.962 L 106.727,-635.755 L 106.871,-635.529 L 106.985,-635.286 L 107.068,-635.031
 L 107.118,-634.768 L 107.135,-634.5 L 107.118,-634.232 L 107.068,-633.969 L 106.985,-633.714 L 106.871,-633.471
 L 106.727,-633.245 L 106.557,-633.038 L 106.361,-632.855 L 106.144,-632.697 L 105.909,-632.568 L 105.66,-632.469
 L 105.4,-632.403 L 105.134,-632.369 z
M -105.134,-632.369 L -105.4,-632.403 L -105.66,-632.469 L -105.909,-632.568 L -106.144,-632.697 L -106.361,-632.855
 L -106.557,-633.038 L -106.727,-633.245 L -106.871,-633.471 L -106.985,-633.714 L -107.068,-633.969 L -107.118,-634.232
 L -107.135,-634.5 L -107.118,-634.768 L -107.068,-635.031 L -106.985,-635.286 L -106.871,-635.529 L -106.727,-635.755
 L -106.557,-635.962 L -106.361,-636.145 L -106.144,-636.303 L -105.909,-636.432 L -105.66,-636.531 L -105.4,-636.597
 L -105.134,-636.631 L -104.866,-636.631 L -104.6,-636.597 L -104.34,-636.531 L -104.091,-636.432 L -103.856,-636.303
 L -103.639,-636.145 L -103.443,-635.962 L -103.273,-635.755 L -103.129,-635.529 L -103.015,-635.286 L -102.932,-635.031
 L -102.882,-634.768 L -102.865,-634.5 L -102.882,-634.232 L -102.932,-633.969 L -103.015,-633.714 L -103.129,-633.471
 L -103.273,-633.245 L -103.443,-633.038 L -103.639,-632.855 L -103.856,-632.697 L -104.091,-632.568 L -104.34,-632.469
 L -104.6,-632.403 L -104.866,-632.369 z
" stroke="black" fill="lightgray" stroke-width="0.5"/>
</svg>
