<?xml version="1.0" standalone="no"?>
<!DOCTYPE svg PUBLIC "-//W3C//DTD SVG 1.1//EN" "http://www.w3.org/Graphics/SVG/1.1/DTD/svg11.dtd">
<svg width="257mm" height="2181mm" viewBox="-129 -4266 257 2181" xmlns="http://www.w3.org/2000/svg" version="1.1">
<title>OpenSCAD Model</title>
<path d="
M 123.437,-4056.09 L 124.045,-4056.24 L 124.629,-4056.48 L 125.179,-4056.78 L 125.687,-4057.15 L 126.145,-4057.58
 L 126.545,-4058.06 L 126.882,-4058.59 L 127.149,-4059.16 L 127.343,-4059.76 L 127.461,-4060.37 L 127.5,-4061
 L 127.5,-4261 L 127.461,-4261.63 L 127.343,-4262.24 L 127.149,-4262.84 L 126.882,-4263.41 L 126.545,-4263.94
 L 126.145,-4264.42 L 125.687,-4264.85 L 125.179,-4265.22 L 124.629,-4265.52 L 124.045,-4265.76 L 123.437,-4265.91
 L 122.814,-4265.99 L -122.814,-4265.99 L -123.437,-4265.91 L -124.045,-4265.76 L -124.629,-4265.52 L -125.179,-4265.22
 L -125.687,-4264.85 L -126,-4264.56 L -129,-4264.56 L -129,-4057.44 L -126,-4057.44 L -125.687,-4057.15
 L -125.179,-4056.78 L -124.629,-4056.48 L -124.045,-4056.24 L -123.437,-4056.09 L -122.814,-4056.01 L 122.814,-4056.01
 z
M -122.251,-4057.51 L -122.75,-4057.57 L -123.236,-4057.7 L -123.703,-4057.88 L -124.143,-4058.12 L -124.55,-4058.42
 L -124.916,-4058.76 L -125.236,-4059.15 L -125.505,-4059.57 L -125.719,-4060.03 L -125.874,-4060.51 L -125.968,-4061
 L -126,-4061.5 L -126,-4260.5 L -125.968,-4261 L -125.874,-4261.49 L -125.719,-4261.97 L -125.505,-4262.43
 L -125.236,-4262.85 L -124.916,-4263.24 L -124.55,-4263.58 L -124.143,-4263.88 L -123.703,-4264.12 L -123.236,-4264.3
 L -122.75,-4264.43 L -122.251,-4264.49 L 122.251,-4264.49 L 122.75,-4264.43 L 123.236,-4264.3 L 123.703,-4264.12
 L 124.143,-4263.88 L 124.55,-4263.58 L 124.916,-4263.24 L 125.236,-4262.85 L 125.505,-4262.43 L 125.719,-4261.97
 L 125.874,-4261.49 L 125.968,-4261 L 126,-4260.5 L 126,-4061.5 L 125.968,-4061 L 125.874,-4060.51
 L 125.719,-4060.03 L 125.505,-4059.57 L 125.236,-4059.15 L 124.916,-4058.76 L 124.55,-4058.42 L 124.143,-4058.12
 L 123.703,-4057.88 L 123.236,-4057.7 L 122.75,-4057.57 L 122.251,-4057.51 z
M 123.437,-3837.09 L 124.045,-3837.24 L 124.629,-3837.48 L 125.179,-3837.78 L 125.687,-3838.15 L 126.145,-3838.58
 L 126.545,-3839.06 L 126.882,-3839.59 L 127.149,-3840.16 L 127.343,-3840.76 L 127.461,-3841.37 L 127.5,-3842
 L 127.5,-4042 L 127.461,-4042.63 L 127.343,-4043.24 L 127.149,-4043.84 L 126.882,-4044.41 L 126.545,-4044.94
 L 126.145,-4045.42 L 125.687,-4045.85 L 125.179,-4046.22 L 124.629,-4046.52 L 124.045,-4046.76 L 123.437,-4046.91
 L 122.814,-4046.99 L -122.814,-4046.99 L -123.437,-4046.91 L -124.045,-4046.76 L -124.629,-4046.52 L -125.179,-4046.22
 L -125.687,-4045.85 L -126,-4045.56 L -126,-4046.97 L -129,-4046.97 L -129,-3837.03 L -126,-3837.03
 L -126,-3838.44 L -125.687,-3838.15 L -125.179,-3837.78 L -124.629,-3837.48 L -124.045,-3837.24 L -123.437,-3837.09
 L -122.814,-3837.01 L 122.814,-3837.01 z
M -122.251,-3838.51 L -122.75,-3838.57 L -123.236,-3838.7 L -123.703,-3838.88 L -124.143,-3839.12 L -124.55,-3839.42
 L -124.916,-3839.76 L -125.236,-3840.15 L -125.505,-3840.57 L -125.719,-3841.03 L -125.874,-3841.51 L -125.968,-3842
 L -126,-3842.5 L -126,-4041.5 L -125.968,-4042 L -125.874,-4042.49 L -125.719,-4042.97 L -125.505,-4043.43
 L -125.236,-4043.85 L -124.916,-4044.24 L -124.55,-4044.58 L -124.143,-4044.88 L -123.703,-4045.12 L -123.236,-4045.3
 L -122.75,-4045.43 L -122.251,-4045.49 L 122.251,-4045.49 L 122.75,-4045.43 L 123.236,-4045.3 L 123.703,-4045.12
 L 124.143,-4044.88 L 124.55,-4044.58 L 124.916,-4044.24 L 125.236,-4043.85 L 125.505,-4043.43 L 125.719,-4042.97
 L 125.874,-4042.49 L 125.968,-4042 L 126,-4041.5 L 126,-3842.5 L 125.968,-3842 L 125.874,-3841.51
 L 125.719,-3841.03 L 125.505,-3840.57 L 125.236,-3840.15 L 124.916,-3839.76 L 124.55,-3839.42 L 124.143,-3839.12
 L 123.703,-3838.88 L 123.236,-3838.7 L 122.75,-3838.57 L 122.251,-3838.51 z
M -126,-3619.44 L -125.687,-3619.15 L -125.179,-3618.78 L -124.629,-3618.48 L -124.045,-3618.24 L -123.437,-3618.09
 L -122.814,-3618.01 L 122.814,-3618.01 L 123.437,-3618.09 L 124.045,-3618.24 L 124.629,-3618.48 L 125.179,-3618.78
 L 125.687,-3619.15 L 126.145,-3619.58 L 126.545,-3620.06 L 126.882,-3620.59 L 127.149,-3621.16 L 127.343,-3621.76
 L 127.461,-3622.37 L 127.5,-3623 L 127.5,-3823 L 127.461,-3823.63 L 127.343,-3824.24 L 127.149,-3824.84
 L 126.882,-3825.41 L 126.545,-3825.94 L 126.145,-3826.42 L 125.687,-3826.85 L 125.179,-3827.22 L 124.629,-3827.52
 L 124.045,-3827.76 L 123.437,-3827.91 L 122.814,-3827.99 L -122.814,-3827.99 L -123.437,-3827.91 L -124.045,-3827.76
 L -124.629,-3827.52 L -125.179,-3827.22 L -125.687,-3826.85 L -126,-3826.56 L -126,-3827.99 L -129,-3827.99
 L -129,-3823.49 L -125.874,-3823.49 L -125.874,-3823.49 L -125.719,-3823.97 L -125.505,-3824.43 L -125.236,-3824.85
 L -124.916,-3825.24 L -124.55,-3825.58 L -124.143,-3825.88 L -123.703,-3826.12 L -123.236,-3826.3 L -122.75,-3826.43
 L -122.251,-3826.49 L 122.251,-3826.49 L 122.75,-3826.43 L 123.236,-3826.3 L 123.703,-3826.12 L 124.143,-3825.88
 L 124.55,-3825.58 L 124.916,-3825.24 L 125.236,-3824.85 L 125.505,-3824.43 L 125.719,-3823.97 L 125.874,-3823.49
 L 125.968,-3823 L 126,-3822.5 L 126,-3623.5 L 125.968,-3623 L 125.874,-3622.51 L 125.719,-3622.03
 L 125.505,-3621.57 L 125.236,-3621.15 L 124.916,-3620.76 L 124.55,-3620.42 L 124.143,-3620.12 L 123.703,-3619.88
 L 123.236,-3619.7 L 122.75,-3619.57 L 122.251,-3619.51 L -122.251,-3619.51 L -122.75,-3619.57 L -123.236,-3619.7
 L -123.703,-3619.88 L -124.143,-3620.12 L -124.55,-3620.42 L -124.916,-3620.76 L -125.236,-3621.15 L -125.505,-3621.57
 L -125.719,-3622.03 L -125.874,-3622.51 L -125.874,-3622.51 L -129,-3622.51 L -129,-3618.01 L -126,-3618.01
 z
M -126,-3817.51 L -129,-3817.51 L -129,-3808.49 L -126,-3808.49 z
M -126,-3802.51 L -129,-3802.51 L -129,-3793.49 L -126,-3793.49 z
M -126,-3787.51 L -129,-3787.51 L -129,-3778.49 L -126,-3778.49 z
M -126,-3772.51 L -129,-3772.51 L -129,-3763.49 L -126,-3763.49 z
M -126,-3757.51 L -129,-3757.51 L -129,-3748.49 L -126,-3748.49 z
M -126,-3742.51 L -129,-3742.51 L -129,-3733.49 L -126,-3733.49 z
M -126,-3727.51 L -129,-3727.51 L -129,-3718.49 L -126,-3718.49 z
M -126,-3712.51 L -129,-3712.51 L -129,-3703.49 L -126,-3703.49 z
M -126,-3697.51 L -129,-3697.51 L -129,-3688.49 L -126,-3688.49 z
M -126,-3682.51 L -129,-3682.51 L -129,-3673.49 L -126,-3673.49 z
M -126,-3667.51 L -129,-3667.51 L -129,-3658.49 L -126,-3658.49 z
M -126,-3652.51 L -129,-3652.51 L -129,-3643.49 L -126,-3643.49 z
M -126,-3637.51 L -129,-3637.51 L -129,-3628.49 L -126,-3628.49 z
M -126,-3400.44 L -125.687,-3400.15 L -125.179,-3399.78 L -124.629,-3399.48 L -124.045,-3399.24 L -123.437,-3399.09
 L -122.814,-3399.01 L 122.814,-3399.01 L 123.437,-3399.09 L 124.045,-3399.24 L 124.629,-3399.48 L 125.179,-3399.78
 L 125.687,-3400.15 L 126.145,-3400.58 L 126.545,-3401.06 L 126.882,-3401.59 L 127.149,-3402.16 L 127.343,-3402.76
 L 127.461,-3403.37 L 127.5,-3404 L 127.5,-3604 L 127.461,-3604.63 L 127.343,-3605.24 L 127.149,-3605.84
 L 126.882,-3606.41 L 126.545,-3606.94 L 126.145,-3607.42 L 125.687,-3607.85 L 125.179,-3608.22 L 124.629,-3608.52
 L 124.045,-3608.76 L 123.437,-3608.91 L 122.814,-3608.99 L -122.814,-3608.99 L -123.437,-3608.91 L -124.045,-3608.76
 L -124.629,-3608.52 L -125.179,-3608.22 L -125.687,-3607.85 L -126,-3607.56 L -126,-3608.99 L -129,-3608.99
 L -129,-3399.01 L -126,-3399.01 z
M -122.251,-3400.51 L -122.75,-3400.57 L -123.236,-3400.7 L -123.703,-3400.88 L -124.143,-3401.12 L -124.55,-3401.42
 L -124.916,-3401.76 L -125.236,-3402.15 L -125.505,-3402.57 L -125.719,-3403.03 L -125.874,-3403.51 L -125.968,-3404
 L -126,-3404.5 L -126,-3603.5 L -125.968,-3604 L -125.874,-3604.49 L -125.719,-3604.97 L -125.505,-3605.43
 L -125.236,-3605.85 L -124.916,-3606.24 L -124.55,-3606.58 L -124.143,-3606.88 L -123.703,-3607.12 L -123.236,-3607.3
 L -122.75,-3607.43 L -122.251,-3607.49 L 122.251,-3607.49 L 122.75,-3607.43 L 123.236,-3607.3 L 123.703,-3607.12
 L 124.143,-3606.88 L 124.55,-3606.58 L 124.916,-3606.24 L 125.236,-3605.85 L 125.505,-3605.43 L 125.719,-3604.97
 L 125.874,-3604.49 L 125.968,-3604 L 126,-3603.5 L 126,-3404.5 L 125.968,-3404 L 125.874,-3403.51
 L 125.719,-3403.03 L 125.505,-3402.57 L 125.236,-3402.15 L 124.916,-3401.76 L 124.55,-3401.42 L 124.143,-3401.12
 L 123.703,-3400.88 L 123.236,-3400.7 L 122.75,-3400.57 L 122.251,-3400.51 z
M -126,-3181.44 L -125.687,-3181.15 L -125.179,-3180.78 L -124.629,-3180.48 L -124.045,-3180.24 L -123.437,-3180.09
 L -122.814,-3180.01 L 122.814,-3180.01 L 123.437,-3180.09 L 124.045,-3180.24 L 124.629,-3180.48 L 125.179,-3180.78
 L 125.687,-3181.15 L 126.145,-3181.58 L 126.545,-3182.06 L 126.882,-3182.59 L 127.149,-3183.16 L 127.343,-3183.76
 L 127.461,-3184.37 L 127.5,-3185 L 127.5,-3385 L 127.461,-3385.63 L 127.343,-3386.24 L 127.149,-3386.84
 L 126.882,-3387.41 L 126.545,-3387.94 L 126.145,-3388.42 L 125.687,-3388.85 L 125.179,-3389.22 L 124.629,-3389.52
 L 124.045,-3389.76 L 123.437,-3389.91 L 122.814,-3389.99 L -122.814,-3389.99 L -123.437,-3389.91 L -124.045,-3389.76
 L -124.629,-3389.52 L -125.179,-3389.22 L -125.687,-3388.85 L -126,-3388.56 L -126,-3389.99 L -129,-3389.99
 L -129,-3180.01 L -126,-3180.01 z
M -122.251,-3181.51 L -122.75,-3181.57 L -123.236,-3181.7 L -123.703,-3181.88 L -124.143,-3182.12 L -124.55,-3182.42
 L -124.916,-3182.76 L -125.236,-3183.15 L -125.505,-3183.57 L -125.719,-3184.03 L -125.874,-3184.51 L -125.968,-3185
 L -126,-3185.5 L -126,-3384.5 L -125.968,-3385 L -125.874,-3385.49 L -125.719,-3385.97 L -125.505,-3386.43
 L -125.236,-3386.85 L -124.916,-3387.24 L -124.55,-3387.58 L -124.143,-3387.88 L -123.703,-3388.12 L -123.236,-3388.3
 L -122.75,-3388.43 L -122.251,-3388.49 L 122.251,-3388.49 L 122.75,-3388.43 L 123.236,-3388.3 L 123.703,-3388.12
 L 124.143,-3387.88 L 124.55,-3387.58 L 124.916,-3387.24 L 125.236,-3386.85 L 125.505,-3386.43 L 125.719,-3385.97
 L 125.874,-3385.49 L 125.968,-3385 L 126,-3384.5 L 126,-3185.5 L 125.968,-3185 L 125.874,-3184.51
 L 125.719,-3184.03 L 125.505,-3183.57 L 125.236,-3183.15 L 124.916,-3182.76 L 124.55,-3182.42 L 124.143,-3182.12
 L 123.703,-3181.88 L 123.236,-3181.7 L 122.75,-3181.57 L 122.251,-3181.51 z
M -126,-2962.44 L -125.687,-2962.15 L -125.179,-2961.78 L -124.629,-2961.48 L -124.045,-2961.24 L -123.437,-2961.09
 L -122.814,-2961.01 L 122.814,-2961.01 L 123.437,-2961.09 L 124.045,-2961.24 L 124.629,-2961.48 L 125.179,-2961.78
 L 125.687,-2962.15 L 126.145,-2962.58 L 126.545,-2963.06 L 126.882,-2963.59 L 127.149,-2964.16 L 127.343,-2964.76
 L 127.461,-2965.37 L 127.5,-2966 L 127.5,-3166 L 127.461,-3166.63 L 127.343,-3167.24 L 127.149,-3167.84
 L 126.882,-3168.41 L 126.545,-3168.94 L 126.145,-3169.42 L 125.687,-3169.85 L 125.179,-3170.22 L 124.629,-3170.52
 L 124.045,-3170.76 L 123.437,-3170.91 L 122.814,-3170.99 L -122.814,-3170.99 L -123.437,-3170.91 L -124.045,-3170.76
 L -124.629,-3170.52 L -125.179,-3170.22 L -125.687,-3169.85 L -126,-3169.56 L -126,-3170.99 L -129,-3170.99
 L -129,-2961.01 L -126,-2961.01 z
M -122.251,-2962.51 L -122.75,-2962.57 L -123.236,-2962.7 L -123.703,-2962.88 L -124.143,-2963.12 L -124.55,-2963.42
 L -124.916,-2963.76 L -125.236,-2964.15 L -125.505,-2964.57 L -125.719,-2965.03 L -125.874,-2965.51 L -125.968,-2966
 L -126,-2966.5 L -126,-3165.5 L -125.968,-3166 L -125.874,-3166.49 L -125.719,-3166.97 L -125.505,-3167.43
 L -125.236,-3167.85 L -124.916,-3168.24 L -124.55,-3168.58 L -124.143,-3168.88 L -123.703,-3169.12 L -123.236,-3169.3
 L -122.75,-3169.43 L -122.251,-3169.49 L 122.251,-3169.49 L 122.75,-3169.43 L 123.236,-3169.3 L 123.703,-3169.12
 L 124.143,-3168.88 L 124.55,-3168.58 L 124.916,-3168.24 L 125.236,-3167.85 L 125.505,-3167.43 L 125.719,-3166.97
 L 125.874,-3166.49 L 125.968,-3166 L 126,-3165.5 L 126,-2966.5 L 125.968,-2966 L 125.874,-2965.51
 L 125.719,-2965.03 L 125.505,-2964.57 L 125.236,-2964.15 L 124.916,-2963.76 L 124.55,-2963.42 L 124.143,-2963.12
 L 123.703,-2962.88 L 123.236,-2962.7 L 122.75,-2962.57 L 122.251,-2962.51 z
M -126,-2743.44 L -125.687,-2743.15 L -125.179,-2742.78 L -124.629,-2742.48 L -124.045,-2742.24 L -123.437,-2742.09
 L -122.814,-2742.01 L 122.814,-2742.01 L 123.437,-2742.09 L 124.045,-2742.24 L 124.629,-2742.48 L 125.179,-2742.78
 L 125.687,-2743.15 L 126.145,-2743.58 L 126.545,-2744.06 L 126.882,-2744.59 L 127.149,-2745.16 L 127.343,-2745.76
 L 127.461,-2746.37 L 127.5,-2747 L 127.5,-2947 L 127.461,-2947.63 L 127.343,-2948.24 L 127.149,-2948.84
 L 126.882,-2949.41 L 126.545,-2949.94 L 126.145,-2950.42 L 125.687,-2950.85 L 125.179,-2951.22 L 124.629,-2951.52
 L 124.045,-2951.76 L 123.437,-2951.91 L 122.814,-2951.99 L -122.814,-2951.99 L -123.437,-2951.91 L -124.045,-2951.76
 L -124.629,-2951.52 L -125.179,-2951.22 L -125.687,-2950.85 L -126,-2950.56 L -126,-2951.99 L -129,-2951.99
 L -129,-2742.01 L -126,-2742.01 z
M -122.251,-2743.51 L -122.75,-2743.57 L -123.236,-2743.7 L -123.703,-2743.88 L -124.143,-2744.12 L -124.55,-2744.42
 L -124.916,-2744.76 L -125.236,-2745.15 L -125.505,-2745.57 L -125.719,-2746.03 L -125.874,-2746.51 L -125.968,-2747
 L -126,-2747.5 L -126,-2946.5 L -125.968,-2947 L -125.874,-2947.49 L -125.719,-2947.97 L -125.505,-2948.43
 L -125.236,-2948.85 L -124.916,-2949.24 L -124.55,-2949.58 L -124.143,-2949.88 L -123.703,-2950.12 L -123.236,-2950.3
 L -122.75,-2950.43 L -122.251,-2950.49 L 122.251,-2950.49 L 122.75,-2950.43 L 123.236,-2950.3 L 123.703,-2950.12
 L 124.143,-2949.88 L 124.55,-2949.58 L 124.916,-2949.24 L 125.236,-2948.85 L 125.505,-2948.43 L 125.719,-2947.97
 L 125.874,-2947.49 L 125.968,-2947 L 126,-2946.5 L 126,-2747.5 L 125.968,-2747 L 125.874,-2746.51
 L 125.719,-2746.03 L 125.505,-2745.57 L 125.236,-2745.15 L 124.916,-2744.76 L 124.55,-2744.42 L 124.143,-2744.12
 L 123.703,-2743.88 L 123.236,-2743.7 L 122.75,-2743.57 L 122.251,-2743.51 z
M -126,-2524.44 L -125.687,-2524.15 L -125.179,-2523.78 L -124.629,-2523.48 L -124.045,-2523.24 L -123.437,-2523.09
 L -122.814,-2523.01 L 122.814,-2523.01 L 123.437,-2523.09 L 124.045,-2523.24 L 124.629,-2523.48 L 125.179,-2523.78
 L 125.687,-2524.15 L 126.145,-2524.58 L 126.545,-2525.06 L 126.882,-2525.59 L 127.149,-2526.16 L 127.343,-2526.76
 L 127.461,-2527.37 L 127.5,-2528 L 127.5,-2728 L 127.461,-2728.63 L 127.343,-2729.24 L 127.149,-2729.84
 L 126.882,-2730.41 L 126.545,-2730.94 L 126.145,-2731.42 L 125.687,-2731.85 L 125.179,-2732.22 L 124.629,-2732.52
 L 124.045,-2732.76 L 123.437,-2732.91 L 122.814,-2732.99 L -122.814,-2732.99 L -123.437,-2732.91 L -124.045,-2732.76
 L -124.629,-2732.52 L -125.179,-2732.22 L -125.687,-2731.85 L -126,-2731.56 L -126,-2732.99 L -129,-2732.99
 L -129,-2523.01 L -126,-2523.01 z
M -122.251,-2524.51 L -122.75,-2524.57 L -123.236,-2524.7 L -123.703,-2524.88 L -124.143,-2525.12 L -124.55,-2525.42
 L -124.916,-2525.76 L -125.236,-2526.15 L -125.505,-2526.57 L -125.719,-2527.03 L -125.874,-2527.51 L -125.968,-2528
 L -126,-2528.5 L -126,-2727.5 L -125.968,-2728 L -125.874,-2728.49 L -125.719,-2728.97 L -125.505,-2729.43
 L -125.236,-2729.85 L -124.916,-2730.24 L -124.55,-2730.58 L -124.143,-2730.88 L -123.703,-2731.12 L -123.236,-2731.3
 L -122.75,-2731.43 L -122.251,-2731.49 L 122.251,-2731.49 L 122.75,-2731.43 L 123.236,-2731.3 L 123.703,-2731.12
 L 124.143,-2730.88 L 124.55,-2730.58 L 124.916,-2730.24 L 125.236,-2729.85 L 125.505,-2729.43 L 125.719,-2728.97
 L 125.874,-2728.49 L 125.968,-2728 L 126,-2727.5 L 126,-2528.5 L 125.968,-2528 L 125.874,-2527.51
 L 125.719,-2527.03 L 125.505,-2526.57 L 125.236,-2526.15 L 124.916,-2525.76 L 124.55,-2525.42 L 124.143,-2525.12
 L 123.703,-2524.88 L 123.236,-2524.7 L 122.75,-2524.57 L 122.251,-2524.51 z
M 123.437,-2304.09 L 124.045,-2304.24 L 124.629,-2304.48 L 125.179,-2304.78 L 125.687,-2305.15 L 126.145,-2305.58
 L 126.545,-2306.06 L 126.882,-2306.59 L 127.149,-2307.16 L 127.343,-2307.76 L 127.461,-2308.37 L 127.5,-2309
 L 127.5,-2509 L 127.461,-2509.63 L 127.343,-2510.24 L 127.149,-2510.84 L 126.882,-2511.41 L 126.545,-2511.94
 L 126.145,-2512.42 L 125.687,-2512.85 L 125.179,-2513.22 L 124.629,-2513.52 L 124.045,-2513.76 L 123.437,-2513.91
 L 122.814,-2513.99 L -122.814,-2513.99 L -123.437,-2513.91 L -124.045,-2513.76 L -124.629,-2513.52 L -125.179,-2513.22
 L -125.687,-2512.85 L -126,-2512.56 L -126,-2513.98 L -129,-2513.98 L -129,-2304.02 L -126,-2304.02
 L -126,-2305.44 L -125.687,-2305.15 L -125.179,-2304.78 L -124.629,-2304.48 L -124.045,-2304.24 L -123.437,-2304.09
 L -122.814,-2304.01 L 122.814,-2304.01 z
M -122.195,-2306.39 L -122.583,-2306.44 L -122.962,-2306.54 L -123.325,-2306.68 L -123.668,-2306.87 L -123.984,-2307.1
 L -124.269,-2307.37 L -124.518,-2307.67 L -124.728,-2308 L -124.894,-2308.35 L -125.015,-2308.73 L -125.088,-2309.11
 L -125.113,-2309.5 L -125.113,-2508.5 L -125.088,-2508.89 L -125.015,-2509.27 L -124.894,-2509.65 L -124.728,-2510
 L -124.518,-2510.33 L -124.269,-2510.63 L -123.984,-2510.9 L -123.668,-2511.13 L -123.325,-2511.32 L -122.962,-2511.46
 L -122.583,-2511.56 L -122.195,-2511.61 L 122.195,-2511.61 L 122.583,-2511.56 L 122.962,-2511.46 L 123.325,-2511.32
 L 123.668,-2511.13 L 123.984,-2510.9 L 124.269,-2510.63 L 124.518,-2510.33 L 124.728,-2510 L 124.894,-2509.65
 L 125.015,-2509.27 L 125.088,-2508.89 L 125.113,-2508.5 L 125.113,-2309.5 L 125.088,-2309.11 L 125.015,-2308.73
 L 124.894,-2308.35 L 124.728,-2308 L 124.518,-2307.67 L 124.269,-2307.37 L 123.984,-2307.1 L 123.668,-2306.87
 L 123.325,-2306.68 L 122.962,-2306.54 L 122.583,-2306.44 L 122.195,-2306.39 z
M 123.437,-2085.09 L 124.045,-2085.24 L 124.629,-2085.48 L 125.179,-2085.78 L 125.687,-2086.15 L 126.145,-2086.58
 L 126.545,-2087.06 L 126.882,-2087.59 L 127.149,-2088.16 L 127.343,-2088.76 L 127.461,-2089.37 L 127.5,-2090
 L 127.5,-2290 L 127.461,-2290.63 L 127.343,-2291.24 L 127.149,-2291.84 L 126.882,-2292.41 L 126.545,-2292.94
 L 126.145,-2293.42 L 125.687,-2293.85 L 125.179,-2294.22 L 124.629,-2294.52 L 124.045,-2294.76 L 123.437,-2294.91
 L 122.814,-2294.99 L -122.814,-2294.99 L -123.437,-2294.91 L -124.045,-2294.76 L -124.629,-2294.52 L -125.179,-2294.22
 L -125.687,-2293.85 L -126,-2293.56 L -126,-2293.65 L -129,-2293.65 L -129,-2086.35 L -126,-2086.35
 L -126,-2086.44 L -125.687,-2086.15 L -125.179,-2085.78 L -124.629,-2085.48 L -124.045,-2085.24 L -123.437,-2085.09
 L -122.814,-2085.01 L 122.814,-2085.01 z
M -120.134,-2285.37 L -120.4,-2285.4 L -120.66,-2285.47 L -120.909,-2285.57 L -121.144,-2285.7 L -121.361,-2285.85
 L -121.557,-2286.04 L -121.727,-2286.24 L -121.871,-2286.47 L -121.985,-2286.71 L -122.068,-2286.97 L -122.118,-2287.23
 L -122.135,-2287.5 L -122.118,-2287.77 L -122.068,-2288.03 L -121.985,-2288.29 L -121.871,-2288.53 L -121.727,-2288.76
 L -121.557,-2288.96 L -121.361,-2289.15 L -121.144,-2289.3 L -120.909,-2289.43 L -120.66,-2289.53 L -120.4,-2289.6
 L -120.134,-2289.63 L -119.866,-2289.63 L -119.6,-2289.6 L -119.34,-2289.53 L -119.091,-2289.43 L -118.856,-2289.3
 L -118.639,-2289.15 L -118.443,-2288.96 L -118.273,-2288.76 L -118.129,-2288.53 L -118.015,-2288.29 L -117.932,-2288.03
 L -117.882,-2287.77 L -117.865,-2287.5 L -117.882,-2287.23 L -117.932,-2286.97 L -118.015,-2286.71 L -118.129,-2286.47
 L -118.273,-2286.24 L -118.443,-2286.04 L -118.639,-2285.85 L -118.856,-2285.7 L -119.091,-2285.57 L -119.34,-2285.47
 L -119.6,-2285.4 L -119.866,-2285.37 z
M 119.866,-2285.37 L 119.6,-2285.4 L 119.34,-2285.47 L 119.091,-2285.57 L 118.856,-2285.7 L 118.639,-2285.85
 L 118.443,-2286.04 L 118.273,-2286.24 L 118.129,-2286.47 L 118.015,-2286.71 L 117.932,-2286.97 L 117.882,-2287.23
 L 117.865,-2287.5 L 117.882,-2287.77 L 117.932,-2288.03 L 118.015,-2288.29 L 118.129,-2288.53 L 118.273,-2288.76
 L 118.443,-2288.96 L 118.639,-2289.15 L 118.856,-2289.3 L 119.091,-2289.43 L 119.34,-2289.53 L 119.6,-2289.6
 L 119.866,-2289.63 L 120.134,-2289.63 L 120.4,-2289.6 L 120.66,-2289.53 L 120.909,-2289.43 L 121.144,-2289.3
 L 121.361,-2289.15 L 121.557,-2288.96 L 121.727,-2288.76 L 121.871,-2288.53 L 121.985,-2288.29 L 122.068,-2288.03
 L 122.118,-2287.77 L 122.135,-2287.5 L 122.118,-2287.23 L 122.068,-2286.97 L 121.985,-2286.71 L 121.871,-2286.47
 L 121.727,-2286.24 L 121.557,-2286.04 L 121.361,-2285.85 L 121.144,-2285.7 L 120.909,-2285.57 L 120.66,-2285.47
 L 120.4,-2285.4 L 120.134,-2285.37 z
M -120.134,-2090.37 L -120.4,-2090.4 L -120.66,-2090.47 L -120.909,-2090.57 L -121.144,-2090.7 L -121.361,-2090.85
 L -121.557,-2091.04 L -121.727,-2091.24 L -121.871,-2091.47 L -121.985,-2091.71 L -122.068,-2091.97 L -122.118,-2092.23
 L -122.135,-2092.5 L -122.118,-2092.77 L -122.068,-2093.03 L -121.985,-2093.29 L -121.871,-2093.53 L -121.727,-2093.76
 L -121.557,-2093.96 L -121.361,-2094.15 L -121.144,-2094.3 L -120.909,-2094.43 L -120.66,-2094.53 L -120.4,-2094.6
 L -120.134,-2094.63 L -119.866,-2094.63 L -119.6,-2094.6 L -119.34,-2094.53 L -119.091,-2094.43 L -118.856,-2094.3
 L -118.639,-2094.15 L -118.443,-2093.96 L -118.273,-2093.76 L -118.129,-2093.53 L -118.015,-2093.29 L -117.932,-2093.03
 L -117.882,-2092.77 L -117.865,-2092.5 L -117.882,-2092.23 L -117.932,-2091.97 L -118.015,-2091.71 L -118.129,-2091.47
 L -118.273,-2091.24 L -118.443,-2091.04 L -118.639,-2090.85 L -118.856,-2090.7 L -119.091,-2090.57 L -119.34,-2090.47
 L -119.6,-2090.4 L -119.866,-2090.37 z
M 119.866,-2090.37 L 119.6,-2090.4 L 119.34,-2090.47 L 119.091,-2090.57 L 118.856,-2090.7 L 118.639,-2090.85
 L 118.443,-2091.04 L 118.273,-2091.24 L 118.129,-2091.47 L 118.015,-2091.71 L 117.932,-2091.97 L 117.882,-2092.23
 L 117.865,-2092.5 L 117.882,-2092.77 L 117.932,-2093.03 L 118.015,-2093.29 L 118.129,-2093.53 L 118.273,-2093.76
 L 118.443,-2093.96 L 118.639,-2094.15 L 118.856,-2094.3 L 119.091,-2094.43 L 119.34,-2094.53 L 119.6,-2094.6
 L 119.866,-2094.63 L 120.134,-2094.63 L 120.4,-2094.6 L 120.66,-2094.53 L 120.909,-2094.43 L 121.144,-2094.3
 L 121.361,-2094.15 L 121.557,-2093.96 L 121.727,-2093.76 L 121.871,-2093.53 L 121.985,-2093.29 L 122.068,-2093.03
 L 122.118,-2092.77 L 122.135,-2092.5 L 122.118,-2092.23 L 122.068,-2091.97 L 121.985,-2091.71 L 121.871,-2091.47
 L 121.727,-2091.24 L 121.557,-2091.04 L 121.361,-2090.85 L 121.144,-2090.7 L 120.909,-2090.57 L 120.66,-2090.47
 L 120.4,-2090.4 L 120.134,-2090.37 z
" stroke="black" fill="lightgray" stroke-width="0.5"/>
</svg>
