<?xml version="1.0" standalone="no"?>
<!DOCTYPE svg PUBLIC "-//W3C//DTD SVG 1.1//EN" "http://www.w3.org/Graphics/SVG/1.1/DTD/svg11.dtd">
<svg width="300mm" height="340mm" viewBox="-150 -605 300 340" xmlns="http://www.w3.org/2000/svg" version="1.1">
<title>OpenSCAD Model</title>
<path d="
M 145.937,-439.589 L 146.545,-439.745 L 147.129,-439.976 L 147.679,-440.278 L 148.187,-440.647 L 148.645,-441.077
 L 149.045,-441.561 L 149.382,-442.091 L 149.649,-442.659 L 149.843,-443.257 L 149.961,-443.873 L 150,-444.5
 L 150,-599.5 L 149.961,-600.127 L 149.843,-600.743 L 149.649,-601.341 L 149.382,-601.909 L 149.045,-602.439
 L 148.645,-602.923 L 148.187,-603.353 L 147.679,-603.722 L 147.129,-604.024 L 146.545,-604.255 L 145.937,-604.411
 L 145.314,-604.49 L -145.314,-604.49 L -145.937,-604.411 L -146.545,-604.255 L -147.129,-604.024 L -147.679,-603.722
 L -148.187,-603.353 L -148.645,-602.923 L -149.045,-602.439 L -149.382,-601.909 L -149.649,-601.341 L -149.843,-600.743
 L -149.961,-600.127 L -150,-599.5 L -150,-444.5 L -149.961,-443.873 L -149.843,-443.257 L -149.649,-442.659
 L -149.382,-442.091 L -149.045,-441.561 L -148.645,-441.077 L -148.187,-440.647 L -147.679,-440.278 L -147.129,-439.976
 L -146.545,-439.745 L -145.937,-439.589 L -145.314,-439.51 L 145.314,-439.51 z
M -145.037,-440.181 L -145.608,-440.253 L -146.165,-440.396 L -146.699,-440.607 L -147.203,-440.884 L -147.668,-441.222
 L -148.088,-441.616 L -148.454,-442.059 L -148.762,-442.544 L -149.007,-443.065 L -149.185,-443.611 L -149.292,-444.176
 L -149.328,-444.75 L -149.328,-599.25 L -149.292,-599.824 L -149.185,-600.389 L -149.007,-600.935 L -148.762,-601.456
 L -148.454,-601.941 L -148.088,-602.384 L -147.668,-602.778 L -147.203,-603.116 L -146.699,-603.393 L -146.165,-603.604
 L -145.608,-603.747 L -145.037,-603.819 L 145.037,-603.819 L 145.608,-603.747 L 146.165,-603.604 L 146.699,-603.393
 L 147.203,-603.116 L 147.668,-602.778 L 148.088,-602.384 L 148.454,-601.941 L 148.762,-601.456 L 149.007,-600.935
 L 149.185,-600.389 L 149.292,-599.824 L 149.328,-599.25 L 149.328,-444.75 L 149.292,-444.176 L 149.185,-443.611
 L 149.007,-443.065 L 148.762,-442.544 L 148.454,-442.059 L 148.088,-441.616 L 147.668,-441.222 L 147.203,-440.884
 L 146.699,-440.607 L 146.165,-440.396 L 145.608,-440.253 L 145.037,-440.181 z
M 145.937,-265.589 L 146.545,-265.745 L 147.129,-265.976 L 147.679,-266.278 L 148.187,-266.647 L 148.645,-267.077
 L 149.045,-267.561 L 149.382,-268.091 L 149.649,-268.659 L 149.843,-269.257 L 149.961,-269.873 L 150,-270.5
 L 150,-425.5 L 149.961,-426.127 L 149.843,-426.743 L 149.649,-427.341 L 149.382,-427.909 L 149.045,-428.439
 L 148.645,-428.923 L 148.187,-429.353 L 147.679,-429.722 L 147.129,-430.024 L 146.545,-430.255 L 145.937,-430.411
 L 145.314,-430.49 L -145.314,-430.49 L -145.937,-430.411 L -146.545,-430.255 L -147.129,-430.024 L -147.679,-429.722
 L -148.187,-429.353 L -148.645,-428.923 L -149.045,-428.439 L -149.382,-427.909 L -149.649,-427.341 L -149.843,-426.743
 L -149.961,-426.127 L -150,-425.5 L -150,-270.5 L -149.961,-269.873 L -149.843,-269.257 L -149.649,-268.659
 L -149.382,-268.091 L -149.045,-267.561 L -148.645,-267.077 L -148.187,-266.647 L -147.679,-266.278 L -147.129,-265.976
 L -146.545,-265.745 L -145.937,-265.589 L -145.314,-265.51 L 145.314,-265.51 z
M -144.882,-268.645 L -145.145,-268.678 L -145.402,-268.744 L -145.648,-268.841 L -145.88,-268.969 L -146.095,-269.124
 L -146.288,-269.306 L -146.457,-269.51 L -146.599,-269.734 L -146.711,-269.973 L -146.793,-270.225 L -146.843,-270.486
 L -146.86,-270.75 L -146.86,-425.25 L -146.843,-425.514 L -146.793,-425.775 L -146.711,-426.027 L -146.599,-426.266
 L -146.457,-426.49 L -146.288,-426.694 L -146.095,-426.876 L -145.88,-427.031 L -145.648,-427.159 L -145.402,-427.256
 L -145.145,-427.322 L -144.882,-427.355 L 144.882,-427.355 L 145.145,-427.322 L 145.402,-427.256 L 145.648,-427.159
 L 145.88,-427.031 L 146.095,-426.876 L 146.288,-426.694 L 146.457,-426.49 L 146.599,-426.266 L 146.711,-426.027
 L 146.793,-425.775 L 146.843,-425.514 L 146.86,-425.25 L 146.86,-270.75 L 146.843,-270.486 L 146.793,-270.225
 L 146.711,-269.973 L 146.599,-269.734 L 146.457,-269.51 L 146.288,-269.306 L 146.095,-269.124 L 145.88,-268.969
 L 145.648,-268.841 L 145.402,-268.744 L 145.145,-268.678 L 144.882,-268.645 z
" stroke="black" fill="lightgray" stroke-width="0.5"/>
</svg>
