  0
SECTION
  2
BLOCKS
  0
ENDSEC
  0
SECTION
  2
ENTITIES
  0
LINE
  8
0
 10
115.937
 20
6246.09
 11
116.545
 21
6246.24
  0
LINE
  8
0
 10
116.545
 20
6246.24
 11
117.129
 21
6246.48
  0
LINE
  8
0
 10
117.129
 20
6246.48
 11
117.679
 21
6246.78
  0
LINE
  8
0
 10
117.679
 20
6246.78
 11
118.187
 21
6247.15
  0
LINE
  8
0
 10
118.187
 20
6247.15
 11
118.645
 21
6247.58
  0
LINE
  8
0
 10
118.645
 20
6247.58
 11
119.045
 21
6248.06
  0
LINE
  8
0
 10
119.045
 20
6248.06
 11
119.382
 21
6248.59
  0
LINE
  8
0
 10
119.382
 20
6248.59
 11
119.649
 21
6249.16
  0
LINE
  8
0
 10
119.649
 20
6249.16
 11
119.843
 21
6249.76
  0
LINE
  8
0
 10
119.843
 20
6249.76
 11
119.961
 21
6250.37
  0
LINE
  8
0
 10
119.961
 20
6250.37
 11
120
 21
6251
  0
LINE
  8
0
 10
120
 20
6251
 11
120
 21
6451
  0
LINE
  8
0
 10
120
 20
6451
 11
119.961
 21
6451.63
  0
LINE
  8
0
 10
119.961
 20
6451.63
 11
119.843
 21
6452.24
  0
LINE
  8
0
 10
119.843
 20
6452.24
 11
119.649
 21
6452.84
  0
LINE
  8
0
 10
119.649
 20
6452.84
 11
119.382
 21
6453.41
  0
LINE
  8
0
 10
119.382
 20
6453.41
 11
119.045
 21
6453.94
  0
LINE
  8
0
 10
119.045
 20
6453.94
 11
118.645
 21
6454.42
  0
LINE
  8
0
 10
118.645
 20
6454.42
 11
118.187
 21
6454.85
  0
LINE
  8
0
 10
118.187
 20
6454.85
 11
117.679
 21
6455.22
  0
LINE
  8
0
 10
117.679
 20
6455.22
 11
117.129
 21
6455.52
  0
LINE
  8
0
 10
117.129
 20
6455.52
 11
116.545
 21
6455.76
  0
LINE
  8
0
 10
116.545
 20
6455.76
 11
115.937
 21
6455.91
  0
LINE
  8
0
 10
115.937
 20
6455.91
 11
115.314
 21
6455.99
  0
LINE
  8
0
 10
115.314
 20
6455.99
 11
-115.314
 21
6455.99
  0
LINE
  8
0
 10
-115.314
 20
6455.99
 11
-115.937
 21
6455.91
  0
LINE
  8
0
 10
-115.937
 20
6455.91
 11
-116.545
 21
6455.76
  0
LINE
  8
0
 10
-116.545
 20
6455.76
 11
-117.129
 21
6455.52
  0
LINE
  8
0
 10
-117.129
 20
6455.52
 11
-117.679
 21
6455.22
  0
LINE
  8
0
 10
-117.679
 20
6455.22
 11
-118.187
 21
6454.85
  0
LINE
  8
0
 10
-118.187
 20
6454.85
 11
-118.645
 21
6454.42
  0
LINE
  8
0
 10
-118.645
 20
6454.42
 11
-119.045
 21
6453.94
  0
LINE
  8
0
 10
-119.045
 20
6453.94
 11
-119.382
 21
6453.41
  0
LINE
  8
0
 10
-119.382
 20
6453.41
 11
-119.649
 21
6452.84
  0
LINE
  8
0
 10
-119.649
 20
6452.84
 11
-119.843
 21
6452.24
  0
LINE
  8
0
 10
-119.843
 20
6452.24
 11
-119.961
 21
6451.63
  0
LINE
  8
0
 10
-119.961
 20
6451.63
 11
-120
 21
6451
  0
LINE
  8
0
 10
-120
 20
6451
 11
-120
 21
6251
  0
LINE
  8
0
 10
-120
 20
6251
 11
-119.961
 21
6250.37
  0
LINE
  8
0
 10
-119.961
 20
6250.37
 11
-119.843
 21
6249.76
  0
LINE
  8
0
 10
-119.843
 20
6249.76
 11
-119.649
 21
6249.16
  0
LINE
  8
0
 10
-119.649
 20
6249.16
 11
-119.382
 21
6248.59
  0
LINE
  8
0
 10
-119.382
 20
6248.59
 11
-119.045
 21
6248.06
  0
LINE
  8
0
 10
-119.045
 20
6248.06
 11
-118.645
 21
6247.58
  0
LINE
  8
0
 10
-118.645
 20
6247.58
 11
-118.187
 21
6247.15
  0
LINE
  8
0
 10
-118.187
 20
6247.15
 11
-117.679
 21
6246.78
  0
LINE
  8
0
 10
-117.679
 20
6246.78
 11
-117.129
 21
6246.48
  0
LINE
  8
0
 10
-117.129
 20
6246.48
 11
-116.545
 21
6246.24
  0
LINE
  8
0
 10
-116.545
 20
6246.24
 11
-115.937
 21
6246.09
  0
LINE
  8
0
 10
-115.937
 20
6246.09
 11
-115.314
 21
6246.01
  0
LINE
  8
0
 10
-115.314
 20
6246.01
 11
115.314
 21
6246.01
  0
LINE
  8
0
 10
115.314
 20
6246.01
 11
115.937
 21
6246.09
  0
LINE
  8
0
 10
-114.751
 20
6247.51
 11
-115.25
 21
6247.57
  0
LINE
  8
0
 10
-115.25
 20
6247.57
 11
-115.736
 21
6247.7
  0
LINE
  8
0
 10
-115.736
 20
6247.7
 11
-116.203
 21
6247.88
  0
LINE
  8
0
 10
-116.203
 20
6247.88
 11
-116.643
 21
6248.12
  0
LINE
  8
0
 10
-116.643
 20
6248.12
 11
-117.05
 21
6248.42
  0
LINE
  8
0
 10
-117.05
 20
6248.42
 11
-117.416
 21
6248.76
  0
LINE
  8
0
 10
-117.416
 20
6248.76
 11
-117.736
 21
6249.15
  0
LINE
  8
0
 10
-117.736
 20
6249.15
 11
-118.005
 21
6249.57
  0
LINE
  8
0
 10
-118.005
 20
6249.57
 11
-118.219
 21
6250.03
  0
LINE
  8
0
 10
-118.219
 20
6250.03
 11
-118.374
 21
6250.51
  0
LINE
  8
0
 10
-118.374
 20
6250.51
 11
-118.468
 21
6251
  0
LINE
  8
0
 10
-118.468
 20
6251
 11
-118.5
 21
6251.5
  0
LINE
  8
0
 10
-118.5
 20
6251.5
 11
-118.5
 21
6450.5
  0
LINE
  8
0
 10
-118.5
 20
6450.5
 11
-118.468
 21
6451
  0
LINE
  8
0
 10
-118.468
 20
6451
 11
-118.374
 21
6451.49
  0
LINE
  8
0
 10
-118.374
 20
6451.49
 11
-118.219
 21
6451.97
  0
LINE
  8
0
 10
-118.219
 20
6451.97
 11
-118.005
 21
6452.43
  0
LINE
  8
0
 10
-118.005
 20
6452.43
 11
-117.736
 21
6452.85
  0
LINE
  8
0
 10
-117.736
 20
6452.85
 11
-117.416
 21
6453.24
  0
LINE
  8
0
 10
-117.416
 20
6453.24
 11
-117.05
 21
6453.58
  0
LINE
  8
0
 10
-117.05
 20
6453.58
 11
-116.643
 21
6453.88
  0
LINE
  8
0
 10
-116.643
 20
6453.88
 11
-116.203
 21
6454.12
  0
LINE
  8
0
 10
-116.203
 20
6454.12
 11
-115.736
 21
6454.3
  0
LINE
  8
0
 10
-115.736
 20
6454.3
 11
-115.25
 21
6454.43
  0
LINE
  8
0
 10
-115.25
 20
6454.43
 11
-114.751
 21
6454.49
  0
LINE
  8
0
 10
-114.751
 20
6454.49
 11
114.751
 21
6454.49
  0
LINE
  8
0
 10
114.751
 20
6454.49
 11
115.25
 21
6454.43
  0
LINE
  8
0
 10
115.25
 20
6454.43
 11
115.736
 21
6454.3
  0
LINE
  8
0
 10
115.736
 20
6454.3
 11
116.203
 21
6454.12
  0
LINE
  8
0
 10
116.203
 20
6454.12
 11
116.643
 21
6453.88
  0
LINE
  8
0
 10
116.643
 20
6453.88
 11
117.05
 21
6453.58
  0
LINE
  8
0
 10
117.05
 20
6453.58
 11
117.416
 21
6453.24
  0
LINE
  8
0
 10
117.416
 20
6453.24
 11
117.736
 21
6452.85
  0
LINE
  8
0
 10
117.736
 20
6452.85
 11
118.005
 21
6452.43
  0
LINE
  8
0
 10
118.005
 20
6452.43
 11
118.219
 21
6451.97
  0
LINE
  8
0
 10
118.219
 20
6451.97
 11
118.374
 21
6451.49
  0
LINE
  8
0
 10
118.374
 20
6451.49
 11
118.468
 21
6451
  0
LINE
  8
0
 10
118.468
 20
6451
 11
118.5
 21
6450.5
  0
LINE
  8
0
 10
118.5
 20
6450.5
 11
118.5
 21
6251.5
  0
LINE
  8
0
 10
118.5
 20
6251.5
 11
118.468
 21
6251
  0
LINE
  8
0
 10
118.468
 20
6251
 11
118.374
 21
6250.51
  0
LINE
  8
0
 10
118.374
 20
6250.51
 11
118.219
 21
6250.03
  0
LINE
  8
0
 10
118.219
 20
6250.03
 11
118.005
 21
6249.57
  0
LINE
  8
0
 10
118.005
 20
6249.57
 11
117.736
 21
6249.15
  0
LINE
  8
0
 10
117.736
 20
6249.15
 11
117.416
 21
6248.76
  0
LINE
  8
0
 10
117.416
 20
6248.76
 11
117.05
 21
6248.42
  0
LINE
  8
0
 10
117.05
 20
6248.42
 11
116.643
 21
6248.12
  0
LINE
  8
0
 10
116.643
 20
6248.12
 11
116.203
 21
6247.88
  0
LINE
  8
0
 10
116.203
 20
6247.88
 11
115.736
 21
6247.7
  0
LINE
  8
0
 10
115.736
 20
6247.7
 11
115.25
 21
6247.57
  0
LINE
  8
0
 10
115.25
 20
6247.57
 11
114.751
 21
6247.51
  0
LINE
  8
0
 10
114.751
 20
6247.51
 11
-114.751
 21
6247.51
  0
LINE
  8
0
 10
115.937
 20
6027.09
 11
116.545
 21
6027.24
  0
LINE
  8
0
 10
116.545
 20
6027.24
 11
117.129
 21
6027.48
  0
LINE
  8
0
 10
117.129
 20
6027.48
 11
117.679
 21
6027.78
  0
LINE
  8
0
 10
117.679
 20
6027.78
 11
118.187
 21
6028.15
  0
LINE
  8
0
 10
118.187
 20
6028.15
 11
118.645
 21
6028.58
  0
LINE
  8
0
 10
118.645
 20
6028.58
 11
119.045
 21
6029.06
  0
LINE
  8
0
 10
119.045
 20
6029.06
 11
119.382
 21
6029.59
  0
LINE
  8
0
 10
119.382
 20
6029.59
 11
119.649
 21
6030.16
  0
LINE
  8
0
 10
119.649
 20
6030.16
 11
119.843
 21
6030.76
  0
LINE
  8
0
 10
119.843
 20
6030.76
 11
119.961
 21
6031.37
  0
LINE
  8
0
 10
119.961
 20
6031.37
 11
120
 21
6032
  0
LINE
  8
0
 10
120
 20
6032
 11
120
 21
6232
  0
LINE
  8
0
 10
120
 20
6232
 11
119.961
 21
6232.63
  0
LINE
  8
0
 10
119.961
 20
6232.63
 11
119.843
 21
6233.24
  0
LINE
  8
0
 10
119.843
 20
6233.24
 11
119.649
 21
6233.84
  0
LINE
  8
0
 10
119.649
 20
6233.84
 11
119.382
 21
6234.41
  0
LINE
  8
0
 10
119.382
 20
6234.41
 11
119.045
 21
6234.94
  0
LINE
  8
0
 10
119.045
 20
6234.94
 11
118.645
 21
6235.42
  0
LINE
  8
0
 10
118.645
 20
6235.42
 11
118.187
 21
6235.85
  0
LINE
  8
0
 10
118.187
 20
6235.85
 11
117.679
 21
6236.22
  0
LINE
  8
0
 10
117.679
 20
6236.22
 11
117.129
 21
6236.52
  0
LINE
  8
0
 10
117.129
 20
6236.52
 11
116.545
 21
6236.76
  0
LINE
  8
0
 10
116.545
 20
6236.76
 11
115.937
 21
6236.91
  0
LINE
  8
0
 10
115.937
 20
6236.91
 11
115.314
 21
6236.99
  0
LINE
  8
0
 10
115.314
 20
6236.99
 11
-115.314
 21
6236.99
  0
LINE
  8
0
 10
-115.314
 20
6236.99
 11
-115.937
 21
6236.91
  0
LINE
  8
0
 10
-115.937
 20
6236.91
 11
-116.545
 21
6236.76
  0
LINE
  8
0
 10
-116.545
 20
6236.76
 11
-117.129
 21
6236.52
  0
LINE
  8
0
 10
-117.129
 20
6236.52
 11
-117.679
 21
6236.22
  0
LINE
  8
0
 10
-117.679
 20
6236.22
 11
-118.187
 21
6235.85
  0
LINE
  8
0
 10
-118.187
 20
6235.85
 11
-118.645
 21
6235.42
  0
LINE
  8
0
 10
-118.645
 20
6235.42
 11
-119.045
 21
6234.94
  0
LINE
  8
0
 10
-119.045
 20
6234.94
 11
-119.382
 21
6234.41
  0
LINE
  8
0
 10
-119.382
 20
6234.41
 11
-119.649
 21
6233.84
  0
LINE
  8
0
 10
-119.649
 20
6233.84
 11
-119.843
 21
6233.24
  0
LINE
  8
0
 10
-119.843
 20
6233.24
 11
-119.961
 21
6232.63
  0
LINE
  8
0
 10
-119.961
 20
6232.63
 11
-120
 21
6232
  0
LINE
  8
0
 10
-120
 20
6232
 11
-120
 21
6032
  0
LINE
  8
0
 10
-120
 20
6032
 11
-119.961
 21
6031.37
  0
LINE
  8
0
 10
-119.961
 20
6031.37
 11
-119.843
 21
6030.76
  0
LINE
  8
0
 10
-119.843
 20
6030.76
 11
-119.649
 21
6030.16
  0
LINE
  8
0
 10
-119.649
 20
6030.16
 11
-119.382
 21
6029.59
  0
LINE
  8
0
 10
-119.382
 20
6029.59
 11
-119.045
 21
6029.06
  0
LINE
  8
0
 10
-119.045
 20
6029.06
 11
-118.645
 21
6028.58
  0
LINE
  8
0
 10
-118.645
 20
6028.58
 11
-118.187
 21
6028.15
  0
LINE
  8
0
 10
-118.187
 20
6028.15
 11
-117.679
 21
6027.78
  0
LINE
  8
0
 10
-117.679
 20
6027.78
 11
-117.129
 21
6027.48
  0
LINE
  8
0
 10
-117.129
 20
6027.48
 11
-116.545
 21
6027.24
  0
LINE
  8
0
 10
-116.545
 20
6027.24
 11
-115.937
 21
6027.09
  0
LINE
  8
0
 10
-115.937
 20
6027.09
 11
-115.314
 21
6027.01
  0
LINE
  8
0
 10
-115.314
 20
6027.01
 11
115.314
 21
6027.01
  0
LINE
  8
0
 10
115.314
 20
6027.01
 11
115.937
 21
6027.09
  0
LINE
  8
0
 10
-114.751
 20
6028.51
 11
-115.25
 21
6028.57
  0
LINE
  8
0
 10
-115.25
 20
6028.57
 11
-115.736
 21
6028.7
  0
LINE
  8
0
 10
-115.736
 20
6028.7
 11
-116.203
 21
6028.88
  0
LINE
  8
0
 10
-116.203
 20
6028.88
 11
-116.643
 21
6029.12
  0
LINE
  8
0
 10
-116.643
 20
6029.12
 11
-117.05
 21
6029.42
  0
LINE
  8
0
 10
-117.05
 20
6029.42
 11
-117.416
 21
6029.76
  0
LINE
  8
0
 10
-117.416
 20
6029.76
 11
-117.736
 21
6030.15
  0
LINE
  8
0
 10
-117.736
 20
6030.15
 11
-118.005
 21
6030.57
  0
LINE
  8
0
 10
-118.005
 20
6030.57
 11
-118.219
 21
6031.03
  0
LINE
  8
0
 10
-118.219
 20
6031.03
 11
-118.374
 21
6031.51
  0
LINE
  8
0
 10
-118.374
 20
6031.51
 11
-118.468
 21
6032
  0
LINE
  8
0
 10
-118.468
 20
6032
 11
-118.5
 21
6032.5
  0
LINE
  8
0
 10
-118.5
 20
6032.5
 11
-118.5
 21
6231.5
  0
LINE
  8
0
 10
-118.5
 20
6231.5
 11
-118.468
 21
6232
  0
LINE
  8
0
 10
-118.468
 20
6232
 11
-118.374
 21
6232.49
  0
LINE
  8
0
 10
-118.374
 20
6232.49
 11
-118.219
 21
6232.97
  0
LINE
  8
0
 10
-118.219
 20
6232.97
 11
-118.005
 21
6233.43
  0
LINE
  8
0
 10
-118.005
 20
6233.43
 11
-117.736
 21
6233.85
  0
LINE
  8
0
 10
-117.736
 20
6233.85
 11
-117.416
 21
6234.24
  0
LINE
  8
0
 10
-117.416
 20
6234.24
 11
-117.05
 21
6234.58
  0
LINE
  8
0
 10
-117.05
 20
6234.58
 11
-116.643
 21
6234.88
  0
LINE
  8
0
 10
-116.643
 20
6234.88
 11
-116.203
 21
6235.12
  0
LINE
  8
0
 10
-116.203
 20
6235.12
 11
-115.736
 21
6235.3
  0
LINE
  8
0
 10
-115.736
 20
6235.3
 11
-115.25
 21
6235.43
  0
LINE
  8
0
 10
-115.25
 20
6235.43
 11
-114.751
 21
6235.49
  0
LINE
  8
0
 10
-114.751
 20
6235.49
 11
114.751
 21
6235.49
  0
LINE
  8
0
 10
114.751
 20
6235.49
 11
115.25
 21
6235.43
  0
LINE
  8
0
 10
115.25
 20
6235.43
 11
115.736
 21
6235.3
  0
LINE
  8
0
 10
115.736
 20
6235.3
 11
116.203
 21
6235.12
  0
LINE
  8
0
 10
116.203
 20
6235.12
 11
116.643
 21
6234.88
  0
LINE
  8
0
 10
116.643
 20
6234.88
 11
117.05
 21
6234.58
  0
LINE
  8
0
 10
117.05
 20
6234.58
 11
117.416
 21
6234.24
  0
LINE
  8
0
 10
117.416
 20
6234.24
 11
117.736
 21
6233.85
  0
LINE
  8
0
 10
117.736
 20
6233.85
 11
118.005
 21
6233.43
  0
LINE
  8
0
 10
118.005
 20
6233.43
 11
118.219
 21
6232.97
  0
LINE
  8
0
 10
118.219
 20
6232.97
 11
118.374
 21
6232.49
  0
LINE
  8
0
 10
118.374
 20
6232.49
 11
118.468
 21
6232
  0
LINE
  8
0
 10
118.468
 20
6232
 11
118.5
 21
6231.5
  0
LINE
  8
0
 10
118.5
 20
6231.5
 11
118.5
 21
6032.5
  0
LINE
  8
0
 10
118.5
 20
6032.5
 11
118.468
 21
6032
  0
LINE
  8
0
 10
118.468
 20
6032
 11
118.374
 21
6031.51
  0
LINE
  8
0
 10
118.374
 20
6031.51
 11
118.219
 21
6031.03
  0
LINE
  8
0
 10
118.219
 20
6031.03
 11
118.005
 21
6030.57
  0
LINE
  8
0
 10
118.005
 20
6030.57
 11
117.736
 21
6030.15
  0
LINE
  8
0
 10
117.736
 20
6030.15
 11
117.416
 21
6029.76
  0
LINE
  8
0
 10
117.416
 20
6029.76
 11
117.05
 21
6029.42
  0
LINE
  8
0
 10
117.05
 20
6029.42
 11
116.643
 21
6029.12
  0
LINE
  8
0
 10
116.643
 20
6029.12
 11
116.203
 21
6028.88
  0
LINE
  8
0
 10
116.203
 20
6028.88
 11
115.736
 21
6028.7
  0
LINE
  8
0
 10
115.736
 20
6028.7
 11
115.25
 21
6028.57
  0
LINE
  8
0
 10
115.25
 20
6028.57
 11
114.751
 21
6028.51
  0
LINE
  8
0
 10
114.751
 20
6028.51
 11
-114.751
 21
6028.51
  0
LINE
  8
0
 10
115.937
 20
5808.09
 11
116.545
 21
5808.24
  0
LINE
  8
0
 10
116.545
 20
5808.24
 11
117.129
 21
5808.48
  0
LINE
  8
0
 10
117.129
 20
5808.48
 11
117.679
 21
5808.78
  0
LINE
  8
0
 10
117.679
 20
5808.78
 11
118.187
 21
5809.15
  0
LINE
  8
0
 10
118.187
 20
5809.15
 11
118.645
 21
5809.58
  0
LINE
  8
0
 10
118.645
 20
5809.58
 11
119.045
 21
5810.06
  0
LINE
  8
0
 10
119.045
 20
5810.06
 11
119.382
 21
5810.59
  0
LINE
  8
0
 10
119.382
 20
5810.59
 11
119.649
 21
5811.16
  0
LINE
  8
0
 10
119.649
 20
5811.16
 11
119.843
 21
5811.76
  0
LINE
  8
0
 10
119.843
 20
5811.76
 11
119.961
 21
5812.37
  0
LINE
  8
0
 10
119.961
 20
5812.37
 11
120
 21
5813
  0
LINE
  8
0
 10
120
 20
5813
 11
120
 21
6013
  0
LINE
  8
0
 10
120
 20
6013
 11
119.961
 21
6013.63
  0
LINE
  8
0
 10
119.961
 20
6013.63
 11
119.843
 21
6014.24
  0
LINE
  8
0
 10
119.843
 20
6014.24
 11
119.649
 21
6014.84
  0
LINE
  8
0
 10
119.649
 20
6014.84
 11
119.382
 21
6015.41
  0
LINE
  8
0
 10
119.382
 20
6015.41
 11
119.045
 21
6015.94
  0
LINE
  8
0
 10
119.045
 20
6015.94
 11
118.645
 21
6016.42
  0
LINE
  8
0
 10
118.645
 20
6016.42
 11
118.187
 21
6016.85
  0
LINE
  8
0
 10
118.187
 20
6016.85
 11
117.679
 21
6017.22
  0
LINE
  8
0
 10
117.679
 20
6017.22
 11
117.129
 21
6017.52
  0
LINE
  8
0
 10
117.129
 20
6017.52
 11
116.545
 21
6017.76
  0
LINE
  8
0
 10
116.545
 20
6017.76
 11
115.937
 21
6017.91
  0
LINE
  8
0
 10
115.937
 20
6017.91
 11
115.314
 21
6017.99
  0
LINE
  8
0
 10
115.314
 20
6017.99
 11
-115.314
 21
6017.99
  0
LINE
  8
0
 10
-115.314
 20
6017.99
 11
-115.937
 21
6017.91
  0
LINE
  8
0
 10
-115.937
 20
6017.91
 11
-116.545
 21
6017.76
  0
LINE
  8
0
 10
-116.545
 20
6017.76
 11
-117.129
 21
6017.52
  0
LINE
  8
0
 10
-117.129
 20
6017.52
 11
-117.679
 21
6017.22
  0
LINE
  8
0
 10
-117.679
 20
6017.22
 11
-118.187
 21
6016.85
  0
LINE
  8
0
 10
-118.187
 20
6016.85
 11
-118.645
 21
6016.42
  0
LINE
  8
0
 10
-118.645
 20
6016.42
 11
-119.045
 21
6015.94
  0
LINE
  8
0
 10
-119.045
 20
6015.94
 11
-119.382
 21
6015.41
  0
LINE
  8
0
 10
-119.382
 20
6015.41
 11
-119.649
 21
6014.84
  0
LINE
  8
0
 10
-119.649
 20
6014.84
 11
-119.843
 21
6014.24
  0
LINE
  8
0
 10
-119.843
 20
6014.24
 11
-119.961
 21
6013.63
  0
LINE
  8
0
 10
-119.961
 20
6013.63
 11
-120
 21
6013
  0
LINE
  8
0
 10
-120
 20
6013
 11
-120
 21
5813
  0
LINE
  8
0
 10
-120
 20
5813
 11
-119.961
 21
5812.37
  0
LINE
  8
0
 10
-119.961
 20
5812.37
 11
-119.843
 21
5811.76
  0
LINE
  8
0
 10
-119.843
 20
5811.76
 11
-119.649
 21
5811.16
  0
LINE
  8
0
 10
-119.649
 20
5811.16
 11
-119.382
 21
5810.59
  0
LINE
  8
0
 10
-119.382
 20
5810.59
 11
-119.045
 21
5810.06
  0
LINE
  8
0
 10
-119.045
 20
5810.06
 11
-118.645
 21
5809.58
  0
LINE
  8
0
 10
-118.645
 20
5809.58
 11
-118.187
 21
5809.15
  0
LINE
  8
0
 10
-118.187
 20
5809.15
 11
-117.679
 21
5808.78
  0
LINE
  8
0
 10
-117.679
 20
5808.78
 11
-117.129
 21
5808.48
  0
LINE
  8
0
 10
-117.129
 20
5808.48
 11
-116.545
 21
5808.24
  0
LINE
  8
0
 10
-116.545
 20
5808.24
 11
-115.937
 21
5808.09
  0
LINE
  8
0
 10
-115.937
 20
5808.09
 11
-115.314
 21
5808.01
  0
LINE
  8
0
 10
-115.314
 20
5808.01
 11
115.314
 21
5808.01
  0
LINE
  8
0
 10
115.314
 20
5808.01
 11
115.937
 21
5808.09
  0
LINE
  8
0
 10
-114.751
 20
5809.51
 11
-115.25
 21
5809.57
  0
LINE
  8
0
 10
-115.25
 20
5809.57
 11
-115.736
 21
5809.7
  0
LINE
  8
0
 10
-115.736
 20
5809.7
 11
-116.203
 21
5809.88
  0
LINE
  8
0
 10
-116.203
 20
5809.88
 11
-116.643
 21
5810.12
  0
LINE
  8
0
 10
-116.643
 20
5810.12
 11
-117.05
 21
5810.42
  0
LINE
  8
0
 10
-117.05
 20
5810.42
 11
-117.416
 21
5810.76
  0
LINE
  8
0
 10
-117.416
 20
5810.76
 11
-117.736
 21
5811.15
  0
LINE
  8
0
 10
-117.736
 20
5811.15
 11
-118.005
 21
5811.57
  0
LINE
  8
0
 10
-118.005
 20
5811.57
 11
-118.219
 21
5812.03
  0
LINE
  8
0
 10
-118.219
 20
5812.03
 11
-118.374
 21
5812.51
  0
LINE
  8
0
 10
-118.374
 20
5812.51
 11
-118.468
 21
5813
  0
LINE
  8
0
 10
-118.468
 20
5813
 11
-118.5
 21
5813.5
  0
LINE
  8
0
 10
-118.5
 20
5813.5
 11
-118.5
 21
6012.5
  0
LINE
  8
0
 10
-118.5
 20
6012.5
 11
-118.468
 21
6013
  0
LINE
  8
0
 10
-118.468
 20
6013
 11
-118.374
 21
6013.49
  0
LINE
  8
0
 10
-118.374
 20
6013.49
 11
-118.219
 21
6013.97
  0
LINE
  8
0
 10
-118.219
 20
6013.97
 11
-118.005
 21
6014.43
  0
LINE
  8
0
 10
-118.005
 20
6014.43
 11
-117.736
 21
6014.85
  0
LINE
  8
0
 10
-117.736
 20
6014.85
 11
-117.416
 21
6015.24
  0
LINE
  8
0
 10
-117.416
 20
6015.24
 11
-117.05
 21
6015.58
  0
LINE
  8
0
 10
-117.05
 20
6015.58
 11
-116.643
 21
6015.88
  0
LINE
  8
0
 10
-116.643
 20
6015.88
 11
-116.203
 21
6016.12
  0
LINE
  8
0
 10
-116.203
 20
6016.12
 11
-115.736
 21
6016.3
  0
LINE
  8
0
 10
-115.736
 20
6016.3
 11
-115.25
 21
6016.43
  0
LINE
  8
0
 10
-115.25
 20
6016.43
 11
-114.751
 21
6016.49
  0
LINE
  8
0
 10
-114.751
 20
6016.49
 11
114.751
 21
6016.49
  0
LINE
  8
0
 10
114.751
 20
6016.49
 11
115.25
 21
6016.43
  0
LINE
  8
0
 10
115.25
 20
6016.43
 11
115.736
 21
6016.3
  0
LINE
  8
0
 10
115.736
 20
6016.3
 11
116.203
 21
6016.12
  0
LINE
  8
0
 10
116.203
 20
6016.12
 11
116.643
 21
6015.88
  0
LINE
  8
0
 10
116.643
 20
6015.88
 11
117.05
 21
6015.58
  0
LINE
  8
0
 10
117.05
 20
6015.58
 11
117.416
 21
6015.24
  0
LINE
  8
0
 10
117.416
 20
6015.24
 11
117.736
 21
6014.85
  0
LINE
  8
0
 10
117.736
 20
6014.85
 11
118.005
 21
6014.43
  0
LINE
  8
0
 10
118.005
 20
6014.43
 11
118.219
 21
6013.97
  0
LINE
  8
0
 10
118.219
 20
6013.97
 11
118.374
 21
6013.49
  0
LINE
  8
0
 10
118.374
 20
6013.49
 11
118.468
 21
6013
  0
LINE
  8
0
 10
118.468
 20
6013
 11
118.5
 21
6012.5
  0
LINE
  8
0
 10
118.5
 20
6012.5
 11
118.5
 21
5813.5
  0
LINE
  8
0
 10
118.5
 20
5813.5
 11
118.468
 21
5813
  0
LINE
  8
0
 10
118.468
 20
5813
 11
118.374
 21
5812.51
  0
LINE
  8
0
 10
118.374
 20
5812.51
 11
118.219
 21
5812.03
  0
LINE
  8
0
 10
118.219
 20
5812.03
 11
118.005
 21
5811.57
  0
LINE
  8
0
 10
118.005
 20
5811.57
 11
117.736
 21
5811.15
  0
LINE
  8
0
 10
117.736
 20
5811.15
 11
117.416
 21
5810.76
  0
LINE
  8
0
 10
117.416
 20
5810.76
 11
117.05
 21
5810.42
  0
LINE
  8
0
 10
117.05
 20
5810.42
 11
116.643
 21
5810.12
  0
LINE
  8
0
 10
116.643
 20
5810.12
 11
116.203
 21
5809.88
  0
LINE
  8
0
 10
116.203
 20
5809.88
 11
115.736
 21
5809.7
  0
LINE
  8
0
 10
115.736
 20
5809.7
 11
115.25
 21
5809.57
  0
LINE
  8
0
 10
115.25
 20
5809.57
 11
114.751
 21
5809.51
  0
LINE
  8
0
 10
114.751
 20
5809.51
 11
-114.751
 21
5809.51
  0
LINE
  8
0
 10
115.937
 20
5589.09
 11
116.545
 21
5589.24
  0
LINE
  8
0
 10
116.545
 20
5589.24
 11
117.129
 21
5589.48
  0
LINE
  8
0
 10
117.129
 20
5589.48
 11
117.679
 21
5589.78
  0
LINE
  8
0
 10
117.679
 20
5589.78
 11
118.187
 21
5590.15
  0
LINE
  8
0
 10
118.187
 20
5590.15
 11
118.645
 21
5590.58
  0
LINE
  8
0
 10
118.645
 20
5590.58
 11
119.045
 21
5591.06
  0
LINE
  8
0
 10
119.045
 20
5591.06
 11
119.382
 21
5591.59
  0
LINE
  8
0
 10
119.382
 20
5591.59
 11
119.649
 21
5592.16
  0
LINE
  8
0
 10
119.649
 20
5592.16
 11
119.843
 21
5592.76
  0
LINE
  8
0
 10
119.843
 20
5592.76
 11
119.961
 21
5593.37
  0
LINE
  8
0
 10
119.961
 20
5593.37
 11
120
 21
5594
  0
LINE
  8
0
 10
120
 20
5594
 11
120
 21
5794
  0
LINE
  8
0
 10
120
 20
5794
 11
119.961
 21
5794.63
  0
LINE
  8
0
 10
119.961
 20
5794.63
 11
119.843
 21
5795.24
  0
LINE
  8
0
 10
119.843
 20
5795.24
 11
119.649
 21
5795.84
  0
LINE
  8
0
 10
119.649
 20
5795.84
 11
119.382
 21
5796.41
  0
LINE
  8
0
 10
119.382
 20
5796.41
 11
119.045
 21
5796.94
  0
LINE
  8
0
 10
119.045
 20
5796.94
 11
118.645
 21
5797.42
  0
LINE
  8
0
 10
118.645
 20
5797.42
 11
118.187
 21
5797.85
  0
LINE
  8
0
 10
118.187
 20
5797.85
 11
117.679
 21
5798.22
  0
LINE
  8
0
 10
117.679
 20
5798.22
 11
117.129
 21
5798.52
  0
LINE
  8
0
 10
117.129
 20
5798.52
 11
116.545
 21
5798.76
  0
LINE
  8
0
 10
116.545
 20
5798.76
 11
115.937
 21
5798.91
  0
LINE
  8
0
 10
115.937
 20
5798.91
 11
115.314
 21
5798.99
  0
LINE
  8
0
 10
115.314
 20
5798.99
 11
-115.314
 21
5798.99
  0
LINE
  8
0
 10
-115.314
 20
5798.99
 11
-115.937
 21
5798.91
  0
LINE
  8
0
 10
-115.937
 20
5798.91
 11
-116.545
 21
5798.76
  0
LINE
  8
0
 10
-116.545
 20
5798.76
 11
-117.129
 21
5798.52
  0
LINE
  8
0
 10
-117.129
 20
5798.52
 11
-117.679
 21
5798.22
  0
LINE
  8
0
 10
-117.679
 20
5798.22
 11
-118.187
 21
5797.85
  0
LINE
  8
0
 10
-118.187
 20
5797.85
 11
-118.645
 21
5797.42
  0
LINE
  8
0
 10
-118.645
 20
5797.42
 11
-119.045
 21
5796.94
  0
LINE
  8
0
 10
-119.045
 20
5796.94
 11
-119.382
 21
5796.41
  0
LINE
  8
0
 10
-119.382
 20
5796.41
 11
-119.649
 21
5795.84
  0
LINE
  8
0
 10
-119.649
 20
5795.84
 11
-119.843
 21
5795.24
  0
LINE
  8
0
 10
-119.843
 20
5795.24
 11
-119.961
 21
5794.63
  0
LINE
  8
0
 10
-119.961
 20
5794.63
 11
-120
 21
5794
  0
LINE
  8
0
 10
-120
 20
5794
 11
-120
 21
5594
  0
LINE
  8
0
 10
-120
 20
5594
 11
-119.961
 21
5593.37
  0
LINE
  8
0
 10
-119.961
 20
5593.37
 11
-119.843
 21
5592.76
  0
LINE
  8
0
 10
-119.843
 20
5592.76
 11
-119.649
 21
5592.16
  0
LINE
  8
0
 10
-119.649
 20
5592.16
 11
-119.382
 21
5591.59
  0
LINE
  8
0
 10
-119.382
 20
5591.59
 11
-119.045
 21
5591.06
  0
LINE
  8
0
 10
-119.045
 20
5591.06
 11
-118.645
 21
5590.58
  0
LINE
  8
0
 10
-118.645
 20
5590.58
 11
-118.187
 21
5590.15
  0
LINE
  8
0
 10
-118.187
 20
5590.15
 11
-117.679
 21
5589.78
  0
LINE
  8
0
 10
-117.679
 20
5589.78
 11
-117.129
 21
5589.48
  0
LINE
  8
0
 10
-117.129
 20
5589.48
 11
-116.545
 21
5589.24
  0
LINE
  8
0
 10
-116.545
 20
5589.24
 11
-115.937
 21
5589.09
  0
LINE
  8
0
 10
-115.937
 20
5589.09
 11
-115.314
 21
5589.01
  0
LINE
  8
0
 10
-115.314
 20
5589.01
 11
115.314
 21
5589.01
  0
LINE
  8
0
 10
115.314
 20
5589.01
 11
115.937
 21
5589.09
  0
LINE
  8
0
 10
-114.751
 20
5590.51
 11
-115.25
 21
5590.57
  0
LINE
  8
0
 10
-115.25
 20
5590.57
 11
-115.736
 21
5590.7
  0
LINE
  8
0
 10
-115.736
 20
5590.7
 11
-116.203
 21
5590.88
  0
LINE
  8
0
 10
-116.203
 20
5590.88
 11
-116.643
 21
5591.12
  0
LINE
  8
0
 10
-116.643
 20
5591.12
 11
-117.05
 21
5591.42
  0
LINE
  8
0
 10
-117.05
 20
5591.42
 11
-117.416
 21
5591.76
  0
LINE
  8
0
 10
-117.416
 20
5591.76
 11
-117.736
 21
5592.15
  0
LINE
  8
0
 10
-117.736
 20
5592.15
 11
-118.005
 21
5592.57
  0
LINE
  8
0
 10
-118.005
 20
5592.57
 11
-118.219
 21
5593.03
  0
LINE
  8
0
 10
-118.219
 20
5593.03
 11
-118.374
 21
5593.51
  0
LINE
  8
0
 10
-118.374
 20
5593.51
 11
-118.468
 21
5594
  0
LINE
  8
0
 10
-118.468
 20
5594
 11
-118.5
 21
5594.5
  0
LINE
  8
0
 10
-118.5
 20
5594.5
 11
-118.5
 21
5793.5
  0
LINE
  8
0
 10
-118.5
 20
5793.5
 11
-118.468
 21
5794
  0
LINE
  8
0
 10
-118.468
 20
5794
 11
-118.374
 21
5794.49
  0
LINE
  8
0
 10
-118.374
 20
5794.49
 11
-118.219
 21
5794.97
  0
LINE
  8
0
 10
-118.219
 20
5794.97
 11
-118.005
 21
5795.43
  0
LINE
  8
0
 10
-118.005
 20
5795.43
 11
-117.736
 21
5795.85
  0
LINE
  8
0
 10
-117.736
 20
5795.85
 11
-117.416
 21
5796.24
  0
LINE
  8
0
 10
-117.416
 20
5796.24
 11
-117.05
 21
5796.58
  0
LINE
  8
0
 10
-117.05
 20
5796.58
 11
-116.643
 21
5796.88
  0
LINE
  8
0
 10
-116.643
 20
5796.88
 11
-116.203
 21
5797.12
  0
LINE
  8
0
 10
-116.203
 20
5797.12
 11
-115.736
 21
5797.3
  0
LINE
  8
0
 10
-115.736
 20
5797.3
 11
-115.25
 21
5797.43
  0
LINE
  8
0
 10
-115.25
 20
5797.43
 11
-114.751
 21
5797.49
  0
LINE
  8
0
 10
-114.751
 20
5797.49
 11
114.751
 21
5797.49
  0
LINE
  8
0
 10
114.751
 20
5797.49
 11
115.25
 21
5797.43
  0
LINE
  8
0
 10
115.25
 20
5797.43
 11
115.736
 21
5797.3
  0
LINE
  8
0
 10
115.736
 20
5797.3
 11
116.203
 21
5797.12
  0
LINE
  8
0
 10
116.203
 20
5797.12
 11
116.643
 21
5796.88
  0
LINE
  8
0
 10
116.643
 20
5796.88
 11
117.05
 21
5796.58
  0
LINE
  8
0
 10
117.05
 20
5796.58
 11
117.416
 21
5796.24
  0
LINE
  8
0
 10
117.416
 20
5796.24
 11
117.736
 21
5795.85
  0
LINE
  8
0
 10
117.736
 20
5795.85
 11
118.005
 21
5795.43
  0
LINE
  8
0
 10
118.005
 20
5795.43
 11
118.219
 21
5794.97
  0
LINE
  8
0
 10
118.219
 20
5794.97
 11
118.374
 21
5794.49
  0
LINE
  8
0
 10
118.374
 20
5794.49
 11
118.468
 21
5794
  0
LINE
  8
0
 10
118.468
 20
5794
 11
118.5
 21
5793.5
  0
LINE
  8
0
 10
118.5
 20
5793.5
 11
118.5
 21
5594.5
  0
LINE
  8
0
 10
118.5
 20
5594.5
 11
118.468
 21
5594
  0
LINE
  8
0
 10
118.468
 20
5594
 11
118.374
 21
5593.51
  0
LINE
  8
0
 10
118.374
 20
5593.51
 11
118.219
 21
5593.03
  0
LINE
  8
0
 10
118.219
 20
5593.03
 11
118.005
 21
5592.57
  0
LINE
  8
0
 10
118.005
 20
5592.57
 11
117.736
 21
5592.15
  0
LINE
  8
0
 10
117.736
 20
5592.15
 11
117.416
 21
5591.76
  0
LINE
  8
0
 10
117.416
 20
5591.76
 11
117.05
 21
5591.42
  0
LINE
  8
0
 10
117.05
 20
5591.42
 11
116.643
 21
5591.12
  0
LINE
  8
0
 10
116.643
 20
5591.12
 11
116.203
 21
5590.88
  0
LINE
  8
0
 10
116.203
 20
5590.88
 11
115.736
 21
5590.7
  0
LINE
  8
0
 10
115.736
 20
5590.7
 11
115.25
 21
5590.57
  0
LINE
  8
0
 10
115.25
 20
5590.57
 11
114.751
 21
5590.51
  0
LINE
  8
0
 10
114.751
 20
5590.51
 11
-114.751
 21
5590.51
  0
LINE
  8
0
 10
115.937
 20
5370.09
 11
116.545
 21
5370.24
  0
LINE
  8
0
 10
116.545
 20
5370.24
 11
117.129
 21
5370.48
  0
LINE
  8
0
 10
117.129
 20
5370.48
 11
117.679
 21
5370.78
  0
LINE
  8
0
 10
117.679
 20
5370.78
 11
118.187
 21
5371.15
  0
LINE
  8
0
 10
118.187
 20
5371.15
 11
118.645
 21
5371.58
  0
LINE
  8
0
 10
118.645
 20
5371.58
 11
119.045
 21
5372.06
  0
LINE
  8
0
 10
119.045
 20
5372.06
 11
119.382
 21
5372.59
  0
LINE
  8
0
 10
119.382
 20
5372.59
 11
119.649
 21
5373.16
  0
LINE
  8
0
 10
119.649
 20
5373.16
 11
119.843
 21
5373.76
  0
LINE
  8
0
 10
119.843
 20
5373.76
 11
119.961
 21
5374.37
  0
LINE
  8
0
 10
119.961
 20
5374.37
 11
120
 21
5375
  0
LINE
  8
0
 10
120
 20
5375
 11
120
 21
5575
  0
LINE
  8
0
 10
120
 20
5575
 11
119.961
 21
5575.63
  0
LINE
  8
0
 10
119.961
 20
5575.63
 11
119.843
 21
5576.24
  0
LINE
  8
0
 10
119.843
 20
5576.24
 11
119.649
 21
5576.84
  0
LINE
  8
0
 10
119.649
 20
5576.84
 11
119.382
 21
5577.41
  0
LINE
  8
0
 10
119.382
 20
5577.41
 11
119.045
 21
5577.94
  0
LINE
  8
0
 10
119.045
 20
5577.94
 11
118.645
 21
5578.42
  0
LINE
  8
0
 10
118.645
 20
5578.42
 11
118.187
 21
5578.85
  0
LINE
  8
0
 10
118.187
 20
5578.85
 11
117.679
 21
5579.22
  0
LINE
  8
0
 10
117.679
 20
5579.22
 11
117.129
 21
5579.52
  0
LINE
  8
0
 10
117.129
 20
5579.52
 11
116.545
 21
5579.76
  0
LINE
  8
0
 10
116.545
 20
5579.76
 11
115.937
 21
5579.91
  0
LINE
  8
0
 10
115.937
 20
5579.91
 11
115.314
 21
5579.99
  0
LINE
  8
0
 10
115.314
 20
5579.99
 11
-115.314
 21
5579.99
  0
LINE
  8
0
 10
-115.314
 20
5579.99
 11
-115.937
 21
5579.91
  0
LINE
  8
0
 10
-115.937
 20
5579.91
 11
-116.545
 21
5579.76
  0
LINE
  8
0
 10
-116.545
 20
5579.76
 11
-117.129
 21
5579.52
  0
LINE
  8
0
 10
-117.129
 20
5579.52
 11
-117.679
 21
5579.22
  0
LINE
  8
0
 10
-117.679
 20
5579.22
 11
-118.187
 21
5578.85
  0
LINE
  8
0
 10
-118.187
 20
5578.85
 11
-118.645
 21
5578.42
  0
LINE
  8
0
 10
-118.645
 20
5578.42
 11
-119.045
 21
5577.94
  0
LINE
  8
0
 10
-119.045
 20
5577.94
 11
-119.382
 21
5577.41
  0
LINE
  8
0
 10
-119.382
 20
5577.41
 11
-119.649
 21
5576.84
  0
LINE
  8
0
 10
-119.649
 20
5576.84
 11
-119.843
 21
5576.24
  0
LINE
  8
0
 10
-119.843
 20
5576.24
 11
-119.961
 21
5575.63
  0
LINE
  8
0
 10
-119.961
 20
5575.63
 11
-120
 21
5575
  0
LINE
  8
0
 10
-120
 20
5575
 11
-120
 21
5375
  0
LINE
  8
0
 10
-120
 20
5375
 11
-119.961
 21
5374.37
  0
LINE
  8
0
 10
-119.961
 20
5374.37
 11
-119.843
 21
5373.76
  0
LINE
  8
0
 10
-119.843
 20
5373.76
 11
-119.649
 21
5373.16
  0
LINE
  8
0
 10
-119.649
 20
5373.16
 11
-119.382
 21
5372.59
  0
LINE
  8
0
 10
-119.382
 20
5372.59
 11
-119.045
 21
5372.06
  0
LINE
  8
0
 10
-119.045
 20
5372.06
 11
-118.645
 21
5371.58
  0
LINE
  8
0
 10
-118.645
 20
5371.58
 11
-118.187
 21
5371.15
  0
LINE
  8
0
 10
-118.187
 20
5371.15
 11
-117.679
 21
5370.78
  0
LINE
  8
0
 10
-117.679
 20
5370.78
 11
-117.129
 21
5370.48
  0
LINE
  8
0
 10
-117.129
 20
5370.48
 11
-116.545
 21
5370.24
  0
LINE
  8
0
 10
-116.545
 20
5370.24
 11
-115.937
 21
5370.09
  0
LINE
  8
0
 10
-115.937
 20
5370.09
 11
-115.314
 21
5370.01
  0
LINE
  8
0
 10
-115.314
 20
5370.01
 11
115.314
 21
5370.01
  0
LINE
  8
0
 10
115.314
 20
5370.01
 11
115.937
 21
5370.09
  0
LINE
  8
0
 10
-114.751
 20
5371.51
 11
-115.25
 21
5371.57
  0
LINE
  8
0
 10
-115.25
 20
5371.57
 11
-115.736
 21
5371.7
  0
LINE
  8
0
 10
-115.736
 20
5371.7
 11
-116.203
 21
5371.88
  0
LINE
  8
0
 10
-116.203
 20
5371.88
 11
-116.643
 21
5372.12
  0
LINE
  8
0
 10
-116.643
 20
5372.12
 11
-117.05
 21
5372.42
  0
LINE
  8
0
 10
-117.05
 20
5372.42
 11
-117.416
 21
5372.76
  0
LINE
  8
0
 10
-117.416
 20
5372.76
 11
-117.736
 21
5373.15
  0
LINE
  8
0
 10
-117.736
 20
5373.15
 11
-118.005
 21
5373.57
  0
LINE
  8
0
 10
-118.005
 20
5373.57
 11
-118.219
 21
5374.03
  0
LINE
  8
0
 10
-118.219
 20
5374.03
 11
-118.374
 21
5374.51
  0
LINE
  8
0
 10
-118.374
 20
5374.51
 11
-118.468
 21
5375
  0
LINE
  8
0
 10
-118.468
 20
5375
 11
-118.5
 21
5375.5
  0
LINE
  8
0
 10
-118.5
 20
5375.5
 11
-118.5
 21
5574.5
  0
LINE
  8
0
 10
-118.5
 20
5574.5
 11
-118.468
 21
5575
  0
LINE
  8
0
 10
-118.468
 20
5575
 11
-118.374
 21
5575.49
  0
LINE
  8
0
 10
-118.374
 20
5575.49
 11
-118.219
 21
5575.97
  0
LINE
  8
0
 10
-118.219
 20
5575.97
 11
-118.005
 21
5576.43
  0
LINE
  8
0
 10
-118.005
 20
5576.43
 11
-117.736
 21
5576.85
  0
LINE
  8
0
 10
-117.736
 20
5576.85
 11
-117.416
 21
5577.24
  0
LINE
  8
0
 10
-117.416
 20
5577.24
 11
-117.05
 21
5577.58
  0
LINE
  8
0
 10
-117.05
 20
5577.58
 11
-116.643
 21
5577.88
  0
LINE
  8
0
 10
-116.643
 20
5577.88
 11
-116.203
 21
5578.12
  0
LINE
  8
0
 10
-116.203
 20
5578.12
 11
-115.736
 21
5578.3
  0
LINE
  8
0
 10
-115.736
 20
5578.3
 11
-115.25
 21
5578.43
  0
LINE
  8
0
 10
-115.25
 20
5578.43
 11
-114.751
 21
5578.49
  0
LINE
  8
0
 10
-114.751
 20
5578.49
 11
114.751
 21
5578.49
  0
LINE
  8
0
 10
114.751
 20
5578.49
 11
115.25
 21
5578.43
  0
LINE
  8
0
 10
115.25
 20
5578.43
 11
115.736
 21
5578.3
  0
LINE
  8
0
 10
115.736
 20
5578.3
 11
116.203
 21
5578.12
  0
LINE
  8
0
 10
116.203
 20
5578.12
 11
116.643
 21
5577.88
  0
LINE
  8
0
 10
116.643
 20
5577.88
 11
117.05
 21
5577.58
  0
LINE
  8
0
 10
117.05
 20
5577.58
 11
117.416
 21
5577.24
  0
LINE
  8
0
 10
117.416
 20
5577.24
 11
117.736
 21
5576.85
  0
LINE
  8
0
 10
117.736
 20
5576.85
 11
118.005
 21
5576.43
  0
LINE
  8
0
 10
118.005
 20
5576.43
 11
118.219
 21
5575.97
  0
LINE
  8
0
 10
118.219
 20
5575.97
 11
118.374
 21
5575.49
  0
LINE
  8
0
 10
118.374
 20
5575.49
 11
118.468
 21
5575
  0
LINE
  8
0
 10
118.468
 20
5575
 11
118.5
 21
5574.5
  0
LINE
  8
0
 10
118.5
 20
5574.5
 11
118.5
 21
5375.5
  0
LINE
  8
0
 10
118.5
 20
5375.5
 11
118.468
 21
5375
  0
LINE
  8
0
 10
118.468
 20
5375
 11
118.374
 21
5374.51
  0
LINE
  8
0
 10
118.374
 20
5374.51
 11
118.219
 21
5374.03
  0
LINE
  8
0
 10
118.219
 20
5374.03
 11
118.005
 21
5373.57
  0
LINE
  8
0
 10
118.005
 20
5373.57
 11
117.736
 21
5373.15
  0
LINE
  8
0
 10
117.736
 20
5373.15
 11
117.416
 21
5372.76
  0
LINE
  8
0
 10
117.416
 20
5372.76
 11
117.05
 21
5372.42
  0
LINE
  8
0
 10
117.05
 20
5372.42
 11
116.643
 21
5372.12
  0
LINE
  8
0
 10
116.643
 20
5372.12
 11
116.203
 21
5371.88
  0
LINE
  8
0
 10
116.203
 20
5371.88
 11
115.736
 21
5371.7
  0
LINE
  8
0
 10
115.736
 20
5371.7
 11
115.25
 21
5371.57
  0
LINE
  8
0
 10
115.25
 20
5371.57
 11
114.751
 21
5371.51
  0
LINE
  8
0
 10
114.751
 20
5371.51
 11
-114.751
 21
5371.51
  0
LINE
  8
0
 10
115.937
 20
5151.09
 11
116.545
 21
5151.24
  0
LINE
  8
0
 10
116.545
 20
5151.24
 11
117.129
 21
5151.48
  0
LINE
  8
0
 10
117.129
 20
5151.48
 11
117.679
 21
5151.78
  0
LINE
  8
0
 10
117.679
 20
5151.78
 11
118.187
 21
5152.15
  0
LINE
  8
0
 10
118.187
 20
5152.15
 11
118.645
 21
5152.58
  0
LINE
  8
0
 10
118.645
 20
5152.58
 11
119.045
 21
5153.06
  0
LINE
  8
0
 10
119.045
 20
5153.06
 11
119.382
 21
5153.59
  0
LINE
  8
0
 10
119.382
 20
5153.59
 11
119.649
 21
5154.16
  0
LINE
  8
0
 10
119.649
 20
5154.16
 11
119.843
 21
5154.76
  0
LINE
  8
0
 10
119.843
 20
5154.76
 11
119.961
 21
5155.37
  0
LINE
  8
0
 10
119.961
 20
5155.37
 11
120
 21
5156
  0
LINE
  8
0
 10
120
 20
5156
 11
120
 21
5356
  0
LINE
  8
0
 10
120
 20
5356
 11
119.961
 21
5356.63
  0
LINE
  8
0
 10
119.961
 20
5356.63
 11
119.843
 21
5357.24
  0
LINE
  8
0
 10
119.843
 20
5357.24
 11
119.649
 21
5357.84
  0
LINE
  8
0
 10
119.649
 20
5357.84
 11
119.382
 21
5358.41
  0
LINE
  8
0
 10
119.382
 20
5358.41
 11
119.045
 21
5358.94
  0
LINE
  8
0
 10
119.045
 20
5358.94
 11
118.645
 21
5359.42
  0
LINE
  8
0
 10
118.645
 20
5359.42
 11
118.187
 21
5359.85
  0
LINE
  8
0
 10
118.187
 20
5359.85
 11
117.679
 21
5360.22
  0
LINE
  8
0
 10
117.679
 20
5360.22
 11
117.129
 21
5360.52
  0
LINE
  8
0
 10
117.129
 20
5360.52
 11
116.545
 21
5360.76
  0
LINE
  8
0
 10
116.545
 20
5360.76
 11
115.937
 21
5360.91
  0
LINE
  8
0
 10
115.937
 20
5360.91
 11
115.314
 21
5360.99
  0
LINE
  8
0
 10
115.314
 20
5360.99
 11
-115.314
 21
5360.99
  0
LINE
  8
0
 10
-115.314
 20
5360.99
 11
-115.937
 21
5360.91
  0
LINE
  8
0
 10
-115.937
 20
5360.91
 11
-116.545
 21
5360.76
  0
LINE
  8
0
 10
-116.545
 20
5360.76
 11
-117.129
 21
5360.52
  0
LINE
  8
0
 10
-117.129
 20
5360.52
 11
-117.679
 21
5360.22
  0
LINE
  8
0
 10
-117.679
 20
5360.22
 11
-118.187
 21
5359.85
  0
LINE
  8
0
 10
-118.187
 20
5359.85
 11
-118.5
 21
5359.56
  0
LINE
  8
0
 10
-118.5
 20
5359.56
 11
-121.5
 21
5359.56
  0
LINE
  8
0
 10
-121.5
 20
5359.56
 11
-121.5
 21
5152.44
  0
LINE
  8
0
 10
-121.5
 20
5152.44
 11
-118.5
 21
5152.44
  0
LINE
  8
0
 10
-118.5
 20
5152.44
 11
-118.187
 21
5152.15
  0
LINE
  8
0
 10
-118.187
 20
5152.15
 11
-117.679
 21
5151.78
  0
LINE
  8
0
 10
-117.679
 20
5151.78
 11
-117.129
 21
5151.48
  0
LINE
  8
0
 10
-117.129
 20
5151.48
 11
-116.545
 21
5151.24
  0
LINE
  8
0
 10
-116.545
 20
5151.24
 11
-115.937
 21
5151.09
  0
LINE
  8
0
 10
-115.937
 20
5151.09
 11
-115.314
 21
5151.01
  0
LINE
  8
0
 10
-115.314
 20
5151.01
 11
115.314
 21
5151.01
  0
LINE
  8
0
 10
115.314
 20
5151.01
 11
115.937
 21
5151.09
  0
LINE
  8
0
 10
-114.751
 20
5152.51
 11
-115.25
 21
5152.57
  0
LINE
  8
0
 10
-115.25
 20
5152.57
 11
-115.736
 21
5152.7
  0
LINE
  8
0
 10
-115.736
 20
5152.7
 11
-116.203
 21
5152.88
  0
LINE
  8
0
 10
-116.203
 20
5152.88
 11
-116.643
 21
5153.12
  0
LINE
  8
0
 10
-116.643
 20
5153.12
 11
-117.05
 21
5153.42
  0
LINE
  8
0
 10
-117.05
 20
5153.42
 11
-117.416
 21
5153.76
  0
LINE
  8
0
 10
-117.416
 20
5153.76
 11
-117.736
 21
5154.15
  0
LINE
  8
0
 10
-117.736
 20
5154.15
 11
-118.005
 21
5154.57
  0
LINE
  8
0
 10
-118.005
 20
5154.57
 11
-118.219
 21
5155.03
  0
LINE
  8
0
 10
-118.219
 20
5155.03
 11
-118.374
 21
5155.51
  0
LINE
  8
0
 10
-118.374
 20
5155.51
 11
-118.468
 21
5156
  0
LINE
  8
0
 10
-118.468
 20
5156
 11
-118.5
 21
5156.5
  0
LINE
  8
0
 10
-118.5
 20
5156.5
 11
-118.5
 21
5355.5
  0
LINE
  8
0
 10
-118.5
 20
5355.5
 11
-118.468
 21
5356
  0
LINE
  8
0
 10
-118.468
 20
5356
 11
-118.374
 21
5356.49
  0
LINE
  8
0
 10
-118.374
 20
5356.49
 11
-118.219
 21
5356.97
  0
LINE
  8
0
 10
-118.219
 20
5356.97
 11
-118.005
 21
5357.43
  0
LINE
  8
0
 10
-118.005
 20
5357.43
 11
-117.736
 21
5357.85
  0
LINE
  8
0
 10
-117.736
 20
5357.85
 11
-117.416
 21
5358.24
  0
LINE
  8
0
 10
-117.416
 20
5358.24
 11
-117.05
 21
5358.58
  0
LINE
  8
0
 10
-117.05
 20
5358.58
 11
-116.643
 21
5358.88
  0
LINE
  8
0
 10
-116.643
 20
5358.88
 11
-116.203
 21
5359.12
  0
LINE
  8
0
 10
-116.203
 20
5359.12
 11
-115.736
 21
5359.3
  0
LINE
  8
0
 10
-115.736
 20
5359.3
 11
-115.25
 21
5359.43
  0
LINE
  8
0
 10
-115.25
 20
5359.43
 11
-114.751
 21
5359.49
  0
LINE
  8
0
 10
-114.751
 20
5359.49
 11
114.751
 21
5359.49
  0
LINE
  8
0
 10
114.751
 20
5359.49
 11
115.25
 21
5359.43
  0
LINE
  8
0
 10
115.25
 20
5359.43
 11
115.736
 21
5359.3
  0
LINE
  8
0
 10
115.736
 20
5359.3
 11
116.203
 21
5359.12
  0
LINE
  8
0
 10
116.203
 20
5359.12
 11
116.643
 21
5358.88
  0
LINE
  8
0
 10
116.643
 20
5358.88
 11
117.05
 21
5358.58
  0
LINE
  8
0
 10
117.05
 20
5358.58
 11
117.416
 21
5358.24
  0
LINE
  8
0
 10
117.416
 20
5358.24
 11
117.736
 21
5357.85
  0
LINE
  8
0
 10
117.736
 20
5357.85
 11
118.005
 21
5357.43
  0
LINE
  8
0
 10
118.005
 20
5357.43
 11
118.219
 21
5356.97
  0
LINE
  8
0
 10
118.219
 20
5356.97
 11
118.374
 21
5356.49
  0
LINE
  8
0
 10
118.374
 20
5356.49
 11
118.468
 21
5356
  0
LINE
  8
0
 10
118.468
 20
5356
 11
118.5
 21
5355.5
  0
LINE
  8
0
 10
118.5
 20
5355.5
 11
118.5
 21
5156.5
  0
LINE
  8
0
 10
118.5
 20
5156.5
 11
118.468
 21
5156
  0
LINE
  8
0
 10
118.468
 20
5156
 11
118.374
 21
5155.51
  0
LINE
  8
0
 10
118.374
 20
5155.51
 11
118.219
 21
5155.03
  0
LINE
  8
0
 10
118.219
 20
5155.03
 11
118.005
 21
5154.57
  0
LINE
  8
0
 10
118.005
 20
5154.57
 11
117.736
 21
5154.15
  0
LINE
  8
0
 10
117.736
 20
5154.15
 11
117.416
 21
5153.76
  0
LINE
  8
0
 10
117.416
 20
5153.76
 11
117.05
 21
5153.42
  0
LINE
  8
0
 10
117.05
 20
5153.42
 11
116.643
 21
5153.12
  0
LINE
  8
0
 10
116.643
 20
5153.12
 11
116.203
 21
5152.88
  0
LINE
  8
0
 10
116.203
 20
5152.88
 11
115.736
 21
5152.7
  0
LINE
  8
0
 10
115.736
 20
5152.7
 11
115.25
 21
5152.57
  0
LINE
  8
0
 10
115.25
 20
5152.57
 11
114.751
 21
5152.51
  0
LINE
  8
0
 10
114.751
 20
5152.51
 11
-114.751
 21
5152.51
  0
LINE
  8
0
 10
115.937
 20
4932.09
 11
116.545
 21
4932.24
  0
LINE
  8
0
 10
116.545
 20
4932.24
 11
117.129
 21
4932.48
  0
LINE
  8
0
 10
117.129
 20
4932.48
 11
117.679
 21
4932.78
  0
LINE
  8
0
 10
117.679
 20
4932.78
 11
118.187
 21
4933.15
  0
LINE
  8
0
 10
118.187
 20
4933.15
 11
118.645
 21
4933.58
  0
LINE
  8
0
 10
118.645
 20
4933.58
 11
119.045
 21
4934.06
  0
LINE
  8
0
 10
119.045
 20
4934.06
 11
119.382
 21
4934.59
  0
LINE
  8
0
 10
119.382
 20
4934.59
 11
119.649
 21
4935.16
  0
LINE
  8
0
 10
119.649
 20
4935.16
 11
119.843
 21
4935.76
  0
LINE
  8
0
 10
119.843
 20
4935.76
 11
119.961
 21
4936.37
  0
LINE
  8
0
 10
119.961
 20
4936.37
 11
120
 21
4937
  0
LINE
  8
0
 10
120
 20
4937
 11
120
 21
5137
  0
LINE
  8
0
 10
120
 20
5137
 11
119.961
 21
5137.63
  0
LINE
  8
0
 10
119.961
 20
5137.63
 11
119.843
 21
5138.24
  0
LINE
  8
0
 10
119.843
 20
5138.24
 11
119.649
 21
5138.84
  0
LINE
  8
0
 10
119.649
 20
5138.84
 11
119.382
 21
5139.41
  0
LINE
  8
0
 10
119.382
 20
5139.41
 11
119.045
 21
5139.94
  0
LINE
  8
0
 10
119.045
 20
5139.94
 11
118.645
 21
5140.42
  0
LINE
  8
0
 10
118.645
 20
5140.42
 11
118.187
 21
5140.85
  0
LINE
  8
0
 10
118.187
 20
5140.85
 11
117.679
 21
5141.22
  0
LINE
  8
0
 10
117.679
 20
5141.22
 11
117.129
 21
5141.52
  0
LINE
  8
0
 10
117.129
 20
5141.52
 11
116.545
 21
5141.76
  0
LINE
  8
0
 10
116.545
 20
5141.76
 11
115.937
 21
5141.91
  0
LINE
  8
0
 10
115.937
 20
5141.91
 11
115.314
 21
5141.99
  0
LINE
  8
0
 10
115.314
 20
5141.99
 11
-115.314
 21
5141.99
  0
LINE
  8
0
 10
-115.314
 20
5141.99
 11
-115.937
 21
5141.91
  0
LINE
  8
0
 10
-115.937
 20
5141.91
 11
-116.545
 21
5141.76
  0
LINE
  8
0
 10
-116.545
 20
5141.76
 11
-117.129
 21
5141.52
  0
LINE
  8
0
 10
-117.129
 20
5141.52
 11
-117.679
 21
5141.22
  0
LINE
  8
0
 10
-117.679
 20
5141.22
 11
-118.187
 21
5140.85
  0
LINE
  8
0
 10
-118.187
 20
5140.85
 11
-118.5
 21
5140.56
  0
LINE
  8
0
 10
-118.5
 20
5140.56
 11
-118.5
 21
5141.97
  0
LINE
  8
0
 10
-118.5
 20
5141.97
 11
-121.5
 21
5141.97
  0
LINE
  8
0
 10
-121.5
 20
5141.97
 11
-121.5
 21
4932.03
  0
LINE
  8
0
 10
-121.5
 20
4932.03
 11
-118.5
 21
4932.03
  0
LINE
  8
0
 10
-118.5
 20
4932.03
 11
-118.5
 21
4933.44
  0
LINE
  8
0
 10
-118.5
 20
4933.44
 11
-118.187
 21
4933.15
  0
LINE
  8
0
 10
-118.187
 20
4933.15
 11
-117.679
 21
4932.78
  0
LINE
  8
0
 10
-117.679
 20
4932.78
 11
-117.129
 21
4932.48
  0
LINE
  8
0
 10
-117.129
 20
4932.48
 11
-116.545
 21
4932.24
  0
LINE
  8
0
 10
-116.545
 20
4932.24
 11
-115.937
 21
4932.09
  0
LINE
  8
0
 10
-115.937
 20
4932.09
 11
-115.314
 21
4932.01
  0
LINE
  8
0
 10
-115.314
 20
4932.01
 11
115.314
 21
4932.01
  0
LINE
  8
0
 10
115.314
 20
4932.01
 11
115.937
 21
4932.09
  0
LINE
  8
0
 10
-114.751
 20
4933.51
 11
-115.25
 21
4933.57
  0
LINE
  8
0
 10
-115.25
 20
4933.57
 11
-115.736
 21
4933.7
  0
LINE
  8
0
 10
-115.736
 20
4933.7
 11
-116.203
 21
4933.88
  0
LINE
  8
0
 10
-116.203
 20
4933.88
 11
-116.643
 21
4934.12
  0
LINE
  8
0
 10
-116.643
 20
4934.12
 11
-117.05
 21
4934.42
  0
LINE
  8
0
 10
-117.05
 20
4934.42
 11
-117.416
 21
4934.76
  0
LINE
  8
0
 10
-117.416
 20
4934.76
 11
-117.736
 21
4935.15
  0
LINE
  8
0
 10
-117.736
 20
4935.15
 11
-118.005
 21
4935.57
  0
LINE
  8
0
 10
-118.005
 20
4935.57
 11
-118.219
 21
4936.03
  0
LINE
  8
0
 10
-118.219
 20
4936.03
 11
-118.374
 21
4936.51
  0
LINE
  8
0
 10
-118.374
 20
4936.51
 11
-118.468
 21
4937
  0
LINE
  8
0
 10
-118.468
 20
4937
 11
-118.5
 21
4937.5
  0
LINE
  8
0
 10
-118.5
 20
4937.5
 11
-118.5
 21
5136.5
  0
LINE
  8
0
 10
-118.5
 20
5136.5
 11
-118.468
 21
5137
  0
LINE
  8
0
 10
-118.468
 20
5137
 11
-118.374
 21
5137.49
  0
LINE
  8
0
 10
-118.374
 20
5137.49
 11
-118.219
 21
5137.97
  0
LINE
  8
0
 10
-118.219
 20
5137.97
 11
-118.005
 21
5138.43
  0
LINE
  8
0
 10
-118.005
 20
5138.43
 11
-117.736
 21
5138.85
  0
LINE
  8
0
 10
-117.736
 20
5138.85
 11
-117.416
 21
5139.24
  0
LINE
  8
0
 10
-117.416
 20
5139.24
 11
-117.05
 21
5139.58
  0
LINE
  8
0
 10
-117.05
 20
5139.58
 11
-116.643
 21
5139.88
  0
LINE
  8
0
 10
-116.643
 20
5139.88
 11
-116.203
 21
5140.12
  0
LINE
  8
0
 10
-116.203
 20
5140.12
 11
-115.736
 21
5140.3
  0
LINE
  8
0
 10
-115.736
 20
5140.3
 11
-115.25
 21
5140.43
  0
LINE
  8
0
 10
-115.25
 20
5140.43
 11
-114.751
 21
5140.49
  0
LINE
  8
0
 10
-114.751
 20
5140.49
 11
114.751
 21
5140.49
  0
LINE
  8
0
 10
114.751
 20
5140.49
 11
115.25
 21
5140.43
  0
LINE
  8
0
 10
115.25
 20
5140.43
 11
115.736
 21
5140.3
  0
LINE
  8
0
 10
115.736
 20
5140.3
 11
116.203
 21
5140.12
  0
LINE
  8
0
 10
116.203
 20
5140.12
 11
116.643
 21
5139.88
  0
LINE
  8
0
 10
116.643
 20
5139.88
 11
117.05
 21
5139.58
  0
LINE
  8
0
 10
117.05
 20
5139.58
 11
117.416
 21
5139.24
  0
LINE
  8
0
 10
117.416
 20
5139.24
 11
117.736
 21
5138.85
  0
LINE
  8
0
 10
117.736
 20
5138.85
 11
118.005
 21
5138.43
  0
LINE
  8
0
 10
118.005
 20
5138.43
 11
118.219
 21
5137.97
  0
LINE
  8
0
 10
118.219
 20
5137.97
 11
118.374
 21
5137.49
  0
LINE
  8
0
 10
118.374
 20
5137.49
 11
118.468
 21
5137
  0
LINE
  8
0
 10
118.468
 20
5137
 11
118.5
 21
5136.5
  0
LINE
  8
0
 10
118.5
 20
5136.5
 11
118.5
 21
4937.5
  0
LINE
  8
0
 10
118.5
 20
4937.5
 11
118.468
 21
4937
  0
LINE
  8
0
 10
118.468
 20
4937
 11
118.374
 21
4936.51
  0
LINE
  8
0
 10
118.374
 20
4936.51
 11
118.219
 21
4936.03
  0
LINE
  8
0
 10
118.219
 20
4936.03
 11
118.005
 21
4935.57
  0
LINE
  8
0
 10
118.005
 20
4935.57
 11
117.736
 21
4935.15
  0
LINE
  8
0
 10
117.736
 20
4935.15
 11
117.416
 21
4934.76
  0
LINE
  8
0
 10
117.416
 20
4934.76
 11
117.05
 21
4934.42
  0
LINE
  8
0
 10
117.05
 20
4934.42
 11
116.643
 21
4934.12
  0
LINE
  8
0
 10
116.643
 20
4934.12
 11
116.203
 21
4933.88
  0
LINE
  8
0
 10
116.203
 20
4933.88
 11
115.736
 21
4933.7
  0
LINE
  8
0
 10
115.736
 20
4933.7
 11
115.25
 21
4933.57
  0
LINE
  8
0
 10
115.25
 20
4933.57
 11
114.751
 21
4933.51
  0
LINE
  8
0
 10
114.751
 20
4933.51
 11
-114.751
 21
4933.51
  0
LINE
  8
0
 10
-118.5
 20
4714.44
 11
-118.187
 21
4714.15
  0
LINE
  8
0
 10
-118.187
 20
4714.15
 11
-117.679
 21
4713.78
  0
LINE
  8
0
 10
-117.679
 20
4713.78
 11
-117.129
 21
4713.48
  0
LINE
  8
0
 10
-117.129
 20
4713.48
 11
-116.545
 21
4713.24
  0
LINE
  8
0
 10
-116.545
 20
4713.24
 11
-115.937
 21
4713.09
  0
LINE
  8
0
 10
-115.937
 20
4713.09
 11
-115.314
 21
4713.01
  0
LINE
  8
0
 10
-115.314
 20
4713.01
 11
115.314
 21
4713.01
  0
LINE
  8
0
 10
115.314
 20
4713.01
 11
115.937
 21
4713.09
  0
LINE
  8
0
 10
115.937
 20
4713.09
 11
116.545
 21
4713.24
  0
LINE
  8
0
 10
116.545
 20
4713.24
 11
117.129
 21
4713.48
  0
LINE
  8
0
 10
117.129
 20
4713.48
 11
117.679
 21
4713.78
  0
LINE
  8
0
 10
117.679
 20
4713.78
 11
118.187
 21
4714.15
  0
LINE
  8
0
 10
118.187
 20
4714.15
 11
118.645
 21
4714.58
  0
LINE
  8
0
 10
118.645
 20
4714.58
 11
119.045
 21
4715.06
  0
LINE
  8
0
 10
119.045
 20
4715.06
 11
119.382
 21
4715.59
  0
LINE
  8
0
 10
119.382
 20
4715.59
 11
119.649
 21
4716.16
  0
LINE
  8
0
 10
119.649
 20
4716.16
 11
119.843
 21
4716.76
  0
LINE
  8
0
 10
119.843
 20
4716.76
 11
119.961
 21
4717.37
  0
LINE
  8
0
 10
119.961
 20
4717.37
 11
120
 21
4718
  0
LINE
  8
0
 10
120
 20
4718
 11
120
 21
4918
  0
LINE
  8
0
 10
120
 20
4918
 11
119.961
 21
4918.63
  0
LINE
  8
0
 10
119.961
 20
4918.63
 11
119.843
 21
4919.24
  0
LINE
  8
0
 10
119.843
 20
4919.24
 11
119.649
 21
4919.84
  0
LINE
  8
0
 10
119.649
 20
4919.84
 11
119.382
 21
4920.41
  0
LINE
  8
0
 10
119.382
 20
4920.41
 11
119.045
 21
4920.94
  0
LINE
  8
0
 10
119.045
 20
4920.94
 11
118.645
 21
4921.42
  0
LINE
  8
0
 10
118.645
 20
4921.42
 11
118.187
 21
4921.85
  0
LINE
  8
0
 10
118.187
 20
4921.85
 11
117.679
 21
4922.22
  0
LINE
  8
0
 10
117.679
 20
4922.22
 11
117.129
 21
4922.52
  0
LINE
  8
0
 10
117.129
 20
4922.52
 11
116.545
 21
4922.76
  0
LINE
  8
0
 10
116.545
 20
4922.76
 11
115.937
 21
4922.91
  0
LINE
  8
0
 10
115.937
 20
4922.91
 11
115.314
 21
4922.99
  0
LINE
  8
0
 10
115.314
 20
4922.99
 11
-115.314
 21
4922.99
  0
LINE
  8
0
 10
-115.314
 20
4922.99
 11
-115.937
 21
4922.91
  0
LINE
  8
0
 10
-115.937
 20
4922.91
 11
-116.545
 21
4922.76
  0
LINE
  8
0
 10
-116.545
 20
4922.76
 11
-117.129
 21
4922.52
  0
LINE
  8
0
 10
-117.129
 20
4922.52
 11
-117.679
 21
4922.22
  0
LINE
  8
0
 10
-117.679
 20
4922.22
 11
-118.187
 21
4921.85
  0
LINE
  8
0
 10
-118.187
 20
4921.85
 11
-118.5
 21
4921.56
  0
LINE
  8
0
 10
-118.5
 20
4921.56
 11
-118.5
 21
4922.99
  0
LINE
  8
0
 10
-118.5
 20
4922.99
 11
-121.5
 21
4922.99
  0
LINE
  8
0
 10
-121.5
 20
4922.99
 11
-121.5
 21
4918.49
  0
LINE
  8
0
 10
-121.5
 20
4918.49
 11
-118.374
 21
4918.49
  0
LINE
  8
0
 10
-118.374
 20
4918.49
 11
-118.374
 21
4918.49
  0
LINE
  8
0
 10
-118.374
 20
4918.49
 11
-118.219
 21
4918.97
  0
LINE
  8
0
 10
-118.219
 20
4918.97
 11
-118.005
 21
4919.43
  0
LINE
  8
0
 10
-118.005
 20
4919.43
 11
-117.736
 21
4919.85
  0
LINE
  8
0
 10
-117.736
 20
4919.85
 11
-117.416
 21
4920.24
  0
LINE
  8
0
 10
-117.416
 20
4920.24
 11
-117.05
 21
4920.58
  0
LINE
  8
0
 10
-117.05
 20
4920.58
 11
-116.643
 21
4920.88
  0
LINE
  8
0
 10
-116.643
 20
4920.88
 11
-116.203
 21
4921.12
  0
LINE
  8
0
 10
-116.203
 20
4921.12
 11
-115.736
 21
4921.3
  0
LINE
  8
0
 10
-115.736
 20
4921.3
 11
-115.25
 21
4921.43
  0
LINE
  8
0
 10
-115.25
 20
4921.43
 11
-114.751
 21
4921.49
  0
LINE
  8
0
 10
-114.751
 20
4921.49
 11
114.751
 21
4921.49
  0
LINE
  8
0
 10
114.751
 20
4921.49
 11
115.25
 21
4921.43
  0
LINE
  8
0
 10
115.25
 20
4921.43
 11
115.736
 21
4921.3
  0
LINE
  8
0
 10
115.736
 20
4921.3
 11
116.203
 21
4921.12
  0
LINE
  8
0
 10
116.203
 20
4921.12
 11
116.643
 21
4920.88
  0
LINE
  8
0
 10
116.643
 20
4920.88
 11
117.05
 21
4920.58
  0
LINE
  8
0
 10
117.05
 20
4920.58
 11
117.416
 21
4920.24
  0
LINE
  8
0
 10
117.416
 20
4920.24
 11
117.736
 21
4919.85
  0
LINE
  8
0
 10
117.736
 20
4919.85
 11
118.005
 21
4919.43
  0
LINE
  8
0
 10
118.005
 20
4919.43
 11
118.219
 21
4918.97
  0
LINE
  8
0
 10
118.219
 20
4918.97
 11
118.374
 21
4918.49
  0
LINE
  8
0
 10
118.374
 20
4918.49
 11
118.468
 21
4918
  0
LINE
  8
0
 10
118.468
 20
4918
 11
118.5
 21
4917.5
  0
LINE
  8
0
 10
118.5
 20
4917.5
 11
118.5
 21
4718.5
  0
LINE
  8
0
 10
118.5
 20
4718.5
 11
118.468
 21
4718
  0
LINE
  8
0
 10
118.468
 20
4718
 11
118.374
 21
4717.51
  0
LINE
  8
0
 10
118.374
 20
4717.51
 11
118.219
 21
4717.03
  0
LINE
  8
0
 10
118.219
 20
4717.03
 11
118.005
 21
4716.57
  0
LINE
  8
0
 10
118.005
 20
4716.57
 11
117.736
 21
4716.15
  0
LINE
  8
0
 10
117.736
 20
4716.15
 11
117.416
 21
4715.76
  0
LINE
  8
0
 10
117.416
 20
4715.76
 11
117.05
 21
4715.42
  0
LINE
  8
0
 10
117.05
 20
4715.42
 11
116.643
 21
4715.12
  0
LINE
  8
0
 10
116.643
 20
4715.12
 11
116.203
 21
4714.88
  0
LINE
  8
0
 10
116.203
 20
4714.88
 11
115.736
 21
4714.7
  0
LINE
  8
0
 10
115.736
 20
4714.7
 11
115.25
 21
4714.57
  0
LINE
  8
0
 10
115.25
 20
4714.57
 11
114.751
 21
4714.51
  0
LINE
  8
0
 10
114.751
 20
4714.51
 11
-114.751
 21
4714.51
  0
LINE
  8
0
 10
-114.751
 20
4714.51
 11
-115.25
 21
4714.57
  0
LINE
  8
0
 10
-115.25
 20
4714.57
 11
-115.736
 21
4714.7
  0
LINE
  8
0
 10
-115.736
 20
4714.7
 11
-116.203
 21
4714.88
  0
LINE
  8
0
 10
-116.203
 20
4714.88
 11
-116.643
 21
4715.12
  0
LINE
  8
0
 10
-116.643
 20
4715.12
 11
-117.05
 21
4715.42
  0
LINE
  8
0
 10
-117.05
 20
4715.42
 11
-117.416
 21
4715.76
  0
LINE
  8
0
 10
-117.416
 20
4715.76
 11
-117.736
 21
4716.15
  0
LINE
  8
0
 10
-117.736
 20
4716.15
 11
-118.005
 21
4716.57
  0
LINE
  8
0
 10
-118.005
 20
4716.57
 11
-118.219
 21
4717.03
  0
LINE
  8
0
 10
-118.219
 20
4717.03
 11
-118.374
 21
4717.51
  0
LINE
  8
0
 10
-118.374
 20
4717.51
 11
-118.374
 21
4717.51
  0
LINE
  8
0
 10
-118.374
 20
4717.51
 11
-121.5
 21
4717.51
  0
LINE
  8
0
 10
-121.5
 20
4717.51
 11
-121.5
 21
4713.01
  0
LINE
  8
0
 10
-121.5
 20
4713.01
 11
-118.5
 21
4713.01
  0
LINE
  8
0
 10
-118.5
 20
4713.01
 11
-118.5
 21
4714.44
  0
LINE
  8
0
 10
-118.5
 20
4912.51
 11
-121.5
 21
4912.51
  0
LINE
  8
0
 10
-121.5
 20
4912.51
 11
-121.5
 21
4903.49
  0
LINE
  8
0
 10
-121.5
 20
4903.49
 11
-118.5
 21
4903.49
  0
LINE
  8
0
 10
-118.5
 20
4903.49
 11
-118.5
 21
4912.51
  0
LINE
  8
0
 10
-118.5
 20
4897.51
 11
-121.5
 21
4897.51
  0
LINE
  8
0
 10
-121.5
 20
4897.51
 11
-121.5
 21
4888.49
  0
LINE
  8
0
 10
-121.5
 20
4888.49
 11
-118.5
 21
4888.49
  0
LINE
  8
0
 10
-118.5
 20
4888.49
 11
-118.5
 21
4897.51
  0
LINE
  8
0
 10
-118.5
 20
4882.51
 11
-121.5
 21
4882.51
  0
LINE
  8
0
 10
-121.5
 20
4882.51
 11
-121.5
 21
4873.49
  0
LINE
  8
0
 10
-121.5
 20
4873.49
 11
-118.5
 21
4873.49
  0
LINE
  8
0
 10
-118.5
 20
4873.49
 11
-118.5
 21
4882.51
  0
LINE
  8
0
 10
-118.5
 20
4867.51
 11
-121.5
 21
4867.51
  0
LINE
  8
0
 10
-121.5
 20
4867.51
 11
-121.5
 21
4858.49
  0
LINE
  8
0
 10
-121.5
 20
4858.49
 11
-118.5
 21
4858.49
  0
LINE
  8
0
 10
-118.5
 20
4858.49
 11
-118.5
 21
4867.51
  0
LINE
  8
0
 10
-118.5
 20
4852.51
 11
-121.5
 21
4852.51
  0
LINE
  8
0
 10
-121.5
 20
4852.51
 11
-121.5
 21
4843.49
  0
LINE
  8
0
 10
-121.5
 20
4843.49
 11
-118.5
 21
4843.49
  0
LINE
  8
0
 10
-118.5
 20
4843.49
 11
-118.5
 21
4852.51
  0
LINE
  8
0
 10
-118.5
 20
4837.51
 11
-121.5
 21
4837.51
  0
LINE
  8
0
 10
-121.5
 20
4837.51
 11
-121.5
 21
4828.49
  0
LINE
  8
0
 10
-121.5
 20
4828.49
 11
-118.5
 21
4828.49
  0
LINE
  8
0
 10
-118.5
 20
4828.49
 11
-118.5
 21
4837.51
  0
LINE
  8
0
 10
-118.5
 20
4822.51
 11
-121.5
 21
4822.51
  0
LINE
  8
0
 10
-121.5
 20
4822.51
 11
-121.5
 21
4813.49
  0
LINE
  8
0
 10
-121.5
 20
4813.49
 11
-118.5
 21
4813.49
  0
LINE
  8
0
 10
-118.5
 20
4813.49
 11
-118.5
 21
4822.51
  0
LINE
  8
0
 10
-118.5
 20
4807.51
 11
-121.5
 21
4807.51
  0
LINE
  8
0
 10
-121.5
 20
4807.51
 11
-121.5
 21
4798.49
  0
LINE
  8
0
 10
-121.5
 20
4798.49
 11
-118.5
 21
4798.49
  0
LINE
  8
0
 10
-118.5
 20
4798.49
 11
-118.5
 21
4807.51
  0
LINE
  8
0
 10
-118.5
 20
4792.51
 11
-121.5
 21
4792.51
  0
LINE
  8
0
 10
-121.5
 20
4792.51
 11
-121.5
 21
4783.49
  0
LINE
  8
0
 10
-121.5
 20
4783.49
 11
-118.5
 21
4783.49
  0
LINE
  8
0
 10
-118.5
 20
4783.49
 11
-118.5
 21
4792.51
  0
LINE
  8
0
 10
-118.5
 20
4777.51
 11
-121.5
 21
4777.51
  0
LINE
  8
0
 10
-121.5
 20
4777.51
 11
-121.5
 21
4768.49
  0
LINE
  8
0
 10
-121.5
 20
4768.49
 11
-118.5
 21
4768.49
  0
LINE
  8
0
 10
-118.5
 20
4768.49
 11
-118.5
 21
4777.51
  0
LINE
  8
0
 10
-118.5
 20
4762.51
 11
-121.5
 21
4762.51
  0
LINE
  8
0
 10
-121.5
 20
4762.51
 11
-121.5
 21
4753.49
  0
LINE
  8
0
 10
-121.5
 20
4753.49
 11
-118.5
 21
4753.49
  0
LINE
  8
0
 10
-118.5
 20
4753.49
 11
-118.5
 21
4762.51
  0
LINE
  8
0
 10
-118.5
 20
4747.51
 11
-121.5
 21
4747.51
  0
LINE
  8
0
 10
-121.5
 20
4747.51
 11
-121.5
 21
4738.49
  0
LINE
  8
0
 10
-121.5
 20
4738.49
 11
-118.5
 21
4738.49
  0
LINE
  8
0
 10
-118.5
 20
4738.49
 11
-118.5
 21
4747.51
  0
LINE
  8
0
 10
-118.5
 20
4732.51
 11
-121.5
 21
4732.51
  0
LINE
  8
0
 10
-121.5
 20
4732.51
 11
-121.5
 21
4723.49
  0
LINE
  8
0
 10
-121.5
 20
4723.49
 11
-118.5
 21
4723.49
  0
LINE
  8
0
 10
-118.5
 20
4723.49
 11
-118.5
 21
4732.51
  0
LINE
  8
0
 10
-118.5
 20
4495.44
 11
-118.187
 21
4495.15
  0
LINE
  8
0
 10
-118.187
 20
4495.15
 11
-117.679
 21
4494.78
  0
LINE
  8
0
 10
-117.679
 20
4494.78
 11
-117.129
 21
4494.48
  0
LINE
  8
0
 10
-117.129
 20
4494.48
 11
-116.545
 21
4494.24
  0
LINE
  8
0
 10
-116.545
 20
4494.24
 11
-115.937
 21
4494.09
  0
LINE
  8
0
 10
-115.937
 20
4494.09
 11
-115.314
 21
4494.01
  0
LINE
  8
0
 10
-115.314
 20
4494.01
 11
115.314
 21
4494.01
  0
LINE
  8
0
 10
115.314
 20
4494.01
 11
115.937
 21
4494.09
  0
LINE
  8
0
 10
115.937
 20
4494.09
 11
116.545
 21
4494.24
  0
LINE
  8
0
 10
116.545
 20
4494.24
 11
117.129
 21
4494.48
  0
LINE
  8
0
 10
117.129
 20
4494.48
 11
117.679
 21
4494.78
  0
LINE
  8
0
 10
117.679
 20
4494.78
 11
118.187
 21
4495.15
  0
LINE
  8
0
 10
118.187
 20
4495.15
 11
118.645
 21
4495.58
  0
LINE
  8
0
 10
118.645
 20
4495.58
 11
119.045
 21
4496.06
  0
LINE
  8
0
 10
119.045
 20
4496.06
 11
119.382
 21
4496.59
  0
LINE
  8
0
 10
119.382
 20
4496.59
 11
119.649
 21
4497.16
  0
LINE
  8
0
 10
119.649
 20
4497.16
 11
119.843
 21
4497.76
  0
LINE
  8
0
 10
119.843
 20
4497.76
 11
119.961
 21
4498.37
  0
LINE
  8
0
 10
119.961
 20
4498.37
 11
120
 21
4499
  0
LINE
  8
0
 10
120
 20
4499
 11
120
 21
4699
  0
LINE
  8
0
 10
120
 20
4699
 11
119.961
 21
4699.63
  0
LINE
  8
0
 10
119.961
 20
4699.63
 11
119.843
 21
4700.24
  0
LINE
  8
0
 10
119.843
 20
4700.24
 11
119.649
 21
4700.84
  0
LINE
  8
0
 10
119.649
 20
4700.84
 11
119.382
 21
4701.41
  0
LINE
  8
0
 10
119.382
 20
4701.41
 11
119.045
 21
4701.94
  0
LINE
  8
0
 10
119.045
 20
4701.94
 11
118.645
 21
4702.42
  0
LINE
  8
0
 10
118.645
 20
4702.42
 11
118.187
 21
4702.85
  0
LINE
  8
0
 10
118.187
 20
4702.85
 11
117.679
 21
4703.22
  0
LINE
  8
0
 10
117.679
 20
4703.22
 11
117.129
 21
4703.52
  0
LINE
  8
0
 10
117.129
 20
4703.52
 11
116.545
 21
4703.76
  0
LINE
  8
0
 10
116.545
 20
4703.76
 11
115.937
 21
4703.91
  0
LINE
  8
0
 10
115.937
 20
4703.91
 11
115.314
 21
4703.99
  0
LINE
  8
0
 10
115.314
 20
4703.99
 11
-115.314
 21
4703.99
  0
LINE
  8
0
 10
-115.314
 20
4703.99
 11
-115.937
 21
4703.91
  0
LINE
  8
0
 10
-115.937
 20
4703.91
 11
-116.545
 21
4703.76
  0
LINE
  8
0
 10
-116.545
 20
4703.76
 11
-117.129
 21
4703.52
  0
LINE
  8
0
 10
-117.129
 20
4703.52
 11
-117.679
 21
4703.22
  0
LINE
  8
0
 10
-117.679
 20
4703.22
 11
-118.187
 21
4702.85
  0
LINE
  8
0
 10
-118.187
 20
4702.85
 11
-118.5
 21
4702.56
  0
LINE
  8
0
 10
-118.5
 20
4702.56
 11
-118.5
 21
4703.99
  0
LINE
  8
0
 10
-118.5
 20
4703.99
 11
-121.5
 21
4703.99
  0
LINE
  8
0
 10
-121.5
 20
4703.99
 11
-121.5
 21
4494.01
  0
LINE
  8
0
 10
-121.5
 20
4494.01
 11
-118.5
 21
4494.01
  0
LINE
  8
0
 10
-118.5
 20
4494.01
 11
-118.5
 21
4495.44
  0
LINE
  8
0
 10
-114.751
 20
4495.51
 11
-115.25
 21
4495.57
  0
LINE
  8
0
 10
-115.25
 20
4495.57
 11
-115.736
 21
4495.7
  0
LINE
  8
0
 10
-115.736
 20
4495.7
 11
-116.203
 21
4495.88
  0
LINE
  8
0
 10
-116.203
 20
4495.88
 11
-116.643
 21
4496.12
  0
LINE
  8
0
 10
-116.643
 20
4496.12
 11
-117.05
 21
4496.42
  0
LINE
  8
0
 10
-117.05
 20
4496.42
 11
-117.416
 21
4496.76
  0
LINE
  8
0
 10
-117.416
 20
4496.76
 11
-117.736
 21
4497.15
  0
LINE
  8
0
 10
-117.736
 20
4497.15
 11
-118.005
 21
4497.57
  0
LINE
  8
0
 10
-118.005
 20
4497.57
 11
-118.219
 21
4498.03
  0
LINE
  8
0
 10
-118.219
 20
4498.03
 11
-118.374
 21
4498.51
  0
LINE
  8
0
 10
-118.374
 20
4498.51
 11
-118.468
 21
4499
  0
LINE
  8
0
 10
-118.468
 20
4499
 11
-118.5
 21
4499.5
  0
LINE
  8
0
 10
-118.5
 20
4499.5
 11
-118.5
 21
4698.5
  0
LINE
  8
0
 10
-118.5
 20
4698.5
 11
-118.468
 21
4699
  0
LINE
  8
0
 10
-118.468
 20
4699
 11
-118.374
 21
4699.49
  0
LINE
  8
0
 10
-118.374
 20
4699.49
 11
-118.219
 21
4699.97
  0
LINE
  8
0
 10
-118.219
 20
4699.97
 11
-118.005
 21
4700.43
  0
LINE
  8
0
 10
-118.005
 20
4700.43
 11
-117.736
 21
4700.85
  0
LINE
  8
0
 10
-117.736
 20
4700.85
 11
-117.416
 21
4701.24
  0
LINE
  8
0
 10
-117.416
 20
4701.24
 11
-117.05
 21
4701.58
  0
LINE
  8
0
 10
-117.05
 20
4701.58
 11
-116.643
 21
4701.88
  0
LINE
  8
0
 10
-116.643
 20
4701.88
 11
-116.203
 21
4702.12
  0
LINE
  8
0
 10
-116.203
 20
4702.12
 11
-115.736
 21
4702.3
  0
LINE
  8
0
 10
-115.736
 20
4702.3
 11
-115.25
 21
4702.43
  0
LINE
  8
0
 10
-115.25
 20
4702.43
 11
-114.751
 21
4702.49
  0
LINE
  8
0
 10
-114.751
 20
4702.49
 11
114.751
 21
4702.49
  0
LINE
  8
0
 10
114.751
 20
4702.49
 11
115.25
 21
4702.43
  0
LINE
  8
0
 10
115.25
 20
4702.43
 11
115.736
 21
4702.3
  0
LINE
  8
0
 10
115.736
 20
4702.3
 11
116.203
 21
4702.12
  0
LINE
  8
0
 10
116.203
 20
4702.12
 11
116.643
 21
4701.88
  0
LINE
  8
0
 10
116.643
 20
4701.88
 11
117.05
 21
4701.58
  0
LINE
  8
0
 10
117.05
 20
4701.58
 11
117.416
 21
4701.24
  0
LINE
  8
0
 10
117.416
 20
4701.24
 11
117.736
 21
4700.85
  0
LINE
  8
0
 10
117.736
 20
4700.85
 11
118.005
 21
4700.43
  0
LINE
  8
0
 10
118.005
 20
4700.43
 11
118.219
 21
4699.97
  0
LINE
  8
0
 10
118.219
 20
4699.97
 11
118.374
 21
4699.49
  0
LINE
  8
0
 10
118.374
 20
4699.49
 11
118.468
 21
4699
  0
LINE
  8
0
 10
118.468
 20
4699
 11
118.5
 21
4698.5
  0
LINE
  8
0
 10
118.5
 20
4698.5
 11
118.5
 21
4499.5
  0
LINE
  8
0
 10
118.5
 20
4499.5
 11
118.468
 21
4499
  0
LINE
  8
0
 10
118.468
 20
4499
 11
118.374
 21
4498.51
  0
LINE
  8
0
 10
118.374
 20
4498.51
 11
118.219
 21
4498.03
  0
LINE
  8
0
 10
118.219
 20
4498.03
 11
118.005
 21
4497.57
  0
LINE
  8
0
 10
118.005
 20
4497.57
 11
117.736
 21
4497.15
  0
LINE
  8
0
 10
117.736
 20
4497.15
 11
117.416
 21
4496.76
  0
LINE
  8
0
 10
117.416
 20
4496.76
 11
117.05
 21
4496.42
  0
LINE
  8
0
 10
117.05
 20
4496.42
 11
116.643
 21
4496.12
  0
LINE
  8
0
 10
116.643
 20
4496.12
 11
116.203
 21
4495.88
  0
LINE
  8
0
 10
116.203
 20
4495.88
 11
115.736
 21
4495.7
  0
LINE
  8
0
 10
115.736
 20
4495.7
 11
115.25
 21
4495.57
  0
LINE
  8
0
 10
115.25
 20
4495.57
 11
114.751
 21
4495.51
  0
LINE
  8
0
 10
114.751
 20
4495.51
 11
-114.751
 21
4495.51
  0
LINE
  8
0
 10
-118.5
 20
4276.44
 11
-118.187
 21
4276.15
  0
LINE
  8
0
 10
-118.187
 20
4276.15
 11
-117.679
 21
4275.78
  0
LINE
  8
0
 10
-117.679
 20
4275.78
 11
-117.129
 21
4275.48
  0
LINE
  8
0
 10
-117.129
 20
4275.48
 11
-116.545
 21
4275.24
  0
LINE
  8
0
 10
-116.545
 20
4275.24
 11
-115.937
 21
4275.09
  0
LINE
  8
0
 10
-115.937
 20
4275.09
 11
-115.314
 21
4275.01
  0
LINE
  8
0
 10
-115.314
 20
4275.01
 11
115.314
 21
4275.01
  0
LINE
  8
0
 10
115.314
 20
4275.01
 11
115.937
 21
4275.09
  0
LINE
  8
0
 10
115.937
 20
4275.09
 11
116.545
 21
4275.24
  0
LINE
  8
0
 10
116.545
 20
4275.24
 11
117.129
 21
4275.48
  0
LINE
  8
0
 10
117.129
 20
4275.48
 11
117.679
 21
4275.78
  0
LINE
  8
0
 10
117.679
 20
4275.78
 11
118.187
 21
4276.15
  0
LINE
  8
0
 10
118.187
 20
4276.15
 11
118.645
 21
4276.58
  0
LINE
  8
0
 10
118.645
 20
4276.58
 11
119.045
 21
4277.06
  0
LINE
  8
0
 10
119.045
 20
4277.06
 11
119.382
 21
4277.59
  0
LINE
  8
0
 10
119.382
 20
4277.59
 11
119.649
 21
4278.16
  0
LINE
  8
0
 10
119.649
 20
4278.16
 11
119.843
 21
4278.76
  0
LINE
  8
0
 10
119.843
 20
4278.76
 11
119.961
 21
4279.37
  0
LINE
  8
0
 10
119.961
 20
4279.37
 11
120
 21
4280
  0
LINE
  8
0
 10
120
 20
4280
 11
120
 21
4480
  0
LINE
  8
0
 10
120
 20
4480
 11
119.961
 21
4480.63
  0
LINE
  8
0
 10
119.961
 20
4480.63
 11
119.843
 21
4481.24
  0
LINE
  8
0
 10
119.843
 20
4481.24
 11
119.649
 21
4481.84
  0
LINE
  8
0
 10
119.649
 20
4481.84
 11
119.382
 21
4482.41
  0
LINE
  8
0
 10
119.382
 20
4482.41
 11
119.045
 21
4482.94
  0
LINE
  8
0
 10
119.045
 20
4482.94
 11
118.645
 21
4483.42
  0
LINE
  8
0
 10
118.645
 20
4483.42
 11
118.187
 21
4483.85
  0
LINE
  8
0
 10
118.187
 20
4483.85
 11
117.679
 21
4484.22
  0
LINE
  8
0
 10
117.679
 20
4484.22
 11
117.129
 21
4484.52
  0
LINE
  8
0
 10
117.129
 20
4484.52
 11
116.545
 21
4484.76
  0
LINE
  8
0
 10
116.545
 20
4484.76
 11
115.937
 21
4484.91
  0
LINE
  8
0
 10
115.937
 20
4484.91
 11
115.314
 21
4484.99
  0
LINE
  8
0
 10
115.314
 20
4484.99
 11
-115.314
 21
4484.99
  0
LINE
  8
0
 10
-115.314
 20
4484.99
 11
-115.937
 21
4484.91
  0
LINE
  8
0
 10
-115.937
 20
4484.91
 11
-116.545
 21
4484.76
  0
LINE
  8
0
 10
-116.545
 20
4484.76
 11
-117.129
 21
4484.52
  0
LINE
  8
0
 10
-117.129
 20
4484.52
 11
-117.679
 21
4484.22
  0
LINE
  8
0
 10
-117.679
 20
4484.22
 11
-118.187
 21
4483.85
  0
LINE
  8
0
 10
-118.187
 20
4483.85
 11
-118.5
 21
4483.56
  0
LINE
  8
0
 10
-118.5
 20
4483.56
 11
-118.5
 21
4484.99
  0
LINE
  8
0
 10
-118.5
 20
4484.99
 11
-121.5
 21
4484.99
  0
LINE
  8
0
 10
-121.5
 20
4484.99
 11
-121.5
 21
4275.01
  0
LINE
  8
0
 10
-121.5
 20
4275.01
 11
-118.5
 21
4275.01
  0
LINE
  8
0
 10
-118.5
 20
4275.01
 11
-118.5
 21
4276.44
  0
LINE
  8
0
 10
-114.751
 20
4276.51
 11
-115.25
 21
4276.57
  0
LINE
  8
0
 10
-115.25
 20
4276.57
 11
-115.736
 21
4276.7
  0
LINE
  8
0
 10
-115.736
 20
4276.7
 11
-116.203
 21
4276.88
  0
LINE
  8
0
 10
-116.203
 20
4276.88
 11
-116.643
 21
4277.12
  0
LINE
  8
0
 10
-116.643
 20
4277.12
 11
-117.05
 21
4277.42
  0
LINE
  8
0
 10
-117.05
 20
4277.42
 11
-117.416
 21
4277.76
  0
LINE
  8
0
 10
-117.416
 20
4277.76
 11
-117.736
 21
4278.15
  0
LINE
  8
0
 10
-117.736
 20
4278.15
 11
-118.005
 21
4278.57
  0
LINE
  8
0
 10
-118.005
 20
4278.57
 11
-118.219
 21
4279.03
  0
LINE
  8
0
 10
-118.219
 20
4279.03
 11
-118.374
 21
4279.51
  0
LINE
  8
0
 10
-118.374
 20
4279.51
 11
-118.468
 21
4280
  0
LINE
  8
0
 10
-118.468
 20
4280
 11
-118.5
 21
4280.5
  0
LINE
  8
0
 10
-118.5
 20
4280.5
 11
-118.5
 21
4479.5
  0
LINE
  8
0
 10
-118.5
 20
4479.5
 11
-118.468
 21
4480
  0
LINE
  8
0
 10
-118.468
 20
4480
 11
-118.374
 21
4480.49
  0
LINE
  8
0
 10
-118.374
 20
4480.49
 11
-118.219
 21
4480.97
  0
LINE
  8
0
 10
-118.219
 20
4480.97
 11
-118.005
 21
4481.43
  0
LINE
  8
0
 10
-118.005
 20
4481.43
 11
-117.736
 21
4481.85
  0
LINE
  8
0
 10
-117.736
 20
4481.85
 11
-117.416
 21
4482.24
  0
LINE
  8
0
 10
-117.416
 20
4482.24
 11
-117.05
 21
4482.58
  0
LINE
  8
0
 10
-117.05
 20
4482.58
 11
-116.643
 21
4482.88
  0
LINE
  8
0
 10
-116.643
 20
4482.88
 11
-116.203
 21
4483.12
  0
LINE
  8
0
 10
-116.203
 20
4483.12
 11
-115.736
 21
4483.3
  0
LINE
  8
0
 10
-115.736
 20
4483.3
 11
-115.25
 21
4483.43
  0
LINE
  8
0
 10
-115.25
 20
4483.43
 11
-114.751
 21
4483.49
  0
LINE
  8
0
 10
-114.751
 20
4483.49
 11
114.751
 21
4483.49
  0
LINE
  8
0
 10
114.751
 20
4483.49
 11
115.25
 21
4483.43
  0
LINE
  8
0
 10
115.25
 20
4483.43
 11
115.736
 21
4483.3
  0
LINE
  8
0
 10
115.736
 20
4483.3
 11
116.203
 21
4483.12
  0
LINE
  8
0
 10
116.203
 20
4483.12
 11
116.643
 21
4482.88
  0
LINE
  8
0
 10
116.643
 20
4482.88
 11
117.05
 21
4482.58
  0
LINE
  8
0
 10
117.05
 20
4482.58
 11
117.416
 21
4482.24
  0
LINE
  8
0
 10
117.416
 20
4482.24
 11
117.736
 21
4481.85
  0
LINE
  8
0
 10
117.736
 20
4481.85
 11
118.005
 21
4481.43
  0
LINE
  8
0
 10
118.005
 20
4481.43
 11
118.219
 21
4480.97
  0
LINE
  8
0
 10
118.219
 20
4480.97
 11
118.374
 21
4480.49
  0
LINE
  8
0
 10
118.374
 20
4480.49
 11
118.468
 21
4480
  0
LINE
  8
0
 10
118.468
 20
4480
 11
118.5
 21
4479.5
  0
LINE
  8
0
 10
118.5
 20
4479.5
 11
118.5
 21
4280.5
  0
LINE
  8
0
 10
118.5
 20
4280.5
 11
118.468
 21
4280
  0
LINE
  8
0
 10
118.468
 20
4280
 11
118.374
 21
4279.51
  0
LINE
  8
0
 10
118.374
 20
4279.51
 11
118.219
 21
4279.03
  0
LINE
  8
0
 10
118.219
 20
4279.03
 11
118.005
 21
4278.57
  0
LINE
  8
0
 10
118.005
 20
4278.57
 11
117.736
 21
4278.15
  0
LINE
  8
0
 10
117.736
 20
4278.15
 11
117.416
 21
4277.76
  0
LINE
  8
0
 10
117.416
 20
4277.76
 11
117.05
 21
4277.42
  0
LINE
  8
0
 10
117.05
 20
4277.42
 11
116.643
 21
4277.12
  0
LINE
  8
0
 10
116.643
 20
4277.12
 11
116.203
 21
4276.88
  0
LINE
  8
0
 10
116.203
 20
4276.88
 11
115.736
 21
4276.7
  0
LINE
  8
0
 10
115.736
 20
4276.7
 11
115.25
 21
4276.57
  0
LINE
  8
0
 10
115.25
 20
4276.57
 11
114.751
 21
4276.51
  0
LINE
  8
0
 10
114.751
 20
4276.51
 11
-114.751
 21
4276.51
  0
LINE
  8
0
 10
-118.5
 20
4057.44
 11
-118.187
 21
4057.15
  0
LINE
  8
0
 10
-118.187
 20
4057.15
 11
-117.679
 21
4056.78
  0
LINE
  8
0
 10
-117.679
 20
4056.78
 11
-117.129
 21
4056.48
  0
LINE
  8
0
 10
-117.129
 20
4056.48
 11
-116.545
 21
4056.24
  0
LINE
  8
0
 10
-116.545
 20
4056.24
 11
-115.937
 21
4056.09
  0
LINE
  8
0
 10
-115.937
 20
4056.09
 11
-115.314
 21
4056.01
  0
LINE
  8
0
 10
-115.314
 20
4056.01
 11
115.314
 21
4056.01
  0
LINE
  8
0
 10
115.314
 20
4056.01
 11
115.937
 21
4056.09
  0
LINE
  8
0
 10
115.937
 20
4056.09
 11
116.545
 21
4056.24
  0
LINE
  8
0
 10
116.545
 20
4056.24
 11
117.129
 21
4056.48
  0
LINE
  8
0
 10
117.129
 20
4056.48
 11
117.679
 21
4056.78
  0
LINE
  8
0
 10
117.679
 20
4056.78
 11
118.187
 21
4057.15
  0
LINE
  8
0
 10
118.187
 20
4057.15
 11
118.645
 21
4057.58
  0
LINE
  8
0
 10
118.645
 20
4057.58
 11
119.045
 21
4058.06
  0
LINE
  8
0
 10
119.045
 20
4058.06
 11
119.382
 21
4058.59
  0
LINE
  8
0
 10
119.382
 20
4058.59
 11
119.649
 21
4059.16
  0
LINE
  8
0
 10
119.649
 20
4059.16
 11
119.843
 21
4059.76
  0
LINE
  8
0
 10
119.843
 20
4059.76
 11
119.961
 21
4060.37
  0
LINE
  8
0
 10
119.961
 20
4060.37
 11
120
 21
4061
  0
LINE
  8
0
 10
120
 20
4061
 11
120
 21
4261
  0
LINE
  8
0
 10
120
 20
4261
 11
119.961
 21
4261.63
  0
LINE
  8
0
 10
119.961
 20
4261.63
 11
119.843
 21
4262.24
  0
LINE
  8
0
 10
119.843
 20
4262.24
 11
119.649
 21
4262.84
  0
LINE
  8
0
 10
119.649
 20
4262.84
 11
119.382
 21
4263.41
  0
LINE
  8
0
 10
119.382
 20
4263.41
 11
119.045
 21
4263.94
  0
LINE
  8
0
 10
119.045
 20
4263.94
 11
118.645
 21
4264.42
  0
LINE
  8
0
 10
118.645
 20
4264.42
 11
118.187
 21
4264.85
  0
LINE
  8
0
 10
118.187
 20
4264.85
 11
117.679
 21
4265.22
  0
LINE
  8
0
 10
117.679
 20
4265.22
 11
117.129
 21
4265.52
  0
LINE
  8
0
 10
117.129
 20
4265.52
 11
116.545
 21
4265.76
  0
LINE
  8
0
 10
116.545
 20
4265.76
 11
115.937
 21
4265.91
  0
LINE
  8
0
 10
115.937
 20
4265.91
 11
115.314
 21
4265.99
  0
LINE
  8
0
 10
115.314
 20
4265.99
 11
-115.314
 21
4265.99
  0
LINE
  8
0
 10
-115.314
 20
4265.99
 11
-115.937
 21
4265.91
  0
LINE
  8
0
 10
-115.937
 20
4265.91
 11
-116.545
 21
4265.76
  0
LINE
  8
0
 10
-116.545
 20
4265.76
 11
-117.129
 21
4265.52
  0
LINE
  8
0
 10
-117.129
 20
4265.52
 11
-117.679
 21
4265.22
  0
LINE
  8
0
 10
-117.679
 20
4265.22
 11
-118.187
 21
4264.85
  0
LINE
  8
0
 10
-118.187
 20
4264.85
 11
-118.5
 21
4264.56
  0
LINE
  8
0
 10
-118.5
 20
4264.56
 11
-118.5
 21
4265.99
  0
LINE
  8
0
 10
-118.5
 20
4265.99
 11
-121.5
 21
4265.99
  0
LINE
  8
0
 10
-121.5
 20
4265.99
 11
-121.5
 21
4056.01
  0
LINE
  8
0
 10
-121.5
 20
4056.01
 11
-118.5
 21
4056.01
  0
LINE
  8
0
 10
-118.5
 20
4056.01
 11
-118.5
 21
4057.44
  0
LINE
  8
0
 10
-114.751
 20
4057.51
 11
-115.25
 21
4057.57
  0
LINE
  8
0
 10
-115.25
 20
4057.57
 11
-115.736
 21
4057.7
  0
LINE
  8
0
 10
-115.736
 20
4057.7
 11
-116.203
 21
4057.88
  0
LINE
  8
0
 10
-116.203
 20
4057.88
 11
-116.643
 21
4058.12
  0
LINE
  8
0
 10
-116.643
 20
4058.12
 11
-117.05
 21
4058.42
  0
LINE
  8
0
 10
-117.05
 20
4058.42
 11
-117.416
 21
4058.76
  0
LINE
  8
0
 10
-117.416
 20
4058.76
 11
-117.736
 21
4059.15
  0
LINE
  8
0
 10
-117.736
 20
4059.15
 11
-118.005
 21
4059.57
  0
LINE
  8
0
 10
-118.005
 20
4059.57
 11
-118.219
 21
4060.03
  0
LINE
  8
0
 10
-118.219
 20
4060.03
 11
-118.374
 21
4060.51
  0
LINE
  8
0
 10
-118.374
 20
4060.51
 11
-118.468
 21
4061
  0
LINE
  8
0
 10
-118.468
 20
4061
 11
-118.5
 21
4061.5
  0
LINE
  8
0
 10
-118.5
 20
4061.5
 11
-118.5
 21
4260.5
  0
LINE
  8
0
 10
-118.5
 20
4260.5
 11
-118.468
 21
4261
  0
LINE
  8
0
 10
-118.468
 20
4261
 11
-118.374
 21
4261.49
  0
LINE
  8
0
 10
-118.374
 20
4261.49
 11
-118.219
 21
4261.97
  0
LINE
  8
0
 10
-118.219
 20
4261.97
 11
-118.005
 21
4262.43
  0
LINE
  8
0
 10
-118.005
 20
4262.43
 11
-117.736
 21
4262.85
  0
LINE
  8
0
 10
-117.736
 20
4262.85
 11
-117.416
 21
4263.24
  0
LINE
  8
0
 10
-117.416
 20
4263.24
 11
-117.05
 21
4263.58
  0
LINE
  8
0
 10
-117.05
 20
4263.58
 11
-116.643
 21
4263.88
  0
LINE
  8
0
 10
-116.643
 20
4263.88
 11
-116.203
 21
4264.12
  0
LINE
  8
0
 10
-116.203
 20
4264.12
 11
-115.736
 21
4264.3
  0
LINE
  8
0
 10
-115.736
 20
4264.3
 11
-115.25
 21
4264.43
  0
LINE
  8
0
 10
-115.25
 20
4264.43
 11
-114.751
 21
4264.49
  0
LINE
  8
0
 10
-114.751
 20
4264.49
 11
114.751
 21
4264.49
  0
LINE
  8
0
 10
114.751
 20
4264.49
 11
115.25
 21
4264.43
  0
LINE
  8
0
 10
115.25
 20
4264.43
 11
115.736
 21
4264.3
  0
LINE
  8
0
 10
115.736
 20
4264.3
 11
116.203
 21
4264.12
  0
LINE
  8
0
 10
116.203
 20
4264.12
 11
116.643
 21
4263.88
  0
LINE
  8
0
 10
116.643
 20
4263.88
 11
117.05
 21
4263.58
  0
LINE
  8
0
 10
117.05
 20
4263.58
 11
117.416
 21
4263.24
  0
LINE
  8
0
 10
117.416
 20
4263.24
 11
117.736
 21
4262.85
  0
LINE
  8
0
 10
117.736
 20
4262.85
 11
118.005
 21
4262.43
  0
LINE
  8
0
 10
118.005
 20
4262.43
 11
118.219
 21
4261.97
  0
LINE
  8
0
 10
118.219
 20
4261.97
 11
118.374
 21
4261.49
  0
LINE
  8
0
 10
118.374
 20
4261.49
 11
118.468
 21
4261
  0
LINE
  8
0
 10
118.468
 20
4261
 11
118.5
 21
4260.5
  0
LINE
  8
0
 10
118.5
 20
4260.5
 11
118.5
 21
4061.5
  0
LINE
  8
0
 10
118.5
 20
4061.5
 11
118.468
 21
4061
  0
LINE
  8
0
 10
118.468
 20
4061
 11
118.374
 21
4060.51
  0
LINE
  8
0
 10
118.374
 20
4060.51
 11
118.219
 21
4060.03
  0
LINE
  8
0
 10
118.219
 20
4060.03
 11
118.005
 21
4059.57
  0
LINE
  8
0
 10
118.005
 20
4059.57
 11
117.736
 21
4059.15
  0
LINE
  8
0
 10
117.736
 20
4059.15
 11
117.416
 21
4058.76
  0
LINE
  8
0
 10
117.416
 20
4058.76
 11
117.05
 21
4058.42
  0
LINE
  8
0
 10
117.05
 20
4058.42
 11
116.643
 21
4058.12
  0
LINE
  8
0
 10
116.643
 20
4058.12
 11
116.203
 21
4057.88
  0
LINE
  8
0
 10
116.203
 20
4057.88
 11
115.736
 21
4057.7
  0
LINE
  8
0
 10
115.736
 20
4057.7
 11
115.25
 21
4057.57
  0
LINE
  8
0
 10
115.25
 20
4057.57
 11
114.751
 21
4057.51
  0
LINE
  8
0
 10
114.751
 20
4057.51
 11
-114.751
 21
4057.51
  0
LINE
  8
0
 10
-118.5
 20
3838.44
 11
-118.187
 21
3838.15
  0
LINE
  8
0
 10
-118.187
 20
3838.15
 11
-117.679
 21
3837.78
  0
LINE
  8
0
 10
-117.679
 20
3837.78
 11
-117.129
 21
3837.48
  0
LINE
  8
0
 10
-117.129
 20
3837.48
 11
-116.545
 21
3837.24
  0
LINE
  8
0
 10
-116.545
 20
3837.24
 11
-115.937
 21
3837.09
  0
LINE
  8
0
 10
-115.937
 20
3837.09
 11
-115.314
 21
3837.01
  0
LINE
  8
0
 10
-115.314
 20
3837.01
 11
115.314
 21
3837.01
  0
LINE
  8
0
 10
115.314
 20
3837.01
 11
115.937
 21
3837.09
  0
LINE
  8
0
 10
115.937
 20
3837.09
 11
116.545
 21
3837.24
  0
LINE
  8
0
 10
116.545
 20
3837.24
 11
117.129
 21
3837.48
  0
LINE
  8
0
 10
117.129
 20
3837.48
 11
117.679
 21
3837.78
  0
LINE
  8
0
 10
117.679
 20
3837.78
 11
118.187
 21
3838.15
  0
LINE
  8
0
 10
118.187
 20
3838.15
 11
118.645
 21
3838.58
  0
LINE
  8
0
 10
118.645
 20
3838.58
 11
119.045
 21
3839.06
  0
LINE
  8
0
 10
119.045
 20
3839.06
 11
119.382
 21
3839.59
  0
LINE
  8
0
 10
119.382
 20
3839.59
 11
119.649
 21
3840.16
  0
LINE
  8
0
 10
119.649
 20
3840.16
 11
119.843
 21
3840.76
  0
LINE
  8
0
 10
119.843
 20
3840.76
 11
119.961
 21
3841.37
  0
LINE
  8
0
 10
119.961
 20
3841.37
 11
120
 21
3842
  0
LINE
  8
0
 10
120
 20
3842
 11
120
 21
4042
  0
LINE
  8
0
 10
120
 20
4042
 11
119.961
 21
4042.63
  0
LINE
  8
0
 10
119.961
 20
4042.63
 11
119.843
 21
4043.24
  0
LINE
  8
0
 10
119.843
 20
4043.24
 11
119.649
 21
4043.84
  0
LINE
  8
0
 10
119.649
 20
4043.84
 11
119.382
 21
4044.41
  0
LINE
  8
0
 10
119.382
 20
4044.41
 11
119.045
 21
4044.94
  0
LINE
  8
0
 10
119.045
 20
4044.94
 11
118.645
 21
4045.42
  0
LINE
  8
0
 10
118.645
 20
4045.42
 11
118.187
 21
4045.85
  0
LINE
  8
0
 10
118.187
 20
4045.85
 11
117.679
 21
4046.22
  0
LINE
  8
0
 10
117.679
 20
4046.22
 11
117.129
 21
4046.52
  0
LINE
  8
0
 10
117.129
 20
4046.52
 11
116.545
 21
4046.76
  0
LINE
  8
0
 10
116.545
 20
4046.76
 11
115.937
 21
4046.91
  0
LINE
  8
0
 10
115.937
 20
4046.91
 11
115.314
 21
4046.99
  0
LINE
  8
0
 10
115.314
 20
4046.99
 11
-115.314
 21
4046.99
  0
LINE
  8
0
 10
-115.314
 20
4046.99
 11
-115.937
 21
4046.91
  0
LINE
  8
0
 10
-115.937
 20
4046.91
 11
-116.545
 21
4046.76
  0
LINE
  8
0
 10
-116.545
 20
4046.76
 11
-117.129
 21
4046.52
  0
LINE
  8
0
 10
-117.129
 20
4046.52
 11
-117.679
 21
4046.22
  0
LINE
  8
0
 10
-117.679
 20
4046.22
 11
-118.187
 21
4045.85
  0
LINE
  8
0
 10
-118.187
 20
4045.85
 11
-118.5
 21
4045.56
  0
LINE
  8
0
 10
-118.5
 20
4045.56
 11
-118.5
 21
4046.99
  0
LINE
  8
0
 10
-118.5
 20
4046.99
 11
-121.5
 21
4046.99
  0
LINE
  8
0
 10
-121.5
 20
4046.99
 11
-121.5
 21
3837.01
  0
LINE
  8
0
 10
-121.5
 20
3837.01
 11
-118.5
 21
3837.01
  0
LINE
  8
0
 10
-118.5
 20
3837.01
 11
-118.5
 21
3838.44
  0
LINE
  8
0
 10
-114.751
 20
3838.51
 11
-115.25
 21
3838.57
  0
LINE
  8
0
 10
-115.25
 20
3838.57
 11
-115.736
 21
3838.7
  0
LINE
  8
0
 10
-115.736
 20
3838.7
 11
-116.203
 21
3838.88
  0
LINE
  8
0
 10
-116.203
 20
3838.88
 11
-116.643
 21
3839.12
  0
LINE
  8
0
 10
-116.643
 20
3839.12
 11
-117.05
 21
3839.42
  0
LINE
  8
0
 10
-117.05
 20
3839.42
 11
-117.416
 21
3839.76
  0
LINE
  8
0
 10
-117.416
 20
3839.76
 11
-117.736
 21
3840.15
  0
LINE
  8
0
 10
-117.736
 20
3840.15
 11
-118.005
 21
3840.57
  0
LINE
  8
0
 10
-118.005
 20
3840.57
 11
-118.219
 21
3841.03
  0
LINE
  8
0
 10
-118.219
 20
3841.03
 11
-118.374
 21
3841.51
  0
LINE
  8
0
 10
-118.374
 20
3841.51
 11
-118.468
 21
3842
  0
LINE
  8
0
 10
-118.468
 20
3842
 11
-118.5
 21
3842.5
  0
LINE
  8
0
 10
-118.5
 20
3842.5
 11
-118.5
 21
4041.5
  0
LINE
  8
0
 10
-118.5
 20
4041.5
 11
-118.468
 21
4042
  0
LINE
  8
0
 10
-118.468
 20
4042
 11
-118.374
 21
4042.49
  0
LINE
  8
0
 10
-118.374
 20
4042.49
 11
-118.219
 21
4042.97
  0
LINE
  8
0
 10
-118.219
 20
4042.97
 11
-118.005
 21
4043.43
  0
LINE
  8
0
 10
-118.005
 20
4043.43
 11
-117.736
 21
4043.85
  0
LINE
  8
0
 10
-117.736
 20
4043.85
 11
-117.416
 21
4044.24
  0
LINE
  8
0
 10
-117.416
 20
4044.24
 11
-117.05
 21
4044.58
  0
LINE
  8
0
 10
-117.05
 20
4044.58
 11
-116.643
 21
4044.88
  0
LINE
  8
0
 10
-116.643
 20
4044.88
 11
-116.203
 21
4045.12
  0
LINE
  8
0
 10
-116.203
 20
4045.12
 11
-115.736
 21
4045.3
  0
LINE
  8
0
 10
-115.736
 20
4045.3
 11
-115.25
 21
4045.43
  0
LINE
  8
0
 10
-115.25
 20
4045.43
 11
-114.751
 21
4045.49
  0
LINE
  8
0
 10
-114.751
 20
4045.49
 11
114.751
 21
4045.49
  0
LINE
  8
0
 10
114.751
 20
4045.49
 11
115.25
 21
4045.43
  0
LINE
  8
0
 10
115.25
 20
4045.43
 11
115.736
 21
4045.3
  0
LINE
  8
0
 10
115.736
 20
4045.3
 11
116.203
 21
4045.12
  0
LINE
  8
0
 10
116.203
 20
4045.12
 11
116.643
 21
4044.88
  0
LINE
  8
0
 10
116.643
 20
4044.88
 11
117.05
 21
4044.58
  0
LINE
  8
0
 10
117.05
 20
4044.58
 11
117.416
 21
4044.24
  0
LINE
  8
0
 10
117.416
 20
4044.24
 11
117.736
 21
4043.85
  0
LINE
  8
0
 10
117.736
 20
4043.85
 11
118.005
 21
4043.43
  0
LINE
  8
0
 10
118.005
 20
4043.43
 11
118.219
 21
4042.97
  0
LINE
  8
0
 10
118.219
 20
4042.97
 11
118.374
 21
4042.49
  0
LINE
  8
0
 10
118.374
 20
4042.49
 11
118.468
 21
4042
  0
LINE
  8
0
 10
118.468
 20
4042
 11
118.5
 21
4041.5
  0
LINE
  8
0
 10
118.5
 20
4041.5
 11
118.5
 21
3842.5
  0
LINE
  8
0
 10
118.5
 20
3842.5
 11
118.468
 21
3842
  0
LINE
  8
0
 10
118.468
 20
3842
 11
118.374
 21
3841.51
  0
LINE
  8
0
 10
118.374
 20
3841.51
 11
118.219
 21
3841.03
  0
LINE
  8
0
 10
118.219
 20
3841.03
 11
118.005
 21
3840.57
  0
LINE
  8
0
 10
118.005
 20
3840.57
 11
117.736
 21
3840.15
  0
LINE
  8
0
 10
117.736
 20
3840.15
 11
117.416
 21
3839.76
  0
LINE
  8
0
 10
117.416
 20
3839.76
 11
117.05
 21
3839.42
  0
LINE
  8
0
 10
117.05
 20
3839.42
 11
116.643
 21
3839.12
  0
LINE
  8
0
 10
116.643
 20
3839.12
 11
116.203
 21
3838.88
  0
LINE
  8
0
 10
116.203
 20
3838.88
 11
115.736
 21
3838.7
  0
LINE
  8
0
 10
115.736
 20
3838.7
 11
115.25
 21
3838.57
  0
LINE
  8
0
 10
115.25
 20
3838.57
 11
114.751
 21
3838.51
  0
LINE
  8
0
 10
114.751
 20
3838.51
 11
-114.751
 21
3838.51
  0
LINE
  8
0
 10
-118.5
 20
3619.44
 11
-118.187
 21
3619.15
  0
LINE
  8
0
 10
-118.187
 20
3619.15
 11
-117.679
 21
3618.78
  0
LINE
  8
0
 10
-117.679
 20
3618.78
 11
-117.129
 21
3618.48
  0
LINE
  8
0
 10
-117.129
 20
3618.48
 11
-116.545
 21
3618.24
  0
LINE
  8
0
 10
-116.545
 20
3618.24
 11
-115.937
 21
3618.09
  0
LINE
  8
0
 10
-115.937
 20
3618.09
 11
-115.314
 21
3618.01
  0
LINE
  8
0
 10
-115.314
 20
3618.01
 11
115.314
 21
3618.01
  0
LINE
  8
0
 10
115.314
 20
3618.01
 11
115.937
 21
3618.09
  0
LINE
  8
0
 10
115.937
 20
3618.09
 11
116.545
 21
3618.24
  0
LINE
  8
0
 10
116.545
 20
3618.24
 11
117.129
 21
3618.48
  0
LINE
  8
0
 10
117.129
 20
3618.48
 11
117.679
 21
3618.78
  0
LINE
  8
0
 10
117.679
 20
3618.78
 11
118.187
 21
3619.15
  0
LINE
  8
0
 10
118.187
 20
3619.15
 11
118.645
 21
3619.58
  0
LINE
  8
0
 10
118.645
 20
3619.58
 11
119.045
 21
3620.06
  0
LINE
  8
0
 10
119.045
 20
3620.06
 11
119.382
 21
3620.59
  0
LINE
  8
0
 10
119.382
 20
3620.59
 11
119.649
 21
3621.16
  0
LINE
  8
0
 10
119.649
 20
3621.16
 11
119.843
 21
3621.76
  0
LINE
  8
0
 10
119.843
 20
3621.76
 11
119.961
 21
3622.37
  0
LINE
  8
0
 10
119.961
 20
3622.37
 11
120
 21
3623
  0
LINE
  8
0
 10
120
 20
3623
 11
120
 21
3823
  0
LINE
  8
0
 10
120
 20
3823
 11
119.961
 21
3823.63
  0
LINE
  8
0
 10
119.961
 20
3823.63
 11
119.843
 21
3824.24
  0
LINE
  8
0
 10
119.843
 20
3824.24
 11
119.649
 21
3824.84
  0
LINE
  8
0
 10
119.649
 20
3824.84
 11
119.382
 21
3825.41
  0
LINE
  8
0
 10
119.382
 20
3825.41
 11
119.045
 21
3825.94
  0
LINE
  8
0
 10
119.045
 20
3825.94
 11
118.645
 21
3826.42
  0
LINE
  8
0
 10
118.645
 20
3826.42
 11
118.187
 21
3826.85
  0
LINE
  8
0
 10
118.187
 20
3826.85
 11
117.679
 21
3827.22
  0
LINE
  8
0
 10
117.679
 20
3827.22
 11
117.129
 21
3827.52
  0
LINE
  8
0
 10
117.129
 20
3827.52
 11
116.545
 21
3827.76
  0
LINE
  8
0
 10
116.545
 20
3827.76
 11
115.937
 21
3827.91
  0
LINE
  8
0
 10
115.937
 20
3827.91
 11
115.314
 21
3827.99
  0
LINE
  8
0
 10
115.314
 20
3827.99
 11
-115.314
 21
3827.99
  0
LINE
  8
0
 10
-115.314
 20
3827.99
 11
-115.937
 21
3827.91
  0
LINE
  8
0
 10
-115.937
 20
3827.91
 11
-116.545
 21
3827.76
  0
LINE
  8
0
 10
-116.545
 20
3827.76
 11
-117.129
 21
3827.52
  0
LINE
  8
0
 10
-117.129
 20
3827.52
 11
-117.679
 21
3827.22
  0
LINE
  8
0
 10
-117.679
 20
3827.22
 11
-118.187
 21
3826.85
  0
LINE
  8
0
 10
-118.187
 20
3826.85
 11
-118.5
 21
3826.56
  0
LINE
  8
0
 10
-118.5
 20
3826.56
 11
-118.5
 21
3827.99
  0
LINE
  8
0
 10
-118.5
 20
3827.99
 11
-121.5
 21
3827.99
  0
LINE
  8
0
 10
-121.5
 20
3827.99
 11
-121.5
 21
3618.01
  0
LINE
  8
0
 10
-121.5
 20
3618.01
 11
-118.5
 21
3618.01
  0
LINE
  8
0
 10
-118.5
 20
3618.01
 11
-118.5
 21
3619.44
  0
LINE
  8
0
 10
-114.751
 20
3619.51
 11
-115.25
 21
3619.57
  0
LINE
  8
0
 10
-115.25
 20
3619.57
 11
-115.736
 21
3619.7
  0
LINE
  8
0
 10
-115.736
 20
3619.7
 11
-116.203
 21
3619.88
  0
LINE
  8
0
 10
-116.203
 20
3619.88
 11
-116.643
 21
3620.12
  0
LINE
  8
0
 10
-116.643
 20
3620.12
 11
-117.05
 21
3620.42
  0
LINE
  8
0
 10
-117.05
 20
3620.42
 11
-117.416
 21
3620.76
  0
LINE
  8
0
 10
-117.416
 20
3620.76
 11
-117.736
 21
3621.15
  0
LINE
  8
0
 10
-117.736
 20
3621.15
 11
-118.005
 21
3621.57
  0
LINE
  8
0
 10
-118.005
 20
3621.57
 11
-118.219
 21
3622.03
  0
LINE
  8
0
 10
-118.219
 20
3622.03
 11
-118.374
 21
3622.51
  0
LINE
  8
0
 10
-118.374
 20
3622.51
 11
-118.468
 21
3623
  0
LINE
  8
0
 10
-118.468
 20
3623
 11
-118.5
 21
3623.5
  0
LINE
  8
0
 10
-118.5
 20
3623.5
 11
-118.5
 21
3822.5
  0
LINE
  8
0
 10
-118.5
 20
3822.5
 11
-118.468
 21
3823
  0
LINE
  8
0
 10
-118.468
 20
3823
 11
-118.374
 21
3823.49
  0
LINE
  8
0
 10
-118.374
 20
3823.49
 11
-118.219
 21
3823.97
  0
LINE
  8
0
 10
-118.219
 20
3823.97
 11
-118.005
 21
3824.43
  0
LINE
  8
0
 10
-118.005
 20
3824.43
 11
-117.736
 21
3824.85
  0
LINE
  8
0
 10
-117.736
 20
3824.85
 11
-117.416
 21
3825.24
  0
LINE
  8
0
 10
-117.416
 20
3825.24
 11
-117.05
 21
3825.58
  0
LINE
  8
0
 10
-117.05
 20
3825.58
 11
-116.643
 21
3825.88
  0
LINE
  8
0
 10
-116.643
 20
3825.88
 11
-116.203
 21
3826.12
  0
LINE
  8
0
 10
-116.203
 20
3826.12
 11
-115.736
 21
3826.3
  0
LINE
  8
0
 10
-115.736
 20
3826.3
 11
-115.25
 21
3826.43
  0
LINE
  8
0
 10
-115.25
 20
3826.43
 11
-114.751
 21
3826.49
  0
LINE
  8
0
 10
-114.751
 20
3826.49
 11
114.751
 21
3826.49
  0
LINE
  8
0
 10
114.751
 20
3826.49
 11
115.25
 21
3826.43
  0
LINE
  8
0
 10
115.25
 20
3826.43
 11
115.736
 21
3826.3
  0
LINE
  8
0
 10
115.736
 20
3826.3
 11
116.203
 21
3826.12
  0
LINE
  8
0
 10
116.203
 20
3826.12
 11
116.643
 21
3825.88
  0
LINE
  8
0
 10
116.643
 20
3825.88
 11
117.05
 21
3825.58
  0
LINE
  8
0
 10
117.05
 20
3825.58
 11
117.416
 21
3825.24
  0
LINE
  8
0
 10
117.416
 20
3825.24
 11
117.736
 21
3824.85
  0
LINE
  8
0
 10
117.736
 20
3824.85
 11
118.005
 21
3824.43
  0
LINE
  8
0
 10
118.005
 20
3824.43
 11
118.219
 21
3823.97
  0
LINE
  8
0
 10
118.219
 20
3823.97
 11
118.374
 21
3823.49
  0
LINE
  8
0
 10
118.374
 20
3823.49
 11
118.468
 21
3823
  0
LINE
  8
0
 10
118.468
 20
3823
 11
118.5
 21
3822.5
  0
LINE
  8
0
 10
118.5
 20
3822.5
 11
118.5
 21
3623.5
  0
LINE
  8
0
 10
118.5
 20
3623.5
 11
118.468
 21
3623
  0
LINE
  8
0
 10
118.468
 20
3623
 11
118.374
 21
3622.51
  0
LINE
  8
0
 10
118.374
 20
3622.51
 11
118.219
 21
3622.03
  0
LINE
  8
0
 10
118.219
 20
3622.03
 11
118.005
 21
3621.57
  0
LINE
  8
0
 10
118.005
 20
3621.57
 11
117.736
 21
3621.15
  0
LINE
  8
0
 10
117.736
 20
3621.15
 11
117.416
 21
3620.76
  0
LINE
  8
0
 10
117.416
 20
3620.76
 11
117.05
 21
3620.42
  0
LINE
  8
0
 10
117.05
 20
3620.42
 11
116.643
 21
3620.12
  0
LINE
  8
0
 10
116.643
 20
3620.12
 11
116.203
 21
3619.88
  0
LINE
  8
0
 10
116.203
 20
3619.88
 11
115.736
 21
3619.7
  0
LINE
  8
0
 10
115.736
 20
3619.7
 11
115.25
 21
3619.57
  0
LINE
  8
0
 10
115.25
 20
3619.57
 11
114.751
 21
3619.51
  0
LINE
  8
0
 10
114.751
 20
3619.51
 11
-114.751
 21
3619.51
  0
LINE
  8
0
 10
115.937
 20
3399.09
 11
116.545
 21
3399.24
  0
LINE
  8
0
 10
116.545
 20
3399.24
 11
117.129
 21
3399.48
  0
LINE
  8
0
 10
117.129
 20
3399.48
 11
117.679
 21
3399.78
  0
LINE
  8
0
 10
117.679
 20
3399.78
 11
118.187
 21
3400.15
  0
LINE
  8
0
 10
118.187
 20
3400.15
 11
118.645
 21
3400.58
  0
LINE
  8
0
 10
118.645
 20
3400.58
 11
119.045
 21
3401.06
  0
LINE
  8
0
 10
119.045
 20
3401.06
 11
119.382
 21
3401.59
  0
LINE
  8
0
 10
119.382
 20
3401.59
 11
119.649
 21
3402.16
  0
LINE
  8
0
 10
119.649
 20
3402.16
 11
119.843
 21
3402.76
  0
LINE
  8
0
 10
119.843
 20
3402.76
 11
119.961
 21
3403.37
  0
LINE
  8
0
 10
119.961
 20
3403.37
 11
120
 21
3404
  0
LINE
  8
0
 10
120
 20
3404
 11
120
 21
3604
  0
LINE
  8
0
 10
120
 20
3604
 11
119.961
 21
3604.63
  0
LINE
  8
0
 10
119.961
 20
3604.63
 11
119.843
 21
3605.24
  0
LINE
  8
0
 10
119.843
 20
3605.24
 11
119.649
 21
3605.84
  0
LINE
  8
0
 10
119.649
 20
3605.84
 11
119.382
 21
3606.41
  0
LINE
  8
0
 10
119.382
 20
3606.41
 11
119.045
 21
3606.94
  0
LINE
  8
0
 10
119.045
 20
3606.94
 11
118.645
 21
3607.42
  0
LINE
  8
0
 10
118.645
 20
3607.42
 11
118.187
 21
3607.85
  0
LINE
  8
0
 10
118.187
 20
3607.85
 11
117.679
 21
3608.22
  0
LINE
  8
0
 10
117.679
 20
3608.22
 11
117.129
 21
3608.52
  0
LINE
  8
0
 10
117.129
 20
3608.52
 11
116.545
 21
3608.76
  0
LINE
  8
0
 10
116.545
 20
3608.76
 11
115.937
 21
3608.91
  0
LINE
  8
0
 10
115.937
 20
3608.91
 11
115.314
 21
3608.99
  0
LINE
  8
0
 10
115.314
 20
3608.99
 11
-115.314
 21
3608.99
  0
LINE
  8
0
 10
-115.314
 20
3608.99
 11
-115.937
 21
3608.91
  0
LINE
  8
0
 10
-115.937
 20
3608.91
 11
-116.545
 21
3608.76
  0
LINE
  8
0
 10
-116.545
 20
3608.76
 11
-117.129
 21
3608.52
  0
LINE
  8
0
 10
-117.129
 20
3608.52
 11
-117.679
 21
3608.22
  0
LINE
  8
0
 10
-117.679
 20
3608.22
 11
-118.187
 21
3607.85
  0
LINE
  8
0
 10
-118.187
 20
3607.85
 11
-118.5
 21
3607.56
  0
LINE
  8
0
 10
-118.5
 20
3607.56
 11
-118.5
 21
3608.98
  0
LINE
  8
0
 10
-118.5
 20
3608.98
 11
-121.5
 21
3608.98
  0
LINE
  8
0
 10
-121.5
 20
3608.98
 11
-121.5
 21
3399.02
  0
LINE
  8
0
 10
-121.5
 20
3399.02
 11
-118.5
 21
3399.02
  0
LINE
  8
0
 10
-118.5
 20
3399.02
 11
-118.5
 21
3400.44
  0
LINE
  8
0
 10
-118.5
 20
3400.44
 11
-118.187
 21
3400.15
  0
LINE
  8
0
 10
-118.187
 20
3400.15
 11
-117.679
 21
3399.78
  0
LINE
  8
0
 10
-117.679
 20
3399.78
 11
-117.129
 21
3399.48
  0
LINE
  8
0
 10
-117.129
 20
3399.48
 11
-116.545
 21
3399.24
  0
LINE
  8
0
 10
-116.545
 20
3399.24
 11
-115.937
 21
3399.09
  0
LINE
  8
0
 10
-115.937
 20
3399.09
 11
-115.314
 21
3399.01
  0
LINE
  8
0
 10
-115.314
 20
3399.01
 11
115.314
 21
3399.01
  0
LINE
  8
0
 10
115.314
 20
3399.01
 11
115.937
 21
3399.09
  0
LINE
  8
0
 10
-114.695
 20
3401.39
 11
-115.083
 21
3401.44
  0
LINE
  8
0
 10
-115.083
 20
3401.44
 11
-115.462
 21
3401.54
  0
LINE
  8
0
 10
-115.462
 20
3401.54
 11
-115.825
 21
3401.68
  0
LINE
  8
0
 10
-115.825
 20
3401.68
 11
-116.168
 21
3401.87
  0
LINE
  8
0
 10
-116.168
 20
3401.87
 11
-116.484
 21
3402.1
  0
LINE
  8
0
 10
-116.484
 20
3402.1
 11
-116.769
 21
3402.37
  0
LINE
  8
0
 10
-116.769
 20
3402.37
 11
-117.018
 21
3402.67
  0
LINE
  8
0
 10
-117.018
 20
3402.67
 11
-117.228
 21
3403
  0
LINE
  8
0
 10
-117.228
 20
3403
 11
-117.394
 21
3403.35
  0
LINE
  8
0
 10
-117.394
 20
3403.35
 11
-117.515
 21
3403.73
  0
LINE
  8
0
 10
-117.515
 20
3403.73
 11
-117.588
 21
3404.11
  0
LINE
  8
0
 10
-117.588
 20
3404.11
 11
-117.613
 21
3404.5
  0
LINE
  8
0
 10
-117.613
 20
3404.5
 11
-117.613
 21
3603.5
  0
LINE
  8
0
 10
-117.613
 20
3603.5
 11
-117.588
 21
3603.89
  0
LINE
  8
0
 10
-117.588
 20
3603.89
 11
-117.515
 21
3604.27
  0
LINE
  8
0
 10
-117.515
 20
3604.27
 11
-117.394
 21
3604.65
  0
LINE
  8
0
 10
-117.394
 20
3604.65
 11
-117.228
 21
3605
  0
LINE
  8
0
 10
-117.228
 20
3605
 11
-117.018
 21
3605.33
  0
LINE
  8
0
 10
-117.018
 20
3605.33
 11
-116.769
 21
3605.63
  0
LINE
  8
0
 10
-116.769
 20
3605.63
 11
-116.484
 21
3605.9
  0
LINE
  8
0
 10
-116.484
 20
3605.9
 11
-116.168
 21
3606.13
  0
LINE
  8
0
 10
-116.168
 20
3606.13
 11
-115.825
 21
3606.32
  0
LINE
  8
0
 10
-115.825
 20
3606.32
 11
-115.462
 21
3606.46
  0
LINE
  8
0
 10
-115.462
 20
3606.46
 11
-115.083
 21
3606.56
  0
LINE
  8
0
 10
-115.083
 20
3606.56
 11
-114.695
 21
3606.61
  0
LINE
  8
0
 10
-114.695
 20
3606.61
 11
114.695
 21
3606.61
  0
LINE
  8
0
 10
114.695
 20
3606.61
 11
115.083
 21
3606.56
  0
LINE
  8
0
 10
115.083
 20
3606.56
 11
115.462
 21
3606.46
  0
LINE
  8
0
 10
115.462
 20
3606.46
 11
115.825
 21
3606.32
  0
LINE
  8
0
 10
115.825
 20
3606.32
 11
116.168
 21
3606.13
  0
LINE
  8
0
 10
116.168
 20
3606.13
 11
116.484
 21
3605.9
  0
LINE
  8
0
 10
116.484
 20
3605.9
 11
116.769
 21
3605.63
  0
LINE
  8
0
 10
116.769
 20
3605.63
 11
117.018
 21
3605.33
  0
LINE
  8
0
 10
117.018
 20
3605.33
 11
117.228
 21
3605
  0
LINE
  8
0
 10
117.228
 20
3605
 11
117.394
 21
3604.65
  0
LINE
  8
0
 10
117.394
 20
3604.65
 11
117.515
 21
3604.27
  0
LINE
  8
0
 10
117.515
 20
3604.27
 11
117.588
 21
3603.89
  0
LINE
  8
0
 10
117.588
 20
3603.89
 11
117.613
 21
3603.5
  0
LINE
  8
0
 10
117.613
 20
3603.5
 11
117.613
 21
3404.5
  0
LINE
  8
0
 10
117.613
 20
3404.5
 11
117.588
 21
3404.11
  0
LINE
  8
0
 10
117.588
 20
3404.11
 11
117.515
 21
3403.73
  0
LINE
  8
0
 10
117.515
 20
3403.73
 11
117.394
 21
3403.35
  0
LINE
  8
0
 10
117.394
 20
3403.35
 11
117.228
 21
3403
  0
LINE
  8
0
 10
117.228
 20
3403
 11
117.018
 21
3402.67
  0
LINE
  8
0
 10
117.018
 20
3402.67
 11
116.769
 21
3402.37
  0
LINE
  8
0
 10
116.769
 20
3402.37
 11
116.484
 21
3402.1
  0
LINE
  8
0
 10
116.484
 20
3402.1
 11
116.168
 21
3401.87
  0
LINE
  8
0
 10
116.168
 20
3401.87
 11
115.825
 21
3401.68
  0
LINE
  8
0
 10
115.825
 20
3401.68
 11
115.462
 21
3401.54
  0
LINE
  8
0
 10
115.462
 20
3401.54
 11
115.083
 21
3401.44
  0
LINE
  8
0
 10
115.083
 20
3401.44
 11
114.695
 21
3401.39
  0
LINE
  8
0
 10
114.695
 20
3401.39
 11
-114.695
 21
3401.39
  0
LINE
  8
0
 10
115.937
 20
3180.09
 11
116.545
 21
3180.24
  0
LINE
  8
0
 10
116.545
 20
3180.24
 11
117.129
 21
3180.48
  0
LINE
  8
0
 10
117.129
 20
3180.48
 11
117.679
 21
3180.78
  0
LINE
  8
0
 10
117.679
 20
3180.78
 11
118.187
 21
3181.15
  0
LINE
  8
0
 10
118.187
 20
3181.15
 11
118.645
 21
3181.58
  0
LINE
  8
0
 10
118.645
 20
3181.58
 11
119.045
 21
3182.06
  0
LINE
  8
0
 10
119.045
 20
3182.06
 11
119.382
 21
3182.59
  0
LINE
  8
0
 10
119.382
 20
3182.59
 11
119.649
 21
3183.16
  0
LINE
  8
0
 10
119.649
 20
3183.16
 11
119.843
 21
3183.76
  0
LINE
  8
0
 10
119.843
 20
3183.76
 11
119.961
 21
3184.37
  0
LINE
  8
0
 10
119.961
 20
3184.37
 11
120
 21
3185
  0
LINE
  8
0
 10
120
 20
3185
 11
120
 21
3385
  0
LINE
  8
0
 10
120
 20
3385
 11
119.961
 21
3385.63
  0
LINE
  8
0
 10
119.961
 20
3385.63
 11
119.843
 21
3386.24
  0
LINE
  8
0
 10
119.843
 20
3386.24
 11
119.649
 21
3386.84
  0
LINE
  8
0
 10
119.649
 20
3386.84
 11
119.382
 21
3387.41
  0
LINE
  8
0
 10
119.382
 20
3387.41
 11
119.045
 21
3387.94
  0
LINE
  8
0
 10
119.045
 20
3387.94
 11
118.645
 21
3388.42
  0
LINE
  8
0
 10
118.645
 20
3388.42
 11
118.187
 21
3388.85
  0
LINE
  8
0
 10
118.187
 20
3388.85
 11
117.679
 21
3389.22
  0
LINE
  8
0
 10
117.679
 20
3389.22
 11
117.129
 21
3389.52
  0
LINE
  8
0
 10
117.129
 20
3389.52
 11
116.545
 21
3389.76
  0
LINE
  8
0
 10
116.545
 20
3389.76
 11
115.937
 21
3389.91
  0
LINE
  8
0
 10
115.937
 20
3389.91
 11
115.314
 21
3389.99
  0
LINE
  8
0
 10
115.314
 20
3389.99
 11
-115.314
 21
3389.99
  0
LINE
  8
0
 10
-115.314
 20
3389.99
 11
-115.937
 21
3389.91
  0
LINE
  8
0
 10
-115.937
 20
3389.91
 11
-116.545
 21
3389.76
  0
LINE
  8
0
 10
-116.545
 20
3389.76
 11
-117.129
 21
3389.52
  0
LINE
  8
0
 10
-117.129
 20
3389.52
 11
-117.679
 21
3389.22
  0
LINE
  8
0
 10
-117.679
 20
3389.22
 11
-118.187
 21
3388.85
  0
LINE
  8
0
 10
-118.187
 20
3388.85
 11
-118.5
 21
3388.56
  0
LINE
  8
0
 10
-118.5
 20
3388.56
 11
-118.5
 21
3388.65
  0
LINE
  8
0
 10
-118.5
 20
3388.65
 11
-121.5
 21
3388.65
  0
LINE
  8
0
 10
-121.5
 20
3388.65
 11
-121.5
 21
3181.35
  0
LINE
  8
0
 10
-121.5
 20
3181.35
 11
-118.5
 21
3181.35
  0
LINE
  8
0
 10
-118.5
 20
3181.35
 11
-118.5
 21
3181.44
  0
LINE
  8
0
 10
-118.5
 20
3181.44
 11
-118.187
 21
3181.15
  0
LINE
  8
0
 10
-118.187
 20
3181.15
 11
-117.679
 21
3180.78
  0
LINE
  8
0
 10
-117.679
 20
3180.78
 11
-117.129
 21
3180.48
  0
LINE
  8
0
 10
-117.129
 20
3180.48
 11
-116.545
 21
3180.24
  0
LINE
  8
0
 10
-116.545
 20
3180.24
 11
-115.937
 21
3180.09
  0
LINE
  8
0
 10
-115.937
 20
3180.09
 11
-115.314
 21
3180.01
  0
LINE
  8
0
 10
-115.314
 20
3180.01
 11
115.314
 21
3180.01
  0
LINE
  8
0
 10
115.314
 20
3180.01
 11
115.937
 21
3180.09
  0
LINE
  8
0
 10
-112.634
 20
3380.37
 11
-112.9
 21
3380.4
  0
LINE
  8
0
 10
-112.9
 20
3380.4
 11
-113.16
 21
3380.47
  0
LINE
  8
0
 10
-113.16
 20
3380.47
 11
-113.409
 21
3380.57
  0
LINE
  8
0
 10
-113.409
 20
3380.57
 11
-113.644
 21
3380.7
  0
LINE
  8
0
 10
-113.644
 20
3380.7
 11
-113.861
 21
3380.85
  0
LINE
  8
0
 10
-113.861
 20
3380.85
 11
-114.057
 21
3381.04
  0
LINE
  8
0
 10
-114.057
 20
3381.04
 11
-114.227
 21
3381.24
  0
LINE
  8
0
 10
-114.227
 20
3381.24
 11
-114.371
 21
3381.47
  0
LINE
  8
0
 10
-114.371
 20
3381.47
 11
-114.485
 21
3381.71
  0
LINE
  8
0
 10
-114.485
 20
3381.71
 11
-114.568
 21
3381.97
  0
LINE
  8
0
 10
-114.568
 20
3381.97
 11
-114.618
 21
3382.23
  0
LINE
  8
0
 10
-114.618
 20
3382.23
 11
-114.635
 21
3382.5
  0
LINE
  8
0
 10
-114.635
 20
3382.5
 11
-114.618
 21
3382.77
  0
LINE
  8
0
 10
-114.618
 20
3382.77
 11
-114.568
 21
3383.03
  0
LINE
  8
0
 10
-114.568
 20
3383.03
 11
-114.485
 21
3383.29
  0
LINE
  8
0
 10
-114.485
 20
3383.29
 11
-114.371
 21
3383.53
  0
LINE
  8
0
 10
-114.371
 20
3383.53
 11
-114.227
 21
3383.76
  0
LINE
  8
0
 10
-114.227
 20
3383.76
 11
-114.057
 21
3383.96
  0
LINE
  8
0
 10
-114.057
 20
3383.96
 11
-113.861
 21
3384.15
  0
LINE
  8
0
 10
-113.861
 20
3384.15
 11
-113.644
 21
3384.3
  0
LINE
  8
0
 10
-113.644
 20
3384.3
 11
-113.409
 21
3384.43
  0
LINE
  8
0
 10
-113.409
 20
3384.43
 11
-113.16
 21
3384.53
  0
LINE
  8
0
 10
-113.16
 20
3384.53
 11
-112.9
 21
3384.6
  0
LINE
  8
0
 10
-112.9
 20
3384.6
 11
-112.634
 21
3384.63
  0
LINE
  8
0
 10
-112.634
 20
3384.63
 11
-112.366
 21
3384.63
  0
LINE
  8
0
 10
-112.366
 20
3384.63
 11
-112.1
 21
3384.6
  0
LINE
  8
0
 10
-112.1
 20
3384.6
 11
-111.84
 21
3384.53
  0
LINE
  8
0
 10
-111.84
 20
3384.53
 11
-111.591
 21
3384.43
  0
LINE
  8
0
 10
-111.591
 20
3384.43
 11
-111.356
 21
3384.3
  0
LINE
  8
0
 10
-111.356
 20
3384.3
 11
-111.139
 21
3384.15
  0
LINE
  8
0
 10
-111.139
 20
3384.15
 11
-110.943
 21
3383.96
  0
LINE
  8
0
 10
-110.943
 20
3383.96
 11
-110.773
 21
3383.76
  0
LINE
  8
0
 10
-110.773
 20
3383.76
 11
-110.629
 21
3383.53
  0
LINE
  8
0
 10
-110.629
 20
3383.53
 11
-110.515
 21
3383.29
  0
LINE
  8
0
 10
-110.515
 20
3383.29
 11
-110.432
 21
3383.03
  0
LINE
  8
0
 10
-110.432
 20
3383.03
 11
-110.382
 21
3382.77
  0
LINE
  8
0
 10
-110.382
 20
3382.77
 11
-110.365
 21
3382.5
  0
LINE
  8
0
 10
-110.365
 20
3382.5
 11
-110.382
 21
3382.23
  0
LINE
  8
0
 10
-110.382
 20
3382.23
 11
-110.432
 21
3381.97
  0
LINE
  8
0
 10
-110.432
 20
3381.97
 11
-110.515
 21
3381.71
  0
LINE
  8
0
 10
-110.515
 20
3381.71
 11
-110.629
 21
3381.47
  0
LINE
  8
0
 10
-110.629
 20
3381.47
 11
-110.773
 21
3381.24
  0
LINE
  8
0
 10
-110.773
 20
3381.24
 11
-110.943
 21
3381.04
  0
LINE
  8
0
 10
-110.943
 20
3381.04
 11
-111.139
 21
3380.85
  0
LINE
  8
0
 10
-111.139
 20
3380.85
 11
-111.356
 21
3380.7
  0
LINE
  8
0
 10
-111.356
 20
3380.7
 11
-111.591
 21
3380.57
  0
LINE
  8
0
 10
-111.591
 20
3380.57
 11
-111.84
 21
3380.47
  0
LINE
  8
0
 10
-111.84
 20
3380.47
 11
-112.1
 21
3380.4
  0
LINE
  8
0
 10
-112.1
 20
3380.4
 11
-112.366
 21
3380.37
  0
LINE
  8
0
 10
-112.366
 20
3380.37
 11
-112.634
 21
3380.37
  0
LINE
  8
0
 10
112.366
 20
3380.37
 11
112.1
 21
3380.4
  0
LINE
  8
0
 10
112.1
 20
3380.4
 11
111.84
 21
3380.47
  0
LINE
  8
0
 10
111.84
 20
3380.47
 11
111.591
 21
3380.57
  0
LINE
  8
0
 10
111.591
 20
3380.57
 11
111.356
 21
3380.7
  0
LINE
  8
0
 10
111.356
 20
3380.7
 11
111.139
 21
3380.85
  0
LINE
  8
0
 10
111.139
 20
3380.85
 11
110.943
 21
3381.04
  0
LINE
  8
0
 10
110.943
 20
3381.04
 11
110.773
 21
3381.24
  0
LINE
  8
0
 10
110.773
 20
3381.24
 11
110.629
 21
3381.47
  0
LINE
  8
0
 10
110.629
 20
3381.47
 11
110.515
 21
3381.71
  0
LINE
  8
0
 10
110.515
 20
3381.71
 11
110.432
 21
3381.97
  0
LINE
  8
0
 10
110.432
 20
3381.97
 11
110.382
 21
3382.23
  0
LINE
  8
0
 10
110.382
 20
3382.23
 11
110.365
 21
3382.5
  0
LINE
  8
0
 10
110.365
 20
3382.5
 11
110.382
 21
3382.77
  0
LINE
  8
0
 10
110.382
 20
3382.77
 11
110.432
 21
3383.03
  0
LINE
  8
0
 10
110.432
 20
3383.03
 11
110.515
 21
3383.29
  0
LINE
  8
0
 10
110.515
 20
3383.29
 11
110.629
 21
3383.53
  0
LINE
  8
0
 10
110.629
 20
3383.53
 11
110.773
 21
3383.76
  0
LINE
  8
0
 10
110.773
 20
3383.76
 11
110.943
 21
3383.96
  0
LINE
  8
0
 10
110.943
 20
3383.96
 11
111.139
 21
3384.15
  0
LINE
  8
0
 10
111.139
 20
3384.15
 11
111.356
 21
3384.3
  0
LINE
  8
0
 10
111.356
 20
3384.3
 11
111.591
 21
3384.43
  0
LINE
  8
0
 10
111.591
 20
3384.43
 11
111.84
 21
3384.53
  0
LINE
  8
0
 10
111.84
 20
3384.53
 11
112.1
 21
3384.6
  0
LINE
  8
0
 10
112.1
 20
3384.6
 11
112.366
 21
3384.63
  0
LINE
  8
0
 10
112.366
 20
3384.63
 11
112.634
 21
3384.63
  0
LINE
  8
0
 10
112.634
 20
3384.63
 11
112.9
 21
3384.6
  0
LINE
  8
0
 10
112.9
 20
3384.6
 11
113.16
 21
3384.53
  0
LINE
  8
0
 10
113.16
 20
3384.53
 11
113.409
 21
3384.43
  0
LINE
  8
0
 10
113.409
 20
3384.43
 11
113.644
 21
3384.3
  0
LINE
  8
0
 10
113.644
 20
3384.3
 11
113.861
 21
3384.15
  0
LINE
  8
0
 10
113.861
 20
3384.15
 11
114.057
 21
3383.96
  0
LINE
  8
0
 10
114.057
 20
3383.96
 11
114.227
 21
3383.76
  0
LINE
  8
0
 10
114.227
 20
3383.76
 11
114.371
 21
3383.53
  0
LINE
  8
0
 10
114.371
 20
3383.53
 11
114.485
 21
3383.29
  0
LINE
  8
0
 10
114.485
 20
3383.29
 11
114.568
 21
3383.03
  0
LINE
  8
0
 10
114.568
 20
3383.03
 11
114.618
 21
3382.77
  0
LINE
  8
0
 10
114.618
 20
3382.77
 11
114.635
 21
3382.5
  0
LINE
  8
0
 10
114.635
 20
3382.5
 11
114.618
 21
3382.23
  0
LINE
  8
0
 10
114.618
 20
3382.23
 11
114.568
 21
3381.97
  0
LINE
  8
0
 10
114.568
 20
3381.97
 11
114.485
 21
3381.71
  0
LINE
  8
0
 10
114.485
 20
3381.71
 11
114.371
 21
3381.47
  0
LINE
  8
0
 10
114.371
 20
3381.47
 11
114.227
 21
3381.24
  0
LINE
  8
0
 10
114.227
 20
3381.24
 11
114.057
 21
3381.04
  0
LINE
  8
0
 10
114.057
 20
3381.04
 11
113.861
 21
3380.85
  0
LINE
  8
0
 10
113.861
 20
3380.85
 11
113.644
 21
3380.7
  0
LINE
  8
0
 10
113.644
 20
3380.7
 11
113.409
 21
3380.57
  0
LINE
  8
0
 10
113.409
 20
3380.57
 11
113.16
 21
3380.47
  0
LINE
  8
0
 10
113.16
 20
3380.47
 11
112.9
 21
3380.4
  0
LINE
  8
0
 10
112.9
 20
3380.4
 11
112.634
 21
3380.37
  0
LINE
  8
0
 10
112.634
 20
3380.37
 11
112.366
 21
3380.37
  0
LINE
  8
0
 10
-112.634
 20
3185.37
 11
-112.9
 21
3185.4
  0
LINE
  8
0
 10
-112.9
 20
3185.4
 11
-113.16
 21
3185.47
  0
LINE
  8
0
 10
-113.16
 20
3185.47
 11
-113.409
 21
3185.57
  0
LINE
  8
0
 10
-113.409
 20
3185.57
 11
-113.644
 21
3185.7
  0
LINE
  8
0
 10
-113.644
 20
3185.7
 11
-113.861
 21
3185.85
  0
LINE
  8
0
 10
-113.861
 20
3185.85
 11
-114.057
 21
3186.04
  0
LINE
  8
0
 10
-114.057
 20
3186.04
 11
-114.227
 21
3186.24
  0
LINE
  8
0
 10
-114.227
 20
3186.24
 11
-114.371
 21
3186.47
  0
LINE
  8
0
 10
-114.371
 20
3186.47
 11
-114.485
 21
3186.71
  0
LINE
  8
0
 10
-114.485
 20
3186.71
 11
-114.568
 21
3186.97
  0
LINE
  8
0
 10
-114.568
 20
3186.97
 11
-114.618
 21
3187.23
  0
LINE
  8
0
 10
-114.618
 20
3187.23
 11
-114.635
 21
3187.5
  0
LINE
  8
0
 10
-114.635
 20
3187.5
 11
-114.618
 21
3187.77
  0
LINE
  8
0
 10
-114.618
 20
3187.77
 11
-114.568
 21
3188.03
  0
LINE
  8
0
 10
-114.568
 20
3188.03
 11
-114.485
 21
3188.29
  0
LINE
  8
0
 10
-114.485
 20
3188.29
 11
-114.371
 21
3188.53
  0
LINE
  8
0
 10
-114.371
 20
3188.53
 11
-114.227
 21
3188.76
  0
LINE
  8
0
 10
-114.227
 20
3188.76
 11
-114.057
 21
3188.96
  0
LINE
  8
0
 10
-114.057
 20
3188.96
 11
-113.861
 21
3189.15
  0
LINE
  8
0
 10
-113.861
 20
3189.15
 11
-113.644
 21
3189.3
  0
LINE
  8
0
 10
-113.644
 20
3189.3
 11
-113.409
 21
3189.43
  0
LINE
  8
0
 10
-113.409
 20
3189.43
 11
-113.16
 21
3189.53
  0
LINE
  8
0
 10
-113.16
 20
3189.53
 11
-112.9
 21
3189.6
  0
LINE
  8
0
 10
-112.9
 20
3189.6
 11
-112.634
 21
3189.63
  0
LINE
  8
0
 10
-112.634
 20
3189.63
 11
-112.366
 21
3189.63
  0
LINE
  8
0
 10
-112.366
 20
3189.63
 11
-112.1
 21
3189.6
  0
LINE
  8
0
 10
-112.1
 20
3189.6
 11
-111.84
 21
3189.53
  0
LINE
  8
0
 10
-111.84
 20
3189.53
 11
-111.591
 21
3189.43
  0
LINE
  8
0
 10
-111.591
 20
3189.43
 11
-111.356
 21
3189.3
  0
LINE
  8
0
 10
-111.356
 20
3189.3
 11
-111.139
 21
3189.15
  0
LINE
  8
0
 10
-111.139
 20
3189.15
 11
-110.943
 21
3188.96
  0
LINE
  8
0
 10
-110.943
 20
3188.96
 11
-110.773
 21
3188.76
  0
LINE
  8
0
 10
-110.773
 20
3188.76
 11
-110.629
 21
3188.53
  0
LINE
  8
0
 10
-110.629
 20
3188.53
 11
-110.515
 21
3188.29
  0
LINE
  8
0
 10
-110.515
 20
3188.29
 11
-110.432
 21
3188.03
  0
LINE
  8
0
 10
-110.432
 20
3188.03
 11
-110.382
 21
3187.77
  0
LINE
  8
0
 10
-110.382
 20
3187.77
 11
-110.365
 21
3187.5
  0
LINE
  8
0
 10
-110.365
 20
3187.5
 11
-110.382
 21
3187.23
  0
LINE
  8
0
 10
-110.382
 20
3187.23
 11
-110.432
 21
3186.97
  0
LINE
  8
0
 10
-110.432
 20
3186.97
 11
-110.515
 21
3186.71
  0
LINE
  8
0
 10
-110.515
 20
3186.71
 11
-110.629
 21
3186.47
  0
LINE
  8
0
 10
-110.629
 20
3186.47
 11
-110.773
 21
3186.24
  0
LINE
  8
0
 10
-110.773
 20
3186.24
 11
-110.943
 21
3186.04
  0
LINE
  8
0
 10
-110.943
 20
3186.04
 11
-111.139
 21
3185.85
  0
LINE
  8
0
 10
-111.139
 20
3185.85
 11
-111.356
 21
3185.7
  0
LINE
  8
0
 10
-111.356
 20
3185.7
 11
-111.591
 21
3185.57
  0
LINE
  8
0
 10
-111.591
 20
3185.57
 11
-111.84
 21
3185.47
  0
LINE
  8
0
 10
-111.84
 20
3185.47
 11
-112.1
 21
3185.4
  0
LINE
  8
0
 10
-112.1
 20
3185.4
 11
-112.366
 21
3185.37
  0
LINE
  8
0
 10
-112.366
 20
3185.37
 11
-112.634
 21
3185.37
  0
LINE
  8
0
 10
112.366
 20
3185.37
 11
112.1
 21
3185.4
  0
LINE
  8
0
 10
112.1
 20
3185.4
 11
111.84
 21
3185.47
  0
LINE
  8
0
 10
111.84
 20
3185.47
 11
111.591
 21
3185.57
  0
LINE
  8
0
 10
111.591
 20
3185.57
 11
111.356
 21
3185.7
  0
LINE
  8
0
 10
111.356
 20
3185.7
 11
111.139
 21
3185.85
  0
LINE
  8
0
 10
111.139
 20
3185.85
 11
110.943
 21
3186.04
  0
LINE
  8
0
 10
110.943
 20
3186.04
 11
110.773
 21
3186.24
  0
LINE
  8
0
 10
110.773
 20
3186.24
 11
110.629
 21
3186.47
  0
LINE
  8
0
 10
110.629
 20
3186.47
 11
110.515
 21
3186.71
  0
LINE
  8
0
 10
110.515
 20
3186.71
 11
110.432
 21
3186.97
  0
LINE
  8
0
 10
110.432
 20
3186.97
 11
110.382
 21
3187.23
  0
LINE
  8
0
 10
110.382
 20
3187.23
 11
110.365
 21
3187.5
  0
LINE
  8
0
 10
110.365
 20
3187.5
 11
110.382
 21
3187.77
  0
LINE
  8
0
 10
110.382
 20
3187.77
 11
110.432
 21
3188.03
  0
LINE
  8
0
 10
110.432
 20
3188.03
 11
110.515
 21
3188.29
  0
LINE
  8
0
 10
110.515
 20
3188.29
 11
110.629
 21
3188.53
  0
LINE
  8
0
 10
110.629
 20
3188.53
 11
110.773
 21
3188.76
  0
LINE
  8
0
 10
110.773
 20
3188.76
 11
110.943
 21
3188.96
  0
LINE
  8
0
 10
110.943
 20
3188.96
 11
111.139
 21
3189.15
  0
LINE
  8
0
 10
111.139
 20
3189.15
 11
111.356
 21
3189.3
  0
LINE
  8
0
 10
111.356
 20
3189.3
 11
111.591
 21
3189.43
  0
LINE
  8
0
 10
111.591
 20
3189.43
 11
111.84
 21
3189.53
  0
LINE
  8
0
 10
111.84
 20
3189.53
 11
112.1
 21
3189.6
  0
LINE
  8
0
 10
112.1
 20
3189.6
 11
112.366
 21
3189.63
  0
LINE
  8
0
 10
112.366
 20
3189.63
 11
112.634
 21
3189.63
  0
LINE
  8
0
 10
112.634
 20
3189.63
 11
112.9
 21
3189.6
  0
LINE
  8
0
 10
112.9
 20
3189.6
 11
113.16
 21
3189.53
  0
LINE
  8
0
 10
113.16
 20
3189.53
 11
113.409
 21
3189.43
  0
LINE
  8
0
 10
113.409
 20
3189.43
 11
113.644
 21
3189.3
  0
LINE
  8
0
 10
113.644
 20
3189.3
 11
113.861
 21
3189.15
  0
LINE
  8
0
 10
113.861
 20
3189.15
 11
114.057
 21
3188.96
  0
LINE
  8
0
 10
114.057
 20
3188.96
 11
114.227
 21
3188.76
  0
LINE
  8
0
 10
114.227
 20
3188.76
 11
114.371
 21
3188.53
  0
LINE
  8
0
 10
114.371
 20
3188.53
 11
114.485
 21
3188.29
  0
LINE
  8
0
 10
114.485
 20
3188.29
 11
114.568
 21
3188.03
  0
LINE
  8
0
 10
114.568
 20
3188.03
 11
114.618
 21
3187.77
  0
LINE
  8
0
 10
114.618
 20
3187.77
 11
114.635
 21
3187.5
  0
LINE
  8
0
 10
114.635
 20
3187.5
 11
114.618
 21
3187.23
  0
LINE
  8
0
 10
114.618
 20
3187.23
 11
114.568
 21
3186.97
  0
LINE
  8
0
 10
114.568
 20
3186.97
 11
114.485
 21
3186.71
  0
LINE
  8
0
 10
114.485
 20
3186.71
 11
114.371
 21
3186.47
  0
LINE
  8
0
 10
114.371
 20
3186.47
 11
114.227
 21
3186.24
  0
LINE
  8
0
 10
114.227
 20
3186.24
 11
114.057
 21
3186.04
  0
LINE
  8
0
 10
114.057
 20
3186.04
 11
113.861
 21
3185.85
  0
LINE
  8
0
 10
113.861
 20
3185.85
 11
113.644
 21
3185.7
  0
LINE
  8
0
 10
113.644
 20
3185.7
 11
113.409
 21
3185.57
  0
LINE
  8
0
 10
113.409
 20
3185.57
 11
113.16
 21
3185.47
  0
LINE
  8
0
 10
113.16
 20
3185.47
 11
112.9
 21
3185.4
  0
LINE
  8
0
 10
112.9
 20
3185.4
 11
112.634
 21
3185.37
  0
LINE
  8
0
 10
112.634
 20
3185.37
 11
112.366
 21
3185.37
  0
ENDSEC
  0
SECTION
  2
OBJECTS
  0
DICTIONARY
  0
ENDSEC
  0
EOF
