<?xml version="1.0" standalone="no"?>
<!DOCTYPE svg PUBLIC "-//W3C//DTD SVG 1.1//EN" "http://www.w3.org/Graphics/SVG/1.1/DTD/svg11.dtd">
<svg width="272mm" height="381mm" viewBox="-137 -756 272 381" xmlns="http://www.w3.org/2000/svg" version="1.1">
<title>OpenSCAD Model</title>
<path d="
M 130.937,-726.089 L 131.545,-726.245 L 132.129,-726.476 L 132.679,-726.778 L 133.187,-727.147 L 133.645,-727.577
 L 134.045,-728.061 L 134.382,-728.591 L 134.649,-729.159 L 134.843,-729.757 L 134.961,-730.373 L 135,-731
 L 135,-751 L 134.961,-751.627 L 134.843,-752.243 L 134.649,-752.841 L 134.382,-753.409 L 134.045,-753.939
 L 133.645,-754.423 L 133.187,-754.853 L 132.679,-755.222 L 132.129,-755.524 L 131.545,-755.755 L 130.937,-755.911
 L 130.314,-755.99 L -130.314,-755.99 L -130.937,-755.911 L -131.545,-755.755 L -132.129,-755.524 L -132.679,-755.222
 L -133.187,-754.853 L -133.5,-754.559 L -136.5,-754.559 L -136.5,-727.441 L -133.5,-727.441 L -133.187,-727.147
 L -132.679,-726.778 L -132.129,-726.476 L -131.545,-726.245 L -130.937,-726.089 L -130.314,-726.01 L 130.314,-726.01
 z
M -129.751,-727.508 L -130.25,-727.571 L -130.736,-727.696 L -131.203,-727.881 L -131.643,-728.123 L -132.05,-728.418
 L -132.416,-728.762 L -132.736,-729.149 L -133.005,-729.573 L -133.219,-730.028 L -133.374,-730.505 L -133.468,-730.999
 L -133.5,-731.5 L -133.5,-750.5 L -133.468,-751.001 L -133.374,-751.495 L -133.219,-751.972 L -133.005,-752.427
 L -132.736,-752.851 L -132.416,-753.238 L -132.05,-753.582 L -131.643,-753.877 L -131.203,-754.119 L -130.736,-754.304
 L -130.25,-754.429 L -129.751,-754.492 L 129.751,-754.492 L 130.25,-754.429 L 130.736,-754.304 L 131.203,-754.119
 L 131.643,-753.877 L 132.05,-753.582 L 132.416,-753.238 L 132.736,-752.851 L 133.005,-752.427 L 133.219,-751.972
 L 133.374,-751.495 L 133.468,-751.001 L 133.5,-750.5 L 133.5,-731.5 L 133.468,-730.999 L 133.374,-730.505
 L 133.219,-730.028 L 133.005,-729.573 L 132.736,-729.149 L 132.416,-728.762 L 132.05,-728.418 L 131.643,-728.123
 L 131.203,-727.881 L 130.736,-727.696 L 130.25,-727.571 L 129.751,-727.508 z
M 130.937,-687.089 L 131.545,-687.245 L 132.129,-687.476 L 132.679,-687.778 L 133.187,-688.147 L 133.645,-688.577
 L 134.045,-689.061 L 134.382,-689.591 L 134.649,-690.159 L 134.843,-690.757 L 134.961,-691.373 L 135,-692
 L 135,-712 L 134.961,-712.627 L 134.843,-713.243 L 134.649,-713.841 L 134.382,-714.409 L 134.045,-714.939
 L 133.645,-715.423 L 133.187,-715.853 L 132.679,-716.222 L 132.129,-716.524 L 131.545,-716.755 L 130.937,-716.911
 L 130.314,-716.99 L -130.314,-716.99 L -130.937,-716.911 L -131.545,-716.755 L -132.129,-716.524 L -132.679,-716.222
 L -133.187,-715.853 L -133.5,-715.559 L -133.5,-716.967 L -136.5,-716.967 L -136.5,-687.033 L -133.5,-687.033
 L -133.5,-688.441 L -133.187,-688.147 L -132.679,-687.778 L -132.129,-687.476 L -131.545,-687.245 L -130.937,-687.089
 L -130.314,-687.01 L 130.314,-687.01 z
M -129.751,-688.508 L -130.25,-688.571 L -130.736,-688.696 L -131.203,-688.881 L -131.643,-689.123 L -132.05,-689.418
 L -132.416,-689.762 L -132.736,-690.149 L -133.005,-690.573 L -133.219,-691.028 L -133.374,-691.505 L -133.468,-691.999
 L -133.5,-692.5 L -133.5,-711.5 L -133.468,-712.001 L -133.374,-712.495 L -133.219,-712.972 L -133.005,-713.427
 L -132.736,-713.851 L -132.416,-714.238 L -132.05,-714.582 L -131.643,-714.877 L -131.203,-715.119 L -130.736,-715.304
 L -130.25,-715.429 L -129.751,-715.492 L 129.751,-715.492 L 130.25,-715.429 L 130.736,-715.304 L 131.203,-715.119
 L 131.643,-714.877 L 132.05,-714.582 L 132.416,-714.238 L 132.736,-713.851 L 133.005,-713.427 L 133.219,-712.972
 L 133.374,-712.495 L 133.468,-712.001 L 133.5,-711.5 L 133.5,-692.5 L 133.468,-691.999 L 133.374,-691.505
 L 133.219,-691.028 L 133.005,-690.573 L 132.736,-690.149 L 132.416,-689.762 L 132.05,-689.418 L 131.643,-689.123
 L 131.203,-688.881 L 130.736,-688.696 L 130.25,-688.571 L 129.751,-688.508 z
M -133.5,-649.441 L -133.187,-649.147 L -132.679,-648.778 L -132.129,-648.476 L -131.545,-648.245 L -130.937,-648.089
 L -130.314,-648.01 L 130.314,-648.01 L 130.937,-648.089 L 131.545,-648.245 L 132.129,-648.476 L 132.679,-648.778
 L 133.187,-649.147 L 133.645,-649.577 L 134.045,-650.061 L 134.382,-650.591 L 134.649,-651.159 L 134.843,-651.757
 L 134.961,-652.373 L 135,-653 L 135,-673 L 134.961,-673.627 L 134.843,-674.243 L 134.649,-674.841
 L 134.382,-675.409 L 134.045,-675.939 L 133.645,-676.423 L 133.187,-676.853 L 132.679,-677.222 L 132.129,-677.524
 L 131.545,-677.755 L 130.937,-677.911 L 130.314,-677.99 L -130.314,-677.99 L -130.937,-677.911 L -131.545,-677.755
 L -132.129,-677.524 L -132.679,-677.222 L -133.187,-676.853 L -133.5,-676.559 L -133.5,-677.99 L -136.5,-677.99
 L -136.5,-673.494 L -133.374,-673.494 L -133.374,-673.495 L -133.219,-673.972 L -133.005,-674.427 L -132.736,-674.851
 L -132.416,-675.238 L -132.05,-675.582 L -131.643,-675.877 L -131.203,-676.119 L -130.736,-676.304 L -130.25,-676.429
 L -129.751,-676.492 L 129.751,-676.492 L 130.25,-676.429 L 130.736,-676.304 L 131.203,-676.119 L 131.643,-675.877
 L 132.05,-675.582 L 132.416,-675.238 L 132.736,-674.851 L 133.005,-674.427 L 133.219,-673.972 L 133.374,-673.495
 L 133.468,-673.001 L 133.5,-672.5 L 133.5,-653.5 L 133.468,-652.999 L 133.374,-652.505 L 133.219,-652.028
 L 133.005,-651.573 L 132.736,-651.149 L 132.416,-650.762 L 132.05,-650.418 L 131.643,-650.123 L 131.203,-649.881
 L 130.736,-649.696 L 130.25,-649.571 L 129.751,-649.508 L -129.751,-649.508 L -130.25,-649.571 L -130.736,-649.696
 L -131.203,-649.881 L -131.643,-650.123 L -132.05,-650.418 L -132.416,-650.762 L -132.736,-651.149 L -133.005,-651.573
 L -133.219,-652.028 L -133.374,-652.505 L -133.374,-652.506 L -136.5,-652.506 L -136.5,-648.01 L -133.5,-648.01
 z
M -133.5,-667.506 L -136.5,-667.506 L -136.5,-658.494 L -133.5,-658.494 z
M -133.5,-610.441 L -133.187,-610.147 L -132.679,-609.778 L -132.129,-609.476 L -131.545,-609.245 L -130.937,-609.089
 L -130.314,-609.01 L 130.314,-609.01 L 130.937,-609.089 L 131.545,-609.245 L 132.129,-609.476 L 132.679,-609.778
 L 133.187,-610.147 L 133.645,-610.577 L 134.045,-611.061 L 134.382,-611.591 L 134.649,-612.159 L 134.843,-612.757
 L 134.961,-613.373 L 135,-614 L 135,-634 L 134.961,-634.627 L 134.843,-635.243 L 134.649,-635.841
 L 134.382,-636.409 L 134.045,-636.939 L 133.645,-637.423 L 133.187,-637.853 L 132.679,-638.222 L 132.129,-638.524
 L 131.545,-638.755 L 130.937,-638.911 L 130.314,-638.99 L -130.314,-638.99 L -130.937,-638.911 L -131.545,-638.755
 L -132.129,-638.524 L -132.679,-638.222 L -133.187,-637.853 L -133.5,-637.559 L -133.5,-638.99 L -136.5,-638.99
 L -136.5,-609.01 L -133.5,-609.01 z
M -129.751,-610.508 L -130.25,-610.571 L -130.736,-610.696 L -131.203,-610.881 L -131.643,-611.123 L -132.05,-611.418
 L -132.416,-611.762 L -132.736,-612.149 L -133.005,-612.573 L -133.219,-613.028 L -133.374,-613.505 L -133.468,-613.999
 L -133.5,-614.5 L -133.5,-633.5 L -133.468,-634.001 L -133.374,-634.495 L -133.219,-634.972 L -133.005,-635.427
 L -132.736,-635.851 L -132.416,-636.238 L -132.05,-636.582 L -131.643,-636.877 L -131.203,-637.119 L -130.736,-637.304
 L -130.25,-637.429 L -129.751,-637.492 L 129.751,-637.492 L 130.25,-637.429 L 130.736,-637.304 L 131.203,-637.119
 L 131.643,-636.877 L 132.05,-636.582 L 132.416,-636.238 L 132.736,-635.851 L 133.005,-635.427 L 133.219,-634.972
 L 133.374,-634.495 L 133.468,-634.001 L 133.5,-633.5 L 133.5,-614.5 L 133.468,-613.999 L 133.374,-613.505
 L 133.219,-613.028 L 133.005,-612.573 L 132.736,-612.149 L 132.416,-611.762 L 132.05,-611.418 L 131.643,-611.123
 L 131.203,-610.881 L 130.736,-610.696 L 130.25,-610.571 L 129.751,-610.508 z
M -133.5,-571.441 L -133.187,-571.147 L -132.679,-570.778 L -132.129,-570.476 L -131.545,-570.245 L -130.937,-570.089
 L -130.314,-570.01 L 130.314,-570.01 L 130.937,-570.089 L 131.545,-570.245 L 132.129,-570.476 L 132.679,-570.778
 L 133.187,-571.147 L 133.645,-571.577 L 134.045,-572.061 L 134.382,-572.591 L 134.649,-573.159 L 134.843,-573.757
 L 134.961,-574.373 L 135,-575 L 135,-595 L 134.961,-595.627 L 134.843,-596.243 L 134.649,-596.841
 L 134.382,-597.409 L 134.045,-597.939 L 133.645,-598.423 L 133.187,-598.853 L 132.679,-599.222 L 132.129,-599.524
 L 131.545,-599.755 L 130.937,-599.911 L 130.314,-599.99 L -130.314,-599.99 L -130.937,-599.911 L -131.545,-599.755
 L -132.129,-599.524 L -132.679,-599.222 L -133.187,-598.853 L -133.5,-598.559 L -133.5,-599.99 L -136.5,-599.99
 L -136.5,-570.01 L -133.5,-570.01 z
M -129.751,-571.508 L -130.25,-571.571 L -130.736,-571.696 L -131.203,-571.881 L -131.643,-572.123 L -132.05,-572.418
 L -132.416,-572.762 L -132.736,-573.149 L -133.005,-573.573 L -133.219,-574.028 L -133.374,-574.505 L -133.468,-574.999
 L -133.5,-575.5 L -133.5,-594.5 L -133.468,-595.001 L -133.374,-595.495 L -133.219,-595.972 L -133.005,-596.427
 L -132.736,-596.851 L -132.416,-597.238 L -132.05,-597.582 L -131.643,-597.877 L -131.203,-598.119 L -130.736,-598.304
 L -130.25,-598.429 L -129.751,-598.492 L 129.751,-598.492 L 130.25,-598.429 L 130.736,-598.304 L 131.203,-598.119
 L 131.643,-597.877 L 132.05,-597.582 L 132.416,-597.238 L 132.736,-596.851 L 133.005,-596.427 L 133.219,-595.972
 L 133.374,-595.495 L 133.468,-595.001 L 133.5,-594.5 L 133.5,-575.5 L 133.468,-574.999 L 133.374,-574.505
 L 133.219,-574.028 L 133.005,-573.573 L 132.736,-573.149 L 132.416,-572.762 L 132.05,-572.418 L 131.643,-572.123
 L 131.203,-571.881 L 130.736,-571.696 L 130.25,-571.571 L 129.751,-571.508 z
M -133.5,-532.441 L -133.187,-532.147 L -132.679,-531.778 L -132.129,-531.476 L -131.545,-531.245 L -130.937,-531.089
 L -130.314,-531.01 L 130.314,-531.01 L 130.937,-531.089 L 131.545,-531.245 L 132.129,-531.476 L 132.679,-531.778
 L 133.187,-532.147 L 133.645,-532.577 L 134.045,-533.061 L 134.382,-533.591 L 134.649,-534.159 L 134.843,-534.757
 L 134.961,-535.373 L 135,-536 L 135,-556 L 134.961,-556.627 L 134.843,-557.243 L 134.649,-557.841
 L 134.382,-558.409 L 134.045,-558.939 L 133.645,-559.423 L 133.187,-559.853 L 132.679,-560.222 L 132.129,-560.524
 L 131.545,-560.755 L 130.937,-560.911 L 130.314,-560.99 L -130.314,-560.99 L -130.937,-560.911 L -131.545,-560.755
 L -132.129,-560.524 L -132.679,-560.222 L -133.187,-559.853 L -133.5,-559.559 L -133.5,-560.99 L -136.5,-560.99
 L -136.5,-531.01 L -133.5,-531.01 z
M -129.751,-532.508 L -130.25,-532.571 L -130.736,-532.696 L -131.203,-532.881 L -131.643,-533.123 L -132.05,-533.418
 L -132.416,-533.762 L -132.736,-534.149 L -133.005,-534.573 L -133.219,-535.028 L -133.374,-535.505 L -133.468,-535.999
 L -133.5,-536.5 L -133.5,-555.5 L -133.468,-556.001 L -133.374,-556.495 L -133.219,-556.972 L -133.005,-557.427
 L -132.736,-557.851 L -132.416,-558.238 L -132.05,-558.582 L -131.643,-558.877 L -131.203,-559.119 L -130.736,-559.304
 L -130.25,-559.429 L -129.751,-559.492 L 129.751,-559.492 L 130.25,-559.429 L 130.736,-559.304 L 131.203,-559.119
 L 131.643,-558.877 L 132.05,-558.582 L 132.416,-558.238 L 132.736,-557.851 L 133.005,-557.427 L 133.219,-556.972
 L 133.374,-556.495 L 133.468,-556.001 L 133.5,-555.5 L 133.5,-536.5 L 133.468,-535.999 L 133.374,-535.505
 L 133.219,-535.028 L 133.005,-534.573 L 132.736,-534.149 L 132.416,-533.762 L 132.05,-533.418 L 131.643,-533.123
 L 131.203,-532.881 L 130.736,-532.696 L 130.25,-532.571 L 129.751,-532.508 z
M -133.5,-493.441 L -133.187,-493.147 L -132.679,-492.778 L -132.129,-492.476 L -131.545,-492.245 L -130.937,-492.089
 L -130.314,-492.01 L 130.314,-492.01 L 130.937,-492.089 L 131.545,-492.245 L 132.129,-492.476 L 132.679,-492.778
 L 133.187,-493.147 L 133.645,-493.577 L 134.045,-494.061 L 134.382,-494.591 L 134.649,-495.159 L 134.843,-495.757
 L 134.961,-496.373 L 135,-497 L 135,-517 L 134.961,-517.627 L 134.843,-518.243 L 134.649,-518.841
 L 134.382,-519.409 L 134.045,-519.939 L 133.645,-520.423 L 133.187,-520.853 L 132.679,-521.222 L 132.129,-521.524
 L 131.545,-521.755 L 130.937,-521.911 L 130.314,-521.99 L -130.314,-521.99 L -130.937,-521.911 L -131.545,-521.755
 L -132.129,-521.524 L -132.679,-521.222 L -133.187,-520.853 L -133.5,-520.559 L -133.5,-521.99 L -136.5,-521.99
 L -136.5,-492.01 L -133.5,-492.01 z
M -129.751,-493.508 L -130.25,-493.571 L -130.736,-493.696 L -131.203,-493.881 L -131.643,-494.123 L -132.05,-494.418
 L -132.416,-494.762 L -132.736,-495.149 L -133.005,-495.573 L -133.219,-496.028 L -133.374,-496.505 L -133.468,-496.999
 L -133.5,-497.5 L -133.5,-516.5 L -133.468,-517.001 L -133.374,-517.495 L -133.219,-517.972 L -133.005,-518.427
 L -132.736,-518.851 L -132.416,-519.238 L -132.05,-519.582 L -131.643,-519.877 L -131.203,-520.119 L -130.736,-520.304
 L -130.25,-520.429 L -129.751,-520.492 L 129.751,-520.492 L 130.25,-520.429 L 130.736,-520.304 L 131.203,-520.119
 L 131.643,-519.877 L 132.05,-519.582 L 132.416,-519.238 L 132.736,-518.851 L 133.005,-518.427 L 133.219,-517.972
 L 133.374,-517.495 L 133.468,-517.001 L 133.5,-516.5 L 133.5,-497.5 L 133.468,-496.999 L 133.374,-496.505
 L 133.219,-496.028 L 133.005,-495.573 L 132.736,-495.149 L 132.416,-494.762 L 132.05,-494.418 L 131.643,-494.123
 L 131.203,-493.881 L 130.736,-493.696 L 130.25,-493.571 L 129.751,-493.508 z
M -133.5,-454.441 L -133.187,-454.147 L -132.679,-453.778 L -132.129,-453.476 L -131.545,-453.245 L -130.937,-453.089
 L -130.314,-453.01 L 130.314,-453.01 L 130.937,-453.089 L 131.545,-453.245 L 132.129,-453.476 L 132.679,-453.778
 L 133.187,-454.147 L 133.645,-454.577 L 134.045,-455.061 L 134.382,-455.591 L 134.649,-456.159 L 134.843,-456.757
 L 134.961,-457.373 L 135,-458 L 135,-478 L 134.961,-478.627 L 134.843,-479.243 L 134.649,-479.841
 L 134.382,-480.409 L 134.045,-480.939 L 133.645,-481.423 L 133.187,-481.853 L 132.679,-482.222 L 132.129,-482.524
 L 131.545,-482.755 L 130.937,-482.911 L 130.314,-482.99 L -130.314,-482.99 L -130.937,-482.911 L -131.545,-482.755
 L -132.129,-482.524 L -132.679,-482.222 L -133.187,-481.853 L -133.5,-481.559 L -133.5,-482.99 L -136.5,-482.99
 L -136.5,-453.01 L -133.5,-453.01 z
M -129.751,-454.508 L -130.25,-454.571 L -130.736,-454.696 L -131.203,-454.881 L -131.643,-455.123 L -132.05,-455.418
 L -132.416,-455.762 L -132.736,-456.149 L -133.005,-456.573 L -133.219,-457.028 L -133.374,-457.505 L -133.468,-457.999
 L -133.5,-458.5 L -133.5,-477.5 L -133.468,-478.001 L -133.374,-478.495 L -133.219,-478.972 L -133.005,-479.427
 L -132.736,-479.851 L -132.416,-480.238 L -132.05,-480.582 L -131.643,-480.877 L -131.203,-481.119 L -130.736,-481.304
 L -130.25,-481.429 L -129.751,-481.492 L 129.751,-481.492 L 130.25,-481.429 L 130.736,-481.304 L 131.203,-481.119
 L 131.643,-480.877 L 132.05,-480.582 L 132.416,-480.238 L 132.736,-479.851 L 133.005,-479.427 L 133.219,-478.972
 L 133.374,-478.495 L 133.468,-478.001 L 133.5,-477.5 L 133.5,-458.5 L 133.468,-457.999 L 133.374,-457.505
 L 133.219,-457.028 L 133.005,-456.573 L 132.736,-456.149 L 132.416,-455.762 L 132.05,-455.418 L 131.643,-455.123
 L 131.203,-454.881 L 130.736,-454.696 L 130.25,-454.571 L 129.751,-454.508 z
M 130.937,-414.089 L 131.545,-414.245 L 132.129,-414.476 L 132.679,-414.778 L 133.187,-415.147 L 133.645,-415.577
 L 134.045,-416.061 L 134.382,-416.591 L 134.649,-417.159 L 134.843,-417.757 L 134.961,-418.373 L 135,-419
 L 135,-439 L 134.961,-439.627 L 134.843,-440.243 L 134.649,-440.841 L 134.382,-441.409 L 134.045,-441.939
 L 133.645,-442.423 L 133.187,-442.853 L 132.679,-443.222 L 132.129,-443.524 L 131.545,-443.755 L 130.937,-443.911
 L 130.314,-443.99 L -130.314,-443.99 L -130.937,-443.911 L -131.545,-443.755 L -132.129,-443.524 L -132.679,-443.222
 L -133.187,-442.853 L -133.5,-442.559 L -133.5,-443.979 L -136.5,-443.979 L -136.5,-414.021 L -133.5,-414.021
 L -133.5,-415.441 L -133.187,-415.147 L -132.679,-414.778 L -132.129,-414.476 L -131.545,-414.245 L -130.937,-414.089
 L -130.314,-414.01 L 130.314,-414.01 z
M -129.695,-416.393 L -130.083,-416.442 L -130.462,-416.539 L -130.825,-416.683 L -131.168,-416.872 L -131.484,-417.101
 L -131.769,-417.369 L -132.018,-417.67 L -132.228,-418 L -132.394,-418.354 L -132.515,-418.726 L -132.588,-419.11
 L -132.613,-419.5 L -132.613,-438.5 L -132.588,-438.89 L -132.515,-439.274 L -132.394,-439.646 L -132.228,-440
 L -132.018,-440.33 L -131.769,-440.631 L -131.484,-440.899 L -131.168,-441.128 L -130.825,-441.317 L -130.462,-441.461
 L -130.083,-441.558 L -129.695,-441.607 L 129.695,-441.607 L 130.083,-441.558 L 130.462,-441.461 L 130.825,-441.317
 L 131.168,-441.128 L 131.484,-440.899 L 131.769,-440.631 L 132.018,-440.33 L 132.228,-440 L 132.394,-439.646
 L 132.515,-439.274 L 132.588,-438.89 L 132.613,-438.5 L 132.613,-419.5 L 132.588,-419.11 L 132.515,-418.726
 L 132.394,-418.354 L 132.228,-418 L 132.018,-417.67 L 131.769,-417.369 L 131.484,-417.101 L 131.168,-416.872
 L 130.825,-416.683 L 130.462,-416.539 L 130.083,-416.442 L 129.695,-416.393 z
M 130.937,-375.089 L 131.545,-375.245 L 132.129,-375.476 L 132.679,-375.778 L 133.187,-376.147 L 133.645,-376.577
 L 134.045,-377.061 L 134.382,-377.591 L 134.649,-378.159 L 134.843,-378.757 L 134.961,-379.373 L 135,-380
 L 135,-400 L 134.961,-400.627 L 134.843,-401.243 L 134.649,-401.841 L 134.382,-402.409 L 134.045,-402.939
 L 133.645,-403.423 L 133.187,-403.853 L 132.679,-404.222 L 132.129,-404.524 L 131.545,-404.755 L 130.937,-404.911
 L 130.314,-404.99 L -130.314,-404.99 L -130.937,-404.911 L -131.545,-404.755 L -132.129,-404.524 L -132.679,-404.222
 L -133.187,-403.853 L -133.5,-403.559 L -133.5,-403.653 L -136.5,-403.653 L -136.5,-376.347 L -133.5,-376.347
 L -133.5,-376.441 L -133.187,-376.147 L -132.679,-375.778 L -132.129,-375.476 L -131.545,-375.245 L -130.937,-375.089
 L -130.314,-375.01 L 130.314,-375.01 z
M -127.634,-395.369 L -127.9,-395.403 L -128.16,-395.469 L -128.409,-395.568 L -128.644,-395.697 L -128.861,-395.855
 L -129.057,-396.038 L -129.227,-396.245 L -129.371,-396.471 L -129.485,-396.714 L -129.568,-396.969 L -129.618,-397.232
 L -129.635,-397.5 L -129.618,-397.768 L -129.568,-398.031 L -129.485,-398.286 L -129.371,-398.529 L -129.227,-398.755
 L -129.057,-398.962 L -128.861,-399.145 L -128.644,-399.303 L -128.409,-399.432 L -128.16,-399.531 L -127.9,-399.597
 L -127.634,-399.631 L -127.366,-399.631 L -127.1,-399.597 L -126.84,-399.531 L -126.591,-399.432 L -126.356,-399.303
 L -126.139,-399.145 L -125.943,-398.962 L -125.773,-398.755 L -125.629,-398.529 L -125.515,-398.286 L -125.432,-398.031
 L -125.382,-397.768 L -125.365,-397.5 L -125.382,-397.232 L -125.432,-396.969 L -125.515,-396.714 L -125.629,-396.471
 L -125.773,-396.245 L -125.943,-396.038 L -126.139,-395.855 L -126.356,-395.697 L -126.591,-395.568 L -126.84,-395.469
 L -127.1,-395.403 L -127.366,-395.369 z
M 127.366,-395.369 L 127.1,-395.403 L 126.84,-395.469 L 126.591,-395.568 L 126.356,-395.697 L 126.139,-395.855
 L 125.943,-396.038 L 125.773,-396.245 L 125.629,-396.471 L 125.515,-396.714 L 125.432,-396.969 L 125.382,-397.232
 L 125.365,-397.5 L 125.382,-397.768 L 125.432,-398.031 L 125.515,-398.286 L 125.629,-398.529 L 125.773,-398.755
 L 125.943,-398.962 L 126.139,-399.145 L 126.356,-399.303 L 126.591,-399.432 L 126.84,-399.531 L 127.1,-399.597
 L 127.366,-399.631 L 127.634,-399.631 L 127.9,-399.597 L 128.16,-399.531 L 128.409,-399.432 L 128.644,-399.303
 L 128.861,-399.145 L 129.057,-398.962 L 129.227,-398.755 L 129.371,-398.529 L 129.485,-398.286 L 129.568,-398.031
 L 129.618,-397.768 L 129.635,-397.5 L 129.618,-397.232 L 129.568,-396.969 L 129.485,-396.714 L 129.371,-396.471
 L 129.227,-396.245 L 129.057,-396.038 L 128.861,-395.855 L 128.644,-395.697 L 128.409,-395.568 L 128.16,-395.469
 L 127.9,-395.403 L 127.634,-395.369 z
M -127.634,-380.369 L -127.9,-380.403 L -128.16,-380.469 L -128.409,-380.568 L -128.644,-380.697 L -128.861,-380.855
 L -129.057,-381.038 L -129.227,-381.245 L -129.371,-381.471 L -129.485,-381.714 L -129.568,-381.969 L -129.618,-382.232
 L -129.635,-382.5 L -129.618,-382.768 L -129.568,-383.031 L -129.485,-383.286 L -129.371,-383.529 L -129.227,-383.755
 L -129.057,-383.962 L -128.861,-384.145 L -128.644,-384.303 L -128.409,-384.432 L -128.16,-384.531 L -127.9,-384.597
 L -127.634,-384.631 L -127.366,-384.631 L -127.1,-384.597 L -126.84,-384.531 L -126.591,-384.432 L -126.356,-384.303
 L -126.139,-384.145 L -125.943,-383.962 L -125.773,-383.755 L -125.629,-383.529 L -125.515,-383.286 L -125.432,-383.031
 L -125.382,-382.768 L -125.365,-382.5 L -125.382,-382.232 L -125.432,-381.969 L -125.515,-381.714 L -125.629,-381.471
 L -125.773,-381.245 L -125.943,-381.038 L -126.139,-380.855 L -126.356,-380.697 L -126.591,-380.568 L -126.84,-380.469
 L -127.1,-380.403 L -127.366,-380.369 z
M 127.366,-380.369 L 127.1,-380.403 L 126.84,-380.469 L 126.591,-380.568 L 126.356,-380.697 L 126.139,-380.855
 L 125.943,-381.038 L 125.773,-381.245 L 125.629,-381.471 L 125.515,-381.714 L 125.432,-381.969 L 125.382,-382.232
 L 125.365,-382.5 L 125.382,-382.768 L 125.432,-383.031 L 125.515,-383.286 L 125.629,-383.529 L 125.773,-383.755
 L 125.943,-383.962 L 126.139,-384.145 L 126.356,-384.303 L 126.591,-384.432 L 126.84,-384.531 L 127.1,-384.597
 L 127.366,-384.631 L 127.634,-384.631 L 127.9,-384.597 L 128.16,-384.531 L 128.409,-384.432 L 128.644,-384.303
 L 128.861,-384.145 L 129.057,-383.962 L 129.227,-383.755 L 129.371,-383.529 L 129.485,-383.286 L 129.568,-383.031
 L 129.618,-382.768 L 129.635,-382.5 L 129.618,-382.232 L 129.568,-381.969 L 129.485,-381.714 L 129.371,-381.471
 L 129.227,-381.245 L 129.057,-381.038 L 128.861,-380.855 L 128.644,-380.697 L 128.409,-380.568 L 128.16,-380.469
 L 127.9,-380.403 L 127.634,-380.369 z
" stroke="black" fill="lightgray" stroke-width="0.5"/>
</svg>
