<?xml version="1.0" standalone="no"?>
<!DOCTYPE svg PUBLIC "-//W3C//DTD SVG 1.1//EN" "http://www.w3.org/Graphics/SVG/1.1/DTD/svg11.dtd">
<svg width="257mm" height="288mm" viewBox="-129 -540 257 288" xmlns="http://www.w3.org/2000/svg" version="1.1">
<title>OpenSCAD Model</title>
<path d="
M -126,-451.441 L -125.687,-451.147 L -125.179,-450.778 L -124.629,-450.476 L -124.045,-450.245 L -123.437,-450.089
 L -122.814,-450.01 L 122.814,-450.01 L 123.437,-450.089 L 124.045,-450.245 L 124.629,-450.476 L 125.179,-450.778
 L 125.687,-451.147 L 126.145,-451.577 L 126.545,-452.061 L 126.882,-452.591 L 127.149,-453.159 L 127.343,-453.757
 L 127.461,-454.373 L 127.5,-455 L 127.5,-535 L 127.461,-535.627 L 127.343,-536.243 L 127.149,-536.841
 L 126.882,-537.409 L 126.545,-537.939 L 126.145,-538.423 L 125.687,-538.853 L 125.179,-539.222 L 124.629,-539.524
 L 124.045,-539.755 L 123.437,-539.911 L 122.814,-539.99 L -122.814,-539.99 L -123.437,-539.911 L -124.045,-539.755
 L -124.629,-539.524 L -125.179,-539.222 L -125.687,-538.853 L -126,-538.559 L -126,-539.99 L -129,-539.99
 L -129,-450.01 L -126,-450.01 z
M -122.251,-451.508 L -122.75,-451.571 L -123.236,-451.696 L -123.703,-451.881 L -124.143,-452.123 L -124.55,-452.418
 L -124.916,-452.762 L -125.236,-453.149 L -125.505,-453.573 L -125.719,-454.028 L -125.874,-454.505 L -125.968,-454.999
 L -126,-455.5 L -126,-534.5 L -125.968,-535.001 L -125.874,-535.495 L -125.719,-535.972 L -125.505,-536.427
 L -125.236,-536.851 L -124.916,-537.238 L -124.55,-537.582 L -124.143,-537.877 L -123.703,-538.119 L -123.236,-538.304
 L -122.75,-538.429 L -122.251,-538.492 L 122.251,-538.492 L 122.75,-538.429 L 123.236,-538.304 L 123.703,-538.119
 L 124.143,-537.877 L 124.55,-537.582 L 124.916,-537.238 L 125.236,-536.851 L 125.505,-536.427 L 125.719,-535.972
 L 125.874,-535.495 L 125.968,-535.001 L 126,-534.5 L 126,-455.5 L 125.968,-454.999 L 125.874,-454.505
 L 125.719,-454.028 L 125.505,-453.573 L 125.236,-453.149 L 124.916,-452.762 L 124.55,-452.418 L 124.143,-452.123
 L 123.703,-451.881 L 123.236,-451.696 L 122.75,-451.571 L 122.251,-451.508 z
M 123.437,-351.089 L 124.045,-351.245 L 124.629,-351.476 L 125.179,-351.778 L 125.687,-352.147 L 126.145,-352.577
 L 126.545,-353.061 L 126.882,-353.591 L 127.149,-354.159 L 127.343,-354.757 L 127.461,-355.373 L 127.5,-356
 L 127.5,-436 L 127.461,-436.627 L 127.343,-437.243 L 127.149,-437.841 L 126.882,-438.409 L 126.545,-438.939
 L 126.145,-439.423 L 125.687,-439.853 L 125.179,-440.222 L 124.629,-440.524 L 124.045,-440.755 L 123.437,-440.911
 L 122.814,-440.99 L -122.814,-440.99 L -123.437,-440.911 L -124.045,-440.755 L -124.629,-440.524 L -125.179,-440.222
 L -125.687,-439.853 L -126,-439.559 L -126,-440.979 L -129,-440.979 L -129,-351.021 L -126,-351.021
 L -126,-352.441 L -125.687,-352.147 L -125.179,-351.778 L -124.629,-351.476 L -124.045,-351.245 L -123.437,-351.089
 L -122.814,-351.01 L 122.814,-351.01 z
M -122.195,-353.393 L -122.583,-353.442 L -122.962,-353.539 L -123.325,-353.683 L -123.668,-353.872 L -123.984,-354.101
 L -124.269,-354.369 L -124.518,-354.67 L -124.728,-355 L -124.894,-355.354 L -125.015,-355.726 L -125.088,-356.11
 L -125.113,-356.5 L -125.113,-435.5 L -125.088,-435.89 L -125.015,-436.274 L -124.894,-436.646 L -124.728,-437
 L -124.518,-437.33 L -124.269,-437.631 L -123.984,-437.899 L -123.668,-438.128 L -123.325,-438.317 L -122.962,-438.461
 L -122.583,-438.558 L -122.195,-438.607 L 122.195,-438.607 L 122.583,-438.558 L 122.962,-438.461 L 123.325,-438.317
 L 123.668,-438.128 L 123.984,-437.899 L 124.269,-437.631 L 124.518,-437.33 L 124.728,-437 L 124.894,-436.646
 L 125.015,-436.274 L 125.088,-435.89 L 125.113,-435.5 L 125.113,-356.5 L 125.088,-356.11 L 125.015,-355.726
 L 124.894,-355.354 L 124.728,-355 L 124.518,-354.67 L 124.269,-354.369 L 123.984,-354.101 L 123.668,-353.872
 L 123.325,-353.683 L 122.962,-353.539 L 122.583,-353.442 L 122.195,-353.393 z
M 123.437,-252.089 L 124.045,-252.245 L 124.629,-252.476 L 125.179,-252.778 L 125.687,-253.147 L 126.145,-253.577
 L 126.545,-254.061 L 126.882,-254.591 L 127.149,-255.159 L 127.343,-255.757 L 127.461,-256.373 L 127.5,-257
 L 127.5,-337 L 127.461,-337.627 L 127.343,-338.243 L 127.149,-338.841 L 126.882,-339.409 L 126.545,-339.939
 L 126.145,-340.423 L 125.687,-340.853 L 125.179,-341.222 L 124.629,-341.524 L 124.045,-341.755 L 123.437,-341.911
 L 122.814,-341.99 L -122.814,-341.99 L -123.437,-341.911 L -124.045,-341.755 L -124.629,-341.524 L -125.179,-341.222
 L -125.687,-340.853 L -126,-340.559 L -126,-340.653 L -129,-340.653 L -129,-253.347 L -126,-253.347
 L -126,-253.441 L -125.687,-253.147 L -125.179,-252.778 L -124.629,-252.476 L -124.045,-252.245 L -123.437,-252.089
 L -122.814,-252.01 L 122.814,-252.01 z
M 119.866,-332.369 L 119.6,-332.403 L 119.34,-332.469 L 119.091,-332.568 L 118.856,-332.697 L 118.639,-332.855
 L 118.443,-333.038 L 118.273,-333.245 L 118.129,-333.471 L 118.015,-333.714 L 117.932,-333.969 L 117.882,-334.232
 L 117.865,-334.5 L 117.882,-334.768 L 117.932,-335.031 L 118.015,-335.286 L 118.129,-335.529 L 118.273,-335.755
 L 118.443,-335.962 L 118.639,-336.145 L 118.856,-336.303 L 119.091,-336.432 L 119.34,-336.531 L 119.6,-336.597
 L 119.866,-336.631 L 120.134,-336.631 L 120.4,-336.597 L 120.66,-336.531 L 120.909,-336.432 L 121.144,-336.303
 L 121.361,-336.145 L 121.557,-335.962 L 121.727,-335.755 L 121.871,-335.529 L 121.985,-335.286 L 122.068,-335.031
 L 122.118,-334.768 L 122.135,-334.5 L 122.118,-334.232 L 122.068,-333.969 L 121.985,-333.714 L 121.871,-333.471
 L 121.727,-333.245 L 121.557,-333.038 L 121.361,-332.855 L 121.144,-332.697 L 120.909,-332.568 L 120.66,-332.469
 L 120.4,-332.403 L 120.134,-332.369 z
M -120.134,-332.369 L -120.4,-332.403 L -120.66,-332.469 L -120.909,-332.568 L -121.144,-332.697 L -121.361,-332.855
 L -121.557,-333.038 L -121.727,-333.245 L -121.871,-333.471 L -121.985,-333.714 L -122.068,-333.969 L -122.118,-334.232
 L -122.135,-334.5 L -122.118,-334.768 L -122.068,-335.031 L -121.985,-335.286 L -121.871,-335.529 L -121.727,-335.755
 L -121.557,-335.962 L -121.361,-336.145 L -121.144,-336.303 L -120.909,-336.432 L -120.66,-336.531 L -120.4,-336.597
 L -120.134,-336.631 L -119.866,-336.631 L -119.6,-336.597 L -119.34,-336.531 L -119.091,-336.432 L -118.856,-336.303
 L -118.639,-336.145 L -118.443,-335.962 L -118.273,-335.755 L -118.129,-335.529 L -118.015,-335.286 L -117.932,-335.031
 L -117.882,-334.768 L -117.865,-334.5 L -117.882,-334.232 L -117.932,-333.969 L -118.015,-333.714 L -118.129,-333.471
 L -118.273,-333.245 L -118.443,-333.038 L -118.639,-332.855 L -118.856,-332.697 L -119.091,-332.568 L -119.34,-332.469
 L -119.6,-332.403 L -119.866,-332.369 z
M 119.866,-257.369 L 119.6,-257.403 L 119.34,-257.469 L 119.091,-257.568 L 118.856,-257.697 L 118.639,-257.855
 L 118.443,-258.038 L 118.273,-258.245 L 118.129,-258.471 L 118.015,-258.714 L 117.932,-258.969 L 117.882,-259.232
 L 117.865,-259.5 L 117.882,-259.768 L 117.932,-260.031 L 118.015,-260.286 L 118.129,-260.529 L 118.273,-260.755
 L 118.443,-260.962 L 118.639,-261.145 L 118.856,-261.303 L 119.091,-261.432 L 119.34,-261.531 L 119.6,-261.597
 L 119.866,-261.631 L 120.134,-261.631 L 120.4,-261.597 L 120.66,-261.531 L 120.909,-261.432 L 121.144,-261.303
 L 121.361,-261.145 L 121.557,-260.962 L 121.727,-260.755 L 121.871,-260.529 L 121.985,-260.286 L 122.068,-260.031
 L 122.118,-259.768 L 122.135,-259.5 L 122.118,-259.232 L 122.068,-258.969 L 121.985,-258.714 L 121.871,-258.471
 L 121.727,-258.245 L 121.557,-258.038 L 121.361,-257.855 L 121.144,-257.697 L 120.909,-257.568 L 120.66,-257.469
 L 120.4,-257.403 L 120.134,-257.369 z
M -120.134,-257.369 L -120.4,-257.403 L -120.66,-257.469 L -120.909,-257.568 L -121.144,-257.697 L -121.361,-257.855
 L -121.557,-258.038 L -121.727,-258.245 L -121.871,-258.471 L -121.985,-258.714 L -122.068,-258.969 L -122.118,-259.232
 L -122.135,-259.5 L -122.118,-259.768 L -122.068,-260.031 L -121.985,-260.286 L -121.871,-260.529 L -121.727,-260.755
 L -121.557,-260.962 L -121.361,-261.145 L -121.144,-261.303 L -120.909,-261.432 L -120.66,-261.531 L -120.4,-261.597
 L -120.134,-261.631 L -119.866,-261.631 L -119.6,-261.597 L -119.34,-261.531 L -119.091,-261.432 L -118.856,-261.303
 L -118.639,-261.145 L -118.443,-260.962 L -118.273,-260.755 L -118.129,-260.529 L -118.015,-260.286 L -117.932,-260.031
 L -117.882,-259.768 L -117.865,-259.5 L -117.882,-259.232 L -117.932,-258.969 L -118.015,-258.714 L -118.129,-258.471
 L -118.273,-258.245 L -118.443,-258.038 L -118.639,-257.855 L -118.856,-257.697 L -119.091,-257.568 L -119.34,-257.469
 L -119.6,-257.403 L -119.866,-257.369 z
" stroke="black" fill="lightgray" stroke-width="0.5"/>
</svg>
