  0
SECTION
  2
BLOCKS
  0
ENDSEC
  0
SECTION
  2
ENTITIES
  0
LINE
  8
0
 10
123.437
 20
1915.59
 11
124.045
 21
1915.74
  0
LINE
  8
0
 10
124.045
 20
1915.74
 11
124.629
 21
1915.98
  0
LINE
  8
0
 10
124.629
 20
1915.98
 11
125.179
 21
1916.28
  0
LINE
  8
0
 10
125.179
 20
1916.28
 11
125.687
 21
1916.65
  0
LINE
  8
0
 10
125.687
 20
1916.65
 11
126.145
 21
1917.08
  0
LINE
  8
0
 10
126.145
 20
1917.08
 11
126.545
 21
1917.56
  0
LINE
  8
0
 10
126.545
 20
1917.56
 11
126.882
 21
1918.09
  0
LINE
  8
0
 10
126.882
 20
1918.09
 11
127.149
 21
1918.66
  0
LINE
  8
0
 10
127.149
 20
1918.66
 11
127.343
 21
1919.26
  0
LINE
  8
0
 10
127.343
 20
1919.26
 11
127.461
 21
1919.87
  0
LINE
  8
0
 10
127.461
 20
1919.87
 11
127.5
 21
1920.5
  0
LINE
  8
0
 10
127.5
 20
1920.5
 11
127.5
 21
2195.5
  0
LINE
  8
0
 10
127.5
 20
2195.5
 11
127.461
 21
2196.13
  0
LINE
  8
0
 10
127.461
 20
2196.13
 11
127.343
 21
2196.74
  0
LINE
  8
0
 10
127.343
 20
2196.74
 11
127.149
 21
2197.34
  0
LINE
  8
0
 10
127.149
 20
2197.34
 11
126.882
 21
2197.91
  0
LINE
  8
0
 10
126.882
 20
2197.91
 11
126.545
 21
2198.44
  0
LINE
  8
0
 10
126.545
 20
2198.44
 11
126.145
 21
2198.92
  0
LINE
  8
0
 10
126.145
 20
2198.92
 11
125.687
 21
2199.35
  0
LINE
  8
0
 10
125.687
 20
2199.35
 11
125.179
 21
2199.72
  0
LINE
  8
0
 10
125.179
 20
2199.72
 11
124.629
 21
2200.02
  0
LINE
  8
0
 10
124.629
 20
2200.02
 11
124.045
 21
2200.26
  0
LINE
  8
0
 10
124.045
 20
2200.26
 11
123.437
 21
2200.41
  0
LINE
  8
0
 10
123.437
 20
2200.41
 11
122.814
 21
2200.49
  0
LINE
  8
0
 10
122.814
 20
2200.49
 11
-122.814
 21
2200.49
  0
LINE
  8
0
 10
-122.814
 20
2200.49
 11
-123.437
 21
2200.41
  0
LINE
  8
0
 10
-123.437
 20
2200.41
 11
-124.045
 21
2200.26
  0
LINE
  8
0
 10
-124.045
 20
2200.26
 11
-124.629
 21
2200.02
  0
LINE
  8
0
 10
-124.629
 20
2200.02
 11
-125.179
 21
2199.72
  0
LINE
  8
0
 10
-125.179
 20
2199.72
 11
-125.687
 21
2199.35
  0
LINE
  8
0
 10
-125.687
 20
2199.35
 11
-126.145
 21
2198.92
  0
LINE
  8
0
 10
-126.145
 20
2198.92
 11
-126.545
 21
2198.44
  0
LINE
  8
0
 10
-126.545
 20
2198.44
 11
-126.882
 21
2197.91
  0
LINE
  8
0
 10
-126.882
 20
2197.91
 11
-127.149
 21
2197.34
  0
LINE
  8
0
 10
-127.149
 20
2197.34
 11
-127.343
 21
2196.74
  0
LINE
  8
0
 10
-127.343
 20
2196.74
 11
-127.461
 21
2196.13
  0
LINE
  8
0
 10
-127.461
 20
2196.13
 11
-127.5
 21
2195.5
  0
LINE
  8
0
 10
-127.5
 20
2195.5
 11
-127.5
 21
1920.5
  0
LINE
  8
0
 10
-127.5
 20
1920.5
 11
-127.461
 21
1919.87
  0
LINE
  8
0
 10
-127.461
 20
1919.87
 11
-127.343
 21
1919.26
  0
LINE
  8
0
 10
-127.343
 20
1919.26
 11
-127.149
 21
1918.66
  0
LINE
  8
0
 10
-127.149
 20
1918.66
 11
-126.882
 21
1918.09
  0
LINE
  8
0
 10
-126.882
 20
1918.09
 11
-126.545
 21
1917.56
  0
LINE
  8
0
 10
-126.545
 20
1917.56
 11
-126.145
 21
1917.08
  0
LINE
  8
0
 10
-126.145
 20
1917.08
 11
-125.687
 21
1916.65
  0
LINE
  8
0
 10
-125.687
 20
1916.65
 11
-125.179
 21
1916.28
  0
LINE
  8
0
 10
-125.179
 20
1916.28
 11
-124.629
 21
1915.98
  0
LINE
  8
0
 10
-124.629
 20
1915.98
 11
-124.045
 21
1915.74
  0
LINE
  8
0
 10
-124.045
 20
1915.74
 11
-123.437
 21
1915.59
  0
LINE
  8
0
 10
-123.437
 20
1915.59
 11
-122.814
 21
1915.51
  0
LINE
  8
0
 10
-122.814
 20
1915.51
 11
122.814
 21
1915.51
  0
LINE
  8
0
 10
122.814
 20
1915.51
 11
123.437
 21
1915.59
  0
LINE
  8
0
 10
-122.251
 20
1917.01
 11
-122.75
 21
1917.07
  0
LINE
  8
0
 10
-122.75
 20
1917.07
 11
-123.236
 21
1917.2
  0
LINE
  8
0
 10
-123.236
 20
1917.2
 11
-123.703
 21
1917.38
  0
LINE
  8
0
 10
-123.703
 20
1917.38
 11
-124.143
 21
1917.62
  0
LINE
  8
0
 10
-124.143
 20
1917.62
 11
-124.55
 21
1917.92
  0
LINE
  8
0
 10
-124.55
 20
1917.92
 11
-124.916
 21
1918.26
  0
LINE
  8
0
 10
-124.916
 20
1918.26
 11
-125.236
 21
1918.65
  0
LINE
  8
0
 10
-125.236
 20
1918.65
 11
-125.505
 21
1919.07
  0
LINE
  8
0
 10
-125.505
 20
1919.07
 11
-125.719
 21
1919.53
  0
LINE
  8
0
 10
-125.719
 20
1919.53
 11
-125.874
 21
1920.01
  0
LINE
  8
0
 10
-125.874
 20
1920.01
 11
-125.968
 21
1920.5
  0
LINE
  8
0
 10
-125.968
 20
1920.5
 11
-126
 21
1921
  0
LINE
  8
0
 10
-126
 20
1921
 11
-126
 21
2195
  0
LINE
  8
0
 10
-126
 20
2195
 11
-125.968
 21
2195.5
  0
LINE
  8
0
 10
-125.968
 20
2195.5
 11
-125.874
 21
2195.99
  0
LINE
  8
0
 10
-125.874
 20
2195.99
 11
-125.719
 21
2196.47
  0
LINE
  8
0
 10
-125.719
 20
2196.47
 11
-125.505
 21
2196.93
  0
LINE
  8
0
 10
-125.505
 20
2196.93
 11
-125.236
 21
2197.35
  0
LINE
  8
0
 10
-125.236
 20
2197.35
 11
-124.916
 21
2197.74
  0
LINE
  8
0
 10
-124.916
 20
2197.74
 11
-124.55
 21
2198.08
  0
LINE
  8
0
 10
-124.55
 20
2198.08
 11
-124.143
 21
2198.38
  0
LINE
  8
0
 10
-124.143
 20
2198.38
 11
-123.703
 21
2198.62
  0
LINE
  8
0
 10
-123.703
 20
2198.62
 11
-123.236
 21
2198.8
  0
LINE
  8
0
 10
-123.236
 20
2198.8
 11
-122.75
 21
2198.93
  0
LINE
  8
0
 10
-122.75
 20
2198.93
 11
-122.251
 21
2198.99
  0
LINE
  8
0
 10
-122.251
 20
2198.99
 11
122.251
 21
2198.99
  0
LINE
  8
0
 10
122.251
 20
2198.99
 11
122.75
 21
2198.93
  0
LINE
  8
0
 10
122.75
 20
2198.93
 11
123.236
 21
2198.8
  0
LINE
  8
0
 10
123.236
 20
2198.8
 11
123.703
 21
2198.62
  0
LINE
  8
0
 10
123.703
 20
2198.62
 11
124.143
 21
2198.38
  0
LINE
  8
0
 10
124.143
 20
2198.38
 11
124.55
 21
2198.08
  0
LINE
  8
0
 10
124.55
 20
2198.08
 11
124.916
 21
2197.74
  0
LINE
  8
0
 10
124.916
 20
2197.74
 11
125.236
 21
2197.35
  0
LINE
  8
0
 10
125.236
 20
2197.35
 11
125.505
 21
2196.93
  0
LINE
  8
0
 10
125.505
 20
2196.93
 11
125.719
 21
2196.47
  0
LINE
  8
0
 10
125.719
 20
2196.47
 11
125.874
 21
2195.99
  0
LINE
  8
0
 10
125.874
 20
2195.99
 11
125.968
 21
2195.5
  0
LINE
  8
0
 10
125.968
 20
2195.5
 11
126
 21
2195
  0
LINE
  8
0
 10
126
 20
2195
 11
126
 21
1921
  0
LINE
  8
0
 10
126
 20
1921
 11
125.968
 21
1920.5
  0
LINE
  8
0
 10
125.968
 20
1920.5
 11
125.874
 21
1920.01
  0
LINE
  8
0
 10
125.874
 20
1920.01
 11
125.719
 21
1919.53
  0
LINE
  8
0
 10
125.719
 20
1919.53
 11
125.505
 21
1919.07
  0
LINE
  8
0
 10
125.505
 20
1919.07
 11
125.236
 21
1918.65
  0
LINE
  8
0
 10
125.236
 20
1918.65
 11
124.916
 21
1918.26
  0
LINE
  8
0
 10
124.916
 20
1918.26
 11
124.55
 21
1917.92
  0
LINE
  8
0
 10
124.55
 20
1917.92
 11
124.143
 21
1917.62
  0
LINE
  8
0
 10
124.143
 20
1917.62
 11
123.703
 21
1917.38
  0
LINE
  8
0
 10
123.703
 20
1917.38
 11
123.236
 21
1917.2
  0
LINE
  8
0
 10
123.236
 20
1917.2
 11
122.75
 21
1917.07
  0
LINE
  8
0
 10
122.75
 20
1917.07
 11
122.251
 21
1917.01
  0
LINE
  8
0
 10
122.251
 20
1917.01
 11
-122.251
 21
1917.01
  0
LINE
  8
0
 10
123.437
 20
1621.59
 11
124.045
 21
1621.74
  0
LINE
  8
0
 10
124.045
 20
1621.74
 11
124.629
 21
1621.98
  0
LINE
  8
0
 10
124.629
 20
1621.98
 11
125.179
 21
1622.28
  0
LINE
  8
0
 10
125.179
 20
1622.28
 11
125.687
 21
1622.65
  0
LINE
  8
0
 10
125.687
 20
1622.65
 11
126.145
 21
1623.08
  0
LINE
  8
0
 10
126.145
 20
1623.08
 11
126.545
 21
1623.56
  0
LINE
  8
0
 10
126.545
 20
1623.56
 11
126.882
 21
1624.09
  0
LINE
  8
0
 10
126.882
 20
1624.09
 11
127.149
 21
1624.66
  0
LINE
  8
0
 10
127.149
 20
1624.66
 11
127.343
 21
1625.26
  0
LINE
  8
0
 10
127.343
 20
1625.26
 11
127.461
 21
1625.87
  0
LINE
  8
0
 10
127.461
 20
1625.87
 11
127.5
 21
1626.5
  0
LINE
  8
0
 10
127.5
 20
1626.5
 11
127.5
 21
1901.5
  0
LINE
  8
0
 10
127.5
 20
1901.5
 11
127.461
 21
1902.13
  0
LINE
  8
0
 10
127.461
 20
1902.13
 11
127.343
 21
1902.74
  0
LINE
  8
0
 10
127.343
 20
1902.74
 11
127.149
 21
1903.34
  0
LINE
  8
0
 10
127.149
 20
1903.34
 11
126.882
 21
1903.91
  0
LINE
  8
0
 10
126.882
 20
1903.91
 11
126.545
 21
1904.44
  0
LINE
  8
0
 10
126.545
 20
1904.44
 11
126.145
 21
1904.92
  0
LINE
  8
0
 10
126.145
 20
1904.92
 11
125.687
 21
1905.35
  0
LINE
  8
0
 10
125.687
 20
1905.35
 11
125.179
 21
1905.72
  0
LINE
  8
0
 10
125.179
 20
1905.72
 11
124.629
 21
1906.02
  0
LINE
  8
0
 10
124.629
 20
1906.02
 11
124.045
 21
1906.26
  0
LINE
  8
0
 10
124.045
 20
1906.26
 11
123.437
 21
1906.41
  0
LINE
  8
0
 10
123.437
 20
1906.41
 11
122.814
 21
1906.49
  0
LINE
  8
0
 10
122.814
 20
1906.49
 11
-122.814
 21
1906.49
  0
LINE
  8
0
 10
-122.814
 20
1906.49
 11
-123.437
 21
1906.41
  0
LINE
  8
0
 10
-123.437
 20
1906.41
 11
-124.045
 21
1906.26
  0
LINE
  8
0
 10
-124.045
 20
1906.26
 11
-124.629
 21
1906.02
  0
LINE
  8
0
 10
-124.629
 20
1906.02
 11
-125.179
 21
1905.72
  0
LINE
  8
0
 10
-125.179
 20
1905.72
 11
-125.687
 21
1905.35
  0
LINE
  8
0
 10
-125.687
 20
1905.35
 11
-126.145
 21
1904.92
  0
LINE
  8
0
 10
-126.145
 20
1904.92
 11
-126.545
 21
1904.44
  0
LINE
  8
0
 10
-126.545
 20
1904.44
 11
-126.882
 21
1903.91
  0
LINE
  8
0
 10
-126.882
 20
1903.91
 11
-127.149
 21
1903.34
  0
LINE
  8
0
 10
-127.149
 20
1903.34
 11
-127.343
 21
1902.74
  0
LINE
  8
0
 10
-127.343
 20
1902.74
 11
-127.461
 21
1902.13
  0
LINE
  8
0
 10
-127.461
 20
1902.13
 11
-127.5
 21
1901.5
  0
LINE
  8
0
 10
-127.5
 20
1901.5
 11
-127.5
 21
1626.5
  0
LINE
  8
0
 10
-127.5
 20
1626.5
 11
-127.461
 21
1625.87
  0
LINE
  8
0
 10
-127.461
 20
1625.87
 11
-127.343
 21
1625.26
  0
LINE
  8
0
 10
-127.343
 20
1625.26
 11
-127.149
 21
1624.66
  0
LINE
  8
0
 10
-127.149
 20
1624.66
 11
-126.882
 21
1624.09
  0
LINE
  8
0
 10
-126.882
 20
1624.09
 11
-126.545
 21
1623.56
  0
LINE
  8
0
 10
-126.545
 20
1623.56
 11
-126.145
 21
1623.08
  0
LINE
  8
0
 10
-126.145
 20
1623.08
 11
-125.687
 21
1622.65
  0
LINE
  8
0
 10
-125.687
 20
1622.65
 11
-125.179
 21
1622.28
  0
LINE
  8
0
 10
-125.179
 20
1622.28
 11
-124.629
 21
1621.98
  0
LINE
  8
0
 10
-124.629
 20
1621.98
 11
-124.045
 21
1621.74
  0
LINE
  8
0
 10
-124.045
 20
1621.74
 11
-123.437
 21
1621.59
  0
LINE
  8
0
 10
-123.437
 20
1621.59
 11
-122.814
 21
1621.51
  0
LINE
  8
0
 10
-122.814
 20
1621.51
 11
122.814
 21
1621.51
  0
LINE
  8
0
 10
122.814
 20
1621.51
 11
123.437
 21
1621.59
  0
LINE
  8
0
 10
-122.251
 20
1623.01
 11
-122.75
 21
1623.07
  0
LINE
  8
0
 10
-122.75
 20
1623.07
 11
-123.236
 21
1623.2
  0
LINE
  8
0
 10
-123.236
 20
1623.2
 11
-123.703
 21
1623.38
  0
LINE
  8
0
 10
-123.703
 20
1623.38
 11
-124.143
 21
1623.62
  0
LINE
  8
0
 10
-124.143
 20
1623.62
 11
-124.55
 21
1623.92
  0
LINE
  8
0
 10
-124.55
 20
1623.92
 11
-124.916
 21
1624.26
  0
LINE
  8
0
 10
-124.916
 20
1624.26
 11
-125.236
 21
1624.65
  0
LINE
  8
0
 10
-125.236
 20
1624.65
 11
-125.505
 21
1625.07
  0
LINE
  8
0
 10
-125.505
 20
1625.07
 11
-125.719
 21
1625.53
  0
LINE
  8
0
 10
-125.719
 20
1625.53
 11
-125.874
 21
1626.01
  0
LINE
  8
0
 10
-125.874
 20
1626.01
 11
-125.968
 21
1626.5
  0
LINE
  8
0
 10
-125.968
 20
1626.5
 11
-126
 21
1627
  0
LINE
  8
0
 10
-126
 20
1627
 11
-126
 21
1901
  0
LINE
  8
0
 10
-126
 20
1901
 11
-125.968
 21
1901.5
  0
LINE
  8
0
 10
-125.968
 20
1901.5
 11
-125.874
 21
1901.99
  0
LINE
  8
0
 10
-125.874
 20
1901.99
 11
-125.719
 21
1902.47
  0
LINE
  8
0
 10
-125.719
 20
1902.47
 11
-125.505
 21
1902.93
  0
LINE
  8
0
 10
-125.505
 20
1902.93
 11
-125.236
 21
1903.35
  0
LINE
  8
0
 10
-125.236
 20
1903.35
 11
-124.916
 21
1903.74
  0
LINE
  8
0
 10
-124.916
 20
1903.74
 11
-124.55
 21
1904.08
  0
LINE
  8
0
 10
-124.55
 20
1904.08
 11
-124.143
 21
1904.38
  0
LINE
  8
0
 10
-124.143
 20
1904.38
 11
-123.703
 21
1904.62
  0
LINE
  8
0
 10
-123.703
 20
1904.62
 11
-123.236
 21
1904.8
  0
LINE
  8
0
 10
-123.236
 20
1904.8
 11
-122.75
 21
1904.93
  0
LINE
  8
0
 10
-122.75
 20
1904.93
 11
-122.251
 21
1904.99
  0
LINE
  8
0
 10
-122.251
 20
1904.99
 11
122.251
 21
1904.99
  0
LINE
  8
0
 10
122.251
 20
1904.99
 11
122.75
 21
1904.93
  0
LINE
  8
0
 10
122.75
 20
1904.93
 11
123.236
 21
1904.8
  0
LINE
  8
0
 10
123.236
 20
1904.8
 11
123.703
 21
1904.62
  0
LINE
  8
0
 10
123.703
 20
1904.62
 11
124.143
 21
1904.38
  0
LINE
  8
0
 10
124.143
 20
1904.38
 11
124.55
 21
1904.08
  0
LINE
  8
0
 10
124.55
 20
1904.08
 11
124.916
 21
1903.74
  0
LINE
  8
0
 10
124.916
 20
1903.74
 11
125.236
 21
1903.35
  0
LINE
  8
0
 10
125.236
 20
1903.35
 11
125.505
 21
1902.93
  0
LINE
  8
0
 10
125.505
 20
1902.93
 11
125.719
 21
1902.47
  0
LINE
  8
0
 10
125.719
 20
1902.47
 11
125.874
 21
1901.99
  0
LINE
  8
0
 10
125.874
 20
1901.99
 11
125.968
 21
1901.5
  0
LINE
  8
0
 10
125.968
 20
1901.5
 11
126
 21
1901
  0
LINE
  8
0
 10
126
 20
1901
 11
126
 21
1627
  0
LINE
  8
0
 10
126
 20
1627
 11
125.968
 21
1626.5
  0
LINE
  8
0
 10
125.968
 20
1626.5
 11
125.874
 21
1626.01
  0
LINE
  8
0
 10
125.874
 20
1626.01
 11
125.719
 21
1625.53
  0
LINE
  8
0
 10
125.719
 20
1625.53
 11
125.505
 21
1625.07
  0
LINE
  8
0
 10
125.505
 20
1625.07
 11
125.236
 21
1624.65
  0
LINE
  8
0
 10
125.236
 20
1624.65
 11
124.916
 21
1624.26
  0
LINE
  8
0
 10
124.916
 20
1624.26
 11
124.55
 21
1623.92
  0
LINE
  8
0
 10
124.55
 20
1623.92
 11
124.143
 21
1623.62
  0
LINE
  8
0
 10
124.143
 20
1623.62
 11
123.703
 21
1623.38
  0
LINE
  8
0
 10
123.703
 20
1623.38
 11
123.236
 21
1623.2
  0
LINE
  8
0
 10
123.236
 20
1623.2
 11
122.75
 21
1623.07
  0
LINE
  8
0
 10
122.75
 20
1623.07
 11
122.251
 21
1623.01
  0
LINE
  8
0
 10
122.251
 20
1623.01
 11
-122.251
 21
1623.01
  0
LINE
  8
0
 10
123.437
 20
1327.59
 11
124.045
 21
1327.74
  0
LINE
  8
0
 10
124.045
 20
1327.74
 11
124.629
 21
1327.98
  0
LINE
  8
0
 10
124.629
 20
1327.98
 11
125.179
 21
1328.28
  0
LINE
  8
0
 10
125.179
 20
1328.28
 11
125.687
 21
1328.65
  0
LINE
  8
0
 10
125.687
 20
1328.65
 11
126.145
 21
1329.08
  0
LINE
  8
0
 10
126.145
 20
1329.08
 11
126.545
 21
1329.56
  0
LINE
  8
0
 10
126.545
 20
1329.56
 11
126.882
 21
1330.09
  0
LINE
  8
0
 10
126.882
 20
1330.09
 11
127.149
 21
1330.66
  0
LINE
  8
0
 10
127.149
 20
1330.66
 11
127.343
 21
1331.26
  0
LINE
  8
0
 10
127.343
 20
1331.26
 11
127.461
 21
1331.87
  0
LINE
  8
0
 10
127.461
 20
1331.87
 11
127.5
 21
1332.5
  0
LINE
  8
0
 10
127.5
 20
1332.5
 11
127.5
 21
1607.5
  0
LINE
  8
0
 10
127.5
 20
1607.5
 11
127.461
 21
1608.13
  0
LINE
  8
0
 10
127.461
 20
1608.13
 11
127.343
 21
1608.74
  0
LINE
  8
0
 10
127.343
 20
1608.74
 11
127.149
 21
1609.34
  0
LINE
  8
0
 10
127.149
 20
1609.34
 11
126.882
 21
1609.91
  0
LINE
  8
0
 10
126.882
 20
1609.91
 11
126.545
 21
1610.44
  0
LINE
  8
0
 10
126.545
 20
1610.44
 11
126.145
 21
1610.92
  0
LINE
  8
0
 10
126.145
 20
1610.92
 11
125.687
 21
1611.35
  0
LINE
  8
0
 10
125.687
 20
1611.35
 11
125.179
 21
1611.72
  0
LINE
  8
0
 10
125.179
 20
1611.72
 11
124.629
 21
1612.02
  0
LINE
  8
0
 10
124.629
 20
1612.02
 11
124.045
 21
1612.26
  0
LINE
  8
0
 10
124.045
 20
1612.26
 11
123.437
 21
1612.41
  0
LINE
  8
0
 10
123.437
 20
1612.41
 11
122.814
 21
1612.49
  0
LINE
  8
0
 10
122.814
 20
1612.49
 11
-122.814
 21
1612.49
  0
LINE
  8
0
 10
-122.814
 20
1612.49
 11
-123.437
 21
1612.41
  0
LINE
  8
0
 10
-123.437
 20
1612.41
 11
-124.045
 21
1612.26
  0
LINE
  8
0
 10
-124.045
 20
1612.26
 11
-124.629
 21
1612.02
  0
LINE
  8
0
 10
-124.629
 20
1612.02
 11
-125.179
 21
1611.72
  0
LINE
  8
0
 10
-125.179
 20
1611.72
 11
-125.687
 21
1611.35
  0
LINE
  8
0
 10
-125.687
 20
1611.35
 11
-126.145
 21
1610.92
  0
LINE
  8
0
 10
-126.145
 20
1610.92
 11
-126.545
 21
1610.44
  0
LINE
  8
0
 10
-126.545
 20
1610.44
 11
-126.882
 21
1609.91
  0
LINE
  8
0
 10
-126.882
 20
1609.91
 11
-127.149
 21
1609.34
  0
LINE
  8
0
 10
-127.149
 20
1609.34
 11
-127.343
 21
1608.74
  0
LINE
  8
0
 10
-127.343
 20
1608.74
 11
-127.461
 21
1608.13
  0
LINE
  8
0
 10
-127.461
 20
1608.13
 11
-127.5
 21
1607.5
  0
LINE
  8
0
 10
-127.5
 20
1607.5
 11
-127.5
 21
1332.5
  0
LINE
  8
0
 10
-127.5
 20
1332.5
 11
-127.461
 21
1331.87
  0
LINE
  8
0
 10
-127.461
 20
1331.87
 11
-127.343
 21
1331.26
  0
LINE
  8
0
 10
-127.343
 20
1331.26
 11
-127.149
 21
1330.66
  0
LINE
  8
0
 10
-127.149
 20
1330.66
 11
-126.882
 21
1330.09
  0
LINE
  8
0
 10
-126.882
 20
1330.09
 11
-126.545
 21
1329.56
  0
LINE
  8
0
 10
-126.545
 20
1329.56
 11
-126.145
 21
1329.08
  0
LINE
  8
0
 10
-126.145
 20
1329.08
 11
-125.687
 21
1328.65
  0
LINE
  8
0
 10
-125.687
 20
1328.65
 11
-125.179
 21
1328.28
  0
LINE
  8
0
 10
-125.179
 20
1328.28
 11
-124.629
 21
1327.98
  0
LINE
  8
0
 10
-124.629
 20
1327.98
 11
-124.045
 21
1327.74
  0
LINE
  8
0
 10
-124.045
 20
1327.74
 11
-123.437
 21
1327.59
  0
LINE
  8
0
 10
-123.437
 20
1327.59
 11
-122.814
 21
1327.51
  0
LINE
  8
0
 10
-122.814
 20
1327.51
 11
122.814
 21
1327.51
  0
LINE
  8
0
 10
122.814
 20
1327.51
 11
123.437
 21
1327.59
  0
LINE
  8
0
 10
-122.195
 20
1329.89
 11
-122.583
 21
1329.94
  0
LINE
  8
0
 10
-122.583
 20
1329.94
 11
-122.962
 21
1330.04
  0
LINE
  8
0
 10
-122.962
 20
1330.04
 11
-123.325
 21
1330.18
  0
LINE
  8
0
 10
-123.325
 20
1330.18
 11
-123.668
 21
1330.37
  0
LINE
  8
0
 10
-123.668
 20
1330.37
 11
-123.984
 21
1330.6
  0
LINE
  8
0
 10
-123.984
 20
1330.6
 11
-124.269
 21
1330.87
  0
LINE
  8
0
 10
-124.269
 20
1330.87
 11
-124.518
 21
1331.17
  0
LINE
  8
0
 10
-124.518
 20
1331.17
 11
-124.728
 21
1331.5
  0
LINE
  8
0
 10
-124.728
 20
1331.5
 11
-124.894
 21
1331.85
  0
LINE
  8
0
 10
-124.894
 20
1331.85
 11
-125.015
 21
1332.23
  0
LINE
  8
0
 10
-125.015
 20
1332.23
 11
-125.088
 21
1332.61
  0
LINE
  8
0
 10
-125.088
 20
1332.61
 11
-125.113
 21
1333
  0
LINE
  8
0
 10
-125.113
 20
1333
 11
-125.113
 21
1607
  0
LINE
  8
0
 10
-125.113
 20
1607
 11
-125.088
 21
1607.39
  0
LINE
  8
0
 10
-125.088
 20
1607.39
 11
-125.015
 21
1607.77
  0
LINE
  8
0
 10
-125.015
 20
1607.77
 11
-124.894
 21
1608.15
  0
LINE
  8
0
 10
-124.894
 20
1608.15
 11
-124.728
 21
1608.5
  0
LINE
  8
0
 10
-124.728
 20
1608.5
 11
-124.518
 21
1608.83
  0
LINE
  8
0
 10
-124.518
 20
1608.83
 11
-124.269
 21
1609.13
  0
LINE
  8
0
 10
-124.269
 20
1609.13
 11
-123.984
 21
1609.4
  0
LINE
  8
0
 10
-123.984
 20
1609.4
 11
-123.668
 21
1609.63
  0
LINE
  8
0
 10
-123.668
 20
1609.63
 11
-123.325
 21
1609.82
  0
LINE
  8
0
 10
-123.325
 20
1609.82
 11
-122.962
 21
1609.96
  0
LINE
  8
0
 10
-122.962
 20
1609.96
 11
-122.583
 21
1610.06
  0
LINE
  8
0
 10
-122.583
 20
1610.06
 11
-122.195
 21
1610.11
  0
LINE
  8
0
 10
-122.195
 20
1610.11
 11
122.195
 21
1610.11
  0
LINE
  8
0
 10
122.195
 20
1610.11
 11
122.583
 21
1610.06
  0
LINE
  8
0
 10
122.583
 20
1610.06
 11
122.962
 21
1609.96
  0
LINE
  8
0
 10
122.962
 20
1609.96
 11
123.325
 21
1609.82
  0
LINE
  8
0
 10
123.325
 20
1609.82
 11
123.668
 21
1609.63
  0
LINE
  8
0
 10
123.668
 20
1609.63
 11
123.984
 21
1609.4
  0
LINE
  8
0
 10
123.984
 20
1609.4
 11
124.269
 21
1609.13
  0
LINE
  8
0
 10
124.269
 20
1609.13
 11
124.518
 21
1608.83
  0
LINE
  8
0
 10
124.518
 20
1608.83
 11
124.728
 21
1608.5
  0
LINE
  8
0
 10
124.728
 20
1608.5
 11
124.894
 21
1608.15
  0
LINE
  8
0
 10
124.894
 20
1608.15
 11
125.015
 21
1607.77
  0
LINE
  8
0
 10
125.015
 20
1607.77
 11
125.088
 21
1607.39
  0
LINE
  8
0
 10
125.088
 20
1607.39
 11
125.113
 21
1607
  0
LINE
  8
0
 10
125.113
 20
1607
 11
125.113
 21
1333
  0
LINE
  8
0
 10
125.113
 20
1333
 11
125.088
 21
1332.61
  0
LINE
  8
0
 10
125.088
 20
1332.61
 11
125.015
 21
1332.23
  0
LINE
  8
0
 10
125.015
 20
1332.23
 11
124.894
 21
1331.85
  0
LINE
  8
0
 10
124.894
 20
1331.85
 11
124.728
 21
1331.5
  0
LINE
  8
0
 10
124.728
 20
1331.5
 11
124.518
 21
1331.17
  0
LINE
  8
0
 10
124.518
 20
1331.17
 11
124.269
 21
1330.87
  0
LINE
  8
0
 10
124.269
 20
1330.87
 11
123.984
 21
1330.6
  0
LINE
  8
0
 10
123.984
 20
1330.6
 11
123.668
 21
1330.37
  0
LINE
  8
0
 10
123.668
 20
1330.37
 11
123.325
 21
1330.18
  0
LINE
  8
0
 10
123.325
 20
1330.18
 11
122.962
 21
1330.04
  0
LINE
  8
0
 10
122.962
 20
1330.04
 11
122.583
 21
1329.94
  0
LINE
  8
0
 10
122.583
 20
1329.94
 11
122.195
 21
1329.89
  0
LINE
  8
0
 10
122.195
 20
1329.89
 11
-122.195
 21
1329.89
  0
LINE
  8
0
 10
123.437
 20
1033.59
 11
124.045
 21
1033.74
  0
LINE
  8
0
 10
124.045
 20
1033.74
 11
124.629
 21
1033.98
  0
LINE
  8
0
 10
124.629
 20
1033.98
 11
125.179
 21
1034.28
  0
LINE
  8
0
 10
125.179
 20
1034.28
 11
125.687
 21
1034.65
  0
LINE
  8
0
 10
125.687
 20
1034.65
 11
126.145
 21
1035.08
  0
LINE
  8
0
 10
126.145
 20
1035.08
 11
126.545
 21
1035.56
  0
LINE
  8
0
 10
126.545
 20
1035.56
 11
126.882
 21
1036.09
  0
LINE
  8
0
 10
126.882
 20
1036.09
 11
127.149
 21
1036.66
  0
LINE
  8
0
 10
127.149
 20
1036.66
 11
127.343
 21
1037.26
  0
LINE
  8
0
 10
127.343
 20
1037.26
 11
127.461
 21
1037.87
  0
LINE
  8
0
 10
127.461
 20
1037.87
 11
127.5
 21
1038.5
  0
LINE
  8
0
 10
127.5
 20
1038.5
 11
127.5
 21
1313.5
  0
LINE
  8
0
 10
127.5
 20
1313.5
 11
127.461
 21
1314.13
  0
LINE
  8
0
 10
127.461
 20
1314.13
 11
127.343
 21
1314.74
  0
LINE
  8
0
 10
127.343
 20
1314.74
 11
127.149
 21
1315.34
  0
LINE
  8
0
 10
127.149
 20
1315.34
 11
126.882
 21
1315.91
  0
LINE
  8
0
 10
126.882
 20
1315.91
 11
126.545
 21
1316.44
  0
LINE
  8
0
 10
126.545
 20
1316.44
 11
126.145
 21
1316.92
  0
LINE
  8
0
 10
126.145
 20
1316.92
 11
125.687
 21
1317.35
  0
LINE
  8
0
 10
125.687
 20
1317.35
 11
125.179
 21
1317.72
  0
LINE
  8
0
 10
125.179
 20
1317.72
 11
124.629
 21
1318.02
  0
LINE
  8
0
 10
124.629
 20
1318.02
 11
124.045
 21
1318.26
  0
LINE
  8
0
 10
124.045
 20
1318.26
 11
123.437
 21
1318.41
  0
LINE
  8
0
 10
123.437
 20
1318.41
 11
122.814
 21
1318.49
  0
LINE
  8
0
 10
122.814
 20
1318.49
 11
-122.814
 21
1318.49
  0
LINE
  8
0
 10
-122.814
 20
1318.49
 11
-123.437
 21
1318.41
  0
LINE
  8
0
 10
-123.437
 20
1318.41
 11
-124.045
 21
1318.26
  0
LINE
  8
0
 10
-124.045
 20
1318.26
 11
-124.629
 21
1318.02
  0
LINE
  8
0
 10
-124.629
 20
1318.02
 11
-125.179
 21
1317.72
  0
LINE
  8
0
 10
-125.179
 20
1317.72
 11
-125.687
 21
1317.35
  0
LINE
  8
0
 10
-125.687
 20
1317.35
 11
-126.145
 21
1316.92
  0
LINE
  8
0
 10
-126.145
 20
1316.92
 11
-126.545
 21
1316.44
  0
LINE
  8
0
 10
-126.545
 20
1316.44
 11
-126.882
 21
1315.91
  0
LINE
  8
0
 10
-126.882
 20
1315.91
 11
-127.149
 21
1315.34
  0
LINE
  8
0
 10
-127.149
 20
1315.34
 11
-127.343
 21
1314.74
  0
LINE
  8
0
 10
-127.343
 20
1314.74
 11
-127.461
 21
1314.13
  0
LINE
  8
0
 10
-127.461
 20
1314.13
 11
-127.5
 21
1313.5
  0
LINE
  8
0
 10
-127.5
 20
1313.5
 11
-127.5
 21
1038.5
  0
LINE
  8
0
 10
-127.5
 20
1038.5
 11
-127.461
 21
1037.87
  0
LINE
  8
0
 10
-127.461
 20
1037.87
 11
-127.343
 21
1037.26
  0
LINE
  8
0
 10
-127.343
 20
1037.26
 11
-127.149
 21
1036.66
  0
LINE
  8
0
 10
-127.149
 20
1036.66
 11
-126.882
 21
1036.09
  0
LINE
  8
0
 10
-126.882
 20
1036.09
 11
-126.545
 21
1035.56
  0
LINE
  8
0
 10
-126.545
 20
1035.56
 11
-126.145
 21
1035.08
  0
LINE
  8
0
 10
-126.145
 20
1035.08
 11
-125.687
 21
1034.65
  0
LINE
  8
0
 10
-125.687
 20
1034.65
 11
-125.179
 21
1034.28
  0
LINE
  8
0
 10
-125.179
 20
1034.28
 11
-124.629
 21
1033.98
  0
LINE
  8
0
 10
-124.629
 20
1033.98
 11
-124.045
 21
1033.74
  0
LINE
  8
0
 10
-124.045
 20
1033.74
 11
-123.437
 21
1033.59
  0
LINE
  8
0
 10
-123.437
 20
1033.59
 11
-122.814
 21
1033.51
  0
LINE
  8
0
 10
-122.814
 20
1033.51
 11
122.814
 21
1033.51
  0
LINE
  8
0
 10
122.814
 20
1033.51
 11
123.437
 21
1033.59
  0
LINE
  8
0
 10
119.866
 20
1308.87
 11
119.6
 21
1308.9
  0
LINE
  8
0
 10
119.6
 20
1308.9
 11
119.34
 21
1308.97
  0
LINE
  8
0
 10
119.34
 20
1308.97
 11
119.091
 21
1309.07
  0
LINE
  8
0
 10
119.091
 20
1309.07
 11
118.856
 21
1309.2
  0
LINE
  8
0
 10
118.856
 20
1309.2
 11
118.639
 21
1309.35
  0
LINE
  8
0
 10
118.639
 20
1309.35
 11
118.443
 21
1309.54
  0
LINE
  8
0
 10
118.443
 20
1309.54
 11
118.273
 21
1309.74
  0
LINE
  8
0
 10
118.273
 20
1309.74
 11
118.129
 21
1309.97
  0
LINE
  8
0
 10
118.129
 20
1309.97
 11
118.015
 21
1310.21
  0
LINE
  8
0
 10
118.015
 20
1310.21
 11
117.932
 21
1310.47
  0
LINE
  8
0
 10
117.932
 20
1310.47
 11
117.882
 21
1310.73
  0
LINE
  8
0
 10
117.882
 20
1310.73
 11
117.865
 21
1311
  0
LINE
  8
0
 10
117.865
 20
1311
 11
117.882
 21
1311.27
  0
LINE
  8
0
 10
117.882
 20
1311.27
 11
117.932
 21
1311.53
  0
LINE
  8
0
 10
117.932
 20
1311.53
 11
118.015
 21
1311.79
  0
LINE
  8
0
 10
118.015
 20
1311.79
 11
118.129
 21
1312.03
  0
LINE
  8
0
 10
118.129
 20
1312.03
 11
118.273
 21
1312.26
  0
LINE
  8
0
 10
118.273
 20
1312.26
 11
118.443
 21
1312.46
  0
LINE
  8
0
 10
118.443
 20
1312.46
 11
118.639
 21
1312.65
  0
LINE
  8
0
 10
118.639
 20
1312.65
 11
118.856
 21
1312.8
  0
LINE
  8
0
 10
118.856
 20
1312.8
 11
119.091
 21
1312.93
  0
LINE
  8
0
 10
119.091
 20
1312.93
 11
119.34
 21
1313.03
  0
LINE
  8
0
 10
119.34
 20
1313.03
 11
119.6
 21
1313.1
  0
LINE
  8
0
 10
119.6
 20
1313.1
 11
119.866
 21
1313.13
  0
LINE
  8
0
 10
119.866
 20
1313.13
 11
120.134
 21
1313.13
  0
LINE
  8
0
 10
120.134
 20
1313.13
 11
120.4
 21
1313.1
  0
LINE
  8
0
 10
120.4
 20
1313.1
 11
120.66
 21
1313.03
  0
LINE
  8
0
 10
120.66
 20
1313.03
 11
120.909
 21
1312.93
  0
LINE
  8
0
 10
120.909
 20
1312.93
 11
121.144
 21
1312.8
  0
LINE
  8
0
 10
121.144
 20
1312.8
 11
121.361
 21
1312.65
  0
LINE
  8
0
 10
121.361
 20
1312.65
 11
121.557
 21
1312.46
  0
LINE
  8
0
 10
121.557
 20
1312.46
 11
121.727
 21
1312.26
  0
LINE
  8
0
 10
121.727
 20
1312.26
 11
121.871
 21
1312.03
  0
LINE
  8
0
 10
121.871
 20
1312.03
 11
121.985
 21
1311.79
  0
LINE
  8
0
 10
121.985
 20
1311.79
 11
122.068
 21
1311.53
  0
LINE
  8
0
 10
122.068
 20
1311.53
 11
122.118
 21
1311.27
  0
LINE
  8
0
 10
122.118
 20
1311.27
 11
122.135
 21
1311
  0
LINE
  8
0
 10
122.135
 20
1311
 11
122.118
 21
1310.73
  0
LINE
  8
0
 10
122.118
 20
1310.73
 11
122.068
 21
1310.47
  0
LINE
  8
0
 10
122.068
 20
1310.47
 11
121.985
 21
1310.21
  0
LINE
  8
0
 10
121.985
 20
1310.21
 11
121.871
 21
1309.97
  0
LINE
  8
0
 10
121.871
 20
1309.97
 11
121.727
 21
1309.74
  0
LINE
  8
0
 10
121.727
 20
1309.74
 11
121.557
 21
1309.54
  0
LINE
  8
0
 10
121.557
 20
1309.54
 11
121.361
 21
1309.35
  0
LINE
  8
0
 10
121.361
 20
1309.35
 11
121.144
 21
1309.2
  0
LINE
  8
0
 10
121.144
 20
1309.2
 11
120.909
 21
1309.07
  0
LINE
  8
0
 10
120.909
 20
1309.07
 11
120.66
 21
1308.97
  0
LINE
  8
0
 10
120.66
 20
1308.97
 11
120.4
 21
1308.9
  0
LINE
  8
0
 10
120.4
 20
1308.9
 11
120.134
 21
1308.87
  0
LINE
  8
0
 10
120.134
 20
1308.87
 11
119.866
 21
1308.87
  0
LINE
  8
0
 10
-120.134
 20
1308.87
 11
-120.4
 21
1308.9
  0
LINE
  8
0
 10
-120.4
 20
1308.9
 11
-120.66
 21
1308.97
  0
LINE
  8
0
 10
-120.66
 20
1308.97
 11
-120.909
 21
1309.07
  0
LINE
  8
0
 10
-120.909
 20
1309.07
 11
-121.144
 21
1309.2
  0
LINE
  8
0
 10
-121.144
 20
1309.2
 11
-121.361
 21
1309.35
  0
LINE
  8
0
 10
-121.361
 20
1309.35
 11
-121.557
 21
1309.54
  0
LINE
  8
0
 10
-121.557
 20
1309.54
 11
-121.727
 21
1309.74
  0
LINE
  8
0
 10
-121.727
 20
1309.74
 11
-121.871
 21
1309.97
  0
LINE
  8
0
 10
-121.871
 20
1309.97
 11
-121.985
 21
1310.21
  0
LINE
  8
0
 10
-121.985
 20
1310.21
 11
-122.068
 21
1310.47
  0
LINE
  8
0
 10
-122.068
 20
1310.47
 11
-122.118
 21
1310.73
  0
LINE
  8
0
 10
-122.118
 20
1310.73
 11
-122.135
 21
1311
  0
LINE
  8
0
 10
-122.135
 20
1311
 11
-122.118
 21
1311.27
  0
LINE
  8
0
 10
-122.118
 20
1311.27
 11
-122.068
 21
1311.53
  0
LINE
  8
0
 10
-122.068
 20
1311.53
 11
-121.985
 21
1311.79
  0
LINE
  8
0
 10
-121.985
 20
1311.79
 11
-121.871
 21
1312.03
  0
LINE
  8
0
 10
-121.871
 20
1312.03
 11
-121.727
 21
1312.26
  0
LINE
  8
0
 10
-121.727
 20
1312.26
 11
-121.557
 21
1312.46
  0
LINE
  8
0
 10
-121.557
 20
1312.46
 11
-121.361
 21
1312.65
  0
LINE
  8
0
 10
-121.361
 20
1312.65
 11
-121.144
 21
1312.8
  0
LINE
  8
0
 10
-121.144
 20
1312.8
 11
-120.909
 21
1312.93
  0
LINE
  8
0
 10
-120.909
 20
1312.93
 11
-120.66
 21
1313.03
  0
LINE
  8
0
 10
-120.66
 20
1313.03
 11
-120.4
 21
1313.1
  0
LINE
  8
0
 10
-120.4
 20
1313.1
 11
-120.134
 21
1313.13
  0
LINE
  8
0
 10
-120.134
 20
1313.13
 11
-119.866
 21
1313.13
  0
LINE
  8
0
 10
-119.866
 20
1313.13
 11
-119.6
 21
1313.1
  0
LINE
  8
0
 10
-119.6
 20
1313.1
 11
-119.34
 21
1313.03
  0
LINE
  8
0
 10
-119.34
 20
1313.03
 11
-119.091
 21
1312.93
  0
LINE
  8
0
 10
-119.091
 20
1312.93
 11
-118.856
 21
1312.8
  0
LINE
  8
0
 10
-118.856
 20
1312.8
 11
-118.639
 21
1312.65
  0
LINE
  8
0
 10
-118.639
 20
1312.65
 11
-118.443
 21
1312.46
  0
LINE
  8
0
 10
-118.443
 20
1312.46
 11
-118.273
 21
1312.26
  0
LINE
  8
0
 10
-118.273
 20
1312.26
 11
-118.129
 21
1312.03
  0
LINE
  8
0
 10
-118.129
 20
1312.03
 11
-118.015
 21
1311.79
  0
LINE
  8
0
 10
-118.015
 20
1311.79
 11
-117.932
 21
1311.53
  0
LINE
  8
0
 10
-117.932
 20
1311.53
 11
-117.882
 21
1311.27
  0
LINE
  8
0
 10
-117.882
 20
1311.27
 11
-117.865
 21
1311
  0
LINE
  8
0
 10
-117.865
 20
1311
 11
-117.882
 21
1310.73
  0
LINE
  8
0
 10
-117.882
 20
1310.73
 11
-117.932
 21
1310.47
  0
LINE
  8
0
 10
-117.932
 20
1310.47
 11
-118.015
 21
1310.21
  0
LINE
  8
0
 10
-118.015
 20
1310.21
 11
-118.129
 21
1309.97
  0
LINE
  8
0
 10
-118.129
 20
1309.97
 11
-118.273
 21
1309.74
  0
LINE
  8
0
 10
-118.273
 20
1309.74
 11
-118.443
 21
1309.54
  0
LINE
  8
0
 10
-118.443
 20
1309.54
 11
-118.639
 21
1309.35
  0
LINE
  8
0
 10
-118.639
 20
1309.35
 11
-118.856
 21
1309.2
  0
LINE
  8
0
 10
-118.856
 20
1309.2
 11
-119.091
 21
1309.07
  0
LINE
  8
0
 10
-119.091
 20
1309.07
 11
-119.34
 21
1308.97
  0
LINE
  8
0
 10
-119.34
 20
1308.97
 11
-119.6
 21
1308.9
  0
LINE
  8
0
 10
-119.6
 20
1308.9
 11
-119.866
 21
1308.87
  0
LINE
  8
0
 10
-119.866
 20
1308.87
 11
-120.134
 21
1308.87
  0
LINE
  8
0
 10
119.866
 20
1038.87
 11
119.6
 21
1038.9
  0
LINE
  8
0
 10
119.6
 20
1038.9
 11
119.34
 21
1038.97
  0
LINE
  8
0
 10
119.34
 20
1038.97
 11
119.091
 21
1039.07
  0
LINE
  8
0
 10
119.091
 20
1039.07
 11
118.856
 21
1039.2
  0
LINE
  8
0
 10
118.856
 20
1039.2
 11
118.639
 21
1039.35
  0
LINE
  8
0
 10
118.639
 20
1039.35
 11
118.443
 21
1039.54
  0
LINE
  8
0
 10
118.443
 20
1039.54
 11
118.273
 21
1039.74
  0
LINE
  8
0
 10
118.273
 20
1039.74
 11
118.129
 21
1039.97
  0
LINE
  8
0
 10
118.129
 20
1039.97
 11
118.015
 21
1040.21
  0
LINE
  8
0
 10
118.015
 20
1040.21
 11
117.932
 21
1040.47
  0
LINE
  8
0
 10
117.932
 20
1040.47
 11
117.882
 21
1040.73
  0
LINE
  8
0
 10
117.882
 20
1040.73
 11
117.865
 21
1041
  0
LINE
  8
0
 10
117.865
 20
1041
 11
117.882
 21
1041.27
  0
LINE
  8
0
 10
117.882
 20
1041.27
 11
117.932
 21
1041.53
  0
LINE
  8
0
 10
117.932
 20
1041.53
 11
118.015
 21
1041.79
  0
LINE
  8
0
 10
118.015
 20
1041.79
 11
118.129
 21
1042.03
  0
LINE
  8
0
 10
118.129
 20
1042.03
 11
118.273
 21
1042.26
  0
LINE
  8
0
 10
118.273
 20
1042.26
 11
118.443
 21
1042.46
  0
LINE
  8
0
 10
118.443
 20
1042.46
 11
118.639
 21
1042.65
  0
LINE
  8
0
 10
118.639
 20
1042.65
 11
118.856
 21
1042.8
  0
LINE
  8
0
 10
118.856
 20
1042.8
 11
119.091
 21
1042.93
  0
LINE
  8
0
 10
119.091
 20
1042.93
 11
119.34
 21
1043.03
  0
LINE
  8
0
 10
119.34
 20
1043.03
 11
119.6
 21
1043.1
  0
LINE
  8
0
 10
119.6
 20
1043.1
 11
119.866
 21
1043.13
  0
LINE
  8
0
 10
119.866
 20
1043.13
 11
120.134
 21
1043.13
  0
LINE
  8
0
 10
120.134
 20
1043.13
 11
120.4
 21
1043.1
  0
LINE
  8
0
 10
120.4
 20
1043.1
 11
120.66
 21
1043.03
  0
LINE
  8
0
 10
120.66
 20
1043.03
 11
120.909
 21
1042.93
  0
LINE
  8
0
 10
120.909
 20
1042.93
 11
121.144
 21
1042.8
  0
LINE
  8
0
 10
121.144
 20
1042.8
 11
121.361
 21
1042.65
  0
LINE
  8
0
 10
121.361
 20
1042.65
 11
121.557
 21
1042.46
  0
LINE
  8
0
 10
121.557
 20
1042.46
 11
121.727
 21
1042.26
  0
LINE
  8
0
 10
121.727
 20
1042.26
 11
121.871
 21
1042.03
  0
LINE
  8
0
 10
121.871
 20
1042.03
 11
121.985
 21
1041.79
  0
LINE
  8
0
 10
121.985
 20
1041.79
 11
122.068
 21
1041.53
  0
LINE
  8
0
 10
122.068
 20
1041.53
 11
122.118
 21
1041.27
  0
LINE
  8
0
 10
122.118
 20
1041.27
 11
122.135
 21
1041
  0
LINE
  8
0
 10
122.135
 20
1041
 11
122.118
 21
1040.73
  0
LINE
  8
0
 10
122.118
 20
1040.73
 11
122.068
 21
1040.47
  0
LINE
  8
0
 10
122.068
 20
1040.47
 11
121.985
 21
1040.21
  0
LINE
  8
0
 10
121.985
 20
1040.21
 11
121.871
 21
1039.97
  0
LINE
  8
0
 10
121.871
 20
1039.97
 11
121.727
 21
1039.74
  0
LINE
  8
0
 10
121.727
 20
1039.74
 11
121.557
 21
1039.54
  0
LINE
  8
0
 10
121.557
 20
1039.54
 11
121.361
 21
1039.35
  0
LINE
  8
0
 10
121.361
 20
1039.35
 11
121.144
 21
1039.2
  0
LINE
  8
0
 10
121.144
 20
1039.2
 11
120.909
 21
1039.07
  0
LINE
  8
0
 10
120.909
 20
1039.07
 11
120.66
 21
1038.97
  0
LINE
  8
0
 10
120.66
 20
1038.97
 11
120.4
 21
1038.9
  0
LINE
  8
0
 10
120.4
 20
1038.9
 11
120.134
 21
1038.87
  0
LINE
  8
0
 10
120.134
 20
1038.87
 11
119.866
 21
1038.87
  0
LINE
  8
0
 10
-120.134
 20
1038.87
 11
-120.4
 21
1038.9
  0
LINE
  8
0
 10
-120.4
 20
1038.9
 11
-120.66
 21
1038.97
  0
LINE
  8
0
 10
-120.66
 20
1038.97
 11
-120.909
 21
1039.07
  0
LINE
  8
0
 10
-120.909
 20
1039.07
 11
-121.144
 21
1039.2
  0
LINE
  8
0
 10
-121.144
 20
1039.2
 11
-121.361
 21
1039.35
  0
LINE
  8
0
 10
-121.361
 20
1039.35
 11
-121.557
 21
1039.54
  0
LINE
  8
0
 10
-121.557
 20
1039.54
 11
-121.727
 21
1039.74
  0
LINE
  8
0
 10
-121.727
 20
1039.74
 11
-121.871
 21
1039.97
  0
LINE
  8
0
 10
-121.871
 20
1039.97
 11
-121.985
 21
1040.21
  0
LINE
  8
0
 10
-121.985
 20
1040.21
 11
-122.068
 21
1040.47
  0
LINE
  8
0
 10
-122.068
 20
1040.47
 11
-122.118
 21
1040.73
  0
LINE
  8
0
 10
-122.118
 20
1040.73
 11
-122.135
 21
1041
  0
LINE
  8
0
 10
-122.135
 20
1041
 11
-122.118
 21
1041.27
  0
LINE
  8
0
 10
-122.118
 20
1041.27
 11
-122.068
 21
1041.53
  0
LINE
  8
0
 10
-122.068
 20
1041.53
 11
-121.985
 21
1041.79
  0
LINE
  8
0
 10
-121.985
 20
1041.79
 11
-121.871
 21
1042.03
  0
LINE
  8
0
 10
-121.871
 20
1042.03
 11
-121.727
 21
1042.26
  0
LINE
  8
0
 10
-121.727
 20
1042.26
 11
-121.557
 21
1042.46
  0
LINE
  8
0
 10
-121.557
 20
1042.46
 11
-121.361
 21
1042.65
  0
LINE
  8
0
 10
-121.361
 20
1042.65
 11
-121.144
 21
1042.8
  0
LINE
  8
0
 10
-121.144
 20
1042.8
 11
-120.909
 21
1042.93
  0
LINE
  8
0
 10
-120.909
 20
1042.93
 11
-120.66
 21
1043.03
  0
LINE
  8
0
 10
-120.66
 20
1043.03
 11
-120.4
 21
1043.1
  0
LINE
  8
0
 10
-120.4
 20
1043.1
 11
-120.134
 21
1043.13
  0
LINE
  8
0
 10
-120.134
 20
1043.13
 11
-119.866
 21
1043.13
  0
LINE
  8
0
 10
-119.866
 20
1043.13
 11
-119.6
 21
1043.1
  0
LINE
  8
0
 10
-119.6
 20
1043.1
 11
-119.34
 21
1043.03
  0
LINE
  8
0
 10
-119.34
 20
1043.03
 11
-119.091
 21
1042.93
  0
LINE
  8
0
 10
-119.091
 20
1042.93
 11
-118.856
 21
1042.8
  0
LINE
  8
0
 10
-118.856
 20
1042.8
 11
-118.639
 21
1042.65
  0
LINE
  8
0
 10
-118.639
 20
1042.65
 11
-118.443
 21
1042.46
  0
LINE
  8
0
 10
-118.443
 20
1042.46
 11
-118.273
 21
1042.26
  0
LINE
  8
0
 10
-118.273
 20
1042.26
 11
-118.129
 21
1042.03
  0
LINE
  8
0
 10
-118.129
 20
1042.03
 11
-118.015
 21
1041.79
  0
LINE
  8
0
 10
-118.015
 20
1041.79
 11
-117.932
 21
1041.53
  0
LINE
  8
0
 10
-117.932
 20
1041.53
 11
-117.882
 21
1041.27
  0
LINE
  8
0
 10
-117.882
 20
1041.27
 11
-117.865
 21
1041
  0
LINE
  8
0
 10
-117.865
 20
1041
 11
-117.882
 21
1040.73
  0
LINE
  8
0
 10
-117.882
 20
1040.73
 11
-117.932
 21
1040.47
  0
LINE
  8
0
 10
-117.932
 20
1040.47
 11
-118.015
 21
1040.21
  0
LINE
  8
0
 10
-118.015
 20
1040.21
 11
-118.129
 21
1039.97
  0
LINE
  8
0
 10
-118.129
 20
1039.97
 11
-118.273
 21
1039.74
  0
LINE
  8
0
 10
-118.273
 20
1039.74
 11
-118.443
 21
1039.54
  0
LINE
  8
0
 10
-118.443
 20
1039.54
 11
-118.639
 21
1039.35
  0
LINE
  8
0
 10
-118.639
 20
1039.35
 11
-118.856
 21
1039.2
  0
LINE
  8
0
 10
-118.856
 20
1039.2
 11
-119.091
 21
1039.07
  0
LINE
  8
0
 10
-119.091
 20
1039.07
 11
-119.34
 21
1038.97
  0
LINE
  8
0
 10
-119.34
 20
1038.97
 11
-119.6
 21
1038.9
  0
LINE
  8
0
 10
-119.6
 20
1038.9
 11
-119.866
 21
1038.87
  0
LINE
  8
0
 10
-119.866
 20
1038.87
 11
-120.134
 21
1038.87
  0
ENDSEC
  0
SECTION
  2
OBJECTS
  0
DICTIONARY
  0
ENDSEC
  0
EOF
