<?xml version="1.0" standalone="no"?>
<!DOCTYPE svg PUBLIC "-//W3C//DTD SVG 1.1//EN" "http://www.w3.org/Graphics/SVG/1.1/DTD/svg11.dtd">
<svg width="257mm" height="340mm" viewBox="-129 -605 257 340" xmlns="http://www.w3.org/2000/svg" version="1.1">
<title>OpenSCAD Model</title>
<path d="
M 123.437,-439.589 L 124.045,-439.745 L 124.629,-439.976 L 125.179,-440.278 L 125.687,-440.647 L 126.145,-441.077
 L 126.545,-441.561 L 126.882,-442.091 L 127.149,-442.659 L 127.343,-443.257 L 127.461,-443.873 L 127.5,-444.5
 L 127.5,-599.5 L 127.461,-600.127 L 127.343,-600.743 L 127.149,-601.341 L 126.882,-601.909 L 126.545,-602.439
 L 126.145,-602.923 L 125.687,-603.353 L 125.179,-603.722 L 124.629,-604.024 L 124.045,-604.255 L 123.437,-604.411
 L 122.814,-604.49 L -122.814,-604.49 L -123.437,-604.411 L -124.045,-604.255 L -124.629,-604.024 L -125.179,-603.722
 L -125.687,-603.353 L -126,-603.059 L -126,-604.479 L -129,-604.479 L -129,-439.521 L -126,-439.521
 L -126,-440.941 L -125.687,-440.647 L -125.179,-440.278 L -124.629,-439.976 L -124.045,-439.745 L -123.437,-439.589
 L -122.814,-439.51 L 122.814,-439.51 z
M -122.195,-441.893 L -122.583,-441.942 L -122.962,-442.039 L -123.325,-442.183 L -123.668,-442.372 L -123.984,-442.601
 L -124.269,-442.869 L -124.518,-443.17 L -124.728,-443.5 L -124.894,-443.854 L -125.015,-444.226 L -125.088,-444.61
 L -125.113,-445 L -125.113,-599 L -125.088,-599.39 L -125.015,-599.774 L -124.894,-600.146 L -124.728,-600.5
 L -124.518,-600.83 L -124.269,-601.131 L -123.984,-601.399 L -123.668,-601.628 L -123.325,-601.817 L -122.962,-601.961
 L -122.583,-602.058 L -122.195,-602.107 L 122.195,-602.107 L 122.583,-602.058 L 122.962,-601.961 L 123.325,-601.817
 L 123.668,-601.628 L 123.984,-601.399 L 124.269,-601.131 L 124.518,-600.83 L 124.728,-600.5 L 124.894,-600.146
 L 125.015,-599.774 L 125.088,-599.39 L 125.113,-599 L 125.113,-445 L 125.088,-444.61 L 125.015,-444.226
 L 124.894,-443.854 L 124.728,-443.5 L 124.518,-443.17 L 124.269,-442.869 L 123.984,-442.601 L 123.668,-442.372
 L 123.325,-442.183 L 122.962,-442.039 L 122.583,-441.942 L 122.195,-441.893 z
M 123.437,-265.589 L 124.045,-265.745 L 124.629,-265.976 L 125.179,-266.278 L 125.687,-266.647 L 126.145,-267.077
 L 126.545,-267.561 L 126.882,-268.091 L 127.149,-268.659 L 127.343,-269.257 L 127.461,-269.873 L 127.5,-270.5
 L 127.5,-425.5 L 127.461,-426.127 L 127.343,-426.743 L 127.149,-427.341 L 126.882,-427.909 L 126.545,-428.439
 L 126.145,-428.923 L 125.687,-429.353 L 125.179,-429.722 L 124.629,-430.024 L 124.045,-430.255 L 123.437,-430.411
 L 122.814,-430.49 L -122.814,-430.49 L -123.437,-430.411 L -124.045,-430.255 L -124.629,-430.024 L -125.179,-429.722
 L -125.687,-429.353 L -126,-429.059 L -126,-429.153 L -129,-429.153 L -129,-266.847 L -126,-266.847
 L -126,-266.941 L -125.687,-266.647 L -125.179,-266.278 L -124.629,-265.976 L -124.045,-265.745 L -123.437,-265.589
 L -122.814,-265.51 L 122.814,-265.51 z
M 119.866,-420.869 L 119.6,-420.903 L 119.34,-420.969 L 119.091,-421.068 L 118.856,-421.197 L 118.639,-421.355
 L 118.443,-421.538 L 118.273,-421.745 L 118.129,-421.971 L 118.015,-422.214 L 117.932,-422.469 L 117.882,-422.732
 L 117.865,-423 L 117.882,-423.268 L 117.932,-423.531 L 118.015,-423.786 L 118.129,-424.029 L 118.273,-424.255
 L 118.443,-424.462 L 118.639,-424.645 L 118.856,-424.803 L 119.091,-424.932 L 119.34,-425.031 L 119.6,-425.097
 L 119.866,-425.131 L 120.134,-425.131 L 120.4,-425.097 L 120.66,-425.031 L 120.909,-424.932 L 121.144,-424.803
 L 121.361,-424.645 L 121.557,-424.462 L 121.727,-424.255 L 121.871,-424.029 L 121.985,-423.786 L 122.068,-423.531
 L 122.118,-423.268 L 122.135,-423 L 122.118,-422.732 L 122.068,-422.469 L 121.985,-422.214 L 121.871,-421.971
 L 121.727,-421.745 L 121.557,-421.538 L 121.361,-421.355 L 121.144,-421.197 L 120.909,-421.068 L 120.66,-420.969
 L 120.4,-420.903 L 120.134,-420.869 z
M -120.134,-420.869 L -120.4,-420.903 L -120.66,-420.969 L -120.909,-421.068 L -121.144,-421.197 L -121.361,-421.355
 L -121.557,-421.538 L -121.727,-421.745 L -121.871,-421.971 L -121.985,-422.214 L -122.068,-422.469 L -122.118,-422.732
 L -122.135,-423 L -122.118,-423.268 L -122.068,-423.531 L -121.985,-423.786 L -121.871,-424.029 L -121.727,-424.255
 L -121.557,-424.462 L -121.361,-424.645 L -121.144,-424.803 L -120.909,-424.932 L -120.66,-425.031 L -120.4,-425.097
 L -120.134,-425.131 L -119.866,-425.131 L -119.6,-425.097 L -119.34,-425.031 L -119.091,-424.932 L -118.856,-424.803
 L -118.639,-424.645 L -118.443,-424.462 L -118.273,-424.255 L -118.129,-424.029 L -118.015,-423.786 L -117.932,-423.531
 L -117.882,-423.268 L -117.865,-423 L -117.882,-422.732 L -117.932,-422.469 L -118.015,-422.214 L -118.129,-421.971
 L -118.273,-421.745 L -118.443,-421.538 L -118.639,-421.355 L -118.856,-421.197 L -119.091,-421.068 L -119.34,-420.969
 L -119.6,-420.903 L -119.866,-420.869 z
M 119.866,-270.869 L 119.6,-270.903 L 119.34,-270.969 L 119.091,-271.068 L 118.856,-271.197 L 118.639,-271.355
 L 118.443,-271.538 L 118.273,-271.745 L 118.129,-271.971 L 118.015,-272.214 L 117.932,-272.469 L 117.882,-272.732
 L 117.865,-273 L 117.882,-273.268 L 117.932,-273.531 L 118.015,-273.786 L 118.129,-274.029 L 118.273,-274.255
 L 118.443,-274.462 L 118.639,-274.645 L 118.856,-274.803 L 119.091,-274.932 L 119.34,-275.031 L 119.6,-275.097
 L 119.866,-275.131 L 120.134,-275.131 L 120.4,-275.097 L 120.66,-275.031 L 120.909,-274.932 L 121.144,-274.803
 L 121.361,-274.645 L 121.557,-274.462 L 121.727,-274.255 L 121.871,-274.029 L 121.985,-273.786 L 122.068,-273.531
 L 122.118,-273.268 L 122.135,-273 L 122.118,-272.732 L 122.068,-272.469 L 121.985,-272.214 L 121.871,-271.971
 L 121.727,-271.745 L 121.557,-271.538 L 121.361,-271.355 L 121.144,-271.197 L 120.909,-271.068 L 120.66,-270.969
 L 120.4,-270.903 L 120.134,-270.869 z
M -120.134,-270.869 L -120.4,-270.903 L -120.66,-270.969 L -120.909,-271.068 L -121.144,-271.197 L -121.361,-271.355
 L -121.557,-271.538 L -121.727,-271.745 L -121.871,-271.971 L -121.985,-272.214 L -122.068,-272.469 L -122.118,-272.732
 L -122.135,-273 L -122.118,-273.268 L -122.068,-273.531 L -121.985,-273.786 L -121.871,-274.029 L -121.727,-274.255
 L -121.557,-274.462 L -121.361,-274.645 L -121.144,-274.803 L -120.909,-274.932 L -120.66,-275.031 L -120.4,-275.097
 L -120.134,-275.131 L -119.866,-275.131 L -119.6,-275.097 L -119.34,-275.031 L -119.091,-274.932 L -118.856,-274.803
 L -118.639,-274.645 L -118.443,-274.462 L -118.273,-274.255 L -118.129,-274.029 L -118.015,-273.786 L -117.932,-273.531
 L -117.882,-273.268 L -117.865,-273 L -117.882,-272.732 L -117.932,-272.469 L -118.015,-272.214 L -118.129,-271.971
 L -118.273,-271.745 L -118.443,-271.538 L -118.639,-271.355 L -118.856,-271.197 L -119.091,-271.068 L -119.34,-270.969
 L -119.6,-270.903 L -119.866,-270.869 z
" stroke="black" fill="lightgray" stroke-width="0.5"/>
</svg>
