<?xml version="1.0" standalone="no"?>
<!DOCTYPE svg PUBLIC "-//W3C//DTD SVG 1.1//EN" "http://www.w3.org/Graphics/SVG/1.1/DTD/svg11.dtd">
<svg width="240mm" height="412mm" viewBox="-120 -710 240 412" xmlns="http://www.w3.org/2000/svg" version="1.1">
<title>OpenSCAD Model</title>
<path d="
M 115.937,-634.589 L 116.545,-634.745 L 117.129,-634.976 L 117.679,-635.278 L 118.187,-635.647 L 118.645,-636.077
 L 119.045,-636.561 L 119.382,-637.091 L 119.649,-637.659 L 119.843,-638.257 L 119.961,-638.873 L 120,-639.5
 L 120,-704.5 L 119.961,-705.127 L 119.843,-705.743 L 119.649,-706.341 L 119.382,-706.909 L 119.045,-707.439
 L 118.645,-707.923 L 118.187,-708.353 L 117.679,-708.722 L 117.129,-709.024 L 116.545,-709.255 L 115.937,-709.411
 L 115.314,-709.49 L -115.314,-709.49 L -115.937,-709.411 L -116.545,-709.255 L -117.129,-709.024 L -117.679,-708.722
 L -118.187,-708.353 L -118.645,-707.923 L -119.045,-707.439 L -119.382,-706.909 L -119.649,-706.341 L -119.843,-705.743
 L -119.961,-705.127 L -120,-704.5 L -120,-639.5 L -119.961,-638.873 L -119.843,-638.257 L -119.649,-637.659
 L -119.382,-637.091 L -119.045,-636.561 L -118.645,-636.077 L -118.187,-635.647 L -117.679,-635.278 L -117.129,-634.976
 L -116.545,-634.745 L -115.937,-634.589 L -115.314,-634.51 L 115.314,-634.51 z
M -115.048,-635.009 L -115.64,-635.084 L -116.218,-635.232 L -116.772,-635.452 L -117.295,-635.739 L -117.778,-636.09
 L -118.213,-636.498 L -118.593,-636.958 L -118.912,-637.462 L -119.166,-638.001 L -119.351,-638.569 L -119.463,-639.155
 L -119.5,-639.75 L -119.5,-704.25 L -119.463,-704.845 L -119.351,-705.431 L -119.166,-705.999 L -118.912,-706.538
 L -118.593,-707.042 L -118.213,-707.502 L -117.778,-707.91 L -117.295,-708.261 L -116.772,-708.548 L -116.218,-708.768
 L -115.64,-708.916 L -115.048,-708.991 L 115.048,-708.991 L 115.64,-708.916 L 116.218,-708.768 L 116.772,-708.548
 L 117.295,-708.261 L 117.778,-707.91 L 118.213,-707.502 L 118.593,-707.042 L 118.912,-706.538 L 119.166,-705.999
 L 119.351,-705.431 L 119.463,-704.845 L 119.5,-704.25 L 119.5,-639.75 L 119.463,-639.155 L 119.351,-638.569
 L 119.166,-638.001 L 118.912,-637.462 L 118.593,-636.958 L 118.213,-636.498 L 117.778,-636.09 L 117.295,-635.739
 L 116.772,-635.452 L 116.218,-635.232 L 115.64,-635.084 L 115.048,-635.009 z
M 115.937,-550.589 L 116.545,-550.745 L 117.129,-550.976 L 117.679,-551.278 L 118.187,-551.647 L 118.645,-552.077
 L 119.045,-552.561 L 119.382,-553.091 L 119.649,-553.659 L 119.843,-554.257 L 119.961,-554.873 L 120,-555.5
 L 120,-620.5 L 119.961,-621.127 L 119.843,-621.743 L 119.649,-622.341 L 119.382,-622.909 L 119.045,-623.439
 L 118.645,-623.923 L 118.187,-624.353 L 117.679,-624.722 L 117.129,-625.024 L 116.545,-625.255 L 115.937,-625.411
 L 115.314,-625.49 L -115.314,-625.49 L -115.937,-625.411 L -116.545,-625.255 L -117.129,-625.024 L -117.679,-624.722
 L -118.187,-624.353 L -118.645,-623.923 L -119.045,-623.439 L -119.382,-622.909 L -119.649,-622.341 L -119.843,-621.743
 L -119.961,-621.127 L -120,-620.5 L -120,-555.5 L -119.961,-554.873 L -119.843,-554.257 L -119.649,-553.659
 L -119.382,-553.091 L -119.045,-552.561 L -118.645,-552.077 L -118.187,-551.647 L -117.679,-551.278 L -117.129,-550.976
 L -116.545,-550.745 L -115.937,-550.589 L -115.314,-550.51 L 115.314,-550.51 z
M -115.048,-551.009 L -115.64,-551.084 L -116.218,-551.232 L -116.772,-551.452 L -117.295,-551.739 L -117.778,-552.09
 L -118.213,-552.498 L -118.593,-552.958 L -118.912,-553.462 L -119.166,-554.001 L -119.351,-554.569 L -119.463,-555.155
 L -119.5,-555.75 L -119.5,-620.25 L -119.463,-620.845 L -119.351,-621.431 L -119.166,-621.999 L -118.912,-622.538
 L -118.593,-623.042 L -118.213,-623.502 L -117.778,-623.91 L -117.295,-624.261 L -116.772,-624.548 L -116.218,-624.768
 L -115.64,-624.916 L -115.048,-624.991 L 115.048,-624.991 L 115.64,-624.916 L 116.218,-624.768 L 116.772,-624.548
 L 117.295,-624.261 L 117.778,-623.91 L 118.213,-623.502 L 118.593,-623.042 L 118.912,-622.538 L 119.166,-621.999
 L 119.351,-621.431 L 119.463,-620.845 L 119.5,-620.25 L 119.5,-555.75 L 119.463,-555.155 L 119.351,-554.569
 L 119.166,-554.001 L 118.912,-553.462 L 118.593,-552.958 L 118.213,-552.498 L 117.778,-552.09 L 117.295,-551.739
 L 116.772,-551.452 L 116.218,-551.232 L 115.64,-551.084 L 115.048,-551.009 z
M 115.937,-466.589 L 116.545,-466.745 L 117.129,-466.976 L 117.679,-467.278 L 118.187,-467.647 L 118.645,-468.077
 L 119.045,-468.561 L 119.382,-469.091 L 119.649,-469.659 L 119.843,-470.257 L 119.961,-470.873 L 120,-471.5
 L 120,-536.5 L 119.961,-537.127 L 119.843,-537.743 L 119.649,-538.341 L 119.382,-538.909 L 119.045,-539.439
 L 118.645,-539.923 L 118.187,-540.353 L 117.679,-540.722 L 117.129,-541.024 L 116.545,-541.255 L 115.937,-541.411
 L 115.314,-541.49 L -115.314,-541.49 L -115.937,-541.411 L -116.545,-541.255 L -117.129,-541.024 L -117.679,-540.722
 L -118.187,-540.353 L -118.645,-539.923 L -119.045,-539.439 L -119.382,-538.909 L -119.649,-538.341 L -119.843,-537.743
 L -119.961,-537.127 L -120,-536.5 L -120,-471.5 L -119.961,-470.873 L -119.843,-470.257 L -119.649,-469.659
 L -119.382,-469.091 L -119.045,-468.561 L -118.645,-468.077 L -118.187,-467.647 L -117.679,-467.278 L -117.129,-466.976
 L -116.545,-466.745 L -115.937,-466.589 L -115.314,-466.51 L 115.314,-466.51 z
M -115.048,-467.009 L -115.64,-467.084 L -116.218,-467.232 L -116.772,-467.452 L -117.295,-467.739 L -117.778,-468.09
 L -118.213,-468.498 L -118.593,-468.958 L -118.912,-469.462 L -119.166,-470.001 L -119.351,-470.569 L -119.463,-471.155
 L -119.5,-471.75 L -119.5,-536.25 L -119.463,-536.845 L -119.351,-537.431 L -119.166,-537.999 L -118.912,-538.538
 L -118.593,-539.042 L -118.213,-539.502 L -117.778,-539.91 L -117.295,-540.261 L -116.772,-540.548 L -116.218,-540.768
 L -115.64,-540.916 L -115.048,-540.991 L 115.048,-540.991 L 115.64,-540.916 L 116.218,-540.768 L 116.772,-540.548
 L 117.295,-540.261 L 117.778,-539.91 L 118.213,-539.502 L 118.593,-539.042 L 118.912,-538.538 L 119.166,-537.999
 L 119.351,-537.431 L 119.463,-536.845 L 119.5,-536.25 L 119.5,-471.75 L 119.463,-471.155 L 119.351,-470.569
 L 119.166,-470.001 L 118.912,-469.462 L 118.593,-468.958 L 118.213,-468.498 L 117.778,-468.09 L 117.295,-467.739
 L 116.772,-467.452 L 116.218,-467.232 L 115.64,-467.084 L 115.048,-467.009 z
M 115.937,-382.589 L 116.545,-382.745 L 117.129,-382.976 L 117.679,-383.278 L 118.187,-383.647 L 118.645,-384.077
 L 119.045,-384.561 L 119.382,-385.091 L 119.649,-385.659 L 119.843,-386.257 L 119.961,-386.873 L 120,-387.5
 L 120,-452.5 L 119.961,-453.127 L 119.843,-453.743 L 119.649,-454.341 L 119.382,-454.909 L 119.045,-455.439
 L 118.645,-455.923 L 118.187,-456.353 L 117.679,-456.722 L 117.129,-457.024 L 116.545,-457.255 L 115.937,-457.411
 L 115.314,-457.49 L -115.314,-457.49 L -115.937,-457.411 L -116.545,-457.255 L -117.129,-457.024 L -117.679,-456.722
 L -118.187,-456.353 L -118.645,-455.923 L -119.045,-455.439 L -119.382,-454.909 L -119.649,-454.341 L -119.843,-453.743
 L -119.961,-453.127 L -120,-452.5 L -120,-387.5 L -119.961,-386.873 L -119.843,-386.257 L -119.649,-385.659
 L -119.382,-385.091 L -119.045,-384.561 L -118.645,-384.077 L -118.187,-383.647 L -117.679,-383.278 L -117.129,-382.976
 L -116.545,-382.745 L -115.937,-382.589 L -115.314,-382.51 L 115.314,-382.51 z
M -114.993,-383.888 L -115.475,-383.949 L -115.946,-384.07 L -116.398,-384.249 L -116.823,-384.483 L -117.216,-384.769
 L -117.571,-385.101 L -117.88,-385.476 L -118.141,-385.886 L -118.348,-386.326 L -118.498,-386.788 L -118.589,-387.265
 L -118.619,-387.75 L -118.619,-452.25 L -118.589,-452.735 L -118.498,-453.212 L -118.348,-453.674 L -118.141,-454.114
 L -117.88,-454.524 L -117.571,-454.899 L -117.216,-455.231 L -116.823,-455.517 L -116.398,-455.751 L -115.946,-455.93
 L -115.475,-456.051 L -114.993,-456.112 L 114.993,-456.112 L 115.475,-456.051 L 115.946,-455.93 L 116.398,-455.751
 L 116.823,-455.517 L 117.216,-455.231 L 117.571,-454.899 L 117.88,-454.524 L 118.141,-454.114 L 118.348,-453.674
 L 118.498,-453.212 L 118.589,-452.735 L 118.619,-452.25 L 118.619,-387.75 L 118.589,-387.265 L 118.498,-386.788
 L 118.348,-386.326 L 118.141,-385.886 L 117.88,-385.476 L 117.571,-385.101 L 117.216,-384.769 L 116.823,-384.483
 L 116.398,-384.249 L 115.946,-384.07 L 115.475,-383.949 L 114.993,-383.888 z
M 115.937,-298.589 L 116.545,-298.745 L 117.129,-298.976 L 117.679,-299.278 L 118.187,-299.647 L 118.645,-300.077
 L 119.045,-300.561 L 119.382,-301.091 L 119.649,-301.659 L 119.843,-302.257 L 119.961,-302.873 L 120,-303.5
 L 120,-368.5 L 119.961,-369.127 L 119.843,-369.743 L 119.649,-370.341 L 119.382,-370.909 L 119.045,-371.439
 L 118.645,-371.923 L 118.187,-372.353 L 117.679,-372.722 L 117.129,-373.024 L 116.545,-373.255 L 115.937,-373.411
 L 115.314,-373.49 L -115.314,-373.49 L -115.937,-373.411 L -116.545,-373.255 L -117.129,-373.024 L -117.679,-372.722
 L -118.187,-372.353 L -118.645,-371.923 L -119.045,-371.439 L -119.382,-370.909 L -119.649,-370.341 L -119.843,-369.743
 L -119.961,-369.127 L -120,-368.5 L -120,-303.5 L -119.961,-302.873 L -119.843,-302.257 L -119.649,-301.659
 L -119.382,-301.091 L -119.045,-300.561 L -118.645,-300.077 L -118.187,-299.647 L -117.679,-299.278 L -117.129,-298.976
 L -116.545,-298.745 L -115.937,-298.589 L -115.314,-298.51 L 115.314,-298.51 z
M -112.613,-364.204 L -112.837,-364.232 L -113.056,-364.288 L -113.266,-364.371 L -113.464,-364.48 L -113.647,-364.613
 L -113.812,-364.768 L -113.956,-364.942 L -114.077,-365.133 L -114.174,-365.337 L -114.243,-365.552 L -114.286,-365.774
 L -114.3,-366 L -114.286,-366.226 L -114.243,-366.448 L -114.174,-366.663 L -114.077,-366.867 L -113.956,-367.058
 L -113.812,-367.232 L -113.647,-367.387 L -113.464,-367.52 L -113.266,-367.629 L -113.056,-367.712 L -112.837,-367.768
 L -112.613,-367.796 L -112.387,-367.796 L -112.163,-367.768 L -111.944,-367.712 L -111.734,-367.629 L -111.536,-367.52
 L -111.353,-367.387 L -111.188,-367.232 L -111.044,-367.058 L -110.923,-366.867 L -110.826,-366.663 L -110.757,-366.448
 L -110.714,-366.226 L -110.7,-366 L -110.714,-365.774 L -110.757,-365.552 L -110.826,-365.337 L -110.923,-365.133
 L -111.044,-364.942 L -111.188,-364.768 L -111.353,-364.613 L -111.536,-364.48 L -111.734,-364.371 L -111.944,-364.288
 L -112.163,-364.232 L -112.387,-364.204 z
M 112.387,-364.204 L 112.163,-364.232 L 111.944,-364.288 L 111.734,-364.371 L 111.536,-364.48 L 111.353,-364.613
 L 111.188,-364.768 L 111.044,-364.942 L 110.923,-365.133 L 110.826,-365.337 L 110.757,-365.552 L 110.714,-365.774
 L 110.7,-366 L 110.714,-366.226 L 110.757,-366.448 L 110.826,-366.663 L 110.923,-366.867 L 111.044,-367.058
 L 111.188,-367.232 L 111.353,-367.387 L 111.536,-367.52 L 111.734,-367.629 L 111.944,-367.712 L 112.163,-367.768
 L 112.387,-367.796 L 112.613,-367.796 L 112.837,-367.768 L 113.056,-367.712 L 113.266,-367.629 L 113.464,-367.52
 L 113.647,-367.387 L 113.812,-367.232 L 113.956,-367.058 L 114.077,-366.867 L 114.174,-366.663 L 114.243,-366.448
 L 114.286,-366.226 L 114.3,-366 L 114.286,-365.774 L 114.243,-365.552 L 114.174,-365.337 L 114.077,-365.133
 L 113.956,-364.942 L 113.812,-364.768 L 113.647,-364.613 L 113.464,-364.48 L 113.266,-364.371 L 113.056,-364.288
 L 112.837,-364.232 L 112.613,-364.204 z
M 112.387,-304.204 L 112.163,-304.232 L 111.944,-304.288 L 111.734,-304.371 L 111.536,-304.48 L 111.353,-304.613
 L 111.188,-304.768 L 111.044,-304.942 L 110.923,-305.133 L 110.826,-305.337 L 110.757,-305.552 L 110.714,-305.774
 L 110.7,-306 L 110.714,-306.226 L 110.757,-306.448 L 110.826,-306.663 L 110.923,-306.867 L 111.044,-307.058
 L 111.188,-307.232 L 111.353,-307.387 L 111.536,-307.52 L 111.734,-307.629 L 111.944,-307.712 L 112.163,-307.768
 L 112.387,-307.796 L 112.613,-307.796 L 112.837,-307.768 L 113.056,-307.712 L 113.266,-307.629 L 113.464,-307.52
 L 113.647,-307.387 L 113.812,-307.232 L 113.956,-307.058 L 114.077,-306.867 L 114.174,-306.663 L 114.243,-306.448
 L 114.286,-306.226 L 114.3,-306 L 114.286,-305.774 L 114.243,-305.552 L 114.174,-305.337 L 114.077,-305.133
 L 113.956,-304.942 L 113.812,-304.768 L 113.647,-304.613 L 113.464,-304.48 L 113.266,-304.371 L 113.056,-304.288
 L 112.837,-304.232 L 112.613,-304.204 z
M -112.613,-304.204 L -112.837,-304.232 L -113.056,-304.288 L -113.266,-304.371 L -113.464,-304.48 L -113.647,-304.613
 L -113.812,-304.768 L -113.956,-304.942 L -114.077,-305.133 L -114.174,-305.337 L -114.243,-305.552 L -114.286,-305.774
 L -114.3,-306 L -114.286,-306.226 L -114.243,-306.448 L -114.174,-306.663 L -114.077,-306.867 L -113.956,-307.058
 L -113.812,-307.232 L -113.647,-307.387 L -113.464,-307.52 L -113.266,-307.629 L -113.056,-307.712 L -112.837,-307.768
 L -112.613,-307.796 L -112.387,-307.796 L -112.163,-307.768 L -111.944,-307.712 L -111.734,-307.629 L -111.536,-307.52
 L -111.353,-307.387 L -111.188,-307.232 L -111.044,-307.058 L -110.923,-306.867 L -110.826,-306.663 L -110.757,-306.448
 L -110.714,-306.226 L -110.7,-306 L -110.714,-305.774 L -110.757,-305.552 L -110.826,-305.337 L -110.923,-305.133
 L -111.044,-304.942 L -111.188,-304.768 L -111.353,-304.613 L -111.536,-304.48 L -111.734,-304.371 L -111.944,-304.288
 L -112.163,-304.232 L -112.387,-304.204 z
" stroke="black" fill="lightgray" stroke-width="0.5"/>
</svg>
