<?xml version="1.0" standalone="no"?>
<!DOCTYPE svg PUBLIC "-//W3C//DTD SVG 1.1//EN" "http://www.w3.org/Graphics/SVG/1.1/DTD/svg11.dtd">
<svg width="256mm" height="198mm" viewBox="-128 -375 256 198" xmlns="http://www.w3.org/2000/svg" version="1.1">
<title>OpenSCAD Model</title>
<path d="
M 123.437,-315.089 L 124.045,-315.245 L 124.629,-315.476 L 125.179,-315.778 L 125.687,-316.147 L 126.145,-316.577
 L 126.545,-317.061 L 126.882,-317.591 L 127.149,-318.159 L 127.343,-318.757 L 127.461,-319.373 L 127.5,-320
 L 127.5,-370 L 127.461,-370.627 L 127.343,-371.243 L 127.149,-371.841 L 126.882,-372.409 L 126.545,-372.939
 L 126.145,-373.423 L 125.687,-373.853 L 125.179,-374.222 L 124.629,-374.524 L 124.045,-374.755 L 123.437,-374.911
 L 122.814,-374.99 L -122.814,-374.99 L -123.437,-374.911 L -124.045,-374.755 L -124.629,-374.524 L -125.179,-374.222
 L -125.687,-373.853 L -126.145,-373.423 L -126.545,-372.939 L -126.882,-372.409 L -127.149,-371.841 L -127.343,-371.243
 L -127.461,-370.627 L -127.5,-370 L -127.5,-320 L -127.461,-319.373 L -127.343,-318.757 L -127.149,-318.159
 L -126.882,-317.591 L -126.545,-317.061 L -126.145,-316.577 L -125.687,-316.147 L -125.179,-315.778 L -124.629,-315.476
 L -124.045,-315.245 L -123.437,-315.089 L -122.814,-315.01 L 122.814,-315.01 z
M -122.548,-315.509 L -123.14,-315.584 L -123.718,-315.732 L -124.272,-315.952 L -124.795,-316.239 L -125.278,-316.59
 L -125.713,-316.998 L -126.093,-317.458 L -126.412,-317.962 L -126.666,-318.501 L -126.851,-319.069 L -126.963,-319.655
 L -127,-320.25 L -127,-369.75 L -126.963,-370.345 L -126.851,-370.931 L -126.666,-371.499 L -126.412,-372.038
 L -126.093,-372.542 L -125.713,-373.002 L -125.278,-373.41 L -124.795,-373.761 L -124.272,-374.048 L -123.718,-374.268
 L -123.14,-374.416 L -122.548,-374.491 L 122.548,-374.491 L 123.14,-374.416 L 123.718,-374.268 L 124.272,-374.048
 L 124.795,-373.761 L 125.278,-373.41 L 125.713,-373.002 L 126.093,-372.542 L 126.412,-372.038 L 126.666,-371.499
 L 126.851,-370.931 L 126.963,-370.345 L 127,-369.75 L 127,-320.25 L 126.963,-319.655 L 126.851,-319.069
 L 126.666,-318.501 L 126.412,-317.962 L 126.093,-317.458 L 125.713,-316.998 L 125.278,-316.59 L 124.795,-316.239
 L 124.272,-315.952 L 123.718,-315.732 L 123.14,-315.584 L 122.548,-315.509 z
M 123.437,-246.089 L 124.045,-246.245 L 124.629,-246.476 L 125.179,-246.778 L 125.687,-247.147 L 126.145,-247.577
 L 126.545,-248.061 L 126.882,-248.591 L 127.149,-249.159 L 127.343,-249.757 L 127.461,-250.373 L 127.5,-251
 L 127.5,-301 L 127.461,-301.627 L 127.343,-302.243 L 127.149,-302.841 L 126.882,-303.409 L 126.545,-303.939
 L 126.145,-304.423 L 125.687,-304.853 L 125.179,-305.222 L 124.629,-305.524 L 124.045,-305.755 L 123.437,-305.911
 L 122.814,-305.99 L -122.814,-305.99 L -123.437,-305.911 L -124.045,-305.755 L -124.629,-305.524 L -125.179,-305.222
 L -125.687,-304.853 L -126.145,-304.423 L -126.545,-303.939 L -126.882,-303.409 L -127.149,-302.841 L -127.343,-302.243
 L -127.461,-301.627 L -127.5,-301 L -127.5,-251 L -127.461,-250.373 L -127.343,-249.757 L -127.149,-249.159
 L -126.882,-248.591 L -126.545,-248.061 L -126.145,-247.577 L -125.687,-247.147 L -125.179,-246.778 L -124.629,-246.476
 L -124.045,-246.245 L -123.437,-246.089 L -122.814,-246.01 L 122.814,-246.01 z
M -122.537,-246.681 L -123.108,-246.753 L -123.665,-246.896 L -124.199,-247.107 L -124.703,-247.384 L -125.168,-247.722
 L -125.588,-248.116 L -125.954,-248.559 L -126.262,-249.044 L -126.507,-249.565 L -126.685,-250.111 L -126.792,-250.676
 L -126.828,-251.25 L -126.828,-300.75 L -126.792,-301.324 L -126.685,-301.889 L -126.507,-302.435 L -126.262,-302.956
 L -125.954,-303.441 L -125.588,-303.884 L -125.168,-304.278 L -124.703,-304.616 L -124.199,-304.893 L -123.665,-305.104
 L -123.108,-305.247 L -122.537,-305.319 L 122.537,-305.319 L 123.108,-305.247 L 123.665,-305.104 L 124.199,-304.893
 L 124.703,-304.616 L 125.168,-304.278 L 125.588,-303.884 L 125.954,-303.441 L 126.262,-302.956 L 126.507,-302.435
 L 126.685,-301.889 L 126.792,-301.324 L 126.828,-300.75 L 126.828,-251.25 L 126.792,-250.676 L 126.685,-250.111
 L 126.507,-249.565 L 126.262,-249.044 L 125.954,-248.559 L 125.588,-248.116 L 125.168,-247.722 L 124.703,-247.384
 L 124.199,-247.107 L 123.665,-246.896 L 123.108,-246.753 L 122.537,-246.681 z
M 123.437,-177.089 L 124.045,-177.245 L 124.629,-177.476 L 125.179,-177.778 L 125.687,-178.147 L 126.145,-178.577
 L 126.545,-179.061 L 126.882,-179.591 L 127.149,-180.159 L 127.343,-180.757 L 127.461,-181.373 L 127.5,-182
 L 127.5,-232 L 127.461,-232.627 L 127.343,-233.243 L 127.149,-233.841 L 126.882,-234.409 L 126.545,-234.939
 L 126.145,-235.423 L 125.687,-235.853 L 125.179,-236.222 L 124.629,-236.524 L 124.045,-236.755 L 123.437,-236.911
 L 122.814,-236.99 L -122.814,-236.99 L -123.437,-236.911 L -124.045,-236.755 L -124.629,-236.524 L -125.179,-236.222
 L -125.687,-235.853 L -126.145,-235.423 L -126.545,-234.939 L -126.882,-234.409 L -127.149,-233.841 L -127.343,-233.243
 L -127.461,-232.627 L -127.5,-232 L -127.5,-182 L -127.461,-181.373 L -127.343,-180.757 L -127.149,-180.159
 L -126.882,-179.591 L -126.545,-179.061 L -126.145,-178.577 L -125.687,-178.147 L -125.179,-177.778 L -124.629,-177.476
 L -124.045,-177.245 L -123.437,-177.089 L -122.814,-177.01 L 122.814,-177.01 z
M -122.382,-180.145 L -122.645,-180.178 L -122.902,-180.244 L -123.148,-180.341 L -123.38,-180.469 L -123.595,-180.625
 L -123.788,-180.806 L -123.957,-181.01 L -124.099,-181.234 L -124.211,-181.473 L -124.293,-181.725 L -124.343,-181.986
 L -124.36,-182.25 L -124.36,-231.75 L -124.343,-232.014 L -124.293,-232.275 L -124.211,-232.527 L -124.099,-232.766
 L -123.957,-232.99 L -123.788,-233.194 L -123.595,-233.375 L -123.38,-233.531 L -123.148,-233.659 L -122.902,-233.756
 L -122.645,-233.822 L -122.382,-233.855 L 122.382,-233.855 L 122.645,-233.822 L 122.902,-233.756 L 123.148,-233.659
 L 123.38,-233.531 L 123.595,-233.375 L 123.788,-233.194 L 123.957,-232.99 L 124.099,-232.766 L 124.211,-232.527
 L 124.293,-232.275 L 124.343,-232.014 L 124.36,-231.75 L 124.36,-182.25 L 124.343,-181.986 L 124.293,-181.725
 L 124.211,-181.473 L 124.099,-181.234 L 123.957,-181.01 L 123.788,-180.806 L 123.595,-180.625 L 123.38,-180.469
 L 123.148,-180.341 L 122.902,-180.244 L 122.645,-180.178 L 122.382,-180.145 z
" stroke="black" fill="lightgray" stroke-width="0.5"/>
</svg>
