  0
SECTION
  2
BLOCKS
  0
ENDSEC
  0
SECTION
  2
ENTITIES
  0
LINE
  8
0
 10
-118.5
 20
632.941
 11
-118.187
 21
632.647
  0
LINE
  8
0
 10
-118.187
 20
632.647
 11
-117.679
 21
632.278
  0
LINE
  8
0
 10
-117.679
 20
632.278
 11
-117.129
 21
631.976
  0
LINE
  8
0
 10
-117.129
 20
631.976
 11
-116.545
 21
631.745
  0
LINE
  8
0
 10
-116.545
 20
631.745
 11
-115.937
 21
631.589
  0
LINE
  8
0
 10
-115.937
 20
631.589
 11
-115.314
 21
631.51
  0
LINE
  8
0
 10
-115.314
 20
631.51
 11
115.314
 21
631.51
  0
LINE
  8
0
 10
115.314
 20
631.51
 11
115.937
 21
631.589
  0
LINE
  8
0
 10
115.937
 20
631.589
 11
116.545
 21
631.745
  0
LINE
  8
0
 10
116.545
 20
631.745
 11
117.129
 21
631.976
  0
LINE
  8
0
 10
117.129
 20
631.976
 11
117.679
 21
632.278
  0
LINE
  8
0
 10
117.679
 20
632.278
 11
118.187
 21
632.647
  0
LINE
  8
0
 10
118.187
 20
632.647
 11
118.645
 21
633.077
  0
LINE
  8
0
 10
118.645
 20
633.077
 11
119.045
 21
633.561
  0
LINE
  8
0
 10
119.045
 20
633.561
 11
119.382
 21
634.091
  0
LINE
  8
0
 10
119.382
 20
634.091
 11
119.649
 21
634.659
  0
LINE
  8
0
 10
119.649
 20
634.659
 11
119.843
 21
635.257
  0
LINE
  8
0
 10
119.843
 20
635.257
 11
119.961
 21
635.873
  0
LINE
  8
0
 10
119.961
 20
635.873
 11
120
 21
636.5
  0
LINE
  8
0
 10
120
 20
636.5
 11
120
 21
731.5
  0
LINE
  8
0
 10
120
 20
731.5
 11
119.961
 21
732.127
  0
LINE
  8
0
 10
119.961
 20
732.127
 11
119.843
 21
732.743
  0
LINE
  8
0
 10
119.843
 20
732.743
 11
119.649
 21
733.341
  0
LINE
  8
0
 10
119.649
 20
733.341
 11
119.382
 21
733.909
  0
LINE
  8
0
 10
119.382
 20
733.909
 11
119.045
 21
734.439
  0
LINE
  8
0
 10
119.045
 20
734.439
 11
118.645
 21
734.923
  0
LINE
  8
0
 10
118.645
 20
734.923
 11
118.187
 21
735.353
  0
LINE
  8
0
 10
118.187
 20
735.353
 11
117.679
 21
735.722
  0
LINE
  8
0
 10
117.679
 20
735.722
 11
117.129
 21
736.024
  0
LINE
  8
0
 10
117.129
 20
736.024
 11
116.545
 21
736.255
  0
LINE
  8
0
 10
116.545
 20
736.255
 11
115.937
 21
736.411
  0
LINE
  8
0
 10
115.937
 20
736.411
 11
115.314
 21
736.49
  0
LINE
  8
0
 10
115.314
 20
736.49
 11
-115.314
 21
736.49
  0
LINE
  8
0
 10
-115.314
 20
736.49
 11
-115.937
 21
736.411
  0
LINE
  8
0
 10
-115.937
 20
736.411
 11
-116.545
 21
736.255
  0
LINE
  8
0
 10
-116.545
 20
736.255
 11
-117.129
 21
736.024
  0
LINE
  8
0
 10
-117.129
 20
736.024
 11
-117.679
 21
735.722
  0
LINE
  8
0
 10
-117.679
 20
735.722
 11
-118.187
 21
735.353
  0
LINE
  8
0
 10
-118.187
 20
735.353
 11
-118.5
 21
735.059
  0
LINE
  8
0
 10
-118.5
 20
735.059
 11
-118.5
 21
736.49
  0
LINE
  8
0
 10
-118.5
 20
736.49
 11
-121.5
 21
736.49
  0
LINE
  8
0
 10
-121.5
 20
736.49
 11
-121.5
 21
631.51
  0
LINE
  8
0
 10
-121.5
 20
631.51
 11
-118.5
 21
631.51
  0
LINE
  8
0
 10
-118.5
 20
631.51
 11
-118.5
 21
632.941
  0
LINE
  8
0
 10
-114.751
 20
633.008
 11
-115.25
 21
633.071
  0
LINE
  8
0
 10
-115.25
 20
633.071
 11
-115.736
 21
633.196
  0
LINE
  8
0
 10
-115.736
 20
633.196
 11
-116.203
 21
633.381
  0
LINE
  8
0
 10
-116.203
 20
633.381
 11
-116.643
 21
633.623
  0
LINE
  8
0
 10
-116.643
 20
633.623
 11
-117.05
 21
633.918
  0
LINE
  8
0
 10
-117.05
 20
633.918
 11
-117.416
 21
634.262
  0
LINE
  8
0
 10
-117.416
 20
634.262
 11
-117.736
 21
634.649
  0
LINE
  8
0
 10
-117.736
 20
634.649
 11
-118.005
 21
635.073
  0
LINE
  8
0
 10
-118.005
 20
635.073
 11
-118.219
 21
635.528
  0
LINE
  8
0
 10
-118.219
 20
635.528
 11
-118.374
 21
636.005
  0
LINE
  8
0
 10
-118.374
 20
636.005
 11
-118.468
 21
636.499
  0
LINE
  8
0
 10
-118.468
 20
636.499
 11
-118.5
 21
637
  0
LINE
  8
0
 10
-118.5
 20
637
 11
-118.5
 21
731
  0
LINE
  8
0
 10
-118.5
 20
731
 11
-118.468
 21
731.501
  0
LINE
  8
0
 10
-118.468
 20
731.501
 11
-118.374
 21
731.995
  0
LINE
  8
0
 10
-118.374
 20
731.995
 11
-118.219
 21
732.472
  0
LINE
  8
0
 10
-118.219
 20
732.472
 11
-118.005
 21
732.927
  0
LINE
  8
0
 10
-118.005
 20
732.927
 11
-117.736
 21
733.351
  0
LINE
  8
0
 10
-117.736
 20
733.351
 11
-117.416
 21
733.738
  0
LINE
  8
0
 10
-117.416
 20
733.738
 11
-117.05
 21
734.082
  0
LINE
  8
0
 10
-117.05
 20
734.082
 11
-116.643
 21
734.377
  0
LINE
  8
0
 10
-116.643
 20
734.377
 11
-116.203
 21
734.619
  0
LINE
  8
0
 10
-116.203
 20
734.619
 11
-115.736
 21
734.804
  0
LINE
  8
0
 10
-115.736
 20
734.804
 11
-115.25
 21
734.929
  0
LINE
  8
0
 10
-115.25
 20
734.929
 11
-114.751
 21
734.992
  0
LINE
  8
0
 10
-114.751
 20
734.992
 11
114.751
 21
734.992
  0
LINE
  8
0
 10
114.751
 20
734.992
 11
115.25
 21
734.929
  0
LINE
  8
0
 10
115.25
 20
734.929
 11
115.736
 21
734.804
  0
LINE
  8
0
 10
115.736
 20
734.804
 11
116.203
 21
734.619
  0
LINE
  8
0
 10
116.203
 20
734.619
 11
116.643
 21
734.377
  0
LINE
  8
0
 10
116.643
 20
734.377
 11
117.05
 21
734.082
  0
LINE
  8
0
 10
117.05
 20
734.082
 11
117.416
 21
733.738
  0
LINE
  8
0
 10
117.416
 20
733.738
 11
117.736
 21
733.351
  0
LINE
  8
0
 10
117.736
 20
733.351
 11
118.005
 21
732.927
  0
LINE
  8
0
 10
118.005
 20
732.927
 11
118.219
 21
732.472
  0
LINE
  8
0
 10
118.219
 20
732.472
 11
118.374
 21
731.995
  0
LINE
  8
0
 10
118.374
 20
731.995
 11
118.468
 21
731.501
  0
LINE
  8
0
 10
118.468
 20
731.501
 11
118.5
 21
731
  0
LINE
  8
0
 10
118.5
 20
731
 11
118.5
 21
637
  0
LINE
  8
0
 10
118.5
 20
637
 11
118.468
 21
636.499
  0
LINE
  8
0
 10
118.468
 20
636.499
 11
118.374
 21
636.005
  0
LINE
  8
0
 10
118.374
 20
636.005
 11
118.219
 21
635.528
  0
LINE
  8
0
 10
118.219
 20
635.528
 11
118.005
 21
635.073
  0
LINE
  8
0
 10
118.005
 20
635.073
 11
117.736
 21
634.649
  0
LINE
  8
0
 10
117.736
 20
634.649
 11
117.416
 21
634.262
  0
LINE
  8
0
 10
117.416
 20
634.262
 11
117.05
 21
633.918
  0
LINE
  8
0
 10
117.05
 20
633.918
 11
116.643
 21
633.623
  0
LINE
  8
0
 10
116.643
 20
633.623
 11
116.203
 21
633.381
  0
LINE
  8
0
 10
116.203
 20
633.381
 11
115.736
 21
633.196
  0
LINE
  8
0
 10
115.736
 20
633.196
 11
115.25
 21
633.071
  0
LINE
  8
0
 10
115.25
 20
633.071
 11
114.751
 21
633.008
  0
LINE
  8
0
 10
114.751
 20
633.008
 11
-114.751
 21
633.008
  0
LINE
  8
0
 10
-118.5
 20
518.941
 11
-118.187
 21
518.647
  0
LINE
  8
0
 10
-118.187
 20
518.647
 11
-117.679
 21
518.278
  0
LINE
  8
0
 10
-117.679
 20
518.278
 11
-117.129
 21
517.976
  0
LINE
  8
0
 10
-117.129
 20
517.976
 11
-116.545
 21
517.745
  0
LINE
  8
0
 10
-116.545
 20
517.745
 11
-115.937
 21
517.589
  0
LINE
  8
0
 10
-115.937
 20
517.589
 11
-115.314
 21
517.51
  0
LINE
  8
0
 10
-115.314
 20
517.51
 11
115.314
 21
517.51
  0
LINE
  8
0
 10
115.314
 20
517.51
 11
115.937
 21
517.589
  0
LINE
  8
0
 10
115.937
 20
517.589
 11
116.545
 21
517.745
  0
LINE
  8
0
 10
116.545
 20
517.745
 11
117.129
 21
517.976
  0
LINE
  8
0
 10
117.129
 20
517.976
 11
117.679
 21
518.278
  0
LINE
  8
0
 10
117.679
 20
518.278
 11
118.187
 21
518.647
  0
LINE
  8
0
 10
118.187
 20
518.647
 11
118.645
 21
519.077
  0
LINE
  8
0
 10
118.645
 20
519.077
 11
119.045
 21
519.561
  0
LINE
  8
0
 10
119.045
 20
519.561
 11
119.382
 21
520.091
  0
LINE
  8
0
 10
119.382
 20
520.091
 11
119.649
 21
520.659
  0
LINE
  8
0
 10
119.649
 20
520.659
 11
119.843
 21
521.257
  0
LINE
  8
0
 10
119.843
 20
521.257
 11
119.961
 21
521.873
  0
LINE
  8
0
 10
119.961
 20
521.873
 11
120
 21
522.5
  0
LINE
  8
0
 10
120
 20
522.5
 11
120
 21
617.5
  0
LINE
  8
0
 10
120
 20
617.5
 11
119.961
 21
618.127
  0
LINE
  8
0
 10
119.961
 20
618.127
 11
119.843
 21
618.743
  0
LINE
  8
0
 10
119.843
 20
618.743
 11
119.649
 21
619.341
  0
LINE
  8
0
 10
119.649
 20
619.341
 11
119.382
 21
619.909
  0
LINE
  8
0
 10
119.382
 20
619.909
 11
119.045
 21
620.439
  0
LINE
  8
0
 10
119.045
 20
620.439
 11
118.645
 21
620.923
  0
LINE
  8
0
 10
118.645
 20
620.923
 11
118.187
 21
621.353
  0
LINE
  8
0
 10
118.187
 20
621.353
 11
117.679
 21
621.722
  0
LINE
  8
0
 10
117.679
 20
621.722
 11
117.129
 21
622.024
  0
LINE
  8
0
 10
117.129
 20
622.024
 11
116.545
 21
622.255
  0
LINE
  8
0
 10
116.545
 20
622.255
 11
115.937
 21
622.411
  0
LINE
  8
0
 10
115.937
 20
622.411
 11
115.314
 21
622.49
  0
LINE
  8
0
 10
115.314
 20
622.49
 11
-115.314
 21
622.49
  0
LINE
  8
0
 10
-115.314
 20
622.49
 11
-115.937
 21
622.411
  0
LINE
  8
0
 10
-115.937
 20
622.411
 11
-116.545
 21
622.255
  0
LINE
  8
0
 10
-116.545
 20
622.255
 11
-117.129
 21
622.024
  0
LINE
  8
0
 10
-117.129
 20
622.024
 11
-117.679
 21
621.722
  0
LINE
  8
0
 10
-117.679
 20
621.722
 11
-118.187
 21
621.353
  0
LINE
  8
0
 10
-118.187
 20
621.353
 11
-118.5
 21
621.059
  0
LINE
  8
0
 10
-118.5
 20
621.059
 11
-118.5
 21
622.49
  0
LINE
  8
0
 10
-118.5
 20
622.49
 11
-121.5
 21
622.49
  0
LINE
  8
0
 10
-121.5
 20
622.49
 11
-121.5
 21
517.51
  0
LINE
  8
0
 10
-121.5
 20
517.51
 11
-118.5
 21
517.51
  0
LINE
  8
0
 10
-118.5
 20
517.51
 11
-118.5
 21
518.941
  0
LINE
  8
0
 10
-114.743
 20
519.135
 11
-115.226
 21
519.196
  0
LINE
  8
0
 10
-115.226
 20
519.196
 11
-115.697
 21
519.317
  0
LINE
  8
0
 10
-115.697
 20
519.317
 11
-116.149
 21
519.496
  0
LINE
  8
0
 10
-116.149
 20
519.496
 11
-116.575
 21
519.73
  0
LINE
  8
0
 10
-116.575
 20
519.73
 11
-116.969
 21
520.016
  0
LINE
  8
0
 10
-116.969
 20
520.016
 11
-117.323
 21
520.349
  0
LINE
  8
0
 10
-117.323
 20
520.349
 11
-117.633
 21
520.724
  0
LINE
  8
0
 10
-117.633
 20
520.724
 11
-117.894
 21
521.134
  0
LINE
  8
0
 10
-117.894
 20
521.134
 11
-118.101
 21
521.574
  0
LINE
  8
0
 10
-118.101
 20
521.574
 11
-118.251
 21
522.037
  0
LINE
  8
0
 10
-118.251
 20
522.037
 11
-118.342
 21
522.515
  0
LINE
  8
0
 10
-118.342
 20
522.515
 11
-118.373
 21
523
  0
LINE
  8
0
 10
-118.373
 20
523
 11
-118.373
 21
617
  0
LINE
  8
0
 10
-118.373
 20
617
 11
-118.342
 21
617.485
  0
LINE
  8
0
 10
-118.342
 20
617.485
 11
-118.251
 21
617.963
  0
LINE
  8
0
 10
-118.251
 20
617.963
 11
-118.101
 21
618.426
  0
LINE
  8
0
 10
-118.101
 20
618.426
 11
-117.894
 21
618.866
  0
LINE
  8
0
 10
-117.894
 20
618.866
 11
-117.633
 21
619.276
  0
LINE
  8
0
 10
-117.633
 20
619.276
 11
-117.323
 21
619.651
  0
LINE
  8
0
 10
-117.323
 20
619.651
 11
-116.969
 21
619.984
  0
LINE
  8
0
 10
-116.969
 20
619.984
 11
-116.575
 21
620.27
  0
LINE
  8
0
 10
-116.575
 20
620.27
 11
-116.149
 21
620.504
  0
LINE
  8
0
 10
-116.149
 20
620.504
 11
-115.697
 21
620.683
  0
LINE
  8
0
 10
-115.697
 20
620.683
 11
-115.226
 21
620.804
  0
LINE
  8
0
 10
-115.226
 20
620.804
 11
-114.743
 21
620.865
  0
LINE
  8
0
 10
-114.743
 20
620.865
 11
114.743
 21
620.865
  0
LINE
  8
0
 10
114.743
 20
620.865
 11
115.226
 21
620.804
  0
LINE
  8
0
 10
115.226
 20
620.804
 11
115.697
 21
620.683
  0
LINE
  8
0
 10
115.697
 20
620.683
 11
116.149
 21
620.504
  0
LINE
  8
0
 10
116.149
 20
620.504
 11
116.575
 21
620.27
  0
LINE
  8
0
 10
116.575
 20
620.27
 11
116.969
 21
619.984
  0
LINE
  8
0
 10
116.969
 20
619.984
 11
117.323
 21
619.651
  0
LINE
  8
0
 10
117.323
 20
619.651
 11
117.633
 21
619.276
  0
LINE
  8
0
 10
117.633
 20
619.276
 11
117.894
 21
618.866
  0
LINE
  8
0
 10
117.894
 20
618.866
 11
118.101
 21
618.426
  0
LINE
  8
0
 10
118.101
 20
618.426
 11
118.251
 21
617.963
  0
LINE
  8
0
 10
118.251
 20
617.963
 11
118.342
 21
617.485
  0
LINE
  8
0
 10
118.342
 20
617.485
 11
118.373
 21
617
  0
LINE
  8
0
 10
118.373
 20
617
 11
118.373
 21
523
  0
LINE
  8
0
 10
118.373
 20
523
 11
118.342
 21
522.515
  0
LINE
  8
0
 10
118.342
 20
522.515
 11
118.251
 21
522.037
  0
LINE
  8
0
 10
118.251
 20
522.037
 11
118.101
 21
521.574
  0
LINE
  8
0
 10
118.101
 20
521.574
 11
117.894
 21
521.134
  0
LINE
  8
0
 10
117.894
 20
521.134
 11
117.633
 21
520.724
  0
LINE
  8
0
 10
117.633
 20
520.724
 11
117.323
 21
520.349
  0
LINE
  8
0
 10
117.323
 20
520.349
 11
116.969
 21
520.016
  0
LINE
  8
0
 10
116.969
 20
520.016
 11
116.575
 21
519.73
  0
LINE
  8
0
 10
116.575
 20
519.73
 11
116.149
 21
519.496
  0
LINE
  8
0
 10
116.149
 20
519.496
 11
115.697
 21
519.317
  0
LINE
  8
0
 10
115.697
 20
519.317
 11
115.226
 21
519.196
  0
LINE
  8
0
 10
115.226
 20
519.196
 11
114.743
 21
519.135
  0
LINE
  8
0
 10
114.743
 20
519.135
 11
-114.743
 21
519.135
  0
LINE
  8
0
 10
115.937
 20
403.589
 11
116.545
 21
403.745
  0
LINE
  8
0
 10
116.545
 20
403.745
 11
117.129
 21
403.976
  0
LINE
  8
0
 10
117.129
 20
403.976
 11
117.679
 21
404.278
  0
LINE
  8
0
 10
117.679
 20
404.278
 11
118.187
 21
404.647
  0
LINE
  8
0
 10
118.187
 20
404.647
 11
118.645
 21
405.077
  0
LINE
  8
0
 10
118.645
 20
405.077
 11
119.045
 21
405.561
  0
LINE
  8
0
 10
119.045
 20
405.561
 11
119.382
 21
406.091
  0
LINE
  8
0
 10
119.382
 20
406.091
 11
119.649
 21
406.659
  0
LINE
  8
0
 10
119.649
 20
406.659
 11
119.843
 21
407.257
  0
LINE
  8
0
 10
119.843
 20
407.257
 11
119.961
 21
407.873
  0
LINE
  8
0
 10
119.961
 20
407.873
 11
120
 21
408.5
  0
LINE
  8
0
 10
120
 20
408.5
 11
120
 21
503.5
  0
LINE
  8
0
 10
120
 20
503.5
 11
119.961
 21
504.127
  0
LINE
  8
0
 10
119.961
 20
504.127
 11
119.843
 21
504.743
  0
LINE
  8
0
 10
119.843
 20
504.743
 11
119.649
 21
505.341
  0
LINE
  8
0
 10
119.649
 20
505.341
 11
119.382
 21
505.909
  0
LINE
  8
0
 10
119.382
 20
505.909
 11
119.045
 21
506.439
  0
LINE
  8
0
 10
119.045
 20
506.439
 11
118.645
 21
506.923
  0
LINE
  8
0
 10
118.645
 20
506.923
 11
118.187
 21
507.353
  0
LINE
  8
0
 10
118.187
 20
507.353
 11
117.679
 21
507.722
  0
LINE
  8
0
 10
117.679
 20
507.722
 11
117.129
 21
508.024
  0
LINE
  8
0
 10
117.129
 20
508.024
 11
116.545
 21
508.255
  0
LINE
  8
0
 10
116.545
 20
508.255
 11
115.937
 21
508.411
  0
LINE
  8
0
 10
115.937
 20
508.411
 11
115.314
 21
508.49
  0
LINE
  8
0
 10
115.314
 20
508.49
 11
-115.314
 21
508.49
  0
LINE
  8
0
 10
-115.314
 20
508.49
 11
-115.937
 21
508.411
  0
LINE
  8
0
 10
-115.937
 20
508.411
 11
-116.545
 21
508.255
  0
LINE
  8
0
 10
-116.545
 20
508.255
 11
-117.129
 21
508.024
  0
LINE
  8
0
 10
-117.129
 20
508.024
 11
-117.679
 21
507.722
  0
LINE
  8
0
 10
-117.679
 20
507.722
 11
-118.187
 21
507.353
  0
LINE
  8
0
 10
-118.187
 20
507.353
 11
-118.5
 21
507.059
  0
LINE
  8
0
 10
-118.5
 20
507.059
 11
-118.5
 21
508.115
  0
LINE
  8
0
 10
-118.5
 20
508.115
 11
-121.5
 21
508.115
  0
LINE
  8
0
 10
-121.5
 20
508.115
 11
-121.5
 21
403.885
  0
LINE
  8
0
 10
-121.5
 20
403.885
 11
-118.5
 21
403.885
  0
LINE
  8
0
 10
-118.5
 20
403.885
 11
-118.5
 21
404.941
  0
LINE
  8
0
 10
-118.5
 20
404.941
 11
-118.187
 21
404.647
  0
LINE
  8
0
 10
-118.187
 20
404.647
 11
-117.679
 21
404.278
  0
LINE
  8
0
 10
-117.679
 20
404.278
 11
-117.129
 21
403.976
  0
LINE
  8
0
 10
-117.129
 20
403.976
 11
-116.545
 21
403.745
  0
LINE
  8
0
 10
-116.545
 20
403.745
 11
-115.937
 21
403.589
  0
LINE
  8
0
 10
-115.937
 20
403.589
 11
-115.314
 21
403.51
  0
LINE
  8
0
 10
-115.314
 20
403.51
 11
115.314
 21
403.51
  0
LINE
  8
0
 10
115.314
 20
403.51
 11
115.937
 21
403.589
  0
LINE
  8
0
 10
-112.651
 20
498.605
 11
-112.95
 21
498.643
  0
LINE
  8
0
 10
-112.95
 20
498.643
 11
-113.242
 21
498.717
  0
LINE
  8
0
 10
-113.242
 20
498.717
 11
-113.522
 21
498.828
  0
LINE
  8
0
 10
-113.522
 20
498.828
 11
-113.786
 21
498.974
  0
LINE
  8
0
 10
-113.786
 20
498.974
 11
-114.03
 21
499.151
  0
LINE
  8
0
 10
-114.03
 20
499.151
 11
-114.25
 21
499.357
  0
LINE
  8
0
 10
-114.25
 20
499.357
 11
-114.442
 21
499.589
  0
LINE
  8
0
 10
-114.442
 20
499.589
 11
-114.603
 21
499.844
  0
LINE
  8
0
 10
-114.603
 20
499.844
 11
-114.731
 21
500.117
  0
LINE
  8
0
 10
-114.731
 20
500.117
 11
-114.825
 21
500.403
  0
LINE
  8
0
 10
-114.825
 20
500.403
 11
-114.881
 21
500.699
  0
LINE
  8
0
 10
-114.881
 20
500.699
 11
-114.9
 21
501
  0
LINE
  8
0
 10
-114.9
 20
501
 11
-114.881
 21
501.301
  0
LINE
  8
0
 10
-114.881
 20
501.301
 11
-114.825
 21
501.597
  0
LINE
  8
0
 10
-114.825
 20
501.597
 11
-114.731
 21
501.883
  0
LINE
  8
0
 10
-114.731
 20
501.883
 11
-114.603
 21
502.156
  0
LINE
  8
0
 10
-114.603
 20
502.156
 11
-114.442
 21
502.411
  0
LINE
  8
0
 10
-114.442
 20
502.411
 11
-114.25
 21
502.643
  0
LINE
  8
0
 10
-114.25
 20
502.643
 11
-114.03
 21
502.849
  0
LINE
  8
0
 10
-114.03
 20
502.849
 11
-113.786
 21
503.026
  0
LINE
  8
0
 10
-113.786
 20
503.026
 11
-113.522
 21
503.172
  0
LINE
  8
0
 10
-113.522
 20
503.172
 11
-113.242
 21
503.283
  0
LINE
  8
0
 10
-113.242
 20
503.283
 11
-112.95
 21
503.357
  0
LINE
  8
0
 10
-112.95
 20
503.357
 11
-112.651
 21
503.395
  0
LINE
  8
0
 10
-112.651
 20
503.395
 11
-112.349
 21
503.395
  0
LINE
  8
0
 10
-112.349
 20
503.395
 11
-112.05
 21
503.357
  0
LINE
  8
0
 10
-112.05
 20
503.357
 11
-111.758
 21
503.283
  0
LINE
  8
0
 10
-111.758
 20
503.283
 11
-111.478
 21
503.172
  0
LINE
  8
0
 10
-111.478
 20
503.172
 11
-111.214
 21
503.026
  0
LINE
  8
0
 10
-111.214
 20
503.026
 11
-110.97
 21
502.849
  0
LINE
  8
0
 10
-110.97
 20
502.849
 11
-110.75
 21
502.643
  0
LINE
  8
0
 10
-110.75
 20
502.643
 11
-110.558
 21
502.411
  0
LINE
  8
0
 10
-110.558
 20
502.411
 11
-110.397
 21
502.156
  0
LINE
  8
0
 10
-110.397
 20
502.156
 11
-110.269
 21
501.883
  0
LINE
  8
0
 10
-110.269
 20
501.883
 11
-110.175
 21
501.597
  0
LINE
  8
0
 10
-110.175
 20
501.597
 11
-110.119
 21
501.301
  0
LINE
  8
0
 10
-110.119
 20
501.301
 11
-110.1
 21
501
  0
LINE
  8
0
 10
-110.1
 20
501
 11
-110.119
 21
500.699
  0
LINE
  8
0
 10
-110.119
 20
500.699
 11
-110.175
 21
500.403
  0
LINE
  8
0
 10
-110.175
 20
500.403
 11
-110.269
 21
500.117
  0
LINE
  8
0
 10
-110.269
 20
500.117
 11
-110.397
 21
499.844
  0
LINE
  8
0
 10
-110.397
 20
499.844
 11
-110.558
 21
499.589
  0
LINE
  8
0
 10
-110.558
 20
499.589
 11
-110.75
 21
499.357
  0
LINE
  8
0
 10
-110.75
 20
499.357
 11
-110.97
 21
499.151
  0
LINE
  8
0
 10
-110.97
 20
499.151
 11
-111.214
 21
498.974
  0
LINE
  8
0
 10
-111.214
 20
498.974
 11
-111.478
 21
498.828
  0
LINE
  8
0
 10
-111.478
 20
498.828
 11
-111.758
 21
498.717
  0
LINE
  8
0
 10
-111.758
 20
498.717
 11
-112.05
 21
498.643
  0
LINE
  8
0
 10
-112.05
 20
498.643
 11
-112.349
 21
498.605
  0
LINE
  8
0
 10
-112.349
 20
498.605
 11
-112.651
 21
498.605
  0
LINE
  8
0
 10
112.349
 20
498.605
 11
112.05
 21
498.643
  0
LINE
  8
0
 10
112.05
 20
498.643
 11
111.758
 21
498.717
  0
LINE
  8
0
 10
111.758
 20
498.717
 11
111.478
 21
498.828
  0
LINE
  8
0
 10
111.478
 20
498.828
 11
111.214
 21
498.974
  0
LINE
  8
0
 10
111.214
 20
498.974
 11
110.97
 21
499.151
  0
LINE
  8
0
 10
110.97
 20
499.151
 11
110.75
 21
499.357
  0
LINE
  8
0
 10
110.75
 20
499.357
 11
110.558
 21
499.589
  0
LINE
  8
0
 10
110.558
 20
499.589
 11
110.397
 21
499.844
  0
LINE
  8
0
 10
110.397
 20
499.844
 11
110.269
 21
500.117
  0
LINE
  8
0
 10
110.269
 20
500.117
 11
110.175
 21
500.403
  0
LINE
  8
0
 10
110.175
 20
500.403
 11
110.119
 21
500.699
  0
LINE
  8
0
 10
110.119
 20
500.699
 11
110.1
 21
501
  0
LINE
  8
0
 10
110.1
 20
501
 11
110.119
 21
501.301
  0
LINE
  8
0
 10
110.119
 20
501.301
 11
110.175
 21
501.597
  0
LINE
  8
0
 10
110.175
 20
501.597
 11
110.269
 21
501.883
  0
LINE
  8
0
 10
110.269
 20
501.883
 11
110.397
 21
502.156
  0
LINE
  8
0
 10
110.397
 20
502.156
 11
110.558
 21
502.411
  0
LINE
  8
0
 10
110.558
 20
502.411
 11
110.75
 21
502.643
  0
LINE
  8
0
 10
110.75
 20
502.643
 11
110.97
 21
502.849
  0
LINE
  8
0
 10
110.97
 20
502.849
 11
111.214
 21
503.026
  0
LINE
  8
0
 10
111.214
 20
503.026
 11
111.478
 21
503.172
  0
LINE
  8
0
 10
111.478
 20
503.172
 11
111.758
 21
503.283
  0
LINE
  8
0
 10
111.758
 20
503.283
 11
112.05
 21
503.357
  0
LINE
  8
0
 10
112.05
 20
503.357
 11
112.349
 21
503.395
  0
LINE
  8
0
 10
112.349
 20
503.395
 11
112.651
 21
503.395
  0
LINE
  8
0
 10
112.651
 20
503.395
 11
112.95
 21
503.357
  0
LINE
  8
0
 10
112.95
 20
503.357
 11
113.242
 21
503.283
  0
LINE
  8
0
 10
113.242
 20
503.283
 11
113.522
 21
503.172
  0
LINE
  8
0
 10
113.522
 20
503.172
 11
113.786
 21
503.026
  0
LINE
  8
0
 10
113.786
 20
503.026
 11
114.03
 21
502.849
  0
LINE
  8
0
 10
114.03
 20
502.849
 11
114.25
 21
502.643
  0
LINE
  8
0
 10
114.25
 20
502.643
 11
114.442
 21
502.411
  0
LINE
  8
0
 10
114.442
 20
502.411
 11
114.603
 21
502.156
  0
LINE
  8
0
 10
114.603
 20
502.156
 11
114.731
 21
501.883
  0
LINE
  8
0
 10
114.731
 20
501.883
 11
114.825
 21
501.597
  0
LINE
  8
0
 10
114.825
 20
501.597
 11
114.881
 21
501.301
  0
LINE
  8
0
 10
114.881
 20
501.301
 11
114.9
 21
501
  0
LINE
  8
0
 10
114.9
 20
501
 11
114.881
 21
500.699
  0
LINE
  8
0
 10
114.881
 20
500.699
 11
114.825
 21
500.403
  0
LINE
  8
0
 10
114.825
 20
500.403
 11
114.731
 21
500.117
  0
LINE
  8
0
 10
114.731
 20
500.117
 11
114.603
 21
499.844
  0
LINE
  8
0
 10
114.603
 20
499.844
 11
114.442
 21
499.589
  0
LINE
  8
0
 10
114.442
 20
499.589
 11
114.25
 21
499.357
  0
LINE
  8
0
 10
114.25
 20
499.357
 11
114.03
 21
499.151
  0
LINE
  8
0
 10
114.03
 20
499.151
 11
113.786
 21
498.974
  0
LINE
  8
0
 10
113.786
 20
498.974
 11
113.522
 21
498.828
  0
LINE
  8
0
 10
113.522
 20
498.828
 11
113.242
 21
498.717
  0
LINE
  8
0
 10
113.242
 20
498.717
 11
112.95
 21
498.643
  0
LINE
  8
0
 10
112.95
 20
498.643
 11
112.651
 21
498.605
  0
LINE
  8
0
 10
112.651
 20
498.605
 11
112.349
 21
498.605
  0
LINE
  8
0
 10
112.349
 20
408.605
 11
112.05
 21
408.643
  0
LINE
  8
0
 10
112.05
 20
408.643
 11
111.758
 21
408.717
  0
LINE
  8
0
 10
111.758
 20
408.717
 11
111.478
 21
408.828
  0
LINE
  8
0
 10
111.478
 20
408.828
 11
111.214
 21
408.974
  0
LINE
  8
0
 10
111.214
 20
408.974
 11
110.97
 21
409.151
  0
LINE
  8
0
 10
110.97
 20
409.151
 11
110.75
 21
409.357
  0
LINE
  8
0
 10
110.75
 20
409.357
 11
110.558
 21
409.589
  0
LINE
  8
0
 10
110.558
 20
409.589
 11
110.397
 21
409.844
  0
LINE
  8
0
 10
110.397
 20
409.844
 11
110.269
 21
410.117
  0
LINE
  8
0
 10
110.269
 20
410.117
 11
110.175
 21
410.403
  0
LINE
  8
0
 10
110.175
 20
410.403
 11
110.119
 21
410.699
  0
LINE
  8
0
 10
110.119
 20
410.699
 11
110.1
 21
411
  0
LINE
  8
0
 10
110.1
 20
411
 11
110.119
 21
411.301
  0
LINE
  8
0
 10
110.119
 20
411.301
 11
110.175
 21
411.597
  0
LINE
  8
0
 10
110.175
 20
411.597
 11
110.269
 21
411.883
  0
LINE
  8
0
 10
110.269
 20
411.883
 11
110.397
 21
412.156
  0
LINE
  8
0
 10
110.397
 20
412.156
 11
110.558
 21
412.411
  0
LINE
  8
0
 10
110.558
 20
412.411
 11
110.75
 21
412.643
  0
LINE
  8
0
 10
110.75
 20
412.643
 11
110.97
 21
412.849
  0
LINE
  8
0
 10
110.97
 20
412.849
 11
111.214
 21
413.026
  0
LINE
  8
0
 10
111.214
 20
413.026
 11
111.478
 21
413.172
  0
LINE
  8
0
 10
111.478
 20
413.172
 11
111.758
 21
413.283
  0
LINE
  8
0
 10
111.758
 20
413.283
 11
112.05
 21
413.357
  0
LINE
  8
0
 10
112.05
 20
413.357
 11
112.349
 21
413.395
  0
LINE
  8
0
 10
112.349
 20
413.395
 11
112.651
 21
413.395
  0
LINE
  8
0
 10
112.651
 20
413.395
 11
112.95
 21
413.357
  0
LINE
  8
0
 10
112.95
 20
413.357
 11
113.242
 21
413.283
  0
LINE
  8
0
 10
113.242
 20
413.283
 11
113.522
 21
413.172
  0
LINE
  8
0
 10
113.522
 20
413.172
 11
113.786
 21
413.026
  0
LINE
  8
0
 10
113.786
 20
413.026
 11
114.03
 21
412.849
  0
LINE
  8
0
 10
114.03
 20
412.849
 11
114.25
 21
412.643
  0
LINE
  8
0
 10
114.25
 20
412.643
 11
114.442
 21
412.411
  0
LINE
  8
0
 10
114.442
 20
412.411
 11
114.603
 21
412.156
  0
LINE
  8
0
 10
114.603
 20
412.156
 11
114.731
 21
411.883
  0
LINE
  8
0
 10
114.731
 20
411.883
 11
114.825
 21
411.597
  0
LINE
  8
0
 10
114.825
 20
411.597
 11
114.881
 21
411.301
  0
LINE
  8
0
 10
114.881
 20
411.301
 11
114.9
 21
411
  0
LINE
  8
0
 10
114.9
 20
411
 11
114.881
 21
410.699
  0
LINE
  8
0
 10
114.881
 20
410.699
 11
114.825
 21
410.403
  0
LINE
  8
0
 10
114.825
 20
410.403
 11
114.731
 21
410.117
  0
LINE
  8
0
 10
114.731
 20
410.117
 11
114.603
 21
409.844
  0
LINE
  8
0
 10
114.603
 20
409.844
 11
114.442
 21
409.589
  0
LINE
  8
0
 10
114.442
 20
409.589
 11
114.25
 21
409.357
  0
LINE
  8
0
 10
114.25
 20
409.357
 11
114.03
 21
409.151
  0
LINE
  8
0
 10
114.03
 20
409.151
 11
113.786
 21
408.974
  0
LINE
  8
0
 10
113.786
 20
408.974
 11
113.522
 21
408.828
  0
LINE
  8
0
 10
113.522
 20
408.828
 11
113.242
 21
408.717
  0
LINE
  8
0
 10
113.242
 20
408.717
 11
112.95
 21
408.643
  0
LINE
  8
0
 10
112.95
 20
408.643
 11
112.651
 21
408.605
  0
LINE
  8
0
 10
112.651
 20
408.605
 11
112.349
 21
408.605
  0
LINE
  8
0
 10
-112.651
 20
408.605
 11
-112.95
 21
408.643
  0
LINE
  8
0
 10
-112.95
 20
408.643
 11
-113.242
 21
408.717
  0
LINE
  8
0
 10
-113.242
 20
408.717
 11
-113.522
 21
408.828
  0
LINE
  8
0
 10
-113.522
 20
408.828
 11
-113.786
 21
408.974
  0
LINE
  8
0
 10
-113.786
 20
408.974
 11
-114.03
 21
409.151
  0
LINE
  8
0
 10
-114.03
 20
409.151
 11
-114.25
 21
409.357
  0
LINE
  8
0
 10
-114.25
 20
409.357
 11
-114.442
 21
409.589
  0
LINE
  8
0
 10
-114.442
 20
409.589
 11
-114.603
 21
409.844
  0
LINE
  8
0
 10
-114.603
 20
409.844
 11
-114.731
 21
410.117
  0
LINE
  8
0
 10
-114.731
 20
410.117
 11
-114.825
 21
410.403
  0
LINE
  8
0
 10
-114.825
 20
410.403
 11
-114.881
 21
410.699
  0
LINE
  8
0
 10
-114.881
 20
410.699
 11
-114.9
 21
411
  0
LINE
  8
0
 10
-114.9
 20
411
 11
-114.881
 21
411.301
  0
LINE
  8
0
 10
-114.881
 20
411.301
 11
-114.825
 21
411.597
  0
LINE
  8
0
 10
-114.825
 20
411.597
 11
-114.731
 21
411.883
  0
LINE
  8
0
 10
-114.731
 20
411.883
 11
-114.603
 21
412.156
  0
LINE
  8
0
 10
-114.603
 20
412.156
 11
-114.442
 21
412.411
  0
LINE
  8
0
 10
-114.442
 20
412.411
 11
-114.25
 21
412.643
  0
LINE
  8
0
 10
-114.25
 20
412.643
 11
-114.03
 21
412.849
  0
LINE
  8
0
 10
-114.03
 20
412.849
 11
-113.786
 21
413.026
  0
LINE
  8
0
 10
-113.786
 20
413.026
 11
-113.522
 21
413.172
  0
LINE
  8
0
 10
-113.522
 20
413.172
 11
-113.242
 21
413.283
  0
LINE
  8
0
 10
-113.242
 20
413.283
 11
-112.95
 21
413.357
  0
LINE
  8
0
 10
-112.95
 20
413.357
 11
-112.651
 21
413.395
  0
LINE
  8
0
 10
-112.651
 20
413.395
 11
-112.349
 21
413.395
  0
LINE
  8
0
 10
-112.349
 20
413.395
 11
-112.05
 21
413.357
  0
LINE
  8
0
 10
-112.05
 20
413.357
 11
-111.758
 21
413.283
  0
LINE
  8
0
 10
-111.758
 20
413.283
 11
-111.478
 21
413.172
  0
LINE
  8
0
 10
-111.478
 20
413.172
 11
-111.214
 21
413.026
  0
LINE
  8
0
 10
-111.214
 20
413.026
 11
-110.97
 21
412.849
  0
LINE
  8
0
 10
-110.97
 20
412.849
 11
-110.75
 21
412.643
  0
LINE
  8
0
 10
-110.75
 20
412.643
 11
-110.558
 21
412.411
  0
LINE
  8
0
 10
-110.558
 20
412.411
 11
-110.397
 21
412.156
  0
LINE
  8
0
 10
-110.397
 20
412.156
 11
-110.269
 21
411.883
  0
LINE
  8
0
 10
-110.269
 20
411.883
 11
-110.175
 21
411.597
  0
LINE
  8
0
 10
-110.175
 20
411.597
 11
-110.119
 21
411.301
  0
LINE
  8
0
 10
-110.119
 20
411.301
 11
-110.1
 21
411
  0
LINE
  8
0
 10
-110.1
 20
411
 11
-110.119
 21
410.699
  0
LINE
  8
0
 10
-110.119
 20
410.699
 11
-110.175
 21
410.403
  0
LINE
  8
0
 10
-110.175
 20
410.403
 11
-110.269
 21
410.117
  0
LINE
  8
0
 10
-110.269
 20
410.117
 11
-110.397
 21
409.844
  0
LINE
  8
0
 10
-110.397
 20
409.844
 11
-110.558
 21
409.589
  0
LINE
  8
0
 10
-110.558
 20
409.589
 11
-110.75
 21
409.357
  0
LINE
  8
0
 10
-110.75
 20
409.357
 11
-110.97
 21
409.151
  0
LINE
  8
0
 10
-110.97
 20
409.151
 11
-111.214
 21
408.974
  0
LINE
  8
0
 10
-111.214
 20
408.974
 11
-111.478
 21
408.828
  0
LINE
  8
0
 10
-111.478
 20
408.828
 11
-111.758
 21
408.717
  0
LINE
  8
0
 10
-111.758
 20
408.717
 11
-112.05
 21
408.643
  0
LINE
  8
0
 10
-112.05
 20
408.643
 11
-112.349
 21
408.605
  0
LINE
  8
0
 10
-112.349
 20
408.605
 11
-112.651
 21
408.605
  0
LINE
  8
0
 10
115.937
 20
289.589
 11
116.545
 21
289.745
  0
LINE
  8
0
 10
116.545
 20
289.745
 11
117.129
 21
289.976
  0
LINE
  8
0
 10
117.129
 20
289.976
 11
117.679
 21
290.278
  0
LINE
  8
0
 10
117.679
 20
290.278
 11
118.187
 21
290.647
  0
LINE
  8
0
 10
118.187
 20
290.647
 11
118.645
 21
291.077
  0
LINE
  8
0
 10
118.645
 20
291.077
 11
119.045
 21
291.561
  0
LINE
  8
0
 10
119.045
 20
291.561
 11
119.382
 21
292.091
  0
LINE
  8
0
 10
119.382
 20
292.091
 11
119.649
 21
292.659
  0
LINE
  8
0
 10
119.649
 20
292.659
 11
119.843
 21
293.257
  0
LINE
  8
0
 10
119.843
 20
293.257
 11
119.961
 21
293.873
  0
LINE
  8
0
 10
119.961
 20
293.873
 11
120
 21
294.5
  0
LINE
  8
0
 10
120
 20
294.5
 11
120
 21
389.5
  0
LINE
  8
0
 10
120
 20
389.5
 11
119.961
 21
390.127
  0
LINE
  8
0
 10
119.961
 20
390.127
 11
119.843
 21
390.743
  0
LINE
  8
0
 10
119.843
 20
390.743
 11
119.649
 21
391.341
  0
LINE
  8
0
 10
119.649
 20
391.341
 11
119.382
 21
391.909
  0
LINE
  8
0
 10
119.382
 20
391.909
 11
119.045
 21
392.439
  0
LINE
  8
0
 10
119.045
 20
392.439
 11
118.645
 21
392.923
  0
LINE
  8
0
 10
118.645
 20
392.923
 11
118.187
 21
393.353
  0
LINE
  8
0
 10
118.187
 20
393.353
 11
117.679
 21
393.722
  0
LINE
  8
0
 10
117.679
 20
393.722
 11
117.129
 21
394.024
  0
LINE
  8
0
 10
117.129
 20
394.024
 11
116.545
 21
394.255
  0
LINE
  8
0
 10
116.545
 20
394.255
 11
115.937
 21
394.411
  0
LINE
  8
0
 10
115.937
 20
394.411
 11
115.314
 21
394.49
  0
LINE
  8
0
 10
115.314
 20
394.49
 11
-115.314
 21
394.49
  0
LINE
  8
0
 10
-115.314
 20
394.49
 11
-115.937
 21
394.411
  0
LINE
  8
0
 10
-115.937
 20
394.411
 11
-116.545
 21
394.255
  0
LINE
  8
0
 10
-116.545
 20
394.255
 11
-117.129
 21
394.024
  0
LINE
  8
0
 10
-117.129
 20
394.024
 11
-117.679
 21
393.722
  0
LINE
  8
0
 10
-117.679
 20
393.722
 11
-118.187
 21
393.353
  0
LINE
  8
0
 10
-118.187
 20
393.353
 11
-118.645
 21
392.923
  0
LINE
  8
0
 10
-118.645
 20
392.923
 11
-119.045
 21
392.439
  0
LINE
  8
0
 10
-119.045
 20
392.439
 11
-119.382
 21
391.909
  0
LINE
  8
0
 10
-119.382
 20
391.909
 11
-119.649
 21
391.341
  0
LINE
  8
0
 10
-119.649
 20
391.341
 11
-119.843
 21
390.743
  0
LINE
  8
0
 10
-119.843
 20
390.743
 11
-119.9
 21
390.444
  0
LINE
  8
0
 10
-119.9
 20
390.444
 11
-121.5
 21
390.444
  0
LINE
  8
0
 10
-121.5
 20
390.444
 11
-121.5
 21
293.556
  0
LINE
  8
0
 10
-121.5
 20
293.556
 11
-119.9
 21
293.556
  0
LINE
  8
0
 10
-119.9
 20
293.556
 11
-119.843
 21
293.257
  0
LINE
  8
0
 10
-119.843
 20
293.257
 11
-119.649
 21
292.659
  0
LINE
  8
0
 10
-119.649
 20
292.659
 11
-119.382
 21
292.091
  0
LINE
  8
0
 10
-119.382
 20
292.091
 11
-119.045
 21
291.561
  0
LINE
  8
0
 10
-119.045
 20
291.561
 11
-118.645
 21
291.077
  0
LINE
  8
0
 10
-118.645
 20
291.077
 11
-118.187
 21
290.647
  0
LINE
  8
0
 10
-118.187
 20
290.647
 11
-117.679
 21
290.278
  0
LINE
  8
0
 10
-117.679
 20
290.278
 11
-117.129
 21
289.976
  0
LINE
  8
0
 10
-117.129
 20
289.976
 11
-116.545
 21
289.745
  0
LINE
  8
0
 10
-116.545
 20
289.745
 11
-115.937
 21
289.589
  0
LINE
  8
0
 10
-115.937
 20
289.589
 11
-115.314
 21
289.51
  0
LINE
  8
0
 10
-115.314
 20
289.51
 11
115.314
 21
289.51
  0
LINE
  8
0
 10
115.314
 20
289.51
 11
115.937
 21
289.589
  0
LINE
  8
0
 10
-112.613
 20
385.204
 11
-112.837
 21
385.232
  0
LINE
  8
0
 10
-112.837
 20
385.232
 11
-113.056
 21
385.288
  0
LINE
  8
0
 10
-113.056
 20
385.288
 11
-113.266
 21
385.371
  0
LINE
  8
0
 10
-113.266
 20
385.371
 11
-113.464
 21
385.48
  0
LINE
  8
0
 10
-113.464
 20
385.48
 11
-113.647
 21
385.613
  0
LINE
  8
0
 10
-113.647
 20
385.613
 11
-113.812
 21
385.768
  0
LINE
  8
0
 10
-113.812
 20
385.768
 11
-113.956
 21
385.942
  0
LINE
  8
0
 10
-113.956
 20
385.942
 11
-114.077
 21
386.133
  0
LINE
  8
0
 10
-114.077
 20
386.133
 11
-114.174
 21
386.337
  0
LINE
  8
0
 10
-114.174
 20
386.337
 11
-114.243
 21
386.552
  0
LINE
  8
0
 10
-114.243
 20
386.552
 11
-114.286
 21
386.774
  0
LINE
  8
0
 10
-114.286
 20
386.774
 11
-114.3
 21
387
  0
LINE
  8
0
 10
-114.3
 20
387
 11
-114.286
 21
387.226
  0
LINE
  8
0
 10
-114.286
 20
387.226
 11
-114.243
 21
387.448
  0
LINE
  8
0
 10
-114.243
 20
387.448
 11
-114.174
 21
387.663
  0
LINE
  8
0
 10
-114.174
 20
387.663
 11
-114.077
 21
387.867
  0
LINE
  8
0
 10
-114.077
 20
387.867
 11
-113.956
 21
388.058
  0
LINE
  8
0
 10
-113.956
 20
388.058
 11
-113.812
 21
388.232
  0
LINE
  8
0
 10
-113.812
 20
388.232
 11
-113.647
 21
388.387
  0
LINE
  8
0
 10
-113.647
 20
388.387
 11
-113.464
 21
388.52
  0
LINE
  8
0
 10
-113.464
 20
388.52
 11
-113.266
 21
388.629
  0
LINE
  8
0
 10
-113.266
 20
388.629
 11
-113.056
 21
388.712
  0
LINE
  8
0
 10
-113.056
 20
388.712
 11
-112.837
 21
388.768
  0
LINE
  8
0
 10
-112.837
 20
388.768
 11
-112.613
 21
388.796
  0
LINE
  8
0
 10
-112.613
 20
388.796
 11
-112.387
 21
388.796
  0
LINE
  8
0
 10
-112.387
 20
388.796
 11
-112.163
 21
388.768
  0
LINE
  8
0
 10
-112.163
 20
388.768
 11
-111.944
 21
388.712
  0
LINE
  8
0
 10
-111.944
 20
388.712
 11
-111.734
 21
388.629
  0
LINE
  8
0
 10
-111.734
 20
388.629
 11
-111.536
 21
388.52
  0
LINE
  8
0
 10
-111.536
 20
388.52
 11
-111.353
 21
388.387
  0
LINE
  8
0
 10
-111.353
 20
388.387
 11
-111.188
 21
388.232
  0
LINE
  8
0
 10
-111.188
 20
388.232
 11
-111.044
 21
388.058
  0
LINE
  8
0
 10
-111.044
 20
388.058
 11
-110.923
 21
387.867
  0
LINE
  8
0
 10
-110.923
 20
387.867
 11
-110.826
 21
387.663
  0
LINE
  8
0
 10
-110.826
 20
387.663
 11
-110.757
 21
387.448
  0
LINE
  8
0
 10
-110.757
 20
387.448
 11
-110.714
 21
387.226
  0
LINE
  8
0
 10
-110.714
 20
387.226
 11
-110.7
 21
387
  0
LINE
  8
0
 10
-110.7
 20
387
 11
-110.714
 21
386.774
  0
LINE
  8
0
 10
-110.714
 20
386.774
 11
-110.757
 21
386.552
  0
LINE
  8
0
 10
-110.757
 20
386.552
 11
-110.826
 21
386.337
  0
LINE
  8
0
 10
-110.826
 20
386.337
 11
-110.923
 21
386.133
  0
LINE
  8
0
 10
-110.923
 20
386.133
 11
-111.044
 21
385.942
  0
LINE
  8
0
 10
-111.044
 20
385.942
 11
-111.188
 21
385.768
  0
LINE
  8
0
 10
-111.188
 20
385.768
 11
-111.353
 21
385.613
  0
LINE
  8
0
 10
-111.353
 20
385.613
 11
-111.536
 21
385.48
  0
LINE
  8
0
 10
-111.536
 20
385.48
 11
-111.734
 21
385.371
  0
LINE
  8
0
 10
-111.734
 20
385.371
 11
-111.944
 21
385.288
  0
LINE
  8
0
 10
-111.944
 20
385.288
 11
-112.163
 21
385.232
  0
LINE
  8
0
 10
-112.163
 20
385.232
 11
-112.387
 21
385.204
  0
LINE
  8
0
 10
-112.387
 20
385.204
 11
-112.613
 21
385.204
  0
LINE
  8
0
 10
112.387
 20
385.204
 11
112.163
 21
385.232
  0
LINE
  8
0
 10
112.163
 20
385.232
 11
111.944
 21
385.288
  0
LINE
  8
0
 10
111.944
 20
385.288
 11
111.734
 21
385.371
  0
LINE
  8
0
 10
111.734
 20
385.371
 11
111.536
 21
385.48
  0
LINE
  8
0
 10
111.536
 20
385.48
 11
111.353
 21
385.613
  0
LINE
  8
0
 10
111.353
 20
385.613
 11
111.188
 21
385.768
  0
LINE
  8
0
 10
111.188
 20
385.768
 11
111.044
 21
385.942
  0
LINE
  8
0
 10
111.044
 20
385.942
 11
110.923
 21
386.133
  0
LINE
  8
0
 10
110.923
 20
386.133
 11
110.826
 21
386.337
  0
LINE
  8
0
 10
110.826
 20
386.337
 11
110.757
 21
386.552
  0
LINE
  8
0
 10
110.757
 20
386.552
 11
110.714
 21
386.774
  0
LINE
  8
0
 10
110.714
 20
386.774
 11
110.7
 21
387
  0
LINE
  8
0
 10
110.7
 20
387
 11
110.714
 21
387.226
  0
LINE
  8
0
 10
110.714
 20
387.226
 11
110.757
 21
387.448
  0
LINE
  8
0
 10
110.757
 20
387.448
 11
110.826
 21
387.663
  0
LINE
  8
0
 10
110.826
 20
387.663
 11
110.923
 21
387.867
  0
LINE
  8
0
 10
110.923
 20
387.867
 11
111.044
 21
388.058
  0
LINE
  8
0
 10
111.044
 20
388.058
 11
111.188
 21
388.232
  0
LINE
  8
0
 10
111.188
 20
388.232
 11
111.353
 21
388.387
  0
LINE
  8
0
 10
111.353
 20
388.387
 11
111.536
 21
388.52
  0
LINE
  8
0
 10
111.536
 20
388.52
 11
111.734
 21
388.629
  0
LINE
  8
0
 10
111.734
 20
388.629
 11
111.944
 21
388.712
  0
LINE
  8
0
 10
111.944
 20
388.712
 11
112.163
 21
388.768
  0
LINE
  8
0
 10
112.163
 20
388.768
 11
112.387
 21
388.796
  0
LINE
  8
0
 10
112.387
 20
388.796
 11
112.613
 21
388.796
  0
LINE
  8
0
 10
112.613
 20
388.796
 11
112.837
 21
388.768
  0
LINE
  8
0
 10
112.837
 20
388.768
 11
113.056
 21
388.712
  0
LINE
  8
0
 10
113.056
 20
388.712
 11
113.266
 21
388.629
  0
LINE
  8
0
 10
113.266
 20
388.629
 11
113.464
 21
388.52
  0
LINE
  8
0
 10
113.464
 20
388.52
 11
113.647
 21
388.387
  0
LINE
  8
0
 10
113.647
 20
388.387
 11
113.812
 21
388.232
  0
LINE
  8
0
 10
113.812
 20
388.232
 11
113.956
 21
388.058
  0
LINE
  8
0
 10
113.956
 20
388.058
 11
114.077
 21
387.867
  0
LINE
  8
0
 10
114.077
 20
387.867
 11
114.174
 21
387.663
  0
LINE
  8
0
 10
114.174
 20
387.663
 11
114.243
 21
387.448
  0
LINE
  8
0
 10
114.243
 20
387.448
 11
114.286
 21
387.226
  0
LINE
  8
0
 10
114.286
 20
387.226
 11
114.3
 21
387
  0
LINE
  8
0
 10
114.3
 20
387
 11
114.286
 21
386.774
  0
LINE
  8
0
 10
114.286
 20
386.774
 11
114.243
 21
386.552
  0
LINE
  8
0
 10
114.243
 20
386.552
 11
114.174
 21
386.337
  0
LINE
  8
0
 10
114.174
 20
386.337
 11
114.077
 21
386.133
  0
LINE
  8
0
 10
114.077
 20
386.133
 11
113.956
 21
385.942
  0
LINE
  8
0
 10
113.956
 20
385.942
 11
113.812
 21
385.768
  0
LINE
  8
0
 10
113.812
 20
385.768
 11
113.647
 21
385.613
  0
LINE
  8
0
 10
113.647
 20
385.613
 11
113.464
 21
385.48
  0
LINE
  8
0
 10
113.464
 20
385.48
 11
113.266
 21
385.371
  0
LINE
  8
0
 10
113.266
 20
385.371
 11
113.056
 21
385.288
  0
LINE
  8
0
 10
113.056
 20
385.288
 11
112.837
 21
385.232
  0
LINE
  8
0
 10
112.837
 20
385.232
 11
112.613
 21
385.204
  0
LINE
  8
0
 10
112.613
 20
385.204
 11
112.387
 21
385.204
  0
LINE
  8
0
 10
-112.613
 20
295.204
 11
-112.837
 21
295.232
  0
LINE
  8
0
 10
-112.837
 20
295.232
 11
-113.056
 21
295.288
  0
LINE
  8
0
 10
-113.056
 20
295.288
 11
-113.266
 21
295.371
  0
LINE
  8
0
 10
-113.266
 20
295.371
 11
-113.464
 21
295.48
  0
LINE
  8
0
 10
-113.464
 20
295.48
 11
-113.647
 21
295.613
  0
LINE
  8
0
 10
-113.647
 20
295.613
 11
-113.812
 21
295.768
  0
LINE
  8
0
 10
-113.812
 20
295.768
 11
-113.956
 21
295.942
  0
LINE
  8
0
 10
-113.956
 20
295.942
 11
-114.077
 21
296.133
  0
LINE
  8
0
 10
-114.077
 20
296.133
 11
-114.174
 21
296.337
  0
LINE
  8
0
 10
-114.174
 20
296.337
 11
-114.243
 21
296.552
  0
LINE
  8
0
 10
-114.243
 20
296.552
 11
-114.286
 21
296.774
  0
LINE
  8
0
 10
-114.286
 20
296.774
 11
-114.3
 21
297
  0
LINE
  8
0
 10
-114.3
 20
297
 11
-114.286
 21
297.226
  0
LINE
  8
0
 10
-114.286
 20
297.226
 11
-114.243
 21
297.448
  0
LINE
  8
0
 10
-114.243
 20
297.448
 11
-114.174
 21
297.663
  0
LINE
  8
0
 10
-114.174
 20
297.663
 11
-114.077
 21
297.867
  0
LINE
  8
0
 10
-114.077
 20
297.867
 11
-113.956
 21
298.058
  0
LINE
  8
0
 10
-113.956
 20
298.058
 11
-113.812
 21
298.232
  0
LINE
  8
0
 10
-113.812
 20
298.232
 11
-113.647
 21
298.387
  0
LINE
  8
0
 10
-113.647
 20
298.387
 11
-113.464
 21
298.52
  0
LINE
  8
0
 10
-113.464
 20
298.52
 11
-113.266
 21
298.629
  0
LINE
  8
0
 10
-113.266
 20
298.629
 11
-113.056
 21
298.712
  0
LINE
  8
0
 10
-113.056
 20
298.712
 11
-112.837
 21
298.768
  0
LINE
  8
0
 10
-112.837
 20
298.768
 11
-112.613
 21
298.796
  0
LINE
  8
0
 10
-112.613
 20
298.796
 11
-112.387
 21
298.796
  0
LINE
  8
0
 10
-112.387
 20
298.796
 11
-112.163
 21
298.768
  0
LINE
  8
0
 10
-112.163
 20
298.768
 11
-111.944
 21
298.712
  0
LINE
  8
0
 10
-111.944
 20
298.712
 11
-111.734
 21
298.629
  0
LINE
  8
0
 10
-111.734
 20
298.629
 11
-111.536
 21
298.52
  0
LINE
  8
0
 10
-111.536
 20
298.52
 11
-111.353
 21
298.387
  0
LINE
  8
0
 10
-111.353
 20
298.387
 11
-111.188
 21
298.232
  0
LINE
  8
0
 10
-111.188
 20
298.232
 11
-111.044
 21
298.058
  0
LINE
  8
0
 10
-111.044
 20
298.058
 11
-110.923
 21
297.867
  0
LINE
  8
0
 10
-110.923
 20
297.867
 11
-110.826
 21
297.663
  0
LINE
  8
0
 10
-110.826
 20
297.663
 11
-110.757
 21
297.448
  0
LINE
  8
0
 10
-110.757
 20
297.448
 11
-110.714
 21
297.226
  0
LINE
  8
0
 10
-110.714
 20
297.226
 11
-110.7
 21
297
  0
LINE
  8
0
 10
-110.7
 20
297
 11
-110.714
 21
296.774
  0
LINE
  8
0
 10
-110.714
 20
296.774
 11
-110.757
 21
296.552
  0
LINE
  8
0
 10
-110.757
 20
296.552
 11
-110.826
 21
296.337
  0
LINE
  8
0
 10
-110.826
 20
296.337
 11
-110.923
 21
296.133
  0
LINE
  8
0
 10
-110.923
 20
296.133
 11
-111.044
 21
295.942
  0
LINE
  8
0
 10
-111.044
 20
295.942
 11
-111.188
 21
295.768
  0
LINE
  8
0
 10
-111.188
 20
295.768
 11
-111.353
 21
295.613
  0
LINE
  8
0
 10
-111.353
 20
295.613
 11
-111.536
 21
295.48
  0
LINE
  8
0
 10
-111.536
 20
295.48
 11
-111.734
 21
295.371
  0
LINE
  8
0
 10
-111.734
 20
295.371
 11
-111.944
 21
295.288
  0
LINE
  8
0
 10
-111.944
 20
295.288
 11
-112.163
 21
295.232
  0
LINE
  8
0
 10
-112.163
 20
295.232
 11
-112.387
 21
295.204
  0
LINE
  8
0
 10
-112.387
 20
295.204
 11
-112.613
 21
295.204
  0
LINE
  8
0
 10
112.387
 20
295.204
 11
112.163
 21
295.232
  0
LINE
  8
0
 10
112.163
 20
295.232
 11
111.944
 21
295.288
  0
LINE
  8
0
 10
111.944
 20
295.288
 11
111.734
 21
295.371
  0
LINE
  8
0
 10
111.734
 20
295.371
 11
111.536
 21
295.48
  0
LINE
  8
0
 10
111.536
 20
295.48
 11
111.353
 21
295.613
  0
LINE
  8
0
 10
111.353
 20
295.613
 11
111.188
 21
295.768
  0
LINE
  8
0
 10
111.188
 20
295.768
 11
111.044
 21
295.942
  0
LINE
  8
0
 10
111.044
 20
295.942
 11
110.923
 21
296.133
  0
LINE
  8
0
 10
110.923
 20
296.133
 11
110.826
 21
296.337
  0
LINE
  8
0
 10
110.826
 20
296.337
 11
110.757
 21
296.552
  0
LINE
  8
0
 10
110.757
 20
296.552
 11
110.714
 21
296.774
  0
LINE
  8
0
 10
110.714
 20
296.774
 11
110.7
 21
297
  0
LINE
  8
0
 10
110.7
 20
297
 11
110.714
 21
297.226
  0
LINE
  8
0
 10
110.714
 20
297.226
 11
110.757
 21
297.448
  0
LINE
  8
0
 10
110.757
 20
297.448
 11
110.826
 21
297.663
  0
LINE
  8
0
 10
110.826
 20
297.663
 11
110.923
 21
297.867
  0
LINE
  8
0
 10
110.923
 20
297.867
 11
111.044
 21
298.058
  0
LINE
  8
0
 10
111.044
 20
298.058
 11
111.188
 21
298.232
  0
LINE
  8
0
 10
111.188
 20
298.232
 11
111.353
 21
298.387
  0
LINE
  8
0
 10
111.353
 20
298.387
 11
111.536
 21
298.52
  0
LINE
  8
0
 10
111.536
 20
298.52
 11
111.734
 21
298.629
  0
LINE
  8
0
 10
111.734
 20
298.629
 11
111.944
 21
298.712
  0
LINE
  8
0
 10
111.944
 20
298.712
 11
112.163
 21
298.768
  0
LINE
  8
0
 10
112.163
 20
298.768
 11
112.387
 21
298.796
  0
LINE
  8
0
 10
112.387
 20
298.796
 11
112.613
 21
298.796
  0
LINE
  8
0
 10
112.613
 20
298.796
 11
112.837
 21
298.768
  0
LINE
  8
0
 10
112.837
 20
298.768
 11
113.056
 21
298.712
  0
LINE
  8
0
 10
113.056
 20
298.712
 11
113.266
 21
298.629
  0
LINE
  8
0
 10
113.266
 20
298.629
 11
113.464
 21
298.52
  0
LINE
  8
0
 10
113.464
 20
298.52
 11
113.647
 21
298.387
  0
LINE
  8
0
 10
113.647
 20
298.387
 11
113.812
 21
298.232
  0
LINE
  8
0
 10
113.812
 20
298.232
 11
113.956
 21
298.058
  0
LINE
  8
0
 10
113.956
 20
298.058
 11
114.077
 21
297.867
  0
LINE
  8
0
 10
114.077
 20
297.867
 11
114.174
 21
297.663
  0
LINE
  8
0
 10
114.174
 20
297.663
 11
114.243
 21
297.448
  0
LINE
  8
0
 10
114.243
 20
297.448
 11
114.286
 21
297.226
  0
LINE
  8
0
 10
114.286
 20
297.226
 11
114.3
 21
297
  0
LINE
  8
0
 10
114.3
 20
297
 11
114.286
 21
296.774
  0
LINE
  8
0
 10
114.286
 20
296.774
 11
114.243
 21
296.552
  0
LINE
  8
0
 10
114.243
 20
296.552
 11
114.174
 21
296.337
  0
LINE
  8
0
 10
114.174
 20
296.337
 11
114.077
 21
296.133
  0
LINE
  8
0
 10
114.077
 20
296.133
 11
113.956
 21
295.942
  0
LINE
  8
0
 10
113.956
 20
295.942
 11
113.812
 21
295.768
  0
LINE
  8
0
 10
113.812
 20
295.768
 11
113.647
 21
295.613
  0
LINE
  8
0
 10
113.647
 20
295.613
 11
113.464
 21
295.48
  0
LINE
  8
0
 10
113.464
 20
295.48
 11
113.266
 21
295.371
  0
LINE
  8
0
 10
113.266
 20
295.371
 11
113.056
 21
295.288
  0
LINE
  8
0
 10
113.056
 20
295.288
 11
112.837
 21
295.232
  0
LINE
  8
0
 10
112.837
 20
295.232
 11
112.613
 21
295.204
  0
LINE
  8
0
 10
112.613
 20
295.204
 11
112.387
 21
295.204
  0
ENDSEC
  0
SECTION
  2
OBJECTS
  0
DICTIONARY
  0
ENDSEC
  0
EOF
