  0
SECTION
  2
BLOCKS
  0
ENDSEC
  0
SECTION
  2
ENTITIES
  0
LINE
  8
0
 10
-126
 20
352.441
 11
-125.687
 21
352.147
  0
LINE
  8
0
 10
-125.687
 20
352.147
 11
-125.179
 21
351.778
  0
LINE
  8
0
 10
-125.179
 20
351.778
 11
-124.629
 21
351.476
  0
LINE
  8
0
 10
-124.629
 20
351.476
 11
-124.045
 21
351.245
  0
LINE
  8
0
 10
-124.045
 20
351.245
 11
-123.437
 21
351.089
  0
LINE
  8
0
 10
-123.437
 20
351.089
 11
-122.814
 21
351.01
  0
LINE
  8
0
 10
-122.814
 20
351.01
 11
122.814
 21
351.01
  0
LINE
  8
0
 10
122.814
 20
351.01
 11
123.437
 21
351.089
  0
LINE
  8
0
 10
123.437
 20
351.089
 11
124.045
 21
351.245
  0
LINE
  8
0
 10
124.045
 20
351.245
 11
124.629
 21
351.476
  0
LINE
  8
0
 10
124.629
 20
351.476
 11
125.179
 21
351.778
  0
LINE
  8
0
 10
125.179
 20
351.778
 11
125.687
 21
352.147
  0
LINE
  8
0
 10
125.687
 20
352.147
 11
126.145
 21
352.577
  0
LINE
  8
0
 10
126.145
 20
352.577
 11
126.545
 21
353.061
  0
LINE
  8
0
 10
126.545
 20
353.061
 11
126.882
 21
353.591
  0
LINE
  8
0
 10
126.882
 20
353.591
 11
127.149
 21
354.159
  0
LINE
  8
0
 10
127.149
 20
354.159
 11
127.343
 21
354.757
  0
LINE
  8
0
 10
127.343
 20
354.757
 11
127.461
 21
355.373
  0
LINE
  8
0
 10
127.461
 20
355.373
 11
127.5
 21
356
  0
LINE
  8
0
 10
127.5
 20
356
 11
127.5
 21
436
  0
LINE
  8
0
 10
127.5
 20
436
 11
127.461
 21
436.627
  0
LINE
  8
0
 10
127.461
 20
436.627
 11
127.343
 21
437.243
  0
LINE
  8
0
 10
127.343
 20
437.243
 11
127.149
 21
437.841
  0
LINE
  8
0
 10
127.149
 20
437.841
 11
126.882
 21
438.409
  0
LINE
  8
0
 10
126.882
 20
438.409
 11
126.545
 21
438.939
  0
LINE
  8
0
 10
126.545
 20
438.939
 11
126.145
 21
439.423
  0
LINE
  8
0
 10
126.145
 20
439.423
 11
125.687
 21
439.853
  0
LINE
  8
0
 10
125.687
 20
439.853
 11
125.179
 21
440.222
  0
LINE
  8
0
 10
125.179
 20
440.222
 11
124.629
 21
440.524
  0
LINE
  8
0
 10
124.629
 20
440.524
 11
124.045
 21
440.755
  0
LINE
  8
0
 10
124.045
 20
440.755
 11
123.437
 21
440.911
  0
LINE
  8
0
 10
123.437
 20
440.911
 11
122.814
 21
440.99
  0
LINE
  8
0
 10
122.814
 20
440.99
 11
-122.814
 21
440.99
  0
LINE
  8
0
 10
-122.814
 20
440.99
 11
-123.437
 21
440.911
  0
LINE
  8
0
 10
-123.437
 20
440.911
 11
-124.045
 21
440.755
  0
LINE
  8
0
 10
-124.045
 20
440.755
 11
-124.629
 21
440.524
  0
LINE
  8
0
 10
-124.629
 20
440.524
 11
-125.179
 21
440.222
  0
LINE
  8
0
 10
-125.179
 20
440.222
 11
-125.687
 21
439.853
  0
LINE
  8
0
 10
-125.687
 20
439.853
 11
-126
 21
439.559
  0
LINE
  8
0
 10
-126
 20
439.559
 11
-126
 21
440.99
  0
LINE
  8
0
 10
-126
 20
440.99
 11
-129
 21
440.99
  0
LINE
  8
0
 10
-129
 20
440.99
 11
-129
 21
351.01
  0
LINE
  8
0
 10
-129
 20
351.01
 11
-126
 21
351.01
  0
LINE
  8
0
 10
-126
 20
351.01
 11
-126
 21
352.441
  0
LINE
  8
0
 10
-122.243
 20
352.635
 11
-122.726
 21
352.696
  0
LINE
  8
0
 10
-122.726
 20
352.696
 11
-123.197
 21
352.817
  0
LINE
  8
0
 10
-123.197
 20
352.817
 11
-123.649
 21
352.996
  0
LINE
  8
0
 10
-123.649
 20
352.996
 11
-124.075
 21
353.23
  0
LINE
  8
0
 10
-124.075
 20
353.23
 11
-124.469
 21
353.516
  0
LINE
  8
0
 10
-124.469
 20
353.516
 11
-124.823
 21
353.849
  0
LINE
  8
0
 10
-124.823
 20
353.849
 11
-125.133
 21
354.224
  0
LINE
  8
0
 10
-125.133
 20
354.224
 11
-125.394
 21
354.634
  0
LINE
  8
0
 10
-125.394
 20
354.634
 11
-125.601
 21
355.074
  0
LINE
  8
0
 10
-125.601
 20
355.074
 11
-125.751
 21
355.537
  0
LINE
  8
0
 10
-125.751
 20
355.537
 11
-125.842
 21
356.015
  0
LINE
  8
0
 10
-125.842
 20
356.015
 11
-125.873
 21
356.5
  0
LINE
  8
0
 10
-125.873
 20
356.5
 11
-125.873
 21
435.5
  0
LINE
  8
0
 10
-125.873
 20
435.5
 11
-125.842
 21
435.985
  0
LINE
  8
0
 10
-125.842
 20
435.985
 11
-125.751
 21
436.463
  0
LINE
  8
0
 10
-125.751
 20
436.463
 11
-125.601
 21
436.926
  0
LINE
  8
0
 10
-125.601
 20
436.926
 11
-125.394
 21
437.366
  0
LINE
  8
0
 10
-125.394
 20
437.366
 11
-125.133
 21
437.776
  0
LINE
  8
0
 10
-125.133
 20
437.776
 11
-124.823
 21
438.151
  0
LINE
  8
0
 10
-124.823
 20
438.151
 11
-124.469
 21
438.484
  0
LINE
  8
0
 10
-124.469
 20
438.484
 11
-124.075
 21
438.77
  0
LINE
  8
0
 10
-124.075
 20
438.77
 11
-123.649
 21
439.004
  0
LINE
  8
0
 10
-123.649
 20
439.004
 11
-123.197
 21
439.183
  0
LINE
  8
0
 10
-123.197
 20
439.183
 11
-122.726
 21
439.304
  0
LINE
  8
0
 10
-122.726
 20
439.304
 11
-122.243
 21
439.365
  0
LINE
  8
0
 10
-122.243
 20
439.365
 11
122.243
 21
439.365
  0
LINE
  8
0
 10
122.243
 20
439.365
 11
122.726
 21
439.304
  0
LINE
  8
0
 10
122.726
 20
439.304
 11
123.197
 21
439.183
  0
LINE
  8
0
 10
123.197
 20
439.183
 11
123.649
 21
439.004
  0
LINE
  8
0
 10
123.649
 20
439.004
 11
124.075
 21
438.77
  0
LINE
  8
0
 10
124.075
 20
438.77
 11
124.469
 21
438.484
  0
LINE
  8
0
 10
124.469
 20
438.484
 11
124.823
 21
438.151
  0
LINE
  8
0
 10
124.823
 20
438.151
 11
125.133
 21
437.776
  0
LINE
  8
0
 10
125.133
 20
437.776
 11
125.394
 21
437.366
  0
LINE
  8
0
 10
125.394
 20
437.366
 11
125.601
 21
436.926
  0
LINE
  8
0
 10
125.601
 20
436.926
 11
125.751
 21
436.463
  0
LINE
  8
0
 10
125.751
 20
436.463
 11
125.842
 21
435.985
  0
LINE
  8
0
 10
125.842
 20
435.985
 11
125.873
 21
435.5
  0
LINE
  8
0
 10
125.873
 20
435.5
 11
125.873
 21
356.5
  0
LINE
  8
0
 10
125.873
 20
356.5
 11
125.842
 21
356.015
  0
LINE
  8
0
 10
125.842
 20
356.015
 11
125.751
 21
355.537
  0
LINE
  8
0
 10
125.751
 20
355.537
 11
125.601
 21
355.074
  0
LINE
  8
0
 10
125.601
 20
355.074
 11
125.394
 21
354.634
  0
LINE
  8
0
 10
125.394
 20
354.634
 11
125.133
 21
354.224
  0
LINE
  8
0
 10
125.133
 20
354.224
 11
124.823
 21
353.849
  0
LINE
  8
0
 10
124.823
 20
353.849
 11
124.469
 21
353.516
  0
LINE
  8
0
 10
124.469
 20
353.516
 11
124.075
 21
353.23
  0
LINE
  8
0
 10
124.075
 20
353.23
 11
123.649
 21
352.996
  0
LINE
  8
0
 10
123.649
 20
352.996
 11
123.197
 21
352.817
  0
LINE
  8
0
 10
123.197
 20
352.817
 11
122.726
 21
352.696
  0
LINE
  8
0
 10
122.726
 20
352.696
 11
122.243
 21
352.635
  0
LINE
  8
0
 10
122.243
 20
352.635
 11
-122.243
 21
352.635
  0
LINE
  8
0
 10
123.437
 20
252.089
 11
124.045
 21
252.245
  0
LINE
  8
0
 10
124.045
 20
252.245
 11
124.629
 21
252.476
  0
LINE
  8
0
 10
124.629
 20
252.476
 11
125.179
 21
252.778
  0
LINE
  8
0
 10
125.179
 20
252.778
 11
125.687
 21
253.147
  0
LINE
  8
0
 10
125.687
 20
253.147
 11
126.145
 21
253.577
  0
LINE
  8
0
 10
126.145
 20
253.577
 11
126.545
 21
254.061
  0
LINE
  8
0
 10
126.545
 20
254.061
 11
126.882
 21
254.591
  0
LINE
  8
0
 10
126.882
 20
254.591
 11
127.149
 21
255.159
  0
LINE
  8
0
 10
127.149
 20
255.159
 11
127.343
 21
255.757
  0
LINE
  8
0
 10
127.343
 20
255.757
 11
127.461
 21
256.373
  0
LINE
  8
0
 10
127.461
 20
256.373
 11
127.5
 21
257
  0
LINE
  8
0
 10
127.5
 20
257
 11
127.5
 21
337
  0
LINE
  8
0
 10
127.5
 20
337
 11
127.461
 21
337.627
  0
LINE
  8
0
 10
127.461
 20
337.627
 11
127.343
 21
338.243
  0
LINE
  8
0
 10
127.343
 20
338.243
 11
127.149
 21
338.841
  0
LINE
  8
0
 10
127.149
 20
338.841
 11
126.882
 21
339.409
  0
LINE
  8
0
 10
126.882
 20
339.409
 11
126.545
 21
339.939
  0
LINE
  8
0
 10
126.545
 20
339.939
 11
126.145
 21
340.423
  0
LINE
  8
0
 10
126.145
 20
340.423
 11
125.687
 21
340.853
  0
LINE
  8
0
 10
125.687
 20
340.853
 11
125.179
 21
341.222
  0
LINE
  8
0
 10
125.179
 20
341.222
 11
124.629
 21
341.524
  0
LINE
  8
0
 10
124.629
 20
341.524
 11
124.045
 21
341.755
  0
LINE
  8
0
 10
124.045
 20
341.755
 11
123.437
 21
341.911
  0
LINE
  8
0
 10
123.437
 20
341.911
 11
122.814
 21
341.99
  0
LINE
  8
0
 10
122.814
 20
341.99
 11
-122.814
 21
341.99
  0
LINE
  8
0
 10
-122.814
 20
341.99
 11
-123.437
 21
341.911
  0
LINE
  8
0
 10
-123.437
 20
341.911
 11
-124.045
 21
341.755
  0
LINE
  8
0
 10
-124.045
 20
341.755
 11
-124.629
 21
341.524
  0
LINE
  8
0
 10
-124.629
 20
341.524
 11
-125.179
 21
341.222
  0
LINE
  8
0
 10
-125.179
 20
341.222
 11
-125.687
 21
340.853
  0
LINE
  8
0
 10
-125.687
 20
340.853
 11
-126
 21
340.559
  0
LINE
  8
0
 10
-126
 20
340.559
 11
-126
 21
341.615
  0
LINE
  8
0
 10
-126
 20
341.615
 11
-129
 21
341.615
  0
LINE
  8
0
 10
-129
 20
341.615
 11
-129
 21
252.385
  0
LINE
  8
0
 10
-129
 20
252.385
 11
-126
 21
252.385
  0
LINE
  8
0
 10
-126
 20
252.385
 11
-126
 21
253.441
  0
LINE
  8
0
 10
-126
 20
253.441
 11
-125.687
 21
253.147
  0
LINE
  8
0
 10
-125.687
 20
253.147
 11
-125.179
 21
252.778
  0
LINE
  8
0
 10
-125.179
 20
252.778
 11
-124.629
 21
252.476
  0
LINE
  8
0
 10
-124.629
 20
252.476
 11
-124.045
 21
252.245
  0
LINE
  8
0
 10
-124.045
 20
252.245
 11
-123.437
 21
252.089
  0
LINE
  8
0
 10
-123.437
 20
252.089
 11
-122.814
 21
252.01
  0
LINE
  8
0
 10
-122.814
 20
252.01
 11
122.814
 21
252.01
  0
LINE
  8
0
 10
122.814
 20
252.01
 11
123.437
 21
252.089
  0
LINE
  8
0
 10
-120.151
 20
332.105
 11
-120.45
 21
332.143
  0
LINE
  8
0
 10
-120.45
 20
332.143
 11
-120.742
 21
332.217
  0
LINE
  8
0
 10
-120.742
 20
332.217
 11
-121.022
 21
332.328
  0
LINE
  8
0
 10
-121.022
 20
332.328
 11
-121.286
 21
332.474
  0
LINE
  8
0
 10
-121.286
 20
332.474
 11
-121.53
 21
332.651
  0
LINE
  8
0
 10
-121.53
 20
332.651
 11
-121.75
 21
332.857
  0
LINE
  8
0
 10
-121.75
 20
332.857
 11
-121.942
 21
333.089
  0
LINE
  8
0
 10
-121.942
 20
333.089
 11
-122.103
 21
333.344
  0
LINE
  8
0
 10
-122.103
 20
333.344
 11
-122.231
 21
333.617
  0
LINE
  8
0
 10
-122.231
 20
333.617
 11
-122.325
 21
333.903
  0
LINE
  8
0
 10
-122.325
 20
333.903
 11
-122.381
 21
334.199
  0
LINE
  8
0
 10
-122.381
 20
334.199
 11
-122.4
 21
334.5
  0
LINE
  8
0
 10
-122.4
 20
334.5
 11
-122.381
 21
334.801
  0
LINE
  8
0
 10
-122.381
 20
334.801
 11
-122.325
 21
335.097
  0
LINE
  8
0
 10
-122.325
 20
335.097
 11
-122.231
 21
335.383
  0
LINE
  8
0
 10
-122.231
 20
335.383
 11
-122.103
 21
335.656
  0
LINE
  8
0
 10
-122.103
 20
335.656
 11
-121.942
 21
335.911
  0
LINE
  8
0
 10
-121.942
 20
335.911
 11
-121.75
 21
336.143
  0
LINE
  8
0
 10
-121.75
 20
336.143
 11
-121.53
 21
336.349
  0
LINE
  8
0
 10
-121.53
 20
336.349
 11
-121.286
 21
336.526
  0
LINE
  8
0
 10
-121.286
 20
336.526
 11
-121.022
 21
336.672
  0
LINE
  8
0
 10
-121.022
 20
336.672
 11
-120.742
 21
336.783
  0
LINE
  8
0
 10
-120.742
 20
336.783
 11
-120.45
 21
336.857
  0
LINE
  8
0
 10
-120.45
 20
336.857
 11
-120.151
 21
336.895
  0
LINE
  8
0
 10
-120.151
 20
336.895
 11
-119.849
 21
336.895
  0
LINE
  8
0
 10
-119.849
 20
336.895
 11
-119.55
 21
336.857
  0
LINE
  8
0
 10
-119.55
 20
336.857
 11
-119.258
 21
336.783
  0
LINE
  8
0
 10
-119.258
 20
336.783
 11
-118.978
 21
336.672
  0
LINE
  8
0
 10
-118.978
 20
336.672
 11
-118.714
 21
336.526
  0
LINE
  8
0
 10
-118.714
 20
336.526
 11
-118.47
 21
336.349
  0
LINE
  8
0
 10
-118.47
 20
336.349
 11
-118.25
 21
336.143
  0
LINE
  8
0
 10
-118.25
 20
336.143
 11
-118.058
 21
335.911
  0
LINE
  8
0
 10
-118.058
 20
335.911
 11
-117.897
 21
335.656
  0
LINE
  8
0
 10
-117.897
 20
335.656
 11
-117.769
 21
335.383
  0
LINE
  8
0
 10
-117.769
 20
335.383
 11
-117.675
 21
335.097
  0
LINE
  8
0
 10
-117.675
 20
335.097
 11
-117.619
 21
334.801
  0
LINE
  8
0
 10
-117.619
 20
334.801
 11
-117.6
 21
334.5
  0
LINE
  8
0
 10
-117.6
 20
334.5
 11
-117.619
 21
334.199
  0
LINE
  8
0
 10
-117.619
 20
334.199
 11
-117.675
 21
333.903
  0
LINE
  8
0
 10
-117.675
 20
333.903
 11
-117.769
 21
333.617
  0
LINE
  8
0
 10
-117.769
 20
333.617
 11
-117.897
 21
333.344
  0
LINE
  8
0
 10
-117.897
 20
333.344
 11
-118.058
 21
333.089
  0
LINE
  8
0
 10
-118.058
 20
333.089
 11
-118.25
 21
332.857
  0
LINE
  8
0
 10
-118.25
 20
332.857
 11
-118.47
 21
332.651
  0
LINE
  8
0
 10
-118.47
 20
332.651
 11
-118.714
 21
332.474
  0
LINE
  8
0
 10
-118.714
 20
332.474
 11
-118.978
 21
332.328
  0
LINE
  8
0
 10
-118.978
 20
332.328
 11
-119.258
 21
332.217
  0
LINE
  8
0
 10
-119.258
 20
332.217
 11
-119.55
 21
332.143
  0
LINE
  8
0
 10
-119.55
 20
332.143
 11
-119.849
 21
332.105
  0
LINE
  8
0
 10
-119.849
 20
332.105
 11
-120.151
 21
332.105
  0
LINE
  8
0
 10
119.849
 20
332.105
 11
119.55
 21
332.143
  0
LINE
  8
0
 10
119.55
 20
332.143
 11
119.258
 21
332.217
  0
LINE
  8
0
 10
119.258
 20
332.217
 11
118.978
 21
332.328
  0
LINE
  8
0
 10
118.978
 20
332.328
 11
118.714
 21
332.474
  0
LINE
  8
0
 10
118.714
 20
332.474
 11
118.47
 21
332.651
  0
LINE
  8
0
 10
118.47
 20
332.651
 11
118.25
 21
332.857
  0
LINE
  8
0
 10
118.25
 20
332.857
 11
118.058
 21
333.089
  0
LINE
  8
0
 10
118.058
 20
333.089
 11
117.897
 21
333.344
  0
LINE
  8
0
 10
117.897
 20
333.344
 11
117.769
 21
333.617
  0
LINE
  8
0
 10
117.769
 20
333.617
 11
117.675
 21
333.903
  0
LINE
  8
0
 10
117.675
 20
333.903
 11
117.619
 21
334.199
  0
LINE
  8
0
 10
117.619
 20
334.199
 11
117.6
 21
334.5
  0
LINE
  8
0
 10
117.6
 20
334.5
 11
117.619
 21
334.801
  0
LINE
  8
0
 10
117.619
 20
334.801
 11
117.675
 21
335.097
  0
LINE
  8
0
 10
117.675
 20
335.097
 11
117.769
 21
335.383
  0
LINE
  8
0
 10
117.769
 20
335.383
 11
117.897
 21
335.656
  0
LINE
  8
0
 10
117.897
 20
335.656
 11
118.058
 21
335.911
  0
LINE
  8
0
 10
118.058
 20
335.911
 11
118.25
 21
336.143
  0
LINE
  8
0
 10
118.25
 20
336.143
 11
118.47
 21
336.349
  0
LINE
  8
0
 10
118.47
 20
336.349
 11
118.714
 21
336.526
  0
LINE
  8
0
 10
118.714
 20
336.526
 11
118.978
 21
336.672
  0
LINE
  8
0
 10
118.978
 20
336.672
 11
119.258
 21
336.783
  0
LINE
  8
0
 10
119.258
 20
336.783
 11
119.55
 21
336.857
  0
LINE
  8
0
 10
119.55
 20
336.857
 11
119.849
 21
336.895
  0
LINE
  8
0
 10
119.849
 20
336.895
 11
120.151
 21
336.895
  0
LINE
  8
0
 10
120.151
 20
336.895
 11
120.45
 21
336.857
  0
LINE
  8
0
 10
120.45
 20
336.857
 11
120.742
 21
336.783
  0
LINE
  8
0
 10
120.742
 20
336.783
 11
121.022
 21
336.672
  0
LINE
  8
0
 10
121.022
 20
336.672
 11
121.286
 21
336.526
  0
LINE
  8
0
 10
121.286
 20
336.526
 11
121.53
 21
336.349
  0
LINE
  8
0
 10
121.53
 20
336.349
 11
121.75
 21
336.143
  0
LINE
  8
0
 10
121.75
 20
336.143
 11
121.942
 21
335.911
  0
LINE
  8
0
 10
121.942
 20
335.911
 11
122.103
 21
335.656
  0
LINE
  8
0
 10
122.103
 20
335.656
 11
122.231
 21
335.383
  0
LINE
  8
0
 10
122.231
 20
335.383
 11
122.325
 21
335.097
  0
LINE
  8
0
 10
122.325
 20
335.097
 11
122.381
 21
334.801
  0
LINE
  8
0
 10
122.381
 20
334.801
 11
122.4
 21
334.5
  0
LINE
  8
0
 10
122.4
 20
334.5
 11
122.381
 21
334.199
  0
LINE
  8
0
 10
122.381
 20
334.199
 11
122.325
 21
333.903
  0
LINE
  8
0
 10
122.325
 20
333.903
 11
122.231
 21
333.617
  0
LINE
  8
0
 10
122.231
 20
333.617
 11
122.103
 21
333.344
  0
LINE
  8
0
 10
122.103
 20
333.344
 11
121.942
 21
333.089
  0
LINE
  8
0
 10
121.942
 20
333.089
 11
121.75
 21
332.857
  0
LINE
  8
0
 10
121.75
 20
332.857
 11
121.53
 21
332.651
  0
LINE
  8
0
 10
121.53
 20
332.651
 11
121.286
 21
332.474
  0
LINE
  8
0
 10
121.286
 20
332.474
 11
121.022
 21
332.328
  0
LINE
  8
0
 10
121.022
 20
332.328
 11
120.742
 21
332.217
  0
LINE
  8
0
 10
120.742
 20
332.217
 11
120.45
 21
332.143
  0
LINE
  8
0
 10
120.45
 20
332.143
 11
120.151
 21
332.105
  0
LINE
  8
0
 10
120.151
 20
332.105
 11
119.849
 21
332.105
  0
LINE
  8
0
 10
119.849
 20
257.105
 11
119.55
 21
257.143
  0
LINE
  8
0
 10
119.55
 20
257.143
 11
119.258
 21
257.217
  0
LINE
  8
0
 10
119.258
 20
257.217
 11
118.978
 21
257.328
  0
LINE
  8
0
 10
118.978
 20
257.328
 11
118.714
 21
257.474
  0
LINE
  8
0
 10
118.714
 20
257.474
 11
118.47
 21
257.651
  0
LINE
  8
0
 10
118.47
 20
257.651
 11
118.25
 21
257.857
  0
LINE
  8
0
 10
118.25
 20
257.857
 11
118.058
 21
258.089
  0
LINE
  8
0
 10
118.058
 20
258.089
 11
117.897
 21
258.344
  0
LINE
  8
0
 10
117.897
 20
258.344
 11
117.769
 21
258.617
  0
LINE
  8
0
 10
117.769
 20
258.617
 11
117.675
 21
258.903
  0
LINE
  8
0
 10
117.675
 20
258.903
 11
117.619
 21
259.199
  0
LINE
  8
0
 10
117.619
 20
259.199
 11
117.6
 21
259.5
  0
LINE
  8
0
 10
117.6
 20
259.5
 11
117.619
 21
259.801
  0
LINE
  8
0
 10
117.619
 20
259.801
 11
117.675
 21
260.097
  0
LINE
  8
0
 10
117.675
 20
260.097
 11
117.769
 21
260.383
  0
LINE
  8
0
 10
117.769
 20
260.383
 11
117.897
 21
260.656
  0
LINE
  8
0
 10
117.897
 20
260.656
 11
118.058
 21
260.911
  0
LINE
  8
0
 10
118.058
 20
260.911
 11
118.25
 21
261.143
  0
LINE
  8
0
 10
118.25
 20
261.143
 11
118.47
 21
261.349
  0
LINE
  8
0
 10
118.47
 20
261.349
 11
118.714
 21
261.526
  0
LINE
  8
0
 10
118.714
 20
261.526
 11
118.978
 21
261.672
  0
LINE
  8
0
 10
118.978
 20
261.672
 11
119.258
 21
261.783
  0
LINE
  8
0
 10
119.258
 20
261.783
 11
119.55
 21
261.857
  0
LINE
  8
0
 10
119.55
 20
261.857
 11
119.849
 21
261.895
  0
LINE
  8
0
 10
119.849
 20
261.895
 11
120.151
 21
261.895
  0
LINE
  8
0
 10
120.151
 20
261.895
 11
120.45
 21
261.857
  0
LINE
  8
0
 10
120.45
 20
261.857
 11
120.742
 21
261.783
  0
LINE
  8
0
 10
120.742
 20
261.783
 11
121.022
 21
261.672
  0
LINE
  8
0
 10
121.022
 20
261.672
 11
121.286
 21
261.526
  0
LINE
  8
0
 10
121.286
 20
261.526
 11
121.53
 21
261.349
  0
LINE
  8
0
 10
121.53
 20
261.349
 11
121.75
 21
261.143
  0
LINE
  8
0
 10
121.75
 20
261.143
 11
121.942
 21
260.911
  0
LINE
  8
0
 10
121.942
 20
260.911
 11
122.103
 21
260.656
  0
LINE
  8
0
 10
122.103
 20
260.656
 11
122.231
 21
260.383
  0
LINE
  8
0
 10
122.231
 20
260.383
 11
122.325
 21
260.097
  0
LINE
  8
0
 10
122.325
 20
260.097
 11
122.381
 21
259.801
  0
LINE
  8
0
 10
122.381
 20
259.801
 11
122.4
 21
259.5
  0
LINE
  8
0
 10
122.4
 20
259.5
 11
122.381
 21
259.199
  0
LINE
  8
0
 10
122.381
 20
259.199
 11
122.325
 21
258.903
  0
LINE
  8
0
 10
122.325
 20
258.903
 11
122.231
 21
258.617
  0
LINE
  8
0
 10
122.231
 20
258.617
 11
122.103
 21
258.344
  0
LINE
  8
0
 10
122.103
 20
258.344
 11
121.942
 21
258.089
  0
LINE
  8
0
 10
121.942
 20
258.089
 11
121.75
 21
257.857
  0
LINE
  8
0
 10
121.75
 20
257.857
 11
121.53
 21
257.651
  0
LINE
  8
0
 10
121.53
 20
257.651
 11
121.286
 21
257.474
  0
LINE
  8
0
 10
121.286
 20
257.474
 11
121.022
 21
257.328
  0
LINE
  8
0
 10
121.022
 20
257.328
 11
120.742
 21
257.217
  0
LINE
  8
0
 10
120.742
 20
257.217
 11
120.45
 21
257.143
  0
LINE
  8
0
 10
120.45
 20
257.143
 11
120.151
 21
257.105
  0
LINE
  8
0
 10
120.151
 20
257.105
 11
119.849
 21
257.105
  0
LINE
  8
0
 10
-120.151
 20
257.105
 11
-120.45
 21
257.143
  0
LINE
  8
0
 10
-120.45
 20
257.143
 11
-120.742
 21
257.217
  0
LINE
  8
0
 10
-120.742
 20
257.217
 11
-121.022
 21
257.328
  0
LINE
  8
0
 10
-121.022
 20
257.328
 11
-121.286
 21
257.474
  0
LINE
  8
0
 10
-121.286
 20
257.474
 11
-121.53
 21
257.651
  0
LINE
  8
0
 10
-121.53
 20
257.651
 11
-121.75
 21
257.857
  0
LINE
  8
0
 10
-121.75
 20
257.857
 11
-121.942
 21
258.089
  0
LINE
  8
0
 10
-121.942
 20
258.089
 11
-122.103
 21
258.344
  0
LINE
  8
0
 10
-122.103
 20
258.344
 11
-122.231
 21
258.617
  0
LINE
  8
0
 10
-122.231
 20
258.617
 11
-122.325
 21
258.903
  0
LINE
  8
0
 10
-122.325
 20
258.903
 11
-122.381
 21
259.199
  0
LINE
  8
0
 10
-122.381
 20
259.199
 11
-122.4
 21
259.5
  0
LINE
  8
0
 10
-122.4
 20
259.5
 11
-122.381
 21
259.801
  0
LINE
  8
0
 10
-122.381
 20
259.801
 11
-122.325
 21
260.097
  0
LINE
  8
0
 10
-122.325
 20
260.097
 11
-122.231
 21
260.383
  0
LINE
  8
0
 10
-122.231
 20
260.383
 11
-122.103
 21
260.656
  0
LINE
  8
0
 10
-122.103
 20
260.656
 11
-121.942
 21
260.911
  0
LINE
  8
0
 10
-121.942
 20
260.911
 11
-121.75
 21
261.143
  0
LINE
  8
0
 10
-121.75
 20
261.143
 11
-121.53
 21
261.349
  0
LINE
  8
0
 10
-121.53
 20
261.349
 11
-121.286
 21
261.526
  0
LINE
  8
0
 10
-121.286
 20
261.526
 11
-121.022
 21
261.672
  0
LINE
  8
0
 10
-121.022
 20
261.672
 11
-120.742
 21
261.783
  0
LINE
  8
0
 10
-120.742
 20
261.783
 11
-120.45
 21
261.857
  0
LINE
  8
0
 10
-120.45
 20
261.857
 11
-120.151
 21
261.895
  0
LINE
  8
0
 10
-120.151
 20
261.895
 11
-119.849
 21
261.895
  0
LINE
  8
0
 10
-119.849
 20
261.895
 11
-119.55
 21
261.857
  0
LINE
  8
0
 10
-119.55
 20
261.857
 11
-119.258
 21
261.783
  0
LINE
  8
0
 10
-119.258
 20
261.783
 11
-118.978
 21
261.672
  0
LINE
  8
0
 10
-118.978
 20
261.672
 11
-118.714
 21
261.526
  0
LINE
  8
0
 10
-118.714
 20
261.526
 11
-118.47
 21
261.349
  0
LINE
  8
0
 10
-118.47
 20
261.349
 11
-118.25
 21
261.143
  0
LINE
  8
0
 10
-118.25
 20
261.143
 11
-118.058
 21
260.911
  0
LINE
  8
0
 10
-118.058
 20
260.911
 11
-117.897
 21
260.656
  0
LINE
  8
0
 10
-117.897
 20
260.656
 11
-117.769
 21
260.383
  0
LINE
  8
0
 10
-117.769
 20
260.383
 11
-117.675
 21
260.097
  0
LINE
  8
0
 10
-117.675
 20
260.097
 11
-117.619
 21
259.801
  0
LINE
  8
0
 10
-117.619
 20
259.801
 11
-117.6
 21
259.5
  0
LINE
  8
0
 10
-117.6
 20
259.5
 11
-117.619
 21
259.199
  0
LINE
  8
0
 10
-117.619
 20
259.199
 11
-117.675
 21
258.903
  0
LINE
  8
0
 10
-117.675
 20
258.903
 11
-117.769
 21
258.617
  0
LINE
  8
0
 10
-117.769
 20
258.617
 11
-117.897
 21
258.344
  0
LINE
  8
0
 10
-117.897
 20
258.344
 11
-118.058
 21
258.089
  0
LINE
  8
0
 10
-118.058
 20
258.089
 11
-118.25
 21
257.857
  0
LINE
  8
0
 10
-118.25
 20
257.857
 11
-118.47
 21
257.651
  0
LINE
  8
0
 10
-118.47
 20
257.651
 11
-118.714
 21
257.474
  0
LINE
  8
0
 10
-118.714
 20
257.474
 11
-118.978
 21
257.328
  0
LINE
  8
0
 10
-118.978
 20
257.328
 11
-119.258
 21
257.217
  0
LINE
  8
0
 10
-119.258
 20
257.217
 11
-119.55
 21
257.143
  0
LINE
  8
0
 10
-119.55
 20
257.143
 11
-119.849
 21
257.105
  0
LINE
  8
0
 10
-119.849
 20
257.105
 11
-120.151
 21
257.105
  0
LINE
  8
0
 10
123.437
 20
153.089
 11
124.045
 21
153.245
  0
LINE
  8
0
 10
124.045
 20
153.245
 11
124.629
 21
153.476
  0
LINE
  8
0
 10
124.629
 20
153.476
 11
125.179
 21
153.778
  0
LINE
  8
0
 10
125.179
 20
153.778
 11
125.687
 21
154.147
  0
LINE
  8
0
 10
125.687
 20
154.147
 11
126.145
 21
154.577
  0
LINE
  8
0
 10
126.145
 20
154.577
 11
126.545
 21
155.061
  0
LINE
  8
0
 10
126.545
 20
155.061
 11
126.882
 21
155.591
  0
LINE
  8
0
 10
126.882
 20
155.591
 11
127.149
 21
156.159
  0
LINE
  8
0
 10
127.149
 20
156.159
 11
127.343
 21
156.757
  0
LINE
  8
0
 10
127.343
 20
156.757
 11
127.461
 21
157.373
  0
LINE
  8
0
 10
127.461
 20
157.373
 11
127.5
 21
158
  0
LINE
  8
0
 10
127.5
 20
158
 11
127.5
 21
238
  0
LINE
  8
0
 10
127.5
 20
238
 11
127.461
 21
238.627
  0
LINE
  8
0
 10
127.461
 20
238.627
 11
127.343
 21
239.243
  0
LINE
  8
0
 10
127.343
 20
239.243
 11
127.149
 21
239.841
  0
LINE
  8
0
 10
127.149
 20
239.841
 11
126.882
 21
240.409
  0
LINE
  8
0
 10
126.882
 20
240.409
 11
126.545
 21
240.939
  0
LINE
  8
0
 10
126.545
 20
240.939
 11
126.145
 21
241.423
  0
LINE
  8
0
 10
126.145
 20
241.423
 11
125.687
 21
241.853
  0
LINE
  8
0
 10
125.687
 20
241.853
 11
125.179
 21
242.222
  0
LINE
  8
0
 10
125.179
 20
242.222
 11
124.629
 21
242.524
  0
LINE
  8
0
 10
124.629
 20
242.524
 11
124.045
 21
242.755
  0
LINE
  8
0
 10
124.045
 20
242.755
 11
123.437
 21
242.911
  0
LINE
  8
0
 10
123.437
 20
242.911
 11
122.814
 21
242.99
  0
LINE
  8
0
 10
122.814
 20
242.99
 11
-122.814
 21
242.99
  0
LINE
  8
0
 10
-122.814
 20
242.99
 11
-123.437
 21
242.911
  0
LINE
  8
0
 10
-123.437
 20
242.911
 11
-124.045
 21
242.755
  0
LINE
  8
0
 10
-124.045
 20
242.755
 11
-124.629
 21
242.524
  0
LINE
  8
0
 10
-124.629
 20
242.524
 11
-125.179
 21
242.222
  0
LINE
  8
0
 10
-125.179
 20
242.222
 11
-125.687
 21
241.853
  0
LINE
  8
0
 10
-125.687
 20
241.853
 11
-126.145
 21
241.423
  0
LINE
  8
0
 10
-126.145
 20
241.423
 11
-126.545
 21
240.939
  0
LINE
  8
0
 10
-126.545
 20
240.939
 11
-126.882
 21
240.409
  0
LINE
  8
0
 10
-126.882
 20
240.409
 11
-127.149
 21
239.841
  0
LINE
  8
0
 10
-127.149
 20
239.841
 11
-127.343
 21
239.243
  0
LINE
  8
0
 10
-127.343
 20
239.243
 11
-127.4
 21
238.944
  0
LINE
  8
0
 10
-127.4
 20
238.944
 11
-129
 21
238.944
  0
LINE
  8
0
 10
-129
 20
238.944
 11
-129
 21
157.056
  0
LINE
  8
0
 10
-129
 20
157.056
 11
-127.4
 21
157.056
  0
LINE
  8
0
 10
-127.4
 20
157.056
 11
-127.343
 21
156.757
  0
LINE
  8
0
 10
-127.343
 20
156.757
 11
-127.149
 21
156.159
  0
LINE
  8
0
 10
-127.149
 20
156.159
 11
-126.882
 21
155.591
  0
LINE
  8
0
 10
-126.882
 20
155.591
 11
-126.545
 21
155.061
  0
LINE
  8
0
 10
-126.545
 20
155.061
 11
-126.145
 21
154.577
  0
LINE
  8
0
 10
-126.145
 20
154.577
 11
-125.687
 21
154.147
  0
LINE
  8
0
 10
-125.687
 20
154.147
 11
-125.179
 21
153.778
  0
LINE
  8
0
 10
-125.179
 20
153.778
 11
-124.629
 21
153.476
  0
LINE
  8
0
 10
-124.629
 20
153.476
 11
-124.045
 21
153.245
  0
LINE
  8
0
 10
-124.045
 20
153.245
 11
-123.437
 21
153.089
  0
LINE
  8
0
 10
-123.437
 20
153.089
 11
-122.814
 21
153.01
  0
LINE
  8
0
 10
-122.814
 20
153.01
 11
122.814
 21
153.01
  0
LINE
  8
0
 10
122.814
 20
153.01
 11
123.437
 21
153.089
  0
LINE
  8
0
 10
-120.113
 20
233.704
 11
-120.337
 21
233.732
  0
LINE
  8
0
 10
-120.337
 20
233.732
 11
-120.556
 21
233.788
  0
LINE
  8
0
 10
-120.556
 20
233.788
 11
-120.766
 21
233.871
  0
LINE
  8
0
 10
-120.766
 20
233.871
 11
-120.964
 21
233.98
  0
LINE
  8
0
 10
-120.964
 20
233.98
 11
-121.147
 21
234.113
  0
LINE
  8
0
 10
-121.147
 20
234.113
 11
-121.312
 21
234.268
  0
LINE
  8
0
 10
-121.312
 20
234.268
 11
-121.456
 21
234.442
  0
LINE
  8
0
 10
-121.456
 20
234.442
 11
-121.577
 21
234.633
  0
LINE
  8
0
 10
-121.577
 20
234.633
 11
-121.674
 21
234.837
  0
LINE
  8
0
 10
-121.674
 20
234.837
 11
-121.743
 21
235.052
  0
LINE
  8
0
 10
-121.743
 20
235.052
 11
-121.786
 21
235.274
  0
LINE
  8
0
 10
-121.786
 20
235.274
 11
-121.8
 21
235.5
  0
LINE
  8
0
 10
-121.8
 20
235.5
 11
-121.786
 21
235.726
  0
LINE
  8
0
 10
-121.786
 20
235.726
 11
-121.743
 21
235.948
  0
LINE
  8
0
 10
-121.743
 20
235.948
 11
-121.674
 21
236.163
  0
LINE
  8
0
 10
-121.674
 20
236.163
 11
-121.577
 21
236.367
  0
LINE
  8
0
 10
-121.577
 20
236.367
 11
-121.456
 21
236.558
  0
LINE
  8
0
 10
-121.456
 20
236.558
 11
-121.312
 21
236.732
  0
LINE
  8
0
 10
-121.312
 20
236.732
 11
-121.147
 21
236.887
  0
LINE
  8
0
 10
-121.147
 20
236.887
 11
-120.964
 21
237.02
  0
LINE
  8
0
 10
-120.964
 20
237.02
 11
-120.766
 21
237.129
  0
LINE
  8
0
 10
-120.766
 20
237.129
 11
-120.556
 21
237.212
  0
LINE
  8
0
 10
-120.556
 20
237.212
 11
-120.337
 21
237.268
  0
LINE
  8
0
 10
-120.337
 20
237.268
 11
-120.113
 21
237.296
  0
LINE
  8
0
 10
-120.113
 20
237.296
 11
-119.887
 21
237.296
  0
LINE
  8
0
 10
-119.887
 20
237.296
 11
-119.663
 21
237.268
  0
LINE
  8
0
 10
-119.663
 20
237.268
 11
-119.444
 21
237.212
  0
LINE
  8
0
 10
-119.444
 20
237.212
 11
-119.234
 21
237.129
  0
LINE
  8
0
 10
-119.234
 20
237.129
 11
-119.036
 21
237.02
  0
LINE
  8
0
 10
-119.036
 20
237.02
 11
-118.853
 21
236.887
  0
LINE
  8
0
 10
-118.853
 20
236.887
 11
-118.688
 21
236.732
  0
LINE
  8
0
 10
-118.688
 20
236.732
 11
-118.544
 21
236.558
  0
LINE
  8
0
 10
-118.544
 20
236.558
 11
-118.423
 21
236.367
  0
LINE
  8
0
 10
-118.423
 20
236.367
 11
-118.326
 21
236.163
  0
LINE
  8
0
 10
-118.326
 20
236.163
 11
-118.257
 21
235.948
  0
LINE
  8
0
 10
-118.257
 20
235.948
 11
-118.214
 21
235.726
  0
LINE
  8
0
 10
-118.214
 20
235.726
 11
-118.2
 21
235.5
  0
LINE
  8
0
 10
-118.2
 20
235.5
 11
-118.214
 21
235.274
  0
LINE
  8
0
 10
-118.214
 20
235.274
 11
-118.257
 21
235.052
  0
LINE
  8
0
 10
-118.257
 20
235.052
 11
-118.326
 21
234.837
  0
LINE
  8
0
 10
-118.326
 20
234.837
 11
-118.423
 21
234.633
  0
LINE
  8
0
 10
-118.423
 20
234.633
 11
-118.544
 21
234.442
  0
LINE
  8
0
 10
-118.544
 20
234.442
 11
-118.688
 21
234.268
  0
LINE
  8
0
 10
-118.688
 20
234.268
 11
-118.853
 21
234.113
  0
LINE
  8
0
 10
-118.853
 20
234.113
 11
-119.036
 21
233.98
  0
LINE
  8
0
 10
-119.036
 20
233.98
 11
-119.234
 21
233.871
  0
LINE
  8
0
 10
-119.234
 20
233.871
 11
-119.444
 21
233.788
  0
LINE
  8
0
 10
-119.444
 20
233.788
 11
-119.663
 21
233.732
  0
LINE
  8
0
 10
-119.663
 20
233.732
 11
-119.887
 21
233.704
  0
LINE
  8
0
 10
-119.887
 20
233.704
 11
-120.113
 21
233.704
  0
LINE
  8
0
 10
119.887
 20
233.704
 11
119.663
 21
233.732
  0
LINE
  8
0
 10
119.663
 20
233.732
 11
119.444
 21
233.788
  0
LINE
  8
0
 10
119.444
 20
233.788
 11
119.234
 21
233.871
  0
LINE
  8
0
 10
119.234
 20
233.871
 11
119.036
 21
233.98
  0
LINE
  8
0
 10
119.036
 20
233.98
 11
118.853
 21
234.113
  0
LINE
  8
0
 10
118.853
 20
234.113
 11
118.688
 21
234.268
  0
LINE
  8
0
 10
118.688
 20
234.268
 11
118.544
 21
234.442
  0
LINE
  8
0
 10
118.544
 20
234.442
 11
118.423
 21
234.633
  0
LINE
  8
0
 10
118.423
 20
234.633
 11
118.326
 21
234.837
  0
LINE
  8
0
 10
118.326
 20
234.837
 11
118.257
 21
235.052
  0
LINE
  8
0
 10
118.257
 20
235.052
 11
118.214
 21
235.274
  0
LINE
  8
0
 10
118.214
 20
235.274
 11
118.2
 21
235.5
  0
LINE
  8
0
 10
118.2
 20
235.5
 11
118.214
 21
235.726
  0
LINE
  8
0
 10
118.214
 20
235.726
 11
118.257
 21
235.948
  0
LINE
  8
0
 10
118.257
 20
235.948
 11
118.326
 21
236.163
  0
LINE
  8
0
 10
118.326
 20
236.163
 11
118.423
 21
236.367
  0
LINE
  8
0
 10
118.423
 20
236.367
 11
118.544
 21
236.558
  0
LINE
  8
0
 10
118.544
 20
236.558
 11
118.688
 21
236.732
  0
LINE
  8
0
 10
118.688
 20
236.732
 11
118.853
 21
236.887
  0
LINE
  8
0
 10
118.853
 20
236.887
 11
119.036
 21
237.02
  0
LINE
  8
0
 10
119.036
 20
237.02
 11
119.234
 21
237.129
  0
LINE
  8
0
 10
119.234
 20
237.129
 11
119.444
 21
237.212
  0
LINE
  8
0
 10
119.444
 20
237.212
 11
119.663
 21
237.268
  0
LINE
  8
0
 10
119.663
 20
237.268
 11
119.887
 21
237.296
  0
LINE
  8
0
 10
119.887
 20
237.296
 11
120.113
 21
237.296
  0
LINE
  8
0
 10
120.113
 20
237.296
 11
120.337
 21
237.268
  0
LINE
  8
0
 10
120.337
 20
237.268
 11
120.556
 21
237.212
  0
LINE
  8
0
 10
120.556
 20
237.212
 11
120.766
 21
237.129
  0
LINE
  8
0
 10
120.766
 20
237.129
 11
120.964
 21
237.02
  0
LINE
  8
0
 10
120.964
 20
237.02
 11
121.147
 21
236.887
  0
LINE
  8
0
 10
121.147
 20
236.887
 11
121.312
 21
236.732
  0
LINE
  8
0
 10
121.312
 20
236.732
 11
121.456
 21
236.558
  0
LINE
  8
0
 10
121.456
 20
236.558
 11
121.577
 21
236.367
  0
LINE
  8
0
 10
121.577
 20
236.367
 11
121.674
 21
236.163
  0
LINE
  8
0
 10
121.674
 20
236.163
 11
121.743
 21
235.948
  0
LINE
  8
0
 10
121.743
 20
235.948
 11
121.786
 21
235.726
  0
LINE
  8
0
 10
121.786
 20
235.726
 11
121.8
 21
235.5
  0
LINE
  8
0
 10
121.8
 20
235.5
 11
121.786
 21
235.274
  0
LINE
  8
0
 10
121.786
 20
235.274
 11
121.743
 21
235.052
  0
LINE
  8
0
 10
121.743
 20
235.052
 11
121.674
 21
234.837
  0
LINE
  8
0
 10
121.674
 20
234.837
 11
121.577
 21
234.633
  0
LINE
  8
0
 10
121.577
 20
234.633
 11
121.456
 21
234.442
  0
LINE
  8
0
 10
121.456
 20
234.442
 11
121.312
 21
234.268
  0
LINE
  8
0
 10
121.312
 20
234.268
 11
121.147
 21
234.113
  0
LINE
  8
0
 10
121.147
 20
234.113
 11
120.964
 21
233.98
  0
LINE
  8
0
 10
120.964
 20
233.98
 11
120.766
 21
233.871
  0
LINE
  8
0
 10
120.766
 20
233.871
 11
120.556
 21
233.788
  0
LINE
  8
0
 10
120.556
 20
233.788
 11
120.337
 21
233.732
  0
LINE
  8
0
 10
120.337
 20
233.732
 11
120.113
 21
233.704
  0
LINE
  8
0
 10
120.113
 20
233.704
 11
119.887
 21
233.704
  0
LINE
  8
0
 10
119.887
 20
158.704
 11
119.663
 21
158.732
  0
LINE
  8
0
 10
119.663
 20
158.732
 11
119.444
 21
158.788
  0
LINE
  8
0
 10
119.444
 20
158.788
 11
119.234
 21
158.871
  0
LINE
  8
0
 10
119.234
 20
158.871
 11
119.036
 21
158.98
  0
LINE
  8
0
 10
119.036
 20
158.98
 11
118.853
 21
159.113
  0
LINE
  8
0
 10
118.853
 20
159.113
 11
118.688
 21
159.268
  0
LINE
  8
0
 10
118.688
 20
159.268
 11
118.544
 21
159.442
  0
LINE
  8
0
 10
118.544
 20
159.442
 11
118.423
 21
159.633
  0
LINE
  8
0
 10
118.423
 20
159.633
 11
118.326
 21
159.837
  0
LINE
  8
0
 10
118.326
 20
159.837
 11
118.257
 21
160.052
  0
LINE
  8
0
 10
118.257
 20
160.052
 11
118.214
 21
160.274
  0
LINE
  8
0
 10
118.214
 20
160.274
 11
118.2
 21
160.5
  0
LINE
  8
0
 10
118.2
 20
160.5
 11
118.214
 21
160.726
  0
LINE
  8
0
 10
118.214
 20
160.726
 11
118.257
 21
160.948
  0
LINE
  8
0
 10
118.257
 20
160.948
 11
118.326
 21
161.163
  0
LINE
  8
0
 10
118.326
 20
161.163
 11
118.423
 21
161.367
  0
LINE
  8
0
 10
118.423
 20
161.367
 11
118.544
 21
161.558
  0
LINE
  8
0
 10
118.544
 20
161.558
 11
118.688
 21
161.732
  0
LINE
  8
0
 10
118.688
 20
161.732
 11
118.853
 21
161.887
  0
LINE
  8
0
 10
118.853
 20
161.887
 11
119.036
 21
162.02
  0
LINE
  8
0
 10
119.036
 20
162.02
 11
119.234
 21
162.129
  0
LINE
  8
0
 10
119.234
 20
162.129
 11
119.444
 21
162.212
  0
LINE
  8
0
 10
119.444
 20
162.212
 11
119.663
 21
162.268
  0
LINE
  8
0
 10
119.663
 20
162.268
 11
119.887
 21
162.296
  0
LINE
  8
0
 10
119.887
 20
162.296
 11
120.113
 21
162.296
  0
LINE
  8
0
 10
120.113
 20
162.296
 11
120.337
 21
162.268
  0
LINE
  8
0
 10
120.337
 20
162.268
 11
120.556
 21
162.212
  0
LINE
  8
0
 10
120.556
 20
162.212
 11
120.766
 21
162.129
  0
LINE
  8
0
 10
120.766
 20
162.129
 11
120.964
 21
162.02
  0
LINE
  8
0
 10
120.964
 20
162.02
 11
121.147
 21
161.887
  0
LINE
  8
0
 10
121.147
 20
161.887
 11
121.312
 21
161.732
  0
LINE
  8
0
 10
121.312
 20
161.732
 11
121.456
 21
161.558
  0
LINE
  8
0
 10
121.456
 20
161.558
 11
121.577
 21
161.367
  0
LINE
  8
0
 10
121.577
 20
161.367
 11
121.674
 21
161.163
  0
LINE
  8
0
 10
121.674
 20
161.163
 11
121.743
 21
160.948
  0
LINE
  8
0
 10
121.743
 20
160.948
 11
121.786
 21
160.726
  0
LINE
  8
0
 10
121.786
 20
160.726
 11
121.8
 21
160.5
  0
LINE
  8
0
 10
121.8
 20
160.5
 11
121.786
 21
160.274
  0
LINE
  8
0
 10
121.786
 20
160.274
 11
121.743
 21
160.052
  0
LINE
  8
0
 10
121.743
 20
160.052
 11
121.674
 21
159.837
  0
LINE
  8
0
 10
121.674
 20
159.837
 11
121.577
 21
159.633
  0
LINE
  8
0
 10
121.577
 20
159.633
 11
121.456
 21
159.442
  0
LINE
  8
0
 10
121.456
 20
159.442
 11
121.312
 21
159.268
  0
LINE
  8
0
 10
121.312
 20
159.268
 11
121.147
 21
159.113
  0
LINE
  8
0
 10
121.147
 20
159.113
 11
120.964
 21
158.98
  0
LINE
  8
0
 10
120.964
 20
158.98
 11
120.766
 21
158.871
  0
LINE
  8
0
 10
120.766
 20
158.871
 11
120.556
 21
158.788
  0
LINE
  8
0
 10
120.556
 20
158.788
 11
120.337
 21
158.732
  0
LINE
  8
0
 10
120.337
 20
158.732
 11
120.113
 21
158.704
  0
LINE
  8
0
 10
120.113
 20
158.704
 11
119.887
 21
158.704
  0
LINE
  8
0
 10
-120.113
 20
158.704
 11
-120.337
 21
158.732
  0
LINE
  8
0
 10
-120.337
 20
158.732
 11
-120.556
 21
158.788
  0
LINE
  8
0
 10
-120.556
 20
158.788
 11
-120.766
 21
158.871
  0
LINE
  8
0
 10
-120.766
 20
158.871
 11
-120.964
 21
158.98
  0
LINE
  8
0
 10
-120.964
 20
158.98
 11
-121.147
 21
159.113
  0
LINE
  8
0
 10
-121.147
 20
159.113
 11
-121.312
 21
159.268
  0
LINE
  8
0
 10
-121.312
 20
159.268
 11
-121.456
 21
159.442
  0
LINE
  8
0
 10
-121.456
 20
159.442
 11
-121.577
 21
159.633
  0
LINE
  8
0
 10
-121.577
 20
159.633
 11
-121.674
 21
159.837
  0
LINE
  8
0
 10
-121.674
 20
159.837
 11
-121.743
 21
160.052
  0
LINE
  8
0
 10
-121.743
 20
160.052
 11
-121.786
 21
160.274
  0
LINE
  8
0
 10
-121.786
 20
160.274
 11
-121.8
 21
160.5
  0
LINE
  8
0
 10
-121.8
 20
160.5
 11
-121.786
 21
160.726
  0
LINE
  8
0
 10
-121.786
 20
160.726
 11
-121.743
 21
160.948
  0
LINE
  8
0
 10
-121.743
 20
160.948
 11
-121.674
 21
161.163
  0
LINE
  8
0
 10
-121.674
 20
161.163
 11
-121.577
 21
161.367
  0
LINE
  8
0
 10
-121.577
 20
161.367
 11
-121.456
 21
161.558
  0
LINE
  8
0
 10
-121.456
 20
161.558
 11
-121.312
 21
161.732
  0
LINE
  8
0
 10
-121.312
 20
161.732
 11
-121.147
 21
161.887
  0
LINE
  8
0
 10
-121.147
 20
161.887
 11
-120.964
 21
162.02
  0
LINE
  8
0
 10
-120.964
 20
162.02
 11
-120.766
 21
162.129
  0
LINE
  8
0
 10
-120.766
 20
162.129
 11
-120.556
 21
162.212
  0
LINE
  8
0
 10
-120.556
 20
162.212
 11
-120.337
 21
162.268
  0
LINE
  8
0
 10
-120.337
 20
162.268
 11
-120.113
 21
162.296
  0
LINE
  8
0
 10
-120.113
 20
162.296
 11
-119.887
 21
162.296
  0
LINE
  8
0
 10
-119.887
 20
162.296
 11
-119.663
 21
162.268
  0
LINE
  8
0
 10
-119.663
 20
162.268
 11
-119.444
 21
162.212
  0
LINE
  8
0
 10
-119.444
 20
162.212
 11
-119.234
 21
162.129
  0
LINE
  8
0
 10
-119.234
 20
162.129
 11
-119.036
 21
162.02
  0
LINE
  8
0
 10
-119.036
 20
162.02
 11
-118.853
 21
161.887
  0
LINE
  8
0
 10
-118.853
 20
161.887
 11
-118.688
 21
161.732
  0
LINE
  8
0
 10
-118.688
 20
161.732
 11
-118.544
 21
161.558
  0
LINE
  8
0
 10
-118.544
 20
161.558
 11
-118.423
 21
161.367
  0
LINE
  8
0
 10
-118.423
 20
161.367
 11
-118.326
 21
161.163
  0
LINE
  8
0
 10
-118.326
 20
161.163
 11
-118.257
 21
160.948
  0
LINE
  8
0
 10
-118.257
 20
160.948
 11
-118.214
 21
160.726
  0
LINE
  8
0
 10
-118.214
 20
160.726
 11
-118.2
 21
160.5
  0
LINE
  8
0
 10
-118.2
 20
160.5
 11
-118.214
 21
160.274
  0
LINE
  8
0
 10
-118.214
 20
160.274
 11
-118.257
 21
160.052
  0
LINE
  8
0
 10
-118.257
 20
160.052
 11
-118.326
 21
159.837
  0
LINE
  8
0
 10
-118.326
 20
159.837
 11
-118.423
 21
159.633
  0
LINE
  8
0
 10
-118.423
 20
159.633
 11
-118.544
 21
159.442
  0
LINE
  8
0
 10
-118.544
 20
159.442
 11
-118.688
 21
159.268
  0
LINE
  8
0
 10
-118.688
 20
159.268
 11
-118.853
 21
159.113
  0
LINE
  8
0
 10
-118.853
 20
159.113
 11
-119.036
 21
158.98
  0
LINE
  8
0
 10
-119.036
 20
158.98
 11
-119.234
 21
158.871
  0
LINE
  8
0
 10
-119.234
 20
158.871
 11
-119.444
 21
158.788
  0
LINE
  8
0
 10
-119.444
 20
158.788
 11
-119.663
 21
158.732
  0
LINE
  8
0
 10
-119.663
 20
158.732
 11
-119.887
 21
158.704
  0
LINE
  8
0
 10
-119.887
 20
158.704
 11
-120.113
 21
158.704
  0
ENDSEC
  0
SECTION
  2
OBJECTS
  0
DICTIONARY
  0
ENDSEC
  0
EOF
