<?xml version="1.0" standalone="no"?>
<!DOCTYPE svg PUBLIC "-//W3C//DTD SVG 1.1//EN" "http://www.w3.org/Graphics/SVG/1.1/DTD/svg11.dtd">
<svg width="287mm" height="1881mm" viewBox="-144 -3681 287 1881" xmlns="http://www.w3.org/2000/svg" version="1.1">
<title>OpenSCAD Model</title>
<path d="
M 138.437,-3501.09 L 139.045,-3501.24 L 139.629,-3501.48 L 140.179,-3501.78 L 140.687,-3502.15 L 141.145,-3502.58
 L 141.545,-3503.06 L 141.882,-3503.59 L 142.149,-3504.16 L 142.343,-3504.76 L 142.461,-3505.37 L 142.5,-3506
 L 142.5,-3676 L 142.461,-3676.63 L 142.343,-3677.24 L 142.149,-3677.84 L 141.882,-3678.41 L 141.545,-3678.94
 L 141.145,-3679.42 L 140.687,-3679.85 L 140.179,-3680.22 L 139.629,-3680.52 L 139.045,-3680.76 L 138.437,-3680.91
 L 137.814,-3680.99 L -137.814,-3680.99 L -138.437,-3680.91 L -139.045,-3680.76 L -139.629,-3680.52 L -140.179,-3680.22
 L -140.687,-3679.85 L -141,-3679.56 L -144,-3679.56 L -144,-3502.44 L -141,-3502.44 L -140.687,-3502.15
 L -140.179,-3501.78 L -139.629,-3501.48 L -139.045,-3501.24 L -138.437,-3501.09 L -137.814,-3501.01 L 137.814,-3501.01
 z
M -137.251,-3502.51 L -137.75,-3502.57 L -138.236,-3502.7 L -138.703,-3502.88 L -139.143,-3503.12 L -139.55,-3503.42
 L -139.916,-3503.76 L -140.236,-3504.15 L -140.505,-3504.57 L -140.719,-3505.03 L -140.874,-3505.51 L -140.968,-3506
 L -141,-3506.5 L -141,-3675.5 L -140.968,-3676 L -140.874,-3676.49 L -140.719,-3676.97 L -140.505,-3677.43
 L -140.236,-3677.85 L -139.916,-3678.24 L -139.55,-3678.58 L -139.143,-3678.88 L -138.703,-3679.12 L -138.236,-3679.3
 L -137.75,-3679.43 L -137.251,-3679.49 L 137.251,-3679.49 L 137.75,-3679.43 L 138.236,-3679.3 L 138.703,-3679.12
 L 139.143,-3678.88 L 139.55,-3678.58 L 139.916,-3678.24 L 140.236,-3677.85 L 140.505,-3677.43 L 140.719,-3676.97
 L 140.874,-3676.49 L 140.968,-3676 L 141,-3675.5 L 141,-3506.5 L 140.968,-3506 L 140.874,-3505.51
 L 140.719,-3505.03 L 140.505,-3504.57 L 140.236,-3504.15 L 139.916,-3503.76 L 139.55,-3503.42 L 139.143,-3503.12
 L 138.703,-3502.88 L 138.236,-3502.7 L 137.75,-3502.57 L 137.251,-3502.51 z
M 138.437,-3312.09 L 139.045,-3312.24 L 139.629,-3312.48 L 140.179,-3312.78 L 140.687,-3313.15 L 141.145,-3313.58
 L 141.545,-3314.06 L 141.882,-3314.59 L 142.149,-3315.16 L 142.343,-3315.76 L 142.461,-3316.37 L 142.5,-3317
 L 142.5,-3487 L 142.461,-3487.63 L 142.343,-3488.24 L 142.149,-3488.84 L 141.882,-3489.41 L 141.545,-3489.94
 L 141.145,-3490.42 L 140.687,-3490.85 L 140.179,-3491.22 L 139.629,-3491.52 L 139.045,-3491.76 L 138.437,-3491.91
 L 137.814,-3491.99 L -137.814,-3491.99 L -138.437,-3491.91 L -139.045,-3491.76 L -139.629,-3491.52 L -140.179,-3491.22
 L -140.687,-3490.85 L -141,-3490.56 L -141,-3491.97 L -144,-3491.97 L -144,-3312.03 L -141,-3312.03
 L -141,-3313.44 L -140.687,-3313.15 L -140.179,-3312.78 L -139.629,-3312.48 L -139.045,-3312.24 L -138.437,-3312.09
 L -137.814,-3312.01 L 137.814,-3312.01 z
M -137.251,-3313.51 L -137.75,-3313.57 L -138.236,-3313.7 L -138.703,-3313.88 L -139.143,-3314.12 L -139.55,-3314.42
 L -139.916,-3314.76 L -140.236,-3315.15 L -140.505,-3315.57 L -140.719,-3316.03 L -140.874,-3316.51 L -140.968,-3317
 L -141,-3317.5 L -141,-3486.5 L -140.968,-3487 L -140.874,-3487.49 L -140.719,-3487.97 L -140.505,-3488.43
 L -140.236,-3488.85 L -139.916,-3489.24 L -139.55,-3489.58 L -139.143,-3489.88 L -138.703,-3490.12 L -138.236,-3490.3
 L -137.75,-3490.43 L -137.251,-3490.49 L 137.251,-3490.49 L 137.75,-3490.43 L 138.236,-3490.3 L 138.703,-3490.12
 L 139.143,-3489.88 L 139.55,-3489.58 L 139.916,-3489.24 L 140.236,-3488.85 L 140.505,-3488.43 L 140.719,-3487.97
 L 140.874,-3487.49 L 140.968,-3487 L 141,-3486.5 L 141,-3317.5 L 140.968,-3317 L 140.874,-3316.51
 L 140.719,-3316.03 L 140.505,-3315.57 L 140.236,-3315.15 L 139.916,-3314.76 L 139.55,-3314.42 L 139.143,-3314.12
 L 138.703,-3313.88 L 138.236,-3313.7 L 137.75,-3313.57 L 137.251,-3313.51 z
M -141,-3124.44 L -140.687,-3124.15 L -140.179,-3123.78 L -139.629,-3123.48 L -139.045,-3123.24 L -138.437,-3123.09
 L -137.814,-3123.01 L 137.814,-3123.01 L 138.437,-3123.09 L 139.045,-3123.24 L 139.629,-3123.48 L 140.179,-3123.78
 L 140.687,-3124.15 L 141.145,-3124.58 L 141.545,-3125.06 L 141.882,-3125.59 L 142.149,-3126.16 L 142.343,-3126.76
 L 142.461,-3127.37 L 142.5,-3128 L 142.5,-3298 L 142.461,-3298.63 L 142.343,-3299.24 L 142.149,-3299.84
 L 141.882,-3300.41 L 141.545,-3300.94 L 141.145,-3301.42 L 140.687,-3301.85 L 140.179,-3302.22 L 139.629,-3302.52
 L 139.045,-3302.76 L 138.437,-3302.91 L 137.814,-3302.99 L -137.814,-3302.99 L -138.437,-3302.91 L -139.045,-3302.76
 L -139.629,-3302.52 L -140.179,-3302.22 L -140.687,-3301.85 L -141,-3301.56 L -141,-3302.99 L -144,-3302.99
 L -144,-3298.49 L -140.874,-3298.49 L -140.874,-3298.49 L -140.719,-3298.97 L -140.505,-3299.43 L -140.236,-3299.85
 L -139.916,-3300.24 L -139.55,-3300.58 L -139.143,-3300.88 L -138.703,-3301.12 L -138.236,-3301.3 L -137.75,-3301.43
 L -137.251,-3301.49 L 137.251,-3301.49 L 137.75,-3301.43 L 138.236,-3301.3 L 138.703,-3301.12 L 139.143,-3300.88
 L 139.55,-3300.58 L 139.916,-3300.24 L 140.236,-3299.85 L 140.505,-3299.43 L 140.719,-3298.97 L 140.874,-3298.49
 L 140.968,-3298 L 141,-3297.5 L 141,-3128.5 L 140.968,-3128 L 140.874,-3127.51 L 140.719,-3127.03
 L 140.505,-3126.57 L 140.236,-3126.15 L 139.916,-3125.76 L 139.55,-3125.42 L 139.143,-3125.12 L 138.703,-3124.88
 L 138.236,-3124.7 L 137.75,-3124.57 L 137.251,-3124.51 L -137.251,-3124.51 L -137.75,-3124.57 L -138.236,-3124.7
 L -138.703,-3124.88 L -139.143,-3125.12 L -139.55,-3125.42 L -139.916,-3125.76 L -140.236,-3126.15 L -140.505,-3126.57
 L -140.719,-3127.03 L -140.874,-3127.51 L -140.874,-3127.51 L -144,-3127.51 L -144,-3123.01 L -141,-3123.01
 z
M -141,-3292.51 L -144,-3292.51 L -144,-3283.49 L -141,-3283.49 z
M -141,-3277.51 L -144,-3277.51 L -144,-3268.49 L -141,-3268.49 z
M -141,-3262.51 L -144,-3262.51 L -144,-3253.49 L -141,-3253.49 z
M -141,-3247.51 L -144,-3247.51 L -144,-3238.49 L -141,-3238.49 z
M -141,-3232.51 L -144,-3232.51 L -144,-3223.49 L -141,-3223.49 z
M -141,-3217.51 L -144,-3217.51 L -144,-3208.49 L -141,-3208.49 z
M -141,-3202.51 L -144,-3202.51 L -144,-3193.49 L -141,-3193.49 z
M -141,-3187.51 L -144,-3187.51 L -144,-3178.49 L -141,-3178.49 z
M -141,-3172.51 L -144,-3172.51 L -144,-3163.49 L -141,-3163.49 z
M -141,-3157.51 L -144,-3157.51 L -144,-3148.49 L -141,-3148.49 z
M -141,-3142.51 L -144,-3142.51 L -144,-3133.49 L -141,-3133.49 z
M -141,-2935.44 L -140.687,-2935.15 L -140.179,-2934.78 L -139.629,-2934.48 L -139.045,-2934.24 L -138.437,-2934.09
 L -137.814,-2934.01 L 137.814,-2934.01 L 138.437,-2934.09 L 139.045,-2934.24 L 139.629,-2934.48 L 140.179,-2934.78
 L 140.687,-2935.15 L 141.145,-2935.58 L 141.545,-2936.06 L 141.882,-2936.59 L 142.149,-2937.16 L 142.343,-2937.76
 L 142.461,-2938.37 L 142.5,-2939 L 142.5,-3109 L 142.461,-3109.63 L 142.343,-3110.24 L 142.149,-3110.84
 L 141.882,-3111.41 L 141.545,-3111.94 L 141.145,-3112.42 L 140.687,-3112.85 L 140.179,-3113.22 L 139.629,-3113.52
 L 139.045,-3113.76 L 138.437,-3113.91 L 137.814,-3113.99 L -137.814,-3113.99 L -138.437,-3113.91 L -139.045,-3113.76
 L -139.629,-3113.52 L -140.179,-3113.22 L -140.687,-3112.85 L -141,-3112.56 L -141,-3113.99 L -144,-3113.99
 L -144,-2934.01 L -141,-2934.01 z
M -137.251,-2935.51 L -137.75,-2935.57 L -138.236,-2935.7 L -138.703,-2935.88 L -139.143,-2936.12 L -139.55,-2936.42
 L -139.916,-2936.76 L -140.236,-2937.15 L -140.505,-2937.57 L -140.719,-2938.03 L -140.874,-2938.51 L -140.968,-2939
 L -141,-2939.5 L -141,-3108.5 L -140.968,-3109 L -140.874,-3109.49 L -140.719,-3109.97 L -140.505,-3110.43
 L -140.236,-3110.85 L -139.916,-3111.24 L -139.55,-3111.58 L -139.143,-3111.88 L -138.703,-3112.12 L -138.236,-3112.3
 L -137.75,-3112.43 L -137.251,-3112.49 L 137.251,-3112.49 L 137.75,-3112.43 L 138.236,-3112.3 L 138.703,-3112.12
 L 139.143,-3111.88 L 139.55,-3111.58 L 139.916,-3111.24 L 140.236,-3110.85 L 140.505,-3110.43 L 140.719,-3109.97
 L 140.874,-3109.49 L 140.968,-3109 L 141,-3108.5 L 141,-2939.5 L 140.968,-2939 L 140.874,-2938.51
 L 140.719,-2938.03 L 140.505,-2937.57 L 140.236,-2937.15 L 139.916,-2936.76 L 139.55,-2936.42 L 139.143,-2936.12
 L 138.703,-2935.88 L 138.236,-2935.7 L 137.75,-2935.57 L 137.251,-2935.51 z
M -141,-2746.44 L -140.687,-2746.15 L -140.179,-2745.78 L -139.629,-2745.48 L -139.045,-2745.24 L -138.437,-2745.09
 L -137.814,-2745.01 L 137.814,-2745.01 L 138.437,-2745.09 L 139.045,-2745.24 L 139.629,-2745.48 L 140.179,-2745.78
 L 140.687,-2746.15 L 141.145,-2746.58 L 141.545,-2747.06 L 141.882,-2747.59 L 142.149,-2748.16 L 142.343,-2748.76
 L 142.461,-2749.37 L 142.5,-2750 L 142.5,-2920 L 142.461,-2920.63 L 142.343,-2921.24 L 142.149,-2921.84
 L 141.882,-2922.41 L 141.545,-2922.94 L 141.145,-2923.42 L 140.687,-2923.85 L 140.179,-2924.22 L 139.629,-2924.52
 L 139.045,-2924.76 L 138.437,-2924.91 L 137.814,-2924.99 L -137.814,-2924.99 L -138.437,-2924.91 L -139.045,-2924.76
 L -139.629,-2924.52 L -140.179,-2924.22 L -140.687,-2923.85 L -141,-2923.56 L -141,-2924.99 L -144,-2924.99
 L -144,-2745.01 L -141,-2745.01 z
M -137.251,-2746.51 L -137.75,-2746.57 L -138.236,-2746.7 L -138.703,-2746.88 L -139.143,-2747.12 L -139.55,-2747.42
 L -139.916,-2747.76 L -140.236,-2748.15 L -140.505,-2748.57 L -140.719,-2749.03 L -140.874,-2749.51 L -140.968,-2750
 L -141,-2750.5 L -141,-2919.5 L -140.968,-2920 L -140.874,-2920.49 L -140.719,-2920.97 L -140.505,-2921.43
 L -140.236,-2921.85 L -139.916,-2922.24 L -139.55,-2922.58 L -139.143,-2922.88 L -138.703,-2923.12 L -138.236,-2923.3
 L -137.75,-2923.43 L -137.251,-2923.49 L 137.251,-2923.49 L 137.75,-2923.43 L 138.236,-2923.3 L 138.703,-2923.12
 L 139.143,-2922.88 L 139.55,-2922.58 L 139.916,-2922.24 L 140.236,-2921.85 L 140.505,-2921.43 L 140.719,-2920.97
 L 140.874,-2920.49 L 140.968,-2920 L 141,-2919.5 L 141,-2750.5 L 140.968,-2750 L 140.874,-2749.51
 L 140.719,-2749.03 L 140.505,-2748.57 L 140.236,-2748.15 L 139.916,-2747.76 L 139.55,-2747.42 L 139.143,-2747.12
 L 138.703,-2746.88 L 138.236,-2746.7 L 137.75,-2746.57 L 137.251,-2746.51 z
M -141,-2557.44 L -140.687,-2557.15 L -140.179,-2556.78 L -139.629,-2556.48 L -139.045,-2556.24 L -138.437,-2556.09
 L -137.814,-2556.01 L 137.814,-2556.01 L 138.437,-2556.09 L 139.045,-2556.24 L 139.629,-2556.48 L 140.179,-2556.78
 L 140.687,-2557.15 L 141.145,-2557.58 L 141.545,-2558.06 L 141.882,-2558.59 L 142.149,-2559.16 L 142.343,-2559.76
 L 142.461,-2560.37 L 142.5,-2561 L 142.5,-2731 L 142.461,-2731.63 L 142.343,-2732.24 L 142.149,-2732.84
 L 141.882,-2733.41 L 141.545,-2733.94 L 141.145,-2734.42 L 140.687,-2734.85 L 140.179,-2735.22 L 139.629,-2735.52
 L 139.045,-2735.76 L 138.437,-2735.91 L 137.814,-2735.99 L -137.814,-2735.99 L -138.437,-2735.91 L -139.045,-2735.76
 L -139.629,-2735.52 L -140.179,-2735.22 L -140.687,-2734.85 L -141,-2734.56 L -141,-2735.99 L -144,-2735.99
 L -144,-2556.01 L -141,-2556.01 z
M -137.251,-2557.51 L -137.75,-2557.57 L -138.236,-2557.7 L -138.703,-2557.88 L -139.143,-2558.12 L -139.55,-2558.42
 L -139.916,-2558.76 L -140.236,-2559.15 L -140.505,-2559.57 L -140.719,-2560.03 L -140.874,-2560.51 L -140.968,-2561
 L -141,-2561.5 L -141,-2730.5 L -140.968,-2731 L -140.874,-2731.49 L -140.719,-2731.97 L -140.505,-2732.43
 L -140.236,-2732.85 L -139.916,-2733.24 L -139.55,-2733.58 L -139.143,-2733.88 L -138.703,-2734.12 L -138.236,-2734.3
 L -137.75,-2734.43 L -137.251,-2734.49 L 137.251,-2734.49 L 137.75,-2734.43 L 138.236,-2734.3 L 138.703,-2734.12
 L 139.143,-2733.88 L 139.55,-2733.58 L 139.916,-2733.24 L 140.236,-2732.85 L 140.505,-2732.43 L 140.719,-2731.97
 L 140.874,-2731.49 L 140.968,-2731 L 141,-2730.5 L 141,-2561.5 L 140.968,-2561 L 140.874,-2560.51
 L 140.719,-2560.03 L 140.505,-2559.57 L 140.236,-2559.15 L 139.916,-2558.76 L 139.55,-2558.42 L 139.143,-2558.12
 L 138.703,-2557.88 L 138.236,-2557.7 L 137.75,-2557.57 L 137.251,-2557.51 z
M -141,-2368.44 L -140.687,-2368.15 L -140.179,-2367.78 L -139.629,-2367.48 L -139.045,-2367.24 L -138.437,-2367.09
 L -137.814,-2367.01 L 137.814,-2367.01 L 138.437,-2367.09 L 139.045,-2367.24 L 139.629,-2367.48 L 140.179,-2367.78
 L 140.687,-2368.15 L 141.145,-2368.58 L 141.545,-2369.06 L 141.882,-2369.59 L 142.149,-2370.16 L 142.343,-2370.76
 L 142.461,-2371.37 L 142.5,-2372 L 142.5,-2542 L 142.461,-2542.63 L 142.343,-2543.24 L 142.149,-2543.84
 L 141.882,-2544.41 L 141.545,-2544.94 L 141.145,-2545.42 L 140.687,-2545.85 L 140.179,-2546.22 L 139.629,-2546.52
 L 139.045,-2546.76 L 138.437,-2546.91 L 137.814,-2546.99 L -137.814,-2546.99 L -138.437,-2546.91 L -139.045,-2546.76
 L -139.629,-2546.52 L -140.179,-2546.22 L -140.687,-2545.85 L -141,-2545.56 L -141,-2546.99 L -144,-2546.99
 L -144,-2367.01 L -141,-2367.01 z
M -137.251,-2368.51 L -137.75,-2368.57 L -138.236,-2368.7 L -138.703,-2368.88 L -139.143,-2369.12 L -139.55,-2369.42
 L -139.916,-2369.76 L -140.236,-2370.15 L -140.505,-2370.57 L -140.719,-2371.03 L -140.874,-2371.51 L -140.968,-2372
 L -141,-2372.5 L -141,-2541.5 L -140.968,-2542 L -140.874,-2542.49 L -140.719,-2542.97 L -140.505,-2543.43
 L -140.236,-2543.85 L -139.916,-2544.24 L -139.55,-2544.58 L -139.143,-2544.88 L -138.703,-2545.12 L -138.236,-2545.3
 L -137.75,-2545.43 L -137.251,-2545.49 L 137.251,-2545.49 L 137.75,-2545.43 L 138.236,-2545.3 L 138.703,-2545.12
 L 139.143,-2544.88 L 139.55,-2544.58 L 139.916,-2544.24 L 140.236,-2543.85 L 140.505,-2543.43 L 140.719,-2542.97
 L 140.874,-2542.49 L 140.968,-2542 L 141,-2541.5 L 141,-2372.5 L 140.968,-2372 L 140.874,-2371.51
 L 140.719,-2371.03 L 140.505,-2370.57 L 140.236,-2370.15 L 139.916,-2369.76 L 139.55,-2369.42 L 139.143,-2369.12
 L 138.703,-2368.88 L 138.236,-2368.7 L 137.75,-2368.57 L 137.251,-2368.51 z
M -141,-2179.44 L -140.687,-2179.15 L -140.179,-2178.78 L -139.629,-2178.48 L -139.045,-2178.24 L -138.437,-2178.09
 L -137.814,-2178.01 L 137.814,-2178.01 L 138.437,-2178.09 L 139.045,-2178.24 L 139.629,-2178.48 L 140.179,-2178.78
 L 140.687,-2179.15 L 141.145,-2179.58 L 141.545,-2180.06 L 141.882,-2180.59 L 142.149,-2181.16 L 142.343,-2181.76
 L 142.461,-2182.37 L 142.5,-2183 L 142.5,-2353 L 142.461,-2353.63 L 142.343,-2354.24 L 142.149,-2354.84
 L 141.882,-2355.41 L 141.545,-2355.94 L 141.145,-2356.42 L 140.687,-2356.85 L 140.179,-2357.22 L 139.629,-2357.52
 L 139.045,-2357.76 L 138.437,-2357.91 L 137.814,-2357.99 L -137.814,-2357.99 L -138.437,-2357.91 L -139.045,-2357.76
 L -139.629,-2357.52 L -140.179,-2357.22 L -140.687,-2356.85 L -141,-2356.56 L -141,-2357.99 L -144,-2357.99
 L -144,-2178.01 L -141,-2178.01 z
M -137.251,-2179.51 L -137.75,-2179.57 L -138.236,-2179.7 L -138.703,-2179.88 L -139.143,-2180.12 L -139.55,-2180.42
 L -139.916,-2180.76 L -140.236,-2181.15 L -140.505,-2181.57 L -140.719,-2182.03 L -140.874,-2182.51 L -140.968,-2183
 L -141,-2183.5 L -141,-2352.5 L -140.968,-2353 L -140.874,-2353.49 L -140.719,-2353.97 L -140.505,-2354.43
 L -140.236,-2354.85 L -139.916,-2355.24 L -139.55,-2355.58 L -139.143,-2355.88 L -138.703,-2356.12 L -138.236,-2356.3
 L -137.75,-2356.43 L -137.251,-2356.49 L 137.251,-2356.49 L 137.75,-2356.43 L 138.236,-2356.3 L 138.703,-2356.12
 L 139.143,-2355.88 L 139.55,-2355.58 L 139.916,-2355.24 L 140.236,-2354.85 L 140.505,-2354.43 L 140.719,-2353.97
 L 140.874,-2353.49 L 140.968,-2353 L 141,-2352.5 L 141,-2183.5 L 140.968,-2183 L 140.874,-2182.51
 L 140.719,-2182.03 L 140.505,-2181.57 L 140.236,-2181.15 L 139.916,-2180.76 L 139.55,-2180.42 L 139.143,-2180.12
 L 138.703,-2179.88 L 138.236,-2179.7 L 137.75,-2179.57 L 137.251,-2179.51 z
M 138.437,-1989.09 L 139.045,-1989.24 L 139.629,-1989.48 L 140.179,-1989.78 L 140.687,-1990.15 L 141.145,-1990.58
 L 141.545,-1991.06 L 141.882,-1991.59 L 142.149,-1992.16 L 142.343,-1992.76 L 142.461,-1993.37 L 142.5,-1994
 L 142.5,-2164 L 142.461,-2164.63 L 142.343,-2165.24 L 142.149,-2165.84 L 141.882,-2166.41 L 141.545,-2166.94
 L 141.145,-2167.42 L 140.687,-2167.85 L 140.179,-2168.22 L 139.629,-2168.52 L 139.045,-2168.76 L 138.437,-2168.91
 L 137.814,-2168.99 L -137.814,-2168.99 L -138.437,-2168.91 L -139.045,-2168.76 L -139.629,-2168.52 L -140.179,-2168.22
 L -140.687,-2167.85 L -141,-2167.56 L -141,-2168.98 L -144,-2168.98 L -144,-1989.02 L -141,-1989.02
 L -141,-1990.44 L -140.687,-1990.15 L -140.179,-1989.78 L -139.629,-1989.48 L -139.045,-1989.24 L -138.437,-1989.09
 L -137.814,-1989.01 L 137.814,-1989.01 z
M -137.195,-1991.39 L -137.583,-1991.44 L -137.962,-1991.54 L -138.325,-1991.68 L -138.668,-1991.87 L -138.984,-1992.1
 L -139.269,-1992.37 L -139.518,-1992.67 L -139.728,-1993 L -139.894,-1993.35 L -140.015,-1993.73 L -140.088,-1994.11
 L -140.113,-1994.5 L -140.113,-2163.5 L -140.088,-2163.89 L -140.015,-2164.27 L -139.894,-2164.65 L -139.728,-2165
 L -139.518,-2165.33 L -139.269,-2165.63 L -138.984,-2165.9 L -138.668,-2166.13 L -138.325,-2166.32 L -137.962,-2166.46
 L -137.583,-2166.56 L -137.195,-2166.61 L 137.195,-2166.61 L 137.583,-2166.56 L 137.962,-2166.46 L 138.325,-2166.32
 L 138.668,-2166.13 L 138.984,-2165.9 L 139.269,-2165.63 L 139.518,-2165.33 L 139.728,-2165 L 139.894,-2164.65
 L 140.015,-2164.27 L 140.088,-2163.89 L 140.113,-2163.5 L 140.113,-1994.5 L 140.088,-1994.11 L 140.015,-1993.73
 L 139.894,-1993.35 L 139.728,-1993 L 139.518,-1992.67 L 139.269,-1992.37 L 138.984,-1992.1 L 138.668,-1991.87
 L 138.325,-1991.68 L 137.962,-1991.54 L 137.583,-1991.44 L 137.195,-1991.39 z
M 138.437,-1800.09 L 139.045,-1800.24 L 139.629,-1800.48 L 140.179,-1800.78 L 140.687,-1801.15 L 141.145,-1801.58
 L 141.545,-1802.06 L 141.882,-1802.59 L 142.149,-1803.16 L 142.343,-1803.76 L 142.461,-1804.37 L 142.5,-1805
 L 142.5,-1975 L 142.461,-1975.63 L 142.343,-1976.24 L 142.149,-1976.84 L 141.882,-1977.41 L 141.545,-1977.94
 L 141.145,-1978.42 L 140.687,-1978.85 L 140.179,-1979.22 L 139.629,-1979.52 L 139.045,-1979.76 L 138.437,-1979.91
 L 137.814,-1979.99 L -137.814,-1979.99 L -138.437,-1979.91 L -139.045,-1979.76 L -139.629,-1979.52 L -140.179,-1979.22
 L -140.687,-1978.85 L -141,-1978.56 L -141,-1978.65 L -144,-1978.65 L -144,-1801.35 L -141,-1801.35
 L -141,-1801.44 L -140.687,-1801.15 L -140.179,-1800.78 L -139.629,-1800.48 L -139.045,-1800.24 L -138.437,-1800.09
 L -137.814,-1800.01 L 137.814,-1800.01 z
M -135.134,-1970.37 L -135.4,-1970.4 L -135.66,-1970.47 L -135.909,-1970.57 L -136.144,-1970.7 L -136.361,-1970.85
 L -136.557,-1971.04 L -136.727,-1971.24 L -136.871,-1971.47 L -136.985,-1971.71 L -137.068,-1971.97 L -137.118,-1972.23
 L -137.135,-1972.5 L -137.118,-1972.77 L -137.068,-1973.03 L -136.985,-1973.29 L -136.871,-1973.53 L -136.727,-1973.76
 L -136.557,-1973.96 L -136.361,-1974.15 L -136.144,-1974.3 L -135.909,-1974.43 L -135.66,-1974.53 L -135.4,-1974.6
 L -135.134,-1974.63 L -134.866,-1974.63 L -134.6,-1974.6 L -134.34,-1974.53 L -134.091,-1974.43 L -133.856,-1974.3
 L -133.639,-1974.15 L -133.443,-1973.96 L -133.273,-1973.76 L -133.129,-1973.53 L -133.015,-1973.29 L -132.932,-1973.03
 L -132.882,-1972.77 L -132.865,-1972.5 L -132.882,-1972.23 L -132.932,-1971.97 L -133.015,-1971.71 L -133.129,-1971.47
 L -133.273,-1971.24 L -133.443,-1971.04 L -133.639,-1970.85 L -133.856,-1970.7 L -134.091,-1970.57 L -134.34,-1970.47
 L -134.6,-1970.4 L -134.866,-1970.37 z
M 134.866,-1970.37 L 134.6,-1970.4 L 134.34,-1970.47 L 134.091,-1970.57 L 133.856,-1970.7 L 133.639,-1970.85
 L 133.443,-1971.04 L 133.273,-1971.24 L 133.129,-1971.47 L 133.015,-1971.71 L 132.932,-1971.97 L 132.882,-1972.23
 L 132.865,-1972.5 L 132.882,-1972.77 L 132.932,-1973.03 L 133.015,-1973.29 L 133.129,-1973.53 L 133.273,-1973.76
 L 133.443,-1973.96 L 133.639,-1974.15 L 133.856,-1974.3 L 134.091,-1974.43 L 134.34,-1974.53 L 134.6,-1974.6
 L 134.866,-1974.63 L 135.134,-1974.63 L 135.4,-1974.6 L 135.66,-1974.53 L 135.909,-1974.43 L 136.144,-1974.3
 L 136.361,-1974.15 L 136.557,-1973.96 L 136.727,-1973.76 L 136.871,-1973.53 L 136.985,-1973.29 L 137.068,-1973.03
 L 137.118,-1972.77 L 137.135,-1972.5 L 137.118,-1972.23 L 137.068,-1971.97 L 136.985,-1971.71 L 136.871,-1971.47
 L 136.727,-1971.24 L 136.557,-1971.04 L 136.361,-1970.85 L 136.144,-1970.7 L 135.909,-1970.57 L 135.66,-1970.47
 L 135.4,-1970.4 L 135.134,-1970.37 z
M -135.134,-1805.37 L -135.4,-1805.4 L -135.66,-1805.47 L -135.909,-1805.57 L -136.144,-1805.7 L -136.361,-1805.85
 L -136.557,-1806.04 L -136.727,-1806.24 L -136.871,-1806.47 L -136.985,-1806.71 L -137.068,-1806.97 L -137.118,-1807.23
 L -137.135,-1807.5 L -137.118,-1807.77 L -137.068,-1808.03 L -136.985,-1808.29 L -136.871,-1808.53 L -136.727,-1808.76
 L -136.557,-1808.96 L -136.361,-1809.15 L -136.144,-1809.3 L -135.909,-1809.43 L -135.66,-1809.53 L -135.4,-1809.6
 L -135.134,-1809.63 L -134.866,-1809.63 L -134.6,-1809.6 L -134.34,-1809.53 L -134.091,-1809.43 L -133.856,-1809.3
 L -133.639,-1809.15 L -133.443,-1808.96 L -133.273,-1808.76 L -133.129,-1808.53 L -133.015,-1808.29 L -132.932,-1808.03
 L -132.882,-1807.77 L -132.865,-1807.5 L -132.882,-1807.23 L -132.932,-1806.97 L -133.015,-1806.71 L -133.129,-1806.47
 L -133.273,-1806.24 L -133.443,-1806.04 L -133.639,-1805.85 L -133.856,-1805.7 L -134.091,-1805.57 L -134.34,-1805.47
 L -134.6,-1805.4 L -134.866,-1805.37 z
M 134.866,-1805.37 L 134.6,-1805.4 L 134.34,-1805.47 L 134.091,-1805.57 L 133.856,-1805.7 L 133.639,-1805.85
 L 133.443,-1806.04 L 133.273,-1806.24 L 133.129,-1806.47 L 133.015,-1806.71 L 132.932,-1806.97 L 132.882,-1807.23
 L 132.865,-1807.5 L 132.882,-1807.77 L 132.932,-1808.03 L 133.015,-1808.29 L 133.129,-1808.53 L 133.273,-1808.76
 L 133.443,-1808.96 L 133.639,-1809.15 L 133.856,-1809.3 L 134.091,-1809.43 L 134.34,-1809.53 L 134.6,-1809.6
 L 134.866,-1809.63 L 135.134,-1809.63 L 135.4,-1809.6 L 135.66,-1809.53 L 135.909,-1809.43 L 136.144,-1809.3
 L 136.361,-1809.15 L 136.557,-1808.96 L 136.727,-1808.76 L 136.871,-1808.53 L 136.985,-1808.29 L 137.068,-1808.03
 L 137.118,-1807.77 L 137.135,-1807.5 L 137.118,-1807.23 L 137.068,-1806.97 L 136.985,-1806.71 L 136.871,-1806.47
 L 136.727,-1806.24 L 136.557,-1806.04 L 136.361,-1805.85 L 136.144,-1805.7 L 135.909,-1805.57 L 135.66,-1805.47
 L 135.4,-1805.4 L 135.134,-1805.37 z
" stroke="black" fill="lightgray" stroke-width="0.5"/>
</svg>
