<?xml version="1.0" standalone="no"?>
<!DOCTYPE svg PUBLIC "-//W3C//DTD SVG 1.1//EN" "http://www.w3.org/Graphics/SVG/1.1/DTD/svg11.dtd">
<svg width="242mm" height="928mm" viewBox="-122 -1751 242 928" xmlns="http://www.w3.org/2000/svg" version="1.1">
<title>OpenSCAD Model</title>
<path d="
M -118.5,-1526.94 L -118.187,-1526.65 L -117.679,-1526.28 L -117.129,-1525.98 L -116.545,-1525.74 L -115.937,-1525.59
 L -115.314,-1525.51 L 115.314,-1525.51 L 115.937,-1525.59 L 116.545,-1525.74 L 117.129,-1525.98 L 117.679,-1526.28
 L 118.187,-1526.65 L 118.645,-1527.08 L 119.045,-1527.56 L 119.382,-1528.09 L 119.649,-1528.66 L 119.843,-1529.26
 L 119.961,-1529.87 L 120,-1530.5 L 120,-1745.5 L 119.961,-1746.13 L 119.843,-1746.74 L 119.649,-1747.34
 L 119.382,-1747.91 L 119.045,-1748.44 L 118.645,-1748.92 L 118.187,-1749.35 L 117.679,-1749.72 L 117.129,-1750.02
 L 116.545,-1750.26 L 115.937,-1750.41 L 115.314,-1750.49 L -115.314,-1750.49 L -115.937,-1750.41 L -116.545,-1750.26
 L -117.129,-1750.02 L -117.679,-1749.72 L -118.187,-1749.35 L -118.5,-1749.06 L -118.5,-1750.49 L -121.5,-1750.49
 L -121.5,-1525.51 L -118.5,-1525.51 z
M -114.751,-1527.01 L -115.25,-1527.07 L -115.736,-1527.2 L -116.203,-1527.38 L -116.643,-1527.62 L -117.05,-1527.92
 L -117.416,-1528.26 L -117.736,-1528.65 L -118.005,-1529.07 L -118.219,-1529.53 L -118.374,-1530.01 L -118.468,-1530.5
 L -118.5,-1531 L -118.5,-1745 L -118.468,-1745.5 L -118.374,-1745.99 L -118.219,-1746.47 L -118.005,-1746.93
 L -117.736,-1747.35 L -117.416,-1747.74 L -117.05,-1748.08 L -116.643,-1748.38 L -116.203,-1748.62 L -115.736,-1748.8
 L -115.25,-1748.93 L -114.751,-1748.99 L 114.751,-1748.99 L 115.25,-1748.93 L 115.736,-1748.8 L 116.203,-1748.62
 L 116.643,-1748.38 L 117.05,-1748.08 L 117.416,-1747.74 L 117.736,-1747.35 L 118.005,-1746.93 L 118.219,-1746.47
 L 118.374,-1745.99 L 118.468,-1745.5 L 118.5,-1745 L 118.5,-1531 L 118.468,-1530.5 L 118.374,-1530.01
 L 118.219,-1529.53 L 118.005,-1529.07 L 117.736,-1528.65 L 117.416,-1528.26 L 117.05,-1527.92 L 116.643,-1527.62
 L 116.203,-1527.38 L 115.736,-1527.2 L 115.25,-1527.07 L 114.751,-1527.01 z
M -118.5,-1292.94 L -118.187,-1292.65 L -117.679,-1292.28 L -117.129,-1291.98 L -116.545,-1291.74 L -115.937,-1291.59
 L -115.314,-1291.51 L 115.314,-1291.51 L 115.937,-1291.59 L 116.545,-1291.74 L 117.129,-1291.98 L 117.679,-1292.28
 L 118.187,-1292.65 L 118.645,-1293.08 L 119.045,-1293.56 L 119.382,-1294.09 L 119.649,-1294.66 L 119.843,-1295.26
 L 119.961,-1295.87 L 120,-1296.5 L 120,-1511.5 L 119.961,-1512.13 L 119.843,-1512.74 L 119.649,-1513.34
 L 119.382,-1513.91 L 119.045,-1514.44 L 118.645,-1514.92 L 118.187,-1515.35 L 117.679,-1515.72 L 117.129,-1516.02
 L 116.545,-1516.26 L 115.937,-1516.41 L 115.314,-1516.49 L -115.314,-1516.49 L -115.937,-1516.41 L -116.545,-1516.26
 L -117.129,-1516.02 L -117.679,-1515.72 L -118.187,-1515.35 L -118.5,-1515.06 L -118.5,-1516.49 L -121.5,-1516.49
 L -121.5,-1291.51 L -118.5,-1291.51 z
M -114.751,-1293.01 L -115.25,-1293.07 L -115.736,-1293.2 L -116.203,-1293.38 L -116.643,-1293.62 L -117.05,-1293.92
 L -117.416,-1294.26 L -117.736,-1294.65 L -118.005,-1295.07 L -118.219,-1295.53 L -118.374,-1296.01 L -118.468,-1296.5
 L -118.5,-1297 L -118.5,-1511 L -118.468,-1511.5 L -118.374,-1511.99 L -118.219,-1512.47 L -118.005,-1512.93
 L -117.736,-1513.35 L -117.416,-1513.74 L -117.05,-1514.08 L -116.643,-1514.38 L -116.203,-1514.62 L -115.736,-1514.8
 L -115.25,-1514.93 L -114.751,-1514.99 L 114.751,-1514.99 L 115.25,-1514.93 L 115.736,-1514.8 L 116.203,-1514.62
 L 116.643,-1514.38 L 117.05,-1514.08 L 117.416,-1513.74 L 117.736,-1513.35 L 118.005,-1512.93 L 118.219,-1512.47
 L 118.374,-1511.99 L 118.468,-1511.5 L 118.5,-1511 L 118.5,-1297 L 118.468,-1296.5 L 118.374,-1296.01
 L 118.219,-1295.53 L 118.005,-1295.07 L 117.736,-1294.65 L 117.416,-1294.26 L 117.05,-1293.92 L 116.643,-1293.62
 L 116.203,-1293.38 L 115.736,-1293.2 L 115.25,-1293.07 L 114.751,-1293.01 z
M 115.937,-1057.59 L 116.545,-1057.74 L 117.129,-1057.98 L 117.679,-1058.28 L 118.187,-1058.65 L 118.645,-1059.08
 L 119.045,-1059.56 L 119.382,-1060.09 L 119.649,-1060.66 L 119.843,-1061.26 L 119.961,-1061.87 L 120,-1062.5
 L 120,-1277.5 L 119.961,-1278.13 L 119.843,-1278.74 L 119.649,-1279.34 L 119.382,-1279.91 L 119.045,-1280.44
 L 118.645,-1280.92 L 118.187,-1281.35 L 117.679,-1281.72 L 117.129,-1282.02 L 116.545,-1282.26 L 115.937,-1282.41
 L 115.314,-1282.49 L -115.314,-1282.49 L -115.937,-1282.41 L -116.545,-1282.26 L -117.129,-1282.02 L -117.679,-1281.72
 L -118.187,-1281.35 L -118.5,-1281.06 L -118.5,-1282.48 L -121.5,-1282.48 L -121.5,-1057.52 L -118.5,-1057.52
 L -118.5,-1058.94 L -118.187,-1058.65 L -117.679,-1058.28 L -117.129,-1057.98 L -116.545,-1057.74 L -115.937,-1057.59
 L -115.314,-1057.51 L 115.314,-1057.51 z
M -114.695,-1059.89 L -115.083,-1059.94 L -115.462,-1060.04 L -115.825,-1060.18 L -116.168,-1060.37 L -116.484,-1060.6
 L -116.769,-1060.87 L -117.018,-1061.17 L -117.228,-1061.5 L -117.394,-1061.85 L -117.515,-1062.23 L -117.588,-1062.61
 L -117.613,-1063 L -117.613,-1277 L -117.588,-1277.39 L -117.515,-1277.77 L -117.394,-1278.15 L -117.228,-1278.5
 L -117.018,-1278.83 L -116.769,-1279.13 L -116.484,-1279.4 L -116.168,-1279.63 L -115.825,-1279.82 L -115.462,-1279.96
 L -115.083,-1280.06 L -114.695,-1280.11 L 114.695,-1280.11 L 115.083,-1280.06 L 115.462,-1279.96 L 115.825,-1279.82
 L 116.168,-1279.63 L 116.484,-1279.4 L 116.769,-1279.13 L 117.018,-1278.83 L 117.228,-1278.5 L 117.394,-1278.15
 L 117.515,-1277.77 L 117.588,-1277.39 L 117.613,-1277 L 117.613,-1063 L 117.588,-1062.61 L 117.515,-1062.23
 L 117.394,-1061.85 L 117.228,-1061.5 L 117.018,-1061.17 L 116.769,-1060.87 L 116.484,-1060.6 L 116.168,-1060.37
 L 115.825,-1060.18 L 115.462,-1060.04 L 115.083,-1059.94 L 114.695,-1059.89 z
M 115.937,-823.589 L 116.545,-823.745 L 117.129,-823.976 L 117.679,-824.278 L 118.187,-824.647 L 118.645,-825.077
 L 119.045,-825.561 L 119.382,-826.091 L 119.649,-826.659 L 119.843,-827.257 L 119.961,-827.873 L 120,-828.5
 L 120,-1043.5 L 119.961,-1044.13 L 119.843,-1044.74 L 119.649,-1045.34 L 119.382,-1045.91 L 119.045,-1046.44
 L 118.645,-1046.92 L 118.187,-1047.35 L 117.679,-1047.72 L 117.129,-1048.02 L 116.545,-1048.26 L 115.937,-1048.41
 L 115.314,-1048.49 L -115.314,-1048.49 L -115.937,-1048.41 L -116.545,-1048.26 L -117.129,-1048.02 L -117.679,-1047.72
 L -118.187,-1047.35 L -118.5,-1047.06 L -118.5,-1047.15 L -121.5,-1047.15 L -121.5,-824.847 L -118.5,-824.847
 L -118.5,-824.941 L -118.187,-824.647 L -117.679,-824.278 L -117.129,-823.976 L -116.545,-823.745 L -115.937,-823.589
 L -115.314,-823.51 L 115.314,-823.51 z
M -112.634,-1038.87 L -112.9,-1038.9 L -113.16,-1038.97 L -113.409,-1039.07 L -113.644,-1039.2 L -113.861,-1039.35
 L -114.057,-1039.54 L -114.227,-1039.74 L -114.371,-1039.97 L -114.485,-1040.21 L -114.568,-1040.47 L -114.618,-1040.73
 L -114.635,-1041 L -114.618,-1041.27 L -114.568,-1041.53 L -114.485,-1041.79 L -114.371,-1042.03 L -114.227,-1042.26
 L -114.057,-1042.46 L -113.861,-1042.65 L -113.644,-1042.8 L -113.409,-1042.93 L -113.16,-1043.03 L -112.9,-1043.1
 L -112.634,-1043.13 L -112.366,-1043.13 L -112.1,-1043.1 L -111.84,-1043.03 L -111.591,-1042.93 L -111.356,-1042.8
 L -111.139,-1042.65 L -110.943,-1042.46 L -110.773,-1042.26 L -110.629,-1042.03 L -110.515,-1041.79 L -110.432,-1041.53
 L -110.382,-1041.27 L -110.365,-1041 L -110.382,-1040.73 L -110.432,-1040.47 L -110.515,-1040.21 L -110.629,-1039.97
 L -110.773,-1039.74 L -110.943,-1039.54 L -111.139,-1039.35 L -111.356,-1039.2 L -111.591,-1039.07 L -111.84,-1038.97
 L -112.1,-1038.9 L -112.366,-1038.87 z
M 112.366,-1038.87 L 112.1,-1038.9 L 111.84,-1038.97 L 111.591,-1039.07 L 111.356,-1039.2 L 111.139,-1039.35
 L 110.943,-1039.54 L 110.773,-1039.74 L 110.629,-1039.97 L 110.515,-1040.21 L 110.432,-1040.47 L 110.382,-1040.73
 L 110.365,-1041 L 110.382,-1041.27 L 110.432,-1041.53 L 110.515,-1041.79 L 110.629,-1042.03 L 110.773,-1042.26
 L 110.943,-1042.46 L 111.139,-1042.65 L 111.356,-1042.8 L 111.591,-1042.93 L 111.84,-1043.03 L 112.1,-1043.1
 L 112.366,-1043.13 L 112.634,-1043.13 L 112.9,-1043.1 L 113.16,-1043.03 L 113.409,-1042.93 L 113.644,-1042.8
 L 113.861,-1042.65 L 114.057,-1042.46 L 114.227,-1042.26 L 114.371,-1042.03 L 114.485,-1041.79 L 114.568,-1041.53
 L 114.618,-1041.27 L 114.635,-1041 L 114.618,-1040.73 L 114.568,-1040.47 L 114.485,-1040.21 L 114.371,-1039.97
 L 114.227,-1039.74 L 114.057,-1039.54 L 113.861,-1039.35 L 113.644,-1039.2 L 113.409,-1039.07 L 113.16,-1038.97
 L 112.9,-1038.9 L 112.634,-1038.87 z
M -112.634,-828.869 L -112.9,-828.903 L -113.16,-828.969 L -113.409,-829.068 L -113.644,-829.197 L -113.861,-829.355
 L -114.057,-829.538 L -114.227,-829.745 L -114.371,-829.971 L -114.485,-830.214 L -114.568,-830.469 L -114.618,-830.732
 L -114.635,-831 L -114.618,-831.268 L -114.568,-831.531 L -114.485,-831.786 L -114.371,-832.029 L -114.227,-832.255
 L -114.057,-832.462 L -113.861,-832.645 L -113.644,-832.803 L -113.409,-832.932 L -113.16,-833.031 L -112.9,-833.097
 L -112.634,-833.131 L -112.366,-833.131 L -112.1,-833.097 L -111.84,-833.031 L -111.591,-832.932 L -111.356,-832.803
 L -111.139,-832.645 L -110.943,-832.462 L -110.773,-832.255 L -110.629,-832.029 L -110.515,-831.786 L -110.432,-831.531
 L -110.382,-831.268 L -110.365,-831 L -110.382,-830.732 L -110.432,-830.469 L -110.515,-830.214 L -110.629,-829.971
 L -110.773,-829.745 L -110.943,-829.538 L -111.139,-829.355 L -111.356,-829.197 L -111.591,-829.068 L -111.84,-828.969
 L -112.1,-828.903 L -112.366,-828.869 z
M 112.366,-828.869 L 112.1,-828.903 L 111.84,-828.969 L 111.591,-829.068 L 111.356,-829.197 L 111.139,-829.355
 L 110.943,-829.538 L 110.773,-829.745 L 110.629,-829.971 L 110.515,-830.214 L 110.432,-830.469 L 110.382,-830.732
 L 110.365,-831 L 110.382,-831.268 L 110.432,-831.531 L 110.515,-831.786 L 110.629,-832.029 L 110.773,-832.255
 L 110.943,-832.462 L 111.139,-832.645 L 111.356,-832.803 L 111.591,-832.932 L 111.84,-833.031 L 112.1,-833.097
 L 112.366,-833.131 L 112.634,-833.131 L 112.9,-833.097 L 113.16,-833.031 L 113.409,-832.932 L 113.644,-832.803
 L 113.861,-832.645 L 114.057,-832.462 L 114.227,-832.255 L 114.371,-832.029 L 114.485,-831.786 L 114.568,-831.531
 L 114.618,-831.268 L 114.635,-831 L 114.618,-830.732 L 114.568,-830.469 L 114.485,-830.214 L 114.371,-829.971
 L 114.227,-829.745 L 114.057,-829.538 L 113.861,-829.355 L 113.644,-829.197 L 113.409,-829.068 L 113.16,-828.969
 L 112.9,-828.903 L 112.634,-828.869 z
" stroke="black" fill="lightgray" stroke-width="0.5"/>
</svg>
