<?xml version="1.0" standalone="no"?>
<!DOCTYPE svg PUBLIC "-//W3C//DTD SVG 1.1//EN" "http://www.w3.org/Graphics/SVG/1.1/DTD/svg11.dtd">
<svg width="300mm" height="1236mm" viewBox="-150 -2361 300 1236" xmlns="http://www.w3.org/2000/svg" version="1.1">
<title>OpenSCAD Model</title>
<path d="
M 145.937,-2121.09 L 146.545,-2121.24 L 147.129,-2121.48 L 147.679,-2121.78 L 148.187,-2122.15 L 148.645,-2122.58
 L 149.045,-2123.06 L 149.382,-2123.59 L 149.649,-2124.16 L 149.843,-2124.76 L 149.961,-2125.37 L 150,-2126
 L 150,-2356 L 149.961,-2356.63 L 149.843,-2357.24 L 149.649,-2357.84 L 149.382,-2358.41 L 149.045,-2358.94
 L 148.645,-2359.42 L 148.187,-2359.85 L 147.679,-2360.22 L 147.129,-2360.52 L 146.545,-2360.76 L 145.937,-2360.91
 L 145.314,-2360.99 L -145.314,-2360.99 L -145.937,-2360.91 L -146.545,-2360.76 L -147.129,-2360.52 L -147.679,-2360.22
 L -148.187,-2359.85 L -148.645,-2359.42 L -149.045,-2358.94 L -149.382,-2358.41 L -149.649,-2357.84 L -149.843,-2357.24
 L -149.961,-2356.63 L -150,-2356 L -150,-2126 L -149.961,-2125.37 L -149.843,-2124.76 L -149.649,-2124.16
 L -149.382,-2123.59 L -149.045,-2123.06 L -148.645,-2122.58 L -148.187,-2122.15 L -147.679,-2121.78 L -147.129,-2121.48
 L -146.545,-2121.24 L -145.937,-2121.09 L -145.314,-2121.01 L 145.314,-2121.01 z
M -145.048,-2121.51 L -145.64,-2121.58 L -146.218,-2121.73 L -146.772,-2121.95 L -147.295,-2122.24 L -147.778,-2122.59
 L -148.213,-2123 L -148.593,-2123.46 L -148.912,-2123.96 L -149.166,-2124.5 L -149.351,-2125.07 L -149.463,-2125.65
 L -149.5,-2126.25 L -149.5,-2355.75 L -149.463,-2356.35 L -149.351,-2356.93 L -149.166,-2357.5 L -148.912,-2358.04
 L -148.593,-2358.54 L -148.213,-2359 L -147.778,-2359.41 L -147.295,-2359.76 L -146.772,-2360.05 L -146.218,-2360.27
 L -145.64,-2360.42 L -145.048,-2360.49 L 145.048,-2360.49 L 145.64,-2360.42 L 146.218,-2360.27 L 146.772,-2360.05
 L 147.295,-2359.76 L 147.778,-2359.41 L 148.213,-2359 L 148.593,-2358.54 L 148.912,-2358.04 L 149.166,-2357.5
 L 149.351,-2356.93 L 149.463,-2356.35 L 149.5,-2355.75 L 149.5,-2126.25 L 149.463,-2125.65 L 149.351,-2125.07
 L 149.166,-2124.5 L 148.912,-2123.96 L 148.593,-2123.46 L 148.213,-2123 L 147.778,-2122.59 L 147.295,-2122.24
 L 146.772,-2121.95 L 146.218,-2121.73 L 145.64,-2121.58 L 145.048,-2121.51 z
M 145.937,-1872.09 L 146.545,-1872.24 L 147.129,-1872.48 L 147.679,-1872.78 L 148.187,-1873.15 L 148.645,-1873.58
 L 149.045,-1874.06 L 149.382,-1874.59 L 149.649,-1875.16 L 149.843,-1875.76 L 149.961,-1876.37 L 150,-1877
 L 150,-2107 L 149.961,-2107.63 L 149.843,-2108.24 L 149.649,-2108.84 L 149.382,-2109.41 L 149.045,-2109.94
 L 148.645,-2110.42 L 148.187,-2110.85 L 147.679,-2111.22 L 147.129,-2111.52 L 146.545,-2111.76 L 145.937,-2111.91
 L 145.314,-2111.99 L -145.314,-2111.99 L -145.937,-2111.91 L -146.545,-2111.76 L -147.129,-2111.52 L -147.679,-2111.22
 L -148.187,-2110.85 L -148.645,-2110.42 L -149.045,-2109.94 L -149.382,-2109.41 L -149.649,-2108.84 L -149.843,-2108.24
 L -149.961,-2107.63 L -150,-2107 L -150,-1877 L -149.961,-1876.37 L -149.843,-1875.76 L -149.649,-1875.16
 L -149.382,-1874.59 L -149.045,-1874.06 L -148.645,-1873.58 L -148.187,-1873.15 L -147.679,-1872.78 L -147.129,-1872.48
 L -146.545,-1872.24 L -145.937,-1872.09 L -145.314,-1872.01 L 145.314,-1872.01 z
M -145.048,-1872.51 L -145.64,-1872.58 L -146.218,-1872.73 L -146.772,-1872.95 L -147.295,-1873.24 L -147.778,-1873.59
 L -148.213,-1874 L -148.593,-1874.46 L -148.912,-1874.96 L -149.166,-1875.5 L -149.351,-1876.07 L -149.463,-1876.65
 L -149.5,-1877.25 L -149.5,-2106.75 L -149.463,-2107.35 L -149.351,-2107.93 L -149.166,-2108.5 L -148.912,-2109.04
 L -148.593,-2109.54 L -148.213,-2110 L -147.778,-2110.41 L -147.295,-2110.76 L -146.772,-2111.05 L -146.218,-2111.27
 L -145.64,-2111.42 L -145.048,-2111.49 L 145.048,-2111.49 L 145.64,-2111.42 L 146.218,-2111.27 L 146.772,-2111.05
 L 147.295,-2110.76 L 147.778,-2110.41 L 148.213,-2110 L 148.593,-2109.54 L 148.912,-2109.04 L 149.166,-2108.5
 L 149.351,-2107.93 L 149.463,-2107.35 L 149.5,-2106.75 L 149.5,-1877.25 L 149.463,-1876.65 L 149.351,-1876.07
 L 149.166,-1875.5 L 148.912,-1874.96 L 148.593,-1874.46 L 148.213,-1874 L 147.778,-1873.59 L 147.295,-1873.24
 L 146.772,-1872.95 L 146.218,-1872.73 L 145.64,-1872.58 L 145.048,-1872.51 z
M 145.937,-1623.09 L 146.545,-1623.24 L 147.129,-1623.48 L 147.679,-1623.78 L 148.187,-1624.15 L 148.645,-1624.58
 L 149.045,-1625.06 L 149.382,-1625.59 L 149.649,-1626.16 L 149.843,-1626.76 L 149.961,-1627.37 L 150,-1628
 L 150,-1858 L 149.961,-1858.63 L 149.843,-1859.24 L 149.649,-1859.84 L 149.382,-1860.41 L 149.045,-1860.94
 L 148.645,-1861.42 L 148.187,-1861.85 L 147.679,-1862.22 L 147.129,-1862.52 L 146.545,-1862.76 L 145.937,-1862.91
 L 145.314,-1862.99 L -145.314,-1862.99 L -145.937,-1862.91 L -146.545,-1862.76 L -147.129,-1862.52 L -147.679,-1862.22
 L -148.187,-1861.85 L -148.645,-1861.42 L -149.045,-1860.94 L -149.382,-1860.41 L -149.649,-1859.84 L -149.843,-1859.24
 L -149.961,-1858.63 L -150,-1858 L -150,-1628 L -149.961,-1627.37 L -149.843,-1626.76 L -149.649,-1626.16
 L -149.382,-1625.59 L -149.045,-1625.06 L -148.645,-1624.58 L -148.187,-1624.15 L -147.679,-1623.78 L -147.129,-1623.48
 L -146.545,-1623.24 L -145.937,-1623.09 L -145.314,-1623.01 L 145.314,-1623.01 z
M -145.048,-1623.51 L -145.64,-1623.58 L -146.218,-1623.73 L -146.772,-1623.95 L -147.295,-1624.24 L -147.778,-1624.59
 L -148.213,-1625 L -148.593,-1625.46 L -148.912,-1625.96 L -149.166,-1626.5 L -149.351,-1627.07 L -149.463,-1627.65
 L -149.5,-1628.25 L -149.5,-1857.75 L -149.463,-1858.35 L -149.351,-1858.93 L -149.166,-1859.5 L -148.912,-1860.04
 L -148.593,-1860.54 L -148.213,-1861 L -147.778,-1861.41 L -147.295,-1861.76 L -146.772,-1862.05 L -146.218,-1862.27
 L -145.64,-1862.42 L -145.048,-1862.49 L 145.048,-1862.49 L 145.64,-1862.42 L 146.218,-1862.27 L 146.772,-1862.05
 L 147.295,-1861.76 L 147.778,-1861.41 L 148.213,-1861 L 148.593,-1860.54 L 148.912,-1860.04 L 149.166,-1859.5
 L 149.351,-1858.93 L 149.463,-1858.35 L 149.5,-1857.75 L 149.5,-1628.25 L 149.463,-1627.65 L 149.351,-1627.07
 L 149.166,-1626.5 L 148.912,-1625.96 L 148.593,-1625.46 L 148.213,-1625 L 147.778,-1624.59 L 147.295,-1624.24
 L 146.772,-1623.95 L 146.218,-1623.73 L 145.64,-1623.58 L 145.048,-1623.51 z
M 145.937,-1374.09 L 146.545,-1374.24 L 147.129,-1374.48 L 147.679,-1374.78 L 148.187,-1375.15 L 148.645,-1375.58
 L 149.045,-1376.06 L 149.382,-1376.59 L 149.649,-1377.16 L 149.843,-1377.76 L 149.961,-1378.37 L 150,-1379
 L 150,-1609 L 149.961,-1609.63 L 149.843,-1610.24 L 149.649,-1610.84 L 149.382,-1611.41 L 149.045,-1611.94
 L 148.645,-1612.42 L 148.187,-1612.85 L 147.679,-1613.22 L 147.129,-1613.52 L 146.545,-1613.76 L 145.937,-1613.91
 L 145.314,-1613.99 L -145.314,-1613.99 L -145.937,-1613.91 L -146.545,-1613.76 L -147.129,-1613.52 L -147.679,-1613.22
 L -148.187,-1612.85 L -148.645,-1612.42 L -149.045,-1611.94 L -149.382,-1611.41 L -149.649,-1610.84 L -149.843,-1610.24
 L -149.961,-1609.63 L -150,-1609 L -150,-1379 L -149.961,-1378.37 L -149.843,-1377.76 L -149.649,-1377.16
 L -149.382,-1376.59 L -149.045,-1376.06 L -148.645,-1375.58 L -148.187,-1375.15 L -147.679,-1374.78 L -147.129,-1374.48
 L -146.545,-1374.24 L -145.937,-1374.09 L -145.314,-1374.01 L 145.314,-1374.01 z
M -145.037,-1374.68 L -145.608,-1374.75 L -146.165,-1374.9 L -146.699,-1375.11 L -147.203,-1375.38 L -147.668,-1375.72
 L -148.088,-1376.12 L -148.454,-1376.56 L -148.762,-1377.04 L -149.007,-1377.56 L -149.185,-1378.11 L -149.292,-1378.68
 L -149.328,-1379.25 L -149.328,-1608.75 L -149.292,-1609.32 L -149.185,-1609.89 L -149.007,-1610.44 L -148.762,-1610.96
 L -148.454,-1611.44 L -148.088,-1611.88 L -147.668,-1612.28 L -147.203,-1612.62 L -146.699,-1612.89 L -146.165,-1613.1
 L -145.608,-1613.25 L -145.037,-1613.32 L 145.037,-1613.32 L 145.608,-1613.25 L 146.165,-1613.1 L 146.699,-1612.89
 L 147.203,-1612.62 L 147.668,-1612.28 L 148.088,-1611.88 L 148.454,-1611.44 L 148.762,-1610.96 L 149.007,-1610.44
 L 149.185,-1609.89 L 149.292,-1609.32 L 149.328,-1608.75 L 149.328,-1379.25 L 149.292,-1378.68 L 149.185,-1378.11
 L 149.007,-1377.56 L 148.762,-1377.04 L 148.454,-1376.56 L 148.088,-1376.12 L 147.668,-1375.72 L 147.203,-1375.38
 L 146.699,-1375.11 L 146.165,-1374.9 L 145.608,-1374.75 L 145.037,-1374.68 z
M 145.937,-1125.09 L 146.545,-1125.24 L 147.129,-1125.48 L 147.679,-1125.78 L 148.187,-1126.15 L 148.645,-1126.58
 L 149.045,-1127.06 L 149.382,-1127.59 L 149.649,-1128.16 L 149.843,-1128.76 L 149.961,-1129.37 L 150,-1130
 L 150,-1360 L 149.961,-1360.63 L 149.843,-1361.24 L 149.649,-1361.84 L 149.382,-1362.41 L 149.045,-1362.94
 L 148.645,-1363.42 L 148.187,-1363.85 L 147.679,-1364.22 L 147.129,-1364.52 L 146.545,-1364.76 L 145.937,-1364.91
 L 145.314,-1364.99 L -145.314,-1364.99 L -145.937,-1364.91 L -146.545,-1364.76 L -147.129,-1364.52 L -147.679,-1364.22
 L -148.187,-1363.85 L -148.645,-1363.42 L -149.045,-1362.94 L -149.382,-1362.41 L -149.649,-1361.84 L -149.843,-1361.24
 L -149.961,-1360.63 L -150,-1360 L -150,-1130 L -149.961,-1129.37 L -149.843,-1128.76 L -149.649,-1128.16
 L -149.382,-1127.59 L -149.045,-1127.06 L -148.645,-1126.58 L -148.187,-1126.15 L -147.679,-1125.78 L -147.129,-1125.48
 L -146.545,-1125.24 L -145.937,-1125.09 L -145.314,-1125.01 L 145.314,-1125.01 z
M -144.882,-1128.14 L -145.145,-1128.18 L -145.402,-1128.24 L -145.648,-1128.34 L -145.88,-1128.47 L -146.095,-1128.62
 L -146.288,-1128.81 L -146.457,-1129.01 L -146.599,-1129.23 L -146.711,-1129.47 L -146.793,-1129.73 L -146.843,-1129.99
 L -146.86,-1130.25 L -146.86,-1359.75 L -146.843,-1360.01 L -146.793,-1360.27 L -146.711,-1360.53 L -146.599,-1360.77
 L -146.457,-1360.99 L -146.288,-1361.19 L -146.095,-1361.38 L -145.88,-1361.53 L -145.648,-1361.66 L -145.402,-1361.76
 L -145.145,-1361.82 L -144.882,-1361.86 L 144.882,-1361.86 L 145.145,-1361.82 L 145.402,-1361.76 L 145.648,-1361.66
 L 145.88,-1361.53 L 146.095,-1361.38 L 146.288,-1361.19 L 146.457,-1360.99 L 146.599,-1360.77 L 146.711,-1360.53
 L 146.793,-1360.27 L 146.843,-1360.01 L 146.86,-1359.75 L 146.86,-1130.25 L 146.843,-1129.99 L 146.793,-1129.73
 L 146.711,-1129.47 L 146.599,-1129.23 L 146.457,-1129.01 L 146.288,-1128.81 L 146.095,-1128.62 L 145.88,-1128.47
 L 145.648,-1128.34 L 145.402,-1128.24 L 145.145,-1128.18 L 144.882,-1128.14 z
" stroke="black" fill="lightgray" stroke-width="0.5"/>
</svg>
