<?xml version="1.0" standalone="no"?>
<!DOCTYPE svg PUBLIC "-//W3C//DTD SVG 1.1//EN" "http://www.w3.org/Graphics/SVG/1.1/DTD/svg11.dtd">
<svg width="286mm" height="55mm" viewBox="-143 -106 286 55" xmlns="http://www.w3.org/2000/svg" version="1.1">
<title>OpenSCAD Model</title>
<path d="
M 138.437,-83.3386 L 139.045,-83.4947 L 139.629,-83.7259 L 140.179,-84.0284 L 140.687,-84.3974 L 141.145,-84.8273
 L 141.545,-85.3111 L 141.882,-85.8412 L 142.149,-86.4094 L 142.343,-87.0066 L 142.461,-87.6233 L 142.5,-88.25
 L 142.5,-100.75 L 142.461,-101.377 L 142.343,-101.993 L 142.149,-102.591 L 141.882,-103.159 L 141.545,-103.689
 L 141.145,-104.173 L 140.687,-104.603 L 140.179,-104.972 L 139.629,-105.274 L 139.045,-105.505 L 138.437,-105.661
 L 137.814,-105.74 L -137.814,-105.74 L -138.437,-105.661 L -139.045,-105.505 L -139.629,-105.274 L -140.179,-104.972
 L -140.687,-104.603 L -141.145,-104.173 L -141.545,-103.689 L -141.882,-103.159 L -142.149,-102.591 L -142.343,-101.993
 L -142.461,-101.377 L -142.5,-100.75 L -142.5,-88.25 L -142.461,-87.6233 L -142.343,-87.0066 L -142.149,-86.4094
 L -141.882,-85.8412 L -141.545,-85.3111 L -141.145,-84.8273 L -140.687,-84.3974 L -140.179,-84.0284 L -139.629,-83.7259
 L -139.045,-83.4947 L -138.437,-83.3386 L -137.814,-83.2599 L 137.814,-83.2599 z
M -137.537,-83.9306 L -138.108,-84.0027 L -138.665,-84.1456 L -139.199,-84.3573 L -139.703,-84.6343 L -140.168,-84.9723
 L -140.588,-85.3658 L -140.954,-85.8089 L -141.262,-86.2943 L -141.507,-86.8146 L -141.685,-87.3614 L -141.792,-87.9262
 L -141.828,-88.5 L -141.828,-100.5 L -141.792,-101.074 L -141.685,-101.639 L -141.507,-102.185 L -141.262,-102.706
 L -140.954,-103.191 L -140.588,-103.634 L -140.168,-104.028 L -139.703,-104.366 L -139.199,-104.643 L -138.665,-104.854
 L -138.108,-104.997 L -137.537,-105.069 L 137.537,-105.069 L 138.108,-104.997 L 138.665,-104.854 L 139.199,-104.643
 L 139.703,-104.366 L 140.168,-104.028 L 140.588,-103.634 L 140.954,-103.191 L 141.262,-102.706 L 141.507,-102.185
 L 141.685,-101.639 L 141.792,-101.074 L 141.828,-100.5 L 141.828,-88.5 L 141.792,-87.9262 L 141.685,-87.3614
 L 141.507,-86.8146 L 141.262,-86.2943 L 140.954,-85.8089 L 140.588,-85.3658 L 140.168,-84.9723 L 139.703,-84.6343
 L 139.199,-84.3573 L 138.665,-84.1456 L 138.108,-84.0027 L 137.537,-83.9306 z
M 138.437,-51.8386 L 139.045,-51.9947 L 139.629,-52.2259 L 140.179,-52.5284 L 140.687,-52.8974 L 141.145,-53.3273
 L 141.545,-53.8111 L 141.882,-54.3412 L 142.149,-54.9094 L 142.343,-55.5066 L 142.461,-56.1233 L 142.5,-56.75
 L 142.5,-69.25 L 142.461,-69.8767 L 142.343,-70.4934 L 142.149,-71.0906 L 141.882,-71.6588 L 141.545,-72.1889
 L 141.145,-72.6727 L 140.687,-73.1026 L 140.179,-73.4716 L 139.629,-73.7741 L 139.045,-74.0053 L 138.437,-74.1614
 L 137.814,-74.2401 L -137.814,-74.2401 L -138.437,-74.1614 L -139.045,-74.0053 L -139.629,-73.7741 L -140.179,-73.4716
 L -140.687,-73.1026 L -141.145,-72.6727 L -141.545,-72.1889 L -141.882,-71.6588 L -142.149,-71.0906 L -142.343,-70.4934
 L -142.461,-69.8767 L -142.5,-69.25 L -142.5,-56.75 L -142.461,-56.1233 L -142.343,-55.5066 L -142.149,-54.9094
 L -141.882,-54.3412 L -141.545,-53.8111 L -141.145,-53.3273 L -140.687,-52.8974 L -140.179,-52.5284 L -139.629,-52.2259
 L -139.045,-51.9947 L -138.437,-51.8386 L -137.814,-51.7599 L 137.814,-51.7599 z
M -137.382,-54.8945 L -137.645,-54.9277 L -137.902,-54.9936 L -138.148,-55.0912 L -138.38,-55.2188 L -138.595,-55.3745
 L -138.788,-55.5559 L -138.957,-55.76 L -139.099,-55.9837 L -139.211,-56.2234 L -139.293,-56.4754 L -139.343,-56.7356
 L -139.36,-57 L -139.36,-69 L -139.343,-69.2644 L -139.293,-69.5246 L -139.211,-69.7766 L -139.099,-70.0163
 L -138.957,-70.24 L -138.788,-70.4441 L -138.595,-70.6255 L -138.38,-70.7812 L -138.148,-70.9088 L -137.902,-71.0064
 L -137.645,-71.0723 L -137.382,-71.1055 L 137.382,-71.1055 L 137.645,-71.0723 L 137.902,-71.0064 L 138.148,-70.9088
 L 138.38,-70.7812 L 138.595,-70.6255 L 138.788,-70.4441 L 138.957,-70.24 L 139.099,-70.0163 L 139.211,-69.7766
 L 139.293,-69.5246 L 139.343,-69.2644 L 139.36,-69 L 139.36,-57 L 139.343,-56.7356 L 139.293,-56.4754
 L 139.211,-56.2234 L 139.099,-55.9837 L 138.957,-55.76 L 138.788,-55.5559 L 138.595,-55.3745 L 138.38,-55.2188
 L 138.148,-55.0912 L 137.902,-54.9936 L 137.645,-54.9277 L 137.382,-54.8945 z
" stroke="black" fill="lightgray" stroke-width="0.5"/>
</svg>
