<?xml version="1.0" standalone="no"?>
<!DOCTYPE svg PUBLIC "-//W3C//DTD SVG 1.1//EN" "http://www.w3.org/Graphics/SVG/1.1/DTD/svg11.dtd">
<svg width="256mm" height="627mm" viewBox="-128 -1029 256 627" xmlns="http://www.w3.org/2000/svg" version="1.1">
<title>OpenSCAD Model</title>
<path d="
M 123.437,-879.089 L 124.045,-879.245 L 124.629,-879.476 L 125.179,-879.778 L 125.687,-880.147 L 126.145,-880.577
 L 126.545,-881.061 L 126.882,-881.591 L 127.149,-882.159 L 127.343,-882.757 L 127.461,-883.373 L 127.5,-884
 L 127.5,-1024 L 127.461,-1024.63 L 127.343,-1025.24 L 127.149,-1025.84 L 126.882,-1026.41 L 126.545,-1026.94
 L 126.145,-1027.42 L 125.687,-1027.85 L 125.179,-1028.22 L 124.629,-1028.52 L 124.045,-1028.76 L 123.437,-1028.91
 L 122.814,-1028.99 L -122.814,-1028.99 L -123.437,-1028.91 L -124.045,-1028.76 L -124.629,-1028.52 L -125.179,-1028.22
 L -125.687,-1027.85 L -126.145,-1027.42 L -126.545,-1026.94 L -126.882,-1026.41 L -127.149,-1025.84 L -127.343,-1025.24
 L -127.461,-1024.63 L -127.5,-1024 L -127.5,-884 L -127.461,-883.373 L -127.343,-882.757 L -127.149,-882.159
 L -126.882,-881.591 L -126.545,-881.061 L -126.145,-880.577 L -125.687,-880.147 L -125.179,-879.778 L -124.629,-879.476
 L -124.045,-879.245 L -123.437,-879.089 L -122.814,-879.01 L 122.814,-879.01 z
M -122.548,-879.509 L -123.14,-879.584 L -123.718,-879.732 L -124.272,-879.952 L -124.795,-880.239 L -125.278,-880.59
 L -125.713,-880.998 L -126.093,-881.458 L -126.412,-881.962 L -126.666,-882.501 L -126.851,-883.069 L -126.963,-883.655
 L -127,-884.25 L -127,-1023.75 L -126.963,-1024.35 L -126.851,-1024.93 L -126.666,-1025.5 L -126.412,-1026.04
 L -126.093,-1026.54 L -125.713,-1027 L -125.278,-1027.41 L -124.795,-1027.76 L -124.272,-1028.05 L -123.718,-1028.27
 L -123.14,-1028.42 L -122.548,-1028.49 L 122.548,-1028.49 L 123.14,-1028.42 L 123.718,-1028.27 L 124.272,-1028.05
 L 124.795,-1027.76 L 125.278,-1027.41 L 125.713,-1027 L 126.093,-1026.54 L 126.412,-1026.04 L 126.666,-1025.5
 L 126.851,-1024.93 L 126.963,-1024.35 L 127,-1023.75 L 127,-884.25 L 126.963,-883.655 L 126.851,-883.069
 L 126.666,-882.501 L 126.412,-881.962 L 126.093,-881.458 L 125.713,-880.998 L 125.278,-880.59 L 124.795,-880.239
 L 124.272,-879.952 L 123.718,-879.732 L 123.14,-879.584 L 122.548,-879.509 z
M 123.437,-720.089 L 124.045,-720.245 L 124.629,-720.476 L 125.179,-720.778 L 125.687,-721.147 L 126.145,-721.577
 L 126.545,-722.061 L 126.882,-722.591 L 127.149,-723.159 L 127.343,-723.757 L 127.461,-724.373 L 127.5,-725
 L 127.5,-865 L 127.461,-865.627 L 127.343,-866.243 L 127.149,-866.841 L 126.882,-867.409 L 126.545,-867.939
 L 126.145,-868.423 L 125.687,-868.853 L 125.179,-869.222 L 124.629,-869.524 L 124.045,-869.755 L 123.437,-869.911
 L 122.814,-869.99 L -122.814,-869.99 L -123.437,-869.911 L -124.045,-869.755 L -124.629,-869.524 L -125.179,-869.222
 L -125.687,-868.853 L -126.145,-868.423 L -126.545,-867.939 L -126.882,-867.409 L -127.149,-866.841 L -127.343,-866.243
 L -127.461,-865.627 L -127.5,-865 L -127.5,-725 L -127.461,-724.373 L -127.343,-723.757 L -127.149,-723.159
 L -126.882,-722.591 L -126.545,-722.061 L -126.145,-721.577 L -125.687,-721.147 L -125.179,-720.778 L -124.629,-720.476
 L -124.045,-720.245 L -123.437,-720.089 L -122.814,-720.01 L 122.814,-720.01 z
M -122.548,-720.509 L -123.14,-720.584 L -123.718,-720.732 L -124.272,-720.952 L -124.795,-721.239 L -125.278,-721.59
 L -125.713,-721.998 L -126.093,-722.458 L -126.412,-722.962 L -126.666,-723.501 L -126.851,-724.069 L -126.963,-724.655
 L -127,-725.25 L -127,-864.75 L -126.963,-865.345 L -126.851,-865.931 L -126.666,-866.499 L -126.412,-867.038
 L -126.093,-867.542 L -125.713,-868.002 L -125.278,-868.41 L -124.795,-868.761 L -124.272,-869.048 L -123.718,-869.268
 L -123.14,-869.416 L -122.548,-869.491 L 122.548,-869.491 L 123.14,-869.416 L 123.718,-869.268 L 124.272,-869.048
 L 124.795,-868.761 L 125.278,-868.41 L 125.713,-868.002 L 126.093,-867.542 L 126.412,-867.038 L 126.666,-866.499
 L 126.851,-865.931 L 126.963,-865.345 L 127,-864.75 L 127,-725.25 L 126.963,-724.655 L 126.851,-724.069
 L 126.666,-723.501 L 126.412,-722.962 L 126.093,-722.458 L 125.713,-721.998 L 125.278,-721.59 L 124.795,-721.239
 L 124.272,-720.952 L 123.718,-720.732 L 123.14,-720.584 L 122.548,-720.509 z
M 123.437,-561.089 L 124.045,-561.245 L 124.629,-561.476 L 125.179,-561.778 L 125.687,-562.147 L 126.145,-562.577
 L 126.545,-563.061 L 126.882,-563.591 L 127.149,-564.159 L 127.343,-564.757 L 127.461,-565.373 L 127.5,-566
 L 127.5,-706 L 127.461,-706.627 L 127.343,-707.243 L 127.149,-707.841 L 126.882,-708.409 L 126.545,-708.939
 L 126.145,-709.423 L 125.687,-709.853 L 125.179,-710.222 L 124.629,-710.524 L 124.045,-710.755 L 123.437,-710.911
 L 122.814,-710.99 L -122.814,-710.99 L -123.437,-710.911 L -124.045,-710.755 L -124.629,-710.524 L -125.179,-710.222
 L -125.687,-709.853 L -126.145,-709.423 L -126.545,-708.939 L -126.882,-708.409 L -127.149,-707.841 L -127.343,-707.243
 L -127.461,-706.627 L -127.5,-706 L -127.5,-566 L -127.461,-565.373 L -127.343,-564.757 L -127.149,-564.159
 L -126.882,-563.591 L -126.545,-563.061 L -126.145,-562.577 L -125.687,-562.147 L -125.179,-561.778 L -124.629,-561.476
 L -124.045,-561.245 L -123.437,-561.089 L -122.814,-561.01 L 122.814,-561.01 z
M -122.493,-562.388 L -122.975,-562.449 L -123.446,-562.57 L -123.898,-562.749 L -124.323,-562.983 L -124.716,-563.269
 L -125.071,-563.601 L -125.38,-563.976 L -125.641,-564.386 L -125.848,-564.826 L -125.998,-565.288 L -126.089,-565.765
 L -126.119,-566.25 L -126.119,-705.75 L -126.089,-706.235 L -125.998,-706.712 L -125.848,-707.174 L -125.641,-707.614
 L -125.38,-708.024 L -125.071,-708.399 L -124.716,-708.731 L -124.323,-709.017 L -123.898,-709.251 L -123.446,-709.43
 L -122.975,-709.551 L -122.493,-709.612 L 122.493,-709.612 L 122.975,-709.551 L 123.446,-709.43 L 123.898,-709.251
 L 124.323,-709.017 L 124.716,-708.731 L 125.071,-708.399 L 125.38,-708.024 L 125.641,-707.614 L 125.848,-707.174
 L 125.998,-706.712 L 126.089,-706.235 L 126.119,-705.75 L 126.119,-566.25 L 126.089,-565.765 L 125.998,-565.288
 L 125.848,-564.826 L 125.641,-564.386 L 125.38,-563.976 L 125.071,-563.601 L 124.716,-563.269 L 124.323,-562.983
 L 123.898,-562.749 L 123.446,-562.57 L 122.975,-562.449 L 122.493,-562.388 z
M 123.437,-402.089 L 124.045,-402.245 L 124.629,-402.476 L 125.179,-402.778 L 125.687,-403.147 L 126.145,-403.577
 L 126.545,-404.061 L 126.882,-404.591 L 127.149,-405.159 L 127.343,-405.757 L 127.461,-406.373 L 127.5,-407
 L 127.5,-547 L 127.461,-547.627 L 127.343,-548.243 L 127.149,-548.841 L 126.882,-549.409 L 126.545,-549.939
 L 126.145,-550.423 L 125.687,-550.853 L 125.179,-551.222 L 124.629,-551.524 L 124.045,-551.755 L 123.437,-551.911
 L 122.814,-551.99 L -122.814,-551.99 L -123.437,-551.911 L -124.045,-551.755 L -124.629,-551.524 L -125.179,-551.222
 L -125.687,-550.853 L -126.145,-550.423 L -126.545,-549.939 L -126.882,-549.409 L -127.149,-548.841 L -127.343,-548.243
 L -127.461,-547.627 L -127.5,-547 L -127.5,-407 L -127.461,-406.373 L -127.343,-405.757 L -127.149,-405.159
 L -126.882,-404.591 L -126.545,-404.061 L -126.145,-403.577 L -125.687,-403.147 L -125.179,-402.778 L -124.629,-402.476
 L -124.045,-402.245 L -123.437,-402.089 L -122.814,-402.01 L 122.814,-402.01 z
M -120.113,-542.704 L -120.337,-542.732 L -120.556,-542.788 L -120.766,-542.871 L -120.964,-542.98 L -121.147,-543.113
 L -121.312,-543.268 L -121.456,-543.442 L -121.577,-543.633 L -121.674,-543.837 L -121.743,-544.052 L -121.786,-544.274
 L -121.8,-544.5 L -121.786,-544.726 L -121.743,-544.948 L -121.674,-545.163 L -121.577,-545.367 L -121.456,-545.558
 L -121.312,-545.732 L -121.147,-545.887 L -120.964,-546.02 L -120.766,-546.129 L -120.556,-546.212 L -120.337,-546.268
 L -120.113,-546.296 L -119.887,-546.296 L -119.663,-546.268 L -119.444,-546.212 L -119.234,-546.129 L -119.036,-546.02
 L -118.853,-545.887 L -118.688,-545.732 L -118.544,-545.558 L -118.423,-545.367 L -118.326,-545.163 L -118.257,-544.948
 L -118.214,-544.726 L -118.2,-544.5 L -118.214,-544.274 L -118.257,-544.052 L -118.326,-543.837 L -118.423,-543.633
 L -118.544,-543.442 L -118.688,-543.268 L -118.853,-543.113 L -119.036,-542.98 L -119.234,-542.871 L -119.444,-542.788
 L -119.663,-542.732 L -119.887,-542.704 z
M 119.887,-542.704 L 119.663,-542.732 L 119.444,-542.788 L 119.234,-542.871 L 119.036,-542.98 L 118.853,-543.113
 L 118.688,-543.268 L 118.544,-543.442 L 118.423,-543.633 L 118.326,-543.837 L 118.257,-544.052 L 118.214,-544.274
 L 118.2,-544.5 L 118.214,-544.726 L 118.257,-544.948 L 118.326,-545.163 L 118.423,-545.367 L 118.544,-545.558
 L 118.688,-545.732 L 118.853,-545.887 L 119.036,-546.02 L 119.234,-546.129 L 119.444,-546.212 L 119.663,-546.268
 L 119.887,-546.296 L 120.113,-546.296 L 120.337,-546.268 L 120.556,-546.212 L 120.766,-546.129 L 120.964,-546.02
 L 121.147,-545.887 L 121.312,-545.732 L 121.456,-545.558 L 121.577,-545.367 L 121.674,-545.163 L 121.743,-544.948
 L 121.786,-544.726 L 121.8,-544.5 L 121.786,-544.274 L 121.743,-544.052 L 121.674,-543.837 L 121.577,-543.633
 L 121.456,-543.442 L 121.312,-543.268 L 121.147,-543.113 L 120.964,-542.98 L 120.766,-542.871 L 120.556,-542.788
 L 120.337,-542.732 L 120.113,-542.704 z
M -120.113,-407.704 L -120.337,-407.732 L -120.556,-407.788 L -120.766,-407.871 L -120.964,-407.98 L -121.147,-408.113
 L -121.312,-408.268 L -121.456,-408.442 L -121.577,-408.633 L -121.674,-408.837 L -121.743,-409.052 L -121.786,-409.274
 L -121.8,-409.5 L -121.786,-409.726 L -121.743,-409.948 L -121.674,-410.163 L -121.577,-410.367 L -121.456,-410.558
 L -121.312,-410.732 L -121.147,-410.887 L -120.964,-411.02 L -120.766,-411.129 L -120.556,-411.212 L -120.337,-411.268
 L -120.113,-411.296 L -119.887,-411.296 L -119.663,-411.268 L -119.444,-411.212 L -119.234,-411.129 L -119.036,-411.02
 L -118.853,-410.887 L -118.688,-410.732 L -118.544,-410.558 L -118.423,-410.367 L -118.326,-410.163 L -118.257,-409.948
 L -118.214,-409.726 L -118.2,-409.5 L -118.214,-409.274 L -118.257,-409.052 L -118.326,-408.837 L -118.423,-408.633
 L -118.544,-408.442 L -118.688,-408.268 L -118.853,-408.113 L -119.036,-407.98 L -119.234,-407.871 L -119.444,-407.788
 L -119.663,-407.732 L -119.887,-407.704 z
M 119.887,-407.704 L 119.663,-407.732 L 119.444,-407.788 L 119.234,-407.871 L 119.036,-407.98 L 118.853,-408.113
 L 118.688,-408.268 L 118.544,-408.442 L 118.423,-408.633 L 118.326,-408.837 L 118.257,-409.052 L 118.214,-409.274
 L 118.2,-409.5 L 118.214,-409.726 L 118.257,-409.948 L 118.326,-410.163 L 118.423,-410.367 L 118.544,-410.558
 L 118.688,-410.732 L 118.853,-410.887 L 119.036,-411.02 L 119.234,-411.129 L 119.444,-411.212 L 119.663,-411.268
 L 119.887,-411.296 L 120.113,-411.296 L 120.337,-411.268 L 120.556,-411.212 L 120.766,-411.129 L 120.964,-411.02
 L 121.147,-410.887 L 121.312,-410.732 L 121.456,-410.558 L 121.577,-410.367 L 121.674,-410.163 L 121.743,-409.948
 L 121.786,-409.726 L 121.8,-409.5 L 121.786,-409.274 L 121.743,-409.052 L 121.674,-408.837 L 121.577,-408.633
 L 121.456,-408.442 L 121.312,-408.268 L 121.147,-408.113 L 120.964,-407.98 L 120.766,-407.871 L 120.556,-407.788
 L 120.337,-407.732 L 120.113,-407.704 z
" stroke="black" fill="lightgray" stroke-width="0.5"/>
</svg>
