<?xml version="1.0" standalone="no"?>
<!DOCTYPE svg PUBLIC "-//W3C//DTD SVG 1.1//EN" "http://www.w3.org/Graphics/SVG/1.1/DTD/svg11.dtd">
<svg width="272mm" height="460mm" viewBox="-137 -815 272 460" xmlns="http://www.w3.org/2000/svg" version="1.1">
<title>OpenSCAD Model</title>
<path d="
M 130.937,-589.589 L 131.545,-589.745 L 132.129,-589.976 L 132.679,-590.278 L 133.187,-590.647 L 133.645,-591.077
 L 134.045,-591.561 L 134.382,-592.091 L 134.649,-592.659 L 134.843,-593.257 L 134.961,-593.873 L 135,-594.5
 L 135,-809.5 L 134.961,-810.127 L 134.843,-810.743 L 134.649,-811.341 L 134.382,-811.909 L 134.045,-812.439
 L 133.645,-812.923 L 133.187,-813.353 L 132.679,-813.722 L 132.129,-814.024 L 131.545,-814.255 L 130.937,-814.411
 L 130.314,-814.49 L -130.314,-814.49 L -130.937,-814.411 L -131.545,-814.255 L -132.129,-814.024 L -132.679,-813.722
 L -133.187,-813.353 L -133.5,-813.059 L -133.5,-814.479 L -136.5,-814.479 L -136.5,-589.521 L -133.5,-589.521
 L -133.5,-590.941 L -133.187,-590.647 L -132.679,-590.278 L -132.129,-589.976 L -131.545,-589.745 L -130.937,-589.589
 L -130.314,-589.51 L 130.314,-589.51 z
M -129.695,-591.893 L -130.083,-591.942 L -130.462,-592.039 L -130.825,-592.183 L -131.168,-592.372 L -131.484,-592.601
 L -131.769,-592.869 L -132.018,-593.17 L -132.228,-593.5 L -132.394,-593.854 L -132.515,-594.226 L -132.588,-594.61
 L -132.613,-595 L -132.613,-809 L -132.588,-809.39 L -132.515,-809.774 L -132.394,-810.146 L -132.228,-810.5
 L -132.018,-810.83 L -131.769,-811.131 L -131.484,-811.399 L -131.168,-811.628 L -130.825,-811.817 L -130.462,-811.961
 L -130.083,-812.058 L -129.695,-812.107 L 129.695,-812.107 L 130.083,-812.058 L 130.462,-811.961 L 130.825,-811.817
 L 131.168,-811.628 L 131.484,-811.399 L 131.769,-811.131 L 132.018,-810.83 L 132.228,-810.5 L 132.394,-810.146
 L 132.515,-809.774 L 132.588,-809.39 L 132.613,-809 L 132.613,-595 L 132.588,-594.61 L 132.515,-594.226
 L 132.394,-593.854 L 132.228,-593.5 L 132.018,-593.17 L 131.769,-592.869 L 131.484,-592.601 L 131.168,-592.372
 L 130.825,-592.183 L 130.462,-592.039 L 130.083,-591.942 L 129.695,-591.893 z
M 130.937,-355.589 L 131.545,-355.745 L 132.129,-355.976 L 132.679,-356.278 L 133.187,-356.647 L 133.645,-357.077
 L 134.045,-357.561 L 134.382,-358.091 L 134.649,-358.659 L 134.843,-359.257 L 134.961,-359.873 L 135,-360.5
 L 135,-575.5 L 134.961,-576.127 L 134.843,-576.743 L 134.649,-577.341 L 134.382,-577.909 L 134.045,-578.439
 L 133.645,-578.923 L 133.187,-579.353 L 132.679,-579.722 L 132.129,-580.024 L 131.545,-580.255 L 130.937,-580.411
 L 130.314,-580.49 L -130.314,-580.49 L -130.937,-580.411 L -131.545,-580.255 L -132.129,-580.024 L -132.679,-579.722
 L -133.187,-579.353 L -133.5,-579.059 L -133.5,-579.153 L -136.5,-579.153 L -136.5,-356.847 L -133.5,-356.847
 L -133.5,-356.941 L -133.187,-356.647 L -132.679,-356.278 L -132.129,-355.976 L -131.545,-355.745 L -130.937,-355.589
 L -130.314,-355.51 L 130.314,-355.51 z
M 127.366,-570.869 L 127.1,-570.903 L 126.84,-570.969 L 126.591,-571.068 L 126.356,-571.197 L 126.139,-571.355
 L 125.943,-571.538 L 125.773,-571.745 L 125.629,-571.971 L 125.515,-572.214 L 125.432,-572.469 L 125.382,-572.732
 L 125.365,-573 L 125.382,-573.268 L 125.432,-573.531 L 125.515,-573.786 L 125.629,-574.029 L 125.773,-574.255
 L 125.943,-574.462 L 126.139,-574.645 L 126.356,-574.803 L 126.591,-574.932 L 126.84,-575.031 L 127.1,-575.097
 L 127.366,-575.131 L 127.634,-575.131 L 127.9,-575.097 L 128.16,-575.031 L 128.409,-574.932 L 128.644,-574.803
 L 128.861,-574.645 L 129.057,-574.462 L 129.227,-574.255 L 129.371,-574.029 L 129.485,-573.786 L 129.568,-573.531
 L 129.618,-573.268 L 129.635,-573 L 129.618,-572.732 L 129.568,-572.469 L 129.485,-572.214 L 129.371,-571.971
 L 129.227,-571.745 L 129.057,-571.538 L 128.861,-571.355 L 128.644,-571.197 L 128.409,-571.068 L 128.16,-570.969
 L 127.9,-570.903 L 127.634,-570.869 z
M -127.634,-570.869 L -127.9,-570.903 L -128.16,-570.969 L -128.409,-571.068 L -128.644,-571.197 L -128.861,-571.355
 L -129.057,-571.538 L -129.227,-571.745 L -129.371,-571.971 L -129.485,-572.214 L -129.568,-572.469 L -129.618,-572.732
 L -129.635,-573 L -129.618,-573.268 L -129.568,-573.531 L -129.485,-573.786 L -129.371,-574.029 L -129.227,-574.255
 L -129.057,-574.462 L -128.861,-574.645 L -128.644,-574.803 L -128.409,-574.932 L -128.16,-575.031 L -127.9,-575.097
 L -127.634,-575.131 L -127.366,-575.131 L -127.1,-575.097 L -126.84,-575.031 L -126.591,-574.932 L -126.356,-574.803
 L -126.139,-574.645 L -125.943,-574.462 L -125.773,-574.255 L -125.629,-574.029 L -125.515,-573.786 L -125.432,-573.531
 L -125.382,-573.268 L -125.365,-573 L -125.382,-572.732 L -125.432,-572.469 L -125.515,-572.214 L -125.629,-571.971
 L -125.773,-571.745 L -125.943,-571.538 L -126.139,-571.355 L -126.356,-571.197 L -126.591,-571.068 L -126.84,-570.969
 L -127.1,-570.903 L -127.366,-570.869 z
M 127.366,-360.869 L 127.1,-360.903 L 126.84,-360.969 L 126.591,-361.068 L 126.356,-361.197 L 126.139,-361.355
 L 125.943,-361.538 L 125.773,-361.745 L 125.629,-361.971 L 125.515,-362.214 L 125.432,-362.469 L 125.382,-362.732
 L 125.365,-363 L 125.382,-363.268 L 125.432,-363.531 L 125.515,-363.786 L 125.629,-364.029 L 125.773,-364.255
 L 125.943,-364.462 L 126.139,-364.645 L 126.356,-364.803 L 126.591,-364.932 L 126.84,-365.031 L 127.1,-365.097
 L 127.366,-365.131 L 127.634,-365.131 L 127.9,-365.097 L 128.16,-365.031 L 128.409,-364.932 L 128.644,-364.803
 L 128.861,-364.645 L 129.057,-364.462 L 129.227,-364.255 L 129.371,-364.029 L 129.485,-363.786 L 129.568,-363.531
 L 129.618,-363.268 L 129.635,-363 L 129.618,-362.732 L 129.568,-362.469 L 129.485,-362.214 L 129.371,-361.971
 L 129.227,-361.745 L 129.057,-361.538 L 128.861,-361.355 L 128.644,-361.197 L 128.409,-361.068 L 128.16,-360.969
 L 127.9,-360.903 L 127.634,-360.869 z
M -127.634,-360.869 L -127.9,-360.903 L -128.16,-360.969 L -128.409,-361.068 L -128.644,-361.197 L -128.861,-361.355
 L -129.057,-361.538 L -129.227,-361.745 L -129.371,-361.971 L -129.485,-362.214 L -129.568,-362.469 L -129.618,-362.732
 L -129.635,-363 L -129.618,-363.268 L -129.568,-363.531 L -129.485,-363.786 L -129.371,-364.029 L -129.227,-364.255
 L -129.057,-364.462 L -128.861,-364.645 L -128.644,-364.803 L -128.409,-364.932 L -128.16,-365.031 L -127.9,-365.097
 L -127.634,-365.131 L -127.366,-365.131 L -127.1,-365.097 L -126.84,-365.031 L -126.591,-364.932 L -126.356,-364.803
 L -126.139,-364.645 L -125.943,-364.462 L -125.773,-364.255 L -125.629,-364.029 L -125.515,-363.786 L -125.432,-363.531
 L -125.382,-363.268 L -125.365,-363 L -125.382,-362.732 L -125.432,-362.469 L -125.515,-362.214 L -125.629,-361.971
 L -125.773,-361.745 L -125.943,-361.538 L -126.139,-361.355 L -126.356,-361.197 L -126.591,-361.068 L -126.84,-360.969
 L -127.1,-360.903 L -127.366,-360.869 z
" stroke="black" fill="lightgray" stroke-width="0.5"/>
</svg>
