<?xml version="1.0" standalone="no"?>
<!DOCTYPE svg PUBLIC "-//W3C//DTD SVG 1.1//EN" "http://www.w3.org/Graphics/SVG/1.1/DTD/svg11.dtd">
<svg width="272mm" height="507mm" viewBox="-137 -963 272 507" xmlns="http://www.w3.org/2000/svg" version="1.1">
<title>OpenSCAD Model</title>
<path d="
M -133.5,-844.441 L -133.187,-844.147 L -132.679,-843.778 L -132.129,-843.476 L -131.545,-843.245 L -130.937,-843.089
 L -130.314,-843.01 L 130.314,-843.01 L 130.937,-843.089 L 131.545,-843.245 L 132.129,-843.476 L 132.679,-843.778
 L 133.187,-844.147 L 133.645,-844.577 L 134.045,-845.061 L 134.382,-845.591 L 134.649,-846.159 L 134.843,-846.757
 L 134.961,-847.373 L 135,-848 L 135,-958 L 134.961,-958.627 L 134.843,-959.243 L 134.649,-959.841
 L 134.382,-960.409 L 134.045,-960.939 L 133.645,-961.423 L 133.187,-961.853 L 132.679,-962.222 L 132.129,-962.524
 L 131.545,-962.755 L 130.937,-962.911 L 130.314,-962.99 L -130.314,-962.99 L -130.937,-962.911 L -131.545,-962.755
 L -132.129,-962.524 L -132.679,-962.222 L -133.187,-961.853 L -133.5,-961.559 L -133.5,-962.99 L -136.5,-962.99
 L -136.5,-843.01 L -133.5,-843.01 z
M -129.751,-844.508 L -130.25,-844.571 L -130.736,-844.696 L -131.203,-844.881 L -131.643,-845.123 L -132.05,-845.418
 L -132.416,-845.762 L -132.736,-846.149 L -133.005,-846.573 L -133.219,-847.028 L -133.374,-847.505 L -133.468,-847.999
 L -133.5,-848.5 L -133.5,-957.5 L -133.468,-958.001 L -133.374,-958.495 L -133.219,-958.972 L -133.005,-959.427
 L -132.736,-959.851 L -132.416,-960.238 L -132.05,-960.582 L -131.643,-960.877 L -131.203,-961.119 L -130.736,-961.304
 L -130.25,-961.429 L -129.751,-961.492 L 129.751,-961.492 L 130.25,-961.429 L 130.736,-961.304 L 131.203,-961.119
 L 131.643,-960.877 L 132.05,-960.582 L 132.416,-960.238 L 132.736,-959.851 L 133.005,-959.427 L 133.219,-958.972
 L 133.374,-958.495 L 133.468,-958.001 L 133.5,-957.5 L 133.5,-848.5 L 133.468,-847.999 L 133.374,-847.505
 L 133.219,-847.028 L 133.005,-846.573 L 132.736,-846.149 L 132.416,-845.762 L 132.05,-845.418 L 131.643,-845.123
 L 131.203,-844.881 L 130.736,-844.696 L 130.25,-844.571 L 129.751,-844.508 z
M -133.5,-715.441 L -133.187,-715.147 L -132.679,-714.778 L -132.129,-714.476 L -131.545,-714.245 L -130.937,-714.089
 L -130.314,-714.01 L 130.314,-714.01 L 130.937,-714.089 L 131.545,-714.245 L 132.129,-714.476 L 132.679,-714.778
 L 133.187,-715.147 L 133.645,-715.577 L 134.045,-716.061 L 134.382,-716.591 L 134.649,-717.159 L 134.843,-717.757
 L 134.961,-718.373 L 135,-719 L 135,-829 L 134.961,-829.627 L 134.843,-830.243 L 134.649,-830.841
 L 134.382,-831.409 L 134.045,-831.939 L 133.645,-832.423 L 133.187,-832.853 L 132.679,-833.222 L 132.129,-833.524
 L 131.545,-833.755 L 130.937,-833.911 L 130.314,-833.99 L -130.314,-833.99 L -130.937,-833.911 L -131.545,-833.755
 L -132.129,-833.524 L -132.679,-833.222 L -133.187,-832.853 L -133.5,-832.559 L -133.5,-833.99 L -136.5,-833.99
 L -136.5,-714.01 L -133.5,-714.01 z
M -129.751,-715.508 L -130.25,-715.571 L -130.736,-715.696 L -131.203,-715.881 L -131.643,-716.123 L -132.05,-716.418
 L -132.416,-716.762 L -132.736,-717.149 L -133.005,-717.573 L -133.219,-718.028 L -133.374,-718.505 L -133.468,-718.999
 L -133.5,-719.5 L -133.5,-828.5 L -133.468,-829.001 L -133.374,-829.495 L -133.219,-829.972 L -133.005,-830.427
 L -132.736,-830.851 L -132.416,-831.238 L -132.05,-831.582 L -131.643,-831.877 L -131.203,-832.119 L -130.736,-832.304
 L -130.25,-832.429 L -129.751,-832.492 L 129.751,-832.492 L 130.25,-832.429 L 130.736,-832.304 L 131.203,-832.119
 L 131.643,-831.877 L 132.05,-831.582 L 132.416,-831.238 L 132.736,-830.851 L 133.005,-830.427 L 133.219,-829.972
 L 133.374,-829.495 L 133.468,-829.001 L 133.5,-828.5 L 133.5,-719.5 L 133.468,-718.999 L 133.374,-718.505
 L 133.219,-718.028 L 133.005,-717.573 L 132.736,-717.149 L 132.416,-716.762 L 132.05,-716.418 L 131.643,-716.123
 L 131.203,-715.881 L 130.736,-715.696 L 130.25,-715.571 L 129.751,-715.508 z
M 130.937,-585.089 L 131.545,-585.245 L 132.129,-585.476 L 132.679,-585.778 L 133.187,-586.147 L 133.645,-586.577
 L 134.045,-587.061 L 134.382,-587.591 L 134.649,-588.159 L 134.843,-588.757 L 134.961,-589.373 L 135,-590
 L 135,-700 L 134.961,-700.627 L 134.843,-701.243 L 134.649,-701.841 L 134.382,-702.409 L 134.045,-702.939
 L 133.645,-703.423 L 133.187,-703.853 L 132.679,-704.222 L 132.129,-704.524 L 131.545,-704.755 L 130.937,-704.911
 L 130.314,-704.99 L -130.314,-704.99 L -130.937,-704.911 L -131.545,-704.755 L -132.129,-704.524 L -132.679,-704.222
 L -133.187,-703.853 L -133.5,-703.559 L -133.5,-704.979 L -136.5,-704.979 L -136.5,-585.021 L -133.5,-585.021
 L -133.5,-586.441 L -133.187,-586.147 L -132.679,-585.778 L -132.129,-585.476 L -131.545,-585.245 L -130.937,-585.089
 L -130.314,-585.01 L 130.314,-585.01 z
M -129.695,-587.393 L -130.083,-587.442 L -130.462,-587.539 L -130.825,-587.683 L -131.168,-587.872 L -131.484,-588.101
 L -131.769,-588.369 L -132.018,-588.67 L -132.228,-589 L -132.394,-589.354 L -132.515,-589.726 L -132.588,-590.11
 L -132.613,-590.5 L -132.613,-699.5 L -132.588,-699.89 L -132.515,-700.274 L -132.394,-700.646 L -132.228,-701
 L -132.018,-701.33 L -131.769,-701.631 L -131.484,-701.899 L -131.168,-702.128 L -130.825,-702.317 L -130.462,-702.461
 L -130.083,-702.558 L -129.695,-702.607 L 129.695,-702.607 L 130.083,-702.558 L 130.462,-702.461 L 130.825,-702.317
 L 131.168,-702.128 L 131.484,-701.899 L 131.769,-701.631 L 132.018,-701.33 L 132.228,-701 L 132.394,-700.646
 L 132.515,-700.274 L 132.588,-699.89 L 132.613,-699.5 L 132.613,-590.5 L 132.588,-590.11 L 132.515,-589.726
 L 132.394,-589.354 L 132.228,-589 L 132.018,-588.67 L 131.769,-588.369 L 131.484,-588.101 L 131.168,-587.872
 L 130.825,-587.683 L 130.462,-587.539 L 130.083,-587.442 L 129.695,-587.393 z
M 130.937,-456.089 L 131.545,-456.245 L 132.129,-456.476 L 132.679,-456.778 L 133.187,-457.147 L 133.645,-457.577
 L 134.045,-458.061 L 134.382,-458.591 L 134.649,-459.159 L 134.843,-459.757 L 134.961,-460.373 L 135,-461
 L 135,-571 L 134.961,-571.627 L 134.843,-572.243 L 134.649,-572.841 L 134.382,-573.409 L 134.045,-573.939
 L 133.645,-574.423 L 133.187,-574.853 L 132.679,-575.222 L 132.129,-575.524 L 131.545,-575.755 L 130.937,-575.911
 L 130.314,-575.99 L -130.314,-575.99 L -130.937,-575.911 L -131.545,-575.755 L -132.129,-575.524 L -132.679,-575.222
 L -133.187,-574.853 L -133.5,-574.559 L -133.5,-574.653 L -136.5,-574.653 L -136.5,-457.347 L -133.5,-457.347
 L -133.5,-457.441 L -133.187,-457.147 L -132.679,-456.778 L -132.129,-456.476 L -131.545,-456.245 L -130.937,-456.089
 L -130.314,-456.01 L 130.314,-456.01 z
M -127.634,-566.369 L -127.9,-566.403 L -128.16,-566.469 L -128.409,-566.568 L -128.644,-566.697 L -128.861,-566.855
 L -129.057,-567.038 L -129.227,-567.245 L -129.371,-567.471 L -129.485,-567.714 L -129.568,-567.969 L -129.618,-568.232
 L -129.635,-568.5 L -129.618,-568.768 L -129.568,-569.031 L -129.485,-569.286 L -129.371,-569.529 L -129.227,-569.755
 L -129.057,-569.962 L -128.861,-570.145 L -128.644,-570.303 L -128.409,-570.432 L -128.16,-570.531 L -127.9,-570.597
 L -127.634,-570.631 L -127.366,-570.631 L -127.1,-570.597 L -126.84,-570.531 L -126.591,-570.432 L -126.356,-570.303
 L -126.139,-570.145 L -125.943,-569.962 L -125.773,-569.755 L -125.629,-569.529 L -125.515,-569.286 L -125.432,-569.031
 L -125.382,-568.768 L -125.365,-568.5 L -125.382,-568.232 L -125.432,-567.969 L -125.515,-567.714 L -125.629,-567.471
 L -125.773,-567.245 L -125.943,-567.038 L -126.139,-566.855 L -126.356,-566.697 L -126.591,-566.568 L -126.84,-566.469
 L -127.1,-566.403 L -127.366,-566.369 z
M 127.366,-566.369 L 127.1,-566.403 L 126.84,-566.469 L 126.591,-566.568 L 126.356,-566.697 L 126.139,-566.855
 L 125.943,-567.038 L 125.773,-567.245 L 125.629,-567.471 L 125.515,-567.714 L 125.432,-567.969 L 125.382,-568.232
 L 125.365,-568.5 L 125.382,-568.768 L 125.432,-569.031 L 125.515,-569.286 L 125.629,-569.529 L 125.773,-569.755
 L 125.943,-569.962 L 126.139,-570.145 L 126.356,-570.303 L 126.591,-570.432 L 126.84,-570.531 L 127.1,-570.597
 L 127.366,-570.631 L 127.634,-570.631 L 127.9,-570.597 L 128.16,-570.531 L 128.409,-570.432 L 128.644,-570.303
 L 128.861,-570.145 L 129.057,-569.962 L 129.227,-569.755 L 129.371,-569.529 L 129.485,-569.286 L 129.568,-569.031
 L 129.618,-568.768 L 129.635,-568.5 L 129.618,-568.232 L 129.568,-567.969 L 129.485,-567.714 L 129.371,-567.471
 L 129.227,-567.245 L 129.057,-567.038 L 128.861,-566.855 L 128.644,-566.697 L 128.409,-566.568 L 128.16,-566.469
 L 127.9,-566.403 L 127.634,-566.369 z
M -127.634,-461.369 L -127.9,-461.403 L -128.16,-461.469 L -128.409,-461.568 L -128.644,-461.697 L -128.861,-461.855
 L -129.057,-462.038 L -129.227,-462.245 L -129.371,-462.471 L -129.485,-462.714 L -129.568,-462.969 L -129.618,-463.232
 L -129.635,-463.5 L -129.618,-463.768 L -129.568,-464.031 L -129.485,-464.286 L -129.371,-464.529 L -129.227,-464.755
 L -129.057,-464.962 L -128.861,-465.145 L -128.644,-465.303 L -128.409,-465.432 L -128.16,-465.531 L -127.9,-465.597
 L -127.634,-465.631 L -127.366,-465.631 L -127.1,-465.597 L -126.84,-465.531 L -126.591,-465.432 L -126.356,-465.303
 L -126.139,-465.145 L -125.943,-464.962 L -125.773,-464.755 L -125.629,-464.529 L -125.515,-464.286 L -125.432,-464.031
 L -125.382,-463.768 L -125.365,-463.5 L -125.382,-463.232 L -125.432,-462.969 L -125.515,-462.714 L -125.629,-462.471
 L -125.773,-462.245 L -125.943,-462.038 L -126.139,-461.855 L -126.356,-461.697 L -126.591,-461.568 L -126.84,-461.469
 L -127.1,-461.403 L -127.366,-461.369 z
M 127.366,-461.369 L 127.1,-461.403 L 126.84,-461.469 L 126.591,-461.568 L 126.356,-461.697 L 126.139,-461.855
 L 125.943,-462.038 L 125.773,-462.245 L 125.629,-462.471 L 125.515,-462.714 L 125.432,-462.969 L 125.382,-463.232
 L 125.365,-463.5 L 125.382,-463.768 L 125.432,-464.031 L 125.515,-464.286 L 125.629,-464.529 L 125.773,-464.755
 L 125.943,-464.962 L 126.139,-465.145 L 126.356,-465.303 L 126.591,-465.432 L 126.84,-465.531 L 127.1,-465.597
 L 127.366,-465.631 L 127.634,-465.631 L 127.9,-465.597 L 128.16,-465.531 L 128.409,-465.432 L 128.644,-465.303
 L 128.861,-465.145 L 129.057,-464.962 L 129.227,-464.755 L 129.371,-464.529 L 129.485,-464.286 L 129.568,-464.031
 L 129.618,-463.768 L 129.635,-463.5 L 129.618,-463.232 L 129.568,-462.969 L 129.485,-462.714 L 129.371,-462.471
 L 129.227,-462.245 L 129.057,-462.038 L 128.861,-461.855 L 128.644,-461.697 L 128.409,-461.568 L 128.16,-461.469
 L 127.9,-461.403 L 127.634,-461.369 z
" stroke="black" fill="lightgray" stroke-width="0.5"/>
</svg>
