<?xml version="1.0" standalone="no"?>
<!DOCTYPE svg PUBLIC "-//W3C//DTD SVG 1.1//EN" "http://www.w3.org/Graphics/SVG/1.1/DTD/svg11.dtd">
<svg width="300mm" height="747mm" viewBox="-150 -1224 300 747" xmlns="http://www.w3.org/2000/svg" version="1.1">
<title>OpenSCAD Model</title>
<path d="
M 145.937,-1044.09 L 146.545,-1044.24 L 147.129,-1044.48 L 147.679,-1044.78 L 148.187,-1045.15 L 148.645,-1045.58
 L 149.045,-1046.06 L 149.382,-1046.59 L 149.649,-1047.16 L 149.843,-1047.76 L 149.961,-1048.37 L 150,-1049
 L 150,-1219 L 149.961,-1219.63 L 149.843,-1220.24 L 149.649,-1220.84 L 149.382,-1221.41 L 149.045,-1221.94
 L 148.645,-1222.42 L 148.187,-1222.85 L 147.679,-1223.22 L 147.129,-1223.52 L 146.545,-1223.76 L 145.937,-1223.91
 L 145.314,-1223.99 L -145.314,-1223.99 L -145.937,-1223.91 L -146.545,-1223.76 L -147.129,-1223.52 L -147.679,-1223.22
 L -148.187,-1222.85 L -148.645,-1222.42 L -149.045,-1221.94 L -149.382,-1221.41 L -149.649,-1220.84 L -149.843,-1220.24
 L -149.961,-1219.63 L -150,-1219 L -150,-1049 L -149.961,-1048.37 L -149.843,-1047.76 L -149.649,-1047.16
 L -149.382,-1046.59 L -149.045,-1046.06 L -148.645,-1045.58 L -148.187,-1045.15 L -147.679,-1044.78 L -147.129,-1044.48
 L -146.545,-1044.24 L -145.937,-1044.09 L -145.314,-1044.01 L 145.314,-1044.01 z
M -145.048,-1044.51 L -145.64,-1044.58 L -146.218,-1044.73 L -146.772,-1044.95 L -147.295,-1045.24 L -147.778,-1045.59
 L -148.213,-1046 L -148.593,-1046.46 L -148.912,-1046.96 L -149.166,-1047.5 L -149.351,-1048.07 L -149.463,-1048.65
 L -149.5,-1049.25 L -149.5,-1218.75 L -149.463,-1219.35 L -149.351,-1219.93 L -149.166,-1220.5 L -148.912,-1221.04
 L -148.593,-1221.54 L -148.213,-1222 L -147.778,-1222.41 L -147.295,-1222.76 L -146.772,-1223.05 L -146.218,-1223.27
 L -145.64,-1223.42 L -145.048,-1223.49 L 145.048,-1223.49 L 145.64,-1223.42 L 146.218,-1223.27 L 146.772,-1223.05
 L 147.295,-1222.76 L 147.778,-1222.41 L 148.213,-1222 L 148.593,-1221.54 L 148.912,-1221.04 L 149.166,-1220.5
 L 149.351,-1219.93 L 149.463,-1219.35 L 149.5,-1218.75 L 149.5,-1049.25 L 149.463,-1048.65 L 149.351,-1048.07
 L 149.166,-1047.5 L 148.912,-1046.96 L 148.593,-1046.46 L 148.213,-1046 L 147.778,-1045.59 L 147.295,-1045.24
 L 146.772,-1044.95 L 146.218,-1044.73 L 145.64,-1044.58 L 145.048,-1044.51 z
M 145.937,-855.089 L 146.545,-855.245 L 147.129,-855.476 L 147.679,-855.778 L 148.187,-856.147 L 148.645,-856.577
 L 149.045,-857.061 L 149.382,-857.591 L 149.649,-858.159 L 149.843,-858.757 L 149.961,-859.373 L 150,-860
 L 150,-1030 L 149.961,-1030.63 L 149.843,-1031.24 L 149.649,-1031.84 L 149.382,-1032.41 L 149.045,-1032.94
 L 148.645,-1033.42 L 148.187,-1033.85 L 147.679,-1034.22 L 147.129,-1034.52 L 146.545,-1034.76 L 145.937,-1034.91
 L 145.314,-1034.99 L -145.314,-1034.99 L -145.937,-1034.91 L -146.545,-1034.76 L -147.129,-1034.52 L -147.679,-1034.22
 L -148.187,-1033.85 L -148.645,-1033.42 L -149.045,-1032.94 L -149.382,-1032.41 L -149.649,-1031.84 L -149.843,-1031.24
 L -149.961,-1030.63 L -150,-1030 L -150,-860 L -149.961,-859.373 L -149.843,-858.757 L -149.649,-858.159
 L -149.382,-857.591 L -149.045,-857.061 L -148.645,-856.577 L -148.187,-856.147 L -147.679,-855.778 L -147.129,-855.476
 L -146.545,-855.245 L -145.937,-855.089 L -145.314,-855.01 L 145.314,-855.01 z
M -145.048,-855.509 L -145.64,-855.584 L -146.218,-855.732 L -146.772,-855.952 L -147.295,-856.239 L -147.778,-856.59
 L -148.213,-856.998 L -148.593,-857.458 L -148.912,-857.962 L -149.166,-858.501 L -149.351,-859.069 L -149.463,-859.655
 L -149.5,-860.25 L -149.5,-1029.75 L -149.463,-1030.35 L -149.351,-1030.93 L -149.166,-1031.5 L -148.912,-1032.04
 L -148.593,-1032.54 L -148.213,-1033 L -147.778,-1033.41 L -147.295,-1033.76 L -146.772,-1034.05 L -146.218,-1034.27
 L -145.64,-1034.42 L -145.048,-1034.49 L 145.048,-1034.49 L 145.64,-1034.42 L 146.218,-1034.27 L 146.772,-1034.05
 L 147.295,-1033.76 L 147.778,-1033.41 L 148.213,-1033 L 148.593,-1032.54 L 148.912,-1032.04 L 149.166,-1031.5
 L 149.351,-1030.93 L 149.463,-1030.35 L 149.5,-1029.75 L 149.5,-860.25 L 149.463,-859.655 L 149.351,-859.069
 L 149.166,-858.501 L 148.912,-857.962 L 148.593,-857.458 L 148.213,-856.998 L 147.778,-856.59 L 147.295,-856.239
 L 146.772,-855.952 L 146.218,-855.732 L 145.64,-855.584 L 145.048,-855.509 z
M 145.937,-666.089 L 146.545,-666.245 L 147.129,-666.476 L 147.679,-666.778 L 148.187,-667.147 L 148.645,-667.577
 L 149.045,-668.061 L 149.382,-668.591 L 149.649,-669.159 L 149.843,-669.757 L 149.961,-670.373 L 150,-671
 L 150,-841 L 149.961,-841.627 L 149.843,-842.243 L 149.649,-842.841 L 149.382,-843.409 L 149.045,-843.939
 L 148.645,-844.423 L 148.187,-844.853 L 147.679,-845.222 L 147.129,-845.524 L 146.545,-845.755 L 145.937,-845.911
 L 145.314,-845.99 L -145.314,-845.99 L -145.937,-845.911 L -146.545,-845.755 L -147.129,-845.524 L -147.679,-845.222
 L -148.187,-844.853 L -148.645,-844.423 L -149.045,-843.939 L -149.382,-843.409 L -149.649,-842.841 L -149.843,-842.243
 L -149.961,-841.627 L -150,-841 L -150,-671 L -149.961,-670.373 L -149.843,-669.757 L -149.649,-669.159
 L -149.382,-668.591 L -149.045,-668.061 L -148.645,-667.577 L -148.187,-667.147 L -147.679,-666.778 L -147.129,-666.476
 L -146.545,-666.245 L -145.937,-666.089 L -145.314,-666.01 L 145.314,-666.01 z
M -144.993,-667.388 L -145.475,-667.449 L -145.946,-667.57 L -146.398,-667.749 L -146.823,-667.983 L -147.216,-668.269
 L -147.571,-668.601 L -147.88,-668.976 L -148.141,-669.386 L -148.348,-669.826 L -148.498,-670.288 L -148.589,-670.765
 L -148.619,-671.25 L -148.619,-840.75 L -148.589,-841.235 L -148.498,-841.712 L -148.348,-842.174 L -148.141,-842.614
 L -147.88,-843.024 L -147.571,-843.399 L -147.216,-843.731 L -146.823,-844.017 L -146.398,-844.251 L -145.946,-844.43
 L -145.475,-844.551 L -144.993,-844.612 L 144.993,-844.612 L 145.475,-844.551 L 145.946,-844.43 L 146.398,-844.251
 L 146.823,-844.017 L 147.216,-843.731 L 147.571,-843.399 L 147.88,-843.024 L 148.141,-842.614 L 148.348,-842.174
 L 148.498,-841.712 L 148.589,-841.235 L 148.619,-840.75 L 148.619,-671.25 L 148.589,-670.765 L 148.498,-670.288
 L 148.348,-669.826 L 148.141,-669.386 L 147.88,-668.976 L 147.571,-668.601 L 147.216,-668.269 L 146.823,-667.983
 L 146.398,-667.749 L 145.946,-667.57 L 145.475,-667.449 L 144.993,-667.388 z
M 145.937,-477.089 L 146.545,-477.245 L 147.129,-477.476 L 147.679,-477.778 L 148.187,-478.147 L 148.645,-478.577
 L 149.045,-479.061 L 149.382,-479.591 L 149.649,-480.159 L 149.843,-480.757 L 149.961,-481.373 L 150,-482
 L 150,-652 L 149.961,-652.627 L 149.843,-653.243 L 149.649,-653.841 L 149.382,-654.409 L 149.045,-654.939
 L 148.645,-655.423 L 148.187,-655.853 L 147.679,-656.222 L 147.129,-656.524 L 146.545,-656.755 L 145.937,-656.911
 L 145.314,-656.99 L -145.314,-656.99 L -145.937,-656.911 L -146.545,-656.755 L -147.129,-656.524 L -147.679,-656.222
 L -148.187,-655.853 L -148.645,-655.423 L -149.045,-654.939 L -149.382,-654.409 L -149.649,-653.841 L -149.843,-653.243
 L -149.961,-652.627 L -150,-652 L -150,-482 L -149.961,-481.373 L -149.843,-480.757 L -149.649,-480.159
 L -149.382,-479.591 L -149.045,-479.061 L -148.645,-478.577 L -148.187,-478.147 L -147.679,-477.778 L -147.129,-477.476
 L -146.545,-477.245 L -145.937,-477.089 L -145.314,-477.01 L 145.314,-477.01 z
M -142.613,-647.704 L -142.837,-647.732 L -143.056,-647.788 L -143.266,-647.871 L -143.464,-647.98 L -143.647,-648.113
 L -143.812,-648.268 L -143.956,-648.442 L -144.077,-648.633 L -144.174,-648.837 L -144.243,-649.052 L -144.286,-649.274
 L -144.3,-649.5 L -144.286,-649.726 L -144.243,-649.948 L -144.174,-650.163 L -144.077,-650.367 L -143.956,-650.558
 L -143.812,-650.732 L -143.647,-650.887 L -143.464,-651.02 L -143.266,-651.129 L -143.056,-651.212 L -142.837,-651.268
 L -142.613,-651.296 L -142.387,-651.296 L -142.163,-651.268 L -141.944,-651.212 L -141.734,-651.129 L -141.536,-651.02
 L -141.353,-650.887 L -141.188,-650.732 L -141.044,-650.558 L -140.923,-650.367 L -140.826,-650.163 L -140.757,-649.948
 L -140.714,-649.726 L -140.7,-649.5 L -140.714,-649.274 L -140.757,-649.052 L -140.826,-648.837 L -140.923,-648.633
 L -141.044,-648.442 L -141.188,-648.268 L -141.353,-648.113 L -141.536,-647.98 L -141.734,-647.871 L -141.944,-647.788
 L -142.163,-647.732 L -142.387,-647.704 z
M 142.387,-647.704 L 142.163,-647.732 L 141.944,-647.788 L 141.734,-647.871 L 141.536,-647.98 L 141.353,-648.113
 L 141.188,-648.268 L 141.044,-648.442 L 140.923,-648.633 L 140.826,-648.837 L 140.757,-649.052 L 140.714,-649.274
 L 140.7,-649.5 L 140.714,-649.726 L 140.757,-649.948 L 140.826,-650.163 L 140.923,-650.367 L 141.044,-650.558
 L 141.188,-650.732 L 141.353,-650.887 L 141.536,-651.02 L 141.734,-651.129 L 141.944,-651.212 L 142.163,-651.268
 L 142.387,-651.296 L 142.613,-651.296 L 142.837,-651.268 L 143.056,-651.212 L 143.266,-651.129 L 143.464,-651.02
 L 143.647,-650.887 L 143.812,-650.732 L 143.956,-650.558 L 144.077,-650.367 L 144.174,-650.163 L 144.243,-649.948
 L 144.286,-649.726 L 144.3,-649.5 L 144.286,-649.274 L 144.243,-649.052 L 144.174,-648.837 L 144.077,-648.633
 L 143.956,-648.442 L 143.812,-648.268 L 143.647,-648.113 L 143.464,-647.98 L 143.266,-647.871 L 143.056,-647.788
 L 142.837,-647.732 L 142.613,-647.704 z
M -142.613,-482.704 L -142.837,-482.732 L -143.056,-482.788 L -143.266,-482.871 L -143.464,-482.98 L -143.647,-483.113
 L -143.812,-483.268 L -143.956,-483.442 L -144.077,-483.633 L -144.174,-483.837 L -144.243,-484.052 L -144.286,-484.274
 L -144.3,-484.5 L -144.286,-484.726 L -144.243,-484.948 L -144.174,-485.163 L -144.077,-485.367 L -143.956,-485.558
 L -143.812,-485.732 L -143.647,-485.887 L -143.464,-486.02 L -143.266,-486.129 L -143.056,-486.212 L -142.837,-486.268
 L -142.613,-486.296 L -142.387,-486.296 L -142.163,-486.268 L -141.944,-486.212 L -141.734,-486.129 L -141.536,-486.02
 L -141.353,-485.887 L -141.188,-485.732 L -141.044,-485.558 L -140.923,-485.367 L -140.826,-485.163 L -140.757,-484.948
 L -140.714,-484.726 L -140.7,-484.5 L -140.714,-484.274 L -140.757,-484.052 L -140.826,-483.837 L -140.923,-483.633
 L -141.044,-483.442 L -141.188,-483.268 L -141.353,-483.113 L -141.536,-482.98 L -141.734,-482.871 L -141.944,-482.788
 L -142.163,-482.732 L -142.387,-482.704 z
M 142.387,-482.704 L 142.163,-482.732 L 141.944,-482.788 L 141.734,-482.871 L 141.536,-482.98 L 141.353,-483.113
 L 141.188,-483.268 L 141.044,-483.442 L 140.923,-483.633 L 140.826,-483.837 L 140.757,-484.052 L 140.714,-484.274
 L 140.7,-484.5 L 140.714,-484.726 L 140.757,-484.948 L 140.826,-485.163 L 140.923,-485.367 L 141.044,-485.558
 L 141.188,-485.732 L 141.353,-485.887 L 141.536,-486.02 L 141.734,-486.129 L 141.944,-486.212 L 142.163,-486.268
 L 142.387,-486.296 L 142.613,-486.296 L 142.837,-486.268 L 143.056,-486.212 L 143.266,-486.129 L 143.464,-486.02
 L 143.647,-485.887 L 143.812,-485.732 L 143.956,-485.558 L 144.077,-485.367 L 144.174,-485.163 L 144.243,-484.948
 L 144.286,-484.726 L 144.3,-484.5 L 144.286,-484.274 L 144.243,-484.052 L 144.174,-483.837 L 144.077,-483.633
 L 143.956,-483.442 L 143.812,-483.268 L 143.647,-483.113 L 143.464,-482.98 L 143.266,-482.871 L 143.056,-482.788
 L 142.837,-482.732 L 142.613,-482.704 z
" stroke="black" fill="lightgray" stroke-width="0.5"/>
</svg>
