  0
SECTION
  2
BLOCKS
  0
ENDSEC
  0
SECTION
  2
ENTITIES
  0
LINE
  8
0
 10
130.937
 20
702.089
 11
131.545
 21
702.245
  0
LINE
  8
0
 10
131.545
 20
702.245
 11
132.129
 21
702.476
  0
LINE
  8
0
 10
132.129
 20
702.476
 11
132.679
 21
702.778
  0
LINE
  8
0
 10
132.679
 20
702.778
 11
133.187
 21
703.147
  0
LINE
  8
0
 10
133.187
 20
703.147
 11
133.645
 21
703.577
  0
LINE
  8
0
 10
133.645
 20
703.577
 11
134.045
 21
704.061
  0
LINE
  8
0
 10
134.045
 20
704.061
 11
134.382
 21
704.591
  0
LINE
  8
0
 10
134.382
 20
704.591
 11
134.649
 21
705.159
  0
LINE
  8
0
 10
134.649
 20
705.159
 11
134.843
 21
705.757
  0
LINE
  8
0
 10
134.843
 20
705.757
 11
134.961
 21
706.373
  0
LINE
  8
0
 10
134.961
 20
706.373
 11
135
 21
707
  0
LINE
  8
0
 10
135
 20
707
 11
135
 21
967
  0
LINE
  8
0
 10
135
 20
967
 11
134.961
 21
967.627
  0
LINE
  8
0
 10
134.961
 20
967.627
 11
134.843
 21
968.243
  0
LINE
  8
0
 10
134.843
 20
968.243
 11
134.649
 21
968.841
  0
LINE
  8
0
 10
134.649
 20
968.841
 11
134.382
 21
969.409
  0
LINE
  8
0
 10
134.382
 20
969.409
 11
134.045
 21
969.939
  0
LINE
  8
0
 10
134.045
 20
969.939
 11
133.645
 21
970.423
  0
LINE
  8
0
 10
133.645
 20
970.423
 11
133.187
 21
970.853
  0
LINE
  8
0
 10
133.187
 20
970.853
 11
132.679
 21
971.222
  0
LINE
  8
0
 10
132.679
 20
971.222
 11
132.129
 21
971.524
  0
LINE
  8
0
 10
132.129
 20
971.524
 11
131.545
 21
971.755
  0
LINE
  8
0
 10
131.545
 20
971.755
 11
130.937
 21
971.911
  0
LINE
  8
0
 10
130.937
 20
971.911
 11
130.314
 21
971.99
  0
LINE
  8
0
 10
130.314
 20
971.99
 11
-130.314
 21
971.99
  0
LINE
  8
0
 10
-130.314
 20
971.99
 11
-130.937
 21
971.911
  0
LINE
  8
0
 10
-130.937
 20
971.911
 11
-131.545
 21
971.755
  0
LINE
  8
0
 10
-131.545
 20
971.755
 11
-132.129
 21
971.524
  0
LINE
  8
0
 10
-132.129
 20
971.524
 11
-132.679
 21
971.222
  0
LINE
  8
0
 10
-132.679
 20
971.222
 11
-133.187
 21
970.853
  0
LINE
  8
0
 10
-133.187
 20
970.853
 11
-133.645
 21
970.423
  0
LINE
  8
0
 10
-133.645
 20
970.423
 11
-134.045
 21
969.939
  0
LINE
  8
0
 10
-134.045
 20
969.939
 11
-134.382
 21
969.409
  0
LINE
  8
0
 10
-134.382
 20
969.409
 11
-134.649
 21
968.841
  0
LINE
  8
0
 10
-134.649
 20
968.841
 11
-134.843
 21
968.243
  0
LINE
  8
0
 10
-134.843
 20
968.243
 11
-134.961
 21
967.627
  0
LINE
  8
0
 10
-134.961
 20
967.627
 11
-135
 21
967
  0
LINE
  8
0
 10
-135
 20
967
 11
-135
 21
707
  0
LINE
  8
0
 10
-135
 20
707
 11
-134.961
 21
706.373
  0
LINE
  8
0
 10
-134.961
 20
706.373
 11
-134.843
 21
705.757
  0
LINE
  8
0
 10
-134.843
 20
705.757
 11
-134.649
 21
705.159
  0
LINE
  8
0
 10
-134.649
 20
705.159
 11
-134.382
 21
704.591
  0
LINE
  8
0
 10
-134.382
 20
704.591
 11
-134.045
 21
704.061
  0
LINE
  8
0
 10
-134.045
 20
704.061
 11
-133.645
 21
703.577
  0
LINE
  8
0
 10
-133.645
 20
703.577
 11
-133.187
 21
703.147
  0
LINE
  8
0
 10
-133.187
 20
703.147
 11
-132.679
 21
702.778
  0
LINE
  8
0
 10
-132.679
 20
702.778
 11
-132.129
 21
702.476
  0
LINE
  8
0
 10
-132.129
 20
702.476
 11
-131.545
 21
702.245
  0
LINE
  8
0
 10
-131.545
 20
702.245
 11
-130.937
 21
702.089
  0
LINE
  8
0
 10
-130.937
 20
702.089
 11
-130.314
 21
702.01
  0
LINE
  8
0
 10
-130.314
 20
702.01
 11
130.314
 21
702.01
  0
LINE
  8
0
 10
130.314
 20
702.01
 11
130.937
 21
702.089
  0
LINE
  8
0
 10
-130.037
 20
702.681
 11
-130.608
 21
702.753
  0
LINE
  8
0
 10
-130.608
 20
702.753
 11
-131.165
 21
702.896
  0
LINE
  8
0
 10
-131.165
 20
702.896
 11
-131.699
 21
703.107
  0
LINE
  8
0
 10
-131.699
 20
703.107
 11
-132.203
 21
703.384
  0
LINE
  8
0
 10
-132.203
 20
703.384
 11
-132.668
 21
703.722
  0
LINE
  8
0
 10
-132.668
 20
703.722
 11
-133.088
 21
704.116
  0
LINE
  8
0
 10
-133.088
 20
704.116
 11
-133.454
 21
704.559
  0
LINE
  8
0
 10
-133.454
 20
704.559
 11
-133.762
 21
705.044
  0
LINE
  8
0
 10
-133.762
 20
705.044
 11
-134.007
 21
705.565
  0
LINE
  8
0
 10
-134.007
 20
705.565
 11
-134.185
 21
706.111
  0
LINE
  8
0
 10
-134.185
 20
706.111
 11
-134.292
 21
706.676
  0
LINE
  8
0
 10
-134.292
 20
706.676
 11
-134.328
 21
707.25
  0
LINE
  8
0
 10
-134.328
 20
707.25
 11
-134.328
 21
966.75
  0
LINE
  8
0
 10
-134.328
 20
966.75
 11
-134.292
 21
967.324
  0
LINE
  8
0
 10
-134.292
 20
967.324
 11
-134.185
 21
967.889
  0
LINE
  8
0
 10
-134.185
 20
967.889
 11
-134.007
 21
968.435
  0
LINE
  8
0
 10
-134.007
 20
968.435
 11
-133.762
 21
968.956
  0
LINE
  8
0
 10
-133.762
 20
968.956
 11
-133.454
 21
969.441
  0
LINE
  8
0
 10
-133.454
 20
969.441
 11
-133.088
 21
969.884
  0
LINE
  8
0
 10
-133.088
 20
969.884
 11
-132.668
 21
970.278
  0
LINE
  8
0
 10
-132.668
 20
970.278
 11
-132.203
 21
970.616
  0
LINE
  8
0
 10
-132.203
 20
970.616
 11
-131.699
 21
970.893
  0
LINE
  8
0
 10
-131.699
 20
970.893
 11
-131.165
 21
971.104
  0
LINE
  8
0
 10
-131.165
 20
971.104
 11
-130.608
 21
971.247
  0
LINE
  8
0
 10
-130.608
 20
971.247
 11
-130.037
 21
971.319
  0
LINE
  8
0
 10
-130.037
 20
971.319
 11
130.037
 21
971.319
  0
LINE
  8
0
 10
130.037
 20
971.319
 11
130.608
 21
971.247
  0
LINE
  8
0
 10
130.608
 20
971.247
 11
131.165
 21
971.104
  0
LINE
  8
0
 10
131.165
 20
971.104
 11
131.699
 21
970.893
  0
LINE
  8
0
 10
131.699
 20
970.893
 11
132.203
 21
970.616
  0
LINE
  8
0
 10
132.203
 20
970.616
 11
132.668
 21
970.278
  0
LINE
  8
0
 10
132.668
 20
970.278
 11
133.088
 21
969.884
  0
LINE
  8
0
 10
133.088
 20
969.884
 11
133.454
 21
969.441
  0
LINE
  8
0
 10
133.454
 20
969.441
 11
133.762
 21
968.956
  0
LINE
  8
0
 10
133.762
 20
968.956
 11
134.007
 21
968.435
  0
LINE
  8
0
 10
134.007
 20
968.435
 11
134.185
 21
967.889
  0
LINE
  8
0
 10
134.185
 20
967.889
 11
134.292
 21
967.324
  0
LINE
  8
0
 10
134.292
 20
967.324
 11
134.328
 21
966.75
  0
LINE
  8
0
 10
134.328
 20
966.75
 11
134.328
 21
707.25
  0
LINE
  8
0
 10
134.328
 20
707.25
 11
134.292
 21
706.676
  0
LINE
  8
0
 10
134.292
 20
706.676
 11
134.185
 21
706.111
  0
LINE
  8
0
 10
134.185
 20
706.111
 11
134.007
 21
705.565
  0
LINE
  8
0
 10
134.007
 20
705.565
 11
133.762
 21
705.044
  0
LINE
  8
0
 10
133.762
 20
705.044
 11
133.454
 21
704.559
  0
LINE
  8
0
 10
133.454
 20
704.559
 11
133.088
 21
704.116
  0
LINE
  8
0
 10
133.088
 20
704.116
 11
132.668
 21
703.722
  0
LINE
  8
0
 10
132.668
 20
703.722
 11
132.203
 21
703.384
  0
LINE
  8
0
 10
132.203
 20
703.384
 11
131.699
 21
703.107
  0
LINE
  8
0
 10
131.699
 20
703.107
 11
131.165
 21
702.896
  0
LINE
  8
0
 10
131.165
 20
702.896
 11
130.608
 21
702.753
  0
LINE
  8
0
 10
130.608
 20
702.753
 11
130.037
 21
702.681
  0
LINE
  8
0
 10
130.037
 20
702.681
 11
-130.037
 21
702.681
  0
LINE
  8
0
 10
130.937
 20
423.089
 11
131.545
 21
423.245
  0
LINE
  8
0
 10
131.545
 20
423.245
 11
132.129
 21
423.476
  0
LINE
  8
0
 10
132.129
 20
423.476
 11
132.679
 21
423.778
  0
LINE
  8
0
 10
132.679
 20
423.778
 11
133.187
 21
424.147
  0
LINE
  8
0
 10
133.187
 20
424.147
 11
133.645
 21
424.577
  0
LINE
  8
0
 10
133.645
 20
424.577
 11
134.045
 21
425.061
  0
LINE
  8
0
 10
134.045
 20
425.061
 11
134.382
 21
425.591
  0
LINE
  8
0
 10
134.382
 20
425.591
 11
134.649
 21
426.159
  0
LINE
  8
0
 10
134.649
 20
426.159
 11
134.843
 21
426.757
  0
LINE
  8
0
 10
134.843
 20
426.757
 11
134.961
 21
427.373
  0
LINE
  8
0
 10
134.961
 20
427.373
 11
135
 21
428
  0
LINE
  8
0
 10
135
 20
428
 11
135
 21
688
  0
LINE
  8
0
 10
135
 20
688
 11
134.961
 21
688.627
  0
LINE
  8
0
 10
134.961
 20
688.627
 11
134.843
 21
689.243
  0
LINE
  8
0
 10
134.843
 20
689.243
 11
134.649
 21
689.841
  0
LINE
  8
0
 10
134.649
 20
689.841
 11
134.382
 21
690.409
  0
LINE
  8
0
 10
134.382
 20
690.409
 11
134.045
 21
690.939
  0
LINE
  8
0
 10
134.045
 20
690.939
 11
133.645
 21
691.423
  0
LINE
  8
0
 10
133.645
 20
691.423
 11
133.187
 21
691.853
  0
LINE
  8
0
 10
133.187
 20
691.853
 11
132.679
 21
692.222
  0
LINE
  8
0
 10
132.679
 20
692.222
 11
132.129
 21
692.524
  0
LINE
  8
0
 10
132.129
 20
692.524
 11
131.545
 21
692.755
  0
LINE
  8
0
 10
131.545
 20
692.755
 11
130.937
 21
692.911
  0
LINE
  8
0
 10
130.937
 20
692.911
 11
130.314
 21
692.99
  0
LINE
  8
0
 10
130.314
 20
692.99
 11
-130.314
 21
692.99
  0
LINE
  8
0
 10
-130.314
 20
692.99
 11
-130.937
 21
692.911
  0
LINE
  8
0
 10
-130.937
 20
692.911
 11
-131.545
 21
692.755
  0
LINE
  8
0
 10
-131.545
 20
692.755
 11
-132.129
 21
692.524
  0
LINE
  8
0
 10
-132.129
 20
692.524
 11
-132.679
 21
692.222
  0
LINE
  8
0
 10
-132.679
 20
692.222
 11
-133.187
 21
691.853
  0
LINE
  8
0
 10
-133.187
 20
691.853
 11
-133.645
 21
691.423
  0
LINE
  8
0
 10
-133.645
 20
691.423
 11
-134.045
 21
690.939
  0
LINE
  8
0
 10
-134.045
 20
690.939
 11
-134.382
 21
690.409
  0
LINE
  8
0
 10
-134.382
 20
690.409
 11
-134.649
 21
689.841
  0
LINE
  8
0
 10
-134.649
 20
689.841
 11
-134.843
 21
689.243
  0
LINE
  8
0
 10
-134.843
 20
689.243
 11
-134.961
 21
688.627
  0
LINE
  8
0
 10
-134.961
 20
688.627
 11
-135
 21
688
  0
LINE
  8
0
 10
-135
 20
688
 11
-135
 21
428
  0
LINE
  8
0
 10
-135
 20
428
 11
-134.961
 21
427.373
  0
LINE
  8
0
 10
-134.961
 20
427.373
 11
-134.843
 21
426.757
  0
LINE
  8
0
 10
-134.843
 20
426.757
 11
-134.649
 21
426.159
  0
LINE
  8
0
 10
-134.649
 20
426.159
 11
-134.382
 21
425.591
  0
LINE
  8
0
 10
-134.382
 20
425.591
 11
-134.045
 21
425.061
  0
LINE
  8
0
 10
-134.045
 20
425.061
 11
-133.645
 21
424.577
  0
LINE
  8
0
 10
-133.645
 20
424.577
 11
-133.187
 21
424.147
  0
LINE
  8
0
 10
-133.187
 20
424.147
 11
-132.679
 21
423.778
  0
LINE
  8
0
 10
-132.679
 20
423.778
 11
-132.129
 21
423.476
  0
LINE
  8
0
 10
-132.129
 20
423.476
 11
-131.545
 21
423.245
  0
LINE
  8
0
 10
-131.545
 20
423.245
 11
-130.937
 21
423.089
  0
LINE
  8
0
 10
-130.937
 20
423.089
 11
-130.314
 21
423.01
  0
LINE
  8
0
 10
-130.314
 20
423.01
 11
130.314
 21
423.01
  0
LINE
  8
0
 10
130.314
 20
423.01
 11
130.937
 21
423.089
  0
LINE
  8
0
 10
-129.882
 20
426.145
 11
-130.145
 21
426.178
  0
LINE
  8
0
 10
-130.145
 20
426.178
 11
-130.402
 21
426.244
  0
LINE
  8
0
 10
-130.402
 20
426.244
 11
-130.648
 21
426.341
  0
LINE
  8
0
 10
-130.648
 20
426.341
 11
-130.88
 21
426.469
  0
LINE
  8
0
 10
-130.88
 20
426.469
 11
-131.095
 21
426.624
  0
LINE
  8
0
 10
-131.095
 20
426.624
 11
-131.288
 21
426.806
  0
LINE
  8
0
 10
-131.288
 20
426.806
 11
-131.457
 21
427.01
  0
LINE
  8
0
 10
-131.457
 20
427.01
 11
-131.599
 21
427.234
  0
LINE
  8
0
 10
-131.599
 20
427.234
 11
-131.711
 21
427.473
  0
LINE
  8
0
 10
-131.711
 20
427.473
 11
-131.793
 21
427.725
  0
LINE
  8
0
 10
-131.793
 20
427.725
 11
-131.843
 21
427.986
  0
LINE
  8
0
 10
-131.843
 20
427.986
 11
-131.86
 21
428.25
  0
LINE
  8
0
 10
-131.86
 20
428.25
 11
-131.86
 21
687.75
  0
LINE
  8
0
 10
-131.86
 20
687.75
 11
-131.843
 21
688.014
  0
LINE
  8
0
 10
-131.843
 20
688.014
 11
-131.793
 21
688.275
  0
LINE
  8
0
 10
-131.793
 20
688.275
 11
-131.711
 21
688.527
  0
LINE
  8
0
 10
-131.711
 20
688.527
 11
-131.599
 21
688.766
  0
LINE
  8
0
 10
-131.599
 20
688.766
 11
-131.457
 21
688.99
  0
LINE
  8
0
 10
-131.457
 20
688.99
 11
-131.288
 21
689.194
  0
LINE
  8
0
 10
-131.288
 20
689.194
 11
-131.095
 21
689.376
  0
LINE
  8
0
 10
-131.095
 20
689.376
 11
-130.88
 21
689.531
  0
LINE
  8
0
 10
-130.88
 20
689.531
 11
-130.648
 21
689.659
  0
LINE
  8
0
 10
-130.648
 20
689.659
 11
-130.402
 21
689.756
  0
LINE
  8
0
 10
-130.402
 20
689.756
 11
-130.145
 21
689.822
  0
LINE
  8
0
 10
-130.145
 20
689.822
 11
-129.882
 21
689.855
  0
LINE
  8
0
 10
-129.882
 20
689.855
 11
129.882
 21
689.855
  0
LINE
  8
0
 10
129.882
 20
689.855
 11
130.145
 21
689.822
  0
LINE
  8
0
 10
130.145
 20
689.822
 11
130.402
 21
689.756
  0
LINE
  8
0
 10
130.402
 20
689.756
 11
130.648
 21
689.659
  0
LINE
  8
0
 10
130.648
 20
689.659
 11
130.88
 21
689.531
  0
LINE
  8
0
 10
130.88
 20
689.531
 11
131.095
 21
689.376
  0
LINE
  8
0
 10
131.095
 20
689.376
 11
131.288
 21
689.194
  0
LINE
  8
0
 10
131.288
 20
689.194
 11
131.457
 21
688.99
  0
LINE
  8
0
 10
131.457
 20
688.99
 11
131.599
 21
688.766
  0
LINE
  8
0
 10
131.599
 20
688.766
 11
131.711
 21
688.527
  0
LINE
  8
0
 10
131.711
 20
688.527
 11
131.793
 21
688.275
  0
LINE
  8
0
 10
131.793
 20
688.275
 11
131.843
 21
688.014
  0
LINE
  8
0
 10
131.843
 20
688.014
 11
131.86
 21
687.75
  0
LINE
  8
0
 10
131.86
 20
687.75
 11
131.86
 21
428.25
  0
LINE
  8
0
 10
131.86
 20
428.25
 11
131.843
 21
427.986
  0
LINE
  8
0
 10
131.843
 20
427.986
 11
131.793
 21
427.725
  0
LINE
  8
0
 10
131.793
 20
427.725
 11
131.711
 21
427.473
  0
LINE
  8
0
 10
131.711
 20
427.473
 11
131.599
 21
427.234
  0
LINE
  8
0
 10
131.599
 20
427.234
 11
131.457
 21
427.01
  0
LINE
  8
0
 10
131.457
 20
427.01
 11
131.288
 21
426.806
  0
LINE
  8
0
 10
131.288
 20
426.806
 11
131.095
 21
426.624
  0
LINE
  8
0
 10
131.095
 20
426.624
 11
130.88
 21
426.469
  0
LINE
  8
0
 10
130.88
 20
426.469
 11
130.648
 21
426.341
  0
LINE
  8
0
 10
130.648
 20
426.341
 11
130.402
 21
426.244
  0
LINE
  8
0
 10
130.402
 20
426.244
 11
130.145
 21
426.178
  0
LINE
  8
0
 10
130.145
 20
426.178
 11
129.882
 21
426.145
  0
LINE
  8
0
 10
129.882
 20
426.145
 11
-129.882
 21
426.145
  0
ENDSEC
  0
SECTION
  2
OBJECTS
  0
DICTIONARY
  0
ENDSEC
  0
EOF
