  0
SECTION
  2
BLOCKS
  0
ENDSEC
  0
SECTION
  2
ENTITIES
  0
LINE
  8
0
 10
138.437
 20
1327.59
 11
139.045
 21
1327.74
  0
LINE
  8
0
 10
139.045
 20
1327.74
 11
139.629
 21
1327.98
  0
LINE
  8
0
 10
139.629
 20
1327.98
 11
140.179
 21
1328.28
  0
LINE
  8
0
 10
140.179
 20
1328.28
 11
140.687
 21
1328.65
  0
LINE
  8
0
 10
140.687
 20
1328.65
 11
141.145
 21
1329.08
  0
LINE
  8
0
 10
141.145
 20
1329.08
 11
141.545
 21
1329.56
  0
LINE
  8
0
 10
141.545
 20
1329.56
 11
141.882
 21
1330.09
  0
LINE
  8
0
 10
141.882
 20
1330.09
 11
142.149
 21
1330.66
  0
LINE
  8
0
 10
142.149
 20
1330.66
 11
142.343
 21
1331.26
  0
LINE
  8
0
 10
142.343
 20
1331.26
 11
142.461
 21
1331.87
  0
LINE
  8
0
 10
142.461
 20
1331.87
 11
142.5
 21
1332.5
  0
LINE
  8
0
 10
142.5
 20
1332.5
 11
142.5
 21
1607.5
  0
LINE
  8
0
 10
142.5
 20
1607.5
 11
142.461
 21
1608.13
  0
LINE
  8
0
 10
142.461
 20
1608.13
 11
142.343
 21
1608.74
  0
LINE
  8
0
 10
142.343
 20
1608.74
 11
142.149
 21
1609.34
  0
LINE
  8
0
 10
142.149
 20
1609.34
 11
141.882
 21
1609.91
  0
LINE
  8
0
 10
141.882
 20
1609.91
 11
141.545
 21
1610.44
  0
LINE
  8
0
 10
141.545
 20
1610.44
 11
141.145
 21
1610.92
  0
LINE
  8
0
 10
141.145
 20
1610.92
 11
140.687
 21
1611.35
  0
LINE
  8
0
 10
140.687
 20
1611.35
 11
140.179
 21
1611.72
  0
LINE
  8
0
 10
140.179
 20
1611.72
 11
139.629
 21
1612.02
  0
LINE
  8
0
 10
139.629
 20
1612.02
 11
139.045
 21
1612.26
  0
LINE
  8
0
 10
139.045
 20
1612.26
 11
138.437
 21
1612.41
  0
LINE
  8
0
 10
138.437
 20
1612.41
 11
137.814
 21
1612.49
  0
LINE
  8
0
 10
137.814
 20
1612.49
 11
-137.814
 21
1612.49
  0
LINE
  8
0
 10
-137.814
 20
1612.49
 11
-138.437
 21
1612.41
  0
LINE
  8
0
 10
-138.437
 20
1612.41
 11
-139.045
 21
1612.26
  0
LINE
  8
0
 10
-139.045
 20
1612.26
 11
-139.629
 21
1612.02
  0
LINE
  8
0
 10
-139.629
 20
1612.02
 11
-140.179
 21
1611.72
  0
LINE
  8
0
 10
-140.179
 20
1611.72
 11
-140.687
 21
1611.35
  0
LINE
  8
0
 10
-140.687
 20
1611.35
 11
-141.145
 21
1610.92
  0
LINE
  8
0
 10
-141.145
 20
1610.92
 11
-141.545
 21
1610.44
  0
LINE
  8
0
 10
-141.545
 20
1610.44
 11
-141.882
 21
1609.91
  0
LINE
  8
0
 10
-141.882
 20
1609.91
 11
-142.149
 21
1609.34
  0
LINE
  8
0
 10
-142.149
 20
1609.34
 11
-142.343
 21
1608.74
  0
LINE
  8
0
 10
-142.343
 20
1608.74
 11
-142.461
 21
1608.13
  0
LINE
  8
0
 10
-142.461
 20
1608.13
 11
-142.5
 21
1607.5
  0
LINE
  8
0
 10
-142.5
 20
1607.5
 11
-142.5
 21
1332.5
  0
LINE
  8
0
 10
-142.5
 20
1332.5
 11
-142.461
 21
1331.87
  0
LINE
  8
0
 10
-142.461
 20
1331.87
 11
-142.343
 21
1331.26
  0
LINE
  8
0
 10
-142.343
 20
1331.26
 11
-142.149
 21
1330.66
  0
LINE
  8
0
 10
-142.149
 20
1330.66
 11
-141.882
 21
1330.09
  0
LINE
  8
0
 10
-141.882
 20
1330.09
 11
-141.545
 21
1329.56
  0
LINE
  8
0
 10
-141.545
 20
1329.56
 11
-141.145
 21
1329.08
  0
LINE
  8
0
 10
-141.145
 20
1329.08
 11
-140.687
 21
1328.65
  0
LINE
  8
0
 10
-140.687
 20
1328.65
 11
-140.179
 21
1328.28
  0
LINE
  8
0
 10
-140.179
 20
1328.28
 11
-139.629
 21
1327.98
  0
LINE
  8
0
 10
-139.629
 20
1327.98
 11
-139.045
 21
1327.74
  0
LINE
  8
0
 10
-139.045
 20
1327.74
 11
-138.437
 21
1327.59
  0
LINE
  8
0
 10
-138.437
 20
1327.59
 11
-137.814
 21
1327.51
  0
LINE
  8
0
 10
-137.814
 20
1327.51
 11
137.814
 21
1327.51
  0
LINE
  8
0
 10
137.814
 20
1327.51
 11
138.437
 21
1327.59
  0
LINE
  8
0
 10
-137.548
 20
1328.01
 11
-138.14
 21
1328.08
  0
LINE
  8
0
 10
-138.14
 20
1328.08
 11
-138.718
 21
1328.23
  0
LINE
  8
0
 10
-138.718
 20
1328.23
 11
-139.272
 21
1328.45
  0
LINE
  8
0
 10
-139.272
 20
1328.45
 11
-139.795
 21
1328.74
  0
LINE
  8
0
 10
-139.795
 20
1328.74
 11
-140.278
 21
1329.09
  0
LINE
  8
0
 10
-140.278
 20
1329.09
 11
-140.713
 21
1329.5
  0
LINE
  8
0
 10
-140.713
 20
1329.5
 11
-141.093
 21
1329.96
  0
LINE
  8
0
 10
-141.093
 20
1329.96
 11
-141.412
 21
1330.46
  0
LINE
  8
0
 10
-141.412
 20
1330.46
 11
-141.666
 21
1331
  0
LINE
  8
0
 10
-141.666
 20
1331
 11
-141.851
 21
1331.57
  0
LINE
  8
0
 10
-141.851
 20
1331.57
 11
-141.963
 21
1332.15
  0
LINE
  8
0
 10
-141.963
 20
1332.15
 11
-142
 21
1332.75
  0
LINE
  8
0
 10
-142
 20
1332.75
 11
-142
 21
1607.25
  0
LINE
  8
0
 10
-142
 20
1607.25
 11
-141.963
 21
1607.85
  0
LINE
  8
0
 10
-141.963
 20
1607.85
 11
-141.851
 21
1608.43
  0
LINE
  8
0
 10
-141.851
 20
1608.43
 11
-141.666
 21
1609
  0
LINE
  8
0
 10
-141.666
 20
1609
 11
-141.412
 21
1609.54
  0
LINE
  8
0
 10
-141.412
 20
1609.54
 11
-141.093
 21
1610.04
  0
LINE
  8
0
 10
-141.093
 20
1610.04
 11
-140.713
 21
1610.5
  0
LINE
  8
0
 10
-140.713
 20
1610.5
 11
-140.278
 21
1610.91
  0
LINE
  8
0
 10
-140.278
 20
1610.91
 11
-139.795
 21
1611.26
  0
LINE
  8
0
 10
-139.795
 20
1611.26
 11
-139.272
 21
1611.55
  0
LINE
  8
0
 10
-139.272
 20
1611.55
 11
-138.718
 21
1611.77
  0
LINE
  8
0
 10
-138.718
 20
1611.77
 11
-138.14
 21
1611.92
  0
LINE
  8
0
 10
-138.14
 20
1611.92
 11
-137.548
 21
1611.99
  0
LINE
  8
0
 10
-137.548
 20
1611.99
 11
137.548
 21
1611.99
  0
LINE
  8
0
 10
137.548
 20
1611.99
 11
138.14
 21
1611.92
  0
LINE
  8
0
 10
138.14
 20
1611.92
 11
138.718
 21
1611.77
  0
LINE
  8
0
 10
138.718
 20
1611.77
 11
139.272
 21
1611.55
  0
LINE
  8
0
 10
139.272
 20
1611.55
 11
139.795
 21
1611.26
  0
LINE
  8
0
 10
139.795
 20
1611.26
 11
140.278
 21
1610.91
  0
LINE
  8
0
 10
140.278
 20
1610.91
 11
140.713
 21
1610.5
  0
LINE
  8
0
 10
140.713
 20
1610.5
 11
141.093
 21
1610.04
  0
LINE
  8
0
 10
141.093
 20
1610.04
 11
141.412
 21
1609.54
  0
LINE
  8
0
 10
141.412
 20
1609.54
 11
141.666
 21
1609
  0
LINE
  8
0
 10
141.666
 20
1609
 11
141.851
 21
1608.43
  0
LINE
  8
0
 10
141.851
 20
1608.43
 11
141.963
 21
1607.85
  0
LINE
  8
0
 10
141.963
 20
1607.85
 11
142
 21
1607.25
  0
LINE
  8
0
 10
142
 20
1607.25
 11
142
 21
1332.75
  0
LINE
  8
0
 10
142
 20
1332.75
 11
141.963
 21
1332.15
  0
LINE
  8
0
 10
141.963
 20
1332.15
 11
141.851
 21
1331.57
  0
LINE
  8
0
 10
141.851
 20
1331.57
 11
141.666
 21
1331
  0
LINE
  8
0
 10
141.666
 20
1331
 11
141.412
 21
1330.46
  0
LINE
  8
0
 10
141.412
 20
1330.46
 11
141.093
 21
1329.96
  0
LINE
  8
0
 10
141.093
 20
1329.96
 11
140.713
 21
1329.5
  0
LINE
  8
0
 10
140.713
 20
1329.5
 11
140.278
 21
1329.09
  0
LINE
  8
0
 10
140.278
 20
1329.09
 11
139.795
 21
1328.74
  0
LINE
  8
0
 10
139.795
 20
1328.74
 11
139.272
 21
1328.45
  0
LINE
  8
0
 10
139.272
 20
1328.45
 11
138.718
 21
1328.23
  0
LINE
  8
0
 10
138.718
 20
1328.23
 11
138.14
 21
1328.08
  0
LINE
  8
0
 10
138.14
 20
1328.08
 11
137.548
 21
1328.01
  0
LINE
  8
0
 10
137.548
 20
1328.01
 11
-137.548
 21
1328.01
  0
LINE
  8
0
 10
138.437
 20
1033.59
 11
139.045
 21
1033.74
  0
LINE
  8
0
 10
139.045
 20
1033.74
 11
139.629
 21
1033.98
  0
LINE
  8
0
 10
139.629
 20
1033.98
 11
140.179
 21
1034.28
  0
LINE
  8
0
 10
140.179
 20
1034.28
 11
140.687
 21
1034.65
  0
LINE
  8
0
 10
140.687
 20
1034.65
 11
141.145
 21
1035.08
  0
LINE
  8
0
 10
141.145
 20
1035.08
 11
141.545
 21
1035.56
  0
LINE
  8
0
 10
141.545
 20
1035.56
 11
141.882
 21
1036.09
  0
LINE
  8
0
 10
141.882
 20
1036.09
 11
142.149
 21
1036.66
  0
LINE
  8
0
 10
142.149
 20
1036.66
 11
142.343
 21
1037.26
  0
LINE
  8
0
 10
142.343
 20
1037.26
 11
142.461
 21
1037.87
  0
LINE
  8
0
 10
142.461
 20
1037.87
 11
142.5
 21
1038.5
  0
LINE
  8
0
 10
142.5
 20
1038.5
 11
142.5
 21
1313.5
  0
LINE
  8
0
 10
142.5
 20
1313.5
 11
142.461
 21
1314.13
  0
LINE
  8
0
 10
142.461
 20
1314.13
 11
142.343
 21
1314.74
  0
LINE
  8
0
 10
142.343
 20
1314.74
 11
142.149
 21
1315.34
  0
LINE
  8
0
 10
142.149
 20
1315.34
 11
141.882
 21
1315.91
  0
LINE
  8
0
 10
141.882
 20
1315.91
 11
141.545
 21
1316.44
  0
LINE
  8
0
 10
141.545
 20
1316.44
 11
141.145
 21
1316.92
  0
LINE
  8
0
 10
141.145
 20
1316.92
 11
140.687
 21
1317.35
  0
LINE
  8
0
 10
140.687
 20
1317.35
 11
140.179
 21
1317.72
  0
LINE
  8
0
 10
140.179
 20
1317.72
 11
139.629
 21
1318.02
  0
LINE
  8
0
 10
139.629
 20
1318.02
 11
139.045
 21
1318.26
  0
LINE
  8
0
 10
139.045
 20
1318.26
 11
138.437
 21
1318.41
  0
LINE
  8
0
 10
138.437
 20
1318.41
 11
137.814
 21
1318.49
  0
LINE
  8
0
 10
137.814
 20
1318.49
 11
-137.814
 21
1318.49
  0
LINE
  8
0
 10
-137.814
 20
1318.49
 11
-138.437
 21
1318.41
  0
LINE
  8
0
 10
-138.437
 20
1318.41
 11
-139.045
 21
1318.26
  0
LINE
  8
0
 10
-139.045
 20
1318.26
 11
-139.629
 21
1318.02
  0
LINE
  8
0
 10
-139.629
 20
1318.02
 11
-140.179
 21
1317.72
  0
LINE
  8
0
 10
-140.179
 20
1317.72
 11
-140.687
 21
1317.35
  0
LINE
  8
0
 10
-140.687
 20
1317.35
 11
-141.145
 21
1316.92
  0
LINE
  8
0
 10
-141.145
 20
1316.92
 11
-141.545
 21
1316.44
  0
LINE
  8
0
 10
-141.545
 20
1316.44
 11
-141.882
 21
1315.91
  0
LINE
  8
0
 10
-141.882
 20
1315.91
 11
-142.149
 21
1315.34
  0
LINE
  8
0
 10
-142.149
 20
1315.34
 11
-142.343
 21
1314.74
  0
LINE
  8
0
 10
-142.343
 20
1314.74
 11
-142.461
 21
1314.13
  0
LINE
  8
0
 10
-142.461
 20
1314.13
 11
-142.5
 21
1313.5
  0
LINE
  8
0
 10
-142.5
 20
1313.5
 11
-142.5
 21
1038.5
  0
LINE
  8
0
 10
-142.5
 20
1038.5
 11
-142.461
 21
1037.87
  0
LINE
  8
0
 10
-142.461
 20
1037.87
 11
-142.343
 21
1037.26
  0
LINE
  8
0
 10
-142.343
 20
1037.26
 11
-142.149
 21
1036.66
  0
LINE
  8
0
 10
-142.149
 20
1036.66
 11
-141.882
 21
1036.09
  0
LINE
  8
0
 10
-141.882
 20
1036.09
 11
-141.545
 21
1035.56
  0
LINE
  8
0
 10
-141.545
 20
1035.56
 11
-141.145
 21
1035.08
  0
LINE
  8
0
 10
-141.145
 20
1035.08
 11
-140.687
 21
1034.65
  0
LINE
  8
0
 10
-140.687
 20
1034.65
 11
-140.179
 21
1034.28
  0
LINE
  8
0
 10
-140.179
 20
1034.28
 11
-139.629
 21
1033.98
  0
LINE
  8
0
 10
-139.629
 20
1033.98
 11
-139.045
 21
1033.74
  0
LINE
  8
0
 10
-139.045
 20
1033.74
 11
-138.437
 21
1033.59
  0
LINE
  8
0
 10
-138.437
 20
1033.59
 11
-137.814
 21
1033.51
  0
LINE
  8
0
 10
-137.814
 20
1033.51
 11
137.814
 21
1033.51
  0
LINE
  8
0
 10
137.814
 20
1033.51
 11
138.437
 21
1033.59
  0
LINE
  8
0
 10
-137.537
 20
1034.18
 11
-138.108
 21
1034.25
  0
LINE
  8
0
 10
-138.108
 20
1034.25
 11
-138.665
 21
1034.4
  0
LINE
  8
0
 10
-138.665
 20
1034.4
 11
-139.199
 21
1034.61
  0
LINE
  8
0
 10
-139.199
 20
1034.61
 11
-139.703
 21
1034.88
  0
LINE
  8
0
 10
-139.703
 20
1034.88
 11
-140.168
 21
1035.22
  0
LINE
  8
0
 10
-140.168
 20
1035.22
 11
-140.588
 21
1035.62
  0
LINE
  8
0
 10
-140.588
 20
1035.62
 11
-140.954
 21
1036.06
  0
LINE
  8
0
 10
-140.954
 20
1036.06
 11
-141.262
 21
1036.54
  0
LINE
  8
0
 10
-141.262
 20
1036.54
 11
-141.507
 21
1037.06
  0
LINE
  8
0
 10
-141.507
 20
1037.06
 11
-141.685
 21
1037.61
  0
LINE
  8
0
 10
-141.685
 20
1037.61
 11
-141.792
 21
1038.18
  0
LINE
  8
0
 10
-141.792
 20
1038.18
 11
-141.828
 21
1038.75
  0
LINE
  8
0
 10
-141.828
 20
1038.75
 11
-141.828
 21
1313.25
  0
LINE
  8
0
 10
-141.828
 20
1313.25
 11
-141.792
 21
1313.82
  0
LINE
  8
0
 10
-141.792
 20
1313.82
 11
-141.685
 21
1314.39
  0
LINE
  8
0
 10
-141.685
 20
1314.39
 11
-141.507
 21
1314.94
  0
LINE
  8
0
 10
-141.507
 20
1314.94
 11
-141.262
 21
1315.46
  0
LINE
  8
0
 10
-141.262
 20
1315.46
 11
-140.954
 21
1315.94
  0
LINE
  8
0
 10
-140.954
 20
1315.94
 11
-140.588
 21
1316.38
  0
LINE
  8
0
 10
-140.588
 20
1316.38
 11
-140.168
 21
1316.78
  0
LINE
  8
0
 10
-140.168
 20
1316.78
 11
-139.703
 21
1317.12
  0
LINE
  8
0
 10
-139.703
 20
1317.12
 11
-139.199
 21
1317.39
  0
LINE
  8
0
 10
-139.199
 20
1317.39
 11
-138.665
 21
1317.6
  0
LINE
  8
0
 10
-138.665
 20
1317.6
 11
-138.108
 21
1317.75
  0
LINE
  8
0
 10
-138.108
 20
1317.75
 11
-137.537
 21
1317.82
  0
LINE
  8
0
 10
-137.537
 20
1317.82
 11
137.537
 21
1317.82
  0
LINE
  8
0
 10
137.537
 20
1317.82
 11
138.108
 21
1317.75
  0
LINE
  8
0
 10
138.108
 20
1317.75
 11
138.665
 21
1317.6
  0
LINE
  8
0
 10
138.665
 20
1317.6
 11
139.199
 21
1317.39
  0
LINE
  8
0
 10
139.199
 20
1317.39
 11
139.703
 21
1317.12
  0
LINE
  8
0
 10
139.703
 20
1317.12
 11
140.168
 21
1316.78
  0
LINE
  8
0
 10
140.168
 20
1316.78
 11
140.588
 21
1316.38
  0
LINE
  8
0
 10
140.588
 20
1316.38
 11
140.954
 21
1315.94
  0
LINE
  8
0
 10
140.954
 20
1315.94
 11
141.262
 21
1315.46
  0
LINE
  8
0
 10
141.262
 20
1315.46
 11
141.507
 21
1314.94
  0
LINE
  8
0
 10
141.507
 20
1314.94
 11
141.685
 21
1314.39
  0
LINE
  8
0
 10
141.685
 20
1314.39
 11
141.792
 21
1313.82
  0
LINE
  8
0
 10
141.792
 20
1313.82
 11
141.828
 21
1313.25
  0
LINE
  8
0
 10
141.828
 20
1313.25
 11
141.828
 21
1038.75
  0
LINE
  8
0
 10
141.828
 20
1038.75
 11
141.792
 21
1038.18
  0
LINE
  8
0
 10
141.792
 20
1038.18
 11
141.685
 21
1037.61
  0
LINE
  8
0
 10
141.685
 20
1037.61
 11
141.507
 21
1037.06
  0
LINE
  8
0
 10
141.507
 20
1037.06
 11
141.262
 21
1036.54
  0
LINE
  8
0
 10
141.262
 20
1036.54
 11
140.954
 21
1036.06
  0
LINE
  8
0
 10
140.954
 20
1036.06
 11
140.588
 21
1035.62
  0
LINE
  8
0
 10
140.588
 20
1035.62
 11
140.168
 21
1035.22
  0
LINE
  8
0
 10
140.168
 20
1035.22
 11
139.703
 21
1034.88
  0
LINE
  8
0
 10
139.703
 20
1034.88
 11
139.199
 21
1034.61
  0
LINE
  8
0
 10
139.199
 20
1034.61
 11
138.665
 21
1034.4
  0
LINE
  8
0
 10
138.665
 20
1034.4
 11
138.108
 21
1034.25
  0
LINE
  8
0
 10
138.108
 20
1034.25
 11
137.537
 21
1034.18
  0
LINE
  8
0
 10
137.537
 20
1034.18
 11
-137.537
 21
1034.18
  0
LINE
  8
0
 10
138.437
 20
739.589
 11
139.045
 21
739.745
  0
LINE
  8
0
 10
139.045
 20
739.745
 11
139.629
 21
739.976
  0
LINE
  8
0
 10
139.629
 20
739.976
 11
140.179
 21
740.278
  0
LINE
  8
0
 10
140.179
 20
740.278
 11
140.687
 21
740.647
  0
LINE
  8
0
 10
140.687
 20
740.647
 11
141.145
 21
741.077
  0
LINE
  8
0
 10
141.145
 20
741.077
 11
141.545
 21
741.561
  0
LINE
  8
0
 10
141.545
 20
741.561
 11
141.882
 21
742.091
  0
LINE
  8
0
 10
141.882
 20
742.091
 11
142.149
 21
742.659
  0
LINE
  8
0
 10
142.149
 20
742.659
 11
142.343
 21
743.257
  0
LINE
  8
0
 10
142.343
 20
743.257
 11
142.461
 21
743.873
  0
LINE
  8
0
 10
142.461
 20
743.873
 11
142.5
 21
744.5
  0
LINE
  8
0
 10
142.5
 20
744.5
 11
142.5
 21
1019.5
  0
LINE
  8
0
 10
142.5
 20
1019.5
 11
142.461
 21
1020.13
  0
LINE
  8
0
 10
142.461
 20
1020.13
 11
142.343
 21
1020.74
  0
LINE
  8
0
 10
142.343
 20
1020.74
 11
142.149
 21
1021.34
  0
LINE
  8
0
 10
142.149
 20
1021.34
 11
141.882
 21
1021.91
  0
LINE
  8
0
 10
141.882
 20
1021.91
 11
141.545
 21
1022.44
  0
LINE
  8
0
 10
141.545
 20
1022.44
 11
141.145
 21
1022.92
  0
LINE
  8
0
 10
141.145
 20
1022.92
 11
140.687
 21
1023.35
  0
LINE
  8
0
 10
140.687
 20
1023.35
 11
140.179
 21
1023.72
  0
LINE
  8
0
 10
140.179
 20
1023.72
 11
139.629
 21
1024.02
  0
LINE
  8
0
 10
139.629
 20
1024.02
 11
139.045
 21
1024.26
  0
LINE
  8
0
 10
139.045
 20
1024.26
 11
138.437
 21
1024.41
  0
LINE
  8
0
 10
138.437
 20
1024.41
 11
137.814
 21
1024.49
  0
LINE
  8
0
 10
137.814
 20
1024.49
 11
-137.814
 21
1024.49
  0
LINE
  8
0
 10
-137.814
 20
1024.49
 11
-138.437
 21
1024.41
  0
LINE
  8
0
 10
-138.437
 20
1024.41
 11
-139.045
 21
1024.26
  0
LINE
  8
0
 10
-139.045
 20
1024.26
 11
-139.629
 21
1024.02
  0
LINE
  8
0
 10
-139.629
 20
1024.02
 11
-140.179
 21
1023.72
  0
LINE
  8
0
 10
-140.179
 20
1023.72
 11
-140.687
 21
1023.35
  0
LINE
  8
0
 10
-140.687
 20
1023.35
 11
-141.145
 21
1022.92
  0
LINE
  8
0
 10
-141.145
 20
1022.92
 11
-141.545
 21
1022.44
  0
LINE
  8
0
 10
-141.545
 20
1022.44
 11
-141.882
 21
1021.91
  0
LINE
  8
0
 10
-141.882
 20
1021.91
 11
-142.149
 21
1021.34
  0
LINE
  8
0
 10
-142.149
 20
1021.34
 11
-142.343
 21
1020.74
  0
LINE
  8
0
 10
-142.343
 20
1020.74
 11
-142.461
 21
1020.13
  0
LINE
  8
0
 10
-142.461
 20
1020.13
 11
-142.5
 21
1019.5
  0
LINE
  8
0
 10
-142.5
 20
1019.5
 11
-142.5
 21
744.5
  0
LINE
  8
0
 10
-142.5
 20
744.5
 11
-142.461
 21
743.873
  0
LINE
  8
0
 10
-142.461
 20
743.873
 11
-142.343
 21
743.257
  0
LINE
  8
0
 10
-142.343
 20
743.257
 11
-142.149
 21
742.659
  0
LINE
  8
0
 10
-142.149
 20
742.659
 11
-141.882
 21
742.091
  0
LINE
  8
0
 10
-141.882
 20
742.091
 11
-141.545
 21
741.561
  0
LINE
  8
0
 10
-141.545
 20
741.561
 11
-141.145
 21
741.077
  0
LINE
  8
0
 10
-141.145
 20
741.077
 11
-140.687
 21
740.647
  0
LINE
  8
0
 10
-140.687
 20
740.647
 11
-140.179
 21
740.278
  0
LINE
  8
0
 10
-140.179
 20
740.278
 11
-139.629
 21
739.976
  0
LINE
  8
0
 10
-139.629
 20
739.976
 11
-139.045
 21
739.745
  0
LINE
  8
0
 10
-139.045
 20
739.745
 11
-138.437
 21
739.589
  0
LINE
  8
0
 10
-138.437
 20
739.589
 11
-137.814
 21
739.51
  0
LINE
  8
0
 10
-137.814
 20
739.51
 11
137.814
 21
739.51
  0
LINE
  8
0
 10
137.814
 20
739.51
 11
138.437
 21
739.589
  0
LINE
  8
0
 10
-137.382
 20
742.645
 11
-137.645
 21
742.678
  0
LINE
  8
0
 10
-137.645
 20
742.678
 11
-137.902
 21
742.744
  0
LINE
  8
0
 10
-137.902
 20
742.744
 11
-138.148
 21
742.841
  0
LINE
  8
0
 10
-138.148
 20
742.841
 11
-138.38
 21
742.969
  0
LINE
  8
0
 10
-138.38
 20
742.969
 11
-138.595
 21
743.124
  0
LINE
  8
0
 10
-138.595
 20
743.124
 11
-138.788
 21
743.306
  0
LINE
  8
0
 10
-138.788
 20
743.306
 11
-138.957
 21
743.51
  0
LINE
  8
0
 10
-138.957
 20
743.51
 11
-139.099
 21
743.734
  0
LINE
  8
0
 10
-139.099
 20
743.734
 11
-139.211
 21
743.973
  0
LINE
  8
0
 10
-139.211
 20
743.973
 11
-139.293
 21
744.225
  0
LINE
  8
0
 10
-139.293
 20
744.225
 11
-139.343
 21
744.486
  0
LINE
  8
0
 10
-139.343
 20
744.486
 11
-139.36
 21
744.75
  0
LINE
  8
0
 10
-139.36
 20
744.75
 11
-139.36
 21
1019.25
  0
LINE
  8
0
 10
-139.36
 20
1019.25
 11
-139.343
 21
1019.51
  0
LINE
  8
0
 10
-139.343
 20
1019.51
 11
-139.293
 21
1019.77
  0
LINE
  8
0
 10
-139.293
 20
1019.77
 11
-139.211
 21
1020.03
  0
LINE
  8
0
 10
-139.211
 20
1020.03
 11
-139.099
 21
1020.27
  0
LINE
  8
0
 10
-139.099
 20
1020.27
 11
-138.957
 21
1020.49
  0
LINE
  8
0
 10
-138.957
 20
1020.49
 11
-138.788
 21
1020.69
  0
LINE
  8
0
 10
-138.788
 20
1020.69
 11
-138.595
 21
1020.88
  0
LINE
  8
0
 10
-138.595
 20
1020.88
 11
-138.38
 21
1021.03
  0
LINE
  8
0
 10
-138.38
 20
1021.03
 11
-138.148
 21
1021.16
  0
LINE
  8
0
 10
-138.148
 20
1021.16
 11
-137.902
 21
1021.26
  0
LINE
  8
0
 10
-137.902
 20
1021.26
 11
-137.645
 21
1021.32
  0
LINE
  8
0
 10
-137.645
 20
1021.32
 11
-137.382
 21
1021.36
  0
LINE
  8
0
 10
-137.382
 20
1021.36
 11
137.382
 21
1021.36
  0
LINE
  8
0
 10
137.382
 20
1021.36
 11
137.645
 21
1021.32
  0
LINE
  8
0
 10
137.645
 20
1021.32
 11
137.902
 21
1021.26
  0
LINE
  8
0
 10
137.902
 20
1021.26
 11
138.148
 21
1021.16
  0
LINE
  8
0
 10
138.148
 20
1021.16
 11
138.38
 21
1021.03
  0
LINE
  8
0
 10
138.38
 20
1021.03
 11
138.595
 21
1020.88
  0
LINE
  8
0
 10
138.595
 20
1020.88
 11
138.788
 21
1020.69
  0
LINE
  8
0
 10
138.788
 20
1020.69
 11
138.957
 21
1020.49
  0
LINE
  8
0
 10
138.957
 20
1020.49
 11
139.099
 21
1020.27
  0
LINE
  8
0
 10
139.099
 20
1020.27
 11
139.211
 21
1020.03
  0
LINE
  8
0
 10
139.211
 20
1020.03
 11
139.293
 21
1019.77
  0
LINE
  8
0
 10
139.293
 20
1019.77
 11
139.343
 21
1019.51
  0
LINE
  8
0
 10
139.343
 20
1019.51
 11
139.36
 21
1019.25
  0
LINE
  8
0
 10
139.36
 20
1019.25
 11
139.36
 21
744.75
  0
LINE
  8
0
 10
139.36
 20
744.75
 11
139.343
 21
744.486
  0
LINE
  8
0
 10
139.343
 20
744.486
 11
139.293
 21
744.225
  0
LINE
  8
0
 10
139.293
 20
744.225
 11
139.211
 21
743.973
  0
LINE
  8
0
 10
139.211
 20
743.973
 11
139.099
 21
743.734
  0
LINE
  8
0
 10
139.099
 20
743.734
 11
138.957
 21
743.51
  0
LINE
  8
0
 10
138.957
 20
743.51
 11
138.788
 21
743.306
  0
LINE
  8
0
 10
138.788
 20
743.306
 11
138.595
 21
743.124
  0
LINE
  8
0
 10
138.595
 20
743.124
 11
138.38
 21
742.969
  0
LINE
  8
0
 10
138.38
 20
742.969
 11
138.148
 21
742.841
  0
LINE
  8
0
 10
138.148
 20
742.841
 11
137.902
 21
742.744
  0
LINE
  8
0
 10
137.902
 20
742.744
 11
137.645
 21
742.678
  0
LINE
  8
0
 10
137.645
 20
742.678
 11
137.382
 21
742.645
  0
LINE
  8
0
 10
137.382
 20
742.645
 11
-137.382
 21
742.645
  0
ENDSEC
  0
SECTION
  2
OBJECTS
  0
DICTIONARY
  0
ENDSEC
  0
EOF
