  0
SECTION
  2
BLOCKS
  0
ENDSEC
  0
SECTION
  2
ENTITIES
  0
LINE
  8
0
 10
-141
 20
1423.44
 11
-140.687
 21
1423.15
  0
LINE
  8
0
 10
-140.687
 20
1423.15
 11
-140.179
 21
1422.78
  0
LINE
  8
0
 10
-140.179
 20
1422.78
 11
-139.629
 21
1422.48
  0
LINE
  8
0
 10
-139.629
 20
1422.48
 11
-139.045
 21
1422.24
  0
LINE
  8
0
 10
-139.045
 20
1422.24
 11
-138.437
 21
1422.09
  0
LINE
  8
0
 10
-138.437
 20
1422.09
 11
-137.814
 21
1422.01
  0
LINE
  8
0
 10
-137.814
 20
1422.01
 11
137.814
 21
1422.01
  0
LINE
  8
0
 10
137.814
 20
1422.01
 11
138.437
 21
1422.09
  0
LINE
  8
0
 10
138.437
 20
1422.09
 11
139.045
 21
1422.24
  0
LINE
  8
0
 10
139.045
 20
1422.24
 11
139.629
 21
1422.48
  0
LINE
  8
0
 10
139.629
 20
1422.48
 11
140.179
 21
1422.78
  0
LINE
  8
0
 10
140.179
 20
1422.78
 11
140.687
 21
1423.15
  0
LINE
  8
0
 10
140.687
 20
1423.15
 11
141.145
 21
1423.58
  0
LINE
  8
0
 10
141.145
 20
1423.58
 11
141.545
 21
1424.06
  0
LINE
  8
0
 10
141.545
 20
1424.06
 11
141.882
 21
1424.59
  0
LINE
  8
0
 10
141.882
 20
1424.59
 11
142.149
 21
1425.16
  0
LINE
  8
0
 10
142.149
 20
1425.16
 11
142.343
 21
1425.76
  0
LINE
  8
0
 10
142.343
 20
1425.76
 11
142.461
 21
1426.37
  0
LINE
  8
0
 10
142.461
 20
1426.37
 11
142.5
 21
1427
  0
LINE
  8
0
 10
142.5
 20
1427
 11
142.5
 21
1597
  0
LINE
  8
0
 10
142.5
 20
1597
 11
142.461
 21
1597.63
  0
LINE
  8
0
 10
142.461
 20
1597.63
 11
142.343
 21
1598.24
  0
LINE
  8
0
 10
142.343
 20
1598.24
 11
142.149
 21
1598.84
  0
LINE
  8
0
 10
142.149
 20
1598.84
 11
141.882
 21
1599.41
  0
LINE
  8
0
 10
141.882
 20
1599.41
 11
141.545
 21
1599.94
  0
LINE
  8
0
 10
141.545
 20
1599.94
 11
141.145
 21
1600.42
  0
LINE
  8
0
 10
141.145
 20
1600.42
 11
140.687
 21
1600.85
  0
LINE
  8
0
 10
140.687
 20
1600.85
 11
140.179
 21
1601.22
  0
LINE
  8
0
 10
140.179
 20
1601.22
 11
139.629
 21
1601.52
  0
LINE
  8
0
 10
139.629
 20
1601.52
 11
139.045
 21
1601.76
  0
LINE
  8
0
 10
139.045
 20
1601.76
 11
138.437
 21
1601.91
  0
LINE
  8
0
 10
138.437
 20
1601.91
 11
137.814
 21
1601.99
  0
LINE
  8
0
 10
137.814
 20
1601.99
 11
-137.814
 21
1601.99
  0
LINE
  8
0
 10
-137.814
 20
1601.99
 11
-138.437
 21
1601.91
  0
LINE
  8
0
 10
-138.437
 20
1601.91
 11
-139.045
 21
1601.76
  0
LINE
  8
0
 10
-139.045
 20
1601.76
 11
-139.629
 21
1601.52
  0
LINE
  8
0
 10
-139.629
 20
1601.52
 11
-140.179
 21
1601.22
  0
LINE
  8
0
 10
-140.179
 20
1601.22
 11
-140.687
 21
1600.85
  0
LINE
  8
0
 10
-140.687
 20
1600.85
 11
-141
 21
1600.56
  0
LINE
  8
0
 10
-141
 20
1600.56
 11
-141
 21
1601.99
  0
LINE
  8
0
 10
-141
 20
1601.99
 11
-144
 21
1601.99
  0
LINE
  8
0
 10
-144
 20
1601.99
 11
-144
 21
1422.01
  0
LINE
  8
0
 10
-144
 20
1422.01
 11
-141
 21
1422.01
  0
LINE
  8
0
 10
-141
 20
1422.01
 11
-141
 21
1423.44
  0
LINE
  8
0
 10
-137.251
 20
1423.51
 11
-137.75
 21
1423.57
  0
LINE
  8
0
 10
-137.75
 20
1423.57
 11
-138.236
 21
1423.7
  0
LINE
  8
0
 10
-138.236
 20
1423.7
 11
-138.703
 21
1423.88
  0
LINE
  8
0
 10
-138.703
 20
1423.88
 11
-139.143
 21
1424.12
  0
LINE
  8
0
 10
-139.143
 20
1424.12
 11
-139.55
 21
1424.42
  0
LINE
  8
0
 10
-139.55
 20
1424.42
 11
-139.916
 21
1424.76
  0
LINE
  8
0
 10
-139.916
 20
1424.76
 11
-140.236
 21
1425.15
  0
LINE
  8
0
 10
-140.236
 20
1425.15
 11
-140.505
 21
1425.57
  0
LINE
  8
0
 10
-140.505
 20
1425.57
 11
-140.719
 21
1426.03
  0
LINE
  8
0
 10
-140.719
 20
1426.03
 11
-140.874
 21
1426.51
  0
LINE
  8
0
 10
-140.874
 20
1426.51
 11
-140.968
 21
1427
  0
LINE
  8
0
 10
-140.968
 20
1427
 11
-141
 21
1427.5
  0
LINE
  8
0
 10
-141
 20
1427.5
 11
-141
 21
1596.5
  0
LINE
  8
0
 10
-141
 20
1596.5
 11
-140.968
 21
1597
  0
LINE
  8
0
 10
-140.968
 20
1597
 11
-140.874
 21
1597.49
  0
LINE
  8
0
 10
-140.874
 20
1597.49
 11
-140.719
 21
1597.97
  0
LINE
  8
0
 10
-140.719
 20
1597.97
 11
-140.505
 21
1598.43
  0
LINE
  8
0
 10
-140.505
 20
1598.43
 11
-140.236
 21
1598.85
  0
LINE
  8
0
 10
-140.236
 20
1598.85
 11
-139.916
 21
1599.24
  0
LINE
  8
0
 10
-139.916
 20
1599.24
 11
-139.55
 21
1599.58
  0
LINE
  8
0
 10
-139.55
 20
1599.58
 11
-139.143
 21
1599.88
  0
LINE
  8
0
 10
-139.143
 20
1599.88
 11
-138.703
 21
1600.12
  0
LINE
  8
0
 10
-138.703
 20
1600.12
 11
-138.236
 21
1600.3
  0
LINE
  8
0
 10
-138.236
 20
1600.3
 11
-137.75
 21
1600.43
  0
LINE
  8
0
 10
-137.75
 20
1600.43
 11
-137.251
 21
1600.49
  0
LINE
  8
0
 10
-137.251
 20
1600.49
 11
137.251
 21
1600.49
  0
LINE
  8
0
 10
137.251
 20
1600.49
 11
137.75
 21
1600.43
  0
LINE
  8
0
 10
137.75
 20
1600.43
 11
138.236
 21
1600.3
  0
LINE
  8
0
 10
138.236
 20
1600.3
 11
138.703
 21
1600.12
  0
LINE
  8
0
 10
138.703
 20
1600.12
 11
139.143
 21
1599.88
  0
LINE
  8
0
 10
139.143
 20
1599.88
 11
139.55
 21
1599.58
  0
LINE
  8
0
 10
139.55
 20
1599.58
 11
139.916
 21
1599.24
  0
LINE
  8
0
 10
139.916
 20
1599.24
 11
140.236
 21
1598.85
  0
LINE
  8
0
 10
140.236
 20
1598.85
 11
140.505
 21
1598.43
  0
LINE
  8
0
 10
140.505
 20
1598.43
 11
140.719
 21
1597.97
  0
LINE
  8
0
 10
140.719
 20
1597.97
 11
140.874
 21
1597.49
  0
LINE
  8
0
 10
140.874
 20
1597.49
 11
140.968
 21
1597
  0
LINE
  8
0
 10
140.968
 20
1597
 11
141
 21
1596.5
  0
LINE
  8
0
 10
141
 20
1596.5
 11
141
 21
1427.5
  0
LINE
  8
0
 10
141
 20
1427.5
 11
140.968
 21
1427
  0
LINE
  8
0
 10
140.968
 20
1427
 11
140.874
 21
1426.51
  0
LINE
  8
0
 10
140.874
 20
1426.51
 11
140.719
 21
1426.03
  0
LINE
  8
0
 10
140.719
 20
1426.03
 11
140.505
 21
1425.57
  0
LINE
  8
0
 10
140.505
 20
1425.57
 11
140.236
 21
1425.15
  0
LINE
  8
0
 10
140.236
 20
1425.15
 11
139.916
 21
1424.76
  0
LINE
  8
0
 10
139.916
 20
1424.76
 11
139.55
 21
1424.42
  0
LINE
  8
0
 10
139.55
 20
1424.42
 11
139.143
 21
1424.12
  0
LINE
  8
0
 10
139.143
 20
1424.12
 11
138.703
 21
1423.88
  0
LINE
  8
0
 10
138.703
 20
1423.88
 11
138.236
 21
1423.7
  0
LINE
  8
0
 10
138.236
 20
1423.7
 11
137.75
 21
1423.57
  0
LINE
  8
0
 10
137.75
 20
1423.57
 11
137.251
 21
1423.51
  0
LINE
  8
0
 10
137.251
 20
1423.51
 11
-137.251
 21
1423.51
  0
LINE
  8
0
 10
-141
 20
1234.44
 11
-140.687
 21
1234.15
  0
LINE
  8
0
 10
-140.687
 20
1234.15
 11
-140.179
 21
1233.78
  0
LINE
  8
0
 10
-140.179
 20
1233.78
 11
-139.629
 21
1233.48
  0
LINE
  8
0
 10
-139.629
 20
1233.48
 11
-139.045
 21
1233.24
  0
LINE
  8
0
 10
-139.045
 20
1233.24
 11
-138.437
 21
1233.09
  0
LINE
  8
0
 10
-138.437
 20
1233.09
 11
-137.814
 21
1233.01
  0
LINE
  8
0
 10
-137.814
 20
1233.01
 11
137.814
 21
1233.01
  0
LINE
  8
0
 10
137.814
 20
1233.01
 11
138.437
 21
1233.09
  0
LINE
  8
0
 10
138.437
 20
1233.09
 11
139.045
 21
1233.24
  0
LINE
  8
0
 10
139.045
 20
1233.24
 11
139.629
 21
1233.48
  0
LINE
  8
0
 10
139.629
 20
1233.48
 11
140.179
 21
1233.78
  0
LINE
  8
0
 10
140.179
 20
1233.78
 11
140.687
 21
1234.15
  0
LINE
  8
0
 10
140.687
 20
1234.15
 11
141.145
 21
1234.58
  0
LINE
  8
0
 10
141.145
 20
1234.58
 11
141.545
 21
1235.06
  0
LINE
  8
0
 10
141.545
 20
1235.06
 11
141.882
 21
1235.59
  0
LINE
  8
0
 10
141.882
 20
1235.59
 11
142.149
 21
1236.16
  0
LINE
  8
0
 10
142.149
 20
1236.16
 11
142.343
 21
1236.76
  0
LINE
  8
0
 10
142.343
 20
1236.76
 11
142.461
 21
1237.37
  0
LINE
  8
0
 10
142.461
 20
1237.37
 11
142.5
 21
1238
  0
LINE
  8
0
 10
142.5
 20
1238
 11
142.5
 21
1408
  0
LINE
  8
0
 10
142.5
 20
1408
 11
142.461
 21
1408.63
  0
LINE
  8
0
 10
142.461
 20
1408.63
 11
142.343
 21
1409.24
  0
LINE
  8
0
 10
142.343
 20
1409.24
 11
142.149
 21
1409.84
  0
LINE
  8
0
 10
142.149
 20
1409.84
 11
141.882
 21
1410.41
  0
LINE
  8
0
 10
141.882
 20
1410.41
 11
141.545
 21
1410.94
  0
LINE
  8
0
 10
141.545
 20
1410.94
 11
141.145
 21
1411.42
  0
LINE
  8
0
 10
141.145
 20
1411.42
 11
140.687
 21
1411.85
  0
LINE
  8
0
 10
140.687
 20
1411.85
 11
140.179
 21
1412.22
  0
LINE
  8
0
 10
140.179
 20
1412.22
 11
139.629
 21
1412.52
  0
LINE
  8
0
 10
139.629
 20
1412.52
 11
139.045
 21
1412.76
  0
LINE
  8
0
 10
139.045
 20
1412.76
 11
138.437
 21
1412.91
  0
LINE
  8
0
 10
138.437
 20
1412.91
 11
137.814
 21
1412.99
  0
LINE
  8
0
 10
137.814
 20
1412.99
 11
-137.814
 21
1412.99
  0
LINE
  8
0
 10
-137.814
 20
1412.99
 11
-138.437
 21
1412.91
  0
LINE
  8
0
 10
-138.437
 20
1412.91
 11
-139.045
 21
1412.76
  0
LINE
  8
0
 10
-139.045
 20
1412.76
 11
-139.629
 21
1412.52
  0
LINE
  8
0
 10
-139.629
 20
1412.52
 11
-140.179
 21
1412.22
  0
LINE
  8
0
 10
-140.179
 20
1412.22
 11
-140.687
 21
1411.85
  0
LINE
  8
0
 10
-140.687
 20
1411.85
 11
-141
 21
1411.56
  0
LINE
  8
0
 10
-141
 20
1411.56
 11
-141
 21
1412.99
  0
LINE
  8
0
 10
-141
 20
1412.99
 11
-144
 21
1412.99
  0
LINE
  8
0
 10
-144
 20
1412.99
 11
-144
 21
1233.01
  0
LINE
  8
0
 10
-144
 20
1233.01
 11
-141
 21
1233.01
  0
LINE
  8
0
 10
-141
 20
1233.01
 11
-141
 21
1234.44
  0
LINE
  8
0
 10
-137.251
 20
1234.51
 11
-137.75
 21
1234.57
  0
LINE
  8
0
 10
-137.75
 20
1234.57
 11
-138.236
 21
1234.7
  0
LINE
  8
0
 10
-138.236
 20
1234.7
 11
-138.703
 21
1234.88
  0
LINE
  8
0
 10
-138.703
 20
1234.88
 11
-139.143
 21
1235.12
  0
LINE
  8
0
 10
-139.143
 20
1235.12
 11
-139.55
 21
1235.42
  0
LINE
  8
0
 10
-139.55
 20
1235.42
 11
-139.916
 21
1235.76
  0
LINE
  8
0
 10
-139.916
 20
1235.76
 11
-140.236
 21
1236.15
  0
LINE
  8
0
 10
-140.236
 20
1236.15
 11
-140.505
 21
1236.57
  0
LINE
  8
0
 10
-140.505
 20
1236.57
 11
-140.719
 21
1237.03
  0
LINE
  8
0
 10
-140.719
 20
1237.03
 11
-140.874
 21
1237.51
  0
LINE
  8
0
 10
-140.874
 20
1237.51
 11
-140.968
 21
1238
  0
LINE
  8
0
 10
-140.968
 20
1238
 11
-141
 21
1238.5
  0
LINE
  8
0
 10
-141
 20
1238.5
 11
-141
 21
1407.5
  0
LINE
  8
0
 10
-141
 20
1407.5
 11
-140.968
 21
1408
  0
LINE
  8
0
 10
-140.968
 20
1408
 11
-140.874
 21
1408.49
  0
LINE
  8
0
 10
-140.874
 20
1408.49
 11
-140.719
 21
1408.97
  0
LINE
  8
0
 10
-140.719
 20
1408.97
 11
-140.505
 21
1409.43
  0
LINE
  8
0
 10
-140.505
 20
1409.43
 11
-140.236
 21
1409.85
  0
LINE
  8
0
 10
-140.236
 20
1409.85
 11
-139.916
 21
1410.24
  0
LINE
  8
0
 10
-139.916
 20
1410.24
 11
-139.55
 21
1410.58
  0
LINE
  8
0
 10
-139.55
 20
1410.58
 11
-139.143
 21
1410.88
  0
LINE
  8
0
 10
-139.143
 20
1410.88
 11
-138.703
 21
1411.12
  0
LINE
  8
0
 10
-138.703
 20
1411.12
 11
-138.236
 21
1411.3
  0
LINE
  8
0
 10
-138.236
 20
1411.3
 11
-137.75
 21
1411.43
  0
LINE
  8
0
 10
-137.75
 20
1411.43
 11
-137.251
 21
1411.49
  0
LINE
  8
0
 10
-137.251
 20
1411.49
 11
137.251
 21
1411.49
  0
LINE
  8
0
 10
137.251
 20
1411.49
 11
137.75
 21
1411.43
  0
LINE
  8
0
 10
137.75
 20
1411.43
 11
138.236
 21
1411.3
  0
LINE
  8
0
 10
138.236
 20
1411.3
 11
138.703
 21
1411.12
  0
LINE
  8
0
 10
138.703
 20
1411.12
 11
139.143
 21
1410.88
  0
LINE
  8
0
 10
139.143
 20
1410.88
 11
139.55
 21
1410.58
  0
LINE
  8
0
 10
139.55
 20
1410.58
 11
139.916
 21
1410.24
  0
LINE
  8
0
 10
139.916
 20
1410.24
 11
140.236
 21
1409.85
  0
LINE
  8
0
 10
140.236
 20
1409.85
 11
140.505
 21
1409.43
  0
LINE
  8
0
 10
140.505
 20
1409.43
 11
140.719
 21
1408.97
  0
LINE
  8
0
 10
140.719
 20
1408.97
 11
140.874
 21
1408.49
  0
LINE
  8
0
 10
140.874
 20
1408.49
 11
140.968
 21
1408
  0
LINE
  8
0
 10
140.968
 20
1408
 11
141
 21
1407.5
  0
LINE
  8
0
 10
141
 20
1407.5
 11
141
 21
1238.5
  0
LINE
  8
0
 10
141
 20
1238.5
 11
140.968
 21
1238
  0
LINE
  8
0
 10
140.968
 20
1238
 11
140.874
 21
1237.51
  0
LINE
  8
0
 10
140.874
 20
1237.51
 11
140.719
 21
1237.03
  0
LINE
  8
0
 10
140.719
 20
1237.03
 11
140.505
 21
1236.57
  0
LINE
  8
0
 10
140.505
 20
1236.57
 11
140.236
 21
1236.15
  0
LINE
  8
0
 10
140.236
 20
1236.15
 11
139.916
 21
1235.76
  0
LINE
  8
0
 10
139.916
 20
1235.76
 11
139.55
 21
1235.42
  0
LINE
  8
0
 10
139.55
 20
1235.42
 11
139.143
 21
1235.12
  0
LINE
  8
0
 10
139.143
 20
1235.12
 11
138.703
 21
1234.88
  0
LINE
  8
0
 10
138.703
 20
1234.88
 11
138.236
 21
1234.7
  0
LINE
  8
0
 10
138.236
 20
1234.7
 11
137.75
 21
1234.57
  0
LINE
  8
0
 10
137.75
 20
1234.57
 11
137.251
 21
1234.51
  0
LINE
  8
0
 10
137.251
 20
1234.51
 11
-137.251
 21
1234.51
  0
LINE
  8
0
 10
-141
 20
1045.44
 11
-140.687
 21
1045.15
  0
LINE
  8
0
 10
-140.687
 20
1045.15
 11
-140.179
 21
1044.78
  0
LINE
  8
0
 10
-140.179
 20
1044.78
 11
-139.629
 21
1044.48
  0
LINE
  8
0
 10
-139.629
 20
1044.48
 11
-139.045
 21
1044.24
  0
LINE
  8
0
 10
-139.045
 20
1044.24
 11
-138.437
 21
1044.09
  0
LINE
  8
0
 10
-138.437
 20
1044.09
 11
-137.814
 21
1044.01
  0
LINE
  8
0
 10
-137.814
 20
1044.01
 11
137.814
 21
1044.01
  0
LINE
  8
0
 10
137.814
 20
1044.01
 11
138.437
 21
1044.09
  0
LINE
  8
0
 10
138.437
 20
1044.09
 11
139.045
 21
1044.24
  0
LINE
  8
0
 10
139.045
 20
1044.24
 11
139.629
 21
1044.48
  0
LINE
  8
0
 10
139.629
 20
1044.48
 11
140.179
 21
1044.78
  0
LINE
  8
0
 10
140.179
 20
1044.78
 11
140.687
 21
1045.15
  0
LINE
  8
0
 10
140.687
 20
1045.15
 11
141.145
 21
1045.58
  0
LINE
  8
0
 10
141.145
 20
1045.58
 11
141.545
 21
1046.06
  0
LINE
  8
0
 10
141.545
 20
1046.06
 11
141.882
 21
1046.59
  0
LINE
  8
0
 10
141.882
 20
1046.59
 11
142.149
 21
1047.16
  0
LINE
  8
0
 10
142.149
 20
1047.16
 11
142.343
 21
1047.76
  0
LINE
  8
0
 10
142.343
 20
1047.76
 11
142.461
 21
1048.37
  0
LINE
  8
0
 10
142.461
 20
1048.37
 11
142.5
 21
1049
  0
LINE
  8
0
 10
142.5
 20
1049
 11
142.5
 21
1219
  0
LINE
  8
0
 10
142.5
 20
1219
 11
142.461
 21
1219.63
  0
LINE
  8
0
 10
142.461
 20
1219.63
 11
142.343
 21
1220.24
  0
LINE
  8
0
 10
142.343
 20
1220.24
 11
142.149
 21
1220.84
  0
LINE
  8
0
 10
142.149
 20
1220.84
 11
141.882
 21
1221.41
  0
LINE
  8
0
 10
141.882
 20
1221.41
 11
141.545
 21
1221.94
  0
LINE
  8
0
 10
141.545
 20
1221.94
 11
141.145
 21
1222.42
  0
LINE
  8
0
 10
141.145
 20
1222.42
 11
140.687
 21
1222.85
  0
LINE
  8
0
 10
140.687
 20
1222.85
 11
140.179
 21
1223.22
  0
LINE
  8
0
 10
140.179
 20
1223.22
 11
139.629
 21
1223.52
  0
LINE
  8
0
 10
139.629
 20
1223.52
 11
139.045
 21
1223.76
  0
LINE
  8
0
 10
139.045
 20
1223.76
 11
138.437
 21
1223.91
  0
LINE
  8
0
 10
138.437
 20
1223.91
 11
137.814
 21
1223.99
  0
LINE
  8
0
 10
137.814
 20
1223.99
 11
-137.814
 21
1223.99
  0
LINE
  8
0
 10
-137.814
 20
1223.99
 11
-138.437
 21
1223.91
  0
LINE
  8
0
 10
-138.437
 20
1223.91
 11
-139.045
 21
1223.76
  0
LINE
  8
0
 10
-139.045
 20
1223.76
 11
-139.629
 21
1223.52
  0
LINE
  8
0
 10
-139.629
 20
1223.52
 11
-140.179
 21
1223.22
  0
LINE
  8
0
 10
-140.179
 20
1223.22
 11
-140.687
 21
1222.85
  0
LINE
  8
0
 10
-140.687
 20
1222.85
 11
-141
 21
1222.56
  0
LINE
  8
0
 10
-141
 20
1222.56
 11
-141
 21
1223.99
  0
LINE
  8
0
 10
-141
 20
1223.99
 11
-144
 21
1223.99
  0
LINE
  8
0
 10
-144
 20
1223.99
 11
-144
 21
1044.01
  0
LINE
  8
0
 10
-144
 20
1044.01
 11
-141
 21
1044.01
  0
LINE
  8
0
 10
-141
 20
1044.01
 11
-141
 21
1045.44
  0
LINE
  8
0
 10
-137.243
 20
1045.64
 11
-137.726
 21
1045.7
  0
LINE
  8
0
 10
-137.726
 20
1045.7
 11
-138.197
 21
1045.82
  0
LINE
  8
0
 10
-138.197
 20
1045.82
 11
-138.649
 21
1046
  0
LINE
  8
0
 10
-138.649
 20
1046
 11
-139.075
 21
1046.23
  0
LINE
  8
0
 10
-139.075
 20
1046.23
 11
-139.469
 21
1046.52
  0
LINE
  8
0
 10
-139.469
 20
1046.52
 11
-139.823
 21
1046.85
  0
LINE
  8
0
 10
-139.823
 20
1046.85
 11
-140.133
 21
1047.22
  0
LINE
  8
0
 10
-140.133
 20
1047.22
 11
-140.394
 21
1047.63
  0
LINE
  8
0
 10
-140.394
 20
1047.63
 11
-140.601
 21
1048.07
  0
LINE
  8
0
 10
-140.601
 20
1048.07
 11
-140.751
 21
1048.54
  0
LINE
  8
0
 10
-140.751
 20
1048.54
 11
-140.842
 21
1049.01
  0
LINE
  8
0
 10
-140.842
 20
1049.01
 11
-140.873
 21
1049.5
  0
LINE
  8
0
 10
-140.873
 20
1049.5
 11
-140.873
 21
1218.5
  0
LINE
  8
0
 10
-140.873
 20
1218.5
 11
-140.842
 21
1218.99
  0
LINE
  8
0
 10
-140.842
 20
1218.99
 11
-140.751
 21
1219.46
  0
LINE
  8
0
 10
-140.751
 20
1219.46
 11
-140.601
 21
1219.93
  0
LINE
  8
0
 10
-140.601
 20
1219.93
 11
-140.394
 21
1220.37
  0
LINE
  8
0
 10
-140.394
 20
1220.37
 11
-140.133
 21
1220.78
  0
LINE
  8
0
 10
-140.133
 20
1220.78
 11
-139.823
 21
1221.15
  0
LINE
  8
0
 10
-139.823
 20
1221.15
 11
-139.469
 21
1221.48
  0
LINE
  8
0
 10
-139.469
 20
1221.48
 11
-139.075
 21
1221.77
  0
LINE
  8
0
 10
-139.075
 20
1221.77
 11
-138.649
 21
1222
  0
LINE
  8
0
 10
-138.649
 20
1222
 11
-138.197
 21
1222.18
  0
LINE
  8
0
 10
-138.197
 20
1222.18
 11
-137.726
 21
1222.3
  0
LINE
  8
0
 10
-137.726
 20
1222.3
 11
-137.243
 21
1222.36
  0
LINE
  8
0
 10
-137.243
 20
1222.36
 11
137.243
 21
1222.36
  0
LINE
  8
0
 10
137.243
 20
1222.36
 11
137.726
 21
1222.3
  0
LINE
  8
0
 10
137.726
 20
1222.3
 11
138.197
 21
1222.18
  0
LINE
  8
0
 10
138.197
 20
1222.18
 11
138.649
 21
1222
  0
LINE
  8
0
 10
138.649
 20
1222
 11
139.075
 21
1221.77
  0
LINE
  8
0
 10
139.075
 20
1221.77
 11
139.469
 21
1221.48
  0
LINE
  8
0
 10
139.469
 20
1221.48
 11
139.823
 21
1221.15
  0
LINE
  8
0
 10
139.823
 20
1221.15
 11
140.133
 21
1220.78
  0
LINE
  8
0
 10
140.133
 20
1220.78
 11
140.394
 21
1220.37
  0
LINE
  8
0
 10
140.394
 20
1220.37
 11
140.601
 21
1219.93
  0
LINE
  8
0
 10
140.601
 20
1219.93
 11
140.751
 21
1219.46
  0
LINE
  8
0
 10
140.751
 20
1219.46
 11
140.842
 21
1218.99
  0
LINE
  8
0
 10
140.842
 20
1218.99
 11
140.873
 21
1218.5
  0
LINE
  8
0
 10
140.873
 20
1218.5
 11
140.873
 21
1049.5
  0
LINE
  8
0
 10
140.873
 20
1049.5
 11
140.842
 21
1049.01
  0
LINE
  8
0
 10
140.842
 20
1049.01
 11
140.751
 21
1048.54
  0
LINE
  8
0
 10
140.751
 20
1048.54
 11
140.601
 21
1048.07
  0
LINE
  8
0
 10
140.601
 20
1048.07
 11
140.394
 21
1047.63
  0
LINE
  8
0
 10
140.394
 20
1047.63
 11
140.133
 21
1047.22
  0
LINE
  8
0
 10
140.133
 20
1047.22
 11
139.823
 21
1046.85
  0
LINE
  8
0
 10
139.823
 20
1046.85
 11
139.469
 21
1046.52
  0
LINE
  8
0
 10
139.469
 20
1046.52
 11
139.075
 21
1046.23
  0
LINE
  8
0
 10
139.075
 20
1046.23
 11
138.649
 21
1046
  0
LINE
  8
0
 10
138.649
 20
1046
 11
138.197
 21
1045.82
  0
LINE
  8
0
 10
138.197
 20
1045.82
 11
137.726
 21
1045.7
  0
LINE
  8
0
 10
137.726
 20
1045.7
 11
137.243
 21
1045.64
  0
LINE
  8
0
 10
137.243
 20
1045.64
 11
-137.243
 21
1045.64
  0
LINE
  8
0
 10
138.437
 20
855.089
 11
139.045
 21
855.245
  0
LINE
  8
0
 10
139.045
 20
855.245
 11
139.629
 21
855.476
  0
LINE
  8
0
 10
139.629
 20
855.476
 11
140.179
 21
855.778
  0
LINE
  8
0
 10
140.179
 20
855.778
 11
140.687
 21
856.147
  0
LINE
  8
0
 10
140.687
 20
856.147
 11
141.145
 21
856.577
  0
LINE
  8
0
 10
141.145
 20
856.577
 11
141.545
 21
857.061
  0
LINE
  8
0
 10
141.545
 20
857.061
 11
141.882
 21
857.591
  0
LINE
  8
0
 10
141.882
 20
857.591
 11
142.149
 21
858.159
  0
LINE
  8
0
 10
142.149
 20
858.159
 11
142.343
 21
858.757
  0
LINE
  8
0
 10
142.343
 20
858.757
 11
142.461
 21
859.373
  0
LINE
  8
0
 10
142.461
 20
859.373
 11
142.5
 21
860
  0
LINE
  8
0
 10
142.5
 20
860
 11
142.5
 21
1030
  0
LINE
  8
0
 10
142.5
 20
1030
 11
142.461
 21
1030.63
  0
LINE
  8
0
 10
142.461
 20
1030.63
 11
142.343
 21
1031.24
  0
LINE
  8
0
 10
142.343
 20
1031.24
 11
142.149
 21
1031.84
  0
LINE
  8
0
 10
142.149
 20
1031.84
 11
141.882
 21
1032.41
  0
LINE
  8
0
 10
141.882
 20
1032.41
 11
141.545
 21
1032.94
  0
LINE
  8
0
 10
141.545
 20
1032.94
 11
141.145
 21
1033.42
  0
LINE
  8
0
 10
141.145
 20
1033.42
 11
140.687
 21
1033.85
  0
LINE
  8
0
 10
140.687
 20
1033.85
 11
140.179
 21
1034.22
  0
LINE
  8
0
 10
140.179
 20
1034.22
 11
139.629
 21
1034.52
  0
LINE
  8
0
 10
139.629
 20
1034.52
 11
139.045
 21
1034.76
  0
LINE
  8
0
 10
139.045
 20
1034.76
 11
138.437
 21
1034.91
  0
LINE
  8
0
 10
138.437
 20
1034.91
 11
137.814
 21
1034.99
  0
LINE
  8
0
 10
137.814
 20
1034.99
 11
-137.814
 21
1034.99
  0
LINE
  8
0
 10
-137.814
 20
1034.99
 11
-138.437
 21
1034.91
  0
LINE
  8
0
 10
-138.437
 20
1034.91
 11
-139.045
 21
1034.76
  0
LINE
  8
0
 10
-139.045
 20
1034.76
 11
-139.629
 21
1034.52
  0
LINE
  8
0
 10
-139.629
 20
1034.52
 11
-140.179
 21
1034.22
  0
LINE
  8
0
 10
-140.179
 20
1034.22
 11
-140.687
 21
1033.85
  0
LINE
  8
0
 10
-140.687
 20
1033.85
 11
-141
 21
1033.56
  0
LINE
  8
0
 10
-141
 20
1033.56
 11
-141
 21
1034.61
  0
LINE
  8
0
 10
-141
 20
1034.61
 11
-144
 21
1034.61
  0
LINE
  8
0
 10
-144
 20
1034.61
 11
-144
 21
855.385
  0
LINE
  8
0
 10
-144
 20
855.385
 11
-141
 21
855.385
  0
LINE
  8
0
 10
-141
 20
855.385
 11
-141
 21
856.441
  0
LINE
  8
0
 10
-141
 20
856.441
 11
-140.687
 21
856.147
  0
LINE
  8
0
 10
-140.687
 20
856.147
 11
-140.179
 21
855.778
  0
LINE
  8
0
 10
-140.179
 20
855.778
 11
-139.629
 21
855.476
  0
LINE
  8
0
 10
-139.629
 20
855.476
 11
-139.045
 21
855.245
  0
LINE
  8
0
 10
-139.045
 20
855.245
 11
-138.437
 21
855.089
  0
LINE
  8
0
 10
-138.437
 20
855.089
 11
-137.814
 21
855.01
  0
LINE
  8
0
 10
-137.814
 20
855.01
 11
137.814
 21
855.01
  0
LINE
  8
0
 10
137.814
 20
855.01
 11
138.437
 21
855.089
  0
LINE
  8
0
 10
134.849
 20
1025.1
 11
134.55
 21
1025.14
  0
LINE
  8
0
 10
134.55
 20
1025.14
 11
134.258
 21
1025.22
  0
LINE
  8
0
 10
134.258
 20
1025.22
 11
133.978
 21
1025.33
  0
LINE
  8
0
 10
133.978
 20
1025.33
 11
133.714
 21
1025.47
  0
LINE
  8
0
 10
133.714
 20
1025.47
 11
133.47
 21
1025.65
  0
LINE
  8
0
 10
133.47
 20
1025.65
 11
133.25
 21
1025.86
  0
LINE
  8
0
 10
133.25
 20
1025.86
 11
133.058
 21
1026.09
  0
LINE
  8
0
 10
133.058
 20
1026.09
 11
132.897
 21
1026.34
  0
LINE
  8
0
 10
132.897
 20
1026.34
 11
132.769
 21
1026.62
  0
LINE
  8
0
 10
132.769
 20
1026.62
 11
132.675
 21
1026.9
  0
LINE
  8
0
 10
132.675
 20
1026.9
 11
132.619
 21
1027.2
  0
LINE
  8
0
 10
132.619
 20
1027.2
 11
132.6
 21
1027.5
  0
LINE
  8
0
 10
132.6
 20
1027.5
 11
132.619
 21
1027.8
  0
LINE
  8
0
 10
132.619
 20
1027.8
 11
132.675
 21
1028.1
  0
LINE
  8
0
 10
132.675
 20
1028.1
 11
132.769
 21
1028.38
  0
LINE
  8
0
 10
132.769
 20
1028.38
 11
132.897
 21
1028.66
  0
LINE
  8
0
 10
132.897
 20
1028.66
 11
133.058
 21
1028.91
  0
LINE
  8
0
 10
133.058
 20
1028.91
 11
133.25
 21
1029.14
  0
LINE
  8
0
 10
133.25
 20
1029.14
 11
133.47
 21
1029.35
  0
LINE
  8
0
 10
133.47
 20
1029.35
 11
133.714
 21
1029.53
  0
LINE
  8
0
 10
133.714
 20
1029.53
 11
133.978
 21
1029.67
  0
LINE
  8
0
 10
133.978
 20
1029.67
 11
134.258
 21
1029.78
  0
LINE
  8
0
 10
134.258
 20
1029.78
 11
134.55
 21
1029.86
  0
LINE
  8
0
 10
134.55
 20
1029.86
 11
134.849
 21
1029.9
  0
LINE
  8
0
 10
134.849
 20
1029.9
 11
135.151
 21
1029.9
  0
LINE
  8
0
 10
135.151
 20
1029.9
 11
135.45
 21
1029.86
  0
LINE
  8
0
 10
135.45
 20
1029.86
 11
135.742
 21
1029.78
  0
LINE
  8
0
 10
135.742
 20
1029.78
 11
136.022
 21
1029.67
  0
LINE
  8
0
 10
136.022
 20
1029.67
 11
136.286
 21
1029.53
  0
LINE
  8
0
 10
136.286
 20
1029.53
 11
136.53
 21
1029.35
  0
LINE
  8
0
 10
136.53
 20
1029.35
 11
136.75
 21
1029.14
  0
LINE
  8
0
 10
136.75
 20
1029.14
 11
136.942
 21
1028.91
  0
LINE
  8
0
 10
136.942
 20
1028.91
 11
137.103
 21
1028.66
  0
LINE
  8
0
 10
137.103
 20
1028.66
 11
137.231
 21
1028.38
  0
LINE
  8
0
 10
137.231
 20
1028.38
 11
137.325
 21
1028.1
  0
LINE
  8
0
 10
137.325
 20
1028.1
 11
137.381
 21
1027.8
  0
LINE
  8
0
 10
137.381
 20
1027.8
 11
137.4
 21
1027.5
  0
LINE
  8
0
 10
137.4
 20
1027.5
 11
137.381
 21
1027.2
  0
LINE
  8
0
 10
137.381
 20
1027.2
 11
137.325
 21
1026.9
  0
LINE
  8
0
 10
137.325
 20
1026.9
 11
137.231
 21
1026.62
  0
LINE
  8
0
 10
137.231
 20
1026.62
 11
137.103
 21
1026.34
  0
LINE
  8
0
 10
137.103
 20
1026.34
 11
136.942
 21
1026.09
  0
LINE
  8
0
 10
136.942
 20
1026.09
 11
136.75
 21
1025.86
  0
LINE
  8
0
 10
136.75
 20
1025.86
 11
136.53
 21
1025.65
  0
LINE
  8
0
 10
136.53
 20
1025.65
 11
136.286
 21
1025.47
  0
LINE
  8
0
 10
136.286
 20
1025.47
 11
136.022
 21
1025.33
  0
LINE
  8
0
 10
136.022
 20
1025.33
 11
135.742
 21
1025.22
  0
LINE
  8
0
 10
135.742
 20
1025.22
 11
135.45
 21
1025.14
  0
LINE
  8
0
 10
135.45
 20
1025.14
 11
135.151
 21
1025.1
  0
LINE
  8
0
 10
135.151
 20
1025.1
 11
134.849
 21
1025.1
  0
LINE
  8
0
 10
-135.151
 20
1025.1
 11
-135.45
 21
1025.14
  0
LINE
  8
0
 10
-135.45
 20
1025.14
 11
-135.742
 21
1025.22
  0
LINE
  8
0
 10
-135.742
 20
1025.22
 11
-136.022
 21
1025.33
  0
LINE
  8
0
 10
-136.022
 20
1025.33
 11
-136.286
 21
1025.47
  0
LINE
  8
0
 10
-136.286
 20
1025.47
 11
-136.53
 21
1025.65
  0
LINE
  8
0
 10
-136.53
 20
1025.65
 11
-136.75
 21
1025.86
  0
LINE
  8
0
 10
-136.75
 20
1025.86
 11
-136.942
 21
1026.09
  0
LINE
  8
0
 10
-136.942
 20
1026.09
 11
-137.103
 21
1026.34
  0
LINE
  8
0
 10
-137.103
 20
1026.34
 11
-137.231
 21
1026.62
  0
LINE
  8
0
 10
-137.231
 20
1026.62
 11
-137.325
 21
1026.9
  0
LINE
  8
0
 10
-137.325
 20
1026.9
 11
-137.381
 21
1027.2
  0
LINE
  8
0
 10
-137.381
 20
1027.2
 11
-137.4
 21
1027.5
  0
LINE
  8
0
 10
-137.4
 20
1027.5
 11
-137.381
 21
1027.8
  0
LINE
  8
0
 10
-137.381
 20
1027.8
 11
-137.325
 21
1028.1
  0
LINE
  8
0
 10
-137.325
 20
1028.1
 11
-137.231
 21
1028.38
  0
LINE
  8
0
 10
-137.231
 20
1028.38
 11
-137.103
 21
1028.66
  0
LINE
  8
0
 10
-137.103
 20
1028.66
 11
-136.942
 21
1028.91
  0
LINE
  8
0
 10
-136.942
 20
1028.91
 11
-136.75
 21
1029.14
  0
LINE
  8
0
 10
-136.75
 20
1029.14
 11
-136.53
 21
1029.35
  0
LINE
  8
0
 10
-136.53
 20
1029.35
 11
-136.286
 21
1029.53
  0
LINE
  8
0
 10
-136.286
 20
1029.53
 11
-136.022
 21
1029.67
  0
LINE
  8
0
 10
-136.022
 20
1029.67
 11
-135.742
 21
1029.78
  0
LINE
  8
0
 10
-135.742
 20
1029.78
 11
-135.45
 21
1029.86
  0
LINE
  8
0
 10
-135.45
 20
1029.86
 11
-135.151
 21
1029.9
  0
LINE
  8
0
 10
-135.151
 20
1029.9
 11
-134.849
 21
1029.9
  0
LINE
  8
0
 10
-134.849
 20
1029.9
 11
-134.55
 21
1029.86
  0
LINE
  8
0
 10
-134.55
 20
1029.86
 11
-134.258
 21
1029.78
  0
LINE
  8
0
 10
-134.258
 20
1029.78
 11
-133.978
 21
1029.67
  0
LINE
  8
0
 10
-133.978
 20
1029.67
 11
-133.714
 21
1029.53
  0
LINE
  8
0
 10
-133.714
 20
1029.53
 11
-133.47
 21
1029.35
  0
LINE
  8
0
 10
-133.47
 20
1029.35
 11
-133.25
 21
1029.14
  0
LINE
  8
0
 10
-133.25
 20
1029.14
 11
-133.058
 21
1028.91
  0
LINE
  8
0
 10
-133.058
 20
1028.91
 11
-132.897
 21
1028.66
  0
LINE
  8
0
 10
-132.897
 20
1028.66
 11
-132.769
 21
1028.38
  0
LINE
  8
0
 10
-132.769
 20
1028.38
 11
-132.675
 21
1028.1
  0
LINE
  8
0
 10
-132.675
 20
1028.1
 11
-132.619
 21
1027.8
  0
LINE
  8
0
 10
-132.619
 20
1027.8
 11
-132.6
 21
1027.5
  0
LINE
  8
0
 10
-132.6
 20
1027.5
 11
-132.619
 21
1027.2
  0
LINE
  8
0
 10
-132.619
 20
1027.2
 11
-132.675
 21
1026.9
  0
LINE
  8
0
 10
-132.675
 20
1026.9
 11
-132.769
 21
1026.62
  0
LINE
  8
0
 10
-132.769
 20
1026.62
 11
-132.897
 21
1026.34
  0
LINE
  8
0
 10
-132.897
 20
1026.34
 11
-133.058
 21
1026.09
  0
LINE
  8
0
 10
-133.058
 20
1026.09
 11
-133.25
 21
1025.86
  0
LINE
  8
0
 10
-133.25
 20
1025.86
 11
-133.47
 21
1025.65
  0
LINE
  8
0
 10
-133.47
 20
1025.65
 11
-133.714
 21
1025.47
  0
LINE
  8
0
 10
-133.714
 20
1025.47
 11
-133.978
 21
1025.33
  0
LINE
  8
0
 10
-133.978
 20
1025.33
 11
-134.258
 21
1025.22
  0
LINE
  8
0
 10
-134.258
 20
1025.22
 11
-134.55
 21
1025.14
  0
LINE
  8
0
 10
-134.55
 20
1025.14
 11
-134.849
 21
1025.1
  0
LINE
  8
0
 10
-134.849
 20
1025.1
 11
-135.151
 21
1025.1
  0
LINE
  8
0
 10
-135.151
 20
860.105
 11
-135.45
 21
860.143
  0
LINE
  8
0
 10
-135.45
 20
860.143
 11
-135.742
 21
860.217
  0
LINE
  8
0
 10
-135.742
 20
860.217
 11
-136.022
 21
860.328
  0
LINE
  8
0
 10
-136.022
 20
860.328
 11
-136.286
 21
860.474
  0
LINE
  8
0
 10
-136.286
 20
860.474
 11
-136.53
 21
860.651
  0
LINE
  8
0
 10
-136.53
 20
860.651
 11
-136.75
 21
860.857
  0
LINE
  8
0
 10
-136.75
 20
860.857
 11
-136.942
 21
861.089
  0
LINE
  8
0
 10
-136.942
 20
861.089
 11
-137.103
 21
861.344
  0
LINE
  8
0
 10
-137.103
 20
861.344
 11
-137.231
 21
861.617
  0
LINE
  8
0
 10
-137.231
 20
861.617
 11
-137.325
 21
861.903
  0
LINE
  8
0
 10
-137.325
 20
861.903
 11
-137.381
 21
862.199
  0
LINE
  8
0
 10
-137.381
 20
862.199
 11
-137.4
 21
862.5
  0
LINE
  8
0
 10
-137.4
 20
862.5
 11
-137.381
 21
862.801
  0
LINE
  8
0
 10
-137.381
 20
862.801
 11
-137.325
 21
863.097
  0
LINE
  8
0
 10
-137.325
 20
863.097
 11
-137.231
 21
863.383
  0
LINE
  8
0
 10
-137.231
 20
863.383
 11
-137.103
 21
863.656
  0
LINE
  8
0
 10
-137.103
 20
863.656
 11
-136.942
 21
863.911
  0
LINE
  8
0
 10
-136.942
 20
863.911
 11
-136.75
 21
864.143
  0
LINE
  8
0
 10
-136.75
 20
864.143
 11
-136.53
 21
864.349
  0
LINE
  8
0
 10
-136.53
 20
864.349
 11
-136.286
 21
864.526
  0
LINE
  8
0
 10
-136.286
 20
864.526
 11
-136.022
 21
864.672
  0
LINE
  8
0
 10
-136.022
 20
864.672
 11
-135.742
 21
864.783
  0
LINE
  8
0
 10
-135.742
 20
864.783
 11
-135.45
 21
864.857
  0
LINE
  8
0
 10
-135.45
 20
864.857
 11
-135.151
 21
864.895
  0
LINE
  8
0
 10
-135.151
 20
864.895
 11
-134.849
 21
864.895
  0
LINE
  8
0
 10
-134.849
 20
864.895
 11
-134.55
 21
864.857
  0
LINE
  8
0
 10
-134.55
 20
864.857
 11
-134.258
 21
864.783
  0
LINE
  8
0
 10
-134.258
 20
864.783
 11
-133.978
 21
864.672
  0
LINE
  8
0
 10
-133.978
 20
864.672
 11
-133.714
 21
864.526
  0
LINE
  8
0
 10
-133.714
 20
864.526
 11
-133.47
 21
864.349
  0
LINE
  8
0
 10
-133.47
 20
864.349
 11
-133.25
 21
864.143
  0
LINE
  8
0
 10
-133.25
 20
864.143
 11
-133.058
 21
863.911
  0
LINE
  8
0
 10
-133.058
 20
863.911
 11
-132.897
 21
863.656
  0
LINE
  8
0
 10
-132.897
 20
863.656
 11
-132.769
 21
863.383
  0
LINE
  8
0
 10
-132.769
 20
863.383
 11
-132.675
 21
863.097
  0
LINE
  8
0
 10
-132.675
 20
863.097
 11
-132.619
 21
862.801
  0
LINE
  8
0
 10
-132.619
 20
862.801
 11
-132.6
 21
862.5
  0
LINE
  8
0
 10
-132.6
 20
862.5
 11
-132.619
 21
862.199
  0
LINE
  8
0
 10
-132.619
 20
862.199
 11
-132.675
 21
861.903
  0
LINE
  8
0
 10
-132.675
 20
861.903
 11
-132.769
 21
861.617
  0
LINE
  8
0
 10
-132.769
 20
861.617
 11
-132.897
 21
861.344
  0
LINE
  8
0
 10
-132.897
 20
861.344
 11
-133.058
 21
861.089
  0
LINE
  8
0
 10
-133.058
 20
861.089
 11
-133.25
 21
860.857
  0
LINE
  8
0
 10
-133.25
 20
860.857
 11
-133.47
 21
860.651
  0
LINE
  8
0
 10
-133.47
 20
860.651
 11
-133.714
 21
860.474
  0
LINE
  8
0
 10
-133.714
 20
860.474
 11
-133.978
 21
860.328
  0
LINE
  8
0
 10
-133.978
 20
860.328
 11
-134.258
 21
860.217
  0
LINE
  8
0
 10
-134.258
 20
860.217
 11
-134.55
 21
860.143
  0
LINE
  8
0
 10
-134.55
 20
860.143
 11
-134.849
 21
860.105
  0
LINE
  8
0
 10
-134.849
 20
860.105
 11
-135.151
 21
860.105
  0
LINE
  8
0
 10
134.849
 20
860.105
 11
134.55
 21
860.143
  0
LINE
  8
0
 10
134.55
 20
860.143
 11
134.258
 21
860.217
  0
LINE
  8
0
 10
134.258
 20
860.217
 11
133.978
 21
860.328
  0
LINE
  8
0
 10
133.978
 20
860.328
 11
133.714
 21
860.474
  0
LINE
  8
0
 10
133.714
 20
860.474
 11
133.47
 21
860.651
  0
LINE
  8
0
 10
133.47
 20
860.651
 11
133.25
 21
860.857
  0
LINE
  8
0
 10
133.25
 20
860.857
 11
133.058
 21
861.089
  0
LINE
  8
0
 10
133.058
 20
861.089
 11
132.897
 21
861.344
  0
LINE
  8
0
 10
132.897
 20
861.344
 11
132.769
 21
861.617
  0
LINE
  8
0
 10
132.769
 20
861.617
 11
132.675
 21
861.903
  0
LINE
  8
0
 10
132.675
 20
861.903
 11
132.619
 21
862.199
  0
LINE
  8
0
 10
132.619
 20
862.199
 11
132.6
 21
862.5
  0
LINE
  8
0
 10
132.6
 20
862.5
 11
132.619
 21
862.801
  0
LINE
  8
0
 10
132.619
 20
862.801
 11
132.675
 21
863.097
  0
LINE
  8
0
 10
132.675
 20
863.097
 11
132.769
 21
863.383
  0
LINE
  8
0
 10
132.769
 20
863.383
 11
132.897
 21
863.656
  0
LINE
  8
0
 10
132.897
 20
863.656
 11
133.058
 21
863.911
  0
LINE
  8
0
 10
133.058
 20
863.911
 11
133.25
 21
864.143
  0
LINE
  8
0
 10
133.25
 20
864.143
 11
133.47
 21
864.349
  0
LINE
  8
0
 10
133.47
 20
864.349
 11
133.714
 21
864.526
  0
LINE
  8
0
 10
133.714
 20
864.526
 11
133.978
 21
864.672
  0
LINE
  8
0
 10
133.978
 20
864.672
 11
134.258
 21
864.783
  0
LINE
  8
0
 10
134.258
 20
864.783
 11
134.55
 21
864.857
  0
LINE
  8
0
 10
134.55
 20
864.857
 11
134.849
 21
864.895
  0
LINE
  8
0
 10
134.849
 20
864.895
 11
135.151
 21
864.895
  0
LINE
  8
0
 10
135.151
 20
864.895
 11
135.45
 21
864.857
  0
LINE
  8
0
 10
135.45
 20
864.857
 11
135.742
 21
864.783
  0
LINE
  8
0
 10
135.742
 20
864.783
 11
136.022
 21
864.672
  0
LINE
  8
0
 10
136.022
 20
864.672
 11
136.286
 21
864.526
  0
LINE
  8
0
 10
136.286
 20
864.526
 11
136.53
 21
864.349
  0
LINE
  8
0
 10
136.53
 20
864.349
 11
136.75
 21
864.143
  0
LINE
  8
0
 10
136.75
 20
864.143
 11
136.942
 21
863.911
  0
LINE
  8
0
 10
136.942
 20
863.911
 11
137.103
 21
863.656
  0
LINE
  8
0
 10
137.103
 20
863.656
 11
137.231
 21
863.383
  0
LINE
  8
0
 10
137.231
 20
863.383
 11
137.325
 21
863.097
  0
LINE
  8
0
 10
137.325
 20
863.097
 11
137.381
 21
862.801
  0
LINE
  8
0
 10
137.381
 20
862.801
 11
137.4
 21
862.5
  0
LINE
  8
0
 10
137.4
 20
862.5
 11
137.381
 21
862.199
  0
LINE
  8
0
 10
137.381
 20
862.199
 11
137.325
 21
861.903
  0
LINE
  8
0
 10
137.325
 20
861.903
 11
137.231
 21
861.617
  0
LINE
  8
0
 10
137.231
 20
861.617
 11
137.103
 21
861.344
  0
LINE
  8
0
 10
137.103
 20
861.344
 11
136.942
 21
861.089
  0
LINE
  8
0
 10
136.942
 20
861.089
 11
136.75
 21
860.857
  0
LINE
  8
0
 10
136.75
 20
860.857
 11
136.53
 21
860.651
  0
LINE
  8
0
 10
136.53
 20
860.651
 11
136.286
 21
860.474
  0
LINE
  8
0
 10
136.286
 20
860.474
 11
136.022
 21
860.328
  0
LINE
  8
0
 10
136.022
 20
860.328
 11
135.742
 21
860.217
  0
LINE
  8
0
 10
135.742
 20
860.217
 11
135.45
 21
860.143
  0
LINE
  8
0
 10
135.45
 20
860.143
 11
135.151
 21
860.105
  0
LINE
  8
0
 10
135.151
 20
860.105
 11
134.849
 21
860.105
  0
LINE
  8
0
 10
138.437
 20
666.089
 11
139.045
 21
666.245
  0
LINE
  8
0
 10
139.045
 20
666.245
 11
139.629
 21
666.476
  0
LINE
  8
0
 10
139.629
 20
666.476
 11
140.179
 21
666.778
  0
LINE
  8
0
 10
140.179
 20
666.778
 11
140.687
 21
667.147
  0
LINE
  8
0
 10
140.687
 20
667.147
 11
141.145
 21
667.577
  0
LINE
  8
0
 10
141.145
 20
667.577
 11
141.545
 21
668.061
  0
LINE
  8
0
 10
141.545
 20
668.061
 11
141.882
 21
668.591
  0
LINE
  8
0
 10
141.882
 20
668.591
 11
142.149
 21
669.159
  0
LINE
  8
0
 10
142.149
 20
669.159
 11
142.343
 21
669.757
  0
LINE
  8
0
 10
142.343
 20
669.757
 11
142.461
 21
670.373
  0
LINE
  8
0
 10
142.461
 20
670.373
 11
142.5
 21
671
  0
LINE
  8
0
 10
142.5
 20
671
 11
142.5
 21
841
  0
LINE
  8
0
 10
142.5
 20
841
 11
142.461
 21
841.627
  0
LINE
  8
0
 10
142.461
 20
841.627
 11
142.343
 21
842.243
  0
LINE
  8
0
 10
142.343
 20
842.243
 11
142.149
 21
842.841
  0
LINE
  8
0
 10
142.149
 20
842.841
 11
141.882
 21
843.409
  0
LINE
  8
0
 10
141.882
 20
843.409
 11
141.545
 21
843.939
  0
LINE
  8
0
 10
141.545
 20
843.939
 11
141.145
 21
844.423
  0
LINE
  8
0
 10
141.145
 20
844.423
 11
140.687
 21
844.853
  0
LINE
  8
0
 10
140.687
 20
844.853
 11
140.179
 21
845.222
  0
LINE
  8
0
 10
140.179
 20
845.222
 11
139.629
 21
845.524
  0
LINE
  8
0
 10
139.629
 20
845.524
 11
139.045
 21
845.755
  0
LINE
  8
0
 10
139.045
 20
845.755
 11
138.437
 21
845.911
  0
LINE
  8
0
 10
138.437
 20
845.911
 11
137.814
 21
845.99
  0
LINE
  8
0
 10
137.814
 20
845.99
 11
-137.814
 21
845.99
  0
LINE
  8
0
 10
-137.814
 20
845.99
 11
-138.437
 21
845.911
  0
LINE
  8
0
 10
-138.437
 20
845.911
 11
-139.045
 21
845.755
  0
LINE
  8
0
 10
-139.045
 20
845.755
 11
-139.629
 21
845.524
  0
LINE
  8
0
 10
-139.629
 20
845.524
 11
-140.179
 21
845.222
  0
LINE
  8
0
 10
-140.179
 20
845.222
 11
-140.687
 21
844.853
  0
LINE
  8
0
 10
-140.687
 20
844.853
 11
-141.145
 21
844.423
  0
LINE
  8
0
 10
-141.145
 20
844.423
 11
-141.545
 21
843.939
  0
LINE
  8
0
 10
-141.545
 20
843.939
 11
-141.882
 21
843.409
  0
LINE
  8
0
 10
-141.882
 20
843.409
 11
-142.149
 21
842.841
  0
LINE
  8
0
 10
-142.149
 20
842.841
 11
-142.343
 21
842.243
  0
LINE
  8
0
 10
-142.343
 20
842.243
 11
-142.4
 21
841.944
  0
LINE
  8
0
 10
-142.4
 20
841.944
 11
-144
 21
841.944
  0
LINE
  8
0
 10
-144
 20
841.944
 11
-144
 21
670.056
  0
LINE
  8
0
 10
-144
 20
670.056
 11
-142.4
 21
670.056
  0
LINE
  8
0
 10
-142.4
 20
670.056
 11
-142.343
 21
669.757
  0
LINE
  8
0
 10
-142.343
 20
669.757
 11
-142.149
 21
669.159
  0
LINE
  8
0
 10
-142.149
 20
669.159
 11
-141.882
 21
668.591
  0
LINE
  8
0
 10
-141.882
 20
668.591
 11
-141.545
 21
668.061
  0
LINE
  8
0
 10
-141.545
 20
668.061
 11
-141.145
 21
667.577
  0
LINE
  8
0
 10
-141.145
 20
667.577
 11
-140.687
 21
667.147
  0
LINE
  8
0
 10
-140.687
 20
667.147
 11
-140.179
 21
666.778
  0
LINE
  8
0
 10
-140.179
 20
666.778
 11
-139.629
 21
666.476
  0
LINE
  8
0
 10
-139.629
 20
666.476
 11
-139.045
 21
666.245
  0
LINE
  8
0
 10
-139.045
 20
666.245
 11
-138.437
 21
666.089
  0
LINE
  8
0
 10
-138.437
 20
666.089
 11
-137.814
 21
666.01
  0
LINE
  8
0
 10
-137.814
 20
666.01
 11
137.814
 21
666.01
  0
LINE
  8
0
 10
137.814
 20
666.01
 11
138.437
 21
666.089
  0
LINE
  8
0
 10
-135.113
 20
836.704
 11
-135.337
 21
836.732
  0
LINE
  8
0
 10
-135.337
 20
836.732
 11
-135.556
 21
836.788
  0
LINE
  8
0
 10
-135.556
 20
836.788
 11
-135.766
 21
836.871
  0
LINE
  8
0
 10
-135.766
 20
836.871
 11
-135.964
 21
836.98
  0
LINE
  8
0
 10
-135.964
 20
836.98
 11
-136.147
 21
837.113
  0
LINE
  8
0
 10
-136.147
 20
837.113
 11
-136.312
 21
837.268
  0
LINE
  8
0
 10
-136.312
 20
837.268
 11
-136.456
 21
837.442
  0
LINE
  8
0
 10
-136.456
 20
837.442
 11
-136.577
 21
837.633
  0
LINE
  8
0
 10
-136.577
 20
837.633
 11
-136.674
 21
837.837
  0
LINE
  8
0
 10
-136.674
 20
837.837
 11
-136.743
 21
838.052
  0
LINE
  8
0
 10
-136.743
 20
838.052
 11
-136.786
 21
838.274
  0
LINE
  8
0
 10
-136.786
 20
838.274
 11
-136.8
 21
838.5
  0
LINE
  8
0
 10
-136.8
 20
838.5
 11
-136.786
 21
838.726
  0
LINE
  8
0
 10
-136.786
 20
838.726
 11
-136.743
 21
838.948
  0
LINE
  8
0
 10
-136.743
 20
838.948
 11
-136.674
 21
839.163
  0
LINE
  8
0
 10
-136.674
 20
839.163
 11
-136.577
 21
839.367
  0
LINE
  8
0
 10
-136.577
 20
839.367
 11
-136.456
 21
839.558
  0
LINE
  8
0
 10
-136.456
 20
839.558
 11
-136.312
 21
839.732
  0
LINE
  8
0
 10
-136.312
 20
839.732
 11
-136.147
 21
839.887
  0
LINE
  8
0
 10
-136.147
 20
839.887
 11
-135.964
 21
840.02
  0
LINE
  8
0
 10
-135.964
 20
840.02
 11
-135.766
 21
840.129
  0
LINE
  8
0
 10
-135.766
 20
840.129
 11
-135.556
 21
840.212
  0
LINE
  8
0
 10
-135.556
 20
840.212
 11
-135.337
 21
840.268
  0
LINE
  8
0
 10
-135.337
 20
840.268
 11
-135.113
 21
840.296
  0
LINE
  8
0
 10
-135.113
 20
840.296
 11
-134.887
 21
840.296
  0
LINE
  8
0
 10
-134.887
 20
840.296
 11
-134.663
 21
840.268
  0
LINE
  8
0
 10
-134.663
 20
840.268
 11
-134.444
 21
840.212
  0
LINE
  8
0
 10
-134.444
 20
840.212
 11
-134.234
 21
840.129
  0
LINE
  8
0
 10
-134.234
 20
840.129
 11
-134.036
 21
840.02
  0
LINE
  8
0
 10
-134.036
 20
840.02
 11
-133.853
 21
839.887
  0
LINE
  8
0
 10
-133.853
 20
839.887
 11
-133.688
 21
839.732
  0
LINE
  8
0
 10
-133.688
 20
839.732
 11
-133.544
 21
839.558
  0
LINE
  8
0
 10
-133.544
 20
839.558
 11
-133.423
 21
839.367
  0
LINE
  8
0
 10
-133.423
 20
839.367
 11
-133.326
 21
839.163
  0
LINE
  8
0
 10
-133.326
 20
839.163
 11
-133.257
 21
838.948
  0
LINE
  8
0
 10
-133.257
 20
838.948
 11
-133.214
 21
838.726
  0
LINE
  8
0
 10
-133.214
 20
838.726
 11
-133.2
 21
838.5
  0
LINE
  8
0
 10
-133.2
 20
838.5
 11
-133.214
 21
838.274
  0
LINE
  8
0
 10
-133.214
 20
838.274
 11
-133.257
 21
838.052
  0
LINE
  8
0
 10
-133.257
 20
838.052
 11
-133.326
 21
837.837
  0
LINE
  8
0
 10
-133.326
 20
837.837
 11
-133.423
 21
837.633
  0
LINE
  8
0
 10
-133.423
 20
837.633
 11
-133.544
 21
837.442
  0
LINE
  8
0
 10
-133.544
 20
837.442
 11
-133.688
 21
837.268
  0
LINE
  8
0
 10
-133.688
 20
837.268
 11
-133.853
 21
837.113
  0
LINE
  8
0
 10
-133.853
 20
837.113
 11
-134.036
 21
836.98
  0
LINE
  8
0
 10
-134.036
 20
836.98
 11
-134.234
 21
836.871
  0
LINE
  8
0
 10
-134.234
 20
836.871
 11
-134.444
 21
836.788
  0
LINE
  8
0
 10
-134.444
 20
836.788
 11
-134.663
 21
836.732
  0
LINE
  8
0
 10
-134.663
 20
836.732
 11
-134.887
 21
836.704
  0
LINE
  8
0
 10
-134.887
 20
836.704
 11
-135.113
 21
836.704
  0
LINE
  8
0
 10
134.887
 20
836.704
 11
134.663
 21
836.732
  0
LINE
  8
0
 10
134.663
 20
836.732
 11
134.444
 21
836.788
  0
LINE
  8
0
 10
134.444
 20
836.788
 11
134.234
 21
836.871
  0
LINE
  8
0
 10
134.234
 20
836.871
 11
134.036
 21
836.98
  0
LINE
  8
0
 10
134.036
 20
836.98
 11
133.853
 21
837.113
  0
LINE
  8
0
 10
133.853
 20
837.113
 11
133.688
 21
837.268
  0
LINE
  8
0
 10
133.688
 20
837.268
 11
133.544
 21
837.442
  0
LINE
  8
0
 10
133.544
 20
837.442
 11
133.423
 21
837.633
  0
LINE
  8
0
 10
133.423
 20
837.633
 11
133.326
 21
837.837
  0
LINE
  8
0
 10
133.326
 20
837.837
 11
133.257
 21
838.052
  0
LINE
  8
0
 10
133.257
 20
838.052
 11
133.214
 21
838.274
  0
LINE
  8
0
 10
133.214
 20
838.274
 11
133.2
 21
838.5
  0
LINE
  8
0
 10
133.2
 20
838.5
 11
133.214
 21
838.726
  0
LINE
  8
0
 10
133.214
 20
838.726
 11
133.257
 21
838.948
  0
LINE
  8
0
 10
133.257
 20
838.948
 11
133.326
 21
839.163
  0
LINE
  8
0
 10
133.326
 20
839.163
 11
133.423
 21
839.367
  0
LINE
  8
0
 10
133.423
 20
839.367
 11
133.544
 21
839.558
  0
LINE
  8
0
 10
133.544
 20
839.558
 11
133.688
 21
839.732
  0
LINE
  8
0
 10
133.688
 20
839.732
 11
133.853
 21
839.887
  0
LINE
  8
0
 10
133.853
 20
839.887
 11
134.036
 21
840.02
  0
LINE
  8
0
 10
134.036
 20
840.02
 11
134.234
 21
840.129
  0
LINE
  8
0
 10
134.234
 20
840.129
 11
134.444
 21
840.212
  0
LINE
  8
0
 10
134.444
 20
840.212
 11
134.663
 21
840.268
  0
LINE
  8
0
 10
134.663
 20
840.268
 11
134.887
 21
840.296
  0
LINE
  8
0
 10
134.887
 20
840.296
 11
135.113
 21
840.296
  0
LINE
  8
0
 10
135.113
 20
840.296
 11
135.337
 21
840.268
  0
LINE
  8
0
 10
135.337
 20
840.268
 11
135.556
 21
840.212
  0
LINE
  8
0
 10
135.556
 20
840.212
 11
135.766
 21
840.129
  0
LINE
  8
0
 10
135.766
 20
840.129
 11
135.964
 21
840.02
  0
LINE
  8
0
 10
135.964
 20
840.02
 11
136.147
 21
839.887
  0
LINE
  8
0
 10
136.147
 20
839.887
 11
136.312
 21
839.732
  0
LINE
  8
0
 10
136.312
 20
839.732
 11
136.456
 21
839.558
  0
LINE
  8
0
 10
136.456
 20
839.558
 11
136.577
 21
839.367
  0
LINE
  8
0
 10
136.577
 20
839.367
 11
136.674
 21
839.163
  0
LINE
  8
0
 10
136.674
 20
839.163
 11
136.743
 21
838.948
  0
LINE
  8
0
 10
136.743
 20
838.948
 11
136.786
 21
838.726
  0
LINE
  8
0
 10
136.786
 20
838.726
 11
136.8
 21
838.5
  0
LINE
  8
0
 10
136.8
 20
838.5
 11
136.786
 21
838.274
  0
LINE
  8
0
 10
136.786
 20
838.274
 11
136.743
 21
838.052
  0
LINE
  8
0
 10
136.743
 20
838.052
 11
136.674
 21
837.837
  0
LINE
  8
0
 10
136.674
 20
837.837
 11
136.577
 21
837.633
  0
LINE
  8
0
 10
136.577
 20
837.633
 11
136.456
 21
837.442
  0
LINE
  8
0
 10
136.456
 20
837.442
 11
136.312
 21
837.268
  0
LINE
  8
0
 10
136.312
 20
837.268
 11
136.147
 21
837.113
  0
LINE
  8
0
 10
136.147
 20
837.113
 11
135.964
 21
836.98
  0
LINE
  8
0
 10
135.964
 20
836.98
 11
135.766
 21
836.871
  0
LINE
  8
0
 10
135.766
 20
836.871
 11
135.556
 21
836.788
  0
LINE
  8
0
 10
135.556
 20
836.788
 11
135.337
 21
836.732
  0
LINE
  8
0
 10
135.337
 20
836.732
 11
135.113
 21
836.704
  0
LINE
  8
0
 10
135.113
 20
836.704
 11
134.887
 21
836.704
  0
LINE
  8
0
 10
-135.113
 20
671.704
 11
-135.337
 21
671.732
  0
LINE
  8
0
 10
-135.337
 20
671.732
 11
-135.556
 21
671.788
  0
LINE
  8
0
 10
-135.556
 20
671.788
 11
-135.766
 21
671.871
  0
LINE
  8
0
 10
-135.766
 20
671.871
 11
-135.964
 21
671.98
  0
LINE
  8
0
 10
-135.964
 20
671.98
 11
-136.147
 21
672.113
  0
LINE
  8
0
 10
-136.147
 20
672.113
 11
-136.312
 21
672.268
  0
LINE
  8
0
 10
-136.312
 20
672.268
 11
-136.456
 21
672.442
  0
LINE
  8
0
 10
-136.456
 20
672.442
 11
-136.577
 21
672.633
  0
LINE
  8
0
 10
-136.577
 20
672.633
 11
-136.674
 21
672.837
  0
LINE
  8
0
 10
-136.674
 20
672.837
 11
-136.743
 21
673.052
  0
LINE
  8
0
 10
-136.743
 20
673.052
 11
-136.786
 21
673.274
  0
LINE
  8
0
 10
-136.786
 20
673.274
 11
-136.8
 21
673.5
  0
LINE
  8
0
 10
-136.8
 20
673.5
 11
-136.786
 21
673.726
  0
LINE
  8
0
 10
-136.786
 20
673.726
 11
-136.743
 21
673.948
  0
LINE
  8
0
 10
-136.743
 20
673.948
 11
-136.674
 21
674.163
  0
LINE
  8
0
 10
-136.674
 20
674.163
 11
-136.577
 21
674.367
  0
LINE
  8
0
 10
-136.577
 20
674.367
 11
-136.456
 21
674.558
  0
LINE
  8
0
 10
-136.456
 20
674.558
 11
-136.312
 21
674.732
  0
LINE
  8
0
 10
-136.312
 20
674.732
 11
-136.147
 21
674.887
  0
LINE
  8
0
 10
-136.147
 20
674.887
 11
-135.964
 21
675.02
  0
LINE
  8
0
 10
-135.964
 20
675.02
 11
-135.766
 21
675.129
  0
LINE
  8
0
 10
-135.766
 20
675.129
 11
-135.556
 21
675.212
  0
LINE
  8
0
 10
-135.556
 20
675.212
 11
-135.337
 21
675.268
  0
LINE
  8
0
 10
-135.337
 20
675.268
 11
-135.113
 21
675.296
  0
LINE
  8
0
 10
-135.113
 20
675.296
 11
-134.887
 21
675.296
  0
LINE
  8
0
 10
-134.887
 20
675.296
 11
-134.663
 21
675.268
  0
LINE
  8
0
 10
-134.663
 20
675.268
 11
-134.444
 21
675.212
  0
LINE
  8
0
 10
-134.444
 20
675.212
 11
-134.234
 21
675.129
  0
LINE
  8
0
 10
-134.234
 20
675.129
 11
-134.036
 21
675.02
  0
LINE
  8
0
 10
-134.036
 20
675.02
 11
-133.853
 21
674.887
  0
LINE
  8
0
 10
-133.853
 20
674.887
 11
-133.688
 21
674.732
  0
LINE
  8
0
 10
-133.688
 20
674.732
 11
-133.544
 21
674.558
  0
LINE
  8
0
 10
-133.544
 20
674.558
 11
-133.423
 21
674.367
  0
LINE
  8
0
 10
-133.423
 20
674.367
 11
-133.326
 21
674.163
  0
LINE
  8
0
 10
-133.326
 20
674.163
 11
-133.257
 21
673.948
  0
LINE
  8
0
 10
-133.257
 20
673.948
 11
-133.214
 21
673.726
  0
LINE
  8
0
 10
-133.214
 20
673.726
 11
-133.2
 21
673.5
  0
LINE
  8
0
 10
-133.2
 20
673.5
 11
-133.214
 21
673.274
  0
LINE
  8
0
 10
-133.214
 20
673.274
 11
-133.257
 21
673.052
  0
LINE
  8
0
 10
-133.257
 20
673.052
 11
-133.326
 21
672.837
  0
LINE
  8
0
 10
-133.326
 20
672.837
 11
-133.423
 21
672.633
  0
LINE
  8
0
 10
-133.423
 20
672.633
 11
-133.544
 21
672.442
  0
LINE
  8
0
 10
-133.544
 20
672.442
 11
-133.688
 21
672.268
  0
LINE
  8
0
 10
-133.688
 20
672.268
 11
-133.853
 21
672.113
  0
LINE
  8
0
 10
-133.853
 20
672.113
 11
-134.036
 21
671.98
  0
LINE
  8
0
 10
-134.036
 20
671.98
 11
-134.234
 21
671.871
  0
LINE
  8
0
 10
-134.234
 20
671.871
 11
-134.444
 21
671.788
  0
LINE
  8
0
 10
-134.444
 20
671.788
 11
-134.663
 21
671.732
  0
LINE
  8
0
 10
-134.663
 20
671.732
 11
-134.887
 21
671.704
  0
LINE
  8
0
 10
-134.887
 20
671.704
 11
-135.113
 21
671.704
  0
LINE
  8
0
 10
134.887
 20
671.704
 11
134.663
 21
671.732
  0
LINE
  8
0
 10
134.663
 20
671.732
 11
134.444
 21
671.788
  0
LINE
  8
0
 10
134.444
 20
671.788
 11
134.234
 21
671.871
  0
LINE
  8
0
 10
134.234
 20
671.871
 11
134.036
 21
671.98
  0
LINE
  8
0
 10
134.036
 20
671.98
 11
133.853
 21
672.113
  0
LINE
  8
0
 10
133.853
 20
672.113
 11
133.688
 21
672.268
  0
LINE
  8
0
 10
133.688
 20
672.268
 11
133.544
 21
672.442
  0
LINE
  8
0
 10
133.544
 20
672.442
 11
133.423
 21
672.633
  0
LINE
  8
0
 10
133.423
 20
672.633
 11
133.326
 21
672.837
  0
LINE
  8
0
 10
133.326
 20
672.837
 11
133.257
 21
673.052
  0
LINE
  8
0
 10
133.257
 20
673.052
 11
133.214
 21
673.274
  0
LINE
  8
0
 10
133.214
 20
673.274
 11
133.2
 21
673.5
  0
LINE
  8
0
 10
133.2
 20
673.5
 11
133.214
 21
673.726
  0
LINE
  8
0
 10
133.214
 20
673.726
 11
133.257
 21
673.948
  0
LINE
  8
0
 10
133.257
 20
673.948
 11
133.326
 21
674.163
  0
LINE
  8
0
 10
133.326
 20
674.163
 11
133.423
 21
674.367
  0
LINE
  8
0
 10
133.423
 20
674.367
 11
133.544
 21
674.558
  0
LINE
  8
0
 10
133.544
 20
674.558
 11
133.688
 21
674.732
  0
LINE
  8
0
 10
133.688
 20
674.732
 11
133.853
 21
674.887
  0
LINE
  8
0
 10
133.853
 20
674.887
 11
134.036
 21
675.02
  0
LINE
  8
0
 10
134.036
 20
675.02
 11
134.234
 21
675.129
  0
LINE
  8
0
 10
134.234
 20
675.129
 11
134.444
 21
675.212
  0
LINE
  8
0
 10
134.444
 20
675.212
 11
134.663
 21
675.268
  0
LINE
  8
0
 10
134.663
 20
675.268
 11
134.887
 21
675.296
  0
LINE
  8
0
 10
134.887
 20
675.296
 11
135.113
 21
675.296
  0
LINE
  8
0
 10
135.113
 20
675.296
 11
135.337
 21
675.268
  0
LINE
  8
0
 10
135.337
 20
675.268
 11
135.556
 21
675.212
  0
LINE
  8
0
 10
135.556
 20
675.212
 11
135.766
 21
675.129
  0
LINE
  8
0
 10
135.766
 20
675.129
 11
135.964
 21
675.02
  0
LINE
  8
0
 10
135.964
 20
675.02
 11
136.147
 21
674.887
  0
LINE
  8
0
 10
136.147
 20
674.887
 11
136.312
 21
674.732
  0
LINE
  8
0
 10
136.312
 20
674.732
 11
136.456
 21
674.558
  0
LINE
  8
0
 10
136.456
 20
674.558
 11
136.577
 21
674.367
  0
LINE
  8
0
 10
136.577
 20
674.367
 11
136.674
 21
674.163
  0
LINE
  8
0
 10
136.674
 20
674.163
 11
136.743
 21
673.948
  0
LINE
  8
0
 10
136.743
 20
673.948
 11
136.786
 21
673.726
  0
LINE
  8
0
 10
136.786
 20
673.726
 11
136.8
 21
673.5
  0
LINE
  8
0
 10
136.8
 20
673.5
 11
136.786
 21
673.274
  0
LINE
  8
0
 10
136.786
 20
673.274
 11
136.743
 21
673.052
  0
LINE
  8
0
 10
136.743
 20
673.052
 11
136.674
 21
672.837
  0
LINE
  8
0
 10
136.674
 20
672.837
 11
136.577
 21
672.633
  0
LINE
  8
0
 10
136.577
 20
672.633
 11
136.456
 21
672.442
  0
LINE
  8
0
 10
136.456
 20
672.442
 11
136.312
 21
672.268
  0
LINE
  8
0
 10
136.312
 20
672.268
 11
136.147
 21
672.113
  0
LINE
  8
0
 10
136.147
 20
672.113
 11
135.964
 21
671.98
  0
LINE
  8
0
 10
135.964
 20
671.98
 11
135.766
 21
671.871
  0
LINE
  8
0
 10
135.766
 20
671.871
 11
135.556
 21
671.788
  0
LINE
  8
0
 10
135.556
 20
671.788
 11
135.337
 21
671.732
  0
LINE
  8
0
 10
135.337
 20
671.732
 11
135.113
 21
671.704
  0
LINE
  8
0
 10
135.113
 20
671.704
 11
134.887
 21
671.704
  0
ENDSEC
  0
SECTION
  2
OBJECTS
  0
DICTIONARY
  0
ENDSEC
  0
EOF
