  0
SECTION
  2
BLOCKS
  0
ENDSEC
  0
SECTION
  2
ENTITIES
  0
LINE
  8
0
 10
123.437
 20
777.089
 11
124.045
 21
777.245
  0
LINE
  8
0
 10
124.045
 20
777.245
 11
124.629
 21
777.476
  0
LINE
  8
0
 10
124.629
 20
777.476
 11
125.179
 21
777.778
  0
LINE
  8
0
 10
125.179
 20
777.778
 11
125.687
 21
778.147
  0
LINE
  8
0
 10
125.687
 20
778.147
 11
126.145
 21
778.577
  0
LINE
  8
0
 10
126.145
 20
778.577
 11
126.545
 21
779.061
  0
LINE
  8
0
 10
126.545
 20
779.061
 11
126.882
 21
779.591
  0
LINE
  8
0
 10
126.882
 20
779.591
 11
127.149
 21
780.159
  0
LINE
  8
0
 10
127.149
 20
780.159
 11
127.343
 21
780.757
  0
LINE
  8
0
 10
127.343
 20
780.757
 11
127.461
 21
781.373
  0
LINE
  8
0
 10
127.461
 20
781.373
 11
127.5
 21
782
  0
LINE
  8
0
 10
127.5
 20
782
 11
127.5
 21
1072
  0
LINE
  8
0
 10
127.5
 20
1072
 11
127.461
 21
1072.63
  0
LINE
  8
0
 10
127.461
 20
1072.63
 11
127.343
 21
1073.24
  0
LINE
  8
0
 10
127.343
 20
1073.24
 11
127.149
 21
1073.84
  0
LINE
  8
0
 10
127.149
 20
1073.84
 11
126.882
 21
1074.41
  0
LINE
  8
0
 10
126.882
 20
1074.41
 11
126.545
 21
1074.94
  0
LINE
  8
0
 10
126.545
 20
1074.94
 11
126.145
 21
1075.42
  0
LINE
  8
0
 10
126.145
 20
1075.42
 11
125.687
 21
1075.85
  0
LINE
  8
0
 10
125.687
 20
1075.85
 11
125.179
 21
1076.22
  0
LINE
  8
0
 10
125.179
 20
1076.22
 11
124.629
 21
1076.52
  0
LINE
  8
0
 10
124.629
 20
1076.52
 11
124.045
 21
1076.76
  0
LINE
  8
0
 10
124.045
 20
1076.76
 11
123.437
 21
1076.91
  0
LINE
  8
0
 10
123.437
 20
1076.91
 11
122.814
 21
1076.99
  0
LINE
  8
0
 10
122.814
 20
1076.99
 11
-122.814
 21
1076.99
  0
LINE
  8
0
 10
-122.814
 20
1076.99
 11
-123.437
 21
1076.91
  0
LINE
  8
0
 10
-123.437
 20
1076.91
 11
-124.045
 21
1076.76
  0
LINE
  8
0
 10
-124.045
 20
1076.76
 11
-124.629
 21
1076.52
  0
LINE
  8
0
 10
-124.629
 20
1076.52
 11
-125.179
 21
1076.22
  0
LINE
  8
0
 10
-125.179
 20
1076.22
 11
-125.687
 21
1075.85
  0
LINE
  8
0
 10
-125.687
 20
1075.85
 11
-126.145
 21
1075.42
  0
LINE
  8
0
 10
-126.145
 20
1075.42
 11
-126.545
 21
1074.94
  0
LINE
  8
0
 10
-126.545
 20
1074.94
 11
-126.882
 21
1074.41
  0
LINE
  8
0
 10
-126.882
 20
1074.41
 11
-127.149
 21
1073.84
  0
LINE
  8
0
 10
-127.149
 20
1073.84
 11
-127.343
 21
1073.24
  0
LINE
  8
0
 10
-127.343
 20
1073.24
 11
-127.461
 21
1072.63
  0
LINE
  8
0
 10
-127.461
 20
1072.63
 11
-127.5
 21
1072
  0
LINE
  8
0
 10
-127.5
 20
1072
 11
-127.5
 21
782
  0
LINE
  8
0
 10
-127.5
 20
782
 11
-127.461
 21
781.373
  0
LINE
  8
0
 10
-127.461
 20
781.373
 11
-127.343
 21
780.757
  0
LINE
  8
0
 10
-127.343
 20
780.757
 11
-127.149
 21
780.159
  0
LINE
  8
0
 10
-127.149
 20
780.159
 11
-126.882
 21
779.591
  0
LINE
  8
0
 10
-126.882
 20
779.591
 11
-126.545
 21
779.061
  0
LINE
  8
0
 10
-126.545
 20
779.061
 11
-126.145
 21
778.577
  0
LINE
  8
0
 10
-126.145
 20
778.577
 11
-125.687
 21
778.147
  0
LINE
  8
0
 10
-125.687
 20
778.147
 11
-125.179
 21
777.778
  0
LINE
  8
0
 10
-125.179
 20
777.778
 11
-124.629
 21
777.476
  0
LINE
  8
0
 10
-124.629
 20
777.476
 11
-124.045
 21
777.245
  0
LINE
  8
0
 10
-124.045
 20
777.245
 11
-123.437
 21
777.089
  0
LINE
  8
0
 10
-123.437
 20
777.089
 11
-122.814
 21
777.01
  0
LINE
  8
0
 10
-122.814
 20
777.01
 11
122.814
 21
777.01
  0
LINE
  8
0
 10
122.814
 20
777.01
 11
123.437
 21
777.089
  0
LINE
  8
0
 10
-122.195
 20
779.393
 11
-122.583
 21
779.442
  0
LINE
  8
0
 10
-122.583
 20
779.442
 11
-122.962
 21
779.539
  0
LINE
  8
0
 10
-122.962
 20
779.539
 11
-123.325
 21
779.683
  0
LINE
  8
0
 10
-123.325
 20
779.683
 11
-123.668
 21
779.872
  0
LINE
  8
0
 10
-123.668
 20
779.872
 11
-123.984
 21
780.101
  0
LINE
  8
0
 10
-123.984
 20
780.101
 11
-124.269
 21
780.369
  0
LINE
  8
0
 10
-124.269
 20
780.369
 11
-124.518
 21
780.67
  0
LINE
  8
0
 10
-124.518
 20
780.67
 11
-124.728
 21
781
  0
LINE
  8
0
 10
-124.728
 20
781
 11
-124.894
 21
781.354
  0
LINE
  8
0
 10
-124.894
 20
781.354
 11
-125.015
 21
781.726
  0
LINE
  8
0
 10
-125.015
 20
781.726
 11
-125.088
 21
782.11
  0
LINE
  8
0
 10
-125.088
 20
782.11
 11
-125.113
 21
782.5
  0
LINE
  8
0
 10
-125.113
 20
782.5
 11
-125.113
 21
1071.5
  0
LINE
  8
0
 10
-125.113
 20
1071.5
 11
-125.088
 21
1071.89
  0
LINE
  8
0
 10
-125.088
 20
1071.89
 11
-125.015
 21
1072.27
  0
LINE
  8
0
 10
-125.015
 20
1072.27
 11
-124.894
 21
1072.65
  0
LINE
  8
0
 10
-124.894
 20
1072.65
 11
-124.728
 21
1073
  0
LINE
  8
0
 10
-124.728
 20
1073
 11
-124.518
 21
1073.33
  0
LINE
  8
0
 10
-124.518
 20
1073.33
 11
-124.269
 21
1073.63
  0
LINE
  8
0
 10
-124.269
 20
1073.63
 11
-123.984
 21
1073.9
  0
LINE
  8
0
 10
-123.984
 20
1073.9
 11
-123.668
 21
1074.13
  0
LINE
  8
0
 10
-123.668
 20
1074.13
 11
-123.325
 21
1074.32
  0
LINE
  8
0
 10
-123.325
 20
1074.32
 11
-122.962
 21
1074.46
  0
LINE
  8
0
 10
-122.962
 20
1074.46
 11
-122.583
 21
1074.56
  0
LINE
  8
0
 10
-122.583
 20
1074.56
 11
-122.195
 21
1074.61
  0
LINE
  8
0
 10
-122.195
 20
1074.61
 11
122.195
 21
1074.61
  0
LINE
  8
0
 10
122.195
 20
1074.61
 11
122.583
 21
1074.56
  0
LINE
  8
0
 10
122.583
 20
1074.56
 11
122.962
 21
1074.46
  0
LINE
  8
0
 10
122.962
 20
1074.46
 11
123.325
 21
1074.32
  0
LINE
  8
0
 10
123.325
 20
1074.32
 11
123.668
 21
1074.13
  0
LINE
  8
0
 10
123.668
 20
1074.13
 11
123.984
 21
1073.9
  0
LINE
  8
0
 10
123.984
 20
1073.9
 11
124.269
 21
1073.63
  0
LINE
  8
0
 10
124.269
 20
1073.63
 11
124.518
 21
1073.33
  0
LINE
  8
0
 10
124.518
 20
1073.33
 11
124.728
 21
1073
  0
LINE
  8
0
 10
124.728
 20
1073
 11
124.894
 21
1072.65
  0
LINE
  8
0
 10
124.894
 20
1072.65
 11
125.015
 21
1072.27
  0
LINE
  8
0
 10
125.015
 20
1072.27
 11
125.088
 21
1071.89
  0
LINE
  8
0
 10
125.088
 20
1071.89
 11
125.113
 21
1071.5
  0
LINE
  8
0
 10
125.113
 20
1071.5
 11
125.113
 21
782.5
  0
LINE
  8
0
 10
125.113
 20
782.5
 11
125.088
 21
782.11
  0
LINE
  8
0
 10
125.088
 20
782.11
 11
125.015
 21
781.726
  0
LINE
  8
0
 10
125.015
 20
781.726
 11
124.894
 21
781.354
  0
LINE
  8
0
 10
124.894
 20
781.354
 11
124.728
 21
781
  0
LINE
  8
0
 10
124.728
 20
781
 11
124.518
 21
780.67
  0
LINE
  8
0
 10
124.518
 20
780.67
 11
124.269
 21
780.369
  0
LINE
  8
0
 10
124.269
 20
780.369
 11
123.984
 21
780.101
  0
LINE
  8
0
 10
123.984
 20
780.101
 11
123.668
 21
779.872
  0
LINE
  8
0
 10
123.668
 20
779.872
 11
123.325
 21
779.683
  0
LINE
  8
0
 10
123.325
 20
779.683
 11
122.962
 21
779.539
  0
LINE
  8
0
 10
122.962
 20
779.539
 11
122.583
 21
779.442
  0
LINE
  8
0
 10
122.583
 20
779.442
 11
122.195
 21
779.393
  0
LINE
  8
0
 10
122.195
 20
779.393
 11
-122.195
 21
779.393
  0
LINE
  8
0
 10
123.437
 20
468.089
 11
124.045
 21
468.245
  0
LINE
  8
0
 10
124.045
 20
468.245
 11
124.629
 21
468.476
  0
LINE
  8
0
 10
124.629
 20
468.476
 11
125.179
 21
468.778
  0
LINE
  8
0
 10
125.179
 20
468.778
 11
125.687
 21
469.147
  0
LINE
  8
0
 10
125.687
 20
469.147
 11
126.145
 21
469.577
  0
LINE
  8
0
 10
126.145
 20
469.577
 11
126.545
 21
470.061
  0
LINE
  8
0
 10
126.545
 20
470.061
 11
126.882
 21
470.591
  0
LINE
  8
0
 10
126.882
 20
470.591
 11
127.149
 21
471.159
  0
LINE
  8
0
 10
127.149
 20
471.159
 11
127.343
 21
471.757
  0
LINE
  8
0
 10
127.343
 20
471.757
 11
127.461
 21
472.373
  0
LINE
  8
0
 10
127.461
 20
472.373
 11
127.5
 21
473
  0
LINE
  8
0
 10
127.5
 20
473
 11
127.5
 21
763
  0
LINE
  8
0
 10
127.5
 20
763
 11
127.461
 21
763.627
  0
LINE
  8
0
 10
127.461
 20
763.627
 11
127.343
 21
764.243
  0
LINE
  8
0
 10
127.343
 20
764.243
 11
127.149
 21
764.841
  0
LINE
  8
0
 10
127.149
 20
764.841
 11
126.882
 21
765.409
  0
LINE
  8
0
 10
126.882
 20
765.409
 11
126.545
 21
765.939
  0
LINE
  8
0
 10
126.545
 20
765.939
 11
126.145
 21
766.423
  0
LINE
  8
0
 10
126.145
 20
766.423
 11
125.687
 21
766.853
  0
LINE
  8
0
 10
125.687
 20
766.853
 11
125.179
 21
767.222
  0
LINE
  8
0
 10
125.179
 20
767.222
 11
124.629
 21
767.524
  0
LINE
  8
0
 10
124.629
 20
767.524
 11
124.045
 21
767.755
  0
LINE
  8
0
 10
124.045
 20
767.755
 11
123.437
 21
767.911
  0
LINE
  8
0
 10
123.437
 20
767.911
 11
122.814
 21
767.99
  0
LINE
  8
0
 10
122.814
 20
767.99
 11
-122.814
 21
767.99
  0
LINE
  8
0
 10
-122.814
 20
767.99
 11
-123.437
 21
767.911
  0
LINE
  8
0
 10
-123.437
 20
767.911
 11
-124.045
 21
767.755
  0
LINE
  8
0
 10
-124.045
 20
767.755
 11
-124.629
 21
767.524
  0
LINE
  8
0
 10
-124.629
 20
767.524
 11
-125.179
 21
767.222
  0
LINE
  8
0
 10
-125.179
 20
767.222
 11
-125.687
 21
766.853
  0
LINE
  8
0
 10
-125.687
 20
766.853
 11
-126.145
 21
766.423
  0
LINE
  8
0
 10
-126.145
 20
766.423
 11
-126.545
 21
765.939
  0
LINE
  8
0
 10
-126.545
 20
765.939
 11
-126.882
 21
765.409
  0
LINE
  8
0
 10
-126.882
 20
765.409
 11
-127.149
 21
764.841
  0
LINE
  8
0
 10
-127.149
 20
764.841
 11
-127.343
 21
764.243
  0
LINE
  8
0
 10
-127.343
 20
764.243
 11
-127.461
 21
763.627
  0
LINE
  8
0
 10
-127.461
 20
763.627
 11
-127.5
 21
763
  0
LINE
  8
0
 10
-127.5
 20
763
 11
-127.5
 21
473
  0
LINE
  8
0
 10
-127.5
 20
473
 11
-127.461
 21
472.373
  0
LINE
  8
0
 10
-127.461
 20
472.373
 11
-127.343
 21
471.757
  0
LINE
  8
0
 10
-127.343
 20
471.757
 11
-127.149
 21
471.159
  0
LINE
  8
0
 10
-127.149
 20
471.159
 11
-126.882
 21
470.591
  0
LINE
  8
0
 10
-126.882
 20
470.591
 11
-126.545
 21
470.061
  0
LINE
  8
0
 10
-126.545
 20
470.061
 11
-126.145
 21
469.577
  0
LINE
  8
0
 10
-126.145
 20
469.577
 11
-125.687
 21
469.147
  0
LINE
  8
0
 10
-125.687
 20
469.147
 11
-125.179
 21
468.778
  0
LINE
  8
0
 10
-125.179
 20
468.778
 11
-124.629
 21
468.476
  0
LINE
  8
0
 10
-124.629
 20
468.476
 11
-124.045
 21
468.245
  0
LINE
  8
0
 10
-124.045
 20
468.245
 11
-123.437
 21
468.089
  0
LINE
  8
0
 10
-123.437
 20
468.089
 11
-122.814
 21
468.01
  0
LINE
  8
0
 10
-122.814
 20
468.01
 11
122.814
 21
468.01
  0
LINE
  8
0
 10
122.814
 20
468.01
 11
123.437
 21
468.089
  0
LINE
  8
0
 10
119.866
 20
758.369
 11
119.6
 21
758.403
  0
LINE
  8
0
 10
119.6
 20
758.403
 11
119.34
 21
758.469
  0
LINE
  8
0
 10
119.34
 20
758.469
 11
119.091
 21
758.568
  0
LINE
  8
0
 10
119.091
 20
758.568
 11
118.856
 21
758.697
  0
LINE
  8
0
 10
118.856
 20
758.697
 11
118.639
 21
758.855
  0
LINE
  8
0
 10
118.639
 20
758.855
 11
118.443
 21
759.038
  0
LINE
  8
0
 10
118.443
 20
759.038
 11
118.273
 21
759.245
  0
LINE
  8
0
 10
118.273
 20
759.245
 11
118.129
 21
759.471
  0
LINE
  8
0
 10
118.129
 20
759.471
 11
118.015
 21
759.714
  0
LINE
  8
0
 10
118.015
 20
759.714
 11
117.932
 21
759.969
  0
LINE
  8
0
 10
117.932
 20
759.969
 11
117.882
 21
760.232
  0
LINE
  8
0
 10
117.882
 20
760.232
 11
117.865
 21
760.5
  0
LINE
  8
0
 10
117.865
 20
760.5
 11
117.882
 21
760.768
  0
LINE
  8
0
 10
117.882
 20
760.768
 11
117.932
 21
761.031
  0
LINE
  8
0
 10
117.932
 20
761.031
 11
118.015
 21
761.286
  0
LINE
  8
0
 10
118.015
 20
761.286
 11
118.129
 21
761.529
  0
LINE
  8
0
 10
118.129
 20
761.529
 11
118.273
 21
761.755
  0
LINE
  8
0
 10
118.273
 20
761.755
 11
118.443
 21
761.962
  0
LINE
  8
0
 10
118.443
 20
761.962
 11
118.639
 21
762.145
  0
LINE
  8
0
 10
118.639
 20
762.145
 11
118.856
 21
762.303
  0
LINE
  8
0
 10
118.856
 20
762.303
 11
119.091
 21
762.432
  0
LINE
  8
0
 10
119.091
 20
762.432
 11
119.34
 21
762.531
  0
LINE
  8
0
 10
119.34
 20
762.531
 11
119.6
 21
762.597
  0
LINE
  8
0
 10
119.6
 20
762.597
 11
119.866
 21
762.631
  0
LINE
  8
0
 10
119.866
 20
762.631
 11
120.134
 21
762.631
  0
LINE
  8
0
 10
120.134
 20
762.631
 11
120.4
 21
762.597
  0
LINE
  8
0
 10
120.4
 20
762.597
 11
120.66
 21
762.531
  0
LINE
  8
0
 10
120.66
 20
762.531
 11
120.909
 21
762.432
  0
LINE
  8
0
 10
120.909
 20
762.432
 11
121.144
 21
762.303
  0
LINE
  8
0
 10
121.144
 20
762.303
 11
121.361
 21
762.145
  0
LINE
  8
0
 10
121.361
 20
762.145
 11
121.557
 21
761.962
  0
LINE
  8
0
 10
121.557
 20
761.962
 11
121.727
 21
761.755
  0
LINE
  8
0
 10
121.727
 20
761.755
 11
121.871
 21
761.529
  0
LINE
  8
0
 10
121.871
 20
761.529
 11
121.985
 21
761.286
  0
LINE
  8
0
 10
121.985
 20
761.286
 11
122.068
 21
761.031
  0
LINE
  8
0
 10
122.068
 20
761.031
 11
122.118
 21
760.768
  0
LINE
  8
0
 10
122.118
 20
760.768
 11
122.135
 21
760.5
  0
LINE
  8
0
 10
122.135
 20
760.5
 11
122.118
 21
760.232
  0
LINE
  8
0
 10
122.118
 20
760.232
 11
122.068
 21
759.969
  0
LINE
  8
0
 10
122.068
 20
759.969
 11
121.985
 21
759.714
  0
LINE
  8
0
 10
121.985
 20
759.714
 11
121.871
 21
759.471
  0
LINE
  8
0
 10
121.871
 20
759.471
 11
121.727
 21
759.245
  0
LINE
  8
0
 10
121.727
 20
759.245
 11
121.557
 21
759.038
  0
LINE
  8
0
 10
121.557
 20
759.038
 11
121.361
 21
758.855
  0
LINE
  8
0
 10
121.361
 20
758.855
 11
121.144
 21
758.697
  0
LINE
  8
0
 10
121.144
 20
758.697
 11
120.909
 21
758.568
  0
LINE
  8
0
 10
120.909
 20
758.568
 11
120.66
 21
758.469
  0
LINE
  8
0
 10
120.66
 20
758.469
 11
120.4
 21
758.403
  0
LINE
  8
0
 10
120.4
 20
758.403
 11
120.134
 21
758.369
  0
LINE
  8
0
 10
120.134
 20
758.369
 11
119.866
 21
758.369
  0
LINE
  8
0
 10
-120.134
 20
758.369
 11
-120.4
 21
758.403
  0
LINE
  8
0
 10
-120.4
 20
758.403
 11
-120.66
 21
758.469
  0
LINE
  8
0
 10
-120.66
 20
758.469
 11
-120.909
 21
758.568
  0
LINE
  8
0
 10
-120.909
 20
758.568
 11
-121.144
 21
758.697
  0
LINE
  8
0
 10
-121.144
 20
758.697
 11
-121.361
 21
758.855
  0
LINE
  8
0
 10
-121.361
 20
758.855
 11
-121.557
 21
759.038
  0
LINE
  8
0
 10
-121.557
 20
759.038
 11
-121.727
 21
759.245
  0
LINE
  8
0
 10
-121.727
 20
759.245
 11
-121.871
 21
759.471
  0
LINE
  8
0
 10
-121.871
 20
759.471
 11
-121.985
 21
759.714
  0
LINE
  8
0
 10
-121.985
 20
759.714
 11
-122.068
 21
759.969
  0
LINE
  8
0
 10
-122.068
 20
759.969
 11
-122.118
 21
760.232
  0
LINE
  8
0
 10
-122.118
 20
760.232
 11
-122.135
 21
760.5
  0
LINE
  8
0
 10
-122.135
 20
760.5
 11
-122.118
 21
760.768
  0
LINE
  8
0
 10
-122.118
 20
760.768
 11
-122.068
 21
761.031
  0
LINE
  8
0
 10
-122.068
 20
761.031
 11
-121.985
 21
761.286
  0
LINE
  8
0
 10
-121.985
 20
761.286
 11
-121.871
 21
761.529
  0
LINE
  8
0
 10
-121.871
 20
761.529
 11
-121.727
 21
761.755
  0
LINE
  8
0
 10
-121.727
 20
761.755
 11
-121.557
 21
761.962
  0
LINE
  8
0
 10
-121.557
 20
761.962
 11
-121.361
 21
762.145
  0
LINE
  8
0
 10
-121.361
 20
762.145
 11
-121.144
 21
762.303
  0
LINE
  8
0
 10
-121.144
 20
762.303
 11
-120.909
 21
762.432
  0
LINE
  8
0
 10
-120.909
 20
762.432
 11
-120.66
 21
762.531
  0
LINE
  8
0
 10
-120.66
 20
762.531
 11
-120.4
 21
762.597
  0
LINE
  8
0
 10
-120.4
 20
762.597
 11
-120.134
 21
762.631
  0
LINE
  8
0
 10
-120.134
 20
762.631
 11
-119.866
 21
762.631
  0
LINE
  8
0
 10
-119.866
 20
762.631
 11
-119.6
 21
762.597
  0
LINE
  8
0
 10
-119.6
 20
762.597
 11
-119.34
 21
762.531
  0
LINE
  8
0
 10
-119.34
 20
762.531
 11
-119.091
 21
762.432
  0
LINE
  8
0
 10
-119.091
 20
762.432
 11
-118.856
 21
762.303
  0
LINE
  8
0
 10
-118.856
 20
762.303
 11
-118.639
 21
762.145
  0
LINE
  8
0
 10
-118.639
 20
762.145
 11
-118.443
 21
761.962
  0
LINE
  8
0
 10
-118.443
 20
761.962
 11
-118.273
 21
761.755
  0
LINE
  8
0
 10
-118.273
 20
761.755
 11
-118.129
 21
761.529
  0
LINE
  8
0
 10
-118.129
 20
761.529
 11
-118.015
 21
761.286
  0
LINE
  8
0
 10
-118.015
 20
761.286
 11
-117.932
 21
761.031
  0
LINE
  8
0
 10
-117.932
 20
761.031
 11
-117.882
 21
760.768
  0
LINE
  8
0
 10
-117.882
 20
760.768
 11
-117.865
 21
760.5
  0
LINE
  8
0
 10
-117.865
 20
760.5
 11
-117.882
 21
760.232
  0
LINE
  8
0
 10
-117.882
 20
760.232
 11
-117.932
 21
759.969
  0
LINE
  8
0
 10
-117.932
 20
759.969
 11
-118.015
 21
759.714
  0
LINE
  8
0
 10
-118.015
 20
759.714
 11
-118.129
 21
759.471
  0
LINE
  8
0
 10
-118.129
 20
759.471
 11
-118.273
 21
759.245
  0
LINE
  8
0
 10
-118.273
 20
759.245
 11
-118.443
 21
759.038
  0
LINE
  8
0
 10
-118.443
 20
759.038
 11
-118.639
 21
758.855
  0
LINE
  8
0
 10
-118.639
 20
758.855
 11
-118.856
 21
758.697
  0
LINE
  8
0
 10
-118.856
 20
758.697
 11
-119.091
 21
758.568
  0
LINE
  8
0
 10
-119.091
 20
758.568
 11
-119.34
 21
758.469
  0
LINE
  8
0
 10
-119.34
 20
758.469
 11
-119.6
 21
758.403
  0
LINE
  8
0
 10
-119.6
 20
758.403
 11
-119.866
 21
758.369
  0
LINE
  8
0
 10
-119.866
 20
758.369
 11
-120.134
 21
758.369
  0
LINE
  8
0
 10
119.866
 20
473.369
 11
119.6
 21
473.403
  0
LINE
  8
0
 10
119.6
 20
473.403
 11
119.34
 21
473.469
  0
LINE
  8
0
 10
119.34
 20
473.469
 11
119.091
 21
473.568
  0
LINE
  8
0
 10
119.091
 20
473.568
 11
118.856
 21
473.697
  0
LINE
  8
0
 10
118.856
 20
473.697
 11
118.639
 21
473.855
  0
LINE
  8
0
 10
118.639
 20
473.855
 11
118.443
 21
474.038
  0
LINE
  8
0
 10
118.443
 20
474.038
 11
118.273
 21
474.245
  0
LINE
  8
0
 10
118.273
 20
474.245
 11
118.129
 21
474.471
  0
LINE
  8
0
 10
118.129
 20
474.471
 11
118.015
 21
474.714
  0
LINE
  8
0
 10
118.015
 20
474.714
 11
117.932
 21
474.969
  0
LINE
  8
0
 10
117.932
 20
474.969
 11
117.882
 21
475.232
  0
LINE
  8
0
 10
117.882
 20
475.232
 11
117.865
 21
475.5
  0
LINE
  8
0
 10
117.865
 20
475.5
 11
117.882
 21
475.768
  0
LINE
  8
0
 10
117.882
 20
475.768
 11
117.932
 21
476.031
  0
LINE
  8
0
 10
117.932
 20
476.031
 11
118.015
 21
476.286
  0
LINE
  8
0
 10
118.015
 20
476.286
 11
118.129
 21
476.529
  0
LINE
  8
0
 10
118.129
 20
476.529
 11
118.273
 21
476.755
  0
LINE
  8
0
 10
118.273
 20
476.755
 11
118.443
 21
476.962
  0
LINE
  8
0
 10
118.443
 20
476.962
 11
118.639
 21
477.145
  0
LINE
  8
0
 10
118.639
 20
477.145
 11
118.856
 21
477.303
  0
LINE
  8
0
 10
118.856
 20
477.303
 11
119.091
 21
477.432
  0
LINE
  8
0
 10
119.091
 20
477.432
 11
119.34
 21
477.531
  0
LINE
  8
0
 10
119.34
 20
477.531
 11
119.6
 21
477.597
  0
LINE
  8
0
 10
119.6
 20
477.597
 11
119.866
 21
477.631
  0
LINE
  8
0
 10
119.866
 20
477.631
 11
120.134
 21
477.631
  0
LINE
  8
0
 10
120.134
 20
477.631
 11
120.4
 21
477.597
  0
LINE
  8
0
 10
120.4
 20
477.597
 11
120.66
 21
477.531
  0
LINE
  8
0
 10
120.66
 20
477.531
 11
120.909
 21
477.432
  0
LINE
  8
0
 10
120.909
 20
477.432
 11
121.144
 21
477.303
  0
LINE
  8
0
 10
121.144
 20
477.303
 11
121.361
 21
477.145
  0
LINE
  8
0
 10
121.361
 20
477.145
 11
121.557
 21
476.962
  0
LINE
  8
0
 10
121.557
 20
476.962
 11
121.727
 21
476.755
  0
LINE
  8
0
 10
121.727
 20
476.755
 11
121.871
 21
476.529
  0
LINE
  8
0
 10
121.871
 20
476.529
 11
121.985
 21
476.286
  0
LINE
  8
0
 10
121.985
 20
476.286
 11
122.068
 21
476.031
  0
LINE
  8
0
 10
122.068
 20
476.031
 11
122.118
 21
475.768
  0
LINE
  8
0
 10
122.118
 20
475.768
 11
122.135
 21
475.5
  0
LINE
  8
0
 10
122.135
 20
475.5
 11
122.118
 21
475.232
  0
LINE
  8
0
 10
122.118
 20
475.232
 11
122.068
 21
474.969
  0
LINE
  8
0
 10
122.068
 20
474.969
 11
121.985
 21
474.714
  0
LINE
  8
0
 10
121.985
 20
474.714
 11
121.871
 21
474.471
  0
LINE
  8
0
 10
121.871
 20
474.471
 11
121.727
 21
474.245
  0
LINE
  8
0
 10
121.727
 20
474.245
 11
121.557
 21
474.038
  0
LINE
  8
0
 10
121.557
 20
474.038
 11
121.361
 21
473.855
  0
LINE
  8
0
 10
121.361
 20
473.855
 11
121.144
 21
473.697
  0
LINE
  8
0
 10
121.144
 20
473.697
 11
120.909
 21
473.568
  0
LINE
  8
0
 10
120.909
 20
473.568
 11
120.66
 21
473.469
  0
LINE
  8
0
 10
120.66
 20
473.469
 11
120.4
 21
473.403
  0
LINE
  8
0
 10
120.4
 20
473.403
 11
120.134
 21
473.369
  0
LINE
  8
0
 10
120.134
 20
473.369
 11
119.866
 21
473.369
  0
LINE
  8
0
 10
-120.134
 20
473.369
 11
-120.4
 21
473.403
  0
LINE
  8
0
 10
-120.4
 20
473.403
 11
-120.66
 21
473.469
  0
LINE
  8
0
 10
-120.66
 20
473.469
 11
-120.909
 21
473.568
  0
LINE
  8
0
 10
-120.909
 20
473.568
 11
-121.144
 21
473.697
  0
LINE
  8
0
 10
-121.144
 20
473.697
 11
-121.361
 21
473.855
  0
LINE
  8
0
 10
-121.361
 20
473.855
 11
-121.557
 21
474.038
  0
LINE
  8
0
 10
-121.557
 20
474.038
 11
-121.727
 21
474.245
  0
LINE
  8
0
 10
-121.727
 20
474.245
 11
-121.871
 21
474.471
  0
LINE
  8
0
 10
-121.871
 20
474.471
 11
-121.985
 21
474.714
  0
LINE
  8
0
 10
-121.985
 20
474.714
 11
-122.068
 21
474.969
  0
LINE
  8
0
 10
-122.068
 20
474.969
 11
-122.118
 21
475.232
  0
LINE
  8
0
 10
-122.118
 20
475.232
 11
-122.135
 21
475.5
  0
LINE
  8
0
 10
-122.135
 20
475.5
 11
-122.118
 21
475.768
  0
LINE
  8
0
 10
-122.118
 20
475.768
 11
-122.068
 21
476.031
  0
LINE
  8
0
 10
-122.068
 20
476.031
 11
-121.985
 21
476.286
  0
LINE
  8
0
 10
-121.985
 20
476.286
 11
-121.871
 21
476.529
  0
LINE
  8
0
 10
-121.871
 20
476.529
 11
-121.727
 21
476.755
  0
LINE
  8
0
 10
-121.727
 20
476.755
 11
-121.557
 21
476.962
  0
LINE
  8
0
 10
-121.557
 20
476.962
 11
-121.361
 21
477.145
  0
LINE
  8
0
 10
-121.361
 20
477.145
 11
-121.144
 21
477.303
  0
LINE
  8
0
 10
-121.144
 20
477.303
 11
-120.909
 21
477.432
  0
LINE
  8
0
 10
-120.909
 20
477.432
 11
-120.66
 21
477.531
  0
LINE
  8
0
 10
-120.66
 20
477.531
 11
-120.4
 21
477.597
  0
LINE
  8
0
 10
-120.4
 20
477.597
 11
-120.134
 21
477.631
  0
LINE
  8
0
 10
-120.134
 20
477.631
 11
-119.866
 21
477.631
  0
LINE
  8
0
 10
-119.866
 20
477.631
 11
-119.6
 21
477.597
  0
LINE
  8
0
 10
-119.6
 20
477.597
 11
-119.34
 21
477.531
  0
LINE
  8
0
 10
-119.34
 20
477.531
 11
-119.091
 21
477.432
  0
LINE
  8
0
 10
-119.091
 20
477.432
 11
-118.856
 21
477.303
  0
LINE
  8
0
 10
-118.856
 20
477.303
 11
-118.639
 21
477.145
  0
LINE
  8
0
 10
-118.639
 20
477.145
 11
-118.443
 21
476.962
  0
LINE
  8
0
 10
-118.443
 20
476.962
 11
-118.273
 21
476.755
  0
LINE
  8
0
 10
-118.273
 20
476.755
 11
-118.129
 21
476.529
  0
LINE
  8
0
 10
-118.129
 20
476.529
 11
-118.015
 21
476.286
  0
LINE
  8
0
 10
-118.015
 20
476.286
 11
-117.932
 21
476.031
  0
LINE
  8
0
 10
-117.932
 20
476.031
 11
-117.882
 21
475.768
  0
LINE
  8
0
 10
-117.882
 20
475.768
 11
-117.865
 21
475.5
  0
LINE
  8
0
 10
-117.865
 20
475.5
 11
-117.882
 21
475.232
  0
LINE
  8
0
 10
-117.882
 20
475.232
 11
-117.932
 21
474.969
  0
LINE
  8
0
 10
-117.932
 20
474.969
 11
-118.015
 21
474.714
  0
LINE
  8
0
 10
-118.015
 20
474.714
 11
-118.129
 21
474.471
  0
LINE
  8
0
 10
-118.129
 20
474.471
 11
-118.273
 21
474.245
  0
LINE
  8
0
 10
-118.273
 20
474.245
 11
-118.443
 21
474.038
  0
LINE
  8
0
 10
-118.443
 20
474.038
 11
-118.639
 21
473.855
  0
LINE
  8
0
 10
-118.639
 20
473.855
 11
-118.856
 21
473.697
  0
LINE
  8
0
 10
-118.856
 20
473.697
 11
-119.091
 21
473.568
  0
LINE
  8
0
 10
-119.091
 20
473.568
 11
-119.34
 21
473.469
  0
LINE
  8
0
 10
-119.34
 20
473.469
 11
-119.6
 21
473.403
  0
LINE
  8
0
 10
-119.6
 20
473.403
 11
-119.866
 21
473.369
  0
LINE
  8
0
 10
-119.866
 20
473.369
 11
-120.134
 21
473.369
  0
ENDSEC
  0
SECTION
  2
OBJECTS
  0
DICTIONARY
  0
ENDSEC
  0
EOF
