<?xml version="1.0" standalone="no"?>
<!DOCTYPE svg PUBLIC "-//W3C//DTD SVG 1.1//EN" "http://www.w3.org/Graphics/SVG/1.1/DTD/svg11.dtd">
<svg width="256mm" height="154mm" viewBox="-128 -239 256 154" xmlns="http://www.w3.org/2000/svg" version="1.1">
<title>OpenSCAD Model</title>
<path d="
M 123.437,-193.589 L 124.045,-193.745 L 124.629,-193.976 L 125.179,-194.278 L 125.687,-194.647 L 126.145,-195.077
 L 126.545,-195.561 L 126.882,-196.091 L 127.149,-196.659 L 127.343,-197.257 L 127.461,-197.873 L 127.5,-198.5
 L 127.5,-233.5 L 127.461,-234.127 L 127.343,-234.743 L 127.149,-235.341 L 126.882,-235.909 L 126.545,-236.439
 L 126.145,-236.923 L 125.687,-237.353 L 125.179,-237.722 L 124.629,-238.024 L 124.045,-238.255 L 123.437,-238.411
 L 122.814,-238.49 L -122.814,-238.49 L -123.437,-238.411 L -124.045,-238.255 L -124.629,-238.024 L -125.179,-237.722
 L -125.687,-237.353 L -126.145,-236.923 L -126.545,-236.439 L -126.882,-235.909 L -127.149,-235.341 L -127.343,-234.743
 L -127.461,-234.127 L -127.5,-233.5 L -127.5,-198.5 L -127.461,-197.873 L -127.343,-197.257 L -127.149,-196.659
 L -126.882,-196.091 L -126.545,-195.561 L -126.145,-195.077 L -125.687,-194.647 L -125.179,-194.278 L -124.629,-193.976
 L -124.045,-193.745 L -123.437,-193.589 L -122.814,-193.51 L 122.814,-193.51 z
M -122.548,-194.009 L -123.14,-194.084 L -123.718,-194.232 L -124.272,-194.452 L -124.795,-194.739 L -125.278,-195.09
 L -125.713,-195.498 L -126.093,-195.958 L -126.412,-196.462 L -126.666,-197.001 L -126.851,-197.569 L -126.963,-198.155
 L -127,-198.75 L -127,-233.25 L -126.963,-233.845 L -126.851,-234.431 L -126.666,-234.999 L -126.412,-235.538
 L -126.093,-236.042 L -125.713,-236.502 L -125.278,-236.91 L -124.795,-237.261 L -124.272,-237.548 L -123.718,-237.768
 L -123.14,-237.916 L -122.548,-237.991 L 122.548,-237.991 L 123.14,-237.916 L 123.718,-237.768 L 124.272,-237.548
 L 124.795,-237.261 L 125.278,-236.91 L 125.713,-236.502 L 126.093,-236.042 L 126.412,-235.538 L 126.666,-234.999
 L 126.851,-234.431 L 126.963,-233.845 L 127,-233.25 L 127,-198.75 L 126.963,-198.155 L 126.851,-197.569
 L 126.666,-197.001 L 126.412,-196.462 L 126.093,-195.958 L 125.713,-195.498 L 125.278,-195.09 L 124.795,-194.739
 L 124.272,-194.452 L 123.718,-194.232 L 123.14,-194.084 L 122.548,-194.009 z
M 123.437,-139.589 L 124.045,-139.745 L 124.629,-139.976 L 125.179,-140.278 L 125.687,-140.647 L 126.145,-141.077
 L 126.545,-141.561 L 126.882,-142.091 L 127.149,-142.659 L 127.343,-143.257 L 127.461,-143.873 L 127.5,-144.5
 L 127.5,-179.5 L 127.461,-180.127 L 127.343,-180.743 L 127.149,-181.341 L 126.882,-181.909 L 126.545,-182.439
 L 126.145,-182.923 L 125.687,-183.353 L 125.179,-183.722 L 124.629,-184.024 L 124.045,-184.255 L 123.437,-184.411
 L 122.814,-184.49 L -122.814,-184.49 L -123.437,-184.411 L -124.045,-184.255 L -124.629,-184.024 L -125.179,-183.722
 L -125.687,-183.353 L -126.145,-182.923 L -126.545,-182.439 L -126.882,-181.909 L -127.149,-181.341 L -127.343,-180.743
 L -127.461,-180.127 L -127.5,-179.5 L -127.5,-144.5 L -127.461,-143.873 L -127.343,-143.257 L -127.149,-142.659
 L -126.882,-142.091 L -126.545,-141.561 L -126.145,-141.077 L -125.687,-140.647 L -125.179,-140.278 L -124.629,-139.976
 L -124.045,-139.745 L -123.437,-139.589 L -122.814,-139.51 L 122.814,-139.51 z
M -122.493,-140.888 L -122.975,-140.949 L -123.446,-141.07 L -123.898,-141.249 L -124.323,-141.483 L -124.716,-141.769
 L -125.071,-142.101 L -125.38,-142.476 L -125.641,-142.886 L -125.848,-143.326 L -125.998,-143.788 L -126.089,-144.265
 L -126.119,-144.75 L -126.119,-179.25 L -126.089,-179.735 L -125.998,-180.212 L -125.848,-180.674 L -125.641,-181.114
 L -125.38,-181.524 L -125.071,-181.899 L -124.716,-182.231 L -124.323,-182.517 L -123.898,-182.751 L -123.446,-182.93
 L -122.975,-183.051 L -122.493,-183.112 L 122.493,-183.112 L 122.975,-183.051 L 123.446,-182.93 L 123.898,-182.751
 L 124.323,-182.517 L 124.716,-182.231 L 125.071,-181.899 L 125.38,-181.524 L 125.641,-181.114 L 125.848,-180.674
 L 125.998,-180.212 L 126.089,-179.735 L 126.119,-179.25 L 126.119,-144.75 L 126.089,-144.265 L 125.998,-143.788
 L 125.848,-143.326 L 125.641,-142.886 L 125.38,-142.476 L 125.071,-142.101 L 124.716,-141.769 L 124.323,-141.483
 L 123.898,-141.249 L 123.446,-141.07 L 122.975,-140.949 L 122.493,-140.888 z
M 123.437,-85.5886 L 124.045,-85.7447 L 124.629,-85.9759 L 125.179,-86.2784 L 125.687,-86.6474 L 126.145,-87.0773
 L 126.545,-87.5611 L 126.882,-88.0912 L 127.149,-88.6594 L 127.343,-89.2566 L 127.461,-89.8733 L 127.5,-90.5
 L 127.5,-125.5 L 127.461,-126.127 L 127.343,-126.743 L 127.149,-127.341 L 126.882,-127.909 L 126.545,-128.439
 L 126.145,-128.923 L 125.687,-129.353 L 125.179,-129.722 L 124.629,-130.024 L 124.045,-130.255 L 123.437,-130.411
 L 122.814,-130.49 L -122.814,-130.49 L -123.437,-130.411 L -124.045,-130.255 L -124.629,-130.024 L -125.179,-129.722
 L -125.687,-129.353 L -126.145,-128.923 L -126.545,-128.439 L -126.882,-127.909 L -127.149,-127.341 L -127.343,-126.743
 L -127.461,-126.127 L -127.5,-125.5 L -127.5,-90.5 L -127.461,-89.8733 L -127.343,-89.2566 L -127.149,-88.6594
 L -126.882,-88.0912 L -126.545,-87.5611 L -126.145,-87.0773 L -125.687,-86.6474 L -125.179,-86.2784 L -124.629,-85.9759
 L -124.045,-85.7447 L -123.437,-85.5886 L -122.814,-85.5099 L 122.814,-85.5099 z
M -120.113,-121.204 L -120.337,-121.232 L -120.556,-121.288 L -120.766,-121.371 L -120.964,-121.48 L -121.147,-121.613
 L -121.312,-121.768 L -121.456,-121.942 L -121.577,-122.133 L -121.674,-122.337 L -121.743,-122.552 L -121.786,-122.774
 L -121.8,-123 L -121.786,-123.226 L -121.743,-123.448 L -121.674,-123.663 L -121.577,-123.867 L -121.456,-124.058
 L -121.312,-124.232 L -121.147,-124.387 L -120.964,-124.52 L -120.766,-124.629 L -120.556,-124.712 L -120.337,-124.768
 L -120.113,-124.796 L -119.887,-124.796 L -119.663,-124.768 L -119.444,-124.712 L -119.234,-124.629 L -119.036,-124.52
 L -118.853,-124.387 L -118.688,-124.232 L -118.544,-124.058 L -118.423,-123.867 L -118.326,-123.663 L -118.257,-123.448
 L -118.214,-123.226 L -118.2,-123 L -118.214,-122.774 L -118.257,-122.552 L -118.326,-122.337 L -118.423,-122.133
 L -118.544,-121.942 L -118.688,-121.768 L -118.853,-121.613 L -119.036,-121.48 L -119.234,-121.371 L -119.444,-121.288
 L -119.663,-121.232 L -119.887,-121.204 z
M 119.887,-121.204 L 119.663,-121.232 L 119.444,-121.288 L 119.234,-121.371 L 119.036,-121.48 L 118.853,-121.613
 L 118.688,-121.768 L 118.544,-121.942 L 118.423,-122.133 L 118.326,-122.337 L 118.257,-122.552 L 118.214,-122.774
 L 118.2,-123 L 118.214,-123.226 L 118.257,-123.448 L 118.326,-123.663 L 118.423,-123.867 L 118.544,-124.058
 L 118.688,-124.232 L 118.853,-124.387 L 119.036,-124.52 L 119.234,-124.629 L 119.444,-124.712 L 119.663,-124.768
 L 119.887,-124.796 L 120.113,-124.796 L 120.337,-124.768 L 120.556,-124.712 L 120.766,-124.629 L 120.964,-124.52
 L 121.147,-124.387 L 121.312,-124.232 L 121.456,-124.058 L 121.577,-123.867 L 121.674,-123.663 L 121.743,-123.448
 L 121.786,-123.226 L 121.8,-123 L 121.786,-122.774 L 121.743,-122.552 L 121.674,-122.337 L 121.577,-122.133
 L 121.456,-121.942 L 121.312,-121.768 L 121.147,-121.613 L 120.964,-121.48 L 120.766,-121.371 L 120.556,-121.288
 L 120.337,-121.232 L 120.113,-121.204 z
M 119.887,-91.2036 L 119.663,-91.2319 L 119.444,-91.2881 L 119.234,-91.3713 L 119.036,-91.4802 L 118.853,-91.6131
 L 118.688,-91.7678 L 118.544,-91.942 L 118.423,-92.1329 L 118.326,-92.3374 L 118.257,-92.5524 L 118.214,-92.7744
 L 118.2,-93 L 118.214,-93.2256 L 118.257,-93.4476 L 118.326,-93.6626 L 118.423,-93.8672 L 118.544,-94.058
 L 118.688,-94.2322 L 118.853,-94.3869 L 119.036,-94.5198 L 119.234,-94.6287 L 119.444,-94.7119 L 119.663,-94.7681
 L 119.887,-94.7964 L 120.113,-94.7964 L 120.337,-94.7681 L 120.556,-94.7119 L 120.766,-94.6287 L 120.964,-94.5198
 L 121.147,-94.3869 L 121.312,-94.2322 L 121.456,-94.058 L 121.577,-93.8672 L 121.674,-93.6626 L 121.743,-93.4476
 L 121.786,-93.2256 L 121.8,-93 L 121.786,-92.7744 L 121.743,-92.5524 L 121.674,-92.3374 L 121.577,-92.1329
 L 121.456,-91.942 L 121.312,-91.7678 L 121.147,-91.6131 L 120.964,-91.4802 L 120.766,-91.3713 L 120.556,-91.2881
 L 120.337,-91.2319 L 120.113,-91.2036 z
M -120.113,-91.2036 L -120.337,-91.2319 L -120.556,-91.2881 L -120.766,-91.3713 L -120.964,-91.4802 L -121.147,-91.6131
 L -121.312,-91.7678 L -121.456,-91.942 L -121.577,-92.1329 L -121.674,-92.3374 L -121.743,-92.5524 L -121.786,-92.7744
 L -121.8,-93 L -121.786,-93.2256 L -121.743,-93.4476 L -121.674,-93.6626 L -121.577,-93.8672 L -121.456,-94.058
 L -121.312,-94.2322 L -121.147,-94.3869 L -120.964,-94.5198 L -120.766,-94.6287 L -120.556,-94.7119 L -120.337,-94.7681
 L -120.113,-94.7964 L -119.887,-94.7964 L -119.663,-94.7681 L -119.444,-94.7119 L -119.234,-94.6287 L -119.036,-94.5198
 L -118.853,-94.3869 L -118.688,-94.2322 L -118.544,-94.058 L -118.423,-93.8672 L -118.326,-93.6626 L -118.257,-93.4476
 L -118.214,-93.2256 L -118.2,-93 L -118.214,-92.7744 L -118.257,-92.5524 L -118.326,-92.3374 L -118.423,-92.1329
 L -118.544,-91.942 L -118.688,-91.7678 L -118.853,-91.6131 L -119.036,-91.4802 L -119.234,-91.3713 L -119.444,-91.2881
 L -119.663,-91.2319 L -119.887,-91.2036 z
" stroke="black" fill="lightgray" stroke-width="0.5"/>
</svg>
