<?xml version="1.0" standalone="no"?>
<!DOCTYPE svg PUBLIC "-//W3C//DTD SVG 1.1//EN" "http://www.w3.org/Graphics/SVG/1.1/DTD/svg11.dtd">
<svg width="302mm" height="118mm" viewBox="-152 -232 302 118" xmlns="http://www.w3.org/2000/svg" version="1.1">
<title>OpenSCAD Model</title>
<path d="
M -148.5,-210.691 L -148.187,-210.397 L -147.679,-210.028 L -147.129,-209.726 L -146.545,-209.495 L -145.937,-209.339
 L -145.314,-209.26 L 145.314,-209.26 L 145.937,-209.339 L 146.545,-209.495 L 147.129,-209.726 L 147.679,-210.028
 L 148.187,-210.397 L 148.645,-210.827 L 149.045,-211.311 L 149.382,-211.841 L 149.649,-212.409 L 149.843,-213.007
 L 149.961,-213.623 L 150,-214.25 L 150,-226.75 L 149.961,-227.377 L 149.843,-227.993 L 149.649,-228.591
 L 149.382,-229.159 L 149.045,-229.689 L 148.645,-230.173 L 148.187,-230.603 L 147.679,-230.972 L 147.129,-231.274
 L 146.545,-231.505 L 145.937,-231.661 L 145.314,-231.74 L -145.314,-231.74 L -145.937,-231.661 L -146.545,-231.505
 L -147.129,-231.274 L -147.679,-230.972 L -148.187,-230.603 L -148.5,-230.309 L -148.5,-231.74 L -151.5,-231.74
 L -151.5,-209.26 L -148.5,-209.26 z
M -144.751,-210.758 L -145.25,-210.821 L -145.736,-210.946 L -146.203,-211.131 L -146.643,-211.373 L -147.05,-211.668
 L -147.416,-212.012 L -147.736,-212.399 L -148.005,-212.823 L -148.219,-213.278 L -148.374,-213.755 L -148.468,-214.249
 L -148.5,-214.75 L -148.5,-226.25 L -148.468,-226.751 L -148.374,-227.245 L -148.219,-227.722 L -148.005,-228.177
 L -147.736,-228.601 L -147.416,-228.988 L -147.05,-229.332 L -146.643,-229.627 L -146.203,-229.869 L -145.736,-230.054
 L -145.25,-230.179 L -144.751,-230.242 L 144.751,-230.242 L 145.25,-230.179 L 145.736,-230.054 L 146.203,-229.869
 L 146.643,-229.627 L 147.05,-229.332 L 147.416,-228.988 L 147.736,-228.601 L 148.005,-228.177 L 148.219,-227.722
 L 148.374,-227.245 L 148.468,-226.751 L 148.5,-226.25 L 148.5,-214.75 L 148.468,-214.249 L 148.374,-213.755
 L 148.219,-213.278 L 148.005,-212.823 L 147.736,-212.399 L 147.416,-212.012 L 147.05,-211.668 L 146.643,-211.373
 L 146.203,-211.131 L 145.736,-210.946 L 145.25,-210.821 L 144.751,-210.758 z
M -148.5,-179.191 L -148.187,-178.897 L -147.679,-178.528 L -147.129,-178.226 L -146.545,-177.995 L -145.937,-177.839
 L -145.314,-177.76 L 145.314,-177.76 L 145.937,-177.839 L 146.545,-177.995 L 147.129,-178.226 L 147.679,-178.528
 L 148.187,-178.897 L 148.645,-179.327 L 149.045,-179.811 L 149.382,-180.341 L 149.649,-180.909 L 149.843,-181.507
 L 149.961,-182.123 L 150,-182.75 L 150,-195.25 L 149.961,-195.877 L 149.843,-196.493 L 149.649,-197.091
 L 149.382,-197.659 L 149.045,-198.189 L 148.645,-198.673 L 148.187,-199.103 L 147.679,-199.472 L 147.129,-199.774
 L 146.545,-200.005 L 145.937,-200.161 L 145.314,-200.24 L -145.314,-200.24 L -145.937,-200.161 L -146.545,-200.005
 L -147.129,-199.774 L -147.679,-199.472 L -148.187,-199.103 L -148.5,-198.809 L -148.5,-200.24 L -151.5,-200.24
 L -151.5,-177.76 L -148.5,-177.76 z
M -144.751,-179.258 L -145.25,-179.321 L -145.736,-179.446 L -146.203,-179.631 L -146.643,-179.873 L -147.05,-180.168
 L -147.416,-180.512 L -147.736,-180.899 L -148.005,-181.323 L -148.219,-181.778 L -148.374,-182.255 L -148.468,-182.749
 L -148.5,-183.25 L -148.5,-194.75 L -148.468,-195.251 L -148.374,-195.745 L -148.219,-196.222 L -148.005,-196.677
 L -147.736,-197.101 L -147.416,-197.488 L -147.05,-197.832 L -146.643,-198.127 L -146.203,-198.369 L -145.736,-198.554
 L -145.25,-198.679 L -144.751,-198.742 L 144.751,-198.742 L 145.25,-198.679 L 145.736,-198.554 L 146.203,-198.369
 L 146.643,-198.127 L 147.05,-197.832 L 147.416,-197.488 L 147.736,-197.101 L 148.005,-196.677 L 148.219,-196.222
 L 148.374,-195.745 L 148.468,-195.251 L 148.5,-194.75 L 148.5,-183.25 L 148.468,-182.749 L 148.374,-182.255
 L 148.219,-181.778 L 148.005,-181.323 L 147.736,-180.899 L 147.416,-180.512 L 147.05,-180.168 L 146.643,-179.873
 L 146.203,-179.631 L 145.736,-179.446 L 145.25,-179.321 L 144.751,-179.258 z
M 145.937,-146.339 L 146.545,-146.495 L 147.129,-146.726 L 147.679,-147.028 L 148.187,-147.397 L 148.645,-147.827
 L 149.045,-148.311 L 149.382,-148.841 L 149.649,-149.409 L 149.843,-150.007 L 149.961,-150.623 L 150,-151.25
 L 150,-163.75 L 149.961,-164.377 L 149.843,-164.993 L 149.649,-165.591 L 149.382,-166.159 L 149.045,-166.689
 L 148.645,-167.173 L 148.187,-167.603 L 147.679,-167.972 L 147.129,-168.274 L 146.545,-168.505 L 145.937,-168.661
 L 145.314,-168.74 L -145.314,-168.74 L -145.937,-168.661 L -146.545,-168.505 L -147.129,-168.274 L -147.679,-167.972
 L -148.187,-167.603 L -148.5,-167.309 L -148.5,-168.729 L -151.5,-168.729 L -151.5,-146.271 L -148.5,-146.271
 L -148.5,-147.691 L -148.187,-147.397 L -147.679,-147.028 L -147.129,-146.726 L -146.545,-146.495 L -145.937,-146.339
 L -145.314,-146.26 L 145.314,-146.26 z
M -144.695,-148.643 L -145.083,-148.692 L -145.462,-148.789 L -145.825,-148.933 L -146.168,-149.122 L -146.484,-149.351
 L -146.769,-149.619 L -147.018,-149.92 L -147.228,-150.25 L -147.394,-150.604 L -147.515,-150.976 L -147.588,-151.36
 L -147.613,-151.75 L -147.613,-163.25 L -147.588,-163.64 L -147.515,-164.024 L -147.394,-164.396 L -147.228,-164.75
 L -147.018,-165.08 L -146.769,-165.381 L -146.484,-165.649 L -146.168,-165.878 L -145.825,-166.067 L -145.462,-166.211
 L -145.083,-166.308 L -144.695,-166.357 L 144.695,-166.357 L 145.083,-166.308 L 145.462,-166.211 L 145.825,-166.067
 L 146.168,-165.878 L 146.484,-165.649 L 146.769,-165.381 L 147.018,-165.08 L 147.228,-164.75 L 147.394,-164.396
 L 147.515,-164.024 L 147.588,-163.64 L 147.613,-163.25 L 147.613,-151.75 L 147.588,-151.36 L 147.515,-150.976
 L 147.394,-150.604 L 147.228,-150.25 L 147.018,-149.92 L 146.769,-149.619 L 146.484,-149.351 L 146.168,-149.122
 L 145.825,-148.933 L 145.462,-148.789 L 145.083,-148.692 L 144.695,-148.643 z
M 145.937,-114.839 L 146.545,-114.995 L 147.129,-115.226 L 147.679,-115.528 L 148.187,-115.897 L 148.645,-116.327
 L 149.045,-116.811 L 149.382,-117.341 L 149.649,-117.909 L 149.843,-118.507 L 149.961,-119.123 L 150,-119.75
 L 150,-132.25 L 149.961,-132.877 L 149.843,-133.493 L 149.649,-134.091 L 149.382,-134.659 L 149.045,-135.189
 L 148.645,-135.673 L 148.187,-136.103 L 147.679,-136.472 L 147.129,-136.774 L 146.545,-137.005 L 145.937,-137.161
 L 145.314,-137.24 L -145.314,-137.24 L -145.937,-137.161 L -146.545,-137.005 L -147.129,-136.774 L -147.679,-136.472
 L -148.187,-136.103 L -148.5,-135.809 L -148.5,-135.903 L -151.5,-135.903 L -151.5,-116.097 L -148.5,-116.097
 L -148.5,-116.191 L -148.187,-115.897 L -147.679,-115.528 L -147.129,-115.226 L -146.545,-114.995 L -145.937,-114.839
 L -145.314,-114.76 L 145.314,-114.76 z
M -142.634,-127.619 L -142.9,-127.653 L -143.16,-127.719 L -143.409,-127.818 L -143.644,-127.947 L -143.861,-128.105
 L -144.057,-128.288 L -144.227,-128.495 L -144.371,-128.721 L -144.485,-128.964 L -144.568,-129.219 L -144.618,-129.482
 L -144.635,-129.75 L -144.618,-130.018 L -144.568,-130.281 L -144.485,-130.536 L -144.371,-130.779 L -144.227,-131.005
 L -144.057,-131.212 L -143.861,-131.395 L -143.644,-131.553 L -143.409,-131.682 L -143.16,-131.781 L -142.9,-131.847
 L -142.634,-131.881 L -142.366,-131.881 L -142.1,-131.847 L -141.84,-131.781 L -141.591,-131.682 L -141.356,-131.553
 L -141.139,-131.395 L -140.943,-131.212 L -140.773,-131.005 L -140.629,-130.779 L -140.515,-130.536 L -140.432,-130.281
 L -140.382,-130.018 L -140.365,-129.75 L -140.382,-129.482 L -140.432,-129.219 L -140.515,-128.964 L -140.629,-128.721
 L -140.773,-128.495 L -140.943,-128.288 L -141.139,-128.105 L -141.356,-127.947 L -141.591,-127.818 L -141.84,-127.719
 L -142.1,-127.653 L -142.366,-127.619 z
M 142.366,-127.619 L 142.1,-127.653 L 141.84,-127.719 L 141.591,-127.818 L 141.356,-127.947 L 141.139,-128.105
 L 140.943,-128.288 L 140.773,-128.495 L 140.629,-128.721 L 140.515,-128.964 L 140.432,-129.219 L 140.382,-129.482
 L 140.365,-129.75 L 140.382,-130.018 L 140.432,-130.281 L 140.515,-130.536 L 140.629,-130.779 L 140.773,-131.005
 L 140.943,-131.212 L 141.139,-131.395 L 141.356,-131.553 L 141.591,-131.682 L 141.84,-131.781 L 142.1,-131.847
 L 142.366,-131.881 L 142.634,-131.881 L 142.9,-131.847 L 143.16,-131.781 L 143.409,-131.682 L 143.644,-131.553
 L 143.861,-131.395 L 144.057,-131.212 L 144.227,-131.005 L 144.371,-130.779 L 144.485,-130.536 L 144.568,-130.281
 L 144.618,-130.018 L 144.635,-129.75 L 144.618,-129.482 L 144.568,-129.219 L 144.485,-128.964 L 144.371,-128.721
 L 144.227,-128.495 L 144.057,-128.288 L 143.861,-128.105 L 143.644,-127.947 L 143.409,-127.818 L 143.16,-127.719
 L 142.9,-127.653 L 142.634,-127.619 z
M -142.634,-120.119 L -142.9,-120.153 L -143.16,-120.219 L -143.409,-120.318 L -143.644,-120.447 L -143.861,-120.605
 L -144.057,-120.788 L -144.227,-120.995 L -144.371,-121.221 L -144.485,-121.464 L -144.568,-121.719 L -144.618,-121.982
 L -144.635,-122.25 L -144.618,-122.518 L -144.568,-122.781 L -144.485,-123.036 L -144.371,-123.279 L -144.227,-123.505
 L -144.057,-123.712 L -143.861,-123.895 L -143.644,-124.053 L -143.409,-124.182 L -143.16,-124.281 L -142.9,-124.347
 L -142.634,-124.381 L -142.366,-124.381 L -142.1,-124.347 L -141.84,-124.281 L -141.591,-124.182 L -141.356,-124.053
 L -141.139,-123.895 L -140.943,-123.712 L -140.773,-123.505 L -140.629,-123.279 L -140.515,-123.036 L -140.432,-122.781
 L -140.382,-122.518 L -140.365,-122.25 L -140.382,-121.982 L -140.432,-121.719 L -140.515,-121.464 L -140.629,-121.221
 L -140.773,-120.995 L -140.943,-120.788 L -141.139,-120.605 L -141.356,-120.447 L -141.591,-120.318 L -141.84,-120.219
 L -142.1,-120.153 L -142.366,-120.119 z
M 142.366,-120.119 L 142.1,-120.153 L 141.84,-120.219 L 141.591,-120.318 L 141.356,-120.447 L 141.139,-120.605
 L 140.943,-120.788 L 140.773,-120.995 L 140.629,-121.221 L 140.515,-121.464 L 140.432,-121.719 L 140.382,-121.982
 L 140.365,-122.25 L 140.382,-122.518 L 140.432,-122.781 L 140.515,-123.036 L 140.629,-123.279 L 140.773,-123.505
 L 140.943,-123.712 L 141.139,-123.895 L 141.356,-124.053 L 141.591,-124.182 L 141.84,-124.281 L 142.1,-124.347
 L 142.366,-124.381 L 142.634,-124.381 L 142.9,-124.347 L 143.16,-124.281 L 143.409,-124.182 L 143.644,-124.053
 L 143.861,-123.895 L 144.057,-123.712 L 144.227,-123.505 L 144.371,-123.279 L 144.485,-123.036 L 144.568,-122.781
 L 144.618,-122.518 L 144.635,-122.25 L 144.618,-121.982 L 144.568,-121.719 L 144.485,-121.464 L 144.371,-121.221
 L 144.227,-120.995 L 144.057,-120.788 L 143.861,-120.605 L 143.644,-120.447 L 143.409,-120.318 L 143.16,-120.219
 L 142.9,-120.153 L 142.634,-120.119 z
" stroke="black" fill="lightgray" stroke-width="0.5"/>
</svg>
