  0
SECTION
  2
BLOCKS
  0
ENDSEC
  0
SECTION
  2
ENTITIES
  0
LINE
  8
0
 10
145.937
 20
1720.59
 11
146.545
 21
1720.74
  0
LINE
  8
0
 10
146.545
 20
1720.74
 11
147.129
 21
1720.98
  0
LINE
  8
0
 10
147.129
 20
1720.98
 11
147.679
 21
1721.28
  0
LINE
  8
0
 10
147.679
 20
1721.28
 11
148.187
 21
1721.65
  0
LINE
  8
0
 10
148.187
 20
1721.65
 11
148.645
 21
1722.08
  0
LINE
  8
0
 10
148.645
 20
1722.08
 11
149.045
 21
1722.56
  0
LINE
  8
0
 10
149.045
 20
1722.56
 11
149.382
 21
1723.09
  0
LINE
  8
0
 10
149.382
 20
1723.09
 11
149.649
 21
1723.66
  0
LINE
  8
0
 10
149.649
 20
1723.66
 11
149.843
 21
1724.26
  0
LINE
  8
0
 10
149.843
 20
1724.26
 11
149.961
 21
1724.87
  0
LINE
  8
0
 10
149.961
 20
1724.87
 11
150
 21
1725.5
  0
LINE
  8
0
 10
150
 20
1725.5
 11
150
 21
1970.5
  0
LINE
  8
0
 10
150
 20
1970.5
 11
149.961
 21
1971.13
  0
LINE
  8
0
 10
149.961
 20
1971.13
 11
149.843
 21
1971.74
  0
LINE
  8
0
 10
149.843
 20
1971.74
 11
149.649
 21
1972.34
  0
LINE
  8
0
 10
149.649
 20
1972.34
 11
149.382
 21
1972.91
  0
LINE
  8
0
 10
149.382
 20
1972.91
 11
149.045
 21
1973.44
  0
LINE
  8
0
 10
149.045
 20
1973.44
 11
148.645
 21
1973.92
  0
LINE
  8
0
 10
148.645
 20
1973.92
 11
148.187
 21
1974.35
  0
LINE
  8
0
 10
148.187
 20
1974.35
 11
147.679
 21
1974.72
  0
LINE
  8
0
 10
147.679
 20
1974.72
 11
147.129
 21
1975.02
  0
LINE
  8
0
 10
147.129
 20
1975.02
 11
146.545
 21
1975.26
  0
LINE
  8
0
 10
146.545
 20
1975.26
 11
145.937
 21
1975.41
  0
LINE
  8
0
 10
145.937
 20
1975.41
 11
145.314
 21
1975.49
  0
LINE
  8
0
 10
145.314
 20
1975.49
 11
-145.314
 21
1975.49
  0
LINE
  8
0
 10
-145.314
 20
1975.49
 11
-145.937
 21
1975.41
  0
LINE
  8
0
 10
-145.937
 20
1975.41
 11
-146.545
 21
1975.26
  0
LINE
  8
0
 10
-146.545
 20
1975.26
 11
-147.129
 21
1975.02
  0
LINE
  8
0
 10
-147.129
 20
1975.02
 11
-147.679
 21
1974.72
  0
LINE
  8
0
 10
-147.679
 20
1974.72
 11
-148.187
 21
1974.35
  0
LINE
  8
0
 10
-148.187
 20
1974.35
 11
-148.645
 21
1973.92
  0
LINE
  8
0
 10
-148.645
 20
1973.92
 11
-149.045
 21
1973.44
  0
LINE
  8
0
 10
-149.045
 20
1973.44
 11
-149.382
 21
1972.91
  0
LINE
  8
0
 10
-149.382
 20
1972.91
 11
-149.649
 21
1972.34
  0
LINE
  8
0
 10
-149.649
 20
1972.34
 11
-149.843
 21
1971.74
  0
LINE
  8
0
 10
-149.843
 20
1971.74
 11
-149.961
 21
1971.13
  0
LINE
  8
0
 10
-149.961
 20
1971.13
 11
-150
 21
1970.5
  0
LINE
  8
0
 10
-150
 20
1970.5
 11
-150
 21
1725.5
  0
LINE
  8
0
 10
-150
 20
1725.5
 11
-149.961
 21
1724.87
  0
LINE
  8
0
 10
-149.961
 20
1724.87
 11
-149.843
 21
1724.26
  0
LINE
  8
0
 10
-149.843
 20
1724.26
 11
-149.649
 21
1723.66
  0
LINE
  8
0
 10
-149.649
 20
1723.66
 11
-149.382
 21
1723.09
  0
LINE
  8
0
 10
-149.382
 20
1723.09
 11
-149.045
 21
1722.56
  0
LINE
  8
0
 10
-149.045
 20
1722.56
 11
-148.645
 21
1722.08
  0
LINE
  8
0
 10
-148.645
 20
1722.08
 11
-148.187
 21
1721.65
  0
LINE
  8
0
 10
-148.187
 20
1721.65
 11
-147.679
 21
1721.28
  0
LINE
  8
0
 10
-147.679
 20
1721.28
 11
-147.129
 21
1720.98
  0
LINE
  8
0
 10
-147.129
 20
1720.98
 11
-146.545
 21
1720.74
  0
LINE
  8
0
 10
-146.545
 20
1720.74
 11
-145.937
 21
1720.59
  0
LINE
  8
0
 10
-145.937
 20
1720.59
 11
-145.314
 21
1720.51
  0
LINE
  8
0
 10
-145.314
 20
1720.51
 11
145.314
 21
1720.51
  0
LINE
  8
0
 10
145.314
 20
1720.51
 11
145.937
 21
1720.59
  0
LINE
  8
0
 10
-145.048
 20
1721.01
 11
-145.64
 21
1721.08
  0
LINE
  8
0
 10
-145.64
 20
1721.08
 11
-146.218
 21
1721.23
  0
LINE
  8
0
 10
-146.218
 20
1721.23
 11
-146.772
 21
1721.45
  0
LINE
  8
0
 10
-146.772
 20
1721.45
 11
-147.295
 21
1721.74
  0
LINE
  8
0
 10
-147.295
 20
1721.74
 11
-147.778
 21
1722.09
  0
LINE
  8
0
 10
-147.778
 20
1722.09
 11
-148.213
 21
1722.5
  0
LINE
  8
0
 10
-148.213
 20
1722.5
 11
-148.593
 21
1722.96
  0
LINE
  8
0
 10
-148.593
 20
1722.96
 11
-148.912
 21
1723.46
  0
LINE
  8
0
 10
-148.912
 20
1723.46
 11
-149.166
 21
1724
  0
LINE
  8
0
 10
-149.166
 20
1724
 11
-149.351
 21
1724.57
  0
LINE
  8
0
 10
-149.351
 20
1724.57
 11
-149.463
 21
1725.15
  0
LINE
  8
0
 10
-149.463
 20
1725.15
 11
-149.5
 21
1725.75
  0
LINE
  8
0
 10
-149.5
 20
1725.75
 11
-149.5
 21
1970.25
  0
LINE
  8
0
 10
-149.5
 20
1970.25
 11
-149.463
 21
1970.85
  0
LINE
  8
0
 10
-149.463
 20
1970.85
 11
-149.351
 21
1971.43
  0
LINE
  8
0
 10
-149.351
 20
1971.43
 11
-149.166
 21
1972
  0
LINE
  8
0
 10
-149.166
 20
1972
 11
-148.912
 21
1972.54
  0
LINE
  8
0
 10
-148.912
 20
1972.54
 11
-148.593
 21
1973.04
  0
LINE
  8
0
 10
-148.593
 20
1973.04
 11
-148.213
 21
1973.5
  0
LINE
  8
0
 10
-148.213
 20
1973.5
 11
-147.778
 21
1973.91
  0
LINE
  8
0
 10
-147.778
 20
1973.91
 11
-147.295
 21
1974.26
  0
LINE
  8
0
 10
-147.295
 20
1974.26
 11
-146.772
 21
1974.55
  0
LINE
  8
0
 10
-146.772
 20
1974.55
 11
-146.218
 21
1974.77
  0
LINE
  8
0
 10
-146.218
 20
1974.77
 11
-145.64
 21
1974.92
  0
LINE
  8
0
 10
-145.64
 20
1974.92
 11
-145.048
 21
1974.99
  0
LINE
  8
0
 10
-145.048
 20
1974.99
 11
145.048
 21
1974.99
  0
LINE
  8
0
 10
145.048
 20
1974.99
 11
145.64
 21
1974.92
  0
LINE
  8
0
 10
145.64
 20
1974.92
 11
146.218
 21
1974.77
  0
LINE
  8
0
 10
146.218
 20
1974.77
 11
146.772
 21
1974.55
  0
LINE
  8
0
 10
146.772
 20
1974.55
 11
147.295
 21
1974.26
  0
LINE
  8
0
 10
147.295
 20
1974.26
 11
147.778
 21
1973.91
  0
LINE
  8
0
 10
147.778
 20
1973.91
 11
148.213
 21
1973.5
  0
LINE
  8
0
 10
148.213
 20
1973.5
 11
148.593
 21
1973.04
  0
LINE
  8
0
 10
148.593
 20
1973.04
 11
148.912
 21
1972.54
  0
LINE
  8
0
 10
148.912
 20
1972.54
 11
149.166
 21
1972
  0
LINE
  8
0
 10
149.166
 20
1972
 11
149.351
 21
1971.43
  0
LINE
  8
0
 10
149.351
 20
1971.43
 11
149.463
 21
1970.85
  0
LINE
  8
0
 10
149.463
 20
1970.85
 11
149.5
 21
1970.25
  0
LINE
  8
0
 10
149.5
 20
1970.25
 11
149.5
 21
1725.75
  0
LINE
  8
0
 10
149.5
 20
1725.75
 11
149.463
 21
1725.15
  0
LINE
  8
0
 10
149.463
 20
1725.15
 11
149.351
 21
1724.57
  0
LINE
  8
0
 10
149.351
 20
1724.57
 11
149.166
 21
1724
  0
LINE
  8
0
 10
149.166
 20
1724
 11
148.912
 21
1723.46
  0
LINE
  8
0
 10
148.912
 20
1723.46
 11
148.593
 21
1722.96
  0
LINE
  8
0
 10
148.593
 20
1722.96
 11
148.213
 21
1722.5
  0
LINE
  8
0
 10
148.213
 20
1722.5
 11
147.778
 21
1722.09
  0
LINE
  8
0
 10
147.778
 20
1722.09
 11
147.295
 21
1721.74
  0
LINE
  8
0
 10
147.295
 20
1721.74
 11
146.772
 21
1721.45
  0
LINE
  8
0
 10
146.772
 20
1721.45
 11
146.218
 21
1721.23
  0
LINE
  8
0
 10
146.218
 20
1721.23
 11
145.64
 21
1721.08
  0
LINE
  8
0
 10
145.64
 20
1721.08
 11
145.048
 21
1721.01
  0
LINE
  8
0
 10
145.048
 20
1721.01
 11
-145.048
 21
1721.01
  0
LINE
  8
0
 10
145.937
 20
1456.59
 11
146.545
 21
1456.74
  0
LINE
  8
0
 10
146.545
 20
1456.74
 11
147.129
 21
1456.98
  0
LINE
  8
0
 10
147.129
 20
1456.98
 11
147.679
 21
1457.28
  0
LINE
  8
0
 10
147.679
 20
1457.28
 11
148.187
 21
1457.65
  0
LINE
  8
0
 10
148.187
 20
1457.65
 11
148.645
 21
1458.08
  0
LINE
  8
0
 10
148.645
 20
1458.08
 11
149.045
 21
1458.56
  0
LINE
  8
0
 10
149.045
 20
1458.56
 11
149.382
 21
1459.09
  0
LINE
  8
0
 10
149.382
 20
1459.09
 11
149.649
 21
1459.66
  0
LINE
  8
0
 10
149.649
 20
1459.66
 11
149.843
 21
1460.26
  0
LINE
  8
0
 10
149.843
 20
1460.26
 11
149.961
 21
1460.87
  0
LINE
  8
0
 10
149.961
 20
1460.87
 11
150
 21
1461.5
  0
LINE
  8
0
 10
150
 20
1461.5
 11
150
 21
1706.5
  0
LINE
  8
0
 10
150
 20
1706.5
 11
149.961
 21
1707.13
  0
LINE
  8
0
 10
149.961
 20
1707.13
 11
149.843
 21
1707.74
  0
LINE
  8
0
 10
149.843
 20
1707.74
 11
149.649
 21
1708.34
  0
LINE
  8
0
 10
149.649
 20
1708.34
 11
149.382
 21
1708.91
  0
LINE
  8
0
 10
149.382
 20
1708.91
 11
149.045
 21
1709.44
  0
LINE
  8
0
 10
149.045
 20
1709.44
 11
148.645
 21
1709.92
  0
LINE
  8
0
 10
148.645
 20
1709.92
 11
148.187
 21
1710.35
  0
LINE
  8
0
 10
148.187
 20
1710.35
 11
147.679
 21
1710.72
  0
LINE
  8
0
 10
147.679
 20
1710.72
 11
147.129
 21
1711.02
  0
LINE
  8
0
 10
147.129
 20
1711.02
 11
146.545
 21
1711.26
  0
LINE
  8
0
 10
146.545
 20
1711.26
 11
145.937
 21
1711.41
  0
LINE
  8
0
 10
145.937
 20
1711.41
 11
145.314
 21
1711.49
  0
LINE
  8
0
 10
145.314
 20
1711.49
 11
-145.314
 21
1711.49
  0
LINE
  8
0
 10
-145.314
 20
1711.49
 11
-145.937
 21
1711.41
  0
LINE
  8
0
 10
-145.937
 20
1711.41
 11
-146.545
 21
1711.26
  0
LINE
  8
0
 10
-146.545
 20
1711.26
 11
-147.129
 21
1711.02
  0
LINE
  8
0
 10
-147.129
 20
1711.02
 11
-147.679
 21
1710.72
  0
LINE
  8
0
 10
-147.679
 20
1710.72
 11
-148.187
 21
1710.35
  0
LINE
  8
0
 10
-148.187
 20
1710.35
 11
-148.645
 21
1709.92
  0
LINE
  8
0
 10
-148.645
 20
1709.92
 11
-149.045
 21
1709.44
  0
LINE
  8
0
 10
-149.045
 20
1709.44
 11
-149.382
 21
1708.91
  0
LINE
  8
0
 10
-149.382
 20
1708.91
 11
-149.649
 21
1708.34
  0
LINE
  8
0
 10
-149.649
 20
1708.34
 11
-149.843
 21
1707.74
  0
LINE
  8
0
 10
-149.843
 20
1707.74
 11
-149.961
 21
1707.13
  0
LINE
  8
0
 10
-149.961
 20
1707.13
 11
-150
 21
1706.5
  0
LINE
  8
0
 10
-150
 20
1706.5
 11
-150
 21
1461.5
  0
LINE
  8
0
 10
-150
 20
1461.5
 11
-149.961
 21
1460.87
  0
LINE
  8
0
 10
-149.961
 20
1460.87
 11
-149.843
 21
1460.26
  0
LINE
  8
0
 10
-149.843
 20
1460.26
 11
-149.649
 21
1459.66
  0
LINE
  8
0
 10
-149.649
 20
1459.66
 11
-149.382
 21
1459.09
  0
LINE
  8
0
 10
-149.382
 20
1459.09
 11
-149.045
 21
1458.56
  0
LINE
  8
0
 10
-149.045
 20
1458.56
 11
-148.645
 21
1458.08
  0
LINE
  8
0
 10
-148.645
 20
1458.08
 11
-148.187
 21
1457.65
  0
LINE
  8
0
 10
-148.187
 20
1457.65
 11
-147.679
 21
1457.28
  0
LINE
  8
0
 10
-147.679
 20
1457.28
 11
-147.129
 21
1456.98
  0
LINE
  8
0
 10
-147.129
 20
1456.98
 11
-146.545
 21
1456.74
  0
LINE
  8
0
 10
-146.545
 20
1456.74
 11
-145.937
 21
1456.59
  0
LINE
  8
0
 10
-145.937
 20
1456.59
 11
-145.314
 21
1456.51
  0
LINE
  8
0
 10
-145.314
 20
1456.51
 11
145.314
 21
1456.51
  0
LINE
  8
0
 10
145.314
 20
1456.51
 11
145.937
 21
1456.59
  0
LINE
  8
0
 10
-145.048
 20
1457.01
 11
-145.64
 21
1457.08
  0
LINE
  8
0
 10
-145.64
 20
1457.08
 11
-146.218
 21
1457.23
  0
LINE
  8
0
 10
-146.218
 20
1457.23
 11
-146.772
 21
1457.45
  0
LINE
  8
0
 10
-146.772
 20
1457.45
 11
-147.295
 21
1457.74
  0
LINE
  8
0
 10
-147.295
 20
1457.74
 11
-147.778
 21
1458.09
  0
LINE
  8
0
 10
-147.778
 20
1458.09
 11
-148.213
 21
1458.5
  0
LINE
  8
0
 10
-148.213
 20
1458.5
 11
-148.593
 21
1458.96
  0
LINE
  8
0
 10
-148.593
 20
1458.96
 11
-148.912
 21
1459.46
  0
LINE
  8
0
 10
-148.912
 20
1459.46
 11
-149.166
 21
1460
  0
LINE
  8
0
 10
-149.166
 20
1460
 11
-149.351
 21
1460.57
  0
LINE
  8
0
 10
-149.351
 20
1460.57
 11
-149.463
 21
1461.15
  0
LINE
  8
0
 10
-149.463
 20
1461.15
 11
-149.5
 21
1461.75
  0
LINE
  8
0
 10
-149.5
 20
1461.75
 11
-149.5
 21
1706.25
  0
LINE
  8
0
 10
-149.5
 20
1706.25
 11
-149.463
 21
1706.85
  0
LINE
  8
0
 10
-149.463
 20
1706.85
 11
-149.351
 21
1707.43
  0
LINE
  8
0
 10
-149.351
 20
1707.43
 11
-149.166
 21
1708
  0
LINE
  8
0
 10
-149.166
 20
1708
 11
-148.912
 21
1708.54
  0
LINE
  8
0
 10
-148.912
 20
1708.54
 11
-148.593
 21
1709.04
  0
LINE
  8
0
 10
-148.593
 20
1709.04
 11
-148.213
 21
1709.5
  0
LINE
  8
0
 10
-148.213
 20
1709.5
 11
-147.778
 21
1709.91
  0
LINE
  8
0
 10
-147.778
 20
1709.91
 11
-147.295
 21
1710.26
  0
LINE
  8
0
 10
-147.295
 20
1710.26
 11
-146.772
 21
1710.55
  0
LINE
  8
0
 10
-146.772
 20
1710.55
 11
-146.218
 21
1710.77
  0
LINE
  8
0
 10
-146.218
 20
1710.77
 11
-145.64
 21
1710.92
  0
LINE
  8
0
 10
-145.64
 20
1710.92
 11
-145.048
 21
1710.99
  0
LINE
  8
0
 10
-145.048
 20
1710.99
 11
145.048
 21
1710.99
  0
LINE
  8
0
 10
145.048
 20
1710.99
 11
145.64
 21
1710.92
  0
LINE
  8
0
 10
145.64
 20
1710.92
 11
146.218
 21
1710.77
  0
LINE
  8
0
 10
146.218
 20
1710.77
 11
146.772
 21
1710.55
  0
LINE
  8
0
 10
146.772
 20
1710.55
 11
147.295
 21
1710.26
  0
LINE
  8
0
 10
147.295
 20
1710.26
 11
147.778
 21
1709.91
  0
LINE
  8
0
 10
147.778
 20
1709.91
 11
148.213
 21
1709.5
  0
LINE
  8
0
 10
148.213
 20
1709.5
 11
148.593
 21
1709.04
  0
LINE
  8
0
 10
148.593
 20
1709.04
 11
148.912
 21
1708.54
  0
LINE
  8
0
 10
148.912
 20
1708.54
 11
149.166
 21
1708
  0
LINE
  8
0
 10
149.166
 20
1708
 11
149.351
 21
1707.43
  0
LINE
  8
0
 10
149.351
 20
1707.43
 11
149.463
 21
1706.85
  0
LINE
  8
0
 10
149.463
 20
1706.85
 11
149.5
 21
1706.25
  0
LINE
  8
0
 10
149.5
 20
1706.25
 11
149.5
 21
1461.75
  0
LINE
  8
0
 10
149.5
 20
1461.75
 11
149.463
 21
1461.15
  0
LINE
  8
0
 10
149.463
 20
1461.15
 11
149.351
 21
1460.57
  0
LINE
  8
0
 10
149.351
 20
1460.57
 11
149.166
 21
1460
  0
LINE
  8
0
 10
149.166
 20
1460
 11
148.912
 21
1459.46
  0
LINE
  8
0
 10
148.912
 20
1459.46
 11
148.593
 21
1458.96
  0
LINE
  8
0
 10
148.593
 20
1458.96
 11
148.213
 21
1458.5
  0
LINE
  8
0
 10
148.213
 20
1458.5
 11
147.778
 21
1458.09
  0
LINE
  8
0
 10
147.778
 20
1458.09
 11
147.295
 21
1457.74
  0
LINE
  8
0
 10
147.295
 20
1457.74
 11
146.772
 21
1457.45
  0
LINE
  8
0
 10
146.772
 20
1457.45
 11
146.218
 21
1457.23
  0
LINE
  8
0
 10
146.218
 20
1457.23
 11
145.64
 21
1457.08
  0
LINE
  8
0
 10
145.64
 20
1457.08
 11
145.048
 21
1457.01
  0
LINE
  8
0
 10
145.048
 20
1457.01
 11
-145.048
 21
1457.01
  0
LINE
  8
0
 10
145.937
 20
1192.59
 11
146.545
 21
1192.74
  0
LINE
  8
0
 10
146.545
 20
1192.74
 11
147.129
 21
1192.98
  0
LINE
  8
0
 10
147.129
 20
1192.98
 11
147.679
 21
1193.28
  0
LINE
  8
0
 10
147.679
 20
1193.28
 11
148.187
 21
1193.65
  0
LINE
  8
0
 10
148.187
 20
1193.65
 11
148.645
 21
1194.08
  0
LINE
  8
0
 10
148.645
 20
1194.08
 11
149.045
 21
1194.56
  0
LINE
  8
0
 10
149.045
 20
1194.56
 11
149.382
 21
1195.09
  0
LINE
  8
0
 10
149.382
 20
1195.09
 11
149.649
 21
1195.66
  0
LINE
  8
0
 10
149.649
 20
1195.66
 11
149.843
 21
1196.26
  0
LINE
  8
0
 10
149.843
 20
1196.26
 11
149.961
 21
1196.87
  0
LINE
  8
0
 10
149.961
 20
1196.87
 11
150
 21
1197.5
  0
LINE
  8
0
 10
150
 20
1197.5
 11
150
 21
1442.5
  0
LINE
  8
0
 10
150
 20
1442.5
 11
149.961
 21
1443.13
  0
LINE
  8
0
 10
149.961
 20
1443.13
 11
149.843
 21
1443.74
  0
LINE
  8
0
 10
149.843
 20
1443.74
 11
149.649
 21
1444.34
  0
LINE
  8
0
 10
149.649
 20
1444.34
 11
149.382
 21
1444.91
  0
LINE
  8
0
 10
149.382
 20
1444.91
 11
149.045
 21
1445.44
  0
LINE
  8
0
 10
149.045
 20
1445.44
 11
148.645
 21
1445.92
  0
LINE
  8
0
 10
148.645
 20
1445.92
 11
148.187
 21
1446.35
  0
LINE
  8
0
 10
148.187
 20
1446.35
 11
147.679
 21
1446.72
  0
LINE
  8
0
 10
147.679
 20
1446.72
 11
147.129
 21
1447.02
  0
LINE
  8
0
 10
147.129
 20
1447.02
 11
146.545
 21
1447.26
  0
LINE
  8
0
 10
146.545
 20
1447.26
 11
145.937
 21
1447.41
  0
LINE
  8
0
 10
145.937
 20
1447.41
 11
145.314
 21
1447.49
  0
LINE
  8
0
 10
145.314
 20
1447.49
 11
-145.314
 21
1447.49
  0
LINE
  8
0
 10
-145.314
 20
1447.49
 11
-145.937
 21
1447.41
  0
LINE
  8
0
 10
-145.937
 20
1447.41
 11
-146.545
 21
1447.26
  0
LINE
  8
0
 10
-146.545
 20
1447.26
 11
-147.129
 21
1447.02
  0
LINE
  8
0
 10
-147.129
 20
1447.02
 11
-147.679
 21
1446.72
  0
LINE
  8
0
 10
-147.679
 20
1446.72
 11
-148.187
 21
1446.35
  0
LINE
  8
0
 10
-148.187
 20
1446.35
 11
-148.645
 21
1445.92
  0
LINE
  8
0
 10
-148.645
 20
1445.92
 11
-149.045
 21
1445.44
  0
LINE
  8
0
 10
-149.045
 20
1445.44
 11
-149.382
 21
1444.91
  0
LINE
  8
0
 10
-149.382
 20
1444.91
 11
-149.649
 21
1444.34
  0
LINE
  8
0
 10
-149.649
 20
1444.34
 11
-149.843
 21
1443.74
  0
LINE
  8
0
 10
-149.843
 20
1443.74
 11
-149.961
 21
1443.13
  0
LINE
  8
0
 10
-149.961
 20
1443.13
 11
-150
 21
1442.5
  0
LINE
  8
0
 10
-150
 20
1442.5
 11
-150
 21
1197.5
  0
LINE
  8
0
 10
-150
 20
1197.5
 11
-149.961
 21
1196.87
  0
LINE
  8
0
 10
-149.961
 20
1196.87
 11
-149.843
 21
1196.26
  0
LINE
  8
0
 10
-149.843
 20
1196.26
 11
-149.649
 21
1195.66
  0
LINE
  8
0
 10
-149.649
 20
1195.66
 11
-149.382
 21
1195.09
  0
LINE
  8
0
 10
-149.382
 20
1195.09
 11
-149.045
 21
1194.56
  0
LINE
  8
0
 10
-149.045
 20
1194.56
 11
-148.645
 21
1194.08
  0
LINE
  8
0
 10
-148.645
 20
1194.08
 11
-148.187
 21
1193.65
  0
LINE
  8
0
 10
-148.187
 20
1193.65
 11
-147.679
 21
1193.28
  0
LINE
  8
0
 10
-147.679
 20
1193.28
 11
-147.129
 21
1192.98
  0
LINE
  8
0
 10
-147.129
 20
1192.98
 11
-146.545
 21
1192.74
  0
LINE
  8
0
 10
-146.545
 20
1192.74
 11
-145.937
 21
1192.59
  0
LINE
  8
0
 10
-145.937
 20
1192.59
 11
-145.314
 21
1192.51
  0
LINE
  8
0
 10
-145.314
 20
1192.51
 11
145.314
 21
1192.51
  0
LINE
  8
0
 10
145.314
 20
1192.51
 11
145.937
 21
1192.59
  0
LINE
  8
0
 10
-145.037
 20
1193.18
 11
-145.608
 21
1193.25
  0
LINE
  8
0
 10
-145.608
 20
1193.25
 11
-146.165
 21
1193.4
  0
LINE
  8
0
 10
-146.165
 20
1193.4
 11
-146.699
 21
1193.61
  0
LINE
  8
0
 10
-146.699
 20
1193.61
 11
-147.203
 21
1193.88
  0
LINE
  8
0
 10
-147.203
 20
1193.88
 11
-147.668
 21
1194.22
  0
LINE
  8
0
 10
-147.668
 20
1194.22
 11
-148.088
 21
1194.62
  0
LINE
  8
0
 10
-148.088
 20
1194.62
 11
-148.454
 21
1195.06
  0
LINE
  8
0
 10
-148.454
 20
1195.06
 11
-148.762
 21
1195.54
  0
LINE
  8
0
 10
-148.762
 20
1195.54
 11
-149.007
 21
1196.06
  0
LINE
  8
0
 10
-149.007
 20
1196.06
 11
-149.185
 21
1196.61
  0
LINE
  8
0
 10
-149.185
 20
1196.61
 11
-149.292
 21
1197.18
  0
LINE
  8
0
 10
-149.292
 20
1197.18
 11
-149.328
 21
1197.75
  0
LINE
  8
0
 10
-149.328
 20
1197.75
 11
-149.328
 21
1442.25
  0
LINE
  8
0
 10
-149.328
 20
1442.25
 11
-149.292
 21
1442.82
  0
LINE
  8
0
 10
-149.292
 20
1442.82
 11
-149.185
 21
1443.39
  0
LINE
  8
0
 10
-149.185
 20
1443.39
 11
-149.007
 21
1443.94
  0
LINE
  8
0
 10
-149.007
 20
1443.94
 11
-148.762
 21
1444.46
  0
LINE
  8
0
 10
-148.762
 20
1444.46
 11
-148.454
 21
1444.94
  0
LINE
  8
0
 10
-148.454
 20
1444.94
 11
-148.088
 21
1445.38
  0
LINE
  8
0
 10
-148.088
 20
1445.38
 11
-147.668
 21
1445.78
  0
LINE
  8
0
 10
-147.668
 20
1445.78
 11
-147.203
 21
1446.12
  0
LINE
  8
0
 10
-147.203
 20
1446.12
 11
-146.699
 21
1446.39
  0
LINE
  8
0
 10
-146.699
 20
1446.39
 11
-146.165
 21
1446.6
  0
LINE
  8
0
 10
-146.165
 20
1446.6
 11
-145.608
 21
1446.75
  0
LINE
  8
0
 10
-145.608
 20
1446.75
 11
-145.037
 21
1446.82
  0
LINE
  8
0
 10
-145.037
 20
1446.82
 11
145.037
 21
1446.82
  0
LINE
  8
0
 10
145.037
 20
1446.82
 11
145.608
 21
1446.75
  0
LINE
  8
0
 10
145.608
 20
1446.75
 11
146.165
 21
1446.6
  0
LINE
  8
0
 10
146.165
 20
1446.6
 11
146.699
 21
1446.39
  0
LINE
  8
0
 10
146.699
 20
1446.39
 11
147.203
 21
1446.12
  0
LINE
  8
0
 10
147.203
 20
1446.12
 11
147.668
 21
1445.78
  0
LINE
  8
0
 10
147.668
 20
1445.78
 11
148.088
 21
1445.38
  0
LINE
  8
0
 10
148.088
 20
1445.38
 11
148.454
 21
1444.94
  0
LINE
  8
0
 10
148.454
 20
1444.94
 11
148.762
 21
1444.46
  0
LINE
  8
0
 10
148.762
 20
1444.46
 11
149.007
 21
1443.94
  0
LINE
  8
0
 10
149.007
 20
1443.94
 11
149.185
 21
1443.39
  0
LINE
  8
0
 10
149.185
 20
1443.39
 11
149.292
 21
1442.82
  0
LINE
  8
0
 10
149.292
 20
1442.82
 11
149.328
 21
1442.25
  0
LINE
  8
0
 10
149.328
 20
1442.25
 11
149.328
 21
1197.75
  0
LINE
  8
0
 10
149.328
 20
1197.75
 11
149.292
 21
1197.18
  0
LINE
  8
0
 10
149.292
 20
1197.18
 11
149.185
 21
1196.61
  0
LINE
  8
0
 10
149.185
 20
1196.61
 11
149.007
 21
1196.06
  0
LINE
  8
0
 10
149.007
 20
1196.06
 11
148.762
 21
1195.54
  0
LINE
  8
0
 10
148.762
 20
1195.54
 11
148.454
 21
1195.06
  0
LINE
  8
0
 10
148.454
 20
1195.06
 11
148.088
 21
1194.62
  0
LINE
  8
0
 10
148.088
 20
1194.62
 11
147.668
 21
1194.22
  0
LINE
  8
0
 10
147.668
 20
1194.22
 11
147.203
 21
1193.88
  0
LINE
  8
0
 10
147.203
 20
1193.88
 11
146.699
 21
1193.61
  0
LINE
  8
0
 10
146.699
 20
1193.61
 11
146.165
 21
1193.4
  0
LINE
  8
0
 10
146.165
 20
1193.4
 11
145.608
 21
1193.25
  0
LINE
  8
0
 10
145.608
 20
1193.25
 11
145.037
 21
1193.18
  0
LINE
  8
0
 10
145.037
 20
1193.18
 11
-145.037
 21
1193.18
  0
LINE
  8
0
 10
145.937
 20
928.589
 11
146.545
 21
928.745
  0
LINE
  8
0
 10
146.545
 20
928.745
 11
147.129
 21
928.976
  0
LINE
  8
0
 10
147.129
 20
928.976
 11
147.679
 21
929.278
  0
LINE
  8
0
 10
147.679
 20
929.278
 11
148.187
 21
929.647
  0
LINE
  8
0
 10
148.187
 20
929.647
 11
148.645
 21
930.077
  0
LINE
  8
0
 10
148.645
 20
930.077
 11
149.045
 21
930.561
  0
LINE
  8
0
 10
149.045
 20
930.561
 11
149.382
 21
931.091
  0
LINE
  8
0
 10
149.382
 20
931.091
 11
149.649
 21
931.659
  0
LINE
  8
0
 10
149.649
 20
931.659
 11
149.843
 21
932.257
  0
LINE
  8
0
 10
149.843
 20
932.257
 11
149.961
 21
932.873
  0
LINE
  8
0
 10
149.961
 20
932.873
 11
150
 21
933.5
  0
LINE
  8
0
 10
150
 20
933.5
 11
150
 21
1178.5
  0
LINE
  8
0
 10
150
 20
1178.5
 11
149.961
 21
1179.13
  0
LINE
  8
0
 10
149.961
 20
1179.13
 11
149.843
 21
1179.74
  0
LINE
  8
0
 10
149.843
 20
1179.74
 11
149.649
 21
1180.34
  0
LINE
  8
0
 10
149.649
 20
1180.34
 11
149.382
 21
1180.91
  0
LINE
  8
0
 10
149.382
 20
1180.91
 11
149.045
 21
1181.44
  0
LINE
  8
0
 10
149.045
 20
1181.44
 11
148.645
 21
1181.92
  0
LINE
  8
0
 10
148.645
 20
1181.92
 11
148.187
 21
1182.35
  0
LINE
  8
0
 10
148.187
 20
1182.35
 11
147.679
 21
1182.72
  0
LINE
  8
0
 10
147.679
 20
1182.72
 11
147.129
 21
1183.02
  0
LINE
  8
0
 10
147.129
 20
1183.02
 11
146.545
 21
1183.26
  0
LINE
  8
0
 10
146.545
 20
1183.26
 11
145.937
 21
1183.41
  0
LINE
  8
0
 10
145.937
 20
1183.41
 11
145.314
 21
1183.49
  0
LINE
  8
0
 10
145.314
 20
1183.49
 11
-145.314
 21
1183.49
  0
LINE
  8
0
 10
-145.314
 20
1183.49
 11
-145.937
 21
1183.41
  0
LINE
  8
0
 10
-145.937
 20
1183.41
 11
-146.545
 21
1183.26
  0
LINE
  8
0
 10
-146.545
 20
1183.26
 11
-147.129
 21
1183.02
  0
LINE
  8
0
 10
-147.129
 20
1183.02
 11
-147.679
 21
1182.72
  0
LINE
  8
0
 10
-147.679
 20
1182.72
 11
-148.187
 21
1182.35
  0
LINE
  8
0
 10
-148.187
 20
1182.35
 11
-148.645
 21
1181.92
  0
LINE
  8
0
 10
-148.645
 20
1181.92
 11
-149.045
 21
1181.44
  0
LINE
  8
0
 10
-149.045
 20
1181.44
 11
-149.382
 21
1180.91
  0
LINE
  8
0
 10
-149.382
 20
1180.91
 11
-149.649
 21
1180.34
  0
LINE
  8
0
 10
-149.649
 20
1180.34
 11
-149.843
 21
1179.74
  0
LINE
  8
0
 10
-149.843
 20
1179.74
 11
-149.961
 21
1179.13
  0
LINE
  8
0
 10
-149.961
 20
1179.13
 11
-150
 21
1178.5
  0
LINE
  8
0
 10
-150
 20
1178.5
 11
-150
 21
933.5
  0
LINE
  8
0
 10
-150
 20
933.5
 11
-149.961
 21
932.873
  0
LINE
  8
0
 10
-149.961
 20
932.873
 11
-149.843
 21
932.257
  0
LINE
  8
0
 10
-149.843
 20
932.257
 11
-149.649
 21
931.659
  0
LINE
  8
0
 10
-149.649
 20
931.659
 11
-149.382
 21
931.091
  0
LINE
  8
0
 10
-149.382
 20
931.091
 11
-149.045
 21
930.561
  0
LINE
  8
0
 10
-149.045
 20
930.561
 11
-148.645
 21
930.077
  0
LINE
  8
0
 10
-148.645
 20
930.077
 11
-148.187
 21
929.647
  0
LINE
  8
0
 10
-148.187
 20
929.647
 11
-147.679
 21
929.278
  0
LINE
  8
0
 10
-147.679
 20
929.278
 11
-147.129
 21
928.976
  0
LINE
  8
0
 10
-147.129
 20
928.976
 11
-146.545
 21
928.745
  0
LINE
  8
0
 10
-146.545
 20
928.745
 11
-145.937
 21
928.589
  0
LINE
  8
0
 10
-145.937
 20
928.589
 11
-145.314
 21
928.51
  0
LINE
  8
0
 10
-145.314
 20
928.51
 11
145.314
 21
928.51
  0
LINE
  8
0
 10
145.314
 20
928.51
 11
145.937
 21
928.589
  0
LINE
  8
0
 10
-144.882
 20
931.645
 11
-145.145
 21
931.678
  0
LINE
  8
0
 10
-145.145
 20
931.678
 11
-145.402
 21
931.744
  0
LINE
  8
0
 10
-145.402
 20
931.744
 11
-145.648
 21
931.841
  0
LINE
  8
0
 10
-145.648
 20
931.841
 11
-145.88
 21
931.969
  0
LINE
  8
0
 10
-145.88
 20
931.969
 11
-146.095
 21
932.124
  0
LINE
  8
0
 10
-146.095
 20
932.124
 11
-146.288
 21
932.306
  0
LINE
  8
0
 10
-146.288
 20
932.306
 11
-146.457
 21
932.51
  0
LINE
  8
0
 10
-146.457
 20
932.51
 11
-146.599
 21
932.734
  0
LINE
  8
0
 10
-146.599
 20
932.734
 11
-146.711
 21
932.973
  0
LINE
  8
0
 10
-146.711
 20
932.973
 11
-146.793
 21
933.225
  0
LINE
  8
0
 10
-146.793
 20
933.225
 11
-146.843
 21
933.486
  0
LINE
  8
0
 10
-146.843
 20
933.486
 11
-146.86
 21
933.75
  0
LINE
  8
0
 10
-146.86
 20
933.75
 11
-146.86
 21
1178.25
  0
LINE
  8
0
 10
-146.86
 20
1178.25
 11
-146.843
 21
1178.51
  0
LINE
  8
0
 10
-146.843
 20
1178.51
 11
-146.793
 21
1178.77
  0
LINE
  8
0
 10
-146.793
 20
1178.77
 11
-146.711
 21
1179.03
  0
LINE
  8
0
 10
-146.711
 20
1179.03
 11
-146.599
 21
1179.27
  0
LINE
  8
0
 10
-146.599
 20
1179.27
 11
-146.457
 21
1179.49
  0
LINE
  8
0
 10
-146.457
 20
1179.49
 11
-146.288
 21
1179.69
  0
LINE
  8
0
 10
-146.288
 20
1179.69
 11
-146.095
 21
1179.88
  0
LINE
  8
0
 10
-146.095
 20
1179.88
 11
-145.88
 21
1180.03
  0
LINE
  8
0
 10
-145.88
 20
1180.03
 11
-145.648
 21
1180.16
  0
LINE
  8
0
 10
-145.648
 20
1180.16
 11
-145.402
 21
1180.26
  0
LINE
  8
0
 10
-145.402
 20
1180.26
 11
-145.145
 21
1180.32
  0
LINE
  8
0
 10
-145.145
 20
1180.32
 11
-144.882
 21
1180.36
  0
LINE
  8
0
 10
-144.882
 20
1180.36
 11
144.882
 21
1180.36
  0
LINE
  8
0
 10
144.882
 20
1180.36
 11
145.145
 21
1180.32
  0
LINE
  8
0
 10
145.145
 20
1180.32
 11
145.402
 21
1180.26
  0
LINE
  8
0
 10
145.402
 20
1180.26
 11
145.648
 21
1180.16
  0
LINE
  8
0
 10
145.648
 20
1180.16
 11
145.88
 21
1180.03
  0
LINE
  8
0
 10
145.88
 20
1180.03
 11
146.095
 21
1179.88
  0
LINE
  8
0
 10
146.095
 20
1179.88
 11
146.288
 21
1179.69
  0
LINE
  8
0
 10
146.288
 20
1179.69
 11
146.457
 21
1179.49
  0
LINE
  8
0
 10
146.457
 20
1179.49
 11
146.599
 21
1179.27
  0
LINE
  8
0
 10
146.599
 20
1179.27
 11
146.711
 21
1179.03
  0
LINE
  8
0
 10
146.711
 20
1179.03
 11
146.793
 21
1178.77
  0
LINE
  8
0
 10
146.793
 20
1178.77
 11
146.843
 21
1178.51
  0
LINE
  8
0
 10
146.843
 20
1178.51
 11
146.86
 21
1178.25
  0
LINE
  8
0
 10
146.86
 20
1178.25
 11
146.86
 21
933.75
  0
LINE
  8
0
 10
146.86
 20
933.75
 11
146.843
 21
933.486
  0
LINE
  8
0
 10
146.843
 20
933.486
 11
146.793
 21
933.225
  0
LINE
  8
0
 10
146.793
 20
933.225
 11
146.711
 21
932.973
  0
LINE
  8
0
 10
146.711
 20
932.973
 11
146.599
 21
932.734
  0
LINE
  8
0
 10
146.599
 20
932.734
 11
146.457
 21
932.51
  0
LINE
  8
0
 10
146.457
 20
932.51
 11
146.288
 21
932.306
  0
LINE
  8
0
 10
146.288
 20
932.306
 11
146.095
 21
932.124
  0
LINE
  8
0
 10
146.095
 20
932.124
 11
145.88
 21
931.969
  0
LINE
  8
0
 10
145.88
 20
931.969
 11
145.648
 21
931.841
  0
LINE
  8
0
 10
145.648
 20
931.841
 11
145.402
 21
931.744
  0
LINE
  8
0
 10
145.402
 20
931.744
 11
145.145
 21
931.678
  0
LINE
  8
0
 10
145.145
 20
931.678
 11
144.882
 21
931.645
  0
LINE
  8
0
 10
144.882
 20
931.645
 11
-144.882
 21
931.645
  0
ENDSEC
  0
SECTION
  2
OBJECTS
  0
DICTIONARY
  0
ENDSEC
  0
EOF
