<?xml version="1.0" standalone="no"?>
<!DOCTYPE svg PUBLIC "-//W3C//DTD SVG 1.1//EN" "http://www.w3.org/Graphics/SVG/1.1/DTD/svg11.dtd">
<svg width="272mm" height="1048mm" viewBox="-137 -1712 272 1048" xmlns="http://www.w3.org/2000/svg" version="1.1">
<title>OpenSCAD Model</title>
<path d="
M -133.5,-1457.94 L -133.187,-1457.65 L -132.679,-1457.28 L -132.129,-1456.98 L -131.545,-1456.74 L -130.937,-1456.59
 L -130.314,-1456.51 L 130.314,-1456.51 L 130.937,-1456.59 L 131.545,-1456.74 L 132.129,-1456.98 L 132.679,-1457.28
 L 133.187,-1457.65 L 133.645,-1458.08 L 134.045,-1458.56 L 134.382,-1459.09 L 134.649,-1459.66 L 134.843,-1460.26
 L 134.961,-1460.87 L 135,-1461.5 L 135,-1706.5 L 134.961,-1707.13 L 134.843,-1707.74 L 134.649,-1708.34
 L 134.382,-1708.91 L 134.045,-1709.44 L 133.645,-1709.92 L 133.187,-1710.35 L 132.679,-1710.72 L 132.129,-1711.02
 L 131.545,-1711.26 L 130.937,-1711.41 L 130.314,-1711.49 L -130.314,-1711.49 L -130.937,-1711.41 L -131.545,-1711.26
 L -132.129,-1711.02 L -132.679,-1710.72 L -133.187,-1710.35 L -133.5,-1710.06 L -133.5,-1711.49 L -136.5,-1711.49
 L -136.5,-1456.51 L -133.5,-1456.51 z
M -129.751,-1458.01 L -130.25,-1458.07 L -130.736,-1458.2 L -131.203,-1458.38 L -131.643,-1458.62 L -132.05,-1458.92
 L -132.416,-1459.26 L -132.736,-1459.65 L -133.005,-1460.07 L -133.219,-1460.53 L -133.374,-1461.01 L -133.468,-1461.5
 L -133.5,-1462 L -133.5,-1706 L -133.468,-1706.5 L -133.374,-1706.99 L -133.219,-1707.47 L -133.005,-1707.93
 L -132.736,-1708.35 L -132.416,-1708.74 L -132.05,-1709.08 L -131.643,-1709.38 L -131.203,-1709.62 L -130.736,-1709.8
 L -130.25,-1709.93 L -129.751,-1709.99 L 129.751,-1709.99 L 130.25,-1709.93 L 130.736,-1709.8 L 131.203,-1709.62
 L 131.643,-1709.38 L 132.05,-1709.08 L 132.416,-1708.74 L 132.736,-1708.35 L 133.005,-1707.93 L 133.219,-1707.47
 L 133.374,-1706.99 L 133.468,-1706.5 L 133.5,-1706 L 133.5,-1462 L 133.468,-1461.5 L 133.374,-1461.01
 L 133.219,-1460.53 L 133.005,-1460.07 L 132.736,-1459.65 L 132.416,-1459.26 L 132.05,-1458.92 L 131.643,-1458.62
 L 131.203,-1458.38 L 130.736,-1458.2 L 130.25,-1458.07 L 129.751,-1458.01 z
M -133.5,-1193.94 L -133.187,-1193.65 L -132.679,-1193.28 L -132.129,-1192.98 L -131.545,-1192.74 L -130.937,-1192.59
 L -130.314,-1192.51 L 130.314,-1192.51 L 130.937,-1192.59 L 131.545,-1192.74 L 132.129,-1192.98 L 132.679,-1193.28
 L 133.187,-1193.65 L 133.645,-1194.08 L 134.045,-1194.56 L 134.382,-1195.09 L 134.649,-1195.66 L 134.843,-1196.26
 L 134.961,-1196.87 L 135,-1197.5 L 135,-1442.5 L 134.961,-1443.13 L 134.843,-1443.74 L 134.649,-1444.34
 L 134.382,-1444.91 L 134.045,-1445.44 L 133.645,-1445.92 L 133.187,-1446.35 L 132.679,-1446.72 L 132.129,-1447.02
 L 131.545,-1447.26 L 130.937,-1447.41 L 130.314,-1447.49 L -130.314,-1447.49 L -130.937,-1447.41 L -131.545,-1447.26
 L -132.129,-1447.02 L -132.679,-1446.72 L -133.187,-1446.35 L -133.5,-1446.06 L -133.5,-1447.49 L -136.5,-1447.49
 L -136.5,-1192.51 L -133.5,-1192.51 z
M -129.743,-1194.14 L -130.226,-1194.2 L -130.697,-1194.32 L -131.149,-1194.5 L -131.575,-1194.73 L -131.969,-1195.02
 L -132.323,-1195.35 L -132.633,-1195.72 L -132.894,-1196.13 L -133.101,-1196.57 L -133.251,-1197.04 L -133.342,-1197.51
 L -133.373,-1198 L -133.373,-1442 L -133.342,-1442.49 L -133.251,-1442.96 L -133.101,-1443.43 L -132.894,-1443.87
 L -132.633,-1444.28 L -132.323,-1444.65 L -131.969,-1444.98 L -131.575,-1445.27 L -131.149,-1445.5 L -130.697,-1445.68
 L -130.226,-1445.8 L -129.743,-1445.86 L 129.743,-1445.86 L 130.226,-1445.8 L 130.697,-1445.68 L 131.149,-1445.5
 L 131.575,-1445.27 L 131.969,-1444.98 L 132.323,-1444.65 L 132.633,-1444.28 L 132.894,-1443.87 L 133.101,-1443.43
 L 133.251,-1442.96 L 133.342,-1442.49 L 133.373,-1442 L 133.373,-1198 L 133.342,-1197.51 L 133.251,-1197.04
 L 133.101,-1196.57 L 132.894,-1196.13 L 132.633,-1195.72 L 132.323,-1195.35 L 131.969,-1195.02 L 131.575,-1194.73
 L 131.149,-1194.5 L 130.697,-1194.32 L 130.226,-1194.2 L 129.743,-1194.14 z
M 130.937,-928.589 L 131.545,-928.745 L 132.129,-928.976 L 132.679,-929.278 L 133.187,-929.647 L 133.645,-930.077
 L 134.045,-930.561 L 134.382,-931.091 L 134.649,-931.659 L 134.843,-932.257 L 134.961,-932.873 L 135,-933.5
 L 135,-1178.5 L 134.961,-1179.13 L 134.843,-1179.74 L 134.649,-1180.34 L 134.382,-1180.91 L 134.045,-1181.44
 L 133.645,-1181.92 L 133.187,-1182.35 L 132.679,-1182.72 L 132.129,-1183.02 L 131.545,-1183.26 L 130.937,-1183.41
 L 130.314,-1183.49 L -130.314,-1183.49 L -130.937,-1183.41 L -131.545,-1183.26 L -132.129,-1183.02 L -132.679,-1182.72
 L -133.187,-1182.35 L -133.5,-1182.06 L -133.5,-1183.11 L -136.5,-1183.11 L -136.5,-928.885 L -133.5,-928.885
 L -133.5,-929.941 L -133.187,-929.647 L -132.679,-929.278 L -132.129,-928.976 L -131.545,-928.745 L -130.937,-928.589
 L -130.314,-928.51 L 130.314,-928.51 z
M -127.651,-1173.6 L -127.95,-1173.64 L -128.242,-1173.72 L -128.522,-1173.83 L -128.786,-1173.97 L -129.03,-1174.15
 L -129.25,-1174.36 L -129.442,-1174.59 L -129.603,-1174.84 L -129.731,-1175.12 L -129.825,-1175.4 L -129.881,-1175.7
 L -129.9,-1176 L -129.881,-1176.3 L -129.825,-1176.6 L -129.731,-1176.88 L -129.603,-1177.16 L -129.442,-1177.41
 L -129.25,-1177.64 L -129.03,-1177.85 L -128.786,-1178.03 L -128.522,-1178.17 L -128.242,-1178.28 L -127.95,-1178.36
 L -127.651,-1178.4 L -127.349,-1178.4 L -127.05,-1178.36 L -126.758,-1178.28 L -126.478,-1178.17 L -126.214,-1178.03
 L -125.97,-1177.85 L -125.75,-1177.64 L -125.558,-1177.41 L -125.397,-1177.16 L -125.269,-1176.88 L -125.175,-1176.6
 L -125.119,-1176.3 L -125.1,-1176 L -125.119,-1175.7 L -125.175,-1175.4 L -125.269,-1175.12 L -125.397,-1174.84
 L -125.558,-1174.59 L -125.75,-1174.36 L -125.97,-1174.15 L -126.214,-1173.97 L -126.478,-1173.83 L -126.758,-1173.72
 L -127.05,-1173.64 L -127.349,-1173.6 z
M 127.349,-1173.6 L 127.05,-1173.64 L 126.758,-1173.72 L 126.478,-1173.83 L 126.214,-1173.97 L 125.97,-1174.15
 L 125.75,-1174.36 L 125.558,-1174.59 L 125.397,-1174.84 L 125.269,-1175.12 L 125.175,-1175.4 L 125.119,-1175.7
 L 125.1,-1176 L 125.119,-1176.3 L 125.175,-1176.6 L 125.269,-1176.88 L 125.397,-1177.16 L 125.558,-1177.41
 L 125.75,-1177.64 L 125.97,-1177.85 L 126.214,-1178.03 L 126.478,-1178.17 L 126.758,-1178.28 L 127.05,-1178.36
 L 127.349,-1178.4 L 127.651,-1178.4 L 127.95,-1178.36 L 128.242,-1178.28 L 128.522,-1178.17 L 128.786,-1178.03
 L 129.03,-1177.85 L 129.25,-1177.64 L 129.442,-1177.41 L 129.603,-1177.16 L 129.731,-1176.88 L 129.825,-1176.6
 L 129.881,-1176.3 L 129.9,-1176 L 129.881,-1175.7 L 129.825,-1175.4 L 129.731,-1175.12 L 129.603,-1174.84
 L 129.442,-1174.59 L 129.25,-1174.36 L 129.03,-1174.15 L 128.786,-1173.97 L 128.522,-1173.83 L 128.242,-1173.72
 L 127.95,-1173.64 L 127.651,-1173.6 z
M 127.349,-933.605 L 127.05,-933.643 L 126.758,-933.717 L 126.478,-933.828 L 126.214,-933.974 L 125.97,-934.151
 L 125.75,-934.357 L 125.558,-934.589 L 125.397,-934.844 L 125.269,-935.117 L 125.175,-935.403 L 125.119,-935.699
 L 125.1,-936 L 125.119,-936.301 L 125.175,-936.597 L 125.269,-936.883 L 125.397,-937.156 L 125.558,-937.411
 L 125.75,-937.643 L 125.97,-937.849 L 126.214,-938.026 L 126.478,-938.172 L 126.758,-938.283 L 127.05,-938.357
 L 127.349,-938.395 L 127.651,-938.395 L 127.95,-938.357 L 128.242,-938.283 L 128.522,-938.172 L 128.786,-938.026
 L 129.03,-937.849 L 129.25,-937.643 L 129.442,-937.411 L 129.603,-937.156 L 129.731,-936.883 L 129.825,-936.597
 L 129.881,-936.301 L 129.9,-936 L 129.881,-935.699 L 129.825,-935.403 L 129.731,-935.117 L 129.603,-934.844
 L 129.442,-934.589 L 129.25,-934.357 L 129.03,-934.151 L 128.786,-933.974 L 128.522,-933.828 L 128.242,-933.717
 L 127.95,-933.643 L 127.651,-933.605 z
M -127.651,-933.605 L -127.95,-933.643 L -128.242,-933.717 L -128.522,-933.828 L -128.786,-933.974 L -129.03,-934.151
 L -129.25,-934.357 L -129.442,-934.589 L -129.603,-934.844 L -129.731,-935.117 L -129.825,-935.403 L -129.881,-935.699
 L -129.9,-936 L -129.881,-936.301 L -129.825,-936.597 L -129.731,-936.883 L -129.603,-937.156 L -129.442,-937.411
 L -129.25,-937.643 L -129.03,-937.849 L -128.786,-938.026 L -128.522,-938.172 L -128.242,-938.283 L -127.95,-938.357
 L -127.651,-938.395 L -127.349,-938.395 L -127.05,-938.357 L -126.758,-938.283 L -126.478,-938.172 L -126.214,-938.026
 L -125.97,-937.849 L -125.75,-937.643 L -125.558,-937.411 L -125.397,-937.156 L -125.269,-936.883 L -125.175,-936.597
 L -125.119,-936.301 L -125.1,-936 L -125.119,-935.699 L -125.175,-935.403 L -125.269,-935.117 L -125.397,-934.844
 L -125.558,-934.589 L -125.75,-934.357 L -125.97,-934.151 L -126.214,-933.974 L -126.478,-933.828 L -126.758,-933.717
 L -127.05,-933.643 L -127.349,-933.605 z
M 130.937,-664.589 L 131.545,-664.745 L 132.129,-664.976 L 132.679,-665.278 L 133.187,-665.647 L 133.645,-666.077
 L 134.045,-666.561 L 134.382,-667.091 L 134.649,-667.659 L 134.843,-668.257 L 134.961,-668.873 L 135,-669.5
 L 135,-914.5 L 134.961,-915.127 L 134.843,-915.743 L 134.649,-916.341 L 134.382,-916.909 L 134.045,-917.439
 L 133.645,-917.923 L 133.187,-918.353 L 132.679,-918.722 L 132.129,-919.024 L 131.545,-919.255 L 130.937,-919.411
 L 130.314,-919.49 L -130.314,-919.49 L -130.937,-919.411 L -131.545,-919.255 L -132.129,-919.024 L -132.679,-918.722
 L -133.187,-918.353 L -133.645,-917.923 L -134.045,-917.439 L -134.382,-916.909 L -134.649,-916.341 L -134.843,-915.743
 L -134.9,-915.444 L -136.5,-915.444 L -136.5,-668.556 L -134.9,-668.556 L -134.843,-668.257 L -134.649,-667.659
 L -134.382,-667.091 L -134.045,-666.561 L -133.645,-666.077 L -133.187,-665.647 L -132.679,-665.278 L -132.129,-664.976
 L -131.545,-664.745 L -130.937,-664.589 L -130.314,-664.51 L 130.314,-664.51 z
M 127.387,-910.204 L 127.163,-910.232 L 126.944,-910.288 L 126.734,-910.371 L 126.536,-910.48 L 126.353,-910.613
 L 126.188,-910.768 L 126.044,-910.942 L 125.923,-911.133 L 125.826,-911.337 L 125.757,-911.552 L 125.714,-911.774
 L 125.7,-912 L 125.714,-912.226 L 125.757,-912.448 L 125.826,-912.663 L 125.923,-912.867 L 126.044,-913.058
 L 126.188,-913.232 L 126.353,-913.387 L 126.536,-913.52 L 126.734,-913.629 L 126.944,-913.712 L 127.163,-913.768
 L 127.387,-913.796 L 127.613,-913.796 L 127.837,-913.768 L 128.056,-913.712 L 128.266,-913.629 L 128.464,-913.52
 L 128.647,-913.387 L 128.812,-913.232 L 128.956,-913.058 L 129.077,-912.867 L 129.174,-912.663 L 129.243,-912.448
 L 129.286,-912.226 L 129.3,-912 L 129.286,-911.774 L 129.243,-911.552 L 129.174,-911.337 L 129.077,-911.133
 L 128.956,-910.942 L 128.812,-910.768 L 128.647,-910.613 L 128.464,-910.48 L 128.266,-910.371 L 128.056,-910.288
 L 127.837,-910.232 L 127.613,-910.204 z
M -127.613,-910.204 L -127.837,-910.232 L -128.056,-910.288 L -128.266,-910.371 L -128.464,-910.48 L -128.647,-910.613
 L -128.812,-910.768 L -128.956,-910.942 L -129.077,-911.133 L -129.174,-911.337 L -129.243,-911.552 L -129.286,-911.774
 L -129.3,-912 L -129.286,-912.226 L -129.243,-912.448 L -129.174,-912.663 L -129.077,-912.867 L -128.956,-913.058
 L -128.812,-913.232 L -128.647,-913.387 L -128.464,-913.52 L -128.266,-913.629 L -128.056,-913.712 L -127.837,-913.768
 L -127.613,-913.796 L -127.387,-913.796 L -127.163,-913.768 L -126.944,-913.712 L -126.734,-913.629 L -126.536,-913.52
 L -126.353,-913.387 L -126.188,-913.232 L -126.044,-913.058 L -125.923,-912.867 L -125.826,-912.663 L -125.757,-912.448
 L -125.714,-912.226 L -125.7,-912 L -125.714,-911.774 L -125.757,-911.552 L -125.826,-911.337 L -125.923,-911.133
 L -126.044,-910.942 L -126.188,-910.768 L -126.353,-910.613 L -126.536,-910.48 L -126.734,-910.371 L -126.944,-910.288
 L -127.163,-910.232 L -127.387,-910.204 z
M -127.613,-670.204 L -127.837,-670.232 L -128.056,-670.288 L -128.266,-670.371 L -128.464,-670.48 L -128.647,-670.613
 L -128.812,-670.768 L -128.956,-670.942 L -129.077,-671.133 L -129.174,-671.337 L -129.243,-671.552 L -129.286,-671.774
 L -129.3,-672 L -129.286,-672.226 L -129.243,-672.448 L -129.174,-672.663 L -129.077,-672.867 L -128.956,-673.058
 L -128.812,-673.232 L -128.647,-673.387 L -128.464,-673.52 L -128.266,-673.629 L -128.056,-673.712 L -127.837,-673.768
 L -127.613,-673.796 L -127.387,-673.796 L -127.163,-673.768 L -126.944,-673.712 L -126.734,-673.629 L -126.536,-673.52
 L -126.353,-673.387 L -126.188,-673.232 L -126.044,-673.058 L -125.923,-672.867 L -125.826,-672.663 L -125.757,-672.448
 L -125.714,-672.226 L -125.7,-672 L -125.714,-671.774 L -125.757,-671.552 L -125.826,-671.337 L -125.923,-671.133
 L -126.044,-670.942 L -126.188,-670.768 L -126.353,-670.613 L -126.536,-670.48 L -126.734,-670.371 L -126.944,-670.288
 L -127.163,-670.232 L -127.387,-670.204 z
M 127.387,-670.204 L 127.163,-670.232 L 126.944,-670.288 L 126.734,-670.371 L 126.536,-670.48 L 126.353,-670.613
 L 126.188,-670.768 L 126.044,-670.942 L 125.923,-671.133 L 125.826,-671.337 L 125.757,-671.552 L 125.714,-671.774
 L 125.7,-672 L 125.714,-672.226 L 125.757,-672.448 L 125.826,-672.663 L 125.923,-672.867 L 126.044,-673.058
 L 126.188,-673.232 L 126.353,-673.387 L 126.536,-673.52 L 126.734,-673.629 L 126.944,-673.712 L 127.163,-673.768
 L 127.387,-673.796 L 127.613,-673.796 L 127.837,-673.768 L 128.056,-673.712 L 128.266,-673.629 L 128.464,-673.52
 L 128.647,-673.387 L 128.812,-673.232 L 128.956,-673.058 L 129.077,-672.867 L 129.174,-672.663 L 129.243,-672.448
 L 129.286,-672.226 L 129.3,-672 L 129.286,-671.774 L 129.243,-671.552 L 129.174,-671.337 L 129.077,-671.133
 L 128.956,-670.942 L 128.812,-670.768 L 128.647,-670.613 L 128.464,-670.48 L 128.266,-670.371 L 128.056,-670.288
 L 127.837,-670.232 L 127.613,-670.204 z
" stroke="black" fill="lightgray" stroke-width="0.5"/>
</svg>
