<?xml version="1.0" standalone="no"?>
<!DOCTYPE svg PUBLIC "-//W3C//DTD SVG 1.1//EN" "http://www.w3.org/Graphics/SVG/1.1/DTD/svg11.dtd">
<svg width="257mm" height="249mm" viewBox="-129 -318 257 249" xmlns="http://www.w3.org/2000/svg" version="1.1">
<title>OpenSCAD Model</title>
<path d="
M 123.437,-198.089 L 124.045,-198.245 L 124.629,-198.476 L 125.179,-198.778 L 125.687,-199.147 L 126.145,-199.577
 L 126.545,-200.061 L 126.882,-200.591 L 127.149,-201.159 L 127.343,-201.757 L 127.461,-202.373 L 127.5,-203
 L 127.5,-313 L 127.461,-313.627 L 127.343,-314.243 L 127.149,-314.841 L 126.882,-315.409 L 126.545,-315.939
 L 126.145,-316.423 L 125.687,-316.853 L 125.179,-317.222 L 124.629,-317.524 L 124.045,-317.755 L 123.437,-317.911
 L 122.814,-317.99 L -122.814,-317.99 L -123.437,-317.911 L -124.045,-317.755 L -124.629,-317.524 L -125.179,-317.222
 L -125.687,-316.853 L -126,-316.559 L -126,-317.615 L -129,-317.615 L -129,-198.385 L -126,-198.385
 L -126,-199.441 L -125.687,-199.147 L -125.179,-198.778 L -124.629,-198.476 L -124.045,-198.245 L -123.437,-198.089
 L -122.814,-198.01 L 122.814,-198.01 z
M -120.151,-308.105 L -120.45,-308.143 L -120.742,-308.217 L -121.022,-308.328 L -121.286,-308.474 L -121.53,-308.651
 L -121.75,-308.857 L -121.942,-309.089 L -122.103,-309.344 L -122.231,-309.617 L -122.325,-309.903 L -122.381,-310.199
 L -122.4,-310.5 L -122.381,-310.801 L -122.325,-311.097 L -122.231,-311.383 L -122.103,-311.656 L -121.942,-311.911
 L -121.75,-312.143 L -121.53,-312.349 L -121.286,-312.526 L -121.022,-312.672 L -120.742,-312.783 L -120.45,-312.857
 L -120.151,-312.895 L -119.849,-312.895 L -119.55,-312.857 L -119.258,-312.783 L -118.978,-312.672 L -118.714,-312.526
 L -118.47,-312.349 L -118.25,-312.143 L -118.058,-311.911 L -117.897,-311.656 L -117.769,-311.383 L -117.675,-311.097
 L -117.619,-310.801 L -117.6,-310.5 L -117.619,-310.199 L -117.675,-309.903 L -117.769,-309.617 L -117.897,-309.344
 L -118.058,-309.089 L -118.25,-308.857 L -118.47,-308.651 L -118.714,-308.474 L -118.978,-308.328 L -119.258,-308.217
 L -119.55,-308.143 L -119.849,-308.105 z
M 119.849,-308.105 L 119.55,-308.143 L 119.258,-308.217 L 118.978,-308.328 L 118.714,-308.474 L 118.47,-308.651
 L 118.25,-308.857 L 118.058,-309.089 L 117.897,-309.344 L 117.769,-309.617 L 117.675,-309.903 L 117.619,-310.199
 L 117.6,-310.5 L 117.619,-310.801 L 117.675,-311.097 L 117.769,-311.383 L 117.897,-311.656 L 118.058,-311.911
 L 118.25,-312.143 L 118.47,-312.349 L 118.714,-312.526 L 118.978,-312.672 L 119.258,-312.783 L 119.55,-312.857
 L 119.849,-312.895 L 120.151,-312.895 L 120.45,-312.857 L 120.742,-312.783 L 121.022,-312.672 L 121.286,-312.526
 L 121.53,-312.349 L 121.75,-312.143 L 121.942,-311.911 L 122.103,-311.656 L 122.231,-311.383 L 122.325,-311.097
 L 122.381,-310.801 L 122.4,-310.5 L 122.381,-310.199 L 122.325,-309.903 L 122.231,-309.617 L 122.103,-309.344
 L 121.942,-309.089 L 121.75,-308.857 L 121.53,-308.651 L 121.286,-308.474 L 121.022,-308.328 L 120.742,-308.217
 L 120.45,-308.143 L 120.151,-308.105 z
M 119.849,-203.105 L 119.55,-203.143 L 119.258,-203.217 L 118.978,-203.328 L 118.714,-203.474 L 118.47,-203.651
 L 118.25,-203.857 L 118.058,-204.089 L 117.897,-204.344 L 117.769,-204.617 L 117.675,-204.903 L 117.619,-205.199
 L 117.6,-205.5 L 117.619,-205.801 L 117.675,-206.097 L 117.769,-206.383 L 117.897,-206.656 L 118.058,-206.911
 L 118.25,-207.143 L 118.47,-207.349 L 118.714,-207.526 L 118.978,-207.672 L 119.258,-207.783 L 119.55,-207.857
 L 119.849,-207.895 L 120.151,-207.895 L 120.45,-207.857 L 120.742,-207.783 L 121.022,-207.672 L 121.286,-207.526
 L 121.53,-207.349 L 121.75,-207.143 L 121.942,-206.911 L 122.103,-206.656 L 122.231,-206.383 L 122.325,-206.097
 L 122.381,-205.801 L 122.4,-205.5 L 122.381,-205.199 L 122.325,-204.903 L 122.231,-204.617 L 122.103,-204.344
 L 121.942,-204.089 L 121.75,-203.857 L 121.53,-203.651 L 121.286,-203.474 L 121.022,-203.328 L 120.742,-203.217
 L 120.45,-203.143 L 120.151,-203.105 z
M -120.151,-203.105 L -120.45,-203.143 L -120.742,-203.217 L -121.022,-203.328 L -121.286,-203.474 L -121.53,-203.651
 L -121.75,-203.857 L -121.942,-204.089 L -122.103,-204.344 L -122.231,-204.617 L -122.325,-204.903 L -122.381,-205.199
 L -122.4,-205.5 L -122.381,-205.801 L -122.325,-206.097 L -122.231,-206.383 L -122.103,-206.656 L -121.942,-206.911
 L -121.75,-207.143 L -121.53,-207.349 L -121.286,-207.526 L -121.022,-207.672 L -120.742,-207.783 L -120.45,-207.857
 L -120.151,-207.895 L -119.849,-207.895 L -119.55,-207.857 L -119.258,-207.783 L -118.978,-207.672 L -118.714,-207.526
 L -118.47,-207.349 L -118.25,-207.143 L -118.058,-206.911 L -117.897,-206.656 L -117.769,-206.383 L -117.675,-206.097
 L -117.619,-205.801 L -117.6,-205.5 L -117.619,-205.199 L -117.675,-204.903 L -117.769,-204.617 L -117.897,-204.344
 L -118.058,-204.089 L -118.25,-203.857 L -118.47,-203.651 L -118.714,-203.474 L -118.978,-203.328 L -119.258,-203.217
 L -119.55,-203.143 L -119.849,-203.105 z
M 123.437,-69.0886 L 124.045,-69.2447 L 124.629,-69.4759 L 125.179,-69.7784 L 125.687,-70.1474 L 126.145,-70.5773
 L 126.545,-71.0611 L 126.882,-71.5912 L 127.149,-72.1594 L 127.343,-72.7566 L 127.461,-73.3733 L 127.5,-74
 L 127.5,-184 L 127.461,-184.627 L 127.343,-185.243 L 127.149,-185.841 L 126.882,-186.409 L 126.545,-186.939
 L 126.145,-187.423 L 125.687,-187.853 L 125.179,-188.222 L 124.629,-188.524 L 124.045,-188.755 L 123.437,-188.911
 L 122.814,-188.99 L -122.814,-188.99 L -123.437,-188.911 L -124.045,-188.755 L -124.629,-188.524 L -125.179,-188.222
 L -125.687,-187.853 L -126.145,-187.423 L -126.545,-186.939 L -126.882,-186.409 L -127.149,-185.841 L -127.343,-185.243
 L -127.4,-184.944 L -129,-184.944 L -129,-73.0558 L -127.4,-73.0558 L -127.343,-72.7566 L -127.149,-72.1594
 L -126.882,-71.5912 L -126.545,-71.0611 L -126.145,-70.5773 L -125.687,-70.1474 L -125.179,-69.7784 L -124.629,-69.4759
 L -124.045,-69.2447 L -123.437,-69.0886 L -122.814,-69.0099 L 122.814,-69.0099 z
M -120.113,-179.704 L -120.337,-179.732 L -120.556,-179.788 L -120.766,-179.871 L -120.964,-179.98 L -121.147,-180.113
 L -121.312,-180.268 L -121.456,-180.442 L -121.577,-180.633 L -121.674,-180.837 L -121.743,-181.052 L -121.786,-181.274
 L -121.8,-181.5 L -121.786,-181.726 L -121.743,-181.948 L -121.674,-182.163 L -121.577,-182.367 L -121.456,-182.558
 L -121.312,-182.732 L -121.147,-182.887 L -120.964,-183.02 L -120.766,-183.129 L -120.556,-183.212 L -120.337,-183.268
 L -120.113,-183.296 L -119.887,-183.296 L -119.663,-183.268 L -119.444,-183.212 L -119.234,-183.129 L -119.036,-183.02
 L -118.853,-182.887 L -118.688,-182.732 L -118.544,-182.558 L -118.423,-182.367 L -118.326,-182.163 L -118.257,-181.948
 L -118.214,-181.726 L -118.2,-181.5 L -118.214,-181.274 L -118.257,-181.052 L -118.326,-180.837 L -118.423,-180.633
 L -118.544,-180.442 L -118.688,-180.268 L -118.853,-180.113 L -119.036,-179.98 L -119.234,-179.871 L -119.444,-179.788
 L -119.663,-179.732 L -119.887,-179.704 z
M 119.887,-179.704 L 119.663,-179.732 L 119.444,-179.788 L 119.234,-179.871 L 119.036,-179.98 L 118.853,-180.113
 L 118.688,-180.268 L 118.544,-180.442 L 118.423,-180.633 L 118.326,-180.837 L 118.257,-181.052 L 118.214,-181.274
 L 118.2,-181.5 L 118.214,-181.726 L 118.257,-181.948 L 118.326,-182.163 L 118.423,-182.367 L 118.544,-182.558
 L 118.688,-182.732 L 118.853,-182.887 L 119.036,-183.02 L 119.234,-183.129 L 119.444,-183.212 L 119.663,-183.268
 L 119.887,-183.296 L 120.113,-183.296 L 120.337,-183.268 L 120.556,-183.212 L 120.766,-183.129 L 120.964,-183.02
 L 121.147,-182.887 L 121.312,-182.732 L 121.456,-182.558 L 121.577,-182.367 L 121.674,-182.163 L 121.743,-181.948
 L 121.786,-181.726 L 121.8,-181.5 L 121.786,-181.274 L 121.743,-181.052 L 121.674,-180.837 L 121.577,-180.633
 L 121.456,-180.442 L 121.312,-180.268 L 121.147,-180.113 L 120.964,-179.98 L 120.766,-179.871 L 120.556,-179.788
 L 120.337,-179.732 L 120.113,-179.704 z
M 119.887,-74.7036 L 119.663,-74.7319 L 119.444,-74.7881 L 119.234,-74.8713 L 119.036,-74.9802 L 118.853,-75.1131
 L 118.688,-75.2678 L 118.544,-75.442 L 118.423,-75.6328 L 118.326,-75.8374 L 118.257,-76.0524 L 118.214,-76.2744
 L 118.2,-76.5 L 118.214,-76.7256 L 118.257,-76.9476 L 118.326,-77.1626 L 118.423,-77.3672 L 118.544,-77.558
 L 118.688,-77.7322 L 118.853,-77.8869 L 119.036,-78.0198 L 119.234,-78.1287 L 119.444,-78.2119 L 119.663,-78.2681
 L 119.887,-78.2964 L 120.113,-78.2964 L 120.337,-78.2681 L 120.556,-78.2119 L 120.766,-78.1287 L 120.964,-78.0198
 L 121.147,-77.8869 L 121.312,-77.7322 L 121.456,-77.558 L 121.577,-77.3672 L 121.674,-77.1626 L 121.743,-76.9476
 L 121.786,-76.7256 L 121.8,-76.5 L 121.786,-76.2744 L 121.743,-76.0524 L 121.674,-75.8374 L 121.577,-75.6328
 L 121.456,-75.442 L 121.312,-75.2678 L 121.147,-75.1131 L 120.964,-74.9802 L 120.766,-74.8713 L 120.556,-74.7881
 L 120.337,-74.7319 L 120.113,-74.7036 z
M -120.113,-74.7036 L -120.337,-74.7319 L -120.556,-74.7881 L -120.766,-74.8713 L -120.964,-74.9802 L -121.147,-75.1131
 L -121.312,-75.2678 L -121.456,-75.442 L -121.577,-75.6328 L -121.674,-75.8374 L -121.743,-76.0524 L -121.786,-76.2744
 L -121.8,-76.5 L -121.786,-76.7256 L -121.743,-76.9476 L -121.674,-77.1626 L -121.577,-77.3672 L -121.456,-77.558
 L -121.312,-77.7322 L -121.147,-77.8869 L -120.964,-78.0198 L -120.766,-78.1287 L -120.556,-78.2119 L -120.337,-78.2681
 L -120.113,-78.2964 L -119.887,-78.2964 L -119.663,-78.2681 L -119.444,-78.2119 L -119.234,-78.1287 L -119.036,-78.0198
 L -118.853,-77.8869 L -118.688,-77.7322 L -118.544,-77.558 L -118.423,-77.3672 L -118.326,-77.1626 L -118.257,-76.9476
 L -118.214,-76.7256 L -118.2,-76.5 L -118.214,-76.2744 L -118.257,-76.0524 L -118.326,-75.8374 L -118.423,-75.6328
 L -118.544,-75.442 L -118.688,-75.2678 L -118.853,-75.1131 L -119.036,-74.9802 L -119.234,-74.8713 L -119.444,-74.7881
 L -119.663,-74.7319 L -119.887,-74.7036 z
" stroke="black" fill="lightgray" stroke-width="0.5"/>
</svg>
