<?xml version="1.0" standalone="no"?>
<!DOCTYPE svg PUBLIC "-//W3C//DTD SVG 1.1//EN" "http://www.w3.org/Graphics/SVG/1.1/DTD/svg11.dtd">
<svg width="167mm" height="244mm" viewBox="-84 -374 167 244" xmlns="http://www.w3.org/2000/svg" version="1.1">
<title>OpenSCAD Model</title>
<path d="
M -81,-299.941 L -80.6871,-299.647 L -80.1791,-299.278 L -79.6289,-298.976 L -79.0451,-298.745 L -78.4369,-298.589
 L -77.8139,-298.51 L 77.8139,-298.51 L 78.4369,-298.589 L 79.0451,-298.745 L 79.6289,-298.976 L 80.1791,-299.278
 L 80.6871,-299.647 L 81.1448,-300.077 L 81.5451,-300.561 L 81.8815,-301.091 L 82.1489,-301.659 L 82.3429,-302.257
 L 82.4606,-302.873 L 82.5,-303.5 L 82.5,-368.5 L 82.4606,-369.127 L 82.3429,-369.743 L 82.1489,-370.341
 L 81.8815,-370.909 L 81.5451,-371.439 L 81.1448,-371.923 L 80.6871,-372.353 L 80.1791,-372.722 L 79.6289,-373.024
 L 79.0451,-373.255 L 78.4369,-373.411 L 77.8139,-373.49 L -77.8139,-373.49 L -78.4369,-373.411 L -79.0451,-373.255
 L -79.6289,-373.024 L -80.1791,-372.722 L -80.6871,-372.353 L -81,-372.059 L -81,-373.49 L -84,-373.49
 L -84,-298.51 L -81,-298.51 z
M -77.2432,-300.135 L -77.7256,-300.196 L -78.1967,-300.317 L -78.6489,-300.496 L -79.0751,-300.73 L -79.4685,-301.016
 L -79.823,-301.349 L -80.133,-301.724 L -80.3936,-302.134 L -80.6007,-302.574 L -80.751,-303.037 L -80.8421,-303.515
 L -80.8726,-304 L -80.8726,-368 L -80.8421,-368.485 L -80.751,-368.963 L -80.6007,-369.426 L -80.3936,-369.866
 L -80.133,-370.276 L -79.823,-370.651 L -79.4685,-370.984 L -79.0751,-371.27 L -78.6489,-371.504 L -78.1967,-371.683
 L -77.7256,-371.804 L -77.2432,-371.865 L 77.2432,-371.865 L 77.7256,-371.804 L 78.1967,-371.683 L 78.6489,-371.504
 L 79.0751,-371.27 L 79.4685,-370.984 L 79.823,-370.651 L 80.133,-370.276 L 80.3936,-369.866 L 80.6007,-369.426
 L 80.751,-368.963 L 80.8421,-368.485 L 80.8726,-368 L 80.8726,-304 L 80.8421,-303.515 L 80.751,-303.037
 L 80.6007,-302.574 L 80.3936,-302.134 L 80.133,-301.724 L 79.823,-301.349 L 79.4685,-301.016 L 79.0751,-300.73
 L 78.6489,-300.496 L 78.1967,-300.317 L 77.7256,-300.196 L 77.2432,-300.135 z
M 78.4369,-214.589 L 79.0451,-214.745 L 79.6289,-214.976 L 80.1791,-215.278 L 80.6871,-215.647 L 81.1448,-216.077
 L 81.5451,-216.561 L 81.8815,-217.091 L 82.1489,-217.659 L 82.3429,-218.257 L 82.4606,-218.873 L 82.5,-219.5
 L 82.5,-284.5 L 82.4606,-285.127 L 82.3429,-285.743 L 82.1489,-286.341 L 81.8815,-286.909 L 81.5451,-287.439
 L 81.1448,-287.923 L 80.6871,-288.353 L 80.1791,-288.722 L 79.6289,-289.024 L 79.0451,-289.255 L 78.4369,-289.411
 L 77.8139,-289.49 L -77.8139,-289.49 L -78.4369,-289.411 L -79.0451,-289.255 L -79.6289,-289.024 L -80.1791,-288.722
 L -80.6871,-288.353 L -81,-288.059 L -81,-289.115 L -84,-289.115 L -84,-214.885 L -81,-214.885
 L -81,-215.941 L -80.6871,-215.647 L -80.1791,-215.278 L -79.6289,-214.976 L -79.0451,-214.745 L -78.4369,-214.589
 L -77.8139,-214.51 L 77.8139,-214.51 z
M 78.4369,-130.589 L 79.0451,-130.745 L 79.6289,-130.976 L 80.1791,-131.278 L 80.6871,-131.647 L 81.1448,-132.077
 L 81.5451,-132.561 L 81.8815,-133.091 L 82.1489,-133.659 L 82.3429,-134.257 L 82.4606,-134.873 L 82.5,-135.5
 L 82.5,-200.5 L 82.4606,-201.127 L 82.3429,-201.743 L 82.1489,-202.341 L 81.8815,-202.909 L 81.5451,-203.439
 L 81.1448,-203.923 L 80.6871,-204.353 L 80.1791,-204.722 L 79.6289,-205.024 L 79.0451,-205.255 L 78.4369,-205.411
 L 77.8139,-205.49 L -77.8139,-205.49 L -78.4369,-205.411 L -79.0451,-205.255 L -79.6289,-205.024 L -80.1791,-204.722
 L -80.6871,-204.353 L -81.1448,-203.923 L -81.5451,-203.439 L -81.8815,-202.909 L -82.1489,-202.341 L -82.3429,-201.743
 L -82.4,-201.444 L -84,-201.444 L -84,-134.556 L -82.4,-134.556 L -82.3429,-134.257 L -82.1489,-133.659
 L -81.8815,-133.091 L -81.5451,-132.561 L -81.1448,-132.077 L -80.6871,-131.647 L -80.1791,-131.278 L -79.6289,-130.976
 L -79.0451,-130.745 L -78.4369,-130.589 L -77.8139,-130.51 L 77.8139,-130.51 z
M 74.887,-196.204 L 74.6627,-196.232 L 74.4438,-196.288 L 74.2336,-196.371 L 74.0355,-196.48 L 73.8526,-196.613
 L 73.6879,-196.768 L 73.5438,-196.942 L 73.4226,-197.133 L 73.3264,-197.337 L 73.2565,-197.552 L 73.2142,-197.774
 L 73.2,-198 L 73.2142,-198.226 L 73.2565,-198.448 L 73.3264,-198.663 L 73.4226,-198.867 L 73.5438,-199.058
 L 73.6879,-199.232 L 73.8526,-199.387 L 74.0355,-199.52 L 74.2336,-199.629 L 74.4438,-199.712 L 74.6627,-199.768
 L 74.887,-199.796 L 75.113,-199.796 L 75.3373,-199.768 L 75.5562,-199.712 L 75.7664,-199.629 L 75.9645,-199.52
 L 76.1474,-199.387 L 76.3121,-199.232 L 76.4562,-199.058 L 76.5773,-198.867 L 76.6736,-198.663 L 76.7434,-198.448
 L 76.7858,-198.226 L 76.8,-198 L 76.7858,-197.774 L 76.7434,-197.552 L 76.6736,-197.337 L 76.5773,-197.133
 L 76.4562,-196.942 L 76.3121,-196.768 L 76.1474,-196.613 L 75.9645,-196.48 L 75.7664,-196.371 L 75.5562,-196.288
 L 75.3373,-196.232 L 75.113,-196.204 z
M -75.113,-196.204 L -75.3373,-196.232 L -75.5562,-196.288 L -75.7664,-196.371 L -75.9645,-196.48 L -76.1474,-196.613
 L -76.3121,-196.768 L -76.4562,-196.942 L -76.5773,-197.133 L -76.6736,-197.337 L -76.7434,-197.552 L -76.7858,-197.774
 L -76.8,-198 L -76.7858,-198.226 L -76.7434,-198.448 L -76.6736,-198.663 L -76.5773,-198.867 L -76.4562,-199.058
 L -76.3121,-199.232 L -76.1474,-199.387 L -75.9645,-199.52 L -75.7664,-199.629 L -75.5562,-199.712 L -75.3373,-199.768
 L -75.113,-199.796 L -74.887,-199.796 L -74.6627,-199.768 L -74.4438,-199.712 L -74.2336,-199.629 L -74.0355,-199.52
 L -73.8526,-199.387 L -73.6879,-199.232 L -73.5438,-199.058 L -73.4226,-198.867 L -73.3264,-198.663 L -73.2565,-198.448
 L -73.2142,-198.226 L -73.2,-198 L -73.2142,-197.774 L -73.2565,-197.552 L -73.3264,-197.337 L -73.4226,-197.133
 L -73.5438,-196.942 L -73.6879,-196.768 L -73.8526,-196.613 L -74.0355,-196.48 L -74.2336,-196.371 L -74.4438,-196.288
 L -74.6627,-196.232 L -74.887,-196.204 z
M 74.887,-136.204 L 74.6627,-136.232 L 74.4438,-136.288 L 74.2336,-136.371 L 74.0355,-136.48 L 73.8526,-136.613
 L 73.6879,-136.768 L 73.5438,-136.942 L 73.4226,-137.133 L 73.3264,-137.337 L 73.2565,-137.552 L 73.2142,-137.774
 L 73.2,-138 L 73.2142,-138.226 L 73.2565,-138.448 L 73.3264,-138.663 L 73.4226,-138.867 L 73.5438,-139.058
 L 73.6879,-139.232 L 73.8526,-139.387 L 74.0355,-139.52 L 74.2336,-139.629 L 74.4438,-139.712 L 74.6627,-139.768
 L 74.887,-139.796 L 75.113,-139.796 L 75.3373,-139.768 L 75.5562,-139.712 L 75.7664,-139.629 L 75.9645,-139.52
 L 76.1474,-139.387 L 76.3121,-139.232 L 76.4562,-139.058 L 76.5773,-138.867 L 76.6736,-138.663 L 76.7434,-138.448
 L 76.7858,-138.226 L 76.8,-138 L 76.7858,-137.774 L 76.7434,-137.552 L 76.6736,-137.337 L 76.5773,-137.133
 L 76.4562,-136.942 L 76.3121,-136.768 L 76.1474,-136.613 L 75.9645,-136.48 L 75.7664,-136.371 L 75.5562,-136.288
 L 75.3373,-136.232 L 75.113,-136.204 z
M -75.113,-136.204 L -75.3373,-136.232 L -75.5562,-136.288 L -75.7664,-136.371 L -75.9645,-136.48 L -76.1474,-136.613
 L -76.3121,-136.768 L -76.4562,-136.942 L -76.5773,-137.133 L -76.6736,-137.337 L -76.7434,-137.552 L -76.7858,-137.774
 L -76.8,-138 L -76.7858,-138.226 L -76.7434,-138.448 L -76.6736,-138.663 L -76.5773,-138.867 L -76.4562,-139.058
 L -76.3121,-139.232 L -76.1474,-139.387 L -75.9645,-139.52 L -75.7664,-139.629 L -75.5562,-139.712 L -75.3373,-139.768
 L -75.113,-139.796 L -74.887,-139.796 L -74.6627,-139.768 L -74.4438,-139.712 L -74.2336,-139.629 L -74.0355,-139.52
 L -73.8526,-139.387 L -73.6879,-139.232 L -73.5438,-139.058 L -73.4226,-138.867 L -73.3264,-138.663 L -73.2565,-138.448
 L -73.2142,-138.226 L -73.2,-138 L -73.2142,-137.774 L -73.2565,-137.552 L -73.3264,-137.337 L -73.4226,-137.133
 L -73.5438,-136.942 L -73.6879,-136.768 L -73.8526,-136.613 L -74.0355,-136.48 L -74.2336,-136.371 L -74.4438,-136.288
 L -74.6627,-136.232 L -74.887,-136.204 z
" stroke="black" fill="lightgray" stroke-width="0.5"/>
</svg>
