  0
SECTION
  2
BLOCKS
  0
ENDSEC
  0
SECTION
  2
ENTITIES
  0
LINE
  8
0
 10
130.937
 20
64.5886
 11
131.545
 21
64.7447
  0
LINE
  8
0
 10
131.545
 20
64.7447
 11
132.129
 21
64.9759
  0
LINE
  8
0
 10
132.129
 20
64.9759
 11
132.679
 21
65.2784
  0
LINE
  8
0
 10
132.679
 20
65.2784
 11
133.187
 21
65.6474
  0
LINE
  8
0
 10
133.187
 20
65.6474
 11
133.645
 21
66.0773
  0
LINE
  8
0
 10
133.645
 20
66.0773
 11
134.045
 21
66.5611
  0
LINE
  8
0
 10
134.045
 20
66.5611
 11
134.382
 21
67.0912
  0
LINE
  8
0
 10
134.382
 20
67.0912
 11
134.649
 21
67.6594
  0
LINE
  8
0
 10
134.649
 20
67.6594
 11
134.843
 21
68.2566
  0
LINE
  8
0
 10
134.843
 20
68.2566
 11
134.961
 21
68.8733
  0
LINE
  8
0
 10
134.961
 20
68.8733
 11
135
 21
69.5
  0
LINE
  8
0
 10
135
 20
69.5
 11
135
 21
74.5
  0
LINE
  8
0
 10
135
 20
74.5
 11
134.961
 21
75.1267
  0
LINE
  8
0
 10
134.961
 20
75.1267
 11
134.843
 21
75.7434
  0
LINE
  8
0
 10
134.843
 20
75.7434
 11
134.649
 21
76.3406
  0
LINE
  8
0
 10
134.649
 20
76.3406
 11
134.382
 21
76.9088
  0
LINE
  8
0
 10
134.382
 20
76.9088
 11
134.045
 21
77.4389
  0
LINE
  8
0
 10
134.045
 20
77.4389
 11
133.645
 21
77.9227
  0
LINE
  8
0
 10
133.645
 20
77.9227
 11
133.187
 21
78.3526
  0
LINE
  8
0
 10
133.187
 20
78.3526
 11
132.679
 21
78.7216
  0
LINE
  8
0
 10
132.679
 20
78.7216
 11
132.129
 21
79.0241
  0
LINE
  8
0
 10
132.129
 20
79.0241
 11
131.545
 21
79.2553
  0
LINE
  8
0
 10
131.545
 20
79.2553
 11
130.937
 21
79.4114
  0
LINE
  8
0
 10
130.937
 20
79.4114
 11
130.314
 21
79.4901
  0
LINE
  8
0
 10
130.314
 20
79.4901
 11
-130.314
 21
79.4901
  0
LINE
  8
0
 10
-130.314
 20
79.4901
 11
-130.937
 21
79.4114
  0
LINE
  8
0
 10
-130.937
 20
79.4114
 11
-131.545
 21
79.2553
  0
LINE
  8
0
 10
-131.545
 20
79.2553
 11
-132.129
 21
79.0241
  0
LINE
  8
0
 10
-132.129
 20
79.0241
 11
-132.679
 21
78.7216
  0
LINE
  8
0
 10
-132.679
 20
78.7216
 11
-133.187
 21
78.3526
  0
LINE
  8
0
 10
-133.187
 20
78.3526
 11
-133.645
 21
77.9227
  0
LINE
  8
0
 10
-133.645
 20
77.9227
 11
-134.045
 21
77.4389
  0
LINE
  8
0
 10
-134.045
 20
77.4389
 11
-134.382
 21
76.9088
  0
LINE
  8
0
 10
-134.382
 20
76.9088
 11
-134.649
 21
76.3406
  0
LINE
  8
0
 10
-134.649
 20
76.3406
 11
-134.843
 21
75.7434
  0
LINE
  8
0
 10
-134.843
 20
75.7434
 11
-134.961
 21
75.1267
  0
LINE
  8
0
 10
-134.961
 20
75.1267
 11
-135
 21
74.5
  0
LINE
  8
0
 10
-135
 20
74.5
 11
-135
 21
69.5
  0
LINE
  8
0
 10
-135
 20
69.5
 11
-134.961
 21
68.8733
  0
LINE
  8
0
 10
-134.961
 20
68.8733
 11
-134.843
 21
68.2566
  0
LINE
  8
0
 10
-134.843
 20
68.2566
 11
-134.649
 21
67.6594
  0
LINE
  8
0
 10
-134.649
 20
67.6594
 11
-134.382
 21
67.0912
  0
LINE
  8
0
 10
-134.382
 20
67.0912
 11
-134.045
 21
66.5611
  0
LINE
  8
0
 10
-134.045
 20
66.5611
 11
-133.645
 21
66.0773
  0
LINE
  8
0
 10
-133.645
 20
66.0773
 11
-133.187
 21
65.6474
  0
LINE
  8
0
 10
-133.187
 20
65.6474
 11
-132.679
 21
65.2784
  0
LINE
  8
0
 10
-132.679
 20
65.2784
 11
-132.129
 21
64.9759
  0
LINE
  8
0
 10
-132.129
 20
64.9759
 11
-131.545
 21
64.7447
  0
LINE
  8
0
 10
-131.545
 20
64.7447
 11
-130.937
 21
64.5886
  0
LINE
  8
0
 10
-130.937
 20
64.5886
 11
-130.314
 21
64.5099
  0
LINE
  8
0
 10
-130.314
 20
64.5099
 11
130.314
 21
64.5099
  0
LINE
  8
0
 10
130.314
 20
64.5099
 11
130.937
 21
64.5886
  0
LINE
  8
0
 10
-130.037
 20
65.1806
 11
-130.608
 21
65.2527
  0
LINE
  8
0
 10
-130.608
 20
65.2527
 11
-131.165
 21
65.3956
  0
LINE
  8
0
 10
-131.165
 20
65.3956
 11
-131.699
 21
65.6073
  0
LINE
  8
0
 10
-131.699
 20
65.6073
 11
-132.203
 21
65.8843
  0
LINE
  8
0
 10
-132.203
 20
65.8843
 11
-132.668
 21
66.2223
  0
LINE
  8
0
 10
-132.668
 20
66.2223
 11
-133.088
 21
66.6158
  0
LINE
  8
0
 10
-133.088
 20
66.6158
 11
-133.454
 21
67.0589
  0
LINE
  8
0
 10
-133.454
 20
67.0589
 11
-133.762
 21
67.5443
  0
LINE
  8
0
 10
-133.762
 20
67.5443
 11
-134.007
 21
68.0646
  0
LINE
  8
0
 10
-134.007
 20
68.0646
 11
-134.185
 21
68.6114
  0
LINE
  8
0
 10
-134.185
 20
68.6114
 11
-134.292
 21
69.1762
  0
LINE
  8
0
 10
-134.292
 20
69.1762
 11
-134.328
 21
69.75
  0
LINE
  8
0
 10
-134.328
 20
69.75
 11
-134.328
 21
74.25
  0
LINE
  8
0
 10
-134.328
 20
74.25
 11
-134.292
 21
74.8238
  0
LINE
  8
0
 10
-134.292
 20
74.8238
 11
-134.185
 21
75.3886
  0
LINE
  8
0
 10
-134.185
 20
75.3886
 11
-134.007
 21
75.9354
  0
LINE
  8
0
 10
-134.007
 20
75.9354
 11
-133.762
 21
76.4557
  0
LINE
  8
0
 10
-133.762
 20
76.4557
 11
-133.454
 21
76.9411
  0
LINE
  8
0
 10
-133.454
 20
76.9411
 11
-133.088
 21
77.3842
  0
LINE
  8
0
 10
-133.088
 20
77.3842
 11
-132.668
 21
77.7777
  0
LINE
  8
0
 10
-132.668
 20
77.7777
 11
-132.203
 21
78.1157
  0
LINE
  8
0
 10
-132.203
 20
78.1157
 11
-131.699
 21
78.3927
  0
LINE
  8
0
 10
-131.699
 20
78.3927
 11
-131.165
 21
78.6044
  0
LINE
  8
0
 10
-131.165
 20
78.6044
 11
-130.608
 21
78.7473
  0
LINE
  8
0
 10
-130.608
 20
78.7473
 11
-130.037
 21
78.8194
  0
LINE
  8
0
 10
-130.037
 20
78.8194
 11
130.037
 21
78.8194
  0
LINE
  8
0
 10
130.037
 20
78.8194
 11
130.608
 21
78.7473
  0
LINE
  8
0
 10
130.608
 20
78.7473
 11
131.165
 21
78.6044
  0
LINE
  8
0
 10
131.165
 20
78.6044
 11
131.699
 21
78.3927
  0
LINE
  8
0
 10
131.699
 20
78.3927
 11
132.203
 21
78.1157
  0
LINE
  8
0
 10
132.203
 20
78.1157
 11
132.668
 21
77.7777
  0
LINE
  8
0
 10
132.668
 20
77.7777
 11
133.088
 21
77.3842
  0
LINE
  8
0
 10
133.088
 20
77.3842
 11
133.454
 21
76.9411
  0
LINE
  8
0
 10
133.454
 20
76.9411
 11
133.762
 21
76.4557
  0
LINE
  8
0
 10
133.762
 20
76.4557
 11
134.007
 21
75.9354
  0
LINE
  8
0
 10
134.007
 20
75.9354
 11
134.185
 21
75.3886
  0
LINE
  8
0
 10
134.185
 20
75.3886
 11
134.292
 21
74.8238
  0
LINE
  8
0
 10
134.292
 20
74.8238
 11
134.328
 21
74.25
  0
LINE
  8
0
 10
134.328
 20
74.25
 11
134.328
 21
69.75
  0
LINE
  8
0
 10
134.328
 20
69.75
 11
134.292
 21
69.1762
  0
LINE
  8
0
 10
134.292
 20
69.1762
 11
134.185
 21
68.6114
  0
LINE
  8
0
 10
134.185
 20
68.6114
 11
134.007
 21
68.0646
  0
LINE
  8
0
 10
134.007
 20
68.0646
 11
133.762
 21
67.5443
  0
LINE
  8
0
 10
133.762
 20
67.5443
 11
133.454
 21
67.0589
  0
LINE
  8
0
 10
133.454
 20
67.0589
 11
133.088
 21
66.6158
  0
LINE
  8
0
 10
133.088
 20
66.6158
 11
132.668
 21
66.2223
  0
LINE
  8
0
 10
132.668
 20
66.2223
 11
132.203
 21
65.8843
  0
LINE
  8
0
 10
132.203
 20
65.8843
 11
131.699
 21
65.6073
  0
LINE
  8
0
 10
131.699
 20
65.6073
 11
131.165
 21
65.3956
  0
LINE
  8
0
 10
131.165
 20
65.3956
 11
130.608
 21
65.2527
  0
LINE
  8
0
 10
130.608
 20
65.2527
 11
130.037
 21
65.1806
  0
LINE
  8
0
 10
130.037
 20
65.1806
 11
-130.037
 21
65.1806
  0
LINE
  8
0
 10
130.937
 20
40.5886
 11
131.545
 21
40.7447
  0
LINE
  8
0
 10
131.545
 20
40.7447
 11
132.129
 21
40.9759
  0
LINE
  8
0
 10
132.129
 20
40.9759
 11
132.679
 21
41.2784
  0
LINE
  8
0
 10
132.679
 20
41.2784
 11
133.187
 21
41.6474
  0
LINE
  8
0
 10
133.187
 20
41.6474
 11
133.645
 21
42.0773
  0
LINE
  8
0
 10
133.645
 20
42.0773
 11
134.045
 21
42.5611
  0
LINE
  8
0
 10
134.045
 20
42.5611
 11
134.382
 21
43.0912
  0
LINE
  8
0
 10
134.382
 20
43.0912
 11
134.649
 21
43.6594
  0
LINE
  8
0
 10
134.649
 20
43.6594
 11
134.843
 21
44.2566
  0
LINE
  8
0
 10
134.843
 20
44.2566
 11
134.961
 21
44.8733
  0
LINE
  8
0
 10
134.961
 20
44.8733
 11
135
 21
45.5
  0
LINE
  8
0
 10
135
 20
45.5
 11
135
 21
50.5
  0
LINE
  8
0
 10
135
 20
50.5
 11
134.961
 21
51.1267
  0
LINE
  8
0
 10
134.961
 20
51.1267
 11
134.843
 21
51.7434
  0
LINE
  8
0
 10
134.843
 20
51.7434
 11
134.649
 21
52.3406
  0
LINE
  8
0
 10
134.649
 20
52.3406
 11
134.382
 21
52.9088
  0
LINE
  8
0
 10
134.382
 20
52.9088
 11
134.045
 21
53.4389
  0
LINE
  8
0
 10
134.045
 20
53.4389
 11
133.645
 21
53.9227
  0
LINE
  8
0
 10
133.645
 20
53.9227
 11
133.187
 21
54.3526
  0
LINE
  8
0
 10
133.187
 20
54.3526
 11
132.679
 21
54.7216
  0
LINE
  8
0
 10
132.679
 20
54.7216
 11
132.129
 21
55.0241
  0
LINE
  8
0
 10
132.129
 20
55.0241
 11
131.545
 21
55.2553
  0
LINE
  8
0
 10
131.545
 20
55.2553
 11
130.937
 21
55.4114
  0
LINE
  8
0
 10
130.937
 20
55.4114
 11
130.314
 21
55.4901
  0
LINE
  8
0
 10
130.314
 20
55.4901
 11
-130.314
 21
55.4901
  0
LINE
  8
0
 10
-130.314
 20
55.4901
 11
-130.937
 21
55.4114
  0
LINE
  8
0
 10
-130.937
 20
55.4114
 11
-131.545
 21
55.2553
  0
LINE
  8
0
 10
-131.545
 20
55.2553
 11
-132.129
 21
55.0241
  0
LINE
  8
0
 10
-132.129
 20
55.0241
 11
-132.679
 21
54.7216
  0
LINE
  8
0
 10
-132.679
 20
54.7216
 11
-133.187
 21
54.3526
  0
LINE
  8
0
 10
-133.187
 20
54.3526
 11
-133.645
 21
53.9227
  0
LINE
  8
0
 10
-133.645
 20
53.9227
 11
-134.045
 21
53.4389
  0
LINE
  8
0
 10
-134.045
 20
53.4389
 11
-134.382
 21
52.9088
  0
LINE
  8
0
 10
-134.382
 20
52.9088
 11
-134.649
 21
52.3406
  0
LINE
  8
0
 10
-134.649
 20
52.3406
 11
-134.843
 21
51.7434
  0
LINE
  8
0
 10
-134.843
 20
51.7434
 11
-134.961
 21
51.1267
  0
LINE
  8
0
 10
-134.961
 20
51.1267
 11
-135
 21
50.5
  0
LINE
  8
0
 10
-135
 20
50.5
 11
-135
 21
45.5
  0
LINE
  8
0
 10
-135
 20
45.5
 11
-134.961
 21
44.8733
  0
LINE
  8
0
 10
-134.961
 20
44.8733
 11
-134.843
 21
44.2566
  0
LINE
  8
0
 10
-134.843
 20
44.2566
 11
-134.649
 21
43.6594
  0
LINE
  8
0
 10
-134.649
 20
43.6594
 11
-134.382
 21
43.0912
  0
LINE
  8
0
 10
-134.382
 20
43.0912
 11
-134.045
 21
42.5611
  0
LINE
  8
0
 10
-134.045
 20
42.5611
 11
-133.645
 21
42.0773
  0
LINE
  8
0
 10
-133.645
 20
42.0773
 11
-133.187
 21
41.6474
  0
LINE
  8
0
 10
-133.187
 20
41.6474
 11
-132.679
 21
41.2784
  0
LINE
  8
0
 10
-132.679
 20
41.2784
 11
-132.129
 21
40.9759
  0
LINE
  8
0
 10
-132.129
 20
40.9759
 11
-131.545
 21
40.7447
  0
LINE
  8
0
 10
-131.545
 20
40.7447
 11
-130.937
 21
40.5886
  0
LINE
  8
0
 10
-130.937
 20
40.5886
 11
-130.314
 21
40.5099
  0
LINE
  8
0
 10
-130.314
 20
40.5099
 11
130.314
 21
40.5099
  0
LINE
  8
0
 10
130.314
 20
40.5099
 11
130.937
 21
40.5886
  0
LINE
  8
0
 10
-129.882
 20
43.6445
 11
-130.145
 21
43.6777
  0
LINE
  8
0
 10
-130.145
 20
43.6777
 11
-130.402
 21
43.7436
  0
LINE
  8
0
 10
-130.402
 20
43.7436
 11
-130.648
 21
43.8412
  0
LINE
  8
0
 10
-130.648
 20
43.8412
 11
-130.88
 21
43.9688
  0
LINE
  8
0
 10
-130.88
 20
43.9688
 11
-131.095
 21
44.1245
  0
LINE
  8
0
 10
-131.095
 20
44.1245
 11
-131.288
 21
44.3059
  0
LINE
  8
0
 10
-131.288
 20
44.3059
 11
-131.457
 21
44.51
  0
LINE
  8
0
 10
-131.457
 20
44.51
 11
-131.599
 21
44.7337
  0
LINE
  8
0
 10
-131.599
 20
44.7337
 11
-131.711
 21
44.9734
  0
LINE
  8
0
 10
-131.711
 20
44.9734
 11
-131.793
 21
45.2254
  0
LINE
  8
0
 10
-131.793
 20
45.2254
 11
-131.843
 21
45.4856
  0
LINE
  8
0
 10
-131.843
 20
45.4856
 11
-131.86
 21
45.75
  0
LINE
  8
0
 10
-131.86
 20
45.75
 11
-131.86
 21
50.25
  0
LINE
  8
0
 10
-131.86
 20
50.25
 11
-131.843
 21
50.5144
  0
LINE
  8
0
 10
-131.843
 20
50.5144
 11
-131.793
 21
50.7746
  0
LINE
  8
0
 10
-131.793
 20
50.7746
 11
-131.711
 21
51.0266
  0
LINE
  8
0
 10
-131.711
 20
51.0266
 11
-131.599
 21
51.2663
  0
LINE
  8
0
 10
-131.599
 20
51.2663
 11
-131.457
 21
51.49
  0
LINE
  8
0
 10
-131.457
 20
51.49
 11
-131.288
 21
51.6941
  0
LINE
  8
0
 10
-131.288
 20
51.6941
 11
-131.095
 21
51.8755
  0
LINE
  8
0
 10
-131.095
 20
51.8755
 11
-130.88
 21
52.0312
  0
LINE
  8
0
 10
-130.88
 20
52.0312
 11
-130.648
 21
52.1588
  0
LINE
  8
0
 10
-130.648
 20
52.1588
 11
-130.402
 21
52.2564
  0
LINE
  8
0
 10
-130.402
 20
52.2564
 11
-130.145
 21
52.3223
  0
LINE
  8
0
 10
-130.145
 20
52.3223
 11
-129.882
 21
52.3555
  0
LINE
  8
0
 10
-129.882
 20
52.3555
 11
129.882
 21
52.3555
  0
LINE
  8
0
 10
129.882
 20
52.3555
 11
130.145
 21
52.3223
  0
LINE
  8
0
 10
130.145
 20
52.3223
 11
130.402
 21
52.2564
  0
LINE
  8
0
 10
130.402
 20
52.2564
 11
130.648
 21
52.1588
  0
LINE
  8
0
 10
130.648
 20
52.1588
 11
130.88
 21
52.0312
  0
LINE
  8
0
 10
130.88
 20
52.0312
 11
131.095
 21
51.8755
  0
LINE
  8
0
 10
131.095
 20
51.8755
 11
131.288
 21
51.6941
  0
LINE
  8
0
 10
131.288
 20
51.6941
 11
131.457
 21
51.49
  0
LINE
  8
0
 10
131.457
 20
51.49
 11
131.599
 21
51.2663
  0
LINE
  8
0
 10
131.599
 20
51.2663
 11
131.711
 21
51.0266
  0
LINE
  8
0
 10
131.711
 20
51.0266
 11
131.793
 21
50.7746
  0
LINE
  8
0
 10
131.793
 20
50.7746
 11
131.843
 21
50.5144
  0
LINE
  8
0
 10
131.843
 20
50.5144
 11
131.86
 21
50.25
  0
LINE
  8
0
 10
131.86
 20
50.25
 11
131.86
 21
45.75
  0
LINE
  8
0
 10
131.86
 20
45.75
 11
131.843
 21
45.4856
  0
LINE
  8
0
 10
131.843
 20
45.4856
 11
131.793
 21
45.2254
  0
LINE
  8
0
 10
131.793
 20
45.2254
 11
131.711
 21
44.9734
  0
LINE
  8
0
 10
131.711
 20
44.9734
 11
131.599
 21
44.7337
  0
LINE
  8
0
 10
131.599
 20
44.7337
 11
131.457
 21
44.51
  0
LINE
  8
0
 10
131.457
 20
44.51
 11
131.288
 21
44.3059
  0
LINE
  8
0
 10
131.288
 20
44.3059
 11
131.095
 21
44.1245
  0
LINE
  8
0
 10
131.095
 20
44.1245
 11
130.88
 21
43.9688
  0
LINE
  8
0
 10
130.88
 20
43.9688
 11
130.648
 21
43.8412
  0
LINE
  8
0
 10
130.648
 20
43.8412
 11
130.402
 21
43.7436
  0
LINE
  8
0
 10
130.402
 20
43.7436
 11
130.145
 21
43.6777
  0
LINE
  8
0
 10
130.145
 20
43.6777
 11
129.882
 21
43.6445
  0
LINE
  8
0
 10
129.882
 20
43.6445
 11
-129.882
 21
43.6445
  0
ENDSEC
  0
SECTION
  2
OBJECTS
  0
DICTIONARY
  0
ENDSEC
  0
EOF
