<?xml version="1.0" standalone="no"?>
<!DOCTYPE svg PUBLIC "-//W3C//DTD SVG 1.1//EN" "http://www.w3.org/Graphics/SVG/1.1/DTD/svg11.dtd">
<svg width="240mm" height="400mm" viewBox="-120 -710 240 400" xmlns="http://www.w3.org/2000/svg" version="1.1">
<title>OpenSCAD Model</title>
<path d="
M 115.937,-514.589 L 116.545,-514.745 L 117.129,-514.976 L 117.679,-515.278 L 118.187,-515.647 L 118.645,-516.077
 L 119.045,-516.561 L 119.382,-517.091 L 119.649,-517.659 L 119.843,-518.257 L 119.961,-518.873 L 120,-519.5
 L 120,-704.5 L 119.961,-705.127 L 119.843,-705.743 L 119.649,-706.341 L 119.382,-706.909 L 119.045,-707.439
 L 118.645,-707.923 L 118.187,-708.353 L 117.679,-708.722 L 117.129,-709.024 L 116.545,-709.255 L 115.937,-709.411
 L 115.314,-709.49 L -115.314,-709.49 L -115.937,-709.411 L -116.545,-709.255 L -117.129,-709.024 L -117.679,-708.722
 L -118.187,-708.353 L -118.645,-707.923 L -119.045,-707.439 L -119.382,-706.909 L -119.649,-706.341 L -119.843,-705.743
 L -119.961,-705.127 L -120,-704.5 L -120,-519.5 L -119.961,-518.873 L -119.843,-518.257 L -119.649,-517.659
 L -119.382,-517.091 L -119.045,-516.561 L -118.645,-516.077 L -118.187,-515.647 L -117.679,-515.278 L -117.129,-514.976
 L -116.545,-514.745 L -115.937,-514.589 L -115.314,-514.51 L 115.314,-514.51 z
M -115.037,-515.181 L -115.608,-515.253 L -116.165,-515.396 L -116.699,-515.607 L -117.203,-515.884 L -117.668,-516.222
 L -118.088,-516.616 L -118.454,-517.059 L -118.762,-517.544 L -119.007,-518.065 L -119.185,-518.611 L -119.292,-519.176
 L -119.328,-519.75 L -119.328,-704.25 L -119.292,-704.824 L -119.185,-705.389 L -119.007,-705.935 L -118.762,-706.456
 L -118.454,-706.941 L -118.088,-707.384 L -117.668,-707.778 L -117.203,-708.116 L -116.699,-708.393 L -116.165,-708.604
 L -115.608,-708.747 L -115.037,-708.819 L 115.037,-708.819 L 115.608,-708.747 L 116.165,-708.604 L 116.699,-708.393
 L 117.203,-708.116 L 117.668,-707.778 L 118.088,-707.384 L 118.454,-706.941 L 118.762,-706.456 L 119.007,-705.935
 L 119.185,-705.389 L 119.292,-704.824 L 119.328,-704.25 L 119.328,-519.75 L 119.292,-519.176 L 119.185,-518.611
 L 119.007,-518.065 L 118.762,-517.544 L 118.454,-517.059 L 118.088,-516.616 L 117.668,-516.222 L 117.203,-515.884
 L 116.699,-515.607 L 116.165,-515.396 L 115.608,-515.253 L 115.037,-515.181 z
M 115.937,-310.589 L 116.545,-310.745 L 117.129,-310.976 L 117.679,-311.278 L 118.187,-311.647 L 118.645,-312.077
 L 119.045,-312.561 L 119.382,-313.091 L 119.649,-313.659 L 119.843,-314.257 L 119.961,-314.873 L 120,-315.5
 L 120,-500.5 L 119.961,-501.127 L 119.843,-501.743 L 119.649,-502.341 L 119.382,-502.909 L 119.045,-503.439
 L 118.645,-503.923 L 118.187,-504.353 L 117.679,-504.722 L 117.129,-505.024 L 116.545,-505.255 L 115.937,-505.411
 L 115.314,-505.49 L -115.314,-505.49 L -115.937,-505.411 L -116.545,-505.255 L -117.129,-505.024 L -117.679,-504.722
 L -118.187,-504.353 L -118.645,-503.923 L -119.045,-503.439 L -119.382,-502.909 L -119.649,-502.341 L -119.843,-501.743
 L -119.961,-501.127 L -120,-500.5 L -120,-315.5 L -119.961,-314.873 L -119.843,-314.257 L -119.649,-313.659
 L -119.382,-313.091 L -119.045,-312.561 L -118.645,-312.077 L -118.187,-311.647 L -117.679,-311.278 L -117.129,-310.976
 L -116.545,-310.745 L -115.937,-310.589 L -115.314,-310.51 L 115.314,-310.51 z
M -114.882,-313.645 L -115.145,-313.678 L -115.402,-313.744 L -115.648,-313.841 L -115.88,-313.969 L -116.095,-314.124
 L -116.288,-314.306 L -116.457,-314.51 L -116.599,-314.734 L -116.711,-314.973 L -116.793,-315.225 L -116.843,-315.486
 L -116.86,-315.75 L -116.86,-500.25 L -116.843,-500.514 L -116.793,-500.775 L -116.711,-501.027 L -116.599,-501.266
 L -116.457,-501.49 L -116.288,-501.694 L -116.095,-501.876 L -115.88,-502.031 L -115.648,-502.159 L -115.402,-502.256
 L -115.145,-502.322 L -114.882,-502.355 L 114.882,-502.355 L 115.145,-502.322 L 115.402,-502.256 L 115.648,-502.159
 L 115.88,-502.031 L 116.095,-501.876 L 116.288,-501.694 L 116.457,-501.49 L 116.599,-501.266 L 116.711,-501.027
 L 116.793,-500.775 L 116.843,-500.514 L 116.86,-500.25 L 116.86,-315.75 L 116.843,-315.486 L 116.793,-315.225
 L 116.711,-314.973 L 116.599,-314.734 L 116.457,-314.51 L 116.288,-314.306 L 116.095,-314.124 L 115.88,-313.969
 L 115.648,-313.841 L 115.402,-313.744 L 115.145,-313.678 L 114.882,-313.645 z
" stroke="black" fill="lightgray" stroke-width="0.5"/>
</svg>
