<?xml version="1.0" standalone="no"?>
<!DOCTYPE svg PUBLIC "-//W3C//DTD SVG 1.1//EN" "http://www.w3.org/Graphics/SVG/1.1/DTD/svg11.dtd">
<svg width="240mm" height="262mm" viewBox="-120 -509 240 262" xmlns="http://www.w3.org/2000/svg" version="1.1">
<title>OpenSCAD Model</title>
<path d="
M 115.937,-463.589 L 116.545,-463.745 L 117.129,-463.976 L 117.679,-464.278 L 118.187,-464.647 L 118.645,-465.077
 L 119.045,-465.561 L 119.382,-466.091 L 119.649,-466.659 L 119.843,-467.257 L 119.961,-467.873 L 120,-468.5
 L 120,-503.5 L 119.961,-504.127 L 119.843,-504.743 L 119.649,-505.341 L 119.382,-505.909 L 119.045,-506.439
 L 118.645,-506.923 L 118.187,-507.353 L 117.679,-507.722 L 117.129,-508.024 L 116.545,-508.255 L 115.937,-508.411
 L 115.314,-508.49 L -115.314,-508.49 L -115.937,-508.411 L -116.545,-508.255 L -117.129,-508.024 L -117.679,-507.722
 L -118.187,-507.353 L -118.645,-506.923 L -119.045,-506.439 L -119.382,-505.909 L -119.649,-505.341 L -119.843,-504.743
 L -119.961,-504.127 L -120,-503.5 L -120,-468.5 L -119.961,-467.873 L -119.843,-467.257 L -119.649,-466.659
 L -119.382,-466.091 L -119.045,-465.561 L -118.645,-465.077 L -118.187,-464.647 L -117.679,-464.278 L -117.129,-463.976
 L -116.545,-463.745 L -115.937,-463.589 L -115.314,-463.51 L 115.314,-463.51 z
M -115.048,-464.009 L -115.64,-464.084 L -116.218,-464.232 L -116.772,-464.452 L -117.295,-464.739 L -117.778,-465.09
 L -118.213,-465.498 L -118.593,-465.958 L -118.912,-466.462 L -119.166,-467.001 L -119.351,-467.569 L -119.463,-468.155
 L -119.5,-468.75 L -119.5,-503.25 L -119.463,-503.845 L -119.351,-504.431 L -119.166,-504.999 L -118.912,-505.538
 L -118.593,-506.042 L -118.213,-506.502 L -117.778,-506.91 L -117.295,-507.261 L -116.772,-507.548 L -116.218,-507.768
 L -115.64,-507.916 L -115.048,-507.991 L 115.048,-507.991 L 115.64,-507.916 L 116.218,-507.768 L 116.772,-507.548
 L 117.295,-507.261 L 117.778,-506.91 L 118.213,-506.502 L 118.593,-506.042 L 118.912,-505.538 L 119.166,-504.999
 L 119.351,-504.431 L 119.463,-503.845 L 119.5,-503.25 L 119.5,-468.75 L 119.463,-468.155 L 119.351,-467.569
 L 119.166,-467.001 L 118.912,-466.462 L 118.593,-465.958 L 118.213,-465.498 L 117.778,-465.09 L 117.295,-464.739
 L 116.772,-464.452 L 116.218,-464.232 L 115.64,-464.084 L 115.048,-464.009 z
M 115.937,-409.589 L 116.545,-409.745 L 117.129,-409.976 L 117.679,-410.278 L 118.187,-410.647 L 118.645,-411.077
 L 119.045,-411.561 L 119.382,-412.091 L 119.649,-412.659 L 119.843,-413.257 L 119.961,-413.873 L 120,-414.5
 L 120,-449.5 L 119.961,-450.127 L 119.843,-450.743 L 119.649,-451.341 L 119.382,-451.909 L 119.045,-452.439
 L 118.645,-452.923 L 118.187,-453.353 L 117.679,-453.722 L 117.129,-454.024 L 116.545,-454.255 L 115.937,-454.411
 L 115.314,-454.49 L -115.314,-454.49 L -115.937,-454.411 L -116.545,-454.255 L -117.129,-454.024 L -117.679,-453.722
 L -118.187,-453.353 L -118.645,-452.923 L -119.045,-452.439 L -119.382,-451.909 L -119.649,-451.341 L -119.843,-450.743
 L -119.961,-450.127 L -120,-449.5 L -120,-414.5 L -119.961,-413.873 L -119.843,-413.257 L -119.649,-412.659
 L -119.382,-412.091 L -119.045,-411.561 L -118.645,-411.077 L -118.187,-410.647 L -117.679,-410.278 L -117.129,-409.976
 L -116.545,-409.745 L -115.937,-409.589 L -115.314,-409.51 L 115.314,-409.51 z
M -115.048,-410.009 L -115.64,-410.084 L -116.218,-410.232 L -116.772,-410.452 L -117.295,-410.739 L -117.778,-411.09
 L -118.213,-411.498 L -118.593,-411.958 L -118.912,-412.462 L -119.166,-413.001 L -119.351,-413.569 L -119.463,-414.155
 L -119.5,-414.75 L -119.5,-449.25 L -119.463,-449.845 L -119.351,-450.431 L -119.166,-450.999 L -118.912,-451.538
 L -118.593,-452.042 L -118.213,-452.502 L -117.778,-452.91 L -117.295,-453.261 L -116.772,-453.548 L -116.218,-453.768
 L -115.64,-453.916 L -115.048,-453.991 L 115.048,-453.991 L 115.64,-453.916 L 116.218,-453.768 L 116.772,-453.548
 L 117.295,-453.261 L 117.778,-452.91 L 118.213,-452.502 L 118.593,-452.042 L 118.912,-451.538 L 119.166,-450.999
 L 119.351,-450.431 L 119.463,-449.845 L 119.5,-449.25 L 119.5,-414.75 L 119.463,-414.155 L 119.351,-413.569
 L 119.166,-413.001 L 118.912,-412.462 L 118.593,-411.958 L 118.213,-411.498 L 117.778,-411.09 L 117.295,-410.739
 L 116.772,-410.452 L 116.218,-410.232 L 115.64,-410.084 L 115.048,-410.009 z
M 115.937,-355.589 L 116.545,-355.745 L 117.129,-355.976 L 117.679,-356.278 L 118.187,-356.647 L 118.645,-357.077
 L 119.045,-357.561 L 119.382,-358.091 L 119.649,-358.659 L 119.843,-359.257 L 119.961,-359.873 L 120,-360.5
 L 120,-395.5 L 119.961,-396.127 L 119.843,-396.743 L 119.649,-397.341 L 119.382,-397.909 L 119.045,-398.439
 L 118.645,-398.923 L 118.187,-399.353 L 117.679,-399.722 L 117.129,-400.024 L 116.545,-400.255 L 115.937,-400.411
 L 115.314,-400.49 L -115.314,-400.49 L -115.937,-400.411 L -116.545,-400.255 L -117.129,-400.024 L -117.679,-399.722
 L -118.187,-399.353 L -118.645,-398.923 L -119.045,-398.439 L -119.382,-397.909 L -119.649,-397.341 L -119.843,-396.743
 L -119.961,-396.127 L -120,-395.5 L -120,-360.5 L -119.961,-359.873 L -119.843,-359.257 L -119.649,-358.659
 L -119.382,-358.091 L -119.045,-357.561 L -118.645,-357.077 L -118.187,-356.647 L -117.679,-356.278 L -117.129,-355.976
 L -116.545,-355.745 L -115.937,-355.589 L -115.314,-355.51 L 115.314,-355.51 z
M -115.048,-356.009 L -115.64,-356.084 L -116.218,-356.232 L -116.772,-356.452 L -117.295,-356.739 L -117.778,-357.09
 L -118.213,-357.498 L -118.593,-357.958 L -118.912,-358.462 L -119.166,-359.001 L -119.351,-359.569 L -119.463,-360.155
 L -119.5,-360.75 L -119.5,-395.25 L -119.463,-395.845 L -119.351,-396.431 L -119.166,-396.999 L -118.912,-397.538
 L -118.593,-398.042 L -118.213,-398.502 L -117.778,-398.91 L -117.295,-399.261 L -116.772,-399.548 L -116.218,-399.768
 L -115.64,-399.916 L -115.048,-399.991 L 115.048,-399.991 L 115.64,-399.916 L 116.218,-399.768 L 116.772,-399.548
 L 117.295,-399.261 L 117.778,-398.91 L 118.213,-398.502 L 118.593,-398.042 L 118.912,-397.538 L 119.166,-396.999
 L 119.351,-396.431 L 119.463,-395.845 L 119.5,-395.25 L 119.5,-360.75 L 119.463,-360.155 L 119.351,-359.569
 L 119.166,-359.001 L 118.912,-358.462 L 118.593,-357.958 L 118.213,-357.498 L 117.778,-357.09 L 117.295,-356.739
 L 116.772,-356.452 L 116.218,-356.232 L 115.64,-356.084 L 115.048,-356.009 z
M 115.937,-301.589 L 116.545,-301.745 L 117.129,-301.976 L 117.679,-302.278 L 118.187,-302.647 L 118.645,-303.077
 L 119.045,-303.561 L 119.382,-304.091 L 119.649,-304.659 L 119.843,-305.257 L 119.961,-305.873 L 120,-306.5
 L 120,-341.5 L 119.961,-342.127 L 119.843,-342.743 L 119.649,-343.341 L 119.382,-343.909 L 119.045,-344.439
 L 118.645,-344.923 L 118.187,-345.353 L 117.679,-345.722 L 117.129,-346.024 L 116.545,-346.255 L 115.937,-346.411
 L 115.314,-346.49 L -115.314,-346.49 L -115.937,-346.411 L -116.545,-346.255 L -117.129,-346.024 L -117.679,-345.722
 L -118.187,-345.353 L -118.645,-344.923 L -119.045,-344.439 L -119.382,-343.909 L -119.649,-343.341 L -119.843,-342.743
 L -119.961,-342.127 L -120,-341.5 L -120,-306.5 L -119.961,-305.873 L -119.843,-305.257 L -119.649,-304.659
 L -119.382,-304.091 L -119.045,-303.561 L -118.645,-303.077 L -118.187,-302.647 L -117.679,-302.278 L -117.129,-301.976
 L -116.545,-301.745 L -115.937,-301.589 L -115.314,-301.51 L 115.314,-301.51 z
M -115.037,-302.181 L -115.608,-302.253 L -116.165,-302.396 L -116.699,-302.607 L -117.203,-302.884 L -117.668,-303.222
 L -118.088,-303.616 L -118.454,-304.059 L -118.762,-304.544 L -119.007,-305.065 L -119.185,-305.611 L -119.292,-306.176
 L -119.328,-306.75 L -119.328,-341.25 L -119.292,-341.824 L -119.185,-342.389 L -119.007,-342.935 L -118.762,-343.456
 L -118.454,-343.941 L -118.088,-344.384 L -117.668,-344.778 L -117.203,-345.116 L -116.699,-345.393 L -116.165,-345.604
 L -115.608,-345.747 L -115.037,-345.819 L 115.037,-345.819 L 115.608,-345.747 L 116.165,-345.604 L 116.699,-345.393
 L 117.203,-345.116 L 117.668,-344.778 L 118.088,-344.384 L 118.454,-343.941 L 118.762,-343.456 L 119.007,-342.935
 L 119.185,-342.389 L 119.292,-341.824 L 119.328,-341.25 L 119.328,-306.75 L 119.292,-306.176 L 119.185,-305.611
 L 119.007,-305.065 L 118.762,-304.544 L 118.454,-304.059 L 118.088,-303.616 L 117.668,-303.222 L 117.203,-302.884
 L 116.699,-302.607 L 116.165,-302.396 L 115.608,-302.253 L 115.037,-302.181 z
M 115.937,-247.589 L 116.545,-247.745 L 117.129,-247.976 L 117.679,-248.278 L 118.187,-248.647 L 118.645,-249.077
 L 119.045,-249.561 L 119.382,-250.091 L 119.649,-250.659 L 119.843,-251.257 L 119.961,-251.873 L 120,-252.5
 L 120,-287.5 L 119.961,-288.127 L 119.843,-288.743 L 119.649,-289.341 L 119.382,-289.909 L 119.045,-290.439
 L 118.645,-290.923 L 118.187,-291.353 L 117.679,-291.722 L 117.129,-292.024 L 116.545,-292.255 L 115.937,-292.411
 L 115.314,-292.49 L -115.314,-292.49 L -115.937,-292.411 L -116.545,-292.255 L -117.129,-292.024 L -117.679,-291.722
 L -118.187,-291.353 L -118.645,-290.923 L -119.045,-290.439 L -119.382,-289.909 L -119.649,-289.341 L -119.843,-288.743
 L -119.961,-288.127 L -120,-287.5 L -120,-252.5 L -119.961,-251.873 L -119.843,-251.257 L -119.649,-250.659
 L -119.382,-250.091 L -119.045,-249.561 L -118.645,-249.077 L -118.187,-248.647 L -117.679,-248.278 L -117.129,-247.976
 L -116.545,-247.745 L -115.937,-247.589 L -115.314,-247.51 L 115.314,-247.51 z
M -114.882,-250.645 L -115.145,-250.678 L -115.402,-250.744 L -115.648,-250.841 L -115.88,-250.969 L -116.095,-251.125
 L -116.288,-251.306 L -116.457,-251.51 L -116.599,-251.734 L -116.711,-251.973 L -116.793,-252.225 L -116.843,-252.486
 L -116.86,-252.75 L -116.86,-287.25 L -116.843,-287.514 L -116.793,-287.775 L -116.711,-288.027 L -116.599,-288.266
 L -116.457,-288.49 L -116.288,-288.694 L -116.095,-288.875 L -115.88,-289.031 L -115.648,-289.159 L -115.402,-289.256
 L -115.145,-289.322 L -114.882,-289.355 L 114.882,-289.355 L 115.145,-289.322 L 115.402,-289.256 L 115.648,-289.159
 L 115.88,-289.031 L 116.095,-288.875 L 116.288,-288.694 L 116.457,-288.49 L 116.599,-288.266 L 116.711,-288.027
 L 116.793,-287.775 L 116.843,-287.514 L 116.86,-287.25 L 116.86,-252.75 L 116.843,-252.486 L 116.793,-252.225
 L 116.711,-251.973 L 116.599,-251.734 L 116.457,-251.51 L 116.288,-251.306 L 116.095,-251.125 L 115.88,-250.969
 L 115.648,-250.841 L 115.402,-250.744 L 115.145,-250.678 L 114.882,-250.645 z
" stroke="black" fill="lightgray" stroke-width="0.5"/>
</svg>
