<?xml version="1.0" standalone="no"?>
<!DOCTYPE svg PUBLIC "-//W3C//DTD SVG 1.1//EN" "http://www.w3.org/Graphics/SVG/1.1/DTD/svg11.dtd">
<svg width="256mm" height="568mm" viewBox="-128 -1076 256 568" xmlns="http://www.w3.org/2000/svg" version="1.1">
<title>OpenSCAD Model</title>
<path d="
M 123.437,-940.589 L 124.045,-940.745 L 124.629,-940.976 L 125.179,-941.278 L 125.687,-941.647 L 126.145,-942.077
 L 126.545,-942.561 L 126.882,-943.091 L 127.149,-943.659 L 127.343,-944.257 L 127.461,-944.873 L 127.5,-945.5
 L 127.5,-1070.5 L 127.461,-1071.13 L 127.343,-1071.74 L 127.149,-1072.34 L 126.882,-1072.91 L 126.545,-1073.44
 L 126.145,-1073.92 L 125.687,-1074.35 L 125.179,-1074.72 L 124.629,-1075.02 L 124.045,-1075.26 L 123.437,-1075.41
 L 122.814,-1075.49 L -122.814,-1075.49 L -123.437,-1075.41 L -124.045,-1075.26 L -124.629,-1075.02 L -125.179,-1074.72
 L -125.687,-1074.35 L -126.145,-1073.92 L -126.545,-1073.44 L -126.882,-1072.91 L -127.149,-1072.34 L -127.343,-1071.74
 L -127.461,-1071.13 L -127.5,-1070.5 L -127.5,-945.5 L -127.461,-944.873 L -127.343,-944.257 L -127.149,-943.659
 L -126.882,-943.091 L -126.545,-942.561 L -126.145,-942.077 L -125.687,-941.647 L -125.179,-941.278 L -124.629,-940.976
 L -124.045,-940.745 L -123.437,-940.589 L -122.814,-940.51 L 122.814,-940.51 z
M -122.548,-941.009 L -123.14,-941.084 L -123.718,-941.232 L -124.272,-941.452 L -124.795,-941.739 L -125.278,-942.09
 L -125.713,-942.498 L -126.093,-942.958 L -126.412,-943.462 L -126.666,-944.001 L -126.851,-944.569 L -126.963,-945.155
 L -127,-945.75 L -127,-1070.25 L -126.963,-1070.85 L -126.851,-1071.43 L -126.666,-1072 L -126.412,-1072.54
 L -126.093,-1073.04 L -125.713,-1073.5 L -125.278,-1073.91 L -124.795,-1074.26 L -124.272,-1074.55 L -123.718,-1074.77
 L -123.14,-1074.92 L -122.548,-1074.99 L 122.548,-1074.99 L 123.14,-1074.92 L 123.718,-1074.77 L 124.272,-1074.55
 L 124.795,-1074.26 L 125.278,-1073.91 L 125.713,-1073.5 L 126.093,-1073.04 L 126.412,-1072.54 L 126.666,-1072
 L 126.851,-1071.43 L 126.963,-1070.85 L 127,-1070.25 L 127,-945.75 L 126.963,-945.155 L 126.851,-944.569
 L 126.666,-944.001 L 126.412,-943.462 L 126.093,-942.958 L 125.713,-942.498 L 125.278,-942.09 L 124.795,-941.739
 L 124.272,-941.452 L 123.718,-941.232 L 123.14,-941.084 L 122.548,-941.009 z
M 123.437,-796.589 L 124.045,-796.745 L 124.629,-796.976 L 125.179,-797.278 L 125.687,-797.647 L 126.145,-798.077
 L 126.545,-798.561 L 126.882,-799.091 L 127.149,-799.659 L 127.343,-800.257 L 127.461,-800.873 L 127.5,-801.5
 L 127.5,-926.5 L 127.461,-927.127 L 127.343,-927.743 L 127.149,-928.341 L 126.882,-928.909 L 126.545,-929.439
 L 126.145,-929.923 L 125.687,-930.353 L 125.179,-930.722 L 124.629,-931.024 L 124.045,-931.255 L 123.437,-931.411
 L 122.814,-931.49 L -122.814,-931.49 L -123.437,-931.411 L -124.045,-931.255 L -124.629,-931.024 L -125.179,-930.722
 L -125.687,-930.353 L -126.145,-929.923 L -126.545,-929.439 L -126.882,-928.909 L -127.149,-928.341 L -127.343,-927.743
 L -127.461,-927.127 L -127.5,-926.5 L -127.5,-801.5 L -127.461,-800.873 L -127.343,-800.257 L -127.149,-799.659
 L -126.882,-799.091 L -126.545,-798.561 L -126.145,-798.077 L -125.687,-797.647 L -125.179,-797.278 L -124.629,-796.976
 L -124.045,-796.745 L -123.437,-796.589 L -122.814,-796.51 L 122.814,-796.51 z
M -122.548,-797.009 L -123.14,-797.084 L -123.718,-797.232 L -124.272,-797.452 L -124.795,-797.739 L -125.278,-798.09
 L -125.713,-798.498 L -126.093,-798.958 L -126.412,-799.462 L -126.666,-800.001 L -126.851,-800.569 L -126.963,-801.155
 L -127,-801.75 L -127,-926.25 L -126.963,-926.845 L -126.851,-927.431 L -126.666,-927.999 L -126.412,-928.538
 L -126.093,-929.042 L -125.713,-929.502 L -125.278,-929.91 L -124.795,-930.261 L -124.272,-930.548 L -123.718,-930.768
 L -123.14,-930.916 L -122.548,-930.991 L 122.548,-930.991 L 123.14,-930.916 L 123.718,-930.768 L 124.272,-930.548
 L 124.795,-930.261 L 125.278,-929.91 L 125.713,-929.502 L 126.093,-929.042 L 126.412,-928.538 L 126.666,-927.999
 L 126.851,-927.431 L 126.963,-926.845 L 127,-926.25 L 127,-801.75 L 126.963,-801.155 L 126.851,-800.569
 L 126.666,-800.001 L 126.412,-799.462 L 126.093,-798.958 L 125.713,-798.498 L 125.278,-798.09 L 124.795,-797.739
 L 124.272,-797.452 L 123.718,-797.232 L 123.14,-797.084 L 122.548,-797.009 z
M 123.437,-652.589 L 124.045,-652.745 L 124.629,-652.976 L 125.179,-653.278 L 125.687,-653.647 L 126.145,-654.077
 L 126.545,-654.561 L 126.882,-655.091 L 127.149,-655.659 L 127.343,-656.257 L 127.461,-656.873 L 127.5,-657.5
 L 127.5,-782.5 L 127.461,-783.127 L 127.343,-783.743 L 127.149,-784.341 L 126.882,-784.909 L 126.545,-785.439
 L 126.145,-785.923 L 125.687,-786.353 L 125.179,-786.722 L 124.629,-787.024 L 124.045,-787.255 L 123.437,-787.411
 L 122.814,-787.49 L -122.814,-787.49 L -123.437,-787.411 L -124.045,-787.255 L -124.629,-787.024 L -125.179,-786.722
 L -125.687,-786.353 L -126.145,-785.923 L -126.545,-785.439 L -126.882,-784.909 L -127.149,-784.341 L -127.343,-783.743
 L -127.461,-783.127 L -127.5,-782.5 L -127.5,-657.5 L -127.461,-656.873 L -127.343,-656.257 L -127.149,-655.659
 L -126.882,-655.091 L -126.545,-654.561 L -126.145,-654.077 L -125.687,-653.647 L -125.179,-653.278 L -124.629,-652.976
 L -124.045,-652.745 L -123.437,-652.589 L -122.814,-652.51 L 122.814,-652.51 z
M -122.537,-653.181 L -123.108,-653.253 L -123.665,-653.396 L -124.199,-653.607 L -124.703,-653.884 L -125.168,-654.222
 L -125.588,-654.616 L -125.954,-655.059 L -126.262,-655.544 L -126.507,-656.065 L -126.685,-656.611 L -126.792,-657.176
 L -126.828,-657.75 L -126.828,-782.25 L -126.792,-782.824 L -126.685,-783.389 L -126.507,-783.935 L -126.262,-784.456
 L -125.954,-784.941 L -125.588,-785.384 L -125.168,-785.778 L -124.703,-786.116 L -124.199,-786.393 L -123.665,-786.604
 L -123.108,-786.747 L -122.537,-786.819 L 122.537,-786.819 L 123.108,-786.747 L 123.665,-786.604 L 124.199,-786.393
 L 124.703,-786.116 L 125.168,-785.778 L 125.588,-785.384 L 125.954,-784.941 L 126.262,-784.456 L 126.507,-783.935
 L 126.685,-783.389 L 126.792,-782.824 L 126.828,-782.25 L 126.828,-657.75 L 126.792,-657.176 L 126.685,-656.611
 L 126.507,-656.065 L 126.262,-655.544 L 125.954,-655.059 L 125.588,-654.616 L 125.168,-654.222 L 124.703,-653.884
 L 124.199,-653.607 L 123.665,-653.396 L 123.108,-653.253 L 122.537,-653.181 z
M 123.437,-508.589 L 124.045,-508.745 L 124.629,-508.976 L 125.179,-509.278 L 125.687,-509.647 L 126.145,-510.077
 L 126.545,-510.561 L 126.882,-511.091 L 127.149,-511.659 L 127.343,-512.257 L 127.461,-512.873 L 127.5,-513.5
 L 127.5,-638.5 L 127.461,-639.127 L 127.343,-639.743 L 127.149,-640.341 L 126.882,-640.909 L 126.545,-641.439
 L 126.145,-641.923 L 125.687,-642.353 L 125.179,-642.722 L 124.629,-643.024 L 124.045,-643.255 L 123.437,-643.411
 L 122.814,-643.49 L -122.814,-643.49 L -123.437,-643.411 L -124.045,-643.255 L -124.629,-643.024 L -125.179,-642.722
 L -125.687,-642.353 L -126.145,-641.923 L -126.545,-641.439 L -126.882,-640.909 L -127.149,-640.341 L -127.343,-639.743
 L -127.461,-639.127 L -127.5,-638.5 L -127.5,-513.5 L -127.461,-512.873 L -127.343,-512.257 L -127.149,-511.659
 L -126.882,-511.091 L -126.545,-510.561 L -126.145,-510.077 L -125.687,-509.647 L -125.179,-509.278 L -124.629,-508.976
 L -124.045,-508.745 L -123.437,-508.589 L -122.814,-508.51 L 122.814,-508.51 z
M -122.382,-511.645 L -122.645,-511.678 L -122.902,-511.744 L -123.148,-511.841 L -123.38,-511.969 L -123.595,-512.125
 L -123.788,-512.306 L -123.957,-512.51 L -124.099,-512.734 L -124.211,-512.973 L -124.293,-513.225 L -124.343,-513.486
 L -124.36,-513.75 L -124.36,-638.25 L -124.343,-638.514 L -124.293,-638.775 L -124.211,-639.027 L -124.099,-639.266
 L -123.957,-639.49 L -123.788,-639.694 L -123.595,-639.875 L -123.38,-640.031 L -123.148,-640.159 L -122.902,-640.256
 L -122.645,-640.322 L -122.382,-640.355 L 122.382,-640.355 L 122.645,-640.322 L 122.902,-640.256 L 123.148,-640.159
 L 123.38,-640.031 L 123.595,-639.875 L 123.788,-639.694 L 123.957,-639.49 L 124.099,-639.266 L 124.211,-639.027
 L 124.293,-638.775 L 124.343,-638.514 L 124.36,-638.25 L 124.36,-513.75 L 124.343,-513.486 L 124.293,-513.225
 L 124.211,-512.973 L 124.099,-512.734 L 123.957,-512.51 L 123.788,-512.306 L 123.595,-512.125 L 123.38,-511.969
 L 123.148,-511.841 L 122.902,-511.744 L 122.645,-511.678 L 122.382,-511.645 z
" stroke="black" fill="lightgray" stroke-width="0.5"/>
</svg>
