<?xml version="1.0" standalone="no"?>
<!DOCTYPE svg PUBLIC "-//W3C//DTD SVG 1.1//EN" "http://www.w3.org/Graphics/SVG/1.1/DTD/svg11.dtd">
<svg width="286mm" height="249mm" viewBox="-143 -447 286 249" xmlns="http://www.w3.org/2000/svg" version="1.1">
<title>OpenSCAD Model</title>
<path d="
M 138.437,-327.089 L 139.045,-327.245 L 139.629,-327.476 L 140.179,-327.778 L 140.687,-328.147 L 141.145,-328.577
 L 141.545,-329.061 L 141.882,-329.591 L 142.149,-330.159 L 142.343,-330.757 L 142.461,-331.373 L 142.5,-332
 L 142.5,-442 L 142.461,-442.627 L 142.343,-443.243 L 142.149,-443.841 L 141.882,-444.409 L 141.545,-444.939
 L 141.145,-445.423 L 140.687,-445.853 L 140.179,-446.222 L 139.629,-446.524 L 139.045,-446.755 L 138.437,-446.911
 L 137.814,-446.99 L -137.814,-446.99 L -138.437,-446.911 L -139.045,-446.755 L -139.629,-446.524 L -140.179,-446.222
 L -140.687,-445.853 L -141.145,-445.423 L -141.545,-444.939 L -141.882,-444.409 L -142.149,-443.841 L -142.343,-443.243
 L -142.461,-442.627 L -142.5,-442 L -142.5,-332 L -142.461,-331.373 L -142.343,-330.757 L -142.149,-330.159
 L -141.882,-329.591 L -141.545,-329.061 L -141.145,-328.577 L -140.687,-328.147 L -140.179,-327.778 L -139.629,-327.476
 L -139.045,-327.245 L -138.437,-327.089 L -137.814,-327.01 L 137.814,-327.01 z
M -137.537,-327.681 L -138.108,-327.753 L -138.665,-327.896 L -139.199,-328.107 L -139.703,-328.384 L -140.168,-328.722
 L -140.588,-329.116 L -140.954,-329.559 L -141.262,-330.044 L -141.507,-330.565 L -141.685,-331.111 L -141.792,-331.676
 L -141.828,-332.25 L -141.828,-441.75 L -141.792,-442.324 L -141.685,-442.889 L -141.507,-443.435 L -141.262,-443.956
 L -140.954,-444.441 L -140.588,-444.884 L -140.168,-445.278 L -139.703,-445.616 L -139.199,-445.893 L -138.665,-446.104
 L -138.108,-446.247 L -137.537,-446.319 L 137.537,-446.319 L 138.108,-446.247 L 138.665,-446.104 L 139.199,-445.893
 L 139.703,-445.616 L 140.168,-445.278 L 140.588,-444.884 L 140.954,-444.441 L 141.262,-443.956 L 141.507,-443.435
 L 141.685,-442.889 L 141.792,-442.324 L 141.828,-441.75 L 141.828,-332.25 L 141.792,-331.676 L 141.685,-331.111
 L 141.507,-330.565 L 141.262,-330.044 L 140.954,-329.559 L 140.588,-329.116 L 140.168,-328.722 L 139.703,-328.384
 L 139.199,-328.107 L 138.665,-327.896 L 138.108,-327.753 L 137.537,-327.681 z
M 138.437,-198.089 L 139.045,-198.245 L 139.629,-198.476 L 140.179,-198.778 L 140.687,-199.147 L 141.145,-199.577
 L 141.545,-200.061 L 141.882,-200.591 L 142.149,-201.159 L 142.343,-201.757 L 142.461,-202.373 L 142.5,-203
 L 142.5,-313 L 142.461,-313.627 L 142.343,-314.243 L 142.149,-314.841 L 141.882,-315.409 L 141.545,-315.939
 L 141.145,-316.423 L 140.687,-316.853 L 140.179,-317.222 L 139.629,-317.524 L 139.045,-317.755 L 138.437,-317.911
 L 137.814,-317.99 L -137.814,-317.99 L -138.437,-317.911 L -139.045,-317.755 L -139.629,-317.524 L -140.179,-317.222
 L -140.687,-316.853 L -141.145,-316.423 L -141.545,-315.939 L -141.882,-315.409 L -142.149,-314.841 L -142.343,-314.243
 L -142.461,-313.627 L -142.5,-313 L -142.5,-203 L -142.461,-202.373 L -142.343,-201.757 L -142.149,-201.159
 L -141.882,-200.591 L -141.545,-200.061 L -141.145,-199.577 L -140.687,-199.147 L -140.179,-198.778 L -139.629,-198.476
 L -139.045,-198.245 L -138.437,-198.089 L -137.814,-198.01 L 137.814,-198.01 z
M -137.382,-201.145 L -137.645,-201.178 L -137.902,-201.244 L -138.148,-201.341 L -138.38,-201.469 L -138.595,-201.625
 L -138.788,-201.806 L -138.957,-202.01 L -139.099,-202.234 L -139.211,-202.473 L -139.293,-202.725 L -139.343,-202.986
 L -139.36,-203.25 L -139.36,-312.75 L -139.343,-313.014 L -139.293,-313.275 L -139.211,-313.527 L -139.099,-313.766
 L -138.957,-313.99 L -138.788,-314.194 L -138.595,-314.375 L -138.38,-314.531 L -138.148,-314.659 L -137.902,-314.756
 L -137.645,-314.822 L -137.382,-314.855 L 137.382,-314.855 L 137.645,-314.822 L 137.902,-314.756 L 138.148,-314.659
 L 138.38,-314.531 L 138.595,-314.375 L 138.788,-314.194 L 138.957,-313.99 L 139.099,-313.766 L 139.211,-313.527
 L 139.293,-313.275 L 139.343,-313.014 L 139.36,-312.75 L 139.36,-203.25 L 139.343,-202.986 L 139.293,-202.725
 L 139.211,-202.473 L 139.099,-202.234 L 138.957,-202.01 L 138.788,-201.806 L 138.595,-201.625 L 138.38,-201.469
 L 138.148,-201.341 L 137.902,-201.244 L 137.645,-201.178 L 137.382,-201.145 z
" stroke="black" fill="lightgray" stroke-width="0.5"/>
</svg>
