<?xml version="1.0" standalone="no"?>
<!DOCTYPE svg PUBLIC "-//W3C//DTD SVG 1.1//EN" "http://www.w3.org/Graphics/SVG/1.1/DTD/svg11.dtd">
<svg width="240mm" height="198mm" viewBox="-120 -306 240 198" xmlns="http://www.w3.org/2000/svg" version="1.1">
<title>OpenSCAD Model</title>
<path d="
M 115.937,-246.089 L 116.545,-246.245 L 117.129,-246.476 L 117.679,-246.778 L 118.187,-247.147 L 118.645,-247.577
 L 119.045,-248.061 L 119.382,-248.591 L 119.649,-249.159 L 119.843,-249.757 L 119.961,-250.373 L 120,-251
 L 120,-301 L 119.961,-301.627 L 119.843,-302.243 L 119.649,-302.841 L 119.382,-303.409 L 119.045,-303.939
 L 118.645,-304.423 L 118.187,-304.853 L 117.679,-305.222 L 117.129,-305.524 L 116.545,-305.755 L 115.937,-305.911
 L 115.314,-305.99 L -115.314,-305.99 L -115.937,-305.911 L -116.545,-305.755 L -117.129,-305.524 L -117.679,-305.222
 L -118.187,-304.853 L -118.645,-304.423 L -119.045,-303.939 L -119.382,-303.409 L -119.649,-302.841 L -119.843,-302.243
 L -119.961,-301.627 L -120,-301 L -120,-251 L -119.961,-250.373 L -119.843,-249.757 L -119.649,-249.159
 L -119.382,-248.591 L -119.045,-248.061 L -118.645,-247.577 L -118.187,-247.147 L -117.679,-246.778 L -117.129,-246.476
 L -116.545,-246.245 L -115.937,-246.089 L -115.314,-246.01 L 115.314,-246.01 z
M -115.048,-246.509 L -115.64,-246.584 L -116.218,-246.732 L -116.772,-246.952 L -117.295,-247.239 L -117.778,-247.59
 L -118.213,-247.998 L -118.593,-248.458 L -118.912,-248.962 L -119.166,-249.501 L -119.351,-250.069 L -119.463,-250.655
 L -119.5,-251.25 L -119.5,-300.75 L -119.463,-301.345 L -119.351,-301.931 L -119.166,-302.499 L -118.912,-303.038
 L -118.593,-303.542 L -118.213,-304.002 L -117.778,-304.41 L -117.295,-304.761 L -116.772,-305.048 L -116.218,-305.268
 L -115.64,-305.416 L -115.048,-305.491 L 115.048,-305.491 L 115.64,-305.416 L 116.218,-305.268 L 116.772,-305.048
 L 117.295,-304.761 L 117.778,-304.41 L 118.213,-304.002 L 118.593,-303.542 L 118.912,-303.038 L 119.166,-302.499
 L 119.351,-301.931 L 119.463,-301.345 L 119.5,-300.75 L 119.5,-251.25 L 119.463,-250.655 L 119.351,-250.069
 L 119.166,-249.501 L 118.912,-248.962 L 118.593,-248.458 L 118.213,-247.998 L 117.778,-247.59 L 117.295,-247.239
 L 116.772,-246.952 L 116.218,-246.732 L 115.64,-246.584 L 115.048,-246.509 z
M 115.937,-177.089 L 116.545,-177.245 L 117.129,-177.476 L 117.679,-177.778 L 118.187,-178.147 L 118.645,-178.577
 L 119.045,-179.061 L 119.382,-179.591 L 119.649,-180.159 L 119.843,-180.757 L 119.961,-181.373 L 120,-182
 L 120,-232 L 119.961,-232.627 L 119.843,-233.243 L 119.649,-233.841 L 119.382,-234.409 L 119.045,-234.939
 L 118.645,-235.423 L 118.187,-235.853 L 117.679,-236.222 L 117.129,-236.524 L 116.545,-236.755 L 115.937,-236.911
 L 115.314,-236.99 L -115.314,-236.99 L -115.937,-236.911 L -116.545,-236.755 L -117.129,-236.524 L -117.679,-236.222
 L -118.187,-235.853 L -118.645,-235.423 L -119.045,-234.939 L -119.382,-234.409 L -119.649,-233.841 L -119.843,-233.243
 L -119.961,-232.627 L -120,-232 L -120,-182 L -119.961,-181.373 L -119.843,-180.757 L -119.649,-180.159
 L -119.382,-179.591 L -119.045,-179.061 L -118.645,-178.577 L -118.187,-178.147 L -117.679,-177.778 L -117.129,-177.476
 L -116.545,-177.245 L -115.937,-177.089 L -115.314,-177.01 L 115.314,-177.01 z
M -114.993,-178.388 L -115.475,-178.449 L -115.946,-178.57 L -116.398,-178.749 L -116.823,-178.983 L -117.216,-179.269
 L -117.571,-179.601 L -117.88,-179.976 L -118.141,-180.386 L -118.348,-180.826 L -118.498,-181.288 L -118.589,-181.765
 L -118.619,-182.25 L -118.619,-231.75 L -118.589,-232.235 L -118.498,-232.712 L -118.348,-233.174 L -118.141,-233.614
 L -117.88,-234.024 L -117.571,-234.399 L -117.216,-234.731 L -116.823,-235.017 L -116.398,-235.251 L -115.946,-235.43
 L -115.475,-235.551 L -114.993,-235.612 L 114.993,-235.612 L 115.475,-235.551 L 115.946,-235.43 L 116.398,-235.251
 L 116.823,-235.017 L 117.216,-234.731 L 117.571,-234.399 L 117.88,-234.024 L 118.141,-233.614 L 118.348,-233.174
 L 118.498,-232.712 L 118.589,-232.235 L 118.619,-231.75 L 118.619,-182.25 L 118.589,-181.765 L 118.498,-181.288
 L 118.348,-180.826 L 118.141,-180.386 L 117.88,-179.976 L 117.571,-179.601 L 117.216,-179.269 L 116.823,-178.983
 L 116.398,-178.749 L 115.946,-178.57 L 115.475,-178.449 L 114.993,-178.388 z
M 115.937,-108.089 L 116.545,-108.245 L 117.129,-108.476 L 117.679,-108.778 L 118.187,-109.147 L 118.645,-109.577
 L 119.045,-110.061 L 119.382,-110.591 L 119.649,-111.159 L 119.843,-111.757 L 119.961,-112.373 L 120,-113
 L 120,-163 L 119.961,-163.627 L 119.843,-164.243 L 119.649,-164.841 L 119.382,-165.409 L 119.045,-165.939
 L 118.645,-166.423 L 118.187,-166.853 L 117.679,-167.222 L 117.129,-167.524 L 116.545,-167.755 L 115.937,-167.911
 L 115.314,-167.99 L -115.314,-167.99 L -115.937,-167.911 L -116.545,-167.755 L -117.129,-167.524 L -117.679,-167.222
 L -118.187,-166.853 L -118.645,-166.423 L -119.045,-165.939 L -119.382,-165.409 L -119.649,-164.841 L -119.843,-164.243
 L -119.961,-163.627 L -120,-163 L -120,-113 L -119.961,-112.373 L -119.843,-111.757 L -119.649,-111.159
 L -119.382,-110.591 L -119.045,-110.061 L -118.645,-109.577 L -118.187,-109.147 L -117.679,-108.778 L -117.129,-108.476
 L -116.545,-108.245 L -115.937,-108.089 L -115.314,-108.01 L 115.314,-108.01 z
M -112.613,-158.704 L -112.837,-158.732 L -113.056,-158.788 L -113.266,-158.871 L -113.464,-158.98 L -113.647,-159.113
 L -113.812,-159.268 L -113.956,-159.442 L -114.077,-159.633 L -114.174,-159.837 L -114.243,-160.052 L -114.286,-160.274
 L -114.3,-160.5 L -114.286,-160.726 L -114.243,-160.948 L -114.174,-161.163 L -114.077,-161.367 L -113.956,-161.558
 L -113.812,-161.732 L -113.647,-161.887 L -113.464,-162.02 L -113.266,-162.129 L -113.056,-162.212 L -112.837,-162.268
 L -112.613,-162.296 L -112.387,-162.296 L -112.163,-162.268 L -111.944,-162.212 L -111.734,-162.129 L -111.536,-162.02
 L -111.353,-161.887 L -111.188,-161.732 L -111.044,-161.558 L -110.923,-161.367 L -110.826,-161.163 L -110.757,-160.948
 L -110.714,-160.726 L -110.7,-160.5 L -110.714,-160.274 L -110.757,-160.052 L -110.826,-159.837 L -110.923,-159.633
 L -111.044,-159.442 L -111.188,-159.268 L -111.353,-159.113 L -111.536,-158.98 L -111.734,-158.871 L -111.944,-158.788
 L -112.163,-158.732 L -112.387,-158.704 z
M 112.387,-158.704 L 112.163,-158.732 L 111.944,-158.788 L 111.734,-158.871 L 111.536,-158.98 L 111.353,-159.113
 L 111.188,-159.268 L 111.044,-159.442 L 110.923,-159.633 L 110.826,-159.837 L 110.757,-160.052 L 110.714,-160.274
 L 110.7,-160.5 L 110.714,-160.726 L 110.757,-160.948 L 110.826,-161.163 L 110.923,-161.367 L 111.044,-161.558
 L 111.188,-161.732 L 111.353,-161.887 L 111.536,-162.02 L 111.734,-162.129 L 111.944,-162.212 L 112.163,-162.268
 L 112.387,-162.296 L 112.613,-162.296 L 112.837,-162.268 L 113.056,-162.212 L 113.266,-162.129 L 113.464,-162.02
 L 113.647,-161.887 L 113.812,-161.732 L 113.956,-161.558 L 114.077,-161.367 L 114.174,-161.163 L 114.243,-160.948
 L 114.286,-160.726 L 114.3,-160.5 L 114.286,-160.274 L 114.243,-160.052 L 114.174,-159.837 L 114.077,-159.633
 L 113.956,-159.442 L 113.812,-159.268 L 113.647,-159.113 L 113.464,-158.98 L 113.266,-158.871 L 113.056,-158.788
 L 112.837,-158.732 L 112.613,-158.704 z
M 112.387,-113.704 L 112.163,-113.732 L 111.944,-113.788 L 111.734,-113.871 L 111.536,-113.98 L 111.353,-114.113
 L 111.188,-114.268 L 111.044,-114.442 L 110.923,-114.633 L 110.826,-114.837 L 110.757,-115.052 L 110.714,-115.274
 L 110.7,-115.5 L 110.714,-115.726 L 110.757,-115.948 L 110.826,-116.163 L 110.923,-116.367 L 111.044,-116.558
 L 111.188,-116.732 L 111.353,-116.887 L 111.536,-117.02 L 111.734,-117.129 L 111.944,-117.212 L 112.163,-117.268
 L 112.387,-117.296 L 112.613,-117.296 L 112.837,-117.268 L 113.056,-117.212 L 113.266,-117.129 L 113.464,-117.02
 L 113.647,-116.887 L 113.812,-116.732 L 113.956,-116.558 L 114.077,-116.367 L 114.174,-116.163 L 114.243,-115.948
 L 114.286,-115.726 L 114.3,-115.5 L 114.286,-115.274 L 114.243,-115.052 L 114.174,-114.837 L 114.077,-114.633
 L 113.956,-114.442 L 113.812,-114.268 L 113.647,-114.113 L 113.464,-113.98 L 113.266,-113.871 L 113.056,-113.788
 L 112.837,-113.732 L 112.613,-113.704 z
M -112.613,-113.704 L -112.837,-113.732 L -113.056,-113.788 L -113.266,-113.871 L -113.464,-113.98 L -113.647,-114.113
 L -113.812,-114.268 L -113.956,-114.442 L -114.077,-114.633 L -114.174,-114.837 L -114.243,-115.052 L -114.286,-115.274
 L -114.3,-115.5 L -114.286,-115.726 L -114.243,-115.948 L -114.174,-116.163 L -114.077,-116.367 L -113.956,-116.558
 L -113.812,-116.732 L -113.647,-116.887 L -113.464,-117.02 L -113.266,-117.129 L -113.056,-117.212 L -112.837,-117.268
 L -112.613,-117.296 L -112.387,-117.296 L -112.163,-117.268 L -111.944,-117.212 L -111.734,-117.129 L -111.536,-117.02
 L -111.353,-116.887 L -111.188,-116.732 L -111.044,-116.558 L -110.923,-116.367 L -110.826,-116.163 L -110.757,-115.948
 L -110.714,-115.726 L -110.7,-115.5 L -110.714,-115.274 L -110.757,-115.052 L -110.826,-114.837 L -110.923,-114.633
 L -111.044,-114.442 L -111.188,-114.268 L -111.353,-114.113 L -111.536,-113.98 L -111.734,-113.871 L -111.944,-113.788
 L -112.163,-113.732 L -112.387,-113.704 z
" stroke="black" fill="lightgray" stroke-width="0.5"/>
</svg>
