<?xml version="1.0" standalone="no"?>
<!DOCTYPE svg PUBLIC "-//W3C//DTD SVG 1.1//EN" "http://www.w3.org/Graphics/SVG/1.1/DTD/svg11.dtd">
<svg width="242mm" height="400mm" viewBox="-122 -710 242 400" xmlns="http://www.w3.org/2000/svg" version="1.1">
<title>OpenSCAD Model</title>
<path d="
M 115.937,-514.589 L 116.545,-514.745 L 117.129,-514.976 L 117.679,-515.278 L 118.187,-515.647 L 118.645,-516.077
 L 119.045,-516.561 L 119.382,-517.091 L 119.649,-517.659 L 119.843,-518.257 L 119.961,-518.873 L 120,-519.5
 L 120,-704.5 L 119.961,-705.127 L 119.843,-705.743 L 119.649,-706.341 L 119.382,-706.909 L 119.045,-707.439
 L 118.645,-707.923 L 118.187,-708.353 L 117.679,-708.722 L 117.129,-709.024 L 116.545,-709.255 L 115.937,-709.411
 L 115.314,-709.49 L -115.314,-709.49 L -115.937,-709.411 L -116.545,-709.255 L -117.129,-709.024 L -117.679,-708.722
 L -118.187,-708.353 L -118.5,-708.059 L -118.5,-709.479 L -121.5,-709.479 L -121.5,-514.521 L -118.5,-514.521
 L -118.5,-515.941 L -118.187,-515.647 L -117.679,-515.278 L -117.129,-514.976 L -116.545,-514.745 L -115.937,-514.589
 L -115.314,-514.51 L 115.314,-514.51 z
M -114.695,-516.893 L -115.083,-516.942 L -115.462,-517.039 L -115.825,-517.183 L -116.168,-517.372 L -116.484,-517.601
 L -116.769,-517.869 L -117.018,-518.17 L -117.228,-518.5 L -117.394,-518.854 L -117.515,-519.226 L -117.588,-519.61
 L -117.613,-520 L -117.613,-704 L -117.588,-704.39 L -117.515,-704.774 L -117.394,-705.146 L -117.228,-705.5
 L -117.018,-705.83 L -116.769,-706.131 L -116.484,-706.399 L -116.168,-706.628 L -115.825,-706.817 L -115.462,-706.961
 L -115.083,-707.058 L -114.695,-707.107 L 114.695,-707.107 L 115.083,-707.058 L 115.462,-706.961 L 115.825,-706.817
 L 116.168,-706.628 L 116.484,-706.399 L 116.769,-706.131 L 117.018,-705.83 L 117.228,-705.5 L 117.394,-705.146
 L 117.515,-704.774 L 117.588,-704.39 L 117.613,-704 L 117.613,-520 L 117.588,-519.61 L 117.515,-519.226
 L 117.394,-518.854 L 117.228,-518.5 L 117.018,-518.17 L 116.769,-517.869 L 116.484,-517.601 L 116.168,-517.372
 L 115.825,-517.183 L 115.462,-517.039 L 115.083,-516.942 L 114.695,-516.893 z
M 115.937,-310.589 L 116.545,-310.745 L 117.129,-310.976 L 117.679,-311.278 L 118.187,-311.647 L 118.645,-312.077
 L 119.045,-312.561 L 119.382,-313.091 L 119.649,-313.659 L 119.843,-314.257 L 119.961,-314.873 L 120,-315.5
 L 120,-500.5 L 119.961,-501.127 L 119.843,-501.743 L 119.649,-502.341 L 119.382,-502.909 L 119.045,-503.439
 L 118.645,-503.923 L 118.187,-504.353 L 117.679,-504.722 L 117.129,-505.024 L 116.545,-505.255 L 115.937,-505.411
 L 115.314,-505.49 L -115.314,-505.49 L -115.937,-505.411 L -116.545,-505.255 L -117.129,-505.024 L -117.679,-504.722
 L -118.187,-504.353 L -118.5,-504.059 L -118.5,-504.153 L -121.5,-504.153 L -121.5,-311.847 L -118.5,-311.847
 L -118.5,-311.941 L -118.187,-311.647 L -117.679,-311.278 L -117.129,-310.976 L -116.545,-310.745 L -115.937,-310.589
 L -115.314,-310.51 L 115.314,-310.51 z
M 112.366,-495.869 L 112.1,-495.903 L 111.84,-495.969 L 111.591,-496.068 L 111.356,-496.197 L 111.139,-496.355
 L 110.943,-496.538 L 110.773,-496.745 L 110.629,-496.971 L 110.515,-497.214 L 110.432,-497.469 L 110.382,-497.732
 L 110.365,-498 L 110.382,-498.268 L 110.432,-498.531 L 110.515,-498.786 L 110.629,-499.029 L 110.773,-499.255
 L 110.943,-499.462 L 111.139,-499.645 L 111.356,-499.803 L 111.591,-499.932 L 111.84,-500.031 L 112.1,-500.097
 L 112.366,-500.131 L 112.634,-500.131 L 112.9,-500.097 L 113.16,-500.031 L 113.409,-499.932 L 113.644,-499.803
 L 113.861,-499.645 L 114.057,-499.462 L 114.227,-499.255 L 114.371,-499.029 L 114.485,-498.786 L 114.568,-498.531
 L 114.618,-498.268 L 114.635,-498 L 114.618,-497.732 L 114.568,-497.469 L 114.485,-497.214 L 114.371,-496.971
 L 114.227,-496.745 L 114.057,-496.538 L 113.861,-496.355 L 113.644,-496.197 L 113.409,-496.068 L 113.16,-495.969
 L 112.9,-495.903 L 112.634,-495.869 z
M -112.634,-495.869 L -112.9,-495.903 L -113.16,-495.969 L -113.409,-496.068 L -113.644,-496.197 L -113.861,-496.355
 L -114.057,-496.538 L -114.227,-496.745 L -114.371,-496.971 L -114.485,-497.214 L -114.568,-497.469 L -114.618,-497.732
 L -114.635,-498 L -114.618,-498.268 L -114.568,-498.531 L -114.485,-498.786 L -114.371,-499.029 L -114.227,-499.255
 L -114.057,-499.462 L -113.861,-499.645 L -113.644,-499.803 L -113.409,-499.932 L -113.16,-500.031 L -112.9,-500.097
 L -112.634,-500.131 L -112.366,-500.131 L -112.1,-500.097 L -111.84,-500.031 L -111.591,-499.932 L -111.356,-499.803
 L -111.139,-499.645 L -110.943,-499.462 L -110.773,-499.255 L -110.629,-499.029 L -110.515,-498.786 L -110.432,-498.531
 L -110.382,-498.268 L -110.365,-498 L -110.382,-497.732 L -110.432,-497.469 L -110.515,-497.214 L -110.629,-496.971
 L -110.773,-496.745 L -110.943,-496.538 L -111.139,-496.355 L -111.356,-496.197 L -111.591,-496.068 L -111.84,-495.969
 L -112.1,-495.903 L -112.366,-495.869 z
M 112.366,-315.869 L 112.1,-315.903 L 111.84,-315.969 L 111.591,-316.068 L 111.356,-316.197 L 111.139,-316.355
 L 110.943,-316.538 L 110.773,-316.745 L 110.629,-316.971 L 110.515,-317.214 L 110.432,-317.469 L 110.382,-317.732
 L 110.365,-318 L 110.382,-318.268 L 110.432,-318.531 L 110.515,-318.786 L 110.629,-319.029 L 110.773,-319.255
 L 110.943,-319.462 L 111.139,-319.645 L 111.356,-319.803 L 111.591,-319.932 L 111.84,-320.031 L 112.1,-320.097
 L 112.366,-320.131 L 112.634,-320.131 L 112.9,-320.097 L 113.16,-320.031 L 113.409,-319.932 L 113.644,-319.803
 L 113.861,-319.645 L 114.057,-319.462 L 114.227,-319.255 L 114.371,-319.029 L 114.485,-318.786 L 114.568,-318.531
 L 114.618,-318.268 L 114.635,-318 L 114.618,-317.732 L 114.568,-317.469 L 114.485,-317.214 L 114.371,-316.971
 L 114.227,-316.745 L 114.057,-316.538 L 113.861,-316.355 L 113.644,-316.197 L 113.409,-316.068 L 113.16,-315.969
 L 112.9,-315.903 L 112.634,-315.869 z
M -112.634,-315.869 L -112.9,-315.903 L -113.16,-315.969 L -113.409,-316.068 L -113.644,-316.197 L -113.861,-316.355
 L -114.057,-316.538 L -114.227,-316.745 L -114.371,-316.971 L -114.485,-317.214 L -114.568,-317.469 L -114.618,-317.732
 L -114.635,-318 L -114.618,-318.268 L -114.568,-318.531 L -114.485,-318.786 L -114.371,-319.029 L -114.227,-319.255
 L -114.057,-319.462 L -113.861,-319.645 L -113.644,-319.803 L -113.409,-319.932 L -113.16,-320.031 L -112.9,-320.097
 L -112.634,-320.131 L -112.366,-320.131 L -112.1,-320.097 L -111.84,-320.031 L -111.591,-319.932 L -111.356,-319.803
 L -111.139,-319.645 L -110.943,-319.462 L -110.773,-319.255 L -110.629,-319.029 L -110.515,-318.786 L -110.432,-318.531
 L -110.382,-318.268 L -110.365,-318 L -110.382,-317.732 L -110.432,-317.469 L -110.515,-317.214 L -110.629,-316.971
 L -110.773,-316.745 L -110.943,-316.538 L -111.139,-316.355 L -111.356,-316.197 L -111.591,-316.068 L -111.84,-315.969
 L -112.1,-315.903 L -112.366,-315.869 z
" stroke="black" fill="lightgray" stroke-width="0.5"/>
</svg>
