<?xml version="1.0" standalone="no"?>
<!DOCTYPE svg PUBLIC "-//W3C//DTD SVG 1.1//EN" "http://www.w3.org/Graphics/SVG/1.1/DTD/svg11.dtd">
<svg width="272mm" height="468mm" viewBox="-137 -870 272 468" xmlns="http://www.w3.org/2000/svg" version="1.1">
<title>OpenSCAD Model</title>
<path d="
M -133.5,-721.441 L -133.187,-721.147 L -132.679,-720.778 L -132.129,-720.476 L -131.545,-720.245 L -130.937,-720.089
 L -130.314,-720.01 L 130.314,-720.01 L 130.937,-720.089 L 131.545,-720.245 L 132.129,-720.476 L 132.679,-720.778
 L 133.187,-721.147 L 133.645,-721.577 L 134.045,-722.061 L 134.382,-722.591 L 134.649,-723.159 L 134.843,-723.757
 L 134.961,-724.373 L 135,-725 L 135,-865 L 134.961,-865.627 L 134.843,-866.243 L 134.649,-866.841
 L 134.382,-867.409 L 134.045,-867.939 L 133.645,-868.423 L 133.187,-868.853 L 132.679,-869.222 L 132.129,-869.524
 L 131.545,-869.755 L 130.937,-869.911 L 130.314,-869.99 L -130.314,-869.99 L -130.937,-869.911 L -131.545,-869.755
 L -132.129,-869.524 L -132.679,-869.222 L -133.187,-868.853 L -133.5,-868.559 L -133.5,-869.99 L -136.5,-869.99
 L -136.5,-720.01 L -133.5,-720.01 z
M -129.751,-721.508 L -130.25,-721.571 L -130.736,-721.696 L -131.203,-721.881 L -131.643,-722.123 L -132.05,-722.418
 L -132.416,-722.762 L -132.736,-723.149 L -133.005,-723.573 L -133.219,-724.028 L -133.374,-724.505 L -133.468,-724.999
 L -133.5,-725.5 L -133.5,-864.5 L -133.468,-865.001 L -133.374,-865.495 L -133.219,-865.972 L -133.005,-866.427
 L -132.736,-866.851 L -132.416,-867.238 L -132.05,-867.582 L -131.643,-867.877 L -131.203,-868.119 L -130.736,-868.304
 L -130.25,-868.429 L -129.751,-868.492 L 129.751,-868.492 L 130.25,-868.429 L 130.736,-868.304 L 131.203,-868.119
 L 131.643,-867.877 L 132.05,-867.582 L 132.416,-867.238 L 132.736,-866.851 L 133.005,-866.427 L 133.219,-865.972
 L 133.374,-865.495 L 133.468,-865.001 L 133.5,-864.5 L 133.5,-725.5 L 133.468,-724.999 L 133.374,-724.505
 L 133.219,-724.028 L 133.005,-723.573 L 132.736,-723.149 L 132.416,-722.762 L 132.05,-722.418 L 131.643,-722.123
 L 131.203,-721.881 L 130.736,-721.696 L 130.25,-721.571 L 129.751,-721.508 z
M 130.937,-561.089 L 131.545,-561.245 L 132.129,-561.476 L 132.679,-561.778 L 133.187,-562.147 L 133.645,-562.577
 L 134.045,-563.061 L 134.382,-563.591 L 134.649,-564.159 L 134.843,-564.757 L 134.961,-565.373 L 135,-566
 L 135,-706 L 134.961,-706.627 L 134.843,-707.243 L 134.649,-707.841 L 134.382,-708.409 L 134.045,-708.939
 L 133.645,-709.423 L 133.187,-709.853 L 132.679,-710.222 L 132.129,-710.524 L 131.545,-710.755 L 130.937,-710.911
 L 130.314,-710.99 L -130.314,-710.99 L -130.937,-710.911 L -131.545,-710.755 L -132.129,-710.524 L -132.679,-710.222
 L -133.187,-709.853 L -133.5,-709.559 L -133.5,-710.979 L -136.5,-710.979 L -136.5,-561.021 L -133.5,-561.021
 L -133.5,-562.441 L -133.187,-562.147 L -132.679,-561.778 L -132.129,-561.476 L -131.545,-561.245 L -130.937,-561.089
 L -130.314,-561.01 L 130.314,-561.01 z
M -129.695,-563.393 L -130.083,-563.442 L -130.462,-563.539 L -130.825,-563.683 L -131.168,-563.872 L -131.484,-564.101
 L -131.769,-564.369 L -132.018,-564.67 L -132.228,-565 L -132.394,-565.354 L -132.515,-565.726 L -132.588,-566.11
 L -132.613,-566.5 L -132.613,-705.5 L -132.588,-705.89 L -132.515,-706.274 L -132.394,-706.646 L -132.228,-707
 L -132.018,-707.33 L -131.769,-707.631 L -131.484,-707.899 L -131.168,-708.128 L -130.825,-708.317 L -130.462,-708.461
 L -130.083,-708.558 L -129.695,-708.607 L 129.695,-708.607 L 130.083,-708.558 L 130.462,-708.461 L 130.825,-708.317
 L 131.168,-708.128 L 131.484,-707.899 L 131.769,-707.631 L 132.018,-707.33 L 132.228,-707 L 132.394,-706.646
 L 132.515,-706.274 L 132.588,-705.89 L 132.613,-705.5 L 132.613,-566.5 L 132.588,-566.11 L 132.515,-565.726
 L 132.394,-565.354 L 132.228,-565 L 132.018,-564.67 L 131.769,-564.369 L 131.484,-564.101 L 131.168,-563.872
 L 130.825,-563.683 L 130.462,-563.539 L 130.083,-563.442 L 129.695,-563.393 z
M 130.937,-402.089 L 131.545,-402.245 L 132.129,-402.476 L 132.679,-402.778 L 133.187,-403.147 L 133.645,-403.577
 L 134.045,-404.061 L 134.382,-404.591 L 134.649,-405.159 L 134.843,-405.757 L 134.961,-406.373 L 135,-407
 L 135,-547 L 134.961,-547.627 L 134.843,-548.243 L 134.649,-548.841 L 134.382,-549.409 L 134.045,-549.939
 L 133.645,-550.423 L 133.187,-550.853 L 132.679,-551.222 L 132.129,-551.524 L 131.545,-551.755 L 130.937,-551.911
 L 130.314,-551.99 L -130.314,-551.99 L -130.937,-551.911 L -131.545,-551.755 L -132.129,-551.524 L -132.679,-551.222
 L -133.187,-550.853 L -133.5,-550.559 L -133.5,-550.653 L -136.5,-550.653 L -136.5,-403.347 L -133.5,-403.347
 L -133.5,-403.441 L -133.187,-403.147 L -132.679,-402.778 L -132.129,-402.476 L -131.545,-402.245 L -130.937,-402.089
 L -130.314,-402.01 L 130.314,-402.01 z
M 127.366,-542.369 L 127.1,-542.403 L 126.84,-542.469 L 126.591,-542.568 L 126.356,-542.697 L 126.139,-542.855
 L 125.943,-543.038 L 125.773,-543.245 L 125.629,-543.471 L 125.515,-543.714 L 125.432,-543.969 L 125.382,-544.232
 L 125.365,-544.5 L 125.382,-544.768 L 125.432,-545.031 L 125.515,-545.286 L 125.629,-545.529 L 125.773,-545.755
 L 125.943,-545.962 L 126.139,-546.145 L 126.356,-546.303 L 126.591,-546.432 L 126.84,-546.531 L 127.1,-546.597
 L 127.366,-546.631 L 127.634,-546.631 L 127.9,-546.597 L 128.16,-546.531 L 128.409,-546.432 L 128.644,-546.303
 L 128.861,-546.145 L 129.057,-545.962 L 129.227,-545.755 L 129.371,-545.529 L 129.485,-545.286 L 129.568,-545.031
 L 129.618,-544.768 L 129.635,-544.5 L 129.618,-544.232 L 129.568,-543.969 L 129.485,-543.714 L 129.371,-543.471
 L 129.227,-543.245 L 129.057,-543.038 L 128.861,-542.855 L 128.644,-542.697 L 128.409,-542.568 L 128.16,-542.469
 L 127.9,-542.403 L 127.634,-542.369 z
M -127.634,-542.369 L -127.9,-542.403 L -128.16,-542.469 L -128.409,-542.568 L -128.644,-542.697 L -128.861,-542.855
 L -129.057,-543.038 L -129.227,-543.245 L -129.371,-543.471 L -129.485,-543.714 L -129.568,-543.969 L -129.618,-544.232
 L -129.635,-544.5 L -129.618,-544.768 L -129.568,-545.031 L -129.485,-545.286 L -129.371,-545.529 L -129.227,-545.755
 L -129.057,-545.962 L -128.861,-546.145 L -128.644,-546.303 L -128.409,-546.432 L -128.16,-546.531 L -127.9,-546.597
 L -127.634,-546.631 L -127.366,-546.631 L -127.1,-546.597 L -126.84,-546.531 L -126.591,-546.432 L -126.356,-546.303
 L -126.139,-546.145 L -125.943,-545.962 L -125.773,-545.755 L -125.629,-545.529 L -125.515,-545.286 L -125.432,-545.031
 L -125.382,-544.768 L -125.365,-544.5 L -125.382,-544.232 L -125.432,-543.969 L -125.515,-543.714 L -125.629,-543.471
 L -125.773,-543.245 L -125.943,-543.038 L -126.139,-542.855 L -126.356,-542.697 L -126.591,-542.568 L -126.84,-542.469
 L -127.1,-542.403 L -127.366,-542.369 z
M 127.366,-407.369 L 127.1,-407.403 L 126.84,-407.469 L 126.591,-407.568 L 126.356,-407.697 L 126.139,-407.855
 L 125.943,-408.038 L 125.773,-408.245 L 125.629,-408.471 L 125.515,-408.714 L 125.432,-408.969 L 125.382,-409.232
 L 125.365,-409.5 L 125.382,-409.768 L 125.432,-410.031 L 125.515,-410.286 L 125.629,-410.529 L 125.773,-410.755
 L 125.943,-410.962 L 126.139,-411.145 L 126.356,-411.303 L 126.591,-411.432 L 126.84,-411.531 L 127.1,-411.597
 L 127.366,-411.631 L 127.634,-411.631 L 127.9,-411.597 L 128.16,-411.531 L 128.409,-411.432 L 128.644,-411.303
 L 128.861,-411.145 L 129.057,-410.962 L 129.227,-410.755 L 129.371,-410.529 L 129.485,-410.286 L 129.568,-410.031
 L 129.618,-409.768 L 129.635,-409.5 L 129.618,-409.232 L 129.568,-408.969 L 129.485,-408.714 L 129.371,-408.471
 L 129.227,-408.245 L 129.057,-408.038 L 128.861,-407.855 L 128.644,-407.697 L 128.409,-407.568 L 128.16,-407.469
 L 127.9,-407.403 L 127.634,-407.369 z
M -127.634,-407.369 L -127.9,-407.403 L -128.16,-407.469 L -128.409,-407.568 L -128.644,-407.697 L -128.861,-407.855
 L -129.057,-408.038 L -129.227,-408.245 L -129.371,-408.471 L -129.485,-408.714 L -129.568,-408.969 L -129.618,-409.232
 L -129.635,-409.5 L -129.618,-409.768 L -129.568,-410.031 L -129.485,-410.286 L -129.371,-410.529 L -129.227,-410.755
 L -129.057,-410.962 L -128.861,-411.145 L -128.644,-411.303 L -128.409,-411.432 L -128.16,-411.531 L -127.9,-411.597
 L -127.634,-411.631 L -127.366,-411.631 L -127.1,-411.597 L -126.84,-411.531 L -126.591,-411.432 L -126.356,-411.303
 L -126.139,-411.145 L -125.943,-410.962 L -125.773,-410.755 L -125.629,-410.529 L -125.515,-410.286 L -125.432,-410.031
 L -125.382,-409.768 L -125.365,-409.5 L -125.382,-409.232 L -125.432,-408.969 L -125.515,-408.714 L -125.629,-408.471
 L -125.773,-408.245 L -125.943,-408.038 L -126.139,-407.855 L -126.356,-407.697 L -126.591,-407.568 L -126.84,-407.469
 L -127.1,-407.403 L -127.366,-407.369 z
" stroke="black" fill="lightgray" stroke-width="0.5"/>
</svg>
