<?xml version="1.0" standalone="no"?>
<!DOCTYPE svg PUBLIC "-//W3C//DTD SVG 1.1//EN" "http://www.w3.org/Graphics/SVG/1.1/DTD/svg11.dtd">
<svg width="240mm" height="412mm" viewBox="-120 -794 240 412" xmlns="http://www.w3.org/2000/svg" version="1.1">
<title>OpenSCAD Model</title>
<path d="
M 115.937,-718.589 L 116.545,-718.745 L 117.129,-718.976 L 117.679,-719.278 L 118.187,-719.647 L 118.645,-720.077
 L 119.045,-720.561 L 119.382,-721.091 L 119.649,-721.659 L 119.843,-722.257 L 119.961,-722.873 L 120,-723.5
 L 120,-788.5 L 119.961,-789.127 L 119.843,-789.743 L 119.649,-790.341 L 119.382,-790.909 L 119.045,-791.439
 L 118.645,-791.923 L 118.187,-792.353 L 117.679,-792.722 L 117.129,-793.024 L 116.545,-793.255 L 115.937,-793.411
 L 115.314,-793.49 L -115.314,-793.49 L -115.937,-793.411 L -116.545,-793.255 L -117.129,-793.024 L -117.679,-792.722
 L -118.187,-792.353 L -118.645,-791.923 L -119.045,-791.439 L -119.382,-790.909 L -119.649,-790.341 L -119.843,-789.743
 L -119.961,-789.127 L -120,-788.5 L -120,-723.5 L -119.961,-722.873 L -119.843,-722.257 L -119.649,-721.659
 L -119.382,-721.091 L -119.045,-720.561 L -118.645,-720.077 L -118.187,-719.647 L -117.679,-719.278 L -117.129,-718.976
 L -116.545,-718.745 L -115.937,-718.589 L -115.314,-718.51 L 115.314,-718.51 z
M -115.048,-719.009 L -115.64,-719.084 L -116.218,-719.232 L -116.772,-719.452 L -117.295,-719.739 L -117.778,-720.09
 L -118.213,-720.498 L -118.593,-720.958 L -118.912,-721.462 L -119.166,-722.001 L -119.351,-722.569 L -119.463,-723.155
 L -119.5,-723.75 L -119.5,-788.25 L -119.463,-788.845 L -119.351,-789.431 L -119.166,-789.999 L -118.912,-790.538
 L -118.593,-791.042 L -118.213,-791.502 L -117.778,-791.91 L -117.295,-792.261 L -116.772,-792.548 L -116.218,-792.768
 L -115.64,-792.916 L -115.048,-792.991 L 115.048,-792.991 L 115.64,-792.916 L 116.218,-792.768 L 116.772,-792.548
 L 117.295,-792.261 L 117.778,-791.91 L 118.213,-791.502 L 118.593,-791.042 L 118.912,-790.538 L 119.166,-789.999
 L 119.351,-789.431 L 119.463,-788.845 L 119.5,-788.25 L 119.5,-723.75 L 119.463,-723.155 L 119.351,-722.569
 L 119.166,-722.001 L 118.912,-721.462 L 118.593,-720.958 L 118.213,-720.498 L 117.778,-720.09 L 117.295,-719.739
 L 116.772,-719.452 L 116.218,-719.232 L 115.64,-719.084 L 115.048,-719.009 z
M 115.937,-634.589 L 116.545,-634.745 L 117.129,-634.976 L 117.679,-635.278 L 118.187,-635.647 L 118.645,-636.077
 L 119.045,-636.561 L 119.382,-637.091 L 119.649,-637.659 L 119.843,-638.257 L 119.961,-638.873 L 120,-639.5
 L 120,-704.5 L 119.961,-705.127 L 119.843,-705.743 L 119.649,-706.341 L 119.382,-706.909 L 119.045,-707.439
 L 118.645,-707.923 L 118.187,-708.353 L 117.679,-708.722 L 117.129,-709.024 L 116.545,-709.255 L 115.937,-709.411
 L 115.314,-709.49 L -115.314,-709.49 L -115.937,-709.411 L -116.545,-709.255 L -117.129,-709.024 L -117.679,-708.722
 L -118.187,-708.353 L -118.645,-707.923 L -119.045,-707.439 L -119.382,-706.909 L -119.649,-706.341 L -119.843,-705.743
 L -119.961,-705.127 L -120,-704.5 L -120,-639.5 L -119.961,-638.873 L -119.843,-638.257 L -119.649,-637.659
 L -119.382,-637.091 L -119.045,-636.561 L -118.645,-636.077 L -118.187,-635.647 L -117.679,-635.278 L -117.129,-634.976
 L -116.545,-634.745 L -115.937,-634.589 L -115.314,-634.51 L 115.314,-634.51 z
M -115.048,-635.009 L -115.64,-635.084 L -116.218,-635.232 L -116.772,-635.452 L -117.295,-635.739 L -117.778,-636.09
 L -118.213,-636.498 L -118.593,-636.958 L -118.912,-637.462 L -119.166,-638.001 L -119.351,-638.569 L -119.463,-639.155
 L -119.5,-639.75 L -119.5,-704.25 L -119.463,-704.845 L -119.351,-705.431 L -119.166,-705.999 L -118.912,-706.538
 L -118.593,-707.042 L -118.213,-707.502 L -117.778,-707.91 L -117.295,-708.261 L -116.772,-708.548 L -116.218,-708.768
 L -115.64,-708.916 L -115.048,-708.991 L 115.048,-708.991 L 115.64,-708.916 L 116.218,-708.768 L 116.772,-708.548
 L 117.295,-708.261 L 117.778,-707.91 L 118.213,-707.502 L 118.593,-707.042 L 118.912,-706.538 L 119.166,-705.999
 L 119.351,-705.431 L 119.463,-704.845 L 119.5,-704.25 L 119.5,-639.75 L 119.463,-639.155 L 119.351,-638.569
 L 119.166,-638.001 L 118.912,-637.462 L 118.593,-636.958 L 118.213,-636.498 L 117.778,-636.09 L 117.295,-635.739
 L 116.772,-635.452 L 116.218,-635.232 L 115.64,-635.084 L 115.048,-635.009 z
M 115.937,-550.589 L 116.545,-550.745 L 117.129,-550.976 L 117.679,-551.278 L 118.187,-551.647 L 118.645,-552.077
 L 119.045,-552.561 L 119.382,-553.091 L 119.649,-553.659 L 119.843,-554.257 L 119.961,-554.873 L 120,-555.5
 L 120,-620.5 L 119.961,-621.127 L 119.843,-621.743 L 119.649,-622.341 L 119.382,-622.909 L 119.045,-623.439
 L 118.645,-623.923 L 118.187,-624.353 L 117.679,-624.722 L 117.129,-625.024 L 116.545,-625.255 L 115.937,-625.411
 L 115.314,-625.49 L -115.314,-625.49 L -115.937,-625.411 L -116.545,-625.255 L -117.129,-625.024 L -117.679,-624.722
 L -118.187,-624.353 L -118.645,-623.923 L -119.045,-623.439 L -119.382,-622.909 L -119.649,-622.341 L -119.843,-621.743
 L -119.961,-621.127 L -120,-620.5 L -120,-555.5 L -119.961,-554.873 L -119.843,-554.257 L -119.649,-553.659
 L -119.382,-553.091 L -119.045,-552.561 L -118.645,-552.077 L -118.187,-551.647 L -117.679,-551.278 L -117.129,-550.976
 L -116.545,-550.745 L -115.937,-550.589 L -115.314,-550.51 L 115.314,-550.51 z
M -115.048,-551.009 L -115.64,-551.084 L -116.218,-551.232 L -116.772,-551.452 L -117.295,-551.739 L -117.778,-552.09
 L -118.213,-552.498 L -118.593,-552.958 L -118.912,-553.462 L -119.166,-554.001 L -119.351,-554.569 L -119.463,-555.155
 L -119.5,-555.75 L -119.5,-620.25 L -119.463,-620.845 L -119.351,-621.431 L -119.166,-621.999 L -118.912,-622.538
 L -118.593,-623.042 L -118.213,-623.502 L -117.778,-623.91 L -117.295,-624.261 L -116.772,-624.548 L -116.218,-624.768
 L -115.64,-624.916 L -115.048,-624.991 L 115.048,-624.991 L 115.64,-624.916 L 116.218,-624.768 L 116.772,-624.548
 L 117.295,-624.261 L 117.778,-623.91 L 118.213,-623.502 L 118.593,-623.042 L 118.912,-622.538 L 119.166,-621.999
 L 119.351,-621.431 L 119.463,-620.845 L 119.5,-620.25 L 119.5,-555.75 L 119.463,-555.155 L 119.351,-554.569
 L 119.166,-554.001 L 118.912,-553.462 L 118.593,-552.958 L 118.213,-552.498 L 117.778,-552.09 L 117.295,-551.739
 L 116.772,-551.452 L 116.218,-551.232 L 115.64,-551.084 L 115.048,-551.009 z
M 115.937,-466.589 L 116.545,-466.745 L 117.129,-466.976 L 117.679,-467.278 L 118.187,-467.647 L 118.645,-468.077
 L 119.045,-468.561 L 119.382,-469.091 L 119.649,-469.659 L 119.843,-470.257 L 119.961,-470.873 L 120,-471.5
 L 120,-536.5 L 119.961,-537.127 L 119.843,-537.743 L 119.649,-538.341 L 119.382,-538.909 L 119.045,-539.439
 L 118.645,-539.923 L 118.187,-540.353 L 117.679,-540.722 L 117.129,-541.024 L 116.545,-541.255 L 115.937,-541.411
 L 115.314,-541.49 L -115.314,-541.49 L -115.937,-541.411 L -116.545,-541.255 L -117.129,-541.024 L -117.679,-540.722
 L -118.187,-540.353 L -118.645,-539.923 L -119.045,-539.439 L -119.382,-538.909 L -119.649,-538.341 L -119.843,-537.743
 L -119.961,-537.127 L -120,-536.5 L -120,-471.5 L -119.961,-470.873 L -119.843,-470.257 L -119.649,-469.659
 L -119.382,-469.091 L -119.045,-468.561 L -118.645,-468.077 L -118.187,-467.647 L -117.679,-467.278 L -117.129,-466.976
 L -116.545,-466.745 L -115.937,-466.589 L -115.314,-466.51 L 115.314,-466.51 z
M -115.037,-467.181 L -115.608,-467.253 L -116.165,-467.396 L -116.699,-467.607 L -117.203,-467.884 L -117.668,-468.222
 L -118.088,-468.616 L -118.454,-469.059 L -118.762,-469.544 L -119.007,-470.065 L -119.185,-470.611 L -119.292,-471.176
 L -119.328,-471.75 L -119.328,-536.25 L -119.292,-536.824 L -119.185,-537.389 L -119.007,-537.935 L -118.762,-538.456
 L -118.454,-538.941 L -118.088,-539.384 L -117.668,-539.778 L -117.203,-540.116 L -116.699,-540.393 L -116.165,-540.604
 L -115.608,-540.747 L -115.037,-540.819 L 115.037,-540.819 L 115.608,-540.747 L 116.165,-540.604 L 116.699,-540.393
 L 117.203,-540.116 L 117.668,-539.778 L 118.088,-539.384 L 118.454,-538.941 L 118.762,-538.456 L 119.007,-537.935
 L 119.185,-537.389 L 119.292,-536.824 L 119.328,-536.25 L 119.328,-471.75 L 119.292,-471.176 L 119.185,-470.611
 L 119.007,-470.065 L 118.762,-469.544 L 118.454,-469.059 L 118.088,-468.616 L 117.668,-468.222 L 117.203,-467.884
 L 116.699,-467.607 L 116.165,-467.396 L 115.608,-467.253 L 115.037,-467.181 z
M 115.937,-382.589 L 116.545,-382.745 L 117.129,-382.976 L 117.679,-383.278 L 118.187,-383.647 L 118.645,-384.077
 L 119.045,-384.561 L 119.382,-385.091 L 119.649,-385.659 L 119.843,-386.257 L 119.961,-386.873 L 120,-387.5
 L 120,-452.5 L 119.961,-453.127 L 119.843,-453.743 L 119.649,-454.341 L 119.382,-454.909 L 119.045,-455.439
 L 118.645,-455.923 L 118.187,-456.353 L 117.679,-456.722 L 117.129,-457.024 L 116.545,-457.255 L 115.937,-457.411
 L 115.314,-457.49 L -115.314,-457.49 L -115.937,-457.411 L -116.545,-457.255 L -117.129,-457.024 L -117.679,-456.722
 L -118.187,-456.353 L -118.645,-455.923 L -119.045,-455.439 L -119.382,-454.909 L -119.649,-454.341 L -119.843,-453.743
 L -119.961,-453.127 L -120,-452.5 L -120,-387.5 L -119.961,-386.873 L -119.843,-386.257 L -119.649,-385.659
 L -119.382,-385.091 L -119.045,-384.561 L -118.645,-384.077 L -118.187,-383.647 L -117.679,-383.278 L -117.129,-382.976
 L -116.545,-382.745 L -115.937,-382.589 L -115.314,-382.51 L 115.314,-382.51 z
M -114.882,-385.645 L -115.145,-385.678 L -115.402,-385.744 L -115.648,-385.841 L -115.88,-385.969 L -116.095,-386.125
 L -116.288,-386.306 L -116.457,-386.51 L -116.599,-386.734 L -116.711,-386.973 L -116.793,-387.225 L -116.843,-387.486
 L -116.86,-387.75 L -116.86,-452.25 L -116.843,-452.514 L -116.793,-452.775 L -116.711,-453.027 L -116.599,-453.266
 L -116.457,-453.49 L -116.288,-453.694 L -116.095,-453.875 L -115.88,-454.031 L -115.648,-454.159 L -115.402,-454.256
 L -115.145,-454.322 L -114.882,-454.355 L 114.882,-454.355 L 115.145,-454.322 L 115.402,-454.256 L 115.648,-454.159
 L 115.88,-454.031 L 116.095,-453.875 L 116.288,-453.694 L 116.457,-453.49 L 116.599,-453.266 L 116.711,-453.027
 L 116.793,-452.775 L 116.843,-452.514 L 116.86,-452.25 L 116.86,-387.75 L 116.843,-387.486 L 116.793,-387.225
 L 116.711,-386.973 L 116.599,-386.734 L 116.457,-386.51 L 116.288,-386.306 L 116.095,-386.125 L 115.88,-385.969
 L 115.648,-385.841 L 115.402,-385.744 L 115.145,-385.678 L 114.882,-385.645 z
" stroke="black" fill="lightgray" stroke-width="0.5"/>
</svg>
