  0
SECTION
  2
BLOCKS
  0
ENDSEC
  0
SECTION
  2
ENTITIES
  0
LINE
  8
0
 10
-148.5
 20
748.441
 11
-148.187
 21
748.147
  0
LINE
  8
0
 10
-148.187
 20
748.147
 11
-147.679
 21
747.778
  0
LINE
  8
0
 10
-147.679
 20
747.778
 11
-147.129
 21
747.476
  0
LINE
  8
0
 10
-147.129
 20
747.476
 11
-146.545
 21
747.245
  0
LINE
  8
0
 10
-146.545
 20
747.245
 11
-145.937
 21
747.089
  0
LINE
  8
0
 10
-145.937
 20
747.089
 11
-145.314
 21
747.01
  0
LINE
  8
0
 10
-145.314
 20
747.01
 11
145.314
 21
747.01
  0
LINE
  8
0
 10
145.314
 20
747.01
 11
145.937
 21
747.089
  0
LINE
  8
0
 10
145.937
 20
747.089
 11
146.545
 21
747.245
  0
LINE
  8
0
 10
146.545
 20
747.245
 11
147.129
 21
747.476
  0
LINE
  8
0
 10
147.129
 20
747.476
 11
147.679
 21
747.778
  0
LINE
  8
0
 10
147.679
 20
747.778
 11
148.187
 21
748.147
  0
LINE
  8
0
 10
148.187
 20
748.147
 11
148.645
 21
748.577
  0
LINE
  8
0
 10
148.645
 20
748.577
 11
149.045
 21
749.061
  0
LINE
  8
0
 10
149.045
 20
749.061
 11
149.382
 21
749.591
  0
LINE
  8
0
 10
149.382
 20
749.591
 11
149.649
 21
750.159
  0
LINE
  8
0
 10
149.649
 20
750.159
 11
149.843
 21
750.757
  0
LINE
  8
0
 10
149.843
 20
750.757
 11
149.961
 21
751.373
  0
LINE
  8
0
 10
149.961
 20
751.373
 11
150
 21
752
  0
LINE
  8
0
 10
150
 20
752
 11
150
 21
832
  0
LINE
  8
0
 10
150
 20
832
 11
149.961
 21
832.627
  0
LINE
  8
0
 10
149.961
 20
832.627
 11
149.843
 21
833.243
  0
LINE
  8
0
 10
149.843
 20
833.243
 11
149.649
 21
833.841
  0
LINE
  8
0
 10
149.649
 20
833.841
 11
149.382
 21
834.409
  0
LINE
  8
0
 10
149.382
 20
834.409
 11
149.045
 21
834.939
  0
LINE
  8
0
 10
149.045
 20
834.939
 11
148.645
 21
835.423
  0
LINE
  8
0
 10
148.645
 20
835.423
 11
148.187
 21
835.853
  0
LINE
  8
0
 10
148.187
 20
835.853
 11
147.679
 21
836.222
  0
LINE
  8
0
 10
147.679
 20
836.222
 11
147.129
 21
836.524
  0
LINE
  8
0
 10
147.129
 20
836.524
 11
146.545
 21
836.755
  0
LINE
  8
0
 10
146.545
 20
836.755
 11
145.937
 21
836.911
  0
LINE
  8
0
 10
145.937
 20
836.911
 11
145.314
 21
836.99
  0
LINE
  8
0
 10
145.314
 20
836.99
 11
-145.314
 21
836.99
  0
LINE
  8
0
 10
-145.314
 20
836.99
 11
-145.937
 21
836.911
  0
LINE
  8
0
 10
-145.937
 20
836.911
 11
-146.545
 21
836.755
  0
LINE
  8
0
 10
-146.545
 20
836.755
 11
-147.129
 21
836.524
  0
LINE
  8
0
 10
-147.129
 20
836.524
 11
-147.679
 21
836.222
  0
LINE
  8
0
 10
-147.679
 20
836.222
 11
-148.187
 21
835.853
  0
LINE
  8
0
 10
-148.187
 20
835.853
 11
-148.5
 21
835.559
  0
LINE
  8
0
 10
-148.5
 20
835.559
 11
-148.5
 21
836.99
  0
LINE
  8
0
 10
-148.5
 20
836.99
 11
-151.5
 21
836.99
  0
LINE
  8
0
 10
-151.5
 20
836.99
 11
-151.5
 21
747.01
  0
LINE
  8
0
 10
-151.5
 20
747.01
 11
-148.5
 21
747.01
  0
LINE
  8
0
 10
-148.5
 20
747.01
 11
-148.5
 21
748.441
  0
LINE
  8
0
 10
-144.751
 20
748.508
 11
-145.25
 21
748.571
  0
LINE
  8
0
 10
-145.25
 20
748.571
 11
-145.736
 21
748.696
  0
LINE
  8
0
 10
-145.736
 20
748.696
 11
-146.203
 21
748.881
  0
LINE
  8
0
 10
-146.203
 20
748.881
 11
-146.643
 21
749.123
  0
LINE
  8
0
 10
-146.643
 20
749.123
 11
-147.05
 21
749.418
  0
LINE
  8
0
 10
-147.05
 20
749.418
 11
-147.416
 21
749.762
  0
LINE
  8
0
 10
-147.416
 20
749.762
 11
-147.736
 21
750.149
  0
LINE
  8
0
 10
-147.736
 20
750.149
 11
-148.005
 21
750.573
  0
LINE
  8
0
 10
-148.005
 20
750.573
 11
-148.219
 21
751.028
  0
LINE
  8
0
 10
-148.219
 20
751.028
 11
-148.374
 21
751.505
  0
LINE
  8
0
 10
-148.374
 20
751.505
 11
-148.468
 21
751.999
  0
LINE
  8
0
 10
-148.468
 20
751.999
 11
-148.5
 21
752.5
  0
LINE
  8
0
 10
-148.5
 20
752.5
 11
-148.5
 21
831.5
  0
LINE
  8
0
 10
-148.5
 20
831.5
 11
-148.468
 21
832.001
  0
LINE
  8
0
 10
-148.468
 20
832.001
 11
-148.374
 21
832.495
  0
LINE
  8
0
 10
-148.374
 20
832.495
 11
-148.219
 21
832.972
  0
LINE
  8
0
 10
-148.219
 20
832.972
 11
-148.005
 21
833.427
  0
LINE
  8
0
 10
-148.005
 20
833.427
 11
-147.736
 21
833.851
  0
LINE
  8
0
 10
-147.736
 20
833.851
 11
-147.416
 21
834.238
  0
LINE
  8
0
 10
-147.416
 20
834.238
 11
-147.05
 21
834.582
  0
LINE
  8
0
 10
-147.05
 20
834.582
 11
-146.643
 21
834.877
  0
LINE
  8
0
 10
-146.643
 20
834.877
 11
-146.203
 21
835.119
  0
LINE
  8
0
 10
-146.203
 20
835.119
 11
-145.736
 21
835.304
  0
LINE
  8
0
 10
-145.736
 20
835.304
 11
-145.25
 21
835.429
  0
LINE
  8
0
 10
-145.25
 20
835.429
 11
-144.751
 21
835.492
  0
LINE
  8
0
 10
-144.751
 20
835.492
 11
144.751
 21
835.492
  0
LINE
  8
0
 10
144.751
 20
835.492
 11
145.25
 21
835.429
  0
LINE
  8
0
 10
145.25
 20
835.429
 11
145.736
 21
835.304
  0
LINE
  8
0
 10
145.736
 20
835.304
 11
146.203
 21
835.119
  0
LINE
  8
0
 10
146.203
 20
835.119
 11
146.643
 21
834.877
  0
LINE
  8
0
 10
146.643
 20
834.877
 11
147.05
 21
834.582
  0
LINE
  8
0
 10
147.05
 20
834.582
 11
147.416
 21
834.238
  0
LINE
  8
0
 10
147.416
 20
834.238
 11
147.736
 21
833.851
  0
LINE
  8
0
 10
147.736
 20
833.851
 11
148.005
 21
833.427
  0
LINE
  8
0
 10
148.005
 20
833.427
 11
148.219
 21
832.972
  0
LINE
  8
0
 10
148.219
 20
832.972
 11
148.374
 21
832.495
  0
LINE
  8
0
 10
148.374
 20
832.495
 11
148.468
 21
832.001
  0
LINE
  8
0
 10
148.468
 20
832.001
 11
148.5
 21
831.5
  0
LINE
  8
0
 10
148.5
 20
831.5
 11
148.5
 21
752.5
  0
LINE
  8
0
 10
148.5
 20
752.5
 11
148.468
 21
751.999
  0
LINE
  8
0
 10
148.468
 20
751.999
 11
148.374
 21
751.505
  0
LINE
  8
0
 10
148.374
 20
751.505
 11
148.219
 21
751.028
  0
LINE
  8
0
 10
148.219
 20
751.028
 11
148.005
 21
750.573
  0
LINE
  8
0
 10
148.005
 20
750.573
 11
147.736
 21
750.149
  0
LINE
  8
0
 10
147.736
 20
750.149
 11
147.416
 21
749.762
  0
LINE
  8
0
 10
147.416
 20
749.762
 11
147.05
 21
749.418
  0
LINE
  8
0
 10
147.05
 20
749.418
 11
146.643
 21
749.123
  0
LINE
  8
0
 10
146.643
 20
749.123
 11
146.203
 21
748.881
  0
LINE
  8
0
 10
146.203
 20
748.881
 11
145.736
 21
748.696
  0
LINE
  8
0
 10
145.736
 20
748.696
 11
145.25
 21
748.571
  0
LINE
  8
0
 10
145.25
 20
748.571
 11
144.751
 21
748.508
  0
LINE
  8
0
 10
144.751
 20
748.508
 11
-144.751
 21
748.508
  0
LINE
  8
0
 10
-148.5
 20
649.441
 11
-148.187
 21
649.147
  0
LINE
  8
0
 10
-148.187
 20
649.147
 11
-147.679
 21
648.778
  0
LINE
  8
0
 10
-147.679
 20
648.778
 11
-147.129
 21
648.476
  0
LINE
  8
0
 10
-147.129
 20
648.476
 11
-146.545
 21
648.245
  0
LINE
  8
0
 10
-146.545
 20
648.245
 11
-145.937
 21
648.089
  0
LINE
  8
0
 10
-145.937
 20
648.089
 11
-145.314
 21
648.01
  0
LINE
  8
0
 10
-145.314
 20
648.01
 11
145.314
 21
648.01
  0
LINE
  8
0
 10
145.314
 20
648.01
 11
145.937
 21
648.089
  0
LINE
  8
0
 10
145.937
 20
648.089
 11
146.545
 21
648.245
  0
LINE
  8
0
 10
146.545
 20
648.245
 11
147.129
 21
648.476
  0
LINE
  8
0
 10
147.129
 20
648.476
 11
147.679
 21
648.778
  0
LINE
  8
0
 10
147.679
 20
648.778
 11
148.187
 21
649.147
  0
LINE
  8
0
 10
148.187
 20
649.147
 11
148.645
 21
649.577
  0
LINE
  8
0
 10
148.645
 20
649.577
 11
149.045
 21
650.061
  0
LINE
  8
0
 10
149.045
 20
650.061
 11
149.382
 21
650.591
  0
LINE
  8
0
 10
149.382
 20
650.591
 11
149.649
 21
651.159
  0
LINE
  8
0
 10
149.649
 20
651.159
 11
149.843
 21
651.757
  0
LINE
  8
0
 10
149.843
 20
651.757
 11
149.961
 21
652.373
  0
LINE
  8
0
 10
149.961
 20
652.373
 11
150
 21
653
  0
LINE
  8
0
 10
150
 20
653
 11
150
 21
733
  0
LINE
  8
0
 10
150
 20
733
 11
149.961
 21
733.627
  0
LINE
  8
0
 10
149.961
 20
733.627
 11
149.843
 21
734.243
  0
LINE
  8
0
 10
149.843
 20
734.243
 11
149.649
 21
734.841
  0
LINE
  8
0
 10
149.649
 20
734.841
 11
149.382
 21
735.409
  0
LINE
  8
0
 10
149.382
 20
735.409
 11
149.045
 21
735.939
  0
LINE
  8
0
 10
149.045
 20
735.939
 11
148.645
 21
736.423
  0
LINE
  8
0
 10
148.645
 20
736.423
 11
148.187
 21
736.853
  0
LINE
  8
0
 10
148.187
 20
736.853
 11
147.679
 21
737.222
  0
LINE
  8
0
 10
147.679
 20
737.222
 11
147.129
 21
737.524
  0
LINE
  8
0
 10
147.129
 20
737.524
 11
146.545
 21
737.755
  0
LINE
  8
0
 10
146.545
 20
737.755
 11
145.937
 21
737.911
  0
LINE
  8
0
 10
145.937
 20
737.911
 11
145.314
 21
737.99
  0
LINE
  8
0
 10
145.314
 20
737.99
 11
-145.314
 21
737.99
  0
LINE
  8
0
 10
-145.314
 20
737.99
 11
-145.937
 21
737.911
  0
LINE
  8
0
 10
-145.937
 20
737.911
 11
-146.545
 21
737.755
  0
LINE
  8
0
 10
-146.545
 20
737.755
 11
-147.129
 21
737.524
  0
LINE
  8
0
 10
-147.129
 20
737.524
 11
-147.679
 21
737.222
  0
LINE
  8
0
 10
-147.679
 20
737.222
 11
-148.187
 21
736.853
  0
LINE
  8
0
 10
-148.187
 20
736.853
 11
-148.5
 21
736.559
  0
LINE
  8
0
 10
-148.5
 20
736.559
 11
-148.5
 21
737.99
  0
LINE
  8
0
 10
-148.5
 20
737.99
 11
-151.5
 21
737.99
  0
LINE
  8
0
 10
-151.5
 20
737.99
 11
-151.5
 21
648.01
  0
LINE
  8
0
 10
-151.5
 20
648.01
 11
-148.5
 21
648.01
  0
LINE
  8
0
 10
-148.5
 20
648.01
 11
-148.5
 21
649.441
  0
LINE
  8
0
 10
-144.751
 20
649.508
 11
-145.25
 21
649.571
  0
LINE
  8
0
 10
-145.25
 20
649.571
 11
-145.736
 21
649.696
  0
LINE
  8
0
 10
-145.736
 20
649.696
 11
-146.203
 21
649.881
  0
LINE
  8
0
 10
-146.203
 20
649.881
 11
-146.643
 21
650.123
  0
LINE
  8
0
 10
-146.643
 20
650.123
 11
-147.05
 21
650.418
  0
LINE
  8
0
 10
-147.05
 20
650.418
 11
-147.416
 21
650.762
  0
LINE
  8
0
 10
-147.416
 20
650.762
 11
-147.736
 21
651.149
  0
LINE
  8
0
 10
-147.736
 20
651.149
 11
-148.005
 21
651.573
  0
LINE
  8
0
 10
-148.005
 20
651.573
 11
-148.219
 21
652.028
  0
LINE
  8
0
 10
-148.219
 20
652.028
 11
-148.374
 21
652.505
  0
LINE
  8
0
 10
-148.374
 20
652.505
 11
-148.468
 21
652.999
  0
LINE
  8
0
 10
-148.468
 20
652.999
 11
-148.5
 21
653.5
  0
LINE
  8
0
 10
-148.5
 20
653.5
 11
-148.5
 21
732.5
  0
LINE
  8
0
 10
-148.5
 20
732.5
 11
-148.468
 21
733.001
  0
LINE
  8
0
 10
-148.468
 20
733.001
 11
-148.374
 21
733.495
  0
LINE
  8
0
 10
-148.374
 20
733.495
 11
-148.219
 21
733.972
  0
LINE
  8
0
 10
-148.219
 20
733.972
 11
-148.005
 21
734.427
  0
LINE
  8
0
 10
-148.005
 20
734.427
 11
-147.736
 21
734.851
  0
LINE
  8
0
 10
-147.736
 20
734.851
 11
-147.416
 21
735.238
  0
LINE
  8
0
 10
-147.416
 20
735.238
 11
-147.05
 21
735.582
  0
LINE
  8
0
 10
-147.05
 20
735.582
 11
-146.643
 21
735.877
  0
LINE
  8
0
 10
-146.643
 20
735.877
 11
-146.203
 21
736.119
  0
LINE
  8
0
 10
-146.203
 20
736.119
 11
-145.736
 21
736.304
  0
LINE
  8
0
 10
-145.736
 20
736.304
 11
-145.25
 21
736.429
  0
LINE
  8
0
 10
-145.25
 20
736.429
 11
-144.751
 21
736.492
  0
LINE
  8
0
 10
-144.751
 20
736.492
 11
144.751
 21
736.492
  0
LINE
  8
0
 10
144.751
 20
736.492
 11
145.25
 21
736.429
  0
LINE
  8
0
 10
145.25
 20
736.429
 11
145.736
 21
736.304
  0
LINE
  8
0
 10
145.736
 20
736.304
 11
146.203
 21
736.119
  0
LINE
  8
0
 10
146.203
 20
736.119
 11
146.643
 21
735.877
  0
LINE
  8
0
 10
146.643
 20
735.877
 11
147.05
 21
735.582
  0
LINE
  8
0
 10
147.05
 20
735.582
 11
147.416
 21
735.238
  0
LINE
  8
0
 10
147.416
 20
735.238
 11
147.736
 21
734.851
  0
LINE
  8
0
 10
147.736
 20
734.851
 11
148.005
 21
734.427
  0
LINE
  8
0
 10
148.005
 20
734.427
 11
148.219
 21
733.972
  0
LINE
  8
0
 10
148.219
 20
733.972
 11
148.374
 21
733.495
  0
LINE
  8
0
 10
148.374
 20
733.495
 11
148.468
 21
733.001
  0
LINE
  8
0
 10
148.468
 20
733.001
 11
148.5
 21
732.5
  0
LINE
  8
0
 10
148.5
 20
732.5
 11
148.5
 21
653.5
  0
LINE
  8
0
 10
148.5
 20
653.5
 11
148.468
 21
652.999
  0
LINE
  8
0
 10
148.468
 20
652.999
 11
148.374
 21
652.505
  0
LINE
  8
0
 10
148.374
 20
652.505
 11
148.219
 21
652.028
  0
LINE
  8
0
 10
148.219
 20
652.028
 11
148.005
 21
651.573
  0
LINE
  8
0
 10
148.005
 20
651.573
 11
147.736
 21
651.149
  0
LINE
  8
0
 10
147.736
 20
651.149
 11
147.416
 21
650.762
  0
LINE
  8
0
 10
147.416
 20
650.762
 11
147.05
 21
650.418
  0
LINE
  8
0
 10
147.05
 20
650.418
 11
146.643
 21
650.123
  0
LINE
  8
0
 10
146.643
 20
650.123
 11
146.203
 21
649.881
  0
LINE
  8
0
 10
146.203
 20
649.881
 11
145.736
 21
649.696
  0
LINE
  8
0
 10
145.736
 20
649.696
 11
145.25
 21
649.571
  0
LINE
  8
0
 10
145.25
 20
649.571
 11
144.751
 21
649.508
  0
LINE
  8
0
 10
144.751
 20
649.508
 11
-144.751
 21
649.508
  0
LINE
  8
0
 10
-148.5
 20
550.441
 11
-148.187
 21
550.147
  0
LINE
  8
0
 10
-148.187
 20
550.147
 11
-147.679
 21
549.778
  0
LINE
  8
0
 10
-147.679
 20
549.778
 11
-147.129
 21
549.476
  0
LINE
  8
0
 10
-147.129
 20
549.476
 11
-146.545
 21
549.245
  0
LINE
  8
0
 10
-146.545
 20
549.245
 11
-145.937
 21
549.089
  0
LINE
  8
0
 10
-145.937
 20
549.089
 11
-145.314
 21
549.01
  0
LINE
  8
0
 10
-145.314
 20
549.01
 11
145.314
 21
549.01
  0
LINE
  8
0
 10
145.314
 20
549.01
 11
145.937
 21
549.089
  0
LINE
  8
0
 10
145.937
 20
549.089
 11
146.545
 21
549.245
  0
LINE
  8
0
 10
146.545
 20
549.245
 11
147.129
 21
549.476
  0
LINE
  8
0
 10
147.129
 20
549.476
 11
147.679
 21
549.778
  0
LINE
  8
0
 10
147.679
 20
549.778
 11
148.187
 21
550.147
  0
LINE
  8
0
 10
148.187
 20
550.147
 11
148.645
 21
550.577
  0
LINE
  8
0
 10
148.645
 20
550.577
 11
149.045
 21
551.061
  0
LINE
  8
0
 10
149.045
 20
551.061
 11
149.382
 21
551.591
  0
LINE
  8
0
 10
149.382
 20
551.591
 11
149.649
 21
552.159
  0
LINE
  8
0
 10
149.649
 20
552.159
 11
149.843
 21
552.757
  0
LINE
  8
0
 10
149.843
 20
552.757
 11
149.961
 21
553.373
  0
LINE
  8
0
 10
149.961
 20
553.373
 11
150
 21
554
  0
LINE
  8
0
 10
150
 20
554
 11
150
 21
634
  0
LINE
  8
0
 10
150
 20
634
 11
149.961
 21
634.627
  0
LINE
  8
0
 10
149.961
 20
634.627
 11
149.843
 21
635.243
  0
LINE
  8
0
 10
149.843
 20
635.243
 11
149.649
 21
635.841
  0
LINE
  8
0
 10
149.649
 20
635.841
 11
149.382
 21
636.409
  0
LINE
  8
0
 10
149.382
 20
636.409
 11
149.045
 21
636.939
  0
LINE
  8
0
 10
149.045
 20
636.939
 11
148.645
 21
637.423
  0
LINE
  8
0
 10
148.645
 20
637.423
 11
148.187
 21
637.853
  0
LINE
  8
0
 10
148.187
 20
637.853
 11
147.679
 21
638.222
  0
LINE
  8
0
 10
147.679
 20
638.222
 11
147.129
 21
638.524
  0
LINE
  8
0
 10
147.129
 20
638.524
 11
146.545
 21
638.755
  0
LINE
  8
0
 10
146.545
 20
638.755
 11
145.937
 21
638.911
  0
LINE
  8
0
 10
145.937
 20
638.911
 11
145.314
 21
638.99
  0
LINE
  8
0
 10
145.314
 20
638.99
 11
-145.314
 21
638.99
  0
LINE
  8
0
 10
-145.314
 20
638.99
 11
-145.937
 21
638.911
  0
LINE
  8
0
 10
-145.937
 20
638.911
 11
-146.545
 21
638.755
  0
LINE
  8
0
 10
-146.545
 20
638.755
 11
-147.129
 21
638.524
  0
LINE
  8
0
 10
-147.129
 20
638.524
 11
-147.679
 21
638.222
  0
LINE
  8
0
 10
-147.679
 20
638.222
 11
-148.187
 21
637.853
  0
LINE
  8
0
 10
-148.187
 20
637.853
 11
-148.5
 21
637.559
  0
LINE
  8
0
 10
-148.5
 20
637.559
 11
-148.5
 21
638.99
  0
LINE
  8
0
 10
-148.5
 20
638.99
 11
-151.5
 21
638.99
  0
LINE
  8
0
 10
-151.5
 20
638.99
 11
-151.5
 21
549.01
  0
LINE
  8
0
 10
-151.5
 20
549.01
 11
-148.5
 21
549.01
  0
LINE
  8
0
 10
-148.5
 20
549.01
 11
-148.5
 21
550.441
  0
LINE
  8
0
 10
-144.743
 20
550.635
 11
-145.226
 21
550.696
  0
LINE
  8
0
 10
-145.226
 20
550.696
 11
-145.697
 21
550.817
  0
LINE
  8
0
 10
-145.697
 20
550.817
 11
-146.149
 21
550.996
  0
LINE
  8
0
 10
-146.149
 20
550.996
 11
-146.575
 21
551.23
  0
LINE
  8
0
 10
-146.575
 20
551.23
 11
-146.969
 21
551.516
  0
LINE
  8
0
 10
-146.969
 20
551.516
 11
-147.323
 21
551.849
  0
LINE
  8
0
 10
-147.323
 20
551.849
 11
-147.633
 21
552.224
  0
LINE
  8
0
 10
-147.633
 20
552.224
 11
-147.894
 21
552.634
  0
LINE
  8
0
 10
-147.894
 20
552.634
 11
-148.101
 21
553.074
  0
LINE
  8
0
 10
-148.101
 20
553.074
 11
-148.251
 21
553.537
  0
LINE
  8
0
 10
-148.251
 20
553.537
 11
-148.342
 21
554.015
  0
LINE
  8
0
 10
-148.342
 20
554.015
 11
-148.373
 21
554.5
  0
LINE
  8
0
 10
-148.373
 20
554.5
 11
-148.373
 21
633.5
  0
LINE
  8
0
 10
-148.373
 20
633.5
 11
-148.342
 21
633.985
  0
LINE
  8
0
 10
-148.342
 20
633.985
 11
-148.251
 21
634.463
  0
LINE
  8
0
 10
-148.251
 20
634.463
 11
-148.101
 21
634.926
  0
LINE
  8
0
 10
-148.101
 20
634.926
 11
-147.894
 21
635.366
  0
LINE
  8
0
 10
-147.894
 20
635.366
 11
-147.633
 21
635.776
  0
LINE
  8
0
 10
-147.633
 20
635.776
 11
-147.323
 21
636.151
  0
LINE
  8
0
 10
-147.323
 20
636.151
 11
-146.969
 21
636.484
  0
LINE
  8
0
 10
-146.969
 20
636.484
 11
-146.575
 21
636.77
  0
LINE
  8
0
 10
-146.575
 20
636.77
 11
-146.149
 21
637.004
  0
LINE
  8
0
 10
-146.149
 20
637.004
 11
-145.697
 21
637.183
  0
LINE
  8
0
 10
-145.697
 20
637.183
 11
-145.226
 21
637.304
  0
LINE
  8
0
 10
-145.226
 20
637.304
 11
-144.743
 21
637.365
  0
LINE
  8
0
 10
-144.743
 20
637.365
 11
144.743
 21
637.365
  0
LINE
  8
0
 10
144.743
 20
637.365
 11
145.226
 21
637.304
  0
LINE
  8
0
 10
145.226
 20
637.304
 11
145.697
 21
637.183
  0
LINE
  8
0
 10
145.697
 20
637.183
 11
146.149
 21
637.004
  0
LINE
  8
0
 10
146.149
 20
637.004
 11
146.575
 21
636.77
  0
LINE
  8
0
 10
146.575
 20
636.77
 11
146.969
 21
636.484
  0
LINE
  8
0
 10
146.969
 20
636.484
 11
147.323
 21
636.151
  0
LINE
  8
0
 10
147.323
 20
636.151
 11
147.633
 21
635.776
  0
LINE
  8
0
 10
147.633
 20
635.776
 11
147.894
 21
635.366
  0
LINE
  8
0
 10
147.894
 20
635.366
 11
148.101
 21
634.926
  0
LINE
  8
0
 10
148.101
 20
634.926
 11
148.251
 21
634.463
  0
LINE
  8
0
 10
148.251
 20
634.463
 11
148.342
 21
633.985
  0
LINE
  8
0
 10
148.342
 20
633.985
 11
148.373
 21
633.5
  0
LINE
  8
0
 10
148.373
 20
633.5
 11
148.373
 21
554.5
  0
LINE
  8
0
 10
148.373
 20
554.5
 11
148.342
 21
554.015
  0
LINE
  8
0
 10
148.342
 20
554.015
 11
148.251
 21
553.537
  0
LINE
  8
0
 10
148.251
 20
553.537
 11
148.101
 21
553.074
  0
LINE
  8
0
 10
148.101
 20
553.074
 11
147.894
 21
552.634
  0
LINE
  8
0
 10
147.894
 20
552.634
 11
147.633
 21
552.224
  0
LINE
  8
0
 10
147.633
 20
552.224
 11
147.323
 21
551.849
  0
LINE
  8
0
 10
147.323
 20
551.849
 11
146.969
 21
551.516
  0
LINE
  8
0
 10
146.969
 20
551.516
 11
146.575
 21
551.23
  0
LINE
  8
0
 10
146.575
 20
551.23
 11
146.149
 21
550.996
  0
LINE
  8
0
 10
146.149
 20
550.996
 11
145.697
 21
550.817
  0
LINE
  8
0
 10
145.697
 20
550.817
 11
145.226
 21
550.696
  0
LINE
  8
0
 10
145.226
 20
550.696
 11
144.743
 21
550.635
  0
LINE
  8
0
 10
144.743
 20
550.635
 11
-144.743
 21
550.635
  0
LINE
  8
0
 10
145.937
 20
450.089
 11
146.545
 21
450.245
  0
LINE
  8
0
 10
146.545
 20
450.245
 11
147.129
 21
450.476
  0
LINE
  8
0
 10
147.129
 20
450.476
 11
147.679
 21
450.778
  0
LINE
  8
0
 10
147.679
 20
450.778
 11
148.187
 21
451.147
  0
LINE
  8
0
 10
148.187
 20
451.147
 11
148.645
 21
451.577
  0
LINE
  8
0
 10
148.645
 20
451.577
 11
149.045
 21
452.061
  0
LINE
  8
0
 10
149.045
 20
452.061
 11
149.382
 21
452.591
  0
LINE
  8
0
 10
149.382
 20
452.591
 11
149.649
 21
453.159
  0
LINE
  8
0
 10
149.649
 20
453.159
 11
149.843
 21
453.757
  0
LINE
  8
0
 10
149.843
 20
453.757
 11
149.961
 21
454.373
  0
LINE
  8
0
 10
149.961
 20
454.373
 11
150
 21
455
  0
LINE
  8
0
 10
150
 20
455
 11
150
 21
535
  0
LINE
  8
0
 10
150
 20
535
 11
149.961
 21
535.627
  0
LINE
  8
0
 10
149.961
 20
535.627
 11
149.843
 21
536.243
  0
LINE
  8
0
 10
149.843
 20
536.243
 11
149.649
 21
536.841
  0
LINE
  8
0
 10
149.649
 20
536.841
 11
149.382
 21
537.409
  0
LINE
  8
0
 10
149.382
 20
537.409
 11
149.045
 21
537.939
  0
LINE
  8
0
 10
149.045
 20
537.939
 11
148.645
 21
538.423
  0
LINE
  8
0
 10
148.645
 20
538.423
 11
148.187
 21
538.853
  0
LINE
  8
0
 10
148.187
 20
538.853
 11
147.679
 21
539.222
  0
LINE
  8
0
 10
147.679
 20
539.222
 11
147.129
 21
539.524
  0
LINE
  8
0
 10
147.129
 20
539.524
 11
146.545
 21
539.755
  0
LINE
  8
0
 10
146.545
 20
539.755
 11
145.937
 21
539.911
  0
LINE
  8
0
 10
145.937
 20
539.911
 11
145.314
 21
539.99
  0
LINE
  8
0
 10
145.314
 20
539.99
 11
-145.314
 21
539.99
  0
LINE
  8
0
 10
-145.314
 20
539.99
 11
-145.937
 21
539.911
  0
LINE
  8
0
 10
-145.937
 20
539.911
 11
-146.545
 21
539.755
  0
LINE
  8
0
 10
-146.545
 20
539.755
 11
-147.129
 21
539.524
  0
LINE
  8
0
 10
-147.129
 20
539.524
 11
-147.679
 21
539.222
  0
LINE
  8
0
 10
-147.679
 20
539.222
 11
-148.187
 21
538.853
  0
LINE
  8
0
 10
-148.187
 20
538.853
 11
-148.5
 21
538.559
  0
LINE
  8
0
 10
-148.5
 20
538.559
 11
-148.5
 21
539.615
  0
LINE
  8
0
 10
-148.5
 20
539.615
 11
-151.5
 21
539.615
  0
LINE
  8
0
 10
-151.5
 20
539.615
 11
-151.5
 21
450.385
  0
LINE
  8
0
 10
-151.5
 20
450.385
 11
-148.5
 21
450.385
  0
LINE
  8
0
 10
-148.5
 20
450.385
 11
-148.5
 21
451.441
  0
LINE
  8
0
 10
-148.5
 20
451.441
 11
-148.187
 21
451.147
  0
LINE
  8
0
 10
-148.187
 20
451.147
 11
-147.679
 21
450.778
  0
LINE
  8
0
 10
-147.679
 20
450.778
 11
-147.129
 21
450.476
  0
LINE
  8
0
 10
-147.129
 20
450.476
 11
-146.545
 21
450.245
  0
LINE
  8
0
 10
-146.545
 20
450.245
 11
-145.937
 21
450.089
  0
LINE
  8
0
 10
-145.937
 20
450.089
 11
-145.314
 21
450.01
  0
LINE
  8
0
 10
-145.314
 20
450.01
 11
145.314
 21
450.01
  0
LINE
  8
0
 10
145.314
 20
450.01
 11
145.937
 21
450.089
  0
LINE
  8
0
 10
-142.651
 20
530.105
 11
-142.95
 21
530.143
  0
LINE
  8
0
 10
-142.95
 20
530.143
 11
-143.242
 21
530.217
  0
LINE
  8
0
 10
-143.242
 20
530.217
 11
-143.522
 21
530.328
  0
LINE
  8
0
 10
-143.522
 20
530.328
 11
-143.786
 21
530.474
  0
LINE
  8
0
 10
-143.786
 20
530.474
 11
-144.03
 21
530.651
  0
LINE
  8
0
 10
-144.03
 20
530.651
 11
-144.25
 21
530.857
  0
LINE
  8
0
 10
-144.25
 20
530.857
 11
-144.442
 21
531.089
  0
LINE
  8
0
 10
-144.442
 20
531.089
 11
-144.603
 21
531.344
  0
LINE
  8
0
 10
-144.603
 20
531.344
 11
-144.731
 21
531.617
  0
LINE
  8
0
 10
-144.731
 20
531.617
 11
-144.825
 21
531.903
  0
LINE
  8
0
 10
-144.825
 20
531.903
 11
-144.881
 21
532.199
  0
LINE
  8
0
 10
-144.881
 20
532.199
 11
-144.9
 21
532.5
  0
LINE
  8
0
 10
-144.9
 20
532.5
 11
-144.881
 21
532.801
  0
LINE
  8
0
 10
-144.881
 20
532.801
 11
-144.825
 21
533.097
  0
LINE
  8
0
 10
-144.825
 20
533.097
 11
-144.731
 21
533.383
  0
LINE
  8
0
 10
-144.731
 20
533.383
 11
-144.603
 21
533.656
  0
LINE
  8
0
 10
-144.603
 20
533.656
 11
-144.442
 21
533.911
  0
LINE
  8
0
 10
-144.442
 20
533.911
 11
-144.25
 21
534.143
  0
LINE
  8
0
 10
-144.25
 20
534.143
 11
-144.03
 21
534.349
  0
LINE
  8
0
 10
-144.03
 20
534.349
 11
-143.786
 21
534.526
  0
LINE
  8
0
 10
-143.786
 20
534.526
 11
-143.522
 21
534.672
  0
LINE
  8
0
 10
-143.522
 20
534.672
 11
-143.242
 21
534.783
  0
LINE
  8
0
 10
-143.242
 20
534.783
 11
-142.95
 21
534.857
  0
LINE
  8
0
 10
-142.95
 20
534.857
 11
-142.651
 21
534.895
  0
LINE
  8
0
 10
-142.651
 20
534.895
 11
-142.349
 21
534.895
  0
LINE
  8
0
 10
-142.349
 20
534.895
 11
-142.05
 21
534.857
  0
LINE
  8
0
 10
-142.05
 20
534.857
 11
-141.758
 21
534.783
  0
LINE
  8
0
 10
-141.758
 20
534.783
 11
-141.478
 21
534.672
  0
LINE
  8
0
 10
-141.478
 20
534.672
 11
-141.214
 21
534.526
  0
LINE
  8
0
 10
-141.214
 20
534.526
 11
-140.97
 21
534.349
  0
LINE
  8
0
 10
-140.97
 20
534.349
 11
-140.75
 21
534.143
  0
LINE
  8
0
 10
-140.75
 20
534.143
 11
-140.558
 21
533.911
  0
LINE
  8
0
 10
-140.558
 20
533.911
 11
-140.397
 21
533.656
  0
LINE
  8
0
 10
-140.397
 20
533.656
 11
-140.269
 21
533.383
  0
LINE
  8
0
 10
-140.269
 20
533.383
 11
-140.175
 21
533.097
  0
LINE
  8
0
 10
-140.175
 20
533.097
 11
-140.119
 21
532.801
  0
LINE
  8
0
 10
-140.119
 20
532.801
 11
-140.1
 21
532.5
  0
LINE
  8
0
 10
-140.1
 20
532.5
 11
-140.119
 21
532.199
  0
LINE
  8
0
 10
-140.119
 20
532.199
 11
-140.175
 21
531.903
  0
LINE
  8
0
 10
-140.175
 20
531.903
 11
-140.269
 21
531.617
  0
LINE
  8
0
 10
-140.269
 20
531.617
 11
-140.397
 21
531.344
  0
LINE
  8
0
 10
-140.397
 20
531.344
 11
-140.558
 21
531.089
  0
LINE
  8
0
 10
-140.558
 20
531.089
 11
-140.75
 21
530.857
  0
LINE
  8
0
 10
-140.75
 20
530.857
 11
-140.97
 21
530.651
  0
LINE
  8
0
 10
-140.97
 20
530.651
 11
-141.214
 21
530.474
  0
LINE
  8
0
 10
-141.214
 20
530.474
 11
-141.478
 21
530.328
  0
LINE
  8
0
 10
-141.478
 20
530.328
 11
-141.758
 21
530.217
  0
LINE
  8
0
 10
-141.758
 20
530.217
 11
-142.05
 21
530.143
  0
LINE
  8
0
 10
-142.05
 20
530.143
 11
-142.349
 21
530.105
  0
LINE
  8
0
 10
-142.349
 20
530.105
 11
-142.651
 21
530.105
  0
LINE
  8
0
 10
142.349
 20
530.105
 11
142.05
 21
530.143
  0
LINE
  8
0
 10
142.05
 20
530.143
 11
141.758
 21
530.217
  0
LINE
  8
0
 10
141.758
 20
530.217
 11
141.478
 21
530.328
  0
LINE
  8
0
 10
141.478
 20
530.328
 11
141.214
 21
530.474
  0
LINE
  8
0
 10
141.214
 20
530.474
 11
140.97
 21
530.651
  0
LINE
  8
0
 10
140.97
 20
530.651
 11
140.75
 21
530.857
  0
LINE
  8
0
 10
140.75
 20
530.857
 11
140.558
 21
531.089
  0
LINE
  8
0
 10
140.558
 20
531.089
 11
140.397
 21
531.344
  0
LINE
  8
0
 10
140.397
 20
531.344
 11
140.269
 21
531.617
  0
LINE
  8
0
 10
140.269
 20
531.617
 11
140.175
 21
531.903
  0
LINE
  8
0
 10
140.175
 20
531.903
 11
140.119
 21
532.199
  0
LINE
  8
0
 10
140.119
 20
532.199
 11
140.1
 21
532.5
  0
LINE
  8
0
 10
140.1
 20
532.5
 11
140.119
 21
532.801
  0
LINE
  8
0
 10
140.119
 20
532.801
 11
140.175
 21
533.097
  0
LINE
  8
0
 10
140.175
 20
533.097
 11
140.269
 21
533.383
  0
LINE
  8
0
 10
140.269
 20
533.383
 11
140.397
 21
533.656
  0
LINE
  8
0
 10
140.397
 20
533.656
 11
140.558
 21
533.911
  0
LINE
  8
0
 10
140.558
 20
533.911
 11
140.75
 21
534.143
  0
LINE
  8
0
 10
140.75
 20
534.143
 11
140.97
 21
534.349
  0
LINE
  8
0
 10
140.97
 20
534.349
 11
141.214
 21
534.526
  0
LINE
  8
0
 10
141.214
 20
534.526
 11
141.478
 21
534.672
  0
LINE
  8
0
 10
141.478
 20
534.672
 11
141.758
 21
534.783
  0
LINE
  8
0
 10
141.758
 20
534.783
 11
142.05
 21
534.857
  0
LINE
  8
0
 10
142.05
 20
534.857
 11
142.349
 21
534.895
  0
LINE
  8
0
 10
142.349
 20
534.895
 11
142.651
 21
534.895
  0
LINE
  8
0
 10
142.651
 20
534.895
 11
142.95
 21
534.857
  0
LINE
  8
0
 10
142.95
 20
534.857
 11
143.242
 21
534.783
  0
LINE
  8
0
 10
143.242
 20
534.783
 11
143.522
 21
534.672
  0
LINE
  8
0
 10
143.522
 20
534.672
 11
143.786
 21
534.526
  0
LINE
  8
0
 10
143.786
 20
534.526
 11
144.03
 21
534.349
  0
LINE
  8
0
 10
144.03
 20
534.349
 11
144.25
 21
534.143
  0
LINE
  8
0
 10
144.25
 20
534.143
 11
144.442
 21
533.911
  0
LINE
  8
0
 10
144.442
 20
533.911
 11
144.603
 21
533.656
  0
LINE
  8
0
 10
144.603
 20
533.656
 11
144.731
 21
533.383
  0
LINE
  8
0
 10
144.731
 20
533.383
 11
144.825
 21
533.097
  0
LINE
  8
0
 10
144.825
 20
533.097
 11
144.881
 21
532.801
  0
LINE
  8
0
 10
144.881
 20
532.801
 11
144.9
 21
532.5
  0
LINE
  8
0
 10
144.9
 20
532.5
 11
144.881
 21
532.199
  0
LINE
  8
0
 10
144.881
 20
532.199
 11
144.825
 21
531.903
  0
LINE
  8
0
 10
144.825
 20
531.903
 11
144.731
 21
531.617
  0
LINE
  8
0
 10
144.731
 20
531.617
 11
144.603
 21
531.344
  0
LINE
  8
0
 10
144.603
 20
531.344
 11
144.442
 21
531.089
  0
LINE
  8
0
 10
144.442
 20
531.089
 11
144.25
 21
530.857
  0
LINE
  8
0
 10
144.25
 20
530.857
 11
144.03
 21
530.651
  0
LINE
  8
0
 10
144.03
 20
530.651
 11
143.786
 21
530.474
  0
LINE
  8
0
 10
143.786
 20
530.474
 11
143.522
 21
530.328
  0
LINE
  8
0
 10
143.522
 20
530.328
 11
143.242
 21
530.217
  0
LINE
  8
0
 10
143.242
 20
530.217
 11
142.95
 21
530.143
  0
LINE
  8
0
 10
142.95
 20
530.143
 11
142.651
 21
530.105
  0
LINE
  8
0
 10
142.651
 20
530.105
 11
142.349
 21
530.105
  0
LINE
  8
0
 10
-142.651
 20
455.105
 11
-142.95
 21
455.143
  0
LINE
  8
0
 10
-142.95
 20
455.143
 11
-143.242
 21
455.217
  0
LINE
  8
0
 10
-143.242
 20
455.217
 11
-143.522
 21
455.328
  0
LINE
  8
0
 10
-143.522
 20
455.328
 11
-143.786
 21
455.474
  0
LINE
  8
0
 10
-143.786
 20
455.474
 11
-144.03
 21
455.651
  0
LINE
  8
0
 10
-144.03
 20
455.651
 11
-144.25
 21
455.857
  0
LINE
  8
0
 10
-144.25
 20
455.857
 11
-144.442
 21
456.089
  0
LINE
  8
0
 10
-144.442
 20
456.089
 11
-144.603
 21
456.344
  0
LINE
  8
0
 10
-144.603
 20
456.344
 11
-144.731
 21
456.617
  0
LINE
  8
0
 10
-144.731
 20
456.617
 11
-144.825
 21
456.903
  0
LINE
  8
0
 10
-144.825
 20
456.903
 11
-144.881
 21
457.199
  0
LINE
  8
0
 10
-144.881
 20
457.199
 11
-144.9
 21
457.5
  0
LINE
  8
0
 10
-144.9
 20
457.5
 11
-144.881
 21
457.801
  0
LINE
  8
0
 10
-144.881
 20
457.801
 11
-144.825
 21
458.097
  0
LINE
  8
0
 10
-144.825
 20
458.097
 11
-144.731
 21
458.383
  0
LINE
  8
0
 10
-144.731
 20
458.383
 11
-144.603
 21
458.656
  0
LINE
  8
0
 10
-144.603
 20
458.656
 11
-144.442
 21
458.911
  0
LINE
  8
0
 10
-144.442
 20
458.911
 11
-144.25
 21
459.143
  0
LINE
  8
0
 10
-144.25
 20
459.143
 11
-144.03
 21
459.349
  0
LINE
  8
0
 10
-144.03
 20
459.349
 11
-143.786
 21
459.526
  0
LINE
  8
0
 10
-143.786
 20
459.526
 11
-143.522
 21
459.672
  0
LINE
  8
0
 10
-143.522
 20
459.672
 11
-143.242
 21
459.783
  0
LINE
  8
0
 10
-143.242
 20
459.783
 11
-142.95
 21
459.857
  0
LINE
  8
0
 10
-142.95
 20
459.857
 11
-142.651
 21
459.895
  0
LINE
  8
0
 10
-142.651
 20
459.895
 11
-142.349
 21
459.895
  0
LINE
  8
0
 10
-142.349
 20
459.895
 11
-142.05
 21
459.857
  0
LINE
  8
0
 10
-142.05
 20
459.857
 11
-141.758
 21
459.783
  0
LINE
  8
0
 10
-141.758
 20
459.783
 11
-141.478
 21
459.672
  0
LINE
  8
0
 10
-141.478
 20
459.672
 11
-141.214
 21
459.526
  0
LINE
  8
0
 10
-141.214
 20
459.526
 11
-140.97
 21
459.349
  0
LINE
  8
0
 10
-140.97
 20
459.349
 11
-140.75
 21
459.143
  0
LINE
  8
0
 10
-140.75
 20
459.143
 11
-140.558
 21
458.911
  0
LINE
  8
0
 10
-140.558
 20
458.911
 11
-140.397
 21
458.656
  0
LINE
  8
0
 10
-140.397
 20
458.656
 11
-140.269
 21
458.383
  0
LINE
  8
0
 10
-140.269
 20
458.383
 11
-140.175
 21
458.097
  0
LINE
  8
0
 10
-140.175
 20
458.097
 11
-140.119
 21
457.801
  0
LINE
  8
0
 10
-140.119
 20
457.801
 11
-140.1
 21
457.5
  0
LINE
  8
0
 10
-140.1
 20
457.5
 11
-140.119
 21
457.199
  0
LINE
  8
0
 10
-140.119
 20
457.199
 11
-140.175
 21
456.903
  0
LINE
  8
0
 10
-140.175
 20
456.903
 11
-140.269
 21
456.617
  0
LINE
  8
0
 10
-140.269
 20
456.617
 11
-140.397
 21
456.344
  0
LINE
  8
0
 10
-140.397
 20
456.344
 11
-140.558
 21
456.089
  0
LINE
  8
0
 10
-140.558
 20
456.089
 11
-140.75
 21
455.857
  0
LINE
  8
0
 10
-140.75
 20
455.857
 11
-140.97
 21
455.651
  0
LINE
  8
0
 10
-140.97
 20
455.651
 11
-141.214
 21
455.474
  0
LINE
  8
0
 10
-141.214
 20
455.474
 11
-141.478
 21
455.328
  0
LINE
  8
0
 10
-141.478
 20
455.328
 11
-141.758
 21
455.217
  0
LINE
  8
0
 10
-141.758
 20
455.217
 11
-142.05
 21
455.143
  0
LINE
  8
0
 10
-142.05
 20
455.143
 11
-142.349
 21
455.105
  0
LINE
  8
0
 10
-142.349
 20
455.105
 11
-142.651
 21
455.105
  0
LINE
  8
0
 10
142.349
 20
455.105
 11
142.05
 21
455.143
  0
LINE
  8
0
 10
142.05
 20
455.143
 11
141.758
 21
455.217
  0
LINE
  8
0
 10
141.758
 20
455.217
 11
141.478
 21
455.328
  0
LINE
  8
0
 10
141.478
 20
455.328
 11
141.214
 21
455.474
  0
LINE
  8
0
 10
141.214
 20
455.474
 11
140.97
 21
455.651
  0
LINE
  8
0
 10
140.97
 20
455.651
 11
140.75
 21
455.857
  0
LINE
  8
0
 10
140.75
 20
455.857
 11
140.558
 21
456.089
  0
LINE
  8
0
 10
140.558
 20
456.089
 11
140.397
 21
456.344
  0
LINE
  8
0
 10
140.397
 20
456.344
 11
140.269
 21
456.617
  0
LINE
  8
0
 10
140.269
 20
456.617
 11
140.175
 21
456.903
  0
LINE
  8
0
 10
140.175
 20
456.903
 11
140.119
 21
457.199
  0
LINE
  8
0
 10
140.119
 20
457.199
 11
140.1
 21
457.5
  0
LINE
  8
0
 10
140.1
 20
457.5
 11
140.119
 21
457.801
  0
LINE
  8
0
 10
140.119
 20
457.801
 11
140.175
 21
458.097
  0
LINE
  8
0
 10
140.175
 20
458.097
 11
140.269
 21
458.383
  0
LINE
  8
0
 10
140.269
 20
458.383
 11
140.397
 21
458.656
  0
LINE
  8
0
 10
140.397
 20
458.656
 11
140.558
 21
458.911
  0
LINE
  8
0
 10
140.558
 20
458.911
 11
140.75
 21
459.143
  0
LINE
  8
0
 10
140.75
 20
459.143
 11
140.97
 21
459.349
  0
LINE
  8
0
 10
140.97
 20
459.349
 11
141.214
 21
459.526
  0
LINE
  8
0
 10
141.214
 20
459.526
 11
141.478
 21
459.672
  0
LINE
  8
0
 10
141.478
 20
459.672
 11
141.758
 21
459.783
  0
LINE
  8
0
 10
141.758
 20
459.783
 11
142.05
 21
459.857
  0
LINE
  8
0
 10
142.05
 20
459.857
 11
142.349
 21
459.895
  0
LINE
  8
0
 10
142.349
 20
459.895
 11
142.651
 21
459.895
  0
LINE
  8
0
 10
142.651
 20
459.895
 11
142.95
 21
459.857
  0
LINE
  8
0
 10
142.95
 20
459.857
 11
143.242
 21
459.783
  0
LINE
  8
0
 10
143.242
 20
459.783
 11
143.522
 21
459.672
  0
LINE
  8
0
 10
143.522
 20
459.672
 11
143.786
 21
459.526
  0
LINE
  8
0
 10
143.786
 20
459.526
 11
144.03
 21
459.349
  0
LINE
  8
0
 10
144.03
 20
459.349
 11
144.25
 21
459.143
  0
LINE
  8
0
 10
144.25
 20
459.143
 11
144.442
 21
458.911
  0
LINE
  8
0
 10
144.442
 20
458.911
 11
144.603
 21
458.656
  0
LINE
  8
0
 10
144.603
 20
458.656
 11
144.731
 21
458.383
  0
LINE
  8
0
 10
144.731
 20
458.383
 11
144.825
 21
458.097
  0
LINE
  8
0
 10
144.825
 20
458.097
 11
144.881
 21
457.801
  0
LINE
  8
0
 10
144.881
 20
457.801
 11
144.9
 21
457.5
  0
LINE
  8
0
 10
144.9
 20
457.5
 11
144.881
 21
457.199
  0
LINE
  8
0
 10
144.881
 20
457.199
 11
144.825
 21
456.903
  0
LINE
  8
0
 10
144.825
 20
456.903
 11
144.731
 21
456.617
  0
LINE
  8
0
 10
144.731
 20
456.617
 11
144.603
 21
456.344
  0
LINE
  8
0
 10
144.603
 20
456.344
 11
144.442
 21
456.089
  0
LINE
  8
0
 10
144.442
 20
456.089
 11
144.25
 21
455.857
  0
LINE
  8
0
 10
144.25
 20
455.857
 11
144.03
 21
455.651
  0
LINE
  8
0
 10
144.03
 20
455.651
 11
143.786
 21
455.474
  0
LINE
  8
0
 10
143.786
 20
455.474
 11
143.522
 21
455.328
  0
LINE
  8
0
 10
143.522
 20
455.328
 11
143.242
 21
455.217
  0
LINE
  8
0
 10
143.242
 20
455.217
 11
142.95
 21
455.143
  0
LINE
  8
0
 10
142.95
 20
455.143
 11
142.651
 21
455.105
  0
LINE
  8
0
 10
142.651
 20
455.105
 11
142.349
 21
455.105
  0
LINE
  8
0
 10
145.937
 20
351.089
 11
146.545
 21
351.245
  0
LINE
  8
0
 10
146.545
 20
351.245
 11
147.129
 21
351.476
  0
LINE
  8
0
 10
147.129
 20
351.476
 11
147.679
 21
351.778
  0
LINE
  8
0
 10
147.679
 20
351.778
 11
148.187
 21
352.147
  0
LINE
  8
0
 10
148.187
 20
352.147
 11
148.645
 21
352.577
  0
LINE
  8
0
 10
148.645
 20
352.577
 11
149.045
 21
353.061
  0
LINE
  8
0
 10
149.045
 20
353.061
 11
149.382
 21
353.591
  0
LINE
  8
0
 10
149.382
 20
353.591
 11
149.649
 21
354.159
  0
LINE
  8
0
 10
149.649
 20
354.159
 11
149.843
 21
354.757
  0
LINE
  8
0
 10
149.843
 20
354.757
 11
149.961
 21
355.373
  0
LINE
  8
0
 10
149.961
 20
355.373
 11
150
 21
356
  0
LINE
  8
0
 10
150
 20
356
 11
150
 21
436
  0
LINE
  8
0
 10
150
 20
436
 11
149.961
 21
436.627
  0
LINE
  8
0
 10
149.961
 20
436.627
 11
149.843
 21
437.243
  0
LINE
  8
0
 10
149.843
 20
437.243
 11
149.649
 21
437.841
  0
LINE
  8
0
 10
149.649
 20
437.841
 11
149.382
 21
438.409
  0
LINE
  8
0
 10
149.382
 20
438.409
 11
149.045
 21
438.939
  0
LINE
  8
0
 10
149.045
 20
438.939
 11
148.645
 21
439.423
  0
LINE
  8
0
 10
148.645
 20
439.423
 11
148.187
 21
439.853
  0
LINE
  8
0
 10
148.187
 20
439.853
 11
147.679
 21
440.222
  0
LINE
  8
0
 10
147.679
 20
440.222
 11
147.129
 21
440.524
  0
LINE
  8
0
 10
147.129
 20
440.524
 11
146.545
 21
440.755
  0
LINE
  8
0
 10
146.545
 20
440.755
 11
145.937
 21
440.911
  0
LINE
  8
0
 10
145.937
 20
440.911
 11
145.314
 21
440.99
  0
LINE
  8
0
 10
145.314
 20
440.99
 11
-145.314
 21
440.99
  0
LINE
  8
0
 10
-145.314
 20
440.99
 11
-145.937
 21
440.911
  0
LINE
  8
0
 10
-145.937
 20
440.911
 11
-146.545
 21
440.755
  0
LINE
  8
0
 10
-146.545
 20
440.755
 11
-147.129
 21
440.524
  0
LINE
  8
0
 10
-147.129
 20
440.524
 11
-147.679
 21
440.222
  0
LINE
  8
0
 10
-147.679
 20
440.222
 11
-148.187
 21
439.853
  0
LINE
  8
0
 10
-148.187
 20
439.853
 11
-148.645
 21
439.423
  0
LINE
  8
0
 10
-148.645
 20
439.423
 11
-149.045
 21
438.939
  0
LINE
  8
0
 10
-149.045
 20
438.939
 11
-149.382
 21
438.409
  0
LINE
  8
0
 10
-149.382
 20
438.409
 11
-149.649
 21
437.841
  0
LINE
  8
0
 10
-149.649
 20
437.841
 11
-149.843
 21
437.243
  0
LINE
  8
0
 10
-149.843
 20
437.243
 11
-149.9
 21
436.944
  0
LINE
  8
0
 10
-149.9
 20
436.944
 11
-151.5
 21
436.944
  0
LINE
  8
0
 10
-151.5
 20
436.944
 11
-151.5
 21
355.056
  0
LINE
  8
0
 10
-151.5
 20
355.056
 11
-149.9
 21
355.056
  0
LINE
  8
0
 10
-149.9
 20
355.056
 11
-149.843
 21
354.757
  0
LINE
  8
0
 10
-149.843
 20
354.757
 11
-149.649
 21
354.159
  0
LINE
  8
0
 10
-149.649
 20
354.159
 11
-149.382
 21
353.591
  0
LINE
  8
0
 10
-149.382
 20
353.591
 11
-149.045
 21
353.061
  0
LINE
  8
0
 10
-149.045
 20
353.061
 11
-148.645
 21
352.577
  0
LINE
  8
0
 10
-148.645
 20
352.577
 11
-148.187
 21
352.147
  0
LINE
  8
0
 10
-148.187
 20
352.147
 11
-147.679
 21
351.778
  0
LINE
  8
0
 10
-147.679
 20
351.778
 11
-147.129
 21
351.476
  0
LINE
  8
0
 10
-147.129
 20
351.476
 11
-146.545
 21
351.245
  0
LINE
  8
0
 10
-146.545
 20
351.245
 11
-145.937
 21
351.089
  0
LINE
  8
0
 10
-145.937
 20
351.089
 11
-145.314
 21
351.01
  0
LINE
  8
0
 10
-145.314
 20
351.01
 11
145.314
 21
351.01
  0
LINE
  8
0
 10
145.314
 20
351.01
 11
145.937
 21
351.089
  0
LINE
  8
0
 10
142.387
 20
431.704
 11
142.163
 21
431.732
  0
LINE
  8
0
 10
142.163
 20
431.732
 11
141.944
 21
431.788
  0
LINE
  8
0
 10
141.944
 20
431.788
 11
141.734
 21
431.871
  0
LINE
  8
0
 10
141.734
 20
431.871
 11
141.536
 21
431.98
  0
LINE
  8
0
 10
141.536
 20
431.98
 11
141.353
 21
432.113
  0
LINE
  8
0
 10
141.353
 20
432.113
 11
141.188
 21
432.268
  0
LINE
  8
0
 10
141.188
 20
432.268
 11
141.044
 21
432.442
  0
LINE
  8
0
 10
141.044
 20
432.442
 11
140.923
 21
432.633
  0
LINE
  8
0
 10
140.923
 20
432.633
 11
140.826
 21
432.837
  0
LINE
  8
0
 10
140.826
 20
432.837
 11
140.757
 21
433.052
  0
LINE
  8
0
 10
140.757
 20
433.052
 11
140.714
 21
433.274
  0
LINE
  8
0
 10
140.714
 20
433.274
 11
140.7
 21
433.5
  0
LINE
  8
0
 10
140.7
 20
433.5
 11
140.714
 21
433.726
  0
LINE
  8
0
 10
140.714
 20
433.726
 11
140.757
 21
433.948
  0
LINE
  8
0
 10
140.757
 20
433.948
 11
140.826
 21
434.163
  0
LINE
  8
0
 10
140.826
 20
434.163
 11
140.923
 21
434.367
  0
LINE
  8
0
 10
140.923
 20
434.367
 11
141.044
 21
434.558
  0
LINE
  8
0
 10
141.044
 20
434.558
 11
141.188
 21
434.732
  0
LINE
  8
0
 10
141.188
 20
434.732
 11
141.353
 21
434.887
  0
LINE
  8
0
 10
141.353
 20
434.887
 11
141.536
 21
435.02
  0
LINE
  8
0
 10
141.536
 20
435.02
 11
141.734
 21
435.129
  0
LINE
  8
0
 10
141.734
 20
435.129
 11
141.944
 21
435.212
  0
LINE
  8
0
 10
141.944
 20
435.212
 11
142.163
 21
435.268
  0
LINE
  8
0
 10
142.163
 20
435.268
 11
142.387
 21
435.296
  0
LINE
  8
0
 10
142.387
 20
435.296
 11
142.613
 21
435.296
  0
LINE
  8
0
 10
142.613
 20
435.296
 11
142.837
 21
435.268
  0
LINE
  8
0
 10
142.837
 20
435.268
 11
143.056
 21
435.212
  0
LINE
  8
0
 10
143.056
 20
435.212
 11
143.266
 21
435.129
  0
LINE
  8
0
 10
143.266
 20
435.129
 11
143.464
 21
435.02
  0
LINE
  8
0
 10
143.464
 20
435.02
 11
143.647
 21
434.887
  0
LINE
  8
0
 10
143.647
 20
434.887
 11
143.812
 21
434.732
  0
LINE
  8
0
 10
143.812
 20
434.732
 11
143.956
 21
434.558
  0
LINE
  8
0
 10
143.956
 20
434.558
 11
144.077
 21
434.367
  0
LINE
  8
0
 10
144.077
 20
434.367
 11
144.174
 21
434.163
  0
LINE
  8
0
 10
144.174
 20
434.163
 11
144.243
 21
433.948
  0
LINE
  8
0
 10
144.243
 20
433.948
 11
144.286
 21
433.726
  0
LINE
  8
0
 10
144.286
 20
433.726
 11
144.3
 21
433.5
  0
LINE
  8
0
 10
144.3
 20
433.5
 11
144.286
 21
433.274
  0
LINE
  8
0
 10
144.286
 20
433.274
 11
144.243
 21
433.052
  0
LINE
  8
0
 10
144.243
 20
433.052
 11
144.174
 21
432.837
  0
LINE
  8
0
 10
144.174
 20
432.837
 11
144.077
 21
432.633
  0
LINE
  8
0
 10
144.077
 20
432.633
 11
143.956
 21
432.442
  0
LINE
  8
0
 10
143.956
 20
432.442
 11
143.812
 21
432.268
  0
LINE
  8
0
 10
143.812
 20
432.268
 11
143.647
 21
432.113
  0
LINE
  8
0
 10
143.647
 20
432.113
 11
143.464
 21
431.98
  0
LINE
  8
0
 10
143.464
 20
431.98
 11
143.266
 21
431.871
  0
LINE
  8
0
 10
143.266
 20
431.871
 11
143.056
 21
431.788
  0
LINE
  8
0
 10
143.056
 20
431.788
 11
142.837
 21
431.732
  0
LINE
  8
0
 10
142.837
 20
431.732
 11
142.613
 21
431.704
  0
LINE
  8
0
 10
142.613
 20
431.704
 11
142.387
 21
431.704
  0
LINE
  8
0
 10
-142.613
 20
431.704
 11
-142.837
 21
431.732
  0
LINE
  8
0
 10
-142.837
 20
431.732
 11
-143.056
 21
431.788
  0
LINE
  8
0
 10
-143.056
 20
431.788
 11
-143.266
 21
431.871
  0
LINE
  8
0
 10
-143.266
 20
431.871
 11
-143.464
 21
431.98
  0
LINE
  8
0
 10
-143.464
 20
431.98
 11
-143.647
 21
432.113
  0
LINE
  8
0
 10
-143.647
 20
432.113
 11
-143.812
 21
432.268
  0
LINE
  8
0
 10
-143.812
 20
432.268
 11
-143.956
 21
432.442
  0
LINE
  8
0
 10
-143.956
 20
432.442
 11
-144.077
 21
432.633
  0
LINE
  8
0
 10
-144.077
 20
432.633
 11
-144.174
 21
432.837
  0
LINE
  8
0
 10
-144.174
 20
432.837
 11
-144.243
 21
433.052
  0
LINE
  8
0
 10
-144.243
 20
433.052
 11
-144.286
 21
433.274
  0
LINE
  8
0
 10
-144.286
 20
433.274
 11
-144.3
 21
433.5
  0
LINE
  8
0
 10
-144.3
 20
433.5
 11
-144.286
 21
433.726
  0
LINE
  8
0
 10
-144.286
 20
433.726
 11
-144.243
 21
433.948
  0
LINE
  8
0
 10
-144.243
 20
433.948
 11
-144.174
 21
434.163
  0
LINE
  8
0
 10
-144.174
 20
434.163
 11
-144.077
 21
434.367
  0
LINE
  8
0
 10
-144.077
 20
434.367
 11
-143.956
 21
434.558
  0
LINE
  8
0
 10
-143.956
 20
434.558
 11
-143.812
 21
434.732
  0
LINE
  8
0
 10
-143.812
 20
434.732
 11
-143.647
 21
434.887
  0
LINE
  8
0
 10
-143.647
 20
434.887
 11
-143.464
 21
435.02
  0
LINE
  8
0
 10
-143.464
 20
435.02
 11
-143.266
 21
435.129
  0
LINE
  8
0
 10
-143.266
 20
435.129
 11
-143.056
 21
435.212
  0
LINE
  8
0
 10
-143.056
 20
435.212
 11
-142.837
 21
435.268
  0
LINE
  8
0
 10
-142.837
 20
435.268
 11
-142.613
 21
435.296
  0
LINE
  8
0
 10
-142.613
 20
435.296
 11
-142.387
 21
435.296
  0
LINE
  8
0
 10
-142.387
 20
435.296
 11
-142.163
 21
435.268
  0
LINE
  8
0
 10
-142.163
 20
435.268
 11
-141.944
 21
435.212
  0
LINE
  8
0
 10
-141.944
 20
435.212
 11
-141.734
 21
435.129
  0
LINE
  8
0
 10
-141.734
 20
435.129
 11
-141.536
 21
435.02
  0
LINE
  8
0
 10
-141.536
 20
435.02
 11
-141.353
 21
434.887
  0
LINE
  8
0
 10
-141.353
 20
434.887
 11
-141.188
 21
434.732
  0
LINE
  8
0
 10
-141.188
 20
434.732
 11
-141.044
 21
434.558
  0
LINE
  8
0
 10
-141.044
 20
434.558
 11
-140.923
 21
434.367
  0
LINE
  8
0
 10
-140.923
 20
434.367
 11
-140.826
 21
434.163
  0
LINE
  8
0
 10
-140.826
 20
434.163
 11
-140.757
 21
433.948
  0
LINE
  8
0
 10
-140.757
 20
433.948
 11
-140.714
 21
433.726
  0
LINE
  8
0
 10
-140.714
 20
433.726
 11
-140.7
 21
433.5
  0
LINE
  8
0
 10
-140.7
 20
433.5
 11
-140.714
 21
433.274
  0
LINE
  8
0
 10
-140.714
 20
433.274
 11
-140.757
 21
433.052
  0
LINE
  8
0
 10
-140.757
 20
433.052
 11
-140.826
 21
432.837
  0
LINE
  8
0
 10
-140.826
 20
432.837
 11
-140.923
 21
432.633
  0
LINE
  8
0
 10
-140.923
 20
432.633
 11
-141.044
 21
432.442
  0
LINE
  8
0
 10
-141.044
 20
432.442
 11
-141.188
 21
432.268
  0
LINE
  8
0
 10
-141.188
 20
432.268
 11
-141.353
 21
432.113
  0
LINE
  8
0
 10
-141.353
 20
432.113
 11
-141.536
 21
431.98
  0
LINE
  8
0
 10
-141.536
 20
431.98
 11
-141.734
 21
431.871
  0
LINE
  8
0
 10
-141.734
 20
431.871
 11
-141.944
 21
431.788
  0
LINE
  8
0
 10
-141.944
 20
431.788
 11
-142.163
 21
431.732
  0
LINE
  8
0
 10
-142.163
 20
431.732
 11
-142.387
 21
431.704
  0
LINE
  8
0
 10
-142.387
 20
431.704
 11
-142.613
 21
431.704
  0
LINE
  8
0
 10
-142.613
 20
356.704
 11
-142.837
 21
356.732
  0
LINE
  8
0
 10
-142.837
 20
356.732
 11
-143.056
 21
356.788
  0
LINE
  8
0
 10
-143.056
 20
356.788
 11
-143.266
 21
356.871
  0
LINE
  8
0
 10
-143.266
 20
356.871
 11
-143.464
 21
356.98
  0
LINE
  8
0
 10
-143.464
 20
356.98
 11
-143.647
 21
357.113
  0
LINE
  8
0
 10
-143.647
 20
357.113
 11
-143.812
 21
357.268
  0
LINE
  8
0
 10
-143.812
 20
357.268
 11
-143.956
 21
357.442
  0
LINE
  8
0
 10
-143.956
 20
357.442
 11
-144.077
 21
357.633
  0
LINE
  8
0
 10
-144.077
 20
357.633
 11
-144.174
 21
357.837
  0
LINE
  8
0
 10
-144.174
 20
357.837
 11
-144.243
 21
358.052
  0
LINE
  8
0
 10
-144.243
 20
358.052
 11
-144.286
 21
358.274
  0
LINE
  8
0
 10
-144.286
 20
358.274
 11
-144.3
 21
358.5
  0
LINE
  8
0
 10
-144.3
 20
358.5
 11
-144.286
 21
358.726
  0
LINE
  8
0
 10
-144.286
 20
358.726
 11
-144.243
 21
358.948
  0
LINE
  8
0
 10
-144.243
 20
358.948
 11
-144.174
 21
359.163
  0
LINE
  8
0
 10
-144.174
 20
359.163
 11
-144.077
 21
359.367
  0
LINE
  8
0
 10
-144.077
 20
359.367
 11
-143.956
 21
359.558
  0
LINE
  8
0
 10
-143.956
 20
359.558
 11
-143.812
 21
359.732
  0
LINE
  8
0
 10
-143.812
 20
359.732
 11
-143.647
 21
359.887
  0
LINE
  8
0
 10
-143.647
 20
359.887
 11
-143.464
 21
360.02
  0
LINE
  8
0
 10
-143.464
 20
360.02
 11
-143.266
 21
360.129
  0
LINE
  8
0
 10
-143.266
 20
360.129
 11
-143.056
 21
360.212
  0
LINE
  8
0
 10
-143.056
 20
360.212
 11
-142.837
 21
360.268
  0
LINE
  8
0
 10
-142.837
 20
360.268
 11
-142.613
 21
360.296
  0
LINE
  8
0
 10
-142.613
 20
360.296
 11
-142.387
 21
360.296
  0
LINE
  8
0
 10
-142.387
 20
360.296
 11
-142.163
 21
360.268
  0
LINE
  8
0
 10
-142.163
 20
360.268
 11
-141.944
 21
360.212
  0
LINE
  8
0
 10
-141.944
 20
360.212
 11
-141.734
 21
360.129
  0
LINE
  8
0
 10
-141.734
 20
360.129
 11
-141.536
 21
360.02
  0
LINE
  8
0
 10
-141.536
 20
360.02
 11
-141.353
 21
359.887
  0
LINE
  8
0
 10
-141.353
 20
359.887
 11
-141.188
 21
359.732
  0
LINE
  8
0
 10
-141.188
 20
359.732
 11
-141.044
 21
359.558
  0
LINE
  8
0
 10
-141.044
 20
359.558
 11
-140.923
 21
359.367
  0
LINE
  8
0
 10
-140.923
 20
359.367
 11
-140.826
 21
359.163
  0
LINE
  8
0
 10
-140.826
 20
359.163
 11
-140.757
 21
358.948
  0
LINE
  8
0
 10
-140.757
 20
358.948
 11
-140.714
 21
358.726
  0
LINE
  8
0
 10
-140.714
 20
358.726
 11
-140.7
 21
358.5
  0
LINE
  8
0
 10
-140.7
 20
358.5
 11
-140.714
 21
358.274
  0
LINE
  8
0
 10
-140.714
 20
358.274
 11
-140.757
 21
358.052
  0
LINE
  8
0
 10
-140.757
 20
358.052
 11
-140.826
 21
357.837
  0
LINE
  8
0
 10
-140.826
 20
357.837
 11
-140.923
 21
357.633
  0
LINE
  8
0
 10
-140.923
 20
357.633
 11
-141.044
 21
357.442
  0
LINE
  8
0
 10
-141.044
 20
357.442
 11
-141.188
 21
357.268
  0
LINE
  8
0
 10
-141.188
 20
357.268
 11
-141.353
 21
357.113
  0
LINE
  8
0
 10
-141.353
 20
357.113
 11
-141.536
 21
356.98
  0
LINE
  8
0
 10
-141.536
 20
356.98
 11
-141.734
 21
356.871
  0
LINE
  8
0
 10
-141.734
 20
356.871
 11
-141.944
 21
356.788
  0
LINE
  8
0
 10
-141.944
 20
356.788
 11
-142.163
 21
356.732
  0
LINE
  8
0
 10
-142.163
 20
356.732
 11
-142.387
 21
356.704
  0
LINE
  8
0
 10
-142.387
 20
356.704
 11
-142.613
 21
356.704
  0
LINE
  8
0
 10
142.387
 20
356.704
 11
142.163
 21
356.732
  0
LINE
  8
0
 10
142.163
 20
356.732
 11
141.944
 21
356.788
  0
LINE
  8
0
 10
141.944
 20
356.788
 11
141.734
 21
356.871
  0
LINE
  8
0
 10
141.734
 20
356.871
 11
141.536
 21
356.98
  0
LINE
  8
0
 10
141.536
 20
356.98
 11
141.353
 21
357.113
  0
LINE
  8
0
 10
141.353
 20
357.113
 11
141.188
 21
357.268
  0
LINE
  8
0
 10
141.188
 20
357.268
 11
141.044
 21
357.442
  0
LINE
  8
0
 10
141.044
 20
357.442
 11
140.923
 21
357.633
  0
LINE
  8
0
 10
140.923
 20
357.633
 11
140.826
 21
357.837
  0
LINE
  8
0
 10
140.826
 20
357.837
 11
140.757
 21
358.052
  0
LINE
  8
0
 10
140.757
 20
358.052
 11
140.714
 21
358.274
  0
LINE
  8
0
 10
140.714
 20
358.274
 11
140.7
 21
358.5
  0
LINE
  8
0
 10
140.7
 20
358.5
 11
140.714
 21
358.726
  0
LINE
  8
0
 10
140.714
 20
358.726
 11
140.757
 21
358.948
  0
LINE
  8
0
 10
140.757
 20
358.948
 11
140.826
 21
359.163
  0
LINE
  8
0
 10
140.826
 20
359.163
 11
140.923
 21
359.367
  0
LINE
  8
0
 10
140.923
 20
359.367
 11
141.044
 21
359.558
  0
LINE
  8
0
 10
141.044
 20
359.558
 11
141.188
 21
359.732
  0
LINE
  8
0
 10
141.188
 20
359.732
 11
141.353
 21
359.887
  0
LINE
  8
0
 10
141.353
 20
359.887
 11
141.536
 21
360.02
  0
LINE
  8
0
 10
141.536
 20
360.02
 11
141.734
 21
360.129
  0
LINE
  8
0
 10
141.734
 20
360.129
 11
141.944
 21
360.212
  0
LINE
  8
0
 10
141.944
 20
360.212
 11
142.163
 21
360.268
  0
LINE
  8
0
 10
142.163
 20
360.268
 11
142.387
 21
360.296
  0
LINE
  8
0
 10
142.387
 20
360.296
 11
142.613
 21
360.296
  0
LINE
  8
0
 10
142.613
 20
360.296
 11
142.837
 21
360.268
  0
LINE
  8
0
 10
142.837
 20
360.268
 11
143.056
 21
360.212
  0
LINE
  8
0
 10
143.056
 20
360.212
 11
143.266
 21
360.129
  0
LINE
  8
0
 10
143.266
 20
360.129
 11
143.464
 21
360.02
  0
LINE
  8
0
 10
143.464
 20
360.02
 11
143.647
 21
359.887
  0
LINE
  8
0
 10
143.647
 20
359.887
 11
143.812
 21
359.732
  0
LINE
  8
0
 10
143.812
 20
359.732
 11
143.956
 21
359.558
  0
LINE
  8
0
 10
143.956
 20
359.558
 11
144.077
 21
359.367
  0
LINE
  8
0
 10
144.077
 20
359.367
 11
144.174
 21
359.163
  0
LINE
  8
0
 10
144.174
 20
359.163
 11
144.243
 21
358.948
  0
LINE
  8
0
 10
144.243
 20
358.948
 11
144.286
 21
358.726
  0
LINE
  8
0
 10
144.286
 20
358.726
 11
144.3
 21
358.5
  0
LINE
  8
0
 10
144.3
 20
358.5
 11
144.286
 21
358.274
  0
LINE
  8
0
 10
144.286
 20
358.274
 11
144.243
 21
358.052
  0
LINE
  8
0
 10
144.243
 20
358.052
 11
144.174
 21
357.837
  0
LINE
  8
0
 10
144.174
 20
357.837
 11
144.077
 21
357.633
  0
LINE
  8
0
 10
144.077
 20
357.633
 11
143.956
 21
357.442
  0
LINE
  8
0
 10
143.956
 20
357.442
 11
143.812
 21
357.268
  0
LINE
  8
0
 10
143.812
 20
357.268
 11
143.647
 21
357.113
  0
LINE
  8
0
 10
143.647
 20
357.113
 11
143.464
 21
356.98
  0
LINE
  8
0
 10
143.464
 20
356.98
 11
143.266
 21
356.871
  0
LINE
  8
0
 10
143.266
 20
356.871
 11
143.056
 21
356.788
  0
LINE
  8
0
 10
143.056
 20
356.788
 11
142.837
 21
356.732
  0
LINE
  8
0
 10
142.837
 20
356.732
 11
142.613
 21
356.704
  0
LINE
  8
0
 10
142.613
 20
356.704
 11
142.387
 21
356.704
  0
ENDSEC
  0
SECTION
  2
OBJECTS
  0
DICTIONARY
  0
ENDSEC
  0
EOF
