<?xml version="1.0" standalone="no"?>
<!DOCTYPE svg PUBLIC "-//W3C//DTD SVG 1.1//EN" "http://www.w3.org/Graphics/SVG/1.1/DTD/svg11.dtd">
<svg width="287mm" height="514mm" viewBox="-144 -779 287 514" xmlns="http://www.w3.org/2000/svg" version="1.1">
<title>OpenSCAD Model</title>
<path d="
M -141,-614.941 L -140.687,-614.647 L -140.179,-614.278 L -139.629,-613.976 L -139.045,-613.745 L -138.437,-613.589
 L -137.814,-613.51 L 137.814,-613.51 L 138.437,-613.589 L 139.045,-613.745 L 139.629,-613.976 L 140.179,-614.278
 L 140.687,-614.647 L 141.145,-615.077 L 141.545,-615.561 L 141.882,-616.091 L 142.149,-616.659 L 142.343,-617.257
 L 142.461,-617.873 L 142.5,-618.5 L 142.5,-773.5 L 142.461,-774.127 L 142.343,-774.743 L 142.149,-775.341
 L 141.882,-775.909 L 141.545,-776.439 L 141.145,-776.923 L 140.687,-777.353 L 140.179,-777.722 L 139.629,-778.024
 L 139.045,-778.255 L 138.437,-778.411 L 137.814,-778.49 L -137.814,-778.49 L -138.437,-778.411 L -139.045,-778.255
 L -139.629,-778.024 L -140.179,-777.722 L -140.687,-777.353 L -141,-777.059 L -141,-778.49 L -144,-778.49
 L -144,-613.51 L -141,-613.51 z
M -137.243,-615.135 L -137.726,-615.196 L -138.197,-615.317 L -138.649,-615.496 L -139.075,-615.73 L -139.469,-616.016
 L -139.823,-616.349 L -140.133,-616.724 L -140.394,-617.134 L -140.601,-617.574 L -140.751,-618.037 L -140.842,-618.515
 L -140.873,-619 L -140.873,-773 L -140.842,-773.485 L -140.751,-773.963 L -140.601,-774.426 L -140.394,-774.866
 L -140.133,-775.276 L -139.823,-775.651 L -139.469,-775.984 L -139.075,-776.27 L -138.649,-776.504 L -138.197,-776.683
 L -137.726,-776.804 L -137.243,-776.865 L 137.243,-776.865 L 137.726,-776.804 L 138.197,-776.683 L 138.649,-776.504
 L 139.075,-776.27 L 139.469,-775.984 L 139.823,-775.651 L 140.133,-775.276 L 140.394,-774.866 L 140.601,-774.426
 L 140.751,-773.963 L 140.842,-773.485 L 140.873,-773 L 140.873,-619 L 140.842,-618.515 L 140.751,-618.037
 L 140.601,-617.574 L 140.394,-617.134 L 140.133,-616.724 L 139.823,-616.349 L 139.469,-616.016 L 139.075,-615.73
 L 138.649,-615.496 L 138.197,-615.317 L 137.726,-615.196 L 137.243,-615.135 z
M 138.437,-439.589 L 139.045,-439.745 L 139.629,-439.976 L 140.179,-440.278 L 140.687,-440.647 L 141.145,-441.077
 L 141.545,-441.561 L 141.882,-442.091 L 142.149,-442.659 L 142.343,-443.257 L 142.461,-443.873 L 142.5,-444.5
 L 142.5,-599.5 L 142.461,-600.127 L 142.343,-600.743 L 142.149,-601.341 L 141.882,-601.909 L 141.545,-602.439
 L 141.145,-602.923 L 140.687,-603.353 L 140.179,-603.722 L 139.629,-604.024 L 139.045,-604.255 L 138.437,-604.411
 L 137.814,-604.49 L -137.814,-604.49 L -138.437,-604.411 L -139.045,-604.255 L -139.629,-604.024 L -140.179,-603.722
 L -140.687,-603.353 L -141,-603.059 L -141,-604.115 L -144,-604.115 L -144,-439.885 L -141,-439.885
 L -141,-440.941 L -140.687,-440.647 L -140.179,-440.278 L -139.629,-439.976 L -139.045,-439.745 L -138.437,-439.589
 L -137.814,-439.51 L 137.814,-439.51 z
M 134.849,-594.605 L 134.55,-594.643 L 134.258,-594.717 L 133.978,-594.828 L 133.714,-594.974 L 133.47,-595.151
 L 133.25,-595.357 L 133.058,-595.589 L 132.897,-595.844 L 132.769,-596.117 L 132.675,-596.403 L 132.619,-596.699
 L 132.6,-597 L 132.619,-597.301 L 132.675,-597.597 L 132.769,-597.883 L 132.897,-598.156 L 133.058,-598.411
 L 133.25,-598.643 L 133.47,-598.849 L 133.714,-599.026 L 133.978,-599.172 L 134.258,-599.283 L 134.55,-599.357
 L 134.849,-599.395 L 135.151,-599.395 L 135.45,-599.357 L 135.742,-599.283 L 136.022,-599.172 L 136.286,-599.026
 L 136.53,-598.849 L 136.75,-598.643 L 136.942,-598.411 L 137.103,-598.156 L 137.231,-597.883 L 137.325,-597.597
 L 137.381,-597.301 L 137.4,-597 L 137.381,-596.699 L 137.325,-596.403 L 137.231,-596.117 L 137.103,-595.844
 L 136.942,-595.589 L 136.75,-595.357 L 136.53,-595.151 L 136.286,-594.974 L 136.022,-594.828 L 135.742,-594.717
 L 135.45,-594.643 L 135.151,-594.605 z
M -135.151,-594.605 L -135.45,-594.643 L -135.742,-594.717 L -136.022,-594.828 L -136.286,-594.974 L -136.53,-595.151
 L -136.75,-595.357 L -136.942,-595.589 L -137.103,-595.844 L -137.231,-596.117 L -137.325,-596.403 L -137.381,-596.699
 L -137.4,-597 L -137.381,-597.301 L -137.325,-597.597 L -137.231,-597.883 L -137.103,-598.156 L -136.942,-598.411
 L -136.75,-598.643 L -136.53,-598.849 L -136.286,-599.026 L -136.022,-599.172 L -135.742,-599.283 L -135.45,-599.357
 L -135.151,-599.395 L -134.849,-599.395 L -134.55,-599.357 L -134.258,-599.283 L -133.978,-599.172 L -133.714,-599.026
 L -133.47,-598.849 L -133.25,-598.643 L -133.058,-598.411 L -132.897,-598.156 L -132.769,-597.883 L -132.675,-597.597
 L -132.619,-597.301 L -132.6,-597 L -132.619,-596.699 L -132.675,-596.403 L -132.769,-596.117 L -132.897,-595.844
 L -133.058,-595.589 L -133.25,-595.357 L -133.47,-595.151 L -133.714,-594.974 L -133.978,-594.828 L -134.258,-594.717
 L -134.55,-594.643 L -134.849,-594.605 z
M 134.849,-444.605 L 134.55,-444.643 L 134.258,-444.717 L 133.978,-444.828 L 133.714,-444.974 L 133.47,-445.151
 L 133.25,-445.357 L 133.058,-445.589 L 132.897,-445.844 L 132.769,-446.117 L 132.675,-446.403 L 132.619,-446.699
 L 132.6,-447 L 132.619,-447.301 L 132.675,-447.597 L 132.769,-447.883 L 132.897,-448.156 L 133.058,-448.411
 L 133.25,-448.643 L 133.47,-448.849 L 133.714,-449.026 L 133.978,-449.172 L 134.258,-449.283 L 134.55,-449.357
 L 134.849,-449.395 L 135.151,-449.395 L 135.45,-449.357 L 135.742,-449.283 L 136.022,-449.172 L 136.286,-449.026
 L 136.53,-448.849 L 136.75,-448.643 L 136.942,-448.411 L 137.103,-448.156 L 137.231,-447.883 L 137.325,-447.597
 L 137.381,-447.301 L 137.4,-447 L 137.381,-446.699 L 137.325,-446.403 L 137.231,-446.117 L 137.103,-445.844
 L 136.942,-445.589 L 136.75,-445.357 L 136.53,-445.151 L 136.286,-444.974 L 136.022,-444.828 L 135.742,-444.717
 L 135.45,-444.643 L 135.151,-444.605 z
M -135.151,-444.605 L -135.45,-444.643 L -135.742,-444.717 L -136.022,-444.828 L -136.286,-444.974 L -136.53,-445.151
 L -136.75,-445.357 L -136.942,-445.589 L -137.103,-445.844 L -137.231,-446.117 L -137.325,-446.403 L -137.381,-446.699
 L -137.4,-447 L -137.381,-447.301 L -137.325,-447.597 L -137.231,-447.883 L -137.103,-448.156 L -136.942,-448.411
 L -136.75,-448.643 L -136.53,-448.849 L -136.286,-449.026 L -136.022,-449.172 L -135.742,-449.283 L -135.45,-449.357
 L -135.151,-449.395 L -134.849,-449.395 L -134.55,-449.357 L -134.258,-449.283 L -133.978,-449.172 L -133.714,-449.026
 L -133.47,-448.849 L -133.25,-448.643 L -133.058,-448.411 L -132.897,-448.156 L -132.769,-447.883 L -132.675,-447.597
 L -132.619,-447.301 L -132.6,-447 L -132.619,-446.699 L -132.675,-446.403 L -132.769,-446.117 L -132.897,-445.844
 L -133.058,-445.589 L -133.25,-445.357 L -133.47,-445.151 L -133.714,-444.974 L -133.978,-444.828 L -134.258,-444.717
 L -134.55,-444.643 L -134.849,-444.605 z
M 138.437,-265.589 L 139.045,-265.745 L 139.629,-265.976 L 140.179,-266.278 L 140.687,-266.647 L 141.145,-267.077
 L 141.545,-267.561 L 141.882,-268.091 L 142.149,-268.659 L 142.343,-269.257 L 142.461,-269.873 L 142.5,-270.5
 L 142.5,-425.5 L 142.461,-426.127 L 142.343,-426.743 L 142.149,-427.341 L 141.882,-427.909 L 141.545,-428.439
 L 141.145,-428.923 L 140.687,-429.353 L 140.179,-429.722 L 139.629,-430.024 L 139.045,-430.255 L 138.437,-430.411
 L 137.814,-430.49 L -137.814,-430.49 L -138.437,-430.411 L -139.045,-430.255 L -139.629,-430.024 L -140.179,-429.722
 L -140.687,-429.353 L -141.145,-428.923 L -141.545,-428.439 L -141.882,-427.909 L -142.149,-427.341 L -142.343,-426.743
 L -142.4,-426.444 L -144,-426.444 L -144,-269.556 L -142.4,-269.556 L -142.343,-269.257 L -142.149,-268.659
 L -141.882,-268.091 L -141.545,-267.561 L -141.145,-267.077 L -140.687,-266.647 L -140.179,-266.278 L -139.629,-265.976
 L -139.045,-265.745 L -138.437,-265.589 L -137.814,-265.51 L 137.814,-265.51 z
M 134.887,-421.204 L 134.663,-421.232 L 134.444,-421.288 L 134.234,-421.371 L 134.036,-421.48 L 133.853,-421.613
 L 133.688,-421.768 L 133.544,-421.942 L 133.423,-422.133 L 133.326,-422.337 L 133.257,-422.552 L 133.214,-422.774
 L 133.2,-423 L 133.214,-423.226 L 133.257,-423.448 L 133.326,-423.663 L 133.423,-423.867 L 133.544,-424.058
 L 133.688,-424.232 L 133.853,-424.387 L 134.036,-424.52 L 134.234,-424.629 L 134.444,-424.712 L 134.663,-424.768
 L 134.887,-424.796 L 135.113,-424.796 L 135.337,-424.768 L 135.556,-424.712 L 135.766,-424.629 L 135.964,-424.52
 L 136.147,-424.387 L 136.312,-424.232 L 136.456,-424.058 L 136.577,-423.867 L 136.674,-423.663 L 136.743,-423.448
 L 136.786,-423.226 L 136.8,-423 L 136.786,-422.774 L 136.743,-422.552 L 136.674,-422.337 L 136.577,-422.133
 L 136.456,-421.942 L 136.312,-421.768 L 136.147,-421.613 L 135.964,-421.48 L 135.766,-421.371 L 135.556,-421.288
 L 135.337,-421.232 L 135.113,-421.204 z
M -135.113,-421.204 L -135.337,-421.232 L -135.556,-421.288 L -135.766,-421.371 L -135.964,-421.48 L -136.147,-421.613
 L -136.312,-421.768 L -136.456,-421.942 L -136.577,-422.133 L -136.674,-422.337 L -136.743,-422.552 L -136.786,-422.774
 L -136.8,-423 L -136.786,-423.226 L -136.743,-423.448 L -136.674,-423.663 L -136.577,-423.867 L -136.456,-424.058
 L -136.312,-424.232 L -136.147,-424.387 L -135.964,-424.52 L -135.766,-424.629 L -135.556,-424.712 L -135.337,-424.768
 L -135.113,-424.796 L -134.887,-424.796 L -134.663,-424.768 L -134.444,-424.712 L -134.234,-424.629 L -134.036,-424.52
 L -133.853,-424.387 L -133.688,-424.232 L -133.544,-424.058 L -133.423,-423.867 L -133.326,-423.663 L -133.257,-423.448
 L -133.214,-423.226 L -133.2,-423 L -133.214,-422.774 L -133.257,-422.552 L -133.326,-422.337 L -133.423,-422.133
 L -133.544,-421.942 L -133.688,-421.768 L -133.853,-421.613 L -134.036,-421.48 L -134.234,-421.371 L -134.444,-421.288
 L -134.663,-421.232 L -134.887,-421.204 z
M 134.887,-271.204 L 134.663,-271.232 L 134.444,-271.288 L 134.234,-271.371 L 134.036,-271.48 L 133.853,-271.613
 L 133.688,-271.768 L 133.544,-271.942 L 133.423,-272.133 L 133.326,-272.337 L 133.257,-272.552 L 133.214,-272.774
 L 133.2,-273 L 133.214,-273.226 L 133.257,-273.448 L 133.326,-273.663 L 133.423,-273.867 L 133.544,-274.058
 L 133.688,-274.232 L 133.853,-274.387 L 134.036,-274.52 L 134.234,-274.629 L 134.444,-274.712 L 134.663,-274.768
 L 134.887,-274.796 L 135.113,-274.796 L 135.337,-274.768 L 135.556,-274.712 L 135.766,-274.629 L 135.964,-274.52
 L 136.147,-274.387 L 136.312,-274.232 L 136.456,-274.058 L 136.577,-273.867 L 136.674,-273.663 L 136.743,-273.448
 L 136.786,-273.226 L 136.8,-273 L 136.786,-272.774 L 136.743,-272.552 L 136.674,-272.337 L 136.577,-272.133
 L 136.456,-271.942 L 136.312,-271.768 L 136.147,-271.613 L 135.964,-271.48 L 135.766,-271.371 L 135.556,-271.288
 L 135.337,-271.232 L 135.113,-271.204 z
M -135.113,-271.204 L -135.337,-271.232 L -135.556,-271.288 L -135.766,-271.371 L -135.964,-271.48 L -136.147,-271.613
 L -136.312,-271.768 L -136.456,-271.942 L -136.577,-272.133 L -136.674,-272.337 L -136.743,-272.552 L -136.786,-272.774
 L -136.8,-273 L -136.786,-273.226 L -136.743,-273.448 L -136.674,-273.663 L -136.577,-273.867 L -136.456,-274.058
 L -136.312,-274.232 L -136.147,-274.387 L -135.964,-274.52 L -135.766,-274.629 L -135.556,-274.712 L -135.337,-274.768
 L -135.113,-274.796 L -134.887,-274.796 L -134.663,-274.768 L -134.444,-274.712 L -134.234,-274.629 L -134.036,-274.52
 L -133.853,-274.387 L -133.688,-274.232 L -133.544,-274.058 L -133.423,-273.867 L -133.326,-273.663 L -133.257,-273.448
 L -133.214,-273.226 L -133.2,-273 L -133.214,-272.774 L -133.257,-272.552 L -133.326,-272.337 L -133.423,-272.133
 L -133.544,-271.942 L -133.688,-271.768 L -133.853,-271.613 L -134.036,-271.48 L -134.234,-271.371 L -134.444,-271.288
 L -134.663,-271.232 L -134.887,-271.204 z
" stroke="black" fill="lightgray" stroke-width="0.5"/>
</svg>
