<?xml version="1.0" standalone="no"?>
<!DOCTYPE svg PUBLIC "-//W3C//DTD SVG 1.1//EN" "http://www.w3.org/Graphics/SVG/1.1/DTD/svg11.dtd">
<svg width="272mm" height="336mm" viewBox="-137 -651 272 336" xmlns="http://www.w3.org/2000/svg" version="1.1">
<title>OpenSCAD Model</title>
<path d="
M -133.5,-592.441 L -133.187,-592.147 L -132.679,-591.778 L -132.129,-591.476 L -131.545,-591.245 L -130.937,-591.089
 L -130.314,-591.01 L 130.314,-591.01 L 130.937,-591.089 L 131.545,-591.245 L 132.129,-591.476 L 132.679,-591.778
 L 133.187,-592.147 L 133.645,-592.577 L 134.045,-593.061 L 134.382,-593.591 L 134.649,-594.159 L 134.843,-594.757
 L 134.961,-595.373 L 135,-596 L 135,-646 L 134.961,-646.627 L 134.843,-647.243 L 134.649,-647.841
 L 134.382,-648.409 L 134.045,-648.939 L 133.645,-649.423 L 133.187,-649.853 L 132.679,-650.222 L 132.129,-650.524
 L 131.545,-650.755 L 130.937,-650.911 L 130.314,-650.99 L -130.314,-650.99 L -130.937,-650.911 L -131.545,-650.755
 L -132.129,-650.524 L -132.679,-650.222 L -133.187,-649.853 L -133.5,-649.559 L -133.5,-650.99 L -136.5,-650.99
 L -136.5,-591.01 L -133.5,-591.01 z
M -129.751,-592.508 L -130.25,-592.571 L -130.736,-592.696 L -131.203,-592.881 L -131.643,-593.123 L -132.05,-593.418
 L -132.416,-593.762 L -132.736,-594.149 L -133.005,-594.573 L -133.219,-595.028 L -133.374,-595.505 L -133.468,-595.999
 L -133.5,-596.5 L -133.5,-645.5 L -133.468,-646.001 L -133.374,-646.495 L -133.219,-646.972 L -133.005,-647.427
 L -132.736,-647.851 L -132.416,-648.238 L -132.05,-648.582 L -131.643,-648.877 L -131.203,-649.119 L -130.736,-649.304
 L -130.25,-649.429 L -129.751,-649.492 L 129.751,-649.492 L 130.25,-649.429 L 130.736,-649.304 L 131.203,-649.119
 L 131.643,-648.877 L 132.05,-648.582 L 132.416,-648.238 L 132.736,-647.851 L 133.005,-647.427 L 133.219,-646.972
 L 133.374,-646.495 L 133.468,-646.001 L 133.5,-645.5 L 133.5,-596.5 L 133.468,-595.999 L 133.374,-595.505
 L 133.219,-595.028 L 133.005,-594.573 L 132.736,-594.149 L 132.416,-593.762 L 132.05,-593.418 L 131.643,-593.123
 L 131.203,-592.881 L 130.736,-592.696 L 130.25,-592.571 L 129.751,-592.508 z
M -133.5,-523.441 L -133.187,-523.147 L -132.679,-522.778 L -132.129,-522.476 L -131.545,-522.245 L -130.937,-522.089
 L -130.314,-522.01 L 130.314,-522.01 L 130.937,-522.089 L 131.545,-522.245 L 132.129,-522.476 L 132.679,-522.778
 L 133.187,-523.147 L 133.645,-523.577 L 134.045,-524.061 L 134.382,-524.591 L 134.649,-525.159 L 134.843,-525.757
 L 134.961,-526.373 L 135,-527 L 135,-577 L 134.961,-577.627 L 134.843,-578.243 L 134.649,-578.841
 L 134.382,-579.409 L 134.045,-579.939 L 133.645,-580.423 L 133.187,-580.853 L 132.679,-581.222 L 132.129,-581.524
 L 131.545,-581.755 L 130.937,-581.911 L 130.314,-581.99 L -130.314,-581.99 L -130.937,-581.911 L -131.545,-581.755
 L -132.129,-581.524 L -132.679,-581.222 L -133.187,-580.853 L -133.5,-580.559 L -133.5,-581.99 L -136.5,-581.99
 L -136.5,-522.01 L -133.5,-522.01 z
M -129.751,-523.508 L -130.25,-523.571 L -130.736,-523.696 L -131.203,-523.881 L -131.643,-524.123 L -132.05,-524.418
 L -132.416,-524.762 L -132.736,-525.149 L -133.005,-525.573 L -133.219,-526.028 L -133.374,-526.505 L -133.468,-526.999
 L -133.5,-527.5 L -133.5,-576.5 L -133.468,-577.001 L -133.374,-577.495 L -133.219,-577.972 L -133.005,-578.427
 L -132.736,-578.851 L -132.416,-579.238 L -132.05,-579.582 L -131.643,-579.877 L -131.203,-580.119 L -130.736,-580.304
 L -130.25,-580.429 L -129.751,-580.492 L 129.751,-580.492 L 130.25,-580.429 L 130.736,-580.304 L 131.203,-580.119
 L 131.643,-579.877 L 132.05,-579.582 L 132.416,-579.238 L 132.736,-578.851 L 133.005,-578.427 L 133.219,-577.972
 L 133.374,-577.495 L 133.468,-577.001 L 133.5,-576.5 L 133.5,-527.5 L 133.468,-526.999 L 133.374,-526.505
 L 133.219,-526.028 L 133.005,-525.573 L 132.736,-525.149 L 132.416,-524.762 L 132.05,-524.418 L 131.643,-524.123
 L 131.203,-523.881 L 130.736,-523.696 L 130.25,-523.571 L 129.751,-523.508 z
M -133.5,-454.441 L -133.187,-454.147 L -132.679,-453.778 L -132.129,-453.476 L -131.545,-453.245 L -130.937,-453.089
 L -130.314,-453.01 L 130.314,-453.01 L 130.937,-453.089 L 131.545,-453.245 L 132.129,-453.476 L 132.679,-453.778
 L 133.187,-454.147 L 133.645,-454.577 L 134.045,-455.061 L 134.382,-455.591 L 134.649,-456.159 L 134.843,-456.757
 L 134.961,-457.373 L 135,-458 L 135,-508 L 134.961,-508.627 L 134.843,-509.243 L 134.649,-509.841
 L 134.382,-510.409 L 134.045,-510.939 L 133.645,-511.423 L 133.187,-511.853 L 132.679,-512.222 L 132.129,-512.524
 L 131.545,-512.755 L 130.937,-512.911 L 130.314,-512.99 L -130.314,-512.99 L -130.937,-512.911 L -131.545,-512.755
 L -132.129,-512.524 L -132.679,-512.222 L -133.187,-511.853 L -133.5,-511.559 L -133.5,-512.99 L -136.5,-512.99
 L -136.5,-453.01 L -133.5,-453.01 z
M -129.751,-454.508 L -130.25,-454.571 L -130.736,-454.696 L -131.203,-454.881 L -131.643,-455.123 L -132.05,-455.418
 L -132.416,-455.762 L -132.736,-456.149 L -133.005,-456.573 L -133.219,-457.028 L -133.374,-457.505 L -133.468,-457.999
 L -133.5,-458.5 L -133.5,-507.5 L -133.468,-508.001 L -133.374,-508.495 L -133.219,-508.972 L -133.005,-509.427
 L -132.736,-509.851 L -132.416,-510.238 L -132.05,-510.582 L -131.643,-510.877 L -131.203,-511.119 L -130.736,-511.304
 L -130.25,-511.429 L -129.751,-511.492 L 129.751,-511.492 L 130.25,-511.429 L 130.736,-511.304 L 131.203,-511.119
 L 131.643,-510.877 L 132.05,-510.582 L 132.416,-510.238 L 132.736,-509.851 L 133.005,-509.427 L 133.219,-508.972
 L 133.374,-508.495 L 133.468,-508.001 L 133.5,-507.5 L 133.5,-458.5 L 133.468,-457.999 L 133.374,-457.505
 L 133.219,-457.028 L 133.005,-456.573 L 132.736,-456.149 L 132.416,-455.762 L 132.05,-455.418 L 131.643,-455.123
 L 131.203,-454.881 L 130.736,-454.696 L 130.25,-454.571 L 129.751,-454.508 z
M 130.937,-384.089 L 131.545,-384.245 L 132.129,-384.476 L 132.679,-384.778 L 133.187,-385.147 L 133.645,-385.577
 L 134.045,-386.061 L 134.382,-386.591 L 134.649,-387.159 L 134.843,-387.757 L 134.961,-388.373 L 135,-389
 L 135,-439 L 134.961,-439.627 L 134.843,-440.243 L 134.649,-440.841 L 134.382,-441.409 L 134.045,-441.939
 L 133.645,-442.423 L 133.187,-442.853 L 132.679,-443.222 L 132.129,-443.524 L 131.545,-443.755 L 130.937,-443.911
 L 130.314,-443.99 L -130.314,-443.99 L -130.937,-443.911 L -131.545,-443.755 L -132.129,-443.524 L -132.679,-443.222
 L -133.187,-442.853 L -133.5,-442.559 L -133.5,-443.979 L -136.5,-443.979 L -136.5,-384.021 L -133.5,-384.021
 L -133.5,-385.441 L -133.187,-385.147 L -132.679,-384.778 L -132.129,-384.476 L -131.545,-384.245 L -130.937,-384.089
 L -130.314,-384.01 L 130.314,-384.01 z
M -129.695,-386.393 L -130.083,-386.442 L -130.462,-386.539 L -130.825,-386.683 L -131.168,-386.872 L -131.484,-387.101
 L -131.769,-387.369 L -132.018,-387.67 L -132.228,-388 L -132.394,-388.354 L -132.515,-388.726 L -132.588,-389.11
 L -132.613,-389.5 L -132.613,-438.5 L -132.588,-438.89 L -132.515,-439.274 L -132.394,-439.646 L -132.228,-440
 L -132.018,-440.33 L -131.769,-440.631 L -131.484,-440.899 L -131.168,-441.128 L -130.825,-441.317 L -130.462,-441.461
 L -130.083,-441.558 L -129.695,-441.607 L 129.695,-441.607 L 130.083,-441.558 L 130.462,-441.461 L 130.825,-441.317
 L 131.168,-441.128 L 131.484,-440.899 L 131.769,-440.631 L 132.018,-440.33 L 132.228,-440 L 132.394,-439.646
 L 132.515,-439.274 L 132.588,-438.89 L 132.613,-438.5 L 132.613,-389.5 L 132.588,-389.11 L 132.515,-388.726
 L 132.394,-388.354 L 132.228,-388 L 132.018,-387.67 L 131.769,-387.369 L 131.484,-387.101 L 131.168,-386.872
 L 130.825,-386.683 L 130.462,-386.539 L 130.083,-386.442 L 129.695,-386.393 z
M 130.937,-315.089 L 131.545,-315.245 L 132.129,-315.476 L 132.679,-315.778 L 133.187,-316.147 L 133.645,-316.577
 L 134.045,-317.061 L 134.382,-317.591 L 134.649,-318.159 L 134.843,-318.757 L 134.961,-319.373 L 135,-320
 L 135,-370 L 134.961,-370.627 L 134.843,-371.243 L 134.649,-371.841 L 134.382,-372.409 L 134.045,-372.939
 L 133.645,-373.423 L 133.187,-373.853 L 132.679,-374.222 L 132.129,-374.524 L 131.545,-374.755 L 130.937,-374.911
 L 130.314,-374.99 L -130.314,-374.99 L -130.937,-374.911 L -131.545,-374.755 L -132.129,-374.524 L -132.679,-374.222
 L -133.187,-373.853 L -133.5,-373.559 L -133.5,-373.653 L -136.5,-373.653 L -136.5,-316.347 L -133.5,-316.347
 L -133.5,-316.441 L -133.187,-316.147 L -132.679,-315.778 L -132.129,-315.476 L -131.545,-315.245 L -130.937,-315.089
 L -130.314,-315.01 L 130.314,-315.01 z
M -127.634,-365.369 L -127.9,-365.403 L -128.16,-365.469 L -128.409,-365.568 L -128.644,-365.697 L -128.861,-365.855
 L -129.057,-366.038 L -129.227,-366.245 L -129.371,-366.471 L -129.485,-366.714 L -129.568,-366.969 L -129.618,-367.232
 L -129.635,-367.5 L -129.618,-367.768 L -129.568,-368.031 L -129.485,-368.286 L -129.371,-368.529 L -129.227,-368.755
 L -129.057,-368.962 L -128.861,-369.145 L -128.644,-369.303 L -128.409,-369.432 L -128.16,-369.531 L -127.9,-369.597
 L -127.634,-369.631 L -127.366,-369.631 L -127.1,-369.597 L -126.84,-369.531 L -126.591,-369.432 L -126.356,-369.303
 L -126.139,-369.145 L -125.943,-368.962 L -125.773,-368.755 L -125.629,-368.529 L -125.515,-368.286 L -125.432,-368.031
 L -125.382,-367.768 L -125.365,-367.5 L -125.382,-367.232 L -125.432,-366.969 L -125.515,-366.714 L -125.629,-366.471
 L -125.773,-366.245 L -125.943,-366.038 L -126.139,-365.855 L -126.356,-365.697 L -126.591,-365.568 L -126.84,-365.469
 L -127.1,-365.403 L -127.366,-365.369 z
M 127.366,-365.369 L 127.1,-365.403 L 126.84,-365.469 L 126.591,-365.568 L 126.356,-365.697 L 126.139,-365.855
 L 125.943,-366.038 L 125.773,-366.245 L 125.629,-366.471 L 125.515,-366.714 L 125.432,-366.969 L 125.382,-367.232
 L 125.365,-367.5 L 125.382,-367.768 L 125.432,-368.031 L 125.515,-368.286 L 125.629,-368.529 L 125.773,-368.755
 L 125.943,-368.962 L 126.139,-369.145 L 126.356,-369.303 L 126.591,-369.432 L 126.84,-369.531 L 127.1,-369.597
 L 127.366,-369.631 L 127.634,-369.631 L 127.9,-369.597 L 128.16,-369.531 L 128.409,-369.432 L 128.644,-369.303
 L 128.861,-369.145 L 129.057,-368.962 L 129.227,-368.755 L 129.371,-368.529 L 129.485,-368.286 L 129.568,-368.031
 L 129.618,-367.768 L 129.635,-367.5 L 129.618,-367.232 L 129.568,-366.969 L 129.485,-366.714 L 129.371,-366.471
 L 129.227,-366.245 L 129.057,-366.038 L 128.861,-365.855 L 128.644,-365.697 L 128.409,-365.568 L 128.16,-365.469
 L 127.9,-365.403 L 127.634,-365.369 z
M -127.634,-320.369 L -127.9,-320.403 L -128.16,-320.469 L -128.409,-320.568 L -128.644,-320.697 L -128.861,-320.855
 L -129.057,-321.038 L -129.227,-321.245 L -129.371,-321.471 L -129.485,-321.714 L -129.568,-321.969 L -129.618,-322.232
 L -129.635,-322.5 L -129.618,-322.768 L -129.568,-323.031 L -129.485,-323.286 L -129.371,-323.529 L -129.227,-323.755
 L -129.057,-323.962 L -128.861,-324.145 L -128.644,-324.303 L -128.409,-324.432 L -128.16,-324.531 L -127.9,-324.597
 L -127.634,-324.631 L -127.366,-324.631 L -127.1,-324.597 L -126.84,-324.531 L -126.591,-324.432 L -126.356,-324.303
 L -126.139,-324.145 L -125.943,-323.962 L -125.773,-323.755 L -125.629,-323.529 L -125.515,-323.286 L -125.432,-323.031
 L -125.382,-322.768 L -125.365,-322.5 L -125.382,-322.232 L -125.432,-321.969 L -125.515,-321.714 L -125.629,-321.471
 L -125.773,-321.245 L -125.943,-321.038 L -126.139,-320.855 L -126.356,-320.697 L -126.591,-320.568 L -126.84,-320.469
 L -127.1,-320.403 L -127.366,-320.369 z
M 127.366,-320.369 L 127.1,-320.403 L 126.84,-320.469 L 126.591,-320.568 L 126.356,-320.697 L 126.139,-320.855
 L 125.943,-321.038 L 125.773,-321.245 L 125.629,-321.471 L 125.515,-321.714 L 125.432,-321.969 L 125.382,-322.232
 L 125.365,-322.5 L 125.382,-322.768 L 125.432,-323.031 L 125.515,-323.286 L 125.629,-323.529 L 125.773,-323.755
 L 125.943,-323.962 L 126.139,-324.145 L 126.356,-324.303 L 126.591,-324.432 L 126.84,-324.531 L 127.1,-324.597
 L 127.366,-324.631 L 127.634,-324.631 L 127.9,-324.597 L 128.16,-324.531 L 128.409,-324.432 L 128.644,-324.303
 L 128.861,-324.145 L 129.057,-323.962 L 129.227,-323.755 L 129.371,-323.529 L 129.485,-323.286 L 129.568,-323.031
 L 129.618,-322.768 L 129.635,-322.5 L 129.618,-322.232 L 129.568,-321.969 L 129.485,-321.714 L 129.371,-321.471
 L 129.227,-321.245 L 129.057,-321.038 L 128.861,-320.855 L 128.644,-320.697 L 128.409,-320.568 L 128.16,-320.469
 L 127.9,-320.403 L 127.634,-320.369 z
" stroke="black" fill="lightgray" stroke-width="0.5"/>
</svg>
