<?xml version="1.0" standalone="no"?>
<!DOCTYPE svg PUBLIC "-//W3C//DTD SVG 1.1//EN" "http://www.w3.org/Graphics/SVG/1.1/DTD/svg11.dtd">
<svg width="300mm" height="1107mm" viewBox="-150 -1809 300 1107" xmlns="http://www.w3.org/2000/svg" version="1.1">
<title>OpenSCAD Model</title>
<path d="
M 145.937,-1539.09 L 146.545,-1539.24 L 147.129,-1539.48 L 147.679,-1539.78 L 148.187,-1540.15 L 148.645,-1540.58
 L 149.045,-1541.06 L 149.382,-1541.59 L 149.649,-1542.16 L 149.843,-1542.76 L 149.961,-1543.37 L 150,-1544
 L 150,-1804 L 149.961,-1804.63 L 149.843,-1805.24 L 149.649,-1805.84 L 149.382,-1806.41 L 149.045,-1806.94
 L 148.645,-1807.42 L 148.187,-1807.85 L 147.679,-1808.22 L 147.129,-1808.52 L 146.545,-1808.76 L 145.937,-1808.91
 L 145.314,-1808.99 L -145.314,-1808.99 L -145.937,-1808.91 L -146.545,-1808.76 L -147.129,-1808.52 L -147.679,-1808.22
 L -148.187,-1807.85 L -148.645,-1807.42 L -149.045,-1806.94 L -149.382,-1806.41 L -149.649,-1805.84 L -149.843,-1805.24
 L -149.961,-1804.63 L -150,-1804 L -150,-1544 L -149.961,-1543.37 L -149.843,-1542.76 L -149.649,-1542.16
 L -149.382,-1541.59 L -149.045,-1541.06 L -148.645,-1540.58 L -148.187,-1540.15 L -147.679,-1539.78 L -147.129,-1539.48
 L -146.545,-1539.24 L -145.937,-1539.09 L -145.314,-1539.01 L 145.314,-1539.01 z
M -145.048,-1539.51 L -145.64,-1539.58 L -146.218,-1539.73 L -146.772,-1539.95 L -147.295,-1540.24 L -147.778,-1540.59
 L -148.213,-1541 L -148.593,-1541.46 L -148.912,-1541.96 L -149.166,-1542.5 L -149.351,-1543.07 L -149.463,-1543.65
 L -149.5,-1544.25 L -149.5,-1803.75 L -149.463,-1804.35 L -149.351,-1804.93 L -149.166,-1805.5 L -148.912,-1806.04
 L -148.593,-1806.54 L -148.213,-1807 L -147.778,-1807.41 L -147.295,-1807.76 L -146.772,-1808.05 L -146.218,-1808.27
 L -145.64,-1808.42 L -145.048,-1808.49 L 145.048,-1808.49 L 145.64,-1808.42 L 146.218,-1808.27 L 146.772,-1808.05
 L 147.295,-1807.76 L 147.778,-1807.41 L 148.213,-1807 L 148.593,-1806.54 L 148.912,-1806.04 L 149.166,-1805.5
 L 149.351,-1804.93 L 149.463,-1804.35 L 149.5,-1803.75 L 149.5,-1544.25 L 149.463,-1543.65 L 149.351,-1543.07
 L 149.166,-1542.5 L 148.912,-1541.96 L 148.593,-1541.46 L 148.213,-1541 L 147.778,-1540.59 L 147.295,-1540.24
 L 146.772,-1539.95 L 146.218,-1539.73 L 145.64,-1539.58 L 145.048,-1539.51 z
M 145.937,-1260.09 L 146.545,-1260.24 L 147.129,-1260.48 L 147.679,-1260.78 L 148.187,-1261.15 L 148.645,-1261.58
 L 149.045,-1262.06 L 149.382,-1262.59 L 149.649,-1263.16 L 149.843,-1263.76 L 149.961,-1264.37 L 150,-1265
 L 150,-1525 L 149.961,-1525.63 L 149.843,-1526.24 L 149.649,-1526.84 L 149.382,-1527.41 L 149.045,-1527.94
 L 148.645,-1528.42 L 148.187,-1528.85 L 147.679,-1529.22 L 147.129,-1529.52 L 146.545,-1529.76 L 145.937,-1529.91
 L 145.314,-1529.99 L -145.314,-1529.99 L -145.937,-1529.91 L -146.545,-1529.76 L -147.129,-1529.52 L -147.679,-1529.22
 L -148.187,-1528.85 L -148.645,-1528.42 L -149.045,-1527.94 L -149.382,-1527.41 L -149.649,-1526.84 L -149.843,-1526.24
 L -149.961,-1525.63 L -150,-1525 L -150,-1265 L -149.961,-1264.37 L -149.843,-1263.76 L -149.649,-1263.16
 L -149.382,-1262.59 L -149.045,-1262.06 L -148.645,-1261.58 L -148.187,-1261.15 L -147.679,-1260.78 L -147.129,-1260.48
 L -146.545,-1260.24 L -145.937,-1260.09 L -145.314,-1260.01 L 145.314,-1260.01 z
M -145.048,-1260.51 L -145.64,-1260.58 L -146.218,-1260.73 L -146.772,-1260.95 L -147.295,-1261.24 L -147.778,-1261.59
 L -148.213,-1262 L -148.593,-1262.46 L -148.912,-1262.96 L -149.166,-1263.5 L -149.351,-1264.07 L -149.463,-1264.65
 L -149.5,-1265.25 L -149.5,-1524.75 L -149.463,-1525.35 L -149.351,-1525.93 L -149.166,-1526.5 L -148.912,-1527.04
 L -148.593,-1527.54 L -148.213,-1528 L -147.778,-1528.41 L -147.295,-1528.76 L -146.772,-1529.05 L -146.218,-1529.27
 L -145.64,-1529.42 L -145.048,-1529.49 L 145.048,-1529.49 L 145.64,-1529.42 L 146.218,-1529.27 L 146.772,-1529.05
 L 147.295,-1528.76 L 147.778,-1528.41 L 148.213,-1528 L 148.593,-1527.54 L 148.912,-1527.04 L 149.166,-1526.5
 L 149.351,-1525.93 L 149.463,-1525.35 L 149.5,-1524.75 L 149.5,-1265.25 L 149.463,-1264.65 L 149.351,-1264.07
 L 149.166,-1263.5 L 148.912,-1262.96 L 148.593,-1262.46 L 148.213,-1262 L 147.778,-1261.59 L 147.295,-1261.24
 L 146.772,-1260.95 L 146.218,-1260.73 L 145.64,-1260.58 L 145.048,-1260.51 z
M 145.937,-981.089 L 146.545,-981.245 L 147.129,-981.476 L 147.679,-981.778 L 148.187,-982.147 L 148.645,-982.577
 L 149.045,-983.061 L 149.382,-983.591 L 149.649,-984.159 L 149.843,-984.757 L 149.961,-985.373 L 150,-986
 L 150,-1246 L 149.961,-1246.63 L 149.843,-1247.24 L 149.649,-1247.84 L 149.382,-1248.41 L 149.045,-1248.94
 L 148.645,-1249.42 L 148.187,-1249.85 L 147.679,-1250.22 L 147.129,-1250.52 L 146.545,-1250.76 L 145.937,-1250.91
 L 145.314,-1250.99 L -145.314,-1250.99 L -145.937,-1250.91 L -146.545,-1250.76 L -147.129,-1250.52 L -147.679,-1250.22
 L -148.187,-1249.85 L -148.645,-1249.42 L -149.045,-1248.94 L -149.382,-1248.41 L -149.649,-1247.84 L -149.843,-1247.24
 L -149.961,-1246.63 L -150,-1246 L -150,-986 L -149.961,-985.373 L -149.843,-984.757 L -149.649,-984.159
 L -149.382,-983.591 L -149.045,-983.061 L -148.645,-982.577 L -148.187,-982.147 L -147.679,-981.778 L -147.129,-981.476
 L -146.545,-981.245 L -145.937,-981.089 L -145.314,-981.01 L 145.314,-981.01 z
M -144.993,-982.388 L -145.475,-982.449 L -145.946,-982.57 L -146.398,-982.749 L -146.823,-982.983 L -147.216,-983.269
 L -147.571,-983.601 L -147.88,-983.976 L -148.141,-984.386 L -148.348,-984.826 L -148.498,-985.288 L -148.589,-985.765
 L -148.619,-986.25 L -148.619,-1245.75 L -148.589,-1246.23 L -148.498,-1246.71 L -148.348,-1247.17 L -148.141,-1247.61
 L -147.88,-1248.02 L -147.571,-1248.4 L -147.216,-1248.73 L -146.823,-1249.02 L -146.398,-1249.25 L -145.946,-1249.43
 L -145.475,-1249.55 L -144.993,-1249.61 L 144.993,-1249.61 L 145.475,-1249.55 L 145.946,-1249.43 L 146.398,-1249.25
 L 146.823,-1249.02 L 147.216,-1248.73 L 147.571,-1248.4 L 147.88,-1248.02 L 148.141,-1247.61 L 148.348,-1247.17
 L 148.498,-1246.71 L 148.589,-1246.23 L 148.619,-1245.75 L 148.619,-986.25 L 148.589,-985.765 L 148.498,-985.288
 L 148.348,-984.826 L 148.141,-984.386 L 147.88,-983.976 L 147.571,-983.601 L 147.216,-983.269 L 146.823,-982.983
 L 146.398,-982.749 L 145.946,-982.57 L 145.475,-982.449 L 144.993,-982.388 z
M 145.937,-702.089 L 146.545,-702.245 L 147.129,-702.476 L 147.679,-702.778 L 148.187,-703.147 L 148.645,-703.577
 L 149.045,-704.061 L 149.382,-704.591 L 149.649,-705.159 L 149.843,-705.757 L 149.961,-706.373 L 150,-707
 L 150,-967 L 149.961,-967.627 L 149.843,-968.243 L 149.649,-968.841 L 149.382,-969.409 L 149.045,-969.939
 L 148.645,-970.423 L 148.187,-970.853 L 147.679,-971.222 L 147.129,-971.524 L 146.545,-971.755 L 145.937,-971.911
 L 145.314,-971.99 L -145.314,-971.99 L -145.937,-971.911 L -146.545,-971.755 L -147.129,-971.524 L -147.679,-971.222
 L -148.187,-970.853 L -148.645,-970.423 L -149.045,-969.939 L -149.382,-969.409 L -149.649,-968.841 L -149.843,-968.243
 L -149.961,-967.627 L -150,-967 L -150,-707 L -149.961,-706.373 L -149.843,-705.757 L -149.649,-705.159
 L -149.382,-704.591 L -149.045,-704.061 L -148.645,-703.577 L -148.187,-703.147 L -147.679,-702.778 L -147.129,-702.476
 L -146.545,-702.245 L -145.937,-702.089 L -145.314,-702.01 L 145.314,-702.01 z
M 142.387,-962.704 L 142.163,-962.732 L 141.944,-962.788 L 141.734,-962.871 L 141.536,-962.98 L 141.353,-963.113
 L 141.188,-963.268 L 141.044,-963.442 L 140.923,-963.633 L 140.826,-963.837 L 140.757,-964.052 L 140.714,-964.274
 L 140.7,-964.5 L 140.714,-964.726 L 140.757,-964.948 L 140.826,-965.163 L 140.923,-965.367 L 141.044,-965.558
 L 141.188,-965.732 L 141.353,-965.887 L 141.536,-966.02 L 141.734,-966.129 L 141.944,-966.212 L 142.163,-966.268
 L 142.387,-966.296 L 142.613,-966.296 L 142.837,-966.268 L 143.056,-966.212 L 143.266,-966.129 L 143.464,-966.02
 L 143.647,-965.887 L 143.812,-965.732 L 143.956,-965.558 L 144.077,-965.367 L 144.174,-965.163 L 144.243,-964.948
 L 144.286,-964.726 L 144.3,-964.5 L 144.286,-964.274 L 144.243,-964.052 L 144.174,-963.837 L 144.077,-963.633
 L 143.956,-963.442 L 143.812,-963.268 L 143.647,-963.113 L 143.464,-962.98 L 143.266,-962.871 L 143.056,-962.788
 L 142.837,-962.732 L 142.613,-962.704 z
M -142.613,-962.704 L -142.837,-962.732 L -143.056,-962.788 L -143.266,-962.871 L -143.464,-962.98 L -143.647,-963.113
 L -143.812,-963.268 L -143.956,-963.442 L -144.077,-963.633 L -144.174,-963.837 L -144.243,-964.052 L -144.286,-964.274
 L -144.3,-964.5 L -144.286,-964.726 L -144.243,-964.948 L -144.174,-965.163 L -144.077,-965.367 L -143.956,-965.558
 L -143.812,-965.732 L -143.647,-965.887 L -143.464,-966.02 L -143.266,-966.129 L -143.056,-966.212 L -142.837,-966.268
 L -142.613,-966.296 L -142.387,-966.296 L -142.163,-966.268 L -141.944,-966.212 L -141.734,-966.129 L -141.536,-966.02
 L -141.353,-965.887 L -141.188,-965.732 L -141.044,-965.558 L -140.923,-965.367 L -140.826,-965.163 L -140.757,-964.948
 L -140.714,-964.726 L -140.7,-964.5 L -140.714,-964.274 L -140.757,-964.052 L -140.826,-963.837 L -140.923,-963.633
 L -141.044,-963.442 L -141.188,-963.268 L -141.353,-963.113 L -141.536,-962.98 L -141.734,-962.871 L -141.944,-962.788
 L -142.163,-962.732 L -142.387,-962.704 z
M -142.613,-707.704 L -142.837,-707.732 L -143.056,-707.788 L -143.266,-707.871 L -143.464,-707.98 L -143.647,-708.113
 L -143.812,-708.268 L -143.956,-708.442 L -144.077,-708.633 L -144.174,-708.837 L -144.243,-709.052 L -144.286,-709.274
 L -144.3,-709.5 L -144.286,-709.726 L -144.243,-709.948 L -144.174,-710.163 L -144.077,-710.367 L -143.956,-710.558
 L -143.812,-710.732 L -143.647,-710.887 L -143.464,-711.02 L -143.266,-711.129 L -143.056,-711.212 L -142.837,-711.268
 L -142.613,-711.296 L -142.387,-711.296 L -142.163,-711.268 L -141.944,-711.212 L -141.734,-711.129 L -141.536,-711.02
 L -141.353,-710.887 L -141.188,-710.732 L -141.044,-710.558 L -140.923,-710.367 L -140.826,-710.163 L -140.757,-709.948
 L -140.714,-709.726 L -140.7,-709.5 L -140.714,-709.274 L -140.757,-709.052 L -140.826,-708.837 L -140.923,-708.633
 L -141.044,-708.442 L -141.188,-708.268 L -141.353,-708.113 L -141.536,-707.98 L -141.734,-707.871 L -141.944,-707.788
 L -142.163,-707.732 L -142.387,-707.704 z
M 142.387,-707.704 L 142.163,-707.732 L 141.944,-707.788 L 141.734,-707.871 L 141.536,-707.98 L 141.353,-708.113
 L 141.188,-708.268 L 141.044,-708.442 L 140.923,-708.633 L 140.826,-708.837 L 140.757,-709.052 L 140.714,-709.274
 L 140.7,-709.5 L 140.714,-709.726 L 140.757,-709.948 L 140.826,-710.163 L 140.923,-710.367 L 141.044,-710.558
 L 141.188,-710.732 L 141.353,-710.887 L 141.536,-711.02 L 141.734,-711.129 L 141.944,-711.212 L 142.163,-711.268
 L 142.387,-711.296 L 142.613,-711.296 L 142.837,-711.268 L 143.056,-711.212 L 143.266,-711.129 L 143.464,-711.02
 L 143.647,-710.887 L 143.812,-710.732 L 143.956,-710.558 L 144.077,-710.367 L 144.174,-710.163 L 144.243,-709.948
 L 144.286,-709.726 L 144.3,-709.5 L 144.286,-709.274 L 144.243,-709.052 L 144.174,-708.837 L 144.077,-708.633
 L 143.956,-708.442 L 143.812,-708.268 L 143.647,-708.113 L 143.464,-707.98 L 143.266,-707.871 L 143.056,-707.788
 L 142.837,-707.732 L 142.613,-707.704 z
" stroke="black" fill="lightgray" stroke-width="0.5"/>
</svg>
