<?xml version="1.0" standalone="no"?>
<!DOCTYPE svg PUBLIC "-//W3C//DTD SVG 1.1//EN" "http://www.w3.org/Graphics/SVG/1.1/DTD/svg11.dtd">
<svg width="256mm" height="694mm" viewBox="-128 -1049 256 694" xmlns="http://www.w3.org/2000/svg" version="1.1">
<title>OpenSCAD Model</title>
<path d="
M 123.437,-823.589 L 124.045,-823.745 L 124.629,-823.976 L 125.179,-824.278 L 125.687,-824.647 L 126.145,-825.077
 L 126.545,-825.561 L 126.882,-826.091 L 127.149,-826.659 L 127.343,-827.257 L 127.461,-827.873 L 127.5,-828.5
 L 127.5,-1043.5 L 127.461,-1044.13 L 127.343,-1044.74 L 127.149,-1045.34 L 126.882,-1045.91 L 126.545,-1046.44
 L 126.145,-1046.92 L 125.687,-1047.35 L 125.179,-1047.72 L 124.629,-1048.02 L 124.045,-1048.26 L 123.437,-1048.41
 L 122.814,-1048.49 L -122.814,-1048.49 L -123.437,-1048.41 L -124.045,-1048.26 L -124.629,-1048.02 L -125.179,-1047.72
 L -125.687,-1047.35 L -126.145,-1046.92 L -126.545,-1046.44 L -126.882,-1045.91 L -127.149,-1045.34 L -127.343,-1044.74
 L -127.461,-1044.13 L -127.5,-1043.5 L -127.5,-828.5 L -127.461,-827.873 L -127.343,-827.257 L -127.149,-826.659
 L -126.882,-826.091 L -126.545,-825.561 L -126.145,-825.077 L -125.687,-824.647 L -125.179,-824.278 L -124.629,-823.976
 L -124.045,-823.745 L -123.437,-823.589 L -122.814,-823.51 L 122.814,-823.51 z
M -122.548,-824.009 L -123.14,-824.084 L -123.718,-824.232 L -124.272,-824.452 L -124.795,-824.739 L -125.278,-825.09
 L -125.713,-825.498 L -126.093,-825.958 L -126.412,-826.462 L -126.666,-827.001 L -126.851,-827.569 L -126.963,-828.155
 L -127,-828.75 L -127,-1043.25 L -126.963,-1043.85 L -126.851,-1044.43 L -126.666,-1045 L -126.412,-1045.54
 L -126.093,-1046.04 L -125.713,-1046.5 L -125.278,-1046.91 L -124.795,-1047.26 L -124.272,-1047.55 L -123.718,-1047.77
 L -123.14,-1047.92 L -122.548,-1047.99 L 122.548,-1047.99 L 123.14,-1047.92 L 123.718,-1047.77 L 124.272,-1047.55
 L 124.795,-1047.26 L 125.278,-1046.91 L 125.713,-1046.5 L 126.093,-1046.04 L 126.412,-1045.54 L 126.666,-1045
 L 126.851,-1044.43 L 126.963,-1043.85 L 127,-1043.25 L 127,-828.75 L 126.963,-828.155 L 126.851,-827.569
 L 126.666,-827.001 L 126.412,-826.462 L 126.093,-825.958 L 125.713,-825.498 L 125.278,-825.09 L 124.795,-824.739
 L 124.272,-824.452 L 123.718,-824.232 L 123.14,-824.084 L 122.548,-824.009 z
M 123.437,-589.589 L 124.045,-589.745 L 124.629,-589.976 L 125.179,-590.278 L 125.687,-590.647 L 126.145,-591.077
 L 126.545,-591.561 L 126.882,-592.091 L 127.149,-592.659 L 127.343,-593.257 L 127.461,-593.873 L 127.5,-594.5
 L 127.5,-809.5 L 127.461,-810.127 L 127.343,-810.743 L 127.149,-811.341 L 126.882,-811.909 L 126.545,-812.439
 L 126.145,-812.923 L 125.687,-813.353 L 125.179,-813.722 L 124.629,-814.024 L 124.045,-814.255 L 123.437,-814.411
 L 122.814,-814.49 L -122.814,-814.49 L -123.437,-814.411 L -124.045,-814.255 L -124.629,-814.024 L -125.179,-813.722
 L -125.687,-813.353 L -126.145,-812.923 L -126.545,-812.439 L -126.882,-811.909 L -127.149,-811.341 L -127.343,-810.743
 L -127.461,-810.127 L -127.5,-809.5 L -127.5,-594.5 L -127.461,-593.873 L -127.343,-593.257 L -127.149,-592.659
 L -126.882,-592.091 L -126.545,-591.561 L -126.145,-591.077 L -125.687,-590.647 L -125.179,-590.278 L -124.629,-589.976
 L -124.045,-589.745 L -123.437,-589.589 L -122.814,-589.51 L 122.814,-589.51 z
M -122.493,-590.888 L -122.975,-590.949 L -123.446,-591.07 L -123.898,-591.249 L -124.323,-591.483 L -124.716,-591.769
 L -125.071,-592.101 L -125.38,-592.476 L -125.641,-592.886 L -125.848,-593.326 L -125.998,-593.788 L -126.089,-594.265
 L -126.119,-594.75 L -126.119,-809.25 L -126.089,-809.735 L -125.998,-810.212 L -125.848,-810.674 L -125.641,-811.114
 L -125.38,-811.524 L -125.071,-811.899 L -124.716,-812.231 L -124.323,-812.517 L -123.898,-812.751 L -123.446,-812.93
 L -122.975,-813.051 L -122.493,-813.112 L 122.493,-813.112 L 122.975,-813.051 L 123.446,-812.93 L 123.898,-812.751
 L 124.323,-812.517 L 124.716,-812.231 L 125.071,-811.899 L 125.38,-811.524 L 125.641,-811.114 L 125.848,-810.674
 L 125.998,-810.212 L 126.089,-809.735 L 126.119,-809.25 L 126.119,-594.75 L 126.089,-594.265 L 125.998,-593.788
 L 125.848,-593.326 L 125.641,-592.886 L 125.38,-592.476 L 125.071,-592.101 L 124.716,-591.769 L 124.323,-591.483
 L 123.898,-591.249 L 123.446,-591.07 L 122.975,-590.949 L 122.493,-590.888 z
M 123.437,-355.589 L 124.045,-355.745 L 124.629,-355.976 L 125.179,-356.278 L 125.687,-356.647 L 126.145,-357.077
 L 126.545,-357.561 L 126.882,-358.091 L 127.149,-358.659 L 127.343,-359.257 L 127.461,-359.873 L 127.5,-360.5
 L 127.5,-575.5 L 127.461,-576.127 L 127.343,-576.743 L 127.149,-577.341 L 126.882,-577.909 L 126.545,-578.439
 L 126.145,-578.923 L 125.687,-579.353 L 125.179,-579.722 L 124.629,-580.024 L 124.045,-580.255 L 123.437,-580.411
 L 122.814,-580.49 L -122.814,-580.49 L -123.437,-580.411 L -124.045,-580.255 L -124.629,-580.024 L -125.179,-579.722
 L -125.687,-579.353 L -126.145,-578.923 L -126.545,-578.439 L -126.882,-577.909 L -127.149,-577.341 L -127.343,-576.743
 L -127.461,-576.127 L -127.5,-575.5 L -127.5,-360.5 L -127.461,-359.873 L -127.343,-359.257 L -127.149,-358.659
 L -126.882,-358.091 L -126.545,-357.561 L -126.145,-357.077 L -125.687,-356.647 L -125.179,-356.278 L -124.629,-355.976
 L -124.045,-355.745 L -123.437,-355.589 L -122.814,-355.51 L 122.814,-355.51 z
M 119.887,-571.204 L 119.663,-571.232 L 119.444,-571.288 L 119.234,-571.371 L 119.036,-571.48 L 118.853,-571.613
 L 118.688,-571.768 L 118.544,-571.942 L 118.423,-572.133 L 118.326,-572.337 L 118.257,-572.552 L 118.214,-572.774
 L 118.2,-573 L 118.214,-573.226 L 118.257,-573.448 L 118.326,-573.663 L 118.423,-573.867 L 118.544,-574.058
 L 118.688,-574.232 L 118.853,-574.387 L 119.036,-574.52 L 119.234,-574.629 L 119.444,-574.712 L 119.663,-574.768
 L 119.887,-574.796 L 120.113,-574.796 L 120.337,-574.768 L 120.556,-574.712 L 120.766,-574.629 L 120.964,-574.52
 L 121.147,-574.387 L 121.312,-574.232 L 121.456,-574.058 L 121.577,-573.867 L 121.674,-573.663 L 121.743,-573.448
 L 121.786,-573.226 L 121.8,-573 L 121.786,-572.774 L 121.743,-572.552 L 121.674,-572.337 L 121.577,-572.133
 L 121.456,-571.942 L 121.312,-571.768 L 121.147,-571.613 L 120.964,-571.48 L 120.766,-571.371 L 120.556,-571.288
 L 120.337,-571.232 L 120.113,-571.204 z
M -120.113,-571.204 L -120.337,-571.232 L -120.556,-571.288 L -120.766,-571.371 L -120.964,-571.48 L -121.147,-571.613
 L -121.312,-571.768 L -121.456,-571.942 L -121.577,-572.133 L -121.674,-572.337 L -121.743,-572.552 L -121.786,-572.774
 L -121.8,-573 L -121.786,-573.226 L -121.743,-573.448 L -121.674,-573.663 L -121.577,-573.867 L -121.456,-574.058
 L -121.312,-574.232 L -121.147,-574.387 L -120.964,-574.52 L -120.766,-574.629 L -120.556,-574.712 L -120.337,-574.768
 L -120.113,-574.796 L -119.887,-574.796 L -119.663,-574.768 L -119.444,-574.712 L -119.234,-574.629 L -119.036,-574.52
 L -118.853,-574.387 L -118.688,-574.232 L -118.544,-574.058 L -118.423,-573.867 L -118.326,-573.663 L -118.257,-573.448
 L -118.214,-573.226 L -118.2,-573 L -118.214,-572.774 L -118.257,-572.552 L -118.326,-572.337 L -118.423,-572.133
 L -118.544,-571.942 L -118.688,-571.768 L -118.853,-571.613 L -119.036,-571.48 L -119.234,-571.371 L -119.444,-571.288
 L -119.663,-571.232 L -119.887,-571.204 z
M -120.113,-361.204 L -120.337,-361.232 L -120.556,-361.288 L -120.766,-361.371 L -120.964,-361.48 L -121.147,-361.613
 L -121.312,-361.768 L -121.456,-361.942 L -121.577,-362.133 L -121.674,-362.337 L -121.743,-362.552 L -121.786,-362.774
 L -121.8,-363 L -121.786,-363.226 L -121.743,-363.448 L -121.674,-363.663 L -121.577,-363.867 L -121.456,-364.058
 L -121.312,-364.232 L -121.147,-364.387 L -120.964,-364.52 L -120.766,-364.629 L -120.556,-364.712 L -120.337,-364.768
 L -120.113,-364.796 L -119.887,-364.796 L -119.663,-364.768 L -119.444,-364.712 L -119.234,-364.629 L -119.036,-364.52
 L -118.853,-364.387 L -118.688,-364.232 L -118.544,-364.058 L -118.423,-363.867 L -118.326,-363.663 L -118.257,-363.448
 L -118.214,-363.226 L -118.2,-363 L -118.214,-362.774 L -118.257,-362.552 L -118.326,-362.337 L -118.423,-362.133
 L -118.544,-361.942 L -118.688,-361.768 L -118.853,-361.613 L -119.036,-361.48 L -119.234,-361.371 L -119.444,-361.288
 L -119.663,-361.232 L -119.887,-361.204 z
M 119.887,-361.204 L 119.663,-361.232 L 119.444,-361.288 L 119.234,-361.371 L 119.036,-361.48 L 118.853,-361.613
 L 118.688,-361.768 L 118.544,-361.942 L 118.423,-362.133 L 118.326,-362.337 L 118.257,-362.552 L 118.214,-362.774
 L 118.2,-363 L 118.214,-363.226 L 118.257,-363.448 L 118.326,-363.663 L 118.423,-363.867 L 118.544,-364.058
 L 118.688,-364.232 L 118.853,-364.387 L 119.036,-364.52 L 119.234,-364.629 L 119.444,-364.712 L 119.663,-364.768
 L 119.887,-364.796 L 120.113,-364.796 L 120.337,-364.768 L 120.556,-364.712 L 120.766,-364.629 L 120.964,-364.52
 L 121.147,-364.387 L 121.312,-364.232 L 121.456,-364.058 L 121.577,-363.867 L 121.674,-363.663 L 121.743,-363.448
 L 121.786,-363.226 L 121.8,-363 L 121.786,-362.774 L 121.743,-362.552 L 121.674,-362.337 L 121.577,-362.133
 L 121.456,-361.942 L 121.312,-361.768 L 121.147,-361.613 L 120.964,-361.48 L 120.766,-361.371 L 120.556,-361.288
 L 120.337,-361.232 L 120.113,-361.204 z
" stroke="black" fill="lightgray" stroke-width="0.5"/>
</svg>
