<?xml version="1.0" standalone="no"?>
<!DOCTYPE svg PUBLIC "-//W3C//DTD SVG 1.1//EN" "http://www.w3.org/Graphics/SVG/1.1/DTD/svg11.dtd">
<svg width="242mm" height="786mm" viewBox="-122 -1347 242 786" xmlns="http://www.w3.org/2000/svg" version="1.1">
<title>OpenSCAD Model</title>
<path d="
M -118.5,-1198.44 L -118.187,-1198.15 L -117.679,-1197.78 L -117.129,-1197.48 L -116.545,-1197.24 L -115.937,-1197.09
 L -115.314,-1197.01 L 115.314,-1197.01 L 115.937,-1197.09 L 116.545,-1197.24 L 117.129,-1197.48 L 117.679,-1197.78
 L 118.187,-1198.15 L 118.645,-1198.58 L 119.045,-1199.06 L 119.382,-1199.59 L 119.649,-1200.16 L 119.843,-1200.76
 L 119.961,-1201.37 L 120,-1202 L 120,-1342 L 119.961,-1342.63 L 119.843,-1343.24 L 119.649,-1343.84
 L 119.382,-1344.41 L 119.045,-1344.94 L 118.645,-1345.42 L 118.187,-1345.85 L 117.679,-1346.22 L 117.129,-1346.52
 L 116.545,-1346.76 L 115.937,-1346.91 L 115.314,-1346.99 L -115.314,-1346.99 L -115.937,-1346.91 L -116.545,-1346.76
 L -117.129,-1346.52 L -117.679,-1346.22 L -118.187,-1345.85 L -118.5,-1345.56 L -118.5,-1346.99 L -121.5,-1346.99
 L -121.5,-1197.01 L -118.5,-1197.01 z
M -114.751,-1198.51 L -115.25,-1198.57 L -115.736,-1198.7 L -116.203,-1198.88 L -116.643,-1199.12 L -117.05,-1199.42
 L -117.416,-1199.76 L -117.736,-1200.15 L -118.005,-1200.57 L -118.219,-1201.03 L -118.374,-1201.51 L -118.468,-1202
 L -118.5,-1202.5 L -118.5,-1341.5 L -118.468,-1342 L -118.374,-1342.49 L -118.219,-1342.97 L -118.005,-1343.43
 L -117.736,-1343.85 L -117.416,-1344.24 L -117.05,-1344.58 L -116.643,-1344.88 L -116.203,-1345.12 L -115.736,-1345.3
 L -115.25,-1345.43 L -114.751,-1345.49 L 114.751,-1345.49 L 115.25,-1345.43 L 115.736,-1345.3 L 116.203,-1345.12
 L 116.643,-1344.88 L 117.05,-1344.58 L 117.416,-1344.24 L 117.736,-1343.85 L 118.005,-1343.43 L 118.219,-1342.97
 L 118.374,-1342.49 L 118.468,-1342 L 118.5,-1341.5 L 118.5,-1202.5 L 118.468,-1202 L 118.374,-1201.51
 L 118.219,-1201.03 L 118.005,-1200.57 L 117.736,-1200.15 L 117.416,-1199.76 L 117.05,-1199.42 L 116.643,-1199.12
 L 116.203,-1198.88 L 115.736,-1198.7 L 115.25,-1198.57 L 114.751,-1198.51 z
M -118.5,-1039.44 L -118.187,-1039.15 L -117.679,-1038.78 L -117.129,-1038.48 L -116.545,-1038.24 L -115.937,-1038.09
 L -115.314,-1038.01 L 115.314,-1038.01 L 115.937,-1038.09 L 116.545,-1038.24 L 117.129,-1038.48 L 117.679,-1038.78
 L 118.187,-1039.15 L 118.645,-1039.58 L 119.045,-1040.06 L 119.382,-1040.59 L 119.649,-1041.16 L 119.843,-1041.76
 L 119.961,-1042.37 L 120,-1043 L 120,-1183 L 119.961,-1183.63 L 119.843,-1184.24 L 119.649,-1184.84
 L 119.382,-1185.41 L 119.045,-1185.94 L 118.645,-1186.42 L 118.187,-1186.85 L 117.679,-1187.22 L 117.129,-1187.52
 L 116.545,-1187.76 L 115.937,-1187.91 L 115.314,-1187.99 L -115.314,-1187.99 L -115.937,-1187.91 L -116.545,-1187.76
 L -117.129,-1187.52 L -117.679,-1187.22 L -118.187,-1186.85 L -118.5,-1186.56 L -118.5,-1187.99 L -121.5,-1187.99
 L -121.5,-1038.01 L -118.5,-1038.01 z
M -114.751,-1039.51 L -115.25,-1039.57 L -115.736,-1039.7 L -116.203,-1039.88 L -116.643,-1040.12 L -117.05,-1040.42
 L -117.416,-1040.76 L -117.736,-1041.15 L -118.005,-1041.57 L -118.219,-1042.03 L -118.374,-1042.51 L -118.468,-1043
 L -118.5,-1043.5 L -118.5,-1182.5 L -118.468,-1183 L -118.374,-1183.49 L -118.219,-1183.97 L -118.005,-1184.43
 L -117.736,-1184.85 L -117.416,-1185.24 L -117.05,-1185.58 L -116.643,-1185.88 L -116.203,-1186.12 L -115.736,-1186.3
 L -115.25,-1186.43 L -114.751,-1186.49 L 114.751,-1186.49 L 115.25,-1186.43 L 115.736,-1186.3 L 116.203,-1186.12
 L 116.643,-1185.88 L 117.05,-1185.58 L 117.416,-1185.24 L 117.736,-1184.85 L 118.005,-1184.43 L 118.219,-1183.97
 L 118.374,-1183.49 L 118.468,-1183 L 118.5,-1182.5 L 118.5,-1043.5 L 118.468,-1043 L 118.374,-1042.51
 L 118.219,-1042.03 L 118.005,-1041.57 L 117.736,-1041.15 L 117.416,-1040.76 L 117.05,-1040.42 L 116.643,-1040.12
 L 116.203,-1039.88 L 115.736,-1039.7 L 115.25,-1039.57 L 114.751,-1039.51 z
M -118.5,-880.441 L -118.187,-880.147 L -117.679,-879.778 L -117.129,-879.476 L -116.545,-879.245 L -115.937,-879.089
 L -115.314,-879.01 L 115.314,-879.01 L 115.937,-879.089 L 116.545,-879.245 L 117.129,-879.476 L 117.679,-879.778
 L 118.187,-880.147 L 118.645,-880.577 L 119.045,-881.061 L 119.382,-881.591 L 119.649,-882.159 L 119.843,-882.757
 L 119.961,-883.373 L 120,-884 L 120,-1024 L 119.961,-1024.63 L 119.843,-1025.24 L 119.649,-1025.84
 L 119.382,-1026.41 L 119.045,-1026.94 L 118.645,-1027.42 L 118.187,-1027.85 L 117.679,-1028.22 L 117.129,-1028.52
 L 116.545,-1028.76 L 115.937,-1028.91 L 115.314,-1028.99 L -115.314,-1028.99 L -115.937,-1028.91 L -116.545,-1028.76
 L -117.129,-1028.52 L -117.679,-1028.22 L -118.187,-1027.85 L -118.5,-1027.56 L -118.5,-1028.99 L -121.5,-1028.99
 L -121.5,-879.01 L -118.5,-879.01 z
M -114.743,-880.635 L -115.226,-880.696 L -115.697,-880.817 L -116.149,-880.996 L -116.575,-881.23 L -116.969,-881.516
 L -117.323,-881.849 L -117.633,-882.224 L -117.894,-882.634 L -118.101,-883.074 L -118.251,-883.537 L -118.342,-884.015
 L -118.373,-884.5 L -118.373,-1023.5 L -118.342,-1023.99 L -118.251,-1024.46 L -118.101,-1024.93 L -117.894,-1025.37
 L -117.633,-1025.78 L -117.323,-1026.15 L -116.969,-1026.48 L -116.575,-1026.77 L -116.149,-1027 L -115.697,-1027.18
 L -115.226,-1027.3 L -114.743,-1027.36 L 114.743,-1027.36 L 115.226,-1027.3 L 115.697,-1027.18 L 116.149,-1027
 L 116.575,-1026.77 L 116.969,-1026.48 L 117.323,-1026.15 L 117.633,-1025.78 L 117.894,-1025.37 L 118.101,-1024.93
 L 118.251,-1024.46 L 118.342,-1023.99 L 118.373,-1023.5 L 118.373,-884.5 L 118.342,-884.015 L 118.251,-883.537
 L 118.101,-883.074 L 117.894,-882.634 L 117.633,-882.224 L 117.323,-881.849 L 116.969,-881.516 L 116.575,-881.23
 L 116.149,-880.996 L 115.697,-880.817 L 115.226,-880.696 L 114.743,-880.635 z
M 115.937,-720.089 L 116.545,-720.245 L 117.129,-720.476 L 117.679,-720.778 L 118.187,-721.147 L 118.645,-721.577
 L 119.045,-722.061 L 119.382,-722.591 L 119.649,-723.159 L 119.843,-723.757 L 119.961,-724.373 L 120,-725
 L 120,-865 L 119.961,-865.627 L 119.843,-866.243 L 119.649,-866.841 L 119.382,-867.409 L 119.045,-867.939
 L 118.645,-868.423 L 118.187,-868.853 L 117.679,-869.222 L 117.129,-869.524 L 116.545,-869.755 L 115.937,-869.911
 L 115.314,-869.99 L -115.314,-869.99 L -115.937,-869.911 L -116.545,-869.755 L -117.129,-869.524 L -117.679,-869.222
 L -118.187,-868.853 L -118.5,-868.559 L -118.5,-869.615 L -121.5,-869.615 L -121.5,-720.385 L -118.5,-720.385
 L -118.5,-721.441 L -118.187,-721.147 L -117.679,-720.778 L -117.129,-720.476 L -116.545,-720.245 L -115.937,-720.089
 L -115.314,-720.01 L 115.314,-720.01 z
M 112.349,-860.105 L 112.05,-860.143 L 111.758,-860.217 L 111.478,-860.328 L 111.214,-860.474 L 110.97,-860.651
 L 110.75,-860.857 L 110.558,-861.089 L 110.397,-861.344 L 110.269,-861.617 L 110.175,-861.903 L 110.119,-862.199
 L 110.1,-862.5 L 110.119,-862.801 L 110.175,-863.097 L 110.269,-863.383 L 110.397,-863.656 L 110.558,-863.911
 L 110.75,-864.143 L 110.97,-864.349 L 111.214,-864.526 L 111.478,-864.672 L 111.758,-864.783 L 112.05,-864.857
 L 112.349,-864.895 L 112.651,-864.895 L 112.95,-864.857 L 113.242,-864.783 L 113.522,-864.672 L 113.786,-864.526
 L 114.03,-864.349 L 114.25,-864.143 L 114.442,-863.911 L 114.603,-863.656 L 114.731,-863.383 L 114.825,-863.097
 L 114.881,-862.801 L 114.9,-862.5 L 114.881,-862.199 L 114.825,-861.903 L 114.731,-861.617 L 114.603,-861.344
 L 114.442,-861.089 L 114.25,-860.857 L 114.03,-860.651 L 113.786,-860.474 L 113.522,-860.328 L 113.242,-860.217
 L 112.95,-860.143 L 112.651,-860.105 z
M -112.651,-860.105 L -112.95,-860.143 L -113.242,-860.217 L -113.522,-860.328 L -113.786,-860.474 L -114.03,-860.651
 L -114.25,-860.857 L -114.442,-861.089 L -114.603,-861.344 L -114.731,-861.617 L -114.825,-861.903 L -114.881,-862.199
 L -114.9,-862.5 L -114.881,-862.801 L -114.825,-863.097 L -114.731,-863.383 L -114.603,-863.656 L -114.442,-863.911
 L -114.25,-864.143 L -114.03,-864.349 L -113.786,-864.526 L -113.522,-864.672 L -113.242,-864.783 L -112.95,-864.857
 L -112.651,-864.895 L -112.349,-864.895 L -112.05,-864.857 L -111.758,-864.783 L -111.478,-864.672 L -111.214,-864.526
 L -110.97,-864.349 L -110.75,-864.143 L -110.558,-863.911 L -110.397,-863.656 L -110.269,-863.383 L -110.175,-863.097
 L -110.119,-862.801 L -110.1,-862.5 L -110.119,-862.199 L -110.175,-861.903 L -110.269,-861.617 L -110.397,-861.344
 L -110.558,-861.089 L -110.75,-860.857 L -110.97,-860.651 L -111.214,-860.474 L -111.478,-860.328 L -111.758,-860.217
 L -112.05,-860.143 L -112.349,-860.105 z
M -112.651,-725.105 L -112.95,-725.143 L -113.242,-725.217 L -113.522,-725.328 L -113.786,-725.474 L -114.03,-725.651
 L -114.25,-725.857 L -114.442,-726.089 L -114.603,-726.344 L -114.731,-726.617 L -114.825,-726.903 L -114.881,-727.199
 L -114.9,-727.5 L -114.881,-727.801 L -114.825,-728.097 L -114.731,-728.383 L -114.603,-728.656 L -114.442,-728.911
 L -114.25,-729.143 L -114.03,-729.349 L -113.786,-729.526 L -113.522,-729.672 L -113.242,-729.783 L -112.95,-729.857
 L -112.651,-729.895 L -112.349,-729.895 L -112.05,-729.857 L -111.758,-729.783 L -111.478,-729.672 L -111.214,-729.526
 L -110.97,-729.349 L -110.75,-729.143 L -110.558,-728.911 L -110.397,-728.656 L -110.269,-728.383 L -110.175,-728.097
 L -110.119,-727.801 L -110.1,-727.5 L -110.119,-727.199 L -110.175,-726.903 L -110.269,-726.617 L -110.397,-726.344
 L -110.558,-726.089 L -110.75,-725.857 L -110.97,-725.651 L -111.214,-725.474 L -111.478,-725.328 L -111.758,-725.217
 L -112.05,-725.143 L -112.349,-725.105 z
M 112.349,-725.105 L 112.05,-725.143 L 111.758,-725.217 L 111.478,-725.328 L 111.214,-725.474 L 110.97,-725.651
 L 110.75,-725.857 L 110.558,-726.089 L 110.397,-726.344 L 110.269,-726.617 L 110.175,-726.903 L 110.119,-727.199
 L 110.1,-727.5 L 110.119,-727.801 L 110.175,-728.097 L 110.269,-728.383 L 110.397,-728.656 L 110.558,-728.911
 L 110.75,-729.143 L 110.97,-729.349 L 111.214,-729.526 L 111.478,-729.672 L 111.758,-729.783 L 112.05,-729.857
 L 112.349,-729.895 L 112.651,-729.895 L 112.95,-729.857 L 113.242,-729.783 L 113.522,-729.672 L 113.786,-729.526
 L 114.03,-729.349 L 114.25,-729.143 L 114.442,-728.911 L 114.603,-728.656 L 114.731,-728.383 L 114.825,-728.097
 L 114.881,-727.801 L 114.9,-727.5 L 114.881,-727.199 L 114.825,-726.903 L 114.731,-726.617 L 114.603,-726.344
 L 114.442,-726.089 L 114.25,-725.857 L 114.03,-725.651 L 113.786,-725.474 L 113.522,-725.328 L 113.242,-725.217
 L 112.95,-725.143 L 112.651,-725.105 z
M 115.937,-561.089 L 116.545,-561.245 L 117.129,-561.476 L 117.679,-561.778 L 118.187,-562.147 L 118.645,-562.577
 L 119.045,-563.061 L 119.382,-563.591 L 119.649,-564.159 L 119.843,-564.757 L 119.961,-565.373 L 120,-566
 L 120,-706 L 119.961,-706.627 L 119.843,-707.243 L 119.649,-707.841 L 119.382,-708.409 L 119.045,-708.939
 L 118.645,-709.423 L 118.187,-709.853 L 117.679,-710.222 L 117.129,-710.524 L 116.545,-710.755 L 115.937,-710.911
 L 115.314,-710.99 L -115.314,-710.99 L -115.937,-710.911 L -116.545,-710.755 L -117.129,-710.524 L -117.679,-710.222
 L -118.187,-709.853 L -118.645,-709.423 L -119.045,-708.939 L -119.382,-708.409 L -119.649,-707.841 L -119.843,-707.243
 L -119.9,-706.944 L -121.5,-706.944 L -121.5,-565.056 L -119.9,-565.056 L -119.843,-564.757 L -119.649,-564.159
 L -119.382,-563.591 L -119.045,-563.061 L -118.645,-562.577 L -118.187,-562.147 L -117.679,-561.778 L -117.129,-561.476
 L -116.545,-561.245 L -115.937,-561.089 L -115.314,-561.01 L 115.314,-561.01 z
M -112.613,-701.704 L -112.837,-701.732 L -113.056,-701.788 L -113.266,-701.871 L -113.464,-701.98 L -113.647,-702.113
 L -113.812,-702.268 L -113.956,-702.442 L -114.077,-702.633 L -114.174,-702.837 L -114.243,-703.052 L -114.286,-703.274
 L -114.3,-703.5 L -114.286,-703.726 L -114.243,-703.948 L -114.174,-704.163 L -114.077,-704.367 L -113.956,-704.558
 L -113.812,-704.732 L -113.647,-704.887 L -113.464,-705.02 L -113.266,-705.129 L -113.056,-705.212 L -112.837,-705.268
 L -112.613,-705.296 L -112.387,-705.296 L -112.163,-705.268 L -111.944,-705.212 L -111.734,-705.129 L -111.536,-705.02
 L -111.353,-704.887 L -111.188,-704.732 L -111.044,-704.558 L -110.923,-704.367 L -110.826,-704.163 L -110.757,-703.948
 L -110.714,-703.726 L -110.7,-703.5 L -110.714,-703.274 L -110.757,-703.052 L -110.826,-702.837 L -110.923,-702.633
 L -111.044,-702.442 L -111.188,-702.268 L -111.353,-702.113 L -111.536,-701.98 L -111.734,-701.871 L -111.944,-701.788
 L -112.163,-701.732 L -112.387,-701.704 z
M 112.387,-701.704 L 112.163,-701.732 L 111.944,-701.788 L 111.734,-701.871 L 111.536,-701.98 L 111.353,-702.113
 L 111.188,-702.268 L 111.044,-702.442 L 110.923,-702.633 L 110.826,-702.837 L 110.757,-703.052 L 110.714,-703.274
 L 110.7,-703.5 L 110.714,-703.726 L 110.757,-703.948 L 110.826,-704.163 L 110.923,-704.367 L 111.044,-704.558
 L 111.188,-704.732 L 111.353,-704.887 L 111.536,-705.02 L 111.734,-705.129 L 111.944,-705.212 L 112.163,-705.268
 L 112.387,-705.296 L 112.613,-705.296 L 112.837,-705.268 L 113.056,-705.212 L 113.266,-705.129 L 113.464,-705.02
 L 113.647,-704.887 L 113.812,-704.732 L 113.956,-704.558 L 114.077,-704.367 L 114.174,-704.163 L 114.243,-703.948
 L 114.286,-703.726 L 114.3,-703.5 L 114.286,-703.274 L 114.243,-703.052 L 114.174,-702.837 L 114.077,-702.633
 L 113.956,-702.442 L 113.812,-702.268 L 113.647,-702.113 L 113.464,-701.98 L 113.266,-701.871 L 113.056,-701.788
 L 112.837,-701.732 L 112.613,-701.704 z
M -112.613,-566.704 L -112.837,-566.732 L -113.056,-566.788 L -113.266,-566.871 L -113.464,-566.98 L -113.647,-567.113
 L -113.812,-567.268 L -113.956,-567.442 L -114.077,-567.633 L -114.174,-567.837 L -114.243,-568.052 L -114.286,-568.274
 L -114.3,-568.5 L -114.286,-568.726 L -114.243,-568.948 L -114.174,-569.163 L -114.077,-569.367 L -113.956,-569.558
 L -113.812,-569.732 L -113.647,-569.887 L -113.464,-570.02 L -113.266,-570.129 L -113.056,-570.212 L -112.837,-570.268
 L -112.613,-570.296 L -112.387,-570.296 L -112.163,-570.268 L -111.944,-570.212 L -111.734,-570.129 L -111.536,-570.02
 L -111.353,-569.887 L -111.188,-569.732 L -111.044,-569.558 L -110.923,-569.367 L -110.826,-569.163 L -110.757,-568.948
 L -110.714,-568.726 L -110.7,-568.5 L -110.714,-568.274 L -110.757,-568.052 L -110.826,-567.837 L -110.923,-567.633
 L -111.044,-567.442 L -111.188,-567.268 L -111.353,-567.113 L -111.536,-566.98 L -111.734,-566.871 L -111.944,-566.788
 L -112.163,-566.732 L -112.387,-566.704 z
M 112.387,-566.704 L 112.163,-566.732 L 111.944,-566.788 L 111.734,-566.871 L 111.536,-566.98 L 111.353,-567.113
 L 111.188,-567.268 L 111.044,-567.442 L 110.923,-567.633 L 110.826,-567.837 L 110.757,-568.052 L 110.714,-568.274
 L 110.7,-568.5 L 110.714,-568.726 L 110.757,-568.948 L 110.826,-569.163 L 110.923,-569.367 L 111.044,-569.558
 L 111.188,-569.732 L 111.353,-569.887 L 111.536,-570.02 L 111.734,-570.129 L 111.944,-570.212 L 112.163,-570.268
 L 112.387,-570.296 L 112.613,-570.296 L 112.837,-570.268 L 113.056,-570.212 L 113.266,-570.129 L 113.464,-570.02
 L 113.647,-569.887 L 113.812,-569.732 L 113.956,-569.558 L 114.077,-569.367 L 114.174,-569.163 L 114.243,-568.948
 L 114.286,-568.726 L 114.3,-568.5 L 114.286,-568.274 L 114.243,-568.052 L 114.174,-567.837 L 114.077,-567.633
 L 113.956,-567.442 L 113.812,-567.268 L 113.647,-567.113 L 113.464,-566.98 L 113.266,-566.871 L 113.056,-566.788
 L 112.837,-566.732 L 112.613,-566.704 z
" stroke="black" fill="lightgray" stroke-width="0.5"/>
</svg>
