<?xml version="1.0" standalone="no"?>
<!DOCTYPE svg PUBLIC "-//W3C//DTD SVG 1.1//EN" "http://www.w3.org/Graphics/SVG/1.1/DTD/svg11.dtd">
<svg width="270mm" height="328mm" viewBox="-135 -626 270 328" xmlns="http://www.w3.org/2000/svg" version="1.1">
<title>OpenSCAD Model</title>
<path d="
M 130.937,-550.589 L 131.545,-550.745 L 132.129,-550.976 L 132.679,-551.278 L 133.187,-551.647 L 133.645,-552.077
 L 134.045,-552.561 L 134.382,-553.091 L 134.649,-553.659 L 134.843,-554.257 L 134.961,-554.873 L 135,-555.5
 L 135,-620.5 L 134.961,-621.127 L 134.843,-621.743 L 134.649,-622.341 L 134.382,-622.909 L 134.045,-623.439
 L 133.645,-623.923 L 133.187,-624.353 L 132.679,-624.722 L 132.129,-625.024 L 131.545,-625.255 L 130.937,-625.411
 L 130.314,-625.49 L -130.314,-625.49 L -130.937,-625.411 L -131.545,-625.255 L -132.129,-625.024 L -132.679,-624.722
 L -133.187,-624.353 L -133.645,-623.923 L -134.045,-623.439 L -134.382,-622.909 L -134.649,-622.341 L -134.843,-621.743
 L -134.961,-621.127 L -135,-620.5 L -135,-555.5 L -134.961,-554.873 L -134.843,-554.257 L -134.649,-553.659
 L -134.382,-553.091 L -134.045,-552.561 L -133.645,-552.077 L -133.187,-551.647 L -132.679,-551.278 L -132.129,-550.976
 L -131.545,-550.745 L -130.937,-550.589 L -130.314,-550.51 L 130.314,-550.51 z
M -130.048,-551.009 L -130.64,-551.084 L -131.218,-551.232 L -131.772,-551.452 L -132.295,-551.739 L -132.778,-552.09
 L -133.213,-552.498 L -133.593,-552.958 L -133.912,-553.462 L -134.166,-554.001 L -134.351,-554.569 L -134.463,-555.155
 L -134.5,-555.75 L -134.5,-620.25 L -134.463,-620.845 L -134.351,-621.431 L -134.166,-621.999 L -133.912,-622.538
 L -133.593,-623.042 L -133.213,-623.502 L -132.778,-623.91 L -132.295,-624.261 L -131.772,-624.548 L -131.218,-624.768
 L -130.64,-624.916 L -130.048,-624.991 L 130.048,-624.991 L 130.64,-624.916 L 131.218,-624.768 L 131.772,-624.548
 L 132.295,-624.261 L 132.778,-623.91 L 133.213,-623.502 L 133.593,-623.042 L 133.912,-622.538 L 134.166,-621.999
 L 134.351,-621.431 L 134.463,-620.845 L 134.5,-620.25 L 134.5,-555.75 L 134.463,-555.155 L 134.351,-554.569
 L 134.166,-554.001 L 133.912,-553.462 L 133.593,-552.958 L 133.213,-552.498 L 132.778,-552.09 L 132.295,-551.739
 L 131.772,-551.452 L 131.218,-551.232 L 130.64,-551.084 L 130.048,-551.009 z
M 130.937,-466.589 L 131.545,-466.745 L 132.129,-466.976 L 132.679,-467.278 L 133.187,-467.647 L 133.645,-468.077
 L 134.045,-468.561 L 134.382,-469.091 L 134.649,-469.659 L 134.843,-470.257 L 134.961,-470.873 L 135,-471.5
 L 135,-536.5 L 134.961,-537.127 L 134.843,-537.743 L 134.649,-538.341 L 134.382,-538.909 L 134.045,-539.439
 L 133.645,-539.923 L 133.187,-540.353 L 132.679,-540.722 L 132.129,-541.024 L 131.545,-541.255 L 130.937,-541.411
 L 130.314,-541.49 L -130.314,-541.49 L -130.937,-541.411 L -131.545,-541.255 L -132.129,-541.024 L -132.679,-540.722
 L -133.187,-540.353 L -133.645,-539.923 L -134.045,-539.439 L -134.382,-538.909 L -134.649,-538.341 L -134.843,-537.743
 L -134.961,-537.127 L -135,-536.5 L -135,-471.5 L -134.961,-470.873 L -134.843,-470.257 L -134.649,-469.659
 L -134.382,-469.091 L -134.045,-468.561 L -133.645,-468.077 L -133.187,-467.647 L -132.679,-467.278 L -132.129,-466.976
 L -131.545,-466.745 L -130.937,-466.589 L -130.314,-466.51 L 130.314,-466.51 z
M -130.048,-467.009 L -130.64,-467.084 L -131.218,-467.232 L -131.772,-467.452 L -132.295,-467.739 L -132.778,-468.09
 L -133.213,-468.498 L -133.593,-468.958 L -133.912,-469.462 L -134.166,-470.001 L -134.351,-470.569 L -134.463,-471.155
 L -134.5,-471.75 L -134.5,-536.25 L -134.463,-536.845 L -134.351,-537.431 L -134.166,-537.999 L -133.912,-538.538
 L -133.593,-539.042 L -133.213,-539.502 L -132.778,-539.91 L -132.295,-540.261 L -131.772,-540.548 L -131.218,-540.768
 L -130.64,-540.916 L -130.048,-540.991 L 130.048,-540.991 L 130.64,-540.916 L 131.218,-540.768 L 131.772,-540.548
 L 132.295,-540.261 L 132.778,-539.91 L 133.213,-539.502 L 133.593,-539.042 L 133.912,-538.538 L 134.166,-537.999
 L 134.351,-537.431 L 134.463,-536.845 L 134.5,-536.25 L 134.5,-471.75 L 134.463,-471.155 L 134.351,-470.569
 L 134.166,-470.001 L 133.912,-469.462 L 133.593,-468.958 L 133.213,-468.498 L 132.778,-468.09 L 132.295,-467.739
 L 131.772,-467.452 L 131.218,-467.232 L 130.64,-467.084 L 130.048,-467.009 z
M 130.937,-382.589 L 131.545,-382.745 L 132.129,-382.976 L 132.679,-383.278 L 133.187,-383.647 L 133.645,-384.077
 L 134.045,-384.561 L 134.382,-385.091 L 134.649,-385.659 L 134.843,-386.257 L 134.961,-386.873 L 135,-387.5
 L 135,-452.5 L 134.961,-453.127 L 134.843,-453.743 L 134.649,-454.341 L 134.382,-454.909 L 134.045,-455.439
 L 133.645,-455.923 L 133.187,-456.353 L 132.679,-456.722 L 132.129,-457.024 L 131.545,-457.255 L 130.937,-457.411
 L 130.314,-457.49 L -130.314,-457.49 L -130.937,-457.411 L -131.545,-457.255 L -132.129,-457.024 L -132.679,-456.722
 L -133.187,-456.353 L -133.645,-455.923 L -134.045,-455.439 L -134.382,-454.909 L -134.649,-454.341 L -134.843,-453.743
 L -134.961,-453.127 L -135,-452.5 L -135,-387.5 L -134.961,-386.873 L -134.843,-386.257 L -134.649,-385.659
 L -134.382,-385.091 L -134.045,-384.561 L -133.645,-384.077 L -133.187,-383.647 L -132.679,-383.278 L -132.129,-382.976
 L -131.545,-382.745 L -130.937,-382.589 L -130.314,-382.51 L 130.314,-382.51 z
M -130.037,-383.181 L -130.608,-383.253 L -131.165,-383.396 L -131.699,-383.607 L -132.203,-383.884 L -132.668,-384.222
 L -133.088,-384.616 L -133.454,-385.059 L -133.762,-385.544 L -134.007,-386.065 L -134.185,-386.611 L -134.292,-387.176
 L -134.328,-387.75 L -134.328,-452.25 L -134.292,-452.824 L -134.185,-453.389 L -134.007,-453.935 L -133.762,-454.456
 L -133.454,-454.941 L -133.088,-455.384 L -132.668,-455.778 L -132.203,-456.116 L -131.699,-456.393 L -131.165,-456.604
 L -130.608,-456.747 L -130.037,-456.819 L 130.037,-456.819 L 130.608,-456.747 L 131.165,-456.604 L 131.699,-456.393
 L 132.203,-456.116 L 132.668,-455.778 L 133.088,-455.384 L 133.454,-454.941 L 133.762,-454.456 L 134.007,-453.935
 L 134.185,-453.389 L 134.292,-452.824 L 134.328,-452.25 L 134.328,-387.75 L 134.292,-387.176 L 134.185,-386.611
 L 134.007,-386.065 L 133.762,-385.544 L 133.454,-385.059 L 133.088,-384.616 L 132.668,-384.222 L 132.203,-383.884
 L 131.699,-383.607 L 131.165,-383.396 L 130.608,-383.253 L 130.037,-383.181 z
M 130.937,-298.589 L 131.545,-298.745 L 132.129,-298.976 L 132.679,-299.278 L 133.187,-299.647 L 133.645,-300.077
 L 134.045,-300.561 L 134.382,-301.091 L 134.649,-301.659 L 134.843,-302.257 L 134.961,-302.873 L 135,-303.5
 L 135,-368.5 L 134.961,-369.127 L 134.843,-369.743 L 134.649,-370.341 L 134.382,-370.909 L 134.045,-371.439
 L 133.645,-371.923 L 133.187,-372.353 L 132.679,-372.722 L 132.129,-373.024 L 131.545,-373.255 L 130.937,-373.411
 L 130.314,-373.49 L -130.314,-373.49 L -130.937,-373.411 L -131.545,-373.255 L -132.129,-373.024 L -132.679,-372.722
 L -133.187,-372.353 L -133.645,-371.923 L -134.045,-371.439 L -134.382,-370.909 L -134.649,-370.341 L -134.843,-369.743
 L -134.961,-369.127 L -135,-368.5 L -135,-303.5 L -134.961,-302.873 L -134.843,-302.257 L -134.649,-301.659
 L -134.382,-301.091 L -134.045,-300.561 L -133.645,-300.077 L -133.187,-299.647 L -132.679,-299.278 L -132.129,-298.976
 L -131.545,-298.745 L -130.937,-298.589 L -130.314,-298.51 L 130.314,-298.51 z
M -129.882,-301.645 L -130.145,-301.678 L -130.402,-301.744 L -130.648,-301.841 L -130.88,-301.969 L -131.095,-302.125
 L -131.288,-302.306 L -131.457,-302.51 L -131.599,-302.734 L -131.711,-302.973 L -131.793,-303.225 L -131.843,-303.486
 L -131.86,-303.75 L -131.86,-368.25 L -131.843,-368.514 L -131.793,-368.775 L -131.711,-369.027 L -131.599,-369.266
 L -131.457,-369.49 L -131.288,-369.694 L -131.095,-369.875 L -130.88,-370.031 L -130.648,-370.159 L -130.402,-370.256
 L -130.145,-370.322 L -129.882,-370.355 L 129.882,-370.355 L 130.145,-370.322 L 130.402,-370.256 L 130.648,-370.159
 L 130.88,-370.031 L 131.095,-369.875 L 131.288,-369.694 L 131.457,-369.49 L 131.599,-369.266 L 131.711,-369.027
 L 131.793,-368.775 L 131.843,-368.514 L 131.86,-368.25 L 131.86,-303.75 L 131.843,-303.486 L 131.793,-303.225
 L 131.711,-302.973 L 131.599,-302.734 L 131.457,-302.51 L 131.288,-302.306 L 131.095,-302.125 L 130.88,-301.969
 L 130.648,-301.841 L 130.402,-301.744 L 130.145,-301.678 L 129.882,-301.645 z
" stroke="black" fill="lightgray" stroke-width="0.5"/>
</svg>
