  0
SECTION
  2
BLOCKS
  0
ENDSEC
  0
SECTION
  2
ENTITIES
  0
LINE
  8
0
 10
-148.5
 20
509.941
 11
-148.187
 21
509.647
  0
LINE
  8
0
 10
-148.187
 20
509.647
 11
-147.679
 21
509.278
  0
LINE
  8
0
 10
-147.679
 20
509.278
 11
-147.129
 21
508.976
  0
LINE
  8
0
 10
-147.129
 20
508.976
 11
-146.545
 21
508.745
  0
LINE
  8
0
 10
-146.545
 20
508.745
 11
-145.937
 21
508.589
  0
LINE
  8
0
 10
-145.937
 20
508.589
 11
-145.314
 21
508.51
  0
LINE
  8
0
 10
-145.314
 20
508.51
 11
145.314
 21
508.51
  0
LINE
  8
0
 10
145.314
 20
508.51
 11
145.937
 21
508.589
  0
LINE
  8
0
 10
145.937
 20
508.589
 11
146.545
 21
508.745
  0
LINE
  8
0
 10
146.545
 20
508.745
 11
147.129
 21
508.976
  0
LINE
  8
0
 10
147.129
 20
508.976
 11
147.679
 21
509.278
  0
LINE
  8
0
 10
147.679
 20
509.278
 11
148.187
 21
509.647
  0
LINE
  8
0
 10
148.187
 20
509.647
 11
148.645
 21
510.077
  0
LINE
  8
0
 10
148.645
 20
510.077
 11
149.045
 21
510.561
  0
LINE
  8
0
 10
149.045
 20
510.561
 11
149.382
 21
511.091
  0
LINE
  8
0
 10
149.382
 20
511.091
 11
149.649
 21
511.659
  0
LINE
  8
0
 10
149.649
 20
511.659
 11
149.843
 21
512.257
  0
LINE
  8
0
 10
149.843
 20
512.257
 11
149.961
 21
512.873
  0
LINE
  8
0
 10
149.961
 20
512.873
 11
150
 21
513.5
  0
LINE
  8
0
 10
150
 20
513.5
 11
150
 21
638.5
  0
LINE
  8
0
 10
150
 20
638.5
 11
149.961
 21
639.127
  0
LINE
  8
0
 10
149.961
 20
639.127
 11
149.843
 21
639.743
  0
LINE
  8
0
 10
149.843
 20
639.743
 11
149.649
 21
640.341
  0
LINE
  8
0
 10
149.649
 20
640.341
 11
149.382
 21
640.909
  0
LINE
  8
0
 10
149.382
 20
640.909
 11
149.045
 21
641.439
  0
LINE
  8
0
 10
149.045
 20
641.439
 11
148.645
 21
641.923
  0
LINE
  8
0
 10
148.645
 20
641.923
 11
148.187
 21
642.353
  0
LINE
  8
0
 10
148.187
 20
642.353
 11
147.679
 21
642.722
  0
LINE
  8
0
 10
147.679
 20
642.722
 11
147.129
 21
643.024
  0
LINE
  8
0
 10
147.129
 20
643.024
 11
146.545
 21
643.255
  0
LINE
  8
0
 10
146.545
 20
643.255
 11
145.937
 21
643.411
  0
LINE
  8
0
 10
145.937
 20
643.411
 11
145.314
 21
643.49
  0
LINE
  8
0
 10
145.314
 20
643.49
 11
-145.314
 21
643.49
  0
LINE
  8
0
 10
-145.314
 20
643.49
 11
-145.937
 21
643.411
  0
LINE
  8
0
 10
-145.937
 20
643.411
 11
-146.545
 21
643.255
  0
LINE
  8
0
 10
-146.545
 20
643.255
 11
-147.129
 21
643.024
  0
LINE
  8
0
 10
-147.129
 20
643.024
 11
-147.679
 21
642.722
  0
LINE
  8
0
 10
-147.679
 20
642.722
 11
-148.187
 21
642.353
  0
LINE
  8
0
 10
-148.187
 20
642.353
 11
-148.5
 21
642.059
  0
LINE
  8
0
 10
-148.5
 20
642.059
 11
-148.5
 21
643.49
  0
LINE
  8
0
 10
-148.5
 20
643.49
 11
-151.5
 21
643.49
  0
LINE
  8
0
 10
-151.5
 20
643.49
 11
-151.5
 21
508.51
  0
LINE
  8
0
 10
-151.5
 20
508.51
 11
-148.5
 21
508.51
  0
LINE
  8
0
 10
-148.5
 20
508.51
 11
-148.5
 21
509.941
  0
LINE
  8
0
 10
-144.743
 20
510.135
 11
-145.226
 21
510.196
  0
LINE
  8
0
 10
-145.226
 20
510.196
 11
-145.697
 21
510.317
  0
LINE
  8
0
 10
-145.697
 20
510.317
 11
-146.149
 21
510.496
  0
LINE
  8
0
 10
-146.149
 20
510.496
 11
-146.575
 21
510.73
  0
LINE
  8
0
 10
-146.575
 20
510.73
 11
-146.969
 21
511.016
  0
LINE
  8
0
 10
-146.969
 20
511.016
 11
-147.323
 21
511.349
  0
LINE
  8
0
 10
-147.323
 20
511.349
 11
-147.633
 21
511.724
  0
LINE
  8
0
 10
-147.633
 20
511.724
 11
-147.894
 21
512.134
  0
LINE
  8
0
 10
-147.894
 20
512.134
 11
-148.101
 21
512.574
  0
LINE
  8
0
 10
-148.101
 20
512.574
 11
-148.251
 21
513.037
  0
LINE
  8
0
 10
-148.251
 20
513.037
 11
-148.342
 21
513.515
  0
LINE
  8
0
 10
-148.342
 20
513.515
 11
-148.373
 21
514
  0
LINE
  8
0
 10
-148.373
 20
514
 11
-148.373
 21
638
  0
LINE
  8
0
 10
-148.373
 20
638
 11
-148.342
 21
638.485
  0
LINE
  8
0
 10
-148.342
 20
638.485
 11
-148.251
 21
638.963
  0
LINE
  8
0
 10
-148.251
 20
638.963
 11
-148.101
 21
639.426
  0
LINE
  8
0
 10
-148.101
 20
639.426
 11
-147.894
 21
639.866
  0
LINE
  8
0
 10
-147.894
 20
639.866
 11
-147.633
 21
640.276
  0
LINE
  8
0
 10
-147.633
 20
640.276
 11
-147.323
 21
640.651
  0
LINE
  8
0
 10
-147.323
 20
640.651
 11
-146.969
 21
640.984
  0
LINE
  8
0
 10
-146.969
 20
640.984
 11
-146.575
 21
641.27
  0
LINE
  8
0
 10
-146.575
 20
641.27
 11
-146.149
 21
641.504
  0
LINE
  8
0
 10
-146.149
 20
641.504
 11
-145.697
 21
641.683
  0
LINE
  8
0
 10
-145.697
 20
641.683
 11
-145.226
 21
641.804
  0
LINE
  8
0
 10
-145.226
 20
641.804
 11
-144.743
 21
641.865
  0
LINE
  8
0
 10
-144.743
 20
641.865
 11
144.743
 21
641.865
  0
LINE
  8
0
 10
144.743
 20
641.865
 11
145.226
 21
641.804
  0
LINE
  8
0
 10
145.226
 20
641.804
 11
145.697
 21
641.683
  0
LINE
  8
0
 10
145.697
 20
641.683
 11
146.149
 21
641.504
  0
LINE
  8
0
 10
146.149
 20
641.504
 11
146.575
 21
641.27
  0
LINE
  8
0
 10
146.575
 20
641.27
 11
146.969
 21
640.984
  0
LINE
  8
0
 10
146.969
 20
640.984
 11
147.323
 21
640.651
  0
LINE
  8
0
 10
147.323
 20
640.651
 11
147.633
 21
640.276
  0
LINE
  8
0
 10
147.633
 20
640.276
 11
147.894
 21
639.866
  0
LINE
  8
0
 10
147.894
 20
639.866
 11
148.101
 21
639.426
  0
LINE
  8
0
 10
148.101
 20
639.426
 11
148.251
 21
638.963
  0
LINE
  8
0
 10
148.251
 20
638.963
 11
148.342
 21
638.485
  0
LINE
  8
0
 10
148.342
 20
638.485
 11
148.373
 21
638
  0
LINE
  8
0
 10
148.373
 20
638
 11
148.373
 21
514
  0
LINE
  8
0
 10
148.373
 20
514
 11
148.342
 21
513.515
  0
LINE
  8
0
 10
148.342
 20
513.515
 11
148.251
 21
513.037
  0
LINE
  8
0
 10
148.251
 20
513.037
 11
148.101
 21
512.574
  0
LINE
  8
0
 10
148.101
 20
512.574
 11
147.894
 21
512.134
  0
LINE
  8
0
 10
147.894
 20
512.134
 11
147.633
 21
511.724
  0
LINE
  8
0
 10
147.633
 20
511.724
 11
147.323
 21
511.349
  0
LINE
  8
0
 10
147.323
 20
511.349
 11
146.969
 21
511.016
  0
LINE
  8
0
 10
146.969
 20
511.016
 11
146.575
 21
510.73
  0
LINE
  8
0
 10
146.575
 20
510.73
 11
146.149
 21
510.496
  0
LINE
  8
0
 10
146.149
 20
510.496
 11
145.697
 21
510.317
  0
LINE
  8
0
 10
145.697
 20
510.317
 11
145.226
 21
510.196
  0
LINE
  8
0
 10
145.226
 20
510.196
 11
144.743
 21
510.135
  0
LINE
  8
0
 10
144.743
 20
510.135
 11
-144.743
 21
510.135
  0
LINE
  8
0
 10
145.937
 20
364.589
 11
146.545
 21
364.745
  0
LINE
  8
0
 10
146.545
 20
364.745
 11
147.129
 21
364.976
  0
LINE
  8
0
 10
147.129
 20
364.976
 11
147.679
 21
365.278
  0
LINE
  8
0
 10
147.679
 20
365.278
 11
148.187
 21
365.647
  0
LINE
  8
0
 10
148.187
 20
365.647
 11
148.645
 21
366.077
  0
LINE
  8
0
 10
148.645
 20
366.077
 11
149.045
 21
366.561
  0
LINE
  8
0
 10
149.045
 20
366.561
 11
149.382
 21
367.091
  0
LINE
  8
0
 10
149.382
 20
367.091
 11
149.649
 21
367.659
  0
LINE
  8
0
 10
149.649
 20
367.659
 11
149.843
 21
368.257
  0
LINE
  8
0
 10
149.843
 20
368.257
 11
149.961
 21
368.873
  0
LINE
  8
0
 10
149.961
 20
368.873
 11
150
 21
369.5
  0
LINE
  8
0
 10
150
 20
369.5
 11
150
 21
494.5
  0
LINE
  8
0
 10
150
 20
494.5
 11
149.961
 21
495.127
  0
LINE
  8
0
 10
149.961
 20
495.127
 11
149.843
 21
495.743
  0
LINE
  8
0
 10
149.843
 20
495.743
 11
149.649
 21
496.341
  0
LINE
  8
0
 10
149.649
 20
496.341
 11
149.382
 21
496.909
  0
LINE
  8
0
 10
149.382
 20
496.909
 11
149.045
 21
497.439
  0
LINE
  8
0
 10
149.045
 20
497.439
 11
148.645
 21
497.923
  0
LINE
  8
0
 10
148.645
 20
497.923
 11
148.187
 21
498.353
  0
LINE
  8
0
 10
148.187
 20
498.353
 11
147.679
 21
498.722
  0
LINE
  8
0
 10
147.679
 20
498.722
 11
147.129
 21
499.024
  0
LINE
  8
0
 10
147.129
 20
499.024
 11
146.545
 21
499.255
  0
LINE
  8
0
 10
146.545
 20
499.255
 11
145.937
 21
499.411
  0
LINE
  8
0
 10
145.937
 20
499.411
 11
145.314
 21
499.49
  0
LINE
  8
0
 10
145.314
 20
499.49
 11
-145.314
 21
499.49
  0
LINE
  8
0
 10
-145.314
 20
499.49
 11
-145.937
 21
499.411
  0
LINE
  8
0
 10
-145.937
 20
499.411
 11
-146.545
 21
499.255
  0
LINE
  8
0
 10
-146.545
 20
499.255
 11
-147.129
 21
499.024
  0
LINE
  8
0
 10
-147.129
 20
499.024
 11
-147.679
 21
498.722
  0
LINE
  8
0
 10
-147.679
 20
498.722
 11
-148.187
 21
498.353
  0
LINE
  8
0
 10
-148.187
 20
498.353
 11
-148.5
 21
498.059
  0
LINE
  8
0
 10
-148.5
 20
498.059
 11
-148.5
 21
499.115
  0
LINE
  8
0
 10
-148.5
 20
499.115
 11
-151.5
 21
499.115
  0
LINE
  8
0
 10
-151.5
 20
499.115
 11
-151.5
 21
364.885
  0
LINE
  8
0
 10
-151.5
 20
364.885
 11
-148.5
 21
364.885
  0
LINE
  8
0
 10
-148.5
 20
364.885
 11
-148.5
 21
365.941
  0
LINE
  8
0
 10
-148.5
 20
365.941
 11
-148.187
 21
365.647
  0
LINE
  8
0
 10
-148.187
 20
365.647
 11
-147.679
 21
365.278
  0
LINE
  8
0
 10
-147.679
 20
365.278
 11
-147.129
 21
364.976
  0
LINE
  8
0
 10
-147.129
 20
364.976
 11
-146.545
 21
364.745
  0
LINE
  8
0
 10
-146.545
 20
364.745
 11
-145.937
 21
364.589
  0
LINE
  8
0
 10
-145.937
 20
364.589
 11
-145.314
 21
364.51
  0
LINE
  8
0
 10
-145.314
 20
364.51
 11
145.314
 21
364.51
  0
LINE
  8
0
 10
145.314
 20
364.51
 11
145.937
 21
364.589
  0
LINE
  8
0
 10
142.349
 20
489.605
 11
142.05
 21
489.643
  0
LINE
  8
0
 10
142.05
 20
489.643
 11
141.758
 21
489.717
  0
LINE
  8
0
 10
141.758
 20
489.717
 11
141.478
 21
489.828
  0
LINE
  8
0
 10
141.478
 20
489.828
 11
141.214
 21
489.974
  0
LINE
  8
0
 10
141.214
 20
489.974
 11
140.97
 21
490.151
  0
LINE
  8
0
 10
140.97
 20
490.151
 11
140.75
 21
490.357
  0
LINE
  8
0
 10
140.75
 20
490.357
 11
140.558
 21
490.589
  0
LINE
  8
0
 10
140.558
 20
490.589
 11
140.397
 21
490.844
  0
LINE
  8
0
 10
140.397
 20
490.844
 11
140.269
 21
491.117
  0
LINE
  8
0
 10
140.269
 20
491.117
 11
140.175
 21
491.403
  0
LINE
  8
0
 10
140.175
 20
491.403
 11
140.119
 21
491.699
  0
LINE
  8
0
 10
140.119
 20
491.699
 11
140.1
 21
492
  0
LINE
  8
0
 10
140.1
 20
492
 11
140.119
 21
492.301
  0
LINE
  8
0
 10
140.119
 20
492.301
 11
140.175
 21
492.597
  0
LINE
  8
0
 10
140.175
 20
492.597
 11
140.269
 21
492.883
  0
LINE
  8
0
 10
140.269
 20
492.883
 11
140.397
 21
493.156
  0
LINE
  8
0
 10
140.397
 20
493.156
 11
140.558
 21
493.411
  0
LINE
  8
0
 10
140.558
 20
493.411
 11
140.75
 21
493.643
  0
LINE
  8
0
 10
140.75
 20
493.643
 11
140.97
 21
493.849
  0
LINE
  8
0
 10
140.97
 20
493.849
 11
141.214
 21
494.026
  0
LINE
  8
0
 10
141.214
 20
494.026
 11
141.478
 21
494.172
  0
LINE
  8
0
 10
141.478
 20
494.172
 11
141.758
 21
494.283
  0
LINE
  8
0
 10
141.758
 20
494.283
 11
142.05
 21
494.357
  0
LINE
  8
0
 10
142.05
 20
494.357
 11
142.349
 21
494.395
  0
LINE
  8
0
 10
142.349
 20
494.395
 11
142.651
 21
494.395
  0
LINE
  8
0
 10
142.651
 20
494.395
 11
142.95
 21
494.357
  0
LINE
  8
0
 10
142.95
 20
494.357
 11
143.242
 21
494.283
  0
LINE
  8
0
 10
143.242
 20
494.283
 11
143.522
 21
494.172
  0
LINE
  8
0
 10
143.522
 20
494.172
 11
143.786
 21
494.026
  0
LINE
  8
0
 10
143.786
 20
494.026
 11
144.03
 21
493.849
  0
LINE
  8
0
 10
144.03
 20
493.849
 11
144.25
 21
493.643
  0
LINE
  8
0
 10
144.25
 20
493.643
 11
144.442
 21
493.411
  0
LINE
  8
0
 10
144.442
 20
493.411
 11
144.603
 21
493.156
  0
LINE
  8
0
 10
144.603
 20
493.156
 11
144.731
 21
492.883
  0
LINE
  8
0
 10
144.731
 20
492.883
 11
144.825
 21
492.597
  0
LINE
  8
0
 10
144.825
 20
492.597
 11
144.881
 21
492.301
  0
LINE
  8
0
 10
144.881
 20
492.301
 11
144.9
 21
492
  0
LINE
  8
0
 10
144.9
 20
492
 11
144.881
 21
491.699
  0
LINE
  8
0
 10
144.881
 20
491.699
 11
144.825
 21
491.403
  0
LINE
  8
0
 10
144.825
 20
491.403
 11
144.731
 21
491.117
  0
LINE
  8
0
 10
144.731
 20
491.117
 11
144.603
 21
490.844
  0
LINE
  8
0
 10
144.603
 20
490.844
 11
144.442
 21
490.589
  0
LINE
  8
0
 10
144.442
 20
490.589
 11
144.25
 21
490.357
  0
LINE
  8
0
 10
144.25
 20
490.357
 11
144.03
 21
490.151
  0
LINE
  8
0
 10
144.03
 20
490.151
 11
143.786
 21
489.974
  0
LINE
  8
0
 10
143.786
 20
489.974
 11
143.522
 21
489.828
  0
LINE
  8
0
 10
143.522
 20
489.828
 11
143.242
 21
489.717
  0
LINE
  8
0
 10
143.242
 20
489.717
 11
142.95
 21
489.643
  0
LINE
  8
0
 10
142.95
 20
489.643
 11
142.651
 21
489.605
  0
LINE
  8
0
 10
142.651
 20
489.605
 11
142.349
 21
489.605
  0
LINE
  8
0
 10
-142.651
 20
489.605
 11
-142.95
 21
489.643
  0
LINE
  8
0
 10
-142.95
 20
489.643
 11
-143.242
 21
489.717
  0
LINE
  8
0
 10
-143.242
 20
489.717
 11
-143.522
 21
489.828
  0
LINE
  8
0
 10
-143.522
 20
489.828
 11
-143.786
 21
489.974
  0
LINE
  8
0
 10
-143.786
 20
489.974
 11
-144.03
 21
490.151
  0
LINE
  8
0
 10
-144.03
 20
490.151
 11
-144.25
 21
490.357
  0
LINE
  8
0
 10
-144.25
 20
490.357
 11
-144.442
 21
490.589
  0
LINE
  8
0
 10
-144.442
 20
490.589
 11
-144.603
 21
490.844
  0
LINE
  8
0
 10
-144.603
 20
490.844
 11
-144.731
 21
491.117
  0
LINE
  8
0
 10
-144.731
 20
491.117
 11
-144.825
 21
491.403
  0
LINE
  8
0
 10
-144.825
 20
491.403
 11
-144.881
 21
491.699
  0
LINE
  8
0
 10
-144.881
 20
491.699
 11
-144.9
 21
492
  0
LINE
  8
0
 10
-144.9
 20
492
 11
-144.881
 21
492.301
  0
LINE
  8
0
 10
-144.881
 20
492.301
 11
-144.825
 21
492.597
  0
LINE
  8
0
 10
-144.825
 20
492.597
 11
-144.731
 21
492.883
  0
LINE
  8
0
 10
-144.731
 20
492.883
 11
-144.603
 21
493.156
  0
LINE
  8
0
 10
-144.603
 20
493.156
 11
-144.442
 21
493.411
  0
LINE
  8
0
 10
-144.442
 20
493.411
 11
-144.25
 21
493.643
  0
LINE
  8
0
 10
-144.25
 20
493.643
 11
-144.03
 21
493.849
  0
LINE
  8
0
 10
-144.03
 20
493.849
 11
-143.786
 21
494.026
  0
LINE
  8
0
 10
-143.786
 20
494.026
 11
-143.522
 21
494.172
  0
LINE
  8
0
 10
-143.522
 20
494.172
 11
-143.242
 21
494.283
  0
LINE
  8
0
 10
-143.242
 20
494.283
 11
-142.95
 21
494.357
  0
LINE
  8
0
 10
-142.95
 20
494.357
 11
-142.651
 21
494.395
  0
LINE
  8
0
 10
-142.651
 20
494.395
 11
-142.349
 21
494.395
  0
LINE
  8
0
 10
-142.349
 20
494.395
 11
-142.05
 21
494.357
  0
LINE
  8
0
 10
-142.05
 20
494.357
 11
-141.758
 21
494.283
  0
LINE
  8
0
 10
-141.758
 20
494.283
 11
-141.478
 21
494.172
  0
LINE
  8
0
 10
-141.478
 20
494.172
 11
-141.214
 21
494.026
  0
LINE
  8
0
 10
-141.214
 20
494.026
 11
-140.97
 21
493.849
  0
LINE
  8
0
 10
-140.97
 20
493.849
 11
-140.75
 21
493.643
  0
LINE
  8
0
 10
-140.75
 20
493.643
 11
-140.558
 21
493.411
  0
LINE
  8
0
 10
-140.558
 20
493.411
 11
-140.397
 21
493.156
  0
LINE
  8
0
 10
-140.397
 20
493.156
 11
-140.269
 21
492.883
  0
LINE
  8
0
 10
-140.269
 20
492.883
 11
-140.175
 21
492.597
  0
LINE
  8
0
 10
-140.175
 20
492.597
 11
-140.119
 21
492.301
  0
LINE
  8
0
 10
-140.119
 20
492.301
 11
-140.1
 21
492
  0
LINE
  8
0
 10
-140.1
 20
492
 11
-140.119
 21
491.699
  0
LINE
  8
0
 10
-140.119
 20
491.699
 11
-140.175
 21
491.403
  0
LINE
  8
0
 10
-140.175
 20
491.403
 11
-140.269
 21
491.117
  0
LINE
  8
0
 10
-140.269
 20
491.117
 11
-140.397
 21
490.844
  0
LINE
  8
0
 10
-140.397
 20
490.844
 11
-140.558
 21
490.589
  0
LINE
  8
0
 10
-140.558
 20
490.589
 11
-140.75
 21
490.357
  0
LINE
  8
0
 10
-140.75
 20
490.357
 11
-140.97
 21
490.151
  0
LINE
  8
0
 10
-140.97
 20
490.151
 11
-141.214
 21
489.974
  0
LINE
  8
0
 10
-141.214
 20
489.974
 11
-141.478
 21
489.828
  0
LINE
  8
0
 10
-141.478
 20
489.828
 11
-141.758
 21
489.717
  0
LINE
  8
0
 10
-141.758
 20
489.717
 11
-142.05
 21
489.643
  0
LINE
  8
0
 10
-142.05
 20
489.643
 11
-142.349
 21
489.605
  0
LINE
  8
0
 10
-142.349
 20
489.605
 11
-142.651
 21
489.605
  0
LINE
  8
0
 10
142.349
 20
369.605
 11
142.05
 21
369.643
  0
LINE
  8
0
 10
142.05
 20
369.643
 11
141.758
 21
369.717
  0
LINE
  8
0
 10
141.758
 20
369.717
 11
141.478
 21
369.828
  0
LINE
  8
0
 10
141.478
 20
369.828
 11
141.214
 21
369.974
  0
LINE
  8
0
 10
141.214
 20
369.974
 11
140.97
 21
370.151
  0
LINE
  8
0
 10
140.97
 20
370.151
 11
140.75
 21
370.357
  0
LINE
  8
0
 10
140.75
 20
370.357
 11
140.558
 21
370.589
  0
LINE
  8
0
 10
140.558
 20
370.589
 11
140.397
 21
370.844
  0
LINE
  8
0
 10
140.397
 20
370.844
 11
140.269
 21
371.117
  0
LINE
  8
0
 10
140.269
 20
371.117
 11
140.175
 21
371.403
  0
LINE
  8
0
 10
140.175
 20
371.403
 11
140.119
 21
371.699
  0
LINE
  8
0
 10
140.119
 20
371.699
 11
140.1
 21
372
  0
LINE
  8
0
 10
140.1
 20
372
 11
140.119
 21
372.301
  0
LINE
  8
0
 10
140.119
 20
372.301
 11
140.175
 21
372.597
  0
LINE
  8
0
 10
140.175
 20
372.597
 11
140.269
 21
372.883
  0
LINE
  8
0
 10
140.269
 20
372.883
 11
140.397
 21
373.156
  0
LINE
  8
0
 10
140.397
 20
373.156
 11
140.558
 21
373.411
  0
LINE
  8
0
 10
140.558
 20
373.411
 11
140.75
 21
373.643
  0
LINE
  8
0
 10
140.75
 20
373.643
 11
140.97
 21
373.849
  0
LINE
  8
0
 10
140.97
 20
373.849
 11
141.214
 21
374.026
  0
LINE
  8
0
 10
141.214
 20
374.026
 11
141.478
 21
374.172
  0
LINE
  8
0
 10
141.478
 20
374.172
 11
141.758
 21
374.283
  0
LINE
  8
0
 10
141.758
 20
374.283
 11
142.05
 21
374.357
  0
LINE
  8
0
 10
142.05
 20
374.357
 11
142.349
 21
374.395
  0
LINE
  8
0
 10
142.349
 20
374.395
 11
142.651
 21
374.395
  0
LINE
  8
0
 10
142.651
 20
374.395
 11
142.95
 21
374.357
  0
LINE
  8
0
 10
142.95
 20
374.357
 11
143.242
 21
374.283
  0
LINE
  8
0
 10
143.242
 20
374.283
 11
143.522
 21
374.172
  0
LINE
  8
0
 10
143.522
 20
374.172
 11
143.786
 21
374.026
  0
LINE
  8
0
 10
143.786
 20
374.026
 11
144.03
 21
373.849
  0
LINE
  8
0
 10
144.03
 20
373.849
 11
144.25
 21
373.643
  0
LINE
  8
0
 10
144.25
 20
373.643
 11
144.442
 21
373.411
  0
LINE
  8
0
 10
144.442
 20
373.411
 11
144.603
 21
373.156
  0
LINE
  8
0
 10
144.603
 20
373.156
 11
144.731
 21
372.883
  0
LINE
  8
0
 10
144.731
 20
372.883
 11
144.825
 21
372.597
  0
LINE
  8
0
 10
144.825
 20
372.597
 11
144.881
 21
372.301
  0
LINE
  8
0
 10
144.881
 20
372.301
 11
144.9
 21
372
  0
LINE
  8
0
 10
144.9
 20
372
 11
144.881
 21
371.699
  0
LINE
  8
0
 10
144.881
 20
371.699
 11
144.825
 21
371.403
  0
LINE
  8
0
 10
144.825
 20
371.403
 11
144.731
 21
371.117
  0
LINE
  8
0
 10
144.731
 20
371.117
 11
144.603
 21
370.844
  0
LINE
  8
0
 10
144.603
 20
370.844
 11
144.442
 21
370.589
  0
LINE
  8
0
 10
144.442
 20
370.589
 11
144.25
 21
370.357
  0
LINE
  8
0
 10
144.25
 20
370.357
 11
144.03
 21
370.151
  0
LINE
  8
0
 10
144.03
 20
370.151
 11
143.786
 21
369.974
  0
LINE
  8
0
 10
143.786
 20
369.974
 11
143.522
 21
369.828
  0
LINE
  8
0
 10
143.522
 20
369.828
 11
143.242
 21
369.717
  0
LINE
  8
0
 10
143.242
 20
369.717
 11
142.95
 21
369.643
  0
LINE
  8
0
 10
142.95
 20
369.643
 11
142.651
 21
369.605
  0
LINE
  8
0
 10
142.651
 20
369.605
 11
142.349
 21
369.605
  0
LINE
  8
0
 10
-142.651
 20
369.605
 11
-142.95
 21
369.643
  0
LINE
  8
0
 10
-142.95
 20
369.643
 11
-143.242
 21
369.717
  0
LINE
  8
0
 10
-143.242
 20
369.717
 11
-143.522
 21
369.828
  0
LINE
  8
0
 10
-143.522
 20
369.828
 11
-143.786
 21
369.974
  0
LINE
  8
0
 10
-143.786
 20
369.974
 11
-144.03
 21
370.151
  0
LINE
  8
0
 10
-144.03
 20
370.151
 11
-144.25
 21
370.357
  0
LINE
  8
0
 10
-144.25
 20
370.357
 11
-144.442
 21
370.589
  0
LINE
  8
0
 10
-144.442
 20
370.589
 11
-144.603
 21
370.844
  0
LINE
  8
0
 10
-144.603
 20
370.844
 11
-144.731
 21
371.117
  0
LINE
  8
0
 10
-144.731
 20
371.117
 11
-144.825
 21
371.403
  0
LINE
  8
0
 10
-144.825
 20
371.403
 11
-144.881
 21
371.699
  0
LINE
  8
0
 10
-144.881
 20
371.699
 11
-144.9
 21
372
  0
LINE
  8
0
 10
-144.9
 20
372
 11
-144.881
 21
372.301
  0
LINE
  8
0
 10
-144.881
 20
372.301
 11
-144.825
 21
372.597
  0
LINE
  8
0
 10
-144.825
 20
372.597
 11
-144.731
 21
372.883
  0
LINE
  8
0
 10
-144.731
 20
372.883
 11
-144.603
 21
373.156
  0
LINE
  8
0
 10
-144.603
 20
373.156
 11
-144.442
 21
373.411
  0
LINE
  8
0
 10
-144.442
 20
373.411
 11
-144.25
 21
373.643
  0
LINE
  8
0
 10
-144.25
 20
373.643
 11
-144.03
 21
373.849
  0
LINE
  8
0
 10
-144.03
 20
373.849
 11
-143.786
 21
374.026
  0
LINE
  8
0
 10
-143.786
 20
374.026
 11
-143.522
 21
374.172
  0
LINE
  8
0
 10
-143.522
 20
374.172
 11
-143.242
 21
374.283
  0
LINE
  8
0
 10
-143.242
 20
374.283
 11
-142.95
 21
374.357
  0
LINE
  8
0
 10
-142.95
 20
374.357
 11
-142.651
 21
374.395
  0
LINE
  8
0
 10
-142.651
 20
374.395
 11
-142.349
 21
374.395
  0
LINE
  8
0
 10
-142.349
 20
374.395
 11
-142.05
 21
374.357
  0
LINE
  8
0
 10
-142.05
 20
374.357
 11
-141.758
 21
374.283
  0
LINE
  8
0
 10
-141.758
 20
374.283
 11
-141.478
 21
374.172
  0
LINE
  8
0
 10
-141.478
 20
374.172
 11
-141.214
 21
374.026
  0
LINE
  8
0
 10
-141.214
 20
374.026
 11
-140.97
 21
373.849
  0
LINE
  8
0
 10
-140.97
 20
373.849
 11
-140.75
 21
373.643
  0
LINE
  8
0
 10
-140.75
 20
373.643
 11
-140.558
 21
373.411
  0
LINE
  8
0
 10
-140.558
 20
373.411
 11
-140.397
 21
373.156
  0
LINE
  8
0
 10
-140.397
 20
373.156
 11
-140.269
 21
372.883
  0
LINE
  8
0
 10
-140.269
 20
372.883
 11
-140.175
 21
372.597
  0
LINE
  8
0
 10
-140.175
 20
372.597
 11
-140.119
 21
372.301
  0
LINE
  8
0
 10
-140.119
 20
372.301
 11
-140.1
 21
372
  0
LINE
  8
0
 10
-140.1
 20
372
 11
-140.119
 21
371.699
  0
LINE
  8
0
 10
-140.119
 20
371.699
 11
-140.175
 21
371.403
  0
LINE
  8
0
 10
-140.175
 20
371.403
 11
-140.269
 21
371.117
  0
LINE
  8
0
 10
-140.269
 20
371.117
 11
-140.397
 21
370.844
  0
LINE
  8
0
 10
-140.397
 20
370.844
 11
-140.558
 21
370.589
  0
LINE
  8
0
 10
-140.558
 20
370.589
 11
-140.75
 21
370.357
  0
LINE
  8
0
 10
-140.75
 20
370.357
 11
-140.97
 21
370.151
  0
LINE
  8
0
 10
-140.97
 20
370.151
 11
-141.214
 21
369.974
  0
LINE
  8
0
 10
-141.214
 20
369.974
 11
-141.478
 21
369.828
  0
LINE
  8
0
 10
-141.478
 20
369.828
 11
-141.758
 21
369.717
  0
LINE
  8
0
 10
-141.758
 20
369.717
 11
-142.05
 21
369.643
  0
LINE
  8
0
 10
-142.05
 20
369.643
 11
-142.349
 21
369.605
  0
LINE
  8
0
 10
-142.349
 20
369.605
 11
-142.651
 21
369.605
  0
LINE
  8
0
 10
145.937
 20
220.589
 11
146.545
 21
220.745
  0
LINE
  8
0
 10
146.545
 20
220.745
 11
147.129
 21
220.976
  0
LINE
  8
0
 10
147.129
 20
220.976
 11
147.679
 21
221.278
  0
LINE
  8
0
 10
147.679
 20
221.278
 11
148.187
 21
221.647
  0
LINE
  8
0
 10
148.187
 20
221.647
 11
148.645
 21
222.077
  0
LINE
  8
0
 10
148.645
 20
222.077
 11
149.045
 21
222.561
  0
LINE
  8
0
 10
149.045
 20
222.561
 11
149.382
 21
223.091
  0
LINE
  8
0
 10
149.382
 20
223.091
 11
149.649
 21
223.659
  0
LINE
  8
0
 10
149.649
 20
223.659
 11
149.843
 21
224.257
  0
LINE
  8
0
 10
149.843
 20
224.257
 11
149.961
 21
224.873
  0
LINE
  8
0
 10
149.961
 20
224.873
 11
150
 21
225.5
  0
LINE
  8
0
 10
150
 20
225.5
 11
150
 21
350.5
  0
LINE
  8
0
 10
150
 20
350.5
 11
149.961
 21
351.127
  0
LINE
  8
0
 10
149.961
 20
351.127
 11
149.843
 21
351.743
  0
LINE
  8
0
 10
149.843
 20
351.743
 11
149.649
 21
352.341
  0
LINE
  8
0
 10
149.649
 20
352.341
 11
149.382
 21
352.909
  0
LINE
  8
0
 10
149.382
 20
352.909
 11
149.045
 21
353.439
  0
LINE
  8
0
 10
149.045
 20
353.439
 11
148.645
 21
353.923
  0
LINE
  8
0
 10
148.645
 20
353.923
 11
148.187
 21
354.353
  0
LINE
  8
0
 10
148.187
 20
354.353
 11
147.679
 21
354.722
  0
LINE
  8
0
 10
147.679
 20
354.722
 11
147.129
 21
355.024
  0
LINE
  8
0
 10
147.129
 20
355.024
 11
146.545
 21
355.255
  0
LINE
  8
0
 10
146.545
 20
355.255
 11
145.937
 21
355.411
  0
LINE
  8
0
 10
145.937
 20
355.411
 11
145.314
 21
355.49
  0
LINE
  8
0
 10
145.314
 20
355.49
 11
-145.314
 21
355.49
  0
LINE
  8
0
 10
-145.314
 20
355.49
 11
-145.937
 21
355.411
  0
LINE
  8
0
 10
-145.937
 20
355.411
 11
-146.545
 21
355.255
  0
LINE
  8
0
 10
-146.545
 20
355.255
 11
-147.129
 21
355.024
  0
LINE
  8
0
 10
-147.129
 20
355.024
 11
-147.679
 21
354.722
  0
LINE
  8
0
 10
-147.679
 20
354.722
 11
-148.187
 21
354.353
  0
LINE
  8
0
 10
-148.187
 20
354.353
 11
-148.645
 21
353.923
  0
LINE
  8
0
 10
-148.645
 20
353.923
 11
-149.045
 21
353.439
  0
LINE
  8
0
 10
-149.045
 20
353.439
 11
-149.382
 21
352.909
  0
LINE
  8
0
 10
-149.382
 20
352.909
 11
-149.649
 21
352.341
  0
LINE
  8
0
 10
-149.649
 20
352.341
 11
-149.843
 21
351.743
  0
LINE
  8
0
 10
-149.843
 20
351.743
 11
-149.9
 21
351.444
  0
LINE
  8
0
 10
-149.9
 20
351.444
 11
-151.5
 21
351.444
  0
LINE
  8
0
 10
-151.5
 20
351.444
 11
-151.5
 21
224.556
  0
LINE
  8
0
 10
-151.5
 20
224.556
 11
-149.9
 21
224.556
  0
LINE
  8
0
 10
-149.9
 20
224.556
 11
-149.843
 21
224.257
  0
LINE
  8
0
 10
-149.843
 20
224.257
 11
-149.649
 21
223.659
  0
LINE
  8
0
 10
-149.649
 20
223.659
 11
-149.382
 21
223.091
  0
LINE
  8
0
 10
-149.382
 20
223.091
 11
-149.045
 21
222.561
  0
LINE
  8
0
 10
-149.045
 20
222.561
 11
-148.645
 21
222.077
  0
LINE
  8
0
 10
-148.645
 20
222.077
 11
-148.187
 21
221.647
  0
LINE
  8
0
 10
-148.187
 20
221.647
 11
-147.679
 21
221.278
  0
LINE
  8
0
 10
-147.679
 20
221.278
 11
-147.129
 21
220.976
  0
LINE
  8
0
 10
-147.129
 20
220.976
 11
-146.545
 21
220.745
  0
LINE
  8
0
 10
-146.545
 20
220.745
 11
-145.937
 21
220.589
  0
LINE
  8
0
 10
-145.937
 20
220.589
 11
-145.314
 21
220.51
  0
LINE
  8
0
 10
-145.314
 20
220.51
 11
145.314
 21
220.51
  0
LINE
  8
0
 10
145.314
 20
220.51
 11
145.937
 21
220.589
  0
LINE
  8
0
 10
142.387
 20
346.204
 11
142.163
 21
346.232
  0
LINE
  8
0
 10
142.163
 20
346.232
 11
141.944
 21
346.288
  0
LINE
  8
0
 10
141.944
 20
346.288
 11
141.734
 21
346.371
  0
LINE
  8
0
 10
141.734
 20
346.371
 11
141.536
 21
346.48
  0
LINE
  8
0
 10
141.536
 20
346.48
 11
141.353
 21
346.613
  0
LINE
  8
0
 10
141.353
 20
346.613
 11
141.188
 21
346.768
  0
LINE
  8
0
 10
141.188
 20
346.768
 11
141.044
 21
346.942
  0
LINE
  8
0
 10
141.044
 20
346.942
 11
140.923
 21
347.133
  0
LINE
  8
0
 10
140.923
 20
347.133
 11
140.826
 21
347.337
  0
LINE
  8
0
 10
140.826
 20
347.337
 11
140.757
 21
347.552
  0
LINE
  8
0
 10
140.757
 20
347.552
 11
140.714
 21
347.774
  0
LINE
  8
0
 10
140.714
 20
347.774
 11
140.7
 21
348
  0
LINE
  8
0
 10
140.7
 20
348
 11
140.714
 21
348.226
  0
LINE
  8
0
 10
140.714
 20
348.226
 11
140.757
 21
348.448
  0
LINE
  8
0
 10
140.757
 20
348.448
 11
140.826
 21
348.663
  0
LINE
  8
0
 10
140.826
 20
348.663
 11
140.923
 21
348.867
  0
LINE
  8
0
 10
140.923
 20
348.867
 11
141.044
 21
349.058
  0
LINE
  8
0
 10
141.044
 20
349.058
 11
141.188
 21
349.232
  0
LINE
  8
0
 10
141.188
 20
349.232
 11
141.353
 21
349.387
  0
LINE
  8
0
 10
141.353
 20
349.387
 11
141.536
 21
349.52
  0
LINE
  8
0
 10
141.536
 20
349.52
 11
141.734
 21
349.629
  0
LINE
  8
0
 10
141.734
 20
349.629
 11
141.944
 21
349.712
  0
LINE
  8
0
 10
141.944
 20
349.712
 11
142.163
 21
349.768
  0
LINE
  8
0
 10
142.163
 20
349.768
 11
142.387
 21
349.796
  0
LINE
  8
0
 10
142.387
 20
349.796
 11
142.613
 21
349.796
  0
LINE
  8
0
 10
142.613
 20
349.796
 11
142.837
 21
349.768
  0
LINE
  8
0
 10
142.837
 20
349.768
 11
143.056
 21
349.712
  0
LINE
  8
0
 10
143.056
 20
349.712
 11
143.266
 21
349.629
  0
LINE
  8
0
 10
143.266
 20
349.629
 11
143.464
 21
349.52
  0
LINE
  8
0
 10
143.464
 20
349.52
 11
143.647
 21
349.387
  0
LINE
  8
0
 10
143.647
 20
349.387
 11
143.812
 21
349.232
  0
LINE
  8
0
 10
143.812
 20
349.232
 11
143.956
 21
349.058
  0
LINE
  8
0
 10
143.956
 20
349.058
 11
144.077
 21
348.867
  0
LINE
  8
0
 10
144.077
 20
348.867
 11
144.174
 21
348.663
  0
LINE
  8
0
 10
144.174
 20
348.663
 11
144.243
 21
348.448
  0
LINE
  8
0
 10
144.243
 20
348.448
 11
144.286
 21
348.226
  0
LINE
  8
0
 10
144.286
 20
348.226
 11
144.3
 21
348
  0
LINE
  8
0
 10
144.3
 20
348
 11
144.286
 21
347.774
  0
LINE
  8
0
 10
144.286
 20
347.774
 11
144.243
 21
347.552
  0
LINE
  8
0
 10
144.243
 20
347.552
 11
144.174
 21
347.337
  0
LINE
  8
0
 10
144.174
 20
347.337
 11
144.077
 21
347.133
  0
LINE
  8
0
 10
144.077
 20
347.133
 11
143.956
 21
346.942
  0
LINE
  8
0
 10
143.956
 20
346.942
 11
143.812
 21
346.768
  0
LINE
  8
0
 10
143.812
 20
346.768
 11
143.647
 21
346.613
  0
LINE
  8
0
 10
143.647
 20
346.613
 11
143.464
 21
346.48
  0
LINE
  8
0
 10
143.464
 20
346.48
 11
143.266
 21
346.371
  0
LINE
  8
0
 10
143.266
 20
346.371
 11
143.056
 21
346.288
  0
LINE
  8
0
 10
143.056
 20
346.288
 11
142.837
 21
346.232
  0
LINE
  8
0
 10
142.837
 20
346.232
 11
142.613
 21
346.204
  0
LINE
  8
0
 10
142.613
 20
346.204
 11
142.387
 21
346.204
  0
LINE
  8
0
 10
-142.613
 20
346.204
 11
-142.837
 21
346.232
  0
LINE
  8
0
 10
-142.837
 20
346.232
 11
-143.056
 21
346.288
  0
LINE
  8
0
 10
-143.056
 20
346.288
 11
-143.266
 21
346.371
  0
LINE
  8
0
 10
-143.266
 20
346.371
 11
-143.464
 21
346.48
  0
LINE
  8
0
 10
-143.464
 20
346.48
 11
-143.647
 21
346.613
  0
LINE
  8
0
 10
-143.647
 20
346.613
 11
-143.812
 21
346.768
  0
LINE
  8
0
 10
-143.812
 20
346.768
 11
-143.956
 21
346.942
  0
LINE
  8
0
 10
-143.956
 20
346.942
 11
-144.077
 21
347.133
  0
LINE
  8
0
 10
-144.077
 20
347.133
 11
-144.174
 21
347.337
  0
LINE
  8
0
 10
-144.174
 20
347.337
 11
-144.243
 21
347.552
  0
LINE
  8
0
 10
-144.243
 20
347.552
 11
-144.286
 21
347.774
  0
LINE
  8
0
 10
-144.286
 20
347.774
 11
-144.3
 21
348
  0
LINE
  8
0
 10
-144.3
 20
348
 11
-144.286
 21
348.226
  0
LINE
  8
0
 10
-144.286
 20
348.226
 11
-144.243
 21
348.448
  0
LINE
  8
0
 10
-144.243
 20
348.448
 11
-144.174
 21
348.663
  0
LINE
  8
0
 10
-144.174
 20
348.663
 11
-144.077
 21
348.867
  0
LINE
  8
0
 10
-144.077
 20
348.867
 11
-143.956
 21
349.058
  0
LINE
  8
0
 10
-143.956
 20
349.058
 11
-143.812
 21
349.232
  0
LINE
  8
0
 10
-143.812
 20
349.232
 11
-143.647
 21
349.387
  0
LINE
  8
0
 10
-143.647
 20
349.387
 11
-143.464
 21
349.52
  0
LINE
  8
0
 10
-143.464
 20
349.52
 11
-143.266
 21
349.629
  0
LINE
  8
0
 10
-143.266
 20
349.629
 11
-143.056
 21
349.712
  0
LINE
  8
0
 10
-143.056
 20
349.712
 11
-142.837
 21
349.768
  0
LINE
  8
0
 10
-142.837
 20
349.768
 11
-142.613
 21
349.796
  0
LINE
  8
0
 10
-142.613
 20
349.796
 11
-142.387
 21
349.796
  0
LINE
  8
0
 10
-142.387
 20
349.796
 11
-142.163
 21
349.768
  0
LINE
  8
0
 10
-142.163
 20
349.768
 11
-141.944
 21
349.712
  0
LINE
  8
0
 10
-141.944
 20
349.712
 11
-141.734
 21
349.629
  0
LINE
  8
0
 10
-141.734
 20
349.629
 11
-141.536
 21
349.52
  0
LINE
  8
0
 10
-141.536
 20
349.52
 11
-141.353
 21
349.387
  0
LINE
  8
0
 10
-141.353
 20
349.387
 11
-141.188
 21
349.232
  0
LINE
  8
0
 10
-141.188
 20
349.232
 11
-141.044
 21
349.058
  0
LINE
  8
0
 10
-141.044
 20
349.058
 11
-140.923
 21
348.867
  0
LINE
  8
0
 10
-140.923
 20
348.867
 11
-140.826
 21
348.663
  0
LINE
  8
0
 10
-140.826
 20
348.663
 11
-140.757
 21
348.448
  0
LINE
  8
0
 10
-140.757
 20
348.448
 11
-140.714
 21
348.226
  0
LINE
  8
0
 10
-140.714
 20
348.226
 11
-140.7
 21
348
  0
LINE
  8
0
 10
-140.7
 20
348
 11
-140.714
 21
347.774
  0
LINE
  8
0
 10
-140.714
 20
347.774
 11
-140.757
 21
347.552
  0
LINE
  8
0
 10
-140.757
 20
347.552
 11
-140.826
 21
347.337
  0
LINE
  8
0
 10
-140.826
 20
347.337
 11
-140.923
 21
347.133
  0
LINE
  8
0
 10
-140.923
 20
347.133
 11
-141.044
 21
346.942
  0
LINE
  8
0
 10
-141.044
 20
346.942
 11
-141.188
 21
346.768
  0
LINE
  8
0
 10
-141.188
 20
346.768
 11
-141.353
 21
346.613
  0
LINE
  8
0
 10
-141.353
 20
346.613
 11
-141.536
 21
346.48
  0
LINE
  8
0
 10
-141.536
 20
346.48
 11
-141.734
 21
346.371
  0
LINE
  8
0
 10
-141.734
 20
346.371
 11
-141.944
 21
346.288
  0
LINE
  8
0
 10
-141.944
 20
346.288
 11
-142.163
 21
346.232
  0
LINE
  8
0
 10
-142.163
 20
346.232
 11
-142.387
 21
346.204
  0
LINE
  8
0
 10
-142.387
 20
346.204
 11
-142.613
 21
346.204
  0
LINE
  8
0
 10
142.387
 20
226.204
 11
142.163
 21
226.232
  0
LINE
  8
0
 10
142.163
 20
226.232
 11
141.944
 21
226.288
  0
LINE
  8
0
 10
141.944
 20
226.288
 11
141.734
 21
226.371
  0
LINE
  8
0
 10
141.734
 20
226.371
 11
141.536
 21
226.48
  0
LINE
  8
0
 10
141.536
 20
226.48
 11
141.353
 21
226.613
  0
LINE
  8
0
 10
141.353
 20
226.613
 11
141.188
 21
226.768
  0
LINE
  8
0
 10
141.188
 20
226.768
 11
141.044
 21
226.942
  0
LINE
  8
0
 10
141.044
 20
226.942
 11
140.923
 21
227.133
  0
LINE
  8
0
 10
140.923
 20
227.133
 11
140.826
 21
227.337
  0
LINE
  8
0
 10
140.826
 20
227.337
 11
140.757
 21
227.552
  0
LINE
  8
0
 10
140.757
 20
227.552
 11
140.714
 21
227.774
  0
LINE
  8
0
 10
140.714
 20
227.774
 11
140.7
 21
228
  0
LINE
  8
0
 10
140.7
 20
228
 11
140.714
 21
228.226
  0
LINE
  8
0
 10
140.714
 20
228.226
 11
140.757
 21
228.448
  0
LINE
  8
0
 10
140.757
 20
228.448
 11
140.826
 21
228.663
  0
LINE
  8
0
 10
140.826
 20
228.663
 11
140.923
 21
228.867
  0
LINE
  8
0
 10
140.923
 20
228.867
 11
141.044
 21
229.058
  0
LINE
  8
0
 10
141.044
 20
229.058
 11
141.188
 21
229.232
  0
LINE
  8
0
 10
141.188
 20
229.232
 11
141.353
 21
229.387
  0
LINE
  8
0
 10
141.353
 20
229.387
 11
141.536
 21
229.52
  0
LINE
  8
0
 10
141.536
 20
229.52
 11
141.734
 21
229.629
  0
LINE
  8
0
 10
141.734
 20
229.629
 11
141.944
 21
229.712
  0
LINE
  8
0
 10
141.944
 20
229.712
 11
142.163
 21
229.768
  0
LINE
  8
0
 10
142.163
 20
229.768
 11
142.387
 21
229.796
  0
LINE
  8
0
 10
142.387
 20
229.796
 11
142.613
 21
229.796
  0
LINE
  8
0
 10
142.613
 20
229.796
 11
142.837
 21
229.768
  0
LINE
  8
0
 10
142.837
 20
229.768
 11
143.056
 21
229.712
  0
LINE
  8
0
 10
143.056
 20
229.712
 11
143.266
 21
229.629
  0
LINE
  8
0
 10
143.266
 20
229.629
 11
143.464
 21
229.52
  0
LINE
  8
0
 10
143.464
 20
229.52
 11
143.647
 21
229.387
  0
LINE
  8
0
 10
143.647
 20
229.387
 11
143.812
 21
229.232
  0
LINE
  8
0
 10
143.812
 20
229.232
 11
143.956
 21
229.058
  0
LINE
  8
0
 10
143.956
 20
229.058
 11
144.077
 21
228.867
  0
LINE
  8
0
 10
144.077
 20
228.867
 11
144.174
 21
228.663
  0
LINE
  8
0
 10
144.174
 20
228.663
 11
144.243
 21
228.448
  0
LINE
  8
0
 10
144.243
 20
228.448
 11
144.286
 21
228.226
  0
LINE
  8
0
 10
144.286
 20
228.226
 11
144.3
 21
228
  0
LINE
  8
0
 10
144.3
 20
228
 11
144.286
 21
227.774
  0
LINE
  8
0
 10
144.286
 20
227.774
 11
144.243
 21
227.552
  0
LINE
  8
0
 10
144.243
 20
227.552
 11
144.174
 21
227.337
  0
LINE
  8
0
 10
144.174
 20
227.337
 11
144.077
 21
227.133
  0
LINE
  8
0
 10
144.077
 20
227.133
 11
143.956
 21
226.942
  0
LINE
  8
0
 10
143.956
 20
226.942
 11
143.812
 21
226.768
  0
LINE
  8
0
 10
143.812
 20
226.768
 11
143.647
 21
226.613
  0
LINE
  8
0
 10
143.647
 20
226.613
 11
143.464
 21
226.48
  0
LINE
  8
0
 10
143.464
 20
226.48
 11
143.266
 21
226.371
  0
LINE
  8
0
 10
143.266
 20
226.371
 11
143.056
 21
226.288
  0
LINE
  8
0
 10
143.056
 20
226.288
 11
142.837
 21
226.232
  0
LINE
  8
0
 10
142.837
 20
226.232
 11
142.613
 21
226.204
  0
LINE
  8
0
 10
142.613
 20
226.204
 11
142.387
 21
226.204
  0
LINE
  8
0
 10
-142.613
 20
226.204
 11
-142.837
 21
226.232
  0
LINE
  8
0
 10
-142.837
 20
226.232
 11
-143.056
 21
226.288
  0
LINE
  8
0
 10
-143.056
 20
226.288
 11
-143.266
 21
226.371
  0
LINE
  8
0
 10
-143.266
 20
226.371
 11
-143.464
 21
226.48
  0
LINE
  8
0
 10
-143.464
 20
226.48
 11
-143.647
 21
226.613
  0
LINE
  8
0
 10
-143.647
 20
226.613
 11
-143.812
 21
226.768
  0
LINE
  8
0
 10
-143.812
 20
226.768
 11
-143.956
 21
226.942
  0
LINE
  8
0
 10
-143.956
 20
226.942
 11
-144.077
 21
227.133
  0
LINE
  8
0
 10
-144.077
 20
227.133
 11
-144.174
 21
227.337
  0
LINE
  8
0
 10
-144.174
 20
227.337
 11
-144.243
 21
227.552
  0
LINE
  8
0
 10
-144.243
 20
227.552
 11
-144.286
 21
227.774
  0
LINE
  8
0
 10
-144.286
 20
227.774
 11
-144.3
 21
228
  0
LINE
  8
0
 10
-144.3
 20
228
 11
-144.286
 21
228.226
  0
LINE
  8
0
 10
-144.286
 20
228.226
 11
-144.243
 21
228.448
  0
LINE
  8
0
 10
-144.243
 20
228.448
 11
-144.174
 21
228.663
  0
LINE
  8
0
 10
-144.174
 20
228.663
 11
-144.077
 21
228.867
  0
LINE
  8
0
 10
-144.077
 20
228.867
 11
-143.956
 21
229.058
  0
LINE
  8
0
 10
-143.956
 20
229.058
 11
-143.812
 21
229.232
  0
LINE
  8
0
 10
-143.812
 20
229.232
 11
-143.647
 21
229.387
  0
LINE
  8
0
 10
-143.647
 20
229.387
 11
-143.464
 21
229.52
  0
LINE
  8
0
 10
-143.464
 20
229.52
 11
-143.266
 21
229.629
  0
LINE
  8
0
 10
-143.266
 20
229.629
 11
-143.056
 21
229.712
  0
LINE
  8
0
 10
-143.056
 20
229.712
 11
-142.837
 21
229.768
  0
LINE
  8
0
 10
-142.837
 20
229.768
 11
-142.613
 21
229.796
  0
LINE
  8
0
 10
-142.613
 20
229.796
 11
-142.387
 21
229.796
  0
LINE
  8
0
 10
-142.387
 20
229.796
 11
-142.163
 21
229.768
  0
LINE
  8
0
 10
-142.163
 20
229.768
 11
-141.944
 21
229.712
  0
LINE
  8
0
 10
-141.944
 20
229.712
 11
-141.734
 21
229.629
  0
LINE
  8
0
 10
-141.734
 20
229.629
 11
-141.536
 21
229.52
  0
LINE
  8
0
 10
-141.536
 20
229.52
 11
-141.353
 21
229.387
  0
LINE
  8
0
 10
-141.353
 20
229.387
 11
-141.188
 21
229.232
  0
LINE
  8
0
 10
-141.188
 20
229.232
 11
-141.044
 21
229.058
  0
LINE
  8
0
 10
-141.044
 20
229.058
 11
-140.923
 21
228.867
  0
LINE
  8
0
 10
-140.923
 20
228.867
 11
-140.826
 21
228.663
  0
LINE
  8
0
 10
-140.826
 20
228.663
 11
-140.757
 21
228.448
  0
LINE
  8
0
 10
-140.757
 20
228.448
 11
-140.714
 21
228.226
  0
LINE
  8
0
 10
-140.714
 20
228.226
 11
-140.7
 21
228
  0
LINE
  8
0
 10
-140.7
 20
228
 11
-140.714
 21
227.774
  0
LINE
  8
0
 10
-140.714
 20
227.774
 11
-140.757
 21
227.552
  0
LINE
  8
0
 10
-140.757
 20
227.552
 11
-140.826
 21
227.337
  0
LINE
  8
0
 10
-140.826
 20
227.337
 11
-140.923
 21
227.133
  0
LINE
  8
0
 10
-140.923
 20
227.133
 11
-141.044
 21
226.942
  0
LINE
  8
0
 10
-141.044
 20
226.942
 11
-141.188
 21
226.768
  0
LINE
  8
0
 10
-141.188
 20
226.768
 11
-141.353
 21
226.613
  0
LINE
  8
0
 10
-141.353
 20
226.613
 11
-141.536
 21
226.48
  0
LINE
  8
0
 10
-141.536
 20
226.48
 11
-141.734
 21
226.371
  0
LINE
  8
0
 10
-141.734
 20
226.371
 11
-141.944
 21
226.288
  0
LINE
  8
0
 10
-141.944
 20
226.288
 11
-142.163
 21
226.232
  0
LINE
  8
0
 10
-142.163
 20
226.232
 11
-142.387
 21
226.204
  0
LINE
  8
0
 10
-142.387
 20
226.204
 11
-142.613
 21
226.204
  0
ENDSEC
  0
SECTION
  2
OBJECTS
  0
DICTIONARY
  0
ENDSEC
  0
EOF
