<?xml version="1.0" standalone="no"?>
<!DOCTYPE svg PUBLIC "-//W3C//DTD SVG 1.1//EN" "http://www.w3.org/Graphics/SVG/1.1/DTD/svg11.dtd">
<svg width="302mm" height="424mm" viewBox="-152 -644 302 424" xmlns="http://www.w3.org/2000/svg" version="1.1">
<title>OpenSCAD Model</title>
<path d="
M -148.5,-509.941 L -148.187,-509.647 L -147.679,-509.278 L -147.129,-508.976 L -146.545,-508.745 L -145.937,-508.589
 L -145.314,-508.51 L 145.314,-508.51 L 145.937,-508.589 L 146.545,-508.745 L 147.129,-508.976 L 147.679,-509.278
 L 148.187,-509.647 L 148.645,-510.077 L 149.045,-510.561 L 149.382,-511.091 L 149.649,-511.659 L 149.843,-512.257
 L 149.961,-512.873 L 150,-513.5 L 150,-638.5 L 149.961,-639.127 L 149.843,-639.743 L 149.649,-640.341
 L 149.382,-640.909 L 149.045,-641.439 L 148.645,-641.923 L 148.187,-642.353 L 147.679,-642.722 L 147.129,-643.024
 L 146.545,-643.255 L 145.937,-643.411 L 145.314,-643.49 L -145.314,-643.49 L -145.937,-643.411 L -146.545,-643.255
 L -147.129,-643.024 L -147.679,-642.722 L -148.187,-642.353 L -148.5,-642.059 L -148.5,-643.49 L -151.5,-643.49
 L -151.5,-508.51 L -148.5,-508.51 z
M -144.743,-510.135 L -145.226,-510.196 L -145.697,-510.317 L -146.149,-510.496 L -146.575,-510.73 L -146.969,-511.016
 L -147.323,-511.349 L -147.633,-511.724 L -147.894,-512.134 L -148.101,-512.574 L -148.251,-513.037 L -148.342,-513.515
 L -148.373,-514 L -148.373,-638 L -148.342,-638.485 L -148.251,-638.963 L -148.101,-639.426 L -147.894,-639.866
 L -147.633,-640.276 L -147.323,-640.651 L -146.969,-640.984 L -146.575,-641.27 L -146.149,-641.504 L -145.697,-641.683
 L -145.226,-641.804 L -144.743,-641.865 L 144.743,-641.865 L 145.226,-641.804 L 145.697,-641.683 L 146.149,-641.504
 L 146.575,-641.27 L 146.969,-640.984 L 147.323,-640.651 L 147.633,-640.276 L 147.894,-639.866 L 148.101,-639.426
 L 148.251,-638.963 L 148.342,-638.485 L 148.373,-638 L 148.373,-514 L 148.342,-513.515 L 148.251,-513.037
 L 148.101,-512.574 L 147.894,-512.134 L 147.633,-511.724 L 147.323,-511.349 L 146.969,-511.016 L 146.575,-510.73
 L 146.149,-510.496 L 145.697,-510.317 L 145.226,-510.196 L 144.743,-510.135 z
M 145.937,-364.589 L 146.545,-364.745 L 147.129,-364.976 L 147.679,-365.278 L 148.187,-365.647 L 148.645,-366.077
 L 149.045,-366.561 L 149.382,-367.091 L 149.649,-367.659 L 149.843,-368.257 L 149.961,-368.873 L 150,-369.5
 L 150,-494.5 L 149.961,-495.127 L 149.843,-495.743 L 149.649,-496.341 L 149.382,-496.909 L 149.045,-497.439
 L 148.645,-497.923 L 148.187,-498.353 L 147.679,-498.722 L 147.129,-499.024 L 146.545,-499.255 L 145.937,-499.411
 L 145.314,-499.49 L -145.314,-499.49 L -145.937,-499.411 L -146.545,-499.255 L -147.129,-499.024 L -147.679,-498.722
 L -148.187,-498.353 L -148.5,-498.059 L -148.5,-499.115 L -151.5,-499.115 L -151.5,-364.885 L -148.5,-364.885
 L -148.5,-365.941 L -148.187,-365.647 L -147.679,-365.278 L -147.129,-364.976 L -146.545,-364.745 L -145.937,-364.589
 L -145.314,-364.51 L 145.314,-364.51 z
M 142.349,-489.605 L 142.05,-489.643 L 141.758,-489.717 L 141.478,-489.828 L 141.214,-489.974 L 140.97,-490.151
 L 140.75,-490.357 L 140.558,-490.589 L 140.397,-490.844 L 140.269,-491.117 L 140.175,-491.403 L 140.119,-491.699
 L 140.1,-492 L 140.119,-492.301 L 140.175,-492.597 L 140.269,-492.883 L 140.397,-493.156 L 140.558,-493.411
 L 140.75,-493.643 L 140.97,-493.849 L 141.214,-494.026 L 141.478,-494.172 L 141.758,-494.283 L 142.05,-494.357
 L 142.349,-494.395 L 142.651,-494.395 L 142.95,-494.357 L 143.242,-494.283 L 143.522,-494.172 L 143.786,-494.026
 L 144.03,-493.849 L 144.25,-493.643 L 144.442,-493.411 L 144.603,-493.156 L 144.731,-492.883 L 144.825,-492.597
 L 144.881,-492.301 L 144.9,-492 L 144.881,-491.699 L 144.825,-491.403 L 144.731,-491.117 L 144.603,-490.844
 L 144.442,-490.589 L 144.25,-490.357 L 144.03,-490.151 L 143.786,-489.974 L 143.522,-489.828 L 143.242,-489.717
 L 142.95,-489.643 L 142.651,-489.605 z
M -142.651,-489.605 L -142.95,-489.643 L -143.242,-489.717 L -143.522,-489.828 L -143.786,-489.974 L -144.03,-490.151
 L -144.25,-490.357 L -144.442,-490.589 L -144.603,-490.844 L -144.731,-491.117 L -144.825,-491.403 L -144.881,-491.699
 L -144.9,-492 L -144.881,-492.301 L -144.825,-492.597 L -144.731,-492.883 L -144.603,-493.156 L -144.442,-493.411
 L -144.25,-493.643 L -144.03,-493.849 L -143.786,-494.026 L -143.522,-494.172 L -143.242,-494.283 L -142.95,-494.357
 L -142.651,-494.395 L -142.349,-494.395 L -142.05,-494.357 L -141.758,-494.283 L -141.478,-494.172 L -141.214,-494.026
 L -140.97,-493.849 L -140.75,-493.643 L -140.558,-493.411 L -140.397,-493.156 L -140.269,-492.883 L -140.175,-492.597
 L -140.119,-492.301 L -140.1,-492 L -140.119,-491.699 L -140.175,-491.403 L -140.269,-491.117 L -140.397,-490.844
 L -140.558,-490.589 L -140.75,-490.357 L -140.97,-490.151 L -141.214,-489.974 L -141.478,-489.828 L -141.758,-489.717
 L -142.05,-489.643 L -142.349,-489.605 z
M 142.349,-369.605 L 142.05,-369.643 L 141.758,-369.717 L 141.478,-369.828 L 141.214,-369.974 L 140.97,-370.151
 L 140.75,-370.357 L 140.558,-370.589 L 140.397,-370.844 L 140.269,-371.117 L 140.175,-371.403 L 140.119,-371.699
 L 140.1,-372 L 140.119,-372.301 L 140.175,-372.597 L 140.269,-372.883 L 140.397,-373.156 L 140.558,-373.411
 L 140.75,-373.643 L 140.97,-373.849 L 141.214,-374.026 L 141.478,-374.172 L 141.758,-374.283 L 142.05,-374.357
 L 142.349,-374.395 L 142.651,-374.395 L 142.95,-374.357 L 143.242,-374.283 L 143.522,-374.172 L 143.786,-374.026
 L 144.03,-373.849 L 144.25,-373.643 L 144.442,-373.411 L 144.603,-373.156 L 144.731,-372.883 L 144.825,-372.597
 L 144.881,-372.301 L 144.9,-372 L 144.881,-371.699 L 144.825,-371.403 L 144.731,-371.117 L 144.603,-370.844
 L 144.442,-370.589 L 144.25,-370.357 L 144.03,-370.151 L 143.786,-369.974 L 143.522,-369.828 L 143.242,-369.717
 L 142.95,-369.643 L 142.651,-369.605 z
M -142.651,-369.605 L -142.95,-369.643 L -143.242,-369.717 L -143.522,-369.828 L -143.786,-369.974 L -144.03,-370.151
 L -144.25,-370.357 L -144.442,-370.589 L -144.603,-370.844 L -144.731,-371.117 L -144.825,-371.403 L -144.881,-371.699
 L -144.9,-372 L -144.881,-372.301 L -144.825,-372.597 L -144.731,-372.883 L -144.603,-373.156 L -144.442,-373.411
 L -144.25,-373.643 L -144.03,-373.849 L -143.786,-374.026 L -143.522,-374.172 L -143.242,-374.283 L -142.95,-374.357
 L -142.651,-374.395 L -142.349,-374.395 L -142.05,-374.357 L -141.758,-374.283 L -141.478,-374.172 L -141.214,-374.026
 L -140.97,-373.849 L -140.75,-373.643 L -140.558,-373.411 L -140.397,-373.156 L -140.269,-372.883 L -140.175,-372.597
 L -140.119,-372.301 L -140.1,-372 L -140.119,-371.699 L -140.175,-371.403 L -140.269,-371.117 L -140.397,-370.844
 L -140.558,-370.589 L -140.75,-370.357 L -140.97,-370.151 L -141.214,-369.974 L -141.478,-369.828 L -141.758,-369.717
 L -142.05,-369.643 L -142.349,-369.605 z
M 145.937,-220.589 L 146.545,-220.745 L 147.129,-220.976 L 147.679,-221.278 L 148.187,-221.647 L 148.645,-222.077
 L 149.045,-222.561 L 149.382,-223.091 L 149.649,-223.659 L 149.843,-224.257 L 149.961,-224.873 L 150,-225.5
 L 150,-350.5 L 149.961,-351.127 L 149.843,-351.743 L 149.649,-352.341 L 149.382,-352.909 L 149.045,-353.439
 L 148.645,-353.923 L 148.187,-354.353 L 147.679,-354.722 L 147.129,-355.024 L 146.545,-355.255 L 145.937,-355.411
 L 145.314,-355.49 L -145.314,-355.49 L -145.937,-355.411 L -146.545,-355.255 L -147.129,-355.024 L -147.679,-354.722
 L -148.187,-354.353 L -148.645,-353.923 L -149.045,-353.439 L -149.382,-352.909 L -149.649,-352.341 L -149.843,-351.743
 L -149.9,-351.444 L -151.5,-351.444 L -151.5,-224.556 L -149.9,-224.556 L -149.843,-224.257 L -149.649,-223.659
 L -149.382,-223.091 L -149.045,-222.561 L -148.645,-222.077 L -148.187,-221.647 L -147.679,-221.278 L -147.129,-220.976
 L -146.545,-220.745 L -145.937,-220.589 L -145.314,-220.51 L 145.314,-220.51 z
M 142.387,-346.204 L 142.163,-346.232 L 141.944,-346.288 L 141.734,-346.371 L 141.536,-346.48 L 141.353,-346.613
 L 141.188,-346.768 L 141.044,-346.942 L 140.923,-347.133 L 140.826,-347.337 L 140.757,-347.552 L 140.714,-347.774
 L 140.7,-348 L 140.714,-348.226 L 140.757,-348.448 L 140.826,-348.663 L 140.923,-348.867 L 141.044,-349.058
 L 141.188,-349.232 L 141.353,-349.387 L 141.536,-349.52 L 141.734,-349.629 L 141.944,-349.712 L 142.163,-349.768
 L 142.387,-349.796 L 142.613,-349.796 L 142.837,-349.768 L 143.056,-349.712 L 143.266,-349.629 L 143.464,-349.52
 L 143.647,-349.387 L 143.812,-349.232 L 143.956,-349.058 L 144.077,-348.867 L 144.174,-348.663 L 144.243,-348.448
 L 144.286,-348.226 L 144.3,-348 L 144.286,-347.774 L 144.243,-347.552 L 144.174,-347.337 L 144.077,-347.133
 L 143.956,-346.942 L 143.812,-346.768 L 143.647,-346.613 L 143.464,-346.48 L 143.266,-346.371 L 143.056,-346.288
 L 142.837,-346.232 L 142.613,-346.204 z
M -142.613,-346.204 L -142.837,-346.232 L -143.056,-346.288 L -143.266,-346.371 L -143.464,-346.48 L -143.647,-346.613
 L -143.812,-346.768 L -143.956,-346.942 L -144.077,-347.133 L -144.174,-347.337 L -144.243,-347.552 L -144.286,-347.774
 L -144.3,-348 L -144.286,-348.226 L -144.243,-348.448 L -144.174,-348.663 L -144.077,-348.867 L -143.956,-349.058
 L -143.812,-349.232 L -143.647,-349.387 L -143.464,-349.52 L -143.266,-349.629 L -143.056,-349.712 L -142.837,-349.768
 L -142.613,-349.796 L -142.387,-349.796 L -142.163,-349.768 L -141.944,-349.712 L -141.734,-349.629 L -141.536,-349.52
 L -141.353,-349.387 L -141.188,-349.232 L -141.044,-349.058 L -140.923,-348.867 L -140.826,-348.663 L -140.757,-348.448
 L -140.714,-348.226 L -140.7,-348 L -140.714,-347.774 L -140.757,-347.552 L -140.826,-347.337 L -140.923,-347.133
 L -141.044,-346.942 L -141.188,-346.768 L -141.353,-346.613 L -141.536,-346.48 L -141.734,-346.371 L -141.944,-346.288
 L -142.163,-346.232 L -142.387,-346.204 z
M 142.387,-226.204 L 142.163,-226.232 L 141.944,-226.288 L 141.734,-226.371 L 141.536,-226.48 L 141.353,-226.613
 L 141.188,-226.768 L 141.044,-226.942 L 140.923,-227.133 L 140.826,-227.337 L 140.757,-227.552 L 140.714,-227.774
 L 140.7,-228 L 140.714,-228.226 L 140.757,-228.448 L 140.826,-228.663 L 140.923,-228.867 L 141.044,-229.058
 L 141.188,-229.232 L 141.353,-229.387 L 141.536,-229.52 L 141.734,-229.629 L 141.944,-229.712 L 142.163,-229.768
 L 142.387,-229.796 L 142.613,-229.796 L 142.837,-229.768 L 143.056,-229.712 L 143.266,-229.629 L 143.464,-229.52
 L 143.647,-229.387 L 143.812,-229.232 L 143.956,-229.058 L 144.077,-228.867 L 144.174,-228.663 L 144.243,-228.448
 L 144.286,-228.226 L 144.3,-228 L 144.286,-227.774 L 144.243,-227.552 L 144.174,-227.337 L 144.077,-227.133
 L 143.956,-226.942 L 143.812,-226.768 L 143.647,-226.613 L 143.464,-226.48 L 143.266,-226.371 L 143.056,-226.288
 L 142.837,-226.232 L 142.613,-226.204 z
M -142.613,-226.204 L -142.837,-226.232 L -143.056,-226.288 L -143.266,-226.371 L -143.464,-226.48 L -143.647,-226.613
 L -143.812,-226.768 L -143.956,-226.942 L -144.077,-227.133 L -144.174,-227.337 L -144.243,-227.552 L -144.286,-227.774
 L -144.3,-228 L -144.286,-228.226 L -144.243,-228.448 L -144.174,-228.663 L -144.077,-228.867 L -143.956,-229.058
 L -143.812,-229.232 L -143.647,-229.387 L -143.464,-229.52 L -143.266,-229.629 L -143.056,-229.712 L -142.837,-229.768
 L -142.613,-229.796 L -142.387,-229.796 L -142.163,-229.768 L -141.944,-229.712 L -141.734,-229.629 L -141.536,-229.52
 L -141.353,-229.387 L -141.188,-229.232 L -141.044,-229.058 L -140.923,-228.867 L -140.826,-228.663 L -140.757,-228.448
 L -140.714,-228.226 L -140.7,-228 L -140.714,-227.774 L -140.757,-227.552 L -140.826,-227.337 L -140.923,-227.133
 L -141.044,-226.942 L -141.188,-226.768 L -141.353,-226.613 L -141.536,-226.48 L -141.734,-226.371 L -141.944,-226.288
 L -142.163,-226.232 L -142.387,-226.204 z
" stroke="black" fill="lightgray" stroke-width="0.5"/>
</svg>
