  0
SECTION
  2
BLOCKS
  0
ENDSEC
  0
SECTION
  2
ENTITIES
  0
LINE
  8
0
 10
-133.5
 20
1819.44
 11
-133.187
 21
1819.15
  0
LINE
  8
0
 10
-133.187
 20
1819.15
 11
-132.679
 21
1818.78
  0
LINE
  8
0
 10
-132.679
 20
1818.78
 11
-132.129
 21
1818.48
  0
LINE
  8
0
 10
-132.129
 20
1818.48
 11
-131.545
 21
1818.24
  0
LINE
  8
0
 10
-131.545
 20
1818.24
 11
-130.937
 21
1818.09
  0
LINE
  8
0
 10
-130.937
 20
1818.09
 11
-130.314
 21
1818.01
  0
LINE
  8
0
 10
-130.314
 20
1818.01
 11
130.314
 21
1818.01
  0
LINE
  8
0
 10
130.314
 20
1818.01
 11
130.937
 21
1818.09
  0
LINE
  8
0
 10
130.937
 20
1818.09
 11
131.545
 21
1818.24
  0
LINE
  8
0
 10
131.545
 20
1818.24
 11
132.129
 21
1818.48
  0
LINE
  8
0
 10
132.129
 20
1818.48
 11
132.679
 21
1818.78
  0
LINE
  8
0
 10
132.679
 20
1818.78
 11
133.187
 21
1819.15
  0
LINE
  8
0
 10
133.187
 20
1819.15
 11
133.645
 21
1819.58
  0
LINE
  8
0
 10
133.645
 20
1819.58
 11
134.045
 21
1820.06
  0
LINE
  8
0
 10
134.045
 20
1820.06
 11
134.382
 21
1820.59
  0
LINE
  8
0
 10
134.382
 20
1820.59
 11
134.649
 21
1821.16
  0
LINE
  8
0
 10
134.649
 20
1821.16
 11
134.843
 21
1821.76
  0
LINE
  8
0
 10
134.843
 20
1821.76
 11
134.961
 21
1822.37
  0
LINE
  8
0
 10
134.961
 20
1822.37
 11
135
 21
1823
  0
LINE
  8
0
 10
135
 20
1823
 11
135
 21
2083
  0
LINE
  8
0
 10
135
 20
2083
 11
134.961
 21
2083.63
  0
LINE
  8
0
 10
134.961
 20
2083.63
 11
134.843
 21
2084.24
  0
LINE
  8
0
 10
134.843
 20
2084.24
 11
134.649
 21
2084.84
  0
LINE
  8
0
 10
134.649
 20
2084.84
 11
134.382
 21
2085.41
  0
LINE
  8
0
 10
134.382
 20
2085.41
 11
134.045
 21
2085.94
  0
LINE
  8
0
 10
134.045
 20
2085.94
 11
133.645
 21
2086.42
  0
LINE
  8
0
 10
133.645
 20
2086.42
 11
133.187
 21
2086.85
  0
LINE
  8
0
 10
133.187
 20
2086.85
 11
132.679
 21
2087.22
  0
LINE
  8
0
 10
132.679
 20
2087.22
 11
132.129
 21
2087.52
  0
LINE
  8
0
 10
132.129
 20
2087.52
 11
131.545
 21
2087.76
  0
LINE
  8
0
 10
131.545
 20
2087.76
 11
130.937
 21
2087.91
  0
LINE
  8
0
 10
130.937
 20
2087.91
 11
130.314
 21
2087.99
  0
LINE
  8
0
 10
130.314
 20
2087.99
 11
-130.314
 21
2087.99
  0
LINE
  8
0
 10
-130.314
 20
2087.99
 11
-130.937
 21
2087.91
  0
LINE
  8
0
 10
-130.937
 20
2087.91
 11
-131.545
 21
2087.76
  0
LINE
  8
0
 10
-131.545
 20
2087.76
 11
-132.129
 21
2087.52
  0
LINE
  8
0
 10
-132.129
 20
2087.52
 11
-132.679
 21
2087.22
  0
LINE
  8
0
 10
-132.679
 20
2087.22
 11
-133.187
 21
2086.85
  0
LINE
  8
0
 10
-133.187
 20
2086.85
 11
-133.5
 21
2086.56
  0
LINE
  8
0
 10
-133.5
 20
2086.56
 11
-133.5
 21
2087.99
  0
LINE
  8
0
 10
-133.5
 20
2087.99
 11
-136.5
 21
2087.99
  0
LINE
  8
0
 10
-136.5
 20
2087.99
 11
-136.5
 21
1818.01
  0
LINE
  8
0
 10
-136.5
 20
1818.01
 11
-133.5
 21
1818.01
  0
LINE
  8
0
 10
-133.5
 20
1818.01
 11
-133.5
 21
1819.44
  0
LINE
  8
0
 10
-129.751
 20
1819.51
 11
-130.25
 21
1819.57
  0
LINE
  8
0
 10
-130.25
 20
1819.57
 11
-130.736
 21
1819.7
  0
LINE
  8
0
 10
-130.736
 20
1819.7
 11
-131.203
 21
1819.88
  0
LINE
  8
0
 10
-131.203
 20
1819.88
 11
-131.643
 21
1820.12
  0
LINE
  8
0
 10
-131.643
 20
1820.12
 11
-132.05
 21
1820.42
  0
LINE
  8
0
 10
-132.05
 20
1820.42
 11
-132.416
 21
1820.76
  0
LINE
  8
0
 10
-132.416
 20
1820.76
 11
-132.736
 21
1821.15
  0
LINE
  8
0
 10
-132.736
 20
1821.15
 11
-133.005
 21
1821.57
  0
LINE
  8
0
 10
-133.005
 20
1821.57
 11
-133.219
 21
1822.03
  0
LINE
  8
0
 10
-133.219
 20
1822.03
 11
-133.374
 21
1822.51
  0
LINE
  8
0
 10
-133.374
 20
1822.51
 11
-133.468
 21
1823
  0
LINE
  8
0
 10
-133.468
 20
1823
 11
-133.5
 21
1823.5
  0
LINE
  8
0
 10
-133.5
 20
1823.5
 11
-133.5
 21
2082.5
  0
LINE
  8
0
 10
-133.5
 20
2082.5
 11
-133.468
 21
2083
  0
LINE
  8
0
 10
-133.468
 20
2083
 11
-133.374
 21
2083.49
  0
LINE
  8
0
 10
-133.374
 20
2083.49
 11
-133.219
 21
2083.97
  0
LINE
  8
0
 10
-133.219
 20
2083.97
 11
-133.005
 21
2084.43
  0
LINE
  8
0
 10
-133.005
 20
2084.43
 11
-132.736
 21
2084.85
  0
LINE
  8
0
 10
-132.736
 20
2084.85
 11
-132.416
 21
2085.24
  0
LINE
  8
0
 10
-132.416
 20
2085.24
 11
-132.05
 21
2085.58
  0
LINE
  8
0
 10
-132.05
 20
2085.58
 11
-131.643
 21
2085.88
  0
LINE
  8
0
 10
-131.643
 20
2085.88
 11
-131.203
 21
2086.12
  0
LINE
  8
0
 10
-131.203
 20
2086.12
 11
-130.736
 21
2086.3
  0
LINE
  8
0
 10
-130.736
 20
2086.3
 11
-130.25
 21
2086.43
  0
LINE
  8
0
 10
-130.25
 20
2086.43
 11
-129.751
 21
2086.49
  0
LINE
  8
0
 10
-129.751
 20
2086.49
 11
129.751
 21
2086.49
  0
LINE
  8
0
 10
129.751
 20
2086.49
 11
130.25
 21
2086.43
  0
LINE
  8
0
 10
130.25
 20
2086.43
 11
130.736
 21
2086.3
  0
LINE
  8
0
 10
130.736
 20
2086.3
 11
131.203
 21
2086.12
  0
LINE
  8
0
 10
131.203
 20
2086.12
 11
131.643
 21
2085.88
  0
LINE
  8
0
 10
131.643
 20
2085.88
 11
132.05
 21
2085.58
  0
LINE
  8
0
 10
132.05
 20
2085.58
 11
132.416
 21
2085.24
  0
LINE
  8
0
 10
132.416
 20
2085.24
 11
132.736
 21
2084.85
  0
LINE
  8
0
 10
132.736
 20
2084.85
 11
133.005
 21
2084.43
  0
LINE
  8
0
 10
133.005
 20
2084.43
 11
133.219
 21
2083.97
  0
LINE
  8
0
 10
133.219
 20
2083.97
 11
133.374
 21
2083.49
  0
LINE
  8
0
 10
133.374
 20
2083.49
 11
133.468
 21
2083
  0
LINE
  8
0
 10
133.468
 20
2083
 11
133.5
 21
2082.5
  0
LINE
  8
0
 10
133.5
 20
2082.5
 11
133.5
 21
1823.5
  0
LINE
  8
0
 10
133.5
 20
1823.5
 11
133.468
 21
1823
  0
LINE
  8
0
 10
133.468
 20
1823
 11
133.374
 21
1822.51
  0
LINE
  8
0
 10
133.374
 20
1822.51
 11
133.219
 21
1822.03
  0
LINE
  8
0
 10
133.219
 20
1822.03
 11
133.005
 21
1821.57
  0
LINE
  8
0
 10
133.005
 20
1821.57
 11
132.736
 21
1821.15
  0
LINE
  8
0
 10
132.736
 20
1821.15
 11
132.416
 21
1820.76
  0
LINE
  8
0
 10
132.416
 20
1820.76
 11
132.05
 21
1820.42
  0
LINE
  8
0
 10
132.05
 20
1820.42
 11
131.643
 21
1820.12
  0
LINE
  8
0
 10
131.643
 20
1820.12
 11
131.203
 21
1819.88
  0
LINE
  8
0
 10
131.203
 20
1819.88
 11
130.736
 21
1819.7
  0
LINE
  8
0
 10
130.736
 20
1819.7
 11
130.25
 21
1819.57
  0
LINE
  8
0
 10
130.25
 20
1819.57
 11
129.751
 21
1819.51
  0
LINE
  8
0
 10
129.751
 20
1819.51
 11
-129.751
 21
1819.51
  0
LINE
  8
0
 10
-133.5
 20
1540.44
 11
-133.187
 21
1540.15
  0
LINE
  8
0
 10
-133.187
 20
1540.15
 11
-132.679
 21
1539.78
  0
LINE
  8
0
 10
-132.679
 20
1539.78
 11
-132.129
 21
1539.48
  0
LINE
  8
0
 10
-132.129
 20
1539.48
 11
-131.545
 21
1539.24
  0
LINE
  8
0
 10
-131.545
 20
1539.24
 11
-130.937
 21
1539.09
  0
LINE
  8
0
 10
-130.937
 20
1539.09
 11
-130.314
 21
1539.01
  0
LINE
  8
0
 10
-130.314
 20
1539.01
 11
130.314
 21
1539.01
  0
LINE
  8
0
 10
130.314
 20
1539.01
 11
130.937
 21
1539.09
  0
LINE
  8
0
 10
130.937
 20
1539.09
 11
131.545
 21
1539.24
  0
LINE
  8
0
 10
131.545
 20
1539.24
 11
132.129
 21
1539.48
  0
LINE
  8
0
 10
132.129
 20
1539.48
 11
132.679
 21
1539.78
  0
LINE
  8
0
 10
132.679
 20
1539.78
 11
133.187
 21
1540.15
  0
LINE
  8
0
 10
133.187
 20
1540.15
 11
133.645
 21
1540.58
  0
LINE
  8
0
 10
133.645
 20
1540.58
 11
134.045
 21
1541.06
  0
LINE
  8
0
 10
134.045
 20
1541.06
 11
134.382
 21
1541.59
  0
LINE
  8
0
 10
134.382
 20
1541.59
 11
134.649
 21
1542.16
  0
LINE
  8
0
 10
134.649
 20
1542.16
 11
134.843
 21
1542.76
  0
LINE
  8
0
 10
134.843
 20
1542.76
 11
134.961
 21
1543.37
  0
LINE
  8
0
 10
134.961
 20
1543.37
 11
135
 21
1544
  0
LINE
  8
0
 10
135
 20
1544
 11
135
 21
1804
  0
LINE
  8
0
 10
135
 20
1804
 11
134.961
 21
1804.63
  0
LINE
  8
0
 10
134.961
 20
1804.63
 11
134.843
 21
1805.24
  0
LINE
  8
0
 10
134.843
 20
1805.24
 11
134.649
 21
1805.84
  0
LINE
  8
0
 10
134.649
 20
1805.84
 11
134.382
 21
1806.41
  0
LINE
  8
0
 10
134.382
 20
1806.41
 11
134.045
 21
1806.94
  0
LINE
  8
0
 10
134.045
 20
1806.94
 11
133.645
 21
1807.42
  0
LINE
  8
0
 10
133.645
 20
1807.42
 11
133.187
 21
1807.85
  0
LINE
  8
0
 10
133.187
 20
1807.85
 11
132.679
 21
1808.22
  0
LINE
  8
0
 10
132.679
 20
1808.22
 11
132.129
 21
1808.52
  0
LINE
  8
0
 10
132.129
 20
1808.52
 11
131.545
 21
1808.76
  0
LINE
  8
0
 10
131.545
 20
1808.76
 11
130.937
 21
1808.91
  0
LINE
  8
0
 10
130.937
 20
1808.91
 11
130.314
 21
1808.99
  0
LINE
  8
0
 10
130.314
 20
1808.99
 11
-130.314
 21
1808.99
  0
LINE
  8
0
 10
-130.314
 20
1808.99
 11
-130.937
 21
1808.91
  0
LINE
  8
0
 10
-130.937
 20
1808.91
 11
-131.545
 21
1808.76
  0
LINE
  8
0
 10
-131.545
 20
1808.76
 11
-132.129
 21
1808.52
  0
LINE
  8
0
 10
-132.129
 20
1808.52
 11
-132.679
 21
1808.22
  0
LINE
  8
0
 10
-132.679
 20
1808.22
 11
-133.187
 21
1807.85
  0
LINE
  8
0
 10
-133.187
 20
1807.85
 11
-133.5
 21
1807.56
  0
LINE
  8
0
 10
-133.5
 20
1807.56
 11
-133.5
 21
1808.99
  0
LINE
  8
0
 10
-133.5
 20
1808.99
 11
-136.5
 21
1808.99
  0
LINE
  8
0
 10
-136.5
 20
1808.99
 11
-136.5
 21
1539.01
  0
LINE
  8
0
 10
-136.5
 20
1539.01
 11
-133.5
 21
1539.01
  0
LINE
  8
0
 10
-133.5
 20
1539.01
 11
-133.5
 21
1540.44
  0
LINE
  8
0
 10
-129.751
 20
1540.51
 11
-130.25
 21
1540.57
  0
LINE
  8
0
 10
-130.25
 20
1540.57
 11
-130.736
 21
1540.7
  0
LINE
  8
0
 10
-130.736
 20
1540.7
 11
-131.203
 21
1540.88
  0
LINE
  8
0
 10
-131.203
 20
1540.88
 11
-131.643
 21
1541.12
  0
LINE
  8
0
 10
-131.643
 20
1541.12
 11
-132.05
 21
1541.42
  0
LINE
  8
0
 10
-132.05
 20
1541.42
 11
-132.416
 21
1541.76
  0
LINE
  8
0
 10
-132.416
 20
1541.76
 11
-132.736
 21
1542.15
  0
LINE
  8
0
 10
-132.736
 20
1542.15
 11
-133.005
 21
1542.57
  0
LINE
  8
0
 10
-133.005
 20
1542.57
 11
-133.219
 21
1543.03
  0
LINE
  8
0
 10
-133.219
 20
1543.03
 11
-133.374
 21
1543.51
  0
LINE
  8
0
 10
-133.374
 20
1543.51
 11
-133.468
 21
1544
  0
LINE
  8
0
 10
-133.468
 20
1544
 11
-133.5
 21
1544.5
  0
LINE
  8
0
 10
-133.5
 20
1544.5
 11
-133.5
 21
1803.5
  0
LINE
  8
0
 10
-133.5
 20
1803.5
 11
-133.468
 21
1804
  0
LINE
  8
0
 10
-133.468
 20
1804
 11
-133.374
 21
1804.49
  0
LINE
  8
0
 10
-133.374
 20
1804.49
 11
-133.219
 21
1804.97
  0
LINE
  8
0
 10
-133.219
 20
1804.97
 11
-133.005
 21
1805.43
  0
LINE
  8
0
 10
-133.005
 20
1805.43
 11
-132.736
 21
1805.85
  0
LINE
  8
0
 10
-132.736
 20
1805.85
 11
-132.416
 21
1806.24
  0
LINE
  8
0
 10
-132.416
 20
1806.24
 11
-132.05
 21
1806.58
  0
LINE
  8
0
 10
-132.05
 20
1806.58
 11
-131.643
 21
1806.88
  0
LINE
  8
0
 10
-131.643
 20
1806.88
 11
-131.203
 21
1807.12
  0
LINE
  8
0
 10
-131.203
 20
1807.12
 11
-130.736
 21
1807.3
  0
LINE
  8
0
 10
-130.736
 20
1807.3
 11
-130.25
 21
1807.43
  0
LINE
  8
0
 10
-130.25
 20
1807.43
 11
-129.751
 21
1807.49
  0
LINE
  8
0
 10
-129.751
 20
1807.49
 11
129.751
 21
1807.49
  0
LINE
  8
0
 10
129.751
 20
1807.49
 11
130.25
 21
1807.43
  0
LINE
  8
0
 10
130.25
 20
1807.43
 11
130.736
 21
1807.3
  0
LINE
  8
0
 10
130.736
 20
1807.3
 11
131.203
 21
1807.12
  0
LINE
  8
0
 10
131.203
 20
1807.12
 11
131.643
 21
1806.88
  0
LINE
  8
0
 10
131.643
 20
1806.88
 11
132.05
 21
1806.58
  0
LINE
  8
0
 10
132.05
 20
1806.58
 11
132.416
 21
1806.24
  0
LINE
  8
0
 10
132.416
 20
1806.24
 11
132.736
 21
1805.85
  0
LINE
  8
0
 10
132.736
 20
1805.85
 11
133.005
 21
1805.43
  0
LINE
  8
0
 10
133.005
 20
1805.43
 11
133.219
 21
1804.97
  0
LINE
  8
0
 10
133.219
 20
1804.97
 11
133.374
 21
1804.49
  0
LINE
  8
0
 10
133.374
 20
1804.49
 11
133.468
 21
1804
  0
LINE
  8
0
 10
133.468
 20
1804
 11
133.5
 21
1803.5
  0
LINE
  8
0
 10
133.5
 20
1803.5
 11
133.5
 21
1544.5
  0
LINE
  8
0
 10
133.5
 20
1544.5
 11
133.468
 21
1544
  0
LINE
  8
0
 10
133.468
 20
1544
 11
133.374
 21
1543.51
  0
LINE
  8
0
 10
133.374
 20
1543.51
 11
133.219
 21
1543.03
  0
LINE
  8
0
 10
133.219
 20
1543.03
 11
133.005
 21
1542.57
  0
LINE
  8
0
 10
133.005
 20
1542.57
 11
132.736
 21
1542.15
  0
LINE
  8
0
 10
132.736
 20
1542.15
 11
132.416
 21
1541.76
  0
LINE
  8
0
 10
132.416
 20
1541.76
 11
132.05
 21
1541.42
  0
LINE
  8
0
 10
132.05
 20
1541.42
 11
131.643
 21
1541.12
  0
LINE
  8
0
 10
131.643
 20
1541.12
 11
131.203
 21
1540.88
  0
LINE
  8
0
 10
131.203
 20
1540.88
 11
130.736
 21
1540.7
  0
LINE
  8
0
 10
130.736
 20
1540.7
 11
130.25
 21
1540.57
  0
LINE
  8
0
 10
130.25
 20
1540.57
 11
129.751
 21
1540.51
  0
LINE
  8
0
 10
129.751
 20
1540.51
 11
-129.751
 21
1540.51
  0
LINE
  8
0
 10
130.937
 20
1260.09
 11
131.545
 21
1260.24
  0
LINE
  8
0
 10
131.545
 20
1260.24
 11
132.129
 21
1260.48
  0
LINE
  8
0
 10
132.129
 20
1260.48
 11
132.679
 21
1260.78
  0
LINE
  8
0
 10
132.679
 20
1260.78
 11
133.187
 21
1261.15
  0
LINE
  8
0
 10
133.187
 20
1261.15
 11
133.645
 21
1261.58
  0
LINE
  8
0
 10
133.645
 20
1261.58
 11
134.045
 21
1262.06
  0
LINE
  8
0
 10
134.045
 20
1262.06
 11
134.382
 21
1262.59
  0
LINE
  8
0
 10
134.382
 20
1262.59
 11
134.649
 21
1263.16
  0
LINE
  8
0
 10
134.649
 20
1263.16
 11
134.843
 21
1263.76
  0
LINE
  8
0
 10
134.843
 20
1263.76
 11
134.961
 21
1264.37
  0
LINE
  8
0
 10
134.961
 20
1264.37
 11
135
 21
1265
  0
LINE
  8
0
 10
135
 20
1265
 11
135
 21
1525
  0
LINE
  8
0
 10
135
 20
1525
 11
134.961
 21
1525.63
  0
LINE
  8
0
 10
134.961
 20
1525.63
 11
134.843
 21
1526.24
  0
LINE
  8
0
 10
134.843
 20
1526.24
 11
134.649
 21
1526.84
  0
LINE
  8
0
 10
134.649
 20
1526.84
 11
134.382
 21
1527.41
  0
LINE
  8
0
 10
134.382
 20
1527.41
 11
134.045
 21
1527.94
  0
LINE
  8
0
 10
134.045
 20
1527.94
 11
133.645
 21
1528.42
  0
LINE
  8
0
 10
133.645
 20
1528.42
 11
133.187
 21
1528.85
  0
LINE
  8
0
 10
133.187
 20
1528.85
 11
132.679
 21
1529.22
  0
LINE
  8
0
 10
132.679
 20
1529.22
 11
132.129
 21
1529.52
  0
LINE
  8
0
 10
132.129
 20
1529.52
 11
131.545
 21
1529.76
  0
LINE
  8
0
 10
131.545
 20
1529.76
 11
130.937
 21
1529.91
  0
LINE
  8
0
 10
130.937
 20
1529.91
 11
130.314
 21
1529.99
  0
LINE
  8
0
 10
130.314
 20
1529.99
 11
-130.314
 21
1529.99
  0
LINE
  8
0
 10
-130.314
 20
1529.99
 11
-130.937
 21
1529.91
  0
LINE
  8
0
 10
-130.937
 20
1529.91
 11
-131.545
 21
1529.76
  0
LINE
  8
0
 10
-131.545
 20
1529.76
 11
-132.129
 21
1529.52
  0
LINE
  8
0
 10
-132.129
 20
1529.52
 11
-132.679
 21
1529.22
  0
LINE
  8
0
 10
-132.679
 20
1529.22
 11
-133.187
 21
1528.85
  0
LINE
  8
0
 10
-133.187
 20
1528.85
 11
-133.5
 21
1528.56
  0
LINE
  8
0
 10
-133.5
 20
1528.56
 11
-133.5
 21
1529.98
  0
LINE
  8
0
 10
-133.5
 20
1529.98
 11
-136.5
 21
1529.98
  0
LINE
  8
0
 10
-136.5
 20
1529.98
 11
-136.5
 21
1260.02
  0
LINE
  8
0
 10
-136.5
 20
1260.02
 11
-133.5
 21
1260.02
  0
LINE
  8
0
 10
-133.5
 20
1260.02
 11
-133.5
 21
1261.44
  0
LINE
  8
0
 10
-133.5
 20
1261.44
 11
-133.187
 21
1261.15
  0
LINE
  8
0
 10
-133.187
 20
1261.15
 11
-132.679
 21
1260.78
  0
LINE
  8
0
 10
-132.679
 20
1260.78
 11
-132.129
 21
1260.48
  0
LINE
  8
0
 10
-132.129
 20
1260.48
 11
-131.545
 21
1260.24
  0
LINE
  8
0
 10
-131.545
 20
1260.24
 11
-130.937
 21
1260.09
  0
LINE
  8
0
 10
-130.937
 20
1260.09
 11
-130.314
 21
1260.01
  0
LINE
  8
0
 10
-130.314
 20
1260.01
 11
130.314
 21
1260.01
  0
LINE
  8
0
 10
130.314
 20
1260.01
 11
130.937
 21
1260.09
  0
LINE
  8
0
 10
-129.695
 20
1262.39
 11
-130.083
 21
1262.44
  0
LINE
  8
0
 10
-130.083
 20
1262.44
 11
-130.462
 21
1262.54
  0
LINE
  8
0
 10
-130.462
 20
1262.54
 11
-130.825
 21
1262.68
  0
LINE
  8
0
 10
-130.825
 20
1262.68
 11
-131.168
 21
1262.87
  0
LINE
  8
0
 10
-131.168
 20
1262.87
 11
-131.484
 21
1263.1
  0
LINE
  8
0
 10
-131.484
 20
1263.1
 11
-131.769
 21
1263.37
  0
LINE
  8
0
 10
-131.769
 20
1263.37
 11
-132.018
 21
1263.67
  0
LINE
  8
0
 10
-132.018
 20
1263.67
 11
-132.228
 21
1264
  0
LINE
  8
0
 10
-132.228
 20
1264
 11
-132.394
 21
1264.35
  0
LINE
  8
0
 10
-132.394
 20
1264.35
 11
-132.515
 21
1264.73
  0
LINE
  8
0
 10
-132.515
 20
1264.73
 11
-132.588
 21
1265.11
  0
LINE
  8
0
 10
-132.588
 20
1265.11
 11
-132.613
 21
1265.5
  0
LINE
  8
0
 10
-132.613
 20
1265.5
 11
-132.613
 21
1524.5
  0
LINE
  8
0
 10
-132.613
 20
1524.5
 11
-132.588
 21
1524.89
  0
LINE
  8
0
 10
-132.588
 20
1524.89
 11
-132.515
 21
1525.27
  0
LINE
  8
0
 10
-132.515
 20
1525.27
 11
-132.394
 21
1525.65
  0
LINE
  8
0
 10
-132.394
 20
1525.65
 11
-132.228
 21
1526
  0
LINE
  8
0
 10
-132.228
 20
1526
 11
-132.018
 21
1526.33
  0
LINE
  8
0
 10
-132.018
 20
1526.33
 11
-131.769
 21
1526.63
  0
LINE
  8
0
 10
-131.769
 20
1526.63
 11
-131.484
 21
1526.9
  0
LINE
  8
0
 10
-131.484
 20
1526.9
 11
-131.168
 21
1527.13
  0
LINE
  8
0
 10
-131.168
 20
1527.13
 11
-130.825
 21
1527.32
  0
LINE
  8
0
 10
-130.825
 20
1527.32
 11
-130.462
 21
1527.46
  0
LINE
  8
0
 10
-130.462
 20
1527.46
 11
-130.083
 21
1527.56
  0
LINE
  8
0
 10
-130.083
 20
1527.56
 11
-129.695
 21
1527.61
  0
LINE
  8
0
 10
-129.695
 20
1527.61
 11
129.695
 21
1527.61
  0
LINE
  8
0
 10
129.695
 20
1527.61
 11
130.083
 21
1527.56
  0
LINE
  8
0
 10
130.083
 20
1527.56
 11
130.462
 21
1527.46
  0
LINE
  8
0
 10
130.462
 20
1527.46
 11
130.825
 21
1527.32
  0
LINE
  8
0
 10
130.825
 20
1527.32
 11
131.168
 21
1527.13
  0
LINE
  8
0
 10
131.168
 20
1527.13
 11
131.484
 21
1526.9
  0
LINE
  8
0
 10
131.484
 20
1526.9
 11
131.769
 21
1526.63
  0
LINE
  8
0
 10
131.769
 20
1526.63
 11
132.018
 21
1526.33
  0
LINE
  8
0
 10
132.018
 20
1526.33
 11
132.228
 21
1526
  0
LINE
  8
0
 10
132.228
 20
1526
 11
132.394
 21
1525.65
  0
LINE
  8
0
 10
132.394
 20
1525.65
 11
132.515
 21
1525.27
  0
LINE
  8
0
 10
132.515
 20
1525.27
 11
132.588
 21
1524.89
  0
LINE
  8
0
 10
132.588
 20
1524.89
 11
132.613
 21
1524.5
  0
LINE
  8
0
 10
132.613
 20
1524.5
 11
132.613
 21
1265.5
  0
LINE
  8
0
 10
132.613
 20
1265.5
 11
132.588
 21
1265.11
  0
LINE
  8
0
 10
132.588
 20
1265.11
 11
132.515
 21
1264.73
  0
LINE
  8
0
 10
132.515
 20
1264.73
 11
132.394
 21
1264.35
  0
LINE
  8
0
 10
132.394
 20
1264.35
 11
132.228
 21
1264
  0
LINE
  8
0
 10
132.228
 20
1264
 11
132.018
 21
1263.67
  0
LINE
  8
0
 10
132.018
 20
1263.67
 11
131.769
 21
1263.37
  0
LINE
  8
0
 10
131.769
 20
1263.37
 11
131.484
 21
1263.1
  0
LINE
  8
0
 10
131.484
 20
1263.1
 11
131.168
 21
1262.87
  0
LINE
  8
0
 10
131.168
 20
1262.87
 11
130.825
 21
1262.68
  0
LINE
  8
0
 10
130.825
 20
1262.68
 11
130.462
 21
1262.54
  0
LINE
  8
0
 10
130.462
 20
1262.54
 11
130.083
 21
1262.44
  0
LINE
  8
0
 10
130.083
 20
1262.44
 11
129.695
 21
1262.39
  0
LINE
  8
0
 10
129.695
 20
1262.39
 11
-129.695
 21
1262.39
  0
LINE
  8
0
 10
130.937
 20
981.089
 11
131.545
 21
981.245
  0
LINE
  8
0
 10
131.545
 20
981.245
 11
132.129
 21
981.476
  0
LINE
  8
0
 10
132.129
 20
981.476
 11
132.679
 21
981.778
  0
LINE
  8
0
 10
132.679
 20
981.778
 11
133.187
 21
982.147
  0
LINE
  8
0
 10
133.187
 20
982.147
 11
133.645
 21
982.577
  0
LINE
  8
0
 10
133.645
 20
982.577
 11
134.045
 21
983.061
  0
LINE
  8
0
 10
134.045
 20
983.061
 11
134.382
 21
983.591
  0
LINE
  8
0
 10
134.382
 20
983.591
 11
134.649
 21
984.159
  0
LINE
  8
0
 10
134.649
 20
984.159
 11
134.843
 21
984.757
  0
LINE
  8
0
 10
134.843
 20
984.757
 11
134.961
 21
985.373
  0
LINE
  8
0
 10
134.961
 20
985.373
 11
135
 21
986
  0
LINE
  8
0
 10
135
 20
986
 11
135
 21
1246
  0
LINE
  8
0
 10
135
 20
1246
 11
134.961
 21
1246.63
  0
LINE
  8
0
 10
134.961
 20
1246.63
 11
134.843
 21
1247.24
  0
LINE
  8
0
 10
134.843
 20
1247.24
 11
134.649
 21
1247.84
  0
LINE
  8
0
 10
134.649
 20
1247.84
 11
134.382
 21
1248.41
  0
LINE
  8
0
 10
134.382
 20
1248.41
 11
134.045
 21
1248.94
  0
LINE
  8
0
 10
134.045
 20
1248.94
 11
133.645
 21
1249.42
  0
LINE
  8
0
 10
133.645
 20
1249.42
 11
133.187
 21
1249.85
  0
LINE
  8
0
 10
133.187
 20
1249.85
 11
132.679
 21
1250.22
  0
LINE
  8
0
 10
132.679
 20
1250.22
 11
132.129
 21
1250.52
  0
LINE
  8
0
 10
132.129
 20
1250.52
 11
131.545
 21
1250.76
  0
LINE
  8
0
 10
131.545
 20
1250.76
 11
130.937
 21
1250.91
  0
LINE
  8
0
 10
130.937
 20
1250.91
 11
130.314
 21
1250.99
  0
LINE
  8
0
 10
130.314
 20
1250.99
 11
-130.314
 21
1250.99
  0
LINE
  8
0
 10
-130.314
 20
1250.99
 11
-130.937
 21
1250.91
  0
LINE
  8
0
 10
-130.937
 20
1250.91
 11
-131.545
 21
1250.76
  0
LINE
  8
0
 10
-131.545
 20
1250.76
 11
-132.129
 21
1250.52
  0
LINE
  8
0
 10
-132.129
 20
1250.52
 11
-132.679
 21
1250.22
  0
LINE
  8
0
 10
-132.679
 20
1250.22
 11
-133.187
 21
1249.85
  0
LINE
  8
0
 10
-133.187
 20
1249.85
 11
-133.5
 21
1249.56
  0
LINE
  8
0
 10
-133.5
 20
1249.56
 11
-133.5
 21
1249.65
  0
LINE
  8
0
 10
-133.5
 20
1249.65
 11
-136.5
 21
1249.65
  0
LINE
  8
0
 10
-136.5
 20
1249.65
 11
-136.5
 21
982.347
  0
LINE
  8
0
 10
-136.5
 20
982.347
 11
-133.5
 21
982.347
  0
LINE
  8
0
 10
-133.5
 20
982.347
 11
-133.5
 21
982.441
  0
LINE
  8
0
 10
-133.5
 20
982.441
 11
-133.187
 21
982.147
  0
LINE
  8
0
 10
-133.187
 20
982.147
 11
-132.679
 21
981.778
  0
LINE
  8
0
 10
-132.679
 20
981.778
 11
-132.129
 21
981.476
  0
LINE
  8
0
 10
-132.129
 20
981.476
 11
-131.545
 21
981.245
  0
LINE
  8
0
 10
-131.545
 20
981.245
 11
-130.937
 21
981.089
  0
LINE
  8
0
 10
-130.937
 20
981.089
 11
-130.314
 21
981.01
  0
LINE
  8
0
 10
-130.314
 20
981.01
 11
130.314
 21
981.01
  0
LINE
  8
0
 10
130.314
 20
981.01
 11
130.937
 21
981.089
  0
LINE
  8
0
 10
-127.634
 20
1241.37
 11
-127.9
 21
1241.4
  0
LINE
  8
0
 10
-127.9
 20
1241.4
 11
-128.16
 21
1241.47
  0
LINE
  8
0
 10
-128.16
 20
1241.47
 11
-128.409
 21
1241.57
  0
LINE
  8
0
 10
-128.409
 20
1241.57
 11
-128.644
 21
1241.7
  0
LINE
  8
0
 10
-128.644
 20
1241.7
 11
-128.861
 21
1241.85
  0
LINE
  8
0
 10
-128.861
 20
1241.85
 11
-129.057
 21
1242.04
  0
LINE
  8
0
 10
-129.057
 20
1242.04
 11
-129.227
 21
1242.24
  0
LINE
  8
0
 10
-129.227
 20
1242.24
 11
-129.371
 21
1242.47
  0
LINE
  8
0
 10
-129.371
 20
1242.47
 11
-129.485
 21
1242.71
  0
LINE
  8
0
 10
-129.485
 20
1242.71
 11
-129.568
 21
1242.97
  0
LINE
  8
0
 10
-129.568
 20
1242.97
 11
-129.618
 21
1243.23
  0
LINE
  8
0
 10
-129.618
 20
1243.23
 11
-129.635
 21
1243.5
  0
LINE
  8
0
 10
-129.635
 20
1243.5
 11
-129.618
 21
1243.77
  0
LINE
  8
0
 10
-129.618
 20
1243.77
 11
-129.568
 21
1244.03
  0
LINE
  8
0
 10
-129.568
 20
1244.03
 11
-129.485
 21
1244.29
  0
LINE
  8
0
 10
-129.485
 20
1244.29
 11
-129.371
 21
1244.53
  0
LINE
  8
0
 10
-129.371
 20
1244.53
 11
-129.227
 21
1244.76
  0
LINE
  8
0
 10
-129.227
 20
1244.76
 11
-129.057
 21
1244.96
  0
LINE
  8
0
 10
-129.057
 20
1244.96
 11
-128.861
 21
1245.15
  0
LINE
  8
0
 10
-128.861
 20
1245.15
 11
-128.644
 21
1245.3
  0
LINE
  8
0
 10
-128.644
 20
1245.3
 11
-128.409
 21
1245.43
  0
LINE
  8
0
 10
-128.409
 20
1245.43
 11
-128.16
 21
1245.53
  0
LINE
  8
0
 10
-128.16
 20
1245.53
 11
-127.9
 21
1245.6
  0
LINE
  8
0
 10
-127.9
 20
1245.6
 11
-127.634
 21
1245.63
  0
LINE
  8
0
 10
-127.634
 20
1245.63
 11
-127.366
 21
1245.63
  0
LINE
  8
0
 10
-127.366
 20
1245.63
 11
-127.1
 21
1245.6
  0
LINE
  8
0
 10
-127.1
 20
1245.6
 11
-126.84
 21
1245.53
  0
LINE
  8
0
 10
-126.84
 20
1245.53
 11
-126.591
 21
1245.43
  0
LINE
  8
0
 10
-126.591
 20
1245.43
 11
-126.356
 21
1245.3
  0
LINE
  8
0
 10
-126.356
 20
1245.3
 11
-126.139
 21
1245.15
  0
LINE
  8
0
 10
-126.139
 20
1245.15
 11
-125.943
 21
1244.96
  0
LINE
  8
0
 10
-125.943
 20
1244.96
 11
-125.773
 21
1244.76
  0
LINE
  8
0
 10
-125.773
 20
1244.76
 11
-125.629
 21
1244.53
  0
LINE
  8
0
 10
-125.629
 20
1244.53
 11
-125.515
 21
1244.29
  0
LINE
  8
0
 10
-125.515
 20
1244.29
 11
-125.432
 21
1244.03
  0
LINE
  8
0
 10
-125.432
 20
1244.03
 11
-125.382
 21
1243.77
  0
LINE
  8
0
 10
-125.382
 20
1243.77
 11
-125.365
 21
1243.5
  0
LINE
  8
0
 10
-125.365
 20
1243.5
 11
-125.382
 21
1243.23
  0
LINE
  8
0
 10
-125.382
 20
1243.23
 11
-125.432
 21
1242.97
  0
LINE
  8
0
 10
-125.432
 20
1242.97
 11
-125.515
 21
1242.71
  0
LINE
  8
0
 10
-125.515
 20
1242.71
 11
-125.629
 21
1242.47
  0
LINE
  8
0
 10
-125.629
 20
1242.47
 11
-125.773
 21
1242.24
  0
LINE
  8
0
 10
-125.773
 20
1242.24
 11
-125.943
 21
1242.04
  0
LINE
  8
0
 10
-125.943
 20
1242.04
 11
-126.139
 21
1241.85
  0
LINE
  8
0
 10
-126.139
 20
1241.85
 11
-126.356
 21
1241.7
  0
LINE
  8
0
 10
-126.356
 20
1241.7
 11
-126.591
 21
1241.57
  0
LINE
  8
0
 10
-126.591
 20
1241.57
 11
-126.84
 21
1241.47
  0
LINE
  8
0
 10
-126.84
 20
1241.47
 11
-127.1
 21
1241.4
  0
LINE
  8
0
 10
-127.1
 20
1241.4
 11
-127.366
 21
1241.37
  0
LINE
  8
0
 10
-127.366
 20
1241.37
 11
-127.634
 21
1241.37
  0
LINE
  8
0
 10
127.366
 20
1241.37
 11
127.1
 21
1241.4
  0
LINE
  8
0
 10
127.1
 20
1241.4
 11
126.84
 21
1241.47
  0
LINE
  8
0
 10
126.84
 20
1241.47
 11
126.591
 21
1241.57
  0
LINE
  8
0
 10
126.591
 20
1241.57
 11
126.356
 21
1241.7
  0
LINE
  8
0
 10
126.356
 20
1241.7
 11
126.139
 21
1241.85
  0
LINE
  8
0
 10
126.139
 20
1241.85
 11
125.943
 21
1242.04
  0
LINE
  8
0
 10
125.943
 20
1242.04
 11
125.773
 21
1242.24
  0
LINE
  8
0
 10
125.773
 20
1242.24
 11
125.629
 21
1242.47
  0
LINE
  8
0
 10
125.629
 20
1242.47
 11
125.515
 21
1242.71
  0
LINE
  8
0
 10
125.515
 20
1242.71
 11
125.432
 21
1242.97
  0
LINE
  8
0
 10
125.432
 20
1242.97
 11
125.382
 21
1243.23
  0
LINE
  8
0
 10
125.382
 20
1243.23
 11
125.365
 21
1243.5
  0
LINE
  8
0
 10
125.365
 20
1243.5
 11
125.382
 21
1243.77
  0
LINE
  8
0
 10
125.382
 20
1243.77
 11
125.432
 21
1244.03
  0
LINE
  8
0
 10
125.432
 20
1244.03
 11
125.515
 21
1244.29
  0
LINE
  8
0
 10
125.515
 20
1244.29
 11
125.629
 21
1244.53
  0
LINE
  8
0
 10
125.629
 20
1244.53
 11
125.773
 21
1244.76
  0
LINE
  8
0
 10
125.773
 20
1244.76
 11
125.943
 21
1244.96
  0
LINE
  8
0
 10
125.943
 20
1244.96
 11
126.139
 21
1245.15
  0
LINE
  8
0
 10
126.139
 20
1245.15
 11
126.356
 21
1245.3
  0
LINE
  8
0
 10
126.356
 20
1245.3
 11
126.591
 21
1245.43
  0
LINE
  8
0
 10
126.591
 20
1245.43
 11
126.84
 21
1245.53
  0
LINE
  8
0
 10
126.84
 20
1245.53
 11
127.1
 21
1245.6
  0
LINE
  8
0
 10
127.1
 20
1245.6
 11
127.366
 21
1245.63
  0
LINE
  8
0
 10
127.366
 20
1245.63
 11
127.634
 21
1245.63
  0
LINE
  8
0
 10
127.634
 20
1245.63
 11
127.9
 21
1245.6
  0
LINE
  8
0
 10
127.9
 20
1245.6
 11
128.16
 21
1245.53
  0
LINE
  8
0
 10
128.16
 20
1245.53
 11
128.409
 21
1245.43
  0
LINE
  8
0
 10
128.409
 20
1245.43
 11
128.644
 21
1245.3
  0
LINE
  8
0
 10
128.644
 20
1245.3
 11
128.861
 21
1245.15
  0
LINE
  8
0
 10
128.861
 20
1245.15
 11
129.057
 21
1244.96
  0
LINE
  8
0
 10
129.057
 20
1244.96
 11
129.227
 21
1244.76
  0
LINE
  8
0
 10
129.227
 20
1244.76
 11
129.371
 21
1244.53
  0
LINE
  8
0
 10
129.371
 20
1244.53
 11
129.485
 21
1244.29
  0
LINE
  8
0
 10
129.485
 20
1244.29
 11
129.568
 21
1244.03
  0
LINE
  8
0
 10
129.568
 20
1244.03
 11
129.618
 21
1243.77
  0
LINE
  8
0
 10
129.618
 20
1243.77
 11
129.635
 21
1243.5
  0
LINE
  8
0
 10
129.635
 20
1243.5
 11
129.618
 21
1243.23
  0
LINE
  8
0
 10
129.618
 20
1243.23
 11
129.568
 21
1242.97
  0
LINE
  8
0
 10
129.568
 20
1242.97
 11
129.485
 21
1242.71
  0
LINE
  8
0
 10
129.485
 20
1242.71
 11
129.371
 21
1242.47
  0
LINE
  8
0
 10
129.371
 20
1242.47
 11
129.227
 21
1242.24
  0
LINE
  8
0
 10
129.227
 20
1242.24
 11
129.057
 21
1242.04
  0
LINE
  8
0
 10
129.057
 20
1242.04
 11
128.861
 21
1241.85
  0
LINE
  8
0
 10
128.861
 20
1241.85
 11
128.644
 21
1241.7
  0
LINE
  8
0
 10
128.644
 20
1241.7
 11
128.409
 21
1241.57
  0
LINE
  8
0
 10
128.409
 20
1241.57
 11
128.16
 21
1241.47
  0
LINE
  8
0
 10
128.16
 20
1241.47
 11
127.9
 21
1241.4
  0
LINE
  8
0
 10
127.9
 20
1241.4
 11
127.634
 21
1241.37
  0
LINE
  8
0
 10
127.634
 20
1241.37
 11
127.366
 21
1241.37
  0
LINE
  8
0
 10
-127.634
 20
986.369
 11
-127.9
 21
986.403
  0
LINE
  8
0
 10
-127.9
 20
986.403
 11
-128.16
 21
986.469
  0
LINE
  8
0
 10
-128.16
 20
986.469
 11
-128.409
 21
986.568
  0
LINE
  8
0
 10
-128.409
 20
986.568
 11
-128.644
 21
986.697
  0
LINE
  8
0
 10
-128.644
 20
986.697
 11
-128.861
 21
986.855
  0
LINE
  8
0
 10
-128.861
 20
986.855
 11
-129.057
 21
987.038
  0
LINE
  8
0
 10
-129.057
 20
987.038
 11
-129.227
 21
987.245
  0
LINE
  8
0
 10
-129.227
 20
987.245
 11
-129.371
 21
987.471
  0
LINE
  8
0
 10
-129.371
 20
987.471
 11
-129.485
 21
987.714
  0
LINE
  8
0
 10
-129.485
 20
987.714
 11
-129.568
 21
987.969
  0
LINE
  8
0
 10
-129.568
 20
987.969
 11
-129.618
 21
988.232
  0
LINE
  8
0
 10
-129.618
 20
988.232
 11
-129.635
 21
988.5
  0
LINE
  8
0
 10
-129.635
 20
988.5
 11
-129.618
 21
988.768
  0
LINE
  8
0
 10
-129.618
 20
988.768
 11
-129.568
 21
989.031
  0
LINE
  8
0
 10
-129.568
 20
989.031
 11
-129.485
 21
989.286
  0
LINE
  8
0
 10
-129.485
 20
989.286
 11
-129.371
 21
989.529
  0
LINE
  8
0
 10
-129.371
 20
989.529
 11
-129.227
 21
989.755
  0
LINE
  8
0
 10
-129.227
 20
989.755
 11
-129.057
 21
989.962
  0
LINE
  8
0
 10
-129.057
 20
989.962
 11
-128.861
 21
990.145
  0
LINE
  8
0
 10
-128.861
 20
990.145
 11
-128.644
 21
990.303
  0
LINE
  8
0
 10
-128.644
 20
990.303
 11
-128.409
 21
990.432
  0
LINE
  8
0
 10
-128.409
 20
990.432
 11
-128.16
 21
990.531
  0
LINE
  8
0
 10
-128.16
 20
990.531
 11
-127.9
 21
990.597
  0
LINE
  8
0
 10
-127.9
 20
990.597
 11
-127.634
 21
990.631
  0
LINE
  8
0
 10
-127.634
 20
990.631
 11
-127.366
 21
990.631
  0
LINE
  8
0
 10
-127.366
 20
990.631
 11
-127.1
 21
990.597
  0
LINE
  8
0
 10
-127.1
 20
990.597
 11
-126.84
 21
990.531
  0
LINE
  8
0
 10
-126.84
 20
990.531
 11
-126.591
 21
990.432
  0
LINE
  8
0
 10
-126.591
 20
990.432
 11
-126.356
 21
990.303
  0
LINE
  8
0
 10
-126.356
 20
990.303
 11
-126.139
 21
990.145
  0
LINE
  8
0
 10
-126.139
 20
990.145
 11
-125.943
 21
989.962
  0
LINE
  8
0
 10
-125.943
 20
989.962
 11
-125.773
 21
989.755
  0
LINE
  8
0
 10
-125.773
 20
989.755
 11
-125.629
 21
989.529
  0
LINE
  8
0
 10
-125.629
 20
989.529
 11
-125.515
 21
989.286
  0
LINE
  8
0
 10
-125.515
 20
989.286
 11
-125.432
 21
989.031
  0
LINE
  8
0
 10
-125.432
 20
989.031
 11
-125.382
 21
988.768
  0
LINE
  8
0
 10
-125.382
 20
988.768
 11
-125.365
 21
988.5
  0
LINE
  8
0
 10
-125.365
 20
988.5
 11
-125.382
 21
988.232
  0
LINE
  8
0
 10
-125.382
 20
988.232
 11
-125.432
 21
987.969
  0
LINE
  8
0
 10
-125.432
 20
987.969
 11
-125.515
 21
987.714
  0
LINE
  8
0
 10
-125.515
 20
987.714
 11
-125.629
 21
987.471
  0
LINE
  8
0
 10
-125.629
 20
987.471
 11
-125.773
 21
987.245
  0
LINE
  8
0
 10
-125.773
 20
987.245
 11
-125.943
 21
987.038
  0
LINE
  8
0
 10
-125.943
 20
987.038
 11
-126.139
 21
986.855
  0
LINE
  8
0
 10
-126.139
 20
986.855
 11
-126.356
 21
986.697
  0
LINE
  8
0
 10
-126.356
 20
986.697
 11
-126.591
 21
986.568
  0
LINE
  8
0
 10
-126.591
 20
986.568
 11
-126.84
 21
986.469
  0
LINE
  8
0
 10
-126.84
 20
986.469
 11
-127.1
 21
986.403
  0
LINE
  8
0
 10
-127.1
 20
986.403
 11
-127.366
 21
986.369
  0
LINE
  8
0
 10
-127.366
 20
986.369
 11
-127.634
 21
986.369
  0
LINE
  8
0
 10
127.366
 20
986.369
 11
127.1
 21
986.403
  0
LINE
  8
0
 10
127.1
 20
986.403
 11
126.84
 21
986.469
  0
LINE
  8
0
 10
126.84
 20
986.469
 11
126.591
 21
986.568
  0
LINE
  8
0
 10
126.591
 20
986.568
 11
126.356
 21
986.697
  0
LINE
  8
0
 10
126.356
 20
986.697
 11
126.139
 21
986.855
  0
LINE
  8
0
 10
126.139
 20
986.855
 11
125.943
 21
987.038
  0
LINE
  8
0
 10
125.943
 20
987.038
 11
125.773
 21
987.245
  0
LINE
  8
0
 10
125.773
 20
987.245
 11
125.629
 21
987.471
  0
LINE
  8
0
 10
125.629
 20
987.471
 11
125.515
 21
987.714
  0
LINE
  8
0
 10
125.515
 20
987.714
 11
125.432
 21
987.969
  0
LINE
  8
0
 10
125.432
 20
987.969
 11
125.382
 21
988.232
  0
LINE
  8
0
 10
125.382
 20
988.232
 11
125.365
 21
988.5
  0
LINE
  8
0
 10
125.365
 20
988.5
 11
125.382
 21
988.768
  0
LINE
  8
0
 10
125.382
 20
988.768
 11
125.432
 21
989.031
  0
LINE
  8
0
 10
125.432
 20
989.031
 11
125.515
 21
989.286
  0
LINE
  8
0
 10
125.515
 20
989.286
 11
125.629
 21
989.529
  0
LINE
  8
0
 10
125.629
 20
989.529
 11
125.773
 21
989.755
  0
LINE
  8
0
 10
125.773
 20
989.755
 11
125.943
 21
989.962
  0
LINE
  8
0
 10
125.943
 20
989.962
 11
126.139
 21
990.145
  0
LINE
  8
0
 10
126.139
 20
990.145
 11
126.356
 21
990.303
  0
LINE
  8
0
 10
126.356
 20
990.303
 11
126.591
 21
990.432
  0
LINE
  8
0
 10
126.591
 20
990.432
 11
126.84
 21
990.531
  0
LINE
  8
0
 10
126.84
 20
990.531
 11
127.1
 21
990.597
  0
LINE
  8
0
 10
127.1
 20
990.597
 11
127.366
 21
990.631
  0
LINE
  8
0
 10
127.366
 20
990.631
 11
127.634
 21
990.631
  0
LINE
  8
0
 10
127.634
 20
990.631
 11
127.9
 21
990.597
  0
LINE
  8
0
 10
127.9
 20
990.597
 11
128.16
 21
990.531
  0
LINE
  8
0
 10
128.16
 20
990.531
 11
128.409
 21
990.432
  0
LINE
  8
0
 10
128.409
 20
990.432
 11
128.644
 21
990.303
  0
LINE
  8
0
 10
128.644
 20
990.303
 11
128.861
 21
990.145
  0
LINE
  8
0
 10
128.861
 20
990.145
 11
129.057
 21
989.962
  0
LINE
  8
0
 10
129.057
 20
989.962
 11
129.227
 21
989.755
  0
LINE
  8
0
 10
129.227
 20
989.755
 11
129.371
 21
989.529
  0
LINE
  8
0
 10
129.371
 20
989.529
 11
129.485
 21
989.286
  0
LINE
  8
0
 10
129.485
 20
989.286
 11
129.568
 21
989.031
  0
LINE
  8
0
 10
129.568
 20
989.031
 11
129.618
 21
988.768
  0
LINE
  8
0
 10
129.618
 20
988.768
 11
129.635
 21
988.5
  0
LINE
  8
0
 10
129.635
 20
988.5
 11
129.618
 21
988.232
  0
LINE
  8
0
 10
129.618
 20
988.232
 11
129.568
 21
987.969
  0
LINE
  8
0
 10
129.568
 20
987.969
 11
129.485
 21
987.714
  0
LINE
  8
0
 10
129.485
 20
987.714
 11
129.371
 21
987.471
  0
LINE
  8
0
 10
129.371
 20
987.471
 11
129.227
 21
987.245
  0
LINE
  8
0
 10
129.227
 20
987.245
 11
129.057
 21
987.038
  0
LINE
  8
0
 10
129.057
 20
987.038
 11
128.861
 21
986.855
  0
LINE
  8
0
 10
128.861
 20
986.855
 11
128.644
 21
986.697
  0
LINE
  8
0
 10
128.644
 20
986.697
 11
128.409
 21
986.568
  0
LINE
  8
0
 10
128.409
 20
986.568
 11
128.16
 21
986.469
  0
LINE
  8
0
 10
128.16
 20
986.469
 11
127.9
 21
986.403
  0
LINE
  8
0
 10
127.9
 20
986.403
 11
127.634
 21
986.369
  0
LINE
  8
0
 10
127.634
 20
986.369
 11
127.366
 21
986.369
  0
ENDSEC
  0
SECTION
  2
OBJECTS
  0
DICTIONARY
  0
ENDSEC
  0
EOF
