<?xml version="1.0" standalone="no"?>
<!DOCTYPE svg PUBLIC "-//W3C//DTD SVG 1.1//EN" "http://www.w3.org/Graphics/SVG/1.1/DTD/svg11.dtd">
<svg width="272mm" height="64mm" viewBox="-137 -128 272 64" xmlns="http://www.w3.org/2000/svg" version="1.1">
<title>OpenSCAD Model</title>
<path d="
M -133.5,-113.941 L -133.187,-113.647 L -132.679,-113.278 L -132.129,-112.976 L -131.545,-112.745 L -130.937,-112.589
 L -130.314,-112.51 L 130.314,-112.51 L 130.937,-112.589 L 131.545,-112.745 L 132.129,-112.976 L 132.679,-113.278
 L 133.187,-113.647 L 133.645,-114.077 L 134.045,-114.561 L 134.382,-115.091 L 134.649,-115.659 L 134.843,-116.257
 L 134.961,-116.873 L 135,-117.5 L 135,-122.5 L 134.961,-123.127 L 134.843,-123.743 L 134.649,-124.341
 L 134.382,-124.909 L 134.045,-125.439 L 133.645,-125.923 L 133.187,-126.353 L 132.679,-126.722 L 132.129,-127.024
 L 131.545,-127.255 L 130.937,-127.411 L 130.314,-127.49 L -130.314,-127.49 L -130.937,-127.411 L -131.545,-127.255
 L -132.129,-127.024 L -132.679,-126.722 L -133.187,-126.353 L -133.5,-126.059 L -133.5,-127.49 L -136.5,-127.49
 L -136.5,-112.51 L -133.5,-112.51 z
M -129.751,-114.008 L -130.25,-114.071 L -130.736,-114.196 L -131.203,-114.381 L -131.643,-114.623 L -132.05,-114.918
 L -132.416,-115.262 L -132.736,-115.649 L -133.005,-116.073 L -133.219,-116.528 L -133.374,-117.005 L -133.468,-117.499
 L -133.5,-118 L -133.5,-122 L -133.468,-122.501 L -133.374,-122.995 L -133.219,-123.472 L -133.005,-123.927
 L -132.736,-124.351 L -132.416,-124.738 L -132.05,-125.082 L -131.643,-125.377 L -131.203,-125.619 L -130.736,-125.804
 L -130.25,-125.929 L -129.751,-125.992 L 129.751,-125.992 L 130.25,-125.929 L 130.736,-125.804 L 131.203,-125.619
 L 131.643,-125.377 L 132.05,-125.082 L 132.416,-124.738 L 132.736,-124.351 L 133.005,-123.927 L 133.219,-123.472
 L 133.374,-122.995 L 133.468,-122.501 L 133.5,-122 L 133.5,-118 L 133.468,-117.499 L 133.374,-117.005
 L 133.219,-116.528 L 133.005,-116.073 L 132.736,-115.649 L 132.416,-115.262 L 132.05,-114.918 L 131.643,-114.623
 L 131.203,-114.381 L 130.736,-114.196 L 130.25,-114.071 L 129.751,-114.008 z
M 130.937,-88.5886 L 131.545,-88.7447 L 132.129,-88.9759 L 132.679,-89.2784 L 133.187,-89.6474 L 133.645,-90.0773
 L 134.045,-90.5611 L 134.382,-91.0912 L 134.649,-91.6594 L 134.843,-92.2566 L 134.961,-92.8733 L 135,-93.5
 L 135,-98.5 L 134.961,-99.1267 L 134.843,-99.7434 L 134.649,-100.341 L 134.382,-100.909 L 134.045,-101.439
 L 133.645,-101.923 L 133.187,-102.353 L 132.679,-102.722 L 132.129,-103.024 L 131.545,-103.255 L 130.937,-103.411
 L 130.314,-103.49 L -130.314,-103.49 L -130.937,-103.411 L -131.545,-103.255 L -132.129,-103.024 L -132.679,-102.722
 L -133.187,-102.353 L -133.5,-102.059 L -133.5,-103.479 L -136.5,-103.479 L -136.5,-88.5208 L -133.5,-88.5208
 L -133.5,-89.9413 L -133.187,-89.6474 L -132.679,-89.2784 L -132.129,-88.9759 L -131.545,-88.7447 L -130.937,-88.5886
 L -130.314,-88.5099 L 130.314,-88.5099 z
M -129.695,-90.8932 L -130.083,-90.9422 L -130.462,-91.0394 L -130.825,-91.1833 L -131.168,-91.3717 L -131.484,-91.6015
 L -131.769,-91.8691 L -132.018,-92.1703 L -132.228,-92.5004 L -132.394,-92.8541 L -132.515,-93.2259 L -132.588,-93.6098
 L -132.613,-94 L -132.613,-98 L -132.588,-98.3902 L -132.515,-98.7741 L -132.394,-99.1459 L -132.228,-99.4996
 L -132.018,-99.8297 L -131.769,-100.131 L -131.484,-100.399 L -131.168,-100.628 L -130.825,-100.817 L -130.462,-100.961
 L -130.083,-101.058 L -129.695,-101.107 L 129.695,-101.107 L 130.083,-101.058 L 130.462,-100.961 L 130.825,-100.817
 L 131.168,-100.628 L 131.484,-100.399 L 131.769,-100.131 L 132.018,-99.8297 L 132.228,-99.4996 L 132.394,-99.1459
 L 132.515,-98.7741 L 132.588,-98.3902 L 132.613,-98 L 132.613,-94 L 132.588,-93.6098 L 132.515,-93.2259
 L 132.394,-92.8541 L 132.228,-92.5004 L 132.018,-92.1703 L 131.769,-91.8691 L 131.484,-91.6015 L 131.168,-91.3717
 L 130.825,-91.1833 L 130.462,-91.0394 L 130.083,-90.9422 L 129.695,-90.8932 z
M 130.937,-64.5886 L 131.545,-64.7447 L 132.129,-64.9759 L 132.679,-65.2784 L 133.187,-65.6474 L 133.645,-66.0773
 L 134.045,-66.5611 L 134.382,-67.0912 L 134.649,-67.6594 L 134.843,-68.2566 L 134.961,-68.8733 L 135,-69.5
 L 135,-74.5 L 134.961,-75.1267 L 134.843,-75.7434 L 134.649,-76.3406 L 134.382,-76.9088 L 134.045,-77.4389
 L 133.645,-77.9227 L 133.187,-78.3526 L 132.679,-78.7216 L 132.129,-79.0241 L 131.545,-79.2553 L 130.937,-79.4114
 L 130.314,-79.4901 L -130.314,-79.4901 L -130.937,-79.4114 L -131.545,-79.2553 L -132.129,-79.0241 L -132.679,-78.7216
 L -133.187,-78.3526 L -133.5,-78.0587 L -133.5,-78.1526 L -136.5,-78.1526 L -136.5,-65.8474 L -133.5,-65.8474
 L -133.5,-65.9413 L -133.187,-65.6474 L -132.679,-65.2784 L -132.129,-64.9759 L -131.545,-64.7447 L -130.937,-64.5886
 L -130.314,-64.5099 L 130.314,-64.5099 z
M 127.366,-69.8689 L 127.1,-69.9025 L 126.84,-69.9692 L 126.591,-70.0679 L 126.356,-70.1971 L 126.139,-70.3547
 L 125.943,-70.5383 L 125.773,-70.7449 L 125.629,-70.9713 L 125.515,-71.214 L 125.432,-71.469 L 125.382,-71.7324
 L 125.365,-72 L 125.382,-72.2676 L 125.432,-72.531 L 125.515,-72.786 L 125.629,-73.0287 L 125.773,-73.2551
 L 125.943,-73.4617 L 126.139,-73.6453 L 126.356,-73.8029 L 126.591,-73.9321 L 126.84,-74.0308 L 127.1,-74.0975
 L 127.366,-74.1311 L 127.634,-74.1311 L 127.9,-74.0975 L 128.16,-74.0308 L 128.409,-73.9321 L 128.644,-73.8029
 L 128.861,-73.6453 L 129.057,-73.4617 L 129.227,-73.2551 L 129.371,-73.0287 L 129.485,-72.786 L 129.568,-72.531
 L 129.618,-72.2676 L 129.635,-72 L 129.618,-71.7324 L 129.568,-71.469 L 129.485,-71.214 L 129.371,-70.9713
 L 129.227,-70.7449 L 129.057,-70.5383 L 128.861,-70.3547 L 128.644,-70.1971 L 128.409,-70.0679 L 128.16,-69.9692
 L 127.9,-69.9025 L 127.634,-69.8689 z
M -127.634,-69.8689 L -127.9,-69.9025 L -128.16,-69.9692 L -128.409,-70.0679 L -128.644,-70.1971 L -128.861,-70.3547
 L -129.057,-70.5383 L -129.227,-70.7449 L -129.371,-70.9713 L -129.485,-71.214 L -129.568,-71.469 L -129.618,-71.7324
 L -129.635,-72 L -129.618,-72.2676 L -129.568,-72.531 L -129.485,-72.786 L -129.371,-73.0287 L -129.227,-73.2551
 L -129.057,-73.4617 L -128.861,-73.6453 L -128.644,-73.8029 L -128.409,-73.9321 L -128.16,-74.0308 L -127.9,-74.0975
 L -127.634,-74.1311 L -127.366,-74.1311 L -127.1,-74.0975 L -126.84,-74.0308 L -126.591,-73.9321 L -126.356,-73.8029
 L -126.139,-73.6453 L -125.943,-73.4617 L -125.773,-73.2551 L -125.629,-73.0287 L -125.515,-72.786 L -125.432,-72.531
 L -125.382,-72.2676 L -125.365,-72 L -125.382,-71.7324 L -125.432,-71.469 L -125.515,-71.214 L -125.629,-70.9713
 L -125.773,-70.7449 L -125.943,-70.5383 L -126.139,-70.3547 L -126.356,-70.1971 L -126.591,-70.0679 L -126.84,-69.9692
 L -127.1,-69.9025 L -127.366,-69.8689 z
" stroke="black" fill="lightgray" stroke-width="0.5"/>
</svg>
