<?xml version="1.0" standalone="no"?>
<!DOCTYPE svg PUBLIC "-//W3C//DTD SVG 1.1//EN" "http://www.w3.org/Graphics/SVG/1.1/DTD/svg11.dtd">
<svg width="257mm" height="747mm" viewBox="-129 -1413 257 747" xmlns="http://www.w3.org/2000/svg" version="1.1">
<title>OpenSCAD Model</title>
<path d="
M -126,-1234.44 L -125.687,-1234.15 L -125.179,-1233.78 L -124.629,-1233.48 L -124.045,-1233.24 L -123.437,-1233.09
 L -122.814,-1233.01 L 122.814,-1233.01 L 123.437,-1233.09 L 124.045,-1233.24 L 124.629,-1233.48 L 125.179,-1233.78
 L 125.687,-1234.15 L 126.145,-1234.58 L 126.545,-1235.06 L 126.882,-1235.59 L 127.149,-1236.16 L 127.343,-1236.76
 L 127.461,-1237.37 L 127.5,-1238 L 127.5,-1408 L 127.461,-1408.63 L 127.343,-1409.24 L 127.149,-1409.84
 L 126.882,-1410.41 L 126.545,-1410.94 L 126.145,-1411.42 L 125.687,-1411.85 L 125.179,-1412.22 L 124.629,-1412.52
 L 124.045,-1412.76 L 123.437,-1412.91 L 122.814,-1412.99 L -122.814,-1412.99 L -123.437,-1412.91 L -124.045,-1412.76
 L -124.629,-1412.52 L -125.179,-1412.22 L -125.687,-1411.85 L -126,-1411.56 L -126,-1412.99 L -129,-1412.99
 L -129,-1233.01 L -126,-1233.01 z
M -122.251,-1234.51 L -122.75,-1234.57 L -123.236,-1234.7 L -123.703,-1234.88 L -124.143,-1235.12 L -124.55,-1235.42
 L -124.916,-1235.76 L -125.236,-1236.15 L -125.505,-1236.57 L -125.719,-1237.03 L -125.874,-1237.51 L -125.968,-1238
 L -126,-1238.5 L -126,-1407.5 L -125.968,-1408 L -125.874,-1408.49 L -125.719,-1408.97 L -125.505,-1409.43
 L -125.236,-1409.85 L -124.916,-1410.24 L -124.55,-1410.58 L -124.143,-1410.88 L -123.703,-1411.12 L -123.236,-1411.3
 L -122.75,-1411.43 L -122.251,-1411.49 L 122.251,-1411.49 L 122.75,-1411.43 L 123.236,-1411.3 L 123.703,-1411.12
 L 124.143,-1410.88 L 124.55,-1410.58 L 124.916,-1410.24 L 125.236,-1409.85 L 125.505,-1409.43 L 125.719,-1408.97
 L 125.874,-1408.49 L 125.968,-1408 L 126,-1407.5 L 126,-1238.5 L 125.968,-1238 L 125.874,-1237.51
 L 125.719,-1237.03 L 125.505,-1236.57 L 125.236,-1236.15 L 124.916,-1235.76 L 124.55,-1235.42 L 124.143,-1235.12
 L 123.703,-1234.88 L 123.236,-1234.7 L 122.75,-1234.57 L 122.251,-1234.51 z
M -126,-1045.44 L -125.687,-1045.15 L -125.179,-1044.78 L -124.629,-1044.48 L -124.045,-1044.24 L -123.437,-1044.09
 L -122.814,-1044.01 L 122.814,-1044.01 L 123.437,-1044.09 L 124.045,-1044.24 L 124.629,-1044.48 L 125.179,-1044.78
 L 125.687,-1045.15 L 126.145,-1045.58 L 126.545,-1046.06 L 126.882,-1046.59 L 127.149,-1047.16 L 127.343,-1047.76
 L 127.461,-1048.37 L 127.5,-1049 L 127.5,-1219 L 127.461,-1219.63 L 127.343,-1220.24 L 127.149,-1220.84
 L 126.882,-1221.41 L 126.545,-1221.94 L 126.145,-1222.42 L 125.687,-1222.85 L 125.179,-1223.22 L 124.629,-1223.52
 L 124.045,-1223.76 L 123.437,-1223.91 L 122.814,-1223.99 L -122.814,-1223.99 L -123.437,-1223.91 L -124.045,-1223.76
 L -124.629,-1223.52 L -125.179,-1223.22 L -125.687,-1222.85 L -126,-1222.56 L -126,-1223.99 L -129,-1223.99
 L -129,-1044.01 L -126,-1044.01 z
M -122.251,-1045.51 L -122.75,-1045.57 L -123.236,-1045.7 L -123.703,-1045.88 L -124.143,-1046.12 L -124.55,-1046.42
 L -124.916,-1046.76 L -125.236,-1047.15 L -125.505,-1047.57 L -125.719,-1048.03 L -125.874,-1048.51 L -125.968,-1049
 L -126,-1049.5 L -126,-1218.5 L -125.968,-1219 L -125.874,-1219.49 L -125.719,-1219.97 L -125.505,-1220.43
 L -125.236,-1220.85 L -124.916,-1221.24 L -124.55,-1221.58 L -124.143,-1221.88 L -123.703,-1222.12 L -123.236,-1222.3
 L -122.75,-1222.43 L -122.251,-1222.49 L 122.251,-1222.49 L 122.75,-1222.43 L 123.236,-1222.3 L 123.703,-1222.12
 L 124.143,-1221.88 L 124.55,-1221.58 L 124.916,-1221.24 L 125.236,-1220.85 L 125.505,-1220.43 L 125.719,-1219.97
 L 125.874,-1219.49 L 125.968,-1219 L 126,-1218.5 L 126,-1049.5 L 125.968,-1049 L 125.874,-1048.51
 L 125.719,-1048.03 L 125.505,-1047.57 L 125.236,-1047.15 L 124.916,-1046.76 L 124.55,-1046.42 L 124.143,-1046.12
 L 123.703,-1045.88 L 123.236,-1045.7 L 122.75,-1045.57 L 122.251,-1045.51 z
M 123.437,-855.089 L 124.045,-855.245 L 124.629,-855.476 L 125.179,-855.778 L 125.687,-856.147 L 126.145,-856.577
 L 126.545,-857.061 L 126.882,-857.591 L 127.149,-858.159 L 127.343,-858.757 L 127.461,-859.373 L 127.5,-860
 L 127.5,-1030 L 127.461,-1030.63 L 127.343,-1031.24 L 127.149,-1031.84 L 126.882,-1032.41 L 126.545,-1032.94
 L 126.145,-1033.42 L 125.687,-1033.85 L 125.179,-1034.22 L 124.629,-1034.52 L 124.045,-1034.76 L 123.437,-1034.91
 L 122.814,-1034.99 L -122.814,-1034.99 L -123.437,-1034.91 L -124.045,-1034.76 L -124.629,-1034.52 L -125.179,-1034.22
 L -125.687,-1033.85 L -126,-1033.56 L -126,-1034.98 L -129,-1034.98 L -129,-855.021 L -126,-855.021
 L -126,-856.441 L -125.687,-856.147 L -125.179,-855.778 L -124.629,-855.476 L -124.045,-855.245 L -123.437,-855.089
 L -122.814,-855.01 L 122.814,-855.01 z
M -122.195,-857.393 L -122.583,-857.442 L -122.962,-857.539 L -123.325,-857.683 L -123.668,-857.872 L -123.984,-858.101
 L -124.269,-858.369 L -124.518,-858.67 L -124.728,-859 L -124.894,-859.354 L -125.015,-859.726 L -125.088,-860.11
 L -125.113,-860.5 L -125.113,-1029.5 L -125.088,-1029.89 L -125.015,-1030.27 L -124.894,-1030.65 L -124.728,-1031
 L -124.518,-1031.33 L -124.269,-1031.63 L -123.984,-1031.9 L -123.668,-1032.13 L -123.325,-1032.32 L -122.962,-1032.46
 L -122.583,-1032.56 L -122.195,-1032.61 L 122.195,-1032.61 L 122.583,-1032.56 L 122.962,-1032.46 L 123.325,-1032.32
 L 123.668,-1032.13 L 123.984,-1031.9 L 124.269,-1031.63 L 124.518,-1031.33 L 124.728,-1031 L 124.894,-1030.65
 L 125.015,-1030.27 L 125.088,-1029.89 L 125.113,-1029.5 L 125.113,-860.5 L 125.088,-860.11 L 125.015,-859.726
 L 124.894,-859.354 L 124.728,-859 L 124.518,-858.67 L 124.269,-858.369 L 123.984,-858.101 L 123.668,-857.872
 L 123.325,-857.683 L 122.962,-857.539 L 122.583,-857.442 L 122.195,-857.393 z
M 123.437,-666.089 L 124.045,-666.245 L 124.629,-666.476 L 125.179,-666.778 L 125.687,-667.147 L 126.145,-667.577
 L 126.545,-668.061 L 126.882,-668.591 L 127.149,-669.159 L 127.343,-669.757 L 127.461,-670.373 L 127.5,-671
 L 127.5,-841 L 127.461,-841.627 L 127.343,-842.243 L 127.149,-842.841 L 126.882,-843.409 L 126.545,-843.939
 L 126.145,-844.423 L 125.687,-844.853 L 125.179,-845.222 L 124.629,-845.524 L 124.045,-845.755 L 123.437,-845.911
 L 122.814,-845.99 L -122.814,-845.99 L -123.437,-845.911 L -124.045,-845.755 L -124.629,-845.524 L -125.179,-845.222
 L -125.687,-844.853 L -126,-844.559 L -126,-844.653 L -129,-844.653 L -129,-667.347 L -126,-667.347
 L -126,-667.441 L -125.687,-667.147 L -125.179,-666.778 L -124.629,-666.476 L -124.045,-666.245 L -123.437,-666.089
 L -122.814,-666.01 L 122.814,-666.01 z
M -120.134,-836.369 L -120.4,-836.403 L -120.66,-836.469 L -120.909,-836.568 L -121.144,-836.697 L -121.361,-836.855
 L -121.557,-837.038 L -121.727,-837.245 L -121.871,-837.471 L -121.985,-837.714 L -122.068,-837.969 L -122.118,-838.232
 L -122.135,-838.5 L -122.118,-838.768 L -122.068,-839.031 L -121.985,-839.286 L -121.871,-839.529 L -121.727,-839.755
 L -121.557,-839.962 L -121.361,-840.145 L -121.144,-840.303 L -120.909,-840.432 L -120.66,-840.531 L -120.4,-840.597
 L -120.134,-840.631 L -119.866,-840.631 L -119.6,-840.597 L -119.34,-840.531 L -119.091,-840.432 L -118.856,-840.303
 L -118.639,-840.145 L -118.443,-839.962 L -118.273,-839.755 L -118.129,-839.529 L -118.015,-839.286 L -117.932,-839.031
 L -117.882,-838.768 L -117.865,-838.5 L -117.882,-838.232 L -117.932,-837.969 L -118.015,-837.714 L -118.129,-837.471
 L -118.273,-837.245 L -118.443,-837.038 L -118.639,-836.855 L -118.856,-836.697 L -119.091,-836.568 L -119.34,-836.469
 L -119.6,-836.403 L -119.866,-836.369 z
M 119.866,-836.369 L 119.6,-836.403 L 119.34,-836.469 L 119.091,-836.568 L 118.856,-836.697 L 118.639,-836.855
 L 118.443,-837.038 L 118.273,-837.245 L 118.129,-837.471 L 118.015,-837.714 L 117.932,-837.969 L 117.882,-838.232
 L 117.865,-838.5 L 117.882,-838.768 L 117.932,-839.031 L 118.015,-839.286 L 118.129,-839.529 L 118.273,-839.755
 L 118.443,-839.962 L 118.639,-840.145 L 118.856,-840.303 L 119.091,-840.432 L 119.34,-840.531 L 119.6,-840.597
 L 119.866,-840.631 L 120.134,-840.631 L 120.4,-840.597 L 120.66,-840.531 L 120.909,-840.432 L 121.144,-840.303
 L 121.361,-840.145 L 121.557,-839.962 L 121.727,-839.755 L 121.871,-839.529 L 121.985,-839.286 L 122.068,-839.031
 L 122.118,-838.768 L 122.135,-838.5 L 122.118,-838.232 L 122.068,-837.969 L 121.985,-837.714 L 121.871,-837.471
 L 121.727,-837.245 L 121.557,-837.038 L 121.361,-836.855 L 121.144,-836.697 L 120.909,-836.568 L 120.66,-836.469
 L 120.4,-836.403 L 120.134,-836.369 z
M -120.134,-671.369 L -120.4,-671.403 L -120.66,-671.469 L -120.909,-671.568 L -121.144,-671.697 L -121.361,-671.855
 L -121.557,-672.038 L -121.727,-672.245 L -121.871,-672.471 L -121.985,-672.714 L -122.068,-672.969 L -122.118,-673.232
 L -122.135,-673.5 L -122.118,-673.768 L -122.068,-674.031 L -121.985,-674.286 L -121.871,-674.529 L -121.727,-674.755
 L -121.557,-674.962 L -121.361,-675.145 L -121.144,-675.303 L -120.909,-675.432 L -120.66,-675.531 L -120.4,-675.597
 L -120.134,-675.631 L -119.866,-675.631 L -119.6,-675.597 L -119.34,-675.531 L -119.091,-675.432 L -118.856,-675.303
 L -118.639,-675.145 L -118.443,-674.962 L -118.273,-674.755 L -118.129,-674.529 L -118.015,-674.286 L -117.932,-674.031
 L -117.882,-673.768 L -117.865,-673.5 L -117.882,-673.232 L -117.932,-672.969 L -118.015,-672.714 L -118.129,-672.471
 L -118.273,-672.245 L -118.443,-672.038 L -118.639,-671.855 L -118.856,-671.697 L -119.091,-671.568 L -119.34,-671.469
 L -119.6,-671.403 L -119.866,-671.369 z
M 119.866,-671.369 L 119.6,-671.403 L 119.34,-671.469 L 119.091,-671.568 L 118.856,-671.697 L 118.639,-671.855
 L 118.443,-672.038 L 118.273,-672.245 L 118.129,-672.471 L 118.015,-672.714 L 117.932,-672.969 L 117.882,-673.232
 L 117.865,-673.5 L 117.882,-673.768 L 117.932,-674.031 L 118.015,-674.286 L 118.129,-674.529 L 118.273,-674.755
 L 118.443,-674.962 L 118.639,-675.145 L 118.856,-675.303 L 119.091,-675.432 L 119.34,-675.531 L 119.6,-675.597
 L 119.866,-675.631 L 120.134,-675.631 L 120.4,-675.597 L 120.66,-675.531 L 120.909,-675.432 L 121.144,-675.303
 L 121.361,-675.145 L 121.557,-674.962 L 121.727,-674.755 L 121.871,-674.529 L 121.985,-674.286 L 122.068,-674.031
 L 122.118,-673.768 L 122.135,-673.5 L 122.118,-673.232 L 122.068,-672.969 L 121.985,-672.714 L 121.871,-672.471
 L 121.727,-672.245 L 121.557,-672.038 L 121.361,-671.855 L 121.144,-671.697 L 120.909,-671.568 L 120.66,-671.469
 L 120.4,-671.403 L 120.134,-671.369 z
" stroke="black" fill="lightgray" stroke-width="0.5"/>
</svg>
