<?xml version="1.0" standalone="no"?>
<!DOCTYPE svg PUBLIC "-//W3C//DTD SVG 1.1//EN" "http://www.w3.org/Graphics/SVG/1.1/DTD/svg11.dtd">
<svg width="287mm" height="867mm" viewBox="-144 -1638 287 867" xmlns="http://www.w3.org/2000/svg" version="1.1">
<title>OpenSCAD Model</title>
<path d="
M -141,-1429.44 L -140.687,-1429.15 L -140.179,-1428.78 L -139.629,-1428.48 L -139.045,-1428.24 L -138.437,-1428.09
 L -137.814,-1428.01 L 137.814,-1428.01 L 138.437,-1428.09 L 139.045,-1428.24 L 139.629,-1428.48 L 140.179,-1428.78
 L 140.687,-1429.15 L 141.145,-1429.58 L 141.545,-1430.06 L 141.882,-1430.59 L 142.149,-1431.16 L 142.343,-1431.76
 L 142.461,-1432.37 L 142.5,-1433 L 142.5,-1633 L 142.461,-1633.63 L 142.343,-1634.24 L 142.149,-1634.84
 L 141.882,-1635.41 L 141.545,-1635.94 L 141.145,-1636.42 L 140.687,-1636.85 L 140.179,-1637.22 L 139.629,-1637.52
 L 139.045,-1637.76 L 138.437,-1637.91 L 137.814,-1637.99 L -137.814,-1637.99 L -138.437,-1637.91 L -139.045,-1637.76
 L -139.629,-1637.52 L -140.179,-1637.22 L -140.687,-1636.85 L -141,-1636.56 L -141,-1637.99 L -144,-1637.99
 L -144,-1428.01 L -141,-1428.01 z
M -137.251,-1429.51 L -137.75,-1429.57 L -138.236,-1429.7 L -138.703,-1429.88 L -139.143,-1430.12 L -139.55,-1430.42
 L -139.916,-1430.76 L -140.236,-1431.15 L -140.505,-1431.57 L -140.719,-1432.03 L -140.874,-1432.51 L -140.968,-1433
 L -141,-1433.5 L -141,-1632.5 L -140.968,-1633 L -140.874,-1633.49 L -140.719,-1633.97 L -140.505,-1634.43
 L -140.236,-1634.85 L -139.916,-1635.24 L -139.55,-1635.58 L -139.143,-1635.88 L -138.703,-1636.12 L -138.236,-1636.3
 L -137.75,-1636.43 L -137.251,-1636.49 L 137.251,-1636.49 L 137.75,-1636.43 L 138.236,-1636.3 L 138.703,-1636.12
 L 139.143,-1635.88 L 139.55,-1635.58 L 139.916,-1635.24 L 140.236,-1634.85 L 140.505,-1634.43 L 140.719,-1633.97
 L 140.874,-1633.49 L 140.968,-1633 L 141,-1632.5 L 141,-1433.5 L 140.968,-1433 L 140.874,-1432.51
 L 140.719,-1432.03 L 140.505,-1431.57 L 140.236,-1431.15 L 139.916,-1430.76 L 139.55,-1430.42 L 139.143,-1430.12
 L 138.703,-1429.88 L 138.236,-1429.7 L 137.75,-1429.57 L 137.251,-1429.51 z
M -141,-1210.44 L -140.687,-1210.15 L -140.179,-1209.78 L -139.629,-1209.48 L -139.045,-1209.24 L -138.437,-1209.09
 L -137.814,-1209.01 L 137.814,-1209.01 L 138.437,-1209.09 L 139.045,-1209.24 L 139.629,-1209.48 L 140.179,-1209.78
 L 140.687,-1210.15 L 141.145,-1210.58 L 141.545,-1211.06 L 141.882,-1211.59 L 142.149,-1212.16 L 142.343,-1212.76
 L 142.461,-1213.37 L 142.5,-1214 L 142.5,-1414 L 142.461,-1414.63 L 142.343,-1415.24 L 142.149,-1415.84
 L 141.882,-1416.41 L 141.545,-1416.94 L 141.145,-1417.42 L 140.687,-1417.85 L 140.179,-1418.22 L 139.629,-1418.52
 L 139.045,-1418.76 L 138.437,-1418.91 L 137.814,-1418.99 L -137.814,-1418.99 L -138.437,-1418.91 L -139.045,-1418.76
 L -139.629,-1418.52 L -140.179,-1418.22 L -140.687,-1417.85 L -141,-1417.56 L -141,-1418.99 L -144,-1418.99
 L -144,-1209.01 L -141,-1209.01 z
M -137.251,-1210.51 L -137.75,-1210.57 L -138.236,-1210.7 L -138.703,-1210.88 L -139.143,-1211.12 L -139.55,-1211.42
 L -139.916,-1211.76 L -140.236,-1212.15 L -140.505,-1212.57 L -140.719,-1213.03 L -140.874,-1213.51 L -140.968,-1214
 L -141,-1214.5 L -141,-1413.5 L -140.968,-1414 L -140.874,-1414.49 L -140.719,-1414.97 L -140.505,-1415.43
 L -140.236,-1415.85 L -139.916,-1416.24 L -139.55,-1416.58 L -139.143,-1416.88 L -138.703,-1417.12 L -138.236,-1417.3
 L -137.75,-1417.43 L -137.251,-1417.49 L 137.251,-1417.49 L 137.75,-1417.43 L 138.236,-1417.3 L 138.703,-1417.12
 L 139.143,-1416.88 L 139.55,-1416.58 L 139.916,-1416.24 L 140.236,-1415.85 L 140.505,-1415.43 L 140.719,-1414.97
 L 140.874,-1414.49 L 140.968,-1414 L 141,-1413.5 L 141,-1214.5 L 140.968,-1214 L 140.874,-1213.51
 L 140.719,-1213.03 L 140.505,-1212.57 L 140.236,-1212.15 L 139.916,-1211.76 L 139.55,-1211.42 L 139.143,-1211.12
 L 138.703,-1210.88 L 138.236,-1210.7 L 137.75,-1210.57 L 137.251,-1210.51 z
M 138.437,-990.089 L 139.045,-990.245 L 139.629,-990.476 L 140.179,-990.778 L 140.687,-991.147 L 141.145,-991.577
 L 141.545,-992.061 L 141.882,-992.591 L 142.149,-993.159 L 142.343,-993.757 L 142.461,-994.373 L 142.5,-995
 L 142.5,-1195 L 142.461,-1195.63 L 142.343,-1196.24 L 142.149,-1196.84 L 141.882,-1197.41 L 141.545,-1197.94
 L 141.145,-1198.42 L 140.687,-1198.85 L 140.179,-1199.22 L 139.629,-1199.52 L 139.045,-1199.76 L 138.437,-1199.91
 L 137.814,-1199.99 L -137.814,-1199.99 L -138.437,-1199.91 L -139.045,-1199.76 L -139.629,-1199.52 L -140.179,-1199.22
 L -140.687,-1198.85 L -141,-1198.56 L -141,-1199.98 L -144,-1199.98 L -144,-990.021 L -141,-990.021
 L -141,-991.441 L -140.687,-991.147 L -140.179,-990.778 L -139.629,-990.476 L -139.045,-990.245 L -138.437,-990.089
 L -137.814,-990.01 L 137.814,-990.01 z
M -137.195,-992.393 L -137.583,-992.442 L -137.962,-992.539 L -138.325,-992.683 L -138.668,-992.872 L -138.984,-993.101
 L -139.269,-993.369 L -139.518,-993.67 L -139.728,-994 L -139.894,-994.354 L -140.015,-994.726 L -140.088,-995.11
 L -140.113,-995.5 L -140.113,-1194.5 L -140.088,-1194.89 L -140.015,-1195.27 L -139.894,-1195.65 L -139.728,-1196
 L -139.518,-1196.33 L -139.269,-1196.63 L -138.984,-1196.9 L -138.668,-1197.13 L -138.325,-1197.32 L -137.962,-1197.46
 L -137.583,-1197.56 L -137.195,-1197.61 L 137.195,-1197.61 L 137.583,-1197.56 L 137.962,-1197.46 L 138.325,-1197.32
 L 138.668,-1197.13 L 138.984,-1196.9 L 139.269,-1196.63 L 139.518,-1196.33 L 139.728,-1196 L 139.894,-1195.65
 L 140.015,-1195.27 L 140.088,-1194.89 L 140.113,-1194.5 L 140.113,-995.5 L 140.088,-995.11 L 140.015,-994.726
 L 139.894,-994.354 L 139.728,-994 L 139.518,-993.67 L 139.269,-993.369 L 138.984,-993.101 L 138.668,-992.872
 L 138.325,-992.683 L 137.962,-992.539 L 137.583,-992.442 L 137.195,-992.393 z
M 138.437,-771.089 L 139.045,-771.245 L 139.629,-771.476 L 140.179,-771.778 L 140.687,-772.147 L 141.145,-772.577
 L 141.545,-773.061 L 141.882,-773.591 L 142.149,-774.159 L 142.343,-774.757 L 142.461,-775.373 L 142.5,-776
 L 142.5,-976 L 142.461,-976.627 L 142.343,-977.243 L 142.149,-977.841 L 141.882,-978.409 L 141.545,-978.939
 L 141.145,-979.423 L 140.687,-979.853 L 140.179,-980.222 L 139.629,-980.524 L 139.045,-980.755 L 138.437,-980.911
 L 137.814,-980.99 L -137.814,-980.99 L -138.437,-980.911 L -139.045,-980.755 L -139.629,-980.524 L -140.179,-980.222
 L -140.687,-979.853 L -141,-979.559 L -141,-979.653 L -144,-979.653 L -144,-772.347 L -141,-772.347
 L -141,-772.441 L -140.687,-772.147 L -140.179,-771.778 L -139.629,-771.476 L -139.045,-771.245 L -138.437,-771.089
 L -137.814,-771.01 L 137.814,-771.01 z
M -135.134,-971.369 L -135.4,-971.403 L -135.66,-971.469 L -135.909,-971.568 L -136.144,-971.697 L -136.361,-971.855
 L -136.557,-972.038 L -136.727,-972.245 L -136.871,-972.471 L -136.985,-972.714 L -137.068,-972.969 L -137.118,-973.232
 L -137.135,-973.5 L -137.118,-973.768 L -137.068,-974.031 L -136.985,-974.286 L -136.871,-974.529 L -136.727,-974.755
 L -136.557,-974.962 L -136.361,-975.145 L -136.144,-975.303 L -135.909,-975.432 L -135.66,-975.531 L -135.4,-975.597
 L -135.134,-975.631 L -134.866,-975.631 L -134.6,-975.597 L -134.34,-975.531 L -134.091,-975.432 L -133.856,-975.303
 L -133.639,-975.145 L -133.443,-974.962 L -133.273,-974.755 L -133.129,-974.529 L -133.015,-974.286 L -132.932,-974.031
 L -132.882,-973.768 L -132.865,-973.5 L -132.882,-973.232 L -132.932,-972.969 L -133.015,-972.714 L -133.129,-972.471
 L -133.273,-972.245 L -133.443,-972.038 L -133.639,-971.855 L -133.856,-971.697 L -134.091,-971.568 L -134.34,-971.469
 L -134.6,-971.403 L -134.866,-971.369 z
M 134.866,-971.369 L 134.6,-971.403 L 134.34,-971.469 L 134.091,-971.568 L 133.856,-971.697 L 133.639,-971.855
 L 133.443,-972.038 L 133.273,-972.245 L 133.129,-972.471 L 133.015,-972.714 L 132.932,-972.969 L 132.882,-973.232
 L 132.865,-973.5 L 132.882,-973.768 L 132.932,-974.031 L 133.015,-974.286 L 133.129,-974.529 L 133.273,-974.755
 L 133.443,-974.962 L 133.639,-975.145 L 133.856,-975.303 L 134.091,-975.432 L 134.34,-975.531 L 134.6,-975.597
 L 134.866,-975.631 L 135.134,-975.631 L 135.4,-975.597 L 135.66,-975.531 L 135.909,-975.432 L 136.144,-975.303
 L 136.361,-975.145 L 136.557,-974.962 L 136.727,-974.755 L 136.871,-974.529 L 136.985,-974.286 L 137.068,-974.031
 L 137.118,-973.768 L 137.135,-973.5 L 137.118,-973.232 L 137.068,-972.969 L 136.985,-972.714 L 136.871,-972.471
 L 136.727,-972.245 L 136.557,-972.038 L 136.361,-971.855 L 136.144,-971.697 L 135.909,-971.568 L 135.66,-971.469
 L 135.4,-971.403 L 135.134,-971.369 z
M -135.134,-776.369 L -135.4,-776.403 L -135.66,-776.469 L -135.909,-776.568 L -136.144,-776.697 L -136.361,-776.855
 L -136.557,-777.038 L -136.727,-777.245 L -136.871,-777.471 L -136.985,-777.714 L -137.068,-777.969 L -137.118,-778.232
 L -137.135,-778.5 L -137.118,-778.768 L -137.068,-779.031 L -136.985,-779.286 L -136.871,-779.529 L -136.727,-779.755
 L -136.557,-779.962 L -136.361,-780.145 L -136.144,-780.303 L -135.909,-780.432 L -135.66,-780.531 L -135.4,-780.597
 L -135.134,-780.631 L -134.866,-780.631 L -134.6,-780.597 L -134.34,-780.531 L -134.091,-780.432 L -133.856,-780.303
 L -133.639,-780.145 L -133.443,-779.962 L -133.273,-779.755 L -133.129,-779.529 L -133.015,-779.286 L -132.932,-779.031
 L -132.882,-778.768 L -132.865,-778.5 L -132.882,-778.232 L -132.932,-777.969 L -133.015,-777.714 L -133.129,-777.471
 L -133.273,-777.245 L -133.443,-777.038 L -133.639,-776.855 L -133.856,-776.697 L -134.091,-776.568 L -134.34,-776.469
 L -134.6,-776.403 L -134.866,-776.369 z
M 134.866,-776.369 L 134.6,-776.403 L 134.34,-776.469 L 134.091,-776.568 L 133.856,-776.697 L 133.639,-776.855
 L 133.443,-777.038 L 133.273,-777.245 L 133.129,-777.471 L 133.015,-777.714 L 132.932,-777.969 L 132.882,-778.232
 L 132.865,-778.5 L 132.882,-778.768 L 132.932,-779.031 L 133.015,-779.286 L 133.129,-779.529 L 133.273,-779.755
 L 133.443,-779.962 L 133.639,-780.145 L 133.856,-780.303 L 134.091,-780.432 L 134.34,-780.531 L 134.6,-780.597
 L 134.866,-780.631 L 135.134,-780.631 L 135.4,-780.597 L 135.66,-780.531 L 135.909,-780.432 L 136.144,-780.303
 L 136.361,-780.145 L 136.557,-779.962 L 136.727,-779.755 L 136.871,-779.529 L 136.985,-779.286 L 137.068,-779.031
 L 137.118,-778.768 L 137.135,-778.5 L 137.118,-778.232 L 137.068,-777.969 L 136.985,-777.714 L 136.871,-777.471
 L 136.727,-777.245 L 136.557,-777.038 L 136.361,-776.855 L 136.144,-776.697 L 135.909,-776.568 L 135.66,-776.469
 L 135.4,-776.403 L 135.134,-776.369 z
" stroke="black" fill="lightgray" stroke-width="0.5"/>
</svg>
