<?xml version="1.0" standalone="no"?>
<!DOCTYPE svg PUBLIC "-//W3C//DTD SVG 1.1//EN" "http://www.w3.org/Graphics/SVG/1.1/DTD/svg11.dtd">
<svg width="257mm" height="429mm" viewBox="-129 -762 257 429" xmlns="http://www.w3.org/2000/svg" version="1.1">
<title>OpenSCAD Model</title>
<path d="
M 123.437,-552.089 L 124.045,-552.245 L 124.629,-552.476 L 125.179,-552.778 L 125.687,-553.147 L 126.145,-553.577
 L 126.545,-554.061 L 126.882,-554.591 L 127.149,-555.159 L 127.343,-555.757 L 127.461,-556.373 L 127.5,-557
 L 127.5,-757 L 127.461,-757.627 L 127.343,-758.243 L 127.149,-758.841 L 126.882,-759.409 L 126.545,-759.939
 L 126.145,-760.423 L 125.687,-760.853 L 125.179,-761.222 L 124.629,-761.524 L 124.045,-761.755 L 123.437,-761.911
 L 122.814,-761.99 L -122.814,-761.99 L -123.437,-761.911 L -124.045,-761.755 L -124.629,-761.524 L -125.179,-761.222
 L -125.687,-760.853 L -126,-760.559 L -126,-761.979 L -129,-761.979 L -129,-552.021 L -126,-552.021
 L -126,-553.441 L -125.687,-553.147 L -125.179,-552.778 L -124.629,-552.476 L -124.045,-552.245 L -123.437,-552.089
 L -122.814,-552.01 L 122.814,-552.01 z
M -122.195,-554.393 L -122.583,-554.442 L -122.962,-554.539 L -123.325,-554.683 L -123.668,-554.872 L -123.984,-555.101
 L -124.269,-555.369 L -124.518,-555.67 L -124.728,-556 L -124.894,-556.354 L -125.015,-556.726 L -125.088,-557.11
 L -125.113,-557.5 L -125.113,-756.5 L -125.088,-756.89 L -125.015,-757.274 L -124.894,-757.646 L -124.728,-758
 L -124.518,-758.33 L -124.269,-758.631 L -123.984,-758.899 L -123.668,-759.128 L -123.325,-759.317 L -122.962,-759.461
 L -122.583,-759.558 L -122.195,-759.607 L 122.195,-759.607 L 122.583,-759.558 L 122.962,-759.461 L 123.325,-759.317
 L 123.668,-759.128 L 123.984,-758.899 L 124.269,-758.631 L 124.518,-758.33 L 124.728,-758 L 124.894,-757.646
 L 125.015,-757.274 L 125.088,-756.89 L 125.113,-756.5 L 125.113,-557.5 L 125.088,-557.11 L 125.015,-556.726
 L 124.894,-556.354 L 124.728,-556 L 124.518,-555.67 L 124.269,-555.369 L 123.984,-555.101 L 123.668,-554.872
 L 123.325,-554.683 L 122.962,-554.539 L 122.583,-554.442 L 122.195,-554.393 z
M 123.437,-333.089 L 124.045,-333.245 L 124.629,-333.476 L 125.179,-333.778 L 125.687,-334.147 L 126.145,-334.577
 L 126.545,-335.061 L 126.882,-335.591 L 127.149,-336.159 L 127.343,-336.757 L 127.461,-337.373 L 127.5,-338
 L 127.5,-538 L 127.461,-538.627 L 127.343,-539.243 L 127.149,-539.841 L 126.882,-540.409 L 126.545,-540.939
 L 126.145,-541.423 L 125.687,-541.853 L 125.179,-542.222 L 124.629,-542.524 L 124.045,-542.755 L 123.437,-542.911
 L 122.814,-542.99 L -122.814,-542.99 L -123.437,-542.911 L -124.045,-542.755 L -124.629,-542.524 L -125.179,-542.222
 L -125.687,-541.853 L -126,-541.559 L -126,-541.653 L -129,-541.653 L -129,-334.347 L -126,-334.347
 L -126,-334.441 L -125.687,-334.147 L -125.179,-333.778 L -124.629,-333.476 L -124.045,-333.245 L -123.437,-333.089
 L -122.814,-333.01 L 122.814,-333.01 z
M 119.866,-533.369 L 119.6,-533.403 L 119.34,-533.469 L 119.091,-533.568 L 118.856,-533.697 L 118.639,-533.855
 L 118.443,-534.038 L 118.273,-534.245 L 118.129,-534.471 L 118.015,-534.714 L 117.932,-534.969 L 117.882,-535.232
 L 117.865,-535.5 L 117.882,-535.768 L 117.932,-536.031 L 118.015,-536.286 L 118.129,-536.529 L 118.273,-536.755
 L 118.443,-536.962 L 118.639,-537.145 L 118.856,-537.303 L 119.091,-537.432 L 119.34,-537.531 L 119.6,-537.597
 L 119.866,-537.631 L 120.134,-537.631 L 120.4,-537.597 L 120.66,-537.531 L 120.909,-537.432 L 121.144,-537.303
 L 121.361,-537.145 L 121.557,-536.962 L 121.727,-536.755 L 121.871,-536.529 L 121.985,-536.286 L 122.068,-536.031
 L 122.118,-535.768 L 122.135,-535.5 L 122.118,-535.232 L 122.068,-534.969 L 121.985,-534.714 L 121.871,-534.471
 L 121.727,-534.245 L 121.557,-534.038 L 121.361,-533.855 L 121.144,-533.697 L 120.909,-533.568 L 120.66,-533.469
 L 120.4,-533.403 L 120.134,-533.369 z
M -120.134,-533.369 L -120.4,-533.403 L -120.66,-533.469 L -120.909,-533.568 L -121.144,-533.697 L -121.361,-533.855
 L -121.557,-534.038 L -121.727,-534.245 L -121.871,-534.471 L -121.985,-534.714 L -122.068,-534.969 L -122.118,-535.232
 L -122.135,-535.5 L -122.118,-535.768 L -122.068,-536.031 L -121.985,-536.286 L -121.871,-536.529 L -121.727,-536.755
 L -121.557,-536.962 L -121.361,-537.145 L -121.144,-537.303 L -120.909,-537.432 L -120.66,-537.531 L -120.4,-537.597
 L -120.134,-537.631 L -119.866,-537.631 L -119.6,-537.597 L -119.34,-537.531 L -119.091,-537.432 L -118.856,-537.303
 L -118.639,-537.145 L -118.443,-536.962 L -118.273,-536.755 L -118.129,-536.529 L -118.015,-536.286 L -117.932,-536.031
 L -117.882,-535.768 L -117.865,-535.5 L -117.882,-535.232 L -117.932,-534.969 L -118.015,-534.714 L -118.129,-534.471
 L -118.273,-534.245 L -118.443,-534.038 L -118.639,-533.855 L -118.856,-533.697 L -119.091,-533.568 L -119.34,-533.469
 L -119.6,-533.403 L -119.866,-533.369 z
M 119.866,-338.369 L 119.6,-338.403 L 119.34,-338.469 L 119.091,-338.568 L 118.856,-338.697 L 118.639,-338.855
 L 118.443,-339.038 L 118.273,-339.245 L 118.129,-339.471 L 118.015,-339.714 L 117.932,-339.969 L 117.882,-340.232
 L 117.865,-340.5 L 117.882,-340.768 L 117.932,-341.031 L 118.015,-341.286 L 118.129,-341.529 L 118.273,-341.755
 L 118.443,-341.962 L 118.639,-342.145 L 118.856,-342.303 L 119.091,-342.432 L 119.34,-342.531 L 119.6,-342.597
 L 119.866,-342.631 L 120.134,-342.631 L 120.4,-342.597 L 120.66,-342.531 L 120.909,-342.432 L 121.144,-342.303
 L 121.361,-342.145 L 121.557,-341.962 L 121.727,-341.755 L 121.871,-341.529 L 121.985,-341.286 L 122.068,-341.031
 L 122.118,-340.768 L 122.135,-340.5 L 122.118,-340.232 L 122.068,-339.969 L 121.985,-339.714 L 121.871,-339.471
 L 121.727,-339.245 L 121.557,-339.038 L 121.361,-338.855 L 121.144,-338.697 L 120.909,-338.568 L 120.66,-338.469
 L 120.4,-338.403 L 120.134,-338.369 z
M -120.134,-338.369 L -120.4,-338.403 L -120.66,-338.469 L -120.909,-338.568 L -121.144,-338.697 L -121.361,-338.855
 L -121.557,-339.038 L -121.727,-339.245 L -121.871,-339.471 L -121.985,-339.714 L -122.068,-339.969 L -122.118,-340.232
 L -122.135,-340.5 L -122.118,-340.768 L -122.068,-341.031 L -121.985,-341.286 L -121.871,-341.529 L -121.727,-341.755
 L -121.557,-341.962 L -121.361,-342.145 L -121.144,-342.303 L -120.909,-342.432 L -120.66,-342.531 L -120.4,-342.597
 L -120.134,-342.631 L -119.866,-342.631 L -119.6,-342.597 L -119.34,-342.531 L -119.091,-342.432 L -118.856,-342.303
 L -118.639,-342.145 L -118.443,-341.962 L -118.273,-341.755 L -118.129,-341.529 L -118.015,-341.286 L -117.932,-341.031
 L -117.882,-340.768 L -117.865,-340.5 L -117.882,-340.232 L -117.932,-339.969 L -118.015,-339.714 L -118.129,-339.471
 L -118.273,-339.245 L -118.443,-339.038 L -118.639,-338.855 L -118.856,-338.697 L -119.091,-338.568 L -119.34,-338.469
 L -119.6,-338.403 L -119.866,-338.369 z
" stroke="black" fill="lightgray" stroke-width="0.5"/>
</svg>
