solid OpenSCAD_Model
  facet normal -0.998026 -0.0627975 0
    outer loop
      vertex 3.25 0 0
      vertex 3.22437 0.407332 3
      vertex 3.22437 0.407332 0
    endloop
  endfacet
  facet normal -0.998026 -0.0627975 0
    outer loop
      vertex 3.22437 0.407332 3
      vertex 3.25 0 0
      vertex 3.25 0 3
    endloop
  endfacet
  facet normal 0.998026 -0.0627975 0
    outer loop
      vertex -3.25 0 3
      vertex -3.22437 0.407332 0
      vertex -3.22437 0.407332 3
    endloop
  endfacet
  facet normal 0.998026 -0.0627975 0
    outer loop
      vertex -3.22437 0.407332 0
      vertex -3.25 0 3
      vertex -3.25 0 0
    endloop
  endfacet
  facet normal 0 -1 0
    outer loop
      vertex -0.204069 3.24359 0
      vertex 0.204069 3.24359 3
      vertex -0.204069 3.24359 3
    endloop
  endfacet
  facet normal 0 -1 -0
    outer loop
      vertex 0.204069 3.24359 3
      vertex -0.204069 3.24359 0
      vertex 0.204069 3.24359 0
    endloop
  endfacet
  facet normal 0 1 -0
    outer loop
      vertex 0.204069 -3.24359 0
      vertex -0.204069 -3.24359 3
      vertex 0.204069 -3.24359 3
    endloop
  endfacet
  facet normal 0 1 0
    outer loop
      vertex -0.204069 -3.24359 3
      vertex 0.204069 -3.24359 0
      vertex -0.204069 -3.24359 0
    endloop
  endfacet
  facet normal -0.684547 -0.728968 0
    outer loop
      vertex 2.07163 2.50417 0
      vertex 2.36915 2.22478 3
      vertex 2.07163 2.50417 3
    endloop
  endfacet
  facet normal -0.684547 -0.728968 -0
    outer loop
      vertex 2.36915 2.22478 3
      vertex 2.07163 2.50417 0
      vertex 2.36915 2.22478 0
    endloop
  endfacet
  facet normal 0.684547 -0.728968 0
    outer loop
      vertex -2.36915 2.22478 0
      vertex -2.07163 2.50417 3
      vertex -2.36915 2.22478 3
    endloop
  endfacet
  facet normal 0.684547 -0.728968 0
    outer loop
      vertex -2.07163 2.50417 3
      vertex -2.36915 2.22478 0
      vertex -2.07163 2.50417 0
    endloop
  endfacet
  facet normal 0.36811 -0.929782 0
    outer loop
      vertex -1.38378 2.94069 0
      vertex -1.0043 3.09093 3
      vertex -1.38378 2.94069 3
    endloop
  endfacet
  facet normal 0.36811 -0.929782 0
    outer loop
      vertex -1.0043 3.09093 3
      vertex -1.38378 2.94069 0
      vertex -1.0043 3.09093 0
    endloop
  endfacet
  facet normal -0.904836 -0.42576 0
    outer loop
      vertex 3.02177 1.1964 0
      vertex 2.848 1.5657 3
      vertex 2.848 1.5657 0
    endloop
  endfacet
  facet normal -0.904836 -0.42576 0
    outer loop
      vertex 2.848 1.5657 3
      vertex 3.02177 1.1964 0
      vertex 3.02177 1.1964 3
    endloop
  endfacet
  facet normal -0.844317 -0.535845 0
    outer loop
      vertex 2.848 1.5657 0
      vertex 2.6293 1.9103 3
      vertex 2.6293 1.9103 0
    endloop
  endfacet
  facet normal -0.844317 -0.535845 0
    outer loop
      vertex 2.6293 1.9103 3
      vertex 2.848 1.5657 0
      vertex 2.848 1.5657 3
    endloop
  endfacet
  facet normal -0.36811 -0.929782 0
    outer loop
      vertex 1.0043 3.09093 0
      vertex 1.38378 2.94069 3
      vertex 1.0043 3.09093 3
    endloop
  endfacet
  facet normal -0.36811 -0.929782 -0
    outer loop
      vertex 1.38378 2.94069 3
      vertex 1.0043 3.09093 0
      vertex 1.38378 2.94069 0
    endloop
  endfacet
  facet normal -0.248693 -0.968582 0
    outer loop
      vertex 0.608989 3.19243 0
      vertex 1.0043 3.09093 3
      vertex 0.608989 3.19243 3
    endloop
  endfacet
  facet normal -0.248693 -0.968582 -0
    outer loop
      vertex 1.0043 3.09093 3
      vertex 0.608989 3.19243 0
      vertex 1.0043 3.09093 0
    endloop
  endfacet
  facet normal -0.58779 -0.809014 0
    outer loop
      vertex 1.74144 2.74407 0
      vertex 2.07163 2.50417 3
      vertex 1.74144 2.74407 3
    endloop
  endfacet
  facet normal -0.58779 -0.809014 -0
    outer loop
      vertex 2.07163 2.50417 3
      vertex 1.74144 2.74407 0
      vertex 2.07163 2.50417 0
    endloop
  endfacet
  facet normal 0.904836 -0.42576 0
    outer loop
      vertex -3.02177 1.1964 3
      vertex -2.848 1.5657 0
      vertex -2.848 1.5657 3
    endloop
  endfacet
  facet normal 0.904836 -0.42576 0
    outer loop
      vertex -2.848 1.5657 0
      vertex -3.02177 1.1964 3
      vertex -3.02177 1.1964 0
    endloop
  endfacet
  facet normal 0.770526 -0.637409 0
    outer loop
      vertex -2.6293 1.9103 3
      vertex -2.36915 2.22478 0
      vertex -2.36915 2.22478 3
    endloop
  endfacet
  facet normal 0.770526 -0.637409 0
    outer loop
      vertex -2.36915 2.22478 0
      vertex -2.6293 1.9103 3
      vertex -2.6293 1.9103 0
    endloop
  endfacet
  facet normal 0.951057 -0.309017 0
    outer loop
      vertex -3.14789 0.808242 3
      vertex -3.02177 1.1964 0
      vertex -3.02177 1.1964 3
    endloop
  endfacet
  facet normal 0.951057 -0.309017 0
    outer loop
      vertex -3.02177 1.1964 0
      vertex -3.14789 0.808242 3
      vertex -3.14789 0.808242 0
    endloop
  endfacet
  facet normal 0.481744 -0.876312 0
    outer loop
      vertex -1.74144 2.74407 0
      vertex -1.38378 2.94069 3
      vertex -1.74144 2.74407 3
    endloop
  endfacet
  facet normal 0.481744 -0.876312 0
    outer loop
      vertex -1.38378 2.94069 3
      vertex -1.74144 2.74407 0
      vertex -1.38378 2.94069 0
    endloop
  endfacet
  facet normal 0.125349 -0.992113 0
    outer loop
      vertex -0.608989 3.19243 0
      vertex -0.204069 3.24359 3
      vertex -0.608989 3.19243 3
    endloop
  endfacet
  facet normal 0.125349 -0.992113 0
    outer loop
      vertex -0.204069 3.24359 3
      vertex -0.608989 3.19243 0
      vertex -0.204069 3.24359 0
    endloop
  endfacet
  facet normal -0.125349 0.992113 0
    outer loop
      vertex 0.608989 -3.19243 0
      vertex 0.204069 -3.24359 3
      vertex 0.608989 -3.19243 3
    endloop
  endfacet
  facet normal -0.125349 0.992113 0
    outer loop
      vertex 0.204069 -3.24359 3
      vertex 0.608989 -3.19243 0
      vertex 0.204069 -3.24359 0
    endloop
  endfacet
  facet normal -0.481744 0.876312 0
    outer loop
      vertex 1.74144 -2.74407 0
      vertex 1.38378 -2.94069 3
      vertex 1.74144 -2.74407 3
    endloop
  endfacet
  facet normal -0.481744 0.876312 0
    outer loop
      vertex 1.38378 -2.94069 3
      vertex 1.74144 -2.74407 0
      vertex 1.38378 -2.94069 0
    endloop
  endfacet
  facet normal -0.951057 -0.309017 0
    outer loop
      vertex 3.14789 0.808242 0
      vertex 3.02177 1.1964 3
      vertex 3.02177 1.1964 0
    endloop
  endfacet
  facet normal -0.951057 -0.309017 0
    outer loop
      vertex 3.02177 1.1964 3
      vertex 3.14789 0.808242 0
      vertex 3.14789 0.808242 3
    endloop
  endfacet
  facet normal -0.982286 -0.187387 0
    outer loop
      vertex 3.22437 0.407332 0
      vertex 3.14789 0.808242 3
      vertex 3.14789 0.808242 0
    endloop
  endfacet
  facet normal -0.982286 -0.187387 0
    outer loop
      vertex 3.14789 0.808242 3
      vertex 3.22437 0.407332 0
      vertex 3.22437 0.407332 3
    endloop
  endfacet
  facet normal -0.770526 -0.637409 0
    outer loop
      vertex 2.6293 1.9103 0
      vertex 2.36915 2.22478 3
      vertex 2.36915 2.22478 0
    endloop
  endfacet
  facet normal -0.770526 -0.637409 0
    outer loop
      vertex 2.36915 2.22478 3
      vertex 2.6293 1.9103 0
      vertex 2.6293 1.9103 3
    endloop
  endfacet
  facet normal -0.125349 -0.992113 0
    outer loop
      vertex 0.204069 3.24359 0
      vertex 0.608989 3.19243 3
      vertex 0.204069 3.24359 3
    endloop
  endfacet
  facet normal -0.125349 -0.992113 -0
    outer loop
      vertex 0.608989 3.19243 3
      vertex 0.204069 3.24359 0
      vertex 0.608989 3.19243 0
    endloop
  endfacet
  facet normal -0.481744 -0.876312 0
    outer loop
      vertex 1.38378 2.94069 0
      vertex 1.74144 2.74407 3
      vertex 1.38378 2.94069 3
    endloop
  endfacet
  facet normal -0.481744 -0.876312 -0
    outer loop
      vertex 1.74144 2.74407 3
      vertex 1.38378 2.94069 0
      vertex 1.74144 2.74407 0
    endloop
  endfacet
  facet normal 0.844317 -0.535845 0
    outer loop
      vertex -2.848 1.5657 3
      vertex -2.6293 1.9103 0
      vertex -2.6293 1.9103 3
    endloop
  endfacet
  facet normal 0.844317 -0.535845 0
    outer loop
      vertex -2.6293 1.9103 0
      vertex -2.848 1.5657 3
      vertex -2.848 1.5657 0
    endloop
  endfacet
  facet normal 0.982286 -0.187387 0
    outer loop
      vertex -3.22437 0.407332 3
      vertex -3.14789 0.808242 0
      vertex -3.14789 0.808242 3
    endloop
  endfacet
  facet normal 0.982286 -0.187387 0
    outer loop
      vertex -3.14789 0.808242 0
      vertex -3.22437 0.407332 3
      vertex -3.22437 0.407332 0
    endloop
  endfacet
  facet normal 0.58779 -0.809014 0
    outer loop
      vertex -2.07163 2.50417 0
      vertex -1.74144 2.74407 3
      vertex -2.07163 2.50417 3
    endloop
  endfacet
  facet normal 0.58779 -0.809014 0
    outer loop
      vertex -1.74144 2.74407 3
      vertex -2.07163 2.50417 0
      vertex -1.74144 2.74407 0
    endloop
  endfacet
  facet normal 0.248693 -0.968582 0
    outer loop
      vertex -1.0043 3.09093 0
      vertex -0.608989 3.19243 3
      vertex -1.0043 3.09093 3
    endloop
  endfacet
  facet normal 0.248693 -0.968582 0
    outer loop
      vertex -0.608989 3.19243 3
      vertex -1.0043 3.09093 0
      vertex -0.608989 3.19243 0
    endloop
  endfacet
  facet normal -0.998026 0.0627975 0
    outer loop
      vertex 3.22437 -0.407332 0
      vertex 3.25 0 3
      vertex 3.25 0 0
    endloop
  endfacet
  facet normal -0.998026 0.0627975 0
    outer loop
      vertex 3.25 0 3
      vertex 3.22437 -0.407332 0
      vertex 3.22437 -0.407332 3
    endloop
  endfacet
  facet normal -0.951057 0.309017 0
    outer loop
      vertex 3.02177 -1.1964 0
      vertex 3.14789 -0.808242 3
      vertex 3.14789 -0.808242 0
    endloop
  endfacet
  facet normal -0.951057 0.309017 0
    outer loop
      vertex 3.14789 -0.808242 3
      vertex 3.02177 -1.1964 0
      vertex 3.02177 -1.1964 3
    endloop
  endfacet
  facet normal -0.982286 0.187387 0
    outer loop
      vertex 3.14789 -0.808242 0
      vertex 3.22437 -0.407332 3
      vertex 3.22437 -0.407332 0
    endloop
  endfacet
  facet normal -0.982286 0.187387 0
    outer loop
      vertex 3.22437 -0.407332 3
      vertex 3.14789 -0.808242 0
      vertex 3.14789 -0.808242 3
    endloop
  endfacet
  facet normal 0.904836 0.42576 0
    outer loop
      vertex -2.848 -1.5657 3
      vertex -3.02177 -1.1964 0
      vertex -3.02177 -1.1964 3
    endloop
  endfacet
  facet normal 0.904836 0.42576 0
    outer loop
      vertex -3.02177 -1.1964 0
      vertex -2.848 -1.5657 3
      vertex -2.848 -1.5657 0
    endloop
  endfacet
  facet normal -0.58779 0.809014 0
    outer loop
      vertex 2.07163 -2.50417 0
      vertex 1.74144 -2.74407 3
      vertex 2.07163 -2.50417 3
    endloop
  endfacet
  facet normal -0.58779 0.809014 0
    outer loop
      vertex 1.74144 -2.74407 3
      vertex 2.07163 -2.50417 0
      vertex 1.74144 -2.74407 0
    endloop
  endfacet
  facet normal 0.951057 0.309017 0
    outer loop
      vertex -3.02177 -1.1964 3
      vertex -3.14789 -0.808242 0
      vertex -3.14789 -0.808242 3
    endloop
  endfacet
  facet normal 0.951057 0.309017 0
    outer loop
      vertex -3.14789 -0.808242 0
      vertex -3.02177 -1.1964 3
      vertex -3.02177 -1.1964 0
    endloop
  endfacet
  facet normal -0.684547 0.728968 0
    outer loop
      vertex 2.36915 -2.22478 0
      vertex 2.07163 -2.50417 3
      vertex 2.36915 -2.22478 3
    endloop
  endfacet
  facet normal -0.684547 0.728968 0
    outer loop
      vertex 2.07163 -2.50417 3
      vertex 2.36915 -2.22478 0
      vertex 2.07163 -2.50417 0
    endloop
  endfacet
  facet normal -0.248693 0.968582 0
    outer loop
      vertex 1.0043 -3.09093 0
      vertex 0.608989 -3.19243 3
      vertex 1.0043 -3.09093 3
    endloop
  endfacet
  facet normal -0.248693 0.968582 0
    outer loop
      vertex 0.608989 -3.19243 3
      vertex 1.0043 -3.09093 0
      vertex 0.608989 -3.19243 0
    endloop
  endfacet
  facet normal -0.36811 0.929782 0
    outer loop
      vertex 1.38378 -2.94069 0
      vertex 1.0043 -3.09093 3
      vertex 1.38378 -2.94069 3
    endloop
  endfacet
  facet normal -0.36811 0.929782 0
    outer loop
      vertex 1.0043 -3.09093 3
      vertex 1.38378 -2.94069 0
      vertex 1.0043 -3.09093 0
    endloop
  endfacet
  facet normal -0.904836 0.42576 0
    outer loop
      vertex 2.848 -1.5657 0
      vertex 3.02177 -1.1964 3
      vertex 3.02177 -1.1964 0
    endloop
  endfacet
  facet normal -0.904836 0.42576 0
    outer loop
      vertex 3.02177 -1.1964 3
      vertex 2.848 -1.5657 0
      vertex 2.848 -1.5657 3
    endloop
  endfacet
  facet normal -0.844317 0.535845 0
    outer loop
      vertex 2.6293 -1.9103 0
      vertex 2.848 -1.5657 3
      vertex 2.848 -1.5657 0
    endloop
  endfacet
  facet normal -0.844317 0.535845 0
    outer loop
      vertex 2.848 -1.5657 3
      vertex 2.6293 -1.9103 0
      vertex 2.6293 -1.9103 3
    endloop
  endfacet
  facet normal 0.125349 0.992113 -0
    outer loop
      vertex -0.204069 -3.24359 0
      vertex -0.608989 -3.19243 3
      vertex -0.204069 -3.24359 3
    endloop
  endfacet
  facet normal 0.125349 0.992113 0
    outer loop
      vertex -0.608989 -3.19243 3
      vertex -0.204069 -3.24359 0
      vertex -0.608989 -3.19243 0
    endloop
  endfacet
  facet normal 0.36811 0.929782 -0
    outer loop
      vertex -1.0043 -3.09093 0
      vertex -1.38378 -2.94069 3
      vertex -1.0043 -3.09093 3
    endloop
  endfacet
  facet normal 0.36811 0.929782 0
    outer loop
      vertex -1.38378 -2.94069 3
      vertex -1.0043 -3.09093 0
      vertex -1.38378 -2.94069 0
    endloop
  endfacet
  facet normal 0.248693 0.968582 -0
    outer loop
      vertex -0.608989 -3.19243 0
      vertex -1.0043 -3.09093 3
      vertex -0.608989 -3.19243 3
    endloop
  endfacet
  facet normal 0.248693 0.968582 0
    outer loop
      vertex -1.0043 -3.09093 3
      vertex -0.608989 -3.19243 0
      vertex -1.0043 -3.09093 0
    endloop
  endfacet
  facet normal 0.770526 0.637409 0
    outer loop
      vertex -2.36915 -2.22478 3
      vertex -2.6293 -1.9103 0
      vertex -2.6293 -1.9103 3
    endloop
  endfacet
  facet normal 0.770526 0.637409 0
    outer loop
      vertex -2.6293 -1.9103 0
      vertex -2.36915 -2.22478 3
      vertex -2.36915 -2.22478 0
    endloop
  endfacet
  facet normal 0.684547 0.728968 -0
    outer loop
      vertex -2.07163 -2.50417 0
      vertex -2.36915 -2.22478 3
      vertex -2.07163 -2.50417 3
    endloop
  endfacet
  facet normal 0.684547 0.728968 0
    outer loop
      vertex -2.36915 -2.22478 3
      vertex -2.07163 -2.50417 0
      vertex -2.36915 -2.22478 0
    endloop
  endfacet
  facet normal 0.982286 0.187387 0
    outer loop
      vertex -3.14789 -0.808242 3
      vertex -3.22437 -0.407332 0
      vertex -3.22437 -0.407332 3
    endloop
  endfacet
  facet normal 0.982286 0.187387 0
    outer loop
      vertex -3.22437 -0.407332 0
      vertex -3.14789 -0.808242 3
      vertex -3.14789 -0.808242 0
    endloop
  endfacet
  facet normal 0.998026 0.0627975 0
    outer loop
      vertex -3.22437 -0.407332 3
      vertex -3.25 0 0
      vertex -3.25 0 3
    endloop
  endfacet
  facet normal 0.998026 0.0627975 0
    outer loop
      vertex -3.25 0 0
      vertex -3.22437 -0.407332 3
      vertex -3.22437 -0.407332 0
    endloop
  endfacet
  facet normal -0.770526 0.637409 0
    outer loop
      vertex 2.36915 -2.22478 0
      vertex 2.6293 -1.9103 3
      vertex 2.6293 -1.9103 0
    endloop
  endfacet
  facet normal -0.770526 0.637409 0
    outer loop
      vertex 2.6293 -1.9103 3
      vertex 2.36915 -2.22478 0
      vertex 2.36915 -2.22478 3
    endloop
  endfacet
  facet normal 0.481744 0.876312 -0
    outer loop
      vertex -1.38378 -2.94069 0
      vertex -1.74144 -2.74407 3
      vertex -1.38378 -2.94069 3
    endloop
  endfacet
  facet normal 0.481744 0.876312 0
    outer loop
      vertex -1.74144 -2.74407 3
      vertex -1.38378 -2.94069 0
      vertex -1.74144 -2.74407 0
    endloop
  endfacet
  facet normal 0.58779 0.809014 -0
    outer loop
      vertex -1.74144 -2.74407 0
      vertex -2.07163 -2.50417 3
      vertex -1.74144 -2.74407 3
    endloop
  endfacet
  facet normal 0.58779 0.809014 0
    outer loop
      vertex -2.07163 -2.50417 3
      vertex -1.74144 -2.74407 0
      vertex -2.07163 -2.50417 0
    endloop
  endfacet
  facet normal 0.844317 0.535845 0
    outer loop
      vertex -2.6293 -1.9103 3
      vertex -2.848 -1.5657 0
      vertex -2.848 -1.5657 3
    endloop
  endfacet
  facet normal 0.844317 0.535845 0
    outer loop
      vertex -2.848 -1.5657 0
      vertex -2.6293 -1.9103 3
      vertex -2.6293 -1.9103 0
    endloop
  endfacet
  facet normal 0.904827 0.42578 0
    outer loop
      vertex 9.9951 3.95734 3
      vertex 9.4203 5.17885 0
      vertex 9.4203 5.17885 3
    endloop
  endfacet
  facet normal 0.904827 0.42578 0
    outer loop
      vertex 9.4203 5.17885 0
      vertex 9.9951 3.95734 3
      vertex 9.9951 3.95734 0
    endloop
  endfacet
  facet normal 0.844326 0.53583 0
    outer loop
      vertex 9.4203 5.17885 3
      vertex 8.69693 6.31869 0
      vertex 8.69693 6.31869 3
    endloop
  endfacet
  facet normal 0.844326 0.53583 0
    outer loop
      vertex 8.69693 6.31869 0
      vertex 9.4203 5.17885 3
      vertex 9.4203 5.17885 0
    endloop
  endfacet
  facet normal 0.368151 0.929766 -0
    outer loop
      vertex 4.57713 9.72689 0
      vertex 3.32193 10.2239 3
      vertex 4.57713 9.72689 3
    endloop
  endfacet
  facet normal 0.368151 0.929766 0
    outer loop
      vertex 3.32193 10.2239 3
      vertex 4.57713 9.72689 0
      vertex 3.32193 10.2239 0
    endloop
  endfacet
  facet normal -0.368151 0.929766 0
    outer loop
      vertex -3.32193 10.2239 0
      vertex -4.57713 9.72689 3
      vertex -3.32193 10.2239 3
    endloop
  endfacet
  facet normal -0.368151 0.929766 0
    outer loop
      vertex -4.57713 9.72689 3
      vertex -3.32193 10.2239 0
      vertex -4.57713 9.72689 0
    endloop
  endfacet
  facet normal -0.904827 0.42578 0
    outer loop
      vertex -9.9951 3.95734 0
      vertex -9.4203 5.17885 3
      vertex -9.4203 5.17885 0
    endloop
  endfacet
  facet normal -0.904827 0.42578 0
    outer loop
      vertex -9.4203 5.17885 3
      vertex -9.9951 3.95734 0
      vertex -9.9951 3.95734 3
    endloop
  endfacet
  facet normal 0.998025 -0.062815 0
    outer loop
      vertex 10.6652 -1.34733 3
      vertex 10.75 0 0
      vertex 10.75 0 3
    endloop
  endfacet
  facet normal 0.998025 -0.062815 0
    outer loop
      vertex 10.75 0 0
      vertex 10.6652 -1.34733 3
      vertex 10.6652 -1.34733 0
    endloop
  endfacet
  facet normal 0.68455 0.728965 -0
    outer loop
      vertex 7.83641 7.35888 0
      vertex 6.85231 8.28302 3
      vertex 7.83641 7.35888 3
    endloop
  endfacet
  facet normal 0.68455 0.728965 0
    outer loop
      vertex 6.85231 8.28302 3
      vertex 7.83641 7.35888 0
      vertex 6.85231 8.28302 0
    endloop
  endfacet
  facet normal 0.125334 0.992115 -0
    outer loop
      vertex 2.01435 10.5596 0
      vertex 0.674997 10.7288 3
      vertex 2.01435 10.5596 3
    endloop
  endfacet
  facet normal 0.125334 0.992115 0
    outer loop
      vertex 0.674997 10.7288 3
      vertex 2.01435 10.5596 0
      vertex 0.674997 10.7288 0
    endloop
  endfacet
  facet normal 0.481756 0.876305 -0
    outer loop
      vertex 5.76014 9.07652 0
      vertex 4.57713 9.72689 3
      vertex 5.76014 9.07652 3
    endloop
  endfacet
  facet normal 0.481756 0.876305 0
    outer loop
      vertex 4.57713 9.72689 3
      vertex 5.76014 9.07652 0
      vertex 4.57713 9.72689 0
    endloop
  endfacet
  facet normal -0.982296 0.187335 0
    outer loop
      vertex -10.6652 1.34733 0
      vertex -10.4123 2.67342 3
      vertex -10.4123 2.67342 0
    endloop
  endfacet
  facet normal -0.982296 0.187335 0
    outer loop
      vertex -10.4123 2.67342 3
      vertex -10.6652 1.34733 0
      vertex -10.6652 1.34733 3
    endloop
  endfacet
  facet normal -0.770513 0.637424 0
    outer loop
      vertex -8.69693 6.31869 0
      vertex -7.83641 7.35888 3
      vertex -7.83641 7.35888 0
    endloop
  endfacet
  facet normal -0.770513 0.637424 0
    outer loop
      vertex -7.83641 7.35888 3
      vertex -8.69693 6.31869 0
      vertex -8.69693 6.31869 3
    endloop
  endfacet
  facet normal -0.125334 0.992115 0
    outer loop
      vertex -0.674997 10.7288 0
      vertex -2.01435 10.5596 3
      vertex -0.674997 10.7288 3
    endloop
  endfacet
  facet normal -0.125334 0.992115 0
    outer loop
      vertex -2.01435 10.5596 3
      vertex -0.674997 10.7288 0
      vertex -2.01435 10.5596 0
    endloop
  endfacet
  facet normal -0.68455 0.728965 0
    outer loop
      vertex -6.85231 8.28302 0
      vertex -7.83641 7.35888 3
      vertex -6.85231 8.28302 3
    endloop
  endfacet
  facet normal -0.68455 0.728965 0
    outer loop
      vertex -7.83641 7.35888 3
      vertex -6.85231 8.28302 0
      vertex -7.83641 7.35888 0
    endloop
  endfacet
  facet normal 0.904827 -0.42578 0
    outer loop
      vertex 9.4203 -5.17885 3
      vertex 9.9951 -3.95734 0
      vertex 9.9951 -3.95734 3
    endloop
  endfacet
  facet normal 0.904827 -0.42578 0
    outer loop
      vertex 9.9951 -3.95734 0
      vertex 9.4203 -5.17885 3
      vertex 9.4203 -5.17885 0
    endloop
  endfacet
  facet normal -0.68455 -0.728965 0
    outer loop
      vertex -7.83641 -7.35888 0
      vertex -6.85231 -8.28302 3
      vertex -7.83641 -7.35888 3
    endloop
  endfacet
  facet normal -0.68455 -0.728965 -0
    outer loop
      vertex -6.85231 -8.28302 3
      vertex -7.83641 -7.35888 0
      vertex -6.85231 -8.28302 0
    endloop
  endfacet
  facet normal -0.904827 -0.42578 0
    outer loop
      vertex -9.4203 -5.17885 0
      vertex -9.9951 -3.95734 3
      vertex -9.9951 -3.95734 0
    endloop
  endfacet
  facet normal -0.904827 -0.42578 0
    outer loop
      vertex -9.9951 -3.95734 3
      vertex -9.4203 -5.17885 0
      vertex -9.4203 -5.17885 3
    endloop
  endfacet
  facet normal 0.481756 -0.876305 0
    outer loop
      vertex 4.57713 -9.72689 0
      vertex 5.76014 -9.07652 3
      vertex 4.57713 -9.72689 3
    endloop
  endfacet
  facet normal 0.481756 -0.876305 0
    outer loop
      vertex 5.76014 -9.07652 3
      vertex 4.57713 -9.72689 0
      vertex 5.76014 -9.07652 0
    endloop
  endfacet
  facet normal 0.982296 0.187335 0
    outer loop
      vertex 10.6652 1.34733 3
      vertex 10.4123 2.67342 0
      vertex 10.4123 2.67342 3
    endloop
  endfacet
  facet normal 0.982296 0.187335 0
    outer loop
      vertex 10.4123 2.67342 0
      vertex 10.6652 1.34733 3
      vertex 10.6652 1.34733 0
    endloop
  endfacet
  facet normal 0.95105 0.309036 0
    outer loop
      vertex 10.4123 2.67342 3
      vertex 9.9951 3.95734 0
      vertex 9.9951 3.95734 3
    endloop
  endfacet
  facet normal 0.95105 0.309036 0
    outer loop
      vertex 9.9951 3.95734 0
      vertex 10.4123 2.67342 3
      vertex 10.4123 2.67342 0
    endloop
  endfacet
  facet normal 0.770513 0.637424 0
    outer loop
      vertex 8.69693 6.31869 3
      vertex 7.83641 7.35888 0
      vertex 7.83641 7.35888 3
    endloop
  endfacet
  facet normal 0.770513 0.637424 0
    outer loop
      vertex 7.83641 7.35888 0
      vertex 8.69693 6.31869 3
      vertex 8.69693 6.31869 0
    endloop
  endfacet
  facet normal 0 1 -0
    outer loop
      vertex 0.674997 10.7288 0
      vertex -0.674997 10.7288 3
      vertex 0.674997 10.7288 3
    endloop
  endfacet
  facet normal 0 1 0
    outer loop
      vertex -0.674997 10.7288 3
      vertex 0.674997 10.7288 0
      vertex -0.674997 10.7288 0
    endloop
  endfacet
  facet normal 0.248669 0.968588 -0
    outer loop
      vertex 3.32193 10.2239 0
      vertex 2.01435 10.5596 3
      vertex 3.32193 10.2239 3
    endloop
  endfacet
  facet normal 0.248669 0.968588 0
    outer loop
      vertex 2.01435 10.5596 3
      vertex 3.32193 10.2239 0
      vertex 2.01435 10.5596 0
    endloop
  endfacet
  facet normal 0.587781 0.80902 -0
    outer loop
      vertex 6.85231 8.28302 0
      vertex 5.76014 9.07652 3
      vertex 6.85231 8.28302 3
    endloop
  endfacet
  facet normal 0.587781 0.80902 0
    outer loop
      vertex 5.76014 9.07652 3
      vertex 6.85231 8.28302 0
      vertex 5.76014 9.07652 0
    endloop
  endfacet
  facet normal -0.998025 0.062815 0
    outer loop
      vertex -10.75 0 0
      vertex -10.6652 1.34733 3
      vertex -10.6652 1.34733 0
    endloop
  endfacet
  facet normal -0.998025 0.062815 0
    outer loop
      vertex -10.6652 1.34733 3
      vertex -10.75 0 0
      vertex -10.75 0 3
    endloop
  endfacet
  facet normal 0 0 1
    outer loop
      vertex 3.25 0 3
      vertex 10.75 0 3
      vertex 10.6652 1.34733 3
    endloop
  endfacet
  facet normal 0 0 1
    outer loop
      vertex 3.22437 0.407332 3
      vertex 10.6652 1.34733 3
      vertex 10.4123 2.67342 3
    endloop
  endfacet
  facet normal 0 0 1
    outer loop
      vertex 10.75 0 3
      vertex 3.25 0 3
      vertex 10.6652 -1.34733 3
    endloop
  endfacet
  facet normal 0 0 1
    outer loop
      vertex 3.14789 0.808242 3
      vertex 10.4123 2.67342 3
      vertex 9.9951 3.95734 3
    endloop
  endfacet
  facet normal -0 0 1
    outer loop
      vertex 3.22437 -0.407332 3
      vertex 10.6652 -1.34733 3
      vertex 3.25 0 3
    endloop
  endfacet
  facet normal 0 0 1
    outer loop
      vertex 3.02177 1.1964 3
      vertex 9.9951 3.95734 3
      vertex 9.4203 5.17885 3
    endloop
  endfacet
  facet normal 0 0 1
    outer loop
      vertex 10.6652 -1.34733 3
      vertex 3.22437 -0.407332 3
      vertex 10.4123 -2.67342 3
    endloop
  endfacet
  facet normal 0 0 1
    outer loop
      vertex 2.848 1.5657 3
      vertex 9.4203 5.17885 3
      vertex 8.69693 6.31869 3
    endloop
  endfacet
  facet normal -0 0 1
    outer loop
      vertex 3.14789 -0.808242 3
      vertex 10.4123 -2.67342 3
      vertex 3.22437 -0.407332 3
    endloop
  endfacet
  facet normal 0 0 1
    outer loop
      vertex 2.6293 1.9103 3
      vertex 8.69693 6.31869 3
      vertex 7.83641 7.35888 3
    endloop
  endfacet
  facet normal 0 0 1
    outer loop
      vertex 10.4123 -2.67342 3
      vertex 3.14789 -0.808242 3
      vertex 9.9951 -3.95734 3
    endloop
  endfacet
  facet normal 0 0 1
    outer loop
      vertex 2.36915 2.22478 3
      vertex 7.83641 7.35888 3
      vertex 6.85231 8.28302 3
    endloop
  endfacet
  facet normal -0 0 1
    outer loop
      vertex 3.02177 -1.1964 3
      vertex 9.9951 -3.95734 3
      vertex 3.14789 -0.808242 3
    endloop
  endfacet
  facet normal 0 0 1
    outer loop
      vertex 2.07163 2.50417 3
      vertex 6.85231 8.28302 3
      vertex 5.76014 9.07652 3
    endloop
  endfacet
  facet normal 0 0 1
    outer loop
      vertex 9.9951 -3.95734 3
      vertex 3.02177 -1.1964 3
      vertex 9.4203 -5.17885 3
    endloop
  endfacet
  facet normal 0 0 1
    outer loop
      vertex 1.74144 2.74407 3
      vertex 5.76014 9.07652 3
      vertex 4.57713 9.72689 3
    endloop
  endfacet
  facet normal -0 0 1
    outer loop
      vertex 2.848 -1.5657 3
      vertex 9.4203 -5.17885 3
      vertex 3.02177 -1.1964 3
    endloop
  endfacet
  facet normal 0 0 1
    outer loop
      vertex 1.38378 2.94069 3
      vertex 4.57713 9.72689 3
      vertex 3.32193 10.2239 3
    endloop
  endfacet
  facet normal 0 0 1
    outer loop
      vertex 9.4203 -5.17885 3
      vertex 2.848 -1.5657 3
      vertex 8.69693 -6.31869 3
    endloop
  endfacet
  facet normal -0 0 1
    outer loop
      vertex 2.6293 -1.9103 3
      vertex 8.69693 -6.31869 3
      vertex 2.848 -1.5657 3
    endloop
  endfacet
  facet normal 0 0 1
    outer loop
      vertex 10.6652 1.34733 3
      vertex 3.22437 0.407332 3
      vertex 3.25 0 3
    endloop
  endfacet
  facet normal 0 0 1
    outer loop
      vertex 10.4123 2.67342 3
      vertex 3.14789 0.808242 3
      vertex 3.22437 0.407332 3
    endloop
  endfacet
  facet normal 0 0 1
    outer loop
      vertex 9.9951 3.95734 3
      vertex 3.02177 1.1964 3
      vertex 3.14789 0.808242 3
    endloop
  endfacet
  facet normal 0 0 1
    outer loop
      vertex 9.4203 5.17885 3
      vertex 2.848 1.5657 3
      vertex 3.02177 1.1964 3
    endloop
  endfacet
  facet normal 0 0 1
    outer loop
      vertex 8.69693 6.31869 3
      vertex 2.6293 1.9103 3
      vertex 2.848 1.5657 3
    endloop
  endfacet
  facet normal 0 0 1
    outer loop
      vertex 7.83641 7.35888 3
      vertex 2.36915 2.22478 3
      vertex 2.6293 1.9103 3
    endloop
  endfacet
  facet normal 0 0 1
    outer loop
      vertex 6.85231 8.28302 3
      vertex 2.07163 2.50417 3
      vertex 2.36915 2.22478 3
    endloop
  endfacet
  facet normal 0 0 1
    outer loop
      vertex 1.0043 3.09093 3
      vertex 3.32193 10.2239 3
      vertex 2.01435 10.5596 3
    endloop
  endfacet
  facet normal 0 0 1
    outer loop
      vertex 5.76014 9.07652 3
      vertex 1.74144 2.74407 3
      vertex 2.07163 2.50417 3
    endloop
  endfacet
  facet normal 0 0 1
    outer loop
      vertex 4.57713 9.72689 3
      vertex 1.38378 2.94069 3
      vertex 1.74144 2.74407 3
    endloop
  endfacet
  facet normal 0 0 1
    outer loop
      vertex 3.32193 10.2239 3
      vertex 1.0043 3.09093 3
      vertex 1.38378 2.94069 3
    endloop
  endfacet
  facet normal 0 0 1
    outer loop
      vertex 0.608989 3.19243 3
      vertex 2.01435 10.5596 3
      vertex 0.674997 10.7288 3
    endloop
  endfacet
  facet normal 0 0 1
    outer loop
      vertex 2.01435 10.5596 3
      vertex 0.608989 3.19243 3
      vertex 1.0043 3.09093 3
    endloop
  endfacet
  facet normal 0 0 1
    outer loop
      vertex 0.674997 10.7288 3
      vertex 0.204069 3.24359 3
      vertex 0.608989 3.19243 3
    endloop
  endfacet
  facet normal 0 0 1
    outer loop
      vertex 0.674997 10.7288 3
      vertex -0.204069 3.24359 3
      vertex 0.204069 3.24359 3
    endloop
  endfacet
  facet normal -0 0 1
    outer loop
      vertex -0.674997 10.7288 3
      vertex -0.204069 3.24359 3
      vertex 0.674997 10.7288 3
    endloop
  endfacet
  facet normal 0 0 1
    outer loop
      vertex -0.204069 3.24359 3
      vertex -0.674997 10.7288 3
      vertex -0.608989 3.19243 3
    endloop
  endfacet
  facet normal -0 0 1
    outer loop
      vertex -2.01435 10.5596 3
      vertex -0.608989 3.19243 3
      vertex -0.674997 10.7288 3
    endloop
  endfacet
  facet normal 0 0 1
    outer loop
      vertex -0.608989 3.19243 3
      vertex -2.01435 10.5596 3
      vertex -1.0043 3.09093 3
    endloop
  endfacet
  facet normal -0 0 1
    outer loop
      vertex -3.32193 10.2239 3
      vertex -1.0043 3.09093 3
      vertex -2.01435 10.5596 3
    endloop
  endfacet
  facet normal 0 0 1
    outer loop
      vertex -1.0043 3.09093 3
      vertex -3.32193 10.2239 3
      vertex -1.38378 2.94069 3
    endloop
  endfacet
  facet normal -0 0 1
    outer loop
      vertex -4.57713 9.72689 3
      vertex -1.38378 2.94069 3
      vertex -3.32193 10.2239 3
    endloop
  endfacet
  facet normal 0 0 1
    outer loop
      vertex -1.38378 2.94069 3
      vertex -4.57713 9.72689 3
      vertex -1.74144 2.74407 3
    endloop
  endfacet
  facet normal -0 0 1
    outer loop
      vertex -5.76014 9.07652 3
      vertex -1.74144 2.74407 3
      vertex -4.57713 9.72689 3
    endloop
  endfacet
  facet normal 0 0 1
    outer loop
      vertex -1.74144 2.74407 3
      vertex -5.76014 9.07652 3
      vertex -2.07163 2.50417 3
    endloop
  endfacet
  facet normal -0 0 1
    outer loop
      vertex -6.85231 8.28302 3
      vertex -2.07163 2.50417 3
      vertex -5.76014 9.07652 3
    endloop
  endfacet
  facet normal 0 0 1
    outer loop
      vertex -2.07163 2.50417 3
      vertex -6.85231 8.28302 3
      vertex -2.36915 2.22478 3
    endloop
  endfacet
  facet normal -0 0 1
    outer loop
      vertex -7.83641 7.35888 3
      vertex -2.36915 2.22478 3
      vertex -6.85231 8.28302 3
    endloop
  endfacet
  facet normal -0 0 1
    outer loop
      vertex -8.69693 6.31869 3
      vertex -2.6293 1.9103 3
      vertex -7.83641 7.35888 3
    endloop
  endfacet
  facet normal 0 0 1
    outer loop
      vertex -2.36915 2.22478 3
      vertex -7.83641 7.35888 3
      vertex -2.6293 1.9103 3
    endloop
  endfacet
  facet normal 0 0 1
    outer loop
      vertex 8.69693 -6.31869 3
      vertex 2.6293 -1.9103 3
      vertex 7.83641 -7.35888 3
    endloop
  endfacet
  facet normal -0 0 1
    outer loop
      vertex 2.36915 -2.22478 3
      vertex 7.83641 -7.35888 3
      vertex 2.6293 -1.9103 3
    endloop
  endfacet
  facet normal 0 0 1
    outer loop
      vertex 7.83641 -7.35888 3
      vertex 2.36915 -2.22478 3
      vertex 6.85231 -8.28302 3
    endloop
  endfacet
  facet normal -0 0 1
    outer loop
      vertex 2.07163 -2.50417 3
      vertex 6.85231 -8.28302 3
      vertex 2.36915 -2.22478 3
    endloop
  endfacet
  facet normal 0 0 1
    outer loop
      vertex 6.85231 -8.28302 3
      vertex 2.07163 -2.50417 3
      vertex 5.76014 -9.07652 3
    endloop
  endfacet
  facet normal -0 0 1
    outer loop
      vertex 1.74144 -2.74407 3
      vertex 5.76014 -9.07652 3
      vertex 2.07163 -2.50417 3
    endloop
  endfacet
  facet normal 0 0 1
    outer loop
      vertex 5.76014 -9.07652 3
      vertex 1.74144 -2.74407 3
      vertex 4.57713 -9.72689 3
    endloop
  endfacet
  facet normal -0 0 1
    outer loop
      vertex 1.38378 -2.94069 3
      vertex 4.57713 -9.72689 3
      vertex 1.74144 -2.74407 3
    endloop
  endfacet
  facet normal 0 0 1
    outer loop
      vertex 4.57713 -9.72689 3
      vertex 1.38378 -2.94069 3
      vertex 3.32193 -10.2239 3
    endloop
  endfacet
  facet normal -0 0 1
    outer loop
      vertex 1.0043 -3.09093 3
      vertex 3.32193 -10.2239 3
      vertex 1.38378 -2.94069 3
    endloop
  endfacet
  facet normal 0 0 1
    outer loop
      vertex 3.32193 -10.2239 3
      vertex 1.0043 -3.09093 3
      vertex 2.01435 -10.5596 3
    endloop
  endfacet
  facet normal -0 0 1
    outer loop
      vertex 0.608989 -3.19243 3
      vertex 2.01435 -10.5596 3
      vertex 1.0043 -3.09093 3
    endloop
  endfacet
  facet normal 0 0 1
    outer loop
      vertex 2.01435 -10.5596 3
      vertex 0.608989 -3.19243 3
      vertex 0.674997 -10.7288 3
    endloop
  endfacet
  facet normal -0 0 1
    outer loop
      vertex 0.204069 -3.24359 3
      vertex 0.674997 -10.7288 3
      vertex 0.608989 -3.19243 3
    endloop
  endfacet
  facet normal -0 0 1
    outer loop
      vertex -0.204069 -3.24359 3
      vertex 0.674997 -10.7288 3
      vertex 0.204069 -3.24359 3
    endloop
  endfacet
  facet normal 0 0 1
    outer loop
      vertex -0.674997 -10.7288 3
      vertex -0.204069 -3.24359 3
      vertex -0.608989 -3.19243 3
    endloop
  endfacet
  facet normal 0 0 1
    outer loop
      vertex -0.204069 -3.24359 3
      vertex -0.674997 -10.7288 3
      vertex 0.674997 -10.7288 3
    endloop
  endfacet
  facet normal 0 0 1
    outer loop
      vertex -2.01435 -10.5596 3
      vertex -0.608989 -3.19243 3
      vertex -1.0043 -3.09093 3
    endloop
  endfacet
  facet normal 0 0 1
    outer loop
      vertex -3.32193 -10.2239 3
      vertex -1.0043 -3.09093 3
      vertex -1.38378 -2.94069 3
    endloop
  endfacet
  facet normal 0 0 1
    outer loop
      vertex -4.57713 -9.72689 3
      vertex -1.38378 -2.94069 3
      vertex -1.74144 -2.74407 3
    endloop
  endfacet
  facet normal 0 0 1
    outer loop
      vertex -0.608989 -3.19243 3
      vertex -2.01435 -10.5596 3
      vertex -0.674997 -10.7288 3
    endloop
  endfacet
  facet normal 0 0 1
    outer loop
      vertex -5.76014 -9.07652 3
      vertex -1.74144 -2.74407 3
      vertex -2.07163 -2.50417 3
    endloop
  endfacet
  facet normal 0 0 1
    outer loop
      vertex -6.85231 -8.28302 3
      vertex -2.07163 -2.50417 3
      vertex -2.36915 -2.22478 3
    endloop
  endfacet
  facet normal 0 0 1
    outer loop
      vertex -7.83641 -7.35888 3
      vertex -2.36915 -2.22478 3
      vertex -2.6293 -1.9103 3
    endloop
  endfacet
  facet normal 0 0 1
    outer loop
      vertex -8.69693 -6.31869 3
      vertex -2.6293 -1.9103 3
      vertex -2.848 -1.5657 3
    endloop
  endfacet
  facet normal 0 0 1
    outer loop
      vertex -9.4203 -5.17885 3
      vertex -2.848 -1.5657 3
      vertex -3.02177 -1.1964 3
    endloop
  endfacet
  facet normal 0 0 1
    outer loop
      vertex -9.9951 -3.95734 3
      vertex -3.02177 -1.1964 3
      vertex -3.14789 -0.808242 3
    endloop
  endfacet
  facet normal 0 0 1
    outer loop
      vertex -10.4123 -2.67342 3
      vertex -3.14789 -0.808242 3
      vertex -3.22437 -0.407332 3
    endloop
  endfacet
  facet normal 0 0 1
    outer loop
      vertex -1.0043 -3.09093 3
      vertex -3.32193 -10.2239 3
      vertex -2.01435 -10.5596 3
    endloop
  endfacet
  facet normal 0 0 1
    outer loop
      vertex -10.6652 -1.34733 3
      vertex -3.22437 -0.407332 3
      vertex -3.25 0 3
    endloop
  endfacet
  facet normal 0 0 1
    outer loop
      vertex -2.6293 1.9103 3
      vertex -8.69693 6.31869 3
      vertex -2.848 1.5657 3
    endloop
  endfacet
  facet normal -0 0 1
    outer loop
      vertex -9.4203 5.17885 3
      vertex -2.848 1.5657 3
      vertex -8.69693 6.31869 3
    endloop
  endfacet
  facet normal 0 0 1
    outer loop
      vertex -1.38378 -2.94069 3
      vertex -4.57713 -9.72689 3
      vertex -3.32193 -10.2239 3
    endloop
  endfacet
  facet normal 0 0 1
    outer loop
      vertex -2.848 1.5657 3
      vertex -9.4203 5.17885 3
      vertex -3.02177 1.1964 3
    endloop
  endfacet
  facet normal 0 0 1
    outer loop
      vertex -1.74144 -2.74407 3
      vertex -5.76014 -9.07652 3
      vertex -4.57713 -9.72689 3
    endloop
  endfacet
  facet normal -0 0 1
    outer loop
      vertex -9.9951 3.95734 3
      vertex -3.02177 1.1964 3
      vertex -9.4203 5.17885 3
    endloop
  endfacet
  facet normal 0 0 1
    outer loop
      vertex -2.07163 -2.50417 3
      vertex -6.85231 -8.28302 3
      vertex -5.76014 -9.07652 3
    endloop
  endfacet
  facet normal 0 0 1
    outer loop
      vertex -3.02177 1.1964 3
      vertex -9.9951 3.95734 3
      vertex -3.14789 0.808242 3
    endloop
  endfacet
  facet normal 0 0 1
    outer loop
      vertex -2.36915 -2.22478 3
      vertex -7.83641 -7.35888 3
      vertex -6.85231 -8.28302 3
    endloop
  endfacet
  facet normal -0 0 1
    outer loop
      vertex -10.4123 2.67342 3
      vertex -3.14789 0.808242 3
      vertex -9.9951 3.95734 3
    endloop
  endfacet
  facet normal 0 0 1
    outer loop
      vertex -2.6293 -1.9103 3
      vertex -8.69693 -6.31869 3
      vertex -7.83641 -7.35888 3
    endloop
  endfacet
  facet normal 0 0 1
    outer loop
      vertex -3.14789 0.808242 3
      vertex -10.4123 2.67342 3
      vertex -3.22437 0.407332 3
    endloop
  endfacet
  facet normal 0 0 1
    outer loop
      vertex -2.848 -1.5657 3
      vertex -9.4203 -5.17885 3
      vertex -8.69693 -6.31869 3
    endloop
  endfacet
  facet normal -0 0 1
    outer loop
      vertex -10.6652 1.34733 3
      vertex -3.22437 0.407332 3
      vertex -10.4123 2.67342 3
    endloop
  endfacet
  facet normal 0 0 1
    outer loop
      vertex -3.02177 -1.1964 3
      vertex -9.9951 -3.95734 3
      vertex -9.4203 -5.17885 3
    endloop
  endfacet
  facet normal 0 0 1
    outer loop
      vertex -3.22437 0.407332 3
      vertex -10.6652 1.34733 3
      vertex -3.25 0 3
    endloop
  endfacet
  facet normal 0 0 1
    outer loop
      vertex -3.14789 -0.808242 3
      vertex -10.4123 -2.67342 3
      vertex -9.9951 -3.95734 3
    endloop
  endfacet
  facet normal 0 0 1
    outer loop
      vertex -10.75 0 3
      vertex -3.25 0 3
      vertex -10.6652 1.34733 3
    endloop
  endfacet
  facet normal 0 0 1
    outer loop
      vertex -3.22437 -0.407332 3
      vertex -10.6652 -1.34733 3
      vertex -10.4123 -2.67342 3
    endloop
  endfacet
  facet normal 0 0 1
    outer loop
      vertex -3.25 0 3
      vertex -10.75 0 3
      vertex -10.6652 -1.34733 3
    endloop
  endfacet
  facet normal -0.95105 0.309036 0
    outer loop
      vertex -10.4123 2.67342 0
      vertex -9.9951 3.95734 3
      vertex -9.9951 3.95734 0
    endloop
  endfacet
  facet normal -0.95105 0.309036 0
    outer loop
      vertex -9.9951 3.95734 3
      vertex -10.4123 2.67342 0
      vertex -10.4123 2.67342 3
    endloop
  endfacet
  facet normal -0.844326 0.53583 0
    outer loop
      vertex -9.4203 5.17885 0
      vertex -8.69693 6.31869 3
      vertex -8.69693 6.31869 0
    endloop
  endfacet
  facet normal -0.844326 0.53583 0
    outer loop
      vertex -8.69693 6.31869 3
      vertex -9.4203 5.17885 0
      vertex -9.4203 5.17885 3
    endloop
  endfacet
  facet normal -0.248669 0.968588 0
    outer loop
      vertex -2.01435 10.5596 0
      vertex -3.32193 10.2239 3
      vertex -2.01435 10.5596 3
    endloop
  endfacet
  facet normal -0.248669 0.968588 0
    outer loop
      vertex -3.32193 10.2239 3
      vertex -2.01435 10.5596 0
      vertex -3.32193 10.2239 0
    endloop
  endfacet
  facet normal -0.587781 0.80902 0
    outer loop
      vertex -5.76014 9.07652 0
      vertex -6.85231 8.28302 3
      vertex -5.76014 9.07652 3
    endloop
  endfacet
  facet normal -0.587781 0.80902 0
    outer loop
      vertex -6.85231 8.28302 3
      vertex -5.76014 9.07652 0
      vertex -6.85231 8.28302 0
    endloop
  endfacet
  facet normal -0.481756 0.876305 0
    outer loop
      vertex -4.57713 9.72689 0
      vertex -5.76014 9.07652 3
      vertex -4.57713 9.72689 3
    endloop
  endfacet
  facet normal -0.481756 0.876305 0
    outer loop
      vertex -5.76014 9.07652 3
      vertex -4.57713 9.72689 0
      vertex -5.76014 9.07652 0
    endloop
  endfacet
  facet normal 0.998025 0.062815 0
    outer loop
      vertex 10.75 0 3
      vertex 10.6652 1.34733 0
      vertex 10.6652 1.34733 3
    endloop
  endfacet
  facet normal 0.998025 0.062815 0
    outer loop
      vertex 10.6652 1.34733 0
      vertex 10.75 0 3
      vertex 10.75 0 0
    endloop
  endfacet
  facet normal 0.95105 -0.309036 0
    outer loop
      vertex 9.9951 -3.95734 3
      vertex 10.4123 -2.67342 0
      vertex 10.4123 -2.67342 3
    endloop
  endfacet
  facet normal 0.95105 -0.309036 0
    outer loop
      vertex 10.4123 -2.67342 0
      vertex 9.9951 -3.95734 3
      vertex 9.9951 -3.95734 0
    endloop
  endfacet
  facet normal 0.770513 -0.637424 0
    outer loop
      vertex 7.83641 -7.35888 3
      vertex 8.69693 -6.31869 0
      vertex 8.69693 -6.31869 3
    endloop
  endfacet
  facet normal 0.770513 -0.637424 0
    outer loop
      vertex 8.69693 -6.31869 0
      vertex 7.83641 -7.35888 3
      vertex 7.83641 -7.35888 0
    endloop
  endfacet
  facet normal 0 -1 0
    outer loop
      vertex -0.674997 -10.7288 0
      vertex 0.674997 -10.7288 3
      vertex -0.674997 -10.7288 3
    endloop
  endfacet
  facet normal 0 -1 -0
    outer loop
      vertex 0.674997 -10.7288 3
      vertex -0.674997 -10.7288 0
      vertex 0.674997 -10.7288 0
    endloop
  endfacet
  facet normal -0.95105 -0.309036 0
    outer loop
      vertex -9.9951 -3.95734 0
      vertex -10.4123 -2.67342 3
      vertex -10.4123 -2.67342 0
    endloop
  endfacet
  facet normal -0.95105 -0.309036 0
    outer loop
      vertex -10.4123 -2.67342 3
      vertex -9.9951 -3.95734 0
      vertex -9.9951 -3.95734 3
    endloop
  endfacet
  facet normal -0.844326 -0.53583 0
    outer loop
      vertex -8.69693 -6.31869 0
      vertex -9.4203 -5.17885 3
      vertex -9.4203 -5.17885 0
    endloop
  endfacet
  facet normal -0.844326 -0.53583 0
    outer loop
      vertex -9.4203 -5.17885 3
      vertex -8.69693 -6.31869 0
      vertex -8.69693 -6.31869 3
    endloop
  endfacet
  facet normal 0.125334 -0.992115 0
    outer loop
      vertex 0.674997 -10.7288 0
      vertex 2.01435 -10.5596 3
      vertex 0.674997 -10.7288 3
    endloop
  endfacet
  facet normal 0.125334 -0.992115 0
    outer loop
      vertex 2.01435 -10.5596 3
      vertex 0.674997 -10.7288 0
      vertex 2.01435 -10.5596 0
    endloop
  endfacet
  facet normal 0.982296 -0.187335 0
    outer loop
      vertex 10.4123 -2.67342 3
      vertex 10.6652 -1.34733 0
      vertex 10.6652 -1.34733 3
    endloop
  endfacet
  facet normal 0.982296 -0.187335 0
    outer loop
      vertex 10.6652 -1.34733 0
      vertex 10.4123 -2.67342 3
      vertex 10.4123 -2.67342 0
    endloop
  endfacet
  facet normal -0.587781 -0.80902 0
    outer loop
      vertex -6.85231 -8.28302 0
      vertex -5.76014 -9.07652 3
      vertex -6.85231 -8.28302 3
    endloop
  endfacet
  facet normal -0.587781 -0.80902 -0
    outer loop
      vertex -5.76014 -9.07652 3
      vertex -6.85231 -8.28302 0
      vertex -5.76014 -9.07652 0
    endloop
  endfacet
  facet normal 0 0 -1
    outer loop
      vertex 3.25 0 0
      vertex 10.75 0 0
      vertex 10.6652 -1.34733 0
    endloop
  endfacet
  facet normal 0 0 -1
    outer loop
      vertex 3.22437 -0.407332 0
      vertex 10.6652 -1.34733 0
      vertex 10.4123 -2.67342 0
    endloop
  endfacet
  facet normal 0 0 -1
    outer loop
      vertex 10.75 0 0
      vertex 3.25 0 0
      vertex 10.6652 1.34733 0
    endloop
  endfacet
  facet normal 0 0 -1
    outer loop
      vertex 3.14789 -0.808242 0
      vertex 10.4123 -2.67342 0
      vertex 9.9951 -3.95734 0
    endloop
  endfacet
  facet normal 0 0 -1
    outer loop
      vertex 3.22437 0.407332 0
      vertex 10.6652 1.34733 0
      vertex 3.25 0 0
    endloop
  endfacet
  facet normal 0 0 -1
    outer loop
      vertex 3.02177 -1.1964 0
      vertex 9.9951 -3.95734 0
      vertex 9.4203 -5.17885 0
    endloop
  endfacet
  facet normal -0 0 -1
    outer loop
      vertex 10.6652 1.34733 0
      vertex 3.22437 0.407332 0
      vertex 10.4123 2.67342 0
    endloop
  endfacet
  facet normal 0 0 -1
    outer loop
      vertex 2.848 -1.5657 0
      vertex 9.4203 -5.17885 0
      vertex 8.69693 -6.31869 0
    endloop
  endfacet
  facet normal 0 0 -1
    outer loop
      vertex 3.14789 0.808242 0
      vertex 10.4123 2.67342 0
      vertex 3.22437 0.407332 0
    endloop
  endfacet
  facet normal 0 0 -1
    outer loop
      vertex 2.6293 -1.9103 0
      vertex 8.69693 -6.31869 0
      vertex 7.83641 -7.35888 0
    endloop
  endfacet
  facet normal -0 0 -1
    outer loop
      vertex 10.4123 2.67342 0
      vertex 3.14789 0.808242 0
      vertex 9.9951 3.95734 0
    endloop
  endfacet
  facet normal 0 0 -1
    outer loop
      vertex 2.36915 -2.22478 0
      vertex 7.83641 -7.35888 0
      vertex 6.85231 -8.28302 0
    endloop
  endfacet
  facet normal 0 0 -1
    outer loop
      vertex 3.02177 1.1964 0
      vertex 9.9951 3.95734 0
      vertex 3.14789 0.808242 0
    endloop
  endfacet
  facet normal 0 0 -1
    outer loop
      vertex 2.07163 -2.50417 0
      vertex 6.85231 -8.28302 0
      vertex 5.76014 -9.07652 0
    endloop
  endfacet
  facet normal -0 0 -1
    outer loop
      vertex 9.9951 3.95734 0
      vertex 3.02177 1.1964 0
      vertex 9.4203 5.17885 0
    endloop
  endfacet
  facet normal 0 0 -1
    outer loop
      vertex 1.74144 -2.74407 0
      vertex 5.76014 -9.07652 0
      vertex 4.57713 -9.72689 0
    endloop
  endfacet
  facet normal 0 0 -1
    outer loop
      vertex 2.848 1.5657 0
      vertex 9.4203 5.17885 0
      vertex 3.02177 1.1964 0
    endloop
  endfacet
  facet normal 0 0 -1
    outer loop
      vertex 1.38378 -2.94069 0
      vertex 4.57713 -9.72689 0
      vertex 3.32193 -10.2239 0
    endloop
  endfacet
  facet normal -0 0 -1
    outer loop
      vertex 9.4203 5.17885 0
      vertex 2.848 1.5657 0
      vertex 8.69693 6.31869 0
    endloop
  endfacet
  facet normal 0 0 -1
    outer loop
      vertex 2.6293 1.9103 0
      vertex 8.69693 6.31869 0
      vertex 2.848 1.5657 0
    endloop
  endfacet
  facet normal 0 0 -1
    outer loop
      vertex 10.6652 -1.34733 0
      vertex 3.22437 -0.407332 0
      vertex 3.25 0 0
    endloop
  endfacet
  facet normal 0 0 -1
    outer loop
      vertex 10.4123 -2.67342 0
      vertex 3.14789 -0.808242 0
      vertex 3.22437 -0.407332 0
    endloop
  endfacet
  facet normal 0 0 -1
    outer loop
      vertex 9.9951 -3.95734 0
      vertex 3.02177 -1.1964 0
      vertex 3.14789 -0.808242 0
    endloop
  endfacet
  facet normal 0 0 -1
    outer loop
      vertex 9.4203 -5.17885 0
      vertex 2.848 -1.5657 0
      vertex 3.02177 -1.1964 0
    endloop
  endfacet
  facet normal 0 0 -1
    outer loop
      vertex 8.69693 -6.31869 0
      vertex 2.6293 -1.9103 0
      vertex 2.848 -1.5657 0
    endloop
  endfacet
  facet normal 0 0 -1
    outer loop
      vertex 7.83641 -7.35888 0
      vertex 2.36915 -2.22478 0
      vertex 2.6293 -1.9103 0
    endloop
  endfacet
  facet normal 0 0 -1
    outer loop
      vertex 6.85231 -8.28302 0
      vertex 2.07163 -2.50417 0
      vertex 2.36915 -2.22478 0
    endloop
  endfacet
  facet normal 0 0 -1
    outer loop
      vertex 1.0043 -3.09093 0
      vertex 3.32193 -10.2239 0
      vertex 2.01435 -10.5596 0
    endloop
  endfacet
  facet normal 0 0 -1
    outer loop
      vertex 5.76014 -9.07652 0
      vertex 1.74144 -2.74407 0
      vertex 2.07163 -2.50417 0
    endloop
  endfacet
  facet normal 0 0 -1
    outer loop
      vertex 4.57713 -9.72689 0
      vertex 1.38378 -2.94069 0
      vertex 1.74144 -2.74407 0
    endloop
  endfacet
  facet normal 0 0 -1
    outer loop
      vertex 3.32193 -10.2239 0
      vertex 1.0043 -3.09093 0
      vertex 1.38378 -2.94069 0
    endloop
  endfacet
  facet normal 0 0 -1
    outer loop
      vertex 0.608989 -3.19243 0
      vertex 2.01435 -10.5596 0
      vertex 0.674997 -10.7288 0
    endloop
  endfacet
  facet normal 0 0 -1
    outer loop
      vertex 2.01435 -10.5596 0
      vertex 0.608989 -3.19243 0
      vertex 1.0043 -3.09093 0
    endloop
  endfacet
  facet normal 0 0 -1
    outer loop
      vertex 0.674997 -10.7288 0
      vertex 0.204069 -3.24359 0
      vertex 0.608989 -3.19243 0
    endloop
  endfacet
  facet normal 0 0 -1
    outer loop
      vertex 0.674997 -10.7288 0
      vertex -0.204069 -3.24359 0
      vertex 0.204069 -3.24359 0
    endloop
  endfacet
  facet normal 0 0 -1
    outer loop
      vertex -0.674997 -10.7288 0
      vertex -0.204069 -3.24359 0
      vertex 0.674997 -10.7288 0
    endloop
  endfacet
  facet normal -0 0 -1
    outer loop
      vertex -0.204069 -3.24359 0
      vertex -0.674997 -10.7288 0
      vertex -0.608989 -3.19243 0
    endloop
  endfacet
  facet normal 0 0 -1
    outer loop
      vertex -2.01435 -10.5596 0
      vertex -0.608989 -3.19243 0
      vertex -0.674997 -10.7288 0
    endloop
  endfacet
  facet normal -0 0 -1
    outer loop
      vertex -0.608989 -3.19243 0
      vertex -2.01435 -10.5596 0
      vertex -1.0043 -3.09093 0
    endloop
  endfacet
  facet normal 0 0 -1
    outer loop
      vertex -3.32193 -10.2239 0
      vertex -1.0043 -3.09093 0
      vertex -2.01435 -10.5596 0
    endloop
  endfacet
  facet normal -0 0 -1
    outer loop
      vertex -1.0043 -3.09093 0
      vertex -3.32193 -10.2239 0
      vertex -1.38378 -2.94069 0
    endloop
  endfacet
  facet normal 0 0 -1
    outer loop
      vertex -4.57713 -9.72689 0
      vertex -1.38378 -2.94069 0
      vertex -3.32193 -10.2239 0
    endloop
  endfacet
  facet normal -0 0 -1
    outer loop
      vertex -1.38378 -2.94069 0
      vertex -4.57713 -9.72689 0
      vertex -1.74144 -2.74407 0
    endloop
  endfacet
  facet normal 0 0 -1
    outer loop
      vertex -5.76014 -9.07652 0
      vertex -1.74144 -2.74407 0
      vertex -4.57713 -9.72689 0
    endloop
  endfacet
  facet normal -0 0 -1
    outer loop
      vertex -1.74144 -2.74407 0
      vertex -5.76014 -9.07652 0
      vertex -2.07163 -2.50417 0
    endloop
  endfacet
  facet normal 0 0 -1
    outer loop
      vertex -6.85231 -8.28302 0
      vertex -2.07163 -2.50417 0
      vertex -5.76014 -9.07652 0
    endloop
  endfacet
  facet normal -0 0 -1
    outer loop
      vertex -2.07163 -2.50417 0
      vertex -6.85231 -8.28302 0
      vertex -2.36915 -2.22478 0
    endloop
  endfacet
  facet normal 0 0 -1
    outer loop
      vertex -7.83641 -7.35888 0
      vertex -2.36915 -2.22478 0
      vertex -6.85231 -8.28302 0
    endloop
  endfacet
  facet normal 0 0 -1
    outer loop
      vertex -8.69693 -6.31869 0
      vertex -2.6293 -1.9103 0
      vertex -7.83641 -7.35888 0
    endloop
  endfacet
  facet normal -0 0 -1
    outer loop
      vertex -2.36915 -2.22478 0
      vertex -7.83641 -7.35888 0
      vertex -2.6293 -1.9103 0
    endloop
  endfacet
  facet normal -0 0 -1
    outer loop
      vertex 8.69693 6.31869 0
      vertex 2.6293 1.9103 0
      vertex 7.83641 7.35888 0
    endloop
  endfacet
  facet normal 0 0 -1
    outer loop
      vertex 2.36915 2.22478 0
      vertex 7.83641 7.35888 0
      vertex 2.6293 1.9103 0
    endloop
  endfacet
  facet normal -0 0 -1
    outer loop
      vertex 7.83641 7.35888 0
      vertex 2.36915 2.22478 0
      vertex 6.85231 8.28302 0
    endloop
  endfacet
  facet normal 0 0 -1
    outer loop
      vertex 2.07163 2.50417 0
      vertex 6.85231 8.28302 0
      vertex 2.36915 2.22478 0
    endloop
  endfacet
  facet normal -0 0 -1
    outer loop
      vertex 6.85231 8.28302 0
      vertex 2.07163 2.50417 0
      vertex 5.76014 9.07652 0
    endloop
  endfacet
  facet normal 0 0 -1
    outer loop
      vertex 1.74144 2.74407 0
      vertex 5.76014 9.07652 0
      vertex 2.07163 2.50417 0
    endloop
  endfacet
  facet normal -0 0 -1
    outer loop
      vertex 5.76014 9.07652 0
      vertex 1.74144 2.74407 0
      vertex 4.57713 9.72689 0
    endloop
  endfacet
  facet normal 0 0 -1
    outer loop
      vertex 1.38378 2.94069 0
      vertex 4.57713 9.72689 0
      vertex 1.74144 2.74407 0
    endloop
  endfacet
  facet normal -0 0 -1
    outer loop
      vertex 4.57713 9.72689 0
      vertex 1.38378 2.94069 0
      vertex 3.32193 10.2239 0
    endloop
  endfacet
  facet normal 0 0 -1
    outer loop
      vertex 1.0043 3.09093 0
      vertex 3.32193 10.2239 0
      vertex 1.38378 2.94069 0
    endloop
  endfacet
  facet normal -0 0 -1
    outer loop
      vertex 3.32193 10.2239 0
      vertex 1.0043 3.09093 0
      vertex 2.01435 10.5596 0
    endloop
  endfacet
  facet normal 0 0 -1
    outer loop
      vertex 0.608989 3.19243 0
      vertex 2.01435 10.5596 0
      vertex 1.0043 3.09093 0
    endloop
  endfacet
  facet normal -0 0 -1
    outer loop
      vertex 2.01435 10.5596 0
      vertex 0.608989 3.19243 0
      vertex 0.674997 10.7288 0
    endloop
  endfacet
  facet normal 0 0 -1
    outer loop
      vertex 0.204069 3.24359 0
      vertex 0.674997 10.7288 0
      vertex 0.608989 3.19243 0
    endloop
  endfacet
  facet normal 0 0 -1
    outer loop
      vertex -0.204069 3.24359 0
      vertex 0.674997 10.7288 0
      vertex 0.204069 3.24359 0
    endloop
  endfacet
  facet normal 0 0 -1
    outer loop
      vertex -0.674997 10.7288 0
      vertex -0.204069 3.24359 0
      vertex -0.608989 3.19243 0
    endloop
  endfacet
  facet normal 0 0 -1
    outer loop
      vertex -0.204069 3.24359 0
      vertex -0.674997 10.7288 0
      vertex 0.674997 10.7288 0
    endloop
  endfacet
  facet normal 0 0 -1
    outer loop
      vertex -2.01435 10.5596 0
      vertex -0.608989 3.19243 0
      vertex -1.0043 3.09093 0
    endloop
  endfacet
  facet normal 0 0 -1
    outer loop
      vertex -3.32193 10.2239 0
      vertex -1.0043 3.09093 0
      vertex -1.38378 2.94069 0
    endloop
  endfacet
  facet normal 0 0 -1
    outer loop
      vertex -4.57713 9.72689 0
      vertex -1.38378 2.94069 0
      vertex -1.74144 2.74407 0
    endloop
  endfacet
  facet normal 0 0 -1
    outer loop
      vertex -0.608989 3.19243 0
      vertex -2.01435 10.5596 0
      vertex -0.674997 10.7288 0
    endloop
  endfacet
  facet normal 0 0 -1
    outer loop
      vertex -5.76014 9.07652 0
      vertex -1.74144 2.74407 0
      vertex -2.07163 2.50417 0
    endloop
  endfacet
  facet normal 0 0 -1
    outer loop
      vertex -6.85231 8.28302 0
      vertex -2.07163 2.50417 0
      vertex -2.36915 2.22478 0
    endloop
  endfacet
  facet normal 0 0 -1
    outer loop
      vertex -7.83641 7.35888 0
      vertex -2.36915 2.22478 0
      vertex -2.6293 1.9103 0
    endloop
  endfacet
  facet normal 0 0 -1
    outer loop
      vertex -8.69693 6.31869 0
      vertex -2.6293 1.9103 0
      vertex -2.848 1.5657 0
    endloop
  endfacet
  facet normal 0 0 -1
    outer loop
      vertex -9.4203 5.17885 0
      vertex -2.848 1.5657 0
      vertex -3.02177 1.1964 0
    endloop
  endfacet
  facet normal 0 0 -1
    outer loop
      vertex -9.9951 3.95734 0
      vertex -3.02177 1.1964 0
      vertex -3.14789 0.808242 0
    endloop
  endfacet
  facet normal 0 0 -1
    outer loop
      vertex -10.4123 2.67342 0
      vertex -3.14789 0.808242 0
      vertex -3.22437 0.407332 0
    endloop
  endfacet
  facet normal 0 0 -1
    outer loop
      vertex -1.0043 3.09093 0
      vertex -3.32193 10.2239 0
      vertex -2.01435 10.5596 0
    endloop
  endfacet
  facet normal 0 0 -1
    outer loop
      vertex -10.6652 1.34733 0
      vertex -3.22437 0.407332 0
      vertex -3.25 0 0
    endloop
  endfacet
  facet normal -0 0 -1
    outer loop
      vertex -2.6293 -1.9103 0
      vertex -8.69693 -6.31869 0
      vertex -2.848 -1.5657 0
    endloop
  endfacet
  facet normal 0 0 -1
    outer loop
      vertex -9.4203 -5.17885 0
      vertex -2.848 -1.5657 0
      vertex -8.69693 -6.31869 0
    endloop
  endfacet
  facet normal 0 0 -1
    outer loop
      vertex -1.38378 2.94069 0
      vertex -4.57713 9.72689 0
      vertex -3.32193 10.2239 0
    endloop
  endfacet
  facet normal -0 0 -1
    outer loop
      vertex -2.848 -1.5657 0
      vertex -9.4203 -5.17885 0
      vertex -3.02177 -1.1964 0
    endloop
  endfacet
  facet normal 0 0 -1
    outer loop
      vertex -1.74144 2.74407 0
      vertex -5.76014 9.07652 0
      vertex -4.57713 9.72689 0
    endloop
  endfacet
  facet normal 0 0 -1
    outer loop
      vertex -9.9951 -3.95734 0
      vertex -3.02177 -1.1964 0
      vertex -9.4203 -5.17885 0
    endloop
  endfacet
  facet normal 0 0 -1
    outer loop
      vertex -2.07163 2.50417 0
      vertex -6.85231 8.28302 0
      vertex -5.76014 9.07652 0
    endloop
  endfacet
  facet normal -0 0 -1
    outer loop
      vertex -3.02177 -1.1964 0
      vertex -9.9951 -3.95734 0
      vertex -3.14789 -0.808242 0
    endloop
  endfacet
  facet normal 0 0 -1
    outer loop
      vertex -2.36915 2.22478 0
      vertex -7.83641 7.35888 0
      vertex -6.85231 8.28302 0
    endloop
  endfacet
  facet normal 0 0 -1
    outer loop
      vertex -10.4123 -2.67342 0
      vertex -3.14789 -0.808242 0
      vertex -9.9951 -3.95734 0
    endloop
  endfacet
  facet normal 0 0 -1
    outer loop
      vertex -2.6293 1.9103 0
      vertex -8.69693 6.31869 0
      vertex -7.83641 7.35888 0
    endloop
  endfacet
  facet normal -0 0 -1
    outer loop
      vertex -3.14789 -0.808242 0
      vertex -10.4123 -2.67342 0
      vertex -3.22437 -0.407332 0
    endloop
  endfacet
  facet normal 0 0 -1
    outer loop
      vertex -2.848 1.5657 0
      vertex -9.4203 5.17885 0
      vertex -8.69693 6.31869 0
    endloop
  endfacet
  facet normal 0 0 -1
    outer loop
      vertex -10.6652 -1.34733 0
      vertex -3.22437 -0.407332 0
      vertex -10.4123 -2.67342 0
    endloop
  endfacet
  facet normal 0 0 -1
    outer loop
      vertex -3.02177 1.1964 0
      vertex -9.9951 3.95734 0
      vertex -9.4203 5.17885 0
    endloop
  endfacet
  facet normal -0 0 -1
    outer loop
      vertex -3.22437 -0.407332 0
      vertex -10.6652 -1.34733 0
      vertex -3.25 0 0
    endloop
  endfacet
  facet normal 0 0 -1
    outer loop
      vertex -3.14789 0.808242 0
      vertex -10.4123 2.67342 0
      vertex -9.9951 3.95734 0
    endloop
  endfacet
  facet normal 0 0 -1
    outer loop
      vertex -10.75 0 0
      vertex -3.25 0 0
      vertex -10.6652 -1.34733 0
    endloop
  endfacet
  facet normal 0 0 -1
    outer loop
      vertex -3.22437 0.407332 0
      vertex -10.6652 1.34733 0
      vertex -10.4123 2.67342 0
    endloop
  endfacet
  facet normal 0 0 -1
    outer loop
      vertex -3.25 0 0
      vertex -10.75 0 0
      vertex -10.6652 1.34733 0
    endloop
  endfacet
  facet normal -0.770513 -0.637424 0
    outer loop
      vertex -7.83641 -7.35888 0
      vertex -8.69693 -6.31869 3
      vertex -8.69693 -6.31869 0
    endloop
  endfacet
  facet normal -0.770513 -0.637424 0
    outer loop
      vertex -8.69693 -6.31869 3
      vertex -7.83641 -7.35888 0
      vertex -7.83641 -7.35888 3
    endloop
  endfacet
  facet normal 0.368151 -0.929766 0
    outer loop
      vertex 3.32193 -10.2239 0
      vertex 4.57713 -9.72689 3
      vertex 3.32193 -10.2239 3
    endloop
  endfacet
  facet normal 0.368151 -0.929766 0
    outer loop
      vertex 4.57713 -9.72689 3
      vertex 3.32193 -10.2239 0
      vertex 4.57713 -9.72689 0
    endloop
  endfacet
  facet normal 0.248669 -0.968588 0
    outer loop
      vertex 2.01435 -10.5596 0
      vertex 3.32193 -10.2239 3
      vertex 2.01435 -10.5596 3
    endloop
  endfacet
  facet normal 0.248669 -0.968588 0
    outer loop
      vertex 3.32193 -10.2239 3
      vertex 2.01435 -10.5596 0
      vertex 3.32193 -10.2239 0
    endloop
  endfacet
  facet normal 0.68455 -0.728965 0
    outer loop
      vertex 6.85231 -8.28302 0
      vertex 7.83641 -7.35888 3
      vertex 6.85231 -8.28302 3
    endloop
  endfacet
  facet normal 0.68455 -0.728965 0
    outer loop
      vertex 7.83641 -7.35888 3
      vertex 6.85231 -8.28302 0
      vertex 7.83641 -7.35888 0
    endloop
  endfacet
  facet normal 0.844326 -0.53583 0
    outer loop
      vertex 8.69693 -6.31869 3
      vertex 9.4203 -5.17885 0
      vertex 9.4203 -5.17885 3
    endloop
  endfacet
  facet normal 0.844326 -0.53583 0
    outer loop
      vertex 9.4203 -5.17885 0
      vertex 8.69693 -6.31869 3
      vertex 8.69693 -6.31869 0
    endloop
  endfacet
  facet normal -0.125334 -0.992115 0
    outer loop
      vertex -2.01435 -10.5596 0
      vertex -0.674997 -10.7288 3
      vertex -2.01435 -10.5596 3
    endloop
  endfacet
  facet normal -0.125334 -0.992115 -0
    outer loop
      vertex -0.674997 -10.7288 3
      vertex -2.01435 -10.5596 0
      vertex -0.674997 -10.7288 0
    endloop
  endfacet
  facet normal -0.368151 -0.929766 0
    outer loop
      vertex -4.57713 -9.72689 0
      vertex -3.32193 -10.2239 3
      vertex -4.57713 -9.72689 3
    endloop
  endfacet
  facet normal -0.368151 -0.929766 -0
    outer loop
      vertex -3.32193 -10.2239 3
      vertex -4.57713 -9.72689 0
      vertex -3.32193 -10.2239 0
    endloop
  endfacet
  facet normal -0.248669 -0.968588 0
    outer loop
      vertex -3.32193 -10.2239 0
      vertex -2.01435 -10.5596 3
      vertex -3.32193 -10.2239 3
    endloop
  endfacet
  facet normal -0.248669 -0.968588 -0
    outer loop
      vertex -2.01435 -10.5596 3
      vertex -3.32193 -10.2239 0
      vertex -2.01435 -10.5596 0
    endloop
  endfacet
  facet normal -0.982296 -0.187335 0
    outer loop
      vertex -10.4123 -2.67342 0
      vertex -10.6652 -1.34733 3
      vertex -10.6652 -1.34733 0
    endloop
  endfacet
  facet normal -0.982296 -0.187335 0
    outer loop
      vertex -10.6652 -1.34733 3
      vertex -10.4123 -2.67342 0
      vertex -10.4123 -2.67342 3
    endloop
  endfacet
  facet normal -0.998025 -0.062815 0
    outer loop
      vertex -10.6652 -1.34733 0
      vertex -10.75 0 3
      vertex -10.75 0 0
    endloop
  endfacet
  facet normal -0.998025 -0.062815 0
    outer loop
      vertex -10.75 0 3
      vertex -10.6652 -1.34733 0
      vertex -10.6652 -1.34733 3
    endloop
  endfacet
  facet normal 0.587781 -0.80902 0
    outer loop
      vertex 5.76014 -9.07652 0
      vertex 6.85231 -8.28302 3
      vertex 5.76014 -9.07652 3
    endloop
  endfacet
  facet normal 0.587781 -0.80902 0
    outer loop
      vertex 6.85231 -8.28302 3
      vertex 5.76014 -9.07652 0
      vertex 6.85231 -8.28302 0
    endloop
  endfacet
  facet normal -0.481756 -0.876305 0
    outer loop
      vertex -5.76014 -9.07652 0
      vertex -4.57713 -9.72689 3
      vertex -5.76014 -9.07652 3
    endloop
  endfacet
  facet normal -0.481756 -0.876305 -0
    outer loop
      vertex -4.57713 -9.72689 3
      vertex -5.76014 -9.07652 0
      vertex -4.57713 -9.72689 0
    endloop
  endfacet
endsolid OpenSCAD_Model
