  0
SECTION
  2
BLOCKS
  0
ENDSEC
  0
SECTION
  2
ENTITIES
  0
LINE
  8
0
 10
145.937
 20
1033.59
 11
146.545
 21
1033.74
  0
LINE
  8
0
 10
146.545
 20
1033.74
 11
147.129
 21
1033.98
  0
LINE
  8
0
 10
147.129
 20
1033.98
 11
147.679
 21
1034.28
  0
LINE
  8
0
 10
147.679
 20
1034.28
 11
148.187
 21
1034.65
  0
LINE
  8
0
 10
148.187
 20
1034.65
 11
148.645
 21
1035.08
  0
LINE
  8
0
 10
148.645
 20
1035.08
 11
149.045
 21
1035.56
  0
LINE
  8
0
 10
149.045
 20
1035.56
 11
149.382
 21
1036.09
  0
LINE
  8
0
 10
149.382
 20
1036.09
 11
149.649
 21
1036.66
  0
LINE
  8
0
 10
149.649
 20
1036.66
 11
149.843
 21
1037.26
  0
LINE
  8
0
 10
149.843
 20
1037.26
 11
149.961
 21
1037.87
  0
LINE
  8
0
 10
149.961
 20
1037.87
 11
150
 21
1038.5
  0
LINE
  8
0
 10
150
 20
1038.5
 11
150
 21
1313.5
  0
LINE
  8
0
 10
150
 20
1313.5
 11
149.961
 21
1314.13
  0
LINE
  8
0
 10
149.961
 20
1314.13
 11
149.843
 21
1314.74
  0
LINE
  8
0
 10
149.843
 20
1314.74
 11
149.649
 21
1315.34
  0
LINE
  8
0
 10
149.649
 20
1315.34
 11
149.382
 21
1315.91
  0
LINE
  8
0
 10
149.382
 20
1315.91
 11
149.045
 21
1316.44
  0
LINE
  8
0
 10
149.045
 20
1316.44
 11
148.645
 21
1316.92
  0
LINE
  8
0
 10
148.645
 20
1316.92
 11
148.187
 21
1317.35
  0
LINE
  8
0
 10
148.187
 20
1317.35
 11
147.679
 21
1317.72
  0
LINE
  8
0
 10
147.679
 20
1317.72
 11
147.129
 21
1318.02
  0
LINE
  8
0
 10
147.129
 20
1318.02
 11
146.545
 21
1318.26
  0
LINE
  8
0
 10
146.545
 20
1318.26
 11
145.937
 21
1318.41
  0
LINE
  8
0
 10
145.937
 20
1318.41
 11
145.314
 21
1318.49
  0
LINE
  8
0
 10
145.314
 20
1318.49
 11
-145.314
 21
1318.49
  0
LINE
  8
0
 10
-145.314
 20
1318.49
 11
-145.937
 21
1318.41
  0
LINE
  8
0
 10
-145.937
 20
1318.41
 11
-146.545
 21
1318.26
  0
LINE
  8
0
 10
-146.545
 20
1318.26
 11
-147.129
 21
1318.02
  0
LINE
  8
0
 10
-147.129
 20
1318.02
 11
-147.679
 21
1317.72
  0
LINE
  8
0
 10
-147.679
 20
1317.72
 11
-148.187
 21
1317.35
  0
LINE
  8
0
 10
-148.187
 20
1317.35
 11
-148.645
 21
1316.92
  0
LINE
  8
0
 10
-148.645
 20
1316.92
 11
-149.045
 21
1316.44
  0
LINE
  8
0
 10
-149.045
 20
1316.44
 11
-149.382
 21
1315.91
  0
LINE
  8
0
 10
-149.382
 20
1315.91
 11
-149.649
 21
1315.34
  0
LINE
  8
0
 10
-149.649
 20
1315.34
 11
-149.843
 21
1314.74
  0
LINE
  8
0
 10
-149.843
 20
1314.74
 11
-149.961
 21
1314.13
  0
LINE
  8
0
 10
-149.961
 20
1314.13
 11
-150
 21
1313.5
  0
LINE
  8
0
 10
-150
 20
1313.5
 11
-150
 21
1038.5
  0
LINE
  8
0
 10
-150
 20
1038.5
 11
-149.961
 21
1037.87
  0
LINE
  8
0
 10
-149.961
 20
1037.87
 11
-149.843
 21
1037.26
  0
LINE
  8
0
 10
-149.843
 20
1037.26
 11
-149.649
 21
1036.66
  0
LINE
  8
0
 10
-149.649
 20
1036.66
 11
-149.382
 21
1036.09
  0
LINE
  8
0
 10
-149.382
 20
1036.09
 11
-149.045
 21
1035.56
  0
LINE
  8
0
 10
-149.045
 20
1035.56
 11
-148.645
 21
1035.08
  0
LINE
  8
0
 10
-148.645
 20
1035.08
 11
-148.187
 21
1034.65
  0
LINE
  8
0
 10
-148.187
 20
1034.65
 11
-147.679
 21
1034.28
  0
LINE
  8
0
 10
-147.679
 20
1034.28
 11
-147.129
 21
1033.98
  0
LINE
  8
0
 10
-147.129
 20
1033.98
 11
-146.545
 21
1033.74
  0
LINE
  8
0
 10
-146.545
 20
1033.74
 11
-145.937
 21
1033.59
  0
LINE
  8
0
 10
-145.937
 20
1033.59
 11
-145.314
 21
1033.51
  0
LINE
  8
0
 10
-145.314
 20
1033.51
 11
145.314
 21
1033.51
  0
LINE
  8
0
 10
145.314
 20
1033.51
 11
145.937
 21
1033.59
  0
LINE
  8
0
 10
-145.048
 20
1034.01
 11
-145.64
 21
1034.08
  0
LINE
  8
0
 10
-145.64
 20
1034.08
 11
-146.218
 21
1034.23
  0
LINE
  8
0
 10
-146.218
 20
1034.23
 11
-146.772
 21
1034.45
  0
LINE
  8
0
 10
-146.772
 20
1034.45
 11
-147.295
 21
1034.74
  0
LINE
  8
0
 10
-147.295
 20
1034.74
 11
-147.778
 21
1035.09
  0
LINE
  8
0
 10
-147.778
 20
1035.09
 11
-148.213
 21
1035.5
  0
LINE
  8
0
 10
-148.213
 20
1035.5
 11
-148.593
 21
1035.96
  0
LINE
  8
0
 10
-148.593
 20
1035.96
 11
-148.912
 21
1036.46
  0
LINE
  8
0
 10
-148.912
 20
1036.46
 11
-149.166
 21
1037
  0
LINE
  8
0
 10
-149.166
 20
1037
 11
-149.351
 21
1037.57
  0
LINE
  8
0
 10
-149.351
 20
1037.57
 11
-149.463
 21
1038.15
  0
LINE
  8
0
 10
-149.463
 20
1038.15
 11
-149.5
 21
1038.75
  0
LINE
  8
0
 10
-149.5
 20
1038.75
 11
-149.5
 21
1313.25
  0
LINE
  8
0
 10
-149.5
 20
1313.25
 11
-149.463
 21
1313.85
  0
LINE
  8
0
 10
-149.463
 20
1313.85
 11
-149.351
 21
1314.43
  0
LINE
  8
0
 10
-149.351
 20
1314.43
 11
-149.166
 21
1315
  0
LINE
  8
0
 10
-149.166
 20
1315
 11
-148.912
 21
1315.54
  0
LINE
  8
0
 10
-148.912
 20
1315.54
 11
-148.593
 21
1316.04
  0
LINE
  8
0
 10
-148.593
 20
1316.04
 11
-148.213
 21
1316.5
  0
LINE
  8
0
 10
-148.213
 20
1316.5
 11
-147.778
 21
1316.91
  0
LINE
  8
0
 10
-147.778
 20
1316.91
 11
-147.295
 21
1317.26
  0
LINE
  8
0
 10
-147.295
 20
1317.26
 11
-146.772
 21
1317.55
  0
LINE
  8
0
 10
-146.772
 20
1317.55
 11
-146.218
 21
1317.77
  0
LINE
  8
0
 10
-146.218
 20
1317.77
 11
-145.64
 21
1317.92
  0
LINE
  8
0
 10
-145.64
 20
1317.92
 11
-145.048
 21
1317.99
  0
LINE
  8
0
 10
-145.048
 20
1317.99
 11
145.048
 21
1317.99
  0
LINE
  8
0
 10
145.048
 20
1317.99
 11
145.64
 21
1317.92
  0
LINE
  8
0
 10
145.64
 20
1317.92
 11
146.218
 21
1317.77
  0
LINE
  8
0
 10
146.218
 20
1317.77
 11
146.772
 21
1317.55
  0
LINE
  8
0
 10
146.772
 20
1317.55
 11
147.295
 21
1317.26
  0
LINE
  8
0
 10
147.295
 20
1317.26
 11
147.778
 21
1316.91
  0
LINE
  8
0
 10
147.778
 20
1316.91
 11
148.213
 21
1316.5
  0
LINE
  8
0
 10
148.213
 20
1316.5
 11
148.593
 21
1316.04
  0
LINE
  8
0
 10
148.593
 20
1316.04
 11
148.912
 21
1315.54
  0
LINE
  8
0
 10
148.912
 20
1315.54
 11
149.166
 21
1315
  0
LINE
  8
0
 10
149.166
 20
1315
 11
149.351
 21
1314.43
  0
LINE
  8
0
 10
149.351
 20
1314.43
 11
149.463
 21
1313.85
  0
LINE
  8
0
 10
149.463
 20
1313.85
 11
149.5
 21
1313.25
  0
LINE
  8
0
 10
149.5
 20
1313.25
 11
149.5
 21
1038.75
  0
LINE
  8
0
 10
149.5
 20
1038.75
 11
149.463
 21
1038.15
  0
LINE
  8
0
 10
149.463
 20
1038.15
 11
149.351
 21
1037.57
  0
LINE
  8
0
 10
149.351
 20
1037.57
 11
149.166
 21
1037
  0
LINE
  8
0
 10
149.166
 20
1037
 11
148.912
 21
1036.46
  0
LINE
  8
0
 10
148.912
 20
1036.46
 11
148.593
 21
1035.96
  0
LINE
  8
0
 10
148.593
 20
1035.96
 11
148.213
 21
1035.5
  0
LINE
  8
0
 10
148.213
 20
1035.5
 11
147.778
 21
1035.09
  0
LINE
  8
0
 10
147.778
 20
1035.09
 11
147.295
 21
1034.74
  0
LINE
  8
0
 10
147.295
 20
1034.74
 11
146.772
 21
1034.45
  0
LINE
  8
0
 10
146.772
 20
1034.45
 11
146.218
 21
1034.23
  0
LINE
  8
0
 10
146.218
 20
1034.23
 11
145.64
 21
1034.08
  0
LINE
  8
0
 10
145.64
 20
1034.08
 11
145.048
 21
1034.01
  0
LINE
  8
0
 10
145.048
 20
1034.01
 11
-145.048
 21
1034.01
  0
LINE
  8
0
 10
145.937
 20
739.589
 11
146.545
 21
739.745
  0
LINE
  8
0
 10
146.545
 20
739.745
 11
147.129
 21
739.976
  0
LINE
  8
0
 10
147.129
 20
739.976
 11
147.679
 21
740.278
  0
LINE
  8
0
 10
147.679
 20
740.278
 11
148.187
 21
740.647
  0
LINE
  8
0
 10
148.187
 20
740.647
 11
148.645
 21
741.077
  0
LINE
  8
0
 10
148.645
 20
741.077
 11
149.045
 21
741.561
  0
LINE
  8
0
 10
149.045
 20
741.561
 11
149.382
 21
742.091
  0
LINE
  8
0
 10
149.382
 20
742.091
 11
149.649
 21
742.659
  0
LINE
  8
0
 10
149.649
 20
742.659
 11
149.843
 21
743.257
  0
LINE
  8
0
 10
149.843
 20
743.257
 11
149.961
 21
743.873
  0
LINE
  8
0
 10
149.961
 20
743.873
 11
150
 21
744.5
  0
LINE
  8
0
 10
150
 20
744.5
 11
150
 21
1019.5
  0
LINE
  8
0
 10
150
 20
1019.5
 11
149.961
 21
1020.13
  0
LINE
  8
0
 10
149.961
 20
1020.13
 11
149.843
 21
1020.74
  0
LINE
  8
0
 10
149.843
 20
1020.74
 11
149.649
 21
1021.34
  0
LINE
  8
0
 10
149.649
 20
1021.34
 11
149.382
 21
1021.91
  0
LINE
  8
0
 10
149.382
 20
1021.91
 11
149.045
 21
1022.44
  0
LINE
  8
0
 10
149.045
 20
1022.44
 11
148.645
 21
1022.92
  0
LINE
  8
0
 10
148.645
 20
1022.92
 11
148.187
 21
1023.35
  0
LINE
  8
0
 10
148.187
 20
1023.35
 11
147.679
 21
1023.72
  0
LINE
  8
0
 10
147.679
 20
1023.72
 11
147.129
 21
1024.02
  0
LINE
  8
0
 10
147.129
 20
1024.02
 11
146.545
 21
1024.26
  0
LINE
  8
0
 10
146.545
 20
1024.26
 11
145.937
 21
1024.41
  0
LINE
  8
0
 10
145.937
 20
1024.41
 11
145.314
 21
1024.49
  0
LINE
  8
0
 10
145.314
 20
1024.49
 11
-145.314
 21
1024.49
  0
LINE
  8
0
 10
-145.314
 20
1024.49
 11
-145.937
 21
1024.41
  0
LINE
  8
0
 10
-145.937
 20
1024.41
 11
-146.545
 21
1024.26
  0
LINE
  8
0
 10
-146.545
 20
1024.26
 11
-147.129
 21
1024.02
  0
LINE
  8
0
 10
-147.129
 20
1024.02
 11
-147.679
 21
1023.72
  0
LINE
  8
0
 10
-147.679
 20
1023.72
 11
-148.187
 21
1023.35
  0
LINE
  8
0
 10
-148.187
 20
1023.35
 11
-148.645
 21
1022.92
  0
LINE
  8
0
 10
-148.645
 20
1022.92
 11
-149.045
 21
1022.44
  0
LINE
  8
0
 10
-149.045
 20
1022.44
 11
-149.382
 21
1021.91
  0
LINE
  8
0
 10
-149.382
 20
1021.91
 11
-149.649
 21
1021.34
  0
LINE
  8
0
 10
-149.649
 20
1021.34
 11
-149.843
 21
1020.74
  0
LINE
  8
0
 10
-149.843
 20
1020.74
 11
-149.961
 21
1020.13
  0
LINE
  8
0
 10
-149.961
 20
1020.13
 11
-150
 21
1019.5
  0
LINE
  8
0
 10
-150
 20
1019.5
 11
-150
 21
744.5
  0
LINE
  8
0
 10
-150
 20
744.5
 11
-149.961
 21
743.873
  0
LINE
  8
0
 10
-149.961
 20
743.873
 11
-149.843
 21
743.257
  0
LINE
  8
0
 10
-149.843
 20
743.257
 11
-149.649
 21
742.659
  0
LINE
  8
0
 10
-149.649
 20
742.659
 11
-149.382
 21
742.091
  0
LINE
  8
0
 10
-149.382
 20
742.091
 11
-149.045
 21
741.561
  0
LINE
  8
0
 10
-149.045
 20
741.561
 11
-148.645
 21
741.077
  0
LINE
  8
0
 10
-148.645
 20
741.077
 11
-148.187
 21
740.647
  0
LINE
  8
0
 10
-148.187
 20
740.647
 11
-147.679
 21
740.278
  0
LINE
  8
0
 10
-147.679
 20
740.278
 11
-147.129
 21
739.976
  0
LINE
  8
0
 10
-147.129
 20
739.976
 11
-146.545
 21
739.745
  0
LINE
  8
0
 10
-146.545
 20
739.745
 11
-145.937
 21
739.589
  0
LINE
  8
0
 10
-145.937
 20
739.589
 11
-145.314
 21
739.51
  0
LINE
  8
0
 10
-145.314
 20
739.51
 11
145.314
 21
739.51
  0
LINE
  8
0
 10
145.314
 20
739.51
 11
145.937
 21
739.589
  0
LINE
  8
0
 10
-144.993
 20
740.888
 11
-145.475
 21
740.949
  0
LINE
  8
0
 10
-145.475
 20
740.949
 11
-145.946
 21
741.07
  0
LINE
  8
0
 10
-145.946
 20
741.07
 11
-146.398
 21
741.249
  0
LINE
  8
0
 10
-146.398
 20
741.249
 11
-146.823
 21
741.483
  0
LINE
  8
0
 10
-146.823
 20
741.483
 11
-147.216
 21
741.769
  0
LINE
  8
0
 10
-147.216
 20
741.769
 11
-147.571
 21
742.101
  0
LINE
  8
0
 10
-147.571
 20
742.101
 11
-147.88
 21
742.476
  0
LINE
  8
0
 10
-147.88
 20
742.476
 11
-148.141
 21
742.886
  0
LINE
  8
0
 10
-148.141
 20
742.886
 11
-148.348
 21
743.326
  0
LINE
  8
0
 10
-148.348
 20
743.326
 11
-148.498
 21
743.788
  0
LINE
  8
0
 10
-148.498
 20
743.788
 11
-148.589
 21
744.265
  0
LINE
  8
0
 10
-148.589
 20
744.265
 11
-148.619
 21
744.75
  0
LINE
  8
0
 10
-148.619
 20
744.75
 11
-148.619
 21
1019.25
  0
LINE
  8
0
 10
-148.619
 20
1019.25
 11
-148.589
 21
1019.73
  0
LINE
  8
0
 10
-148.589
 20
1019.73
 11
-148.498
 21
1020.21
  0
LINE
  8
0
 10
-148.498
 20
1020.21
 11
-148.348
 21
1020.67
  0
LINE
  8
0
 10
-148.348
 20
1020.67
 11
-148.141
 21
1021.11
  0
LINE
  8
0
 10
-148.141
 20
1021.11
 11
-147.88
 21
1021.52
  0
LINE
  8
0
 10
-147.88
 20
1021.52
 11
-147.571
 21
1021.9
  0
LINE
  8
0
 10
-147.571
 20
1021.9
 11
-147.216
 21
1022.23
  0
LINE
  8
0
 10
-147.216
 20
1022.23
 11
-146.823
 21
1022.52
  0
LINE
  8
0
 10
-146.823
 20
1022.52
 11
-146.398
 21
1022.75
  0
LINE
  8
0
 10
-146.398
 20
1022.75
 11
-145.946
 21
1022.93
  0
LINE
  8
0
 10
-145.946
 20
1022.93
 11
-145.475
 21
1023.05
  0
LINE
  8
0
 10
-145.475
 20
1023.05
 11
-144.993
 21
1023.11
  0
LINE
  8
0
 10
-144.993
 20
1023.11
 11
144.993
 21
1023.11
  0
LINE
  8
0
 10
144.993
 20
1023.11
 11
145.475
 21
1023.05
  0
LINE
  8
0
 10
145.475
 20
1023.05
 11
145.946
 21
1022.93
  0
LINE
  8
0
 10
145.946
 20
1022.93
 11
146.398
 21
1022.75
  0
LINE
  8
0
 10
146.398
 20
1022.75
 11
146.823
 21
1022.52
  0
LINE
  8
0
 10
146.823
 20
1022.52
 11
147.216
 21
1022.23
  0
LINE
  8
0
 10
147.216
 20
1022.23
 11
147.571
 21
1021.9
  0
LINE
  8
0
 10
147.571
 20
1021.9
 11
147.88
 21
1021.52
  0
LINE
  8
0
 10
147.88
 20
1021.52
 11
148.141
 21
1021.11
  0
LINE
  8
0
 10
148.141
 20
1021.11
 11
148.348
 21
1020.67
  0
LINE
  8
0
 10
148.348
 20
1020.67
 11
148.498
 21
1020.21
  0
LINE
  8
0
 10
148.498
 20
1020.21
 11
148.589
 21
1019.73
  0
LINE
  8
0
 10
148.589
 20
1019.73
 11
148.619
 21
1019.25
  0
LINE
  8
0
 10
148.619
 20
1019.25
 11
148.619
 21
744.75
  0
LINE
  8
0
 10
148.619
 20
744.75
 11
148.589
 21
744.265
  0
LINE
  8
0
 10
148.589
 20
744.265
 11
148.498
 21
743.788
  0
LINE
  8
0
 10
148.498
 20
743.788
 11
148.348
 21
743.326
  0
LINE
  8
0
 10
148.348
 20
743.326
 11
148.141
 21
742.886
  0
LINE
  8
0
 10
148.141
 20
742.886
 11
147.88
 21
742.476
  0
LINE
  8
0
 10
147.88
 20
742.476
 11
147.571
 21
742.101
  0
LINE
  8
0
 10
147.571
 20
742.101
 11
147.216
 21
741.769
  0
LINE
  8
0
 10
147.216
 20
741.769
 11
146.823
 21
741.483
  0
LINE
  8
0
 10
146.823
 20
741.483
 11
146.398
 21
741.249
  0
LINE
  8
0
 10
146.398
 20
741.249
 11
145.946
 21
741.07
  0
LINE
  8
0
 10
145.946
 20
741.07
 11
145.475
 21
740.949
  0
LINE
  8
0
 10
145.475
 20
740.949
 11
144.993
 21
740.888
  0
LINE
  8
0
 10
144.993
 20
740.888
 11
-144.993
 21
740.888
  0
LINE
  8
0
 10
145.937
 20
445.589
 11
146.545
 21
445.745
  0
LINE
  8
0
 10
146.545
 20
445.745
 11
147.129
 21
445.976
  0
LINE
  8
0
 10
147.129
 20
445.976
 11
147.679
 21
446.278
  0
LINE
  8
0
 10
147.679
 20
446.278
 11
148.187
 21
446.647
  0
LINE
  8
0
 10
148.187
 20
446.647
 11
148.645
 21
447.077
  0
LINE
  8
0
 10
148.645
 20
447.077
 11
149.045
 21
447.561
  0
LINE
  8
0
 10
149.045
 20
447.561
 11
149.382
 21
448.091
  0
LINE
  8
0
 10
149.382
 20
448.091
 11
149.649
 21
448.659
  0
LINE
  8
0
 10
149.649
 20
448.659
 11
149.843
 21
449.257
  0
LINE
  8
0
 10
149.843
 20
449.257
 11
149.961
 21
449.873
  0
LINE
  8
0
 10
149.961
 20
449.873
 11
150
 21
450.5
  0
LINE
  8
0
 10
150
 20
450.5
 11
150
 21
725.5
  0
LINE
  8
0
 10
150
 20
725.5
 11
149.961
 21
726.127
  0
LINE
  8
0
 10
149.961
 20
726.127
 11
149.843
 21
726.743
  0
LINE
  8
0
 10
149.843
 20
726.743
 11
149.649
 21
727.341
  0
LINE
  8
0
 10
149.649
 20
727.341
 11
149.382
 21
727.909
  0
LINE
  8
0
 10
149.382
 20
727.909
 11
149.045
 21
728.439
  0
LINE
  8
0
 10
149.045
 20
728.439
 11
148.645
 21
728.923
  0
LINE
  8
0
 10
148.645
 20
728.923
 11
148.187
 21
729.353
  0
LINE
  8
0
 10
148.187
 20
729.353
 11
147.679
 21
729.722
  0
LINE
  8
0
 10
147.679
 20
729.722
 11
147.129
 21
730.024
  0
LINE
  8
0
 10
147.129
 20
730.024
 11
146.545
 21
730.255
  0
LINE
  8
0
 10
146.545
 20
730.255
 11
145.937
 21
730.411
  0
LINE
  8
0
 10
145.937
 20
730.411
 11
145.314
 21
730.49
  0
LINE
  8
0
 10
145.314
 20
730.49
 11
-145.314
 21
730.49
  0
LINE
  8
0
 10
-145.314
 20
730.49
 11
-145.937
 21
730.411
  0
LINE
  8
0
 10
-145.937
 20
730.411
 11
-146.545
 21
730.255
  0
LINE
  8
0
 10
-146.545
 20
730.255
 11
-147.129
 21
730.024
  0
LINE
  8
0
 10
-147.129
 20
730.024
 11
-147.679
 21
729.722
  0
LINE
  8
0
 10
-147.679
 20
729.722
 11
-148.187
 21
729.353
  0
LINE
  8
0
 10
-148.187
 20
729.353
 11
-148.645
 21
728.923
  0
LINE
  8
0
 10
-148.645
 20
728.923
 11
-149.045
 21
728.439
  0
LINE
  8
0
 10
-149.045
 20
728.439
 11
-149.382
 21
727.909
  0
LINE
  8
0
 10
-149.382
 20
727.909
 11
-149.649
 21
727.341
  0
LINE
  8
0
 10
-149.649
 20
727.341
 11
-149.843
 21
726.743
  0
LINE
  8
0
 10
-149.843
 20
726.743
 11
-149.961
 21
726.127
  0
LINE
  8
0
 10
-149.961
 20
726.127
 11
-150
 21
725.5
  0
LINE
  8
0
 10
-150
 20
725.5
 11
-150
 21
450.5
  0
LINE
  8
0
 10
-150
 20
450.5
 11
-149.961
 21
449.873
  0
LINE
  8
0
 10
-149.961
 20
449.873
 11
-149.843
 21
449.257
  0
LINE
  8
0
 10
-149.843
 20
449.257
 11
-149.649
 21
448.659
  0
LINE
  8
0
 10
-149.649
 20
448.659
 11
-149.382
 21
448.091
  0
LINE
  8
0
 10
-149.382
 20
448.091
 11
-149.045
 21
447.561
  0
LINE
  8
0
 10
-149.045
 20
447.561
 11
-148.645
 21
447.077
  0
LINE
  8
0
 10
-148.645
 20
447.077
 11
-148.187
 21
446.647
  0
LINE
  8
0
 10
-148.187
 20
446.647
 11
-147.679
 21
446.278
  0
LINE
  8
0
 10
-147.679
 20
446.278
 11
-147.129
 21
445.976
  0
LINE
  8
0
 10
-147.129
 20
445.976
 11
-146.545
 21
445.745
  0
LINE
  8
0
 10
-146.545
 20
445.745
 11
-145.937
 21
445.589
  0
LINE
  8
0
 10
-145.937
 20
445.589
 11
-145.314
 21
445.51
  0
LINE
  8
0
 10
-145.314
 20
445.51
 11
145.314
 21
445.51
  0
LINE
  8
0
 10
145.314
 20
445.51
 11
145.937
 21
445.589
  0
LINE
  8
0
 10
142.387
 20
721.204
 11
142.163
 21
721.232
  0
LINE
  8
0
 10
142.163
 20
721.232
 11
141.944
 21
721.288
  0
LINE
  8
0
 10
141.944
 20
721.288
 11
141.734
 21
721.371
  0
LINE
  8
0
 10
141.734
 20
721.371
 11
141.536
 21
721.48
  0
LINE
  8
0
 10
141.536
 20
721.48
 11
141.353
 21
721.613
  0
LINE
  8
0
 10
141.353
 20
721.613
 11
141.188
 21
721.768
  0
LINE
  8
0
 10
141.188
 20
721.768
 11
141.044
 21
721.942
  0
LINE
  8
0
 10
141.044
 20
721.942
 11
140.923
 21
722.133
  0
LINE
  8
0
 10
140.923
 20
722.133
 11
140.826
 21
722.337
  0
LINE
  8
0
 10
140.826
 20
722.337
 11
140.757
 21
722.552
  0
LINE
  8
0
 10
140.757
 20
722.552
 11
140.714
 21
722.774
  0
LINE
  8
0
 10
140.714
 20
722.774
 11
140.7
 21
723
  0
LINE
  8
0
 10
140.7
 20
723
 11
140.714
 21
723.226
  0
LINE
  8
0
 10
140.714
 20
723.226
 11
140.757
 21
723.448
  0
LINE
  8
0
 10
140.757
 20
723.448
 11
140.826
 21
723.663
  0
LINE
  8
0
 10
140.826
 20
723.663
 11
140.923
 21
723.867
  0
LINE
  8
0
 10
140.923
 20
723.867
 11
141.044
 21
724.058
  0
LINE
  8
0
 10
141.044
 20
724.058
 11
141.188
 21
724.232
  0
LINE
  8
0
 10
141.188
 20
724.232
 11
141.353
 21
724.387
  0
LINE
  8
0
 10
141.353
 20
724.387
 11
141.536
 21
724.52
  0
LINE
  8
0
 10
141.536
 20
724.52
 11
141.734
 21
724.629
  0
LINE
  8
0
 10
141.734
 20
724.629
 11
141.944
 21
724.712
  0
LINE
  8
0
 10
141.944
 20
724.712
 11
142.163
 21
724.768
  0
LINE
  8
0
 10
142.163
 20
724.768
 11
142.387
 21
724.796
  0
LINE
  8
0
 10
142.387
 20
724.796
 11
142.613
 21
724.796
  0
LINE
  8
0
 10
142.613
 20
724.796
 11
142.837
 21
724.768
  0
LINE
  8
0
 10
142.837
 20
724.768
 11
143.056
 21
724.712
  0
LINE
  8
0
 10
143.056
 20
724.712
 11
143.266
 21
724.629
  0
LINE
  8
0
 10
143.266
 20
724.629
 11
143.464
 21
724.52
  0
LINE
  8
0
 10
143.464
 20
724.52
 11
143.647
 21
724.387
  0
LINE
  8
0
 10
143.647
 20
724.387
 11
143.812
 21
724.232
  0
LINE
  8
0
 10
143.812
 20
724.232
 11
143.956
 21
724.058
  0
LINE
  8
0
 10
143.956
 20
724.058
 11
144.077
 21
723.867
  0
LINE
  8
0
 10
144.077
 20
723.867
 11
144.174
 21
723.663
  0
LINE
  8
0
 10
144.174
 20
723.663
 11
144.243
 21
723.448
  0
LINE
  8
0
 10
144.243
 20
723.448
 11
144.286
 21
723.226
  0
LINE
  8
0
 10
144.286
 20
723.226
 11
144.3
 21
723
  0
LINE
  8
0
 10
144.3
 20
723
 11
144.286
 21
722.774
  0
LINE
  8
0
 10
144.286
 20
722.774
 11
144.243
 21
722.552
  0
LINE
  8
0
 10
144.243
 20
722.552
 11
144.174
 21
722.337
  0
LINE
  8
0
 10
144.174
 20
722.337
 11
144.077
 21
722.133
  0
LINE
  8
0
 10
144.077
 20
722.133
 11
143.956
 21
721.942
  0
LINE
  8
0
 10
143.956
 20
721.942
 11
143.812
 21
721.768
  0
LINE
  8
0
 10
143.812
 20
721.768
 11
143.647
 21
721.613
  0
LINE
  8
0
 10
143.647
 20
721.613
 11
143.464
 21
721.48
  0
LINE
  8
0
 10
143.464
 20
721.48
 11
143.266
 21
721.371
  0
LINE
  8
0
 10
143.266
 20
721.371
 11
143.056
 21
721.288
  0
LINE
  8
0
 10
143.056
 20
721.288
 11
142.837
 21
721.232
  0
LINE
  8
0
 10
142.837
 20
721.232
 11
142.613
 21
721.204
  0
LINE
  8
0
 10
142.613
 20
721.204
 11
142.387
 21
721.204
  0
LINE
  8
0
 10
-142.613
 20
721.204
 11
-142.837
 21
721.232
  0
LINE
  8
0
 10
-142.837
 20
721.232
 11
-143.056
 21
721.288
  0
LINE
  8
0
 10
-143.056
 20
721.288
 11
-143.266
 21
721.371
  0
LINE
  8
0
 10
-143.266
 20
721.371
 11
-143.464
 21
721.48
  0
LINE
  8
0
 10
-143.464
 20
721.48
 11
-143.647
 21
721.613
  0
LINE
  8
0
 10
-143.647
 20
721.613
 11
-143.812
 21
721.768
  0
LINE
  8
0
 10
-143.812
 20
721.768
 11
-143.956
 21
721.942
  0
LINE
  8
0
 10
-143.956
 20
721.942
 11
-144.077
 21
722.133
  0
LINE
  8
0
 10
-144.077
 20
722.133
 11
-144.174
 21
722.337
  0
LINE
  8
0
 10
-144.174
 20
722.337
 11
-144.243
 21
722.552
  0
LINE
  8
0
 10
-144.243
 20
722.552
 11
-144.286
 21
722.774
  0
LINE
  8
0
 10
-144.286
 20
722.774
 11
-144.3
 21
723
  0
LINE
  8
0
 10
-144.3
 20
723
 11
-144.286
 21
723.226
  0
LINE
  8
0
 10
-144.286
 20
723.226
 11
-144.243
 21
723.448
  0
LINE
  8
0
 10
-144.243
 20
723.448
 11
-144.174
 21
723.663
  0
LINE
  8
0
 10
-144.174
 20
723.663
 11
-144.077
 21
723.867
  0
LINE
  8
0
 10
-144.077
 20
723.867
 11
-143.956
 21
724.058
  0
LINE
  8
0
 10
-143.956
 20
724.058
 11
-143.812
 21
724.232
  0
LINE
  8
0
 10
-143.812
 20
724.232
 11
-143.647
 21
724.387
  0
LINE
  8
0
 10
-143.647
 20
724.387
 11
-143.464
 21
724.52
  0
LINE
  8
0
 10
-143.464
 20
724.52
 11
-143.266
 21
724.629
  0
LINE
  8
0
 10
-143.266
 20
724.629
 11
-143.056
 21
724.712
  0
LINE
  8
0
 10
-143.056
 20
724.712
 11
-142.837
 21
724.768
  0
LINE
  8
0
 10
-142.837
 20
724.768
 11
-142.613
 21
724.796
  0
LINE
  8
0
 10
-142.613
 20
724.796
 11
-142.387
 21
724.796
  0
LINE
  8
0
 10
-142.387
 20
724.796
 11
-142.163
 21
724.768
  0
LINE
  8
0
 10
-142.163
 20
724.768
 11
-141.944
 21
724.712
  0
LINE
  8
0
 10
-141.944
 20
724.712
 11
-141.734
 21
724.629
  0
LINE
  8
0
 10
-141.734
 20
724.629
 11
-141.536
 21
724.52
  0
LINE
  8
0
 10
-141.536
 20
724.52
 11
-141.353
 21
724.387
  0
LINE
  8
0
 10
-141.353
 20
724.387
 11
-141.188
 21
724.232
  0
LINE
  8
0
 10
-141.188
 20
724.232
 11
-141.044
 21
724.058
  0
LINE
  8
0
 10
-141.044
 20
724.058
 11
-140.923
 21
723.867
  0
LINE
  8
0
 10
-140.923
 20
723.867
 11
-140.826
 21
723.663
  0
LINE
  8
0
 10
-140.826
 20
723.663
 11
-140.757
 21
723.448
  0
LINE
  8
0
 10
-140.757
 20
723.448
 11
-140.714
 21
723.226
  0
LINE
  8
0
 10
-140.714
 20
723.226
 11
-140.7
 21
723
  0
LINE
  8
0
 10
-140.7
 20
723
 11
-140.714
 21
722.774
  0
LINE
  8
0
 10
-140.714
 20
722.774
 11
-140.757
 21
722.552
  0
LINE
  8
0
 10
-140.757
 20
722.552
 11
-140.826
 21
722.337
  0
LINE
  8
0
 10
-140.826
 20
722.337
 11
-140.923
 21
722.133
  0
LINE
  8
0
 10
-140.923
 20
722.133
 11
-141.044
 21
721.942
  0
LINE
  8
0
 10
-141.044
 20
721.942
 11
-141.188
 21
721.768
  0
LINE
  8
0
 10
-141.188
 20
721.768
 11
-141.353
 21
721.613
  0
LINE
  8
0
 10
-141.353
 20
721.613
 11
-141.536
 21
721.48
  0
LINE
  8
0
 10
-141.536
 20
721.48
 11
-141.734
 21
721.371
  0
LINE
  8
0
 10
-141.734
 20
721.371
 11
-141.944
 21
721.288
  0
LINE
  8
0
 10
-141.944
 20
721.288
 11
-142.163
 21
721.232
  0
LINE
  8
0
 10
-142.163
 20
721.232
 11
-142.387
 21
721.204
  0
LINE
  8
0
 10
-142.387
 20
721.204
 11
-142.613
 21
721.204
  0
LINE
  8
0
 10
-142.613
 20
451.204
 11
-142.837
 21
451.232
  0
LINE
  8
0
 10
-142.837
 20
451.232
 11
-143.056
 21
451.288
  0
LINE
  8
0
 10
-143.056
 20
451.288
 11
-143.266
 21
451.371
  0
LINE
  8
0
 10
-143.266
 20
451.371
 11
-143.464
 21
451.48
  0
LINE
  8
0
 10
-143.464
 20
451.48
 11
-143.647
 21
451.613
  0
LINE
  8
0
 10
-143.647
 20
451.613
 11
-143.812
 21
451.768
  0
LINE
  8
0
 10
-143.812
 20
451.768
 11
-143.956
 21
451.942
  0
LINE
  8
0
 10
-143.956
 20
451.942
 11
-144.077
 21
452.133
  0
LINE
  8
0
 10
-144.077
 20
452.133
 11
-144.174
 21
452.337
  0
LINE
  8
0
 10
-144.174
 20
452.337
 11
-144.243
 21
452.552
  0
LINE
  8
0
 10
-144.243
 20
452.552
 11
-144.286
 21
452.774
  0
LINE
  8
0
 10
-144.286
 20
452.774
 11
-144.3
 21
453
  0
LINE
  8
0
 10
-144.3
 20
453
 11
-144.286
 21
453.226
  0
LINE
  8
0
 10
-144.286
 20
453.226
 11
-144.243
 21
453.448
  0
LINE
  8
0
 10
-144.243
 20
453.448
 11
-144.174
 21
453.663
  0
LINE
  8
0
 10
-144.174
 20
453.663
 11
-144.077
 21
453.867
  0
LINE
  8
0
 10
-144.077
 20
453.867
 11
-143.956
 21
454.058
  0
LINE
  8
0
 10
-143.956
 20
454.058
 11
-143.812
 21
454.232
  0
LINE
  8
0
 10
-143.812
 20
454.232
 11
-143.647
 21
454.387
  0
LINE
  8
0
 10
-143.647
 20
454.387
 11
-143.464
 21
454.52
  0
LINE
  8
0
 10
-143.464
 20
454.52
 11
-143.266
 21
454.629
  0
LINE
  8
0
 10
-143.266
 20
454.629
 11
-143.056
 21
454.712
  0
LINE
  8
0
 10
-143.056
 20
454.712
 11
-142.837
 21
454.768
  0
LINE
  8
0
 10
-142.837
 20
454.768
 11
-142.613
 21
454.796
  0
LINE
  8
0
 10
-142.613
 20
454.796
 11
-142.387
 21
454.796
  0
LINE
  8
0
 10
-142.387
 20
454.796
 11
-142.163
 21
454.768
  0
LINE
  8
0
 10
-142.163
 20
454.768
 11
-141.944
 21
454.712
  0
LINE
  8
0
 10
-141.944
 20
454.712
 11
-141.734
 21
454.629
  0
LINE
  8
0
 10
-141.734
 20
454.629
 11
-141.536
 21
454.52
  0
LINE
  8
0
 10
-141.536
 20
454.52
 11
-141.353
 21
454.387
  0
LINE
  8
0
 10
-141.353
 20
454.387
 11
-141.188
 21
454.232
  0
LINE
  8
0
 10
-141.188
 20
454.232
 11
-141.044
 21
454.058
  0
LINE
  8
0
 10
-141.044
 20
454.058
 11
-140.923
 21
453.867
  0
LINE
  8
0
 10
-140.923
 20
453.867
 11
-140.826
 21
453.663
  0
LINE
  8
0
 10
-140.826
 20
453.663
 11
-140.757
 21
453.448
  0
LINE
  8
0
 10
-140.757
 20
453.448
 11
-140.714
 21
453.226
  0
LINE
  8
0
 10
-140.714
 20
453.226
 11
-140.7
 21
453
  0
LINE
  8
0
 10
-140.7
 20
453
 11
-140.714
 21
452.774
  0
LINE
  8
0
 10
-140.714
 20
452.774
 11
-140.757
 21
452.552
  0
LINE
  8
0
 10
-140.757
 20
452.552
 11
-140.826
 21
452.337
  0
LINE
  8
0
 10
-140.826
 20
452.337
 11
-140.923
 21
452.133
  0
LINE
  8
0
 10
-140.923
 20
452.133
 11
-141.044
 21
451.942
  0
LINE
  8
0
 10
-141.044
 20
451.942
 11
-141.188
 21
451.768
  0
LINE
  8
0
 10
-141.188
 20
451.768
 11
-141.353
 21
451.613
  0
LINE
  8
0
 10
-141.353
 20
451.613
 11
-141.536
 21
451.48
  0
LINE
  8
0
 10
-141.536
 20
451.48
 11
-141.734
 21
451.371
  0
LINE
  8
0
 10
-141.734
 20
451.371
 11
-141.944
 21
451.288
  0
LINE
  8
0
 10
-141.944
 20
451.288
 11
-142.163
 21
451.232
  0
LINE
  8
0
 10
-142.163
 20
451.232
 11
-142.387
 21
451.204
  0
LINE
  8
0
 10
-142.387
 20
451.204
 11
-142.613
 21
451.204
  0
LINE
  8
0
 10
142.387
 20
451.204
 11
142.163
 21
451.232
  0
LINE
  8
0
 10
142.163
 20
451.232
 11
141.944
 21
451.288
  0
LINE
  8
0
 10
141.944
 20
451.288
 11
141.734
 21
451.371
  0
LINE
  8
0
 10
141.734
 20
451.371
 11
141.536
 21
451.48
  0
LINE
  8
0
 10
141.536
 20
451.48
 11
141.353
 21
451.613
  0
LINE
  8
0
 10
141.353
 20
451.613
 11
141.188
 21
451.768
  0
LINE
  8
0
 10
141.188
 20
451.768
 11
141.044
 21
451.942
  0
LINE
  8
0
 10
141.044
 20
451.942
 11
140.923
 21
452.133
  0
LINE
  8
0
 10
140.923
 20
452.133
 11
140.826
 21
452.337
  0
LINE
  8
0
 10
140.826
 20
452.337
 11
140.757
 21
452.552
  0
LINE
  8
0
 10
140.757
 20
452.552
 11
140.714
 21
452.774
  0
LINE
  8
0
 10
140.714
 20
452.774
 11
140.7
 21
453
  0
LINE
  8
0
 10
140.7
 20
453
 11
140.714
 21
453.226
  0
LINE
  8
0
 10
140.714
 20
453.226
 11
140.757
 21
453.448
  0
LINE
  8
0
 10
140.757
 20
453.448
 11
140.826
 21
453.663
  0
LINE
  8
0
 10
140.826
 20
453.663
 11
140.923
 21
453.867
  0
LINE
  8
0
 10
140.923
 20
453.867
 11
141.044
 21
454.058
  0
LINE
  8
0
 10
141.044
 20
454.058
 11
141.188
 21
454.232
  0
LINE
  8
0
 10
141.188
 20
454.232
 11
141.353
 21
454.387
  0
LINE
  8
0
 10
141.353
 20
454.387
 11
141.536
 21
454.52
  0
LINE
  8
0
 10
141.536
 20
454.52
 11
141.734
 21
454.629
  0
LINE
  8
0
 10
141.734
 20
454.629
 11
141.944
 21
454.712
  0
LINE
  8
0
 10
141.944
 20
454.712
 11
142.163
 21
454.768
  0
LINE
  8
0
 10
142.163
 20
454.768
 11
142.387
 21
454.796
  0
LINE
  8
0
 10
142.387
 20
454.796
 11
142.613
 21
454.796
  0
LINE
  8
0
 10
142.613
 20
454.796
 11
142.837
 21
454.768
  0
LINE
  8
0
 10
142.837
 20
454.768
 11
143.056
 21
454.712
  0
LINE
  8
0
 10
143.056
 20
454.712
 11
143.266
 21
454.629
  0
LINE
  8
0
 10
143.266
 20
454.629
 11
143.464
 21
454.52
  0
LINE
  8
0
 10
143.464
 20
454.52
 11
143.647
 21
454.387
  0
LINE
  8
0
 10
143.647
 20
454.387
 11
143.812
 21
454.232
  0
LINE
  8
0
 10
143.812
 20
454.232
 11
143.956
 21
454.058
  0
LINE
  8
0
 10
143.956
 20
454.058
 11
144.077
 21
453.867
  0
LINE
  8
0
 10
144.077
 20
453.867
 11
144.174
 21
453.663
  0
LINE
  8
0
 10
144.174
 20
453.663
 11
144.243
 21
453.448
  0
LINE
  8
0
 10
144.243
 20
453.448
 11
144.286
 21
453.226
  0
LINE
  8
0
 10
144.286
 20
453.226
 11
144.3
 21
453
  0
LINE
  8
0
 10
144.3
 20
453
 11
144.286
 21
452.774
  0
LINE
  8
0
 10
144.286
 20
452.774
 11
144.243
 21
452.552
  0
LINE
  8
0
 10
144.243
 20
452.552
 11
144.174
 21
452.337
  0
LINE
  8
0
 10
144.174
 20
452.337
 11
144.077
 21
452.133
  0
LINE
  8
0
 10
144.077
 20
452.133
 11
143.956
 21
451.942
  0
LINE
  8
0
 10
143.956
 20
451.942
 11
143.812
 21
451.768
  0
LINE
  8
0
 10
143.812
 20
451.768
 11
143.647
 21
451.613
  0
LINE
  8
0
 10
143.647
 20
451.613
 11
143.464
 21
451.48
  0
LINE
  8
0
 10
143.464
 20
451.48
 11
143.266
 21
451.371
  0
LINE
  8
0
 10
143.266
 20
451.371
 11
143.056
 21
451.288
  0
LINE
  8
0
 10
143.056
 20
451.288
 11
142.837
 21
451.232
  0
LINE
  8
0
 10
142.837
 20
451.232
 11
142.613
 21
451.204
  0
LINE
  8
0
 10
142.613
 20
451.204
 11
142.387
 21
451.204
  0
ENDSEC
  0
SECTION
  2
OBJECTS
  0
DICTIONARY
  0
ENDSEC
  0
EOF
