<?xml version="1.0" standalone="no"?>
<!DOCTYPE svg PUBLIC "-//W3C//DTD SVG 1.1//EN" "http://www.w3.org/Graphics/SVG/1.1/DTD/svg11.dtd">
<svg width="242mm" height="280mm" viewBox="-122 -500 242 280" xmlns="http://www.w3.org/2000/svg" version="1.1">
<title>OpenSCAD Model</title>
<path d="
M 115.937,-364.589 L 116.545,-364.745 L 117.129,-364.976 L 117.679,-365.278 L 118.187,-365.647 L 118.645,-366.077
 L 119.045,-366.561 L 119.382,-367.091 L 119.649,-367.659 L 119.843,-368.257 L 119.961,-368.873 L 120,-369.5
 L 120,-494.5 L 119.961,-495.127 L 119.843,-495.743 L 119.649,-496.341 L 119.382,-496.909 L 119.045,-497.439
 L 118.645,-497.923 L 118.187,-498.353 L 117.679,-498.722 L 117.129,-499.024 L 116.545,-499.255 L 115.937,-499.411
 L 115.314,-499.49 L -115.314,-499.49 L -115.937,-499.411 L -116.545,-499.255 L -117.129,-499.024 L -117.679,-498.722
 L -118.187,-498.353 L -118.5,-498.059 L -118.5,-499.479 L -121.5,-499.479 L -121.5,-364.521 L -118.5,-364.521
 L -118.5,-365.941 L -118.187,-365.647 L -117.679,-365.278 L -117.129,-364.976 L -116.545,-364.745 L -115.937,-364.589
 L -115.314,-364.51 L 115.314,-364.51 z
M -114.695,-366.893 L -115.083,-366.942 L -115.462,-367.039 L -115.825,-367.183 L -116.168,-367.372 L -116.484,-367.601
 L -116.769,-367.869 L -117.018,-368.17 L -117.228,-368.5 L -117.394,-368.854 L -117.515,-369.226 L -117.588,-369.61
 L -117.613,-370 L -117.613,-494 L -117.588,-494.39 L -117.515,-494.774 L -117.394,-495.146 L -117.228,-495.5
 L -117.018,-495.83 L -116.769,-496.131 L -116.484,-496.399 L -116.168,-496.628 L -115.825,-496.817 L -115.462,-496.961
 L -115.083,-497.058 L -114.695,-497.107 L 114.695,-497.107 L 115.083,-497.058 L 115.462,-496.961 L 115.825,-496.817
 L 116.168,-496.628 L 116.484,-496.399 L 116.769,-496.131 L 117.018,-495.83 L 117.228,-495.5 L 117.394,-495.146
 L 117.515,-494.774 L 117.588,-494.39 L 117.613,-494 L 117.613,-370 L 117.588,-369.61 L 117.515,-369.226
 L 117.394,-368.854 L 117.228,-368.5 L 117.018,-368.17 L 116.769,-367.869 L 116.484,-367.601 L 116.168,-367.372
 L 115.825,-367.183 L 115.462,-367.039 L 115.083,-366.942 L 114.695,-366.893 z
M 115.937,-220.589 L 116.545,-220.745 L 117.129,-220.976 L 117.679,-221.278 L 118.187,-221.647 L 118.645,-222.077
 L 119.045,-222.561 L 119.382,-223.091 L 119.649,-223.659 L 119.843,-224.257 L 119.961,-224.873 L 120,-225.5
 L 120,-350.5 L 119.961,-351.127 L 119.843,-351.743 L 119.649,-352.341 L 119.382,-352.909 L 119.045,-353.439
 L 118.645,-353.923 L 118.187,-354.353 L 117.679,-354.722 L 117.129,-355.024 L 116.545,-355.255 L 115.937,-355.411
 L 115.314,-355.49 L -115.314,-355.49 L -115.937,-355.411 L -116.545,-355.255 L -117.129,-355.024 L -117.679,-354.722
 L -118.187,-354.353 L -118.5,-354.059 L -118.5,-354.153 L -121.5,-354.153 L -121.5,-221.847 L -118.5,-221.847
 L -118.5,-221.941 L -118.187,-221.647 L -117.679,-221.278 L -117.129,-220.976 L -116.545,-220.745 L -115.937,-220.589
 L -115.314,-220.51 L 115.314,-220.51 z
M 112.366,-345.869 L 112.1,-345.903 L 111.84,-345.969 L 111.591,-346.068 L 111.356,-346.197 L 111.139,-346.355
 L 110.943,-346.538 L 110.773,-346.745 L 110.629,-346.971 L 110.515,-347.214 L 110.432,-347.469 L 110.382,-347.732
 L 110.365,-348 L 110.382,-348.268 L 110.432,-348.531 L 110.515,-348.786 L 110.629,-349.029 L 110.773,-349.255
 L 110.943,-349.462 L 111.139,-349.645 L 111.356,-349.803 L 111.591,-349.932 L 111.84,-350.031 L 112.1,-350.097
 L 112.366,-350.131 L 112.634,-350.131 L 112.9,-350.097 L 113.16,-350.031 L 113.409,-349.932 L 113.644,-349.803
 L 113.861,-349.645 L 114.057,-349.462 L 114.227,-349.255 L 114.371,-349.029 L 114.485,-348.786 L 114.568,-348.531
 L 114.618,-348.268 L 114.635,-348 L 114.618,-347.732 L 114.568,-347.469 L 114.485,-347.214 L 114.371,-346.971
 L 114.227,-346.745 L 114.057,-346.538 L 113.861,-346.355 L 113.644,-346.197 L 113.409,-346.068 L 113.16,-345.969
 L 112.9,-345.903 L 112.634,-345.869 z
M -112.634,-345.869 L -112.9,-345.903 L -113.16,-345.969 L -113.409,-346.068 L -113.644,-346.197 L -113.861,-346.355
 L -114.057,-346.538 L -114.227,-346.745 L -114.371,-346.971 L -114.485,-347.214 L -114.568,-347.469 L -114.618,-347.732
 L -114.635,-348 L -114.618,-348.268 L -114.568,-348.531 L -114.485,-348.786 L -114.371,-349.029 L -114.227,-349.255
 L -114.057,-349.462 L -113.861,-349.645 L -113.644,-349.803 L -113.409,-349.932 L -113.16,-350.031 L -112.9,-350.097
 L -112.634,-350.131 L -112.366,-350.131 L -112.1,-350.097 L -111.84,-350.031 L -111.591,-349.932 L -111.356,-349.803
 L -111.139,-349.645 L -110.943,-349.462 L -110.773,-349.255 L -110.629,-349.029 L -110.515,-348.786 L -110.432,-348.531
 L -110.382,-348.268 L -110.365,-348 L -110.382,-347.732 L -110.432,-347.469 L -110.515,-347.214 L -110.629,-346.971
 L -110.773,-346.745 L -110.943,-346.538 L -111.139,-346.355 L -111.356,-346.197 L -111.591,-346.068 L -111.84,-345.969
 L -112.1,-345.903 L -112.366,-345.869 z
M 112.366,-225.869 L 112.1,-225.903 L 111.84,-225.969 L 111.591,-226.068 L 111.356,-226.197 L 111.139,-226.355
 L 110.943,-226.538 L 110.773,-226.745 L 110.629,-226.971 L 110.515,-227.214 L 110.432,-227.469 L 110.382,-227.732
 L 110.365,-228 L 110.382,-228.268 L 110.432,-228.531 L 110.515,-228.786 L 110.629,-229.029 L 110.773,-229.255
 L 110.943,-229.462 L 111.139,-229.645 L 111.356,-229.803 L 111.591,-229.932 L 111.84,-230.031 L 112.1,-230.097
 L 112.366,-230.131 L 112.634,-230.131 L 112.9,-230.097 L 113.16,-230.031 L 113.409,-229.932 L 113.644,-229.803
 L 113.861,-229.645 L 114.057,-229.462 L 114.227,-229.255 L 114.371,-229.029 L 114.485,-228.786 L 114.568,-228.531
 L 114.618,-228.268 L 114.635,-228 L 114.618,-227.732 L 114.568,-227.469 L 114.485,-227.214 L 114.371,-226.971
 L 114.227,-226.745 L 114.057,-226.538 L 113.861,-226.355 L 113.644,-226.197 L 113.409,-226.068 L 113.16,-225.969
 L 112.9,-225.903 L 112.634,-225.869 z
M -112.634,-225.869 L -112.9,-225.903 L -113.16,-225.969 L -113.409,-226.068 L -113.644,-226.197 L -113.861,-226.355
 L -114.057,-226.538 L -114.227,-226.745 L -114.371,-226.971 L -114.485,-227.214 L -114.568,-227.469 L -114.618,-227.732
 L -114.635,-228 L -114.618,-228.268 L -114.568,-228.531 L -114.485,-228.786 L -114.371,-229.029 L -114.227,-229.255
 L -114.057,-229.462 L -113.861,-229.645 L -113.644,-229.803 L -113.409,-229.932 L -113.16,-230.031 L -112.9,-230.097
 L -112.634,-230.131 L -112.366,-230.131 L -112.1,-230.097 L -111.84,-230.031 L -111.591,-229.932 L -111.356,-229.803
 L -111.139,-229.645 L -110.943,-229.462 L -110.773,-229.255 L -110.629,-229.029 L -110.515,-228.786 L -110.432,-228.531
 L -110.382,-228.268 L -110.365,-228 L -110.382,-227.732 L -110.432,-227.469 L -110.515,-227.214 L -110.629,-226.971
 L -110.773,-226.745 L -110.943,-226.538 L -111.139,-226.355 L -111.356,-226.197 L -111.591,-226.068 L -111.84,-225.969
 L -112.1,-225.903 L -112.366,-225.869 z
" stroke="black" fill="lightgray" stroke-width="0.5"/>
</svg>
