<?xml version="1.0" standalone="no"?>
<!DOCTYPE svg PUBLIC "-//W3C//DTD SVG 1.1//EN" "http://www.w3.org/Graphics/SVG/1.1/DTD/svg11.dtd">
<svg width="270mm" height="1048mm" viewBox="-135 -1976 270 1048" xmlns="http://www.w3.org/2000/svg" version="1.1">
<title>OpenSCAD Model</title>
<path d="
M 130.937,-1720.59 L 131.545,-1720.74 L 132.129,-1720.98 L 132.679,-1721.28 L 133.187,-1721.65 L 133.645,-1722.08
 L 134.045,-1722.56 L 134.382,-1723.09 L 134.649,-1723.66 L 134.843,-1724.26 L 134.961,-1724.87 L 135,-1725.5
 L 135,-1970.5 L 134.961,-1971.13 L 134.843,-1971.74 L 134.649,-1972.34 L 134.382,-1972.91 L 134.045,-1973.44
 L 133.645,-1973.92 L 133.187,-1974.35 L 132.679,-1974.72 L 132.129,-1975.02 L 131.545,-1975.26 L 130.937,-1975.41
 L 130.314,-1975.49 L -130.314,-1975.49 L -130.937,-1975.41 L -131.545,-1975.26 L -132.129,-1975.02 L -132.679,-1974.72
 L -133.187,-1974.35 L -133.645,-1973.92 L -134.045,-1973.44 L -134.382,-1972.91 L -134.649,-1972.34 L -134.843,-1971.74
 L -134.961,-1971.13 L -135,-1970.5 L -135,-1725.5 L -134.961,-1724.87 L -134.843,-1724.26 L -134.649,-1723.66
 L -134.382,-1723.09 L -134.045,-1722.56 L -133.645,-1722.08 L -133.187,-1721.65 L -132.679,-1721.28 L -132.129,-1720.98
 L -131.545,-1720.74 L -130.937,-1720.59 L -130.314,-1720.51 L 130.314,-1720.51 z
M -130.048,-1721.01 L -130.64,-1721.08 L -131.218,-1721.23 L -131.772,-1721.45 L -132.295,-1721.74 L -132.778,-1722.09
 L -133.213,-1722.5 L -133.593,-1722.96 L -133.912,-1723.46 L -134.166,-1724 L -134.351,-1724.57 L -134.463,-1725.15
 L -134.5,-1725.75 L -134.5,-1970.25 L -134.463,-1970.85 L -134.351,-1971.43 L -134.166,-1972 L -133.912,-1972.54
 L -133.593,-1973.04 L -133.213,-1973.5 L -132.778,-1973.91 L -132.295,-1974.26 L -131.772,-1974.55 L -131.218,-1974.77
 L -130.64,-1974.92 L -130.048,-1974.99 L 130.048,-1974.99 L 130.64,-1974.92 L 131.218,-1974.77 L 131.772,-1974.55
 L 132.295,-1974.26 L 132.778,-1973.91 L 133.213,-1973.5 L 133.593,-1973.04 L 133.912,-1972.54 L 134.166,-1972
 L 134.351,-1971.43 L 134.463,-1970.85 L 134.5,-1970.25 L 134.5,-1725.75 L 134.463,-1725.15 L 134.351,-1724.57
 L 134.166,-1724 L 133.912,-1723.46 L 133.593,-1722.96 L 133.213,-1722.5 L 132.778,-1722.09 L 132.295,-1721.74
 L 131.772,-1721.45 L 131.218,-1721.23 L 130.64,-1721.08 L 130.048,-1721.01 z
M 130.937,-1456.59 L 131.545,-1456.74 L 132.129,-1456.98 L 132.679,-1457.28 L 133.187,-1457.65 L 133.645,-1458.08
 L 134.045,-1458.56 L 134.382,-1459.09 L 134.649,-1459.66 L 134.843,-1460.26 L 134.961,-1460.87 L 135,-1461.5
 L 135,-1706.5 L 134.961,-1707.13 L 134.843,-1707.74 L 134.649,-1708.34 L 134.382,-1708.91 L 134.045,-1709.44
 L 133.645,-1709.92 L 133.187,-1710.35 L 132.679,-1710.72 L 132.129,-1711.02 L 131.545,-1711.26 L 130.937,-1711.41
 L 130.314,-1711.49 L -130.314,-1711.49 L -130.937,-1711.41 L -131.545,-1711.26 L -132.129,-1711.02 L -132.679,-1710.72
 L -133.187,-1710.35 L -133.645,-1709.92 L -134.045,-1709.44 L -134.382,-1708.91 L -134.649,-1708.34 L -134.843,-1707.74
 L -134.961,-1707.13 L -135,-1706.5 L -135,-1461.5 L -134.961,-1460.87 L -134.843,-1460.26 L -134.649,-1459.66
 L -134.382,-1459.09 L -134.045,-1458.56 L -133.645,-1458.08 L -133.187,-1457.65 L -132.679,-1457.28 L -132.129,-1456.98
 L -131.545,-1456.74 L -130.937,-1456.59 L -130.314,-1456.51 L 130.314,-1456.51 z
M -130.048,-1457.01 L -130.64,-1457.08 L -131.218,-1457.23 L -131.772,-1457.45 L -132.295,-1457.74 L -132.778,-1458.09
 L -133.213,-1458.5 L -133.593,-1458.96 L -133.912,-1459.46 L -134.166,-1460 L -134.351,-1460.57 L -134.463,-1461.15
 L -134.5,-1461.75 L -134.5,-1706.25 L -134.463,-1706.85 L -134.351,-1707.43 L -134.166,-1708 L -133.912,-1708.54
 L -133.593,-1709.04 L -133.213,-1709.5 L -132.778,-1709.91 L -132.295,-1710.26 L -131.772,-1710.55 L -131.218,-1710.77
 L -130.64,-1710.92 L -130.048,-1710.99 L 130.048,-1710.99 L 130.64,-1710.92 L 131.218,-1710.77 L 131.772,-1710.55
 L 132.295,-1710.26 L 132.778,-1709.91 L 133.213,-1709.5 L 133.593,-1709.04 L 133.912,-1708.54 L 134.166,-1708
 L 134.351,-1707.43 L 134.463,-1706.85 L 134.5,-1706.25 L 134.5,-1461.75 L 134.463,-1461.15 L 134.351,-1460.57
 L 134.166,-1460 L 133.912,-1459.46 L 133.593,-1458.96 L 133.213,-1458.5 L 132.778,-1458.09 L 132.295,-1457.74
 L 131.772,-1457.45 L 131.218,-1457.23 L 130.64,-1457.08 L 130.048,-1457.01 z
M 130.937,-1192.59 L 131.545,-1192.74 L 132.129,-1192.98 L 132.679,-1193.28 L 133.187,-1193.65 L 133.645,-1194.08
 L 134.045,-1194.56 L 134.382,-1195.09 L 134.649,-1195.66 L 134.843,-1196.26 L 134.961,-1196.87 L 135,-1197.5
 L 135,-1442.5 L 134.961,-1443.13 L 134.843,-1443.74 L 134.649,-1444.34 L 134.382,-1444.91 L 134.045,-1445.44
 L 133.645,-1445.92 L 133.187,-1446.35 L 132.679,-1446.72 L 132.129,-1447.02 L 131.545,-1447.26 L 130.937,-1447.41
 L 130.314,-1447.49 L -130.314,-1447.49 L -130.937,-1447.41 L -131.545,-1447.26 L -132.129,-1447.02 L -132.679,-1446.72
 L -133.187,-1446.35 L -133.645,-1445.92 L -134.045,-1445.44 L -134.382,-1444.91 L -134.649,-1444.34 L -134.843,-1443.74
 L -134.961,-1443.13 L -135,-1442.5 L -135,-1197.5 L -134.961,-1196.87 L -134.843,-1196.26 L -134.649,-1195.66
 L -134.382,-1195.09 L -134.045,-1194.56 L -133.645,-1194.08 L -133.187,-1193.65 L -132.679,-1193.28 L -132.129,-1192.98
 L -131.545,-1192.74 L -130.937,-1192.59 L -130.314,-1192.51 L 130.314,-1192.51 z
M -130.037,-1193.18 L -130.608,-1193.25 L -131.165,-1193.4 L -131.699,-1193.61 L -132.203,-1193.88 L -132.668,-1194.22
 L -133.088,-1194.62 L -133.454,-1195.06 L -133.762,-1195.54 L -134.007,-1196.06 L -134.185,-1196.61 L -134.292,-1197.18
 L -134.328,-1197.75 L -134.328,-1442.25 L -134.292,-1442.82 L -134.185,-1443.39 L -134.007,-1443.94 L -133.762,-1444.46
 L -133.454,-1444.94 L -133.088,-1445.38 L -132.668,-1445.78 L -132.203,-1446.12 L -131.699,-1446.39 L -131.165,-1446.6
 L -130.608,-1446.75 L -130.037,-1446.82 L 130.037,-1446.82 L 130.608,-1446.75 L 131.165,-1446.6 L 131.699,-1446.39
 L 132.203,-1446.12 L 132.668,-1445.78 L 133.088,-1445.38 L 133.454,-1444.94 L 133.762,-1444.46 L 134.007,-1443.94
 L 134.185,-1443.39 L 134.292,-1442.82 L 134.328,-1442.25 L 134.328,-1197.75 L 134.292,-1197.18 L 134.185,-1196.61
 L 134.007,-1196.06 L 133.762,-1195.54 L 133.454,-1195.06 L 133.088,-1194.62 L 132.668,-1194.22 L 132.203,-1193.88
 L 131.699,-1193.61 L 131.165,-1193.4 L 130.608,-1193.25 L 130.037,-1193.18 z
M 130.937,-928.589 L 131.545,-928.745 L 132.129,-928.976 L 132.679,-929.278 L 133.187,-929.647 L 133.645,-930.077
 L 134.045,-930.561 L 134.382,-931.091 L 134.649,-931.659 L 134.843,-932.257 L 134.961,-932.873 L 135,-933.5
 L 135,-1178.5 L 134.961,-1179.13 L 134.843,-1179.74 L 134.649,-1180.34 L 134.382,-1180.91 L 134.045,-1181.44
 L 133.645,-1181.92 L 133.187,-1182.35 L 132.679,-1182.72 L 132.129,-1183.02 L 131.545,-1183.26 L 130.937,-1183.41
 L 130.314,-1183.49 L -130.314,-1183.49 L -130.937,-1183.41 L -131.545,-1183.26 L -132.129,-1183.02 L -132.679,-1182.72
 L -133.187,-1182.35 L -133.645,-1181.92 L -134.045,-1181.44 L -134.382,-1180.91 L -134.649,-1180.34 L -134.843,-1179.74
 L -134.961,-1179.13 L -135,-1178.5 L -135,-933.5 L -134.961,-932.873 L -134.843,-932.257 L -134.649,-931.659
 L -134.382,-931.091 L -134.045,-930.561 L -133.645,-930.077 L -133.187,-929.647 L -132.679,-929.278 L -132.129,-928.976
 L -131.545,-928.745 L -130.937,-928.589 L -130.314,-928.51 L 130.314,-928.51 z
M -129.882,-931.645 L -130.145,-931.678 L -130.402,-931.744 L -130.648,-931.841 L -130.88,-931.969 L -131.095,-932.124
 L -131.288,-932.306 L -131.457,-932.51 L -131.599,-932.734 L -131.711,-932.973 L -131.793,-933.225 L -131.843,-933.486
 L -131.86,-933.75 L -131.86,-1178.25 L -131.843,-1178.51 L -131.793,-1178.77 L -131.711,-1179.03 L -131.599,-1179.27
 L -131.457,-1179.49 L -131.288,-1179.69 L -131.095,-1179.88 L -130.88,-1180.03 L -130.648,-1180.16 L -130.402,-1180.26
 L -130.145,-1180.32 L -129.882,-1180.36 L 129.882,-1180.36 L 130.145,-1180.32 L 130.402,-1180.26 L 130.648,-1180.16
 L 130.88,-1180.03 L 131.095,-1179.88 L 131.288,-1179.69 L 131.457,-1179.49 L 131.599,-1179.27 L 131.711,-1179.03
 L 131.793,-1178.77 L 131.843,-1178.51 L 131.86,-1178.25 L 131.86,-933.75 L 131.843,-933.486 L 131.793,-933.225
 L 131.711,-932.973 L 131.599,-932.734 L 131.457,-932.51 L 131.288,-932.306 L 131.095,-932.124 L 130.88,-931.969
 L 130.648,-931.841 L 130.402,-931.744 L 130.145,-931.678 L 129.882,-931.645 z
" stroke="black" fill="lightgray" stroke-width="0.5"/>
</svg>
