  0
SECTION
  2
BLOCKS
  0
ENDSEC
  0
SECTION
  2
ENTITIES
  0
LINE
  8
0
 10
145.937
 20
1621.59
 11
146.545
 21
1621.74
  0
LINE
  8
0
 10
146.545
 20
1621.74
 11
147.129
 21
1621.98
  0
LINE
  8
0
 10
147.129
 20
1621.98
 11
147.679
 21
1622.28
  0
LINE
  8
0
 10
147.679
 20
1622.28
 11
148.187
 21
1622.65
  0
LINE
  8
0
 10
148.187
 20
1622.65
 11
148.645
 21
1623.08
  0
LINE
  8
0
 10
148.645
 20
1623.08
 11
149.045
 21
1623.56
  0
LINE
  8
0
 10
149.045
 20
1623.56
 11
149.382
 21
1624.09
  0
LINE
  8
0
 10
149.382
 20
1624.09
 11
149.649
 21
1624.66
  0
LINE
  8
0
 10
149.649
 20
1624.66
 11
149.843
 21
1625.26
  0
LINE
  8
0
 10
149.843
 20
1625.26
 11
149.961
 21
1625.87
  0
LINE
  8
0
 10
149.961
 20
1625.87
 11
150
 21
1626.5
  0
LINE
  8
0
 10
150
 20
1626.5
 11
150
 21
1901.5
  0
LINE
  8
0
 10
150
 20
1901.5
 11
149.961
 21
1902.13
  0
LINE
  8
0
 10
149.961
 20
1902.13
 11
149.843
 21
1902.74
  0
LINE
  8
0
 10
149.843
 20
1902.74
 11
149.649
 21
1903.34
  0
LINE
  8
0
 10
149.649
 20
1903.34
 11
149.382
 21
1903.91
  0
LINE
  8
0
 10
149.382
 20
1903.91
 11
149.045
 21
1904.44
  0
LINE
  8
0
 10
149.045
 20
1904.44
 11
148.645
 21
1904.92
  0
LINE
  8
0
 10
148.645
 20
1904.92
 11
148.187
 21
1905.35
  0
LINE
  8
0
 10
148.187
 20
1905.35
 11
147.679
 21
1905.72
  0
LINE
  8
0
 10
147.679
 20
1905.72
 11
147.129
 21
1906.02
  0
LINE
  8
0
 10
147.129
 20
1906.02
 11
146.545
 21
1906.26
  0
LINE
  8
0
 10
146.545
 20
1906.26
 11
145.937
 21
1906.41
  0
LINE
  8
0
 10
145.937
 20
1906.41
 11
145.314
 21
1906.49
  0
LINE
  8
0
 10
145.314
 20
1906.49
 11
-145.314
 21
1906.49
  0
LINE
  8
0
 10
-145.314
 20
1906.49
 11
-145.937
 21
1906.41
  0
LINE
  8
0
 10
-145.937
 20
1906.41
 11
-146.545
 21
1906.26
  0
LINE
  8
0
 10
-146.545
 20
1906.26
 11
-147.129
 21
1906.02
  0
LINE
  8
0
 10
-147.129
 20
1906.02
 11
-147.679
 21
1905.72
  0
LINE
  8
0
 10
-147.679
 20
1905.72
 11
-148.187
 21
1905.35
  0
LINE
  8
0
 10
-148.187
 20
1905.35
 11
-148.645
 21
1904.92
  0
LINE
  8
0
 10
-148.645
 20
1904.92
 11
-149.045
 21
1904.44
  0
LINE
  8
0
 10
-149.045
 20
1904.44
 11
-149.382
 21
1903.91
  0
LINE
  8
0
 10
-149.382
 20
1903.91
 11
-149.649
 21
1903.34
  0
LINE
  8
0
 10
-149.649
 20
1903.34
 11
-149.843
 21
1902.74
  0
LINE
  8
0
 10
-149.843
 20
1902.74
 11
-149.961
 21
1902.13
  0
LINE
  8
0
 10
-149.961
 20
1902.13
 11
-150
 21
1901.5
  0
LINE
  8
0
 10
-150
 20
1901.5
 11
-150
 21
1626.5
  0
LINE
  8
0
 10
-150
 20
1626.5
 11
-149.961
 21
1625.87
  0
LINE
  8
0
 10
-149.961
 20
1625.87
 11
-149.843
 21
1625.26
  0
LINE
  8
0
 10
-149.843
 20
1625.26
 11
-149.649
 21
1624.66
  0
LINE
  8
0
 10
-149.649
 20
1624.66
 11
-149.382
 21
1624.09
  0
LINE
  8
0
 10
-149.382
 20
1624.09
 11
-149.045
 21
1623.56
  0
LINE
  8
0
 10
-149.045
 20
1623.56
 11
-148.645
 21
1623.08
  0
LINE
  8
0
 10
-148.645
 20
1623.08
 11
-148.187
 21
1622.65
  0
LINE
  8
0
 10
-148.187
 20
1622.65
 11
-147.679
 21
1622.28
  0
LINE
  8
0
 10
-147.679
 20
1622.28
 11
-147.129
 21
1621.98
  0
LINE
  8
0
 10
-147.129
 20
1621.98
 11
-146.545
 21
1621.74
  0
LINE
  8
0
 10
-146.545
 20
1621.74
 11
-145.937
 21
1621.59
  0
LINE
  8
0
 10
-145.937
 20
1621.59
 11
-145.314
 21
1621.51
  0
LINE
  8
0
 10
-145.314
 20
1621.51
 11
145.314
 21
1621.51
  0
LINE
  8
0
 10
145.314
 20
1621.51
 11
145.937
 21
1621.59
  0
LINE
  8
0
 10
-145.048
 20
1622.01
 11
-145.64
 21
1622.08
  0
LINE
  8
0
 10
-145.64
 20
1622.08
 11
-146.218
 21
1622.23
  0
LINE
  8
0
 10
-146.218
 20
1622.23
 11
-146.772
 21
1622.45
  0
LINE
  8
0
 10
-146.772
 20
1622.45
 11
-147.295
 21
1622.74
  0
LINE
  8
0
 10
-147.295
 20
1622.74
 11
-147.778
 21
1623.09
  0
LINE
  8
0
 10
-147.778
 20
1623.09
 11
-148.213
 21
1623.5
  0
LINE
  8
0
 10
-148.213
 20
1623.5
 11
-148.593
 21
1623.96
  0
LINE
  8
0
 10
-148.593
 20
1623.96
 11
-148.912
 21
1624.46
  0
LINE
  8
0
 10
-148.912
 20
1624.46
 11
-149.166
 21
1625
  0
LINE
  8
0
 10
-149.166
 20
1625
 11
-149.351
 21
1625.57
  0
LINE
  8
0
 10
-149.351
 20
1625.57
 11
-149.463
 21
1626.15
  0
LINE
  8
0
 10
-149.463
 20
1626.15
 11
-149.5
 21
1626.75
  0
LINE
  8
0
 10
-149.5
 20
1626.75
 11
-149.5
 21
1901.25
  0
LINE
  8
0
 10
-149.5
 20
1901.25
 11
-149.463
 21
1901.85
  0
LINE
  8
0
 10
-149.463
 20
1901.85
 11
-149.351
 21
1902.43
  0
LINE
  8
0
 10
-149.351
 20
1902.43
 11
-149.166
 21
1903
  0
LINE
  8
0
 10
-149.166
 20
1903
 11
-148.912
 21
1903.54
  0
LINE
  8
0
 10
-148.912
 20
1903.54
 11
-148.593
 21
1904.04
  0
LINE
  8
0
 10
-148.593
 20
1904.04
 11
-148.213
 21
1904.5
  0
LINE
  8
0
 10
-148.213
 20
1904.5
 11
-147.778
 21
1904.91
  0
LINE
  8
0
 10
-147.778
 20
1904.91
 11
-147.295
 21
1905.26
  0
LINE
  8
0
 10
-147.295
 20
1905.26
 11
-146.772
 21
1905.55
  0
LINE
  8
0
 10
-146.772
 20
1905.55
 11
-146.218
 21
1905.77
  0
LINE
  8
0
 10
-146.218
 20
1905.77
 11
-145.64
 21
1905.92
  0
LINE
  8
0
 10
-145.64
 20
1905.92
 11
-145.048
 21
1905.99
  0
LINE
  8
0
 10
-145.048
 20
1905.99
 11
145.048
 21
1905.99
  0
LINE
  8
0
 10
145.048
 20
1905.99
 11
145.64
 21
1905.92
  0
LINE
  8
0
 10
145.64
 20
1905.92
 11
146.218
 21
1905.77
  0
LINE
  8
0
 10
146.218
 20
1905.77
 11
146.772
 21
1905.55
  0
LINE
  8
0
 10
146.772
 20
1905.55
 11
147.295
 21
1905.26
  0
LINE
  8
0
 10
147.295
 20
1905.26
 11
147.778
 21
1904.91
  0
LINE
  8
0
 10
147.778
 20
1904.91
 11
148.213
 21
1904.5
  0
LINE
  8
0
 10
148.213
 20
1904.5
 11
148.593
 21
1904.04
  0
LINE
  8
0
 10
148.593
 20
1904.04
 11
148.912
 21
1903.54
  0
LINE
  8
0
 10
148.912
 20
1903.54
 11
149.166
 21
1903
  0
LINE
  8
0
 10
149.166
 20
1903
 11
149.351
 21
1902.43
  0
LINE
  8
0
 10
149.351
 20
1902.43
 11
149.463
 21
1901.85
  0
LINE
  8
0
 10
149.463
 20
1901.85
 11
149.5
 21
1901.25
  0
LINE
  8
0
 10
149.5
 20
1901.25
 11
149.5
 21
1626.75
  0
LINE
  8
0
 10
149.5
 20
1626.75
 11
149.463
 21
1626.15
  0
LINE
  8
0
 10
149.463
 20
1626.15
 11
149.351
 21
1625.57
  0
LINE
  8
0
 10
149.351
 20
1625.57
 11
149.166
 21
1625
  0
LINE
  8
0
 10
149.166
 20
1625
 11
148.912
 21
1624.46
  0
LINE
  8
0
 10
148.912
 20
1624.46
 11
148.593
 21
1623.96
  0
LINE
  8
0
 10
148.593
 20
1623.96
 11
148.213
 21
1623.5
  0
LINE
  8
0
 10
148.213
 20
1623.5
 11
147.778
 21
1623.09
  0
LINE
  8
0
 10
147.778
 20
1623.09
 11
147.295
 21
1622.74
  0
LINE
  8
0
 10
147.295
 20
1622.74
 11
146.772
 21
1622.45
  0
LINE
  8
0
 10
146.772
 20
1622.45
 11
146.218
 21
1622.23
  0
LINE
  8
0
 10
146.218
 20
1622.23
 11
145.64
 21
1622.08
  0
LINE
  8
0
 10
145.64
 20
1622.08
 11
145.048
 21
1622.01
  0
LINE
  8
0
 10
145.048
 20
1622.01
 11
-145.048
 21
1622.01
  0
LINE
  8
0
 10
145.937
 20
1327.59
 11
146.545
 21
1327.74
  0
LINE
  8
0
 10
146.545
 20
1327.74
 11
147.129
 21
1327.98
  0
LINE
  8
0
 10
147.129
 20
1327.98
 11
147.679
 21
1328.28
  0
LINE
  8
0
 10
147.679
 20
1328.28
 11
148.187
 21
1328.65
  0
LINE
  8
0
 10
148.187
 20
1328.65
 11
148.645
 21
1329.08
  0
LINE
  8
0
 10
148.645
 20
1329.08
 11
149.045
 21
1329.56
  0
LINE
  8
0
 10
149.045
 20
1329.56
 11
149.382
 21
1330.09
  0
LINE
  8
0
 10
149.382
 20
1330.09
 11
149.649
 21
1330.66
  0
LINE
  8
0
 10
149.649
 20
1330.66
 11
149.843
 21
1331.26
  0
LINE
  8
0
 10
149.843
 20
1331.26
 11
149.961
 21
1331.87
  0
LINE
  8
0
 10
149.961
 20
1331.87
 11
150
 21
1332.5
  0
LINE
  8
0
 10
150
 20
1332.5
 11
150
 21
1607.5
  0
LINE
  8
0
 10
150
 20
1607.5
 11
149.961
 21
1608.13
  0
LINE
  8
0
 10
149.961
 20
1608.13
 11
149.843
 21
1608.74
  0
LINE
  8
0
 10
149.843
 20
1608.74
 11
149.649
 21
1609.34
  0
LINE
  8
0
 10
149.649
 20
1609.34
 11
149.382
 21
1609.91
  0
LINE
  8
0
 10
149.382
 20
1609.91
 11
149.045
 21
1610.44
  0
LINE
  8
0
 10
149.045
 20
1610.44
 11
148.645
 21
1610.92
  0
LINE
  8
0
 10
148.645
 20
1610.92
 11
148.187
 21
1611.35
  0
LINE
  8
0
 10
148.187
 20
1611.35
 11
147.679
 21
1611.72
  0
LINE
  8
0
 10
147.679
 20
1611.72
 11
147.129
 21
1612.02
  0
LINE
  8
0
 10
147.129
 20
1612.02
 11
146.545
 21
1612.26
  0
LINE
  8
0
 10
146.545
 20
1612.26
 11
145.937
 21
1612.41
  0
LINE
  8
0
 10
145.937
 20
1612.41
 11
145.314
 21
1612.49
  0
LINE
  8
0
 10
145.314
 20
1612.49
 11
-145.314
 21
1612.49
  0
LINE
  8
0
 10
-145.314
 20
1612.49
 11
-145.937
 21
1612.41
  0
LINE
  8
0
 10
-145.937
 20
1612.41
 11
-146.545
 21
1612.26
  0
LINE
  8
0
 10
-146.545
 20
1612.26
 11
-147.129
 21
1612.02
  0
LINE
  8
0
 10
-147.129
 20
1612.02
 11
-147.679
 21
1611.72
  0
LINE
  8
0
 10
-147.679
 20
1611.72
 11
-148.187
 21
1611.35
  0
LINE
  8
0
 10
-148.187
 20
1611.35
 11
-148.645
 21
1610.92
  0
LINE
  8
0
 10
-148.645
 20
1610.92
 11
-149.045
 21
1610.44
  0
LINE
  8
0
 10
-149.045
 20
1610.44
 11
-149.382
 21
1609.91
  0
LINE
  8
0
 10
-149.382
 20
1609.91
 11
-149.649
 21
1609.34
  0
LINE
  8
0
 10
-149.649
 20
1609.34
 11
-149.843
 21
1608.74
  0
LINE
  8
0
 10
-149.843
 20
1608.74
 11
-149.961
 21
1608.13
  0
LINE
  8
0
 10
-149.961
 20
1608.13
 11
-150
 21
1607.5
  0
LINE
  8
0
 10
-150
 20
1607.5
 11
-150
 21
1332.5
  0
LINE
  8
0
 10
-150
 20
1332.5
 11
-149.961
 21
1331.87
  0
LINE
  8
0
 10
-149.961
 20
1331.87
 11
-149.843
 21
1331.26
  0
LINE
  8
0
 10
-149.843
 20
1331.26
 11
-149.649
 21
1330.66
  0
LINE
  8
0
 10
-149.649
 20
1330.66
 11
-149.382
 21
1330.09
  0
LINE
  8
0
 10
-149.382
 20
1330.09
 11
-149.045
 21
1329.56
  0
LINE
  8
0
 10
-149.045
 20
1329.56
 11
-148.645
 21
1329.08
  0
LINE
  8
0
 10
-148.645
 20
1329.08
 11
-148.187
 21
1328.65
  0
LINE
  8
0
 10
-148.187
 20
1328.65
 11
-147.679
 21
1328.28
  0
LINE
  8
0
 10
-147.679
 20
1328.28
 11
-147.129
 21
1327.98
  0
LINE
  8
0
 10
-147.129
 20
1327.98
 11
-146.545
 21
1327.74
  0
LINE
  8
0
 10
-146.545
 20
1327.74
 11
-145.937
 21
1327.59
  0
LINE
  8
0
 10
-145.937
 20
1327.59
 11
-145.314
 21
1327.51
  0
LINE
  8
0
 10
-145.314
 20
1327.51
 11
145.314
 21
1327.51
  0
LINE
  8
0
 10
145.314
 20
1327.51
 11
145.937
 21
1327.59
  0
LINE
  8
0
 10
-145.048
 20
1328.01
 11
-145.64
 21
1328.08
  0
LINE
  8
0
 10
-145.64
 20
1328.08
 11
-146.218
 21
1328.23
  0
LINE
  8
0
 10
-146.218
 20
1328.23
 11
-146.772
 21
1328.45
  0
LINE
  8
0
 10
-146.772
 20
1328.45
 11
-147.295
 21
1328.74
  0
LINE
  8
0
 10
-147.295
 20
1328.74
 11
-147.778
 21
1329.09
  0
LINE
  8
0
 10
-147.778
 20
1329.09
 11
-148.213
 21
1329.5
  0
LINE
  8
0
 10
-148.213
 20
1329.5
 11
-148.593
 21
1329.96
  0
LINE
  8
0
 10
-148.593
 20
1329.96
 11
-148.912
 21
1330.46
  0
LINE
  8
0
 10
-148.912
 20
1330.46
 11
-149.166
 21
1331
  0
LINE
  8
0
 10
-149.166
 20
1331
 11
-149.351
 21
1331.57
  0
LINE
  8
0
 10
-149.351
 20
1331.57
 11
-149.463
 21
1332.15
  0
LINE
  8
0
 10
-149.463
 20
1332.15
 11
-149.5
 21
1332.75
  0
LINE
  8
0
 10
-149.5
 20
1332.75
 11
-149.5
 21
1607.25
  0
LINE
  8
0
 10
-149.5
 20
1607.25
 11
-149.463
 21
1607.85
  0
LINE
  8
0
 10
-149.463
 20
1607.85
 11
-149.351
 21
1608.43
  0
LINE
  8
0
 10
-149.351
 20
1608.43
 11
-149.166
 21
1609
  0
LINE
  8
0
 10
-149.166
 20
1609
 11
-148.912
 21
1609.54
  0
LINE
  8
0
 10
-148.912
 20
1609.54
 11
-148.593
 21
1610.04
  0
LINE
  8
0
 10
-148.593
 20
1610.04
 11
-148.213
 21
1610.5
  0
LINE
  8
0
 10
-148.213
 20
1610.5
 11
-147.778
 21
1610.91
  0
LINE
  8
0
 10
-147.778
 20
1610.91
 11
-147.295
 21
1611.26
  0
LINE
  8
0
 10
-147.295
 20
1611.26
 11
-146.772
 21
1611.55
  0
LINE
  8
0
 10
-146.772
 20
1611.55
 11
-146.218
 21
1611.77
  0
LINE
  8
0
 10
-146.218
 20
1611.77
 11
-145.64
 21
1611.92
  0
LINE
  8
0
 10
-145.64
 20
1611.92
 11
-145.048
 21
1611.99
  0
LINE
  8
0
 10
-145.048
 20
1611.99
 11
145.048
 21
1611.99
  0
LINE
  8
0
 10
145.048
 20
1611.99
 11
145.64
 21
1611.92
  0
LINE
  8
0
 10
145.64
 20
1611.92
 11
146.218
 21
1611.77
  0
LINE
  8
0
 10
146.218
 20
1611.77
 11
146.772
 21
1611.55
  0
LINE
  8
0
 10
146.772
 20
1611.55
 11
147.295
 21
1611.26
  0
LINE
  8
0
 10
147.295
 20
1611.26
 11
147.778
 21
1610.91
  0
LINE
  8
0
 10
147.778
 20
1610.91
 11
148.213
 21
1610.5
  0
LINE
  8
0
 10
148.213
 20
1610.5
 11
148.593
 21
1610.04
  0
LINE
  8
0
 10
148.593
 20
1610.04
 11
148.912
 21
1609.54
  0
LINE
  8
0
 10
148.912
 20
1609.54
 11
149.166
 21
1609
  0
LINE
  8
0
 10
149.166
 20
1609
 11
149.351
 21
1608.43
  0
LINE
  8
0
 10
149.351
 20
1608.43
 11
149.463
 21
1607.85
  0
LINE
  8
0
 10
149.463
 20
1607.85
 11
149.5
 21
1607.25
  0
LINE
  8
0
 10
149.5
 20
1607.25
 11
149.5
 21
1332.75
  0
LINE
  8
0
 10
149.5
 20
1332.75
 11
149.463
 21
1332.15
  0
LINE
  8
0
 10
149.463
 20
1332.15
 11
149.351
 21
1331.57
  0
LINE
  8
0
 10
149.351
 20
1331.57
 11
149.166
 21
1331
  0
LINE
  8
0
 10
149.166
 20
1331
 11
148.912
 21
1330.46
  0
LINE
  8
0
 10
148.912
 20
1330.46
 11
148.593
 21
1329.96
  0
LINE
  8
0
 10
148.593
 20
1329.96
 11
148.213
 21
1329.5
  0
LINE
  8
0
 10
148.213
 20
1329.5
 11
147.778
 21
1329.09
  0
LINE
  8
0
 10
147.778
 20
1329.09
 11
147.295
 21
1328.74
  0
LINE
  8
0
 10
147.295
 20
1328.74
 11
146.772
 21
1328.45
  0
LINE
  8
0
 10
146.772
 20
1328.45
 11
146.218
 21
1328.23
  0
LINE
  8
0
 10
146.218
 20
1328.23
 11
145.64
 21
1328.08
  0
LINE
  8
0
 10
145.64
 20
1328.08
 11
145.048
 21
1328.01
  0
LINE
  8
0
 10
145.048
 20
1328.01
 11
-145.048
 21
1328.01
  0
LINE
  8
0
 10
145.937
 20
1033.59
 11
146.545
 21
1033.74
  0
LINE
  8
0
 10
146.545
 20
1033.74
 11
147.129
 21
1033.98
  0
LINE
  8
0
 10
147.129
 20
1033.98
 11
147.679
 21
1034.28
  0
LINE
  8
0
 10
147.679
 20
1034.28
 11
148.187
 21
1034.65
  0
LINE
  8
0
 10
148.187
 20
1034.65
 11
148.645
 21
1035.08
  0
LINE
  8
0
 10
148.645
 20
1035.08
 11
149.045
 21
1035.56
  0
LINE
  8
0
 10
149.045
 20
1035.56
 11
149.382
 21
1036.09
  0
LINE
  8
0
 10
149.382
 20
1036.09
 11
149.649
 21
1036.66
  0
LINE
  8
0
 10
149.649
 20
1036.66
 11
149.843
 21
1037.26
  0
LINE
  8
0
 10
149.843
 20
1037.26
 11
149.961
 21
1037.87
  0
LINE
  8
0
 10
149.961
 20
1037.87
 11
150
 21
1038.5
  0
LINE
  8
0
 10
150
 20
1038.5
 11
150
 21
1313.5
  0
LINE
  8
0
 10
150
 20
1313.5
 11
149.961
 21
1314.13
  0
LINE
  8
0
 10
149.961
 20
1314.13
 11
149.843
 21
1314.74
  0
LINE
  8
0
 10
149.843
 20
1314.74
 11
149.649
 21
1315.34
  0
LINE
  8
0
 10
149.649
 20
1315.34
 11
149.382
 21
1315.91
  0
LINE
  8
0
 10
149.382
 20
1315.91
 11
149.045
 21
1316.44
  0
LINE
  8
0
 10
149.045
 20
1316.44
 11
148.645
 21
1316.92
  0
LINE
  8
0
 10
148.645
 20
1316.92
 11
148.187
 21
1317.35
  0
LINE
  8
0
 10
148.187
 20
1317.35
 11
147.679
 21
1317.72
  0
LINE
  8
0
 10
147.679
 20
1317.72
 11
147.129
 21
1318.02
  0
LINE
  8
0
 10
147.129
 20
1318.02
 11
146.545
 21
1318.26
  0
LINE
  8
0
 10
146.545
 20
1318.26
 11
145.937
 21
1318.41
  0
LINE
  8
0
 10
145.937
 20
1318.41
 11
145.314
 21
1318.49
  0
LINE
  8
0
 10
145.314
 20
1318.49
 11
-145.314
 21
1318.49
  0
LINE
  8
0
 10
-145.314
 20
1318.49
 11
-145.937
 21
1318.41
  0
LINE
  8
0
 10
-145.937
 20
1318.41
 11
-146.545
 21
1318.26
  0
LINE
  8
0
 10
-146.545
 20
1318.26
 11
-147.129
 21
1318.02
  0
LINE
  8
0
 10
-147.129
 20
1318.02
 11
-147.679
 21
1317.72
  0
LINE
  8
0
 10
-147.679
 20
1317.72
 11
-148.187
 21
1317.35
  0
LINE
  8
0
 10
-148.187
 20
1317.35
 11
-148.645
 21
1316.92
  0
LINE
  8
0
 10
-148.645
 20
1316.92
 11
-149.045
 21
1316.44
  0
LINE
  8
0
 10
-149.045
 20
1316.44
 11
-149.382
 21
1315.91
  0
LINE
  8
0
 10
-149.382
 20
1315.91
 11
-149.649
 21
1315.34
  0
LINE
  8
0
 10
-149.649
 20
1315.34
 11
-149.843
 21
1314.74
  0
LINE
  8
0
 10
-149.843
 20
1314.74
 11
-149.961
 21
1314.13
  0
LINE
  8
0
 10
-149.961
 20
1314.13
 11
-150
 21
1313.5
  0
LINE
  8
0
 10
-150
 20
1313.5
 11
-150
 21
1038.5
  0
LINE
  8
0
 10
-150
 20
1038.5
 11
-149.961
 21
1037.87
  0
LINE
  8
0
 10
-149.961
 20
1037.87
 11
-149.843
 21
1037.26
  0
LINE
  8
0
 10
-149.843
 20
1037.26
 11
-149.649
 21
1036.66
  0
LINE
  8
0
 10
-149.649
 20
1036.66
 11
-149.382
 21
1036.09
  0
LINE
  8
0
 10
-149.382
 20
1036.09
 11
-149.045
 21
1035.56
  0
LINE
  8
0
 10
-149.045
 20
1035.56
 11
-148.645
 21
1035.08
  0
LINE
  8
0
 10
-148.645
 20
1035.08
 11
-148.187
 21
1034.65
  0
LINE
  8
0
 10
-148.187
 20
1034.65
 11
-147.679
 21
1034.28
  0
LINE
  8
0
 10
-147.679
 20
1034.28
 11
-147.129
 21
1033.98
  0
LINE
  8
0
 10
-147.129
 20
1033.98
 11
-146.545
 21
1033.74
  0
LINE
  8
0
 10
-146.545
 20
1033.74
 11
-145.937
 21
1033.59
  0
LINE
  8
0
 10
-145.937
 20
1033.59
 11
-145.314
 21
1033.51
  0
LINE
  8
0
 10
-145.314
 20
1033.51
 11
145.314
 21
1033.51
  0
LINE
  8
0
 10
145.314
 20
1033.51
 11
145.937
 21
1033.59
  0
LINE
  8
0
 10
-144.993
 20
1034.89
 11
-145.475
 21
1034.95
  0
LINE
  8
0
 10
-145.475
 20
1034.95
 11
-145.946
 21
1035.07
  0
LINE
  8
0
 10
-145.946
 20
1035.07
 11
-146.398
 21
1035.25
  0
LINE
  8
0
 10
-146.398
 20
1035.25
 11
-146.823
 21
1035.48
  0
LINE
  8
0
 10
-146.823
 20
1035.48
 11
-147.216
 21
1035.77
  0
LINE
  8
0
 10
-147.216
 20
1035.77
 11
-147.571
 21
1036.1
  0
LINE
  8
0
 10
-147.571
 20
1036.1
 11
-147.88
 21
1036.48
  0
LINE
  8
0
 10
-147.88
 20
1036.48
 11
-148.141
 21
1036.89
  0
LINE
  8
0
 10
-148.141
 20
1036.89
 11
-148.348
 21
1037.33
  0
LINE
  8
0
 10
-148.348
 20
1037.33
 11
-148.498
 21
1037.79
  0
LINE
  8
0
 10
-148.498
 20
1037.79
 11
-148.589
 21
1038.27
  0
LINE
  8
0
 10
-148.589
 20
1038.27
 11
-148.619
 21
1038.75
  0
LINE
  8
0
 10
-148.619
 20
1038.75
 11
-148.619
 21
1313.25
  0
LINE
  8
0
 10
-148.619
 20
1313.25
 11
-148.589
 21
1313.73
  0
LINE
  8
0
 10
-148.589
 20
1313.73
 11
-148.498
 21
1314.21
  0
LINE
  8
0
 10
-148.498
 20
1314.21
 11
-148.348
 21
1314.67
  0
LINE
  8
0
 10
-148.348
 20
1314.67
 11
-148.141
 21
1315.11
  0
LINE
  8
0
 10
-148.141
 20
1315.11
 11
-147.88
 21
1315.52
  0
LINE
  8
0
 10
-147.88
 20
1315.52
 11
-147.571
 21
1315.9
  0
LINE
  8
0
 10
-147.571
 20
1315.9
 11
-147.216
 21
1316.23
  0
LINE
  8
0
 10
-147.216
 20
1316.23
 11
-146.823
 21
1316.52
  0
LINE
  8
0
 10
-146.823
 20
1316.52
 11
-146.398
 21
1316.75
  0
LINE
  8
0
 10
-146.398
 20
1316.75
 11
-145.946
 21
1316.93
  0
LINE
  8
0
 10
-145.946
 20
1316.93
 11
-145.475
 21
1317.05
  0
LINE
  8
0
 10
-145.475
 20
1317.05
 11
-144.993
 21
1317.11
  0
LINE
  8
0
 10
-144.993
 20
1317.11
 11
144.993
 21
1317.11
  0
LINE
  8
0
 10
144.993
 20
1317.11
 11
145.475
 21
1317.05
  0
LINE
  8
0
 10
145.475
 20
1317.05
 11
145.946
 21
1316.93
  0
LINE
  8
0
 10
145.946
 20
1316.93
 11
146.398
 21
1316.75
  0
LINE
  8
0
 10
146.398
 20
1316.75
 11
146.823
 21
1316.52
  0
LINE
  8
0
 10
146.823
 20
1316.52
 11
147.216
 21
1316.23
  0
LINE
  8
0
 10
147.216
 20
1316.23
 11
147.571
 21
1315.9
  0
LINE
  8
0
 10
147.571
 20
1315.9
 11
147.88
 21
1315.52
  0
LINE
  8
0
 10
147.88
 20
1315.52
 11
148.141
 21
1315.11
  0
LINE
  8
0
 10
148.141
 20
1315.11
 11
148.348
 21
1314.67
  0
LINE
  8
0
 10
148.348
 20
1314.67
 11
148.498
 21
1314.21
  0
LINE
  8
0
 10
148.498
 20
1314.21
 11
148.589
 21
1313.73
  0
LINE
  8
0
 10
148.589
 20
1313.73
 11
148.619
 21
1313.25
  0
LINE
  8
0
 10
148.619
 20
1313.25
 11
148.619
 21
1038.75
  0
LINE
  8
0
 10
148.619
 20
1038.75
 11
148.589
 21
1038.27
  0
LINE
  8
0
 10
148.589
 20
1038.27
 11
148.498
 21
1037.79
  0
LINE
  8
0
 10
148.498
 20
1037.79
 11
148.348
 21
1037.33
  0
LINE
  8
0
 10
148.348
 20
1037.33
 11
148.141
 21
1036.89
  0
LINE
  8
0
 10
148.141
 20
1036.89
 11
147.88
 21
1036.48
  0
LINE
  8
0
 10
147.88
 20
1036.48
 11
147.571
 21
1036.1
  0
LINE
  8
0
 10
147.571
 20
1036.1
 11
147.216
 21
1035.77
  0
LINE
  8
0
 10
147.216
 20
1035.77
 11
146.823
 21
1035.48
  0
LINE
  8
0
 10
146.823
 20
1035.48
 11
146.398
 21
1035.25
  0
LINE
  8
0
 10
146.398
 20
1035.25
 11
145.946
 21
1035.07
  0
LINE
  8
0
 10
145.946
 20
1035.07
 11
145.475
 21
1034.95
  0
LINE
  8
0
 10
145.475
 20
1034.95
 11
144.993
 21
1034.89
  0
LINE
  8
0
 10
144.993
 20
1034.89
 11
-144.993
 21
1034.89
  0
LINE
  8
0
 10
145.937
 20
739.589
 11
146.545
 21
739.745
  0
LINE
  8
0
 10
146.545
 20
739.745
 11
147.129
 21
739.976
  0
LINE
  8
0
 10
147.129
 20
739.976
 11
147.679
 21
740.278
  0
LINE
  8
0
 10
147.679
 20
740.278
 11
148.187
 21
740.647
  0
LINE
  8
0
 10
148.187
 20
740.647
 11
148.645
 21
741.077
  0
LINE
  8
0
 10
148.645
 20
741.077
 11
149.045
 21
741.561
  0
LINE
  8
0
 10
149.045
 20
741.561
 11
149.382
 21
742.091
  0
LINE
  8
0
 10
149.382
 20
742.091
 11
149.649
 21
742.659
  0
LINE
  8
0
 10
149.649
 20
742.659
 11
149.843
 21
743.257
  0
LINE
  8
0
 10
149.843
 20
743.257
 11
149.961
 21
743.873
  0
LINE
  8
0
 10
149.961
 20
743.873
 11
150
 21
744.5
  0
LINE
  8
0
 10
150
 20
744.5
 11
150
 21
1019.5
  0
LINE
  8
0
 10
150
 20
1019.5
 11
149.961
 21
1020.13
  0
LINE
  8
0
 10
149.961
 20
1020.13
 11
149.843
 21
1020.74
  0
LINE
  8
0
 10
149.843
 20
1020.74
 11
149.649
 21
1021.34
  0
LINE
  8
0
 10
149.649
 20
1021.34
 11
149.382
 21
1021.91
  0
LINE
  8
0
 10
149.382
 20
1021.91
 11
149.045
 21
1022.44
  0
LINE
  8
0
 10
149.045
 20
1022.44
 11
148.645
 21
1022.92
  0
LINE
  8
0
 10
148.645
 20
1022.92
 11
148.187
 21
1023.35
  0
LINE
  8
0
 10
148.187
 20
1023.35
 11
147.679
 21
1023.72
  0
LINE
  8
0
 10
147.679
 20
1023.72
 11
147.129
 21
1024.02
  0
LINE
  8
0
 10
147.129
 20
1024.02
 11
146.545
 21
1024.26
  0
LINE
  8
0
 10
146.545
 20
1024.26
 11
145.937
 21
1024.41
  0
LINE
  8
0
 10
145.937
 20
1024.41
 11
145.314
 21
1024.49
  0
LINE
  8
0
 10
145.314
 20
1024.49
 11
-145.314
 21
1024.49
  0
LINE
  8
0
 10
-145.314
 20
1024.49
 11
-145.937
 21
1024.41
  0
LINE
  8
0
 10
-145.937
 20
1024.41
 11
-146.545
 21
1024.26
  0
LINE
  8
0
 10
-146.545
 20
1024.26
 11
-147.129
 21
1024.02
  0
LINE
  8
0
 10
-147.129
 20
1024.02
 11
-147.679
 21
1023.72
  0
LINE
  8
0
 10
-147.679
 20
1023.72
 11
-148.187
 21
1023.35
  0
LINE
  8
0
 10
-148.187
 20
1023.35
 11
-148.645
 21
1022.92
  0
LINE
  8
0
 10
-148.645
 20
1022.92
 11
-149.045
 21
1022.44
  0
LINE
  8
0
 10
-149.045
 20
1022.44
 11
-149.382
 21
1021.91
  0
LINE
  8
0
 10
-149.382
 20
1021.91
 11
-149.649
 21
1021.34
  0
LINE
  8
0
 10
-149.649
 20
1021.34
 11
-149.843
 21
1020.74
  0
LINE
  8
0
 10
-149.843
 20
1020.74
 11
-149.961
 21
1020.13
  0
LINE
  8
0
 10
-149.961
 20
1020.13
 11
-150
 21
1019.5
  0
LINE
  8
0
 10
-150
 20
1019.5
 11
-150
 21
744.5
  0
LINE
  8
0
 10
-150
 20
744.5
 11
-149.961
 21
743.873
  0
LINE
  8
0
 10
-149.961
 20
743.873
 11
-149.843
 21
743.257
  0
LINE
  8
0
 10
-149.843
 20
743.257
 11
-149.649
 21
742.659
  0
LINE
  8
0
 10
-149.649
 20
742.659
 11
-149.382
 21
742.091
  0
LINE
  8
0
 10
-149.382
 20
742.091
 11
-149.045
 21
741.561
  0
LINE
  8
0
 10
-149.045
 20
741.561
 11
-148.645
 21
741.077
  0
LINE
  8
0
 10
-148.645
 20
741.077
 11
-148.187
 21
740.647
  0
LINE
  8
0
 10
-148.187
 20
740.647
 11
-147.679
 21
740.278
  0
LINE
  8
0
 10
-147.679
 20
740.278
 11
-147.129
 21
739.976
  0
LINE
  8
0
 10
-147.129
 20
739.976
 11
-146.545
 21
739.745
  0
LINE
  8
0
 10
-146.545
 20
739.745
 11
-145.937
 21
739.589
  0
LINE
  8
0
 10
-145.937
 20
739.589
 11
-145.314
 21
739.51
  0
LINE
  8
0
 10
-145.314
 20
739.51
 11
145.314
 21
739.51
  0
LINE
  8
0
 10
145.314
 20
739.51
 11
145.937
 21
739.589
  0
LINE
  8
0
 10
142.387
 20
1015.2
 11
142.163
 21
1015.23
  0
LINE
  8
0
 10
142.163
 20
1015.23
 11
141.944
 21
1015.29
  0
LINE
  8
0
 10
141.944
 20
1015.29
 11
141.734
 21
1015.37
  0
LINE
  8
0
 10
141.734
 20
1015.37
 11
141.536
 21
1015.48
  0
LINE
  8
0
 10
141.536
 20
1015.48
 11
141.353
 21
1015.61
  0
LINE
  8
0
 10
141.353
 20
1015.61
 11
141.188
 21
1015.77
  0
LINE
  8
0
 10
141.188
 20
1015.77
 11
141.044
 21
1015.94
  0
LINE
  8
0
 10
141.044
 20
1015.94
 11
140.923
 21
1016.13
  0
LINE
  8
0
 10
140.923
 20
1016.13
 11
140.826
 21
1016.34
  0
LINE
  8
0
 10
140.826
 20
1016.34
 11
140.757
 21
1016.55
  0
LINE
  8
0
 10
140.757
 20
1016.55
 11
140.714
 21
1016.77
  0
LINE
  8
0
 10
140.714
 20
1016.77
 11
140.7
 21
1017
  0
LINE
  8
0
 10
140.7
 20
1017
 11
140.714
 21
1017.23
  0
LINE
  8
0
 10
140.714
 20
1017.23
 11
140.757
 21
1017.45
  0
LINE
  8
0
 10
140.757
 20
1017.45
 11
140.826
 21
1017.66
  0
LINE
  8
0
 10
140.826
 20
1017.66
 11
140.923
 21
1017.87
  0
LINE
  8
0
 10
140.923
 20
1017.87
 11
141.044
 21
1018.06
  0
LINE
  8
0
 10
141.044
 20
1018.06
 11
141.188
 21
1018.23
  0
LINE
  8
0
 10
141.188
 20
1018.23
 11
141.353
 21
1018.39
  0
LINE
  8
0
 10
141.353
 20
1018.39
 11
141.536
 21
1018.52
  0
LINE
  8
0
 10
141.536
 20
1018.52
 11
141.734
 21
1018.63
  0
LINE
  8
0
 10
141.734
 20
1018.63
 11
141.944
 21
1018.71
  0
LINE
  8
0
 10
141.944
 20
1018.71
 11
142.163
 21
1018.77
  0
LINE
  8
0
 10
142.163
 20
1018.77
 11
142.387
 21
1018.8
  0
LINE
  8
0
 10
142.387
 20
1018.8
 11
142.613
 21
1018.8
  0
LINE
  8
0
 10
142.613
 20
1018.8
 11
142.837
 21
1018.77
  0
LINE
  8
0
 10
142.837
 20
1018.77
 11
143.056
 21
1018.71
  0
LINE
  8
0
 10
143.056
 20
1018.71
 11
143.266
 21
1018.63
  0
LINE
  8
0
 10
143.266
 20
1018.63
 11
143.464
 21
1018.52
  0
LINE
  8
0
 10
143.464
 20
1018.52
 11
143.647
 21
1018.39
  0
LINE
  8
0
 10
143.647
 20
1018.39
 11
143.812
 21
1018.23
  0
LINE
  8
0
 10
143.812
 20
1018.23
 11
143.956
 21
1018.06
  0
LINE
  8
0
 10
143.956
 20
1018.06
 11
144.077
 21
1017.87
  0
LINE
  8
0
 10
144.077
 20
1017.87
 11
144.174
 21
1017.66
  0
LINE
  8
0
 10
144.174
 20
1017.66
 11
144.243
 21
1017.45
  0
LINE
  8
0
 10
144.243
 20
1017.45
 11
144.286
 21
1017.23
  0
LINE
  8
0
 10
144.286
 20
1017.23
 11
144.3
 21
1017
  0
LINE
  8
0
 10
144.3
 20
1017
 11
144.286
 21
1016.77
  0
LINE
  8
0
 10
144.286
 20
1016.77
 11
144.243
 21
1016.55
  0
LINE
  8
0
 10
144.243
 20
1016.55
 11
144.174
 21
1016.34
  0
LINE
  8
0
 10
144.174
 20
1016.34
 11
144.077
 21
1016.13
  0
LINE
  8
0
 10
144.077
 20
1016.13
 11
143.956
 21
1015.94
  0
LINE
  8
0
 10
143.956
 20
1015.94
 11
143.812
 21
1015.77
  0
LINE
  8
0
 10
143.812
 20
1015.77
 11
143.647
 21
1015.61
  0
LINE
  8
0
 10
143.647
 20
1015.61
 11
143.464
 21
1015.48
  0
LINE
  8
0
 10
143.464
 20
1015.48
 11
143.266
 21
1015.37
  0
LINE
  8
0
 10
143.266
 20
1015.37
 11
143.056
 21
1015.29
  0
LINE
  8
0
 10
143.056
 20
1015.29
 11
142.837
 21
1015.23
  0
LINE
  8
0
 10
142.837
 20
1015.23
 11
142.613
 21
1015.2
  0
LINE
  8
0
 10
142.613
 20
1015.2
 11
142.387
 21
1015.2
  0
LINE
  8
0
 10
-142.613
 20
1015.2
 11
-142.837
 21
1015.23
  0
LINE
  8
0
 10
-142.837
 20
1015.23
 11
-143.056
 21
1015.29
  0
LINE
  8
0
 10
-143.056
 20
1015.29
 11
-143.266
 21
1015.37
  0
LINE
  8
0
 10
-143.266
 20
1015.37
 11
-143.464
 21
1015.48
  0
LINE
  8
0
 10
-143.464
 20
1015.48
 11
-143.647
 21
1015.61
  0
LINE
  8
0
 10
-143.647
 20
1015.61
 11
-143.812
 21
1015.77
  0
LINE
  8
0
 10
-143.812
 20
1015.77
 11
-143.956
 21
1015.94
  0
LINE
  8
0
 10
-143.956
 20
1015.94
 11
-144.077
 21
1016.13
  0
LINE
  8
0
 10
-144.077
 20
1016.13
 11
-144.174
 21
1016.34
  0
LINE
  8
0
 10
-144.174
 20
1016.34
 11
-144.243
 21
1016.55
  0
LINE
  8
0
 10
-144.243
 20
1016.55
 11
-144.286
 21
1016.77
  0
LINE
  8
0
 10
-144.286
 20
1016.77
 11
-144.3
 21
1017
  0
LINE
  8
0
 10
-144.3
 20
1017
 11
-144.286
 21
1017.23
  0
LINE
  8
0
 10
-144.286
 20
1017.23
 11
-144.243
 21
1017.45
  0
LINE
  8
0
 10
-144.243
 20
1017.45
 11
-144.174
 21
1017.66
  0
LINE
  8
0
 10
-144.174
 20
1017.66
 11
-144.077
 21
1017.87
  0
LINE
  8
0
 10
-144.077
 20
1017.87
 11
-143.956
 21
1018.06
  0
LINE
  8
0
 10
-143.956
 20
1018.06
 11
-143.812
 21
1018.23
  0
LINE
  8
0
 10
-143.812
 20
1018.23
 11
-143.647
 21
1018.39
  0
LINE
  8
0
 10
-143.647
 20
1018.39
 11
-143.464
 21
1018.52
  0
LINE
  8
0
 10
-143.464
 20
1018.52
 11
-143.266
 21
1018.63
  0
LINE
  8
0
 10
-143.266
 20
1018.63
 11
-143.056
 21
1018.71
  0
LINE
  8
0
 10
-143.056
 20
1018.71
 11
-142.837
 21
1018.77
  0
LINE
  8
0
 10
-142.837
 20
1018.77
 11
-142.613
 21
1018.8
  0
LINE
  8
0
 10
-142.613
 20
1018.8
 11
-142.387
 21
1018.8
  0
LINE
  8
0
 10
-142.387
 20
1018.8
 11
-142.163
 21
1018.77
  0
LINE
  8
0
 10
-142.163
 20
1018.77
 11
-141.944
 21
1018.71
  0
LINE
  8
0
 10
-141.944
 20
1018.71
 11
-141.734
 21
1018.63
  0
LINE
  8
0
 10
-141.734
 20
1018.63
 11
-141.536
 21
1018.52
  0
LINE
  8
0
 10
-141.536
 20
1018.52
 11
-141.353
 21
1018.39
  0
LINE
  8
0
 10
-141.353
 20
1018.39
 11
-141.188
 21
1018.23
  0
LINE
  8
0
 10
-141.188
 20
1018.23
 11
-141.044
 21
1018.06
  0
LINE
  8
0
 10
-141.044
 20
1018.06
 11
-140.923
 21
1017.87
  0
LINE
  8
0
 10
-140.923
 20
1017.87
 11
-140.826
 21
1017.66
  0
LINE
  8
0
 10
-140.826
 20
1017.66
 11
-140.757
 21
1017.45
  0
LINE
  8
0
 10
-140.757
 20
1017.45
 11
-140.714
 21
1017.23
  0
LINE
  8
0
 10
-140.714
 20
1017.23
 11
-140.7
 21
1017
  0
LINE
  8
0
 10
-140.7
 20
1017
 11
-140.714
 21
1016.77
  0
LINE
  8
0
 10
-140.714
 20
1016.77
 11
-140.757
 21
1016.55
  0
LINE
  8
0
 10
-140.757
 20
1016.55
 11
-140.826
 21
1016.34
  0
LINE
  8
0
 10
-140.826
 20
1016.34
 11
-140.923
 21
1016.13
  0
LINE
  8
0
 10
-140.923
 20
1016.13
 11
-141.044
 21
1015.94
  0
LINE
  8
0
 10
-141.044
 20
1015.94
 11
-141.188
 21
1015.77
  0
LINE
  8
0
 10
-141.188
 20
1015.77
 11
-141.353
 21
1015.61
  0
LINE
  8
0
 10
-141.353
 20
1015.61
 11
-141.536
 21
1015.48
  0
LINE
  8
0
 10
-141.536
 20
1015.48
 11
-141.734
 21
1015.37
  0
LINE
  8
0
 10
-141.734
 20
1015.37
 11
-141.944
 21
1015.29
  0
LINE
  8
0
 10
-141.944
 20
1015.29
 11
-142.163
 21
1015.23
  0
LINE
  8
0
 10
-142.163
 20
1015.23
 11
-142.387
 21
1015.2
  0
LINE
  8
0
 10
-142.387
 20
1015.2
 11
-142.613
 21
1015.2
  0
LINE
  8
0
 10
-142.613
 20
745.204
 11
-142.837
 21
745.232
  0
LINE
  8
0
 10
-142.837
 20
745.232
 11
-143.056
 21
745.288
  0
LINE
  8
0
 10
-143.056
 20
745.288
 11
-143.266
 21
745.371
  0
LINE
  8
0
 10
-143.266
 20
745.371
 11
-143.464
 21
745.48
  0
LINE
  8
0
 10
-143.464
 20
745.48
 11
-143.647
 21
745.613
  0
LINE
  8
0
 10
-143.647
 20
745.613
 11
-143.812
 21
745.768
  0
LINE
  8
0
 10
-143.812
 20
745.768
 11
-143.956
 21
745.942
  0
LINE
  8
0
 10
-143.956
 20
745.942
 11
-144.077
 21
746.133
  0
LINE
  8
0
 10
-144.077
 20
746.133
 11
-144.174
 21
746.337
  0
LINE
  8
0
 10
-144.174
 20
746.337
 11
-144.243
 21
746.552
  0
LINE
  8
0
 10
-144.243
 20
746.552
 11
-144.286
 21
746.774
  0
LINE
  8
0
 10
-144.286
 20
746.774
 11
-144.3
 21
747
  0
LINE
  8
0
 10
-144.3
 20
747
 11
-144.286
 21
747.226
  0
LINE
  8
0
 10
-144.286
 20
747.226
 11
-144.243
 21
747.448
  0
LINE
  8
0
 10
-144.243
 20
747.448
 11
-144.174
 21
747.663
  0
LINE
  8
0
 10
-144.174
 20
747.663
 11
-144.077
 21
747.867
  0
LINE
  8
0
 10
-144.077
 20
747.867
 11
-143.956
 21
748.058
  0
LINE
  8
0
 10
-143.956
 20
748.058
 11
-143.812
 21
748.232
  0
LINE
  8
0
 10
-143.812
 20
748.232
 11
-143.647
 21
748.387
  0
LINE
  8
0
 10
-143.647
 20
748.387
 11
-143.464
 21
748.52
  0
LINE
  8
0
 10
-143.464
 20
748.52
 11
-143.266
 21
748.629
  0
LINE
  8
0
 10
-143.266
 20
748.629
 11
-143.056
 21
748.712
  0
LINE
  8
0
 10
-143.056
 20
748.712
 11
-142.837
 21
748.768
  0
LINE
  8
0
 10
-142.837
 20
748.768
 11
-142.613
 21
748.796
  0
LINE
  8
0
 10
-142.613
 20
748.796
 11
-142.387
 21
748.796
  0
LINE
  8
0
 10
-142.387
 20
748.796
 11
-142.163
 21
748.768
  0
LINE
  8
0
 10
-142.163
 20
748.768
 11
-141.944
 21
748.712
  0
LINE
  8
0
 10
-141.944
 20
748.712
 11
-141.734
 21
748.629
  0
LINE
  8
0
 10
-141.734
 20
748.629
 11
-141.536
 21
748.52
  0
LINE
  8
0
 10
-141.536
 20
748.52
 11
-141.353
 21
748.387
  0
LINE
  8
0
 10
-141.353
 20
748.387
 11
-141.188
 21
748.232
  0
LINE
  8
0
 10
-141.188
 20
748.232
 11
-141.044
 21
748.058
  0
LINE
  8
0
 10
-141.044
 20
748.058
 11
-140.923
 21
747.867
  0
LINE
  8
0
 10
-140.923
 20
747.867
 11
-140.826
 21
747.663
  0
LINE
  8
0
 10
-140.826
 20
747.663
 11
-140.757
 21
747.448
  0
LINE
  8
0
 10
-140.757
 20
747.448
 11
-140.714
 21
747.226
  0
LINE
  8
0
 10
-140.714
 20
747.226
 11
-140.7
 21
747
  0
LINE
  8
0
 10
-140.7
 20
747
 11
-140.714
 21
746.774
  0
LINE
  8
0
 10
-140.714
 20
746.774
 11
-140.757
 21
746.552
  0
LINE
  8
0
 10
-140.757
 20
746.552
 11
-140.826
 21
746.337
  0
LINE
  8
0
 10
-140.826
 20
746.337
 11
-140.923
 21
746.133
  0
LINE
  8
0
 10
-140.923
 20
746.133
 11
-141.044
 21
745.942
  0
LINE
  8
0
 10
-141.044
 20
745.942
 11
-141.188
 21
745.768
  0
LINE
  8
0
 10
-141.188
 20
745.768
 11
-141.353
 21
745.613
  0
LINE
  8
0
 10
-141.353
 20
745.613
 11
-141.536
 21
745.48
  0
LINE
  8
0
 10
-141.536
 20
745.48
 11
-141.734
 21
745.371
  0
LINE
  8
0
 10
-141.734
 20
745.371
 11
-141.944
 21
745.288
  0
LINE
  8
0
 10
-141.944
 20
745.288
 11
-142.163
 21
745.232
  0
LINE
  8
0
 10
-142.163
 20
745.232
 11
-142.387
 21
745.204
  0
LINE
  8
0
 10
-142.387
 20
745.204
 11
-142.613
 21
745.204
  0
LINE
  8
0
 10
142.387
 20
745.204
 11
142.163
 21
745.232
  0
LINE
  8
0
 10
142.163
 20
745.232
 11
141.944
 21
745.288
  0
LINE
  8
0
 10
141.944
 20
745.288
 11
141.734
 21
745.371
  0
LINE
  8
0
 10
141.734
 20
745.371
 11
141.536
 21
745.48
  0
LINE
  8
0
 10
141.536
 20
745.48
 11
141.353
 21
745.613
  0
LINE
  8
0
 10
141.353
 20
745.613
 11
141.188
 21
745.768
  0
LINE
  8
0
 10
141.188
 20
745.768
 11
141.044
 21
745.942
  0
LINE
  8
0
 10
141.044
 20
745.942
 11
140.923
 21
746.133
  0
LINE
  8
0
 10
140.923
 20
746.133
 11
140.826
 21
746.337
  0
LINE
  8
0
 10
140.826
 20
746.337
 11
140.757
 21
746.552
  0
LINE
  8
0
 10
140.757
 20
746.552
 11
140.714
 21
746.774
  0
LINE
  8
0
 10
140.714
 20
746.774
 11
140.7
 21
747
  0
LINE
  8
0
 10
140.7
 20
747
 11
140.714
 21
747.226
  0
LINE
  8
0
 10
140.714
 20
747.226
 11
140.757
 21
747.448
  0
LINE
  8
0
 10
140.757
 20
747.448
 11
140.826
 21
747.663
  0
LINE
  8
0
 10
140.826
 20
747.663
 11
140.923
 21
747.867
  0
LINE
  8
0
 10
140.923
 20
747.867
 11
141.044
 21
748.058
  0
LINE
  8
0
 10
141.044
 20
748.058
 11
141.188
 21
748.232
  0
LINE
  8
0
 10
141.188
 20
748.232
 11
141.353
 21
748.387
  0
LINE
  8
0
 10
141.353
 20
748.387
 11
141.536
 21
748.52
  0
LINE
  8
0
 10
141.536
 20
748.52
 11
141.734
 21
748.629
  0
LINE
  8
0
 10
141.734
 20
748.629
 11
141.944
 21
748.712
  0
LINE
  8
0
 10
141.944
 20
748.712
 11
142.163
 21
748.768
  0
LINE
  8
0
 10
142.163
 20
748.768
 11
142.387
 21
748.796
  0
LINE
  8
0
 10
142.387
 20
748.796
 11
142.613
 21
748.796
  0
LINE
  8
0
 10
142.613
 20
748.796
 11
142.837
 21
748.768
  0
LINE
  8
0
 10
142.837
 20
748.768
 11
143.056
 21
748.712
  0
LINE
  8
0
 10
143.056
 20
748.712
 11
143.266
 21
748.629
  0
LINE
  8
0
 10
143.266
 20
748.629
 11
143.464
 21
748.52
  0
LINE
  8
0
 10
143.464
 20
748.52
 11
143.647
 21
748.387
  0
LINE
  8
0
 10
143.647
 20
748.387
 11
143.812
 21
748.232
  0
LINE
  8
0
 10
143.812
 20
748.232
 11
143.956
 21
748.058
  0
LINE
  8
0
 10
143.956
 20
748.058
 11
144.077
 21
747.867
  0
LINE
  8
0
 10
144.077
 20
747.867
 11
144.174
 21
747.663
  0
LINE
  8
0
 10
144.174
 20
747.663
 11
144.243
 21
747.448
  0
LINE
  8
0
 10
144.243
 20
747.448
 11
144.286
 21
747.226
  0
LINE
  8
0
 10
144.286
 20
747.226
 11
144.3
 21
747
  0
LINE
  8
0
 10
144.3
 20
747
 11
144.286
 21
746.774
  0
LINE
  8
0
 10
144.286
 20
746.774
 11
144.243
 21
746.552
  0
LINE
  8
0
 10
144.243
 20
746.552
 11
144.174
 21
746.337
  0
LINE
  8
0
 10
144.174
 20
746.337
 11
144.077
 21
746.133
  0
LINE
  8
0
 10
144.077
 20
746.133
 11
143.956
 21
745.942
  0
LINE
  8
0
 10
143.956
 20
745.942
 11
143.812
 21
745.768
  0
LINE
  8
0
 10
143.812
 20
745.768
 11
143.647
 21
745.613
  0
LINE
  8
0
 10
143.647
 20
745.613
 11
143.464
 21
745.48
  0
LINE
  8
0
 10
143.464
 20
745.48
 11
143.266
 21
745.371
  0
LINE
  8
0
 10
143.266
 20
745.371
 11
143.056
 21
745.288
  0
LINE
  8
0
 10
143.056
 20
745.288
 11
142.837
 21
745.232
  0
LINE
  8
0
 10
142.837
 20
745.232
 11
142.613
 21
745.204
  0
LINE
  8
0
 10
142.613
 20
745.204
 11
142.387
 21
745.204
  0
ENDSEC
  0
SECTION
  2
OBJECTS
  0
DICTIONARY
  0
ENDSEC
  0
EOF
