<?xml version="1.0" standalone="no"?>
<!DOCTYPE svg PUBLIC "-//W3C//DTD SVG 1.1//EN" "http://www.w3.org/Graphics/SVG/1.1/DTD/svg11.dtd">
<svg width="272mm" height="334mm" viewBox="-137 -623 272 334" xmlns="http://www.w3.org/2000/svg" version="1.1">
<title>OpenSCAD Model</title>
<path d="
M -133.5,-518.941 L -133.187,-518.647 L -132.679,-518.278 L -132.129,-517.976 L -131.545,-517.745 L -130.937,-517.589
 L -130.314,-517.51 L 130.314,-517.51 L 130.937,-517.589 L 131.545,-517.745 L 132.129,-517.976 L 132.679,-518.278
 L 133.187,-518.647 L 133.645,-519.077 L 134.045,-519.561 L 134.382,-520.091 L 134.649,-520.659 L 134.843,-521.257
 L 134.961,-521.873 L 135,-522.5 L 135,-617.5 L 134.961,-618.127 L 134.843,-618.743 L 134.649,-619.341
 L 134.382,-619.909 L 134.045,-620.439 L 133.645,-620.923 L 133.187,-621.353 L 132.679,-621.722 L 132.129,-622.024
 L 131.545,-622.255 L 130.937,-622.411 L 130.314,-622.49 L -130.314,-622.49 L -130.937,-622.411 L -131.545,-622.255
 L -132.129,-622.024 L -132.679,-621.722 L -133.187,-621.353 L -133.5,-621.059 L -133.5,-622.49 L -136.5,-622.49
 L -136.5,-517.51 L -133.5,-517.51 z
M -129.751,-519.008 L -130.25,-519.071 L -130.736,-519.196 L -131.203,-519.381 L -131.643,-519.623 L -132.05,-519.918
 L -132.416,-520.262 L -132.736,-520.649 L -133.005,-521.073 L -133.219,-521.528 L -133.374,-522.005 L -133.468,-522.499
 L -133.5,-523 L -133.5,-617 L -133.468,-617.501 L -133.374,-617.995 L -133.219,-618.472 L -133.005,-618.927
 L -132.736,-619.351 L -132.416,-619.738 L -132.05,-620.082 L -131.643,-620.377 L -131.203,-620.619 L -130.736,-620.804
 L -130.25,-620.929 L -129.751,-620.992 L 129.751,-620.992 L 130.25,-620.929 L 130.736,-620.804 L 131.203,-620.619
 L 131.643,-620.377 L 132.05,-620.082 L 132.416,-619.738 L 132.736,-619.351 L 133.005,-618.927 L 133.219,-618.472
 L 133.374,-617.995 L 133.468,-617.501 L 133.5,-617 L 133.5,-523 L 133.468,-522.499 L 133.374,-522.005
 L 133.219,-521.528 L 133.005,-521.073 L 132.736,-520.649 L 132.416,-520.262 L 132.05,-519.918 L 131.643,-519.623
 L 131.203,-519.381 L 130.736,-519.196 L 130.25,-519.071 L 129.751,-519.008 z
M 130.937,-403.589 L 131.545,-403.745 L 132.129,-403.976 L 132.679,-404.278 L 133.187,-404.647 L 133.645,-405.077
 L 134.045,-405.561 L 134.382,-406.091 L 134.649,-406.659 L 134.843,-407.257 L 134.961,-407.873 L 135,-408.5
 L 135,-503.5 L 134.961,-504.127 L 134.843,-504.743 L 134.649,-505.341 L 134.382,-505.909 L 134.045,-506.439
 L 133.645,-506.923 L 133.187,-507.353 L 132.679,-507.722 L 132.129,-508.024 L 131.545,-508.255 L 130.937,-508.411
 L 130.314,-508.49 L -130.314,-508.49 L -130.937,-508.411 L -131.545,-508.255 L -132.129,-508.024 L -132.679,-507.722
 L -133.187,-507.353 L -133.5,-507.059 L -133.5,-508.479 L -136.5,-508.479 L -136.5,-403.521 L -133.5,-403.521
 L -133.5,-404.941 L -133.187,-404.647 L -132.679,-404.278 L -132.129,-403.976 L -131.545,-403.745 L -130.937,-403.589
 L -130.314,-403.51 L 130.314,-403.51 z
M -129.695,-405.893 L -130.083,-405.942 L -130.462,-406.039 L -130.825,-406.183 L -131.168,-406.372 L -131.484,-406.601
 L -131.769,-406.869 L -132.018,-407.17 L -132.228,-407.5 L -132.394,-407.854 L -132.515,-408.226 L -132.588,-408.61
 L -132.613,-409 L -132.613,-503 L -132.588,-503.39 L -132.515,-503.774 L -132.394,-504.146 L -132.228,-504.5
 L -132.018,-504.83 L -131.769,-505.131 L -131.484,-505.399 L -131.168,-505.628 L -130.825,-505.817 L -130.462,-505.961
 L -130.083,-506.058 L -129.695,-506.107 L 129.695,-506.107 L 130.083,-506.058 L 130.462,-505.961 L 130.825,-505.817
 L 131.168,-505.628 L 131.484,-505.399 L 131.769,-505.131 L 132.018,-504.83 L 132.228,-504.5 L 132.394,-504.146
 L 132.515,-503.774 L 132.588,-503.39 L 132.613,-503 L 132.613,-409 L 132.588,-408.61 L 132.515,-408.226
 L 132.394,-407.854 L 132.228,-407.5 L 132.018,-407.17 L 131.769,-406.869 L 131.484,-406.601 L 131.168,-406.372
 L 130.825,-406.183 L 130.462,-406.039 L 130.083,-405.942 L 129.695,-405.893 z
M 130.937,-289.589 L 131.545,-289.745 L 132.129,-289.976 L 132.679,-290.278 L 133.187,-290.647 L 133.645,-291.077
 L 134.045,-291.561 L 134.382,-292.091 L 134.649,-292.659 L 134.843,-293.257 L 134.961,-293.873 L 135,-294.5
 L 135,-389.5 L 134.961,-390.127 L 134.843,-390.743 L 134.649,-391.341 L 134.382,-391.909 L 134.045,-392.439
 L 133.645,-392.923 L 133.187,-393.353 L 132.679,-393.722 L 132.129,-394.024 L 131.545,-394.255 L 130.937,-394.411
 L 130.314,-394.49 L -130.314,-394.49 L -130.937,-394.411 L -131.545,-394.255 L -132.129,-394.024 L -132.679,-393.722
 L -133.187,-393.353 L -133.5,-393.059 L -133.5,-393.153 L -136.5,-393.153 L -136.5,-290.847 L -133.5,-290.847
 L -133.5,-290.941 L -133.187,-290.647 L -132.679,-290.278 L -132.129,-289.976 L -131.545,-289.745 L -130.937,-289.589
 L -130.314,-289.51 L 130.314,-289.51 z
M 127.366,-384.869 L 127.1,-384.903 L 126.84,-384.969 L 126.591,-385.068 L 126.356,-385.197 L 126.139,-385.355
 L 125.943,-385.538 L 125.773,-385.745 L 125.629,-385.971 L 125.515,-386.214 L 125.432,-386.469 L 125.382,-386.732
 L 125.365,-387 L 125.382,-387.268 L 125.432,-387.531 L 125.515,-387.786 L 125.629,-388.029 L 125.773,-388.255
 L 125.943,-388.462 L 126.139,-388.645 L 126.356,-388.803 L 126.591,-388.932 L 126.84,-389.031 L 127.1,-389.097
 L 127.366,-389.131 L 127.634,-389.131 L 127.9,-389.097 L 128.16,-389.031 L 128.409,-388.932 L 128.644,-388.803
 L 128.861,-388.645 L 129.057,-388.462 L 129.227,-388.255 L 129.371,-388.029 L 129.485,-387.786 L 129.568,-387.531
 L 129.618,-387.268 L 129.635,-387 L 129.618,-386.732 L 129.568,-386.469 L 129.485,-386.214 L 129.371,-385.971
 L 129.227,-385.745 L 129.057,-385.538 L 128.861,-385.355 L 128.644,-385.197 L 128.409,-385.068 L 128.16,-384.969
 L 127.9,-384.903 L 127.634,-384.869 z
M -127.634,-384.869 L -127.9,-384.903 L -128.16,-384.969 L -128.409,-385.068 L -128.644,-385.197 L -128.861,-385.355
 L -129.057,-385.538 L -129.227,-385.745 L -129.371,-385.971 L -129.485,-386.214 L -129.568,-386.469 L -129.618,-386.732
 L -129.635,-387 L -129.618,-387.268 L -129.568,-387.531 L -129.485,-387.786 L -129.371,-388.029 L -129.227,-388.255
 L -129.057,-388.462 L -128.861,-388.645 L -128.644,-388.803 L -128.409,-388.932 L -128.16,-389.031 L -127.9,-389.097
 L -127.634,-389.131 L -127.366,-389.131 L -127.1,-389.097 L -126.84,-389.031 L -126.591,-388.932 L -126.356,-388.803
 L -126.139,-388.645 L -125.943,-388.462 L -125.773,-388.255 L -125.629,-388.029 L -125.515,-387.786 L -125.432,-387.531
 L -125.382,-387.268 L -125.365,-387 L -125.382,-386.732 L -125.432,-386.469 L -125.515,-386.214 L -125.629,-385.971
 L -125.773,-385.745 L -125.943,-385.538 L -126.139,-385.355 L -126.356,-385.197 L -126.591,-385.068 L -126.84,-384.969
 L -127.1,-384.903 L -127.366,-384.869 z
M 127.366,-294.869 L 127.1,-294.903 L 126.84,-294.969 L 126.591,-295.068 L 126.356,-295.197 L 126.139,-295.355
 L 125.943,-295.538 L 125.773,-295.745 L 125.629,-295.971 L 125.515,-296.214 L 125.432,-296.469 L 125.382,-296.732
 L 125.365,-297 L 125.382,-297.268 L 125.432,-297.531 L 125.515,-297.786 L 125.629,-298.029 L 125.773,-298.255
 L 125.943,-298.462 L 126.139,-298.645 L 126.356,-298.803 L 126.591,-298.932 L 126.84,-299.031 L 127.1,-299.097
 L 127.366,-299.131 L 127.634,-299.131 L 127.9,-299.097 L 128.16,-299.031 L 128.409,-298.932 L 128.644,-298.803
 L 128.861,-298.645 L 129.057,-298.462 L 129.227,-298.255 L 129.371,-298.029 L 129.485,-297.786 L 129.568,-297.531
 L 129.618,-297.268 L 129.635,-297 L 129.618,-296.732 L 129.568,-296.469 L 129.485,-296.214 L 129.371,-295.971
 L 129.227,-295.745 L 129.057,-295.538 L 128.861,-295.355 L 128.644,-295.197 L 128.409,-295.068 L 128.16,-294.969
 L 127.9,-294.903 L 127.634,-294.869 z
M -127.634,-294.869 L -127.9,-294.903 L -128.16,-294.969 L -128.409,-295.068 L -128.644,-295.197 L -128.861,-295.355
 L -129.057,-295.538 L -129.227,-295.745 L -129.371,-295.971 L -129.485,-296.214 L -129.568,-296.469 L -129.618,-296.732
 L -129.635,-297 L -129.618,-297.268 L -129.568,-297.531 L -129.485,-297.786 L -129.371,-298.029 L -129.227,-298.255
 L -129.057,-298.462 L -128.861,-298.645 L -128.644,-298.803 L -128.409,-298.932 L -128.16,-299.031 L -127.9,-299.097
 L -127.634,-299.131 L -127.366,-299.131 L -127.1,-299.097 L -126.84,-299.031 L -126.591,-298.932 L -126.356,-298.803
 L -126.139,-298.645 L -125.943,-298.462 L -125.773,-298.255 L -125.629,-298.029 L -125.515,-297.786 L -125.432,-297.531
 L -125.382,-297.268 L -125.365,-297 L -125.382,-296.732 L -125.432,-296.469 L -125.515,-296.214 L -125.629,-295.971
 L -125.773,-295.745 L -125.943,-295.538 L -126.139,-295.355 L -126.356,-295.197 L -126.591,-295.068 L -126.84,-294.969
 L -127.1,-294.903 L -127.366,-294.869 z
" stroke="black" fill="lightgray" stroke-width="0.5"/>
</svg>
