  0
SECTION
  2
BLOCKS
  0
ENDSEC
  0
SECTION
  2
ENTITIES
  0
LINE
  8
0
 10
-118.5
 20
1234.44
 11
-118.187
 21
1234.15
  0
LINE
  8
0
 10
-118.187
 20
1234.15
 11
-117.679
 21
1233.78
  0
LINE
  8
0
 10
-117.679
 20
1233.78
 11
-117.129
 21
1233.48
  0
LINE
  8
0
 10
-117.129
 20
1233.48
 11
-116.545
 21
1233.24
  0
LINE
  8
0
 10
-116.545
 20
1233.24
 11
-115.937
 21
1233.09
  0
LINE
  8
0
 10
-115.937
 20
1233.09
 11
-115.314
 21
1233.01
  0
LINE
  8
0
 10
-115.314
 20
1233.01
 11
115.314
 21
1233.01
  0
LINE
  8
0
 10
115.314
 20
1233.01
 11
115.937
 21
1233.09
  0
LINE
  8
0
 10
115.937
 20
1233.09
 11
116.545
 21
1233.24
  0
LINE
  8
0
 10
116.545
 20
1233.24
 11
117.129
 21
1233.48
  0
LINE
  8
0
 10
117.129
 20
1233.48
 11
117.679
 21
1233.78
  0
LINE
  8
0
 10
117.679
 20
1233.78
 11
118.187
 21
1234.15
  0
LINE
  8
0
 10
118.187
 20
1234.15
 11
118.645
 21
1234.58
  0
LINE
  8
0
 10
118.645
 20
1234.58
 11
119.045
 21
1235.06
  0
LINE
  8
0
 10
119.045
 20
1235.06
 11
119.382
 21
1235.59
  0
LINE
  8
0
 10
119.382
 20
1235.59
 11
119.649
 21
1236.16
  0
LINE
  8
0
 10
119.649
 20
1236.16
 11
119.843
 21
1236.76
  0
LINE
  8
0
 10
119.843
 20
1236.76
 11
119.961
 21
1237.37
  0
LINE
  8
0
 10
119.961
 20
1237.37
 11
120
 21
1238
  0
LINE
  8
0
 10
120
 20
1238
 11
120
 21
1408
  0
LINE
  8
0
 10
120
 20
1408
 11
119.961
 21
1408.63
  0
LINE
  8
0
 10
119.961
 20
1408.63
 11
119.843
 21
1409.24
  0
LINE
  8
0
 10
119.843
 20
1409.24
 11
119.649
 21
1409.84
  0
LINE
  8
0
 10
119.649
 20
1409.84
 11
119.382
 21
1410.41
  0
LINE
  8
0
 10
119.382
 20
1410.41
 11
119.045
 21
1410.94
  0
LINE
  8
0
 10
119.045
 20
1410.94
 11
118.645
 21
1411.42
  0
LINE
  8
0
 10
118.645
 20
1411.42
 11
118.187
 21
1411.85
  0
LINE
  8
0
 10
118.187
 20
1411.85
 11
117.679
 21
1412.22
  0
LINE
  8
0
 10
117.679
 20
1412.22
 11
117.129
 21
1412.52
  0
LINE
  8
0
 10
117.129
 20
1412.52
 11
116.545
 21
1412.76
  0
LINE
  8
0
 10
116.545
 20
1412.76
 11
115.937
 21
1412.91
  0
LINE
  8
0
 10
115.937
 20
1412.91
 11
115.314
 21
1412.99
  0
LINE
  8
0
 10
115.314
 20
1412.99
 11
-115.314
 21
1412.99
  0
LINE
  8
0
 10
-115.314
 20
1412.99
 11
-115.937
 21
1412.91
  0
LINE
  8
0
 10
-115.937
 20
1412.91
 11
-116.545
 21
1412.76
  0
LINE
  8
0
 10
-116.545
 20
1412.76
 11
-117.129
 21
1412.52
  0
LINE
  8
0
 10
-117.129
 20
1412.52
 11
-117.679
 21
1412.22
  0
LINE
  8
0
 10
-117.679
 20
1412.22
 11
-118.187
 21
1411.85
  0
LINE
  8
0
 10
-118.187
 20
1411.85
 11
-118.5
 21
1411.56
  0
LINE
  8
0
 10
-118.5
 20
1411.56
 11
-118.5
 21
1412.99
  0
LINE
  8
0
 10
-118.5
 20
1412.99
 11
-121.5
 21
1412.99
  0
LINE
  8
0
 10
-121.5
 20
1412.99
 11
-121.5
 21
1233.01
  0
LINE
  8
0
 10
-121.5
 20
1233.01
 11
-118.5
 21
1233.01
  0
LINE
  8
0
 10
-118.5
 20
1233.01
 11
-118.5
 21
1234.44
  0
LINE
  8
0
 10
-114.751
 20
1234.51
 11
-115.25
 21
1234.57
  0
LINE
  8
0
 10
-115.25
 20
1234.57
 11
-115.736
 21
1234.7
  0
LINE
  8
0
 10
-115.736
 20
1234.7
 11
-116.203
 21
1234.88
  0
LINE
  8
0
 10
-116.203
 20
1234.88
 11
-116.643
 21
1235.12
  0
LINE
  8
0
 10
-116.643
 20
1235.12
 11
-117.05
 21
1235.42
  0
LINE
  8
0
 10
-117.05
 20
1235.42
 11
-117.416
 21
1235.76
  0
LINE
  8
0
 10
-117.416
 20
1235.76
 11
-117.736
 21
1236.15
  0
LINE
  8
0
 10
-117.736
 20
1236.15
 11
-118.005
 21
1236.57
  0
LINE
  8
0
 10
-118.005
 20
1236.57
 11
-118.219
 21
1237.03
  0
LINE
  8
0
 10
-118.219
 20
1237.03
 11
-118.374
 21
1237.51
  0
LINE
  8
0
 10
-118.374
 20
1237.51
 11
-118.468
 21
1238
  0
LINE
  8
0
 10
-118.468
 20
1238
 11
-118.5
 21
1238.5
  0
LINE
  8
0
 10
-118.5
 20
1238.5
 11
-118.5
 21
1407.5
  0
LINE
  8
0
 10
-118.5
 20
1407.5
 11
-118.468
 21
1408
  0
LINE
  8
0
 10
-118.468
 20
1408
 11
-118.374
 21
1408.49
  0
LINE
  8
0
 10
-118.374
 20
1408.49
 11
-118.219
 21
1408.97
  0
LINE
  8
0
 10
-118.219
 20
1408.97
 11
-118.005
 21
1409.43
  0
LINE
  8
0
 10
-118.005
 20
1409.43
 11
-117.736
 21
1409.85
  0
LINE
  8
0
 10
-117.736
 20
1409.85
 11
-117.416
 21
1410.24
  0
LINE
  8
0
 10
-117.416
 20
1410.24
 11
-117.05
 21
1410.58
  0
LINE
  8
0
 10
-117.05
 20
1410.58
 11
-116.643
 21
1410.88
  0
LINE
  8
0
 10
-116.643
 20
1410.88
 11
-116.203
 21
1411.12
  0
LINE
  8
0
 10
-116.203
 20
1411.12
 11
-115.736
 21
1411.3
  0
LINE
  8
0
 10
-115.736
 20
1411.3
 11
-115.25
 21
1411.43
  0
LINE
  8
0
 10
-115.25
 20
1411.43
 11
-114.751
 21
1411.49
  0
LINE
  8
0
 10
-114.751
 20
1411.49
 11
114.751
 21
1411.49
  0
LINE
  8
0
 10
114.751
 20
1411.49
 11
115.25
 21
1411.43
  0
LINE
  8
0
 10
115.25
 20
1411.43
 11
115.736
 21
1411.3
  0
LINE
  8
0
 10
115.736
 20
1411.3
 11
116.203
 21
1411.12
  0
LINE
  8
0
 10
116.203
 20
1411.12
 11
116.643
 21
1410.88
  0
LINE
  8
0
 10
116.643
 20
1410.88
 11
117.05
 21
1410.58
  0
LINE
  8
0
 10
117.05
 20
1410.58
 11
117.416
 21
1410.24
  0
LINE
  8
0
 10
117.416
 20
1410.24
 11
117.736
 21
1409.85
  0
LINE
  8
0
 10
117.736
 20
1409.85
 11
118.005
 21
1409.43
  0
LINE
  8
0
 10
118.005
 20
1409.43
 11
118.219
 21
1408.97
  0
LINE
  8
0
 10
118.219
 20
1408.97
 11
118.374
 21
1408.49
  0
LINE
  8
0
 10
118.374
 20
1408.49
 11
118.468
 21
1408
  0
LINE
  8
0
 10
118.468
 20
1408
 11
118.5
 21
1407.5
  0
LINE
  8
0
 10
118.5
 20
1407.5
 11
118.5
 21
1238.5
  0
LINE
  8
0
 10
118.5
 20
1238.5
 11
118.468
 21
1238
  0
LINE
  8
0
 10
118.468
 20
1238
 11
118.374
 21
1237.51
  0
LINE
  8
0
 10
118.374
 20
1237.51
 11
118.219
 21
1237.03
  0
LINE
  8
0
 10
118.219
 20
1237.03
 11
118.005
 21
1236.57
  0
LINE
  8
0
 10
118.005
 20
1236.57
 11
117.736
 21
1236.15
  0
LINE
  8
0
 10
117.736
 20
1236.15
 11
117.416
 21
1235.76
  0
LINE
  8
0
 10
117.416
 20
1235.76
 11
117.05
 21
1235.42
  0
LINE
  8
0
 10
117.05
 20
1235.42
 11
116.643
 21
1235.12
  0
LINE
  8
0
 10
116.643
 20
1235.12
 11
116.203
 21
1234.88
  0
LINE
  8
0
 10
116.203
 20
1234.88
 11
115.736
 21
1234.7
  0
LINE
  8
0
 10
115.736
 20
1234.7
 11
115.25
 21
1234.57
  0
LINE
  8
0
 10
115.25
 20
1234.57
 11
114.751
 21
1234.51
  0
LINE
  8
0
 10
114.751
 20
1234.51
 11
-114.751
 21
1234.51
  0
LINE
  8
0
 10
-118.5
 20
1045.44
 11
-118.187
 21
1045.15
  0
LINE
  8
0
 10
-118.187
 20
1045.15
 11
-117.679
 21
1044.78
  0
LINE
  8
0
 10
-117.679
 20
1044.78
 11
-117.129
 21
1044.48
  0
LINE
  8
0
 10
-117.129
 20
1044.48
 11
-116.545
 21
1044.24
  0
LINE
  8
0
 10
-116.545
 20
1044.24
 11
-115.937
 21
1044.09
  0
LINE
  8
0
 10
-115.937
 20
1044.09
 11
-115.314
 21
1044.01
  0
LINE
  8
0
 10
-115.314
 20
1044.01
 11
115.314
 21
1044.01
  0
LINE
  8
0
 10
115.314
 20
1044.01
 11
115.937
 21
1044.09
  0
LINE
  8
0
 10
115.937
 20
1044.09
 11
116.545
 21
1044.24
  0
LINE
  8
0
 10
116.545
 20
1044.24
 11
117.129
 21
1044.48
  0
LINE
  8
0
 10
117.129
 20
1044.48
 11
117.679
 21
1044.78
  0
LINE
  8
0
 10
117.679
 20
1044.78
 11
118.187
 21
1045.15
  0
LINE
  8
0
 10
118.187
 20
1045.15
 11
118.645
 21
1045.58
  0
LINE
  8
0
 10
118.645
 20
1045.58
 11
119.045
 21
1046.06
  0
LINE
  8
0
 10
119.045
 20
1046.06
 11
119.382
 21
1046.59
  0
LINE
  8
0
 10
119.382
 20
1046.59
 11
119.649
 21
1047.16
  0
LINE
  8
0
 10
119.649
 20
1047.16
 11
119.843
 21
1047.76
  0
LINE
  8
0
 10
119.843
 20
1047.76
 11
119.961
 21
1048.37
  0
LINE
  8
0
 10
119.961
 20
1048.37
 11
120
 21
1049
  0
LINE
  8
0
 10
120
 20
1049
 11
120
 21
1219
  0
LINE
  8
0
 10
120
 20
1219
 11
119.961
 21
1219.63
  0
LINE
  8
0
 10
119.961
 20
1219.63
 11
119.843
 21
1220.24
  0
LINE
  8
0
 10
119.843
 20
1220.24
 11
119.649
 21
1220.84
  0
LINE
  8
0
 10
119.649
 20
1220.84
 11
119.382
 21
1221.41
  0
LINE
  8
0
 10
119.382
 20
1221.41
 11
119.045
 21
1221.94
  0
LINE
  8
0
 10
119.045
 20
1221.94
 11
118.645
 21
1222.42
  0
LINE
  8
0
 10
118.645
 20
1222.42
 11
118.187
 21
1222.85
  0
LINE
  8
0
 10
118.187
 20
1222.85
 11
117.679
 21
1223.22
  0
LINE
  8
0
 10
117.679
 20
1223.22
 11
117.129
 21
1223.52
  0
LINE
  8
0
 10
117.129
 20
1223.52
 11
116.545
 21
1223.76
  0
LINE
  8
0
 10
116.545
 20
1223.76
 11
115.937
 21
1223.91
  0
LINE
  8
0
 10
115.937
 20
1223.91
 11
115.314
 21
1223.99
  0
LINE
  8
0
 10
115.314
 20
1223.99
 11
-115.314
 21
1223.99
  0
LINE
  8
0
 10
-115.314
 20
1223.99
 11
-115.937
 21
1223.91
  0
LINE
  8
0
 10
-115.937
 20
1223.91
 11
-116.545
 21
1223.76
  0
LINE
  8
0
 10
-116.545
 20
1223.76
 11
-117.129
 21
1223.52
  0
LINE
  8
0
 10
-117.129
 20
1223.52
 11
-117.679
 21
1223.22
  0
LINE
  8
0
 10
-117.679
 20
1223.22
 11
-118.187
 21
1222.85
  0
LINE
  8
0
 10
-118.187
 20
1222.85
 11
-118.5
 21
1222.56
  0
LINE
  8
0
 10
-118.5
 20
1222.56
 11
-118.5
 21
1223.99
  0
LINE
  8
0
 10
-118.5
 20
1223.99
 11
-121.5
 21
1223.99
  0
LINE
  8
0
 10
-121.5
 20
1223.99
 11
-121.5
 21
1044.01
  0
LINE
  8
0
 10
-121.5
 20
1044.01
 11
-118.5
 21
1044.01
  0
LINE
  8
0
 10
-118.5
 20
1044.01
 11
-118.5
 21
1045.44
  0
LINE
  8
0
 10
-114.751
 20
1045.51
 11
-115.25
 21
1045.57
  0
LINE
  8
0
 10
-115.25
 20
1045.57
 11
-115.736
 21
1045.7
  0
LINE
  8
0
 10
-115.736
 20
1045.7
 11
-116.203
 21
1045.88
  0
LINE
  8
0
 10
-116.203
 20
1045.88
 11
-116.643
 21
1046.12
  0
LINE
  8
0
 10
-116.643
 20
1046.12
 11
-117.05
 21
1046.42
  0
LINE
  8
0
 10
-117.05
 20
1046.42
 11
-117.416
 21
1046.76
  0
LINE
  8
0
 10
-117.416
 20
1046.76
 11
-117.736
 21
1047.15
  0
LINE
  8
0
 10
-117.736
 20
1047.15
 11
-118.005
 21
1047.57
  0
LINE
  8
0
 10
-118.005
 20
1047.57
 11
-118.219
 21
1048.03
  0
LINE
  8
0
 10
-118.219
 20
1048.03
 11
-118.374
 21
1048.51
  0
LINE
  8
0
 10
-118.374
 20
1048.51
 11
-118.468
 21
1049
  0
LINE
  8
0
 10
-118.468
 20
1049
 11
-118.5
 21
1049.5
  0
LINE
  8
0
 10
-118.5
 20
1049.5
 11
-118.5
 21
1218.5
  0
LINE
  8
0
 10
-118.5
 20
1218.5
 11
-118.468
 21
1219
  0
LINE
  8
0
 10
-118.468
 20
1219
 11
-118.374
 21
1219.49
  0
LINE
  8
0
 10
-118.374
 20
1219.49
 11
-118.219
 21
1219.97
  0
LINE
  8
0
 10
-118.219
 20
1219.97
 11
-118.005
 21
1220.43
  0
LINE
  8
0
 10
-118.005
 20
1220.43
 11
-117.736
 21
1220.85
  0
LINE
  8
0
 10
-117.736
 20
1220.85
 11
-117.416
 21
1221.24
  0
LINE
  8
0
 10
-117.416
 20
1221.24
 11
-117.05
 21
1221.58
  0
LINE
  8
0
 10
-117.05
 20
1221.58
 11
-116.643
 21
1221.88
  0
LINE
  8
0
 10
-116.643
 20
1221.88
 11
-116.203
 21
1222.12
  0
LINE
  8
0
 10
-116.203
 20
1222.12
 11
-115.736
 21
1222.3
  0
LINE
  8
0
 10
-115.736
 20
1222.3
 11
-115.25
 21
1222.43
  0
LINE
  8
0
 10
-115.25
 20
1222.43
 11
-114.751
 21
1222.49
  0
LINE
  8
0
 10
-114.751
 20
1222.49
 11
114.751
 21
1222.49
  0
LINE
  8
0
 10
114.751
 20
1222.49
 11
115.25
 21
1222.43
  0
LINE
  8
0
 10
115.25
 20
1222.43
 11
115.736
 21
1222.3
  0
LINE
  8
0
 10
115.736
 20
1222.3
 11
116.203
 21
1222.12
  0
LINE
  8
0
 10
116.203
 20
1222.12
 11
116.643
 21
1221.88
  0
LINE
  8
0
 10
116.643
 20
1221.88
 11
117.05
 21
1221.58
  0
LINE
  8
0
 10
117.05
 20
1221.58
 11
117.416
 21
1221.24
  0
LINE
  8
0
 10
117.416
 20
1221.24
 11
117.736
 21
1220.85
  0
LINE
  8
0
 10
117.736
 20
1220.85
 11
118.005
 21
1220.43
  0
LINE
  8
0
 10
118.005
 20
1220.43
 11
118.219
 21
1219.97
  0
LINE
  8
0
 10
118.219
 20
1219.97
 11
118.374
 21
1219.49
  0
LINE
  8
0
 10
118.374
 20
1219.49
 11
118.468
 21
1219
  0
LINE
  8
0
 10
118.468
 20
1219
 11
118.5
 21
1218.5
  0
LINE
  8
0
 10
118.5
 20
1218.5
 11
118.5
 21
1049.5
  0
LINE
  8
0
 10
118.5
 20
1049.5
 11
118.468
 21
1049
  0
LINE
  8
0
 10
118.468
 20
1049
 11
118.374
 21
1048.51
  0
LINE
  8
0
 10
118.374
 20
1048.51
 11
118.219
 21
1048.03
  0
LINE
  8
0
 10
118.219
 20
1048.03
 11
118.005
 21
1047.57
  0
LINE
  8
0
 10
118.005
 20
1047.57
 11
117.736
 21
1047.15
  0
LINE
  8
0
 10
117.736
 20
1047.15
 11
117.416
 21
1046.76
  0
LINE
  8
0
 10
117.416
 20
1046.76
 11
117.05
 21
1046.42
  0
LINE
  8
0
 10
117.05
 20
1046.42
 11
116.643
 21
1046.12
  0
LINE
  8
0
 10
116.643
 20
1046.12
 11
116.203
 21
1045.88
  0
LINE
  8
0
 10
116.203
 20
1045.88
 11
115.736
 21
1045.7
  0
LINE
  8
0
 10
115.736
 20
1045.7
 11
115.25
 21
1045.57
  0
LINE
  8
0
 10
115.25
 20
1045.57
 11
114.751
 21
1045.51
  0
LINE
  8
0
 10
114.751
 20
1045.51
 11
-114.751
 21
1045.51
  0
LINE
  8
0
 10
115.937
 20
855.089
 11
116.545
 21
855.245
  0
LINE
  8
0
 10
116.545
 20
855.245
 11
117.129
 21
855.476
  0
LINE
  8
0
 10
117.129
 20
855.476
 11
117.679
 21
855.778
  0
LINE
  8
0
 10
117.679
 20
855.778
 11
118.187
 21
856.147
  0
LINE
  8
0
 10
118.187
 20
856.147
 11
118.645
 21
856.577
  0
LINE
  8
0
 10
118.645
 20
856.577
 11
119.045
 21
857.061
  0
LINE
  8
0
 10
119.045
 20
857.061
 11
119.382
 21
857.591
  0
LINE
  8
0
 10
119.382
 20
857.591
 11
119.649
 21
858.159
  0
LINE
  8
0
 10
119.649
 20
858.159
 11
119.843
 21
858.757
  0
LINE
  8
0
 10
119.843
 20
858.757
 11
119.961
 21
859.373
  0
LINE
  8
0
 10
119.961
 20
859.373
 11
120
 21
860
  0
LINE
  8
0
 10
120
 20
860
 11
120
 21
1030
  0
LINE
  8
0
 10
120
 20
1030
 11
119.961
 21
1030.63
  0
LINE
  8
0
 10
119.961
 20
1030.63
 11
119.843
 21
1031.24
  0
LINE
  8
0
 10
119.843
 20
1031.24
 11
119.649
 21
1031.84
  0
LINE
  8
0
 10
119.649
 20
1031.84
 11
119.382
 21
1032.41
  0
LINE
  8
0
 10
119.382
 20
1032.41
 11
119.045
 21
1032.94
  0
LINE
  8
0
 10
119.045
 20
1032.94
 11
118.645
 21
1033.42
  0
LINE
  8
0
 10
118.645
 20
1033.42
 11
118.187
 21
1033.85
  0
LINE
  8
0
 10
118.187
 20
1033.85
 11
117.679
 21
1034.22
  0
LINE
  8
0
 10
117.679
 20
1034.22
 11
117.129
 21
1034.52
  0
LINE
  8
0
 10
117.129
 20
1034.52
 11
116.545
 21
1034.76
  0
LINE
  8
0
 10
116.545
 20
1034.76
 11
115.937
 21
1034.91
  0
LINE
  8
0
 10
115.937
 20
1034.91
 11
115.314
 21
1034.99
  0
LINE
  8
0
 10
115.314
 20
1034.99
 11
-115.314
 21
1034.99
  0
LINE
  8
0
 10
-115.314
 20
1034.99
 11
-115.937
 21
1034.91
  0
LINE
  8
0
 10
-115.937
 20
1034.91
 11
-116.545
 21
1034.76
  0
LINE
  8
0
 10
-116.545
 20
1034.76
 11
-117.129
 21
1034.52
  0
LINE
  8
0
 10
-117.129
 20
1034.52
 11
-117.679
 21
1034.22
  0
LINE
  8
0
 10
-117.679
 20
1034.22
 11
-118.187
 21
1033.85
  0
LINE
  8
0
 10
-118.187
 20
1033.85
 11
-118.5
 21
1033.56
  0
LINE
  8
0
 10
-118.5
 20
1033.56
 11
-118.5
 21
1034.98
  0
LINE
  8
0
 10
-118.5
 20
1034.98
 11
-121.5
 21
1034.98
  0
LINE
  8
0
 10
-121.5
 20
1034.98
 11
-121.5
 21
855.021
  0
LINE
  8
0
 10
-121.5
 20
855.021
 11
-118.5
 21
855.021
  0
LINE
  8
0
 10
-118.5
 20
855.021
 11
-118.5
 21
856.441
  0
LINE
  8
0
 10
-118.5
 20
856.441
 11
-118.187
 21
856.147
  0
LINE
  8
0
 10
-118.187
 20
856.147
 11
-117.679
 21
855.778
  0
LINE
  8
0
 10
-117.679
 20
855.778
 11
-117.129
 21
855.476
  0
LINE
  8
0
 10
-117.129
 20
855.476
 11
-116.545
 21
855.245
  0
LINE
  8
0
 10
-116.545
 20
855.245
 11
-115.937
 21
855.089
  0
LINE
  8
0
 10
-115.937
 20
855.089
 11
-115.314
 21
855.01
  0
LINE
  8
0
 10
-115.314
 20
855.01
 11
115.314
 21
855.01
  0
LINE
  8
0
 10
115.314
 20
855.01
 11
115.937
 21
855.089
  0
LINE
  8
0
 10
-114.695
 20
857.393
 11
-115.083
 21
857.442
  0
LINE
  8
0
 10
-115.083
 20
857.442
 11
-115.462
 21
857.539
  0
LINE
  8
0
 10
-115.462
 20
857.539
 11
-115.825
 21
857.683
  0
LINE
  8
0
 10
-115.825
 20
857.683
 11
-116.168
 21
857.872
  0
LINE
  8
0
 10
-116.168
 20
857.872
 11
-116.484
 21
858.101
  0
LINE
  8
0
 10
-116.484
 20
858.101
 11
-116.769
 21
858.369
  0
LINE
  8
0
 10
-116.769
 20
858.369
 11
-117.018
 21
858.67
  0
LINE
  8
0
 10
-117.018
 20
858.67
 11
-117.228
 21
859
  0
LINE
  8
0
 10
-117.228
 20
859
 11
-117.394
 21
859.354
  0
LINE
  8
0
 10
-117.394
 20
859.354
 11
-117.515
 21
859.726
  0
LINE
  8
0
 10
-117.515
 20
859.726
 11
-117.588
 21
860.11
  0
LINE
  8
0
 10
-117.588
 20
860.11
 11
-117.613
 21
860.5
  0
LINE
  8
0
 10
-117.613
 20
860.5
 11
-117.613
 21
1029.5
  0
LINE
  8
0
 10
-117.613
 20
1029.5
 11
-117.588
 21
1029.89
  0
LINE
  8
0
 10
-117.588
 20
1029.89
 11
-117.515
 21
1030.27
  0
LINE
  8
0
 10
-117.515
 20
1030.27
 11
-117.394
 21
1030.65
  0
LINE
  8
0
 10
-117.394
 20
1030.65
 11
-117.228
 21
1031
  0
LINE
  8
0
 10
-117.228
 20
1031
 11
-117.018
 21
1031.33
  0
LINE
  8
0
 10
-117.018
 20
1031.33
 11
-116.769
 21
1031.63
  0
LINE
  8
0
 10
-116.769
 20
1031.63
 11
-116.484
 21
1031.9
  0
LINE
  8
0
 10
-116.484
 20
1031.9
 11
-116.168
 21
1032.13
  0
LINE
  8
0
 10
-116.168
 20
1032.13
 11
-115.825
 21
1032.32
  0
LINE
  8
0
 10
-115.825
 20
1032.32
 11
-115.462
 21
1032.46
  0
LINE
  8
0
 10
-115.462
 20
1032.46
 11
-115.083
 21
1032.56
  0
LINE
  8
0
 10
-115.083
 20
1032.56
 11
-114.695
 21
1032.61
  0
LINE
  8
0
 10
-114.695
 20
1032.61
 11
114.695
 21
1032.61
  0
LINE
  8
0
 10
114.695
 20
1032.61
 11
115.083
 21
1032.56
  0
LINE
  8
0
 10
115.083
 20
1032.56
 11
115.462
 21
1032.46
  0
LINE
  8
0
 10
115.462
 20
1032.46
 11
115.825
 21
1032.32
  0
LINE
  8
0
 10
115.825
 20
1032.32
 11
116.168
 21
1032.13
  0
LINE
  8
0
 10
116.168
 20
1032.13
 11
116.484
 21
1031.9
  0
LINE
  8
0
 10
116.484
 20
1031.9
 11
116.769
 21
1031.63
  0
LINE
  8
0
 10
116.769
 20
1031.63
 11
117.018
 21
1031.33
  0
LINE
  8
0
 10
117.018
 20
1031.33
 11
117.228
 21
1031
  0
LINE
  8
0
 10
117.228
 20
1031
 11
117.394
 21
1030.65
  0
LINE
  8
0
 10
117.394
 20
1030.65
 11
117.515
 21
1030.27
  0
LINE
  8
0
 10
117.515
 20
1030.27
 11
117.588
 21
1029.89
  0
LINE
  8
0
 10
117.588
 20
1029.89
 11
117.613
 21
1029.5
  0
LINE
  8
0
 10
117.613
 20
1029.5
 11
117.613
 21
860.5
  0
LINE
  8
0
 10
117.613
 20
860.5
 11
117.588
 21
860.11
  0
LINE
  8
0
 10
117.588
 20
860.11
 11
117.515
 21
859.726
  0
LINE
  8
0
 10
117.515
 20
859.726
 11
117.394
 21
859.354
  0
LINE
  8
0
 10
117.394
 20
859.354
 11
117.228
 21
859
  0
LINE
  8
0
 10
117.228
 20
859
 11
117.018
 21
858.67
  0
LINE
  8
0
 10
117.018
 20
858.67
 11
116.769
 21
858.369
  0
LINE
  8
0
 10
116.769
 20
858.369
 11
116.484
 21
858.101
  0
LINE
  8
0
 10
116.484
 20
858.101
 11
116.168
 21
857.872
  0
LINE
  8
0
 10
116.168
 20
857.872
 11
115.825
 21
857.683
  0
LINE
  8
0
 10
115.825
 20
857.683
 11
115.462
 21
857.539
  0
LINE
  8
0
 10
115.462
 20
857.539
 11
115.083
 21
857.442
  0
LINE
  8
0
 10
115.083
 20
857.442
 11
114.695
 21
857.393
  0
LINE
  8
0
 10
114.695
 20
857.393
 11
-114.695
 21
857.393
  0
LINE
  8
0
 10
115.937
 20
666.089
 11
116.545
 21
666.245
  0
LINE
  8
0
 10
116.545
 20
666.245
 11
117.129
 21
666.476
  0
LINE
  8
0
 10
117.129
 20
666.476
 11
117.679
 21
666.778
  0
LINE
  8
0
 10
117.679
 20
666.778
 11
118.187
 21
667.147
  0
LINE
  8
0
 10
118.187
 20
667.147
 11
118.645
 21
667.577
  0
LINE
  8
0
 10
118.645
 20
667.577
 11
119.045
 21
668.061
  0
LINE
  8
0
 10
119.045
 20
668.061
 11
119.382
 21
668.591
  0
LINE
  8
0
 10
119.382
 20
668.591
 11
119.649
 21
669.159
  0
LINE
  8
0
 10
119.649
 20
669.159
 11
119.843
 21
669.757
  0
LINE
  8
0
 10
119.843
 20
669.757
 11
119.961
 21
670.373
  0
LINE
  8
0
 10
119.961
 20
670.373
 11
120
 21
671
  0
LINE
  8
0
 10
120
 20
671
 11
120
 21
841
  0
LINE
  8
0
 10
120
 20
841
 11
119.961
 21
841.627
  0
LINE
  8
0
 10
119.961
 20
841.627
 11
119.843
 21
842.243
  0
LINE
  8
0
 10
119.843
 20
842.243
 11
119.649
 21
842.841
  0
LINE
  8
0
 10
119.649
 20
842.841
 11
119.382
 21
843.409
  0
LINE
  8
0
 10
119.382
 20
843.409
 11
119.045
 21
843.939
  0
LINE
  8
0
 10
119.045
 20
843.939
 11
118.645
 21
844.423
  0
LINE
  8
0
 10
118.645
 20
844.423
 11
118.187
 21
844.853
  0
LINE
  8
0
 10
118.187
 20
844.853
 11
117.679
 21
845.222
  0
LINE
  8
0
 10
117.679
 20
845.222
 11
117.129
 21
845.524
  0
LINE
  8
0
 10
117.129
 20
845.524
 11
116.545
 21
845.755
  0
LINE
  8
0
 10
116.545
 20
845.755
 11
115.937
 21
845.911
  0
LINE
  8
0
 10
115.937
 20
845.911
 11
115.314
 21
845.99
  0
LINE
  8
0
 10
115.314
 20
845.99
 11
-115.314
 21
845.99
  0
LINE
  8
0
 10
-115.314
 20
845.99
 11
-115.937
 21
845.911
  0
LINE
  8
0
 10
-115.937
 20
845.911
 11
-116.545
 21
845.755
  0
LINE
  8
0
 10
-116.545
 20
845.755
 11
-117.129
 21
845.524
  0
LINE
  8
0
 10
-117.129
 20
845.524
 11
-117.679
 21
845.222
  0
LINE
  8
0
 10
-117.679
 20
845.222
 11
-118.187
 21
844.853
  0
LINE
  8
0
 10
-118.187
 20
844.853
 11
-118.5
 21
844.559
  0
LINE
  8
0
 10
-118.5
 20
844.559
 11
-118.5
 21
844.653
  0
LINE
  8
0
 10
-118.5
 20
844.653
 11
-121.5
 21
844.653
  0
LINE
  8
0
 10
-121.5
 20
844.653
 11
-121.5
 21
667.347
  0
LINE
  8
0
 10
-121.5
 20
667.347
 11
-118.5
 21
667.347
  0
LINE
  8
0
 10
-118.5
 20
667.347
 11
-118.5
 21
667.441
  0
LINE
  8
0
 10
-118.5
 20
667.441
 11
-118.187
 21
667.147
  0
LINE
  8
0
 10
-118.187
 20
667.147
 11
-117.679
 21
666.778
  0
LINE
  8
0
 10
-117.679
 20
666.778
 11
-117.129
 21
666.476
  0
LINE
  8
0
 10
-117.129
 20
666.476
 11
-116.545
 21
666.245
  0
LINE
  8
0
 10
-116.545
 20
666.245
 11
-115.937
 21
666.089
  0
LINE
  8
0
 10
-115.937
 20
666.089
 11
-115.314
 21
666.01
  0
LINE
  8
0
 10
-115.314
 20
666.01
 11
115.314
 21
666.01
  0
LINE
  8
0
 10
115.314
 20
666.01
 11
115.937
 21
666.089
  0
LINE
  8
0
 10
-112.634
 20
836.369
 11
-112.9
 21
836.403
  0
LINE
  8
0
 10
-112.9
 20
836.403
 11
-113.16
 21
836.469
  0
LINE
  8
0
 10
-113.16
 20
836.469
 11
-113.409
 21
836.568
  0
LINE
  8
0
 10
-113.409
 20
836.568
 11
-113.644
 21
836.697
  0
LINE
  8
0
 10
-113.644
 20
836.697
 11
-113.861
 21
836.855
  0
LINE
  8
0
 10
-113.861
 20
836.855
 11
-114.057
 21
837.038
  0
LINE
  8
0
 10
-114.057
 20
837.038
 11
-114.227
 21
837.245
  0
LINE
  8
0
 10
-114.227
 20
837.245
 11
-114.371
 21
837.471
  0
LINE
  8
0
 10
-114.371
 20
837.471
 11
-114.485
 21
837.714
  0
LINE
  8
0
 10
-114.485
 20
837.714
 11
-114.568
 21
837.969
  0
LINE
  8
0
 10
-114.568
 20
837.969
 11
-114.618
 21
838.232
  0
LINE
  8
0
 10
-114.618
 20
838.232
 11
-114.635
 21
838.5
  0
LINE
  8
0
 10
-114.635
 20
838.5
 11
-114.618
 21
838.768
  0
LINE
  8
0
 10
-114.618
 20
838.768
 11
-114.568
 21
839.031
  0
LINE
  8
0
 10
-114.568
 20
839.031
 11
-114.485
 21
839.286
  0
LINE
  8
0
 10
-114.485
 20
839.286
 11
-114.371
 21
839.529
  0
LINE
  8
0
 10
-114.371
 20
839.529
 11
-114.227
 21
839.755
  0
LINE
  8
0
 10
-114.227
 20
839.755
 11
-114.057
 21
839.962
  0
LINE
  8
0
 10
-114.057
 20
839.962
 11
-113.861
 21
840.145
  0
LINE
  8
0
 10
-113.861
 20
840.145
 11
-113.644
 21
840.303
  0
LINE
  8
0
 10
-113.644
 20
840.303
 11
-113.409
 21
840.432
  0
LINE
  8
0
 10
-113.409
 20
840.432
 11
-113.16
 21
840.531
  0
LINE
  8
0
 10
-113.16
 20
840.531
 11
-112.9
 21
840.597
  0
LINE
  8
0
 10
-112.9
 20
840.597
 11
-112.634
 21
840.631
  0
LINE
  8
0
 10
-112.634
 20
840.631
 11
-112.366
 21
840.631
  0
LINE
  8
0
 10
-112.366
 20
840.631
 11
-112.1
 21
840.597
  0
LINE
  8
0
 10
-112.1
 20
840.597
 11
-111.84
 21
840.531
  0
LINE
  8
0
 10
-111.84
 20
840.531
 11
-111.591
 21
840.432
  0
LINE
  8
0
 10
-111.591
 20
840.432
 11
-111.356
 21
840.303
  0
LINE
  8
0
 10
-111.356
 20
840.303
 11
-111.139
 21
840.145
  0
LINE
  8
0
 10
-111.139
 20
840.145
 11
-110.943
 21
839.962
  0
LINE
  8
0
 10
-110.943
 20
839.962
 11
-110.773
 21
839.755
  0
LINE
  8
0
 10
-110.773
 20
839.755
 11
-110.629
 21
839.529
  0
LINE
  8
0
 10
-110.629
 20
839.529
 11
-110.515
 21
839.286
  0
LINE
  8
0
 10
-110.515
 20
839.286
 11
-110.432
 21
839.031
  0
LINE
  8
0
 10
-110.432
 20
839.031
 11
-110.382
 21
838.768
  0
LINE
  8
0
 10
-110.382
 20
838.768
 11
-110.365
 21
838.5
  0
LINE
  8
0
 10
-110.365
 20
838.5
 11
-110.382
 21
838.232
  0
LINE
  8
0
 10
-110.382
 20
838.232
 11
-110.432
 21
837.969
  0
LINE
  8
0
 10
-110.432
 20
837.969
 11
-110.515
 21
837.714
  0
LINE
  8
0
 10
-110.515
 20
837.714
 11
-110.629
 21
837.471
  0
LINE
  8
0
 10
-110.629
 20
837.471
 11
-110.773
 21
837.245
  0
LINE
  8
0
 10
-110.773
 20
837.245
 11
-110.943
 21
837.038
  0
LINE
  8
0
 10
-110.943
 20
837.038
 11
-111.139
 21
836.855
  0
LINE
  8
0
 10
-111.139
 20
836.855
 11
-111.356
 21
836.697
  0
LINE
  8
0
 10
-111.356
 20
836.697
 11
-111.591
 21
836.568
  0
LINE
  8
0
 10
-111.591
 20
836.568
 11
-111.84
 21
836.469
  0
LINE
  8
0
 10
-111.84
 20
836.469
 11
-112.1
 21
836.403
  0
LINE
  8
0
 10
-112.1
 20
836.403
 11
-112.366
 21
836.369
  0
LINE
  8
0
 10
-112.366
 20
836.369
 11
-112.634
 21
836.369
  0
LINE
  8
0
 10
112.366
 20
836.369
 11
112.1
 21
836.403
  0
LINE
  8
0
 10
112.1
 20
836.403
 11
111.84
 21
836.469
  0
LINE
  8
0
 10
111.84
 20
836.469
 11
111.591
 21
836.568
  0
LINE
  8
0
 10
111.591
 20
836.568
 11
111.356
 21
836.697
  0
LINE
  8
0
 10
111.356
 20
836.697
 11
111.139
 21
836.855
  0
LINE
  8
0
 10
111.139
 20
836.855
 11
110.943
 21
837.038
  0
LINE
  8
0
 10
110.943
 20
837.038
 11
110.773
 21
837.245
  0
LINE
  8
0
 10
110.773
 20
837.245
 11
110.629
 21
837.471
  0
LINE
  8
0
 10
110.629
 20
837.471
 11
110.515
 21
837.714
  0
LINE
  8
0
 10
110.515
 20
837.714
 11
110.432
 21
837.969
  0
LINE
  8
0
 10
110.432
 20
837.969
 11
110.382
 21
838.232
  0
LINE
  8
0
 10
110.382
 20
838.232
 11
110.365
 21
838.5
  0
LINE
  8
0
 10
110.365
 20
838.5
 11
110.382
 21
838.768
  0
LINE
  8
0
 10
110.382
 20
838.768
 11
110.432
 21
839.031
  0
LINE
  8
0
 10
110.432
 20
839.031
 11
110.515
 21
839.286
  0
LINE
  8
0
 10
110.515
 20
839.286
 11
110.629
 21
839.529
  0
LINE
  8
0
 10
110.629
 20
839.529
 11
110.773
 21
839.755
  0
LINE
  8
0
 10
110.773
 20
839.755
 11
110.943
 21
839.962
  0
LINE
  8
0
 10
110.943
 20
839.962
 11
111.139
 21
840.145
  0
LINE
  8
0
 10
111.139
 20
840.145
 11
111.356
 21
840.303
  0
LINE
  8
0
 10
111.356
 20
840.303
 11
111.591
 21
840.432
  0
LINE
  8
0
 10
111.591
 20
840.432
 11
111.84
 21
840.531
  0
LINE
  8
0
 10
111.84
 20
840.531
 11
112.1
 21
840.597
  0
LINE
  8
0
 10
112.1
 20
840.597
 11
112.366
 21
840.631
  0
LINE
  8
0
 10
112.366
 20
840.631
 11
112.634
 21
840.631
  0
LINE
  8
0
 10
112.634
 20
840.631
 11
112.9
 21
840.597
  0
LINE
  8
0
 10
112.9
 20
840.597
 11
113.16
 21
840.531
  0
LINE
  8
0
 10
113.16
 20
840.531
 11
113.409
 21
840.432
  0
LINE
  8
0
 10
113.409
 20
840.432
 11
113.644
 21
840.303
  0
LINE
  8
0
 10
113.644
 20
840.303
 11
113.861
 21
840.145
  0
LINE
  8
0
 10
113.861
 20
840.145
 11
114.057
 21
839.962
  0
LINE
  8
0
 10
114.057
 20
839.962
 11
114.227
 21
839.755
  0
LINE
  8
0
 10
114.227
 20
839.755
 11
114.371
 21
839.529
  0
LINE
  8
0
 10
114.371
 20
839.529
 11
114.485
 21
839.286
  0
LINE
  8
0
 10
114.485
 20
839.286
 11
114.568
 21
839.031
  0
LINE
  8
0
 10
114.568
 20
839.031
 11
114.618
 21
838.768
  0
LINE
  8
0
 10
114.618
 20
838.768
 11
114.635
 21
838.5
  0
LINE
  8
0
 10
114.635
 20
838.5
 11
114.618
 21
838.232
  0
LINE
  8
0
 10
114.618
 20
838.232
 11
114.568
 21
837.969
  0
LINE
  8
0
 10
114.568
 20
837.969
 11
114.485
 21
837.714
  0
LINE
  8
0
 10
114.485
 20
837.714
 11
114.371
 21
837.471
  0
LINE
  8
0
 10
114.371
 20
837.471
 11
114.227
 21
837.245
  0
LINE
  8
0
 10
114.227
 20
837.245
 11
114.057
 21
837.038
  0
LINE
  8
0
 10
114.057
 20
837.038
 11
113.861
 21
836.855
  0
LINE
  8
0
 10
113.861
 20
836.855
 11
113.644
 21
836.697
  0
LINE
  8
0
 10
113.644
 20
836.697
 11
113.409
 21
836.568
  0
LINE
  8
0
 10
113.409
 20
836.568
 11
113.16
 21
836.469
  0
LINE
  8
0
 10
113.16
 20
836.469
 11
112.9
 21
836.403
  0
LINE
  8
0
 10
112.9
 20
836.403
 11
112.634
 21
836.369
  0
LINE
  8
0
 10
112.634
 20
836.369
 11
112.366
 21
836.369
  0
LINE
  8
0
 10
-112.634
 20
671.369
 11
-112.9
 21
671.403
  0
LINE
  8
0
 10
-112.9
 20
671.403
 11
-113.16
 21
671.469
  0
LINE
  8
0
 10
-113.16
 20
671.469
 11
-113.409
 21
671.568
  0
LINE
  8
0
 10
-113.409
 20
671.568
 11
-113.644
 21
671.697
  0
LINE
  8
0
 10
-113.644
 20
671.697
 11
-113.861
 21
671.855
  0
LINE
  8
0
 10
-113.861
 20
671.855
 11
-114.057
 21
672.038
  0
LINE
  8
0
 10
-114.057
 20
672.038
 11
-114.227
 21
672.245
  0
LINE
  8
0
 10
-114.227
 20
672.245
 11
-114.371
 21
672.471
  0
LINE
  8
0
 10
-114.371
 20
672.471
 11
-114.485
 21
672.714
  0
LINE
  8
0
 10
-114.485
 20
672.714
 11
-114.568
 21
672.969
  0
LINE
  8
0
 10
-114.568
 20
672.969
 11
-114.618
 21
673.232
  0
LINE
  8
0
 10
-114.618
 20
673.232
 11
-114.635
 21
673.5
  0
LINE
  8
0
 10
-114.635
 20
673.5
 11
-114.618
 21
673.768
  0
LINE
  8
0
 10
-114.618
 20
673.768
 11
-114.568
 21
674.031
  0
LINE
  8
0
 10
-114.568
 20
674.031
 11
-114.485
 21
674.286
  0
LINE
  8
0
 10
-114.485
 20
674.286
 11
-114.371
 21
674.529
  0
LINE
  8
0
 10
-114.371
 20
674.529
 11
-114.227
 21
674.755
  0
LINE
  8
0
 10
-114.227
 20
674.755
 11
-114.057
 21
674.962
  0
LINE
  8
0
 10
-114.057
 20
674.962
 11
-113.861
 21
675.145
  0
LINE
  8
0
 10
-113.861
 20
675.145
 11
-113.644
 21
675.303
  0
LINE
  8
0
 10
-113.644
 20
675.303
 11
-113.409
 21
675.432
  0
LINE
  8
0
 10
-113.409
 20
675.432
 11
-113.16
 21
675.531
  0
LINE
  8
0
 10
-113.16
 20
675.531
 11
-112.9
 21
675.597
  0
LINE
  8
0
 10
-112.9
 20
675.597
 11
-112.634
 21
675.631
  0
LINE
  8
0
 10
-112.634
 20
675.631
 11
-112.366
 21
675.631
  0
LINE
  8
0
 10
-112.366
 20
675.631
 11
-112.1
 21
675.597
  0
LINE
  8
0
 10
-112.1
 20
675.597
 11
-111.84
 21
675.531
  0
LINE
  8
0
 10
-111.84
 20
675.531
 11
-111.591
 21
675.432
  0
LINE
  8
0
 10
-111.591
 20
675.432
 11
-111.356
 21
675.303
  0
LINE
  8
0
 10
-111.356
 20
675.303
 11
-111.139
 21
675.145
  0
LINE
  8
0
 10
-111.139
 20
675.145
 11
-110.943
 21
674.962
  0
LINE
  8
0
 10
-110.943
 20
674.962
 11
-110.773
 21
674.755
  0
LINE
  8
0
 10
-110.773
 20
674.755
 11
-110.629
 21
674.529
  0
LINE
  8
0
 10
-110.629
 20
674.529
 11
-110.515
 21
674.286
  0
LINE
  8
0
 10
-110.515
 20
674.286
 11
-110.432
 21
674.031
  0
LINE
  8
0
 10
-110.432
 20
674.031
 11
-110.382
 21
673.768
  0
LINE
  8
0
 10
-110.382
 20
673.768
 11
-110.365
 21
673.5
  0
LINE
  8
0
 10
-110.365
 20
673.5
 11
-110.382
 21
673.232
  0
LINE
  8
0
 10
-110.382
 20
673.232
 11
-110.432
 21
672.969
  0
LINE
  8
0
 10
-110.432
 20
672.969
 11
-110.515
 21
672.714
  0
LINE
  8
0
 10
-110.515
 20
672.714
 11
-110.629
 21
672.471
  0
LINE
  8
0
 10
-110.629
 20
672.471
 11
-110.773
 21
672.245
  0
LINE
  8
0
 10
-110.773
 20
672.245
 11
-110.943
 21
672.038
  0
LINE
  8
0
 10
-110.943
 20
672.038
 11
-111.139
 21
671.855
  0
LINE
  8
0
 10
-111.139
 20
671.855
 11
-111.356
 21
671.697
  0
LINE
  8
0
 10
-111.356
 20
671.697
 11
-111.591
 21
671.568
  0
LINE
  8
0
 10
-111.591
 20
671.568
 11
-111.84
 21
671.469
  0
LINE
  8
0
 10
-111.84
 20
671.469
 11
-112.1
 21
671.403
  0
LINE
  8
0
 10
-112.1
 20
671.403
 11
-112.366
 21
671.369
  0
LINE
  8
0
 10
-112.366
 20
671.369
 11
-112.634
 21
671.369
  0
LINE
  8
0
 10
112.366
 20
671.369
 11
112.1
 21
671.403
  0
LINE
  8
0
 10
112.1
 20
671.403
 11
111.84
 21
671.469
  0
LINE
  8
0
 10
111.84
 20
671.469
 11
111.591
 21
671.568
  0
LINE
  8
0
 10
111.591
 20
671.568
 11
111.356
 21
671.697
  0
LINE
  8
0
 10
111.356
 20
671.697
 11
111.139
 21
671.855
  0
LINE
  8
0
 10
111.139
 20
671.855
 11
110.943
 21
672.038
  0
LINE
  8
0
 10
110.943
 20
672.038
 11
110.773
 21
672.245
  0
LINE
  8
0
 10
110.773
 20
672.245
 11
110.629
 21
672.471
  0
LINE
  8
0
 10
110.629
 20
672.471
 11
110.515
 21
672.714
  0
LINE
  8
0
 10
110.515
 20
672.714
 11
110.432
 21
672.969
  0
LINE
  8
0
 10
110.432
 20
672.969
 11
110.382
 21
673.232
  0
LINE
  8
0
 10
110.382
 20
673.232
 11
110.365
 21
673.5
  0
LINE
  8
0
 10
110.365
 20
673.5
 11
110.382
 21
673.768
  0
LINE
  8
0
 10
110.382
 20
673.768
 11
110.432
 21
674.031
  0
LINE
  8
0
 10
110.432
 20
674.031
 11
110.515
 21
674.286
  0
LINE
  8
0
 10
110.515
 20
674.286
 11
110.629
 21
674.529
  0
LINE
  8
0
 10
110.629
 20
674.529
 11
110.773
 21
674.755
  0
LINE
  8
0
 10
110.773
 20
674.755
 11
110.943
 21
674.962
  0
LINE
  8
0
 10
110.943
 20
674.962
 11
111.139
 21
675.145
  0
LINE
  8
0
 10
111.139
 20
675.145
 11
111.356
 21
675.303
  0
LINE
  8
0
 10
111.356
 20
675.303
 11
111.591
 21
675.432
  0
LINE
  8
0
 10
111.591
 20
675.432
 11
111.84
 21
675.531
  0
LINE
  8
0
 10
111.84
 20
675.531
 11
112.1
 21
675.597
  0
LINE
  8
0
 10
112.1
 20
675.597
 11
112.366
 21
675.631
  0
LINE
  8
0
 10
112.366
 20
675.631
 11
112.634
 21
675.631
  0
LINE
  8
0
 10
112.634
 20
675.631
 11
112.9
 21
675.597
  0
LINE
  8
0
 10
112.9
 20
675.597
 11
113.16
 21
675.531
  0
LINE
  8
0
 10
113.16
 20
675.531
 11
113.409
 21
675.432
  0
LINE
  8
0
 10
113.409
 20
675.432
 11
113.644
 21
675.303
  0
LINE
  8
0
 10
113.644
 20
675.303
 11
113.861
 21
675.145
  0
LINE
  8
0
 10
113.861
 20
675.145
 11
114.057
 21
674.962
  0
LINE
  8
0
 10
114.057
 20
674.962
 11
114.227
 21
674.755
  0
LINE
  8
0
 10
114.227
 20
674.755
 11
114.371
 21
674.529
  0
LINE
  8
0
 10
114.371
 20
674.529
 11
114.485
 21
674.286
  0
LINE
  8
0
 10
114.485
 20
674.286
 11
114.568
 21
674.031
  0
LINE
  8
0
 10
114.568
 20
674.031
 11
114.618
 21
673.768
  0
LINE
  8
0
 10
114.618
 20
673.768
 11
114.635
 21
673.5
  0
LINE
  8
0
 10
114.635
 20
673.5
 11
114.618
 21
673.232
  0
LINE
  8
0
 10
114.618
 20
673.232
 11
114.568
 21
672.969
  0
LINE
  8
0
 10
114.568
 20
672.969
 11
114.485
 21
672.714
  0
LINE
  8
0
 10
114.485
 20
672.714
 11
114.371
 21
672.471
  0
LINE
  8
0
 10
114.371
 20
672.471
 11
114.227
 21
672.245
  0
LINE
  8
0
 10
114.227
 20
672.245
 11
114.057
 21
672.038
  0
LINE
  8
0
 10
114.057
 20
672.038
 11
113.861
 21
671.855
  0
LINE
  8
0
 10
113.861
 20
671.855
 11
113.644
 21
671.697
  0
LINE
  8
0
 10
113.644
 20
671.697
 11
113.409
 21
671.568
  0
LINE
  8
0
 10
113.409
 20
671.568
 11
113.16
 21
671.469
  0
LINE
  8
0
 10
113.16
 20
671.469
 11
112.9
 21
671.403
  0
LINE
  8
0
 10
112.9
 20
671.403
 11
112.634
 21
671.369
  0
LINE
  8
0
 10
112.634
 20
671.369
 11
112.366
 21
671.369
  0
ENDSEC
  0
SECTION
  2
OBJECTS
  0
DICTIONARY
  0
ENDSEC
  0
EOF
