<?xml version="1.0" standalone="no"?>
<!DOCTYPE svg PUBLIC "-//W3C//DTD SVG 1.1//EN" "http://www.w3.org/Graphics/SVG/1.1/DTD/svg11.dtd">
<svg width="32mm" height="142mm" viewBox="-16 -236 32 142" xmlns="http://www.w3.org/2000/svg" version="1.1">
<title>OpenSCAD Model</title>
<path d="
M 0.884521,-205.001 L 0.982666,-205.007 L 1.08076,-205.014 L 1.11827,-205.017 L 1.2247,-205.068 L 1.26839,-205.168
 L 1.27646,-205.278 L 1.29799,-205.386 L 1.33263,-205.493 L 1.37994,-205.596 L 1.47218,-205.706 L 1.58646,-205.792
 L 1.71706,-205.852 L 1.85823,-205.885 L 2.00317,-205.89 L 2.14494,-205.865 L 2.27757,-205.812 L 2.39519,-205.729
 L 2.46739,-205.642 L 2.52832,-205.548 L 2.57729,-205.449 L 2.61356,-205.345 L 2.68147,-205.26 L 2.79773,-205.238
 L 2.83469,-205.245 L 2.9312,-205.264 L 3.02759,-205.283 L 3.06439,-205.291 L 3.16319,-205.356 L 3.19348,-205.461
 L 3.18712,-205.571 L 3.19434,-205.681 L 3.21481,-205.791 L 3.24828,-205.899 L 3.32536,-206.02 L 3.42743,-206.12
 L 3.54903,-206.197 L 3.68468,-206.249 L 3.82779,-206.272 L 3.97153,-206.266 L 4.11002,-206.231 L 4.2374,-206.164
 L 4.32037,-206.087 L 4.39299,-206.002 L 4.45447,-205.91 L 4.50403,-205.812 L 4.58247,-205.736 L 4.70062,-205.729
 L 4.73636,-205.741 L 4.82957,-205.773 L 4.92259,-205.804 L 4.95808,-205.817 L 5.04756,-205.894 L 5.06392,-206.002
 L 5.04326,-206.11 L 5.03603,-206.22 L 5.04201,-206.332 L 5.06104,-206.444 L 5.12163,-206.574 L 5.20975,-206.687
 L 5.32028,-206.779 L 5.44807,-206.847 L 5.5869,-206.889 L 5.73016,-206.902 L 5.87213,-206.885 L 6.0071,-206.836
 L 6.09944,-206.77 L 6.18251,-206.695 L 6.25545,-206.612 L 6.31743,-206.521 L 6.40506,-206.456 L 6.5231,-206.465
 L 6.55699,-206.481 L 6.64532,-206.525 L 6.73338,-206.568 L 6.76695,-206.585 L 6.84557,-206.674 L 6.84772,-206.783
 L 6.81311,-206.887 L 6.79153,-206.996 L 6.78291,-207.107 L 6.7872,-207.22 L 6.83028,-207.357 L 6.90292,-207.48
 L 7.0005,-207.586 L 7.11826,-207.671 L 7.25043,-207.73 L 7.39076,-207.762 L 7.53378,-207.763 L 7.67401,-207.732
 L 7.77414,-207.679 L 7.86623,-207.616 L 7.94939,-207.543 L 8.02272,-207.461 L 8.11806,-207.408 L 8.23395,-207.432
 L 8.26543,-207.453 L 8.34737,-207.507 L 8.42896,-207.562 L 8.46002,-207.583 L 8.52644,-207.681 L 8.51434,-207.79
 L 8.46638,-207.889 L 8.43085,-207.993 L 8.40778,-208.103 L 8.39723,-208.215 L 8.42204,-208.357 L 8.478,-208.489
 L 8.56094,-208.606 L 8.66664,-208.705 L 8.7899,-208.782 L 8.9249,-208.832 L 9.06651,-208.851 L 9.20963,-208.839
 L 9.31583,-208.799 L 9.41536,-208.749 L 9.50731,-208.687 L 9.59076,-208.615 L 9.69215,-208.576 L 9.80392,-208.615
 L 9.83243,-208.639 L 9.90659,-208.704 L 9.9803,-208.769 L 10.0083,-208.794 L 10.0614,-208.899 L 10.0353,-209.005
 L 9.97481,-209.097 L 9.9259,-209.197 L 9.88878,-209.302 L 9.86359,-209.412 L 9.86972,-209.556 L 9.908,-209.694
 L 9.9749,-209.821 L 10.0667,-209.933 L 10.179,-210.025 L 10.3063,-210.092 L 10.4441,-210.13 L 10.5877,-210.136
 L 10.6981,-210.111 L 10.8034,-210.074 L 10.9026,-210.025 L 10.9947,-209.965 L 11.1004,-209.938 L 11.2061,-209.992
 L 11.2312,-210.02 L 11.2963,-210.093 L 11.3609,-210.168 L 11.3854,-210.196 L 11.4243,-210.308 L 11.3845,-210.409
 L 11.3125,-210.493 L 11.2511,-210.585 L 11.2006,-210.684 L 11.1612,-210.79 L 11.1485,-210.933 L 11.1685,-211.075
 L 11.2182,-211.21 L 11.2946,-211.333 L 11.3939,-211.439 L 11.5114,-211.522 L 11.643,-211.578 L 11.7845,-211.603
 L 11.8973,-211.592 L 12.0066,-211.569 L 12.1113,-211.534 L 12.2105,-211.486 L 12.3187,-211.473 L 12.4166,-211.54
 L 12.4378,-211.571 L 12.4927,-211.653 L 12.5471,-211.735 L 12.5677,-211.766 L 12.5916,-211.882 L 12.539,-211.977
 L 12.4567,-212.051 L 12.3839,-212.134 L 12.3207,-212.226 L 12.2678,-212.326 L 12.2366,-212.466 L 12.2379,-212.609
 L 12.2695,-212.75 L 12.3292,-212.882 L 12.4138,-212.999 L 12.5195,-213.097 L 12.6427,-213.17 L 12.7798,-213.213
 L 12.893,-213.217 L 13.0043,-213.208 L 13.1127,-213.187 L 13.2174,-213.152 L 13.3263,-213.154 L 13.4146,-213.233
 L 13.4316,-213.267 L 13.4754,-213.355 L 13.5186,-213.443 L 13.5349,-213.477 L 13.5435,-213.595 L 13.4789,-213.683
 L 13.3878,-213.745 L 13.3047,-213.817 L 13.2301,-213.9 L 13.1645,-213.993 L 13.1152,-214.128 L 13.0979,-214.27
 L 13.1109,-214.413 L 13.1528,-214.552 L 13.2214,-214.68 L 13.3134,-214.79 L 13.4261,-214.878 L 13.5564,-214.939
 L 13.6681,-214.958 L 13.7796,-214.964 L 13.8899,-214.957 L 13.9981,-214.936 L 14.1058,-214.952 L 14.1832,-215.042
 L 14.1956,-215.077 L 14.2275,-215.17 L 14.2588,-215.264 L 14.2705,-215.299 L 14.2637,-215.417 L 14.1882,-215.496
 L 14.0897,-215.545 L 13.9978,-215.607 L 13.9131,-215.679 L 13.836,-215.763 L 13.7695,-215.89 L 13.7337,-216.028
 L 13.728,-216.172 L 13.7514,-216.315 L 13.8027,-216.451 L 13.8795,-216.573 L 13.9797,-216.675 L 14.101,-216.752
 L 14.2093,-216.785 L 14.319,-216.806 L 14.4293,-216.813 L 14.5393,-216.807 L 14.644,-216.837 L 14.709,-216.936
 L 14.7167,-216.972 L 14.7362,-217.069 L 14.755,-217.165 L 14.762,-217.202 L 14.7398,-217.318 L 14.6547,-217.386
 L 14.5506,-217.423 L 14.4515,-217.472 L 14.358,-217.532 L 14.2707,-217.605 L 14.1882,-217.722 L 14.1346,-217.855
 L 14.1102,-217.997 L 14.1147,-218.142 L 14.1479,-218.283 L 14.2082,-218.414 L 14.2942,-218.528 L 14.4043,-218.62
 L 14.5074,-218.667 L 14.6135,-218.702 L 14.7219,-218.723 L 14.8318,-218.732 L 14.9316,-218.775 L 14.9831,-218.882
 L 14.9859,-218.919 L 14.9927,-219.017 L 14.9988,-219.115 L 15.0009,-219.153 L 14.9638,-219.265 L 14.8705,-219.322
 L 14.7626,-219.344 L 14.6579,-219.379 L 14.5572,-219.428 L 14.4612,-219.488 L 14.3641,-219.594 L 14.2937,-219.718
 L 14.2509,-219.856 L 14.2365,-220 L 14.2509,-220.144 L 14.2937,-220.282 L 14.3641,-220.406 L 14.4612,-220.512
 L 14.5572,-220.572 L 14.6579,-220.62 L 14.7626,-220.656 L 14.8705,-220.678 L 14.9638,-220.735 L 15.0009,-220.847
 L 14.9988,-220.885 L 14.9927,-220.983 L 14.9859,-221.081 L 14.9831,-221.118 L 14.9316,-221.225 L 14.8318,-221.268
 L 14.7219,-221.276 L 14.6135,-221.298 L 14.5074,-221.333 L 14.4043,-221.38 L 14.2942,-221.472 L 14.2082,-221.586
 L 14.1479,-221.717 L 14.1147,-221.858 L 14.1102,-222.003 L 14.1346,-222.145 L 14.1882,-222.278 L 14.2707,-222.395
 L 14.358,-222.467 L 14.4515,-222.528 L 14.5506,-222.577 L 14.6547,-222.614 L 14.7399,-222.681 L 14.762,-222.798
 L 14.755,-222.835 L 14.7362,-222.931 L 14.7167,-223.028 L 14.709,-223.064 L 14.644,-223.163 L 14.5393,-223.193
 L 14.4293,-223.187 L 14.3191,-223.194 L 14.2093,-223.215 L 14.101,-223.248 L 13.9797,-223.325 L 13.8795,-223.427
 L 13.8027,-223.549 L 13.7514,-223.685 L 13.728,-223.828 L 13.7337,-223.972 L 13.7695,-224.11 L 13.836,-224.237
 L 13.9131,-224.32 L 13.9979,-224.393 L 14.0898,-224.454 L 14.1882,-224.504 L 14.2637,-224.582 L 14.2705,-224.701
 L 14.2588,-224.736 L 14.2275,-224.83 L 14.1956,-224.923 L 14.1832,-224.958 L 14.1059,-225.048 L 13.9981,-225.064
 L 13.8899,-225.043 L 13.7796,-225.036 L 13.6682,-225.042 L 13.5564,-225.061 L 13.4261,-225.122 L 13.3134,-225.21
 L 13.2214,-225.32 L 13.1528,-225.448 L 13.1109,-225.587 L 13.0979,-225.73 L 13.1152,-225.872 L 13.1645,-226.007
 L 13.2301,-226.099 L 13.3047,-226.183 L 13.3878,-226.255 L 13.4789,-226.317 L 13.5436,-226.405 L 13.5349,-226.523
 L 13.5186,-226.557 L 13.4754,-226.645 L 13.4316,-226.733 L 13.4146,-226.767 L 13.3264,-226.846 L 13.2174,-226.848
 L 13.1128,-226.813 L 13.0044,-226.792 L 12.8931,-226.783 L 12.7798,-226.787 L 12.6427,-226.83 L 12.5195,-226.903
 L 12.4138,-227.001 L 12.3292,-227.118 L 12.2695,-227.25 L 12.2379,-227.391 L 12.2366,-227.534 L 12.2678,-227.674
 L 12.3208,-227.774 L 12.3839,-227.866 L 12.4567,-227.949 L 12.539,-228.023 L 12.5917,-228.118 L 12.5677,-228.234
 L 12.5471,-228.265 L 12.4927,-228.347 L 12.4378,-228.429 L 12.4166,-228.46 L 12.3188,-228.526 L 12.2105,-228.514
 L 12.1113,-228.466 L 12.0067,-228.431 L 11.8974,-228.408 L 11.7845,-228.397 L 11.643,-228.422 L 11.5114,-228.478
 L 11.3939,-228.561 L 11.2946,-228.667 L 11.2182,-228.79 L 11.1685,-228.925 L 11.1485,-229.067 L 11.1612,-229.21
 L 11.2007,-229.316 L 11.2512,-229.415 L 11.3126,-229.507 L 11.3845,-229.591 L 11.4243,-229.692 L 11.3854,-229.804
 L 11.3609,-229.832 L 11.2963,-229.907 L 11.2312,-229.98 L 11.2061,-230.008 L 11.1005,-230.061 L 10.9947,-230.035
 L 10.9026,-229.975 L 10.8035,-229.926 L 10.6982,-229.889 L 10.5877,-229.864 L 10.4441,-229.87 L 10.3063,-229.908
 L 10.179,-229.975 L 10.0667,-230.067 L 9.9749,-230.179 L 9.908,-230.306 L 9.86972,-230.444 L 9.86359,-230.588
 L 9.8889,-230.698 L 9.92603,-230.803 L 9.97484,-230.903 L 10.0353,-230.995 L 10.0615,-231.1 L 10.0083,-231.206
 L 9.9803,-231.231 L 9.90659,-231.296 L 9.83243,-231.361 L 9.80392,-231.385 L 9.69226,-231.424 L 9.59076,-231.385
 L 9.50735,-231.313 L 9.41548,-231.251 L 9.31596,-231.201 L 9.20963,-231.161 L 9.06651,-231.149 L 8.9249,-231.168
 L 8.7899,-231.218 L 8.66664,-231.295 L 8.56094,-231.394 L 8.478,-231.511 L 8.42204,-231.643 L 8.39723,-231.785
 L 8.40791,-231.897 L 8.43097,-232.007 L 8.46643,-232.111 L 8.51434,-232.21 L 8.52655,-232.319 L 8.46002,-232.417
 L 8.42896,-232.438 L 8.34737,-232.493 L 8.26543,-232.547 L 8.23395,-232.568 L 8.11818,-232.592 L 8.02272,-232.539
 L 7.94943,-232.457 L 7.86636,-232.384 L 7.77429,-232.321 L 7.67401,-232.268 L 7.53378,-232.237 L 7.39076,-232.238
 L 7.25043,-232.27 L 7.11826,-232.329 L 7.0005,-232.414 L 6.90292,-232.52 L 6.83028,-232.643 L 6.7872,-232.78
 L 6.78307,-232.893 L 6.79167,-233.004 L 6.81316,-233.113 L 6.84772,-233.217 L 6.84569,-233.326 L 6.76695,-233.415
 L 6.73338,-233.432 L 6.64532,-233.475 L 6.55699,-233.519 L 6.5231,-233.535 L 6.4052,-233.544 L 6.31743,-233.479
 L 6.25549,-233.388 L 6.18265,-233.305 L 6.09959,-233.23 L 6.0071,-233.164 L 5.87213,-233.115 L 5.73016,-233.098
 L 5.5869,-233.111 L 5.44807,-233.153 L 5.32028,-233.221 L 5.20975,-233.313 L 5.12163,-233.426 L 5.06104,-233.556
 L 5.04216,-233.668 L 5.03616,-233.78 L 5.04332,-233.89 L 5.06392,-233.998 L 5.0477,-234.106 L 4.95808,-234.183
 L 4.92259,-234.196 L 4.82957,-234.227 L 4.73636,-234.259 L 4.70062,-234.271 L 4.58261,-234.264 L 4.50403,-234.188
 L 4.45453,-234.09 L 4.39314,-233.998 L 4.32054,-233.913 L 4.2374,-233.836 L 4.11002,-233.769 L 3.97153,-233.734
 L 3.82779,-233.728 L 3.68468,-233.751 L 3.54903,-233.803 L 3.42743,-233.88 L 3.32536,-233.98 L 3.24828,-234.101
 L 3.21498,-234.209 L 3.19449,-234.319 L 3.18718,-234.429 L 3.19348,-234.539 L 3.16333,-234.644 L 3.06439,-234.709
 L 3.02759,-234.717 L 2.9312,-234.736 L 2.83469,-234.755 L 2.79773,-234.762 L 2.68161,-234.74 L 2.61356,-234.655
 L 2.57733,-234.551 L 2.52847,-234.452 L 2.46756,-234.358 L 2.39519,-234.271 L 2.27757,-234.188 L 2.14494,-234.135
 L 2.00317,-234.11 L 1.85823,-234.115 L 1.71706,-234.148 L 1.58646,-234.208 L 1.47218,-234.294 L 1.37994,-234.404
 L 1.33279,-234.507 L 1.29814,-234.613 L 1.2765,-234.722 L 1.26839,-234.832 L 1.22484,-234.932 L 1.11827,-234.983
 L 1.08076,-234.986 L 0.982666,-234.993 L 0.884521,-234.999 L 0.84697,-235.001 L 0.734741,-234.964 L 0.678375,-234.87
 L 0.656052,-234.763 L 0.620544,-234.658 L 0.572357,-234.557 L 0.511993,-234.461 L 0.406158,-234.364 L 0.281647,-234.294
 L 0.144287,-234.251 L 0,-234.237 L -0.144287,-234.251 L -0.281647,-234.294 L -0.406158,-234.364 L -0.511993,-234.461
 L -0.572189,-234.557 L -0.620392,-234.658 L -0.655991,-234.763 L -0.678375,-234.87 L -0.734589,-234.964 L -0.84697,-235.001
 L -0.884521,-234.999 L -0.982666,-234.993 L -1.08076,-234.986 L -1.11827,-234.983 L -1.2247,-234.932 L -1.26839,-234.832
 L -1.27646,-234.722 L -1.29799,-234.614 L -1.33263,-234.507 L -1.37994,-234.404 L -1.47218,-234.294 L -1.58646,-234.208
 L -1.71706,-234.148 L -1.85823,-234.115 L -2.00317,-234.11 L -2.14494,-234.135 L -2.27757,-234.188 L -2.39519,-234.271
 L -2.46739,-234.358 L -2.52832,-234.452 L -2.57729,-234.551 L -2.61356,-234.655 L -2.68147,-234.74 L -2.79773,-234.762
 L -2.83469,-234.755 L -2.9312,-234.736 L -3.02759,-234.717 L -3.06439,-234.709 L -3.16319,-234.644 L -3.19348,-234.539
 L -3.18712,-234.429 L -3.19434,-234.319 L -3.21481,-234.209 L -3.24828,-234.101 L -3.32536,-233.98 L -3.42743,-233.88
 L -3.54903,-233.803 L -3.68468,-233.751 L -3.82779,-233.728 L -3.97153,-233.734 L -4.11002,-233.769 L -4.2374,-233.836
 L -4.32037,-233.913 L -4.39299,-233.998 L -4.45447,-234.09 L -4.50403,-234.188 L -4.58247,-234.264 L -4.70062,-234.271
 L -4.73636,-234.259 L -4.82957,-234.227 L -4.92259,-234.196 L -4.95808,-234.183 L -5.04756,-234.106 L -5.06392,-233.998
 L -5.04326,-233.89 L -5.03603,-233.78 L -5.04201,-233.668 L -5.06104,-233.556 L -5.12163,-233.426 L -5.20975,-233.313
 L -5.32028,-233.221 L -5.44807,-233.153 L -5.5869,-233.111 L -5.73016,-233.098 L -5.87213,-233.115 L -6.0071,-233.164
 L -6.09944,-233.23 L -6.18251,-233.305 L -6.25545,-233.388 L -6.31743,-233.479 L -6.40506,-233.544 L -6.5231,-233.535
 L -6.55699,-233.519 L -6.64532,-233.475 L -6.73338,-233.432 L -6.76695,-233.415 L -6.84557,-233.326 L -6.84772,-233.217
 L -6.81311,-233.113 L -6.79153,-233.004 L -6.78291,-232.893 L -6.7872,-232.78 L -6.83028,-232.643 L -6.90292,-232.52
 L -7.0005,-232.414 L -7.11826,-232.329 L -7.25043,-232.27 L -7.39076,-232.238 L -7.53378,-232.237 L -7.67401,-232.268
 L -7.77414,-232.321 L -7.86623,-232.384 L -7.94939,-232.457 L -8.02272,-232.539 L -8.11806,-232.592 L -8.23395,-232.568
 L -8.26543,-232.547 L -8.34737,-232.493 L -8.42896,-232.438 L -8.46002,-232.417 L -8.52644,-232.319 L -8.51434,-232.21
 L -8.46638,-232.111 L -8.43085,-232.007 L -8.40778,-231.897 L -8.39723,-231.785 L -8.42204,-231.643 L -8.478,-231.511
 L -8.56094,-231.394 L -8.66664,-231.295 L -8.7899,-231.218 L -8.9249,-231.168 L -9.06651,-231.149 L -9.20963,-231.161
 L -9.31583,-231.201 L -9.41536,-231.251 L -9.50731,-231.313 L -9.59076,-231.385 L -9.69215,-231.424 L -9.80392,-231.385
 L -9.83243,-231.361 L -9.90659,-231.296 L -9.9803,-231.231 L -10.0083,-231.206 L -10.0614,-231.101 L -10.0353,-230.995
 L -9.97481,-230.903 L -9.9259,-230.803 L -9.88878,-230.698 L -9.86359,-230.588 L -9.86972,-230.444 L -9.908,-230.306
 L -9.9749,-230.179 L -10.0667,-230.067 L -10.179,-229.975 L -10.3063,-229.908 L -10.4441,-229.87 L -10.5877,-229.864
 L -10.6981,-229.889 L -10.8034,-229.926 L -10.9026,-229.975 L -10.9947,-230.035 L -11.1004,-230.062 L -11.2061,-230.008
 L -11.2312,-229.98 L -11.2963,-229.907 L -11.3609,-229.832 L -11.3854,-229.804 L -11.4243,-229.692 L -11.3845,-229.591
 L -11.3125,-229.507 L -11.2511,-229.415 L -11.2006,-229.316 L -11.1612,-229.21 L -11.1485,-229.067 L -11.1685,-228.925
 L -11.2182,-228.79 L -11.2946,-228.667 L -11.3939,-228.561 L -11.5114,-228.478 L -11.643,-228.422 L -11.7845,-228.397
 L -11.8973,-228.408 L -12.0066,-228.431 L -12.1113,-228.466 L -12.2105,-228.514 L -12.3187,-228.527 L -12.4166,-228.46
 L -12.4378,-228.429 L -12.4927,-228.347 L -12.5471,-228.265 L -12.5677,-228.234 L -12.5916,-228.118 L -12.539,-228.023
 L -12.4567,-227.949 L -12.3839,-227.866 L -12.3207,-227.774 L -12.2678,-227.674 L -12.2366,-227.534 L -12.2379,-227.391
 L -12.2695,-227.25 L -12.3292,-227.118 L -12.4138,-227.001 L -12.5195,-226.903 L -12.6427,-226.83 L -12.7798,-226.787
 L -12.893,-226.783 L -13.0043,-226.792 L -13.1127,-226.813 L -13.2174,-226.848 L -13.3263,-226.846 L -13.4146,-226.767
 L -13.4316,-226.733 L -13.4754,-226.645 L -13.5186,-226.557 L -13.5349,-226.523 L -13.5435,-226.405 L -13.4789,-226.317
 L -13.3878,-226.255 L -13.3047,-226.183 L -13.2301,-226.1 L -13.1645,-226.007 L -13.1152,-225.872 L -13.0979,-225.73
 L -13.1109,-225.587 L -13.1528,-225.448 L -13.2214,-225.32 L -13.3134,-225.21 L -13.4261,-225.122 L -13.5564,-225.061
 L -13.6681,-225.042 L -13.7796,-225.036 L -13.8899,-225.043 L -13.9981,-225.064 L -14.1058,-225.048 L -14.1832,-224.958
 L -14.1956,-224.923 L -14.2275,-224.83 L -14.2588,-224.736 L -14.2705,-224.701 L -14.2637,-224.583 L -14.1882,-224.504
 L -14.0897,-224.455 L -13.9978,-224.393 L -13.9131,-224.321 L -13.836,-224.237 L -13.7695,-224.11 L -13.7337,-223.972
 L -13.728,-223.828 L -13.7514,-223.685 L -13.8027,-223.549 L -13.8795,-223.427 L -13.9797,-223.325 L -14.101,-223.248
 L -14.2093,-223.215 L -14.319,-223.194 L -14.4293,-223.187 L -14.5393,-223.193 L -14.644,-223.163 L -14.709,-223.064
 L -14.7167,-223.028 L -14.7362,-222.931 L -14.755,-222.835 L -14.762,-222.798 L -14.7398,-222.682 L -14.6547,-222.614
 L -14.5506,-222.577 L -14.4515,-222.528 L -14.358,-222.468 L -14.2707,-222.395 L -14.1882,-222.278 L -14.1346,-222.145
 L -14.1102,-222.003 L -14.1147,-221.858 L -14.1479,-221.717 L -14.2082,-221.586 L -14.2942,-221.472 L -14.4043,-221.38
 L -14.5074,-221.333 L -14.6135,-221.298 L -14.7219,-221.277 L -14.8318,-221.268 L -14.9316,-221.225 L -14.9831,-221.118
 L -14.9859,-221.081 L -14.9927,-220.983 L -14.9988,-220.885 L -15.0009,-220.847 L -14.9638,-220.735 L -14.8705,-220.678
 L -14.7626,-220.656 L -14.6579,-220.621 L -14.5572,-220.572 L -14.4612,-220.512 L -14.3641,-220.406 L -14.2937,-220.282
 L -14.2509,-220.144 L -14.2365,-220 L -14.2509,-219.856 L -14.2937,-219.718 L -14.3641,-219.594 L -14.4612,-219.488
 L -14.5572,-219.428 L -14.6579,-219.38 L -14.7626,-219.344 L -14.8705,-219.322 L -14.9638,-219.265 L -15.0009,-219.153
 L -14.9988,-219.115 L -14.9927,-219.017 L -14.9859,-218.919 L -14.9831,-218.882 L -14.9316,-218.775 L -14.8318,-218.732
 L -14.7219,-218.724 L -14.6135,-218.702 L -14.5074,-218.667 L -14.4043,-218.62 L -14.2942,-218.528 L -14.2082,-218.414
 L -14.1479,-218.283 L -14.1147,-218.142 L -14.1102,-217.997 L -14.1346,-217.855 L -14.1882,-217.722 L -14.2707,-217.605
 L -14.358,-217.533 L -14.4515,-217.472 L -14.5506,-217.423 L -14.6547,-217.386 L -14.7399,-217.319 L -14.762,-217.202
 L -14.755,-217.165 L -14.7362,-217.069 L -14.7167,-216.972 L -14.709,-216.936 L -14.644,-216.837 L -14.5393,-216.807
 L -14.4293,-216.813 L -14.3191,-216.806 L -14.2093,-216.785 L -14.101,-216.752 L -13.9797,-216.675 L -13.8795,-216.573
 L -13.8027,-216.451 L -13.7514,-216.315 L -13.728,-216.172 L -13.7337,-216.028 L -13.7695,-215.89 L -13.836,-215.763
 L -13.9131,-215.68 L -13.9979,-215.607 L -14.0898,-215.546 L -14.1882,-215.496 L -14.2637,-215.418 L -14.2705,-215.299
 L -14.2588,-215.264 L -14.2275,-215.17 L -14.1956,-215.077 L -14.1832,-215.042 L -14.1059,-214.952 L -13.9981,-214.936
 L -13.8899,-214.957 L -13.7796,-214.964 L -13.6682,-214.958 L -13.5564,-214.939 L -13.4261,-214.878 L -13.3134,-214.79
 L -13.2214,-214.68 L -13.1528,-214.552 L -13.1109,-214.413 L -13.0979,-214.27 L -13.1152,-214.128 L -13.1645,-213.993
 L -13.2301,-213.901 L -13.3047,-213.817 L -13.3878,-213.745 L -13.4789,-213.683 L -13.5436,-213.595 L -13.5349,-213.477
 L -13.5186,-213.443 L -13.4754,-213.355 L -13.4316,-213.267 L -13.4146,-213.233 L -13.3264,-213.154 L -13.2174,-213.152
 L -13.1128,-213.187 L -13.0044,-213.208 L -12.8931,-213.217 L -12.7798,-213.213 L -12.6427,-213.17 L -12.5195,-213.097
 L -12.4138,-212.999 L -12.3292,-212.882 L -12.2695,-212.75 L -12.2379,-212.609 L -12.2366,-212.466 L -12.2678,-212.326
 L -12.3208,-212.226 L -12.3839,-212.134 L -12.4567,-212.051 L -12.539,-211.977 L -12.5917,-211.882 L -12.5677,-211.766
 L -12.5471,-211.735 L -12.4927,-211.653 L -12.4378,-211.571 L -12.4166,-211.54 L -12.3188,-211.474 L -12.2105,-211.486
 L -12.1113,-211.534 L -12.0067,-211.569 L -11.8974,-211.592 L -11.7845,-211.603 L -11.643,-211.578 L -11.5114,-211.522
 L -11.3939,-211.439 L -11.2946,-211.333 L -11.2182,-211.21 L -11.1685,-211.075 L -11.1485,-210.933 L -11.1612,-210.79
 L -11.2007,-210.684 L -11.2512,-210.585 L -11.3126,-210.493 L -11.3845,-210.409 L -11.4243,-210.308 L -11.3854,-210.196
 L -11.3609,-210.168 L -11.2963,-210.093 L -11.2312,-210.02 L -11.2061,-209.992 L -11.1005,-209.939 L -10.9947,-209.965
 L -10.9026,-210.025 L -10.8035,-210.074 L -10.6982,-210.111 L -10.5877,-210.136 L -10.4441,-210.13 L -10.3063,-210.092
 L -10.179,-210.025 L -10.0667,-209.933 L -9.9749,-209.821 L -9.908,-209.694 L -9.86972,-209.556 L -9.86359,-209.412
 L -9.8889,-209.302 L -9.92603,-209.197 L -9.97484,-209.097 L -10.0353,-209.005 L -10.0615,-208.9 L -10.0083,-208.794
 L -9.9803,-208.769 L -9.90659,-208.704 L -9.83243,-208.639 L -9.80392,-208.615 L -9.69226,-208.576 L -9.59076,-208.615
 L -9.50735,-208.687 L -9.41548,-208.749 L -9.31596,-208.799 L -9.20963,-208.839 L -9.06651,-208.851 L -8.9249,-208.832
 L -8.7899,-208.782 L -8.66664,-208.705 L -8.56094,-208.606 L -8.478,-208.489 L -8.42204,-208.357 L -8.39723,-208.215
 L -8.40791,-208.103 L -8.43097,-207.993 L -8.46643,-207.889 L -8.51434,-207.79 L -8.52655,-207.681 L -8.46002,-207.583
 L -8.42896,-207.562 L -8.34737,-207.507 L -8.26543,-207.453 L -8.23395,-207.432 L -8.11818,-207.408 L -8.02272,-207.461
 L -7.94943,-207.543 L -7.86636,-207.616 L -7.77429,-207.679 L -7.67401,-207.732 L -7.53378,-207.763 L -7.39076,-207.762
 L -7.25043,-207.73 L -7.11826,-207.671 L -7.0005,-207.586 L -6.90292,-207.48 L -6.83028,-207.357 L -6.7872,-207.22
 L -6.78307,-207.107 L -6.79167,-206.996 L -6.81316,-206.887 L -6.84772,-206.783 L -6.84569,-206.674 L -6.76695,-206.585
 L -6.73338,-206.568 L -6.64532,-206.525 L -6.55699,-206.481 L -6.5231,-206.465 L -6.4052,-206.456 L -6.31743,-206.521
 L -6.25549,-206.612 L -6.18265,-206.695 L -6.09959,-206.77 L -6.0071,-206.836 L -5.87213,-206.885 L -5.73016,-206.902
 L -5.5869,-206.889 L -5.44807,-206.847 L -5.32028,-206.779 L -5.20975,-206.687 L -5.12163,-206.574 L -5.06104,-206.444
 L -5.04216,-206.332 L -5.03616,-206.22 L -5.04332,-206.11 L -5.06392,-206.002 L -5.0477,-205.894 L -4.95808,-205.817
 L -4.92259,-205.804 L -4.82957,-205.773 L -4.73636,-205.741 L -4.70062,-205.729 L -4.58261,-205.736 L -4.50403,-205.812
 L -4.45453,-205.91 L -4.39314,-206.002 L -4.32054,-206.087 L -4.2374,-206.164 L -4.11002,-206.231 L -3.97153,-206.266
 L -3.82779,-206.272 L -3.68468,-206.249 L -3.54903,-206.197 L -3.42743,-206.12 L -3.32536,-206.02 L -3.24828,-205.899
 L -3.21498,-205.791 L -3.19449,-205.681 L -3.18718,-205.571 L -3.19348,-205.461 L -3.16333,-205.356 L -3.06439,-205.291
 L -3.02759,-205.283 L -2.9312,-205.264 L -2.83469,-205.245 L -2.79773,-205.238 L -2.68161,-205.26 L -2.61356,-205.345
 L -2.57733,-205.449 L -2.52847,-205.548 L -2.46756,-205.642 L -2.39519,-205.729 L -2.27757,-205.812 L -2.14494,-205.865
 L -2.00317,-205.89 L -1.85823,-205.885 L -1.71706,-205.852 L -1.58646,-205.792 L -1.47218,-205.706 L -1.37994,-205.596
 L -1.33279,-205.493 L -1.29814,-205.387 L -1.2765,-205.278 L -1.26839,-205.168 L -1.22484,-205.068 L -1.11827,-205.017
 L -1.08076,-205.014 L -0.982666,-205.007 L -0.884521,-205.001 L -0.84697,-204.999 L -0.734741,-205.036 L -0.678375,-205.13
 L -0.656052,-205.237 L -0.620544,-205.342 L -0.572357,-205.443 L -0.511993,-205.539 L -0.406158,-205.636 L -0.281647,-205.706
 L -0.144287,-205.749 L 0,-205.763 L 0.144287,-205.749 L 0.281647,-205.706 L 0.406158,-205.636 L 0.511993,-205.539
 L 0.572189,-205.443 L 0.620392,-205.342 L 0.655991,-205.237 L 0.678375,-205.13 L 0.734589,-205.036 L 0.84697,-204.999
 z
M -0.0941772,-226.003 L -0.281067,-226.027 L -0.463516,-226.073 L -0.638657,-226.143 L -0.803726,-226.234 L -0.956131,-226.344
 L -1.09344,-226.473 L -1.21352,-226.618 L -1.31445,-226.777 L -1.39465,-226.948 L -1.45287,-227.127 L -1.48816,-227.312
 L -1.5,-227.5 L -1.48816,-227.688 L -1.45287,-227.873 L -1.39465,-228.052 L -1.31445,-228.223 L -1.21352,-228.382
 L -1.09344,-228.527 L -0.956131,-228.656 L -0.803726,-228.766 L -0.638657,-228.857 L -0.463516,-228.927 L -0.281067,-228.973
 L -0.0941772,-228.997 L 0.0941772,-228.997 L 0.281067,-228.973 L 0.463516,-228.927 L 0.638657,-228.857 L 0.803726,-228.766
 L 0.956131,-228.656 L 1.09344,-228.527 L 1.21352,-228.382 L 1.31445,-228.223 L 1.39465,-228.052 L 1.45287,-227.873
 L 1.48816,-227.688 L 1.5,-227.5 L 1.48816,-227.312 L 1.45287,-227.127 L 1.39465,-226.948 L 1.31445,-226.777
 L 1.21352,-226.618 L 1.09344,-226.473 L 0.956131,-226.344 L 0.803726,-226.234 L 0.638657,-226.143 L 0.463516,-226.073
 L 0.281067,-226.027 L 0.0941772,-226.003 z
M -0.185226,-217.056 L -0.552765,-217.102 L -0.911591,-217.194 L -1.25604,-217.331 L -1.58069,-217.509 L -1.88039,-217.727
 L -2.15045,-217.981 L -2.3866,-218.266 L -2.5851,-218.579 L -2.74283,-218.914 L -2.85732,-219.266 L -2.92673,-219.63
 L -2.95,-220 L -2.92673,-220.37 L -2.85732,-220.734 L -2.74283,-221.086 L -2.5851,-221.421 L -2.3866,-221.734
 L -2.15045,-222.019 L -1.88039,-222.273 L -1.58069,-222.491 L -1.25604,-222.669 L -0.911591,-222.806 L -0.552765,-222.898
 L -0.185226,-222.944 L 0.185226,-222.944 L 0.552765,-222.898 L 0.911591,-222.806 L 1.25604,-222.669 L 1.58069,-222.491
 L 1.88039,-222.273 L 2.15045,-222.019 L 2.3866,-221.734 L 2.5851,-221.421 L 2.74283,-221.086 L 2.85732,-220.734
 L 2.92673,-220.37 L 2.95,-220 L 2.92673,-219.63 L 2.85732,-219.266 L 2.74283,-218.914 L 2.5851,-218.579
 L 2.3866,-218.266 L 2.15045,-217.981 L 1.88039,-217.727 L 1.58069,-217.509 L 1.25604,-217.331 L 0.911591,-217.194
 L 0.552765,-217.102 L 0.185226,-217.056 z
M -7.59418,-218.503 L -7.78107,-218.527 L -7.96352,-218.573 L -8.13866,-218.643 L -8.30373,-218.734 L -8.45613,-218.844
 L -8.59344,-218.973 L -8.71352,-219.118 L -8.81445,-219.277 L -8.89465,-219.448 L -8.95287,-219.627 L -8.98816,-219.812
 L -9,-220 L -8.98816,-220.188 L -8.95287,-220.373 L -8.89465,-220.552 L -8.81445,-220.723 L -8.71352,-220.882
 L -8.59344,-221.027 L -8.45613,-221.156 L -8.30373,-221.266 L -8.13866,-221.357 L -7.96352,-221.427 L -7.78107,-221.473
 L -7.59418,-221.497 L -7.40581,-221.497 L -7.21892,-221.473 L -7.03647,-221.427 L -6.86133,-221.357 L -6.69626,-221.266
 L -6.54385,-221.156 L -6.40654,-221.027 L -6.28647,-220.882 L -6.18553,-220.723 L -6.10533,-220.552 L -6.04712,-220.373
 L -6.01183,-220.188 L -6,-220 L -6.01183,-219.812 L -6.04712,-219.627 L -6.10533,-219.448 L -6.18553,-219.277
 L -6.28647,-219.118 L -6.40654,-218.973 L -6.54385,-218.844 L -6.69626,-218.734 L -6.86133,-218.643 L -7.03647,-218.573
 L -7.21892,-218.527 L -7.40581,-218.503 z
M 7.40581,-218.503 L 7.21892,-218.527 L 7.03647,-218.573 L 6.86133,-218.643 L 6.69626,-218.734 L 6.54385,-218.844
 L 6.40654,-218.973 L 6.28647,-219.118 L 6.18553,-219.277 L 6.10533,-219.448 L 6.04712,-219.627 L 6.01183,-219.812
 L 6,-220 L 6.01183,-220.188 L 6.04712,-220.373 L 6.10533,-220.552 L 6.18553,-220.723 L 6.28647,-220.882
 L 6.40654,-221.027 L 6.54385,-221.156 L 6.69626,-221.266 L 6.86133,-221.357 L 7.03647,-221.427 L 7.21892,-221.473
 L 7.40581,-221.497 L 7.59418,-221.497 L 7.78107,-221.473 L 7.96352,-221.427 L 8.13866,-221.357 L 8.30373,-221.266
 L 8.45613,-221.156 L 8.59344,-221.027 L 8.71352,-220.882 L 8.81445,-220.723 L 8.89465,-220.552 L 8.95287,-220.373
 L 8.98816,-220.188 L 9,-220 L 8.98816,-219.812 L 8.95287,-219.627 L 8.89465,-219.448 L 8.81445,-219.277
 L 8.71352,-219.118 L 8.59344,-218.973 L 8.45613,-218.844 L 8.30373,-218.734 L 8.13866,-218.643 L 7.96352,-218.573
 L 7.78107,-218.527 L 7.59418,-218.503 z
M -0.0941772,-211.003 L -0.281067,-211.027 L -0.463516,-211.073 L -0.638657,-211.143 L -0.803726,-211.234 L -0.956131,-211.344
 L -1.09344,-211.473 L -1.21352,-211.618 L -1.31445,-211.777 L -1.39465,-211.948 L -1.45287,-212.127 L -1.48816,-212.312
 L -1.5,-212.5 L -1.48816,-212.688 L -1.45287,-212.873 L -1.39465,-213.052 L -1.31445,-213.223 L -1.21352,-213.382
 L -1.09344,-213.527 L -0.956131,-213.656 L -0.803726,-213.766 L -0.638657,-213.857 L -0.463516,-213.927 L -0.281067,-213.973
 L -0.0941772,-213.997 L 0.0941772,-213.997 L 0.281067,-213.973 L 0.463516,-213.927 L 0.638657,-213.857 L 0.803726,-213.766
 L 0.956131,-213.656 L 1.09344,-213.527 L 1.21352,-213.382 L 1.31445,-213.223 L 1.39465,-213.052 L 1.45287,-212.873
 L 1.48816,-212.688 L 1.5,-212.5 L 1.48816,-212.312 L 1.45287,-212.127 L 1.39465,-211.948 L 1.31445,-211.777
 L 1.21352,-211.618 L 1.09344,-211.473 L 0.956131,-211.344 L 0.803726,-211.234 L 0.638657,-211.143 L 0.463516,-211.073
 L 0.281067,-211.027 L 0.0941772,-211.003 z
M 0.884521,-95.0012 L 0.982666,-95.0073 L 1.08076,-95.0141 L 1.11827,-95.0169 L 1.2247,-95.0684 L 1.26839,-95.1682
 L 1.27646,-95.2781 L 1.29799,-95.3865 L 1.33263,-95.4926 L 1.37994,-95.5957 L 1.47218,-95.7058 L 1.58646,-95.7918
 L 1.71706,-95.8521 L 1.85823,-95.8853 L 2.00317,-95.8898 L 2.14494,-95.8654 L 2.27757,-95.8118 L 2.39519,-95.7293
 L 2.46739,-95.642 L 2.52832,-95.5485 L 2.57729,-95.4494 L 2.61356,-95.3453 L 2.68147,-95.2601 L 2.79773,-95.238
 L 2.83469,-95.245 L 2.9312,-95.2638 L 3.02759,-95.2833 L 3.06439,-95.291 L 3.16319,-95.356 L 3.19348,-95.4607
 L 3.18712,-95.5707 L 3.19434,-95.6809 L 3.21481,-95.7907 L 3.24828,-95.899 L 3.32536,-96.0203 L 3.42743,-96.1205
 L 3.54903,-96.1973 L 3.68468,-96.2486 L 3.82779,-96.272 L 3.97153,-96.2663 L 4.11002,-96.2305 L 4.2374,-96.164
 L 4.32037,-96.0869 L 4.39299,-96.0021 L 4.45447,-95.9102 L 4.50403,-95.8118 L 4.58247,-95.7363 L 4.70062,-95.7295
 L 4.73636,-95.7412 L 4.82957,-95.7725 L 4.92259,-95.8044 L 4.95808,-95.8168 L 5.04756,-95.8941 L 5.06392,-96.0019
 L 5.04326,-96.1101 L 5.03603,-96.2204 L 5.04201,-96.3318 L 5.06104,-96.4436 L 5.12163,-96.5739 L 5.20975,-96.6866
 L 5.32028,-96.7786 L 5.44807,-96.8472 L 5.5869,-96.8891 L 5.73016,-96.9021 L 5.87213,-96.8848 L 6.0071,-96.8355
 L 6.09944,-96.7699 L 6.18251,-96.6953 L 6.25545,-96.6122 L 6.31743,-96.5211 L 6.40506,-96.4564 L 6.5231,-96.4651
 L 6.55699,-96.4814 L 6.64532,-96.5246 L 6.73338,-96.5684 L 6.76695,-96.5854 L 6.84557,-96.6736 L 6.84772,-96.7826
 L 6.81311,-96.8872 L 6.79153,-96.9956 L 6.78291,-97.1069 L 6.7872,-97.2202 L 6.83028,-97.3573 L 6.90292,-97.4805
 L 7.0005,-97.5862 L 7.11826,-97.6708 L 7.25043,-97.7305 L 7.39076,-97.7621 L 7.53378,-97.7634 L 7.67401,-97.7322
 L 7.77414,-97.6792 L 7.86623,-97.6161 L 7.94939,-97.5433 L 8.02272,-97.461 L 8.11806,-97.4083 L 8.23395,-97.4323
 L 8.26543,-97.4529 L 8.34737,-97.5073 L 8.42896,-97.5622 L 8.46002,-97.5834 L 8.52644,-97.6812 L 8.51434,-97.7895
 L 8.46638,-97.8887 L 8.43085,-97.9933 L 8.40778,-98.1026 L 8.39723,-98.2155 L 8.42204,-98.357 L 8.478,-98.4886
 L 8.56094,-98.6061 L 8.66664,-98.7054 L 8.7899,-98.7818 L 8.9249,-98.8315 L 9.06651,-98.8515 L 9.20963,-98.8388
 L 9.31583,-98.7993 L 9.41536,-98.7488 L 9.50731,-98.6874 L 9.59076,-98.6155 L 9.69215,-98.5757 L 9.80392,-98.6146
 L 9.83243,-98.6391 L 9.90659,-98.7037 L 9.9803,-98.7688 L 10.0083,-98.7939 L 10.0614,-98.8995 L 10.0353,-99.0053
 L 9.97481,-99.0974 L 9.9259,-99.1965 L 9.88878,-99.3018 L 9.86359,-99.4123 L 9.86972,-99.5559 L 9.908,-99.6937
 L 9.9749,-99.821 L 10.0667,-99.9333 L 10.179,-100.025 L 10.3063,-100.092 L 10.4441,-100.13 L 10.5877,-100.136
 L 10.6981,-100.111 L 10.8034,-100.074 L 10.9026,-100.025 L 10.9947,-99.9647 L 11.1004,-99.9385 L 11.2061,-99.9917
 L 11.2312,-100.02 L 11.2963,-100.093 L 11.3609,-100.168 L 11.3854,-100.196 L 11.4243,-100.308 L 11.3845,-100.409
 L 11.3125,-100.493 L 11.2511,-100.585 L 11.2006,-100.684 L 11.1612,-100.79 L 11.1485,-100.933 L 11.1685,-101.075
 L 11.2182,-101.21 L 11.2946,-101.333 L 11.3939,-101.439 L 11.5114,-101.522 L 11.643,-101.578 L 11.7845,-101.603
 L 11.8973,-101.592 L 12.0066,-101.569 L 12.1113,-101.534 L 12.2105,-101.486 L 12.3187,-101.473 L 12.4166,-101.54
 L 12.4378,-101.571 L 12.4927,-101.653 L 12.5471,-101.735 L 12.5677,-101.766 L 12.5916,-101.882 L 12.539,-101.977
 L 12.4567,-102.051 L 12.3839,-102.134 L 12.3207,-102.226 L 12.2678,-102.326 L 12.2366,-102.466 L 12.2379,-102.609
 L 12.2695,-102.75 L 12.3292,-102.882 L 12.4138,-102.999 L 12.5195,-103.097 L 12.6427,-103.17 L 12.7798,-103.213
 L 12.893,-103.217 L 13.0043,-103.208 L 13.1127,-103.187 L 13.2174,-103.152 L 13.3263,-103.154 L 13.4146,-103.233
 L 13.4316,-103.267 L 13.4754,-103.355 L 13.5186,-103.443 L 13.5349,-103.477 L 13.5435,-103.595 L 13.4789,-103.683
 L 13.3878,-103.745 L 13.3047,-103.817 L 13.2301,-103.9 L 13.1645,-103.993 L 13.1152,-104.128 L 13.0979,-104.27
 L 13.1109,-104.413 L 13.1528,-104.552 L 13.2214,-104.68 L 13.3134,-104.79 L 13.4261,-104.878 L 13.5564,-104.939
 L 13.6681,-104.958 L 13.7796,-104.964 L 13.8899,-104.957 L 13.9981,-104.936 L 14.1058,-104.952 L 14.1832,-105.042
 L 14.1956,-105.077 L 14.2275,-105.17 L 14.2588,-105.264 L 14.2705,-105.299 L 14.2637,-105.417 L 14.1882,-105.496
 L 14.0897,-105.545 L 13.9978,-105.607 L 13.9131,-105.679 L 13.836,-105.763 L 13.7695,-105.89 L 13.7337,-106.028
 L 13.728,-106.172 L 13.7514,-106.315 L 13.8027,-106.451 L 13.8795,-106.573 L 13.9797,-106.675 L 14.101,-106.752
 L 14.2093,-106.785 L 14.319,-106.806 L 14.4293,-106.813 L 14.5393,-106.807 L 14.644,-106.837 L 14.709,-106.936
 L 14.7167,-106.972 L 14.7362,-107.069 L 14.755,-107.165 L 14.762,-107.202 L 14.7398,-107.318 L 14.6547,-107.386
 L 14.5506,-107.423 L 14.4515,-107.472 L 14.358,-107.532 L 14.2707,-107.605 L 14.1882,-107.722 L 14.1346,-107.855
 L 14.1102,-107.997 L 14.1147,-108.142 L 14.1479,-108.283 L 14.2082,-108.414 L 14.2942,-108.528 L 14.4043,-108.62
 L 14.5074,-108.667 L 14.6135,-108.702 L 14.7219,-108.723 L 14.8318,-108.732 L 14.9316,-108.775 L 14.9831,-108.882
 L 14.9859,-108.919 L 14.9927,-109.017 L 14.9988,-109.115 L 15.0009,-109.153 L 14.9638,-109.265 L 14.8705,-109.322
 L 14.7626,-109.344 L 14.6579,-109.379 L 14.5572,-109.428 L 14.4612,-109.488 L 14.3641,-109.594 L 14.2937,-109.718
 L 14.2509,-109.856 L 14.2365,-110 L 14.2509,-110.144 L 14.2937,-110.282 L 14.3641,-110.406 L 14.4612,-110.512
 L 14.5572,-110.572 L 14.6579,-110.62 L 14.7626,-110.656 L 14.8705,-110.678 L 14.9638,-110.735 L 15.0009,-110.847
 L 14.9988,-110.885 L 14.9927,-110.983 L 14.9859,-111.081 L 14.9831,-111.118 L 14.9316,-111.225 L 14.8318,-111.268
 L 14.7219,-111.276 L 14.6135,-111.298 L 14.5074,-111.333 L 14.4043,-111.38 L 14.2942,-111.472 L 14.2082,-111.586
 L 14.1479,-111.717 L 14.1147,-111.858 L 14.1102,-112.003 L 14.1346,-112.145 L 14.1882,-112.278 L 14.2707,-112.395
 L 14.358,-112.467 L 14.4515,-112.528 L 14.5506,-112.577 L 14.6547,-112.614 L 14.7399,-112.681 L 14.762,-112.798
 L 14.755,-112.835 L 14.7362,-112.931 L 14.7167,-113.028 L 14.709,-113.064 L 14.644,-113.163 L 14.5393,-113.193
 L 14.4293,-113.187 L 14.3191,-113.194 L 14.2093,-113.215 L 14.101,-113.248 L 13.9797,-113.325 L 13.8795,-113.427
 L 13.8027,-113.549 L 13.7514,-113.685 L 13.728,-113.828 L 13.7337,-113.972 L 13.7695,-114.11 L 13.836,-114.237
 L 13.9131,-114.32 L 13.9979,-114.393 L 14.0898,-114.454 L 14.1882,-114.504 L 14.2637,-114.582 L 14.2705,-114.701
 L 14.2588,-114.736 L 14.2275,-114.83 L 14.1956,-114.923 L 14.1832,-114.958 L 14.1059,-115.048 L 13.9981,-115.064
 L 13.8899,-115.043 L 13.7796,-115.036 L 13.6682,-115.042 L 13.5564,-115.061 L 13.4261,-115.122 L 13.3134,-115.21
 L 13.2214,-115.32 L 13.1528,-115.448 L 13.1109,-115.587 L 13.0979,-115.73 L 13.1152,-115.872 L 13.1645,-116.007
 L 13.2301,-116.099 L 13.3047,-116.183 L 13.3878,-116.255 L 13.4789,-116.317 L 13.5436,-116.405 L 13.5349,-116.523
 L 13.5186,-116.557 L 13.4754,-116.645 L 13.4316,-116.733 L 13.4146,-116.767 L 13.3264,-116.846 L 13.2174,-116.848
 L 13.1128,-116.813 L 13.0044,-116.792 L 12.8931,-116.783 L 12.7798,-116.787 L 12.6427,-116.83 L 12.5195,-116.903
 L 12.4138,-117.001 L 12.3292,-117.118 L 12.2695,-117.25 L 12.2379,-117.391 L 12.2366,-117.534 L 12.2678,-117.674
 L 12.3208,-117.774 L 12.3839,-117.866 L 12.4567,-117.949 L 12.539,-118.023 L 12.5917,-118.118 L 12.5677,-118.234
 L 12.5471,-118.265 L 12.4927,-118.347 L 12.4378,-118.429 L 12.4166,-118.46 L 12.3188,-118.526 L 12.2105,-118.514
 L 12.1113,-118.466 L 12.0067,-118.431 L 11.8974,-118.408 L 11.7845,-118.397 L 11.643,-118.422 L 11.5114,-118.478
 L 11.3939,-118.561 L 11.2946,-118.667 L 11.2182,-118.79 L 11.1685,-118.925 L 11.1485,-119.067 L 11.1612,-119.21
 L 11.2007,-119.316 L 11.2512,-119.415 L 11.3126,-119.507 L 11.3845,-119.591 L 11.4243,-119.692 L 11.3854,-119.804
 L 11.3609,-119.832 L 11.2963,-119.907 L 11.2312,-119.98 L 11.2061,-120.008 L 11.1005,-120.061 L 10.9947,-120.035
 L 10.9026,-119.975 L 10.8035,-119.926 L 10.6982,-119.889 L 10.5877,-119.864 L 10.4441,-119.87 L 10.3063,-119.908
 L 10.179,-119.975 L 10.0667,-120.067 L 9.9749,-120.179 L 9.908,-120.306 L 9.86972,-120.444 L 9.86359,-120.588
 L 9.8889,-120.698 L 9.92603,-120.803 L 9.97484,-120.903 L 10.0353,-120.995 L 10.0615,-121.1 L 10.0083,-121.206
 L 9.9803,-121.231 L 9.90659,-121.296 L 9.83243,-121.361 L 9.80392,-121.385 L 9.69226,-121.424 L 9.59076,-121.385
 L 9.50735,-121.313 L 9.41548,-121.251 L 9.31596,-121.201 L 9.20963,-121.161 L 9.06651,-121.149 L 8.9249,-121.168
 L 8.7899,-121.218 L 8.66664,-121.295 L 8.56094,-121.394 L 8.478,-121.511 L 8.42204,-121.643 L 8.39723,-121.785
 L 8.40791,-121.897 L 8.43097,-122.007 L 8.46643,-122.111 L 8.51434,-122.21 L 8.52655,-122.319 L 8.46002,-122.417
 L 8.42896,-122.438 L 8.34737,-122.493 L 8.26543,-122.547 L 8.23395,-122.568 L 8.11818,-122.592 L 8.02272,-122.539
 L 7.94943,-122.457 L 7.86636,-122.384 L 7.77429,-122.321 L 7.67401,-122.268 L 7.53378,-122.237 L 7.39076,-122.238
 L 7.25043,-122.27 L 7.11826,-122.329 L 7.0005,-122.414 L 6.90292,-122.52 L 6.83028,-122.643 L 6.7872,-122.78
 L 6.78307,-122.893 L 6.79167,-123.004 L 6.81316,-123.113 L 6.84772,-123.217 L 6.84569,-123.326 L 6.76695,-123.415
 L 6.73338,-123.432 L 6.64532,-123.475 L 6.55699,-123.519 L 6.5231,-123.535 L 6.4052,-123.544 L 6.31743,-123.479
 L 6.25549,-123.388 L 6.18265,-123.305 L 6.09959,-123.23 L 6.0071,-123.164 L 5.87213,-123.115 L 5.73016,-123.098
 L 5.5869,-123.111 L 5.44807,-123.153 L 5.32028,-123.221 L 5.20975,-123.313 L 5.12163,-123.426 L 5.06104,-123.556
 L 5.04216,-123.668 L 5.03616,-123.78 L 5.04332,-123.89 L 5.06392,-123.998 L 5.0477,-124.106 L 4.95808,-124.183
 L 4.92259,-124.196 L 4.82957,-124.227 L 4.73636,-124.259 L 4.70062,-124.271 L 4.58261,-124.264 L 4.50403,-124.188
 L 4.45453,-124.09 L 4.39314,-123.998 L 4.32054,-123.913 L 4.2374,-123.836 L 4.11002,-123.769 L 3.97153,-123.734
 L 3.82779,-123.728 L 3.68468,-123.751 L 3.54903,-123.803 L 3.42743,-123.88 L 3.32536,-123.98 L 3.24828,-124.101
 L 3.21498,-124.209 L 3.19449,-124.319 L 3.18718,-124.429 L 3.19348,-124.539 L 3.16333,-124.644 L 3.06439,-124.709
 L 3.02759,-124.717 L 2.9312,-124.736 L 2.83469,-124.755 L 2.79773,-124.762 L 2.68161,-124.74 L 2.61356,-124.655
 L 2.57733,-124.551 L 2.52847,-124.452 L 2.46756,-124.358 L 2.39519,-124.271 L 2.27757,-124.188 L 2.14494,-124.135
 L 2.00317,-124.11 L 1.85823,-124.115 L 1.71706,-124.148 L 1.58646,-124.208 L 1.47218,-124.294 L 1.37994,-124.404
 L 1.33279,-124.507 L 1.29814,-124.613 L 1.2765,-124.722 L 1.26839,-124.832 L 1.22484,-124.932 L 1.11827,-124.983
 L 1.08076,-124.986 L 0.982666,-124.993 L 0.884521,-124.999 L 0.84697,-125.001 L 0.734741,-124.964 L 0.678375,-124.87
 L 0.656052,-124.763 L 0.620544,-124.658 L 0.572357,-124.557 L 0.511993,-124.461 L 0.406158,-124.364 L 0.281647,-124.294
 L 0.144287,-124.251 L 0,-124.237 L -0.144287,-124.251 L -0.281647,-124.294 L -0.406158,-124.364 L -0.511993,-124.461
 L -0.572189,-124.557 L -0.620392,-124.658 L -0.655991,-124.763 L -0.678375,-124.87 L -0.734589,-124.964 L -0.84697,-125.001
 L -0.884521,-124.999 L -0.982666,-124.993 L -1.08076,-124.986 L -1.11827,-124.983 L -1.2247,-124.932 L -1.26839,-124.832
 L -1.27646,-124.722 L -1.29799,-124.614 L -1.33263,-124.507 L -1.37994,-124.404 L -1.47218,-124.294 L -1.58646,-124.208
 L -1.71706,-124.148 L -1.85823,-124.115 L -2.00317,-124.11 L -2.14494,-124.135 L -2.27757,-124.188 L -2.39519,-124.271
 L -2.46739,-124.358 L -2.52832,-124.452 L -2.57729,-124.551 L -2.61356,-124.655 L -2.68147,-124.74 L -2.79773,-124.762
 L -2.83469,-124.755 L -2.9312,-124.736 L -3.02759,-124.717 L -3.06439,-124.709 L -3.16319,-124.644 L -3.19348,-124.539
 L -3.18712,-124.429 L -3.19434,-124.319 L -3.21481,-124.209 L -3.24828,-124.101 L -3.32536,-123.98 L -3.42743,-123.88
 L -3.54903,-123.803 L -3.68468,-123.751 L -3.82779,-123.728 L -3.97153,-123.734 L -4.11002,-123.769 L -4.2374,-123.836
 L -4.32037,-123.913 L -4.39299,-123.998 L -4.45447,-124.09 L -4.50403,-124.188 L -4.58247,-124.264 L -4.70062,-124.271
 L -4.73636,-124.259 L -4.82957,-124.227 L -4.92259,-124.196 L -4.95808,-124.183 L -5.04756,-124.106 L -5.06392,-123.998
 L -5.04326,-123.89 L -5.03603,-123.78 L -5.04201,-123.668 L -5.06104,-123.556 L -5.12163,-123.426 L -5.20975,-123.313
 L -5.32028,-123.221 L -5.44807,-123.153 L -5.5869,-123.111 L -5.73016,-123.098 L -5.87213,-123.115 L -6.0071,-123.164
 L -6.09944,-123.23 L -6.18251,-123.305 L -6.25545,-123.388 L -6.31743,-123.479 L -6.40506,-123.544 L -6.5231,-123.535
 L -6.55699,-123.519 L -6.64532,-123.475 L -6.73338,-123.432 L -6.76695,-123.415 L -6.84557,-123.326 L -6.84772,-123.217
 L -6.81311,-123.113 L -6.79153,-123.004 L -6.78291,-122.893 L -6.7872,-122.78 L -6.83028,-122.643 L -6.90292,-122.52
 L -7.0005,-122.414 L -7.11826,-122.329 L -7.25043,-122.27 L -7.39076,-122.238 L -7.53378,-122.237 L -7.67401,-122.268
 L -7.77414,-122.321 L -7.86623,-122.384 L -7.94939,-122.457 L -8.02272,-122.539 L -8.11806,-122.592 L -8.23395,-122.568
 L -8.26543,-122.547 L -8.34737,-122.493 L -8.42896,-122.438 L -8.46002,-122.417 L -8.52644,-122.319 L -8.51434,-122.21
 L -8.46638,-122.111 L -8.43085,-122.007 L -8.40778,-121.897 L -8.39723,-121.785 L -8.42204,-121.643 L -8.478,-121.511
 L -8.56094,-121.394 L -8.66664,-121.295 L -8.7899,-121.218 L -8.9249,-121.168 L -9.06651,-121.149 L -9.20963,-121.161
 L -9.31583,-121.201 L -9.41536,-121.251 L -9.50731,-121.313 L -9.59076,-121.385 L -9.69215,-121.424 L -9.80392,-121.385
 L -9.83243,-121.361 L -9.90659,-121.296 L -9.9803,-121.231 L -10.0083,-121.206 L -10.0614,-121.101 L -10.0353,-120.995
 L -9.97481,-120.903 L -9.9259,-120.803 L -9.88878,-120.698 L -9.86359,-120.588 L -9.86972,-120.444 L -9.908,-120.306
 L -9.9749,-120.179 L -10.0667,-120.067 L -10.179,-119.975 L -10.3063,-119.908 L -10.4441,-119.87 L -10.5877,-119.864
 L -10.6981,-119.889 L -10.8034,-119.926 L -10.9026,-119.975 L -10.9947,-120.035 L -11.1004,-120.062 L -11.2061,-120.008
 L -11.2312,-119.98 L -11.2963,-119.907 L -11.3609,-119.832 L -11.3854,-119.804 L -11.4243,-119.692 L -11.3845,-119.591
 L -11.3125,-119.507 L -11.2511,-119.415 L -11.2006,-119.316 L -11.1612,-119.21 L -11.1485,-119.067 L -11.1685,-118.925
 L -11.2182,-118.79 L -11.2946,-118.667 L -11.3939,-118.561 L -11.5114,-118.478 L -11.643,-118.422 L -11.7845,-118.397
 L -11.8973,-118.408 L -12.0066,-118.431 L -12.1113,-118.466 L -12.2105,-118.514 L -12.3187,-118.527 L -12.4166,-118.46
 L -12.4378,-118.429 L -12.4927,-118.347 L -12.5471,-118.265 L -12.5677,-118.234 L -12.5916,-118.118 L -12.539,-118.023
 L -12.4567,-117.949 L -12.3839,-117.866 L -12.3207,-117.774 L -12.2678,-117.674 L -12.2366,-117.534 L -12.2379,-117.391
 L -12.2695,-117.25 L -12.3292,-117.118 L -12.4138,-117.001 L -12.5195,-116.903 L -12.6427,-116.83 L -12.7798,-116.787
 L -12.893,-116.783 L -13.0043,-116.792 L -13.1127,-116.813 L -13.2174,-116.848 L -13.3263,-116.846 L -13.4146,-116.767
 L -13.4316,-116.733 L -13.4754,-116.645 L -13.5186,-116.557 L -13.5349,-116.523 L -13.5435,-116.405 L -13.4789,-116.317
 L -13.3878,-116.255 L -13.3047,-116.183 L -13.2301,-116.1 L -13.1645,-116.007 L -13.1152,-115.872 L -13.0979,-115.73
 L -13.1109,-115.587 L -13.1528,-115.448 L -13.2214,-115.32 L -13.3134,-115.21 L -13.4261,-115.122 L -13.5564,-115.061
 L -13.6681,-115.042 L -13.7796,-115.036 L -13.8899,-115.043 L -13.9981,-115.064 L -14.1058,-115.048 L -14.1832,-114.958
 L -14.1956,-114.923 L -14.2275,-114.83 L -14.2588,-114.736 L -14.2705,-114.701 L -14.2637,-114.583 L -14.1882,-114.504
 L -14.0897,-114.455 L -13.9978,-114.393 L -13.9131,-114.321 L -13.836,-114.237 L -13.7695,-114.11 L -13.7337,-113.972
 L -13.728,-113.828 L -13.7514,-113.685 L -13.8027,-113.549 L -13.8795,-113.427 L -13.9797,-113.325 L -14.101,-113.248
 L -14.2093,-113.215 L -14.319,-113.194 L -14.4293,-113.187 L -14.5393,-113.193 L -14.644,-113.163 L -14.709,-113.064
 L -14.7167,-113.028 L -14.7362,-112.931 L -14.755,-112.835 L -14.762,-112.798 L -14.7398,-112.682 L -14.6547,-112.614
 L -14.5506,-112.577 L -14.4515,-112.528 L -14.358,-112.468 L -14.2707,-112.395 L -14.1882,-112.278 L -14.1346,-112.145
 L -14.1102,-112.003 L -14.1147,-111.858 L -14.1479,-111.717 L -14.2082,-111.586 L -14.2942,-111.472 L -14.4043,-111.38
 L -14.5074,-111.333 L -14.6135,-111.298 L -14.7219,-111.277 L -14.8318,-111.268 L -14.9316,-111.225 L -14.9831,-111.118
 L -14.9859,-111.081 L -14.9927,-110.983 L -14.9988,-110.885 L -15.0009,-110.847 L -14.9638,-110.735 L -14.8705,-110.678
 L -14.7626,-110.656 L -14.6579,-110.621 L -14.5572,-110.572 L -14.4612,-110.512 L -14.3641,-110.406 L -14.2937,-110.282
 L -14.2509,-110.144 L -14.2365,-110 L -14.2509,-109.856 L -14.2937,-109.718 L -14.3641,-109.594 L -14.4612,-109.488
 L -14.5572,-109.428 L -14.6579,-109.38 L -14.7626,-109.344 L -14.8705,-109.322 L -14.9638,-109.265 L -15.0009,-109.153
 L -14.9988,-109.115 L -14.9927,-109.017 L -14.9859,-108.919 L -14.9831,-108.882 L -14.9316,-108.775 L -14.8318,-108.732
 L -14.7219,-108.724 L -14.6135,-108.702 L -14.5074,-108.667 L -14.4043,-108.62 L -14.2942,-108.528 L -14.2082,-108.414
 L -14.1479,-108.283 L -14.1147,-108.142 L -14.1102,-107.997 L -14.1346,-107.855 L -14.1882,-107.722 L -14.2707,-107.605
 L -14.358,-107.533 L -14.4515,-107.472 L -14.5506,-107.423 L -14.6547,-107.386 L -14.7399,-107.319 L -14.762,-107.202
 L -14.755,-107.165 L -14.7362,-107.069 L -14.7167,-106.972 L -14.709,-106.936 L -14.644,-106.837 L -14.5393,-106.807
 L -14.4293,-106.813 L -14.3191,-106.806 L -14.2093,-106.785 L -14.101,-106.752 L -13.9797,-106.675 L -13.8795,-106.573
 L -13.8027,-106.451 L -13.7514,-106.315 L -13.728,-106.172 L -13.7337,-106.028 L -13.7695,-105.89 L -13.836,-105.763
 L -13.9131,-105.68 L -13.9979,-105.607 L -14.0898,-105.546 L -14.1882,-105.496 L -14.2637,-105.418 L -14.2705,-105.299
 L -14.2588,-105.264 L -14.2275,-105.17 L -14.1956,-105.077 L -14.1832,-105.042 L -14.1059,-104.952 L -13.9981,-104.936
 L -13.8899,-104.957 L -13.7796,-104.964 L -13.6682,-104.958 L -13.5564,-104.939 L -13.4261,-104.878 L -13.3134,-104.79
 L -13.2214,-104.68 L -13.1528,-104.552 L -13.1109,-104.413 L -13.0979,-104.27 L -13.1152,-104.128 L -13.1645,-103.993
 L -13.2301,-103.901 L -13.3047,-103.817 L -13.3878,-103.745 L -13.4789,-103.683 L -13.5436,-103.595 L -13.5349,-103.477
 L -13.5186,-103.443 L -13.4754,-103.355 L -13.4316,-103.267 L -13.4146,-103.233 L -13.3264,-103.154 L -13.2174,-103.152
 L -13.1128,-103.187 L -13.0044,-103.208 L -12.8931,-103.217 L -12.7798,-103.213 L -12.6427,-103.17 L -12.5195,-103.097
 L -12.4138,-102.999 L -12.3292,-102.882 L -12.2695,-102.75 L -12.2379,-102.609 L -12.2366,-102.466 L -12.2678,-102.326
 L -12.3208,-102.226 L -12.3839,-102.134 L -12.4567,-102.051 L -12.539,-101.977 L -12.5917,-101.882 L -12.5677,-101.766
 L -12.5471,-101.735 L -12.4927,-101.653 L -12.4378,-101.571 L -12.4166,-101.54 L -12.3188,-101.474 L -12.2105,-101.486
 L -12.1113,-101.534 L -12.0067,-101.569 L -11.8974,-101.592 L -11.7845,-101.603 L -11.643,-101.578 L -11.5114,-101.522
 L -11.3939,-101.439 L -11.2946,-101.333 L -11.2182,-101.21 L -11.1685,-101.075 L -11.1485,-100.933 L -11.1612,-100.79
 L -11.2007,-100.684 L -11.2512,-100.585 L -11.3126,-100.493 L -11.3845,-100.409 L -11.4243,-100.308 L -11.3854,-100.196
 L -11.3609,-100.168 L -11.2963,-100.093 L -11.2312,-100.02 L -11.2061,-99.9917 L -11.1005,-99.9386 L -10.9947,-99.9647
 L -10.9026,-100.025 L -10.8035,-100.074 L -10.6982,-100.111 L -10.5877,-100.136 L -10.4441,-100.13 L -10.3063,-100.092
 L -10.179,-100.025 L -10.0667,-99.9333 L -9.9749,-99.821 L -9.908,-99.6937 L -9.86972,-99.5559 L -9.86359,-99.4123
 L -9.8889,-99.3019 L -9.92603,-99.1966 L -9.97484,-99.0974 L -10.0353,-99.0053 L -10.0615,-98.8996 L -10.0083,-98.7939
 L -9.9803,-98.7688 L -9.90659,-98.7037 L -9.83243,-98.6391 L -9.80392,-98.6146 L -9.69226,-98.5757 L -9.59076,-98.6155
 L -9.50735,-98.6875 L -9.41548,-98.7489 L -9.31596,-98.7994 L -9.20963,-98.8388 L -9.06651,-98.8515 L -8.9249,-98.8315
 L -8.7899,-98.7818 L -8.66664,-98.7054 L -8.56094,-98.6061 L -8.478,-98.4886 L -8.42204,-98.357 L -8.39723,-98.2155
 L -8.40791,-98.1027 L -8.43097,-97.9934 L -8.46643,-97.8887 L -8.51434,-97.7895 L -8.52655,-97.6813 L -8.46002,-97.5834
 L -8.42896,-97.5622 L -8.34737,-97.5073 L -8.26543,-97.4529 L -8.23395,-97.4323 L -8.11818,-97.4084 L -8.02272,-97.461
 L -7.94943,-97.5433 L -7.86636,-97.6161 L -7.77429,-97.6793 L -7.67401,-97.7322 L -7.53378,-97.7634 L -7.39076,-97.7621
 L -7.25043,-97.7305 L -7.11826,-97.6708 L -7.0005,-97.5862 L -6.90292,-97.4805 L -6.83028,-97.3573 L -6.7872,-97.2202
 L -6.78307,-97.107 L -6.79167,-96.9957 L -6.81316,-96.8873 L -6.84772,-96.7826 L -6.84569,-96.6737 L -6.76695,-96.5854
 L -6.73338,-96.5684 L -6.64532,-96.5246 L -6.55699,-96.4814 L -6.5231,-96.4651 L -6.4052,-96.4565 L -6.31743,-96.5211
 L -6.25549,-96.6122 L -6.18265,-96.6953 L -6.09959,-96.7699 L -6.0071,-96.8355 L -5.87213,-96.8848 L -5.73016,-96.9021
 L -5.5869,-96.8891 L -5.44807,-96.8472 L -5.32028,-96.7786 L -5.20975,-96.6866 L -5.12163,-96.5739 L -5.06104,-96.4436
 L -5.04216,-96.3319 L -5.03616,-96.2204 L -5.04332,-96.1101 L -5.06392,-96.0019 L -5.0477,-95.8942 L -4.95808,-95.8168
 L -4.92259,-95.8044 L -4.82957,-95.7725 L -4.73636,-95.7412 L -4.70062,-95.7295 L -4.58261,-95.7363 L -4.50403,-95.8118
 L -4.45453,-95.9103 L -4.39314,-96.0022 L -4.32054,-96.0869 L -4.2374,-96.164 L -4.11002,-96.2305 L -3.97153,-96.2663
 L -3.82779,-96.272 L -3.68468,-96.2486 L -3.54903,-96.1973 L -3.42743,-96.1205 L -3.32536,-96.0203 L -3.24828,-95.899
 L -3.21498,-95.7907 L -3.19449,-95.681 L -3.18718,-95.5707 L -3.19348,-95.4607 L -3.16333,-95.356 L -3.06439,-95.291
 L -3.02759,-95.2833 L -2.9312,-95.2638 L -2.83469,-95.245 L -2.79773,-95.238 L -2.68161,-95.2602 L -2.61356,-95.3453
 L -2.57733,-95.4494 L -2.52847,-95.5485 L -2.46756,-95.642 L -2.39519,-95.7293 L -2.27757,-95.8118 L -2.14494,-95.8654
 L -2.00317,-95.8898 L -1.85823,-95.8853 L -1.71706,-95.8521 L -1.58646,-95.7918 L -1.47218,-95.7058 L -1.37994,-95.5957
 L -1.33279,-95.4926 L -1.29814,-95.3865 L -1.2765,-95.2781 L -1.26839,-95.1682 L -1.22484,-95.0684 L -1.11827,-95.0169
 L -1.08076,-95.0141 L -0.982666,-95.0073 L -0.884521,-95.0012 L -0.84697,-94.9991 L -0.734741,-95.0362 L -0.678375,-95.1295
 L -0.656052,-95.2374 L -0.620544,-95.3421 L -0.572357,-95.4428 L -0.511993,-95.5388 L -0.406158,-95.6359 L -0.281647,-95.7063
 L -0.144287,-95.7491 L 0,-95.7635 L 0.144287,-95.7491 L 0.281647,-95.7063 L 0.406158,-95.6359 L 0.511993,-95.5388
 L 0.572189,-95.4428 L 0.620392,-95.3421 L 0.655991,-95.2374 L 0.678375,-95.1295 L 0.734589,-95.0362 L 0.84697,-94.9991
 z
M -0.0941772,-116.003 L -0.281067,-116.027 L -0.463516,-116.073 L -0.638657,-116.143 L -0.803726,-116.234 L -0.956131,-116.344
 L -1.09344,-116.473 L -1.21352,-116.618 L -1.31445,-116.777 L -1.39465,-116.948 L -1.45287,-117.127 L -1.48816,-117.312
 L -1.5,-117.5 L -1.48816,-117.688 L -1.45287,-117.873 L -1.39465,-118.052 L -1.31445,-118.223 L -1.21352,-118.382
 L -1.09344,-118.527 L -0.956131,-118.656 L -0.803726,-118.766 L -0.638657,-118.857 L -0.463516,-118.927 L -0.281067,-118.973
 L -0.0941772,-118.997 L 0.0941772,-118.997 L 0.281067,-118.973 L 0.463516,-118.927 L 0.638657,-118.857 L 0.803726,-118.766
 L 0.956131,-118.656 L 1.09344,-118.527 L 1.21352,-118.382 L 1.31445,-118.223 L 1.39465,-118.052 L 1.45287,-117.873
 L 1.48816,-117.688 L 1.5,-117.5 L 1.48816,-117.312 L 1.45287,-117.127 L 1.39465,-116.948 L 1.31445,-116.777
 L 1.21352,-116.618 L 1.09344,-116.473 L 0.956131,-116.344 L 0.803726,-116.234 L 0.638657,-116.143 L 0.463516,-116.073
 L 0.281067,-116.027 L 0.0941772,-116.003 z
M -0.185226,-107.056 L -0.552765,-107.102 L -0.911591,-107.194 L -1.25604,-107.331 L -1.58069,-107.509 L -1.88039,-107.727
 L -2.15045,-107.981 L -2.3866,-108.266 L -2.5851,-108.579 L -2.74283,-108.914 L -2.85732,-109.266 L -2.92673,-109.63
 L -2.95,-110 L -2.92673,-110.37 L -2.85732,-110.734 L -2.74283,-111.086 L -2.5851,-111.421 L -2.3866,-111.734
 L -2.15045,-112.019 L -1.88039,-112.273 L -1.58069,-112.491 L -1.25604,-112.669 L -0.911591,-112.806 L -0.552765,-112.898
 L -0.185226,-112.944 L 0.185226,-112.944 L 0.552765,-112.898 L 0.911591,-112.806 L 1.25604,-112.669 L 1.58069,-112.491
 L 1.88039,-112.273 L 2.15045,-112.019 L 2.3866,-111.734 L 2.5851,-111.421 L 2.74283,-111.086 L 2.85732,-110.734
 L 2.92673,-110.37 L 2.95,-110 L 2.92673,-109.63 L 2.85732,-109.266 L 2.74283,-108.914 L 2.5851,-108.579
 L 2.3866,-108.266 L 2.15045,-107.981 L 1.88039,-107.727 L 1.58069,-107.509 L 1.25604,-107.331 L 0.911591,-107.194
 L 0.552765,-107.102 L 0.185226,-107.056 z
M -7.59418,-108.503 L -7.78107,-108.527 L -7.96352,-108.573 L -8.13866,-108.643 L -8.30373,-108.734 L -8.45613,-108.844
 L -8.59344,-108.973 L -8.71352,-109.118 L -8.81445,-109.277 L -8.89465,-109.448 L -8.95287,-109.627 L -8.98816,-109.812
 L -9,-110 L -8.98816,-110.188 L -8.95287,-110.373 L -8.89465,-110.552 L -8.81445,-110.723 L -8.71352,-110.882
 L -8.59344,-111.027 L -8.45613,-111.156 L -8.30373,-111.266 L -8.13866,-111.357 L -7.96352,-111.427 L -7.78107,-111.473
 L -7.59418,-111.497 L -7.40581,-111.497 L -7.21892,-111.473 L -7.03647,-111.427 L -6.86133,-111.357 L -6.69626,-111.266
 L -6.54385,-111.156 L -6.40654,-111.027 L -6.28647,-110.882 L -6.18553,-110.723 L -6.10533,-110.552 L -6.04712,-110.373
 L -6.01183,-110.188 L -6,-110 L -6.01183,-109.812 L -6.04712,-109.627 L -6.10533,-109.448 L -6.18553,-109.277
 L -6.28647,-109.118 L -6.40654,-108.973 L -6.54385,-108.844 L -6.69626,-108.734 L -6.86133,-108.643 L -7.03647,-108.573
 L -7.21892,-108.527 L -7.40581,-108.503 z
M 7.40581,-108.503 L 7.21892,-108.527 L 7.03647,-108.573 L 6.86133,-108.643 L 6.69626,-108.734 L 6.54385,-108.844
 L 6.40654,-108.973 L 6.28647,-109.118 L 6.18553,-109.277 L 6.10533,-109.448 L 6.04712,-109.627 L 6.01183,-109.812
 L 6,-110 L 6.01183,-110.188 L 6.04712,-110.373 L 6.10533,-110.552 L 6.18553,-110.723 L 6.28647,-110.882
 L 6.40654,-111.027 L 6.54385,-111.156 L 6.69626,-111.266 L 6.86133,-111.357 L 7.03647,-111.427 L 7.21892,-111.473
 L 7.40581,-111.497 L 7.59418,-111.497 L 7.78107,-111.473 L 7.96352,-111.427 L 8.13866,-111.357 L 8.30373,-111.266
 L 8.45613,-111.156 L 8.59344,-111.027 L 8.71352,-110.882 L 8.81445,-110.723 L 8.89465,-110.552 L 8.95287,-110.373
 L 8.98816,-110.188 L 9,-110 L 8.98816,-109.812 L 8.95287,-109.627 L 8.89465,-109.448 L 8.81445,-109.277
 L 8.71352,-109.118 L 8.59344,-108.973 L 8.45613,-108.844 L 8.30373,-108.734 L 8.13866,-108.643 L 7.96352,-108.573
 L 7.78107,-108.527 L 7.59418,-108.503 z
M -0.0941772,-101.003 L -0.281067,-101.027 L -0.463516,-101.073 L -0.638657,-101.143 L -0.803726,-101.234 L -0.956131,-101.344
 L -1.09344,-101.473 L -1.21352,-101.618 L -1.31445,-101.777 L -1.39465,-101.948 L -1.45287,-102.127 L -1.48816,-102.312
 L -1.5,-102.5 L -1.48816,-102.688 L -1.45287,-102.873 L -1.39465,-103.052 L -1.31445,-103.223 L -1.21352,-103.382
 L -1.09344,-103.527 L -0.956131,-103.656 L -0.803726,-103.766 L -0.638657,-103.857 L -0.463516,-103.927 L -0.281067,-103.973
 L -0.0941772,-103.997 L 0.0941772,-103.997 L 0.281067,-103.973 L 0.463516,-103.927 L 0.638657,-103.857 L 0.803726,-103.766
 L 0.956131,-103.656 L 1.09344,-103.527 L 1.21352,-103.382 L 1.31445,-103.223 L 1.39465,-103.052 L 1.45287,-102.873
 L 1.48816,-102.688 L 1.5,-102.5 L 1.48816,-102.312 L 1.45287,-102.127 L 1.39465,-101.948 L 1.31445,-101.777
 L 1.21352,-101.618 L 1.09344,-101.473 L 0.956131,-101.344 L 0.803726,-101.234 L 0.638657,-101.143 L 0.463516,-101.073
 L 0.281067,-101.027 L 0.0941772,-101.003 z
" stroke="black" fill="lightgray" stroke-width="0.5"/>
</svg>
