<?xml version="1.0" standalone="no"?>
<!DOCTYPE svg PUBLIC "-//W3C//DTD SVG 1.1//EN" "http://www.w3.org/Graphics/SVG/1.1/DTD/svg11.dtd">
<svg width="256mm" height="328mm" viewBox="-128 -542 256 328" xmlns="http://www.w3.org/2000/svg" version="1.1">
<title>OpenSCAD Model</title>
<path d="
M 123.437,-466.589 L 124.045,-466.745 L 124.629,-466.976 L 125.179,-467.278 L 125.687,-467.647 L 126.145,-468.077
 L 126.545,-468.561 L 126.882,-469.091 L 127.149,-469.659 L 127.343,-470.257 L 127.461,-470.873 L 127.5,-471.5
 L 127.5,-536.5 L 127.461,-537.127 L 127.343,-537.743 L 127.149,-538.341 L 126.882,-538.909 L 126.545,-539.439
 L 126.145,-539.923 L 125.687,-540.353 L 125.179,-540.722 L 124.629,-541.024 L 124.045,-541.255 L 123.437,-541.411
 L 122.814,-541.49 L -122.814,-541.49 L -123.437,-541.411 L -124.045,-541.255 L -124.629,-541.024 L -125.179,-540.722
 L -125.687,-540.353 L -126.145,-539.923 L -126.545,-539.439 L -126.882,-538.909 L -127.149,-538.341 L -127.343,-537.743
 L -127.461,-537.127 L -127.5,-536.5 L -127.5,-471.5 L -127.461,-470.873 L -127.343,-470.257 L -127.149,-469.659
 L -126.882,-469.091 L -126.545,-468.561 L -126.145,-468.077 L -125.687,-467.647 L -125.179,-467.278 L -124.629,-466.976
 L -124.045,-466.745 L -123.437,-466.589 L -122.814,-466.51 L 122.814,-466.51 z
M -122.548,-467.009 L -123.14,-467.084 L -123.718,-467.232 L -124.272,-467.452 L -124.795,-467.739 L -125.278,-468.09
 L -125.713,-468.498 L -126.093,-468.958 L -126.412,-469.462 L -126.666,-470.001 L -126.851,-470.569 L -126.963,-471.155
 L -127,-471.75 L -127,-536.25 L -126.963,-536.845 L -126.851,-537.431 L -126.666,-537.999 L -126.412,-538.538
 L -126.093,-539.042 L -125.713,-539.502 L -125.278,-539.91 L -124.795,-540.261 L -124.272,-540.548 L -123.718,-540.768
 L -123.14,-540.916 L -122.548,-540.991 L 122.548,-540.991 L 123.14,-540.916 L 123.718,-540.768 L 124.272,-540.548
 L 124.795,-540.261 L 125.278,-539.91 L 125.713,-539.502 L 126.093,-539.042 L 126.412,-538.538 L 126.666,-537.999
 L 126.851,-537.431 L 126.963,-536.845 L 127,-536.25 L 127,-471.75 L 126.963,-471.155 L 126.851,-470.569
 L 126.666,-470.001 L 126.412,-469.462 L 126.093,-468.958 L 125.713,-468.498 L 125.278,-468.09 L 124.795,-467.739
 L 124.272,-467.452 L 123.718,-467.232 L 123.14,-467.084 L 122.548,-467.009 z
M 123.437,-382.589 L 124.045,-382.745 L 124.629,-382.976 L 125.179,-383.278 L 125.687,-383.647 L 126.145,-384.077
 L 126.545,-384.561 L 126.882,-385.091 L 127.149,-385.659 L 127.343,-386.257 L 127.461,-386.873 L 127.5,-387.5
 L 127.5,-452.5 L 127.461,-453.127 L 127.343,-453.743 L 127.149,-454.341 L 126.882,-454.909 L 126.545,-455.439
 L 126.145,-455.923 L 125.687,-456.353 L 125.179,-456.722 L 124.629,-457.024 L 124.045,-457.255 L 123.437,-457.411
 L 122.814,-457.49 L -122.814,-457.49 L -123.437,-457.411 L -124.045,-457.255 L -124.629,-457.024 L -125.179,-456.722
 L -125.687,-456.353 L -126.145,-455.923 L -126.545,-455.439 L -126.882,-454.909 L -127.149,-454.341 L -127.343,-453.743
 L -127.461,-453.127 L -127.5,-452.5 L -127.5,-387.5 L -127.461,-386.873 L -127.343,-386.257 L -127.149,-385.659
 L -126.882,-385.091 L -126.545,-384.561 L -126.145,-384.077 L -125.687,-383.647 L -125.179,-383.278 L -124.629,-382.976
 L -124.045,-382.745 L -123.437,-382.589 L -122.814,-382.51 L 122.814,-382.51 z
M -122.548,-383.009 L -123.14,-383.084 L -123.718,-383.232 L -124.272,-383.452 L -124.795,-383.739 L -125.278,-384.09
 L -125.713,-384.498 L -126.093,-384.958 L -126.412,-385.462 L -126.666,-386.001 L -126.851,-386.569 L -126.963,-387.155
 L -127,-387.75 L -127,-452.25 L -126.963,-452.845 L -126.851,-453.431 L -126.666,-453.999 L -126.412,-454.538
 L -126.093,-455.042 L -125.713,-455.502 L -125.278,-455.91 L -124.795,-456.261 L -124.272,-456.548 L -123.718,-456.768
 L -123.14,-456.916 L -122.548,-456.991 L 122.548,-456.991 L 123.14,-456.916 L 123.718,-456.768 L 124.272,-456.548
 L 124.795,-456.261 L 125.278,-455.91 L 125.713,-455.502 L 126.093,-455.042 L 126.412,-454.538 L 126.666,-453.999
 L 126.851,-453.431 L 126.963,-452.845 L 127,-452.25 L 127,-387.75 L 126.963,-387.155 L 126.851,-386.569
 L 126.666,-386.001 L 126.412,-385.462 L 126.093,-384.958 L 125.713,-384.498 L 125.278,-384.09 L 124.795,-383.739
 L 124.272,-383.452 L 123.718,-383.232 L 123.14,-383.084 L 122.548,-383.009 z
M 123.437,-298.589 L 124.045,-298.745 L 124.629,-298.976 L 125.179,-299.278 L 125.687,-299.647 L 126.145,-300.077
 L 126.545,-300.561 L 126.882,-301.091 L 127.149,-301.659 L 127.343,-302.257 L 127.461,-302.873 L 127.5,-303.5
 L 127.5,-368.5 L 127.461,-369.127 L 127.343,-369.743 L 127.149,-370.341 L 126.882,-370.909 L 126.545,-371.439
 L 126.145,-371.923 L 125.687,-372.353 L 125.179,-372.722 L 124.629,-373.024 L 124.045,-373.255 L 123.437,-373.411
 L 122.814,-373.49 L -122.814,-373.49 L -123.437,-373.411 L -124.045,-373.255 L -124.629,-373.024 L -125.179,-372.722
 L -125.687,-372.353 L -126.145,-371.923 L -126.545,-371.439 L -126.882,-370.909 L -127.149,-370.341 L -127.343,-369.743
 L -127.461,-369.127 L -127.5,-368.5 L -127.5,-303.5 L -127.461,-302.873 L -127.343,-302.257 L -127.149,-301.659
 L -126.882,-301.091 L -126.545,-300.561 L -126.145,-300.077 L -125.687,-299.647 L -125.179,-299.278 L -124.629,-298.976
 L -124.045,-298.745 L -123.437,-298.589 L -122.814,-298.51 L 122.814,-298.51 z
M -122.493,-299.888 L -122.975,-299.949 L -123.446,-300.07 L -123.898,-300.249 L -124.323,-300.483 L -124.716,-300.769
 L -125.071,-301.101 L -125.38,-301.476 L -125.641,-301.886 L -125.848,-302.326 L -125.998,-302.788 L -126.089,-303.265
 L -126.119,-303.75 L -126.119,-368.25 L -126.089,-368.735 L -125.998,-369.212 L -125.848,-369.674 L -125.641,-370.114
 L -125.38,-370.524 L -125.071,-370.899 L -124.716,-371.231 L -124.323,-371.517 L -123.898,-371.751 L -123.446,-371.93
 L -122.975,-372.051 L -122.493,-372.112 L 122.493,-372.112 L 122.975,-372.051 L 123.446,-371.93 L 123.898,-371.751
 L 124.323,-371.517 L 124.716,-371.231 L 125.071,-370.899 L 125.38,-370.524 L 125.641,-370.114 L 125.848,-369.674
 L 125.998,-369.212 L 126.089,-368.735 L 126.119,-368.25 L 126.119,-303.75 L 126.089,-303.265 L 125.998,-302.788
 L 125.848,-302.326 L 125.641,-301.886 L 125.38,-301.476 L 125.071,-301.101 L 124.716,-300.769 L 124.323,-300.483
 L 123.898,-300.249 L 123.446,-300.07 L 122.975,-299.949 L 122.493,-299.888 z
M 123.437,-214.589 L 124.045,-214.745 L 124.629,-214.976 L 125.179,-215.278 L 125.687,-215.647 L 126.145,-216.077
 L 126.545,-216.561 L 126.882,-217.091 L 127.149,-217.659 L 127.343,-218.257 L 127.461,-218.873 L 127.5,-219.5
 L 127.5,-284.5 L 127.461,-285.127 L 127.343,-285.743 L 127.149,-286.341 L 126.882,-286.909 L 126.545,-287.439
 L 126.145,-287.923 L 125.687,-288.353 L 125.179,-288.722 L 124.629,-289.024 L 124.045,-289.255 L 123.437,-289.411
 L 122.814,-289.49 L -122.814,-289.49 L -123.437,-289.411 L -124.045,-289.255 L -124.629,-289.024 L -125.179,-288.722
 L -125.687,-288.353 L -126.145,-287.923 L -126.545,-287.439 L -126.882,-286.909 L -127.149,-286.341 L -127.343,-285.743
 L -127.461,-285.127 L -127.5,-284.5 L -127.5,-219.5 L -127.461,-218.873 L -127.343,-218.257 L -127.149,-217.659
 L -126.882,-217.091 L -126.545,-216.561 L -126.145,-216.077 L -125.687,-215.647 L -125.179,-215.278 L -124.629,-214.976
 L -124.045,-214.745 L -123.437,-214.589 L -122.814,-214.51 L 122.814,-214.51 z
M -120.113,-280.204 L -120.337,-280.232 L -120.556,-280.288 L -120.766,-280.371 L -120.964,-280.48 L -121.147,-280.613
 L -121.312,-280.768 L -121.456,-280.942 L -121.577,-281.133 L -121.674,-281.337 L -121.743,-281.552 L -121.786,-281.774
 L -121.8,-282 L -121.786,-282.226 L -121.743,-282.448 L -121.674,-282.663 L -121.577,-282.867 L -121.456,-283.058
 L -121.312,-283.232 L -121.147,-283.387 L -120.964,-283.52 L -120.766,-283.629 L -120.556,-283.712 L -120.337,-283.768
 L -120.113,-283.796 L -119.887,-283.796 L -119.663,-283.768 L -119.444,-283.712 L -119.234,-283.629 L -119.036,-283.52
 L -118.853,-283.387 L -118.688,-283.232 L -118.544,-283.058 L -118.423,-282.867 L -118.326,-282.663 L -118.257,-282.448
 L -118.214,-282.226 L -118.2,-282 L -118.214,-281.774 L -118.257,-281.552 L -118.326,-281.337 L -118.423,-281.133
 L -118.544,-280.942 L -118.688,-280.768 L -118.853,-280.613 L -119.036,-280.48 L -119.234,-280.371 L -119.444,-280.288
 L -119.663,-280.232 L -119.887,-280.204 z
M 119.887,-280.204 L 119.663,-280.232 L 119.444,-280.288 L 119.234,-280.371 L 119.036,-280.48 L 118.853,-280.613
 L 118.688,-280.768 L 118.544,-280.942 L 118.423,-281.133 L 118.326,-281.337 L 118.257,-281.552 L 118.214,-281.774
 L 118.2,-282 L 118.214,-282.226 L 118.257,-282.448 L 118.326,-282.663 L 118.423,-282.867 L 118.544,-283.058
 L 118.688,-283.232 L 118.853,-283.387 L 119.036,-283.52 L 119.234,-283.629 L 119.444,-283.712 L 119.663,-283.768
 L 119.887,-283.796 L 120.113,-283.796 L 120.337,-283.768 L 120.556,-283.712 L 120.766,-283.629 L 120.964,-283.52
 L 121.147,-283.387 L 121.312,-283.232 L 121.456,-283.058 L 121.577,-282.867 L 121.674,-282.663 L 121.743,-282.448
 L 121.786,-282.226 L 121.8,-282 L 121.786,-281.774 L 121.743,-281.552 L 121.674,-281.337 L 121.577,-281.133
 L 121.456,-280.942 L 121.312,-280.768 L 121.147,-280.613 L 120.964,-280.48 L 120.766,-280.371 L 120.556,-280.288
 L 120.337,-280.232 L 120.113,-280.204 z
M 119.887,-220.204 L 119.663,-220.232 L 119.444,-220.288 L 119.234,-220.371 L 119.036,-220.48 L 118.853,-220.613
 L 118.688,-220.768 L 118.544,-220.942 L 118.423,-221.133 L 118.326,-221.337 L 118.257,-221.552 L 118.214,-221.774
 L 118.2,-222 L 118.214,-222.226 L 118.257,-222.448 L 118.326,-222.663 L 118.423,-222.867 L 118.544,-223.058
 L 118.688,-223.232 L 118.853,-223.387 L 119.036,-223.52 L 119.234,-223.629 L 119.444,-223.712 L 119.663,-223.768
 L 119.887,-223.796 L 120.113,-223.796 L 120.337,-223.768 L 120.556,-223.712 L 120.766,-223.629 L 120.964,-223.52
 L 121.147,-223.387 L 121.312,-223.232 L 121.456,-223.058 L 121.577,-222.867 L 121.674,-222.663 L 121.743,-222.448
 L 121.786,-222.226 L 121.8,-222 L 121.786,-221.774 L 121.743,-221.552 L 121.674,-221.337 L 121.577,-221.133
 L 121.456,-220.942 L 121.312,-220.768 L 121.147,-220.613 L 120.964,-220.48 L 120.766,-220.371 L 120.556,-220.288
 L 120.337,-220.232 L 120.113,-220.204 z
M -120.113,-220.204 L -120.337,-220.232 L -120.556,-220.288 L -120.766,-220.371 L -120.964,-220.48 L -121.147,-220.613
 L -121.312,-220.768 L -121.456,-220.942 L -121.577,-221.133 L -121.674,-221.337 L -121.743,-221.552 L -121.786,-221.774
 L -121.8,-222 L -121.786,-222.226 L -121.743,-222.448 L -121.674,-222.663 L -121.577,-222.867 L -121.456,-223.058
 L -121.312,-223.232 L -121.147,-223.387 L -120.964,-223.52 L -120.766,-223.629 L -120.556,-223.712 L -120.337,-223.768
 L -120.113,-223.796 L -119.887,-223.796 L -119.663,-223.768 L -119.444,-223.712 L -119.234,-223.629 L -119.036,-223.52
 L -118.853,-223.387 L -118.688,-223.232 L -118.544,-223.058 L -118.423,-222.867 L -118.326,-222.663 L -118.257,-222.448
 L -118.214,-222.226 L -118.2,-222 L -118.214,-221.774 L -118.257,-221.552 L -118.326,-221.337 L -118.423,-221.133
 L -118.544,-220.942 L -118.688,-220.768 L -118.853,-220.613 L -119.036,-220.48 L -119.234,-220.371 L -119.444,-220.288
 L -119.663,-220.232 L -119.887,-220.204 z
" stroke="black" fill="lightgray" stroke-width="0.5"/>
</svg>
