  0
SECTION
  2
BLOCKS
  0
ENDSEC
  0
SECTION
  2
ENTITIES
  0
LINE
  8
0
 10
-118.5
 20
454.441
 11
-118.187
 21
454.147
  0
LINE
  8
0
 10
-118.187
 20
454.147
 11
-117.679
 21
453.778
  0
LINE
  8
0
 10
-117.679
 20
453.778
 11
-117.129
 21
453.476
  0
LINE
  8
0
 10
-117.129
 20
453.476
 11
-116.545
 21
453.245
  0
LINE
  8
0
 10
-116.545
 20
453.245
 11
-115.937
 21
453.089
  0
LINE
  8
0
 10
-115.937
 20
453.089
 11
-115.314
 21
453.01
  0
LINE
  8
0
 10
-115.314
 20
453.01
 11
115.314
 21
453.01
  0
LINE
  8
0
 10
115.314
 20
453.01
 11
115.937
 21
453.089
  0
LINE
  8
0
 10
115.937
 20
453.089
 11
116.545
 21
453.245
  0
LINE
  8
0
 10
116.545
 20
453.245
 11
117.129
 21
453.476
  0
LINE
  8
0
 10
117.129
 20
453.476
 11
117.679
 21
453.778
  0
LINE
  8
0
 10
117.679
 20
453.778
 11
118.187
 21
454.147
  0
LINE
  8
0
 10
118.187
 20
454.147
 11
118.645
 21
454.577
  0
LINE
  8
0
 10
118.645
 20
454.577
 11
119.045
 21
455.061
  0
LINE
  8
0
 10
119.045
 20
455.061
 11
119.382
 21
455.591
  0
LINE
  8
0
 10
119.382
 20
455.591
 11
119.649
 21
456.159
  0
LINE
  8
0
 10
119.649
 20
456.159
 11
119.843
 21
456.757
  0
LINE
  8
0
 10
119.843
 20
456.757
 11
119.961
 21
457.373
  0
LINE
  8
0
 10
119.961
 20
457.373
 11
120
 21
458
  0
LINE
  8
0
 10
120
 20
458
 11
120
 21
508
  0
LINE
  8
0
 10
120
 20
508
 11
119.961
 21
508.627
  0
LINE
  8
0
 10
119.961
 20
508.627
 11
119.843
 21
509.243
  0
LINE
  8
0
 10
119.843
 20
509.243
 11
119.649
 21
509.841
  0
LINE
  8
0
 10
119.649
 20
509.841
 11
119.382
 21
510.409
  0
LINE
  8
0
 10
119.382
 20
510.409
 11
119.045
 21
510.939
  0
LINE
  8
0
 10
119.045
 20
510.939
 11
118.645
 21
511.423
  0
LINE
  8
0
 10
118.645
 20
511.423
 11
118.187
 21
511.853
  0
LINE
  8
0
 10
118.187
 20
511.853
 11
117.679
 21
512.222
  0
LINE
  8
0
 10
117.679
 20
512.222
 11
117.129
 21
512.524
  0
LINE
  8
0
 10
117.129
 20
512.524
 11
116.545
 21
512.755
  0
LINE
  8
0
 10
116.545
 20
512.755
 11
115.937
 21
512.911
  0
LINE
  8
0
 10
115.937
 20
512.911
 11
115.314
 21
512.99
  0
LINE
  8
0
 10
115.314
 20
512.99
 11
-115.314
 21
512.99
  0
LINE
  8
0
 10
-115.314
 20
512.99
 11
-115.937
 21
512.911
  0
LINE
  8
0
 10
-115.937
 20
512.911
 11
-116.545
 21
512.755
  0
LINE
  8
0
 10
-116.545
 20
512.755
 11
-117.129
 21
512.524
  0
LINE
  8
0
 10
-117.129
 20
512.524
 11
-117.679
 21
512.222
  0
LINE
  8
0
 10
-117.679
 20
512.222
 11
-118.187
 21
511.853
  0
LINE
  8
0
 10
-118.187
 20
511.853
 11
-118.5
 21
511.559
  0
LINE
  8
0
 10
-118.5
 20
511.559
 11
-118.5
 21
512.99
  0
LINE
  8
0
 10
-118.5
 20
512.99
 11
-121.5
 21
512.99
  0
LINE
  8
0
 10
-121.5
 20
512.99
 11
-121.5
 21
453.01
  0
LINE
  8
0
 10
-121.5
 20
453.01
 11
-118.5
 21
453.01
  0
LINE
  8
0
 10
-118.5
 20
453.01
 11
-118.5
 21
454.441
  0
LINE
  8
0
 10
-114.751
 20
454.508
 11
-115.25
 21
454.571
  0
LINE
  8
0
 10
-115.25
 20
454.571
 11
-115.736
 21
454.696
  0
LINE
  8
0
 10
-115.736
 20
454.696
 11
-116.203
 21
454.881
  0
LINE
  8
0
 10
-116.203
 20
454.881
 11
-116.643
 21
455.123
  0
LINE
  8
0
 10
-116.643
 20
455.123
 11
-117.05
 21
455.418
  0
LINE
  8
0
 10
-117.05
 20
455.418
 11
-117.416
 21
455.762
  0
LINE
  8
0
 10
-117.416
 20
455.762
 11
-117.736
 21
456.149
  0
LINE
  8
0
 10
-117.736
 20
456.149
 11
-118.005
 21
456.573
  0
LINE
  8
0
 10
-118.005
 20
456.573
 11
-118.219
 21
457.028
  0
LINE
  8
0
 10
-118.219
 20
457.028
 11
-118.374
 21
457.505
  0
LINE
  8
0
 10
-118.374
 20
457.505
 11
-118.468
 21
457.999
  0
LINE
  8
0
 10
-118.468
 20
457.999
 11
-118.5
 21
458.5
  0
LINE
  8
0
 10
-118.5
 20
458.5
 11
-118.5
 21
507.5
  0
LINE
  8
0
 10
-118.5
 20
507.5
 11
-118.468
 21
508.001
  0
LINE
  8
0
 10
-118.468
 20
508.001
 11
-118.374
 21
508.495
  0
LINE
  8
0
 10
-118.374
 20
508.495
 11
-118.219
 21
508.972
  0
LINE
  8
0
 10
-118.219
 20
508.972
 11
-118.005
 21
509.427
  0
LINE
  8
0
 10
-118.005
 20
509.427
 11
-117.736
 21
509.851
  0
LINE
  8
0
 10
-117.736
 20
509.851
 11
-117.416
 21
510.238
  0
LINE
  8
0
 10
-117.416
 20
510.238
 11
-117.05
 21
510.582
  0
LINE
  8
0
 10
-117.05
 20
510.582
 11
-116.643
 21
510.877
  0
LINE
  8
0
 10
-116.643
 20
510.877
 11
-116.203
 21
511.119
  0
LINE
  8
0
 10
-116.203
 20
511.119
 11
-115.736
 21
511.304
  0
LINE
  8
0
 10
-115.736
 20
511.304
 11
-115.25
 21
511.429
  0
LINE
  8
0
 10
-115.25
 20
511.429
 11
-114.751
 21
511.492
  0
LINE
  8
0
 10
-114.751
 20
511.492
 11
114.751
 21
511.492
  0
LINE
  8
0
 10
114.751
 20
511.492
 11
115.25
 21
511.429
  0
LINE
  8
0
 10
115.25
 20
511.429
 11
115.736
 21
511.304
  0
LINE
  8
0
 10
115.736
 20
511.304
 11
116.203
 21
511.119
  0
LINE
  8
0
 10
116.203
 20
511.119
 11
116.643
 21
510.877
  0
LINE
  8
0
 10
116.643
 20
510.877
 11
117.05
 21
510.582
  0
LINE
  8
0
 10
117.05
 20
510.582
 11
117.416
 21
510.238
  0
LINE
  8
0
 10
117.416
 20
510.238
 11
117.736
 21
509.851
  0
LINE
  8
0
 10
117.736
 20
509.851
 11
118.005
 21
509.427
  0
LINE
  8
0
 10
118.005
 20
509.427
 11
118.219
 21
508.972
  0
LINE
  8
0
 10
118.219
 20
508.972
 11
118.374
 21
508.495
  0
LINE
  8
0
 10
118.374
 20
508.495
 11
118.468
 21
508.001
  0
LINE
  8
0
 10
118.468
 20
508.001
 11
118.5
 21
507.5
  0
LINE
  8
0
 10
118.5
 20
507.5
 11
118.5
 21
458.5
  0
LINE
  8
0
 10
118.5
 20
458.5
 11
118.468
 21
457.999
  0
LINE
  8
0
 10
118.468
 20
457.999
 11
118.374
 21
457.505
  0
LINE
  8
0
 10
118.374
 20
457.505
 11
118.219
 21
457.028
  0
LINE
  8
0
 10
118.219
 20
457.028
 11
118.005
 21
456.573
  0
LINE
  8
0
 10
118.005
 20
456.573
 11
117.736
 21
456.149
  0
LINE
  8
0
 10
117.736
 20
456.149
 11
117.416
 21
455.762
  0
LINE
  8
0
 10
117.416
 20
455.762
 11
117.05
 21
455.418
  0
LINE
  8
0
 10
117.05
 20
455.418
 11
116.643
 21
455.123
  0
LINE
  8
0
 10
116.643
 20
455.123
 11
116.203
 21
454.881
  0
LINE
  8
0
 10
116.203
 20
454.881
 11
115.736
 21
454.696
  0
LINE
  8
0
 10
115.736
 20
454.696
 11
115.25
 21
454.571
  0
LINE
  8
0
 10
115.25
 20
454.571
 11
114.751
 21
454.508
  0
LINE
  8
0
 10
114.751
 20
454.508
 11
-114.751
 21
454.508
  0
LINE
  8
0
 10
-118.5
 20
385.441
 11
-118.187
 21
385.147
  0
LINE
  8
0
 10
-118.187
 20
385.147
 11
-117.679
 21
384.778
  0
LINE
  8
0
 10
-117.679
 20
384.778
 11
-117.129
 21
384.476
  0
LINE
  8
0
 10
-117.129
 20
384.476
 11
-116.545
 21
384.245
  0
LINE
  8
0
 10
-116.545
 20
384.245
 11
-115.937
 21
384.089
  0
LINE
  8
0
 10
-115.937
 20
384.089
 11
-115.314
 21
384.01
  0
LINE
  8
0
 10
-115.314
 20
384.01
 11
115.314
 21
384.01
  0
LINE
  8
0
 10
115.314
 20
384.01
 11
115.937
 21
384.089
  0
LINE
  8
0
 10
115.937
 20
384.089
 11
116.545
 21
384.245
  0
LINE
  8
0
 10
116.545
 20
384.245
 11
117.129
 21
384.476
  0
LINE
  8
0
 10
117.129
 20
384.476
 11
117.679
 21
384.778
  0
LINE
  8
0
 10
117.679
 20
384.778
 11
118.187
 21
385.147
  0
LINE
  8
0
 10
118.187
 20
385.147
 11
118.645
 21
385.577
  0
LINE
  8
0
 10
118.645
 20
385.577
 11
119.045
 21
386.061
  0
LINE
  8
0
 10
119.045
 20
386.061
 11
119.382
 21
386.591
  0
LINE
  8
0
 10
119.382
 20
386.591
 11
119.649
 21
387.159
  0
LINE
  8
0
 10
119.649
 20
387.159
 11
119.843
 21
387.757
  0
LINE
  8
0
 10
119.843
 20
387.757
 11
119.961
 21
388.373
  0
LINE
  8
0
 10
119.961
 20
388.373
 11
120
 21
389
  0
LINE
  8
0
 10
120
 20
389
 11
120
 21
439
  0
LINE
  8
0
 10
120
 20
439
 11
119.961
 21
439.627
  0
LINE
  8
0
 10
119.961
 20
439.627
 11
119.843
 21
440.243
  0
LINE
  8
0
 10
119.843
 20
440.243
 11
119.649
 21
440.841
  0
LINE
  8
0
 10
119.649
 20
440.841
 11
119.382
 21
441.409
  0
LINE
  8
0
 10
119.382
 20
441.409
 11
119.045
 21
441.939
  0
LINE
  8
0
 10
119.045
 20
441.939
 11
118.645
 21
442.423
  0
LINE
  8
0
 10
118.645
 20
442.423
 11
118.187
 21
442.853
  0
LINE
  8
0
 10
118.187
 20
442.853
 11
117.679
 21
443.222
  0
LINE
  8
0
 10
117.679
 20
443.222
 11
117.129
 21
443.524
  0
LINE
  8
0
 10
117.129
 20
443.524
 11
116.545
 21
443.755
  0
LINE
  8
0
 10
116.545
 20
443.755
 11
115.937
 21
443.911
  0
LINE
  8
0
 10
115.937
 20
443.911
 11
115.314
 21
443.99
  0
LINE
  8
0
 10
115.314
 20
443.99
 11
-115.314
 21
443.99
  0
LINE
  8
0
 10
-115.314
 20
443.99
 11
-115.937
 21
443.911
  0
LINE
  8
0
 10
-115.937
 20
443.911
 11
-116.545
 21
443.755
  0
LINE
  8
0
 10
-116.545
 20
443.755
 11
-117.129
 21
443.524
  0
LINE
  8
0
 10
-117.129
 20
443.524
 11
-117.679
 21
443.222
  0
LINE
  8
0
 10
-117.679
 20
443.222
 11
-118.187
 21
442.853
  0
LINE
  8
0
 10
-118.187
 20
442.853
 11
-118.5
 21
442.559
  0
LINE
  8
0
 10
-118.5
 20
442.559
 11
-118.5
 21
443.99
  0
LINE
  8
0
 10
-118.5
 20
443.99
 11
-121.5
 21
443.99
  0
LINE
  8
0
 10
-121.5
 20
443.99
 11
-121.5
 21
384.01
  0
LINE
  8
0
 10
-121.5
 20
384.01
 11
-118.5
 21
384.01
  0
LINE
  8
0
 10
-118.5
 20
384.01
 11
-118.5
 21
385.441
  0
LINE
  8
0
 10
-114.751
 20
385.508
 11
-115.25
 21
385.571
  0
LINE
  8
0
 10
-115.25
 20
385.571
 11
-115.736
 21
385.696
  0
LINE
  8
0
 10
-115.736
 20
385.696
 11
-116.203
 21
385.881
  0
LINE
  8
0
 10
-116.203
 20
385.881
 11
-116.643
 21
386.123
  0
LINE
  8
0
 10
-116.643
 20
386.123
 11
-117.05
 21
386.418
  0
LINE
  8
0
 10
-117.05
 20
386.418
 11
-117.416
 21
386.762
  0
LINE
  8
0
 10
-117.416
 20
386.762
 11
-117.736
 21
387.149
  0
LINE
  8
0
 10
-117.736
 20
387.149
 11
-118.005
 21
387.573
  0
LINE
  8
0
 10
-118.005
 20
387.573
 11
-118.219
 21
388.028
  0
LINE
  8
0
 10
-118.219
 20
388.028
 11
-118.374
 21
388.505
  0
LINE
  8
0
 10
-118.374
 20
388.505
 11
-118.468
 21
388.999
  0
LINE
  8
0
 10
-118.468
 20
388.999
 11
-118.5
 21
389.5
  0
LINE
  8
0
 10
-118.5
 20
389.5
 11
-118.5
 21
438.5
  0
LINE
  8
0
 10
-118.5
 20
438.5
 11
-118.468
 21
439.001
  0
LINE
  8
0
 10
-118.468
 20
439.001
 11
-118.374
 21
439.495
  0
LINE
  8
0
 10
-118.374
 20
439.495
 11
-118.219
 21
439.972
  0
LINE
  8
0
 10
-118.219
 20
439.972
 11
-118.005
 21
440.427
  0
LINE
  8
0
 10
-118.005
 20
440.427
 11
-117.736
 21
440.851
  0
LINE
  8
0
 10
-117.736
 20
440.851
 11
-117.416
 21
441.238
  0
LINE
  8
0
 10
-117.416
 20
441.238
 11
-117.05
 21
441.582
  0
LINE
  8
0
 10
-117.05
 20
441.582
 11
-116.643
 21
441.877
  0
LINE
  8
0
 10
-116.643
 20
441.877
 11
-116.203
 21
442.119
  0
LINE
  8
0
 10
-116.203
 20
442.119
 11
-115.736
 21
442.304
  0
LINE
  8
0
 10
-115.736
 20
442.304
 11
-115.25
 21
442.429
  0
LINE
  8
0
 10
-115.25
 20
442.429
 11
-114.751
 21
442.492
  0
LINE
  8
0
 10
-114.751
 20
442.492
 11
114.751
 21
442.492
  0
LINE
  8
0
 10
114.751
 20
442.492
 11
115.25
 21
442.429
  0
LINE
  8
0
 10
115.25
 20
442.429
 11
115.736
 21
442.304
  0
LINE
  8
0
 10
115.736
 20
442.304
 11
116.203
 21
442.119
  0
LINE
  8
0
 10
116.203
 20
442.119
 11
116.643
 21
441.877
  0
LINE
  8
0
 10
116.643
 20
441.877
 11
117.05
 21
441.582
  0
LINE
  8
0
 10
117.05
 20
441.582
 11
117.416
 21
441.238
  0
LINE
  8
0
 10
117.416
 20
441.238
 11
117.736
 21
440.851
  0
LINE
  8
0
 10
117.736
 20
440.851
 11
118.005
 21
440.427
  0
LINE
  8
0
 10
118.005
 20
440.427
 11
118.219
 21
439.972
  0
LINE
  8
0
 10
118.219
 20
439.972
 11
118.374
 21
439.495
  0
LINE
  8
0
 10
118.374
 20
439.495
 11
118.468
 21
439.001
  0
LINE
  8
0
 10
118.468
 20
439.001
 11
118.5
 21
438.5
  0
LINE
  8
0
 10
118.5
 20
438.5
 11
118.5
 21
389.5
  0
LINE
  8
0
 10
118.5
 20
389.5
 11
118.468
 21
388.999
  0
LINE
  8
0
 10
118.468
 20
388.999
 11
118.374
 21
388.505
  0
LINE
  8
0
 10
118.374
 20
388.505
 11
118.219
 21
388.028
  0
LINE
  8
0
 10
118.219
 20
388.028
 11
118.005
 21
387.573
  0
LINE
  8
0
 10
118.005
 20
387.573
 11
117.736
 21
387.149
  0
LINE
  8
0
 10
117.736
 20
387.149
 11
117.416
 21
386.762
  0
LINE
  8
0
 10
117.416
 20
386.762
 11
117.05
 21
386.418
  0
LINE
  8
0
 10
117.05
 20
386.418
 11
116.643
 21
386.123
  0
LINE
  8
0
 10
116.643
 20
386.123
 11
116.203
 21
385.881
  0
LINE
  8
0
 10
116.203
 20
385.881
 11
115.736
 21
385.696
  0
LINE
  8
0
 10
115.736
 20
385.696
 11
115.25
 21
385.571
  0
LINE
  8
0
 10
115.25
 20
385.571
 11
114.751
 21
385.508
  0
LINE
  8
0
 10
114.751
 20
385.508
 11
-114.751
 21
385.508
  0
LINE
  8
0
 10
115.937
 20
315.089
 11
116.545
 21
315.245
  0
LINE
  8
0
 10
116.545
 20
315.245
 11
117.129
 21
315.476
  0
LINE
  8
0
 10
117.129
 20
315.476
 11
117.679
 21
315.778
  0
LINE
  8
0
 10
117.679
 20
315.778
 11
118.187
 21
316.147
  0
LINE
  8
0
 10
118.187
 20
316.147
 11
118.645
 21
316.577
  0
LINE
  8
0
 10
118.645
 20
316.577
 11
119.045
 21
317.061
  0
LINE
  8
0
 10
119.045
 20
317.061
 11
119.382
 21
317.591
  0
LINE
  8
0
 10
119.382
 20
317.591
 11
119.649
 21
318.159
  0
LINE
  8
0
 10
119.649
 20
318.159
 11
119.843
 21
318.757
  0
LINE
  8
0
 10
119.843
 20
318.757
 11
119.961
 21
319.373
  0
LINE
  8
0
 10
119.961
 20
319.373
 11
120
 21
320
  0
LINE
  8
0
 10
120
 20
320
 11
120
 21
370
  0
LINE
  8
0
 10
120
 20
370
 11
119.961
 21
370.627
  0
LINE
  8
0
 10
119.961
 20
370.627
 11
119.843
 21
371.243
  0
LINE
  8
0
 10
119.843
 20
371.243
 11
119.649
 21
371.841
  0
LINE
  8
0
 10
119.649
 20
371.841
 11
119.382
 21
372.409
  0
LINE
  8
0
 10
119.382
 20
372.409
 11
119.045
 21
372.939
  0
LINE
  8
0
 10
119.045
 20
372.939
 11
118.645
 21
373.423
  0
LINE
  8
0
 10
118.645
 20
373.423
 11
118.187
 21
373.853
  0
LINE
  8
0
 10
118.187
 20
373.853
 11
117.679
 21
374.222
  0
LINE
  8
0
 10
117.679
 20
374.222
 11
117.129
 21
374.524
  0
LINE
  8
0
 10
117.129
 20
374.524
 11
116.545
 21
374.755
  0
LINE
  8
0
 10
116.545
 20
374.755
 11
115.937
 21
374.911
  0
LINE
  8
0
 10
115.937
 20
374.911
 11
115.314
 21
374.99
  0
LINE
  8
0
 10
115.314
 20
374.99
 11
-115.314
 21
374.99
  0
LINE
  8
0
 10
-115.314
 20
374.99
 11
-115.937
 21
374.911
  0
LINE
  8
0
 10
-115.937
 20
374.911
 11
-116.545
 21
374.755
  0
LINE
  8
0
 10
-116.545
 20
374.755
 11
-117.129
 21
374.524
  0
LINE
  8
0
 10
-117.129
 20
374.524
 11
-117.679
 21
374.222
  0
LINE
  8
0
 10
-117.679
 20
374.222
 11
-118.187
 21
373.853
  0
LINE
  8
0
 10
-118.187
 20
373.853
 11
-118.5
 21
373.559
  0
LINE
  8
0
 10
-118.5
 20
373.559
 11
-118.5
 21
374.979
  0
LINE
  8
0
 10
-118.5
 20
374.979
 11
-121.5
 21
374.979
  0
LINE
  8
0
 10
-121.5
 20
374.979
 11
-121.5
 21
315.021
  0
LINE
  8
0
 10
-121.5
 20
315.021
 11
-118.5
 21
315.021
  0
LINE
  8
0
 10
-118.5
 20
315.021
 11
-118.5
 21
316.441
  0
LINE
  8
0
 10
-118.5
 20
316.441
 11
-118.187
 21
316.147
  0
LINE
  8
0
 10
-118.187
 20
316.147
 11
-117.679
 21
315.778
  0
LINE
  8
0
 10
-117.679
 20
315.778
 11
-117.129
 21
315.476
  0
LINE
  8
0
 10
-117.129
 20
315.476
 11
-116.545
 21
315.245
  0
LINE
  8
0
 10
-116.545
 20
315.245
 11
-115.937
 21
315.089
  0
LINE
  8
0
 10
-115.937
 20
315.089
 11
-115.314
 21
315.01
  0
LINE
  8
0
 10
-115.314
 20
315.01
 11
115.314
 21
315.01
  0
LINE
  8
0
 10
115.314
 20
315.01
 11
115.937
 21
315.089
  0
LINE
  8
0
 10
-114.695
 20
317.393
 11
-115.083
 21
317.442
  0
LINE
  8
0
 10
-115.083
 20
317.442
 11
-115.462
 21
317.539
  0
LINE
  8
0
 10
-115.462
 20
317.539
 11
-115.825
 21
317.683
  0
LINE
  8
0
 10
-115.825
 20
317.683
 11
-116.168
 21
317.872
  0
LINE
  8
0
 10
-116.168
 20
317.872
 11
-116.484
 21
318.101
  0
LINE
  8
0
 10
-116.484
 20
318.101
 11
-116.769
 21
318.369
  0
LINE
  8
0
 10
-116.769
 20
318.369
 11
-117.018
 21
318.67
  0
LINE
  8
0
 10
-117.018
 20
318.67
 11
-117.228
 21
319
  0
LINE
  8
0
 10
-117.228
 20
319
 11
-117.394
 21
319.354
  0
LINE
  8
0
 10
-117.394
 20
319.354
 11
-117.515
 21
319.726
  0
LINE
  8
0
 10
-117.515
 20
319.726
 11
-117.588
 21
320.11
  0
LINE
  8
0
 10
-117.588
 20
320.11
 11
-117.613
 21
320.5
  0
LINE
  8
0
 10
-117.613
 20
320.5
 11
-117.613
 21
369.5
  0
LINE
  8
0
 10
-117.613
 20
369.5
 11
-117.588
 21
369.89
  0
LINE
  8
0
 10
-117.588
 20
369.89
 11
-117.515
 21
370.274
  0
LINE
  8
0
 10
-117.515
 20
370.274
 11
-117.394
 21
370.646
  0
LINE
  8
0
 10
-117.394
 20
370.646
 11
-117.228
 21
371
  0
LINE
  8
0
 10
-117.228
 20
371
 11
-117.018
 21
371.33
  0
LINE
  8
0
 10
-117.018
 20
371.33
 11
-116.769
 21
371.631
  0
LINE
  8
0
 10
-116.769
 20
371.631
 11
-116.484
 21
371.899
  0
LINE
  8
0
 10
-116.484
 20
371.899
 11
-116.168
 21
372.128
  0
LINE
  8
0
 10
-116.168
 20
372.128
 11
-115.825
 21
372.317
  0
LINE
  8
0
 10
-115.825
 20
372.317
 11
-115.462
 21
372.461
  0
LINE
  8
0
 10
-115.462
 20
372.461
 11
-115.083
 21
372.558
  0
LINE
  8
0
 10
-115.083
 20
372.558
 11
-114.695
 21
372.607
  0
LINE
  8
0
 10
-114.695
 20
372.607
 11
114.695
 21
372.607
  0
LINE
  8
0
 10
114.695
 20
372.607
 11
115.083
 21
372.558
  0
LINE
  8
0
 10
115.083
 20
372.558
 11
115.462
 21
372.461
  0
LINE
  8
0
 10
115.462
 20
372.461
 11
115.825
 21
372.317
  0
LINE
  8
0
 10
115.825
 20
372.317
 11
116.168
 21
372.128
  0
LINE
  8
0
 10
116.168
 20
372.128
 11
116.484
 21
371.899
  0
LINE
  8
0
 10
116.484
 20
371.899
 11
116.769
 21
371.631
  0
LINE
  8
0
 10
116.769
 20
371.631
 11
117.018
 21
371.33
  0
LINE
  8
0
 10
117.018
 20
371.33
 11
117.228
 21
371
  0
LINE
  8
0
 10
117.228
 20
371
 11
117.394
 21
370.646
  0
LINE
  8
0
 10
117.394
 20
370.646
 11
117.515
 21
370.274
  0
LINE
  8
0
 10
117.515
 20
370.274
 11
117.588
 21
369.89
  0
LINE
  8
0
 10
117.588
 20
369.89
 11
117.613
 21
369.5
  0
LINE
  8
0
 10
117.613
 20
369.5
 11
117.613
 21
320.5
  0
LINE
  8
0
 10
117.613
 20
320.5
 11
117.588
 21
320.11
  0
LINE
  8
0
 10
117.588
 20
320.11
 11
117.515
 21
319.726
  0
LINE
  8
0
 10
117.515
 20
319.726
 11
117.394
 21
319.354
  0
LINE
  8
0
 10
117.394
 20
319.354
 11
117.228
 21
319
  0
LINE
  8
0
 10
117.228
 20
319
 11
117.018
 21
318.67
  0
LINE
  8
0
 10
117.018
 20
318.67
 11
116.769
 21
318.369
  0
LINE
  8
0
 10
116.769
 20
318.369
 11
116.484
 21
318.101
  0
LINE
  8
0
 10
116.484
 20
318.101
 11
116.168
 21
317.872
  0
LINE
  8
0
 10
116.168
 20
317.872
 11
115.825
 21
317.683
  0
LINE
  8
0
 10
115.825
 20
317.683
 11
115.462
 21
317.539
  0
LINE
  8
0
 10
115.462
 20
317.539
 11
115.083
 21
317.442
  0
LINE
  8
0
 10
115.083
 20
317.442
 11
114.695
 21
317.393
  0
LINE
  8
0
 10
114.695
 20
317.393
 11
-114.695
 21
317.393
  0
LINE
  8
0
 10
115.937
 20
246.089
 11
116.545
 21
246.245
  0
LINE
  8
0
 10
116.545
 20
246.245
 11
117.129
 21
246.476
  0
LINE
  8
0
 10
117.129
 20
246.476
 11
117.679
 21
246.778
  0
LINE
  8
0
 10
117.679
 20
246.778
 11
118.187
 21
247.147
  0
LINE
  8
0
 10
118.187
 20
247.147
 11
118.645
 21
247.577
  0
LINE
  8
0
 10
118.645
 20
247.577
 11
119.045
 21
248.061
  0
LINE
  8
0
 10
119.045
 20
248.061
 11
119.382
 21
248.591
  0
LINE
  8
0
 10
119.382
 20
248.591
 11
119.649
 21
249.159
  0
LINE
  8
0
 10
119.649
 20
249.159
 11
119.843
 21
249.757
  0
LINE
  8
0
 10
119.843
 20
249.757
 11
119.961
 21
250.373
  0
LINE
  8
0
 10
119.961
 20
250.373
 11
120
 21
251
  0
LINE
  8
0
 10
120
 20
251
 11
120
 21
301
  0
LINE
  8
0
 10
120
 20
301
 11
119.961
 21
301.627
  0
LINE
  8
0
 10
119.961
 20
301.627
 11
119.843
 21
302.243
  0
LINE
  8
0
 10
119.843
 20
302.243
 11
119.649
 21
302.841
  0
LINE
  8
0
 10
119.649
 20
302.841
 11
119.382
 21
303.409
  0
LINE
  8
0
 10
119.382
 20
303.409
 11
119.045
 21
303.939
  0
LINE
  8
0
 10
119.045
 20
303.939
 11
118.645
 21
304.423
  0
LINE
  8
0
 10
118.645
 20
304.423
 11
118.187
 21
304.853
  0
LINE
  8
0
 10
118.187
 20
304.853
 11
117.679
 21
305.222
  0
LINE
  8
0
 10
117.679
 20
305.222
 11
117.129
 21
305.524
  0
LINE
  8
0
 10
117.129
 20
305.524
 11
116.545
 21
305.755
  0
LINE
  8
0
 10
116.545
 20
305.755
 11
115.937
 21
305.911
  0
LINE
  8
0
 10
115.937
 20
305.911
 11
115.314
 21
305.99
  0
LINE
  8
0
 10
115.314
 20
305.99
 11
-115.314
 21
305.99
  0
LINE
  8
0
 10
-115.314
 20
305.99
 11
-115.937
 21
305.911
  0
LINE
  8
0
 10
-115.937
 20
305.911
 11
-116.545
 21
305.755
  0
LINE
  8
0
 10
-116.545
 20
305.755
 11
-117.129
 21
305.524
  0
LINE
  8
0
 10
-117.129
 20
305.524
 11
-117.679
 21
305.222
  0
LINE
  8
0
 10
-117.679
 20
305.222
 11
-118.187
 21
304.853
  0
LINE
  8
0
 10
-118.187
 20
304.853
 11
-118.5
 21
304.559
  0
LINE
  8
0
 10
-118.5
 20
304.559
 11
-118.5
 21
304.653
  0
LINE
  8
0
 10
-118.5
 20
304.653
 11
-121.5
 21
304.653
  0
LINE
  8
0
 10
-121.5
 20
304.653
 11
-121.5
 21
247.347
  0
LINE
  8
0
 10
-121.5
 20
247.347
 11
-118.5
 21
247.347
  0
LINE
  8
0
 10
-118.5
 20
247.347
 11
-118.5
 21
247.441
  0
LINE
  8
0
 10
-118.5
 20
247.441
 11
-118.187
 21
247.147
  0
LINE
  8
0
 10
-118.187
 20
247.147
 11
-117.679
 21
246.778
  0
LINE
  8
0
 10
-117.679
 20
246.778
 11
-117.129
 21
246.476
  0
LINE
  8
0
 10
-117.129
 20
246.476
 11
-116.545
 21
246.245
  0
LINE
  8
0
 10
-116.545
 20
246.245
 11
-115.937
 21
246.089
  0
LINE
  8
0
 10
-115.937
 20
246.089
 11
-115.314
 21
246.01
  0
LINE
  8
0
 10
-115.314
 20
246.01
 11
115.314
 21
246.01
  0
LINE
  8
0
 10
115.314
 20
246.01
 11
115.937
 21
246.089
  0
LINE
  8
0
 10
-112.634
 20
296.369
 11
-112.9
 21
296.403
  0
LINE
  8
0
 10
-112.9
 20
296.403
 11
-113.16
 21
296.469
  0
LINE
  8
0
 10
-113.16
 20
296.469
 11
-113.409
 21
296.568
  0
LINE
  8
0
 10
-113.409
 20
296.568
 11
-113.644
 21
296.697
  0
LINE
  8
0
 10
-113.644
 20
296.697
 11
-113.861
 21
296.855
  0
LINE
  8
0
 10
-113.861
 20
296.855
 11
-114.057
 21
297.038
  0
LINE
  8
0
 10
-114.057
 20
297.038
 11
-114.227
 21
297.245
  0
LINE
  8
0
 10
-114.227
 20
297.245
 11
-114.371
 21
297.471
  0
LINE
  8
0
 10
-114.371
 20
297.471
 11
-114.485
 21
297.714
  0
LINE
  8
0
 10
-114.485
 20
297.714
 11
-114.568
 21
297.969
  0
LINE
  8
0
 10
-114.568
 20
297.969
 11
-114.618
 21
298.232
  0
LINE
  8
0
 10
-114.618
 20
298.232
 11
-114.635
 21
298.5
  0
LINE
  8
0
 10
-114.635
 20
298.5
 11
-114.618
 21
298.768
  0
LINE
  8
0
 10
-114.618
 20
298.768
 11
-114.568
 21
299.031
  0
LINE
  8
0
 10
-114.568
 20
299.031
 11
-114.485
 21
299.286
  0
LINE
  8
0
 10
-114.485
 20
299.286
 11
-114.371
 21
299.529
  0
LINE
  8
0
 10
-114.371
 20
299.529
 11
-114.227
 21
299.755
  0
LINE
  8
0
 10
-114.227
 20
299.755
 11
-114.057
 21
299.962
  0
LINE
  8
0
 10
-114.057
 20
299.962
 11
-113.861
 21
300.145
  0
LINE
  8
0
 10
-113.861
 20
300.145
 11
-113.644
 21
300.303
  0
LINE
  8
0
 10
-113.644
 20
300.303
 11
-113.409
 21
300.432
  0
LINE
  8
0
 10
-113.409
 20
300.432
 11
-113.16
 21
300.531
  0
LINE
  8
0
 10
-113.16
 20
300.531
 11
-112.9
 21
300.597
  0
LINE
  8
0
 10
-112.9
 20
300.597
 11
-112.634
 21
300.631
  0
LINE
  8
0
 10
-112.634
 20
300.631
 11
-112.366
 21
300.631
  0
LINE
  8
0
 10
-112.366
 20
300.631
 11
-112.1
 21
300.597
  0
LINE
  8
0
 10
-112.1
 20
300.597
 11
-111.84
 21
300.531
  0
LINE
  8
0
 10
-111.84
 20
300.531
 11
-111.591
 21
300.432
  0
LINE
  8
0
 10
-111.591
 20
300.432
 11
-111.356
 21
300.303
  0
LINE
  8
0
 10
-111.356
 20
300.303
 11
-111.139
 21
300.145
  0
LINE
  8
0
 10
-111.139
 20
300.145
 11
-110.943
 21
299.962
  0
LINE
  8
0
 10
-110.943
 20
299.962
 11
-110.773
 21
299.755
  0
LINE
  8
0
 10
-110.773
 20
299.755
 11
-110.629
 21
299.529
  0
LINE
  8
0
 10
-110.629
 20
299.529
 11
-110.515
 21
299.286
  0
LINE
  8
0
 10
-110.515
 20
299.286
 11
-110.432
 21
299.031
  0
LINE
  8
0
 10
-110.432
 20
299.031
 11
-110.382
 21
298.768
  0
LINE
  8
0
 10
-110.382
 20
298.768
 11
-110.365
 21
298.5
  0
LINE
  8
0
 10
-110.365
 20
298.5
 11
-110.382
 21
298.232
  0
LINE
  8
0
 10
-110.382
 20
298.232
 11
-110.432
 21
297.969
  0
LINE
  8
0
 10
-110.432
 20
297.969
 11
-110.515
 21
297.714
  0
LINE
  8
0
 10
-110.515
 20
297.714
 11
-110.629
 21
297.471
  0
LINE
  8
0
 10
-110.629
 20
297.471
 11
-110.773
 21
297.245
  0
LINE
  8
0
 10
-110.773
 20
297.245
 11
-110.943
 21
297.038
  0
LINE
  8
0
 10
-110.943
 20
297.038
 11
-111.139
 21
296.855
  0
LINE
  8
0
 10
-111.139
 20
296.855
 11
-111.356
 21
296.697
  0
LINE
  8
0
 10
-111.356
 20
296.697
 11
-111.591
 21
296.568
  0
LINE
  8
0
 10
-111.591
 20
296.568
 11
-111.84
 21
296.469
  0
LINE
  8
0
 10
-111.84
 20
296.469
 11
-112.1
 21
296.403
  0
LINE
  8
0
 10
-112.1
 20
296.403
 11
-112.366
 21
296.369
  0
LINE
  8
0
 10
-112.366
 20
296.369
 11
-112.634
 21
296.369
  0
LINE
  8
0
 10
112.366
 20
296.369
 11
112.1
 21
296.403
  0
LINE
  8
0
 10
112.1
 20
296.403
 11
111.84
 21
296.469
  0
LINE
  8
0
 10
111.84
 20
296.469
 11
111.591
 21
296.568
  0
LINE
  8
0
 10
111.591
 20
296.568
 11
111.356
 21
296.697
  0
LINE
  8
0
 10
111.356
 20
296.697
 11
111.139
 21
296.855
  0
LINE
  8
0
 10
111.139
 20
296.855
 11
110.943
 21
297.038
  0
LINE
  8
0
 10
110.943
 20
297.038
 11
110.773
 21
297.245
  0
LINE
  8
0
 10
110.773
 20
297.245
 11
110.629
 21
297.471
  0
LINE
  8
0
 10
110.629
 20
297.471
 11
110.515
 21
297.714
  0
LINE
  8
0
 10
110.515
 20
297.714
 11
110.432
 21
297.969
  0
LINE
  8
0
 10
110.432
 20
297.969
 11
110.382
 21
298.232
  0
LINE
  8
0
 10
110.382
 20
298.232
 11
110.365
 21
298.5
  0
LINE
  8
0
 10
110.365
 20
298.5
 11
110.382
 21
298.768
  0
LINE
  8
0
 10
110.382
 20
298.768
 11
110.432
 21
299.031
  0
LINE
  8
0
 10
110.432
 20
299.031
 11
110.515
 21
299.286
  0
LINE
  8
0
 10
110.515
 20
299.286
 11
110.629
 21
299.529
  0
LINE
  8
0
 10
110.629
 20
299.529
 11
110.773
 21
299.755
  0
LINE
  8
0
 10
110.773
 20
299.755
 11
110.943
 21
299.962
  0
LINE
  8
0
 10
110.943
 20
299.962
 11
111.139
 21
300.145
  0
LINE
  8
0
 10
111.139
 20
300.145
 11
111.356
 21
300.303
  0
LINE
  8
0
 10
111.356
 20
300.303
 11
111.591
 21
300.432
  0
LINE
  8
0
 10
111.591
 20
300.432
 11
111.84
 21
300.531
  0
LINE
  8
0
 10
111.84
 20
300.531
 11
112.1
 21
300.597
  0
LINE
  8
0
 10
112.1
 20
300.597
 11
112.366
 21
300.631
  0
LINE
  8
0
 10
112.366
 20
300.631
 11
112.634
 21
300.631
  0
LINE
  8
0
 10
112.634
 20
300.631
 11
112.9
 21
300.597
  0
LINE
  8
0
 10
112.9
 20
300.597
 11
113.16
 21
300.531
  0
LINE
  8
0
 10
113.16
 20
300.531
 11
113.409
 21
300.432
  0
LINE
  8
0
 10
113.409
 20
300.432
 11
113.644
 21
300.303
  0
LINE
  8
0
 10
113.644
 20
300.303
 11
113.861
 21
300.145
  0
LINE
  8
0
 10
113.861
 20
300.145
 11
114.057
 21
299.962
  0
LINE
  8
0
 10
114.057
 20
299.962
 11
114.227
 21
299.755
  0
LINE
  8
0
 10
114.227
 20
299.755
 11
114.371
 21
299.529
  0
LINE
  8
0
 10
114.371
 20
299.529
 11
114.485
 21
299.286
  0
LINE
  8
0
 10
114.485
 20
299.286
 11
114.568
 21
299.031
  0
LINE
  8
0
 10
114.568
 20
299.031
 11
114.618
 21
298.768
  0
LINE
  8
0
 10
114.618
 20
298.768
 11
114.635
 21
298.5
  0
LINE
  8
0
 10
114.635
 20
298.5
 11
114.618
 21
298.232
  0
LINE
  8
0
 10
114.618
 20
298.232
 11
114.568
 21
297.969
  0
LINE
  8
0
 10
114.568
 20
297.969
 11
114.485
 21
297.714
  0
LINE
  8
0
 10
114.485
 20
297.714
 11
114.371
 21
297.471
  0
LINE
  8
0
 10
114.371
 20
297.471
 11
114.227
 21
297.245
  0
LINE
  8
0
 10
114.227
 20
297.245
 11
114.057
 21
297.038
  0
LINE
  8
0
 10
114.057
 20
297.038
 11
113.861
 21
296.855
  0
LINE
  8
0
 10
113.861
 20
296.855
 11
113.644
 21
296.697
  0
LINE
  8
0
 10
113.644
 20
296.697
 11
113.409
 21
296.568
  0
LINE
  8
0
 10
113.409
 20
296.568
 11
113.16
 21
296.469
  0
LINE
  8
0
 10
113.16
 20
296.469
 11
112.9
 21
296.403
  0
LINE
  8
0
 10
112.9
 20
296.403
 11
112.634
 21
296.369
  0
LINE
  8
0
 10
112.634
 20
296.369
 11
112.366
 21
296.369
  0
LINE
  8
0
 10
-112.634
 20
251.369
 11
-112.9
 21
251.403
  0
LINE
  8
0
 10
-112.9
 20
251.403
 11
-113.16
 21
251.469
  0
LINE
  8
0
 10
-113.16
 20
251.469
 11
-113.409
 21
251.568
  0
LINE
  8
0
 10
-113.409
 20
251.568
 11
-113.644
 21
251.697
  0
LINE
  8
0
 10
-113.644
 20
251.697
 11
-113.861
 21
251.855
  0
LINE
  8
0
 10
-113.861
 20
251.855
 11
-114.057
 21
252.038
  0
LINE
  8
0
 10
-114.057
 20
252.038
 11
-114.227
 21
252.245
  0
LINE
  8
0
 10
-114.227
 20
252.245
 11
-114.371
 21
252.471
  0
LINE
  8
0
 10
-114.371
 20
252.471
 11
-114.485
 21
252.714
  0
LINE
  8
0
 10
-114.485
 20
252.714
 11
-114.568
 21
252.969
  0
LINE
  8
0
 10
-114.568
 20
252.969
 11
-114.618
 21
253.232
  0
LINE
  8
0
 10
-114.618
 20
253.232
 11
-114.635
 21
253.5
  0
LINE
  8
0
 10
-114.635
 20
253.5
 11
-114.618
 21
253.768
  0
LINE
  8
0
 10
-114.618
 20
253.768
 11
-114.568
 21
254.031
  0
LINE
  8
0
 10
-114.568
 20
254.031
 11
-114.485
 21
254.286
  0
LINE
  8
0
 10
-114.485
 20
254.286
 11
-114.371
 21
254.529
  0
LINE
  8
0
 10
-114.371
 20
254.529
 11
-114.227
 21
254.755
  0
LINE
  8
0
 10
-114.227
 20
254.755
 11
-114.057
 21
254.962
  0
LINE
  8
0
 10
-114.057
 20
254.962
 11
-113.861
 21
255.145
  0
LINE
  8
0
 10
-113.861
 20
255.145
 11
-113.644
 21
255.303
  0
LINE
  8
0
 10
-113.644
 20
255.303
 11
-113.409
 21
255.432
  0
LINE
  8
0
 10
-113.409
 20
255.432
 11
-113.16
 21
255.531
  0
LINE
  8
0
 10
-113.16
 20
255.531
 11
-112.9
 21
255.597
  0
LINE
  8
0
 10
-112.9
 20
255.597
 11
-112.634
 21
255.631
  0
LINE
  8
0
 10
-112.634
 20
255.631
 11
-112.366
 21
255.631
  0
LINE
  8
0
 10
-112.366
 20
255.631
 11
-112.1
 21
255.597
  0
LINE
  8
0
 10
-112.1
 20
255.597
 11
-111.84
 21
255.531
  0
LINE
  8
0
 10
-111.84
 20
255.531
 11
-111.591
 21
255.432
  0
LINE
  8
0
 10
-111.591
 20
255.432
 11
-111.356
 21
255.303
  0
LINE
  8
0
 10
-111.356
 20
255.303
 11
-111.139
 21
255.145
  0
LINE
  8
0
 10
-111.139
 20
255.145
 11
-110.943
 21
254.962
  0
LINE
  8
0
 10
-110.943
 20
254.962
 11
-110.773
 21
254.755
  0
LINE
  8
0
 10
-110.773
 20
254.755
 11
-110.629
 21
254.529
  0
LINE
  8
0
 10
-110.629
 20
254.529
 11
-110.515
 21
254.286
  0
LINE
  8
0
 10
-110.515
 20
254.286
 11
-110.432
 21
254.031
  0
LINE
  8
0
 10
-110.432
 20
254.031
 11
-110.382
 21
253.768
  0
LINE
  8
0
 10
-110.382
 20
253.768
 11
-110.365
 21
253.5
  0
LINE
  8
0
 10
-110.365
 20
253.5
 11
-110.382
 21
253.232
  0
LINE
  8
0
 10
-110.382
 20
253.232
 11
-110.432
 21
252.969
  0
LINE
  8
0
 10
-110.432
 20
252.969
 11
-110.515
 21
252.714
  0
LINE
  8
0
 10
-110.515
 20
252.714
 11
-110.629
 21
252.471
  0
LINE
  8
0
 10
-110.629
 20
252.471
 11
-110.773
 21
252.245
  0
LINE
  8
0
 10
-110.773
 20
252.245
 11
-110.943
 21
252.038
  0
LINE
  8
0
 10
-110.943
 20
252.038
 11
-111.139
 21
251.855
  0
LINE
  8
0
 10
-111.139
 20
251.855
 11
-111.356
 21
251.697
  0
LINE
  8
0
 10
-111.356
 20
251.697
 11
-111.591
 21
251.568
  0
LINE
  8
0
 10
-111.591
 20
251.568
 11
-111.84
 21
251.469
  0
LINE
  8
0
 10
-111.84
 20
251.469
 11
-112.1
 21
251.403
  0
LINE
  8
0
 10
-112.1
 20
251.403
 11
-112.366
 21
251.369
  0
LINE
  8
0
 10
-112.366
 20
251.369
 11
-112.634
 21
251.369
  0
LINE
  8
0
 10
112.366
 20
251.369
 11
112.1
 21
251.403
  0
LINE
  8
0
 10
112.1
 20
251.403
 11
111.84
 21
251.469
  0
LINE
  8
0
 10
111.84
 20
251.469
 11
111.591
 21
251.568
  0
LINE
  8
0
 10
111.591
 20
251.568
 11
111.356
 21
251.697
  0
LINE
  8
0
 10
111.356
 20
251.697
 11
111.139
 21
251.855
  0
LINE
  8
0
 10
111.139
 20
251.855
 11
110.943
 21
252.038
  0
LINE
  8
0
 10
110.943
 20
252.038
 11
110.773
 21
252.245
  0
LINE
  8
0
 10
110.773
 20
252.245
 11
110.629
 21
252.471
  0
LINE
  8
0
 10
110.629
 20
252.471
 11
110.515
 21
252.714
  0
LINE
  8
0
 10
110.515
 20
252.714
 11
110.432
 21
252.969
  0
LINE
  8
0
 10
110.432
 20
252.969
 11
110.382
 21
253.232
  0
LINE
  8
0
 10
110.382
 20
253.232
 11
110.365
 21
253.5
  0
LINE
  8
0
 10
110.365
 20
253.5
 11
110.382
 21
253.768
  0
LINE
  8
0
 10
110.382
 20
253.768
 11
110.432
 21
254.031
  0
LINE
  8
0
 10
110.432
 20
254.031
 11
110.515
 21
254.286
  0
LINE
  8
0
 10
110.515
 20
254.286
 11
110.629
 21
254.529
  0
LINE
  8
0
 10
110.629
 20
254.529
 11
110.773
 21
254.755
  0
LINE
  8
0
 10
110.773
 20
254.755
 11
110.943
 21
254.962
  0
LINE
  8
0
 10
110.943
 20
254.962
 11
111.139
 21
255.145
  0
LINE
  8
0
 10
111.139
 20
255.145
 11
111.356
 21
255.303
  0
LINE
  8
0
 10
111.356
 20
255.303
 11
111.591
 21
255.432
  0
LINE
  8
0
 10
111.591
 20
255.432
 11
111.84
 21
255.531
  0
LINE
  8
0
 10
111.84
 20
255.531
 11
112.1
 21
255.597
  0
LINE
  8
0
 10
112.1
 20
255.597
 11
112.366
 21
255.631
  0
LINE
  8
0
 10
112.366
 20
255.631
 11
112.634
 21
255.631
  0
LINE
  8
0
 10
112.634
 20
255.631
 11
112.9
 21
255.597
  0
LINE
  8
0
 10
112.9
 20
255.597
 11
113.16
 21
255.531
  0
LINE
  8
0
 10
113.16
 20
255.531
 11
113.409
 21
255.432
  0
LINE
  8
0
 10
113.409
 20
255.432
 11
113.644
 21
255.303
  0
LINE
  8
0
 10
113.644
 20
255.303
 11
113.861
 21
255.145
  0
LINE
  8
0
 10
113.861
 20
255.145
 11
114.057
 21
254.962
  0
LINE
  8
0
 10
114.057
 20
254.962
 11
114.227
 21
254.755
  0
LINE
  8
0
 10
114.227
 20
254.755
 11
114.371
 21
254.529
  0
LINE
  8
0
 10
114.371
 20
254.529
 11
114.485
 21
254.286
  0
LINE
  8
0
 10
114.485
 20
254.286
 11
114.568
 21
254.031
  0
LINE
  8
0
 10
114.568
 20
254.031
 11
114.618
 21
253.768
  0
LINE
  8
0
 10
114.618
 20
253.768
 11
114.635
 21
253.5
  0
LINE
  8
0
 10
114.635
 20
253.5
 11
114.618
 21
253.232
  0
LINE
  8
0
 10
114.618
 20
253.232
 11
114.568
 21
252.969
  0
LINE
  8
0
 10
114.568
 20
252.969
 11
114.485
 21
252.714
  0
LINE
  8
0
 10
114.485
 20
252.714
 11
114.371
 21
252.471
  0
LINE
  8
0
 10
114.371
 20
252.471
 11
114.227
 21
252.245
  0
LINE
  8
0
 10
114.227
 20
252.245
 11
114.057
 21
252.038
  0
LINE
  8
0
 10
114.057
 20
252.038
 11
113.861
 21
251.855
  0
LINE
  8
0
 10
113.861
 20
251.855
 11
113.644
 21
251.697
  0
LINE
  8
0
 10
113.644
 20
251.697
 11
113.409
 21
251.568
  0
LINE
  8
0
 10
113.409
 20
251.568
 11
113.16
 21
251.469
  0
LINE
  8
0
 10
113.16
 20
251.469
 11
112.9
 21
251.403
  0
LINE
  8
0
 10
112.9
 20
251.403
 11
112.634
 21
251.369
  0
LINE
  8
0
 10
112.634
 20
251.369
 11
112.366
 21
251.369
  0
ENDSEC
  0
SECTION
  2
OBJECTS
  0
DICTIONARY
  0
ENDSEC
  0
EOF
