<?xml version="1.0" standalone="no"?>
<!DOCTYPE svg PUBLIC "-//W3C//DTD SVG 1.1//EN" "http://www.w3.org/Graphics/SVG/1.1/DTD/svg11.dtd">
<svg width="286mm" height="1086mm" viewBox="-143 -1857 286 1086" xmlns="http://www.w3.org/2000/svg" version="1.1">
<title>OpenSCAD Model</title>
<path d="
M 138.437,-1647.09 L 139.045,-1647.24 L 139.629,-1647.48 L 140.179,-1647.78 L 140.687,-1648.15 L 141.145,-1648.58
 L 141.545,-1649.06 L 141.882,-1649.59 L 142.149,-1650.16 L 142.343,-1650.76 L 142.461,-1651.37 L 142.5,-1652
 L 142.5,-1852 L 142.461,-1852.63 L 142.343,-1853.24 L 142.149,-1853.84 L 141.882,-1854.41 L 141.545,-1854.94
 L 141.145,-1855.42 L 140.687,-1855.85 L 140.179,-1856.22 L 139.629,-1856.52 L 139.045,-1856.76 L 138.437,-1856.91
 L 137.814,-1856.99 L -137.814,-1856.99 L -138.437,-1856.91 L -139.045,-1856.76 L -139.629,-1856.52 L -140.179,-1856.22
 L -140.687,-1855.85 L -141.145,-1855.42 L -141.545,-1854.94 L -141.882,-1854.41 L -142.149,-1853.84 L -142.343,-1853.24
 L -142.461,-1852.63 L -142.5,-1852 L -142.5,-1652 L -142.461,-1651.37 L -142.343,-1650.76 L -142.149,-1650.16
 L -141.882,-1649.59 L -141.545,-1649.06 L -141.145,-1648.58 L -140.687,-1648.15 L -140.179,-1647.78 L -139.629,-1647.48
 L -139.045,-1647.24 L -138.437,-1647.09 L -137.814,-1647.01 L 137.814,-1647.01 z
M -137.548,-1647.51 L -138.14,-1647.58 L -138.718,-1647.73 L -139.272,-1647.95 L -139.795,-1648.24 L -140.278,-1648.59
 L -140.713,-1649 L -141.093,-1649.46 L -141.412,-1649.96 L -141.666,-1650.5 L -141.851,-1651.07 L -141.963,-1651.65
 L -142,-1652.25 L -142,-1851.75 L -141.963,-1852.35 L -141.851,-1852.93 L -141.666,-1853.5 L -141.412,-1854.04
 L -141.093,-1854.54 L -140.713,-1855 L -140.278,-1855.41 L -139.795,-1855.76 L -139.272,-1856.05 L -138.718,-1856.27
 L -138.14,-1856.42 L -137.548,-1856.49 L 137.548,-1856.49 L 138.14,-1856.42 L 138.718,-1856.27 L 139.272,-1856.05
 L 139.795,-1855.76 L 140.278,-1855.41 L 140.713,-1855 L 141.093,-1854.54 L 141.412,-1854.04 L 141.666,-1853.5
 L 141.851,-1852.93 L 141.963,-1852.35 L 142,-1851.75 L 142,-1652.25 L 141.963,-1651.65 L 141.851,-1651.07
 L 141.666,-1650.5 L 141.412,-1649.96 L 141.093,-1649.46 L 140.713,-1649 L 140.278,-1648.59 L 139.795,-1648.24
 L 139.272,-1647.95 L 138.718,-1647.73 L 138.14,-1647.58 L 137.548,-1647.51 z
M 138.437,-1428.09 L 139.045,-1428.24 L 139.629,-1428.48 L 140.179,-1428.78 L 140.687,-1429.15 L 141.145,-1429.58
 L 141.545,-1430.06 L 141.882,-1430.59 L 142.149,-1431.16 L 142.343,-1431.76 L 142.461,-1432.37 L 142.5,-1433
 L 142.5,-1633 L 142.461,-1633.63 L 142.343,-1634.24 L 142.149,-1634.84 L 141.882,-1635.41 L 141.545,-1635.94
 L 141.145,-1636.42 L 140.687,-1636.85 L 140.179,-1637.22 L 139.629,-1637.52 L 139.045,-1637.76 L 138.437,-1637.91
 L 137.814,-1637.99 L -137.814,-1637.99 L -138.437,-1637.91 L -139.045,-1637.76 L -139.629,-1637.52 L -140.179,-1637.22
 L -140.687,-1636.85 L -141.145,-1636.42 L -141.545,-1635.94 L -141.882,-1635.41 L -142.149,-1634.84 L -142.343,-1634.24
 L -142.461,-1633.63 L -142.5,-1633 L -142.5,-1433 L -142.461,-1432.37 L -142.343,-1431.76 L -142.149,-1431.16
 L -141.882,-1430.59 L -141.545,-1430.06 L -141.145,-1429.58 L -140.687,-1429.15 L -140.179,-1428.78 L -139.629,-1428.48
 L -139.045,-1428.24 L -138.437,-1428.09 L -137.814,-1428.01 L 137.814,-1428.01 z
M -137.548,-1428.51 L -138.14,-1428.58 L -138.718,-1428.73 L -139.272,-1428.95 L -139.795,-1429.24 L -140.278,-1429.59
 L -140.713,-1430 L -141.093,-1430.46 L -141.412,-1430.96 L -141.666,-1431.5 L -141.851,-1432.07 L -141.963,-1432.65
 L -142,-1433.25 L -142,-1632.75 L -141.963,-1633.35 L -141.851,-1633.93 L -141.666,-1634.5 L -141.412,-1635.04
 L -141.093,-1635.54 L -140.713,-1636 L -140.278,-1636.41 L -139.795,-1636.76 L -139.272,-1637.05 L -138.718,-1637.27
 L -138.14,-1637.42 L -137.548,-1637.49 L 137.548,-1637.49 L 138.14,-1637.42 L 138.718,-1637.27 L 139.272,-1637.05
 L 139.795,-1636.76 L 140.278,-1636.41 L 140.713,-1636 L 141.093,-1635.54 L 141.412,-1635.04 L 141.666,-1634.5
 L 141.851,-1633.93 L 141.963,-1633.35 L 142,-1632.75 L 142,-1433.25 L 141.963,-1432.65 L 141.851,-1432.07
 L 141.666,-1431.5 L 141.412,-1430.96 L 141.093,-1430.46 L 140.713,-1430 L 140.278,-1429.59 L 139.795,-1429.24
 L 139.272,-1428.95 L 138.718,-1428.73 L 138.14,-1428.58 L 137.548,-1428.51 z
M 138.437,-1209.09 L 139.045,-1209.24 L 139.629,-1209.48 L 140.179,-1209.78 L 140.687,-1210.15 L 141.145,-1210.58
 L 141.545,-1211.06 L 141.882,-1211.59 L 142.149,-1212.16 L 142.343,-1212.76 L 142.461,-1213.37 L 142.5,-1214
 L 142.5,-1414 L 142.461,-1414.63 L 142.343,-1415.24 L 142.149,-1415.84 L 141.882,-1416.41 L 141.545,-1416.94
 L 141.145,-1417.42 L 140.687,-1417.85 L 140.179,-1418.22 L 139.629,-1418.52 L 139.045,-1418.76 L 138.437,-1418.91
 L 137.814,-1418.99 L -137.814,-1418.99 L -138.437,-1418.91 L -139.045,-1418.76 L -139.629,-1418.52 L -140.179,-1418.22
 L -140.687,-1417.85 L -141.145,-1417.42 L -141.545,-1416.94 L -141.882,-1416.41 L -142.149,-1415.84 L -142.343,-1415.24
 L -142.461,-1414.63 L -142.5,-1414 L -142.5,-1214 L -142.461,-1213.37 L -142.343,-1212.76 L -142.149,-1212.16
 L -141.882,-1211.59 L -141.545,-1211.06 L -141.145,-1210.58 L -140.687,-1210.15 L -140.179,-1209.78 L -139.629,-1209.48
 L -139.045,-1209.24 L -138.437,-1209.09 L -137.814,-1209.01 L 137.814,-1209.01 z
M -137.548,-1209.51 L -138.14,-1209.58 L -138.718,-1209.73 L -139.272,-1209.95 L -139.795,-1210.24 L -140.278,-1210.59
 L -140.713,-1211 L -141.093,-1211.46 L -141.412,-1211.96 L -141.666,-1212.5 L -141.851,-1213.07 L -141.963,-1213.65
 L -142,-1214.25 L -142,-1413.75 L -141.963,-1414.35 L -141.851,-1414.93 L -141.666,-1415.5 L -141.412,-1416.04
 L -141.093,-1416.54 L -140.713,-1417 L -140.278,-1417.41 L -139.795,-1417.76 L -139.272,-1418.05 L -138.718,-1418.27
 L -138.14,-1418.42 L -137.548,-1418.49 L 137.548,-1418.49 L 138.14,-1418.42 L 138.718,-1418.27 L 139.272,-1418.05
 L 139.795,-1417.76 L 140.278,-1417.41 L 140.713,-1417 L 141.093,-1416.54 L 141.412,-1416.04 L 141.666,-1415.5
 L 141.851,-1414.93 L 141.963,-1414.35 L 142,-1413.75 L 142,-1214.25 L 141.963,-1213.65 L 141.851,-1213.07
 L 141.666,-1212.5 L 141.412,-1211.96 L 141.093,-1211.46 L 140.713,-1211 L 140.278,-1210.59 L 139.795,-1210.24
 L 139.272,-1209.95 L 138.718,-1209.73 L 138.14,-1209.58 L 137.548,-1209.51 z
M 138.437,-990.089 L 139.045,-990.245 L 139.629,-990.476 L 140.179,-990.778 L 140.687,-991.147 L 141.145,-991.577
 L 141.545,-992.061 L 141.882,-992.591 L 142.149,-993.159 L 142.343,-993.757 L 142.461,-994.373 L 142.5,-995
 L 142.5,-1195 L 142.461,-1195.63 L 142.343,-1196.24 L 142.149,-1196.84 L 141.882,-1197.41 L 141.545,-1197.94
 L 141.145,-1198.42 L 140.687,-1198.85 L 140.179,-1199.22 L 139.629,-1199.52 L 139.045,-1199.76 L 138.437,-1199.91
 L 137.814,-1199.99 L -137.814,-1199.99 L -138.437,-1199.91 L -139.045,-1199.76 L -139.629,-1199.52 L -140.179,-1199.22
 L -140.687,-1198.85 L -141.145,-1198.42 L -141.545,-1197.94 L -141.882,-1197.41 L -142.149,-1196.84 L -142.343,-1196.24
 L -142.461,-1195.63 L -142.5,-1195 L -142.5,-995 L -142.461,-994.373 L -142.343,-993.757 L -142.149,-993.159
 L -141.882,-992.591 L -141.545,-992.061 L -141.145,-991.577 L -140.687,-991.147 L -140.179,-990.778 L -139.629,-990.476
 L -139.045,-990.245 L -138.437,-990.089 L -137.814,-990.01 L 137.814,-990.01 z
M -137.493,-991.388 L -137.975,-991.449 L -138.446,-991.57 L -138.898,-991.749 L -139.323,-991.983 L -139.716,-992.269
 L -140.071,-992.601 L -140.38,-992.976 L -140.641,-993.386 L -140.848,-993.826 L -140.998,-994.288 L -141.089,-994.765
 L -141.119,-995.25 L -141.119,-1194.75 L -141.089,-1195.23 L -140.998,-1195.71 L -140.848,-1196.17 L -140.641,-1196.61
 L -140.38,-1197.02 L -140.071,-1197.4 L -139.716,-1197.73 L -139.323,-1198.02 L -138.898,-1198.25 L -138.446,-1198.43
 L -137.975,-1198.55 L -137.493,-1198.61 L 137.493,-1198.61 L 137.975,-1198.55 L 138.446,-1198.43 L 138.898,-1198.25
 L 139.323,-1198.02 L 139.716,-1197.73 L 140.071,-1197.4 L 140.38,-1197.02 L 140.641,-1196.61 L 140.848,-1196.17
 L 140.998,-1195.71 L 141.089,-1195.23 L 141.119,-1194.75 L 141.119,-995.25 L 141.089,-994.765 L 140.998,-994.288
 L 140.848,-993.826 L 140.641,-993.386 L 140.38,-992.976 L 140.071,-992.601 L 139.716,-992.269 L 139.323,-991.983
 L 138.898,-991.749 L 138.446,-991.57 L 137.975,-991.449 L 137.493,-991.388 z
M 138.437,-771.089 L 139.045,-771.245 L 139.629,-771.476 L 140.179,-771.778 L 140.687,-772.147 L 141.145,-772.577
 L 141.545,-773.061 L 141.882,-773.591 L 142.149,-774.159 L 142.343,-774.757 L 142.461,-775.373 L 142.5,-776
 L 142.5,-976 L 142.461,-976.627 L 142.343,-977.243 L 142.149,-977.841 L 141.882,-978.409 L 141.545,-978.939
 L 141.145,-979.423 L 140.687,-979.853 L 140.179,-980.222 L 139.629,-980.524 L 139.045,-980.755 L 138.437,-980.911
 L 137.814,-980.99 L -137.814,-980.99 L -138.437,-980.911 L -139.045,-980.755 L -139.629,-980.524 L -140.179,-980.222
 L -140.687,-979.853 L -141.145,-979.423 L -141.545,-978.939 L -141.882,-978.409 L -142.149,-977.841 L -142.343,-977.243
 L -142.461,-976.627 L -142.5,-976 L -142.5,-776 L -142.461,-775.373 L -142.343,-774.757 L -142.149,-774.159
 L -141.882,-773.591 L -141.545,-773.061 L -141.145,-772.577 L -140.687,-772.147 L -140.179,-771.778 L -139.629,-771.476
 L -139.045,-771.245 L -138.437,-771.089 L -137.814,-771.01 L 137.814,-771.01 z
M 134.887,-971.704 L 134.663,-971.732 L 134.444,-971.788 L 134.234,-971.871 L 134.036,-971.98 L 133.853,-972.113
 L 133.688,-972.268 L 133.544,-972.442 L 133.423,-972.633 L 133.326,-972.837 L 133.257,-973.052 L 133.214,-973.274
 L 133.2,-973.5 L 133.214,-973.726 L 133.257,-973.948 L 133.326,-974.163 L 133.423,-974.367 L 133.544,-974.558
 L 133.688,-974.732 L 133.853,-974.887 L 134.036,-975.02 L 134.234,-975.129 L 134.444,-975.212 L 134.663,-975.268
 L 134.887,-975.296 L 135.113,-975.296 L 135.337,-975.268 L 135.556,-975.212 L 135.766,-975.129 L 135.964,-975.02
 L 136.147,-974.887 L 136.312,-974.732 L 136.456,-974.558 L 136.577,-974.367 L 136.674,-974.163 L 136.743,-973.948
 L 136.786,-973.726 L 136.8,-973.5 L 136.786,-973.274 L 136.743,-973.052 L 136.674,-972.837 L 136.577,-972.633
 L 136.456,-972.442 L 136.312,-972.268 L 136.147,-972.113 L 135.964,-971.98 L 135.766,-971.871 L 135.556,-971.788
 L 135.337,-971.732 L 135.113,-971.704 z
M -135.113,-971.704 L -135.337,-971.732 L -135.556,-971.788 L -135.766,-971.871 L -135.964,-971.98 L -136.147,-972.113
 L -136.312,-972.268 L -136.456,-972.442 L -136.577,-972.633 L -136.674,-972.837 L -136.743,-973.052 L -136.786,-973.274
 L -136.8,-973.5 L -136.786,-973.726 L -136.743,-973.948 L -136.674,-974.163 L -136.577,-974.367 L -136.456,-974.558
 L -136.312,-974.732 L -136.147,-974.887 L -135.964,-975.02 L -135.766,-975.129 L -135.556,-975.212 L -135.337,-975.268
 L -135.113,-975.296 L -134.887,-975.296 L -134.663,-975.268 L -134.444,-975.212 L -134.234,-975.129 L -134.036,-975.02
 L -133.853,-974.887 L -133.688,-974.732 L -133.544,-974.558 L -133.423,-974.367 L -133.326,-974.163 L -133.257,-973.948
 L -133.214,-973.726 L -133.2,-973.5 L -133.214,-973.274 L -133.257,-973.052 L -133.326,-972.837 L -133.423,-972.633
 L -133.544,-972.442 L -133.688,-972.268 L -133.853,-972.113 L -134.036,-971.98 L -134.234,-971.871 L -134.444,-971.788
 L -134.663,-971.732 L -134.887,-971.704 z
M -135.113,-776.704 L -135.337,-776.732 L -135.556,-776.788 L -135.766,-776.871 L -135.964,-776.98 L -136.147,-777.113
 L -136.312,-777.268 L -136.456,-777.442 L -136.577,-777.633 L -136.674,-777.837 L -136.743,-778.052 L -136.786,-778.274
 L -136.8,-778.5 L -136.786,-778.726 L -136.743,-778.948 L -136.674,-779.163 L -136.577,-779.367 L -136.456,-779.558
 L -136.312,-779.732 L -136.147,-779.887 L -135.964,-780.02 L -135.766,-780.129 L -135.556,-780.212 L -135.337,-780.268
 L -135.113,-780.296 L -134.887,-780.296 L -134.663,-780.268 L -134.444,-780.212 L -134.234,-780.129 L -134.036,-780.02
 L -133.853,-779.887 L -133.688,-779.732 L -133.544,-779.558 L -133.423,-779.367 L -133.326,-779.163 L -133.257,-778.948
 L -133.214,-778.726 L -133.2,-778.5 L -133.214,-778.274 L -133.257,-778.052 L -133.326,-777.837 L -133.423,-777.633
 L -133.544,-777.442 L -133.688,-777.268 L -133.853,-777.113 L -134.036,-776.98 L -134.234,-776.871 L -134.444,-776.788
 L -134.663,-776.732 L -134.887,-776.704 z
M 134.887,-776.704 L 134.663,-776.732 L 134.444,-776.788 L 134.234,-776.871 L 134.036,-776.98 L 133.853,-777.113
 L 133.688,-777.268 L 133.544,-777.442 L 133.423,-777.633 L 133.326,-777.837 L 133.257,-778.052 L 133.214,-778.274
 L 133.2,-778.5 L 133.214,-778.726 L 133.257,-778.948 L 133.326,-779.163 L 133.423,-779.367 L 133.544,-779.558
 L 133.688,-779.732 L 133.853,-779.887 L 134.036,-780.02 L 134.234,-780.129 L 134.444,-780.212 L 134.663,-780.268
 L 134.887,-780.296 L 135.113,-780.296 L 135.337,-780.268 L 135.556,-780.212 L 135.766,-780.129 L 135.964,-780.02
 L 136.147,-779.887 L 136.312,-779.732 L 136.456,-779.558 L 136.577,-779.367 L 136.674,-779.163 L 136.743,-778.948
 L 136.786,-778.726 L 136.8,-778.5 L 136.786,-778.274 L 136.743,-778.052 L 136.674,-777.837 L 136.577,-777.633
 L 136.456,-777.442 L 136.312,-777.268 L 136.147,-777.113 L 135.964,-776.98 L 135.766,-776.871 L 135.556,-776.788
 L 135.337,-776.732 L 135.113,-776.704 z
" stroke="black" fill="lightgray" stroke-width="0.5"/>
</svg>
