  0
SECTION
  2
BLOCKS
  0
ENDSEC
  0
SECTION
  2
ENTITIES
  0
LINE
  8
0
 10
-133.5
 20
1127.94
 11
-133.187
 21
1127.65
  0
LINE
  8
0
 10
-133.187
 20
1127.65
 11
-132.679
 21
1127.28
  0
LINE
  8
0
 10
-132.679
 20
1127.28
 11
-132.129
 21
1126.98
  0
LINE
  8
0
 10
-132.129
 20
1126.98
 11
-131.545
 21
1126.74
  0
LINE
  8
0
 10
-131.545
 20
1126.74
 11
-130.937
 21
1126.59
  0
LINE
  8
0
 10
-130.937
 20
1126.59
 11
-130.314
 21
1126.51
  0
LINE
  8
0
 10
-130.314
 20
1126.51
 11
130.314
 21
1126.51
  0
LINE
  8
0
 10
130.314
 20
1126.51
 11
130.937
 21
1126.59
  0
LINE
  8
0
 10
130.937
 20
1126.59
 11
131.545
 21
1126.74
  0
LINE
  8
0
 10
131.545
 20
1126.74
 11
132.129
 21
1126.98
  0
LINE
  8
0
 10
132.129
 20
1126.98
 11
132.679
 21
1127.28
  0
LINE
  8
0
 10
132.679
 20
1127.28
 11
133.187
 21
1127.65
  0
LINE
  8
0
 10
133.187
 20
1127.65
 11
133.645
 21
1128.08
  0
LINE
  8
0
 10
133.645
 20
1128.08
 11
134.045
 21
1128.56
  0
LINE
  8
0
 10
134.045
 20
1128.56
 11
134.382
 21
1129.09
  0
LINE
  8
0
 10
134.382
 20
1129.09
 11
134.649
 21
1129.66
  0
LINE
  8
0
 10
134.649
 20
1129.66
 11
134.843
 21
1130.26
  0
LINE
  8
0
 10
134.843
 20
1130.26
 11
134.961
 21
1130.87
  0
LINE
  8
0
 10
134.961
 20
1130.87
 11
135
 21
1131.5
  0
LINE
  8
0
 10
135
 20
1131.5
 11
135
 21
1316.5
  0
LINE
  8
0
 10
135
 20
1316.5
 11
134.961
 21
1317.13
  0
LINE
  8
0
 10
134.961
 20
1317.13
 11
134.843
 21
1317.74
  0
LINE
  8
0
 10
134.843
 20
1317.74
 11
134.649
 21
1318.34
  0
LINE
  8
0
 10
134.649
 20
1318.34
 11
134.382
 21
1318.91
  0
LINE
  8
0
 10
134.382
 20
1318.91
 11
134.045
 21
1319.44
  0
LINE
  8
0
 10
134.045
 20
1319.44
 11
133.645
 21
1319.92
  0
LINE
  8
0
 10
133.645
 20
1319.92
 11
133.187
 21
1320.35
  0
LINE
  8
0
 10
133.187
 20
1320.35
 11
132.679
 21
1320.72
  0
LINE
  8
0
 10
132.679
 20
1320.72
 11
132.129
 21
1321.02
  0
LINE
  8
0
 10
132.129
 20
1321.02
 11
131.545
 21
1321.26
  0
LINE
  8
0
 10
131.545
 20
1321.26
 11
130.937
 21
1321.41
  0
LINE
  8
0
 10
130.937
 20
1321.41
 11
130.314
 21
1321.49
  0
LINE
  8
0
 10
130.314
 20
1321.49
 11
-130.314
 21
1321.49
  0
LINE
  8
0
 10
-130.314
 20
1321.49
 11
-130.937
 21
1321.41
  0
LINE
  8
0
 10
-130.937
 20
1321.41
 11
-131.545
 21
1321.26
  0
LINE
  8
0
 10
-131.545
 20
1321.26
 11
-132.129
 21
1321.02
  0
LINE
  8
0
 10
-132.129
 20
1321.02
 11
-132.679
 21
1320.72
  0
LINE
  8
0
 10
-132.679
 20
1320.72
 11
-133.187
 21
1320.35
  0
LINE
  8
0
 10
-133.187
 20
1320.35
 11
-133.5
 21
1320.06
  0
LINE
  8
0
 10
-133.5
 20
1320.06
 11
-133.5
 21
1321.49
  0
LINE
  8
0
 10
-133.5
 20
1321.49
 11
-136.5
 21
1321.49
  0
LINE
  8
0
 10
-136.5
 20
1321.49
 11
-136.5
 21
1126.51
  0
LINE
  8
0
 10
-136.5
 20
1126.51
 11
-133.5
 21
1126.51
  0
LINE
  8
0
 10
-133.5
 20
1126.51
 11
-133.5
 21
1127.94
  0
LINE
  8
0
 10
-129.751
 20
1128.01
 11
-130.25
 21
1128.07
  0
LINE
  8
0
 10
-130.25
 20
1128.07
 11
-130.736
 21
1128.2
  0
LINE
  8
0
 10
-130.736
 20
1128.2
 11
-131.203
 21
1128.38
  0
LINE
  8
0
 10
-131.203
 20
1128.38
 11
-131.643
 21
1128.62
  0
LINE
  8
0
 10
-131.643
 20
1128.62
 11
-132.05
 21
1128.92
  0
LINE
  8
0
 10
-132.05
 20
1128.92
 11
-132.416
 21
1129.26
  0
LINE
  8
0
 10
-132.416
 20
1129.26
 11
-132.736
 21
1129.65
  0
LINE
  8
0
 10
-132.736
 20
1129.65
 11
-133.005
 21
1130.07
  0
LINE
  8
0
 10
-133.005
 20
1130.07
 11
-133.219
 21
1130.53
  0
LINE
  8
0
 10
-133.219
 20
1130.53
 11
-133.374
 21
1131.01
  0
LINE
  8
0
 10
-133.374
 20
1131.01
 11
-133.468
 21
1131.5
  0
LINE
  8
0
 10
-133.468
 20
1131.5
 11
-133.5
 21
1132
  0
LINE
  8
0
 10
-133.5
 20
1132
 11
-133.5
 21
1316
  0
LINE
  8
0
 10
-133.5
 20
1316
 11
-133.468
 21
1316.5
  0
LINE
  8
0
 10
-133.468
 20
1316.5
 11
-133.374
 21
1316.99
  0
LINE
  8
0
 10
-133.374
 20
1316.99
 11
-133.219
 21
1317.47
  0
LINE
  8
0
 10
-133.219
 20
1317.47
 11
-133.005
 21
1317.93
  0
LINE
  8
0
 10
-133.005
 20
1317.93
 11
-132.736
 21
1318.35
  0
LINE
  8
0
 10
-132.736
 20
1318.35
 11
-132.416
 21
1318.74
  0
LINE
  8
0
 10
-132.416
 20
1318.74
 11
-132.05
 21
1319.08
  0
LINE
  8
0
 10
-132.05
 20
1319.08
 11
-131.643
 21
1319.38
  0
LINE
  8
0
 10
-131.643
 20
1319.38
 11
-131.203
 21
1319.62
  0
LINE
  8
0
 10
-131.203
 20
1319.62
 11
-130.736
 21
1319.8
  0
LINE
  8
0
 10
-130.736
 20
1319.8
 11
-130.25
 21
1319.93
  0
LINE
  8
0
 10
-130.25
 20
1319.93
 11
-129.751
 21
1319.99
  0
LINE
  8
0
 10
-129.751
 20
1319.99
 11
129.751
 21
1319.99
  0
LINE
  8
0
 10
129.751
 20
1319.99
 11
130.25
 21
1319.93
  0
LINE
  8
0
 10
130.25
 20
1319.93
 11
130.736
 21
1319.8
  0
LINE
  8
0
 10
130.736
 20
1319.8
 11
131.203
 21
1319.62
  0
LINE
  8
0
 10
131.203
 20
1319.62
 11
131.643
 21
1319.38
  0
LINE
  8
0
 10
131.643
 20
1319.38
 11
132.05
 21
1319.08
  0
LINE
  8
0
 10
132.05
 20
1319.08
 11
132.416
 21
1318.74
  0
LINE
  8
0
 10
132.416
 20
1318.74
 11
132.736
 21
1318.35
  0
LINE
  8
0
 10
132.736
 20
1318.35
 11
133.005
 21
1317.93
  0
LINE
  8
0
 10
133.005
 20
1317.93
 11
133.219
 21
1317.47
  0
LINE
  8
0
 10
133.219
 20
1317.47
 11
133.374
 21
1316.99
  0
LINE
  8
0
 10
133.374
 20
1316.99
 11
133.468
 21
1316.5
  0
LINE
  8
0
 10
133.468
 20
1316.5
 11
133.5
 21
1316
  0
LINE
  8
0
 10
133.5
 20
1316
 11
133.5
 21
1132
  0
LINE
  8
0
 10
133.5
 20
1132
 11
133.468
 21
1131.5
  0
LINE
  8
0
 10
133.468
 20
1131.5
 11
133.374
 21
1131.01
  0
LINE
  8
0
 10
133.374
 20
1131.01
 11
133.219
 21
1130.53
  0
LINE
  8
0
 10
133.219
 20
1130.53
 11
133.005
 21
1130.07
  0
LINE
  8
0
 10
133.005
 20
1130.07
 11
132.736
 21
1129.65
  0
LINE
  8
0
 10
132.736
 20
1129.65
 11
132.416
 21
1129.26
  0
LINE
  8
0
 10
132.416
 20
1129.26
 11
132.05
 21
1128.92
  0
LINE
  8
0
 10
132.05
 20
1128.92
 11
131.643
 21
1128.62
  0
LINE
  8
0
 10
131.643
 20
1128.62
 11
131.203
 21
1128.38
  0
LINE
  8
0
 10
131.203
 20
1128.38
 11
130.736
 21
1128.2
  0
LINE
  8
0
 10
130.736
 20
1128.2
 11
130.25
 21
1128.07
  0
LINE
  8
0
 10
130.25
 20
1128.07
 11
129.751
 21
1128.01
  0
LINE
  8
0
 10
129.751
 20
1128.01
 11
-129.751
 21
1128.01
  0
LINE
  8
0
 10
-133.5
 20
923.941
 11
-133.187
 21
923.647
  0
LINE
  8
0
 10
-133.187
 20
923.647
 11
-132.679
 21
923.278
  0
LINE
  8
0
 10
-132.679
 20
923.278
 11
-132.129
 21
922.976
  0
LINE
  8
0
 10
-132.129
 20
922.976
 11
-131.545
 21
922.745
  0
LINE
  8
0
 10
-131.545
 20
922.745
 11
-130.937
 21
922.589
  0
LINE
  8
0
 10
-130.937
 20
922.589
 11
-130.314
 21
922.51
  0
LINE
  8
0
 10
-130.314
 20
922.51
 11
130.314
 21
922.51
  0
LINE
  8
0
 10
130.314
 20
922.51
 11
130.937
 21
922.589
  0
LINE
  8
0
 10
130.937
 20
922.589
 11
131.545
 21
922.745
  0
LINE
  8
0
 10
131.545
 20
922.745
 11
132.129
 21
922.976
  0
LINE
  8
0
 10
132.129
 20
922.976
 11
132.679
 21
923.278
  0
LINE
  8
0
 10
132.679
 20
923.278
 11
133.187
 21
923.647
  0
LINE
  8
0
 10
133.187
 20
923.647
 11
133.645
 21
924.077
  0
LINE
  8
0
 10
133.645
 20
924.077
 11
134.045
 21
924.561
  0
LINE
  8
0
 10
134.045
 20
924.561
 11
134.382
 21
925.091
  0
LINE
  8
0
 10
134.382
 20
925.091
 11
134.649
 21
925.659
  0
LINE
  8
0
 10
134.649
 20
925.659
 11
134.843
 21
926.257
  0
LINE
  8
0
 10
134.843
 20
926.257
 11
134.961
 21
926.873
  0
LINE
  8
0
 10
134.961
 20
926.873
 11
135
 21
927.5
  0
LINE
  8
0
 10
135
 20
927.5
 11
135
 21
1112.5
  0
LINE
  8
0
 10
135
 20
1112.5
 11
134.961
 21
1113.13
  0
LINE
  8
0
 10
134.961
 20
1113.13
 11
134.843
 21
1113.74
  0
LINE
  8
0
 10
134.843
 20
1113.74
 11
134.649
 21
1114.34
  0
LINE
  8
0
 10
134.649
 20
1114.34
 11
134.382
 21
1114.91
  0
LINE
  8
0
 10
134.382
 20
1114.91
 11
134.045
 21
1115.44
  0
LINE
  8
0
 10
134.045
 20
1115.44
 11
133.645
 21
1115.92
  0
LINE
  8
0
 10
133.645
 20
1115.92
 11
133.187
 21
1116.35
  0
LINE
  8
0
 10
133.187
 20
1116.35
 11
132.679
 21
1116.72
  0
LINE
  8
0
 10
132.679
 20
1116.72
 11
132.129
 21
1117.02
  0
LINE
  8
0
 10
132.129
 20
1117.02
 11
131.545
 21
1117.26
  0
LINE
  8
0
 10
131.545
 20
1117.26
 11
130.937
 21
1117.41
  0
LINE
  8
0
 10
130.937
 20
1117.41
 11
130.314
 21
1117.49
  0
LINE
  8
0
 10
130.314
 20
1117.49
 11
-130.314
 21
1117.49
  0
LINE
  8
0
 10
-130.314
 20
1117.49
 11
-130.937
 21
1117.41
  0
LINE
  8
0
 10
-130.937
 20
1117.41
 11
-131.545
 21
1117.26
  0
LINE
  8
0
 10
-131.545
 20
1117.26
 11
-132.129
 21
1117.02
  0
LINE
  8
0
 10
-132.129
 20
1117.02
 11
-132.679
 21
1116.72
  0
LINE
  8
0
 10
-132.679
 20
1116.72
 11
-133.187
 21
1116.35
  0
LINE
  8
0
 10
-133.187
 20
1116.35
 11
-133.5
 21
1116.06
  0
LINE
  8
0
 10
-133.5
 20
1116.06
 11
-133.5
 21
1117.49
  0
LINE
  8
0
 10
-133.5
 20
1117.49
 11
-136.5
 21
1117.49
  0
LINE
  8
0
 10
-136.5
 20
1117.49
 11
-136.5
 21
922.51
  0
LINE
  8
0
 10
-136.5
 20
922.51
 11
-133.5
 21
922.51
  0
LINE
  8
0
 10
-133.5
 20
922.51
 11
-133.5
 21
923.941
  0
LINE
  8
0
 10
-129.743
 20
924.135
 11
-130.226
 21
924.196
  0
LINE
  8
0
 10
-130.226
 20
924.196
 11
-130.697
 21
924.317
  0
LINE
  8
0
 10
-130.697
 20
924.317
 11
-131.149
 21
924.496
  0
LINE
  8
0
 10
-131.149
 20
924.496
 11
-131.575
 21
924.73
  0
LINE
  8
0
 10
-131.575
 20
924.73
 11
-131.969
 21
925.016
  0
LINE
  8
0
 10
-131.969
 20
925.016
 11
-132.323
 21
925.349
  0
LINE
  8
0
 10
-132.323
 20
925.349
 11
-132.633
 21
925.724
  0
LINE
  8
0
 10
-132.633
 20
925.724
 11
-132.894
 21
926.134
  0
LINE
  8
0
 10
-132.894
 20
926.134
 11
-133.101
 21
926.574
  0
LINE
  8
0
 10
-133.101
 20
926.574
 11
-133.251
 21
927.037
  0
LINE
  8
0
 10
-133.251
 20
927.037
 11
-133.342
 21
927.515
  0
LINE
  8
0
 10
-133.342
 20
927.515
 11
-133.373
 21
928
  0
LINE
  8
0
 10
-133.373
 20
928
 11
-133.373
 21
1112
  0
LINE
  8
0
 10
-133.373
 20
1112
 11
-133.342
 21
1112.49
  0
LINE
  8
0
 10
-133.342
 20
1112.49
 11
-133.251
 21
1112.96
  0
LINE
  8
0
 10
-133.251
 20
1112.96
 11
-133.101
 21
1113.43
  0
LINE
  8
0
 10
-133.101
 20
1113.43
 11
-132.894
 21
1113.87
  0
LINE
  8
0
 10
-132.894
 20
1113.87
 11
-132.633
 21
1114.28
  0
LINE
  8
0
 10
-132.633
 20
1114.28
 11
-132.323
 21
1114.65
  0
LINE
  8
0
 10
-132.323
 20
1114.65
 11
-131.969
 21
1114.98
  0
LINE
  8
0
 10
-131.969
 20
1114.98
 11
-131.575
 21
1115.27
  0
LINE
  8
0
 10
-131.575
 20
1115.27
 11
-131.149
 21
1115.5
  0
LINE
  8
0
 10
-131.149
 20
1115.5
 11
-130.697
 21
1115.68
  0
LINE
  8
0
 10
-130.697
 20
1115.68
 11
-130.226
 21
1115.8
  0
LINE
  8
0
 10
-130.226
 20
1115.8
 11
-129.743
 21
1115.86
  0
LINE
  8
0
 10
-129.743
 20
1115.86
 11
129.743
 21
1115.86
  0
LINE
  8
0
 10
129.743
 20
1115.86
 11
130.226
 21
1115.8
  0
LINE
  8
0
 10
130.226
 20
1115.8
 11
130.697
 21
1115.68
  0
LINE
  8
0
 10
130.697
 20
1115.68
 11
131.149
 21
1115.5
  0
LINE
  8
0
 10
131.149
 20
1115.5
 11
131.575
 21
1115.27
  0
LINE
  8
0
 10
131.575
 20
1115.27
 11
131.969
 21
1114.98
  0
LINE
  8
0
 10
131.969
 20
1114.98
 11
132.323
 21
1114.65
  0
LINE
  8
0
 10
132.323
 20
1114.65
 11
132.633
 21
1114.28
  0
LINE
  8
0
 10
132.633
 20
1114.28
 11
132.894
 21
1113.87
  0
LINE
  8
0
 10
132.894
 20
1113.87
 11
133.101
 21
1113.43
  0
LINE
  8
0
 10
133.101
 20
1113.43
 11
133.251
 21
1112.96
  0
LINE
  8
0
 10
133.251
 20
1112.96
 11
133.342
 21
1112.49
  0
LINE
  8
0
 10
133.342
 20
1112.49
 11
133.373
 21
1112
  0
LINE
  8
0
 10
133.373
 20
1112
 11
133.373
 21
928
  0
LINE
  8
0
 10
133.373
 20
928
 11
133.342
 21
927.515
  0
LINE
  8
0
 10
133.342
 20
927.515
 11
133.251
 21
927.037
  0
LINE
  8
0
 10
133.251
 20
927.037
 11
133.101
 21
926.574
  0
LINE
  8
0
 10
133.101
 20
926.574
 11
132.894
 21
926.134
  0
LINE
  8
0
 10
132.894
 20
926.134
 11
132.633
 21
925.724
  0
LINE
  8
0
 10
132.633
 20
925.724
 11
132.323
 21
925.349
  0
LINE
  8
0
 10
132.323
 20
925.349
 11
131.969
 21
925.016
  0
LINE
  8
0
 10
131.969
 20
925.016
 11
131.575
 21
924.73
  0
LINE
  8
0
 10
131.575
 20
924.73
 11
131.149
 21
924.496
  0
LINE
  8
0
 10
131.149
 20
924.496
 11
130.697
 21
924.317
  0
LINE
  8
0
 10
130.697
 20
924.317
 11
130.226
 21
924.196
  0
LINE
  8
0
 10
130.226
 20
924.196
 11
129.743
 21
924.135
  0
LINE
  8
0
 10
129.743
 20
924.135
 11
-129.743
 21
924.135
  0
LINE
  8
0
 10
130.937
 20
718.589
 11
131.545
 21
718.745
  0
LINE
  8
0
 10
131.545
 20
718.745
 11
132.129
 21
718.976
  0
LINE
  8
0
 10
132.129
 20
718.976
 11
132.679
 21
719.278
  0
LINE
  8
0
 10
132.679
 20
719.278
 11
133.187
 21
719.647
  0
LINE
  8
0
 10
133.187
 20
719.647
 11
133.645
 21
720.077
  0
LINE
  8
0
 10
133.645
 20
720.077
 11
134.045
 21
720.561
  0
LINE
  8
0
 10
134.045
 20
720.561
 11
134.382
 21
721.091
  0
LINE
  8
0
 10
134.382
 20
721.091
 11
134.649
 21
721.659
  0
LINE
  8
0
 10
134.649
 20
721.659
 11
134.843
 21
722.257
  0
LINE
  8
0
 10
134.843
 20
722.257
 11
134.961
 21
722.873
  0
LINE
  8
0
 10
134.961
 20
722.873
 11
135
 21
723.5
  0
LINE
  8
0
 10
135
 20
723.5
 11
135
 21
908.5
  0
LINE
  8
0
 10
135
 20
908.5
 11
134.961
 21
909.127
  0
LINE
  8
0
 10
134.961
 20
909.127
 11
134.843
 21
909.743
  0
LINE
  8
0
 10
134.843
 20
909.743
 11
134.649
 21
910.341
  0
LINE
  8
0
 10
134.649
 20
910.341
 11
134.382
 21
910.909
  0
LINE
  8
0
 10
134.382
 20
910.909
 11
134.045
 21
911.439
  0
LINE
  8
0
 10
134.045
 20
911.439
 11
133.645
 21
911.923
  0
LINE
  8
0
 10
133.645
 20
911.923
 11
133.187
 21
912.353
  0
LINE
  8
0
 10
133.187
 20
912.353
 11
132.679
 21
912.722
  0
LINE
  8
0
 10
132.679
 20
912.722
 11
132.129
 21
913.024
  0
LINE
  8
0
 10
132.129
 20
913.024
 11
131.545
 21
913.255
  0
LINE
  8
0
 10
131.545
 20
913.255
 11
130.937
 21
913.411
  0
LINE
  8
0
 10
130.937
 20
913.411
 11
130.314
 21
913.49
  0
LINE
  8
0
 10
130.314
 20
913.49
 11
-130.314
 21
913.49
  0
LINE
  8
0
 10
-130.314
 20
913.49
 11
-130.937
 21
913.411
  0
LINE
  8
0
 10
-130.937
 20
913.411
 11
-131.545
 21
913.255
  0
LINE
  8
0
 10
-131.545
 20
913.255
 11
-132.129
 21
913.024
  0
LINE
  8
0
 10
-132.129
 20
913.024
 11
-132.679
 21
912.722
  0
LINE
  8
0
 10
-132.679
 20
912.722
 11
-133.187
 21
912.353
  0
LINE
  8
0
 10
-133.187
 20
912.353
 11
-133.5
 21
912.059
  0
LINE
  8
0
 10
-133.5
 20
912.059
 11
-133.5
 21
913.115
  0
LINE
  8
0
 10
-133.5
 20
913.115
 11
-136.5
 21
913.115
  0
LINE
  8
0
 10
-136.5
 20
913.115
 11
-136.5
 21
718.885
  0
LINE
  8
0
 10
-136.5
 20
718.885
 11
-133.5
 21
718.885
  0
LINE
  8
0
 10
-133.5
 20
718.885
 11
-133.5
 21
719.941
  0
LINE
  8
0
 10
-133.5
 20
719.941
 11
-133.187
 21
719.647
  0
LINE
  8
0
 10
-133.187
 20
719.647
 11
-132.679
 21
719.278
  0
LINE
  8
0
 10
-132.679
 20
719.278
 11
-132.129
 21
718.976
  0
LINE
  8
0
 10
-132.129
 20
718.976
 11
-131.545
 21
718.745
  0
LINE
  8
0
 10
-131.545
 20
718.745
 11
-130.937
 21
718.589
  0
LINE
  8
0
 10
-130.937
 20
718.589
 11
-130.314
 21
718.51
  0
LINE
  8
0
 10
-130.314
 20
718.51
 11
130.314
 21
718.51
  0
LINE
  8
0
 10
130.314
 20
718.51
 11
130.937
 21
718.589
  0
LINE
  8
0
 10
127.349
 20
903.605
 11
127.05
 21
903.643
  0
LINE
  8
0
 10
127.05
 20
903.643
 11
126.758
 21
903.717
  0
LINE
  8
0
 10
126.758
 20
903.717
 11
126.478
 21
903.828
  0
LINE
  8
0
 10
126.478
 20
903.828
 11
126.214
 21
903.974
  0
LINE
  8
0
 10
126.214
 20
903.974
 11
125.97
 21
904.151
  0
LINE
  8
0
 10
125.97
 20
904.151
 11
125.75
 21
904.357
  0
LINE
  8
0
 10
125.75
 20
904.357
 11
125.558
 21
904.589
  0
LINE
  8
0
 10
125.558
 20
904.589
 11
125.397
 21
904.844
  0
LINE
  8
0
 10
125.397
 20
904.844
 11
125.269
 21
905.117
  0
LINE
  8
0
 10
125.269
 20
905.117
 11
125.175
 21
905.403
  0
LINE
  8
0
 10
125.175
 20
905.403
 11
125.119
 21
905.699
  0
LINE
  8
0
 10
125.119
 20
905.699
 11
125.1
 21
906
  0
LINE
  8
0
 10
125.1
 20
906
 11
125.119
 21
906.301
  0
LINE
  8
0
 10
125.119
 20
906.301
 11
125.175
 21
906.597
  0
LINE
  8
0
 10
125.175
 20
906.597
 11
125.269
 21
906.883
  0
LINE
  8
0
 10
125.269
 20
906.883
 11
125.397
 21
907.156
  0
LINE
  8
0
 10
125.397
 20
907.156
 11
125.558
 21
907.411
  0
LINE
  8
0
 10
125.558
 20
907.411
 11
125.75
 21
907.643
  0
LINE
  8
0
 10
125.75
 20
907.643
 11
125.97
 21
907.849
  0
LINE
  8
0
 10
125.97
 20
907.849
 11
126.214
 21
908.026
  0
LINE
  8
0
 10
126.214
 20
908.026
 11
126.478
 21
908.172
  0
LINE
  8
0
 10
126.478
 20
908.172
 11
126.758
 21
908.283
  0
LINE
  8
0
 10
126.758
 20
908.283
 11
127.05
 21
908.357
  0
LINE
  8
0
 10
127.05
 20
908.357
 11
127.349
 21
908.395
  0
LINE
  8
0
 10
127.349
 20
908.395
 11
127.651
 21
908.395
  0
LINE
  8
0
 10
127.651
 20
908.395
 11
127.95
 21
908.357
  0
LINE
  8
0
 10
127.95
 20
908.357
 11
128.242
 21
908.283
  0
LINE
  8
0
 10
128.242
 20
908.283
 11
128.522
 21
908.172
  0
LINE
  8
0
 10
128.522
 20
908.172
 11
128.786
 21
908.026
  0
LINE
  8
0
 10
128.786
 20
908.026
 11
129.03
 21
907.849
  0
LINE
  8
0
 10
129.03
 20
907.849
 11
129.25
 21
907.643
  0
LINE
  8
0
 10
129.25
 20
907.643
 11
129.442
 21
907.411
  0
LINE
  8
0
 10
129.442
 20
907.411
 11
129.603
 21
907.156
  0
LINE
  8
0
 10
129.603
 20
907.156
 11
129.731
 21
906.883
  0
LINE
  8
0
 10
129.731
 20
906.883
 11
129.825
 21
906.597
  0
LINE
  8
0
 10
129.825
 20
906.597
 11
129.881
 21
906.301
  0
LINE
  8
0
 10
129.881
 20
906.301
 11
129.9
 21
906
  0
LINE
  8
0
 10
129.9
 20
906
 11
129.881
 21
905.699
  0
LINE
  8
0
 10
129.881
 20
905.699
 11
129.825
 21
905.403
  0
LINE
  8
0
 10
129.825
 20
905.403
 11
129.731
 21
905.117
  0
LINE
  8
0
 10
129.731
 20
905.117
 11
129.603
 21
904.844
  0
LINE
  8
0
 10
129.603
 20
904.844
 11
129.442
 21
904.589
  0
LINE
  8
0
 10
129.442
 20
904.589
 11
129.25
 21
904.357
  0
LINE
  8
0
 10
129.25
 20
904.357
 11
129.03
 21
904.151
  0
LINE
  8
0
 10
129.03
 20
904.151
 11
128.786
 21
903.974
  0
LINE
  8
0
 10
128.786
 20
903.974
 11
128.522
 21
903.828
  0
LINE
  8
0
 10
128.522
 20
903.828
 11
128.242
 21
903.717
  0
LINE
  8
0
 10
128.242
 20
903.717
 11
127.95
 21
903.643
  0
LINE
  8
0
 10
127.95
 20
903.643
 11
127.651
 21
903.605
  0
LINE
  8
0
 10
127.651
 20
903.605
 11
127.349
 21
903.605
  0
LINE
  8
0
 10
-127.651
 20
903.605
 11
-127.95
 21
903.643
  0
LINE
  8
0
 10
-127.95
 20
903.643
 11
-128.242
 21
903.717
  0
LINE
  8
0
 10
-128.242
 20
903.717
 11
-128.522
 21
903.828
  0
LINE
  8
0
 10
-128.522
 20
903.828
 11
-128.786
 21
903.974
  0
LINE
  8
0
 10
-128.786
 20
903.974
 11
-129.03
 21
904.151
  0
LINE
  8
0
 10
-129.03
 20
904.151
 11
-129.25
 21
904.357
  0
LINE
  8
0
 10
-129.25
 20
904.357
 11
-129.442
 21
904.589
  0
LINE
  8
0
 10
-129.442
 20
904.589
 11
-129.603
 21
904.844
  0
LINE
  8
0
 10
-129.603
 20
904.844
 11
-129.731
 21
905.117
  0
LINE
  8
0
 10
-129.731
 20
905.117
 11
-129.825
 21
905.403
  0
LINE
  8
0
 10
-129.825
 20
905.403
 11
-129.881
 21
905.699
  0
LINE
  8
0
 10
-129.881
 20
905.699
 11
-129.9
 21
906
  0
LINE
  8
0
 10
-129.9
 20
906
 11
-129.881
 21
906.301
  0
LINE
  8
0
 10
-129.881
 20
906.301
 11
-129.825
 21
906.597
  0
LINE
  8
0
 10
-129.825
 20
906.597
 11
-129.731
 21
906.883
  0
LINE
  8
0
 10
-129.731
 20
906.883
 11
-129.603
 21
907.156
  0
LINE
  8
0
 10
-129.603
 20
907.156
 11
-129.442
 21
907.411
  0
LINE
  8
0
 10
-129.442
 20
907.411
 11
-129.25
 21
907.643
  0
LINE
  8
0
 10
-129.25
 20
907.643
 11
-129.03
 21
907.849
  0
LINE
  8
0
 10
-129.03
 20
907.849
 11
-128.786
 21
908.026
  0
LINE
  8
0
 10
-128.786
 20
908.026
 11
-128.522
 21
908.172
  0
LINE
  8
0
 10
-128.522
 20
908.172
 11
-128.242
 21
908.283
  0
LINE
  8
0
 10
-128.242
 20
908.283
 11
-127.95
 21
908.357
  0
LINE
  8
0
 10
-127.95
 20
908.357
 11
-127.651
 21
908.395
  0
LINE
  8
0
 10
-127.651
 20
908.395
 11
-127.349
 21
908.395
  0
LINE
  8
0
 10
-127.349
 20
908.395
 11
-127.05
 21
908.357
  0
LINE
  8
0
 10
-127.05
 20
908.357
 11
-126.758
 21
908.283
  0
LINE
  8
0
 10
-126.758
 20
908.283
 11
-126.478
 21
908.172
  0
LINE
  8
0
 10
-126.478
 20
908.172
 11
-126.214
 21
908.026
  0
LINE
  8
0
 10
-126.214
 20
908.026
 11
-125.97
 21
907.849
  0
LINE
  8
0
 10
-125.97
 20
907.849
 11
-125.75
 21
907.643
  0
LINE
  8
0
 10
-125.75
 20
907.643
 11
-125.558
 21
907.411
  0
LINE
  8
0
 10
-125.558
 20
907.411
 11
-125.397
 21
907.156
  0
LINE
  8
0
 10
-125.397
 20
907.156
 11
-125.269
 21
906.883
  0
LINE
  8
0
 10
-125.269
 20
906.883
 11
-125.175
 21
906.597
  0
LINE
  8
0
 10
-125.175
 20
906.597
 11
-125.119
 21
906.301
  0
LINE
  8
0
 10
-125.119
 20
906.301
 11
-125.1
 21
906
  0
LINE
  8
0
 10
-125.1
 20
906
 11
-125.119
 21
905.699
  0
LINE
  8
0
 10
-125.119
 20
905.699
 11
-125.175
 21
905.403
  0
LINE
  8
0
 10
-125.175
 20
905.403
 11
-125.269
 21
905.117
  0
LINE
  8
0
 10
-125.269
 20
905.117
 11
-125.397
 21
904.844
  0
LINE
  8
0
 10
-125.397
 20
904.844
 11
-125.558
 21
904.589
  0
LINE
  8
0
 10
-125.558
 20
904.589
 11
-125.75
 21
904.357
  0
LINE
  8
0
 10
-125.75
 20
904.357
 11
-125.97
 21
904.151
  0
LINE
  8
0
 10
-125.97
 20
904.151
 11
-126.214
 21
903.974
  0
LINE
  8
0
 10
-126.214
 20
903.974
 11
-126.478
 21
903.828
  0
LINE
  8
0
 10
-126.478
 20
903.828
 11
-126.758
 21
903.717
  0
LINE
  8
0
 10
-126.758
 20
903.717
 11
-127.05
 21
903.643
  0
LINE
  8
0
 10
-127.05
 20
903.643
 11
-127.349
 21
903.605
  0
LINE
  8
0
 10
-127.349
 20
903.605
 11
-127.651
 21
903.605
  0
LINE
  8
0
 10
-127.651
 20
723.605
 11
-127.95
 21
723.643
  0
LINE
  8
0
 10
-127.95
 20
723.643
 11
-128.242
 21
723.717
  0
LINE
  8
0
 10
-128.242
 20
723.717
 11
-128.522
 21
723.828
  0
LINE
  8
0
 10
-128.522
 20
723.828
 11
-128.786
 21
723.974
  0
LINE
  8
0
 10
-128.786
 20
723.974
 11
-129.03
 21
724.151
  0
LINE
  8
0
 10
-129.03
 20
724.151
 11
-129.25
 21
724.357
  0
LINE
  8
0
 10
-129.25
 20
724.357
 11
-129.442
 21
724.589
  0
LINE
  8
0
 10
-129.442
 20
724.589
 11
-129.603
 21
724.844
  0
LINE
  8
0
 10
-129.603
 20
724.844
 11
-129.731
 21
725.117
  0
LINE
  8
0
 10
-129.731
 20
725.117
 11
-129.825
 21
725.403
  0
LINE
  8
0
 10
-129.825
 20
725.403
 11
-129.881
 21
725.699
  0
LINE
  8
0
 10
-129.881
 20
725.699
 11
-129.9
 21
726
  0
LINE
  8
0
 10
-129.9
 20
726
 11
-129.881
 21
726.301
  0
LINE
  8
0
 10
-129.881
 20
726.301
 11
-129.825
 21
726.597
  0
LINE
  8
0
 10
-129.825
 20
726.597
 11
-129.731
 21
726.883
  0
LINE
  8
0
 10
-129.731
 20
726.883
 11
-129.603
 21
727.156
  0
LINE
  8
0
 10
-129.603
 20
727.156
 11
-129.442
 21
727.411
  0
LINE
  8
0
 10
-129.442
 20
727.411
 11
-129.25
 21
727.643
  0
LINE
  8
0
 10
-129.25
 20
727.643
 11
-129.03
 21
727.849
  0
LINE
  8
0
 10
-129.03
 20
727.849
 11
-128.786
 21
728.026
  0
LINE
  8
0
 10
-128.786
 20
728.026
 11
-128.522
 21
728.172
  0
LINE
  8
0
 10
-128.522
 20
728.172
 11
-128.242
 21
728.283
  0
LINE
  8
0
 10
-128.242
 20
728.283
 11
-127.95
 21
728.357
  0
LINE
  8
0
 10
-127.95
 20
728.357
 11
-127.651
 21
728.395
  0
LINE
  8
0
 10
-127.651
 20
728.395
 11
-127.349
 21
728.395
  0
LINE
  8
0
 10
-127.349
 20
728.395
 11
-127.05
 21
728.357
  0
LINE
  8
0
 10
-127.05
 20
728.357
 11
-126.758
 21
728.283
  0
LINE
  8
0
 10
-126.758
 20
728.283
 11
-126.478
 21
728.172
  0
LINE
  8
0
 10
-126.478
 20
728.172
 11
-126.214
 21
728.026
  0
LINE
  8
0
 10
-126.214
 20
728.026
 11
-125.97
 21
727.849
  0
LINE
  8
0
 10
-125.97
 20
727.849
 11
-125.75
 21
727.643
  0
LINE
  8
0
 10
-125.75
 20
727.643
 11
-125.558
 21
727.411
  0
LINE
  8
0
 10
-125.558
 20
727.411
 11
-125.397
 21
727.156
  0
LINE
  8
0
 10
-125.397
 20
727.156
 11
-125.269
 21
726.883
  0
LINE
  8
0
 10
-125.269
 20
726.883
 11
-125.175
 21
726.597
  0
LINE
  8
0
 10
-125.175
 20
726.597
 11
-125.119
 21
726.301
  0
LINE
  8
0
 10
-125.119
 20
726.301
 11
-125.1
 21
726
  0
LINE
  8
0
 10
-125.1
 20
726
 11
-125.119
 21
725.699
  0
LINE
  8
0
 10
-125.119
 20
725.699
 11
-125.175
 21
725.403
  0
LINE
  8
0
 10
-125.175
 20
725.403
 11
-125.269
 21
725.117
  0
LINE
  8
0
 10
-125.269
 20
725.117
 11
-125.397
 21
724.844
  0
LINE
  8
0
 10
-125.397
 20
724.844
 11
-125.558
 21
724.589
  0
LINE
  8
0
 10
-125.558
 20
724.589
 11
-125.75
 21
724.357
  0
LINE
  8
0
 10
-125.75
 20
724.357
 11
-125.97
 21
724.151
  0
LINE
  8
0
 10
-125.97
 20
724.151
 11
-126.214
 21
723.974
  0
LINE
  8
0
 10
-126.214
 20
723.974
 11
-126.478
 21
723.828
  0
LINE
  8
0
 10
-126.478
 20
723.828
 11
-126.758
 21
723.717
  0
LINE
  8
0
 10
-126.758
 20
723.717
 11
-127.05
 21
723.643
  0
LINE
  8
0
 10
-127.05
 20
723.643
 11
-127.349
 21
723.605
  0
LINE
  8
0
 10
-127.349
 20
723.605
 11
-127.651
 21
723.605
  0
LINE
  8
0
 10
127.349
 20
723.605
 11
127.05
 21
723.643
  0
LINE
  8
0
 10
127.05
 20
723.643
 11
126.758
 21
723.717
  0
LINE
  8
0
 10
126.758
 20
723.717
 11
126.478
 21
723.828
  0
LINE
  8
0
 10
126.478
 20
723.828
 11
126.214
 21
723.974
  0
LINE
  8
0
 10
126.214
 20
723.974
 11
125.97
 21
724.151
  0
LINE
  8
0
 10
125.97
 20
724.151
 11
125.75
 21
724.357
  0
LINE
  8
0
 10
125.75
 20
724.357
 11
125.558
 21
724.589
  0
LINE
  8
0
 10
125.558
 20
724.589
 11
125.397
 21
724.844
  0
LINE
  8
0
 10
125.397
 20
724.844
 11
125.269
 21
725.117
  0
LINE
  8
0
 10
125.269
 20
725.117
 11
125.175
 21
725.403
  0
LINE
  8
0
 10
125.175
 20
725.403
 11
125.119
 21
725.699
  0
LINE
  8
0
 10
125.119
 20
725.699
 11
125.1
 21
726
  0
LINE
  8
0
 10
125.1
 20
726
 11
125.119
 21
726.301
  0
LINE
  8
0
 10
125.119
 20
726.301
 11
125.175
 21
726.597
  0
LINE
  8
0
 10
125.175
 20
726.597
 11
125.269
 21
726.883
  0
LINE
  8
0
 10
125.269
 20
726.883
 11
125.397
 21
727.156
  0
LINE
  8
0
 10
125.397
 20
727.156
 11
125.558
 21
727.411
  0
LINE
  8
0
 10
125.558
 20
727.411
 11
125.75
 21
727.643
  0
LINE
  8
0
 10
125.75
 20
727.643
 11
125.97
 21
727.849
  0
LINE
  8
0
 10
125.97
 20
727.849
 11
126.214
 21
728.026
  0
LINE
  8
0
 10
126.214
 20
728.026
 11
126.478
 21
728.172
  0
LINE
  8
0
 10
126.478
 20
728.172
 11
126.758
 21
728.283
  0
LINE
  8
0
 10
126.758
 20
728.283
 11
127.05
 21
728.357
  0
LINE
  8
0
 10
127.05
 20
728.357
 11
127.349
 21
728.395
  0
LINE
  8
0
 10
127.349
 20
728.395
 11
127.651
 21
728.395
  0
LINE
  8
0
 10
127.651
 20
728.395
 11
127.95
 21
728.357
  0
LINE
  8
0
 10
127.95
 20
728.357
 11
128.242
 21
728.283
  0
LINE
  8
0
 10
128.242
 20
728.283
 11
128.522
 21
728.172
  0
LINE
  8
0
 10
128.522
 20
728.172
 11
128.786
 21
728.026
  0
LINE
  8
0
 10
128.786
 20
728.026
 11
129.03
 21
727.849
  0
LINE
  8
0
 10
129.03
 20
727.849
 11
129.25
 21
727.643
  0
LINE
  8
0
 10
129.25
 20
727.643
 11
129.442
 21
727.411
  0
LINE
  8
0
 10
129.442
 20
727.411
 11
129.603
 21
727.156
  0
LINE
  8
0
 10
129.603
 20
727.156
 11
129.731
 21
726.883
  0
LINE
  8
0
 10
129.731
 20
726.883
 11
129.825
 21
726.597
  0
LINE
  8
0
 10
129.825
 20
726.597
 11
129.881
 21
726.301
  0
LINE
  8
0
 10
129.881
 20
726.301
 11
129.9
 21
726
  0
LINE
  8
0
 10
129.9
 20
726
 11
129.881
 21
725.699
  0
LINE
  8
0
 10
129.881
 20
725.699
 11
129.825
 21
725.403
  0
LINE
  8
0
 10
129.825
 20
725.403
 11
129.731
 21
725.117
  0
LINE
  8
0
 10
129.731
 20
725.117
 11
129.603
 21
724.844
  0
LINE
  8
0
 10
129.603
 20
724.844
 11
129.442
 21
724.589
  0
LINE
  8
0
 10
129.442
 20
724.589
 11
129.25
 21
724.357
  0
LINE
  8
0
 10
129.25
 20
724.357
 11
129.03
 21
724.151
  0
LINE
  8
0
 10
129.03
 20
724.151
 11
128.786
 21
723.974
  0
LINE
  8
0
 10
128.786
 20
723.974
 11
128.522
 21
723.828
  0
LINE
  8
0
 10
128.522
 20
723.828
 11
128.242
 21
723.717
  0
LINE
  8
0
 10
128.242
 20
723.717
 11
127.95
 21
723.643
  0
LINE
  8
0
 10
127.95
 20
723.643
 11
127.651
 21
723.605
  0
LINE
  8
0
 10
127.651
 20
723.605
 11
127.349
 21
723.605
  0
LINE
  8
0
 10
130.937
 20
514.589
 11
131.545
 21
514.745
  0
LINE
  8
0
 10
131.545
 20
514.745
 11
132.129
 21
514.976
  0
LINE
  8
0
 10
132.129
 20
514.976
 11
132.679
 21
515.278
  0
LINE
  8
0
 10
132.679
 20
515.278
 11
133.187
 21
515.647
  0
LINE
  8
0
 10
133.187
 20
515.647
 11
133.645
 21
516.077
  0
LINE
  8
0
 10
133.645
 20
516.077
 11
134.045
 21
516.561
  0
LINE
  8
0
 10
134.045
 20
516.561
 11
134.382
 21
517.091
  0
LINE
  8
0
 10
134.382
 20
517.091
 11
134.649
 21
517.659
  0
LINE
  8
0
 10
134.649
 20
517.659
 11
134.843
 21
518.257
  0
LINE
  8
0
 10
134.843
 20
518.257
 11
134.961
 21
518.873
  0
LINE
  8
0
 10
134.961
 20
518.873
 11
135
 21
519.5
  0
LINE
  8
0
 10
135
 20
519.5
 11
135
 21
704.5
  0
LINE
  8
0
 10
135
 20
704.5
 11
134.961
 21
705.127
  0
LINE
  8
0
 10
134.961
 20
705.127
 11
134.843
 21
705.743
  0
LINE
  8
0
 10
134.843
 20
705.743
 11
134.649
 21
706.341
  0
LINE
  8
0
 10
134.649
 20
706.341
 11
134.382
 21
706.909
  0
LINE
  8
0
 10
134.382
 20
706.909
 11
134.045
 21
707.439
  0
LINE
  8
0
 10
134.045
 20
707.439
 11
133.645
 21
707.923
  0
LINE
  8
0
 10
133.645
 20
707.923
 11
133.187
 21
708.353
  0
LINE
  8
0
 10
133.187
 20
708.353
 11
132.679
 21
708.722
  0
LINE
  8
0
 10
132.679
 20
708.722
 11
132.129
 21
709.024
  0
LINE
  8
0
 10
132.129
 20
709.024
 11
131.545
 21
709.255
  0
LINE
  8
0
 10
131.545
 20
709.255
 11
130.937
 21
709.411
  0
LINE
  8
0
 10
130.937
 20
709.411
 11
130.314
 21
709.49
  0
LINE
  8
0
 10
130.314
 20
709.49
 11
-130.314
 21
709.49
  0
LINE
  8
0
 10
-130.314
 20
709.49
 11
-130.937
 21
709.411
  0
LINE
  8
0
 10
-130.937
 20
709.411
 11
-131.545
 21
709.255
  0
LINE
  8
0
 10
-131.545
 20
709.255
 11
-132.129
 21
709.024
  0
LINE
  8
0
 10
-132.129
 20
709.024
 11
-132.679
 21
708.722
  0
LINE
  8
0
 10
-132.679
 20
708.722
 11
-133.187
 21
708.353
  0
LINE
  8
0
 10
-133.187
 20
708.353
 11
-133.645
 21
707.923
  0
LINE
  8
0
 10
-133.645
 20
707.923
 11
-134.045
 21
707.439
  0
LINE
  8
0
 10
-134.045
 20
707.439
 11
-134.382
 21
706.909
  0
LINE
  8
0
 10
-134.382
 20
706.909
 11
-134.649
 21
706.341
  0
LINE
  8
0
 10
-134.649
 20
706.341
 11
-134.843
 21
705.743
  0
LINE
  8
0
 10
-134.843
 20
705.743
 11
-134.9
 21
705.444
  0
LINE
  8
0
 10
-134.9
 20
705.444
 11
-136.5
 21
705.444
  0
LINE
  8
0
 10
-136.5
 20
705.444
 11
-136.5
 21
518.556
  0
LINE
  8
0
 10
-136.5
 20
518.556
 11
-134.9
 21
518.556
  0
LINE
  8
0
 10
-134.9
 20
518.556
 11
-134.843
 21
518.257
  0
LINE
  8
0
 10
-134.843
 20
518.257
 11
-134.649
 21
517.659
  0
LINE
  8
0
 10
-134.649
 20
517.659
 11
-134.382
 21
517.091
  0
LINE
  8
0
 10
-134.382
 20
517.091
 11
-134.045
 21
516.561
  0
LINE
  8
0
 10
-134.045
 20
516.561
 11
-133.645
 21
516.077
  0
LINE
  8
0
 10
-133.645
 20
516.077
 11
-133.187
 21
515.647
  0
LINE
  8
0
 10
-133.187
 20
515.647
 11
-132.679
 21
515.278
  0
LINE
  8
0
 10
-132.679
 20
515.278
 11
-132.129
 21
514.976
  0
LINE
  8
0
 10
-132.129
 20
514.976
 11
-131.545
 21
514.745
  0
LINE
  8
0
 10
-131.545
 20
514.745
 11
-130.937
 21
514.589
  0
LINE
  8
0
 10
-130.937
 20
514.589
 11
-130.314
 21
514.51
  0
LINE
  8
0
 10
-130.314
 20
514.51
 11
130.314
 21
514.51
  0
LINE
  8
0
 10
130.314
 20
514.51
 11
130.937
 21
514.589
  0
LINE
  8
0
 10
127.387
 20
700.204
 11
127.163
 21
700.232
  0
LINE
  8
0
 10
127.163
 20
700.232
 11
126.944
 21
700.288
  0
LINE
  8
0
 10
126.944
 20
700.288
 11
126.734
 21
700.371
  0
LINE
  8
0
 10
126.734
 20
700.371
 11
126.536
 21
700.48
  0
LINE
  8
0
 10
126.536
 20
700.48
 11
126.353
 21
700.613
  0
LINE
  8
0
 10
126.353
 20
700.613
 11
126.188
 21
700.768
  0
LINE
  8
0
 10
126.188
 20
700.768
 11
126.044
 21
700.942
  0
LINE
  8
0
 10
126.044
 20
700.942
 11
125.923
 21
701.133
  0
LINE
  8
0
 10
125.923
 20
701.133
 11
125.826
 21
701.337
  0
LINE
  8
0
 10
125.826
 20
701.337
 11
125.757
 21
701.552
  0
LINE
  8
0
 10
125.757
 20
701.552
 11
125.714
 21
701.774
  0
LINE
  8
0
 10
125.714
 20
701.774
 11
125.7
 21
702
  0
LINE
  8
0
 10
125.7
 20
702
 11
125.714
 21
702.226
  0
LINE
  8
0
 10
125.714
 20
702.226
 11
125.757
 21
702.448
  0
LINE
  8
0
 10
125.757
 20
702.448
 11
125.826
 21
702.663
  0
LINE
  8
0
 10
125.826
 20
702.663
 11
125.923
 21
702.867
  0
LINE
  8
0
 10
125.923
 20
702.867
 11
126.044
 21
703.058
  0
LINE
  8
0
 10
126.044
 20
703.058
 11
126.188
 21
703.232
  0
LINE
  8
0
 10
126.188
 20
703.232
 11
126.353
 21
703.387
  0
LINE
  8
0
 10
126.353
 20
703.387
 11
126.536
 21
703.52
  0
LINE
  8
0
 10
126.536
 20
703.52
 11
126.734
 21
703.629
  0
LINE
  8
0
 10
126.734
 20
703.629
 11
126.944
 21
703.712
  0
LINE
  8
0
 10
126.944
 20
703.712
 11
127.163
 21
703.768
  0
LINE
  8
0
 10
127.163
 20
703.768
 11
127.387
 21
703.796
  0
LINE
  8
0
 10
127.387
 20
703.796
 11
127.613
 21
703.796
  0
LINE
  8
0
 10
127.613
 20
703.796
 11
127.837
 21
703.768
  0
LINE
  8
0
 10
127.837
 20
703.768
 11
128.056
 21
703.712
  0
LINE
  8
0
 10
128.056
 20
703.712
 11
128.266
 21
703.629
  0
LINE
  8
0
 10
128.266
 20
703.629
 11
128.464
 21
703.52
  0
LINE
  8
0
 10
128.464
 20
703.52
 11
128.647
 21
703.387
  0
LINE
  8
0
 10
128.647
 20
703.387
 11
128.812
 21
703.232
  0
LINE
  8
0
 10
128.812
 20
703.232
 11
128.956
 21
703.058
  0
LINE
  8
0
 10
128.956
 20
703.058
 11
129.077
 21
702.867
  0
LINE
  8
0
 10
129.077
 20
702.867
 11
129.174
 21
702.663
  0
LINE
  8
0
 10
129.174
 20
702.663
 11
129.243
 21
702.448
  0
LINE
  8
0
 10
129.243
 20
702.448
 11
129.286
 21
702.226
  0
LINE
  8
0
 10
129.286
 20
702.226
 11
129.3
 21
702
  0
LINE
  8
0
 10
129.3
 20
702
 11
129.286
 21
701.774
  0
LINE
  8
0
 10
129.286
 20
701.774
 11
129.243
 21
701.552
  0
LINE
  8
0
 10
129.243
 20
701.552
 11
129.174
 21
701.337
  0
LINE
  8
0
 10
129.174
 20
701.337
 11
129.077
 21
701.133
  0
LINE
  8
0
 10
129.077
 20
701.133
 11
128.956
 21
700.942
  0
LINE
  8
0
 10
128.956
 20
700.942
 11
128.812
 21
700.768
  0
LINE
  8
0
 10
128.812
 20
700.768
 11
128.647
 21
700.613
  0
LINE
  8
0
 10
128.647
 20
700.613
 11
128.464
 21
700.48
  0
LINE
  8
0
 10
128.464
 20
700.48
 11
128.266
 21
700.371
  0
LINE
  8
0
 10
128.266
 20
700.371
 11
128.056
 21
700.288
  0
LINE
  8
0
 10
128.056
 20
700.288
 11
127.837
 21
700.232
  0
LINE
  8
0
 10
127.837
 20
700.232
 11
127.613
 21
700.204
  0
LINE
  8
0
 10
127.613
 20
700.204
 11
127.387
 21
700.204
  0
LINE
  8
0
 10
-127.613
 20
700.204
 11
-127.837
 21
700.232
  0
LINE
  8
0
 10
-127.837
 20
700.232
 11
-128.056
 21
700.288
  0
LINE
  8
0
 10
-128.056
 20
700.288
 11
-128.266
 21
700.371
  0
LINE
  8
0
 10
-128.266
 20
700.371
 11
-128.464
 21
700.48
  0
LINE
  8
0
 10
-128.464
 20
700.48
 11
-128.647
 21
700.613
  0
LINE
  8
0
 10
-128.647
 20
700.613
 11
-128.812
 21
700.768
  0
LINE
  8
0
 10
-128.812
 20
700.768
 11
-128.956
 21
700.942
  0
LINE
  8
0
 10
-128.956
 20
700.942
 11
-129.077
 21
701.133
  0
LINE
  8
0
 10
-129.077
 20
701.133
 11
-129.174
 21
701.337
  0
LINE
  8
0
 10
-129.174
 20
701.337
 11
-129.243
 21
701.552
  0
LINE
  8
0
 10
-129.243
 20
701.552
 11
-129.286
 21
701.774
  0
LINE
  8
0
 10
-129.286
 20
701.774
 11
-129.3
 21
702
  0
LINE
  8
0
 10
-129.3
 20
702
 11
-129.286
 21
702.226
  0
LINE
  8
0
 10
-129.286
 20
702.226
 11
-129.243
 21
702.448
  0
LINE
  8
0
 10
-129.243
 20
702.448
 11
-129.174
 21
702.663
  0
LINE
  8
0
 10
-129.174
 20
702.663
 11
-129.077
 21
702.867
  0
LINE
  8
0
 10
-129.077
 20
702.867
 11
-128.956
 21
703.058
  0
LINE
  8
0
 10
-128.956
 20
703.058
 11
-128.812
 21
703.232
  0
LINE
  8
0
 10
-128.812
 20
703.232
 11
-128.647
 21
703.387
  0
LINE
  8
0
 10
-128.647
 20
703.387
 11
-128.464
 21
703.52
  0
LINE
  8
0
 10
-128.464
 20
703.52
 11
-128.266
 21
703.629
  0
LINE
  8
0
 10
-128.266
 20
703.629
 11
-128.056
 21
703.712
  0
LINE
  8
0
 10
-128.056
 20
703.712
 11
-127.837
 21
703.768
  0
LINE
  8
0
 10
-127.837
 20
703.768
 11
-127.613
 21
703.796
  0
LINE
  8
0
 10
-127.613
 20
703.796
 11
-127.387
 21
703.796
  0
LINE
  8
0
 10
-127.387
 20
703.796
 11
-127.163
 21
703.768
  0
LINE
  8
0
 10
-127.163
 20
703.768
 11
-126.944
 21
703.712
  0
LINE
  8
0
 10
-126.944
 20
703.712
 11
-126.734
 21
703.629
  0
LINE
  8
0
 10
-126.734
 20
703.629
 11
-126.536
 21
703.52
  0
LINE
  8
0
 10
-126.536
 20
703.52
 11
-126.353
 21
703.387
  0
LINE
  8
0
 10
-126.353
 20
703.387
 11
-126.188
 21
703.232
  0
LINE
  8
0
 10
-126.188
 20
703.232
 11
-126.044
 21
703.058
  0
LINE
  8
0
 10
-126.044
 20
703.058
 11
-125.923
 21
702.867
  0
LINE
  8
0
 10
-125.923
 20
702.867
 11
-125.826
 21
702.663
  0
LINE
  8
0
 10
-125.826
 20
702.663
 11
-125.757
 21
702.448
  0
LINE
  8
0
 10
-125.757
 20
702.448
 11
-125.714
 21
702.226
  0
LINE
  8
0
 10
-125.714
 20
702.226
 11
-125.7
 21
702
  0
LINE
  8
0
 10
-125.7
 20
702
 11
-125.714
 21
701.774
  0
LINE
  8
0
 10
-125.714
 20
701.774
 11
-125.757
 21
701.552
  0
LINE
  8
0
 10
-125.757
 20
701.552
 11
-125.826
 21
701.337
  0
LINE
  8
0
 10
-125.826
 20
701.337
 11
-125.923
 21
701.133
  0
LINE
  8
0
 10
-125.923
 20
701.133
 11
-126.044
 21
700.942
  0
LINE
  8
0
 10
-126.044
 20
700.942
 11
-126.188
 21
700.768
  0
LINE
  8
0
 10
-126.188
 20
700.768
 11
-126.353
 21
700.613
  0
LINE
  8
0
 10
-126.353
 20
700.613
 11
-126.536
 21
700.48
  0
LINE
  8
0
 10
-126.536
 20
700.48
 11
-126.734
 21
700.371
  0
LINE
  8
0
 10
-126.734
 20
700.371
 11
-126.944
 21
700.288
  0
LINE
  8
0
 10
-126.944
 20
700.288
 11
-127.163
 21
700.232
  0
LINE
  8
0
 10
-127.163
 20
700.232
 11
-127.387
 21
700.204
  0
LINE
  8
0
 10
-127.387
 20
700.204
 11
-127.613
 21
700.204
  0
LINE
  8
0
 10
-127.613
 20
520.204
 11
-127.837
 21
520.232
  0
LINE
  8
0
 10
-127.837
 20
520.232
 11
-128.056
 21
520.288
  0
LINE
  8
0
 10
-128.056
 20
520.288
 11
-128.266
 21
520.371
  0
LINE
  8
0
 10
-128.266
 20
520.371
 11
-128.464
 21
520.48
  0
LINE
  8
0
 10
-128.464
 20
520.48
 11
-128.647
 21
520.613
  0
LINE
  8
0
 10
-128.647
 20
520.613
 11
-128.812
 21
520.768
  0
LINE
  8
0
 10
-128.812
 20
520.768
 11
-128.956
 21
520.942
  0
LINE
  8
0
 10
-128.956
 20
520.942
 11
-129.077
 21
521.133
  0
LINE
  8
0
 10
-129.077
 20
521.133
 11
-129.174
 21
521.337
  0
LINE
  8
0
 10
-129.174
 20
521.337
 11
-129.243
 21
521.552
  0
LINE
  8
0
 10
-129.243
 20
521.552
 11
-129.286
 21
521.774
  0
LINE
  8
0
 10
-129.286
 20
521.774
 11
-129.3
 21
522
  0
LINE
  8
0
 10
-129.3
 20
522
 11
-129.286
 21
522.226
  0
LINE
  8
0
 10
-129.286
 20
522.226
 11
-129.243
 21
522.448
  0
LINE
  8
0
 10
-129.243
 20
522.448
 11
-129.174
 21
522.663
  0
LINE
  8
0
 10
-129.174
 20
522.663
 11
-129.077
 21
522.867
  0
LINE
  8
0
 10
-129.077
 20
522.867
 11
-128.956
 21
523.058
  0
LINE
  8
0
 10
-128.956
 20
523.058
 11
-128.812
 21
523.232
  0
LINE
  8
0
 10
-128.812
 20
523.232
 11
-128.647
 21
523.387
  0
LINE
  8
0
 10
-128.647
 20
523.387
 11
-128.464
 21
523.52
  0
LINE
  8
0
 10
-128.464
 20
523.52
 11
-128.266
 21
523.629
  0
LINE
  8
0
 10
-128.266
 20
523.629
 11
-128.056
 21
523.712
  0
LINE
  8
0
 10
-128.056
 20
523.712
 11
-127.837
 21
523.768
  0
LINE
  8
0
 10
-127.837
 20
523.768
 11
-127.613
 21
523.796
  0
LINE
  8
0
 10
-127.613
 20
523.796
 11
-127.387
 21
523.796
  0
LINE
  8
0
 10
-127.387
 20
523.796
 11
-127.163
 21
523.768
  0
LINE
  8
0
 10
-127.163
 20
523.768
 11
-126.944
 21
523.712
  0
LINE
  8
0
 10
-126.944
 20
523.712
 11
-126.734
 21
523.629
  0
LINE
  8
0
 10
-126.734
 20
523.629
 11
-126.536
 21
523.52
  0
LINE
  8
0
 10
-126.536
 20
523.52
 11
-126.353
 21
523.387
  0
LINE
  8
0
 10
-126.353
 20
523.387
 11
-126.188
 21
523.232
  0
LINE
  8
0
 10
-126.188
 20
523.232
 11
-126.044
 21
523.058
  0
LINE
  8
0
 10
-126.044
 20
523.058
 11
-125.923
 21
522.867
  0
LINE
  8
0
 10
-125.923
 20
522.867
 11
-125.826
 21
522.663
  0
LINE
  8
0
 10
-125.826
 20
522.663
 11
-125.757
 21
522.448
  0
LINE
  8
0
 10
-125.757
 20
522.448
 11
-125.714
 21
522.226
  0
LINE
  8
0
 10
-125.714
 20
522.226
 11
-125.7
 21
522
  0
LINE
  8
0
 10
-125.7
 20
522
 11
-125.714
 21
521.774
  0
LINE
  8
0
 10
-125.714
 20
521.774
 11
-125.757
 21
521.552
  0
LINE
  8
0
 10
-125.757
 20
521.552
 11
-125.826
 21
521.337
  0
LINE
  8
0
 10
-125.826
 20
521.337
 11
-125.923
 21
521.133
  0
LINE
  8
0
 10
-125.923
 20
521.133
 11
-126.044
 21
520.942
  0
LINE
  8
0
 10
-126.044
 20
520.942
 11
-126.188
 21
520.768
  0
LINE
  8
0
 10
-126.188
 20
520.768
 11
-126.353
 21
520.613
  0
LINE
  8
0
 10
-126.353
 20
520.613
 11
-126.536
 21
520.48
  0
LINE
  8
0
 10
-126.536
 20
520.48
 11
-126.734
 21
520.371
  0
LINE
  8
0
 10
-126.734
 20
520.371
 11
-126.944
 21
520.288
  0
LINE
  8
0
 10
-126.944
 20
520.288
 11
-127.163
 21
520.232
  0
LINE
  8
0
 10
-127.163
 20
520.232
 11
-127.387
 21
520.204
  0
LINE
  8
0
 10
-127.387
 20
520.204
 11
-127.613
 21
520.204
  0
LINE
  8
0
 10
127.387
 20
520.204
 11
127.163
 21
520.232
  0
LINE
  8
0
 10
127.163
 20
520.232
 11
126.944
 21
520.288
  0
LINE
  8
0
 10
126.944
 20
520.288
 11
126.734
 21
520.371
  0
LINE
  8
0
 10
126.734
 20
520.371
 11
126.536
 21
520.48
  0
LINE
  8
0
 10
126.536
 20
520.48
 11
126.353
 21
520.613
  0
LINE
  8
0
 10
126.353
 20
520.613
 11
126.188
 21
520.768
  0
LINE
  8
0
 10
126.188
 20
520.768
 11
126.044
 21
520.942
  0
LINE
  8
0
 10
126.044
 20
520.942
 11
125.923
 21
521.133
  0
LINE
  8
0
 10
125.923
 20
521.133
 11
125.826
 21
521.337
  0
LINE
  8
0
 10
125.826
 20
521.337
 11
125.757
 21
521.552
  0
LINE
  8
0
 10
125.757
 20
521.552
 11
125.714
 21
521.774
  0
LINE
  8
0
 10
125.714
 20
521.774
 11
125.7
 21
522
  0
LINE
  8
0
 10
125.7
 20
522
 11
125.714
 21
522.226
  0
LINE
  8
0
 10
125.714
 20
522.226
 11
125.757
 21
522.448
  0
LINE
  8
0
 10
125.757
 20
522.448
 11
125.826
 21
522.663
  0
LINE
  8
0
 10
125.826
 20
522.663
 11
125.923
 21
522.867
  0
LINE
  8
0
 10
125.923
 20
522.867
 11
126.044
 21
523.058
  0
LINE
  8
0
 10
126.044
 20
523.058
 11
126.188
 21
523.232
  0
LINE
  8
0
 10
126.188
 20
523.232
 11
126.353
 21
523.387
  0
LINE
  8
0
 10
126.353
 20
523.387
 11
126.536
 21
523.52
  0
LINE
  8
0
 10
126.536
 20
523.52
 11
126.734
 21
523.629
  0
LINE
  8
0
 10
126.734
 20
523.629
 11
126.944
 21
523.712
  0
LINE
  8
0
 10
126.944
 20
523.712
 11
127.163
 21
523.768
  0
LINE
  8
0
 10
127.163
 20
523.768
 11
127.387
 21
523.796
  0
LINE
  8
0
 10
127.387
 20
523.796
 11
127.613
 21
523.796
  0
LINE
  8
0
 10
127.613
 20
523.796
 11
127.837
 21
523.768
  0
LINE
  8
0
 10
127.837
 20
523.768
 11
128.056
 21
523.712
  0
LINE
  8
0
 10
128.056
 20
523.712
 11
128.266
 21
523.629
  0
LINE
  8
0
 10
128.266
 20
523.629
 11
128.464
 21
523.52
  0
LINE
  8
0
 10
128.464
 20
523.52
 11
128.647
 21
523.387
  0
LINE
  8
0
 10
128.647
 20
523.387
 11
128.812
 21
523.232
  0
LINE
  8
0
 10
128.812
 20
523.232
 11
128.956
 21
523.058
  0
LINE
  8
0
 10
128.956
 20
523.058
 11
129.077
 21
522.867
  0
LINE
  8
0
 10
129.077
 20
522.867
 11
129.174
 21
522.663
  0
LINE
  8
0
 10
129.174
 20
522.663
 11
129.243
 21
522.448
  0
LINE
  8
0
 10
129.243
 20
522.448
 11
129.286
 21
522.226
  0
LINE
  8
0
 10
129.286
 20
522.226
 11
129.3
 21
522
  0
LINE
  8
0
 10
129.3
 20
522
 11
129.286
 21
521.774
  0
LINE
  8
0
 10
129.286
 20
521.774
 11
129.243
 21
521.552
  0
LINE
  8
0
 10
129.243
 20
521.552
 11
129.174
 21
521.337
  0
LINE
  8
0
 10
129.174
 20
521.337
 11
129.077
 21
521.133
  0
LINE
  8
0
 10
129.077
 20
521.133
 11
128.956
 21
520.942
  0
LINE
  8
0
 10
128.956
 20
520.942
 11
128.812
 21
520.768
  0
LINE
  8
0
 10
128.812
 20
520.768
 11
128.647
 21
520.613
  0
LINE
  8
0
 10
128.647
 20
520.613
 11
128.464
 21
520.48
  0
LINE
  8
0
 10
128.464
 20
520.48
 11
128.266
 21
520.371
  0
LINE
  8
0
 10
128.266
 20
520.371
 11
128.056
 21
520.288
  0
LINE
  8
0
 10
128.056
 20
520.288
 11
127.837
 21
520.232
  0
LINE
  8
0
 10
127.837
 20
520.232
 11
127.613
 21
520.204
  0
LINE
  8
0
 10
127.613
 20
520.204
 11
127.387
 21
520.204
  0
ENDSEC
  0
SECTION
  2
OBJECTS
  0
DICTIONARY
  0
ENDSEC
  0
EOF
