  0
SECTION
  2
BLOCKS
  0
ENDSEC
  0
SECTION
  2
ENTITIES
  0
LINE
  8
0
 10
130.937
 20
198.089
 11
131.545
 21
198.245
  0
LINE
  8
0
 10
131.545
 20
198.245
 11
132.129
 21
198.476
  0
LINE
  8
0
 10
132.129
 20
198.476
 11
132.679
 21
198.778
  0
LINE
  8
0
 10
132.679
 20
198.778
 11
133.187
 21
199.147
  0
LINE
  8
0
 10
133.187
 20
199.147
 11
133.645
 21
199.577
  0
LINE
  8
0
 10
133.645
 20
199.577
 11
134.045
 21
200.061
  0
LINE
  8
0
 10
134.045
 20
200.061
 11
134.382
 21
200.591
  0
LINE
  8
0
 10
134.382
 20
200.591
 11
134.649
 21
201.159
  0
LINE
  8
0
 10
134.649
 20
201.159
 11
134.843
 21
201.757
  0
LINE
  8
0
 10
134.843
 20
201.757
 11
134.961
 21
202.373
  0
LINE
  8
0
 10
134.961
 20
202.373
 11
135
 21
203
  0
LINE
  8
0
 10
135
 20
203
 11
135
 21
313
  0
LINE
  8
0
 10
135
 20
313
 11
134.961
 21
313.627
  0
LINE
  8
0
 10
134.961
 20
313.627
 11
134.843
 21
314.243
  0
LINE
  8
0
 10
134.843
 20
314.243
 11
134.649
 21
314.841
  0
LINE
  8
0
 10
134.649
 20
314.841
 11
134.382
 21
315.409
  0
LINE
  8
0
 10
134.382
 20
315.409
 11
134.045
 21
315.939
  0
LINE
  8
0
 10
134.045
 20
315.939
 11
133.645
 21
316.423
  0
LINE
  8
0
 10
133.645
 20
316.423
 11
133.187
 21
316.853
  0
LINE
  8
0
 10
133.187
 20
316.853
 11
132.679
 21
317.222
  0
LINE
  8
0
 10
132.679
 20
317.222
 11
132.129
 21
317.524
  0
LINE
  8
0
 10
132.129
 20
317.524
 11
131.545
 21
317.755
  0
LINE
  8
0
 10
131.545
 20
317.755
 11
130.937
 21
317.911
  0
LINE
  8
0
 10
130.937
 20
317.911
 11
130.314
 21
317.99
  0
LINE
  8
0
 10
130.314
 20
317.99
 11
-130.314
 21
317.99
  0
LINE
  8
0
 10
-130.314
 20
317.99
 11
-130.937
 21
317.911
  0
LINE
  8
0
 10
-130.937
 20
317.911
 11
-131.545
 21
317.755
  0
LINE
  8
0
 10
-131.545
 20
317.755
 11
-132.129
 21
317.524
  0
LINE
  8
0
 10
-132.129
 20
317.524
 11
-132.679
 21
317.222
  0
LINE
  8
0
 10
-132.679
 20
317.222
 11
-133.187
 21
316.853
  0
LINE
  8
0
 10
-133.187
 20
316.853
 11
-133.5
 21
316.559
  0
LINE
  8
0
 10
-133.5
 20
316.559
 11
-133.5
 21
317.615
  0
LINE
  8
0
 10
-133.5
 20
317.615
 11
-136.5
 21
317.615
  0
LINE
  8
0
 10
-136.5
 20
317.615
 11
-136.5
 21
198.385
  0
LINE
  8
0
 10
-136.5
 20
198.385
 11
-133.5
 21
198.385
  0
LINE
  8
0
 10
-133.5
 20
198.385
 11
-133.5
 21
199.441
  0
LINE
  8
0
 10
-133.5
 20
199.441
 11
-133.187
 21
199.147
  0
LINE
  8
0
 10
-133.187
 20
199.147
 11
-132.679
 21
198.778
  0
LINE
  8
0
 10
-132.679
 20
198.778
 11
-132.129
 21
198.476
  0
LINE
  8
0
 10
-132.129
 20
198.476
 11
-131.545
 21
198.245
  0
LINE
  8
0
 10
-131.545
 20
198.245
 11
-130.937
 21
198.089
  0
LINE
  8
0
 10
-130.937
 20
198.089
 11
-130.314
 21
198.01
  0
LINE
  8
0
 10
-130.314
 20
198.01
 11
130.314
 21
198.01
  0
LINE
  8
0
 10
130.314
 20
198.01
 11
130.937
 21
198.089
  0
LINE
  8
0
 10
127.349
 20
308.105
 11
127.05
 21
308.143
  0
LINE
  8
0
 10
127.05
 20
308.143
 11
126.758
 21
308.217
  0
LINE
  8
0
 10
126.758
 20
308.217
 11
126.478
 21
308.328
  0
LINE
  8
0
 10
126.478
 20
308.328
 11
126.214
 21
308.474
  0
LINE
  8
0
 10
126.214
 20
308.474
 11
125.97
 21
308.651
  0
LINE
  8
0
 10
125.97
 20
308.651
 11
125.75
 21
308.857
  0
LINE
  8
0
 10
125.75
 20
308.857
 11
125.558
 21
309.089
  0
LINE
  8
0
 10
125.558
 20
309.089
 11
125.397
 21
309.344
  0
LINE
  8
0
 10
125.397
 20
309.344
 11
125.269
 21
309.617
  0
LINE
  8
0
 10
125.269
 20
309.617
 11
125.175
 21
309.903
  0
LINE
  8
0
 10
125.175
 20
309.903
 11
125.119
 21
310.199
  0
LINE
  8
0
 10
125.119
 20
310.199
 11
125.1
 21
310.5
  0
LINE
  8
0
 10
125.1
 20
310.5
 11
125.119
 21
310.801
  0
LINE
  8
0
 10
125.119
 20
310.801
 11
125.175
 21
311.097
  0
LINE
  8
0
 10
125.175
 20
311.097
 11
125.269
 21
311.383
  0
LINE
  8
0
 10
125.269
 20
311.383
 11
125.397
 21
311.656
  0
LINE
  8
0
 10
125.397
 20
311.656
 11
125.558
 21
311.911
  0
LINE
  8
0
 10
125.558
 20
311.911
 11
125.75
 21
312.143
  0
LINE
  8
0
 10
125.75
 20
312.143
 11
125.97
 21
312.349
  0
LINE
  8
0
 10
125.97
 20
312.349
 11
126.214
 21
312.526
  0
LINE
  8
0
 10
126.214
 20
312.526
 11
126.478
 21
312.672
  0
LINE
  8
0
 10
126.478
 20
312.672
 11
126.758
 21
312.783
  0
LINE
  8
0
 10
126.758
 20
312.783
 11
127.05
 21
312.857
  0
LINE
  8
0
 10
127.05
 20
312.857
 11
127.349
 21
312.895
  0
LINE
  8
0
 10
127.349
 20
312.895
 11
127.651
 21
312.895
  0
LINE
  8
0
 10
127.651
 20
312.895
 11
127.95
 21
312.857
  0
LINE
  8
0
 10
127.95
 20
312.857
 11
128.242
 21
312.783
  0
LINE
  8
0
 10
128.242
 20
312.783
 11
128.522
 21
312.672
  0
LINE
  8
0
 10
128.522
 20
312.672
 11
128.786
 21
312.526
  0
LINE
  8
0
 10
128.786
 20
312.526
 11
129.03
 21
312.349
  0
LINE
  8
0
 10
129.03
 20
312.349
 11
129.25
 21
312.143
  0
LINE
  8
0
 10
129.25
 20
312.143
 11
129.442
 21
311.911
  0
LINE
  8
0
 10
129.442
 20
311.911
 11
129.603
 21
311.656
  0
LINE
  8
0
 10
129.603
 20
311.656
 11
129.731
 21
311.383
  0
LINE
  8
0
 10
129.731
 20
311.383
 11
129.825
 21
311.097
  0
LINE
  8
0
 10
129.825
 20
311.097
 11
129.881
 21
310.801
  0
LINE
  8
0
 10
129.881
 20
310.801
 11
129.9
 21
310.5
  0
LINE
  8
0
 10
129.9
 20
310.5
 11
129.881
 21
310.199
  0
LINE
  8
0
 10
129.881
 20
310.199
 11
129.825
 21
309.903
  0
LINE
  8
0
 10
129.825
 20
309.903
 11
129.731
 21
309.617
  0
LINE
  8
0
 10
129.731
 20
309.617
 11
129.603
 21
309.344
  0
LINE
  8
0
 10
129.603
 20
309.344
 11
129.442
 21
309.089
  0
LINE
  8
0
 10
129.442
 20
309.089
 11
129.25
 21
308.857
  0
LINE
  8
0
 10
129.25
 20
308.857
 11
129.03
 21
308.651
  0
LINE
  8
0
 10
129.03
 20
308.651
 11
128.786
 21
308.474
  0
LINE
  8
0
 10
128.786
 20
308.474
 11
128.522
 21
308.328
  0
LINE
  8
0
 10
128.522
 20
308.328
 11
128.242
 21
308.217
  0
LINE
  8
0
 10
128.242
 20
308.217
 11
127.95
 21
308.143
  0
LINE
  8
0
 10
127.95
 20
308.143
 11
127.651
 21
308.105
  0
LINE
  8
0
 10
127.651
 20
308.105
 11
127.349
 21
308.105
  0
LINE
  8
0
 10
-127.651
 20
308.105
 11
-127.95
 21
308.143
  0
LINE
  8
0
 10
-127.95
 20
308.143
 11
-128.242
 21
308.217
  0
LINE
  8
0
 10
-128.242
 20
308.217
 11
-128.522
 21
308.328
  0
LINE
  8
0
 10
-128.522
 20
308.328
 11
-128.786
 21
308.474
  0
LINE
  8
0
 10
-128.786
 20
308.474
 11
-129.03
 21
308.651
  0
LINE
  8
0
 10
-129.03
 20
308.651
 11
-129.25
 21
308.857
  0
LINE
  8
0
 10
-129.25
 20
308.857
 11
-129.442
 21
309.089
  0
LINE
  8
0
 10
-129.442
 20
309.089
 11
-129.603
 21
309.344
  0
LINE
  8
0
 10
-129.603
 20
309.344
 11
-129.731
 21
309.617
  0
LINE
  8
0
 10
-129.731
 20
309.617
 11
-129.825
 21
309.903
  0
LINE
  8
0
 10
-129.825
 20
309.903
 11
-129.881
 21
310.199
  0
LINE
  8
0
 10
-129.881
 20
310.199
 11
-129.9
 21
310.5
  0
LINE
  8
0
 10
-129.9
 20
310.5
 11
-129.881
 21
310.801
  0
LINE
  8
0
 10
-129.881
 20
310.801
 11
-129.825
 21
311.097
  0
LINE
  8
0
 10
-129.825
 20
311.097
 11
-129.731
 21
311.383
  0
LINE
  8
0
 10
-129.731
 20
311.383
 11
-129.603
 21
311.656
  0
LINE
  8
0
 10
-129.603
 20
311.656
 11
-129.442
 21
311.911
  0
LINE
  8
0
 10
-129.442
 20
311.911
 11
-129.25
 21
312.143
  0
LINE
  8
0
 10
-129.25
 20
312.143
 11
-129.03
 21
312.349
  0
LINE
  8
0
 10
-129.03
 20
312.349
 11
-128.786
 21
312.526
  0
LINE
  8
0
 10
-128.786
 20
312.526
 11
-128.522
 21
312.672
  0
LINE
  8
0
 10
-128.522
 20
312.672
 11
-128.242
 21
312.783
  0
LINE
  8
0
 10
-128.242
 20
312.783
 11
-127.95
 21
312.857
  0
LINE
  8
0
 10
-127.95
 20
312.857
 11
-127.651
 21
312.895
  0
LINE
  8
0
 10
-127.651
 20
312.895
 11
-127.349
 21
312.895
  0
LINE
  8
0
 10
-127.349
 20
312.895
 11
-127.05
 21
312.857
  0
LINE
  8
0
 10
-127.05
 20
312.857
 11
-126.758
 21
312.783
  0
LINE
  8
0
 10
-126.758
 20
312.783
 11
-126.478
 21
312.672
  0
LINE
  8
0
 10
-126.478
 20
312.672
 11
-126.214
 21
312.526
  0
LINE
  8
0
 10
-126.214
 20
312.526
 11
-125.97
 21
312.349
  0
LINE
  8
0
 10
-125.97
 20
312.349
 11
-125.75
 21
312.143
  0
LINE
  8
0
 10
-125.75
 20
312.143
 11
-125.558
 21
311.911
  0
LINE
  8
0
 10
-125.558
 20
311.911
 11
-125.397
 21
311.656
  0
LINE
  8
0
 10
-125.397
 20
311.656
 11
-125.269
 21
311.383
  0
LINE
  8
0
 10
-125.269
 20
311.383
 11
-125.175
 21
311.097
  0
LINE
  8
0
 10
-125.175
 20
311.097
 11
-125.119
 21
310.801
  0
LINE
  8
0
 10
-125.119
 20
310.801
 11
-125.1
 21
310.5
  0
LINE
  8
0
 10
-125.1
 20
310.5
 11
-125.119
 21
310.199
  0
LINE
  8
0
 10
-125.119
 20
310.199
 11
-125.175
 21
309.903
  0
LINE
  8
0
 10
-125.175
 20
309.903
 11
-125.269
 21
309.617
  0
LINE
  8
0
 10
-125.269
 20
309.617
 11
-125.397
 21
309.344
  0
LINE
  8
0
 10
-125.397
 20
309.344
 11
-125.558
 21
309.089
  0
LINE
  8
0
 10
-125.558
 20
309.089
 11
-125.75
 21
308.857
  0
LINE
  8
0
 10
-125.75
 20
308.857
 11
-125.97
 21
308.651
  0
LINE
  8
0
 10
-125.97
 20
308.651
 11
-126.214
 21
308.474
  0
LINE
  8
0
 10
-126.214
 20
308.474
 11
-126.478
 21
308.328
  0
LINE
  8
0
 10
-126.478
 20
308.328
 11
-126.758
 21
308.217
  0
LINE
  8
0
 10
-126.758
 20
308.217
 11
-127.05
 21
308.143
  0
LINE
  8
0
 10
-127.05
 20
308.143
 11
-127.349
 21
308.105
  0
LINE
  8
0
 10
-127.349
 20
308.105
 11
-127.651
 21
308.105
  0
LINE
  8
0
 10
127.349
 20
203.105
 11
127.05
 21
203.143
  0
LINE
  8
0
 10
127.05
 20
203.143
 11
126.758
 21
203.217
  0
LINE
  8
0
 10
126.758
 20
203.217
 11
126.478
 21
203.328
  0
LINE
  8
0
 10
126.478
 20
203.328
 11
126.214
 21
203.474
  0
LINE
  8
0
 10
126.214
 20
203.474
 11
125.97
 21
203.651
  0
LINE
  8
0
 10
125.97
 20
203.651
 11
125.75
 21
203.857
  0
LINE
  8
0
 10
125.75
 20
203.857
 11
125.558
 21
204.089
  0
LINE
  8
0
 10
125.558
 20
204.089
 11
125.397
 21
204.344
  0
LINE
  8
0
 10
125.397
 20
204.344
 11
125.269
 21
204.617
  0
LINE
  8
0
 10
125.269
 20
204.617
 11
125.175
 21
204.903
  0
LINE
  8
0
 10
125.175
 20
204.903
 11
125.119
 21
205.199
  0
LINE
  8
0
 10
125.119
 20
205.199
 11
125.1
 21
205.5
  0
LINE
  8
0
 10
125.1
 20
205.5
 11
125.119
 21
205.801
  0
LINE
  8
0
 10
125.119
 20
205.801
 11
125.175
 21
206.097
  0
LINE
  8
0
 10
125.175
 20
206.097
 11
125.269
 21
206.383
  0
LINE
  8
0
 10
125.269
 20
206.383
 11
125.397
 21
206.656
  0
LINE
  8
0
 10
125.397
 20
206.656
 11
125.558
 21
206.911
  0
LINE
  8
0
 10
125.558
 20
206.911
 11
125.75
 21
207.143
  0
LINE
  8
0
 10
125.75
 20
207.143
 11
125.97
 21
207.349
  0
LINE
  8
0
 10
125.97
 20
207.349
 11
126.214
 21
207.526
  0
LINE
  8
0
 10
126.214
 20
207.526
 11
126.478
 21
207.672
  0
LINE
  8
0
 10
126.478
 20
207.672
 11
126.758
 21
207.783
  0
LINE
  8
0
 10
126.758
 20
207.783
 11
127.05
 21
207.857
  0
LINE
  8
0
 10
127.05
 20
207.857
 11
127.349
 21
207.895
  0
LINE
  8
0
 10
127.349
 20
207.895
 11
127.651
 21
207.895
  0
LINE
  8
0
 10
127.651
 20
207.895
 11
127.95
 21
207.857
  0
LINE
  8
0
 10
127.95
 20
207.857
 11
128.242
 21
207.783
  0
LINE
  8
0
 10
128.242
 20
207.783
 11
128.522
 21
207.672
  0
LINE
  8
0
 10
128.522
 20
207.672
 11
128.786
 21
207.526
  0
LINE
  8
0
 10
128.786
 20
207.526
 11
129.03
 21
207.349
  0
LINE
  8
0
 10
129.03
 20
207.349
 11
129.25
 21
207.143
  0
LINE
  8
0
 10
129.25
 20
207.143
 11
129.442
 21
206.911
  0
LINE
  8
0
 10
129.442
 20
206.911
 11
129.603
 21
206.656
  0
LINE
  8
0
 10
129.603
 20
206.656
 11
129.731
 21
206.383
  0
LINE
  8
0
 10
129.731
 20
206.383
 11
129.825
 21
206.097
  0
LINE
  8
0
 10
129.825
 20
206.097
 11
129.881
 21
205.801
  0
LINE
  8
0
 10
129.881
 20
205.801
 11
129.9
 21
205.5
  0
LINE
  8
0
 10
129.9
 20
205.5
 11
129.881
 21
205.199
  0
LINE
  8
0
 10
129.881
 20
205.199
 11
129.825
 21
204.903
  0
LINE
  8
0
 10
129.825
 20
204.903
 11
129.731
 21
204.617
  0
LINE
  8
0
 10
129.731
 20
204.617
 11
129.603
 21
204.344
  0
LINE
  8
0
 10
129.603
 20
204.344
 11
129.442
 21
204.089
  0
LINE
  8
0
 10
129.442
 20
204.089
 11
129.25
 21
203.857
  0
LINE
  8
0
 10
129.25
 20
203.857
 11
129.03
 21
203.651
  0
LINE
  8
0
 10
129.03
 20
203.651
 11
128.786
 21
203.474
  0
LINE
  8
0
 10
128.786
 20
203.474
 11
128.522
 21
203.328
  0
LINE
  8
0
 10
128.522
 20
203.328
 11
128.242
 21
203.217
  0
LINE
  8
0
 10
128.242
 20
203.217
 11
127.95
 21
203.143
  0
LINE
  8
0
 10
127.95
 20
203.143
 11
127.651
 21
203.105
  0
LINE
  8
0
 10
127.651
 20
203.105
 11
127.349
 21
203.105
  0
LINE
  8
0
 10
-127.651
 20
203.105
 11
-127.95
 21
203.143
  0
LINE
  8
0
 10
-127.95
 20
203.143
 11
-128.242
 21
203.217
  0
LINE
  8
0
 10
-128.242
 20
203.217
 11
-128.522
 21
203.328
  0
LINE
  8
0
 10
-128.522
 20
203.328
 11
-128.786
 21
203.474
  0
LINE
  8
0
 10
-128.786
 20
203.474
 11
-129.03
 21
203.651
  0
LINE
  8
0
 10
-129.03
 20
203.651
 11
-129.25
 21
203.857
  0
LINE
  8
0
 10
-129.25
 20
203.857
 11
-129.442
 21
204.089
  0
LINE
  8
0
 10
-129.442
 20
204.089
 11
-129.603
 21
204.344
  0
LINE
  8
0
 10
-129.603
 20
204.344
 11
-129.731
 21
204.617
  0
LINE
  8
0
 10
-129.731
 20
204.617
 11
-129.825
 21
204.903
  0
LINE
  8
0
 10
-129.825
 20
204.903
 11
-129.881
 21
205.199
  0
LINE
  8
0
 10
-129.881
 20
205.199
 11
-129.9
 21
205.5
  0
LINE
  8
0
 10
-129.9
 20
205.5
 11
-129.881
 21
205.801
  0
LINE
  8
0
 10
-129.881
 20
205.801
 11
-129.825
 21
206.097
  0
LINE
  8
0
 10
-129.825
 20
206.097
 11
-129.731
 21
206.383
  0
LINE
  8
0
 10
-129.731
 20
206.383
 11
-129.603
 21
206.656
  0
LINE
  8
0
 10
-129.603
 20
206.656
 11
-129.442
 21
206.911
  0
LINE
  8
0
 10
-129.442
 20
206.911
 11
-129.25
 21
207.143
  0
LINE
  8
0
 10
-129.25
 20
207.143
 11
-129.03
 21
207.349
  0
LINE
  8
0
 10
-129.03
 20
207.349
 11
-128.786
 21
207.526
  0
LINE
  8
0
 10
-128.786
 20
207.526
 11
-128.522
 21
207.672
  0
LINE
  8
0
 10
-128.522
 20
207.672
 11
-128.242
 21
207.783
  0
LINE
  8
0
 10
-128.242
 20
207.783
 11
-127.95
 21
207.857
  0
LINE
  8
0
 10
-127.95
 20
207.857
 11
-127.651
 21
207.895
  0
LINE
  8
0
 10
-127.651
 20
207.895
 11
-127.349
 21
207.895
  0
LINE
  8
0
 10
-127.349
 20
207.895
 11
-127.05
 21
207.857
  0
LINE
  8
0
 10
-127.05
 20
207.857
 11
-126.758
 21
207.783
  0
LINE
  8
0
 10
-126.758
 20
207.783
 11
-126.478
 21
207.672
  0
LINE
  8
0
 10
-126.478
 20
207.672
 11
-126.214
 21
207.526
  0
LINE
  8
0
 10
-126.214
 20
207.526
 11
-125.97
 21
207.349
  0
LINE
  8
0
 10
-125.97
 20
207.349
 11
-125.75
 21
207.143
  0
LINE
  8
0
 10
-125.75
 20
207.143
 11
-125.558
 21
206.911
  0
LINE
  8
0
 10
-125.558
 20
206.911
 11
-125.397
 21
206.656
  0
LINE
  8
0
 10
-125.397
 20
206.656
 11
-125.269
 21
206.383
  0
LINE
  8
0
 10
-125.269
 20
206.383
 11
-125.175
 21
206.097
  0
LINE
  8
0
 10
-125.175
 20
206.097
 11
-125.119
 21
205.801
  0
LINE
  8
0
 10
-125.119
 20
205.801
 11
-125.1
 21
205.5
  0
LINE
  8
0
 10
-125.1
 20
205.5
 11
-125.119
 21
205.199
  0
LINE
  8
0
 10
-125.119
 20
205.199
 11
-125.175
 21
204.903
  0
LINE
  8
0
 10
-125.175
 20
204.903
 11
-125.269
 21
204.617
  0
LINE
  8
0
 10
-125.269
 20
204.617
 11
-125.397
 21
204.344
  0
LINE
  8
0
 10
-125.397
 20
204.344
 11
-125.558
 21
204.089
  0
LINE
  8
0
 10
-125.558
 20
204.089
 11
-125.75
 21
203.857
  0
LINE
  8
0
 10
-125.75
 20
203.857
 11
-125.97
 21
203.651
  0
LINE
  8
0
 10
-125.97
 20
203.651
 11
-126.214
 21
203.474
  0
LINE
  8
0
 10
-126.214
 20
203.474
 11
-126.478
 21
203.328
  0
LINE
  8
0
 10
-126.478
 20
203.328
 11
-126.758
 21
203.217
  0
LINE
  8
0
 10
-126.758
 20
203.217
 11
-127.05
 21
203.143
  0
LINE
  8
0
 10
-127.05
 20
203.143
 11
-127.349
 21
203.105
  0
LINE
  8
0
 10
-127.349
 20
203.105
 11
-127.651
 21
203.105
  0
LINE
  8
0
 10
130.937
 20
69.0886
 11
131.545
 21
69.2447
  0
LINE
  8
0
 10
131.545
 20
69.2447
 11
132.129
 21
69.4759
  0
LINE
  8
0
 10
132.129
 20
69.4759
 11
132.679
 21
69.7784
  0
LINE
  8
0
 10
132.679
 20
69.7784
 11
133.187
 21
70.1474
  0
LINE
  8
0
 10
133.187
 20
70.1474
 11
133.645
 21
70.5773
  0
LINE
  8
0
 10
133.645
 20
70.5773
 11
134.045
 21
71.0611
  0
LINE
  8
0
 10
134.045
 20
71.0611
 11
134.382
 21
71.5912
  0
LINE
  8
0
 10
134.382
 20
71.5912
 11
134.649
 21
72.1594
  0
LINE
  8
0
 10
134.649
 20
72.1594
 11
134.843
 21
72.7566
  0
LINE
  8
0
 10
134.843
 20
72.7566
 11
134.961
 21
73.3733
  0
LINE
  8
0
 10
134.961
 20
73.3733
 11
135
 21
74
  0
LINE
  8
0
 10
135
 20
74
 11
135
 21
184
  0
LINE
  8
0
 10
135
 20
184
 11
134.961
 21
184.627
  0
LINE
  8
0
 10
134.961
 20
184.627
 11
134.843
 21
185.243
  0
LINE
  8
0
 10
134.843
 20
185.243
 11
134.649
 21
185.841
  0
LINE
  8
0
 10
134.649
 20
185.841
 11
134.382
 21
186.409
  0
LINE
  8
0
 10
134.382
 20
186.409
 11
134.045
 21
186.939
  0
LINE
  8
0
 10
134.045
 20
186.939
 11
133.645
 21
187.423
  0
LINE
  8
0
 10
133.645
 20
187.423
 11
133.187
 21
187.853
  0
LINE
  8
0
 10
133.187
 20
187.853
 11
132.679
 21
188.222
  0
LINE
  8
0
 10
132.679
 20
188.222
 11
132.129
 21
188.524
  0
LINE
  8
0
 10
132.129
 20
188.524
 11
131.545
 21
188.755
  0
LINE
  8
0
 10
131.545
 20
188.755
 11
130.937
 21
188.911
  0
LINE
  8
0
 10
130.937
 20
188.911
 11
130.314
 21
188.99
  0
LINE
  8
0
 10
130.314
 20
188.99
 11
-130.314
 21
188.99
  0
LINE
  8
0
 10
-130.314
 20
188.99
 11
-130.937
 21
188.911
  0
LINE
  8
0
 10
-130.937
 20
188.911
 11
-131.545
 21
188.755
  0
LINE
  8
0
 10
-131.545
 20
188.755
 11
-132.129
 21
188.524
  0
LINE
  8
0
 10
-132.129
 20
188.524
 11
-132.679
 21
188.222
  0
LINE
  8
0
 10
-132.679
 20
188.222
 11
-133.187
 21
187.853
  0
LINE
  8
0
 10
-133.187
 20
187.853
 11
-133.645
 21
187.423
  0
LINE
  8
0
 10
-133.645
 20
187.423
 11
-134.045
 21
186.939
  0
LINE
  8
0
 10
-134.045
 20
186.939
 11
-134.382
 21
186.409
  0
LINE
  8
0
 10
-134.382
 20
186.409
 11
-134.649
 21
185.841
  0
LINE
  8
0
 10
-134.649
 20
185.841
 11
-134.843
 21
185.243
  0
LINE
  8
0
 10
-134.843
 20
185.243
 11
-134.9
 21
184.944
  0
LINE
  8
0
 10
-134.9
 20
184.944
 11
-136.5
 21
184.944
  0
LINE
  8
0
 10
-136.5
 20
184.944
 11
-136.5
 21
73.0558
  0
LINE
  8
0
 10
-136.5
 20
73.0558
 11
-134.9
 21
73.0558
  0
LINE
  8
0
 10
-134.9
 20
73.0558
 11
-134.843
 21
72.7566
  0
LINE
  8
0
 10
-134.843
 20
72.7566
 11
-134.649
 21
72.1594
  0
LINE
  8
0
 10
-134.649
 20
72.1594
 11
-134.382
 21
71.5912
  0
LINE
  8
0
 10
-134.382
 20
71.5912
 11
-134.045
 21
71.0611
  0
LINE
  8
0
 10
-134.045
 20
71.0611
 11
-133.645
 21
70.5773
  0
LINE
  8
0
 10
-133.645
 20
70.5773
 11
-133.187
 21
70.1474
  0
LINE
  8
0
 10
-133.187
 20
70.1474
 11
-132.679
 21
69.7784
  0
LINE
  8
0
 10
-132.679
 20
69.7784
 11
-132.129
 21
69.4759
  0
LINE
  8
0
 10
-132.129
 20
69.4759
 11
-131.545
 21
69.2447
  0
LINE
  8
0
 10
-131.545
 20
69.2447
 11
-130.937
 21
69.0886
  0
LINE
  8
0
 10
-130.937
 20
69.0886
 11
-130.314
 21
69.0099
  0
LINE
  8
0
 10
-130.314
 20
69.0099
 11
130.314
 21
69.0099
  0
LINE
  8
0
 10
130.314
 20
69.0099
 11
130.937
 21
69.0886
  0
LINE
  8
0
 10
-127.613
 20
179.704
 11
-127.837
 21
179.732
  0
LINE
  8
0
 10
-127.837
 20
179.732
 11
-128.056
 21
179.788
  0
LINE
  8
0
 10
-128.056
 20
179.788
 11
-128.266
 21
179.871
  0
LINE
  8
0
 10
-128.266
 20
179.871
 11
-128.464
 21
179.98
  0
LINE
  8
0
 10
-128.464
 20
179.98
 11
-128.647
 21
180.113
  0
LINE
  8
0
 10
-128.647
 20
180.113
 11
-128.812
 21
180.268
  0
LINE
  8
0
 10
-128.812
 20
180.268
 11
-128.956
 21
180.442
  0
LINE
  8
0
 10
-128.956
 20
180.442
 11
-129.077
 21
180.633
  0
LINE
  8
0
 10
-129.077
 20
180.633
 11
-129.174
 21
180.837
  0
LINE
  8
0
 10
-129.174
 20
180.837
 11
-129.243
 21
181.052
  0
LINE
  8
0
 10
-129.243
 20
181.052
 11
-129.286
 21
181.274
  0
LINE
  8
0
 10
-129.286
 20
181.274
 11
-129.3
 21
181.5
  0
LINE
  8
0
 10
-129.3
 20
181.5
 11
-129.286
 21
181.726
  0
LINE
  8
0
 10
-129.286
 20
181.726
 11
-129.243
 21
181.948
  0
LINE
  8
0
 10
-129.243
 20
181.948
 11
-129.174
 21
182.163
  0
LINE
  8
0
 10
-129.174
 20
182.163
 11
-129.077
 21
182.367
  0
LINE
  8
0
 10
-129.077
 20
182.367
 11
-128.956
 21
182.558
  0
LINE
  8
0
 10
-128.956
 20
182.558
 11
-128.812
 21
182.732
  0
LINE
  8
0
 10
-128.812
 20
182.732
 11
-128.647
 21
182.887
  0
LINE
  8
0
 10
-128.647
 20
182.887
 11
-128.464
 21
183.02
  0
LINE
  8
0
 10
-128.464
 20
183.02
 11
-128.266
 21
183.129
  0
LINE
  8
0
 10
-128.266
 20
183.129
 11
-128.056
 21
183.212
  0
LINE
  8
0
 10
-128.056
 20
183.212
 11
-127.837
 21
183.268
  0
LINE
  8
0
 10
-127.837
 20
183.268
 11
-127.613
 21
183.296
  0
LINE
  8
0
 10
-127.613
 20
183.296
 11
-127.387
 21
183.296
  0
LINE
  8
0
 10
-127.387
 20
183.296
 11
-127.163
 21
183.268
  0
LINE
  8
0
 10
-127.163
 20
183.268
 11
-126.944
 21
183.212
  0
LINE
  8
0
 10
-126.944
 20
183.212
 11
-126.734
 21
183.129
  0
LINE
  8
0
 10
-126.734
 20
183.129
 11
-126.536
 21
183.02
  0
LINE
  8
0
 10
-126.536
 20
183.02
 11
-126.353
 21
182.887
  0
LINE
  8
0
 10
-126.353
 20
182.887
 11
-126.188
 21
182.732
  0
LINE
  8
0
 10
-126.188
 20
182.732
 11
-126.044
 21
182.558
  0
LINE
  8
0
 10
-126.044
 20
182.558
 11
-125.923
 21
182.367
  0
LINE
  8
0
 10
-125.923
 20
182.367
 11
-125.826
 21
182.163
  0
LINE
  8
0
 10
-125.826
 20
182.163
 11
-125.757
 21
181.948
  0
LINE
  8
0
 10
-125.757
 20
181.948
 11
-125.714
 21
181.726
  0
LINE
  8
0
 10
-125.714
 20
181.726
 11
-125.7
 21
181.5
  0
LINE
  8
0
 10
-125.7
 20
181.5
 11
-125.714
 21
181.274
  0
LINE
  8
0
 10
-125.714
 20
181.274
 11
-125.757
 21
181.052
  0
LINE
  8
0
 10
-125.757
 20
181.052
 11
-125.826
 21
180.837
  0
LINE
  8
0
 10
-125.826
 20
180.837
 11
-125.923
 21
180.633
  0
LINE
  8
0
 10
-125.923
 20
180.633
 11
-126.044
 21
180.442
  0
LINE
  8
0
 10
-126.044
 20
180.442
 11
-126.188
 21
180.268
  0
LINE
  8
0
 10
-126.188
 20
180.268
 11
-126.353
 21
180.113
  0
LINE
  8
0
 10
-126.353
 20
180.113
 11
-126.536
 21
179.98
  0
LINE
  8
0
 10
-126.536
 20
179.98
 11
-126.734
 21
179.871
  0
LINE
  8
0
 10
-126.734
 20
179.871
 11
-126.944
 21
179.788
  0
LINE
  8
0
 10
-126.944
 20
179.788
 11
-127.163
 21
179.732
  0
LINE
  8
0
 10
-127.163
 20
179.732
 11
-127.387
 21
179.704
  0
LINE
  8
0
 10
-127.387
 20
179.704
 11
-127.613
 21
179.704
  0
LINE
  8
0
 10
127.387
 20
179.704
 11
127.163
 21
179.732
  0
LINE
  8
0
 10
127.163
 20
179.732
 11
126.944
 21
179.788
  0
LINE
  8
0
 10
126.944
 20
179.788
 11
126.734
 21
179.871
  0
LINE
  8
0
 10
126.734
 20
179.871
 11
126.536
 21
179.98
  0
LINE
  8
0
 10
126.536
 20
179.98
 11
126.353
 21
180.113
  0
LINE
  8
0
 10
126.353
 20
180.113
 11
126.188
 21
180.268
  0
LINE
  8
0
 10
126.188
 20
180.268
 11
126.044
 21
180.442
  0
LINE
  8
0
 10
126.044
 20
180.442
 11
125.923
 21
180.633
  0
LINE
  8
0
 10
125.923
 20
180.633
 11
125.826
 21
180.837
  0
LINE
  8
0
 10
125.826
 20
180.837
 11
125.757
 21
181.052
  0
LINE
  8
0
 10
125.757
 20
181.052
 11
125.714
 21
181.274
  0
LINE
  8
0
 10
125.714
 20
181.274
 11
125.7
 21
181.5
  0
LINE
  8
0
 10
125.7
 20
181.5
 11
125.714
 21
181.726
  0
LINE
  8
0
 10
125.714
 20
181.726
 11
125.757
 21
181.948
  0
LINE
  8
0
 10
125.757
 20
181.948
 11
125.826
 21
182.163
  0
LINE
  8
0
 10
125.826
 20
182.163
 11
125.923
 21
182.367
  0
LINE
  8
0
 10
125.923
 20
182.367
 11
126.044
 21
182.558
  0
LINE
  8
0
 10
126.044
 20
182.558
 11
126.188
 21
182.732
  0
LINE
  8
0
 10
126.188
 20
182.732
 11
126.353
 21
182.887
  0
LINE
  8
0
 10
126.353
 20
182.887
 11
126.536
 21
183.02
  0
LINE
  8
0
 10
126.536
 20
183.02
 11
126.734
 21
183.129
  0
LINE
  8
0
 10
126.734
 20
183.129
 11
126.944
 21
183.212
  0
LINE
  8
0
 10
126.944
 20
183.212
 11
127.163
 21
183.268
  0
LINE
  8
0
 10
127.163
 20
183.268
 11
127.387
 21
183.296
  0
LINE
  8
0
 10
127.387
 20
183.296
 11
127.613
 21
183.296
  0
LINE
  8
0
 10
127.613
 20
183.296
 11
127.837
 21
183.268
  0
LINE
  8
0
 10
127.837
 20
183.268
 11
128.056
 21
183.212
  0
LINE
  8
0
 10
128.056
 20
183.212
 11
128.266
 21
183.129
  0
LINE
  8
0
 10
128.266
 20
183.129
 11
128.464
 21
183.02
  0
LINE
  8
0
 10
128.464
 20
183.02
 11
128.647
 21
182.887
  0
LINE
  8
0
 10
128.647
 20
182.887
 11
128.812
 21
182.732
  0
LINE
  8
0
 10
128.812
 20
182.732
 11
128.956
 21
182.558
  0
LINE
  8
0
 10
128.956
 20
182.558
 11
129.077
 21
182.367
  0
LINE
  8
0
 10
129.077
 20
182.367
 11
129.174
 21
182.163
  0
LINE
  8
0
 10
129.174
 20
182.163
 11
129.243
 21
181.948
  0
LINE
  8
0
 10
129.243
 20
181.948
 11
129.286
 21
181.726
  0
LINE
  8
0
 10
129.286
 20
181.726
 11
129.3
 21
181.5
  0
LINE
  8
0
 10
129.3
 20
181.5
 11
129.286
 21
181.274
  0
LINE
  8
0
 10
129.286
 20
181.274
 11
129.243
 21
181.052
  0
LINE
  8
0
 10
129.243
 20
181.052
 11
129.174
 21
180.837
  0
LINE
  8
0
 10
129.174
 20
180.837
 11
129.077
 21
180.633
  0
LINE
  8
0
 10
129.077
 20
180.633
 11
128.956
 21
180.442
  0
LINE
  8
0
 10
128.956
 20
180.442
 11
128.812
 21
180.268
  0
LINE
  8
0
 10
128.812
 20
180.268
 11
128.647
 21
180.113
  0
LINE
  8
0
 10
128.647
 20
180.113
 11
128.464
 21
179.98
  0
LINE
  8
0
 10
128.464
 20
179.98
 11
128.266
 21
179.871
  0
LINE
  8
0
 10
128.266
 20
179.871
 11
128.056
 21
179.788
  0
LINE
  8
0
 10
128.056
 20
179.788
 11
127.837
 21
179.732
  0
LINE
  8
0
 10
127.837
 20
179.732
 11
127.613
 21
179.704
  0
LINE
  8
0
 10
127.613
 20
179.704
 11
127.387
 21
179.704
  0
LINE
  8
0
 10
127.387
 20
74.7036
 11
127.163
 21
74.7319
  0
LINE
  8
0
 10
127.163
 20
74.7319
 11
126.944
 21
74.7881
  0
LINE
  8
0
 10
126.944
 20
74.7881
 11
126.734
 21
74.8713
  0
LINE
  8
0
 10
126.734
 20
74.8713
 11
126.536
 21
74.9802
  0
LINE
  8
0
 10
126.536
 20
74.9802
 11
126.353
 21
75.1131
  0
LINE
  8
0
 10
126.353
 20
75.1131
 11
126.188
 21
75.2678
  0
LINE
  8
0
 10
126.188
 20
75.2678
 11
126.044
 21
75.442
  0
LINE
  8
0
 10
126.044
 20
75.442
 11
125.923
 21
75.6328
  0
LINE
  8
0
 10
125.923
 20
75.6328
 11
125.826
 21
75.8374
  0
LINE
  8
0
 10
125.826
 20
75.8374
 11
125.757
 21
76.0524
  0
LINE
  8
0
 10
125.757
 20
76.0524
 11
125.714
 21
76.2744
  0
LINE
  8
0
 10
125.714
 20
76.2744
 11
125.7
 21
76.5
  0
LINE
  8
0
 10
125.7
 20
76.5
 11
125.714
 21
76.7256
  0
LINE
  8
0
 10
125.714
 20
76.7256
 11
125.757
 21
76.9476
  0
LINE
  8
0
 10
125.757
 20
76.9476
 11
125.826
 21
77.1626
  0
LINE
  8
0
 10
125.826
 20
77.1626
 11
125.923
 21
77.3672
  0
LINE
  8
0
 10
125.923
 20
77.3672
 11
126.044
 21
77.558
  0
LINE
  8
0
 10
126.044
 20
77.558
 11
126.188
 21
77.7322
  0
LINE
  8
0
 10
126.188
 20
77.7322
 11
126.353
 21
77.8869
  0
LINE
  8
0
 10
126.353
 20
77.8869
 11
126.536
 21
78.0198
  0
LINE
  8
0
 10
126.536
 20
78.0198
 11
126.734
 21
78.1287
  0
LINE
  8
0
 10
126.734
 20
78.1287
 11
126.944
 21
78.2119
  0
LINE
  8
0
 10
126.944
 20
78.2119
 11
127.163
 21
78.2681
  0
LINE
  8
0
 10
127.163
 20
78.2681
 11
127.387
 21
78.2964
  0
LINE
  8
0
 10
127.387
 20
78.2964
 11
127.613
 21
78.2964
  0
LINE
  8
0
 10
127.613
 20
78.2964
 11
127.837
 21
78.2681
  0
LINE
  8
0
 10
127.837
 20
78.2681
 11
128.056
 21
78.2119
  0
LINE
  8
0
 10
128.056
 20
78.2119
 11
128.266
 21
78.1287
  0
LINE
  8
0
 10
128.266
 20
78.1287
 11
128.464
 21
78.0198
  0
LINE
  8
0
 10
128.464
 20
78.0198
 11
128.647
 21
77.8869
  0
LINE
  8
0
 10
128.647
 20
77.8869
 11
128.812
 21
77.7322
  0
LINE
  8
0
 10
128.812
 20
77.7322
 11
128.956
 21
77.558
  0
LINE
  8
0
 10
128.956
 20
77.558
 11
129.077
 21
77.3672
  0
LINE
  8
0
 10
129.077
 20
77.3672
 11
129.174
 21
77.1626
  0
LINE
  8
0
 10
129.174
 20
77.1626
 11
129.243
 21
76.9476
  0
LINE
  8
0
 10
129.243
 20
76.9476
 11
129.286
 21
76.7256
  0
LINE
  8
0
 10
129.286
 20
76.7256
 11
129.3
 21
76.5
  0
LINE
  8
0
 10
129.3
 20
76.5
 11
129.286
 21
76.2744
  0
LINE
  8
0
 10
129.286
 20
76.2744
 11
129.243
 21
76.0524
  0
LINE
  8
0
 10
129.243
 20
76.0524
 11
129.174
 21
75.8374
  0
LINE
  8
0
 10
129.174
 20
75.8374
 11
129.077
 21
75.6328
  0
LINE
  8
0
 10
129.077
 20
75.6328
 11
128.956
 21
75.442
  0
LINE
  8
0
 10
128.956
 20
75.442
 11
128.812
 21
75.2678
  0
LINE
  8
0
 10
128.812
 20
75.2678
 11
128.647
 21
75.1131
  0
LINE
  8
0
 10
128.647
 20
75.1131
 11
128.464
 21
74.9802
  0
LINE
  8
0
 10
128.464
 20
74.9802
 11
128.266
 21
74.8713
  0
LINE
  8
0
 10
128.266
 20
74.8713
 11
128.056
 21
74.7881
  0
LINE
  8
0
 10
128.056
 20
74.7881
 11
127.837
 21
74.7319
  0
LINE
  8
0
 10
127.837
 20
74.7319
 11
127.613
 21
74.7036
  0
LINE
  8
0
 10
127.613
 20
74.7036
 11
127.387
 21
74.7036
  0
LINE
  8
0
 10
-127.613
 20
74.7036
 11
-127.837
 21
74.7319
  0
LINE
  8
0
 10
-127.837
 20
74.7319
 11
-128.056
 21
74.7881
  0
LINE
  8
0
 10
-128.056
 20
74.7881
 11
-128.266
 21
74.8713
  0
LINE
  8
0
 10
-128.266
 20
74.8713
 11
-128.464
 21
74.9802
  0
LINE
  8
0
 10
-128.464
 20
74.9802
 11
-128.647
 21
75.1131
  0
LINE
  8
0
 10
-128.647
 20
75.1131
 11
-128.812
 21
75.2678
  0
LINE
  8
0
 10
-128.812
 20
75.2678
 11
-128.956
 21
75.442
  0
LINE
  8
0
 10
-128.956
 20
75.442
 11
-129.077
 21
75.6328
  0
LINE
  8
0
 10
-129.077
 20
75.6328
 11
-129.174
 21
75.8374
  0
LINE
  8
0
 10
-129.174
 20
75.8374
 11
-129.243
 21
76.0524
  0
LINE
  8
0
 10
-129.243
 20
76.0524
 11
-129.286
 21
76.2744
  0
LINE
  8
0
 10
-129.286
 20
76.2744
 11
-129.3
 21
76.5
  0
LINE
  8
0
 10
-129.3
 20
76.5
 11
-129.286
 21
76.7256
  0
LINE
  8
0
 10
-129.286
 20
76.7256
 11
-129.243
 21
76.9476
  0
LINE
  8
0
 10
-129.243
 20
76.9476
 11
-129.174
 21
77.1626
  0
LINE
  8
0
 10
-129.174
 20
77.1626
 11
-129.077
 21
77.3672
  0
LINE
  8
0
 10
-129.077
 20
77.3672
 11
-128.956
 21
77.558
  0
LINE
  8
0
 10
-128.956
 20
77.558
 11
-128.812
 21
77.7322
  0
LINE
  8
0
 10
-128.812
 20
77.7322
 11
-128.647
 21
77.8869
  0
LINE
  8
0
 10
-128.647
 20
77.8869
 11
-128.464
 21
78.0198
  0
LINE
  8
0
 10
-128.464
 20
78.0198
 11
-128.266
 21
78.1287
  0
LINE
  8
0
 10
-128.266
 20
78.1287
 11
-128.056
 21
78.2119
  0
LINE
  8
0
 10
-128.056
 20
78.2119
 11
-127.837
 21
78.2681
  0
LINE
  8
0
 10
-127.837
 20
78.2681
 11
-127.613
 21
78.2964
  0
LINE
  8
0
 10
-127.613
 20
78.2964
 11
-127.387
 21
78.2964
  0
LINE
  8
0
 10
-127.387
 20
78.2964
 11
-127.163
 21
78.2681
  0
LINE
  8
0
 10
-127.163
 20
78.2681
 11
-126.944
 21
78.2119
  0
LINE
  8
0
 10
-126.944
 20
78.2119
 11
-126.734
 21
78.1287
  0
LINE
  8
0
 10
-126.734
 20
78.1287
 11
-126.536
 21
78.0198
  0
LINE
  8
0
 10
-126.536
 20
78.0198
 11
-126.353
 21
77.8869
  0
LINE
  8
0
 10
-126.353
 20
77.8869
 11
-126.188
 21
77.7322
  0
LINE
  8
0
 10
-126.188
 20
77.7322
 11
-126.044
 21
77.558
  0
LINE
  8
0
 10
-126.044
 20
77.558
 11
-125.923
 21
77.3672
  0
LINE
  8
0
 10
-125.923
 20
77.3672
 11
-125.826
 21
77.1626
  0
LINE
  8
0
 10
-125.826
 20
77.1626
 11
-125.757
 21
76.9476
  0
LINE
  8
0
 10
-125.757
 20
76.9476
 11
-125.714
 21
76.7256
  0
LINE
  8
0
 10
-125.714
 20
76.7256
 11
-125.7
 21
76.5
  0
LINE
  8
0
 10
-125.7
 20
76.5
 11
-125.714
 21
76.2744
  0
LINE
  8
0
 10
-125.714
 20
76.2744
 11
-125.757
 21
76.0524
  0
LINE
  8
0
 10
-125.757
 20
76.0524
 11
-125.826
 21
75.8374
  0
LINE
  8
0
 10
-125.826
 20
75.8374
 11
-125.923
 21
75.6328
  0
LINE
  8
0
 10
-125.923
 20
75.6328
 11
-126.044
 21
75.442
  0
LINE
  8
0
 10
-126.044
 20
75.442
 11
-126.188
 21
75.2678
  0
LINE
  8
0
 10
-126.188
 20
75.2678
 11
-126.353
 21
75.1131
  0
LINE
  8
0
 10
-126.353
 20
75.1131
 11
-126.536
 21
74.9802
  0
LINE
  8
0
 10
-126.536
 20
74.9802
 11
-126.734
 21
74.8713
  0
LINE
  8
0
 10
-126.734
 20
74.8713
 11
-126.944
 21
74.7881
  0
LINE
  8
0
 10
-126.944
 20
74.7881
 11
-127.163
 21
74.7319
  0
LINE
  8
0
 10
-127.163
 20
74.7319
 11
-127.387
 21
74.7036
  0
LINE
  8
0
 10
-127.387
 20
74.7036
 11
-127.613
 21
74.7036
  0
ENDSEC
  0
SECTION
  2
OBJECTS
  0
DICTIONARY
  0
ENDSEC
  0
EOF
