  0
SECTION
  2
BLOCKS
  0
ENDSEC
  0
SECTION
  2
ENTITIES
  0
LINE
  8
0
 10
-133.5
 20
89.9413
 11
-133.187
 21
89.6474
  0
LINE
  8
0
 10
-133.187
 20
89.6474
 11
-132.679
 21
89.2784
  0
LINE
  8
0
 10
-132.679
 20
89.2784
 11
-132.129
 21
88.9759
  0
LINE
  8
0
 10
-132.129
 20
88.9759
 11
-131.545
 21
88.7447
  0
LINE
  8
0
 10
-131.545
 20
88.7447
 11
-130.937
 21
88.5886
  0
LINE
  8
0
 10
-130.937
 20
88.5886
 11
-130.314
 21
88.5099
  0
LINE
  8
0
 10
-130.314
 20
88.5099
 11
130.314
 21
88.5099
  0
LINE
  8
0
 10
130.314
 20
88.5099
 11
130.937
 21
88.5886
  0
LINE
  8
0
 10
130.937
 20
88.5886
 11
131.545
 21
88.7447
  0
LINE
  8
0
 10
131.545
 20
88.7447
 11
132.129
 21
88.9759
  0
LINE
  8
0
 10
132.129
 20
88.9759
 11
132.679
 21
89.2784
  0
LINE
  8
0
 10
132.679
 20
89.2784
 11
133.187
 21
89.6474
  0
LINE
  8
0
 10
133.187
 20
89.6474
 11
133.645
 21
90.0773
  0
LINE
  8
0
 10
133.645
 20
90.0773
 11
134.045
 21
90.5611
  0
LINE
  8
0
 10
134.045
 20
90.5611
 11
134.382
 21
91.0912
  0
LINE
  8
0
 10
134.382
 20
91.0912
 11
134.649
 21
91.6594
  0
LINE
  8
0
 10
134.649
 20
91.6594
 11
134.843
 21
92.2566
  0
LINE
  8
0
 10
134.843
 20
92.2566
 11
134.961
 21
92.8733
  0
LINE
  8
0
 10
134.961
 20
92.8733
 11
135
 21
93.5
  0
LINE
  8
0
 10
135
 20
93.5
 11
135
 21
98.5
  0
LINE
  8
0
 10
135
 20
98.5
 11
134.961
 21
99.1267
  0
LINE
  8
0
 10
134.961
 20
99.1267
 11
134.843
 21
99.7434
  0
LINE
  8
0
 10
134.843
 20
99.7434
 11
134.649
 21
100.341
  0
LINE
  8
0
 10
134.649
 20
100.341
 11
134.382
 21
100.909
  0
LINE
  8
0
 10
134.382
 20
100.909
 11
134.045
 21
101.439
  0
LINE
  8
0
 10
134.045
 20
101.439
 11
133.645
 21
101.923
  0
LINE
  8
0
 10
133.645
 20
101.923
 11
133.187
 21
102.353
  0
LINE
  8
0
 10
133.187
 20
102.353
 11
132.679
 21
102.722
  0
LINE
  8
0
 10
132.679
 20
102.722
 11
132.129
 21
103.024
  0
LINE
  8
0
 10
132.129
 20
103.024
 11
131.545
 21
103.255
  0
LINE
  8
0
 10
131.545
 20
103.255
 11
130.937
 21
103.411
  0
LINE
  8
0
 10
130.937
 20
103.411
 11
130.314
 21
103.49
  0
LINE
  8
0
 10
130.314
 20
103.49
 11
-130.314
 21
103.49
  0
LINE
  8
0
 10
-130.314
 20
103.49
 11
-130.937
 21
103.411
  0
LINE
  8
0
 10
-130.937
 20
103.411
 11
-131.545
 21
103.255
  0
LINE
  8
0
 10
-131.545
 20
103.255
 11
-132.129
 21
103.024
  0
LINE
  8
0
 10
-132.129
 20
103.024
 11
-132.679
 21
102.722
  0
LINE
  8
0
 10
-132.679
 20
102.722
 11
-133.187
 21
102.353
  0
LINE
  8
0
 10
-133.187
 20
102.353
 11
-133.5
 21
102.059
  0
LINE
  8
0
 10
-133.5
 20
102.059
 11
-133.5
 21
103.49
  0
LINE
  8
0
 10
-133.5
 20
103.49
 11
-136.5
 21
103.49
  0
LINE
  8
0
 10
-136.5
 20
103.49
 11
-136.5
 21
88.5099
  0
LINE
  8
0
 10
-136.5
 20
88.5099
 11
-133.5
 21
88.5099
  0
LINE
  8
0
 10
-133.5
 20
88.5099
 11
-133.5
 21
89.9413
  0
LINE
  8
0
 10
-129.743
 20
90.135
 11
-130.226
 21
90.196
  0
LINE
  8
0
 10
-130.226
 20
90.196
 11
-130.697
 21
90.3169
  0
LINE
  8
0
 10
-130.697
 20
90.3169
 11
-131.149
 21
90.4959
  0
LINE
  8
0
 10
-131.149
 20
90.4959
 11
-131.575
 21
90.7302
  0
LINE
  8
0
 10
-131.575
 20
90.7302
 11
-131.969
 21
91.0161
  0
LINE
  8
0
 10
-131.969
 20
91.0161
 11
-132.323
 21
91.349
  0
LINE
  8
0
 10
-132.323
 20
91.349
 11
-132.633
 21
91.7237
  0
LINE
  8
0
 10
-132.633
 20
91.7237
 11
-132.894
 21
92.1344
  0
LINE
  8
0
 10
-132.894
 20
92.1344
 11
-133.101
 21
92.5744
  0
LINE
  8
0
 10
-133.101
 20
92.5744
 11
-133.251
 21
93.0369
  0
LINE
  8
0
 10
-133.251
 20
93.0369
 11
-133.342
 21
93.5146
  0
LINE
  8
0
 10
-133.342
 20
93.5146
 11
-133.373
 21
94
  0
LINE
  8
0
 10
-133.373
 20
94
 11
-133.373
 21
98
  0
LINE
  8
0
 10
-133.373
 20
98
 11
-133.342
 21
98.4854
  0
LINE
  8
0
 10
-133.342
 20
98.4854
 11
-133.251
 21
98.9631
  0
LINE
  8
0
 10
-133.251
 20
98.9631
 11
-133.101
 21
99.4256
  0
LINE
  8
0
 10
-133.101
 20
99.4256
 11
-132.894
 21
99.8656
  0
LINE
  8
0
 10
-132.894
 20
99.8656
 11
-132.633
 21
100.276
  0
LINE
  8
0
 10
-132.633
 20
100.276
 11
-132.323
 21
100.651
  0
LINE
  8
0
 10
-132.323
 20
100.651
 11
-131.969
 21
100.984
  0
LINE
  8
0
 10
-131.969
 20
100.984
 11
-131.575
 21
101.27
  0
LINE
  8
0
 10
-131.575
 20
101.27
 11
-131.149
 21
101.504
  0
LINE
  8
0
 10
-131.149
 20
101.504
 11
-130.697
 21
101.683
  0
LINE
  8
0
 10
-130.697
 20
101.683
 11
-130.226
 21
101.804
  0
LINE
  8
0
 10
-130.226
 20
101.804
 11
-129.743
 21
101.865
  0
LINE
  8
0
 10
-129.743
 20
101.865
 11
129.743
 21
101.865
  0
LINE
  8
0
 10
129.743
 20
101.865
 11
130.226
 21
101.804
  0
LINE
  8
0
 10
130.226
 20
101.804
 11
130.697
 21
101.683
  0
LINE
  8
0
 10
130.697
 20
101.683
 11
131.149
 21
101.504
  0
LINE
  8
0
 10
131.149
 20
101.504
 11
131.575
 21
101.27
  0
LINE
  8
0
 10
131.575
 20
101.27
 11
131.969
 21
100.984
  0
LINE
  8
0
 10
131.969
 20
100.984
 11
132.323
 21
100.651
  0
LINE
  8
0
 10
132.323
 20
100.651
 11
132.633
 21
100.276
  0
LINE
  8
0
 10
132.633
 20
100.276
 11
132.894
 21
99.8656
  0
LINE
  8
0
 10
132.894
 20
99.8656
 11
133.101
 21
99.4256
  0
LINE
  8
0
 10
133.101
 20
99.4256
 11
133.251
 21
98.9631
  0
LINE
  8
0
 10
133.251
 20
98.9631
 11
133.342
 21
98.4854
  0
LINE
  8
0
 10
133.342
 20
98.4854
 11
133.373
 21
98
  0
LINE
  8
0
 10
133.373
 20
98
 11
133.373
 21
94
  0
LINE
  8
0
 10
133.373
 20
94
 11
133.342
 21
93.5146
  0
LINE
  8
0
 10
133.342
 20
93.5146
 11
133.251
 21
93.0369
  0
LINE
  8
0
 10
133.251
 20
93.0369
 11
133.101
 21
92.5744
  0
LINE
  8
0
 10
133.101
 20
92.5744
 11
132.894
 21
92.1344
  0
LINE
  8
0
 10
132.894
 20
92.1344
 11
132.633
 21
91.7237
  0
LINE
  8
0
 10
132.633
 20
91.7237
 11
132.323
 21
91.349
  0
LINE
  8
0
 10
132.323
 20
91.349
 11
131.969
 21
91.0161
  0
LINE
  8
0
 10
131.969
 20
91.0161
 11
131.575
 21
90.7302
  0
LINE
  8
0
 10
131.575
 20
90.7302
 11
131.149
 21
90.4959
  0
LINE
  8
0
 10
131.149
 20
90.4959
 11
130.697
 21
90.3169
  0
LINE
  8
0
 10
130.697
 20
90.3169
 11
130.226
 21
90.196
  0
LINE
  8
0
 10
130.226
 20
90.196
 11
129.743
 21
90.135
  0
LINE
  8
0
 10
129.743
 20
90.135
 11
-129.743
 21
90.135
  0
LINE
  8
0
 10
130.937
 20
64.5886
 11
131.545
 21
64.7447
  0
LINE
  8
0
 10
131.545
 20
64.7447
 11
132.129
 21
64.9759
  0
LINE
  8
0
 10
132.129
 20
64.9759
 11
132.679
 21
65.2784
  0
LINE
  8
0
 10
132.679
 20
65.2784
 11
133.187
 21
65.6474
  0
LINE
  8
0
 10
133.187
 20
65.6474
 11
133.645
 21
66.0773
  0
LINE
  8
0
 10
133.645
 20
66.0773
 11
134.045
 21
66.5611
  0
LINE
  8
0
 10
134.045
 20
66.5611
 11
134.382
 21
67.0912
  0
LINE
  8
0
 10
134.382
 20
67.0912
 11
134.649
 21
67.6594
  0
LINE
  8
0
 10
134.649
 20
67.6594
 11
134.843
 21
68.2566
  0
LINE
  8
0
 10
134.843
 20
68.2566
 11
134.961
 21
68.8733
  0
LINE
  8
0
 10
134.961
 20
68.8733
 11
135
 21
69.5
  0
LINE
  8
0
 10
135
 20
69.5
 11
135
 21
74.5
  0
LINE
  8
0
 10
135
 20
74.5
 11
134.961
 21
75.1267
  0
LINE
  8
0
 10
134.961
 20
75.1267
 11
134.843
 21
75.7434
  0
LINE
  8
0
 10
134.843
 20
75.7434
 11
134.649
 21
76.3406
  0
LINE
  8
0
 10
134.649
 20
76.3406
 11
134.382
 21
76.9088
  0
LINE
  8
0
 10
134.382
 20
76.9088
 11
134.045
 21
77.4389
  0
LINE
  8
0
 10
134.045
 20
77.4389
 11
133.645
 21
77.9227
  0
LINE
  8
0
 10
133.645
 20
77.9227
 11
133.187
 21
78.3526
  0
LINE
  8
0
 10
133.187
 20
78.3526
 11
132.679
 21
78.7216
  0
LINE
  8
0
 10
132.679
 20
78.7216
 11
132.129
 21
79.0241
  0
LINE
  8
0
 10
132.129
 20
79.0241
 11
131.545
 21
79.2553
  0
LINE
  8
0
 10
131.545
 20
79.2553
 11
130.937
 21
79.4114
  0
LINE
  8
0
 10
130.937
 20
79.4114
 11
130.314
 21
79.4901
  0
LINE
  8
0
 10
130.314
 20
79.4901
 11
-130.314
 21
79.4901
  0
LINE
  8
0
 10
-130.314
 20
79.4901
 11
-130.937
 21
79.4114
  0
LINE
  8
0
 10
-130.937
 20
79.4114
 11
-131.545
 21
79.2553
  0
LINE
  8
0
 10
-131.545
 20
79.2553
 11
-132.129
 21
79.0241
  0
LINE
  8
0
 10
-132.129
 20
79.0241
 11
-132.679
 21
78.7216
  0
LINE
  8
0
 10
-132.679
 20
78.7216
 11
-133.187
 21
78.3526
  0
LINE
  8
0
 10
-133.187
 20
78.3526
 11
-133.5
 21
78.0587
  0
LINE
  8
0
 10
-133.5
 20
78.0587
 11
-133.5
 21
79.1148
  0
LINE
  8
0
 10
-133.5
 20
79.1148
 11
-136.5
 21
79.1148
  0
LINE
  8
0
 10
-136.5
 20
79.1148
 11
-136.5
 21
64.8852
  0
LINE
  8
0
 10
-136.5
 20
64.8852
 11
-133.5
 21
64.8852
  0
LINE
  8
0
 10
-133.5
 20
64.8852
 11
-133.5
 21
65.9413
  0
LINE
  8
0
 10
-133.5
 20
65.9413
 11
-133.187
 21
65.6474
  0
LINE
  8
0
 10
-133.187
 20
65.6474
 11
-132.679
 21
65.2784
  0
LINE
  8
0
 10
-132.679
 20
65.2784
 11
-132.129
 21
64.9759
  0
LINE
  8
0
 10
-132.129
 20
64.9759
 11
-131.545
 21
64.7447
  0
LINE
  8
0
 10
-131.545
 20
64.7447
 11
-130.937
 21
64.5886
  0
LINE
  8
0
 10
-130.937
 20
64.5886
 11
-130.314
 21
64.5099
  0
LINE
  8
0
 10
-130.314
 20
64.5099
 11
130.314
 21
64.5099
  0
LINE
  8
0
 10
130.314
 20
64.5099
 11
130.937
 21
64.5886
  0
LINE
  8
0
 10
127.349
 20
69.6047
 11
127.05
 21
69.6425
  0
LINE
  8
0
 10
127.05
 20
69.6425
 11
126.758
 21
69.7175
  0
LINE
  8
0
 10
126.758
 20
69.7175
 11
126.478
 21
69.8284
  0
LINE
  8
0
 10
126.478
 20
69.8284
 11
126.214
 21
69.9736
  0
LINE
  8
0
 10
126.214
 20
69.9736
 11
125.97
 21
70.1508
  0
LINE
  8
0
 10
125.97
 20
70.1508
 11
125.75
 21
70.3571
  0
LINE
  8
0
 10
125.75
 20
70.3571
 11
125.558
 21
70.5893
  0
LINE
  8
0
 10
125.558
 20
70.5893
 11
125.397
 21
70.8438
  0
LINE
  8
0
 10
125.397
 20
70.8438
 11
125.269
 21
71.1165
  0
LINE
  8
0
 10
125.269
 20
71.1165
 11
125.175
 21
71.4032
  0
LINE
  8
0
 10
125.175
 20
71.4032
 11
125.119
 21
71.6992
  0
LINE
  8
0
 10
125.119
 20
71.6992
 11
125.1
 21
72
  0
LINE
  8
0
 10
125.1
 20
72
 11
125.119
 21
72.3008
  0
LINE
  8
0
 10
125.119
 20
72.3008
 11
125.175
 21
72.5968
  0
LINE
  8
0
 10
125.175
 20
72.5968
 11
125.269
 21
72.8835
  0
LINE
  8
0
 10
125.269
 20
72.8835
 11
125.397
 21
73.1562
  0
LINE
  8
0
 10
125.397
 20
73.1562
 11
125.558
 21
73.4107
  0
LINE
  8
0
 10
125.558
 20
73.4107
 11
125.75
 21
73.6429
  0
LINE
  8
0
 10
125.75
 20
73.6429
 11
125.97
 21
73.8492
  0
LINE
  8
0
 10
125.97
 20
73.8492
 11
126.214
 21
74.0264
  0
LINE
  8
0
 10
126.214
 20
74.0264
 11
126.478
 21
74.1716
  0
LINE
  8
0
 10
126.478
 20
74.1716
 11
126.758
 21
74.2825
  0
LINE
  8
0
 10
126.758
 20
74.2825
 11
127.05
 21
74.3575
  0
LINE
  8
0
 10
127.05
 20
74.3575
 11
127.349
 21
74.3953
  0
LINE
  8
0
 10
127.349
 20
74.3953
 11
127.651
 21
74.3953
  0
LINE
  8
0
 10
127.651
 20
74.3953
 11
127.95
 21
74.3575
  0
LINE
  8
0
 10
127.95
 20
74.3575
 11
128.242
 21
74.2825
  0
LINE
  8
0
 10
128.242
 20
74.2825
 11
128.522
 21
74.1716
  0
LINE
  8
0
 10
128.522
 20
74.1716
 11
128.786
 21
74.0264
  0
LINE
  8
0
 10
128.786
 20
74.0264
 11
129.03
 21
73.8492
  0
LINE
  8
0
 10
129.03
 20
73.8492
 11
129.25
 21
73.6429
  0
LINE
  8
0
 10
129.25
 20
73.6429
 11
129.442
 21
73.4107
  0
LINE
  8
0
 10
129.442
 20
73.4107
 11
129.603
 21
73.1562
  0
LINE
  8
0
 10
129.603
 20
73.1562
 11
129.731
 21
72.8835
  0
LINE
  8
0
 10
129.731
 20
72.8835
 11
129.825
 21
72.5968
  0
LINE
  8
0
 10
129.825
 20
72.5968
 11
129.881
 21
72.3008
  0
LINE
  8
0
 10
129.881
 20
72.3008
 11
129.9
 21
72
  0
LINE
  8
0
 10
129.9
 20
72
 11
129.881
 21
71.6992
  0
LINE
  8
0
 10
129.881
 20
71.6992
 11
129.825
 21
71.4032
  0
LINE
  8
0
 10
129.825
 20
71.4032
 11
129.731
 21
71.1165
  0
LINE
  8
0
 10
129.731
 20
71.1165
 11
129.603
 21
70.8438
  0
LINE
  8
0
 10
129.603
 20
70.8438
 11
129.442
 21
70.5893
  0
LINE
  8
0
 10
129.442
 20
70.5893
 11
129.25
 21
70.3571
  0
LINE
  8
0
 10
129.25
 20
70.3571
 11
129.03
 21
70.1508
  0
LINE
  8
0
 10
129.03
 20
70.1508
 11
128.786
 21
69.9736
  0
LINE
  8
0
 10
128.786
 20
69.9736
 11
128.522
 21
69.8284
  0
LINE
  8
0
 10
128.522
 20
69.8284
 11
128.242
 21
69.7175
  0
LINE
  8
0
 10
128.242
 20
69.7175
 11
127.95
 21
69.6425
  0
LINE
  8
0
 10
127.95
 20
69.6425
 11
127.651
 21
69.6047
  0
LINE
  8
0
 10
127.651
 20
69.6047
 11
127.349
 21
69.6047
  0
LINE
  8
0
 10
-127.651
 20
69.6047
 11
-127.95
 21
69.6425
  0
LINE
  8
0
 10
-127.95
 20
69.6425
 11
-128.242
 21
69.7175
  0
LINE
  8
0
 10
-128.242
 20
69.7175
 11
-128.522
 21
69.8284
  0
LINE
  8
0
 10
-128.522
 20
69.8284
 11
-128.786
 21
69.9736
  0
LINE
  8
0
 10
-128.786
 20
69.9736
 11
-129.03
 21
70.1508
  0
LINE
  8
0
 10
-129.03
 20
70.1508
 11
-129.25
 21
70.3571
  0
LINE
  8
0
 10
-129.25
 20
70.3571
 11
-129.442
 21
70.5893
  0
LINE
  8
0
 10
-129.442
 20
70.5893
 11
-129.603
 21
70.8438
  0
LINE
  8
0
 10
-129.603
 20
70.8438
 11
-129.731
 21
71.1165
  0
LINE
  8
0
 10
-129.731
 20
71.1165
 11
-129.825
 21
71.4032
  0
LINE
  8
0
 10
-129.825
 20
71.4032
 11
-129.881
 21
71.6992
  0
LINE
  8
0
 10
-129.881
 20
71.6992
 11
-129.9
 21
72
  0
LINE
  8
0
 10
-129.9
 20
72
 11
-129.881
 21
72.3008
  0
LINE
  8
0
 10
-129.881
 20
72.3008
 11
-129.825
 21
72.5968
  0
LINE
  8
0
 10
-129.825
 20
72.5968
 11
-129.731
 21
72.8835
  0
LINE
  8
0
 10
-129.731
 20
72.8835
 11
-129.603
 21
73.1562
  0
LINE
  8
0
 10
-129.603
 20
73.1562
 11
-129.442
 21
73.4107
  0
LINE
  8
0
 10
-129.442
 20
73.4107
 11
-129.25
 21
73.6429
  0
LINE
  8
0
 10
-129.25
 20
73.6429
 11
-129.03
 21
73.8492
  0
LINE
  8
0
 10
-129.03
 20
73.8492
 11
-128.786
 21
74.0264
  0
LINE
  8
0
 10
-128.786
 20
74.0264
 11
-128.522
 21
74.1716
  0
LINE
  8
0
 10
-128.522
 20
74.1716
 11
-128.242
 21
74.2825
  0
LINE
  8
0
 10
-128.242
 20
74.2825
 11
-127.95
 21
74.3575
  0
LINE
  8
0
 10
-127.95
 20
74.3575
 11
-127.651
 21
74.3953
  0
LINE
  8
0
 10
-127.651
 20
74.3953
 11
-127.349
 21
74.3953
  0
LINE
  8
0
 10
-127.349
 20
74.3953
 11
-127.05
 21
74.3575
  0
LINE
  8
0
 10
-127.05
 20
74.3575
 11
-126.758
 21
74.2825
  0
LINE
  8
0
 10
-126.758
 20
74.2825
 11
-126.478
 21
74.1716
  0
LINE
  8
0
 10
-126.478
 20
74.1716
 11
-126.214
 21
74.0264
  0
LINE
  8
0
 10
-126.214
 20
74.0264
 11
-125.97
 21
73.8492
  0
LINE
  8
0
 10
-125.97
 20
73.8492
 11
-125.75
 21
73.6429
  0
LINE
  8
0
 10
-125.75
 20
73.6429
 11
-125.558
 21
73.4107
  0
LINE
  8
0
 10
-125.558
 20
73.4107
 11
-125.397
 21
73.1562
  0
LINE
  8
0
 10
-125.397
 20
73.1562
 11
-125.269
 21
72.8835
  0
LINE
  8
0
 10
-125.269
 20
72.8835
 11
-125.175
 21
72.5968
  0
LINE
  8
0
 10
-125.175
 20
72.5968
 11
-125.119
 21
72.3008
  0
LINE
  8
0
 10
-125.119
 20
72.3008
 11
-125.1
 21
72
  0
LINE
  8
0
 10
-125.1
 20
72
 11
-125.119
 21
71.6992
  0
LINE
  8
0
 10
-125.119
 20
71.6992
 11
-125.175
 21
71.4032
  0
LINE
  8
0
 10
-125.175
 20
71.4032
 11
-125.269
 21
71.1165
  0
LINE
  8
0
 10
-125.269
 20
71.1165
 11
-125.397
 21
70.8438
  0
LINE
  8
0
 10
-125.397
 20
70.8438
 11
-125.558
 21
70.5893
  0
LINE
  8
0
 10
-125.558
 20
70.5893
 11
-125.75
 21
70.3571
  0
LINE
  8
0
 10
-125.75
 20
70.3571
 11
-125.97
 21
70.1508
  0
LINE
  8
0
 10
-125.97
 20
70.1508
 11
-126.214
 21
69.9736
  0
LINE
  8
0
 10
-126.214
 20
69.9736
 11
-126.478
 21
69.8284
  0
LINE
  8
0
 10
-126.478
 20
69.8284
 11
-126.758
 21
69.7175
  0
LINE
  8
0
 10
-126.758
 20
69.7175
 11
-127.05
 21
69.6425
  0
LINE
  8
0
 10
-127.05
 20
69.6425
 11
-127.349
 21
69.6047
  0
LINE
  8
0
 10
-127.349
 20
69.6047
 11
-127.651
 21
69.6047
  0
LINE
  8
0
 10
130.937
 20
40.5886
 11
131.545
 21
40.7447
  0
LINE
  8
0
 10
131.545
 20
40.7447
 11
132.129
 21
40.9759
  0
LINE
  8
0
 10
132.129
 20
40.9759
 11
132.679
 21
41.2784
  0
LINE
  8
0
 10
132.679
 20
41.2784
 11
133.187
 21
41.6474
  0
LINE
  8
0
 10
133.187
 20
41.6474
 11
133.645
 21
42.0773
  0
LINE
  8
0
 10
133.645
 20
42.0773
 11
134.045
 21
42.5611
  0
LINE
  8
0
 10
134.045
 20
42.5611
 11
134.382
 21
43.0912
  0
LINE
  8
0
 10
134.382
 20
43.0912
 11
134.649
 21
43.6594
  0
LINE
  8
0
 10
134.649
 20
43.6594
 11
134.843
 21
44.2566
  0
LINE
  8
0
 10
134.843
 20
44.2566
 11
134.961
 21
44.8733
  0
LINE
  8
0
 10
134.961
 20
44.8733
 11
135
 21
45.5
  0
LINE
  8
0
 10
135
 20
45.5
 11
135
 21
50.5
  0
LINE
  8
0
 10
135
 20
50.5
 11
134.961
 21
51.1267
  0
LINE
  8
0
 10
134.961
 20
51.1267
 11
134.843
 21
51.7434
  0
LINE
  8
0
 10
134.843
 20
51.7434
 11
134.649
 21
52.3406
  0
LINE
  8
0
 10
134.649
 20
52.3406
 11
134.382
 21
52.9088
  0
LINE
  8
0
 10
134.382
 20
52.9088
 11
134.045
 21
53.4389
  0
LINE
  8
0
 10
134.045
 20
53.4389
 11
133.645
 21
53.9227
  0
LINE
  8
0
 10
133.645
 20
53.9227
 11
133.187
 21
54.3526
  0
LINE
  8
0
 10
133.187
 20
54.3526
 11
132.679
 21
54.7216
  0
LINE
  8
0
 10
132.679
 20
54.7216
 11
132.129
 21
55.0241
  0
LINE
  8
0
 10
132.129
 20
55.0241
 11
131.545
 21
55.2553
  0
LINE
  8
0
 10
131.545
 20
55.2553
 11
130.937
 21
55.4114
  0
LINE
  8
0
 10
130.937
 20
55.4114
 11
130.314
 21
55.4901
  0
LINE
  8
0
 10
130.314
 20
55.4901
 11
-130.314
 21
55.4901
  0
LINE
  8
0
 10
-130.314
 20
55.4901
 11
-130.937
 21
55.4114
  0
LINE
  8
0
 10
-130.937
 20
55.4114
 11
-131.545
 21
55.2553
  0
LINE
  8
0
 10
-131.545
 20
55.2553
 11
-132.129
 21
55.0241
  0
LINE
  8
0
 10
-132.129
 20
55.0241
 11
-132.679
 21
54.7216
  0
LINE
  8
0
 10
-132.679
 20
54.7216
 11
-133.187
 21
54.3526
  0
LINE
  8
0
 10
-133.187
 20
54.3526
 11
-133.645
 21
53.9227
  0
LINE
  8
0
 10
-133.645
 20
53.9227
 11
-134.045
 21
53.4389
  0
LINE
  8
0
 10
-134.045
 20
53.4389
 11
-134.382
 21
52.9088
  0
LINE
  8
0
 10
-134.382
 20
52.9088
 11
-134.649
 21
52.3406
  0
LINE
  8
0
 10
-134.649
 20
52.3406
 11
-134.843
 21
51.7434
  0
LINE
  8
0
 10
-134.843
 20
51.7434
 11
-134.9
 21
51.4442
  0
LINE
  8
0
 10
-134.9
 20
51.4442
 11
-136.5
 21
51.4442
  0
LINE
  8
0
 10
-136.5
 20
51.4442
 11
-136.5
 21
44.5558
  0
LINE
  8
0
 10
-136.5
 20
44.5558
 11
-134.9
 21
44.5558
  0
LINE
  8
0
 10
-134.9
 20
44.5558
 11
-134.843
 21
44.2566
  0
LINE
  8
0
 10
-134.843
 20
44.2566
 11
-134.649
 21
43.6594
  0
LINE
  8
0
 10
-134.649
 20
43.6594
 11
-134.382
 21
43.0912
  0
LINE
  8
0
 10
-134.382
 20
43.0912
 11
-134.045
 21
42.5611
  0
LINE
  8
0
 10
-134.045
 20
42.5611
 11
-133.645
 21
42.0773
  0
LINE
  8
0
 10
-133.645
 20
42.0773
 11
-133.187
 21
41.6474
  0
LINE
  8
0
 10
-133.187
 20
41.6474
 11
-132.679
 21
41.2784
  0
LINE
  8
0
 10
-132.679
 20
41.2784
 11
-132.129
 21
40.9759
  0
LINE
  8
0
 10
-132.129
 20
40.9759
 11
-131.545
 21
40.7447
  0
LINE
  8
0
 10
-131.545
 20
40.7447
 11
-130.937
 21
40.5886
  0
LINE
  8
0
 10
-130.937
 20
40.5886
 11
-130.314
 21
40.5099
  0
LINE
  8
0
 10
-130.314
 20
40.5099
 11
130.314
 21
40.5099
  0
LINE
  8
0
 10
130.314
 20
40.5099
 11
130.937
 21
40.5886
  0
LINE
  8
0
 10
-127.613
 20
46.2036
 11
-127.837
 21
46.2319
  0
LINE
  8
0
 10
-127.837
 20
46.2319
 11
-128.056
 21
46.2881
  0
LINE
  8
0
 10
-128.056
 20
46.2881
 11
-128.266
 21
46.3713
  0
LINE
  8
0
 10
-128.266
 20
46.3713
 11
-128.464
 21
46.4802
  0
LINE
  8
0
 10
-128.464
 20
46.4802
 11
-128.647
 21
46.6131
  0
LINE
  8
0
 10
-128.647
 20
46.6131
 11
-128.812
 21
46.7678
  0
LINE
  8
0
 10
-128.812
 20
46.7678
 11
-128.956
 21
46.942
  0
LINE
  8
0
 10
-128.956
 20
46.942
 11
-129.077
 21
47.1329
  0
LINE
  8
0
 10
-129.077
 20
47.1329
 11
-129.174
 21
47.3374
  0
LINE
  8
0
 10
-129.174
 20
47.3374
 11
-129.243
 21
47.5524
  0
LINE
  8
0
 10
-129.243
 20
47.5524
 11
-129.286
 21
47.7744
  0
LINE
  8
0
 10
-129.286
 20
47.7744
 11
-129.3
 21
48
  0
LINE
  8
0
 10
-129.3
 20
48
 11
-129.286
 21
48.2256
  0
LINE
  8
0
 10
-129.286
 20
48.2256
 11
-129.243
 21
48.4476
  0
LINE
  8
0
 10
-129.243
 20
48.4476
 11
-129.174
 21
48.6626
  0
LINE
  8
0
 10
-129.174
 20
48.6626
 11
-129.077
 21
48.8671
  0
LINE
  8
0
 10
-129.077
 20
48.8671
 11
-128.956
 21
49.058
  0
LINE
  8
0
 10
-128.956
 20
49.058
 11
-128.812
 21
49.2322
  0
LINE
  8
0
 10
-128.812
 20
49.2322
 11
-128.647
 21
49.3869
  0
LINE
  8
0
 10
-128.647
 20
49.3869
 11
-128.464
 21
49.5198
  0
LINE
  8
0
 10
-128.464
 20
49.5198
 11
-128.266
 21
49.6287
  0
LINE
  8
0
 10
-128.266
 20
49.6287
 11
-128.056
 21
49.7119
  0
LINE
  8
0
 10
-128.056
 20
49.7119
 11
-127.837
 21
49.7681
  0
LINE
  8
0
 10
-127.837
 20
49.7681
 11
-127.613
 21
49.7964
  0
LINE
  8
0
 10
-127.613
 20
49.7964
 11
-127.387
 21
49.7964
  0
LINE
  8
0
 10
-127.387
 20
49.7964
 11
-127.163
 21
49.7681
  0
LINE
  8
0
 10
-127.163
 20
49.7681
 11
-126.944
 21
49.7119
  0
LINE
  8
0
 10
-126.944
 20
49.7119
 11
-126.734
 21
49.6287
  0
LINE
  8
0
 10
-126.734
 20
49.6287
 11
-126.536
 21
49.5198
  0
LINE
  8
0
 10
-126.536
 20
49.5198
 11
-126.353
 21
49.3869
  0
LINE
  8
0
 10
-126.353
 20
49.3869
 11
-126.188
 21
49.2322
  0
LINE
  8
0
 10
-126.188
 20
49.2322
 11
-126.044
 21
49.058
  0
LINE
  8
0
 10
-126.044
 20
49.058
 11
-125.923
 21
48.8671
  0
LINE
  8
0
 10
-125.923
 20
48.8671
 11
-125.826
 21
48.6626
  0
LINE
  8
0
 10
-125.826
 20
48.6626
 11
-125.757
 21
48.4476
  0
LINE
  8
0
 10
-125.757
 20
48.4476
 11
-125.714
 21
48.2256
  0
LINE
  8
0
 10
-125.714
 20
48.2256
 11
-125.7
 21
48
  0
LINE
  8
0
 10
-125.7
 20
48
 11
-125.714
 21
47.7744
  0
LINE
  8
0
 10
-125.714
 20
47.7744
 11
-125.757
 21
47.5524
  0
LINE
  8
0
 10
-125.757
 20
47.5524
 11
-125.826
 21
47.3374
  0
LINE
  8
0
 10
-125.826
 20
47.3374
 11
-125.923
 21
47.1329
  0
LINE
  8
0
 10
-125.923
 20
47.1329
 11
-126.044
 21
46.942
  0
LINE
  8
0
 10
-126.044
 20
46.942
 11
-126.188
 21
46.7678
  0
LINE
  8
0
 10
-126.188
 20
46.7678
 11
-126.353
 21
46.6131
  0
LINE
  8
0
 10
-126.353
 20
46.6131
 11
-126.536
 21
46.4802
  0
LINE
  8
0
 10
-126.536
 20
46.4802
 11
-126.734
 21
46.3713
  0
LINE
  8
0
 10
-126.734
 20
46.3713
 11
-126.944
 21
46.2881
  0
LINE
  8
0
 10
-126.944
 20
46.2881
 11
-127.163
 21
46.2319
  0
LINE
  8
0
 10
-127.163
 20
46.2319
 11
-127.387
 21
46.2036
  0
LINE
  8
0
 10
-127.387
 20
46.2036
 11
-127.613
 21
46.2036
  0
LINE
  8
0
 10
127.387
 20
46.2036
 11
127.163
 21
46.2319
  0
LINE
  8
0
 10
127.163
 20
46.2319
 11
126.944
 21
46.2881
  0
LINE
  8
0
 10
126.944
 20
46.2881
 11
126.734
 21
46.3713
  0
LINE
  8
0
 10
126.734
 20
46.3713
 11
126.536
 21
46.4802
  0
LINE
  8
0
 10
126.536
 20
46.4802
 11
126.353
 21
46.6131
  0
LINE
  8
0
 10
126.353
 20
46.6131
 11
126.188
 21
46.7678
  0
LINE
  8
0
 10
126.188
 20
46.7678
 11
126.044
 21
46.942
  0
LINE
  8
0
 10
126.044
 20
46.942
 11
125.923
 21
47.1329
  0
LINE
  8
0
 10
125.923
 20
47.1329
 11
125.826
 21
47.3374
  0
LINE
  8
0
 10
125.826
 20
47.3374
 11
125.757
 21
47.5524
  0
LINE
  8
0
 10
125.757
 20
47.5524
 11
125.714
 21
47.7744
  0
LINE
  8
0
 10
125.714
 20
47.7744
 11
125.7
 21
48
  0
LINE
  8
0
 10
125.7
 20
48
 11
125.714
 21
48.2256
  0
LINE
  8
0
 10
125.714
 20
48.2256
 11
125.757
 21
48.4476
  0
LINE
  8
0
 10
125.757
 20
48.4476
 11
125.826
 21
48.6626
  0
LINE
  8
0
 10
125.826
 20
48.6626
 11
125.923
 21
48.8671
  0
LINE
  8
0
 10
125.923
 20
48.8671
 11
126.044
 21
49.058
  0
LINE
  8
0
 10
126.044
 20
49.058
 11
126.188
 21
49.2322
  0
LINE
  8
0
 10
126.188
 20
49.2322
 11
126.353
 21
49.3869
  0
LINE
  8
0
 10
126.353
 20
49.3869
 11
126.536
 21
49.5198
  0
LINE
  8
0
 10
126.536
 20
49.5198
 11
126.734
 21
49.6287
  0
LINE
  8
0
 10
126.734
 20
49.6287
 11
126.944
 21
49.7119
  0
LINE
  8
0
 10
126.944
 20
49.7119
 11
127.163
 21
49.7681
  0
LINE
  8
0
 10
127.163
 20
49.7681
 11
127.387
 21
49.7964
  0
LINE
  8
0
 10
127.387
 20
49.7964
 11
127.613
 21
49.7964
  0
LINE
  8
0
 10
127.613
 20
49.7964
 11
127.837
 21
49.7681
  0
LINE
  8
0
 10
127.837
 20
49.7681
 11
128.056
 21
49.7119
  0
LINE
  8
0
 10
128.056
 20
49.7119
 11
128.266
 21
49.6287
  0
LINE
  8
0
 10
128.266
 20
49.6287
 11
128.464
 21
49.5198
  0
LINE
  8
0
 10
128.464
 20
49.5198
 11
128.647
 21
49.3869
  0
LINE
  8
0
 10
128.647
 20
49.3869
 11
128.812
 21
49.2322
  0
LINE
  8
0
 10
128.812
 20
49.2322
 11
128.956
 21
49.058
  0
LINE
  8
0
 10
128.956
 20
49.058
 11
129.077
 21
48.8671
  0
LINE
  8
0
 10
129.077
 20
48.8671
 11
129.174
 21
48.6626
  0
LINE
  8
0
 10
129.174
 20
48.6626
 11
129.243
 21
48.4476
  0
LINE
  8
0
 10
129.243
 20
48.4476
 11
129.286
 21
48.2256
  0
LINE
  8
0
 10
129.286
 20
48.2256
 11
129.3
 21
48
  0
LINE
  8
0
 10
129.3
 20
48
 11
129.286
 21
47.7744
  0
LINE
  8
0
 10
129.286
 20
47.7744
 11
129.243
 21
47.5524
  0
LINE
  8
0
 10
129.243
 20
47.5524
 11
129.174
 21
47.3374
  0
LINE
  8
0
 10
129.174
 20
47.3374
 11
129.077
 21
47.1329
  0
LINE
  8
0
 10
129.077
 20
47.1329
 11
128.956
 21
46.942
  0
LINE
  8
0
 10
128.956
 20
46.942
 11
128.812
 21
46.7678
  0
LINE
  8
0
 10
128.812
 20
46.7678
 11
128.647
 21
46.6131
  0
LINE
  8
0
 10
128.647
 20
46.6131
 11
128.464
 21
46.4802
  0
LINE
  8
0
 10
128.464
 20
46.4802
 11
128.266
 21
46.3713
  0
LINE
  8
0
 10
128.266
 20
46.3713
 11
128.056
 21
46.2881
  0
LINE
  8
0
 10
128.056
 20
46.2881
 11
127.837
 21
46.2319
  0
LINE
  8
0
 10
127.837
 20
46.2319
 11
127.613
 21
46.2036
  0
LINE
  8
0
 10
127.613
 20
46.2036
 11
127.387
 21
46.2036
  0
ENDSEC
  0
SECTION
  2
OBJECTS
  0
DICTIONARY
  0
ENDSEC
  0
EOF
