<?xml version="1.0" standalone="no"?>
<!DOCTYPE svg PUBLIC "-//W3C//DTD SVG 1.1//EN" "http://www.w3.org/Graphics/SVG/1.1/DTD/svg11.dtd">
<svg width="302mm" height="486mm" viewBox="-152 -936 302 486" xmlns="http://www.w3.org/2000/svg" version="1.1">
<title>OpenSCAD Model</title>
<path d="
M -148.5,-847.441 L -148.187,-847.147 L -147.679,-846.778 L -147.129,-846.476 L -146.545,-846.245 L -145.937,-846.089
 L -145.314,-846.01 L 145.314,-846.01 L 145.937,-846.089 L 146.545,-846.245 L 147.129,-846.476 L 147.679,-846.778
 L 148.187,-847.147 L 148.645,-847.577 L 149.045,-848.061 L 149.382,-848.591 L 149.649,-849.159 L 149.843,-849.757
 L 149.961,-850.373 L 150,-851 L 150,-931 L 149.961,-931.627 L 149.843,-932.243 L 149.649,-932.841
 L 149.382,-933.409 L 149.045,-933.939 L 148.645,-934.423 L 148.187,-934.853 L 147.679,-935.222 L 147.129,-935.524
 L 146.545,-935.755 L 145.937,-935.911 L 145.314,-935.99 L -145.314,-935.99 L -145.937,-935.911 L -146.545,-935.755
 L -147.129,-935.524 L -147.679,-935.222 L -148.187,-934.853 L -148.5,-934.559 L -148.5,-935.99 L -151.5,-935.99
 L -151.5,-846.01 L -148.5,-846.01 z
M -144.751,-847.508 L -145.25,-847.571 L -145.736,-847.696 L -146.203,-847.881 L -146.643,-848.123 L -147.05,-848.418
 L -147.416,-848.762 L -147.736,-849.149 L -148.005,-849.573 L -148.219,-850.028 L -148.374,-850.505 L -148.468,-850.999
 L -148.5,-851.5 L -148.5,-930.5 L -148.468,-931.001 L -148.374,-931.495 L -148.219,-931.972 L -148.005,-932.427
 L -147.736,-932.851 L -147.416,-933.238 L -147.05,-933.582 L -146.643,-933.877 L -146.203,-934.119 L -145.736,-934.304
 L -145.25,-934.429 L -144.751,-934.492 L 144.751,-934.492 L 145.25,-934.429 L 145.736,-934.304 L 146.203,-934.119
 L 146.643,-933.877 L 147.05,-933.582 L 147.416,-933.238 L 147.736,-932.851 L 148.005,-932.427 L 148.219,-931.972
 L 148.374,-931.495 L 148.468,-931.001 L 148.5,-930.5 L 148.5,-851.5 L 148.468,-850.999 L 148.374,-850.505
 L 148.219,-850.028 L 148.005,-849.573 L 147.736,-849.149 L 147.416,-848.762 L 147.05,-848.418 L 146.643,-848.123
 L 146.203,-847.881 L 145.736,-847.696 L 145.25,-847.571 L 144.751,-847.508 z
M -148.5,-748.441 L -148.187,-748.147 L -147.679,-747.778 L -147.129,-747.476 L -146.545,-747.245 L -145.937,-747.089
 L -145.314,-747.01 L 145.314,-747.01 L 145.937,-747.089 L 146.545,-747.245 L 147.129,-747.476 L 147.679,-747.778
 L 148.187,-748.147 L 148.645,-748.577 L 149.045,-749.061 L 149.382,-749.591 L 149.649,-750.159 L 149.843,-750.757
 L 149.961,-751.373 L 150,-752 L 150,-832 L 149.961,-832.627 L 149.843,-833.243 L 149.649,-833.841
 L 149.382,-834.409 L 149.045,-834.939 L 148.645,-835.423 L 148.187,-835.853 L 147.679,-836.222 L 147.129,-836.524
 L 146.545,-836.755 L 145.937,-836.911 L 145.314,-836.99 L -145.314,-836.99 L -145.937,-836.911 L -146.545,-836.755
 L -147.129,-836.524 L -147.679,-836.222 L -148.187,-835.853 L -148.5,-835.559 L -148.5,-836.99 L -151.5,-836.99
 L -151.5,-747.01 L -148.5,-747.01 z
M -144.751,-748.508 L -145.25,-748.571 L -145.736,-748.696 L -146.203,-748.881 L -146.643,-749.123 L -147.05,-749.418
 L -147.416,-749.762 L -147.736,-750.149 L -148.005,-750.573 L -148.219,-751.028 L -148.374,-751.505 L -148.468,-751.999
 L -148.5,-752.5 L -148.5,-831.5 L -148.468,-832.001 L -148.374,-832.495 L -148.219,-832.972 L -148.005,-833.427
 L -147.736,-833.851 L -147.416,-834.238 L -147.05,-834.582 L -146.643,-834.877 L -146.203,-835.119 L -145.736,-835.304
 L -145.25,-835.429 L -144.751,-835.492 L 144.751,-835.492 L 145.25,-835.429 L 145.736,-835.304 L 146.203,-835.119
 L 146.643,-834.877 L 147.05,-834.582 L 147.416,-834.238 L 147.736,-833.851 L 148.005,-833.427 L 148.219,-832.972
 L 148.374,-832.495 L 148.468,-832.001 L 148.5,-831.5 L 148.5,-752.5 L 148.468,-751.999 L 148.374,-751.505
 L 148.219,-751.028 L 148.005,-750.573 L 147.736,-750.149 L 147.416,-749.762 L 147.05,-749.418 L 146.643,-749.123
 L 146.203,-748.881 L 145.736,-748.696 L 145.25,-748.571 L 144.751,-748.508 z
M -148.5,-649.441 L -148.187,-649.147 L -147.679,-648.778 L -147.129,-648.476 L -146.545,-648.245 L -145.937,-648.089
 L -145.314,-648.01 L 145.314,-648.01 L 145.937,-648.089 L 146.545,-648.245 L 147.129,-648.476 L 147.679,-648.778
 L 148.187,-649.147 L 148.645,-649.577 L 149.045,-650.061 L 149.382,-650.591 L 149.649,-651.159 L 149.843,-651.757
 L 149.961,-652.373 L 150,-653 L 150,-733 L 149.961,-733.627 L 149.843,-734.243 L 149.649,-734.841
 L 149.382,-735.409 L 149.045,-735.939 L 148.645,-736.423 L 148.187,-736.853 L 147.679,-737.222 L 147.129,-737.524
 L 146.545,-737.755 L 145.937,-737.911 L 145.314,-737.99 L -145.314,-737.99 L -145.937,-737.911 L -146.545,-737.755
 L -147.129,-737.524 L -147.679,-737.222 L -148.187,-736.853 L -148.5,-736.559 L -148.5,-737.99 L -151.5,-737.99
 L -151.5,-648.01 L -148.5,-648.01 z
M -144.751,-649.508 L -145.25,-649.571 L -145.736,-649.696 L -146.203,-649.881 L -146.643,-650.123 L -147.05,-650.418
 L -147.416,-650.762 L -147.736,-651.149 L -148.005,-651.573 L -148.219,-652.028 L -148.374,-652.505 L -148.468,-652.999
 L -148.5,-653.5 L -148.5,-732.5 L -148.468,-733.001 L -148.374,-733.495 L -148.219,-733.972 L -148.005,-734.427
 L -147.736,-734.851 L -147.416,-735.238 L -147.05,-735.582 L -146.643,-735.877 L -146.203,-736.119 L -145.736,-736.304
 L -145.25,-736.429 L -144.751,-736.492 L 144.751,-736.492 L 145.25,-736.429 L 145.736,-736.304 L 146.203,-736.119
 L 146.643,-735.877 L 147.05,-735.582 L 147.416,-735.238 L 147.736,-734.851 L 148.005,-734.427 L 148.219,-733.972
 L 148.374,-733.495 L 148.468,-733.001 L 148.5,-732.5 L 148.5,-653.5 L 148.468,-652.999 L 148.374,-652.505
 L 148.219,-652.028 L 148.005,-651.573 L 147.736,-651.149 L 147.416,-650.762 L 147.05,-650.418 L 146.643,-650.123
 L 146.203,-649.881 L 145.736,-649.696 L 145.25,-649.571 L 144.751,-649.508 z
M 145.937,-549.089 L 146.545,-549.245 L 147.129,-549.476 L 147.679,-549.778 L 148.187,-550.147 L 148.645,-550.577
 L 149.045,-551.061 L 149.382,-551.591 L 149.649,-552.159 L 149.843,-552.757 L 149.961,-553.373 L 150,-554
 L 150,-634 L 149.961,-634.627 L 149.843,-635.243 L 149.649,-635.841 L 149.382,-636.409 L 149.045,-636.939
 L 148.645,-637.423 L 148.187,-637.853 L 147.679,-638.222 L 147.129,-638.524 L 146.545,-638.755 L 145.937,-638.911
 L 145.314,-638.99 L -145.314,-638.99 L -145.937,-638.911 L -146.545,-638.755 L -147.129,-638.524 L -147.679,-638.222
 L -148.187,-637.853 L -148.5,-637.559 L -148.5,-638.979 L -151.5,-638.979 L -151.5,-549.021 L -148.5,-549.021
 L -148.5,-550.441 L -148.187,-550.147 L -147.679,-549.778 L -147.129,-549.476 L -146.545,-549.245 L -145.937,-549.089
 L -145.314,-549.01 L 145.314,-549.01 z
M -144.695,-551.393 L -145.083,-551.442 L -145.462,-551.539 L -145.825,-551.683 L -146.168,-551.872 L -146.484,-552.101
 L -146.769,-552.369 L -147.018,-552.67 L -147.228,-553 L -147.394,-553.354 L -147.515,-553.726 L -147.588,-554.11
 L -147.613,-554.5 L -147.613,-633.5 L -147.588,-633.89 L -147.515,-634.274 L -147.394,-634.646 L -147.228,-635
 L -147.018,-635.33 L -146.769,-635.631 L -146.484,-635.899 L -146.168,-636.128 L -145.825,-636.317 L -145.462,-636.461
 L -145.083,-636.558 L -144.695,-636.607 L 144.695,-636.607 L 145.083,-636.558 L 145.462,-636.461 L 145.825,-636.317
 L 146.168,-636.128 L 146.484,-635.899 L 146.769,-635.631 L 147.018,-635.33 L 147.228,-635 L 147.394,-634.646
 L 147.515,-634.274 L 147.588,-633.89 L 147.613,-633.5 L 147.613,-554.5 L 147.588,-554.11 L 147.515,-553.726
 L 147.394,-553.354 L 147.228,-553 L 147.018,-552.67 L 146.769,-552.369 L 146.484,-552.101 L 146.168,-551.872
 L 145.825,-551.683 L 145.462,-551.539 L 145.083,-551.442 L 144.695,-551.393 z
M 145.937,-450.089 L 146.545,-450.245 L 147.129,-450.476 L 147.679,-450.778 L 148.187,-451.147 L 148.645,-451.577
 L 149.045,-452.061 L 149.382,-452.591 L 149.649,-453.159 L 149.843,-453.757 L 149.961,-454.373 L 150,-455
 L 150,-535 L 149.961,-535.627 L 149.843,-536.243 L 149.649,-536.841 L 149.382,-537.409 L 149.045,-537.939
 L 148.645,-538.423 L 148.187,-538.853 L 147.679,-539.222 L 147.129,-539.524 L 146.545,-539.755 L 145.937,-539.911
 L 145.314,-539.99 L -145.314,-539.99 L -145.937,-539.911 L -146.545,-539.755 L -147.129,-539.524 L -147.679,-539.222
 L -148.187,-538.853 L -148.5,-538.559 L -148.5,-538.653 L -151.5,-538.653 L -151.5,-451.347 L -148.5,-451.347
 L -148.5,-451.441 L -148.187,-451.147 L -147.679,-450.778 L -147.129,-450.476 L -146.545,-450.245 L -145.937,-450.089
 L -145.314,-450.01 L 145.314,-450.01 z
M -142.634,-530.369 L -142.9,-530.403 L -143.16,-530.469 L -143.409,-530.568 L -143.644,-530.697 L -143.861,-530.855
 L -144.057,-531.038 L -144.227,-531.245 L -144.371,-531.471 L -144.485,-531.714 L -144.568,-531.969 L -144.618,-532.232
 L -144.635,-532.5 L -144.618,-532.768 L -144.568,-533.031 L -144.485,-533.286 L -144.371,-533.529 L -144.227,-533.755
 L -144.057,-533.962 L -143.861,-534.145 L -143.644,-534.303 L -143.409,-534.432 L -143.16,-534.531 L -142.9,-534.597
 L -142.634,-534.631 L -142.366,-534.631 L -142.1,-534.597 L -141.84,-534.531 L -141.591,-534.432 L -141.356,-534.303
 L -141.139,-534.145 L -140.943,-533.962 L -140.773,-533.755 L -140.629,-533.529 L -140.515,-533.286 L -140.432,-533.031
 L -140.382,-532.768 L -140.365,-532.5 L -140.382,-532.232 L -140.432,-531.969 L -140.515,-531.714 L -140.629,-531.471
 L -140.773,-531.245 L -140.943,-531.038 L -141.139,-530.855 L -141.356,-530.697 L -141.591,-530.568 L -141.84,-530.469
 L -142.1,-530.403 L -142.366,-530.369 z
M 142.366,-530.369 L 142.1,-530.403 L 141.84,-530.469 L 141.591,-530.568 L 141.356,-530.697 L 141.139,-530.855
 L 140.943,-531.038 L 140.773,-531.245 L 140.629,-531.471 L 140.515,-531.714 L 140.432,-531.969 L 140.382,-532.232
 L 140.365,-532.5 L 140.382,-532.768 L 140.432,-533.031 L 140.515,-533.286 L 140.629,-533.529 L 140.773,-533.755
 L 140.943,-533.962 L 141.139,-534.145 L 141.356,-534.303 L 141.591,-534.432 L 141.84,-534.531 L 142.1,-534.597
 L 142.366,-534.631 L 142.634,-534.631 L 142.9,-534.597 L 143.16,-534.531 L 143.409,-534.432 L 143.644,-534.303
 L 143.861,-534.145 L 144.057,-533.962 L 144.227,-533.755 L 144.371,-533.529 L 144.485,-533.286 L 144.568,-533.031
 L 144.618,-532.768 L 144.635,-532.5 L 144.618,-532.232 L 144.568,-531.969 L 144.485,-531.714 L 144.371,-531.471
 L 144.227,-531.245 L 144.057,-531.038 L 143.861,-530.855 L 143.644,-530.697 L 143.409,-530.568 L 143.16,-530.469
 L 142.9,-530.403 L 142.634,-530.369 z
M -142.634,-455.369 L -142.9,-455.403 L -143.16,-455.469 L -143.409,-455.568 L -143.644,-455.697 L -143.861,-455.855
 L -144.057,-456.038 L -144.227,-456.245 L -144.371,-456.471 L -144.485,-456.714 L -144.568,-456.969 L -144.618,-457.232
 L -144.635,-457.5 L -144.618,-457.768 L -144.568,-458.031 L -144.485,-458.286 L -144.371,-458.529 L -144.227,-458.755
 L -144.057,-458.962 L -143.861,-459.145 L -143.644,-459.303 L -143.409,-459.432 L -143.16,-459.531 L -142.9,-459.597
 L -142.634,-459.631 L -142.366,-459.631 L -142.1,-459.597 L -141.84,-459.531 L -141.591,-459.432 L -141.356,-459.303
 L -141.139,-459.145 L -140.943,-458.962 L -140.773,-458.755 L -140.629,-458.529 L -140.515,-458.286 L -140.432,-458.031
 L -140.382,-457.768 L -140.365,-457.5 L -140.382,-457.232 L -140.432,-456.969 L -140.515,-456.714 L -140.629,-456.471
 L -140.773,-456.245 L -140.943,-456.038 L -141.139,-455.855 L -141.356,-455.697 L -141.591,-455.568 L -141.84,-455.469
 L -142.1,-455.403 L -142.366,-455.369 z
M 142.366,-455.369 L 142.1,-455.403 L 141.84,-455.469 L 141.591,-455.568 L 141.356,-455.697 L 141.139,-455.855
 L 140.943,-456.038 L 140.773,-456.245 L 140.629,-456.471 L 140.515,-456.714 L 140.432,-456.969 L 140.382,-457.232
 L 140.365,-457.5 L 140.382,-457.768 L 140.432,-458.031 L 140.515,-458.286 L 140.629,-458.529 L 140.773,-458.755
 L 140.943,-458.962 L 141.139,-459.145 L 141.356,-459.303 L 141.591,-459.432 L 141.84,-459.531 L 142.1,-459.597
 L 142.366,-459.631 L 142.634,-459.631 L 142.9,-459.597 L 143.16,-459.531 L 143.409,-459.432 L 143.644,-459.303
 L 143.861,-459.145 L 144.057,-458.962 L 144.227,-458.755 L 144.371,-458.529 L 144.485,-458.286 L 144.568,-458.031
 L 144.618,-457.768 L 144.635,-457.5 L 144.618,-457.232 L 144.568,-456.969 L 144.485,-456.714 L 144.371,-456.471
 L 144.227,-456.245 L 144.057,-456.038 L 143.861,-455.855 L 143.644,-455.697 L 143.409,-455.568 L 143.16,-455.469
 L 142.9,-455.403 L 142.634,-455.369 z
" stroke="black" fill="lightgray" stroke-width="0.5"/>
</svg>
