<?xml version="1.0" standalone="no"?>
<!DOCTYPE svg PUBLIC "-//W3C//DTD SVG 1.1//EN" "http://www.w3.org/Graphics/SVG/1.1/DTD/svg11.dtd">
<svg width="287mm" height="118mm" viewBox="-144 -201 287 118" xmlns="http://www.w3.org/2000/svg" version="1.1">
<title>OpenSCAD Model</title>
<path d="
M -141,-179.191 L -140.687,-178.897 L -140.179,-178.528 L -139.629,-178.226 L -139.045,-177.995 L -138.437,-177.839
 L -137.814,-177.76 L 137.814,-177.76 L 138.437,-177.839 L 139.045,-177.995 L 139.629,-178.226 L 140.179,-178.528
 L 140.687,-178.897 L 141.145,-179.327 L 141.545,-179.811 L 141.882,-180.341 L 142.149,-180.909 L 142.343,-181.507
 L 142.461,-182.123 L 142.5,-182.75 L 142.5,-195.25 L 142.461,-195.877 L 142.343,-196.493 L 142.149,-197.091
 L 141.882,-197.659 L 141.545,-198.189 L 141.145,-198.673 L 140.687,-199.103 L 140.179,-199.472 L 139.629,-199.774
 L 139.045,-200.005 L 138.437,-200.161 L 137.814,-200.24 L -137.814,-200.24 L -138.437,-200.161 L -139.045,-200.005
 L -139.629,-199.774 L -140.179,-199.472 L -140.687,-199.103 L -141,-198.809 L -141,-200.24 L -144,-200.24
 L -144,-177.76 L -141,-177.76 z
M -137.251,-179.258 L -137.75,-179.321 L -138.236,-179.446 L -138.703,-179.631 L -139.143,-179.873 L -139.55,-180.168
 L -139.916,-180.512 L -140.236,-180.899 L -140.505,-181.323 L -140.719,-181.778 L -140.874,-182.255 L -140.968,-182.749
 L -141,-183.25 L -141,-194.75 L -140.968,-195.251 L -140.874,-195.745 L -140.719,-196.222 L -140.505,-196.677
 L -140.236,-197.101 L -139.916,-197.488 L -139.55,-197.832 L -139.143,-198.127 L -138.703,-198.369 L -138.236,-198.554
 L -137.75,-198.679 L -137.251,-198.742 L 137.251,-198.742 L 137.75,-198.679 L 138.236,-198.554 L 138.703,-198.369
 L 139.143,-198.127 L 139.55,-197.832 L 139.916,-197.488 L 140.236,-197.101 L 140.505,-196.677 L 140.719,-196.222
 L 140.874,-195.745 L 140.968,-195.251 L 141,-194.75 L 141,-183.25 L 140.968,-182.749 L 140.874,-182.255
 L 140.719,-181.778 L 140.505,-181.323 L 140.236,-180.899 L 139.916,-180.512 L 139.55,-180.168 L 139.143,-179.873
 L 138.703,-179.631 L 138.236,-179.446 L 137.75,-179.321 L 137.251,-179.258 z
M -141,-147.691 L -140.687,-147.397 L -140.179,-147.028 L -139.629,-146.726 L -139.045,-146.495 L -138.437,-146.339
 L -137.814,-146.26 L 137.814,-146.26 L 138.437,-146.339 L 139.045,-146.495 L 139.629,-146.726 L 140.179,-147.028
 L 140.687,-147.397 L 141.145,-147.827 L 141.545,-148.311 L 141.882,-148.841 L 142.149,-149.409 L 142.343,-150.007
 L 142.461,-150.623 L 142.5,-151.25 L 142.5,-163.75 L 142.461,-164.377 L 142.343,-164.993 L 142.149,-165.591
 L 141.882,-166.159 L 141.545,-166.689 L 141.145,-167.173 L 140.687,-167.603 L 140.179,-167.972 L 139.629,-168.274
 L 139.045,-168.505 L 138.437,-168.661 L 137.814,-168.74 L -137.814,-168.74 L -138.437,-168.661 L -139.045,-168.505
 L -139.629,-168.274 L -140.179,-167.972 L -140.687,-167.603 L -141,-167.309 L -141,-168.74 L -144,-168.74
 L -144,-146.26 L -141,-146.26 z
M -137.243,-147.885 L -137.726,-147.946 L -138.197,-148.067 L -138.649,-148.246 L -139.075,-148.48 L -139.469,-148.766
 L -139.823,-149.099 L -140.133,-149.474 L -140.394,-149.884 L -140.601,-150.324 L -140.751,-150.787 L -140.842,-151.265
 L -140.873,-151.75 L -140.873,-163.25 L -140.842,-163.735 L -140.751,-164.213 L -140.601,-164.676 L -140.394,-165.116
 L -140.133,-165.526 L -139.823,-165.901 L -139.469,-166.234 L -139.075,-166.52 L -138.649,-166.754 L -138.197,-166.933
 L -137.726,-167.054 L -137.243,-167.115 L 137.243,-167.115 L 137.726,-167.054 L 138.197,-166.933 L 138.649,-166.754
 L 139.075,-166.52 L 139.469,-166.234 L 139.823,-165.901 L 140.133,-165.526 L 140.394,-165.116 L 140.601,-164.676
 L 140.751,-164.213 L 140.842,-163.735 L 140.873,-163.25 L 140.873,-151.75 L 140.842,-151.265 L 140.751,-150.787
 L 140.601,-150.324 L 140.394,-149.884 L 140.133,-149.474 L 139.823,-149.099 L 139.469,-148.766 L 139.075,-148.48
 L 138.649,-148.246 L 138.197,-148.067 L 137.726,-147.946 L 137.243,-147.885 z
M 138.437,-114.839 L 139.045,-114.995 L 139.629,-115.226 L 140.179,-115.528 L 140.687,-115.897 L 141.145,-116.327
 L 141.545,-116.811 L 141.882,-117.341 L 142.149,-117.909 L 142.343,-118.507 L 142.461,-119.123 L 142.5,-119.75
 L 142.5,-132.25 L 142.461,-132.877 L 142.343,-133.493 L 142.149,-134.091 L 141.882,-134.659 L 141.545,-135.189
 L 141.145,-135.673 L 140.687,-136.103 L 140.179,-136.472 L 139.629,-136.774 L 139.045,-137.005 L 138.437,-137.161
 L 137.814,-137.24 L -137.814,-137.24 L -138.437,-137.161 L -139.045,-137.005 L -139.629,-136.774 L -140.179,-136.472
 L -140.687,-136.103 L -141,-135.809 L -141,-136.865 L -144,-136.865 L -144,-115.135 L -141,-115.135
 L -141,-116.191 L -140.687,-115.897 L -140.179,-115.528 L -139.629,-115.226 L -139.045,-114.995 L -138.437,-114.839
 L -137.814,-114.76 L 137.814,-114.76 z
M 134.849,-127.355 L 134.55,-127.393 L 134.258,-127.467 L 133.978,-127.578 L 133.714,-127.724 L 133.47,-127.901
 L 133.25,-128.107 L 133.058,-128.339 L 132.897,-128.594 L 132.769,-128.867 L 132.675,-129.153 L 132.619,-129.449
 L 132.6,-129.75 L 132.619,-130.051 L 132.675,-130.347 L 132.769,-130.633 L 132.897,-130.906 L 133.058,-131.161
 L 133.25,-131.393 L 133.47,-131.599 L 133.714,-131.776 L 133.978,-131.922 L 134.258,-132.033 L 134.55,-132.107
 L 134.849,-132.145 L 135.151,-132.145 L 135.45,-132.107 L 135.742,-132.033 L 136.022,-131.922 L 136.286,-131.776
 L 136.53,-131.599 L 136.75,-131.393 L 136.942,-131.161 L 137.103,-130.906 L 137.231,-130.633 L 137.325,-130.347
 L 137.381,-130.051 L 137.4,-129.75 L 137.381,-129.449 L 137.325,-129.153 L 137.231,-128.867 L 137.103,-128.594
 L 136.942,-128.339 L 136.75,-128.107 L 136.53,-127.901 L 136.286,-127.724 L 136.022,-127.578 L 135.742,-127.467
 L 135.45,-127.393 L 135.151,-127.355 z
M -135.151,-127.355 L -135.45,-127.393 L -135.742,-127.467 L -136.022,-127.578 L -136.286,-127.724 L -136.53,-127.901
 L -136.75,-128.107 L -136.942,-128.339 L -137.103,-128.594 L -137.231,-128.867 L -137.325,-129.153 L -137.381,-129.449
 L -137.4,-129.75 L -137.381,-130.051 L -137.325,-130.347 L -137.231,-130.633 L -137.103,-130.906 L -136.942,-131.161
 L -136.75,-131.393 L -136.53,-131.599 L -136.286,-131.776 L -136.022,-131.922 L -135.742,-132.033 L -135.45,-132.107
 L -135.151,-132.145 L -134.849,-132.145 L -134.55,-132.107 L -134.258,-132.033 L -133.978,-131.922 L -133.714,-131.776
 L -133.47,-131.599 L -133.25,-131.393 L -133.058,-131.161 L -132.897,-130.906 L -132.769,-130.633 L -132.675,-130.347
 L -132.619,-130.051 L -132.6,-129.75 L -132.619,-129.449 L -132.675,-129.153 L -132.769,-128.867 L -132.897,-128.594
 L -133.058,-128.339 L -133.25,-128.107 L -133.47,-127.901 L -133.714,-127.724 L -133.978,-127.578 L -134.258,-127.467
 L -134.55,-127.393 L -134.849,-127.355 z
M 134.849,-119.855 L 134.55,-119.893 L 134.258,-119.967 L 133.978,-120.078 L 133.714,-120.224 L 133.47,-120.401
 L 133.25,-120.607 L 133.058,-120.839 L 132.897,-121.094 L 132.769,-121.367 L 132.675,-121.653 L 132.619,-121.949
 L 132.6,-122.25 L 132.619,-122.551 L 132.675,-122.847 L 132.769,-123.133 L 132.897,-123.406 L 133.058,-123.661
 L 133.25,-123.893 L 133.47,-124.099 L 133.714,-124.276 L 133.978,-124.422 L 134.258,-124.533 L 134.55,-124.607
 L 134.849,-124.645 L 135.151,-124.645 L 135.45,-124.607 L 135.742,-124.533 L 136.022,-124.422 L 136.286,-124.276
 L 136.53,-124.099 L 136.75,-123.893 L 136.942,-123.661 L 137.103,-123.406 L 137.231,-123.133 L 137.325,-122.847
 L 137.381,-122.551 L 137.4,-122.25 L 137.381,-121.949 L 137.325,-121.653 L 137.231,-121.367 L 137.103,-121.094
 L 136.942,-120.839 L 136.75,-120.607 L 136.53,-120.401 L 136.286,-120.224 L 136.022,-120.078 L 135.742,-119.967
 L 135.45,-119.893 L 135.151,-119.855 z
M -135.151,-119.855 L -135.45,-119.893 L -135.742,-119.967 L -136.022,-120.078 L -136.286,-120.224 L -136.53,-120.401
 L -136.75,-120.607 L -136.942,-120.839 L -137.103,-121.094 L -137.231,-121.367 L -137.325,-121.653 L -137.381,-121.949
 L -137.4,-122.25 L -137.381,-122.551 L -137.325,-122.847 L -137.231,-123.133 L -137.103,-123.406 L -136.942,-123.661
 L -136.75,-123.893 L -136.53,-124.099 L -136.286,-124.276 L -136.022,-124.422 L -135.742,-124.533 L -135.45,-124.607
 L -135.151,-124.645 L -134.849,-124.645 L -134.55,-124.607 L -134.258,-124.533 L -133.978,-124.422 L -133.714,-124.276
 L -133.47,-124.099 L -133.25,-123.893 L -133.058,-123.661 L -132.897,-123.406 L -132.769,-123.133 L -132.675,-122.847
 L -132.619,-122.551 L -132.6,-122.25 L -132.619,-121.949 L -132.675,-121.653 L -132.769,-121.367 L -132.897,-121.094
 L -133.058,-120.839 L -133.25,-120.607 L -133.47,-120.401 L -133.714,-120.224 L -133.978,-120.078 L -134.258,-119.967
 L -134.55,-119.893 L -134.849,-119.855 z
M 138.437,-83.3386 L 139.045,-83.4947 L 139.629,-83.7259 L 140.179,-84.0284 L 140.687,-84.3974 L 141.145,-84.8273
 L 141.545,-85.3111 L 141.882,-85.8412 L 142.149,-86.4094 L 142.343,-87.0066 L 142.461,-87.6233 L 142.5,-88.25
 L 142.5,-100.75 L 142.461,-101.377 L 142.343,-101.993 L 142.149,-102.591 L 141.882,-103.159 L 141.545,-103.689
 L 141.145,-104.173 L 140.687,-104.603 L 140.179,-104.972 L 139.629,-105.274 L 139.045,-105.505 L 138.437,-105.661
 L 137.814,-105.74 L -137.814,-105.74 L -138.437,-105.661 L -139.045,-105.505 L -139.629,-105.274 L -140.179,-104.972
 L -140.687,-104.603 L -141.145,-104.173 L -141.545,-103.689 L -141.882,-103.159 L -142.149,-102.591 L -142.343,-101.993
 L -142.4,-101.694 L -144,-101.694 L -144,-87.3058 L -142.4,-87.3058 L -142.343,-87.0066 L -142.149,-86.4094
 L -141.882,-85.8412 L -141.545,-85.3111 L -141.145,-84.8273 L -140.687,-84.3974 L -140.179,-84.0284 L -139.629,-83.7259
 L -139.045,-83.4947 L -138.437,-83.3386 L -137.814,-83.2599 L 137.814,-83.2599 z
M -135.113,-96.4536 L -135.337,-96.4819 L -135.556,-96.5381 L -135.766,-96.6213 L -135.964,-96.7302 L -136.147,-96.8631
 L -136.312,-97.0178 L -136.456,-97.192 L -136.577,-97.3828 L -136.674,-97.5874 L -136.743,-97.8024 L -136.786,-98.0244
 L -136.8,-98.25 L -136.786,-98.4756 L -136.743,-98.6976 L -136.674,-98.9126 L -136.577,-99.1171 L -136.456,-99.308
 L -136.312,-99.4822 L -136.147,-99.6369 L -135.964,-99.7698 L -135.766,-99.8787 L -135.556,-99.9619 L -135.337,-100.018
 L -135.113,-100.046 L -134.887,-100.046 L -134.663,-100.018 L -134.444,-99.9619 L -134.234,-99.8787 L -134.036,-99.7698
 L -133.853,-99.6369 L -133.688,-99.4822 L -133.544,-99.308 L -133.423,-99.1171 L -133.326,-98.9126 L -133.257,-98.6976
 L -133.214,-98.4756 L -133.2,-98.25 L -133.214,-98.0244 L -133.257,-97.8024 L -133.326,-97.5874 L -133.423,-97.3828
 L -133.544,-97.192 L -133.688,-97.0178 L -133.853,-96.8631 L -134.036,-96.7302 L -134.234,-96.6213 L -134.444,-96.5381
 L -134.663,-96.4819 L -134.887,-96.4536 z
M 134.887,-96.4536 L 134.663,-96.4819 L 134.444,-96.5381 L 134.234,-96.6213 L 134.036,-96.7302 L 133.853,-96.8631
 L 133.688,-97.0178 L 133.544,-97.192 L 133.423,-97.3828 L 133.326,-97.5874 L 133.257,-97.8024 L 133.214,-98.0244
 L 133.2,-98.25 L 133.214,-98.4756 L 133.257,-98.6976 L 133.326,-98.9126 L 133.423,-99.1171 L 133.544,-99.308
 L 133.688,-99.4822 L 133.853,-99.6369 L 134.036,-99.7698 L 134.234,-99.8787 L 134.444,-99.9619 L 134.663,-100.018
 L 134.887,-100.046 L 135.113,-100.046 L 135.337,-100.018 L 135.556,-99.9619 L 135.766,-99.8787 L 135.964,-99.7698
 L 136.147,-99.6369 L 136.312,-99.4822 L 136.456,-99.308 L 136.577,-99.1171 L 136.674,-98.9126 L 136.743,-98.6976
 L 136.786,-98.4756 L 136.8,-98.25 L 136.786,-98.0244 L 136.743,-97.8024 L 136.674,-97.5874 L 136.577,-97.3828
 L 136.456,-97.192 L 136.312,-97.0178 L 136.147,-96.8631 L 135.964,-96.7302 L 135.766,-96.6213 L 135.556,-96.5381
 L 135.337,-96.4819 L 135.113,-96.4536 z
M 134.887,-88.9536 L 134.663,-88.9819 L 134.444,-89.0381 L 134.234,-89.1213 L 134.036,-89.2302 L 133.853,-89.3631
 L 133.688,-89.5178 L 133.544,-89.692 L 133.423,-89.8829 L 133.326,-90.0874 L 133.257,-90.3024 L 133.214,-90.5244
 L 133.2,-90.75 L 133.214,-90.9756 L 133.257,-91.1976 L 133.326,-91.4126 L 133.423,-91.6172 L 133.544,-91.808
 L 133.688,-91.9822 L 133.853,-92.1369 L 134.036,-92.2698 L 134.234,-92.3787 L 134.444,-92.4619 L 134.663,-92.5181
 L 134.887,-92.5464 L 135.113,-92.5464 L 135.337,-92.5181 L 135.556,-92.4619 L 135.766,-92.3787 L 135.964,-92.2698
 L 136.147,-92.1369 L 136.312,-91.9822 L 136.456,-91.808 L 136.577,-91.6172 L 136.674,-91.4126 L 136.743,-91.1976
 L 136.786,-90.9756 L 136.8,-90.75 L 136.786,-90.5244 L 136.743,-90.3024 L 136.674,-90.0874 L 136.577,-89.8829
 L 136.456,-89.692 L 136.312,-89.5178 L 136.147,-89.3631 L 135.964,-89.2302 L 135.766,-89.1213 L 135.556,-89.0381
 L 135.337,-88.9819 L 135.113,-88.9536 z
M -135.113,-88.9536 L -135.337,-88.9819 L -135.556,-89.0381 L -135.766,-89.1213 L -135.964,-89.2302 L -136.147,-89.3631
 L -136.312,-89.5178 L -136.456,-89.692 L -136.577,-89.8829 L -136.674,-90.0874 L -136.743,-90.3024 L -136.786,-90.5244
 L -136.8,-90.75 L -136.786,-90.9756 L -136.743,-91.1976 L -136.674,-91.4126 L -136.577,-91.6172 L -136.456,-91.808
 L -136.312,-91.9822 L -136.147,-92.1369 L -135.964,-92.2698 L -135.766,-92.3787 L -135.556,-92.4619 L -135.337,-92.5181
 L -135.113,-92.5464 L -134.887,-92.5464 L -134.663,-92.5181 L -134.444,-92.4619 L -134.234,-92.3787 L -134.036,-92.2698
 L -133.853,-92.1369 L -133.688,-91.9822 L -133.544,-91.808 L -133.423,-91.6172 L -133.326,-91.4126 L -133.257,-91.1976
 L -133.214,-90.9756 L -133.2,-90.75 L -133.214,-90.5244 L -133.257,-90.3024 L -133.326,-90.0874 L -133.423,-89.8829
 L -133.544,-89.692 L -133.688,-89.5178 L -133.853,-89.3631 L -134.036,-89.2302 L -134.234,-89.1213 L -134.444,-89.0381
 L -134.663,-88.9819 L -134.887,-88.9536 z
" stroke="black" fill="lightgray" stroke-width="0.5"/>
</svg>
