<?xml version="1.0" standalone="no"?>
<!DOCTYPE svg PUBLIC "-//W3C//DTD SVG 1.1//EN" "http://www.w3.org/Graphics/SVG/1.1/DTD/svg11.dtd">
<svg width="287mm" height="220mm" viewBox="-144 -395 287 220" xmlns="http://www.w3.org/2000/svg" version="1.1">
<title>OpenSCAD Model</title>
<path d="
M 138.437,-289.589 L 139.045,-289.745 L 139.629,-289.976 L 140.179,-290.278 L 140.687,-290.647 L 141.145,-291.077
 L 141.545,-291.561 L 141.882,-292.091 L 142.149,-292.659 L 142.343,-293.257 L 142.461,-293.873 L 142.5,-294.5
 L 142.5,-389.5 L 142.461,-390.127 L 142.343,-390.743 L 142.149,-391.341 L 141.882,-391.909 L 141.545,-392.439
 L 141.145,-392.923 L 140.687,-393.353 L 140.179,-393.722 L 139.629,-394.024 L 139.045,-394.255 L 138.437,-394.411
 L 137.814,-394.49 L -137.814,-394.49 L -138.437,-394.411 L -139.045,-394.255 L -139.629,-394.024 L -140.179,-393.722
 L -140.687,-393.353 L -141,-393.059 L -141,-394.479 L -144,-394.479 L -144,-289.521 L -141,-289.521
 L -141,-290.941 L -140.687,-290.647 L -140.179,-290.278 L -139.629,-289.976 L -139.045,-289.745 L -138.437,-289.589
 L -137.814,-289.51 L 137.814,-289.51 z
M -137.195,-291.893 L -137.583,-291.942 L -137.962,-292.039 L -138.325,-292.183 L -138.668,-292.372 L -138.984,-292.601
 L -139.269,-292.869 L -139.518,-293.17 L -139.728,-293.5 L -139.894,-293.854 L -140.015,-294.226 L -140.088,-294.61
 L -140.113,-295 L -140.113,-389 L -140.088,-389.39 L -140.015,-389.774 L -139.894,-390.146 L -139.728,-390.5
 L -139.518,-390.83 L -139.269,-391.131 L -138.984,-391.399 L -138.668,-391.628 L -138.325,-391.817 L -137.962,-391.961
 L -137.583,-392.058 L -137.195,-392.107 L 137.195,-392.107 L 137.583,-392.058 L 137.962,-391.961 L 138.325,-391.817
 L 138.668,-391.628 L 138.984,-391.399 L 139.269,-391.131 L 139.518,-390.83 L 139.728,-390.5 L 139.894,-390.146
 L 140.015,-389.774 L 140.088,-389.39 L 140.113,-389 L 140.113,-295 L 140.088,-294.61 L 140.015,-294.226
 L 139.894,-293.854 L 139.728,-293.5 L 139.518,-293.17 L 139.269,-292.869 L 138.984,-292.601 L 138.668,-292.372
 L 138.325,-292.183 L 137.962,-292.039 L 137.583,-291.942 L 137.195,-291.893 z
M 138.437,-175.589 L 139.045,-175.745 L 139.629,-175.976 L 140.179,-176.278 L 140.687,-176.647 L 141.145,-177.077
 L 141.545,-177.561 L 141.882,-178.091 L 142.149,-178.659 L 142.343,-179.257 L 142.461,-179.873 L 142.5,-180.5
 L 142.5,-275.5 L 142.461,-276.127 L 142.343,-276.743 L 142.149,-277.341 L 141.882,-277.909 L 141.545,-278.439
 L 141.145,-278.923 L 140.687,-279.353 L 140.179,-279.722 L 139.629,-280.024 L 139.045,-280.255 L 138.437,-280.411
 L 137.814,-280.49 L -137.814,-280.49 L -138.437,-280.411 L -139.045,-280.255 L -139.629,-280.024 L -140.179,-279.722
 L -140.687,-279.353 L -141,-279.059 L -141,-279.153 L -144,-279.153 L -144,-176.847 L -141,-176.847
 L -141,-176.941 L -140.687,-176.647 L -140.179,-176.278 L -139.629,-175.976 L -139.045,-175.745 L -138.437,-175.589
 L -137.814,-175.51 L 137.814,-175.51 z
M 134.866,-270.869 L 134.6,-270.903 L 134.34,-270.969 L 134.091,-271.068 L 133.856,-271.197 L 133.639,-271.355
 L 133.443,-271.538 L 133.273,-271.745 L 133.129,-271.971 L 133.015,-272.214 L 132.932,-272.469 L 132.882,-272.732
 L 132.865,-273 L 132.882,-273.268 L 132.932,-273.531 L 133.015,-273.786 L 133.129,-274.029 L 133.273,-274.255
 L 133.443,-274.462 L 133.639,-274.645 L 133.856,-274.803 L 134.091,-274.932 L 134.34,-275.031 L 134.6,-275.097
 L 134.866,-275.131 L 135.134,-275.131 L 135.4,-275.097 L 135.66,-275.031 L 135.909,-274.932 L 136.144,-274.803
 L 136.361,-274.645 L 136.557,-274.462 L 136.727,-274.255 L 136.871,-274.029 L 136.985,-273.786 L 137.068,-273.531
 L 137.118,-273.268 L 137.135,-273 L 137.118,-272.732 L 137.068,-272.469 L 136.985,-272.214 L 136.871,-271.971
 L 136.727,-271.745 L 136.557,-271.538 L 136.361,-271.355 L 136.144,-271.197 L 135.909,-271.068 L 135.66,-270.969
 L 135.4,-270.903 L 135.134,-270.869 z
M -135.134,-270.869 L -135.4,-270.903 L -135.66,-270.969 L -135.909,-271.068 L -136.144,-271.197 L -136.361,-271.355
 L -136.557,-271.538 L -136.727,-271.745 L -136.871,-271.971 L -136.985,-272.214 L -137.068,-272.469 L -137.118,-272.732
 L -137.135,-273 L -137.118,-273.268 L -137.068,-273.531 L -136.985,-273.786 L -136.871,-274.029 L -136.727,-274.255
 L -136.557,-274.462 L -136.361,-274.645 L -136.144,-274.803 L -135.909,-274.932 L -135.66,-275.031 L -135.4,-275.097
 L -135.134,-275.131 L -134.866,-275.131 L -134.6,-275.097 L -134.34,-275.031 L -134.091,-274.932 L -133.856,-274.803
 L -133.639,-274.645 L -133.443,-274.462 L -133.273,-274.255 L -133.129,-274.029 L -133.015,-273.786 L -132.932,-273.531
 L -132.882,-273.268 L -132.865,-273 L -132.882,-272.732 L -132.932,-272.469 L -133.015,-272.214 L -133.129,-271.971
 L -133.273,-271.745 L -133.443,-271.538 L -133.639,-271.355 L -133.856,-271.197 L -134.091,-271.068 L -134.34,-270.969
 L -134.6,-270.903 L -134.866,-270.869 z
M 134.866,-180.869 L 134.6,-180.903 L 134.34,-180.969 L 134.091,-181.068 L 133.856,-181.197 L 133.639,-181.355
 L 133.443,-181.538 L 133.273,-181.745 L 133.129,-181.971 L 133.015,-182.214 L 132.932,-182.469 L 132.882,-182.732
 L 132.865,-183 L 132.882,-183.268 L 132.932,-183.531 L 133.015,-183.786 L 133.129,-184.029 L 133.273,-184.255
 L 133.443,-184.462 L 133.639,-184.645 L 133.856,-184.803 L 134.091,-184.932 L 134.34,-185.031 L 134.6,-185.097
 L 134.866,-185.131 L 135.134,-185.131 L 135.4,-185.097 L 135.66,-185.031 L 135.909,-184.932 L 136.144,-184.803
 L 136.361,-184.645 L 136.557,-184.462 L 136.727,-184.255 L 136.871,-184.029 L 136.985,-183.786 L 137.068,-183.531
 L 137.118,-183.268 L 137.135,-183 L 137.118,-182.732 L 137.068,-182.469 L 136.985,-182.214 L 136.871,-181.971
 L 136.727,-181.745 L 136.557,-181.538 L 136.361,-181.355 L 136.144,-181.197 L 135.909,-181.068 L 135.66,-180.969
 L 135.4,-180.903 L 135.134,-180.869 z
M -135.134,-180.869 L -135.4,-180.903 L -135.66,-180.969 L -135.909,-181.068 L -136.144,-181.197 L -136.361,-181.355
 L -136.557,-181.538 L -136.727,-181.745 L -136.871,-181.971 L -136.985,-182.214 L -137.068,-182.469 L -137.118,-182.732
 L -137.135,-183 L -137.118,-183.268 L -137.068,-183.531 L -136.985,-183.786 L -136.871,-184.029 L -136.727,-184.255
 L -136.557,-184.462 L -136.361,-184.645 L -136.144,-184.803 L -135.909,-184.932 L -135.66,-185.031 L -135.4,-185.097
 L -135.134,-185.131 L -134.866,-185.131 L -134.6,-185.097 L -134.34,-185.031 L -134.091,-184.932 L -133.856,-184.803
 L -133.639,-184.645 L -133.443,-184.462 L -133.273,-184.255 L -133.129,-184.029 L -133.015,-183.786 L -132.932,-183.531
 L -132.882,-183.268 L -132.865,-183 L -132.882,-182.732 L -132.932,-182.469 L -133.015,-182.214 L -133.129,-181.971
 L -133.273,-181.745 L -133.443,-181.538 L -133.639,-181.355 L -133.856,-181.197 L -134.091,-181.068 L -134.34,-180.969
 L -134.6,-180.903 L -134.866,-180.869 z
" stroke="black" fill="lightgray" stroke-width="0.5"/>
</svg>
