<?xml version="1.0" standalone="no"?>
<!DOCTYPE svg PUBLIC "-//W3C//DTD SVG 1.1//EN" "http://www.w3.org/Graphics/SVG/1.1/DTD/svg11.dtd">
<svg width="300mm" height="186mm" viewBox="-150 -366 300 186" xmlns="http://www.w3.org/2000/svg" version="1.1">
<title>OpenSCAD Model</title>
<path d="
M 145.937,-336.089 L 146.545,-336.245 L 147.129,-336.476 L 147.679,-336.778 L 148.187,-337.147 L 148.645,-337.577
 L 149.045,-338.061 L 149.382,-338.591 L 149.649,-339.159 L 149.843,-339.757 L 149.961,-340.373 L 150,-341
 L 150,-361 L 149.961,-361.627 L 149.843,-362.243 L 149.649,-362.841 L 149.382,-363.409 L 149.045,-363.939
 L 148.645,-364.423 L 148.187,-364.853 L 147.679,-365.222 L 147.129,-365.524 L 146.545,-365.755 L 145.937,-365.911
 L 145.314,-365.99 L -145.314,-365.99 L -145.937,-365.911 L -146.545,-365.755 L -147.129,-365.524 L -147.679,-365.222
 L -148.187,-364.853 L -148.645,-364.423 L -149.045,-363.939 L -149.382,-363.409 L -149.649,-362.841 L -149.843,-362.243
 L -149.961,-361.627 L -150,-361 L -150,-341 L -149.961,-340.373 L -149.843,-339.757 L -149.649,-339.159
 L -149.382,-338.591 L -149.045,-338.061 L -148.645,-337.577 L -148.187,-337.147 L -147.679,-336.778 L -147.129,-336.476
 L -146.545,-336.245 L -145.937,-336.089 L -145.314,-336.01 L 145.314,-336.01 z
M -145.048,-336.509 L -145.64,-336.584 L -146.218,-336.732 L -146.772,-336.952 L -147.295,-337.239 L -147.778,-337.59
 L -148.213,-337.998 L -148.593,-338.458 L -148.912,-338.962 L -149.166,-339.501 L -149.351,-340.069 L -149.463,-340.655
 L -149.5,-341.25 L -149.5,-360.75 L -149.463,-361.345 L -149.351,-361.931 L -149.166,-362.499 L -148.912,-363.038
 L -148.593,-363.542 L -148.213,-364.002 L -147.778,-364.41 L -147.295,-364.761 L -146.772,-365.048 L -146.218,-365.268
 L -145.64,-365.416 L -145.048,-365.491 L 145.048,-365.491 L 145.64,-365.416 L 146.218,-365.268 L 146.772,-365.048
 L 147.295,-364.761 L 147.778,-364.41 L 148.213,-364.002 L 148.593,-363.542 L 148.912,-363.038 L 149.166,-362.499
 L 149.351,-361.931 L 149.463,-361.345 L 149.5,-360.75 L 149.5,-341.25 L 149.463,-340.655 L 149.351,-340.069
 L 149.166,-339.501 L 148.912,-338.962 L 148.593,-338.458 L 148.213,-337.998 L 147.778,-337.59 L 147.295,-337.239
 L 146.772,-336.952 L 146.218,-336.732 L 145.64,-336.584 L 145.048,-336.509 z
M 145.937,-297.089 L 146.545,-297.245 L 147.129,-297.476 L 147.679,-297.778 L 148.187,-298.147 L 148.645,-298.577
 L 149.045,-299.061 L 149.382,-299.591 L 149.649,-300.159 L 149.843,-300.757 L 149.961,-301.373 L 150,-302
 L 150,-322 L 149.961,-322.627 L 149.843,-323.243 L 149.649,-323.841 L 149.382,-324.409 L 149.045,-324.939
 L 148.645,-325.423 L 148.187,-325.853 L 147.679,-326.222 L 147.129,-326.524 L 146.545,-326.755 L 145.937,-326.911
 L 145.314,-326.99 L -145.314,-326.99 L -145.937,-326.911 L -146.545,-326.755 L -147.129,-326.524 L -147.679,-326.222
 L -148.187,-325.853 L -148.645,-325.423 L -149.045,-324.939 L -149.382,-324.409 L -149.649,-323.841 L -149.843,-323.243
 L -149.961,-322.627 L -150,-322 L -150,-302 L -149.961,-301.373 L -149.843,-300.757 L -149.649,-300.159
 L -149.382,-299.591 L -149.045,-299.061 L -148.645,-298.577 L -148.187,-298.147 L -147.679,-297.778 L -147.129,-297.476
 L -146.545,-297.245 L -145.937,-297.089 L -145.314,-297.01 L 145.314,-297.01 z
M -145.048,-297.509 L -145.64,-297.584 L -146.218,-297.732 L -146.772,-297.952 L -147.295,-298.239 L -147.778,-298.59
 L -148.213,-298.998 L -148.593,-299.458 L -148.912,-299.962 L -149.166,-300.501 L -149.351,-301.069 L -149.463,-301.655
 L -149.5,-302.25 L -149.5,-321.75 L -149.463,-322.345 L -149.351,-322.931 L -149.166,-323.499 L -148.912,-324.038
 L -148.593,-324.542 L -148.213,-325.002 L -147.778,-325.41 L -147.295,-325.761 L -146.772,-326.048 L -146.218,-326.268
 L -145.64,-326.416 L -145.048,-326.491 L 145.048,-326.491 L 145.64,-326.416 L 146.218,-326.268 L 146.772,-326.048
 L 147.295,-325.761 L 147.778,-325.41 L 148.213,-325.002 L 148.593,-324.542 L 148.912,-324.038 L 149.166,-323.499
 L 149.351,-322.931 L 149.463,-322.345 L 149.5,-321.75 L 149.5,-302.25 L 149.463,-301.655 L 149.351,-301.069
 L 149.166,-300.501 L 148.912,-299.962 L 148.593,-299.458 L 148.213,-298.998 L 147.778,-298.59 L 147.295,-298.239
 L 146.772,-297.952 L 146.218,-297.732 L 145.64,-297.584 L 145.048,-297.509 z
M 145.937,-258.089 L 146.545,-258.245 L 147.129,-258.476 L 147.679,-258.778 L 148.187,-259.147 L 148.645,-259.577
 L 149.045,-260.061 L 149.382,-260.591 L 149.649,-261.159 L 149.843,-261.757 L 149.961,-262.373 L 150,-263
 L 150,-283 L 149.961,-283.627 L 149.843,-284.243 L 149.649,-284.841 L 149.382,-285.409 L 149.045,-285.939
 L 148.645,-286.423 L 148.187,-286.853 L 147.679,-287.222 L 147.129,-287.524 L 146.545,-287.755 L 145.937,-287.911
 L 145.314,-287.99 L -145.314,-287.99 L -145.937,-287.911 L -146.545,-287.755 L -147.129,-287.524 L -147.679,-287.222
 L -148.187,-286.853 L -148.645,-286.423 L -149.045,-285.939 L -149.382,-285.409 L -149.649,-284.841 L -149.843,-284.243
 L -149.961,-283.627 L -150,-283 L -150,-263 L -149.961,-262.373 L -149.843,-261.757 L -149.649,-261.159
 L -149.382,-260.591 L -149.045,-260.061 L -148.645,-259.577 L -148.187,-259.147 L -147.679,-258.778 L -147.129,-258.476
 L -146.545,-258.245 L -145.937,-258.089 L -145.314,-258.01 L 145.314,-258.01 z
M -145.048,-258.509 L -145.64,-258.584 L -146.218,-258.732 L -146.772,-258.952 L -147.295,-259.239 L -147.778,-259.59
 L -148.213,-259.998 L -148.593,-260.458 L -148.912,-260.962 L -149.166,-261.501 L -149.351,-262.069 L -149.463,-262.655
 L -149.5,-263.25 L -149.5,-282.75 L -149.463,-283.345 L -149.351,-283.931 L -149.166,-284.499 L -148.912,-285.038
 L -148.593,-285.542 L -148.213,-286.002 L -147.778,-286.41 L -147.295,-286.761 L -146.772,-287.048 L -146.218,-287.268
 L -145.64,-287.416 L -145.048,-287.491 L 145.048,-287.491 L 145.64,-287.416 L 146.218,-287.268 L 146.772,-287.048
 L 147.295,-286.761 L 147.778,-286.41 L 148.213,-286.002 L 148.593,-285.542 L 148.912,-285.038 L 149.166,-284.499
 L 149.351,-283.931 L 149.463,-283.345 L 149.5,-282.75 L 149.5,-263.25 L 149.463,-262.655 L 149.351,-262.069
 L 149.166,-261.501 L 148.912,-260.962 L 148.593,-260.458 L 148.213,-259.998 L 147.778,-259.59 L 147.295,-259.239
 L 146.772,-258.952 L 146.218,-258.732 L 145.64,-258.584 L 145.048,-258.509 z
M 145.937,-219.089 L 146.545,-219.245 L 147.129,-219.476 L 147.679,-219.778 L 148.187,-220.147 L 148.645,-220.577
 L 149.045,-221.061 L 149.382,-221.591 L 149.649,-222.159 L 149.843,-222.757 L 149.961,-223.373 L 150,-224
 L 150,-244 L 149.961,-244.627 L 149.843,-245.243 L 149.649,-245.841 L 149.382,-246.409 L 149.045,-246.939
 L 148.645,-247.423 L 148.187,-247.853 L 147.679,-248.222 L 147.129,-248.524 L 146.545,-248.755 L 145.937,-248.911
 L 145.314,-248.99 L -145.314,-248.99 L -145.937,-248.911 L -146.545,-248.755 L -147.129,-248.524 L -147.679,-248.222
 L -148.187,-247.853 L -148.645,-247.423 L -149.045,-246.939 L -149.382,-246.409 L -149.649,-245.841 L -149.843,-245.243
 L -149.961,-244.627 L -150,-244 L -150,-224 L -149.961,-223.373 L -149.843,-222.757 L -149.649,-222.159
 L -149.382,-221.591 L -149.045,-221.061 L -148.645,-220.577 L -148.187,-220.147 L -147.679,-219.778 L -147.129,-219.476
 L -146.545,-219.245 L -145.937,-219.089 L -145.314,-219.01 L 145.314,-219.01 z
M -145.037,-219.681 L -145.608,-219.753 L -146.165,-219.896 L -146.699,-220.107 L -147.203,-220.384 L -147.668,-220.722
 L -148.088,-221.116 L -148.454,-221.559 L -148.762,-222.044 L -149.007,-222.565 L -149.185,-223.111 L -149.292,-223.676
 L -149.328,-224.25 L -149.328,-243.75 L -149.292,-244.324 L -149.185,-244.889 L -149.007,-245.435 L -148.762,-245.956
 L -148.454,-246.441 L -148.088,-246.884 L -147.668,-247.278 L -147.203,-247.616 L -146.699,-247.893 L -146.165,-248.104
 L -145.608,-248.247 L -145.037,-248.319 L 145.037,-248.319 L 145.608,-248.247 L 146.165,-248.104 L 146.699,-247.893
 L 147.203,-247.616 L 147.668,-247.278 L 148.088,-246.884 L 148.454,-246.441 L 148.762,-245.956 L 149.007,-245.435
 L 149.185,-244.889 L 149.292,-244.324 L 149.328,-243.75 L 149.328,-224.25 L 149.292,-223.676 L 149.185,-223.111
 L 149.007,-222.565 L 148.762,-222.044 L 148.454,-221.559 L 148.088,-221.116 L 147.668,-220.722 L 147.203,-220.384
 L 146.699,-220.107 L 146.165,-219.896 L 145.608,-219.753 L 145.037,-219.681 z
M 145.937,-180.089 L 146.545,-180.245 L 147.129,-180.476 L 147.679,-180.778 L 148.187,-181.147 L 148.645,-181.577
 L 149.045,-182.061 L 149.382,-182.591 L 149.649,-183.159 L 149.843,-183.757 L 149.961,-184.373 L 150,-185
 L 150,-205 L 149.961,-205.627 L 149.843,-206.243 L 149.649,-206.841 L 149.382,-207.409 L 149.045,-207.939
 L 148.645,-208.423 L 148.187,-208.853 L 147.679,-209.222 L 147.129,-209.524 L 146.545,-209.755 L 145.937,-209.911
 L 145.314,-209.99 L -145.314,-209.99 L -145.937,-209.911 L -146.545,-209.755 L -147.129,-209.524 L -147.679,-209.222
 L -148.187,-208.853 L -148.645,-208.423 L -149.045,-207.939 L -149.382,-207.409 L -149.649,-206.841 L -149.843,-206.243
 L -149.961,-205.627 L -150,-205 L -150,-185 L -149.961,-184.373 L -149.843,-183.757 L -149.649,-183.159
 L -149.382,-182.591 L -149.045,-182.061 L -148.645,-181.577 L -148.187,-181.147 L -147.679,-180.778 L -147.129,-180.476
 L -146.545,-180.245 L -145.937,-180.089 L -145.314,-180.01 L 145.314,-180.01 z
M -144.882,-183.145 L -145.145,-183.178 L -145.402,-183.244 L -145.648,-183.341 L -145.88,-183.469 L -146.095,-183.625
 L -146.288,-183.806 L -146.457,-184.01 L -146.599,-184.234 L -146.711,-184.473 L -146.793,-184.725 L -146.843,-184.986
 L -146.86,-185.25 L -146.86,-204.75 L -146.843,-205.014 L -146.793,-205.275 L -146.711,-205.527 L -146.599,-205.766
 L -146.457,-205.99 L -146.288,-206.194 L -146.095,-206.375 L -145.88,-206.531 L -145.648,-206.659 L -145.402,-206.756
 L -145.145,-206.822 L -144.882,-206.855 L 144.882,-206.855 L 145.145,-206.822 L 145.402,-206.756 L 145.648,-206.659
 L 145.88,-206.531 L 146.095,-206.375 L 146.288,-206.194 L 146.457,-205.99 L 146.599,-205.766 L 146.711,-205.527
 L 146.793,-205.275 L 146.843,-205.014 L 146.86,-204.75 L 146.86,-185.25 L 146.843,-184.986 L 146.793,-184.725
 L 146.711,-184.473 L 146.599,-184.234 L 146.457,-184.01 L 146.288,-183.806 L 146.095,-183.625 L 145.88,-183.469
 L 145.648,-183.341 L 145.402,-183.244 L 145.145,-183.178 L 144.882,-183.145 z
" stroke="black" fill="lightgray" stroke-width="0.5"/>
</svg>
