solid OpenSCAD_Model
  facet normal 0.998025 0.0628122 0
    outer loop
      vertex 12.5 0 1
      vertex 12.4014 1.56666 -1
      vertex 12.4014 1.56666 1
    endloop
  endfacet
  facet normal 0.998025 0.0628122 0
    outer loop
      vertex 12.4014 1.56666 -1
      vertex 12.5 0 1
      vertex 12.5 0 -1
    endloop
  endfacet
  facet normal -0.998025 0.0628122 0
    outer loop
      vertex -12.5 0 -1
      vertex -12.4014 1.56666 1
      vertex -12.4014 1.56666 -1
    endloop
  endfacet
  facet normal -0.998025 0.0628122 0
    outer loop
      vertex -12.4014 1.56666 1
      vertex -12.5 0 -1
      vertex -12.5 0 1
    endloop
  endfacet
  facet normal 0 1 -0
    outer loop
      vertex 0.784881 12.4753 -1
      vertex -0.784881 12.4753 1
      vertex 0.784881 12.4753 1
    endloop
  endfacet
  facet normal 0 1 0
    outer loop
      vertex -0.784881 12.4753 1
      vertex 0.784881 12.4753 -1
      vertex -0.784881 12.4753 -1
    endloop
  endfacet
  facet normal 0 -1 0
    outer loop
      vertex -0.784881 -12.4753 -1
      vertex 0.784881 -12.4753 1
      vertex -0.784881 -12.4753 1
    endloop
  endfacet
  facet normal 0 -1 -0
    outer loop
      vertex 0.784881 -12.4753 1
      vertex -0.784881 -12.4753 -1
      vertex 0.784881 -12.4753 -1
    endloop
  endfacet
  facet normal 0.684548 0.728968 -0
    outer loop
      vertex 9.11211 8.55684 -1
      vertex 7.9678 9.63142 1
      vertex 9.11211 8.55684 1
    endloop
  endfacet
  facet normal 0.684548 0.728968 0
    outer loop
      vertex 7.9678 9.63142 1
      vertex 9.11211 8.55684 -1
      vertex 7.9678 9.63142 -1
    endloop
  endfacet
  facet normal -0.684548 0.728968 0
    outer loop
      vertex -7.9678 9.63142 -1
      vertex -9.11211 8.55684 1
      vertex -7.9678 9.63142 1
    endloop
  endfacet
  facet normal -0.684548 0.728968 0
    outer loop
      vertex -9.11211 8.55684 1
      vertex -7.9678 9.63142 -1
      vertex -9.11211 8.55684 -1
    endloop
  endfacet
  facet normal -0.368142 0.92977 0
    outer loop
      vertex -3.86271 11.8882 -1
      vertex -5.32224 11.3103 1
      vertex -3.86271 11.8882 1
    endloop
  endfacet
  facet normal -0.368142 0.92977 0
    outer loop
      vertex -5.32224 11.3103 1
      vertex -3.86271 11.8882 -1
      vertex -5.32224 11.3103 -1
    endloop
  endfacet
  facet normal 0.90482 0.425795 0
    outer loop
      vertex 11.6222 4.60156 1
      vertex 10.9538 6.02192 -1
      vertex 10.9538 6.02192 1
    endloop
  endfacet
  facet normal 0.90482 0.425795 0
    outer loop
      vertex 10.9538 6.02192 -1
      vertex 11.6222 4.60156 1
      vertex 11.6222 4.60156 -1
    endloop
  endfacet
  facet normal 0.982292 0.187354 0
    outer loop
      vertex 12.4014 1.56666 1
      vertex 12.1073 3.10862 -1
      vertex 12.1073 3.10862 1
    endloop
  endfacet
  facet normal 0.982292 0.187354 0
    outer loop
      vertex 12.1073 3.10862 -1
      vertex 12.4014 1.56666 1
      vertex 12.4014 1.56666 -1
    endloop
  endfacet
  facet normal 0.844333 0.535819 0
    outer loop
      vertex 10.9538 6.02192 1
      vertex 10.1127 7.34731 -1
      vertex 10.1127 7.34731 1
    endloop
  endfacet
  facet normal 0.844333 0.535819 0
    outer loop
      vertex 10.1127 7.34731 -1
      vertex 10.9538 6.02192 1
      vertex 10.9538 6.02192 -1
    endloop
  endfacet
  facet normal 0.368142 0.92977 -0
    outer loop
      vertex 5.32224 11.3103 -1
      vertex 3.86271 11.8882 1
      vertex 5.32224 11.3103 1
    endloop
  endfacet
  facet normal 0.368142 0.92977 0
    outer loop
      vertex 3.86271 11.8882 1
      vertex 5.32224 11.3103 -1
      vertex 3.86271 11.8882 -1
    endloop
  endfacet
  facet normal 0.2487 0.96858 -0
    outer loop
      vertex 3.86271 11.8882 -1
      vertex 2.34227 12.2786 1
      vertex 3.86271 11.8882 1
    endloop
  endfacet
  facet normal 0.2487 0.96858 0
    outer loop
      vertex 2.34227 12.2786 1
      vertex 3.86271 11.8882 -1
      vertex 2.34227 12.2786 -1
    endloop
  endfacet
  facet normal 0.481736 0.876317 -0
    outer loop
      vertex 6.69783 10.5541 -1
      vertex 5.32224 11.3103 1
      vertex 6.69783 10.5541 1
    endloop
  endfacet
  facet normal 0.481736 0.876317 0
    outer loop
      vertex 5.32224 11.3103 1
      vertex 6.69783 10.5541 -1
      vertex 5.32224 11.3103 -1
    endloop
  endfacet
  facet normal -0.90482 0.425795 0
    outer loop
      vertex -11.6222 4.60156 -1
      vertex -10.9538 6.02192 1
      vertex -10.9538 6.02192 -1
    endloop
  endfacet
  facet normal -0.90482 0.425795 0
    outer loop
      vertex -10.9538 6.02192 1
      vertex -11.6222 4.60156 -1
      vertex -11.6222 4.60156 1
    endloop
  endfacet
  facet normal -0.77052 0.637416 0
    outer loop
      vertex -10.1127 7.34731 -1
      vertex -9.11211 8.55684 1
      vertex -9.11211 8.55684 -1
    endloop
  endfacet
  facet normal -0.77052 0.637416 0
    outer loop
      vertex -9.11211 8.55684 1
      vertex -10.1127 7.34731 -1
      vertex -10.1127 7.34731 1
    endloop
  endfacet
  facet normal -0.951054 0.309025 0
    outer loop
      vertex -12.1073 3.10862 -1
      vertex -11.6222 4.60156 1
      vertex -11.6222 4.60156 -1
    endloop
  endfacet
  facet normal -0.951054 0.309025 0
    outer loop
      vertex -11.6222 4.60156 1
      vertex -12.1073 3.10862 -1
      vertex -12.1073 3.10862 1
    endloop
  endfacet
  facet normal -0.125306 0.992118 0
    outer loop
      vertex -0.784881 12.4753 -1
      vertex -2.34227 12.2786 1
      vertex -0.784881 12.4753 1
    endloop
  endfacet
  facet normal -0.125306 0.992118 0
    outer loop
      vertex -2.34227 12.2786 1
      vertex -0.784881 12.4753 -1
      vertex -2.34227 12.2786 -1
    endloop
  endfacet
  facet normal 0.125306 -0.992118 0
    outer loop
      vertex 0.784881 -12.4753 -1
      vertex 2.34227 -12.2786 1
      vertex 0.784881 -12.4753 1
    endloop
  endfacet
  facet normal 0.125306 -0.992118 0
    outer loop
      vertex 2.34227 -12.2786 1
      vertex 0.784881 -12.4753 -1
      vertex 2.34227 -12.2786 -1
    endloop
  endfacet
  facet normal 0.368142 -0.92977 0
    outer loop
      vertex 3.86271 -11.8882 -1
      vertex 5.32224 -11.3103 1
      vertex 3.86271 -11.8882 1
    endloop
  endfacet
  facet normal 0.368142 -0.92977 0
    outer loop
      vertex 5.32224 -11.3103 1
      vertex 3.86271 -11.8882 -1
      vertex 5.32224 -11.3103 -1
    endloop
  endfacet
  facet normal 0.951054 0.309025 0
    outer loop
      vertex 12.1073 3.10862 1
      vertex 11.6222 4.60156 -1
      vertex 11.6222 4.60156 1
    endloop
  endfacet
  facet normal 0.951054 0.309025 0
    outer loop
      vertex 11.6222 4.60156 -1
      vertex 12.1073 3.10862 1
      vertex 12.1073 3.10862 -1
    endloop
  endfacet
  facet normal 0.77052 0.637416 0
    outer loop
      vertex 10.1127 7.34731 1
      vertex 9.11211 8.55684 -1
      vertex 9.11211 8.55684 1
    endloop
  endfacet
  facet normal 0.77052 0.637416 0
    outer loop
      vertex 9.11211 8.55684 -1
      vertex 10.1127 7.34731 1
      vertex 10.1127 7.34731 -1
    endloop
  endfacet
  facet normal 0.125306 0.992118 -0
    outer loop
      vertex 2.34227 12.2786 -1
      vertex 0.784881 12.4753 1
      vertex 2.34227 12.2786 1
    endloop
  endfacet
  facet normal 0.125306 0.992118 0
    outer loop
      vertex 0.784881 12.4753 1
      vertex 2.34227 12.2786 -1
      vertex 0.784881 12.4753 -1
    endloop
  endfacet
  facet normal 0.587782 0.809019 -0
    outer loop
      vertex 7.9678 9.63142 -1
      vertex 6.69783 10.5541 1
      vertex 7.9678 9.63142 1
    endloop
  endfacet
  facet normal 0.587782 0.809019 0
    outer loop
      vertex 6.69783 10.5541 1
      vertex 7.9678 9.63142 -1
      vertex 6.69783 10.5541 -1
    endloop
  endfacet
  facet normal -0.844333 0.535819 0
    outer loop
      vertex -10.9538 6.02192 -1
      vertex -10.1127 7.34731 1
      vertex -10.1127 7.34731 -1
    endloop
  endfacet
  facet normal -0.844333 0.535819 0
    outer loop
      vertex -10.1127 7.34731 1
      vertex -10.9538 6.02192 -1
      vertex -10.9538 6.02192 1
    endloop
  endfacet
  facet normal -0.982292 0.187354 0
    outer loop
      vertex -12.4014 1.56666 -1
      vertex -12.1073 3.10862 1
      vertex -12.1073 3.10862 -1
    endloop
  endfacet
  facet normal -0.982292 0.187354 0
    outer loop
      vertex -12.1073 3.10862 1
      vertex -12.4014 1.56666 -1
      vertex -12.4014 1.56666 1
    endloop
  endfacet
  facet normal 0 0 1
    outer loop
      vertex 10 0 1
      vertex 12.5 0 1
      vertex 12.4014 1.56666 1
    endloop
  endfacet
  facet normal 0 0 1
    outer loop
      vertex 9.92115 1.25333 1
      vertex 12.4014 1.56666 1
      vertex 12.1073 3.10862 1
    endloop
  endfacet
  facet normal 0 0 1
    outer loop
      vertex 12.5 0 1
      vertex 10 0 1
      vertex 12.4014 -1.56666 1
    endloop
  endfacet
  facet normal 0 0 1
    outer loop
      vertex 9.68583 2.4869 1
      vertex 12.1073 3.10862 1
      vertex 11.6222 4.60156 1
    endloop
  endfacet
  facet normal -0 0 1
    outer loop
      vertex 9.92115 -1.25333 1
      vertex 12.4014 -1.56666 1
      vertex 10 0 1
    endloop
  endfacet
  facet normal 0 0 1
    outer loop
      vertex 9.29776 3.68124 1
      vertex 11.6222 4.60156 1
      vertex 10.9538 6.02192 1
    endloop
  endfacet
  facet normal 0 0 1
    outer loop
      vertex 12.4014 -1.56666 1
      vertex 9.92115 -1.25333 1
      vertex 12.1073 -3.10862 1
    endloop
  endfacet
  facet normal 0 0 1
    outer loop
      vertex 8.76307 4.81754 1
      vertex 10.9538 6.02192 1
      vertex 10.1127 7.34731 1
    endloop
  endfacet
  facet normal -0 0 1
    outer loop
      vertex 9.68583 -2.4869 1
      vertex 12.1073 -3.10862 1
      vertex 9.92115 -1.25333 1
    endloop
  endfacet
  facet normal 0 0 1
    outer loop
      vertex 12.1073 -3.10862 1
      vertex 9.68583 -2.4869 1
      vertex 11.6222 -4.60156 1
    endloop
  endfacet
  facet normal 0 0 1
    outer loop
      vertex 12.4014 1.56666 1
      vertex 9.92115 1.25333 1
      vertex 10 0 1
    endloop
  endfacet
  facet normal 0 0 1
    outer loop
      vertex 12.1073 3.10862 1
      vertex 9.68583 2.4869 1
      vertex 9.92115 1.25333 1
    endloop
  endfacet
  facet normal 0 0 1
    outer loop
      vertex 11.6222 4.60156 1
      vertex 9.29776 3.68124 1
      vertex 9.68583 2.4869 1
    endloop
  endfacet
  facet normal 0 0 1
    outer loop
      vertex 8.09017 5.87785 1
      vertex 10.1127 7.34731 1
      vertex 9.11211 8.55684 1
    endloop
  endfacet
  facet normal 0 0 1
    outer loop
      vertex 10.9538 6.02192 1
      vertex 8.76307 4.81754 1
      vertex 9.29776 3.68124 1
    endloop
  endfacet
  facet normal 0 0 1
    outer loop
      vertex 10.1127 7.34731 1
      vertex 8.09017 5.87785 1
      vertex 8.76307 4.81754 1
    endloop
  endfacet
  facet normal 0 0 1
    outer loop
      vertex 7.28969 6.84547 1
      vertex 9.11211 8.55684 1
      vertex 7.9678 9.63142 1
    endloop
  endfacet
  facet normal 0 0 1
    outer loop
      vertex 9.11211 8.55684 1
      vertex 7.28969 6.84547 1
      vertex 8.09017 5.87785 1
    endloop
  endfacet
  facet normal 0 0 1
    outer loop
      vertex 6.37424 7.70513 1
      vertex 7.9678 9.63142 1
      vertex 6.69783 10.5541 1
    endloop
  endfacet
  facet normal 0 0 1
    outer loop
      vertex 7.9678 9.63142 1
      vertex 6.37424 7.70513 1
      vertex 7.28969 6.84547 1
    endloop
  endfacet
  facet normal 0 0 1
    outer loop
      vertex 6.69783 10.5541 1
      vertex 5.35827 8.44328 1
      vertex 6.37424 7.70513 1
    endloop
  endfacet
  facet normal 0 0 1
    outer loop
      vertex 5.32224 11.3103 1
      vertex 5.35827 8.44328 1
      vertex 6.69783 10.5541 1
    endloop
  endfacet
  facet normal 0 0 1
    outer loop
      vertex 5.32224 11.3103 1
      vertex 4.25779 9.04827 1
      vertex 5.35827 8.44328 1
    endloop
  endfacet
  facet normal 0 0 1
    outer loop
      vertex 3.86271 11.8882 1
      vertex 4.25779 9.04827 1
      vertex 5.32224 11.3103 1
    endloop
  endfacet
  facet normal 0 0 1
    outer loop
      vertex 3.86271 11.8882 1
      vertex 3.09017 9.51056 1
      vertex 4.25779 9.04827 1
    endloop
  endfacet
  facet normal 0 0 1
    outer loop
      vertex 2.34227 12.2786 1
      vertex 3.09017 9.51056 1
      vertex 3.86271 11.8882 1
    endloop
  endfacet
  facet normal 0 0 1
    outer loop
      vertex 2.34227 12.2786 1
      vertex 1.87381 9.82287 1
      vertex 3.09017 9.51056 1
    endloop
  endfacet
  facet normal 0 0 1
    outer loop
      vertex 0.784881 12.4753 1
      vertex 1.87381 9.82287 1
      vertex 2.34227 12.2786 1
    endloop
  endfacet
  facet normal 0 0 1
    outer loop
      vertex 0.784881 12.4753 1
      vertex 0.627905 9.98027 1
      vertex 1.87381 9.82287 1
    endloop
  endfacet
  facet normal 0 0 1
    outer loop
      vertex 0.784881 12.4753 1
      vertex -0.627905 9.98027 1
      vertex 0.627905 9.98027 1
    endloop
  endfacet
  facet normal -0 0 1
    outer loop
      vertex -0.784881 12.4753 1
      vertex -0.627905 9.98027 1
      vertex 0.784881 12.4753 1
    endloop
  endfacet
  facet normal 0 0 1
    outer loop
      vertex -0.784881 12.4753 1
      vertex -1.87381 9.82287 1
      vertex -0.627905 9.98027 1
    endloop
  endfacet
  facet normal -0 0 1
    outer loop
      vertex -2.34227 12.2786 1
      vertex -1.87381 9.82287 1
      vertex -0.784881 12.4753 1
    endloop
  endfacet
  facet normal 0 0 1
    outer loop
      vertex -2.34227 12.2786 1
      vertex -3.09017 9.51056 1
      vertex -1.87381 9.82287 1
    endloop
  endfacet
  facet normal -0 0 1
    outer loop
      vertex -3.86271 11.8882 1
      vertex -3.09017 9.51056 1
      vertex -2.34227 12.2786 1
    endloop
  endfacet
  facet normal 0 0 1
    outer loop
      vertex -3.86271 11.8882 1
      vertex -4.25779 9.04827 1
      vertex -3.09017 9.51056 1
    endloop
  endfacet
  facet normal -0 0 1
    outer loop
      vertex -5.32224 11.3103 1
      vertex -4.25779 9.04827 1
      vertex -3.86271 11.8882 1
    endloop
  endfacet
  facet normal 0 0 1
    outer loop
      vertex -5.32224 11.3103 1
      vertex -5.35827 8.44328 1
      vertex -4.25779 9.04827 1
    endloop
  endfacet
  facet normal -0 0 1
    outer loop
      vertex -6.69783 10.5541 1
      vertex -5.35827 8.44328 1
      vertex -5.32224 11.3103 1
    endloop
  endfacet
  facet normal 0 0 1
    outer loop
      vertex -5.35827 8.44328 1
      vertex -6.69783 10.5541 1
      vertex -6.37424 7.70513 1
    endloop
  endfacet
  facet normal -0 0 1
    outer loop
      vertex -7.9678 9.63142 1
      vertex -6.37424 7.70513 1
      vertex -6.69783 10.5541 1
    endloop
  endfacet
  facet normal 0 0 1
    outer loop
      vertex -6.37424 7.70513 1
      vertex -7.9678 9.63142 1
      vertex -7.28969 6.84547 1
    endloop
  endfacet
  facet normal -0 0 1
    outer loop
      vertex -9.11211 8.55684 1
      vertex -7.28969 6.84547 1
      vertex -7.9678 9.63142 1
    endloop
  endfacet
  facet normal 0 0 1
    outer loop
      vertex -7.28969 6.84547 1
      vertex -9.11211 8.55684 1
      vertex -8.09017 5.87785 1
    endloop
  endfacet
  facet normal -0 0 1
    outer loop
      vertex -10.1127 7.34731 1
      vertex -8.09017 5.87785 1
      vertex -9.11211 8.55684 1
    endloop
  endfacet
  facet normal 0 0 1
    outer loop
      vertex -8.09017 5.87785 1
      vertex -10.1127 7.34731 1
      vertex -8.76307 4.81754 1
    endloop
  endfacet
  facet normal -0 0 1
    outer loop
      vertex -10.9538 6.02192 1
      vertex -8.76307 4.81754 1
      vertex -10.1127 7.34731 1
    endloop
  endfacet
  facet normal 0 0 1
    outer loop
      vertex -8.76307 4.81754 1
      vertex -10.9538 6.02192 1
      vertex -9.29776 3.68124 1
    endloop
  endfacet
  facet normal 0 0 1
    outer loop
      vertex -9.29776 3.68124 1
      vertex -11.6222 4.60156 1
      vertex -9.68583 2.4869 1
    endloop
  endfacet
  facet normal -0 0 1
    outer loop
      vertex -11.6222 4.60156 1
      vertex -9.29776 3.68124 1
      vertex -10.9538 6.02192 1
    endloop
  endfacet
  facet normal -0 0 1
    outer loop
      vertex 9.29776 -3.68124 1
      vertex 11.6222 -4.60156 1
      vertex 9.68583 -2.4869 1
    endloop
  endfacet
  facet normal 0 0 1
    outer loop
      vertex 11.6222 -4.60156 1
      vertex 9.29776 -3.68124 1
      vertex 10.9538 -6.02192 1
    endloop
  endfacet
  facet normal -0 0 1
    outer loop
      vertex 8.76307 -4.81754 1
      vertex 10.9538 -6.02192 1
      vertex 9.29776 -3.68124 1
    endloop
  endfacet
  facet normal 0 0 1
    outer loop
      vertex 10.9538 -6.02192 1
      vertex 8.76307 -4.81754 1
      vertex 10.1127 -7.34731 1
    endloop
  endfacet
  facet normal -0 0 1
    outer loop
      vertex 8.09017 -5.87785 1
      vertex 10.1127 -7.34731 1
      vertex 8.76307 -4.81754 1
    endloop
  endfacet
  facet normal 0 0 1
    outer loop
      vertex 10.1127 -7.34731 1
      vertex 8.09017 -5.87785 1
      vertex 9.11211 -8.55684 1
    endloop
  endfacet
  facet normal -0 0 1
    outer loop
      vertex 7.28969 -6.84547 1
      vertex 9.11211 -8.55684 1
      vertex 8.09017 -5.87785 1
    endloop
  endfacet
  facet normal 0 0 1
    outer loop
      vertex 9.11211 -8.55684 1
      vertex 7.28969 -6.84547 1
      vertex 7.9678 -9.63142 1
    endloop
  endfacet
  facet normal -0 0 1
    outer loop
      vertex 6.37424 -7.70513 1
      vertex 7.9678 -9.63142 1
      vertex 7.28969 -6.84547 1
    endloop
  endfacet
  facet normal 0 0 1
    outer loop
      vertex 7.9678 -9.63142 1
      vertex 6.37424 -7.70513 1
      vertex 6.69783 -10.5541 1
    endloop
  endfacet
  facet normal -0 0 1
    outer loop
      vertex 5.35827 -8.44328 1
      vertex 6.69783 -10.5541 1
      vertex 6.37424 -7.70513 1
    endloop
  endfacet
  facet normal 0 0 1
    outer loop
      vertex 5.35827 -8.44328 1
      vertex 5.32224 -11.3103 1
      vertex 6.69783 -10.5541 1
    endloop
  endfacet
  facet normal -0 0 1
    outer loop
      vertex 4.25779 -9.04827 1
      vertex 5.32224 -11.3103 1
      vertex 5.35827 -8.44328 1
    endloop
  endfacet
  facet normal 0 0 1
    outer loop
      vertex 4.25779 -9.04827 1
      vertex 3.86271 -11.8882 1
      vertex 5.32224 -11.3103 1
    endloop
  endfacet
  facet normal -0 0 1
    outer loop
      vertex 3.09017 -9.51056 1
      vertex 3.86271 -11.8882 1
      vertex 4.25779 -9.04827 1
    endloop
  endfacet
  facet normal 0 0 1
    outer loop
      vertex 3.09017 -9.51056 1
      vertex 2.34227 -12.2786 1
      vertex 3.86271 -11.8882 1
    endloop
  endfacet
  facet normal -0 0 1
    outer loop
      vertex 1.87381 -9.82287 1
      vertex 2.34227 -12.2786 1
      vertex 3.09017 -9.51056 1
    endloop
  endfacet
  facet normal 0 0 1
    outer loop
      vertex 1.87381 -9.82287 1
      vertex 0.784881 -12.4753 1
      vertex 2.34227 -12.2786 1
    endloop
  endfacet
  facet normal -0 0 1
    outer loop
      vertex 0.627905 -9.98027 1
      vertex 0.784881 -12.4753 1
      vertex 1.87381 -9.82287 1
    endloop
  endfacet
  facet normal -0 0 1
    outer loop
      vertex -0.627905 -9.98027 1
      vertex 0.784881 -12.4753 1
      vertex 0.627905 -9.98027 1
    endloop
  endfacet
  facet normal 0 0 1
    outer loop
      vertex -0.627905 -9.98027 1
      vertex -0.784881 -12.4753 1
      vertex 0.784881 -12.4753 1
    endloop
  endfacet
  facet normal 0 0 1
    outer loop
      vertex -1.87381 -9.82287 1
      vertex -0.784881 -12.4753 1
      vertex -0.627905 -9.98027 1
    endloop
  endfacet
  facet normal 0 0 1
    outer loop
      vertex -1.87381 -9.82287 1
      vertex -2.34227 -12.2786 1
      vertex -0.784881 -12.4753 1
    endloop
  endfacet
  facet normal 0 0 1
    outer loop
      vertex -3.09017 -9.51056 1
      vertex -2.34227 -12.2786 1
      vertex -1.87381 -9.82287 1
    endloop
  endfacet
  facet normal 0 0 1
    outer loop
      vertex -3.09017 -9.51056 1
      vertex -3.86271 -11.8882 1
      vertex -2.34227 -12.2786 1
    endloop
  endfacet
  facet normal 0 0 1
    outer loop
      vertex -4.25779 -9.04827 1
      vertex -3.86271 -11.8882 1
      vertex -3.09017 -9.51056 1
    endloop
  endfacet
  facet normal 0 0 1
    outer loop
      vertex -4.25779 -9.04827 1
      vertex -5.32224 -11.3103 1
      vertex -3.86271 -11.8882 1
    endloop
  endfacet
  facet normal 0 0 1
    outer loop
      vertex -5.35827 -8.44328 1
      vertex -5.32224 -11.3103 1
      vertex -4.25779 -9.04827 1
    endloop
  endfacet
  facet normal 0 0 1
    outer loop
      vertex -6.69783 -10.5541 1
      vertex -5.35827 -8.44328 1
      vertex -6.37424 -7.70513 1
    endloop
  endfacet
  facet normal 0 0 1
    outer loop
      vertex -5.35827 -8.44328 1
      vertex -6.69783 -10.5541 1
      vertex -5.32224 -11.3103 1
    endloop
  endfacet
  facet normal 0 0 1
    outer loop
      vertex -7.9678 -9.63142 1
      vertex -6.37424 -7.70513 1
      vertex -7.28969 -6.84547 1
    endloop
  endfacet
  facet normal 0 0 1
    outer loop
      vertex -6.37424 -7.70513 1
      vertex -7.9678 -9.63142 1
      vertex -6.69783 -10.5541 1
    endloop
  endfacet
  facet normal 0 0 1
    outer loop
      vertex -9.11211 -8.55684 1
      vertex -7.28969 -6.84547 1
      vertex -8.09017 -5.87785 1
    endloop
  endfacet
  facet normal 0 0 1
    outer loop
      vertex -10.1127 -7.34731 1
      vertex -8.09017 -5.87785 1
      vertex -8.76307 -4.81754 1
    endloop
  endfacet
  facet normal 0 0 1
    outer loop
      vertex -7.28969 -6.84547 1
      vertex -9.11211 -8.55684 1
      vertex -7.9678 -9.63142 1
    endloop
  endfacet
  facet normal 0 0 1
    outer loop
      vertex -10.9538 -6.02192 1
      vertex -8.76307 -4.81754 1
      vertex -9.29776 -3.68124 1
    endloop
  endfacet
  facet normal 0 0 1
    outer loop
      vertex -11.6222 -4.60156 1
      vertex -9.29776 -3.68124 1
      vertex -9.68583 -2.4869 1
    endloop
  endfacet
  facet normal 0 0 1
    outer loop
      vertex -12.1073 -3.10862 1
      vertex -9.68583 -2.4869 1
      vertex -9.92115 -1.25333 1
    endloop
  endfacet
  facet normal 0 0 1
    outer loop
      vertex -8.09017 -5.87785 1
      vertex -10.1127 -7.34731 1
      vertex -9.11211 -8.55684 1
    endloop
  endfacet
  facet normal 0 0 1
    outer loop
      vertex -12.4014 -1.56666 1
      vertex -9.92115 -1.25333 1
      vertex -10 0 1
    endloop
  endfacet
  facet normal -0 0 1
    outer loop
      vertex -12.1073 3.10862 1
      vertex -9.68583 2.4869 1
      vertex -11.6222 4.60156 1
    endloop
  endfacet
  facet normal 0 0 1
    outer loop
      vertex -9.68583 2.4869 1
      vertex -12.1073 3.10862 1
      vertex -9.92115 1.25333 1
    endloop
  endfacet
  facet normal 0 0 1
    outer loop
      vertex -8.76307 -4.81754 1
      vertex -10.9538 -6.02192 1
      vertex -10.1127 -7.34731 1
    endloop
  endfacet
  facet normal -0 0 1
    outer loop
      vertex -12.4014 1.56666 1
      vertex -9.92115 1.25333 1
      vertex -12.1073 3.10862 1
    endloop
  endfacet
  facet normal 0 0 1
    outer loop
      vertex -9.29776 -3.68124 1
      vertex -11.6222 -4.60156 1
      vertex -10.9538 -6.02192 1
    endloop
  endfacet
  facet normal 0 0 1
    outer loop
      vertex -9.92115 1.25333 1
      vertex -12.4014 1.56666 1
      vertex -10 0 1
    endloop
  endfacet
  facet normal 0 0 1
    outer loop
      vertex -9.68583 -2.4869 1
      vertex -12.1073 -3.10862 1
      vertex -11.6222 -4.60156 1
    endloop
  endfacet
  facet normal 0 0 1
    outer loop
      vertex -12.5 0 1
      vertex -10 0 1
      vertex -12.4014 1.56666 1
    endloop
  endfacet
  facet normal 0 0 1
    outer loop
      vertex -9.92115 -1.25333 1
      vertex -12.4014 -1.56666 1
      vertex -12.1073 -3.10862 1
    endloop
  endfacet
  facet normal 0 0 1
    outer loop
      vertex -10 0 1
      vertex -12.5 0 1
      vertex -12.4014 -1.56666 1
    endloop
  endfacet
  facet normal -0.481736 0.876317 0
    outer loop
      vertex -5.32224 11.3103 -1
      vertex -6.69783 10.5541 1
      vertex -5.32224 11.3103 1
    endloop
  endfacet
  facet normal -0.481736 0.876317 0
    outer loop
      vertex -6.69783 10.5541 1
      vertex -5.32224 11.3103 -1
      vertex -6.69783 10.5541 -1
    endloop
  endfacet
  facet normal -0.587782 0.809019 0
    outer loop
      vertex -6.69783 10.5541 -1
      vertex -7.9678 9.63142 1
      vertex -6.69783 10.5541 1
    endloop
  endfacet
  facet normal -0.587782 0.809019 0
    outer loop
      vertex -7.9678 9.63142 1
      vertex -6.69783 10.5541 -1
      vertex -7.9678 9.63142 -1
    endloop
  endfacet
  facet normal -0.2487 0.96858 0
    outer loop
      vertex -2.34227 12.2786 -1
      vertex -3.86271 11.8882 1
      vertex -2.34227 12.2786 1
    endloop
  endfacet
  facet normal -0.2487 0.96858 0
    outer loop
      vertex -3.86271 11.8882 1
      vertex -2.34227 12.2786 -1
      vertex -3.86271 11.8882 -1
    endloop
  endfacet
  facet normal 0.998025 -0.0628122 0
    outer loop
      vertex 12.4014 -1.56666 1
      vertex 12.5 0 -1
      vertex 12.5 0 1
    endloop
  endfacet
  facet normal 0.998025 -0.0628122 0
    outer loop
      vertex 12.5 0 -1
      vertex 12.4014 -1.56666 1
      vertex 12.4014 -1.56666 -1
    endloop
  endfacet
  facet normal 0.684548 -0.728968 0
    outer loop
      vertex 7.9678 -9.63142 -1
      vertex 9.11211 -8.55684 1
      vertex 7.9678 -9.63142 1
    endloop
  endfacet
  facet normal 0.684548 -0.728968 0
    outer loop
      vertex 9.11211 -8.55684 1
      vertex 7.9678 -9.63142 -1
      vertex 9.11211 -8.55684 -1
    endloop
  endfacet
  facet normal 0.982292 -0.187354 0
    outer loop
      vertex 12.1073 -3.10862 1
      vertex 12.4014 -1.56666 -1
      vertex 12.4014 -1.56666 1
    endloop
  endfacet
  facet normal 0.982292 -0.187354 0
    outer loop
      vertex 12.4014 -1.56666 -1
      vertex 12.1073 -3.10862 1
      vertex 12.1073 -3.10862 -1
    endloop
  endfacet
  facet normal -0.90482 -0.425795 0
    outer loop
      vertex -10.9538 -6.02192 -1
      vertex -11.6222 -4.60156 1
      vertex -11.6222 -4.60156 -1
    endloop
  endfacet
  facet normal -0.90482 -0.425795 0
    outer loop
      vertex -11.6222 -4.60156 1
      vertex -10.9538 -6.02192 -1
      vertex -10.9538 -6.02192 1
    endloop
  endfacet
  facet normal 0 0 -1
    outer loop
      vertex 10 0 -1
      vertex 12.5 0 -1
      vertex 12.4014 -1.56666 -1
    endloop
  endfacet
  facet normal 0 0 -1
    outer loop
      vertex 9.92115 -1.25333 -1
      vertex 12.4014 -1.56666 -1
      vertex 12.1073 -3.10862 -1
    endloop
  endfacet
  facet normal 0 0 -1
    outer loop
      vertex 12.5 0 -1
      vertex 10 0 -1
      vertex 12.4014 1.56666 -1
    endloop
  endfacet
  facet normal 0 0 -1
    outer loop
      vertex 9.68583 -2.4869 -1
      vertex 12.1073 -3.10862 -1
      vertex 11.6222 -4.60156 -1
    endloop
  endfacet
  facet normal 0 0 -1
    outer loop
      vertex 9.92115 1.25333 -1
      vertex 12.4014 1.56666 -1
      vertex 10 0 -1
    endloop
  endfacet
  facet normal 0 0 -1
    outer loop
      vertex 9.29776 -3.68124 -1
      vertex 11.6222 -4.60156 -1
      vertex 10.9538 -6.02192 -1
    endloop
  endfacet
  facet normal -0 0 -1
    outer loop
      vertex 12.4014 1.56666 -1
      vertex 9.92115 1.25333 -1
      vertex 12.1073 3.10862 -1
    endloop
  endfacet
  facet normal 0 0 -1
    outer loop
      vertex 8.76307 -4.81754 -1
      vertex 10.9538 -6.02192 -1
      vertex 10.1127 -7.34731 -1
    endloop
  endfacet
  facet normal 0 0 -1
    outer loop
      vertex 9.68583 2.4869 -1
      vertex 12.1073 3.10862 -1
      vertex 9.92115 1.25333 -1
    endloop
  endfacet
  facet normal -0 0 -1
    outer loop
      vertex 12.1073 3.10862 -1
      vertex 9.68583 2.4869 -1
      vertex 11.6222 4.60156 -1
    endloop
  endfacet
  facet normal 0 0 -1
    outer loop
      vertex 12.4014 -1.56666 -1
      vertex 9.92115 -1.25333 -1
      vertex 10 0 -1
    endloop
  endfacet
  facet normal 0 0 -1
    outer loop
      vertex 12.1073 -3.10862 -1
      vertex 9.68583 -2.4869 -1
      vertex 9.92115 -1.25333 -1
    endloop
  endfacet
  facet normal 0 0 -1
    outer loop
      vertex 11.6222 -4.60156 -1
      vertex 9.29776 -3.68124 -1
      vertex 9.68583 -2.4869 -1
    endloop
  endfacet
  facet normal 0 0 -1
    outer loop
      vertex 8.09017 -5.87785 -1
      vertex 10.1127 -7.34731 -1
      vertex 9.11211 -8.55684 -1
    endloop
  endfacet
  facet normal 0 0 -1
    outer loop
      vertex 10.9538 -6.02192 -1
      vertex 8.76307 -4.81754 -1
      vertex 9.29776 -3.68124 -1
    endloop
  endfacet
  facet normal 0 0 -1
    outer loop
      vertex 10.1127 -7.34731 -1
      vertex 8.09017 -5.87785 -1
      vertex 8.76307 -4.81754 -1
    endloop
  endfacet
  facet normal 0 0 -1
    outer loop
      vertex 7.28969 -6.84547 -1
      vertex 9.11211 -8.55684 -1
      vertex 7.9678 -9.63142 -1
    endloop
  endfacet
  facet normal 0 0 -1
    outer loop
      vertex 9.11211 -8.55684 -1
      vertex 7.28969 -6.84547 -1
      vertex 8.09017 -5.87785 -1
    endloop
  endfacet
  facet normal 0 0 -1
    outer loop
      vertex 6.37424 -7.70513 -1
      vertex 7.9678 -9.63142 -1
      vertex 6.69783 -10.5541 -1
    endloop
  endfacet
  facet normal 0 0 -1
    outer loop
      vertex 7.9678 -9.63142 -1
      vertex 6.37424 -7.70513 -1
      vertex 7.28969 -6.84547 -1
    endloop
  endfacet
  facet normal 0 0 -1
    outer loop
      vertex 6.69783 -10.5541 -1
      vertex 5.35827 -8.44328 -1
      vertex 6.37424 -7.70513 -1
    endloop
  endfacet
  facet normal 0 0 -1
    outer loop
      vertex 5.32224 -11.3103 -1
      vertex 5.35827 -8.44328 -1
      vertex 6.69783 -10.5541 -1
    endloop
  endfacet
  facet normal 0 0 -1
    outer loop
      vertex 5.32224 -11.3103 -1
      vertex 4.25779 -9.04827 -1
      vertex 5.35827 -8.44328 -1
    endloop
  endfacet
  facet normal 0 0 -1
    outer loop
      vertex 3.86271 -11.8882 -1
      vertex 4.25779 -9.04827 -1
      vertex 5.32224 -11.3103 -1
    endloop
  endfacet
  facet normal 0 0 -1
    outer loop
      vertex 3.86271 -11.8882 -1
      vertex 3.09017 -9.51056 -1
      vertex 4.25779 -9.04827 -1
    endloop
  endfacet
  facet normal 0 0 -1
    outer loop
      vertex 2.34227 -12.2786 -1
      vertex 3.09017 -9.51056 -1
      vertex 3.86271 -11.8882 -1
    endloop
  endfacet
  facet normal 0 0 -1
    outer loop
      vertex 2.34227 -12.2786 -1
      vertex 1.87381 -9.82287 -1
      vertex 3.09017 -9.51056 -1
    endloop
  endfacet
  facet normal 0 0 -1
    outer loop
      vertex 0.784881 -12.4753 -1
      vertex 1.87381 -9.82287 -1
      vertex 2.34227 -12.2786 -1
    endloop
  endfacet
  facet normal 0 0 -1
    outer loop
      vertex 0.784881 -12.4753 -1
      vertex 0.627905 -9.98027 -1
      vertex 1.87381 -9.82287 -1
    endloop
  endfacet
  facet normal 0 0 -1
    outer loop
      vertex 0.784881 -12.4753 -1
      vertex -0.627905 -9.98027 -1
      vertex 0.627905 -9.98027 -1
    endloop
  endfacet
  facet normal 0 0 -1
    outer loop
      vertex -0.784881 -12.4753 -1
      vertex -0.627905 -9.98027 -1
      vertex 0.784881 -12.4753 -1
    endloop
  endfacet
  facet normal 0 0 -1
    outer loop
      vertex -0.784881 -12.4753 -1
      vertex -1.87381 -9.82287 -1
      vertex -0.627905 -9.98027 -1
    endloop
  endfacet
  facet normal 0 0 -1
    outer loop
      vertex -2.34227 -12.2786 -1
      vertex -1.87381 -9.82287 -1
      vertex -0.784881 -12.4753 -1
    endloop
  endfacet
  facet normal 0 0 -1
    outer loop
      vertex -2.34227 -12.2786 -1
      vertex -3.09017 -9.51056 -1
      vertex -1.87381 -9.82287 -1
    endloop
  endfacet
  facet normal 0 0 -1
    outer loop
      vertex -3.86271 -11.8882 -1
      vertex -3.09017 -9.51056 -1
      vertex -2.34227 -12.2786 -1
    endloop
  endfacet
  facet normal 0 0 -1
    outer loop
      vertex -3.86271 -11.8882 -1
      vertex -4.25779 -9.04827 -1
      vertex -3.09017 -9.51056 -1
    endloop
  endfacet
  facet normal 0 0 -1
    outer loop
      vertex -5.32224 -11.3103 -1
      vertex -4.25779 -9.04827 -1
      vertex -3.86271 -11.8882 -1
    endloop
  endfacet
  facet normal 0 0 -1
    outer loop
      vertex -5.32224 -11.3103 -1
      vertex -5.35827 -8.44328 -1
      vertex -4.25779 -9.04827 -1
    endloop
  endfacet
  facet normal 0 0 -1
    outer loop
      vertex -6.69783 -10.5541 -1
      vertex -5.35827 -8.44328 -1
      vertex -5.32224 -11.3103 -1
    endloop
  endfacet
  facet normal -0 0 -1
    outer loop
      vertex -5.35827 -8.44328 -1
      vertex -6.69783 -10.5541 -1
      vertex -6.37424 -7.70513 -1
    endloop
  endfacet
  facet normal 0 0 -1
    outer loop
      vertex -7.9678 -9.63142 -1
      vertex -6.37424 -7.70513 -1
      vertex -6.69783 -10.5541 -1
    endloop
  endfacet
  facet normal -0 0 -1
    outer loop
      vertex -6.37424 -7.70513 -1
      vertex -7.9678 -9.63142 -1
      vertex -7.28969 -6.84547 -1
    endloop
  endfacet
  facet normal 0 0 -1
    outer loop
      vertex -9.11211 -8.55684 -1
      vertex -7.28969 -6.84547 -1
      vertex -7.9678 -9.63142 -1
    endloop
  endfacet
  facet normal -0 0 -1
    outer loop
      vertex -7.28969 -6.84547 -1
      vertex -9.11211 -8.55684 -1
      vertex -8.09017 -5.87785 -1
    endloop
  endfacet
  facet normal 0 0 -1
    outer loop
      vertex -10.1127 -7.34731 -1
      vertex -8.09017 -5.87785 -1
      vertex -9.11211 -8.55684 -1
    endloop
  endfacet
  facet normal -0 0 -1
    outer loop
      vertex -8.09017 -5.87785 -1
      vertex -10.1127 -7.34731 -1
      vertex -8.76307 -4.81754 -1
    endloop
  endfacet
  facet normal 0 0 -1
    outer loop
      vertex -10.9538 -6.02192 -1
      vertex -8.76307 -4.81754 -1
      vertex -10.1127 -7.34731 -1
    endloop
  endfacet
  facet normal -0 0 -1
    outer loop
      vertex -8.76307 -4.81754 -1
      vertex -10.9538 -6.02192 -1
      vertex -9.29776 -3.68124 -1
    endloop
  endfacet
  facet normal -0 0 -1
    outer loop
      vertex -9.29776 -3.68124 -1
      vertex -11.6222 -4.60156 -1
      vertex -9.68583 -2.4869 -1
    endloop
  endfacet
  facet normal 0 0 -1
    outer loop
      vertex -11.6222 -4.60156 -1
      vertex -9.29776 -3.68124 -1
      vertex -10.9538 -6.02192 -1
    endloop
  endfacet
  facet normal 0 0 -1
    outer loop
      vertex 9.29776 3.68124 -1
      vertex 11.6222 4.60156 -1
      vertex 9.68583 2.4869 -1
    endloop
  endfacet
  facet normal -0 0 -1
    outer loop
      vertex 11.6222 4.60156 -1
      vertex 9.29776 3.68124 -1
      vertex 10.9538 6.02192 -1
    endloop
  endfacet
  facet normal 0 0 -1
    outer loop
      vertex 8.76307 4.81754 -1
      vertex 10.9538 6.02192 -1
      vertex 9.29776 3.68124 -1
    endloop
  endfacet
  facet normal -0 0 -1
    outer loop
      vertex 10.9538 6.02192 -1
      vertex 8.76307 4.81754 -1
      vertex 10.1127 7.34731 -1
    endloop
  endfacet
  facet normal 0 0 -1
    outer loop
      vertex 8.09017 5.87785 -1
      vertex 10.1127 7.34731 -1
      vertex 8.76307 4.81754 -1
    endloop
  endfacet
  facet normal -0 0 -1
    outer loop
      vertex 10.1127 7.34731 -1
      vertex 8.09017 5.87785 -1
      vertex 9.11211 8.55684 -1
    endloop
  endfacet
  facet normal 0 0 -1
    outer loop
      vertex 7.28969 6.84547 -1
      vertex 9.11211 8.55684 -1
      vertex 8.09017 5.87785 -1
    endloop
  endfacet
  facet normal -0 0 -1
    outer loop
      vertex 9.11211 8.55684 -1
      vertex 7.28969 6.84547 -1
      vertex 7.9678 9.63142 -1
    endloop
  endfacet
  facet normal 0 0 -1
    outer loop
      vertex 6.37424 7.70513 -1
      vertex 7.9678 9.63142 -1
      vertex 7.28969 6.84547 -1
    endloop
  endfacet
  facet normal -0 0 -1
    outer loop
      vertex 7.9678 9.63142 -1
      vertex 6.37424 7.70513 -1
      vertex 6.69783 10.5541 -1
    endloop
  endfacet
  facet normal 0 0 -1
    outer loop
      vertex 5.35827 8.44328 -1
      vertex 6.69783 10.5541 -1
      vertex 6.37424 7.70513 -1
    endloop
  endfacet
  facet normal 0 0 -1
    outer loop
      vertex 5.35827 8.44328 -1
      vertex 5.32224 11.3103 -1
      vertex 6.69783 10.5541 -1
    endloop
  endfacet
  facet normal 0 0 -1
    outer loop
      vertex 4.25779 9.04827 -1
      vertex 5.32224 11.3103 -1
      vertex 5.35827 8.44328 -1
    endloop
  endfacet
  facet normal 0 0 -1
    outer loop
      vertex 4.25779 9.04827 -1
      vertex 3.86271 11.8882 -1
      vertex 5.32224 11.3103 -1
    endloop
  endfacet
  facet normal 0 0 -1
    outer loop
      vertex 3.09017 9.51056 -1
      vertex 3.86271 11.8882 -1
      vertex 4.25779 9.04827 -1
    endloop
  endfacet
  facet normal 0 0 -1
    outer loop
      vertex 3.09017 9.51056 -1
      vertex 2.34227 12.2786 -1
      vertex 3.86271 11.8882 -1
    endloop
  endfacet
  facet normal 0 0 -1
    outer loop
      vertex 1.87381 9.82287 -1
      vertex 2.34227 12.2786 -1
      vertex 3.09017 9.51056 -1
    endloop
  endfacet
  facet normal 0 0 -1
    outer loop
      vertex 1.87381 9.82287 -1
      vertex 0.784881 12.4753 -1
      vertex 2.34227 12.2786 -1
    endloop
  endfacet
  facet normal 0 0 -1
    outer loop
      vertex 0.627905 9.98027 -1
      vertex 0.784881 12.4753 -1
      vertex 1.87381 9.82287 -1
    endloop
  endfacet
  facet normal 0 0 -1
    outer loop
      vertex -0.627905 9.98027 -1
      vertex 0.784881 12.4753 -1
      vertex 0.627905 9.98027 -1
    endloop
  endfacet
  facet normal 0 0 -1
    outer loop
      vertex -0.627905 9.98027 -1
      vertex -0.784881 12.4753 -1
      vertex 0.784881 12.4753 -1
    endloop
  endfacet
  facet normal 0 0 -1
    outer loop
      vertex -1.87381 9.82287 -1
      vertex -0.784881 12.4753 -1
      vertex -0.627905 9.98027 -1
    endloop
  endfacet
  facet normal 0 0 -1
    outer loop
      vertex -1.87381 9.82287 -1
      vertex -2.34227 12.2786 -1
      vertex -0.784881 12.4753 -1
    endloop
  endfacet
  facet normal 0 0 -1
    outer loop
      vertex -3.09017 9.51056 -1
      vertex -2.34227 12.2786 -1
      vertex -1.87381 9.82287 -1
    endloop
  endfacet
  facet normal 0 0 -1
    outer loop
      vertex -3.09017 9.51056 -1
      vertex -3.86271 11.8882 -1
      vertex -2.34227 12.2786 -1
    endloop
  endfacet
  facet normal 0 0 -1
    outer loop
      vertex -4.25779 9.04827 -1
      vertex -3.86271 11.8882 -1
      vertex -3.09017 9.51056 -1
    endloop
  endfacet
  facet normal 0 0 -1
    outer loop
      vertex -4.25779 9.04827 -1
      vertex -5.32224 11.3103 -1
      vertex -3.86271 11.8882 -1
    endloop
  endfacet
  facet normal 0 0 -1
    outer loop
      vertex -5.35827 8.44328 -1
      vertex -5.32224 11.3103 -1
      vertex -4.25779 9.04827 -1
    endloop
  endfacet
  facet normal 0 0 -1
    outer loop
      vertex -6.69783 10.5541 -1
      vertex -5.35827 8.44328 -1
      vertex -6.37424 7.70513 -1
    endloop
  endfacet
  facet normal 0 0 -1
    outer loop
      vertex -5.35827 8.44328 -1
      vertex -6.69783 10.5541 -1
      vertex -5.32224 11.3103 -1
    endloop
  endfacet
  facet normal 0 0 -1
    outer loop
      vertex -7.9678 9.63142 -1
      vertex -6.37424 7.70513 -1
      vertex -7.28969 6.84547 -1
    endloop
  endfacet
  facet normal 0 0 -1
    outer loop
      vertex -6.37424 7.70513 -1
      vertex -7.9678 9.63142 -1
      vertex -6.69783 10.5541 -1
    endloop
  endfacet
  facet normal 0 0 -1
    outer loop
      vertex -9.11211 8.55684 -1
      vertex -7.28969 6.84547 -1
      vertex -8.09017 5.87785 -1
    endloop
  endfacet
  facet normal 0 0 -1
    outer loop
      vertex -10.1127 7.34731 -1
      vertex -8.09017 5.87785 -1
      vertex -8.76307 4.81754 -1
    endloop
  endfacet
  facet normal 0 0 -1
    outer loop
      vertex -7.28969 6.84547 -1
      vertex -9.11211 8.55684 -1
      vertex -7.9678 9.63142 -1
    endloop
  endfacet
  facet normal 0 0 -1
    outer loop
      vertex -10.9538 6.02192 -1
      vertex -8.76307 4.81754 -1
      vertex -9.29776 3.68124 -1
    endloop
  endfacet
  facet normal 0 0 -1
    outer loop
      vertex -11.6222 4.60156 -1
      vertex -9.29776 3.68124 -1
      vertex -9.68583 2.4869 -1
    endloop
  endfacet
  facet normal 0 0 -1
    outer loop
      vertex -12.1073 3.10862 -1
      vertex -9.68583 2.4869 -1
      vertex -9.92115 1.25333 -1
    endloop
  endfacet
  facet normal 0 0 -1
    outer loop
      vertex -8.09017 5.87785 -1
      vertex -10.1127 7.34731 -1
      vertex -9.11211 8.55684 -1
    endloop
  endfacet
  facet normal 0 0 -1
    outer loop
      vertex -12.4014 1.56666 -1
      vertex -9.92115 1.25333 -1
      vertex -10 0 -1
    endloop
  endfacet
  facet normal 0 0 -1
    outer loop
      vertex -12.1073 -3.10862 -1
      vertex -9.68583 -2.4869 -1
      vertex -11.6222 -4.60156 -1
    endloop
  endfacet
  facet normal -0 0 -1
    outer loop
      vertex -9.68583 -2.4869 -1
      vertex -12.1073 -3.10862 -1
      vertex -9.92115 -1.25333 -1
    endloop
  endfacet
  facet normal 0 0 -1
    outer loop
      vertex -8.76307 4.81754 -1
      vertex -10.9538 6.02192 -1
      vertex -10.1127 7.34731 -1
    endloop
  endfacet
  facet normal 0 0 -1
    outer loop
      vertex -12.4014 -1.56666 -1
      vertex -9.92115 -1.25333 -1
      vertex -12.1073 -3.10862 -1
    endloop
  endfacet
  facet normal 0 0 -1
    outer loop
      vertex -9.29776 3.68124 -1
      vertex -11.6222 4.60156 -1
      vertex -10.9538 6.02192 -1
    endloop
  endfacet
  facet normal -0 0 -1
    outer loop
      vertex -9.92115 -1.25333 -1
      vertex -12.4014 -1.56666 -1
      vertex -10 0 -1
    endloop
  endfacet
  facet normal 0 0 -1
    outer loop
      vertex -9.68583 2.4869 -1
      vertex -12.1073 3.10862 -1
      vertex -11.6222 4.60156 -1
    endloop
  endfacet
  facet normal 0 0 -1
    outer loop
      vertex -12.5 0 -1
      vertex -10 0 -1
      vertex -12.4014 -1.56666 -1
    endloop
  endfacet
  facet normal 0 0 -1
    outer loop
      vertex -9.92115 1.25333 -1
      vertex -12.4014 1.56666 -1
      vertex -12.1073 3.10862 -1
    endloop
  endfacet
  facet normal 0 0 -1
    outer loop
      vertex -10 0 -1
      vertex -12.5 0 -1
      vertex -12.4014 1.56666 -1
    endloop
  endfacet
  facet normal 0.77052 -0.637416 0
    outer loop
      vertex 9.11211 -8.55684 1
      vertex 10.1127 -7.34731 -1
      vertex 10.1127 -7.34731 1
    endloop
  endfacet
  facet normal 0.77052 -0.637416 0
    outer loop
      vertex 10.1127 -7.34731 -1
      vertex 9.11211 -8.55684 1
      vertex 9.11211 -8.55684 -1
    endloop
  endfacet
  facet normal 0.90482 -0.425795 0
    outer loop
      vertex 10.9538 -6.02192 1
      vertex 11.6222 -4.60156 -1
      vertex 11.6222 -4.60156 1
    endloop
  endfacet
  facet normal 0.90482 -0.425795 0
    outer loop
      vertex 11.6222 -4.60156 -1
      vertex 10.9538 -6.02192 1
      vertex 10.9538 -6.02192 -1
    endloop
  endfacet
  facet normal -0.951054 -0.309025 0
    outer loop
      vertex -11.6222 -4.60156 -1
      vertex -12.1073 -3.10862 1
      vertex -12.1073 -3.10862 -1
    endloop
  endfacet
  facet normal -0.951054 -0.309025 0
    outer loop
      vertex -12.1073 -3.10862 1
      vertex -11.6222 -4.60156 -1
      vertex -11.6222 -4.60156 1
    endloop
  endfacet
  facet normal 0.2487 -0.96858 0
    outer loop
      vertex 2.34227 -12.2786 -1
      vertex 3.86271 -11.8882 1
      vertex 2.34227 -12.2786 1
    endloop
  endfacet
  facet normal 0.2487 -0.96858 0
    outer loop
      vertex 3.86271 -11.8882 1
      vertex 2.34227 -12.2786 -1
      vertex 3.86271 -11.8882 -1
    endloop
  endfacet
  facet normal 0.844333 -0.535819 0
    outer loop
      vertex 10.1127 -7.34731 1
      vertex 10.9538 -6.02192 -1
      vertex 10.9538 -6.02192 1
    endloop
  endfacet
  facet normal 0.844333 -0.535819 0
    outer loop
      vertex 10.9538 -6.02192 -1
      vertex 10.1127 -7.34731 1
      vertex 10.1127 -7.34731 -1
    endloop
  endfacet
  facet normal 0.587782 -0.809019 0
    outer loop
      vertex 6.69783 -10.5541 -1
      vertex 7.9678 -9.63142 1
      vertex 6.69783 -10.5541 1
    endloop
  endfacet
  facet normal 0.587782 -0.809019 0
    outer loop
      vertex 7.9678 -9.63142 1
      vertex 6.69783 -10.5541 -1
      vertex 7.9678 -9.63142 -1
    endloop
  endfacet
  facet normal 0.481736 -0.876317 0
    outer loop
      vertex 5.32224 -11.3103 -1
      vertex 6.69783 -10.5541 1
      vertex 5.32224 -11.3103 1
    endloop
  endfacet
  facet normal 0.481736 -0.876317 0
    outer loop
      vertex 6.69783 -10.5541 1
      vertex 5.32224 -11.3103 -1
      vertex 6.69783 -10.5541 -1
    endloop
  endfacet
  facet normal 0.951054 -0.309025 0
    outer loop
      vertex 11.6222 -4.60156 1
      vertex 12.1073 -3.10862 -1
      vertex 12.1073 -3.10862 1
    endloop
  endfacet
  facet normal 0.951054 -0.309025 0
    outer loop
      vertex 12.1073 -3.10862 -1
      vertex 11.6222 -4.60156 1
      vertex 11.6222 -4.60156 -1
    endloop
  endfacet
  facet normal -0.125306 -0.992118 0
    outer loop
      vertex -2.34227 -12.2786 -1
      vertex -0.784881 -12.4753 1
      vertex -2.34227 -12.2786 1
    endloop
  endfacet
  facet normal -0.125306 -0.992118 -0
    outer loop
      vertex -0.784881 -12.4753 1
      vertex -2.34227 -12.2786 -1
      vertex -0.784881 -12.4753 -1
    endloop
  endfacet
  facet normal -0.368142 -0.92977 0
    outer loop
      vertex -5.32224 -11.3103 -1
      vertex -3.86271 -11.8882 1
      vertex -5.32224 -11.3103 1
    endloop
  endfacet
  facet normal -0.368142 -0.92977 -0
    outer loop
      vertex -3.86271 -11.8882 1
      vertex -5.32224 -11.3103 -1
      vertex -3.86271 -11.8882 -1
    endloop
  endfacet
  facet normal -0.2487 -0.96858 0
    outer loop
      vertex -3.86271 -11.8882 -1
      vertex -2.34227 -12.2786 1
      vertex -3.86271 -11.8882 1
    endloop
  endfacet
  facet normal -0.2487 -0.96858 -0
    outer loop
      vertex -2.34227 -12.2786 1
      vertex -3.86271 -11.8882 -1
      vertex -2.34227 -12.2786 -1
    endloop
  endfacet
  facet normal -0.77052 -0.637416 0
    outer loop
      vertex -9.11211 -8.55684 -1
      vertex -10.1127 -7.34731 1
      vertex -10.1127 -7.34731 -1
    endloop
  endfacet
  facet normal -0.77052 -0.637416 0
    outer loop
      vertex -10.1127 -7.34731 1
      vertex -9.11211 -8.55684 -1
      vertex -9.11211 -8.55684 1
    endloop
  endfacet
  facet normal -0.684548 -0.728968 0
    outer loop
      vertex -9.11211 -8.55684 -1
      vertex -7.9678 -9.63142 1
      vertex -9.11211 -8.55684 1
    endloop
  endfacet
  facet normal -0.684548 -0.728968 -0
    outer loop
      vertex -7.9678 -9.63142 1
      vertex -9.11211 -8.55684 -1
      vertex -7.9678 -9.63142 -1
    endloop
  endfacet
  facet normal -0.982292 -0.187354 0
    outer loop
      vertex -12.1073 -3.10862 -1
      vertex -12.4014 -1.56666 1
      vertex -12.4014 -1.56666 -1
    endloop
  endfacet
  facet normal -0.982292 -0.187354 0
    outer loop
      vertex -12.4014 -1.56666 1
      vertex -12.1073 -3.10862 -1
      vertex -12.1073 -3.10862 1
    endloop
  endfacet
  facet normal -0.998025 -0.0628122 0
    outer loop
      vertex -12.4014 -1.56666 -1
      vertex -12.5 0 1
      vertex -12.5 0 -1
    endloop
  endfacet
  facet normal -0.998025 -0.0628122 0
    outer loop
      vertex -12.5 0 1
      vertex -12.4014 -1.56666 -1
      vertex -12.4014 -1.56666 1
    endloop
  endfacet
  facet normal -0.844333 -0.535819 0
    outer loop
      vertex -10.1127 -7.34731 -1
      vertex -10.9538 -6.02192 1
      vertex -10.9538 -6.02192 -1
    endloop
  endfacet
  facet normal -0.844333 -0.535819 0
    outer loop
      vertex -10.9538 -6.02192 1
      vertex -10.1127 -7.34731 -1
      vertex -10.1127 -7.34731 1
    endloop
  endfacet
  facet normal -0.481736 -0.876317 0
    outer loop
      vertex -6.69783 -10.5541 -1
      vertex -5.32224 -11.3103 1
      vertex -6.69783 -10.5541 1
    endloop
  endfacet
  facet normal -0.481736 -0.876317 -0
    outer loop
      vertex -5.32224 -11.3103 1
      vertex -6.69783 -10.5541 -1
      vertex -5.32224 -11.3103 -1
    endloop
  endfacet
  facet normal -0.587782 -0.809019 0
    outer loop
      vertex -7.9678 -9.63142 -1
      vertex -6.69783 -10.5541 1
      vertex -7.9678 -9.63142 1
    endloop
  endfacet
  facet normal -0.587782 -0.809019 -0
    outer loop
      vertex -6.69783 -10.5541 1
      vertex -7.9678 -9.63142 -1
      vertex -6.69783 -10.5541 -1
    endloop
  endfacet
  facet normal -0.904831 -0.425771 0
    outer loop
      vertex 9.29776 3.68124 -1
      vertex 8.76307 4.81754 1
      vertex 8.76307 4.81754 -1
    endloop
  endfacet
  facet normal -0.904831 -0.425771 0
    outer loop
      vertex 8.76307 4.81754 1
      vertex 9.29776 3.68124 -1
      vertex 9.29776 3.68124 1
    endloop
  endfacet
  facet normal 0.951055 -0.309021 0
    outer loop
      vertex -9.68583 2.4869 1
      vertex -9.29776 3.68124 -1
      vertex -9.29776 3.68124 1
    endloop
  endfacet
  facet normal 0.951055 -0.309021 0
    outer loop
      vertex -9.29776 3.68124 -1
      vertex -9.68583 2.4869 1
      vertex -9.68583 2.4869 -1
    endloop
  endfacet
  facet normal -0.844325 -0.535831 0
    outer loop
      vertex 8.76307 4.81754 -1
      vertex 8.09017 5.87785 1
      vertex 8.09017 5.87785 -1
    endloop
  endfacet
  facet normal -0.844325 -0.535831 0
    outer loop
      vertex 8.09017 5.87785 1
      vertex 8.76307 4.81754 -1
      vertex 8.76307 4.81754 1
    endloop
  endfacet
  facet normal -0.248691 -0.968583 0
    outer loop
      vertex 1.87381 9.82287 -1
      vertex 3.09017 9.51056 1
      vertex 1.87381 9.82287 1
    endloop
  endfacet
  facet normal -0.248691 -0.968583 -0
    outer loop
      vertex 3.09017 9.51056 1
      vertex 1.87381 9.82287 -1
      vertex 3.09017 9.51056 -1
    endloop
  endfacet
  facet normal -0.368122 -0.929777 0
    outer loop
      vertex 3.09017 9.51056 -1
      vertex 4.25779 9.04827 1
      vertex 3.09017 9.51056 1
    endloop
  endfacet
  facet normal -0.368122 -0.929777 -0
    outer loop
      vertex 4.25779 9.04827 1
      vertex 3.09017 9.51056 -1
      vertex 4.25779 9.04827 -1
    endloop
  endfacet
  facet normal 0.368122 -0.929777 0
    outer loop
      vertex -4.25779 9.04827 -1
      vertex -3.09017 9.51056 1
      vertex -4.25779 9.04827 1
    endloop
  endfacet
  facet normal 0.368122 -0.929777 0
    outer loop
      vertex -3.09017 9.51056 1
      vertex -4.25779 9.04827 -1
      vertex -3.09017 9.51056 -1
    endloop
  endfacet
  facet normal 0.904831 -0.425771 0
    outer loop
      vertex -9.29776 3.68124 1
      vertex -8.76307 4.81754 -1
      vertex -8.76307 4.81754 1
    endloop
  endfacet
  facet normal 0.904831 -0.425771 0
    outer loop
      vertex -8.76307 4.81754 -1
      vertex -9.29776 3.68124 1
      vertex -9.29776 3.68124 -1
    endloop
  endfacet
  facet normal -0.982287 0.187384 0
    outer loop
      vertex 9.68583 -2.4869 -1
      vertex 9.92115 -1.25333 1
      vertex 9.92115 -1.25333 -1
    endloop
  endfacet
  facet normal -0.982287 0.187384 0
    outer loop
      vertex 9.92115 -1.25333 1
      vertex 9.68583 -2.4869 -1
      vertex 9.68583 -2.4869 1
    endloop
  endfacet
  facet normal -0.125338 -0.992114 0
    outer loop
      vertex 0.627905 9.98027 -1
      vertex 1.87381 9.82287 1
      vertex 0.627905 9.98027 1
    endloop
  endfacet
  facet normal -0.125338 -0.992114 -0
    outer loop
      vertex 1.87381 9.82287 1
      vertex 0.627905 9.98027 -1
      vertex 1.87381 9.82287 -1
    endloop
  endfacet
  facet normal -0.481751 -0.876308 0
    outer loop
      vertex 4.25779 9.04827 -1
      vertex 5.35827 8.44328 1
      vertex 4.25779 9.04827 1
    endloop
  endfacet
  facet normal -0.481751 -0.876308 -0
    outer loop
      vertex 5.35827 8.44328 1
      vertex 4.25779 9.04827 -1
      vertex 5.35827 8.44328 -1
    endloop
  endfacet
  facet normal 0.982287 -0.187384 0
    outer loop
      vertex -9.92115 1.25333 1
      vertex -9.68583 2.4869 -1
      vertex -9.68583 2.4869 1
    endloop
  endfacet
  facet normal 0.982287 -0.187384 0
    outer loop
      vertex -9.68583 2.4869 -1
      vertex -9.92115 1.25333 1
      vertex -9.92115 1.25333 -1
    endloop
  endfacet
  facet normal 0.770515 -0.637422 0
    outer loop
      vertex -8.09017 5.87785 1
      vertex -7.28969 6.84547 -1
      vertex -7.28969 6.84547 1
    endloop
  endfacet
  facet normal 0.770515 -0.637422 0
    outer loop
      vertex -7.28969 6.84547 -1
      vertex -8.09017 5.87785 1
      vertex -8.09017 5.87785 -1
    endloop
  endfacet
  facet normal 0.481751 -0.876308 0
    outer loop
      vertex -5.35827 8.44328 -1
      vertex -4.25779 9.04827 1
      vertex -5.35827 8.44328 1
    endloop
  endfacet
  facet normal 0.481751 -0.876308 0
    outer loop
      vertex -4.25779 9.04827 1
      vertex -5.35827 8.44328 -1
      vertex -4.25779 9.04827 -1
    endloop
  endfacet
  facet normal 0.125338 -0.992114 0
    outer loop
      vertex -1.87381 9.82287 -1
      vertex -0.627905 9.98027 1
      vertex -1.87381 9.82287 1
    endloop
  endfacet
  facet normal 0.125338 -0.992114 0
    outer loop
      vertex -0.627905 9.98027 1
      vertex -1.87381 9.82287 -1
      vertex -0.627905 9.98027 -1
    endloop
  endfacet
  facet normal -0.998027 -0.0627883 0
    outer loop
      vertex 10 0 -1
      vertex 9.92115 1.25333 1
      vertex 9.92115 1.25333 -1
    endloop
  endfacet
  facet normal -0.998027 -0.0627883 0
    outer loop
      vertex 9.92115 1.25333 1
      vertex 10 0 -1
      vertex 10 0 1
    endloop
  endfacet
  facet normal -0.481751 0.876308 0
    outer loop
      vertex 5.35827 -8.44328 -1
      vertex 4.25779 -9.04827 1
      vertex 5.35827 -8.44328 1
    endloop
  endfacet
  facet normal -0.481751 0.876308 0
    outer loop
      vertex 4.25779 -9.04827 1
      vertex 5.35827 -8.44328 -1
      vertex 4.25779 -9.04827 -1
    endloop
  endfacet
  facet normal -0.951055 0.309021 0
    outer loop
      vertex 9.29776 -3.68124 -1
      vertex 9.68583 -2.4869 1
      vertex 9.68583 -2.4869 -1
    endloop
  endfacet
  facet normal -0.951055 0.309021 0
    outer loop
      vertex 9.68583 -2.4869 1
      vertex 9.29776 -3.68124 -1
      vertex 9.29776 -3.68124 1
    endloop
  endfacet
  facet normal 0.684545 0.728971 -0
    outer loop
      vertex -6.37424 -7.70513 -1
      vertex -7.28969 -6.84547 1
      vertex -6.37424 -7.70513 1
    endloop
  endfacet
  facet normal 0.684545 0.728971 0
    outer loop
      vertex -7.28969 -6.84547 1
      vertex -6.37424 -7.70513 -1
      vertex -7.28969 -6.84547 -1
    endloop
  endfacet
  facet normal -0.982287 -0.187384 0
    outer loop
      vertex 9.92115 1.25333 -1
      vertex 9.68583 2.4869 1
      vertex 9.68583 2.4869 -1
    endloop
  endfacet
  facet normal -0.982287 -0.187384 0
    outer loop
      vertex 9.68583 2.4869 1
      vertex 9.92115 1.25333 -1
      vertex 9.92115 1.25333 1
    endloop
  endfacet
  facet normal -0.951055 -0.309021 0
    outer loop
      vertex 9.68583 2.4869 -1
      vertex 9.29776 3.68124 1
      vertex 9.29776 3.68124 -1
    endloop
  endfacet
  facet normal -0.951055 -0.309021 0
    outer loop
      vertex 9.29776 3.68124 1
      vertex 9.68583 2.4869 -1
      vertex 9.68583 2.4869 1
    endloop
  endfacet
  facet normal -0.684545 -0.728971 0
    outer loop
      vertex 6.37424 7.70513 -1
      vertex 7.28969 6.84547 1
      vertex 6.37424 7.70513 1
    endloop
  endfacet
  facet normal -0.684545 -0.728971 -0
    outer loop
      vertex 7.28969 6.84547 1
      vertex 6.37424 7.70513 -1
      vertex 7.28969 6.84547 -1
    endloop
  endfacet
  facet normal -0.770515 -0.637422 0
    outer loop
      vertex 8.09017 5.87785 -1
      vertex 7.28969 6.84547 1
      vertex 7.28969 6.84547 -1
    endloop
  endfacet
  facet normal -0.770515 -0.637422 0
    outer loop
      vertex 7.28969 6.84547 1
      vertex 8.09017 5.87785 -1
      vertex 8.09017 5.87785 1
    endloop
  endfacet
  facet normal 0 -1 0
    outer loop
      vertex -0.627905 9.98027 -1
      vertex 0.627905 9.98027 1
      vertex -0.627905 9.98027 1
    endloop
  endfacet
  facet normal 0 -1 -0
    outer loop
      vertex 0.627905 9.98027 1
      vertex -0.627905 9.98027 -1
      vertex 0.627905 9.98027 -1
    endloop
  endfacet
  facet normal -0.587788 -0.809015 0
    outer loop
      vertex 5.35827 8.44328 -1
      vertex 6.37424 7.70513 1
      vertex 5.35827 8.44328 1
    endloop
  endfacet
  facet normal -0.587788 -0.809015 -0
    outer loop
      vertex 6.37424 7.70513 1
      vertex 5.35827 8.44328 -1
      vertex 6.37424 7.70513 -1
    endloop
  endfacet
  facet normal 0.998027 -0.0627883 0
    outer loop
      vertex -10 0 1
      vertex -9.92115 1.25333 -1
      vertex -9.92115 1.25333 1
    endloop
  endfacet
  facet normal 0.998027 -0.0627883 0
    outer loop
      vertex -9.92115 1.25333 -1
      vertex -10 0 1
      vertex -10 0 -1
    endloop
  endfacet
  facet normal 0.844325 -0.535831 0
    outer loop
      vertex -8.76307 4.81754 1
      vertex -8.09017 5.87785 -1
      vertex -8.09017 5.87785 1
    endloop
  endfacet
  facet normal 0.844325 -0.535831 0
    outer loop
      vertex -8.09017 5.87785 -1
      vertex -8.76307 4.81754 1
      vertex -8.76307 4.81754 -1
    endloop
  endfacet
  facet normal 0.248691 -0.968583 0
    outer loop
      vertex -3.09017 9.51056 -1
      vertex -1.87381 9.82287 1
      vertex -3.09017 9.51056 1
    endloop
  endfacet
  facet normal 0.248691 -0.968583 0
    outer loop
      vertex -1.87381 9.82287 1
      vertex -3.09017 9.51056 -1
      vertex -1.87381 9.82287 -1
    endloop
  endfacet
  facet normal 0.587788 -0.809015 0
    outer loop
      vertex -6.37424 7.70513 -1
      vertex -5.35827 8.44328 1
      vertex -6.37424 7.70513 1
    endloop
  endfacet
  facet normal 0.587788 -0.809015 0
    outer loop
      vertex -5.35827 8.44328 1
      vertex -6.37424 7.70513 -1
      vertex -5.35827 8.44328 -1
    endloop
  endfacet
  facet normal 0.684545 -0.728971 0
    outer loop
      vertex -7.28969 6.84547 -1
      vertex -6.37424 7.70513 1
      vertex -7.28969 6.84547 1
    endloop
  endfacet
  facet normal 0.684545 -0.728971 0
    outer loop
      vertex -6.37424 7.70513 1
      vertex -7.28969 6.84547 -1
      vertex -6.37424 7.70513 -1
    endloop
  endfacet
  facet normal 0 1 -0
    outer loop
      vertex 0.627905 -9.98027 -1
      vertex -0.627905 -9.98027 1
      vertex 0.627905 -9.98027 1
    endloop
  endfacet
  facet normal 0 1 0
    outer loop
      vertex -0.627905 -9.98027 1
      vertex 0.627905 -9.98027 -1
      vertex -0.627905 -9.98027 -1
    endloop
  endfacet
  facet normal 0.951055 0.309021 0
    outer loop
      vertex -9.29776 -3.68124 1
      vertex -9.68583 -2.4869 -1
      vertex -9.68583 -2.4869 1
    endloop
  endfacet
  facet normal 0.951055 0.309021 0
    outer loop
      vertex -9.68583 -2.4869 -1
      vertex -9.29776 -3.68124 1
      vertex -9.29776 -3.68124 -1
    endloop
  endfacet
  facet normal 0.770515 0.637422 0
    outer loop
      vertex -7.28969 -6.84547 1
      vertex -8.09017 -5.87785 -1
      vertex -8.09017 -5.87785 1
    endloop
  endfacet
  facet normal 0.770515 0.637422 0
    outer loop
      vertex -8.09017 -5.87785 -1
      vertex -7.28969 -6.84547 1
      vertex -7.28969 -6.84547 -1
    endloop
  endfacet
  facet normal -0.125338 0.992114 0
    outer loop
      vertex 1.87381 -9.82287 -1
      vertex 0.627905 -9.98027 1
      vertex 1.87381 -9.82287 1
    endloop
  endfacet
  facet normal -0.125338 0.992114 0
    outer loop
      vertex 0.627905 -9.98027 1
      vertex 1.87381 -9.82287 -1
      vertex 0.627905 -9.98027 -1
    endloop
  endfacet
  facet normal -0.998027 0.0627883 0
    outer loop
      vertex 9.92115 -1.25333 -1
      vertex 10 0 1
      vertex 10 0 -1
    endloop
  endfacet
  facet normal -0.998027 0.0627883 0
    outer loop
      vertex 10 0 1
      vertex 9.92115 -1.25333 -1
      vertex 9.92115 -1.25333 1
    endloop
  endfacet
  facet normal -0.770515 0.637422 0
    outer loop
      vertex 7.28969 -6.84547 -1
      vertex 8.09017 -5.87785 1
      vertex 8.09017 -5.87785 -1
    endloop
  endfacet
  facet normal -0.770515 0.637422 0
    outer loop
      vertex 8.09017 -5.87785 1
      vertex 7.28969 -6.84547 -1
      vertex 7.28969 -6.84547 1
    endloop
  endfacet
  facet normal -0.844325 0.535831 0
    outer loop
      vertex 8.09017 -5.87785 -1
      vertex 8.76307 -4.81754 1
      vertex 8.76307 -4.81754 -1
    endloop
  endfacet
  facet normal -0.844325 0.535831 0
    outer loop
      vertex 8.76307 -4.81754 1
      vertex 8.09017 -5.87785 -1
      vertex 8.09017 -5.87785 1
    endloop
  endfacet
  facet normal -0.904831 0.425771 0
    outer loop
      vertex 8.76307 -4.81754 -1
      vertex 9.29776 -3.68124 1
      vertex 9.29776 -3.68124 -1
    endloop
  endfacet
  facet normal -0.904831 0.425771 0
    outer loop
      vertex 9.29776 -3.68124 1
      vertex 8.76307 -4.81754 -1
      vertex 8.76307 -4.81754 1
    endloop
  endfacet
  facet normal 0.481751 0.876308 -0
    outer loop
      vertex -4.25779 -9.04827 -1
      vertex -5.35827 -8.44328 1
      vertex -4.25779 -9.04827 1
    endloop
  endfacet
  facet normal 0.481751 0.876308 0
    outer loop
      vertex -5.35827 -8.44328 1
      vertex -4.25779 -9.04827 -1
      vertex -5.35827 -8.44328 -1
    endloop
  endfacet
  facet normal 0.248691 0.968583 -0
    outer loop
      vertex -1.87381 -9.82287 -1
      vertex -3.09017 -9.51056 1
      vertex -1.87381 -9.82287 1
    endloop
  endfacet
  facet normal 0.248691 0.968583 0
    outer loop
      vertex -3.09017 -9.51056 1
      vertex -1.87381 -9.82287 -1
      vertex -3.09017 -9.51056 -1
    endloop
  endfacet
  facet normal 0.998027 0.0627883 0
    outer loop
      vertex -9.92115 -1.25333 1
      vertex -10 0 -1
      vertex -10 0 1
    endloop
  endfacet
  facet normal 0.998027 0.0627883 0
    outer loop
      vertex -10 0 -1
      vertex -9.92115 -1.25333 1
      vertex -9.92115 -1.25333 -1
    endloop
  endfacet
  facet normal -0.368122 0.929777 0
    outer loop
      vertex 4.25779 -9.04827 -1
      vertex 3.09017 -9.51056 1
      vertex 4.25779 -9.04827 1
    endloop
  endfacet
  facet normal -0.368122 0.929777 0
    outer loop
      vertex 3.09017 -9.51056 1
      vertex 4.25779 -9.04827 -1
      vertex 3.09017 -9.51056 -1
    endloop
  endfacet
  facet normal -0.248691 0.968583 0
    outer loop
      vertex 3.09017 -9.51056 -1
      vertex 1.87381 -9.82287 1
      vertex 3.09017 -9.51056 1
    endloop
  endfacet
  facet normal -0.248691 0.968583 0
    outer loop
      vertex 1.87381 -9.82287 1
      vertex 3.09017 -9.51056 -1
      vertex 1.87381 -9.82287 -1
    endloop
  endfacet
  facet normal -0.684545 0.728971 0
    outer loop
      vertex 7.28969 -6.84547 -1
      vertex 6.37424 -7.70513 1
      vertex 7.28969 -6.84547 1
    endloop
  endfacet
  facet normal -0.684545 0.728971 0
    outer loop
      vertex 6.37424 -7.70513 1
      vertex 7.28969 -6.84547 -1
      vertex 6.37424 -7.70513 -1
    endloop
  endfacet
  facet normal -0.587788 0.809015 0
    outer loop
      vertex 6.37424 -7.70513 -1
      vertex 5.35827 -8.44328 1
      vertex 6.37424 -7.70513 1
    endloop
  endfacet
  facet normal -0.587788 0.809015 0
    outer loop
      vertex 5.35827 -8.44328 1
      vertex 6.37424 -7.70513 -1
      vertex 5.35827 -8.44328 -1
    endloop
  endfacet
  facet normal 0.125338 0.992114 -0
    outer loop
      vertex -0.627905 -9.98027 -1
      vertex -1.87381 -9.82287 1
      vertex -0.627905 -9.98027 1
    endloop
  endfacet
  facet normal 0.125338 0.992114 0
    outer loop
      vertex -1.87381 -9.82287 1
      vertex -0.627905 -9.98027 -1
      vertex -1.87381 -9.82287 -1
    endloop
  endfacet
  facet normal 0.587788 0.809015 -0
    outer loop
      vertex -5.35827 -8.44328 -1
      vertex -6.37424 -7.70513 1
      vertex -5.35827 -8.44328 1
    endloop
  endfacet
  facet normal 0.587788 0.809015 0
    outer loop
      vertex -6.37424 -7.70513 1
      vertex -5.35827 -8.44328 -1
      vertex -6.37424 -7.70513 -1
    endloop
  endfacet
  facet normal 0.982287 0.187384 0
    outer loop
      vertex -9.68583 -2.4869 1
      vertex -9.92115 -1.25333 -1
      vertex -9.92115 -1.25333 1
    endloop
  endfacet
  facet normal 0.982287 0.187384 0
    outer loop
      vertex -9.92115 -1.25333 -1
      vertex -9.68583 -2.4869 1
      vertex -9.68583 -2.4869 -1
    endloop
  endfacet
  facet normal 0.844325 0.535831 0
    outer loop
      vertex -8.09017 -5.87785 1
      vertex -8.76307 -4.81754 -1
      vertex -8.76307 -4.81754 1
    endloop
  endfacet
  facet normal 0.844325 0.535831 0
    outer loop
      vertex -8.76307 -4.81754 -1
      vertex -8.09017 -5.87785 1
      vertex -8.09017 -5.87785 -1
    endloop
  endfacet
  facet normal 0.904831 0.425771 0
    outer loop
      vertex -8.76307 -4.81754 1
      vertex -9.29776 -3.68124 -1
      vertex -9.29776 -3.68124 1
    endloop
  endfacet
  facet normal 0.904831 0.425771 0
    outer loop
      vertex -9.29776 -3.68124 -1
      vertex -8.76307 -4.81754 1
      vertex -8.76307 -4.81754 -1
    endloop
  endfacet
  facet normal 0.368122 0.929777 -0
    outer loop
      vertex -3.09017 -9.51056 -1
      vertex -4.25779 -9.04827 1
      vertex -3.09017 -9.51056 1
    endloop
  endfacet
  facet normal 0.368122 0.929777 0
    outer loop
      vertex -4.25779 -9.04827 1
      vertex -3.09017 -9.51056 -1
      vertex -4.25779 -9.04827 -1
    endloop
  endfacet
endsolid OpenSCAD_Model
