  0
SECTION
  2
BLOCKS
  0
ENDSEC
  0
SECTION
  2
ENTITIES
  0
LINE
  8
0
 10
145.937
 20
355.589
 11
146.545
 21
355.745
  0
LINE
  8
0
 10
146.545
 20
355.745
 11
147.129
 21
355.976
  0
LINE
  8
0
 10
147.129
 20
355.976
 11
147.679
 21
356.278
  0
LINE
  8
0
 10
147.679
 20
356.278
 11
148.187
 21
356.647
  0
LINE
  8
0
 10
148.187
 20
356.647
 11
148.645
 21
357.077
  0
LINE
  8
0
 10
148.645
 20
357.077
 11
149.045
 21
357.561
  0
LINE
  8
0
 10
149.045
 20
357.561
 11
149.382
 21
358.091
  0
LINE
  8
0
 10
149.382
 20
358.091
 11
149.649
 21
358.659
  0
LINE
  8
0
 10
149.649
 20
358.659
 11
149.843
 21
359.257
  0
LINE
  8
0
 10
149.843
 20
359.257
 11
149.961
 21
359.873
  0
LINE
  8
0
 10
149.961
 20
359.873
 11
150
 21
360.5
  0
LINE
  8
0
 10
150
 20
360.5
 11
150
 21
575.5
  0
LINE
  8
0
 10
150
 20
575.5
 11
149.961
 21
576.127
  0
LINE
  8
0
 10
149.961
 20
576.127
 11
149.843
 21
576.743
  0
LINE
  8
0
 10
149.843
 20
576.743
 11
149.649
 21
577.341
  0
LINE
  8
0
 10
149.649
 20
577.341
 11
149.382
 21
577.909
  0
LINE
  8
0
 10
149.382
 20
577.909
 11
149.045
 21
578.439
  0
LINE
  8
0
 10
149.045
 20
578.439
 11
148.645
 21
578.923
  0
LINE
  8
0
 10
148.645
 20
578.923
 11
148.187
 21
579.353
  0
LINE
  8
0
 10
148.187
 20
579.353
 11
147.679
 21
579.722
  0
LINE
  8
0
 10
147.679
 20
579.722
 11
147.129
 21
580.024
  0
LINE
  8
0
 10
147.129
 20
580.024
 11
146.545
 21
580.255
  0
LINE
  8
0
 10
146.545
 20
580.255
 11
145.937
 21
580.411
  0
LINE
  8
0
 10
145.937
 20
580.411
 11
145.314
 21
580.49
  0
LINE
  8
0
 10
145.314
 20
580.49
 11
-145.314
 21
580.49
  0
LINE
  8
0
 10
-145.314
 20
580.49
 11
-145.937
 21
580.411
  0
LINE
  8
0
 10
-145.937
 20
580.411
 11
-146.545
 21
580.255
  0
LINE
  8
0
 10
-146.545
 20
580.255
 11
-147.129
 21
580.024
  0
LINE
  8
0
 10
-147.129
 20
580.024
 11
-147.679
 21
579.722
  0
LINE
  8
0
 10
-147.679
 20
579.722
 11
-148.187
 21
579.353
  0
LINE
  8
0
 10
-148.187
 20
579.353
 11
-148.645
 21
578.923
  0
LINE
  8
0
 10
-148.645
 20
578.923
 11
-149.045
 21
578.439
  0
LINE
  8
0
 10
-149.045
 20
578.439
 11
-149.382
 21
577.909
  0
LINE
  8
0
 10
-149.382
 20
577.909
 11
-149.649
 21
577.341
  0
LINE
  8
0
 10
-149.649
 20
577.341
 11
-149.843
 21
576.743
  0
LINE
  8
0
 10
-149.843
 20
576.743
 11
-149.961
 21
576.127
  0
LINE
  8
0
 10
-149.961
 20
576.127
 11
-150
 21
575.5
  0
LINE
  8
0
 10
-150
 20
575.5
 11
-150
 21
360.5
  0
LINE
  8
0
 10
-150
 20
360.5
 11
-149.961
 21
359.873
  0
LINE
  8
0
 10
-149.961
 20
359.873
 11
-149.843
 21
359.257
  0
LINE
  8
0
 10
-149.843
 20
359.257
 11
-149.649
 21
358.659
  0
LINE
  8
0
 10
-149.649
 20
358.659
 11
-149.382
 21
358.091
  0
LINE
  8
0
 10
-149.382
 20
358.091
 11
-149.045
 21
357.561
  0
LINE
  8
0
 10
-149.045
 20
357.561
 11
-148.645
 21
357.077
  0
LINE
  8
0
 10
-148.645
 20
357.077
 11
-148.187
 21
356.647
  0
LINE
  8
0
 10
-148.187
 20
356.647
 11
-147.679
 21
356.278
  0
LINE
  8
0
 10
-147.679
 20
356.278
 11
-147.129
 21
355.976
  0
LINE
  8
0
 10
-147.129
 20
355.976
 11
-146.545
 21
355.745
  0
LINE
  8
0
 10
-146.545
 20
355.745
 11
-145.937
 21
355.589
  0
LINE
  8
0
 10
-145.937
 20
355.589
 11
-145.314
 21
355.51
  0
LINE
  8
0
 10
-145.314
 20
355.51
 11
145.314
 21
355.51
  0
LINE
  8
0
 10
145.314
 20
355.51
 11
145.937
 21
355.589
  0
LINE
  8
0
 10
-144.993
 20
356.888
 11
-145.475
 21
356.949
  0
LINE
  8
0
 10
-145.475
 20
356.949
 11
-145.946
 21
357.07
  0
LINE
  8
0
 10
-145.946
 20
357.07
 11
-146.398
 21
357.249
  0
LINE
  8
0
 10
-146.398
 20
357.249
 11
-146.823
 21
357.483
  0
LINE
  8
0
 10
-146.823
 20
357.483
 11
-147.216
 21
357.769
  0
LINE
  8
0
 10
-147.216
 20
357.769
 11
-147.571
 21
358.101
  0
LINE
  8
0
 10
-147.571
 20
358.101
 11
-147.88
 21
358.476
  0
LINE
  8
0
 10
-147.88
 20
358.476
 11
-148.141
 21
358.886
  0
LINE
  8
0
 10
-148.141
 20
358.886
 11
-148.348
 21
359.326
  0
LINE
  8
0
 10
-148.348
 20
359.326
 11
-148.498
 21
359.788
  0
LINE
  8
0
 10
-148.498
 20
359.788
 11
-148.589
 21
360.265
  0
LINE
  8
0
 10
-148.589
 20
360.265
 11
-148.619
 21
360.75
  0
LINE
  8
0
 10
-148.619
 20
360.75
 11
-148.619
 21
575.25
  0
LINE
  8
0
 10
-148.619
 20
575.25
 11
-148.589
 21
575.735
  0
LINE
  8
0
 10
-148.589
 20
575.735
 11
-148.498
 21
576.212
  0
LINE
  8
0
 10
-148.498
 20
576.212
 11
-148.348
 21
576.674
  0
LINE
  8
0
 10
-148.348
 20
576.674
 11
-148.141
 21
577.114
  0
LINE
  8
0
 10
-148.141
 20
577.114
 11
-147.88
 21
577.524
  0
LINE
  8
0
 10
-147.88
 20
577.524
 11
-147.571
 21
577.899
  0
LINE
  8
0
 10
-147.571
 20
577.899
 11
-147.216
 21
578.231
  0
LINE
  8
0
 10
-147.216
 20
578.231
 11
-146.823
 21
578.517
  0
LINE
  8
0
 10
-146.823
 20
578.517
 11
-146.398
 21
578.751
  0
LINE
  8
0
 10
-146.398
 20
578.751
 11
-145.946
 21
578.93
  0
LINE
  8
0
 10
-145.946
 20
578.93
 11
-145.475
 21
579.051
  0
LINE
  8
0
 10
-145.475
 20
579.051
 11
-144.993
 21
579.112
  0
LINE
  8
0
 10
-144.993
 20
579.112
 11
144.993
 21
579.112
  0
LINE
  8
0
 10
144.993
 20
579.112
 11
145.475
 21
579.051
  0
LINE
  8
0
 10
145.475
 20
579.051
 11
145.946
 21
578.93
  0
LINE
  8
0
 10
145.946
 20
578.93
 11
146.398
 21
578.751
  0
LINE
  8
0
 10
146.398
 20
578.751
 11
146.823
 21
578.517
  0
LINE
  8
0
 10
146.823
 20
578.517
 11
147.216
 21
578.231
  0
LINE
  8
0
 10
147.216
 20
578.231
 11
147.571
 21
577.899
  0
LINE
  8
0
 10
147.571
 20
577.899
 11
147.88
 21
577.524
  0
LINE
  8
0
 10
147.88
 20
577.524
 11
148.141
 21
577.114
  0
LINE
  8
0
 10
148.141
 20
577.114
 11
148.348
 21
576.674
  0
LINE
  8
0
 10
148.348
 20
576.674
 11
148.498
 21
576.212
  0
LINE
  8
0
 10
148.498
 20
576.212
 11
148.589
 21
575.735
  0
LINE
  8
0
 10
148.589
 20
575.735
 11
148.619
 21
575.25
  0
LINE
  8
0
 10
148.619
 20
575.25
 11
148.619
 21
360.75
  0
LINE
  8
0
 10
148.619
 20
360.75
 11
148.589
 21
360.265
  0
LINE
  8
0
 10
148.589
 20
360.265
 11
148.498
 21
359.788
  0
LINE
  8
0
 10
148.498
 20
359.788
 11
148.348
 21
359.326
  0
LINE
  8
0
 10
148.348
 20
359.326
 11
148.141
 21
358.886
  0
LINE
  8
0
 10
148.141
 20
358.886
 11
147.88
 21
358.476
  0
LINE
  8
0
 10
147.88
 20
358.476
 11
147.571
 21
358.101
  0
LINE
  8
0
 10
147.571
 20
358.101
 11
147.216
 21
357.769
  0
LINE
  8
0
 10
147.216
 20
357.769
 11
146.823
 21
357.483
  0
LINE
  8
0
 10
146.823
 20
357.483
 11
146.398
 21
357.249
  0
LINE
  8
0
 10
146.398
 20
357.249
 11
145.946
 21
357.07
  0
LINE
  8
0
 10
145.946
 20
357.07
 11
145.475
 21
356.949
  0
LINE
  8
0
 10
145.475
 20
356.949
 11
144.993
 21
356.888
  0
LINE
  8
0
 10
144.993
 20
356.888
 11
-144.993
 21
356.888
  0
LINE
  8
0
 10
145.937
 20
121.589
 11
146.545
 21
121.745
  0
LINE
  8
0
 10
146.545
 20
121.745
 11
147.129
 21
121.976
  0
LINE
  8
0
 10
147.129
 20
121.976
 11
147.679
 21
122.278
  0
LINE
  8
0
 10
147.679
 20
122.278
 11
148.187
 21
122.647
  0
LINE
  8
0
 10
148.187
 20
122.647
 11
148.645
 21
123.077
  0
LINE
  8
0
 10
148.645
 20
123.077
 11
149.045
 21
123.561
  0
LINE
  8
0
 10
149.045
 20
123.561
 11
149.382
 21
124.091
  0
LINE
  8
0
 10
149.382
 20
124.091
 11
149.649
 21
124.659
  0
LINE
  8
0
 10
149.649
 20
124.659
 11
149.843
 21
125.257
  0
LINE
  8
0
 10
149.843
 20
125.257
 11
149.961
 21
125.873
  0
LINE
  8
0
 10
149.961
 20
125.873
 11
150
 21
126.5
  0
LINE
  8
0
 10
150
 20
126.5
 11
150
 21
341.5
  0
LINE
  8
0
 10
150
 20
341.5
 11
149.961
 21
342.127
  0
LINE
  8
0
 10
149.961
 20
342.127
 11
149.843
 21
342.743
  0
LINE
  8
0
 10
149.843
 20
342.743
 11
149.649
 21
343.341
  0
LINE
  8
0
 10
149.649
 20
343.341
 11
149.382
 21
343.909
  0
LINE
  8
0
 10
149.382
 20
343.909
 11
149.045
 21
344.439
  0
LINE
  8
0
 10
149.045
 20
344.439
 11
148.645
 21
344.923
  0
LINE
  8
0
 10
148.645
 20
344.923
 11
148.187
 21
345.353
  0
LINE
  8
0
 10
148.187
 20
345.353
 11
147.679
 21
345.722
  0
LINE
  8
0
 10
147.679
 20
345.722
 11
147.129
 21
346.024
  0
LINE
  8
0
 10
147.129
 20
346.024
 11
146.545
 21
346.255
  0
LINE
  8
0
 10
146.545
 20
346.255
 11
145.937
 21
346.411
  0
LINE
  8
0
 10
145.937
 20
346.411
 11
145.314
 21
346.49
  0
LINE
  8
0
 10
145.314
 20
346.49
 11
-145.314
 21
346.49
  0
LINE
  8
0
 10
-145.314
 20
346.49
 11
-145.937
 21
346.411
  0
LINE
  8
0
 10
-145.937
 20
346.411
 11
-146.545
 21
346.255
  0
LINE
  8
0
 10
-146.545
 20
346.255
 11
-147.129
 21
346.024
  0
LINE
  8
0
 10
-147.129
 20
346.024
 11
-147.679
 21
345.722
  0
LINE
  8
0
 10
-147.679
 20
345.722
 11
-148.187
 21
345.353
  0
LINE
  8
0
 10
-148.187
 20
345.353
 11
-148.645
 21
344.923
  0
LINE
  8
0
 10
-148.645
 20
344.923
 11
-149.045
 21
344.439
  0
LINE
  8
0
 10
-149.045
 20
344.439
 11
-149.382
 21
343.909
  0
LINE
  8
0
 10
-149.382
 20
343.909
 11
-149.649
 21
343.341
  0
LINE
  8
0
 10
-149.649
 20
343.341
 11
-149.843
 21
342.743
  0
LINE
  8
0
 10
-149.843
 20
342.743
 11
-149.961
 21
342.127
  0
LINE
  8
0
 10
-149.961
 20
342.127
 11
-150
 21
341.5
  0
LINE
  8
0
 10
-150
 20
341.5
 11
-150
 21
126.5
  0
LINE
  8
0
 10
-150
 20
126.5
 11
-149.961
 21
125.873
  0
LINE
  8
0
 10
-149.961
 20
125.873
 11
-149.843
 21
125.257
  0
LINE
  8
0
 10
-149.843
 20
125.257
 11
-149.649
 21
124.659
  0
LINE
  8
0
 10
-149.649
 20
124.659
 11
-149.382
 21
124.091
  0
LINE
  8
0
 10
-149.382
 20
124.091
 11
-149.045
 21
123.561
  0
LINE
  8
0
 10
-149.045
 20
123.561
 11
-148.645
 21
123.077
  0
LINE
  8
0
 10
-148.645
 20
123.077
 11
-148.187
 21
122.647
  0
LINE
  8
0
 10
-148.187
 20
122.647
 11
-147.679
 21
122.278
  0
LINE
  8
0
 10
-147.679
 20
122.278
 11
-147.129
 21
121.976
  0
LINE
  8
0
 10
-147.129
 20
121.976
 11
-146.545
 21
121.745
  0
LINE
  8
0
 10
-146.545
 20
121.745
 11
-145.937
 21
121.589
  0
LINE
  8
0
 10
-145.937
 20
121.589
 11
-145.314
 21
121.51
  0
LINE
  8
0
 10
-145.314
 20
121.51
 11
145.314
 21
121.51
  0
LINE
  8
0
 10
145.314
 20
121.51
 11
145.937
 21
121.589
  0
LINE
  8
0
 10
142.387
 20
337.204
 11
142.163
 21
337.232
  0
LINE
  8
0
 10
142.163
 20
337.232
 11
141.944
 21
337.288
  0
LINE
  8
0
 10
141.944
 20
337.288
 11
141.734
 21
337.371
  0
LINE
  8
0
 10
141.734
 20
337.371
 11
141.536
 21
337.48
  0
LINE
  8
0
 10
141.536
 20
337.48
 11
141.353
 21
337.613
  0
LINE
  8
0
 10
141.353
 20
337.613
 11
141.188
 21
337.768
  0
LINE
  8
0
 10
141.188
 20
337.768
 11
141.044
 21
337.942
  0
LINE
  8
0
 10
141.044
 20
337.942
 11
140.923
 21
338.133
  0
LINE
  8
0
 10
140.923
 20
338.133
 11
140.826
 21
338.337
  0
LINE
  8
0
 10
140.826
 20
338.337
 11
140.757
 21
338.552
  0
LINE
  8
0
 10
140.757
 20
338.552
 11
140.714
 21
338.774
  0
LINE
  8
0
 10
140.714
 20
338.774
 11
140.7
 21
339
  0
LINE
  8
0
 10
140.7
 20
339
 11
140.714
 21
339.226
  0
LINE
  8
0
 10
140.714
 20
339.226
 11
140.757
 21
339.448
  0
LINE
  8
0
 10
140.757
 20
339.448
 11
140.826
 21
339.663
  0
LINE
  8
0
 10
140.826
 20
339.663
 11
140.923
 21
339.867
  0
LINE
  8
0
 10
140.923
 20
339.867
 11
141.044
 21
340.058
  0
LINE
  8
0
 10
141.044
 20
340.058
 11
141.188
 21
340.232
  0
LINE
  8
0
 10
141.188
 20
340.232
 11
141.353
 21
340.387
  0
LINE
  8
0
 10
141.353
 20
340.387
 11
141.536
 21
340.52
  0
LINE
  8
0
 10
141.536
 20
340.52
 11
141.734
 21
340.629
  0
LINE
  8
0
 10
141.734
 20
340.629
 11
141.944
 21
340.712
  0
LINE
  8
0
 10
141.944
 20
340.712
 11
142.163
 21
340.768
  0
LINE
  8
0
 10
142.163
 20
340.768
 11
142.387
 21
340.796
  0
LINE
  8
0
 10
142.387
 20
340.796
 11
142.613
 21
340.796
  0
LINE
  8
0
 10
142.613
 20
340.796
 11
142.837
 21
340.768
  0
LINE
  8
0
 10
142.837
 20
340.768
 11
143.056
 21
340.712
  0
LINE
  8
0
 10
143.056
 20
340.712
 11
143.266
 21
340.629
  0
LINE
  8
0
 10
143.266
 20
340.629
 11
143.464
 21
340.52
  0
LINE
  8
0
 10
143.464
 20
340.52
 11
143.647
 21
340.387
  0
LINE
  8
0
 10
143.647
 20
340.387
 11
143.812
 21
340.232
  0
LINE
  8
0
 10
143.812
 20
340.232
 11
143.956
 21
340.058
  0
LINE
  8
0
 10
143.956
 20
340.058
 11
144.077
 21
339.867
  0
LINE
  8
0
 10
144.077
 20
339.867
 11
144.174
 21
339.663
  0
LINE
  8
0
 10
144.174
 20
339.663
 11
144.243
 21
339.448
  0
LINE
  8
0
 10
144.243
 20
339.448
 11
144.286
 21
339.226
  0
LINE
  8
0
 10
144.286
 20
339.226
 11
144.3
 21
339
  0
LINE
  8
0
 10
144.3
 20
339
 11
144.286
 21
338.774
  0
LINE
  8
0
 10
144.286
 20
338.774
 11
144.243
 21
338.552
  0
LINE
  8
0
 10
144.243
 20
338.552
 11
144.174
 21
338.337
  0
LINE
  8
0
 10
144.174
 20
338.337
 11
144.077
 21
338.133
  0
LINE
  8
0
 10
144.077
 20
338.133
 11
143.956
 21
337.942
  0
LINE
  8
0
 10
143.956
 20
337.942
 11
143.812
 21
337.768
  0
LINE
  8
0
 10
143.812
 20
337.768
 11
143.647
 21
337.613
  0
LINE
  8
0
 10
143.647
 20
337.613
 11
143.464
 21
337.48
  0
LINE
  8
0
 10
143.464
 20
337.48
 11
143.266
 21
337.371
  0
LINE
  8
0
 10
143.266
 20
337.371
 11
143.056
 21
337.288
  0
LINE
  8
0
 10
143.056
 20
337.288
 11
142.837
 21
337.232
  0
LINE
  8
0
 10
142.837
 20
337.232
 11
142.613
 21
337.204
  0
LINE
  8
0
 10
142.613
 20
337.204
 11
142.387
 21
337.204
  0
LINE
  8
0
 10
-142.613
 20
337.204
 11
-142.837
 21
337.232
  0
LINE
  8
0
 10
-142.837
 20
337.232
 11
-143.056
 21
337.288
  0
LINE
  8
0
 10
-143.056
 20
337.288
 11
-143.266
 21
337.371
  0
LINE
  8
0
 10
-143.266
 20
337.371
 11
-143.464
 21
337.48
  0
LINE
  8
0
 10
-143.464
 20
337.48
 11
-143.647
 21
337.613
  0
LINE
  8
0
 10
-143.647
 20
337.613
 11
-143.812
 21
337.768
  0
LINE
  8
0
 10
-143.812
 20
337.768
 11
-143.956
 21
337.942
  0
LINE
  8
0
 10
-143.956
 20
337.942
 11
-144.077
 21
338.133
  0
LINE
  8
0
 10
-144.077
 20
338.133
 11
-144.174
 21
338.337
  0
LINE
  8
0
 10
-144.174
 20
338.337
 11
-144.243
 21
338.552
  0
LINE
  8
0
 10
-144.243
 20
338.552
 11
-144.286
 21
338.774
  0
LINE
  8
0
 10
-144.286
 20
338.774
 11
-144.3
 21
339
  0
LINE
  8
0
 10
-144.3
 20
339
 11
-144.286
 21
339.226
  0
LINE
  8
0
 10
-144.286
 20
339.226
 11
-144.243
 21
339.448
  0
LINE
  8
0
 10
-144.243
 20
339.448
 11
-144.174
 21
339.663
  0
LINE
  8
0
 10
-144.174
 20
339.663
 11
-144.077
 21
339.867
  0
LINE
  8
0
 10
-144.077
 20
339.867
 11
-143.956
 21
340.058
  0
LINE
  8
0
 10
-143.956
 20
340.058
 11
-143.812
 21
340.232
  0
LINE
  8
0
 10
-143.812
 20
340.232
 11
-143.647
 21
340.387
  0
LINE
  8
0
 10
-143.647
 20
340.387
 11
-143.464
 21
340.52
  0
LINE
  8
0
 10
-143.464
 20
340.52
 11
-143.266
 21
340.629
  0
LINE
  8
0
 10
-143.266
 20
340.629
 11
-143.056
 21
340.712
  0
LINE
  8
0
 10
-143.056
 20
340.712
 11
-142.837
 21
340.768
  0
LINE
  8
0
 10
-142.837
 20
340.768
 11
-142.613
 21
340.796
  0
LINE
  8
0
 10
-142.613
 20
340.796
 11
-142.387
 21
340.796
  0
LINE
  8
0
 10
-142.387
 20
340.796
 11
-142.163
 21
340.768
  0
LINE
  8
0
 10
-142.163
 20
340.768
 11
-141.944
 21
340.712
  0
LINE
  8
0
 10
-141.944
 20
340.712
 11
-141.734
 21
340.629
  0
LINE
  8
0
 10
-141.734
 20
340.629
 11
-141.536
 21
340.52
  0
LINE
  8
0
 10
-141.536
 20
340.52
 11
-141.353
 21
340.387
  0
LINE
  8
0
 10
-141.353
 20
340.387
 11
-141.188
 21
340.232
  0
LINE
  8
0
 10
-141.188
 20
340.232
 11
-141.044
 21
340.058
  0
LINE
  8
0
 10
-141.044
 20
340.058
 11
-140.923
 21
339.867
  0
LINE
  8
0
 10
-140.923
 20
339.867
 11
-140.826
 21
339.663
  0
LINE
  8
0
 10
-140.826
 20
339.663
 11
-140.757
 21
339.448
  0
LINE
  8
0
 10
-140.757
 20
339.448
 11
-140.714
 21
339.226
  0
LINE
  8
0
 10
-140.714
 20
339.226
 11
-140.7
 21
339
  0
LINE
  8
0
 10
-140.7
 20
339
 11
-140.714
 21
338.774
  0
LINE
  8
0
 10
-140.714
 20
338.774
 11
-140.757
 21
338.552
  0
LINE
  8
0
 10
-140.757
 20
338.552
 11
-140.826
 21
338.337
  0
LINE
  8
0
 10
-140.826
 20
338.337
 11
-140.923
 21
338.133
  0
LINE
  8
0
 10
-140.923
 20
338.133
 11
-141.044
 21
337.942
  0
LINE
  8
0
 10
-141.044
 20
337.942
 11
-141.188
 21
337.768
  0
LINE
  8
0
 10
-141.188
 20
337.768
 11
-141.353
 21
337.613
  0
LINE
  8
0
 10
-141.353
 20
337.613
 11
-141.536
 21
337.48
  0
LINE
  8
0
 10
-141.536
 20
337.48
 11
-141.734
 21
337.371
  0
LINE
  8
0
 10
-141.734
 20
337.371
 11
-141.944
 21
337.288
  0
LINE
  8
0
 10
-141.944
 20
337.288
 11
-142.163
 21
337.232
  0
LINE
  8
0
 10
-142.163
 20
337.232
 11
-142.387
 21
337.204
  0
LINE
  8
0
 10
-142.387
 20
337.204
 11
-142.613
 21
337.204
  0
LINE
  8
0
 10
-142.613
 20
127.204
 11
-142.837
 21
127.232
  0
LINE
  8
0
 10
-142.837
 20
127.232
 11
-143.056
 21
127.288
  0
LINE
  8
0
 10
-143.056
 20
127.288
 11
-143.266
 21
127.371
  0
LINE
  8
0
 10
-143.266
 20
127.371
 11
-143.464
 21
127.48
  0
LINE
  8
0
 10
-143.464
 20
127.48
 11
-143.647
 21
127.613
  0
LINE
  8
0
 10
-143.647
 20
127.613
 11
-143.812
 21
127.768
  0
LINE
  8
0
 10
-143.812
 20
127.768
 11
-143.956
 21
127.942
  0
LINE
  8
0
 10
-143.956
 20
127.942
 11
-144.077
 21
128.133
  0
LINE
  8
0
 10
-144.077
 20
128.133
 11
-144.174
 21
128.337
  0
LINE
  8
0
 10
-144.174
 20
128.337
 11
-144.243
 21
128.552
  0
LINE
  8
0
 10
-144.243
 20
128.552
 11
-144.286
 21
128.774
  0
LINE
  8
0
 10
-144.286
 20
128.774
 11
-144.3
 21
129
  0
LINE
  8
0
 10
-144.3
 20
129
 11
-144.286
 21
129.226
  0
LINE
  8
0
 10
-144.286
 20
129.226
 11
-144.243
 21
129.448
  0
LINE
  8
0
 10
-144.243
 20
129.448
 11
-144.174
 21
129.663
  0
LINE
  8
0
 10
-144.174
 20
129.663
 11
-144.077
 21
129.867
  0
LINE
  8
0
 10
-144.077
 20
129.867
 11
-143.956
 21
130.058
  0
LINE
  8
0
 10
-143.956
 20
130.058
 11
-143.812
 21
130.232
  0
LINE
  8
0
 10
-143.812
 20
130.232
 11
-143.647
 21
130.387
  0
LINE
  8
0
 10
-143.647
 20
130.387
 11
-143.464
 21
130.52
  0
LINE
  8
0
 10
-143.464
 20
130.52
 11
-143.266
 21
130.629
  0
LINE
  8
0
 10
-143.266
 20
130.629
 11
-143.056
 21
130.712
  0
LINE
  8
0
 10
-143.056
 20
130.712
 11
-142.837
 21
130.768
  0
LINE
  8
0
 10
-142.837
 20
130.768
 11
-142.613
 21
130.796
  0
LINE
  8
0
 10
-142.613
 20
130.796
 11
-142.387
 21
130.796
  0
LINE
  8
0
 10
-142.387
 20
130.796
 11
-142.163
 21
130.768
  0
LINE
  8
0
 10
-142.163
 20
130.768
 11
-141.944
 21
130.712
  0
LINE
  8
0
 10
-141.944
 20
130.712
 11
-141.734
 21
130.629
  0
LINE
  8
0
 10
-141.734
 20
130.629
 11
-141.536
 21
130.52
  0
LINE
  8
0
 10
-141.536
 20
130.52
 11
-141.353
 21
130.387
  0
LINE
  8
0
 10
-141.353
 20
130.387
 11
-141.188
 21
130.232
  0
LINE
  8
0
 10
-141.188
 20
130.232
 11
-141.044
 21
130.058
  0
LINE
  8
0
 10
-141.044
 20
130.058
 11
-140.923
 21
129.867
  0
LINE
  8
0
 10
-140.923
 20
129.867
 11
-140.826
 21
129.663
  0
LINE
  8
0
 10
-140.826
 20
129.663
 11
-140.757
 21
129.448
  0
LINE
  8
0
 10
-140.757
 20
129.448
 11
-140.714
 21
129.226
  0
LINE
  8
0
 10
-140.714
 20
129.226
 11
-140.7
 21
129
  0
LINE
  8
0
 10
-140.7
 20
129
 11
-140.714
 21
128.774
  0
LINE
  8
0
 10
-140.714
 20
128.774
 11
-140.757
 21
128.552
  0
LINE
  8
0
 10
-140.757
 20
128.552
 11
-140.826
 21
128.337
  0
LINE
  8
0
 10
-140.826
 20
128.337
 11
-140.923
 21
128.133
  0
LINE
  8
0
 10
-140.923
 20
128.133
 11
-141.044
 21
127.942
  0
LINE
  8
0
 10
-141.044
 20
127.942
 11
-141.188
 21
127.768
  0
LINE
  8
0
 10
-141.188
 20
127.768
 11
-141.353
 21
127.613
  0
LINE
  8
0
 10
-141.353
 20
127.613
 11
-141.536
 21
127.48
  0
LINE
  8
0
 10
-141.536
 20
127.48
 11
-141.734
 21
127.371
  0
LINE
  8
0
 10
-141.734
 20
127.371
 11
-141.944
 21
127.288
  0
LINE
  8
0
 10
-141.944
 20
127.288
 11
-142.163
 21
127.232
  0
LINE
  8
0
 10
-142.163
 20
127.232
 11
-142.387
 21
127.204
  0
LINE
  8
0
 10
-142.387
 20
127.204
 11
-142.613
 21
127.204
  0
LINE
  8
0
 10
142.387
 20
127.204
 11
142.163
 21
127.232
  0
LINE
  8
0
 10
142.163
 20
127.232
 11
141.944
 21
127.288
  0
LINE
  8
0
 10
141.944
 20
127.288
 11
141.734
 21
127.371
  0
LINE
  8
0
 10
141.734
 20
127.371
 11
141.536
 21
127.48
  0
LINE
  8
0
 10
141.536
 20
127.48
 11
141.353
 21
127.613
  0
LINE
  8
0
 10
141.353
 20
127.613
 11
141.188
 21
127.768
  0
LINE
  8
0
 10
141.188
 20
127.768
 11
141.044
 21
127.942
  0
LINE
  8
0
 10
141.044
 20
127.942
 11
140.923
 21
128.133
  0
LINE
  8
0
 10
140.923
 20
128.133
 11
140.826
 21
128.337
  0
LINE
  8
0
 10
140.826
 20
128.337
 11
140.757
 21
128.552
  0
LINE
  8
0
 10
140.757
 20
128.552
 11
140.714
 21
128.774
  0
LINE
  8
0
 10
140.714
 20
128.774
 11
140.7
 21
129
  0
LINE
  8
0
 10
140.7
 20
129
 11
140.714
 21
129.226
  0
LINE
  8
0
 10
140.714
 20
129.226
 11
140.757
 21
129.448
  0
LINE
  8
0
 10
140.757
 20
129.448
 11
140.826
 21
129.663
  0
LINE
  8
0
 10
140.826
 20
129.663
 11
140.923
 21
129.867
  0
LINE
  8
0
 10
140.923
 20
129.867
 11
141.044
 21
130.058
  0
LINE
  8
0
 10
141.044
 20
130.058
 11
141.188
 21
130.232
  0
LINE
  8
0
 10
141.188
 20
130.232
 11
141.353
 21
130.387
  0
LINE
  8
0
 10
141.353
 20
130.387
 11
141.536
 21
130.52
  0
LINE
  8
0
 10
141.536
 20
130.52
 11
141.734
 21
130.629
  0
LINE
  8
0
 10
141.734
 20
130.629
 11
141.944
 21
130.712
  0
LINE
  8
0
 10
141.944
 20
130.712
 11
142.163
 21
130.768
  0
LINE
  8
0
 10
142.163
 20
130.768
 11
142.387
 21
130.796
  0
LINE
  8
0
 10
142.387
 20
130.796
 11
142.613
 21
130.796
  0
LINE
  8
0
 10
142.613
 20
130.796
 11
142.837
 21
130.768
  0
LINE
  8
0
 10
142.837
 20
130.768
 11
143.056
 21
130.712
  0
LINE
  8
0
 10
143.056
 20
130.712
 11
143.266
 21
130.629
  0
LINE
  8
0
 10
143.266
 20
130.629
 11
143.464
 21
130.52
  0
LINE
  8
0
 10
143.464
 20
130.52
 11
143.647
 21
130.387
  0
LINE
  8
0
 10
143.647
 20
130.387
 11
143.812
 21
130.232
  0
LINE
  8
0
 10
143.812
 20
130.232
 11
143.956
 21
130.058
  0
LINE
  8
0
 10
143.956
 20
130.058
 11
144.077
 21
129.867
  0
LINE
  8
0
 10
144.077
 20
129.867
 11
144.174
 21
129.663
  0
LINE
  8
0
 10
144.174
 20
129.663
 11
144.243
 21
129.448
  0
LINE
  8
0
 10
144.243
 20
129.448
 11
144.286
 21
129.226
  0
LINE
  8
0
 10
144.286
 20
129.226
 11
144.3
 21
129
  0
LINE
  8
0
 10
144.3
 20
129
 11
144.286
 21
128.774
  0
LINE
  8
0
 10
144.286
 20
128.774
 11
144.243
 21
128.552
  0
LINE
  8
0
 10
144.243
 20
128.552
 11
144.174
 21
128.337
  0
LINE
  8
0
 10
144.174
 20
128.337
 11
144.077
 21
128.133
  0
LINE
  8
0
 10
144.077
 20
128.133
 11
143.956
 21
127.942
  0
LINE
  8
0
 10
143.956
 20
127.942
 11
143.812
 21
127.768
  0
LINE
  8
0
 10
143.812
 20
127.768
 11
143.647
 21
127.613
  0
LINE
  8
0
 10
143.647
 20
127.613
 11
143.464
 21
127.48
  0
LINE
  8
0
 10
143.464
 20
127.48
 11
143.266
 21
127.371
  0
LINE
  8
0
 10
143.266
 20
127.371
 11
143.056
 21
127.288
  0
LINE
  8
0
 10
143.056
 20
127.288
 11
142.837
 21
127.232
  0
LINE
  8
0
 10
142.837
 20
127.232
 11
142.613
 21
127.204
  0
LINE
  8
0
 10
142.613
 20
127.204
 11
142.387
 21
127.204
  0
ENDSEC
  0
SECTION
  2
OBJECTS
  0
DICTIONARY
  0
ENDSEC
  0
EOF
