<?xml version="1.0" standalone="no"?>
<!DOCTYPE svg PUBLIC "-//W3C//DTD SVG 1.1//EN" "http://www.w3.org/Graphics/SVG/1.1/DTD/svg11.dtd">
<svg width="302mm" height="249mm" viewBox="-152 -447 302 249" xmlns="http://www.w3.org/2000/svg" version="1.1">
<title>OpenSCAD Model</title>
<path d="
M 145.937,-327.089 L 146.545,-327.245 L 147.129,-327.476 L 147.679,-327.778 L 148.187,-328.147 L 148.645,-328.577
 L 149.045,-329.061 L 149.382,-329.591 L 149.649,-330.159 L 149.843,-330.757 L 149.961,-331.373 L 150,-332
 L 150,-442 L 149.961,-442.627 L 149.843,-443.243 L 149.649,-443.841 L 149.382,-444.409 L 149.045,-444.939
 L 148.645,-445.423 L 148.187,-445.853 L 147.679,-446.222 L 147.129,-446.524 L 146.545,-446.755 L 145.937,-446.911
 L 145.314,-446.99 L -145.314,-446.99 L -145.937,-446.911 L -146.545,-446.755 L -147.129,-446.524 L -147.679,-446.222
 L -148.187,-445.853 L -148.5,-445.559 L -148.5,-446.979 L -151.5,-446.979 L -151.5,-327.021 L -148.5,-327.021
 L -148.5,-328.441 L -148.187,-328.147 L -147.679,-327.778 L -147.129,-327.476 L -146.545,-327.245 L -145.937,-327.089
 L -145.314,-327.01 L 145.314,-327.01 z
M -144.695,-329.393 L -145.083,-329.442 L -145.462,-329.539 L -145.825,-329.683 L -146.168,-329.872 L -146.484,-330.101
 L -146.769,-330.369 L -147.018,-330.67 L -147.228,-331 L -147.394,-331.354 L -147.515,-331.726 L -147.588,-332.11
 L -147.613,-332.5 L -147.613,-441.5 L -147.588,-441.89 L -147.515,-442.274 L -147.394,-442.646 L -147.228,-443
 L -147.018,-443.33 L -146.769,-443.631 L -146.484,-443.899 L -146.168,-444.128 L -145.825,-444.317 L -145.462,-444.461
 L -145.083,-444.558 L -144.695,-444.607 L 144.695,-444.607 L 145.083,-444.558 L 145.462,-444.461 L 145.825,-444.317
 L 146.168,-444.128 L 146.484,-443.899 L 146.769,-443.631 L 147.018,-443.33 L 147.228,-443 L 147.394,-442.646
 L 147.515,-442.274 L 147.588,-441.89 L 147.613,-441.5 L 147.613,-332.5 L 147.588,-332.11 L 147.515,-331.726
 L 147.394,-331.354 L 147.228,-331 L 147.018,-330.67 L 146.769,-330.369 L 146.484,-330.101 L 146.168,-329.872
 L 145.825,-329.683 L 145.462,-329.539 L 145.083,-329.442 L 144.695,-329.393 z
M 145.937,-198.089 L 146.545,-198.245 L 147.129,-198.476 L 147.679,-198.778 L 148.187,-199.147 L 148.645,-199.577
 L 149.045,-200.061 L 149.382,-200.591 L 149.649,-201.159 L 149.843,-201.757 L 149.961,-202.373 L 150,-203
 L 150,-313 L 149.961,-313.627 L 149.843,-314.243 L 149.649,-314.841 L 149.382,-315.409 L 149.045,-315.939
 L 148.645,-316.423 L 148.187,-316.853 L 147.679,-317.222 L 147.129,-317.524 L 146.545,-317.755 L 145.937,-317.911
 L 145.314,-317.99 L -145.314,-317.99 L -145.937,-317.911 L -146.545,-317.755 L -147.129,-317.524 L -147.679,-317.222
 L -148.187,-316.853 L -148.5,-316.559 L -148.5,-316.653 L -151.5,-316.653 L -151.5,-199.347 L -148.5,-199.347
 L -148.5,-199.441 L -148.187,-199.147 L -147.679,-198.778 L -147.129,-198.476 L -146.545,-198.245 L -145.937,-198.089
 L -145.314,-198.01 L 145.314,-198.01 z
M 142.366,-308.369 L 142.1,-308.403 L 141.84,-308.469 L 141.591,-308.568 L 141.356,-308.697 L 141.139,-308.855
 L 140.943,-309.038 L 140.773,-309.245 L 140.629,-309.471 L 140.515,-309.714 L 140.432,-309.969 L 140.382,-310.232
 L 140.365,-310.5 L 140.382,-310.768 L 140.432,-311.031 L 140.515,-311.286 L 140.629,-311.529 L 140.773,-311.755
 L 140.943,-311.962 L 141.139,-312.145 L 141.356,-312.303 L 141.591,-312.432 L 141.84,-312.531 L 142.1,-312.597
 L 142.366,-312.631 L 142.634,-312.631 L 142.9,-312.597 L 143.16,-312.531 L 143.409,-312.432 L 143.644,-312.303
 L 143.861,-312.145 L 144.057,-311.962 L 144.227,-311.755 L 144.371,-311.529 L 144.485,-311.286 L 144.568,-311.031
 L 144.618,-310.768 L 144.635,-310.5 L 144.618,-310.232 L 144.568,-309.969 L 144.485,-309.714 L 144.371,-309.471
 L 144.227,-309.245 L 144.057,-309.038 L 143.861,-308.855 L 143.644,-308.697 L 143.409,-308.568 L 143.16,-308.469
 L 142.9,-308.403 L 142.634,-308.369 z
M -142.634,-308.369 L -142.9,-308.403 L -143.16,-308.469 L -143.409,-308.568 L -143.644,-308.697 L -143.861,-308.855
 L -144.057,-309.038 L -144.227,-309.245 L -144.371,-309.471 L -144.485,-309.714 L -144.568,-309.969 L -144.618,-310.232
 L -144.635,-310.5 L -144.618,-310.768 L -144.568,-311.031 L -144.485,-311.286 L -144.371,-311.529 L -144.227,-311.755
 L -144.057,-311.962 L -143.861,-312.145 L -143.644,-312.303 L -143.409,-312.432 L -143.16,-312.531 L -142.9,-312.597
 L -142.634,-312.631 L -142.366,-312.631 L -142.1,-312.597 L -141.84,-312.531 L -141.591,-312.432 L -141.356,-312.303
 L -141.139,-312.145 L -140.943,-311.962 L -140.773,-311.755 L -140.629,-311.529 L -140.515,-311.286 L -140.432,-311.031
 L -140.382,-310.768 L -140.365,-310.5 L -140.382,-310.232 L -140.432,-309.969 L -140.515,-309.714 L -140.629,-309.471
 L -140.773,-309.245 L -140.943,-309.038 L -141.139,-308.855 L -141.356,-308.697 L -141.591,-308.568 L -141.84,-308.469
 L -142.1,-308.403 L -142.366,-308.369 z
M 142.366,-203.369 L 142.1,-203.403 L 141.84,-203.469 L 141.591,-203.568 L 141.356,-203.697 L 141.139,-203.855
 L 140.943,-204.038 L 140.773,-204.245 L 140.629,-204.471 L 140.515,-204.714 L 140.432,-204.969 L 140.382,-205.232
 L 140.365,-205.5 L 140.382,-205.768 L 140.432,-206.031 L 140.515,-206.286 L 140.629,-206.529 L 140.773,-206.755
 L 140.943,-206.962 L 141.139,-207.145 L 141.356,-207.303 L 141.591,-207.432 L 141.84,-207.531 L 142.1,-207.597
 L 142.366,-207.631 L 142.634,-207.631 L 142.9,-207.597 L 143.16,-207.531 L 143.409,-207.432 L 143.644,-207.303
 L 143.861,-207.145 L 144.057,-206.962 L 144.227,-206.755 L 144.371,-206.529 L 144.485,-206.286 L 144.568,-206.031
 L 144.618,-205.768 L 144.635,-205.5 L 144.618,-205.232 L 144.568,-204.969 L 144.485,-204.714 L 144.371,-204.471
 L 144.227,-204.245 L 144.057,-204.038 L 143.861,-203.855 L 143.644,-203.697 L 143.409,-203.568 L 143.16,-203.469
 L 142.9,-203.403 L 142.634,-203.369 z
M -142.634,-203.369 L -142.9,-203.403 L -143.16,-203.469 L -143.409,-203.568 L -143.644,-203.697 L -143.861,-203.855
 L -144.057,-204.038 L -144.227,-204.245 L -144.371,-204.471 L -144.485,-204.714 L -144.568,-204.969 L -144.618,-205.232
 L -144.635,-205.5 L -144.618,-205.768 L -144.568,-206.031 L -144.485,-206.286 L -144.371,-206.529 L -144.227,-206.755
 L -144.057,-206.962 L -143.861,-207.145 L -143.644,-207.303 L -143.409,-207.432 L -143.16,-207.531 L -142.9,-207.597
 L -142.634,-207.631 L -142.366,-207.631 L -142.1,-207.597 L -141.84,-207.531 L -141.591,-207.432 L -141.356,-207.303
 L -141.139,-207.145 L -140.943,-206.962 L -140.773,-206.755 L -140.629,-206.529 L -140.515,-206.286 L -140.432,-206.031
 L -140.382,-205.768 L -140.365,-205.5 L -140.382,-205.232 L -140.432,-204.969 L -140.515,-204.714 L -140.629,-204.471
 L -140.773,-204.245 L -140.943,-204.038 L -141.139,-203.855 L -141.356,-203.697 L -141.591,-203.568 L -141.84,-203.469
 L -142.1,-203.403 L -142.366,-203.369 z
" stroke="black" fill="lightgray" stroke-width="0.5"/>
</svg>
