  0
SECTION
  2
BLOCKS
  0
ENDSEC
  0
SECTION
  2
ENTITIES
  0
LINE
  8
0
 10
145.937
 20
327.089
 11
146.545
 21
327.245
  0
LINE
  8
0
 10
146.545
 20
327.245
 11
147.129
 21
327.476
  0
LINE
  8
0
 10
147.129
 20
327.476
 11
147.679
 21
327.778
  0
LINE
  8
0
 10
147.679
 20
327.778
 11
148.187
 21
328.147
  0
LINE
  8
0
 10
148.187
 20
328.147
 11
148.645
 21
328.577
  0
LINE
  8
0
 10
148.645
 20
328.577
 11
149.045
 21
329.061
  0
LINE
  8
0
 10
149.045
 20
329.061
 11
149.382
 21
329.591
  0
LINE
  8
0
 10
149.382
 20
329.591
 11
149.649
 21
330.159
  0
LINE
  8
0
 10
149.649
 20
330.159
 11
149.843
 21
330.757
  0
LINE
  8
0
 10
149.843
 20
330.757
 11
149.961
 21
331.373
  0
LINE
  8
0
 10
149.961
 20
331.373
 11
150
 21
332
  0
LINE
  8
0
 10
150
 20
332
 11
150
 21
442
  0
LINE
  8
0
 10
150
 20
442
 11
149.961
 21
442.627
  0
LINE
  8
0
 10
149.961
 20
442.627
 11
149.843
 21
443.243
  0
LINE
  8
0
 10
149.843
 20
443.243
 11
149.649
 21
443.841
  0
LINE
  8
0
 10
149.649
 20
443.841
 11
149.382
 21
444.409
  0
LINE
  8
0
 10
149.382
 20
444.409
 11
149.045
 21
444.939
  0
LINE
  8
0
 10
149.045
 20
444.939
 11
148.645
 21
445.423
  0
LINE
  8
0
 10
148.645
 20
445.423
 11
148.187
 21
445.853
  0
LINE
  8
0
 10
148.187
 20
445.853
 11
147.679
 21
446.222
  0
LINE
  8
0
 10
147.679
 20
446.222
 11
147.129
 21
446.524
  0
LINE
  8
0
 10
147.129
 20
446.524
 11
146.545
 21
446.755
  0
LINE
  8
0
 10
146.545
 20
446.755
 11
145.937
 21
446.911
  0
LINE
  8
0
 10
145.937
 20
446.911
 11
145.314
 21
446.99
  0
LINE
  8
0
 10
145.314
 20
446.99
 11
-145.314
 21
446.99
  0
LINE
  8
0
 10
-145.314
 20
446.99
 11
-145.937
 21
446.911
  0
LINE
  8
0
 10
-145.937
 20
446.911
 11
-146.545
 21
446.755
  0
LINE
  8
0
 10
-146.545
 20
446.755
 11
-147.129
 21
446.524
  0
LINE
  8
0
 10
-147.129
 20
446.524
 11
-147.679
 21
446.222
  0
LINE
  8
0
 10
-147.679
 20
446.222
 11
-148.187
 21
445.853
  0
LINE
  8
0
 10
-148.187
 20
445.853
 11
-148.5
 21
445.559
  0
LINE
  8
0
 10
-148.5
 20
445.559
 11
-148.5
 21
446.979
  0
LINE
  8
0
 10
-148.5
 20
446.979
 11
-151.5
 21
446.979
  0
LINE
  8
0
 10
-151.5
 20
446.979
 11
-151.5
 21
327.021
  0
LINE
  8
0
 10
-151.5
 20
327.021
 11
-148.5
 21
327.021
  0
LINE
  8
0
 10
-148.5
 20
327.021
 11
-148.5
 21
328.441
  0
LINE
  8
0
 10
-148.5
 20
328.441
 11
-148.187
 21
328.147
  0
LINE
  8
0
 10
-148.187
 20
328.147
 11
-147.679
 21
327.778
  0
LINE
  8
0
 10
-147.679
 20
327.778
 11
-147.129
 21
327.476
  0
LINE
  8
0
 10
-147.129
 20
327.476
 11
-146.545
 21
327.245
  0
LINE
  8
0
 10
-146.545
 20
327.245
 11
-145.937
 21
327.089
  0
LINE
  8
0
 10
-145.937
 20
327.089
 11
-145.314
 21
327.01
  0
LINE
  8
0
 10
-145.314
 20
327.01
 11
145.314
 21
327.01
  0
LINE
  8
0
 10
145.314
 20
327.01
 11
145.937
 21
327.089
  0
LINE
  8
0
 10
-144.695
 20
329.393
 11
-145.083
 21
329.442
  0
LINE
  8
0
 10
-145.083
 20
329.442
 11
-145.462
 21
329.539
  0
LINE
  8
0
 10
-145.462
 20
329.539
 11
-145.825
 21
329.683
  0
LINE
  8
0
 10
-145.825
 20
329.683
 11
-146.168
 21
329.872
  0
LINE
  8
0
 10
-146.168
 20
329.872
 11
-146.484
 21
330.101
  0
LINE
  8
0
 10
-146.484
 20
330.101
 11
-146.769
 21
330.369
  0
LINE
  8
0
 10
-146.769
 20
330.369
 11
-147.018
 21
330.67
  0
LINE
  8
0
 10
-147.018
 20
330.67
 11
-147.228
 21
331
  0
LINE
  8
0
 10
-147.228
 20
331
 11
-147.394
 21
331.354
  0
LINE
  8
0
 10
-147.394
 20
331.354
 11
-147.515
 21
331.726
  0
LINE
  8
0
 10
-147.515
 20
331.726
 11
-147.588
 21
332.11
  0
LINE
  8
0
 10
-147.588
 20
332.11
 11
-147.613
 21
332.5
  0
LINE
  8
0
 10
-147.613
 20
332.5
 11
-147.613
 21
441.5
  0
LINE
  8
0
 10
-147.613
 20
441.5
 11
-147.588
 21
441.89
  0
LINE
  8
0
 10
-147.588
 20
441.89
 11
-147.515
 21
442.274
  0
LINE
  8
0
 10
-147.515
 20
442.274
 11
-147.394
 21
442.646
  0
LINE
  8
0
 10
-147.394
 20
442.646
 11
-147.228
 21
443
  0
LINE
  8
0
 10
-147.228
 20
443
 11
-147.018
 21
443.33
  0
LINE
  8
0
 10
-147.018
 20
443.33
 11
-146.769
 21
443.631
  0
LINE
  8
0
 10
-146.769
 20
443.631
 11
-146.484
 21
443.899
  0
LINE
  8
0
 10
-146.484
 20
443.899
 11
-146.168
 21
444.128
  0
LINE
  8
0
 10
-146.168
 20
444.128
 11
-145.825
 21
444.317
  0
LINE
  8
0
 10
-145.825
 20
444.317
 11
-145.462
 21
444.461
  0
LINE
  8
0
 10
-145.462
 20
444.461
 11
-145.083
 21
444.558
  0
LINE
  8
0
 10
-145.083
 20
444.558
 11
-144.695
 21
444.607
  0
LINE
  8
0
 10
-144.695
 20
444.607
 11
144.695
 21
444.607
  0
LINE
  8
0
 10
144.695
 20
444.607
 11
145.083
 21
444.558
  0
LINE
  8
0
 10
145.083
 20
444.558
 11
145.462
 21
444.461
  0
LINE
  8
0
 10
145.462
 20
444.461
 11
145.825
 21
444.317
  0
LINE
  8
0
 10
145.825
 20
444.317
 11
146.168
 21
444.128
  0
LINE
  8
0
 10
146.168
 20
444.128
 11
146.484
 21
443.899
  0
LINE
  8
0
 10
146.484
 20
443.899
 11
146.769
 21
443.631
  0
LINE
  8
0
 10
146.769
 20
443.631
 11
147.018
 21
443.33
  0
LINE
  8
0
 10
147.018
 20
443.33
 11
147.228
 21
443
  0
LINE
  8
0
 10
147.228
 20
443
 11
147.394
 21
442.646
  0
LINE
  8
0
 10
147.394
 20
442.646
 11
147.515
 21
442.274
  0
LINE
  8
0
 10
147.515
 20
442.274
 11
147.588
 21
441.89
  0
LINE
  8
0
 10
147.588
 20
441.89
 11
147.613
 21
441.5
  0
LINE
  8
0
 10
147.613
 20
441.5
 11
147.613
 21
332.5
  0
LINE
  8
0
 10
147.613
 20
332.5
 11
147.588
 21
332.11
  0
LINE
  8
0
 10
147.588
 20
332.11
 11
147.515
 21
331.726
  0
LINE
  8
0
 10
147.515
 20
331.726
 11
147.394
 21
331.354
  0
LINE
  8
0
 10
147.394
 20
331.354
 11
147.228
 21
331
  0
LINE
  8
0
 10
147.228
 20
331
 11
147.018
 21
330.67
  0
LINE
  8
0
 10
147.018
 20
330.67
 11
146.769
 21
330.369
  0
LINE
  8
0
 10
146.769
 20
330.369
 11
146.484
 21
330.101
  0
LINE
  8
0
 10
146.484
 20
330.101
 11
146.168
 21
329.872
  0
LINE
  8
0
 10
146.168
 20
329.872
 11
145.825
 21
329.683
  0
LINE
  8
0
 10
145.825
 20
329.683
 11
145.462
 21
329.539
  0
LINE
  8
0
 10
145.462
 20
329.539
 11
145.083
 21
329.442
  0
LINE
  8
0
 10
145.083
 20
329.442
 11
144.695
 21
329.393
  0
LINE
  8
0
 10
144.695
 20
329.393
 11
-144.695
 21
329.393
  0
LINE
  8
0
 10
145.937
 20
198.089
 11
146.545
 21
198.245
  0
LINE
  8
0
 10
146.545
 20
198.245
 11
147.129
 21
198.476
  0
LINE
  8
0
 10
147.129
 20
198.476
 11
147.679
 21
198.778
  0
LINE
  8
0
 10
147.679
 20
198.778
 11
148.187
 21
199.147
  0
LINE
  8
0
 10
148.187
 20
199.147
 11
148.645
 21
199.577
  0
LINE
  8
0
 10
148.645
 20
199.577
 11
149.045
 21
200.061
  0
LINE
  8
0
 10
149.045
 20
200.061
 11
149.382
 21
200.591
  0
LINE
  8
0
 10
149.382
 20
200.591
 11
149.649
 21
201.159
  0
LINE
  8
0
 10
149.649
 20
201.159
 11
149.843
 21
201.757
  0
LINE
  8
0
 10
149.843
 20
201.757
 11
149.961
 21
202.373
  0
LINE
  8
0
 10
149.961
 20
202.373
 11
150
 21
203
  0
LINE
  8
0
 10
150
 20
203
 11
150
 21
313
  0
LINE
  8
0
 10
150
 20
313
 11
149.961
 21
313.627
  0
LINE
  8
0
 10
149.961
 20
313.627
 11
149.843
 21
314.243
  0
LINE
  8
0
 10
149.843
 20
314.243
 11
149.649
 21
314.841
  0
LINE
  8
0
 10
149.649
 20
314.841
 11
149.382
 21
315.409
  0
LINE
  8
0
 10
149.382
 20
315.409
 11
149.045
 21
315.939
  0
LINE
  8
0
 10
149.045
 20
315.939
 11
148.645
 21
316.423
  0
LINE
  8
0
 10
148.645
 20
316.423
 11
148.187
 21
316.853
  0
LINE
  8
0
 10
148.187
 20
316.853
 11
147.679
 21
317.222
  0
LINE
  8
0
 10
147.679
 20
317.222
 11
147.129
 21
317.524
  0
LINE
  8
0
 10
147.129
 20
317.524
 11
146.545
 21
317.755
  0
LINE
  8
0
 10
146.545
 20
317.755
 11
145.937
 21
317.911
  0
LINE
  8
0
 10
145.937
 20
317.911
 11
145.314
 21
317.99
  0
LINE
  8
0
 10
145.314
 20
317.99
 11
-145.314
 21
317.99
  0
LINE
  8
0
 10
-145.314
 20
317.99
 11
-145.937
 21
317.911
  0
LINE
  8
0
 10
-145.937
 20
317.911
 11
-146.545
 21
317.755
  0
LINE
  8
0
 10
-146.545
 20
317.755
 11
-147.129
 21
317.524
  0
LINE
  8
0
 10
-147.129
 20
317.524
 11
-147.679
 21
317.222
  0
LINE
  8
0
 10
-147.679
 20
317.222
 11
-148.187
 21
316.853
  0
LINE
  8
0
 10
-148.187
 20
316.853
 11
-148.5
 21
316.559
  0
LINE
  8
0
 10
-148.5
 20
316.559
 11
-148.5
 21
316.653
  0
LINE
  8
0
 10
-148.5
 20
316.653
 11
-151.5
 21
316.653
  0
LINE
  8
0
 10
-151.5
 20
316.653
 11
-151.5
 21
199.347
  0
LINE
  8
0
 10
-151.5
 20
199.347
 11
-148.5
 21
199.347
  0
LINE
  8
0
 10
-148.5
 20
199.347
 11
-148.5
 21
199.441
  0
LINE
  8
0
 10
-148.5
 20
199.441
 11
-148.187
 21
199.147
  0
LINE
  8
0
 10
-148.187
 20
199.147
 11
-147.679
 21
198.778
  0
LINE
  8
0
 10
-147.679
 20
198.778
 11
-147.129
 21
198.476
  0
LINE
  8
0
 10
-147.129
 20
198.476
 11
-146.545
 21
198.245
  0
LINE
  8
0
 10
-146.545
 20
198.245
 11
-145.937
 21
198.089
  0
LINE
  8
0
 10
-145.937
 20
198.089
 11
-145.314
 21
198.01
  0
LINE
  8
0
 10
-145.314
 20
198.01
 11
145.314
 21
198.01
  0
LINE
  8
0
 10
145.314
 20
198.01
 11
145.937
 21
198.089
  0
LINE
  8
0
 10
142.366
 20
308.369
 11
142.1
 21
308.403
  0
LINE
  8
0
 10
142.1
 20
308.403
 11
141.84
 21
308.469
  0
LINE
  8
0
 10
141.84
 20
308.469
 11
141.591
 21
308.568
  0
LINE
  8
0
 10
141.591
 20
308.568
 11
141.356
 21
308.697
  0
LINE
  8
0
 10
141.356
 20
308.697
 11
141.139
 21
308.855
  0
LINE
  8
0
 10
141.139
 20
308.855
 11
140.943
 21
309.038
  0
LINE
  8
0
 10
140.943
 20
309.038
 11
140.773
 21
309.245
  0
LINE
  8
0
 10
140.773
 20
309.245
 11
140.629
 21
309.471
  0
LINE
  8
0
 10
140.629
 20
309.471
 11
140.515
 21
309.714
  0
LINE
  8
0
 10
140.515
 20
309.714
 11
140.432
 21
309.969
  0
LINE
  8
0
 10
140.432
 20
309.969
 11
140.382
 21
310.232
  0
LINE
  8
0
 10
140.382
 20
310.232
 11
140.365
 21
310.5
  0
LINE
  8
0
 10
140.365
 20
310.5
 11
140.382
 21
310.768
  0
LINE
  8
0
 10
140.382
 20
310.768
 11
140.432
 21
311.031
  0
LINE
  8
0
 10
140.432
 20
311.031
 11
140.515
 21
311.286
  0
LINE
  8
0
 10
140.515
 20
311.286
 11
140.629
 21
311.529
  0
LINE
  8
0
 10
140.629
 20
311.529
 11
140.773
 21
311.755
  0
LINE
  8
0
 10
140.773
 20
311.755
 11
140.943
 21
311.962
  0
LINE
  8
0
 10
140.943
 20
311.962
 11
141.139
 21
312.145
  0
LINE
  8
0
 10
141.139
 20
312.145
 11
141.356
 21
312.303
  0
LINE
  8
0
 10
141.356
 20
312.303
 11
141.591
 21
312.432
  0
LINE
  8
0
 10
141.591
 20
312.432
 11
141.84
 21
312.531
  0
LINE
  8
0
 10
141.84
 20
312.531
 11
142.1
 21
312.597
  0
LINE
  8
0
 10
142.1
 20
312.597
 11
142.366
 21
312.631
  0
LINE
  8
0
 10
142.366
 20
312.631
 11
142.634
 21
312.631
  0
LINE
  8
0
 10
142.634
 20
312.631
 11
142.9
 21
312.597
  0
LINE
  8
0
 10
142.9
 20
312.597
 11
143.16
 21
312.531
  0
LINE
  8
0
 10
143.16
 20
312.531
 11
143.409
 21
312.432
  0
LINE
  8
0
 10
143.409
 20
312.432
 11
143.644
 21
312.303
  0
LINE
  8
0
 10
143.644
 20
312.303
 11
143.861
 21
312.145
  0
LINE
  8
0
 10
143.861
 20
312.145
 11
144.057
 21
311.962
  0
LINE
  8
0
 10
144.057
 20
311.962
 11
144.227
 21
311.755
  0
LINE
  8
0
 10
144.227
 20
311.755
 11
144.371
 21
311.529
  0
LINE
  8
0
 10
144.371
 20
311.529
 11
144.485
 21
311.286
  0
LINE
  8
0
 10
144.485
 20
311.286
 11
144.568
 21
311.031
  0
LINE
  8
0
 10
144.568
 20
311.031
 11
144.618
 21
310.768
  0
LINE
  8
0
 10
144.618
 20
310.768
 11
144.635
 21
310.5
  0
LINE
  8
0
 10
144.635
 20
310.5
 11
144.618
 21
310.232
  0
LINE
  8
0
 10
144.618
 20
310.232
 11
144.568
 21
309.969
  0
LINE
  8
0
 10
144.568
 20
309.969
 11
144.485
 21
309.714
  0
LINE
  8
0
 10
144.485
 20
309.714
 11
144.371
 21
309.471
  0
LINE
  8
0
 10
144.371
 20
309.471
 11
144.227
 21
309.245
  0
LINE
  8
0
 10
144.227
 20
309.245
 11
144.057
 21
309.038
  0
LINE
  8
0
 10
144.057
 20
309.038
 11
143.861
 21
308.855
  0
LINE
  8
0
 10
143.861
 20
308.855
 11
143.644
 21
308.697
  0
LINE
  8
0
 10
143.644
 20
308.697
 11
143.409
 21
308.568
  0
LINE
  8
0
 10
143.409
 20
308.568
 11
143.16
 21
308.469
  0
LINE
  8
0
 10
143.16
 20
308.469
 11
142.9
 21
308.403
  0
LINE
  8
0
 10
142.9
 20
308.403
 11
142.634
 21
308.369
  0
LINE
  8
0
 10
142.634
 20
308.369
 11
142.366
 21
308.369
  0
LINE
  8
0
 10
-142.634
 20
308.369
 11
-142.9
 21
308.403
  0
LINE
  8
0
 10
-142.9
 20
308.403
 11
-143.16
 21
308.469
  0
LINE
  8
0
 10
-143.16
 20
308.469
 11
-143.409
 21
308.568
  0
LINE
  8
0
 10
-143.409
 20
308.568
 11
-143.644
 21
308.697
  0
LINE
  8
0
 10
-143.644
 20
308.697
 11
-143.861
 21
308.855
  0
LINE
  8
0
 10
-143.861
 20
308.855
 11
-144.057
 21
309.038
  0
LINE
  8
0
 10
-144.057
 20
309.038
 11
-144.227
 21
309.245
  0
LINE
  8
0
 10
-144.227
 20
309.245
 11
-144.371
 21
309.471
  0
LINE
  8
0
 10
-144.371
 20
309.471
 11
-144.485
 21
309.714
  0
LINE
  8
0
 10
-144.485
 20
309.714
 11
-144.568
 21
309.969
  0
LINE
  8
0
 10
-144.568
 20
309.969
 11
-144.618
 21
310.232
  0
LINE
  8
0
 10
-144.618
 20
310.232
 11
-144.635
 21
310.5
  0
LINE
  8
0
 10
-144.635
 20
310.5
 11
-144.618
 21
310.768
  0
LINE
  8
0
 10
-144.618
 20
310.768
 11
-144.568
 21
311.031
  0
LINE
  8
0
 10
-144.568
 20
311.031
 11
-144.485
 21
311.286
  0
LINE
  8
0
 10
-144.485
 20
311.286
 11
-144.371
 21
311.529
  0
LINE
  8
0
 10
-144.371
 20
311.529
 11
-144.227
 21
311.755
  0
LINE
  8
0
 10
-144.227
 20
311.755
 11
-144.057
 21
311.962
  0
LINE
  8
0
 10
-144.057
 20
311.962
 11
-143.861
 21
312.145
  0
LINE
  8
0
 10
-143.861
 20
312.145
 11
-143.644
 21
312.303
  0
LINE
  8
0
 10
-143.644
 20
312.303
 11
-143.409
 21
312.432
  0
LINE
  8
0
 10
-143.409
 20
312.432
 11
-143.16
 21
312.531
  0
LINE
  8
0
 10
-143.16
 20
312.531
 11
-142.9
 21
312.597
  0
LINE
  8
0
 10
-142.9
 20
312.597
 11
-142.634
 21
312.631
  0
LINE
  8
0
 10
-142.634
 20
312.631
 11
-142.366
 21
312.631
  0
LINE
  8
0
 10
-142.366
 20
312.631
 11
-142.1
 21
312.597
  0
LINE
  8
0
 10
-142.1
 20
312.597
 11
-141.84
 21
312.531
  0
LINE
  8
0
 10
-141.84
 20
312.531
 11
-141.591
 21
312.432
  0
LINE
  8
0
 10
-141.591
 20
312.432
 11
-141.356
 21
312.303
  0
LINE
  8
0
 10
-141.356
 20
312.303
 11
-141.139
 21
312.145
  0
LINE
  8
0
 10
-141.139
 20
312.145
 11
-140.943
 21
311.962
  0
LINE
  8
0
 10
-140.943
 20
311.962
 11
-140.773
 21
311.755
  0
LINE
  8
0
 10
-140.773
 20
311.755
 11
-140.629
 21
311.529
  0
LINE
  8
0
 10
-140.629
 20
311.529
 11
-140.515
 21
311.286
  0
LINE
  8
0
 10
-140.515
 20
311.286
 11
-140.432
 21
311.031
  0
LINE
  8
0
 10
-140.432
 20
311.031
 11
-140.382
 21
310.768
  0
LINE
  8
0
 10
-140.382
 20
310.768
 11
-140.365
 21
310.5
  0
LINE
  8
0
 10
-140.365
 20
310.5
 11
-140.382
 21
310.232
  0
LINE
  8
0
 10
-140.382
 20
310.232
 11
-140.432
 21
309.969
  0
LINE
  8
0
 10
-140.432
 20
309.969
 11
-140.515
 21
309.714
  0
LINE
  8
0
 10
-140.515
 20
309.714
 11
-140.629
 21
309.471
  0
LINE
  8
0
 10
-140.629
 20
309.471
 11
-140.773
 21
309.245
  0
LINE
  8
0
 10
-140.773
 20
309.245
 11
-140.943
 21
309.038
  0
LINE
  8
0
 10
-140.943
 20
309.038
 11
-141.139
 21
308.855
  0
LINE
  8
0
 10
-141.139
 20
308.855
 11
-141.356
 21
308.697
  0
LINE
  8
0
 10
-141.356
 20
308.697
 11
-141.591
 21
308.568
  0
LINE
  8
0
 10
-141.591
 20
308.568
 11
-141.84
 21
308.469
  0
LINE
  8
0
 10
-141.84
 20
308.469
 11
-142.1
 21
308.403
  0
LINE
  8
0
 10
-142.1
 20
308.403
 11
-142.366
 21
308.369
  0
LINE
  8
0
 10
-142.366
 20
308.369
 11
-142.634
 21
308.369
  0
LINE
  8
0
 10
142.366
 20
203.369
 11
142.1
 21
203.403
  0
LINE
  8
0
 10
142.1
 20
203.403
 11
141.84
 21
203.469
  0
LINE
  8
0
 10
141.84
 20
203.469
 11
141.591
 21
203.568
  0
LINE
  8
0
 10
141.591
 20
203.568
 11
141.356
 21
203.697
  0
LINE
  8
0
 10
141.356
 20
203.697
 11
141.139
 21
203.855
  0
LINE
  8
0
 10
141.139
 20
203.855
 11
140.943
 21
204.038
  0
LINE
  8
0
 10
140.943
 20
204.038
 11
140.773
 21
204.245
  0
LINE
  8
0
 10
140.773
 20
204.245
 11
140.629
 21
204.471
  0
LINE
  8
0
 10
140.629
 20
204.471
 11
140.515
 21
204.714
  0
LINE
  8
0
 10
140.515
 20
204.714
 11
140.432
 21
204.969
  0
LINE
  8
0
 10
140.432
 20
204.969
 11
140.382
 21
205.232
  0
LINE
  8
0
 10
140.382
 20
205.232
 11
140.365
 21
205.5
  0
LINE
  8
0
 10
140.365
 20
205.5
 11
140.382
 21
205.768
  0
LINE
  8
0
 10
140.382
 20
205.768
 11
140.432
 21
206.031
  0
LINE
  8
0
 10
140.432
 20
206.031
 11
140.515
 21
206.286
  0
LINE
  8
0
 10
140.515
 20
206.286
 11
140.629
 21
206.529
  0
LINE
  8
0
 10
140.629
 20
206.529
 11
140.773
 21
206.755
  0
LINE
  8
0
 10
140.773
 20
206.755
 11
140.943
 21
206.962
  0
LINE
  8
0
 10
140.943
 20
206.962
 11
141.139
 21
207.145
  0
LINE
  8
0
 10
141.139
 20
207.145
 11
141.356
 21
207.303
  0
LINE
  8
0
 10
141.356
 20
207.303
 11
141.591
 21
207.432
  0
LINE
  8
0
 10
141.591
 20
207.432
 11
141.84
 21
207.531
  0
LINE
  8
0
 10
141.84
 20
207.531
 11
142.1
 21
207.597
  0
LINE
  8
0
 10
142.1
 20
207.597
 11
142.366
 21
207.631
  0
LINE
  8
0
 10
142.366
 20
207.631
 11
142.634
 21
207.631
  0
LINE
  8
0
 10
142.634
 20
207.631
 11
142.9
 21
207.597
  0
LINE
  8
0
 10
142.9
 20
207.597
 11
143.16
 21
207.531
  0
LINE
  8
0
 10
143.16
 20
207.531
 11
143.409
 21
207.432
  0
LINE
  8
0
 10
143.409
 20
207.432
 11
143.644
 21
207.303
  0
LINE
  8
0
 10
143.644
 20
207.303
 11
143.861
 21
207.145
  0
LINE
  8
0
 10
143.861
 20
207.145
 11
144.057
 21
206.962
  0
LINE
  8
0
 10
144.057
 20
206.962
 11
144.227
 21
206.755
  0
LINE
  8
0
 10
144.227
 20
206.755
 11
144.371
 21
206.529
  0
LINE
  8
0
 10
144.371
 20
206.529
 11
144.485
 21
206.286
  0
LINE
  8
0
 10
144.485
 20
206.286
 11
144.568
 21
206.031
  0
LINE
  8
0
 10
144.568
 20
206.031
 11
144.618
 21
205.768
  0
LINE
  8
0
 10
144.618
 20
205.768
 11
144.635
 21
205.5
  0
LINE
  8
0
 10
144.635
 20
205.5
 11
144.618
 21
205.232
  0
LINE
  8
0
 10
144.618
 20
205.232
 11
144.568
 21
204.969
  0
LINE
  8
0
 10
144.568
 20
204.969
 11
144.485
 21
204.714
  0
LINE
  8
0
 10
144.485
 20
204.714
 11
144.371
 21
204.471
  0
LINE
  8
0
 10
144.371
 20
204.471
 11
144.227
 21
204.245
  0
LINE
  8
0
 10
144.227
 20
204.245
 11
144.057
 21
204.038
  0
LINE
  8
0
 10
144.057
 20
204.038
 11
143.861
 21
203.855
  0
LINE
  8
0
 10
143.861
 20
203.855
 11
143.644
 21
203.697
  0
LINE
  8
0
 10
143.644
 20
203.697
 11
143.409
 21
203.568
  0
LINE
  8
0
 10
143.409
 20
203.568
 11
143.16
 21
203.469
  0
LINE
  8
0
 10
143.16
 20
203.469
 11
142.9
 21
203.403
  0
LINE
  8
0
 10
142.9
 20
203.403
 11
142.634
 21
203.369
  0
LINE
  8
0
 10
142.634
 20
203.369
 11
142.366
 21
203.369
  0
LINE
  8
0
 10
-142.634
 20
203.369
 11
-142.9
 21
203.403
  0
LINE
  8
0
 10
-142.9
 20
203.403
 11
-143.16
 21
203.469
  0
LINE
  8
0
 10
-143.16
 20
203.469
 11
-143.409
 21
203.568
  0
LINE
  8
0
 10
-143.409
 20
203.568
 11
-143.644
 21
203.697
  0
LINE
  8
0
 10
-143.644
 20
203.697
 11
-143.861
 21
203.855
  0
LINE
  8
0
 10
-143.861
 20
203.855
 11
-144.057
 21
204.038
  0
LINE
  8
0
 10
-144.057
 20
204.038
 11
-144.227
 21
204.245
  0
LINE
  8
0
 10
-144.227
 20
204.245
 11
-144.371
 21
204.471
  0
LINE
  8
0
 10
-144.371
 20
204.471
 11
-144.485
 21
204.714
  0
LINE
  8
0
 10
-144.485
 20
204.714
 11
-144.568
 21
204.969
  0
LINE
  8
0
 10
-144.568
 20
204.969
 11
-144.618
 21
205.232
  0
LINE
  8
0
 10
-144.618
 20
205.232
 11
-144.635
 21
205.5
  0
LINE
  8
0
 10
-144.635
 20
205.5
 11
-144.618
 21
205.768
  0
LINE
  8
0
 10
-144.618
 20
205.768
 11
-144.568
 21
206.031
  0
LINE
  8
0
 10
-144.568
 20
206.031
 11
-144.485
 21
206.286
  0
LINE
  8
0
 10
-144.485
 20
206.286
 11
-144.371
 21
206.529
  0
LINE
  8
0
 10
-144.371
 20
206.529
 11
-144.227
 21
206.755
  0
LINE
  8
0
 10
-144.227
 20
206.755
 11
-144.057
 21
206.962
  0
LINE
  8
0
 10
-144.057
 20
206.962
 11
-143.861
 21
207.145
  0
LINE
  8
0
 10
-143.861
 20
207.145
 11
-143.644
 21
207.303
  0
LINE
  8
0
 10
-143.644
 20
207.303
 11
-143.409
 21
207.432
  0
LINE
  8
0
 10
-143.409
 20
207.432
 11
-143.16
 21
207.531
  0
LINE
  8
0
 10
-143.16
 20
207.531
 11
-142.9
 21
207.597
  0
LINE
  8
0
 10
-142.9
 20
207.597
 11
-142.634
 21
207.631
  0
LINE
  8
0
 10
-142.634
 20
207.631
 11
-142.366
 21
207.631
  0
LINE
  8
0
 10
-142.366
 20
207.631
 11
-142.1
 21
207.597
  0
LINE
  8
0
 10
-142.1
 20
207.597
 11
-141.84
 21
207.531
  0
LINE
  8
0
 10
-141.84
 20
207.531
 11
-141.591
 21
207.432
  0
LINE
  8
0
 10
-141.591
 20
207.432
 11
-141.356
 21
207.303
  0
LINE
  8
0
 10
-141.356
 20
207.303
 11
-141.139
 21
207.145
  0
LINE
  8
0
 10
-141.139
 20
207.145
 11
-140.943
 21
206.962
  0
LINE
  8
0
 10
-140.943
 20
206.962
 11
-140.773
 21
206.755
  0
LINE
  8
0
 10
-140.773
 20
206.755
 11
-140.629
 21
206.529
  0
LINE
  8
0
 10
-140.629
 20
206.529
 11
-140.515
 21
206.286
  0
LINE
  8
0
 10
-140.515
 20
206.286
 11
-140.432
 21
206.031
  0
LINE
  8
0
 10
-140.432
 20
206.031
 11
-140.382
 21
205.768
  0
LINE
  8
0
 10
-140.382
 20
205.768
 11
-140.365
 21
205.5
  0
LINE
  8
0
 10
-140.365
 20
205.5
 11
-140.382
 21
205.232
  0
LINE
  8
0
 10
-140.382
 20
205.232
 11
-140.432
 21
204.969
  0
LINE
  8
0
 10
-140.432
 20
204.969
 11
-140.515
 21
204.714
  0
LINE
  8
0
 10
-140.515
 20
204.714
 11
-140.629
 21
204.471
  0
LINE
  8
0
 10
-140.629
 20
204.471
 11
-140.773
 21
204.245
  0
LINE
  8
0
 10
-140.773
 20
204.245
 11
-140.943
 21
204.038
  0
LINE
  8
0
 10
-140.943
 20
204.038
 11
-141.139
 21
203.855
  0
LINE
  8
0
 10
-141.139
 20
203.855
 11
-141.356
 21
203.697
  0
LINE
  8
0
 10
-141.356
 20
203.697
 11
-141.591
 21
203.568
  0
LINE
  8
0
 10
-141.591
 20
203.568
 11
-141.84
 21
203.469
  0
LINE
  8
0
 10
-141.84
 20
203.469
 11
-142.1
 21
203.403
  0
LINE
  8
0
 10
-142.1
 20
203.403
 11
-142.366
 21
203.369
  0
LINE
  8
0
 10
-142.366
 20
203.369
 11
-142.634
 21
203.369
  0
ENDSEC
  0
SECTION
  2
OBJECTS
  0
DICTIONARY
  0
ENDSEC
  0
EOF
