<?xml version="1.0" standalone="no"?>
<!DOCTYPE svg PUBLIC "-//W3C//DTD SVG 1.1//EN" "http://www.w3.org/Graphics/SVG/1.1/DTD/svg11.dtd">
<svg width="256mm" height="558mm" viewBox="-128 -846 256 558" xmlns="http://www.w3.org/2000/svg" version="1.1">
<title>OpenSCAD Model</title>
<path d="
M 123.437,-666.089 L 124.045,-666.245 L 124.629,-666.476 L 125.179,-666.778 L 125.687,-667.147 L 126.145,-667.577
 L 126.545,-668.061 L 126.882,-668.591 L 127.149,-669.159 L 127.343,-669.757 L 127.461,-670.373 L 127.5,-671
 L 127.5,-841 L 127.461,-841.627 L 127.343,-842.243 L 127.149,-842.841 L 126.882,-843.409 L 126.545,-843.939
 L 126.145,-844.423 L 125.687,-844.853 L 125.179,-845.222 L 124.629,-845.524 L 124.045,-845.755 L 123.437,-845.911
 L 122.814,-845.99 L -122.814,-845.99 L -123.437,-845.911 L -124.045,-845.755 L -124.629,-845.524 L -125.179,-845.222
 L -125.687,-844.853 L -126.145,-844.423 L -126.545,-843.939 L -126.882,-843.409 L -127.149,-842.841 L -127.343,-842.243
 L -127.461,-841.627 L -127.5,-841 L -127.5,-671 L -127.461,-670.373 L -127.343,-669.757 L -127.149,-669.159
 L -126.882,-668.591 L -126.545,-668.061 L -126.145,-667.577 L -125.687,-667.147 L -125.179,-666.778 L -124.629,-666.476
 L -124.045,-666.245 L -123.437,-666.089 L -122.814,-666.01 L 122.814,-666.01 z
M -122.548,-666.509 L -123.14,-666.584 L -123.718,-666.732 L -124.272,-666.952 L -124.795,-667.239 L -125.278,-667.59
 L -125.713,-667.998 L -126.093,-668.458 L -126.412,-668.962 L -126.666,-669.501 L -126.851,-670.069 L -126.963,-670.655
 L -127,-671.25 L -127,-840.75 L -126.963,-841.345 L -126.851,-841.931 L -126.666,-842.499 L -126.412,-843.038
 L -126.093,-843.542 L -125.713,-844.002 L -125.278,-844.41 L -124.795,-844.761 L -124.272,-845.048 L -123.718,-845.268
 L -123.14,-845.416 L -122.548,-845.491 L 122.548,-845.491 L 123.14,-845.416 L 123.718,-845.268 L 124.272,-845.048
 L 124.795,-844.761 L 125.278,-844.41 L 125.713,-844.002 L 126.093,-843.542 L 126.412,-843.038 L 126.666,-842.499
 L 126.851,-841.931 L 126.963,-841.345 L 127,-840.75 L 127,-671.25 L 126.963,-670.655 L 126.851,-670.069
 L 126.666,-669.501 L 126.412,-668.962 L 126.093,-668.458 L 125.713,-667.998 L 125.278,-667.59 L 124.795,-667.239
 L 124.272,-666.952 L 123.718,-666.732 L 123.14,-666.584 L 122.548,-666.509 z
M 123.437,-477.089 L 124.045,-477.245 L 124.629,-477.476 L 125.179,-477.778 L 125.687,-478.147 L 126.145,-478.577
 L 126.545,-479.061 L 126.882,-479.591 L 127.149,-480.159 L 127.343,-480.757 L 127.461,-481.373 L 127.5,-482
 L 127.5,-652 L 127.461,-652.627 L 127.343,-653.243 L 127.149,-653.841 L 126.882,-654.409 L 126.545,-654.939
 L 126.145,-655.423 L 125.687,-655.853 L 125.179,-656.222 L 124.629,-656.524 L 124.045,-656.755 L 123.437,-656.911
 L 122.814,-656.99 L -122.814,-656.99 L -123.437,-656.911 L -124.045,-656.755 L -124.629,-656.524 L -125.179,-656.222
 L -125.687,-655.853 L -126.145,-655.423 L -126.545,-654.939 L -126.882,-654.409 L -127.149,-653.841 L -127.343,-653.243
 L -127.461,-652.627 L -127.5,-652 L -127.5,-482 L -127.461,-481.373 L -127.343,-480.757 L -127.149,-480.159
 L -126.882,-479.591 L -126.545,-479.061 L -126.145,-478.577 L -125.687,-478.147 L -125.179,-477.778 L -124.629,-477.476
 L -124.045,-477.245 L -123.437,-477.089 L -122.814,-477.01 L 122.814,-477.01 z
M -122.493,-478.388 L -122.975,-478.449 L -123.446,-478.57 L -123.898,-478.749 L -124.323,-478.983 L -124.716,-479.269
 L -125.071,-479.601 L -125.38,-479.976 L -125.641,-480.386 L -125.848,-480.826 L -125.998,-481.288 L -126.089,-481.765
 L -126.119,-482.25 L -126.119,-651.75 L -126.089,-652.235 L -125.998,-652.712 L -125.848,-653.174 L -125.641,-653.614
 L -125.38,-654.024 L -125.071,-654.399 L -124.716,-654.731 L -124.323,-655.017 L -123.898,-655.251 L -123.446,-655.43
 L -122.975,-655.551 L -122.493,-655.612 L 122.493,-655.612 L 122.975,-655.551 L 123.446,-655.43 L 123.898,-655.251
 L 124.323,-655.017 L 124.716,-654.731 L 125.071,-654.399 L 125.38,-654.024 L 125.641,-653.614 L 125.848,-653.174
 L 125.998,-652.712 L 126.089,-652.235 L 126.119,-651.75 L 126.119,-482.25 L 126.089,-481.765 L 125.998,-481.288
 L 125.848,-480.826 L 125.641,-480.386 L 125.38,-479.976 L 125.071,-479.601 L 124.716,-479.269 L 124.323,-478.983
 L 123.898,-478.749 L 123.446,-478.57 L 122.975,-478.449 L 122.493,-478.388 z
M 123.437,-288.089 L 124.045,-288.245 L 124.629,-288.476 L 125.179,-288.778 L 125.687,-289.147 L 126.145,-289.577
 L 126.545,-290.061 L 126.882,-290.591 L 127.149,-291.159 L 127.343,-291.757 L 127.461,-292.373 L 127.5,-293
 L 127.5,-463 L 127.461,-463.627 L 127.343,-464.243 L 127.149,-464.841 L 126.882,-465.409 L 126.545,-465.939
 L 126.145,-466.423 L 125.687,-466.853 L 125.179,-467.222 L 124.629,-467.524 L 124.045,-467.755 L 123.437,-467.911
 L 122.814,-467.99 L -122.814,-467.99 L -123.437,-467.911 L -124.045,-467.755 L -124.629,-467.524 L -125.179,-467.222
 L -125.687,-466.853 L -126.145,-466.423 L -126.545,-465.939 L -126.882,-465.409 L -127.149,-464.841 L -127.343,-464.243
 L -127.461,-463.627 L -127.5,-463 L -127.5,-293 L -127.461,-292.373 L -127.343,-291.757 L -127.149,-291.159
 L -126.882,-290.591 L -126.545,-290.061 L -126.145,-289.577 L -125.687,-289.147 L -125.179,-288.778 L -124.629,-288.476
 L -124.045,-288.245 L -123.437,-288.089 L -122.814,-288.01 L 122.814,-288.01 z
M 119.887,-458.704 L 119.663,-458.732 L 119.444,-458.788 L 119.234,-458.871 L 119.036,-458.98 L 118.853,-459.113
 L 118.688,-459.268 L 118.544,-459.442 L 118.423,-459.633 L 118.326,-459.837 L 118.257,-460.052 L 118.214,-460.274
 L 118.2,-460.5 L 118.214,-460.726 L 118.257,-460.948 L 118.326,-461.163 L 118.423,-461.367 L 118.544,-461.558
 L 118.688,-461.732 L 118.853,-461.887 L 119.036,-462.02 L 119.234,-462.129 L 119.444,-462.212 L 119.663,-462.268
 L 119.887,-462.296 L 120.113,-462.296 L 120.337,-462.268 L 120.556,-462.212 L 120.766,-462.129 L 120.964,-462.02
 L 121.147,-461.887 L 121.312,-461.732 L 121.456,-461.558 L 121.577,-461.367 L 121.674,-461.163 L 121.743,-460.948
 L 121.786,-460.726 L 121.8,-460.5 L 121.786,-460.274 L 121.743,-460.052 L 121.674,-459.837 L 121.577,-459.633
 L 121.456,-459.442 L 121.312,-459.268 L 121.147,-459.113 L 120.964,-458.98 L 120.766,-458.871 L 120.556,-458.788
 L 120.337,-458.732 L 120.113,-458.704 z
M -120.113,-458.704 L -120.337,-458.732 L -120.556,-458.788 L -120.766,-458.871 L -120.964,-458.98 L -121.147,-459.113
 L -121.312,-459.268 L -121.456,-459.442 L -121.577,-459.633 L -121.674,-459.837 L -121.743,-460.052 L -121.786,-460.274
 L -121.8,-460.5 L -121.786,-460.726 L -121.743,-460.948 L -121.674,-461.163 L -121.577,-461.367 L -121.456,-461.558
 L -121.312,-461.732 L -121.147,-461.887 L -120.964,-462.02 L -120.766,-462.129 L -120.556,-462.212 L -120.337,-462.268
 L -120.113,-462.296 L -119.887,-462.296 L -119.663,-462.268 L -119.444,-462.212 L -119.234,-462.129 L -119.036,-462.02
 L -118.853,-461.887 L -118.688,-461.732 L -118.544,-461.558 L -118.423,-461.367 L -118.326,-461.163 L -118.257,-460.948
 L -118.214,-460.726 L -118.2,-460.5 L -118.214,-460.274 L -118.257,-460.052 L -118.326,-459.837 L -118.423,-459.633
 L -118.544,-459.442 L -118.688,-459.268 L -118.853,-459.113 L -119.036,-458.98 L -119.234,-458.871 L -119.444,-458.788
 L -119.663,-458.732 L -119.887,-458.704 z
M -120.113,-293.704 L -120.337,-293.732 L -120.556,-293.788 L -120.766,-293.871 L -120.964,-293.98 L -121.147,-294.113
 L -121.312,-294.268 L -121.456,-294.442 L -121.577,-294.633 L -121.674,-294.837 L -121.743,-295.052 L -121.786,-295.274
 L -121.8,-295.5 L -121.786,-295.726 L -121.743,-295.948 L -121.674,-296.163 L -121.577,-296.367 L -121.456,-296.558
 L -121.312,-296.732 L -121.147,-296.887 L -120.964,-297.02 L -120.766,-297.129 L -120.556,-297.212 L -120.337,-297.268
 L -120.113,-297.296 L -119.887,-297.296 L -119.663,-297.268 L -119.444,-297.212 L -119.234,-297.129 L -119.036,-297.02
 L -118.853,-296.887 L -118.688,-296.732 L -118.544,-296.558 L -118.423,-296.367 L -118.326,-296.163 L -118.257,-295.948
 L -118.214,-295.726 L -118.2,-295.5 L -118.214,-295.274 L -118.257,-295.052 L -118.326,-294.837 L -118.423,-294.633
 L -118.544,-294.442 L -118.688,-294.268 L -118.853,-294.113 L -119.036,-293.98 L -119.234,-293.871 L -119.444,-293.788
 L -119.663,-293.732 L -119.887,-293.704 z
M 119.887,-293.704 L 119.663,-293.732 L 119.444,-293.788 L 119.234,-293.871 L 119.036,-293.98 L 118.853,-294.113
 L 118.688,-294.268 L 118.544,-294.442 L 118.423,-294.633 L 118.326,-294.837 L 118.257,-295.052 L 118.214,-295.274
 L 118.2,-295.5 L 118.214,-295.726 L 118.257,-295.948 L 118.326,-296.163 L 118.423,-296.367 L 118.544,-296.558
 L 118.688,-296.732 L 118.853,-296.887 L 119.036,-297.02 L 119.234,-297.129 L 119.444,-297.212 L 119.663,-297.268
 L 119.887,-297.296 L 120.113,-297.296 L 120.337,-297.268 L 120.556,-297.212 L 120.766,-297.129 L 120.964,-297.02
 L 121.147,-296.887 L 121.312,-296.732 L 121.456,-296.558 L 121.577,-296.367 L 121.674,-296.163 L 121.743,-295.948
 L 121.786,-295.726 L 121.8,-295.5 L 121.786,-295.274 L 121.743,-295.052 L 121.674,-294.837 L 121.577,-294.633
 L 121.456,-294.442 L 121.312,-294.268 L 121.147,-294.113 L 120.964,-293.98 L 120.766,-293.871 L 120.556,-293.788
 L 120.337,-293.732 L 120.113,-293.704 z
" stroke="black" fill="lightgray" stroke-width="0.5"/>
</svg>
