<?xml version="1.0" standalone="no"?>
<!DOCTYPE svg PUBLIC "-//W3C//DTD SVG 1.1//EN" "http://www.w3.org/Graphics/SVG/1.1/DTD/svg11.dtd">
<svg width="287mm" height="186mm" viewBox="-144 -327 287 186" xmlns="http://www.w3.org/2000/svg" version="1.1">
<title>OpenSCAD Model</title>
<path d="
M -141,-298.441 L -140.687,-298.147 L -140.179,-297.778 L -139.629,-297.476 L -139.045,-297.245 L -138.437,-297.089
 L -137.814,-297.01 L 137.814,-297.01 L 138.437,-297.089 L 139.045,-297.245 L 139.629,-297.476 L 140.179,-297.778
 L 140.687,-298.147 L 141.145,-298.577 L 141.545,-299.061 L 141.882,-299.591 L 142.149,-300.159 L 142.343,-300.757
 L 142.461,-301.373 L 142.5,-302 L 142.5,-322 L 142.461,-322.627 L 142.343,-323.243 L 142.149,-323.841
 L 141.882,-324.409 L 141.545,-324.939 L 141.145,-325.423 L 140.687,-325.853 L 140.179,-326.222 L 139.629,-326.524
 L 139.045,-326.755 L 138.437,-326.911 L 137.814,-326.99 L -137.814,-326.99 L -138.437,-326.911 L -139.045,-326.755
 L -139.629,-326.524 L -140.179,-326.222 L -140.687,-325.853 L -141,-325.559 L -141,-326.99 L -144,-326.99
 L -144,-297.01 L -141,-297.01 z
M -137.251,-298.508 L -137.75,-298.571 L -138.236,-298.696 L -138.703,-298.881 L -139.143,-299.123 L -139.55,-299.418
 L -139.916,-299.762 L -140.236,-300.149 L -140.505,-300.573 L -140.719,-301.028 L -140.874,-301.505 L -140.968,-301.999
 L -141,-302.5 L -141,-321.5 L -140.968,-322.001 L -140.874,-322.495 L -140.719,-322.972 L -140.505,-323.427
 L -140.236,-323.851 L -139.916,-324.238 L -139.55,-324.582 L -139.143,-324.877 L -138.703,-325.119 L -138.236,-325.304
 L -137.75,-325.429 L -137.251,-325.492 L 137.251,-325.492 L 137.75,-325.429 L 138.236,-325.304 L 138.703,-325.119
 L 139.143,-324.877 L 139.55,-324.582 L 139.916,-324.238 L 140.236,-323.851 L 140.505,-323.427 L 140.719,-322.972
 L 140.874,-322.495 L 140.968,-322.001 L 141,-321.5 L 141,-302.5 L 140.968,-301.999 L 140.874,-301.505
 L 140.719,-301.028 L 140.505,-300.573 L 140.236,-300.149 L 139.916,-299.762 L 139.55,-299.418 L 139.143,-299.123
 L 138.703,-298.881 L 138.236,-298.696 L 137.75,-298.571 L 137.251,-298.508 z
M -141,-259.441 L -140.687,-259.147 L -140.179,-258.778 L -139.629,-258.476 L -139.045,-258.245 L -138.437,-258.089
 L -137.814,-258.01 L 137.814,-258.01 L 138.437,-258.089 L 139.045,-258.245 L 139.629,-258.476 L 140.179,-258.778
 L 140.687,-259.147 L 141.145,-259.577 L 141.545,-260.061 L 141.882,-260.591 L 142.149,-261.159 L 142.343,-261.757
 L 142.461,-262.373 L 142.5,-263 L 142.5,-283 L 142.461,-283.627 L 142.343,-284.243 L 142.149,-284.841
 L 141.882,-285.409 L 141.545,-285.939 L 141.145,-286.423 L 140.687,-286.853 L 140.179,-287.222 L 139.629,-287.524
 L 139.045,-287.755 L 138.437,-287.911 L 137.814,-287.99 L -137.814,-287.99 L -138.437,-287.911 L -139.045,-287.755
 L -139.629,-287.524 L -140.179,-287.222 L -140.687,-286.853 L -141,-286.559 L -141,-287.99 L -144,-287.99
 L -144,-258.01 L -141,-258.01 z
M -137.251,-259.508 L -137.75,-259.571 L -138.236,-259.696 L -138.703,-259.881 L -139.143,-260.123 L -139.55,-260.418
 L -139.916,-260.762 L -140.236,-261.149 L -140.505,-261.573 L -140.719,-262.028 L -140.874,-262.505 L -140.968,-262.999
 L -141,-263.5 L -141,-282.5 L -140.968,-283.001 L -140.874,-283.495 L -140.719,-283.972 L -140.505,-284.427
 L -140.236,-284.851 L -139.916,-285.238 L -139.55,-285.582 L -139.143,-285.877 L -138.703,-286.119 L -138.236,-286.304
 L -137.75,-286.429 L -137.251,-286.492 L 137.251,-286.492 L 137.75,-286.429 L 138.236,-286.304 L 138.703,-286.119
 L 139.143,-285.877 L 139.55,-285.582 L 139.916,-285.238 L 140.236,-284.851 L 140.505,-284.427 L 140.719,-283.972
 L 140.874,-283.495 L 140.968,-283.001 L 141,-282.5 L 141,-263.5 L 140.968,-262.999 L 140.874,-262.505
 L 140.719,-262.028 L 140.505,-261.573 L 140.236,-261.149 L 139.916,-260.762 L 139.55,-260.418 L 139.143,-260.123
 L 138.703,-259.881 L 138.236,-259.696 L 137.75,-259.571 L 137.251,-259.508 z
M -141,-220.441 L -140.687,-220.147 L -140.179,-219.778 L -139.629,-219.476 L -139.045,-219.245 L -138.437,-219.089
 L -137.814,-219.01 L 137.814,-219.01 L 138.437,-219.089 L 139.045,-219.245 L 139.629,-219.476 L 140.179,-219.778
 L 140.687,-220.147 L 141.145,-220.577 L 141.545,-221.061 L 141.882,-221.591 L 142.149,-222.159 L 142.343,-222.757
 L 142.461,-223.373 L 142.5,-224 L 142.5,-244 L 142.461,-244.627 L 142.343,-245.243 L 142.149,-245.841
 L 141.882,-246.409 L 141.545,-246.939 L 141.145,-247.423 L 140.687,-247.853 L 140.179,-248.222 L 139.629,-248.524
 L 139.045,-248.755 L 138.437,-248.911 L 137.814,-248.99 L -137.814,-248.99 L -138.437,-248.911 L -139.045,-248.755
 L -139.629,-248.524 L -140.179,-248.222 L -140.687,-247.853 L -141,-247.559 L -141,-248.99 L -144,-248.99
 L -144,-219.01 L -141,-219.01 z
M -137.243,-220.635 L -137.726,-220.696 L -138.197,-220.817 L -138.649,-220.996 L -139.075,-221.23 L -139.469,-221.516
 L -139.823,-221.849 L -140.133,-222.224 L -140.394,-222.634 L -140.601,-223.074 L -140.751,-223.537 L -140.842,-224.015
 L -140.873,-224.5 L -140.873,-243.5 L -140.842,-243.985 L -140.751,-244.463 L -140.601,-244.926 L -140.394,-245.366
 L -140.133,-245.776 L -139.823,-246.151 L -139.469,-246.484 L -139.075,-246.77 L -138.649,-247.004 L -138.197,-247.183
 L -137.726,-247.304 L -137.243,-247.365 L 137.243,-247.365 L 137.726,-247.304 L 138.197,-247.183 L 138.649,-247.004
 L 139.075,-246.77 L 139.469,-246.484 L 139.823,-246.151 L 140.133,-245.776 L 140.394,-245.366 L 140.601,-244.926
 L 140.751,-244.463 L 140.842,-243.985 L 140.873,-243.5 L 140.873,-224.5 L 140.842,-224.015 L 140.751,-223.537
 L 140.601,-223.074 L 140.394,-222.634 L 140.133,-222.224 L 139.823,-221.849 L 139.469,-221.516 L 139.075,-221.23
 L 138.649,-220.996 L 138.197,-220.817 L 137.726,-220.696 L 137.243,-220.635 z
M 138.437,-180.089 L 139.045,-180.245 L 139.629,-180.476 L 140.179,-180.778 L 140.687,-181.147 L 141.145,-181.577
 L 141.545,-182.061 L 141.882,-182.591 L 142.149,-183.159 L 142.343,-183.757 L 142.461,-184.373 L 142.5,-185
 L 142.5,-205 L 142.461,-205.627 L 142.343,-206.243 L 142.149,-206.841 L 141.882,-207.409 L 141.545,-207.939
 L 141.145,-208.423 L 140.687,-208.853 L 140.179,-209.222 L 139.629,-209.524 L 139.045,-209.755 L 138.437,-209.911
 L 137.814,-209.99 L -137.814,-209.99 L -138.437,-209.911 L -139.045,-209.755 L -139.629,-209.524 L -140.179,-209.222
 L -140.687,-208.853 L -141,-208.559 L -141,-209.615 L -144,-209.615 L -144,-180.385 L -141,-180.385
 L -141,-181.441 L -140.687,-181.147 L -140.179,-180.778 L -139.629,-180.476 L -139.045,-180.245 L -138.437,-180.089
 L -137.814,-180.01 L 137.814,-180.01 z
M -135.151,-200.105 L -135.45,-200.143 L -135.742,-200.217 L -136.022,-200.328 L -136.286,-200.474 L -136.53,-200.651
 L -136.75,-200.857 L -136.942,-201.089 L -137.103,-201.344 L -137.231,-201.617 L -137.325,-201.903 L -137.381,-202.199
 L -137.4,-202.5 L -137.381,-202.801 L -137.325,-203.097 L -137.231,-203.383 L -137.103,-203.656 L -136.942,-203.911
 L -136.75,-204.143 L -136.53,-204.349 L -136.286,-204.526 L -136.022,-204.672 L -135.742,-204.783 L -135.45,-204.857
 L -135.151,-204.895 L -134.849,-204.895 L -134.55,-204.857 L -134.258,-204.783 L -133.978,-204.672 L -133.714,-204.526
 L -133.47,-204.349 L -133.25,-204.143 L -133.058,-203.911 L -132.897,-203.656 L -132.769,-203.383 L -132.675,-203.097
 L -132.619,-202.801 L -132.6,-202.5 L -132.619,-202.199 L -132.675,-201.903 L -132.769,-201.617 L -132.897,-201.344
 L -133.058,-201.089 L -133.25,-200.857 L -133.47,-200.651 L -133.714,-200.474 L -133.978,-200.328 L -134.258,-200.217
 L -134.55,-200.143 L -134.849,-200.105 z
M 134.849,-200.105 L 134.55,-200.143 L 134.258,-200.217 L 133.978,-200.328 L 133.714,-200.474 L 133.47,-200.651
 L 133.25,-200.857 L 133.058,-201.089 L 132.897,-201.344 L 132.769,-201.617 L 132.675,-201.903 L 132.619,-202.199
 L 132.6,-202.5 L 132.619,-202.801 L 132.675,-203.097 L 132.769,-203.383 L 132.897,-203.656 L 133.058,-203.911
 L 133.25,-204.143 L 133.47,-204.349 L 133.714,-204.526 L 133.978,-204.672 L 134.258,-204.783 L 134.55,-204.857
 L 134.849,-204.895 L 135.151,-204.895 L 135.45,-204.857 L 135.742,-204.783 L 136.022,-204.672 L 136.286,-204.526
 L 136.53,-204.349 L 136.75,-204.143 L 136.942,-203.911 L 137.103,-203.656 L 137.231,-203.383 L 137.325,-203.097
 L 137.381,-202.801 L 137.4,-202.5 L 137.381,-202.199 L 137.325,-201.903 L 137.231,-201.617 L 137.103,-201.344
 L 136.942,-201.089 L 136.75,-200.857 L 136.53,-200.651 L 136.286,-200.474 L 136.022,-200.328 L 135.742,-200.217
 L 135.45,-200.143 L 135.151,-200.105 z
M -135.151,-185.105 L -135.45,-185.143 L -135.742,-185.217 L -136.022,-185.328 L -136.286,-185.474 L -136.53,-185.651
 L -136.75,-185.857 L -136.942,-186.089 L -137.103,-186.344 L -137.231,-186.617 L -137.325,-186.903 L -137.381,-187.199
 L -137.4,-187.5 L -137.381,-187.801 L -137.325,-188.097 L -137.231,-188.383 L -137.103,-188.656 L -136.942,-188.911
 L -136.75,-189.143 L -136.53,-189.349 L -136.286,-189.526 L -136.022,-189.672 L -135.742,-189.783 L -135.45,-189.857
 L -135.151,-189.895 L -134.849,-189.895 L -134.55,-189.857 L -134.258,-189.783 L -133.978,-189.672 L -133.714,-189.526
 L -133.47,-189.349 L -133.25,-189.143 L -133.058,-188.911 L -132.897,-188.656 L -132.769,-188.383 L -132.675,-188.097
 L -132.619,-187.801 L -132.6,-187.5 L -132.619,-187.199 L -132.675,-186.903 L -132.769,-186.617 L -132.897,-186.344
 L -133.058,-186.089 L -133.25,-185.857 L -133.47,-185.651 L -133.714,-185.474 L -133.978,-185.328 L -134.258,-185.217
 L -134.55,-185.143 L -134.849,-185.105 z
M 134.849,-185.105 L 134.55,-185.143 L 134.258,-185.217 L 133.978,-185.328 L 133.714,-185.474 L 133.47,-185.651
 L 133.25,-185.857 L 133.058,-186.089 L 132.897,-186.344 L 132.769,-186.617 L 132.675,-186.903 L 132.619,-187.199
 L 132.6,-187.5 L 132.619,-187.801 L 132.675,-188.097 L 132.769,-188.383 L 132.897,-188.656 L 133.058,-188.911
 L 133.25,-189.143 L 133.47,-189.349 L 133.714,-189.526 L 133.978,-189.672 L 134.258,-189.783 L 134.55,-189.857
 L 134.849,-189.895 L 135.151,-189.895 L 135.45,-189.857 L 135.742,-189.783 L 136.022,-189.672 L 136.286,-189.526
 L 136.53,-189.349 L 136.75,-189.143 L 136.942,-188.911 L 137.103,-188.656 L 137.231,-188.383 L 137.325,-188.097
 L 137.381,-187.801 L 137.4,-187.5 L 137.381,-187.199 L 137.325,-186.903 L 137.231,-186.617 L 137.103,-186.344
 L 136.942,-186.089 L 136.75,-185.857 L 136.53,-185.651 L 136.286,-185.474 L 136.022,-185.328 L 135.742,-185.217
 L 135.45,-185.143 L 135.151,-185.105 z
M 138.437,-141.089 L 139.045,-141.245 L 139.629,-141.476 L 140.179,-141.778 L 140.687,-142.147 L 141.145,-142.577
 L 141.545,-143.061 L 141.882,-143.591 L 142.149,-144.159 L 142.343,-144.757 L 142.461,-145.373 L 142.5,-146
 L 142.5,-166 L 142.461,-166.627 L 142.343,-167.243 L 142.149,-167.841 L 141.882,-168.409 L 141.545,-168.939
 L 141.145,-169.423 L 140.687,-169.853 L 140.179,-170.222 L 139.629,-170.524 L 139.045,-170.755 L 138.437,-170.911
 L 137.814,-170.99 L -137.814,-170.99 L -138.437,-170.911 L -139.045,-170.755 L -139.629,-170.524 L -140.179,-170.222
 L -140.687,-169.853 L -141.145,-169.423 L -141.545,-168.939 L -141.882,-168.409 L -142.149,-167.841 L -142.343,-167.243
 L -142.4,-166.944 L -144,-166.944 L -144,-145.056 L -142.4,-145.056 L -142.343,-144.757 L -142.149,-144.159
 L -141.882,-143.591 L -141.545,-143.061 L -141.145,-142.577 L -140.687,-142.147 L -140.179,-141.778 L -139.629,-141.476
 L -139.045,-141.245 L -138.437,-141.089 L -137.814,-141.01 L 137.814,-141.01 z
M -135.113,-161.704 L -135.337,-161.732 L -135.556,-161.788 L -135.766,-161.871 L -135.964,-161.98 L -136.147,-162.113
 L -136.312,-162.268 L -136.456,-162.442 L -136.577,-162.633 L -136.674,-162.837 L -136.743,-163.052 L -136.786,-163.274
 L -136.8,-163.5 L -136.786,-163.726 L -136.743,-163.948 L -136.674,-164.163 L -136.577,-164.367 L -136.456,-164.558
 L -136.312,-164.732 L -136.147,-164.887 L -135.964,-165.02 L -135.766,-165.129 L -135.556,-165.212 L -135.337,-165.268
 L -135.113,-165.296 L -134.887,-165.296 L -134.663,-165.268 L -134.444,-165.212 L -134.234,-165.129 L -134.036,-165.02
 L -133.853,-164.887 L -133.688,-164.732 L -133.544,-164.558 L -133.423,-164.367 L -133.326,-164.163 L -133.257,-163.948
 L -133.214,-163.726 L -133.2,-163.5 L -133.214,-163.274 L -133.257,-163.052 L -133.326,-162.837 L -133.423,-162.633
 L -133.544,-162.442 L -133.688,-162.268 L -133.853,-162.113 L -134.036,-161.98 L -134.234,-161.871 L -134.444,-161.788
 L -134.663,-161.732 L -134.887,-161.704 z
M 134.887,-161.704 L 134.663,-161.732 L 134.444,-161.788 L 134.234,-161.871 L 134.036,-161.98 L 133.853,-162.113
 L 133.688,-162.268 L 133.544,-162.442 L 133.423,-162.633 L 133.326,-162.837 L 133.257,-163.052 L 133.214,-163.274
 L 133.2,-163.5 L 133.214,-163.726 L 133.257,-163.948 L 133.326,-164.163 L 133.423,-164.367 L 133.544,-164.558
 L 133.688,-164.732 L 133.853,-164.887 L 134.036,-165.02 L 134.234,-165.129 L 134.444,-165.212 L 134.663,-165.268
 L 134.887,-165.296 L 135.113,-165.296 L 135.337,-165.268 L 135.556,-165.212 L 135.766,-165.129 L 135.964,-165.02
 L 136.147,-164.887 L 136.312,-164.732 L 136.456,-164.558 L 136.577,-164.367 L 136.674,-164.163 L 136.743,-163.948
 L 136.786,-163.726 L 136.8,-163.5 L 136.786,-163.274 L 136.743,-163.052 L 136.674,-162.837 L 136.577,-162.633
 L 136.456,-162.442 L 136.312,-162.268 L 136.147,-162.113 L 135.964,-161.98 L 135.766,-161.871 L 135.556,-161.788
 L 135.337,-161.732 L 135.113,-161.704 z
M 134.887,-146.704 L 134.663,-146.732 L 134.444,-146.788 L 134.234,-146.871 L 134.036,-146.98 L 133.853,-147.113
 L 133.688,-147.268 L 133.544,-147.442 L 133.423,-147.633 L 133.326,-147.837 L 133.257,-148.052 L 133.214,-148.274
 L 133.2,-148.5 L 133.214,-148.726 L 133.257,-148.948 L 133.326,-149.163 L 133.423,-149.367 L 133.544,-149.558
 L 133.688,-149.732 L 133.853,-149.887 L 134.036,-150.02 L 134.234,-150.129 L 134.444,-150.212 L 134.663,-150.268
 L 134.887,-150.296 L 135.113,-150.296 L 135.337,-150.268 L 135.556,-150.212 L 135.766,-150.129 L 135.964,-150.02
 L 136.147,-149.887 L 136.312,-149.732 L 136.456,-149.558 L 136.577,-149.367 L 136.674,-149.163 L 136.743,-148.948
 L 136.786,-148.726 L 136.8,-148.5 L 136.786,-148.274 L 136.743,-148.052 L 136.674,-147.837 L 136.577,-147.633
 L 136.456,-147.442 L 136.312,-147.268 L 136.147,-147.113 L 135.964,-146.98 L 135.766,-146.871 L 135.556,-146.788
 L 135.337,-146.732 L 135.113,-146.704 z
M -135.113,-146.704 L -135.337,-146.732 L -135.556,-146.788 L -135.766,-146.871 L -135.964,-146.98 L -136.147,-147.113
 L -136.312,-147.268 L -136.456,-147.442 L -136.577,-147.633 L -136.674,-147.837 L -136.743,-148.052 L -136.786,-148.274
 L -136.8,-148.5 L -136.786,-148.726 L -136.743,-148.948 L -136.674,-149.163 L -136.577,-149.367 L -136.456,-149.558
 L -136.312,-149.732 L -136.147,-149.887 L -135.964,-150.02 L -135.766,-150.129 L -135.556,-150.212 L -135.337,-150.268
 L -135.113,-150.296 L -134.887,-150.296 L -134.663,-150.268 L -134.444,-150.212 L -134.234,-150.129 L -134.036,-150.02
 L -133.853,-149.887 L -133.688,-149.732 L -133.544,-149.558 L -133.423,-149.367 L -133.326,-149.163 L -133.257,-148.948
 L -133.214,-148.726 L -133.2,-148.5 L -133.214,-148.274 L -133.257,-148.052 L -133.326,-147.837 L -133.423,-147.633
 L -133.544,-147.442 L -133.688,-147.268 L -133.853,-147.113 L -134.036,-146.98 L -134.234,-146.871 L -134.444,-146.788
 L -134.663,-146.732 L -134.887,-146.704 z
" stroke="black" fill="lightgray" stroke-width="0.5"/>
</svg>
