  0
SECTION
  2
BLOCKS
  0
ENDSEC
  0
SECTION
  2
ENTITIES
  0
LINE
  8
0
 10
138.437
 20
589.589
 11
139.045
 21
589.745
  0
LINE
  8
0
 10
139.045
 20
589.745
 11
139.629
 21
589.976
  0
LINE
  8
0
 10
139.629
 20
589.976
 11
140.179
 21
590.278
  0
LINE
  8
0
 10
140.179
 20
590.278
 11
140.687
 21
590.647
  0
LINE
  8
0
 10
140.687
 20
590.647
 11
141.145
 21
591.077
  0
LINE
  8
0
 10
141.145
 20
591.077
 11
141.545
 21
591.561
  0
LINE
  8
0
 10
141.545
 20
591.561
 11
141.882
 21
592.091
  0
LINE
  8
0
 10
141.882
 20
592.091
 11
142.149
 21
592.659
  0
LINE
  8
0
 10
142.149
 20
592.659
 11
142.343
 21
593.257
  0
LINE
  8
0
 10
142.343
 20
593.257
 11
142.461
 21
593.873
  0
LINE
  8
0
 10
142.461
 20
593.873
 11
142.5
 21
594.5
  0
LINE
  8
0
 10
142.5
 20
594.5
 11
142.5
 21
809.5
  0
LINE
  8
0
 10
142.5
 20
809.5
 11
142.461
 21
810.127
  0
LINE
  8
0
 10
142.461
 20
810.127
 11
142.343
 21
810.743
  0
LINE
  8
0
 10
142.343
 20
810.743
 11
142.149
 21
811.341
  0
LINE
  8
0
 10
142.149
 20
811.341
 11
141.882
 21
811.909
  0
LINE
  8
0
 10
141.882
 20
811.909
 11
141.545
 21
812.439
  0
LINE
  8
0
 10
141.545
 20
812.439
 11
141.145
 21
812.923
  0
LINE
  8
0
 10
141.145
 20
812.923
 11
140.687
 21
813.353
  0
LINE
  8
0
 10
140.687
 20
813.353
 11
140.179
 21
813.722
  0
LINE
  8
0
 10
140.179
 20
813.722
 11
139.629
 21
814.024
  0
LINE
  8
0
 10
139.629
 20
814.024
 11
139.045
 21
814.255
  0
LINE
  8
0
 10
139.045
 20
814.255
 11
138.437
 21
814.411
  0
LINE
  8
0
 10
138.437
 20
814.411
 11
137.814
 21
814.49
  0
LINE
  8
0
 10
137.814
 20
814.49
 11
-137.814
 21
814.49
  0
LINE
  8
0
 10
-137.814
 20
814.49
 11
-138.437
 21
814.411
  0
LINE
  8
0
 10
-138.437
 20
814.411
 11
-139.045
 21
814.255
  0
LINE
  8
0
 10
-139.045
 20
814.255
 11
-139.629
 21
814.024
  0
LINE
  8
0
 10
-139.629
 20
814.024
 11
-140.179
 21
813.722
  0
LINE
  8
0
 10
-140.179
 20
813.722
 11
-140.687
 21
813.353
  0
LINE
  8
0
 10
-140.687
 20
813.353
 11
-141
 21
813.059
  0
LINE
  8
0
 10
-141
 20
813.059
 11
-141
 21
814.479
  0
LINE
  8
0
 10
-141
 20
814.479
 11
-144
 21
814.479
  0
LINE
  8
0
 10
-144
 20
814.479
 11
-144
 21
589.521
  0
LINE
  8
0
 10
-144
 20
589.521
 11
-141
 21
589.521
  0
LINE
  8
0
 10
-141
 20
589.521
 11
-141
 21
590.941
  0
LINE
  8
0
 10
-141
 20
590.941
 11
-140.687
 21
590.647
  0
LINE
  8
0
 10
-140.687
 20
590.647
 11
-140.179
 21
590.278
  0
LINE
  8
0
 10
-140.179
 20
590.278
 11
-139.629
 21
589.976
  0
LINE
  8
0
 10
-139.629
 20
589.976
 11
-139.045
 21
589.745
  0
LINE
  8
0
 10
-139.045
 20
589.745
 11
-138.437
 21
589.589
  0
LINE
  8
0
 10
-138.437
 20
589.589
 11
-137.814
 21
589.51
  0
LINE
  8
0
 10
-137.814
 20
589.51
 11
137.814
 21
589.51
  0
LINE
  8
0
 10
137.814
 20
589.51
 11
138.437
 21
589.589
  0
LINE
  8
0
 10
-137.195
 20
591.893
 11
-137.583
 21
591.942
  0
LINE
  8
0
 10
-137.583
 20
591.942
 11
-137.962
 21
592.039
  0
LINE
  8
0
 10
-137.962
 20
592.039
 11
-138.325
 21
592.183
  0
LINE
  8
0
 10
-138.325
 20
592.183
 11
-138.668
 21
592.372
  0
LINE
  8
0
 10
-138.668
 20
592.372
 11
-138.984
 21
592.601
  0
LINE
  8
0
 10
-138.984
 20
592.601
 11
-139.269
 21
592.869
  0
LINE
  8
0
 10
-139.269
 20
592.869
 11
-139.518
 21
593.17
  0
LINE
  8
0
 10
-139.518
 20
593.17
 11
-139.728
 21
593.5
  0
LINE
  8
0
 10
-139.728
 20
593.5
 11
-139.894
 21
593.854
  0
LINE
  8
0
 10
-139.894
 20
593.854
 11
-140.015
 21
594.226
  0
LINE
  8
0
 10
-140.015
 20
594.226
 11
-140.088
 21
594.61
  0
LINE
  8
0
 10
-140.088
 20
594.61
 11
-140.113
 21
595
  0
LINE
  8
0
 10
-140.113
 20
595
 11
-140.113
 21
809
  0
LINE
  8
0
 10
-140.113
 20
809
 11
-140.088
 21
809.39
  0
LINE
  8
0
 10
-140.088
 20
809.39
 11
-140.015
 21
809.774
  0
LINE
  8
0
 10
-140.015
 20
809.774
 11
-139.894
 21
810.146
  0
LINE
  8
0
 10
-139.894
 20
810.146
 11
-139.728
 21
810.5
  0
LINE
  8
0
 10
-139.728
 20
810.5
 11
-139.518
 21
810.83
  0
LINE
  8
0
 10
-139.518
 20
810.83
 11
-139.269
 21
811.131
  0
LINE
  8
0
 10
-139.269
 20
811.131
 11
-138.984
 21
811.399
  0
LINE
  8
0
 10
-138.984
 20
811.399
 11
-138.668
 21
811.628
  0
LINE
  8
0
 10
-138.668
 20
811.628
 11
-138.325
 21
811.817
  0
LINE
  8
0
 10
-138.325
 20
811.817
 11
-137.962
 21
811.961
  0
LINE
  8
0
 10
-137.962
 20
811.961
 11
-137.583
 21
812.058
  0
LINE
  8
0
 10
-137.583
 20
812.058
 11
-137.195
 21
812.107
  0
LINE
  8
0
 10
-137.195
 20
812.107
 11
137.195
 21
812.107
  0
LINE
  8
0
 10
137.195
 20
812.107
 11
137.583
 21
812.058
  0
LINE
  8
0
 10
137.583
 20
812.058
 11
137.962
 21
811.961
  0
LINE
  8
0
 10
137.962
 20
811.961
 11
138.325
 21
811.817
  0
LINE
  8
0
 10
138.325
 20
811.817
 11
138.668
 21
811.628
  0
LINE
  8
0
 10
138.668
 20
811.628
 11
138.984
 21
811.399
  0
LINE
  8
0
 10
138.984
 20
811.399
 11
139.269
 21
811.131
  0
LINE
  8
0
 10
139.269
 20
811.131
 11
139.518
 21
810.83
  0
LINE
  8
0
 10
139.518
 20
810.83
 11
139.728
 21
810.5
  0
LINE
  8
0
 10
139.728
 20
810.5
 11
139.894
 21
810.146
  0
LINE
  8
0
 10
139.894
 20
810.146
 11
140.015
 21
809.774
  0
LINE
  8
0
 10
140.015
 20
809.774
 11
140.088
 21
809.39
  0
LINE
  8
0
 10
140.088
 20
809.39
 11
140.113
 21
809
  0
LINE
  8
0
 10
140.113
 20
809
 11
140.113
 21
595
  0
LINE
  8
0
 10
140.113
 20
595
 11
140.088
 21
594.61
  0
LINE
  8
0
 10
140.088
 20
594.61
 11
140.015
 21
594.226
  0
LINE
  8
0
 10
140.015
 20
594.226
 11
139.894
 21
593.854
  0
LINE
  8
0
 10
139.894
 20
593.854
 11
139.728
 21
593.5
  0
LINE
  8
0
 10
139.728
 20
593.5
 11
139.518
 21
593.17
  0
LINE
  8
0
 10
139.518
 20
593.17
 11
139.269
 21
592.869
  0
LINE
  8
0
 10
139.269
 20
592.869
 11
138.984
 21
592.601
  0
LINE
  8
0
 10
138.984
 20
592.601
 11
138.668
 21
592.372
  0
LINE
  8
0
 10
138.668
 20
592.372
 11
138.325
 21
592.183
  0
LINE
  8
0
 10
138.325
 20
592.183
 11
137.962
 21
592.039
  0
LINE
  8
0
 10
137.962
 20
592.039
 11
137.583
 21
591.942
  0
LINE
  8
0
 10
137.583
 20
591.942
 11
137.195
 21
591.893
  0
LINE
  8
0
 10
137.195
 20
591.893
 11
-137.195
 21
591.893
  0
LINE
  8
0
 10
138.437
 20
355.589
 11
139.045
 21
355.745
  0
LINE
  8
0
 10
139.045
 20
355.745
 11
139.629
 21
355.976
  0
LINE
  8
0
 10
139.629
 20
355.976
 11
140.179
 21
356.278
  0
LINE
  8
0
 10
140.179
 20
356.278
 11
140.687
 21
356.647
  0
LINE
  8
0
 10
140.687
 20
356.647
 11
141.145
 21
357.077
  0
LINE
  8
0
 10
141.145
 20
357.077
 11
141.545
 21
357.561
  0
LINE
  8
0
 10
141.545
 20
357.561
 11
141.882
 21
358.091
  0
LINE
  8
0
 10
141.882
 20
358.091
 11
142.149
 21
358.659
  0
LINE
  8
0
 10
142.149
 20
358.659
 11
142.343
 21
359.257
  0
LINE
  8
0
 10
142.343
 20
359.257
 11
142.461
 21
359.873
  0
LINE
  8
0
 10
142.461
 20
359.873
 11
142.5
 21
360.5
  0
LINE
  8
0
 10
142.5
 20
360.5
 11
142.5
 21
575.5
  0
LINE
  8
0
 10
142.5
 20
575.5
 11
142.461
 21
576.127
  0
LINE
  8
0
 10
142.461
 20
576.127
 11
142.343
 21
576.743
  0
LINE
  8
0
 10
142.343
 20
576.743
 11
142.149
 21
577.341
  0
LINE
  8
0
 10
142.149
 20
577.341
 11
141.882
 21
577.909
  0
LINE
  8
0
 10
141.882
 20
577.909
 11
141.545
 21
578.439
  0
LINE
  8
0
 10
141.545
 20
578.439
 11
141.145
 21
578.923
  0
LINE
  8
0
 10
141.145
 20
578.923
 11
140.687
 21
579.353
  0
LINE
  8
0
 10
140.687
 20
579.353
 11
140.179
 21
579.722
  0
LINE
  8
0
 10
140.179
 20
579.722
 11
139.629
 21
580.024
  0
LINE
  8
0
 10
139.629
 20
580.024
 11
139.045
 21
580.255
  0
LINE
  8
0
 10
139.045
 20
580.255
 11
138.437
 21
580.411
  0
LINE
  8
0
 10
138.437
 20
580.411
 11
137.814
 21
580.49
  0
LINE
  8
0
 10
137.814
 20
580.49
 11
-137.814
 21
580.49
  0
LINE
  8
0
 10
-137.814
 20
580.49
 11
-138.437
 21
580.411
  0
LINE
  8
0
 10
-138.437
 20
580.411
 11
-139.045
 21
580.255
  0
LINE
  8
0
 10
-139.045
 20
580.255
 11
-139.629
 21
580.024
  0
LINE
  8
0
 10
-139.629
 20
580.024
 11
-140.179
 21
579.722
  0
LINE
  8
0
 10
-140.179
 20
579.722
 11
-140.687
 21
579.353
  0
LINE
  8
0
 10
-140.687
 20
579.353
 11
-141
 21
579.059
  0
LINE
  8
0
 10
-141
 20
579.059
 11
-141
 21
579.153
  0
LINE
  8
0
 10
-141
 20
579.153
 11
-144
 21
579.153
  0
LINE
  8
0
 10
-144
 20
579.153
 11
-144
 21
356.847
  0
LINE
  8
0
 10
-144
 20
356.847
 11
-141
 21
356.847
  0
LINE
  8
0
 10
-141
 20
356.847
 11
-141
 21
356.941
  0
LINE
  8
0
 10
-141
 20
356.941
 11
-140.687
 21
356.647
  0
LINE
  8
0
 10
-140.687
 20
356.647
 11
-140.179
 21
356.278
  0
LINE
  8
0
 10
-140.179
 20
356.278
 11
-139.629
 21
355.976
  0
LINE
  8
0
 10
-139.629
 20
355.976
 11
-139.045
 21
355.745
  0
LINE
  8
0
 10
-139.045
 20
355.745
 11
-138.437
 21
355.589
  0
LINE
  8
0
 10
-138.437
 20
355.589
 11
-137.814
 21
355.51
  0
LINE
  8
0
 10
-137.814
 20
355.51
 11
137.814
 21
355.51
  0
LINE
  8
0
 10
137.814
 20
355.51
 11
138.437
 21
355.589
  0
LINE
  8
0
 10
134.866
 20
570.869
 11
134.6
 21
570.903
  0
LINE
  8
0
 10
134.6
 20
570.903
 11
134.34
 21
570.969
  0
LINE
  8
0
 10
134.34
 20
570.969
 11
134.091
 21
571.068
  0
LINE
  8
0
 10
134.091
 20
571.068
 11
133.856
 21
571.197
  0
LINE
  8
0
 10
133.856
 20
571.197
 11
133.639
 21
571.355
  0
LINE
  8
0
 10
133.639
 20
571.355
 11
133.443
 21
571.538
  0
LINE
  8
0
 10
133.443
 20
571.538
 11
133.273
 21
571.745
  0
LINE
  8
0
 10
133.273
 20
571.745
 11
133.129
 21
571.971
  0
LINE
  8
0
 10
133.129
 20
571.971
 11
133.015
 21
572.214
  0
LINE
  8
0
 10
133.015
 20
572.214
 11
132.932
 21
572.469
  0
LINE
  8
0
 10
132.932
 20
572.469
 11
132.882
 21
572.732
  0
LINE
  8
0
 10
132.882
 20
572.732
 11
132.865
 21
573
  0
LINE
  8
0
 10
132.865
 20
573
 11
132.882
 21
573.268
  0
LINE
  8
0
 10
132.882
 20
573.268
 11
132.932
 21
573.531
  0
LINE
  8
0
 10
132.932
 20
573.531
 11
133.015
 21
573.786
  0
LINE
  8
0
 10
133.015
 20
573.786
 11
133.129
 21
574.029
  0
LINE
  8
0
 10
133.129
 20
574.029
 11
133.273
 21
574.255
  0
LINE
  8
0
 10
133.273
 20
574.255
 11
133.443
 21
574.462
  0
LINE
  8
0
 10
133.443
 20
574.462
 11
133.639
 21
574.645
  0
LINE
  8
0
 10
133.639
 20
574.645
 11
133.856
 21
574.803
  0
LINE
  8
0
 10
133.856
 20
574.803
 11
134.091
 21
574.932
  0
LINE
  8
0
 10
134.091
 20
574.932
 11
134.34
 21
575.031
  0
LINE
  8
0
 10
134.34
 20
575.031
 11
134.6
 21
575.097
  0
LINE
  8
0
 10
134.6
 20
575.097
 11
134.866
 21
575.131
  0
LINE
  8
0
 10
134.866
 20
575.131
 11
135.134
 21
575.131
  0
LINE
  8
0
 10
135.134
 20
575.131
 11
135.4
 21
575.097
  0
LINE
  8
0
 10
135.4
 20
575.097
 11
135.66
 21
575.031
  0
LINE
  8
0
 10
135.66
 20
575.031
 11
135.909
 21
574.932
  0
LINE
  8
0
 10
135.909
 20
574.932
 11
136.144
 21
574.803
  0
LINE
  8
0
 10
136.144
 20
574.803
 11
136.361
 21
574.645
  0
LINE
  8
0
 10
136.361
 20
574.645
 11
136.557
 21
574.462
  0
LINE
  8
0
 10
136.557
 20
574.462
 11
136.727
 21
574.255
  0
LINE
  8
0
 10
136.727
 20
574.255
 11
136.871
 21
574.029
  0
LINE
  8
0
 10
136.871
 20
574.029
 11
136.985
 21
573.786
  0
LINE
  8
0
 10
136.985
 20
573.786
 11
137.068
 21
573.531
  0
LINE
  8
0
 10
137.068
 20
573.531
 11
137.118
 21
573.268
  0
LINE
  8
0
 10
137.118
 20
573.268
 11
137.135
 21
573
  0
LINE
  8
0
 10
137.135
 20
573
 11
137.118
 21
572.732
  0
LINE
  8
0
 10
137.118
 20
572.732
 11
137.068
 21
572.469
  0
LINE
  8
0
 10
137.068
 20
572.469
 11
136.985
 21
572.214
  0
LINE
  8
0
 10
136.985
 20
572.214
 11
136.871
 21
571.971
  0
LINE
  8
0
 10
136.871
 20
571.971
 11
136.727
 21
571.745
  0
LINE
  8
0
 10
136.727
 20
571.745
 11
136.557
 21
571.538
  0
LINE
  8
0
 10
136.557
 20
571.538
 11
136.361
 21
571.355
  0
LINE
  8
0
 10
136.361
 20
571.355
 11
136.144
 21
571.197
  0
LINE
  8
0
 10
136.144
 20
571.197
 11
135.909
 21
571.068
  0
LINE
  8
0
 10
135.909
 20
571.068
 11
135.66
 21
570.969
  0
LINE
  8
0
 10
135.66
 20
570.969
 11
135.4
 21
570.903
  0
LINE
  8
0
 10
135.4
 20
570.903
 11
135.134
 21
570.869
  0
LINE
  8
0
 10
135.134
 20
570.869
 11
134.866
 21
570.869
  0
LINE
  8
0
 10
-135.134
 20
570.869
 11
-135.4
 21
570.903
  0
LINE
  8
0
 10
-135.4
 20
570.903
 11
-135.66
 21
570.969
  0
LINE
  8
0
 10
-135.66
 20
570.969
 11
-135.909
 21
571.068
  0
LINE
  8
0
 10
-135.909
 20
571.068
 11
-136.144
 21
571.197
  0
LINE
  8
0
 10
-136.144
 20
571.197
 11
-136.361
 21
571.355
  0
LINE
  8
0
 10
-136.361
 20
571.355
 11
-136.557
 21
571.538
  0
LINE
  8
0
 10
-136.557
 20
571.538
 11
-136.727
 21
571.745
  0
LINE
  8
0
 10
-136.727
 20
571.745
 11
-136.871
 21
571.971
  0
LINE
  8
0
 10
-136.871
 20
571.971
 11
-136.985
 21
572.214
  0
LINE
  8
0
 10
-136.985
 20
572.214
 11
-137.068
 21
572.469
  0
LINE
  8
0
 10
-137.068
 20
572.469
 11
-137.118
 21
572.732
  0
LINE
  8
0
 10
-137.118
 20
572.732
 11
-137.135
 21
573
  0
LINE
  8
0
 10
-137.135
 20
573
 11
-137.118
 21
573.268
  0
LINE
  8
0
 10
-137.118
 20
573.268
 11
-137.068
 21
573.531
  0
LINE
  8
0
 10
-137.068
 20
573.531
 11
-136.985
 21
573.786
  0
LINE
  8
0
 10
-136.985
 20
573.786
 11
-136.871
 21
574.029
  0
LINE
  8
0
 10
-136.871
 20
574.029
 11
-136.727
 21
574.255
  0
LINE
  8
0
 10
-136.727
 20
574.255
 11
-136.557
 21
574.462
  0
LINE
  8
0
 10
-136.557
 20
574.462
 11
-136.361
 21
574.645
  0
LINE
  8
0
 10
-136.361
 20
574.645
 11
-136.144
 21
574.803
  0
LINE
  8
0
 10
-136.144
 20
574.803
 11
-135.909
 21
574.932
  0
LINE
  8
0
 10
-135.909
 20
574.932
 11
-135.66
 21
575.031
  0
LINE
  8
0
 10
-135.66
 20
575.031
 11
-135.4
 21
575.097
  0
LINE
  8
0
 10
-135.4
 20
575.097
 11
-135.134
 21
575.131
  0
LINE
  8
0
 10
-135.134
 20
575.131
 11
-134.866
 21
575.131
  0
LINE
  8
0
 10
-134.866
 20
575.131
 11
-134.6
 21
575.097
  0
LINE
  8
0
 10
-134.6
 20
575.097
 11
-134.34
 21
575.031
  0
LINE
  8
0
 10
-134.34
 20
575.031
 11
-134.091
 21
574.932
  0
LINE
  8
0
 10
-134.091
 20
574.932
 11
-133.856
 21
574.803
  0
LINE
  8
0
 10
-133.856
 20
574.803
 11
-133.639
 21
574.645
  0
LINE
  8
0
 10
-133.639
 20
574.645
 11
-133.443
 21
574.462
  0
LINE
  8
0
 10
-133.443
 20
574.462
 11
-133.273
 21
574.255
  0
LINE
  8
0
 10
-133.273
 20
574.255
 11
-133.129
 21
574.029
  0
LINE
  8
0
 10
-133.129
 20
574.029
 11
-133.015
 21
573.786
  0
LINE
  8
0
 10
-133.015
 20
573.786
 11
-132.932
 21
573.531
  0
LINE
  8
0
 10
-132.932
 20
573.531
 11
-132.882
 21
573.268
  0
LINE
  8
0
 10
-132.882
 20
573.268
 11
-132.865
 21
573
  0
LINE
  8
0
 10
-132.865
 20
573
 11
-132.882
 21
572.732
  0
LINE
  8
0
 10
-132.882
 20
572.732
 11
-132.932
 21
572.469
  0
LINE
  8
0
 10
-132.932
 20
572.469
 11
-133.015
 21
572.214
  0
LINE
  8
0
 10
-133.015
 20
572.214
 11
-133.129
 21
571.971
  0
LINE
  8
0
 10
-133.129
 20
571.971
 11
-133.273
 21
571.745
  0
LINE
  8
0
 10
-133.273
 20
571.745
 11
-133.443
 21
571.538
  0
LINE
  8
0
 10
-133.443
 20
571.538
 11
-133.639
 21
571.355
  0
LINE
  8
0
 10
-133.639
 20
571.355
 11
-133.856
 21
571.197
  0
LINE
  8
0
 10
-133.856
 20
571.197
 11
-134.091
 21
571.068
  0
LINE
  8
0
 10
-134.091
 20
571.068
 11
-134.34
 21
570.969
  0
LINE
  8
0
 10
-134.34
 20
570.969
 11
-134.6
 21
570.903
  0
LINE
  8
0
 10
-134.6
 20
570.903
 11
-134.866
 21
570.869
  0
LINE
  8
0
 10
-134.866
 20
570.869
 11
-135.134
 21
570.869
  0
LINE
  8
0
 10
134.866
 20
360.869
 11
134.6
 21
360.903
  0
LINE
  8
0
 10
134.6
 20
360.903
 11
134.34
 21
360.969
  0
LINE
  8
0
 10
134.34
 20
360.969
 11
134.091
 21
361.068
  0
LINE
  8
0
 10
134.091
 20
361.068
 11
133.856
 21
361.197
  0
LINE
  8
0
 10
133.856
 20
361.197
 11
133.639
 21
361.355
  0
LINE
  8
0
 10
133.639
 20
361.355
 11
133.443
 21
361.538
  0
LINE
  8
0
 10
133.443
 20
361.538
 11
133.273
 21
361.745
  0
LINE
  8
0
 10
133.273
 20
361.745
 11
133.129
 21
361.971
  0
LINE
  8
0
 10
133.129
 20
361.971
 11
133.015
 21
362.214
  0
LINE
  8
0
 10
133.015
 20
362.214
 11
132.932
 21
362.469
  0
LINE
  8
0
 10
132.932
 20
362.469
 11
132.882
 21
362.732
  0
LINE
  8
0
 10
132.882
 20
362.732
 11
132.865
 21
363
  0
LINE
  8
0
 10
132.865
 20
363
 11
132.882
 21
363.268
  0
LINE
  8
0
 10
132.882
 20
363.268
 11
132.932
 21
363.531
  0
LINE
  8
0
 10
132.932
 20
363.531
 11
133.015
 21
363.786
  0
LINE
  8
0
 10
133.015
 20
363.786
 11
133.129
 21
364.029
  0
LINE
  8
0
 10
133.129
 20
364.029
 11
133.273
 21
364.255
  0
LINE
  8
0
 10
133.273
 20
364.255
 11
133.443
 21
364.462
  0
LINE
  8
0
 10
133.443
 20
364.462
 11
133.639
 21
364.645
  0
LINE
  8
0
 10
133.639
 20
364.645
 11
133.856
 21
364.803
  0
LINE
  8
0
 10
133.856
 20
364.803
 11
134.091
 21
364.932
  0
LINE
  8
0
 10
134.091
 20
364.932
 11
134.34
 21
365.031
  0
LINE
  8
0
 10
134.34
 20
365.031
 11
134.6
 21
365.097
  0
LINE
  8
0
 10
134.6
 20
365.097
 11
134.866
 21
365.131
  0
LINE
  8
0
 10
134.866
 20
365.131
 11
135.134
 21
365.131
  0
LINE
  8
0
 10
135.134
 20
365.131
 11
135.4
 21
365.097
  0
LINE
  8
0
 10
135.4
 20
365.097
 11
135.66
 21
365.031
  0
LINE
  8
0
 10
135.66
 20
365.031
 11
135.909
 21
364.932
  0
LINE
  8
0
 10
135.909
 20
364.932
 11
136.144
 21
364.803
  0
LINE
  8
0
 10
136.144
 20
364.803
 11
136.361
 21
364.645
  0
LINE
  8
0
 10
136.361
 20
364.645
 11
136.557
 21
364.462
  0
LINE
  8
0
 10
136.557
 20
364.462
 11
136.727
 21
364.255
  0
LINE
  8
0
 10
136.727
 20
364.255
 11
136.871
 21
364.029
  0
LINE
  8
0
 10
136.871
 20
364.029
 11
136.985
 21
363.786
  0
LINE
  8
0
 10
136.985
 20
363.786
 11
137.068
 21
363.531
  0
LINE
  8
0
 10
137.068
 20
363.531
 11
137.118
 21
363.268
  0
LINE
  8
0
 10
137.118
 20
363.268
 11
137.135
 21
363
  0
LINE
  8
0
 10
137.135
 20
363
 11
137.118
 21
362.732
  0
LINE
  8
0
 10
137.118
 20
362.732
 11
137.068
 21
362.469
  0
LINE
  8
0
 10
137.068
 20
362.469
 11
136.985
 21
362.214
  0
LINE
  8
0
 10
136.985
 20
362.214
 11
136.871
 21
361.971
  0
LINE
  8
0
 10
136.871
 20
361.971
 11
136.727
 21
361.745
  0
LINE
  8
0
 10
136.727
 20
361.745
 11
136.557
 21
361.538
  0
LINE
  8
0
 10
136.557
 20
361.538
 11
136.361
 21
361.355
  0
LINE
  8
0
 10
136.361
 20
361.355
 11
136.144
 21
361.197
  0
LINE
  8
0
 10
136.144
 20
361.197
 11
135.909
 21
361.068
  0
LINE
  8
0
 10
135.909
 20
361.068
 11
135.66
 21
360.969
  0
LINE
  8
0
 10
135.66
 20
360.969
 11
135.4
 21
360.903
  0
LINE
  8
0
 10
135.4
 20
360.903
 11
135.134
 21
360.869
  0
LINE
  8
0
 10
135.134
 20
360.869
 11
134.866
 21
360.869
  0
LINE
  8
0
 10
-135.134
 20
360.869
 11
-135.4
 21
360.903
  0
LINE
  8
0
 10
-135.4
 20
360.903
 11
-135.66
 21
360.969
  0
LINE
  8
0
 10
-135.66
 20
360.969
 11
-135.909
 21
361.068
  0
LINE
  8
0
 10
-135.909
 20
361.068
 11
-136.144
 21
361.197
  0
LINE
  8
0
 10
-136.144
 20
361.197
 11
-136.361
 21
361.355
  0
LINE
  8
0
 10
-136.361
 20
361.355
 11
-136.557
 21
361.538
  0
LINE
  8
0
 10
-136.557
 20
361.538
 11
-136.727
 21
361.745
  0
LINE
  8
0
 10
-136.727
 20
361.745
 11
-136.871
 21
361.971
  0
LINE
  8
0
 10
-136.871
 20
361.971
 11
-136.985
 21
362.214
  0
LINE
  8
0
 10
-136.985
 20
362.214
 11
-137.068
 21
362.469
  0
LINE
  8
0
 10
-137.068
 20
362.469
 11
-137.118
 21
362.732
  0
LINE
  8
0
 10
-137.118
 20
362.732
 11
-137.135
 21
363
  0
LINE
  8
0
 10
-137.135
 20
363
 11
-137.118
 21
363.268
  0
LINE
  8
0
 10
-137.118
 20
363.268
 11
-137.068
 21
363.531
  0
LINE
  8
0
 10
-137.068
 20
363.531
 11
-136.985
 21
363.786
  0
LINE
  8
0
 10
-136.985
 20
363.786
 11
-136.871
 21
364.029
  0
LINE
  8
0
 10
-136.871
 20
364.029
 11
-136.727
 21
364.255
  0
LINE
  8
0
 10
-136.727
 20
364.255
 11
-136.557
 21
364.462
  0
LINE
  8
0
 10
-136.557
 20
364.462
 11
-136.361
 21
364.645
  0
LINE
  8
0
 10
-136.361
 20
364.645
 11
-136.144
 21
364.803
  0
LINE
  8
0
 10
-136.144
 20
364.803
 11
-135.909
 21
364.932
  0
LINE
  8
0
 10
-135.909
 20
364.932
 11
-135.66
 21
365.031
  0
LINE
  8
0
 10
-135.66
 20
365.031
 11
-135.4
 21
365.097
  0
LINE
  8
0
 10
-135.4
 20
365.097
 11
-135.134
 21
365.131
  0
LINE
  8
0
 10
-135.134
 20
365.131
 11
-134.866
 21
365.131
  0
LINE
  8
0
 10
-134.866
 20
365.131
 11
-134.6
 21
365.097
  0
LINE
  8
0
 10
-134.6
 20
365.097
 11
-134.34
 21
365.031
  0
LINE
  8
0
 10
-134.34
 20
365.031
 11
-134.091
 21
364.932
  0
LINE
  8
0
 10
-134.091
 20
364.932
 11
-133.856
 21
364.803
  0
LINE
  8
0
 10
-133.856
 20
364.803
 11
-133.639
 21
364.645
  0
LINE
  8
0
 10
-133.639
 20
364.645
 11
-133.443
 21
364.462
  0
LINE
  8
0
 10
-133.443
 20
364.462
 11
-133.273
 21
364.255
  0
LINE
  8
0
 10
-133.273
 20
364.255
 11
-133.129
 21
364.029
  0
LINE
  8
0
 10
-133.129
 20
364.029
 11
-133.015
 21
363.786
  0
LINE
  8
0
 10
-133.015
 20
363.786
 11
-132.932
 21
363.531
  0
LINE
  8
0
 10
-132.932
 20
363.531
 11
-132.882
 21
363.268
  0
LINE
  8
0
 10
-132.882
 20
363.268
 11
-132.865
 21
363
  0
LINE
  8
0
 10
-132.865
 20
363
 11
-132.882
 21
362.732
  0
LINE
  8
0
 10
-132.882
 20
362.732
 11
-132.932
 21
362.469
  0
LINE
  8
0
 10
-132.932
 20
362.469
 11
-133.015
 21
362.214
  0
LINE
  8
0
 10
-133.015
 20
362.214
 11
-133.129
 21
361.971
  0
LINE
  8
0
 10
-133.129
 20
361.971
 11
-133.273
 21
361.745
  0
LINE
  8
0
 10
-133.273
 20
361.745
 11
-133.443
 21
361.538
  0
LINE
  8
0
 10
-133.443
 20
361.538
 11
-133.639
 21
361.355
  0
LINE
  8
0
 10
-133.639
 20
361.355
 11
-133.856
 21
361.197
  0
LINE
  8
0
 10
-133.856
 20
361.197
 11
-134.091
 21
361.068
  0
LINE
  8
0
 10
-134.091
 20
361.068
 11
-134.34
 21
360.969
  0
LINE
  8
0
 10
-134.34
 20
360.969
 11
-134.6
 21
360.903
  0
LINE
  8
0
 10
-134.6
 20
360.903
 11
-134.866
 21
360.869
  0
LINE
  8
0
 10
-134.866
 20
360.869
 11
-135.134
 21
360.869
  0
ENDSEC
  0
SECTION
  2
OBJECTS
  0
DICTIONARY
  0
ENDSEC
  0
EOF
