  0
SECTION
  2
BLOCKS
  0
ENDSEC
  0
SECTION
  2
ENTITIES
  0
LINE
  8
0
 10
145.937
 20
63.0886
 11
146.545
 21
63.2447
  0
LINE
  8
0
 10
146.545
 20
63.2447
 11
147.129
 21
63.4759
  0
LINE
  8
0
 10
147.129
 20
63.4759
 11
147.679
 21
63.7784
  0
LINE
  8
0
 10
147.679
 20
63.7784
 11
148.187
 21
64.1474
  0
LINE
  8
0
 10
148.187
 20
64.1474
 11
148.645
 21
64.5773
  0
LINE
  8
0
 10
148.645
 20
64.5773
 11
149.045
 21
65.0611
  0
LINE
  8
0
 10
149.045
 20
65.0611
 11
149.382
 21
65.5912
  0
LINE
  8
0
 10
149.382
 20
65.5912
 11
149.649
 21
66.1594
  0
LINE
  8
0
 10
149.649
 20
66.1594
 11
149.843
 21
66.7566
  0
LINE
  8
0
 10
149.843
 20
66.7566
 11
149.961
 21
67.3733
  0
LINE
  8
0
 10
149.961
 20
67.3733
 11
150
 21
68
  0
LINE
  8
0
 10
150
 20
68
 11
150
 21
88
  0
LINE
  8
0
 10
150
 20
88
 11
149.961
 21
88.6267
  0
LINE
  8
0
 10
149.961
 20
88.6267
 11
149.843
 21
89.2434
  0
LINE
  8
0
 10
149.843
 20
89.2434
 11
149.649
 21
89.8406
  0
LINE
  8
0
 10
149.649
 20
89.8406
 11
149.382
 21
90.4088
  0
LINE
  8
0
 10
149.382
 20
90.4088
 11
149.045
 21
90.9389
  0
LINE
  8
0
 10
149.045
 20
90.9389
 11
148.645
 21
91.4227
  0
LINE
  8
0
 10
148.645
 20
91.4227
 11
148.187
 21
91.8526
  0
LINE
  8
0
 10
148.187
 20
91.8526
 11
147.679
 21
92.2216
  0
LINE
  8
0
 10
147.679
 20
92.2216
 11
147.129
 21
92.5241
  0
LINE
  8
0
 10
147.129
 20
92.5241
 11
146.545
 21
92.7553
  0
LINE
  8
0
 10
146.545
 20
92.7553
 11
145.937
 21
92.9114
  0
LINE
  8
0
 10
145.937
 20
92.9114
 11
145.314
 21
92.9901
  0
LINE
  8
0
 10
145.314
 20
92.9901
 11
-145.314
 21
92.9901
  0
LINE
  8
0
 10
-145.314
 20
92.9901
 11
-145.937
 21
92.9114
  0
LINE
  8
0
 10
-145.937
 20
92.9114
 11
-146.545
 21
92.7553
  0
LINE
  8
0
 10
-146.545
 20
92.7553
 11
-147.129
 21
92.5241
  0
LINE
  8
0
 10
-147.129
 20
92.5241
 11
-147.679
 21
92.2216
  0
LINE
  8
0
 10
-147.679
 20
92.2216
 11
-148.187
 21
91.8526
  0
LINE
  8
0
 10
-148.187
 20
91.8526
 11
-148.645
 21
91.4227
  0
LINE
  8
0
 10
-148.645
 20
91.4227
 11
-149.045
 21
90.9389
  0
LINE
  8
0
 10
-149.045
 20
90.9389
 11
-149.382
 21
90.4088
  0
LINE
  8
0
 10
-149.382
 20
90.4088
 11
-149.649
 21
89.8406
  0
LINE
  8
0
 10
-149.649
 20
89.8406
 11
-149.843
 21
89.2434
  0
LINE
  8
0
 10
-149.843
 20
89.2434
 11
-149.961
 21
88.6267
  0
LINE
  8
0
 10
-149.961
 20
88.6267
 11
-150
 21
88
  0
LINE
  8
0
 10
-150
 20
88
 11
-150
 21
68
  0
LINE
  8
0
 10
-150
 20
68
 11
-149.961
 21
67.3733
  0
LINE
  8
0
 10
-149.961
 20
67.3733
 11
-149.843
 21
66.7566
  0
LINE
  8
0
 10
-149.843
 20
66.7566
 11
-149.649
 21
66.1594
  0
LINE
  8
0
 10
-149.649
 20
66.1594
 11
-149.382
 21
65.5912
  0
LINE
  8
0
 10
-149.382
 20
65.5912
 11
-149.045
 21
65.0611
  0
LINE
  8
0
 10
-149.045
 20
65.0611
 11
-148.645
 21
64.5773
  0
LINE
  8
0
 10
-148.645
 20
64.5773
 11
-148.187
 21
64.1474
  0
LINE
  8
0
 10
-148.187
 20
64.1474
 11
-147.679
 21
63.7784
  0
LINE
  8
0
 10
-147.679
 20
63.7784
 11
-147.129
 21
63.4759
  0
LINE
  8
0
 10
-147.129
 20
63.4759
 11
-146.545
 21
63.2447
  0
LINE
  8
0
 10
-146.545
 20
63.2447
 11
-145.937
 21
63.0886
  0
LINE
  8
0
 10
-145.937
 20
63.0886
 11
-145.314
 21
63.0099
  0
LINE
  8
0
 10
-145.314
 20
63.0099
 11
145.314
 21
63.0099
  0
LINE
  8
0
 10
145.314
 20
63.0099
 11
145.937
 21
63.0886
  0
LINE
  8
0
 10
-144.993
 20
64.3882
 11
-145.475
 21
64.4491
  0
LINE
  8
0
 10
-145.475
 20
64.4491
 11
-145.946
 21
64.5699
  0
LINE
  8
0
 10
-145.946
 20
64.5699
 11
-146.398
 21
64.7488
  0
LINE
  8
0
 10
-146.398
 20
64.7488
 11
-146.823
 21
64.9829
  0
LINE
  8
0
 10
-146.823
 20
64.9829
 11
-147.216
 21
65.2685
  0
LINE
  8
0
 10
-147.216
 20
65.2685
 11
-147.571
 21
65.6012
  0
LINE
  8
0
 10
-147.571
 20
65.6012
 11
-147.88
 21
65.9756
  0
LINE
  8
0
 10
-147.88
 20
65.9756
 11
-148.141
 21
66.3859
  0
LINE
  8
0
 10
-148.141
 20
66.3859
 11
-148.348
 21
66.8256
  0
LINE
  8
0
 10
-148.348
 20
66.8256
 11
-148.498
 21
67.2877
  0
LINE
  8
0
 10
-148.498
 20
67.2877
 11
-148.589
 21
67.765
  0
LINE
  8
0
 10
-148.589
 20
67.765
 11
-148.619
 21
68.25
  0
LINE
  8
0
 10
-148.619
 20
68.25
 11
-148.619
 21
87.75
  0
LINE
  8
0
 10
-148.619
 20
87.75
 11
-148.589
 21
88.235
  0
LINE
  8
0
 10
-148.589
 20
88.235
 11
-148.498
 21
88.7123
  0
LINE
  8
0
 10
-148.498
 20
88.7123
 11
-148.348
 21
89.1744
  0
LINE
  8
0
 10
-148.348
 20
89.1744
 11
-148.141
 21
89.6141
  0
LINE
  8
0
 10
-148.141
 20
89.6141
 11
-147.88
 21
90.0244
  0
LINE
  8
0
 10
-147.88
 20
90.0244
 11
-147.571
 21
90.3988
  0
LINE
  8
0
 10
-147.571
 20
90.3988
 11
-147.216
 21
90.7315
  0
LINE
  8
0
 10
-147.216
 20
90.7315
 11
-146.823
 21
91.0171
  0
LINE
  8
0
 10
-146.823
 20
91.0171
 11
-146.398
 21
91.2512
  0
LINE
  8
0
 10
-146.398
 20
91.2512
 11
-145.946
 21
91.4301
  0
LINE
  8
0
 10
-145.946
 20
91.4301
 11
-145.475
 21
91.5509
  0
LINE
  8
0
 10
-145.475
 20
91.5509
 11
-144.993
 21
91.6118
  0
LINE
  8
0
 10
-144.993
 20
91.6118
 11
144.993
 21
91.6118
  0
LINE
  8
0
 10
144.993
 20
91.6118
 11
145.475
 21
91.5509
  0
LINE
  8
0
 10
145.475
 20
91.5509
 11
145.946
 21
91.4301
  0
LINE
  8
0
 10
145.946
 20
91.4301
 11
146.398
 21
91.2512
  0
LINE
  8
0
 10
146.398
 20
91.2512
 11
146.823
 21
91.0171
  0
LINE
  8
0
 10
146.823
 20
91.0171
 11
147.216
 21
90.7315
  0
LINE
  8
0
 10
147.216
 20
90.7315
 11
147.571
 21
90.3988
  0
LINE
  8
0
 10
147.571
 20
90.3988
 11
147.88
 21
90.0244
  0
LINE
  8
0
 10
147.88
 20
90.0244
 11
148.141
 21
89.6141
  0
LINE
  8
0
 10
148.141
 20
89.6141
 11
148.348
 21
89.1744
  0
LINE
  8
0
 10
148.348
 20
89.1744
 11
148.498
 21
88.7123
  0
LINE
  8
0
 10
148.498
 20
88.7123
 11
148.589
 21
88.235
  0
LINE
  8
0
 10
148.589
 20
88.235
 11
148.619
 21
87.75
  0
LINE
  8
0
 10
148.619
 20
87.75
 11
148.619
 21
68.25
  0
LINE
  8
0
 10
148.619
 20
68.25
 11
148.589
 21
67.765
  0
LINE
  8
0
 10
148.589
 20
67.765
 11
148.498
 21
67.2877
  0
LINE
  8
0
 10
148.498
 20
67.2877
 11
148.348
 21
66.8256
  0
LINE
  8
0
 10
148.348
 20
66.8256
 11
148.141
 21
66.3859
  0
LINE
  8
0
 10
148.141
 20
66.3859
 11
147.88
 21
65.9756
  0
LINE
  8
0
 10
147.88
 20
65.9756
 11
147.571
 21
65.6012
  0
LINE
  8
0
 10
147.571
 20
65.6012
 11
147.216
 21
65.2685
  0
LINE
  8
0
 10
147.216
 20
65.2685
 11
146.823
 21
64.9829
  0
LINE
  8
0
 10
146.823
 20
64.9829
 11
146.398
 21
64.7488
  0
LINE
  8
0
 10
146.398
 20
64.7488
 11
145.946
 21
64.5699
  0
LINE
  8
0
 10
145.946
 20
64.5699
 11
145.475
 21
64.4491
  0
LINE
  8
0
 10
145.475
 20
64.4491
 11
144.993
 21
64.3882
  0
LINE
  8
0
 10
144.993
 20
64.3882
 11
-144.993
 21
64.3882
  0
LINE
  8
0
 10
145.937
 20
24.0886
 11
146.545
 21
24.2447
  0
LINE
  8
0
 10
146.545
 20
24.2447
 11
147.129
 21
24.4759
  0
LINE
  8
0
 10
147.129
 20
24.4759
 11
147.679
 21
24.7784
  0
LINE
  8
0
 10
147.679
 20
24.7784
 11
148.187
 21
25.1474
  0
LINE
  8
0
 10
148.187
 20
25.1474
 11
148.645
 21
25.5773
  0
LINE
  8
0
 10
148.645
 20
25.5773
 11
149.045
 21
26.0611
  0
LINE
  8
0
 10
149.045
 20
26.0611
 11
149.382
 21
26.5912
  0
LINE
  8
0
 10
149.382
 20
26.5912
 11
149.649
 21
27.1594
  0
LINE
  8
0
 10
149.649
 20
27.1594
 11
149.843
 21
27.7566
  0
LINE
  8
0
 10
149.843
 20
27.7566
 11
149.961
 21
28.3733
  0
LINE
  8
0
 10
149.961
 20
28.3733
 11
150
 21
29
  0
LINE
  8
0
 10
150
 20
29
 11
150
 21
49
  0
LINE
  8
0
 10
150
 20
49
 11
149.961
 21
49.6267
  0
LINE
  8
0
 10
149.961
 20
49.6267
 11
149.843
 21
50.2434
  0
LINE
  8
0
 10
149.843
 20
50.2434
 11
149.649
 21
50.8406
  0
LINE
  8
0
 10
149.649
 20
50.8406
 11
149.382
 21
51.4088
  0
LINE
  8
0
 10
149.382
 20
51.4088
 11
149.045
 21
51.9389
  0
LINE
  8
0
 10
149.045
 20
51.9389
 11
148.645
 21
52.4227
  0
LINE
  8
0
 10
148.645
 20
52.4227
 11
148.187
 21
52.8526
  0
LINE
  8
0
 10
148.187
 20
52.8526
 11
147.679
 21
53.2216
  0
LINE
  8
0
 10
147.679
 20
53.2216
 11
147.129
 21
53.5241
  0
LINE
  8
0
 10
147.129
 20
53.5241
 11
146.545
 21
53.7553
  0
LINE
  8
0
 10
146.545
 20
53.7553
 11
145.937
 21
53.9114
  0
LINE
  8
0
 10
145.937
 20
53.9114
 11
145.314
 21
53.9901
  0
LINE
  8
0
 10
145.314
 20
53.9901
 11
-145.314
 21
53.9901
  0
LINE
  8
0
 10
-145.314
 20
53.9901
 11
-145.937
 21
53.9114
  0
LINE
  8
0
 10
-145.937
 20
53.9114
 11
-146.545
 21
53.7553
  0
LINE
  8
0
 10
-146.545
 20
53.7553
 11
-147.129
 21
53.5241
  0
LINE
  8
0
 10
-147.129
 20
53.5241
 11
-147.679
 21
53.2216
  0
LINE
  8
0
 10
-147.679
 20
53.2216
 11
-148.187
 21
52.8526
  0
LINE
  8
0
 10
-148.187
 20
52.8526
 11
-148.645
 21
52.4227
  0
LINE
  8
0
 10
-148.645
 20
52.4227
 11
-149.045
 21
51.9389
  0
LINE
  8
0
 10
-149.045
 20
51.9389
 11
-149.382
 21
51.4088
  0
LINE
  8
0
 10
-149.382
 20
51.4088
 11
-149.649
 21
50.8406
  0
LINE
  8
0
 10
-149.649
 20
50.8406
 11
-149.843
 21
50.2434
  0
LINE
  8
0
 10
-149.843
 20
50.2434
 11
-149.961
 21
49.6267
  0
LINE
  8
0
 10
-149.961
 20
49.6267
 11
-150
 21
49
  0
LINE
  8
0
 10
-150
 20
49
 11
-150
 21
29
  0
LINE
  8
0
 10
-150
 20
29
 11
-149.961
 21
28.3733
  0
LINE
  8
0
 10
-149.961
 20
28.3733
 11
-149.843
 21
27.7566
  0
LINE
  8
0
 10
-149.843
 20
27.7566
 11
-149.649
 21
27.1594
  0
LINE
  8
0
 10
-149.649
 20
27.1594
 11
-149.382
 21
26.5912
  0
LINE
  8
0
 10
-149.382
 20
26.5912
 11
-149.045
 21
26.0611
  0
LINE
  8
0
 10
-149.045
 20
26.0611
 11
-148.645
 21
25.5773
  0
LINE
  8
0
 10
-148.645
 20
25.5773
 11
-148.187
 21
25.1474
  0
LINE
  8
0
 10
-148.187
 20
25.1474
 11
-147.679
 21
24.7784
  0
LINE
  8
0
 10
-147.679
 20
24.7784
 11
-147.129
 21
24.4759
  0
LINE
  8
0
 10
-147.129
 20
24.4759
 11
-146.545
 21
24.2447
  0
LINE
  8
0
 10
-146.545
 20
24.2447
 11
-145.937
 21
24.0886
  0
LINE
  8
0
 10
-145.937
 20
24.0886
 11
-145.314
 21
24.0099
  0
LINE
  8
0
 10
-145.314
 20
24.0099
 11
145.314
 21
24.0099
  0
LINE
  8
0
 10
145.314
 20
24.0099
 11
145.937
 21
24.0886
  0
LINE
  8
0
 10
142.387
 20
44.7036
 11
142.163
 21
44.7319
  0
LINE
  8
0
 10
142.163
 20
44.7319
 11
141.944
 21
44.7881
  0
LINE
  8
0
 10
141.944
 20
44.7881
 11
141.734
 21
44.8713
  0
LINE
  8
0
 10
141.734
 20
44.8713
 11
141.536
 21
44.9802
  0
LINE
  8
0
 10
141.536
 20
44.9802
 11
141.353
 21
45.1131
  0
LINE
  8
0
 10
141.353
 20
45.1131
 11
141.188
 21
45.2678
  0
LINE
  8
0
 10
141.188
 20
45.2678
 11
141.044
 21
45.442
  0
LINE
  8
0
 10
141.044
 20
45.442
 11
140.923
 21
45.6328
  0
LINE
  8
0
 10
140.923
 20
45.6328
 11
140.826
 21
45.8374
  0
LINE
  8
0
 10
140.826
 20
45.8374
 11
140.757
 21
46.0524
  0
LINE
  8
0
 10
140.757
 20
46.0524
 11
140.714
 21
46.2744
  0
LINE
  8
0
 10
140.714
 20
46.2744
 11
140.7
 21
46.5
  0
LINE
  8
0
 10
140.7
 20
46.5
 11
140.714
 21
46.7256
  0
LINE
  8
0
 10
140.714
 20
46.7256
 11
140.757
 21
46.9476
  0
LINE
  8
0
 10
140.757
 20
46.9476
 11
140.826
 21
47.1626
  0
LINE
  8
0
 10
140.826
 20
47.1626
 11
140.923
 21
47.3671
  0
LINE
  8
0
 10
140.923
 20
47.3671
 11
141.044
 21
47.558
  0
LINE
  8
0
 10
141.044
 20
47.558
 11
141.188
 21
47.7322
  0
LINE
  8
0
 10
141.188
 20
47.7322
 11
141.353
 21
47.8869
  0
LINE
  8
0
 10
141.353
 20
47.8869
 11
141.536
 21
48.0198
  0
LINE
  8
0
 10
141.536
 20
48.0198
 11
141.734
 21
48.1287
  0
LINE
  8
0
 10
141.734
 20
48.1287
 11
141.944
 21
48.2119
  0
LINE
  8
0
 10
141.944
 20
48.2119
 11
142.163
 21
48.2681
  0
LINE
  8
0
 10
142.163
 20
48.2681
 11
142.387
 21
48.2964
  0
LINE
  8
0
 10
142.387
 20
48.2964
 11
142.613
 21
48.2964
  0
LINE
  8
0
 10
142.613
 20
48.2964
 11
142.837
 21
48.2681
  0
LINE
  8
0
 10
142.837
 20
48.2681
 11
143.056
 21
48.2119
  0
LINE
  8
0
 10
143.056
 20
48.2119
 11
143.266
 21
48.1287
  0
LINE
  8
0
 10
143.266
 20
48.1287
 11
143.464
 21
48.0198
  0
LINE
  8
0
 10
143.464
 20
48.0198
 11
143.647
 21
47.8869
  0
LINE
  8
0
 10
143.647
 20
47.8869
 11
143.812
 21
47.7322
  0
LINE
  8
0
 10
143.812
 20
47.7322
 11
143.956
 21
47.558
  0
LINE
  8
0
 10
143.956
 20
47.558
 11
144.077
 21
47.3671
  0
LINE
  8
0
 10
144.077
 20
47.3671
 11
144.174
 21
47.1626
  0
LINE
  8
0
 10
144.174
 20
47.1626
 11
144.243
 21
46.9476
  0
LINE
  8
0
 10
144.243
 20
46.9476
 11
144.286
 21
46.7256
  0
LINE
  8
0
 10
144.286
 20
46.7256
 11
144.3
 21
46.5
  0
LINE
  8
0
 10
144.3
 20
46.5
 11
144.286
 21
46.2744
  0
LINE
  8
0
 10
144.286
 20
46.2744
 11
144.243
 21
46.0524
  0
LINE
  8
0
 10
144.243
 20
46.0524
 11
144.174
 21
45.8374
  0
LINE
  8
0
 10
144.174
 20
45.8374
 11
144.077
 21
45.6328
  0
LINE
  8
0
 10
144.077
 20
45.6328
 11
143.956
 21
45.442
  0
LINE
  8
0
 10
143.956
 20
45.442
 11
143.812
 21
45.2678
  0
LINE
  8
0
 10
143.812
 20
45.2678
 11
143.647
 21
45.1131
  0
LINE
  8
0
 10
143.647
 20
45.1131
 11
143.464
 21
44.9802
  0
LINE
  8
0
 10
143.464
 20
44.9802
 11
143.266
 21
44.8713
  0
LINE
  8
0
 10
143.266
 20
44.8713
 11
143.056
 21
44.7881
  0
LINE
  8
0
 10
143.056
 20
44.7881
 11
142.837
 21
44.7319
  0
LINE
  8
0
 10
142.837
 20
44.7319
 11
142.613
 21
44.7036
  0
LINE
  8
0
 10
142.613
 20
44.7036
 11
142.387
 21
44.7036
  0
LINE
  8
0
 10
-142.613
 20
44.7036
 11
-142.837
 21
44.7319
  0
LINE
  8
0
 10
-142.837
 20
44.7319
 11
-143.056
 21
44.7881
  0
LINE
  8
0
 10
-143.056
 20
44.7881
 11
-143.266
 21
44.8713
  0
LINE
  8
0
 10
-143.266
 20
44.8713
 11
-143.464
 21
44.9802
  0
LINE
  8
0
 10
-143.464
 20
44.9802
 11
-143.647
 21
45.1131
  0
LINE
  8
0
 10
-143.647
 20
45.1131
 11
-143.812
 21
45.2678
  0
LINE
  8
0
 10
-143.812
 20
45.2678
 11
-143.956
 21
45.442
  0
LINE
  8
0
 10
-143.956
 20
45.442
 11
-144.077
 21
45.6328
  0
LINE
  8
0
 10
-144.077
 20
45.6328
 11
-144.174
 21
45.8374
  0
LINE
  8
0
 10
-144.174
 20
45.8374
 11
-144.243
 21
46.0524
  0
LINE
  8
0
 10
-144.243
 20
46.0524
 11
-144.286
 21
46.2744
  0
LINE
  8
0
 10
-144.286
 20
46.2744
 11
-144.3
 21
46.5
  0
LINE
  8
0
 10
-144.3
 20
46.5
 11
-144.286
 21
46.7256
  0
LINE
  8
0
 10
-144.286
 20
46.7256
 11
-144.243
 21
46.9476
  0
LINE
  8
0
 10
-144.243
 20
46.9476
 11
-144.174
 21
47.1626
  0
LINE
  8
0
 10
-144.174
 20
47.1626
 11
-144.077
 21
47.3671
  0
LINE
  8
0
 10
-144.077
 20
47.3671
 11
-143.956
 21
47.558
  0
LINE
  8
0
 10
-143.956
 20
47.558
 11
-143.812
 21
47.7322
  0
LINE
  8
0
 10
-143.812
 20
47.7322
 11
-143.647
 21
47.8869
  0
LINE
  8
0
 10
-143.647
 20
47.8869
 11
-143.464
 21
48.0198
  0
LINE
  8
0
 10
-143.464
 20
48.0198
 11
-143.266
 21
48.1287
  0
LINE
  8
0
 10
-143.266
 20
48.1287
 11
-143.056
 21
48.2119
  0
LINE
  8
0
 10
-143.056
 20
48.2119
 11
-142.837
 21
48.2681
  0
LINE
  8
0
 10
-142.837
 20
48.2681
 11
-142.613
 21
48.2964
  0
LINE
  8
0
 10
-142.613
 20
48.2964
 11
-142.387
 21
48.2964
  0
LINE
  8
0
 10
-142.387
 20
48.2964
 11
-142.163
 21
48.2681
  0
LINE
  8
0
 10
-142.163
 20
48.2681
 11
-141.944
 21
48.2119
  0
LINE
  8
0
 10
-141.944
 20
48.2119
 11
-141.734
 21
48.1287
  0
LINE
  8
0
 10
-141.734
 20
48.1287
 11
-141.536
 21
48.0198
  0
LINE
  8
0
 10
-141.536
 20
48.0198
 11
-141.353
 21
47.8869
  0
LINE
  8
0
 10
-141.353
 20
47.8869
 11
-141.188
 21
47.7322
  0
LINE
  8
0
 10
-141.188
 20
47.7322
 11
-141.044
 21
47.558
  0
LINE
  8
0
 10
-141.044
 20
47.558
 11
-140.923
 21
47.3671
  0
LINE
  8
0
 10
-140.923
 20
47.3671
 11
-140.826
 21
47.1626
  0
LINE
  8
0
 10
-140.826
 20
47.1626
 11
-140.757
 21
46.9476
  0
LINE
  8
0
 10
-140.757
 20
46.9476
 11
-140.714
 21
46.7256
  0
LINE
  8
0
 10
-140.714
 20
46.7256
 11
-140.7
 21
46.5
  0
LINE
  8
0
 10
-140.7
 20
46.5
 11
-140.714
 21
46.2744
  0
LINE
  8
0
 10
-140.714
 20
46.2744
 11
-140.757
 21
46.0524
  0
LINE
  8
0
 10
-140.757
 20
46.0524
 11
-140.826
 21
45.8374
  0
LINE
  8
0
 10
-140.826
 20
45.8374
 11
-140.923
 21
45.6328
  0
LINE
  8
0
 10
-140.923
 20
45.6328
 11
-141.044
 21
45.442
  0
LINE
  8
0
 10
-141.044
 20
45.442
 11
-141.188
 21
45.2678
  0
LINE
  8
0
 10
-141.188
 20
45.2678
 11
-141.353
 21
45.1131
  0
LINE
  8
0
 10
-141.353
 20
45.1131
 11
-141.536
 21
44.9802
  0
LINE
  8
0
 10
-141.536
 20
44.9802
 11
-141.734
 21
44.8713
  0
LINE
  8
0
 10
-141.734
 20
44.8713
 11
-141.944
 21
44.7881
  0
LINE
  8
0
 10
-141.944
 20
44.7881
 11
-142.163
 21
44.7319
  0
LINE
  8
0
 10
-142.163
 20
44.7319
 11
-142.387
 21
44.7036
  0
LINE
  8
0
 10
-142.387
 20
44.7036
 11
-142.613
 21
44.7036
  0
LINE
  8
0
 10
142.387
 20
29.7036
 11
142.163
 21
29.7319
  0
LINE
  8
0
 10
142.163
 20
29.7319
 11
141.944
 21
29.7881
  0
LINE
  8
0
 10
141.944
 20
29.7881
 11
141.734
 21
29.8713
  0
LINE
  8
0
 10
141.734
 20
29.8713
 11
141.536
 21
29.9802
  0
LINE
  8
0
 10
141.536
 20
29.9802
 11
141.353
 21
30.1131
  0
LINE
  8
0
 10
141.353
 20
30.1131
 11
141.188
 21
30.2678
  0
LINE
  8
0
 10
141.188
 20
30.2678
 11
141.044
 21
30.442
  0
LINE
  8
0
 10
141.044
 20
30.442
 11
140.923
 21
30.6329
  0
LINE
  8
0
 10
140.923
 20
30.6329
 11
140.826
 21
30.8374
  0
LINE
  8
0
 10
140.826
 20
30.8374
 11
140.757
 21
31.0524
  0
LINE
  8
0
 10
140.757
 20
31.0524
 11
140.714
 21
31.2744
  0
LINE
  8
0
 10
140.714
 20
31.2744
 11
140.7
 21
31.5
  0
LINE
  8
0
 10
140.7
 20
31.5
 11
140.714
 21
31.7256
  0
LINE
  8
0
 10
140.714
 20
31.7256
 11
140.757
 21
31.9476
  0
LINE
  8
0
 10
140.757
 20
31.9476
 11
140.826
 21
32.1626
  0
LINE
  8
0
 10
140.826
 20
32.1626
 11
140.923
 21
32.3672
  0
LINE
  8
0
 10
140.923
 20
32.3672
 11
141.044
 21
32.558
  0
LINE
  8
0
 10
141.044
 20
32.558
 11
141.188
 21
32.7322
  0
LINE
  8
0
 10
141.188
 20
32.7322
 11
141.353
 21
32.8869
  0
LINE
  8
0
 10
141.353
 20
32.8869
 11
141.536
 21
33.0198
  0
LINE
  8
0
 10
141.536
 20
33.0198
 11
141.734
 21
33.1287
  0
LINE
  8
0
 10
141.734
 20
33.1287
 11
141.944
 21
33.2119
  0
LINE
  8
0
 10
141.944
 20
33.2119
 11
142.163
 21
33.2681
  0
LINE
  8
0
 10
142.163
 20
33.2681
 11
142.387
 21
33.2964
  0
LINE
  8
0
 10
142.387
 20
33.2964
 11
142.613
 21
33.2964
  0
LINE
  8
0
 10
142.613
 20
33.2964
 11
142.837
 21
33.2681
  0
LINE
  8
0
 10
142.837
 20
33.2681
 11
143.056
 21
33.2119
  0
LINE
  8
0
 10
143.056
 20
33.2119
 11
143.266
 21
33.1287
  0
LINE
  8
0
 10
143.266
 20
33.1287
 11
143.464
 21
33.0198
  0
LINE
  8
0
 10
143.464
 20
33.0198
 11
143.647
 21
32.8869
  0
LINE
  8
0
 10
143.647
 20
32.8869
 11
143.812
 21
32.7322
  0
LINE
  8
0
 10
143.812
 20
32.7322
 11
143.956
 21
32.558
  0
LINE
  8
0
 10
143.956
 20
32.558
 11
144.077
 21
32.3672
  0
LINE
  8
0
 10
144.077
 20
32.3672
 11
144.174
 21
32.1626
  0
LINE
  8
0
 10
144.174
 20
32.1626
 11
144.243
 21
31.9476
  0
LINE
  8
0
 10
144.243
 20
31.9476
 11
144.286
 21
31.7256
  0
LINE
  8
0
 10
144.286
 20
31.7256
 11
144.3
 21
31.5
  0
LINE
  8
0
 10
144.3
 20
31.5
 11
144.286
 21
31.2744
  0
LINE
  8
0
 10
144.286
 20
31.2744
 11
144.243
 21
31.0524
  0
LINE
  8
0
 10
144.243
 20
31.0524
 11
144.174
 21
30.8374
  0
LINE
  8
0
 10
144.174
 20
30.8374
 11
144.077
 21
30.6329
  0
LINE
  8
0
 10
144.077
 20
30.6329
 11
143.956
 21
30.442
  0
LINE
  8
0
 10
143.956
 20
30.442
 11
143.812
 21
30.2678
  0
LINE
  8
0
 10
143.812
 20
30.2678
 11
143.647
 21
30.1131
  0
LINE
  8
0
 10
143.647
 20
30.1131
 11
143.464
 21
29.9802
  0
LINE
  8
0
 10
143.464
 20
29.9802
 11
143.266
 21
29.8713
  0
LINE
  8
0
 10
143.266
 20
29.8713
 11
143.056
 21
29.7881
  0
LINE
  8
0
 10
143.056
 20
29.7881
 11
142.837
 21
29.7319
  0
LINE
  8
0
 10
142.837
 20
29.7319
 11
142.613
 21
29.7036
  0
LINE
  8
0
 10
142.613
 20
29.7036
 11
142.387
 21
29.7036
  0
LINE
  8
0
 10
-142.613
 20
29.7036
 11
-142.837
 21
29.7319
  0
LINE
  8
0
 10
-142.837
 20
29.7319
 11
-143.056
 21
29.7881
  0
LINE
  8
0
 10
-143.056
 20
29.7881
 11
-143.266
 21
29.8713
  0
LINE
  8
0
 10
-143.266
 20
29.8713
 11
-143.464
 21
29.9802
  0
LINE
  8
0
 10
-143.464
 20
29.9802
 11
-143.647
 21
30.1131
  0
LINE
  8
0
 10
-143.647
 20
30.1131
 11
-143.812
 21
30.2678
  0
LINE
  8
0
 10
-143.812
 20
30.2678
 11
-143.956
 21
30.442
  0
LINE
  8
0
 10
-143.956
 20
30.442
 11
-144.077
 21
30.6329
  0
LINE
  8
0
 10
-144.077
 20
30.6329
 11
-144.174
 21
30.8374
  0
LINE
  8
0
 10
-144.174
 20
30.8374
 11
-144.243
 21
31.0524
  0
LINE
  8
0
 10
-144.243
 20
31.0524
 11
-144.286
 21
31.2744
  0
LINE
  8
0
 10
-144.286
 20
31.2744
 11
-144.3
 21
31.5
  0
LINE
  8
0
 10
-144.3
 20
31.5
 11
-144.286
 21
31.7256
  0
LINE
  8
0
 10
-144.286
 20
31.7256
 11
-144.243
 21
31.9476
  0
LINE
  8
0
 10
-144.243
 20
31.9476
 11
-144.174
 21
32.1626
  0
LINE
  8
0
 10
-144.174
 20
32.1626
 11
-144.077
 21
32.3672
  0
LINE
  8
0
 10
-144.077
 20
32.3672
 11
-143.956
 21
32.558
  0
LINE
  8
0
 10
-143.956
 20
32.558
 11
-143.812
 21
32.7322
  0
LINE
  8
0
 10
-143.812
 20
32.7322
 11
-143.647
 21
32.8869
  0
LINE
  8
0
 10
-143.647
 20
32.8869
 11
-143.464
 21
33.0198
  0
LINE
  8
0
 10
-143.464
 20
33.0198
 11
-143.266
 21
33.1287
  0
LINE
  8
0
 10
-143.266
 20
33.1287
 11
-143.056
 21
33.2119
  0
LINE
  8
0
 10
-143.056
 20
33.2119
 11
-142.837
 21
33.2681
  0
LINE
  8
0
 10
-142.837
 20
33.2681
 11
-142.613
 21
33.2964
  0
LINE
  8
0
 10
-142.613
 20
33.2964
 11
-142.387
 21
33.2964
  0
LINE
  8
0
 10
-142.387
 20
33.2964
 11
-142.163
 21
33.2681
  0
LINE
  8
0
 10
-142.163
 20
33.2681
 11
-141.944
 21
33.2119
  0
LINE
  8
0
 10
-141.944
 20
33.2119
 11
-141.734
 21
33.1287
  0
LINE
  8
0
 10
-141.734
 20
33.1287
 11
-141.536
 21
33.0198
  0
LINE
  8
0
 10
-141.536
 20
33.0198
 11
-141.353
 21
32.8869
  0
LINE
  8
0
 10
-141.353
 20
32.8869
 11
-141.188
 21
32.7322
  0
LINE
  8
0
 10
-141.188
 20
32.7322
 11
-141.044
 21
32.558
  0
LINE
  8
0
 10
-141.044
 20
32.558
 11
-140.923
 21
32.3672
  0
LINE
  8
0
 10
-140.923
 20
32.3672
 11
-140.826
 21
32.1626
  0
LINE
  8
0
 10
-140.826
 20
32.1626
 11
-140.757
 21
31.9476
  0
LINE
  8
0
 10
-140.757
 20
31.9476
 11
-140.714
 21
31.7256
  0
LINE
  8
0
 10
-140.714
 20
31.7256
 11
-140.7
 21
31.5
  0
LINE
  8
0
 10
-140.7
 20
31.5
 11
-140.714
 21
31.2744
  0
LINE
  8
0
 10
-140.714
 20
31.2744
 11
-140.757
 21
31.0524
  0
LINE
  8
0
 10
-140.757
 20
31.0524
 11
-140.826
 21
30.8374
  0
LINE
  8
0
 10
-140.826
 20
30.8374
 11
-140.923
 21
30.6329
  0
LINE
  8
0
 10
-140.923
 20
30.6329
 11
-141.044
 21
30.442
  0
LINE
  8
0
 10
-141.044
 20
30.442
 11
-141.188
 21
30.2678
  0
LINE
  8
0
 10
-141.188
 20
30.2678
 11
-141.353
 21
30.1131
  0
LINE
  8
0
 10
-141.353
 20
30.1131
 11
-141.536
 21
29.9802
  0
LINE
  8
0
 10
-141.536
 20
29.9802
 11
-141.734
 21
29.8713
  0
LINE
  8
0
 10
-141.734
 20
29.8713
 11
-141.944
 21
29.7881
  0
LINE
  8
0
 10
-141.944
 20
29.7881
 11
-142.163
 21
29.7319
  0
LINE
  8
0
 10
-142.163
 20
29.7319
 11
-142.387
 21
29.7036
  0
LINE
  8
0
 10
-142.387
 20
29.7036
 11
-142.613
 21
29.7036
  0
ENDSEC
  0
SECTION
  2
OBJECTS
  0
DICTIONARY
  0
ENDSEC
  0
EOF
