<?xml version="1.0" standalone="no"?>
<!DOCTYPE svg PUBLIC "-//W3C//DTD SVG 1.1//EN" "http://www.w3.org/Graphics/SVG/1.1/DTD/svg11.dtd">
<svg width="287mm" height="1012mm" viewBox="-144 -1934 287 1012" xmlns="http://www.w3.org/2000/svg" version="1.1">
<title>OpenSCAD Model</title>
<path d="
M -141,-1739.94 L -140.687,-1739.65 L -140.179,-1739.28 L -139.629,-1738.98 L -139.045,-1738.74 L -138.437,-1738.59
 L -137.814,-1738.51 L 137.814,-1738.51 L 138.437,-1738.59 L 139.045,-1738.74 L 139.629,-1738.98 L 140.179,-1739.28
 L 140.687,-1739.65 L 141.145,-1740.08 L 141.545,-1740.56 L 141.882,-1741.09 L 142.149,-1741.66 L 142.343,-1742.26
 L 142.461,-1742.87 L 142.5,-1743.5 L 142.5,-1928.5 L 142.461,-1929.13 L 142.343,-1929.74 L 142.149,-1930.34
 L 141.882,-1930.91 L 141.545,-1931.44 L 141.145,-1931.92 L 140.687,-1932.35 L 140.179,-1932.72 L 139.629,-1933.02
 L 139.045,-1933.26 L 138.437,-1933.41 L 137.814,-1933.49 L -137.814,-1933.49 L -138.437,-1933.41 L -139.045,-1933.26
 L -139.629,-1933.02 L -140.179,-1932.72 L -140.687,-1932.35 L -141,-1932.06 L -141,-1933.49 L -144,-1933.49
 L -144,-1738.51 L -141,-1738.51 z
M -137.251,-1740.01 L -137.75,-1740.07 L -138.236,-1740.2 L -138.703,-1740.38 L -139.143,-1740.62 L -139.55,-1740.92
 L -139.916,-1741.26 L -140.236,-1741.65 L -140.505,-1742.07 L -140.719,-1742.53 L -140.874,-1743.01 L -140.968,-1743.5
 L -141,-1744 L -141,-1928 L -140.968,-1928.5 L -140.874,-1928.99 L -140.719,-1929.47 L -140.505,-1929.93
 L -140.236,-1930.35 L -139.916,-1930.74 L -139.55,-1931.08 L -139.143,-1931.38 L -138.703,-1931.62 L -138.236,-1931.8
 L -137.75,-1931.93 L -137.251,-1931.99 L 137.251,-1931.99 L 137.75,-1931.93 L 138.236,-1931.8 L 138.703,-1931.62
 L 139.143,-1931.38 L 139.55,-1931.08 L 139.916,-1930.74 L 140.236,-1930.35 L 140.505,-1929.93 L 140.719,-1929.47
 L 140.874,-1928.99 L 140.968,-1928.5 L 141,-1928 L 141,-1744 L 140.968,-1743.5 L 140.874,-1743.01
 L 140.719,-1742.53 L 140.505,-1742.07 L 140.236,-1741.65 L 139.916,-1741.26 L 139.55,-1740.92 L 139.143,-1740.62
 L 138.703,-1740.38 L 138.236,-1740.2 L 137.75,-1740.07 L 137.251,-1740.01 z
M -141,-1535.94 L -140.687,-1535.65 L -140.179,-1535.28 L -139.629,-1534.98 L -139.045,-1534.74 L -138.437,-1534.59
 L -137.814,-1534.51 L 137.814,-1534.51 L 138.437,-1534.59 L 139.045,-1534.74 L 139.629,-1534.98 L 140.179,-1535.28
 L 140.687,-1535.65 L 141.145,-1536.08 L 141.545,-1536.56 L 141.882,-1537.09 L 142.149,-1537.66 L 142.343,-1538.26
 L 142.461,-1538.87 L 142.5,-1539.5 L 142.5,-1724.5 L 142.461,-1725.13 L 142.343,-1725.74 L 142.149,-1726.34
 L 141.882,-1726.91 L 141.545,-1727.44 L 141.145,-1727.92 L 140.687,-1728.35 L 140.179,-1728.72 L 139.629,-1729.02
 L 139.045,-1729.26 L 138.437,-1729.41 L 137.814,-1729.49 L -137.814,-1729.49 L -138.437,-1729.41 L -139.045,-1729.26
 L -139.629,-1729.02 L -140.179,-1728.72 L -140.687,-1728.35 L -141,-1728.06 L -141,-1729.49 L -144,-1729.49
 L -144,-1534.51 L -141,-1534.51 z
M -137.251,-1536.01 L -137.75,-1536.07 L -138.236,-1536.2 L -138.703,-1536.38 L -139.143,-1536.62 L -139.55,-1536.92
 L -139.916,-1537.26 L -140.236,-1537.65 L -140.505,-1538.07 L -140.719,-1538.53 L -140.874,-1539.01 L -140.968,-1539.5
 L -141,-1540 L -141,-1724 L -140.968,-1724.5 L -140.874,-1724.99 L -140.719,-1725.47 L -140.505,-1725.93
 L -140.236,-1726.35 L -139.916,-1726.74 L -139.55,-1727.08 L -139.143,-1727.38 L -138.703,-1727.62 L -138.236,-1727.8
 L -137.75,-1727.93 L -137.251,-1727.99 L 137.251,-1727.99 L 137.75,-1727.93 L 138.236,-1727.8 L 138.703,-1727.62
 L 139.143,-1727.38 L 139.55,-1727.08 L 139.916,-1726.74 L 140.236,-1726.35 L 140.505,-1725.93 L 140.719,-1725.47
 L 140.874,-1724.99 L 140.968,-1724.5 L 141,-1724 L 141,-1540 L 140.968,-1539.5 L 140.874,-1539.01
 L 140.719,-1538.53 L 140.505,-1538.07 L 140.236,-1537.65 L 139.916,-1537.26 L 139.55,-1536.92 L 139.143,-1536.62
 L 138.703,-1536.38 L 138.236,-1536.2 L 137.75,-1536.07 L 137.251,-1536.01 z
M -141,-1331.94 L -140.687,-1331.65 L -140.179,-1331.28 L -139.629,-1330.98 L -139.045,-1330.74 L -138.437,-1330.59
 L -137.814,-1330.51 L 137.814,-1330.51 L 138.437,-1330.59 L 139.045,-1330.74 L 139.629,-1330.98 L 140.179,-1331.28
 L 140.687,-1331.65 L 141.145,-1332.08 L 141.545,-1332.56 L 141.882,-1333.09 L 142.149,-1333.66 L 142.343,-1334.26
 L 142.461,-1334.87 L 142.5,-1335.5 L 142.5,-1520.5 L 142.461,-1521.13 L 142.343,-1521.74 L 142.149,-1522.34
 L 141.882,-1522.91 L 141.545,-1523.44 L 141.145,-1523.92 L 140.687,-1524.35 L 140.179,-1524.72 L 139.629,-1525.02
 L 139.045,-1525.26 L 138.437,-1525.41 L 137.814,-1525.49 L -137.814,-1525.49 L -138.437,-1525.41 L -139.045,-1525.26
 L -139.629,-1525.02 L -140.179,-1524.72 L -140.687,-1524.35 L -141,-1524.06 L -141,-1525.49 L -144,-1525.49
 L -144,-1330.51 L -141,-1330.51 z
M -137.251,-1332.01 L -137.75,-1332.07 L -138.236,-1332.2 L -138.703,-1332.38 L -139.143,-1332.62 L -139.55,-1332.92
 L -139.916,-1333.26 L -140.236,-1333.65 L -140.505,-1334.07 L -140.719,-1334.53 L -140.874,-1335.01 L -140.968,-1335.5
 L -141,-1336 L -141,-1520 L -140.968,-1520.5 L -140.874,-1520.99 L -140.719,-1521.47 L -140.505,-1521.93
 L -140.236,-1522.35 L -139.916,-1522.74 L -139.55,-1523.08 L -139.143,-1523.38 L -138.703,-1523.62 L -138.236,-1523.8
 L -137.75,-1523.93 L -137.251,-1523.99 L 137.251,-1523.99 L 137.75,-1523.93 L 138.236,-1523.8 L 138.703,-1523.62
 L 139.143,-1523.38 L 139.55,-1523.08 L 139.916,-1522.74 L 140.236,-1522.35 L 140.505,-1521.93 L 140.719,-1521.47
 L 140.874,-1520.99 L 140.968,-1520.5 L 141,-1520 L 141,-1336 L 140.968,-1335.5 L 140.874,-1335.01
 L 140.719,-1334.53 L 140.505,-1334.07 L 140.236,-1333.65 L 139.916,-1333.26 L 139.55,-1332.92 L 139.143,-1332.62
 L 138.703,-1332.38 L 138.236,-1332.2 L 137.75,-1332.07 L 137.251,-1332.01 z
M 138.437,-1126.59 L 139.045,-1126.74 L 139.629,-1126.98 L 140.179,-1127.28 L 140.687,-1127.65 L 141.145,-1128.08
 L 141.545,-1128.56 L 141.882,-1129.09 L 142.149,-1129.66 L 142.343,-1130.26 L 142.461,-1130.87 L 142.5,-1131.5
 L 142.5,-1316.5 L 142.461,-1317.13 L 142.343,-1317.74 L 142.149,-1318.34 L 141.882,-1318.91 L 141.545,-1319.44
 L 141.145,-1319.92 L 140.687,-1320.35 L 140.179,-1320.72 L 139.629,-1321.02 L 139.045,-1321.26 L 138.437,-1321.41
 L 137.814,-1321.49 L -137.814,-1321.49 L -138.437,-1321.41 L -139.045,-1321.26 L -139.629,-1321.02 L -140.179,-1320.72
 L -140.687,-1320.35 L -141,-1320.06 L -141,-1321.48 L -144,-1321.48 L -144,-1126.52 L -141,-1126.52
 L -141,-1127.94 L -140.687,-1127.65 L -140.179,-1127.28 L -139.629,-1126.98 L -139.045,-1126.74 L -138.437,-1126.59
 L -137.814,-1126.51 L 137.814,-1126.51 z
M -137.195,-1128.89 L -137.583,-1128.94 L -137.962,-1129.04 L -138.325,-1129.18 L -138.668,-1129.37 L -138.984,-1129.6
 L -139.269,-1129.87 L -139.518,-1130.17 L -139.728,-1130.5 L -139.894,-1130.85 L -140.015,-1131.23 L -140.088,-1131.61
 L -140.113,-1132 L -140.113,-1316 L -140.088,-1316.39 L -140.015,-1316.77 L -139.894,-1317.15 L -139.728,-1317.5
 L -139.518,-1317.83 L -139.269,-1318.13 L -138.984,-1318.4 L -138.668,-1318.63 L -138.325,-1318.82 L -137.962,-1318.96
 L -137.583,-1319.06 L -137.195,-1319.11 L 137.195,-1319.11 L 137.583,-1319.06 L 137.962,-1318.96 L 138.325,-1318.82
 L 138.668,-1318.63 L 138.984,-1318.4 L 139.269,-1318.13 L 139.518,-1317.83 L 139.728,-1317.5 L 139.894,-1317.15
 L 140.015,-1316.77 L 140.088,-1316.39 L 140.113,-1316 L 140.113,-1132 L 140.088,-1131.61 L 140.015,-1131.23
 L 139.894,-1130.85 L 139.728,-1130.5 L 139.518,-1130.17 L 139.269,-1129.87 L 138.984,-1129.6 L 138.668,-1129.37
 L 138.325,-1129.18 L 137.962,-1129.04 L 137.583,-1128.94 L 137.195,-1128.89 z
M 138.437,-922.589 L 139.045,-922.745 L 139.629,-922.976 L 140.179,-923.278 L 140.687,-923.647 L 141.145,-924.077
 L 141.545,-924.561 L 141.882,-925.091 L 142.149,-925.659 L 142.343,-926.257 L 142.461,-926.873 L 142.5,-927.5
 L 142.5,-1112.5 L 142.461,-1113.13 L 142.343,-1113.74 L 142.149,-1114.34 L 141.882,-1114.91 L 141.545,-1115.44
 L 141.145,-1115.92 L 140.687,-1116.35 L 140.179,-1116.72 L 139.629,-1117.02 L 139.045,-1117.26 L 138.437,-1117.41
 L 137.814,-1117.49 L -137.814,-1117.49 L -138.437,-1117.41 L -139.045,-1117.26 L -139.629,-1117.02 L -140.179,-1116.72
 L -140.687,-1116.35 L -141,-1116.06 L -141,-1116.15 L -144,-1116.15 L -144,-923.847 L -141,-923.847
 L -141,-923.941 L -140.687,-923.647 L -140.179,-923.278 L -139.629,-922.976 L -139.045,-922.745 L -138.437,-922.589
 L -137.814,-922.51 L 137.814,-922.51 z
M -135.134,-1107.87 L -135.4,-1107.9 L -135.66,-1107.97 L -135.909,-1108.07 L -136.144,-1108.2 L -136.361,-1108.35
 L -136.557,-1108.54 L -136.727,-1108.74 L -136.871,-1108.97 L -136.985,-1109.21 L -137.068,-1109.47 L -137.118,-1109.73
 L -137.135,-1110 L -137.118,-1110.27 L -137.068,-1110.53 L -136.985,-1110.79 L -136.871,-1111.03 L -136.727,-1111.26
 L -136.557,-1111.46 L -136.361,-1111.65 L -136.144,-1111.8 L -135.909,-1111.93 L -135.66,-1112.03 L -135.4,-1112.1
 L -135.134,-1112.13 L -134.866,-1112.13 L -134.6,-1112.1 L -134.34,-1112.03 L -134.091,-1111.93 L -133.856,-1111.8
 L -133.639,-1111.65 L -133.443,-1111.46 L -133.273,-1111.26 L -133.129,-1111.03 L -133.015,-1110.79 L -132.932,-1110.53
 L -132.882,-1110.27 L -132.865,-1110 L -132.882,-1109.73 L -132.932,-1109.47 L -133.015,-1109.21 L -133.129,-1108.97
 L -133.273,-1108.74 L -133.443,-1108.54 L -133.639,-1108.35 L -133.856,-1108.2 L -134.091,-1108.07 L -134.34,-1107.97
 L -134.6,-1107.9 L -134.866,-1107.87 z
M 134.866,-1107.87 L 134.6,-1107.9 L 134.34,-1107.97 L 134.091,-1108.07 L 133.856,-1108.2 L 133.639,-1108.35
 L 133.443,-1108.54 L 133.273,-1108.74 L 133.129,-1108.97 L 133.015,-1109.21 L 132.932,-1109.47 L 132.882,-1109.73
 L 132.865,-1110 L 132.882,-1110.27 L 132.932,-1110.53 L 133.015,-1110.79 L 133.129,-1111.03 L 133.273,-1111.26
 L 133.443,-1111.46 L 133.639,-1111.65 L 133.856,-1111.8 L 134.091,-1111.93 L 134.34,-1112.03 L 134.6,-1112.1
 L 134.866,-1112.13 L 135.134,-1112.13 L 135.4,-1112.1 L 135.66,-1112.03 L 135.909,-1111.93 L 136.144,-1111.8
 L 136.361,-1111.65 L 136.557,-1111.46 L 136.727,-1111.26 L 136.871,-1111.03 L 136.985,-1110.79 L 137.068,-1110.53
 L 137.118,-1110.27 L 137.135,-1110 L 137.118,-1109.73 L 137.068,-1109.47 L 136.985,-1109.21 L 136.871,-1108.97
 L 136.727,-1108.74 L 136.557,-1108.54 L 136.361,-1108.35 L 136.144,-1108.2 L 135.909,-1108.07 L 135.66,-1107.97
 L 135.4,-1107.9 L 135.134,-1107.87 z
M -135.134,-927.869 L -135.4,-927.903 L -135.66,-927.969 L -135.909,-928.068 L -136.144,-928.197 L -136.361,-928.355
 L -136.557,-928.538 L -136.727,-928.745 L -136.871,-928.971 L -136.985,-929.214 L -137.068,-929.469 L -137.118,-929.732
 L -137.135,-930 L -137.118,-930.268 L -137.068,-930.531 L -136.985,-930.786 L -136.871,-931.029 L -136.727,-931.255
 L -136.557,-931.462 L -136.361,-931.645 L -136.144,-931.803 L -135.909,-931.932 L -135.66,-932.031 L -135.4,-932.097
 L -135.134,-932.131 L -134.866,-932.131 L -134.6,-932.097 L -134.34,-932.031 L -134.091,-931.932 L -133.856,-931.803
 L -133.639,-931.645 L -133.443,-931.462 L -133.273,-931.255 L -133.129,-931.029 L -133.015,-930.786 L -132.932,-930.531
 L -132.882,-930.268 L -132.865,-930 L -132.882,-929.732 L -132.932,-929.469 L -133.015,-929.214 L -133.129,-928.971
 L -133.273,-928.745 L -133.443,-928.538 L -133.639,-928.355 L -133.856,-928.197 L -134.091,-928.068 L -134.34,-927.969
 L -134.6,-927.903 L -134.866,-927.869 z
M 134.866,-927.869 L 134.6,-927.903 L 134.34,-927.969 L 134.091,-928.068 L 133.856,-928.197 L 133.639,-928.355
 L 133.443,-928.538 L 133.273,-928.745 L 133.129,-928.971 L 133.015,-929.214 L 132.932,-929.469 L 132.882,-929.732
 L 132.865,-930 L 132.882,-930.268 L 132.932,-930.531 L 133.015,-930.786 L 133.129,-931.029 L 133.273,-931.255
 L 133.443,-931.462 L 133.639,-931.645 L 133.856,-931.803 L 134.091,-931.932 L 134.34,-932.031 L 134.6,-932.097
 L 134.866,-932.131 L 135.134,-932.131 L 135.4,-932.097 L 135.66,-932.031 L 135.909,-931.932 L 136.144,-931.803
 L 136.361,-931.645 L 136.557,-931.462 L 136.727,-931.255 L 136.871,-931.029 L 136.985,-930.786 L 137.068,-930.531
 L 137.118,-930.268 L 137.135,-930 L 137.118,-929.732 L 137.068,-929.469 L 136.985,-929.214 L 136.871,-928.971
 L 136.727,-928.745 L 136.557,-928.538 L 136.361,-928.355 L 136.144,-928.197 L 135.909,-928.068 L 135.66,-927.969
 L 135.4,-927.903 L 135.134,-927.869 z
" stroke="black" fill="lightgray" stroke-width="0.5"/>
</svg>
