  0
SECTION
  2
BLOCKS
  0
ENDSEC
  0
SECTION
  2
ENTITIES
  0
LINE
  8
0
 10
123.437
 20
175.589
 11
124.045
 21
175.745
  0
LINE
  8
0
 10
124.045
 20
175.745
 11
124.629
 21
175.976
  0
LINE
  8
0
 10
124.629
 20
175.976
 11
125.179
 21
176.278
  0
LINE
  8
0
 10
125.179
 20
176.278
 11
125.687
 21
176.647
  0
LINE
  8
0
 10
125.687
 20
176.647
 11
126.145
 21
177.077
  0
LINE
  8
0
 10
126.145
 20
177.077
 11
126.545
 21
177.561
  0
LINE
  8
0
 10
126.545
 20
177.561
 11
126.882
 21
178.091
  0
LINE
  8
0
 10
126.882
 20
178.091
 11
127.149
 21
178.659
  0
LINE
  8
0
 10
127.149
 20
178.659
 11
127.343
 21
179.257
  0
LINE
  8
0
 10
127.343
 20
179.257
 11
127.461
 21
179.873
  0
LINE
  8
0
 10
127.461
 20
179.873
 11
127.5
 21
180.5
  0
LINE
  8
0
 10
127.5
 20
180.5
 11
127.5
 21
275.5
  0
LINE
  8
0
 10
127.5
 20
275.5
 11
127.461
 21
276.127
  0
LINE
  8
0
 10
127.461
 20
276.127
 11
127.343
 21
276.743
  0
LINE
  8
0
 10
127.343
 20
276.743
 11
127.149
 21
277.341
  0
LINE
  8
0
 10
127.149
 20
277.341
 11
126.882
 21
277.909
  0
LINE
  8
0
 10
126.882
 20
277.909
 11
126.545
 21
278.439
  0
LINE
  8
0
 10
126.545
 20
278.439
 11
126.145
 21
278.923
  0
LINE
  8
0
 10
126.145
 20
278.923
 11
125.687
 21
279.353
  0
LINE
  8
0
 10
125.687
 20
279.353
 11
125.179
 21
279.722
  0
LINE
  8
0
 10
125.179
 20
279.722
 11
124.629
 21
280.024
  0
LINE
  8
0
 10
124.629
 20
280.024
 11
124.045
 21
280.255
  0
LINE
  8
0
 10
124.045
 20
280.255
 11
123.437
 21
280.411
  0
LINE
  8
0
 10
123.437
 20
280.411
 11
122.814
 21
280.49
  0
LINE
  8
0
 10
122.814
 20
280.49
 11
-122.814
 21
280.49
  0
LINE
  8
0
 10
-122.814
 20
280.49
 11
-123.437
 21
280.411
  0
LINE
  8
0
 10
-123.437
 20
280.411
 11
-124.045
 21
280.255
  0
LINE
  8
0
 10
-124.045
 20
280.255
 11
-124.629
 21
280.024
  0
LINE
  8
0
 10
-124.629
 20
280.024
 11
-125.179
 21
279.722
  0
LINE
  8
0
 10
-125.179
 20
279.722
 11
-125.687
 21
279.353
  0
LINE
  8
0
 10
-125.687
 20
279.353
 11
-126.145
 21
278.923
  0
LINE
  8
0
 10
-126.145
 20
278.923
 11
-126.545
 21
278.439
  0
LINE
  8
0
 10
-126.545
 20
278.439
 11
-126.882
 21
277.909
  0
LINE
  8
0
 10
-126.882
 20
277.909
 11
-127.149
 21
277.341
  0
LINE
  8
0
 10
-127.149
 20
277.341
 11
-127.343
 21
276.743
  0
LINE
  8
0
 10
-127.343
 20
276.743
 11
-127.461
 21
276.127
  0
LINE
  8
0
 10
-127.461
 20
276.127
 11
-127.5
 21
275.5
  0
LINE
  8
0
 10
-127.5
 20
275.5
 11
-127.5
 21
180.5
  0
LINE
  8
0
 10
-127.5
 20
180.5
 11
-127.461
 21
179.873
  0
LINE
  8
0
 10
-127.461
 20
179.873
 11
-127.343
 21
179.257
  0
LINE
  8
0
 10
-127.343
 20
179.257
 11
-127.149
 21
178.659
  0
LINE
  8
0
 10
-127.149
 20
178.659
 11
-126.882
 21
178.091
  0
LINE
  8
0
 10
-126.882
 20
178.091
 11
-126.545
 21
177.561
  0
LINE
  8
0
 10
-126.545
 20
177.561
 11
-126.145
 21
177.077
  0
LINE
  8
0
 10
-126.145
 20
177.077
 11
-125.687
 21
176.647
  0
LINE
  8
0
 10
-125.687
 20
176.647
 11
-125.179
 21
176.278
  0
LINE
  8
0
 10
-125.179
 20
176.278
 11
-124.629
 21
175.976
  0
LINE
  8
0
 10
-124.629
 20
175.976
 11
-124.045
 21
175.745
  0
LINE
  8
0
 10
-124.045
 20
175.745
 11
-123.437
 21
175.589
  0
LINE
  8
0
 10
-123.437
 20
175.589
 11
-122.814
 21
175.51
  0
LINE
  8
0
 10
-122.814
 20
175.51
 11
122.814
 21
175.51
  0
LINE
  8
0
 10
122.814
 20
175.51
 11
123.437
 21
175.589
  0
LINE
  8
0
 10
-122.493
 20
176.888
 11
-122.975
 21
176.949
  0
LINE
  8
0
 10
-122.975
 20
176.949
 11
-123.446
 21
177.07
  0
LINE
  8
0
 10
-123.446
 20
177.07
 11
-123.898
 21
177.249
  0
LINE
  8
0
 10
-123.898
 20
177.249
 11
-124.323
 21
177.483
  0
LINE
  8
0
 10
-124.323
 20
177.483
 11
-124.716
 21
177.769
  0
LINE
  8
0
 10
-124.716
 20
177.769
 11
-125.071
 21
178.101
  0
LINE
  8
0
 10
-125.071
 20
178.101
 11
-125.38
 21
178.476
  0
LINE
  8
0
 10
-125.38
 20
178.476
 11
-125.641
 21
178.886
  0
LINE
  8
0
 10
-125.641
 20
178.886
 11
-125.848
 21
179.326
  0
LINE
  8
0
 10
-125.848
 20
179.326
 11
-125.998
 21
179.788
  0
LINE
  8
0
 10
-125.998
 20
179.788
 11
-126.089
 21
180.265
  0
LINE
  8
0
 10
-126.089
 20
180.265
 11
-126.119
 21
180.75
  0
LINE
  8
0
 10
-126.119
 20
180.75
 11
-126.119
 21
275.25
  0
LINE
  8
0
 10
-126.119
 20
275.25
 11
-126.089
 21
275.735
  0
LINE
  8
0
 10
-126.089
 20
275.735
 11
-125.998
 21
276.212
  0
LINE
  8
0
 10
-125.998
 20
276.212
 11
-125.848
 21
276.674
  0
LINE
  8
0
 10
-125.848
 20
276.674
 11
-125.641
 21
277.114
  0
LINE
  8
0
 10
-125.641
 20
277.114
 11
-125.38
 21
277.524
  0
LINE
  8
0
 10
-125.38
 20
277.524
 11
-125.071
 21
277.899
  0
LINE
  8
0
 10
-125.071
 20
277.899
 11
-124.716
 21
278.231
  0
LINE
  8
0
 10
-124.716
 20
278.231
 11
-124.323
 21
278.517
  0
LINE
  8
0
 10
-124.323
 20
278.517
 11
-123.898
 21
278.751
  0
LINE
  8
0
 10
-123.898
 20
278.751
 11
-123.446
 21
278.93
  0
LINE
  8
0
 10
-123.446
 20
278.93
 11
-122.975
 21
279.051
  0
LINE
  8
0
 10
-122.975
 20
279.051
 11
-122.493
 21
279.112
  0
LINE
  8
0
 10
-122.493
 20
279.112
 11
122.493
 21
279.112
  0
LINE
  8
0
 10
122.493
 20
279.112
 11
122.975
 21
279.051
  0
LINE
  8
0
 10
122.975
 20
279.051
 11
123.446
 21
278.93
  0
LINE
  8
0
 10
123.446
 20
278.93
 11
123.898
 21
278.751
  0
LINE
  8
0
 10
123.898
 20
278.751
 11
124.323
 21
278.517
  0
LINE
  8
0
 10
124.323
 20
278.517
 11
124.716
 21
278.231
  0
LINE
  8
0
 10
124.716
 20
278.231
 11
125.071
 21
277.899
  0
LINE
  8
0
 10
125.071
 20
277.899
 11
125.38
 21
277.524
  0
LINE
  8
0
 10
125.38
 20
277.524
 11
125.641
 21
277.114
  0
LINE
  8
0
 10
125.641
 20
277.114
 11
125.848
 21
276.674
  0
LINE
  8
0
 10
125.848
 20
276.674
 11
125.998
 21
276.212
  0
LINE
  8
0
 10
125.998
 20
276.212
 11
126.089
 21
275.735
  0
LINE
  8
0
 10
126.089
 20
275.735
 11
126.119
 21
275.25
  0
LINE
  8
0
 10
126.119
 20
275.25
 11
126.119
 21
180.75
  0
LINE
  8
0
 10
126.119
 20
180.75
 11
126.089
 21
180.265
  0
LINE
  8
0
 10
126.089
 20
180.265
 11
125.998
 21
179.788
  0
LINE
  8
0
 10
125.998
 20
179.788
 11
125.848
 21
179.326
  0
LINE
  8
0
 10
125.848
 20
179.326
 11
125.641
 21
178.886
  0
LINE
  8
0
 10
125.641
 20
178.886
 11
125.38
 21
178.476
  0
LINE
  8
0
 10
125.38
 20
178.476
 11
125.071
 21
178.101
  0
LINE
  8
0
 10
125.071
 20
178.101
 11
124.716
 21
177.769
  0
LINE
  8
0
 10
124.716
 20
177.769
 11
124.323
 21
177.483
  0
LINE
  8
0
 10
124.323
 20
177.483
 11
123.898
 21
177.249
  0
LINE
  8
0
 10
123.898
 20
177.249
 11
123.446
 21
177.07
  0
LINE
  8
0
 10
123.446
 20
177.07
 11
122.975
 21
176.949
  0
LINE
  8
0
 10
122.975
 20
176.949
 11
122.493
 21
176.888
  0
LINE
  8
0
 10
122.493
 20
176.888
 11
-122.493
 21
176.888
  0
LINE
  8
0
 10
123.437
 20
61.5886
 11
124.045
 21
61.7447
  0
LINE
  8
0
 10
124.045
 20
61.7447
 11
124.629
 21
61.9759
  0
LINE
  8
0
 10
124.629
 20
61.9759
 11
125.179
 21
62.2784
  0
LINE
  8
0
 10
125.179
 20
62.2784
 11
125.687
 21
62.6474
  0
LINE
  8
0
 10
125.687
 20
62.6474
 11
126.145
 21
63.0773
  0
LINE
  8
0
 10
126.145
 20
63.0773
 11
126.545
 21
63.5611
  0
LINE
  8
0
 10
126.545
 20
63.5611
 11
126.882
 21
64.0912
  0
LINE
  8
0
 10
126.882
 20
64.0912
 11
127.149
 21
64.6594
  0
LINE
  8
0
 10
127.149
 20
64.6594
 11
127.343
 21
65.2566
  0
LINE
  8
0
 10
127.343
 20
65.2566
 11
127.461
 21
65.8733
  0
LINE
  8
0
 10
127.461
 20
65.8733
 11
127.5
 21
66.5
  0
LINE
  8
0
 10
127.5
 20
66.5
 11
127.5
 21
161.5
  0
LINE
  8
0
 10
127.5
 20
161.5
 11
127.461
 21
162.127
  0
LINE
  8
0
 10
127.461
 20
162.127
 11
127.343
 21
162.743
  0
LINE
  8
0
 10
127.343
 20
162.743
 11
127.149
 21
163.341
  0
LINE
  8
0
 10
127.149
 20
163.341
 11
126.882
 21
163.909
  0
LINE
  8
0
 10
126.882
 20
163.909
 11
126.545
 21
164.439
  0
LINE
  8
0
 10
126.545
 20
164.439
 11
126.145
 21
164.923
  0
LINE
  8
0
 10
126.145
 20
164.923
 11
125.687
 21
165.353
  0
LINE
  8
0
 10
125.687
 20
165.353
 11
125.179
 21
165.722
  0
LINE
  8
0
 10
125.179
 20
165.722
 11
124.629
 21
166.024
  0
LINE
  8
0
 10
124.629
 20
166.024
 11
124.045
 21
166.255
  0
LINE
  8
0
 10
124.045
 20
166.255
 11
123.437
 21
166.411
  0
LINE
  8
0
 10
123.437
 20
166.411
 11
122.814
 21
166.49
  0
LINE
  8
0
 10
122.814
 20
166.49
 11
-122.814
 21
166.49
  0
LINE
  8
0
 10
-122.814
 20
166.49
 11
-123.437
 21
166.411
  0
LINE
  8
0
 10
-123.437
 20
166.411
 11
-124.045
 21
166.255
  0
LINE
  8
0
 10
-124.045
 20
166.255
 11
-124.629
 21
166.024
  0
LINE
  8
0
 10
-124.629
 20
166.024
 11
-125.179
 21
165.722
  0
LINE
  8
0
 10
-125.179
 20
165.722
 11
-125.687
 21
165.353
  0
LINE
  8
0
 10
-125.687
 20
165.353
 11
-126.145
 21
164.923
  0
LINE
  8
0
 10
-126.145
 20
164.923
 11
-126.545
 21
164.439
  0
LINE
  8
0
 10
-126.545
 20
164.439
 11
-126.882
 21
163.909
  0
LINE
  8
0
 10
-126.882
 20
163.909
 11
-127.149
 21
163.341
  0
LINE
  8
0
 10
-127.149
 20
163.341
 11
-127.343
 21
162.743
  0
LINE
  8
0
 10
-127.343
 20
162.743
 11
-127.461
 21
162.127
  0
LINE
  8
0
 10
-127.461
 20
162.127
 11
-127.5
 21
161.5
  0
LINE
  8
0
 10
-127.5
 20
161.5
 11
-127.5
 21
66.5
  0
LINE
  8
0
 10
-127.5
 20
66.5
 11
-127.461
 21
65.8733
  0
LINE
  8
0
 10
-127.461
 20
65.8733
 11
-127.343
 21
65.2566
  0
LINE
  8
0
 10
-127.343
 20
65.2566
 11
-127.149
 21
64.6594
  0
LINE
  8
0
 10
-127.149
 20
64.6594
 11
-126.882
 21
64.0912
  0
LINE
  8
0
 10
-126.882
 20
64.0912
 11
-126.545
 21
63.5611
  0
LINE
  8
0
 10
-126.545
 20
63.5611
 11
-126.145
 21
63.0773
  0
LINE
  8
0
 10
-126.145
 20
63.0773
 11
-125.687
 21
62.6474
  0
LINE
  8
0
 10
-125.687
 20
62.6474
 11
-125.179
 21
62.2784
  0
LINE
  8
0
 10
-125.179
 20
62.2784
 11
-124.629
 21
61.9759
  0
LINE
  8
0
 10
-124.629
 20
61.9759
 11
-124.045
 21
61.7447
  0
LINE
  8
0
 10
-124.045
 20
61.7447
 11
-123.437
 21
61.5886
  0
LINE
  8
0
 10
-123.437
 20
61.5886
 11
-122.814
 21
61.5099
  0
LINE
  8
0
 10
-122.814
 20
61.5099
 11
122.814
 21
61.5099
  0
LINE
  8
0
 10
122.814
 20
61.5099
 11
123.437
 21
61.5886
  0
LINE
  8
0
 10
119.887
 20
157.204
 11
119.663
 21
157.232
  0
LINE
  8
0
 10
119.663
 20
157.232
 11
119.444
 21
157.288
  0
LINE
  8
0
 10
119.444
 20
157.288
 11
119.234
 21
157.371
  0
LINE
  8
0
 10
119.234
 20
157.371
 11
119.036
 21
157.48
  0
LINE
  8
0
 10
119.036
 20
157.48
 11
118.853
 21
157.613
  0
LINE
  8
0
 10
118.853
 20
157.613
 11
118.688
 21
157.768
  0
LINE
  8
0
 10
118.688
 20
157.768
 11
118.544
 21
157.942
  0
LINE
  8
0
 10
118.544
 20
157.942
 11
118.423
 21
158.133
  0
LINE
  8
0
 10
118.423
 20
158.133
 11
118.326
 21
158.337
  0
LINE
  8
0
 10
118.326
 20
158.337
 11
118.257
 21
158.552
  0
LINE
  8
0
 10
118.257
 20
158.552
 11
118.214
 21
158.774
  0
LINE
  8
0
 10
118.214
 20
158.774
 11
118.2
 21
159
  0
LINE
  8
0
 10
118.2
 20
159
 11
118.214
 21
159.226
  0
LINE
  8
0
 10
118.214
 20
159.226
 11
118.257
 21
159.448
  0
LINE
  8
0
 10
118.257
 20
159.448
 11
118.326
 21
159.663
  0
LINE
  8
0
 10
118.326
 20
159.663
 11
118.423
 21
159.867
  0
LINE
  8
0
 10
118.423
 20
159.867
 11
118.544
 21
160.058
  0
LINE
  8
0
 10
118.544
 20
160.058
 11
118.688
 21
160.232
  0
LINE
  8
0
 10
118.688
 20
160.232
 11
118.853
 21
160.387
  0
LINE
  8
0
 10
118.853
 20
160.387
 11
119.036
 21
160.52
  0
LINE
  8
0
 10
119.036
 20
160.52
 11
119.234
 21
160.629
  0
LINE
  8
0
 10
119.234
 20
160.629
 11
119.444
 21
160.712
  0
LINE
  8
0
 10
119.444
 20
160.712
 11
119.663
 21
160.768
  0
LINE
  8
0
 10
119.663
 20
160.768
 11
119.887
 21
160.796
  0
LINE
  8
0
 10
119.887
 20
160.796
 11
120.113
 21
160.796
  0
LINE
  8
0
 10
120.113
 20
160.796
 11
120.337
 21
160.768
  0
LINE
  8
0
 10
120.337
 20
160.768
 11
120.556
 21
160.712
  0
LINE
  8
0
 10
120.556
 20
160.712
 11
120.766
 21
160.629
  0
LINE
  8
0
 10
120.766
 20
160.629
 11
120.964
 21
160.52
  0
LINE
  8
0
 10
120.964
 20
160.52
 11
121.147
 21
160.387
  0
LINE
  8
0
 10
121.147
 20
160.387
 11
121.312
 21
160.232
  0
LINE
  8
0
 10
121.312
 20
160.232
 11
121.456
 21
160.058
  0
LINE
  8
0
 10
121.456
 20
160.058
 11
121.577
 21
159.867
  0
LINE
  8
0
 10
121.577
 20
159.867
 11
121.674
 21
159.663
  0
LINE
  8
0
 10
121.674
 20
159.663
 11
121.743
 21
159.448
  0
LINE
  8
0
 10
121.743
 20
159.448
 11
121.786
 21
159.226
  0
LINE
  8
0
 10
121.786
 20
159.226
 11
121.8
 21
159
  0
LINE
  8
0
 10
121.8
 20
159
 11
121.786
 21
158.774
  0
LINE
  8
0
 10
121.786
 20
158.774
 11
121.743
 21
158.552
  0
LINE
  8
0
 10
121.743
 20
158.552
 11
121.674
 21
158.337
  0
LINE
  8
0
 10
121.674
 20
158.337
 11
121.577
 21
158.133
  0
LINE
  8
0
 10
121.577
 20
158.133
 11
121.456
 21
157.942
  0
LINE
  8
0
 10
121.456
 20
157.942
 11
121.312
 21
157.768
  0
LINE
  8
0
 10
121.312
 20
157.768
 11
121.147
 21
157.613
  0
LINE
  8
0
 10
121.147
 20
157.613
 11
120.964
 21
157.48
  0
LINE
  8
0
 10
120.964
 20
157.48
 11
120.766
 21
157.371
  0
LINE
  8
0
 10
120.766
 20
157.371
 11
120.556
 21
157.288
  0
LINE
  8
0
 10
120.556
 20
157.288
 11
120.337
 21
157.232
  0
LINE
  8
0
 10
120.337
 20
157.232
 11
120.113
 21
157.204
  0
LINE
  8
0
 10
120.113
 20
157.204
 11
119.887
 21
157.204
  0
LINE
  8
0
 10
-120.113
 20
157.204
 11
-120.337
 21
157.232
  0
LINE
  8
0
 10
-120.337
 20
157.232
 11
-120.556
 21
157.288
  0
LINE
  8
0
 10
-120.556
 20
157.288
 11
-120.766
 21
157.371
  0
LINE
  8
0
 10
-120.766
 20
157.371
 11
-120.964
 21
157.48
  0
LINE
  8
0
 10
-120.964
 20
157.48
 11
-121.147
 21
157.613
  0
LINE
  8
0
 10
-121.147
 20
157.613
 11
-121.312
 21
157.768
  0
LINE
  8
0
 10
-121.312
 20
157.768
 11
-121.456
 21
157.942
  0
LINE
  8
0
 10
-121.456
 20
157.942
 11
-121.577
 21
158.133
  0
LINE
  8
0
 10
-121.577
 20
158.133
 11
-121.674
 21
158.337
  0
LINE
  8
0
 10
-121.674
 20
158.337
 11
-121.743
 21
158.552
  0
LINE
  8
0
 10
-121.743
 20
158.552
 11
-121.786
 21
158.774
  0
LINE
  8
0
 10
-121.786
 20
158.774
 11
-121.8
 21
159
  0
LINE
  8
0
 10
-121.8
 20
159
 11
-121.786
 21
159.226
  0
LINE
  8
0
 10
-121.786
 20
159.226
 11
-121.743
 21
159.448
  0
LINE
  8
0
 10
-121.743
 20
159.448
 11
-121.674
 21
159.663
  0
LINE
  8
0
 10
-121.674
 20
159.663
 11
-121.577
 21
159.867
  0
LINE
  8
0
 10
-121.577
 20
159.867
 11
-121.456
 21
160.058
  0
LINE
  8
0
 10
-121.456
 20
160.058
 11
-121.312
 21
160.232
  0
LINE
  8
0
 10
-121.312
 20
160.232
 11
-121.147
 21
160.387
  0
LINE
  8
0
 10
-121.147
 20
160.387
 11
-120.964
 21
160.52
  0
LINE
  8
0
 10
-120.964
 20
160.52
 11
-120.766
 21
160.629
  0
LINE
  8
0
 10
-120.766
 20
160.629
 11
-120.556
 21
160.712
  0
LINE
  8
0
 10
-120.556
 20
160.712
 11
-120.337
 21
160.768
  0
LINE
  8
0
 10
-120.337
 20
160.768
 11
-120.113
 21
160.796
  0
LINE
  8
0
 10
-120.113
 20
160.796
 11
-119.887
 21
160.796
  0
LINE
  8
0
 10
-119.887
 20
160.796
 11
-119.663
 21
160.768
  0
LINE
  8
0
 10
-119.663
 20
160.768
 11
-119.444
 21
160.712
  0
LINE
  8
0
 10
-119.444
 20
160.712
 11
-119.234
 21
160.629
  0
LINE
  8
0
 10
-119.234
 20
160.629
 11
-119.036
 21
160.52
  0
LINE
  8
0
 10
-119.036
 20
160.52
 11
-118.853
 21
160.387
  0
LINE
  8
0
 10
-118.853
 20
160.387
 11
-118.688
 21
160.232
  0
LINE
  8
0
 10
-118.688
 20
160.232
 11
-118.544
 21
160.058
  0
LINE
  8
0
 10
-118.544
 20
160.058
 11
-118.423
 21
159.867
  0
LINE
  8
0
 10
-118.423
 20
159.867
 11
-118.326
 21
159.663
  0
LINE
  8
0
 10
-118.326
 20
159.663
 11
-118.257
 21
159.448
  0
LINE
  8
0
 10
-118.257
 20
159.448
 11
-118.214
 21
159.226
  0
LINE
  8
0
 10
-118.214
 20
159.226
 11
-118.2
 21
159
  0
LINE
  8
0
 10
-118.2
 20
159
 11
-118.214
 21
158.774
  0
LINE
  8
0
 10
-118.214
 20
158.774
 11
-118.257
 21
158.552
  0
LINE
  8
0
 10
-118.257
 20
158.552
 11
-118.326
 21
158.337
  0
LINE
  8
0
 10
-118.326
 20
158.337
 11
-118.423
 21
158.133
  0
LINE
  8
0
 10
-118.423
 20
158.133
 11
-118.544
 21
157.942
  0
LINE
  8
0
 10
-118.544
 20
157.942
 11
-118.688
 21
157.768
  0
LINE
  8
0
 10
-118.688
 20
157.768
 11
-118.853
 21
157.613
  0
LINE
  8
0
 10
-118.853
 20
157.613
 11
-119.036
 21
157.48
  0
LINE
  8
0
 10
-119.036
 20
157.48
 11
-119.234
 21
157.371
  0
LINE
  8
0
 10
-119.234
 20
157.371
 11
-119.444
 21
157.288
  0
LINE
  8
0
 10
-119.444
 20
157.288
 11
-119.663
 21
157.232
  0
LINE
  8
0
 10
-119.663
 20
157.232
 11
-119.887
 21
157.204
  0
LINE
  8
0
 10
-119.887
 20
157.204
 11
-120.113
 21
157.204
  0
LINE
  8
0
 10
119.887
 20
67.2036
 11
119.663
 21
67.2319
  0
LINE
  8
0
 10
119.663
 20
67.2319
 11
119.444
 21
67.2881
  0
LINE
  8
0
 10
119.444
 20
67.2881
 11
119.234
 21
67.3713
  0
LINE
  8
0
 10
119.234
 20
67.3713
 11
119.036
 21
67.4802
  0
LINE
  8
0
 10
119.036
 20
67.4802
 11
118.853
 21
67.6131
  0
LINE
  8
0
 10
118.853
 20
67.6131
 11
118.688
 21
67.7678
  0
LINE
  8
0
 10
118.688
 20
67.7678
 11
118.544
 21
67.942
  0
LINE
  8
0
 10
118.544
 20
67.942
 11
118.423
 21
68.1328
  0
LINE
  8
0
 10
118.423
 20
68.1328
 11
118.326
 21
68.3374
  0
LINE
  8
0
 10
118.326
 20
68.3374
 11
118.257
 21
68.5524
  0
LINE
  8
0
 10
118.257
 20
68.5524
 11
118.214
 21
68.7744
  0
LINE
  8
0
 10
118.214
 20
68.7744
 11
118.2
 21
69
  0
LINE
  8
0
 10
118.2
 20
69
 11
118.214
 21
69.2256
  0
LINE
  8
0
 10
118.214
 20
69.2256
 11
118.257
 21
69.4476
  0
LINE
  8
0
 10
118.257
 20
69.4476
 11
118.326
 21
69.6626
  0
LINE
  8
0
 10
118.326
 20
69.6626
 11
118.423
 21
69.8672
  0
LINE
  8
0
 10
118.423
 20
69.8672
 11
118.544
 21
70.058
  0
LINE
  8
0
 10
118.544
 20
70.058
 11
118.688
 21
70.2322
  0
LINE
  8
0
 10
118.688
 20
70.2322
 11
118.853
 21
70.3869
  0
LINE
  8
0
 10
118.853
 20
70.3869
 11
119.036
 21
70.5198
  0
LINE
  8
0
 10
119.036
 20
70.5198
 11
119.234
 21
70.6287
  0
LINE
  8
0
 10
119.234
 20
70.6287
 11
119.444
 21
70.7119
  0
LINE
  8
0
 10
119.444
 20
70.7119
 11
119.663
 21
70.7681
  0
LINE
  8
0
 10
119.663
 20
70.7681
 11
119.887
 21
70.7964
  0
LINE
  8
0
 10
119.887
 20
70.7964
 11
120.113
 21
70.7964
  0
LINE
  8
0
 10
120.113
 20
70.7964
 11
120.337
 21
70.7681
  0
LINE
  8
0
 10
120.337
 20
70.7681
 11
120.556
 21
70.7119
  0
LINE
  8
0
 10
120.556
 20
70.7119
 11
120.766
 21
70.6287
  0
LINE
  8
0
 10
120.766
 20
70.6287
 11
120.964
 21
70.5198
  0
LINE
  8
0
 10
120.964
 20
70.5198
 11
121.147
 21
70.3869
  0
LINE
  8
0
 10
121.147
 20
70.3869
 11
121.312
 21
70.2322
  0
LINE
  8
0
 10
121.312
 20
70.2322
 11
121.456
 21
70.058
  0
LINE
  8
0
 10
121.456
 20
70.058
 11
121.577
 21
69.8672
  0
LINE
  8
0
 10
121.577
 20
69.8672
 11
121.674
 21
69.6626
  0
LINE
  8
0
 10
121.674
 20
69.6626
 11
121.743
 21
69.4476
  0
LINE
  8
0
 10
121.743
 20
69.4476
 11
121.786
 21
69.2256
  0
LINE
  8
0
 10
121.786
 20
69.2256
 11
121.8
 21
69
  0
LINE
  8
0
 10
121.8
 20
69
 11
121.786
 21
68.7744
  0
LINE
  8
0
 10
121.786
 20
68.7744
 11
121.743
 21
68.5524
  0
LINE
  8
0
 10
121.743
 20
68.5524
 11
121.674
 21
68.3374
  0
LINE
  8
0
 10
121.674
 20
68.3374
 11
121.577
 21
68.1328
  0
LINE
  8
0
 10
121.577
 20
68.1328
 11
121.456
 21
67.942
  0
LINE
  8
0
 10
121.456
 20
67.942
 11
121.312
 21
67.7678
  0
LINE
  8
0
 10
121.312
 20
67.7678
 11
121.147
 21
67.6131
  0
LINE
  8
0
 10
121.147
 20
67.6131
 11
120.964
 21
67.4802
  0
LINE
  8
0
 10
120.964
 20
67.4802
 11
120.766
 21
67.3713
  0
LINE
  8
0
 10
120.766
 20
67.3713
 11
120.556
 21
67.2881
  0
LINE
  8
0
 10
120.556
 20
67.2881
 11
120.337
 21
67.2319
  0
LINE
  8
0
 10
120.337
 20
67.2319
 11
120.113
 21
67.2036
  0
LINE
  8
0
 10
120.113
 20
67.2036
 11
119.887
 21
67.2036
  0
LINE
  8
0
 10
-120.113
 20
67.2036
 11
-120.337
 21
67.2319
  0
LINE
  8
0
 10
-120.337
 20
67.2319
 11
-120.556
 21
67.2881
  0
LINE
  8
0
 10
-120.556
 20
67.2881
 11
-120.766
 21
67.3713
  0
LINE
  8
0
 10
-120.766
 20
67.3713
 11
-120.964
 21
67.4802
  0
LINE
  8
0
 10
-120.964
 20
67.4802
 11
-121.147
 21
67.6131
  0
LINE
  8
0
 10
-121.147
 20
67.6131
 11
-121.312
 21
67.7678
  0
LINE
  8
0
 10
-121.312
 20
67.7678
 11
-121.456
 21
67.942
  0
LINE
  8
0
 10
-121.456
 20
67.942
 11
-121.577
 21
68.1328
  0
LINE
  8
0
 10
-121.577
 20
68.1328
 11
-121.674
 21
68.3374
  0
LINE
  8
0
 10
-121.674
 20
68.3374
 11
-121.743
 21
68.5524
  0
LINE
  8
0
 10
-121.743
 20
68.5524
 11
-121.786
 21
68.7744
  0
LINE
  8
0
 10
-121.786
 20
68.7744
 11
-121.8
 21
69
  0
LINE
  8
0
 10
-121.8
 20
69
 11
-121.786
 21
69.2256
  0
LINE
  8
0
 10
-121.786
 20
69.2256
 11
-121.743
 21
69.4476
  0
LINE
  8
0
 10
-121.743
 20
69.4476
 11
-121.674
 21
69.6626
  0
LINE
  8
0
 10
-121.674
 20
69.6626
 11
-121.577
 21
69.8672
  0
LINE
  8
0
 10
-121.577
 20
69.8672
 11
-121.456
 21
70.058
  0
LINE
  8
0
 10
-121.456
 20
70.058
 11
-121.312
 21
70.2322
  0
LINE
  8
0
 10
-121.312
 20
70.2322
 11
-121.147
 21
70.3869
  0
LINE
  8
0
 10
-121.147
 20
70.3869
 11
-120.964
 21
70.5198
  0
LINE
  8
0
 10
-120.964
 20
70.5198
 11
-120.766
 21
70.6287
  0
LINE
  8
0
 10
-120.766
 20
70.6287
 11
-120.556
 21
70.7119
  0
LINE
  8
0
 10
-120.556
 20
70.7119
 11
-120.337
 21
70.7681
  0
LINE
  8
0
 10
-120.337
 20
70.7681
 11
-120.113
 21
70.7964
  0
LINE
  8
0
 10
-120.113
 20
70.7964
 11
-119.887
 21
70.7964
  0
LINE
  8
0
 10
-119.887
 20
70.7964
 11
-119.663
 21
70.7681
  0
LINE
  8
0
 10
-119.663
 20
70.7681
 11
-119.444
 21
70.7119
  0
LINE
  8
0
 10
-119.444
 20
70.7119
 11
-119.234
 21
70.6287
  0
LINE
  8
0
 10
-119.234
 20
70.6287
 11
-119.036
 21
70.5198
  0
LINE
  8
0
 10
-119.036
 20
70.5198
 11
-118.853
 21
70.3869
  0
LINE
  8
0
 10
-118.853
 20
70.3869
 11
-118.688
 21
70.2322
  0
LINE
  8
0
 10
-118.688
 20
70.2322
 11
-118.544
 21
70.058
  0
LINE
  8
0
 10
-118.544
 20
70.058
 11
-118.423
 21
69.8672
  0
LINE
  8
0
 10
-118.423
 20
69.8672
 11
-118.326
 21
69.6626
  0
LINE
  8
0
 10
-118.326
 20
69.6626
 11
-118.257
 21
69.4476
  0
LINE
  8
0
 10
-118.257
 20
69.4476
 11
-118.214
 21
69.2256
  0
LINE
  8
0
 10
-118.214
 20
69.2256
 11
-118.2
 21
69
  0
LINE
  8
0
 10
-118.2
 20
69
 11
-118.214
 21
68.7744
  0
LINE
  8
0
 10
-118.214
 20
68.7744
 11
-118.257
 21
68.5524
  0
LINE
  8
0
 10
-118.257
 20
68.5524
 11
-118.326
 21
68.3374
  0
LINE
  8
0
 10
-118.326
 20
68.3374
 11
-118.423
 21
68.1328
  0
LINE
  8
0
 10
-118.423
 20
68.1328
 11
-118.544
 21
67.942
  0
LINE
  8
0
 10
-118.544
 20
67.942
 11
-118.688
 21
67.7678
  0
LINE
  8
0
 10
-118.688
 20
67.7678
 11
-118.853
 21
67.6131
  0
LINE
  8
0
 10
-118.853
 20
67.6131
 11
-119.036
 21
67.4802
  0
LINE
  8
0
 10
-119.036
 20
67.4802
 11
-119.234
 21
67.3713
  0
LINE
  8
0
 10
-119.234
 20
67.3713
 11
-119.444
 21
67.2881
  0
LINE
  8
0
 10
-119.444
 20
67.2881
 11
-119.663
 21
67.2319
  0
LINE
  8
0
 10
-119.663
 20
67.2319
 11
-119.887
 21
67.2036
  0
LINE
  8
0
 10
-119.887
 20
67.2036
 11
-120.113
 21
67.2036
  0
ENDSEC
  0
SECTION
  2
OBJECTS
  0
DICTIONARY
  0
ENDSEC
  0
EOF
