<?xml version="1.0" standalone="no"?>
<!DOCTYPE svg PUBLIC "-//W3C//DTD SVG 1.1//EN" "http://www.w3.org/Graphics/SVG/1.1/DTD/svg11.dtd">
<svg width="286mm" height="987mm" viewBox="-143 -1863 286 987" xmlns="http://www.w3.org/2000/svg" version="1.1">
<title>OpenSCAD Model</title>
<path d="
M 138.437,-1623.09 L 139.045,-1623.24 L 139.629,-1623.48 L 140.179,-1623.78 L 140.687,-1624.15 L 141.145,-1624.58
 L 141.545,-1625.06 L 141.882,-1625.59 L 142.149,-1626.16 L 142.343,-1626.76 L 142.461,-1627.37 L 142.5,-1628
 L 142.5,-1858 L 142.461,-1858.63 L 142.343,-1859.24 L 142.149,-1859.84 L 141.882,-1860.41 L 141.545,-1860.94
 L 141.145,-1861.42 L 140.687,-1861.85 L 140.179,-1862.22 L 139.629,-1862.52 L 139.045,-1862.76 L 138.437,-1862.91
 L 137.814,-1862.99 L -137.814,-1862.99 L -138.437,-1862.91 L -139.045,-1862.76 L -139.629,-1862.52 L -140.179,-1862.22
 L -140.687,-1861.85 L -141.145,-1861.42 L -141.545,-1860.94 L -141.882,-1860.41 L -142.149,-1859.84 L -142.343,-1859.24
 L -142.461,-1858.63 L -142.5,-1858 L -142.5,-1628 L -142.461,-1627.37 L -142.343,-1626.76 L -142.149,-1626.16
 L -141.882,-1625.59 L -141.545,-1625.06 L -141.145,-1624.58 L -140.687,-1624.15 L -140.179,-1623.78 L -139.629,-1623.48
 L -139.045,-1623.24 L -138.437,-1623.09 L -137.814,-1623.01 L 137.814,-1623.01 z
M -137.548,-1623.51 L -138.14,-1623.58 L -138.718,-1623.73 L -139.272,-1623.95 L -139.795,-1624.24 L -140.278,-1624.59
 L -140.713,-1625 L -141.093,-1625.46 L -141.412,-1625.96 L -141.666,-1626.5 L -141.851,-1627.07 L -141.963,-1627.65
 L -142,-1628.25 L -142,-1857.75 L -141.963,-1858.35 L -141.851,-1858.93 L -141.666,-1859.5 L -141.412,-1860.04
 L -141.093,-1860.54 L -140.713,-1861 L -140.278,-1861.41 L -139.795,-1861.76 L -139.272,-1862.05 L -138.718,-1862.27
 L -138.14,-1862.42 L -137.548,-1862.49 L 137.548,-1862.49 L 138.14,-1862.42 L 138.718,-1862.27 L 139.272,-1862.05
 L 139.795,-1861.76 L 140.278,-1861.41 L 140.713,-1861 L 141.093,-1860.54 L 141.412,-1860.04 L 141.666,-1859.5
 L 141.851,-1858.93 L 141.963,-1858.35 L 142,-1857.75 L 142,-1628.25 L 141.963,-1627.65 L 141.851,-1627.07
 L 141.666,-1626.5 L 141.412,-1625.96 L 141.093,-1625.46 L 140.713,-1625 L 140.278,-1624.59 L 139.795,-1624.24
 L 139.272,-1623.95 L 138.718,-1623.73 L 138.14,-1623.58 L 137.548,-1623.51 z
M 138.437,-1374.09 L 139.045,-1374.24 L 139.629,-1374.48 L 140.179,-1374.78 L 140.687,-1375.15 L 141.145,-1375.58
 L 141.545,-1376.06 L 141.882,-1376.59 L 142.149,-1377.16 L 142.343,-1377.76 L 142.461,-1378.37 L 142.5,-1379
 L 142.5,-1609 L 142.461,-1609.63 L 142.343,-1610.24 L 142.149,-1610.84 L 141.882,-1611.41 L 141.545,-1611.94
 L 141.145,-1612.42 L 140.687,-1612.85 L 140.179,-1613.22 L 139.629,-1613.52 L 139.045,-1613.76 L 138.437,-1613.91
 L 137.814,-1613.99 L -137.814,-1613.99 L -138.437,-1613.91 L -139.045,-1613.76 L -139.629,-1613.52 L -140.179,-1613.22
 L -140.687,-1612.85 L -141.145,-1612.42 L -141.545,-1611.94 L -141.882,-1611.41 L -142.149,-1610.84 L -142.343,-1610.24
 L -142.461,-1609.63 L -142.5,-1609 L -142.5,-1379 L -142.461,-1378.37 L -142.343,-1377.76 L -142.149,-1377.16
 L -141.882,-1376.59 L -141.545,-1376.06 L -141.145,-1375.58 L -140.687,-1375.15 L -140.179,-1374.78 L -139.629,-1374.48
 L -139.045,-1374.24 L -138.437,-1374.09 L -137.814,-1374.01 L 137.814,-1374.01 z
M -137.548,-1374.51 L -138.14,-1374.58 L -138.718,-1374.73 L -139.272,-1374.95 L -139.795,-1375.24 L -140.278,-1375.59
 L -140.713,-1376 L -141.093,-1376.46 L -141.412,-1376.96 L -141.666,-1377.5 L -141.851,-1378.07 L -141.963,-1378.65
 L -142,-1379.25 L -142,-1608.75 L -141.963,-1609.35 L -141.851,-1609.93 L -141.666,-1610.5 L -141.412,-1611.04
 L -141.093,-1611.54 L -140.713,-1612 L -140.278,-1612.41 L -139.795,-1612.76 L -139.272,-1613.05 L -138.718,-1613.27
 L -138.14,-1613.42 L -137.548,-1613.49 L 137.548,-1613.49 L 138.14,-1613.42 L 138.718,-1613.27 L 139.272,-1613.05
 L 139.795,-1612.76 L 140.278,-1612.41 L 140.713,-1612 L 141.093,-1611.54 L 141.412,-1611.04 L 141.666,-1610.5
 L 141.851,-1609.93 L 141.963,-1609.35 L 142,-1608.75 L 142,-1379.25 L 141.963,-1378.65 L 141.851,-1378.07
 L 141.666,-1377.5 L 141.412,-1376.96 L 141.093,-1376.46 L 140.713,-1376 L 140.278,-1375.59 L 139.795,-1375.24
 L 139.272,-1374.95 L 138.718,-1374.73 L 138.14,-1374.58 L 137.548,-1374.51 z
M 138.437,-1125.09 L 139.045,-1125.24 L 139.629,-1125.48 L 140.179,-1125.78 L 140.687,-1126.15 L 141.145,-1126.58
 L 141.545,-1127.06 L 141.882,-1127.59 L 142.149,-1128.16 L 142.343,-1128.76 L 142.461,-1129.37 L 142.5,-1130
 L 142.5,-1360 L 142.461,-1360.63 L 142.343,-1361.24 L 142.149,-1361.84 L 141.882,-1362.41 L 141.545,-1362.94
 L 141.145,-1363.42 L 140.687,-1363.85 L 140.179,-1364.22 L 139.629,-1364.52 L 139.045,-1364.76 L 138.437,-1364.91
 L 137.814,-1364.99 L -137.814,-1364.99 L -138.437,-1364.91 L -139.045,-1364.76 L -139.629,-1364.52 L -140.179,-1364.22
 L -140.687,-1363.85 L -141.145,-1363.42 L -141.545,-1362.94 L -141.882,-1362.41 L -142.149,-1361.84 L -142.343,-1361.24
 L -142.461,-1360.63 L -142.5,-1360 L -142.5,-1130 L -142.461,-1129.37 L -142.343,-1128.76 L -142.149,-1128.16
 L -141.882,-1127.59 L -141.545,-1127.06 L -141.145,-1126.58 L -140.687,-1126.15 L -140.179,-1125.78 L -139.629,-1125.48
 L -139.045,-1125.24 L -138.437,-1125.09 L -137.814,-1125.01 L 137.814,-1125.01 z
M -137.537,-1125.68 L -138.108,-1125.75 L -138.665,-1125.9 L -139.199,-1126.11 L -139.703,-1126.38 L -140.168,-1126.72
 L -140.588,-1127.12 L -140.954,-1127.56 L -141.262,-1128.04 L -141.507,-1128.56 L -141.685,-1129.11 L -141.792,-1129.68
 L -141.828,-1130.25 L -141.828,-1359.75 L -141.792,-1360.32 L -141.685,-1360.89 L -141.507,-1361.44 L -141.262,-1361.96
 L -140.954,-1362.44 L -140.588,-1362.88 L -140.168,-1363.28 L -139.703,-1363.62 L -139.199,-1363.89 L -138.665,-1364.1
 L -138.108,-1364.25 L -137.537,-1364.32 L 137.537,-1364.32 L 138.108,-1364.25 L 138.665,-1364.1 L 139.199,-1363.89
 L 139.703,-1363.62 L 140.168,-1363.28 L 140.588,-1362.88 L 140.954,-1362.44 L 141.262,-1361.96 L 141.507,-1361.44
 L 141.685,-1360.89 L 141.792,-1360.32 L 141.828,-1359.75 L 141.828,-1130.25 L 141.792,-1129.68 L 141.685,-1129.11
 L 141.507,-1128.56 L 141.262,-1128.04 L 140.954,-1127.56 L 140.588,-1127.12 L 140.168,-1126.72 L 139.703,-1126.38
 L 139.199,-1126.11 L 138.665,-1125.9 L 138.108,-1125.75 L 137.537,-1125.68 z
M 138.437,-876.089 L 139.045,-876.245 L 139.629,-876.476 L 140.179,-876.778 L 140.687,-877.147 L 141.145,-877.577
 L 141.545,-878.061 L 141.882,-878.591 L 142.149,-879.159 L 142.343,-879.757 L 142.461,-880.373 L 142.5,-881
 L 142.5,-1111 L 142.461,-1111.63 L 142.343,-1112.24 L 142.149,-1112.84 L 141.882,-1113.41 L 141.545,-1113.94
 L 141.145,-1114.42 L 140.687,-1114.85 L 140.179,-1115.22 L 139.629,-1115.52 L 139.045,-1115.76 L 138.437,-1115.91
 L 137.814,-1115.99 L -137.814,-1115.99 L -138.437,-1115.91 L -139.045,-1115.76 L -139.629,-1115.52 L -140.179,-1115.22
 L -140.687,-1114.85 L -141.145,-1114.42 L -141.545,-1113.94 L -141.882,-1113.41 L -142.149,-1112.84 L -142.343,-1112.24
 L -142.461,-1111.63 L -142.5,-1111 L -142.5,-881 L -142.461,-880.373 L -142.343,-879.757 L -142.149,-879.159
 L -141.882,-878.591 L -141.545,-878.061 L -141.145,-877.577 L -140.687,-877.147 L -140.179,-876.778 L -139.629,-876.476
 L -139.045,-876.245 L -138.437,-876.089 L -137.814,-876.01 L 137.814,-876.01 z
M -137.382,-879.145 L -137.645,-879.178 L -137.902,-879.244 L -138.148,-879.341 L -138.38,-879.469 L -138.595,-879.624
 L -138.788,-879.806 L -138.957,-880.01 L -139.099,-880.234 L -139.211,-880.473 L -139.293,-880.725 L -139.343,-880.986
 L -139.36,-881.25 L -139.36,-1110.75 L -139.343,-1111.01 L -139.293,-1111.27 L -139.211,-1111.53 L -139.099,-1111.77
 L -138.957,-1111.99 L -138.788,-1112.19 L -138.595,-1112.38 L -138.38,-1112.53 L -138.148,-1112.66 L -137.902,-1112.76
 L -137.645,-1112.82 L -137.382,-1112.86 L 137.382,-1112.86 L 137.645,-1112.82 L 137.902,-1112.76 L 138.148,-1112.66
 L 138.38,-1112.53 L 138.595,-1112.38 L 138.788,-1112.19 L 138.957,-1111.99 L 139.099,-1111.77 L 139.211,-1111.53
 L 139.293,-1111.27 L 139.343,-1111.01 L 139.36,-1110.75 L 139.36,-881.25 L 139.343,-880.986 L 139.293,-880.725
 L 139.211,-880.473 L 139.099,-880.234 L 138.957,-880.01 L 138.788,-879.806 L 138.595,-879.624 L 138.38,-879.469
 L 138.148,-879.341 L 137.902,-879.244 L 137.645,-879.178 L 137.382,-879.145 z
" stroke="black" fill="lightgray" stroke-width="0.5"/>
</svg>
