  0
SECTION
  2
BLOCKS
  0
ENDSEC
  0
SECTION
  2
ENTITIES
  0
LINE
  8
0
 10
115.937
 20
243.089
 11
116.545
 21
243.245
  0
LINE
  8
0
 10
116.545
 20
243.245
 11
117.129
 21
243.476
  0
LINE
  8
0
 10
117.129
 20
243.476
 11
117.679
 21
243.778
  0
LINE
  8
0
 10
117.679
 20
243.778
 11
118.187
 21
244.147
  0
LINE
  8
0
 10
118.187
 20
244.147
 11
118.645
 21
244.577
  0
LINE
  8
0
 10
118.645
 20
244.577
 11
119.045
 21
245.061
  0
LINE
  8
0
 10
119.045
 20
245.061
 11
119.382
 21
245.591
  0
LINE
  8
0
 10
119.382
 20
245.591
 11
119.649
 21
246.159
  0
LINE
  8
0
 10
119.649
 20
246.159
 11
119.843
 21
246.757
  0
LINE
  8
0
 10
119.843
 20
246.757
 11
119.961
 21
247.373
  0
LINE
  8
0
 10
119.961
 20
247.373
 11
120
 21
248
  0
LINE
  8
0
 10
120
 20
248
 11
120
 21
388
  0
LINE
  8
0
 10
120
 20
388
 11
119.961
 21
388.627
  0
LINE
  8
0
 10
119.961
 20
388.627
 11
119.843
 21
389.243
  0
LINE
  8
0
 10
119.843
 20
389.243
 11
119.649
 21
389.841
  0
LINE
  8
0
 10
119.649
 20
389.841
 11
119.382
 21
390.409
  0
LINE
  8
0
 10
119.382
 20
390.409
 11
119.045
 21
390.939
  0
LINE
  8
0
 10
119.045
 20
390.939
 11
118.645
 21
391.423
  0
LINE
  8
0
 10
118.645
 20
391.423
 11
118.187
 21
391.853
  0
LINE
  8
0
 10
118.187
 20
391.853
 11
117.679
 21
392.222
  0
LINE
  8
0
 10
117.679
 20
392.222
 11
117.129
 21
392.524
  0
LINE
  8
0
 10
117.129
 20
392.524
 11
116.545
 21
392.755
  0
LINE
  8
0
 10
116.545
 20
392.755
 11
115.937
 21
392.911
  0
LINE
  8
0
 10
115.937
 20
392.911
 11
115.314
 21
392.99
  0
LINE
  8
0
 10
115.314
 20
392.99
 11
-115.314
 21
392.99
  0
LINE
  8
0
 10
-115.314
 20
392.99
 11
-115.937
 21
392.911
  0
LINE
  8
0
 10
-115.937
 20
392.911
 11
-116.545
 21
392.755
  0
LINE
  8
0
 10
-116.545
 20
392.755
 11
-117.129
 21
392.524
  0
LINE
  8
0
 10
-117.129
 20
392.524
 11
-117.679
 21
392.222
  0
LINE
  8
0
 10
-117.679
 20
392.222
 11
-118.187
 21
391.853
  0
LINE
  8
0
 10
-118.187
 20
391.853
 11
-118.5
 21
391.559
  0
LINE
  8
0
 10
-118.5
 20
391.559
 11
-118.5
 21
392.615
  0
LINE
  8
0
 10
-118.5
 20
392.615
 11
-121.5
 21
392.615
  0
LINE
  8
0
 10
-121.5
 20
392.615
 11
-121.5
 21
243.385
  0
LINE
  8
0
 10
-121.5
 20
243.385
 11
-118.5
 21
243.385
  0
LINE
  8
0
 10
-118.5
 20
243.385
 11
-118.5
 21
244.441
  0
LINE
  8
0
 10
-118.5
 20
244.441
 11
-118.187
 21
244.147
  0
LINE
  8
0
 10
-118.187
 20
244.147
 11
-117.679
 21
243.778
  0
LINE
  8
0
 10
-117.679
 20
243.778
 11
-117.129
 21
243.476
  0
LINE
  8
0
 10
-117.129
 20
243.476
 11
-116.545
 21
243.245
  0
LINE
  8
0
 10
-116.545
 20
243.245
 11
-115.937
 21
243.089
  0
LINE
  8
0
 10
-115.937
 20
243.089
 11
-115.314
 21
243.01
  0
LINE
  8
0
 10
-115.314
 20
243.01
 11
115.314
 21
243.01
  0
LINE
  8
0
 10
115.314
 20
243.01
 11
115.937
 21
243.089
  0
LINE
  8
0
 10
112.349
 20
383.105
 11
112.05
 21
383.143
  0
LINE
  8
0
 10
112.05
 20
383.143
 11
111.758
 21
383.217
  0
LINE
  8
0
 10
111.758
 20
383.217
 11
111.478
 21
383.328
  0
LINE
  8
0
 10
111.478
 20
383.328
 11
111.214
 21
383.474
  0
LINE
  8
0
 10
111.214
 20
383.474
 11
110.97
 21
383.651
  0
LINE
  8
0
 10
110.97
 20
383.651
 11
110.75
 21
383.857
  0
LINE
  8
0
 10
110.75
 20
383.857
 11
110.558
 21
384.089
  0
LINE
  8
0
 10
110.558
 20
384.089
 11
110.397
 21
384.344
  0
LINE
  8
0
 10
110.397
 20
384.344
 11
110.269
 21
384.617
  0
LINE
  8
0
 10
110.269
 20
384.617
 11
110.175
 21
384.903
  0
LINE
  8
0
 10
110.175
 20
384.903
 11
110.119
 21
385.199
  0
LINE
  8
0
 10
110.119
 20
385.199
 11
110.1
 21
385.5
  0
LINE
  8
0
 10
110.1
 20
385.5
 11
110.119
 21
385.801
  0
LINE
  8
0
 10
110.119
 20
385.801
 11
110.175
 21
386.097
  0
LINE
  8
0
 10
110.175
 20
386.097
 11
110.269
 21
386.383
  0
LINE
  8
0
 10
110.269
 20
386.383
 11
110.397
 21
386.656
  0
LINE
  8
0
 10
110.397
 20
386.656
 11
110.558
 21
386.911
  0
LINE
  8
0
 10
110.558
 20
386.911
 11
110.75
 21
387.143
  0
LINE
  8
0
 10
110.75
 20
387.143
 11
110.97
 21
387.349
  0
LINE
  8
0
 10
110.97
 20
387.349
 11
111.214
 21
387.526
  0
LINE
  8
0
 10
111.214
 20
387.526
 11
111.478
 21
387.672
  0
LINE
  8
0
 10
111.478
 20
387.672
 11
111.758
 21
387.783
  0
LINE
  8
0
 10
111.758
 20
387.783
 11
112.05
 21
387.857
  0
LINE
  8
0
 10
112.05
 20
387.857
 11
112.349
 21
387.895
  0
LINE
  8
0
 10
112.349
 20
387.895
 11
112.651
 21
387.895
  0
LINE
  8
0
 10
112.651
 20
387.895
 11
112.95
 21
387.857
  0
LINE
  8
0
 10
112.95
 20
387.857
 11
113.242
 21
387.783
  0
LINE
  8
0
 10
113.242
 20
387.783
 11
113.522
 21
387.672
  0
LINE
  8
0
 10
113.522
 20
387.672
 11
113.786
 21
387.526
  0
LINE
  8
0
 10
113.786
 20
387.526
 11
114.03
 21
387.349
  0
LINE
  8
0
 10
114.03
 20
387.349
 11
114.25
 21
387.143
  0
LINE
  8
0
 10
114.25
 20
387.143
 11
114.442
 21
386.911
  0
LINE
  8
0
 10
114.442
 20
386.911
 11
114.603
 21
386.656
  0
LINE
  8
0
 10
114.603
 20
386.656
 11
114.731
 21
386.383
  0
LINE
  8
0
 10
114.731
 20
386.383
 11
114.825
 21
386.097
  0
LINE
  8
0
 10
114.825
 20
386.097
 11
114.881
 21
385.801
  0
LINE
  8
0
 10
114.881
 20
385.801
 11
114.9
 21
385.5
  0
LINE
  8
0
 10
114.9
 20
385.5
 11
114.881
 21
385.199
  0
LINE
  8
0
 10
114.881
 20
385.199
 11
114.825
 21
384.903
  0
LINE
  8
0
 10
114.825
 20
384.903
 11
114.731
 21
384.617
  0
LINE
  8
0
 10
114.731
 20
384.617
 11
114.603
 21
384.344
  0
LINE
  8
0
 10
114.603
 20
384.344
 11
114.442
 21
384.089
  0
LINE
  8
0
 10
114.442
 20
384.089
 11
114.25
 21
383.857
  0
LINE
  8
0
 10
114.25
 20
383.857
 11
114.03
 21
383.651
  0
LINE
  8
0
 10
114.03
 20
383.651
 11
113.786
 21
383.474
  0
LINE
  8
0
 10
113.786
 20
383.474
 11
113.522
 21
383.328
  0
LINE
  8
0
 10
113.522
 20
383.328
 11
113.242
 21
383.217
  0
LINE
  8
0
 10
113.242
 20
383.217
 11
112.95
 21
383.143
  0
LINE
  8
0
 10
112.95
 20
383.143
 11
112.651
 21
383.105
  0
LINE
  8
0
 10
112.651
 20
383.105
 11
112.349
 21
383.105
  0
LINE
  8
0
 10
-112.651
 20
383.105
 11
-112.95
 21
383.143
  0
LINE
  8
0
 10
-112.95
 20
383.143
 11
-113.242
 21
383.217
  0
LINE
  8
0
 10
-113.242
 20
383.217
 11
-113.522
 21
383.328
  0
LINE
  8
0
 10
-113.522
 20
383.328
 11
-113.786
 21
383.474
  0
LINE
  8
0
 10
-113.786
 20
383.474
 11
-114.03
 21
383.651
  0
LINE
  8
0
 10
-114.03
 20
383.651
 11
-114.25
 21
383.857
  0
LINE
  8
0
 10
-114.25
 20
383.857
 11
-114.442
 21
384.089
  0
LINE
  8
0
 10
-114.442
 20
384.089
 11
-114.603
 21
384.344
  0
LINE
  8
0
 10
-114.603
 20
384.344
 11
-114.731
 21
384.617
  0
LINE
  8
0
 10
-114.731
 20
384.617
 11
-114.825
 21
384.903
  0
LINE
  8
0
 10
-114.825
 20
384.903
 11
-114.881
 21
385.199
  0
LINE
  8
0
 10
-114.881
 20
385.199
 11
-114.9
 21
385.5
  0
LINE
  8
0
 10
-114.9
 20
385.5
 11
-114.881
 21
385.801
  0
LINE
  8
0
 10
-114.881
 20
385.801
 11
-114.825
 21
386.097
  0
LINE
  8
0
 10
-114.825
 20
386.097
 11
-114.731
 21
386.383
  0
LINE
  8
0
 10
-114.731
 20
386.383
 11
-114.603
 21
386.656
  0
LINE
  8
0
 10
-114.603
 20
386.656
 11
-114.442
 21
386.911
  0
LINE
  8
0
 10
-114.442
 20
386.911
 11
-114.25
 21
387.143
  0
LINE
  8
0
 10
-114.25
 20
387.143
 11
-114.03
 21
387.349
  0
LINE
  8
0
 10
-114.03
 20
387.349
 11
-113.786
 21
387.526
  0
LINE
  8
0
 10
-113.786
 20
387.526
 11
-113.522
 21
387.672
  0
LINE
  8
0
 10
-113.522
 20
387.672
 11
-113.242
 21
387.783
  0
LINE
  8
0
 10
-113.242
 20
387.783
 11
-112.95
 21
387.857
  0
LINE
  8
0
 10
-112.95
 20
387.857
 11
-112.651
 21
387.895
  0
LINE
  8
0
 10
-112.651
 20
387.895
 11
-112.349
 21
387.895
  0
LINE
  8
0
 10
-112.349
 20
387.895
 11
-112.05
 21
387.857
  0
LINE
  8
0
 10
-112.05
 20
387.857
 11
-111.758
 21
387.783
  0
LINE
  8
0
 10
-111.758
 20
387.783
 11
-111.478
 21
387.672
  0
LINE
  8
0
 10
-111.478
 20
387.672
 11
-111.214
 21
387.526
  0
LINE
  8
0
 10
-111.214
 20
387.526
 11
-110.97
 21
387.349
  0
LINE
  8
0
 10
-110.97
 20
387.349
 11
-110.75
 21
387.143
  0
LINE
  8
0
 10
-110.75
 20
387.143
 11
-110.558
 21
386.911
  0
LINE
  8
0
 10
-110.558
 20
386.911
 11
-110.397
 21
386.656
  0
LINE
  8
0
 10
-110.397
 20
386.656
 11
-110.269
 21
386.383
  0
LINE
  8
0
 10
-110.269
 20
386.383
 11
-110.175
 21
386.097
  0
LINE
  8
0
 10
-110.175
 20
386.097
 11
-110.119
 21
385.801
  0
LINE
  8
0
 10
-110.119
 20
385.801
 11
-110.1
 21
385.5
  0
LINE
  8
0
 10
-110.1
 20
385.5
 11
-110.119
 21
385.199
  0
LINE
  8
0
 10
-110.119
 20
385.199
 11
-110.175
 21
384.903
  0
LINE
  8
0
 10
-110.175
 20
384.903
 11
-110.269
 21
384.617
  0
LINE
  8
0
 10
-110.269
 20
384.617
 11
-110.397
 21
384.344
  0
LINE
  8
0
 10
-110.397
 20
384.344
 11
-110.558
 21
384.089
  0
LINE
  8
0
 10
-110.558
 20
384.089
 11
-110.75
 21
383.857
  0
LINE
  8
0
 10
-110.75
 20
383.857
 11
-110.97
 21
383.651
  0
LINE
  8
0
 10
-110.97
 20
383.651
 11
-111.214
 21
383.474
  0
LINE
  8
0
 10
-111.214
 20
383.474
 11
-111.478
 21
383.328
  0
LINE
  8
0
 10
-111.478
 20
383.328
 11
-111.758
 21
383.217
  0
LINE
  8
0
 10
-111.758
 20
383.217
 11
-112.05
 21
383.143
  0
LINE
  8
0
 10
-112.05
 20
383.143
 11
-112.349
 21
383.105
  0
LINE
  8
0
 10
-112.349
 20
383.105
 11
-112.651
 21
383.105
  0
LINE
  8
0
 10
112.349
 20
248.105
 11
112.05
 21
248.143
  0
LINE
  8
0
 10
112.05
 20
248.143
 11
111.758
 21
248.217
  0
LINE
  8
0
 10
111.758
 20
248.217
 11
111.478
 21
248.328
  0
LINE
  8
0
 10
111.478
 20
248.328
 11
111.214
 21
248.474
  0
LINE
  8
0
 10
111.214
 20
248.474
 11
110.97
 21
248.651
  0
LINE
  8
0
 10
110.97
 20
248.651
 11
110.75
 21
248.857
  0
LINE
  8
0
 10
110.75
 20
248.857
 11
110.558
 21
249.089
  0
LINE
  8
0
 10
110.558
 20
249.089
 11
110.397
 21
249.344
  0
LINE
  8
0
 10
110.397
 20
249.344
 11
110.269
 21
249.617
  0
LINE
  8
0
 10
110.269
 20
249.617
 11
110.175
 21
249.903
  0
LINE
  8
0
 10
110.175
 20
249.903
 11
110.119
 21
250.199
  0
LINE
  8
0
 10
110.119
 20
250.199
 11
110.1
 21
250.5
  0
LINE
  8
0
 10
110.1
 20
250.5
 11
110.119
 21
250.801
  0
LINE
  8
0
 10
110.119
 20
250.801
 11
110.175
 21
251.097
  0
LINE
  8
0
 10
110.175
 20
251.097
 11
110.269
 21
251.383
  0
LINE
  8
0
 10
110.269
 20
251.383
 11
110.397
 21
251.656
  0
LINE
  8
0
 10
110.397
 20
251.656
 11
110.558
 21
251.911
  0
LINE
  8
0
 10
110.558
 20
251.911
 11
110.75
 21
252.143
  0
LINE
  8
0
 10
110.75
 20
252.143
 11
110.97
 21
252.349
  0
LINE
  8
0
 10
110.97
 20
252.349
 11
111.214
 21
252.526
  0
LINE
  8
0
 10
111.214
 20
252.526
 11
111.478
 21
252.672
  0
LINE
  8
0
 10
111.478
 20
252.672
 11
111.758
 21
252.783
  0
LINE
  8
0
 10
111.758
 20
252.783
 11
112.05
 21
252.857
  0
LINE
  8
0
 10
112.05
 20
252.857
 11
112.349
 21
252.895
  0
LINE
  8
0
 10
112.349
 20
252.895
 11
112.651
 21
252.895
  0
LINE
  8
0
 10
112.651
 20
252.895
 11
112.95
 21
252.857
  0
LINE
  8
0
 10
112.95
 20
252.857
 11
113.242
 21
252.783
  0
LINE
  8
0
 10
113.242
 20
252.783
 11
113.522
 21
252.672
  0
LINE
  8
0
 10
113.522
 20
252.672
 11
113.786
 21
252.526
  0
LINE
  8
0
 10
113.786
 20
252.526
 11
114.03
 21
252.349
  0
LINE
  8
0
 10
114.03
 20
252.349
 11
114.25
 21
252.143
  0
LINE
  8
0
 10
114.25
 20
252.143
 11
114.442
 21
251.911
  0
LINE
  8
0
 10
114.442
 20
251.911
 11
114.603
 21
251.656
  0
LINE
  8
0
 10
114.603
 20
251.656
 11
114.731
 21
251.383
  0
LINE
  8
0
 10
114.731
 20
251.383
 11
114.825
 21
251.097
  0
LINE
  8
0
 10
114.825
 20
251.097
 11
114.881
 21
250.801
  0
LINE
  8
0
 10
114.881
 20
250.801
 11
114.9
 21
250.5
  0
LINE
  8
0
 10
114.9
 20
250.5
 11
114.881
 21
250.199
  0
LINE
  8
0
 10
114.881
 20
250.199
 11
114.825
 21
249.903
  0
LINE
  8
0
 10
114.825
 20
249.903
 11
114.731
 21
249.617
  0
LINE
  8
0
 10
114.731
 20
249.617
 11
114.603
 21
249.344
  0
LINE
  8
0
 10
114.603
 20
249.344
 11
114.442
 21
249.089
  0
LINE
  8
0
 10
114.442
 20
249.089
 11
114.25
 21
248.857
  0
LINE
  8
0
 10
114.25
 20
248.857
 11
114.03
 21
248.651
  0
LINE
  8
0
 10
114.03
 20
248.651
 11
113.786
 21
248.474
  0
LINE
  8
0
 10
113.786
 20
248.474
 11
113.522
 21
248.328
  0
LINE
  8
0
 10
113.522
 20
248.328
 11
113.242
 21
248.217
  0
LINE
  8
0
 10
113.242
 20
248.217
 11
112.95
 21
248.143
  0
LINE
  8
0
 10
112.95
 20
248.143
 11
112.651
 21
248.105
  0
LINE
  8
0
 10
112.651
 20
248.105
 11
112.349
 21
248.105
  0
LINE
  8
0
 10
-112.651
 20
248.105
 11
-112.95
 21
248.143
  0
LINE
  8
0
 10
-112.95
 20
248.143
 11
-113.242
 21
248.217
  0
LINE
  8
0
 10
-113.242
 20
248.217
 11
-113.522
 21
248.328
  0
LINE
  8
0
 10
-113.522
 20
248.328
 11
-113.786
 21
248.474
  0
LINE
  8
0
 10
-113.786
 20
248.474
 11
-114.03
 21
248.651
  0
LINE
  8
0
 10
-114.03
 20
248.651
 11
-114.25
 21
248.857
  0
LINE
  8
0
 10
-114.25
 20
248.857
 11
-114.442
 21
249.089
  0
LINE
  8
0
 10
-114.442
 20
249.089
 11
-114.603
 21
249.344
  0
LINE
  8
0
 10
-114.603
 20
249.344
 11
-114.731
 21
249.617
  0
LINE
  8
0
 10
-114.731
 20
249.617
 11
-114.825
 21
249.903
  0
LINE
  8
0
 10
-114.825
 20
249.903
 11
-114.881
 21
250.199
  0
LINE
  8
0
 10
-114.881
 20
250.199
 11
-114.9
 21
250.5
  0
LINE
  8
0
 10
-114.9
 20
250.5
 11
-114.881
 21
250.801
  0
LINE
  8
0
 10
-114.881
 20
250.801
 11
-114.825
 21
251.097
  0
LINE
  8
0
 10
-114.825
 20
251.097
 11
-114.731
 21
251.383
  0
LINE
  8
0
 10
-114.731
 20
251.383
 11
-114.603
 21
251.656
  0
LINE
  8
0
 10
-114.603
 20
251.656
 11
-114.442
 21
251.911
  0
LINE
  8
0
 10
-114.442
 20
251.911
 11
-114.25
 21
252.143
  0
LINE
  8
0
 10
-114.25
 20
252.143
 11
-114.03
 21
252.349
  0
LINE
  8
0
 10
-114.03
 20
252.349
 11
-113.786
 21
252.526
  0
LINE
  8
0
 10
-113.786
 20
252.526
 11
-113.522
 21
252.672
  0
LINE
  8
0
 10
-113.522
 20
252.672
 11
-113.242
 21
252.783
  0
LINE
  8
0
 10
-113.242
 20
252.783
 11
-112.95
 21
252.857
  0
LINE
  8
0
 10
-112.95
 20
252.857
 11
-112.651
 21
252.895
  0
LINE
  8
0
 10
-112.651
 20
252.895
 11
-112.349
 21
252.895
  0
LINE
  8
0
 10
-112.349
 20
252.895
 11
-112.05
 21
252.857
  0
LINE
  8
0
 10
-112.05
 20
252.857
 11
-111.758
 21
252.783
  0
LINE
  8
0
 10
-111.758
 20
252.783
 11
-111.478
 21
252.672
  0
LINE
  8
0
 10
-111.478
 20
252.672
 11
-111.214
 21
252.526
  0
LINE
  8
0
 10
-111.214
 20
252.526
 11
-110.97
 21
252.349
  0
LINE
  8
0
 10
-110.97
 20
252.349
 11
-110.75
 21
252.143
  0
LINE
  8
0
 10
-110.75
 20
252.143
 11
-110.558
 21
251.911
  0
LINE
  8
0
 10
-110.558
 20
251.911
 11
-110.397
 21
251.656
  0
LINE
  8
0
 10
-110.397
 20
251.656
 11
-110.269
 21
251.383
  0
LINE
  8
0
 10
-110.269
 20
251.383
 11
-110.175
 21
251.097
  0
LINE
  8
0
 10
-110.175
 20
251.097
 11
-110.119
 21
250.801
  0
LINE
  8
0
 10
-110.119
 20
250.801
 11
-110.1
 21
250.5
  0
LINE
  8
0
 10
-110.1
 20
250.5
 11
-110.119
 21
250.199
  0
LINE
  8
0
 10
-110.119
 20
250.199
 11
-110.175
 21
249.903
  0
LINE
  8
0
 10
-110.175
 20
249.903
 11
-110.269
 21
249.617
  0
LINE
  8
0
 10
-110.269
 20
249.617
 11
-110.397
 21
249.344
  0
LINE
  8
0
 10
-110.397
 20
249.344
 11
-110.558
 21
249.089
  0
LINE
  8
0
 10
-110.558
 20
249.089
 11
-110.75
 21
248.857
  0
LINE
  8
0
 10
-110.75
 20
248.857
 11
-110.97
 21
248.651
  0
LINE
  8
0
 10
-110.97
 20
248.651
 11
-111.214
 21
248.474
  0
LINE
  8
0
 10
-111.214
 20
248.474
 11
-111.478
 21
248.328
  0
LINE
  8
0
 10
-111.478
 20
248.328
 11
-111.758
 21
248.217
  0
LINE
  8
0
 10
-111.758
 20
248.217
 11
-112.05
 21
248.143
  0
LINE
  8
0
 10
-112.05
 20
248.143
 11
-112.349
 21
248.105
  0
LINE
  8
0
 10
-112.349
 20
248.105
 11
-112.651
 21
248.105
  0
LINE
  8
0
 10
115.937
 20
84.0886
 11
116.545
 21
84.2447
  0
LINE
  8
0
 10
116.545
 20
84.2447
 11
117.129
 21
84.4759
  0
LINE
  8
0
 10
117.129
 20
84.4759
 11
117.679
 21
84.7784
  0
LINE
  8
0
 10
117.679
 20
84.7784
 11
118.187
 21
85.1474
  0
LINE
  8
0
 10
118.187
 20
85.1474
 11
118.645
 21
85.5773
  0
LINE
  8
0
 10
118.645
 20
85.5773
 11
119.045
 21
86.0611
  0
LINE
  8
0
 10
119.045
 20
86.0611
 11
119.382
 21
86.5912
  0
LINE
  8
0
 10
119.382
 20
86.5912
 11
119.649
 21
87.1594
  0
LINE
  8
0
 10
119.649
 20
87.1594
 11
119.843
 21
87.7566
  0
LINE
  8
0
 10
119.843
 20
87.7566
 11
119.961
 21
88.3733
  0
LINE
  8
0
 10
119.961
 20
88.3733
 11
120
 21
89
  0
LINE
  8
0
 10
120
 20
89
 11
120
 21
229
  0
LINE
  8
0
 10
120
 20
229
 11
119.961
 21
229.627
  0
LINE
  8
0
 10
119.961
 20
229.627
 11
119.843
 21
230.243
  0
LINE
  8
0
 10
119.843
 20
230.243
 11
119.649
 21
230.841
  0
LINE
  8
0
 10
119.649
 20
230.841
 11
119.382
 21
231.409
  0
LINE
  8
0
 10
119.382
 20
231.409
 11
119.045
 21
231.939
  0
LINE
  8
0
 10
119.045
 20
231.939
 11
118.645
 21
232.423
  0
LINE
  8
0
 10
118.645
 20
232.423
 11
118.187
 21
232.853
  0
LINE
  8
0
 10
118.187
 20
232.853
 11
117.679
 21
233.222
  0
LINE
  8
0
 10
117.679
 20
233.222
 11
117.129
 21
233.524
  0
LINE
  8
0
 10
117.129
 20
233.524
 11
116.545
 21
233.755
  0
LINE
  8
0
 10
116.545
 20
233.755
 11
115.937
 21
233.911
  0
LINE
  8
0
 10
115.937
 20
233.911
 11
115.314
 21
233.99
  0
LINE
  8
0
 10
115.314
 20
233.99
 11
-115.314
 21
233.99
  0
LINE
  8
0
 10
-115.314
 20
233.99
 11
-115.937
 21
233.911
  0
LINE
  8
0
 10
-115.937
 20
233.911
 11
-116.545
 21
233.755
  0
LINE
  8
0
 10
-116.545
 20
233.755
 11
-117.129
 21
233.524
  0
LINE
  8
0
 10
-117.129
 20
233.524
 11
-117.679
 21
233.222
  0
LINE
  8
0
 10
-117.679
 20
233.222
 11
-118.187
 21
232.853
  0
LINE
  8
0
 10
-118.187
 20
232.853
 11
-118.645
 21
232.423
  0
LINE
  8
0
 10
-118.645
 20
232.423
 11
-119.045
 21
231.939
  0
LINE
  8
0
 10
-119.045
 20
231.939
 11
-119.382
 21
231.409
  0
LINE
  8
0
 10
-119.382
 20
231.409
 11
-119.649
 21
230.841
  0
LINE
  8
0
 10
-119.649
 20
230.841
 11
-119.843
 21
230.243
  0
LINE
  8
0
 10
-119.843
 20
230.243
 11
-119.9
 21
229.944
  0
LINE
  8
0
 10
-119.9
 20
229.944
 11
-121.5
 21
229.944
  0
LINE
  8
0
 10
-121.5
 20
229.944
 11
-121.5
 21
88.0558
  0
LINE
  8
0
 10
-121.5
 20
88.0558
 11
-119.9
 21
88.0558
  0
LINE
  8
0
 10
-119.9
 20
88.0558
 11
-119.843
 21
87.7566
  0
LINE
  8
0
 10
-119.843
 20
87.7566
 11
-119.649
 21
87.1594
  0
LINE
  8
0
 10
-119.649
 20
87.1594
 11
-119.382
 21
86.5912
  0
LINE
  8
0
 10
-119.382
 20
86.5912
 11
-119.045
 21
86.0611
  0
LINE
  8
0
 10
-119.045
 20
86.0611
 11
-118.645
 21
85.5773
  0
LINE
  8
0
 10
-118.645
 20
85.5773
 11
-118.187
 21
85.1474
  0
LINE
  8
0
 10
-118.187
 20
85.1474
 11
-117.679
 21
84.7784
  0
LINE
  8
0
 10
-117.679
 20
84.7784
 11
-117.129
 21
84.4759
  0
LINE
  8
0
 10
-117.129
 20
84.4759
 11
-116.545
 21
84.2447
  0
LINE
  8
0
 10
-116.545
 20
84.2447
 11
-115.937
 21
84.0886
  0
LINE
  8
0
 10
-115.937
 20
84.0886
 11
-115.314
 21
84.0099
  0
LINE
  8
0
 10
-115.314
 20
84.0099
 11
115.314
 21
84.0099
  0
LINE
  8
0
 10
115.314
 20
84.0099
 11
115.937
 21
84.0886
  0
LINE
  8
0
 10
112.387
 20
224.704
 11
112.163
 21
224.732
  0
LINE
  8
0
 10
112.163
 20
224.732
 11
111.944
 21
224.788
  0
LINE
  8
0
 10
111.944
 20
224.788
 11
111.734
 21
224.871
  0
LINE
  8
0
 10
111.734
 20
224.871
 11
111.536
 21
224.98
  0
LINE
  8
0
 10
111.536
 20
224.98
 11
111.353
 21
225.113
  0
LINE
  8
0
 10
111.353
 20
225.113
 11
111.188
 21
225.268
  0
LINE
  8
0
 10
111.188
 20
225.268
 11
111.044
 21
225.442
  0
LINE
  8
0
 10
111.044
 20
225.442
 11
110.923
 21
225.633
  0
LINE
  8
0
 10
110.923
 20
225.633
 11
110.826
 21
225.837
  0
LINE
  8
0
 10
110.826
 20
225.837
 11
110.757
 21
226.052
  0
LINE
  8
0
 10
110.757
 20
226.052
 11
110.714
 21
226.274
  0
LINE
  8
0
 10
110.714
 20
226.274
 11
110.7
 21
226.5
  0
LINE
  8
0
 10
110.7
 20
226.5
 11
110.714
 21
226.726
  0
LINE
  8
0
 10
110.714
 20
226.726
 11
110.757
 21
226.948
  0
LINE
  8
0
 10
110.757
 20
226.948
 11
110.826
 21
227.163
  0
LINE
  8
0
 10
110.826
 20
227.163
 11
110.923
 21
227.367
  0
LINE
  8
0
 10
110.923
 20
227.367
 11
111.044
 21
227.558
  0
LINE
  8
0
 10
111.044
 20
227.558
 11
111.188
 21
227.732
  0
LINE
  8
0
 10
111.188
 20
227.732
 11
111.353
 21
227.887
  0
LINE
  8
0
 10
111.353
 20
227.887
 11
111.536
 21
228.02
  0
LINE
  8
0
 10
111.536
 20
228.02
 11
111.734
 21
228.129
  0
LINE
  8
0
 10
111.734
 20
228.129
 11
111.944
 21
228.212
  0
LINE
  8
0
 10
111.944
 20
228.212
 11
112.163
 21
228.268
  0
LINE
  8
0
 10
112.163
 20
228.268
 11
112.387
 21
228.296
  0
LINE
  8
0
 10
112.387
 20
228.296
 11
112.613
 21
228.296
  0
LINE
  8
0
 10
112.613
 20
228.296
 11
112.837
 21
228.268
  0
LINE
  8
0
 10
112.837
 20
228.268
 11
113.056
 21
228.212
  0
LINE
  8
0
 10
113.056
 20
228.212
 11
113.266
 21
228.129
  0
LINE
  8
0
 10
113.266
 20
228.129
 11
113.464
 21
228.02
  0
LINE
  8
0
 10
113.464
 20
228.02
 11
113.647
 21
227.887
  0
LINE
  8
0
 10
113.647
 20
227.887
 11
113.812
 21
227.732
  0
LINE
  8
0
 10
113.812
 20
227.732
 11
113.956
 21
227.558
  0
LINE
  8
0
 10
113.956
 20
227.558
 11
114.077
 21
227.367
  0
LINE
  8
0
 10
114.077
 20
227.367
 11
114.174
 21
227.163
  0
LINE
  8
0
 10
114.174
 20
227.163
 11
114.243
 21
226.948
  0
LINE
  8
0
 10
114.243
 20
226.948
 11
114.286
 21
226.726
  0
LINE
  8
0
 10
114.286
 20
226.726
 11
114.3
 21
226.5
  0
LINE
  8
0
 10
114.3
 20
226.5
 11
114.286
 21
226.274
  0
LINE
  8
0
 10
114.286
 20
226.274
 11
114.243
 21
226.052
  0
LINE
  8
0
 10
114.243
 20
226.052
 11
114.174
 21
225.837
  0
LINE
  8
0
 10
114.174
 20
225.837
 11
114.077
 21
225.633
  0
LINE
  8
0
 10
114.077
 20
225.633
 11
113.956
 21
225.442
  0
LINE
  8
0
 10
113.956
 20
225.442
 11
113.812
 21
225.268
  0
LINE
  8
0
 10
113.812
 20
225.268
 11
113.647
 21
225.113
  0
LINE
  8
0
 10
113.647
 20
225.113
 11
113.464
 21
224.98
  0
LINE
  8
0
 10
113.464
 20
224.98
 11
113.266
 21
224.871
  0
LINE
  8
0
 10
113.266
 20
224.871
 11
113.056
 21
224.788
  0
LINE
  8
0
 10
113.056
 20
224.788
 11
112.837
 21
224.732
  0
LINE
  8
0
 10
112.837
 20
224.732
 11
112.613
 21
224.704
  0
LINE
  8
0
 10
112.613
 20
224.704
 11
112.387
 21
224.704
  0
LINE
  8
0
 10
-112.613
 20
224.704
 11
-112.837
 21
224.732
  0
LINE
  8
0
 10
-112.837
 20
224.732
 11
-113.056
 21
224.788
  0
LINE
  8
0
 10
-113.056
 20
224.788
 11
-113.266
 21
224.871
  0
LINE
  8
0
 10
-113.266
 20
224.871
 11
-113.464
 21
224.98
  0
LINE
  8
0
 10
-113.464
 20
224.98
 11
-113.647
 21
225.113
  0
LINE
  8
0
 10
-113.647
 20
225.113
 11
-113.812
 21
225.268
  0
LINE
  8
0
 10
-113.812
 20
225.268
 11
-113.956
 21
225.442
  0
LINE
  8
0
 10
-113.956
 20
225.442
 11
-114.077
 21
225.633
  0
LINE
  8
0
 10
-114.077
 20
225.633
 11
-114.174
 21
225.837
  0
LINE
  8
0
 10
-114.174
 20
225.837
 11
-114.243
 21
226.052
  0
LINE
  8
0
 10
-114.243
 20
226.052
 11
-114.286
 21
226.274
  0
LINE
  8
0
 10
-114.286
 20
226.274
 11
-114.3
 21
226.5
  0
LINE
  8
0
 10
-114.3
 20
226.5
 11
-114.286
 21
226.726
  0
LINE
  8
0
 10
-114.286
 20
226.726
 11
-114.243
 21
226.948
  0
LINE
  8
0
 10
-114.243
 20
226.948
 11
-114.174
 21
227.163
  0
LINE
  8
0
 10
-114.174
 20
227.163
 11
-114.077
 21
227.367
  0
LINE
  8
0
 10
-114.077
 20
227.367
 11
-113.956
 21
227.558
  0
LINE
  8
0
 10
-113.956
 20
227.558
 11
-113.812
 21
227.732
  0
LINE
  8
0
 10
-113.812
 20
227.732
 11
-113.647
 21
227.887
  0
LINE
  8
0
 10
-113.647
 20
227.887
 11
-113.464
 21
228.02
  0
LINE
  8
0
 10
-113.464
 20
228.02
 11
-113.266
 21
228.129
  0
LINE
  8
0
 10
-113.266
 20
228.129
 11
-113.056
 21
228.212
  0
LINE
  8
0
 10
-113.056
 20
228.212
 11
-112.837
 21
228.268
  0
LINE
  8
0
 10
-112.837
 20
228.268
 11
-112.613
 21
228.296
  0
LINE
  8
0
 10
-112.613
 20
228.296
 11
-112.387
 21
228.296
  0
LINE
  8
0
 10
-112.387
 20
228.296
 11
-112.163
 21
228.268
  0
LINE
  8
0
 10
-112.163
 20
228.268
 11
-111.944
 21
228.212
  0
LINE
  8
0
 10
-111.944
 20
228.212
 11
-111.734
 21
228.129
  0
LINE
  8
0
 10
-111.734
 20
228.129
 11
-111.536
 21
228.02
  0
LINE
  8
0
 10
-111.536
 20
228.02
 11
-111.353
 21
227.887
  0
LINE
  8
0
 10
-111.353
 20
227.887
 11
-111.188
 21
227.732
  0
LINE
  8
0
 10
-111.188
 20
227.732
 11
-111.044
 21
227.558
  0
LINE
  8
0
 10
-111.044
 20
227.558
 11
-110.923
 21
227.367
  0
LINE
  8
0
 10
-110.923
 20
227.367
 11
-110.826
 21
227.163
  0
LINE
  8
0
 10
-110.826
 20
227.163
 11
-110.757
 21
226.948
  0
LINE
  8
0
 10
-110.757
 20
226.948
 11
-110.714
 21
226.726
  0
LINE
  8
0
 10
-110.714
 20
226.726
 11
-110.7
 21
226.5
  0
LINE
  8
0
 10
-110.7
 20
226.5
 11
-110.714
 21
226.274
  0
LINE
  8
0
 10
-110.714
 20
226.274
 11
-110.757
 21
226.052
  0
LINE
  8
0
 10
-110.757
 20
226.052
 11
-110.826
 21
225.837
  0
LINE
  8
0
 10
-110.826
 20
225.837
 11
-110.923
 21
225.633
  0
LINE
  8
0
 10
-110.923
 20
225.633
 11
-111.044
 21
225.442
  0
LINE
  8
0
 10
-111.044
 20
225.442
 11
-111.188
 21
225.268
  0
LINE
  8
0
 10
-111.188
 20
225.268
 11
-111.353
 21
225.113
  0
LINE
  8
0
 10
-111.353
 20
225.113
 11
-111.536
 21
224.98
  0
LINE
  8
0
 10
-111.536
 20
224.98
 11
-111.734
 21
224.871
  0
LINE
  8
0
 10
-111.734
 20
224.871
 11
-111.944
 21
224.788
  0
LINE
  8
0
 10
-111.944
 20
224.788
 11
-112.163
 21
224.732
  0
LINE
  8
0
 10
-112.163
 20
224.732
 11
-112.387
 21
224.704
  0
LINE
  8
0
 10
-112.387
 20
224.704
 11
-112.613
 21
224.704
  0
LINE
  8
0
 10
112.387
 20
89.7036
 11
112.163
 21
89.7319
  0
LINE
  8
0
 10
112.163
 20
89.7319
 11
111.944
 21
89.7881
  0
LINE
  8
0
 10
111.944
 20
89.7881
 11
111.734
 21
89.8713
  0
LINE
  8
0
 10
111.734
 20
89.8713
 11
111.536
 21
89.9802
  0
LINE
  8
0
 10
111.536
 20
89.9802
 11
111.353
 21
90.1131
  0
LINE
  8
0
 10
111.353
 20
90.1131
 11
111.188
 21
90.2678
  0
LINE
  8
0
 10
111.188
 20
90.2678
 11
111.044
 21
90.442
  0
LINE
  8
0
 10
111.044
 20
90.442
 11
110.923
 21
90.6328
  0
LINE
  8
0
 10
110.923
 20
90.6328
 11
110.826
 21
90.8374
  0
LINE
  8
0
 10
110.826
 20
90.8374
 11
110.757
 21
91.0524
  0
LINE
  8
0
 10
110.757
 20
91.0524
 11
110.714
 21
91.2744
  0
LINE
  8
0
 10
110.714
 20
91.2744
 11
110.7
 21
91.5
  0
LINE
  8
0
 10
110.7
 20
91.5
 11
110.714
 21
91.7256
  0
LINE
  8
0
 10
110.714
 20
91.7256
 11
110.757
 21
91.9476
  0
LINE
  8
0
 10
110.757
 20
91.9476
 11
110.826
 21
92.1626
  0
LINE
  8
0
 10
110.826
 20
92.1626
 11
110.923
 21
92.3672
  0
LINE
  8
0
 10
110.923
 20
92.3672
 11
111.044
 21
92.558
  0
LINE
  8
0
 10
111.044
 20
92.558
 11
111.188
 21
92.7322
  0
LINE
  8
0
 10
111.188
 20
92.7322
 11
111.353
 21
92.8869
  0
LINE
  8
0
 10
111.353
 20
92.8869
 11
111.536
 21
93.0198
  0
LINE
  8
0
 10
111.536
 20
93.0198
 11
111.734
 21
93.1287
  0
LINE
  8
0
 10
111.734
 20
93.1287
 11
111.944
 21
93.2119
  0
LINE
  8
0
 10
111.944
 20
93.2119
 11
112.163
 21
93.2681
  0
LINE
  8
0
 10
112.163
 20
93.2681
 11
112.387
 21
93.2964
  0
LINE
  8
0
 10
112.387
 20
93.2964
 11
112.613
 21
93.2964
  0
LINE
  8
0
 10
112.613
 20
93.2964
 11
112.837
 21
93.2681
  0
LINE
  8
0
 10
112.837
 20
93.2681
 11
113.056
 21
93.2119
  0
LINE
  8
0
 10
113.056
 20
93.2119
 11
113.266
 21
93.1287
  0
LINE
  8
0
 10
113.266
 20
93.1287
 11
113.464
 21
93.0198
  0
LINE
  8
0
 10
113.464
 20
93.0198
 11
113.647
 21
92.8869
  0
LINE
  8
0
 10
113.647
 20
92.8869
 11
113.812
 21
92.7322
  0
LINE
  8
0
 10
113.812
 20
92.7322
 11
113.956
 21
92.558
  0
LINE
  8
0
 10
113.956
 20
92.558
 11
114.077
 21
92.3672
  0
LINE
  8
0
 10
114.077
 20
92.3672
 11
114.174
 21
92.1626
  0
LINE
  8
0
 10
114.174
 20
92.1626
 11
114.243
 21
91.9476
  0
LINE
  8
0
 10
114.243
 20
91.9476
 11
114.286
 21
91.7256
  0
LINE
  8
0
 10
114.286
 20
91.7256
 11
114.3
 21
91.5
  0
LINE
  8
0
 10
114.3
 20
91.5
 11
114.286
 21
91.2744
  0
LINE
  8
0
 10
114.286
 20
91.2744
 11
114.243
 21
91.0524
  0
LINE
  8
0
 10
114.243
 20
91.0524
 11
114.174
 21
90.8374
  0
LINE
  8
0
 10
114.174
 20
90.8374
 11
114.077
 21
90.6328
  0
LINE
  8
0
 10
114.077
 20
90.6328
 11
113.956
 21
90.442
  0
LINE
  8
0
 10
113.956
 20
90.442
 11
113.812
 21
90.2678
  0
LINE
  8
0
 10
113.812
 20
90.2678
 11
113.647
 21
90.1131
  0
LINE
  8
0
 10
113.647
 20
90.1131
 11
113.464
 21
89.9802
  0
LINE
  8
0
 10
113.464
 20
89.9802
 11
113.266
 21
89.8713
  0
LINE
  8
0
 10
113.266
 20
89.8713
 11
113.056
 21
89.7881
  0
LINE
  8
0
 10
113.056
 20
89.7881
 11
112.837
 21
89.7319
  0
LINE
  8
0
 10
112.837
 20
89.7319
 11
112.613
 21
89.7036
  0
LINE
  8
0
 10
112.613
 20
89.7036
 11
112.387
 21
89.7036
  0
LINE
  8
0
 10
-112.613
 20
89.7036
 11
-112.837
 21
89.7319
  0
LINE
  8
0
 10
-112.837
 20
89.7319
 11
-113.056
 21
89.7881
  0
LINE
  8
0
 10
-113.056
 20
89.7881
 11
-113.266
 21
89.8713
  0
LINE
  8
0
 10
-113.266
 20
89.8713
 11
-113.464
 21
89.9802
  0
LINE
  8
0
 10
-113.464
 20
89.9802
 11
-113.647
 21
90.1131
  0
LINE
  8
0
 10
-113.647
 20
90.1131
 11
-113.812
 21
90.2678
  0
LINE
  8
0
 10
-113.812
 20
90.2678
 11
-113.956
 21
90.442
  0
LINE
  8
0
 10
-113.956
 20
90.442
 11
-114.077
 21
90.6328
  0
LINE
  8
0
 10
-114.077
 20
90.6328
 11
-114.174
 21
90.8374
  0
LINE
  8
0
 10
-114.174
 20
90.8374
 11
-114.243
 21
91.0524
  0
LINE
  8
0
 10
-114.243
 20
91.0524
 11
-114.286
 21
91.2744
  0
LINE
  8
0
 10
-114.286
 20
91.2744
 11
-114.3
 21
91.5
  0
LINE
  8
0
 10
-114.3
 20
91.5
 11
-114.286
 21
91.7256
  0
LINE
  8
0
 10
-114.286
 20
91.7256
 11
-114.243
 21
91.9476
  0
LINE
  8
0
 10
-114.243
 20
91.9476
 11
-114.174
 21
92.1626
  0
LINE
  8
0
 10
-114.174
 20
92.1626
 11
-114.077
 21
92.3672
  0
LINE
  8
0
 10
-114.077
 20
92.3672
 11
-113.956
 21
92.558
  0
LINE
  8
0
 10
-113.956
 20
92.558
 11
-113.812
 21
92.7322
  0
LINE
  8
0
 10
-113.812
 20
92.7322
 11
-113.647
 21
92.8869
  0
LINE
  8
0
 10
-113.647
 20
92.8869
 11
-113.464
 21
93.0198
  0
LINE
  8
0
 10
-113.464
 20
93.0198
 11
-113.266
 21
93.1287
  0
LINE
  8
0
 10
-113.266
 20
93.1287
 11
-113.056
 21
93.2119
  0
LINE
  8
0
 10
-113.056
 20
93.2119
 11
-112.837
 21
93.2681
  0
LINE
  8
0
 10
-112.837
 20
93.2681
 11
-112.613
 21
93.2964
  0
LINE
  8
0
 10
-112.613
 20
93.2964
 11
-112.387
 21
93.2964
  0
LINE
  8
0
 10
-112.387
 20
93.2964
 11
-112.163
 21
93.2681
  0
LINE
  8
0
 10
-112.163
 20
93.2681
 11
-111.944
 21
93.2119
  0
LINE
  8
0
 10
-111.944
 20
93.2119
 11
-111.734
 21
93.1287
  0
LINE
  8
0
 10
-111.734
 20
93.1287
 11
-111.536
 21
93.0198
  0
LINE
  8
0
 10
-111.536
 20
93.0198
 11
-111.353
 21
92.8869
  0
LINE
  8
0
 10
-111.353
 20
92.8869
 11
-111.188
 21
92.7322
  0
LINE
  8
0
 10
-111.188
 20
92.7322
 11
-111.044
 21
92.558
  0
LINE
  8
0
 10
-111.044
 20
92.558
 11
-110.923
 21
92.3672
  0
LINE
  8
0
 10
-110.923
 20
92.3672
 11
-110.826
 21
92.1626
  0
LINE
  8
0
 10
-110.826
 20
92.1626
 11
-110.757
 21
91.9476
  0
LINE
  8
0
 10
-110.757
 20
91.9476
 11
-110.714
 21
91.7256
  0
LINE
  8
0
 10
-110.714
 20
91.7256
 11
-110.7
 21
91.5
  0
LINE
  8
0
 10
-110.7
 20
91.5
 11
-110.714
 21
91.2744
  0
LINE
  8
0
 10
-110.714
 20
91.2744
 11
-110.757
 21
91.0524
  0
LINE
  8
0
 10
-110.757
 20
91.0524
 11
-110.826
 21
90.8374
  0
LINE
  8
0
 10
-110.826
 20
90.8374
 11
-110.923
 21
90.6328
  0
LINE
  8
0
 10
-110.923
 20
90.6328
 11
-111.044
 21
90.442
  0
LINE
  8
0
 10
-111.044
 20
90.442
 11
-111.188
 21
90.2678
  0
LINE
  8
0
 10
-111.188
 20
90.2678
 11
-111.353
 21
90.1131
  0
LINE
  8
0
 10
-111.353
 20
90.1131
 11
-111.536
 21
89.9802
  0
LINE
  8
0
 10
-111.536
 20
89.9802
 11
-111.734
 21
89.8713
  0
LINE
  8
0
 10
-111.734
 20
89.8713
 11
-111.944
 21
89.7881
  0
LINE
  8
0
 10
-111.944
 20
89.7881
 11
-112.163
 21
89.7319
  0
LINE
  8
0
 10
-112.163
 20
89.7319
 11
-112.387
 21
89.7036
  0
LINE
  8
0
 10
-112.387
 20
89.7036
 11
-112.613
 21
89.7036
  0
ENDSEC
  0
SECTION
  2
OBJECTS
  0
DICTIONARY
  0
ENDSEC
  0
EOF
