  0
SECTION
  2
BLOCKS
  0
ENDSEC
  0
SECTION
  2
ENTITIES
  0
LINE
  8
0
 10
138.437
 20
1033.59
 11
139.045
 21
1033.74
  0
LINE
  8
0
 10
139.045
 20
1033.74
 11
139.629
 21
1033.98
  0
LINE
  8
0
 10
139.629
 20
1033.98
 11
140.179
 21
1034.28
  0
LINE
  8
0
 10
140.179
 20
1034.28
 11
140.687
 21
1034.65
  0
LINE
  8
0
 10
140.687
 20
1034.65
 11
141.145
 21
1035.08
  0
LINE
  8
0
 10
141.145
 20
1035.08
 11
141.545
 21
1035.56
  0
LINE
  8
0
 10
141.545
 20
1035.56
 11
141.882
 21
1036.09
  0
LINE
  8
0
 10
141.882
 20
1036.09
 11
142.149
 21
1036.66
  0
LINE
  8
0
 10
142.149
 20
1036.66
 11
142.343
 21
1037.26
  0
LINE
  8
0
 10
142.343
 20
1037.26
 11
142.461
 21
1037.87
  0
LINE
  8
0
 10
142.461
 20
1037.87
 11
142.5
 21
1038.5
  0
LINE
  8
0
 10
142.5
 20
1038.5
 11
142.5
 21
1313.5
  0
LINE
  8
0
 10
142.5
 20
1313.5
 11
142.461
 21
1314.13
  0
LINE
  8
0
 10
142.461
 20
1314.13
 11
142.343
 21
1314.74
  0
LINE
  8
0
 10
142.343
 20
1314.74
 11
142.149
 21
1315.34
  0
LINE
  8
0
 10
142.149
 20
1315.34
 11
141.882
 21
1315.91
  0
LINE
  8
0
 10
141.882
 20
1315.91
 11
141.545
 21
1316.44
  0
LINE
  8
0
 10
141.545
 20
1316.44
 11
141.145
 21
1316.92
  0
LINE
  8
0
 10
141.145
 20
1316.92
 11
140.687
 21
1317.35
  0
LINE
  8
0
 10
140.687
 20
1317.35
 11
140.179
 21
1317.72
  0
LINE
  8
0
 10
140.179
 20
1317.72
 11
139.629
 21
1318.02
  0
LINE
  8
0
 10
139.629
 20
1318.02
 11
139.045
 21
1318.26
  0
LINE
  8
0
 10
139.045
 20
1318.26
 11
138.437
 21
1318.41
  0
LINE
  8
0
 10
138.437
 20
1318.41
 11
137.814
 21
1318.49
  0
LINE
  8
0
 10
137.814
 20
1318.49
 11
-137.814
 21
1318.49
  0
LINE
  8
0
 10
-137.814
 20
1318.49
 11
-138.437
 21
1318.41
  0
LINE
  8
0
 10
-138.437
 20
1318.41
 11
-139.045
 21
1318.26
  0
LINE
  8
0
 10
-139.045
 20
1318.26
 11
-139.629
 21
1318.02
  0
LINE
  8
0
 10
-139.629
 20
1318.02
 11
-140.179
 21
1317.72
  0
LINE
  8
0
 10
-140.179
 20
1317.72
 11
-140.687
 21
1317.35
  0
LINE
  8
0
 10
-140.687
 20
1317.35
 11
-141.145
 21
1316.92
  0
LINE
  8
0
 10
-141.145
 20
1316.92
 11
-141.545
 21
1316.44
  0
LINE
  8
0
 10
-141.545
 20
1316.44
 11
-141.882
 21
1315.91
  0
LINE
  8
0
 10
-141.882
 20
1315.91
 11
-142.149
 21
1315.34
  0
LINE
  8
0
 10
-142.149
 20
1315.34
 11
-142.343
 21
1314.74
  0
LINE
  8
0
 10
-142.343
 20
1314.74
 11
-142.461
 21
1314.13
  0
LINE
  8
0
 10
-142.461
 20
1314.13
 11
-142.5
 21
1313.5
  0
LINE
  8
0
 10
-142.5
 20
1313.5
 11
-142.5
 21
1038.5
  0
LINE
  8
0
 10
-142.5
 20
1038.5
 11
-142.461
 21
1037.87
  0
LINE
  8
0
 10
-142.461
 20
1037.87
 11
-142.343
 21
1037.26
  0
LINE
  8
0
 10
-142.343
 20
1037.26
 11
-142.149
 21
1036.66
  0
LINE
  8
0
 10
-142.149
 20
1036.66
 11
-141.882
 21
1036.09
  0
LINE
  8
0
 10
-141.882
 20
1036.09
 11
-141.545
 21
1035.56
  0
LINE
  8
0
 10
-141.545
 20
1035.56
 11
-141.145
 21
1035.08
  0
LINE
  8
0
 10
-141.145
 20
1035.08
 11
-140.687
 21
1034.65
  0
LINE
  8
0
 10
-140.687
 20
1034.65
 11
-140.179
 21
1034.28
  0
LINE
  8
0
 10
-140.179
 20
1034.28
 11
-139.629
 21
1033.98
  0
LINE
  8
0
 10
-139.629
 20
1033.98
 11
-139.045
 21
1033.74
  0
LINE
  8
0
 10
-139.045
 20
1033.74
 11
-138.437
 21
1033.59
  0
LINE
  8
0
 10
-138.437
 20
1033.59
 11
-137.814
 21
1033.51
  0
LINE
  8
0
 10
-137.814
 20
1033.51
 11
137.814
 21
1033.51
  0
LINE
  8
0
 10
137.814
 20
1033.51
 11
138.437
 21
1033.59
  0
LINE
  8
0
 10
-137.548
 20
1034.01
 11
-138.14
 21
1034.08
  0
LINE
  8
0
 10
-138.14
 20
1034.08
 11
-138.718
 21
1034.23
  0
LINE
  8
0
 10
-138.718
 20
1034.23
 11
-139.272
 21
1034.45
  0
LINE
  8
0
 10
-139.272
 20
1034.45
 11
-139.795
 21
1034.74
  0
LINE
  8
0
 10
-139.795
 20
1034.74
 11
-140.278
 21
1035.09
  0
LINE
  8
0
 10
-140.278
 20
1035.09
 11
-140.713
 21
1035.5
  0
LINE
  8
0
 10
-140.713
 20
1035.5
 11
-141.093
 21
1035.96
  0
LINE
  8
0
 10
-141.093
 20
1035.96
 11
-141.412
 21
1036.46
  0
LINE
  8
0
 10
-141.412
 20
1036.46
 11
-141.666
 21
1037
  0
LINE
  8
0
 10
-141.666
 20
1037
 11
-141.851
 21
1037.57
  0
LINE
  8
0
 10
-141.851
 20
1037.57
 11
-141.963
 21
1038.15
  0
LINE
  8
0
 10
-141.963
 20
1038.15
 11
-142
 21
1038.75
  0
LINE
  8
0
 10
-142
 20
1038.75
 11
-142
 21
1313.25
  0
LINE
  8
0
 10
-142
 20
1313.25
 11
-141.963
 21
1313.85
  0
LINE
  8
0
 10
-141.963
 20
1313.85
 11
-141.851
 21
1314.43
  0
LINE
  8
0
 10
-141.851
 20
1314.43
 11
-141.666
 21
1315
  0
LINE
  8
0
 10
-141.666
 20
1315
 11
-141.412
 21
1315.54
  0
LINE
  8
0
 10
-141.412
 20
1315.54
 11
-141.093
 21
1316.04
  0
LINE
  8
0
 10
-141.093
 20
1316.04
 11
-140.713
 21
1316.5
  0
LINE
  8
0
 10
-140.713
 20
1316.5
 11
-140.278
 21
1316.91
  0
LINE
  8
0
 10
-140.278
 20
1316.91
 11
-139.795
 21
1317.26
  0
LINE
  8
0
 10
-139.795
 20
1317.26
 11
-139.272
 21
1317.55
  0
LINE
  8
0
 10
-139.272
 20
1317.55
 11
-138.718
 21
1317.77
  0
LINE
  8
0
 10
-138.718
 20
1317.77
 11
-138.14
 21
1317.92
  0
LINE
  8
0
 10
-138.14
 20
1317.92
 11
-137.548
 21
1317.99
  0
LINE
  8
0
 10
-137.548
 20
1317.99
 11
137.548
 21
1317.99
  0
LINE
  8
0
 10
137.548
 20
1317.99
 11
138.14
 21
1317.92
  0
LINE
  8
0
 10
138.14
 20
1317.92
 11
138.718
 21
1317.77
  0
LINE
  8
0
 10
138.718
 20
1317.77
 11
139.272
 21
1317.55
  0
LINE
  8
0
 10
139.272
 20
1317.55
 11
139.795
 21
1317.26
  0
LINE
  8
0
 10
139.795
 20
1317.26
 11
140.278
 21
1316.91
  0
LINE
  8
0
 10
140.278
 20
1316.91
 11
140.713
 21
1316.5
  0
LINE
  8
0
 10
140.713
 20
1316.5
 11
141.093
 21
1316.04
  0
LINE
  8
0
 10
141.093
 20
1316.04
 11
141.412
 21
1315.54
  0
LINE
  8
0
 10
141.412
 20
1315.54
 11
141.666
 21
1315
  0
LINE
  8
0
 10
141.666
 20
1315
 11
141.851
 21
1314.43
  0
LINE
  8
0
 10
141.851
 20
1314.43
 11
141.963
 21
1313.85
  0
LINE
  8
0
 10
141.963
 20
1313.85
 11
142
 21
1313.25
  0
LINE
  8
0
 10
142
 20
1313.25
 11
142
 21
1038.75
  0
LINE
  8
0
 10
142
 20
1038.75
 11
141.963
 21
1038.15
  0
LINE
  8
0
 10
141.963
 20
1038.15
 11
141.851
 21
1037.57
  0
LINE
  8
0
 10
141.851
 20
1037.57
 11
141.666
 21
1037
  0
LINE
  8
0
 10
141.666
 20
1037
 11
141.412
 21
1036.46
  0
LINE
  8
0
 10
141.412
 20
1036.46
 11
141.093
 21
1035.96
  0
LINE
  8
0
 10
141.093
 20
1035.96
 11
140.713
 21
1035.5
  0
LINE
  8
0
 10
140.713
 20
1035.5
 11
140.278
 21
1035.09
  0
LINE
  8
0
 10
140.278
 20
1035.09
 11
139.795
 21
1034.74
  0
LINE
  8
0
 10
139.795
 20
1034.74
 11
139.272
 21
1034.45
  0
LINE
  8
0
 10
139.272
 20
1034.45
 11
138.718
 21
1034.23
  0
LINE
  8
0
 10
138.718
 20
1034.23
 11
138.14
 21
1034.08
  0
LINE
  8
0
 10
138.14
 20
1034.08
 11
137.548
 21
1034.01
  0
LINE
  8
0
 10
137.548
 20
1034.01
 11
-137.548
 21
1034.01
  0
LINE
  8
0
 10
138.437
 20
739.589
 11
139.045
 21
739.745
  0
LINE
  8
0
 10
139.045
 20
739.745
 11
139.629
 21
739.976
  0
LINE
  8
0
 10
139.629
 20
739.976
 11
140.179
 21
740.278
  0
LINE
  8
0
 10
140.179
 20
740.278
 11
140.687
 21
740.647
  0
LINE
  8
0
 10
140.687
 20
740.647
 11
141.145
 21
741.077
  0
LINE
  8
0
 10
141.145
 20
741.077
 11
141.545
 21
741.561
  0
LINE
  8
0
 10
141.545
 20
741.561
 11
141.882
 21
742.091
  0
LINE
  8
0
 10
141.882
 20
742.091
 11
142.149
 21
742.659
  0
LINE
  8
0
 10
142.149
 20
742.659
 11
142.343
 21
743.257
  0
LINE
  8
0
 10
142.343
 20
743.257
 11
142.461
 21
743.873
  0
LINE
  8
0
 10
142.461
 20
743.873
 11
142.5
 21
744.5
  0
LINE
  8
0
 10
142.5
 20
744.5
 11
142.5
 21
1019.5
  0
LINE
  8
0
 10
142.5
 20
1019.5
 11
142.461
 21
1020.13
  0
LINE
  8
0
 10
142.461
 20
1020.13
 11
142.343
 21
1020.74
  0
LINE
  8
0
 10
142.343
 20
1020.74
 11
142.149
 21
1021.34
  0
LINE
  8
0
 10
142.149
 20
1021.34
 11
141.882
 21
1021.91
  0
LINE
  8
0
 10
141.882
 20
1021.91
 11
141.545
 21
1022.44
  0
LINE
  8
0
 10
141.545
 20
1022.44
 11
141.145
 21
1022.92
  0
LINE
  8
0
 10
141.145
 20
1022.92
 11
140.687
 21
1023.35
  0
LINE
  8
0
 10
140.687
 20
1023.35
 11
140.179
 21
1023.72
  0
LINE
  8
0
 10
140.179
 20
1023.72
 11
139.629
 21
1024.02
  0
LINE
  8
0
 10
139.629
 20
1024.02
 11
139.045
 21
1024.26
  0
LINE
  8
0
 10
139.045
 20
1024.26
 11
138.437
 21
1024.41
  0
LINE
  8
0
 10
138.437
 20
1024.41
 11
137.814
 21
1024.49
  0
LINE
  8
0
 10
137.814
 20
1024.49
 11
-137.814
 21
1024.49
  0
LINE
  8
0
 10
-137.814
 20
1024.49
 11
-138.437
 21
1024.41
  0
LINE
  8
0
 10
-138.437
 20
1024.41
 11
-139.045
 21
1024.26
  0
LINE
  8
0
 10
-139.045
 20
1024.26
 11
-139.629
 21
1024.02
  0
LINE
  8
0
 10
-139.629
 20
1024.02
 11
-140.179
 21
1023.72
  0
LINE
  8
0
 10
-140.179
 20
1023.72
 11
-140.687
 21
1023.35
  0
LINE
  8
0
 10
-140.687
 20
1023.35
 11
-141.145
 21
1022.92
  0
LINE
  8
0
 10
-141.145
 20
1022.92
 11
-141.545
 21
1022.44
  0
LINE
  8
0
 10
-141.545
 20
1022.44
 11
-141.882
 21
1021.91
  0
LINE
  8
0
 10
-141.882
 20
1021.91
 11
-142.149
 21
1021.34
  0
LINE
  8
0
 10
-142.149
 20
1021.34
 11
-142.343
 21
1020.74
  0
LINE
  8
0
 10
-142.343
 20
1020.74
 11
-142.461
 21
1020.13
  0
LINE
  8
0
 10
-142.461
 20
1020.13
 11
-142.5
 21
1019.5
  0
LINE
  8
0
 10
-142.5
 20
1019.5
 11
-142.5
 21
744.5
  0
LINE
  8
0
 10
-142.5
 20
744.5
 11
-142.461
 21
743.873
  0
LINE
  8
0
 10
-142.461
 20
743.873
 11
-142.343
 21
743.257
  0
LINE
  8
0
 10
-142.343
 20
743.257
 11
-142.149
 21
742.659
  0
LINE
  8
0
 10
-142.149
 20
742.659
 11
-141.882
 21
742.091
  0
LINE
  8
0
 10
-141.882
 20
742.091
 11
-141.545
 21
741.561
  0
LINE
  8
0
 10
-141.545
 20
741.561
 11
-141.145
 21
741.077
  0
LINE
  8
0
 10
-141.145
 20
741.077
 11
-140.687
 21
740.647
  0
LINE
  8
0
 10
-140.687
 20
740.647
 11
-140.179
 21
740.278
  0
LINE
  8
0
 10
-140.179
 20
740.278
 11
-139.629
 21
739.976
  0
LINE
  8
0
 10
-139.629
 20
739.976
 11
-139.045
 21
739.745
  0
LINE
  8
0
 10
-139.045
 20
739.745
 11
-138.437
 21
739.589
  0
LINE
  8
0
 10
-138.437
 20
739.589
 11
-137.814
 21
739.51
  0
LINE
  8
0
 10
-137.814
 20
739.51
 11
137.814
 21
739.51
  0
LINE
  8
0
 10
137.814
 20
739.51
 11
138.437
 21
739.589
  0
LINE
  8
0
 10
-137.493
 20
740.888
 11
-137.975
 21
740.949
  0
LINE
  8
0
 10
-137.975
 20
740.949
 11
-138.446
 21
741.07
  0
LINE
  8
0
 10
-138.446
 20
741.07
 11
-138.898
 21
741.249
  0
LINE
  8
0
 10
-138.898
 20
741.249
 11
-139.323
 21
741.483
  0
LINE
  8
0
 10
-139.323
 20
741.483
 11
-139.716
 21
741.769
  0
LINE
  8
0
 10
-139.716
 20
741.769
 11
-140.071
 21
742.101
  0
LINE
  8
0
 10
-140.071
 20
742.101
 11
-140.38
 21
742.476
  0
LINE
  8
0
 10
-140.38
 20
742.476
 11
-140.641
 21
742.886
  0
LINE
  8
0
 10
-140.641
 20
742.886
 11
-140.848
 21
743.326
  0
LINE
  8
0
 10
-140.848
 20
743.326
 11
-140.998
 21
743.788
  0
LINE
  8
0
 10
-140.998
 20
743.788
 11
-141.089
 21
744.265
  0
LINE
  8
0
 10
-141.089
 20
744.265
 11
-141.119
 21
744.75
  0
LINE
  8
0
 10
-141.119
 20
744.75
 11
-141.119
 21
1019.25
  0
LINE
  8
0
 10
-141.119
 20
1019.25
 11
-141.089
 21
1019.73
  0
LINE
  8
0
 10
-141.089
 20
1019.73
 11
-140.998
 21
1020.21
  0
LINE
  8
0
 10
-140.998
 20
1020.21
 11
-140.848
 21
1020.67
  0
LINE
  8
0
 10
-140.848
 20
1020.67
 11
-140.641
 21
1021.11
  0
LINE
  8
0
 10
-140.641
 20
1021.11
 11
-140.38
 21
1021.52
  0
LINE
  8
0
 10
-140.38
 20
1021.52
 11
-140.071
 21
1021.9
  0
LINE
  8
0
 10
-140.071
 20
1021.9
 11
-139.716
 21
1022.23
  0
LINE
  8
0
 10
-139.716
 20
1022.23
 11
-139.323
 21
1022.52
  0
LINE
  8
0
 10
-139.323
 20
1022.52
 11
-138.898
 21
1022.75
  0
LINE
  8
0
 10
-138.898
 20
1022.75
 11
-138.446
 21
1022.93
  0
LINE
  8
0
 10
-138.446
 20
1022.93
 11
-137.975
 21
1023.05
  0
LINE
  8
0
 10
-137.975
 20
1023.05
 11
-137.493
 21
1023.11
  0
LINE
  8
0
 10
-137.493
 20
1023.11
 11
137.493
 21
1023.11
  0
LINE
  8
0
 10
137.493
 20
1023.11
 11
137.975
 21
1023.05
  0
LINE
  8
0
 10
137.975
 20
1023.05
 11
138.446
 21
1022.93
  0
LINE
  8
0
 10
138.446
 20
1022.93
 11
138.898
 21
1022.75
  0
LINE
  8
0
 10
138.898
 20
1022.75
 11
139.323
 21
1022.52
  0
LINE
  8
0
 10
139.323
 20
1022.52
 11
139.716
 21
1022.23
  0
LINE
  8
0
 10
139.716
 20
1022.23
 11
140.071
 21
1021.9
  0
LINE
  8
0
 10
140.071
 20
1021.9
 11
140.38
 21
1021.52
  0
LINE
  8
0
 10
140.38
 20
1021.52
 11
140.641
 21
1021.11
  0
LINE
  8
0
 10
140.641
 20
1021.11
 11
140.848
 21
1020.67
  0
LINE
  8
0
 10
140.848
 20
1020.67
 11
140.998
 21
1020.21
  0
LINE
  8
0
 10
140.998
 20
1020.21
 11
141.089
 21
1019.73
  0
LINE
  8
0
 10
141.089
 20
1019.73
 11
141.119
 21
1019.25
  0
LINE
  8
0
 10
141.119
 20
1019.25
 11
141.119
 21
744.75
  0
LINE
  8
0
 10
141.119
 20
744.75
 11
141.089
 21
744.265
  0
LINE
  8
0
 10
141.089
 20
744.265
 11
140.998
 21
743.788
  0
LINE
  8
0
 10
140.998
 20
743.788
 11
140.848
 21
743.326
  0
LINE
  8
0
 10
140.848
 20
743.326
 11
140.641
 21
742.886
  0
LINE
  8
0
 10
140.641
 20
742.886
 11
140.38
 21
742.476
  0
LINE
  8
0
 10
140.38
 20
742.476
 11
140.071
 21
742.101
  0
LINE
  8
0
 10
140.071
 20
742.101
 11
139.716
 21
741.769
  0
LINE
  8
0
 10
139.716
 20
741.769
 11
139.323
 21
741.483
  0
LINE
  8
0
 10
139.323
 20
741.483
 11
138.898
 21
741.249
  0
LINE
  8
0
 10
138.898
 20
741.249
 11
138.446
 21
741.07
  0
LINE
  8
0
 10
138.446
 20
741.07
 11
137.975
 21
740.949
  0
LINE
  8
0
 10
137.975
 20
740.949
 11
137.493
 21
740.888
  0
LINE
  8
0
 10
137.493
 20
740.888
 11
-137.493
 21
740.888
  0
LINE
  8
0
 10
138.437
 20
445.589
 11
139.045
 21
445.745
  0
LINE
  8
0
 10
139.045
 20
445.745
 11
139.629
 21
445.976
  0
LINE
  8
0
 10
139.629
 20
445.976
 11
140.179
 21
446.278
  0
LINE
  8
0
 10
140.179
 20
446.278
 11
140.687
 21
446.647
  0
LINE
  8
0
 10
140.687
 20
446.647
 11
141.145
 21
447.077
  0
LINE
  8
0
 10
141.145
 20
447.077
 11
141.545
 21
447.561
  0
LINE
  8
0
 10
141.545
 20
447.561
 11
141.882
 21
448.091
  0
LINE
  8
0
 10
141.882
 20
448.091
 11
142.149
 21
448.659
  0
LINE
  8
0
 10
142.149
 20
448.659
 11
142.343
 21
449.257
  0
LINE
  8
0
 10
142.343
 20
449.257
 11
142.461
 21
449.873
  0
LINE
  8
0
 10
142.461
 20
449.873
 11
142.5
 21
450.5
  0
LINE
  8
0
 10
142.5
 20
450.5
 11
142.5
 21
725.5
  0
LINE
  8
0
 10
142.5
 20
725.5
 11
142.461
 21
726.127
  0
LINE
  8
0
 10
142.461
 20
726.127
 11
142.343
 21
726.743
  0
LINE
  8
0
 10
142.343
 20
726.743
 11
142.149
 21
727.341
  0
LINE
  8
0
 10
142.149
 20
727.341
 11
141.882
 21
727.909
  0
LINE
  8
0
 10
141.882
 20
727.909
 11
141.545
 21
728.439
  0
LINE
  8
0
 10
141.545
 20
728.439
 11
141.145
 21
728.923
  0
LINE
  8
0
 10
141.145
 20
728.923
 11
140.687
 21
729.353
  0
LINE
  8
0
 10
140.687
 20
729.353
 11
140.179
 21
729.722
  0
LINE
  8
0
 10
140.179
 20
729.722
 11
139.629
 21
730.024
  0
LINE
  8
0
 10
139.629
 20
730.024
 11
139.045
 21
730.255
  0
LINE
  8
0
 10
139.045
 20
730.255
 11
138.437
 21
730.411
  0
LINE
  8
0
 10
138.437
 20
730.411
 11
137.814
 21
730.49
  0
LINE
  8
0
 10
137.814
 20
730.49
 11
-137.814
 21
730.49
  0
LINE
  8
0
 10
-137.814
 20
730.49
 11
-138.437
 21
730.411
  0
LINE
  8
0
 10
-138.437
 20
730.411
 11
-139.045
 21
730.255
  0
LINE
  8
0
 10
-139.045
 20
730.255
 11
-139.629
 21
730.024
  0
LINE
  8
0
 10
-139.629
 20
730.024
 11
-140.179
 21
729.722
  0
LINE
  8
0
 10
-140.179
 20
729.722
 11
-140.687
 21
729.353
  0
LINE
  8
0
 10
-140.687
 20
729.353
 11
-141.145
 21
728.923
  0
LINE
  8
0
 10
-141.145
 20
728.923
 11
-141.545
 21
728.439
  0
LINE
  8
0
 10
-141.545
 20
728.439
 11
-141.882
 21
727.909
  0
LINE
  8
0
 10
-141.882
 20
727.909
 11
-142.149
 21
727.341
  0
LINE
  8
0
 10
-142.149
 20
727.341
 11
-142.343
 21
726.743
  0
LINE
  8
0
 10
-142.343
 20
726.743
 11
-142.461
 21
726.127
  0
LINE
  8
0
 10
-142.461
 20
726.127
 11
-142.5
 21
725.5
  0
LINE
  8
0
 10
-142.5
 20
725.5
 11
-142.5
 21
450.5
  0
LINE
  8
0
 10
-142.5
 20
450.5
 11
-142.461
 21
449.873
  0
LINE
  8
0
 10
-142.461
 20
449.873
 11
-142.343
 21
449.257
  0
LINE
  8
0
 10
-142.343
 20
449.257
 11
-142.149
 21
448.659
  0
LINE
  8
0
 10
-142.149
 20
448.659
 11
-141.882
 21
448.091
  0
LINE
  8
0
 10
-141.882
 20
448.091
 11
-141.545
 21
447.561
  0
LINE
  8
0
 10
-141.545
 20
447.561
 11
-141.145
 21
447.077
  0
LINE
  8
0
 10
-141.145
 20
447.077
 11
-140.687
 21
446.647
  0
LINE
  8
0
 10
-140.687
 20
446.647
 11
-140.179
 21
446.278
  0
LINE
  8
0
 10
-140.179
 20
446.278
 11
-139.629
 21
445.976
  0
LINE
  8
0
 10
-139.629
 20
445.976
 11
-139.045
 21
445.745
  0
LINE
  8
0
 10
-139.045
 20
445.745
 11
-138.437
 21
445.589
  0
LINE
  8
0
 10
-138.437
 20
445.589
 11
-137.814
 21
445.51
  0
LINE
  8
0
 10
-137.814
 20
445.51
 11
137.814
 21
445.51
  0
LINE
  8
0
 10
137.814
 20
445.51
 11
138.437
 21
445.589
  0
LINE
  8
0
 10
134.887
 20
721.204
 11
134.663
 21
721.232
  0
LINE
  8
0
 10
134.663
 20
721.232
 11
134.444
 21
721.288
  0
LINE
  8
0
 10
134.444
 20
721.288
 11
134.234
 21
721.371
  0
LINE
  8
0
 10
134.234
 20
721.371
 11
134.036
 21
721.48
  0
LINE
  8
0
 10
134.036
 20
721.48
 11
133.853
 21
721.613
  0
LINE
  8
0
 10
133.853
 20
721.613
 11
133.688
 21
721.768
  0
LINE
  8
0
 10
133.688
 20
721.768
 11
133.544
 21
721.942
  0
LINE
  8
0
 10
133.544
 20
721.942
 11
133.423
 21
722.133
  0
LINE
  8
0
 10
133.423
 20
722.133
 11
133.326
 21
722.337
  0
LINE
  8
0
 10
133.326
 20
722.337
 11
133.257
 21
722.552
  0
LINE
  8
0
 10
133.257
 20
722.552
 11
133.214
 21
722.774
  0
LINE
  8
0
 10
133.214
 20
722.774
 11
133.2
 21
723
  0
LINE
  8
0
 10
133.2
 20
723
 11
133.214
 21
723.226
  0
LINE
  8
0
 10
133.214
 20
723.226
 11
133.257
 21
723.448
  0
LINE
  8
0
 10
133.257
 20
723.448
 11
133.326
 21
723.663
  0
LINE
  8
0
 10
133.326
 20
723.663
 11
133.423
 21
723.867
  0
LINE
  8
0
 10
133.423
 20
723.867
 11
133.544
 21
724.058
  0
LINE
  8
0
 10
133.544
 20
724.058
 11
133.688
 21
724.232
  0
LINE
  8
0
 10
133.688
 20
724.232
 11
133.853
 21
724.387
  0
LINE
  8
0
 10
133.853
 20
724.387
 11
134.036
 21
724.52
  0
LINE
  8
0
 10
134.036
 20
724.52
 11
134.234
 21
724.629
  0
LINE
  8
0
 10
134.234
 20
724.629
 11
134.444
 21
724.712
  0
LINE
  8
0
 10
134.444
 20
724.712
 11
134.663
 21
724.768
  0
LINE
  8
0
 10
134.663
 20
724.768
 11
134.887
 21
724.796
  0
LINE
  8
0
 10
134.887
 20
724.796
 11
135.113
 21
724.796
  0
LINE
  8
0
 10
135.113
 20
724.796
 11
135.337
 21
724.768
  0
LINE
  8
0
 10
135.337
 20
724.768
 11
135.556
 21
724.712
  0
LINE
  8
0
 10
135.556
 20
724.712
 11
135.766
 21
724.629
  0
LINE
  8
0
 10
135.766
 20
724.629
 11
135.964
 21
724.52
  0
LINE
  8
0
 10
135.964
 20
724.52
 11
136.147
 21
724.387
  0
LINE
  8
0
 10
136.147
 20
724.387
 11
136.312
 21
724.232
  0
LINE
  8
0
 10
136.312
 20
724.232
 11
136.456
 21
724.058
  0
LINE
  8
0
 10
136.456
 20
724.058
 11
136.577
 21
723.867
  0
LINE
  8
0
 10
136.577
 20
723.867
 11
136.674
 21
723.663
  0
LINE
  8
0
 10
136.674
 20
723.663
 11
136.743
 21
723.448
  0
LINE
  8
0
 10
136.743
 20
723.448
 11
136.786
 21
723.226
  0
LINE
  8
0
 10
136.786
 20
723.226
 11
136.8
 21
723
  0
LINE
  8
0
 10
136.8
 20
723
 11
136.786
 21
722.774
  0
LINE
  8
0
 10
136.786
 20
722.774
 11
136.743
 21
722.552
  0
LINE
  8
0
 10
136.743
 20
722.552
 11
136.674
 21
722.337
  0
LINE
  8
0
 10
136.674
 20
722.337
 11
136.577
 21
722.133
  0
LINE
  8
0
 10
136.577
 20
722.133
 11
136.456
 21
721.942
  0
LINE
  8
0
 10
136.456
 20
721.942
 11
136.312
 21
721.768
  0
LINE
  8
0
 10
136.312
 20
721.768
 11
136.147
 21
721.613
  0
LINE
  8
0
 10
136.147
 20
721.613
 11
135.964
 21
721.48
  0
LINE
  8
0
 10
135.964
 20
721.48
 11
135.766
 21
721.371
  0
LINE
  8
0
 10
135.766
 20
721.371
 11
135.556
 21
721.288
  0
LINE
  8
0
 10
135.556
 20
721.288
 11
135.337
 21
721.232
  0
LINE
  8
0
 10
135.337
 20
721.232
 11
135.113
 21
721.204
  0
LINE
  8
0
 10
135.113
 20
721.204
 11
134.887
 21
721.204
  0
LINE
  8
0
 10
-135.113
 20
721.204
 11
-135.337
 21
721.232
  0
LINE
  8
0
 10
-135.337
 20
721.232
 11
-135.556
 21
721.288
  0
LINE
  8
0
 10
-135.556
 20
721.288
 11
-135.766
 21
721.371
  0
LINE
  8
0
 10
-135.766
 20
721.371
 11
-135.964
 21
721.48
  0
LINE
  8
0
 10
-135.964
 20
721.48
 11
-136.147
 21
721.613
  0
LINE
  8
0
 10
-136.147
 20
721.613
 11
-136.312
 21
721.768
  0
LINE
  8
0
 10
-136.312
 20
721.768
 11
-136.456
 21
721.942
  0
LINE
  8
0
 10
-136.456
 20
721.942
 11
-136.577
 21
722.133
  0
LINE
  8
0
 10
-136.577
 20
722.133
 11
-136.674
 21
722.337
  0
LINE
  8
0
 10
-136.674
 20
722.337
 11
-136.743
 21
722.552
  0
LINE
  8
0
 10
-136.743
 20
722.552
 11
-136.786
 21
722.774
  0
LINE
  8
0
 10
-136.786
 20
722.774
 11
-136.8
 21
723
  0
LINE
  8
0
 10
-136.8
 20
723
 11
-136.786
 21
723.226
  0
LINE
  8
0
 10
-136.786
 20
723.226
 11
-136.743
 21
723.448
  0
LINE
  8
0
 10
-136.743
 20
723.448
 11
-136.674
 21
723.663
  0
LINE
  8
0
 10
-136.674
 20
723.663
 11
-136.577
 21
723.867
  0
LINE
  8
0
 10
-136.577
 20
723.867
 11
-136.456
 21
724.058
  0
LINE
  8
0
 10
-136.456
 20
724.058
 11
-136.312
 21
724.232
  0
LINE
  8
0
 10
-136.312
 20
724.232
 11
-136.147
 21
724.387
  0
LINE
  8
0
 10
-136.147
 20
724.387
 11
-135.964
 21
724.52
  0
LINE
  8
0
 10
-135.964
 20
724.52
 11
-135.766
 21
724.629
  0
LINE
  8
0
 10
-135.766
 20
724.629
 11
-135.556
 21
724.712
  0
LINE
  8
0
 10
-135.556
 20
724.712
 11
-135.337
 21
724.768
  0
LINE
  8
0
 10
-135.337
 20
724.768
 11
-135.113
 21
724.796
  0
LINE
  8
0
 10
-135.113
 20
724.796
 11
-134.887
 21
724.796
  0
LINE
  8
0
 10
-134.887
 20
724.796
 11
-134.663
 21
724.768
  0
LINE
  8
0
 10
-134.663
 20
724.768
 11
-134.444
 21
724.712
  0
LINE
  8
0
 10
-134.444
 20
724.712
 11
-134.234
 21
724.629
  0
LINE
  8
0
 10
-134.234
 20
724.629
 11
-134.036
 21
724.52
  0
LINE
  8
0
 10
-134.036
 20
724.52
 11
-133.853
 21
724.387
  0
LINE
  8
0
 10
-133.853
 20
724.387
 11
-133.688
 21
724.232
  0
LINE
  8
0
 10
-133.688
 20
724.232
 11
-133.544
 21
724.058
  0
LINE
  8
0
 10
-133.544
 20
724.058
 11
-133.423
 21
723.867
  0
LINE
  8
0
 10
-133.423
 20
723.867
 11
-133.326
 21
723.663
  0
LINE
  8
0
 10
-133.326
 20
723.663
 11
-133.257
 21
723.448
  0
LINE
  8
0
 10
-133.257
 20
723.448
 11
-133.214
 21
723.226
  0
LINE
  8
0
 10
-133.214
 20
723.226
 11
-133.2
 21
723
  0
LINE
  8
0
 10
-133.2
 20
723
 11
-133.214
 21
722.774
  0
LINE
  8
0
 10
-133.214
 20
722.774
 11
-133.257
 21
722.552
  0
LINE
  8
0
 10
-133.257
 20
722.552
 11
-133.326
 21
722.337
  0
LINE
  8
0
 10
-133.326
 20
722.337
 11
-133.423
 21
722.133
  0
LINE
  8
0
 10
-133.423
 20
722.133
 11
-133.544
 21
721.942
  0
LINE
  8
0
 10
-133.544
 20
721.942
 11
-133.688
 21
721.768
  0
LINE
  8
0
 10
-133.688
 20
721.768
 11
-133.853
 21
721.613
  0
LINE
  8
0
 10
-133.853
 20
721.613
 11
-134.036
 21
721.48
  0
LINE
  8
0
 10
-134.036
 20
721.48
 11
-134.234
 21
721.371
  0
LINE
  8
0
 10
-134.234
 20
721.371
 11
-134.444
 21
721.288
  0
LINE
  8
0
 10
-134.444
 20
721.288
 11
-134.663
 21
721.232
  0
LINE
  8
0
 10
-134.663
 20
721.232
 11
-134.887
 21
721.204
  0
LINE
  8
0
 10
-134.887
 20
721.204
 11
-135.113
 21
721.204
  0
LINE
  8
0
 10
-135.113
 20
451.204
 11
-135.337
 21
451.232
  0
LINE
  8
0
 10
-135.337
 20
451.232
 11
-135.556
 21
451.288
  0
LINE
  8
0
 10
-135.556
 20
451.288
 11
-135.766
 21
451.371
  0
LINE
  8
0
 10
-135.766
 20
451.371
 11
-135.964
 21
451.48
  0
LINE
  8
0
 10
-135.964
 20
451.48
 11
-136.147
 21
451.613
  0
LINE
  8
0
 10
-136.147
 20
451.613
 11
-136.312
 21
451.768
  0
LINE
  8
0
 10
-136.312
 20
451.768
 11
-136.456
 21
451.942
  0
LINE
  8
0
 10
-136.456
 20
451.942
 11
-136.577
 21
452.133
  0
LINE
  8
0
 10
-136.577
 20
452.133
 11
-136.674
 21
452.337
  0
LINE
  8
0
 10
-136.674
 20
452.337
 11
-136.743
 21
452.552
  0
LINE
  8
0
 10
-136.743
 20
452.552
 11
-136.786
 21
452.774
  0
LINE
  8
0
 10
-136.786
 20
452.774
 11
-136.8
 21
453
  0
LINE
  8
0
 10
-136.8
 20
453
 11
-136.786
 21
453.226
  0
LINE
  8
0
 10
-136.786
 20
453.226
 11
-136.743
 21
453.448
  0
LINE
  8
0
 10
-136.743
 20
453.448
 11
-136.674
 21
453.663
  0
LINE
  8
0
 10
-136.674
 20
453.663
 11
-136.577
 21
453.867
  0
LINE
  8
0
 10
-136.577
 20
453.867
 11
-136.456
 21
454.058
  0
LINE
  8
0
 10
-136.456
 20
454.058
 11
-136.312
 21
454.232
  0
LINE
  8
0
 10
-136.312
 20
454.232
 11
-136.147
 21
454.387
  0
LINE
  8
0
 10
-136.147
 20
454.387
 11
-135.964
 21
454.52
  0
LINE
  8
0
 10
-135.964
 20
454.52
 11
-135.766
 21
454.629
  0
LINE
  8
0
 10
-135.766
 20
454.629
 11
-135.556
 21
454.712
  0
LINE
  8
0
 10
-135.556
 20
454.712
 11
-135.337
 21
454.768
  0
LINE
  8
0
 10
-135.337
 20
454.768
 11
-135.113
 21
454.796
  0
LINE
  8
0
 10
-135.113
 20
454.796
 11
-134.887
 21
454.796
  0
LINE
  8
0
 10
-134.887
 20
454.796
 11
-134.663
 21
454.768
  0
LINE
  8
0
 10
-134.663
 20
454.768
 11
-134.444
 21
454.712
  0
LINE
  8
0
 10
-134.444
 20
454.712
 11
-134.234
 21
454.629
  0
LINE
  8
0
 10
-134.234
 20
454.629
 11
-134.036
 21
454.52
  0
LINE
  8
0
 10
-134.036
 20
454.52
 11
-133.853
 21
454.387
  0
LINE
  8
0
 10
-133.853
 20
454.387
 11
-133.688
 21
454.232
  0
LINE
  8
0
 10
-133.688
 20
454.232
 11
-133.544
 21
454.058
  0
LINE
  8
0
 10
-133.544
 20
454.058
 11
-133.423
 21
453.867
  0
LINE
  8
0
 10
-133.423
 20
453.867
 11
-133.326
 21
453.663
  0
LINE
  8
0
 10
-133.326
 20
453.663
 11
-133.257
 21
453.448
  0
LINE
  8
0
 10
-133.257
 20
453.448
 11
-133.214
 21
453.226
  0
LINE
  8
0
 10
-133.214
 20
453.226
 11
-133.2
 21
453
  0
LINE
  8
0
 10
-133.2
 20
453
 11
-133.214
 21
452.774
  0
LINE
  8
0
 10
-133.214
 20
452.774
 11
-133.257
 21
452.552
  0
LINE
  8
0
 10
-133.257
 20
452.552
 11
-133.326
 21
452.337
  0
LINE
  8
0
 10
-133.326
 20
452.337
 11
-133.423
 21
452.133
  0
LINE
  8
0
 10
-133.423
 20
452.133
 11
-133.544
 21
451.942
  0
LINE
  8
0
 10
-133.544
 20
451.942
 11
-133.688
 21
451.768
  0
LINE
  8
0
 10
-133.688
 20
451.768
 11
-133.853
 21
451.613
  0
LINE
  8
0
 10
-133.853
 20
451.613
 11
-134.036
 21
451.48
  0
LINE
  8
0
 10
-134.036
 20
451.48
 11
-134.234
 21
451.371
  0
LINE
  8
0
 10
-134.234
 20
451.371
 11
-134.444
 21
451.288
  0
LINE
  8
0
 10
-134.444
 20
451.288
 11
-134.663
 21
451.232
  0
LINE
  8
0
 10
-134.663
 20
451.232
 11
-134.887
 21
451.204
  0
LINE
  8
0
 10
-134.887
 20
451.204
 11
-135.113
 21
451.204
  0
LINE
  8
0
 10
134.887
 20
451.204
 11
134.663
 21
451.232
  0
LINE
  8
0
 10
134.663
 20
451.232
 11
134.444
 21
451.288
  0
LINE
  8
0
 10
134.444
 20
451.288
 11
134.234
 21
451.371
  0
LINE
  8
0
 10
134.234
 20
451.371
 11
134.036
 21
451.48
  0
LINE
  8
0
 10
134.036
 20
451.48
 11
133.853
 21
451.613
  0
LINE
  8
0
 10
133.853
 20
451.613
 11
133.688
 21
451.768
  0
LINE
  8
0
 10
133.688
 20
451.768
 11
133.544
 21
451.942
  0
LINE
  8
0
 10
133.544
 20
451.942
 11
133.423
 21
452.133
  0
LINE
  8
0
 10
133.423
 20
452.133
 11
133.326
 21
452.337
  0
LINE
  8
0
 10
133.326
 20
452.337
 11
133.257
 21
452.552
  0
LINE
  8
0
 10
133.257
 20
452.552
 11
133.214
 21
452.774
  0
LINE
  8
0
 10
133.214
 20
452.774
 11
133.2
 21
453
  0
LINE
  8
0
 10
133.2
 20
453
 11
133.214
 21
453.226
  0
LINE
  8
0
 10
133.214
 20
453.226
 11
133.257
 21
453.448
  0
LINE
  8
0
 10
133.257
 20
453.448
 11
133.326
 21
453.663
  0
LINE
  8
0
 10
133.326
 20
453.663
 11
133.423
 21
453.867
  0
LINE
  8
0
 10
133.423
 20
453.867
 11
133.544
 21
454.058
  0
LINE
  8
0
 10
133.544
 20
454.058
 11
133.688
 21
454.232
  0
LINE
  8
0
 10
133.688
 20
454.232
 11
133.853
 21
454.387
  0
LINE
  8
0
 10
133.853
 20
454.387
 11
134.036
 21
454.52
  0
LINE
  8
0
 10
134.036
 20
454.52
 11
134.234
 21
454.629
  0
LINE
  8
0
 10
134.234
 20
454.629
 11
134.444
 21
454.712
  0
LINE
  8
0
 10
134.444
 20
454.712
 11
134.663
 21
454.768
  0
LINE
  8
0
 10
134.663
 20
454.768
 11
134.887
 21
454.796
  0
LINE
  8
0
 10
134.887
 20
454.796
 11
135.113
 21
454.796
  0
LINE
  8
0
 10
135.113
 20
454.796
 11
135.337
 21
454.768
  0
LINE
  8
0
 10
135.337
 20
454.768
 11
135.556
 21
454.712
  0
LINE
  8
0
 10
135.556
 20
454.712
 11
135.766
 21
454.629
  0
LINE
  8
0
 10
135.766
 20
454.629
 11
135.964
 21
454.52
  0
LINE
  8
0
 10
135.964
 20
454.52
 11
136.147
 21
454.387
  0
LINE
  8
0
 10
136.147
 20
454.387
 11
136.312
 21
454.232
  0
LINE
  8
0
 10
136.312
 20
454.232
 11
136.456
 21
454.058
  0
LINE
  8
0
 10
136.456
 20
454.058
 11
136.577
 21
453.867
  0
LINE
  8
0
 10
136.577
 20
453.867
 11
136.674
 21
453.663
  0
LINE
  8
0
 10
136.674
 20
453.663
 11
136.743
 21
453.448
  0
LINE
  8
0
 10
136.743
 20
453.448
 11
136.786
 21
453.226
  0
LINE
  8
0
 10
136.786
 20
453.226
 11
136.8
 21
453
  0
LINE
  8
0
 10
136.8
 20
453
 11
136.786
 21
452.774
  0
LINE
  8
0
 10
136.786
 20
452.774
 11
136.743
 21
452.552
  0
LINE
  8
0
 10
136.743
 20
452.552
 11
136.674
 21
452.337
  0
LINE
  8
0
 10
136.674
 20
452.337
 11
136.577
 21
452.133
  0
LINE
  8
0
 10
136.577
 20
452.133
 11
136.456
 21
451.942
  0
LINE
  8
0
 10
136.456
 20
451.942
 11
136.312
 21
451.768
  0
LINE
  8
0
 10
136.312
 20
451.768
 11
136.147
 21
451.613
  0
LINE
  8
0
 10
136.147
 20
451.613
 11
135.964
 21
451.48
  0
LINE
  8
0
 10
135.964
 20
451.48
 11
135.766
 21
451.371
  0
LINE
  8
0
 10
135.766
 20
451.371
 11
135.556
 21
451.288
  0
LINE
  8
0
 10
135.556
 20
451.288
 11
135.337
 21
451.232
  0
LINE
  8
0
 10
135.337
 20
451.232
 11
135.113
 21
451.204
  0
LINE
  8
0
 10
135.113
 20
451.204
 11
134.887
 21
451.204
  0
ENDSEC
  0
SECTION
  2
OBJECTS
  0
DICTIONARY
  0
ENDSEC
  0
EOF
