  0
SECTION
  2
BLOCKS
  0
ENDSEC
  0
SECTION
  2
ENTITIES
  0
LINE
  8
0
 10
-118.5
 20
1058.94
 11
-118.187
 21
1058.65
  0
LINE
  8
0
 10
-118.187
 20
1058.65
 11
-117.679
 21
1058.28
  0
LINE
  8
0
 10
-117.679
 20
1058.28
 11
-117.129
 21
1057.98
  0
LINE
  8
0
 10
-117.129
 20
1057.98
 11
-116.545
 21
1057.74
  0
LINE
  8
0
 10
-116.545
 20
1057.74
 11
-115.937
 21
1057.59
  0
LINE
  8
0
 10
-115.937
 20
1057.59
 11
-115.314
 21
1057.51
  0
LINE
  8
0
 10
-115.314
 20
1057.51
 11
115.314
 21
1057.51
  0
LINE
  8
0
 10
115.314
 20
1057.51
 11
115.937
 21
1057.59
  0
LINE
  8
0
 10
115.937
 20
1057.59
 11
116.545
 21
1057.74
  0
LINE
  8
0
 10
116.545
 20
1057.74
 11
117.129
 21
1057.98
  0
LINE
  8
0
 10
117.129
 20
1057.98
 11
117.679
 21
1058.28
  0
LINE
  8
0
 10
117.679
 20
1058.28
 11
118.187
 21
1058.65
  0
LINE
  8
0
 10
118.187
 20
1058.65
 11
118.645
 21
1059.08
  0
LINE
  8
0
 10
118.645
 20
1059.08
 11
119.045
 21
1059.56
  0
LINE
  8
0
 10
119.045
 20
1059.56
 11
119.382
 21
1060.09
  0
LINE
  8
0
 10
119.382
 20
1060.09
 11
119.649
 21
1060.66
  0
LINE
  8
0
 10
119.649
 20
1060.66
 11
119.843
 21
1061.26
  0
LINE
  8
0
 10
119.843
 20
1061.26
 11
119.961
 21
1061.87
  0
LINE
  8
0
 10
119.961
 20
1061.87
 11
120
 21
1062.5
  0
LINE
  8
0
 10
120
 20
1062.5
 11
120
 21
1277.5
  0
LINE
  8
0
 10
120
 20
1277.5
 11
119.961
 21
1278.13
  0
LINE
  8
0
 10
119.961
 20
1278.13
 11
119.843
 21
1278.74
  0
LINE
  8
0
 10
119.843
 20
1278.74
 11
119.649
 21
1279.34
  0
LINE
  8
0
 10
119.649
 20
1279.34
 11
119.382
 21
1279.91
  0
LINE
  8
0
 10
119.382
 20
1279.91
 11
119.045
 21
1280.44
  0
LINE
  8
0
 10
119.045
 20
1280.44
 11
118.645
 21
1280.92
  0
LINE
  8
0
 10
118.645
 20
1280.92
 11
118.187
 21
1281.35
  0
LINE
  8
0
 10
118.187
 20
1281.35
 11
117.679
 21
1281.72
  0
LINE
  8
0
 10
117.679
 20
1281.72
 11
117.129
 21
1282.02
  0
LINE
  8
0
 10
117.129
 20
1282.02
 11
116.545
 21
1282.26
  0
LINE
  8
0
 10
116.545
 20
1282.26
 11
115.937
 21
1282.41
  0
LINE
  8
0
 10
115.937
 20
1282.41
 11
115.314
 21
1282.49
  0
LINE
  8
0
 10
115.314
 20
1282.49
 11
-115.314
 21
1282.49
  0
LINE
  8
0
 10
-115.314
 20
1282.49
 11
-115.937
 21
1282.41
  0
LINE
  8
0
 10
-115.937
 20
1282.41
 11
-116.545
 21
1282.26
  0
LINE
  8
0
 10
-116.545
 20
1282.26
 11
-117.129
 21
1282.02
  0
LINE
  8
0
 10
-117.129
 20
1282.02
 11
-117.679
 21
1281.72
  0
LINE
  8
0
 10
-117.679
 20
1281.72
 11
-118.187
 21
1281.35
  0
LINE
  8
0
 10
-118.187
 20
1281.35
 11
-118.5
 21
1281.06
  0
LINE
  8
0
 10
-118.5
 20
1281.06
 11
-118.5
 21
1282.49
  0
LINE
  8
0
 10
-118.5
 20
1282.49
 11
-121.5
 21
1282.49
  0
LINE
  8
0
 10
-121.5
 20
1282.49
 11
-121.5
 21
1057.51
  0
LINE
  8
0
 10
-121.5
 20
1057.51
 11
-118.5
 21
1057.51
  0
LINE
  8
0
 10
-118.5
 20
1057.51
 11
-118.5
 21
1058.94
  0
LINE
  8
0
 10
-114.751
 20
1059.01
 11
-115.25
 21
1059.07
  0
LINE
  8
0
 10
-115.25
 20
1059.07
 11
-115.736
 21
1059.2
  0
LINE
  8
0
 10
-115.736
 20
1059.2
 11
-116.203
 21
1059.38
  0
LINE
  8
0
 10
-116.203
 20
1059.38
 11
-116.643
 21
1059.62
  0
LINE
  8
0
 10
-116.643
 20
1059.62
 11
-117.05
 21
1059.92
  0
LINE
  8
0
 10
-117.05
 20
1059.92
 11
-117.416
 21
1060.26
  0
LINE
  8
0
 10
-117.416
 20
1060.26
 11
-117.736
 21
1060.65
  0
LINE
  8
0
 10
-117.736
 20
1060.65
 11
-118.005
 21
1061.07
  0
LINE
  8
0
 10
-118.005
 20
1061.07
 11
-118.219
 21
1061.53
  0
LINE
  8
0
 10
-118.219
 20
1061.53
 11
-118.374
 21
1062.01
  0
LINE
  8
0
 10
-118.374
 20
1062.01
 11
-118.468
 21
1062.5
  0
LINE
  8
0
 10
-118.468
 20
1062.5
 11
-118.5
 21
1063
  0
LINE
  8
0
 10
-118.5
 20
1063
 11
-118.5
 21
1277
  0
LINE
  8
0
 10
-118.5
 20
1277
 11
-118.468
 21
1277.5
  0
LINE
  8
0
 10
-118.468
 20
1277.5
 11
-118.374
 21
1277.99
  0
LINE
  8
0
 10
-118.374
 20
1277.99
 11
-118.219
 21
1278.47
  0
LINE
  8
0
 10
-118.219
 20
1278.47
 11
-118.005
 21
1278.93
  0
LINE
  8
0
 10
-118.005
 20
1278.93
 11
-117.736
 21
1279.35
  0
LINE
  8
0
 10
-117.736
 20
1279.35
 11
-117.416
 21
1279.74
  0
LINE
  8
0
 10
-117.416
 20
1279.74
 11
-117.05
 21
1280.08
  0
LINE
  8
0
 10
-117.05
 20
1280.08
 11
-116.643
 21
1280.38
  0
LINE
  8
0
 10
-116.643
 20
1280.38
 11
-116.203
 21
1280.62
  0
LINE
  8
0
 10
-116.203
 20
1280.62
 11
-115.736
 21
1280.8
  0
LINE
  8
0
 10
-115.736
 20
1280.8
 11
-115.25
 21
1280.93
  0
LINE
  8
0
 10
-115.25
 20
1280.93
 11
-114.751
 21
1280.99
  0
LINE
  8
0
 10
-114.751
 20
1280.99
 11
114.751
 21
1280.99
  0
LINE
  8
0
 10
114.751
 20
1280.99
 11
115.25
 21
1280.93
  0
LINE
  8
0
 10
115.25
 20
1280.93
 11
115.736
 21
1280.8
  0
LINE
  8
0
 10
115.736
 20
1280.8
 11
116.203
 21
1280.62
  0
LINE
  8
0
 10
116.203
 20
1280.62
 11
116.643
 21
1280.38
  0
LINE
  8
0
 10
116.643
 20
1280.38
 11
117.05
 21
1280.08
  0
LINE
  8
0
 10
117.05
 20
1280.08
 11
117.416
 21
1279.74
  0
LINE
  8
0
 10
117.416
 20
1279.74
 11
117.736
 21
1279.35
  0
LINE
  8
0
 10
117.736
 20
1279.35
 11
118.005
 21
1278.93
  0
LINE
  8
0
 10
118.005
 20
1278.93
 11
118.219
 21
1278.47
  0
LINE
  8
0
 10
118.219
 20
1278.47
 11
118.374
 21
1277.99
  0
LINE
  8
0
 10
118.374
 20
1277.99
 11
118.468
 21
1277.5
  0
LINE
  8
0
 10
118.468
 20
1277.5
 11
118.5
 21
1277
  0
LINE
  8
0
 10
118.5
 20
1277
 11
118.5
 21
1063
  0
LINE
  8
0
 10
118.5
 20
1063
 11
118.468
 21
1062.5
  0
LINE
  8
0
 10
118.468
 20
1062.5
 11
118.374
 21
1062.01
  0
LINE
  8
0
 10
118.374
 20
1062.01
 11
118.219
 21
1061.53
  0
LINE
  8
0
 10
118.219
 20
1061.53
 11
118.005
 21
1061.07
  0
LINE
  8
0
 10
118.005
 20
1061.07
 11
117.736
 21
1060.65
  0
LINE
  8
0
 10
117.736
 20
1060.65
 11
117.416
 21
1060.26
  0
LINE
  8
0
 10
117.416
 20
1060.26
 11
117.05
 21
1059.92
  0
LINE
  8
0
 10
117.05
 20
1059.92
 11
116.643
 21
1059.62
  0
LINE
  8
0
 10
116.643
 20
1059.62
 11
116.203
 21
1059.38
  0
LINE
  8
0
 10
116.203
 20
1059.38
 11
115.736
 21
1059.2
  0
LINE
  8
0
 10
115.736
 20
1059.2
 11
115.25
 21
1059.07
  0
LINE
  8
0
 10
115.25
 20
1059.07
 11
114.751
 21
1059.01
  0
LINE
  8
0
 10
114.751
 20
1059.01
 11
-114.751
 21
1059.01
  0
LINE
  8
0
 10
115.937
 20
823.589
 11
116.545
 21
823.745
  0
LINE
  8
0
 10
116.545
 20
823.745
 11
117.129
 21
823.976
  0
LINE
  8
0
 10
117.129
 20
823.976
 11
117.679
 21
824.278
  0
LINE
  8
0
 10
117.679
 20
824.278
 11
118.187
 21
824.647
  0
LINE
  8
0
 10
118.187
 20
824.647
 11
118.645
 21
825.077
  0
LINE
  8
0
 10
118.645
 20
825.077
 11
119.045
 21
825.561
  0
LINE
  8
0
 10
119.045
 20
825.561
 11
119.382
 21
826.091
  0
LINE
  8
0
 10
119.382
 20
826.091
 11
119.649
 21
826.659
  0
LINE
  8
0
 10
119.649
 20
826.659
 11
119.843
 21
827.257
  0
LINE
  8
0
 10
119.843
 20
827.257
 11
119.961
 21
827.873
  0
LINE
  8
0
 10
119.961
 20
827.873
 11
120
 21
828.5
  0
LINE
  8
0
 10
120
 20
828.5
 11
120
 21
1043.5
  0
LINE
  8
0
 10
120
 20
1043.5
 11
119.961
 21
1044.13
  0
LINE
  8
0
 10
119.961
 20
1044.13
 11
119.843
 21
1044.74
  0
LINE
  8
0
 10
119.843
 20
1044.74
 11
119.649
 21
1045.34
  0
LINE
  8
0
 10
119.649
 20
1045.34
 11
119.382
 21
1045.91
  0
LINE
  8
0
 10
119.382
 20
1045.91
 11
119.045
 21
1046.44
  0
LINE
  8
0
 10
119.045
 20
1046.44
 11
118.645
 21
1046.92
  0
LINE
  8
0
 10
118.645
 20
1046.92
 11
118.187
 21
1047.35
  0
LINE
  8
0
 10
118.187
 20
1047.35
 11
117.679
 21
1047.72
  0
LINE
  8
0
 10
117.679
 20
1047.72
 11
117.129
 21
1048.02
  0
LINE
  8
0
 10
117.129
 20
1048.02
 11
116.545
 21
1048.26
  0
LINE
  8
0
 10
116.545
 20
1048.26
 11
115.937
 21
1048.41
  0
LINE
  8
0
 10
115.937
 20
1048.41
 11
115.314
 21
1048.49
  0
LINE
  8
0
 10
115.314
 20
1048.49
 11
-115.314
 21
1048.49
  0
LINE
  8
0
 10
-115.314
 20
1048.49
 11
-115.937
 21
1048.41
  0
LINE
  8
0
 10
-115.937
 20
1048.41
 11
-116.545
 21
1048.26
  0
LINE
  8
0
 10
-116.545
 20
1048.26
 11
-117.129
 21
1048.02
  0
LINE
  8
0
 10
-117.129
 20
1048.02
 11
-117.679
 21
1047.72
  0
LINE
  8
0
 10
-117.679
 20
1047.72
 11
-118.187
 21
1047.35
  0
LINE
  8
0
 10
-118.187
 20
1047.35
 11
-118.5
 21
1047.06
  0
LINE
  8
0
 10
-118.5
 20
1047.06
 11
-118.5
 21
1048.48
  0
LINE
  8
0
 10
-118.5
 20
1048.48
 11
-121.5
 21
1048.48
  0
LINE
  8
0
 10
-121.5
 20
1048.48
 11
-121.5
 21
823.521
  0
LINE
  8
0
 10
-121.5
 20
823.521
 11
-118.5
 21
823.521
  0
LINE
  8
0
 10
-118.5
 20
823.521
 11
-118.5
 21
824.941
  0
LINE
  8
0
 10
-118.5
 20
824.941
 11
-118.187
 21
824.647
  0
LINE
  8
0
 10
-118.187
 20
824.647
 11
-117.679
 21
824.278
  0
LINE
  8
0
 10
-117.679
 20
824.278
 11
-117.129
 21
823.976
  0
LINE
  8
0
 10
-117.129
 20
823.976
 11
-116.545
 21
823.745
  0
LINE
  8
0
 10
-116.545
 20
823.745
 11
-115.937
 21
823.589
  0
LINE
  8
0
 10
-115.937
 20
823.589
 11
-115.314
 21
823.51
  0
LINE
  8
0
 10
-115.314
 20
823.51
 11
115.314
 21
823.51
  0
LINE
  8
0
 10
115.314
 20
823.51
 11
115.937
 21
823.589
  0
LINE
  8
0
 10
-114.695
 20
825.893
 11
-115.083
 21
825.942
  0
LINE
  8
0
 10
-115.083
 20
825.942
 11
-115.462
 21
826.039
  0
LINE
  8
0
 10
-115.462
 20
826.039
 11
-115.825
 21
826.183
  0
LINE
  8
0
 10
-115.825
 20
826.183
 11
-116.168
 21
826.372
  0
LINE
  8
0
 10
-116.168
 20
826.372
 11
-116.484
 21
826.601
  0
LINE
  8
0
 10
-116.484
 20
826.601
 11
-116.769
 21
826.869
  0
LINE
  8
0
 10
-116.769
 20
826.869
 11
-117.018
 21
827.17
  0
LINE
  8
0
 10
-117.018
 20
827.17
 11
-117.228
 21
827.5
  0
LINE
  8
0
 10
-117.228
 20
827.5
 11
-117.394
 21
827.854
  0
LINE
  8
0
 10
-117.394
 20
827.854
 11
-117.515
 21
828.226
  0
LINE
  8
0
 10
-117.515
 20
828.226
 11
-117.588
 21
828.61
  0
LINE
  8
0
 10
-117.588
 20
828.61
 11
-117.613
 21
829
  0
LINE
  8
0
 10
-117.613
 20
829
 11
-117.613
 21
1043
  0
LINE
  8
0
 10
-117.613
 20
1043
 11
-117.588
 21
1043.39
  0
LINE
  8
0
 10
-117.588
 20
1043.39
 11
-117.515
 21
1043.77
  0
LINE
  8
0
 10
-117.515
 20
1043.77
 11
-117.394
 21
1044.15
  0
LINE
  8
0
 10
-117.394
 20
1044.15
 11
-117.228
 21
1044.5
  0
LINE
  8
0
 10
-117.228
 20
1044.5
 11
-117.018
 21
1044.83
  0
LINE
  8
0
 10
-117.018
 20
1044.83
 11
-116.769
 21
1045.13
  0
LINE
  8
0
 10
-116.769
 20
1045.13
 11
-116.484
 21
1045.4
  0
LINE
  8
0
 10
-116.484
 20
1045.4
 11
-116.168
 21
1045.63
  0
LINE
  8
0
 10
-116.168
 20
1045.63
 11
-115.825
 21
1045.82
  0
LINE
  8
0
 10
-115.825
 20
1045.82
 11
-115.462
 21
1045.96
  0
LINE
  8
0
 10
-115.462
 20
1045.96
 11
-115.083
 21
1046.06
  0
LINE
  8
0
 10
-115.083
 20
1046.06
 11
-114.695
 21
1046.11
  0
LINE
  8
0
 10
-114.695
 20
1046.11
 11
114.695
 21
1046.11
  0
LINE
  8
0
 10
114.695
 20
1046.11
 11
115.083
 21
1046.06
  0
LINE
  8
0
 10
115.083
 20
1046.06
 11
115.462
 21
1045.96
  0
LINE
  8
0
 10
115.462
 20
1045.96
 11
115.825
 21
1045.82
  0
LINE
  8
0
 10
115.825
 20
1045.82
 11
116.168
 21
1045.63
  0
LINE
  8
0
 10
116.168
 20
1045.63
 11
116.484
 21
1045.4
  0
LINE
  8
0
 10
116.484
 20
1045.4
 11
116.769
 21
1045.13
  0
LINE
  8
0
 10
116.769
 20
1045.13
 11
117.018
 21
1044.83
  0
LINE
  8
0
 10
117.018
 20
1044.83
 11
117.228
 21
1044.5
  0
LINE
  8
0
 10
117.228
 20
1044.5
 11
117.394
 21
1044.15
  0
LINE
  8
0
 10
117.394
 20
1044.15
 11
117.515
 21
1043.77
  0
LINE
  8
0
 10
117.515
 20
1043.77
 11
117.588
 21
1043.39
  0
LINE
  8
0
 10
117.588
 20
1043.39
 11
117.613
 21
1043
  0
LINE
  8
0
 10
117.613
 20
1043
 11
117.613
 21
829
  0
LINE
  8
0
 10
117.613
 20
829
 11
117.588
 21
828.61
  0
LINE
  8
0
 10
117.588
 20
828.61
 11
117.515
 21
828.226
  0
LINE
  8
0
 10
117.515
 20
828.226
 11
117.394
 21
827.854
  0
LINE
  8
0
 10
117.394
 20
827.854
 11
117.228
 21
827.5
  0
LINE
  8
0
 10
117.228
 20
827.5
 11
117.018
 21
827.17
  0
LINE
  8
0
 10
117.018
 20
827.17
 11
116.769
 21
826.869
  0
LINE
  8
0
 10
116.769
 20
826.869
 11
116.484
 21
826.601
  0
LINE
  8
0
 10
116.484
 20
826.601
 11
116.168
 21
826.372
  0
LINE
  8
0
 10
116.168
 20
826.372
 11
115.825
 21
826.183
  0
LINE
  8
0
 10
115.825
 20
826.183
 11
115.462
 21
826.039
  0
LINE
  8
0
 10
115.462
 20
826.039
 11
115.083
 21
825.942
  0
LINE
  8
0
 10
115.083
 20
825.942
 11
114.695
 21
825.893
  0
LINE
  8
0
 10
114.695
 20
825.893
 11
-114.695
 21
825.893
  0
LINE
  8
0
 10
115.937
 20
589.589
 11
116.545
 21
589.745
  0
LINE
  8
0
 10
116.545
 20
589.745
 11
117.129
 21
589.976
  0
LINE
  8
0
 10
117.129
 20
589.976
 11
117.679
 21
590.278
  0
LINE
  8
0
 10
117.679
 20
590.278
 11
118.187
 21
590.647
  0
LINE
  8
0
 10
118.187
 20
590.647
 11
118.645
 21
591.077
  0
LINE
  8
0
 10
118.645
 20
591.077
 11
119.045
 21
591.561
  0
LINE
  8
0
 10
119.045
 20
591.561
 11
119.382
 21
592.091
  0
LINE
  8
0
 10
119.382
 20
592.091
 11
119.649
 21
592.659
  0
LINE
  8
0
 10
119.649
 20
592.659
 11
119.843
 21
593.257
  0
LINE
  8
0
 10
119.843
 20
593.257
 11
119.961
 21
593.873
  0
LINE
  8
0
 10
119.961
 20
593.873
 11
120
 21
594.5
  0
LINE
  8
0
 10
120
 20
594.5
 11
120
 21
809.5
  0
LINE
  8
0
 10
120
 20
809.5
 11
119.961
 21
810.127
  0
LINE
  8
0
 10
119.961
 20
810.127
 11
119.843
 21
810.743
  0
LINE
  8
0
 10
119.843
 20
810.743
 11
119.649
 21
811.341
  0
LINE
  8
0
 10
119.649
 20
811.341
 11
119.382
 21
811.909
  0
LINE
  8
0
 10
119.382
 20
811.909
 11
119.045
 21
812.439
  0
LINE
  8
0
 10
119.045
 20
812.439
 11
118.645
 21
812.923
  0
LINE
  8
0
 10
118.645
 20
812.923
 11
118.187
 21
813.353
  0
LINE
  8
0
 10
118.187
 20
813.353
 11
117.679
 21
813.722
  0
LINE
  8
0
 10
117.679
 20
813.722
 11
117.129
 21
814.024
  0
LINE
  8
0
 10
117.129
 20
814.024
 11
116.545
 21
814.255
  0
LINE
  8
0
 10
116.545
 20
814.255
 11
115.937
 21
814.411
  0
LINE
  8
0
 10
115.937
 20
814.411
 11
115.314
 21
814.49
  0
LINE
  8
0
 10
115.314
 20
814.49
 11
-115.314
 21
814.49
  0
LINE
  8
0
 10
-115.314
 20
814.49
 11
-115.937
 21
814.411
  0
LINE
  8
0
 10
-115.937
 20
814.411
 11
-116.545
 21
814.255
  0
LINE
  8
0
 10
-116.545
 20
814.255
 11
-117.129
 21
814.024
  0
LINE
  8
0
 10
-117.129
 20
814.024
 11
-117.679
 21
813.722
  0
LINE
  8
0
 10
-117.679
 20
813.722
 11
-118.187
 21
813.353
  0
LINE
  8
0
 10
-118.187
 20
813.353
 11
-118.5
 21
813.059
  0
LINE
  8
0
 10
-118.5
 20
813.059
 11
-118.5
 21
813.153
  0
LINE
  8
0
 10
-118.5
 20
813.153
 11
-121.5
 21
813.153
  0
LINE
  8
0
 10
-121.5
 20
813.153
 11
-121.5
 21
590.847
  0
LINE
  8
0
 10
-121.5
 20
590.847
 11
-118.5
 21
590.847
  0
LINE
  8
0
 10
-118.5
 20
590.847
 11
-118.5
 21
590.941
  0
LINE
  8
0
 10
-118.5
 20
590.941
 11
-118.187
 21
590.647
  0
LINE
  8
0
 10
-118.187
 20
590.647
 11
-117.679
 21
590.278
  0
LINE
  8
0
 10
-117.679
 20
590.278
 11
-117.129
 21
589.976
  0
LINE
  8
0
 10
-117.129
 20
589.976
 11
-116.545
 21
589.745
  0
LINE
  8
0
 10
-116.545
 20
589.745
 11
-115.937
 21
589.589
  0
LINE
  8
0
 10
-115.937
 20
589.589
 11
-115.314
 21
589.51
  0
LINE
  8
0
 10
-115.314
 20
589.51
 11
115.314
 21
589.51
  0
LINE
  8
0
 10
115.314
 20
589.51
 11
115.937
 21
589.589
  0
LINE
  8
0
 10
112.366
 20
804.869
 11
112.1
 21
804.903
  0
LINE
  8
0
 10
112.1
 20
804.903
 11
111.84
 21
804.969
  0
LINE
  8
0
 10
111.84
 20
804.969
 11
111.591
 21
805.068
  0
LINE
  8
0
 10
111.591
 20
805.068
 11
111.356
 21
805.197
  0
LINE
  8
0
 10
111.356
 20
805.197
 11
111.139
 21
805.355
  0
LINE
  8
0
 10
111.139
 20
805.355
 11
110.943
 21
805.538
  0
LINE
  8
0
 10
110.943
 20
805.538
 11
110.773
 21
805.745
  0
LINE
  8
0
 10
110.773
 20
805.745
 11
110.629
 21
805.971
  0
LINE
  8
0
 10
110.629
 20
805.971
 11
110.515
 21
806.214
  0
LINE
  8
0
 10
110.515
 20
806.214
 11
110.432
 21
806.469
  0
LINE
  8
0
 10
110.432
 20
806.469
 11
110.382
 21
806.732
  0
LINE
  8
0
 10
110.382
 20
806.732
 11
110.365
 21
807
  0
LINE
  8
0
 10
110.365
 20
807
 11
110.382
 21
807.268
  0
LINE
  8
0
 10
110.382
 20
807.268
 11
110.432
 21
807.531
  0
LINE
  8
0
 10
110.432
 20
807.531
 11
110.515
 21
807.786
  0
LINE
  8
0
 10
110.515
 20
807.786
 11
110.629
 21
808.029
  0
LINE
  8
0
 10
110.629
 20
808.029
 11
110.773
 21
808.255
  0
LINE
  8
0
 10
110.773
 20
808.255
 11
110.943
 21
808.462
  0
LINE
  8
0
 10
110.943
 20
808.462
 11
111.139
 21
808.645
  0
LINE
  8
0
 10
111.139
 20
808.645
 11
111.356
 21
808.803
  0
LINE
  8
0
 10
111.356
 20
808.803
 11
111.591
 21
808.932
  0
LINE
  8
0
 10
111.591
 20
808.932
 11
111.84
 21
809.031
  0
LINE
  8
0
 10
111.84
 20
809.031
 11
112.1
 21
809.097
  0
LINE
  8
0
 10
112.1
 20
809.097
 11
112.366
 21
809.131
  0
LINE
  8
0
 10
112.366
 20
809.131
 11
112.634
 21
809.131
  0
LINE
  8
0
 10
112.634
 20
809.131
 11
112.9
 21
809.097
  0
LINE
  8
0
 10
112.9
 20
809.097
 11
113.16
 21
809.031
  0
LINE
  8
0
 10
113.16
 20
809.031
 11
113.409
 21
808.932
  0
LINE
  8
0
 10
113.409
 20
808.932
 11
113.644
 21
808.803
  0
LINE
  8
0
 10
113.644
 20
808.803
 11
113.861
 21
808.645
  0
LINE
  8
0
 10
113.861
 20
808.645
 11
114.057
 21
808.462
  0
LINE
  8
0
 10
114.057
 20
808.462
 11
114.227
 21
808.255
  0
LINE
  8
0
 10
114.227
 20
808.255
 11
114.371
 21
808.029
  0
LINE
  8
0
 10
114.371
 20
808.029
 11
114.485
 21
807.786
  0
LINE
  8
0
 10
114.485
 20
807.786
 11
114.568
 21
807.531
  0
LINE
  8
0
 10
114.568
 20
807.531
 11
114.618
 21
807.268
  0
LINE
  8
0
 10
114.618
 20
807.268
 11
114.635
 21
807
  0
LINE
  8
0
 10
114.635
 20
807
 11
114.618
 21
806.732
  0
LINE
  8
0
 10
114.618
 20
806.732
 11
114.568
 21
806.469
  0
LINE
  8
0
 10
114.568
 20
806.469
 11
114.485
 21
806.214
  0
LINE
  8
0
 10
114.485
 20
806.214
 11
114.371
 21
805.971
  0
LINE
  8
0
 10
114.371
 20
805.971
 11
114.227
 21
805.745
  0
LINE
  8
0
 10
114.227
 20
805.745
 11
114.057
 21
805.538
  0
LINE
  8
0
 10
114.057
 20
805.538
 11
113.861
 21
805.355
  0
LINE
  8
0
 10
113.861
 20
805.355
 11
113.644
 21
805.197
  0
LINE
  8
0
 10
113.644
 20
805.197
 11
113.409
 21
805.068
  0
LINE
  8
0
 10
113.409
 20
805.068
 11
113.16
 21
804.969
  0
LINE
  8
0
 10
113.16
 20
804.969
 11
112.9
 21
804.903
  0
LINE
  8
0
 10
112.9
 20
804.903
 11
112.634
 21
804.869
  0
LINE
  8
0
 10
112.634
 20
804.869
 11
112.366
 21
804.869
  0
LINE
  8
0
 10
-112.634
 20
804.869
 11
-112.9
 21
804.903
  0
LINE
  8
0
 10
-112.9
 20
804.903
 11
-113.16
 21
804.969
  0
LINE
  8
0
 10
-113.16
 20
804.969
 11
-113.409
 21
805.068
  0
LINE
  8
0
 10
-113.409
 20
805.068
 11
-113.644
 21
805.197
  0
LINE
  8
0
 10
-113.644
 20
805.197
 11
-113.861
 21
805.355
  0
LINE
  8
0
 10
-113.861
 20
805.355
 11
-114.057
 21
805.538
  0
LINE
  8
0
 10
-114.057
 20
805.538
 11
-114.227
 21
805.745
  0
LINE
  8
0
 10
-114.227
 20
805.745
 11
-114.371
 21
805.971
  0
LINE
  8
0
 10
-114.371
 20
805.971
 11
-114.485
 21
806.214
  0
LINE
  8
0
 10
-114.485
 20
806.214
 11
-114.568
 21
806.469
  0
LINE
  8
0
 10
-114.568
 20
806.469
 11
-114.618
 21
806.732
  0
LINE
  8
0
 10
-114.618
 20
806.732
 11
-114.635
 21
807
  0
LINE
  8
0
 10
-114.635
 20
807
 11
-114.618
 21
807.268
  0
LINE
  8
0
 10
-114.618
 20
807.268
 11
-114.568
 21
807.531
  0
LINE
  8
0
 10
-114.568
 20
807.531
 11
-114.485
 21
807.786
  0
LINE
  8
0
 10
-114.485
 20
807.786
 11
-114.371
 21
808.029
  0
LINE
  8
0
 10
-114.371
 20
808.029
 11
-114.227
 21
808.255
  0
LINE
  8
0
 10
-114.227
 20
808.255
 11
-114.057
 21
808.462
  0
LINE
  8
0
 10
-114.057
 20
808.462
 11
-113.861
 21
808.645
  0
LINE
  8
0
 10
-113.861
 20
808.645
 11
-113.644
 21
808.803
  0
LINE
  8
0
 10
-113.644
 20
808.803
 11
-113.409
 21
808.932
  0
LINE
  8
0
 10
-113.409
 20
808.932
 11
-113.16
 21
809.031
  0
LINE
  8
0
 10
-113.16
 20
809.031
 11
-112.9
 21
809.097
  0
LINE
  8
0
 10
-112.9
 20
809.097
 11
-112.634
 21
809.131
  0
LINE
  8
0
 10
-112.634
 20
809.131
 11
-112.366
 21
809.131
  0
LINE
  8
0
 10
-112.366
 20
809.131
 11
-112.1
 21
809.097
  0
LINE
  8
0
 10
-112.1
 20
809.097
 11
-111.84
 21
809.031
  0
LINE
  8
0
 10
-111.84
 20
809.031
 11
-111.591
 21
808.932
  0
LINE
  8
0
 10
-111.591
 20
808.932
 11
-111.356
 21
808.803
  0
LINE
  8
0
 10
-111.356
 20
808.803
 11
-111.139
 21
808.645
  0
LINE
  8
0
 10
-111.139
 20
808.645
 11
-110.943
 21
808.462
  0
LINE
  8
0
 10
-110.943
 20
808.462
 11
-110.773
 21
808.255
  0
LINE
  8
0
 10
-110.773
 20
808.255
 11
-110.629
 21
808.029
  0
LINE
  8
0
 10
-110.629
 20
808.029
 11
-110.515
 21
807.786
  0
LINE
  8
0
 10
-110.515
 20
807.786
 11
-110.432
 21
807.531
  0
LINE
  8
0
 10
-110.432
 20
807.531
 11
-110.382
 21
807.268
  0
LINE
  8
0
 10
-110.382
 20
807.268
 11
-110.365
 21
807
  0
LINE
  8
0
 10
-110.365
 20
807
 11
-110.382
 21
806.732
  0
LINE
  8
0
 10
-110.382
 20
806.732
 11
-110.432
 21
806.469
  0
LINE
  8
0
 10
-110.432
 20
806.469
 11
-110.515
 21
806.214
  0
LINE
  8
0
 10
-110.515
 20
806.214
 11
-110.629
 21
805.971
  0
LINE
  8
0
 10
-110.629
 20
805.971
 11
-110.773
 21
805.745
  0
LINE
  8
0
 10
-110.773
 20
805.745
 11
-110.943
 21
805.538
  0
LINE
  8
0
 10
-110.943
 20
805.538
 11
-111.139
 21
805.355
  0
LINE
  8
0
 10
-111.139
 20
805.355
 11
-111.356
 21
805.197
  0
LINE
  8
0
 10
-111.356
 20
805.197
 11
-111.591
 21
805.068
  0
LINE
  8
0
 10
-111.591
 20
805.068
 11
-111.84
 21
804.969
  0
LINE
  8
0
 10
-111.84
 20
804.969
 11
-112.1
 21
804.903
  0
LINE
  8
0
 10
-112.1
 20
804.903
 11
-112.366
 21
804.869
  0
LINE
  8
0
 10
-112.366
 20
804.869
 11
-112.634
 21
804.869
  0
LINE
  8
0
 10
112.366
 20
594.869
 11
112.1
 21
594.903
  0
LINE
  8
0
 10
112.1
 20
594.903
 11
111.84
 21
594.969
  0
LINE
  8
0
 10
111.84
 20
594.969
 11
111.591
 21
595.068
  0
LINE
  8
0
 10
111.591
 20
595.068
 11
111.356
 21
595.197
  0
LINE
  8
0
 10
111.356
 20
595.197
 11
111.139
 21
595.355
  0
LINE
  8
0
 10
111.139
 20
595.355
 11
110.943
 21
595.538
  0
LINE
  8
0
 10
110.943
 20
595.538
 11
110.773
 21
595.745
  0
LINE
  8
0
 10
110.773
 20
595.745
 11
110.629
 21
595.971
  0
LINE
  8
0
 10
110.629
 20
595.971
 11
110.515
 21
596.214
  0
LINE
  8
0
 10
110.515
 20
596.214
 11
110.432
 21
596.469
  0
LINE
  8
0
 10
110.432
 20
596.469
 11
110.382
 21
596.732
  0
LINE
  8
0
 10
110.382
 20
596.732
 11
110.365
 21
597
  0
LINE
  8
0
 10
110.365
 20
597
 11
110.382
 21
597.268
  0
LINE
  8
0
 10
110.382
 20
597.268
 11
110.432
 21
597.531
  0
LINE
  8
0
 10
110.432
 20
597.531
 11
110.515
 21
597.786
  0
LINE
  8
0
 10
110.515
 20
597.786
 11
110.629
 21
598.029
  0
LINE
  8
0
 10
110.629
 20
598.029
 11
110.773
 21
598.255
  0
LINE
  8
0
 10
110.773
 20
598.255
 11
110.943
 21
598.462
  0
LINE
  8
0
 10
110.943
 20
598.462
 11
111.139
 21
598.645
  0
LINE
  8
0
 10
111.139
 20
598.645
 11
111.356
 21
598.803
  0
LINE
  8
0
 10
111.356
 20
598.803
 11
111.591
 21
598.932
  0
LINE
  8
0
 10
111.591
 20
598.932
 11
111.84
 21
599.031
  0
LINE
  8
0
 10
111.84
 20
599.031
 11
112.1
 21
599.097
  0
LINE
  8
0
 10
112.1
 20
599.097
 11
112.366
 21
599.131
  0
LINE
  8
0
 10
112.366
 20
599.131
 11
112.634
 21
599.131
  0
LINE
  8
0
 10
112.634
 20
599.131
 11
112.9
 21
599.097
  0
LINE
  8
0
 10
112.9
 20
599.097
 11
113.16
 21
599.031
  0
LINE
  8
0
 10
113.16
 20
599.031
 11
113.409
 21
598.932
  0
LINE
  8
0
 10
113.409
 20
598.932
 11
113.644
 21
598.803
  0
LINE
  8
0
 10
113.644
 20
598.803
 11
113.861
 21
598.645
  0
LINE
  8
0
 10
113.861
 20
598.645
 11
114.057
 21
598.462
  0
LINE
  8
0
 10
114.057
 20
598.462
 11
114.227
 21
598.255
  0
LINE
  8
0
 10
114.227
 20
598.255
 11
114.371
 21
598.029
  0
LINE
  8
0
 10
114.371
 20
598.029
 11
114.485
 21
597.786
  0
LINE
  8
0
 10
114.485
 20
597.786
 11
114.568
 21
597.531
  0
LINE
  8
0
 10
114.568
 20
597.531
 11
114.618
 21
597.268
  0
LINE
  8
0
 10
114.618
 20
597.268
 11
114.635
 21
597
  0
LINE
  8
0
 10
114.635
 20
597
 11
114.618
 21
596.732
  0
LINE
  8
0
 10
114.618
 20
596.732
 11
114.568
 21
596.469
  0
LINE
  8
0
 10
114.568
 20
596.469
 11
114.485
 21
596.214
  0
LINE
  8
0
 10
114.485
 20
596.214
 11
114.371
 21
595.971
  0
LINE
  8
0
 10
114.371
 20
595.971
 11
114.227
 21
595.745
  0
LINE
  8
0
 10
114.227
 20
595.745
 11
114.057
 21
595.538
  0
LINE
  8
0
 10
114.057
 20
595.538
 11
113.861
 21
595.355
  0
LINE
  8
0
 10
113.861
 20
595.355
 11
113.644
 21
595.197
  0
LINE
  8
0
 10
113.644
 20
595.197
 11
113.409
 21
595.068
  0
LINE
  8
0
 10
113.409
 20
595.068
 11
113.16
 21
594.969
  0
LINE
  8
0
 10
113.16
 20
594.969
 11
112.9
 21
594.903
  0
LINE
  8
0
 10
112.9
 20
594.903
 11
112.634
 21
594.869
  0
LINE
  8
0
 10
112.634
 20
594.869
 11
112.366
 21
594.869
  0
LINE
  8
0
 10
-112.634
 20
594.869
 11
-112.9
 21
594.903
  0
LINE
  8
0
 10
-112.9
 20
594.903
 11
-113.16
 21
594.969
  0
LINE
  8
0
 10
-113.16
 20
594.969
 11
-113.409
 21
595.068
  0
LINE
  8
0
 10
-113.409
 20
595.068
 11
-113.644
 21
595.197
  0
LINE
  8
0
 10
-113.644
 20
595.197
 11
-113.861
 21
595.355
  0
LINE
  8
0
 10
-113.861
 20
595.355
 11
-114.057
 21
595.538
  0
LINE
  8
0
 10
-114.057
 20
595.538
 11
-114.227
 21
595.745
  0
LINE
  8
0
 10
-114.227
 20
595.745
 11
-114.371
 21
595.971
  0
LINE
  8
0
 10
-114.371
 20
595.971
 11
-114.485
 21
596.214
  0
LINE
  8
0
 10
-114.485
 20
596.214
 11
-114.568
 21
596.469
  0
LINE
  8
0
 10
-114.568
 20
596.469
 11
-114.618
 21
596.732
  0
LINE
  8
0
 10
-114.618
 20
596.732
 11
-114.635
 21
597
  0
LINE
  8
0
 10
-114.635
 20
597
 11
-114.618
 21
597.268
  0
LINE
  8
0
 10
-114.618
 20
597.268
 11
-114.568
 21
597.531
  0
LINE
  8
0
 10
-114.568
 20
597.531
 11
-114.485
 21
597.786
  0
LINE
  8
0
 10
-114.485
 20
597.786
 11
-114.371
 21
598.029
  0
LINE
  8
0
 10
-114.371
 20
598.029
 11
-114.227
 21
598.255
  0
LINE
  8
0
 10
-114.227
 20
598.255
 11
-114.057
 21
598.462
  0
LINE
  8
0
 10
-114.057
 20
598.462
 11
-113.861
 21
598.645
  0
LINE
  8
0
 10
-113.861
 20
598.645
 11
-113.644
 21
598.803
  0
LINE
  8
0
 10
-113.644
 20
598.803
 11
-113.409
 21
598.932
  0
LINE
  8
0
 10
-113.409
 20
598.932
 11
-113.16
 21
599.031
  0
LINE
  8
0
 10
-113.16
 20
599.031
 11
-112.9
 21
599.097
  0
LINE
  8
0
 10
-112.9
 20
599.097
 11
-112.634
 21
599.131
  0
LINE
  8
0
 10
-112.634
 20
599.131
 11
-112.366
 21
599.131
  0
LINE
  8
0
 10
-112.366
 20
599.131
 11
-112.1
 21
599.097
  0
LINE
  8
0
 10
-112.1
 20
599.097
 11
-111.84
 21
599.031
  0
LINE
  8
0
 10
-111.84
 20
599.031
 11
-111.591
 21
598.932
  0
LINE
  8
0
 10
-111.591
 20
598.932
 11
-111.356
 21
598.803
  0
LINE
  8
0
 10
-111.356
 20
598.803
 11
-111.139
 21
598.645
  0
LINE
  8
0
 10
-111.139
 20
598.645
 11
-110.943
 21
598.462
  0
LINE
  8
0
 10
-110.943
 20
598.462
 11
-110.773
 21
598.255
  0
LINE
  8
0
 10
-110.773
 20
598.255
 11
-110.629
 21
598.029
  0
LINE
  8
0
 10
-110.629
 20
598.029
 11
-110.515
 21
597.786
  0
LINE
  8
0
 10
-110.515
 20
597.786
 11
-110.432
 21
597.531
  0
LINE
  8
0
 10
-110.432
 20
597.531
 11
-110.382
 21
597.268
  0
LINE
  8
0
 10
-110.382
 20
597.268
 11
-110.365
 21
597
  0
LINE
  8
0
 10
-110.365
 20
597
 11
-110.382
 21
596.732
  0
LINE
  8
0
 10
-110.382
 20
596.732
 11
-110.432
 21
596.469
  0
LINE
  8
0
 10
-110.432
 20
596.469
 11
-110.515
 21
596.214
  0
LINE
  8
0
 10
-110.515
 20
596.214
 11
-110.629
 21
595.971
  0
LINE
  8
0
 10
-110.629
 20
595.971
 11
-110.773
 21
595.745
  0
LINE
  8
0
 10
-110.773
 20
595.745
 11
-110.943
 21
595.538
  0
LINE
  8
0
 10
-110.943
 20
595.538
 11
-111.139
 21
595.355
  0
LINE
  8
0
 10
-111.139
 20
595.355
 11
-111.356
 21
595.197
  0
LINE
  8
0
 10
-111.356
 20
595.197
 11
-111.591
 21
595.068
  0
LINE
  8
0
 10
-111.591
 20
595.068
 11
-111.84
 21
594.969
  0
LINE
  8
0
 10
-111.84
 20
594.969
 11
-112.1
 21
594.903
  0
LINE
  8
0
 10
-112.1
 20
594.903
 11
-112.366
 21
594.869
  0
LINE
  8
0
 10
-112.366
 20
594.869
 11
-112.634
 21
594.869
  0
ENDSEC
  0
SECTION
  2
OBJECTS
  0
DICTIONARY
  0
ENDSEC
  0
EOF
