<?xml version="1.0" standalone="no"?>
<!DOCTYPE svg PUBLIC "-//W3C//DTD SVG 1.1//EN" "http://www.w3.org/Graphics/SVG/1.1/DTD/svg11.dtd">
<svg width="257mm" height="558mm" viewBox="-129 -1035 257 558" xmlns="http://www.w3.org/2000/svg" version="1.1">
<title>OpenSCAD Model</title>
<path d="
M -126,-856.441 L -125.687,-856.147 L -125.179,-855.778 L -124.629,-855.476 L -124.045,-855.245 L -123.437,-855.089
 L -122.814,-855.01 L 122.814,-855.01 L 123.437,-855.089 L 124.045,-855.245 L 124.629,-855.476 L 125.179,-855.778
 L 125.687,-856.147 L 126.145,-856.577 L 126.545,-857.061 L 126.882,-857.591 L 127.149,-858.159 L 127.343,-858.757
 L 127.461,-859.373 L 127.5,-860 L 127.5,-1030 L 127.461,-1030.63 L 127.343,-1031.24 L 127.149,-1031.84
 L 126.882,-1032.41 L 126.545,-1032.94 L 126.145,-1033.42 L 125.687,-1033.85 L 125.179,-1034.22 L 124.629,-1034.52
 L 124.045,-1034.76 L 123.437,-1034.91 L 122.814,-1034.99 L -122.814,-1034.99 L -123.437,-1034.91 L -124.045,-1034.76
 L -124.629,-1034.52 L -125.179,-1034.22 L -125.687,-1033.85 L -126,-1033.56 L -126,-1034.99 L -129,-1034.99
 L -129,-855.01 L -126,-855.01 z
M -122.251,-856.508 L -122.75,-856.571 L -123.236,-856.696 L -123.703,-856.881 L -124.143,-857.123 L -124.55,-857.418
 L -124.916,-857.762 L -125.236,-858.149 L -125.505,-858.573 L -125.719,-859.028 L -125.874,-859.505 L -125.968,-859.999
 L -126,-860.5 L -126,-1029.5 L -125.968,-1030 L -125.874,-1030.49 L -125.719,-1030.97 L -125.505,-1031.43
 L -125.236,-1031.85 L -124.916,-1032.24 L -124.55,-1032.58 L -124.143,-1032.88 L -123.703,-1033.12 L -123.236,-1033.3
 L -122.75,-1033.43 L -122.251,-1033.49 L 122.251,-1033.49 L 122.75,-1033.43 L 123.236,-1033.3 L 123.703,-1033.12
 L 124.143,-1032.88 L 124.55,-1032.58 L 124.916,-1032.24 L 125.236,-1031.85 L 125.505,-1031.43 L 125.719,-1030.97
 L 125.874,-1030.49 L 125.968,-1030 L 126,-1029.5 L 126,-860.5 L 125.968,-859.999 L 125.874,-859.505
 L 125.719,-859.028 L 125.505,-858.573 L 125.236,-858.149 L 124.916,-857.762 L 124.55,-857.418 L 124.143,-857.123
 L 123.703,-856.881 L 123.236,-856.696 L 122.75,-856.571 L 122.251,-856.508 z
M 123.437,-666.089 L 124.045,-666.245 L 124.629,-666.476 L 125.179,-666.778 L 125.687,-667.147 L 126.145,-667.577
 L 126.545,-668.061 L 126.882,-668.591 L 127.149,-669.159 L 127.343,-669.757 L 127.461,-670.373 L 127.5,-671
 L 127.5,-841 L 127.461,-841.627 L 127.343,-842.243 L 127.149,-842.841 L 126.882,-843.409 L 126.545,-843.939
 L 126.145,-844.423 L 125.687,-844.853 L 125.179,-845.222 L 124.629,-845.524 L 124.045,-845.755 L 123.437,-845.911
 L 122.814,-845.99 L -122.814,-845.99 L -123.437,-845.911 L -124.045,-845.755 L -124.629,-845.524 L -125.179,-845.222
 L -125.687,-844.853 L -126,-844.559 L -126,-845.979 L -129,-845.979 L -129,-666.021 L -126,-666.021
 L -126,-667.441 L -125.687,-667.147 L -125.179,-666.778 L -124.629,-666.476 L -124.045,-666.245 L -123.437,-666.089
 L -122.814,-666.01 L 122.814,-666.01 z
M -122.195,-668.393 L -122.583,-668.442 L -122.962,-668.539 L -123.325,-668.683 L -123.668,-668.872 L -123.984,-669.101
 L -124.269,-669.369 L -124.518,-669.67 L -124.728,-670 L -124.894,-670.354 L -125.015,-670.726 L -125.088,-671.11
 L -125.113,-671.5 L -125.113,-840.5 L -125.088,-840.89 L -125.015,-841.274 L -124.894,-841.646 L -124.728,-842
 L -124.518,-842.33 L -124.269,-842.631 L -123.984,-842.899 L -123.668,-843.128 L -123.325,-843.317 L -122.962,-843.461
 L -122.583,-843.558 L -122.195,-843.607 L 122.195,-843.607 L 122.583,-843.558 L 122.962,-843.461 L 123.325,-843.317
 L 123.668,-843.128 L 123.984,-842.899 L 124.269,-842.631 L 124.518,-842.33 L 124.728,-842 L 124.894,-841.646
 L 125.015,-841.274 L 125.088,-840.89 L 125.113,-840.5 L 125.113,-671.5 L 125.088,-671.11 L 125.015,-670.726
 L 124.894,-670.354 L 124.728,-670 L 124.518,-669.67 L 124.269,-669.369 L 123.984,-669.101 L 123.668,-668.872
 L 123.325,-668.683 L 122.962,-668.539 L 122.583,-668.442 L 122.195,-668.393 z
M 123.437,-477.089 L 124.045,-477.245 L 124.629,-477.476 L 125.179,-477.778 L 125.687,-478.147 L 126.145,-478.577
 L 126.545,-479.061 L 126.882,-479.591 L 127.149,-480.159 L 127.343,-480.757 L 127.461,-481.373 L 127.5,-482
 L 127.5,-652 L 127.461,-652.627 L 127.343,-653.243 L 127.149,-653.841 L 126.882,-654.409 L 126.545,-654.939
 L 126.145,-655.423 L 125.687,-655.853 L 125.179,-656.222 L 124.629,-656.524 L 124.045,-656.755 L 123.437,-656.911
 L 122.814,-656.99 L -122.814,-656.99 L -123.437,-656.911 L -124.045,-656.755 L -124.629,-656.524 L -125.179,-656.222
 L -125.687,-655.853 L -126,-655.559 L -126,-655.653 L -129,-655.653 L -129,-478.347 L -126,-478.347
 L -126,-478.441 L -125.687,-478.147 L -125.179,-477.778 L -124.629,-477.476 L -124.045,-477.245 L -123.437,-477.089
 L -122.814,-477.01 L 122.814,-477.01 z
M 119.866,-647.369 L 119.6,-647.403 L 119.34,-647.469 L 119.091,-647.568 L 118.856,-647.697 L 118.639,-647.855
 L 118.443,-648.038 L 118.273,-648.245 L 118.129,-648.471 L 118.015,-648.714 L 117.932,-648.969 L 117.882,-649.232
 L 117.865,-649.5 L 117.882,-649.768 L 117.932,-650.031 L 118.015,-650.286 L 118.129,-650.529 L 118.273,-650.755
 L 118.443,-650.962 L 118.639,-651.145 L 118.856,-651.303 L 119.091,-651.432 L 119.34,-651.531 L 119.6,-651.597
 L 119.866,-651.631 L 120.134,-651.631 L 120.4,-651.597 L 120.66,-651.531 L 120.909,-651.432 L 121.144,-651.303
 L 121.361,-651.145 L 121.557,-650.962 L 121.727,-650.755 L 121.871,-650.529 L 121.985,-650.286 L 122.068,-650.031
 L 122.118,-649.768 L 122.135,-649.5 L 122.118,-649.232 L 122.068,-648.969 L 121.985,-648.714 L 121.871,-648.471
 L 121.727,-648.245 L 121.557,-648.038 L 121.361,-647.855 L 121.144,-647.697 L 120.909,-647.568 L 120.66,-647.469
 L 120.4,-647.403 L 120.134,-647.369 z
M -120.134,-647.369 L -120.4,-647.403 L -120.66,-647.469 L -120.909,-647.568 L -121.144,-647.697 L -121.361,-647.855
 L -121.557,-648.038 L -121.727,-648.245 L -121.871,-648.471 L -121.985,-648.714 L -122.068,-648.969 L -122.118,-649.232
 L -122.135,-649.5 L -122.118,-649.768 L -122.068,-650.031 L -121.985,-650.286 L -121.871,-650.529 L -121.727,-650.755
 L -121.557,-650.962 L -121.361,-651.145 L -121.144,-651.303 L -120.909,-651.432 L -120.66,-651.531 L -120.4,-651.597
 L -120.134,-651.631 L -119.866,-651.631 L -119.6,-651.597 L -119.34,-651.531 L -119.091,-651.432 L -118.856,-651.303
 L -118.639,-651.145 L -118.443,-650.962 L -118.273,-650.755 L -118.129,-650.529 L -118.015,-650.286 L -117.932,-650.031
 L -117.882,-649.768 L -117.865,-649.5 L -117.882,-649.232 L -117.932,-648.969 L -118.015,-648.714 L -118.129,-648.471
 L -118.273,-648.245 L -118.443,-648.038 L -118.639,-647.855 L -118.856,-647.697 L -119.091,-647.568 L -119.34,-647.469
 L -119.6,-647.403 L -119.866,-647.369 z
M 119.866,-482.369 L 119.6,-482.403 L 119.34,-482.469 L 119.091,-482.568 L 118.856,-482.697 L 118.639,-482.855
 L 118.443,-483.038 L 118.273,-483.245 L 118.129,-483.471 L 118.015,-483.714 L 117.932,-483.969 L 117.882,-484.232
 L 117.865,-484.5 L 117.882,-484.768 L 117.932,-485.031 L 118.015,-485.286 L 118.129,-485.529 L 118.273,-485.755
 L 118.443,-485.962 L 118.639,-486.145 L 118.856,-486.303 L 119.091,-486.432 L 119.34,-486.531 L 119.6,-486.597
 L 119.866,-486.631 L 120.134,-486.631 L 120.4,-486.597 L 120.66,-486.531 L 120.909,-486.432 L 121.144,-486.303
 L 121.361,-486.145 L 121.557,-485.962 L 121.727,-485.755 L 121.871,-485.529 L 121.985,-485.286 L 122.068,-485.031
 L 122.118,-484.768 L 122.135,-484.5 L 122.118,-484.232 L 122.068,-483.969 L 121.985,-483.714 L 121.871,-483.471
 L 121.727,-483.245 L 121.557,-483.038 L 121.361,-482.855 L 121.144,-482.697 L 120.909,-482.568 L 120.66,-482.469
 L 120.4,-482.403 L 120.134,-482.369 z
M -120.134,-482.369 L -120.4,-482.403 L -120.66,-482.469 L -120.909,-482.568 L -121.144,-482.697 L -121.361,-482.855
 L -121.557,-483.038 L -121.727,-483.245 L -121.871,-483.471 L -121.985,-483.714 L -122.068,-483.969 L -122.118,-484.232
 L -122.135,-484.5 L -122.118,-484.768 L -122.068,-485.031 L -121.985,-485.286 L -121.871,-485.529 L -121.727,-485.755
 L -121.557,-485.962 L -121.361,-486.145 L -121.144,-486.303 L -120.909,-486.432 L -120.66,-486.531 L -120.4,-486.597
 L -120.134,-486.631 L -119.866,-486.631 L -119.6,-486.597 L -119.34,-486.531 L -119.091,-486.432 L -118.856,-486.303
 L -118.639,-486.145 L -118.443,-485.962 L -118.273,-485.755 L -118.129,-485.529 L -118.015,-485.286 L -117.932,-485.031
 L -117.882,-484.768 L -117.865,-484.5 L -117.882,-484.232 L -117.932,-483.969 L -118.015,-483.714 L -118.129,-483.471
 L -118.273,-483.245 L -118.443,-483.038 L -118.639,-482.855 L -118.856,-482.697 L -119.091,-482.568 L -119.34,-482.469
 L -119.6,-482.403 L -119.866,-482.369 z
" stroke="black" fill="lightgray" stroke-width="0.5"/>
</svg>
