  0
SECTION
  2
BLOCKS
  0
ENDSEC
  0
SECTION
  2
ENTITIES
  0
LINE
  8
0
 10
-126
 20
856.441
 11
-125.687
 21
856.147
  0
LINE
  8
0
 10
-125.687
 20
856.147
 11
-125.179
 21
855.778
  0
LINE
  8
0
 10
-125.179
 20
855.778
 11
-124.629
 21
855.476
  0
LINE
  8
0
 10
-124.629
 20
855.476
 11
-124.045
 21
855.245
  0
LINE
  8
0
 10
-124.045
 20
855.245
 11
-123.437
 21
855.089
  0
LINE
  8
0
 10
-123.437
 20
855.089
 11
-122.814
 21
855.01
  0
LINE
  8
0
 10
-122.814
 20
855.01
 11
122.814
 21
855.01
  0
LINE
  8
0
 10
122.814
 20
855.01
 11
123.437
 21
855.089
  0
LINE
  8
0
 10
123.437
 20
855.089
 11
124.045
 21
855.245
  0
LINE
  8
0
 10
124.045
 20
855.245
 11
124.629
 21
855.476
  0
LINE
  8
0
 10
124.629
 20
855.476
 11
125.179
 21
855.778
  0
LINE
  8
0
 10
125.179
 20
855.778
 11
125.687
 21
856.147
  0
LINE
  8
0
 10
125.687
 20
856.147
 11
126.145
 21
856.577
  0
LINE
  8
0
 10
126.145
 20
856.577
 11
126.545
 21
857.061
  0
LINE
  8
0
 10
126.545
 20
857.061
 11
126.882
 21
857.591
  0
LINE
  8
0
 10
126.882
 20
857.591
 11
127.149
 21
858.159
  0
LINE
  8
0
 10
127.149
 20
858.159
 11
127.343
 21
858.757
  0
LINE
  8
0
 10
127.343
 20
858.757
 11
127.461
 21
859.373
  0
LINE
  8
0
 10
127.461
 20
859.373
 11
127.5
 21
860
  0
LINE
  8
0
 10
127.5
 20
860
 11
127.5
 21
1030
  0
LINE
  8
0
 10
127.5
 20
1030
 11
127.461
 21
1030.63
  0
LINE
  8
0
 10
127.461
 20
1030.63
 11
127.343
 21
1031.24
  0
LINE
  8
0
 10
127.343
 20
1031.24
 11
127.149
 21
1031.84
  0
LINE
  8
0
 10
127.149
 20
1031.84
 11
126.882
 21
1032.41
  0
LINE
  8
0
 10
126.882
 20
1032.41
 11
126.545
 21
1032.94
  0
LINE
  8
0
 10
126.545
 20
1032.94
 11
126.145
 21
1033.42
  0
LINE
  8
0
 10
126.145
 20
1033.42
 11
125.687
 21
1033.85
  0
LINE
  8
0
 10
125.687
 20
1033.85
 11
125.179
 21
1034.22
  0
LINE
  8
0
 10
125.179
 20
1034.22
 11
124.629
 21
1034.52
  0
LINE
  8
0
 10
124.629
 20
1034.52
 11
124.045
 21
1034.76
  0
LINE
  8
0
 10
124.045
 20
1034.76
 11
123.437
 21
1034.91
  0
LINE
  8
0
 10
123.437
 20
1034.91
 11
122.814
 21
1034.99
  0
LINE
  8
0
 10
122.814
 20
1034.99
 11
-122.814
 21
1034.99
  0
LINE
  8
0
 10
-122.814
 20
1034.99
 11
-123.437
 21
1034.91
  0
LINE
  8
0
 10
-123.437
 20
1034.91
 11
-124.045
 21
1034.76
  0
LINE
  8
0
 10
-124.045
 20
1034.76
 11
-124.629
 21
1034.52
  0
LINE
  8
0
 10
-124.629
 20
1034.52
 11
-125.179
 21
1034.22
  0
LINE
  8
0
 10
-125.179
 20
1034.22
 11
-125.687
 21
1033.85
  0
LINE
  8
0
 10
-125.687
 20
1033.85
 11
-126
 21
1033.56
  0
LINE
  8
0
 10
-126
 20
1033.56
 11
-126
 21
1034.99
  0
LINE
  8
0
 10
-126
 20
1034.99
 11
-129
 21
1034.99
  0
LINE
  8
0
 10
-129
 20
1034.99
 11
-129
 21
855.01
  0
LINE
  8
0
 10
-129
 20
855.01
 11
-126
 21
855.01
  0
LINE
  8
0
 10
-126
 20
855.01
 11
-126
 21
856.441
  0
LINE
  8
0
 10
-122.251
 20
856.508
 11
-122.75
 21
856.571
  0
LINE
  8
0
 10
-122.75
 20
856.571
 11
-123.236
 21
856.696
  0
LINE
  8
0
 10
-123.236
 20
856.696
 11
-123.703
 21
856.881
  0
LINE
  8
0
 10
-123.703
 20
856.881
 11
-124.143
 21
857.123
  0
LINE
  8
0
 10
-124.143
 20
857.123
 11
-124.55
 21
857.418
  0
LINE
  8
0
 10
-124.55
 20
857.418
 11
-124.916
 21
857.762
  0
LINE
  8
0
 10
-124.916
 20
857.762
 11
-125.236
 21
858.149
  0
LINE
  8
0
 10
-125.236
 20
858.149
 11
-125.505
 21
858.573
  0
LINE
  8
0
 10
-125.505
 20
858.573
 11
-125.719
 21
859.028
  0
LINE
  8
0
 10
-125.719
 20
859.028
 11
-125.874
 21
859.505
  0
LINE
  8
0
 10
-125.874
 20
859.505
 11
-125.968
 21
859.999
  0
LINE
  8
0
 10
-125.968
 20
859.999
 11
-126
 21
860.5
  0
LINE
  8
0
 10
-126
 20
860.5
 11
-126
 21
1029.5
  0
LINE
  8
0
 10
-126
 20
1029.5
 11
-125.968
 21
1030
  0
LINE
  8
0
 10
-125.968
 20
1030
 11
-125.874
 21
1030.49
  0
LINE
  8
0
 10
-125.874
 20
1030.49
 11
-125.719
 21
1030.97
  0
LINE
  8
0
 10
-125.719
 20
1030.97
 11
-125.505
 21
1031.43
  0
LINE
  8
0
 10
-125.505
 20
1031.43
 11
-125.236
 21
1031.85
  0
LINE
  8
0
 10
-125.236
 20
1031.85
 11
-124.916
 21
1032.24
  0
LINE
  8
0
 10
-124.916
 20
1032.24
 11
-124.55
 21
1032.58
  0
LINE
  8
0
 10
-124.55
 20
1032.58
 11
-124.143
 21
1032.88
  0
LINE
  8
0
 10
-124.143
 20
1032.88
 11
-123.703
 21
1033.12
  0
LINE
  8
0
 10
-123.703
 20
1033.12
 11
-123.236
 21
1033.3
  0
LINE
  8
0
 10
-123.236
 20
1033.3
 11
-122.75
 21
1033.43
  0
LINE
  8
0
 10
-122.75
 20
1033.43
 11
-122.251
 21
1033.49
  0
LINE
  8
0
 10
-122.251
 20
1033.49
 11
122.251
 21
1033.49
  0
LINE
  8
0
 10
122.251
 20
1033.49
 11
122.75
 21
1033.43
  0
LINE
  8
0
 10
122.75
 20
1033.43
 11
123.236
 21
1033.3
  0
LINE
  8
0
 10
123.236
 20
1033.3
 11
123.703
 21
1033.12
  0
LINE
  8
0
 10
123.703
 20
1033.12
 11
124.143
 21
1032.88
  0
LINE
  8
0
 10
124.143
 20
1032.88
 11
124.55
 21
1032.58
  0
LINE
  8
0
 10
124.55
 20
1032.58
 11
124.916
 21
1032.24
  0
LINE
  8
0
 10
124.916
 20
1032.24
 11
125.236
 21
1031.85
  0
LINE
  8
0
 10
125.236
 20
1031.85
 11
125.505
 21
1031.43
  0
LINE
  8
0
 10
125.505
 20
1031.43
 11
125.719
 21
1030.97
  0
LINE
  8
0
 10
125.719
 20
1030.97
 11
125.874
 21
1030.49
  0
LINE
  8
0
 10
125.874
 20
1030.49
 11
125.968
 21
1030
  0
LINE
  8
0
 10
125.968
 20
1030
 11
126
 21
1029.5
  0
LINE
  8
0
 10
126
 20
1029.5
 11
126
 21
860.5
  0
LINE
  8
0
 10
126
 20
860.5
 11
125.968
 21
859.999
  0
LINE
  8
0
 10
125.968
 20
859.999
 11
125.874
 21
859.505
  0
LINE
  8
0
 10
125.874
 20
859.505
 11
125.719
 21
859.028
  0
LINE
  8
0
 10
125.719
 20
859.028
 11
125.505
 21
858.573
  0
LINE
  8
0
 10
125.505
 20
858.573
 11
125.236
 21
858.149
  0
LINE
  8
0
 10
125.236
 20
858.149
 11
124.916
 21
857.762
  0
LINE
  8
0
 10
124.916
 20
857.762
 11
124.55
 21
857.418
  0
LINE
  8
0
 10
124.55
 20
857.418
 11
124.143
 21
857.123
  0
LINE
  8
0
 10
124.143
 20
857.123
 11
123.703
 21
856.881
  0
LINE
  8
0
 10
123.703
 20
856.881
 11
123.236
 21
856.696
  0
LINE
  8
0
 10
123.236
 20
856.696
 11
122.75
 21
856.571
  0
LINE
  8
0
 10
122.75
 20
856.571
 11
122.251
 21
856.508
  0
LINE
  8
0
 10
122.251
 20
856.508
 11
-122.251
 21
856.508
  0
LINE
  8
0
 10
123.437
 20
666.089
 11
124.045
 21
666.245
  0
LINE
  8
0
 10
124.045
 20
666.245
 11
124.629
 21
666.476
  0
LINE
  8
0
 10
124.629
 20
666.476
 11
125.179
 21
666.778
  0
LINE
  8
0
 10
125.179
 20
666.778
 11
125.687
 21
667.147
  0
LINE
  8
0
 10
125.687
 20
667.147
 11
126.145
 21
667.577
  0
LINE
  8
0
 10
126.145
 20
667.577
 11
126.545
 21
668.061
  0
LINE
  8
0
 10
126.545
 20
668.061
 11
126.882
 21
668.591
  0
LINE
  8
0
 10
126.882
 20
668.591
 11
127.149
 21
669.159
  0
LINE
  8
0
 10
127.149
 20
669.159
 11
127.343
 21
669.757
  0
LINE
  8
0
 10
127.343
 20
669.757
 11
127.461
 21
670.373
  0
LINE
  8
0
 10
127.461
 20
670.373
 11
127.5
 21
671
  0
LINE
  8
0
 10
127.5
 20
671
 11
127.5
 21
841
  0
LINE
  8
0
 10
127.5
 20
841
 11
127.461
 21
841.627
  0
LINE
  8
0
 10
127.461
 20
841.627
 11
127.343
 21
842.243
  0
LINE
  8
0
 10
127.343
 20
842.243
 11
127.149
 21
842.841
  0
LINE
  8
0
 10
127.149
 20
842.841
 11
126.882
 21
843.409
  0
LINE
  8
0
 10
126.882
 20
843.409
 11
126.545
 21
843.939
  0
LINE
  8
0
 10
126.545
 20
843.939
 11
126.145
 21
844.423
  0
LINE
  8
0
 10
126.145
 20
844.423
 11
125.687
 21
844.853
  0
LINE
  8
0
 10
125.687
 20
844.853
 11
125.179
 21
845.222
  0
LINE
  8
0
 10
125.179
 20
845.222
 11
124.629
 21
845.524
  0
LINE
  8
0
 10
124.629
 20
845.524
 11
124.045
 21
845.755
  0
LINE
  8
0
 10
124.045
 20
845.755
 11
123.437
 21
845.911
  0
LINE
  8
0
 10
123.437
 20
845.911
 11
122.814
 21
845.99
  0
LINE
  8
0
 10
122.814
 20
845.99
 11
-122.814
 21
845.99
  0
LINE
  8
0
 10
-122.814
 20
845.99
 11
-123.437
 21
845.911
  0
LINE
  8
0
 10
-123.437
 20
845.911
 11
-124.045
 21
845.755
  0
LINE
  8
0
 10
-124.045
 20
845.755
 11
-124.629
 21
845.524
  0
LINE
  8
0
 10
-124.629
 20
845.524
 11
-125.179
 21
845.222
  0
LINE
  8
0
 10
-125.179
 20
845.222
 11
-125.687
 21
844.853
  0
LINE
  8
0
 10
-125.687
 20
844.853
 11
-126
 21
844.559
  0
LINE
  8
0
 10
-126
 20
844.559
 11
-126
 21
845.979
  0
LINE
  8
0
 10
-126
 20
845.979
 11
-129
 21
845.979
  0
LINE
  8
0
 10
-129
 20
845.979
 11
-129
 21
666.021
  0
LINE
  8
0
 10
-129
 20
666.021
 11
-126
 21
666.021
  0
LINE
  8
0
 10
-126
 20
666.021
 11
-126
 21
667.441
  0
LINE
  8
0
 10
-126
 20
667.441
 11
-125.687
 21
667.147
  0
LINE
  8
0
 10
-125.687
 20
667.147
 11
-125.179
 21
666.778
  0
LINE
  8
0
 10
-125.179
 20
666.778
 11
-124.629
 21
666.476
  0
LINE
  8
0
 10
-124.629
 20
666.476
 11
-124.045
 21
666.245
  0
LINE
  8
0
 10
-124.045
 20
666.245
 11
-123.437
 21
666.089
  0
LINE
  8
0
 10
-123.437
 20
666.089
 11
-122.814
 21
666.01
  0
LINE
  8
0
 10
-122.814
 20
666.01
 11
122.814
 21
666.01
  0
LINE
  8
0
 10
122.814
 20
666.01
 11
123.437
 21
666.089
  0
LINE
  8
0
 10
-122.195
 20
668.393
 11
-122.583
 21
668.442
  0
LINE
  8
0
 10
-122.583
 20
668.442
 11
-122.962
 21
668.539
  0
LINE
  8
0
 10
-122.962
 20
668.539
 11
-123.325
 21
668.683
  0
LINE
  8
0
 10
-123.325
 20
668.683
 11
-123.668
 21
668.872
  0
LINE
  8
0
 10
-123.668
 20
668.872
 11
-123.984
 21
669.101
  0
LINE
  8
0
 10
-123.984
 20
669.101
 11
-124.269
 21
669.369
  0
LINE
  8
0
 10
-124.269
 20
669.369
 11
-124.518
 21
669.67
  0
LINE
  8
0
 10
-124.518
 20
669.67
 11
-124.728
 21
670
  0
LINE
  8
0
 10
-124.728
 20
670
 11
-124.894
 21
670.354
  0
LINE
  8
0
 10
-124.894
 20
670.354
 11
-125.015
 21
670.726
  0
LINE
  8
0
 10
-125.015
 20
670.726
 11
-125.088
 21
671.11
  0
LINE
  8
0
 10
-125.088
 20
671.11
 11
-125.113
 21
671.5
  0
LINE
  8
0
 10
-125.113
 20
671.5
 11
-125.113
 21
840.5
  0
LINE
  8
0
 10
-125.113
 20
840.5
 11
-125.088
 21
840.89
  0
LINE
  8
0
 10
-125.088
 20
840.89
 11
-125.015
 21
841.274
  0
LINE
  8
0
 10
-125.015
 20
841.274
 11
-124.894
 21
841.646
  0
LINE
  8
0
 10
-124.894
 20
841.646
 11
-124.728
 21
842
  0
LINE
  8
0
 10
-124.728
 20
842
 11
-124.518
 21
842.33
  0
LINE
  8
0
 10
-124.518
 20
842.33
 11
-124.269
 21
842.631
  0
LINE
  8
0
 10
-124.269
 20
842.631
 11
-123.984
 21
842.899
  0
LINE
  8
0
 10
-123.984
 20
842.899
 11
-123.668
 21
843.128
  0
LINE
  8
0
 10
-123.668
 20
843.128
 11
-123.325
 21
843.317
  0
LINE
  8
0
 10
-123.325
 20
843.317
 11
-122.962
 21
843.461
  0
LINE
  8
0
 10
-122.962
 20
843.461
 11
-122.583
 21
843.558
  0
LINE
  8
0
 10
-122.583
 20
843.558
 11
-122.195
 21
843.607
  0
LINE
  8
0
 10
-122.195
 20
843.607
 11
122.195
 21
843.607
  0
LINE
  8
0
 10
122.195
 20
843.607
 11
122.583
 21
843.558
  0
LINE
  8
0
 10
122.583
 20
843.558
 11
122.962
 21
843.461
  0
LINE
  8
0
 10
122.962
 20
843.461
 11
123.325
 21
843.317
  0
LINE
  8
0
 10
123.325
 20
843.317
 11
123.668
 21
843.128
  0
LINE
  8
0
 10
123.668
 20
843.128
 11
123.984
 21
842.899
  0
LINE
  8
0
 10
123.984
 20
842.899
 11
124.269
 21
842.631
  0
LINE
  8
0
 10
124.269
 20
842.631
 11
124.518
 21
842.33
  0
LINE
  8
0
 10
124.518
 20
842.33
 11
124.728
 21
842
  0
LINE
  8
0
 10
124.728
 20
842
 11
124.894
 21
841.646
  0
LINE
  8
0
 10
124.894
 20
841.646
 11
125.015
 21
841.274
  0
LINE
  8
0
 10
125.015
 20
841.274
 11
125.088
 21
840.89
  0
LINE
  8
0
 10
125.088
 20
840.89
 11
125.113
 21
840.5
  0
LINE
  8
0
 10
125.113
 20
840.5
 11
125.113
 21
671.5
  0
LINE
  8
0
 10
125.113
 20
671.5
 11
125.088
 21
671.11
  0
LINE
  8
0
 10
125.088
 20
671.11
 11
125.015
 21
670.726
  0
LINE
  8
0
 10
125.015
 20
670.726
 11
124.894
 21
670.354
  0
LINE
  8
0
 10
124.894
 20
670.354
 11
124.728
 21
670
  0
LINE
  8
0
 10
124.728
 20
670
 11
124.518
 21
669.67
  0
LINE
  8
0
 10
124.518
 20
669.67
 11
124.269
 21
669.369
  0
LINE
  8
0
 10
124.269
 20
669.369
 11
123.984
 21
669.101
  0
LINE
  8
0
 10
123.984
 20
669.101
 11
123.668
 21
668.872
  0
LINE
  8
0
 10
123.668
 20
668.872
 11
123.325
 21
668.683
  0
LINE
  8
0
 10
123.325
 20
668.683
 11
122.962
 21
668.539
  0
LINE
  8
0
 10
122.962
 20
668.539
 11
122.583
 21
668.442
  0
LINE
  8
0
 10
122.583
 20
668.442
 11
122.195
 21
668.393
  0
LINE
  8
0
 10
122.195
 20
668.393
 11
-122.195
 21
668.393
  0
LINE
  8
0
 10
123.437
 20
477.089
 11
124.045
 21
477.245
  0
LINE
  8
0
 10
124.045
 20
477.245
 11
124.629
 21
477.476
  0
LINE
  8
0
 10
124.629
 20
477.476
 11
125.179
 21
477.778
  0
LINE
  8
0
 10
125.179
 20
477.778
 11
125.687
 21
478.147
  0
LINE
  8
0
 10
125.687
 20
478.147
 11
126.145
 21
478.577
  0
LINE
  8
0
 10
126.145
 20
478.577
 11
126.545
 21
479.061
  0
LINE
  8
0
 10
126.545
 20
479.061
 11
126.882
 21
479.591
  0
LINE
  8
0
 10
126.882
 20
479.591
 11
127.149
 21
480.159
  0
LINE
  8
0
 10
127.149
 20
480.159
 11
127.343
 21
480.757
  0
LINE
  8
0
 10
127.343
 20
480.757
 11
127.461
 21
481.373
  0
LINE
  8
0
 10
127.461
 20
481.373
 11
127.5
 21
482
  0
LINE
  8
0
 10
127.5
 20
482
 11
127.5
 21
652
  0
LINE
  8
0
 10
127.5
 20
652
 11
127.461
 21
652.627
  0
LINE
  8
0
 10
127.461
 20
652.627
 11
127.343
 21
653.243
  0
LINE
  8
0
 10
127.343
 20
653.243
 11
127.149
 21
653.841
  0
LINE
  8
0
 10
127.149
 20
653.841
 11
126.882
 21
654.409
  0
LINE
  8
0
 10
126.882
 20
654.409
 11
126.545
 21
654.939
  0
LINE
  8
0
 10
126.545
 20
654.939
 11
126.145
 21
655.423
  0
LINE
  8
0
 10
126.145
 20
655.423
 11
125.687
 21
655.853
  0
LINE
  8
0
 10
125.687
 20
655.853
 11
125.179
 21
656.222
  0
LINE
  8
0
 10
125.179
 20
656.222
 11
124.629
 21
656.524
  0
LINE
  8
0
 10
124.629
 20
656.524
 11
124.045
 21
656.755
  0
LINE
  8
0
 10
124.045
 20
656.755
 11
123.437
 21
656.911
  0
LINE
  8
0
 10
123.437
 20
656.911
 11
122.814
 21
656.99
  0
LINE
  8
0
 10
122.814
 20
656.99
 11
-122.814
 21
656.99
  0
LINE
  8
0
 10
-122.814
 20
656.99
 11
-123.437
 21
656.911
  0
LINE
  8
0
 10
-123.437
 20
656.911
 11
-124.045
 21
656.755
  0
LINE
  8
0
 10
-124.045
 20
656.755
 11
-124.629
 21
656.524
  0
LINE
  8
0
 10
-124.629
 20
656.524
 11
-125.179
 21
656.222
  0
LINE
  8
0
 10
-125.179
 20
656.222
 11
-125.687
 21
655.853
  0
LINE
  8
0
 10
-125.687
 20
655.853
 11
-126
 21
655.559
  0
LINE
  8
0
 10
-126
 20
655.559
 11
-126
 21
655.653
  0
LINE
  8
0
 10
-126
 20
655.653
 11
-129
 21
655.653
  0
LINE
  8
0
 10
-129
 20
655.653
 11
-129
 21
478.347
  0
LINE
  8
0
 10
-129
 20
478.347
 11
-126
 21
478.347
  0
LINE
  8
0
 10
-126
 20
478.347
 11
-126
 21
478.441
  0
LINE
  8
0
 10
-126
 20
478.441
 11
-125.687
 21
478.147
  0
LINE
  8
0
 10
-125.687
 20
478.147
 11
-125.179
 21
477.778
  0
LINE
  8
0
 10
-125.179
 20
477.778
 11
-124.629
 21
477.476
  0
LINE
  8
0
 10
-124.629
 20
477.476
 11
-124.045
 21
477.245
  0
LINE
  8
0
 10
-124.045
 20
477.245
 11
-123.437
 21
477.089
  0
LINE
  8
0
 10
-123.437
 20
477.089
 11
-122.814
 21
477.01
  0
LINE
  8
0
 10
-122.814
 20
477.01
 11
122.814
 21
477.01
  0
LINE
  8
0
 10
122.814
 20
477.01
 11
123.437
 21
477.089
  0
LINE
  8
0
 10
119.866
 20
647.369
 11
119.6
 21
647.403
  0
LINE
  8
0
 10
119.6
 20
647.403
 11
119.34
 21
647.469
  0
LINE
  8
0
 10
119.34
 20
647.469
 11
119.091
 21
647.568
  0
LINE
  8
0
 10
119.091
 20
647.568
 11
118.856
 21
647.697
  0
LINE
  8
0
 10
118.856
 20
647.697
 11
118.639
 21
647.855
  0
LINE
  8
0
 10
118.639
 20
647.855
 11
118.443
 21
648.038
  0
LINE
  8
0
 10
118.443
 20
648.038
 11
118.273
 21
648.245
  0
LINE
  8
0
 10
118.273
 20
648.245
 11
118.129
 21
648.471
  0
LINE
  8
0
 10
118.129
 20
648.471
 11
118.015
 21
648.714
  0
LINE
  8
0
 10
118.015
 20
648.714
 11
117.932
 21
648.969
  0
LINE
  8
0
 10
117.932
 20
648.969
 11
117.882
 21
649.232
  0
LINE
  8
0
 10
117.882
 20
649.232
 11
117.865
 21
649.5
  0
LINE
  8
0
 10
117.865
 20
649.5
 11
117.882
 21
649.768
  0
LINE
  8
0
 10
117.882
 20
649.768
 11
117.932
 21
650.031
  0
LINE
  8
0
 10
117.932
 20
650.031
 11
118.015
 21
650.286
  0
LINE
  8
0
 10
118.015
 20
650.286
 11
118.129
 21
650.529
  0
LINE
  8
0
 10
118.129
 20
650.529
 11
118.273
 21
650.755
  0
LINE
  8
0
 10
118.273
 20
650.755
 11
118.443
 21
650.962
  0
LINE
  8
0
 10
118.443
 20
650.962
 11
118.639
 21
651.145
  0
LINE
  8
0
 10
118.639
 20
651.145
 11
118.856
 21
651.303
  0
LINE
  8
0
 10
118.856
 20
651.303
 11
119.091
 21
651.432
  0
LINE
  8
0
 10
119.091
 20
651.432
 11
119.34
 21
651.531
  0
LINE
  8
0
 10
119.34
 20
651.531
 11
119.6
 21
651.597
  0
LINE
  8
0
 10
119.6
 20
651.597
 11
119.866
 21
651.631
  0
LINE
  8
0
 10
119.866
 20
651.631
 11
120.134
 21
651.631
  0
LINE
  8
0
 10
120.134
 20
651.631
 11
120.4
 21
651.597
  0
LINE
  8
0
 10
120.4
 20
651.597
 11
120.66
 21
651.531
  0
LINE
  8
0
 10
120.66
 20
651.531
 11
120.909
 21
651.432
  0
LINE
  8
0
 10
120.909
 20
651.432
 11
121.144
 21
651.303
  0
LINE
  8
0
 10
121.144
 20
651.303
 11
121.361
 21
651.145
  0
LINE
  8
0
 10
121.361
 20
651.145
 11
121.557
 21
650.962
  0
LINE
  8
0
 10
121.557
 20
650.962
 11
121.727
 21
650.755
  0
LINE
  8
0
 10
121.727
 20
650.755
 11
121.871
 21
650.529
  0
LINE
  8
0
 10
121.871
 20
650.529
 11
121.985
 21
650.286
  0
LINE
  8
0
 10
121.985
 20
650.286
 11
122.068
 21
650.031
  0
LINE
  8
0
 10
122.068
 20
650.031
 11
122.118
 21
649.768
  0
LINE
  8
0
 10
122.118
 20
649.768
 11
122.135
 21
649.5
  0
LINE
  8
0
 10
122.135
 20
649.5
 11
122.118
 21
649.232
  0
LINE
  8
0
 10
122.118
 20
649.232
 11
122.068
 21
648.969
  0
LINE
  8
0
 10
122.068
 20
648.969
 11
121.985
 21
648.714
  0
LINE
  8
0
 10
121.985
 20
648.714
 11
121.871
 21
648.471
  0
LINE
  8
0
 10
121.871
 20
648.471
 11
121.727
 21
648.245
  0
LINE
  8
0
 10
121.727
 20
648.245
 11
121.557
 21
648.038
  0
LINE
  8
0
 10
121.557
 20
648.038
 11
121.361
 21
647.855
  0
LINE
  8
0
 10
121.361
 20
647.855
 11
121.144
 21
647.697
  0
LINE
  8
0
 10
121.144
 20
647.697
 11
120.909
 21
647.568
  0
LINE
  8
0
 10
120.909
 20
647.568
 11
120.66
 21
647.469
  0
LINE
  8
0
 10
120.66
 20
647.469
 11
120.4
 21
647.403
  0
LINE
  8
0
 10
120.4
 20
647.403
 11
120.134
 21
647.369
  0
LINE
  8
0
 10
120.134
 20
647.369
 11
119.866
 21
647.369
  0
LINE
  8
0
 10
-120.134
 20
647.369
 11
-120.4
 21
647.403
  0
LINE
  8
0
 10
-120.4
 20
647.403
 11
-120.66
 21
647.469
  0
LINE
  8
0
 10
-120.66
 20
647.469
 11
-120.909
 21
647.568
  0
LINE
  8
0
 10
-120.909
 20
647.568
 11
-121.144
 21
647.697
  0
LINE
  8
0
 10
-121.144
 20
647.697
 11
-121.361
 21
647.855
  0
LINE
  8
0
 10
-121.361
 20
647.855
 11
-121.557
 21
648.038
  0
LINE
  8
0
 10
-121.557
 20
648.038
 11
-121.727
 21
648.245
  0
LINE
  8
0
 10
-121.727
 20
648.245
 11
-121.871
 21
648.471
  0
LINE
  8
0
 10
-121.871
 20
648.471
 11
-121.985
 21
648.714
  0
LINE
  8
0
 10
-121.985
 20
648.714
 11
-122.068
 21
648.969
  0
LINE
  8
0
 10
-122.068
 20
648.969
 11
-122.118
 21
649.232
  0
LINE
  8
0
 10
-122.118
 20
649.232
 11
-122.135
 21
649.5
  0
LINE
  8
0
 10
-122.135
 20
649.5
 11
-122.118
 21
649.768
  0
LINE
  8
0
 10
-122.118
 20
649.768
 11
-122.068
 21
650.031
  0
LINE
  8
0
 10
-122.068
 20
650.031
 11
-121.985
 21
650.286
  0
LINE
  8
0
 10
-121.985
 20
650.286
 11
-121.871
 21
650.529
  0
LINE
  8
0
 10
-121.871
 20
650.529
 11
-121.727
 21
650.755
  0
LINE
  8
0
 10
-121.727
 20
650.755
 11
-121.557
 21
650.962
  0
LINE
  8
0
 10
-121.557
 20
650.962
 11
-121.361
 21
651.145
  0
LINE
  8
0
 10
-121.361
 20
651.145
 11
-121.144
 21
651.303
  0
LINE
  8
0
 10
-121.144
 20
651.303
 11
-120.909
 21
651.432
  0
LINE
  8
0
 10
-120.909
 20
651.432
 11
-120.66
 21
651.531
  0
LINE
  8
0
 10
-120.66
 20
651.531
 11
-120.4
 21
651.597
  0
LINE
  8
0
 10
-120.4
 20
651.597
 11
-120.134
 21
651.631
  0
LINE
  8
0
 10
-120.134
 20
651.631
 11
-119.866
 21
651.631
  0
LINE
  8
0
 10
-119.866
 20
651.631
 11
-119.6
 21
651.597
  0
LINE
  8
0
 10
-119.6
 20
651.597
 11
-119.34
 21
651.531
  0
LINE
  8
0
 10
-119.34
 20
651.531
 11
-119.091
 21
651.432
  0
LINE
  8
0
 10
-119.091
 20
651.432
 11
-118.856
 21
651.303
  0
LINE
  8
0
 10
-118.856
 20
651.303
 11
-118.639
 21
651.145
  0
LINE
  8
0
 10
-118.639
 20
651.145
 11
-118.443
 21
650.962
  0
LINE
  8
0
 10
-118.443
 20
650.962
 11
-118.273
 21
650.755
  0
LINE
  8
0
 10
-118.273
 20
650.755
 11
-118.129
 21
650.529
  0
LINE
  8
0
 10
-118.129
 20
650.529
 11
-118.015
 21
650.286
  0
LINE
  8
0
 10
-118.015
 20
650.286
 11
-117.932
 21
650.031
  0
LINE
  8
0
 10
-117.932
 20
650.031
 11
-117.882
 21
649.768
  0
LINE
  8
0
 10
-117.882
 20
649.768
 11
-117.865
 21
649.5
  0
LINE
  8
0
 10
-117.865
 20
649.5
 11
-117.882
 21
649.232
  0
LINE
  8
0
 10
-117.882
 20
649.232
 11
-117.932
 21
648.969
  0
LINE
  8
0
 10
-117.932
 20
648.969
 11
-118.015
 21
648.714
  0
LINE
  8
0
 10
-118.015
 20
648.714
 11
-118.129
 21
648.471
  0
LINE
  8
0
 10
-118.129
 20
648.471
 11
-118.273
 21
648.245
  0
LINE
  8
0
 10
-118.273
 20
648.245
 11
-118.443
 21
648.038
  0
LINE
  8
0
 10
-118.443
 20
648.038
 11
-118.639
 21
647.855
  0
LINE
  8
0
 10
-118.639
 20
647.855
 11
-118.856
 21
647.697
  0
LINE
  8
0
 10
-118.856
 20
647.697
 11
-119.091
 21
647.568
  0
LINE
  8
0
 10
-119.091
 20
647.568
 11
-119.34
 21
647.469
  0
LINE
  8
0
 10
-119.34
 20
647.469
 11
-119.6
 21
647.403
  0
LINE
  8
0
 10
-119.6
 20
647.403
 11
-119.866
 21
647.369
  0
LINE
  8
0
 10
-119.866
 20
647.369
 11
-120.134
 21
647.369
  0
LINE
  8
0
 10
119.866
 20
482.369
 11
119.6
 21
482.403
  0
LINE
  8
0
 10
119.6
 20
482.403
 11
119.34
 21
482.469
  0
LINE
  8
0
 10
119.34
 20
482.469
 11
119.091
 21
482.568
  0
LINE
  8
0
 10
119.091
 20
482.568
 11
118.856
 21
482.697
  0
LINE
  8
0
 10
118.856
 20
482.697
 11
118.639
 21
482.855
  0
LINE
  8
0
 10
118.639
 20
482.855
 11
118.443
 21
483.038
  0
LINE
  8
0
 10
118.443
 20
483.038
 11
118.273
 21
483.245
  0
LINE
  8
0
 10
118.273
 20
483.245
 11
118.129
 21
483.471
  0
LINE
  8
0
 10
118.129
 20
483.471
 11
118.015
 21
483.714
  0
LINE
  8
0
 10
118.015
 20
483.714
 11
117.932
 21
483.969
  0
LINE
  8
0
 10
117.932
 20
483.969
 11
117.882
 21
484.232
  0
LINE
  8
0
 10
117.882
 20
484.232
 11
117.865
 21
484.5
  0
LINE
  8
0
 10
117.865
 20
484.5
 11
117.882
 21
484.768
  0
LINE
  8
0
 10
117.882
 20
484.768
 11
117.932
 21
485.031
  0
LINE
  8
0
 10
117.932
 20
485.031
 11
118.015
 21
485.286
  0
LINE
  8
0
 10
118.015
 20
485.286
 11
118.129
 21
485.529
  0
LINE
  8
0
 10
118.129
 20
485.529
 11
118.273
 21
485.755
  0
LINE
  8
0
 10
118.273
 20
485.755
 11
118.443
 21
485.962
  0
LINE
  8
0
 10
118.443
 20
485.962
 11
118.639
 21
486.145
  0
LINE
  8
0
 10
118.639
 20
486.145
 11
118.856
 21
486.303
  0
LINE
  8
0
 10
118.856
 20
486.303
 11
119.091
 21
486.432
  0
LINE
  8
0
 10
119.091
 20
486.432
 11
119.34
 21
486.531
  0
LINE
  8
0
 10
119.34
 20
486.531
 11
119.6
 21
486.597
  0
LINE
  8
0
 10
119.6
 20
486.597
 11
119.866
 21
486.631
  0
LINE
  8
0
 10
119.866
 20
486.631
 11
120.134
 21
486.631
  0
LINE
  8
0
 10
120.134
 20
486.631
 11
120.4
 21
486.597
  0
LINE
  8
0
 10
120.4
 20
486.597
 11
120.66
 21
486.531
  0
LINE
  8
0
 10
120.66
 20
486.531
 11
120.909
 21
486.432
  0
LINE
  8
0
 10
120.909
 20
486.432
 11
121.144
 21
486.303
  0
LINE
  8
0
 10
121.144
 20
486.303
 11
121.361
 21
486.145
  0
LINE
  8
0
 10
121.361
 20
486.145
 11
121.557
 21
485.962
  0
LINE
  8
0
 10
121.557
 20
485.962
 11
121.727
 21
485.755
  0
LINE
  8
0
 10
121.727
 20
485.755
 11
121.871
 21
485.529
  0
LINE
  8
0
 10
121.871
 20
485.529
 11
121.985
 21
485.286
  0
LINE
  8
0
 10
121.985
 20
485.286
 11
122.068
 21
485.031
  0
LINE
  8
0
 10
122.068
 20
485.031
 11
122.118
 21
484.768
  0
LINE
  8
0
 10
122.118
 20
484.768
 11
122.135
 21
484.5
  0
LINE
  8
0
 10
122.135
 20
484.5
 11
122.118
 21
484.232
  0
LINE
  8
0
 10
122.118
 20
484.232
 11
122.068
 21
483.969
  0
LINE
  8
0
 10
122.068
 20
483.969
 11
121.985
 21
483.714
  0
LINE
  8
0
 10
121.985
 20
483.714
 11
121.871
 21
483.471
  0
LINE
  8
0
 10
121.871
 20
483.471
 11
121.727
 21
483.245
  0
LINE
  8
0
 10
121.727
 20
483.245
 11
121.557
 21
483.038
  0
LINE
  8
0
 10
121.557
 20
483.038
 11
121.361
 21
482.855
  0
LINE
  8
0
 10
121.361
 20
482.855
 11
121.144
 21
482.697
  0
LINE
  8
0
 10
121.144
 20
482.697
 11
120.909
 21
482.568
  0
LINE
  8
0
 10
120.909
 20
482.568
 11
120.66
 21
482.469
  0
LINE
  8
0
 10
120.66
 20
482.469
 11
120.4
 21
482.403
  0
LINE
  8
0
 10
120.4
 20
482.403
 11
120.134
 21
482.369
  0
LINE
  8
0
 10
120.134
 20
482.369
 11
119.866
 21
482.369
  0
LINE
  8
0
 10
-120.134
 20
482.369
 11
-120.4
 21
482.403
  0
LINE
  8
0
 10
-120.4
 20
482.403
 11
-120.66
 21
482.469
  0
LINE
  8
0
 10
-120.66
 20
482.469
 11
-120.909
 21
482.568
  0
LINE
  8
0
 10
-120.909
 20
482.568
 11
-121.144
 21
482.697
  0
LINE
  8
0
 10
-121.144
 20
482.697
 11
-121.361
 21
482.855
  0
LINE
  8
0
 10
-121.361
 20
482.855
 11
-121.557
 21
483.038
  0
LINE
  8
0
 10
-121.557
 20
483.038
 11
-121.727
 21
483.245
  0
LINE
  8
0
 10
-121.727
 20
483.245
 11
-121.871
 21
483.471
  0
LINE
  8
0
 10
-121.871
 20
483.471
 11
-121.985
 21
483.714
  0
LINE
  8
0
 10
-121.985
 20
483.714
 11
-122.068
 21
483.969
  0
LINE
  8
0
 10
-122.068
 20
483.969
 11
-122.118
 21
484.232
  0
LINE
  8
0
 10
-122.118
 20
484.232
 11
-122.135
 21
484.5
  0
LINE
  8
0
 10
-122.135
 20
484.5
 11
-122.118
 21
484.768
  0
LINE
  8
0
 10
-122.118
 20
484.768
 11
-122.068
 21
485.031
  0
LINE
  8
0
 10
-122.068
 20
485.031
 11
-121.985
 21
485.286
  0
LINE
  8
0
 10
-121.985
 20
485.286
 11
-121.871
 21
485.529
  0
LINE
  8
0
 10
-121.871
 20
485.529
 11
-121.727
 21
485.755
  0
LINE
  8
0
 10
-121.727
 20
485.755
 11
-121.557
 21
485.962
  0
LINE
  8
0
 10
-121.557
 20
485.962
 11
-121.361
 21
486.145
  0
LINE
  8
0
 10
-121.361
 20
486.145
 11
-121.144
 21
486.303
  0
LINE
  8
0
 10
-121.144
 20
486.303
 11
-120.909
 21
486.432
  0
LINE
  8
0
 10
-120.909
 20
486.432
 11
-120.66
 21
486.531
  0
LINE
  8
0
 10
-120.66
 20
486.531
 11
-120.4
 21
486.597
  0
LINE
  8
0
 10
-120.4
 20
486.597
 11
-120.134
 21
486.631
  0
LINE
  8
0
 10
-120.134
 20
486.631
 11
-119.866
 21
486.631
  0
LINE
  8
0
 10
-119.866
 20
486.631
 11
-119.6
 21
486.597
  0
LINE
  8
0
 10
-119.6
 20
486.597
 11
-119.34
 21
486.531
  0
LINE
  8
0
 10
-119.34
 20
486.531
 11
-119.091
 21
486.432
  0
LINE
  8
0
 10
-119.091
 20
486.432
 11
-118.856
 21
486.303
  0
LINE
  8
0
 10
-118.856
 20
486.303
 11
-118.639
 21
486.145
  0
LINE
  8
0
 10
-118.639
 20
486.145
 11
-118.443
 21
485.962
  0
LINE
  8
0
 10
-118.443
 20
485.962
 11
-118.273
 21
485.755
  0
LINE
  8
0
 10
-118.273
 20
485.755
 11
-118.129
 21
485.529
  0
LINE
  8
0
 10
-118.129
 20
485.529
 11
-118.015
 21
485.286
  0
LINE
  8
0
 10
-118.015
 20
485.286
 11
-117.932
 21
485.031
  0
LINE
  8
0
 10
-117.932
 20
485.031
 11
-117.882
 21
484.768
  0
LINE
  8
0
 10
-117.882
 20
484.768
 11
-117.865
 21
484.5
  0
LINE
  8
0
 10
-117.865
 20
484.5
 11
-117.882
 21
484.232
  0
LINE
  8
0
 10
-117.882
 20
484.232
 11
-117.932
 21
483.969
  0
LINE
  8
0
 10
-117.932
 20
483.969
 11
-118.015
 21
483.714
  0
LINE
  8
0
 10
-118.015
 20
483.714
 11
-118.129
 21
483.471
  0
LINE
  8
0
 10
-118.129
 20
483.471
 11
-118.273
 21
483.245
  0
LINE
  8
0
 10
-118.273
 20
483.245
 11
-118.443
 21
483.038
  0
LINE
  8
0
 10
-118.443
 20
483.038
 11
-118.639
 21
482.855
  0
LINE
  8
0
 10
-118.639
 20
482.855
 11
-118.856
 21
482.697
  0
LINE
  8
0
 10
-118.856
 20
482.697
 11
-119.091
 21
482.568
  0
LINE
  8
0
 10
-119.091
 20
482.568
 11
-119.34
 21
482.469
  0
LINE
  8
0
 10
-119.34
 20
482.469
 11
-119.6
 21
482.403
  0
LINE
  8
0
 10
-119.6
 20
482.403
 11
-119.866
 21
482.369
  0
LINE
  8
0
 10
-119.866
 20
482.369
 11
-120.134
 21
482.369
  0
ENDSEC
  0
SECTION
  2
OBJECTS
  0
DICTIONARY
  0
ENDSEC
  0
EOF
