<?xml version="1.0" standalone="no"?>
<!DOCTYPE svg PUBLIC "-//W3C//DTD SVG 1.1//EN" "http://www.w3.org/Graphics/SVG/1.1/DTD/svg11.dtd">
<svg width="257mm" height="981mm" viewBox="-129 -1926 257 981" xmlns="http://www.w3.org/2000/svg" version="1.1">
<title>OpenSCAD Model</title>
<path d="
M 123.437,-1836.09 L 124.045,-1836.24 L 124.629,-1836.48 L 125.179,-1836.78 L 125.687,-1837.15 L 126.145,-1837.58
 L 126.545,-1838.06 L 126.882,-1838.59 L 127.149,-1839.16 L 127.343,-1839.76 L 127.461,-1840.37 L 127.5,-1841
 L 127.5,-1921 L 127.461,-1921.63 L 127.343,-1922.24 L 127.149,-1922.84 L 126.882,-1923.41 L 126.545,-1923.94
 L 126.145,-1924.42 L 125.687,-1924.85 L 125.179,-1925.22 L 124.629,-1925.52 L 124.045,-1925.76 L 123.437,-1925.91
 L 122.814,-1925.99 L -122.814,-1925.99 L -123.437,-1925.91 L -124.045,-1925.76 L -124.629,-1925.52 L -125.179,-1925.22
 L -125.687,-1924.85 L -126,-1924.56 L -129,-1924.56 L -129,-1837.44 L -126,-1837.44 L -125.687,-1837.15
 L -125.179,-1836.78 L -124.629,-1836.48 L -124.045,-1836.24 L -123.437,-1836.09 L -122.814,-1836.01 L 122.814,-1836.01
 z
M -122.251,-1837.51 L -122.75,-1837.57 L -123.236,-1837.7 L -123.703,-1837.88 L -124.143,-1838.12 L -124.55,-1838.42
 L -124.916,-1838.76 L -125.236,-1839.15 L -125.505,-1839.57 L -125.719,-1840.03 L -125.874,-1840.51 L -125.968,-1841
 L -126,-1841.5 L -126,-1920.5 L -125.968,-1921 L -125.874,-1921.49 L -125.719,-1921.97 L -125.505,-1922.43
 L -125.236,-1922.85 L -124.916,-1923.24 L -124.55,-1923.58 L -124.143,-1923.88 L -123.703,-1924.12 L -123.236,-1924.3
 L -122.75,-1924.43 L -122.251,-1924.49 L 122.251,-1924.49 L 122.75,-1924.43 L 123.236,-1924.3 L 123.703,-1924.12
 L 124.143,-1923.88 L 124.55,-1923.58 L 124.916,-1923.24 L 125.236,-1922.85 L 125.505,-1922.43 L 125.719,-1921.97
 L 125.874,-1921.49 L 125.968,-1921 L 126,-1920.5 L 126,-1841.5 L 125.968,-1841 L 125.874,-1840.51
 L 125.719,-1840.03 L 125.505,-1839.57 L 125.236,-1839.15 L 124.916,-1838.76 L 124.55,-1838.42 L 124.143,-1838.12
 L 123.703,-1837.88 L 123.236,-1837.7 L 122.75,-1837.57 L 122.251,-1837.51 z
M 123.437,-1737.09 L 124.045,-1737.24 L 124.629,-1737.48 L 125.179,-1737.78 L 125.687,-1738.15 L 126.145,-1738.58
 L 126.545,-1739.06 L 126.882,-1739.59 L 127.149,-1740.16 L 127.343,-1740.76 L 127.461,-1741.37 L 127.5,-1742
 L 127.5,-1822 L 127.461,-1822.63 L 127.343,-1823.24 L 127.149,-1823.84 L 126.882,-1824.41 L 126.545,-1824.94
 L 126.145,-1825.42 L 125.687,-1825.85 L 125.179,-1826.22 L 124.629,-1826.52 L 124.045,-1826.76 L 123.437,-1826.91
 L 122.814,-1826.99 L -122.814,-1826.99 L -123.437,-1826.91 L -124.045,-1826.76 L -124.629,-1826.52 L -125.179,-1826.22
 L -125.687,-1825.85 L -126,-1825.56 L -126,-1826.97 L -129,-1826.97 L -129,-1737.03 L -126,-1737.03
 L -126,-1738.44 L -125.687,-1738.15 L -125.179,-1737.78 L -124.629,-1737.48 L -124.045,-1737.24 L -123.437,-1737.09
 L -122.814,-1737.01 L 122.814,-1737.01 z
M -122.251,-1738.51 L -122.75,-1738.57 L -123.236,-1738.7 L -123.703,-1738.88 L -124.143,-1739.12 L -124.55,-1739.42
 L -124.916,-1739.76 L -125.236,-1740.15 L -125.505,-1740.57 L -125.719,-1741.03 L -125.874,-1741.51 L -125.968,-1742
 L -126,-1742.5 L -126,-1821.5 L -125.968,-1822 L -125.874,-1822.49 L -125.719,-1822.97 L -125.505,-1823.43
 L -125.236,-1823.85 L -124.916,-1824.24 L -124.55,-1824.58 L -124.143,-1824.88 L -123.703,-1825.12 L -123.236,-1825.3
 L -122.75,-1825.43 L -122.251,-1825.49 L 122.251,-1825.49 L 122.75,-1825.43 L 123.236,-1825.3 L 123.703,-1825.12
 L 124.143,-1824.88 L 124.55,-1824.58 L 124.916,-1824.24 L 125.236,-1823.85 L 125.505,-1823.43 L 125.719,-1822.97
 L 125.874,-1822.49 L 125.968,-1822 L 126,-1821.5 L 126,-1742.5 L 125.968,-1742 L 125.874,-1741.51
 L 125.719,-1741.03 L 125.505,-1740.57 L 125.236,-1740.15 L 124.916,-1739.76 L 124.55,-1739.42 L 124.143,-1739.12
 L 123.703,-1738.88 L 123.236,-1738.7 L 122.75,-1738.57 L 122.251,-1738.51 z
M -126,-1639.44 L -125.687,-1639.15 L -125.179,-1638.78 L -124.629,-1638.48 L -124.045,-1638.24 L -123.437,-1638.09
 L -122.814,-1638.01 L 122.814,-1638.01 L 123.437,-1638.09 L 124.045,-1638.24 L 124.629,-1638.48 L 125.179,-1638.78
 L 125.687,-1639.15 L 126.145,-1639.58 L 126.545,-1640.06 L 126.882,-1640.59 L 127.149,-1641.16 L 127.343,-1641.76
 L 127.461,-1642.37 L 127.5,-1643 L 127.5,-1723 L 127.461,-1723.63 L 127.343,-1724.24 L 127.149,-1724.84
 L 126.882,-1725.41 L 126.545,-1725.94 L 126.145,-1726.42 L 125.687,-1726.85 L 125.179,-1727.22 L 124.629,-1727.52
 L 124.045,-1727.76 L 123.437,-1727.91 L 122.814,-1727.99 L -122.814,-1727.99 L -123.437,-1727.91 L -124.045,-1727.76
 L -124.629,-1727.52 L -125.179,-1727.22 L -125.687,-1726.85 L -126,-1726.56 L -126,-1727.99 L -129,-1727.99
 L -129,-1723.49 L -125.874,-1723.49 L -125.874,-1723.49 L -125.719,-1723.97 L -125.505,-1724.43 L -125.236,-1724.85
 L -124.916,-1725.24 L -124.55,-1725.58 L -124.143,-1725.88 L -123.703,-1726.12 L -123.236,-1726.3 L -122.75,-1726.43
 L -122.251,-1726.49 L 122.251,-1726.49 L 122.75,-1726.43 L 123.236,-1726.3 L 123.703,-1726.12 L 124.143,-1725.88
 L 124.55,-1725.58 L 124.916,-1725.24 L 125.236,-1724.85 L 125.505,-1724.43 L 125.719,-1723.97 L 125.874,-1723.49
 L 125.968,-1723 L 126,-1722.5 L 126,-1643.5 L 125.968,-1643 L 125.874,-1642.51 L 125.719,-1642.03
 L 125.505,-1641.57 L 125.236,-1641.15 L 124.916,-1640.76 L 124.55,-1640.42 L 124.143,-1640.12 L 123.703,-1639.88
 L 123.236,-1639.7 L 122.75,-1639.57 L 122.251,-1639.51 L -122.251,-1639.51 L -122.75,-1639.57 L -123.236,-1639.7
 L -123.703,-1639.88 L -124.143,-1640.12 L -124.55,-1640.42 L -124.916,-1640.76 L -125.236,-1641.15 L -125.505,-1641.57
 L -125.719,-1642.03 L -125.874,-1642.51 L -125.874,-1642.51 L -129,-1642.51 L -129,-1638.01 L -126,-1638.01
 z
M -126,-1717.51 L -129,-1717.51 L -129,-1708.49 L -126,-1708.49 z
M -126,-1702.51 L -129,-1702.51 L -129,-1693.49 L -126,-1693.49 z
M -126,-1687.51 L -129,-1687.51 L -129,-1678.49 L -126,-1678.49 z
M -126,-1672.51 L -129,-1672.51 L -129,-1663.49 L -126,-1663.49 z
M -126,-1657.51 L -129,-1657.51 L -129,-1648.49 L -126,-1648.49 z
M -126,-1540.44 L -125.687,-1540.15 L -125.179,-1539.78 L -124.629,-1539.48 L -124.045,-1539.24 L -123.437,-1539.09
 L -122.814,-1539.01 L 122.814,-1539.01 L 123.437,-1539.09 L 124.045,-1539.24 L 124.629,-1539.48 L 125.179,-1539.78
 L 125.687,-1540.15 L 126.145,-1540.58 L 126.545,-1541.06 L 126.882,-1541.59 L 127.149,-1542.16 L 127.343,-1542.76
 L 127.461,-1543.37 L 127.5,-1544 L 127.5,-1624 L 127.461,-1624.63 L 127.343,-1625.24 L 127.149,-1625.84
 L 126.882,-1626.41 L 126.545,-1626.94 L 126.145,-1627.42 L 125.687,-1627.85 L 125.179,-1628.22 L 124.629,-1628.52
 L 124.045,-1628.76 L 123.437,-1628.91 L 122.814,-1628.99 L -122.814,-1628.99 L -123.437,-1628.91 L -124.045,-1628.76
 L -124.629,-1628.52 L -125.179,-1628.22 L -125.687,-1627.85 L -126,-1627.56 L -126,-1628.99 L -129,-1628.99
 L -129,-1539.01 L -126,-1539.01 z
M -122.251,-1540.51 L -122.75,-1540.57 L -123.236,-1540.7 L -123.703,-1540.88 L -124.143,-1541.12 L -124.55,-1541.42
 L -124.916,-1541.76 L -125.236,-1542.15 L -125.505,-1542.57 L -125.719,-1543.03 L -125.874,-1543.51 L -125.968,-1544
 L -126,-1544.5 L -126,-1623.5 L -125.968,-1624 L -125.874,-1624.49 L -125.719,-1624.97 L -125.505,-1625.43
 L -125.236,-1625.85 L -124.916,-1626.24 L -124.55,-1626.58 L -124.143,-1626.88 L -123.703,-1627.12 L -123.236,-1627.3
 L -122.75,-1627.43 L -122.251,-1627.49 L 122.251,-1627.49 L 122.75,-1627.43 L 123.236,-1627.3 L 123.703,-1627.12
 L 124.143,-1626.88 L 124.55,-1626.58 L 124.916,-1626.24 L 125.236,-1625.85 L 125.505,-1625.43 L 125.719,-1624.97
 L 125.874,-1624.49 L 125.968,-1624 L 126,-1623.5 L 126,-1544.5 L 125.968,-1544 L 125.874,-1543.51
 L 125.719,-1543.03 L 125.505,-1542.57 L 125.236,-1542.15 L 124.916,-1541.76 L 124.55,-1541.42 L 124.143,-1541.12
 L 123.703,-1540.88 L 123.236,-1540.7 L 122.75,-1540.57 L 122.251,-1540.51 z
M -126,-1441.44 L -125.687,-1441.15 L -125.179,-1440.78 L -124.629,-1440.48 L -124.045,-1440.24 L -123.437,-1440.09
 L -122.814,-1440.01 L 122.814,-1440.01 L 123.437,-1440.09 L 124.045,-1440.24 L 124.629,-1440.48 L 125.179,-1440.78
 L 125.687,-1441.15 L 126.145,-1441.58 L 126.545,-1442.06 L 126.882,-1442.59 L 127.149,-1443.16 L 127.343,-1443.76
 L 127.461,-1444.37 L 127.5,-1445 L 127.5,-1525 L 127.461,-1525.63 L 127.343,-1526.24 L 127.149,-1526.84
 L 126.882,-1527.41 L 126.545,-1527.94 L 126.145,-1528.42 L 125.687,-1528.85 L 125.179,-1529.22 L 124.629,-1529.52
 L 124.045,-1529.76 L 123.437,-1529.91 L 122.814,-1529.99 L -122.814,-1529.99 L -123.437,-1529.91 L -124.045,-1529.76
 L -124.629,-1529.52 L -125.179,-1529.22 L -125.687,-1528.85 L -126,-1528.56 L -126,-1529.99 L -129,-1529.99
 L -129,-1440.01 L -126,-1440.01 z
M -122.251,-1441.51 L -122.75,-1441.57 L -123.236,-1441.7 L -123.703,-1441.88 L -124.143,-1442.12 L -124.55,-1442.42
 L -124.916,-1442.76 L -125.236,-1443.15 L -125.505,-1443.57 L -125.719,-1444.03 L -125.874,-1444.51 L -125.968,-1445
 L -126,-1445.5 L -126,-1524.5 L -125.968,-1525 L -125.874,-1525.49 L -125.719,-1525.97 L -125.505,-1526.43
 L -125.236,-1526.85 L -124.916,-1527.24 L -124.55,-1527.58 L -124.143,-1527.88 L -123.703,-1528.12 L -123.236,-1528.3
 L -122.75,-1528.43 L -122.251,-1528.49 L 122.251,-1528.49 L 122.75,-1528.43 L 123.236,-1528.3 L 123.703,-1528.12
 L 124.143,-1527.88 L 124.55,-1527.58 L 124.916,-1527.24 L 125.236,-1526.85 L 125.505,-1526.43 L 125.719,-1525.97
 L 125.874,-1525.49 L 125.968,-1525 L 126,-1524.5 L 126,-1445.5 L 125.968,-1445 L 125.874,-1444.51
 L 125.719,-1444.03 L 125.505,-1443.57 L 125.236,-1443.15 L 124.916,-1442.76 L 124.55,-1442.42 L 124.143,-1442.12
 L 123.703,-1441.88 L 123.236,-1441.7 L 122.75,-1441.57 L 122.251,-1441.51 z
M -126,-1342.44 L -125.687,-1342.15 L -125.179,-1341.78 L -124.629,-1341.48 L -124.045,-1341.24 L -123.437,-1341.09
 L -122.814,-1341.01 L 122.814,-1341.01 L 123.437,-1341.09 L 124.045,-1341.24 L 124.629,-1341.48 L 125.179,-1341.78
 L 125.687,-1342.15 L 126.145,-1342.58 L 126.545,-1343.06 L 126.882,-1343.59 L 127.149,-1344.16 L 127.343,-1344.76
 L 127.461,-1345.37 L 127.5,-1346 L 127.5,-1426 L 127.461,-1426.63 L 127.343,-1427.24 L 127.149,-1427.84
 L 126.882,-1428.41 L 126.545,-1428.94 L 126.145,-1429.42 L 125.687,-1429.85 L 125.179,-1430.22 L 124.629,-1430.52
 L 124.045,-1430.76 L 123.437,-1430.91 L 122.814,-1430.99 L -122.814,-1430.99 L -123.437,-1430.91 L -124.045,-1430.76
 L -124.629,-1430.52 L -125.179,-1430.22 L -125.687,-1429.85 L -126,-1429.56 L -126,-1430.99 L -129,-1430.99
 L -129,-1341.01 L -126,-1341.01 z
M -122.251,-1342.51 L -122.75,-1342.57 L -123.236,-1342.7 L -123.703,-1342.88 L -124.143,-1343.12 L -124.55,-1343.42
 L -124.916,-1343.76 L -125.236,-1344.15 L -125.505,-1344.57 L -125.719,-1345.03 L -125.874,-1345.51 L -125.968,-1346
 L -126,-1346.5 L -126,-1425.5 L -125.968,-1426 L -125.874,-1426.49 L -125.719,-1426.97 L -125.505,-1427.43
 L -125.236,-1427.85 L -124.916,-1428.24 L -124.55,-1428.58 L -124.143,-1428.88 L -123.703,-1429.12 L -123.236,-1429.3
 L -122.75,-1429.43 L -122.251,-1429.49 L 122.251,-1429.49 L 122.75,-1429.43 L 123.236,-1429.3 L 123.703,-1429.12
 L 124.143,-1428.88 L 124.55,-1428.58 L 124.916,-1428.24 L 125.236,-1427.85 L 125.505,-1427.43 L 125.719,-1426.97
 L 125.874,-1426.49 L 125.968,-1426 L 126,-1425.5 L 126,-1346.5 L 125.968,-1346 L 125.874,-1345.51
 L 125.719,-1345.03 L 125.505,-1344.57 L 125.236,-1344.15 L 124.916,-1343.76 L 124.55,-1343.42 L 124.143,-1343.12
 L 123.703,-1342.88 L 123.236,-1342.7 L 122.75,-1342.57 L 122.251,-1342.51 z
M -126,-1243.44 L -125.687,-1243.15 L -125.179,-1242.78 L -124.629,-1242.48 L -124.045,-1242.24 L -123.437,-1242.09
 L -122.814,-1242.01 L 122.814,-1242.01 L 123.437,-1242.09 L 124.045,-1242.24 L 124.629,-1242.48 L 125.179,-1242.78
 L 125.687,-1243.15 L 126.145,-1243.58 L 126.545,-1244.06 L 126.882,-1244.59 L 127.149,-1245.16 L 127.343,-1245.76
 L 127.461,-1246.37 L 127.5,-1247 L 127.5,-1327 L 127.461,-1327.63 L 127.343,-1328.24 L 127.149,-1328.84
 L 126.882,-1329.41 L 126.545,-1329.94 L 126.145,-1330.42 L 125.687,-1330.85 L 125.179,-1331.22 L 124.629,-1331.52
 L 124.045,-1331.76 L 123.437,-1331.91 L 122.814,-1331.99 L -122.814,-1331.99 L -123.437,-1331.91 L -124.045,-1331.76
 L -124.629,-1331.52 L -125.179,-1331.22 L -125.687,-1330.85 L -126,-1330.56 L -126,-1331.99 L -129,-1331.99
 L -129,-1242.01 L -126,-1242.01 z
M -122.251,-1243.51 L -122.75,-1243.57 L -123.236,-1243.7 L -123.703,-1243.88 L -124.143,-1244.12 L -124.55,-1244.42
 L -124.916,-1244.76 L -125.236,-1245.15 L -125.505,-1245.57 L -125.719,-1246.03 L -125.874,-1246.51 L -125.968,-1247
 L -126,-1247.5 L -126,-1326.5 L -125.968,-1327 L -125.874,-1327.49 L -125.719,-1327.97 L -125.505,-1328.43
 L -125.236,-1328.85 L -124.916,-1329.24 L -124.55,-1329.58 L -124.143,-1329.88 L -123.703,-1330.12 L -123.236,-1330.3
 L -122.75,-1330.43 L -122.251,-1330.49 L 122.251,-1330.49 L 122.75,-1330.43 L 123.236,-1330.3 L 123.703,-1330.12
 L 124.143,-1329.88 L 124.55,-1329.58 L 124.916,-1329.24 L 125.236,-1328.85 L 125.505,-1328.43 L 125.719,-1327.97
 L 125.874,-1327.49 L 125.968,-1327 L 126,-1326.5 L 126,-1247.5 L 125.968,-1247 L 125.874,-1246.51
 L 125.719,-1246.03 L 125.505,-1245.57 L 125.236,-1245.15 L 124.916,-1244.76 L 124.55,-1244.42 L 124.143,-1244.12
 L 123.703,-1243.88 L 123.236,-1243.7 L 122.75,-1243.57 L 122.251,-1243.51 z
M -126,-1144.44 L -125.687,-1144.15 L -125.179,-1143.78 L -124.629,-1143.48 L -124.045,-1143.24 L -123.437,-1143.09
 L -122.814,-1143.01 L 122.814,-1143.01 L 123.437,-1143.09 L 124.045,-1143.24 L 124.629,-1143.48 L 125.179,-1143.78
 L 125.687,-1144.15 L 126.145,-1144.58 L 126.545,-1145.06 L 126.882,-1145.59 L 127.149,-1146.16 L 127.343,-1146.76
 L 127.461,-1147.37 L 127.5,-1148 L 127.5,-1228 L 127.461,-1228.63 L 127.343,-1229.24 L 127.149,-1229.84
 L 126.882,-1230.41 L 126.545,-1230.94 L 126.145,-1231.42 L 125.687,-1231.85 L 125.179,-1232.22 L 124.629,-1232.52
 L 124.045,-1232.76 L 123.437,-1232.91 L 122.814,-1232.99 L -122.814,-1232.99 L -123.437,-1232.91 L -124.045,-1232.76
 L -124.629,-1232.52 L -125.179,-1232.22 L -125.687,-1231.85 L -126,-1231.56 L -126,-1232.99 L -129,-1232.99
 L -129,-1143.01 L -126,-1143.01 z
M -122.251,-1144.51 L -122.75,-1144.57 L -123.236,-1144.7 L -123.703,-1144.88 L -124.143,-1145.12 L -124.55,-1145.42
 L -124.916,-1145.76 L -125.236,-1146.15 L -125.505,-1146.57 L -125.719,-1147.03 L -125.874,-1147.51 L -125.968,-1148
 L -126,-1148.5 L -126,-1227.5 L -125.968,-1228 L -125.874,-1228.49 L -125.719,-1228.97 L -125.505,-1229.43
 L -125.236,-1229.85 L -124.916,-1230.24 L -124.55,-1230.58 L -124.143,-1230.88 L -123.703,-1231.12 L -123.236,-1231.3
 L -122.75,-1231.43 L -122.251,-1231.49 L 122.251,-1231.49 L 122.75,-1231.43 L 123.236,-1231.3 L 123.703,-1231.12
 L 124.143,-1230.88 L 124.55,-1230.58 L 124.916,-1230.24 L 125.236,-1229.85 L 125.505,-1229.43 L 125.719,-1228.97
 L 125.874,-1228.49 L 125.968,-1228 L 126,-1227.5 L 126,-1148.5 L 125.968,-1148 L 125.874,-1147.51
 L 125.719,-1147.03 L 125.505,-1146.57 L 125.236,-1146.15 L 124.916,-1145.76 L 124.55,-1145.42 L 124.143,-1145.12
 L 123.703,-1144.88 L 123.236,-1144.7 L 122.75,-1144.57 L 122.251,-1144.51 z
M 123.437,-1044.09 L 124.045,-1044.24 L 124.629,-1044.48 L 125.179,-1044.78 L 125.687,-1045.15 L 126.145,-1045.58
 L 126.545,-1046.06 L 126.882,-1046.59 L 127.149,-1047.16 L 127.343,-1047.76 L 127.461,-1048.37 L 127.5,-1049
 L 127.5,-1129 L 127.461,-1129.63 L 127.343,-1130.24 L 127.149,-1130.84 L 126.882,-1131.41 L 126.545,-1131.94
 L 126.145,-1132.42 L 125.687,-1132.85 L 125.179,-1133.22 L 124.629,-1133.52 L 124.045,-1133.76 L 123.437,-1133.91
 L 122.814,-1133.99 L -122.814,-1133.99 L -123.437,-1133.91 L -124.045,-1133.76 L -124.629,-1133.52 L -125.179,-1133.22
 L -125.687,-1132.85 L -126,-1132.56 L -126,-1133.98 L -129,-1133.98 L -129,-1044.02 L -126,-1044.02
 L -126,-1045.44 L -125.687,-1045.15 L -125.179,-1044.78 L -124.629,-1044.48 L -124.045,-1044.24 L -123.437,-1044.09
 L -122.814,-1044.01 L 122.814,-1044.01 z
M -122.195,-1046.39 L -122.583,-1046.44 L -122.962,-1046.54 L -123.325,-1046.68 L -123.668,-1046.87 L -123.984,-1047.1
 L -124.269,-1047.37 L -124.518,-1047.67 L -124.728,-1048 L -124.894,-1048.35 L -125.015,-1048.73 L -125.088,-1049.11
 L -125.113,-1049.5 L -125.113,-1128.5 L -125.088,-1128.89 L -125.015,-1129.27 L -124.894,-1129.65 L -124.728,-1130
 L -124.518,-1130.33 L -124.269,-1130.63 L -123.984,-1130.9 L -123.668,-1131.13 L -123.325,-1131.32 L -122.962,-1131.46
 L -122.583,-1131.56 L -122.195,-1131.61 L 122.195,-1131.61 L 122.583,-1131.56 L 122.962,-1131.46 L 123.325,-1131.32
 L 123.668,-1131.13 L 123.984,-1130.9 L 124.269,-1130.63 L 124.518,-1130.33 L 124.728,-1130 L 124.894,-1129.65
 L 125.015,-1129.27 L 125.088,-1128.89 L 125.113,-1128.5 L 125.113,-1049.5 L 125.088,-1049.11 L 125.015,-1048.73
 L 124.894,-1048.35 L 124.728,-1048 L 124.518,-1047.67 L 124.269,-1047.37 L 123.984,-1047.1 L 123.668,-1046.87
 L 123.325,-1046.68 L 122.962,-1046.54 L 122.583,-1046.44 L 122.195,-1046.39 z
M 123.437,-945.089 L 124.045,-945.245 L 124.629,-945.476 L 125.179,-945.778 L 125.687,-946.147 L 126.145,-946.577
 L 126.545,-947.061 L 126.882,-947.591 L 127.149,-948.159 L 127.343,-948.757 L 127.461,-949.373 L 127.5,-950
 L 127.5,-1030 L 127.461,-1030.63 L 127.343,-1031.24 L 127.149,-1031.84 L 126.882,-1032.41 L 126.545,-1032.94
 L 126.145,-1033.42 L 125.687,-1033.85 L 125.179,-1034.22 L 124.629,-1034.52 L 124.045,-1034.76 L 123.437,-1034.91
 L 122.814,-1034.99 L -122.814,-1034.99 L -123.437,-1034.91 L -124.045,-1034.76 L -124.629,-1034.52 L -125.179,-1034.22
 L -125.687,-1033.85 L -126,-1033.56 L -126,-1033.65 L -129,-1033.65 L -129,-946.347 L -126,-946.347
 L -126,-946.441 L -125.687,-946.147 L -125.179,-945.778 L -124.629,-945.476 L -124.045,-945.245 L -123.437,-945.089
 L -122.814,-945.01 L 122.814,-945.01 z
M -120.134,-1025.37 L -120.4,-1025.4 L -120.66,-1025.47 L -120.909,-1025.57 L -121.144,-1025.7 L -121.361,-1025.85
 L -121.557,-1026.04 L -121.727,-1026.24 L -121.871,-1026.47 L -121.985,-1026.71 L -122.068,-1026.97 L -122.118,-1027.23
 L -122.135,-1027.5 L -122.118,-1027.77 L -122.068,-1028.03 L -121.985,-1028.29 L -121.871,-1028.53 L -121.727,-1028.76
 L -121.557,-1028.96 L -121.361,-1029.15 L -121.144,-1029.3 L -120.909,-1029.43 L -120.66,-1029.53 L -120.4,-1029.6
 L -120.134,-1029.63 L -119.866,-1029.63 L -119.6,-1029.6 L -119.34,-1029.53 L -119.091,-1029.43 L -118.856,-1029.3
 L -118.639,-1029.15 L -118.443,-1028.96 L -118.273,-1028.76 L -118.129,-1028.53 L -118.015,-1028.29 L -117.932,-1028.03
 L -117.882,-1027.77 L -117.865,-1027.5 L -117.882,-1027.23 L -117.932,-1026.97 L -118.015,-1026.71 L -118.129,-1026.47
 L -118.273,-1026.24 L -118.443,-1026.04 L -118.639,-1025.85 L -118.856,-1025.7 L -119.091,-1025.57 L -119.34,-1025.47
 L -119.6,-1025.4 L -119.866,-1025.37 z
M 119.866,-1025.37 L 119.6,-1025.4 L 119.34,-1025.47 L 119.091,-1025.57 L 118.856,-1025.7 L 118.639,-1025.85
 L 118.443,-1026.04 L 118.273,-1026.24 L 118.129,-1026.47 L 118.015,-1026.71 L 117.932,-1026.97 L 117.882,-1027.23
 L 117.865,-1027.5 L 117.882,-1027.77 L 117.932,-1028.03 L 118.015,-1028.29 L 118.129,-1028.53 L 118.273,-1028.76
 L 118.443,-1028.96 L 118.639,-1029.15 L 118.856,-1029.3 L 119.091,-1029.43 L 119.34,-1029.53 L 119.6,-1029.6
 L 119.866,-1029.63 L 120.134,-1029.63 L 120.4,-1029.6 L 120.66,-1029.53 L 120.909,-1029.43 L 121.144,-1029.3
 L 121.361,-1029.15 L 121.557,-1028.96 L 121.727,-1028.76 L 121.871,-1028.53 L 121.985,-1028.29 L 122.068,-1028.03
 L 122.118,-1027.77 L 122.135,-1027.5 L 122.118,-1027.23 L 122.068,-1026.97 L 121.985,-1026.71 L 121.871,-1026.47
 L 121.727,-1026.24 L 121.557,-1026.04 L 121.361,-1025.85 L 121.144,-1025.7 L 120.909,-1025.57 L 120.66,-1025.47
 L 120.4,-1025.4 L 120.134,-1025.37 z
M -120.134,-950.369 L -120.4,-950.403 L -120.66,-950.469 L -120.909,-950.568 L -121.144,-950.697 L -121.361,-950.855
 L -121.557,-951.038 L -121.727,-951.245 L -121.871,-951.471 L -121.985,-951.714 L -122.068,-951.969 L -122.118,-952.232
 L -122.135,-952.5 L -122.118,-952.768 L -122.068,-953.031 L -121.985,-953.286 L -121.871,-953.529 L -121.727,-953.755
 L -121.557,-953.962 L -121.361,-954.145 L -121.144,-954.303 L -120.909,-954.432 L -120.66,-954.531 L -120.4,-954.597
 L -120.134,-954.631 L -119.866,-954.631 L -119.6,-954.597 L -119.34,-954.531 L -119.091,-954.432 L -118.856,-954.303
 L -118.639,-954.145 L -118.443,-953.962 L -118.273,-953.755 L -118.129,-953.529 L -118.015,-953.286 L -117.932,-953.031
 L -117.882,-952.768 L -117.865,-952.5 L -117.882,-952.232 L -117.932,-951.969 L -118.015,-951.714 L -118.129,-951.471
 L -118.273,-951.245 L -118.443,-951.038 L -118.639,-950.855 L -118.856,-950.697 L -119.091,-950.568 L -119.34,-950.469
 L -119.6,-950.403 L -119.866,-950.369 z
M 119.866,-950.369 L 119.6,-950.403 L 119.34,-950.469 L 119.091,-950.568 L 118.856,-950.697 L 118.639,-950.855
 L 118.443,-951.038 L 118.273,-951.245 L 118.129,-951.471 L 118.015,-951.714 L 117.932,-951.969 L 117.882,-952.232
 L 117.865,-952.5 L 117.882,-952.768 L 117.932,-953.031 L 118.015,-953.286 L 118.129,-953.529 L 118.273,-953.755
 L 118.443,-953.962 L 118.639,-954.145 L 118.856,-954.303 L 119.091,-954.432 L 119.34,-954.531 L 119.6,-954.597
 L 119.866,-954.631 L 120.134,-954.631 L 120.4,-954.597 L 120.66,-954.531 L 120.909,-954.432 L 121.144,-954.303
 L 121.361,-954.145 L 121.557,-953.962 L 121.727,-953.755 L 121.871,-953.529 L 121.985,-953.286 L 122.068,-953.031
 L 122.118,-952.768 L 122.135,-952.5 L 122.118,-952.232 L 122.068,-951.969 L 121.985,-951.714 L 121.871,-951.471
 L 121.727,-951.245 L 121.557,-951.038 L 121.361,-950.855 L 121.144,-950.697 L 120.909,-950.568 L 120.66,-950.469
 L 120.4,-950.403 L 120.134,-950.369 z
" stroke="black" fill="lightgray" stroke-width="0.5"/>
</svg>
