<?xml version="1.0" standalone="no"?>
<!DOCTYPE svg PUBLIC "-//W3C//DTD SVG 1.1//EN" "http://www.w3.org/Graphics/SVG/1.1/DTD/svg11.dtd">
<svg width="286mm" height="936mm" viewBox="-143 -1602 286 936" xmlns="http://www.w3.org/2000/svg" version="1.1">
<title>OpenSCAD Model</title>
<path d="
M 138.437,-1422.09 L 139.045,-1422.24 L 139.629,-1422.48 L 140.179,-1422.78 L 140.687,-1423.15 L 141.145,-1423.58
 L 141.545,-1424.06 L 141.882,-1424.59 L 142.149,-1425.16 L 142.343,-1425.76 L 142.461,-1426.37 L 142.5,-1427
 L 142.5,-1597 L 142.461,-1597.63 L 142.343,-1598.24 L 142.149,-1598.84 L 141.882,-1599.41 L 141.545,-1599.94
 L 141.145,-1600.42 L 140.687,-1600.85 L 140.179,-1601.22 L 139.629,-1601.52 L 139.045,-1601.76 L 138.437,-1601.91
 L 137.814,-1601.99 L -137.814,-1601.99 L -138.437,-1601.91 L -139.045,-1601.76 L -139.629,-1601.52 L -140.179,-1601.22
 L -140.687,-1600.85 L -141.145,-1600.42 L -141.545,-1599.94 L -141.882,-1599.41 L -142.149,-1598.84 L -142.343,-1598.24
 L -142.461,-1597.63 L -142.5,-1597 L -142.5,-1427 L -142.461,-1426.37 L -142.343,-1425.76 L -142.149,-1425.16
 L -141.882,-1424.59 L -141.545,-1424.06 L -141.145,-1423.58 L -140.687,-1423.15 L -140.179,-1422.78 L -139.629,-1422.48
 L -139.045,-1422.24 L -138.437,-1422.09 L -137.814,-1422.01 L 137.814,-1422.01 z
M -137.548,-1422.51 L -138.14,-1422.58 L -138.718,-1422.73 L -139.272,-1422.95 L -139.795,-1423.24 L -140.278,-1423.59
 L -140.713,-1424 L -141.093,-1424.46 L -141.412,-1424.96 L -141.666,-1425.5 L -141.851,-1426.07 L -141.963,-1426.65
 L -142,-1427.25 L -142,-1596.75 L -141.963,-1597.35 L -141.851,-1597.93 L -141.666,-1598.5 L -141.412,-1599.04
 L -141.093,-1599.54 L -140.713,-1600 L -140.278,-1600.41 L -139.795,-1600.76 L -139.272,-1601.05 L -138.718,-1601.27
 L -138.14,-1601.42 L -137.548,-1601.49 L 137.548,-1601.49 L 138.14,-1601.42 L 138.718,-1601.27 L 139.272,-1601.05
 L 139.795,-1600.76 L 140.278,-1600.41 L 140.713,-1600 L 141.093,-1599.54 L 141.412,-1599.04 L 141.666,-1598.5
 L 141.851,-1597.93 L 141.963,-1597.35 L 142,-1596.75 L 142,-1427.25 L 141.963,-1426.65 L 141.851,-1426.07
 L 141.666,-1425.5 L 141.412,-1424.96 L 141.093,-1424.46 L 140.713,-1424 L 140.278,-1423.59 L 139.795,-1423.24
 L 139.272,-1422.95 L 138.718,-1422.73 L 138.14,-1422.58 L 137.548,-1422.51 z
M 138.437,-1233.09 L 139.045,-1233.24 L 139.629,-1233.48 L 140.179,-1233.78 L 140.687,-1234.15 L 141.145,-1234.58
 L 141.545,-1235.06 L 141.882,-1235.59 L 142.149,-1236.16 L 142.343,-1236.76 L 142.461,-1237.37 L 142.5,-1238
 L 142.5,-1408 L 142.461,-1408.63 L 142.343,-1409.24 L 142.149,-1409.84 L 141.882,-1410.41 L 141.545,-1410.94
 L 141.145,-1411.42 L 140.687,-1411.85 L 140.179,-1412.22 L 139.629,-1412.52 L 139.045,-1412.76 L 138.437,-1412.91
 L 137.814,-1412.99 L -137.814,-1412.99 L -138.437,-1412.91 L -139.045,-1412.76 L -139.629,-1412.52 L -140.179,-1412.22
 L -140.687,-1411.85 L -141.145,-1411.42 L -141.545,-1410.94 L -141.882,-1410.41 L -142.149,-1409.84 L -142.343,-1409.24
 L -142.461,-1408.63 L -142.5,-1408 L -142.5,-1238 L -142.461,-1237.37 L -142.343,-1236.76 L -142.149,-1236.16
 L -141.882,-1235.59 L -141.545,-1235.06 L -141.145,-1234.58 L -140.687,-1234.15 L -140.179,-1233.78 L -139.629,-1233.48
 L -139.045,-1233.24 L -138.437,-1233.09 L -137.814,-1233.01 L 137.814,-1233.01 z
M -137.548,-1233.51 L -138.14,-1233.58 L -138.718,-1233.73 L -139.272,-1233.95 L -139.795,-1234.24 L -140.278,-1234.59
 L -140.713,-1235 L -141.093,-1235.46 L -141.412,-1235.96 L -141.666,-1236.5 L -141.851,-1237.07 L -141.963,-1237.65
 L -142,-1238.25 L -142,-1407.75 L -141.963,-1408.35 L -141.851,-1408.93 L -141.666,-1409.5 L -141.412,-1410.04
 L -141.093,-1410.54 L -140.713,-1411 L -140.278,-1411.41 L -139.795,-1411.76 L -139.272,-1412.05 L -138.718,-1412.27
 L -138.14,-1412.42 L -137.548,-1412.49 L 137.548,-1412.49 L 138.14,-1412.42 L 138.718,-1412.27 L 139.272,-1412.05
 L 139.795,-1411.76 L 140.278,-1411.41 L 140.713,-1411 L 141.093,-1410.54 L 141.412,-1410.04 L 141.666,-1409.5
 L 141.851,-1408.93 L 141.963,-1408.35 L 142,-1407.75 L 142,-1238.25 L 141.963,-1237.65 L 141.851,-1237.07
 L 141.666,-1236.5 L 141.412,-1235.96 L 141.093,-1235.46 L 140.713,-1235 L 140.278,-1234.59 L 139.795,-1234.24
 L 139.272,-1233.95 L 138.718,-1233.73 L 138.14,-1233.58 L 137.548,-1233.51 z
M 138.437,-1044.09 L 139.045,-1044.24 L 139.629,-1044.48 L 140.179,-1044.78 L 140.687,-1045.15 L 141.145,-1045.58
 L 141.545,-1046.06 L 141.882,-1046.59 L 142.149,-1047.16 L 142.343,-1047.76 L 142.461,-1048.37 L 142.5,-1049
 L 142.5,-1219 L 142.461,-1219.63 L 142.343,-1220.24 L 142.149,-1220.84 L 141.882,-1221.41 L 141.545,-1221.94
 L 141.145,-1222.42 L 140.687,-1222.85 L 140.179,-1223.22 L 139.629,-1223.52 L 139.045,-1223.76 L 138.437,-1223.91
 L 137.814,-1223.99 L -137.814,-1223.99 L -138.437,-1223.91 L -139.045,-1223.76 L -139.629,-1223.52 L -140.179,-1223.22
 L -140.687,-1222.85 L -141.145,-1222.42 L -141.545,-1221.94 L -141.882,-1221.41 L -142.149,-1220.84 L -142.343,-1220.24
 L -142.461,-1219.63 L -142.5,-1219 L -142.5,-1049 L -142.461,-1048.37 L -142.343,-1047.76 L -142.149,-1047.16
 L -141.882,-1046.59 L -141.545,-1046.06 L -141.145,-1045.58 L -140.687,-1045.15 L -140.179,-1044.78 L -139.629,-1044.48
 L -139.045,-1044.24 L -138.437,-1044.09 L -137.814,-1044.01 L 137.814,-1044.01 z
M -137.548,-1044.51 L -138.14,-1044.58 L -138.718,-1044.73 L -139.272,-1044.95 L -139.795,-1045.24 L -140.278,-1045.59
 L -140.713,-1046 L -141.093,-1046.46 L -141.412,-1046.96 L -141.666,-1047.5 L -141.851,-1048.07 L -141.963,-1048.65
 L -142,-1049.25 L -142,-1218.75 L -141.963,-1219.35 L -141.851,-1219.93 L -141.666,-1220.5 L -141.412,-1221.04
 L -141.093,-1221.54 L -140.713,-1222 L -140.278,-1222.41 L -139.795,-1222.76 L -139.272,-1223.05 L -138.718,-1223.27
 L -138.14,-1223.42 L -137.548,-1223.49 L 137.548,-1223.49 L 138.14,-1223.42 L 138.718,-1223.27 L 139.272,-1223.05
 L 139.795,-1222.76 L 140.278,-1222.41 L 140.713,-1222 L 141.093,-1221.54 L 141.412,-1221.04 L 141.666,-1220.5
 L 141.851,-1219.93 L 141.963,-1219.35 L 142,-1218.75 L 142,-1049.25 L 141.963,-1048.65 L 141.851,-1048.07
 L 141.666,-1047.5 L 141.412,-1046.96 L 141.093,-1046.46 L 140.713,-1046 L 140.278,-1045.59 L 139.795,-1045.24
 L 139.272,-1044.95 L 138.718,-1044.73 L 138.14,-1044.58 L 137.548,-1044.51 z
M 138.437,-855.089 L 139.045,-855.245 L 139.629,-855.476 L 140.179,-855.778 L 140.687,-856.147 L 141.145,-856.577
 L 141.545,-857.061 L 141.882,-857.591 L 142.149,-858.159 L 142.343,-858.757 L 142.461,-859.373 L 142.5,-860
 L 142.5,-1030 L 142.461,-1030.63 L 142.343,-1031.24 L 142.149,-1031.84 L 141.882,-1032.41 L 141.545,-1032.94
 L 141.145,-1033.42 L 140.687,-1033.85 L 140.179,-1034.22 L 139.629,-1034.52 L 139.045,-1034.76 L 138.437,-1034.91
 L 137.814,-1034.99 L -137.814,-1034.99 L -138.437,-1034.91 L -139.045,-1034.76 L -139.629,-1034.52 L -140.179,-1034.22
 L -140.687,-1033.85 L -141.145,-1033.42 L -141.545,-1032.94 L -141.882,-1032.41 L -142.149,-1031.84 L -142.343,-1031.24
 L -142.461,-1030.63 L -142.5,-1030 L -142.5,-860 L -142.461,-859.373 L -142.343,-858.757 L -142.149,-858.159
 L -141.882,-857.591 L -141.545,-857.061 L -141.145,-856.577 L -140.687,-856.147 L -140.179,-855.778 L -139.629,-855.476
 L -139.045,-855.245 L -138.437,-855.089 L -137.814,-855.01 L 137.814,-855.01 z
M -137.493,-856.388 L -137.975,-856.449 L -138.446,-856.57 L -138.898,-856.749 L -139.323,-856.983 L -139.716,-857.269
 L -140.071,-857.601 L -140.38,-857.976 L -140.641,-858.386 L -140.848,-858.826 L -140.998,-859.288 L -141.089,-859.765
 L -141.119,-860.25 L -141.119,-1029.75 L -141.089,-1030.23 L -140.998,-1030.71 L -140.848,-1031.17 L -140.641,-1031.61
 L -140.38,-1032.02 L -140.071,-1032.4 L -139.716,-1032.73 L -139.323,-1033.02 L -138.898,-1033.25 L -138.446,-1033.43
 L -137.975,-1033.55 L -137.493,-1033.61 L 137.493,-1033.61 L 137.975,-1033.55 L 138.446,-1033.43 L 138.898,-1033.25
 L 139.323,-1033.02 L 139.716,-1032.73 L 140.071,-1032.4 L 140.38,-1032.02 L 140.641,-1031.61 L 140.848,-1031.17
 L 140.998,-1030.71 L 141.089,-1030.23 L 141.119,-1029.75 L 141.119,-860.25 L 141.089,-859.765 L 140.998,-859.288
 L 140.848,-858.826 L 140.641,-858.386 L 140.38,-857.976 L 140.071,-857.601 L 139.716,-857.269 L 139.323,-856.983
 L 138.898,-856.749 L 138.446,-856.57 L 137.975,-856.449 L 137.493,-856.388 z
M 138.437,-666.089 L 139.045,-666.245 L 139.629,-666.476 L 140.179,-666.778 L 140.687,-667.147 L 141.145,-667.577
 L 141.545,-668.061 L 141.882,-668.591 L 142.149,-669.159 L 142.343,-669.757 L 142.461,-670.373 L 142.5,-671
 L 142.5,-841 L 142.461,-841.627 L 142.343,-842.243 L 142.149,-842.841 L 141.882,-843.409 L 141.545,-843.939
 L 141.145,-844.423 L 140.687,-844.853 L 140.179,-845.222 L 139.629,-845.524 L 139.045,-845.755 L 138.437,-845.911
 L 137.814,-845.99 L -137.814,-845.99 L -138.437,-845.911 L -139.045,-845.755 L -139.629,-845.524 L -140.179,-845.222
 L -140.687,-844.853 L -141.145,-844.423 L -141.545,-843.939 L -141.882,-843.409 L -142.149,-842.841 L -142.343,-842.243
 L -142.461,-841.627 L -142.5,-841 L -142.5,-671 L -142.461,-670.373 L -142.343,-669.757 L -142.149,-669.159
 L -141.882,-668.591 L -141.545,-668.061 L -141.145,-667.577 L -140.687,-667.147 L -140.179,-666.778 L -139.629,-666.476
 L -139.045,-666.245 L -138.437,-666.089 L -137.814,-666.01 L 137.814,-666.01 z
M -135.113,-836.704 L -135.337,-836.732 L -135.556,-836.788 L -135.766,-836.871 L -135.964,-836.98 L -136.147,-837.113
 L -136.312,-837.268 L -136.456,-837.442 L -136.577,-837.633 L -136.674,-837.837 L -136.743,-838.052 L -136.786,-838.274
 L -136.8,-838.5 L -136.786,-838.726 L -136.743,-838.948 L -136.674,-839.163 L -136.577,-839.367 L -136.456,-839.558
 L -136.312,-839.732 L -136.147,-839.887 L -135.964,-840.02 L -135.766,-840.129 L -135.556,-840.212 L -135.337,-840.268
 L -135.113,-840.296 L -134.887,-840.296 L -134.663,-840.268 L -134.444,-840.212 L -134.234,-840.129 L -134.036,-840.02
 L -133.853,-839.887 L -133.688,-839.732 L -133.544,-839.558 L -133.423,-839.367 L -133.326,-839.163 L -133.257,-838.948
 L -133.214,-838.726 L -133.2,-838.5 L -133.214,-838.274 L -133.257,-838.052 L -133.326,-837.837 L -133.423,-837.633
 L -133.544,-837.442 L -133.688,-837.268 L -133.853,-837.113 L -134.036,-836.98 L -134.234,-836.871 L -134.444,-836.788
 L -134.663,-836.732 L -134.887,-836.704 z
M 134.887,-836.704 L 134.663,-836.732 L 134.444,-836.788 L 134.234,-836.871 L 134.036,-836.98 L 133.853,-837.113
 L 133.688,-837.268 L 133.544,-837.442 L 133.423,-837.633 L 133.326,-837.837 L 133.257,-838.052 L 133.214,-838.274
 L 133.2,-838.5 L 133.214,-838.726 L 133.257,-838.948 L 133.326,-839.163 L 133.423,-839.367 L 133.544,-839.558
 L 133.688,-839.732 L 133.853,-839.887 L 134.036,-840.02 L 134.234,-840.129 L 134.444,-840.212 L 134.663,-840.268
 L 134.887,-840.296 L 135.113,-840.296 L 135.337,-840.268 L 135.556,-840.212 L 135.766,-840.129 L 135.964,-840.02
 L 136.147,-839.887 L 136.312,-839.732 L 136.456,-839.558 L 136.577,-839.367 L 136.674,-839.163 L 136.743,-838.948
 L 136.786,-838.726 L 136.8,-838.5 L 136.786,-838.274 L 136.743,-838.052 L 136.674,-837.837 L 136.577,-837.633
 L 136.456,-837.442 L 136.312,-837.268 L 136.147,-837.113 L 135.964,-836.98 L 135.766,-836.871 L 135.556,-836.788
 L 135.337,-836.732 L 135.113,-836.704 z
M -135.113,-671.704 L -135.337,-671.732 L -135.556,-671.788 L -135.766,-671.871 L -135.964,-671.98 L -136.147,-672.113
 L -136.312,-672.268 L -136.456,-672.442 L -136.577,-672.633 L -136.674,-672.837 L -136.743,-673.052 L -136.786,-673.274
 L -136.8,-673.5 L -136.786,-673.726 L -136.743,-673.948 L -136.674,-674.163 L -136.577,-674.367 L -136.456,-674.558
 L -136.312,-674.732 L -136.147,-674.887 L -135.964,-675.02 L -135.766,-675.129 L -135.556,-675.212 L -135.337,-675.268
 L -135.113,-675.296 L -134.887,-675.296 L -134.663,-675.268 L -134.444,-675.212 L -134.234,-675.129 L -134.036,-675.02
 L -133.853,-674.887 L -133.688,-674.732 L -133.544,-674.558 L -133.423,-674.367 L -133.326,-674.163 L -133.257,-673.948
 L -133.214,-673.726 L -133.2,-673.5 L -133.214,-673.274 L -133.257,-673.052 L -133.326,-672.837 L -133.423,-672.633
 L -133.544,-672.442 L -133.688,-672.268 L -133.853,-672.113 L -134.036,-671.98 L -134.234,-671.871 L -134.444,-671.788
 L -134.663,-671.732 L -134.887,-671.704 z
M 134.887,-671.704 L 134.663,-671.732 L 134.444,-671.788 L 134.234,-671.871 L 134.036,-671.98 L 133.853,-672.113
 L 133.688,-672.268 L 133.544,-672.442 L 133.423,-672.633 L 133.326,-672.837 L 133.257,-673.052 L 133.214,-673.274
 L 133.2,-673.5 L 133.214,-673.726 L 133.257,-673.948 L 133.326,-674.163 L 133.423,-674.367 L 133.544,-674.558
 L 133.688,-674.732 L 133.853,-674.887 L 134.036,-675.02 L 134.234,-675.129 L 134.444,-675.212 L 134.663,-675.268
 L 134.887,-675.296 L 135.113,-675.296 L 135.337,-675.268 L 135.556,-675.212 L 135.766,-675.129 L 135.964,-675.02
 L 136.147,-674.887 L 136.312,-674.732 L 136.456,-674.558 L 136.577,-674.367 L 136.674,-674.163 L 136.743,-673.948
 L 136.786,-673.726 L 136.8,-673.5 L 136.786,-673.274 L 136.743,-673.052 L 136.674,-672.837 L 136.577,-672.633
 L 136.456,-672.442 L 136.312,-672.268 L 136.147,-672.113 L 135.964,-671.98 L 135.766,-671.871 L 135.556,-671.788
 L 135.337,-671.732 L 135.113,-671.704 z
" stroke="black" fill="lightgray" stroke-width="0.5"/>
</svg>
