<?xml version="1.0" standalone="no"?>
<!DOCTYPE svg PUBLIC "-//W3C//DTD SVG 1.1//EN" "http://www.w3.org/Graphics/SVG/1.1/DTD/svg11.dtd">
<svg width="270mm" height="828mm" viewBox="-135 -1530 270 828" xmlns="http://www.w3.org/2000/svg" version="1.1">
<title>OpenSCAD Model</title>
<path d="
M 130.937,-1260.09 L 131.545,-1260.24 L 132.129,-1260.48 L 132.679,-1260.78 L 133.187,-1261.15 L 133.645,-1261.58
 L 134.045,-1262.06 L 134.382,-1262.59 L 134.649,-1263.16 L 134.843,-1263.76 L 134.961,-1264.37 L 135,-1265
 L 135,-1525 L 134.961,-1525.63 L 134.843,-1526.24 L 134.649,-1526.84 L 134.382,-1527.41 L 134.045,-1527.94
 L 133.645,-1528.42 L 133.187,-1528.85 L 132.679,-1529.22 L 132.129,-1529.52 L 131.545,-1529.76 L 130.937,-1529.91
 L 130.314,-1529.99 L -130.314,-1529.99 L -130.937,-1529.91 L -131.545,-1529.76 L -132.129,-1529.52 L -132.679,-1529.22
 L -133.187,-1528.85 L -133.645,-1528.42 L -134.045,-1527.94 L -134.382,-1527.41 L -134.649,-1526.84 L -134.843,-1526.24
 L -134.961,-1525.63 L -135,-1525 L -135,-1265 L -134.961,-1264.37 L -134.843,-1263.76 L -134.649,-1263.16
 L -134.382,-1262.59 L -134.045,-1262.06 L -133.645,-1261.58 L -133.187,-1261.15 L -132.679,-1260.78 L -132.129,-1260.48
 L -131.545,-1260.24 L -130.937,-1260.09 L -130.314,-1260.01 L 130.314,-1260.01 z
M -130.048,-1260.51 L -130.64,-1260.58 L -131.218,-1260.73 L -131.772,-1260.95 L -132.295,-1261.24 L -132.778,-1261.59
 L -133.213,-1262 L -133.593,-1262.46 L -133.912,-1262.96 L -134.166,-1263.5 L -134.351,-1264.07 L -134.463,-1264.65
 L -134.5,-1265.25 L -134.5,-1524.75 L -134.463,-1525.35 L -134.351,-1525.93 L -134.166,-1526.5 L -133.912,-1527.04
 L -133.593,-1527.54 L -133.213,-1528 L -132.778,-1528.41 L -132.295,-1528.76 L -131.772,-1529.05 L -131.218,-1529.27
 L -130.64,-1529.42 L -130.048,-1529.49 L 130.048,-1529.49 L 130.64,-1529.42 L 131.218,-1529.27 L 131.772,-1529.05
 L 132.295,-1528.76 L 132.778,-1528.41 L 133.213,-1528 L 133.593,-1527.54 L 133.912,-1527.04 L 134.166,-1526.5
 L 134.351,-1525.93 L 134.463,-1525.35 L 134.5,-1524.75 L 134.5,-1265.25 L 134.463,-1264.65 L 134.351,-1264.07
 L 134.166,-1263.5 L 133.912,-1262.96 L 133.593,-1262.46 L 133.213,-1262 L 132.778,-1261.59 L 132.295,-1261.24
 L 131.772,-1260.95 L 131.218,-1260.73 L 130.64,-1260.58 L 130.048,-1260.51 z
M 130.937,-981.089 L 131.545,-981.245 L 132.129,-981.476 L 132.679,-981.778 L 133.187,-982.147 L 133.645,-982.577
 L 134.045,-983.061 L 134.382,-983.591 L 134.649,-984.159 L 134.843,-984.757 L 134.961,-985.373 L 135,-986
 L 135,-1246 L 134.961,-1246.63 L 134.843,-1247.24 L 134.649,-1247.84 L 134.382,-1248.41 L 134.045,-1248.94
 L 133.645,-1249.42 L 133.187,-1249.85 L 132.679,-1250.22 L 132.129,-1250.52 L 131.545,-1250.76 L 130.937,-1250.91
 L 130.314,-1250.99 L -130.314,-1250.99 L -130.937,-1250.91 L -131.545,-1250.76 L -132.129,-1250.52 L -132.679,-1250.22
 L -133.187,-1249.85 L -133.645,-1249.42 L -134.045,-1248.94 L -134.382,-1248.41 L -134.649,-1247.84 L -134.843,-1247.24
 L -134.961,-1246.63 L -135,-1246 L -135,-986 L -134.961,-985.373 L -134.843,-984.757 L -134.649,-984.159
 L -134.382,-983.591 L -134.045,-983.061 L -133.645,-982.577 L -133.187,-982.147 L -132.679,-981.778 L -132.129,-981.476
 L -131.545,-981.245 L -130.937,-981.089 L -130.314,-981.01 L 130.314,-981.01 z
M -130.037,-981.681 L -130.608,-981.753 L -131.165,-981.896 L -131.699,-982.107 L -132.203,-982.384 L -132.668,-982.722
 L -133.088,-983.116 L -133.454,-983.559 L -133.762,-984.044 L -134.007,-984.565 L -134.185,-985.111 L -134.292,-985.676
 L -134.328,-986.25 L -134.328,-1245.75 L -134.292,-1246.32 L -134.185,-1246.89 L -134.007,-1247.44 L -133.762,-1247.96
 L -133.454,-1248.44 L -133.088,-1248.88 L -132.668,-1249.28 L -132.203,-1249.62 L -131.699,-1249.89 L -131.165,-1250.1
 L -130.608,-1250.25 L -130.037,-1250.32 L 130.037,-1250.32 L 130.608,-1250.25 L 131.165,-1250.1 L 131.699,-1249.89
 L 132.203,-1249.62 L 132.668,-1249.28 L 133.088,-1248.88 L 133.454,-1248.44 L 133.762,-1247.96 L 134.007,-1247.44
 L 134.185,-1246.89 L 134.292,-1246.32 L 134.328,-1245.75 L 134.328,-986.25 L 134.292,-985.676 L 134.185,-985.111
 L 134.007,-984.565 L 133.762,-984.044 L 133.454,-983.559 L 133.088,-983.116 L 132.668,-982.722 L 132.203,-982.384
 L 131.699,-982.107 L 131.165,-981.896 L 130.608,-981.753 L 130.037,-981.681 z
M 130.937,-702.089 L 131.545,-702.245 L 132.129,-702.476 L 132.679,-702.778 L 133.187,-703.147 L 133.645,-703.577
 L 134.045,-704.061 L 134.382,-704.591 L 134.649,-705.159 L 134.843,-705.757 L 134.961,-706.373 L 135,-707
 L 135,-967 L 134.961,-967.627 L 134.843,-968.243 L 134.649,-968.841 L 134.382,-969.409 L 134.045,-969.939
 L 133.645,-970.423 L 133.187,-970.853 L 132.679,-971.222 L 132.129,-971.524 L 131.545,-971.755 L 130.937,-971.911
 L 130.314,-971.99 L -130.314,-971.99 L -130.937,-971.911 L -131.545,-971.755 L -132.129,-971.524 L -132.679,-971.222
 L -133.187,-970.853 L -133.645,-970.423 L -134.045,-969.939 L -134.382,-969.409 L -134.649,-968.841 L -134.843,-968.243
 L -134.961,-967.627 L -135,-967 L -135,-707 L -134.961,-706.373 L -134.843,-705.757 L -134.649,-705.159
 L -134.382,-704.591 L -134.045,-704.061 L -133.645,-703.577 L -133.187,-703.147 L -132.679,-702.778 L -132.129,-702.476
 L -131.545,-702.245 L -130.937,-702.089 L -130.314,-702.01 L 130.314,-702.01 z
M -129.882,-705.145 L -130.145,-705.178 L -130.402,-705.244 L -130.648,-705.341 L -130.88,-705.469 L -131.095,-705.624
 L -131.288,-705.806 L -131.457,-706.01 L -131.599,-706.234 L -131.711,-706.473 L -131.793,-706.725 L -131.843,-706.986
 L -131.86,-707.25 L -131.86,-966.75 L -131.843,-967.014 L -131.793,-967.275 L -131.711,-967.527 L -131.599,-967.766
 L -131.457,-967.99 L -131.288,-968.194 L -131.095,-968.376 L -130.88,-968.531 L -130.648,-968.659 L -130.402,-968.756
 L -130.145,-968.822 L -129.882,-968.855 L 129.882,-968.855 L 130.145,-968.822 L 130.402,-968.756 L 130.648,-968.659
 L 130.88,-968.531 L 131.095,-968.376 L 131.288,-968.194 L 131.457,-967.99 L 131.599,-967.766 L 131.711,-967.527
 L 131.793,-967.275 L 131.843,-967.014 L 131.86,-966.75 L 131.86,-707.25 L 131.843,-706.986 L 131.793,-706.725
 L 131.711,-706.473 L 131.599,-706.234 L 131.457,-706.01 L 131.288,-705.806 L 131.095,-705.624 L 130.88,-705.469
 L 130.648,-705.341 L 130.402,-705.244 L 130.145,-705.178 L 129.882,-705.145 z
" stroke="black" fill="lightgray" stroke-width="0.5"/>
</svg>
