<?xml version="1.0" standalone="no"?>
<!DOCTYPE svg PUBLIC "-//W3C//DTD SVG 1.1//EN" "http://www.w3.org/Graphics/SVG/1.1/DTD/svg11.dtd">
<svg width="270mm" height="118mm" viewBox="-135 -232 270 118" xmlns="http://www.w3.org/2000/svg" version="1.1">
<title>OpenSCAD Model</title>
<path d="
M 130.937,-209.339 L 131.545,-209.495 L 132.129,-209.726 L 132.679,-210.028 L 133.187,-210.397 L 133.645,-210.827
 L 134.045,-211.311 L 134.382,-211.841 L 134.649,-212.409 L 134.843,-213.007 L 134.961,-213.623 L 135,-214.25
 L 135,-226.75 L 134.961,-227.377 L 134.843,-227.993 L 134.649,-228.591 L 134.382,-229.159 L 134.045,-229.689
 L 133.645,-230.173 L 133.187,-230.603 L 132.679,-230.972 L 132.129,-231.274 L 131.545,-231.505 L 130.937,-231.661
 L 130.314,-231.74 L -130.314,-231.74 L -130.937,-231.661 L -131.545,-231.505 L -132.129,-231.274 L -132.679,-230.972
 L -133.187,-230.603 L -133.645,-230.173 L -134.045,-229.689 L -134.382,-229.159 L -134.649,-228.591 L -134.843,-227.993
 L -134.961,-227.377 L -135,-226.75 L -135,-214.25 L -134.961,-213.623 L -134.843,-213.007 L -134.649,-212.409
 L -134.382,-211.841 L -134.045,-211.311 L -133.645,-210.827 L -133.187,-210.397 L -132.679,-210.028 L -132.129,-209.726
 L -131.545,-209.495 L -130.937,-209.339 L -130.314,-209.26 L 130.314,-209.26 z
M -130.048,-209.759 L -130.64,-209.834 L -131.218,-209.982 L -131.772,-210.202 L -132.295,-210.489 L -132.778,-210.84
 L -133.213,-211.248 L -133.593,-211.708 L -133.912,-212.212 L -134.166,-212.751 L -134.351,-213.319 L -134.463,-213.905
 L -134.5,-214.5 L -134.5,-226.5 L -134.463,-227.095 L -134.351,-227.681 L -134.166,-228.249 L -133.912,-228.788
 L -133.593,-229.292 L -133.213,-229.752 L -132.778,-230.16 L -132.295,-230.511 L -131.772,-230.798 L -131.218,-231.018
 L -130.64,-231.166 L -130.048,-231.241 L 130.048,-231.241 L 130.64,-231.166 L 131.218,-231.018 L 131.772,-230.798
 L 132.295,-230.511 L 132.778,-230.16 L 133.213,-229.752 L 133.593,-229.292 L 133.912,-228.788 L 134.166,-228.249
 L 134.351,-227.681 L 134.463,-227.095 L 134.5,-226.5 L 134.5,-214.5 L 134.463,-213.905 L 134.351,-213.319
 L 134.166,-212.751 L 133.912,-212.212 L 133.593,-211.708 L 133.213,-211.248 L 132.778,-210.84 L 132.295,-210.489
 L 131.772,-210.202 L 131.218,-209.982 L 130.64,-209.834 L 130.048,-209.759 z
M 130.937,-177.839 L 131.545,-177.995 L 132.129,-178.226 L 132.679,-178.528 L 133.187,-178.897 L 133.645,-179.327
 L 134.045,-179.811 L 134.382,-180.341 L 134.649,-180.909 L 134.843,-181.507 L 134.961,-182.123 L 135,-182.75
 L 135,-195.25 L 134.961,-195.877 L 134.843,-196.493 L 134.649,-197.091 L 134.382,-197.659 L 134.045,-198.189
 L 133.645,-198.673 L 133.187,-199.103 L 132.679,-199.472 L 132.129,-199.774 L 131.545,-200.005 L 130.937,-200.161
 L 130.314,-200.24 L -130.314,-200.24 L -130.937,-200.161 L -131.545,-200.005 L -132.129,-199.774 L -132.679,-199.472
 L -133.187,-199.103 L -133.645,-198.673 L -134.045,-198.189 L -134.382,-197.659 L -134.649,-197.091 L -134.843,-196.493
 L -134.961,-195.877 L -135,-195.25 L -135,-182.75 L -134.961,-182.123 L -134.843,-181.507 L -134.649,-180.909
 L -134.382,-180.341 L -134.045,-179.811 L -133.645,-179.327 L -133.187,-178.897 L -132.679,-178.528 L -132.129,-178.226
 L -131.545,-177.995 L -130.937,-177.839 L -130.314,-177.76 L 130.314,-177.76 z
M -130.048,-178.259 L -130.64,-178.334 L -131.218,-178.482 L -131.772,-178.702 L -132.295,-178.989 L -132.778,-179.34
 L -133.213,-179.748 L -133.593,-180.208 L -133.912,-180.712 L -134.166,-181.251 L -134.351,-181.819 L -134.463,-182.405
 L -134.5,-183 L -134.5,-195 L -134.463,-195.595 L -134.351,-196.181 L -134.166,-196.749 L -133.912,-197.288
 L -133.593,-197.792 L -133.213,-198.252 L -132.778,-198.66 L -132.295,-199.011 L -131.772,-199.298 L -131.218,-199.518
 L -130.64,-199.666 L -130.048,-199.741 L 130.048,-199.741 L 130.64,-199.666 L 131.218,-199.518 L 131.772,-199.298
 L 132.295,-199.011 L 132.778,-198.66 L 133.213,-198.252 L 133.593,-197.792 L 133.912,-197.288 L 134.166,-196.749
 L 134.351,-196.181 L 134.463,-195.595 L 134.5,-195 L 134.5,-183 L 134.463,-182.405 L 134.351,-181.819
 L 134.166,-181.251 L 133.912,-180.712 L 133.593,-180.208 L 133.213,-179.748 L 132.778,-179.34 L 132.295,-178.989
 L 131.772,-178.702 L 131.218,-178.482 L 130.64,-178.334 L 130.048,-178.259 z
M 130.937,-146.339 L 131.545,-146.495 L 132.129,-146.726 L 132.679,-147.028 L 133.187,-147.397 L 133.645,-147.827
 L 134.045,-148.311 L 134.382,-148.841 L 134.649,-149.409 L 134.843,-150.007 L 134.961,-150.623 L 135,-151.25
 L 135,-163.75 L 134.961,-164.377 L 134.843,-164.993 L 134.649,-165.591 L 134.382,-166.159 L 134.045,-166.689
 L 133.645,-167.173 L 133.187,-167.603 L 132.679,-167.972 L 132.129,-168.274 L 131.545,-168.505 L 130.937,-168.661
 L 130.314,-168.74 L -130.314,-168.74 L -130.937,-168.661 L -131.545,-168.505 L -132.129,-168.274 L -132.679,-167.972
 L -133.187,-167.603 L -133.645,-167.173 L -134.045,-166.689 L -134.382,-166.159 L -134.649,-165.591 L -134.843,-164.993
 L -134.961,-164.377 L -135,-163.75 L -135,-151.25 L -134.961,-150.623 L -134.843,-150.007 L -134.649,-149.409
 L -134.382,-148.841 L -134.045,-148.311 L -133.645,-147.827 L -133.187,-147.397 L -132.679,-147.028 L -132.129,-146.726
 L -131.545,-146.495 L -130.937,-146.339 L -130.314,-146.26 L 130.314,-146.26 z
M -130.037,-146.931 L -130.608,-147.003 L -131.165,-147.146 L -131.699,-147.357 L -132.203,-147.634 L -132.668,-147.972
 L -133.088,-148.366 L -133.454,-148.809 L -133.762,-149.294 L -134.007,-149.815 L -134.185,-150.361 L -134.292,-150.926
 L -134.328,-151.5 L -134.328,-163.5 L -134.292,-164.074 L -134.185,-164.639 L -134.007,-165.185 L -133.762,-165.706
 L -133.454,-166.191 L -133.088,-166.634 L -132.668,-167.028 L -132.203,-167.366 L -131.699,-167.643 L -131.165,-167.854
 L -130.608,-167.997 L -130.037,-168.069 L 130.037,-168.069 L 130.608,-167.997 L 131.165,-167.854 L 131.699,-167.643
 L 132.203,-167.366 L 132.668,-167.028 L 133.088,-166.634 L 133.454,-166.191 L 133.762,-165.706 L 134.007,-165.185
 L 134.185,-164.639 L 134.292,-164.074 L 134.328,-163.5 L 134.328,-151.5 L 134.292,-150.926 L 134.185,-150.361
 L 134.007,-149.815 L 133.762,-149.294 L 133.454,-148.809 L 133.088,-148.366 L 132.668,-147.972 L 132.203,-147.634
 L 131.699,-147.357 L 131.165,-147.146 L 130.608,-147.003 L 130.037,-146.931 z
M 130.937,-114.839 L 131.545,-114.995 L 132.129,-115.226 L 132.679,-115.528 L 133.187,-115.897 L 133.645,-116.327
 L 134.045,-116.811 L 134.382,-117.341 L 134.649,-117.909 L 134.843,-118.507 L 134.961,-119.123 L 135,-119.75
 L 135,-132.25 L 134.961,-132.877 L 134.843,-133.493 L 134.649,-134.091 L 134.382,-134.659 L 134.045,-135.189
 L 133.645,-135.673 L 133.187,-136.103 L 132.679,-136.472 L 132.129,-136.774 L 131.545,-137.005 L 130.937,-137.161
 L 130.314,-137.24 L -130.314,-137.24 L -130.937,-137.161 L -131.545,-137.005 L -132.129,-136.774 L -132.679,-136.472
 L -133.187,-136.103 L -133.645,-135.673 L -134.045,-135.189 L -134.382,-134.659 L -134.649,-134.091 L -134.843,-133.493
 L -134.961,-132.877 L -135,-132.25 L -135,-119.75 L -134.961,-119.123 L -134.843,-118.507 L -134.649,-117.909
 L -134.382,-117.341 L -134.045,-116.811 L -133.645,-116.327 L -133.187,-115.897 L -132.679,-115.528 L -132.129,-115.226
 L -131.545,-114.995 L -130.937,-114.839 L -130.314,-114.76 L 130.314,-114.76 z
M -129.882,-117.895 L -130.145,-117.928 L -130.402,-117.994 L -130.648,-118.091 L -130.88,-118.219 L -131.095,-118.375
 L -131.288,-118.556 L -131.457,-118.76 L -131.599,-118.984 L -131.711,-119.223 L -131.793,-119.475 L -131.843,-119.736
 L -131.86,-120 L -131.86,-132 L -131.843,-132.264 L -131.793,-132.525 L -131.711,-132.777 L -131.599,-133.016
 L -131.457,-133.24 L -131.288,-133.444 L -131.095,-133.625 L -130.88,-133.781 L -130.648,-133.909 L -130.402,-134.006
 L -130.145,-134.072 L -129.882,-134.105 L 129.882,-134.105 L 130.145,-134.072 L 130.402,-134.006 L 130.648,-133.909
 L 130.88,-133.781 L 131.095,-133.625 L 131.288,-133.444 L 131.457,-133.24 L 131.599,-133.016 L 131.711,-132.777
 L 131.793,-132.525 L 131.843,-132.264 L 131.86,-132 L 131.86,-120 L 131.843,-119.736 L 131.793,-119.475
 L 131.711,-119.223 L 131.599,-118.984 L 131.457,-118.76 L 131.288,-118.556 L 131.095,-118.375 L 130.88,-118.219
 L 130.648,-118.091 L 130.402,-117.994 L 130.145,-117.928 L 129.882,-117.895 z
" stroke="black" fill="lightgray" stroke-width="0.5"/>
</svg>
