<?xml version="1.0" standalone="no"?>
<!DOCTYPE svg PUBLIC "-//W3C//DTD SVG 1.1//EN" "http://www.w3.org/Graphics/SVG/1.1/DTD/svg11.dtd">
<svg width="34mm" height="143mm" viewBox="-17 -236 34 143" xmlns="http://www.w3.org/2000/svg" version="1.1">
<title>OpenSCAD Model</title>
<path d="
M 0.884521,-205.001 L 0.982666,-205.007 L 1.08076,-205.014 L 1.11827,-205.017 L 1.2247,-205.068 L 1.26839,-205.168
 L 1.27646,-205.278 L 1.29799,-205.386 L 1.33263,-205.493 L 1.37994,-205.596 L 1.47218,-205.706 L 1.58646,-205.792
 L 1.71706,-205.852 L 1.85823,-205.885 L 2.00317,-205.89 L 2.14494,-205.865 L 2.27757,-205.812 L 2.39519,-205.729
 L 2.46739,-205.642 L 2.52832,-205.548 L 2.57729,-205.449 L 2.61356,-205.345 L 2.68147,-205.26 L 2.79773,-205.238
 L 2.83469,-205.245 L 2.9312,-205.264 L 3.02759,-205.283 L 3.06439,-205.291 L 3.16319,-205.356 L 3.19348,-205.461
 L 3.18712,-205.571 L 3.19434,-205.681 L 3.21481,-205.791 L 3.24828,-205.899 L 3.32536,-206.02 L 3.42743,-206.12
 L 3.54903,-206.197 L 3.68468,-206.249 L 3.82779,-206.272 L 3.97153,-206.266 L 4.11002,-206.231 L 4.2374,-206.164
 L 4.32037,-206.087 L 4.39299,-206.002 L 4.45447,-205.91 L 4.50403,-205.812 L 4.58247,-205.736 L 4.70062,-205.729
 L 4.73636,-205.741 L 4.82957,-205.773 L 4.92259,-205.804 L 4.95808,-205.817 L 5.04756,-205.894 L 5.06392,-206.002
 L 5.04326,-206.11 L 5.03603,-206.22 L 5.04201,-206.332 L 5.06104,-206.444 L 5.12163,-206.574 L 5.20975,-206.687
 L 5.32028,-206.779 L 5.44807,-206.847 L 5.5869,-206.889 L 5.73016,-206.902 L 5.87213,-206.885 L 6.0071,-206.836
 L 6.09944,-206.77 L 6.18251,-206.695 L 6.25545,-206.612 L 6.31743,-206.521 L 6.40506,-206.456 L 6.5231,-206.465
 L 6.55699,-206.481 L 6.64532,-206.525 L 6.73338,-206.568 L 6.76695,-206.585 L 6.84557,-206.674 L 6.84772,-206.783
 L 6.81311,-206.887 L 6.79153,-206.996 L 6.78291,-207.107 L 6.7872,-207.22 L 6.83028,-207.357 L 6.90292,-207.48
 L 7.0005,-207.586 L 7.11826,-207.671 L 7.25043,-207.73 L 7.39076,-207.762 L 7.53378,-207.763 L 7.67401,-207.732
 L 7.77414,-207.679 L 7.86623,-207.616 L 7.94939,-207.543 L 8.02272,-207.461 L 8.11806,-207.408 L 8.23395,-207.432
 L 8.26543,-207.453 L 8.34737,-207.507 L 8.42896,-207.562 L 8.46002,-207.583 L 8.52644,-207.681 L 8.51434,-207.79
 L 8.46638,-207.889 L 8.43085,-207.993 L 8.40778,-208.103 L 8.39723,-208.215 L 8.42204,-208.357 L 8.478,-208.489
 L 8.56094,-208.606 L 8.66664,-208.705 L 8.7899,-208.782 L 8.9249,-208.832 L 9.06651,-208.851 L 9.20963,-208.839
 L 9.31583,-208.799 L 9.41536,-208.749 L 9.50731,-208.687 L 9.59076,-208.615 L 9.69215,-208.576 L 9.80392,-208.615
 L 9.83243,-208.639 L 9.90659,-208.704 L 9.9803,-208.769 L 10.0083,-208.794 L 10.0614,-208.899 L 10.0353,-209.005
 L 9.97481,-209.097 L 9.9259,-209.197 L 9.88878,-209.302 L 9.86359,-209.412 L 9.86972,-209.556 L 9.908,-209.694
 L 9.9749,-209.821 L 10.0667,-209.933 L 10.179,-210.025 L 10.3063,-210.092 L 10.4441,-210.13 L 10.5877,-210.136
 L 10.6981,-210.111 L 10.8034,-210.074 L 10.9026,-210.025 L 10.9947,-209.965 L 11.1004,-209.938 L 11.2061,-209.992
 L 11.2312,-210.02 L 11.2963,-210.093 L 11.3609,-210.168 L 11.3854,-210.196 L 11.4243,-210.308 L 11.3845,-210.409
 L 11.3125,-210.493 L 11.2511,-210.585 L 11.2006,-210.684 L 11.1612,-210.79 L 11.1485,-210.933 L 11.1685,-211.075
 L 11.2182,-211.21 L 11.2946,-211.333 L 11.3939,-211.439 L 11.5114,-211.522 L 11.643,-211.578 L 11.7845,-211.603
 L 11.8973,-211.592 L 12.0066,-211.569 L 12.1113,-211.534 L 12.2105,-211.486 L 12.3187,-211.473 L 12.4166,-211.54
 L 12.4378,-211.571 L 12.4927,-211.653 L 12.5471,-211.735 L 12.5677,-211.766 L 12.5916,-211.882 L 12.539,-211.977
 L 12.4567,-212.051 L 12.3839,-212.134 L 12.3207,-212.226 L 12.2678,-212.326 L 12.2366,-212.466 L 12.2379,-212.609
 L 12.2695,-212.75 L 12.3292,-212.882 L 12.4138,-212.999 L 12.5195,-213.097 L 12.6427,-213.17 L 12.7798,-213.213
 L 12.893,-213.217 L 13.0043,-213.208 L 13.1127,-213.187 L 13.2174,-213.152 L 13.3263,-213.154 L 13.4146,-213.233
 L 13.4316,-213.267 L 13.4754,-213.355 L 13.5186,-213.443 L 13.5349,-213.477 L 13.5435,-213.595 L 13.4789,-213.683
 L 13.3878,-213.745 L 13.3047,-213.817 L 13.2301,-213.9 L 13.1645,-213.993 L 13.1152,-214.128 L 13.0979,-214.27
 L 13.1109,-214.413 L 13.1528,-214.552 L 13.2214,-214.68 L 13.3134,-214.79 L 13.4261,-214.878 L 13.5564,-214.939
 L 13.6681,-214.958 L 13.7796,-214.964 L 13.8899,-214.957 L 13.9981,-214.936 L 14.1058,-214.952 L 14.1832,-215.042
 L 14.1956,-215.077 L 14.2275,-215.17 L 14.2588,-215.264 L 14.2705,-215.299 L 14.2637,-215.417 L 14.1882,-215.496
 L 14.0897,-215.545 L 13.9978,-215.607 L 13.9131,-215.679 L 13.836,-215.763 L 13.7695,-215.89 L 13.7337,-216.028
 L 13.728,-216.172 L 13.7514,-216.315 L 13.8027,-216.451 L 13.8795,-216.573 L 13.9797,-216.675 L 14.101,-216.752
 L 14.2093,-216.785 L 14.319,-216.806 L 14.4293,-216.813 L 14.5393,-216.807 L 14.644,-216.837 L 14.709,-216.936
 L 14.7167,-216.972 L 14.7362,-217.069 L 14.755,-217.165 L 14.762,-217.202 L 14.7398,-217.318 L 14.6547,-217.386
 L 14.5506,-217.423 L 14.4515,-217.472 L 14.358,-217.532 L 14.2707,-217.605 L 14.1882,-217.722 L 14.1346,-217.855
 L 14.1102,-217.997 L 14.1147,-218.142 L 14.1479,-218.283 L 14.2082,-218.414 L 14.2942,-218.528 L 14.4043,-218.62
 L 14.5074,-218.667 L 14.6135,-218.702 L 14.7219,-218.723 L 14.8318,-218.732 L 14.9316,-218.775 L 14.9831,-218.882
 L 14.9859,-218.919 L 14.9927,-219.017 L 14.9988,-219.115 L 15.0009,-219.153 L 14.9638,-219.265 L 14.8705,-219.322
 L 14.7626,-219.344 L 14.6579,-219.379 L 14.5572,-219.428 L 14.4612,-219.488 L 14.3641,-219.594 L 14.2937,-219.718
 L 14.2509,-219.856 L 14.2365,-220 L 14.2509,-220.144 L 14.2937,-220.282 L 14.3641,-220.406 L 14.4612,-220.512
 L 14.5572,-220.572 L 14.6579,-220.62 L 14.7626,-220.656 L 14.8705,-220.678 L 14.9638,-220.735 L 15.0009,-220.847
 L 14.9988,-220.885 L 14.9927,-220.983 L 14.9859,-221.081 L 14.9831,-221.118 L 14.9316,-221.225 L 14.8318,-221.268
 L 14.7219,-221.276 L 14.6135,-221.298 L 14.5074,-221.333 L 14.4043,-221.38 L 14.2942,-221.472 L 14.2082,-221.586
 L 14.1479,-221.717 L 14.1147,-221.858 L 14.1102,-222.003 L 14.1346,-222.145 L 14.1882,-222.278 L 14.2707,-222.395
 L 14.358,-222.467 L 14.4515,-222.528 L 14.5506,-222.577 L 14.6547,-222.614 L 14.7399,-222.681 L 14.762,-222.798
 L 14.755,-222.835 L 14.7362,-222.931 L 14.7167,-223.028 L 14.709,-223.064 L 14.644,-223.163 L 14.5393,-223.193
 L 14.4293,-223.187 L 14.3191,-223.194 L 14.2093,-223.215 L 14.101,-223.248 L 13.9797,-223.325 L 13.8795,-223.427
 L 13.8027,-223.549 L 13.7514,-223.685 L 13.728,-223.828 L 13.7337,-223.972 L 13.7695,-224.11 L 13.836,-224.237
 L 13.9131,-224.32 L 13.9979,-224.393 L 14.0898,-224.454 L 14.1882,-224.504 L 14.2637,-224.582 L 14.2705,-224.701
 L 14.2588,-224.736 L 14.2275,-224.83 L 14.1956,-224.923 L 14.1832,-224.958 L 14.1059,-225.048 L 13.9981,-225.064
 L 13.8899,-225.043 L 13.7796,-225.036 L 13.6682,-225.042 L 13.5564,-225.061 L 13.4261,-225.122 L 13.3134,-225.21
 L 13.2214,-225.32 L 13.1528,-225.448 L 13.1109,-225.587 L 13.0979,-225.73 L 13.1152,-225.872 L 13.1645,-226.007
 L 13.2301,-226.099 L 13.3047,-226.183 L 13.3878,-226.255 L 13.4789,-226.317 L 13.5436,-226.405 L 13.5349,-226.523
 L 13.5186,-226.557 L 13.4754,-226.645 L 13.4316,-226.733 L 13.4146,-226.767 L 13.3264,-226.846 L 13.2174,-226.848
 L 13.1128,-226.813 L 13.0044,-226.792 L 12.8931,-226.783 L 12.7798,-226.787 L 12.6427,-226.83 L 12.5195,-226.903
 L 12.4138,-227.001 L 12.3292,-227.118 L 12.2695,-227.25 L 12.2379,-227.391 L 12.2366,-227.534 L 12.2678,-227.674
 L 12.3208,-227.774 L 12.3839,-227.866 L 12.4567,-227.949 L 12.539,-228.023 L 12.5917,-228.118 L 12.5677,-228.234
 L 12.5471,-228.265 L 12.4927,-228.347 L 12.4378,-228.429 L 12.4166,-228.46 L 12.3188,-228.526 L 12.2105,-228.514
 L 12.1113,-228.466 L 12.0067,-228.431 L 11.8974,-228.408 L 11.7845,-228.397 L 11.643,-228.422 L 11.5114,-228.478
 L 11.3939,-228.561 L 11.2946,-228.667 L 11.2182,-228.79 L 11.1685,-228.925 L 11.1485,-229.067 L 11.1612,-229.21
 L 11.2007,-229.316 L 11.2512,-229.415 L 11.3126,-229.507 L 11.3845,-229.591 L 11.4243,-229.692 L 11.3854,-229.804
 L 11.3609,-229.832 L 11.2963,-229.907 L 11.2312,-229.98 L 11.2061,-230.008 L 11.1005,-230.061 L 10.9947,-230.035
 L 10.9026,-229.975 L 10.8035,-229.926 L 10.6982,-229.889 L 10.5877,-229.864 L 10.4441,-229.87 L 10.3063,-229.908
 L 10.179,-229.975 L 10.0667,-230.067 L 9.9749,-230.179 L 9.908,-230.306 L 9.86972,-230.444 L 9.86359,-230.588
 L 9.8889,-230.698 L 9.92603,-230.803 L 9.97484,-230.903 L 10.0353,-230.995 L 10.0615,-231.1 L 10.0083,-231.206
 L 9.9803,-231.231 L 9.90659,-231.296 L 9.83243,-231.361 L 9.80392,-231.385 L 9.69226,-231.424 L 9.59076,-231.385
 L 9.50735,-231.313 L 9.41548,-231.251 L 9.31596,-231.201 L 9.20963,-231.161 L 9.06651,-231.149 L 8.9249,-231.168
 L 8.7899,-231.218 L 8.66664,-231.295 L 8.56094,-231.394 L 8.478,-231.511 L 8.42204,-231.643 L 8.39723,-231.785
 L 8.40791,-231.897 L 8.43097,-232.007 L 8.46643,-232.111 L 8.51434,-232.21 L 8.52655,-232.319 L 8.46002,-232.417
 L 8.42896,-232.438 L 8.34737,-232.493 L 8.26543,-232.547 L 8.23395,-232.568 L 8.11818,-232.592 L 8.02272,-232.539
 L 7.94943,-232.457 L 7.86636,-232.384 L 7.77429,-232.321 L 7.67401,-232.268 L 7.53378,-232.237 L 7.39076,-232.238
 L 7.25043,-232.27 L 7.11826,-232.329 L 7.0005,-232.414 L 6.90292,-232.52 L 6.83028,-232.643 L 6.7872,-232.78
 L 6.78307,-232.893 L 6.79167,-233.004 L 6.81316,-233.113 L 6.84772,-233.217 L 6.84569,-233.326 L 6.76695,-233.415
 L 6.73338,-233.432 L 6.64532,-233.475 L 6.55699,-233.519 L 6.5231,-233.535 L 6.4052,-233.544 L 6.31743,-233.479
 L 6.25549,-233.388 L 6.18265,-233.305 L 6.09959,-233.23 L 6.0071,-233.164 L 5.87213,-233.115 L 5.73016,-233.098
 L 5.5869,-233.111 L 5.44807,-233.153 L 5.32028,-233.221 L 5.20975,-233.313 L 5.12163,-233.426 L 5.06104,-233.556
 L 5.04216,-233.668 L 5.03616,-233.78 L 5.04332,-233.89 L 5.06392,-233.998 L 5.0477,-234.106 L 4.95808,-234.183
 L 4.92259,-234.196 L 4.82957,-234.227 L 4.73636,-234.259 L 4.70062,-234.271 L 4.58261,-234.264 L 4.50403,-234.188
 L 4.45453,-234.09 L 4.39314,-233.998 L 4.32054,-233.913 L 4.2374,-233.836 L 4.11002,-233.769 L 3.97153,-233.734
 L 3.82779,-233.728 L 3.68468,-233.751 L 3.54903,-233.803 L 3.42743,-233.88 L 3.32536,-233.98 L 3.24828,-234.101
 L 3.21498,-234.209 L 3.19449,-234.319 L 3.18718,-234.429 L 3.19348,-234.539 L 3.16333,-234.644 L 3.06439,-234.709
 L 3.02759,-234.717 L 2.9312,-234.736 L 2.83469,-234.755 L 2.79773,-234.762 L 2.68161,-234.74 L 2.61356,-234.655
 L 2.57733,-234.551 L 2.52847,-234.452 L 2.46756,-234.358 L 2.39519,-234.271 L 2.27757,-234.188 L 2.14494,-234.135
 L 2.00317,-234.11 L 1.85823,-234.115 L 1.71706,-234.148 L 1.58646,-234.208 L 1.47218,-234.294 L 1.37994,-234.404
 L 1.33279,-234.507 L 1.29814,-234.613 L 1.2765,-234.722 L 1.26839,-234.832 L 1.22484,-234.932 L 1.11827,-234.983
 L 1.08076,-234.986 L 0.982666,-234.993 L 0.884521,-234.999 L 0.84697,-235.001 L 0.734741,-234.964 L 0.678375,-234.87
 L 0.656052,-234.763 L 0.620544,-234.658 L 0.572357,-234.557 L 0.511993,-234.461 L 0.406158,-234.364 L 0.281647,-234.294
 L 0.144287,-234.251 L 0,-234.237 L -0.144287,-234.251 L -0.281647,-234.294 L -0.406158,-234.364 L -0.511993,-234.461
 L -0.572189,-234.557 L -0.620392,-234.658 L -0.655991,-234.763 L -0.678375,-234.87 L -0.734589,-234.964 L -0.84697,-235.001
 L -0.884521,-234.999 L -0.982666,-234.993 L -1.08076,-234.986 L -1.11827,-234.983 L -1.2247,-234.932 L -1.26839,-234.832
 L -1.27646,-234.722 L -1.29799,-234.614 L -1.33263,-234.507 L -1.37994,-234.404 L -1.47218,-234.294 L -1.58646,-234.208
 L -1.71706,-234.148 L -1.85823,-234.115 L -2.00317,-234.11 L -2.14494,-234.135 L -2.27757,-234.188 L -2.39519,-234.271
 L -2.46739,-234.358 L -2.52832,-234.452 L -2.57729,-234.551 L -2.61356,-234.655 L -2.68147,-234.74 L -2.79773,-234.762
 L -2.83469,-234.755 L -2.9312,-234.736 L -3.02759,-234.717 L -3.06439,-234.709 L -3.16319,-234.644 L -3.19348,-234.539
 L -3.18712,-234.429 L -3.19434,-234.319 L -3.21481,-234.209 L -3.24828,-234.101 L -3.32536,-233.98 L -3.42743,-233.88
 L -3.54903,-233.803 L -3.68468,-233.751 L -3.82779,-233.728 L -3.97153,-233.734 L -4.11002,-233.769 L -4.2374,-233.836
 L -4.32037,-233.913 L -4.39299,-233.998 L -4.45447,-234.09 L -4.50403,-234.188 L -4.58247,-234.264 L -4.70062,-234.271
 L -4.73636,-234.259 L -4.82957,-234.227 L -4.92259,-234.196 L -4.95808,-234.183 L -5.04756,-234.106 L -5.06392,-233.998
 L -5.04326,-233.89 L -5.03603,-233.78 L -5.04201,-233.668 L -5.06104,-233.556 L -5.12163,-233.426 L -5.20975,-233.313
 L -5.32028,-233.221 L -5.44807,-233.153 L -5.5869,-233.111 L -5.73016,-233.098 L -5.87213,-233.115 L -6.0071,-233.164
 L -6.09944,-233.23 L -6.18251,-233.305 L -6.25545,-233.388 L -6.31743,-233.479 L -6.40506,-233.544 L -6.5231,-233.535
 L -6.55699,-233.519 L -6.64532,-233.475 L -6.73338,-233.432 L -6.76695,-233.415 L -6.84557,-233.326 L -6.84772,-233.217
 L -6.81311,-233.113 L -6.79153,-233.004 L -6.78291,-232.893 L -6.7872,-232.78 L -6.83028,-232.643 L -6.90292,-232.52
 L -7.0005,-232.414 L -7.11826,-232.329 L -7.25043,-232.27 L -7.39076,-232.238 L -7.53378,-232.237 L -7.67401,-232.268
 L -7.77414,-232.321 L -7.86623,-232.384 L -7.94939,-232.457 L -8.02272,-232.539 L -8.11806,-232.592 L -8.23395,-232.568
 L -8.26543,-232.547 L -8.34737,-232.493 L -8.42896,-232.438 L -8.46002,-232.417 L -8.52644,-232.319 L -8.51434,-232.21
 L -8.46638,-232.111 L -8.43085,-232.007 L -8.40778,-231.897 L -8.39723,-231.785 L -8.42204,-231.643 L -8.478,-231.511
 L -8.56094,-231.394 L -8.66664,-231.295 L -8.7899,-231.218 L -8.9249,-231.168 L -9.06651,-231.149 L -9.20963,-231.161
 L -9.31583,-231.201 L -9.41536,-231.251 L -9.50731,-231.313 L -9.59076,-231.385 L -9.69215,-231.424 L -9.80392,-231.385
 L -9.83243,-231.361 L -9.90659,-231.296 L -9.9803,-231.231 L -10.0083,-231.206 L -10.0614,-231.101 L -10.0353,-230.995
 L -9.97481,-230.903 L -9.9259,-230.803 L -9.88878,-230.698 L -9.86359,-230.588 L -9.86972,-230.444 L -9.908,-230.306
 L -9.9749,-230.179 L -10.0667,-230.067 L -10.179,-229.975 L -10.3063,-229.908 L -10.4441,-229.87 L -10.5877,-229.864
 L -10.6981,-229.889 L -10.8034,-229.926 L -10.9026,-229.975 L -10.9947,-230.035 L -11.1004,-230.062 L -11.2061,-230.008
 L -11.2312,-229.98 L -11.2963,-229.907 L -11.3609,-229.832 L -11.3854,-229.804 L -11.4243,-229.692 L -11.3845,-229.591
 L -11.3125,-229.507 L -11.2511,-229.415 L -11.2006,-229.316 L -11.1612,-229.21 L -11.1485,-229.067 L -11.1685,-228.925
 L -11.2182,-228.79 L -11.2946,-228.667 L -11.3939,-228.561 L -11.5114,-228.478 L -11.643,-228.422 L -11.7845,-228.397
 L -11.8973,-228.408 L -12.0066,-228.431 L -12.1113,-228.466 L -12.2105,-228.514 L -12.3187,-228.527 L -12.4166,-228.46
 L -12.4378,-228.429 L -12.4927,-228.347 L -12.5471,-228.265 L -12.5677,-228.234 L -12.5916,-228.118 L -12.539,-228.023
 L -12.4567,-227.949 L -12.3839,-227.866 L -12.3207,-227.774 L -12.2678,-227.674 L -12.2366,-227.534 L -12.2379,-227.391
 L -12.2695,-227.25 L -12.3292,-227.118 L -12.4138,-227.001 L -12.5195,-226.903 L -12.6427,-226.83 L -12.7798,-226.787
 L -12.893,-226.783 L -13.0043,-226.792 L -13.1127,-226.813 L -13.2174,-226.848 L -13.3263,-226.846 L -13.4146,-226.767
 L -13.4316,-226.733 L -13.4754,-226.645 L -13.5186,-226.557 L -13.5349,-226.523 L -13.5435,-226.405 L -13.4789,-226.317
 L -13.3878,-226.255 L -13.3047,-226.183 L -13.2301,-226.1 L -13.1645,-226.007 L -13.1152,-225.872 L -13.0979,-225.73
 L -13.1109,-225.587 L -13.1528,-225.448 L -13.2214,-225.32 L -13.3134,-225.21 L -13.4261,-225.122 L -13.5564,-225.061
 L -13.6681,-225.042 L -13.7796,-225.036 L -13.8899,-225.043 L -13.9981,-225.064 L -14.1058,-225.048 L -14.1832,-224.958
 L -14.1956,-224.923 L -14.2275,-224.83 L -14.2588,-224.736 L -14.2705,-224.701 L -14.2637,-224.583 L -14.1882,-224.504
 L -14.0897,-224.455 L -13.9978,-224.393 L -13.9131,-224.321 L -13.836,-224.237 L -13.7695,-224.11 L -13.7337,-223.972
 L -13.728,-223.828 L -13.7514,-223.685 L -13.8027,-223.549 L -13.8795,-223.427 L -13.9797,-223.325 L -14.101,-223.248
 L -14.2093,-223.215 L -14.319,-223.194 L -14.4293,-223.187 L -14.5393,-223.193 L -14.644,-223.163 L -14.709,-223.064
 L -14.7167,-223.028 L -14.7362,-222.931 L -14.755,-222.835 L -14.762,-222.798 L -14.7398,-222.682 L -14.6547,-222.614
 L -14.5506,-222.577 L -14.4515,-222.528 L -14.358,-222.468 L -14.2707,-222.395 L -14.1882,-222.278 L -14.1346,-222.145
 L -14.1102,-222.003 L -14.1147,-221.858 L -14.1479,-221.717 L -14.2082,-221.586 L -14.2942,-221.472 L -14.4043,-221.38
 L -14.5074,-221.333 L -14.6135,-221.298 L -14.7219,-221.277 L -14.8318,-221.268 L -14.9316,-221.225 L -14.9831,-221.118
 L -14.9859,-221.081 L -14.9927,-220.983 L -14.9988,-220.885 L -15.0009,-220.847 L -14.9638,-220.735 L -14.8705,-220.678
 L -14.7626,-220.656 L -14.6579,-220.621 L -14.5572,-220.572 L -14.4612,-220.512 L -14.3641,-220.406 L -14.2937,-220.282
 L -14.2509,-220.144 L -14.2365,-220 L -14.2509,-219.856 L -14.2937,-219.718 L -14.3641,-219.594 L -14.4612,-219.488
 L -14.5572,-219.428 L -14.6579,-219.38 L -14.7626,-219.344 L -14.8705,-219.322 L -14.9638,-219.265 L -15.0009,-219.153
 L -14.9988,-219.115 L -14.9927,-219.017 L -14.9859,-218.919 L -14.9831,-218.882 L -14.9316,-218.775 L -14.8318,-218.732
 L -14.7219,-218.724 L -14.6135,-218.702 L -14.5074,-218.667 L -14.4043,-218.62 L -14.2942,-218.528 L -14.2082,-218.414
 L -14.1479,-218.283 L -14.1147,-218.142 L -14.1102,-217.997 L -14.1346,-217.855 L -14.1882,-217.722 L -14.2707,-217.605
 L -14.358,-217.533 L -14.4515,-217.472 L -14.5506,-217.423 L -14.6547,-217.386 L -14.7399,-217.319 L -14.762,-217.202
 L -14.755,-217.165 L -14.7362,-217.069 L -14.7167,-216.972 L -14.709,-216.936 L -14.644,-216.837 L -14.5393,-216.807
 L -14.4293,-216.813 L -14.3191,-216.806 L -14.2093,-216.785 L -14.101,-216.752 L -13.9797,-216.675 L -13.8795,-216.573
 L -13.8027,-216.451 L -13.7514,-216.315 L -13.728,-216.172 L -13.7337,-216.028 L -13.7695,-215.89 L -13.836,-215.763
 L -13.9131,-215.68 L -13.9979,-215.607 L -14.0898,-215.546 L -14.1882,-215.496 L -14.2637,-215.418 L -14.2705,-215.299
 L -14.2588,-215.264 L -14.2275,-215.17 L -14.1956,-215.077 L -14.1832,-215.042 L -14.1059,-214.952 L -13.9981,-214.936
 L -13.8899,-214.957 L -13.7796,-214.964 L -13.6682,-214.958 L -13.5564,-214.939 L -13.4261,-214.878 L -13.3134,-214.79
 L -13.2214,-214.68 L -13.1528,-214.552 L -13.1109,-214.413 L -13.0979,-214.27 L -13.1152,-214.128 L -13.1645,-213.993
 L -13.2301,-213.901 L -13.3047,-213.817 L -13.3878,-213.745 L -13.4789,-213.683 L -13.5436,-213.595 L -13.5349,-213.477
 L -13.5186,-213.443 L -13.4754,-213.355 L -13.4316,-213.267 L -13.4146,-213.233 L -13.3264,-213.154 L -13.2174,-213.152
 L -13.1128,-213.187 L -13.0044,-213.208 L -12.8931,-213.217 L -12.7798,-213.213 L -12.6427,-213.17 L -12.5195,-213.097
 L -12.4138,-212.999 L -12.3292,-212.882 L -12.2695,-212.75 L -12.2379,-212.609 L -12.2366,-212.466 L -12.2678,-212.326
 L -12.3208,-212.226 L -12.3839,-212.134 L -12.4567,-212.051 L -12.539,-211.977 L -12.5917,-211.882 L -12.5677,-211.766
 L -12.5471,-211.735 L -12.4927,-211.653 L -12.4378,-211.571 L -12.4166,-211.54 L -12.3188,-211.474 L -12.2105,-211.486
 L -12.1113,-211.534 L -12.0067,-211.569 L -11.8974,-211.592 L -11.7845,-211.603 L -11.643,-211.578 L -11.5114,-211.522
 L -11.3939,-211.439 L -11.2946,-211.333 L -11.2182,-211.21 L -11.1685,-211.075 L -11.1485,-210.933 L -11.1612,-210.79
 L -11.2007,-210.684 L -11.2512,-210.585 L -11.3126,-210.493 L -11.3845,-210.409 L -11.4243,-210.308 L -11.3854,-210.196
 L -11.3609,-210.168 L -11.2963,-210.093 L -11.2312,-210.02 L -11.2061,-209.992 L -11.1005,-209.939 L -10.9947,-209.965
 L -10.9026,-210.025 L -10.8035,-210.074 L -10.6982,-210.111 L -10.5877,-210.136 L -10.4441,-210.13 L -10.3063,-210.092
 L -10.179,-210.025 L -10.0667,-209.933 L -9.9749,-209.821 L -9.908,-209.694 L -9.86972,-209.556 L -9.86359,-209.412
 L -9.8889,-209.302 L -9.92603,-209.197 L -9.97484,-209.097 L -10.0353,-209.005 L -10.0615,-208.9 L -10.0083,-208.794
 L -9.9803,-208.769 L -9.90659,-208.704 L -9.83243,-208.639 L -9.80392,-208.615 L -9.69226,-208.576 L -9.59076,-208.615
 L -9.50735,-208.687 L -9.41548,-208.749 L -9.31596,-208.799 L -9.20963,-208.839 L -9.06651,-208.851 L -8.9249,-208.832
 L -8.7899,-208.782 L -8.66664,-208.705 L -8.56094,-208.606 L -8.478,-208.489 L -8.42204,-208.357 L -8.39723,-208.215
 L -8.40791,-208.103 L -8.43097,-207.993 L -8.46643,-207.889 L -8.51434,-207.79 L -8.52655,-207.681 L -8.46002,-207.583
 L -8.42896,-207.562 L -8.34737,-207.507 L -8.26543,-207.453 L -8.23395,-207.432 L -8.11818,-207.408 L -8.02272,-207.461
 L -7.94943,-207.543 L -7.86636,-207.616 L -7.77429,-207.679 L -7.67401,-207.732 L -7.53378,-207.763 L -7.39076,-207.762
 L -7.25043,-207.73 L -7.11826,-207.671 L -7.0005,-207.586 L -6.90292,-207.48 L -6.83028,-207.357 L -6.7872,-207.22
 L -6.78307,-207.107 L -6.79167,-206.996 L -6.81316,-206.887 L -6.84772,-206.783 L -6.84569,-206.674 L -6.76695,-206.585
 L -6.73338,-206.568 L -6.64532,-206.525 L -6.55699,-206.481 L -6.5231,-206.465 L -6.4052,-206.456 L -6.31743,-206.521
 L -6.25549,-206.612 L -6.18265,-206.695 L -6.09959,-206.77 L -6.0071,-206.836 L -5.87213,-206.885 L -5.73016,-206.902
 L -5.5869,-206.889 L -5.44807,-206.847 L -5.32028,-206.779 L -5.20975,-206.687 L -5.12163,-206.574 L -5.06104,-206.444
 L -5.04216,-206.332 L -5.03616,-206.22 L -5.04332,-206.11 L -5.06392,-206.002 L -5.0477,-205.894 L -4.95808,-205.817
 L -4.92259,-205.804 L -4.82957,-205.773 L -4.73636,-205.741 L -4.70062,-205.729 L -4.58261,-205.736 L -4.50403,-205.812
 L -4.45453,-205.91 L -4.39314,-206.002 L -4.32054,-206.087 L -4.2374,-206.164 L -4.11002,-206.231 L -3.97153,-206.266
 L -3.82779,-206.272 L -3.68468,-206.249 L -3.54903,-206.197 L -3.42743,-206.12 L -3.32536,-206.02 L -3.24828,-205.899
 L -3.21498,-205.791 L -3.19449,-205.681 L -3.18718,-205.571 L -3.19348,-205.461 L -3.16333,-205.356 L -3.06439,-205.291
 L -3.02759,-205.283 L -2.9312,-205.264 L -2.83469,-205.245 L -2.79773,-205.238 L -2.68161,-205.26 L -2.61356,-205.345
 L -2.57733,-205.449 L -2.52847,-205.548 L -2.46756,-205.642 L -2.39519,-205.729 L -2.27757,-205.812 L -2.14494,-205.865
 L -2.00317,-205.89 L -1.85823,-205.885 L -1.71706,-205.852 L -1.58646,-205.792 L -1.47218,-205.706 L -1.37994,-205.596
 L -1.33279,-205.493 L -1.29814,-205.387 L -1.2765,-205.278 L -1.26839,-205.168 L -1.22484,-205.068 L -1.11827,-205.017
 L -1.08076,-205.014 L -0.982666,-205.007 L -0.884521,-205.001 L -0.84697,-204.999 L -0.734741,-205.036 L -0.678375,-205.13
 L -0.656052,-205.237 L -0.620544,-205.342 L -0.572357,-205.443 L -0.511993,-205.539 L -0.406158,-205.636 L -0.281647,-205.706
 L -0.144287,-205.749 L 0,-205.763 L 0.144287,-205.749 L 0.281647,-205.706 L 0.406158,-205.636 L 0.511993,-205.539
 L 0.572189,-205.443 L 0.620392,-205.342 L 0.655991,-205.237 L 0.678375,-205.13 L 0.734589,-205.036 L 0.84697,-204.999
 z
M -5.37134,-224.227 L -5.4939,-224.255 L -5.61206,-224.297 L -5.72395,-224.354 L -5.8278,-224.425 L -5.92201,-224.508
 L -6.00507,-224.602 L -6.07565,-224.706 L -6.13266,-224.818 L -6.1752,-224.936 L -6.20259,-225.058 L -6.21442,-225.183
 L -6.21046,-225.309 L -6.19083,-225.433 L -6.15579,-225.554 L -6.10591,-225.669 L -6.04199,-225.777 L -5.96501,-225.876
 L -5.87622,-225.965 L -5.77699,-226.042 L -5.6689,-226.106 L -5.55365,-226.156 L -5.43304,-226.191 L -5.30901,-226.21
 L -5.18349,-226.214 L -5.05847,-226.203 L -4.93591,-226.175 L -4.81776,-226.133 L -4.70586,-226.076 L -4.60201,-226.005
 L -4.5078,-225.922 L -4.42474,-225.828 L -4.35416,-225.724 L -4.29715,-225.612 L -4.25461,-225.494 L -4.22722,-225.371
 L -4.21539,-225.246 L -4.21935,-225.121 L -4.23898,-224.997 L -4.27403,-224.876 L -4.3239,-224.761 L -4.38783,-224.653
 L -4.4648,-224.554 L -4.55359,-224.465 L -4.65282,-224.388 L -4.76091,-224.324 L -4.87616,-224.274 L -4.99677,-224.239
 L -5.1208,-224.219 L -5.24632,-224.215 z
M -0.469299,-217.037 L -0.83696,-217.119 L -1.19144,-217.247 L -1.52711,-217.418 L -1.83871,-217.63 L -2.12131,-217.879
 L -2.37045,-218.161 L -2.58221,-218.473 L -2.75325,-218.809 L -2.88087,-219.163 L -2.96306,-219.531 L -2.9985,-219.906
 L -2.98668,-220.282 L -2.92773,-220.654 L -2.82263,-221.016 L -2.673,-221.362 L -2.48123,-221.686 L -2.25032,-221.984
 L -1.98393,-222.25 L -1.68625,-222.481 L -1.36197,-222.673 L -1.0162,-222.823 L -0.654419,-222.928 L -0.282318,-222.987
 L 0.094223,-222.999 L 0.469299,-222.963 L 0.83696,-222.881 L 1.19144,-222.753 L 1.52711,-222.582 L 1.83871,-222.37
 L 2.12131,-222.121 L 2.37045,-221.839 L 2.58221,-221.527 L 2.75325,-221.191 L 2.88087,-220.837 L 2.96306,-220.469
 L 2.9985,-220.094 L 2.98668,-219.718 L 2.92773,-219.346 L 2.82263,-218.984 L 2.673,-218.638 L 2.48123,-218.314
 L 2.25032,-218.016 L 1.98393,-217.75 L 1.68625,-217.519 L 1.36197,-217.327 L 1.0162,-217.177 L 0.654419,-217.072
 L 0.282318,-217.013 L -0.094223,-217.001 z
M 5.05847,-213.797 L 4.93591,-213.825 L 4.81776,-213.867 L 4.70586,-213.924 L 4.60201,-213.995 L 4.5078,-214.078
 L 4.42474,-214.172 L 4.35416,-214.276 L 4.29715,-214.388 L 4.25461,-214.506 L 4.22722,-214.629 L 4.21539,-214.754
 L 4.21935,-214.879 L 4.23898,-215.003 L 4.27403,-215.124 L 4.3239,-215.239 L 4.38783,-215.347 L 4.4648,-215.446
 L 4.55359,-215.535 L 4.65282,-215.612 L 4.76091,-215.676 L 4.87616,-215.726 L 4.99677,-215.761 L 5.1208,-215.781
 L 5.24632,-215.785 L 5.37134,-215.773 L 5.4939,-215.745 L 5.61206,-215.703 L 5.72395,-215.646 L 5.8278,-215.575
 L 5.92201,-215.492 L 6.00507,-215.398 L 6.07565,-215.294 L 6.13266,-215.182 L 6.1752,-215.064 L 6.20259,-214.942
 L 6.21442,-214.817 L 6.21046,-214.691 L 6.19083,-214.567 L 6.15579,-214.446 L 6.10591,-214.331 L 6.04199,-214.223
 L 5.96501,-214.124 L 5.87622,-214.035 L 5.77699,-213.958 L 5.6689,-213.894 L 5.55365,-213.844 L 5.43304,-213.809
 L 5.30901,-213.79 L 5.18349,-213.786 z
M 3.0518,-94.0019 L 5.03284,-94.5105 L 6.93449,-95.2634 L 8.72681,-96.2487 L 10.3815,-97.4509 L 11.8724,-98.851
 L 13.1761,-100.427 L 14.2721,-102.154 L 15.1429,-104.005 L 15.7749,-105.95 L 16.1582,-107.959 L 16.2866,-110
 L 16.1582,-112.041 L 15.7749,-114.05 L 15.1429,-115.995 L 14.2721,-117.846 L 13.1761,-119.573 L 11.8724,-121.149
 L 10.3815,-122.549 L 8.72681,-123.751 L 6.93449,-124.737 L 5.03284,-125.489 L 3.0518,-125.998 L 1.02264,-126.254
 L -1.02264,-126.254 L -3.0518,-125.998 L -5.03284,-125.489 L -6.93449,-124.737 L -8.72681,-123.751 L -10.3815,-122.549
 L -11.8724,-121.149 L -13.1761,-119.573 L -14.2721,-117.846 L -15.1429,-115.995 L -15.7749,-114.05 L -16.1582,-112.041
 L -16.2866,-110 L -16.1582,-107.959 L -15.7749,-105.95 L -15.1429,-104.005 L -14.2721,-102.154 L -13.1761,-100.427
 L -11.8724,-98.851 L -10.3815,-97.4509 L -8.72681,-96.2487 L -6.93449,-95.2634 L -5.03284,-94.5105 L -3.0518,-94.0019
 L -1.02264,-93.7455 L 1.02264,-93.7455 z
M -5.43001,-113.857 L -5.59851,-113.895 L -5.76099,-113.953 L -5.91484,-114.031 L -6.05765,-114.128 L -6.18718,-114.243
 L -6.30136,-114.372 L -6.39842,-114.515 L -6.47682,-114.669 L -6.53531,-114.831 L -6.57298,-115 L -6.58923,-115.172
 L -6.5838,-115.344 L -6.55679,-115.515 L -6.50862,-115.681 L -6.44003,-115.839 L -6.35214,-115.988 L -6.24631,-116.124
 L -6.12421,-116.246 L -5.98776,-116.352 L -5.83914,-116.44 L -5.68066,-116.509 L -5.51485,-116.557 L -5.3443,-116.584
 L -5.17172,-116.589 L -4.9998,-116.573 L -4.8313,-116.535 L -4.66882,-116.477 L -4.51497,-116.398 L -4.37216,-116.301
 L -4.24263,-116.187 L -4.12845,-116.058 L -4.03139,-115.915 L -3.95299,-115.761 L -3.8945,-115.599 L -3.85683,-115.43
 L -3.84059,-115.258 L -3.84601,-115.086 L -3.87302,-114.915 L -3.92119,-114.749 L -3.98978,-114.591 L -4.07767,-114.442
 L -4.1835,-114.306 L -4.3056,-114.184 L -4.44205,-114.078 L -4.59067,-113.99 L -4.74915,-113.921 L -4.91496,-113.873
 L -5.08551,-113.846 L -5.2581,-113.841 z
M -0.469299,-107.037 L -0.83696,-107.119 L -1.19144,-107.247 L -1.52711,-107.418 L -1.83871,-107.63 L -2.12131,-107.879
 L -2.37045,-108.161 L -2.58221,-108.473 L -2.75325,-108.809 L -2.88087,-109.163 L -2.96306,-109.531 L -2.9985,-109.906
 L -2.98668,-110.282 L -2.92773,-110.654 L -2.82263,-111.016 L -2.673,-111.362 L -2.48123,-111.686 L -2.25032,-111.984
 L -1.98393,-112.25 L -1.68625,-112.481 L -1.36197,-112.673 L -1.0162,-112.823 L -0.654419,-112.928 L -0.282318,-112.987
 L 0.094223,-112.999 L 0.469299,-112.963 L 0.83696,-112.881 L 1.19144,-112.753 L 1.52711,-112.582 L 1.83871,-112.37
 L 2.12131,-112.121 L 2.37045,-111.839 L 2.58221,-111.527 L 2.75325,-111.191 L 2.88087,-110.837 L 2.96306,-110.469
 L 2.9985,-110.094 L 2.98668,-109.718 L 2.92773,-109.346 L 2.82263,-108.984 L 2.673,-108.638 L 2.48123,-108.314
 L 2.25032,-108.016 L 1.98393,-107.75 L 1.68625,-107.519 L 1.36197,-107.327 L 1.0162,-107.177 L 0.654419,-107.072
 L 0.282318,-107.013 L -0.094223,-107.001 z
M 4.9998,-103.427 L 4.8313,-103.465 L 4.66882,-103.523 L 4.51497,-103.602 L 4.37216,-103.699 L 4.24263,-103.813
 L 4.12845,-103.942 L 4.03139,-104.085 L 3.95299,-104.239 L 3.8945,-104.401 L 3.85683,-104.57 L 3.84059,-104.742
 L 3.84601,-104.914 L 3.87302,-105.085 L 3.92119,-105.251 L 3.98978,-105.409 L 4.07767,-105.558 L 4.1835,-105.694
 L 4.3056,-105.816 L 4.44205,-105.922 L 4.59067,-106.01 L 4.74915,-106.079 L 4.91496,-106.127 L 5.08551,-106.154
 L 5.2581,-106.159 L 5.43001,-106.143 L 5.59851,-106.105 L 5.76099,-106.047 L 5.91484,-105.969 L 6.05765,-105.872
 L 6.18718,-105.757 L 6.30136,-105.628 L 6.39842,-105.485 L 6.47682,-105.331 L 6.53531,-105.169 L 6.57298,-105
 L 6.58923,-104.828 L 6.5838,-104.656 L 6.55679,-104.485 L 6.50862,-104.319 L 6.44003,-104.161 L 6.35214,-104.012
 L 6.24631,-103.876 L 6.12421,-103.754 L 5.98776,-103.648 L 5.83914,-103.56 L 5.68066,-103.491 L 5.51485,-103.443
 L 5.3443,-103.416 L 5.17172,-103.411 z
" stroke="black" fill="lightgray" stroke-width="0.5"/>
</svg>
