<?xml version="1.0" standalone="no"?>
<!DOCTYPE svg PUBLIC "-//W3C//DTD SVG 1.1//EN" "http://www.w3.org/Graphics/SVG/1.1/DTD/svg11.dtd">
<svg width="257mm" height="3052mm" viewBox="-129 -6014 257 3052" xmlns="http://www.w3.org/2000/svg" version="1.1">
<title>OpenSCAD Model</title>
<path d="
M 123.437,-5818.59 L 124.045,-5818.74 L 124.629,-5818.98 L 125.179,-5819.28 L 125.687,-5819.65 L 126.145,-5820.08
 L 126.545,-5820.56 L 126.882,-5821.09 L 127.149,-5821.66 L 127.343,-5822.26 L 127.461,-5822.87 L 127.5,-5823.5
 L 127.5,-6008.5 L 127.461,-6009.13 L 127.343,-6009.74 L 127.149,-6010.34 L 126.882,-6010.91 L 126.545,-6011.44
 L 126.145,-6011.92 L 125.687,-6012.35 L 125.179,-6012.72 L 124.629,-6013.02 L 124.045,-6013.26 L 123.437,-6013.41
 L 122.814,-6013.49 L -122.814,-6013.49 L -123.437,-6013.41 L -124.045,-6013.26 L -124.629,-6013.02 L -125.179,-6012.72
 L -125.687,-6012.35 L -126.145,-6011.92 L -126.545,-6011.44 L -126.882,-6010.91 L -127.149,-6010.34 L -127.343,-6009.74
 L -127.461,-6009.13 L -127.5,-6008.5 L -127.5,-5823.5 L -127.461,-5822.87 L -127.343,-5822.26 L -127.149,-5821.66
 L -126.882,-5821.09 L -126.545,-5820.56 L -126.145,-5820.08 L -125.687,-5819.65 L -125.179,-5819.28 L -124.629,-5818.98
 L -124.045,-5818.74 L -123.437,-5818.59 L -122.814,-5818.51 L 122.814,-5818.51 z
M -122.251,-5820.01 L -122.75,-5820.07 L -123.236,-5820.2 L -123.703,-5820.38 L -124.143,-5820.62 L -124.55,-5820.92
 L -124.916,-5821.26 L -125.236,-5821.65 L -125.505,-5822.07 L -125.719,-5822.53 L -125.874,-5823.01 L -125.968,-5823.5
 L -126,-5824 L -126,-6008 L -125.968,-6008.5 L -125.874,-6008.99 L -125.719,-6009.47 L -125.505,-6009.93
 L -125.236,-6010.35 L -124.916,-6010.74 L -124.55,-6011.08 L -124.143,-6011.38 L -123.703,-6011.62 L -123.236,-6011.8
 L -122.75,-6011.93 L -122.251,-6011.99 L 122.251,-6011.99 L 122.75,-6011.93 L 123.236,-6011.8 L 123.703,-6011.62
 L 124.143,-6011.38 L 124.55,-6011.08 L 124.916,-6010.74 L 125.236,-6010.35 L 125.505,-6009.93 L 125.719,-6009.47
 L 125.874,-6008.99 L 125.968,-6008.5 L 126,-6008 L 126,-5824 L 125.968,-5823.5 L 125.874,-5823.01
 L 125.719,-5822.53 L 125.505,-5822.07 L 125.236,-5821.65 L 124.916,-5821.26 L 124.55,-5820.92 L 124.143,-5820.62
 L 123.703,-5820.38 L 123.236,-5820.2 L 122.75,-5820.07 L 122.251,-5820.01 z
M 123.437,-5614.59 L 124.045,-5614.74 L 124.629,-5614.98 L 125.179,-5615.28 L 125.687,-5615.65 L 126.145,-5616.08
 L 126.545,-5616.56 L 126.882,-5617.09 L 127.149,-5617.66 L 127.343,-5618.26 L 127.461,-5618.87 L 127.5,-5619.5
 L 127.5,-5804.5 L 127.461,-5805.13 L 127.343,-5805.74 L 127.149,-5806.34 L 126.882,-5806.91 L 126.545,-5807.44
 L 126.145,-5807.92 L 125.687,-5808.35 L 125.179,-5808.72 L 124.629,-5809.02 L 124.045,-5809.26 L 123.437,-5809.41
 L 122.814,-5809.49 L -122.814,-5809.49 L -123.437,-5809.41 L -124.045,-5809.26 L -124.629,-5809.02 L -125.179,-5808.72
 L -125.687,-5808.35 L -126.145,-5807.92 L -126.545,-5807.44 L -126.882,-5806.91 L -127.149,-5806.34 L -127.343,-5805.74
 L -127.461,-5805.13 L -127.5,-5804.5 L -127.5,-5619.5 L -127.461,-5618.87 L -127.343,-5618.26 L -127.149,-5617.66
 L -126.882,-5617.09 L -126.545,-5616.56 L -126.145,-5616.08 L -125.687,-5615.65 L -125.179,-5615.28 L -124.629,-5614.98
 L -124.045,-5614.74 L -123.437,-5614.59 L -122.814,-5614.51 L 122.814,-5614.51 z
M -122.251,-5616.01 L -122.75,-5616.07 L -123.236,-5616.2 L -123.703,-5616.38 L -124.143,-5616.62 L -124.55,-5616.92
 L -124.916,-5617.26 L -125.236,-5617.65 L -125.505,-5618.07 L -125.719,-5618.53 L -125.874,-5619.01 L -125.968,-5619.5
 L -126,-5620 L -126,-5804 L -125.968,-5804.5 L -125.874,-5804.99 L -125.719,-5805.47 L -125.505,-5805.93
 L -125.236,-5806.35 L -124.916,-5806.74 L -124.55,-5807.08 L -124.143,-5807.38 L -123.703,-5807.62 L -123.236,-5807.8
 L -122.75,-5807.93 L -122.251,-5807.99 L 122.251,-5807.99 L 122.75,-5807.93 L 123.236,-5807.8 L 123.703,-5807.62
 L 124.143,-5807.38 L 124.55,-5807.08 L 124.916,-5806.74 L 125.236,-5806.35 L 125.505,-5805.93 L 125.719,-5805.47
 L 125.874,-5804.99 L 125.968,-5804.5 L 126,-5804 L 126,-5620 L 125.968,-5619.5 L 125.874,-5619.01
 L 125.719,-5618.53 L 125.505,-5618.07 L 125.236,-5617.65 L 124.916,-5617.26 L 124.55,-5616.92 L 124.143,-5616.62
 L 123.703,-5616.38 L 123.236,-5616.2 L 122.75,-5616.07 L 122.251,-5616.01 z
M 123.437,-5410.59 L 124.045,-5410.74 L 124.629,-5410.98 L 125.179,-5411.28 L 125.687,-5411.65 L 126.145,-5412.08
 L 126.545,-5412.56 L 126.882,-5413.09 L 127.149,-5413.66 L 127.343,-5414.26 L 127.461,-5414.87 L 127.5,-5415.5
 L 127.5,-5600.5 L 127.461,-5601.13 L 127.343,-5601.74 L 127.149,-5602.34 L 126.882,-5602.91 L 126.545,-5603.44
 L 126.145,-5603.92 L 125.687,-5604.35 L 125.179,-5604.72 L 124.629,-5605.02 L 124.045,-5605.26 L 123.437,-5605.41
 L 122.814,-5605.49 L -122.814,-5605.49 L -123.437,-5605.41 L -124.045,-5605.26 L -124.629,-5605.02 L -125.179,-5604.72
 L -125.687,-5604.35 L -126.145,-5603.92 L -126.545,-5603.44 L -126.882,-5602.91 L -127.149,-5602.34 L -127.343,-5601.74
 L -127.461,-5601.13 L -127.5,-5600.5 L -127.5,-5415.5 L -127.461,-5414.87 L -127.343,-5414.26 L -127.149,-5413.66
 L -126.882,-5413.09 L -126.545,-5412.56 L -126.145,-5412.08 L -125.687,-5411.65 L -125.179,-5411.28 L -124.629,-5410.98
 L -124.045,-5410.74 L -123.437,-5410.59 L -122.814,-5410.51 L 122.814,-5410.51 z
M -122.251,-5412.01 L -122.75,-5412.07 L -123.236,-5412.2 L -123.703,-5412.38 L -124.143,-5412.62 L -124.55,-5412.92
 L -124.916,-5413.26 L -125.236,-5413.65 L -125.505,-5414.07 L -125.719,-5414.53 L -125.874,-5415.01 L -125.968,-5415.5
 L -126,-5416 L -126,-5600 L -125.968,-5600.5 L -125.874,-5600.99 L -125.719,-5601.47 L -125.505,-5601.93
 L -125.236,-5602.35 L -124.916,-5602.74 L -124.55,-5603.08 L -124.143,-5603.38 L -123.703,-5603.62 L -123.236,-5603.8
 L -122.75,-5603.93 L -122.251,-5603.99 L 122.251,-5603.99 L 122.75,-5603.93 L 123.236,-5603.8 L 123.703,-5603.62
 L 124.143,-5603.38 L 124.55,-5603.08 L 124.916,-5602.74 L 125.236,-5602.35 L 125.505,-5601.93 L 125.719,-5601.47
 L 125.874,-5600.99 L 125.968,-5600.5 L 126,-5600 L 126,-5416 L 125.968,-5415.5 L 125.874,-5415.01
 L 125.719,-5414.53 L 125.505,-5414.07 L 125.236,-5413.65 L 124.916,-5413.26 L 124.55,-5412.92 L 124.143,-5412.62
 L 123.703,-5412.38 L 123.236,-5412.2 L 122.75,-5412.07 L 122.251,-5412.01 z
M 123.437,-5206.59 L 124.045,-5206.74 L 124.629,-5206.98 L 125.179,-5207.28 L 125.687,-5207.65 L 126.145,-5208.08
 L 126.545,-5208.56 L 126.882,-5209.09 L 127.149,-5209.66 L 127.343,-5210.26 L 127.461,-5210.87 L 127.5,-5211.5
 L 127.5,-5396.5 L 127.461,-5397.13 L 127.343,-5397.74 L 127.149,-5398.34 L 126.882,-5398.91 L 126.545,-5399.44
 L 126.145,-5399.92 L 125.687,-5400.35 L 125.179,-5400.72 L 124.629,-5401.02 L 124.045,-5401.26 L 123.437,-5401.41
 L 122.814,-5401.49 L -122.814,-5401.49 L -123.437,-5401.41 L -124.045,-5401.26 L -124.629,-5401.02 L -125.179,-5400.72
 L -125.687,-5400.35 L -126.145,-5399.92 L -126.545,-5399.44 L -126.882,-5398.91 L -127.149,-5398.34 L -127.343,-5397.74
 L -127.461,-5397.13 L -127.5,-5396.5 L -127.5,-5211.5 L -127.461,-5210.87 L -127.343,-5210.26 L -127.149,-5209.66
 L -126.882,-5209.09 L -126.545,-5208.56 L -126.145,-5208.08 L -125.687,-5207.65 L -125.179,-5207.28 L -124.629,-5206.98
 L -124.045,-5206.74 L -123.437,-5206.59 L -122.814,-5206.51 L 122.814,-5206.51 z
M -122.251,-5208.01 L -122.75,-5208.07 L -123.236,-5208.2 L -123.703,-5208.38 L -124.143,-5208.62 L -124.55,-5208.92
 L -124.916,-5209.26 L -125.236,-5209.65 L -125.505,-5210.07 L -125.719,-5210.53 L -125.874,-5211.01 L -125.968,-5211.5
 L -126,-5212 L -126,-5396 L -125.968,-5396.5 L -125.874,-5396.99 L -125.719,-5397.47 L -125.505,-5397.93
 L -125.236,-5398.35 L -124.916,-5398.74 L -124.55,-5399.08 L -124.143,-5399.38 L -123.703,-5399.62 L -123.236,-5399.8
 L -122.75,-5399.93 L -122.251,-5399.99 L 122.251,-5399.99 L 122.75,-5399.93 L 123.236,-5399.8 L 123.703,-5399.62
 L 124.143,-5399.38 L 124.55,-5399.08 L 124.916,-5398.74 L 125.236,-5398.35 L 125.505,-5397.93 L 125.719,-5397.47
 L 125.874,-5396.99 L 125.968,-5396.5 L 126,-5396 L 126,-5212 L 125.968,-5211.5 L 125.874,-5211.01
 L 125.719,-5210.53 L 125.505,-5210.07 L 125.236,-5209.65 L 124.916,-5209.26 L 124.55,-5208.92 L 124.143,-5208.62
 L 123.703,-5208.38 L 123.236,-5208.2 L 122.75,-5208.07 L 122.251,-5208.01 z
M 123.437,-5002.59 L 124.045,-5002.74 L 124.629,-5002.98 L 125.179,-5003.28 L 125.687,-5003.65 L 126.145,-5004.08
 L 126.545,-5004.56 L 126.882,-5005.09 L 127.149,-5005.66 L 127.343,-5006.26 L 127.461,-5006.87 L 127.5,-5007.5
 L 127.5,-5192.5 L 127.461,-5193.13 L 127.343,-5193.74 L 127.149,-5194.34 L 126.882,-5194.91 L 126.545,-5195.44
 L 126.145,-5195.92 L 125.687,-5196.35 L 125.179,-5196.72 L 124.629,-5197.02 L 124.045,-5197.26 L 123.437,-5197.41
 L 122.814,-5197.49 L -122.814,-5197.49 L -123.437,-5197.41 L -124.045,-5197.26 L -124.629,-5197.02 L -125.179,-5196.72
 L -125.687,-5196.35 L -126.145,-5195.92 L -126.545,-5195.44 L -126.882,-5194.91 L -127.149,-5194.34 L -127.343,-5193.74
 L -127.461,-5193.13 L -127.5,-5192.5 L -127.5,-5007.5 L -127.461,-5006.87 L -127.343,-5006.26 L -127.149,-5005.66
 L -126.882,-5005.09 L -126.545,-5004.56 L -126.145,-5004.08 L -125.687,-5003.65 L -125.179,-5003.28 L -124.629,-5002.98
 L -124.045,-5002.74 L -123.437,-5002.59 L -122.814,-5002.51 L 122.814,-5002.51 z
M -122.251,-5004.01 L -122.75,-5004.07 L -123.236,-5004.2 L -123.703,-5004.38 L -124.143,-5004.62 L -124.55,-5004.92
 L -124.916,-5005.26 L -125.236,-5005.65 L -125.505,-5006.07 L -125.719,-5006.53 L -125.874,-5007.01 L -125.968,-5007.5
 L -126,-5008 L -126,-5192 L -125.968,-5192.5 L -125.874,-5192.99 L -125.719,-5193.47 L -125.505,-5193.93
 L -125.236,-5194.35 L -124.916,-5194.74 L -124.55,-5195.08 L -124.143,-5195.38 L -123.703,-5195.62 L -123.236,-5195.8
 L -122.75,-5195.93 L -122.251,-5195.99 L 122.251,-5195.99 L 122.75,-5195.93 L 123.236,-5195.8 L 123.703,-5195.62
 L 124.143,-5195.38 L 124.55,-5195.08 L 124.916,-5194.74 L 125.236,-5194.35 L 125.505,-5193.93 L 125.719,-5193.47
 L 125.874,-5192.99 L 125.968,-5192.5 L 126,-5192 L 126,-5008 L 125.968,-5007.5 L 125.874,-5007.01
 L 125.719,-5006.53 L 125.505,-5006.07 L 125.236,-5005.65 L 124.916,-5005.26 L 124.55,-5004.92 L 124.143,-5004.62
 L 123.703,-5004.38 L 123.236,-5004.2 L 122.75,-5004.07 L 122.251,-5004.01 z
M 123.437,-4798.59 L 124.045,-4798.74 L 124.629,-4798.98 L 125.179,-4799.28 L 125.687,-4799.65 L 126.145,-4800.08
 L 126.545,-4800.56 L 126.882,-4801.09 L 127.149,-4801.66 L 127.343,-4802.26 L 127.461,-4802.87 L 127.5,-4803.5
 L 127.5,-4988.5 L 127.461,-4989.13 L 127.343,-4989.74 L 127.149,-4990.34 L 126.882,-4990.91 L 126.545,-4991.44
 L 126.145,-4991.92 L 125.687,-4992.35 L 125.179,-4992.72 L 124.629,-4993.02 L 124.045,-4993.26 L 123.437,-4993.41
 L 122.814,-4993.49 L -122.814,-4993.49 L -123.437,-4993.41 L -124.045,-4993.26 L -124.629,-4993.02 L -125.179,-4992.72
 L -125.687,-4992.35 L -126,-4992.06 L -129,-4992.06 L -129,-4799.94 L -126,-4799.94 L -125.687,-4799.65
 L -125.179,-4799.28 L -124.629,-4798.98 L -124.045,-4798.74 L -123.437,-4798.59 L -122.814,-4798.51 L 122.814,-4798.51
 z
M -122.251,-4800.01 L -122.75,-4800.07 L -123.236,-4800.2 L -123.703,-4800.38 L -124.143,-4800.62 L -124.55,-4800.92
 L -124.916,-4801.26 L -125.236,-4801.65 L -125.505,-4802.07 L -125.719,-4802.53 L -125.874,-4803.01 L -125.968,-4803.5
 L -126,-4804 L -126,-4988 L -125.968,-4988.5 L -125.874,-4988.99 L -125.719,-4989.47 L -125.505,-4989.93
 L -125.236,-4990.35 L -124.916,-4990.74 L -124.55,-4991.08 L -124.143,-4991.38 L -123.703,-4991.62 L -123.236,-4991.8
 L -122.75,-4991.93 L -122.251,-4991.99 L 122.251,-4991.99 L 122.75,-4991.93 L 123.236,-4991.8 L 123.703,-4991.62
 L 124.143,-4991.38 L 124.55,-4991.08 L 124.916,-4990.74 L 125.236,-4990.35 L 125.505,-4989.93 L 125.719,-4989.47
 L 125.874,-4988.99 L 125.968,-4988.5 L 126,-4988 L 126,-4804 L 125.968,-4803.5 L 125.874,-4803.01
 L 125.719,-4802.53 L 125.505,-4802.07 L 125.236,-4801.65 L 124.916,-4801.26 L 124.55,-4800.92 L 124.143,-4800.62
 L 123.703,-4800.38 L 123.236,-4800.2 L 122.75,-4800.07 L 122.251,-4800.01 z
M 123.437,-4594.59 L 124.045,-4594.74 L 124.629,-4594.98 L 125.179,-4595.28 L 125.687,-4595.65 L 126.145,-4596.08
 L 126.545,-4596.56 L 126.882,-4597.09 L 127.149,-4597.66 L 127.343,-4598.26 L 127.461,-4598.87 L 127.5,-4599.5
 L 127.5,-4784.5 L 127.461,-4785.13 L 127.343,-4785.74 L 127.149,-4786.34 L 126.882,-4786.91 L 126.545,-4787.44
 L 126.145,-4787.92 L 125.687,-4788.35 L 125.179,-4788.72 L 124.629,-4789.02 L 124.045,-4789.26 L 123.437,-4789.41
 L 122.814,-4789.49 L -122.814,-4789.49 L -123.437,-4789.41 L -124.045,-4789.26 L -124.629,-4789.02 L -125.179,-4788.72
 L -125.687,-4788.35 L -126,-4788.06 L -126,-4789.47 L -129,-4789.47 L -129,-4594.53 L -126,-4594.53
 L -126,-4595.94 L -125.687,-4595.65 L -125.179,-4595.28 L -124.629,-4594.98 L -124.045,-4594.74 L -123.437,-4594.59
 L -122.814,-4594.51 L 122.814,-4594.51 z
M -122.251,-4596.01 L -122.75,-4596.07 L -123.236,-4596.2 L -123.703,-4596.38 L -124.143,-4596.62 L -124.55,-4596.92
 L -124.916,-4597.26 L -125.236,-4597.65 L -125.505,-4598.07 L -125.719,-4598.53 L -125.874,-4599.01 L -125.968,-4599.5
 L -126,-4600 L -126,-4784 L -125.968,-4784.5 L -125.874,-4784.99 L -125.719,-4785.47 L -125.505,-4785.93
 L -125.236,-4786.35 L -124.916,-4786.74 L -124.55,-4787.08 L -124.143,-4787.38 L -123.703,-4787.62 L -123.236,-4787.8
 L -122.75,-4787.93 L -122.251,-4787.99 L 122.251,-4787.99 L 122.75,-4787.93 L 123.236,-4787.8 L 123.703,-4787.62
 L 124.143,-4787.38 L 124.55,-4787.08 L 124.916,-4786.74 L 125.236,-4786.35 L 125.505,-4785.93 L 125.719,-4785.47
 L 125.874,-4784.99 L 125.968,-4784.5 L 126,-4784 L 126,-4600 L 125.968,-4599.5 L 125.874,-4599.01
 L 125.719,-4598.53 L 125.505,-4598.07 L 125.236,-4597.65 L 124.916,-4597.26 L 124.55,-4596.92 L 124.143,-4596.62
 L 123.703,-4596.38 L 123.236,-4596.2 L 122.75,-4596.07 L 122.251,-4596.01 z
M -126,-4391.94 L -125.687,-4391.65 L -125.179,-4391.28 L -124.629,-4390.98 L -124.045,-4390.74 L -123.437,-4390.59
 L -122.814,-4390.51 L 122.814,-4390.51 L 123.437,-4390.59 L 124.045,-4390.74 L 124.629,-4390.98 L 125.179,-4391.28
 L 125.687,-4391.65 L 126.145,-4392.08 L 126.545,-4392.56 L 126.882,-4393.09 L 127.149,-4393.66 L 127.343,-4394.26
 L 127.461,-4394.87 L 127.5,-4395.5 L 127.5,-4580.5 L 127.461,-4581.13 L 127.343,-4581.74 L 127.149,-4582.34
 L 126.882,-4582.91 L 126.545,-4583.44 L 126.145,-4583.92 L 125.687,-4584.35 L 125.179,-4584.72 L 124.629,-4585.02
 L 124.045,-4585.26 L 123.437,-4585.41 L 122.814,-4585.49 L -122.814,-4585.49 L -123.437,-4585.41 L -124.045,-4585.26
 L -124.629,-4585.02 L -125.179,-4584.72 L -125.687,-4584.35 L -126,-4584.06 L -126,-4585.49 L -129,-4585.49
 L -129,-4580.99 L -125.874,-4580.99 L -125.874,-4580.99 L -125.719,-4581.47 L -125.505,-4581.93 L -125.236,-4582.35
 L -124.916,-4582.74 L -124.55,-4583.08 L -124.143,-4583.38 L -123.703,-4583.62 L -123.236,-4583.8 L -122.75,-4583.93
 L -122.251,-4583.99 L 122.251,-4583.99 L 122.75,-4583.93 L 123.236,-4583.8 L 123.703,-4583.62 L 124.143,-4583.38
 L 124.55,-4583.08 L 124.916,-4582.74 L 125.236,-4582.35 L 125.505,-4581.93 L 125.719,-4581.47 L 125.874,-4580.99
 L 125.968,-4580.5 L 126,-4580 L 126,-4396 L 125.968,-4395.5 L 125.874,-4395.01 L 125.719,-4394.53
 L 125.505,-4394.07 L 125.236,-4393.65 L 124.916,-4393.26 L 124.55,-4392.92 L 124.143,-4392.62 L 123.703,-4392.38
 L 123.236,-4392.2 L 122.75,-4392.07 L 122.251,-4392.01 L -122.251,-4392.01 L -122.75,-4392.07 L -123.236,-4392.2
 L -123.703,-4392.38 L -124.143,-4392.62 L -124.55,-4392.92 L -124.916,-4393.26 L -125.236,-4393.65 L -125.505,-4394.07
 L -125.719,-4394.53 L -125.874,-4395.01 L -125.874,-4395.01 L -129,-4395.01 L -129,-4390.51 L -126,-4390.51
 z
M -126,-4575.01 L -129,-4575.01 L -129,-4565.99 L -126,-4565.99 z
M -126,-4560.01 L -129,-4560.01 L -129,-4550.99 L -126,-4550.99 z
M -126,-4545.01 L -129,-4545.01 L -129,-4535.99 L -126,-4535.99 z
M -126,-4530.01 L -129,-4530.01 L -129,-4520.99 L -126,-4520.99 z
M -126,-4515.01 L -129,-4515.01 L -129,-4505.99 L -126,-4505.99 z
M -126,-4500.01 L -129,-4500.01 L -129,-4490.99 L -126,-4490.99 z
M -126,-4485.01 L -129,-4485.01 L -129,-4475.99 L -126,-4475.99 z
M -126,-4470.01 L -129,-4470.01 L -129,-4460.99 L -126,-4460.99 z
M -126,-4455.01 L -129,-4455.01 L -129,-4445.99 L -126,-4445.99 z
M -126,-4440.01 L -129,-4440.01 L -129,-4430.99 L -126,-4430.99 z
M -126,-4425.01 L -129,-4425.01 L -129,-4415.99 L -126,-4415.99 z
M -126,-4410.01 L -129,-4410.01 L -129,-4400.99 L -126,-4400.99 z
M -126,-4187.94 L -125.687,-4187.65 L -125.179,-4187.28 L -124.629,-4186.98 L -124.045,-4186.74 L -123.437,-4186.59
 L -122.814,-4186.51 L 122.814,-4186.51 L 123.437,-4186.59 L 124.045,-4186.74 L 124.629,-4186.98 L 125.179,-4187.28
 L 125.687,-4187.65 L 126.145,-4188.08 L 126.545,-4188.56 L 126.882,-4189.09 L 127.149,-4189.66 L 127.343,-4190.26
 L 127.461,-4190.87 L 127.5,-4191.5 L 127.5,-4376.5 L 127.461,-4377.13 L 127.343,-4377.74 L 127.149,-4378.34
 L 126.882,-4378.91 L 126.545,-4379.44 L 126.145,-4379.92 L 125.687,-4380.35 L 125.179,-4380.72 L 124.629,-4381.02
 L 124.045,-4381.26 L 123.437,-4381.41 L 122.814,-4381.49 L -122.814,-4381.49 L -123.437,-4381.41 L -124.045,-4381.26
 L -124.629,-4381.02 L -125.179,-4380.72 L -125.687,-4380.35 L -126,-4380.06 L -126,-4381.49 L -129,-4381.49
 L -129,-4186.51 L -126,-4186.51 z
M -122.251,-4188.01 L -122.75,-4188.07 L -123.236,-4188.2 L -123.703,-4188.38 L -124.143,-4188.62 L -124.55,-4188.92
 L -124.916,-4189.26 L -125.236,-4189.65 L -125.505,-4190.07 L -125.719,-4190.53 L -125.874,-4191.01 L -125.968,-4191.5
 L -126,-4192 L -126,-4376 L -125.968,-4376.5 L -125.874,-4376.99 L -125.719,-4377.47 L -125.505,-4377.93
 L -125.236,-4378.35 L -124.916,-4378.74 L -124.55,-4379.08 L -124.143,-4379.38 L -123.703,-4379.62 L -123.236,-4379.8
 L -122.75,-4379.93 L -122.251,-4379.99 L 122.251,-4379.99 L 122.75,-4379.93 L 123.236,-4379.8 L 123.703,-4379.62
 L 124.143,-4379.38 L 124.55,-4379.08 L 124.916,-4378.74 L 125.236,-4378.35 L 125.505,-4377.93 L 125.719,-4377.47
 L 125.874,-4376.99 L 125.968,-4376.5 L 126,-4376 L 126,-4192 L 125.968,-4191.5 L 125.874,-4191.01
 L 125.719,-4190.53 L 125.505,-4190.07 L 125.236,-4189.65 L 124.916,-4189.26 L 124.55,-4188.92 L 124.143,-4188.62
 L 123.703,-4188.38 L 123.236,-4188.2 L 122.75,-4188.07 L 122.251,-4188.01 z
M -126,-3983.94 L -125.687,-3983.65 L -125.179,-3983.28 L -124.629,-3982.98 L -124.045,-3982.74 L -123.437,-3982.59
 L -122.814,-3982.51 L 122.814,-3982.51 L 123.437,-3982.59 L 124.045,-3982.74 L 124.629,-3982.98 L 125.179,-3983.28
 L 125.687,-3983.65 L 126.145,-3984.08 L 126.545,-3984.56 L 126.882,-3985.09 L 127.149,-3985.66 L 127.343,-3986.26
 L 127.461,-3986.87 L 127.5,-3987.5 L 127.5,-4172.5 L 127.461,-4173.13 L 127.343,-4173.74 L 127.149,-4174.34
 L 126.882,-4174.91 L 126.545,-4175.44 L 126.145,-4175.92 L 125.687,-4176.35 L 125.179,-4176.72 L 124.629,-4177.02
 L 124.045,-4177.26 L 123.437,-4177.41 L 122.814,-4177.49 L -122.814,-4177.49 L -123.437,-4177.41 L -124.045,-4177.26
 L -124.629,-4177.02 L -125.179,-4176.72 L -125.687,-4176.35 L -126,-4176.06 L -126,-4177.49 L -129,-4177.49
 L -129,-3982.51 L -126,-3982.51 z
M -122.251,-3984.01 L -122.75,-3984.07 L -123.236,-3984.2 L -123.703,-3984.38 L -124.143,-3984.62 L -124.55,-3984.92
 L -124.916,-3985.26 L -125.236,-3985.65 L -125.505,-3986.07 L -125.719,-3986.53 L -125.874,-3987.01 L -125.968,-3987.5
 L -126,-3988 L -126,-4172 L -125.968,-4172.5 L -125.874,-4172.99 L -125.719,-4173.47 L -125.505,-4173.93
 L -125.236,-4174.35 L -124.916,-4174.74 L -124.55,-4175.08 L -124.143,-4175.38 L -123.703,-4175.62 L -123.236,-4175.8
 L -122.75,-4175.93 L -122.251,-4175.99 L 122.251,-4175.99 L 122.75,-4175.93 L 123.236,-4175.8 L 123.703,-4175.62
 L 124.143,-4175.38 L 124.55,-4175.08 L 124.916,-4174.74 L 125.236,-4174.35 L 125.505,-4173.93 L 125.719,-4173.47
 L 125.874,-4172.99 L 125.968,-4172.5 L 126,-4172 L 126,-3988 L 125.968,-3987.5 L 125.874,-3987.01
 L 125.719,-3986.53 L 125.505,-3986.07 L 125.236,-3985.65 L 124.916,-3985.26 L 124.55,-3984.92 L 124.143,-3984.62
 L 123.703,-3984.38 L 123.236,-3984.2 L 122.75,-3984.07 L 122.251,-3984.01 z
M -126,-3779.94 L -125.687,-3779.65 L -125.179,-3779.28 L -124.629,-3778.98 L -124.045,-3778.74 L -123.437,-3778.59
 L -122.814,-3778.51 L 122.814,-3778.51 L 123.437,-3778.59 L 124.045,-3778.74 L 124.629,-3778.98 L 125.179,-3779.28
 L 125.687,-3779.65 L 126.145,-3780.08 L 126.545,-3780.56 L 126.882,-3781.09 L 127.149,-3781.66 L 127.343,-3782.26
 L 127.461,-3782.87 L 127.5,-3783.5 L 127.5,-3968.5 L 127.461,-3969.13 L 127.343,-3969.74 L 127.149,-3970.34
 L 126.882,-3970.91 L 126.545,-3971.44 L 126.145,-3971.92 L 125.687,-3972.35 L 125.179,-3972.72 L 124.629,-3973.02
 L 124.045,-3973.26 L 123.437,-3973.41 L 122.814,-3973.49 L -122.814,-3973.49 L -123.437,-3973.41 L -124.045,-3973.26
 L -124.629,-3973.02 L -125.179,-3972.72 L -125.687,-3972.35 L -126,-3972.06 L -126,-3973.49 L -129,-3973.49
 L -129,-3778.51 L -126,-3778.51 z
M -122.251,-3780.01 L -122.75,-3780.07 L -123.236,-3780.2 L -123.703,-3780.38 L -124.143,-3780.62 L -124.55,-3780.92
 L -124.916,-3781.26 L -125.236,-3781.65 L -125.505,-3782.07 L -125.719,-3782.53 L -125.874,-3783.01 L -125.968,-3783.5
 L -126,-3784 L -126,-3968 L -125.968,-3968.5 L -125.874,-3968.99 L -125.719,-3969.47 L -125.505,-3969.93
 L -125.236,-3970.35 L -124.916,-3970.74 L -124.55,-3971.08 L -124.143,-3971.38 L -123.703,-3971.62 L -123.236,-3971.8
 L -122.75,-3971.93 L -122.251,-3971.99 L 122.251,-3971.99 L 122.75,-3971.93 L 123.236,-3971.8 L 123.703,-3971.62
 L 124.143,-3971.38 L 124.55,-3971.08 L 124.916,-3970.74 L 125.236,-3970.35 L 125.505,-3969.93 L 125.719,-3969.47
 L 125.874,-3968.99 L 125.968,-3968.5 L 126,-3968 L 126,-3784 L 125.968,-3783.5 L 125.874,-3783.01
 L 125.719,-3782.53 L 125.505,-3782.07 L 125.236,-3781.65 L 124.916,-3781.26 L 124.55,-3780.92 L 124.143,-3780.62
 L 123.703,-3780.38 L 123.236,-3780.2 L 122.75,-3780.07 L 122.251,-3780.01 z
M -126,-3575.94 L -125.687,-3575.65 L -125.179,-3575.28 L -124.629,-3574.98 L -124.045,-3574.74 L -123.437,-3574.59
 L -122.814,-3574.51 L 122.814,-3574.51 L 123.437,-3574.59 L 124.045,-3574.74 L 124.629,-3574.98 L 125.179,-3575.28
 L 125.687,-3575.65 L 126.145,-3576.08 L 126.545,-3576.56 L 126.882,-3577.09 L 127.149,-3577.66 L 127.343,-3578.26
 L 127.461,-3578.87 L 127.5,-3579.5 L 127.5,-3764.5 L 127.461,-3765.13 L 127.343,-3765.74 L 127.149,-3766.34
 L 126.882,-3766.91 L 126.545,-3767.44 L 126.145,-3767.92 L 125.687,-3768.35 L 125.179,-3768.72 L 124.629,-3769.02
 L 124.045,-3769.26 L 123.437,-3769.41 L 122.814,-3769.49 L -122.814,-3769.49 L -123.437,-3769.41 L -124.045,-3769.26
 L -124.629,-3769.02 L -125.179,-3768.72 L -125.687,-3768.35 L -126,-3768.06 L -126,-3769.49 L -129,-3769.49
 L -129,-3574.51 L -126,-3574.51 z
M -122.251,-3576.01 L -122.75,-3576.07 L -123.236,-3576.2 L -123.703,-3576.38 L -124.143,-3576.62 L -124.55,-3576.92
 L -124.916,-3577.26 L -125.236,-3577.65 L -125.505,-3578.07 L -125.719,-3578.53 L -125.874,-3579.01 L -125.968,-3579.5
 L -126,-3580 L -126,-3764 L -125.968,-3764.5 L -125.874,-3764.99 L -125.719,-3765.47 L -125.505,-3765.93
 L -125.236,-3766.35 L -124.916,-3766.74 L -124.55,-3767.08 L -124.143,-3767.38 L -123.703,-3767.62 L -123.236,-3767.8
 L -122.75,-3767.93 L -122.251,-3767.99 L 122.251,-3767.99 L 122.75,-3767.93 L 123.236,-3767.8 L 123.703,-3767.62
 L 124.143,-3767.38 L 124.55,-3767.08 L 124.916,-3766.74 L 125.236,-3766.35 L 125.505,-3765.93 L 125.719,-3765.47
 L 125.874,-3764.99 L 125.968,-3764.5 L 126,-3764 L 126,-3580 L 125.968,-3579.5 L 125.874,-3579.01
 L 125.719,-3578.53 L 125.505,-3578.07 L 125.236,-3577.65 L 124.916,-3577.26 L 124.55,-3576.92 L 124.143,-3576.62
 L 123.703,-3576.38 L 123.236,-3576.2 L 122.75,-3576.07 L 122.251,-3576.01 z
M -126,-3371.94 L -125.687,-3371.65 L -125.179,-3371.28 L -124.629,-3370.98 L -124.045,-3370.74 L -123.437,-3370.59
 L -122.814,-3370.51 L 122.814,-3370.51 L 123.437,-3370.59 L 124.045,-3370.74 L 124.629,-3370.98 L 125.179,-3371.28
 L 125.687,-3371.65 L 126.145,-3372.08 L 126.545,-3372.56 L 126.882,-3373.09 L 127.149,-3373.66 L 127.343,-3374.26
 L 127.461,-3374.87 L 127.5,-3375.5 L 127.5,-3560.5 L 127.461,-3561.13 L 127.343,-3561.74 L 127.149,-3562.34
 L 126.882,-3562.91 L 126.545,-3563.44 L 126.145,-3563.92 L 125.687,-3564.35 L 125.179,-3564.72 L 124.629,-3565.02
 L 124.045,-3565.26 L 123.437,-3565.41 L 122.814,-3565.49 L -122.814,-3565.49 L -123.437,-3565.41 L -124.045,-3565.26
 L -124.629,-3565.02 L -125.179,-3564.72 L -125.687,-3564.35 L -126,-3564.06 L -126,-3565.49 L -129,-3565.49
 L -129,-3370.51 L -126,-3370.51 z
M -122.251,-3372.01 L -122.75,-3372.07 L -123.236,-3372.2 L -123.703,-3372.38 L -124.143,-3372.62 L -124.55,-3372.92
 L -124.916,-3373.26 L -125.236,-3373.65 L -125.505,-3374.07 L -125.719,-3374.53 L -125.874,-3375.01 L -125.968,-3375.5
 L -126,-3376 L -126,-3560 L -125.968,-3560.5 L -125.874,-3560.99 L -125.719,-3561.47 L -125.505,-3561.93
 L -125.236,-3562.35 L -124.916,-3562.74 L -124.55,-3563.08 L -124.143,-3563.38 L -123.703,-3563.62 L -123.236,-3563.8
 L -122.75,-3563.93 L -122.251,-3563.99 L 122.251,-3563.99 L 122.75,-3563.93 L 123.236,-3563.8 L 123.703,-3563.62
 L 124.143,-3563.38 L 124.55,-3563.08 L 124.916,-3562.74 L 125.236,-3562.35 L 125.505,-3561.93 L 125.719,-3561.47
 L 125.874,-3560.99 L 125.968,-3560.5 L 126,-3560 L 126,-3376 L 125.968,-3375.5 L 125.874,-3375.01
 L 125.719,-3374.53 L 125.505,-3374.07 L 125.236,-3373.65 L 124.916,-3373.26 L 124.55,-3372.92 L 124.143,-3372.62
 L 123.703,-3372.38 L 123.236,-3372.2 L 122.75,-3372.07 L 122.251,-3372.01 z
M 123.437,-3166.59 L 124.045,-3166.74 L 124.629,-3166.98 L 125.179,-3167.28 L 125.687,-3167.65 L 126.145,-3168.08
 L 126.545,-3168.56 L 126.882,-3169.09 L 127.149,-3169.66 L 127.343,-3170.26 L 127.461,-3170.87 L 127.5,-3171.5
 L 127.5,-3356.5 L 127.461,-3357.13 L 127.343,-3357.74 L 127.149,-3358.34 L 126.882,-3358.91 L 126.545,-3359.44
 L 126.145,-3359.92 L 125.687,-3360.35 L 125.179,-3360.72 L 124.629,-3361.02 L 124.045,-3361.26 L 123.437,-3361.41
 L 122.814,-3361.49 L -122.814,-3361.49 L -123.437,-3361.41 L -124.045,-3361.26 L -124.629,-3361.02 L -125.179,-3360.72
 L -125.687,-3360.35 L -126,-3360.06 L -126,-3361.48 L -129,-3361.48 L -129,-3166.52 L -126,-3166.52
 L -126,-3167.94 L -125.687,-3167.65 L -125.179,-3167.28 L -124.629,-3166.98 L -124.045,-3166.74 L -123.437,-3166.59
 L -122.814,-3166.51 L 122.814,-3166.51 z
M -122.195,-3168.89 L -122.583,-3168.94 L -122.962,-3169.04 L -123.325,-3169.18 L -123.668,-3169.37 L -123.984,-3169.6
 L -124.269,-3169.87 L -124.518,-3170.17 L -124.728,-3170.5 L -124.894,-3170.85 L -125.015,-3171.23 L -125.088,-3171.61
 L -125.113,-3172 L -125.113,-3356 L -125.088,-3356.39 L -125.015,-3356.77 L -124.894,-3357.15 L -124.728,-3357.5
 L -124.518,-3357.83 L -124.269,-3358.13 L -123.984,-3358.4 L -123.668,-3358.63 L -123.325,-3358.82 L -122.962,-3358.96
 L -122.583,-3359.06 L -122.195,-3359.11 L 122.195,-3359.11 L 122.583,-3359.06 L 122.962,-3358.96 L 123.325,-3358.82
 L 123.668,-3358.63 L 123.984,-3358.4 L 124.269,-3358.13 L 124.518,-3357.83 L 124.728,-3357.5 L 124.894,-3357.15
 L 125.015,-3356.77 L 125.088,-3356.39 L 125.113,-3356 L 125.113,-3172 L 125.088,-3171.61 L 125.015,-3171.23
 L 124.894,-3170.85 L 124.728,-3170.5 L 124.518,-3170.17 L 124.269,-3169.87 L 123.984,-3169.6 L 123.668,-3169.37
 L 123.325,-3169.18 L 122.962,-3169.04 L 122.583,-3168.94 L 122.195,-3168.89 z
M 123.437,-2962.59 L 124.045,-2962.74 L 124.629,-2962.98 L 125.179,-2963.28 L 125.687,-2963.65 L 126.145,-2964.08
 L 126.545,-2964.56 L 126.882,-2965.09 L 127.149,-2965.66 L 127.343,-2966.26 L 127.461,-2966.87 L 127.5,-2967.5
 L 127.5,-3152.5 L 127.461,-3153.13 L 127.343,-3153.74 L 127.149,-3154.34 L 126.882,-3154.91 L 126.545,-3155.44
 L 126.145,-3155.92 L 125.687,-3156.35 L 125.179,-3156.72 L 124.629,-3157.02 L 124.045,-3157.26 L 123.437,-3157.41
 L 122.814,-3157.49 L -122.814,-3157.49 L -123.437,-3157.41 L -124.045,-3157.26 L -124.629,-3157.02 L -125.179,-3156.72
 L -125.687,-3156.35 L -126,-3156.06 L -126,-3156.15 L -129,-3156.15 L -129,-2963.85 L -126,-2963.85
 L -126,-2963.94 L -125.687,-2963.65 L -125.179,-2963.28 L -124.629,-2962.98 L -124.045,-2962.74 L -123.437,-2962.59
 L -122.814,-2962.51 L 122.814,-2962.51 z
M -120.134,-3147.87 L -120.4,-3147.9 L -120.66,-3147.97 L -120.909,-3148.07 L -121.144,-3148.2 L -121.361,-3148.35
 L -121.557,-3148.54 L -121.727,-3148.74 L -121.871,-3148.97 L -121.985,-3149.21 L -122.068,-3149.47 L -122.118,-3149.73
 L -122.135,-3150 L -122.118,-3150.27 L -122.068,-3150.53 L -121.985,-3150.79 L -121.871,-3151.03 L -121.727,-3151.26
 L -121.557,-3151.46 L -121.361,-3151.65 L -121.144,-3151.8 L -120.909,-3151.93 L -120.66,-3152.03 L -120.4,-3152.1
 L -120.134,-3152.13 L -119.866,-3152.13 L -119.6,-3152.1 L -119.34,-3152.03 L -119.091,-3151.93 L -118.856,-3151.8
 L -118.639,-3151.65 L -118.443,-3151.46 L -118.273,-3151.26 L -118.129,-3151.03 L -118.015,-3150.79 L -117.932,-3150.53
 L -117.882,-3150.27 L -117.865,-3150 L -117.882,-3149.73 L -117.932,-3149.47 L -118.015,-3149.21 L -118.129,-3148.97
 L -118.273,-3148.74 L -118.443,-3148.54 L -118.639,-3148.35 L -118.856,-3148.2 L -119.091,-3148.07 L -119.34,-3147.97
 L -119.6,-3147.9 L -119.866,-3147.87 z
M 119.866,-3147.87 L 119.6,-3147.9 L 119.34,-3147.97 L 119.091,-3148.07 L 118.856,-3148.2 L 118.639,-3148.35
 L 118.443,-3148.54 L 118.273,-3148.74 L 118.129,-3148.97 L 118.015,-3149.21 L 117.932,-3149.47 L 117.882,-3149.73
 L 117.865,-3150 L 117.882,-3150.27 L 117.932,-3150.53 L 118.015,-3150.79 L 118.129,-3151.03 L 118.273,-3151.26
 L 118.443,-3151.46 L 118.639,-3151.65 L 118.856,-3151.8 L 119.091,-3151.93 L 119.34,-3152.03 L 119.6,-3152.1
 L 119.866,-3152.13 L 120.134,-3152.13 L 120.4,-3152.1 L 120.66,-3152.03 L 120.909,-3151.93 L 121.144,-3151.8
 L 121.361,-3151.65 L 121.557,-3151.46 L 121.727,-3151.26 L 121.871,-3151.03 L 121.985,-3150.79 L 122.068,-3150.53
 L 122.118,-3150.27 L 122.135,-3150 L 122.118,-3149.73 L 122.068,-3149.47 L 121.985,-3149.21 L 121.871,-3148.97
 L 121.727,-3148.74 L 121.557,-3148.54 L 121.361,-3148.35 L 121.144,-3148.2 L 120.909,-3148.07 L 120.66,-3147.97
 L 120.4,-3147.9 L 120.134,-3147.87 z
M -120.134,-2967.87 L -120.4,-2967.9 L -120.66,-2967.97 L -120.909,-2968.07 L -121.144,-2968.2 L -121.361,-2968.35
 L -121.557,-2968.54 L -121.727,-2968.74 L -121.871,-2968.97 L -121.985,-2969.21 L -122.068,-2969.47 L -122.118,-2969.73
 L -122.135,-2970 L -122.118,-2970.27 L -122.068,-2970.53 L -121.985,-2970.79 L -121.871,-2971.03 L -121.727,-2971.26
 L -121.557,-2971.46 L -121.361,-2971.65 L -121.144,-2971.8 L -120.909,-2971.93 L -120.66,-2972.03 L -120.4,-2972.1
 L -120.134,-2972.13 L -119.866,-2972.13 L -119.6,-2972.1 L -119.34,-2972.03 L -119.091,-2971.93 L -118.856,-2971.8
 L -118.639,-2971.65 L -118.443,-2971.46 L -118.273,-2971.26 L -118.129,-2971.03 L -118.015,-2970.79 L -117.932,-2970.53
 L -117.882,-2970.27 L -117.865,-2970 L -117.882,-2969.73 L -117.932,-2969.47 L -118.015,-2969.21 L -118.129,-2968.97
 L -118.273,-2968.74 L -118.443,-2968.54 L -118.639,-2968.35 L -118.856,-2968.2 L -119.091,-2968.07 L -119.34,-2967.97
 L -119.6,-2967.9 L -119.866,-2967.87 z
M 119.866,-2967.87 L 119.6,-2967.9 L 119.34,-2967.97 L 119.091,-2968.07 L 118.856,-2968.2 L 118.639,-2968.35
 L 118.443,-2968.54 L 118.273,-2968.74 L 118.129,-2968.97 L 118.015,-2969.21 L 117.932,-2969.47 L 117.882,-2969.73
 L 117.865,-2970 L 117.882,-2970.27 L 117.932,-2970.53 L 118.015,-2970.79 L 118.129,-2971.03 L 118.273,-2971.26
 L 118.443,-2971.46 L 118.639,-2971.65 L 118.856,-2971.8 L 119.091,-2971.93 L 119.34,-2972.03 L 119.6,-2972.1
 L 119.866,-2972.13 L 120.134,-2972.13 L 120.4,-2972.1 L 120.66,-2972.03 L 120.909,-2971.93 L 121.144,-2971.8
 L 121.361,-2971.65 L 121.557,-2971.46 L 121.727,-2971.26 L 121.871,-2971.03 L 121.985,-2970.79 L 122.068,-2970.53
 L 122.118,-2970.27 L 122.135,-2970 L 122.118,-2969.73 L 122.068,-2969.47 L 121.985,-2969.21 L 121.871,-2968.97
 L 121.727,-2968.74 L 121.557,-2968.54 L 121.361,-2968.35 L 121.144,-2968.2 L 120.909,-2968.07 L 120.66,-2967.97
 L 120.4,-2967.9 L 120.134,-2967.87 z
" stroke="black" fill="lightgray" stroke-width="0.5"/>
</svg>
