  0
SECTION
  2
BLOCKS
  0
ENDSEC
  0
SECTION
  2
ENTITIES
  0
LINE
  8
0
 10
-133.5
 20
1624.44
 11
-133.187
 21
1624.15
  0
LINE
  8
0
 10
-133.187
 20
1624.15
 11
-132.679
 21
1623.78
  0
LINE
  8
0
 10
-132.679
 20
1623.78
 11
-132.129
 21
1623.48
  0
LINE
  8
0
 10
-132.129
 20
1623.48
 11
-131.545
 21
1623.24
  0
LINE
  8
0
 10
-131.545
 20
1623.24
 11
-130.937
 21
1623.09
  0
LINE
  8
0
 10
-130.937
 20
1623.09
 11
-130.314
 21
1623.01
  0
LINE
  8
0
 10
-130.314
 20
1623.01
 11
130.314
 21
1623.01
  0
LINE
  8
0
 10
130.314
 20
1623.01
 11
130.937
 21
1623.09
  0
LINE
  8
0
 10
130.937
 20
1623.09
 11
131.545
 21
1623.24
  0
LINE
  8
0
 10
131.545
 20
1623.24
 11
132.129
 21
1623.48
  0
LINE
  8
0
 10
132.129
 20
1623.48
 11
132.679
 21
1623.78
  0
LINE
  8
0
 10
132.679
 20
1623.78
 11
133.187
 21
1624.15
  0
LINE
  8
0
 10
133.187
 20
1624.15
 11
133.645
 21
1624.58
  0
LINE
  8
0
 10
133.645
 20
1624.58
 11
134.045
 21
1625.06
  0
LINE
  8
0
 10
134.045
 20
1625.06
 11
134.382
 21
1625.59
  0
LINE
  8
0
 10
134.382
 20
1625.59
 11
134.649
 21
1626.16
  0
LINE
  8
0
 10
134.649
 20
1626.16
 11
134.843
 21
1626.76
  0
LINE
  8
0
 10
134.843
 20
1626.76
 11
134.961
 21
1627.37
  0
LINE
  8
0
 10
134.961
 20
1627.37
 11
135
 21
1628
  0
LINE
  8
0
 10
135
 20
1628
 11
135
 21
1858
  0
LINE
  8
0
 10
135
 20
1858
 11
134.961
 21
1858.63
  0
LINE
  8
0
 10
134.961
 20
1858.63
 11
134.843
 21
1859.24
  0
LINE
  8
0
 10
134.843
 20
1859.24
 11
134.649
 21
1859.84
  0
LINE
  8
0
 10
134.649
 20
1859.84
 11
134.382
 21
1860.41
  0
LINE
  8
0
 10
134.382
 20
1860.41
 11
134.045
 21
1860.94
  0
LINE
  8
0
 10
134.045
 20
1860.94
 11
133.645
 21
1861.42
  0
LINE
  8
0
 10
133.645
 20
1861.42
 11
133.187
 21
1861.85
  0
LINE
  8
0
 10
133.187
 20
1861.85
 11
132.679
 21
1862.22
  0
LINE
  8
0
 10
132.679
 20
1862.22
 11
132.129
 21
1862.52
  0
LINE
  8
0
 10
132.129
 20
1862.52
 11
131.545
 21
1862.76
  0
LINE
  8
0
 10
131.545
 20
1862.76
 11
130.937
 21
1862.91
  0
LINE
  8
0
 10
130.937
 20
1862.91
 11
130.314
 21
1862.99
  0
LINE
  8
0
 10
130.314
 20
1862.99
 11
-130.314
 21
1862.99
  0
LINE
  8
0
 10
-130.314
 20
1862.99
 11
-130.937
 21
1862.91
  0
LINE
  8
0
 10
-130.937
 20
1862.91
 11
-131.545
 21
1862.76
  0
LINE
  8
0
 10
-131.545
 20
1862.76
 11
-132.129
 21
1862.52
  0
LINE
  8
0
 10
-132.129
 20
1862.52
 11
-132.679
 21
1862.22
  0
LINE
  8
0
 10
-132.679
 20
1862.22
 11
-133.187
 21
1861.85
  0
LINE
  8
0
 10
-133.187
 20
1861.85
 11
-133.5
 21
1861.56
  0
LINE
  8
0
 10
-133.5
 20
1861.56
 11
-133.5
 21
1862.99
  0
LINE
  8
0
 10
-133.5
 20
1862.99
 11
-136.5
 21
1862.99
  0
LINE
  8
0
 10
-136.5
 20
1862.99
 11
-136.5
 21
1623.01
  0
LINE
  8
0
 10
-136.5
 20
1623.01
 11
-133.5
 21
1623.01
  0
LINE
  8
0
 10
-133.5
 20
1623.01
 11
-133.5
 21
1624.44
  0
LINE
  8
0
 10
-129.751
 20
1624.51
 11
-130.25
 21
1624.57
  0
LINE
  8
0
 10
-130.25
 20
1624.57
 11
-130.736
 21
1624.7
  0
LINE
  8
0
 10
-130.736
 20
1624.7
 11
-131.203
 21
1624.88
  0
LINE
  8
0
 10
-131.203
 20
1624.88
 11
-131.643
 21
1625.12
  0
LINE
  8
0
 10
-131.643
 20
1625.12
 11
-132.05
 21
1625.42
  0
LINE
  8
0
 10
-132.05
 20
1625.42
 11
-132.416
 21
1625.76
  0
LINE
  8
0
 10
-132.416
 20
1625.76
 11
-132.736
 21
1626.15
  0
LINE
  8
0
 10
-132.736
 20
1626.15
 11
-133.005
 21
1626.57
  0
LINE
  8
0
 10
-133.005
 20
1626.57
 11
-133.219
 21
1627.03
  0
LINE
  8
0
 10
-133.219
 20
1627.03
 11
-133.374
 21
1627.51
  0
LINE
  8
0
 10
-133.374
 20
1627.51
 11
-133.468
 21
1628
  0
LINE
  8
0
 10
-133.468
 20
1628
 11
-133.5
 21
1628.5
  0
LINE
  8
0
 10
-133.5
 20
1628.5
 11
-133.5
 21
1857.5
  0
LINE
  8
0
 10
-133.5
 20
1857.5
 11
-133.468
 21
1858
  0
LINE
  8
0
 10
-133.468
 20
1858
 11
-133.374
 21
1858.49
  0
LINE
  8
0
 10
-133.374
 20
1858.49
 11
-133.219
 21
1858.97
  0
LINE
  8
0
 10
-133.219
 20
1858.97
 11
-133.005
 21
1859.43
  0
LINE
  8
0
 10
-133.005
 20
1859.43
 11
-132.736
 21
1859.85
  0
LINE
  8
0
 10
-132.736
 20
1859.85
 11
-132.416
 21
1860.24
  0
LINE
  8
0
 10
-132.416
 20
1860.24
 11
-132.05
 21
1860.58
  0
LINE
  8
0
 10
-132.05
 20
1860.58
 11
-131.643
 21
1860.88
  0
LINE
  8
0
 10
-131.643
 20
1860.88
 11
-131.203
 21
1861.12
  0
LINE
  8
0
 10
-131.203
 20
1861.12
 11
-130.736
 21
1861.3
  0
LINE
  8
0
 10
-130.736
 20
1861.3
 11
-130.25
 21
1861.43
  0
LINE
  8
0
 10
-130.25
 20
1861.43
 11
-129.751
 21
1861.49
  0
LINE
  8
0
 10
-129.751
 20
1861.49
 11
129.751
 21
1861.49
  0
LINE
  8
0
 10
129.751
 20
1861.49
 11
130.25
 21
1861.43
  0
LINE
  8
0
 10
130.25
 20
1861.43
 11
130.736
 21
1861.3
  0
LINE
  8
0
 10
130.736
 20
1861.3
 11
131.203
 21
1861.12
  0
LINE
  8
0
 10
131.203
 20
1861.12
 11
131.643
 21
1860.88
  0
LINE
  8
0
 10
131.643
 20
1860.88
 11
132.05
 21
1860.58
  0
LINE
  8
0
 10
132.05
 20
1860.58
 11
132.416
 21
1860.24
  0
LINE
  8
0
 10
132.416
 20
1860.24
 11
132.736
 21
1859.85
  0
LINE
  8
0
 10
132.736
 20
1859.85
 11
133.005
 21
1859.43
  0
LINE
  8
0
 10
133.005
 20
1859.43
 11
133.219
 21
1858.97
  0
LINE
  8
0
 10
133.219
 20
1858.97
 11
133.374
 21
1858.49
  0
LINE
  8
0
 10
133.374
 20
1858.49
 11
133.468
 21
1858
  0
LINE
  8
0
 10
133.468
 20
1858
 11
133.5
 21
1857.5
  0
LINE
  8
0
 10
133.5
 20
1857.5
 11
133.5
 21
1628.5
  0
LINE
  8
0
 10
133.5
 20
1628.5
 11
133.468
 21
1628
  0
LINE
  8
0
 10
133.468
 20
1628
 11
133.374
 21
1627.51
  0
LINE
  8
0
 10
133.374
 20
1627.51
 11
133.219
 21
1627.03
  0
LINE
  8
0
 10
133.219
 20
1627.03
 11
133.005
 21
1626.57
  0
LINE
  8
0
 10
133.005
 20
1626.57
 11
132.736
 21
1626.15
  0
LINE
  8
0
 10
132.736
 20
1626.15
 11
132.416
 21
1625.76
  0
LINE
  8
0
 10
132.416
 20
1625.76
 11
132.05
 21
1625.42
  0
LINE
  8
0
 10
132.05
 20
1625.42
 11
131.643
 21
1625.12
  0
LINE
  8
0
 10
131.643
 20
1625.12
 11
131.203
 21
1624.88
  0
LINE
  8
0
 10
131.203
 20
1624.88
 11
130.736
 21
1624.7
  0
LINE
  8
0
 10
130.736
 20
1624.7
 11
130.25
 21
1624.57
  0
LINE
  8
0
 10
130.25
 20
1624.57
 11
129.751
 21
1624.51
  0
LINE
  8
0
 10
129.751
 20
1624.51
 11
-129.751
 21
1624.51
  0
LINE
  8
0
 10
-133.5
 20
1375.44
 11
-133.187
 21
1375.15
  0
LINE
  8
0
 10
-133.187
 20
1375.15
 11
-132.679
 21
1374.78
  0
LINE
  8
0
 10
-132.679
 20
1374.78
 11
-132.129
 21
1374.48
  0
LINE
  8
0
 10
-132.129
 20
1374.48
 11
-131.545
 21
1374.24
  0
LINE
  8
0
 10
-131.545
 20
1374.24
 11
-130.937
 21
1374.09
  0
LINE
  8
0
 10
-130.937
 20
1374.09
 11
-130.314
 21
1374.01
  0
LINE
  8
0
 10
-130.314
 20
1374.01
 11
130.314
 21
1374.01
  0
LINE
  8
0
 10
130.314
 20
1374.01
 11
130.937
 21
1374.09
  0
LINE
  8
0
 10
130.937
 20
1374.09
 11
131.545
 21
1374.24
  0
LINE
  8
0
 10
131.545
 20
1374.24
 11
132.129
 21
1374.48
  0
LINE
  8
0
 10
132.129
 20
1374.48
 11
132.679
 21
1374.78
  0
LINE
  8
0
 10
132.679
 20
1374.78
 11
133.187
 21
1375.15
  0
LINE
  8
0
 10
133.187
 20
1375.15
 11
133.645
 21
1375.58
  0
LINE
  8
0
 10
133.645
 20
1375.58
 11
134.045
 21
1376.06
  0
LINE
  8
0
 10
134.045
 20
1376.06
 11
134.382
 21
1376.59
  0
LINE
  8
0
 10
134.382
 20
1376.59
 11
134.649
 21
1377.16
  0
LINE
  8
0
 10
134.649
 20
1377.16
 11
134.843
 21
1377.76
  0
LINE
  8
0
 10
134.843
 20
1377.76
 11
134.961
 21
1378.37
  0
LINE
  8
0
 10
134.961
 20
1378.37
 11
135
 21
1379
  0
LINE
  8
0
 10
135
 20
1379
 11
135
 21
1609
  0
LINE
  8
0
 10
135
 20
1609
 11
134.961
 21
1609.63
  0
LINE
  8
0
 10
134.961
 20
1609.63
 11
134.843
 21
1610.24
  0
LINE
  8
0
 10
134.843
 20
1610.24
 11
134.649
 21
1610.84
  0
LINE
  8
0
 10
134.649
 20
1610.84
 11
134.382
 21
1611.41
  0
LINE
  8
0
 10
134.382
 20
1611.41
 11
134.045
 21
1611.94
  0
LINE
  8
0
 10
134.045
 20
1611.94
 11
133.645
 21
1612.42
  0
LINE
  8
0
 10
133.645
 20
1612.42
 11
133.187
 21
1612.85
  0
LINE
  8
0
 10
133.187
 20
1612.85
 11
132.679
 21
1613.22
  0
LINE
  8
0
 10
132.679
 20
1613.22
 11
132.129
 21
1613.52
  0
LINE
  8
0
 10
132.129
 20
1613.52
 11
131.545
 21
1613.76
  0
LINE
  8
0
 10
131.545
 20
1613.76
 11
130.937
 21
1613.91
  0
LINE
  8
0
 10
130.937
 20
1613.91
 11
130.314
 21
1613.99
  0
LINE
  8
0
 10
130.314
 20
1613.99
 11
-130.314
 21
1613.99
  0
LINE
  8
0
 10
-130.314
 20
1613.99
 11
-130.937
 21
1613.91
  0
LINE
  8
0
 10
-130.937
 20
1613.91
 11
-131.545
 21
1613.76
  0
LINE
  8
0
 10
-131.545
 20
1613.76
 11
-132.129
 21
1613.52
  0
LINE
  8
0
 10
-132.129
 20
1613.52
 11
-132.679
 21
1613.22
  0
LINE
  8
0
 10
-132.679
 20
1613.22
 11
-133.187
 21
1612.85
  0
LINE
  8
0
 10
-133.187
 20
1612.85
 11
-133.5
 21
1612.56
  0
LINE
  8
0
 10
-133.5
 20
1612.56
 11
-133.5
 21
1613.99
  0
LINE
  8
0
 10
-133.5
 20
1613.99
 11
-136.5
 21
1613.99
  0
LINE
  8
0
 10
-136.5
 20
1613.99
 11
-136.5
 21
1374.01
  0
LINE
  8
0
 10
-136.5
 20
1374.01
 11
-133.5
 21
1374.01
  0
LINE
  8
0
 10
-133.5
 20
1374.01
 11
-133.5
 21
1375.44
  0
LINE
  8
0
 10
-129.751
 20
1375.51
 11
-130.25
 21
1375.57
  0
LINE
  8
0
 10
-130.25
 20
1375.57
 11
-130.736
 21
1375.7
  0
LINE
  8
0
 10
-130.736
 20
1375.7
 11
-131.203
 21
1375.88
  0
LINE
  8
0
 10
-131.203
 20
1375.88
 11
-131.643
 21
1376.12
  0
LINE
  8
0
 10
-131.643
 20
1376.12
 11
-132.05
 21
1376.42
  0
LINE
  8
0
 10
-132.05
 20
1376.42
 11
-132.416
 21
1376.76
  0
LINE
  8
0
 10
-132.416
 20
1376.76
 11
-132.736
 21
1377.15
  0
LINE
  8
0
 10
-132.736
 20
1377.15
 11
-133.005
 21
1377.57
  0
LINE
  8
0
 10
-133.005
 20
1377.57
 11
-133.219
 21
1378.03
  0
LINE
  8
0
 10
-133.219
 20
1378.03
 11
-133.374
 21
1378.51
  0
LINE
  8
0
 10
-133.374
 20
1378.51
 11
-133.468
 21
1379
  0
LINE
  8
0
 10
-133.468
 20
1379
 11
-133.5
 21
1379.5
  0
LINE
  8
0
 10
-133.5
 20
1379.5
 11
-133.5
 21
1608.5
  0
LINE
  8
0
 10
-133.5
 20
1608.5
 11
-133.468
 21
1609
  0
LINE
  8
0
 10
-133.468
 20
1609
 11
-133.374
 21
1609.49
  0
LINE
  8
0
 10
-133.374
 20
1609.49
 11
-133.219
 21
1609.97
  0
LINE
  8
0
 10
-133.219
 20
1609.97
 11
-133.005
 21
1610.43
  0
LINE
  8
0
 10
-133.005
 20
1610.43
 11
-132.736
 21
1610.85
  0
LINE
  8
0
 10
-132.736
 20
1610.85
 11
-132.416
 21
1611.24
  0
LINE
  8
0
 10
-132.416
 20
1611.24
 11
-132.05
 21
1611.58
  0
LINE
  8
0
 10
-132.05
 20
1611.58
 11
-131.643
 21
1611.88
  0
LINE
  8
0
 10
-131.643
 20
1611.88
 11
-131.203
 21
1612.12
  0
LINE
  8
0
 10
-131.203
 20
1612.12
 11
-130.736
 21
1612.3
  0
LINE
  8
0
 10
-130.736
 20
1612.3
 11
-130.25
 21
1612.43
  0
LINE
  8
0
 10
-130.25
 20
1612.43
 11
-129.751
 21
1612.49
  0
LINE
  8
0
 10
-129.751
 20
1612.49
 11
129.751
 21
1612.49
  0
LINE
  8
0
 10
129.751
 20
1612.49
 11
130.25
 21
1612.43
  0
LINE
  8
0
 10
130.25
 20
1612.43
 11
130.736
 21
1612.3
  0
LINE
  8
0
 10
130.736
 20
1612.3
 11
131.203
 21
1612.12
  0
LINE
  8
0
 10
131.203
 20
1612.12
 11
131.643
 21
1611.88
  0
LINE
  8
0
 10
131.643
 20
1611.88
 11
132.05
 21
1611.58
  0
LINE
  8
0
 10
132.05
 20
1611.58
 11
132.416
 21
1611.24
  0
LINE
  8
0
 10
132.416
 20
1611.24
 11
132.736
 21
1610.85
  0
LINE
  8
0
 10
132.736
 20
1610.85
 11
133.005
 21
1610.43
  0
LINE
  8
0
 10
133.005
 20
1610.43
 11
133.219
 21
1609.97
  0
LINE
  8
0
 10
133.219
 20
1609.97
 11
133.374
 21
1609.49
  0
LINE
  8
0
 10
133.374
 20
1609.49
 11
133.468
 21
1609
  0
LINE
  8
0
 10
133.468
 20
1609
 11
133.5
 21
1608.5
  0
LINE
  8
0
 10
133.5
 20
1608.5
 11
133.5
 21
1379.5
  0
LINE
  8
0
 10
133.5
 20
1379.5
 11
133.468
 21
1379
  0
LINE
  8
0
 10
133.468
 20
1379
 11
133.374
 21
1378.51
  0
LINE
  8
0
 10
133.374
 20
1378.51
 11
133.219
 21
1378.03
  0
LINE
  8
0
 10
133.219
 20
1378.03
 11
133.005
 21
1377.57
  0
LINE
  8
0
 10
133.005
 20
1377.57
 11
132.736
 21
1377.15
  0
LINE
  8
0
 10
132.736
 20
1377.15
 11
132.416
 21
1376.76
  0
LINE
  8
0
 10
132.416
 20
1376.76
 11
132.05
 21
1376.42
  0
LINE
  8
0
 10
132.05
 20
1376.42
 11
131.643
 21
1376.12
  0
LINE
  8
0
 10
131.643
 20
1376.12
 11
131.203
 21
1375.88
  0
LINE
  8
0
 10
131.203
 20
1375.88
 11
130.736
 21
1375.7
  0
LINE
  8
0
 10
130.736
 20
1375.7
 11
130.25
 21
1375.57
  0
LINE
  8
0
 10
130.25
 20
1375.57
 11
129.751
 21
1375.51
  0
LINE
  8
0
 10
129.751
 20
1375.51
 11
-129.751
 21
1375.51
  0
LINE
  8
0
 10
130.937
 20
1125.09
 11
131.545
 21
1125.24
  0
LINE
  8
0
 10
131.545
 20
1125.24
 11
132.129
 21
1125.48
  0
LINE
  8
0
 10
132.129
 20
1125.48
 11
132.679
 21
1125.78
  0
LINE
  8
0
 10
132.679
 20
1125.78
 11
133.187
 21
1126.15
  0
LINE
  8
0
 10
133.187
 20
1126.15
 11
133.645
 21
1126.58
  0
LINE
  8
0
 10
133.645
 20
1126.58
 11
134.045
 21
1127.06
  0
LINE
  8
0
 10
134.045
 20
1127.06
 11
134.382
 21
1127.59
  0
LINE
  8
0
 10
134.382
 20
1127.59
 11
134.649
 21
1128.16
  0
LINE
  8
0
 10
134.649
 20
1128.16
 11
134.843
 21
1128.76
  0
LINE
  8
0
 10
134.843
 20
1128.76
 11
134.961
 21
1129.37
  0
LINE
  8
0
 10
134.961
 20
1129.37
 11
135
 21
1130
  0
LINE
  8
0
 10
135
 20
1130
 11
135
 21
1360
  0
LINE
  8
0
 10
135
 20
1360
 11
134.961
 21
1360.63
  0
LINE
  8
0
 10
134.961
 20
1360.63
 11
134.843
 21
1361.24
  0
LINE
  8
0
 10
134.843
 20
1361.24
 11
134.649
 21
1361.84
  0
LINE
  8
0
 10
134.649
 20
1361.84
 11
134.382
 21
1362.41
  0
LINE
  8
0
 10
134.382
 20
1362.41
 11
134.045
 21
1362.94
  0
LINE
  8
0
 10
134.045
 20
1362.94
 11
133.645
 21
1363.42
  0
LINE
  8
0
 10
133.645
 20
1363.42
 11
133.187
 21
1363.85
  0
LINE
  8
0
 10
133.187
 20
1363.85
 11
132.679
 21
1364.22
  0
LINE
  8
0
 10
132.679
 20
1364.22
 11
132.129
 21
1364.52
  0
LINE
  8
0
 10
132.129
 20
1364.52
 11
131.545
 21
1364.76
  0
LINE
  8
0
 10
131.545
 20
1364.76
 11
130.937
 21
1364.91
  0
LINE
  8
0
 10
130.937
 20
1364.91
 11
130.314
 21
1364.99
  0
LINE
  8
0
 10
130.314
 20
1364.99
 11
-130.314
 21
1364.99
  0
LINE
  8
0
 10
-130.314
 20
1364.99
 11
-130.937
 21
1364.91
  0
LINE
  8
0
 10
-130.937
 20
1364.91
 11
-131.545
 21
1364.76
  0
LINE
  8
0
 10
-131.545
 20
1364.76
 11
-132.129
 21
1364.52
  0
LINE
  8
0
 10
-132.129
 20
1364.52
 11
-132.679
 21
1364.22
  0
LINE
  8
0
 10
-132.679
 20
1364.22
 11
-133.187
 21
1363.85
  0
LINE
  8
0
 10
-133.187
 20
1363.85
 11
-133.5
 21
1363.56
  0
LINE
  8
0
 10
-133.5
 20
1363.56
 11
-133.5
 21
1364.98
  0
LINE
  8
0
 10
-133.5
 20
1364.98
 11
-136.5
 21
1364.98
  0
LINE
  8
0
 10
-136.5
 20
1364.98
 11
-136.5
 21
1125.02
  0
LINE
  8
0
 10
-136.5
 20
1125.02
 11
-133.5
 21
1125.02
  0
LINE
  8
0
 10
-133.5
 20
1125.02
 11
-133.5
 21
1126.44
  0
LINE
  8
0
 10
-133.5
 20
1126.44
 11
-133.187
 21
1126.15
  0
LINE
  8
0
 10
-133.187
 20
1126.15
 11
-132.679
 21
1125.78
  0
LINE
  8
0
 10
-132.679
 20
1125.78
 11
-132.129
 21
1125.48
  0
LINE
  8
0
 10
-132.129
 20
1125.48
 11
-131.545
 21
1125.24
  0
LINE
  8
0
 10
-131.545
 20
1125.24
 11
-130.937
 21
1125.09
  0
LINE
  8
0
 10
-130.937
 20
1125.09
 11
-130.314
 21
1125.01
  0
LINE
  8
0
 10
-130.314
 20
1125.01
 11
130.314
 21
1125.01
  0
LINE
  8
0
 10
130.314
 20
1125.01
 11
130.937
 21
1125.09
  0
LINE
  8
0
 10
-129.695
 20
1127.39
 11
-130.083
 21
1127.44
  0
LINE
  8
0
 10
-130.083
 20
1127.44
 11
-130.462
 21
1127.54
  0
LINE
  8
0
 10
-130.462
 20
1127.54
 11
-130.825
 21
1127.68
  0
LINE
  8
0
 10
-130.825
 20
1127.68
 11
-131.168
 21
1127.87
  0
LINE
  8
0
 10
-131.168
 20
1127.87
 11
-131.484
 21
1128.1
  0
LINE
  8
0
 10
-131.484
 20
1128.1
 11
-131.769
 21
1128.37
  0
LINE
  8
0
 10
-131.769
 20
1128.37
 11
-132.018
 21
1128.67
  0
LINE
  8
0
 10
-132.018
 20
1128.67
 11
-132.228
 21
1129
  0
LINE
  8
0
 10
-132.228
 20
1129
 11
-132.394
 21
1129.35
  0
LINE
  8
0
 10
-132.394
 20
1129.35
 11
-132.515
 21
1129.73
  0
LINE
  8
0
 10
-132.515
 20
1129.73
 11
-132.588
 21
1130.11
  0
LINE
  8
0
 10
-132.588
 20
1130.11
 11
-132.613
 21
1130.5
  0
LINE
  8
0
 10
-132.613
 20
1130.5
 11
-132.613
 21
1359.5
  0
LINE
  8
0
 10
-132.613
 20
1359.5
 11
-132.588
 21
1359.89
  0
LINE
  8
0
 10
-132.588
 20
1359.89
 11
-132.515
 21
1360.27
  0
LINE
  8
0
 10
-132.515
 20
1360.27
 11
-132.394
 21
1360.65
  0
LINE
  8
0
 10
-132.394
 20
1360.65
 11
-132.228
 21
1361
  0
LINE
  8
0
 10
-132.228
 20
1361
 11
-132.018
 21
1361.33
  0
LINE
  8
0
 10
-132.018
 20
1361.33
 11
-131.769
 21
1361.63
  0
LINE
  8
0
 10
-131.769
 20
1361.63
 11
-131.484
 21
1361.9
  0
LINE
  8
0
 10
-131.484
 20
1361.9
 11
-131.168
 21
1362.13
  0
LINE
  8
0
 10
-131.168
 20
1362.13
 11
-130.825
 21
1362.32
  0
LINE
  8
0
 10
-130.825
 20
1362.32
 11
-130.462
 21
1362.46
  0
LINE
  8
0
 10
-130.462
 20
1362.46
 11
-130.083
 21
1362.56
  0
LINE
  8
0
 10
-130.083
 20
1362.56
 11
-129.695
 21
1362.61
  0
LINE
  8
0
 10
-129.695
 20
1362.61
 11
129.695
 21
1362.61
  0
LINE
  8
0
 10
129.695
 20
1362.61
 11
130.083
 21
1362.56
  0
LINE
  8
0
 10
130.083
 20
1362.56
 11
130.462
 21
1362.46
  0
LINE
  8
0
 10
130.462
 20
1362.46
 11
130.825
 21
1362.32
  0
LINE
  8
0
 10
130.825
 20
1362.32
 11
131.168
 21
1362.13
  0
LINE
  8
0
 10
131.168
 20
1362.13
 11
131.484
 21
1361.9
  0
LINE
  8
0
 10
131.484
 20
1361.9
 11
131.769
 21
1361.63
  0
LINE
  8
0
 10
131.769
 20
1361.63
 11
132.018
 21
1361.33
  0
LINE
  8
0
 10
132.018
 20
1361.33
 11
132.228
 21
1361
  0
LINE
  8
0
 10
132.228
 20
1361
 11
132.394
 21
1360.65
  0
LINE
  8
0
 10
132.394
 20
1360.65
 11
132.515
 21
1360.27
  0
LINE
  8
0
 10
132.515
 20
1360.27
 11
132.588
 21
1359.89
  0
LINE
  8
0
 10
132.588
 20
1359.89
 11
132.613
 21
1359.5
  0
LINE
  8
0
 10
132.613
 20
1359.5
 11
132.613
 21
1130.5
  0
LINE
  8
0
 10
132.613
 20
1130.5
 11
132.588
 21
1130.11
  0
LINE
  8
0
 10
132.588
 20
1130.11
 11
132.515
 21
1129.73
  0
LINE
  8
0
 10
132.515
 20
1129.73
 11
132.394
 21
1129.35
  0
LINE
  8
0
 10
132.394
 20
1129.35
 11
132.228
 21
1129
  0
LINE
  8
0
 10
132.228
 20
1129
 11
132.018
 21
1128.67
  0
LINE
  8
0
 10
132.018
 20
1128.67
 11
131.769
 21
1128.37
  0
LINE
  8
0
 10
131.769
 20
1128.37
 11
131.484
 21
1128.1
  0
LINE
  8
0
 10
131.484
 20
1128.1
 11
131.168
 21
1127.87
  0
LINE
  8
0
 10
131.168
 20
1127.87
 11
130.825
 21
1127.68
  0
LINE
  8
0
 10
130.825
 20
1127.68
 11
130.462
 21
1127.54
  0
LINE
  8
0
 10
130.462
 20
1127.54
 11
130.083
 21
1127.44
  0
LINE
  8
0
 10
130.083
 20
1127.44
 11
129.695
 21
1127.39
  0
LINE
  8
0
 10
129.695
 20
1127.39
 11
-129.695
 21
1127.39
  0
LINE
  8
0
 10
130.937
 20
876.089
 11
131.545
 21
876.245
  0
LINE
  8
0
 10
131.545
 20
876.245
 11
132.129
 21
876.476
  0
LINE
  8
0
 10
132.129
 20
876.476
 11
132.679
 21
876.778
  0
LINE
  8
0
 10
132.679
 20
876.778
 11
133.187
 21
877.147
  0
LINE
  8
0
 10
133.187
 20
877.147
 11
133.645
 21
877.577
  0
LINE
  8
0
 10
133.645
 20
877.577
 11
134.045
 21
878.061
  0
LINE
  8
0
 10
134.045
 20
878.061
 11
134.382
 21
878.591
  0
LINE
  8
0
 10
134.382
 20
878.591
 11
134.649
 21
879.159
  0
LINE
  8
0
 10
134.649
 20
879.159
 11
134.843
 21
879.757
  0
LINE
  8
0
 10
134.843
 20
879.757
 11
134.961
 21
880.373
  0
LINE
  8
0
 10
134.961
 20
880.373
 11
135
 21
881
  0
LINE
  8
0
 10
135
 20
881
 11
135
 21
1111
  0
LINE
  8
0
 10
135
 20
1111
 11
134.961
 21
1111.63
  0
LINE
  8
0
 10
134.961
 20
1111.63
 11
134.843
 21
1112.24
  0
LINE
  8
0
 10
134.843
 20
1112.24
 11
134.649
 21
1112.84
  0
LINE
  8
0
 10
134.649
 20
1112.84
 11
134.382
 21
1113.41
  0
LINE
  8
0
 10
134.382
 20
1113.41
 11
134.045
 21
1113.94
  0
LINE
  8
0
 10
134.045
 20
1113.94
 11
133.645
 21
1114.42
  0
LINE
  8
0
 10
133.645
 20
1114.42
 11
133.187
 21
1114.85
  0
LINE
  8
0
 10
133.187
 20
1114.85
 11
132.679
 21
1115.22
  0
LINE
  8
0
 10
132.679
 20
1115.22
 11
132.129
 21
1115.52
  0
LINE
  8
0
 10
132.129
 20
1115.52
 11
131.545
 21
1115.76
  0
LINE
  8
0
 10
131.545
 20
1115.76
 11
130.937
 21
1115.91
  0
LINE
  8
0
 10
130.937
 20
1115.91
 11
130.314
 21
1115.99
  0
LINE
  8
0
 10
130.314
 20
1115.99
 11
-130.314
 21
1115.99
  0
LINE
  8
0
 10
-130.314
 20
1115.99
 11
-130.937
 21
1115.91
  0
LINE
  8
0
 10
-130.937
 20
1115.91
 11
-131.545
 21
1115.76
  0
LINE
  8
0
 10
-131.545
 20
1115.76
 11
-132.129
 21
1115.52
  0
LINE
  8
0
 10
-132.129
 20
1115.52
 11
-132.679
 21
1115.22
  0
LINE
  8
0
 10
-132.679
 20
1115.22
 11
-133.187
 21
1114.85
  0
LINE
  8
0
 10
-133.187
 20
1114.85
 11
-133.5
 21
1114.56
  0
LINE
  8
0
 10
-133.5
 20
1114.56
 11
-133.5
 21
1114.65
  0
LINE
  8
0
 10
-133.5
 20
1114.65
 11
-136.5
 21
1114.65
  0
LINE
  8
0
 10
-136.5
 20
1114.65
 11
-136.5
 21
877.347
  0
LINE
  8
0
 10
-136.5
 20
877.347
 11
-133.5
 21
877.347
  0
LINE
  8
0
 10
-133.5
 20
877.347
 11
-133.5
 21
877.441
  0
LINE
  8
0
 10
-133.5
 20
877.441
 11
-133.187
 21
877.147
  0
LINE
  8
0
 10
-133.187
 20
877.147
 11
-132.679
 21
876.778
  0
LINE
  8
0
 10
-132.679
 20
876.778
 11
-132.129
 21
876.476
  0
LINE
  8
0
 10
-132.129
 20
876.476
 11
-131.545
 21
876.245
  0
LINE
  8
0
 10
-131.545
 20
876.245
 11
-130.937
 21
876.089
  0
LINE
  8
0
 10
-130.937
 20
876.089
 11
-130.314
 21
876.01
  0
LINE
  8
0
 10
-130.314
 20
876.01
 11
130.314
 21
876.01
  0
LINE
  8
0
 10
130.314
 20
876.01
 11
130.937
 21
876.089
  0
LINE
  8
0
 10
-127.634
 20
1106.37
 11
-127.9
 21
1106.4
  0
LINE
  8
0
 10
-127.9
 20
1106.4
 11
-128.16
 21
1106.47
  0
LINE
  8
0
 10
-128.16
 20
1106.47
 11
-128.409
 21
1106.57
  0
LINE
  8
0
 10
-128.409
 20
1106.57
 11
-128.644
 21
1106.7
  0
LINE
  8
0
 10
-128.644
 20
1106.7
 11
-128.861
 21
1106.85
  0
LINE
  8
0
 10
-128.861
 20
1106.85
 11
-129.057
 21
1107.04
  0
LINE
  8
0
 10
-129.057
 20
1107.04
 11
-129.227
 21
1107.24
  0
LINE
  8
0
 10
-129.227
 20
1107.24
 11
-129.371
 21
1107.47
  0
LINE
  8
0
 10
-129.371
 20
1107.47
 11
-129.485
 21
1107.71
  0
LINE
  8
0
 10
-129.485
 20
1107.71
 11
-129.568
 21
1107.97
  0
LINE
  8
0
 10
-129.568
 20
1107.97
 11
-129.618
 21
1108.23
  0
LINE
  8
0
 10
-129.618
 20
1108.23
 11
-129.635
 21
1108.5
  0
LINE
  8
0
 10
-129.635
 20
1108.5
 11
-129.618
 21
1108.77
  0
LINE
  8
0
 10
-129.618
 20
1108.77
 11
-129.568
 21
1109.03
  0
LINE
  8
0
 10
-129.568
 20
1109.03
 11
-129.485
 21
1109.29
  0
LINE
  8
0
 10
-129.485
 20
1109.29
 11
-129.371
 21
1109.53
  0
LINE
  8
0
 10
-129.371
 20
1109.53
 11
-129.227
 21
1109.76
  0
LINE
  8
0
 10
-129.227
 20
1109.76
 11
-129.057
 21
1109.96
  0
LINE
  8
0
 10
-129.057
 20
1109.96
 11
-128.861
 21
1110.15
  0
LINE
  8
0
 10
-128.861
 20
1110.15
 11
-128.644
 21
1110.3
  0
LINE
  8
0
 10
-128.644
 20
1110.3
 11
-128.409
 21
1110.43
  0
LINE
  8
0
 10
-128.409
 20
1110.43
 11
-128.16
 21
1110.53
  0
LINE
  8
0
 10
-128.16
 20
1110.53
 11
-127.9
 21
1110.6
  0
LINE
  8
0
 10
-127.9
 20
1110.6
 11
-127.634
 21
1110.63
  0
LINE
  8
0
 10
-127.634
 20
1110.63
 11
-127.366
 21
1110.63
  0
LINE
  8
0
 10
-127.366
 20
1110.63
 11
-127.1
 21
1110.6
  0
LINE
  8
0
 10
-127.1
 20
1110.6
 11
-126.84
 21
1110.53
  0
LINE
  8
0
 10
-126.84
 20
1110.53
 11
-126.591
 21
1110.43
  0
LINE
  8
0
 10
-126.591
 20
1110.43
 11
-126.356
 21
1110.3
  0
LINE
  8
0
 10
-126.356
 20
1110.3
 11
-126.139
 21
1110.15
  0
LINE
  8
0
 10
-126.139
 20
1110.15
 11
-125.943
 21
1109.96
  0
LINE
  8
0
 10
-125.943
 20
1109.96
 11
-125.773
 21
1109.76
  0
LINE
  8
0
 10
-125.773
 20
1109.76
 11
-125.629
 21
1109.53
  0
LINE
  8
0
 10
-125.629
 20
1109.53
 11
-125.515
 21
1109.29
  0
LINE
  8
0
 10
-125.515
 20
1109.29
 11
-125.432
 21
1109.03
  0
LINE
  8
0
 10
-125.432
 20
1109.03
 11
-125.382
 21
1108.77
  0
LINE
  8
0
 10
-125.382
 20
1108.77
 11
-125.365
 21
1108.5
  0
LINE
  8
0
 10
-125.365
 20
1108.5
 11
-125.382
 21
1108.23
  0
LINE
  8
0
 10
-125.382
 20
1108.23
 11
-125.432
 21
1107.97
  0
LINE
  8
0
 10
-125.432
 20
1107.97
 11
-125.515
 21
1107.71
  0
LINE
  8
0
 10
-125.515
 20
1107.71
 11
-125.629
 21
1107.47
  0
LINE
  8
0
 10
-125.629
 20
1107.47
 11
-125.773
 21
1107.24
  0
LINE
  8
0
 10
-125.773
 20
1107.24
 11
-125.943
 21
1107.04
  0
LINE
  8
0
 10
-125.943
 20
1107.04
 11
-126.139
 21
1106.85
  0
LINE
  8
0
 10
-126.139
 20
1106.85
 11
-126.356
 21
1106.7
  0
LINE
  8
0
 10
-126.356
 20
1106.7
 11
-126.591
 21
1106.57
  0
LINE
  8
0
 10
-126.591
 20
1106.57
 11
-126.84
 21
1106.47
  0
LINE
  8
0
 10
-126.84
 20
1106.47
 11
-127.1
 21
1106.4
  0
LINE
  8
0
 10
-127.1
 20
1106.4
 11
-127.366
 21
1106.37
  0
LINE
  8
0
 10
-127.366
 20
1106.37
 11
-127.634
 21
1106.37
  0
LINE
  8
0
 10
127.366
 20
1106.37
 11
127.1
 21
1106.4
  0
LINE
  8
0
 10
127.1
 20
1106.4
 11
126.84
 21
1106.47
  0
LINE
  8
0
 10
126.84
 20
1106.47
 11
126.591
 21
1106.57
  0
LINE
  8
0
 10
126.591
 20
1106.57
 11
126.356
 21
1106.7
  0
LINE
  8
0
 10
126.356
 20
1106.7
 11
126.139
 21
1106.85
  0
LINE
  8
0
 10
126.139
 20
1106.85
 11
125.943
 21
1107.04
  0
LINE
  8
0
 10
125.943
 20
1107.04
 11
125.773
 21
1107.24
  0
LINE
  8
0
 10
125.773
 20
1107.24
 11
125.629
 21
1107.47
  0
LINE
  8
0
 10
125.629
 20
1107.47
 11
125.515
 21
1107.71
  0
LINE
  8
0
 10
125.515
 20
1107.71
 11
125.432
 21
1107.97
  0
LINE
  8
0
 10
125.432
 20
1107.97
 11
125.382
 21
1108.23
  0
LINE
  8
0
 10
125.382
 20
1108.23
 11
125.365
 21
1108.5
  0
LINE
  8
0
 10
125.365
 20
1108.5
 11
125.382
 21
1108.77
  0
LINE
  8
0
 10
125.382
 20
1108.77
 11
125.432
 21
1109.03
  0
LINE
  8
0
 10
125.432
 20
1109.03
 11
125.515
 21
1109.29
  0
LINE
  8
0
 10
125.515
 20
1109.29
 11
125.629
 21
1109.53
  0
LINE
  8
0
 10
125.629
 20
1109.53
 11
125.773
 21
1109.76
  0
LINE
  8
0
 10
125.773
 20
1109.76
 11
125.943
 21
1109.96
  0
LINE
  8
0
 10
125.943
 20
1109.96
 11
126.139
 21
1110.15
  0
LINE
  8
0
 10
126.139
 20
1110.15
 11
126.356
 21
1110.3
  0
LINE
  8
0
 10
126.356
 20
1110.3
 11
126.591
 21
1110.43
  0
LINE
  8
0
 10
126.591
 20
1110.43
 11
126.84
 21
1110.53
  0
LINE
  8
0
 10
126.84
 20
1110.53
 11
127.1
 21
1110.6
  0
LINE
  8
0
 10
127.1
 20
1110.6
 11
127.366
 21
1110.63
  0
LINE
  8
0
 10
127.366
 20
1110.63
 11
127.634
 21
1110.63
  0
LINE
  8
0
 10
127.634
 20
1110.63
 11
127.9
 21
1110.6
  0
LINE
  8
0
 10
127.9
 20
1110.6
 11
128.16
 21
1110.53
  0
LINE
  8
0
 10
128.16
 20
1110.53
 11
128.409
 21
1110.43
  0
LINE
  8
0
 10
128.409
 20
1110.43
 11
128.644
 21
1110.3
  0
LINE
  8
0
 10
128.644
 20
1110.3
 11
128.861
 21
1110.15
  0
LINE
  8
0
 10
128.861
 20
1110.15
 11
129.057
 21
1109.96
  0
LINE
  8
0
 10
129.057
 20
1109.96
 11
129.227
 21
1109.76
  0
LINE
  8
0
 10
129.227
 20
1109.76
 11
129.371
 21
1109.53
  0
LINE
  8
0
 10
129.371
 20
1109.53
 11
129.485
 21
1109.29
  0
LINE
  8
0
 10
129.485
 20
1109.29
 11
129.568
 21
1109.03
  0
LINE
  8
0
 10
129.568
 20
1109.03
 11
129.618
 21
1108.77
  0
LINE
  8
0
 10
129.618
 20
1108.77
 11
129.635
 21
1108.5
  0
LINE
  8
0
 10
129.635
 20
1108.5
 11
129.618
 21
1108.23
  0
LINE
  8
0
 10
129.618
 20
1108.23
 11
129.568
 21
1107.97
  0
LINE
  8
0
 10
129.568
 20
1107.97
 11
129.485
 21
1107.71
  0
LINE
  8
0
 10
129.485
 20
1107.71
 11
129.371
 21
1107.47
  0
LINE
  8
0
 10
129.371
 20
1107.47
 11
129.227
 21
1107.24
  0
LINE
  8
0
 10
129.227
 20
1107.24
 11
129.057
 21
1107.04
  0
LINE
  8
0
 10
129.057
 20
1107.04
 11
128.861
 21
1106.85
  0
LINE
  8
0
 10
128.861
 20
1106.85
 11
128.644
 21
1106.7
  0
LINE
  8
0
 10
128.644
 20
1106.7
 11
128.409
 21
1106.57
  0
LINE
  8
0
 10
128.409
 20
1106.57
 11
128.16
 21
1106.47
  0
LINE
  8
0
 10
128.16
 20
1106.47
 11
127.9
 21
1106.4
  0
LINE
  8
0
 10
127.9
 20
1106.4
 11
127.634
 21
1106.37
  0
LINE
  8
0
 10
127.634
 20
1106.37
 11
127.366
 21
1106.37
  0
LINE
  8
0
 10
-127.634
 20
881.369
 11
-127.9
 21
881.403
  0
LINE
  8
0
 10
-127.9
 20
881.403
 11
-128.16
 21
881.469
  0
LINE
  8
0
 10
-128.16
 20
881.469
 11
-128.409
 21
881.568
  0
LINE
  8
0
 10
-128.409
 20
881.568
 11
-128.644
 21
881.697
  0
LINE
  8
0
 10
-128.644
 20
881.697
 11
-128.861
 21
881.855
  0
LINE
  8
0
 10
-128.861
 20
881.855
 11
-129.057
 21
882.038
  0
LINE
  8
0
 10
-129.057
 20
882.038
 11
-129.227
 21
882.245
  0
LINE
  8
0
 10
-129.227
 20
882.245
 11
-129.371
 21
882.471
  0
LINE
  8
0
 10
-129.371
 20
882.471
 11
-129.485
 21
882.714
  0
LINE
  8
0
 10
-129.485
 20
882.714
 11
-129.568
 21
882.969
  0
LINE
  8
0
 10
-129.568
 20
882.969
 11
-129.618
 21
883.232
  0
LINE
  8
0
 10
-129.618
 20
883.232
 11
-129.635
 21
883.5
  0
LINE
  8
0
 10
-129.635
 20
883.5
 11
-129.618
 21
883.768
  0
LINE
  8
0
 10
-129.618
 20
883.768
 11
-129.568
 21
884.031
  0
LINE
  8
0
 10
-129.568
 20
884.031
 11
-129.485
 21
884.286
  0
LINE
  8
0
 10
-129.485
 20
884.286
 11
-129.371
 21
884.529
  0
LINE
  8
0
 10
-129.371
 20
884.529
 11
-129.227
 21
884.755
  0
LINE
  8
0
 10
-129.227
 20
884.755
 11
-129.057
 21
884.962
  0
LINE
  8
0
 10
-129.057
 20
884.962
 11
-128.861
 21
885.145
  0
LINE
  8
0
 10
-128.861
 20
885.145
 11
-128.644
 21
885.303
  0
LINE
  8
0
 10
-128.644
 20
885.303
 11
-128.409
 21
885.432
  0
LINE
  8
0
 10
-128.409
 20
885.432
 11
-128.16
 21
885.531
  0
LINE
  8
0
 10
-128.16
 20
885.531
 11
-127.9
 21
885.597
  0
LINE
  8
0
 10
-127.9
 20
885.597
 11
-127.634
 21
885.631
  0
LINE
  8
0
 10
-127.634
 20
885.631
 11
-127.366
 21
885.631
  0
LINE
  8
0
 10
-127.366
 20
885.631
 11
-127.1
 21
885.597
  0
LINE
  8
0
 10
-127.1
 20
885.597
 11
-126.84
 21
885.531
  0
LINE
  8
0
 10
-126.84
 20
885.531
 11
-126.591
 21
885.432
  0
LINE
  8
0
 10
-126.591
 20
885.432
 11
-126.356
 21
885.303
  0
LINE
  8
0
 10
-126.356
 20
885.303
 11
-126.139
 21
885.145
  0
LINE
  8
0
 10
-126.139
 20
885.145
 11
-125.943
 21
884.962
  0
LINE
  8
0
 10
-125.943
 20
884.962
 11
-125.773
 21
884.755
  0
LINE
  8
0
 10
-125.773
 20
884.755
 11
-125.629
 21
884.529
  0
LINE
  8
0
 10
-125.629
 20
884.529
 11
-125.515
 21
884.286
  0
LINE
  8
0
 10
-125.515
 20
884.286
 11
-125.432
 21
884.031
  0
LINE
  8
0
 10
-125.432
 20
884.031
 11
-125.382
 21
883.768
  0
LINE
  8
0
 10
-125.382
 20
883.768
 11
-125.365
 21
883.5
  0
LINE
  8
0
 10
-125.365
 20
883.5
 11
-125.382
 21
883.232
  0
LINE
  8
0
 10
-125.382
 20
883.232
 11
-125.432
 21
882.969
  0
LINE
  8
0
 10
-125.432
 20
882.969
 11
-125.515
 21
882.714
  0
LINE
  8
0
 10
-125.515
 20
882.714
 11
-125.629
 21
882.471
  0
LINE
  8
0
 10
-125.629
 20
882.471
 11
-125.773
 21
882.245
  0
LINE
  8
0
 10
-125.773
 20
882.245
 11
-125.943
 21
882.038
  0
LINE
  8
0
 10
-125.943
 20
882.038
 11
-126.139
 21
881.855
  0
LINE
  8
0
 10
-126.139
 20
881.855
 11
-126.356
 21
881.697
  0
LINE
  8
0
 10
-126.356
 20
881.697
 11
-126.591
 21
881.568
  0
LINE
  8
0
 10
-126.591
 20
881.568
 11
-126.84
 21
881.469
  0
LINE
  8
0
 10
-126.84
 20
881.469
 11
-127.1
 21
881.403
  0
LINE
  8
0
 10
-127.1
 20
881.403
 11
-127.366
 21
881.369
  0
LINE
  8
0
 10
-127.366
 20
881.369
 11
-127.634
 21
881.369
  0
LINE
  8
0
 10
127.366
 20
881.369
 11
127.1
 21
881.403
  0
LINE
  8
0
 10
127.1
 20
881.403
 11
126.84
 21
881.469
  0
LINE
  8
0
 10
126.84
 20
881.469
 11
126.591
 21
881.568
  0
LINE
  8
0
 10
126.591
 20
881.568
 11
126.356
 21
881.697
  0
LINE
  8
0
 10
126.356
 20
881.697
 11
126.139
 21
881.855
  0
LINE
  8
0
 10
126.139
 20
881.855
 11
125.943
 21
882.038
  0
LINE
  8
0
 10
125.943
 20
882.038
 11
125.773
 21
882.245
  0
LINE
  8
0
 10
125.773
 20
882.245
 11
125.629
 21
882.471
  0
LINE
  8
0
 10
125.629
 20
882.471
 11
125.515
 21
882.714
  0
LINE
  8
0
 10
125.515
 20
882.714
 11
125.432
 21
882.969
  0
LINE
  8
0
 10
125.432
 20
882.969
 11
125.382
 21
883.232
  0
LINE
  8
0
 10
125.382
 20
883.232
 11
125.365
 21
883.5
  0
LINE
  8
0
 10
125.365
 20
883.5
 11
125.382
 21
883.768
  0
LINE
  8
0
 10
125.382
 20
883.768
 11
125.432
 21
884.031
  0
LINE
  8
0
 10
125.432
 20
884.031
 11
125.515
 21
884.286
  0
LINE
  8
0
 10
125.515
 20
884.286
 11
125.629
 21
884.529
  0
LINE
  8
0
 10
125.629
 20
884.529
 11
125.773
 21
884.755
  0
LINE
  8
0
 10
125.773
 20
884.755
 11
125.943
 21
884.962
  0
LINE
  8
0
 10
125.943
 20
884.962
 11
126.139
 21
885.145
  0
LINE
  8
0
 10
126.139
 20
885.145
 11
126.356
 21
885.303
  0
LINE
  8
0
 10
126.356
 20
885.303
 11
126.591
 21
885.432
  0
LINE
  8
0
 10
126.591
 20
885.432
 11
126.84
 21
885.531
  0
LINE
  8
0
 10
126.84
 20
885.531
 11
127.1
 21
885.597
  0
LINE
  8
0
 10
127.1
 20
885.597
 11
127.366
 21
885.631
  0
LINE
  8
0
 10
127.366
 20
885.631
 11
127.634
 21
885.631
  0
LINE
  8
0
 10
127.634
 20
885.631
 11
127.9
 21
885.597
  0
LINE
  8
0
 10
127.9
 20
885.597
 11
128.16
 21
885.531
  0
LINE
  8
0
 10
128.16
 20
885.531
 11
128.409
 21
885.432
  0
LINE
  8
0
 10
128.409
 20
885.432
 11
128.644
 21
885.303
  0
LINE
  8
0
 10
128.644
 20
885.303
 11
128.861
 21
885.145
  0
LINE
  8
0
 10
128.861
 20
885.145
 11
129.057
 21
884.962
  0
LINE
  8
0
 10
129.057
 20
884.962
 11
129.227
 21
884.755
  0
LINE
  8
0
 10
129.227
 20
884.755
 11
129.371
 21
884.529
  0
LINE
  8
0
 10
129.371
 20
884.529
 11
129.485
 21
884.286
  0
LINE
  8
0
 10
129.485
 20
884.286
 11
129.568
 21
884.031
  0
LINE
  8
0
 10
129.568
 20
884.031
 11
129.618
 21
883.768
  0
LINE
  8
0
 10
129.618
 20
883.768
 11
129.635
 21
883.5
  0
LINE
  8
0
 10
129.635
 20
883.5
 11
129.618
 21
883.232
  0
LINE
  8
0
 10
129.618
 20
883.232
 11
129.568
 21
882.969
  0
LINE
  8
0
 10
129.568
 20
882.969
 11
129.485
 21
882.714
  0
LINE
  8
0
 10
129.485
 20
882.714
 11
129.371
 21
882.471
  0
LINE
  8
0
 10
129.371
 20
882.471
 11
129.227
 21
882.245
  0
LINE
  8
0
 10
129.227
 20
882.245
 11
129.057
 21
882.038
  0
LINE
  8
0
 10
129.057
 20
882.038
 11
128.861
 21
881.855
  0
LINE
  8
0
 10
128.861
 20
881.855
 11
128.644
 21
881.697
  0
LINE
  8
0
 10
128.644
 20
881.697
 11
128.409
 21
881.568
  0
LINE
  8
0
 10
128.409
 20
881.568
 11
128.16
 21
881.469
  0
LINE
  8
0
 10
128.16
 20
881.469
 11
127.9
 21
881.403
  0
LINE
  8
0
 10
127.9
 20
881.403
 11
127.634
 21
881.369
  0
LINE
  8
0
 10
127.634
 20
881.369
 11
127.366
 21
881.369
  0
ENDSEC
  0
SECTION
  2
OBJECTS
  0
DICTIONARY
  0
ENDSEC
  0
EOF
