<?xml version="1.0" standalone="no"?>
<!DOCTYPE svg PUBLIC "-//W3C//DTD SVG 1.1//EN" "http://www.w3.org/Graphics/SVG/1.1/DTD/svg11.dtd">
<svg width="272mm" height="987mm" viewBox="-137 -1863 272 987" xmlns="http://www.w3.org/2000/svg" version="1.1">
<title>OpenSCAD Model</title>
<path d="
M -133.5,-1624.44 L -133.187,-1624.15 L -132.679,-1623.78 L -132.129,-1623.48 L -131.545,-1623.24 L -130.937,-1623.09
 L -130.314,-1623.01 L 130.314,-1623.01 L 130.937,-1623.09 L 131.545,-1623.24 L 132.129,-1623.48 L 132.679,-1623.78
 L 133.187,-1624.15 L 133.645,-1624.58 L 134.045,-1625.06 L 134.382,-1625.59 L 134.649,-1626.16 L 134.843,-1626.76
 L 134.961,-1627.37 L 135,-1628 L 135,-1858 L 134.961,-1858.63 L 134.843,-1859.24 L 134.649,-1859.84
 L 134.382,-1860.41 L 134.045,-1860.94 L 133.645,-1861.42 L 133.187,-1861.85 L 132.679,-1862.22 L 132.129,-1862.52
 L 131.545,-1862.76 L 130.937,-1862.91 L 130.314,-1862.99 L -130.314,-1862.99 L -130.937,-1862.91 L -131.545,-1862.76
 L -132.129,-1862.52 L -132.679,-1862.22 L -133.187,-1861.85 L -133.5,-1861.56 L -133.5,-1862.99 L -136.5,-1862.99
 L -136.5,-1623.01 L -133.5,-1623.01 z
M -129.751,-1624.51 L -130.25,-1624.57 L -130.736,-1624.7 L -131.203,-1624.88 L -131.643,-1625.12 L -132.05,-1625.42
 L -132.416,-1625.76 L -132.736,-1626.15 L -133.005,-1626.57 L -133.219,-1627.03 L -133.374,-1627.51 L -133.468,-1628
 L -133.5,-1628.5 L -133.5,-1857.5 L -133.468,-1858 L -133.374,-1858.49 L -133.219,-1858.97 L -133.005,-1859.43
 L -132.736,-1859.85 L -132.416,-1860.24 L -132.05,-1860.58 L -131.643,-1860.88 L -131.203,-1861.12 L -130.736,-1861.3
 L -130.25,-1861.43 L -129.751,-1861.49 L 129.751,-1861.49 L 130.25,-1861.43 L 130.736,-1861.3 L 131.203,-1861.12
 L 131.643,-1860.88 L 132.05,-1860.58 L 132.416,-1860.24 L 132.736,-1859.85 L 133.005,-1859.43 L 133.219,-1858.97
 L 133.374,-1858.49 L 133.468,-1858 L 133.5,-1857.5 L 133.5,-1628.5 L 133.468,-1628 L 133.374,-1627.51
 L 133.219,-1627.03 L 133.005,-1626.57 L 132.736,-1626.15 L 132.416,-1625.76 L 132.05,-1625.42 L 131.643,-1625.12
 L 131.203,-1624.88 L 130.736,-1624.7 L 130.25,-1624.57 L 129.751,-1624.51 z
M -133.5,-1375.44 L -133.187,-1375.15 L -132.679,-1374.78 L -132.129,-1374.48 L -131.545,-1374.24 L -130.937,-1374.09
 L -130.314,-1374.01 L 130.314,-1374.01 L 130.937,-1374.09 L 131.545,-1374.24 L 132.129,-1374.48 L 132.679,-1374.78
 L 133.187,-1375.15 L 133.645,-1375.58 L 134.045,-1376.06 L 134.382,-1376.59 L 134.649,-1377.16 L 134.843,-1377.76
 L 134.961,-1378.37 L 135,-1379 L 135,-1609 L 134.961,-1609.63 L 134.843,-1610.24 L 134.649,-1610.84
 L 134.382,-1611.41 L 134.045,-1611.94 L 133.645,-1612.42 L 133.187,-1612.85 L 132.679,-1613.22 L 132.129,-1613.52
 L 131.545,-1613.76 L 130.937,-1613.91 L 130.314,-1613.99 L -130.314,-1613.99 L -130.937,-1613.91 L -131.545,-1613.76
 L -132.129,-1613.52 L -132.679,-1613.22 L -133.187,-1612.85 L -133.5,-1612.56 L -133.5,-1613.99 L -136.5,-1613.99
 L -136.5,-1374.01 L -133.5,-1374.01 z
M -129.751,-1375.51 L -130.25,-1375.57 L -130.736,-1375.7 L -131.203,-1375.88 L -131.643,-1376.12 L -132.05,-1376.42
 L -132.416,-1376.76 L -132.736,-1377.15 L -133.005,-1377.57 L -133.219,-1378.03 L -133.374,-1378.51 L -133.468,-1379
 L -133.5,-1379.5 L -133.5,-1608.5 L -133.468,-1609 L -133.374,-1609.49 L -133.219,-1609.97 L -133.005,-1610.43
 L -132.736,-1610.85 L -132.416,-1611.24 L -132.05,-1611.58 L -131.643,-1611.88 L -131.203,-1612.12 L -130.736,-1612.3
 L -130.25,-1612.43 L -129.751,-1612.49 L 129.751,-1612.49 L 130.25,-1612.43 L 130.736,-1612.3 L 131.203,-1612.12
 L 131.643,-1611.88 L 132.05,-1611.58 L 132.416,-1611.24 L 132.736,-1610.85 L 133.005,-1610.43 L 133.219,-1609.97
 L 133.374,-1609.49 L 133.468,-1609 L 133.5,-1608.5 L 133.5,-1379.5 L 133.468,-1379 L 133.374,-1378.51
 L 133.219,-1378.03 L 133.005,-1377.57 L 132.736,-1377.15 L 132.416,-1376.76 L 132.05,-1376.42 L 131.643,-1376.12
 L 131.203,-1375.88 L 130.736,-1375.7 L 130.25,-1375.57 L 129.751,-1375.51 z
M 130.937,-1125.09 L 131.545,-1125.24 L 132.129,-1125.48 L 132.679,-1125.78 L 133.187,-1126.15 L 133.645,-1126.58
 L 134.045,-1127.06 L 134.382,-1127.59 L 134.649,-1128.16 L 134.843,-1128.76 L 134.961,-1129.37 L 135,-1130
 L 135,-1360 L 134.961,-1360.63 L 134.843,-1361.24 L 134.649,-1361.84 L 134.382,-1362.41 L 134.045,-1362.94
 L 133.645,-1363.42 L 133.187,-1363.85 L 132.679,-1364.22 L 132.129,-1364.52 L 131.545,-1364.76 L 130.937,-1364.91
 L 130.314,-1364.99 L -130.314,-1364.99 L -130.937,-1364.91 L -131.545,-1364.76 L -132.129,-1364.52 L -132.679,-1364.22
 L -133.187,-1363.85 L -133.5,-1363.56 L -133.5,-1364.98 L -136.5,-1364.98 L -136.5,-1125.02 L -133.5,-1125.02
 L -133.5,-1126.44 L -133.187,-1126.15 L -132.679,-1125.78 L -132.129,-1125.48 L -131.545,-1125.24 L -130.937,-1125.09
 L -130.314,-1125.01 L 130.314,-1125.01 z
M -129.695,-1127.39 L -130.083,-1127.44 L -130.462,-1127.54 L -130.825,-1127.68 L -131.168,-1127.87 L -131.484,-1128.1
 L -131.769,-1128.37 L -132.018,-1128.67 L -132.228,-1129 L -132.394,-1129.35 L -132.515,-1129.73 L -132.588,-1130.11
 L -132.613,-1130.5 L -132.613,-1359.5 L -132.588,-1359.89 L -132.515,-1360.27 L -132.394,-1360.65 L -132.228,-1361
 L -132.018,-1361.33 L -131.769,-1361.63 L -131.484,-1361.9 L -131.168,-1362.13 L -130.825,-1362.32 L -130.462,-1362.46
 L -130.083,-1362.56 L -129.695,-1362.61 L 129.695,-1362.61 L 130.083,-1362.56 L 130.462,-1362.46 L 130.825,-1362.32
 L 131.168,-1362.13 L 131.484,-1361.9 L 131.769,-1361.63 L 132.018,-1361.33 L 132.228,-1361 L 132.394,-1360.65
 L 132.515,-1360.27 L 132.588,-1359.89 L 132.613,-1359.5 L 132.613,-1130.5 L 132.588,-1130.11 L 132.515,-1129.73
 L 132.394,-1129.35 L 132.228,-1129 L 132.018,-1128.67 L 131.769,-1128.37 L 131.484,-1128.1 L 131.168,-1127.87
 L 130.825,-1127.68 L 130.462,-1127.54 L 130.083,-1127.44 L 129.695,-1127.39 z
M 130.937,-876.089 L 131.545,-876.245 L 132.129,-876.476 L 132.679,-876.778 L 133.187,-877.147 L 133.645,-877.577
 L 134.045,-878.061 L 134.382,-878.591 L 134.649,-879.159 L 134.843,-879.757 L 134.961,-880.373 L 135,-881
 L 135,-1111 L 134.961,-1111.63 L 134.843,-1112.24 L 134.649,-1112.84 L 134.382,-1113.41 L 134.045,-1113.94
 L 133.645,-1114.42 L 133.187,-1114.85 L 132.679,-1115.22 L 132.129,-1115.52 L 131.545,-1115.76 L 130.937,-1115.91
 L 130.314,-1115.99 L -130.314,-1115.99 L -130.937,-1115.91 L -131.545,-1115.76 L -132.129,-1115.52 L -132.679,-1115.22
 L -133.187,-1114.85 L -133.5,-1114.56 L -133.5,-1114.65 L -136.5,-1114.65 L -136.5,-877.347 L -133.5,-877.347
 L -133.5,-877.441 L -133.187,-877.147 L -132.679,-876.778 L -132.129,-876.476 L -131.545,-876.245 L -130.937,-876.089
 L -130.314,-876.01 L 130.314,-876.01 z
M -127.634,-1106.37 L -127.9,-1106.4 L -128.16,-1106.47 L -128.409,-1106.57 L -128.644,-1106.7 L -128.861,-1106.85
 L -129.057,-1107.04 L -129.227,-1107.24 L -129.371,-1107.47 L -129.485,-1107.71 L -129.568,-1107.97 L -129.618,-1108.23
 L -129.635,-1108.5 L -129.618,-1108.77 L -129.568,-1109.03 L -129.485,-1109.29 L -129.371,-1109.53 L -129.227,-1109.76
 L -129.057,-1109.96 L -128.861,-1110.15 L -128.644,-1110.3 L -128.409,-1110.43 L -128.16,-1110.53 L -127.9,-1110.6
 L -127.634,-1110.63 L -127.366,-1110.63 L -127.1,-1110.6 L -126.84,-1110.53 L -126.591,-1110.43 L -126.356,-1110.3
 L -126.139,-1110.15 L -125.943,-1109.96 L -125.773,-1109.76 L -125.629,-1109.53 L -125.515,-1109.29 L -125.432,-1109.03
 L -125.382,-1108.77 L -125.365,-1108.5 L -125.382,-1108.23 L -125.432,-1107.97 L -125.515,-1107.71 L -125.629,-1107.47
 L -125.773,-1107.24 L -125.943,-1107.04 L -126.139,-1106.85 L -126.356,-1106.7 L -126.591,-1106.57 L -126.84,-1106.47
 L -127.1,-1106.4 L -127.366,-1106.37 z
M 127.366,-1106.37 L 127.1,-1106.4 L 126.84,-1106.47 L 126.591,-1106.57 L 126.356,-1106.7 L 126.139,-1106.85
 L 125.943,-1107.04 L 125.773,-1107.24 L 125.629,-1107.47 L 125.515,-1107.71 L 125.432,-1107.97 L 125.382,-1108.23
 L 125.365,-1108.5 L 125.382,-1108.77 L 125.432,-1109.03 L 125.515,-1109.29 L 125.629,-1109.53 L 125.773,-1109.76
 L 125.943,-1109.96 L 126.139,-1110.15 L 126.356,-1110.3 L 126.591,-1110.43 L 126.84,-1110.53 L 127.1,-1110.6
 L 127.366,-1110.63 L 127.634,-1110.63 L 127.9,-1110.6 L 128.16,-1110.53 L 128.409,-1110.43 L 128.644,-1110.3
 L 128.861,-1110.15 L 129.057,-1109.96 L 129.227,-1109.76 L 129.371,-1109.53 L 129.485,-1109.29 L 129.568,-1109.03
 L 129.618,-1108.77 L 129.635,-1108.5 L 129.618,-1108.23 L 129.568,-1107.97 L 129.485,-1107.71 L 129.371,-1107.47
 L 129.227,-1107.24 L 129.057,-1107.04 L 128.861,-1106.85 L 128.644,-1106.7 L 128.409,-1106.57 L 128.16,-1106.47
 L 127.9,-1106.4 L 127.634,-1106.37 z
M -127.634,-881.369 L -127.9,-881.403 L -128.16,-881.469 L -128.409,-881.568 L -128.644,-881.697 L -128.861,-881.855
 L -129.057,-882.038 L -129.227,-882.245 L -129.371,-882.471 L -129.485,-882.714 L -129.568,-882.969 L -129.618,-883.232
 L -129.635,-883.5 L -129.618,-883.768 L -129.568,-884.031 L -129.485,-884.286 L -129.371,-884.529 L -129.227,-884.755
 L -129.057,-884.962 L -128.861,-885.145 L -128.644,-885.303 L -128.409,-885.432 L -128.16,-885.531 L -127.9,-885.597
 L -127.634,-885.631 L -127.366,-885.631 L -127.1,-885.597 L -126.84,-885.531 L -126.591,-885.432 L -126.356,-885.303
 L -126.139,-885.145 L -125.943,-884.962 L -125.773,-884.755 L -125.629,-884.529 L -125.515,-884.286 L -125.432,-884.031
 L -125.382,-883.768 L -125.365,-883.5 L -125.382,-883.232 L -125.432,-882.969 L -125.515,-882.714 L -125.629,-882.471
 L -125.773,-882.245 L -125.943,-882.038 L -126.139,-881.855 L -126.356,-881.697 L -126.591,-881.568 L -126.84,-881.469
 L -127.1,-881.403 L -127.366,-881.369 z
M 127.366,-881.369 L 127.1,-881.403 L 126.84,-881.469 L 126.591,-881.568 L 126.356,-881.697 L 126.139,-881.855
 L 125.943,-882.038 L 125.773,-882.245 L 125.629,-882.471 L 125.515,-882.714 L 125.432,-882.969 L 125.382,-883.232
 L 125.365,-883.5 L 125.382,-883.768 L 125.432,-884.031 L 125.515,-884.286 L 125.629,-884.529 L 125.773,-884.755
 L 125.943,-884.962 L 126.139,-885.145 L 126.356,-885.303 L 126.591,-885.432 L 126.84,-885.531 L 127.1,-885.597
 L 127.366,-885.631 L 127.634,-885.631 L 127.9,-885.597 L 128.16,-885.531 L 128.409,-885.432 L 128.644,-885.303
 L 128.861,-885.145 L 129.057,-884.962 L 129.227,-884.755 L 129.371,-884.529 L 129.485,-884.286 L 129.568,-884.031
 L 129.618,-883.768 L 129.635,-883.5 L 129.618,-883.232 L 129.568,-882.969 L 129.485,-882.714 L 129.371,-882.471
 L 129.227,-882.245 L 129.057,-882.038 L 128.861,-881.855 L 128.644,-881.697 L 128.409,-881.568 L 128.16,-881.469
 L 127.9,-881.403 L 127.634,-881.369 z
" stroke="black" fill="lightgray" stroke-width="0.5"/>
</svg>
