  0
SECTION
  2
BLOCKS
  0
ENDSEC
  0
SECTION
  2
ENTITIES
  0
LINE
  8
0
 10
138.437
 20
288.089
 11
139.045
 21
288.245
  0
LINE
  8
0
 10
139.045
 20
288.245
 11
139.629
 21
288.476
  0
LINE
  8
0
 10
139.629
 20
288.476
 11
140.179
 21
288.778
  0
LINE
  8
0
 10
140.179
 20
288.778
 11
140.687
 21
289.147
  0
LINE
  8
0
 10
140.687
 20
289.147
 11
141.145
 21
289.577
  0
LINE
  8
0
 10
141.145
 20
289.577
 11
141.545
 21
290.061
  0
LINE
  8
0
 10
141.545
 20
290.061
 11
141.882
 21
290.591
  0
LINE
  8
0
 10
141.882
 20
290.591
 11
142.149
 21
291.159
  0
LINE
  8
0
 10
142.149
 20
291.159
 11
142.343
 21
291.757
  0
LINE
  8
0
 10
142.343
 20
291.757
 11
142.461
 21
292.373
  0
LINE
  8
0
 10
142.461
 20
292.373
 11
142.5
 21
293
  0
LINE
  8
0
 10
142.5
 20
293
 11
142.5
 21
463
  0
LINE
  8
0
 10
142.5
 20
463
 11
142.461
 21
463.627
  0
LINE
  8
0
 10
142.461
 20
463.627
 11
142.343
 21
464.243
  0
LINE
  8
0
 10
142.343
 20
464.243
 11
142.149
 21
464.841
  0
LINE
  8
0
 10
142.149
 20
464.841
 11
141.882
 21
465.409
  0
LINE
  8
0
 10
141.882
 20
465.409
 11
141.545
 21
465.939
  0
LINE
  8
0
 10
141.545
 20
465.939
 11
141.145
 21
466.423
  0
LINE
  8
0
 10
141.145
 20
466.423
 11
140.687
 21
466.853
  0
LINE
  8
0
 10
140.687
 20
466.853
 11
140.179
 21
467.222
  0
LINE
  8
0
 10
140.179
 20
467.222
 11
139.629
 21
467.524
  0
LINE
  8
0
 10
139.629
 20
467.524
 11
139.045
 21
467.755
  0
LINE
  8
0
 10
139.045
 20
467.755
 11
138.437
 21
467.911
  0
LINE
  8
0
 10
138.437
 20
467.911
 11
137.814
 21
467.99
  0
LINE
  8
0
 10
137.814
 20
467.99
 11
-137.814
 21
467.99
  0
LINE
  8
0
 10
-137.814
 20
467.99
 11
-138.437
 21
467.911
  0
LINE
  8
0
 10
-138.437
 20
467.911
 11
-139.045
 21
467.755
  0
LINE
  8
0
 10
-139.045
 20
467.755
 11
-139.629
 21
467.524
  0
LINE
  8
0
 10
-139.629
 20
467.524
 11
-140.179
 21
467.222
  0
LINE
  8
0
 10
-140.179
 20
467.222
 11
-140.687
 21
466.853
  0
LINE
  8
0
 10
-140.687
 20
466.853
 11
-141
 21
466.559
  0
LINE
  8
0
 10
-141
 20
466.559
 11
-141
 21
467.615
  0
LINE
  8
0
 10
-141
 20
467.615
 11
-144
 21
467.615
  0
LINE
  8
0
 10
-144
 20
467.615
 11
-144
 21
288.385
  0
LINE
  8
0
 10
-144
 20
288.385
 11
-141
 21
288.385
  0
LINE
  8
0
 10
-141
 20
288.385
 11
-141
 21
289.441
  0
LINE
  8
0
 10
-141
 20
289.441
 11
-140.687
 21
289.147
  0
LINE
  8
0
 10
-140.687
 20
289.147
 11
-140.179
 21
288.778
  0
LINE
  8
0
 10
-140.179
 20
288.778
 11
-139.629
 21
288.476
  0
LINE
  8
0
 10
-139.629
 20
288.476
 11
-139.045
 21
288.245
  0
LINE
  8
0
 10
-139.045
 20
288.245
 11
-138.437
 21
288.089
  0
LINE
  8
0
 10
-138.437
 20
288.089
 11
-137.814
 21
288.01
  0
LINE
  8
0
 10
-137.814
 20
288.01
 11
137.814
 21
288.01
  0
LINE
  8
0
 10
137.814
 20
288.01
 11
138.437
 21
288.089
  0
LINE
  8
0
 10
-135.151
 20
458.105
 11
-135.45
 21
458.143
  0
LINE
  8
0
 10
-135.45
 20
458.143
 11
-135.742
 21
458.217
  0
LINE
  8
0
 10
-135.742
 20
458.217
 11
-136.022
 21
458.328
  0
LINE
  8
0
 10
-136.022
 20
458.328
 11
-136.286
 21
458.474
  0
LINE
  8
0
 10
-136.286
 20
458.474
 11
-136.53
 21
458.651
  0
LINE
  8
0
 10
-136.53
 20
458.651
 11
-136.75
 21
458.857
  0
LINE
  8
0
 10
-136.75
 20
458.857
 11
-136.942
 21
459.089
  0
LINE
  8
0
 10
-136.942
 20
459.089
 11
-137.103
 21
459.344
  0
LINE
  8
0
 10
-137.103
 20
459.344
 11
-137.231
 21
459.617
  0
LINE
  8
0
 10
-137.231
 20
459.617
 11
-137.325
 21
459.903
  0
LINE
  8
0
 10
-137.325
 20
459.903
 11
-137.381
 21
460.199
  0
LINE
  8
0
 10
-137.381
 20
460.199
 11
-137.4
 21
460.5
  0
LINE
  8
0
 10
-137.4
 20
460.5
 11
-137.381
 21
460.801
  0
LINE
  8
0
 10
-137.381
 20
460.801
 11
-137.325
 21
461.097
  0
LINE
  8
0
 10
-137.325
 20
461.097
 11
-137.231
 21
461.383
  0
LINE
  8
0
 10
-137.231
 20
461.383
 11
-137.103
 21
461.656
  0
LINE
  8
0
 10
-137.103
 20
461.656
 11
-136.942
 21
461.911
  0
LINE
  8
0
 10
-136.942
 20
461.911
 11
-136.75
 21
462.143
  0
LINE
  8
0
 10
-136.75
 20
462.143
 11
-136.53
 21
462.349
  0
LINE
  8
0
 10
-136.53
 20
462.349
 11
-136.286
 21
462.526
  0
LINE
  8
0
 10
-136.286
 20
462.526
 11
-136.022
 21
462.672
  0
LINE
  8
0
 10
-136.022
 20
462.672
 11
-135.742
 21
462.783
  0
LINE
  8
0
 10
-135.742
 20
462.783
 11
-135.45
 21
462.857
  0
LINE
  8
0
 10
-135.45
 20
462.857
 11
-135.151
 21
462.895
  0
LINE
  8
0
 10
-135.151
 20
462.895
 11
-134.849
 21
462.895
  0
LINE
  8
0
 10
-134.849
 20
462.895
 11
-134.55
 21
462.857
  0
LINE
  8
0
 10
-134.55
 20
462.857
 11
-134.258
 21
462.783
  0
LINE
  8
0
 10
-134.258
 20
462.783
 11
-133.978
 21
462.672
  0
LINE
  8
0
 10
-133.978
 20
462.672
 11
-133.714
 21
462.526
  0
LINE
  8
0
 10
-133.714
 20
462.526
 11
-133.47
 21
462.349
  0
LINE
  8
0
 10
-133.47
 20
462.349
 11
-133.25
 21
462.143
  0
LINE
  8
0
 10
-133.25
 20
462.143
 11
-133.058
 21
461.911
  0
LINE
  8
0
 10
-133.058
 20
461.911
 11
-132.897
 21
461.656
  0
LINE
  8
0
 10
-132.897
 20
461.656
 11
-132.769
 21
461.383
  0
LINE
  8
0
 10
-132.769
 20
461.383
 11
-132.675
 21
461.097
  0
LINE
  8
0
 10
-132.675
 20
461.097
 11
-132.619
 21
460.801
  0
LINE
  8
0
 10
-132.619
 20
460.801
 11
-132.6
 21
460.5
  0
LINE
  8
0
 10
-132.6
 20
460.5
 11
-132.619
 21
460.199
  0
LINE
  8
0
 10
-132.619
 20
460.199
 11
-132.675
 21
459.903
  0
LINE
  8
0
 10
-132.675
 20
459.903
 11
-132.769
 21
459.617
  0
LINE
  8
0
 10
-132.769
 20
459.617
 11
-132.897
 21
459.344
  0
LINE
  8
0
 10
-132.897
 20
459.344
 11
-133.058
 21
459.089
  0
LINE
  8
0
 10
-133.058
 20
459.089
 11
-133.25
 21
458.857
  0
LINE
  8
0
 10
-133.25
 20
458.857
 11
-133.47
 21
458.651
  0
LINE
  8
0
 10
-133.47
 20
458.651
 11
-133.714
 21
458.474
  0
LINE
  8
0
 10
-133.714
 20
458.474
 11
-133.978
 21
458.328
  0
LINE
  8
0
 10
-133.978
 20
458.328
 11
-134.258
 21
458.217
  0
LINE
  8
0
 10
-134.258
 20
458.217
 11
-134.55
 21
458.143
  0
LINE
  8
0
 10
-134.55
 20
458.143
 11
-134.849
 21
458.105
  0
LINE
  8
0
 10
-134.849
 20
458.105
 11
-135.151
 21
458.105
  0
LINE
  8
0
 10
134.849
 20
458.105
 11
134.55
 21
458.143
  0
LINE
  8
0
 10
134.55
 20
458.143
 11
134.258
 21
458.217
  0
LINE
  8
0
 10
134.258
 20
458.217
 11
133.978
 21
458.328
  0
LINE
  8
0
 10
133.978
 20
458.328
 11
133.714
 21
458.474
  0
LINE
  8
0
 10
133.714
 20
458.474
 11
133.47
 21
458.651
  0
LINE
  8
0
 10
133.47
 20
458.651
 11
133.25
 21
458.857
  0
LINE
  8
0
 10
133.25
 20
458.857
 11
133.058
 21
459.089
  0
LINE
  8
0
 10
133.058
 20
459.089
 11
132.897
 21
459.344
  0
LINE
  8
0
 10
132.897
 20
459.344
 11
132.769
 21
459.617
  0
LINE
  8
0
 10
132.769
 20
459.617
 11
132.675
 21
459.903
  0
LINE
  8
0
 10
132.675
 20
459.903
 11
132.619
 21
460.199
  0
LINE
  8
0
 10
132.619
 20
460.199
 11
132.6
 21
460.5
  0
LINE
  8
0
 10
132.6
 20
460.5
 11
132.619
 21
460.801
  0
LINE
  8
0
 10
132.619
 20
460.801
 11
132.675
 21
461.097
  0
LINE
  8
0
 10
132.675
 20
461.097
 11
132.769
 21
461.383
  0
LINE
  8
0
 10
132.769
 20
461.383
 11
132.897
 21
461.656
  0
LINE
  8
0
 10
132.897
 20
461.656
 11
133.058
 21
461.911
  0
LINE
  8
0
 10
133.058
 20
461.911
 11
133.25
 21
462.143
  0
LINE
  8
0
 10
133.25
 20
462.143
 11
133.47
 21
462.349
  0
LINE
  8
0
 10
133.47
 20
462.349
 11
133.714
 21
462.526
  0
LINE
  8
0
 10
133.714
 20
462.526
 11
133.978
 21
462.672
  0
LINE
  8
0
 10
133.978
 20
462.672
 11
134.258
 21
462.783
  0
LINE
  8
0
 10
134.258
 20
462.783
 11
134.55
 21
462.857
  0
LINE
  8
0
 10
134.55
 20
462.857
 11
134.849
 21
462.895
  0
LINE
  8
0
 10
134.849
 20
462.895
 11
135.151
 21
462.895
  0
LINE
  8
0
 10
135.151
 20
462.895
 11
135.45
 21
462.857
  0
LINE
  8
0
 10
135.45
 20
462.857
 11
135.742
 21
462.783
  0
LINE
  8
0
 10
135.742
 20
462.783
 11
136.022
 21
462.672
  0
LINE
  8
0
 10
136.022
 20
462.672
 11
136.286
 21
462.526
  0
LINE
  8
0
 10
136.286
 20
462.526
 11
136.53
 21
462.349
  0
LINE
  8
0
 10
136.53
 20
462.349
 11
136.75
 21
462.143
  0
LINE
  8
0
 10
136.75
 20
462.143
 11
136.942
 21
461.911
  0
LINE
  8
0
 10
136.942
 20
461.911
 11
137.103
 21
461.656
  0
LINE
  8
0
 10
137.103
 20
461.656
 11
137.231
 21
461.383
  0
LINE
  8
0
 10
137.231
 20
461.383
 11
137.325
 21
461.097
  0
LINE
  8
0
 10
137.325
 20
461.097
 11
137.381
 21
460.801
  0
LINE
  8
0
 10
137.381
 20
460.801
 11
137.4
 21
460.5
  0
LINE
  8
0
 10
137.4
 20
460.5
 11
137.381
 21
460.199
  0
LINE
  8
0
 10
137.381
 20
460.199
 11
137.325
 21
459.903
  0
LINE
  8
0
 10
137.325
 20
459.903
 11
137.231
 21
459.617
  0
LINE
  8
0
 10
137.231
 20
459.617
 11
137.103
 21
459.344
  0
LINE
  8
0
 10
137.103
 20
459.344
 11
136.942
 21
459.089
  0
LINE
  8
0
 10
136.942
 20
459.089
 11
136.75
 21
458.857
  0
LINE
  8
0
 10
136.75
 20
458.857
 11
136.53
 21
458.651
  0
LINE
  8
0
 10
136.53
 20
458.651
 11
136.286
 21
458.474
  0
LINE
  8
0
 10
136.286
 20
458.474
 11
136.022
 21
458.328
  0
LINE
  8
0
 10
136.022
 20
458.328
 11
135.742
 21
458.217
  0
LINE
  8
0
 10
135.742
 20
458.217
 11
135.45
 21
458.143
  0
LINE
  8
0
 10
135.45
 20
458.143
 11
135.151
 21
458.105
  0
LINE
  8
0
 10
135.151
 20
458.105
 11
134.849
 21
458.105
  0
LINE
  8
0
 10
134.849
 20
293.105
 11
134.55
 21
293.143
  0
LINE
  8
0
 10
134.55
 20
293.143
 11
134.258
 21
293.217
  0
LINE
  8
0
 10
134.258
 20
293.217
 11
133.978
 21
293.328
  0
LINE
  8
0
 10
133.978
 20
293.328
 11
133.714
 21
293.474
  0
LINE
  8
0
 10
133.714
 20
293.474
 11
133.47
 21
293.651
  0
LINE
  8
0
 10
133.47
 20
293.651
 11
133.25
 21
293.857
  0
LINE
  8
0
 10
133.25
 20
293.857
 11
133.058
 21
294.089
  0
LINE
  8
0
 10
133.058
 20
294.089
 11
132.897
 21
294.344
  0
LINE
  8
0
 10
132.897
 20
294.344
 11
132.769
 21
294.617
  0
LINE
  8
0
 10
132.769
 20
294.617
 11
132.675
 21
294.903
  0
LINE
  8
0
 10
132.675
 20
294.903
 11
132.619
 21
295.199
  0
LINE
  8
0
 10
132.619
 20
295.199
 11
132.6
 21
295.5
  0
LINE
  8
0
 10
132.6
 20
295.5
 11
132.619
 21
295.801
  0
LINE
  8
0
 10
132.619
 20
295.801
 11
132.675
 21
296.097
  0
LINE
  8
0
 10
132.675
 20
296.097
 11
132.769
 21
296.383
  0
LINE
  8
0
 10
132.769
 20
296.383
 11
132.897
 21
296.656
  0
LINE
  8
0
 10
132.897
 20
296.656
 11
133.058
 21
296.911
  0
LINE
  8
0
 10
133.058
 20
296.911
 11
133.25
 21
297.143
  0
LINE
  8
0
 10
133.25
 20
297.143
 11
133.47
 21
297.349
  0
LINE
  8
0
 10
133.47
 20
297.349
 11
133.714
 21
297.526
  0
LINE
  8
0
 10
133.714
 20
297.526
 11
133.978
 21
297.672
  0
LINE
  8
0
 10
133.978
 20
297.672
 11
134.258
 21
297.783
  0
LINE
  8
0
 10
134.258
 20
297.783
 11
134.55
 21
297.857
  0
LINE
  8
0
 10
134.55
 20
297.857
 11
134.849
 21
297.895
  0
LINE
  8
0
 10
134.849
 20
297.895
 11
135.151
 21
297.895
  0
LINE
  8
0
 10
135.151
 20
297.895
 11
135.45
 21
297.857
  0
LINE
  8
0
 10
135.45
 20
297.857
 11
135.742
 21
297.783
  0
LINE
  8
0
 10
135.742
 20
297.783
 11
136.022
 21
297.672
  0
LINE
  8
0
 10
136.022
 20
297.672
 11
136.286
 21
297.526
  0
LINE
  8
0
 10
136.286
 20
297.526
 11
136.53
 21
297.349
  0
LINE
  8
0
 10
136.53
 20
297.349
 11
136.75
 21
297.143
  0
LINE
  8
0
 10
136.75
 20
297.143
 11
136.942
 21
296.911
  0
LINE
  8
0
 10
136.942
 20
296.911
 11
137.103
 21
296.656
  0
LINE
  8
0
 10
137.103
 20
296.656
 11
137.231
 21
296.383
  0
LINE
  8
0
 10
137.231
 20
296.383
 11
137.325
 21
296.097
  0
LINE
  8
0
 10
137.325
 20
296.097
 11
137.381
 21
295.801
  0
LINE
  8
0
 10
137.381
 20
295.801
 11
137.4
 21
295.5
  0
LINE
  8
0
 10
137.4
 20
295.5
 11
137.381
 21
295.199
  0
LINE
  8
0
 10
137.381
 20
295.199
 11
137.325
 21
294.903
  0
LINE
  8
0
 10
137.325
 20
294.903
 11
137.231
 21
294.617
  0
LINE
  8
0
 10
137.231
 20
294.617
 11
137.103
 21
294.344
  0
LINE
  8
0
 10
137.103
 20
294.344
 11
136.942
 21
294.089
  0
LINE
  8
0
 10
136.942
 20
294.089
 11
136.75
 21
293.857
  0
LINE
  8
0
 10
136.75
 20
293.857
 11
136.53
 21
293.651
  0
LINE
  8
0
 10
136.53
 20
293.651
 11
136.286
 21
293.474
  0
LINE
  8
0
 10
136.286
 20
293.474
 11
136.022
 21
293.328
  0
LINE
  8
0
 10
136.022
 20
293.328
 11
135.742
 21
293.217
  0
LINE
  8
0
 10
135.742
 20
293.217
 11
135.45
 21
293.143
  0
LINE
  8
0
 10
135.45
 20
293.143
 11
135.151
 21
293.105
  0
LINE
  8
0
 10
135.151
 20
293.105
 11
134.849
 21
293.105
  0
LINE
  8
0
 10
-135.151
 20
293.105
 11
-135.45
 21
293.143
  0
LINE
  8
0
 10
-135.45
 20
293.143
 11
-135.742
 21
293.217
  0
LINE
  8
0
 10
-135.742
 20
293.217
 11
-136.022
 21
293.328
  0
LINE
  8
0
 10
-136.022
 20
293.328
 11
-136.286
 21
293.474
  0
LINE
  8
0
 10
-136.286
 20
293.474
 11
-136.53
 21
293.651
  0
LINE
  8
0
 10
-136.53
 20
293.651
 11
-136.75
 21
293.857
  0
LINE
  8
0
 10
-136.75
 20
293.857
 11
-136.942
 21
294.089
  0
LINE
  8
0
 10
-136.942
 20
294.089
 11
-137.103
 21
294.344
  0
LINE
  8
0
 10
-137.103
 20
294.344
 11
-137.231
 21
294.617
  0
LINE
  8
0
 10
-137.231
 20
294.617
 11
-137.325
 21
294.903
  0
LINE
  8
0
 10
-137.325
 20
294.903
 11
-137.381
 21
295.199
  0
LINE
  8
0
 10
-137.381
 20
295.199
 11
-137.4
 21
295.5
  0
LINE
  8
0
 10
-137.4
 20
295.5
 11
-137.381
 21
295.801
  0
LINE
  8
0
 10
-137.381
 20
295.801
 11
-137.325
 21
296.097
  0
LINE
  8
0
 10
-137.325
 20
296.097
 11
-137.231
 21
296.383
  0
LINE
  8
0
 10
-137.231
 20
296.383
 11
-137.103
 21
296.656
  0
LINE
  8
0
 10
-137.103
 20
296.656
 11
-136.942
 21
296.911
  0
LINE
  8
0
 10
-136.942
 20
296.911
 11
-136.75
 21
297.143
  0
LINE
  8
0
 10
-136.75
 20
297.143
 11
-136.53
 21
297.349
  0
LINE
  8
0
 10
-136.53
 20
297.349
 11
-136.286
 21
297.526
  0
LINE
  8
0
 10
-136.286
 20
297.526
 11
-136.022
 21
297.672
  0
LINE
  8
0
 10
-136.022
 20
297.672
 11
-135.742
 21
297.783
  0
LINE
  8
0
 10
-135.742
 20
297.783
 11
-135.45
 21
297.857
  0
LINE
  8
0
 10
-135.45
 20
297.857
 11
-135.151
 21
297.895
  0
LINE
  8
0
 10
-135.151
 20
297.895
 11
-134.849
 21
297.895
  0
LINE
  8
0
 10
-134.849
 20
297.895
 11
-134.55
 21
297.857
  0
LINE
  8
0
 10
-134.55
 20
297.857
 11
-134.258
 21
297.783
  0
LINE
  8
0
 10
-134.258
 20
297.783
 11
-133.978
 21
297.672
  0
LINE
  8
0
 10
-133.978
 20
297.672
 11
-133.714
 21
297.526
  0
LINE
  8
0
 10
-133.714
 20
297.526
 11
-133.47
 21
297.349
  0
LINE
  8
0
 10
-133.47
 20
297.349
 11
-133.25
 21
297.143
  0
LINE
  8
0
 10
-133.25
 20
297.143
 11
-133.058
 21
296.911
  0
LINE
  8
0
 10
-133.058
 20
296.911
 11
-132.897
 21
296.656
  0
LINE
  8
0
 10
-132.897
 20
296.656
 11
-132.769
 21
296.383
  0
LINE
  8
0
 10
-132.769
 20
296.383
 11
-132.675
 21
296.097
  0
LINE
  8
0
 10
-132.675
 20
296.097
 11
-132.619
 21
295.801
  0
LINE
  8
0
 10
-132.619
 20
295.801
 11
-132.6
 21
295.5
  0
LINE
  8
0
 10
-132.6
 20
295.5
 11
-132.619
 21
295.199
  0
LINE
  8
0
 10
-132.619
 20
295.199
 11
-132.675
 21
294.903
  0
LINE
  8
0
 10
-132.675
 20
294.903
 11
-132.769
 21
294.617
  0
LINE
  8
0
 10
-132.769
 20
294.617
 11
-132.897
 21
294.344
  0
LINE
  8
0
 10
-132.897
 20
294.344
 11
-133.058
 21
294.089
  0
LINE
  8
0
 10
-133.058
 20
294.089
 11
-133.25
 21
293.857
  0
LINE
  8
0
 10
-133.25
 20
293.857
 11
-133.47
 21
293.651
  0
LINE
  8
0
 10
-133.47
 20
293.651
 11
-133.714
 21
293.474
  0
LINE
  8
0
 10
-133.714
 20
293.474
 11
-133.978
 21
293.328
  0
LINE
  8
0
 10
-133.978
 20
293.328
 11
-134.258
 21
293.217
  0
LINE
  8
0
 10
-134.258
 20
293.217
 11
-134.55
 21
293.143
  0
LINE
  8
0
 10
-134.55
 20
293.143
 11
-134.849
 21
293.105
  0
LINE
  8
0
 10
-134.849
 20
293.105
 11
-135.151
 21
293.105
  0
LINE
  8
0
 10
138.437
 20
99.0886
 11
139.045
 21
99.2447
  0
LINE
  8
0
 10
139.045
 20
99.2447
 11
139.629
 21
99.4759
  0
LINE
  8
0
 10
139.629
 20
99.4759
 11
140.179
 21
99.7784
  0
LINE
  8
0
 10
140.179
 20
99.7784
 11
140.687
 21
100.147
  0
LINE
  8
0
 10
140.687
 20
100.147
 11
141.145
 21
100.577
  0
LINE
  8
0
 10
141.145
 20
100.577
 11
141.545
 21
101.061
  0
LINE
  8
0
 10
141.545
 20
101.061
 11
141.882
 21
101.591
  0
LINE
  8
0
 10
141.882
 20
101.591
 11
142.149
 21
102.159
  0
LINE
  8
0
 10
142.149
 20
102.159
 11
142.343
 21
102.757
  0
LINE
  8
0
 10
142.343
 20
102.757
 11
142.461
 21
103.373
  0
LINE
  8
0
 10
142.461
 20
103.373
 11
142.5
 21
104
  0
LINE
  8
0
 10
142.5
 20
104
 11
142.5
 21
274
  0
LINE
  8
0
 10
142.5
 20
274
 11
142.461
 21
274.627
  0
LINE
  8
0
 10
142.461
 20
274.627
 11
142.343
 21
275.243
  0
LINE
  8
0
 10
142.343
 20
275.243
 11
142.149
 21
275.841
  0
LINE
  8
0
 10
142.149
 20
275.841
 11
141.882
 21
276.409
  0
LINE
  8
0
 10
141.882
 20
276.409
 11
141.545
 21
276.939
  0
LINE
  8
0
 10
141.545
 20
276.939
 11
141.145
 21
277.423
  0
LINE
  8
0
 10
141.145
 20
277.423
 11
140.687
 21
277.853
  0
LINE
  8
0
 10
140.687
 20
277.853
 11
140.179
 21
278.222
  0
LINE
  8
0
 10
140.179
 20
278.222
 11
139.629
 21
278.524
  0
LINE
  8
0
 10
139.629
 20
278.524
 11
139.045
 21
278.755
  0
LINE
  8
0
 10
139.045
 20
278.755
 11
138.437
 21
278.911
  0
LINE
  8
0
 10
138.437
 20
278.911
 11
137.814
 21
278.99
  0
LINE
  8
0
 10
137.814
 20
278.99
 11
-137.814
 21
278.99
  0
LINE
  8
0
 10
-137.814
 20
278.99
 11
-138.437
 21
278.911
  0
LINE
  8
0
 10
-138.437
 20
278.911
 11
-139.045
 21
278.755
  0
LINE
  8
0
 10
-139.045
 20
278.755
 11
-139.629
 21
278.524
  0
LINE
  8
0
 10
-139.629
 20
278.524
 11
-140.179
 21
278.222
  0
LINE
  8
0
 10
-140.179
 20
278.222
 11
-140.687
 21
277.853
  0
LINE
  8
0
 10
-140.687
 20
277.853
 11
-141.145
 21
277.423
  0
LINE
  8
0
 10
-141.145
 20
277.423
 11
-141.545
 21
276.939
  0
LINE
  8
0
 10
-141.545
 20
276.939
 11
-141.882
 21
276.409
  0
LINE
  8
0
 10
-141.882
 20
276.409
 11
-142.149
 21
275.841
  0
LINE
  8
0
 10
-142.149
 20
275.841
 11
-142.343
 21
275.243
  0
LINE
  8
0
 10
-142.343
 20
275.243
 11
-142.4
 21
274.944
  0
LINE
  8
0
 10
-142.4
 20
274.944
 11
-144
 21
274.944
  0
LINE
  8
0
 10
-144
 20
274.944
 11
-144
 21
103.056
  0
LINE
  8
0
 10
-144
 20
103.056
 11
-142.4
 21
103.056
  0
LINE
  8
0
 10
-142.4
 20
103.056
 11
-142.343
 21
102.757
  0
LINE
  8
0
 10
-142.343
 20
102.757
 11
-142.149
 21
102.159
  0
LINE
  8
0
 10
-142.149
 20
102.159
 11
-141.882
 21
101.591
  0
LINE
  8
0
 10
-141.882
 20
101.591
 11
-141.545
 21
101.061
  0
LINE
  8
0
 10
-141.545
 20
101.061
 11
-141.145
 21
100.577
  0
LINE
  8
0
 10
-141.145
 20
100.577
 11
-140.687
 21
100.147
  0
LINE
  8
0
 10
-140.687
 20
100.147
 11
-140.179
 21
99.7784
  0
LINE
  8
0
 10
-140.179
 20
99.7784
 11
-139.629
 21
99.4759
  0
LINE
  8
0
 10
-139.629
 20
99.4759
 11
-139.045
 21
99.2447
  0
LINE
  8
0
 10
-139.045
 20
99.2447
 11
-138.437
 21
99.0886
  0
LINE
  8
0
 10
-138.437
 20
99.0886
 11
-137.814
 21
99.0099
  0
LINE
  8
0
 10
-137.814
 20
99.0099
 11
137.814
 21
99.0099
  0
LINE
  8
0
 10
137.814
 20
99.0099
 11
138.437
 21
99.0886
  0
LINE
  8
0
 10
134.887
 20
269.704
 11
134.663
 21
269.732
  0
LINE
  8
0
 10
134.663
 20
269.732
 11
134.444
 21
269.788
  0
LINE
  8
0
 10
134.444
 20
269.788
 11
134.234
 21
269.871
  0
LINE
  8
0
 10
134.234
 20
269.871
 11
134.036
 21
269.98
  0
LINE
  8
0
 10
134.036
 20
269.98
 11
133.853
 21
270.113
  0
LINE
  8
0
 10
133.853
 20
270.113
 11
133.688
 21
270.268
  0
LINE
  8
0
 10
133.688
 20
270.268
 11
133.544
 21
270.442
  0
LINE
  8
0
 10
133.544
 20
270.442
 11
133.423
 21
270.633
  0
LINE
  8
0
 10
133.423
 20
270.633
 11
133.326
 21
270.837
  0
LINE
  8
0
 10
133.326
 20
270.837
 11
133.257
 21
271.052
  0
LINE
  8
0
 10
133.257
 20
271.052
 11
133.214
 21
271.274
  0
LINE
  8
0
 10
133.214
 20
271.274
 11
133.2
 21
271.5
  0
LINE
  8
0
 10
133.2
 20
271.5
 11
133.214
 21
271.726
  0
LINE
  8
0
 10
133.214
 20
271.726
 11
133.257
 21
271.948
  0
LINE
  8
0
 10
133.257
 20
271.948
 11
133.326
 21
272.163
  0
LINE
  8
0
 10
133.326
 20
272.163
 11
133.423
 21
272.367
  0
LINE
  8
0
 10
133.423
 20
272.367
 11
133.544
 21
272.558
  0
LINE
  8
0
 10
133.544
 20
272.558
 11
133.688
 21
272.732
  0
LINE
  8
0
 10
133.688
 20
272.732
 11
133.853
 21
272.887
  0
LINE
  8
0
 10
133.853
 20
272.887
 11
134.036
 21
273.02
  0
LINE
  8
0
 10
134.036
 20
273.02
 11
134.234
 21
273.129
  0
LINE
  8
0
 10
134.234
 20
273.129
 11
134.444
 21
273.212
  0
LINE
  8
0
 10
134.444
 20
273.212
 11
134.663
 21
273.268
  0
LINE
  8
0
 10
134.663
 20
273.268
 11
134.887
 21
273.296
  0
LINE
  8
0
 10
134.887
 20
273.296
 11
135.113
 21
273.296
  0
LINE
  8
0
 10
135.113
 20
273.296
 11
135.337
 21
273.268
  0
LINE
  8
0
 10
135.337
 20
273.268
 11
135.556
 21
273.212
  0
LINE
  8
0
 10
135.556
 20
273.212
 11
135.766
 21
273.129
  0
LINE
  8
0
 10
135.766
 20
273.129
 11
135.964
 21
273.02
  0
LINE
  8
0
 10
135.964
 20
273.02
 11
136.147
 21
272.887
  0
LINE
  8
0
 10
136.147
 20
272.887
 11
136.312
 21
272.732
  0
LINE
  8
0
 10
136.312
 20
272.732
 11
136.456
 21
272.558
  0
LINE
  8
0
 10
136.456
 20
272.558
 11
136.577
 21
272.367
  0
LINE
  8
0
 10
136.577
 20
272.367
 11
136.674
 21
272.163
  0
LINE
  8
0
 10
136.674
 20
272.163
 11
136.743
 21
271.948
  0
LINE
  8
0
 10
136.743
 20
271.948
 11
136.786
 21
271.726
  0
LINE
  8
0
 10
136.786
 20
271.726
 11
136.8
 21
271.5
  0
LINE
  8
0
 10
136.8
 20
271.5
 11
136.786
 21
271.274
  0
LINE
  8
0
 10
136.786
 20
271.274
 11
136.743
 21
271.052
  0
LINE
  8
0
 10
136.743
 20
271.052
 11
136.674
 21
270.837
  0
LINE
  8
0
 10
136.674
 20
270.837
 11
136.577
 21
270.633
  0
LINE
  8
0
 10
136.577
 20
270.633
 11
136.456
 21
270.442
  0
LINE
  8
0
 10
136.456
 20
270.442
 11
136.312
 21
270.268
  0
LINE
  8
0
 10
136.312
 20
270.268
 11
136.147
 21
270.113
  0
LINE
  8
0
 10
136.147
 20
270.113
 11
135.964
 21
269.98
  0
LINE
  8
0
 10
135.964
 20
269.98
 11
135.766
 21
269.871
  0
LINE
  8
0
 10
135.766
 20
269.871
 11
135.556
 21
269.788
  0
LINE
  8
0
 10
135.556
 20
269.788
 11
135.337
 21
269.732
  0
LINE
  8
0
 10
135.337
 20
269.732
 11
135.113
 21
269.704
  0
LINE
  8
0
 10
135.113
 20
269.704
 11
134.887
 21
269.704
  0
LINE
  8
0
 10
-135.113
 20
269.704
 11
-135.337
 21
269.732
  0
LINE
  8
0
 10
-135.337
 20
269.732
 11
-135.556
 21
269.788
  0
LINE
  8
0
 10
-135.556
 20
269.788
 11
-135.766
 21
269.871
  0
LINE
  8
0
 10
-135.766
 20
269.871
 11
-135.964
 21
269.98
  0
LINE
  8
0
 10
-135.964
 20
269.98
 11
-136.147
 21
270.113
  0
LINE
  8
0
 10
-136.147
 20
270.113
 11
-136.312
 21
270.268
  0
LINE
  8
0
 10
-136.312
 20
270.268
 11
-136.456
 21
270.442
  0
LINE
  8
0
 10
-136.456
 20
270.442
 11
-136.577
 21
270.633
  0
LINE
  8
0
 10
-136.577
 20
270.633
 11
-136.674
 21
270.837
  0
LINE
  8
0
 10
-136.674
 20
270.837
 11
-136.743
 21
271.052
  0
LINE
  8
0
 10
-136.743
 20
271.052
 11
-136.786
 21
271.274
  0
LINE
  8
0
 10
-136.786
 20
271.274
 11
-136.8
 21
271.5
  0
LINE
  8
0
 10
-136.8
 20
271.5
 11
-136.786
 21
271.726
  0
LINE
  8
0
 10
-136.786
 20
271.726
 11
-136.743
 21
271.948
  0
LINE
  8
0
 10
-136.743
 20
271.948
 11
-136.674
 21
272.163
  0
LINE
  8
0
 10
-136.674
 20
272.163
 11
-136.577
 21
272.367
  0
LINE
  8
0
 10
-136.577
 20
272.367
 11
-136.456
 21
272.558
  0
LINE
  8
0
 10
-136.456
 20
272.558
 11
-136.312
 21
272.732
  0
LINE
  8
0
 10
-136.312
 20
272.732
 11
-136.147
 21
272.887
  0
LINE
  8
0
 10
-136.147
 20
272.887
 11
-135.964
 21
273.02
  0
LINE
  8
0
 10
-135.964
 20
273.02
 11
-135.766
 21
273.129
  0
LINE
  8
0
 10
-135.766
 20
273.129
 11
-135.556
 21
273.212
  0
LINE
  8
0
 10
-135.556
 20
273.212
 11
-135.337
 21
273.268
  0
LINE
  8
0
 10
-135.337
 20
273.268
 11
-135.113
 21
273.296
  0
LINE
  8
0
 10
-135.113
 20
273.296
 11
-134.887
 21
273.296
  0
LINE
  8
0
 10
-134.887
 20
273.296
 11
-134.663
 21
273.268
  0
LINE
  8
0
 10
-134.663
 20
273.268
 11
-134.444
 21
273.212
  0
LINE
  8
0
 10
-134.444
 20
273.212
 11
-134.234
 21
273.129
  0
LINE
  8
0
 10
-134.234
 20
273.129
 11
-134.036
 21
273.02
  0
LINE
  8
0
 10
-134.036
 20
273.02
 11
-133.853
 21
272.887
  0
LINE
  8
0
 10
-133.853
 20
272.887
 11
-133.688
 21
272.732
  0
LINE
  8
0
 10
-133.688
 20
272.732
 11
-133.544
 21
272.558
  0
LINE
  8
0
 10
-133.544
 20
272.558
 11
-133.423
 21
272.367
  0
LINE
  8
0
 10
-133.423
 20
272.367
 11
-133.326
 21
272.163
  0
LINE
  8
0
 10
-133.326
 20
272.163
 11
-133.257
 21
271.948
  0
LINE
  8
0
 10
-133.257
 20
271.948
 11
-133.214
 21
271.726
  0
LINE
  8
0
 10
-133.214
 20
271.726
 11
-133.2
 21
271.5
  0
LINE
  8
0
 10
-133.2
 20
271.5
 11
-133.214
 21
271.274
  0
LINE
  8
0
 10
-133.214
 20
271.274
 11
-133.257
 21
271.052
  0
LINE
  8
0
 10
-133.257
 20
271.052
 11
-133.326
 21
270.837
  0
LINE
  8
0
 10
-133.326
 20
270.837
 11
-133.423
 21
270.633
  0
LINE
  8
0
 10
-133.423
 20
270.633
 11
-133.544
 21
270.442
  0
LINE
  8
0
 10
-133.544
 20
270.442
 11
-133.688
 21
270.268
  0
LINE
  8
0
 10
-133.688
 20
270.268
 11
-133.853
 21
270.113
  0
LINE
  8
0
 10
-133.853
 20
270.113
 11
-134.036
 21
269.98
  0
LINE
  8
0
 10
-134.036
 20
269.98
 11
-134.234
 21
269.871
  0
LINE
  8
0
 10
-134.234
 20
269.871
 11
-134.444
 21
269.788
  0
LINE
  8
0
 10
-134.444
 20
269.788
 11
-134.663
 21
269.732
  0
LINE
  8
0
 10
-134.663
 20
269.732
 11
-134.887
 21
269.704
  0
LINE
  8
0
 10
-134.887
 20
269.704
 11
-135.113
 21
269.704
  0
LINE
  8
0
 10
134.887
 20
104.704
 11
134.663
 21
104.732
  0
LINE
  8
0
 10
134.663
 20
104.732
 11
134.444
 21
104.788
  0
LINE
  8
0
 10
134.444
 20
104.788
 11
134.234
 21
104.871
  0
LINE
  8
0
 10
134.234
 20
104.871
 11
134.036
 21
104.98
  0
LINE
  8
0
 10
134.036
 20
104.98
 11
133.853
 21
105.113
  0
LINE
  8
0
 10
133.853
 20
105.113
 11
133.688
 21
105.268
  0
LINE
  8
0
 10
133.688
 20
105.268
 11
133.544
 21
105.442
  0
LINE
  8
0
 10
133.544
 20
105.442
 11
133.423
 21
105.633
  0
LINE
  8
0
 10
133.423
 20
105.633
 11
133.326
 21
105.837
  0
LINE
  8
0
 10
133.326
 20
105.837
 11
133.257
 21
106.052
  0
LINE
  8
0
 10
133.257
 20
106.052
 11
133.214
 21
106.274
  0
LINE
  8
0
 10
133.214
 20
106.274
 11
133.2
 21
106.5
  0
LINE
  8
0
 10
133.2
 20
106.5
 11
133.214
 21
106.726
  0
LINE
  8
0
 10
133.214
 20
106.726
 11
133.257
 21
106.948
  0
LINE
  8
0
 10
133.257
 20
106.948
 11
133.326
 21
107.163
  0
LINE
  8
0
 10
133.326
 20
107.163
 11
133.423
 21
107.367
  0
LINE
  8
0
 10
133.423
 20
107.367
 11
133.544
 21
107.558
  0
LINE
  8
0
 10
133.544
 20
107.558
 11
133.688
 21
107.732
  0
LINE
  8
0
 10
133.688
 20
107.732
 11
133.853
 21
107.887
  0
LINE
  8
0
 10
133.853
 20
107.887
 11
134.036
 21
108.02
  0
LINE
  8
0
 10
134.036
 20
108.02
 11
134.234
 21
108.129
  0
LINE
  8
0
 10
134.234
 20
108.129
 11
134.444
 21
108.212
  0
LINE
  8
0
 10
134.444
 20
108.212
 11
134.663
 21
108.268
  0
LINE
  8
0
 10
134.663
 20
108.268
 11
134.887
 21
108.296
  0
LINE
  8
0
 10
134.887
 20
108.296
 11
135.113
 21
108.296
  0
LINE
  8
0
 10
135.113
 20
108.296
 11
135.337
 21
108.268
  0
LINE
  8
0
 10
135.337
 20
108.268
 11
135.556
 21
108.212
  0
LINE
  8
0
 10
135.556
 20
108.212
 11
135.766
 21
108.129
  0
LINE
  8
0
 10
135.766
 20
108.129
 11
135.964
 21
108.02
  0
LINE
  8
0
 10
135.964
 20
108.02
 11
136.147
 21
107.887
  0
LINE
  8
0
 10
136.147
 20
107.887
 11
136.312
 21
107.732
  0
LINE
  8
0
 10
136.312
 20
107.732
 11
136.456
 21
107.558
  0
LINE
  8
0
 10
136.456
 20
107.558
 11
136.577
 21
107.367
  0
LINE
  8
0
 10
136.577
 20
107.367
 11
136.674
 21
107.163
  0
LINE
  8
0
 10
136.674
 20
107.163
 11
136.743
 21
106.948
  0
LINE
  8
0
 10
136.743
 20
106.948
 11
136.786
 21
106.726
  0
LINE
  8
0
 10
136.786
 20
106.726
 11
136.8
 21
106.5
  0
LINE
  8
0
 10
136.8
 20
106.5
 11
136.786
 21
106.274
  0
LINE
  8
0
 10
136.786
 20
106.274
 11
136.743
 21
106.052
  0
LINE
  8
0
 10
136.743
 20
106.052
 11
136.674
 21
105.837
  0
LINE
  8
0
 10
136.674
 20
105.837
 11
136.577
 21
105.633
  0
LINE
  8
0
 10
136.577
 20
105.633
 11
136.456
 21
105.442
  0
LINE
  8
0
 10
136.456
 20
105.442
 11
136.312
 21
105.268
  0
LINE
  8
0
 10
136.312
 20
105.268
 11
136.147
 21
105.113
  0
LINE
  8
0
 10
136.147
 20
105.113
 11
135.964
 21
104.98
  0
LINE
  8
0
 10
135.964
 20
104.98
 11
135.766
 21
104.871
  0
LINE
  8
0
 10
135.766
 20
104.871
 11
135.556
 21
104.788
  0
LINE
  8
0
 10
135.556
 20
104.788
 11
135.337
 21
104.732
  0
LINE
  8
0
 10
135.337
 20
104.732
 11
135.113
 21
104.704
  0
LINE
  8
0
 10
135.113
 20
104.704
 11
134.887
 21
104.704
  0
LINE
  8
0
 10
-135.113
 20
104.704
 11
-135.337
 21
104.732
  0
LINE
  8
0
 10
-135.337
 20
104.732
 11
-135.556
 21
104.788
  0
LINE
  8
0
 10
-135.556
 20
104.788
 11
-135.766
 21
104.871
  0
LINE
  8
0
 10
-135.766
 20
104.871
 11
-135.964
 21
104.98
  0
LINE
  8
0
 10
-135.964
 20
104.98
 11
-136.147
 21
105.113
  0
LINE
  8
0
 10
-136.147
 20
105.113
 11
-136.312
 21
105.268
  0
LINE
  8
0
 10
-136.312
 20
105.268
 11
-136.456
 21
105.442
  0
LINE
  8
0
 10
-136.456
 20
105.442
 11
-136.577
 21
105.633
  0
LINE
  8
0
 10
-136.577
 20
105.633
 11
-136.674
 21
105.837
  0
LINE
  8
0
 10
-136.674
 20
105.837
 11
-136.743
 21
106.052
  0
LINE
  8
0
 10
-136.743
 20
106.052
 11
-136.786
 21
106.274
  0
LINE
  8
0
 10
-136.786
 20
106.274
 11
-136.8
 21
106.5
  0
LINE
  8
0
 10
-136.8
 20
106.5
 11
-136.786
 21
106.726
  0
LINE
  8
0
 10
-136.786
 20
106.726
 11
-136.743
 21
106.948
  0
LINE
  8
0
 10
-136.743
 20
106.948
 11
-136.674
 21
107.163
  0
LINE
  8
0
 10
-136.674
 20
107.163
 11
-136.577
 21
107.367
  0
LINE
  8
0
 10
-136.577
 20
107.367
 11
-136.456
 21
107.558
  0
LINE
  8
0
 10
-136.456
 20
107.558
 11
-136.312
 21
107.732
  0
LINE
  8
0
 10
-136.312
 20
107.732
 11
-136.147
 21
107.887
  0
LINE
  8
0
 10
-136.147
 20
107.887
 11
-135.964
 21
108.02
  0
LINE
  8
0
 10
-135.964
 20
108.02
 11
-135.766
 21
108.129
  0
LINE
  8
0
 10
-135.766
 20
108.129
 11
-135.556
 21
108.212
  0
LINE
  8
0
 10
-135.556
 20
108.212
 11
-135.337
 21
108.268
  0
LINE
  8
0
 10
-135.337
 20
108.268
 11
-135.113
 21
108.296
  0
LINE
  8
0
 10
-135.113
 20
108.296
 11
-134.887
 21
108.296
  0
LINE
  8
0
 10
-134.887
 20
108.296
 11
-134.663
 21
108.268
  0
LINE
  8
0
 10
-134.663
 20
108.268
 11
-134.444
 21
108.212
  0
LINE
  8
0
 10
-134.444
 20
108.212
 11
-134.234
 21
108.129
  0
LINE
  8
0
 10
-134.234
 20
108.129
 11
-134.036
 21
108.02
  0
LINE
  8
0
 10
-134.036
 20
108.02
 11
-133.853
 21
107.887
  0
LINE
  8
0
 10
-133.853
 20
107.887
 11
-133.688
 21
107.732
  0
LINE
  8
0
 10
-133.688
 20
107.732
 11
-133.544
 21
107.558
  0
LINE
  8
0
 10
-133.544
 20
107.558
 11
-133.423
 21
107.367
  0
LINE
  8
0
 10
-133.423
 20
107.367
 11
-133.326
 21
107.163
  0
LINE
  8
0
 10
-133.326
 20
107.163
 11
-133.257
 21
106.948
  0
LINE
  8
0
 10
-133.257
 20
106.948
 11
-133.214
 21
106.726
  0
LINE
  8
0
 10
-133.214
 20
106.726
 11
-133.2
 21
106.5
  0
LINE
  8
0
 10
-133.2
 20
106.5
 11
-133.214
 21
106.274
  0
LINE
  8
0
 10
-133.214
 20
106.274
 11
-133.257
 21
106.052
  0
LINE
  8
0
 10
-133.257
 20
106.052
 11
-133.326
 21
105.837
  0
LINE
  8
0
 10
-133.326
 20
105.837
 11
-133.423
 21
105.633
  0
LINE
  8
0
 10
-133.423
 20
105.633
 11
-133.544
 21
105.442
  0
LINE
  8
0
 10
-133.544
 20
105.442
 11
-133.688
 21
105.268
  0
LINE
  8
0
 10
-133.688
 20
105.268
 11
-133.853
 21
105.113
  0
LINE
  8
0
 10
-133.853
 20
105.113
 11
-134.036
 21
104.98
  0
LINE
  8
0
 10
-134.036
 20
104.98
 11
-134.234
 21
104.871
  0
LINE
  8
0
 10
-134.234
 20
104.871
 11
-134.444
 21
104.788
  0
LINE
  8
0
 10
-134.444
 20
104.788
 11
-134.663
 21
104.732
  0
LINE
  8
0
 10
-134.663
 20
104.732
 11
-134.887
 21
104.704
  0
LINE
  8
0
 10
-134.887
 20
104.704
 11
-135.113
 21
104.704
  0
ENDSEC
  0
SECTION
  2
OBJECTS
  0
DICTIONARY
  0
ENDSEC
  0
EOF
