<?xml version="1.0" standalone="no"?>
<!DOCTYPE svg PUBLIC "-//W3C//DTD SVG 1.1//EN" "http://www.w3.org/Graphics/SVG/1.1/DTD/svg11.dtd">
<svg width="287mm" height="369mm" viewBox="-144 -468 287 369" xmlns="http://www.w3.org/2000/svg" version="1.1">
<title>OpenSCAD Model</title>
<path d="
M 138.437,-288.089 L 139.045,-288.245 L 139.629,-288.476 L 140.179,-288.778 L 140.687,-289.147 L 141.145,-289.577
 L 141.545,-290.061 L 141.882,-290.591 L 142.149,-291.159 L 142.343,-291.757 L 142.461,-292.373 L 142.5,-293
 L 142.5,-463 L 142.461,-463.627 L 142.343,-464.243 L 142.149,-464.841 L 141.882,-465.409 L 141.545,-465.939
 L 141.145,-466.423 L 140.687,-466.853 L 140.179,-467.222 L 139.629,-467.524 L 139.045,-467.755 L 138.437,-467.911
 L 137.814,-467.99 L -137.814,-467.99 L -138.437,-467.911 L -139.045,-467.755 L -139.629,-467.524 L -140.179,-467.222
 L -140.687,-466.853 L -141,-466.559 L -141,-467.615 L -144,-467.615 L -144,-288.385 L -141,-288.385
 L -141,-289.441 L -140.687,-289.147 L -140.179,-288.778 L -139.629,-288.476 L -139.045,-288.245 L -138.437,-288.089
 L -137.814,-288.01 L 137.814,-288.01 z
M -135.151,-458.105 L -135.45,-458.143 L -135.742,-458.217 L -136.022,-458.328 L -136.286,-458.474 L -136.53,-458.651
 L -136.75,-458.857 L -136.942,-459.089 L -137.103,-459.344 L -137.231,-459.617 L -137.325,-459.903 L -137.381,-460.199
 L -137.4,-460.5 L -137.381,-460.801 L -137.325,-461.097 L -137.231,-461.383 L -137.103,-461.656 L -136.942,-461.911
 L -136.75,-462.143 L -136.53,-462.349 L -136.286,-462.526 L -136.022,-462.672 L -135.742,-462.783 L -135.45,-462.857
 L -135.151,-462.895 L -134.849,-462.895 L -134.55,-462.857 L -134.258,-462.783 L -133.978,-462.672 L -133.714,-462.526
 L -133.47,-462.349 L -133.25,-462.143 L -133.058,-461.911 L -132.897,-461.656 L -132.769,-461.383 L -132.675,-461.097
 L -132.619,-460.801 L -132.6,-460.5 L -132.619,-460.199 L -132.675,-459.903 L -132.769,-459.617 L -132.897,-459.344
 L -133.058,-459.089 L -133.25,-458.857 L -133.47,-458.651 L -133.714,-458.474 L -133.978,-458.328 L -134.258,-458.217
 L -134.55,-458.143 L -134.849,-458.105 z
M 134.849,-458.105 L 134.55,-458.143 L 134.258,-458.217 L 133.978,-458.328 L 133.714,-458.474 L 133.47,-458.651
 L 133.25,-458.857 L 133.058,-459.089 L 132.897,-459.344 L 132.769,-459.617 L 132.675,-459.903 L 132.619,-460.199
 L 132.6,-460.5 L 132.619,-460.801 L 132.675,-461.097 L 132.769,-461.383 L 132.897,-461.656 L 133.058,-461.911
 L 133.25,-462.143 L 133.47,-462.349 L 133.714,-462.526 L 133.978,-462.672 L 134.258,-462.783 L 134.55,-462.857
 L 134.849,-462.895 L 135.151,-462.895 L 135.45,-462.857 L 135.742,-462.783 L 136.022,-462.672 L 136.286,-462.526
 L 136.53,-462.349 L 136.75,-462.143 L 136.942,-461.911 L 137.103,-461.656 L 137.231,-461.383 L 137.325,-461.097
 L 137.381,-460.801 L 137.4,-460.5 L 137.381,-460.199 L 137.325,-459.903 L 137.231,-459.617 L 137.103,-459.344
 L 136.942,-459.089 L 136.75,-458.857 L 136.53,-458.651 L 136.286,-458.474 L 136.022,-458.328 L 135.742,-458.217
 L 135.45,-458.143 L 135.151,-458.105 z
M 134.849,-293.105 L 134.55,-293.143 L 134.258,-293.217 L 133.978,-293.328 L 133.714,-293.474 L 133.47,-293.651
 L 133.25,-293.857 L 133.058,-294.089 L 132.897,-294.344 L 132.769,-294.617 L 132.675,-294.903 L 132.619,-295.199
 L 132.6,-295.5 L 132.619,-295.801 L 132.675,-296.097 L 132.769,-296.383 L 132.897,-296.656 L 133.058,-296.911
 L 133.25,-297.143 L 133.47,-297.349 L 133.714,-297.526 L 133.978,-297.672 L 134.258,-297.783 L 134.55,-297.857
 L 134.849,-297.895 L 135.151,-297.895 L 135.45,-297.857 L 135.742,-297.783 L 136.022,-297.672 L 136.286,-297.526
 L 136.53,-297.349 L 136.75,-297.143 L 136.942,-296.911 L 137.103,-296.656 L 137.231,-296.383 L 137.325,-296.097
 L 137.381,-295.801 L 137.4,-295.5 L 137.381,-295.199 L 137.325,-294.903 L 137.231,-294.617 L 137.103,-294.344
 L 136.942,-294.089 L 136.75,-293.857 L 136.53,-293.651 L 136.286,-293.474 L 136.022,-293.328 L 135.742,-293.217
 L 135.45,-293.143 L 135.151,-293.105 z
M -135.151,-293.105 L -135.45,-293.143 L -135.742,-293.217 L -136.022,-293.328 L -136.286,-293.474 L -136.53,-293.651
 L -136.75,-293.857 L -136.942,-294.089 L -137.103,-294.344 L -137.231,-294.617 L -137.325,-294.903 L -137.381,-295.199
 L -137.4,-295.5 L -137.381,-295.801 L -137.325,-296.097 L -137.231,-296.383 L -137.103,-296.656 L -136.942,-296.911
 L -136.75,-297.143 L -136.53,-297.349 L -136.286,-297.526 L -136.022,-297.672 L -135.742,-297.783 L -135.45,-297.857
 L -135.151,-297.895 L -134.849,-297.895 L -134.55,-297.857 L -134.258,-297.783 L -133.978,-297.672 L -133.714,-297.526
 L -133.47,-297.349 L -133.25,-297.143 L -133.058,-296.911 L -132.897,-296.656 L -132.769,-296.383 L -132.675,-296.097
 L -132.619,-295.801 L -132.6,-295.5 L -132.619,-295.199 L -132.675,-294.903 L -132.769,-294.617 L -132.897,-294.344
 L -133.058,-294.089 L -133.25,-293.857 L -133.47,-293.651 L -133.714,-293.474 L -133.978,-293.328 L -134.258,-293.217
 L -134.55,-293.143 L -134.849,-293.105 z
M 138.437,-99.0886 L 139.045,-99.2447 L 139.629,-99.4759 L 140.179,-99.7784 L 140.687,-100.147 L 141.145,-100.577
 L 141.545,-101.061 L 141.882,-101.591 L 142.149,-102.159 L 142.343,-102.757 L 142.461,-103.373 L 142.5,-104
 L 142.5,-274 L 142.461,-274.627 L 142.343,-275.243 L 142.149,-275.841 L 141.882,-276.409 L 141.545,-276.939
 L 141.145,-277.423 L 140.687,-277.853 L 140.179,-278.222 L 139.629,-278.524 L 139.045,-278.755 L 138.437,-278.911
 L 137.814,-278.99 L -137.814,-278.99 L -138.437,-278.911 L -139.045,-278.755 L -139.629,-278.524 L -140.179,-278.222
 L -140.687,-277.853 L -141.145,-277.423 L -141.545,-276.939 L -141.882,-276.409 L -142.149,-275.841 L -142.343,-275.243
 L -142.4,-274.944 L -144,-274.944 L -144,-103.056 L -142.4,-103.056 L -142.343,-102.757 L -142.149,-102.159
 L -141.882,-101.591 L -141.545,-101.061 L -141.145,-100.577 L -140.687,-100.147 L -140.179,-99.7784 L -139.629,-99.4759
 L -139.045,-99.2447 L -138.437,-99.0886 L -137.814,-99.0099 L 137.814,-99.0099 z
M 134.887,-269.704 L 134.663,-269.732 L 134.444,-269.788 L 134.234,-269.871 L 134.036,-269.98 L 133.853,-270.113
 L 133.688,-270.268 L 133.544,-270.442 L 133.423,-270.633 L 133.326,-270.837 L 133.257,-271.052 L 133.214,-271.274
 L 133.2,-271.5 L 133.214,-271.726 L 133.257,-271.948 L 133.326,-272.163 L 133.423,-272.367 L 133.544,-272.558
 L 133.688,-272.732 L 133.853,-272.887 L 134.036,-273.02 L 134.234,-273.129 L 134.444,-273.212 L 134.663,-273.268
 L 134.887,-273.296 L 135.113,-273.296 L 135.337,-273.268 L 135.556,-273.212 L 135.766,-273.129 L 135.964,-273.02
 L 136.147,-272.887 L 136.312,-272.732 L 136.456,-272.558 L 136.577,-272.367 L 136.674,-272.163 L 136.743,-271.948
 L 136.786,-271.726 L 136.8,-271.5 L 136.786,-271.274 L 136.743,-271.052 L 136.674,-270.837 L 136.577,-270.633
 L 136.456,-270.442 L 136.312,-270.268 L 136.147,-270.113 L 135.964,-269.98 L 135.766,-269.871 L 135.556,-269.788
 L 135.337,-269.732 L 135.113,-269.704 z
M -135.113,-269.704 L -135.337,-269.732 L -135.556,-269.788 L -135.766,-269.871 L -135.964,-269.98 L -136.147,-270.113
 L -136.312,-270.268 L -136.456,-270.442 L -136.577,-270.633 L -136.674,-270.837 L -136.743,-271.052 L -136.786,-271.274
 L -136.8,-271.5 L -136.786,-271.726 L -136.743,-271.948 L -136.674,-272.163 L -136.577,-272.367 L -136.456,-272.558
 L -136.312,-272.732 L -136.147,-272.887 L -135.964,-273.02 L -135.766,-273.129 L -135.556,-273.212 L -135.337,-273.268
 L -135.113,-273.296 L -134.887,-273.296 L -134.663,-273.268 L -134.444,-273.212 L -134.234,-273.129 L -134.036,-273.02
 L -133.853,-272.887 L -133.688,-272.732 L -133.544,-272.558 L -133.423,-272.367 L -133.326,-272.163 L -133.257,-271.948
 L -133.214,-271.726 L -133.2,-271.5 L -133.214,-271.274 L -133.257,-271.052 L -133.326,-270.837 L -133.423,-270.633
 L -133.544,-270.442 L -133.688,-270.268 L -133.853,-270.113 L -134.036,-269.98 L -134.234,-269.871 L -134.444,-269.788
 L -134.663,-269.732 L -134.887,-269.704 z
M 134.887,-104.704 L 134.663,-104.732 L 134.444,-104.788 L 134.234,-104.871 L 134.036,-104.98 L 133.853,-105.113
 L 133.688,-105.268 L 133.544,-105.442 L 133.423,-105.633 L 133.326,-105.837 L 133.257,-106.052 L 133.214,-106.274
 L 133.2,-106.5 L 133.214,-106.726 L 133.257,-106.948 L 133.326,-107.163 L 133.423,-107.367 L 133.544,-107.558
 L 133.688,-107.732 L 133.853,-107.887 L 134.036,-108.02 L 134.234,-108.129 L 134.444,-108.212 L 134.663,-108.268
 L 134.887,-108.296 L 135.113,-108.296 L 135.337,-108.268 L 135.556,-108.212 L 135.766,-108.129 L 135.964,-108.02
 L 136.147,-107.887 L 136.312,-107.732 L 136.456,-107.558 L 136.577,-107.367 L 136.674,-107.163 L 136.743,-106.948
 L 136.786,-106.726 L 136.8,-106.5 L 136.786,-106.274 L 136.743,-106.052 L 136.674,-105.837 L 136.577,-105.633
 L 136.456,-105.442 L 136.312,-105.268 L 136.147,-105.113 L 135.964,-104.98 L 135.766,-104.871 L 135.556,-104.788
 L 135.337,-104.732 L 135.113,-104.704 z
M -135.113,-104.704 L -135.337,-104.732 L -135.556,-104.788 L -135.766,-104.871 L -135.964,-104.98 L -136.147,-105.113
 L -136.312,-105.268 L -136.456,-105.442 L -136.577,-105.633 L -136.674,-105.837 L -136.743,-106.052 L -136.786,-106.274
 L -136.8,-106.5 L -136.786,-106.726 L -136.743,-106.948 L -136.674,-107.163 L -136.577,-107.367 L -136.456,-107.558
 L -136.312,-107.732 L -136.147,-107.887 L -135.964,-108.02 L -135.766,-108.129 L -135.556,-108.212 L -135.337,-108.268
 L -135.113,-108.296 L -134.887,-108.296 L -134.663,-108.268 L -134.444,-108.212 L -134.234,-108.129 L -134.036,-108.02
 L -133.853,-107.887 L -133.688,-107.732 L -133.544,-107.558 L -133.423,-107.367 L -133.326,-107.163 L -133.257,-106.948
 L -133.214,-106.726 L -133.2,-106.5 L -133.214,-106.274 L -133.257,-106.052 L -133.326,-105.837 L -133.423,-105.633
 L -133.544,-105.442 L -133.688,-105.268 L -133.853,-105.113 L -134.036,-104.98 L -134.234,-104.871 L -134.444,-104.788
 L -134.663,-104.732 L -134.887,-104.704 z
" stroke="black" fill="lightgray" stroke-width="0.5"/>
</svg>
