<?xml version="1.0" standalone="no"?>
<!DOCTYPE svg PUBLIC "-//W3C//DTD SVG 1.1//EN" "http://www.w3.org/Graphics/SVG/1.1/DTD/svg11.dtd">
<svg width="270mm" height="336mm" viewBox="-135 -582 270 336" xmlns="http://www.w3.org/2000/svg" version="1.1">
<title>OpenSCAD Model</title>
<path d="
M 130.937,-522.089 L 131.545,-522.245 L 132.129,-522.476 L 132.679,-522.778 L 133.187,-523.147 L 133.645,-523.577
 L 134.045,-524.061 L 134.382,-524.591 L 134.649,-525.159 L 134.843,-525.757 L 134.961,-526.373 L 135,-527
 L 135,-577 L 134.961,-577.627 L 134.843,-578.243 L 134.649,-578.841 L 134.382,-579.409 L 134.045,-579.939
 L 133.645,-580.423 L 133.187,-580.853 L 132.679,-581.222 L 132.129,-581.524 L 131.545,-581.755 L 130.937,-581.911
 L 130.314,-581.99 L -130.314,-581.99 L -130.937,-581.911 L -131.545,-581.755 L -132.129,-581.524 L -132.679,-581.222
 L -133.187,-580.853 L -133.645,-580.423 L -134.045,-579.939 L -134.382,-579.409 L -134.649,-578.841 L -134.843,-578.243
 L -134.961,-577.627 L -135,-577 L -135,-527 L -134.961,-526.373 L -134.843,-525.757 L -134.649,-525.159
 L -134.382,-524.591 L -134.045,-524.061 L -133.645,-523.577 L -133.187,-523.147 L -132.679,-522.778 L -132.129,-522.476
 L -131.545,-522.245 L -130.937,-522.089 L -130.314,-522.01 L 130.314,-522.01 z
M -130.048,-522.509 L -130.64,-522.584 L -131.218,-522.732 L -131.772,-522.952 L -132.295,-523.239 L -132.778,-523.59
 L -133.213,-523.998 L -133.593,-524.458 L -133.912,-524.962 L -134.166,-525.501 L -134.351,-526.069 L -134.463,-526.655
 L -134.5,-527.25 L -134.5,-576.75 L -134.463,-577.345 L -134.351,-577.931 L -134.166,-578.499 L -133.912,-579.038
 L -133.593,-579.542 L -133.213,-580.002 L -132.778,-580.41 L -132.295,-580.761 L -131.772,-581.048 L -131.218,-581.268
 L -130.64,-581.416 L -130.048,-581.491 L 130.048,-581.491 L 130.64,-581.416 L 131.218,-581.268 L 131.772,-581.048
 L 132.295,-580.761 L 132.778,-580.41 L 133.213,-580.002 L 133.593,-579.542 L 133.912,-579.038 L 134.166,-578.499
 L 134.351,-577.931 L 134.463,-577.345 L 134.5,-576.75 L 134.5,-527.25 L 134.463,-526.655 L 134.351,-526.069
 L 134.166,-525.501 L 133.912,-524.962 L 133.593,-524.458 L 133.213,-523.998 L 132.778,-523.59 L 132.295,-523.239
 L 131.772,-522.952 L 131.218,-522.732 L 130.64,-522.584 L 130.048,-522.509 z
M 130.937,-453.089 L 131.545,-453.245 L 132.129,-453.476 L 132.679,-453.778 L 133.187,-454.147 L 133.645,-454.577
 L 134.045,-455.061 L 134.382,-455.591 L 134.649,-456.159 L 134.843,-456.757 L 134.961,-457.373 L 135,-458
 L 135,-508 L 134.961,-508.627 L 134.843,-509.243 L 134.649,-509.841 L 134.382,-510.409 L 134.045,-510.939
 L 133.645,-511.423 L 133.187,-511.853 L 132.679,-512.222 L 132.129,-512.524 L 131.545,-512.755 L 130.937,-512.911
 L 130.314,-512.99 L -130.314,-512.99 L -130.937,-512.911 L -131.545,-512.755 L -132.129,-512.524 L -132.679,-512.222
 L -133.187,-511.853 L -133.645,-511.423 L -134.045,-510.939 L -134.382,-510.409 L -134.649,-509.841 L -134.843,-509.243
 L -134.961,-508.627 L -135,-508 L -135,-458 L -134.961,-457.373 L -134.843,-456.757 L -134.649,-456.159
 L -134.382,-455.591 L -134.045,-455.061 L -133.645,-454.577 L -133.187,-454.147 L -132.679,-453.778 L -132.129,-453.476
 L -131.545,-453.245 L -130.937,-453.089 L -130.314,-453.01 L 130.314,-453.01 z
M -130.048,-453.509 L -130.64,-453.584 L -131.218,-453.732 L -131.772,-453.952 L -132.295,-454.239 L -132.778,-454.59
 L -133.213,-454.998 L -133.593,-455.458 L -133.912,-455.962 L -134.166,-456.501 L -134.351,-457.069 L -134.463,-457.655
 L -134.5,-458.25 L -134.5,-507.75 L -134.463,-508.345 L -134.351,-508.931 L -134.166,-509.499 L -133.912,-510.038
 L -133.593,-510.542 L -133.213,-511.002 L -132.778,-511.41 L -132.295,-511.761 L -131.772,-512.048 L -131.218,-512.268
 L -130.64,-512.416 L -130.048,-512.491 L 130.048,-512.491 L 130.64,-512.416 L 131.218,-512.268 L 131.772,-512.048
 L 132.295,-511.761 L 132.778,-511.41 L 133.213,-511.002 L 133.593,-510.542 L 133.912,-510.038 L 134.166,-509.499
 L 134.351,-508.931 L 134.463,-508.345 L 134.5,-507.75 L 134.5,-458.25 L 134.463,-457.655 L 134.351,-457.069
 L 134.166,-456.501 L 133.912,-455.962 L 133.593,-455.458 L 133.213,-454.998 L 132.778,-454.59 L 132.295,-454.239
 L 131.772,-453.952 L 131.218,-453.732 L 130.64,-453.584 L 130.048,-453.509 z
M 130.937,-384.089 L 131.545,-384.245 L 132.129,-384.476 L 132.679,-384.778 L 133.187,-385.147 L 133.645,-385.577
 L 134.045,-386.061 L 134.382,-386.591 L 134.649,-387.159 L 134.843,-387.757 L 134.961,-388.373 L 135,-389
 L 135,-439 L 134.961,-439.627 L 134.843,-440.243 L 134.649,-440.841 L 134.382,-441.409 L 134.045,-441.939
 L 133.645,-442.423 L 133.187,-442.853 L 132.679,-443.222 L 132.129,-443.524 L 131.545,-443.755 L 130.937,-443.911
 L 130.314,-443.99 L -130.314,-443.99 L -130.937,-443.911 L -131.545,-443.755 L -132.129,-443.524 L -132.679,-443.222
 L -133.187,-442.853 L -133.645,-442.423 L -134.045,-441.939 L -134.382,-441.409 L -134.649,-440.841 L -134.843,-440.243
 L -134.961,-439.627 L -135,-439 L -135,-389 L -134.961,-388.373 L -134.843,-387.757 L -134.649,-387.159
 L -134.382,-386.591 L -134.045,-386.061 L -133.645,-385.577 L -133.187,-385.147 L -132.679,-384.778 L -132.129,-384.476
 L -131.545,-384.245 L -130.937,-384.089 L -130.314,-384.01 L 130.314,-384.01 z
M -130.048,-384.509 L -130.64,-384.584 L -131.218,-384.732 L -131.772,-384.952 L -132.295,-385.239 L -132.778,-385.59
 L -133.213,-385.998 L -133.593,-386.458 L -133.912,-386.962 L -134.166,-387.501 L -134.351,-388.069 L -134.463,-388.655
 L -134.5,-389.25 L -134.5,-438.75 L -134.463,-439.345 L -134.351,-439.931 L -134.166,-440.499 L -133.912,-441.038
 L -133.593,-441.542 L -133.213,-442.002 L -132.778,-442.41 L -132.295,-442.761 L -131.772,-443.048 L -131.218,-443.268
 L -130.64,-443.416 L -130.048,-443.491 L 130.048,-443.491 L 130.64,-443.416 L 131.218,-443.268 L 131.772,-443.048
 L 132.295,-442.761 L 132.778,-442.41 L 133.213,-442.002 L 133.593,-441.542 L 133.912,-441.038 L 134.166,-440.499
 L 134.351,-439.931 L 134.463,-439.345 L 134.5,-438.75 L 134.5,-389.25 L 134.463,-388.655 L 134.351,-388.069
 L 134.166,-387.501 L 133.912,-386.962 L 133.593,-386.458 L 133.213,-385.998 L 132.778,-385.59 L 132.295,-385.239
 L 131.772,-384.952 L 131.218,-384.732 L 130.64,-384.584 L 130.048,-384.509 z
M 130.937,-315.089 L 131.545,-315.245 L 132.129,-315.476 L 132.679,-315.778 L 133.187,-316.147 L 133.645,-316.577
 L 134.045,-317.061 L 134.382,-317.591 L 134.649,-318.159 L 134.843,-318.757 L 134.961,-319.373 L 135,-320
 L 135,-370 L 134.961,-370.627 L 134.843,-371.243 L 134.649,-371.841 L 134.382,-372.409 L 134.045,-372.939
 L 133.645,-373.423 L 133.187,-373.853 L 132.679,-374.222 L 132.129,-374.524 L 131.545,-374.755 L 130.937,-374.911
 L 130.314,-374.99 L -130.314,-374.99 L -130.937,-374.911 L -131.545,-374.755 L -132.129,-374.524 L -132.679,-374.222
 L -133.187,-373.853 L -133.645,-373.423 L -134.045,-372.939 L -134.382,-372.409 L -134.649,-371.841 L -134.843,-371.243
 L -134.961,-370.627 L -135,-370 L -135,-320 L -134.961,-319.373 L -134.843,-318.757 L -134.649,-318.159
 L -134.382,-317.591 L -134.045,-317.061 L -133.645,-316.577 L -133.187,-316.147 L -132.679,-315.778 L -132.129,-315.476
 L -131.545,-315.245 L -130.937,-315.089 L -130.314,-315.01 L 130.314,-315.01 z
M -129.993,-316.388 L -130.475,-316.449 L -130.946,-316.57 L -131.398,-316.749 L -131.823,-316.983 L -132.216,-317.269
 L -132.571,-317.601 L -132.88,-317.976 L -133.141,-318.386 L -133.348,-318.826 L -133.498,-319.288 L -133.589,-319.765
 L -133.619,-320.25 L -133.619,-369.75 L -133.589,-370.235 L -133.498,-370.712 L -133.348,-371.174 L -133.141,-371.614
 L -132.88,-372.024 L -132.571,-372.399 L -132.216,-372.731 L -131.823,-373.017 L -131.398,-373.251 L -130.946,-373.43
 L -130.475,-373.551 L -129.993,-373.612 L 129.993,-373.612 L 130.475,-373.551 L 130.946,-373.43 L 131.398,-373.251
 L 131.823,-373.017 L 132.216,-372.731 L 132.571,-372.399 L 132.88,-372.024 L 133.141,-371.614 L 133.348,-371.174
 L 133.498,-370.712 L 133.589,-370.235 L 133.619,-369.75 L 133.619,-320.25 L 133.589,-319.765 L 133.498,-319.288
 L 133.348,-318.826 L 133.141,-318.386 L 132.88,-317.976 L 132.571,-317.601 L 132.216,-317.269 L 131.823,-316.983
 L 131.398,-316.749 L 130.946,-316.57 L 130.475,-316.449 L 129.993,-316.388 z
M 130.937,-246.089 L 131.545,-246.245 L 132.129,-246.476 L 132.679,-246.778 L 133.187,-247.147 L 133.645,-247.577
 L 134.045,-248.061 L 134.382,-248.591 L 134.649,-249.159 L 134.843,-249.757 L 134.961,-250.373 L 135,-251
 L 135,-301 L 134.961,-301.627 L 134.843,-302.243 L 134.649,-302.841 L 134.382,-303.409 L 134.045,-303.939
 L 133.645,-304.423 L 133.187,-304.853 L 132.679,-305.222 L 132.129,-305.524 L 131.545,-305.755 L 130.937,-305.911
 L 130.314,-305.99 L -130.314,-305.99 L -130.937,-305.911 L -131.545,-305.755 L -132.129,-305.524 L -132.679,-305.222
 L -133.187,-304.853 L -133.645,-304.423 L -134.045,-303.939 L -134.382,-303.409 L -134.649,-302.841 L -134.843,-302.243
 L -134.961,-301.627 L -135,-301 L -135,-251 L -134.961,-250.373 L -134.843,-249.757 L -134.649,-249.159
 L -134.382,-248.591 L -134.045,-248.061 L -133.645,-247.577 L -133.187,-247.147 L -132.679,-246.778 L -132.129,-246.476
 L -131.545,-246.245 L -130.937,-246.089 L -130.314,-246.01 L 130.314,-246.01 z
M -127.613,-296.704 L -127.837,-296.732 L -128.056,-296.788 L -128.266,-296.871 L -128.464,-296.98 L -128.647,-297.113
 L -128.812,-297.268 L -128.956,-297.442 L -129.077,-297.633 L -129.174,-297.837 L -129.243,-298.052 L -129.286,-298.274
 L -129.3,-298.5 L -129.286,-298.726 L -129.243,-298.948 L -129.174,-299.163 L -129.077,-299.367 L -128.956,-299.558
 L -128.812,-299.732 L -128.647,-299.887 L -128.464,-300.02 L -128.266,-300.129 L -128.056,-300.212 L -127.837,-300.268
 L -127.613,-300.296 L -127.387,-300.296 L -127.163,-300.268 L -126.944,-300.212 L -126.734,-300.129 L -126.536,-300.02
 L -126.353,-299.887 L -126.188,-299.732 L -126.044,-299.558 L -125.923,-299.367 L -125.826,-299.163 L -125.757,-298.948
 L -125.714,-298.726 L -125.7,-298.5 L -125.714,-298.274 L -125.757,-298.052 L -125.826,-297.837 L -125.923,-297.633
 L -126.044,-297.442 L -126.188,-297.268 L -126.353,-297.113 L -126.536,-296.98 L -126.734,-296.871 L -126.944,-296.788
 L -127.163,-296.732 L -127.387,-296.704 z
M 127.387,-296.704 L 127.163,-296.732 L 126.944,-296.788 L 126.734,-296.871 L 126.536,-296.98 L 126.353,-297.113
 L 126.188,-297.268 L 126.044,-297.442 L 125.923,-297.633 L 125.826,-297.837 L 125.757,-298.052 L 125.714,-298.274
 L 125.7,-298.5 L 125.714,-298.726 L 125.757,-298.948 L 125.826,-299.163 L 125.923,-299.367 L 126.044,-299.558
 L 126.188,-299.732 L 126.353,-299.887 L 126.536,-300.02 L 126.734,-300.129 L 126.944,-300.212 L 127.163,-300.268
 L 127.387,-300.296 L 127.613,-300.296 L 127.837,-300.268 L 128.056,-300.212 L 128.266,-300.129 L 128.464,-300.02
 L 128.647,-299.887 L 128.812,-299.732 L 128.956,-299.558 L 129.077,-299.367 L 129.174,-299.163 L 129.243,-298.948
 L 129.286,-298.726 L 129.3,-298.5 L 129.286,-298.274 L 129.243,-298.052 L 129.174,-297.837 L 129.077,-297.633
 L 128.956,-297.442 L 128.812,-297.268 L 128.647,-297.113 L 128.464,-296.98 L 128.266,-296.871 L 128.056,-296.788
 L 127.837,-296.732 L 127.613,-296.704 z
M 127.387,-251.704 L 127.163,-251.732 L 126.944,-251.788 L 126.734,-251.871 L 126.536,-251.98 L 126.353,-252.113
 L 126.188,-252.268 L 126.044,-252.442 L 125.923,-252.633 L 125.826,-252.837 L 125.757,-253.052 L 125.714,-253.274
 L 125.7,-253.5 L 125.714,-253.726 L 125.757,-253.948 L 125.826,-254.163 L 125.923,-254.367 L 126.044,-254.558
 L 126.188,-254.732 L 126.353,-254.887 L 126.536,-255.02 L 126.734,-255.129 L 126.944,-255.212 L 127.163,-255.268
 L 127.387,-255.296 L 127.613,-255.296 L 127.837,-255.268 L 128.056,-255.212 L 128.266,-255.129 L 128.464,-255.02
 L 128.647,-254.887 L 128.812,-254.732 L 128.956,-254.558 L 129.077,-254.367 L 129.174,-254.163 L 129.243,-253.948
 L 129.286,-253.726 L 129.3,-253.5 L 129.286,-253.274 L 129.243,-253.052 L 129.174,-252.837 L 129.077,-252.633
 L 128.956,-252.442 L 128.812,-252.268 L 128.647,-252.113 L 128.464,-251.98 L 128.266,-251.871 L 128.056,-251.788
 L 127.837,-251.732 L 127.613,-251.704 z
M -127.613,-251.704 L -127.837,-251.732 L -128.056,-251.788 L -128.266,-251.871 L -128.464,-251.98 L -128.647,-252.113
 L -128.812,-252.268 L -128.956,-252.442 L -129.077,-252.633 L -129.174,-252.837 L -129.243,-253.052 L -129.286,-253.274
 L -129.3,-253.5 L -129.286,-253.726 L -129.243,-253.948 L -129.174,-254.163 L -129.077,-254.367 L -128.956,-254.558
 L -128.812,-254.732 L -128.647,-254.887 L -128.464,-255.02 L -128.266,-255.129 L -128.056,-255.212 L -127.837,-255.268
 L -127.613,-255.296 L -127.387,-255.296 L -127.163,-255.268 L -126.944,-255.212 L -126.734,-255.129 L -126.536,-255.02
 L -126.353,-254.887 L -126.188,-254.732 L -126.044,-254.558 L -125.923,-254.367 L -125.826,-254.163 L -125.757,-253.948
 L -125.714,-253.726 L -125.7,-253.5 L -125.714,-253.274 L -125.757,-253.052 L -125.826,-252.837 L -125.923,-252.633
 L -126.044,-252.442 L -126.188,-252.268 L -126.353,-252.113 L -126.536,-251.98 L -126.734,-251.871 L -126.944,-251.788
 L -127.163,-251.732 L -127.387,-251.704 z
" stroke="black" fill="lightgray" stroke-width="0.5"/>
</svg>
