<?xml version="1.0" standalone="no"?>
<!DOCTYPE svg PUBLIC "-//W3C//DTD SVG 1.1//EN" "http://www.w3.org/Graphics/SVG/1.1/DTD/svg11.dtd">
<svg width="300mm" height="568mm" viewBox="-150 -932 300 568" xmlns="http://www.w3.org/2000/svg" version="1.1">
<title>OpenSCAD Model</title>
<path d="
M 145.937,-796.589 L 146.545,-796.745 L 147.129,-796.976 L 147.679,-797.278 L 148.187,-797.647 L 148.645,-798.077
 L 149.045,-798.561 L 149.382,-799.091 L 149.649,-799.659 L 149.843,-800.257 L 149.961,-800.873 L 150,-801.5
 L 150,-926.5 L 149.961,-927.127 L 149.843,-927.743 L 149.649,-928.341 L 149.382,-928.909 L 149.045,-929.439
 L 148.645,-929.923 L 148.187,-930.353 L 147.679,-930.722 L 147.129,-931.024 L 146.545,-931.255 L 145.937,-931.411
 L 145.314,-931.49 L -145.314,-931.49 L -145.937,-931.411 L -146.545,-931.255 L -147.129,-931.024 L -147.679,-930.722
 L -148.187,-930.353 L -148.645,-929.923 L -149.045,-929.439 L -149.382,-928.909 L -149.649,-928.341 L -149.843,-927.743
 L -149.961,-927.127 L -150,-926.5 L -150,-801.5 L -149.961,-800.873 L -149.843,-800.257 L -149.649,-799.659
 L -149.382,-799.091 L -149.045,-798.561 L -148.645,-798.077 L -148.187,-797.647 L -147.679,-797.278 L -147.129,-796.976
 L -146.545,-796.745 L -145.937,-796.589 L -145.314,-796.51 L 145.314,-796.51 z
M -145.048,-797.009 L -145.64,-797.084 L -146.218,-797.232 L -146.772,-797.452 L -147.295,-797.739 L -147.778,-798.09
 L -148.213,-798.498 L -148.593,-798.958 L -148.912,-799.462 L -149.166,-800.001 L -149.351,-800.569 L -149.463,-801.155
 L -149.5,-801.75 L -149.5,-926.25 L -149.463,-926.845 L -149.351,-927.431 L -149.166,-927.999 L -148.912,-928.538
 L -148.593,-929.042 L -148.213,-929.502 L -147.778,-929.91 L -147.295,-930.261 L -146.772,-930.548 L -146.218,-930.768
 L -145.64,-930.916 L -145.048,-930.991 L 145.048,-930.991 L 145.64,-930.916 L 146.218,-930.768 L 146.772,-930.548
 L 147.295,-930.261 L 147.778,-929.91 L 148.213,-929.502 L 148.593,-929.042 L 148.912,-928.538 L 149.166,-927.999
 L 149.351,-927.431 L 149.463,-926.845 L 149.5,-926.25 L 149.5,-801.75 L 149.463,-801.155 L 149.351,-800.569
 L 149.166,-800.001 L 148.912,-799.462 L 148.593,-798.958 L 148.213,-798.498 L 147.778,-798.09 L 147.295,-797.739
 L 146.772,-797.452 L 146.218,-797.232 L 145.64,-797.084 L 145.048,-797.009 z
M 145.937,-652.589 L 146.545,-652.745 L 147.129,-652.976 L 147.679,-653.278 L 148.187,-653.647 L 148.645,-654.077
 L 149.045,-654.561 L 149.382,-655.091 L 149.649,-655.659 L 149.843,-656.257 L 149.961,-656.873 L 150,-657.5
 L 150,-782.5 L 149.961,-783.127 L 149.843,-783.743 L 149.649,-784.341 L 149.382,-784.909 L 149.045,-785.439
 L 148.645,-785.923 L 148.187,-786.353 L 147.679,-786.722 L 147.129,-787.024 L 146.545,-787.255 L 145.937,-787.411
 L 145.314,-787.49 L -145.314,-787.49 L -145.937,-787.411 L -146.545,-787.255 L -147.129,-787.024 L -147.679,-786.722
 L -148.187,-786.353 L -148.645,-785.923 L -149.045,-785.439 L -149.382,-784.909 L -149.649,-784.341 L -149.843,-783.743
 L -149.961,-783.127 L -150,-782.5 L -150,-657.5 L -149.961,-656.873 L -149.843,-656.257 L -149.649,-655.659
 L -149.382,-655.091 L -149.045,-654.561 L -148.645,-654.077 L -148.187,-653.647 L -147.679,-653.278 L -147.129,-652.976
 L -146.545,-652.745 L -145.937,-652.589 L -145.314,-652.51 L 145.314,-652.51 z
M -145.048,-653.009 L -145.64,-653.084 L -146.218,-653.232 L -146.772,-653.452 L -147.295,-653.739 L -147.778,-654.09
 L -148.213,-654.498 L -148.593,-654.958 L -148.912,-655.462 L -149.166,-656.001 L -149.351,-656.569 L -149.463,-657.155
 L -149.5,-657.75 L -149.5,-782.25 L -149.463,-782.845 L -149.351,-783.431 L -149.166,-783.999 L -148.912,-784.538
 L -148.593,-785.042 L -148.213,-785.502 L -147.778,-785.91 L -147.295,-786.261 L -146.772,-786.548 L -146.218,-786.768
 L -145.64,-786.916 L -145.048,-786.991 L 145.048,-786.991 L 145.64,-786.916 L 146.218,-786.768 L 146.772,-786.548
 L 147.295,-786.261 L 147.778,-785.91 L 148.213,-785.502 L 148.593,-785.042 L 148.912,-784.538 L 149.166,-783.999
 L 149.351,-783.431 L 149.463,-782.845 L 149.5,-782.25 L 149.5,-657.75 L 149.463,-657.155 L 149.351,-656.569
 L 149.166,-656.001 L 148.912,-655.462 L 148.593,-654.958 L 148.213,-654.498 L 147.778,-654.09 L 147.295,-653.739
 L 146.772,-653.452 L 146.218,-653.232 L 145.64,-653.084 L 145.048,-653.009 z
M 145.937,-508.589 L 146.545,-508.745 L 147.129,-508.976 L 147.679,-509.278 L 148.187,-509.647 L 148.645,-510.077
 L 149.045,-510.561 L 149.382,-511.091 L 149.649,-511.659 L 149.843,-512.257 L 149.961,-512.873 L 150,-513.5
 L 150,-638.5 L 149.961,-639.127 L 149.843,-639.743 L 149.649,-640.341 L 149.382,-640.909 L 149.045,-641.439
 L 148.645,-641.923 L 148.187,-642.353 L 147.679,-642.722 L 147.129,-643.024 L 146.545,-643.255 L 145.937,-643.411
 L 145.314,-643.49 L -145.314,-643.49 L -145.937,-643.411 L -146.545,-643.255 L -147.129,-643.024 L -147.679,-642.722
 L -148.187,-642.353 L -148.645,-641.923 L -149.045,-641.439 L -149.382,-640.909 L -149.649,-640.341 L -149.843,-639.743
 L -149.961,-639.127 L -150,-638.5 L -150,-513.5 L -149.961,-512.873 L -149.843,-512.257 L -149.649,-511.659
 L -149.382,-511.091 L -149.045,-510.561 L -148.645,-510.077 L -148.187,-509.647 L -147.679,-509.278 L -147.129,-508.976
 L -146.545,-508.745 L -145.937,-508.589 L -145.314,-508.51 L 145.314,-508.51 z
M -144.993,-509.888 L -145.475,-509.949 L -145.946,-510.07 L -146.398,-510.249 L -146.823,-510.483 L -147.216,-510.769
 L -147.571,-511.101 L -147.88,-511.476 L -148.141,-511.886 L -148.348,-512.326 L -148.498,-512.788 L -148.589,-513.265
 L -148.619,-513.75 L -148.619,-638.25 L -148.589,-638.735 L -148.498,-639.212 L -148.348,-639.674 L -148.141,-640.114
 L -147.88,-640.524 L -147.571,-640.899 L -147.216,-641.231 L -146.823,-641.517 L -146.398,-641.751 L -145.946,-641.93
 L -145.475,-642.051 L -144.993,-642.112 L 144.993,-642.112 L 145.475,-642.051 L 145.946,-641.93 L 146.398,-641.751
 L 146.823,-641.517 L 147.216,-641.231 L 147.571,-640.899 L 147.88,-640.524 L 148.141,-640.114 L 148.348,-639.674
 L 148.498,-639.212 L 148.589,-638.735 L 148.619,-638.25 L 148.619,-513.75 L 148.589,-513.265 L 148.498,-512.788
 L 148.348,-512.326 L 148.141,-511.886 L 147.88,-511.476 L 147.571,-511.101 L 147.216,-510.769 L 146.823,-510.483
 L 146.398,-510.249 L 145.946,-510.07 L 145.475,-509.949 L 144.993,-509.888 z
M 145.937,-364.589 L 146.545,-364.745 L 147.129,-364.976 L 147.679,-365.278 L 148.187,-365.647 L 148.645,-366.077
 L 149.045,-366.561 L 149.382,-367.091 L 149.649,-367.659 L 149.843,-368.257 L 149.961,-368.873 L 150,-369.5
 L 150,-494.5 L 149.961,-495.127 L 149.843,-495.743 L 149.649,-496.341 L 149.382,-496.909 L 149.045,-497.439
 L 148.645,-497.923 L 148.187,-498.353 L 147.679,-498.722 L 147.129,-499.024 L 146.545,-499.255 L 145.937,-499.411
 L 145.314,-499.49 L -145.314,-499.49 L -145.937,-499.411 L -146.545,-499.255 L -147.129,-499.024 L -147.679,-498.722
 L -148.187,-498.353 L -148.645,-497.923 L -149.045,-497.439 L -149.382,-496.909 L -149.649,-496.341 L -149.843,-495.743
 L -149.961,-495.127 L -150,-494.5 L -150,-369.5 L -149.961,-368.873 L -149.843,-368.257 L -149.649,-367.659
 L -149.382,-367.091 L -149.045,-366.561 L -148.645,-366.077 L -148.187,-365.647 L -147.679,-365.278 L -147.129,-364.976
 L -146.545,-364.745 L -145.937,-364.589 L -145.314,-364.51 L 145.314,-364.51 z
M 142.387,-490.204 L 142.163,-490.232 L 141.944,-490.288 L 141.734,-490.371 L 141.536,-490.48 L 141.353,-490.613
 L 141.188,-490.768 L 141.044,-490.942 L 140.923,-491.133 L 140.826,-491.337 L 140.757,-491.552 L 140.714,-491.774
 L 140.7,-492 L 140.714,-492.226 L 140.757,-492.448 L 140.826,-492.663 L 140.923,-492.867 L 141.044,-493.058
 L 141.188,-493.232 L 141.353,-493.387 L 141.536,-493.52 L 141.734,-493.629 L 141.944,-493.712 L 142.163,-493.768
 L 142.387,-493.796 L 142.613,-493.796 L 142.837,-493.768 L 143.056,-493.712 L 143.266,-493.629 L 143.464,-493.52
 L 143.647,-493.387 L 143.812,-493.232 L 143.956,-493.058 L 144.077,-492.867 L 144.174,-492.663 L 144.243,-492.448
 L 144.286,-492.226 L 144.3,-492 L 144.286,-491.774 L 144.243,-491.552 L 144.174,-491.337 L 144.077,-491.133
 L 143.956,-490.942 L 143.812,-490.768 L 143.647,-490.613 L 143.464,-490.48 L 143.266,-490.371 L 143.056,-490.288
 L 142.837,-490.232 L 142.613,-490.204 z
M -142.613,-490.204 L -142.837,-490.232 L -143.056,-490.288 L -143.266,-490.371 L -143.464,-490.48 L -143.647,-490.613
 L -143.812,-490.768 L -143.956,-490.942 L -144.077,-491.133 L -144.174,-491.337 L -144.243,-491.552 L -144.286,-491.774
 L -144.3,-492 L -144.286,-492.226 L -144.243,-492.448 L -144.174,-492.663 L -144.077,-492.867 L -143.956,-493.058
 L -143.812,-493.232 L -143.647,-493.387 L -143.464,-493.52 L -143.266,-493.629 L -143.056,-493.712 L -142.837,-493.768
 L -142.613,-493.796 L -142.387,-493.796 L -142.163,-493.768 L -141.944,-493.712 L -141.734,-493.629 L -141.536,-493.52
 L -141.353,-493.387 L -141.188,-493.232 L -141.044,-493.058 L -140.923,-492.867 L -140.826,-492.663 L -140.757,-492.448
 L -140.714,-492.226 L -140.7,-492 L -140.714,-491.774 L -140.757,-491.552 L -140.826,-491.337 L -140.923,-491.133
 L -141.044,-490.942 L -141.188,-490.768 L -141.353,-490.613 L -141.536,-490.48 L -141.734,-490.371 L -141.944,-490.288
 L -142.163,-490.232 L -142.387,-490.204 z
M -142.613,-370.204 L -142.837,-370.232 L -143.056,-370.288 L -143.266,-370.371 L -143.464,-370.48 L -143.647,-370.613
 L -143.812,-370.768 L -143.956,-370.942 L -144.077,-371.133 L -144.174,-371.337 L -144.243,-371.552 L -144.286,-371.774
 L -144.3,-372 L -144.286,-372.226 L -144.243,-372.448 L -144.174,-372.663 L -144.077,-372.867 L -143.956,-373.058
 L -143.812,-373.232 L -143.647,-373.387 L -143.464,-373.52 L -143.266,-373.629 L -143.056,-373.712 L -142.837,-373.768
 L -142.613,-373.796 L -142.387,-373.796 L -142.163,-373.768 L -141.944,-373.712 L -141.734,-373.629 L -141.536,-373.52
 L -141.353,-373.387 L -141.188,-373.232 L -141.044,-373.058 L -140.923,-372.867 L -140.826,-372.663 L -140.757,-372.448
 L -140.714,-372.226 L -140.7,-372 L -140.714,-371.774 L -140.757,-371.552 L -140.826,-371.337 L -140.923,-371.133
 L -141.044,-370.942 L -141.188,-370.768 L -141.353,-370.613 L -141.536,-370.48 L -141.734,-370.371 L -141.944,-370.288
 L -142.163,-370.232 L -142.387,-370.204 z
M 142.387,-370.204 L 142.163,-370.232 L 141.944,-370.288 L 141.734,-370.371 L 141.536,-370.48 L 141.353,-370.613
 L 141.188,-370.768 L 141.044,-370.942 L 140.923,-371.133 L 140.826,-371.337 L 140.757,-371.552 L 140.714,-371.774
 L 140.7,-372 L 140.714,-372.226 L 140.757,-372.448 L 140.826,-372.663 L 140.923,-372.867 L 141.044,-373.058
 L 141.188,-373.232 L 141.353,-373.387 L 141.536,-373.52 L 141.734,-373.629 L 141.944,-373.712 L 142.163,-373.768
 L 142.387,-373.796 L 142.613,-373.796 L 142.837,-373.768 L 143.056,-373.712 L 143.266,-373.629 L 143.464,-373.52
 L 143.647,-373.387 L 143.812,-373.232 L 143.956,-373.058 L 144.077,-372.867 L 144.174,-372.663 L 144.243,-372.448
 L 144.286,-372.226 L 144.3,-372 L 144.286,-371.774 L 144.243,-371.552 L 144.174,-371.337 L 144.077,-371.133
 L 143.956,-370.942 L 143.812,-370.768 L 143.647,-370.613 L 143.464,-370.48 L 143.266,-370.371 L 143.056,-370.288
 L 142.837,-370.232 L 142.613,-370.204 z
" stroke="black" fill="lightgray" stroke-width="0.5"/>
</svg>
