<?xml version="1.0" standalone="no"?>
<!DOCTYPE svg PUBLIC "-//W3C//DTD SVG 1.1//EN" "http://www.w3.org/Graphics/SVG/1.1/DTD/svg11.dtd">
<svg width="270mm" height="1312mm" viewBox="-135 -2240 270 1312" xmlns="http://www.w3.org/2000/svg" version="1.1">
<title>OpenSCAD Model</title>
<path d="
M 130.937,-1984.59 L 131.545,-1984.74 L 132.129,-1984.98 L 132.679,-1985.28 L 133.187,-1985.65 L 133.645,-1986.08
 L 134.045,-1986.56 L 134.382,-1987.09 L 134.649,-1987.66 L 134.843,-1988.26 L 134.961,-1988.87 L 135,-1989.5
 L 135,-2234.5 L 134.961,-2235.13 L 134.843,-2235.74 L 134.649,-2236.34 L 134.382,-2236.91 L 134.045,-2237.44
 L 133.645,-2237.92 L 133.187,-2238.35 L 132.679,-2238.72 L 132.129,-2239.02 L 131.545,-2239.26 L 130.937,-2239.41
 L 130.314,-2239.49 L -130.314,-2239.49 L -130.937,-2239.41 L -131.545,-2239.26 L -132.129,-2239.02 L -132.679,-2238.72
 L -133.187,-2238.35 L -133.645,-2237.92 L -134.045,-2237.44 L -134.382,-2236.91 L -134.649,-2236.34 L -134.843,-2235.74
 L -134.961,-2235.13 L -135,-2234.5 L -135,-1989.5 L -134.961,-1988.87 L -134.843,-1988.26 L -134.649,-1987.66
 L -134.382,-1987.09 L -134.045,-1986.56 L -133.645,-1986.08 L -133.187,-1985.65 L -132.679,-1985.28 L -132.129,-1984.98
 L -131.545,-1984.74 L -130.937,-1984.59 L -130.314,-1984.51 L 130.314,-1984.51 z
M -130.048,-1985.01 L -130.64,-1985.08 L -131.218,-1985.23 L -131.772,-1985.45 L -132.295,-1985.74 L -132.778,-1986.09
 L -133.213,-1986.5 L -133.593,-1986.96 L -133.912,-1987.46 L -134.166,-1988 L -134.351,-1988.57 L -134.463,-1989.15
 L -134.5,-1989.75 L -134.5,-2234.25 L -134.463,-2234.85 L -134.351,-2235.43 L -134.166,-2236 L -133.912,-2236.54
 L -133.593,-2237.04 L -133.213,-2237.5 L -132.778,-2237.91 L -132.295,-2238.26 L -131.772,-2238.55 L -131.218,-2238.77
 L -130.64,-2238.92 L -130.048,-2238.99 L 130.048,-2238.99 L 130.64,-2238.92 L 131.218,-2238.77 L 131.772,-2238.55
 L 132.295,-2238.26 L 132.778,-2237.91 L 133.213,-2237.5 L 133.593,-2237.04 L 133.912,-2236.54 L 134.166,-2236
 L 134.351,-2235.43 L 134.463,-2234.85 L 134.5,-2234.25 L 134.5,-1989.75 L 134.463,-1989.15 L 134.351,-1988.57
 L 134.166,-1988 L 133.912,-1987.46 L 133.593,-1986.96 L 133.213,-1986.5 L 132.778,-1986.09 L 132.295,-1985.74
 L 131.772,-1985.45 L 131.218,-1985.23 L 130.64,-1985.08 L 130.048,-1985.01 z
M 130.937,-1720.59 L 131.545,-1720.74 L 132.129,-1720.98 L 132.679,-1721.28 L 133.187,-1721.65 L 133.645,-1722.08
 L 134.045,-1722.56 L 134.382,-1723.09 L 134.649,-1723.66 L 134.843,-1724.26 L 134.961,-1724.87 L 135,-1725.5
 L 135,-1970.5 L 134.961,-1971.13 L 134.843,-1971.74 L 134.649,-1972.34 L 134.382,-1972.91 L 134.045,-1973.44
 L 133.645,-1973.92 L 133.187,-1974.35 L 132.679,-1974.72 L 132.129,-1975.02 L 131.545,-1975.26 L 130.937,-1975.41
 L 130.314,-1975.49 L -130.314,-1975.49 L -130.937,-1975.41 L -131.545,-1975.26 L -132.129,-1975.02 L -132.679,-1974.72
 L -133.187,-1974.35 L -133.645,-1973.92 L -134.045,-1973.44 L -134.382,-1972.91 L -134.649,-1972.34 L -134.843,-1971.74
 L -134.961,-1971.13 L -135,-1970.5 L -135,-1725.5 L -134.961,-1724.87 L -134.843,-1724.26 L -134.649,-1723.66
 L -134.382,-1723.09 L -134.045,-1722.56 L -133.645,-1722.08 L -133.187,-1721.65 L -132.679,-1721.28 L -132.129,-1720.98
 L -131.545,-1720.74 L -130.937,-1720.59 L -130.314,-1720.51 L 130.314,-1720.51 z
M -130.048,-1721.01 L -130.64,-1721.08 L -131.218,-1721.23 L -131.772,-1721.45 L -132.295,-1721.74 L -132.778,-1722.09
 L -133.213,-1722.5 L -133.593,-1722.96 L -133.912,-1723.46 L -134.166,-1724 L -134.351,-1724.57 L -134.463,-1725.15
 L -134.5,-1725.75 L -134.5,-1970.25 L -134.463,-1970.85 L -134.351,-1971.43 L -134.166,-1972 L -133.912,-1972.54
 L -133.593,-1973.04 L -133.213,-1973.5 L -132.778,-1973.91 L -132.295,-1974.26 L -131.772,-1974.55 L -131.218,-1974.77
 L -130.64,-1974.92 L -130.048,-1974.99 L 130.048,-1974.99 L 130.64,-1974.92 L 131.218,-1974.77 L 131.772,-1974.55
 L 132.295,-1974.26 L 132.778,-1973.91 L 133.213,-1973.5 L 133.593,-1973.04 L 133.912,-1972.54 L 134.166,-1972
 L 134.351,-1971.43 L 134.463,-1970.85 L 134.5,-1970.25 L 134.5,-1725.75 L 134.463,-1725.15 L 134.351,-1724.57
 L 134.166,-1724 L 133.912,-1723.46 L 133.593,-1722.96 L 133.213,-1722.5 L 132.778,-1722.09 L 132.295,-1721.74
 L 131.772,-1721.45 L 131.218,-1721.23 L 130.64,-1721.08 L 130.048,-1721.01 z
M 130.937,-1456.59 L 131.545,-1456.74 L 132.129,-1456.98 L 132.679,-1457.28 L 133.187,-1457.65 L 133.645,-1458.08
 L 134.045,-1458.56 L 134.382,-1459.09 L 134.649,-1459.66 L 134.843,-1460.26 L 134.961,-1460.87 L 135,-1461.5
 L 135,-1706.5 L 134.961,-1707.13 L 134.843,-1707.74 L 134.649,-1708.34 L 134.382,-1708.91 L 134.045,-1709.44
 L 133.645,-1709.92 L 133.187,-1710.35 L 132.679,-1710.72 L 132.129,-1711.02 L 131.545,-1711.26 L 130.937,-1711.41
 L 130.314,-1711.49 L -130.314,-1711.49 L -130.937,-1711.41 L -131.545,-1711.26 L -132.129,-1711.02 L -132.679,-1710.72
 L -133.187,-1710.35 L -133.645,-1709.92 L -134.045,-1709.44 L -134.382,-1708.91 L -134.649,-1708.34 L -134.843,-1707.74
 L -134.961,-1707.13 L -135,-1706.5 L -135,-1461.5 L -134.961,-1460.87 L -134.843,-1460.26 L -134.649,-1459.66
 L -134.382,-1459.09 L -134.045,-1458.56 L -133.645,-1458.08 L -133.187,-1457.65 L -132.679,-1457.28 L -132.129,-1456.98
 L -131.545,-1456.74 L -130.937,-1456.59 L -130.314,-1456.51 L 130.314,-1456.51 z
M -130.048,-1457.01 L -130.64,-1457.08 L -131.218,-1457.23 L -131.772,-1457.45 L -132.295,-1457.74 L -132.778,-1458.09
 L -133.213,-1458.5 L -133.593,-1458.96 L -133.912,-1459.46 L -134.166,-1460 L -134.351,-1460.57 L -134.463,-1461.15
 L -134.5,-1461.75 L -134.5,-1706.25 L -134.463,-1706.85 L -134.351,-1707.43 L -134.166,-1708 L -133.912,-1708.54
 L -133.593,-1709.04 L -133.213,-1709.5 L -132.778,-1709.91 L -132.295,-1710.26 L -131.772,-1710.55 L -131.218,-1710.77
 L -130.64,-1710.92 L -130.048,-1710.99 L 130.048,-1710.99 L 130.64,-1710.92 L 131.218,-1710.77 L 131.772,-1710.55
 L 132.295,-1710.26 L 132.778,-1709.91 L 133.213,-1709.5 L 133.593,-1709.04 L 133.912,-1708.54 L 134.166,-1708
 L 134.351,-1707.43 L 134.463,-1706.85 L 134.5,-1706.25 L 134.5,-1461.75 L 134.463,-1461.15 L 134.351,-1460.57
 L 134.166,-1460 L 133.912,-1459.46 L 133.593,-1458.96 L 133.213,-1458.5 L 132.778,-1458.09 L 132.295,-1457.74
 L 131.772,-1457.45 L 131.218,-1457.23 L 130.64,-1457.08 L 130.048,-1457.01 z
M 130.937,-1192.59 L 131.545,-1192.74 L 132.129,-1192.98 L 132.679,-1193.28 L 133.187,-1193.65 L 133.645,-1194.08
 L 134.045,-1194.56 L 134.382,-1195.09 L 134.649,-1195.66 L 134.843,-1196.26 L 134.961,-1196.87 L 135,-1197.5
 L 135,-1442.5 L 134.961,-1443.13 L 134.843,-1443.74 L 134.649,-1444.34 L 134.382,-1444.91 L 134.045,-1445.44
 L 133.645,-1445.92 L 133.187,-1446.35 L 132.679,-1446.72 L 132.129,-1447.02 L 131.545,-1447.26 L 130.937,-1447.41
 L 130.314,-1447.49 L -130.314,-1447.49 L -130.937,-1447.41 L -131.545,-1447.26 L -132.129,-1447.02 L -132.679,-1446.72
 L -133.187,-1446.35 L -133.645,-1445.92 L -134.045,-1445.44 L -134.382,-1444.91 L -134.649,-1444.34 L -134.843,-1443.74
 L -134.961,-1443.13 L -135,-1442.5 L -135,-1197.5 L -134.961,-1196.87 L -134.843,-1196.26 L -134.649,-1195.66
 L -134.382,-1195.09 L -134.045,-1194.56 L -133.645,-1194.08 L -133.187,-1193.65 L -132.679,-1193.28 L -132.129,-1192.98
 L -131.545,-1192.74 L -130.937,-1192.59 L -130.314,-1192.51 L 130.314,-1192.51 z
M -129.993,-1193.89 L -130.475,-1193.95 L -130.946,-1194.07 L -131.398,-1194.25 L -131.823,-1194.48 L -132.216,-1194.77
 L -132.571,-1195.1 L -132.88,-1195.48 L -133.141,-1195.89 L -133.348,-1196.33 L -133.498,-1196.79 L -133.589,-1197.27
 L -133.619,-1197.75 L -133.619,-1442.25 L -133.589,-1442.73 L -133.498,-1443.21 L -133.348,-1443.67 L -133.141,-1444.11
 L -132.88,-1444.52 L -132.571,-1444.9 L -132.216,-1445.23 L -131.823,-1445.52 L -131.398,-1445.75 L -130.946,-1445.93
 L -130.475,-1446.05 L -129.993,-1446.11 L 129.993,-1446.11 L 130.475,-1446.05 L 130.946,-1445.93 L 131.398,-1445.75
 L 131.823,-1445.52 L 132.216,-1445.23 L 132.571,-1444.9 L 132.88,-1444.52 L 133.141,-1444.11 L 133.348,-1443.67
 L 133.498,-1443.21 L 133.589,-1442.73 L 133.619,-1442.25 L 133.619,-1197.75 L 133.589,-1197.27 L 133.498,-1196.79
 L 133.348,-1196.33 L 133.141,-1195.89 L 132.88,-1195.48 L 132.571,-1195.1 L 132.216,-1194.77 L 131.823,-1194.48
 L 131.398,-1194.25 L 130.946,-1194.07 L 130.475,-1193.95 L 129.993,-1193.89 z
M 130.937,-928.589 L 131.545,-928.745 L 132.129,-928.976 L 132.679,-929.278 L 133.187,-929.647 L 133.645,-930.077
 L 134.045,-930.561 L 134.382,-931.091 L 134.649,-931.659 L 134.843,-932.257 L 134.961,-932.873 L 135,-933.5
 L 135,-1178.5 L 134.961,-1179.13 L 134.843,-1179.74 L 134.649,-1180.34 L 134.382,-1180.91 L 134.045,-1181.44
 L 133.645,-1181.92 L 133.187,-1182.35 L 132.679,-1182.72 L 132.129,-1183.02 L 131.545,-1183.26 L 130.937,-1183.41
 L 130.314,-1183.49 L -130.314,-1183.49 L -130.937,-1183.41 L -131.545,-1183.26 L -132.129,-1183.02 L -132.679,-1182.72
 L -133.187,-1182.35 L -133.645,-1181.92 L -134.045,-1181.44 L -134.382,-1180.91 L -134.649,-1180.34 L -134.843,-1179.74
 L -134.961,-1179.13 L -135,-1178.5 L -135,-933.5 L -134.961,-932.873 L -134.843,-932.257 L -134.649,-931.659
 L -134.382,-931.091 L -134.045,-930.561 L -133.645,-930.077 L -133.187,-929.647 L -132.679,-929.278 L -132.129,-928.976
 L -131.545,-928.745 L -130.937,-928.589 L -130.314,-928.51 L 130.314,-928.51 z
M 127.387,-1174.2 L 127.163,-1174.23 L 126.944,-1174.29 L 126.734,-1174.37 L 126.536,-1174.48 L 126.353,-1174.61
 L 126.188,-1174.77 L 126.044,-1174.94 L 125.923,-1175.13 L 125.826,-1175.34 L 125.757,-1175.55 L 125.714,-1175.77
 L 125.7,-1176 L 125.714,-1176.23 L 125.757,-1176.45 L 125.826,-1176.66 L 125.923,-1176.87 L 126.044,-1177.06
 L 126.188,-1177.23 L 126.353,-1177.39 L 126.536,-1177.52 L 126.734,-1177.63 L 126.944,-1177.71 L 127.163,-1177.77
 L 127.387,-1177.8 L 127.613,-1177.8 L 127.837,-1177.77 L 128.056,-1177.71 L 128.266,-1177.63 L 128.464,-1177.52
 L 128.647,-1177.39 L 128.812,-1177.23 L 128.956,-1177.06 L 129.077,-1176.87 L 129.174,-1176.66 L 129.243,-1176.45
 L 129.286,-1176.23 L 129.3,-1176 L 129.286,-1175.77 L 129.243,-1175.55 L 129.174,-1175.34 L 129.077,-1175.13
 L 128.956,-1174.94 L 128.812,-1174.77 L 128.647,-1174.61 L 128.464,-1174.48 L 128.266,-1174.37 L 128.056,-1174.29
 L 127.837,-1174.23 L 127.613,-1174.2 z
M -127.613,-1174.2 L -127.837,-1174.23 L -128.056,-1174.29 L -128.266,-1174.37 L -128.464,-1174.48 L -128.647,-1174.61
 L -128.812,-1174.77 L -128.956,-1174.94 L -129.077,-1175.13 L -129.174,-1175.34 L -129.243,-1175.55 L -129.286,-1175.77
 L -129.3,-1176 L -129.286,-1176.23 L -129.243,-1176.45 L -129.174,-1176.66 L -129.077,-1176.87 L -128.956,-1177.06
 L -128.812,-1177.23 L -128.647,-1177.39 L -128.464,-1177.52 L -128.266,-1177.63 L -128.056,-1177.71 L -127.837,-1177.77
 L -127.613,-1177.8 L -127.387,-1177.8 L -127.163,-1177.77 L -126.944,-1177.71 L -126.734,-1177.63 L -126.536,-1177.52
 L -126.353,-1177.39 L -126.188,-1177.23 L -126.044,-1177.06 L -125.923,-1176.87 L -125.826,-1176.66 L -125.757,-1176.45
 L -125.714,-1176.23 L -125.7,-1176 L -125.714,-1175.77 L -125.757,-1175.55 L -125.826,-1175.34 L -125.923,-1175.13
 L -126.044,-1174.94 L -126.188,-1174.77 L -126.353,-1174.61 L -126.536,-1174.48 L -126.734,-1174.37 L -126.944,-1174.29
 L -127.163,-1174.23 L -127.387,-1174.2 z
M -127.613,-934.204 L -127.837,-934.232 L -128.056,-934.288 L -128.266,-934.371 L -128.464,-934.48 L -128.647,-934.613
 L -128.812,-934.768 L -128.956,-934.942 L -129.077,-935.133 L -129.174,-935.337 L -129.243,-935.552 L -129.286,-935.774
 L -129.3,-936 L -129.286,-936.226 L -129.243,-936.448 L -129.174,-936.663 L -129.077,-936.867 L -128.956,-937.058
 L -128.812,-937.232 L -128.647,-937.387 L -128.464,-937.52 L -128.266,-937.629 L -128.056,-937.712 L -127.837,-937.768
 L -127.613,-937.796 L -127.387,-937.796 L -127.163,-937.768 L -126.944,-937.712 L -126.734,-937.629 L -126.536,-937.52
 L -126.353,-937.387 L -126.188,-937.232 L -126.044,-937.058 L -125.923,-936.867 L -125.826,-936.663 L -125.757,-936.448
 L -125.714,-936.226 L -125.7,-936 L -125.714,-935.774 L -125.757,-935.552 L -125.826,-935.337 L -125.923,-935.133
 L -126.044,-934.942 L -126.188,-934.768 L -126.353,-934.613 L -126.536,-934.48 L -126.734,-934.371 L -126.944,-934.288
 L -127.163,-934.232 L -127.387,-934.204 z
M 127.387,-934.204 L 127.163,-934.232 L 126.944,-934.288 L 126.734,-934.371 L 126.536,-934.48 L 126.353,-934.613
 L 126.188,-934.768 L 126.044,-934.942 L 125.923,-935.133 L 125.826,-935.337 L 125.757,-935.552 L 125.714,-935.774
 L 125.7,-936 L 125.714,-936.226 L 125.757,-936.448 L 125.826,-936.663 L 125.923,-936.867 L 126.044,-937.058
 L 126.188,-937.232 L 126.353,-937.387 L 126.536,-937.52 L 126.734,-937.629 L 126.944,-937.712 L 127.163,-937.768
 L 127.387,-937.796 L 127.613,-937.796 L 127.837,-937.768 L 128.056,-937.712 L 128.266,-937.629 L 128.464,-937.52
 L 128.647,-937.387 L 128.812,-937.232 L 128.956,-937.058 L 129.077,-936.867 L 129.174,-936.663 L 129.243,-936.448
 L 129.286,-936.226 L 129.3,-936 L 129.286,-935.774 L 129.243,-935.552 L 129.174,-935.337 L 129.077,-935.133
 L 128.956,-934.942 L 128.812,-934.768 L 128.647,-934.613 L 128.464,-934.48 L 128.266,-934.371 L 128.056,-934.288
 L 127.837,-934.232 L 127.613,-934.204 z
" stroke="black" fill="lightgray" stroke-width="0.5"/>
</svg>
