  0
SECTION
  2
BLOCKS
  0
ENDSEC
  0
SECTION
  2
ENTITIES
  0
LINE
  8
0
 10
-126
 20
877.441
 11
-125.687
 21
877.147
  0
LINE
  8
0
 10
-125.687
 20
877.147
 11
-125.179
 21
876.778
  0
LINE
  8
0
 10
-125.179
 20
876.778
 11
-124.629
 21
876.476
  0
LINE
  8
0
 10
-124.629
 20
876.476
 11
-124.045
 21
876.245
  0
LINE
  8
0
 10
-124.045
 20
876.245
 11
-123.437
 21
876.089
  0
LINE
  8
0
 10
-123.437
 20
876.089
 11
-122.814
 21
876.01
  0
LINE
  8
0
 10
-122.814
 20
876.01
 11
122.814
 21
876.01
  0
LINE
  8
0
 10
122.814
 20
876.01
 11
123.437
 21
876.089
  0
LINE
  8
0
 10
123.437
 20
876.089
 11
124.045
 21
876.245
  0
LINE
  8
0
 10
124.045
 20
876.245
 11
124.629
 21
876.476
  0
LINE
  8
0
 10
124.629
 20
876.476
 11
125.179
 21
876.778
  0
LINE
  8
0
 10
125.179
 20
876.778
 11
125.687
 21
877.147
  0
LINE
  8
0
 10
125.687
 20
877.147
 11
126.145
 21
877.577
  0
LINE
  8
0
 10
126.145
 20
877.577
 11
126.545
 21
878.061
  0
LINE
  8
0
 10
126.545
 20
878.061
 11
126.882
 21
878.591
  0
LINE
  8
0
 10
126.882
 20
878.591
 11
127.149
 21
879.159
  0
LINE
  8
0
 10
127.149
 20
879.159
 11
127.343
 21
879.757
  0
LINE
  8
0
 10
127.343
 20
879.757
 11
127.461
 21
880.373
  0
LINE
  8
0
 10
127.461
 20
880.373
 11
127.5
 21
881
  0
LINE
  8
0
 10
127.5
 20
881
 11
127.5
 21
1111
  0
LINE
  8
0
 10
127.5
 20
1111
 11
127.461
 21
1111.63
  0
LINE
  8
0
 10
127.461
 20
1111.63
 11
127.343
 21
1112.24
  0
LINE
  8
0
 10
127.343
 20
1112.24
 11
127.149
 21
1112.84
  0
LINE
  8
0
 10
127.149
 20
1112.84
 11
126.882
 21
1113.41
  0
LINE
  8
0
 10
126.882
 20
1113.41
 11
126.545
 21
1113.94
  0
LINE
  8
0
 10
126.545
 20
1113.94
 11
126.145
 21
1114.42
  0
LINE
  8
0
 10
126.145
 20
1114.42
 11
125.687
 21
1114.85
  0
LINE
  8
0
 10
125.687
 20
1114.85
 11
125.179
 21
1115.22
  0
LINE
  8
0
 10
125.179
 20
1115.22
 11
124.629
 21
1115.52
  0
LINE
  8
0
 10
124.629
 20
1115.52
 11
124.045
 21
1115.76
  0
LINE
  8
0
 10
124.045
 20
1115.76
 11
123.437
 21
1115.91
  0
LINE
  8
0
 10
123.437
 20
1115.91
 11
122.814
 21
1115.99
  0
LINE
  8
0
 10
122.814
 20
1115.99
 11
-122.814
 21
1115.99
  0
LINE
  8
0
 10
-122.814
 20
1115.99
 11
-123.437
 21
1115.91
  0
LINE
  8
0
 10
-123.437
 20
1115.91
 11
-124.045
 21
1115.76
  0
LINE
  8
0
 10
-124.045
 20
1115.76
 11
-124.629
 21
1115.52
  0
LINE
  8
0
 10
-124.629
 20
1115.52
 11
-125.179
 21
1115.22
  0
LINE
  8
0
 10
-125.179
 20
1115.22
 11
-125.687
 21
1114.85
  0
LINE
  8
0
 10
-125.687
 20
1114.85
 11
-126
 21
1114.56
  0
LINE
  8
0
 10
-126
 20
1114.56
 11
-126
 21
1115.99
  0
LINE
  8
0
 10
-126
 20
1115.99
 11
-129
 21
1115.99
  0
LINE
  8
0
 10
-129
 20
1115.99
 11
-129
 21
876.01
  0
LINE
  8
0
 10
-129
 20
876.01
 11
-126
 21
876.01
  0
LINE
  8
0
 10
-126
 20
876.01
 11
-126
 21
877.441
  0
LINE
  8
0
 10
-122.243
 20
877.635
 11
-122.726
 21
877.696
  0
LINE
  8
0
 10
-122.726
 20
877.696
 11
-123.197
 21
877.817
  0
LINE
  8
0
 10
-123.197
 20
877.817
 11
-123.649
 21
877.996
  0
LINE
  8
0
 10
-123.649
 20
877.996
 11
-124.075
 21
878.23
  0
LINE
  8
0
 10
-124.075
 20
878.23
 11
-124.469
 21
878.516
  0
LINE
  8
0
 10
-124.469
 20
878.516
 11
-124.823
 21
878.849
  0
LINE
  8
0
 10
-124.823
 20
878.849
 11
-125.133
 21
879.224
  0
LINE
  8
0
 10
-125.133
 20
879.224
 11
-125.394
 21
879.634
  0
LINE
  8
0
 10
-125.394
 20
879.634
 11
-125.601
 21
880.074
  0
LINE
  8
0
 10
-125.601
 20
880.074
 11
-125.751
 21
880.537
  0
LINE
  8
0
 10
-125.751
 20
880.537
 11
-125.842
 21
881.015
  0
LINE
  8
0
 10
-125.842
 20
881.015
 11
-125.873
 21
881.5
  0
LINE
  8
0
 10
-125.873
 20
881.5
 11
-125.873
 21
1110.5
  0
LINE
  8
0
 10
-125.873
 20
1110.5
 11
-125.842
 21
1110.99
  0
LINE
  8
0
 10
-125.842
 20
1110.99
 11
-125.751
 21
1111.46
  0
LINE
  8
0
 10
-125.751
 20
1111.46
 11
-125.601
 21
1111.93
  0
LINE
  8
0
 10
-125.601
 20
1111.93
 11
-125.394
 21
1112.37
  0
LINE
  8
0
 10
-125.394
 20
1112.37
 11
-125.133
 21
1112.78
  0
LINE
  8
0
 10
-125.133
 20
1112.78
 11
-124.823
 21
1113.15
  0
LINE
  8
0
 10
-124.823
 20
1113.15
 11
-124.469
 21
1113.48
  0
LINE
  8
0
 10
-124.469
 20
1113.48
 11
-124.075
 21
1113.77
  0
LINE
  8
0
 10
-124.075
 20
1113.77
 11
-123.649
 21
1114
  0
LINE
  8
0
 10
-123.649
 20
1114
 11
-123.197
 21
1114.18
  0
LINE
  8
0
 10
-123.197
 20
1114.18
 11
-122.726
 21
1114.3
  0
LINE
  8
0
 10
-122.726
 20
1114.3
 11
-122.243
 21
1114.36
  0
LINE
  8
0
 10
-122.243
 20
1114.36
 11
122.243
 21
1114.36
  0
LINE
  8
0
 10
122.243
 20
1114.36
 11
122.726
 21
1114.3
  0
LINE
  8
0
 10
122.726
 20
1114.3
 11
123.197
 21
1114.18
  0
LINE
  8
0
 10
123.197
 20
1114.18
 11
123.649
 21
1114
  0
LINE
  8
0
 10
123.649
 20
1114
 11
124.075
 21
1113.77
  0
LINE
  8
0
 10
124.075
 20
1113.77
 11
124.469
 21
1113.48
  0
LINE
  8
0
 10
124.469
 20
1113.48
 11
124.823
 21
1113.15
  0
LINE
  8
0
 10
124.823
 20
1113.15
 11
125.133
 21
1112.78
  0
LINE
  8
0
 10
125.133
 20
1112.78
 11
125.394
 21
1112.37
  0
LINE
  8
0
 10
125.394
 20
1112.37
 11
125.601
 21
1111.93
  0
LINE
  8
0
 10
125.601
 20
1111.93
 11
125.751
 21
1111.46
  0
LINE
  8
0
 10
125.751
 20
1111.46
 11
125.842
 21
1110.99
  0
LINE
  8
0
 10
125.842
 20
1110.99
 11
125.873
 21
1110.5
  0
LINE
  8
0
 10
125.873
 20
1110.5
 11
125.873
 21
881.5
  0
LINE
  8
0
 10
125.873
 20
881.5
 11
125.842
 21
881.015
  0
LINE
  8
0
 10
125.842
 20
881.015
 11
125.751
 21
880.537
  0
LINE
  8
0
 10
125.751
 20
880.537
 11
125.601
 21
880.074
  0
LINE
  8
0
 10
125.601
 20
880.074
 11
125.394
 21
879.634
  0
LINE
  8
0
 10
125.394
 20
879.634
 11
125.133
 21
879.224
  0
LINE
  8
0
 10
125.133
 20
879.224
 11
124.823
 21
878.849
  0
LINE
  8
0
 10
124.823
 20
878.849
 11
124.469
 21
878.516
  0
LINE
  8
0
 10
124.469
 20
878.516
 11
124.075
 21
878.23
  0
LINE
  8
0
 10
124.075
 20
878.23
 11
123.649
 21
877.996
  0
LINE
  8
0
 10
123.649
 20
877.996
 11
123.197
 21
877.817
  0
LINE
  8
0
 10
123.197
 20
877.817
 11
122.726
 21
877.696
  0
LINE
  8
0
 10
122.726
 20
877.696
 11
122.243
 21
877.635
  0
LINE
  8
0
 10
122.243
 20
877.635
 11
-122.243
 21
877.635
  0
LINE
  8
0
 10
123.437
 20
627.089
 11
124.045
 21
627.245
  0
LINE
  8
0
 10
124.045
 20
627.245
 11
124.629
 21
627.476
  0
LINE
  8
0
 10
124.629
 20
627.476
 11
125.179
 21
627.778
  0
LINE
  8
0
 10
125.179
 20
627.778
 11
125.687
 21
628.147
  0
LINE
  8
0
 10
125.687
 20
628.147
 11
126.145
 21
628.577
  0
LINE
  8
0
 10
126.145
 20
628.577
 11
126.545
 21
629.061
  0
LINE
  8
0
 10
126.545
 20
629.061
 11
126.882
 21
629.591
  0
LINE
  8
0
 10
126.882
 20
629.591
 11
127.149
 21
630.159
  0
LINE
  8
0
 10
127.149
 20
630.159
 11
127.343
 21
630.757
  0
LINE
  8
0
 10
127.343
 20
630.757
 11
127.461
 21
631.373
  0
LINE
  8
0
 10
127.461
 20
631.373
 11
127.5
 21
632
  0
LINE
  8
0
 10
127.5
 20
632
 11
127.5
 21
862
  0
LINE
  8
0
 10
127.5
 20
862
 11
127.461
 21
862.627
  0
LINE
  8
0
 10
127.461
 20
862.627
 11
127.343
 21
863.243
  0
LINE
  8
0
 10
127.343
 20
863.243
 11
127.149
 21
863.841
  0
LINE
  8
0
 10
127.149
 20
863.841
 11
126.882
 21
864.409
  0
LINE
  8
0
 10
126.882
 20
864.409
 11
126.545
 21
864.939
  0
LINE
  8
0
 10
126.545
 20
864.939
 11
126.145
 21
865.423
  0
LINE
  8
0
 10
126.145
 20
865.423
 11
125.687
 21
865.853
  0
LINE
  8
0
 10
125.687
 20
865.853
 11
125.179
 21
866.222
  0
LINE
  8
0
 10
125.179
 20
866.222
 11
124.629
 21
866.524
  0
LINE
  8
0
 10
124.629
 20
866.524
 11
124.045
 21
866.755
  0
LINE
  8
0
 10
124.045
 20
866.755
 11
123.437
 21
866.911
  0
LINE
  8
0
 10
123.437
 20
866.911
 11
122.814
 21
866.99
  0
LINE
  8
0
 10
122.814
 20
866.99
 11
-122.814
 21
866.99
  0
LINE
  8
0
 10
-122.814
 20
866.99
 11
-123.437
 21
866.911
  0
LINE
  8
0
 10
-123.437
 20
866.911
 11
-124.045
 21
866.755
  0
LINE
  8
0
 10
-124.045
 20
866.755
 11
-124.629
 21
866.524
  0
LINE
  8
0
 10
-124.629
 20
866.524
 11
-125.179
 21
866.222
  0
LINE
  8
0
 10
-125.179
 20
866.222
 11
-125.687
 21
865.853
  0
LINE
  8
0
 10
-125.687
 20
865.853
 11
-126
 21
865.559
  0
LINE
  8
0
 10
-126
 20
865.559
 11
-126
 21
866.615
  0
LINE
  8
0
 10
-126
 20
866.615
 11
-129
 21
866.615
  0
LINE
  8
0
 10
-129
 20
866.615
 11
-129
 21
627.385
  0
LINE
  8
0
 10
-129
 20
627.385
 11
-126
 21
627.385
  0
LINE
  8
0
 10
-126
 20
627.385
 11
-126
 21
628.441
  0
LINE
  8
0
 10
-126
 20
628.441
 11
-125.687
 21
628.147
  0
LINE
  8
0
 10
-125.687
 20
628.147
 11
-125.179
 21
627.778
  0
LINE
  8
0
 10
-125.179
 20
627.778
 11
-124.629
 21
627.476
  0
LINE
  8
0
 10
-124.629
 20
627.476
 11
-124.045
 21
627.245
  0
LINE
  8
0
 10
-124.045
 20
627.245
 11
-123.437
 21
627.089
  0
LINE
  8
0
 10
-123.437
 20
627.089
 11
-122.814
 21
627.01
  0
LINE
  8
0
 10
-122.814
 20
627.01
 11
122.814
 21
627.01
  0
LINE
  8
0
 10
122.814
 20
627.01
 11
123.437
 21
627.089
  0
LINE
  8
0
 10
119.849
 20
857.105
 11
119.55
 21
857.143
  0
LINE
  8
0
 10
119.55
 20
857.143
 11
119.258
 21
857.217
  0
LINE
  8
0
 10
119.258
 20
857.217
 11
118.978
 21
857.328
  0
LINE
  8
0
 10
118.978
 20
857.328
 11
118.714
 21
857.474
  0
LINE
  8
0
 10
118.714
 20
857.474
 11
118.47
 21
857.651
  0
LINE
  8
0
 10
118.47
 20
857.651
 11
118.25
 21
857.857
  0
LINE
  8
0
 10
118.25
 20
857.857
 11
118.058
 21
858.089
  0
LINE
  8
0
 10
118.058
 20
858.089
 11
117.897
 21
858.344
  0
LINE
  8
0
 10
117.897
 20
858.344
 11
117.769
 21
858.617
  0
LINE
  8
0
 10
117.769
 20
858.617
 11
117.675
 21
858.903
  0
LINE
  8
0
 10
117.675
 20
858.903
 11
117.619
 21
859.199
  0
LINE
  8
0
 10
117.619
 20
859.199
 11
117.6
 21
859.5
  0
LINE
  8
0
 10
117.6
 20
859.5
 11
117.619
 21
859.801
  0
LINE
  8
0
 10
117.619
 20
859.801
 11
117.675
 21
860.097
  0
LINE
  8
0
 10
117.675
 20
860.097
 11
117.769
 21
860.383
  0
LINE
  8
0
 10
117.769
 20
860.383
 11
117.897
 21
860.656
  0
LINE
  8
0
 10
117.897
 20
860.656
 11
118.058
 21
860.911
  0
LINE
  8
0
 10
118.058
 20
860.911
 11
118.25
 21
861.143
  0
LINE
  8
0
 10
118.25
 20
861.143
 11
118.47
 21
861.349
  0
LINE
  8
0
 10
118.47
 20
861.349
 11
118.714
 21
861.526
  0
LINE
  8
0
 10
118.714
 20
861.526
 11
118.978
 21
861.672
  0
LINE
  8
0
 10
118.978
 20
861.672
 11
119.258
 21
861.783
  0
LINE
  8
0
 10
119.258
 20
861.783
 11
119.55
 21
861.857
  0
LINE
  8
0
 10
119.55
 20
861.857
 11
119.849
 21
861.895
  0
LINE
  8
0
 10
119.849
 20
861.895
 11
120.151
 21
861.895
  0
LINE
  8
0
 10
120.151
 20
861.895
 11
120.45
 21
861.857
  0
LINE
  8
0
 10
120.45
 20
861.857
 11
120.742
 21
861.783
  0
LINE
  8
0
 10
120.742
 20
861.783
 11
121.022
 21
861.672
  0
LINE
  8
0
 10
121.022
 20
861.672
 11
121.286
 21
861.526
  0
LINE
  8
0
 10
121.286
 20
861.526
 11
121.53
 21
861.349
  0
LINE
  8
0
 10
121.53
 20
861.349
 11
121.75
 21
861.143
  0
LINE
  8
0
 10
121.75
 20
861.143
 11
121.942
 21
860.911
  0
LINE
  8
0
 10
121.942
 20
860.911
 11
122.103
 21
860.656
  0
LINE
  8
0
 10
122.103
 20
860.656
 11
122.231
 21
860.383
  0
LINE
  8
0
 10
122.231
 20
860.383
 11
122.325
 21
860.097
  0
LINE
  8
0
 10
122.325
 20
860.097
 11
122.381
 21
859.801
  0
LINE
  8
0
 10
122.381
 20
859.801
 11
122.4
 21
859.5
  0
LINE
  8
0
 10
122.4
 20
859.5
 11
122.381
 21
859.199
  0
LINE
  8
0
 10
122.381
 20
859.199
 11
122.325
 21
858.903
  0
LINE
  8
0
 10
122.325
 20
858.903
 11
122.231
 21
858.617
  0
LINE
  8
0
 10
122.231
 20
858.617
 11
122.103
 21
858.344
  0
LINE
  8
0
 10
122.103
 20
858.344
 11
121.942
 21
858.089
  0
LINE
  8
0
 10
121.942
 20
858.089
 11
121.75
 21
857.857
  0
LINE
  8
0
 10
121.75
 20
857.857
 11
121.53
 21
857.651
  0
LINE
  8
0
 10
121.53
 20
857.651
 11
121.286
 21
857.474
  0
LINE
  8
0
 10
121.286
 20
857.474
 11
121.022
 21
857.328
  0
LINE
  8
0
 10
121.022
 20
857.328
 11
120.742
 21
857.217
  0
LINE
  8
0
 10
120.742
 20
857.217
 11
120.45
 21
857.143
  0
LINE
  8
0
 10
120.45
 20
857.143
 11
120.151
 21
857.105
  0
LINE
  8
0
 10
120.151
 20
857.105
 11
119.849
 21
857.105
  0
LINE
  8
0
 10
-120.151
 20
857.105
 11
-120.45
 21
857.143
  0
LINE
  8
0
 10
-120.45
 20
857.143
 11
-120.742
 21
857.217
  0
LINE
  8
0
 10
-120.742
 20
857.217
 11
-121.022
 21
857.328
  0
LINE
  8
0
 10
-121.022
 20
857.328
 11
-121.286
 21
857.474
  0
LINE
  8
0
 10
-121.286
 20
857.474
 11
-121.53
 21
857.651
  0
LINE
  8
0
 10
-121.53
 20
857.651
 11
-121.75
 21
857.857
  0
LINE
  8
0
 10
-121.75
 20
857.857
 11
-121.942
 21
858.089
  0
LINE
  8
0
 10
-121.942
 20
858.089
 11
-122.103
 21
858.344
  0
LINE
  8
0
 10
-122.103
 20
858.344
 11
-122.231
 21
858.617
  0
LINE
  8
0
 10
-122.231
 20
858.617
 11
-122.325
 21
858.903
  0
LINE
  8
0
 10
-122.325
 20
858.903
 11
-122.381
 21
859.199
  0
LINE
  8
0
 10
-122.381
 20
859.199
 11
-122.4
 21
859.5
  0
LINE
  8
0
 10
-122.4
 20
859.5
 11
-122.381
 21
859.801
  0
LINE
  8
0
 10
-122.381
 20
859.801
 11
-122.325
 21
860.097
  0
LINE
  8
0
 10
-122.325
 20
860.097
 11
-122.231
 21
860.383
  0
LINE
  8
0
 10
-122.231
 20
860.383
 11
-122.103
 21
860.656
  0
LINE
  8
0
 10
-122.103
 20
860.656
 11
-121.942
 21
860.911
  0
LINE
  8
0
 10
-121.942
 20
860.911
 11
-121.75
 21
861.143
  0
LINE
  8
0
 10
-121.75
 20
861.143
 11
-121.53
 21
861.349
  0
LINE
  8
0
 10
-121.53
 20
861.349
 11
-121.286
 21
861.526
  0
LINE
  8
0
 10
-121.286
 20
861.526
 11
-121.022
 21
861.672
  0
LINE
  8
0
 10
-121.022
 20
861.672
 11
-120.742
 21
861.783
  0
LINE
  8
0
 10
-120.742
 20
861.783
 11
-120.45
 21
861.857
  0
LINE
  8
0
 10
-120.45
 20
861.857
 11
-120.151
 21
861.895
  0
LINE
  8
0
 10
-120.151
 20
861.895
 11
-119.849
 21
861.895
  0
LINE
  8
0
 10
-119.849
 20
861.895
 11
-119.55
 21
861.857
  0
LINE
  8
0
 10
-119.55
 20
861.857
 11
-119.258
 21
861.783
  0
LINE
  8
0
 10
-119.258
 20
861.783
 11
-118.978
 21
861.672
  0
LINE
  8
0
 10
-118.978
 20
861.672
 11
-118.714
 21
861.526
  0
LINE
  8
0
 10
-118.714
 20
861.526
 11
-118.47
 21
861.349
  0
LINE
  8
0
 10
-118.47
 20
861.349
 11
-118.25
 21
861.143
  0
LINE
  8
0
 10
-118.25
 20
861.143
 11
-118.058
 21
860.911
  0
LINE
  8
0
 10
-118.058
 20
860.911
 11
-117.897
 21
860.656
  0
LINE
  8
0
 10
-117.897
 20
860.656
 11
-117.769
 21
860.383
  0
LINE
  8
0
 10
-117.769
 20
860.383
 11
-117.675
 21
860.097
  0
LINE
  8
0
 10
-117.675
 20
860.097
 11
-117.619
 21
859.801
  0
LINE
  8
0
 10
-117.619
 20
859.801
 11
-117.6
 21
859.5
  0
LINE
  8
0
 10
-117.6
 20
859.5
 11
-117.619
 21
859.199
  0
LINE
  8
0
 10
-117.619
 20
859.199
 11
-117.675
 21
858.903
  0
LINE
  8
0
 10
-117.675
 20
858.903
 11
-117.769
 21
858.617
  0
LINE
  8
0
 10
-117.769
 20
858.617
 11
-117.897
 21
858.344
  0
LINE
  8
0
 10
-117.897
 20
858.344
 11
-118.058
 21
858.089
  0
LINE
  8
0
 10
-118.058
 20
858.089
 11
-118.25
 21
857.857
  0
LINE
  8
0
 10
-118.25
 20
857.857
 11
-118.47
 21
857.651
  0
LINE
  8
0
 10
-118.47
 20
857.651
 11
-118.714
 21
857.474
  0
LINE
  8
0
 10
-118.714
 20
857.474
 11
-118.978
 21
857.328
  0
LINE
  8
0
 10
-118.978
 20
857.328
 11
-119.258
 21
857.217
  0
LINE
  8
0
 10
-119.258
 20
857.217
 11
-119.55
 21
857.143
  0
LINE
  8
0
 10
-119.55
 20
857.143
 11
-119.849
 21
857.105
  0
LINE
  8
0
 10
-119.849
 20
857.105
 11
-120.151
 21
857.105
  0
LINE
  8
0
 10
119.849
 20
632.105
 11
119.55
 21
632.143
  0
LINE
  8
0
 10
119.55
 20
632.143
 11
119.258
 21
632.217
  0
LINE
  8
0
 10
119.258
 20
632.217
 11
118.978
 21
632.328
  0
LINE
  8
0
 10
118.978
 20
632.328
 11
118.714
 21
632.474
  0
LINE
  8
0
 10
118.714
 20
632.474
 11
118.47
 21
632.651
  0
LINE
  8
0
 10
118.47
 20
632.651
 11
118.25
 21
632.857
  0
LINE
  8
0
 10
118.25
 20
632.857
 11
118.058
 21
633.089
  0
LINE
  8
0
 10
118.058
 20
633.089
 11
117.897
 21
633.344
  0
LINE
  8
0
 10
117.897
 20
633.344
 11
117.769
 21
633.617
  0
LINE
  8
0
 10
117.769
 20
633.617
 11
117.675
 21
633.903
  0
LINE
  8
0
 10
117.675
 20
633.903
 11
117.619
 21
634.199
  0
LINE
  8
0
 10
117.619
 20
634.199
 11
117.6
 21
634.5
  0
LINE
  8
0
 10
117.6
 20
634.5
 11
117.619
 21
634.801
  0
LINE
  8
0
 10
117.619
 20
634.801
 11
117.675
 21
635.097
  0
LINE
  8
0
 10
117.675
 20
635.097
 11
117.769
 21
635.383
  0
LINE
  8
0
 10
117.769
 20
635.383
 11
117.897
 21
635.656
  0
LINE
  8
0
 10
117.897
 20
635.656
 11
118.058
 21
635.911
  0
LINE
  8
0
 10
118.058
 20
635.911
 11
118.25
 21
636.143
  0
LINE
  8
0
 10
118.25
 20
636.143
 11
118.47
 21
636.349
  0
LINE
  8
0
 10
118.47
 20
636.349
 11
118.714
 21
636.526
  0
LINE
  8
0
 10
118.714
 20
636.526
 11
118.978
 21
636.672
  0
LINE
  8
0
 10
118.978
 20
636.672
 11
119.258
 21
636.783
  0
LINE
  8
0
 10
119.258
 20
636.783
 11
119.55
 21
636.857
  0
LINE
  8
0
 10
119.55
 20
636.857
 11
119.849
 21
636.895
  0
LINE
  8
0
 10
119.849
 20
636.895
 11
120.151
 21
636.895
  0
LINE
  8
0
 10
120.151
 20
636.895
 11
120.45
 21
636.857
  0
LINE
  8
0
 10
120.45
 20
636.857
 11
120.742
 21
636.783
  0
LINE
  8
0
 10
120.742
 20
636.783
 11
121.022
 21
636.672
  0
LINE
  8
0
 10
121.022
 20
636.672
 11
121.286
 21
636.526
  0
LINE
  8
0
 10
121.286
 20
636.526
 11
121.53
 21
636.349
  0
LINE
  8
0
 10
121.53
 20
636.349
 11
121.75
 21
636.143
  0
LINE
  8
0
 10
121.75
 20
636.143
 11
121.942
 21
635.911
  0
LINE
  8
0
 10
121.942
 20
635.911
 11
122.103
 21
635.656
  0
LINE
  8
0
 10
122.103
 20
635.656
 11
122.231
 21
635.383
  0
LINE
  8
0
 10
122.231
 20
635.383
 11
122.325
 21
635.097
  0
LINE
  8
0
 10
122.325
 20
635.097
 11
122.381
 21
634.801
  0
LINE
  8
0
 10
122.381
 20
634.801
 11
122.4
 21
634.5
  0
LINE
  8
0
 10
122.4
 20
634.5
 11
122.381
 21
634.199
  0
LINE
  8
0
 10
122.381
 20
634.199
 11
122.325
 21
633.903
  0
LINE
  8
0
 10
122.325
 20
633.903
 11
122.231
 21
633.617
  0
LINE
  8
0
 10
122.231
 20
633.617
 11
122.103
 21
633.344
  0
LINE
  8
0
 10
122.103
 20
633.344
 11
121.942
 21
633.089
  0
LINE
  8
0
 10
121.942
 20
633.089
 11
121.75
 21
632.857
  0
LINE
  8
0
 10
121.75
 20
632.857
 11
121.53
 21
632.651
  0
LINE
  8
0
 10
121.53
 20
632.651
 11
121.286
 21
632.474
  0
LINE
  8
0
 10
121.286
 20
632.474
 11
121.022
 21
632.328
  0
LINE
  8
0
 10
121.022
 20
632.328
 11
120.742
 21
632.217
  0
LINE
  8
0
 10
120.742
 20
632.217
 11
120.45
 21
632.143
  0
LINE
  8
0
 10
120.45
 20
632.143
 11
120.151
 21
632.105
  0
LINE
  8
0
 10
120.151
 20
632.105
 11
119.849
 21
632.105
  0
LINE
  8
0
 10
-120.151
 20
632.105
 11
-120.45
 21
632.143
  0
LINE
  8
0
 10
-120.45
 20
632.143
 11
-120.742
 21
632.217
  0
LINE
  8
0
 10
-120.742
 20
632.217
 11
-121.022
 21
632.328
  0
LINE
  8
0
 10
-121.022
 20
632.328
 11
-121.286
 21
632.474
  0
LINE
  8
0
 10
-121.286
 20
632.474
 11
-121.53
 21
632.651
  0
LINE
  8
0
 10
-121.53
 20
632.651
 11
-121.75
 21
632.857
  0
LINE
  8
0
 10
-121.75
 20
632.857
 11
-121.942
 21
633.089
  0
LINE
  8
0
 10
-121.942
 20
633.089
 11
-122.103
 21
633.344
  0
LINE
  8
0
 10
-122.103
 20
633.344
 11
-122.231
 21
633.617
  0
LINE
  8
0
 10
-122.231
 20
633.617
 11
-122.325
 21
633.903
  0
LINE
  8
0
 10
-122.325
 20
633.903
 11
-122.381
 21
634.199
  0
LINE
  8
0
 10
-122.381
 20
634.199
 11
-122.4
 21
634.5
  0
LINE
  8
0
 10
-122.4
 20
634.5
 11
-122.381
 21
634.801
  0
LINE
  8
0
 10
-122.381
 20
634.801
 11
-122.325
 21
635.097
  0
LINE
  8
0
 10
-122.325
 20
635.097
 11
-122.231
 21
635.383
  0
LINE
  8
0
 10
-122.231
 20
635.383
 11
-122.103
 21
635.656
  0
LINE
  8
0
 10
-122.103
 20
635.656
 11
-121.942
 21
635.911
  0
LINE
  8
0
 10
-121.942
 20
635.911
 11
-121.75
 21
636.143
  0
LINE
  8
0
 10
-121.75
 20
636.143
 11
-121.53
 21
636.349
  0
LINE
  8
0
 10
-121.53
 20
636.349
 11
-121.286
 21
636.526
  0
LINE
  8
0
 10
-121.286
 20
636.526
 11
-121.022
 21
636.672
  0
LINE
  8
0
 10
-121.022
 20
636.672
 11
-120.742
 21
636.783
  0
LINE
  8
0
 10
-120.742
 20
636.783
 11
-120.45
 21
636.857
  0
LINE
  8
0
 10
-120.45
 20
636.857
 11
-120.151
 21
636.895
  0
LINE
  8
0
 10
-120.151
 20
636.895
 11
-119.849
 21
636.895
  0
LINE
  8
0
 10
-119.849
 20
636.895
 11
-119.55
 21
636.857
  0
LINE
  8
0
 10
-119.55
 20
636.857
 11
-119.258
 21
636.783
  0
LINE
  8
0
 10
-119.258
 20
636.783
 11
-118.978
 21
636.672
  0
LINE
  8
0
 10
-118.978
 20
636.672
 11
-118.714
 21
636.526
  0
LINE
  8
0
 10
-118.714
 20
636.526
 11
-118.47
 21
636.349
  0
LINE
  8
0
 10
-118.47
 20
636.349
 11
-118.25
 21
636.143
  0
LINE
  8
0
 10
-118.25
 20
636.143
 11
-118.058
 21
635.911
  0
LINE
  8
0
 10
-118.058
 20
635.911
 11
-117.897
 21
635.656
  0
LINE
  8
0
 10
-117.897
 20
635.656
 11
-117.769
 21
635.383
  0
LINE
  8
0
 10
-117.769
 20
635.383
 11
-117.675
 21
635.097
  0
LINE
  8
0
 10
-117.675
 20
635.097
 11
-117.619
 21
634.801
  0
LINE
  8
0
 10
-117.619
 20
634.801
 11
-117.6
 21
634.5
  0
LINE
  8
0
 10
-117.6
 20
634.5
 11
-117.619
 21
634.199
  0
LINE
  8
0
 10
-117.619
 20
634.199
 11
-117.675
 21
633.903
  0
LINE
  8
0
 10
-117.675
 20
633.903
 11
-117.769
 21
633.617
  0
LINE
  8
0
 10
-117.769
 20
633.617
 11
-117.897
 21
633.344
  0
LINE
  8
0
 10
-117.897
 20
633.344
 11
-118.058
 21
633.089
  0
LINE
  8
0
 10
-118.058
 20
633.089
 11
-118.25
 21
632.857
  0
LINE
  8
0
 10
-118.25
 20
632.857
 11
-118.47
 21
632.651
  0
LINE
  8
0
 10
-118.47
 20
632.651
 11
-118.714
 21
632.474
  0
LINE
  8
0
 10
-118.714
 20
632.474
 11
-118.978
 21
632.328
  0
LINE
  8
0
 10
-118.978
 20
632.328
 11
-119.258
 21
632.217
  0
LINE
  8
0
 10
-119.258
 20
632.217
 11
-119.55
 21
632.143
  0
LINE
  8
0
 10
-119.55
 20
632.143
 11
-119.849
 21
632.105
  0
LINE
  8
0
 10
-119.849
 20
632.105
 11
-120.151
 21
632.105
  0
LINE
  8
0
 10
123.437
 20
378.089
 11
124.045
 21
378.245
  0
LINE
  8
0
 10
124.045
 20
378.245
 11
124.629
 21
378.476
  0
LINE
  8
0
 10
124.629
 20
378.476
 11
125.179
 21
378.778
  0
LINE
  8
0
 10
125.179
 20
378.778
 11
125.687
 21
379.147
  0
LINE
  8
0
 10
125.687
 20
379.147
 11
126.145
 21
379.577
  0
LINE
  8
0
 10
126.145
 20
379.577
 11
126.545
 21
380.061
  0
LINE
  8
0
 10
126.545
 20
380.061
 11
126.882
 21
380.591
  0
LINE
  8
0
 10
126.882
 20
380.591
 11
127.149
 21
381.159
  0
LINE
  8
0
 10
127.149
 20
381.159
 11
127.343
 21
381.757
  0
LINE
  8
0
 10
127.343
 20
381.757
 11
127.461
 21
382.373
  0
LINE
  8
0
 10
127.461
 20
382.373
 11
127.5
 21
383
  0
LINE
  8
0
 10
127.5
 20
383
 11
127.5
 21
613
  0
LINE
  8
0
 10
127.5
 20
613
 11
127.461
 21
613.627
  0
LINE
  8
0
 10
127.461
 20
613.627
 11
127.343
 21
614.243
  0
LINE
  8
0
 10
127.343
 20
614.243
 11
127.149
 21
614.841
  0
LINE
  8
0
 10
127.149
 20
614.841
 11
126.882
 21
615.409
  0
LINE
  8
0
 10
126.882
 20
615.409
 11
126.545
 21
615.939
  0
LINE
  8
0
 10
126.545
 20
615.939
 11
126.145
 21
616.423
  0
LINE
  8
0
 10
126.145
 20
616.423
 11
125.687
 21
616.853
  0
LINE
  8
0
 10
125.687
 20
616.853
 11
125.179
 21
617.222
  0
LINE
  8
0
 10
125.179
 20
617.222
 11
124.629
 21
617.524
  0
LINE
  8
0
 10
124.629
 20
617.524
 11
124.045
 21
617.755
  0
LINE
  8
0
 10
124.045
 20
617.755
 11
123.437
 21
617.911
  0
LINE
  8
0
 10
123.437
 20
617.911
 11
122.814
 21
617.99
  0
LINE
  8
0
 10
122.814
 20
617.99
 11
-122.814
 21
617.99
  0
LINE
  8
0
 10
-122.814
 20
617.99
 11
-123.437
 21
617.911
  0
LINE
  8
0
 10
-123.437
 20
617.911
 11
-124.045
 21
617.755
  0
LINE
  8
0
 10
-124.045
 20
617.755
 11
-124.629
 21
617.524
  0
LINE
  8
0
 10
-124.629
 20
617.524
 11
-125.179
 21
617.222
  0
LINE
  8
0
 10
-125.179
 20
617.222
 11
-125.687
 21
616.853
  0
LINE
  8
0
 10
-125.687
 20
616.853
 11
-126.145
 21
616.423
  0
LINE
  8
0
 10
-126.145
 20
616.423
 11
-126.545
 21
615.939
  0
LINE
  8
0
 10
-126.545
 20
615.939
 11
-126.882
 21
615.409
  0
LINE
  8
0
 10
-126.882
 20
615.409
 11
-127.149
 21
614.841
  0
LINE
  8
0
 10
-127.149
 20
614.841
 11
-127.343
 21
614.243
  0
LINE
  8
0
 10
-127.343
 20
614.243
 11
-127.4
 21
613.944
  0
LINE
  8
0
 10
-127.4
 20
613.944
 11
-129
 21
613.944
  0
LINE
  8
0
 10
-129
 20
613.944
 11
-129
 21
382.056
  0
LINE
  8
0
 10
-129
 20
382.056
 11
-127.4
 21
382.056
  0
LINE
  8
0
 10
-127.4
 20
382.056
 11
-127.343
 21
381.757
  0
LINE
  8
0
 10
-127.343
 20
381.757
 11
-127.149
 21
381.159
  0
LINE
  8
0
 10
-127.149
 20
381.159
 11
-126.882
 21
380.591
  0
LINE
  8
0
 10
-126.882
 20
380.591
 11
-126.545
 21
380.061
  0
LINE
  8
0
 10
-126.545
 20
380.061
 11
-126.145
 21
379.577
  0
LINE
  8
0
 10
-126.145
 20
379.577
 11
-125.687
 21
379.147
  0
LINE
  8
0
 10
-125.687
 20
379.147
 11
-125.179
 21
378.778
  0
LINE
  8
0
 10
-125.179
 20
378.778
 11
-124.629
 21
378.476
  0
LINE
  8
0
 10
-124.629
 20
378.476
 11
-124.045
 21
378.245
  0
LINE
  8
0
 10
-124.045
 20
378.245
 11
-123.437
 21
378.089
  0
LINE
  8
0
 10
-123.437
 20
378.089
 11
-122.814
 21
378.01
  0
LINE
  8
0
 10
-122.814
 20
378.01
 11
122.814
 21
378.01
  0
LINE
  8
0
 10
122.814
 20
378.01
 11
123.437
 21
378.089
  0
LINE
  8
0
 10
-120.113
 20
608.704
 11
-120.337
 21
608.732
  0
LINE
  8
0
 10
-120.337
 20
608.732
 11
-120.556
 21
608.788
  0
LINE
  8
0
 10
-120.556
 20
608.788
 11
-120.766
 21
608.871
  0
LINE
  8
0
 10
-120.766
 20
608.871
 11
-120.964
 21
608.98
  0
LINE
  8
0
 10
-120.964
 20
608.98
 11
-121.147
 21
609.113
  0
LINE
  8
0
 10
-121.147
 20
609.113
 11
-121.312
 21
609.268
  0
LINE
  8
0
 10
-121.312
 20
609.268
 11
-121.456
 21
609.442
  0
LINE
  8
0
 10
-121.456
 20
609.442
 11
-121.577
 21
609.633
  0
LINE
  8
0
 10
-121.577
 20
609.633
 11
-121.674
 21
609.837
  0
LINE
  8
0
 10
-121.674
 20
609.837
 11
-121.743
 21
610.052
  0
LINE
  8
0
 10
-121.743
 20
610.052
 11
-121.786
 21
610.274
  0
LINE
  8
0
 10
-121.786
 20
610.274
 11
-121.8
 21
610.5
  0
LINE
  8
0
 10
-121.8
 20
610.5
 11
-121.786
 21
610.726
  0
LINE
  8
0
 10
-121.786
 20
610.726
 11
-121.743
 21
610.948
  0
LINE
  8
0
 10
-121.743
 20
610.948
 11
-121.674
 21
611.163
  0
LINE
  8
0
 10
-121.674
 20
611.163
 11
-121.577
 21
611.367
  0
LINE
  8
0
 10
-121.577
 20
611.367
 11
-121.456
 21
611.558
  0
LINE
  8
0
 10
-121.456
 20
611.558
 11
-121.312
 21
611.732
  0
LINE
  8
0
 10
-121.312
 20
611.732
 11
-121.147
 21
611.887
  0
LINE
  8
0
 10
-121.147
 20
611.887
 11
-120.964
 21
612.02
  0
LINE
  8
0
 10
-120.964
 20
612.02
 11
-120.766
 21
612.129
  0
LINE
  8
0
 10
-120.766
 20
612.129
 11
-120.556
 21
612.212
  0
LINE
  8
0
 10
-120.556
 20
612.212
 11
-120.337
 21
612.268
  0
LINE
  8
0
 10
-120.337
 20
612.268
 11
-120.113
 21
612.296
  0
LINE
  8
0
 10
-120.113
 20
612.296
 11
-119.887
 21
612.296
  0
LINE
  8
0
 10
-119.887
 20
612.296
 11
-119.663
 21
612.268
  0
LINE
  8
0
 10
-119.663
 20
612.268
 11
-119.444
 21
612.212
  0
LINE
  8
0
 10
-119.444
 20
612.212
 11
-119.234
 21
612.129
  0
LINE
  8
0
 10
-119.234
 20
612.129
 11
-119.036
 21
612.02
  0
LINE
  8
0
 10
-119.036
 20
612.02
 11
-118.853
 21
611.887
  0
LINE
  8
0
 10
-118.853
 20
611.887
 11
-118.688
 21
611.732
  0
LINE
  8
0
 10
-118.688
 20
611.732
 11
-118.544
 21
611.558
  0
LINE
  8
0
 10
-118.544
 20
611.558
 11
-118.423
 21
611.367
  0
LINE
  8
0
 10
-118.423
 20
611.367
 11
-118.326
 21
611.163
  0
LINE
  8
0
 10
-118.326
 20
611.163
 11
-118.257
 21
610.948
  0
LINE
  8
0
 10
-118.257
 20
610.948
 11
-118.214
 21
610.726
  0
LINE
  8
0
 10
-118.214
 20
610.726
 11
-118.2
 21
610.5
  0
LINE
  8
0
 10
-118.2
 20
610.5
 11
-118.214
 21
610.274
  0
LINE
  8
0
 10
-118.214
 20
610.274
 11
-118.257
 21
610.052
  0
LINE
  8
0
 10
-118.257
 20
610.052
 11
-118.326
 21
609.837
  0
LINE
  8
0
 10
-118.326
 20
609.837
 11
-118.423
 21
609.633
  0
LINE
  8
0
 10
-118.423
 20
609.633
 11
-118.544
 21
609.442
  0
LINE
  8
0
 10
-118.544
 20
609.442
 11
-118.688
 21
609.268
  0
LINE
  8
0
 10
-118.688
 20
609.268
 11
-118.853
 21
609.113
  0
LINE
  8
0
 10
-118.853
 20
609.113
 11
-119.036
 21
608.98
  0
LINE
  8
0
 10
-119.036
 20
608.98
 11
-119.234
 21
608.871
  0
LINE
  8
0
 10
-119.234
 20
608.871
 11
-119.444
 21
608.788
  0
LINE
  8
0
 10
-119.444
 20
608.788
 11
-119.663
 21
608.732
  0
LINE
  8
0
 10
-119.663
 20
608.732
 11
-119.887
 21
608.704
  0
LINE
  8
0
 10
-119.887
 20
608.704
 11
-120.113
 21
608.704
  0
LINE
  8
0
 10
119.887
 20
608.704
 11
119.663
 21
608.732
  0
LINE
  8
0
 10
119.663
 20
608.732
 11
119.444
 21
608.788
  0
LINE
  8
0
 10
119.444
 20
608.788
 11
119.234
 21
608.871
  0
LINE
  8
0
 10
119.234
 20
608.871
 11
119.036
 21
608.98
  0
LINE
  8
0
 10
119.036
 20
608.98
 11
118.853
 21
609.113
  0
LINE
  8
0
 10
118.853
 20
609.113
 11
118.688
 21
609.268
  0
LINE
  8
0
 10
118.688
 20
609.268
 11
118.544
 21
609.442
  0
LINE
  8
0
 10
118.544
 20
609.442
 11
118.423
 21
609.633
  0
LINE
  8
0
 10
118.423
 20
609.633
 11
118.326
 21
609.837
  0
LINE
  8
0
 10
118.326
 20
609.837
 11
118.257
 21
610.052
  0
LINE
  8
0
 10
118.257
 20
610.052
 11
118.214
 21
610.274
  0
LINE
  8
0
 10
118.214
 20
610.274
 11
118.2
 21
610.5
  0
LINE
  8
0
 10
118.2
 20
610.5
 11
118.214
 21
610.726
  0
LINE
  8
0
 10
118.214
 20
610.726
 11
118.257
 21
610.948
  0
LINE
  8
0
 10
118.257
 20
610.948
 11
118.326
 21
611.163
  0
LINE
  8
0
 10
118.326
 20
611.163
 11
118.423
 21
611.367
  0
LINE
  8
0
 10
118.423
 20
611.367
 11
118.544
 21
611.558
  0
LINE
  8
0
 10
118.544
 20
611.558
 11
118.688
 21
611.732
  0
LINE
  8
0
 10
118.688
 20
611.732
 11
118.853
 21
611.887
  0
LINE
  8
0
 10
118.853
 20
611.887
 11
119.036
 21
612.02
  0
LINE
  8
0
 10
119.036
 20
612.02
 11
119.234
 21
612.129
  0
LINE
  8
0
 10
119.234
 20
612.129
 11
119.444
 21
612.212
  0
LINE
  8
0
 10
119.444
 20
612.212
 11
119.663
 21
612.268
  0
LINE
  8
0
 10
119.663
 20
612.268
 11
119.887
 21
612.296
  0
LINE
  8
0
 10
119.887
 20
612.296
 11
120.113
 21
612.296
  0
LINE
  8
0
 10
120.113
 20
612.296
 11
120.337
 21
612.268
  0
LINE
  8
0
 10
120.337
 20
612.268
 11
120.556
 21
612.212
  0
LINE
  8
0
 10
120.556
 20
612.212
 11
120.766
 21
612.129
  0
LINE
  8
0
 10
120.766
 20
612.129
 11
120.964
 21
612.02
  0
LINE
  8
0
 10
120.964
 20
612.02
 11
121.147
 21
611.887
  0
LINE
  8
0
 10
121.147
 20
611.887
 11
121.312
 21
611.732
  0
LINE
  8
0
 10
121.312
 20
611.732
 11
121.456
 21
611.558
  0
LINE
  8
0
 10
121.456
 20
611.558
 11
121.577
 21
611.367
  0
LINE
  8
0
 10
121.577
 20
611.367
 11
121.674
 21
611.163
  0
LINE
  8
0
 10
121.674
 20
611.163
 11
121.743
 21
610.948
  0
LINE
  8
0
 10
121.743
 20
610.948
 11
121.786
 21
610.726
  0
LINE
  8
0
 10
121.786
 20
610.726
 11
121.8
 21
610.5
  0
LINE
  8
0
 10
121.8
 20
610.5
 11
121.786
 21
610.274
  0
LINE
  8
0
 10
121.786
 20
610.274
 11
121.743
 21
610.052
  0
LINE
  8
0
 10
121.743
 20
610.052
 11
121.674
 21
609.837
  0
LINE
  8
0
 10
121.674
 20
609.837
 11
121.577
 21
609.633
  0
LINE
  8
0
 10
121.577
 20
609.633
 11
121.456
 21
609.442
  0
LINE
  8
0
 10
121.456
 20
609.442
 11
121.312
 21
609.268
  0
LINE
  8
0
 10
121.312
 20
609.268
 11
121.147
 21
609.113
  0
LINE
  8
0
 10
121.147
 20
609.113
 11
120.964
 21
608.98
  0
LINE
  8
0
 10
120.964
 20
608.98
 11
120.766
 21
608.871
  0
LINE
  8
0
 10
120.766
 20
608.871
 11
120.556
 21
608.788
  0
LINE
  8
0
 10
120.556
 20
608.788
 11
120.337
 21
608.732
  0
LINE
  8
0
 10
120.337
 20
608.732
 11
120.113
 21
608.704
  0
LINE
  8
0
 10
120.113
 20
608.704
 11
119.887
 21
608.704
  0
LINE
  8
0
 10
119.887
 20
383.704
 11
119.663
 21
383.732
  0
LINE
  8
0
 10
119.663
 20
383.732
 11
119.444
 21
383.788
  0
LINE
  8
0
 10
119.444
 20
383.788
 11
119.234
 21
383.871
  0
LINE
  8
0
 10
119.234
 20
383.871
 11
119.036
 21
383.98
  0
LINE
  8
0
 10
119.036
 20
383.98
 11
118.853
 21
384.113
  0
LINE
  8
0
 10
118.853
 20
384.113
 11
118.688
 21
384.268
  0
LINE
  8
0
 10
118.688
 20
384.268
 11
118.544
 21
384.442
  0
LINE
  8
0
 10
118.544
 20
384.442
 11
118.423
 21
384.633
  0
LINE
  8
0
 10
118.423
 20
384.633
 11
118.326
 21
384.837
  0
LINE
  8
0
 10
118.326
 20
384.837
 11
118.257
 21
385.052
  0
LINE
  8
0
 10
118.257
 20
385.052
 11
118.214
 21
385.274
  0
LINE
  8
0
 10
118.214
 20
385.274
 11
118.2
 21
385.5
  0
LINE
  8
0
 10
118.2
 20
385.5
 11
118.214
 21
385.726
  0
LINE
  8
0
 10
118.214
 20
385.726
 11
118.257
 21
385.948
  0
LINE
  8
0
 10
118.257
 20
385.948
 11
118.326
 21
386.163
  0
LINE
  8
0
 10
118.326
 20
386.163
 11
118.423
 21
386.367
  0
LINE
  8
0
 10
118.423
 20
386.367
 11
118.544
 21
386.558
  0
LINE
  8
0
 10
118.544
 20
386.558
 11
118.688
 21
386.732
  0
LINE
  8
0
 10
118.688
 20
386.732
 11
118.853
 21
386.887
  0
LINE
  8
0
 10
118.853
 20
386.887
 11
119.036
 21
387.02
  0
LINE
  8
0
 10
119.036
 20
387.02
 11
119.234
 21
387.129
  0
LINE
  8
0
 10
119.234
 20
387.129
 11
119.444
 21
387.212
  0
LINE
  8
0
 10
119.444
 20
387.212
 11
119.663
 21
387.268
  0
LINE
  8
0
 10
119.663
 20
387.268
 11
119.887
 21
387.296
  0
LINE
  8
0
 10
119.887
 20
387.296
 11
120.113
 21
387.296
  0
LINE
  8
0
 10
120.113
 20
387.296
 11
120.337
 21
387.268
  0
LINE
  8
0
 10
120.337
 20
387.268
 11
120.556
 21
387.212
  0
LINE
  8
0
 10
120.556
 20
387.212
 11
120.766
 21
387.129
  0
LINE
  8
0
 10
120.766
 20
387.129
 11
120.964
 21
387.02
  0
LINE
  8
0
 10
120.964
 20
387.02
 11
121.147
 21
386.887
  0
LINE
  8
0
 10
121.147
 20
386.887
 11
121.312
 21
386.732
  0
LINE
  8
0
 10
121.312
 20
386.732
 11
121.456
 21
386.558
  0
LINE
  8
0
 10
121.456
 20
386.558
 11
121.577
 21
386.367
  0
LINE
  8
0
 10
121.577
 20
386.367
 11
121.674
 21
386.163
  0
LINE
  8
0
 10
121.674
 20
386.163
 11
121.743
 21
385.948
  0
LINE
  8
0
 10
121.743
 20
385.948
 11
121.786
 21
385.726
  0
LINE
  8
0
 10
121.786
 20
385.726
 11
121.8
 21
385.5
  0
LINE
  8
0
 10
121.8
 20
385.5
 11
121.786
 21
385.274
  0
LINE
  8
0
 10
121.786
 20
385.274
 11
121.743
 21
385.052
  0
LINE
  8
0
 10
121.743
 20
385.052
 11
121.674
 21
384.837
  0
LINE
  8
0
 10
121.674
 20
384.837
 11
121.577
 21
384.633
  0
LINE
  8
0
 10
121.577
 20
384.633
 11
121.456
 21
384.442
  0
LINE
  8
0
 10
121.456
 20
384.442
 11
121.312
 21
384.268
  0
LINE
  8
0
 10
121.312
 20
384.268
 11
121.147
 21
384.113
  0
LINE
  8
0
 10
121.147
 20
384.113
 11
120.964
 21
383.98
  0
LINE
  8
0
 10
120.964
 20
383.98
 11
120.766
 21
383.871
  0
LINE
  8
0
 10
120.766
 20
383.871
 11
120.556
 21
383.788
  0
LINE
  8
0
 10
120.556
 20
383.788
 11
120.337
 21
383.732
  0
LINE
  8
0
 10
120.337
 20
383.732
 11
120.113
 21
383.704
  0
LINE
  8
0
 10
120.113
 20
383.704
 11
119.887
 21
383.704
  0
LINE
  8
0
 10
-120.113
 20
383.704
 11
-120.337
 21
383.732
  0
LINE
  8
0
 10
-120.337
 20
383.732
 11
-120.556
 21
383.788
  0
LINE
  8
0
 10
-120.556
 20
383.788
 11
-120.766
 21
383.871
  0
LINE
  8
0
 10
-120.766
 20
383.871
 11
-120.964
 21
383.98
  0
LINE
  8
0
 10
-120.964
 20
383.98
 11
-121.147
 21
384.113
  0
LINE
  8
0
 10
-121.147
 20
384.113
 11
-121.312
 21
384.268
  0
LINE
  8
0
 10
-121.312
 20
384.268
 11
-121.456
 21
384.442
  0
LINE
  8
0
 10
-121.456
 20
384.442
 11
-121.577
 21
384.633
  0
LINE
  8
0
 10
-121.577
 20
384.633
 11
-121.674
 21
384.837
  0
LINE
  8
0
 10
-121.674
 20
384.837
 11
-121.743
 21
385.052
  0
LINE
  8
0
 10
-121.743
 20
385.052
 11
-121.786
 21
385.274
  0
LINE
  8
0
 10
-121.786
 20
385.274
 11
-121.8
 21
385.5
  0
LINE
  8
0
 10
-121.8
 20
385.5
 11
-121.786
 21
385.726
  0
LINE
  8
0
 10
-121.786
 20
385.726
 11
-121.743
 21
385.948
  0
LINE
  8
0
 10
-121.743
 20
385.948
 11
-121.674
 21
386.163
  0
LINE
  8
0
 10
-121.674
 20
386.163
 11
-121.577
 21
386.367
  0
LINE
  8
0
 10
-121.577
 20
386.367
 11
-121.456
 21
386.558
  0
LINE
  8
0
 10
-121.456
 20
386.558
 11
-121.312
 21
386.732
  0
LINE
  8
0
 10
-121.312
 20
386.732
 11
-121.147
 21
386.887
  0
LINE
  8
0
 10
-121.147
 20
386.887
 11
-120.964
 21
387.02
  0
LINE
  8
0
 10
-120.964
 20
387.02
 11
-120.766
 21
387.129
  0
LINE
  8
0
 10
-120.766
 20
387.129
 11
-120.556
 21
387.212
  0
LINE
  8
0
 10
-120.556
 20
387.212
 11
-120.337
 21
387.268
  0
LINE
  8
0
 10
-120.337
 20
387.268
 11
-120.113
 21
387.296
  0
LINE
  8
0
 10
-120.113
 20
387.296
 11
-119.887
 21
387.296
  0
LINE
  8
0
 10
-119.887
 20
387.296
 11
-119.663
 21
387.268
  0
LINE
  8
0
 10
-119.663
 20
387.268
 11
-119.444
 21
387.212
  0
LINE
  8
0
 10
-119.444
 20
387.212
 11
-119.234
 21
387.129
  0
LINE
  8
0
 10
-119.234
 20
387.129
 11
-119.036
 21
387.02
  0
LINE
  8
0
 10
-119.036
 20
387.02
 11
-118.853
 21
386.887
  0
LINE
  8
0
 10
-118.853
 20
386.887
 11
-118.688
 21
386.732
  0
LINE
  8
0
 10
-118.688
 20
386.732
 11
-118.544
 21
386.558
  0
LINE
  8
0
 10
-118.544
 20
386.558
 11
-118.423
 21
386.367
  0
LINE
  8
0
 10
-118.423
 20
386.367
 11
-118.326
 21
386.163
  0
LINE
  8
0
 10
-118.326
 20
386.163
 11
-118.257
 21
385.948
  0
LINE
  8
0
 10
-118.257
 20
385.948
 11
-118.214
 21
385.726
  0
LINE
  8
0
 10
-118.214
 20
385.726
 11
-118.2
 21
385.5
  0
LINE
  8
0
 10
-118.2
 20
385.5
 11
-118.214
 21
385.274
  0
LINE
  8
0
 10
-118.214
 20
385.274
 11
-118.257
 21
385.052
  0
LINE
  8
0
 10
-118.257
 20
385.052
 11
-118.326
 21
384.837
  0
LINE
  8
0
 10
-118.326
 20
384.837
 11
-118.423
 21
384.633
  0
LINE
  8
0
 10
-118.423
 20
384.633
 11
-118.544
 21
384.442
  0
LINE
  8
0
 10
-118.544
 20
384.442
 11
-118.688
 21
384.268
  0
LINE
  8
0
 10
-118.688
 20
384.268
 11
-118.853
 21
384.113
  0
LINE
  8
0
 10
-118.853
 20
384.113
 11
-119.036
 21
383.98
  0
LINE
  8
0
 10
-119.036
 20
383.98
 11
-119.234
 21
383.871
  0
LINE
  8
0
 10
-119.234
 20
383.871
 11
-119.444
 21
383.788
  0
LINE
  8
0
 10
-119.444
 20
383.788
 11
-119.663
 21
383.732
  0
LINE
  8
0
 10
-119.663
 20
383.732
 11
-119.887
 21
383.704
  0
LINE
  8
0
 10
-119.887
 20
383.704
 11
-120.113
 21
383.704
  0
ENDSEC
  0
SECTION
  2
OBJECTS
  0
DICTIONARY
  0
ENDSEC
  0
EOF
