<?xml version="1.0" standalone="no"?>
<!DOCTYPE svg PUBLIC "-//W3C//DTD SVG 1.1//EN" "http://www.w3.org/Graphics/SVG/1.1/DTD/svg11.dtd">
<svg width="256mm" height="232mm" viewBox="-128 -464 256 232" xmlns="http://www.w3.org/2000/svg" version="1.1">
<title>OpenSCAD Model</title>
<path d="
M 123.437,-448.589 L 124.045,-448.745 L 124.629,-448.976 L 125.179,-449.278 L 125.687,-449.647 L 126.145,-450.077
 L 126.545,-450.561 L 126.882,-451.091 L 127.149,-451.659 L 127.343,-452.257 L 127.461,-452.873 L 127.5,-453.5
 L 127.5,-458.5 L 127.461,-459.127 L 127.343,-459.743 L 127.149,-460.341 L 126.882,-460.909 L 126.545,-461.439
 L 126.145,-461.923 L 125.687,-462.353 L 125.179,-462.722 L 124.629,-463.024 L 124.045,-463.255 L 123.437,-463.411
 L 122.814,-463.49 L -122.814,-463.49 L -123.437,-463.411 L -124.045,-463.255 L -124.629,-463.024 L -125.179,-462.722
 L -125.687,-462.353 L -126.145,-461.923 L -126.545,-461.439 L -126.882,-460.909 L -127.149,-460.341 L -127.343,-459.743
 L -127.461,-459.127 L -127.5,-458.5 L -127.5,-453.5 L -127.461,-452.873 L -127.343,-452.257 L -127.149,-451.659
 L -126.882,-451.091 L -126.545,-450.561 L -126.145,-450.077 L -125.687,-449.647 L -125.179,-449.278 L -124.629,-448.976
 L -124.045,-448.745 L -123.437,-448.589 L -122.814,-448.51 L 122.814,-448.51 z
M -122.548,-449.009 L -123.14,-449.084 L -123.718,-449.232 L -124.272,-449.452 L -124.795,-449.739 L -125.278,-450.09
 L -125.713,-450.498 L -126.093,-450.958 L -126.412,-451.462 L -126.666,-452.001 L -126.851,-452.569 L -126.963,-453.155
 L -127,-453.75 L -127,-458.25 L -126.963,-458.845 L -126.851,-459.431 L -126.666,-459.999 L -126.412,-460.538
 L -126.093,-461.042 L -125.713,-461.502 L -125.278,-461.91 L -124.795,-462.261 L -124.272,-462.548 L -123.718,-462.768
 L -123.14,-462.916 L -122.548,-462.991 L 122.548,-462.991 L 123.14,-462.916 L 123.718,-462.768 L 124.272,-462.548
 L 124.795,-462.261 L 125.278,-461.91 L 125.713,-461.502 L 126.093,-461.042 L 126.412,-460.538 L 126.666,-459.999
 L 126.851,-459.431 L 126.963,-458.845 L 127,-458.25 L 127,-453.75 L 126.963,-453.155 L 126.851,-452.569
 L 126.666,-452.001 L 126.412,-451.462 L 126.093,-450.958 L 125.713,-450.498 L 125.278,-450.09 L 124.795,-449.739
 L 124.272,-449.452 L 123.718,-449.232 L 123.14,-449.084 L 122.548,-449.009 z
M 123.437,-424.589 L 124.045,-424.745 L 124.629,-424.976 L 125.179,-425.278 L 125.687,-425.647 L 126.145,-426.077
 L 126.545,-426.561 L 126.882,-427.091 L 127.149,-427.659 L 127.343,-428.257 L 127.461,-428.873 L 127.5,-429.5
 L 127.5,-434.5 L 127.461,-435.127 L 127.343,-435.743 L 127.149,-436.341 L 126.882,-436.909 L 126.545,-437.439
 L 126.145,-437.923 L 125.687,-438.353 L 125.179,-438.722 L 124.629,-439.024 L 124.045,-439.255 L 123.437,-439.411
 L 122.814,-439.49 L -122.814,-439.49 L -123.437,-439.411 L -124.045,-439.255 L -124.629,-439.024 L -125.179,-438.722
 L -125.687,-438.353 L -126.145,-437.923 L -126.545,-437.439 L -126.882,-436.909 L -127.149,-436.341 L -127.343,-435.743
 L -127.461,-435.127 L -127.5,-434.5 L -127.5,-429.5 L -127.461,-428.873 L -127.343,-428.257 L -127.149,-427.659
 L -126.882,-427.091 L -126.545,-426.561 L -126.145,-426.077 L -125.687,-425.647 L -125.179,-425.278 L -124.629,-424.976
 L -124.045,-424.745 L -123.437,-424.589 L -122.814,-424.51 L 122.814,-424.51 z
M -122.548,-425.009 L -123.14,-425.084 L -123.718,-425.232 L -124.272,-425.452 L -124.795,-425.739 L -125.278,-426.09
 L -125.713,-426.498 L -126.093,-426.958 L -126.412,-427.462 L -126.666,-428.001 L -126.851,-428.569 L -126.963,-429.155
 L -127,-429.75 L -127,-434.25 L -126.963,-434.845 L -126.851,-435.431 L -126.666,-435.999 L -126.412,-436.538
 L -126.093,-437.042 L -125.713,-437.502 L -125.278,-437.91 L -124.795,-438.261 L -124.272,-438.548 L -123.718,-438.768
 L -123.14,-438.916 L -122.548,-438.991 L 122.548,-438.991 L 123.14,-438.916 L 123.718,-438.768 L 124.272,-438.548
 L 124.795,-438.261 L 125.278,-437.91 L 125.713,-437.502 L 126.093,-437.042 L 126.412,-436.538 L 126.666,-435.999
 L 126.851,-435.431 L 126.963,-434.845 L 127,-434.25 L 127,-429.75 L 126.963,-429.155 L 126.851,-428.569
 L 126.666,-428.001 L 126.412,-427.462 L 126.093,-426.958 L 125.713,-426.498 L 125.278,-426.09 L 124.795,-425.739
 L 124.272,-425.452 L 123.718,-425.232 L 123.14,-425.084 L 122.548,-425.009 z
M 123.437,-400.589 L 124.045,-400.745 L 124.629,-400.976 L 125.179,-401.278 L 125.687,-401.647 L 126.145,-402.077
 L 126.545,-402.561 L 126.882,-403.091 L 127.149,-403.659 L 127.343,-404.257 L 127.461,-404.873 L 127.5,-405.5
 L 127.5,-410.5 L 127.461,-411.127 L 127.343,-411.743 L 127.149,-412.341 L 126.882,-412.909 L 126.545,-413.439
 L 126.145,-413.923 L 125.687,-414.353 L 125.179,-414.722 L 124.629,-415.024 L 124.045,-415.255 L 123.437,-415.411
 L 122.814,-415.49 L -122.814,-415.49 L -123.437,-415.411 L -124.045,-415.255 L -124.629,-415.024 L -125.179,-414.722
 L -125.687,-414.353 L -126.145,-413.923 L -126.545,-413.439 L -126.882,-412.909 L -127.149,-412.341 L -127.343,-411.743
 L -127.461,-411.127 L -127.5,-410.5 L -127.5,-405.5 L -127.461,-404.873 L -127.343,-404.257 L -127.149,-403.659
 L -126.882,-403.091 L -126.545,-402.561 L -126.145,-402.077 L -125.687,-401.647 L -125.179,-401.278 L -124.629,-400.976
 L -124.045,-400.745 L -123.437,-400.589 L -122.814,-400.51 L 122.814,-400.51 z
M -122.548,-401.009 L -123.14,-401.084 L -123.718,-401.232 L -124.272,-401.452 L -124.795,-401.739 L -125.278,-402.09
 L -125.713,-402.498 L -126.093,-402.958 L -126.412,-403.462 L -126.666,-404.001 L -126.851,-404.569 L -126.963,-405.155
 L -127,-405.75 L -127,-410.25 L -126.963,-410.845 L -126.851,-411.431 L -126.666,-411.999 L -126.412,-412.538
 L -126.093,-413.042 L -125.713,-413.502 L -125.278,-413.91 L -124.795,-414.261 L -124.272,-414.548 L -123.718,-414.768
 L -123.14,-414.916 L -122.548,-414.991 L 122.548,-414.991 L 123.14,-414.916 L 123.718,-414.768 L 124.272,-414.548
 L 124.795,-414.261 L 125.278,-413.91 L 125.713,-413.502 L 126.093,-413.042 L 126.412,-412.538 L 126.666,-411.999
 L 126.851,-411.431 L 126.963,-410.845 L 127,-410.25 L 127,-405.75 L 126.963,-405.155 L 126.851,-404.569
 L 126.666,-404.001 L 126.412,-403.462 L 126.093,-402.958 L 125.713,-402.498 L 125.278,-402.09 L 124.795,-401.739
 L 124.272,-401.452 L 123.718,-401.232 L 123.14,-401.084 L 122.548,-401.009 z
M 123.437,-376.589 L 124.045,-376.745 L 124.629,-376.976 L 125.179,-377.278 L 125.687,-377.647 L 126.145,-378.077
 L 126.545,-378.561 L 126.882,-379.091 L 127.149,-379.659 L 127.343,-380.257 L 127.461,-380.873 L 127.5,-381.5
 L 127.5,-386.5 L 127.461,-387.127 L 127.343,-387.743 L 127.149,-388.341 L 126.882,-388.909 L 126.545,-389.439
 L 126.145,-389.923 L 125.687,-390.353 L 125.179,-390.722 L 124.629,-391.024 L 124.045,-391.255 L 123.437,-391.411
 L 122.814,-391.49 L -122.814,-391.49 L -123.437,-391.411 L -124.045,-391.255 L -124.629,-391.024 L -125.179,-390.722
 L -125.687,-390.353 L -126.145,-389.923 L -126.545,-389.439 L -126.882,-388.909 L -127.149,-388.341 L -127.343,-387.743
 L -127.461,-387.127 L -127.5,-386.5 L -127.5,-381.5 L -127.461,-380.873 L -127.343,-380.257 L -127.149,-379.659
 L -126.882,-379.091 L -126.545,-378.561 L -126.145,-378.077 L -125.687,-377.647 L -125.179,-377.278 L -124.629,-376.976
 L -124.045,-376.745 L -123.437,-376.589 L -122.814,-376.51 L 122.814,-376.51 z
M -122.548,-377.009 L -123.14,-377.084 L -123.718,-377.232 L -124.272,-377.452 L -124.795,-377.739 L -125.278,-378.09
 L -125.713,-378.498 L -126.093,-378.958 L -126.412,-379.462 L -126.666,-380.001 L -126.851,-380.569 L -126.963,-381.155
 L -127,-381.75 L -127,-386.25 L -126.963,-386.845 L -126.851,-387.431 L -126.666,-387.999 L -126.412,-388.538
 L -126.093,-389.042 L -125.713,-389.502 L -125.278,-389.91 L -124.795,-390.261 L -124.272,-390.548 L -123.718,-390.768
 L -123.14,-390.916 L -122.548,-390.991 L 122.548,-390.991 L 123.14,-390.916 L 123.718,-390.768 L 124.272,-390.548
 L 124.795,-390.261 L 125.278,-389.91 L 125.713,-389.502 L 126.093,-389.042 L 126.412,-388.538 L 126.666,-387.999
 L 126.851,-387.431 L 126.963,-386.845 L 127,-386.25 L 127,-381.75 L 126.963,-381.155 L 126.851,-380.569
 L 126.666,-380.001 L 126.412,-379.462 L 126.093,-378.958 L 125.713,-378.498 L 125.278,-378.09 L 124.795,-377.739
 L 124.272,-377.452 L 123.718,-377.232 L 123.14,-377.084 L 122.548,-377.009 z
M 123.437,-352.589 L 124.045,-352.745 L 124.629,-352.976 L 125.179,-353.278 L 125.687,-353.647 L 126.145,-354.077
 L 126.545,-354.561 L 126.882,-355.091 L 127.149,-355.659 L 127.343,-356.257 L 127.461,-356.873 L 127.5,-357.5
 L 127.5,-362.5 L 127.461,-363.127 L 127.343,-363.743 L 127.149,-364.341 L 126.882,-364.909 L 126.545,-365.439
 L 126.145,-365.923 L 125.687,-366.353 L 125.179,-366.722 L 124.629,-367.024 L 124.045,-367.255 L 123.437,-367.411
 L 122.814,-367.49 L -122.814,-367.49 L -123.437,-367.411 L -124.045,-367.255 L -124.629,-367.024 L -125.179,-366.722
 L -125.687,-366.353 L -126.145,-365.923 L -126.545,-365.439 L -126.882,-364.909 L -127.149,-364.341 L -127.343,-363.743
 L -127.461,-363.127 L -127.5,-362.5 L -127.5,-357.5 L -127.461,-356.873 L -127.343,-356.257 L -127.149,-355.659
 L -126.882,-355.091 L -126.545,-354.561 L -126.145,-354.077 L -125.687,-353.647 L -125.179,-353.278 L -124.629,-352.976
 L -124.045,-352.745 L -123.437,-352.589 L -122.814,-352.51 L 122.814,-352.51 z
M -122.548,-353.009 L -123.14,-353.084 L -123.718,-353.232 L -124.272,-353.452 L -124.795,-353.739 L -125.278,-354.09
 L -125.713,-354.498 L -126.093,-354.958 L -126.412,-355.462 L -126.666,-356.001 L -126.851,-356.569 L -126.963,-357.155
 L -127,-357.75 L -127,-362.25 L -126.963,-362.845 L -126.851,-363.431 L -126.666,-363.999 L -126.412,-364.538
 L -126.093,-365.042 L -125.713,-365.502 L -125.278,-365.91 L -124.795,-366.261 L -124.272,-366.548 L -123.718,-366.768
 L -123.14,-366.916 L -122.548,-366.991 L 122.548,-366.991 L 123.14,-366.916 L 123.718,-366.768 L 124.272,-366.548
 L 124.795,-366.261 L 125.278,-365.91 L 125.713,-365.502 L 126.093,-365.042 L 126.412,-364.538 L 126.666,-363.999
 L 126.851,-363.431 L 126.963,-362.845 L 127,-362.25 L 127,-357.75 L 126.963,-357.155 L 126.851,-356.569
 L 126.666,-356.001 L 126.412,-355.462 L 126.093,-354.958 L 125.713,-354.498 L 125.278,-354.09 L 124.795,-353.739
 L 124.272,-353.452 L 123.718,-353.232 L 123.14,-353.084 L 122.548,-353.009 z
M 123.437,-328.589 L 124.045,-328.745 L 124.629,-328.976 L 125.179,-329.278 L 125.687,-329.647 L 126.145,-330.077
 L 126.545,-330.561 L 126.882,-331.091 L 127.149,-331.659 L 127.343,-332.257 L 127.461,-332.873 L 127.5,-333.5
 L 127.5,-338.5 L 127.461,-339.127 L 127.343,-339.743 L 127.149,-340.341 L 126.882,-340.909 L 126.545,-341.439
 L 126.145,-341.923 L 125.687,-342.353 L 125.179,-342.722 L 124.629,-343.024 L 124.045,-343.255 L 123.437,-343.411
 L 122.814,-343.49 L -122.814,-343.49 L -123.437,-343.411 L -124.045,-343.255 L -124.629,-343.024 L -125.179,-342.722
 L -125.687,-342.353 L -126.145,-341.923 L -126.545,-341.439 L -126.882,-340.909 L -127.149,-340.341 L -127.343,-339.743
 L -127.461,-339.127 L -127.5,-338.5 L -127.5,-333.5 L -127.461,-332.873 L -127.343,-332.257 L -127.149,-331.659
 L -126.882,-331.091 L -126.545,-330.561 L -126.145,-330.077 L -125.687,-329.647 L -125.179,-329.278 L -124.629,-328.976
 L -124.045,-328.745 L -123.437,-328.589 L -122.814,-328.51 L 122.814,-328.51 z
M -122.548,-329.009 L -123.14,-329.084 L -123.718,-329.232 L -124.272,-329.452 L -124.795,-329.739 L -125.278,-330.09
 L -125.713,-330.498 L -126.093,-330.958 L -126.412,-331.462 L -126.666,-332.001 L -126.851,-332.569 L -126.963,-333.155
 L -127,-333.75 L -127,-338.25 L -126.963,-338.845 L -126.851,-339.431 L -126.666,-339.999 L -126.412,-340.538
 L -126.093,-341.042 L -125.713,-341.502 L -125.278,-341.91 L -124.795,-342.261 L -124.272,-342.548 L -123.718,-342.768
 L -123.14,-342.916 L -122.548,-342.991 L 122.548,-342.991 L 123.14,-342.916 L 123.718,-342.768 L 124.272,-342.548
 L 124.795,-342.261 L 125.278,-341.91 L 125.713,-341.502 L 126.093,-341.042 L 126.412,-340.538 L 126.666,-339.999
 L 126.851,-339.431 L 126.963,-338.845 L 127,-338.25 L 127,-333.75 L 126.963,-333.155 L 126.851,-332.569
 L 126.666,-332.001 L 126.412,-331.462 L 126.093,-330.958 L 125.713,-330.498 L 125.278,-330.09 L 124.795,-329.739
 L 124.272,-329.452 L 123.718,-329.232 L 123.14,-329.084 L 122.548,-329.009 z
M 123.437,-304.589 L 124.045,-304.745 L 124.629,-304.976 L 125.179,-305.278 L 125.687,-305.647 L 126.145,-306.077
 L 126.545,-306.561 L 126.882,-307.091 L 127.149,-307.659 L 127.343,-308.257 L 127.461,-308.873 L 127.5,-309.5
 L 127.5,-314.5 L 127.461,-315.127 L 127.343,-315.743 L 127.149,-316.341 L 126.882,-316.909 L 126.545,-317.439
 L 126.145,-317.923 L 125.687,-318.353 L 125.179,-318.722 L 124.629,-319.024 L 124.045,-319.255 L 123.437,-319.411
 L 122.814,-319.49 L -122.814,-319.49 L -123.437,-319.411 L -124.045,-319.255 L -124.629,-319.024 L -125.179,-318.722
 L -125.687,-318.353 L -126.145,-317.923 L -126.545,-317.439 L -126.882,-316.909 L -127.149,-316.341 L -127.343,-315.743
 L -127.461,-315.127 L -127.5,-314.5 L -127.5,-309.5 L -127.461,-308.873 L -127.343,-308.257 L -127.149,-307.659
 L -126.882,-307.091 L -126.545,-306.561 L -126.145,-306.077 L -125.687,-305.647 L -125.179,-305.278 L -124.629,-304.976
 L -124.045,-304.745 L -123.437,-304.589 L -122.814,-304.51 L 122.814,-304.51 z
M -122.548,-305.009 L -123.14,-305.084 L -123.718,-305.232 L -124.272,-305.452 L -124.795,-305.739 L -125.278,-306.09
 L -125.713,-306.498 L -126.093,-306.958 L -126.412,-307.462 L -126.666,-308.001 L -126.851,-308.569 L -126.963,-309.155
 L -127,-309.75 L -127,-314.25 L -126.963,-314.845 L -126.851,-315.431 L -126.666,-315.999 L -126.412,-316.538
 L -126.093,-317.042 L -125.713,-317.502 L -125.278,-317.91 L -124.795,-318.261 L -124.272,-318.548 L -123.718,-318.768
 L -123.14,-318.916 L -122.548,-318.991 L 122.548,-318.991 L 123.14,-318.916 L 123.718,-318.768 L 124.272,-318.548
 L 124.795,-318.261 L 125.278,-317.91 L 125.713,-317.502 L 126.093,-317.042 L 126.412,-316.538 L 126.666,-315.999
 L 126.851,-315.431 L 126.963,-314.845 L 127,-314.25 L 127,-309.75 L 126.963,-309.155 L 126.851,-308.569
 L 126.666,-308.001 L 126.412,-307.462 L 126.093,-306.958 L 125.713,-306.498 L 125.278,-306.09 L 124.795,-305.739
 L 124.272,-305.452 L 123.718,-305.232 L 123.14,-305.084 L 122.548,-305.009 z
M 123.437,-280.589 L 124.045,-280.745 L 124.629,-280.976 L 125.179,-281.278 L 125.687,-281.647 L 126.145,-282.077
 L 126.545,-282.561 L 126.882,-283.091 L 127.149,-283.659 L 127.343,-284.257 L 127.461,-284.873 L 127.5,-285.5
 L 127.5,-290.5 L 127.461,-291.127 L 127.343,-291.743 L 127.149,-292.341 L 126.882,-292.909 L 126.545,-293.439
 L 126.145,-293.923 L 125.687,-294.353 L 125.179,-294.722 L 124.629,-295.024 L 124.045,-295.255 L 123.437,-295.411
 L 122.814,-295.49 L -122.814,-295.49 L -123.437,-295.411 L -124.045,-295.255 L -124.629,-295.024 L -125.179,-294.722
 L -125.687,-294.353 L -126.145,-293.923 L -126.545,-293.439 L -126.882,-292.909 L -127.149,-292.341 L -127.343,-291.743
 L -127.461,-291.127 L -127.5,-290.5 L -127.5,-285.5 L -127.461,-284.873 L -127.343,-284.257 L -127.149,-283.659
 L -126.882,-283.091 L -126.545,-282.561 L -126.145,-282.077 L -125.687,-281.647 L -125.179,-281.278 L -124.629,-280.976
 L -124.045,-280.745 L -123.437,-280.589 L -122.814,-280.51 L 122.814,-280.51 z
M -122.548,-281.009 L -123.14,-281.084 L -123.718,-281.232 L -124.272,-281.452 L -124.795,-281.739 L -125.278,-282.09
 L -125.713,-282.498 L -126.093,-282.958 L -126.412,-283.462 L -126.666,-284.001 L -126.851,-284.569 L -126.963,-285.155
 L -127,-285.75 L -127,-290.25 L -126.963,-290.845 L -126.851,-291.431 L -126.666,-291.999 L -126.412,-292.538
 L -126.093,-293.042 L -125.713,-293.502 L -125.278,-293.91 L -124.795,-294.261 L -124.272,-294.548 L -123.718,-294.768
 L -123.14,-294.916 L -122.548,-294.991 L 122.548,-294.991 L 123.14,-294.916 L 123.718,-294.768 L 124.272,-294.548
 L 124.795,-294.261 L 125.278,-293.91 L 125.713,-293.502 L 126.093,-293.042 L 126.412,-292.538 L 126.666,-291.999
 L 126.851,-291.431 L 126.963,-290.845 L 127,-290.25 L 127,-285.75 L 126.963,-285.155 L 126.851,-284.569
 L 126.666,-284.001 L 126.412,-283.462 L 126.093,-282.958 L 125.713,-282.498 L 125.278,-282.09 L 124.795,-281.739
 L 124.272,-281.452 L 123.718,-281.232 L 123.14,-281.084 L 122.548,-281.009 z
M 123.437,-256.589 L 124.045,-256.745 L 124.629,-256.976 L 125.179,-257.278 L 125.687,-257.647 L 126.145,-258.077
 L 126.545,-258.561 L 126.882,-259.091 L 127.149,-259.659 L 127.343,-260.257 L 127.461,-260.873 L 127.5,-261.5
 L 127.5,-266.5 L 127.461,-267.127 L 127.343,-267.743 L 127.149,-268.341 L 126.882,-268.909 L 126.545,-269.439
 L 126.145,-269.923 L 125.687,-270.353 L 125.179,-270.722 L 124.629,-271.024 L 124.045,-271.255 L 123.437,-271.411
 L 122.814,-271.49 L -122.814,-271.49 L -123.437,-271.411 L -124.045,-271.255 L -124.629,-271.024 L -125.179,-270.722
 L -125.687,-270.353 L -126.145,-269.923 L -126.545,-269.439 L -126.882,-268.909 L -127.149,-268.341 L -127.343,-267.743
 L -127.461,-267.127 L -127.5,-266.5 L -127.5,-261.5 L -127.461,-260.873 L -127.343,-260.257 L -127.149,-259.659
 L -126.882,-259.091 L -126.545,-258.561 L -126.145,-258.077 L -125.687,-257.647 L -125.179,-257.278 L -124.629,-256.976
 L -124.045,-256.745 L -123.437,-256.589 L -122.814,-256.51 L 122.814,-256.51 z
M -122.537,-257.181 L -123.108,-257.253 L -123.665,-257.396 L -124.199,-257.607 L -124.703,-257.884 L -125.168,-258.222
 L -125.588,-258.616 L -125.954,-259.059 L -126.262,-259.544 L -126.507,-260.065 L -126.685,-260.611 L -126.792,-261.176
 L -126.828,-261.75 L -126.828,-266.25 L -126.792,-266.824 L -126.685,-267.389 L -126.507,-267.935 L -126.262,-268.456
 L -125.954,-268.941 L -125.588,-269.384 L -125.168,-269.778 L -124.703,-270.116 L -124.199,-270.393 L -123.665,-270.604
 L -123.108,-270.747 L -122.537,-270.819 L 122.537,-270.819 L 123.108,-270.747 L 123.665,-270.604 L 124.199,-270.393
 L 124.703,-270.116 L 125.168,-269.778 L 125.588,-269.384 L 125.954,-268.941 L 126.262,-268.456 L 126.507,-267.935
 L 126.685,-267.389 L 126.792,-266.824 L 126.828,-266.25 L 126.828,-261.75 L 126.792,-261.176 L 126.685,-260.611
 L 126.507,-260.065 L 126.262,-259.544 L 125.954,-259.059 L 125.588,-258.616 L 125.168,-258.222 L 124.703,-257.884
 L 124.199,-257.607 L 123.665,-257.396 L 123.108,-257.253 L 122.537,-257.181 z
M 123.437,-232.589 L 124.045,-232.745 L 124.629,-232.976 L 125.179,-233.278 L 125.687,-233.647 L 126.145,-234.077
 L 126.545,-234.561 L 126.882,-235.091 L 127.149,-235.659 L 127.343,-236.257 L 127.461,-236.873 L 127.5,-237.5
 L 127.5,-242.5 L 127.461,-243.127 L 127.343,-243.743 L 127.149,-244.341 L 126.882,-244.909 L 126.545,-245.439
 L 126.145,-245.923 L 125.687,-246.353 L 125.179,-246.722 L 124.629,-247.024 L 124.045,-247.255 L 123.437,-247.411
 L 122.814,-247.49 L -122.814,-247.49 L -123.437,-247.411 L -124.045,-247.255 L -124.629,-247.024 L -125.179,-246.722
 L -125.687,-246.353 L -126.145,-245.923 L -126.545,-245.439 L -126.882,-244.909 L -127.149,-244.341 L -127.343,-243.743
 L -127.461,-243.127 L -127.5,-242.5 L -127.5,-237.5 L -127.461,-236.873 L -127.343,-236.257 L -127.149,-235.659
 L -126.882,-235.091 L -126.545,-234.561 L -126.145,-234.077 L -125.687,-233.647 L -125.179,-233.278 L -124.629,-232.976
 L -124.045,-232.745 L -123.437,-232.589 L -122.814,-232.51 L 122.814,-232.51 z
M -122.382,-235.645 L -122.645,-235.678 L -122.902,-235.744 L -123.148,-235.841 L -123.38,-235.969 L -123.595,-236.125
 L -123.788,-236.306 L -123.957,-236.51 L -124.099,-236.734 L -124.211,-236.973 L -124.293,-237.225 L -124.343,-237.486
 L -124.36,-237.75 L -124.36,-242.25 L -124.343,-242.514 L -124.293,-242.775 L -124.211,-243.027 L -124.099,-243.266
 L -123.957,-243.49 L -123.788,-243.694 L -123.595,-243.875 L -123.38,-244.031 L -123.148,-244.159 L -122.902,-244.256
 L -122.645,-244.322 L -122.382,-244.355 L 122.382,-244.355 L 122.645,-244.322 L 122.902,-244.256 L 123.148,-244.159
 L 123.38,-244.031 L 123.595,-243.875 L 123.788,-243.694 L 123.957,-243.49 L 124.099,-243.266 L 124.211,-243.027
 L 124.293,-242.775 L 124.343,-242.514 L 124.36,-242.25 L 124.36,-237.75 L 124.343,-237.486 L 124.293,-237.225
 L 124.211,-236.973 L 124.099,-236.734 L 123.957,-236.51 L 123.788,-236.306 L 123.595,-236.125 L 123.38,-235.969
 L 123.148,-235.841 L 122.902,-235.744 L 122.645,-235.678 L 122.382,-235.645 z
" stroke="black" fill="lightgray" stroke-width="0.5"/>
</svg>
