<?xml version="1.0" standalone="no"?>
<!DOCTYPE svg PUBLIC "-//W3C//DTD SVG 1.1//EN" "http://www.w3.org/Graphics/SVG/1.1/DTD/svg11.dtd">
<svg width="240mm" height="88mm" viewBox="-120 -152 240 88" xmlns="http://www.w3.org/2000/svg" version="1.1">
<title>OpenSCAD Model</title>
<path d="
M 115.937,-136.589 L 116.545,-136.745 L 117.129,-136.976 L 117.679,-137.278 L 118.187,-137.647 L 118.645,-138.077
 L 119.045,-138.561 L 119.382,-139.091 L 119.649,-139.659 L 119.843,-140.257 L 119.961,-140.873 L 120,-141.5
 L 120,-146.5 L 119.961,-147.127 L 119.843,-147.743 L 119.649,-148.341 L 119.382,-148.909 L 119.045,-149.439
 L 118.645,-149.923 L 118.187,-150.353 L 117.679,-150.722 L 117.129,-151.024 L 116.545,-151.255 L 115.937,-151.411
 L 115.314,-151.49 L -115.314,-151.49 L -115.937,-151.411 L -116.545,-151.255 L -117.129,-151.024 L -117.679,-150.722
 L -118.187,-150.353 L -118.645,-149.923 L -119.045,-149.439 L -119.382,-148.909 L -119.649,-148.341 L -119.843,-147.743
 L -119.961,-147.127 L -120,-146.5 L -120,-141.5 L -119.961,-140.873 L -119.843,-140.257 L -119.649,-139.659
 L -119.382,-139.091 L -119.045,-138.561 L -118.645,-138.077 L -118.187,-137.647 L -117.679,-137.278 L -117.129,-136.976
 L -116.545,-136.745 L -115.937,-136.589 L -115.314,-136.51 L 115.314,-136.51 z
M -115.048,-137.009 L -115.64,-137.084 L -116.218,-137.232 L -116.772,-137.452 L -117.295,-137.739 L -117.778,-138.09
 L -118.213,-138.498 L -118.593,-138.958 L -118.912,-139.462 L -119.166,-140.001 L -119.351,-140.569 L -119.463,-141.155
 L -119.5,-141.75 L -119.5,-146.25 L -119.463,-146.845 L -119.351,-147.431 L -119.166,-147.999 L -118.912,-148.538
 L -118.593,-149.042 L -118.213,-149.502 L -117.778,-149.91 L -117.295,-150.261 L -116.772,-150.548 L -116.218,-150.768
 L -115.64,-150.916 L -115.048,-150.991 L 115.048,-150.991 L 115.64,-150.916 L 116.218,-150.768 L 116.772,-150.548
 L 117.295,-150.261 L 117.778,-149.91 L 118.213,-149.502 L 118.593,-149.042 L 118.912,-148.538 L 119.166,-147.999
 L 119.351,-147.431 L 119.463,-146.845 L 119.5,-146.25 L 119.5,-141.75 L 119.463,-141.155 L 119.351,-140.569
 L 119.166,-140.001 L 118.912,-139.462 L 118.593,-138.958 L 118.213,-138.498 L 117.778,-138.09 L 117.295,-137.739
 L 116.772,-137.452 L 116.218,-137.232 L 115.64,-137.084 L 115.048,-137.009 z
M 115.937,-112.589 L 116.545,-112.745 L 117.129,-112.976 L 117.679,-113.278 L 118.187,-113.647 L 118.645,-114.077
 L 119.045,-114.561 L 119.382,-115.091 L 119.649,-115.659 L 119.843,-116.257 L 119.961,-116.873 L 120,-117.5
 L 120,-122.5 L 119.961,-123.127 L 119.843,-123.743 L 119.649,-124.341 L 119.382,-124.909 L 119.045,-125.439
 L 118.645,-125.923 L 118.187,-126.353 L 117.679,-126.722 L 117.129,-127.024 L 116.545,-127.255 L 115.937,-127.411
 L 115.314,-127.49 L -115.314,-127.49 L -115.937,-127.411 L -116.545,-127.255 L -117.129,-127.024 L -117.679,-126.722
 L -118.187,-126.353 L -118.645,-125.923 L -119.045,-125.439 L -119.382,-124.909 L -119.649,-124.341 L -119.843,-123.743
 L -119.961,-123.127 L -120,-122.5 L -120,-117.5 L -119.961,-116.873 L -119.843,-116.257 L -119.649,-115.659
 L -119.382,-115.091 L -119.045,-114.561 L -118.645,-114.077 L -118.187,-113.647 L -117.679,-113.278 L -117.129,-112.976
 L -116.545,-112.745 L -115.937,-112.589 L -115.314,-112.51 L 115.314,-112.51 z
M -115.048,-113.009 L -115.64,-113.084 L -116.218,-113.232 L -116.772,-113.452 L -117.295,-113.739 L -117.778,-114.09
 L -118.213,-114.498 L -118.593,-114.958 L -118.912,-115.462 L -119.166,-116.001 L -119.351,-116.569 L -119.463,-117.155
 L -119.5,-117.75 L -119.5,-122.25 L -119.463,-122.845 L -119.351,-123.431 L -119.166,-123.999 L -118.912,-124.538
 L -118.593,-125.042 L -118.213,-125.502 L -117.778,-125.91 L -117.295,-126.261 L -116.772,-126.548 L -116.218,-126.768
 L -115.64,-126.916 L -115.048,-126.991 L 115.048,-126.991 L 115.64,-126.916 L 116.218,-126.768 L 116.772,-126.548
 L 117.295,-126.261 L 117.778,-125.91 L 118.213,-125.502 L 118.593,-125.042 L 118.912,-124.538 L 119.166,-123.999
 L 119.351,-123.431 L 119.463,-122.845 L 119.5,-122.25 L 119.5,-117.75 L 119.463,-117.155 L 119.351,-116.569
 L 119.166,-116.001 L 118.912,-115.462 L 118.593,-114.958 L 118.213,-114.498 L 117.778,-114.09 L 117.295,-113.739
 L 116.772,-113.452 L 116.218,-113.232 L 115.64,-113.084 L 115.048,-113.009 z
M 115.937,-88.5886 L 116.545,-88.7447 L 117.129,-88.9759 L 117.679,-89.2784 L 118.187,-89.6474 L 118.645,-90.0773
 L 119.045,-90.5611 L 119.382,-91.0912 L 119.649,-91.6594 L 119.843,-92.2566 L 119.961,-92.8733 L 120,-93.5
 L 120,-98.5 L 119.961,-99.1267 L 119.843,-99.7434 L 119.649,-100.341 L 119.382,-100.909 L 119.045,-101.439
 L 118.645,-101.923 L 118.187,-102.353 L 117.679,-102.722 L 117.129,-103.024 L 116.545,-103.255 L 115.937,-103.411
 L 115.314,-103.49 L -115.314,-103.49 L -115.937,-103.411 L -116.545,-103.255 L -117.129,-103.024 L -117.679,-102.722
 L -118.187,-102.353 L -118.645,-101.923 L -119.045,-101.439 L -119.382,-100.909 L -119.649,-100.341 L -119.843,-99.7434
 L -119.961,-99.1267 L -120,-98.5 L -120,-93.5 L -119.961,-92.8733 L -119.843,-92.2566 L -119.649,-91.6594
 L -119.382,-91.0912 L -119.045,-90.5611 L -118.645,-90.0773 L -118.187,-89.6474 L -117.679,-89.2784 L -117.129,-88.9759
 L -116.545,-88.7447 L -115.937,-88.5886 L -115.314,-88.5099 L 115.314,-88.5099 z
M -114.993,-89.8882 L -115.475,-89.9491 L -115.946,-90.0699 L -116.398,-90.2488 L -116.823,-90.4829 L -117.216,-90.7685
 L -117.571,-91.1012 L -117.88,-91.4756 L -118.141,-91.8859 L -118.348,-92.3256 L -118.498,-92.7877 L -118.589,-93.265
 L -118.619,-93.75 L -118.619,-98.25 L -118.589,-98.735 L -118.498,-99.2123 L -118.348,-99.6744 L -118.141,-100.114
 L -117.88,-100.524 L -117.571,-100.899 L -117.216,-101.231 L -116.823,-101.517 L -116.398,-101.751 L -115.946,-101.93
 L -115.475,-102.051 L -114.993,-102.112 L 114.993,-102.112 L 115.475,-102.051 L 115.946,-101.93 L 116.398,-101.751
 L 116.823,-101.517 L 117.216,-101.231 L 117.571,-100.899 L 117.88,-100.524 L 118.141,-100.114 L 118.348,-99.6744
 L 118.498,-99.2123 L 118.589,-98.735 L 118.619,-98.25 L 118.619,-93.75 L 118.589,-93.265 L 118.498,-92.7877
 L 118.348,-92.3256 L 118.141,-91.8859 L 117.88,-91.4756 L 117.571,-91.1012 L 117.216,-90.7685 L 116.823,-90.4829
 L 116.398,-90.2488 L 115.946,-90.0699 L 115.475,-89.9491 L 114.993,-89.8882 z
M 115.937,-64.5886 L 116.545,-64.7447 L 117.129,-64.9759 L 117.679,-65.2784 L 118.187,-65.6474 L 118.645,-66.0773
 L 119.045,-66.5611 L 119.382,-67.0912 L 119.649,-67.6594 L 119.843,-68.2566 L 119.961,-68.8733 L 120,-69.5
 L 120,-74.5 L 119.961,-75.1267 L 119.843,-75.7434 L 119.649,-76.3406 L 119.382,-76.9088 L 119.045,-77.4389
 L 118.645,-77.9227 L 118.187,-78.3526 L 117.679,-78.7216 L 117.129,-79.0241 L 116.545,-79.2553 L 115.937,-79.4114
 L 115.314,-79.4901 L -115.314,-79.4901 L -115.937,-79.4114 L -116.545,-79.2553 L -117.129,-79.0241 L -117.679,-78.7216
 L -118.187,-78.3526 L -118.645,-77.9227 L -119.045,-77.4389 L -119.382,-76.9088 L -119.649,-76.3406 L -119.843,-75.7434
 L -119.961,-75.1267 L -120,-74.5 L -120,-69.5 L -119.961,-68.8733 L -119.843,-68.2566 L -119.649,-67.6594
 L -119.382,-67.0912 L -119.045,-66.5611 L -118.645,-66.0773 L -118.187,-65.6474 L -117.679,-65.2784 L -117.129,-64.9759
 L -116.545,-64.7447 L -115.937,-64.5886 L -115.314,-64.5099 L 115.314,-64.5099 z
M -112.613,-70.2036 L -112.837,-70.2319 L -113.056,-70.2881 L -113.266,-70.3713 L -113.464,-70.4802 L -113.647,-70.6131
 L -113.812,-70.7678 L -113.956,-70.942 L -114.077,-71.1329 L -114.174,-71.3374 L -114.243,-71.5524 L -114.286,-71.7744
 L -114.3,-72 L -114.286,-72.2256 L -114.243,-72.4476 L -114.174,-72.6626 L -114.077,-72.8671 L -113.956,-73.058
 L -113.812,-73.2322 L -113.647,-73.3869 L -113.464,-73.5198 L -113.266,-73.6287 L -113.056,-73.7119 L -112.837,-73.7681
 L -112.613,-73.7964 L -112.387,-73.7964 L -112.163,-73.7681 L -111.944,-73.7119 L -111.734,-73.6287 L -111.536,-73.5198
 L -111.353,-73.3869 L -111.188,-73.2322 L -111.044,-73.058 L -110.923,-72.8671 L -110.826,-72.6626 L -110.757,-72.4476
 L -110.714,-72.2256 L -110.7,-72 L -110.714,-71.7744 L -110.757,-71.5524 L -110.826,-71.3374 L -110.923,-71.1329
 L -111.044,-70.942 L -111.188,-70.7678 L -111.353,-70.6131 L -111.536,-70.4802 L -111.734,-70.3713 L -111.944,-70.2881
 L -112.163,-70.2319 L -112.387,-70.2036 z
M 112.387,-70.2036 L 112.163,-70.2319 L 111.944,-70.2881 L 111.734,-70.3713 L 111.536,-70.4802 L 111.353,-70.6131
 L 111.188,-70.7678 L 111.044,-70.942 L 110.923,-71.1329 L 110.826,-71.3374 L 110.757,-71.5524 L 110.714,-71.7744
 L 110.7,-72 L 110.714,-72.2256 L 110.757,-72.4476 L 110.826,-72.6626 L 110.923,-72.8671 L 111.044,-73.058
 L 111.188,-73.2322 L 111.353,-73.3869 L 111.536,-73.5198 L 111.734,-73.6287 L 111.944,-73.7119 L 112.163,-73.7681
 L 112.387,-73.7964 L 112.613,-73.7964 L 112.837,-73.7681 L 113.056,-73.7119 L 113.266,-73.6287 L 113.464,-73.5198
 L 113.647,-73.3869 L 113.812,-73.2322 L 113.956,-73.058 L 114.077,-72.8671 L 114.174,-72.6626 L 114.243,-72.4476
 L 114.286,-72.2256 L 114.3,-72 L 114.286,-71.7744 L 114.243,-71.5524 L 114.174,-71.3374 L 114.077,-71.1329
 L 113.956,-70.942 L 113.812,-70.7678 L 113.647,-70.6131 L 113.464,-70.4802 L 113.266,-70.3713 L 113.056,-70.2881
 L 112.837,-70.2319 L 112.613,-70.2036 z
" stroke="black" fill="lightgray" stroke-width="0.5"/>
</svg>
