<?xml version="1.0" standalone="no"?>
<!DOCTYPE svg PUBLIC "-//W3C//DTD SVG 1.1//EN" "http://www.w3.org/Graphics/SVG/1.1/DTD/svg11.dtd">
<svg width="272mm" height="747mm" viewBox="-137 -1413 272 747" xmlns="http://www.w3.org/2000/svg" version="1.1">
<title>OpenSCAD Model</title>
<path d="
M -133.5,-1234.44 L -133.187,-1234.15 L -132.679,-1233.78 L -132.129,-1233.48 L -131.545,-1233.24 L -130.937,-1233.09
 L -130.314,-1233.01 L 130.314,-1233.01 L 130.937,-1233.09 L 131.545,-1233.24 L 132.129,-1233.48 L 132.679,-1233.78
 L 133.187,-1234.15 L 133.645,-1234.58 L 134.045,-1235.06 L 134.382,-1235.59 L 134.649,-1236.16 L 134.843,-1236.76
 L 134.961,-1237.37 L 135,-1238 L 135,-1408 L 134.961,-1408.63 L 134.843,-1409.24 L 134.649,-1409.84
 L 134.382,-1410.41 L 134.045,-1410.94 L 133.645,-1411.42 L 133.187,-1411.85 L 132.679,-1412.22 L 132.129,-1412.52
 L 131.545,-1412.76 L 130.937,-1412.91 L 130.314,-1412.99 L -130.314,-1412.99 L -130.937,-1412.91 L -131.545,-1412.76
 L -132.129,-1412.52 L -132.679,-1412.22 L -133.187,-1411.85 L -133.5,-1411.56 L -133.5,-1412.99 L -136.5,-1412.99
 L -136.5,-1233.01 L -133.5,-1233.01 z
M -129.751,-1234.51 L -130.25,-1234.57 L -130.736,-1234.7 L -131.203,-1234.88 L -131.643,-1235.12 L -132.05,-1235.42
 L -132.416,-1235.76 L -132.736,-1236.15 L -133.005,-1236.57 L -133.219,-1237.03 L -133.374,-1237.51 L -133.468,-1238
 L -133.5,-1238.5 L -133.5,-1407.5 L -133.468,-1408 L -133.374,-1408.49 L -133.219,-1408.97 L -133.005,-1409.43
 L -132.736,-1409.85 L -132.416,-1410.24 L -132.05,-1410.58 L -131.643,-1410.88 L -131.203,-1411.12 L -130.736,-1411.3
 L -130.25,-1411.43 L -129.751,-1411.49 L 129.751,-1411.49 L 130.25,-1411.43 L 130.736,-1411.3 L 131.203,-1411.12
 L 131.643,-1410.88 L 132.05,-1410.58 L 132.416,-1410.24 L 132.736,-1409.85 L 133.005,-1409.43 L 133.219,-1408.97
 L 133.374,-1408.49 L 133.468,-1408 L 133.5,-1407.5 L 133.5,-1238.5 L 133.468,-1238 L 133.374,-1237.51
 L 133.219,-1237.03 L 133.005,-1236.57 L 132.736,-1236.15 L 132.416,-1235.76 L 132.05,-1235.42 L 131.643,-1235.12
 L 131.203,-1234.88 L 130.736,-1234.7 L 130.25,-1234.57 L 129.751,-1234.51 z
M -133.5,-1045.44 L -133.187,-1045.15 L -132.679,-1044.78 L -132.129,-1044.48 L -131.545,-1044.24 L -130.937,-1044.09
 L -130.314,-1044.01 L 130.314,-1044.01 L 130.937,-1044.09 L 131.545,-1044.24 L 132.129,-1044.48 L 132.679,-1044.78
 L 133.187,-1045.15 L 133.645,-1045.58 L 134.045,-1046.06 L 134.382,-1046.59 L 134.649,-1047.16 L 134.843,-1047.76
 L 134.961,-1048.37 L 135,-1049 L 135,-1219 L 134.961,-1219.63 L 134.843,-1220.24 L 134.649,-1220.84
 L 134.382,-1221.41 L 134.045,-1221.94 L 133.645,-1222.42 L 133.187,-1222.85 L 132.679,-1223.22 L 132.129,-1223.52
 L 131.545,-1223.76 L 130.937,-1223.91 L 130.314,-1223.99 L -130.314,-1223.99 L -130.937,-1223.91 L -131.545,-1223.76
 L -132.129,-1223.52 L -132.679,-1223.22 L -133.187,-1222.85 L -133.5,-1222.56 L -133.5,-1223.99 L -136.5,-1223.99
 L -136.5,-1044.01 L -133.5,-1044.01 z
M -129.751,-1045.51 L -130.25,-1045.57 L -130.736,-1045.7 L -131.203,-1045.88 L -131.643,-1046.12 L -132.05,-1046.42
 L -132.416,-1046.76 L -132.736,-1047.15 L -133.005,-1047.57 L -133.219,-1048.03 L -133.374,-1048.51 L -133.468,-1049
 L -133.5,-1049.5 L -133.5,-1218.5 L -133.468,-1219 L -133.374,-1219.49 L -133.219,-1219.97 L -133.005,-1220.43
 L -132.736,-1220.85 L -132.416,-1221.24 L -132.05,-1221.58 L -131.643,-1221.88 L -131.203,-1222.12 L -130.736,-1222.3
 L -130.25,-1222.43 L -129.751,-1222.49 L 129.751,-1222.49 L 130.25,-1222.43 L 130.736,-1222.3 L 131.203,-1222.12
 L 131.643,-1221.88 L 132.05,-1221.58 L 132.416,-1221.24 L 132.736,-1220.85 L 133.005,-1220.43 L 133.219,-1219.97
 L 133.374,-1219.49 L 133.468,-1219 L 133.5,-1218.5 L 133.5,-1049.5 L 133.468,-1049 L 133.374,-1048.51
 L 133.219,-1048.03 L 133.005,-1047.57 L 132.736,-1047.15 L 132.416,-1046.76 L 132.05,-1046.42 L 131.643,-1046.12
 L 131.203,-1045.88 L 130.736,-1045.7 L 130.25,-1045.57 L 129.751,-1045.51 z
M 130.937,-855.089 L 131.545,-855.245 L 132.129,-855.476 L 132.679,-855.778 L 133.187,-856.147 L 133.645,-856.577
 L 134.045,-857.061 L 134.382,-857.591 L 134.649,-858.159 L 134.843,-858.757 L 134.961,-859.373 L 135,-860
 L 135,-1030 L 134.961,-1030.63 L 134.843,-1031.24 L 134.649,-1031.84 L 134.382,-1032.41 L 134.045,-1032.94
 L 133.645,-1033.42 L 133.187,-1033.85 L 132.679,-1034.22 L 132.129,-1034.52 L 131.545,-1034.76 L 130.937,-1034.91
 L 130.314,-1034.99 L -130.314,-1034.99 L -130.937,-1034.91 L -131.545,-1034.76 L -132.129,-1034.52 L -132.679,-1034.22
 L -133.187,-1033.85 L -133.5,-1033.56 L -133.5,-1034.98 L -136.5,-1034.98 L -136.5,-855.021 L -133.5,-855.021
 L -133.5,-856.441 L -133.187,-856.147 L -132.679,-855.778 L -132.129,-855.476 L -131.545,-855.245 L -130.937,-855.089
 L -130.314,-855.01 L 130.314,-855.01 z
M -129.695,-857.393 L -130.083,-857.442 L -130.462,-857.539 L -130.825,-857.683 L -131.168,-857.872 L -131.484,-858.101
 L -131.769,-858.369 L -132.018,-858.67 L -132.228,-859 L -132.394,-859.354 L -132.515,-859.726 L -132.588,-860.11
 L -132.613,-860.5 L -132.613,-1029.5 L -132.588,-1029.89 L -132.515,-1030.27 L -132.394,-1030.65 L -132.228,-1031
 L -132.018,-1031.33 L -131.769,-1031.63 L -131.484,-1031.9 L -131.168,-1032.13 L -130.825,-1032.32 L -130.462,-1032.46
 L -130.083,-1032.56 L -129.695,-1032.61 L 129.695,-1032.61 L 130.083,-1032.56 L 130.462,-1032.46 L 130.825,-1032.32
 L 131.168,-1032.13 L 131.484,-1031.9 L 131.769,-1031.63 L 132.018,-1031.33 L 132.228,-1031 L 132.394,-1030.65
 L 132.515,-1030.27 L 132.588,-1029.89 L 132.613,-1029.5 L 132.613,-860.5 L 132.588,-860.11 L 132.515,-859.726
 L 132.394,-859.354 L 132.228,-859 L 132.018,-858.67 L 131.769,-858.369 L 131.484,-858.101 L 131.168,-857.872
 L 130.825,-857.683 L 130.462,-857.539 L 130.083,-857.442 L 129.695,-857.393 z
M 130.937,-666.089 L 131.545,-666.245 L 132.129,-666.476 L 132.679,-666.778 L 133.187,-667.147 L 133.645,-667.577
 L 134.045,-668.061 L 134.382,-668.591 L 134.649,-669.159 L 134.843,-669.757 L 134.961,-670.373 L 135,-671
 L 135,-841 L 134.961,-841.627 L 134.843,-842.243 L 134.649,-842.841 L 134.382,-843.409 L 134.045,-843.939
 L 133.645,-844.423 L 133.187,-844.853 L 132.679,-845.222 L 132.129,-845.524 L 131.545,-845.755 L 130.937,-845.911
 L 130.314,-845.99 L -130.314,-845.99 L -130.937,-845.911 L -131.545,-845.755 L -132.129,-845.524 L -132.679,-845.222
 L -133.187,-844.853 L -133.5,-844.559 L -133.5,-844.653 L -136.5,-844.653 L -136.5,-667.347 L -133.5,-667.347
 L -133.5,-667.441 L -133.187,-667.147 L -132.679,-666.778 L -132.129,-666.476 L -131.545,-666.245 L -130.937,-666.089
 L -130.314,-666.01 L 130.314,-666.01 z
M -127.634,-836.369 L -127.9,-836.403 L -128.16,-836.469 L -128.409,-836.568 L -128.644,-836.697 L -128.861,-836.855
 L -129.057,-837.038 L -129.227,-837.245 L -129.371,-837.471 L -129.485,-837.714 L -129.568,-837.969 L -129.618,-838.232
 L -129.635,-838.5 L -129.618,-838.768 L -129.568,-839.031 L -129.485,-839.286 L -129.371,-839.529 L -129.227,-839.755
 L -129.057,-839.962 L -128.861,-840.145 L -128.644,-840.303 L -128.409,-840.432 L -128.16,-840.531 L -127.9,-840.597
 L -127.634,-840.631 L -127.366,-840.631 L -127.1,-840.597 L -126.84,-840.531 L -126.591,-840.432 L -126.356,-840.303
 L -126.139,-840.145 L -125.943,-839.962 L -125.773,-839.755 L -125.629,-839.529 L -125.515,-839.286 L -125.432,-839.031
 L -125.382,-838.768 L -125.365,-838.5 L -125.382,-838.232 L -125.432,-837.969 L -125.515,-837.714 L -125.629,-837.471
 L -125.773,-837.245 L -125.943,-837.038 L -126.139,-836.855 L -126.356,-836.697 L -126.591,-836.568 L -126.84,-836.469
 L -127.1,-836.403 L -127.366,-836.369 z
M 127.366,-836.369 L 127.1,-836.403 L 126.84,-836.469 L 126.591,-836.568 L 126.356,-836.697 L 126.139,-836.855
 L 125.943,-837.038 L 125.773,-837.245 L 125.629,-837.471 L 125.515,-837.714 L 125.432,-837.969 L 125.382,-838.232
 L 125.365,-838.5 L 125.382,-838.768 L 125.432,-839.031 L 125.515,-839.286 L 125.629,-839.529 L 125.773,-839.755
 L 125.943,-839.962 L 126.139,-840.145 L 126.356,-840.303 L 126.591,-840.432 L 126.84,-840.531 L 127.1,-840.597
 L 127.366,-840.631 L 127.634,-840.631 L 127.9,-840.597 L 128.16,-840.531 L 128.409,-840.432 L 128.644,-840.303
 L 128.861,-840.145 L 129.057,-839.962 L 129.227,-839.755 L 129.371,-839.529 L 129.485,-839.286 L 129.568,-839.031
 L 129.618,-838.768 L 129.635,-838.5 L 129.618,-838.232 L 129.568,-837.969 L 129.485,-837.714 L 129.371,-837.471
 L 129.227,-837.245 L 129.057,-837.038 L 128.861,-836.855 L 128.644,-836.697 L 128.409,-836.568 L 128.16,-836.469
 L 127.9,-836.403 L 127.634,-836.369 z
M -127.634,-671.369 L -127.9,-671.403 L -128.16,-671.469 L -128.409,-671.568 L -128.644,-671.697 L -128.861,-671.855
 L -129.057,-672.038 L -129.227,-672.245 L -129.371,-672.471 L -129.485,-672.714 L -129.568,-672.969 L -129.618,-673.232
 L -129.635,-673.5 L -129.618,-673.768 L -129.568,-674.031 L -129.485,-674.286 L -129.371,-674.529 L -129.227,-674.755
 L -129.057,-674.962 L -128.861,-675.145 L -128.644,-675.303 L -128.409,-675.432 L -128.16,-675.531 L -127.9,-675.597
 L -127.634,-675.631 L -127.366,-675.631 L -127.1,-675.597 L -126.84,-675.531 L -126.591,-675.432 L -126.356,-675.303
 L -126.139,-675.145 L -125.943,-674.962 L -125.773,-674.755 L -125.629,-674.529 L -125.515,-674.286 L -125.432,-674.031
 L -125.382,-673.768 L -125.365,-673.5 L -125.382,-673.232 L -125.432,-672.969 L -125.515,-672.714 L -125.629,-672.471
 L -125.773,-672.245 L -125.943,-672.038 L -126.139,-671.855 L -126.356,-671.697 L -126.591,-671.568 L -126.84,-671.469
 L -127.1,-671.403 L -127.366,-671.369 z
M 127.366,-671.369 L 127.1,-671.403 L 126.84,-671.469 L 126.591,-671.568 L 126.356,-671.697 L 126.139,-671.855
 L 125.943,-672.038 L 125.773,-672.245 L 125.629,-672.471 L 125.515,-672.714 L 125.432,-672.969 L 125.382,-673.232
 L 125.365,-673.5 L 125.382,-673.768 L 125.432,-674.031 L 125.515,-674.286 L 125.629,-674.529 L 125.773,-674.755
 L 125.943,-674.962 L 126.139,-675.145 L 126.356,-675.303 L 126.591,-675.432 L 126.84,-675.531 L 127.1,-675.597
 L 127.366,-675.631 L 127.634,-675.631 L 127.9,-675.597 L 128.16,-675.531 L 128.409,-675.432 L 128.644,-675.303
 L 128.861,-675.145 L 129.057,-674.962 L 129.227,-674.755 L 129.371,-674.529 L 129.485,-674.286 L 129.568,-674.031
 L 129.618,-673.768 L 129.635,-673.5 L 129.618,-673.232 L 129.568,-672.969 L 129.485,-672.714 L 129.371,-672.471
 L 129.227,-672.245 L 129.057,-672.038 L 128.861,-671.855 L 128.644,-671.697 L 128.409,-671.568 L 128.16,-671.469
 L 127.9,-671.403 L 127.634,-671.369 z
" stroke="black" fill="lightgray" stroke-width="0.5"/>
</svg>
