<?xml version="1.0" standalone="no"?>
<!DOCTYPE svg PUBLIC "-//W3C//DTD SVG 1.1//EN" "http://www.w3.org/Graphics/SVG/1.1/DTD/svg11.dtd">
<svg width="272mm" height="154mm" viewBox="-137 -293 272 154" xmlns="http://www.w3.org/2000/svg" version="1.1">
<title>OpenSCAD Model</title>
<path d="
M -133.5,-248.941 L -133.187,-248.647 L -132.679,-248.278 L -132.129,-247.976 L -131.545,-247.745 L -130.937,-247.589
 L -130.314,-247.51 L 130.314,-247.51 L 130.937,-247.589 L 131.545,-247.745 L 132.129,-247.976 L 132.679,-248.278
 L 133.187,-248.647 L 133.645,-249.077 L 134.045,-249.561 L 134.382,-250.091 L 134.649,-250.659 L 134.843,-251.257
 L 134.961,-251.873 L 135,-252.5 L 135,-287.5 L 134.961,-288.127 L 134.843,-288.743 L 134.649,-289.341
 L 134.382,-289.909 L 134.045,-290.439 L 133.645,-290.923 L 133.187,-291.353 L 132.679,-291.722 L 132.129,-292.024
 L 131.545,-292.255 L 130.937,-292.411 L 130.314,-292.49 L -130.314,-292.49 L -130.937,-292.411 L -131.545,-292.255
 L -132.129,-292.024 L -132.679,-291.722 L -133.187,-291.353 L -133.5,-291.059 L -133.5,-292.49 L -136.5,-292.49
 L -136.5,-247.51 L -133.5,-247.51 z
M -129.751,-249.008 L -130.25,-249.071 L -130.736,-249.196 L -131.203,-249.381 L -131.643,-249.623 L -132.05,-249.918
 L -132.416,-250.262 L -132.736,-250.649 L -133.005,-251.073 L -133.219,-251.528 L -133.374,-252.005 L -133.468,-252.499
 L -133.5,-253 L -133.5,-287 L -133.468,-287.501 L -133.374,-287.995 L -133.219,-288.472 L -133.005,-288.927
 L -132.736,-289.351 L -132.416,-289.738 L -132.05,-290.082 L -131.643,-290.377 L -131.203,-290.619 L -130.736,-290.804
 L -130.25,-290.929 L -129.751,-290.992 L 129.751,-290.992 L 130.25,-290.929 L 130.736,-290.804 L 131.203,-290.619
 L 131.643,-290.377 L 132.05,-290.082 L 132.416,-289.738 L 132.736,-289.351 L 133.005,-288.927 L 133.219,-288.472
 L 133.374,-287.995 L 133.468,-287.501 L 133.5,-287 L 133.5,-253 L 133.468,-252.499 L 133.374,-252.005
 L 133.219,-251.528 L 133.005,-251.073 L 132.736,-250.649 L 132.416,-250.262 L 132.05,-249.918 L 131.643,-249.623
 L 131.203,-249.381 L 130.736,-249.196 L 130.25,-249.071 L 129.751,-249.008 z
M 130.937,-193.589 L 131.545,-193.745 L 132.129,-193.976 L 132.679,-194.278 L 133.187,-194.647 L 133.645,-195.077
 L 134.045,-195.561 L 134.382,-196.091 L 134.649,-196.659 L 134.843,-197.257 L 134.961,-197.873 L 135,-198.5
 L 135,-233.5 L 134.961,-234.127 L 134.843,-234.743 L 134.649,-235.341 L 134.382,-235.909 L 134.045,-236.439
 L 133.645,-236.923 L 133.187,-237.353 L 132.679,-237.722 L 132.129,-238.024 L 131.545,-238.255 L 130.937,-238.411
 L 130.314,-238.49 L -130.314,-238.49 L -130.937,-238.411 L -131.545,-238.255 L -132.129,-238.024 L -132.679,-237.722
 L -133.187,-237.353 L -133.5,-237.059 L -133.5,-238.479 L -136.5,-238.479 L -136.5,-193.521 L -133.5,-193.521
 L -133.5,-194.941 L -133.187,-194.647 L -132.679,-194.278 L -132.129,-193.976 L -131.545,-193.745 L -130.937,-193.589
 L -130.314,-193.51 L 130.314,-193.51 z
M -129.695,-195.893 L -130.083,-195.942 L -130.462,-196.039 L -130.825,-196.183 L -131.168,-196.372 L -131.484,-196.601
 L -131.769,-196.869 L -132.018,-197.17 L -132.228,-197.5 L -132.394,-197.854 L -132.515,-198.226 L -132.588,-198.61
 L -132.613,-199 L -132.613,-233 L -132.588,-233.39 L -132.515,-233.774 L -132.394,-234.146 L -132.228,-234.5
 L -132.018,-234.83 L -131.769,-235.131 L -131.484,-235.399 L -131.168,-235.628 L -130.825,-235.817 L -130.462,-235.961
 L -130.083,-236.058 L -129.695,-236.107 L 129.695,-236.107 L 130.083,-236.058 L 130.462,-235.961 L 130.825,-235.817
 L 131.168,-235.628 L 131.484,-235.399 L 131.769,-235.131 L 132.018,-234.83 L 132.228,-234.5 L 132.394,-234.146
 L 132.515,-233.774 L 132.588,-233.39 L 132.613,-233 L 132.613,-199 L 132.588,-198.61 L 132.515,-198.226
 L 132.394,-197.854 L 132.228,-197.5 L 132.018,-197.17 L 131.769,-196.869 L 131.484,-196.601 L 131.168,-196.372
 L 130.825,-196.183 L 130.462,-196.039 L 130.083,-195.942 L 129.695,-195.893 z
M 130.937,-139.589 L 131.545,-139.745 L 132.129,-139.976 L 132.679,-140.278 L 133.187,-140.647 L 133.645,-141.077
 L 134.045,-141.561 L 134.382,-142.091 L 134.649,-142.659 L 134.843,-143.257 L 134.961,-143.873 L 135,-144.5
 L 135,-179.5 L 134.961,-180.127 L 134.843,-180.743 L 134.649,-181.341 L 134.382,-181.909 L 134.045,-182.439
 L 133.645,-182.923 L 133.187,-183.353 L 132.679,-183.722 L 132.129,-184.024 L 131.545,-184.255 L 130.937,-184.411
 L 130.314,-184.49 L -130.314,-184.49 L -130.937,-184.411 L -131.545,-184.255 L -132.129,-184.024 L -132.679,-183.722
 L -133.187,-183.353 L -133.5,-183.059 L -133.5,-183.153 L -136.5,-183.153 L -136.5,-140.847 L -133.5,-140.847
 L -133.5,-140.941 L -133.187,-140.647 L -132.679,-140.278 L -132.129,-139.976 L -131.545,-139.745 L -130.937,-139.589
 L -130.314,-139.51 L 130.314,-139.51 z
M 127.366,-174.869 L 127.1,-174.903 L 126.84,-174.969 L 126.591,-175.068 L 126.356,-175.197 L 126.139,-175.355
 L 125.943,-175.538 L 125.773,-175.745 L 125.629,-175.971 L 125.515,-176.214 L 125.432,-176.469 L 125.382,-176.732
 L 125.365,-177 L 125.382,-177.268 L 125.432,-177.531 L 125.515,-177.786 L 125.629,-178.029 L 125.773,-178.255
 L 125.943,-178.462 L 126.139,-178.645 L 126.356,-178.803 L 126.591,-178.932 L 126.84,-179.031 L 127.1,-179.097
 L 127.366,-179.131 L 127.634,-179.131 L 127.9,-179.097 L 128.16,-179.031 L 128.409,-178.932 L 128.644,-178.803
 L 128.861,-178.645 L 129.057,-178.462 L 129.227,-178.255 L 129.371,-178.029 L 129.485,-177.786 L 129.568,-177.531
 L 129.618,-177.268 L 129.635,-177 L 129.618,-176.732 L 129.568,-176.469 L 129.485,-176.214 L 129.371,-175.971
 L 129.227,-175.745 L 129.057,-175.538 L 128.861,-175.355 L 128.644,-175.197 L 128.409,-175.068 L 128.16,-174.969
 L 127.9,-174.903 L 127.634,-174.869 z
M -127.634,-174.869 L -127.9,-174.903 L -128.16,-174.969 L -128.409,-175.068 L -128.644,-175.197 L -128.861,-175.355
 L -129.057,-175.538 L -129.227,-175.745 L -129.371,-175.971 L -129.485,-176.214 L -129.568,-176.469 L -129.618,-176.732
 L -129.635,-177 L -129.618,-177.268 L -129.568,-177.531 L -129.485,-177.786 L -129.371,-178.029 L -129.227,-178.255
 L -129.057,-178.462 L -128.861,-178.645 L -128.644,-178.803 L -128.409,-178.932 L -128.16,-179.031 L -127.9,-179.097
 L -127.634,-179.131 L -127.366,-179.131 L -127.1,-179.097 L -126.84,-179.031 L -126.591,-178.932 L -126.356,-178.803
 L -126.139,-178.645 L -125.943,-178.462 L -125.773,-178.255 L -125.629,-178.029 L -125.515,-177.786 L -125.432,-177.531
 L -125.382,-177.268 L -125.365,-177 L -125.382,-176.732 L -125.432,-176.469 L -125.515,-176.214 L -125.629,-175.971
 L -125.773,-175.745 L -125.943,-175.538 L -126.139,-175.355 L -126.356,-175.197 L -126.591,-175.068 L -126.84,-174.969
 L -127.1,-174.903 L -127.366,-174.869 z
M 127.366,-144.869 L 127.1,-144.903 L 126.84,-144.969 L 126.591,-145.068 L 126.356,-145.197 L 126.139,-145.355
 L 125.943,-145.538 L 125.773,-145.745 L 125.629,-145.971 L 125.515,-146.214 L 125.432,-146.469 L 125.382,-146.732
 L 125.365,-147 L 125.382,-147.268 L 125.432,-147.531 L 125.515,-147.786 L 125.629,-148.029 L 125.773,-148.255
 L 125.943,-148.462 L 126.139,-148.645 L 126.356,-148.803 L 126.591,-148.932 L 126.84,-149.031 L 127.1,-149.097
 L 127.366,-149.131 L 127.634,-149.131 L 127.9,-149.097 L 128.16,-149.031 L 128.409,-148.932 L 128.644,-148.803
 L 128.861,-148.645 L 129.057,-148.462 L 129.227,-148.255 L 129.371,-148.029 L 129.485,-147.786 L 129.568,-147.531
 L 129.618,-147.268 L 129.635,-147 L 129.618,-146.732 L 129.568,-146.469 L 129.485,-146.214 L 129.371,-145.971
 L 129.227,-145.745 L 129.057,-145.538 L 128.861,-145.355 L 128.644,-145.197 L 128.409,-145.068 L 128.16,-144.969
 L 127.9,-144.903 L 127.634,-144.869 z
M -127.634,-144.869 L -127.9,-144.903 L -128.16,-144.969 L -128.409,-145.068 L -128.644,-145.197 L -128.861,-145.355
 L -129.057,-145.538 L -129.227,-145.745 L -129.371,-145.971 L -129.485,-146.214 L -129.568,-146.469 L -129.618,-146.732
 L -129.635,-147 L -129.618,-147.268 L -129.568,-147.531 L -129.485,-147.786 L -129.371,-148.029 L -129.227,-148.255
 L -129.057,-148.462 L -128.861,-148.645 L -128.644,-148.803 L -128.409,-148.932 L -128.16,-149.031 L -127.9,-149.097
 L -127.634,-149.131 L -127.366,-149.131 L -127.1,-149.097 L -126.84,-149.031 L -126.591,-148.932 L -126.356,-148.803
 L -126.139,-148.645 L -125.943,-148.462 L -125.773,-148.255 L -125.629,-148.029 L -125.515,-147.786 L -125.432,-147.531
 L -125.382,-147.268 L -125.365,-147 L -125.382,-146.732 L -125.432,-146.469 L -125.515,-146.214 L -125.629,-145.971
 L -125.773,-145.745 L -125.943,-145.538 L -126.139,-145.355 L -126.356,-145.197 L -126.591,-145.068 L -126.84,-144.969
 L -127.1,-144.903 L -127.366,-144.869 z
" stroke="black" fill="lightgray" stroke-width="0.5"/>
</svg>
