  0
SECTION
  2
BLOCKS
  0
ENDSEC
  0
SECTION
  2
ENTITIES
  0
LINE
  8
0
 10
145.937
 20
130.589
 11
146.545
 21
130.745
  0
LINE
  8
0
 10
146.545
 20
130.745
 11
147.129
 21
130.976
  0
LINE
  8
0
 10
147.129
 20
130.976
 11
147.679
 21
131.278
  0
LINE
  8
0
 10
147.679
 20
131.278
 11
148.187
 21
131.647
  0
LINE
  8
0
 10
148.187
 20
131.647
 11
148.645
 21
132.077
  0
LINE
  8
0
 10
148.645
 20
132.077
 11
149.045
 21
132.561
  0
LINE
  8
0
 10
149.045
 20
132.561
 11
149.382
 21
133.091
  0
LINE
  8
0
 10
149.382
 20
133.091
 11
149.649
 21
133.659
  0
LINE
  8
0
 10
149.649
 20
133.659
 11
149.843
 21
134.257
  0
LINE
  8
0
 10
149.843
 20
134.257
 11
149.961
 21
134.873
  0
LINE
  8
0
 10
149.961
 20
134.873
 11
150
 21
135.5
  0
LINE
  8
0
 10
150
 20
135.5
 11
150
 21
200.5
  0
LINE
  8
0
 10
150
 20
200.5
 11
149.961
 21
201.127
  0
LINE
  8
0
 10
149.961
 20
201.127
 11
149.843
 21
201.743
  0
LINE
  8
0
 10
149.843
 20
201.743
 11
149.649
 21
202.341
  0
LINE
  8
0
 10
149.649
 20
202.341
 11
149.382
 21
202.909
  0
LINE
  8
0
 10
149.382
 20
202.909
 11
149.045
 21
203.439
  0
LINE
  8
0
 10
149.045
 20
203.439
 11
148.645
 21
203.923
  0
LINE
  8
0
 10
148.645
 20
203.923
 11
148.187
 21
204.353
  0
LINE
  8
0
 10
148.187
 20
204.353
 11
147.679
 21
204.722
  0
LINE
  8
0
 10
147.679
 20
204.722
 11
147.129
 21
205.024
  0
LINE
  8
0
 10
147.129
 20
205.024
 11
146.545
 21
205.255
  0
LINE
  8
0
 10
146.545
 20
205.255
 11
145.937
 21
205.411
  0
LINE
  8
0
 10
145.937
 20
205.411
 11
145.314
 21
205.49
  0
LINE
  8
0
 10
145.314
 20
205.49
 11
-145.314
 21
205.49
  0
LINE
  8
0
 10
-145.314
 20
205.49
 11
-145.937
 21
205.411
  0
LINE
  8
0
 10
-145.937
 20
205.411
 11
-146.545
 21
205.255
  0
LINE
  8
0
 10
-146.545
 20
205.255
 11
-147.129
 21
205.024
  0
LINE
  8
0
 10
-147.129
 20
205.024
 11
-147.679
 21
204.722
  0
LINE
  8
0
 10
-147.679
 20
204.722
 11
-148.187
 21
204.353
  0
LINE
  8
0
 10
-148.187
 20
204.353
 11
-148.5
 21
204.059
  0
LINE
  8
0
 10
-148.5
 20
204.059
 11
-148.5
 21
205.115
  0
LINE
  8
0
 10
-148.5
 20
205.115
 11
-151.5
 21
205.115
  0
LINE
  8
0
 10
-151.5
 20
205.115
 11
-151.5
 21
130.885
  0
LINE
  8
0
 10
-151.5
 20
130.885
 11
-148.5
 21
130.885
  0
LINE
  8
0
 10
-148.5
 20
130.885
 11
-148.5
 21
131.941
  0
LINE
  8
0
 10
-148.5
 20
131.941
 11
-148.187
 21
131.647
  0
LINE
  8
0
 10
-148.187
 20
131.647
 11
-147.679
 21
131.278
  0
LINE
  8
0
 10
-147.679
 20
131.278
 11
-147.129
 21
130.976
  0
LINE
  8
0
 10
-147.129
 20
130.976
 11
-146.545
 21
130.745
  0
LINE
  8
0
 10
-146.545
 20
130.745
 11
-145.937
 21
130.589
  0
LINE
  8
0
 10
-145.937
 20
130.589
 11
-145.314
 21
130.51
  0
LINE
  8
0
 10
-145.314
 20
130.51
 11
145.314
 21
130.51
  0
LINE
  8
0
 10
145.314
 20
130.51
 11
145.937
 21
130.589
  0
LINE
  8
0
 10
142.349
 20
195.605
 11
142.05
 21
195.643
  0
LINE
  8
0
 10
142.05
 20
195.643
 11
141.758
 21
195.717
  0
LINE
  8
0
 10
141.758
 20
195.717
 11
141.478
 21
195.828
  0
LINE
  8
0
 10
141.478
 20
195.828
 11
141.214
 21
195.974
  0
LINE
  8
0
 10
141.214
 20
195.974
 11
140.97
 21
196.151
  0
LINE
  8
0
 10
140.97
 20
196.151
 11
140.75
 21
196.357
  0
LINE
  8
0
 10
140.75
 20
196.357
 11
140.558
 21
196.589
  0
LINE
  8
0
 10
140.558
 20
196.589
 11
140.397
 21
196.844
  0
LINE
  8
0
 10
140.397
 20
196.844
 11
140.269
 21
197.117
  0
LINE
  8
0
 10
140.269
 20
197.117
 11
140.175
 21
197.403
  0
LINE
  8
0
 10
140.175
 20
197.403
 11
140.119
 21
197.699
  0
LINE
  8
0
 10
140.119
 20
197.699
 11
140.1
 21
198
  0
LINE
  8
0
 10
140.1
 20
198
 11
140.119
 21
198.301
  0
LINE
  8
0
 10
140.119
 20
198.301
 11
140.175
 21
198.597
  0
LINE
  8
0
 10
140.175
 20
198.597
 11
140.269
 21
198.883
  0
LINE
  8
0
 10
140.269
 20
198.883
 11
140.397
 21
199.156
  0
LINE
  8
0
 10
140.397
 20
199.156
 11
140.558
 21
199.411
  0
LINE
  8
0
 10
140.558
 20
199.411
 11
140.75
 21
199.643
  0
LINE
  8
0
 10
140.75
 20
199.643
 11
140.97
 21
199.849
  0
LINE
  8
0
 10
140.97
 20
199.849
 11
141.214
 21
200.026
  0
LINE
  8
0
 10
141.214
 20
200.026
 11
141.478
 21
200.172
  0
LINE
  8
0
 10
141.478
 20
200.172
 11
141.758
 21
200.283
  0
LINE
  8
0
 10
141.758
 20
200.283
 11
142.05
 21
200.357
  0
LINE
  8
0
 10
142.05
 20
200.357
 11
142.349
 21
200.395
  0
LINE
  8
0
 10
142.349
 20
200.395
 11
142.651
 21
200.395
  0
LINE
  8
0
 10
142.651
 20
200.395
 11
142.95
 21
200.357
  0
LINE
  8
0
 10
142.95
 20
200.357
 11
143.242
 21
200.283
  0
LINE
  8
0
 10
143.242
 20
200.283
 11
143.522
 21
200.172
  0
LINE
  8
0
 10
143.522
 20
200.172
 11
143.786
 21
200.026
  0
LINE
  8
0
 10
143.786
 20
200.026
 11
144.03
 21
199.849
  0
LINE
  8
0
 10
144.03
 20
199.849
 11
144.25
 21
199.643
  0
LINE
  8
0
 10
144.25
 20
199.643
 11
144.442
 21
199.411
  0
LINE
  8
0
 10
144.442
 20
199.411
 11
144.603
 21
199.156
  0
LINE
  8
0
 10
144.603
 20
199.156
 11
144.731
 21
198.883
  0
LINE
  8
0
 10
144.731
 20
198.883
 11
144.825
 21
198.597
  0
LINE
  8
0
 10
144.825
 20
198.597
 11
144.881
 21
198.301
  0
LINE
  8
0
 10
144.881
 20
198.301
 11
144.9
 21
198
  0
LINE
  8
0
 10
144.9
 20
198
 11
144.881
 21
197.699
  0
LINE
  8
0
 10
144.881
 20
197.699
 11
144.825
 21
197.403
  0
LINE
  8
0
 10
144.825
 20
197.403
 11
144.731
 21
197.117
  0
LINE
  8
0
 10
144.731
 20
197.117
 11
144.603
 21
196.844
  0
LINE
  8
0
 10
144.603
 20
196.844
 11
144.442
 21
196.589
  0
LINE
  8
0
 10
144.442
 20
196.589
 11
144.25
 21
196.357
  0
LINE
  8
0
 10
144.25
 20
196.357
 11
144.03
 21
196.151
  0
LINE
  8
0
 10
144.03
 20
196.151
 11
143.786
 21
195.974
  0
LINE
  8
0
 10
143.786
 20
195.974
 11
143.522
 21
195.828
  0
LINE
  8
0
 10
143.522
 20
195.828
 11
143.242
 21
195.717
  0
LINE
  8
0
 10
143.242
 20
195.717
 11
142.95
 21
195.643
  0
LINE
  8
0
 10
142.95
 20
195.643
 11
142.651
 21
195.605
  0
LINE
  8
0
 10
142.651
 20
195.605
 11
142.349
 21
195.605
  0
LINE
  8
0
 10
-142.651
 20
195.605
 11
-142.95
 21
195.643
  0
LINE
  8
0
 10
-142.95
 20
195.643
 11
-143.242
 21
195.717
  0
LINE
  8
0
 10
-143.242
 20
195.717
 11
-143.522
 21
195.828
  0
LINE
  8
0
 10
-143.522
 20
195.828
 11
-143.786
 21
195.974
  0
LINE
  8
0
 10
-143.786
 20
195.974
 11
-144.03
 21
196.151
  0
LINE
  8
0
 10
-144.03
 20
196.151
 11
-144.25
 21
196.357
  0
LINE
  8
0
 10
-144.25
 20
196.357
 11
-144.442
 21
196.589
  0
LINE
  8
0
 10
-144.442
 20
196.589
 11
-144.603
 21
196.844
  0
LINE
  8
0
 10
-144.603
 20
196.844
 11
-144.731
 21
197.117
  0
LINE
  8
0
 10
-144.731
 20
197.117
 11
-144.825
 21
197.403
  0
LINE
  8
0
 10
-144.825
 20
197.403
 11
-144.881
 21
197.699
  0
LINE
  8
0
 10
-144.881
 20
197.699
 11
-144.9
 21
198
  0
LINE
  8
0
 10
-144.9
 20
198
 11
-144.881
 21
198.301
  0
LINE
  8
0
 10
-144.881
 20
198.301
 11
-144.825
 21
198.597
  0
LINE
  8
0
 10
-144.825
 20
198.597
 11
-144.731
 21
198.883
  0
LINE
  8
0
 10
-144.731
 20
198.883
 11
-144.603
 21
199.156
  0
LINE
  8
0
 10
-144.603
 20
199.156
 11
-144.442
 21
199.411
  0
LINE
  8
0
 10
-144.442
 20
199.411
 11
-144.25
 21
199.643
  0
LINE
  8
0
 10
-144.25
 20
199.643
 11
-144.03
 21
199.849
  0
LINE
  8
0
 10
-144.03
 20
199.849
 11
-143.786
 21
200.026
  0
LINE
  8
0
 10
-143.786
 20
200.026
 11
-143.522
 21
200.172
  0
LINE
  8
0
 10
-143.522
 20
200.172
 11
-143.242
 21
200.283
  0
LINE
  8
0
 10
-143.242
 20
200.283
 11
-142.95
 21
200.357
  0
LINE
  8
0
 10
-142.95
 20
200.357
 11
-142.651
 21
200.395
  0
LINE
  8
0
 10
-142.651
 20
200.395
 11
-142.349
 21
200.395
  0
LINE
  8
0
 10
-142.349
 20
200.395
 11
-142.05
 21
200.357
  0
LINE
  8
0
 10
-142.05
 20
200.357
 11
-141.758
 21
200.283
  0
LINE
  8
0
 10
-141.758
 20
200.283
 11
-141.478
 21
200.172
  0
LINE
  8
0
 10
-141.478
 20
200.172
 11
-141.214
 21
200.026
  0
LINE
  8
0
 10
-141.214
 20
200.026
 11
-140.97
 21
199.849
  0
LINE
  8
0
 10
-140.97
 20
199.849
 11
-140.75
 21
199.643
  0
LINE
  8
0
 10
-140.75
 20
199.643
 11
-140.558
 21
199.411
  0
LINE
  8
0
 10
-140.558
 20
199.411
 11
-140.397
 21
199.156
  0
LINE
  8
0
 10
-140.397
 20
199.156
 11
-140.269
 21
198.883
  0
LINE
  8
0
 10
-140.269
 20
198.883
 11
-140.175
 21
198.597
  0
LINE
  8
0
 10
-140.175
 20
198.597
 11
-140.119
 21
198.301
  0
LINE
  8
0
 10
-140.119
 20
198.301
 11
-140.1
 21
198
  0
LINE
  8
0
 10
-140.1
 20
198
 11
-140.119
 21
197.699
  0
LINE
  8
0
 10
-140.119
 20
197.699
 11
-140.175
 21
197.403
  0
LINE
  8
0
 10
-140.175
 20
197.403
 11
-140.269
 21
197.117
  0
LINE
  8
0
 10
-140.269
 20
197.117
 11
-140.397
 21
196.844
  0
LINE
  8
0
 10
-140.397
 20
196.844
 11
-140.558
 21
196.589
  0
LINE
  8
0
 10
-140.558
 20
196.589
 11
-140.75
 21
196.357
  0
LINE
  8
0
 10
-140.75
 20
196.357
 11
-140.97
 21
196.151
  0
LINE
  8
0
 10
-140.97
 20
196.151
 11
-141.214
 21
195.974
  0
LINE
  8
0
 10
-141.214
 20
195.974
 11
-141.478
 21
195.828
  0
LINE
  8
0
 10
-141.478
 20
195.828
 11
-141.758
 21
195.717
  0
LINE
  8
0
 10
-141.758
 20
195.717
 11
-142.05
 21
195.643
  0
LINE
  8
0
 10
-142.05
 20
195.643
 11
-142.349
 21
195.605
  0
LINE
  8
0
 10
-142.349
 20
195.605
 11
-142.651
 21
195.605
  0
LINE
  8
0
 10
142.349
 20
135.605
 11
142.05
 21
135.643
  0
LINE
  8
0
 10
142.05
 20
135.643
 11
141.758
 21
135.717
  0
LINE
  8
0
 10
141.758
 20
135.717
 11
141.478
 21
135.828
  0
LINE
  8
0
 10
141.478
 20
135.828
 11
141.214
 21
135.974
  0
LINE
  8
0
 10
141.214
 20
135.974
 11
140.97
 21
136.151
  0
LINE
  8
0
 10
140.97
 20
136.151
 11
140.75
 21
136.357
  0
LINE
  8
0
 10
140.75
 20
136.357
 11
140.558
 21
136.589
  0
LINE
  8
0
 10
140.558
 20
136.589
 11
140.397
 21
136.844
  0
LINE
  8
0
 10
140.397
 20
136.844
 11
140.269
 21
137.117
  0
LINE
  8
0
 10
140.269
 20
137.117
 11
140.175
 21
137.403
  0
LINE
  8
0
 10
140.175
 20
137.403
 11
140.119
 21
137.699
  0
LINE
  8
0
 10
140.119
 20
137.699
 11
140.1
 21
138
  0
LINE
  8
0
 10
140.1
 20
138
 11
140.119
 21
138.301
  0
LINE
  8
0
 10
140.119
 20
138.301
 11
140.175
 21
138.597
  0
LINE
  8
0
 10
140.175
 20
138.597
 11
140.269
 21
138.883
  0
LINE
  8
0
 10
140.269
 20
138.883
 11
140.397
 21
139.156
  0
LINE
  8
0
 10
140.397
 20
139.156
 11
140.558
 21
139.411
  0
LINE
  8
0
 10
140.558
 20
139.411
 11
140.75
 21
139.643
  0
LINE
  8
0
 10
140.75
 20
139.643
 11
140.97
 21
139.849
  0
LINE
  8
0
 10
140.97
 20
139.849
 11
141.214
 21
140.026
  0
LINE
  8
0
 10
141.214
 20
140.026
 11
141.478
 21
140.172
  0
LINE
  8
0
 10
141.478
 20
140.172
 11
141.758
 21
140.283
  0
LINE
  8
0
 10
141.758
 20
140.283
 11
142.05
 21
140.357
  0
LINE
  8
0
 10
142.05
 20
140.357
 11
142.349
 21
140.395
  0
LINE
  8
0
 10
142.349
 20
140.395
 11
142.651
 21
140.395
  0
LINE
  8
0
 10
142.651
 20
140.395
 11
142.95
 21
140.357
  0
LINE
  8
0
 10
142.95
 20
140.357
 11
143.242
 21
140.283
  0
LINE
  8
0
 10
143.242
 20
140.283
 11
143.522
 21
140.172
  0
LINE
  8
0
 10
143.522
 20
140.172
 11
143.786
 21
140.026
  0
LINE
  8
0
 10
143.786
 20
140.026
 11
144.03
 21
139.849
  0
LINE
  8
0
 10
144.03
 20
139.849
 11
144.25
 21
139.643
  0
LINE
  8
0
 10
144.25
 20
139.643
 11
144.442
 21
139.411
  0
LINE
  8
0
 10
144.442
 20
139.411
 11
144.603
 21
139.156
  0
LINE
  8
0
 10
144.603
 20
139.156
 11
144.731
 21
138.883
  0
LINE
  8
0
 10
144.731
 20
138.883
 11
144.825
 21
138.597
  0
LINE
  8
0
 10
144.825
 20
138.597
 11
144.881
 21
138.301
  0
LINE
  8
0
 10
144.881
 20
138.301
 11
144.9
 21
138
  0
LINE
  8
0
 10
144.9
 20
138
 11
144.881
 21
137.699
  0
LINE
  8
0
 10
144.881
 20
137.699
 11
144.825
 21
137.403
  0
LINE
  8
0
 10
144.825
 20
137.403
 11
144.731
 21
137.117
  0
LINE
  8
0
 10
144.731
 20
137.117
 11
144.603
 21
136.844
  0
LINE
  8
0
 10
144.603
 20
136.844
 11
144.442
 21
136.589
  0
LINE
  8
0
 10
144.442
 20
136.589
 11
144.25
 21
136.357
  0
LINE
  8
0
 10
144.25
 20
136.357
 11
144.03
 21
136.151
  0
LINE
  8
0
 10
144.03
 20
136.151
 11
143.786
 21
135.974
  0
LINE
  8
0
 10
143.786
 20
135.974
 11
143.522
 21
135.828
  0
LINE
  8
0
 10
143.522
 20
135.828
 11
143.242
 21
135.717
  0
LINE
  8
0
 10
143.242
 20
135.717
 11
142.95
 21
135.643
  0
LINE
  8
0
 10
142.95
 20
135.643
 11
142.651
 21
135.605
  0
LINE
  8
0
 10
142.651
 20
135.605
 11
142.349
 21
135.605
  0
LINE
  8
0
 10
-142.651
 20
135.605
 11
-142.95
 21
135.643
  0
LINE
  8
0
 10
-142.95
 20
135.643
 11
-143.242
 21
135.717
  0
LINE
  8
0
 10
-143.242
 20
135.717
 11
-143.522
 21
135.828
  0
LINE
  8
0
 10
-143.522
 20
135.828
 11
-143.786
 21
135.974
  0
LINE
  8
0
 10
-143.786
 20
135.974
 11
-144.03
 21
136.151
  0
LINE
  8
0
 10
-144.03
 20
136.151
 11
-144.25
 21
136.357
  0
LINE
  8
0
 10
-144.25
 20
136.357
 11
-144.442
 21
136.589
  0
LINE
  8
0
 10
-144.442
 20
136.589
 11
-144.603
 21
136.844
  0
LINE
  8
0
 10
-144.603
 20
136.844
 11
-144.731
 21
137.117
  0
LINE
  8
0
 10
-144.731
 20
137.117
 11
-144.825
 21
137.403
  0
LINE
  8
0
 10
-144.825
 20
137.403
 11
-144.881
 21
137.699
  0
LINE
  8
0
 10
-144.881
 20
137.699
 11
-144.9
 21
138
  0
LINE
  8
0
 10
-144.9
 20
138
 11
-144.881
 21
138.301
  0
LINE
  8
0
 10
-144.881
 20
138.301
 11
-144.825
 21
138.597
  0
LINE
  8
0
 10
-144.825
 20
138.597
 11
-144.731
 21
138.883
  0
LINE
  8
0
 10
-144.731
 20
138.883
 11
-144.603
 21
139.156
  0
LINE
  8
0
 10
-144.603
 20
139.156
 11
-144.442
 21
139.411
  0
LINE
  8
0
 10
-144.442
 20
139.411
 11
-144.25
 21
139.643
  0
LINE
  8
0
 10
-144.25
 20
139.643
 11
-144.03
 21
139.849
  0
LINE
  8
0
 10
-144.03
 20
139.849
 11
-143.786
 21
140.026
  0
LINE
  8
0
 10
-143.786
 20
140.026
 11
-143.522
 21
140.172
  0
LINE
  8
0
 10
-143.522
 20
140.172
 11
-143.242
 21
140.283
  0
LINE
  8
0
 10
-143.242
 20
140.283
 11
-142.95
 21
140.357
  0
LINE
  8
0
 10
-142.95
 20
140.357
 11
-142.651
 21
140.395
  0
LINE
  8
0
 10
-142.651
 20
140.395
 11
-142.349
 21
140.395
  0
LINE
  8
0
 10
-142.349
 20
140.395
 11
-142.05
 21
140.357
  0
LINE
  8
0
 10
-142.05
 20
140.357
 11
-141.758
 21
140.283
  0
LINE
  8
0
 10
-141.758
 20
140.283
 11
-141.478
 21
140.172
  0
LINE
  8
0
 10
-141.478
 20
140.172
 11
-141.214
 21
140.026
  0
LINE
  8
0
 10
-141.214
 20
140.026
 11
-140.97
 21
139.849
  0
LINE
  8
0
 10
-140.97
 20
139.849
 11
-140.75
 21
139.643
  0
LINE
  8
0
 10
-140.75
 20
139.643
 11
-140.558
 21
139.411
  0
LINE
  8
0
 10
-140.558
 20
139.411
 11
-140.397
 21
139.156
  0
LINE
  8
0
 10
-140.397
 20
139.156
 11
-140.269
 21
138.883
  0
LINE
  8
0
 10
-140.269
 20
138.883
 11
-140.175
 21
138.597
  0
LINE
  8
0
 10
-140.175
 20
138.597
 11
-140.119
 21
138.301
  0
LINE
  8
0
 10
-140.119
 20
138.301
 11
-140.1
 21
138
  0
LINE
  8
0
 10
-140.1
 20
138
 11
-140.119
 21
137.699
  0
LINE
  8
0
 10
-140.119
 20
137.699
 11
-140.175
 21
137.403
  0
LINE
  8
0
 10
-140.175
 20
137.403
 11
-140.269
 21
137.117
  0
LINE
  8
0
 10
-140.269
 20
137.117
 11
-140.397
 21
136.844
  0
LINE
  8
0
 10
-140.397
 20
136.844
 11
-140.558
 21
136.589
  0
LINE
  8
0
 10
-140.558
 20
136.589
 11
-140.75
 21
136.357
  0
LINE
  8
0
 10
-140.75
 20
136.357
 11
-140.97
 21
136.151
  0
LINE
  8
0
 10
-140.97
 20
136.151
 11
-141.214
 21
135.974
  0
LINE
  8
0
 10
-141.214
 20
135.974
 11
-141.478
 21
135.828
  0
LINE
  8
0
 10
-141.478
 20
135.828
 11
-141.758
 21
135.717
  0
LINE
  8
0
 10
-141.758
 20
135.717
 11
-142.05
 21
135.643
  0
LINE
  8
0
 10
-142.05
 20
135.643
 11
-142.349
 21
135.605
  0
LINE
  8
0
 10
-142.349
 20
135.605
 11
-142.651
 21
135.605
  0
LINE
  8
0
 10
145.937
 20
46.5886
 11
146.545
 21
46.7447
  0
LINE
  8
0
 10
146.545
 20
46.7447
 11
147.129
 21
46.9759
  0
LINE
  8
0
 10
147.129
 20
46.9759
 11
147.679
 21
47.2784
  0
LINE
  8
0
 10
147.679
 20
47.2784
 11
148.187
 21
47.6474
  0
LINE
  8
0
 10
148.187
 20
47.6474
 11
148.645
 21
48.0773
  0
LINE
  8
0
 10
148.645
 20
48.0773
 11
149.045
 21
48.5611
  0
LINE
  8
0
 10
149.045
 20
48.5611
 11
149.382
 21
49.0912
  0
LINE
  8
0
 10
149.382
 20
49.0912
 11
149.649
 21
49.6594
  0
LINE
  8
0
 10
149.649
 20
49.6594
 11
149.843
 21
50.2566
  0
LINE
  8
0
 10
149.843
 20
50.2566
 11
149.961
 21
50.8733
  0
LINE
  8
0
 10
149.961
 20
50.8733
 11
150
 21
51.5
  0
LINE
  8
0
 10
150
 20
51.5
 11
150
 21
116.5
  0
LINE
  8
0
 10
150
 20
116.5
 11
149.961
 21
117.127
  0
LINE
  8
0
 10
149.961
 20
117.127
 11
149.843
 21
117.743
  0
LINE
  8
0
 10
149.843
 20
117.743
 11
149.649
 21
118.341
  0
LINE
  8
0
 10
149.649
 20
118.341
 11
149.382
 21
118.909
  0
LINE
  8
0
 10
149.382
 20
118.909
 11
149.045
 21
119.439
  0
LINE
  8
0
 10
149.045
 20
119.439
 11
148.645
 21
119.923
  0
LINE
  8
0
 10
148.645
 20
119.923
 11
148.187
 21
120.353
  0
LINE
  8
0
 10
148.187
 20
120.353
 11
147.679
 21
120.722
  0
LINE
  8
0
 10
147.679
 20
120.722
 11
147.129
 21
121.024
  0
LINE
  8
0
 10
147.129
 20
121.024
 11
146.545
 21
121.255
  0
LINE
  8
0
 10
146.545
 20
121.255
 11
145.937
 21
121.411
  0
LINE
  8
0
 10
145.937
 20
121.411
 11
145.314
 21
121.49
  0
LINE
  8
0
 10
145.314
 20
121.49
 11
-145.314
 21
121.49
  0
LINE
  8
0
 10
-145.314
 20
121.49
 11
-145.937
 21
121.411
  0
LINE
  8
0
 10
-145.937
 20
121.411
 11
-146.545
 21
121.255
  0
LINE
  8
0
 10
-146.545
 20
121.255
 11
-147.129
 21
121.024
  0
LINE
  8
0
 10
-147.129
 20
121.024
 11
-147.679
 21
120.722
  0
LINE
  8
0
 10
-147.679
 20
120.722
 11
-148.187
 21
120.353
  0
LINE
  8
0
 10
-148.187
 20
120.353
 11
-148.645
 21
119.923
  0
LINE
  8
0
 10
-148.645
 20
119.923
 11
-149.045
 21
119.439
  0
LINE
  8
0
 10
-149.045
 20
119.439
 11
-149.382
 21
118.909
  0
LINE
  8
0
 10
-149.382
 20
118.909
 11
-149.649
 21
118.341
  0
LINE
  8
0
 10
-149.649
 20
118.341
 11
-149.843
 21
117.743
  0
LINE
  8
0
 10
-149.843
 20
117.743
 11
-149.9
 21
117.444
  0
LINE
  8
0
 10
-149.9
 20
117.444
 11
-151.5
 21
117.444
  0
LINE
  8
0
 10
-151.5
 20
117.444
 11
-151.5
 21
50.5558
  0
LINE
  8
0
 10
-151.5
 20
50.5558
 11
-149.9
 21
50.5558
  0
LINE
  8
0
 10
-149.9
 20
50.5558
 11
-149.843
 21
50.2566
  0
LINE
  8
0
 10
-149.843
 20
50.2566
 11
-149.649
 21
49.6594
  0
LINE
  8
0
 10
-149.649
 20
49.6594
 11
-149.382
 21
49.0912
  0
LINE
  8
0
 10
-149.382
 20
49.0912
 11
-149.045
 21
48.5611
  0
LINE
  8
0
 10
-149.045
 20
48.5611
 11
-148.645
 21
48.0773
  0
LINE
  8
0
 10
-148.645
 20
48.0773
 11
-148.187
 21
47.6474
  0
LINE
  8
0
 10
-148.187
 20
47.6474
 11
-147.679
 21
47.2784
  0
LINE
  8
0
 10
-147.679
 20
47.2784
 11
-147.129
 21
46.9759
  0
LINE
  8
0
 10
-147.129
 20
46.9759
 11
-146.545
 21
46.7447
  0
LINE
  8
0
 10
-146.545
 20
46.7447
 11
-145.937
 21
46.5886
  0
LINE
  8
0
 10
-145.937
 20
46.5886
 11
-145.314
 21
46.5099
  0
LINE
  8
0
 10
-145.314
 20
46.5099
 11
145.314
 21
46.5099
  0
LINE
  8
0
 10
145.314
 20
46.5099
 11
145.937
 21
46.5886
  0
LINE
  8
0
 10
142.387
 20
112.204
 11
142.163
 21
112.232
  0
LINE
  8
0
 10
142.163
 20
112.232
 11
141.944
 21
112.288
  0
LINE
  8
0
 10
141.944
 20
112.288
 11
141.734
 21
112.371
  0
LINE
  8
0
 10
141.734
 20
112.371
 11
141.536
 21
112.48
  0
LINE
  8
0
 10
141.536
 20
112.48
 11
141.353
 21
112.613
  0
LINE
  8
0
 10
141.353
 20
112.613
 11
141.188
 21
112.768
  0
LINE
  8
0
 10
141.188
 20
112.768
 11
141.044
 21
112.942
  0
LINE
  8
0
 10
141.044
 20
112.942
 11
140.923
 21
113.133
  0
LINE
  8
0
 10
140.923
 20
113.133
 11
140.826
 21
113.337
  0
LINE
  8
0
 10
140.826
 20
113.337
 11
140.757
 21
113.552
  0
LINE
  8
0
 10
140.757
 20
113.552
 11
140.714
 21
113.774
  0
LINE
  8
0
 10
140.714
 20
113.774
 11
140.7
 21
114
  0
LINE
  8
0
 10
140.7
 20
114
 11
140.714
 21
114.226
  0
LINE
  8
0
 10
140.714
 20
114.226
 11
140.757
 21
114.448
  0
LINE
  8
0
 10
140.757
 20
114.448
 11
140.826
 21
114.663
  0
LINE
  8
0
 10
140.826
 20
114.663
 11
140.923
 21
114.867
  0
LINE
  8
0
 10
140.923
 20
114.867
 11
141.044
 21
115.058
  0
LINE
  8
0
 10
141.044
 20
115.058
 11
141.188
 21
115.232
  0
LINE
  8
0
 10
141.188
 20
115.232
 11
141.353
 21
115.387
  0
LINE
  8
0
 10
141.353
 20
115.387
 11
141.536
 21
115.52
  0
LINE
  8
0
 10
141.536
 20
115.52
 11
141.734
 21
115.629
  0
LINE
  8
0
 10
141.734
 20
115.629
 11
141.944
 21
115.712
  0
LINE
  8
0
 10
141.944
 20
115.712
 11
142.163
 21
115.768
  0
LINE
  8
0
 10
142.163
 20
115.768
 11
142.387
 21
115.796
  0
LINE
  8
0
 10
142.387
 20
115.796
 11
142.613
 21
115.796
  0
LINE
  8
0
 10
142.613
 20
115.796
 11
142.837
 21
115.768
  0
LINE
  8
0
 10
142.837
 20
115.768
 11
143.056
 21
115.712
  0
LINE
  8
0
 10
143.056
 20
115.712
 11
143.266
 21
115.629
  0
LINE
  8
0
 10
143.266
 20
115.629
 11
143.464
 21
115.52
  0
LINE
  8
0
 10
143.464
 20
115.52
 11
143.647
 21
115.387
  0
LINE
  8
0
 10
143.647
 20
115.387
 11
143.812
 21
115.232
  0
LINE
  8
0
 10
143.812
 20
115.232
 11
143.956
 21
115.058
  0
LINE
  8
0
 10
143.956
 20
115.058
 11
144.077
 21
114.867
  0
LINE
  8
0
 10
144.077
 20
114.867
 11
144.174
 21
114.663
  0
LINE
  8
0
 10
144.174
 20
114.663
 11
144.243
 21
114.448
  0
LINE
  8
0
 10
144.243
 20
114.448
 11
144.286
 21
114.226
  0
LINE
  8
0
 10
144.286
 20
114.226
 11
144.3
 21
114
  0
LINE
  8
0
 10
144.3
 20
114
 11
144.286
 21
113.774
  0
LINE
  8
0
 10
144.286
 20
113.774
 11
144.243
 21
113.552
  0
LINE
  8
0
 10
144.243
 20
113.552
 11
144.174
 21
113.337
  0
LINE
  8
0
 10
144.174
 20
113.337
 11
144.077
 21
113.133
  0
LINE
  8
0
 10
144.077
 20
113.133
 11
143.956
 21
112.942
  0
LINE
  8
0
 10
143.956
 20
112.942
 11
143.812
 21
112.768
  0
LINE
  8
0
 10
143.812
 20
112.768
 11
143.647
 21
112.613
  0
LINE
  8
0
 10
143.647
 20
112.613
 11
143.464
 21
112.48
  0
LINE
  8
0
 10
143.464
 20
112.48
 11
143.266
 21
112.371
  0
LINE
  8
0
 10
143.266
 20
112.371
 11
143.056
 21
112.288
  0
LINE
  8
0
 10
143.056
 20
112.288
 11
142.837
 21
112.232
  0
LINE
  8
0
 10
142.837
 20
112.232
 11
142.613
 21
112.204
  0
LINE
  8
0
 10
142.613
 20
112.204
 11
142.387
 21
112.204
  0
LINE
  8
0
 10
-142.613
 20
112.204
 11
-142.837
 21
112.232
  0
LINE
  8
0
 10
-142.837
 20
112.232
 11
-143.056
 21
112.288
  0
LINE
  8
0
 10
-143.056
 20
112.288
 11
-143.266
 21
112.371
  0
LINE
  8
0
 10
-143.266
 20
112.371
 11
-143.464
 21
112.48
  0
LINE
  8
0
 10
-143.464
 20
112.48
 11
-143.647
 21
112.613
  0
LINE
  8
0
 10
-143.647
 20
112.613
 11
-143.812
 21
112.768
  0
LINE
  8
0
 10
-143.812
 20
112.768
 11
-143.956
 21
112.942
  0
LINE
  8
0
 10
-143.956
 20
112.942
 11
-144.077
 21
113.133
  0
LINE
  8
0
 10
-144.077
 20
113.133
 11
-144.174
 21
113.337
  0
LINE
  8
0
 10
-144.174
 20
113.337
 11
-144.243
 21
113.552
  0
LINE
  8
0
 10
-144.243
 20
113.552
 11
-144.286
 21
113.774
  0
LINE
  8
0
 10
-144.286
 20
113.774
 11
-144.3
 21
114
  0
LINE
  8
0
 10
-144.3
 20
114
 11
-144.286
 21
114.226
  0
LINE
  8
0
 10
-144.286
 20
114.226
 11
-144.243
 21
114.448
  0
LINE
  8
0
 10
-144.243
 20
114.448
 11
-144.174
 21
114.663
  0
LINE
  8
0
 10
-144.174
 20
114.663
 11
-144.077
 21
114.867
  0
LINE
  8
0
 10
-144.077
 20
114.867
 11
-143.956
 21
115.058
  0
LINE
  8
0
 10
-143.956
 20
115.058
 11
-143.812
 21
115.232
  0
LINE
  8
0
 10
-143.812
 20
115.232
 11
-143.647
 21
115.387
  0
LINE
  8
0
 10
-143.647
 20
115.387
 11
-143.464
 21
115.52
  0
LINE
  8
0
 10
-143.464
 20
115.52
 11
-143.266
 21
115.629
  0
LINE
  8
0
 10
-143.266
 20
115.629
 11
-143.056
 21
115.712
  0
LINE
  8
0
 10
-143.056
 20
115.712
 11
-142.837
 21
115.768
  0
LINE
  8
0
 10
-142.837
 20
115.768
 11
-142.613
 21
115.796
  0
LINE
  8
0
 10
-142.613
 20
115.796
 11
-142.387
 21
115.796
  0
LINE
  8
0
 10
-142.387
 20
115.796
 11
-142.163
 21
115.768
  0
LINE
  8
0
 10
-142.163
 20
115.768
 11
-141.944
 21
115.712
  0
LINE
  8
0
 10
-141.944
 20
115.712
 11
-141.734
 21
115.629
  0
LINE
  8
0
 10
-141.734
 20
115.629
 11
-141.536
 21
115.52
  0
LINE
  8
0
 10
-141.536
 20
115.52
 11
-141.353
 21
115.387
  0
LINE
  8
0
 10
-141.353
 20
115.387
 11
-141.188
 21
115.232
  0
LINE
  8
0
 10
-141.188
 20
115.232
 11
-141.044
 21
115.058
  0
LINE
  8
0
 10
-141.044
 20
115.058
 11
-140.923
 21
114.867
  0
LINE
  8
0
 10
-140.923
 20
114.867
 11
-140.826
 21
114.663
  0
LINE
  8
0
 10
-140.826
 20
114.663
 11
-140.757
 21
114.448
  0
LINE
  8
0
 10
-140.757
 20
114.448
 11
-140.714
 21
114.226
  0
LINE
  8
0
 10
-140.714
 20
114.226
 11
-140.7
 21
114
  0
LINE
  8
0
 10
-140.7
 20
114
 11
-140.714
 21
113.774
  0
LINE
  8
0
 10
-140.714
 20
113.774
 11
-140.757
 21
113.552
  0
LINE
  8
0
 10
-140.757
 20
113.552
 11
-140.826
 21
113.337
  0
LINE
  8
0
 10
-140.826
 20
113.337
 11
-140.923
 21
113.133
  0
LINE
  8
0
 10
-140.923
 20
113.133
 11
-141.044
 21
112.942
  0
LINE
  8
0
 10
-141.044
 20
112.942
 11
-141.188
 21
112.768
  0
LINE
  8
0
 10
-141.188
 20
112.768
 11
-141.353
 21
112.613
  0
LINE
  8
0
 10
-141.353
 20
112.613
 11
-141.536
 21
112.48
  0
LINE
  8
0
 10
-141.536
 20
112.48
 11
-141.734
 21
112.371
  0
LINE
  8
0
 10
-141.734
 20
112.371
 11
-141.944
 21
112.288
  0
LINE
  8
0
 10
-141.944
 20
112.288
 11
-142.163
 21
112.232
  0
LINE
  8
0
 10
-142.163
 20
112.232
 11
-142.387
 21
112.204
  0
LINE
  8
0
 10
-142.387
 20
112.204
 11
-142.613
 21
112.204
  0
LINE
  8
0
 10
142.387
 20
52.2036
 11
142.163
 21
52.2319
  0
LINE
  8
0
 10
142.163
 20
52.2319
 11
141.944
 21
52.2881
  0
LINE
  8
0
 10
141.944
 20
52.2881
 11
141.734
 21
52.3713
  0
LINE
  8
0
 10
141.734
 20
52.3713
 11
141.536
 21
52.4802
  0
LINE
  8
0
 10
141.536
 20
52.4802
 11
141.353
 21
52.6131
  0
LINE
  8
0
 10
141.353
 20
52.6131
 11
141.188
 21
52.7678
  0
LINE
  8
0
 10
141.188
 20
52.7678
 11
141.044
 21
52.942
  0
LINE
  8
0
 10
141.044
 20
52.942
 11
140.923
 21
53.1328
  0
LINE
  8
0
 10
140.923
 20
53.1328
 11
140.826
 21
53.3374
  0
LINE
  8
0
 10
140.826
 20
53.3374
 11
140.757
 21
53.5524
  0
LINE
  8
0
 10
140.757
 20
53.5524
 11
140.714
 21
53.7744
  0
LINE
  8
0
 10
140.714
 20
53.7744
 11
140.7
 21
54
  0
LINE
  8
0
 10
140.7
 20
54
 11
140.714
 21
54.2256
  0
LINE
  8
0
 10
140.714
 20
54.2256
 11
140.757
 21
54.4476
  0
LINE
  8
0
 10
140.757
 20
54.4476
 11
140.826
 21
54.6626
  0
LINE
  8
0
 10
140.826
 20
54.6626
 11
140.923
 21
54.8672
  0
LINE
  8
0
 10
140.923
 20
54.8672
 11
141.044
 21
55.058
  0
LINE
  8
0
 10
141.044
 20
55.058
 11
141.188
 21
55.2322
  0
LINE
  8
0
 10
141.188
 20
55.2322
 11
141.353
 21
55.3869
  0
LINE
  8
0
 10
141.353
 20
55.3869
 11
141.536
 21
55.5198
  0
LINE
  8
0
 10
141.536
 20
55.5198
 11
141.734
 21
55.6287
  0
LINE
  8
0
 10
141.734
 20
55.6287
 11
141.944
 21
55.7119
  0
LINE
  8
0
 10
141.944
 20
55.7119
 11
142.163
 21
55.7681
  0
LINE
  8
0
 10
142.163
 20
55.7681
 11
142.387
 21
55.7964
  0
LINE
  8
0
 10
142.387
 20
55.7964
 11
142.613
 21
55.7964
  0
LINE
  8
0
 10
142.613
 20
55.7964
 11
142.837
 21
55.7681
  0
LINE
  8
0
 10
142.837
 20
55.7681
 11
143.056
 21
55.7119
  0
LINE
  8
0
 10
143.056
 20
55.7119
 11
143.266
 21
55.6287
  0
LINE
  8
0
 10
143.266
 20
55.6287
 11
143.464
 21
55.5198
  0
LINE
  8
0
 10
143.464
 20
55.5198
 11
143.647
 21
55.3869
  0
LINE
  8
0
 10
143.647
 20
55.3869
 11
143.812
 21
55.2322
  0
LINE
  8
0
 10
143.812
 20
55.2322
 11
143.956
 21
55.058
  0
LINE
  8
0
 10
143.956
 20
55.058
 11
144.077
 21
54.8672
  0
LINE
  8
0
 10
144.077
 20
54.8672
 11
144.174
 21
54.6626
  0
LINE
  8
0
 10
144.174
 20
54.6626
 11
144.243
 21
54.4476
  0
LINE
  8
0
 10
144.243
 20
54.4476
 11
144.286
 21
54.2256
  0
LINE
  8
0
 10
144.286
 20
54.2256
 11
144.3
 21
54
  0
LINE
  8
0
 10
144.3
 20
54
 11
144.286
 21
53.7744
  0
LINE
  8
0
 10
144.286
 20
53.7744
 11
144.243
 21
53.5524
  0
LINE
  8
0
 10
144.243
 20
53.5524
 11
144.174
 21
53.3374
  0
LINE
  8
0
 10
144.174
 20
53.3374
 11
144.077
 21
53.1328
  0
LINE
  8
0
 10
144.077
 20
53.1328
 11
143.956
 21
52.942
  0
LINE
  8
0
 10
143.956
 20
52.942
 11
143.812
 21
52.7678
  0
LINE
  8
0
 10
143.812
 20
52.7678
 11
143.647
 21
52.6131
  0
LINE
  8
0
 10
143.647
 20
52.6131
 11
143.464
 21
52.4802
  0
LINE
  8
0
 10
143.464
 20
52.4802
 11
143.266
 21
52.3713
  0
LINE
  8
0
 10
143.266
 20
52.3713
 11
143.056
 21
52.2881
  0
LINE
  8
0
 10
143.056
 20
52.2881
 11
142.837
 21
52.2319
  0
LINE
  8
0
 10
142.837
 20
52.2319
 11
142.613
 21
52.2036
  0
LINE
  8
0
 10
142.613
 20
52.2036
 11
142.387
 21
52.2036
  0
LINE
  8
0
 10
-142.613
 20
52.2036
 11
-142.837
 21
52.2319
  0
LINE
  8
0
 10
-142.837
 20
52.2319
 11
-143.056
 21
52.2881
  0
LINE
  8
0
 10
-143.056
 20
52.2881
 11
-143.266
 21
52.3713
  0
LINE
  8
0
 10
-143.266
 20
52.3713
 11
-143.464
 21
52.4802
  0
LINE
  8
0
 10
-143.464
 20
52.4802
 11
-143.647
 21
52.6131
  0
LINE
  8
0
 10
-143.647
 20
52.6131
 11
-143.812
 21
52.7678
  0
LINE
  8
0
 10
-143.812
 20
52.7678
 11
-143.956
 21
52.942
  0
LINE
  8
0
 10
-143.956
 20
52.942
 11
-144.077
 21
53.1328
  0
LINE
  8
0
 10
-144.077
 20
53.1328
 11
-144.174
 21
53.3374
  0
LINE
  8
0
 10
-144.174
 20
53.3374
 11
-144.243
 21
53.5524
  0
LINE
  8
0
 10
-144.243
 20
53.5524
 11
-144.286
 21
53.7744
  0
LINE
  8
0
 10
-144.286
 20
53.7744
 11
-144.3
 21
54
  0
LINE
  8
0
 10
-144.3
 20
54
 11
-144.286
 21
54.2256
  0
LINE
  8
0
 10
-144.286
 20
54.2256
 11
-144.243
 21
54.4476
  0
LINE
  8
0
 10
-144.243
 20
54.4476
 11
-144.174
 21
54.6626
  0
LINE
  8
0
 10
-144.174
 20
54.6626
 11
-144.077
 21
54.8672
  0
LINE
  8
0
 10
-144.077
 20
54.8672
 11
-143.956
 21
55.058
  0
LINE
  8
0
 10
-143.956
 20
55.058
 11
-143.812
 21
55.2322
  0
LINE
  8
0
 10
-143.812
 20
55.2322
 11
-143.647
 21
55.3869
  0
LINE
  8
0
 10
-143.647
 20
55.3869
 11
-143.464
 21
55.5198
  0
LINE
  8
0
 10
-143.464
 20
55.5198
 11
-143.266
 21
55.6287
  0
LINE
  8
0
 10
-143.266
 20
55.6287
 11
-143.056
 21
55.7119
  0
LINE
  8
0
 10
-143.056
 20
55.7119
 11
-142.837
 21
55.7681
  0
LINE
  8
0
 10
-142.837
 20
55.7681
 11
-142.613
 21
55.7964
  0
LINE
  8
0
 10
-142.613
 20
55.7964
 11
-142.387
 21
55.7964
  0
LINE
  8
0
 10
-142.387
 20
55.7964
 11
-142.163
 21
55.7681
  0
LINE
  8
0
 10
-142.163
 20
55.7681
 11
-141.944
 21
55.7119
  0
LINE
  8
0
 10
-141.944
 20
55.7119
 11
-141.734
 21
55.6287
  0
LINE
  8
0
 10
-141.734
 20
55.6287
 11
-141.536
 21
55.5198
  0
LINE
  8
0
 10
-141.536
 20
55.5198
 11
-141.353
 21
55.3869
  0
LINE
  8
0
 10
-141.353
 20
55.3869
 11
-141.188
 21
55.2322
  0
LINE
  8
0
 10
-141.188
 20
55.2322
 11
-141.044
 21
55.058
  0
LINE
  8
0
 10
-141.044
 20
55.058
 11
-140.923
 21
54.8672
  0
LINE
  8
0
 10
-140.923
 20
54.8672
 11
-140.826
 21
54.6626
  0
LINE
  8
0
 10
-140.826
 20
54.6626
 11
-140.757
 21
54.4476
  0
LINE
  8
0
 10
-140.757
 20
54.4476
 11
-140.714
 21
54.2256
  0
LINE
  8
0
 10
-140.714
 20
54.2256
 11
-140.7
 21
54
  0
LINE
  8
0
 10
-140.7
 20
54
 11
-140.714
 21
53.7744
  0
LINE
  8
0
 10
-140.714
 20
53.7744
 11
-140.757
 21
53.5524
  0
LINE
  8
0
 10
-140.757
 20
53.5524
 11
-140.826
 21
53.3374
  0
LINE
  8
0
 10
-140.826
 20
53.3374
 11
-140.923
 21
53.1328
  0
LINE
  8
0
 10
-140.923
 20
53.1328
 11
-141.044
 21
52.942
  0
LINE
  8
0
 10
-141.044
 20
52.942
 11
-141.188
 21
52.7678
  0
LINE
  8
0
 10
-141.188
 20
52.7678
 11
-141.353
 21
52.6131
  0
LINE
  8
0
 10
-141.353
 20
52.6131
 11
-141.536
 21
52.4802
  0
LINE
  8
0
 10
-141.536
 20
52.4802
 11
-141.734
 21
52.3713
  0
LINE
  8
0
 10
-141.734
 20
52.3713
 11
-141.944
 21
52.2881
  0
LINE
  8
0
 10
-141.944
 20
52.2881
 11
-142.163
 21
52.2319
  0
LINE
  8
0
 10
-142.163
 20
52.2319
 11
-142.387
 21
52.2036
  0
LINE
  8
0
 10
-142.387
 20
52.2036
 11
-142.613
 21
52.2036
  0
ENDSEC
  0
SECTION
  2
OBJECTS
  0
DICTIONARY
  0
ENDSEC
  0
EOF
